600 0 1 0           
86 GICL ACIS Healer - Source: /gicl/data5/repository/PTC/V18/reel18/areel/lid_3.sat - 6 0 18 ACIS 6.0.3 Solaris 24 Sat Apr 13 21:04:01 2002 
1 9.999999999999999547e-07 1.000000000000000036e-10 
body $-1 $1 $-1 $-1 #
lump $-1 $-1 $2 $0 #
shell $-1 $-1 $-1 $3 $-1 $1 #
face $-1 $4 $5 $2 $-1 $6 forward single #
face $-1 $7 $8 $2 $-1 $9 forward single #
loop $-1 $10 $11 $3 #
plane-surface $-1 0 0 5.079999999999999183 0 0 1 25.39999999999999858 0 0 forward_v I I I I #
face $-1 $12 $13 $2 $-1 $14 forward single #
loop $-1 $-1 $15 $4 #
cone-surface $-1 7.619999999999999218 27.93999999999999417 0 0 0 1 6.508893973220764906 0 0 1 I I 0 1 6.508893973220764906 forward I I I I #
loop $-1 $-1 $16 $3 #
coedge $-1 $17 $18 $19 $20 forward $5 $-1 #
face $-1 $21 $22 $2 $-1 $23 forward single #
loop $-1 $-1 $24 $7 #
plane-surface $-1 1.111106026779234757 27.93999999999999417 0 -1 0 0 0 -25.39999999999999858 0 forward_v I I I I #
coedge $-1 $19 $25 $26 $27 forward $8 $-1 #
coedge $-1 $28 $28 $29 $30 forward $10 $-1 #
coedge $-1 $31 $11 $32 $33 forward $5 $-1 #
coedge $-1 $11 $34 $35 $36 forward $5 $-1 #
coedge $-1 $37 $15 $11 $20 reversed $8 $-1 #
edge $-1 $38 0 $39 0.221332137951127661 $11 $40 forward 7 unknown #
face $-1 $41 $42 $2 $-1 $43 reversed single #
loop $-1 $-1 $44 $12 #
torus-surface $-1 32.37961252169129267 67.55354257999310619 0 0 0 1 82.70889397322078196 5.079999999999999183 1 0 0 forward_v I I I I #
coedge $-1 $32 $45 $44 $46 reversed $13 $-1 #
coedge $-1 $15 $37 $47 $48 forward $8 $-1 #
coedge $-1 $45 $32 $15 $27 reversed $13 $-1 #
edge $-1 $49 0 $39 0.1999999999999999833 $15 $50 forward 7 unknown #
coedge $-1 $16 $16 $51 $52 forward $10 $-1 #
coedge $-1 $53 $54 $16 $30 reversed $55 $-1 #
edge $-1 $56 7.212078703273657904e-17 $57 3.141592653589793116 $16 $58 forward 7 unknown #
coedge $-1 $59 $17 $60 $61 forward $5 $-1 #
coedge $-1 $26 $24 $17 $33 reversed $13 $-1 #
edge $-1 $39 0 $62 1.454998368252363061 $17 $63 forward 7 unknown #
coedge $-1 $18 $64 $65 $66 forward $5 $-1 #
coedge $-1 $67 $68 $18 $36 reversed $69 $-1 #
edge $-1 $70 0 $38 1.685790972175410518 $18 $71 forward 7 unknown #
coedge $-1 $25 $19 $68 $72 forward $8 $-1 #
vertex $-1 $36 $73 #
vertex $-1 $33 $74 #
ellipse-curve $-1 7.620000000000020535 27.93999999999999417 5.079999999999999183 0 0 1 -6.350115177532076771 1.428893973220767499 0 1 I I #
face $-1 $75 $76 $2 $-1 $77 forward single #
loop $-1 $78 $79 $21 #
plane-surface $-1 0 0 0 0 0 1 25.39999999999999858 0 0 forward_v I I I I #
coedge $-1 $80 $60 $24 $46 forward $22 $-1 #
coedge $-1 $24 $26 $81 $82 forward $13 $-1 #
edge $-1 $62 0 $83 1 $24 $84 forward 7 unknown #
coedge $-1 $85 $81 $25 $48 reversed $42 $-1 #
edge $-1 $86 -1.091648963223939909e-15 $49 1.570796326794896558 $25 $87 forward 7 unknown #
vertex $-1 $48 $88 #
straight-curve $-1 1.111106026779234757 27.93999999999999417 0 0 0 25.39999999999999858 I I #
coedge $-1 $89 $90 $28 $52 reversed $91 $-1 #
edge $-1 $57 0 $56 3.14159265358979356 $28 $92 forward 7 unknown #
coedge $-1 $93 $29 $90 $94 forward $55 $-1 #
coedge $-1 $29 $93 $89 $95 reversed $55 $-1 #
loop $-1 $-1 $53 $96 #
vertex $-1 $52 $97 #
vertex $-1 $52 $98 #
ellipse-curve $-1 30.47999999999999687 7.873999999999999666 5.079999999999999183 0 0 -1 5.079999999999998295 -1.409983241273948727e-15 0 1 I I #
coedge $-1 $64 $31 $99 $100 forward $5 $-1 #
coedge $-1 $44 $101 $31 $61 reversed $22 $-1 #
edge $-1 $62 1.994284004785464548e-16 $102 0.9129017043713739676 $31 $103 forward 7 unknown #
vertex $-1 $61 $104 #
straight-curve $-1 1.111106026779234757 27.93999999999999417 5.079999999999999183 0 -25.39999999999999858 0 I I #
coedge $-1 $34 $59 $105 $106 forward $5 $-1 #
coedge $-1 $107 $108 $34 $66 reversed $76 $-1 #
edge $-1 $109 0 $70 0.7853981633974476129 $34 $110 forward 7 unknown #
coedge $-1 $111 $35 $108 $112 forward $69 $-1 #
coedge $-1 $35 $111 $37 $72 reversed $69 $-1 #
loop $-1 $-1 $67 $113 #
vertex $-1 $36 $114 #
straight-curve $-1 44.08897551572337647 29.36889397322076078 5.079999999999999183 -25.39999999999999858 0 0 I I #
edge $-1 $38 0 $86 1 $37 $115 forward 7 unknown #
point $-1 1.269884822467948204 29.36889397322076078 5.079999999999999183 #
point $-1 1.111106026779234757 27.93999999999999417 5.079999999999999183 #
face $-1 $116 $117 $2 $-1 $118 forward single #
loop $-1 $-1 $107 $41 #
torus-surface $-1 44.08897551572337647 10.15999999999999837 0 0 0 1 19.2088939732207642 5.079999999999999183 1 0 0 forward_v I I I I #
loop $-1 $-1 $119 $21 #
coedge $-1 $120 $85 $121 $122 reversed $42 $-1 #
coedge $-1 $101 $44 $123 $124 forward $22 $-1 #
coedge $-1 $47 $123 $45 $82 reversed $42 $-1 #
edge $-1 $49 0 $83 1.669999142965870043 $45 $125 forward 7 unknown #
vertex $-1 $82 $126 #
intcurve-curve $-1 forward { surfintcur full nurbs 3 open 9 
	0 3 0.126151551175137655 1 0.2520103741966286393 1 0.3775575283789384673 1 0.502687095216192148 1 
	0.6274371553947823976 1 0.7518228029813662783 1 0.8759913246222059691 1 1 3 
	1.111106026779226763 -9.01695855361002252 5.079999999999999183 1 
	1.111106026779200562 -9.398272699531281305 5.078585666615433425 1 
	1.111106026779166145 -10.13855378399200546 5.008648921025619316 1 
	1.111106026779254963 -11.20053595951709013 4.696477974173232539 1.000000000000000222 
	1.111106026779236311 -12.16159051855891349 4.198340009554727636 1 
	1.111106026779182576 -12.98248558818000475 3.544940915362806866 1 
	1.111106026779234091 -13.64274844942145926 2.763806273776373779 1 
	1.111106026779226319 -14.12140269338553722 1.894890392293100412 1.000000000000000222 
	1.11110602677926984 -14.4134792316496565 0.9584738315387284491 1 
	1.111106026779242306 -14.47779569519069298 0.3231872857532531174 1 
	1.111106026779221656 -14.47797823133308981 0 1 
	0.02539999999999999897 
	torus 32.37961252169129267 67.55354257999310619 0 0 0 1 82.70889397322078196 5.079999999999999183 1 0 0 forward_v I I I I 
	plane 1.111106026779234757 27.93999999999999417 0 -1 0 0 0 -25.39999999999999858 0 forward_v I I I I 
	nullbs 
	nullbs 
	I I 
	0 
	0 
	0 
	} I I #
coedge $-1 $79 $47 $111 $127 reversed $42 $-1 #
vertex $-1 $48 $128 #
ellipse-curve $-1 7.619999999999999218 27.93999999999999417 0 0 0 1 0 6.508893973220765794 0 1 I I #
point $-1 1.111106026779234757 27.93999999999999417 0 #
coedge $-1 $129 $51 $54 $95 forward $91 $-1 #
coedge $-1 $51 $129 $53 $94 reversed $91 $-1 #
loop $-1 $-1 $89 $130 #
ellipse-curve $-1 30.47999999999999687 7.873999999999999666 5.079999999999999183 0 0 -1 -5.079999999999998295 0 0 1 I I #
coedge $-1 $54 $53 $131 $132 forward $55 $-1 #
edge $-1 $56 0 $133 0.09999999999999999167 $90 $134 forward 7 unknown #
edge $-1 $57 0 $135 0.09999999999999999167 $89 $136 forward 7 unknown #
face $-1 $130 $55 $2 $-1 $137 reversed single #
point $-1 35.55999999999999517 7.87399999999999789 5.079999999999999183 #
point $-1 25.39999999999999858 7.873999999999999666 5.079999999999999183 #
coedge $-1 $138 $139 $59 $100 reversed $140 $-1 #
edge $-1 $102 0 $141 1.830987197079490425 $59 $142 forward 7 unknown #
coedge $-1 $60 $80 $138 $143 reversed $22 $-1 #
vertex $-1 $100 $144 #
ellipse-curve $-1 32.37961252169129978 67.55354257999306355 5.079999999999999183 0 0 1 -31.26850649491207079 -76.57050113360307364 0 1 I I #
point $-1 1.111106026779239642 -9.016958553610027849 5.079999999999999183 #
coedge $-1 $145 $146 $64 $106 reversed $117 $-1 #
edge $-1 $141 0 $109 0.9752772756179293179 $64 $147 forward 7 unknown #
coedge $-1 $121 $65 $146 $148 forward $76 $-1 #
coedge $-1 $65 $121 $67 $112 reversed $76 $-1 #
vertex $-1 $66 $149 #
ellipse-curve $-1 44.08897551572337647 10.15999999999998238 5.079999999999999183 0 0 1 13.5827391875578094 13.58273918755782717 0 1 I I #
coedge $-1 $68 $67 $85 $127 forward $69 $-1 #
edge $-1 $70 0 $150 1.570796326794896558 $67 $151 forward 7 unknown #
face $-1 $152 $69 $2 $-1 $153 forward single #
point $-1 44.08897551572337647 29.36889397322076078 5.079999999999999183 #
intcurve-curve $-1 forward { surfintcur full nurbs 3 open 9 
	0 3 0.1206937732228299393 1 0.2421892131319842156 1 0.3646526640716948875 1 0.4885272547610780003 1 
	0.6139732388725464007 1 0.7411444977484984431 1 0.8698366047711665328 1 1 3 
	1.269884822467948204 29.36889397322076078 5.079999999999999183 1 
	1.332023713749995286 29.65358258288871696 5.080910728202322701 1 
	1.502084931317801519 30.22187109920709958 5.032711829193048381 1 
	1.894677102748035802 31.08636499126142283 4.809042139329250176 0.999999999999999778 
	2.431071430994240501 31.91309433730276979 4.429750576534937423 1.000000000000000222 
	3.138785550516739242 32.70236035025570231 3.875300779805005202 1 
	4.016955989871950905 33.40206395802736949 3.146523238744776574 1 
	5.07517712445065694 33.97241994883626859 2.238367054180987026 1.000000000000000222 
	6.280400743807278197 34.35523167574133652 1.182891197901174696 1 
	7.158810223048411636 34.44382267782147267 0.4084404005458011633 1 
	7.620000000000006324 34.44889397322076263 3.110500138708837565e-16 1 
	0.02539999999999999897 
	cone 7.619999999999999218 27.93999999999999417 0 0 0 1 6.508893973220764906 0 0 1 I I 0 1 6.508893973220764906 forward I I I I 
	cone 44.08897551572337647 29.36889397322076078 0 -1 0 0 0 0 5.079999999999999183 1 I I 0 1 5.079999999999999183 forward I I I I 
	nullbs 
	nullbs 
	I F 0.9999982111681142705 
	0 
	1 0.9999982111681142705 
	0 
	} I I #
face $-1 $113 $140 $2 $-1 $154 forward single #
loop $-1 $-1 $145 $75 #
cone-surface $-1 75.18819415149630458 6.226259739342697941 0 -0.7071067811865476838 0.7071067811865474617 0 0 0 5.079999999999999183 1 I I 0 1 5.079999999999999183 forward I I I I #
coedge $-1 $155 $156 $157 $158 forward $78 $-1 #
coedge $-1 $159 $79 $160 $161 reversed $42 $-1 #
coedge $-1 $108 $107 $79 $122 forward $76 $-1 #
edge $-1 $162 0 $150 0.7853981633974469467 $121 $163 forward 7 unknown #
coedge $-1 $81 $159 $80 $124 reversed $42 $-1 #
edge $-1 $83 2.950264999821746749e-16 $164 0.8893821478082082344 $80 $165 forward 7 unknown #
straight-curve $-1 1.111106026779234757 27.93999999999999417 0 0 -25.39999999999999858 0 I I #
point $-1 1.111106026779240308 -14.47797823133309869 0 #
edge $-1 $150 0 $86 1.435786437626904499 $111 $166 forward 7 unknown #
point $-1 7.620000000000006324 34.44889397322076263 3.110500138708837565e-16 #
coedge $-1 $90 $89 $167 $168 forward $91 $-1 #
face $-1 $-1 $91 $2 $-1 $169 reversed single #
coedge $-1 $167 $167 $93 $132 reversed $170 $-1 #
edge $-1 $133 -7.212078703273657904e-17 $135 3.14159265358979356 $131 $171 forward 7 unknown #
vertex $-1 $168 $172 #
straight-curve $-1 35.55999999999999517 7.873999999999999666 5.079999999999999183 0 0 -25.39999999999999858 I I #
vertex $-1 $168 $173 #
straight-curve $-1 25.39999999999999858 7.873999999999999666 5.079999999999999183 0 0 -25.39999999999999858 I I #
cone-surface $-1 30.47999999999999687 7.873999999999999666 5.079999999999999183 0 0 -1 -5.079999999999999183 0 0 1 I I 0 1 5.079999999999999183 forward I I I I #
coedge $-1 $174 $99 $101 $143 forward $140 $-1 #
coedge $-1 $99 $174 $145 $175 reversed $140 $-1 #
loop $-1 $-1 $138 $116 #
vertex $-1 $106 $176 #
ellipse-curve $-1 70.58571108500763103 1.623776672854050807 5.079999999999999183 0 0 1 3.263509772690923683 -5.6316254064151412 0 1 I I #
edge $-1 $102 -4.69469235284464755e-15 $164 1.57079632679489567 $138 $177 forward 7 unknown #
point $-1 73.84922085769855471 -4.007848733561090171 5.079999999999999183 #
coedge $-1 $160 $105 $139 $175 forward $117 $-1 #
coedge $-1 $105 $160 $107 $148 reversed $117 $-1 #
straight-curve $-1 75.18819415149630458 6.226259739342697941 5.079999999999999183 -17.96051224213831077 17.96051224213830011 0 I I #
edge $-1 $109 -3.059825854521527088e-16 $162 1.570796326794896336 $107 $178 forward 7 unknown #
point $-1 57.67171470328118232 23.74273918755780599 5.079999999999999183 #
vertex $-1 $127 $179 #
ellipse-curve $-1 44.08897551572337647 29.36889397322076078 0 -1 0 0 0 0 5.079999999999999183 1 I I #
face $-1 $180 $181 $2 $-1 $182 reversed single #
cone-surface $-1 44.08897551572337647 29.36889397322076078 0 -1 0 0 0 0 5.079999999999999183 1 I I 0 1 5.079999999999999183 forward I I I I #
torus-surface $-1 70.58571108500764524 1.623776672854043035 0 0 0 1 6.508893973220758689 5.079999999999999183 1 0 0 forward_v I I I I #
coedge $-1 $183 $119 $184 $185 forward $78 $-1 #
coedge $-1 $119 $186 $187 $188 forward $78 $-1 #
coedge $-1 $189 $190 $119 $158 reversed $181 $-1 #
edge $-1 $191 -1.79027895568470579e-15 $192 1.570796326794896558 $119 $193 forward 7 unknown #
coedge $-1 $123 $120 $174 $194 reversed $42 $-1 #
coedge $-1 $146 $145 $120 $161 forward $117 $-1 #
edge $-1 $195 0 $162 0.9752772756179293179 $160 $196 forward 7 unknown #
vertex $-1 $122 $197 #
ellipse-curve $-1 44.08897551572338358 10.15999999999995573 0 0 0 1 17.17484163598546587 17.17484163598552271 0 1 I I #
vertex $-1 $194 $198 #
ellipse-curve $-1 32.37961252169127135 67.55354257999314882 0 0 0 1 -31.26850649491204948 -82.03152081132623152 0 1 I I #
straight-curve $-1 44.08897551572337647 34.44889397322076263 0 -25.39999999999999858 0 0 I I #
coedge $-1 $131 $131 $129 $168 reversed $170 $-1 #
edge $-1 $135 3.059669752903974829e-17 $133 3.141592653589794004 $167 $199 forward 7 unknown #
cone-surface $-1 30.47999999999999687 7.873999999999999666 5.079999999999999183 0 0 -1 -5.079999999999999183 0 0 1 I I 0 1 5.079999999999999183 forward I I I I #
loop $-1 $-1 $131 $200 #
ellipse-curve $-1 30.47999999999999687 7.87399999999999789 2.539999999999999591 0 0 -1 5.079999999999998295 1.409983241273948727e-15 0 1 I I #
point $-1 35.55999999999999517 7.873999999999999666 2.539999999999999591 #
point $-1 25.39999999999999858 7.873999999999999666 2.539999999999999591 #
coedge $-1 $139 $138 $159 $194 forward $140 $-1 #
edge $-1 $141 3.92523114670943878e-16 $195 1.570796326794897002 $145 $201 forward 7 unknown #
point $-1 75.18819415149630458 6.226259739342697941 5.079999999999999183 #
ellipse-curve $-1 73.84922085769856892 -4.00784873356110527 -1.057487430955461447e-15 0.8652200250280724925 0.5013923695973261374 4.17493014823738305e-16 0 -4.229949723821845788e-15 5.080000000000000071 1 I I #
ellipse-curve $-1 57.67171470328119653 23.74273918755780244 -7.931155732165962036e-15 -0.7071067811865476838 0.7071067811865474617 -1.962615573354716136e-15 -1.127986593019158982e-14 2.819966482547897455e-15 5.080000000000007176 1 I I #
point $-1 44.08897551572337647 34.44889397322076263 3.110500138708837565e-16 #
face $-1 $202 $203 $2 $-1 $204 reversed single #
loop $-1 $-1 $189 $152 #
cone-surface $-1 7.619999999999999218 27.93999999999999417 0 0 0 1 3.968893973220764426 0 0 1 I I 0 1 3.968893973220764426 forward I I I I #
coedge $-1 $205 $155 $206 $207 forward $78 $-1 #
coedge $-1 $208 $209 $155 $185 reversed $210 $-1 #
edge $-1 $192 0 $211 1.600347241962444489 $155 $212 forward 7 unknown #
coedge $-1 $156 $213 $214 $215 forward $78 $-1 #
coedge $-1 $216 $217 $156 $188 reversed $203 $-1 #
edge $-1 $218 0 $191 1.435786437626904499 $156 $219 forward 7 unknown #
coedge $-1 $220 $157 $217 $221 reversed $181 $-1 #
coedge $-1 $157 $220 $208 $222 reversed $181 $-1 #
vertex $-1 $188 $223 #
vertex $-1 $185 $224 #
ellipse-curve $-1 7.619999999999999218 27.93999999999999417 0 0 0 1 0 3.968893973220763982 0 1 I I #
edge $-1 $164 -1.692997056640363713e-15 $195 1.830987197079489093 $174 $225 forward 7 unknown #
vertex $-1 $161 $226 #
straight-curve $-1 78.7802965999239575 9.818362187770359739 0 -17.96051224213830722 17.96051224213830011 0 I I #
point $-1 61.26381715170884945 27.33484163598547667 0 #
point $-1 76.39629409525298342 -8.40316646070371398 0 #
ellipse-curve $-1 30.47999999999999687 7.874000000000002331 2.539999999999999591 0 0 -1 -5.079999999999998295 -2.819966482547897455e-15 0 1 I I #
face $-1 $96 $227 $2 $-1 $228 reversed single #
ellipse-curve $-1 75.18819415149630458 6.226259739342697941 0 -0.7071067811865476838 0.7071067811865474617 3.925231146709437301e-16 0 -2.819966482547897455e-15 5.079999999999999183 1 I I #
face $-1 $229 $230 $2 $-1 $231 reversed single #
loop $-1 $-1 $217 $180 #
cone-surface $-1 44.08897551572337647 29.36889397322076078 0 -1 0 0 0 0 2.539999999999999591 1 I I 0 1 2.539999999999999591 forward I I I I #
coedge $-1 $213 $183 $232 $233 forward $78 $-1 #
coedge $-1 $234 $235 $183 $207 reversed $236 $-1 #
edge $-1 $211 3.754429225716277411e-16 $237 0.868931357598242915 $183 $238 forward 7 unknown #
coedge $-1 $239 $184 $190 $222 forward $210 $-1 #
coedge $-1 $184 $239 $234 $240 forward $210 $-1 #
loop $-1 $-1 $208 $241 #
vertex $-1 $207 $242 #
straight-curve $-1 3.651106026779234792 27.93999999999999417 0 0 -25.39999999999999858 0 I I #
coedge $-1 $186 $205 $243 $244 forward $78 $-1 #
coedge $-1 $245 $246 $186 $215 reversed $230 $-1 #
edge $-1 $247 0 $218 0.785398163397448501 $186 $248 forward 7 unknown #
coedge $-1 $249 $187 $246 $250 reversed $203 $-1 #
coedge $-1 $187 $249 $189 $221 forward $203 $-1 #
vertex $-1 $188 $251 #
straight-curve $-1 44.08897551572337647 31.90889397322076348 0 -25.39999999999999858 0 0 I I #
coedge $-1 $190 $189 $252 $253 forward $181 $-1 #
edge $-1 $254 0 $191 1 $189 $255 forward 7 unknown #
edge $-1 $192 0 $256 0.09999999999999999167 $190 $257 forward 7 unknown #
point $-1 7.620000000000006324 31.90889397322076348 1.555250069354418783e-16 #
point $-1 3.651106026779234792 27.93999999999999417 0 #
ellipse-curve $-1 70.58571108500761682 1.623776672854044811 0 0 0 1 5.810583010245376379 -10.02694313355773659 0 1 I I #
point $-1 78.7802965999239575 9.818362187770359739 3.110500138708837565e-16 #
loop $-1 $170 $258 $200 #
plane-surface $-1 0 0 2.539999999999999591 0 0 1 25.39999999999999858 0 0 forward_v I I I I #
face $-1 $259 $260 $2 $-1 $261 reversed single #
loop $-1 $-1 $246 $202 #
torus-surface $-1 44.08897551572337647 10.15999999999999837 0 0 0 1 19.2088939732207642 2.539999999999999591 1 0 0 forward_v I I I I #
coedge $-1 $262 $263 $205 $233 reversed $264 $-1 #
edge $-1 $237 -8.6775915580754392e-17 $265 1.830987197079491757 $205 $266 forward 7 unknown #
coedge $-1 $267 $206 $209 $240 reversed $236 $-1 #
coedge $-1 $206 $267 $262 $268 forward $236 $-1 #
loop $-1 $-1 $235 $269 #
vertex $-1 $233 $270 #
ellipse-curve $-1 32.37961252169129267 67.55354257999307777 0 0 0 1 -28.7285064949120823 -80.26236252583915132 0 1 I I #
coedge $-1 $209 $208 $271 $272 forward $210 $-1 #
edge $-1 $273 0 $211 1 $209 $274 forward 7 unknown #
face $-1 $200 $210 $2 $-1 $275 reversed single #
point $-1 3.651106026779240121 -12.70881994584608776 0 #
coedge $-1 $276 $277 $213 $244 reversed $260 $-1 #
edge $-1 $265 0 $247 0.9752772756179295399 $213 $278 forward 7 unknown #
coedge $-1 $279 $214 $277 $280 reversed $230 $-1 #
coedge $-1 $214 $279 $216 $250 forward $230 $-1 #
vertex $-1 $215 $281 #
ellipse-curve $-1 44.08897551572337647 10.1600000000000108 0 0 0 1 15.37879041177163231 15.37879041177162875 0 1 I I #
coedge $-1 $217 $216 $282 $283 forward $203 $-1 #
edge $-1 $284 0 $218 1.570796326794896558 $216 $285 forward 7 unknown #
point $-1 44.08897551572337647 31.90889397322076348 1.555250069354418783e-16 #
coedge $-1 $282 $271 $220 $253 reversed $227 $-1 #
edge $-1 $254 0 $256 0.3682927782759679025 $252 $286 forward 7 unknown #
vertex $-1 $283 $287 #
intcurve-curve $-1 forward { surfintcur full nurbs 3 open 8 
	0 3 0.1383629626088229703 1 0.2774523411320914956 1 0.4177277813212687541 1 0.5599745582025459356 1 
	0.7046118150343854136 1 0.851415166089445119 1 1 3 
	3.91724678327579845 29.36889397322076078 2.539999999999999591 1 
	3.987113784130730032 29.55090219094887161 2.538758665729514696 1 
	4.154246469162606203 29.90370902696841071 2.502113785719128458 1 
	4.488919369474881904 30.4040259326290645 2.338798057337773795 1 
	4.906743880851438533 30.8597823464519827 2.079356499930873348 1 
	5.429250840065387607 31.27378186186687614 1.712246285124294998 1 
	6.066831018676051457 31.61770447393004702 1.231588929754283912 0.999999999999999889 
	6.805184672072225105 31.85231665459028605 0.6512382338231251788 1 
	7.339481834887126688 31.90598307623445606 0.2255355843305362484 1 
	7.620000000000006324 31.90889397322076348 1.555250069354418783e-16 1 
	0.02539999999999999897 
	cone 7.619999999999999218 27.93999999999999417 0 0 0 1 3.968893973220764426 0 0 1 I I 0 1 3.968893973220764426 forward I I I I 
	cone 44.08897551572337647 29.36889397322076078 0 -1 0 0 0 0 2.539999999999999591 1 I I 0 1 2.539999999999999591 forward I I I I 
	nullbs 
	nullbs 
	I F 0.9999965050357590979 
	0 
	1 0.9999965050357590979 
	0 
	} I I #
vertex $-1 $253 $288 #
straight-curve $-1 3.651106026779234792 27.93999999999999417 0 0 0 25.39999999999999858 I I #
coedge $-1 $289 $282 $279 $290 reversed $227 $-1 #
face $-1 $269 $264 $2 $-1 $291 reversed single #
loop $-1 $-1 $277 $229 #
cone-surface $-1 75.18819415149630458 6.226259739342697941 0 -0.7071067811865476838 0.7071067811865474617 0 0 0 2.539999999999999591 1 I I 0 1 2.539999999999999591 forward I I I I #
coedge $-1 $292 $232 $235 $268 reversed $264 $-1 #
coedge $-1 $232 $292 $276 $293 forward $264 $-1 #
loop $-1 $-1 $263 $259 #
vertex $-1 $244 $294 #
ellipse-curve $-1 70.58571108500764524 1.623776672854044811 0 0 0 1 4.537046391468138928 -7.829284269986430012 0 1 I I #
coedge $-1 $235 $234 $295 $296 forward $236 $-1 #
edge $-1 $297 -9.177601702474492148e-15 $237 1.570796326794899889 $262 $298 forward 7 unknown #
face $-1 $241 $236 $2 $-1 $299 reversed single #
point $-1 75.12275747647578328 -6.2055075971323852 0 #
coedge $-1 $252 $295 $239 $272 reversed $227 $-1 #
edge $-1 $256 0 $273 1.493924675852383865 $271 $300 forward 7 unknown #
vertex $-1 $272 $301 #
intcurve-curve $-1 forward { surfintcur full nurbs 3 open 7 
	0 3 0.1682957819351983964 1 0.3358768156751228973 1 0.5028101954623860337 1 0.6691005682756696604 1 
	0.8348284742473817133 1 1 3 
	3.651106026779208591 -10.00568676665055357 2.539999999999999591 1 
	3.651106026779221914 -10.25807916044738732 2.537978595682562233 1.000000000000000222 
	3.651106026779241009 -10.73868749182430449 2.477215082350052278 0.999999999999999889 
	3.651106026779219249 -11.40766801978962519 2.20729443614513432 0.999999999999999889 
	3.651106026779183722 -11.9686560285307344 1.78915037202905447 1 
	3.65110602677926499 -12.39138963135381744 1.255476557966052953 1 
	3.651106026779205926 -12.6518476928463901 0.6396584550092702104 0.9999999999999996669 
	3.651106026779209479 -12.708668933853982 0.2174409824557395898 1.000000000000000222 
	3.651106026779212588 -12.70881994584606645 0 1 
	0.02539999999999999897 
	torus 32.37961252169129267 67.55354257999310619 0 0 0 1 82.70889397322078196 2.539999999999999591 1 0 0 forward_v I I I I 
	plane 3.651106026779234792 27.93999999999999417 0 -1 0 0 0 -25.39999999999999858 0 forward_v I I I I 
	nullbs 
	nullbs 
	I I 
	0 
	0 
	0 
	} I I #
plane-surface $-1 3.651106026779234792 27.93999999999999417 0 -1 0 0 0 -25.39999999999999858 0 forward_v I I I I #
coedge $-1 $302 $243 $263 $293 reversed $260 $-1 #
coedge $-1 $243 $302 $245 $280 forward $260 $-1 #
straight-curve $-1 76.98424537571013104 8.022310963556527952 0 -17.96051224213830722 17.96051224213830722 0 I I #
coedge $-1 $246 $245 $258 $290 forward $230 $-1 #
edge $-1 $303 6.119651709043042344e-16 $247 1.570796326794890785 $245 $304 forward 7 unknown #
point $-1 59.46776592749500878 25.53879041177163955 0 #
coedge $-1 $258 $252 $249 $283 reversed $227 $-1 #
edge $-1 $284 0 $254 1.581564123324707749 $282 $305 forward 7 unknown #
vertex $-1 $283 $306 #
ellipse-curve $-1 44.08897551572337647 29.36889397322076078 0 -1 0 0 0 0 2.539999999999999591 1 I I #
ellipse-curve $-1 7.620000000000025864 27.93999999999999062 2.539999999999999591 0 0 1 -3.702753216724235408 1.42889397322077305 0 1 I I #
point $-1 3.91724678327579845 29.36889397322076078 2.539999999999999591 #
point $-1 3.651106026779234792 27.93999999999999417 2.539999999999999591 #
coedge $-1 $307 $258 $302 $308 reversed $227 $-1 #
edge $-1 $303 -7.702744212519514534e-17 $284 0.7853981633974502774 $258 $309 forward 7 unknown #
torus-surface $-1 70.58571108500764524 1.623776672854043035 0 0 0 1 6.508893973220758689 2.539999999999999591 1 0 0 forward_v I I I I #
coedge $-1 $263 $262 $307 $310 forward $264 $-1 #
edge $-1 $311 1.373830901348303425e-15 $265 1.570796326794898112 $276 $312 forward 7 unknown #
point $-1 76.98424537571013104 8.022310963556527952 1.555250069354418783e-16 #
coedge $-1 $271 $307 $267 $296 reversed $227 $-1 #
edge $-1 $273 6.64761334928487895e-17 $297 0.8799454396260658617 $295 $313 forward 7 unknown #
vertex $-1 $296 $314 #
ellipse-curve $-1 73.84922085769856892 -4.007848733561115928 2.20309881449054501e-15 0.865220025028070161 0.5013923695973300232 -1.391643382745806545e-15 0 7.049916206369744032e-15 2.539999999999997371 1 I I #
torus-surface $-1 32.37961252169129267 67.55354257999310619 0 0 0 1 82.70889397322078196 2.539999999999999591 1 0 0 forward_v I I I I #
straight-curve $-1 3.651106026779234792 27.93999999999999417 2.539999999999999591 0 -25.39999999999999858 0 I I #
point $-1 3.651106026779208591 -10.00568676665055357 2.539999999999999591 #
coedge $-1 $277 $276 $289 $308 forward $260 $-1 #
vertex $-1 $308 $315 #
ellipse-curve $-1 57.67171470328118232 23.74273918755779533 -8.592085376513125539e-15 -0.7071067811865476838 0.7071067811865473507 -2.355138688025654393e-15 0 8.459899447643691576e-15 2.540000000000008029 1 I I #
straight-curve $-1 44.08897551572337647 29.36889397322076078 2.539999999999999591 -25.39999999999999858 0 0 I I #
point $-1 44.08897551572337647 29.36889397322076078 2.539999999999999591 #
coedge $-1 $295 $289 $292 $310 reversed $227 $-1 #
edge $-1 $311 0 $303 0.9752772756179293179 $289 $316 forward 7 unknown #
ellipse-curve $-1 44.08897551572339779 10.1600000000000481 2.539999999999999591 0 0 1 13.58273918755778276 13.58273918755775966 0 1 I I #
edge $-1 $297 -4.192912681153135512e-16 $311 1.830987197079493534 $307 $317 forward 7 unknown #
vertex $-1 $310 $318 #
ellipse-curve $-1 75.18819415149630458 6.226259739342697941 0 -0.7071067811865476838 0.7071067811865474617 1.373830901348303031e-15 0 -4.934941344458820349e-15 2.539999999999999591 1 I I #
ellipse-curve $-1 32.37961252169130688 67.55354257999307777 2.539999999999999591 0 0 1 -28.72850649491209651 -77.5592293466436189 0 1 I I #
point $-1 73.84922085769855471 -4.007848733561090171 2.539999999999999591 #
point $-1 57.67171470328118232 23.74273918755780599 2.539999999999999591 #
straight-curve $-1 75.18819415149630458 6.226259739342697941 2.539999999999999591 -17.96051224213831077 17.96051224213830011 0 I I #
ellipse-curve $-1 70.58571108500764524 1.623776672854045033 2.539999999999999591 0 0 1 3.26350977269091258 -5.631625406415134982 0 1 I I #
point $-1 75.18819415149630458 6.226259739342697941 2.539999999999999591 #
End-of-ACIS-data 