600 0 1 0           
93 GICL Pro/E ACIS Translator - Source: f:/data5/repository/PTC/V18/reel18/areel/lid_3.prt - 6 0 13 ACIS 6.0.3 NT 24 Thu Apr 04 09:56:49 2002 
1 9.9999999999999995e-007 1e-010 
body $-1 $1 $-1 $2 #
lump $-1 $-1 $3 $0 #
transform $-1 1 0 0 0 1 0 0 0 1 0 0 0 25.399999999999999 no_rotate no_reflect no_shear #
shell $-1 $-1 $-1 $4 $-1 $1 #
face $-1 $5 $6 $3 $-1 $7 forward single #
face $-1 $8 $9 $3 $-1 $10 forward single #
loop $-1 $11 $12 $4 #
plane-surface $-1 0 0 0.19999999999999998 0 0 1 1 0 0 forward_v I I I I #
face $-1 $13 $14 $3 $-1 $15 forward single #
loop $-1 $-1 $16 $5 #
cone-surface $-1 0.29999999999999999 1.0999999999999999 0 0 0 1 0.25625566823703799 0 0 1 I I 0 1 0.25625566823703799 forward I I I I #
loop $-1 $-1 $17 $4 #
coedge $-1 $18 $19 $20 $21 forward $6 $-1 #
face $-1 $22 $23 $3 $-1 $24 forward single #
loop $-1 $-1 $25 $8 #
plane-surface $-1 0.043744331762961997 1.0999999999999999 0 -1 0 0 0 -1 0 forward_v I I I I #
coedge $-1 $20 $26 $27 $28 forward $9 $-1 #
coedge $-1 $29 $29 $30 $31 forward $11 $-1 #
coedge $-1 $32 $12 $33 $34 forward $6 $-1 #
coedge $-1 $12 $35 $36 $37 forward $6 $-1 #
coedge $-1 $38 $16 $12 $21 reversed $9 $-1 #
edge $-1 $39 -1.5850192648668372e-016 $40 0.22133213795112769 $12 $41 forward 7 unknown #
face $-1 $42 $43 $3 $-1 $44 reversed single #
loop $-1 $-1 $45 $13 #
torus-surface $-1 1.2747878945547755 2.6595882905509098 0 0 0 1 3.2562556682370389 0.19999999999999998 1 0 0 forward_v I I I I #
coedge $-1 $33 $46 $45 $47 reversed $14 $-1 #
coedge $-1 $16 $38 $48 $49 forward $9 $-1 #
coedge $-1 $46 $33 $16 $28 reversed $14 $-1 #
edge $-1 $50 0 $40 0.19999999999999998 $16 $51 forward 7 unknown #
coedge $-1 $17 $17 $52 $53 forward $11 $-1 #
coedge $-1 $54 $55 $17 $31 reversed $56 $-1 #
edge $-1 $57 0 $58 3.1415926535897931 $17 $59 forward 7 unknown #
coedge $-1 $60 $18 $61 $62 forward $6 $-1 #
coedge $-1 $27 $25 $18 $34 reversed $14 $-1 #
edge $-1 $40 0 $63 1.4549983682523631 $18 $64 forward 7 unknown #
coedge $-1 $19 $65 $66 $67 forward $6 $-1 #
coedge $-1 $68 $69 $19 $37 reversed $70 $-1 #
edge $-1 $71 0 $39 1.6857909721754107 $19 $72 forward 7 unknown #
coedge $-1 $26 $20 $69 $73 forward $9 $-1 #
vertex $-1 $37 $74 #
vertex $-1 $34 $75 #
ellipse-curve $-1 0.30000000000000082 1.0999999999999999 0.19999999999999998 0 0 1 -0.25000453454850696 0.056255668237038092 0 1 I I #
face $-1 $76 $77 $3 $-1 $78 forward single #
loop $-1 $79 $80 $22 #
plane-surface $-1 0 0 0 0 0 1 1 0 0 forward_v I I I I #
coedge $-1 $81 $61 $25 $47 forward $23 $-1 #
coedge $-1 $25 $27 $82 $83 forward $14 $-1 #
edge $-1 $63 0 $84 1 $25 $85 forward 7 unknown #
coedge $-1 $86 $82 $26 $49 reversed $43 $-1 #
edge $-1 $87 -1.0831204556987531e-015 $50 1.5707963267948966 $26 $88 forward 7 unknown #
vertex $-1 $49 $89 #
straight-curve $-1 0.043744331762961997 1.0999999999999999 0 0 0 1 I I #
coedge $-1 $90 $91 $29 $53 reversed $92 $-1 #
edge $-1 $58 0 $57 3.1415926535897931 $29 $93 forward 7 unknown #
coedge $-1 $94 $30 $91 $95 forward $56 $-1 #
coedge $-1 $30 $94 $90 $96 reversed $56 $-1 #
loop $-1 $-1 $54 $97 #
vertex $-1 $53 $98 #
vertex $-1 $53 $99 #
ellipse-curve $-1 1.2 0.31 0.19999999999999998 0 0 -1 0.19999999999999996 -5.5511151231257827e-017 0 1 I I #
coedge $-1 $65 $32 $100 $101 forward $6 $-1 #
coedge $-1 $45 $102 $32 $62 reversed $23 $-1 #
edge $-1 $63 2.0941280412229654e-016 $103 0.91290170437137408 $32 $104 forward 7 unknown #
vertex $-1 $62 $105 #
straight-curve $-1 0.043744331762961997 1.0999999999999999 0.19999999999999998 0 -1 0 I I #
coedge $-1 $35 $60 $106 $107 forward $6 $-1 #
coedge $-1 $108 $109 $35 $67 reversed $77 $-1 #
edge $-1 $110 0 $71 0.78539816339744739 $35 $111 forward 7 unknown #
coedge $-1 $112 $36 $109 $113 forward $70 $-1 #
coedge $-1 $36 $112 $38 $73 reversed $70 $-1 #
loop $-1 $-1 $68 $114 #
vertex $-1 $37 $115 #
straight-curve $-1 1.7357864376269048 1.156255668237038 0.19999999999999998 -1 0 0 I I #
edge $-1 $39 0 $87 1 $38 $116 forward 7 unknown #
point $-1 0.049995465451494026 1.156255668237038 0.19999999999999998 #
point $-1 0.043744331762961997 1.0999999999999999 0.19999999999999998 #
face $-1 $117 $118 $3 $-1 $119 forward single #
loop $-1 $-1 $108 $42 #
torus-surface $-1 1.7357864376269048 0.39999999999999997 0 0 0 1 0.75625566823703805 0.19999999999999998 1 0 0 forward_v I I I I #
loop $-1 $-1 $120 $22 #
coedge $-1 $121 $86 $122 $123 reversed $43 $-1 #
coedge $-1 $102 $45 $124 $125 forward $23 $-1 #
coedge $-1 $48 $124 $46 $83 reversed $43 $-1 #
edge $-1 $50 0 $84 1.66999914296587 $46 $126 forward 7 unknown #
vertex $-1 $83 $127 #
intcurve-curve $-1 forward { surfintcur full nurbs 3 open 9 
	0 3 0.12615155117513766 1 0.25201037419662864 1 0.37755752837893847 1 0.50268709521619215 1 
	0.6274371553947824 1 0.75182280298136628 1 0.87599132462220597 1 1 3 
	0.043744331762961684 -0.35499836825236308 0.19999999999999998 1 
	0.04374433176296065 -0.37001073620201896 0.19994431758328479 1 
	0.043744331762959297 -0.39915566078708686 0.19719090240258344 1 
	0.043744331762962795 -0.44096598265815318 0.18490070764461547 1.0000000000000002 
	0.043744331762962059 -0.47880277632121709 0.16528897675412316 1 
	0.043744331762959943 -0.51112147984960654 0.13956460296703965 1 
	0.043744331762961976 -0.53711608068588423 0.10881127062111708 1 
	0.04374433176296167 -0.55596073596006057 0.074601983948547265 1.0000000000000002 
	0.043744331762963384 -0.56745981226967157 0.037735190218060176 1 
	0.043744331762962295 -0.5699919565035706 0.012723908887923352 1 
	0.043744331762961483 -0.56999914296586973 0 1 
	0.001 
	torus 1.2747878945547755 2.6595882905509098 0 0 0 1 3.2562556682370389 0.19999999999999998 1 0 0 forward_v I I I I 
	plane 0.043744331762961997 1.0999999999999999 0 -1 0 0 0 -1 0 forward_v I I I I 
	nullbs 
	nullbs 
	I I 
	0 
	0 
	0 
	} I I #
coedge $-1 $80 $48 $112 $128 reversed $43 $-1 #
vertex $-1 $49 $129 #
ellipse-curve $-1 0.29999999999999999 1.0999999999999999 0 0 0 1 0 0.25625566823703805 0 1 I I #
point $-1 0.043744331762961997 1.0999999999999999 0 #
coedge $-1 $130 $52 $55 $96 forward $92 $-1 #
coedge $-1 $52 $130 $54 $95 reversed $92 $-1 #
loop $-1 $-1 $90 $131 #
ellipse-curve $-1 1.2 0.31 0.19999999999999998 0 0 -1 -0.19999999999999996 0 0 1 I I #
coedge $-1 $55 $54 $132 $133 forward $56 $-1 #
edge $-1 $57 0 $134 0.099999999999999992 $91 $135 forward 7 unknown #
edge $-1 $58 0 $136 0.099999999999999992 $90 $137 forward 7 unknown #
face $-1 $131 $56 $3 $-1 $138 reversed single #
point $-1 1.3999999999999999 0.30999999999999994 0.19999999999999998 #
point $-1 1 0.31 0.19999999999999998 #
coedge $-1 $139 $140 $60 $101 reversed $141 $-1 #
edge $-1 $103 0 $142 1.8309871970794913 $60 $143 forward 7 unknown #
coedge $-1 $61 $81 $139 $144 reversed $23 $-1 #
vertex $-1 $101 $145 #
ellipse-curve $-1 1.2747878945547757 2.6595882905509081 0.19999999999999998 0 0 1 -1.2310435627918139 -3.014586658803271 0 1 I I #
point $-1 0.043744331762962191 -0.35499836825236331 0.19999999999999998 #
coedge $-1 $146 $147 $65 $107 reversed $118 $-1 #
edge $-1 $142 0 $110 0.97527727561792932 $65 $148 forward 7 unknown #
coedge $-1 $122 $66 $147 $149 forward $77 $-1 #
coedge $-1 $66 $122 $68 $113 reversed $77 $-1 #
vertex $-1 $67 $150 #
ellipse-curve $-1 1.7357864376269045 0.3999999999999993 0.19999999999999998 0 0 1 0.53475351132117366 0.53475351132117432 0 1 I I #
coedge $-1 $69 $68 $86 $128 forward $70 $-1 #
edge $-1 $71 0 $151 1.5707963267948966 $68 $152 forward 7 unknown #
face $-1 $153 $70 $3 $-1 $154 forward single #
point $-1 1.7357864376269048 1.156255668237038 0.19999999999999998 #
intcurve-curve $-1 forward { surfintcur full nurbs 3 open 9 
	0 3 0.12069377322282994 1 0.24218921313198422 1 0.36465266407169489 1 0.488527254761078 1 
	0.6139732388725464 1 0.74114449774849844 1 0.86983660477116653 1 1 3 
	0.049995465451494026 1.156255668237038 0.19999999999999998 1 
	0.052441878494094304 1.1674638812160913 0.20003585544103633 1 
	0.059137202020385894 1.1898374448506732 0.19813826099185231 1 
	0.074593586722363617 1.2238726374512372 0.18933236769012798 0.99999999999999978 
	0.09571147366119058 1.2564210369016839 0.17439962899743849 1.0000000000000002 
	0.12357423427231258 1.2874945019785711 0.15257089684271674 1 
	0.15814787361700594 1.3150418881113137 0.1238788676671172 1 
	0.19981012300986839 1.3374968483793808 0.088124687172479815 1.0000000000000002 
	0.24725987180343617 1.3525681762102888 0.046570519602408454 1 
	0.28184292216726031 1.3560560109378534 0.016080330730149653 1 
	0.30000000000000027 1.3562556682370379 1.2246063538223771e-017 1 
	0.001 
	cone 0.29999999999999999 1.0999999999999999 0 0 0 1 0.25625566823703799 0 0 1 I I 0 1 0.25625566823703799 forward I I I I 
	cone 1.7357864376269048 1.156255668237038 0 -1 0 0 0 0 0.19999999999999998 1 I I 0 1 0.19999999999999998 forward I I I I 
	nullbs 
	nullbs 
	I F 0.99999821116811427 
	0 
	1 0.99999821116811427 
	0 
	} I I #
face $-1 $114 $141 $3 $-1 $155 forward single #
loop $-1 $-1 $146 $76 #
cone-surface $-1 2.9601651240746576 0.24512833619459443 0 -0.70710678118654768 0.70710678118654746 0 0 0 0.19999999999999998 1 I I 0 1 0.19999999999999998 forward I I I I #
coedge $-1 $156 $157 $158 $159 forward $79 $-1 #
coedge $-1 $160 $80 $161 $162 reversed $43 $-1 #
coedge $-1 $109 $108 $80 $123 forward $77 $-1 #
edge $-1 $163 0 $151 0.78539816339744672 $122 $164 forward 7 unknown #
coedge $-1 $82 $160 $81 $125 reversed $43 $-1 #
edge $-1 $84 2.2305386335371069e-016 $165 0.88938214780820835 $81 $166 forward 7 unknown #
straight-curve $-1 0.043744331762961997 1.0999999999999999 0 0 -1 0 I I #
point $-1 0.043744331762962219 -0.56999914296587006 0 #
edge $-1 $151 0 $87 1.4357864376269045 $112 $167 forward 7 unknown #
point $-1 0.30000000000000027 1.3562556682370379 1.2246063538223771e-017 #
coedge $-1 $91 $90 $168 $169 forward $92 $-1 #
face $-1 $-1 $92 $3 $-1 $170 reversed single #
coedge $-1 $168 $168 $94 $133 reversed $171 $-1 #
edge $-1 $134 0 $136 3.1415926535897936 $132 $172 forward 7 unknown #
vertex $-1 $169 $173 #
straight-curve $-1 1.3999999999999999 0.31 0.19999999999999998 0 0 -1 I I #
vertex $-1 $169 $174 #
straight-curve $-1 1 0.31 0.19999999999999998 0 0 -1 I I #
cone-surface $-1 1.2 0.31 0.19999999999999998 0 0 -1 -0.19999999999999998 0 0 1 I I 0 1 0.19999999999999998 forward I I I I #
coedge $-1 $175 $100 $102 $144 forward $141 $-1 #
coedge $-1 $100 $175 $146 $176 reversed $141 $-1 #
loop $-1 $-1 $139 $117 #
vertex $-1 $107 $177 #
ellipse-curve $-1 2.7789650033467574 0.063928215466694915 0.19999999999999998 0 0 1 0.12848463672011512 -0.22171753568563549 0 1 I I #
edge $-1 $103 -4.3552964830877407e-015 $165 1.5707963267948957 $139 $178 forward 7 unknown #
point $-1 2.9074496400668726 -0.15778932021894057 0.19999999999999998 #
coedge $-1 $161 $106 $140 $176 forward $118 $-1 #
coedge $-1 $106 $161 $108 $149 reversed $118 $-1 #
straight-curve $-1 2.9601651240746576 0.24512833619459443 0.19999999999999998 -0.70710678118654768 0.70710678118654735 0 I I #
edge $-1 $110 3.9252311467094319e-016 $163 1.5707963267948963 $108 $179 forward 7 unknown #
point $-1 2.2705399489480782 0.93475351132117357 0.19999999999999998 #
vertex $-1 $128 $180 #
ellipse-curve $-1 1.7357864376269048 1.156255668237038 0 -1 0 0 0 0 0.19999999999999998 1 I I #
face $-1 $181 $182 $3 $-1 $183 reversed single #
cone-surface $-1 1.7357864376269048 1.156255668237038 0 -1 0 0 0 0 0.19999999999999998 1 I I 0 1 0.19999999999999998 forward I I I I #
torus-surface $-1 2.7789650033467579 0.06392821546669461 0 0 0 1 0.25625566823703777 0.19999999999999998 1 0 0 forward_v I I I I #
coedge $-1 $184 $120 $185 $186 forward $79 $-1 #
coedge $-1 $120 $187 $188 $189 forward $79 $-1 #
coedge $-1 $190 $191 $120 $159 reversed $182 $-1 #
edge $-1 $192 -1.776292401343419e-015 $193 1.5707963267948966 $120 $194 forward 7 unknown #
coedge $-1 $124 $121 $175 $195 reversed $43 $-1 #
coedge $-1 $147 $146 $121 $162 forward $118 $-1 #
edge $-1 $196 0 $163 0.97527727561792965 $161 $197 forward 7 unknown #
vertex $-1 $123 $198 #
ellipse-curve $-1 1.735786437626905 0.39999999999999825 0 0 0 1 0.67617486755848288 0.67617486755848522 0 1 I I #
vertex $-1 $195 $199 #
ellipse-curve $-1 1.2747878945547746 2.6595882905509116 0 0 0 1 -1.231043562791813 -3.2295874335167811 0 1 I I #
straight-curve $-1 1.7357864376269048 1.3562556682370379 0 -1 0 0 I I #
coedge $-1 $132 $132 $130 $169 reversed $171 $-1 #
edge $-1 $136 0 $134 3.141592653589794 $168 $200 forward 7 unknown #
cone-surface $-1 1.2 0.31 0.19999999999999998 0 0 -1 -0.19999999999999998 0 0 1 I I 0 1 0.19999999999999998 forward I I I I #
loop $-1 $-1 $132 $201 #
ellipse-curve $-1 1.2 0.30999999999999994 0.099999999999999992 0 0 -1 0.19999999999999996 5.5511151231257827e-017 0 1 I I #
point $-1 1.3999999999999999 0.31 0.099999999999999992 #
point $-1 1 0.31 0.099999999999999992 #
coedge $-1 $140 $139 $160 $195 forward $141 $-1 #
edge $-1 $142 3.9252311467094388e-016 $196 1.570796326794897 $146 $202 forward 7 unknown #
point $-1 2.9601651240746576 0.24512833619459443 0.19999999999999998 #
ellipse-curve $-1 2.907449640066873 -0.15778932021894115 -4.163336342344337e-017 0.86522002502807249 0.50139236959732614 4.1749301482373831e-016 0 -1.6653345369377348e-016 0.20000000000000001 1 I I #
ellipse-curve $-1 2.2705399489480786 0.93475351132117335 -3.1225022567582528e-016 -0.70710678118654768 0.70710678118654746 -1.9626155733547161e-015 -4.4408920985006262e-016 1.1102230246251565e-016 0.20000000000000029 1 I I #
point $-1 1.7357864376269048 1.3562556682370379 1.2246063538223771e-017 #
face $-1 $203 $204 $3 $-1 $205 reversed single #
loop $-1 $-1 $190 $153 #
cone-surface $-1 0.29999999999999999 1.0999999999999999 0 0 0 1 0.15625566823703799 0 0 1 I I 0 1 0.15625566823703799 forward I I I I #
coedge $-1 $206 $156 $207 $208 forward $79 $-1 #
coedge $-1 $209 $210 $156 $186 reversed $211 $-1 #
edge $-1 $193 0 $212 1.6003472419624443 $156 $213 forward 7 unknown #
coedge $-1 $157 $214 $215 $216 forward $79 $-1 #
coedge $-1 $217 $218 $157 $189 reversed $204 $-1 #
edge $-1 $219 0 $192 1.4357864376269045 $157 $220 forward 7 unknown #
coedge $-1 $221 $158 $218 $222 reversed $182 $-1 #
coedge $-1 $158 $221 $209 $223 reversed $182 $-1 #
vertex $-1 $189 $224 #
vertex $-1 $186 $225 #
ellipse-curve $-1 0.29999999999999999 1.0999999999999999 0 0 0 1 0 0.15625566823703796 0 1 I I #
edge $-1 $165 -1.7999790947678598e-015 $196 1.8309871970794889 $175 $226 forward 7 unknown #
vertex $-1 $162 $227 #
straight-curve $-1 3.1015864803119673 0.38654969243190396 0 -0.70710678118654757 0.70710678118654735 0 I I #
point $-1 2.4119613051853879 1.0761748675584835 0 #
point $-1 3.0077281139863383 -0.33083332522455566 0 #
ellipse-curve $-1 1.2 0.31000000000000011 0.099999999999999992 0 0 -1 -0.19999999999999996 -1.1102230246251565e-016 0 1 I I #
face $-1 $97 $228 $3 $-1 $229 reversed single #
ellipse-curve $-1 2.9601651240746576 0.24512833619459443 0 -0.70710678118654768 0.70710678118654746 3.9252311467094373e-016 0 -1.1102230246251565e-016 0.19999999999999998 1 I I #
face $-1 $230 $231 $3 $-1 $232 reversed single #
loop $-1 $-1 $218 $181 #
cone-surface $-1 1.7357864376269048 1.156255668237038 0 -1 0 0 0 0 0.099999999999999992 1 I I 0 1 0.099999999999999992 forward I I I I #
coedge $-1 $214 $184 $233 $234 forward $79 $-1 #
coedge $-1 $235 $236 $184 $208 reversed $237 $-1 #
edge $-1 $212 3.9423951159881404e-016 $238 0.86893135759824303 $184 $239 forward 7 unknown #
coedge $-1 $240 $185 $191 $223 forward $211 $-1 #
coedge $-1 $185 $240 $235 $241 forward $211 $-1 #
loop $-1 $-1 $209 $242 #
vertex $-1 $208 $243 #
straight-curve $-1 0.143744331762962 1.0999999999999999 0 0 -1 0 I I #
coedge $-1 $187 $206 $244 $245 forward $79 $-1 #
coedge $-1 $246 $247 $187 $216 reversed $231 $-1 #
edge $-1 $248 0 $219 0.78539816339744839 $187 $249 forward 7 unknown #
coedge $-1 $250 $188 $247 $251 reversed $204 $-1 #
coedge $-1 $188 $250 $190 $222 forward $204 $-1 #
vertex $-1 $189 $252 #
straight-curve $-1 1.7357864376269048 1.256255668237038 0 -1 0 0 I I #
coedge $-1 $191 $190 $253 $254 forward $182 $-1 #
edge $-1 $255 0 $192 1 $190 $256 forward 7 unknown #
edge $-1 $193 0 $257 0.099999999999999992 $191 $258 forward 7 unknown #
point $-1 0.30000000000000027 1.256255668237038 6.1230317691118857e-018 #
point $-1 0.143744331762962 1.0999999999999999 0 #
ellipse-curve $-1 2.778965003346757 0.063928215466694679 0 0 0 1 0.22876311063958177 -0.39476154069124947 0 1 I I #
point $-1 3.1015864803119673 0.38654969243190396 1.2246063538223771e-017 #
loop $-1 $171 $259 $201 #
plane-surface $-1 0 0 0.099999999999999992 0 0 1 1 0 0 forward_v I I I I #
face $-1 $260 $261 $3 $-1 $262 reversed single #
loop $-1 $-1 $247 $203 #
torus-surface $-1 1.7357864376269048 0.39999999999999997 0 0 0 1 0.75625566823703805 0.099999999999999992 1 0 0 forward_v I I I I #
coedge $-1 $263 $264 $206 $234 reversed $265 $-1 #
edge $-1 $238 0 $266 1.8309871970794922 $206 $267 forward 7 unknown #
coedge $-1 $268 $207 $210 $241 reversed $237 $-1 #
coedge $-1 $207 $268 $263 $269 forward $237 $-1 #
loop $-1 $-1 $236 $270 #
vertex $-1 $234 $271 #
ellipse-curve $-1 1.2747878945547755 2.659588290550909 0 0 0 1 -1.1310435627918143 -3.1599355325133525 0 1 I I #
coedge $-1 $210 $209 $272 $273 forward $211 $-1 #
edge $-1 $274 0 $212 1 $210 $275 forward 7 unknown #
face $-1 $201 $211 $3 $-1 $276 reversed single #
point $-1 0.14374433176296222 -0.5003472419624444 0 #
coedge $-1 $277 $278 $214 $245 reversed $261 $-1 #
edge $-1 $266 0 $248 0.97527727561792932 $214 $279 forward 7 unknown #
coedge $-1 $280 $215 $278 $281 reversed $231 $-1 #
coedge $-1 $215 $280 $217 $251 forward $231 $-1 #
vertex $-1 $216 $282 #
ellipse-curve $-1 1.7357864376269048 0.40000000000000047 0 0 0 1 0.60546418943982805 0.60546418943982794 0 1 I I #
coedge $-1 $218 $217 $283 $284 forward $204 $-1 #
edge $-1 $285 0 $219 1.5707963267948966 $217 $286 forward 7 unknown #
point $-1 1.7357864376269048 1.256255668237038 6.1230317691118857e-018 #
coedge $-1 $283 $272 $221 $254 reversed $228 $-1 #
edge $-1 $255 -7.1049118624963497e-016 $257 0.3682927782759674 $253 $287 forward 7 unknown #
vertex $-1 $284 $288 #
intcurve-curve $-1 forward { surfintcur full nurbs 3 open 8 
	0 3 0.13836296260882297 1 0.2774523411320915 1 0.41772778132126875 1 0.55997455820254594 1 
	0.70461181503438541 1 0.85141516608944512 1 1 3 
	0.15422231430219679 1.156255668237038 0.099999999999999992 1 
	0.15697298362719411 1.1634213461003493 0.099951128572028147 1 
	0.16355301059695301 1.1773113790145044 0.098508416760595616 1 
	0.17672910903444417 1.1970088949853963 0.092078663674715511 1 
	0.19317889294690704 1.2149520608839364 0.081864429131136757 1 
	0.21375003307344045 1.2312512544042078 0.067411271067885636 1 
	0.23885161490850598 1.2447915147216555 0.048487753139932442 0.99999999999999989 
	0.26792065638079626 1.2540282147476491 0.025639300544217529 1 
	0.2889559777514617 1.2561410659934826 0.0088793537138006397 1 
	0.30000000000000027 1.256255668237038 6.1230317691118857e-018 1 
	0.001 
	cone 0.29999999999999999 1.0999999999999999 0 0 0 1 0.15625566823703799 0 0 1 I I 0 1 0.15625566823703799 forward I I I I 
	cone 1.7357864376269048 1.156255668237038 0 -1 0 0 0 0 0.099999999999999992 1 I I 0 1 0.099999999999999992 forward I I I I 
	nullbs 
	nullbs 
	I F 0.9999965050357591 
	0 
	1 0.9999965050357591 
	0 
	} I I #
vertex $-1 $254 $289 #
straight-curve $-1 0.143744331762962 1.0999999999999999 0 0 0 1 I I #
coedge $-1 $290 $283 $280 $291 reversed $228 $-1 #
face $-1 $270 $265 $3 $-1 $292 reversed single #
loop $-1 $-1 $278 $230 #
cone-surface $-1 2.9601651240746576 0.24512833619459443 0 -0.70710678118654768 0.70710678118654746 0 0 0 0.099999999999999992 1 I I 0 1 0.099999999999999992 forward I I I I #
coedge $-1 $293 $233 $236 $269 reversed $265 $-1 #
coedge $-1 $233 $293 $277 $294 forward $265 $-1 #
loop $-1 $-1 $264 $260 #
vertex $-1 $245 $295 #
ellipse-curve $-1 2.7789650033467579 0.063928215466694679 0 0 0 1 0.178623873679848 -0.30823953818844213 0 1 I I #
coedge $-1 $236 $235 $296 $297 forward $237 $-1 #
edge $-1 $298 -8.7105929661754923e-015 $238 1.5707963267948999 $263 $299 forward 7 unknown #
face $-1 $242 $237 $3 $-1 $300 reversed single #
point $-1 2.9575888770266059 -0.24431132272174746 0 #
coedge $-1 $253 $296 $240 $273 reversed $228 $-1 #
edge $-1 $257 0 $274 1.4939246758523839 $272 $301 forward 7 unknown #
vertex $-1 $273 $302 #
intcurve-curve $-1 forward { surfintcur full nurbs 3 open 7 
	0 3 0.1682957819351984 1 0.3358768156751229 1 0.50281019546238603 1 0.66910056827566966 1 
	0.83482847424738171 1 1 3 
	0.14374433176296098 -0.393924675852384 0.099999999999999992 1 
	0.1437443317629615 -0.40386138426958218 0.09992041715285678 1.0000000000000002 
	0.14374433176296225 -0.42278297211906712 0.097528152848427266 0.99999999999999989 
	0.14374433176296139 -0.4491207881806939 0.086901355753745455 0.99999999999999989 
	0.14374433176296 -0.47120693025711552 0.070438991024765932 1 
	0.1437443317629632 -0.48784998548637082 0.049428210943545395 1 
	0.14374433176296086 -0.49810423987584213 0.025183403740522449 0.99999999999999967 
	0.143744331762961 -0.50034129660842452 0.008560668600619669 1.0000000000000002 
	0.14374433176296114 -0.50034724196244362 0 1 
	0.001 
	torus 1.2747878945547755 2.6595882905509098 0 0 0 1 3.2562556682370389 0.099999999999999992 1 0 0 forward_v I I I I 
	plane 0.143744331762962 1.0999999999999999 0 -1 0 0 0 -1 0 forward_v I I I I 
	nullbs 
	nullbs 
	I I 
	0 
	0 
	0 
	} I I #
plane-surface $-1 0.143744331762962 1.0999999999999999 0 -1 0 0 0 -1 0 forward_v I I I I #
coedge $-1 $303 $244 $264 $294 reversed $261 $-1 #
coedge $-1 $244 $303 $246 $281 forward $261 $-1 #
straight-curve $-1 3.0308758021933122 0.31583901431324918 0 -0.70710678118654757 0.70710678118654757 0 I I #
coedge $-1 $247 $246 $259 $291 forward $231 $-1 #
edge $-1 $304 7.8504622934188539e-016 $248 1.5707963267948908 $246 $305 forward 7 unknown #
point $-1 2.3412506270667328 1.0054641894398284 0 #
coedge $-1 $259 $253 $250 $284 reversed $228 $-1 #
edge $-1 $285 0 $255 1.581564123324708 $283 $306 forward 7 unknown #
vertex $-1 $284 $307 #
ellipse-curve $-1 1.7357864376269048 1.156255668237038 0 -1 0 0 0 0 0.099999999999999992 1 I I #
ellipse-curve $-1 0.30000000000000104 1.0999999999999996 0.099999999999999992 0 0 1 -0.14577768569780455 0.056255668237038314 0 1 I I #
point $-1 0.15422231430219679 1.156255668237038 0.099999999999999992 #
point $-1 0.143744331762962 1.0999999999999999 0.099999999999999992 #
coedge $-1 $308 $259 $303 $309 reversed $228 $-1 #
edge $-1 $304 0 $285 0.78539816339745039 $259 $310 forward 7 unknown #
torus-surface $-1 2.7789650033467579 0.06392821546669461 0 0 0 1 0.25625566823703777 0.099999999999999992 1 0 0 forward_v I I I I #
coedge $-1 $264 $263 $308 $311 forward $265 $-1 #
edge $-1 $312 1.3738309013483034e-015 $266 1.5707963267948979 $277 $313 forward 7 unknown #
point $-1 3.0308758021933122 0.31583901431324918 6.1230317691118857e-018 #
coedge $-1 $272 $308 $268 $297 reversed $228 $-1 #
edge $-1 $274 0 $298 0.87994543962606586 $296 $314 forward 7 unknown #
vertex $-1 $297 $315 #
ellipse-curve $-1 2.907449640066873 -0.1577893202189416 8.6736173798840355e-017 0.86522002502807016 0.50139236959733002 -1.3916433827458065e-015 0 2.7755575615628914e-016 0.099999999999999908 1 I I #
torus-surface $-1 1.2747878945547755 2.6595882905509098 0 0 0 1 3.2562556682370389 0.099999999999999992 1 0 0 forward_v I I I I #
straight-curve $-1 0.143744331762962 1.0999999999999999 0.099999999999999992 0 -1 0 I I #
point $-1 0.14374433176296098 -0.393924675852384 0.099999999999999992 #
coedge $-1 $278 $277 $290 $309 forward $261 $-1 #
vertex $-1 $309 $316 #
ellipse-curve $-1 2.2705399489480782 0.93475351132117313 -3.3827107781547738e-016 -0.70710678118654768 0.70710678118654735 -2.3551386880256544e-015 0 3.3306690738754696e-016 0.10000000000000032 1 I I #
straight-curve $-1 1.7357864376269048 1.156255668237038 0.099999999999999992 -1 0 0 I I #
point $-1 1.7357864376269048 1.156255668237038 0.099999999999999992 #
coedge $-1 $296 $290 $293 $311 reversed $228 $-1 #
edge $-1 $312 0 $304 0.97527727561792932 $290 $317 forward 7 unknown #
ellipse-curve $-1 1.7357864376269057 0.40000000000000191 0.099999999999999992 0 0 1 0.53475351132117255 0.53475351132117166 0 1 I I #
edge $-1 $298 0 $312 1.8309871970794942 $308 $318 forward 7 unknown #
vertex $-1 $311 $319 #
ellipse-curve $-1 2.9601651240746576 0.24512833619459443 0 -0.70710678118654768 0.70710678118654746 1.373830901348303e-015 0 -1.9428902930940239e-016 0.099999999999999992 1 I I #
ellipse-curve $-1 1.2747878945547759 2.6595882905509085 0.099999999999999992 0 0 1 -1.1310435627918149 -3.0535129664032925 0 1 I I #
point $-1 2.9074496400668726 -0.15778932021894057 0.099999999999999992 #
point $-1 2.2705399489480782 0.93475351132117357 0.099999999999999992 #
straight-curve $-1 2.9601651240746576 0.24512833619459443 0.099999999999999992 -0.70710678118654768 0.70710678118654735 0 I I #
ellipse-curve $-1 2.7789650033467579 0.063928215466694693 0.099999999999999992 0 0 1 0.12848463672011468 -0.22171753568563526 0 1 I I #
point $-1 2.9601651240746576 0.24512833619459443 0.099999999999999992 #
End-of-ACIS-data 