700 0 2 0           
24 FBMach with ACIS - 7.0.3 13 ACIS 7.0.3 NT 24 Wed May 15 14:28:09 2002 
1 9.9999999999999995e-007 1e-010 
body $2 -1 $-1 $3 $-1 $4 #
bdycol-kcp $-1 -1 1 3 $5 $6 $7 #
model_id-kcp-attrib $-1 -1 $-1 $-1 $0 1 1021487288 1021487288 1790574593 1 #
lump $-1 -1 $-1 $-1 $8 $0 #
transform $-1 -1 1 0 0 0 1 0 0 0 1 0 0 0 1 rotate no_reflect no_shear #
body $9 -1 $-1 $10 $-1 $11 #
body $12 -1 $-1 $13 $-1 $14 #
body $15 -1 $-1 $16 $-1 $17 #
shell $-1 -1 $-1 $-1 $-1 $18 $-1 $3 #
rgb_color-st-attrib $-1 -1 $19 $-1 $5 0.5 1 1 #
lump $-1 -1 $-1 $-1 $20 $5 #
transform $-1 -1 1 0 0 0 1 0 0 0 1 0 6.6613381477509392e-016 0 1 no_rotate no_reflect no_shear #
rgb_color-st-attrib $-1 -1 $21 $-1 $6 0.5 1 1 #
lump $-1 -1 $-1 $-1 $22 $6 #
transform $-1 -1 1 0 0 0 1 0 0 0 1 0 0 0 1 no_rotate no_reflect no_shear #
model_id-kcp-attrib $-1 -1 $-1 $-1 $7 1 1021487288 1021487288 1791229954 1 #
lump $-1 -1 $-1 $-1 $23 $7 #
transform $-1 -1 1 0 0 0 1 0 0 0 1 0 6.6613381477509392e-016 0 1 no_rotate no_reflect no_shear #
face $24 -1 $-1 $25 $26 $8 $-1 $27 reversed single #
model_id-kcp-attrib $-1 -1 $-1 $9 $5 1 1021487288 1021487288 1785593859 1 #
shell $-1 -1 $-1 $-1 $-1 $28 $-1 $10 #
model_id-kcp-attrib $-1 -1 $-1 $12 $6 1 1021487288 1021487288 1789526020 1 #
shell $-1 -1 $-1 $-1 $-1 $29 $-1 $13 #
shell $-1 -1 $-1 $-1 $-1 $30 $-1 $16 #
model_id-kcp-attrib $-1 -1 $-1 $-1 $18 1 1021487288 1021487288 1790574593 2 #
face $31 -1 $-1 $32 $33 $8 $-1 $34 forward single #
loop $-1 -1 $-1 $35 $36 $18 #
plane-surface $-1 -1 $-1 0 -2.7781249999999997 0 0 1 0 25.399999999999999 0 0 forward_v I I I I #
face $-1 -1 $-1 $37 $38 $20 $-1 $39 reversed single #
face $-1 -1 $-1 $40 $41 $22 $-1 $42 forward single #
face $-1 -1 $-1 $43 $44 $23 $-1 $45 forward single #
model_id-kcp-attrib $-1 -1 $-1 $-1 $25 1 1021487288 1021487288 1790574593 3 #
face $46 -1 $-1 $47 $48 $8 $-1 $49 forward single #
loop $-1 -1 $-1 $-1 $50 $25 #
cone-surface $-1 -1 $-1 0 -3.0559375000000011 0 0 1 0 4.3656249999999996 0 0 1 I I 0 1 4.3656249999999996 forward I I I I #
loop $-1 -1 $-1 $-1 $51 $18 #
coedge $-1 -1 $-1 $52 $52 $50 $53 reversed $26 $-1 #
face $-1 -1 $-1 $54 $55 $20 $-1 $39 reversed single #
loop $-1 -1 $-1 $-1 $56 $28 #
cone-surface $-1 -1 $-1 3.8310457314991089e-032 -2.7781250000000002 1.7624790515924354e-016 0 -1 0 -4.3656249999999996 0 3.5836930618133801e-016 1 I I 0 1 4.3656249999999996 forward I I I I #
face $-1 -1 $-1 $57 $58 $22 $-1 $59 forward single #
loop $-1 -1 $-1 $60 $61 $29 #
cone-surface $-1 -1 $-1 0 -2.7781249999999997 0 0 1 0 -2.7781249999999997 0 0 1 I I 0 1 2.7781249999999997 forward I I I I #
face $-1 -1 $-1 $62 $63 $23 $-1 $64 reversed single #
loop $-1 -1 $-1 $-1 $65 $30 #
plane-surface $-1 -1 $-1 0 0 4.3656249999999996 0 0 1 1 0 0 forward_v I I I I #
model_id-kcp-attrib $-1 -1 $-1 $-1 $32 1 1021487288 1021487288 1790574593 4 #
face $66 -1 $-1 $67 $68 $8 $-1 $69 reversed single #
loop $-1 -1 $-1 $-1 $70 $32 #
cone-surface $-1 -1 $-1 0 -3.0559375000000011 0 0 1 0 4.3656249999999996 0 0 1 I I 0 1 4.3656249999999996 forward I I I I #
coedge $-1 -1 $-1 $71 $72 $36 $53 forward $33 $-1 #
coedge $-1 -1 $-1 $73 $73 $74 $75 reversed $35 $-1 #
coedge $-1 -1 $-1 $36 $36 $76 $77 forward $26 $-1 #
edge $78 -1 $-1 $79 0 $80 3.1415926535897931 $36 $81 forward @7 unknown #
face $-1 -1 $-1 $82 $83 $20 $-1 $39 reversed single #
loop $-1 -1 $-1 $-1 $84 $37 #
coedge $-1 -1 $-1 $85 $86 $87 $88 reversed $38 $-1 #
face $-1 -1 $-1 $-1 $89 $22 $-1 $90 reversed single #
loop $-1 -1 $-1 $-1 $91 $40 #
plane-surface $-1 -1 $-1 0 2.7781249999999997 0 -1.0221081901484542e-032 1 -5.3660679982793815e-032 0 5.3660679982793815e-032 1 forward_v I I I I #
loop $-1 -1 $-1 $-1 $92 $29 #
coedge $-1 -1 $-1 $61 $61 $91 $93 forward $41 $-1 #
face $94 -1 $-1 $95 $96 $23 $-1 $97 reversed single #
loop $-1 -1 $-1 $-1 $98 $43 #
plane-surface $-1 -1 $-1 0 0 -4.3656249999999996 0 0 1 1 0 0 forward_v I I I I #
coedge $-1 -1 $-1 $99 $100 $101 $102 forward $44 $-1 #
model_id-kcp-attrib $-1 -1 $-1 $-1 $47 1 1021487288 1021487288 1790574593 5 #
face $103 -1 $-1 $104 $105 $8 $-1 $106 forward single #
loop $-1 -1 $-1 $-1 $107 $47 #
torus-surface $-1 -1 $-1 0 0 0 0 1 0 8.2006451902173865 4.3180000000000005 1 0 0 forward_v I I I I #
coedge $-1 -1 $-1 $108 $109 $110 $111 forward $48 $-1 #
coedge $-1 -1 $-1 $112 $50 $108 $113 reversed $33 $-1 #
coedge $-1 -1 $-1 $50 $112 $109 $114 forward $33 $-1 #
coedge $-1 -1 $-1 $51 $51 $115 $116 reversed $35 $-1 #
coedge $-1 -1 $-1 $117 $118 $51 $75 forward $119 $-1 #
edge $120 -1 $-1 $121 0 $122 3.1415926535897931 $51 $123 forward @7 unknown #
coedge $-1 -1 $-1 $109 $108 $52 $77 reversed $48 $-1 #
edge $124 -1 $-1 $79 0 $80 3.1415926535897931 $52 $125 forward @7 unknown #
attrib_edge_convexity-kcp-attrib $-1 -1 $126 $-1 $53 1 #
vertex $-1 -1 $-1 $77 $127 #
vertex $-1 -1 $-1 $77 $128 #
ellipse-curve $-1 -1 $-1 -1.7624790515924359e-016 -2.7781249999999997 -1.7624790515924359e-016 0 1 0 -4.3656249999999996 0 1.7624790515924359e-016 1 I I #
face $-1 -1 $-1 $129 $130 $20 $-1 $39 reversed single #
loop $-1 -1 $-1 $-1 $131 $54 #
coedge $-1 -1 $-1 $132 $133 $134 $135 reversed $55 $-1 #
coedge $-1 -1 $-1 $136 $56 $137 $138 forward $38 $-1 #
coedge $-1 -1 $-1 $56 $136 $139 $140 reversed $38 $-1 #
coedge $-1 -1 $-1 $141 $142 $56 $88 forward $143 $-1 #
edge $-1 -1 $-1 $144 -3.1415926535897931 $145 -1.5707963267948966 $87 $146 forward @7 unknown #
loop $-1 -1 $-1 $-1 $147 $57 #
plane-surface $-1 -1 $-1 0 -2.7781249999999997 0 -1.0221081901484542e-032 1 -5.3660679982793815e-032 0 5.3660679982793815e-032 1 forward_v I I I I #
coedge $-1 -1 $-1 $91 $91 $61 $93 reversed $58 $-1 #
coedge $-1 -1 $-1 $92 $92 $147 $148 reversed $60 $-1 #
edge $-1 -1 $-1 $149 -3.1415926535897931 $149 3.1415926535897931 $61 $150 forward @7 unknown #
model_id-kcp-attrib $-1 -1 $-1 $-1 $62 1 1021487288 1021487288 1791229954 2 #
face $-1 -1 $-1 $151 $152 $23 $-1 $153 reversed single #
loop $-1 -1 $-1 $-1 $154 $62 #
plane-surface $-1 -1 $-1 0 -2.7781250000000002 0 0 1 0 0 0 1 forward_v I I I I #
coedge $-1 -1 $-1 $155 $156 $157 $158 forward $63 $-1 #
coedge $-1 -1 $-1 $159 $65 $160 $161 forward $44 $-1 #
coedge $-1 -1 $-1 $65 $159 $162 $163 forward $44 $-1 #
coedge $-1 -1 $-1 $164 $165 $65 $102 reversed $166 $-1 #
edge $-1 -1 $-1 $167 -2.7781250000000002 $168 2.7781250000000002 $101 $169 forward @7 unknown #
model_id-kcp-attrib $-1 -1 $-1 $-1 $67 1 1021487288 1021487288 1790574593 6 #
face $170 -1 $-1 $171 $172 $8 $-1 $173 forward single #
loop $-1 -1 $-1 $-1 $174 $67 #
cone-surface $-1 -1 $-1 0 -3.0559375000000011 0 0 1 0 4.3656249999999996 0 0 1 I I 0 1 4.3656249999999996 forward I I I I #
coedge $-1 -1 $-1 $175 $176 $177 $178 forward $68 $-1 #
coedge $-1 -1 $-1 $76 $70 $71 $113 forward $48 $-1 #
coedge $-1 -1 $-1 $70 $76 $72 $114 reversed $48 $-1 #
coedge $-1 -1 $-1 $176 $175 $70 $111 reversed $68 $-1 #
edge $-1 -1 $-1 $179 0 $180 3.1415926535897931 $110 $181 forward @7 unknown #
coedge $-1 -1 $-1 $72 $71 $182 $183 reversed $33 $-1 #
edge $-1 -1 $-1 $180 0 $80 0.03124999999999999 $71 $184 forward @7 unknown #
edge $-1 -1 $-1 $179 8.7419135797256419e-018 $79 0.03124999999999999 $72 $185 forward @7 unknown #
coedge $-1 -1 $-1 $186 $187 $73 $116 forward $188 $-1 #
edge $189 -1 $-1 $122 0 $121 3.1415926535897931 $73 $190 forward @7 unknown #
coedge $-1 -1 $-1 $191 $74 $187 $192 reversed $119 $-1 #
coedge $-1 -1 $-1 $74 $191 $186 $193 forward $119 $-1 #
loop $-1 -1 $-1 $-1 $117 $194 #
attrib_edge_convexity-kcp-attrib $-1 -1 $195 $-1 $75 1 #
vertex $-1 -1 $-1 $116 $196 #
vertex $-1 -1 $-1 $116 $197 #
ellipse-curve $-1 -1 $-1 0 -2.7781249999999997 0 0 -1 0 -2.7781249999999997 0 0 1 I I #
attrib_edge_convexity-kcp-attrib $-1 -1 $198 $-1 $77 1 #
ellipse-curve $-1 -1 $-1 -1.7624790515924359e-016 -2.7781249999999997 1.7624790515924359e-016 0 -1 0 -4.3656249999999996 0 -1.7624790515924359e-016 1 I I #
convexity-sys-attrib $-1 -1 $-1 $78 $53 #
point $-1 -1 $-1 -4.3656249999999996 -2.7781249999999997 0 #
point $-1 -1 $-1 4.3656249999999996 -2.7781249999999997 0 #
face $-1 -1 $-1 $199 $200 $20 $-1 $201 forward single #
loop $-1 -1 $-1 $-1 $202 $82 #
coedge $-1 -1 $-1 $203 $204 $202 $205 forward $83 $-1 #
coedge $-1 -1 $-1 $206 $84 $207 $208 reversed $55 $-1 #
coedge $-1 -1 $-1 $84 $206 $86 $140 forward $55 $-1 #
coedge $-1 -1 $-1 $209 $210 $84 $135 forward $211 $-1 #
edge $-1 -1 $-1 $212 -8.2088889032232057e-017 $213 1.5707963267948966 $134 $214 forward @7 unknown #
coedge $-1 -1 $-1 $86 $85 $215 $216 reversed $38 $-1 #
coedge $-1 -1 $-1 $204 $203 $217 $138 reversed $83 $-1 #
edge $-1 -1 $-1 $144 -5.5562500000000004 $218 0 $217 $219 forward @7 unknown #
coedge $-1 -1 $-1 $220 $221 $222 $140 forward $223 $-1 #
edge $-1 -1 $-1 $145 -5.5562500000000004 $213 0 $139 $224 forward @7 unknown #
coedge $-1 -1 $-1 $142 $87 $221 $225 reversed $143 $-1 #
coedge $-1 -1 $-1 $87 $141 $226 $227 forward $143 $-1 #
loop $-1 -1 $-1 $-1 $87 $228 #
vertex $-1 -1 $-1 $229 $230 #
vertex $-1 -1 $-1 $231 $232 #
ellipse-curve $-1 -1 $-1 3.8310457314991089e-032 2.7781250000000002 1.7624790515924354e-016 0 -1 0 -4.3656249999999996 0 3.5836930618133801e-016 1 I I #
coedge $-1 -1 $-1 $147 $147 $92 $148 forward $89 $-1 #
edge $-1 -1 $-1 $233 -3.1415926535897931 $233 3.1415926535897931 $92 $234 forward @7 unknown #
vertex $-1 -1 $-1 $93 $235 #
ellipse-curve $-1 -1 $-1 0 2.7781249999999997 0 0 -1 0 2.7781249999999997 0 0 1 I I #
face $236 -1 $-1 $237 $238 $23 $-1 $239 reversed single #
loop $-1 -1 $-1 $-1 $240 $95 #
plane-surface $-1 -1 $-1 -4.3656249999999996 0 0 1 0 0 0 0 -1 forward_v I I I I #
coedge $-1 -1 $-1 $241 $162 $242 $243 forward $96 $-1 #
coedge $-1 -1 $-1 $244 $98 $241 $245 forward $63 $-1 #
coedge $-1 -1 $-1 $98 $244 $246 $247 forward $63 $-1 #
coedge $-1 -1 $-1 $165 $164 $98 $158 reversed $166 $-1 #
edge $-1 -1 $-1 $248 -2.7781250000000002 $249 2.7781250000000002 $157 $250 forward @7 unknown #
coedge $-1 -1 $-1 $100 $99 $251 $252 forward $44 $-1 #
coedge $-1 -1 $-1 $253 $254 $99 $161 reversed $238 $-1 #
edge $-1 -1 $-1 $168 -4.3656249999999996 $255 4.3656249999999996 $160 $256 forward @7 unknown #
coedge $-1 -1 $-1 $154 $257 $100 $163 reversed $96 $-1 #
edge $-1 -1 $-1 $258 -4.3656249999999996 $167 4.3656249999999996 $162 $259 forward @7 unknown #
coedge $-1 -1 $-1 $157 $101 $257 $260 forward $166 $-1 #
coedge $-1 -1 $-1 $101 $157 $253 $261 reversed $166 $-1 #
loop $-1 -1 $-1 $-1 $164 $237 #
vertex $-1 -1 $-1 $102 $262 #
vertex $-1 -1 $-1 $102 $263 #
straight-curve $-1 -1 $-1 4.3656249999999996 0 4.3656249999999996 0 1 0 I I #
model_id-kcp-attrib $-1 -1 $-1 $-1 $104 1 1021487288 1021487288 1790574593 7 #
face $264 -1 $-1 $265 $266 $8 $-1 $267 forward single #
loop $-1 -1 $-1 $268 $269 $104 #
plane-surface $-1 -1 $-1 0 2.7781249999999997 0 0 1 0 25.399999999999999 0 0 forward_v I I I I #
coedge $-1 -1 $-1 $270 $271 $272 $273 forward $105 $-1 #
coedge $-1 -1 $-1 $110 $107 $274 $275 forward $68 $-1 #
coedge $-1 -1 $-1 $107 $110 $276 $277 reversed $68 $-1 #
coedge $-1 -1 $-1 $271 $270 $107 $178 reversed $105 $-1 #
edge $-1 -1 $-1 $278 0 $279 3.1415926535897931 $177 $280 forward @7 unknown #
vertex $-1 -1 $-1 $277 $281 #
vertex $-1 -1 $-1 $275 $282 #
ellipse-curve $-1 -1 $-1 0 -1.984375 0 0 -1 0 -4.3656249999999996 0 5.3461721134058155e-016 1 I I #
coedge $-1 -1 $-1 $274 $276 $112 $183 forward $283 $-1 #
edge $-1 -1 $-1 $179 0 $180 3.1415926535897931 $182 $284 forward @7 unknown #
straight-curve $-1 -1 $-1 4.3656249999999996 -1.984375 -1.0692344226811631e-015 0 -25.399999999999999 0 I I #
straight-curve $-1 -1 $-1 -4.3656249999999996 -1.984375 5.3461721134058155e-016 0 -25.399999999999999 0 I I #
coedge $-1 -1 $-1 $285 $115 $118 $193 reversed $188 $-1 #
coedge $-1 -1 $-1 $115 $285 $117 $192 forward $188 $-1 #
loop $-1 -1 $-1 $-1 $186 $286 #
attrib_edge_convexity-kcp-attrib $-1 -1 $287 $-1 $116 1 #
ellipse-curve $-1 -1 $-1 0 -2.7781249999999997 0 0 -1 0 2.7781249999999997 0 0 1 I I #
coedge $-1 -1 $-1 $118 $117 $288 $289 reversed $119 $-1 #
edge $-1 -1 $-1 $290 0 $122 0.21875 $187 $291 forward @7 unknown #
edge $-1 -1 $-1 $292 0 $121 0.21875 $186 $293 forward @7 unknown #
face $294 -1 $-1 $286 $119 $8 $-1 $295 reversed single #
convexity-sys-attrib $-1 -1 $-1 $120 $75 #
point $-1 -1 $-1 -2.7781249999999997 -2.7781249999999997 0 #
point $-1 -1 $-1 2.7781249999999997 -2.7781249999999997 0 #
convexity-sys-attrib $-1 -1 $-1 $124 $77 #
face $-1 -1 $-1 $296 $297 $20 $-1 $298 reversed single #
loop $-1 -1 $-1 $-1 $222 $129 #
plane-surface $-1 -1 $-1 0 0 4.3656249999999996 0 0 1 1 0 0 forward_v I I I I #
coedge $-1 -1 $-1 $299 $300 $301 $205 reversed $130 $-1 #
coedge $-1 -1 $-1 $137 $131 $302 $303 reversed $83 $-1 #
coedge $-1 -1 $-1 $131 $137 $304 $305 reversed $83 $-1 #
edge $-1 -1 $-1 $306 -5.5562500000000004 $307 0 $301 $308 forward @7 unknown #
coedge $-1 -1 $-1 $133 $132 $309 $310 reversed $55 $-1 #
coedge $-1 -1 $-1 $311 $312 $313 $208 forward $314 $-1 #
edge $-1 -1 $-1 $315 -5.5562500000000004 $212 0 $207 $316 forward @7 unknown #
coedge $-1 -1 $-1 $210 $134 $317 $318 reversed $211 $-1 #
coedge $-1 -1 $-1 $134 $209 $311 $319 forward $211 $-1 #
loop $-1 -1 $-1 $-1 $134 $320 #
vertex $-1 -1 $-1 $321 $322 #
vertex $-1 -1 $-1 $323 $324 #
ellipse-curve $-1 -1 $-1 3.8310457314991089e-032 -2.7781250000000002 1.7624790515924354e-016 0 1 0 -4.3656249999999996 0 3.5836930618133801e-016 1 I I #
coedge $-1 -1 $-1 $325 $326 $136 $216 forward $327 $-1 #
edge $-1 -1 $-1 $213 1.5707963267948966 $218 3.1415926535897931 $215 $214 forward @7 unknown #
coedge $-1 -1 $-1 $328 $329 $330 $138 forward $297 $-1 #
vertex $-1 -1 $-1 $331 $332 #
straight-curve $-1 -1 $-1 4.3656249999999996 -2.7781250000000002 1.7624790515924354e-016 0 -1 0 I I #
coedge $-1 -1 $-1 $333 $139 $326 $323 forward $223 $-1 #
coedge $-1 -1 $-1 $139 $333 $141 $225 forward $223 $-1 #
coedge $-1 -1 $-1 $334 $317 $133 $140 reversed $200 $-1 #
loop $-1 -1 $-1 $-1 $139 $335 #
straight-curve $-1 -1 $-1 3.8310457314991089e-032 -2.7781250000000002 4.3656249999999996 0 -1 0 I I #
edge $-1 -1 $-1 $336 -4.3656249999999996 $145 -3.8310457314991089e-032 $141 $337 forward @7 unknown #
coedge $-1 -1 $-1 $338 $330 $142 $227 reversed $339 $-1 #
edge $-1 -1 $-1 $336 -4.3656249999999996 $144 -1.7624790515924354e-016 $226 $340 forward @7 unknown #
face $-1 -1 $-1 $341 $143 $20 $-1 $342 reversed single #
edge $-1 -1 $-1 $144 -1.7624790515924354e-016 $343 4.3656249999999996 $329 $340 forward @7 unknown #
point $-1 -1 $-1 4.3656249999999996 2.7781250000000002 1.7624790515924354e-016 #
edge $-1 -1 $-1 $145 -3.8310457314991089e-032 $344 4.3656249999999996 $345 $337 forward @7 unknown #
point $-1 -1 $-1 3.8310457314991089e-032 2.7781250000000002 4.3656249999999996 #
vertex $-1 -1 $-1 $148 $346 #
ellipse-curve $-1 -1 $-1 0 -2.7781249999999997 0 0 -1 0 -2.7781249999999997 0 0 1 I I #
point $-1 -1 $-1 -2.7781249999999997 2.7781249999999997 0 #
model_id-kcp-attrib $-1 -1 $-1 $-1 $151 1 1021487288 1021487288 1791229954 3 #
face $-1 -1 $-1 $-1 $166 $23 $-1 $347 reversed single #
loop $-1 -1 $-1 $-1 $253 $151 #
plane-surface $-1 -1 $-1 0 2.7781250000000002 0 0 -1 0 0 0 -1 forward_v I I I I #
coedge $-1 -1 $-1 $348 $251 $254 $349 forward $152 $-1 #
coedge $-1 -1 $-1 $257 $154 $155 $245 reversed $96 $-1 #
coedge $-1 -1 $-1 $251 $348 $154 $243 reversed $152 $-1 #
edge $-1 -1 $-1 $258 -4.3656249999999996 $350 4.3656249999999996 $242 $351 forward @7 unknown #
coedge $-1 -1 $-1 $156 $155 $348 $352 forward $63 $-1 #
edge $-1 -1 $-1 $249 -4.3656249999999996 $350 4.3656249999999996 $241 $353 forward @7 unknown #
coedge $-1 -1 $-1 $254 $253 $156 $247 reversed $238 $-1 #
edge $-1 -1 $-1 $354 -4.3656249999999996 $248 4.3656249999999996 $246 $355 forward @7 unknown #
vertex $-1 -1 $-1 $158 $356 #
vertex $-1 -1 $-1 $260 $357 #
straight-curve $-1 -1 $-1 4.3656249999999996 0 -4.3656249999999996 0 -1 0 I I #
coedge $-1 -1 $-1 $240 $242 $159 $252 reversed $152 $-1 #
edge $-1 -1 $-1 $255 -2.7781250000000002 $258 2.7781250000000002 $251 $358 forward @7 unknown #
coedge $-1 -1 $-1 $246 $160 $165 $261 forward $238 $-1 #
coedge $-1 -1 $-1 $160 $246 $240 $349 reversed $238 $-1 #
vertex $-1 -1 $-1 $161 $359 #
straight-curve $-1 -1 $-1 0 2.7781250000000002 4.3656249999999996 -1 0 0 I I #
coedge $-1 -1 $-1 $162 $241 $164 $260 reversed $96 $-1 #
vertex $-1 -1 $-1 $252 $360 #
straight-curve $-1 -1 $-1 0 -2.7781250000000002 4.3656249999999996 1 0 0 I I #
edge $-1 -1 $-1 $167 -4.3656249999999996 $249 4.3656249999999996 $164 $361 forward @7 unknown #
edge $-1 -1 $-1 $168 -4.3656249999999996 $248 4.3656249999999996 $165 $362 forward @7 unknown #
point $-1 -1 $-1 4.3656249999999996 -2.7781250000000002 4.3656249999999996 #
point $-1 -1 $-1 4.3656249999999996 2.7781250000000002 4.3656249999999996 #
model_id-kcp-attrib $-1 -1 $-1 $-1 $171 1 1021487288 1021487288 1790574593 8 #
face $363 -1 $-1 $194 $283 $8 $-1 $364 reversed single #
loop $-1 -1 $-1 $-1 $365 $171 #
cone-surface $-1 -1 $-1 0 -3.0559375000000011 0 0 1 0 4.3656249999999996 0 0 1 I I 0 1 4.3656249999999996 forward I I I I #
loop $-1 -1 $-1 $-1 $288 $104 #
coedge $-1 -1 $-1 $272 $272 $366 $367 forward $172 $-1 #
coedge $-1 -1 $-1 $177 $174 $368 $369 forward $105 $-1 #
coedge $-1 -1 $-1 $174 $177 $370 $371 reversed $105 $-1 #
coedge $-1 -1 $-1 $269 $269 $174 $273 reversed $172 $-1 #
edge $-1 -1 $-1 $372 0 $373 3.1415926535897931 $272 $374 forward @7 unknown #
coedge $-1 -1 $-1 $375 $182 $175 $275 reversed $283 $-1 #
edge $-1 -1 $-1 $279 -4.7635962072449902e-017 $180 0.9549967934229644 $274 $376 forward @7 unknown #
coedge $-1 -1 $-1 $182 $375 $176 $277 forward $283 $-1 #
edge $-1 -1 $-1 $278 9.5271924144899866e-017 $179 0.95499679342296451 $276 $377 forward @7 unknown #
vertex $-1 -1 $-1 $371 $378 #
vertex $-1 -1 $-1 $369 $379 #
ellipse-curve $-1 -1 $-1 0 1.9843749999999991 0 0 -1 0 -4.3656249999999996 0 5.3461721134058155e-016 1 I I #
point $-1 -1 $-1 -4.3656250000000005 -1.9843750000000002 5.3461721134058165e-016 #
point $-1 -1 $-1 4.3656249999999996 -1.984375 -1.0692344226811631e-015 #
loop $-1 -1 $-1 $-1 $182 $265 #
ellipse-curve $-1 -1 $-1 0 -1.984375 0 0 1 0 -4.3656249999999996 0 5.3461721134058155e-016 1 I I #
coedge $-1 -1 $-1 $187 $186 $380 $381 reversed $188 $-1 #
face $382 -1 $-1 $-1 $188 $8 $-1 $383 reversed single #
convexity-sys-attrib $-1 -1 $-1 $189 $116 #
coedge $-1 -1 $-1 $380 $380 $191 $289 forward $268 $-1 #
edge $-1 -1 $-1 $292 0 $290 3.1415926535897931 $288 $384 forward @7 unknown #
vertex $-1 -1 $-1 $381 $385 #
straight-curve $-1 -1 $-1 2.7781249999999997 2.7781249999999997 0 0 -25.399999999999999 0 I I #
vertex $-1 -1 $-1 $381 $386 #
straight-curve $-1 -1 $-1 -2.7781249999999997 2.7781249999999997 3.4021095267127914e-016 0 -25.399999999999999 0 I I #
model_id-kcp-attrib $-1 -1 $-1 $-1 $194 1 1021487288 1021487288 1790574593 10 #
cone-surface $-1 -1 $-1 0 2.7781249999999997 0 0 -1 0 2.7781249999999997 0 0 1 I I 0 1 2.7781249999999997 forward I I I I #
face $-1 -1 $-1 $387 $388 $20 $-1 $389 reversed single #
loop $-1 -1 $-1 $-1 $217 $199 #
plane-surface $-1 -1 $-1 4.3656249999999996 0 0 -1 0 0 0 0 1 forward_v I I I I #
coedge $-1 -1 $-1 $390 $202 $391 $392 reversed $130 $-1 #
coedge $-1 -1 $-1 $202 $390 $393 $394 reversed $130 $-1 #
coedge $-1 -1 $-1 $395 $396 $397 $205 forward $398 $-1 #
coedge $-1 -1 $-1 $399 $400 $203 $303 forward $401 $-1 #
edge $-1 -1 $-1 $218 -3.1415926535897931 $307 -1.5707963267948968 $302 $214 forward @7 unknown #
coedge $-1 -1 $-1 $402 $403 $204 $305 forward $404 $-1 #
edge $-1 -1 $-1 $306 1.5707963267948968 $144 3.1415926535897931 $304 $146 forward @7 unknown #
vertex $-1 -1 $-1 $405 $406 #
vertex $-1 -1 $-1 $407 $408 #
straight-curve $-1 -1 $-1 3.8310457314991089e-032 -2.7781250000000002 -4.3656249999999996 0 -1 0 I I #
coedge $-1 -1 $-1 $409 $345 $206 $310 forward $410 $-1 #
edge $-1 -1 $-1 $145 -1.5707963267948966 $315 8.2088889032232057e-017 $309 $146 forward @7 unknown #
coedge $-1 -1 $-1 $411 $207 $210 $319 reversed $314 $-1 #
coedge $-1 -1 $-1 $207 $411 $409 $412 forward $314 $-1 #
coedge $-1 -1 $-1 $413 $414 $390 $208 reversed $388 $-1 #
loop $-1 -1 $-1 $-1 $207 $415 #
vertex $-1 -1 $-1 $416 $417 #
straight-curve $-1 -1 $-1 -4.3656249999999996 -2.7781250000000002 1.7624790515924354e-016 0 -1 0 I I #
coedge $-1 -1 $-1 $222 $418 $209 $318 forward $200 $-1 #
edge $-1 -1 $-1 $419 -4.3656249999999996 $213 3.8310457314991089e-032 $209 $420 forward @7 unknown #
edge $-1 -1 $-1 $419 -4.3656249999999996 $212 -1.7624790515924354e-016 $311 $421 forward @7 unknown #
face $-1 -1 $-1 $422 $211 $20 $-1 $423 reversed single #
edge $-1 -1 $-1 $212 -1.7624790515924354e-016 $424 4.3656249999999996 $414 $421 forward @7 unknown #
point $-1 -1 $-1 -4.3656249999999996 -2.7781250000000002 1.7624790515924354e-016 #
edge $-1 -1 $-1 $213 3.8310457314991089e-032 $425 4.3656249999999996 $326 $420 forward @7 unknown #
point $-1 -1 $-1 3.8310457314991089e-032 -2.7781250000000002 4.3656249999999996 #
coedge $-1 -1 $-1 $326 $215 $426 $427 reversed $327 $-1 #
coedge $-1 -1 $-1 $215 $325 $220 $323 reversed $327 $-1 #
loop $-1 -1 $-1 $-1 $215 $422 #
coedge $-1 -1 $-1 $428 $217 $400 $331 forward $297 $-1 #
coedge $-1 -1 $-1 $217 $428 $402 $229 reversed $297 $-1 #
coedge $-1 -1 $-1 $226 $426 $85 $138 reversed $339 $-1 #
edge $-1 -1 $-1 $218 -1.7624790515924354e-016 $429 4.3656249999999996 $328 $430 forward @7 unknown #
point $-1 -1 $-1 4.3656249999999996 -2.7781250000000002 1.7624790515924354e-016 #
coedge $-1 -1 $-1 $221 $220 $338 $431 forward $223 $-1 #
coedge $-1 -1 $-1 $418 $222 $345 $231 forward $200 $-1 #
face $-1 -1 $-1 $432 $223 $20 $-1 $201 forward single #
vertex $-1 -1 $-1 $431 $433 #
straight-curve $-1 -1 $-1 0 2.7781250000000002 4.3656249999999996 -1 0 0 I I #
coedge $-1 -1 $-1 $426 $226 $333 $431 reversed $339 $-1 #
loop $-1 -1 $-1 $-1 $330 $434 #
straight-curve $-1 -1 $-1 4.3656249999999996 2.7781250000000002 0 0 0 -1 I I #
face $-1 -1 $-1 $435 $410 $20 $-1 $342 reversed single #
plane-surface $-1 -1 $-1 0 2.7781250000000002 0 0 -1 0 0 0 -1 forward_v I I I I #
vertex $-1 -1 $-1 $436 $437 #
vertex $-1 -1 $-1 $231 $438 #
coedge $-1 -1 $-1 $309 $409 $334 $231 reversed $410 $-1 #
point $-1 -1 $-1 2.7781249999999997 -2.7781249999999997 0 #
plane-surface $-1 -1 $-1 4.3656249999999996 0 0 -1 0 0 0 0 1 forward_v I I I I #
coedge $-1 -1 $-1 $242 $240 $244 $352 reversed $152 $-1 #
edge $-1 -1 $-1 $255 -4.3656249999999996 $354 4.3656249999999996 $254 $439 forward @7 unknown #
vertex $-1 -1 $-1 $352 $440 #
straight-curve $-1 -1 $-1 -4.3656249999999996 -2.7781250000000002 0 0 0 -1 I I #
edge $-1 -1 $-1 $350 -2.7781250000000002 $354 2.7781250000000002 $348 $441 forward @7 unknown #
straight-curve $-1 -1 $-1 0 -2.7781250000000002 -4.3656249999999996 -1 0 0 I I #
vertex $-1 -1 $-1 $247 $442 #
straight-curve $-1 -1 $-1 0 2.7781250000000002 -4.3656249999999996 1 0 0 I I #
point $-1 -1 $-1 4.3656249999999996 2.7781250000000002 -4.3656249999999996 #
point $-1 -1 $-1 4.3656249999999996 -2.7781250000000002 -4.3656249999999996 #
straight-curve $-1 -1 $-1 -4.3656249999999996 0 4.3656249999999996 0 -1 0 I I #
point $-1 -1 $-1 -4.3656249999999996 2.7781250000000002 4.3656249999999996 #
point $-1 -1 $-1 -4.3656249999999996 -2.7781250000000002 4.3656249999999996 #
straight-curve $-1 -1 $-1 4.3656249999999996 -2.7781250000000002 0 0 0 -1 I I #
straight-curve $-1 -1 $-1 4.3656249999999996 2.7781250000000002 0 0 0 -1 I I #
model_id-kcp-attrib $-1 -1 $-1 $-1 $265 1 1021487288 1021487288 1790574593 9 #
torus-surface $-1 -1 $-1 0 0 0 0 1 0 8.2006451902173865 4.3180000000000005 1 0 0 forward_v I I I I #
coedge $-1 -1 $-1 $368 $370 $375 $443 forward $266 $-1 #
coedge $-1 -1 $-1 $370 $368 $269 $367 reversed $266 $-1 #
edge $-1 -1 $-1 $372 0 $373 3.1415926535897931 $269 $444 forward @7 unknown #
coedge $-1 -1 $-1 $366 $365 $270 $369 reversed $266 $-1 #
edge $-1 -1 $-1 $373 0 $279 0.031249999999999972 $368 $445 forward @7 unknown #
coedge $-1 -1 $-1 $365 $366 $271 $371 forward $266 $-1 #
edge $-1 -1 $-1 $372 0 $278 0.03125 $370 $446 forward @7 unknown #
vertex $-1 -1 $-1 $273 $447 #
vertex $-1 -1 $-1 $273 $448 #
ellipse-curve $-1 -1 $-1 -1.7624790515924359e-016 2.7781249999999997 1.7624790515924359e-016 3.2297397080004555e-016 -1 -2.6512574449304289e-032 -4.3656249999999996 -1.4099832412739487e-015 3.5836930618133796e-016 1 I I #
coedge $-1 -1 $-1 $276 $274 $365 $443 reversed $283 $-1 #
ellipse-curve $-1 -1 $-1 8.2006451902173847 2.6437185773886536e-016 -2.0085124410766259e-015 2.4492127076447555e-016 0 1 -3.8350201902173855 1.9843749999999989 9.3927801839546275e-016 1 I I #
ellipse-curve $-1 -1 $-1 -8.2006451902173847 2.6437185773886536e-016 1.0042562205383129e-015 -1.2246063538223778e-016 0 -1 3.8350201902173855 1.9843749999999989 -4.6963900919773137e-016 1 I I #
point $-1 -1 $-1 -4.3656249999999996 1.9843749999999984 5.3461721134058155e-016 #
point $-1 -1 $-1 4.3656249999999996 1.9843749999999991 -1.0692344226811631e-015 #
coedge $-1 -1 $-1 $288 $288 $285 $381 forward $268 $-1 #
edge $-1 -1 $-1 $290 0 $292 3.1415926535897931 $380 $449 forward @7 unknown #
model_id-kcp-attrib $-1 -1 $-1 $-1 $286 1 1021487288 1021487288 1790574593 11 #
cone-surface $-1 -1 $-1 0 2.7781249999999997 0 0 -1 0 2.7781249999999997 0 0 1 I I 0 1 2.7781249999999997 forward I I I I #
ellipse-curve $-1 -1 $-1 0 2.7781249999999997 0 0 -1 0 -2.7781249999999997 0 0 1 I I #
point $-1 -1 $-1 2.7781249999999997 2.7781249999999997 0 #
point $-1 -1 $-1 -2.7781249999999997 2.7781249999999997 0 #
face $-1 -1 $-1 $320 $450 $20 $-1 $423 reversed single #
loop $-1 -1 $-1 $-1 $313 $296 #
plane-surface $-1 -1 $-1 -4.3656249999999996 0 0 1 0 0 0 0 -1 forward_v I I I I #
coedge $-1 -1 $-1 $300 $299 $132 $208 forward $130 $-1 #
coedge $-1 -1 $-1 $451 $452 $299 $392 forward $453 $-1 #
edge $-1 -1 $-1 $315 8.2088889032232057e-017 $306 1.5707963267948968 $391 $146 forward @7 unknown #
coedge $-1 -1 $-1 $454 $455 $300 $394 forward $450 $-1 #
edge $-1 -1 $-1 $307 -1.5707963267948968 $212 -8.2088889032232057e-017 $393 $214 forward @7 unknown #
coedge $-1 -1 $-1 $456 $301 $455 $407 forward $398 $-1 #
coedge $-1 -1 $-1 $301 $456 $451 $457 forward $398 $-1 #
coedge $-1 -1 $-1 $458 $459 $131 $205 reversed $460 $-1 #
loop $-1 -1 $-1 $-1 $301 $432 #
coedge $-1 -1 $-1 $400 $302 $459 $461 reversed $401 $-1 #
coedge $-1 -1 $-1 $302 $399 $328 $331 reversed $401 $-1 #
loop $-1 -1 $-1 $-1 $302 $462 #
coedge $-1 -1 $-1 $403 $304 $329 $229 forward $404 $-1 #
coedge $-1 -1 $-1 $304 $402 $458 $405 reversed $404 $-1 #
loop $-1 -1 $-1 $-1 $304 $463 #
edge $-1 -1 $-1 $306 3.8310457314991089e-032 $343 4.3656249999999996 $403 $464 forward @7 unknown #
point $-1 -1 $-1 3.8310457314991089e-032 2.7781250000000002 -4.3656249999999996 #
edge $-1 -1 $-1 $307 -3.8310457314991089e-032 $424 4.3656249999999996 $455 $465 forward @7 unknown #
point $-1 -1 $-1 3.8310457314991089e-032 -2.7781250000000002 -4.3656249999999996 #
coedge $-1 -1 $-1 $345 $309 $312 $412 reversed $410 $-1 #
loop $-1 -1 $-1 $-1 $309 $341 #
coedge $-1 -1 $-1 $312 $311 $418 $466 reversed $314 $-1 #
edge $-1 -1 $-1 $344 -4.3656249999999996 $315 -1.7624790515924354e-016 $409 $467 forward @7 unknown #
coedge $-1 -1 $-1 $468 $313 $452 $416 forward $388 $-1 #
coedge $-1 -1 $-1 $313 $468 $454 $321 reversed $388 $-1 #
face $-1 -1 $-1 $434 $314 $20 $-1 $389 reversed single #
edge $-1 -1 $-1 $315 -1.7624790515924354e-016 $469 4.3656249999999996 $452 $467 forward @7 unknown #
point $-1 -1 $-1 -4.3656249999999996 2.7781250000000002 1.7624790515924354e-016 #
coedge $-1 -1 $-1 $317 $334 $411 $466 forward $200 $-1 #
vertex $-1 -1 $-1 $466 $470 #
straight-curve $-1 -1 $-1 0 -2.7781250000000002 4.3656249999999996 1 0 0 I I #
straight-curve $-1 -1 $-1 -4.3656249999999996 -2.7781250000000002 0 0 0 -1 I I #
face $-1 -1 $-1 $462 $327 $20 $-1 $423 reversed single #
plane-surface $-1 -1 $-1 0 -2.7781250000000002 0 0 1 0 0 0 1 forward_v I I I I #
vertex $-1 -1 $-1 $471 $472 #
vertex $-1 -1 $-1 $431 $473 #
coedge $-1 -1 $-1 $330 $338 $325 $427 forward $339 $-1 #
edge $-1 -1 $-1 $425 -4.3656249999999996 $218 -1.7624790515924354e-016 $426 $430 forward @7 unknown #
coedge $-1 -1 $-1 $329 $328 $474 $436 reversed $297 $-1 #
vertex $-1 -1 $-1 $331 $475 #
straight-curve $-1 -1 $-1 4.3656249999999996 -2.7781250000000002 0 0 0 -1 I I #
edge $-1 -1 $-1 $425 -2.7781250000000002 $336 2.7781250000000002 $338 $476 forward @7 unknown #
face $-1 -1 $-1 $415 $398 $20 $-1 $477 reversed single #
point $-1 -1 $-1 4.3656249999999996 2.7781250000000002 4.3656249999999996 #
face $-1 -1 $-1 $-1 $339 $20 $-1 $298 reversed single #
face $-1 -1 $-1 $478 $453 $20 $-1 $342 reversed single #
edge $-1 -1 $-1 $343 -2.7781250000000002 $429 2.7781250000000002 $428 $479 forward @7 unknown #
point $-1 -1 $-1 4.3656249999999996 2.7781250000000002 -4.3656249999999996 #
point $-1 -1 $-1 -4.3656249999999996 2.7781250000000002 4.3656249999999996 #
straight-curve $-1 -1 $-1 -4.3656249999999996 2.7781250000000002 0 0 0 -1 I I #
point $-1 -1 $-1 -4.3656249999999996 -2.7781250000000002 -4.3656249999999996 #
straight-curve $-1 -1 $-1 -4.3656249999999996 0 -4.3656249999999996 0 1 0 I I #
point $-1 -1 $-1 -4.3656249999999996 2.7781250000000002 -4.3656249999999996 #
edge $-1 -1 $-1 $278 0 $279 3.1415926535897931 $365 $480 forward @7 unknown #
ellipse-curve $-1 -1 $-1 -3.5249581031848718e-016 2.7781249999999997 -1.7624790515924359e-016 -3.2297397080004555e-016 1 5.2590620902891457e-032 -4.3656249999999996 -1.4099832412739487e-015 7.1086511649982509e-016 1 I I #
straight-curve $-1 -1 $-1 4.3656249999999996 2.7781249999999984 -1.0692344226811631e-015 0 -25.399999999999999 0 I I #
straight-curve $-1 -1 $-1 -4.3656249999999996 2.7781249999999984 5.3461721134058155e-016 0 -25.399999999999999 0 I I #
point $-1 -1 $-1 -4.3656249999999996 2.7781249999999984 5.3461721134058155e-016 #
point $-1 -1 $-1 4.3656249999999996 2.7781249999999984 -1.0692344226811631e-015 #
ellipse-curve $-1 -1 $-1 0 2.7781249999999997 0 0 -1 0 2.7781249999999997 0 0 1 I I #
loop $-1 -1 $-1 $-1 $393 $387 #
coedge $-1 -1 $-1 $452 $391 $396 $457 reversed $453 $-1 #
coedge $-1 -1 $-1 $391 $451 $413 $416 reversed $453 $-1 #
loop $-1 -1 $-1 $-1 $391 $435 #
coedge $-1 -1 $-1 $455 $393 $414 $321 forward $450 $-1 #
coedge $-1 -1 $-1 $393 $454 $395 $407 reversed $450 $-1 #
coedge $-1 -1 $-1 $396 $395 $468 $471 forward $398 $-1 #
edge $-1 -1 $-1 $469 -4.3656249999999996 $306 3.8310457314991089e-032 $451 $464 forward @7 unknown #
coedge $-1 -1 $-1 $474 $397 $403 $405 forward $460 $-1 #
coedge $-1 -1 $-1 $397 $474 $399 $461 forward $460 $-1 #
loop $-1 -1 $-1 $-1 $397 $478 #
edge $-1 -1 $-1 $429 -4.3656249999999996 $307 -3.8310457314991089e-032 $399 $465 forward @7 unknown #
face $-1 -1 $-1 $463 $401 $20 $-1 $423 reversed single #
face $-1 -1 $-1 $228 $404 $20 $-1 $342 reversed single #
straight-curve $-1 -1 $-1 0 2.7781250000000002 -4.3656249999999996 1 0 0 I I #
straight-curve $-1 -1 $-1 0 -2.7781250000000002 -4.3656249999999996 -1 0 0 I I #
edge $-1 -1 $-1 $344 -2.7781250000000002 $419 2.7781250000000002 $411 $481 forward @7 unknown #
straight-curve $-1 -1 $-1 -4.3656249999999996 2.7781250000000002 0 0 0 -1 I I #
coedge $-1 -1 $-1 $414 $413 $456 $471 reversed $388 $-1 #
vertex $-1 -1 $-1 $457 $482 #
point $-1 -1 $-1 -4.3656249999999996 -2.7781250000000002 4.3656249999999996 #
edge $-1 -1 $-1 $424 -2.7781250000000002 $469 2.7781250000000002 $468 $483 forward @7 unknown #
point $-1 -1 $-1 -4.3656249999999996 -2.7781250000000002 -4.3656249999999996 #
point $-1 -1 $-1 4.3656249999999996 -2.7781250000000002 4.3656249999999996 #
coedge $-1 -1 $-1 $459 $458 $428 $436 forward $460 $-1 #
point $-1 -1 $-1 4.3656249999999996 -2.7781250000000002 -4.3656249999999996 #
straight-curve $-1 -1 $-1 4.3656249999999996 0 4.3656249999999996 0 1 0 I I #
plane-surface $-1 -1 $-1 0 0 -4.3656249999999996 0 0 1 1 0 0 forward_v I I I I #
face $-1 -1 $-1 $335 $460 $20 $-1 $477 reversed single #
straight-curve $-1 -1 $-1 4.3656249999999996 0 -4.3656249999999996 0 -1 0 I I #
ellipse-curve $-1 -1 $-1 0 1.9843749999999991 0 0 1 0 -4.3656249999999996 0 5.3461721134058155e-016 1 I I #
straight-curve $-1 -1 $-1 -4.3656249999999996 0 4.3656249999999996 0 -1 0 I I #
point $-1 -1 $-1 -4.3656249999999996 2.7781250000000002 -4.3656249999999996 #
straight-curve $-1 -1 $-1 -4.3656249999999996 0 -4.3656249999999996 0 1 0 I I #
End-of-ACIS-data 