600 0 1 0           
96 GICL ACIS Healer - Source: /gicl/data5/repository/PTC/V18/reel18/areel/line_roller.prt.sat - 6 0 18 ACIS 6.0.3 Solaris 24 Sat Apr 13 21:14:02 2002 
1 9.999999999999999547e-07 1.000000000000000036e-10 
body $-1 $1 $-1 $-1 #
lump $-1 $-1 $2 $0 #
shell $-1 $-1 $-1 $3 $-1 $1 #
face $-1 $4 $5 $2 $-1 $6 reversed single #
face $-1 $7 $8 $2 $-1 $9 forward single #
loop $-1 $10 $11 $3 #
plane-surface $-1 0 -2.778124999999999734 0 0 1 0 25.39999999999999858 0 0 forward_v I I I I #
face $-1 $12 $13 $2 $-1 $14 forward single #
loop $-1 $-1 $15 $4 #
cone-surface $-1 0 -3.055937500000001084 0 0 1 0 4.365624999999999645 0 0 1 I I 0 1 4.365624999999999645 forward I I I I #
loop $-1 $-1 $16 $3 #
coedge $-1 $17 $17 $15 $18 reversed $5 $-1 #
face $-1 $19 $20 $2 $-1 $21 reversed single #
loop $-1 $-1 $22 $7 #
cone-surface $-1 0 -3.055937500000001084 0 0 1 0 4.365624999999999645 0 0 1 I I 0 1 4.365624999999999645 forward I I I I #
coedge $-1 $23 $24 $11 $18 forward $8 $-1 #
coedge $-1 $25 $25 $26 $27 reversed $10 $-1 #
coedge $-1 $11 $11 $28 $29 forward $5 $-1 #
edge $-1 $30 0 $31 3.141592653589793116 $11 $32 forward 7 unknown #
face $-1 $33 $34 $2 $-1 $35 forward single #
loop $-1 $-1 $36 $12 #
torus-surface $-1 0 0 0 0 1 0 8.200645190217386471 4.318000000000000504 1 0 0 forward_v I I I I #
coedge $-1 $37 $38 $39 $40 forward $13 $-1 #
coedge $-1 $41 $15 $37 $42 reversed $8 $-1 #
coedge $-1 $15 $41 $38 $43 forward $8 $-1 #
coedge $-1 $16 $16 $44 $45 reversed $10 $-1 #
coedge $-1 $46 $47 $16 $27 forward $48 $-1 #
edge $-1 $49 0 $50 3.141592653589793116 $16 $51 forward 7 unknown #
coedge $-1 $38 $37 $17 $29 reversed $13 $-1 #
edge $-1 $30 0 $31 3.141592653589793116 $17 $52 forward 7 unknown #
vertex $-1 $29 $53 #
vertex $-1 $29 $54 #
ellipse-curve $-1 -1.762479051592435909e-16 -2.778124999999999734 -1.762479051592435909e-16 0 1 0 -4.365624999999999645 0 1.762479051592435909e-16 1 I I #
face $-1 $55 $56 $2 $-1 $57 forward single #
loop $-1 $-1 $58 $19 #
cone-surface $-1 0 -3.055937500000001084 0 0 1 0 4.365624999999999645 0 0 1 I I 0 1 4.365624999999999645 forward I I I I #
coedge $-1 $59 $60 $61 $62 forward $20 $-1 #
coedge $-1 $28 $22 $23 $42 forward $13 $-1 #
coedge $-1 $22 $28 $24 $43 reversed $13 $-1 #
coedge $-1 $60 $59 $22 $40 reversed $20 $-1 #
edge $-1 $63 0 $64 3.141592653589793116 $39 $65 forward 7 unknown #
coedge $-1 $24 $23 $66 $67 reversed $8 $-1 #
edge $-1 $64 0 $31 0.03124999999999998959 $23 $68 forward 7 unknown #
edge $-1 $63 8.741913579725641929e-18 $30 0.03124999999999998959 $24 $69 forward 7 unknown #
coedge $-1 $70 $71 $25 $45 forward $72 $-1 #
edge $-1 $50 0 $49 3.141592653589793116 $25 $73 forward 7 unknown #
coedge $-1 $74 $26 $71 $75 reversed $48 $-1 #
coedge $-1 $26 $74 $70 $76 forward $48 $-1 #
loop $-1 $-1 $46 $77 #
vertex $-1 $45 $78 #
vertex $-1 $45 $79 #
ellipse-curve $-1 0 -2.778124999999999734 0 0 -1 0 -2.778124999999999734 0 0 1 I I #
ellipse-curve $-1 -1.762479051592435909e-16 -2.778124999999999734 1.762479051592435909e-16 0 -1 0 -4.365624999999999645 0 -1.762479051592435909e-16 1 I I #
point $-1 -4.365624999999999645 -2.778124999999999734 0 #
point $-1 4.365624999999999645 -2.778124999999999734 0 #
face $-1 $80 $81 $2 $-1 $82 forward single #
loop $-1 $83 $84 $33 #
plane-surface $-1 0 2.778124999999999734 0 0 1 0 25.39999999999999858 0 0 forward_v I I I I #
coedge $-1 $85 $86 $87 $88 forward $34 $-1 #
coedge $-1 $39 $36 $89 $90 forward $20 $-1 #
coedge $-1 $36 $39 $91 $92 reversed $20 $-1 #
coedge $-1 $86 $85 $36 $62 reversed $34 $-1 #
edge $-1 $93 0 $94 3.141592653589793116 $61 $95 forward 7 unknown #
vertex $-1 $92 $96 #
vertex $-1 $90 $97 #
ellipse-curve $-1 0 -1.984375 0 0 -1 0 -4.365624999999999645 0 5.346172113405815521e-16 1 I I #
coedge $-1 $89 $91 $41 $67 forward $98 $-1 #
edge $-1 $63 0 $64 3.141592653589793116 $66 $99 forward 7 unknown #
straight-curve $-1 4.365624999999999645 -1.984375 -1.069234422681163104e-15 0 -25.39999999999999858 0 I I #
straight-curve $-1 -4.365624999999999645 -1.984375 5.346172113405815521e-16 0 -25.39999999999999858 0 I I #
coedge $-1 $100 $44 $47 $76 reversed $72 $-1 #
coedge $-1 $44 $100 $46 $75 forward $72 $-1 #
loop $-1 $-1 $70 $101 #
ellipse-curve $-1 0 -2.778124999999999734 0 0 -1 0 2.778124999999999734 0 0 1 I I #
coedge $-1 $47 $46 $102 $103 reversed $48 $-1 #
edge $-1 $104 0 $50 0.21875 $71 $105 forward 7 unknown #
edge $-1 $106 0 $49 0.21875 $70 $107 forward 7 unknown #
face $-1 $101 $48 $2 $-1 $108 reversed single #
point $-1 -2.778124999999999734 -2.778124999999999734 0 #
point $-1 2.778124999999999734 -2.778124999999999734 0 #
face $-1 $77 $98 $2 $-1 $109 reversed single #
loop $-1 $-1 $110 $55 #
cone-surface $-1 0 -3.055937500000001084 0 0 1 0 4.365624999999999645 0 0 1 I I 0 1 4.365624999999999645 forward I I I I #
loop $-1 $-1 $102 $33 #
coedge $-1 $87 $87 $111 $112 forward $56 $-1 #
coedge $-1 $61 $58 $113 $114 forward $34 $-1 #
coedge $-1 $58 $61 $115 $116 reversed $34 $-1 #
coedge $-1 $84 $84 $58 $88 reversed $56 $-1 #
edge $-1 $117 0 $118 3.141592653589793116 $87 $119 forward 7 unknown #
coedge $-1 $120 $66 $59 $90 reversed $98 $-1 #
edge $-1 $94 -4.763596207244990216e-17 $64 0.9549967934229643962 $89 $121 forward 7 unknown #
coedge $-1 $66 $120 $60 $92 forward $98 $-1 #
edge $-1 $93 9.527192414489986596e-17 $63 0.9549967934229645072 $91 $122 forward 7 unknown #
vertex $-1 $116 $123 #
vertex $-1 $114 $124 #
ellipse-curve $-1 0 1.984374999999999112 0 0 -1 0 -4.365624999999999645 0 5.346172113405815521e-16 1 I I #
point $-1 -4.365625000000000533 -1.984375000000000222 5.346172113405816507e-16 #
point $-1 4.365624999999999645 -1.984375 -1.069234422681163104e-15 #
loop $-1 $-1 $66 $80 #
ellipse-curve $-1 0 -1.984375 0 0 1 0 -4.365624999999999645 0 5.346172113405815521e-16 1 I I #
coedge $-1 $71 $70 $125 $126 reversed $72 $-1 #
face $-1 $-1 $72 $2 $-1 $127 reversed single #
coedge $-1 $125 $125 $74 $103 forward $83 $-1 #
edge $-1 $106 0 $104 3.141592653589793116 $102 $128 forward 7 unknown #
vertex $-1 $126 $129 #
straight-curve $-1 2.778124999999999734 2.778124999999999734 0 0 -25.39999999999999858 0 I I #
vertex $-1 $126 $130 #
straight-curve $-1 -2.778124999999999734 2.778124999999999734 3.402109526712791426e-16 0 -25.39999999999999858 0 I I #
cone-surface $-1 0 2.778124999999999734 0 0 -1 0 2.778124999999999734 0 0 1 I I 0 1 2.778124999999999734 forward I I I I #
torus-surface $-1 0 0 0 0 1 0 8.200645190217386471 4.318000000000000504 1 0 0 forward_v I I I I #
coedge $-1 $113 $115 $120 $131 forward $81 $-1 #
coedge $-1 $115 $113 $84 $112 reversed $81 $-1 #
edge $-1 $117 0 $118 3.141592653589793116 $84 $132 forward 7 unknown #
coedge $-1 $111 $110 $85 $114 reversed $81 $-1 #
edge $-1 $118 0 $94 0.03124999999999997224 $113 $133 forward 7 unknown #
coedge $-1 $110 $111 $86 $116 forward $81 $-1 #
edge $-1 $117 0 $93 0.03125 $115 $134 forward 7 unknown #
vertex $-1 $88 $135 #
vertex $-1 $88 $136 #
ellipse-curve $-1 -1.762479051592435909e-16 2.778124999999999734 1.762479051592435909e-16 3.22973970800045548e-16 -1 -2.65125744493042889e-32 -4.365624999999999645 -1.409983241273948727e-15 3.583693061813379611e-16 1 I I #
coedge $-1 $91 $89 $110 $131 reversed $98 $-1 #
ellipse-curve $-1 8.200645190217384695 2.643718577388653617e-16 -2.008512441076625852e-15 2.449212707644755502e-16 0 1 -3.835020190217385494 1.98437499999999889 9.392780183954627482e-16 1 I I #
ellipse-curve $-1 -8.200645190217384695 2.643718577388653617e-16 1.004256220538312926e-15 -1.224606353822377751e-16 0 -1 3.835020190217385494 1.98437499999999889 -4.696390091977313741e-16 1 I I #
point $-1 -4.365624999999999645 1.984374999999998446 5.346172113405815521e-16 #
point $-1 4.365624999999999645 1.984374999999999112 -1.069234422681163104e-15 #
coedge $-1 $102 $102 $100 $126 forward $83 $-1 #
edge $-1 $104 0 $106 3.141592653589793116 $125 $137 forward 7 unknown #
cone-surface $-1 0 2.778124999999999734 0 0 -1 0 2.778124999999999734 0 0 1 I I 0 1 2.778124999999999734 forward I I I I #
ellipse-curve $-1 0 2.778124999999999734 0 0 -1 0 -2.778124999999999734 0 0 1 I I #
point $-1 2.778124999999999734 2.778124999999999734 0 #
point $-1 -2.778124999999999734 2.778124999999999734 0 #
edge $-1 $93 0 $94 3.141592653589793116 $110 $138 forward 7 unknown #
ellipse-curve $-1 -3.524958103184871819e-16 2.778124999999999734 -1.762479051592435909e-16 -3.22973970800045548e-16 1 5.259062090289145675e-32 -4.365624999999999645 -1.409983241273948727e-15 7.108651164998250937e-16 1 I I #
straight-curve $-1 4.365624999999999645 2.778124999999998401 -1.069234422681163104e-15 0 -25.39999999999999858 0 I I #
straight-curve $-1 -4.365624999999999645 2.778124999999998401 5.346172113405815521e-16 0 -25.39999999999999858 0 I I #
point $-1 -4.365624999999999645 2.778124999999998401 5.346172113405815521e-16 #
point $-1 4.365624999999999645 2.778124999999998401 -1.069234422681163104e-15 #
ellipse-curve $-1 0 2.778124999999999734 0 0 -1 0 2.778124999999999734 0 0 1 I I #
ellipse-curve $-1 0 1.984374999999999112 0 0 1 0 -4.365624999999999645 0 5.346172113405815521e-16 1 I I #
End-of-ACIS-data 