700 0 2 0           
24 FBMach with ACIS - 7.0.3 13 ACIS 7.0.3 NT 24 Wed May 15 12:33:18 2002 
1 9.9999999999999995e-007 1e-010 
body $2 -1 $-1 $3 $-1 $4 #
bdycol-kcp $-1 -1 1 3 $5 $6 $7 #
model_id-kcp-attrib $-1 -1 $-1 $-1 $0 1 1021480397 1021480397 1537933313 1 #
lump $-1 -1 $-1 $-1 $8 $0 #
transform $-1 -1 1 0 0 0 1 0 0 0 1 0 0 0 1 rotate no_reflect no_shear #
body $9 -1 $-1 $10 $-1 $11 #
body $12 -1 $-1 $13 $-1 $14 #
body $15 -1 $-1 $16 $-1 $17 #
shell $-1 -1 $-1 $-1 $-1 $18 $-1 $3 #
model_id-kcp-attrib $-1 -1 $-1 $-1 $5 1 1021480397 1021480397 1538588674 1 #
lump $-1 -1 $-1 $-1 $19 $5 #
transform $-1 -1 1 0 0 0 1 0 0 0 1 0 6.6613381477509392e-016 0 1 no_rotate no_reflect no_shear #
rgb_color-st-attrib $-1 -1 $20 $-1 $6 0.5 1 1 #
lump $-1 -1 $-1 $-1 $21 $6 #
transform $-1 -1 1 0 0 0 1 0 0 0 1 0 6.6613381477509392e-016 0 1 no_rotate no_reflect no_shear #
rgb_color-st-attrib $-1 -1 $22 $-1 $7 0.5 1 1 #
lump $-1 -1 $-1 $-1 $23 $7 #
transform $-1 -1 1 0 0 0 1 0 0 0 1 0 0 0 1 no_rotate no_reflect no_shear #
face $24 -1 $-1 $25 $26 $8 $-1 $27 reversed single #
shell $-1 -1 $-1 $-1 $-1 $28 $-1 $10 #
model_id-kcp-attrib $-1 -1 $-1 $12 $6 1 1021480397 1021480398 1533935619 1 #
shell $-1 -1 $-1 $-1 $-1 $29 $-1 $13 #
model_id-kcp-attrib $-1 -1 $-1 $15 $7 1 1021480397 1021480398 1538523140 1 #
shell $-1 -1 $-1 $-1 $-1 $30 $-1 $16 #
model_id-kcp-attrib $-1 -1 $-1 $-1 $18 1 1021480397 1021480397 1537933313 2 #
face $31 -1 $-1 $32 $33 $8 $-1 $34 forward single #
loop $-1 -1 $-1 $35 $36 $18 #
plane-surface $-1 -1 $-1 0 -2.7781249999999997 0 0 1 0 25.399999999999999 0 0 forward_v I I I I #
face $-1 -1 $-1 $37 $38 $19 $-1 $39 forward single #
face $-1 -1 $-1 $40 $41 $21 $-1 $42 reversed single #
face $-1 -1 $-1 $43 $44 $23 $-1 $45 forward single #
model_id-kcp-attrib $-1 -1 $-1 $-1 $25 1 1021480397 1021480397 1537933313 3 #
face $46 -1 $-1 $47 $48 $8 $-1 $49 forward single #
loop $-1 -1 $-1 $-1 $50 $25 #
cone-surface $-1 -1 $-1 0 -3.0559375000000011 0 0 1 0 4.3656249999999996 0 0 1 I I 0 1 4.3656249999999996 forward I I I I #
loop $-1 -1 $-1 $-1 $51 $18 #
coedge $-1 -1 $-1 $52 $52 $50 $53 reversed $26 $-1 #
face $-1 -1 $-1 $54 $55 $19 $-1 $56 reversed single #
loop $-1 -1 $-1 $-1 $57 $28 #
plane-surface $-1 -1 $-1 0 0 4.3656249999999996 0 0 1 1 0 0 forward_v I I I I #
face $-1 -1 $-1 $58 $59 $21 $-1 $42 reversed single #
loop $-1 -1 $-1 $-1 $60 $29 #
cone-surface $-1 -1 $-1 3.8310457314991089e-032 -2.7781250000000002 1.7624790515924354e-016 0 -1 0 -4.3656249999999996 0 3.5836930618133801e-016 1 I I 0 1 4.3656249999999996 forward I I I I #
face $-1 -1 $-1 $61 $62 $23 $-1 $63 forward single #
loop $-1 -1 $-1 $64 $65 $30 #
cone-surface $-1 -1 $-1 0 -2.7781249999999997 0 0 1 0 -2.7781249999999997 0 0 1 I I 0 1 2.7781249999999997 forward I I I I #
model_id-kcp-attrib $-1 -1 $-1 $-1 $32 1 1021480397 1021480397 1537933313 4 #
face $66 -1 $-1 $67 $68 $8 $-1 $69 reversed single #
loop $-1 -1 $-1 $-1 $70 $32 #
cone-surface $-1 -1 $-1 0 -3.0559375000000011 0 0 1 0 4.3656249999999996 0 0 1 I I 0 1 4.3656249999999996 forward I I I I #
coedge $-1 -1 $-1 $71 $72 $36 $53 forward $33 $-1 #
coedge $-1 -1 $-1 $73 $73 $74 $75 reversed $35 $-1 #
coedge $-1 -1 $-1 $36 $36 $76 $77 forward $26 $-1 #
edge $78 -1 $-1 $79 0 $80 3.1415926535897931 $36 $81 forward @7 unknown #
face $82 -1 $-1 $83 $84 $19 $-1 $85 reversed single #
loop $-1 -1 $-1 $-1 $86 $37 #
plane-surface $-1 -1 $-1 0 0 -4.3656249999999996 0 0 1 1 0 0 forward_v I I I I #
coedge $-1 -1 $-1 $87 $88 $89 $90 forward $38 $-1 #
face $-1 -1 $-1 $91 $92 $21 $-1 $42 reversed single #
loop $-1 -1 $-1 $-1 $93 $40 #
coedge $-1 -1 $-1 $94 $95 $96 $97 reversed $41 $-1 #
face $-1 -1 $-1 $-1 $98 $23 $-1 $99 reversed single #
loop $-1 -1 $-1 $-1 $100 $43 #
plane-surface $-1 -1 $-1 0 2.7781249999999997 0 -1.0221081901484542e-032 1 -5.3660679982793815e-032 0 5.3660679982793815e-032 1 forward_v I I I I #
loop $-1 -1 $-1 $-1 $101 $30 #
coedge $-1 -1 $-1 $65 $65 $100 $102 forward $44 $-1 #
model_id-kcp-attrib $-1 -1 $-1 $-1 $47 1 1021480397 1021480397 1537933313 5 #
face $103 -1 $-1 $104 $105 $8 $-1 $106 forward single #
loop $-1 -1 $-1 $-1 $107 $47 #
torus-surface $-1 -1 $-1 0 0 0 0 1 0 8.2006451902173865 4.3180000000000005 1 0 0 forward_v I I I I #
coedge $-1 -1 $-1 $108 $109 $110 $111 forward $48 $-1 #
coedge $-1 -1 $-1 $112 $50 $108 $113 reversed $33 $-1 #
coedge $-1 -1 $-1 $50 $112 $109 $114 forward $33 $-1 #
coedge $-1 -1 $-1 $51 $51 $115 $116 reversed $35 $-1 #
coedge $-1 -1 $-1 $117 $118 $51 $75 forward $119 $-1 #
edge $120 -1 $-1 $121 0 $122 3.1415926535897931 $51 $123 forward @7 unknown #
coedge $-1 -1 $-1 $109 $108 $52 $77 reversed $48 $-1 #
edge $124 -1 $-1 $79 0 $80 3.1415926535897931 $52 $125 forward @7 unknown #
attrib_edge_convexity-kcp-attrib $-1 -1 $126 $-1 $53 1 #
vertex $-1 -1 $-1 $77 $127 #
vertex $-1 -1 $-1 $77 $128 #
ellipse-curve $-1 -1 $-1 -1.7624790515924359e-016 -2.7781249999999997 -1.7624790515924359e-016 0 1 0 -4.3656249999999996 0 1.7624790515924359e-016 1 I I #
model_id-kcp-attrib $-1 -1 $-1 $-1 $54 1 1021480397 1021480397 1538588674 2 #
face $-1 -1 $-1 $129 $130 $19 $-1 $131 reversed single #
loop $-1 -1 $-1 $-1 $132 $54 #
plane-surface $-1 -1 $-1 0 -2.7781250000000002 0 0 1 0 0 0 1 forward_v I I I I #
coedge $-1 -1 $-1 $133 $134 $135 $136 forward $55 $-1 #
coedge $-1 -1 $-1 $137 $57 $138 $139 forward $38 $-1 #
coedge $-1 -1 $-1 $57 $137 $140 $141 forward $38 $-1 #
coedge $-1 -1 $-1 $142 $143 $57 $90 reversed $144 $-1 #
edge $-1 -1 $-1 $145 -2.7781250000000002 $146 2.7781250000000002 $89 $147 forward @7 unknown #
face $-1 -1 $-1 $148 $149 $21 $-1 $42 reversed single #
loop $-1 -1 $-1 $-1 $150 $58 #
coedge $-1 -1 $-1 $151 $152 $153 $154 reversed $59 $-1 #
coedge $-1 -1 $-1 $155 $60 $156 $157 forward $41 $-1 #
coedge $-1 -1 $-1 $60 $155 $158 $159 reversed $41 $-1 #
coedge $-1 -1 $-1 $160 $161 $60 $97 forward $162 $-1 #
edge $-1 -1 $-1 $163 -3.1415926535897931 $164 -1.5707963267948966 $96 $165 forward @7 unknown #
loop $-1 -1 $-1 $-1 $166 $61 #
plane-surface $-1 -1 $-1 0 -2.7781249999999997 0 -1.0221081901484542e-032 1 -5.3660679982793815e-032 0 5.3660679982793815e-032 1 forward_v I I I I #
coedge $-1 -1 $-1 $100 $100 $65 $102 reversed $62 $-1 #
coedge $-1 -1 $-1 $101 $101 $166 $167 reversed $64 $-1 #
edge $-1 -1 $-1 $168 -3.1415926535897931 $168 3.1415926535897931 $65 $169 forward @7 unknown #
model_id-kcp-attrib $-1 -1 $-1 $-1 $67 1 1021480397 1021480397 1537933313 6 #
face $170 -1 $-1 $171 $172 $8 $-1 $173 forward single #
loop $-1 -1 $-1 $-1 $174 $67 #
cone-surface $-1 -1 $-1 0 -3.0559375000000011 0 0 1 0 4.3656249999999996 0 0 1 I I 0 1 4.3656249999999996 forward I I I I #
coedge $-1 -1 $-1 $175 $176 $177 $178 forward $68 $-1 #
coedge $-1 -1 $-1 $76 $70 $71 $113 forward $48 $-1 #
coedge $-1 -1 $-1 $70 $76 $72 $114 reversed $48 $-1 #
coedge $-1 -1 $-1 $176 $175 $70 $111 reversed $68 $-1 #
edge $-1 -1 $-1 $179 0 $180 3.1415926535897931 $110 $181 forward @7 unknown #
coedge $-1 -1 $-1 $72 $71 $182 $183 reversed $33 $-1 #
edge $-1 -1 $-1 $180 0 $80 0.03124999999999999 $71 $184 forward @7 unknown #
edge $-1 -1 $-1 $179 8.7419135797256419e-018 $79 0.03124999999999999 $72 $185 forward @7 unknown #
coedge $-1 -1 $-1 $186 $187 $73 $116 forward $188 $-1 #
edge $189 -1 $-1 $122 0 $121 3.1415926535897931 $73 $190 forward @7 unknown #
coedge $-1 -1 $-1 $191 $74 $187 $192 reversed $119 $-1 #
coedge $-1 -1 $-1 $74 $191 $186 $193 forward $119 $-1 #
loop $-1 -1 $-1 $-1 $117 $194 #
attrib_edge_convexity-kcp-attrib $-1 -1 $195 $-1 $75 1 #
vertex $-1 -1 $-1 $116 $196 #
vertex $-1 -1 $-1 $116 $197 #
ellipse-curve $-1 -1 $-1 0 -2.7781249999999997 0 0 -1 0 -2.7781249999999997 0 0 1 I I #
attrib_edge_convexity-kcp-attrib $-1 -1 $198 $-1 $77 1 #
ellipse-curve $-1 -1 $-1 -1.7624790515924359e-016 -2.7781249999999997 1.7624790515924359e-016 0 -1 0 -4.3656249999999996 0 -1.7624790515924359e-016 1 I I #
convexity-sys-attrib $-1 -1 $-1 $78 $53 #
point $-1 -1 $-1 -4.3656249999999996 -2.7781249999999997 0 #
point $-1 -1 $-1 4.3656249999999996 -2.7781249999999997 0 #
face $199 -1 $-1 $200 $201 $19 $-1 $202 reversed single #
loop $-1 -1 $-1 $-1 $203 $83 #
plane-surface $-1 -1 $-1 -4.3656249999999996 0 0 1 0 0 0 0 -1 forward_v I I I I #
coedge $-1 -1 $-1 $204 $140 $205 $206 forward $84 $-1 #
coedge $-1 -1 $-1 $207 $86 $204 $208 forward $55 $-1 #
coedge $-1 -1 $-1 $86 $207 $209 $210 forward $55 $-1 #
coedge $-1 -1 $-1 $143 $142 $86 $136 reversed $144 $-1 #
edge $-1 -1 $-1 $211 -2.7781250000000002 $212 2.7781250000000002 $135 $213 forward @7 unknown #
coedge $-1 -1 $-1 $88 $87 $214 $215 forward $38 $-1 #
coedge $-1 -1 $-1 $216 $217 $87 $139 reversed $201 $-1 #
edge $-1 -1 $-1 $146 -4.3656249999999996 $218 4.3656249999999996 $138 $219 forward @7 unknown #
coedge $-1 -1 $-1 $132 $220 $88 $141 reversed $84 $-1 #
edge $-1 -1 $-1 $221 -4.3656249999999996 $145 4.3656249999999996 $140 $222 forward @7 unknown #
coedge $-1 -1 $-1 $135 $89 $220 $223 forward $144 $-1 #
coedge $-1 -1 $-1 $89 $135 $216 $224 reversed $144 $-1 #
loop $-1 -1 $-1 $-1 $142 $200 #
vertex $-1 -1 $-1 $90 $225 #
vertex $-1 -1 $-1 $90 $226 #
straight-curve $-1 -1 $-1 4.3656249999999996 0 4.3656249999999996 0 1 0 I I #
face $-1 -1 $-1 $227 $228 $21 $-1 $229 forward single #
loop $-1 -1 $-1 $-1 $230 $91 #
coedge $-1 -1 $-1 $231 $232 $230 $233 forward $92 $-1 #
coedge $-1 -1 $-1 $234 $93 $235 $236 reversed $59 $-1 #
coedge $-1 -1 $-1 $93 $234 $95 $159 forward $59 $-1 #
coedge $-1 -1 $-1 $237 $238 $93 $154 forward $239 $-1 #
edge $-1 -1 $-1 $240 -8.2088889032232057e-017 $241 1.5707963267948966 $153 $242 forward @7 unknown #
coedge $-1 -1 $-1 $95 $94 $243 $244 reversed $41 $-1 #
coedge $-1 -1 $-1 $232 $231 $245 $157 reversed $92 $-1 #
edge $-1 -1 $-1 $163 -5.5562500000000004 $246 0 $245 $247 forward @7 unknown #
coedge $-1 -1 $-1 $248 $249 $250 $159 forward $251 $-1 #
edge $-1 -1 $-1 $164 -5.5562500000000004 $241 0 $158 $252 forward @7 unknown #
coedge $-1 -1 $-1 $161 $96 $249 $253 reversed $162 $-1 #
coedge $-1 -1 $-1 $96 $160 $254 $255 forward $162 $-1 #
loop $-1 -1 $-1 $-1 $96 $256 #
vertex $-1 -1 $-1 $257 $258 #
vertex $-1 -1 $-1 $259 $260 #
ellipse-curve $-1 -1 $-1 3.8310457314991089e-032 2.7781250000000002 1.7624790515924354e-016 0 -1 0 -4.3656249999999996 0 3.5836930618133801e-016 1 I I #
coedge $-1 -1 $-1 $166 $166 $101 $167 forward $98 $-1 #
edge $-1 -1 $-1 $261 -3.1415926535897931 $261 3.1415926535897931 $101 $262 forward @7 unknown #
vertex $-1 -1 $-1 $102 $263 #
ellipse-curve $-1 -1 $-1 0 2.7781249999999997 0 0 -1 0 2.7781249999999997 0 0 1 I I #
model_id-kcp-attrib $-1 -1 $-1 $-1 $104 1 1021480397 1021480397 1537933313 7 #
face $264 -1 $-1 $265 $266 $8 $-1 $267 forward single #
loop $-1 -1 $-1 $268 $269 $104 #
plane-surface $-1 -1 $-1 0 2.7781249999999997 0 0 1 0 25.399999999999999 0 0 forward_v I I I I #
coedge $-1 -1 $-1 $270 $271 $272 $273 forward $105 $-1 #
coedge $-1 -1 $-1 $110 $107 $274 $275 forward $68 $-1 #
coedge $-1 -1 $-1 $107 $110 $276 $277 reversed $68 $-1 #
coedge $-1 -1 $-1 $271 $270 $107 $178 reversed $105 $-1 #
edge $-1 -1 $-1 $278 0 $279 3.1415926535897931 $177 $280 forward @7 unknown #
vertex $-1 -1 $-1 $277 $281 #
vertex $-1 -1 $-1 $275 $282 #
ellipse-curve $-1 -1 $-1 0 -1.984375 0 0 -1 0 -4.3656249999999996 0 5.3461721134058155e-016 1 I I #
coedge $-1 -1 $-1 $274 $276 $112 $183 forward $283 $-1 #
edge $-1 -1 $-1 $179 0 $180 3.1415926535897931 $182 $284 forward @7 unknown #
straight-curve $-1 -1 $-1 4.3656249999999996 -1.984375 -1.0692344226811631e-015 0 -25.399999999999999 0 I I #
straight-curve $-1 -1 $-1 -4.3656249999999996 -1.984375 5.3461721134058155e-016 0 -25.399999999999999 0 I I #
coedge $-1 -1 $-1 $285 $115 $118 $193 reversed $188 $-1 #
coedge $-1 -1 $-1 $115 $285 $117 $192 forward $188 $-1 #
loop $-1 -1 $-1 $-1 $186 $286 #
attrib_edge_convexity-kcp-attrib $-1 -1 $287 $-1 $116 1 #
ellipse-curve $-1 -1 $-1 0 -2.7781249999999997 0 0 -1 0 2.7781249999999997 0 0 1 I I #
coedge $-1 -1 $-1 $118 $117 $288 $289 reversed $119 $-1 #
edge $-1 -1 $-1 $290 0 $122 0.21875 $187 $291 forward @7 unknown #
edge $-1 -1 $-1 $292 0 $121 0.21875 $186 $293 forward @7 unknown #
face $294 -1 $-1 $286 $119 $8 $-1 $295 reversed single #
convexity-sys-attrib $-1 -1 $-1 $120 $75 #
point $-1 -1 $-1 -2.7781249999999997 -2.7781249999999997 0 #
point $-1 -1 $-1 2.7781249999999997 -2.7781249999999997 0 #
convexity-sys-attrib $-1 -1 $-1 $124 $77 #
model_id-kcp-attrib $-1 -1 $-1 $-1 $129 1 1021480397 1021480397 1538588674 3 #
face $-1 -1 $-1 $-1 $144 $19 $-1 $296 reversed single #
loop $-1 -1 $-1 $-1 $216 $129 #
plane-surface $-1 -1 $-1 0 2.7781250000000002 0 0 -1 0 0 0 -1 forward_v I I I I #
coedge $-1 -1 $-1 $297 $214 $217 $298 forward $130 $-1 #
coedge $-1 -1 $-1 $220 $132 $133 $208 reversed $84 $-1 #
coedge $-1 -1 $-1 $214 $297 $132 $206 reversed $130 $-1 #
edge $-1 -1 $-1 $221 -4.3656249999999996 $299 4.3656249999999996 $205 $300 forward @7 unknown #
coedge $-1 -1 $-1 $134 $133 $297 $301 forward $55 $-1 #
edge $-1 -1 $-1 $212 -4.3656249999999996 $299 4.3656249999999996 $204 $302 forward @7 unknown #
coedge $-1 -1 $-1 $217 $216 $134 $210 reversed $201 $-1 #
edge $-1 -1 $-1 $303 -4.3656249999999996 $211 4.3656249999999996 $209 $304 forward @7 unknown #
vertex $-1 -1 $-1 $136 $305 #
vertex $-1 -1 $-1 $223 $306 #
straight-curve $-1 -1 $-1 4.3656249999999996 0 -4.3656249999999996 0 -1 0 I I #
coedge $-1 -1 $-1 $203 $205 $137 $215 reversed $130 $-1 #
edge $-1 -1 $-1 $218 -2.7781250000000002 $221 2.7781250000000002 $214 $307 forward @7 unknown #
coedge $-1 -1 $-1 $209 $138 $143 $224 forward $201 $-1 #
coedge $-1 -1 $-1 $138 $209 $203 $298 reversed $201 $-1 #
vertex $-1 -1 $-1 $139 $308 #
straight-curve $-1 -1 $-1 0 2.7781250000000002 4.3656249999999996 -1 0 0 I I #
coedge $-1 -1 $-1 $140 $204 $142 $223 reversed $84 $-1 #
vertex $-1 -1 $-1 $215 $309 #
straight-curve $-1 -1 $-1 0 -2.7781250000000002 4.3656249999999996 1 0 0 I I #
edge $-1 -1 $-1 $145 -4.3656249999999996 $212 4.3656249999999996 $142 $310 forward @7 unknown #
edge $-1 -1 $-1 $146 -4.3656249999999996 $211 4.3656249999999996 $143 $311 forward @7 unknown #
point $-1 -1 $-1 4.3656249999999996 -2.7781250000000002 4.3656249999999996 #
point $-1 -1 $-1 4.3656249999999996 2.7781250000000002 4.3656249999999996 #
face $-1 -1 $-1 $312 $313 $21 $-1 $314 reversed single #
loop $-1 -1 $-1 $-1 $250 $148 #
plane-surface $-1 -1 $-1 0 0 4.3656249999999996 0 0 1 1 0 0 forward_v I I I I #
coedge $-1 -1 $-1 $315 $316 $317 $233 reversed $149 $-1 #
coedge $-1 -1 $-1 $156 $150 $318 $319 reversed $92 $-1 #
coedge $-1 -1 $-1 $150 $156 $320 $321 reversed $92 $-1 #
edge $-1 -1 $-1 $322 -5.5562500000000004 $323 0 $317 $324 forward @7 unknown #
coedge $-1 -1 $-1 $152 $151 $325 $326 reversed $59 $-1 #
coedge $-1 -1 $-1 $327 $328 $329 $236 forward $330 $-1 #
edge $-1 -1 $-1 $331 -5.5562500000000004 $240 0 $235 $332 forward @7 unknown #
coedge $-1 -1 $-1 $238 $153 $333 $334 reversed $239 $-1 #
coedge $-1 -1 $-1 $153 $237 $327 $335 forward $239 $-1 #
loop $-1 -1 $-1 $-1 $153 $336 #
vertex $-1 -1 $-1 $337 $338 #
vertex $-1 -1 $-1 $339 $340 #
ellipse-curve $-1 -1 $-1 3.8310457314991089e-032 -2.7781250000000002 1.7624790515924354e-016 0 1 0 -4.3656249999999996 0 3.5836930618133801e-016 1 I I #
coedge $-1 -1 $-1 $341 $342 $155 $244 forward $343 $-1 #
edge $-1 -1 $-1 $241 1.5707963267948966 $246 3.1415926535897931 $243 $242 forward @7 unknown #
coedge $-1 -1 $-1 $344 $345 $346 $157 forward $313 $-1 #
vertex $-1 -1 $-1 $347 $348 #
straight-curve $-1 -1 $-1 4.3656249999999996 -2.7781250000000002 1.7624790515924354e-016 0 -1 0 I I #
coedge $-1 -1 $-1 $349 $158 $342 $339 forward $251 $-1 #
coedge $-1 -1 $-1 $158 $349 $160 $253 forward $251 $-1 #
coedge $-1 -1 $-1 $350 $333 $152 $159 reversed $228 $-1 #
loop $-1 -1 $-1 $-1 $158 $351 #
straight-curve $-1 -1 $-1 3.8310457314991089e-032 -2.7781250000000002 4.3656249999999996 0 -1 0 I I #
edge $-1 -1 $-1 $352 -4.3656249999999996 $164 -3.8310457314991089e-032 $160 $353 forward @7 unknown #
coedge $-1 -1 $-1 $354 $346 $161 $255 reversed $355 $-1 #
edge $-1 -1 $-1 $352 -4.3656249999999996 $163 -1.7624790515924354e-016 $254 $356 forward @7 unknown #
face $-1 -1 $-1 $357 $162 $21 $-1 $358 reversed single #
edge $-1 -1 $-1 $163 -1.7624790515924354e-016 $359 4.3656249999999996 $345 $356 forward @7 unknown #
point $-1 -1 $-1 4.3656249999999996 2.7781250000000002 1.7624790515924354e-016 #
edge $-1 -1 $-1 $164 -3.8310457314991089e-032 $360 4.3656249999999996 $361 $353 forward @7 unknown #
point $-1 -1 $-1 3.8310457314991089e-032 2.7781250000000002 4.3656249999999996 #
vertex $-1 -1 $-1 $167 $362 #
ellipse-curve $-1 -1 $-1 0 -2.7781249999999997 0 0 -1 0 -2.7781249999999997 0 0 1 I I #
point $-1 -1 $-1 -2.7781249999999997 2.7781249999999997 0 #
model_id-kcp-attrib $-1 -1 $-1 $-1 $171 1 1021480397 1021480397 1537933313 8 #
face $363 -1 $-1 $194 $283 $8 $-1 $364 reversed single #
loop $-1 -1 $-1 $-1 $365 $171 #
cone-surface $-1 -1 $-1 0 -3.0559375000000011 0 0 1 0 4.3656249999999996 0 0 1 I I 0 1 4.3656249999999996 forward I I I I #
loop $-1 -1 $-1 $-1 $288 $104 #
coedge $-1 -1 $-1 $272 $272 $366 $367 forward $172 $-1 #
coedge $-1 -1 $-1 $177 $174 $368 $369 forward $105 $-1 #
coedge $-1 -1 $-1 $174 $177 $370 $371 reversed $105 $-1 #
coedge $-1 -1 $-1 $269 $269 $174 $273 reversed $172 $-1 #
edge $-1 -1 $-1 $372 0 $373 3.1415926535897931 $272 $374 forward @7 unknown #
coedge $-1 -1 $-1 $375 $182 $175 $275 reversed $283 $-1 #
edge $-1 -1 $-1 $279 -4.7635962072449902e-017 $180 0.9549967934229644 $274 $376 forward @7 unknown #
coedge $-1 -1 $-1 $182 $375 $176 $277 forward $283 $-1 #
edge $-1 -1 $-1 $278 9.5271924144899866e-017 $179 0.95499679342296451 $276 $377 forward @7 unknown #
vertex $-1 -1 $-1 $371 $378 #
vertex $-1 -1 $-1 $369 $379 #
ellipse-curve $-1 -1 $-1 0 1.9843749999999991 0 0 -1 0 -4.3656249999999996 0 5.3461721134058155e-016 1 I I #
point $-1 -1 $-1 -4.3656250000000005 -1.9843750000000002 5.3461721134058165e-016 #
point $-1 -1 $-1 4.3656249999999996 -1.984375 -1.0692344226811631e-015 #
loop $-1 -1 $-1 $-1 $182 $265 #
ellipse-curve $-1 -1 $-1 0 -1.984375 0 0 1 0 -4.3656249999999996 0 5.3461721134058155e-016 1 I I #
coedge $-1 -1 $-1 $187 $186 $380 $381 reversed $188 $-1 #
face $382 -1 $-1 $-1 $188 $8 $-1 $383 reversed single #
convexity-sys-attrib $-1 -1 $-1 $189 $116 #
coedge $-1 -1 $-1 $380 $380 $191 $289 forward $268 $-1 #
edge $-1 -1 $-1 $292 0 $290 3.1415926535897931 $288 $384 forward @7 unknown #
vertex $-1 -1 $-1 $381 $385 #
straight-curve $-1 -1 $-1 2.7781249999999997 2.7781249999999997 0 0 -25.399999999999999 0 I I #
vertex $-1 -1 $-1 $381 $386 #
straight-curve $-1 -1 $-1 -2.7781249999999997 2.7781249999999997 3.4021095267127914e-016 0 -25.399999999999999 0 I I #
model_id-kcp-attrib $-1 -1 $-1 $-1 $194 1 1021480397 1021480397 1537933313 10 #
cone-surface $-1 -1 $-1 0 2.7781249999999997 0 0 -1 0 2.7781249999999997 0 0 1 I I 0 1 2.7781249999999997 forward I I I I #
plane-surface $-1 -1 $-1 4.3656249999999996 0 0 -1 0 0 0 0 1 forward_v I I I I #
coedge $-1 -1 $-1 $205 $203 $207 $301 reversed $130 $-1 #
edge $-1 -1 $-1 $218 -4.3656249999999996 $303 4.3656249999999996 $217 $387 forward @7 unknown #
vertex $-1 -1 $-1 $301 $388 #
straight-curve $-1 -1 $-1 -4.3656249999999996 -2.7781250000000002 0 0 0 -1 I I #
edge $-1 -1 $-1 $299 -2.7781250000000002 $303 2.7781250000000002 $297 $389 forward @7 unknown #
straight-curve $-1 -1 $-1 0 -2.7781250000000002 -4.3656249999999996 -1 0 0 I I #
vertex $-1 -1 $-1 $210 $390 #
straight-curve $-1 -1 $-1 0 2.7781250000000002 -4.3656249999999996 1 0 0 I I #
point $-1 -1 $-1 4.3656249999999996 2.7781250000000002 -4.3656249999999996 #
point $-1 -1 $-1 4.3656249999999996 -2.7781250000000002 -4.3656249999999996 #
straight-curve $-1 -1 $-1 -4.3656249999999996 0 4.3656249999999996 0 -1 0 I I #
point $-1 -1 $-1 -4.3656249999999996 2.7781250000000002 4.3656249999999996 #
point $-1 -1 $-1 -4.3656249999999996 -2.7781250000000002 4.3656249999999996 #
straight-curve $-1 -1 $-1 4.3656249999999996 -2.7781250000000002 0 0 0 -1 I I #
straight-curve $-1 -1 $-1 4.3656249999999996 2.7781250000000002 0 0 0 -1 I I #
face $-1 -1 $-1 $391 $392 $21 $-1 $393 reversed single #
loop $-1 -1 $-1 $-1 $245 $227 #
plane-surface $-1 -1 $-1 4.3656249999999996 0 0 -1 0 0 0 0 1 forward_v I I I I #
coedge $-1 -1 $-1 $394 $230 $395 $396 reversed $149 $-1 #
coedge $-1 -1 $-1 $230 $394 $397 $398 reversed $149 $-1 #
coedge $-1 -1 $-1 $399 $400 $401 $233 forward $402 $-1 #
coedge $-1 -1 $-1 $403 $404 $231 $319 forward $405 $-1 #
edge $-1 -1 $-1 $246 -3.1415926535897931 $323 -1.5707963267948968 $318 $242 forward @7 unknown #
coedge $-1 -1 $-1 $406 $407 $232 $321 forward $408 $-1 #
edge $-1 -1 $-1 $322 1.5707963267948968 $163 3.1415926535897931 $320 $165 forward @7 unknown #
vertex $-1 -1 $-1 $409 $410 #
vertex $-1 -1 $-1 $411 $412 #
straight-curve $-1 -1 $-1 3.8310457314991089e-032 -2.7781250000000002 -4.3656249999999996 0 -1 0 I I #
coedge $-1 -1 $-1 $413 $361 $234 $326 forward $414 $-1 #
edge $-1 -1 $-1 $164 -1.5707963267948966 $331 8.2088889032232057e-017 $325 $165 forward @7 unknown #
coedge $-1 -1 $-1 $415 $235 $238 $335 reversed $330 $-1 #
coedge $-1 -1 $-1 $235 $415 $413 $416 forward $330 $-1 #
coedge $-1 -1 $-1 $417 $418 $394 $236 reversed $392 $-1 #
loop $-1 -1 $-1 $-1 $235 $419 #
vertex $-1 -1 $-1 $420 $421 #
straight-curve $-1 -1 $-1 -4.3656249999999996 -2.7781250000000002 1.7624790515924354e-016 0 -1 0 I I #
coedge $-1 -1 $-1 $250 $422 $237 $334 forward $228 $-1 #
edge $-1 -1 $-1 $423 -4.3656249999999996 $241 3.8310457314991089e-032 $237 $424 forward @7 unknown #
edge $-1 -1 $-1 $423 -4.3656249999999996 $240 -1.7624790515924354e-016 $327 $425 forward @7 unknown #
face $-1 -1 $-1 $426 $239 $21 $-1 $427 reversed single #
edge $-1 -1 $-1 $240 -1.7624790515924354e-016 $428 4.3656249999999996 $418 $425 forward @7 unknown #
point $-1 -1 $-1 -4.3656249999999996 -2.7781250000000002 1.7624790515924354e-016 #
edge $-1 -1 $-1 $241 3.8310457314991089e-032 $429 4.3656249999999996 $342 $424 forward @7 unknown #
point $-1 -1 $-1 3.8310457314991089e-032 -2.7781250000000002 4.3656249999999996 #
coedge $-1 -1 $-1 $342 $243 $430 $431 reversed $343 $-1 #
coedge $-1 -1 $-1 $243 $341 $248 $339 reversed $343 $-1 #
loop $-1 -1 $-1 $-1 $243 $426 #
coedge $-1 -1 $-1 $432 $245 $404 $347 forward $313 $-1 #
coedge $-1 -1 $-1 $245 $432 $406 $257 reversed $313 $-1 #
coedge $-1 -1 $-1 $254 $430 $94 $157 reversed $355 $-1 #
edge $-1 -1 $-1 $246 -1.7624790515924354e-016 $433 4.3656249999999996 $344 $434 forward @7 unknown #
point $-1 -1 $-1 4.3656249999999996 -2.7781250000000002 1.7624790515924354e-016 #
coedge $-1 -1 $-1 $249 $248 $354 $435 forward $251 $-1 #
coedge $-1 -1 $-1 $422 $250 $361 $259 forward $228 $-1 #
face $-1 -1 $-1 $436 $251 $21 $-1 $229 forward single #
vertex $-1 -1 $-1 $435 $437 #
straight-curve $-1 -1 $-1 0 2.7781250000000002 4.3656249999999996 -1 0 0 I I #
coedge $-1 -1 $-1 $430 $254 $349 $435 reversed $355 $-1 #
loop $-1 -1 $-1 $-1 $346 $438 #
straight-curve $-1 -1 $-1 4.3656249999999996 2.7781250000000002 0 0 0 -1 I I #
face $-1 -1 $-1 $439 $414 $21 $-1 $358 reversed single #
plane-surface $-1 -1 $-1 0 2.7781250000000002 0 0 -1 0 0 0 -1 forward_v I I I I #
vertex $-1 -1 $-1 $440 $441 #
vertex $-1 -1 $-1 $259 $442 #
coedge $-1 -1 $-1 $325 $413 $350 $259 reversed $414 $-1 #
point $-1 -1 $-1 2.7781249999999997 -2.7781249999999997 0 #
model_id-kcp-attrib $-1 -1 $-1 $-1 $265 1 1021480397 1021480397 1537933313 9 #
torus-surface $-1 -1 $-1 0 0 0 0 1 0 8.2006451902173865 4.3180000000000005 1 0 0 forward_v I I I I #
coedge $-1 -1 $-1 $368 $370 $375 $443 forward $266 $-1 #
coedge $-1 -1 $-1 $370 $368 $269 $367 reversed $266 $-1 #
edge $-1 -1 $-1 $372 0 $373 3.1415926535897931 $269 $444 forward @7 unknown #
coedge $-1 -1 $-1 $366 $365 $270 $369 reversed $266 $-1 #
edge $-1 -1 $-1 $373 0 $279 0.031249999999999972 $368 $445 forward @7 unknown #
coedge $-1 -1 $-1 $365 $366 $271 $371 forward $266 $-1 #
edge $-1 -1 $-1 $372 0 $278 0.03125 $370 $446 forward @7 unknown #
vertex $-1 -1 $-1 $273 $447 #
vertex $-1 -1 $-1 $273 $448 #
ellipse-curve $-1 -1 $-1 -1.7624790515924359e-016 2.7781249999999997 1.7624790515924359e-016 3.2297397080004555e-016 -1 -2.6512574449304289e-032 -4.3656249999999996 -1.4099832412739487e-015 3.5836930618133796e-016 1 I I #
coedge $-1 -1 $-1 $276 $274 $365 $443 reversed $283 $-1 #
ellipse-curve $-1 -1 $-1 8.2006451902173847 2.6437185773886536e-016 -2.0085124410766259e-015 2.4492127076447555e-016 0 1 -3.8350201902173855 1.9843749999999989 9.3927801839546275e-016 1 I I #
ellipse-curve $-1 -1 $-1 -8.2006451902173847 2.6437185773886536e-016 1.0042562205383129e-015 -1.2246063538223778e-016 0 -1 3.8350201902173855 1.9843749999999989 -4.6963900919773137e-016 1 I I #
point $-1 -1 $-1 -4.3656249999999996 1.9843749999999984 5.3461721134058155e-016 #
point $-1 -1 $-1 4.3656249999999996 1.9843749999999991 -1.0692344226811631e-015 #
coedge $-1 -1 $-1 $288 $288 $285 $381 forward $268 $-1 #
edge $-1 -1 $-1 $290 0 $292 3.1415926535897931 $380 $449 forward @7 unknown #
model_id-kcp-attrib $-1 -1 $-1 $-1 $286 1 1021480397 1021480397 1537933313 11 #
cone-surface $-1 -1 $-1 0 2.7781249999999997 0 0 -1 0 2.7781249999999997 0 0 1 I I 0 1 2.7781249999999997 forward I I I I #
ellipse-curve $-1 -1 $-1 0 2.7781249999999997 0 0 -1 0 -2.7781249999999997 0 0 1 I I #
point $-1 -1 $-1 2.7781249999999997 2.7781249999999997 0 #
point $-1 -1 $-1 -2.7781249999999997 2.7781249999999997 0 #
straight-curve $-1 -1 $-1 -4.3656249999999996 2.7781250000000002 0 0 0 -1 I I #
point $-1 -1 $-1 -4.3656249999999996 -2.7781250000000002 -4.3656249999999996 #
straight-curve $-1 -1 $-1 -4.3656249999999996 0 -4.3656249999999996 0 1 0 I I #
point $-1 -1 $-1 -4.3656249999999996 2.7781250000000002 -4.3656249999999996 #
face $-1 -1 $-1 $336 $450 $21 $-1 $427 reversed single #
loop $-1 -1 $-1 $-1 $329 $312 #
plane-surface $-1 -1 $-1 -4.3656249999999996 0 0 1 0 0 0 0 -1 forward_v I I I I #
coedge $-1 -1 $-1 $316 $315 $151 $236 forward $149 $-1 #
coedge $-1 -1 $-1 $451 $452 $315 $396 forward $453 $-1 #
edge $-1 -1 $-1 $331 8.2088889032232057e-017 $322 1.5707963267948968 $395 $165 forward @7 unknown #
coedge $-1 -1 $-1 $454 $455 $316 $398 forward $450 $-1 #
edge $-1 -1 $-1 $323 -1.5707963267948968 $240 -8.2088889032232057e-017 $397 $242 forward @7 unknown #
coedge $-1 -1 $-1 $456 $317 $455 $411 forward $402 $-1 #
coedge $-1 -1 $-1 $317 $456 $451 $457 forward $402 $-1 #
coedge $-1 -1 $-1 $458 $459 $150 $233 reversed $460 $-1 #
loop $-1 -1 $-1 $-1 $317 $436 #
coedge $-1 -1 $-1 $404 $318 $459 $461 reversed $405 $-1 #
coedge $-1 -1 $-1 $318 $403 $344 $347 reversed $405 $-1 #
loop $-1 -1 $-1 $-1 $318 $462 #
coedge $-1 -1 $-1 $407 $320 $345 $257 forward $408 $-1 #
coedge $-1 -1 $-1 $320 $406 $458 $409 reversed $408 $-1 #
loop $-1 -1 $-1 $-1 $320 $463 #
edge $-1 -1 $-1 $322 3.8310457314991089e-032 $359 4.3656249999999996 $407 $464 forward @7 unknown #
point $-1 -1 $-1 3.8310457314991089e-032 2.7781250000000002 -4.3656249999999996 #
edge $-1 -1 $-1 $323 -3.8310457314991089e-032 $428 4.3656249999999996 $455 $465 forward @7 unknown #
point $-1 -1 $-1 3.8310457314991089e-032 -2.7781250000000002 -4.3656249999999996 #
coedge $-1 -1 $-1 $361 $325 $328 $416 reversed $414 $-1 #
loop $-1 -1 $-1 $-1 $325 $357 #
coedge $-1 -1 $-1 $328 $327 $422 $466 reversed $330 $-1 #
edge $-1 -1 $-1 $360 -4.3656249999999996 $331 -1.7624790515924354e-016 $413 $467 forward @7 unknown #
coedge $-1 -1 $-1 $468 $329 $452 $420 forward $392 $-1 #
coedge $-1 -1 $-1 $329 $468 $454 $337 reversed $392 $-1 #
face $-1 -1 $-1 $438 $330 $21 $-1 $393 reversed single #
edge $-1 -1 $-1 $331 -1.7624790515924354e-016 $469 4.3656249999999996 $452 $467 forward @7 unknown #
point $-1 -1 $-1 -4.3656249999999996 2.7781250000000002 1.7624790515924354e-016 #
coedge $-1 -1 $-1 $333 $350 $415 $466 forward $228 $-1 #
vertex $-1 -1 $-1 $466 $470 #
straight-curve $-1 -1 $-1 0 -2.7781250000000002 4.3656249999999996 1 0 0 I I #
straight-curve $-1 -1 $-1 -4.3656249999999996 -2.7781250000000002 0 0 0 -1 I I #
face $-1 -1 $-1 $462 $343 $21 $-1 $427 reversed single #
plane-surface $-1 -1 $-1 0 -2.7781250000000002 0 0 1 0 0 0 1 forward_v I I I I #
vertex $-1 -1 $-1 $471 $472 #
vertex $-1 -1 $-1 $435 $473 #
coedge $-1 -1 $-1 $346 $354 $341 $431 forward $355 $-1 #
edge $-1 -1 $-1 $429 -4.3656249999999996 $246 -1.7624790515924354e-016 $430 $434 forward @7 unknown #
coedge $-1 -1 $-1 $345 $344 $474 $440 reversed $313 $-1 #
vertex $-1 -1 $-1 $347 $475 #
straight-curve $-1 -1 $-1 4.3656249999999996 -2.7781250000000002 0 0 0 -1 I I #
edge $-1 -1 $-1 $429 -2.7781250000000002 $352 2.7781250000000002 $354 $476 forward @7 unknown #
face $-1 -1 $-1 $419 $402 $21 $-1 $477 reversed single #
point $-1 -1 $-1 4.3656249999999996 2.7781250000000002 4.3656249999999996 #
face $-1 -1 $-1 $-1 $355 $21 $-1 $314 reversed single #
face $-1 -1 $-1 $478 $453 $21 $-1 $358 reversed single #
edge $-1 -1 $-1 $359 -2.7781250000000002 $433 2.7781250000000002 $432 $479 forward @7 unknown #
point $-1 -1 $-1 4.3656249999999996 2.7781250000000002 -4.3656249999999996 #
point $-1 -1 $-1 -4.3656249999999996 2.7781250000000002 4.3656249999999996 #
edge $-1 -1 $-1 $278 0 $279 3.1415926535897931 $365 $480 forward @7 unknown #
ellipse-curve $-1 -1 $-1 -3.5249581031848718e-016 2.7781249999999997 -1.7624790515924359e-016 -3.2297397080004555e-016 1 5.2590620902891457e-032 -4.3656249999999996 -1.4099832412739487e-015 7.1086511649982509e-016 1 I I #
straight-curve $-1 -1 $-1 4.3656249999999996 2.7781249999999984 -1.0692344226811631e-015 0 -25.399999999999999 0 I I #
straight-curve $-1 -1 $-1 -4.3656249999999996 2.7781249999999984 5.3461721134058155e-016 0 -25.399999999999999 0 I I #
point $-1 -1 $-1 -4.3656249999999996 2.7781249999999984 5.3461721134058155e-016 #
point $-1 -1 $-1 4.3656249999999996 2.7781249999999984 -1.0692344226811631e-015 #
ellipse-curve $-1 -1 $-1 0 2.7781249999999997 0 0 -1 0 2.7781249999999997 0 0 1 I I #
loop $-1 -1 $-1 $-1 $397 $391 #
coedge $-1 -1 $-1 $452 $395 $400 $457 reversed $453 $-1 #
coedge $-1 -1 $-1 $395 $451 $417 $420 reversed $453 $-1 #
loop $-1 -1 $-1 $-1 $395 $439 #
coedge $-1 -1 $-1 $455 $397 $418 $337 forward $450 $-1 #
coedge $-1 -1 $-1 $397 $454 $399 $411 reversed $450 $-1 #
coedge $-1 -1 $-1 $400 $399 $468 $471 forward $402 $-1 #
edge $-1 -1 $-1 $469 -4.3656249999999996 $322 3.8310457314991089e-032 $451 $464 forward @7 unknown #
coedge $-1 -1 $-1 $474 $401 $407 $409 forward $460 $-1 #
coedge $-1 -1 $-1 $401 $474 $403 $461 forward $460 $-1 #
loop $-1 -1 $-1 $-1 $401 $478 #
edge $-1 -1 $-1 $433 -4.3656249999999996 $323 -3.8310457314991089e-032 $403 $465 forward @7 unknown #
face $-1 -1 $-1 $463 $405 $21 $-1 $427 reversed single #
face $-1 -1 $-1 $256 $408 $21 $-1 $358 reversed single #
straight-curve $-1 -1 $-1 0 2.7781250000000002 -4.3656249999999996 1 0 0 I I #
straight-curve $-1 -1 $-1 0 -2.7781250000000002 -4.3656249999999996 -1 0 0 I I #
edge $-1 -1 $-1 $360 -2.7781250000000002 $423 2.7781250000000002 $415 $481 forward @7 unknown #
straight-curve $-1 -1 $-1 -4.3656249999999996 2.7781250000000002 0 0 0 -1 I I #
coedge $-1 -1 $-1 $418 $417 $456 $471 reversed $392 $-1 #
vertex $-1 -1 $-1 $457 $482 #
point $-1 -1 $-1 -4.3656249999999996 -2.7781250000000002 4.3656249999999996 #
edge $-1 -1 $-1 $428 -2.7781250000000002 $469 2.7781250000000002 $468 $483 forward @7 unknown #
point $-1 -1 $-1 -4.3656249999999996 -2.7781250000000002 -4.3656249999999996 #
point $-1 -1 $-1 4.3656249999999996 -2.7781250000000002 4.3656249999999996 #
coedge $-1 -1 $-1 $459 $458 $432 $440 forward $460 $-1 #
point $-1 -1 $-1 4.3656249999999996 -2.7781250000000002 -4.3656249999999996 #
straight-curve $-1 -1 $-1 4.3656249999999996 0 4.3656249999999996 0 1 0 I I #
plane-surface $-1 -1 $-1 0 0 -4.3656249999999996 0 0 1 1 0 0 forward_v I I I I #
face $-1 -1 $-1 $351 $460 $21 $-1 $477 reversed single #
straight-curve $-1 -1 $-1 4.3656249999999996 0 -4.3656249999999996 0 -1 0 I I #
ellipse-curve $-1 -1 $-1 0 1.9843749999999991 0 0 1 0 -4.3656249999999996 0 5.3461721134058155e-016 1 I I #
straight-curve $-1 -1 $-1 -4.3656249999999996 0 4.3656249999999996 0 -1 0 I I #
point $-1 -1 $-1 -4.3656249999999996 2.7781250000000002 -4.3656249999999996 #
straight-curve $-1 -1 $-1 -4.3656249999999996 0 -4.3656249999999996 0 1 0 I I #
End-of-ACIS-data 