600 0 1 0           
99 GICL Pro/E ACIS Translator - Source: f:/data5/repository/PTC/V18/reel18/areel/line_roller.prt - 6 0 13 ACIS 6.0.3 NT 24 Thu Apr 04 13:30:44 2002 
1 9.9999999999999995e-007 1e-010 
body $-1 $1 $-1 $2 #
lump $-1 $-1 $3 $0 #
transform $-1 1 0 0 0 1 0 0 0 1 0 0 0 25.399999999999999 no_rotate no_reflect no_shear #
shell $-1 $-1 $-1 $4 $-1 $1 #
face $-1 $5 $6 $3 $-1 $7 reversed single #
face $-1 $8 $9 $3 $-1 $10 forward single #
loop $-1 $11 $12 $4 #
plane-surface $-1 0 -0.109375 0 0 1 0 1 0 0 forward_v I I I I #
face $-1 $13 $14 $3 $-1 $15 forward single #
loop $-1 $-1 $16 $5 #
cone-surface $-1 0 -0.12031250000000004 0 0 1 0 0.171875 0 0 1 I I 0 1 0.171875 forward I I I I #
loop $-1 $-1 $17 $4 #
coedge $-1 $18 $18 $16 $19 reversed $6 $-1 #
face $-1 $20 $21 $3 $-1 $22 reversed single #
loop $-1 $-1 $23 $8 #
cone-surface $-1 0 -0.12031250000000004 0 0 1 0 0.171875 0 0 1 I I 0 1 0.171875 forward I I I I #
coedge $-1 $24 $25 $12 $19 forward $9 $-1 #
coedge $-1 $26 $26 $27 $28 reversed $11 $-1 #
coedge $-1 $12 $12 $29 $30 forward $6 $-1 #
edge $-1 $31 0 $32 3.1415926535897931 $12 $33 forward 7 unknown #
face $-1 $34 $35 $3 $-1 $36 forward single #
loop $-1 $-1 $37 $13 #
torus-surface $-1 0 0 0 0 1 0 0.32286004685895225 0.17000000000000001 1 0 0 forward_v I I I I #
coedge $-1 $38 $39 $40 $41 forward $14 $-1 #
coedge $-1 $42 $16 $38 $43 reversed $9 $-1 #
coedge $-1 $16 $42 $39 $44 forward $9 $-1 #
coedge $-1 $17 $17 $45 $46 reversed $11 $-1 #
coedge $-1 $47 $48 $17 $28 forward $49 $-1 #
edge $-1 $50 0 $51 3.1415926535897931 $17 $52 forward 7 unknown #
coedge $-1 $39 $38 $18 $30 reversed $14 $-1 #
edge $-1 $31 0 $32 3.1415926535897931 $18 $53 forward 7 unknown #
vertex $-1 $30 $54 #
vertex $-1 $30 $55 #
ellipse-curve $-1 -6.9388939039072284e-018 -0.109375 -6.9388939039072284e-018 0 1 0 -0.171875 0 6.9388939039072284e-018 1 I I #
face $-1 $56 $57 $3 $-1 $58 forward single #
loop $-1 $-1 $59 $20 #
cone-surface $-1 0 -0.12031250000000004 0 0 1 0 0.171875 0 0 1 I I 0 1 0.171875 forward I I I I #
coedge $-1 $60 $61 $62 $63 forward $21 $-1 #
coedge $-1 $29 $23 $24 $43 forward $14 $-1 #
coedge $-1 $23 $29 $25 $44 reversed $14 $-1 #
coedge $-1 $61 $60 $23 $41 reversed $21 $-1 #
edge $-1 $64 0 $65 3.1415926535897931 $40 $66 forward 7 unknown #
coedge $-1 $25 $24 $67 $68 reversed $9 $-1 #
edge $-1 $65 0 $32 0.03125 $24 $69 forward 7 unknown #
edge $-1 $64 1.3877787807814457e-017 $31 0.03125 $25 $70 forward 7 unknown #
coedge $-1 $71 $72 $26 $46 forward $73 $-1 #
edge $-1 $51 0 $50 3.1415926535897931 $26 $74 forward 7 unknown #
coedge $-1 $75 $27 $72 $76 reversed $49 $-1 #
coedge $-1 $27 $75 $71 $77 forward $49 $-1 #
loop $-1 $-1 $47 $78 #
vertex $-1 $46 $79 #
vertex $-1 $46 $80 #
ellipse-curve $-1 0 -0.109375 0 0 -1 0 -0.109375 0 0 1 I I #
ellipse-curve $-1 -6.9388939039072284e-018 -0.109375 6.9388939039072284e-018 0 -1 0 -0.171875 0 -6.9388939039072284e-018 1 I I #
point $-1 -0.171875 -0.109375 0 #
point $-1 0.171875 -0.109375 0 #
face $-1 $81 $82 $3 $-1 $83 forward single #
loop $-1 $84 $85 $34 #
plane-surface $-1 0 0.109375 0 0 1 0 1 0 0 forward_v I I I I #
coedge $-1 $86 $87 $88 $89 forward $35 $-1 #
coedge $-1 $40 $37 $90 $91 forward $21 $-1 #
coedge $-1 $37 $40 $92 $93 reversed $21 $-1 #
coedge $-1 $87 $86 $37 $63 reversed $35 $-1 #
edge $-1 $94 0 $95 3.1415926535897931 $62 $96 forward 7 unknown #
vertex $-1 $93 $97 #
vertex $-1 $91 $98 #
ellipse-curve $-1 0 -0.078125 0 0 -1 0 -0.171875 0 2.1047921706322109e-017 1 I I #
coedge $-1 $90 $92 $42 $68 forward $99 $-1 #
edge $-1 $64 0 $65 3.1415926535897931 $67 $100 forward 7 unknown #
straight-curve $-1 0.171875 -0.078125 -4.2095843412644218e-017 0 -1 0 I I #
straight-curve $-1 -0.171875 -0.078125 2.1047921706322109e-017 0 -1 0 I I #
coedge $-1 $101 $45 $48 $77 reversed $73 $-1 #
coedge $-1 $45 $101 $47 $76 forward $73 $-1 #
loop $-1 $-1 $71 $102 #
ellipse-curve $-1 0 -0.109375 0 0 -1 0 0.109375 0 0 1 I I #
coedge $-1 $48 $47 $103 $104 reversed $49 $-1 #
edge $-1 $105 0 $51 0.21875 $72 $106 forward 7 unknown #
edge $-1 $107 0 $50 0.21875 $71 $108 forward 7 unknown #
face $-1 $102 $49 $3 $-1 $109 reversed single #
point $-1 -0.109375 -0.109375 0 #
point $-1 0.109375 -0.109375 0 #
face $-1 $78 $99 $3 $-1 $110 reversed single #
loop $-1 $-1 $111 $56 #
cone-surface $-1 0 -0.12031250000000004 0 0 1 0 0.171875 0 0 1 I I 0 1 0.171875 forward I I I I #
loop $-1 $-1 $103 $34 #
coedge $-1 $88 $88 $112 $113 forward $57 $-1 #
coedge $-1 $62 $59 $114 $115 forward $35 $-1 #
coedge $-1 $59 $62 $116 $117 reversed $35 $-1 #
coedge $-1 $85 $85 $59 $89 reversed $57 $-1 #
edge $-1 $118 0 $119 3.1415926535897931 $88 $120 forward 7 unknown #
coedge $-1 $121 $67 $60 $91 reversed $99 $-1 #
edge $-1 $95 0 $65 0.95499679342296429 $90 $122 forward 7 unknown #
coedge $-1 $67 $121 $61 $93 forward $99 $-1 #
edge $-1 $94 1.2005006754164763e-016 $64 0.9549967934229644 $92 $123 forward 7 unknown #
vertex $-1 $117 $124 #
vertex $-1 $115 $125 #
ellipse-curve $-1 0 0.078124999999999972 0 0 -1 0 -0.171875 0 2.1047921706322109e-017 1 I I #
point $-1 -0.17187500000000003 -0.078125000000000014 2.1047921706322112e-017 #
point $-1 0.171875 -0.078125 -4.2095843412644218e-017 #
loop $-1 $-1 $67 $81 #
ellipse-curve $-1 0 -0.078125 0 0 1 0 -0.171875 0 2.1047921706322109e-017 1 I I #
coedge $-1 $72 $71 $126 $127 reversed $73 $-1 #
face $-1 $-1 $73 $3 $-1 $128 reversed single #
coedge $-1 $126 $126 $75 $104 forward $84 $-1 #
edge $-1 $107 0 $105 3.1415926535897931 $103 $129 forward 7 unknown #
vertex $-1 $127 $130 #
straight-curve $-1 0.109375 0.109375 0 0 -1 0 I I #
vertex $-1 $127 $131 #
straight-curve $-1 -0.109375 0.109375 1.3394131994932251e-017 0 -1 0 I I #
cone-surface $-1 0 0.109375 0 0 -1 0 0.109375 0 0 1 I I 0 1 0.109375 forward I I I I #
torus-surface $-1 0 0 0 0 1 0 0.32286004685895225 0.17000000000000001 1 0 0 forward_v I I I I #
coedge $-1 $114 $116 $121 $132 forward $82 $-1 #
coedge $-1 $116 $114 $85 $113 reversed $82 $-1 #
edge $-1 $118 0 $119 3.1415926535897931 $85 $133 forward 7 unknown #
coedge $-1 $112 $111 $86 $115 reversed $82 $-1 #
edge $-1 $119 0 $95 0.031249999999999972 $114 $134 forward 7 unknown #
coedge $-1 $111 $112 $87 $117 forward $82 $-1 #
edge $-1 $118 0 $94 0.03125 $116 $135 forward 7 unknown #
vertex $-1 $89 $136 #
vertex $-1 $89 $137 #
ellipse-curve $-1 -6.9388939039072284e-018 0.109375 6.9388939039072284e-018 3.2297397080004555e-016 -1 -2.6512574449304289e-032 -0.171875 -5.5511151231257827e-017 1.4109027802414881e-017 1 I I #
coedge $-1 $92 $90 $111 $132 reversed $99 $-1 #
ellipse-curve $-1 0.3228600468589522 1.0408340855860843e-017 -7.9075292955772676e-017 2.4492127076447555e-016 0 1 -0.1509850468589522 0.078124999999999958 3.6979449543128457e-017 1 I I #
ellipse-curve $-1 -0.3228600468589522 1.0408340855860843e-017 3.9537646477886338e-017 -1.2246063538223778e-016 0 -1 0.1509850468589522 0.078124999999999958 -1.8489724771564229e-017 1 I I #
point $-1 -0.171875 0.078124999999999944 2.1047921706322109e-017 #
point $-1 0.171875 0.078124999999999972 -4.2095843412644218e-017 #
coedge $-1 $103 $103 $101 $127 forward $84 $-1 #
edge $-1 $105 0 $107 3.1415926535897931 $126 $138 forward 7 unknown #
cone-surface $-1 0 0.109375 0 0 -1 0 0.109375 0 0 1 I I 0 1 0.109375 forward I I I I #
ellipse-curve $-1 0 0.109375 0 0 -1 0 -0.109375 0 0 1 I I #
point $-1 0.109375 0.109375 0 #
point $-1 -0.109375 0.109375 0 #
edge $-1 $94 0 $95 3.1415926535897931 $111 $139 forward 7 unknown #
ellipse-curve $-1 -1.3877787807814457e-017 0.109375 -6.9388939039072284e-018 -3.2297397080004555e-016 1 5.2590620902891457e-032 -0.171875 -5.5511151231257827e-017 2.7986815610229338e-017 1 I I #
straight-curve $-1 0.171875 0.10937499999999994 -4.2095843412644218e-017 0 -1 0 I I #
straight-curve $-1 -0.171875 0.10937499999999994 2.1047921706322109e-017 0 -1 0 I I #
point $-1 -0.171875 0.10937499999999994 2.1047921706322109e-017 #
point $-1 0.171875 0.10937499999999994 -4.2095843412644218e-017 #
ellipse-curve $-1 0 0.109375 0 0 -1 0 0.109375 0 0 1 I I #
ellipse-curve $-1 0 0.078124999999999972 0 0 1 0 -0.171875 0 2.1047921706322109e-017 1 I I #
End-of-ACIS-data 