700 0 2 0           
24 FBMach with ACIS - 7.0.3 13 ACIS 7.0.3 NT 24 Wed May 15 12:33:19 2002 
1 9.9999999999999995e-007 1e-010 
body $2 -1 $-1 $3 $-1 $4 #
bdycol-kcp $-1 -1 1 3 $5 $6 $7 #
model_id-kcp-attrib $-1 -1 $-1 $-1 $0 1 1021480399 1021480399 1015152641 1 #
lump $-1 -1 $-1 $-1 $8 $0 #
transform $-1 -1 1 0 0 0 1 0 0 0 1 0 0 0 1 rotate no_reflect no_shear #
body $9 -1 $-1 $10 $-1 $11 #
body $12 -1 $-1 $13 $-1 $14 #
body $15 -1 $-1 $16 $-1 $17 #
shell $-1 -1 $-1 $-1 $-1 $18 $-1 $3 #
rgb_color-st-attrib $-1 -1 $19 $-1 $5 0 0 1 #
lump $-1 -1 $-1 $-1 $20 $5 #
transform $-1 -1 1 0 0 0 1 0 0 0 1 0 -0.79374999999999851 0 1 no_rotate no_reflect no_shear #
model_id-kcp-attrib $-1 -1 $-1 $-1 $6 1 1021480399 1021480399 1015152642 1 #
lump $-1 -1 $-1 $-1 $21 $6 #
transform $-1 -1 1 0 0 0 1 0 0 0 1 0 -0.79374999999999851 0 1 no_rotate no_reflect no_shear #
rgb_color-st-attrib $-1 -1 $22 $-1 $7 0.5 1 1 #
lump $-1 -1 $-1 $-1 $23 $7 #
transform $-1 -1 1 0 0 0 1 0 0 0 1 0 0 0 1 no_rotate no_reflect no_shear #
face $24 -1 $-1 $25 $26 $8 $-1 $27 forward single #
model_id-kcp-attrib $-1 -1 $-1 $9 $5 1 1021480399 1021480399 1010827268 1 #
shell $-1 -1 $-1 $-1 $-1 $28 $-1 $10 #
shell $-1 -1 $-1 $-1 $-1 $29 $-1 $13 #
model_id-kcp-attrib $-1 -1 $-1 $15 $7 1 1021480399 1021480399 1021050883 1 #
shell $-1 -1 $-1 $-1 $-1 $30 $-1 $16 #
model_id-kcp-attrib $-1 -1 $-1 $-1 $18 1 1021480399 1021480399 1015152641 2 #
face $31 -1 $-1 $32 $33 $8 $-1 $34 forward single #
loop $-1 -1 $-1 $35 $36 $18 #
plane-surface $-1 -1 $-1 0 0 0 0 1 0 25.399999999999999 0 0 forward_v I I I I #
face $-1 -1 $-1 $37 $38 $20 $-1 $39 forward single #
face $-1 -1 $-1 $40 $41 $21 $-1 $42 forward single #
face $-1 -1 $-1 $43 $44 $23 $-1 $45 forward single #
model_id-kcp-attrib $-1 -1 $-1 $-1 $25 1 1021480399 1021480399 1015152641 3 #
face $46 -1 $-1 $47 $48 $8 $-1 $49 reversed single #
loop $-1 -1 $-1 $-1 $50 $25 #
cone-surface $-1 -1 $-1 0 16.509999999999998 0 0 -1 0 15.875 0 0 1 I I -0.52999894000318004 0.84799830400508802 15.875 forward I I I I #
loop $-1 -1 $-1 $-1 $51 $18 #
coedge $-1 -1 $-1 $52 $52 $53 $54 forward $26 $-1 #
face $-1 -1 $-1 $55 $56 $20 $-1 $57 reversed single #
loop $-1 -1 $-1 $58 $59 $28 #
cone-surface $-1 -1 $-1 0 -1.7763568394002505e-015 0 0 -1 0 4.5640624999999995 0 0 1 I I 0 1 4.5640624999999995 forward I I I I #
face $-1 -1 $-1 $60 $61 $21 $-1 $62 reversed single #
loop $-1 -1 $-1 $-1 $63 $29 #
plane-surface $-1 -1 $-1 0 0 5.5562500000000021 0 0 1 1 0 0 forward_v I I I I #
face $-1 -1 $-1 $64 $65 $23 $-1 $66 reversed single #
loop $-1 -1 $-1 $67 $68 $30 #
cone-surface $-1 -1 $-1 0 0 0 0 -1 0 -2.1828124999999998 0 0 1 I I 0 1 2.1828124999999998 forward I I I I #
model_id-kcp-attrib $-1 -1 $-1 $-1 $32 1 1021480399 1021480399 1015152641 4 #
face $69 -1 $-1 $70 $71 $8 $-1 $72 reversed single #
loop $-1 -1 $-1 $-1 $73 $32 #
cone-surface $-1 -1 $-1 0 -1.666875000000001 0 0 1 0 4.5640624999999995 0 0 1 I I 0 1 4.5640624999999995 forward I I I I #
coedge $-1 -1 $-1 $74 $75 $76 $77 forward $33 $-1 #
coedge $-1 -1 $-1 $78 $78 $79 $80 forward $35 $-1 #
coedge $-1 -1 $-1 $36 $36 $81 $82 reversed $26 $-1 #
coedge $-1 -1 $-1 $75 $74 $36 $54 reversed $33 $-1 #
edge $83 -1 $-1 $84 5.1105409507422694e-032 $85 3.141592653589794 $36 $86 forward @7 unknown #
face $-1 -1 $-1 $-1 $87 $20 $-1 $88 forward single #
loop $-1 -1 $-1 $-1 $89 $37 #
plane-surface $-1 -1 $-1 8.0743492700011387e-017 -0.79374999999999885 0 0 1 0 0 0 1 forward_v I I I I #
loop $-1 -1 $-1 $-1 $90 $28 #
coedge $-1 -1 $-1 $59 $59 $89 $91 forward $38 $-1 #
face $-1 -1 $-1 $92 $93 $21 $-1 $94 reversed single #
loop $-1 -1 $-1 $-1 $95 $40 #
plane-surface $-1 -1 $-1 0 0 -5.5562500000000021 0 0 1 1 0 0 forward_v I I I I #
coedge $-1 -1 $-1 $96 $97 $98 $99 forward $41 $-1 #
face $-1 -1 $-1 $-1 $100 $23 $-1 $101 forward single #
loop $-1 -1 $-1 $-1 $102 $43 #
plane-surface $-1 -1 $-1 0 -0.79374999999999996 0 0 1 0 0 0 1 forward_v I I I I #
loop $-1 -1 $-1 $-1 $103 $30 #
coedge $-1 -1 $-1 $68 $68 $102 $104 forward $44 $-1 #
model_id-kcp-attrib $-1 -1 $-1 $-1 $47 1 1021480399 1021480399 1015152641 5 #
face $105 -1 $-1 $106 $107 $8 $-1 $108 reversed single #
loop $-1 -1 $-1 $109 $110 $47 #
plane-surface $-1 -1 $-1 0 -0.79374999999999996 0 0 1 0 25.399999999999999 0 0 forward_v I I I I #
coedge $-1 -1 $-1 $111 $112 $110 $113 forward $48 $-1 #
coedge $-1 -1 $-1 $53 $50 $114 $115 reversed $33 $-1 #
coedge $-1 -1 $-1 $50 $53 $116 $117 forward $33 $-1 #
coedge $-1 -1 $-1 $112 $111 $50 $77 reversed $48 $-1 #
edge $-1 -1 $-1 $118 2.840262834628029e-032 $119 3.1415926535897931 $50 $120 forward @7 unknown #
coedge $-1 -1 $-1 $51 $51 $121 $122 forward $35 $-1 #
coedge $-1 -1 $-1 $123 $124 $51 $80 reversed $125 $-1 #
edge $126 -1 $-1 $127 0 $128 3.1415926535897931 $51 $129 forward @7 unknown #
coedge $-1 -1 $-1 $114 $116 $52 $82 forward $130 $-1 #
edge $131 -1 $-1 $84 0 $85 3.1415926535897936 $52 $132 forward @7 unknown #
attrib_edge_convexity-kcp-attrib $-1 -1 $133 $-1 $54 1 #
vertex $-1 -1 $-1 $82 $134 #
vertex $-1 -1 $-1 $82 $135 #
ellipse-curve $-1 -1 $-1 0 0 2.9962143877071409e-015 5.0753052554292868e-016 1 2.115339258713809e-031 -5.5562499999999995 2.8199664825478975e-015 -2.3157924823645826e-015 1 I I #
loop $-1 -1 $-1 $-1 $136 $55 #
plane-surface $-1 -1 $-1 8.0743492700011387e-017 -1.7763568394002505e-015 0 0 1 0 0 0 1 forward_v I I I I #
coedge $-1 -1 $-1 $89 $89 $59 $91 reversed $56 $-1 #
coedge $-1 -1 $-1 $90 $90 $136 $137 reversed $58 $-1 #
edge $-1 -1 $-1 $138 -3.1415926535897931 $138 3.1415926535897931 $59 $139 forward @7 unknown #
face $-1 -1 $-1 $140 $141 $21 $-1 $142 reversed single #
loop $-1 -1 $-1 $-1 $143 $60 #
plane-surface $-1 -1 $-1 0 -0.7937500000000014 0 0 1 0 0 0 1 forward_v I I I I #
coedge $-1 -1 $-1 $144 $145 $146 $147 forward $61 $-1 #
coedge $-1 -1 $-1 $148 $63 $149 $150 forward $41 $-1 #
coedge $-1 -1 $-1 $63 $148 $151 $152 forward $41 $-1 #
coedge $-1 -1 $-1 $153 $154 $63 $99 reversed $155 $-1 #
edge $-1 -1 $-1 $156 -0.7937500000000014 $157 0.7937500000000014 $98 $158 forward @7 unknown #
loop $-1 -1 $-1 $-1 $159 $64 #
plane-surface $-1 -1 $-1 0 0 0 0 1 0 0 0 1 forward_v I I I I #
coedge $-1 -1 $-1 $102 $102 $68 $104 reversed $65 $-1 #
coedge $-1 -1 $-1 $103 $103 $159 $160 forward $67 $-1 #
edge $-1 -1 $-1 $161 0 $161 6.2831853071795862 $68 $162 forward @7 unknown #
model_id-kcp-attrib $-1 -1 $-1 $-1 $70 1 1021480399 1021480399 1015152641 6 #
face $163 -1 $-1 $164 $130 $8 $-1 $165 forward single #
loop $-1 -1 $-1 $-1 $166 $70 #
cone-surface $-1 -1 $-1 0 -1.666875000000001 0 0 1 0 4.5640624999999995 0 0 1 I I 0 1 4.5640624999999995 forward I I I I #
loop $-1 -1 $-1 $-1 $167 $47 #
coedge $-1 -1 $-1 $168 $168 $73 $113 reversed $71 $-1 #
coedge $-1 -1 $-1 $76 $73 $169 $170 reversed $48 $-1 #
coedge $-1 -1 $-1 $73 $76 $171 $172 forward $48 $-1 #
edge $173 -1 $-1 $174 1.2246063538223773e-016 $175 3.1415926535897931 $73 $176 forward @7 unknown #
coedge $-1 -1 $-1 $177 $81 $74 $115 forward $130 $-1 #
edge $-1 -1 $-1 $85 0 $119 0.073702977594192309 $74 $178 forward @7 unknown #
coedge $-1 -1 $-1 $81 $177 $75 $117 reversed $130 $-1 #
edge $-1 -1 $-1 $84 0 $118 0.073702977594192226 $75 $179 forward @7 unknown #
vertex $-1 -1 $-1 $117 $180 #
vertex $-1 -1 $-1 $115 $181 #
ellipse-curve $-1 -1 $-1 0 -1.5874999999999999 1.7624790515924359e-016 0 1 0 -4.5640624999999995 0 3.8267008851500075e-016 1 I I #
coedge $-1 -1 $-1 $182 $183 $78 $122 reversed $184 $-1 #
edge $185 -1 $-1 $128 0 $127 3.1415926535897931 $78 $186 forward @7 unknown #
coedge $-1 -1 $-1 $187 $79 $183 $188 forward $125 $-1 #
coedge $-1 -1 $-1 $79 $187 $182 $189 reversed $125 $-1 #
loop $-1 -1 $-1 $-1 $123 $164 #
attrib_edge_convexity-kcp-attrib $-1 -1 $190 $-1 $80 1 #
vertex $-1 -1 $-1 $122 $191 #
vertex $-1 -1 $-1 $122 $192 #
ellipse-curve $-1 -1 $-1 0 0 0 0 -1 0 -2.1828124999999998 0 0 1 I I #
loop $-1 -1 $-1 $-1 $81 $106 #
attrib_edge_convexity-kcp-attrib $-1 -1 $193 $-1 $82 1 #
ellipse-curve $-1 -1 $-1 -3.5249581031848718e-016 0 -2.4674706722294102e-015 -5.0753052554292868e-016 -1 2.8754134069701431e-031 -5.5562499999999995 2.8199664825478975e-015 3.1478925775719685e-015 1 I I #
convexity-sys-attrib $-1 -1 $-1 $83 $54 #
point $-1 -1 $-1 -5.5562499999999995 2.8199664825478975e-015 6.8042190534255848e-016 #
point $-1 -1 $-1 5.5562499999999995 2.8199664825478975e-015 -1.360843810685117e-015 #
coedge $-1 -1 $-1 $136 $136 $90 $137 forward $87 $-1 #
edge $194 -1 $-1 $195 0 $195 6.2831853071795862 $90 $196 forward @7 unknown #
vertex $-1 -1 $-1 $91 $197 #
ellipse-curve $-1 -1 $-1 0 -0.79374999999999885 0 0 1 0 4.5640624999999995 0 0 1 I I #
face $198 -1 $-1 $199 $200 $21 $-1 $201 reversed single #
loop $-1 -1 $-1 $-1 $202 $92 #
plane-surface $-1 -1 $-1 -5.5562499999999995 0 0 1 0 0 0 0 -1 forward_v I I I I #
coedge $-1 -1 $-1 $203 $151 $204 $205 forward $93 $-1 #
coedge $-1 -1 $-1 $206 $95 $203 $207 forward $61 $-1 #
coedge $-1 -1 $-1 $95 $206 $208 $209 forward $61 $-1 #
coedge $-1 -1 $-1 $154 $153 $95 $147 reversed $155 $-1 #
edge $-1 -1 $-1 $210 -0.7937500000000014 $211 0.7937500000000014 $146 $212 forward @7 unknown #
coedge $-1 -1 $-1 $97 $96 $213 $214 forward $41 $-1 #
coedge $-1 -1 $-1 $215 $216 $96 $150 reversed $200 $-1 #
edge $-1 -1 $-1 $157 -5.5562499999999995 $217 5.5562499999999995 $149 $218 forward @7 unknown #
coedge $-1 -1 $-1 $143 $219 $97 $152 reversed $93 $-1 #
edge $-1 -1 $-1 $220 -5.5562499999999995 $156 5.5562499999999995 $151 $221 forward @7 unknown #
coedge $-1 -1 $-1 $146 $98 $219 $222 forward $155 $-1 #
coedge $-1 -1 $-1 $98 $146 $215 $223 reversed $155 $-1 #
loop $-1 -1 $-1 $-1 $153 $199 #
vertex $-1 -1 $-1 $99 $224 #
vertex $-1 -1 $-1 $99 $225 #
straight-curve $-1 -1 $-1 5.5562499999999995 0 5.5562500000000021 0 1 0 I I #
coedge $-1 -1 $-1 $159 $159 $103 $160 reversed $100 $-1 #
edge $-1 -1 $-1 $226 0 $226 6.2831853071795862 $103 $227 forward @7 unknown #
vertex $-1 -1 $-1 $104 $228 #
ellipse-curve $-1 -1 $-1 0 -0.79374999999999996 0 0 1 0 2.1828124999999998 0 0 1 I I #
model_id-kcp-attrib $-1 -1 $-1 $-1 $106 1 1021480399 1021480399 1015152641 7 #
face $229 -1 $-1 $230 $125 $8 $-1 $231 reversed single #
cone-surface $-1 -1 $-1 0 16.509999999999998 0 0 -1 0 15.875 0 0 1 I I -0.52999894000318004 0.84799830400508802 15.875 forward I I I I #
coedge $-1 -1 $-1 $169 $171 $177 $232 forward $107 $-1 #
coedge $-1 -1 $-1 $233 $233 $187 $234 reversed $109 $-1 #
coedge $-1 -1 $-1 $110 $110 $235 $236 forward $71 $-1 #
coedge $-1 -1 $-1 $235 $166 $111 $170 forward $107 $-1 #
edge $-1 -1 $-1 $119 0 $175 0.03125 $111 $237 forward @7 unknown #
coedge $-1 -1 $-1 $166 $235 $112 $172 reversed $107 $-1 #
edge $-1 -1 $-1 $118 1.1364487653643334e-016 $174 0.03125 $112 $238 forward @7 unknown #
attrib_edge_convexity-kcp-attrib $-1 -1 $239 $-1 $113 2 #
vertex $-1 -1 $-1 $172 $240 #
vertex $-1 -1 $-1 $170 $241 #
ellipse-curve $-1 -1 $-1 0 -0.79374999999999996 0 0 1 0 -4.5640624999999995 0 0 1 I I #
coedge $-1 -1 $-1 $116 $114 $166 $232 reversed $130 $-1 #
straight-curve $-1 -1 $-1 5.5562499999999995 2.8199664825478975e-015 -1.360843810685117e-015 -13.461973076080772 -21.539156921729234 3.2971235527908573e-015 I I #
straight-curve $-1 -1 $-1 -5.5562499999999995 2.8199664825478975e-015 6.8042190534255848e-016 13.461973076080772 -21.539156921729234 -1.6485617763954287e-015 I I #
point $-1 -1 $-1 -4.5640624999999995 -1.587499999999997 5.5891799367424449e-016 #
point $-1 -1 $-1 4.5640624999999995 -1.5874999999999999 -1.1178359873484886e-015 #
coedge $-1 -1 $-1 $242 $121 $124 $189 forward $184 $-1 #
coedge $-1 -1 $-1 $121 $242 $123 $188 reversed $184 $-1 #
loop $-1 -1 $-1 $-1 $182 $230 #
attrib_edge_convexity-kcp-attrib $-1 -1 $243 $-1 $122 1 #
ellipse-curve $-1 -1 $-1 0 0 0 0 -1 0 2.1828124999999998 0 0 1 I I #
coedge $-1 -1 $-1 $124 $123 $167 $234 forward $125 $-1 #
edge $-1 -1 $-1 $127 0 $244 0.03125 $183 $245 forward @7 unknown #
edge $-1 -1 $-1 $128 0 $246 0.03125 $182 $247 forward @7 unknown #
convexity-sys-attrib $-1 -1 $-1 $126 $80 #
point $-1 -1 $-1 -2.1828124999999998 0 0 #
point $-1 -1 $-1 2.1828124999999998 0 0 #
convexity-sys-attrib $-1 -1 $-1 $131 $82 #
convexity-sys-attrib $-1 -1 $-1 $-1 $137 #
vertex $-1 -1 $-1 $137 $248 #
ellipse-curve $-1 -1 $-1 0 -1.7763568394002505e-015 0 0 1 0 4.5640624999999995 0 0 1 I I #
point $-1 -1 $-1 -4.5640624999999995 -0.79374999999999851 5.5891799367424429e-016 #
model_id-kcp-attrib $-1 -1 $-1 $-1 $140 1 1021480399 1021480399 1015152642 2 #
face $-1 -1 $-1 $-1 $155 $21 $-1 $249 reversed single #
loop $-1 -1 $-1 $-1 $215 $140 #
plane-surface $-1 -1 $-1 0 0.7937500000000014 0 0 -1 0 0 0 -1 forward_v I I I I #
coedge $-1 -1 $-1 $250 $213 $216 $251 forward $141 $-1 #
coedge $-1 -1 $-1 $219 $143 $144 $207 reversed $93 $-1 #
coedge $-1 -1 $-1 $213 $250 $143 $205 reversed $141 $-1 #
edge $-1 -1 $-1 $220 -5.5562500000000021 $252 5.5562500000000021 $204 $253 forward @7 unknown #
coedge $-1 -1 $-1 $145 $144 $250 $254 forward $61 $-1 #
edge $-1 -1 $-1 $211 -5.5562499999999995 $252 5.5562499999999995 $203 $255 forward @7 unknown #
coedge $-1 -1 $-1 $216 $215 $145 $209 reversed $200 $-1 #
edge $-1 -1 $-1 $256 -5.5562499999999995 $210 5.5562499999999995 $208 $257 forward @7 unknown #
vertex $-1 -1 $-1 $147 $258 #
vertex $-1 -1 $-1 $222 $259 #
straight-curve $-1 -1 $-1 5.5562499999999995 0 -5.5562500000000021 0 -1 0 I I #
coedge $-1 -1 $-1 $202 $204 $148 $214 reversed $141 $-1 #
edge $-1 -1 $-1 $217 -0.7937500000000014 $220 0.7937500000000014 $213 $260 forward @7 unknown #
coedge $-1 -1 $-1 $208 $149 $154 $223 forward $200 $-1 #
coedge $-1 -1 $-1 $149 $208 $202 $251 reversed $200 $-1 #
vertex $-1 -1 $-1 $150 $261 #
straight-curve $-1 -1 $-1 0 0.7937500000000014 5.5562500000000021 -1 0 0 I I #
coedge $-1 -1 $-1 $151 $203 $153 $222 reversed $93 $-1 #
vertex $-1 -1 $-1 $214 $262 #
straight-curve $-1 -1 $-1 0 -0.7937500000000014 5.5562500000000021 1 0 0 I I #
edge $-1 -1 $-1 $156 -5.5562500000000021 $211 5.5562500000000021 $153 $263 forward @7 unknown #
edge $-1 -1 $-1 $157 -5.5562500000000021 $210 5.5562500000000021 $154 $264 forward @7 unknown #
point $-1 -1 $-1 5.5562499999999995 -0.7937500000000014 5.5562500000000021 #
point $-1 -1 $-1 5.5562499999999995 0.7937500000000014 5.5562500000000021 #
vertex $-1 -1 $-1 $160 $265 #
ellipse-curve $-1 -1 $-1 0 0 0 0 -1 0 -2.1828124999999998 0 0 1 I I #
point $-1 -1 $-1 2.1828124999999998 -0.79374999999999996 0 #
model_id-kcp-attrib $-1 -1 $-1 $-1 $164 1 1021480399 1021480399 1015152641 8 #
face $266 -1 $-1 $-1 $184 $8 $-1 $267 reversed single #
cone-surface $-1 -1 $-1 0 0 0 0 -1 0 2.1828124999999998 0 0 1 I I 0 1 2.1828124999999998 forward I I I I #
edge $-1 -1 $-1 $118 -3.7870171128373721e-032 $119 3.1415926535897931 $177 $268 forward @7 unknown #
coedge $-1 -1 $-1 $167 $167 $242 $269 reversed $109 $-1 #
edge $270 -1 $-1 $244 0 $246 3.1415926535897931 $167 $271 forward @7 unknown #
coedge $-1 -1 $-1 $171 $169 $168 $236 reversed $107 $-1 #
edge $272 -1 $-1 $174 -1.2246063538223773e-016 $175 3.1415926535897931 $168 $273 forward @7 unknown #
straight-curve $-1 -1 $-1 4.5640624999999995 -1.5874999999999999 -1.1178359873484886e-015 0 25.399999999999999 0 I I #
straight-curve $-1 -1 $-1 -4.5640624999999995 -1.5874999999999999 5.5891799367424429e-016 0 25.399999999999999 0 I I #
convexity-sys-attrib $-1 -1 $-1 $173 $113 #
point $-1 -1 $-1 -4.5640624999999995 -0.79374999999999996 5.5891799367424429e-016 #
point $-1 -1 $-1 4.5640624999999995 -0.79374999999999996 0 #
coedge $-1 -1 $-1 $183 $182 $233 $269 forward $184 $-1 #
convexity-sys-attrib $-1 -1 $-1 $185 $122 #
vertex $-1 -1 $-1 $269 $274 #
straight-curve $-1 -1 $-1 -2.1828124999999998 0 2.6730860567029078e-016 0 -25.399999999999999 0 I I #
vertex $-1 -1 $-1 $269 $275 #
straight-curve $-1 -1 $-1 2.1828124999999998 0 0 0 -25.399999999999999 0 I I #
point $-1 -1 $-1 4.5640624999999995 -1.4432899320127035e-015 0 #
plane-surface $-1 -1 $-1 5.5562499999999995 0 0 -1 0 0 0 0 1 forward_v I I I I #
coedge $-1 -1 $-1 $204 $202 $206 $254 reversed $141 $-1 #
edge $-1 -1 $-1 $217 -5.5562500000000021 $256 5.5562500000000021 $216 $276 forward @7 unknown #
vertex $-1 -1 $-1 $254 $277 #
straight-curve $-1 -1 $-1 -5.5562499999999995 -0.7937500000000014 0 0 0 -1 I I #
edge $-1 -1 $-1 $252 -0.7937500000000014 $256 0.7937500000000014 $250 $278 forward @7 unknown #
straight-curve $-1 -1 $-1 0 -0.7937500000000014 -5.5562500000000021 -1 0 0 I I #
vertex $-1 -1 $-1 $209 $279 #
straight-curve $-1 -1 $-1 0 0.7937500000000014 -5.5562500000000021 1 0 0 I I #
point $-1 -1 $-1 5.5562499999999995 0.7937500000000014 -5.5562500000000021 #
point $-1 -1 $-1 5.5562499999999995 -0.7937500000000014 -5.5562500000000021 #
straight-curve $-1 -1 $-1 -5.5562499999999995 0 5.5562500000000021 0 -1 0 I I #
point $-1 -1 $-1 -5.5562499999999995 0.7937500000000014 5.5562500000000021 #
point $-1 -1 $-1 -5.5562499999999995 -0.7937500000000014 5.5562500000000021 #
straight-curve $-1 -1 $-1 5.5562499999999995 -0.7937500000000014 0 0 0 -1 I I #
straight-curve $-1 -1 $-1 5.5562499999999995 0.7937500000000014 0 0 0 -1 I I #
point $-1 -1 $-1 -2.1828124999999998 0 0 #
model_id-kcp-attrib $-1 -1 $-1 $-1 $230 1 1021480399 1021480399 1015152641 9 #
cone-surface $-1 -1 $-1 0 0 0 0 -1 0 2.1828124999999998 0 0 1 I I 0 1 2.1828124999999998 forward I I I I #
ellipse-curve $-1 -1 $-1 1.7624790515924359e-016 -1.5874999999999999 -1.7624790515924359e-016 0 -1 0 -4.5640624999999995 0 7.3516589883348793e-016 1 I I #
edge $280 -1 $-1 $246 0 $244 3.1415926535897931 $233 $281 forward @7 unknown #
attrib_edge_convexity-kcp-attrib $-1 -1 $282 $-1 $234 1 #
ellipse-curve $-1 -1 $-1 8.8123952579621795e-017 -0.79374999999999996 -8.8123952579621795e-017 0 -1 0 -2.1828124999999998 0 8.8123952579621795e-017 1 I I #
attrib_edge_convexity-kcp-attrib $-1 -1 $283 $-1 $236 2 #
ellipse-curve $-1 -1 $-1 0 -0.79374999999999996 0 0 -1 0 -4.5640624999999995 0 0 1 I I #
point $-1 -1 $-1 -2.1828124999999998 -0.79374999999999996 0 #
point $-1 -1 $-1 2.1828124999999998 -0.79374999999999996 0 #
straight-curve $-1 -1 $-1 -5.5562499999999995 0.7937500000000014 0 0 0 -1 I I #
point $-1 -1 $-1 -5.5562499999999995 -0.7937500000000014 -5.5562500000000021 #
straight-curve $-1 -1 $-1 -5.5562499999999995 0 -5.5562500000000021 0 1 0 I I #
point $-1 -1 $-1 -5.5562499999999995 0.7937500000000014 -5.5562500000000021 #
attrib_edge_convexity-kcp-attrib $-1 -1 $284 $-1 $269 1 #
ellipse-curve $-1 -1 $-1 0 -0.79374999999999996 2.6437185773886536e-016 0 -1 0 2.1828124999999998 0 -2.6437185773886536e-016 1 I I #
convexity-sys-attrib $-1 -1 $-1 $270 $234 #
convexity-sys-attrib $-1 -1 $-1 $272 $236 #
convexity-sys-attrib $-1 -1 $-1 $280 $269 #
End-of-ACIS-data 