600 0 1 0           
99 GICL Pro/E ACIS Translator - Source: f:/data5/repository/PTC/V18/reel18/areel/roll_washer.prt - 6 0 13 ACIS 6.0.3 NT 24 Thu Apr 04 13:30:44 2002 
1 9.9999999999999995e-007 1e-010 
body $-1 $1 $-1 $2 #
lump $-1 $-1 $3 $0 #
transform $-1 1 0 0 0 1 0 0 0 1 0 0 0 25.399999999999999 no_rotate no_reflect no_shear #
shell $-1 $-1 $-1 $4 $-1 $1 #
face $-1 $5 $6 $3 $-1 $7 forward single #
face $-1 $8 $9 $3 $-1 $10 forward single #
loop $-1 $11 $12 $4 #
plane-surface $-1 0 0 0 0 1 0 1 0 0 forward_v I I I I #
face $-1 $13 $14 $3 $-1 $15 reversed single #
loop $-1 $-1 $16 $5 #
cone-surface $-1 0 0.65000000000000002 0 0 -1 0 0.625 0 0 1 I I -0.52999894000318004 0.84799830400508802 0.625 forward I I I I #
loop $-1 $-1 $17 $4 #
coedge $-1 $18 $18 $19 $20 forward $6 $-1 #
face $-1 $21 $22 $3 $-1 $23 reversed single #
loop $-1 $-1 $24 $8 #
cone-surface $-1 0 -0.065625000000000044 0 0 1 0 0.1796875 0 0 1 I I 0 1 0.1796875 forward I I I I #
coedge $-1 $25 $26 $27 $28 forward $9 $-1 #
coedge $-1 $29 $29 $30 $31 forward $11 $-1 #
coedge $-1 $12 $12 $32 $33 reversed $6 $-1 #
coedge $-1 $26 $25 $12 $20 reversed $9 $-1 #
edge $-1 $34 0 $35 3.141592653589794 $12 $36 forward 7 unknown #
face $-1 $37 $38 $3 $-1 $39 reversed single #
loop $-1 $40 $41 $13 #
plane-surface $-1 0 -0.03125 0 0 1 0 1 0 0 forward_v I I I I #
coedge $-1 $42 $43 $41 $44 forward $14 $-1 #
coedge $-1 $19 $16 $45 $46 reversed $9 $-1 #
coedge $-1 $16 $19 $47 $48 forward $9 $-1 #
coedge $-1 $43 $42 $16 $28 reversed $14 $-1 #
edge $-1 $49 3.5789530671652712e-032 $50 3.1415926535897931 $16 $51 forward 7 unknown #
coedge $-1 $17 $17 $52 $53 forward $11 $-1 #
coedge $-1 $54 $55 $17 $31 reversed $56 $-1 #
edge $-1 $57 0 $58 3.1415926535897931 $17 $59 forward 7 unknown #
coedge $-1 $45 $47 $18 $33 forward $60 $-1 #
edge $-1 $34 0 $35 3.1415926535897936 $18 $61 forward 7 unknown #
vertex $-1 $33 $62 #
vertex $-1 $33 $63 #
ellipse-curve $-1 0 0 1.1796119636642288e-016 5.0753052554292868e-016 1 2.115339258713809e-031 -0.21875 1.1102230246251565e-016 -9.117293237655838e-017 1 I I #
face $-1 $64 $60 $3 $-1 $65 forward single #
loop $-1 $-1 $66 $21 #
cone-surface $-1 0 -0.065625000000000044 0 0 1 0 0.1796875 0 0 1 I I 0 1 0.1796875 forward I I I I #
loop $-1 $-1 $67 $13 #
coedge $-1 $68 $68 $24 $44 reversed $22 $-1 #
coedge $-1 $27 $24 $69 $70 reversed $14 $-1 #
coedge $-1 $24 $27 $71 $72 forward $14 $-1 #
edge $-1 $73 1.2246063538223773e-016 $74 3.1415926535897931 $24 $75 forward 7 unknown #
coedge $-1 $76 $32 $25 $46 forward $60 $-1 #
edge $-1 $35 0 $50 0.073702977594192323 $25 $77 forward 7 unknown #
coedge $-1 $32 $76 $26 $48 reversed $60 $-1 #
edge $-1 $34 0 $49 0.073702977594192226 $26 $78 forward 7 unknown #
vertex $-1 $48 $79 #
vertex $-1 $46 $80 #
ellipse-curve $-1 0 -0.0625 6.9388939039072284e-018 0 1 0 -0.1796875 0 1.5065751516338613e-017 1 I I #
coedge $-1 $81 $82 $29 $53 reversed $83 $-1 #
edge $-1 $58 0 $57 3.1415926535897931 $29 $84 forward 7 unknown #
coedge $-1 $85 $30 $82 $86 forward $56 $-1 #
coedge $-1 $30 $85 $81 $87 reversed $56 $-1 #
loop $-1 $-1 $54 $64 #
vertex $-1 $53 $88 #
vertex $-1 $53 $89 #
ellipse-curve $-1 0 0 0 0 -1 0 -0.0859375 0 0 1 I I #
loop $-1 $-1 $32 $37 #
ellipse-curve $-1 -1.3877787807814457e-017 0 -9.7144514654701197e-017 -5.0753052554292868e-016 -1 2.8754134069701431e-031 -0.21875 1.1102230246251565e-016 1.239327786445657e-016 1 I I #
point $-1 -0.21875 1.1102230246251565e-016 2.6788263989864509e-017 #
point $-1 0.21875 1.1102230246251565e-016 -5.3576527979729017e-017 #
face $-1 $90 $56 $3 $-1 $91 reversed single #
cone-surface $-1 0 0.65000000000000002 0 0 -1 0 0.625 0 0 1 I I -0.52999894000318004 0.84799830400508802 0.625 forward I I I I #
coedge $-1 $69 $71 $76 $92 forward $38 $-1 #
coedge $-1 $93 $93 $85 $94 reversed $40 $-1 #
coedge $-1 $41 $41 $95 $96 forward $22 $-1 #
coedge $-1 $95 $66 $42 $70 forward $38 $-1 #
edge $-1 $50 0 $74 0.03125 $42 $97 forward 7 unknown #
coedge $-1 $66 $95 $43 $72 reversed $38 $-1 #
edge $-1 $49 1.1102230246251565e-016 $73 0.03125 $43 $98 forward 7 unknown #
vertex $-1 $72 $99 #
vertex $-1 $70 $100 #
ellipse-curve $-1 0 -0.03125 0 0 1 0 -0.1796875 0 0 1 I I #
coedge $-1 $47 $45 $66 $92 reversed $60 $-1 #
straight-curve $-1 0.21875 1.1102230246251565e-016 -5.3576527979729017e-017 -0.52999894000318004 -0.84799830400508802 1.2980801388940385e-016 I I #
straight-curve $-1 -0.21875 1.1102230246251565e-016 2.6788263989864509e-017 0.52999894000318004 -0.84799830400508802 -6.4904006944701923e-017 I I #
point $-1 -0.1796875 -0.062499999999999889 2.2004645420245848e-017 #
point $-1 0.1796875 -0.0625 -4.4009290840491683e-017 #
coedge $-1 $101 $52 $55 $87 forward $83 $-1 #
coedge $-1 $52 $101 $54 $86 reversed $83 $-1 #
loop $-1 $-1 $81 $90 #
ellipse-curve $-1 0 0 0 0 -1 0 0.0859375 0 0 1 I I #
coedge $-1 $55 $54 $67 $94 forward $56 $-1 #
edge $-1 $57 0 $102 0.03125 $82 $103 forward 7 unknown #
edge $-1 $58 0 $104 0.03125 $81 $105 forward 7 unknown #
point $-1 -0.0859375 0 0 #
point $-1 0.0859375 0 0 #
face $-1 $-1 $83 $3 $-1 $106 reversed single #
cone-surface $-1 0 0 0 0 -1 0 0.0859375 0 0 1 I I 0 1 0.0859375 forward I I I I #
edge $-1 $49 -2.385968711443514e-032 $50 3.1415926535897931 $76 $107 forward 7 unknown #
coedge $-1 $67 $67 $101 $108 reversed $40 $-1 #
edge $-1 $102 0 $104 3.1415926535897931 $67 $109 forward 7 unknown #
coedge $-1 $71 $69 $68 $96 reversed $38 $-1 #
edge $-1 $73 -1.2246063538223773e-016 $74 3.1415926535897931 $68 $110 forward 7 unknown #
straight-curve $-1 0.1796875 -0.0625 -4.4009290840491683e-017 0 1 0 I I #
straight-curve $-1 -0.1796875 -0.0625 2.2004645420245841e-017 0 1 0 I I #
point $-1 -0.1796875 -0.03125 2.2004645420245841e-017 #
point $-1 0.1796875 -0.03125 0 #
coedge $-1 $82 $81 $93 $108 forward $83 $-1 #
vertex $-1 $108 $111 #
straight-curve $-1 -0.0859375 0 1.0523960853161055e-017 0 -1 0 I I #
vertex $-1 $108 $112 #
straight-curve $-1 0.0859375 0 0 0 -1 0 I I #
cone-surface $-1 0 0 0 0 -1 0 0.0859375 0 0 1 I I 0 1 0.0859375 forward I I I I #
ellipse-curve $-1 6.9388939039072284e-018 -0.0625 -6.9388939039072284e-018 0 -1 0 -0.1796875 0 2.894353932415307e-017 1 I I #
edge $-1 $104 0 $102 3.1415926535897931 $93 $113 forward 7 unknown #
ellipse-curve $-1 3.4694469519536142e-018 -0.03125 -3.4694469519536142e-018 0 -1 0 -0.0859375 0 3.4694469519536142e-018 1 I I #
ellipse-curve $-1 0 -0.03125 0 0 -1 0 -0.1796875 0 0 1 I I #
point $-1 -0.0859375 -0.03125 0 #
point $-1 0.0859375 -0.03125 0 #
ellipse-curve $-1 0 -0.03125 1.0408340855860843e-017 0 -1 0 0.0859375 0 -1.0408340855860843e-017 1 I I #
End-of-ACIS-data 