600 0 1 0           
92 GICL ACIS Healer - Source: /gicl/data5/repository/PTC/V18/reel18/areel/roll_washer.sat - 6 0 18 ACIS 6.0.3 Solaris 24 Sat Apr 13 21:07:07 2002 
1 9.999999999999999547e-07 1.000000000000000036e-10 
body $-1 $1 $-1 $-1 #
lump $-1 $-1 $2 $0 #
shell $-1 $-1 $-1 $3 $-1 $1 #
face $-1 $4 $5 $2 $-1 $6 forward single #
face $-1 $7 $8 $2 $-1 $9 forward single #
loop $-1 $10 $11 $3 #
plane-surface $-1 0 0 0 0 1 0 25.39999999999999858 0 0 forward_v I I I I #
face $-1 $12 $13 $2 $-1 $14 reversed single #
loop $-1 $-1 $15 $4 #
cone-surface $-1 0 16.50999999999999801 0 0 -1 0 15.875 0 0 1 I I -0.5299989400031800413 0.8479983040050880216 15.875 forward I I I I #
loop $-1 $-1 $16 $3 #
coedge $-1 $17 $17 $18 $19 forward $5 $-1 #
face $-1 $20 $21 $2 $-1 $22 reversed single #
loop $-1 $-1 $23 $7 #
cone-surface $-1 0 -1.666875000000000995 0 0 1 0 4.564062499999999467 0 0 1 I I 0 1 4.564062499999999467 forward I I I I #
coedge $-1 $24 $25 $26 $27 forward $8 $-1 #
coedge $-1 $28 $28 $29 $30 forward $10 $-1 #
coedge $-1 $11 $11 $31 $32 reversed $5 $-1 #
coedge $-1 $25 $24 $11 $19 reversed $8 $-1 #
edge $-1 $33 5.110540950742269395e-32 $34 3.141592653589794004 $11 $35 forward 7 unknown #
face $-1 $36 $37 $2 $-1 $38 reversed single #
loop $-1 $39 $40 $12 #
plane-surface $-1 0 -0.7937499999999999556 0 0 1 0 25.39999999999999858 0 0 forward_v I I I I #
coedge $-1 $41 $42 $40 $43 forward $13 $-1 #
coedge $-1 $18 $15 $44 $45 reversed $8 $-1 #
coedge $-1 $15 $18 $46 $47 forward $8 $-1 #
coedge $-1 $42 $41 $15 $27 reversed $13 $-1 #
edge $-1 $48 2.840262834628029048e-32 $49 3.141592653589793116 $15 $50 forward 7 unknown #
coedge $-1 $16 $16 $51 $52 forward $10 $-1 #
coedge $-1 $53 $54 $16 $30 reversed $55 $-1 #
edge $-1 $56 0 $57 3.141592653589793116 $16 $58 forward 7 unknown #
coedge $-1 $44 $46 $17 $32 forward $59 $-1 #
edge $-1 $33 0 $34 3.14159265358979356 $17 $60 forward 7 unknown #
vertex $-1 $32 $61 #
vertex $-1 $32 $62 #
ellipse-curve $-1 0 0 2.996214387707140898e-15 5.07530525542928676e-16 1 2.115339258713808958e-31 -5.556249999999999467 2.819966482547897455e-15 -2.315792482364582613e-15 1 I I #
face $-1 $63 $59 $2 $-1 $64 forward single #
loop $-1 $-1 $65 $20 #
cone-surface $-1 0 -1.666875000000000995 0 0 1 0 4.564062499999999467 0 0 1 I I 0 1 4.564062499999999467 forward I I I I #
loop $-1 $-1 $66 $12 #
coedge $-1 $67 $67 $23 $43 reversed $21 $-1 #
coedge $-1 $26 $23 $68 $69 reversed $13 $-1 #
coedge $-1 $23 $26 $70 $71 forward $13 $-1 #
edge $-1 $72 1.224606353822377258e-16 $73 3.141592653589793116 $23 $74 forward 7 unknown #
coedge $-1 $75 $31 $24 $45 forward $59 $-1 #
edge $-1 $34 0 $49 0.07370297759419230932 $24 $76 forward 7 unknown #
coedge $-1 $31 $75 $25 $47 reversed $59 $-1 #
edge $-1 $33 0 $48 0.07370297759419222605 $25 $77 forward 7 unknown #
vertex $-1 $47 $78 #
vertex $-1 $45 $79 #
ellipse-curve $-1 0 -1.587499999999999911 1.762479051592435909e-16 0 1 0 -4.564062499999999467 0 3.8267008851500075e-16 1 I I #
coedge $-1 $80 $81 $28 $52 reversed $82 $-1 #
edge $-1 $57 0 $56 3.141592653589793116 $28 $83 forward 7 unknown #
coedge $-1 $84 $29 $81 $85 forward $55 $-1 #
coedge $-1 $29 $84 $80 $86 reversed $55 $-1 #
loop $-1 $-1 $53 $63 #
vertex $-1 $52 $87 #
vertex $-1 $52 $88 #
ellipse-curve $-1 0 0 0 0 -1 0 -2.182812499999999822 0 0 1 I I #
loop $-1 $-1 $31 $36 #
ellipse-curve $-1 -3.524958103184871819e-16 0 -2.467470672229410174e-15 -5.07530525542928676e-16 -1 2.875413406970143129e-31 -5.556249999999999467 2.819966482547897455e-15 3.14789257757196846e-15 1 I I #
point $-1 -5.556249999999999467 2.819966482547897455e-15 6.804219053425584824e-16 #
point $-1 5.556249999999999467 2.819966482547897455e-15 -1.360843810685116965e-15 #
face $-1 $89 $55 $2 $-1 $90 reversed single #
cone-surface $-1 0 16.50999999999999801 0 0 -1 0 15.875 0 0 1 I I -0.5299989400031800413 0.8479983040050880216 15.875 forward I I I I #
coedge $-1 $68 $70 $75 $91 forward $37 $-1 #
coedge $-1 $92 $92 $84 $93 reversed $39 $-1 #
coedge $-1 $40 $40 $94 $95 forward $21 $-1 #
coedge $-1 $94 $65 $41 $69 forward $37 $-1 #
edge $-1 $49 0 $73 0.03125 $41 $96 forward 7 unknown #
coedge $-1 $65 $94 $42 $71 reversed $37 $-1 #
edge $-1 $48 1.13644876536433342e-16 $72 0.03125 $42 $97 forward 7 unknown #
vertex $-1 $71 $98 #
vertex $-1 $69 $99 #
ellipse-curve $-1 0 -0.7937499999999999556 0 0 1 0 -4.564062499999999467 0 0 1 I I #
coedge $-1 $46 $44 $65 $91 reversed $59 $-1 #
straight-curve $-1 5.556249999999999467 2.819966482547897455e-15 -1.360843810685116965e-15 -13.46197307608077232 -21.53915692172923357 3.297123552790857327e-15 I I #
straight-curve $-1 -5.556249999999999467 2.819966482547897455e-15 6.804219053425584824e-16 13.46197307608077232 -21.53915692172923357 -1.648561776395428663e-15 I I #
point $-1 -4.564062499999999467 -1.587499999999997025 5.589179936742444888e-16 #
point $-1 4.564062499999999467 -1.587499999999999911 -1.117835987348488583e-15 #
coedge $-1 $100 $51 $54 $86 forward $82 $-1 #
coedge $-1 $51 $100 $53 $85 reversed $82 $-1 #
loop $-1 $-1 $80 $89 #
ellipse-curve $-1 0 0 0 0 -1 0 2.182812499999999822 0 0 1 I I #
coedge $-1 $54 $53 $66 $93 forward $55 $-1 #
edge $-1 $56 0 $101 0.03125 $81 $102 forward 7 unknown #
edge $-1 $57 0 $103 0.03125 $80 $104 forward 7 unknown #
point $-1 -2.182812499999999822 0 0 #
point $-1 2.182812499999999822 0 0 #
face $-1 $-1 $82 $2 $-1 $105 reversed single #
cone-surface $-1 0 0 0 0 -1 0 2.182812499999999822 0 0 1 I I 0 1 2.182812499999999822 forward I I I I #
edge $-1 $48 -3.787017112837372064e-32 $49 3.141592653589793116 $75 $106 forward 7 unknown #
coedge $-1 $66 $66 $100 $107 reversed $39 $-1 #
edge $-1 $101 0 $103 3.141592653589793116 $66 $108 forward 7 unknown #
coedge $-1 $70 $68 $67 $95 reversed $37 $-1 #
edge $-1 $72 -1.224606353822377258e-16 $73 3.141592653589793116 $67 $109 forward 7 unknown #
straight-curve $-1 4.564062499999999467 -1.587499999999999911 -1.117835987348488583e-15 0 25.39999999999999858 0 I I #
straight-curve $-1 -4.564062499999999467 -1.587499999999999911 5.589179936742442916e-16 0 25.39999999999999858 0 I I #
point $-1 -4.564062499999999467 -0.7937499999999999556 5.589179936742442916e-16 #
point $-1 4.564062499999999467 -0.7937499999999999556 0 #
coedge $-1 $81 $80 $92 $107 forward $82 $-1 #
vertex $-1 $107 $110 #
straight-curve $-1 -2.182812499999999822 0 2.67308605670290776e-16 0 -25.39999999999999858 0 I I #
vertex $-1 $107 $111 #
straight-curve $-1 2.182812499999999822 0 0 0 -25.39999999999999858 0 I I #
cone-surface $-1 0 0 0 0 -1 0 2.182812499999999822 0 0 1 I I 0 1 2.182812499999999822 forward I I I I #
ellipse-curve $-1 1.762479051592435909e-16 -1.587499999999999911 -1.762479051592435909e-16 0 -1 0 -4.564062499999999467 0 7.351658988334879319e-16 1 I I #
edge $-1 $103 0 $101 3.141592653589793116 $92 $112 forward 7 unknown #
ellipse-curve $-1 8.812395257962179547e-17 -0.7937499999999999556 -8.812395257962179547e-17 0 -1 0 -2.182812499999999822 0 8.812395257962179547e-17 1 I I #
ellipse-curve $-1 0 -0.7937499999999999556 0 0 -1 0 -4.564062499999999467 0 0 1 I I #
point $-1 -2.182812499999999822 -0.7937499999999999556 0 #
point $-1 2.182812499999999822 -0.7937499999999999556 0 #
ellipse-curve $-1 0 -0.7937499999999999556 2.643718577388653617e-16 0 -1 0 2.182812499999999822 0 -2.643718577388653617e-16 1 I I #
End-of-ACIS-data 