600 0 1 0           
86 GICL ACIS Healer - Source: /gicl/data5/repository/PTC/V18/reel18/areel/spool.sat - 6 0 18 ACIS 6.0.3 Solaris 24 Sat Apr 13 21:07:03 2002 
1 9.999999999999999547e-07 1.000000000000000036e-10 
body $-1 $1 $-1 $-1 #
lump $-1 $-1 $2 $0 #
shell $-1 $-1 $-1 $3 $-1 $1 #
face $-1 $4 $5 $2 $-1 $6 forward single #
face $-1 $7 $8 $2 $-1 $9 forward single #
loop $-1 $10 $11 $3 #
plane-surface $-1 0 50.79999999999999716 0 0 1 0 25.39999999999999858 0 0 forward_v I I I I #
face $-1 $12 $13 $2 $-1 $9 forward single #
loop $-1 $-1 $14 $4 #
torus-surface $-1 0 48.25999999999999801 0 0 1 0 31.44424574250913906 2.539999999999999591 1 0 0 forward_v I I I I #
loop $-1 $-1 $15 $3 #
coedge $-1 $16 $16 $17 $18 reversed $5 $-1 #
face $-1 $19 $20 $2 $-1 $21 reversed single #
loop $-1 $-1 $22 $7 #
coedge $-1 $23 $17 $24 $25 forward $8 $-1 #
coedge $-1 $26 $26 $27 $28 forward $10 $-1 #
coedge $-1 $11 $11 $29 $30 reversed $5 $-1 #
coedge $-1 $14 $31 $11 $18 forward $8 $-1 #
edge $-1 $32 -1.57079632679489678 $33 1.570796326794896558 $11 $34 forward 7 unknown #
face $-1 $35 $36 $2 $-1 $21 reversed single #
loop $-1 $-1 $37 $12 #
cone-surface $-1 0 6.349999999999932143 0 0 -1 0 10.82386363636362425 0 0 1 I I -0.392025924608150167 0.9199541697471266266 10.82386363636362425 forward I I I I #
coedge $-1 $38 $29 $31 $39 forward $13 $-1 #
coedge $-1 $31 $14 $40 $41 reversed $8 $-1 #
coedge $-1 $29 $38 $14 $25 reversed $13 $-1 #
edge $-1 $33 5.769662962618919421e-16 $42 1.16796356299466364 $24 $43 forward 7 unknown #
coedge $-1 $15 $15 $44 $45 forward $10 $-1 #
coedge $-1 $46 $47 $15 $28 reversed $48 $-1 #
edge $-1 $49 -1.570796326794912323 $50 1.570796326794912101 $15 $51 forward 7 unknown #
coedge $-1 $22 $24 $16 $30 forward $13 $-1 #
edge $-1 $33 1.570796326794896558 $32 4.712388980384689674 $16 $52 forward 7 unknown #
coedge $-1 $17 $23 $22 $39 reversed $8 $-1 #
vertex $-1 $30 $53 #
vertex $-1 $30 $54 #
ellipse-curve $-1 0 50.79999999999999716 0 0 1 0 0 0 31.44424574250913906 1 I I #
face $-1 $55 $56 $2 $-1 $57 reversed single #
loop $-1 $-1 $58 $19 #
coedge $-1 $59 $60 $61 $62 reversed $20 $-1 #
coedge $-1 $24 $22 $60 $63 reversed $13 $-1 #
edge $-1 $32 5.769662962618924351e-16 $64 1.16796356299466364 $22 $65 forward 7 unknown #
coedge $-1 $58 $61 $23 $41 forward $36 $-1 #
edge $-1 $64 -3.141592653589793116 $42 -0 $40 $66 reversed 7 unknown #
vertex $-1 $63 $67 #
ellipse-curve $-1 31.44424574250914262 48.25999999999999091 0 0 0 1 -5.63993296509579491e-15 2.540000000000007585 0 1 I I #
coedge $-1 $68 $69 $26 $45 reversed $70 $-1 #
edge $-1 $50 1.570796326794912101 $49 4.712388980384673687 $26 $71 forward 7 unknown #
coedge $-1 $72 $27 $69 $73 forward $48 $-1 #
coedge $-1 $27 $72 $68 $74 reversed $48 $-1 #
loop $-1 $-1 $46 $75 #
vertex $-1 $45 $76 #
vertex $-1 $45 $77 #
ellipse-curve $-1 0 50.79999999999999716 0 0 1 0 0 0 32.25799999999999557 1 I I #
ellipse-curve $-1 0 50.79999999999999716 0 0 1 0 0 0 31.44424574250913906 1 I I #
point $-1 -31.44424574250913551 50.79999999999999716 -3.850682312742892308e-15 #
point $-1 31.44424574250913551 50.79999999999999716 0 #
face $-1 $78 $79 $2 $-1 $80 reversed single #
loop $-1 $-1 $81 $35 #
torus-surface $-1 0 83.57530603448277873 0 0 1 0 14.28750000000000142 38.33155603448278725 1 0 0 forward_v I I I I #
coedge $-1 $82 $40 $83 $84 reversed $36 $-1 #
coedge $-1 $83 $37 $85 $86 reversed $20 $-1 #
coedge $-1 $37 $83 $38 $63 forward $20 $-1 #
coedge $-1 $40 $82 $37 $62 forward $36 $-1 #
edge $-1 $87 -1.322788232409418446e-32 $64 0.05348374308074455713 $37 $88 forward 7 unknown #
edge $-1 $42 -0 $64 3.141592653589793116 $60 $89 reversed 7 unknown #
vertex $-1 $63 $90 #
ellipse-curve $-1 -31.44424574250914262 48.25999999999999091 3.850682312742893097e-15 -1.224606353822377258e-16 2.539820114160660713e-32 -1 5.63993296509579491e-15 2.540000000000007585 -6.261583435191780855e-31 1 I I #
ellipse-curve $-1 0 49.25574584850470217 0 0 -1 0 29.10756215135143421 0 0 1 I I #
point $-1 29.10756215135143066 49.25574584850468796 0 #
coedge $-1 $91 $44 $47 $74 forward $70 $-1 #
coedge $-1 $44 $91 $46 $73 reversed $70 $-1 #
loop $-1 $-1 $68 $92 #
ellipse-curve $-1 0 50.79999999999999716 0 0 1 0 0 0 32.25799999999999557 1 I I #
coedge $-1 $47 $46 $93 $94 forward $48 $-1 #
edge $-1 $49 1.143442290698893757e-13 $95 1.570796326803832299 $69 $96 forward 7 unknown #
edge $-1 $50 3.030530040936511956e-15 $97 1.570796326803739484 $68 $98 forward 7 unknown #
face $-1 $92 $48 $2 $-1 $99 forward single #
point $-1 -32.25799999999328804 50.79999999999999716 -5.068889752378791384e-13 #
point $-1 32.2579999999932383 50.79999999999999716 -4.991340674108731874e-13 #
face $-1 $100 $101 $2 $-1 $80 reversed single #
loop $-1 $-1 $102 $55 #
torus-surface $-1 0 46.53551613635960393 0 0 1 0 15.55749999999999744 1.269999999999999796 1 0 0 forward_v I I I I #
coedge $-1 $103 $104 $105 $106 forward $56 $-1 #
coedge $-1 $61 $58 $107 $108 forward $36 $-1 #
coedge $-1 $60 $59 $58 $84 forward $20 $-1 #
edge $-1 $109 5.483290806298333835e-17 $42 0.05348374308074455713 $83 $110 forward 7 unknown #
coedge $-1 $111 $112 $59 $86 forward $113 $-1 #
edge $-1 $109 -0 $87 3.141592653589793116 $85 $114 reversed 7 unknown #
vertex $-1 $115 $116 #
straight-curve $-1 -28.57499999999999929 48.00599999999998602 3.499312656047442384e-15 -9.957458485046929653 23.36683591157705209 1.219396692871119079e-15 I I #
ellipse-curve $-1 0 49.25574584850470217 0 0 -1 0 29.10756215135143421 0 0 1 I I #
point $-1 -29.10756215135143066 49.25574584850468796 -3.564530555482470741e-15 #
coedge $-1 $69 $68 $117 $118 forward $70 $-1 #
face $-1 $119 $70 $2 $-1 $99 forward single #
coedge $-1 $120 $121 $72 $94 reversed $122 $-1 #
edge $-1 $95 -3.141592653596776419 $97 7.019647330599942826e-12 $93 $123 forward 7 unknown #
vertex $-1 $118 $124 #
ellipse-curve $-1 -32.25800000000000267 50.03800000000000381 -8.268564860280057787e-11 4.12715955385169384e-10 -1.091858103635860472e-10 1 6.801759155905528557e-12 0.7619999999999950147 8.319958749424481847e-11 1 I I #
vertex $-1 $118 $125 #
ellipse-curve $-1 32.25799999999998136 50.03799999999998249 8.276967060169432378e-11 -4.128063326221733808e-10 -1.092766465510338733e-10 -1 -6.745359826254570605e-12 0.7620000000000175522 -8.326880466910520343e-11 1 I I #
torus-surface $-1 0 50.0379999999999967 0 0 1 0 32.25799999999999557 0.7619999999999998996 -0.1873813145857253226 0 -0.9822872507286886101 forward_v I I I I #
face $-1 $126 $127 $2 $-1 $128 forward single #
loop $-1 $-1 $129 $78 #
coedge $-1 $130 $105 $131 $132 forward $79 $-1 #
coedge $-1 $107 $81 $111 $115 forward $56 $-1 #
coedge $-1 $81 $107 $112 $133 reversed $56 $-1 #
coedge $-1 $102 $134 $81 $106 reversed $79 $-1 #
edge $-1 $135 -1.570796326794896558 $136 1.570796326794896558 $81 $137 reversed 7 unknown #
coedge $-1 $104 $103 $82 $108 reversed $56 $-1 #
edge $-1 $109 0 $87 3.141592653589793116 $107 $138 forward 7 unknown #
vertex $-1 $133 $139 #
straight-curve $-1 28.57499999999999929 48.00599999999998602 0 9.957458485046929653 23.36683591157705209 0 I I #
coedge $-1 $140 $85 $103 $115 reversed $113 $-1 #
coedge $-1 $85 $140 $104 $133 forward $113 $-1 #
loop $-1 $-1 $85 $141 #
ellipse-curve $-1 0 48.00599999999998602 0 0 -1 0 28.57500000000000284 0 0 1 I I #
edge $-1 $136 -2.901539955543290446e-17 $87 0.347680300968489342 $111 $142 forward 7 unknown #
point $-1 -28.57499999999999929 48.00599999999998602 -3.499312656047442384e-15 #
coedge $-1 $143 $144 $91 $118 reversed $145 $-1 #
edge $-1 $97 7.019647330599942826e-12 $95 3.141592653582809813 $117 $146 forward 7 unknown #
face $-1 $147 $148 $2 $-1 $149 reversed single #
coedge $-1 $150 $93 $144 $151 forward $122 $-1 #
coedge $-1 $93 $150 $143 $152 reversed $122 $-1 #
loop $-1 $-1 $120 $153 #
ellipse-curve $-1 0 50.0379999999999967 0 0 1 0 33.01999999999999602 0 0 1 I I #
point $-1 -33.01999999999999602 50.0379999999999967 -2.305944324376696128e-10 #
point $-1 33.01999999999999602 50.0379999999999896 -2.317887548564101249e-10 #
face $-1 $154 $155 $2 $-1 $128 forward single #
loop $-1 $-1 $156 $100 #
cone-surface $-1 0 44.96593749999999545 0 0 1 0 14.28749999999999787 0 0 1 I I 0 1 14.28749999999999964 forward I I I I #
coedge $-1 $157 $158 $134 $159 forward $101 $-1 #
coedge $-1 $134 $102 $160 $161 forward $79 $-1 #
coedge $-1 $158 $157 $102 $132 reversed $101 $-1 #
edge $-1 $135 3.01148597726766063e-15 $162 1.605070351328194755 $102 $163 forward 7 unknown #
edge $-1 $135 -2.901539955543290446e-17 $109 0.347680300968489453 $112 $164 forward 7 unknown #
coedge $-1 $105 $130 $129 $159 reversed $79 $-1 #
vertex $-1 $133 $165 #
vertex $-1 $166 $167 #
ellipse-curve $-1 0 45.26626200340174933 0 0 1 0 0 0 15.60101948953517237 1 I I #
ellipse-curve $-1 0 48.00599999999998602 0 0 -1 0 28.57500000000000284 0 0 1 I I #
point $-1 28.57500000000000284 48.00599999999998602 0 #
coedge $-1 $112 $111 $158 $166 reversed $113 $-1 #
face $-1 $-1 $113 $2 $-1 $57 reversed single #
ellipse-curve $-1 -14.28749999999996589 83.57530603448294926 1.749656328023711726e-15 -1.224606353822377751e-16 -1.393645213157390731e-31 -1 -1.313519489535225349 -38.30904403108119993 1.608544312754416335e-16 1 I I #
coedge $-1 $168 $117 $121 $152 forward $145 $-1 #
coedge $-1 $117 $168 $120 $151 reversed $145 $-1 #
loop $-1 $-1 $143 $169 #
ellipse-curve $-1 0 50.0379999999999967 0 0 1 0 33.01999999999999602 0 0 1 I I #
face $-1 $170 $171 $2 $-1 $172 forward single #
loop $-1 $-1 $173 $119 #
cone-surface $-1 0 47.625 0 0 -1 0 11.11249999999999893 0 0 1 I I 0 1 11.11249999999999893 forward I I I I #
coedge $-1 $121 $120 $174 $175 reversed $122 $-1 #
edge $-1 $95 0 $176 0.01522718576123047694 $144 $177 forward 7 unknown #
edge $-1 $97 2.797412345512205417e-16 $178 0.01522718576123047694 $143 $179 forward 7 unknown #
face $-1 $75 $122 $2 $-1 $180 forward single #
face $-1 $181 $182 $2 $-1 $183 forward single #
loop $-1 $-1 $184 $126 #
coedge $-1 $185 $186 $157 $187 forward $127 $-1 #
coedge $-1 $131 $129 $156 $187 reversed $101 $-1 #
coedge $-1 $129 $131 $140 $166 forward $101 $-1 #
edge $-1 $136 3.01148597726766063e-15 $188 1.605070351328194755 $134 $189 forward 7 unknown #
coedge $-1 $190 $191 $130 $161 reversed $155 $-1 #
edge $-1 $162 -0 $188 3.141592653589793116 $160 $192 reversed 7 unknown #
vertex $-1 $193 $194 #
ellipse-curve $-1 15.55750000000000632 46.53551613635961104 0 0 0 -1 0.04351948953518764568 -1.269254132957861936 0 1 I I #
ellipse-curve $-1 14.28749999999996589 83.57530603448294926 0 0 0 1 1.313519489535225349 -38.30904403108119993 0 1 I I #
point $-1 15.60101948953519013 45.26626200340174933 0 #
edge $-1 $135 1.570796326794896558 $136 4.712388980384689674 $140 $195 forward 7 unknown #
point $-1 -15.60101948953519013 45.26626200340174933 1.91051075929915331e-15 #
coedge $-1 $144 $143 $196 $197 forward $145 $-1 #
face $-1 $153 $145 $2 $-1 $180 forward single #
face $-1 $198 $199 $2 $-1 $200 reversed single #
loop $-1 $-1 $201 $147 #
plane-surface $-1 0 44.44999999999999574 0 0 1 0 25.39999999999999858 0 0 forward_v I I I I #
coedge $-1 $202 $203 $204 $205 forward $148 $-1 #
coedge $-1 $206 $207 $150 $175 forward $208 $-1 #
edge $-1 $178 -0 $176 3.141592653589793116 $150 $209 reversed 7 unknown #
vertex $-1 $151 $210 #
straight-curve $-1 -33.01999999999999602 50.0379999999999967 4.043650180321489328e-15 0 -25.39999999999999858 0 I I #
vertex $-1 $197 $211 #
straight-curve $-1 33.01999999999999602 50.0379999999999967 0 0 -25.39999999999999858 0 I I #
cone-surface $-1 0 19.96281249999999829 0 0 1 0 33.01999999999999602 0 0 1 I I 0 1 33.01999999999999602 forward I I I I #
face $-1 $212 $213 $2 $-1 $214 reversed single #
loop $-1 $215 $216 $154 #
plane-surface $-1 0 47.625 0 0 1 0 25.39999999999999858 0 0 forward_v I I I I #
coedge $-1 $191 $190 $217 $218 forward $155 $-1 #
coedge $-1 $219 $156 $191 $220 reversed $127 $-1 #
coedge $-1 $156 $219 $190 $193 forward $127 $-1 #
edge $-1 $162 0 $188 3.141592653589793116 $156 $221 forward 7 unknown #
vertex $-1 $220 $222 #
ellipse-curve $-1 -15.55750000000000632 46.53551613635961104 -1.905181334959164303e-15 -1.224606353822376272e-16 3.003247007028813065e-31 1 -0.04351948953518764568 -1.269254132957861936 -5.329424339989339766e-18 1 I I #
coedge $-1 $184 $160 $186 $193 reversed $155 $-1 #
coedge $-1 $160 $184 $185 $220 forward $155 $-1 #
ellipse-curve $-1 0 46.53551613635960393 0 0 1 0 14.28749999999999787 0 0 1 I I #
edge $-1 $223 0 $162 0.04289306549765366933 $186 $224 forward 7 unknown #
point $-1 14.28749999999999964 46.53551613635959683 0 #
ellipse-curve $-1 0 45.26626200340174933 0 0 1 0 0 0 15.60101948953517237 1 I I #
coedge $-1 $225 $226 $168 $197 reversed $227 $-1 #
edge $-1 $178 0 $176 3.141592653589793116 $168 $228 forward 7 unknown #
face $-1 $141 $229 $2 $-1 $230 reversed single #
loop $-1 $-1 $231 $170 #
cone-surface $-1 0 44.33093749999999034 0 0 1 0 11.90625 0 0 1 I I 0 1 11.90625 forward I I I I #
coedge $-1 $232 $233 $234 $235 reversed $171 $-1 #
coedge $-1 $236 $173 $237 $238 reversed $148 $-1 #
coedge $-1 $173 $236 $233 $239 reversed $148 $-1 #
coedge $-1 $240 $241 $173 $205 reversed $242 $-1 #
edge $-1 $243 3.175000000000004263 $244 10.31875000000000142 $173 $245 forward 7 unknown #
coedge $-1 $246 $174 $226 $247 reversed $208 $-1 #
coedge $-1 $174 $246 $225 $248 forward $208 $-1 #
loop $-1 $-1 $207 $249 #
ellipse-curve $-1 0 49.65122948166472838 0 0 1 0 33.01999999999999602 0 0 1 I I #
point $-1 -33.01999999999999602 49.65122948166474259 -4.043650180321489328e-15 #
point $-1 33.01999999999999602 49.65122948166474259 0 #
face $-1 $250 $251 $2 $-1 $252 reversed single #
loop $-1 $-1 $253 $181 #
cone-surface $-1 0 47.625 0 0 -1 0 11.11249999999999893 0 0 1 I I 0 1 11.11249999999999893 forward I I I I #
loop $-1 $-1 $254 $154 #
coedge $-1 $217 $217 $219 $255 forward $182 $-1 #
coedge $-1 $216 $216 $184 $218 reversed $182 $-1 #
edge $-1 $223 -0 $256 3.141592653589793116 $217 $257 reversed 7 unknown #
coedge $-1 $186 $185 $216 $255 reversed $127 $-1 #
edge $-1 $256 0 $188 0.04289306549765366933 $185 $258 forward 7 unknown #
ellipse-curve $-1 0 46.53551613635960393 0 0 1 0 14.28749999999999787 0 0 1 I I #
point $-1 -14.28749999999999964 46.53551613635959683 1.749656328023721389e-15 #
vertex $-1 $218 $259 #
straight-curve $-1 14.28749999999999964 47.625 0 0 -25.39999999999999858 0 I I #
coedge $-1 $260 $196 $207 $248 reversed $227 $-1 #
coedge $-1 $196 $260 $206 $247 forward $227 $-1 #
loop $-1 $-1 $226 $261 #
ellipse-curve $-1 0 49.65122948166472838 0 0 1 0 33.01999999999999602 0 0 1 I I #
loop $-1 $-1 $262 $198 #
plane-surface $-1 0 46.83124999999999716 0 0 1 0 25.39999999999999858 0 0 forward_v I I I I #
coedge $-1 $263 $264 $265 $266 reversed $199 $-1 #
coedge $-1 $267 $201 $263 $268 forward $171 $-1 #
coedge $-1 $201 $267 $203 $239 forward $171 $-1 #
coedge $-1 $269 $270 $201 $235 forward $251 $-1 #
edge $-1 $271 -0.4241148680949174965 $272 -0 $234 $273 reversed 7 unknown #
coedge $-1 $203 $202 $269 $274 reversed $148 $-1 #
coedge $-1 $275 $276 $202 $238 forward $277 $-1 #
edge $-1 $278 -1.386904514576780434 $244 1.386904514576780434 $237 $279 reversed 7 unknown #
edge $-1 $243 -1.386904514576780878 $272 1.386904514576780878 $203 $280 forward 7 unknown #
coedge $-1 $265 $204 $267 $281 forward $242 $-1 #
coedge $-1 $204 $282 $275 $283 reversed $242 $-1 #
loop $-1 $-1 $284 $285 #
vertex $-1 $239 $286 #
vertex $-1 $283 $287 #
straight-curve $-1 2.03199999999999692 47.625 -10.92513763071202604 0 -1 0 I I #
coedge $-1 $207 $206 $288 $289 reversed $208 $-1 #
edge $-1 $290 3.964836395214150206e-16 $176 1.149771877578421142 $206 $291 forward 7 unknown #
edge $-1 $292 -3.568352755692732671e-15 $178 1.149771877578421142 $207 $293 forward 7 unknown #
face $-1 $261 $208 $2 $-1 $294 forward single #
face $-1 $285 $295 $2 $-1 $296 reversed single #
loop $-1 $-1 $297 $212 #
cone-surface $-1 0 47.625 10.92513763071202604 0 1 0 2.032000000000000028 0 0 1 I I 0 1 2.032000000000000028 forward I I I I #
coedge $-1 $298 $299 $300 $301 reversed $213 $-1 #
coedge $-1 $302 $303 $298 $304 forward $215 $-1 #
edge $-1 $223 0 $256 3.141592653589793116 $216 $305 forward 7 unknown #
vertex $-1 $218 $306 #
ellipse-curve $-1 0 47.625 0 0 1 0 14.28749999999999787 0 0 1 I I #
straight-curve $-1 -14.28749999999999964 47.625 1.749656328023721389e-15 0 -25.39999999999999858 0 I I #
point $-1 14.28749999999999964 47.625 0 #
coedge $-1 $226 $225 $307 $308 forward $227 $-1 #
face $-1 $169 $227 $2 $-1 $294 forward single #
coedge $-1 $309 $310 $311 $312 forward $229 $-1 #
coedge $-1 $313 $231 $232 $268 reversed $199 $-1 #
coedge $-1 $231 $313 $309 $314 reversed $199 $-1 #
coedge $-1 $311 $240 $231 $266 forward $242 $-1 #
edge $-1 $315 -3.175000000000004263 $316 -0.7937500000000028422 $265 $317 forward 7 unknown #
coedge $-1 $233 $232 $240 $281 reversed $171 $-1 #
edge $-1 $271 -1.41461599889671219 $315 1.41461599889671219 $232 $318 forward 7 unknown #
coedge $-1 $319 $234 $236 $274 forward $251 $-1 #
coedge $-1 $234 $320 $313 $321 reversed $251 $-1 #
vertex $-1 $235 $322 #
vertex $-1 $239 $323 #
ellipse-curve $-1 0 44.44999999999999574 10.92513763071202604 -0 -1 -0 2.032000000000000028 0 0 1 I I #
edge $-1 $272 3.175000000000004263 $278 10.31875000000000142 $236 $324 reversed 7 unknown #
coedge $-1 $325 $237 $241 $283 forward $277 $-1 #
coedge $-1 $237 $325 $319 $326 forward $277 $-1 #
loop $-1 $-1 $276 $327 #
vertex $-1 $238 $328 #
ellipse-curve $-1 0 37.30624999999999858 0 0 -1 0 11.11249999999999893 0 0 1 I I #
ellipse-curve $-1 0 44.44999999999999574 0 -0 -1 -0 11.11249999999999893 0 0 1 I I #
edge $-1 $243 -0 $315 0.4241148680949174965 $240 $329 reversed 7 unknown #
coedge $-1 $241 $330 $331 $332 forward $242 $-1 #
edge $-1 $244 -0 $333 3.141592653589793116 $275 $334 reversed 7 unknown #
coedge $-1 $335 $311 $336 $337 reversed $242 $-1 #
face $-1 $338 $242 $2 $-1 $339 reversed single #
point $-1 2.031999999999995588 44.44999999999999574 -10.92513763071202604 #
point $-1 2.032000000000000028 37.30624999999999858 -10.92513763071202604 #
coedge $-1 $340 $341 $246 $289 forward $342 $-1 #
edge $-1 $292 -1.570796326794896558 $290 1.570796326794896558 $288 $343 reversed 7 unknown #
vertex $-1 $308 $344 #
ellipse-curve $-1 -29.8449999999999882 49.65122948166472838 -3.654837662982883129e-15 1.22460635382237997e-16 1.109335647967047195e-31 -1 -1.297608695652218591 -2.8977295720904932 -1.589059853470880853e-16 1 I I #
vertex $-1 $345 $346 #
ellipse-curve $-1 29.8449999999999882 49.65122948166472838 0 0 0 1 1.297608695652218591 -2.8977295720904932 0 1 I I #
torus-surface $-1 0 49.65122948166472838 0 0 1 0 29.84499999999999531 3.174999999999999822 1 0 0 forward_v I I I I #
loop $-1 $-1 $347 $250 #
cone-surface $-1 0 47.625 0 0 -1 0 11.11249999999999893 0 0 1 I I 0 1 11.11249999999999893 forward I I I I #
coedge $-1 $348 $349 $350 $351 reversed $251 $-1 #
coedge $-1 $336 $253 $254 $304 reversed $213 $-1 #
coedge $-1 $253 $336 $310 $352 forward $213 $-1 #
coedge $-1 $320 $348 $253 $301 forward $251 $-1 #
edge $-1 $353 -0 $354 0.7937500000000028422 $253 $355 reversed 7 unknown #
coedge $-1 $356 $254 $348 $357 reversed $215 $-1 #
coedge $-1 $254 $356 $335 $358 reversed $215 $-1 #
edge $-1 $359 -1.386904514576780434 $353 1.386904514576780434 $254 $360 reversed 7 unknown #
ellipse-curve $-1 0 47.625 0 0 1 0 14.28749999999999787 0 0 1 I I #
point $-1 -14.28749999999999964 47.625 1.749656328023721389e-15 #
coedge $-1 $361 $362 $260 $308 reversed $363 $-1 #
edge $-1 $292 1.570796326794896558 $290 4.712388980384689674 $307 $364 forward 7 unknown #
coedge $-1 $365 $262 $264 $314 forward $229 $-1 #
coedge $-1 $262 $365 $299 $352 reversed $229 $-1 #
coedge $-1 $284 $265 $262 $312 reversed $242 $-1 #
edge $-1 $366 -0 $316 0.4241148680949174965 $311 $367 reversed 7 unknown #
coedge $-1 $264 $263 $270 $321 forward $199 $-1 #
edge $-1 $316 -1.41461599889671219 $368 1.41461599889671219 $309 $369 reversed 7 unknown #
vertex $-1 $266 $370 #
vertex $-1 $312 $371 #
straight-curve $-1 1.851971575307632234 47.625 -11.76133454786286592 0 1 0 I I #
ellipse-curve $-1 0 44.44999999999999574 0 0 1 0 11.90625 0 0 1 I I #
coedge $-1 $372 $269 $276 $326 reversed $251 $-1 #
coedge $-1 $270 $300 $365 $373 reversed $251 $-1 #
edge $-1 $271 -3.175000000000004263 $368 -0.7937500000000028422 $270 $374 reversed 7 unknown #
point $-1 1.851971575307632234 44.44999999999999574 11.76133454786286592 #
point $-1 2.031999999999995588 44.44999999999999574 10.92513763071202604 #
straight-curve $-1 2.03199999999999692 47.625 10.92513763071202604 -0 1 -0 I I #
coedge $-1 $276 $275 $375 $376 forward $277 $-1 #
edge $-1 $377 -3.141592653589793116 $278 -0 $276 $378 reversed 7 unknown #
face $-1 $379 $380 $2 $-1 $381 reversed single #
point $-1 2.032000000000000917 37.30624999999999858 10.92513763071202604 #
ellipse-curve $-1 0 44.44999999999999574 -10.92513763071202604 -0 -1 -0 2.032000000000000028 0 0 1 I I #
coedge $-1 $282 $382 $383 $384 forward $242 $-1 #
coedge $-1 $385 $375 $282 $332 reversed $386 $-1 #
edge $-1 $387 3.175000000000004263 $333 10.31875000000000142 $331 $388 reversed 7 unknown #
vertex $-1 $376 $389 #
ellipse-curve $-1 0 37.30624999999999858 -10.92513763071202604 0 -1 0 2.032000000000000028 0 0 1 I I #
coedge $-1 $390 $284 $303 $358 forward $242 $-1 #
coedge $-1 $299 $298 $284 $337 forward $213 $-1 #
edge $-1 $359 0 $366 0.7937500000000028422 $336 $391 forward 7 unknown #
face $-1 $392 $393 $2 $-1 $394 reversed single #
cone-surface $-1 0 47.625 -10.92513763071202604 0 1 0 2.032000000000000028 0 0 1 I I 0 1 2.032000000000000028 forward I I I I #
coedge $-1 $395 $288 $362 $396 forward $342 $-1 #
coedge $-1 $288 $395 $361 $345 reversed $342 $-1 #
loop $-1 $-1 $288 $397 #
ellipse-curve $-1 0 46.75349990957421653 0 0 1 0 0 0 31.14260869565216794 1 I I #
point $-1 -31.14260869565220702 46.75349990957423785 3.813743648329971658e-15 #
edge $-1 $292 0 $398 0.2108772161222933206 $361 $399 forward 7 unknown #
point $-1 31.14260869565219636 46.75349990957423074 0 #
coedge $-1 $400 $401 $390 $402 reversed $295 $-1 #
coedge $-1 $300 $297 $302 $357 forward $251 $-1 #
coedge $-1 $297 $403 $404 $405 reversed $251 $-1 #
coedge $-1 $401 $400 $297 $351 forward $295 $-1 #
edge $-1 $406 0 $407 0.7937500000000028422 $350 $408 forward 7 unknown #
edge $-1 $366 -1.386904514576780878 $354 1.386904514576780878 $299 $409 forward 7 unknown #
vertex $-1 $357 $410 #
vertex $-1 $352 $411 #
straight-curve $-1 2.03199999999999692 47.625 10.92513763071202604 -0 1 -0 I I #
coedge $-1 $303 $302 $400 $412 forward $215 $-1 #
edge $-1 $406 -3.141592653589793116 $353 0 $302 $413 forward 7 unknown #
edge $-1 $359 0 $414 3.141592653589793116 $303 $415 forward 7 unknown #
vertex $-1 $358 $416 #
ellipse-curve $-1 0 47.625 0 0 1 0 11.11249999999999893 0 0 1 I I #
coedge $-1 $417 $307 $341 $345 forward $363 $-1 #
coedge $-1 $307 $417 $340 $396 reversed $363 $-1 #
loop $-1 $-1 $417 $418 #
ellipse-curve $-1 0 46.75349990957421653 0 0 1 0 0 0 31.14260869565216794 1 I I #
coedge $-1 $310 $309 $320 $373 forward $229 $-1 #
vertex $-1 $352 $419 #
ellipse-curve $-1 0 46.83124999999999716 -10.92513763071202604 -0 -1 -0 2.032000000000000028 0 0 1 I I #
vertex $-1 $321 $420 #
ellipse-curve $-1 0 46.83124999999999716 0 0 1 0 11.90625 0 0 1 I I #
point $-1 1.851971575307632234 44.44999999999999574 -11.76133454786286592 #
point $-1 1.851971575307632234 46.83124999999999716 -11.76133454786286592 #
coedge $-1 $421 $319 $422 $423 reversed $251 $-1 #
edge $-1 $368 -0.4241148680949174965 $354 -0 $320 $424 reversed 7 unknown #
straight-curve $-1 1.851971575307632234 47.625 11.76133454786286592 -0 -1 -0 I I #
coedge $-1 $331 $422 $325 $376 reversed $386 $-1 #
edge $-1 $333 -4.528497168166573772 $377 -1.754688139013012682 $325 $425 reversed 7 unknown #
vertex $-1 $376 $426 #
ellipse-curve $-1 0 37.30624999999999858 10.92513763071202604 0 -1 0 2.032000000000000028 0 0 1 I I #
face $-1 $427 $428 $2 $-1 $429 reversed single #
loop $-1 $277 $430 $327 #
plane-surface $-1 0 37.30624999999999858 0 0 -1 0 25.39999999999999858 0 0 forward_v I I I I #
coedge $-1 $330 $431 $432 $433 reversed $242 $-1 #
coedge $-1 $434 $435 $330 $384 reversed $436 $-1 #
edge $-1 $437 2.717477785494875508 $387 3.141592653589793116 $330 $438 reversed 7 unknown #
coedge $-1 $422 $331 $435 $439 reversed $386 $-1 #
loop $-1 $-1 $422 $440 #
vertex $-1 $439 $441 #
straight-curve $-1 -2.03199999999999692 47.625 -10.92513763071202604 -0 1 -0 I I #
point $-1 -2.03199999999999914 37.30624999999999858 -10.92513763071202604 #
coedge $-1 $431 $335 $347 $402 forward $242 $-1 #
straight-curve $-1 2.03199999999999692 47.625 -10.92513763071202604 0 -1 0 I I #
face $-1 $442 $443 $2 $-1 $444 reversed single #
loop $-1 $-1 $404 $338 #
plane-surface $-1 0 46.83124999999999716 0 0 1 0 25.39999999999999858 0 0 forward_v I I I I #
coedge $-1 $341 $340 $445 $446 reversed $342 $-1 #
edge $-1 $290 -7.83177559548474022e-17 $447 0.2108772161222933206 $362 $448 forward 7 unknown #
face $-1 $249 $342 $2 $-1 $449 forward single #
vertex $-1 $345 $450 #
ellipse-curve $-1 0 116.2990096397465152 0 0 0 -1 31.14260869565219636 -69.54550973017228443 0 1 I I #
coedge $-1 $350 $347 $356 $412 reversed $295 $-1 #
coedge $-1 $347 $350 $451 $452 forward $295 $-1 #
edge $-1 $414 -0 $453 0.7937500000000028422 $347 $454 reversed 7 unknown #
coedge $-1 $349 $421 $455 $456 forward $251 $-1 #
coedge $-1 $457 $451 $349 $405 forward $393 $-1 #
edge $-1 $407 -3.141592653589793116 $458 -2.717477785494875508 $349 $459 reversed 7 unknown #
vertex $-1 $412 $460 #
vertex $-1 $452 $461 #
straight-curve $-1 -2.03199999999999692 47.625 10.92513763071202604 0 -1 0 I I #
ellipse-curve $-1 0 46.83124999999999716 0 -0 -1 -0 11.11249999999999893 0 0 1 I I #
point $-1 2.032000000000000028 47.625 10.92513763071202604 #
point $-1 2.031999999999995588 46.83124999999999716 10.92513763071202604 #
edge $-1 $406 -4.528497168166573772 $414 -1.754688139013012904 $356 $462 reversed 7 unknown #
ellipse-curve $-1 0 47.625 10.92513763071202604 0 1 0 2.032000000000000028 0 0 1 I I #
vertex $-1 $358 $463 #
ellipse-curve $-1 0 47.625 -10.92513763071202604 0 1 0 2.032000000000000028 0 0 1 I I #
point $-1 2.032000000000000028 47.625 -10.92513763071202604 #
coedge $-1 $362 $361 $464 $465 forward $363 $-1 #
face $-1 $397 $363 $2 $-1 $449 forward single #
point $-1 2.031999999999995588 46.83124999999999716 -10.92513763071202604 #
point $-1 1.851971575307632234 46.83124999999999716 11.76133454786286592 #
coedge $-1 $403 $372 $466 $467 forward $251 $-1 #
coedge $-1 $375 $385 $372 $423 forward $386 $-1 #
edge $-1 $468 3.175000000000004263 $377 10.31875000000000142 $422 $469 forward 7 unknown #
ellipse-curve $-1 0 46.83124999999999716 10.92513763071202604 -0 -1 -0 2.032000000000000028 0 0 1 I I #
ellipse-curve $-1 0 37.30624999999999858 0 0 -1 0 11.11249999999999893 0 0 1 I I #
point $-1 -2.03199999999999914 37.30624999999999858 10.92513763071202604 #
face $-1 $470 $471 $2 $-1 $429 reversed single #
loop $-1 $-1 $472 $379 #
cone-surface $-1 0 37.30624999999999858 0 0 -1 0 2.778124999999999734 0 0 1 I I 0 1 2.778124999999999734 forward I I I I #
coedge $-1 $473 $473 $474 $475 forward $380 $-1 #
coedge $-1 $382 $390 $476 $477 reversed $242 $-1 #
coedge $-1 $478 $479 $382 $433 forward $443 $-1 #
edge $-1 $437 -3.175000000000004263 $480 -0.7937500000000028422 $382 $481 reversed 7 unknown #
coedge $-1 $466 $383 $479 $482 forward $436 $-1 #
coedge $-1 $383 $466 $385 $439 forward $436 $-1 #
loop $-1 $-1 $383 $442 #
vertex $-1 $384 $483 #
ellipse-curve $-1 0 44.44999999999999574 -10.92513763071202604 -0 -1 -0 2.032000000000000028 0 0 1 I I #
edge $-1 $468 1.754688139013012682 $387 4.528497168166573772 $385 $484 forward 7 unknown #
face $-1 $327 $386 $2 $-1 $485 reversed single #
point $-1 -2.03199999999999692 44.44999999999999574 -10.92513763071202604 #
face $-1 $440 $436 $2 $-1 $486 forward single #
loop $-1 $-1 $432 $392 #
cone-surface $-1 0 44.33093749999999034 0 0 1 0 11.90625 0 0 1 I I 0 1 11.90625 forward I I I I #
coedge $-1 $487 $488 $395 $446 forward $489 $-1 #
edge $-1 $398 -1.570796326794896558 $447 1.570796326794896558 $395 $490 reversed 7 unknown #
vertex $-1 $396 $491 #
ellipse-curve $-1 0 116.2990096397465152 0 1.224606353822377258e-16 5.478200730701469883e-33 1 -31.14260869565219636 -69.54550973017228443 3.813743648329969291e-15 1 I I #
sphere-surface $-1 0 116.2990096397465152 0 76.19999999999998863 1 0 0 0 0 1 forward_v I I I I #
point $-1 15.89561688311687071 41.77539349086946174 0 #
coedge $-1 $404 $476 $401 $452 reversed $393 $-1 #
edge $-1 $407 1.754688139013012682 $453 4.528497168166573772 $401 $492 forward 7 unknown #
vertex $-1 $452 $493 #
straight-curve $-1 -2.03199999999999692 47.625 -10.92513763071202604 -0 1 -0 I I #
coedge $-1 $479 $478 $403 $456 reversed $443 $-1 #
edge $-1 $494 -3.175000000000004263 $458 -0.7937500000000028422 $403 $495 forward 7 unknown #
coedge $-1 $476 $404 $478 $496 forward $393 $-1 #
vertex $-1 $405 $497 #
ellipse-curve $-1 0 46.83124999999999716 10.92513763071202604 -0 -1 -0 2.032000000000000028 0 0 1 I I #
point $-1 -2.03199999999999914 47.625 10.92513763071202604 #
point $-1 -2.03199999999999692 46.83124999999999716 10.92513763071202604 #
ellipse-curve $-1 0 47.625 0 0 1 0 11.11249999999999893 0 0 1 I I #
point $-1 -2.032000000000000028 47.625 -10.92513763071202604 #
coedge $-1 $498 $499 $417 $465 reversed $500 $-1 #
edge $-1 $398 1.570796326794896558 $447 4.712388980384689674 $417 $501 forward 7 unknown #
coedge $-1 $435 $434 $421 $467 reversed $436 $-1 #
edge $-1 $468 -3.141592653589793116 $494 -2.717477785494875508 $421 $502 reversed 7 unknown #
vertex $-1 $439 $503 #
straight-curve $-1 -2.03199999999999692 47.625 10.92513763071202604 0 -1 0 I I #
face $-1 $504 $505 $2 $-1 $506 reversed single #
loop $-1 $-1 $507 $427 #
coedge $-1 $474 $508 $509 $510 reversed $428 $-1 #
coedge $-1 $430 $430 $511 $512 forward $380 $-1 #
coedge $-1 $513 $472 $430 $475 reversed $428 $-1 #
edge $-1 $514 -3.141592653589793116 $515 0 $430 $516 forward 7 unknown #
coedge $-1 $451 $457 $431 $477 forward $393 $-1 #
edge $-1 $480 2.717477785494875508 $453 3.141592653589793116 $431 $517 reversed 7 unknown #
coedge $-1 $455 $432 $457 $496 reversed $443 $-1 #
coedge $-1 $432 $455 $434 $482 reversed $443 $-1 #
vertex $-1 $433 $518 #
straight-curve $-1 -1.851971575307632234 47.625 -11.76133454786286592 -0 -1 -0 I I #
edge $-1 $437 1.726976654693081148 $494 4.556208652486505528 $434 $519 forward 7 unknown #
point $-1 -1.851971575307632012 44.44999999999999574 -11.76133454786286592 #
ellipse-curve $-1 0 44.44999999999999574 0 -0 -1 -0 11.11249999999999893 0 0 1 I I #
cone-surface $-1 0 47.625 0 0 -1 0 11.11249999999999893 0 0 1 I I 0 1 11.11249999999999893 forward I I I I #
plane-surface $-1 0 44.44999999999999574 0 0 1 0 25.39999999999999858 0 0 forward_v I I I I #
coedge $-1 $520 $445 $499 $521 reversed $489 $-1 #
coedge $-1 $445 $520 $498 $522 forward $489 $-1 #
loop $-1 $-1 $488 $523 #
ellipse-curve $-1 0 41.77539349086946174 0 0 1 0 0 0 15.89561688311688137 1 I I #
point $-1 -15.89561688311687071 41.77539349086946174 1.946587343299117309e-15 #
ellipse-curve $-1 0 46.83124999999999716 0 -0 -1 -0 11.11249999999999893 0 0 1 I I #
point $-1 -2.03199999999999692 46.83124999999999716 -10.92513763071202604 #
vertex $-1 $456 $524 #
straight-curve $-1 -1.851971575307632234 47.625 11.76133454786286592 0 1 0 I I #
edge $-1 $458 -4.556208652486505528 $480 -1.726976654693081148 $457 $525 reversed 7 unknown #
point $-1 -1.851971575307632012 46.83124999999999716 11.76133454786286592 #
coedge $-1 $526 $464 $488 $522 reversed $500 $-1 #
coedge $-1 $464 $526 $487 $521 forward $500 $-1 #
loop $-1 $-1 $499 $527 #
ellipse-curve $-1 0 41.77539349086946174 0 0 1 0 0 0 15.89561688311688137 1 I I #
ellipse-curve $-1 0 44.44999999999999574 10.92513763071202604 -0 -1 -0 2.032000000000000028 0 0 1 I I #
point $-1 -2.03199999999999692 44.44999999999999574 10.92513763071202604 #
face $-1 $528 $529 $2 $-1 $530 reversed single #
loop $-1 $531 $532 $470 #
plane-surface $-1 0 19.04999999999999716 0 0 1 0 -25.39999999999999858 0 0 forward_v I I I I #
coedge $-1 $511 $533 $513 $534 reversed $471 $-1 #
coedge $-1 $472 $513 $535 $536 forward $428 $-1 #
coedge $-1 $533 $511 $472 $510 forward $471 $-1 #
edge $-1 $515 0 $537 0.718750000000000111 $509 $538 forward 7 unknown #
coedge $-1 $509 $507 $473 $512 reversed $471 $-1 #
edge $-1 $515 0 $514 3.141592653589793116 $473 $539 forward 7 unknown #
coedge $-1 $508 $474 $507 $534 forward $428 $-1 #
vertex $-1 $512 $540 #
vertex $-1 $512 $541 #
ellipse-curve $-1 0 37.30624999999999858 0 0 -1 0 2.778124999999999734 0 0 1 I I #
ellipse-curve $-1 0 46.83124999999999716 -10.92513763071202604 -0 -1 -0 2.032000000000000028 0 0 1 I I #
point $-1 -1.851971575307632012 46.83124999999999716 -11.76133454786286592 #
ellipse-curve $-1 0 44.44999999999999574 0 0 1 0 11.90625 0 0 1 I I #
coedge $-1 $488 $487 $542 $543 reversed $489 $-1 #
edge $-1 $544 7.212078703273649769e-16 $447 1.36064909370071585 $487 $545 forward 7 unknown #
edge $-1 $546 7.212078703273649769e-16 $398 1.36064909370071585 $488 $547 forward 7 unknown #
face $-1 $527 $489 $2 $-1 $548 reversed single #
point $-1 -1.851971575307632012 44.44999999999999574 11.76133454786286592 #
ellipse-curve $-1 0 46.83124999999999716 0 0 1 0 11.90625 0 0 1 I I #
coedge $-1 $499 $498 $549 $550 forward $500 $-1 #
face $-1 $418 $500 $2 $-1 $548 reversed single #
face $-1 $551 $552 $2 $-1 $530 reversed single #
loop $-1 $-1 $553 $504 #
cone-surface $-1 0 0 0 0 1 0 -33.33749999999999147 0 0 1 I I 0 1 33.33749999999999858 forward I I I I #
loop $-1 $-1 $535 $470 #
coedge $-1 $554 $554 $555 $556 reversed $505 $-1 #
coedge $-1 $507 $509 $557 $558 forward $471 $-1 #
edge $-1 $514 0 $559 0.718750000000000111 $507 $560 forward 7 unknown #
coedge $-1 $557 $557 $508 $536 reversed $531 $-1 #
edge $-1 $559 -3.141592653589793116 $537 0 $508 $561 forward 7 unknown #
vertex $-1 $558 $562 #
straight-curve $-1 2.778124999999999734 37.30624999999999858 0 0 -25.39999999999999858 0 I I #
ellipse-curve $-1 0 37.30624999999999858 0 0 -1 0 2.778124999999999734 0 0 1 I I #
point $-1 -2.778124999999999734 37.30624999999999858 0 #
point $-1 2.778124999999999734 37.30624999999999858 0 #
coedge $-1 $563 $564 $520 $543 forward $565 $-1 #
edge $-1 $546 -0 $544 3.141592653589793116 $542 $566 reversed 7 unknown #
vertex $-1 $550 $567 #
ellipse-curve $-1 -16.31950000000000145 39.78809706023273662 -1.998496339120428276e-15 -1.224606353822376272e-16 2.101735857230161003e-31 1 2.032000000000001805 5.63993296509579491e-15 2.488400110967070841e-16 1 I I #
vertex $-1 $568 $569 #
ellipse-curve $-1 16.31950000000000145 39.78809706023273662 0 0 0 -1 -2.032000000000001805 5.63993296509579491e-15 0 1 I I #
torus-surface $-1 0 39.78809706023273662 0 0 1 0 16.3194999999999979 2.032000000000000028 1 0 0 forward_v I I I I #
coedge $-1 $570 $571 $526 $550 reversed $572 $-1 #
edge $-1 $546 0 $544 3.141592653589793116 $549 $573 forward 7 unknown #
face $-1 $574 $575 $2 $-1 $576 forward single #
loop $-1 $-1 $577 $528 #
coedge $-1 $555 $578 $579 $580 forward $529 $-1 #
coedge $-1 $532 $532 $581 $582 reversed $505 $-1 #
coedge $-1 $583 $553 $532 $556 forward $529 $-1 #
edge $-1 $584 -3.141592653589793116 $585 0 $532 $586 forward 7 unknown #
coedge $-1 $535 $535 $533 $558 reversed $531 $-1 #
edge $-1 $537 0 $559 3.141592653589793116 $533 $587 forward 7 unknown #
vertex $-1 $558 $588 #
straight-curve $-1 -2.778124999999999734 37.30624999999999858 3.402109526712791426e-16 0 -25.39999999999999858 0 I I #
ellipse-curve $-1 0 19.04999999999999716 0 -0 -1 -0 2.778124999999999734 0 0 1 I I #
point $-1 2.778124999999999734 19.04999999999999716 0 #
coedge $-1 $589 $542 $571 $590 forward $565 $-1 #
coedge $-1 $542 $589 $570 $568 reversed $565 $-1 #
loop $-1 $-1 $542 $591 #
ellipse-curve $-1 0 39.78809706023273662 0 0 1 0 14.28749999999999787 0 0 1 I I #
point $-1 -14.28749999999999964 39.78809706023274373 1.749656328023721192e-15 #
edge $-1 $546 0 $592 0.6427105141823916679 $570 $593 forward 7 unknown #
point $-1 14.28749999999999964 39.78809706023274373 0 #
coedge $-1 $594 $549 $564 $568 forward $572 $-1 #
coedge $-1 $549 $594 $563 $590 reversed $572 $-1 #
loop $-1 $-1 $594 $595 #
ellipse-curve $-1 0 39.78809706023273662 0 0 1 0 14.28749999999999787 0 0 1 I I #
face $-1 $596 $597 $2 $-1 $576 forward single #
loop $-1 $-1 $598 $551 #
torus-surface $-1 0 0.7937499999999999556 0 0 1 0 34.13124999999999432 0.7937499999999999556 0.03141075907812811846 0 0.9995065603657316 forward_v I I I I #
coedge $-1 $581 $599 $583 $600 forward $552 $-1 #
coedge $-1 $553 $583 $601 $602 reversed $529 $-1 #
coedge $-1 $599 $581 $553 $580 reversed $552 $-1 #
edge $-1 $603 -4.370956789862820965e-18 $584 0.71875 $579 $604 forward 7 unknown #
coedge $-1 $579 $577 $554 $582 forward $552 $-1 #
edge $-1 $585 0 $584 3.141592653589793116 $554 $605 forward 7 unknown #
coedge $-1 $578 $555 $577 $600 reversed $529 $-1 #
vertex $-1 $582 $606 #
vertex $-1 $582 $607 #
ellipse-curve $-1 0 19.04999999999999716 0 0 1 0 -33.33749999999999147 0 0 1 I I #
ellipse-curve $-1 0 19.04999999999999716 0 -0 -1 -0 2.778124999999999734 0 0 1 I I #
point $-1 -2.778124999999999734 19.04999999999999716 0 #
coedge $-1 $564 $563 $608 $609 reversed $565 $-1 #
edge $-1 $544 -3.017755630705245539e-48 $610 0.6427105141823916679 $571 $611 forward 7 unknown #
face $-1 $523 $565 $2 $-1 $612 forward single #
vertex $-1 $568 $613 #
straight-curve $-1 14.28749999999999964 39.78809706023274373 0 0 -25.39999999999999858 0 I I #
coedge $-1 $571 $570 $614 $615 forward $572 $-1 #
face $-1 $591 $572 $2 $-1 $612 forward single #
face $-1 $616 $617 $2 $-1 $618 forward single #
loop $-1 $-1 $619 $574 #
coedge $-1 $620 $621 $622 $623 forward $575 $-1 #
coedge $-1 $577 $579 $621 $624 reversed $552 $-1 #
edge $-1 $625 1.049029629567077155e-16 $585 0.71875 $577 $626 forward 7 unknown #
coedge $-1 $619 $622 $578 $602 forward $597 $-1 #
edge $-1 $603 -3.141592684507205746 $625 3.098118117605963562e-08 $578 $627 forward 7 unknown #
vertex $-1 $624 $628 #
intcurve-curve $-1 forward { surfcur full nubs 1 open 2 
	-4.370956789862820965e-18 1 0.71875 1 
	33.33749999999998437 0.7937499999999998446 1.030709249579858558e-06 
	33.33749999999999858 19.04999999999999716 0 
	0.01000000000000000021 
	cone 0 0 0 0 1 0 -33.33749999999999147 0 0 1 I I 0 1 33.33749999999999858 forward I I I I 
	null_surface 
	nullbs 
	nullbs 
	I I 
	0 
	0 
	0 
	surf1 } I I #
ellipse-curve $-1 0 19.04999999999999716 0 0 1 0 -33.33749999999999147 0 0 1 I I #
point $-1 33.33749999999999858 19.04999999999999716 0 #
point $-1 -33.33749999999999858 19.04999999999999716 0 #
coedge $-1 $629 $630 $589 $609 forward $631 $-1 #
edge $-1 $592 -0 $610 3.14159265358979356 $589 $632 reversed 7 unknown #
vertex $-1 $590 $633 #
straight-curve $-1 -14.28749999999999964 39.78809706023274373 1.749656328023721389e-15 0 -25.39999999999999858 9.872134414673935129e-15 I I #
cone-surface $-1 0 19.96281249999999829 0 0 1 0 14.28749999999999787 0 0 1 I I 0 1 14.28749999999999964 forward I I I I #
point $-1 14.28749999999999964 23.46324999999999505 0 #
coedge $-1 $634 $635 $594 $615 reversed $636 $-1 #
edge $-1 $592 0 $610 3.141592653589792672 $594 $637 forward 7 unknown #
face $-1 $638 $639 $2 $-1 $618 forward single #
loop $-1 $-1 $640 $596 #
cone-surface $-1 0 0 0 0 1 0 34.92499999999999716 0 0 1 I I 0 1 34.92499999999999716 forward I I I I #
coedge $-1 $641 $601 $642 $643 forward $597 $-1 #
coedge $-1 $642 $598 $644 $645 reversed $575 $-1 #
coedge $-1 $598 $642 $599 $624 forward $575 $-1 #
coedge $-1 $601 $641 $598 $623 reversed $597 $-1 #
edge $-1 $603 -3.901419869582204559e-13 $646 3.141592653589819317 $598 $647 forward 7 unknown #
edge $-1 $625 3.098118111925754e-08 $603 3.141592622672380486 $599 $648 forward 7 unknown #
vertex $-1 $624 $649 #
intcurve-curve $-1 forward { surfcur full nubs 1 open 2 
	1.049029629567077155e-16 1 0.71875 1 
	-33.33749999999997726 0.7937500000000026201 1.032835125563247608e-06 
	-33.33749999999999858 19.04999999999999716 0 
	0.01000000000000000021 
	cone 0 0 0 0 1 0 -33.33749999999999147 0 0 1 I I 0 1 33.33749999999999858 forward I I I I 
	null_surface 
	nullbs 
	nullbs 
	I I 
	0 
	0 
	0 
	surf1 } I I #
ellipse-curve $-1 0 0.7937499999999999556 0 0 1 0 -33.33749999999999147 0 0 1 I I #
point $-1 33.33749999999998437 0.7937499999999998446 1.030709249579858558e-06 #
coedge $-1 $650 $608 $635 $651 reversed $631 $-1 #
coedge $-1 $608 $650 $634 $652 forward $631 $-1 #
loop $-1 $-1 $630 $653 #
ellipse-curve $-1 0 23.46324999999999861 0 0 1 0 14.28749999999999787 0 0 1 I I #
point $-1 -14.28749999999999964 23.46324999999999505 -8.094580913756491452e-15 #
coedge $-1 $654 $614 $630 $652 reversed $636 $-1 #
coedge $-1 $614 $654 $629 $651 forward $636 $-1 #
loop $-1 $-1 $635 $655 #
ellipse-curve $-1 0 23.46324999999999861 0 0 1 0 14.28749999999999787 0 0 1 I I #
face $-1 $656 $657 $2 $-1 $658 forward single #
loop $-1 $-1 $659 $616 #
coedge $-1 $660 $661 $662 $663 forward $617 $-1 #
coedge $-1 $622 $619 $661 $664 reversed $597 $-1 #
coedge $-1 $621 $620 $619 $643 reversed $575 $-1 #
edge $-1 $625 -6.469016048987900354e-17 $665 3.141592653590233652 $642 $666 forward 7 unknown #
coedge $-1 $659 $662 $620 $645 forward $639 $-1 #
edge $-1 $665 -3.141592684516746559 $646 3.099075041035348477e-08 $644 $667 forward 7 unknown #
vertex $-1 $664 $668 #
intcurve-curve $-1 forward { surfcur full nurbs 2 open 3 
	-3.901419869582204559e-13 2 1.57079632679471537 2 3.141592653589819317 2 
	33.33749999999998437 0.7937499999999998446 1.030709249579858558e-06 1 
	33.33749999999966462 -1.567145564187769048e-13 9.110749165293302748e-07 0.7071067811864736319 
	34.13124999999983089 -3.110844914999688626e-13 8.863165013522080764e-07 1 
	34.92499999999998295 -1.546474908373478936e-13 -1.201986288967973701e-06 0.7071067811864766295 
	34.92499999999997584 0.793750000000002065 -1.082351955917435042e-06 1 
	0.01000000000000000021 
	torus 0 0.7937499999999999556 0 0 1 0 34.13124999999999432 0.7937499999999999556 0.03141075907812811846 0 0.9995065603657316 forward_v I I I I 
	null_surface 
	nullbs 
	nullbs 
	I I 
	1 1.57079632679471537 
	0 
	0 
	surf1 } I I #
ellipse-curve $-1 0 0.7937499999999999556 0 0 1 0 -33.33749999999999147 0 0 1 I I #
point $-1 -33.33749999999997726 0.7937500000000026201 1.032835125563247608e-06 #
coedge $-1 $630 $629 $669 $670 reversed $631 $-1 #
edge $-1 $671 -1.357510602335867502e-44 $610 1.570796326794893227 $629 $672 forward 7 unknown #
edge $-1 $673 0 $592 1.570796326794893227 $630 $674 forward 7 unknown #
face $-1 $655 $631 $2 $-1 $675 reversed single #
coedge $-1 $635 $634 $676 $677 forward $636 $-1 #
face $-1 $595 $636 $2 $-1 $675 reversed single #
face $-1 $678 $679 $2 $-1 $658 forward single #
loop $-1 $-1 $680 $638 #
torus-surface $-1 0 19.39924999999999855 0 0 1 0 32.89300000000000068 2.032000000000000028 1 0 0 forward_v I I I I #
coedge $-1 $681 $644 $682 $683 forward $639 $-1 #
coedge $-1 $682 $640 $684 $685 reversed $617 $-1 #
coedge $-1 $640 $682 $641 $664 forward $617 $-1 #
coedge $-1 $644 $681 $640 $663 reversed $639 $-1 #
edge $-1 $665 8.304817900739359987e-17 $686 0.73250000000000004 $640 $687 forward 7 unknown #
edge $-1 $646 3.099075034838755867e-08 $665 3.141592622662839673 $661 $688 forward 7 unknown #
vertex $-1 $664 $689 #
intcurve-curve $-1 forward { surfcur full nurbs 2 open 3 
	-6.469016048987900354e-17 2 1.570796326795112163 2 3.141592653590233652 2 
	-33.33749999999997726 0.7937500000000026201 1.032835125563247608e-06 1 
	-33.33749999999996305 -1.636371439220426769e-13 1.152469461468365862e-06 0.7071067811864635289 
	-34.13125000000013642 -3.267386361471835698e-13 -9.852479192389820674e-07 1 
	-34.9250000000003098 -1.641562040985342616e-13 -9.604895195717228298e-07 0.7071067811864757413 
	-34.92499999999997584 0.793750000000002065 -1.080123855476852095e-06 1 
	0.01000000000000000021 
	torus 0 0.7937499999999999556 0 0 1 0 34.13124999999999432 0.7937499999999999556 0.03141075907812811846 0 0.9995065603657316 forward_v I I I I 
	null_surface 
	nullbs 
	nullbs 
	I I 
	1 1.570796326795112163 
	0 
	0 
	surf1 } I I #
ellipse-curve $-1 0 0.7937499999999999556 0 0 1 0 34.92499999999999716 0 0 1 I I #
point $-1 34.92499999999997584 0.793750000000002065 -1.082351955917435042e-06 #
coedge $-1 $676 $676 $650 $670 forward $690 $-1 #
edge $-1 $673 -1.570796326794896558 $671 1.57079632679489678 $669 $691 reversed 7 unknown #
vertex $-1 $677 $692 #
ellipse-curve $-1 -16.3194999999999979 23.46325000000000216 -1.282996012554211537e-14 -2.330403155406298851e-15 5.330444776782322178e-15 1 0 -2.032000000000001805 1.08314637864216871e-14 1 I I #
vertex $-1 $677 $693 #
ellipse-curve $-1 16.3194999999999979 23.46325000000000216 0 0 0 -1 0 -2.032000000000001805 0 1 I I #
torus-surface $-1 0 23.46324999999999861 0 0 1 0 16.3194999999999979 2.032000000000000028 1 0 0 forward_v I I I I #
coedge $-1 $669 $669 $654 $677 reversed $690 $-1 #
edge $-1 $673 1.570796326794896558 $671 4.712388980384689674 $676 $694 forward 7 unknown #
face $-1 $653 $690 $2 $-1 $695 forward single #
loop $-1 $-1 $696 $656 #
coedge $-1 $697 $698 $699 $700 forward $657 $-1 #
coedge $-1 $662 $659 $697 $701 reversed $639 $-1 #
coedge $-1 $661 $660 $659 $683 reversed $617 $-1 #
edge $-1 $646 8.304817900739359987e-17 $702 0.73250000000000004 $682 $703 forward 7 unknown #
coedge $-1 $699 $696 $660 $685 forward $679 $-1 #
edge $-1 $702 0 $686 3.141592653589793116 $660 $704 forward 7 unknown #
vertex $-1 $685 $705 #
intcurve-curve $-1 forward { surfcur full nubs 1 open 2 
	8.304817900739359987e-17 1 0.73250000000000004 1 
	-34.92499999999997584 0.793750000000002065 -1.080123855476852095e-06 
	-34.92499999999999716 19.39924999999999855 -4.276937690724652417e-15 
	0.01000000000000000021 
	cone 0 0 0 0 1 0 34.92499999999999716 0 0 1 I I 0 1 34.92499999999999716 forward I I I I 
	null_surface 
	nullbs 
	nullbs 
	I I 
	0 
	0 
	0 
	surf1 } I I #
ellipse-curve $-1 0 0.7937499999999999556 0 0 1 0 34.92499999999999716 0 0 1 I I #
point $-1 -34.92499999999997584 0.793750000000002065 -1.080123855476852095e-06 #
loop $-1 $706 $669 $678 #
ellipse-curve $-1 0 21.43124999999999858 0 0 1 0 0 0 16.3194999999999979 1 I I #
point $-1 -16.3194999999999979 21.43124999999999858 -1.998496339120428276e-15 #
point $-1 16.3194999999999979 21.43124999999999858 0 #
ellipse-curve $-1 0 21.43124999999999858 0 0 1 0 0 0 16.3194999999999979 1 I I #
plane-surface $-1 0 21.43124999999999858 0 0 1 0 25.39999999999999858 0 0 forward_v I I I I #
coedge $-1 $684 $707 $708 $709 forward $679 $-1 #
coedge $-1 $708 $680 $681 $701 forward $657 $-1 #
coedge $-1 $680 $708 $710 $711 reversed $657 $-1 #
coedge $-1 $707 $684 $680 $700 reversed $679 $-1 #
edge $-1 $712 -7.21207870327363695e-16 $686 1.570796326794899445 $699 $713 forward 7 unknown #
edge $-1 $686 -3.141592653589793116 $702 0 $681 $714 forward 7 unknown #
vertex $-1 $683 $715 #
intcurve-curve $-1 forward { surfcur full nubs 1 open 2 
	8.304817900739359987e-17 1 0.73250000000000004 1 
	34.92499999999997584 0.793750000000002065 -1.082351955917435042e-06 
	34.92499999999999716 19.39924999999999855 0 
	0.01000000000000000021 
	cone 0 0 0 0 1 0 34.92499999999999716 0 0 1 I I 0 1 34.92499999999999716 forward I I I I 
	null_surface 
	nullbs 
	nullbs 
	I I 
	0 
	0 
	0 
	surf1 } I I #
ellipse-curve $-1 0 19.39924999999999855 0 0 1 0 34.92499999999999716 0 0 1 I I #
point $-1 -34.92499999999999716 19.39924999999999855 -4.276937690724652417e-15 #
loop $-1 $-1 $710 $678 #
coedge $-1 $696 $699 $716 $717 reversed $679 $-1 #
coedge $-1 $698 $697 $696 $709 reversed $657 $-1 #
edge $-1 $718 -7.212078703273643853e-16 $702 1.570796326794899445 $696 $719 forward 7 unknown #
coedge $-1 $716 $716 $698 $711 forward $706 $-1 #
edge $-1 $712 -1.57079632679489678 $718 1.570796326794896558 $710 $720 forward 7 unknown #
vertex $-1 $717 $721 #
ellipse-curve $-1 -32.89300000000000068 19.39924999999999855 -4.028097679627943755e-15 -1.224606353822378984e-16 9.561941247328824263e-31 1 5.63993296509579491e-15 2.031999999999998696 -1.252316687038356171e-30 1 I I #
ellipse-curve $-1 0 19.39924999999999855 0 0 1 0 34.92499999999999716 0 0 1 I I #
point $-1 34.92499999999999716 19.39924999999999855 0 #
coedge $-1 $710 $710 $707 $717 forward $706 $-1 #
edge $-1 $718 1.570796326794896558 $712 4.712388980384689674 $716 $722 forward 7 unknown #
vertex $-1 $717 $723 #
ellipse-curve $-1 32.89300000000000068 19.39924999999999855 8.056195359255887509e-15 2.449212707644757968e-16 1.912388249465764853e-30 -1 -5.63993296509579491e-15 2.031999999999998696 2.504633374076712342e-30 1 I I #
ellipse-curve $-1 0 21.43124999999999858 0 0 1 0 0 0 32.89300000000000068 1 I I #
point $-1 -32.89299999999999358 21.43124999999999858 -4.028097679627945332e-15 #
ellipse-curve $-1 0 21.43124999999999858 0 0 1 0 0 0 32.89300000000000068 1 I I #
point $-1 32.89299999999999358 21.43124999999999858 0 #
End-of-ACIS-data 