600 0 1 0           
93 GICL Pro/E ACIS Translator - Source: f:/data5/repository/PTC/V18/reel18/areel/spool.prt - 6 0 13 ACIS 6.0.3 NT 24 Thu Apr 04 13:30:43 2002 
1 9.9999999999999995e-007 1e-010 
body $-1 $1 $-1 $2 #
lump $-1 $-1 $3 $0 #
transform $-1 1 0 0 0 1 0 0 0 1 0 0 0 25.399999999999999 no_rotate no_reflect no_shear #
shell $-1 $-1 $-1 $4 $-1 $1 #
face $-1 $5 $6 $3 $-1 $7 forward single #
face $-1 $8 $9 $3 $-1 $10 forward single #
loop $-1 $11 $12 $4 #
plane-surface $-1 0 2 0 0 1 0 1 0 0 forward_v I I I I #
face $-1 $13 $14 $3 $-1 $15 forward single #
loop $-1 $-1 $16 $5 #
torus-surface $-1 0 1.8999999999999999 0 0 1 0 1.2379624308074464 0.099999999999999992 1 0 0 forward_v I I I I #
loop $-1 $-1 $17 $4 #
coedge $-1 $18 $18 $19 $20 reversed $6 $-1 #
face $-1 $21 $22 $3 $-1 $23 reversed single #
loop $-1 $-1 $24 $8 #
torus-surface $-1 0 1.8999999999999999 0 0 1 0 1.2379624308074464 0.099999999999999992 1 0 0 forward_v I I I I #
coedge $-1 $25 $19 $26 $27 forward $9 $-1 #
coedge $-1 $28 $28 $29 $30 forward $11 $-1 #
coedge $-1 $12 $12 $31 $32 reversed $6 $-1 #
coedge $-1 $16 $33 $12 $20 forward $9 $-1 #
edge $-1 $34 -2.4492127076447545e-016 $35 3.1415926535897931 $12 $36 forward 7 unknown #
face $-1 $37 $38 $3 $-1 $39 reversed single #
loop $-1 $-1 $40 $13 #
cone-surface $-1 0 0.24999999999999734 0 0 -1 0 0.4261363636363632 0 0 1 I I -0.39202592460815017 0.91995416974712663 0.4261363636363632 forward I I I I #
coedge $-1 $41 $31 $33 $42 forward $14 $-1 #
coedge $-1 $33 $16 $43 $44 reversed $9 $-1 #
coedge $-1 $31 $41 $16 $27 reversed $14 $-1 #
edge $-1 $35 0 $45 1.1679635629946636 $26 $46 forward 7 unknown #
coedge $-1 $17 $17 $47 $48 forward $11 $-1 #
coedge $-1 $49 $50 $17 $30 reversed $51 $-1 #
edge $-1 $52 -3.1645729768639335e-014 $53 3.1415906044754864 $17 $54 forward 7 unknown #
coedge $-1 $24 $26 $18 $32 forward $14 $-1 #
edge $-1 $35 0 $34 3.1415926535897931 $18 $55 forward 7 unknown #
coedge $-1 $19 $25 $24 $42 reversed $9 $-1 #
vertex $-1 $32 $56 #
vertex $-1 $32 $57 #
ellipse-curve $-1 0 2 -1.1102230246251565e-016 0 1 0 -1.2379624308074464 0 2.6262396831853508e-016 1 I I #
face $-1 $58 $59 $3 $-1 $60 reversed single #
loop $-1 $-1 $61 $21 #
cone-surface $-1 0 0.24999999999999734 0 0 -1 0 0.4261363636363632 0 0 1 I I -0.39202592460815017 0.91995416974712663 0.4261363636363632 forward I I I I #
coedge $-1 $62 $63 $64 $65 reversed $22 $-1 #
coedge $-1 $26 $24 $63 $66 reversed $14 $-1 #
edge $-1 $34 6.1629758220391162e-031 $67 1.1679635629946636 $24 $68 forward 7 unknown #
coedge $-1 $61 $64 $25 $44 forward $38 $-1 #
edge $-1 $67 -2.4492127076447545e-016 $45 3.1415926535897931 $43 $69 forward 7 unknown #
vertex $-1 $66 $70 #
ellipse-curve $-1 1.2379624308074466 1.8999999999999997 0 0 0 1 -2.2204460492503131e-016 0.10000000000000031 0 1 I I #
coedge $-1 $71 $72 $28 $48 reversed $73 $-1 #
edge $-1 $53 0 $52 3.1415906044754554 $28 $74 forward 7 unknown #
coedge $-1 $75 $29 $72 $76 forward $51 $-1 #
coedge $-1 $29 $75 $71 $77 reversed $51 $-1 #
loop $-1 $-1 $49 $78 #
vertex $-1 $48 $79 #
vertex $-1 $48 $80 #
ellipse-curve $-1 1.3322676295501878e-015 2 -1.3011875846236087e-006 0 1 0 -1.2699999999997338 0 1.3011876048574234e-006 1 I I #
ellipse-curve $-1 1.1102230246251565e-016 2 -1.6653345369377348e-016 0 1 0 1.2379624308074462 0 1.6653345369377348e-016 1 I I #
point $-1 -1.2379624308074464 2 -1.516016658560194e-016 #
point $-1 1.2379624308074464 2 0 #
face $-1 $81 $82 $3 $-1 $83 reversed single #
loop $-1 $-1 $84 $37 #
torus-surface $-1 0 3.2903663793103459 0 0 1 0 0.5625 1.5091163793103461 1 0 0 forward_v I I I I #
coedge $-1 $85 $43 $86 $87 reversed $38 $-1 #
coedge $-1 $86 $40 $88 $89 reversed $22 $-1 #
coedge $-1 $40 $86 $41 $66 forward $22 $-1 #
coedge $-1 $43 $85 $40 $65 forward $38 $-1 #
edge $-1 $90 -1.3227882324094187e-032 $67 0.053483743080744391 $40 $91 forward 7 unknown #
edge $-1 $45 0 $67 3.1415926535897931 $63 $92 forward 7 unknown #
vertex $-1 $66 $93 #
ellipse-curve $-1 -1.2379624308074466 1.8999999999999997 1.5160166585601943e-016 -1.2246063538223773e-016 2.5398201141606607e-032 -1 2.2204460492503131e-016 0.10000000000000031 -2.4651903288156619e-032 1 I I #
ellipse-curve $-1 0 1.9392025924608145 0 0 1 0 -1.1459670138327336 0 1.4033584864104217e-016 1 I I #
point $-1 1.1459670138327336 1.9392025924608145 0 #
coedge $-1 $94 $47 $50 $77 forward $73 $-1 #
coedge $-1 $47 $94 $49 $76 reversed $73 $-1 #
loop $-1 $-1 $71 $95 #
ellipse-curve $-1 -9.9920072216264089e-016 2 1.3011875846791199e-006 0 1 0 1.2699999999997349 0 -1.3011876043300674e-006 1 I I #
coedge $-1 $50 $49 $96 $97 forward $51 $-1 #
edge $-1 $52 1.1102230190961396e-013 $98 1.5707963268038303 $72 $99 forward 7 unknown #
edge $-1 $53 0 $100 1.5707963268037339 $71 $101 forward 7 unknown #
face $-1 $95 $51 $3 $-1 $102 forward single #
point $-1 -1.2699999999997358 2 -1.9956258867633036e-014 #
point $-1 1.2699999999997338 2 -1.965094753586115e-014 #
face $-1 $103 $104 $3 $-1 $105 reversed single #
loop $-1 $-1 $106 $58 #
torus-surface $-1 0 1.8321069345023469 0 0 1 0 0.61249999999999993 0.049999999999999996 1 0 0 forward_v I I I I #
coedge $-1 $107 $108 $109 $110 forward $59 $-1 #
coedge $-1 $64 $61 $111 $112 forward $38 $-1 #
coedge $-1 $63 $62 $61 $87 forward $22 $-1 #
edge $-1 $113 -3.7836534327060841e-016 $45 0.053483743080744391 $86 $114 forward 7 unknown #
coedge $-1 $115 $116 $62 $89 forward $117 $-1 #
edge $-1 $113 0 $90 3.1415926535897931 $88 $118 forward 7 unknown #
vertex $-1 $119 $120 #
straight-curve $-1 -1.125 1.8899999999999997 1.3776821480501742e-016 -0.39202592460814689 0.91995416974712807 4.8007743813823589e-017 I I #
ellipse-curve $-1 0 1.9392025924608145 0 0 1 0 1.1459670138327336 0 0 1 I I #
point $-1 -1.1459670138327336 1.9392025924608145 -1.4033584864104217e-016 #
coedge $-1 $72 $71 $121 $122 forward $73 $-1 #
face $-1 $123 $73 $3 $-1 $124 forward single #
coedge $-1 $125 $126 $75 $97 reversed $127 $-1 #
edge $-1 $98 -1.4003583944226707e-011 $100 3.1415926535897927 $96 $128 forward 7 unknown #
vertex $-1 $122 $129 #
ellipse-curve $-1 -1.2700000000000002 1.9700000000000002 -3.2553404961732513e-012 4.1271595538516938e-010 -1.0918581036358605e-010 1 2.6778579353958776e-013 0.029999999999999805 3.2755743107970403e-012 1 I I #
vertex $-1 $122 $130 #
ellipse-curve $-1 1.2699999999999994 1.9699999999999993 3.2586484488856035e-012 -4.1280633262217338e-010 -1.0927664655103387e-010 -1 -2.6556534749033744e-013 0.030000000000000693 -3.2782993964214647e-012 1 I I #
torus-surface $-1 0 1.97 0 0 1 0 1.27 0.029999999999999999 -0.18738131458572529 0 -0.98228725072868839 forward_v I I I I #
face $-1 $131 $132 $3 $-1 $133 forward single #
loop $-1 $-1 $134 $81 #
torus-surface $-1 0 1.8321069345023469 0 0 1 0 0.61249999999999993 0.049999999999999996 1 0 0 forward_v I I I I #
coedge $-1 $135 $109 $136 $137 forward $82 $-1 #
coedge $-1 $111 $84 $115 $119 forward $59 $-1 #
coedge $-1 $84 $111 $116 $138 reversed $59 $-1 #
coedge $-1 $106 $139 $84 $110 reversed $82 $-1 #
edge $-1 $140 0 $141 3.1415926535897931 $84 $142 forward 7 unknown #
coedge $-1 $108 $107 $85 $112 reversed $59 $-1 #
edge $-1 $113 0 $90 3.1415926535897931 $111 $143 forward 7 unknown #
vertex $-1 $138 $144 #
straight-curve $-1 1.125 1.8899999999999997 0 0.39202592460814689 0.91995416974712807 0 I I #
coedge $-1 $145 $88 $107 $119 reversed $117 $-1 #
coedge $-1 $88 $145 $108 $138 forward $117 $-1 #
loop $-1 $-1 $88 $146 #
ellipse-curve $-1 0 1.8899999999999997 0 0 1 0 1.125 0 0 1 I I #
edge $-1 $141 0 $90 0.34768030096848929 $115 $147 forward 7 unknown #
point $-1 -1.125 1.8899999999999997 -1.3776821480501742e-016 #
coedge $-1 $148 $149 $94 $122 reversed $150 $-1 #
edge $-1 $100 0 $98 3.1415926535757901 $121 $151 forward 7 unknown #
face $-1 $152 $153 $3 $-1 $154 reversed single #
torus-surface $-1 0 1.97 0 0 1 0 1.27 0.029999999999999999 0.18738131458572488 0 0.98228725072868861 forward_v I I I I #
coedge $-1 $155 $96 $149 $156 forward $127 $-1 #
coedge $-1 $96 $155 $148 $157 reversed $127 $-1 #
loop $-1 $-1 $125 $158 #
ellipse-curve $-1 0 1.9699999999999998 0 1.7080354225002407e-016 1 -1.1990590197771829e-027 -1.3 2.2204460492503131e-016 9.1261381653817436e-012 1 I I #
point $-1 -1.3 1.97 -9.0785209621129777e-012 #
point $-1 1.3 1.9699999999999998 -9.125541529779927e-012 #
face $-1 $159 $160 $3 $-1 $161 forward single #
loop $-1 $-1 $162 $103 #
cone-surface $-1 0 1.7703125 0 0 1 0 0.5625 0 0 1 I I 0 1 0.5625 forward I I I I #
coedge $-1 $163 $164 $139 $165 forward $104 $-1 #
coedge $-1 $139 $106 $166 $167 forward $82 $-1 #
coedge $-1 $164 $163 $106 $137 reversed $104 $-1 #
edge $-1 $140 2.2226144535952596e-015 $168 1.6050703513281925 $106 $169 forward 7 unknown #
edge $-1 $140 0 $113 0.34768030096848895 $116 $170 forward 7 unknown #
coedge $-1 $109 $135 $134 $165 reversed $82 $-1 #
vertex $-1 $138 $171 #
vertex $-1 $172 $173 #
ellipse-curve $-1 0 1.7821362993465257 0 0 -1 0 0.61421336572973206 0 0 1 I I #
ellipse-curve $-1 0 1.8899999999999997 0 0 -1 0 1.125 0 0 1 I I #
point $-1 1.1249999999999996 1.8899999999999995 0 #
coedge $-1 $116 $115 $164 $172 reversed $117 $-1 #
face $-1 $-1 $117 $3 $-1 $174 reversed single #
ellipse-curve $-1 -0.56249999999999867 3.2903663793103526 6.8884107402508339e-017 -1.2246063538223778e-016 -1.3936452131573907e-031 -1 -0.051713365729733285 -1.5082300799638269 6.3328516250173876e-018 1 I I #
coedge $-1 $175 $121 $126 $157 forward $150 $-1 #
coedge $-1 $121 $175 $125 $156 reversed $150 $-1 #
loop $-1 $-1 $148 $176 #
ellipse-curve $-1 0 1.9700000000000002 0 3.4160708450004814e-016 1 -2.3979612588247925e-027 1.3 -4.4408920985006262e-016 -9.125541529779927e-012 1 I I #
face $-1 $177 $178 $3 $-1 $179 forward single #
loop $-1 $-1 $180 $123 #
cone-surface $-1 0 1.875 0 0 -1 0 0.4375 0 0 1 I I 0 1 0.4375 forward I I I I #
coedge $-1 $126 $125 $181 $182 reversed $127 $-1 #
edge $-1 $98 0 $183 0.015227185761230499 $149 $184 forward 7 unknown #
edge $-1 $100 2.2204460492503131e-016 $185 0.015227185761230499 $148 $186 forward 7 unknown #
face $-1 $78 $127 $3 $-1 $187 forward single #
face $-1 $188 $189 $3 $-1 $190 forward single #
loop $-1 $-1 $191 $131 #
cone-surface $-1 0 1.7703125 0 0 1 0 0.5625 0 0 1 I I 0 1 0.5625 forward I I I I #
coedge $-1 $192 $193 $163 $194 forward $132 $-1 #
coedge $-1 $136 $134 $162 $194 reversed $104 $-1 #
coedge $-1 $134 $136 $145 $172 forward $104 $-1 #
edge $-1 $141 2.2226144535952596e-015 $195 1.6050703513281925 $139 $196 forward 7 unknown #
coedge $-1 $197 $198 $135 $167 reversed $160 $-1 #
edge $-1 $168 0 $195 3.1415926535897931 $166 $199 forward 7 unknown #
vertex $-1 $200 $201 #
ellipse-curve $-1 0.61250000000000027 1.8321069345023471 0 0 0 -1 0.0017133657297317972 -0.049970635155821341 0 1 I I #
ellipse-curve $-1 0.56249999999999867 3.2903663793103526 0 0 0 1 0.051713365729733285 -1.5082300799638269 0 1 I I #
point $-1 0.61421336572973195 1.7821362993465257 0 #
edge $-1 $140 0 $141 3.1415926535897931 $145 $202 forward 7 unknown #
point $-1 -0.61421336572973195 1.7821362993465257 7.5216959027525726e-017 #
torus-surface $-1 0 3.2903663793103459 0 0 1 0 0.5625 1.5091163793103461 1 0 0 forward_v I I I I #
coedge $-1 $149 $148 $203 $204 forward $150 $-1 #
face $-1 $158 $150 $3 $-1 $205 forward single #
face $-1 $206 $207 $3 $-1 $208 reversed single #
loop $-1 $-1 $209 $152 #
plane-surface $-1 0 1.75 0 0 1 0 1 0 0 forward_v I I I I #
coedge $-1 $210 $211 $212 $213 forward $153 $-1 #
coedge $-1 $214 $215 $155 $182 forward $216 $-1 #
edge $-1 $185 0 $183 3.1415926535897931 $155 $217 forward 7 unknown #
vertex $-1 $156 $218 #
straight-curve $-1 -1.2999999999999998 1.97 1.5919882599690903e-016 0 -1 0 I I #
vertex $-1 $204 $219 #
straight-curve $-1 1.2999999999999998 1.97 0 0 -1 0 I I #
cone-surface $-1 0 0.78593749999999996 0 0 1 0 1.2999999999999998 0 0 1 I I 0 1 1.2999999999999998 forward I I I I #
face $-1 $220 $221 $3 $-1 $222 reversed single #
loop $-1 $223 $224 $159 #
plane-surface $-1 0 1.875 0 0 1 0 1 0 0 forward_v I I I I #
coedge $-1 $198 $197 $225 $226 forward $160 $-1 #
coedge $-1 $227 $162 $198 $228 reversed $132 $-1 #
coedge $-1 $162 $227 $197 $200 forward $132 $-1 #
edge $-1 $168 0 $195 3.1415926535897931 $162 $229 forward 7 unknown #
vertex $-1 $228 $230 #
ellipse-curve $-1 -0.61250000000000027 1.8321069345023471 -7.5007139171620647e-017 -1.2246063538223763e-016 3.0032470070288131e-031 1 -0.0017133657297317972 -0.049970635155821341 -2.0981985590509212e-019 1 I I #
coedge $-1 $191 $166 $193 $200 reversed $160 $-1 #
coedge $-1 $166 $191 $192 $228 forward $160 $-1 #
ellipse-curve $-1 0 1.8321069345023466 0 0 -1 0 0.56249999999999989 0 0 1 I I #
edge $-1 $231 0 $168 0.042893065497653593 $193 $232 forward 7 unknown #
point $-1 0.5625 1.8321069345023464 0 #
ellipse-curve $-1 0 1.7821362993465257 0 0 1 0 0.61421336572973206 0 0 1 I I #
coedge $-1 $233 $234 $175 $204 reversed $235 $-1 #
edge $-1 $185 0 $183 3.1415926535897931 $175 $236 forward 7 unknown #
cone-surface $-1 0 0.78593749999999996 0 0 1 0 1.2999999999999998 0 0 1 I I 0 1 1.2999999999999998 forward I I I I #
face $-1 $146 $237 $3 $-1 $238 reversed single #
loop $-1 $-1 $239 $177 #
cone-surface $-1 0 1.7453124999999998 0 0 1 0 0.46875 0 0 1 I I 0 1 0.46875 forward I I I I #
coedge $-1 $240 $241 $242 $243 reversed $178 $-1 #
coedge $-1 $244 $180 $245 $246 reversed $153 $-1 #
coedge $-1 $180 $244 $241 $247 reversed $153 $-1 #
coedge $-1 $248 $249 $180 $213 reversed $250 $-1 #
edge $-1 $251 1.6434602192104412e-032 $252 0.28125 $180 $253 forward 7 unknown #
coedge $-1 $254 $181 $234 $255 reversed $216 $-1 #
coedge $-1 $181 $254 $233 $256 forward $216 $-1 #
loop $-1 $-1 $215 $257 #
ellipse-curve $-1 0 1.9547728142387695 0 0 -1 0 1.2999999999999998 0 0 1 I I #
point $-1 -1.2999999999999998 1.9547728142387695 -1.5919882599690903e-016 #
point $-1 1.2999999999999998 1.9547728142387695 0 #
face $-1 $258 $259 $3 $-1 $260 reversed single #
loop $-1 $-1 $261 $188 #
cone-surface $-1 0 1.875 0 0 -1 0 0.4375 0 0 1 I I 0 1 0.4375 forward I I I I #
loop $-1 $-1 $262 $159 #
coedge $-1 $225 $225 $227 $263 forward $189 $-1 #
coedge $-1 $224 $224 $191 $226 reversed $189 $-1 #
edge $-1 $231 0 $264 3.1415926535897931 $225 $265 forward 7 unknown #
coedge $-1 $193 $192 $224 $263 reversed $132 $-1 #
edge $-1 $264 0 $195 0.042893065497653593 $192 $266 forward 7 unknown #
ellipse-curve $-1 0 1.8321069345023466 0 0 1 0 0.56249999999999989 0 0 1 I I #
point $-1 -0.5625 1.8321069345023464 6.8884107402508721e-017 #
vertex $-1 $226 $267 #
straight-curve $-1 0.5625 1.875 0 0 -1 0 I I #
coedge $-1 $268 $203 $215 $256 reversed $235 $-1 #
coedge $-1 $203 $268 $214 $255 forward $235 $-1 #
loop $-1 $-1 $234 $269 #
ellipse-curve $-1 0 1.9547728142387695 0 0 1 0 1.2999999999999998 0 0 1 I I #
loop $-1 $-1 $270 $206 #
plane-surface $-1 0 1.84375 0 0 1 0 1 0 0 forward_v I I I I #
coedge $-1 $271 $272 $273 $274 reversed $207 $-1 #
coedge $-1 $275 $209 $271 $276 forward $178 $-1 #
coedge $-1 $209 $275 $211 $247 forward $178 $-1 #
coedge $-1 $277 $278 $209 $243 forward $259 $-1 #
edge $-1 $279 -9.486769009248079e-016 $280 0.42411486809491411 $242 $281 forward 7 unknown #
coedge $-1 $211 $210 $277 $282 reversed $153 $-1 #
coedge $-1 $283 $284 $210 $246 forward $285 $-1 #
edge $-1 $286 6.9101770837471086e-007 $252 2.7738083381358529 $245 $287 forward 7 unknown #
edge $-1 $251 0 $280 2.7738090291535609 $211 $288 forward 7 unknown #
coedge $-1 $273 $212 $275 $289 forward $250 $-1 #
coedge $-1 $212 $290 $283 $291 reversed $250 $-1 #
loop $-1 $-1 $292 $293 #
vertex $-1 $247 $294 #
vertex $-1 $291 $295 #
straight-curve $-1 0.080000000000000043 1.75 -0.43012352876819004 -3.9474596431116675e-016 -1 0 I I #
coedge $-1 $215 $214 $296 $297 reversed $216 $-1 #
edge $-1 $298 0 $183 1.1497718775784205 $214 $299 forward 7 unknown #
edge $-1 $300 -3.9968028886505612e-015 $185 1.1497718775784205 $215 $301 forward 7 unknown #
face $-1 $269 $216 $3 $-1 $302 forward single #
face $-1 $293 $303 $3 $-1 $304 reversed single #
loop $-1 $-1 $305 $220 #
cone-surface $-1 0 1.875 0.43012352876819004 0 1 0 0.080000000000000002 0 0 1 I I 0 1 0.080000000000000002 forward I I I I #
coedge $-1 $306 $307 $308 $309 reversed $221 $-1 #
coedge $-1 $310 $311 $306 $312 forward $223 $-1 #
edge $-1 $231 0 $264 3.1415926535897931 $224 $313 forward 7 unknown #
vertex $-1 $226 $314 #
ellipse-curve $-1 0 1.875 5.5511151231257827e-017 0 -1 0 0.5625 0 -5.5511151231257827e-017 1 I I #
straight-curve $-1 -0.5625 1.875 6.8884107402508721e-017 0 -1 0 I I #
point $-1 0.5625 1.875 0 #
coedge $-1 $234 $233 $315 $316 forward $235 $-1 #
face $-1 $176 $235 $3 $-1 $317 forward single #
coedge $-1 $318 $319 $320 $321 forward $237 $-1 #
coedge $-1 $322 $239 $240 $276 reversed $207 $-1 #
coedge $-1 $239 $322 $318 $323 reversed $207 $-1 #
coedge $-1 $320 $248 $239 $274 forward $250 $-1 #
edge $-1 $324 0 $325 0.09375 $273 $326 forward 7 unknown #
coedge $-1 $241 $240 $248 $289 reversed $178 $-1 #
edge $-1 $279 0 $324 2.8292319977934244 $240 $327 forward 7 unknown #
coedge $-1 $328 $242 $244 $282 forward $259 $-1 #
coedge $-1 $242 $329 $322 $330 reversed $259 $-1 #
vertex $-1 $243 $331 #
vertex $-1 $247 $332 #
ellipse-curve $-1 -4.4408920985006262e-016 1.75 0.43012352876818993 0 1 0 0.072912266744395424 0 0.03292113847050554 1 I I #
edge $-1 $280 0 $286 0.28125 $244 $333 forward 7 unknown #
coedge $-1 $334 $245 $249 $291 forward $285 $-1 #
coedge $-1 $245 $334 $328 $335 forward $285 $-1 #
loop $-1 $-1 $284 $336 #
vertex $-1 $246 $337 #
ellipse-curve $-1 5.5511151231257827e-017 1.46875 2.7755575615628914e-017 0 1 0 0.079999999999999988 0 0.43012352876819004 1 I I #
ellipse-curve $-1 -5.5511151231257827e-017 1.75 2.7755575615628914e-017 0 -1 0 0.080000000000000057 0 -0.43012352876819004 1 I I #
edge $-1 $251 0 $324 0.424114868094918 $248 $338 forward 7 unknown #
coedge $-1 $249 $339 $340 $341 forward $250 $-1 #
edge $-1 $252 0 $342 3.1416009287574109 $283 $343 forward 7 unknown #
coedge $-1 $344 $320 $345 $346 reversed $250 $-1 #
face $-1 $347 $250 $3 $-1 $348 reversed single #
point $-1 0.080000000000000002 1.75 -0.43012352876819004 #
point $-1 0.080000134005060064 1.46875 -0.43012259594182628 #
coedge $-1 $349 $350 $254 $297 forward $351 $-1 #
edge $-1 $300 0 $298 3.1415926535897931 $296 $352 forward 7 unknown #
vertex $-1 $316 $353 #
ellipse-curve $-1 -1.1749999999999996 1.954772814238769 -1.4389124657412927e-016 1.22460635382238e-016 1.1093356479670472e-031 -1 -0.051086956521740889 -0.11408384142088557 -6.2561411553971691e-018 1 I I #
vertex $-1 $354 $355 #
ellipse-curve $-1 1.1749999999999996 1.954772814238769 0 0 0 1 0.051086956521740889 -0.11408384142088557 0 1 I I #
torus-surface $-1 0 1.954772814238769 0 0 1 0 1.1749999999999998 0.125 1 0 0 forward_v I I I I #
loop $-1 $-1 $356 $258 #
cone-surface $-1 0 1.875 0 0 -1 0 0.4375 0 0 1 I I 0 1 0.4375 forward I I I I #
coedge $-1 $357 $358 $359 $360 reversed $259 $-1 #
coedge $-1 $345 $261 $262 $312 reversed $221 $-1 #
coedge $-1 $261 $345 $319 $361 forward $221 $-1 #
coedge $-1 $329 $357 $261 $309 forward $259 $-1 #
edge $-1 $362 0 $363 0.03125 $261 $364 forward 7 unknown #
coedge $-1 $365 $262 $357 $366 reversed $223 $-1 #
coedge $-1 $262 $365 $344 $367 reversed $223 $-1 #
edge $-1 $368 1.450087215836939e-016 $362 2.7738090291535613 $262 $369 forward 7 unknown #
ellipse-curve $-1 0 1.875 -5.5511151231257827e-017 0 1 0 0.5625 0 5.5511151231257827e-017 1 I I #
point $-1 -0.5625 1.875 6.8884107402508721e-017 #
coedge $-1 $370 $371 $268 $316 reversed $372 $-1 #
edge $-1 $300 0 $298 3.1415926535897931 $315 $373 forward 7 unknown #
torus-surface $-1 0 1.954772814238769 0 0 1 0 1.1749999999999998 0.125 1 0 0 forward_v I I I I #
coedge $-1 $374 $270 $272 $323 forward $237 $-1 #
coedge $-1 $270 $374 $307 $361 reversed $237 $-1 #
coedge $-1 $292 $273 $270 $321 reversed $250 $-1 #
edge $-1 $375 0 $325 0.424114868094918 $320 $376 forward 7 unknown #
coedge $-1 $272 $271 $278 $330 forward $207 $-1 #
edge $-1 $325 -3.1579677144893335e-017 $377 2.8292319977934244 $318 $378 forward 7 unknown #
vertex $-1 $274 $379 #
vertex $-1 $321 $380 #
straight-curve $-1 0.072912266744394993 1.75 -0.46304466723869547 0 1 0 I I #
ellipse-curve $-1 2.7755575615628914e-017 1.75 -2.7755575615628914e-017 7.3681466998090556e-017 1 4.6792963504200227e-016 0.072912266744394771 -2.2204460492503131e-016 0.46304466723869553 1 I I #
coedge $-1 $381 $277 $284 $335 reversed $259 $-1 #
coedge $-1 $278 $308 $374 $382 reversed $259 $-1 #
edge $-1 $279 -2.2204460492503131e-016 $377 0.093749999999999778 $278 $383 forward 7 unknown #
point $-1 0.072912266744394799 1.7499999999999998 0.46304466723869547 #
point $-1 0.080000000000000002 1.75 0.43012352876819004 #
straight-curve $-1 0.080000000000000043 1.75 0.43012352876819004 0 -1 0 I I #
coedge $-1 $284 $283 $384 $385 forward $285 $-1 #
edge $-1 $386 1.1660312850125895e-005 $286 3.1416125890702609 $284 $387 forward 7 unknown #
face $-1 $388 $389 $3 $-1 $390 reversed single #
point $-1 0.080000134005060064 1.46875 0.43012259594182628 #
ellipse-curve $-1 2.8449465006019636e-016 1.75 -0.43012352876819016 0 1 0 0.07999999999999971 0 1.1102230246251565e-016 1 I I #
coedge $-1 $290 $391 $392 $393 forward $250 $-1 #
coedge $-1 $394 $384 $290 $341 reversed $395 $-1 #
edge $-1 $396 0 $342 0.28125 $340 $397 forward 7 unknown #
vertex $-1 $385 $398 #
ellipse-curve $-1 3.4694469519536142e-018 1.46875 -0.43012339336238076 0 1 0 0.080000134005060064 0 7.9742055447695748e-007 1 I I #
coedge $-1 $399 $292 $311 $367 forward $250 $-1 #
coedge $-1 $307 $306 $292 $346 forward $221 $-1 #
edge $-1 $368 0 $375 0.03125 $345 $400 forward 7 unknown #
face $-1 $401 $402 $3 $-1 $403 reversed single #
cone-surface $-1 0 1.875 -0.43012352876819004 0 1 0 0.080000000000000002 0 0 1 I I 0 1 0.080000000000000002 forward I I I I #
coedge $-1 $404 $296 $371 $405 forward $351 $-1 #
coedge $-1 $296 $404 $370 $354 reversed $351 $-1 #
loop $-1 $-1 $296 $406 #
ellipse-curve $-1 0 1.8406889728178835 0 0 -1 0 1.2260869565217405 0 0 1 I I #
point $-1 -1.2260869565217405 1.8406889728178835 1.5014738772952644e-016 #
edge $-1 $300 0 $407 0.21087721612229338 $370 $408 forward 7 unknown #
point $-1 1.22608695652174 1.8406889728178832 0 #
coedge $-1 $409 $410 $399 $411 reversed $303 $-1 #
coedge $-1 $308 $305 $310 $366 forward $259 $-1 #
coedge $-1 $305 $412 $413 $414 reversed $259 $-1 #
coedge $-1 $410 $409 $305 $360 forward $303 $-1 #
edge $-1 $415 -8.6281661508548166e-032 $416 0.03125 $359 $417 forward 7 unknown #
edge $-1 $375 0 $363 2.7738090291535609 $307 $418 forward 7 unknown #
vertex $-1 $366 $419 #
vertex $-1 $361 $420 #
straight-curve $-1 0.080000000000000002 1.875 0.43012352876819004 1.3322676295501878e-015 -1 0 I I #
coedge $-1 $311 $310 $409 $421 forward $223 $-1 #
edge $-1 $415 0 $362 3.1415926535897931 $310 $422 forward 7 unknown #
edge $-1 $368 0 $423 3.1415926535897931 $311 $424 forward 7 unknown #
vertex $-1 $367 $425 #
ellipse-curve $-1 0 1.875 0 0 -1 0 0.079999999999999932 0 -0.43012352876819004 1 I I #
coedge $-1 $426 $315 $350 $354 forward $372 $-1 #
coedge $-1 $315 $426 $349 $405 reversed $372 $-1 #
loop $-1 $-1 $426 $427 #
ellipse-curve $-1 0 1.8406889728178835 0 0 1 0 1.2260869565217405 0 0 1 I I #
coedge $-1 $319 $318 $329 $382 forward $237 $-1 #
vertex $-1 $361 $428 #
ellipse-curve $-1 2.8449465006019636e-016 1.84375 -0.43012352876819016 0 1 0 0.07999999999999971 0 1.1102230246251565e-016 1 I I #
vertex $-1 $330 $429 #
ellipse-curve $-1 -2.7755575615628914e-017 1.84375 0 -7.3681466998090827e-017 -1 4.6792963504200227e-016 0.072912266744395035 -2.2204460492503131e-016 -0.46304466723869547 1 I I #
point $-1 0.072912266744394993 1.75 -0.46304466723869547 #
point $-1 0.072912266744394993 1.84375 -0.46304466723869547 #
coedge $-1 $430 $328 $431 $432 reversed $259 $-1 #
edge $-1 $377 -9.486769009248079e-016 $363 0.42411486809491411 $329 $433 forward 7 unknown #
straight-curve $-1 0.072912266744394993 1.75 0.46304466723869547 0 1 0 I I #
coedge $-1 $340 $431 $334 $385 reversed $395 $-1 #
edge $-1 $342 0 $386 2.7738090291535613 $334 $434 forward 7 unknown #
vertex $-1 $385 $435 #
ellipse-curve $-1 2.0816681711721685e-017 1.46875 0.43012339336238076 0 1 0 -0.080000134005060036 0 -7.9742055447695748e-007 1 I I #
face $-1 $436 $437 $3 $-1 $438 reversed single #
loop $-1 $285 $439 $336 #
plane-surface $-1 0 1.46875 0 0 -1 0 1 0 0 forward_v I I I I #
coedge $-1 $339 $440 $441 $442 reversed $250 $-1 #
coedge $-1 $443 $444 $339 $393 reversed $445 $-1 #
edge $-1 $446 -2.0328790734103289e-016 $396 0.42411486809491733 $339 $447 forward 7 unknown #
coedge $-1 $431 $340 $444 $448 reversed $395 $-1 #
loop $-1 $-1 $431 $449 #
vertex $-1 $448 $450 #
straight-curve $-1 -0.079999999999999988 1.75 -0.43012352876819004 0 -1 0 I I #
point $-1 -0.079999999999999988 1.46875 -0.43012352876819004 #
coedge $-1 $440 $344 $356 $411 forward $250 $-1 #
straight-curve $-1 0.080000000000000002 1.875 -0.43012352876819004 1.3322676295501878e-015 -1 0 I I #
face $-1 $451 $452 $3 $-1 $453 reversed single #
loop $-1 $-1 $413 $347 #
plane-surface $-1 0 1.84375 0 0 1 0 1 0 0 forward_v I I I I #
coedge $-1 $350 $349 $454 $455 reversed $351 $-1 #
edge $-1 $298 -9.8686491077791675e-017 $456 0.21087721612229338 $371 $457 forward 7 unknown #
face $-1 $257 $351 $3 $-1 $458 forward single #
vertex $-1 $354 $459 #
ellipse-curve $-1 0 4.5787011669191546 0 0 0 -1 1.22608695652174 -2.7380121941012714 0 1 I I #
coedge $-1 $359 $356 $365 $421 reversed $303 $-1 #
coedge $-1 $356 $359 $460 $461 forward $303 $-1 #
edge $-1 $423 0 $462 0.03125 $356 $463 forward 7 unknown #
coedge $-1 $358 $430 $464 $465 forward $259 $-1 #
coedge $-1 $466 $460 $358 $414 forward $402 $-1 #
edge $-1 $416 0 $467 0.42411486809491961 $358 $468 forward 7 unknown #
vertex $-1 $421 $469 #
vertex $-1 $461 $470 #
straight-curve $-1 -0.079999999999999974 1.875 0.43012352876819004 -8.8817841970012523e-016 -1 0 I I #
ellipse-curve $-1 -5.5511151231257827e-017 1.84375 2.7755575615628914e-017 0 -1 0 0.080000000000000057 0 -0.43012352876819004 1 I I #
point $-1 0.080000000000000002 1.875 0.43012352876819004 #
point $-1 0.080000000000000002 1.84375 0.43012352876819004 #
edge $-1 $415 0 $423 2.7738090291535613 $365 $471 forward 7 unknown #
ellipse-curve $-1 0 1.875 0.43012352876819004 0 1 0 -0.080000000000000002 0 0 1 I I #
vertex $-1 $367 $472 #
ellipse-curve $-1 0 1.875 -0.43012352876819004 0 1 0 0.080000000000000002 0 0 1 I I #
point $-1 0.080000000000000002 1.875 -0.43012352876819004 #
coedge $-1 $371 $370 $473 $474 forward $372 $-1 #
face $-1 $406 $372 $3 $-1 $475 forward single #
point $-1 0.080000000000000002 1.84375 -0.43012352876819004 #
point $-1 0.072912266744394799 1.8437499999999998 0.46304466723869547 #
coedge $-1 $412 $381 $476 $477 forward $259 $-1 #
coedge $-1 $384 $394 $381 $432 forward $395 $-1 #
edge $-1 $478 0 $386 0.28125 $431 $479 forward 7 unknown #
ellipse-curve $-1 -4.4408920985006262e-016 1.84375 0.43012352876818993 0 1 0 0.072912266744395424 0 0.03292113847050554 1 I I #
ellipse-curve $-1 5.5511151231257827e-017 1.46875 -4.163336342344337e-017 0 1 0 -0.080000000000000043 0 -0.43012352876818999 1 I I #
point $-1 -0.079999999999999877 1.46875 0.43012352876819004 #
face $-1 $480 $481 $3 $-1 $482 reversed single #
loop $-1 $-1 $483 $388 #
cone-surface $-1 0 1.46875 0 0 -1 0 0.109375 0 0 1 I I 0 1 0.109375 forward I I I I #
coedge $-1 $484 $484 $485 $486 forward $389 $-1 #
coedge $-1 $391 $399 $487 $488 reversed $250 $-1 #
coedge $-1 $489 $490 $391 $442 forward $452 $-1 #
edge $-1 $446 -2.2204460492503131e-016 $491 0.09375 $391 $492 forward 7 unknown #
coedge $-1 $476 $392 $490 $493 forward $445 $-1 #
coedge $-1 $392 $476 $394 $448 forward $445 $-1 #
loop $-1 $-1 $392 $451 #
vertex $-1 $393 $494 #
ellipse-curve $-1 -1.5959455978986625e-016 1.75 -0.43012352876819004 0 1 0 -0.072912266744394827 0 -0.032921138470505429 1 I I #
edge $-1 $478 0 $396 2.7738090291535609 $394 $495 forward 7 unknown #
face $-1 $336 $395 $3 $-1 $496 reversed single #
point $-1 -0.080000000000000002 1.75 -0.43012352876819004 #
face $-1 $449 $445 $3 $-1 $497 forward single #
loop $-1 $-1 $441 $401 #
cone-surface $-1 0 1.7453124999999998 0 0 1 0 0.46875 0 0 1 I I 0 1 0.46875 forward I I I I #
coedge $-1 $498 $499 $404 $455 forward $500 $-1 #
edge $-1 $407 0 $456 3.1415926535897931 $404 $501 forward 7 unknown #
vertex $-1 $405 $502 #
ellipse-curve $-1 0 4.5787011669191546 0 1.2246063538223773e-016 5.4782007307014699e-033 1 -1.22608695652174 -2.7380121941012714 1.5014738772952636e-016 1 I I #
sphere-surface $-1 0 4.5787011669191546 0 3 1 0 0 0 0 1 forward_v I I I I #
point $-1 0.62581168831168787 1.6447005311365932 0 #
coedge $-1 $413 $487 $410 $461 reversed $402 $-1 #
edge $-1 $416 0 $462 2.7738090291535609 $410 $503 forward 7 unknown #
vertex $-1 $461 $504 #
straight-curve $-1 -0.080000000000000002 1.875 -0.43012352876819004 4.4408920985006262e-016 -1 0 I I #
coedge $-1 $490 $489 $412 $465 reversed $452 $-1 #
edge $-1 $505 -2.2204460492503131e-016 $467 0.09375 $412 $506 forward 7 unknown #
coedge $-1 $487 $413 $489 $507 forward $402 $-1 #
vertex $-1 $414 $508 #
ellipse-curve $-1 -5.6898930012039273e-016 1.84375 0.43012352876819016 0 1 0 -0.079999999999999433 0 -1.1102230246251565e-016 1 I I #
point $-1 -0.079999999999999877 1.875 0.43012352876819004 #
point $-1 -0.080000000000000002 1.84375 0.43012352876819004 #
ellipse-curve $-1 -5.5511151231257827e-017 1.875 -2.7755575615628914e-017 0 -1 0 -0.079999999999999821 0 0.43012352876819004 1 I I #
point $-1 -0.080000000000000002 1.875 -0.43012352876819004 #
coedge $-1 $509 $510 $426 $474 reversed $511 $-1 #
edge $-1 $407 0 $456 3.1415926535897931 $426 $512 forward 7 unknown #
sphere-surface $-1 0 4.5787011669191546 0 3 1 0 0 0 0 1 forward_v I I I I #
coedge $-1 $444 $443 $430 $477 reversed $445 $-1 #
edge $-1 $478 0 $505 0.42411486809492016 $430 $513 forward 7 unknown #
vertex $-1 $448 $514 #
straight-curve $-1 -0.080000000000000002 1.75 0.43012352876819004 0 -1 0 I I #
face $-1 $515 $516 $3 $-1 $517 reversed single #
loop $-1 $-1 $518 $436 #
cone-surface $-1 0 1.46875 0 0 -1 0 0.109375 0 0 1 I I 0 1 0.109375 forward I I I I #
coedge $-1 $485 $519 $520 $521 reversed $437 $-1 #
coedge $-1 $439 $439 $522 $523 forward $389 $-1 #
coedge $-1 $524 $483 $439 $486 reversed $437 $-1 #
edge $-1 $525 0 $526 3.1415926535897931 $439 $527 forward 7 unknown #
coedge $-1 $460 $466 $440 $488 forward $402 $-1 #
edge $-1 $491 0 $462 0.42411486809491733 $440 $528 forward 7 unknown #
coedge $-1 $464 $441 $466 $507 reversed $452 $-1 #
coedge $-1 $441 $464 $443 $493 reversed $452 $-1 #
vertex $-1 $442 $529 #
straight-curve $-1 -0.072912266744394993 1.75 -0.46304466723869547 0 1 0 I I #
edge $-1 $446 0 $505 2.8292319977934239 $443 $530 forward 7 unknown #
point $-1 -0.072912266744394966 1.7499999999999998 -0.46304466723869547 #
ellipse-curve $-1 2.7755575615628914e-017 1.75 0 0 -1 0 -0.080000000000000029 0 0.43012352876819004 1 I I #
cone-surface $-1 0 1.875 0 0 -1 0 0.4375 0 0 1 I I 0 1 0.4375 forward I I I I #
plane-surface $-1 0 1.75 0 0 1 0 1 0 0 forward_v I I I I #
coedge $-1 $531 $454 $510 $532 reversed $500 $-1 #
coedge $-1 $454 $531 $509 $533 forward $500 $-1 #
loop $-1 $-1 $499 $534 #
ellipse-curve $-1 0 1.644700531136593 0 0 -1 0 0.62581168831168854 0 0 1 I I #
point $-1 -0.62581168831168787 1.6447005311365932 7.663729698028021e-017 #
ellipse-curve $-1 2.7755575615628914e-017 1.84375 0 0 -1 0 -0.080000000000000029 0 0.43012352876819004 1 I I #
point $-1 -0.080000000000000002 1.84375 -0.43012352876819004 #
vertex $-1 $465 $535 #
straight-curve $-1 -0.072912266744394993 1.75 0.46304466723869547 0 1 0 I I #
edge $-1 $467 2.2105774001425336e-016 $491 2.8292319977934244 $466 $536 forward 7 unknown #
point $-1 -0.07291226674439498 1.84375 0.46304466723869547 #
coedge $-1 $537 $473 $499 $533 reversed $511 $-1 #
coedge $-1 $473 $537 $498 $532 forward $511 $-1 #
loop $-1 $-1 $510 $538 #
ellipse-curve $-1 0 1.644700531136593 0 0 1 0 0.62581168831168854 0 0 1 I I #
ellipse-curve $-1 -5.6898930012039273e-016 1.75 0.43012352876819016 0 1 0 -0.079999999999999433 0 -1.1102230246251565e-016 1 I I #
point $-1 -0.080000000000000002 1.75 0.43012352876819004 #
face $-1 $539 $540 $3 $-1 $541 reversed single #
loop $-1 $542 $543 $480 #
plane-surface $-1 0 0.75 0 0 1 0 -1 0 0 forward_v I I I I #
coedge $-1 $522 $544 $524 $545 reversed $481 $-1 #
coedge $-1 $483 $524 $546 $547 forward $437 $-1 #
coedge $-1 $544 $522 $483 $521 forward $481 $-1 #
edge $-1 $526 0 $548 0.71875 $520 $549 forward 7 unknown #
coedge $-1 $520 $518 $484 $523 reversed $481 $-1 #
edge $-1 $526 0 $525 3.1415926535897931 $484 $550 forward 7 unknown #
coedge $-1 $519 $485 $518 $545 forward $437 $-1 #
vertex $-1 $523 $551 #
vertex $-1 $523 $552 #
ellipse-curve $-1 0 1.46875 0 0 -1 0 -0.109375 0 0 1 I I #
ellipse-curve $-1 -1.5959455978986625e-016 1.84375 -0.43012352876819004 0 1 0 -0.072912266744394827 0 -0.032921138470505429 1 I I #
point $-1 -0.07291226674439498 1.84375 -0.46304466723869547 #
ellipse-curve $-1 5.5511151231257827e-017 1.75 -4.163336342344337e-017 -7.3681466998090827e-017 1 -4.6792963504200227e-016 -0.072912266744395021 -2.2204460492503131e-016 -0.46304466723869542 1 I I #
coedge $-1 $499 $498 $553 $554 reversed $500 $-1 #
edge $-1 $555 0 $456 1.3606490937007167 $498 $556 forward 7 unknown #
edge $-1 $557 0 $407 1.3606490937007167 $499 $558 forward 7 unknown #
face $-1 $538 $500 $3 $-1 $559 reversed single #
point $-1 -0.072912266744394869 1.7499999999999998 0.46304466723869547 #
ellipse-curve $-1 2.7755575615628914e-017 1.84375 -1.3877787807814457e-017 7.3681466998090691e-017 -1 -4.6792963504200227e-016 -0.072912266744394896 -2.2204460492503131e-016 0.46304466723869547 1 I I #
coedge $-1 $510 $509 $560 $561 forward $511 $-1 #
face $-1 $427 $511 $3 $-1 $562 reversed single #
face $-1 $563 $564 $3 $-1 $565 reversed single #
loop $-1 $-1 $566 $515 #
cone-surface $-1 0 0 0 0 1 0 -1.3125 0 0 1 I I 0 1 1.3125 forward I I I I #
loop $-1 $-1 $546 $480 #
coedge $-1 $567 $567 $568 $569 reversed $516 $-1 #
coedge $-1 $518 $520 $570 $571 forward $481 $-1 #
edge $-1 $525 0 $572 0.71875 $518 $573 forward 7 unknown #
coedge $-1 $570 $570 $519 $547 reversed $542 $-1 #
edge $-1 $572 0 $548 3.1415926535897931 $519 $574 forward 7 unknown #
vertex $-1 $571 $575 #
straight-curve $-1 0.109375 1.46875 0 0 -1 0 I I #
ellipse-curve $-1 0 1.46875 0 0 -1 0 0.109375 0 0 1 I I #
point $-1 -0.109375 1.46875 0 #
point $-1 0.109375 1.46875 0 #
coedge $-1 $576 $577 $531 $554 forward $578 $-1 #
edge $-1 $557 0 $555 3.1415926535897931 $553 $579 forward 7 unknown #
vertex $-1 $561 $580 #
ellipse-curve $-1 -0.64250000000000007 1.5664605141823913 -7.8680958233087728e-017 -1.2246063538223763e-016 2.101735857230161e-031 1 0.080000000000000071 2.2204460492503131e-016 9.7968508305790195e-018 1 I I #
vertex $-1 $581 $582 #
ellipse-curve $-1 0.64250000000000007 1.5664605141823913 0 0 0 -1 -0.080000000000000071 2.2204460492503131e-016 0 1 I I #
torus-surface $-1 0 1.5664605141823913 0 0 1 0 0.64249999999999996 0.080000000000000002 1 0 0 forward_v I I I I #
coedge $-1 $583 $584 $537 $561 reversed $585 $-1 #
edge $-1 $557 0 $555 3.1415926535897931 $560 $586 forward 7 unknown #
torus-surface $-1 0 1.5664605141823913 0 0 1 0 0.64249999999999996 0.080000000000000002 1 0 0 forward_v I I I I #
face $-1 $587 $588 $3 $-1 $589 forward single #
loop $-1 $-1 $590 $539 #
cone-surface $-1 0 0 0 0 1 0 -1.3125 0 0 1 I I 0 1 1.3125 forward I I I I #
coedge $-1 $568 $591 $592 $593 forward $540 $-1 #
coedge $-1 $543 $543 $594 $595 reversed $516 $-1 #
coedge $-1 $596 $566 $543 $569 forward $540 $-1 #
edge $-1 $597 0 $598 3.1415926535897931 $543 $599 forward 7 unknown #
coedge $-1 $546 $546 $544 $571 reversed $542 $-1 #
edge $-1 $548 0 $572 3.1415926535897931 $544 $600 forward 7 unknown #
vertex $-1 $571 $601 #
straight-curve $-1 -0.109375 1.46875 1.3394131994932251e-017 0 -1 0 I I #
ellipse-curve $-1 0 0.75 0 0 -1 0 -0.109375 0 0 1 I I #
point $-1 0.109375 0.75 0 #
coedge $-1 $602 $553 $584 $603 forward $578 $-1 #
coedge $-1 $553 $602 $583 $581 reversed $578 $-1 #
loop $-1 $-1 $553 $604 #
ellipse-curve $-1 0 1.5664605141823915 0 0 -1 0 0.5625 0 0 1 I I #
point $-1 -0.5625 1.5664605141823915 6.8884107402508708e-017 #
edge $-1 $557 0 $605 0.64271051418239167 $583 $606 forward 7 unknown #
point $-1 0.5625 1.5664605141823915 0 #
coedge $-1 $607 $560 $577 $581 forward $585 $-1 #
coedge $-1 $560 $607 $576 $603 reversed $585 $-1 #
loop $-1 $-1 $607 $608 #
ellipse-curve $-1 0 1.5664605141823915 0 0 1 0 0.5625 0 0 1 I I #
face $-1 $609 $610 $3 $-1 $611 forward single #
loop $-1 $-1 $612 $563 #
torus-surface $-1 0 0.03125 0 0 1 0 1.3437499999999998 0.03125 -0.031410759078128118 0 -0.9995065603657316 forward_v I I I I #
coedge $-1 $594 $613 $596 $614 forward $564 $-1 #
coedge $-1 $566 $596 $615 $616 reversed $540 $-1 #
coedge $-1 $613 $594 $566 $593 reversed $564 $-1 #
edge $-1 $617 -3.4694469519536142e-018 $597 0.71875 $592 $618 forward 7 unknown #
coedge $-1 $592 $590 $567 $595 forward $564 $-1 #
edge $-1 $598 0 $597 3.1415926535897931 $567 $619 forward 7 unknown #
coedge $-1 $591 $568 $590 $614 reversed $540 $-1 #
vertex $-1 $595 $620 #
vertex $-1 $595 $621 #
ellipse-curve $-1 0 0.75 -1.1102230246251565e-016 0 1 0 1.3125 0 1.1102230246251565e-016 1 I I #
ellipse-curve $-1 0 0.75 0 0 -1 0 0.109375 0 0 1 I I #
point $-1 -0.109375 0.75 0 #
coedge $-1 $577 $576 $622 $623 reversed $578 $-1 #
edge $-1 $555 -4.7906870637445773e-048 $624 0.64271051418239167 $584 $625 forward 7 unknown #
face $-1 $534 $578 $3 $-1 $626 forward single #
vertex $-1 $581 $627 #
straight-curve $-1 0.5625 1.5664605141823915 0 0 -1 0 I I #
coedge $-1 $584 $583 $628 $629 forward $585 $-1 #
face $-1 $604 $585 $3 $-1 $630 forward single #
face $-1 $631 $632 $3 $-1 $633 forward single #
loop $-1 $-1 $634 $587 #
torus-surface $-1 0 0.03125 0 0 1 0 1.3437499999999998 0.03125 0.031410759078128118 0 0.9995065603657316 forward_v I I I I #
coedge $-1 $635 $636 $637 $638 forward $588 $-1 #
coedge $-1 $590 $592 $636 $639 reversed $564 $-1 #
edge $-1 $640 1.0408340855860843e-016 $598 0.71875 $590 $641 forward 7 unknown #
coedge $-1 $634 $637 $591 $616 forward $610 $-1 #
edge $-1 $617 -6.1898593930051953e-008 $640 3.1415926535897931 $591 $642 forward 7 unknown #
vertex $-1 $639 $643 #
straight-curve $-1 1.3125 0.03125 1.6072958393918702e-016 0 1 0 I I #
ellipse-curve $-1 5.5511151231257827e-017 0.75 5.5511151231257827e-017 0 1 0 -1.3125 0 -5.5511151231257827e-017 1 I I #
point $-1 1.3125 0.75 0 #
point $-1 -1.3125 0.75 0 #
coedge $-1 $644 $645 $602 $623 forward $646 $-1 #
edge $-1 $605 0 $624 3.1415926535897936 $602 $647 forward 7 unknown #
vertex $-1 $603 $648 #
straight-curve $-1 -0.5625 1.5664605141823915 6.8884107402508721e-017 0 -1 3.8866670923913134e-016 I I #
cone-surface $-1 0 0.78593749999999996 0 0 1 0 0.5625 0 0 1 I I 0 1 0.5625 forward I I I I #
point $-1 0.5625 0.92374999999999985 0 #
coedge $-1 $649 $650 $607 $629 reversed $651 $-1 #
edge $-1 $605 0 $624 3.1415926535897927 $607 $652 forward 7 unknown #
cone-surface $-1 0 0.78593749999999996 0 0 1 0 0.5625 0 0 1 I I 0 1 0.5625 forward I I I I #
face $-1 $653 $654 $3 $-1 $655 forward single #
loop $-1 $-1 $656 $609 #
cone-surface $-1 0 0 0 0 1 0 1.375 0 0 1 I I 0 1 1.375 forward I I I I #
coedge $-1 $657 $615 $658 $659 forward $610 $-1 #
coedge $-1 $658 $612 $660 $661 reversed $588 $-1 #
coedge $-1 $612 $658 $613 $639 forward $588 $-1 #
coedge $-1 $615 $657 $612 $638 reversed $610 $-1 #
edge $-1 $617 -3.9016871153122156e-013 $662 3.1415926535898193 $612 $663 forward 7 unknown #
edge $-1 $640 0 $617 3.1415925916911993 $613 $664 forward 7 unknown #
vertex $-1 $639 $665 #
straight-curve $-1 -1.3125 0.03125 0 0 1 0 I I #
ellipse-curve $-1 0 0.031250000000000035 0 -1.0573552615477678e-017 1 3.275811486541133e-025 1.3124999999999991 1.3877787807814457e-017 -4.0662800219025502e-008 1 I I #
point $-1 1.3124999999999993 0.031249999999999997 4.0579104314167659e-008 #
coedge $-1 $666 $622 $650 $667 reversed $646 $-1 #
coedge $-1 $622 $666 $649 $668 forward $646 $-1 #
loop $-1 $-1 $645 $669 #
ellipse-curve $-1 0 0.92374999999999985 0 0 -1 0 0.5625 0 0 1 I I #
point $-1 -0.5625 0.92374999999999985 -3.1868428794316894e-016 #
coedge $-1 $670 $628 $645 $668 reversed $651 $-1 #
coedge $-1 $628 $670 $644 $667 forward $651 $-1 #
loop $-1 $-1 $650 $671 #
ellipse-curve $-1 0 0.92374999999999985 0 0 1 0 0.5625 0 0 1 I I #
face $-1 $672 $673 $3 $-1 $674 forward single #
loop $-1 $-1 $675 $631 #
cone-surface $-1 0 0 0 0 1 0 1.375 0 0 1 I I 0 1 1.375 forward I I I I #
coedge $-1 $676 $677 $678 $679 forward $632 $-1 #
coedge $-1 $637 $634 $677 $680 reversed $610 $-1 #
coedge $-1 $636 $635 $634 $659 reversed $588 $-1 #
edge $-1 $640 -3.1554436208840444e-030 $681 3.1415926535902337 $658 $682 forward 7 unknown #
coedge $-1 $675 $678 $635 $661 forward $654 $-1 #
edge $-1 $681 -6.1917703088751815e-008 $662 3.141592653589794 $660 $683 forward 7 unknown #
vertex $-1 $680 $684 #
ellipse-curve $-1 1.3437499999999991 0.031249999999999657 -4.163754097402925e-008 3.1191704160117666e-008 -1.5072041959119792e-007 0.99999999999998823 -0.03125 3.920475055707584e-016 9.7474075500374758e-010 1 I I #
ellipse-curve $-1 0 0.031250000000000021 0 6.3441315692866072e-017 1 -1.9654868919246796e-024 -1.3124999999999991 8.3266726846886741e-017 4.0662800219025502e-008 1 I I #
point $-1 -1.3124999999999991 0.031250000000000104 4.0662800219025502e-008 #
coedge $-1 $645 $644 $685 $686 reversed $646 $-1 #
edge $-1 $687 -1.7105694144590021e-045 $624 1.5707963267948939 $644 $688 forward 7 unknown #
edge $-1 $689 0 $605 1.5707963267948939 $645 $690 forward 7 unknown #
face $-1 $671 $646 $3 $-1 $691 reversed single #
coedge $-1 $650 $649 $692 $693 forward $651 $-1 #
face $-1 $608 $651 $3 $-1 $694 reversed single #
face $-1 $695 $696 $3 $-1 $697 forward single #
loop $-1 $-1 $698 $653 #
torus-surface $-1 0 0.76375000000000004 0 0 1 0 1.2949999999999999 0.080000000000000002 1 0 0 forward_v I I I I #
coedge $-1 $699 $660 $700 $701 forward $654 $-1 #
coedge $-1 $700 $656 $702 $703 reversed $632 $-1 #
coedge $-1 $656 $700 $657 $680 forward $632 $-1 #
coedge $-1 $660 $699 $656 $679 reversed $654 $-1 #
edge $-1 $681 8.3266726846886741e-017 $704 0.73250000000000004 $656 $705 forward 7 unknown #
edge $-1 $662 0 $681 3.1415925916720893 $677 $706 forward 7 unknown #
vertex $-1 $680 $707 #
ellipse-curve $-1 -1.3437499999999991 0.031249999999999625 4.1637540363406599e-008 -3.1191684620192439e-008 -1.5072042318751802e-007 -0.99999999999998823 0.03125 4.7878367936959876e-016 -9.7474014438109727e-010 1 I I #
ellipse-curve $-1 0 0.031250000000000021 0 4.5418214643756394e-017 1 -1.4075445109546567e-024 -1.3749999999999991 6.2450045135165055e-017 4.2612280507787551e-008 1 I I #
point $-1 1.3749999999999991 0.031250000000000083 -4.2612281729032878e-008 #
coedge $-1 $692 $692 $666 $686 forward $708 $-1 #
edge $-1 $689 0 $687 3.1415926535897931 $685 $709 forward 7 unknown #
vertex $-1 $693 $710 #
ellipse-curve $-1 -0.64249999999999996 0.92375000000000007 -5.0511654037567385e-016 -2.3304031554062989e-015 5.3304447767823222e-015 1 0 -0.080000000000000071 4.2643558214258615e-016 1 I I #
vertex $-1 $693 $711 #
ellipse-curve $-1 0.64249999999999996 0.92375000000000007 0 0 0 -1 0 -0.080000000000000071 0 1 I I #
torus-surface $-1 0 0.92374999999999996 0 0 1 0 0.64249999999999996 0.080000000000000002 1 0 0 forward_v I I I I #
coedge $-1 $685 $685 $670 $693 reversed $708 $-1 #
edge $-1 $689 0 $687 3.1415926535897931 $692 $712 forward 7 unknown #
torus-surface $-1 0 0.92374999999999996 0 0 1 0 0.64249999999999996 0.080000000000000002 1 0 0 forward_v I I I I #
face $-1 $669 $708 $3 $-1 $713 forward single #
loop $-1 $-1 $714 $672 #
torus-surface $-1 0 0.76375000000000004 0 0 1 0 1.2949999999999999 0.080000000000000002 1 0 0 forward_v I I I I #
coedge $-1 $715 $716 $717 $718 forward $673 $-1 #
coedge $-1 $678 $675 $715 $719 reversed $654 $-1 #
coedge $-1 $677 $676 $675 $701 reversed $632 $-1 #
edge $-1 $662 8.3266726846886741e-017 $720 0.73250000000000004 $700 $721 forward 7 unknown #
coedge $-1 $717 $714 $676 $703 forward $696 $-1 #
edge $-1 $720 0 $704 3.1415926535897931 $676 $722 forward 7 unknown #
vertex $-1 $703 $723 #
straight-curve $-1 -1.375 0.03125 -1.6838337365057687e-016 0 1 0 I I #
ellipse-curve $-1 0 0.031250000000000042 0 -3.0278809762504261e-017 1 9.3836303419608975e-025 1.3749999999999991 4.163336342344337e-017 -4.2612281729032878e-008 1 I I #
point $-1 -1.3749999999999991 0.031250000000000083 -4.2524561239246151e-008 #
loop $-1 $724 $685 $695 #
ellipse-curve $-1 2.7755575615628914e-017 0.84375 5.5511151231257827e-017 0 -1 0 0.64249999999999996 0 -5.5511151231257827e-017 1 I I #
point $-1 -0.64249999999999996 0.84375 -7.8680958233087728e-017 #
point $-1 0.64249999999999996 0.84375 0 #
ellipse-curve $-1 2.7755575615628914e-017 0.84375 -5.5511151231257827e-017 0 1 0 0.64249999999999996 0 5.5511151231257827e-017 1 I I #
plane-surface $-1 0 0.84375 0 0 1 0 1 0 0 forward_v I I I I #
coedge $-1 $702 $725 $726 $727 forward $696 $-1 #
coedge $-1 $726 $698 $699 $719 forward $673 $-1 #
coedge $-1 $698 $726 $728 $729 reversed $673 $-1 #
coedge $-1 $725 $702 $698 $718 reversed $696 $-1 #
edge $-1 $730 0 $704 1.5707963267948994 $717 $731 forward 7 unknown #
edge $-1 $704 -2.6078046453587168e-032 $720 3.1415926535897931 $699 $732 forward 7 unknown #
vertex $-1 $701 $733 #
straight-curve $-1 1.375 0.03125 0 0 1 0 I I #
ellipse-curve $-1 0 0.76375000000000004 0 0 1 0 1.375 0 0 1 I I #
point $-1 -1.375 0.76375000000000004 -1.6838337365057687e-016 #
loop $-1 $-1 $728 $695 #
coedge $-1 $714 $717 $734 $735 reversed $696 $-1 #
coedge $-1 $716 $715 $714 $727 reversed $673 $-1 #
edge $-1 $736 -1.4444474582904285e-030 $720 1.5707963267948994 $714 $737 forward 7 unknown #
coedge $-1 $734 $734 $716 $729 forward $724 $-1 #
edge $-1 $730 0 $736 3.1415926535897931 $728 $738 forward 7 unknown #
vertex $-1 $735 $739 #
ellipse-curve $-1 -1.2950000000000002 0.76375000000000004 -1.5858652281999779e-016 -1.224606353822379e-016 9.5619412473288243e-031 1 2.2204460492503131e-016 0.07999999999999996 -4.9303806576313238e-032 1 I I #
ellipse-curve $-1 0 0.76375000000000004 0 0 1 0 -1.375 0 -1.6838337365057685e-016 1 I I #
point $-1 1.375 0.76375000000000004 0 #
coedge $-1 $728 $728 $725 $735 forward $724 $-1 #
edge $-1 $736 0 $730 3.1415926535897931 $734 $740 forward 7 unknown #
vertex $-1 $735 $741 #
ellipse-curve $-1 1.2950000000000002 0.76375000000000004 3.1717304563999558e-016 2.449212707644758e-016 1.9123882494657649e-030 -1 -2.2204460492503131e-016 0.07999999999999996 9.8607613152626476e-032 1 I I #
ellipse-curve $-1 5.5511151231257827e-017 0.84375 1.1102230246251565e-016 0 1 0 -1.2949999999999999 0 -2.696088252825135e-016 1 I I #
point $-1 -1.2949999999999999 0.84375 -1.5858652281999784e-016 #
ellipse-curve $-1 5.5511151231257827e-017 0.84375 0 0 1 0 1.2949999999999999 0 0 1 I I #
point $-1 1.2949999999999999 0.84375 0 #
End-of-ACIS-data 