600 0 1 0           
96 GICL Pro/E ACIS Translator - Source: f:/data5/repository/PTC/V18/reel18/areel/wind_arm.prt - 6 0 13 ACIS 6.0.3 NT 24 Thu Apr 04 13:30:06 2002 
1 9.9999999999999995e-007 1e-010 
body $-1 $1 $-1 $2 #
lump $-1 $-1 $3 $0 #
transform $-1 1 0 0 0 1 0 0 0 1 0 0 0 25.399999999999999 no_rotate no_reflect no_shear #
shell $-1 $-1 $-1 $4 $-1 $1 #
face $-1 $5 $6 $3 $-1 $7 reversed single #
face $-1 $8 $9 $3 $-1 $10 reversed single #
loop $-1 $11 $12 $4 #
plane-surface $-1 0 -0.03125 0 0 1 0 1 0 0 forward_v I I I I #
face $-1 $13 $14 $3 $-1 $15 forward single #
loop $-1 $-1 $16 $5 #
cone-surface $-1 -0.89724575597531731 -0.03125 -0.89261228649917279 0 1 0 0.44308432393842828 0 0.44079619086378896 1 I I 0 1 0.62499999999999989 forward I I I I #
loop $-1 $17 $18 $4 #
coedge $-1 $19 $20 $21 $22 forward $6 $-1 #
face $-1 $23 $24 $3 $-1 $25 reversed single #
loop $-1 $26 $27 $8 #
plane-surface $-1 0 0.03125 0 0 1 0 1 0 0 forward_v I I I I #
coedge $-1 $28 $29 $30 $31 forward $9 $-1 #
loop $-1 $-1 $32 $4 #
coedge $-1 $33 $33 $34 $35 reversed $11 $-1 #
coedge $-1 $36 $12 $37 $38 reversed $6 $-1 #
coedge $-1 $12 $39 $40 $41 reversed $6 $-1 #
coedge $-1 $29 $28 $12 $22 reversed $9 $-1 #
edge $-1 $42 -1.4210854715202085e-016 $43 0.64499666363208774 $12 $44 forward 7 unknown #
face $-1 $45 $46 $3 $-1 $47 forward single #
loop $-1 $-1 $48 $13 #
cone-surface $-1 0.89724575597531742 -0.03125 -0.89261228649917279 0 1 0 -0.6190742751864311 0 0.085860595166787901 1 I I 0 1 0.625 forward I I I I #
loop $-1 $49 $50 $8 #
coedge $-1 $51 $52 $48 $53 reversed $14 $-1 #
coedge $-1 $21 $16 $54 $55 reversed $9 $-1 #
coedge $-1 $16 $21 $56 $57 forward $9 $-1 #
coedge $-1 $52 $58 $16 $31 reversed $14 $-1 #
edge $-1 $59 -1.4210854715202085e-016 $60 0.64499666363208774 $30 $61 forward 7 unknown #
coedge $-1 $62 $62 $63 $64 reversed $17 $-1 #
coedge $-1 $18 $18 $65 $66 reversed $11 $-1 #
coedge $-1 $67 $68 $18 $35 forward $69 $-1 #
edge $-1 $70 0 $71 3.1415926535897931 $18 $72 forward 7 unknown #
coedge $-1 $73 $19 $74 $75 reversed $6 $-1 #
coedge $-1 $54 $76 $19 $38 forward $77 $-1 #
edge $-1 $78 0 $43 0.65493446788246668 $19 $79 forward 7 unknown #
coedge $-1 $20 $73 $80 $81 forward $6 $-1 #
coedge $-1 $82 $56 $20 $41 forward $46 $-1 #
edge $-1 $42 0 $83 4.70721152047921 $20 $84 forward 7 unknown #
vertex $-1 $41 $85 #
vertex $-1 $38 $86 #
ellipse-curve $-1 -0.89724575597531575 -0.03125 -0.8926122864991719 0 1 0 0.44308432393842673 0 0.44079619086378807 1 I I #
face $-1 $87 $88 $3 $-1 $89 forward single #
loop $-1 $-1 $82 $23 #
cone-surface $-1 0 -0.03125 0 0 1 0 0.640625 0 0 1 I I 0 1 0.640625 forward I I I I #
coedge $-1 $90 $91 $27 $53 forward $24 $-1 #
loop $-1 $-1 $92 $8 #
coedge $-1 $93 $93 $94 $95 forward $26 $-1 #
coedge $-1 $96 $27 $97 $98 forward $14 $-1 #
coedge $-1 $27 $30 $99 $100 forward $14 $-1 #
edge $-1 $101 -1.4210854715201967e-016 $102 0.64499666363208485 $27 $103 forward 7 unknown #
coedge $-1 $104 $37 $28 $55 forward $77 $-1 #
edge $-1 $43 0 $60 0.0625 $54 $105 forward 7 unknown #
coedge $-1 $40 $99 $29 $57 reversed $46 $-1 #
edge $-1 $42 1.97215226305253e-031 $59 0.0625 $56 $106 forward 7 unknown #
coedge $-1 $30 $96 $104 $107 forward $14 $-1 #
vertex $-1 $100 $108 #
vertex $-1 $31 $109 #
ellipse-curve $-1 -0.89724575597531575 0.03125 -0.8926122864991719 7.8707586925906486e-018 1 7.8301132842247255e-018 0.44308432393842673 -6.9388939039072284e-018 0.44079619086378807 1 I I #
coedge $-1 $32 $32 $110 $111 reversed $17 $-1 #
coedge $-1 $112 $113 $32 $64 forward $114 $-1 #
edge $-1 $115 0 $116 3.1415926535897931 $32 $117 forward 7 unknown #
coedge $-1 $118 $119 $33 $66 forward $120 $-1 #
edge $-1 $71 0 $70 3.1415926535897931 $33 $121 forward 7 unknown #
coedge $-1 $94 $34 $119 $122 reversed $69 $-1 #
coedge $-1 $34 $94 $118 $123 forward $69 $-1 #
loop $-1 $-1 $67 $124 #
vertex $-1 $66 $125 #
vertex $-1 $66 $126 #
ellipse-curve $-1 0 -0.03125 0 0 -1 0 -0.53249999999999997 0 0 1 I I #
coedge $-1 $39 $36 $127 $128 reversed $6 $-1 #
coedge $-1 $129 $130 $36 $75 forward $131 $-1 #
edge $-1 $132 0 $78 2.8659671139645488 $36 $133 forward 7 unknown #
coedge $-1 $37 $104 $129 $134 reversed $77 $-1 #
loop $-1 $-1 $54 $135 #
vertex $-1 $75 $136 #
straight-curve $-1 -0.18819857965667505 -0.03125 -1.4554766209307033 -0.13737695226686053 0 0.99051884029828974 I I #
coedge $-1 $91 $90 $39 $81 reversed $24 $-1 #
edge $-1 $137 -1.4210854715201967e-016 $83 0.64499666363208485 $39 $138 forward 7 unknown #
coedge $-1 $99 $40 $90 $139 forward $46 $-1 #
vertex $-1 $41 $140 #
ellipse-curve $-1 0 -0.03125 0 0 1 0 -0.45416143203688902 0 -0.45181609563538372 1 I I #
point $-1 -0.45416143203688902 -0.03125 -0.45181609563538372 #
point $-1 -0.27817148078888637 -0.03125 -0.806751691332385 #
face $-1 $135 $131 $3 $-1 $141 forward single #
loop $-1 $-1 $142 $45 #
plane-surface $-1 0.3125 -0.03125 -0.55923531775541502 0.99051884029828974 0 -0.13737695226686056 -0.13737695226686053 0 -0.99051884029828963 forward_v I I I I #
coedge $-1 $80 $48 $82 $139 reversed $24 $-1 #
coedge $-1 $48 $80 $143 $144 forward $24 $-1 #
coedge $-1 $145 $145 $146 $147 forward $49 $-1 #
coedge $-1 $50 $50 $148 $149 forward $26 $-1 #
coedge $-1 $68 $67 $50 $95 reversed $69 $-1 #
edge $-1 $150 0 $151 3.1415926535897931 $50 $152 forward 7 unknown #
coedge $-1 $58 $51 $153 $154 forward $14 $-1 #
coedge $-1 $143 $142 $51 $98 reversed $88 $-1 #
edge $-1 $101 0 $155 0.65493446788246668 $51 $156 forward 7 unknown #
coedge $-1 $56 $82 $52 $100 reversed $46 $-1 #
edge $-1 $59 0 $102 4.70721152047921 $52 $157 forward 7 unknown #
vertex $-1 $98 $158 #
vertex $-1 $100 $159 #
ellipse-curve $-1 0.89724575597531819 0.03125 -0.89261228649917301 0 1 0 -0.61907427518643188 0 0.085860595166788123 1 I I #
coedge $-1 $76 $54 $58 $107 reversed $77 $-1 #
straight-curve $-1 -0.27817148078888643 -0.03125 -0.80675169133238489 0 1 0 I I #
straight-curve $-1 -0.45416143203688891 -0.03125 -0.45181609563538383 -1.7763568394002509e-015 1 0 I I #
edge $-1 $160 0 $60 0.65493446788246668 $58 $161 forward 7 unknown #
point $-1 -0.45416143203688902 0.03125 -0.45181609563538372 #
point $-1 -0.27817148078888637 0.03125 -0.806751691332385 #
coedge $-1 $162 $163 $62 $111 forward $164 $-1 #
edge $-1 $116 0 $115 3.1415926535897931 $62 $165 forward 7 unknown #
coedge $-1 $146 $63 $163 $166 reversed $114 $-1 #
coedge $-1 $63 $146 $162 $167 forward $114 $-1 #
loop $-1 $-1 $112 $168 #
vertex $-1 $111 $169 #
vertex $-1 $111 $170 #
ellipse-curve $-1 3.4694469519536142e-018 -0.03125 -1.4293749999999998 0 -1 0 -0.078125 0 0 1 I I #
coedge $-1 $148 $65 $68 $123 reversed $120 $-1 #
coedge $-1 $65 $148 $67 $122 forward $120 $-1 #
loop $-1 $-1 $118 $171 #
ellipse-curve $-1 0 -0.03125 0 0 -1 0 0.53249999999999997 0 0 1 I I #
edge $-1 $151 0 $71 0.0625 $119 $172 forward 7 unknown #
edge $-1 $150 0 $70 0.0625 $118 $173 forward 7 unknown #
face $-1 $171 $69 $3 $-1 $174 reversed single #
point $-1 -0.53249999999999997 -0.03125 0 #
point $-1 0.53249999999999997 -0.03125 0 #
coedge $-1 $142 $143 $73 $128 forward $88 $-1 #
edge $-1 $137 0 $132 0.65493446788246668 $73 $175 forward 7 unknown #
coedge $-1 $153 $74 $76 $134 forward $131 $-1 #
coedge $-1 $74 $153 $142 $176 reversed $131 $-1 #
loop $-1 $-1 $129 $87 #
vertex $-1 $128 $177 #
ellipse-curve $-1 0 -0.03125 -1.4293749999999998 0 1 0 0.18819857965667505 0 -0.026101620930703451 1 I I #
edge $-1 $78 0 $160 0.0625 $129 $178 forward 7 unknown #
face $-1 $124 $77 $3 $-1 $179 forward single #
point $-1 -0.18819857965667505 -0.03125 -1.4554766209307033 #
vertex $-1 $81 $180 #
ellipse-curve $-1 0.89724575597531819 -0.03125 -0.89261228649917301 0 1 0 -0.61907427518643188 0 0.085860595166788123 1 I I #
edge $-1 $83 -9.8607613152626476e-032 $102 0.0625 $82 $181 forward 7 unknown #
point $-1 0.45416143203688897 -0.03125 -0.45181609563538383 #
cone-surface $-1 0 -0.03125 -1.4293749999999998 0 1 0 0.19 0 0 1 I I 0 1 0.19 forward I I I I #
coedge $-1 $97 $127 $130 $176 forward $88 $-1 #
coedge $-1 $127 $97 $91 $144 reversed $88 $-1 #
edge $-1 $137 0 $101 0.0625 $143 $182 forward 7 unknown #
coedge $-1 $92 $92 $183 $184 forward $49 $-1 #
coedge $-1 $113 $112 $92 $147 reversed $114 $-1 #
edge $-1 $185 0 $186 3.1415926535897931 $92 $187 forward 7 unknown #
coedge $-1 $119 $118 $93 $149 reversed $120 $-1 #
edge $-1 $151 0 $150 3.1415926535897931 $93 $188 forward 7 unknown #
vertex $-1 $149 $189 #
vertex $-1 $149 $190 #
ellipse-curve $-1 0 0.03125 0 0 -1 0 -0.53249999999999997 0 0 1 I I #
coedge $-1 $130 $129 $96 $154 reversed $131 $-1 #
edge $-1 $155 0 $160 2.8659671139645488 $96 $191 forward 7 unknown #
vertex $-1 $154 $192 #
straight-curve $-1 0.27817148078888637 0.03125 -0.806751691332385 -0.13737695226686059 0 -0.99051884029828974 I I #
ellipse-curve $-1 9.7144514654701197e-017 0.03125 -3.4694469519536142e-017 0 1 0 -0.45416143203688913 0 -0.45181609563538366 1 I I #
point $-1 0.27817148078888637 0.03125 -0.806751691332385 #
point $-1 0.45416143203688897 0.03125 -0.45181609563538383 #
vertex $-1 $107 $193 #
straight-curve $-1 -0.18819857965667505 0.03125 -1.4554766209307033 -0.13737695226686053 0 0.99051884029828974 I I #
coedge $-1 $183 $110 $113 $167 reversed $164 $-1 #
coedge $-1 $110 $183 $112 $166 forward $164 $-1 #
loop $-1 $-1 $162 $194 #
ellipse-curve $-1 -3.4694469519536142e-018 -0.03125 -1.4293749999999998 0 -1 0 0.078125 0 0 1 I I #
edge $-1 $186 -2.0816681711721685e-017 $116 0.062499999999999979 $163 $195 forward 7 unknown #
edge $-1 $185 -2.0816681711721685e-017 $115 0.062499999999999979 $162 $196 forward 7 unknown #
face $-1 $194 $114 $3 $-1 $197 reversed single #
point $-1 -0.078125 -0.03125 -1.4293749999999998 #
point $-1 0.078125 -0.03125 -1.4293749999999998 #
face $-1 $168 $120 $3 $-1 $198 reversed single #
straight-curve $-1 0.53249999999999997 0.03125 0 0 -1 0 I I #
straight-curve $-1 -0.53249999999999997 0.03125 6.521028834104159e-017 0 -1 0 I I #
cone-surface $-1 0 0.037499999999999999 0 0 -1 0 0.53249999999999997 0 0 1 I I 0 1 0.53249999999999997 forward I I I I #
straight-curve $-1 0.27817148078888637 -0.03125 -0.806751691332385 -0.13737695226686059 0 -0.99051884029828974 I I #
edge $-1 $132 0 $155 0.0625 $142 $199 forward 7 unknown #
point $-1 0.18819857965667505 -0.03125 -1.4554766209307033 #
straight-curve $-1 -0.18819857965667505 -0.03125 -1.4554766209307033 0 1 0 I I #
plane-surface $-1 -0.18819857965667505 -0.03125 -1.4554766209307033 -0.99051884029828974 0 -0.13737695226686056 -0.13737695226686053 0 0.99051884029828963 forward_v I I I I #
point $-1 0.27817148078888637 -0.03125 -0.806751691332385 #
straight-curve $-1 0.45416143203688886 -0.03125 -0.45181609563538394 -8.8817841970012523e-016 1 0 I I #
straight-curve $-1 0.27817148078888637 -0.03125 -0.80675169133238489 0 1 0 I I #
coedge $-1 $163 $162 $145 $184 reversed $164 $-1 #
edge $-1 $186 0 $185 3.1415926535897931 $145 $200 forward 7 unknown #
vertex $-1 $184 $201 #
vertex $-1 $184 $202 #
ellipse-curve $-1 3.4694469519536142e-018 0.03125 -1.4293749999999998 0 -1 0 -0.078125 0 0 1 I I #
ellipse-curve $-1 0 0.03125 0 0 -1 0 0.53249999999999997 0 0 1 I I #
point $-1 -0.53249999999999997 0.03125 0 #
point $-1 0.53249999999999997 0.03125 0 #
ellipse-curve $-1 6.9388939039072284e-018 0.03125 -1.4293749999999998 0 1 0 0.18819857965667505 0 -0.026101620930703451 1 I I #
point $-1 0.18819857965667505 0.03125 -1.4554766209307033 #
point $-1 -0.18819857965667505 0.03125 -1.4554766209307033 #
face $-1 $-1 $164 $3 $-1 $203 reversed single #
straight-curve $-1 0.078125 0.031249999999999979 -1.4293749999999998 0 -1 0 I I #
straight-curve $-1 -0.078125 0.031249999999999979 -1.4293749999999998 0 -1 0 I I #
cone-surface $-1 0 0.037499999999999999 -1.4293749999999998 0 -1 0 0.078125 0 0 1 I I 0 1 0.078125 forward I I I I #
cone-surface $-1 0 0.037499999999999999 0 0 -1 0 0.53249999999999997 0 0 1 I I 0 1 0.53249999999999997 forward I I I I #
straight-curve $-1 0.18819857965667502 -0.03125 -1.4554766209307033 0 1 0 I I #
ellipse-curve $-1 -3.4694469519536142e-018 0.03125 -1.4293749999999998 0 -1 0 0.078125 0 0 1 I I #
point $-1 -0.078125 0.03125 -1.4293749999999998 #
point $-1 0.078125 0.03125 -1.4293749999999998 #
cone-surface $-1 0 0.037499999999999999 -1.4293749999999998 0 -1 0 0.078125 0 0 1 I I 0 1 0.078125 forward I I I I #
End-of-ACIS-data 