600 0 1 0           
91 GICL ACIS Healer - Source: /gicl/data5/repository/PTC/V18/reel18/areel/wind_shaft.sat - 6 0 18 ACIS 6.0.3 Solaris 24 Sat Apr 13 20:59:53 2002 
1 9.999999999999999547e-07 1.000000000000000036e-10 
body $-1 $1 $-1 $-1 #
lump $-1 $-1 $2 $0 #
shell $-1 $-1 $-1 $3 $-1 $1 #
face $-1 $4 $5 $2 $-1 $6 reversed single #
face $-1 $7 $8 $2 $-1 $9 forward single #
loop $-1 $-1 $10 $3 #
plane-surface $-1 0 0 -51.59375 0 0 1 25.39999999999999858 0 0 forward_v I I I I #
face $-1 $11 $12 $2 $-1 $13 forward single #
loop $-1 $-1 $14 $4 #
cone-surface $-1 0 0 -51.59375 0 0 1 2.778124999999999734 0 0 1 I I 0 1 2.778124999999999734 forward I I I I #
coedge $-1 $15 $16 $17 $18 reversed $5 $-1 #
face $-1 $19 $20 $2 $-1 $21 forward single #
loop $-1 $-1 $22 $7 #
cone-surface $-1 0 0 -51.59375 0 0 1 2.778124999999999734 0 0 1 I I 0 1 2.778124999999999734 forward I I I I #
coedge $-1 $17 $23 $24 $25 reversed $8 $-1 #
coedge $-1 $16 $10 $26 $27 reversed $5 $-1 #
coedge $-1 $10 $15 $28 $29 reversed $5 $-1 #
coedge $-1 $30 $14 $10 $18 forward $8 $-1 #
edge $-1 $31 0 $32 2.013707370868535573 $10 $33 forward 7 unknown #
face $-1 $34 $35 $2 $-1 $36 forward single #
loop $-1 $37 $38 $11 #
plane-surface $-1 0 0 51.59375 0 0 1 25.39999999999999858 0 0 forward_v I I I I #
coedge $-1 $39 $40 $41 $42 forward $12 $-1 #
coedge $-1 $14 $41 $43 $44 forward $8 $-1 #
coedge $-1 $40 $26 $14 $25 forward $12 $-1 #
edge $-1 $31 0 $45 0.3732429498695085668 $14 $46 forward 7 unknown #
coedge $-1 $24 $47 $15 $27 forward $12 $-1 #
edge $-1 $48 0 $31 2.013707370868535573 $15 $49 forward 7 unknown #
coedge $-1 $50 $51 $16 $29 forward $52 $-1 #
edge $-1 $32 0 $48 0.1976423537605236924 $16 $53 forward 7 unknown #
coedge $-1 $54 $17 $51 $55 forward $8 $-1 #
vertex $-1 $27 $56 #
vertex $-1 $29 $57 #
ellipse-curve $-1 0 0 -51.59375 0 0 1 2.778124999999999734 0 0 1 I I #
face $-1 $58 $59 $2 $-1 $60 forward single #
loop $-1 $-1 $61 $19 #
cone-surface $-1 0 0 51.59375 0 0 1 0 2.381249999999999645 0 1 I I 0 1 2.381249999999999645 forward I I I I #
loop $-1 $-1 $62 $11 #
coedge $-1 $63 $63 $39 $64 forward $20 $-1 #
coedge $-1 $65 $22 $38 $64 reversed $12 $-1 #
coedge $-1 $22 $24 $66 $67 forward $12 $-1 #
coedge $-1 $23 $68 $22 $42 reversed $8 $-1 #
edge $-1 $69 0 $70 3.55574294986950834 $41 $71 forward 7 unknown #
coedge $-1 $72 $73 $23 $44 reversed $74 $-1 #
edge $-1 $69 0 $45 1.000000000000000222 $23 $75 forward 7 unknown #
vertex $-1 $44 $76 #
straight-curve $-1 2.778124999999999734 0 -51.59375 0 0 25.39999999999999858 I I #
coedge $-1 $26 $77 $50 $78 reversed $12 $-1 #
vertex $-1 $29 $79 #
ellipse-curve $-1 0 0 -51.59375 0 0 1 -1.190624999999999822 -2.510057892758650766 0 1 I I #
coedge $-1 $80 $28 $47 $78 forward $52 $-1 #
coedge $-1 $28 $80 $30 $55 reversed $52 $-1 #
loop $-1 $81 $50 $82 #
straight-curve $-1 -1.190624999999999822 2.510057892758650766 -51.59375 0 -25.39999999999999858 0 I I #
coedge $-1 $83 $30 $84 $85 forward $8 $-1 #
edge $-1 $32 0 $86 0.6875 $30 $87 forward 7 unknown #
point $-1 2.778124999999999734 0 -51.59375 #
point $-1 -1.190624999999999822 2.510057892758650766 -51.59375 #
face $-1 $88 $89 $2 $-1 $90 forward single #
loop $-1 $-1 $91 $34 #
plane-surface $-1 0 0 96.04374999999998863 0 0 1 0 25.39999999999999858 0 forward_v I I I I #
coedge $-1 $92 $93 $94 $95 reversed $35 $-1 #
coedge $-1 $96 $96 $97 $98 reversed $37 $-1 #
coedge $-1 $38 $38 $68 $99 forward $20 $-1 #
edge $-1 $100 0 $70 3.141592653589793116 $38 $101 forward 7 unknown #
coedge $-1 $77 $39 $83 $102 reversed $12 $-1 #
coedge $-1 $103 $104 $40 $67 reversed $105 $-1 #
edge $-1 $45 0 $69 1.000000000000000222 $40 $106 forward 7 unknown #
coedge $-1 $41 $83 $63 $99 reversed $8 $-1 #
vertex $-1 $44 $107 #
vertex $-1 $99 $108 #
straight-curve $-1 2.778124999999999734 0 -38.72212092668551264 0 0 25.39999999999999858 I I #
coedge $-1 $109 $43 $104 $110 forward $74 $-1 #
coedge $-1 $43 $111 $103 $112 reversed $74 $-1 #
loop $-1 $-1 $72 $113 #
intcurve-curve $-1 forward { surfintcur full nurbs 3 open 11 
	0 3 0.09815088233797227002 1 0.1972038121239225172 1 0.2973738306846789303 1 0.398495433266229826 1 
	0.5002339905611582482 1 0.6018755830723110378 1 0.7026890887783093786 1 0.8025400283057746442 1 0.9016120397410922749 1 
	1.000000000000000222 3 
	2.778124999999999734 0 -38.72212092668551264 1 
	2.777682754746926275 0.128072853622029692 -38.72099532174927816 1 
	2.761267445419180344 0.3782817874876558406 -38.76743440365300586 1 
	2.682382915320578931 0.7536793258145952912 -38.98559233848583006 1.000000000000000222 
	2.569111247740410331 1.070923884558361516 -39.35530530424710349 1 
	2.462470366582063086 1.289683765129896242 -39.84922282891961487 1 
	2.417101164703201022 1.368908024712699678 -40.43098594107358679 1 
	2.466185695104438302 1.282840260458247172 -41.00677464378740922 0.9999999999999995559 
	2.57028077161375812 1.066918102168192384 -41.48236226700880991 1.000000000000000222 
	2.678343046720148557 0.7658341057269388852 -41.83768575908764831 0.9999999999999996669 
	2.759934406351181035 0.391922567675486333 -42.06465225071625724 1.000000000000000222 
	2.777095505375411388 0.1341295152220961517 -42.11304735239849606 1 
	2.778124999999999734 0 -42.11337907331448349 1 
	0.02539999999999999897 
	cone 26.52573940194316648 0 -40.41774999999999807 -1 0 0 0 0 -26.06472636461851522 1 I I -0.7161801451052381973 0.6979154674866003827 26.06472636461851522 forward I I I I 
	cone 0 0 -51.59375 0 0 1 2.778124999999999734 0 0 1 I I 0 1 2.778124999999999734 forward I I I I 
	nullbs 
	nullbs 
	I I 
	0 
	0 
	0 
	} I I #
point $-1 2.778124999999999734 0 -42.11337907331448349 #
coedge $-1 $47 $65 $114 $115 forward $12 $-1 #
edge $-1 $48 9.176084259013200778e-33 $116 0.6875 $47 $117 forward 7 unknown #
point $-1 -1.190624999999999822 -2.510057892758650766 -51.59375 #
coedge $-1 $51 $50 $118 $119 reversed $52 $-1 #
loop $-1 $-1 $120 $82 #
face $-1 $121 $52 $2 $-1 $122 reversed single #
coedge $-1 $68 $54 $65 $102 forward $8 $-1 #
coedge $-1 $118 $114 $54 $85 reversed $123 $-1 #
edge $-1 $86 0 $124 1.127885282721256432 $54 $125 forward 7 unknown #
vertex $-1 $85 $126 #
straight-curve $-1 -1.190624999999999822 2.510057892758650766 -51.59375 0 5.127211786450722914e-16 25.39999999999999858 I I #
face $-1 $127 $128 $2 $-1 $129 reversed single #
loop $-1 $-1 $130 $58 #
cone-surface $-1 0 0 51.59375 0 0 1 0 2.381249999999999645 0 1 I I 0 1 2.381249999999999645 forward I I I I #
coedge $-1 $131 $132 $133 $134 forward $59 $-1 #
coedge $-1 $97 $61 $135 $136 reversed $35 $-1 #
coedge $-1 $61 $137 $138 $139 forward $35 $-1 #
coedge $-1 $132 $140 $61 $95 forward $59 $-1 #
edge $-1 $141 -1.224606353822374547e-16 $142 0.7297276562269648936 $94 $143 forward 7 unknown #
coedge $-1 $62 $62 $144 $145 reversed $37 $-1 #
coedge $-1 $146 $92 $62 $98 forward $35 $-1 #
edge $-1 $147 0 $148 3.141592653589793116 $62 $149 forward 7 unknown #
edge $-1 $70 0 $100 3.141592653589793116 $63 $150 forward 7 unknown #
vertex $-1 $99 $151 #
ellipse-curve $-1 0 0 51.59375 0 0 1 -2.778124999999999734 0 0 1 I I #
edge $-1 $124 0 $100 3.375 $83 $152 forward 7 unknown #
coedge $-1 $153 $66 $73 $112 forward $105 $-1 #
coedge $-1 $66 $154 $72 $110 reversed $105 $-1 #
loop $-1 $-1 $103 $155 #
intcurve-curve $-1 forward { surfintcur full nurbs 3 open 11 
	0 3 0.09830715065768176608 1 0.1975134359613144319 1 0.2977289437590319721 1 0.3988540318431931797 1 
	0.5005713699754674728 1 0.602170728991862636 1 0.7029232402124550028 1 0.8027113659233527931 1 0.9017112733180563389 1 
	1.000000000000000222 3 
	2.778124999999999734 -6.804219053425582852e-16 -42.1133790733144906 1 
	2.777533998145974348 -0.1312271036547627834 -42.11427906448152925 1 
	2.760581487300124426 -0.3863696937141405385 -42.06627370705721347 0.999999999999999889 
	2.678497579318726451 -0.7675333235364780737 -41.83862125929901765 1.000000000000000222 
	2.564798955994226581 -1.080690264658648037 -41.4640338567646296 0.999999999999999889 
	2.459644063936662572 -1.294833542355154909 -40.96745923988030569 0.9999999999999996669 
	2.417313300961355882 -1.368543969841680585 -40.38597101975089032 1.000000000000000222 
	2.468770341756142628 -1.278046412739688886 -39.81342081132423516 1.000000000000000222 
	2.573130299681369859 -1.060099626674165352 -39.34282355450370261 0.999999999999999778 
	2.680365477521000184 -0.7586706488311673047 -38.99193357377593827 1 
	2.760484484387066839 -0.3864440387767534291 -38.76938117777790183 1.000000000000000222 
	2.777237407538752034 -0.1319799534628608439 -38.72216433701247951 1 
	2.778124999999999734 -6.804219053425582852e-16 -38.72212092668551264 1 
	0.02539999999999999897 
	cone 26.52573940194316648 0 -40.41774999999999807 -1 0 0 0 0 -26.06472636461851522 1 I I -0.7161801451052381973 0.6979154674866003827 26.06472636461851522 forward I I I I 
	cone 0 0 -51.59375 0 0 1 2.778124999999999734 0 0 1 I I 0 1 2.778124999999999734 forward I I I I 
	nullbs 
	nullbs 
	I I 
	0 
	0 
	0 
	} I I #
point $-1 2.778124999999999734 0 -38.72212092668551264 #
point $-1 2.778124999999999734 0 51.59375 #
coedge $-1 $111 $72 $156 $157 reversed $74 $-1 #
edge $-1 $69 1.77001724199566911e-13 $158 0.02776124173017504443 $104 $159 forward 7 unknown #
coedge $-1 $73 $109 $160 $161 reversed $74 $-1 #
edge $-1 $45 1.485025912324356999e-13 $162 0.02776124173014681701 $103 $163 forward 7 unknown #
face $-1 $155 $74 $2 $-1 $164 reversed single #
coedge $-1 $84 $118 $77 $115 reversed $123 $-1 #
edge $-1 $124 -1.224606353822377258e-16 $116 1.127885282721258209 $77 $165 forward 7 unknown #
vertex $-1 $78 $166 #
straight-curve $-1 -1.190625000000001599 -2.510057892758649878 -51.59375 2.563605893225361358e-15 -1.538163535935216776e-15 25.39999999999999858 I I #
coedge $-1 $114 $84 $80 $119 forward $123 $-1 #
edge $-1 $86 0 $116 0.1976423537605237757 $118 $167 forward 7 unknown #
coedge $-1 $168 $168 $169 $170 forward $81 $-1 #
face $-1 $171 $172 $2 $-1 $173 reversed single #
plane-surface $-1 -1.190624999999999822 2.51005789275865121 -51.59375 1 0 0 0 -25.39999999999999858 0 forward_v I I I I #
loop $-1 $-1 $118 $174 #
vertex $-1 $102 $175 #
ellipse-curve $-1 2.819966482547897455e-15 -1.365921264984137867e-15 -34.13125000000000142 0 0 1 -1.190625000000002709 2.510057892758652986 0 1 I I #
point $-1 -1.190624999999999822 2.510057892758651654 -34.13125000000000142 #
face $-1 $176 $177 $2 $-1 $178 forward single #
loop $-1 $-1 $179 $88 #
plane-surface $-1 -1.587499999999999911 -1.774878957140457958 96.04374999999998863 1 0 0 0 25.39999999999999858 0 forward_v I I I I #
coedge $-1 $180 $181 $131 $182 reversed $89 $-1 #
coedge $-1 $183 $91 $130 $182 forward $59 $-1 #
coedge $-1 $91 $94 $184 $185 forward $59 $-1 #
coedge $-1 $186 $146 $91 $134 reversed $35 $-1 #
edge $-1 $187 0 $188 0.7297276562269671141 $91 $189 forward 7 unknown #
coedge $-1 $190 $144 $92 $136 forward $89 $-1 #
edge $-1 $147 0 $141 1.749999999999999556 $135 $191 forward 7 unknown #
coedge $-1 $93 $186 $192 $193 reversed $35 $-1 #
coedge $-1 $194 $184 $93 $139 reversed $195 $-1 #
edge $-1 $196 0 $142 1.187499999999999778 $93 $197 forward 7 unknown #
coedge $-1 $94 $183 $190 $198 forward $59 $-1 #
vertex $-1 $95 $199 #
vertex $-1 $185 $200 #
ellipse-curve $-1 -1.586231146433192368e-15 4.40619762898109002e-15 96.04374999999998863 0 0 1 1.586231146433192368e-15 -2.381250000000004086 0 1 I I #
coedge $-1 $135 $180 $96 $145 forward $89 $-1 #
edge $-1 $148 0 $147 3.141592653589793116 $96 $201 forward 7 unknown #
coedge $-1 $133 $97 $180 $202 forward $35 $-1 #
vertex $-1 $145 $203 #
vertex $-1 $145 $204 #
ellipse-curve $-1 0 0 51.59375 0 0 1 0 -2.381249999999999645 0 1 I I #
ellipse-curve $-1 0 0 51.59375 0 0 1 2.778124999999999734 0 0 1 I I #
point $-1 -2.778124999999999734 0 51.59375 #
straight-curve $-1 -2.778124999999999734 3.402109526712791426e-16 -34.13125000000000142 0 0 25.39999999999999858 I I #
coedge $-1 $154 $103 $205 $206 reversed $105 $-1 #
coedge $-1 $104 $153 $207 $208 reversed $105 $-1 #
face $-1 $-1 $105 $2 $-1 $209 reversed single #
coedge $-1 $207 $210 $109 $157 forward $211 $-1 #
edge $-1 $212 1.230861432025351845e-15 $158 1.570796326794885012 $156 $213 forward 7 unknown #
vertex $-1 $208 $214 #
straight-curve $-1 2.778125000003138556 -3.202683814375729722e-11 -38.72212092668229388 -17.72705287415966779 1.153658192228473298e-09 -18.19097568567303114 I I #
coedge $-1 $215 $205 $111 $161 forward $216 $-1 #
edge $-1 $162 -2.003332052691047787e-29 $212 1.570796326794922981 $160 $217 forward 7 unknown #
vertex $-1 $206 $218 #
straight-curve $-1 2.778125000002633627 3.848224850402415116e-11 -42.11337907331718355 -17.72705287415953279 -1.386186139585931705e-09 18.19097568567316259 I I #
cone-surface $-1 26.52573940194316648 0 -40.41774999999999807 -1 0 0 0 0 -26.06472636461851522 1 I I -0.7161801451052381973 0.6979154674866003827 26.06472636461851522 forward I I I I #
ellipse-curve $-1 -1.057487430955461447e-15 -9.693634783758397255e-16 -34.13125000000000142 0 0 1 -2.778124999999998845 9.693634783758397255e-16 0 1 I I #
point $-1 -1.190624999999999822 -2.51005789275865121 -34.13125000000000142 #
straight-curve $-1 -1.190624999999999822 2.510057892758651654 -34.13125000000000142 0 -25.39999999999999858 0 I I #
coedge $-1 $120 $120 $219 $220 forward $81 $-1 #
coedge $-1 $221 $222 $120 $170 reversed $172 $-1 #
edge $-1 $223 8.62753340204696741e-16 $224 3.141592653589785566 $120 $225 forward 7 unknown #
face $-1 $226 $227 $2 $-1 $228 reversed single #
loop $-1 $-1 $221 $121 #
cone-surface $-1 -24.89199999999999946 0 -40.41774999999999807 1 0 0 0 25.40000000000000568 0 1 I I -0.7071067811865475727 0.7071067811865474617 25.40000000000000568 forward I I I I #
face $-1 $82 $123 $2 $-1 $229 forward single #
point $-1 -2.778124999999999734 3.402109526712791426e-16 -34.13125000000000142 #
face $-1 $230 $195 $2 $-1 $231 forward single #
loop $-1 $-1 $232 $127 #
plane-surface $-1 0 0 65.88124999999999432 0 0 1 0 25.39999999999999858 0 forward_v I I I I #
coedge $-1 $233 $234 $181 $235 reversed $128 $-1 #
coedge $-1 $144 $130 $146 $202 reversed $89 $-1 #
coedge $-1 $130 $236 $179 $235 forward $89 $-1 #
edge $-1 $188 6.956014071843639437e-32 $237 0.7297276562269660038 $131 $238 forward 7 unknown #
coedge $-1 $140 $131 $234 $239 reversed $59 $-1 #
coedge $-1 $138 $240 $132 $185 reversed $195 $-1 #
edge $-1 $142 0 $187 0.1397542485937368628 $132 $241 forward 7 unknown #
coedge $-1 $137 $133 $240 $242 reversed $35 $-1 #
vertex $-1 $185 $243 #
vertex $-1 $182 $244 #
ellipse-curve $-1 9.032705139411233357e-16 2.114974861910922894e-15 96.04374999999998863 0 0 1 1.587499999999999023 1.77487895714045596 0 1 I I #
coedge $-1 $245 $135 $140 $198 reversed $89 $-1 #
straight-curve $-1 -2.916093880039535649e-16 -2.381249999999999645 51.59375 0 0 25.39999999999999858 I I #
coedge $-1 $246 $246 $137 $193 forward $247 $-1 #
edge $-1 $196 0 $248 1.682137341135860442 $137 $249 forward 7 unknown #
coedge $-1 $240 $138 $246 $250 forward $195 $-1 #
loop $-1 $-1 $138 $176 #
vertex $-1 $139 $251 #
straight-curve $-1 1.587499999999999911 -1.774878957140457958 65.88124999999999432 0 0 25.39999999999999858 I I #
edge $-1 $252 -1.566355119096947304e-16 $141 0.7297276562269658928 $140 $253 forward 7 unknown #
point $-1 -2.916093880039535649e-16 -2.381249999999999645 96.04374999999998863 #
point $-1 1.587499999999999911 -1.774878957140457958 96.04374999999998863 #
ellipse-curve $-1 0 0 51.59375 0 0 1 0 2.381249999999999645 0 1 I I #
edge $-1 $148 0 $188 1.749999999999999556 $180 $254 forward 7 unknown #
point $-1 0 -2.381249999999999645 51.59375 #
point $-1 0 2.381249999999999645 51.59375 #
coedge $-1 $160 $255 $153 $206 forward $216 $-1 #
edge $-1 $256 -1.230861432025388922e-15 $162 1.570796326794913877 $205 $257 forward 7 unknown #
coedge $-1 $258 $156 $154 $208 forward $211 $-1 #
edge $-1 $158 7.790735760464815738e-30 $256 1.570796326794884124 $207 $259 forward 7 unknown #
cone-surface $-1 26.52573940194316648 0 -40.41774999999999807 -1 0 0 0 0 -26.06472636461851522 1 I I -0.7161801451052381973 0.6979154674866003827 26.06472636461851522 forward I I I I #
coedge $-1 $156 $260 $215 $261 forward $211 $-1 #
loop $-1 $-1 $258 $226 #
vertex $-1 $157 $262 #
ellipse-curve $-1 2.285999999999999144 -8.393806483208976172e-15 -40.41775000000000517 1 0 0 0 1.190625000000005596 5.63993296509579491e-15 1 I I #
point $-1 2.285999999999999144 -1.458046940019767824e-16 -39.22712500000000091 #
coedge $-1 $263 $160 $210 $261 reversed $216 $-1 #
loop $-1 $-1 $160 $264 #
ellipse-curve $-1 2.285999999999998256 1.709604680044662738e-14 -40.41775000000001228 1 -2.550650260214701434e-29 -1.776356839400283991e-15 -2.114974861910922894e-15 -1.709604680044662738e-14 -1.190624999999977396 1 I I #
point $-1 2.285999999999996479 0 -41.60837499999998812 #
coedge $-1 $265 $266 $168 $220 reversed $227 $-1 #
edge $-1 $224 0 $223 3.141592653589793116 $168 $267 forward 7 unknown #
coedge $-1 $268 $169 $266 $269 forward $172 $-1 #
coedge $-1 $169 $268 $265 $270 reversed $172 $-1 #
vertex $-1 $220 $271 #
vertex $-1 $220 $272 #
ellipse-curve $-1 -1.190624999999999822 1.409983241273948727e-15 -40.41774999999999096 1 0 0 0 -1.698625000000004492 -5.63993296509579491e-15 1 I I #
face $-1 $264 $211 $2 $-1 $273 reversed single #
loop $-1 $-1 $265 $171 #
cone-surface $-1 -24.89199999999999946 0 -40.41774999999999807 1 0 0 0 25.40000000000000568 0 1 I I -0.7071067811865475727 0.7071067811865474617 25.40000000000000568 forward I I I I #
plane-surface $-1 0 0 -34.13125000000000142 0 0 -1 0 -25.39999999999999858 0 forward_v I I I I #
face $-1 $174 $247 $2 $-1 $274 reversed single #
plane-surface $-1 1.587499999999999911 -1.774878957140457958 96.04374999999998863 1 0 0 0 25.39999999999999858 0 forward_v I I I I #
coedge $-1 $275 $275 $233 $276 forward $177 $-1 #
coedge $-1 $277 $179 $232 $276 reversed $128 $-1 #
coedge $-1 $179 $277 $183 $239 forward $128 $-1 #
edge $-1 $278 0 $237 1.187499999999999778 $181 $279 forward 7 unknown #
coedge $-1 $181 $245 $275 $280 reversed $89 $-1 #
vertex $-1 $239 $281 #
ellipse-curve $-1 7.490535969267852245e-16 -1.057487430955461447e-15 96.04374999999998863 0 0 1 -7.490535969267852245e-16 2.381250000000000977 0 1 I I #
edge $-1 $252 0 $237 0.1397542485937368628 $183 $282 forward 7 unknown #
coedge $-1 $184 $194 $186 $242 forward $195 $-1 #
straight-curve $-1 1.587499999999999911 -1.774878957140457958 96.04374999999998863 0 25.39999999999999858 0 I I #
edge $-1 $248 0 $187 1.187499999999999778 $186 $283 forward 7 unknown #
point $-1 1.587499999999999911 1.774878957140457958 96.04374999999998863 #
point $-1 0 2.381249999999999645 96.04374999999998863 #
coedge $-1 $236 $190 $277 $284 reversed $89 $-1 #
coedge $-1 $192 $192 $194 $250 reversed $247 $-1 #
loop $-1 $-1 $246 $230 #
vertex $-1 $193 $285 #
ellipse-curve $-1 -3.524958103184871819e-16 0 65.88124999999999432 0 0 1 1.587500000000000355 -1.774878957140457958 0 1 I I #
edge $-1 $196 0 $248 0.1397542485937368628 $246 $286 forward 7 unknown #
point $-1 1.587499999999999911 -1.774878957140457958 65.88124999999999432 #
vertex $-1 $198 $287 #
ellipse-curve $-1 1.762479051592435909e-16 7.049916206369743637e-16 96.04374999999998863 0 0 1 -1.587499999999999911 -1.774878957140458846 0 1 I I #
straight-curve $-1 0 2.381249999999999645 51.59375 0 0 25.39999999999999858 I I #
coedge $-1 $205 $263 $258 $288 forward $216 $-1 #
vertex $-1 $208 $289 #
ellipse-curve $-1 2.285999999999998256 -1.469466909265193458e-14 -40.41775000000000517 1 5.921189464667587995e-16 -2.804838774119234906e-30 7.049916206369743637e-16 -1.190624999999982503 5.63993296509579491e-15 1 I I #
coedge $-1 $260 $207 $255 $288 reversed $211 $-1 #
ellipse-curve $-1 2.285999999999997812 7.754907827006717804e-15 -40.41775000000000517 1 7.858329153639954799e-30 -1.184237892933494722e-15 1.409983241273948727e-15 -7.900712521008695227e-15 1.190625000000005596 1 I I #
coedge $-1 $210 $258 $290 $291 reversed $211 $-1 #
edge $-1 $292 -1.005320061668448899e-16 $212 0.1168749999999999789 $210 $293 forward 7 unknown #
point $-1 2.285999999999999588 1.190624999999999822 -40.41774999999999807 #
coedge $-1 $255 $215 $268 $294 reversed $216 $-1 #
face $-1 $113 $216 $2 $-1 $295 reversed single #
coedge $-1 $290 $219 $222 $270 forward $227 $-1 #
coedge $-1 $219 $290 $221 $269 reversed $227 $-1 #
ellipse-curve $-1 -1.190624999999999822 0 -40.41774999999999807 1 0 0 0 1.69862500000000316 0 1 I I #
coedge $-1 $222 $221 $263 $294 forward $172 $-1 #
edge $-1 $223 0 $296 0.02828427124746184587 $266 $297 forward 7 unknown #
edge $-1 $224 2.19609801375880656e-30 $292 0.02828427124746184587 $265 $298 forward 7 unknown #
point $-1 -1.190624999999999822 -1.69862500000000316 -40.41774999999999807 #
point $-1 -1.190624999999999822 1.69862500000000316 -40.41774999999999807 #
cone-surface $-1 -1.190624999999999822 0 -40.41774999999999807 1 0 0 0 1.190624999999999822 0 1 I I 0 1 1.190624999999999822 forward I I I I #
plane-surface $-1 0 0 65.88124999999999432 0 0 -1 0 25.39999999999999858 0 forward_v I I I I #
coedge $-1 $232 $232 $236 $280 forward $177 $-1 #
edge $-1 $299 0 $278 0.1397542485937368628 $232 $300 forward 7 unknown #
coedge $-1 $234 $233 $245 $284 forward $128 $-1 #
vertex $-1 $235 $301 #
straight-curve $-1 -1.587499999999999911 1.774878957140457958 65.88124999999999432 0 0 25.39999999999999858 I I #
edge $-1 $278 0 $299 1.682137341135860442 $236 $302 forward 7 unknown #
point $-1 -1.587499999999999911 1.774878957140457958 96.04374999999998863 #
straight-curve $-1 -1.587499999999999911 -1.774878957140457958 96.04374999999998863 0 25.39999999999999858 0 I I #
straight-curve $-1 1.587499999999999911 1.774878957140457958 65.88124999999999432 0 0 25.39999999999999858 I I #
edge $-1 $299 0 $252 1.187499999999999778 $245 $303 forward 7 unknown #
point $-1 1.587499999999999911 1.774878957140457958 65.88124999999999432 #
straight-curve $-1 1.587499999999999911 -1.774878957140457958 65.88124999999999432 0 25.39999999999999858 0 I I #
point $-1 -1.587499999999999911 -1.774878957140457958 96.04374999999998863 #
edge $-1 $296 -1.005320061668448899e-16 $256 0.116874999999999965 $258 $304 forward 7 unknown #
point $-1 2.285999999999999144 -1.190624999999997158 -40.41774999999999807 #
coedge $-1 $266 $265 $260 $291 forward $227 $-1 #
edge $-1 $292 1.23086143202536782e-15 $296 3.141592653589782458 $260 $305 forward 7 unknown #
vertex $-1 $261 $306 #
straight-curve $-1 -0.6826249999999998153 1.190624999999999822 -40.41774999999999807 25.39999999999999858 0 0 I I #
edge $-1 $296 0 $292 3.141592653589793116 $263 $307 forward 7 unknown #
cone-surface $-1 -1.190624999999999822 0 -40.41774999999999807 1 0 0 0 1.190624999999999822 0 1 I I 0 1 1.190624999999999822 forward I I I I #
vertex $-1 $291 $308 #
straight-curve $-1 -1.190624999999999822 -1.69862500000000316 -40.41774999999999807 17.96051224213825392 17.96051224213835695 0 I I #
straight-curve $-1 -1.190624999999999822 1.69862500000000316 -40.41775000000000517 17.96051224213825392 -17.96051224213835695 1.994017422528397807e-13 I I #
vertex $-1 $280 $309 #
straight-curve $-1 -1.587499999999999911 -1.774878957140457958 65.88124999999999432 0 25.39999999999999858 0 I I #
point $-1 -1.587499999999999911 1.774878957140457958 65.88124999999999432 #
ellipse-curve $-1 3.524958103184871819e-16 0 65.88124999999999432 0 0 1 -1.587500000000000355 1.774878957140457958 0 1 I I #
straight-curve $-1 -1.587499999999999911 -1.774878957140457958 65.88124999999999432 0 0 25.39999999999999858 I I #
straight-curve $-1 -0.6826249999999998153 -1.190624999999999822 -40.41774999999999807 25.39999999999999858 0 0 I I #
ellipse-curve $-1 -0.6826250000000023688 4.406197628981089773e-17 -40.41775000000000517 1 0 0 0 1.190625000000002709 5.63993296509579491e-15 1 I I #
point $-1 -0.6826250000000023688 1.190625000000002709 -40.41774999999999807 #
ellipse-curve $-1 -0.6826250000000023688 4.406197628981089773e-17 -40.41774999999999807 1 0 0 0 -1.190625000000002709 0 1 I I #
point $-1 -0.6826250000000023688 -1.190625000000002709 -40.41774999999999807 #
point $-1 -1.587499999999999911 -1.774878957140457958 65.88124999999999432 #
End-of-ACIS-data 