600 0 1 0           
95 GICL ACIS Healer - Source: /gicl/data5/repository/PTC/V18/reel18/areel/wind_screw.prt.sat - 6 0 18 ACIS 6.0.3 Solaris 24 Sat Apr 13 21:10:55 2002 
1 9.999999999999999547e-07 1.000000000000000036e-10 
body $-1 $1 $-1 $-1 #
lump $-1 $-1 $2 $0 #
shell $-1 $-1 $-1 $3 $-1 $1 #
face $-1 $4 $5 $2 $-1 $6 forward single #
face $-1 $7 $8 $2 $-1 $9 forward single #
loop $-1 $-1 $10 $3 #
plane-surface $-1 0 0 0 0 -1 0 -25.39999999999999858 0 0 forward_v I I I I #
face $-1 $11 $12 $2 $-1 $13 forward single #
loop $-1 $-1 $14 $4 #
cone-surface $-1 0 24.33637499999999676 0 0 -1 0 -25.39999999999996305 0 0 1 I I -0.7071067811865470176 0.7071067811865480168 25.39999999999996305 forward I I I I #
coedge $-1 $15 $15 $16 $17 forward $5 $-1 #
face $-1 $18 $19 $2 $-1 $20 forward single #
loop $-1 $-1 $21 $7 #
cone-surface $-1 0 24.33637499999999676 0 0 -1 0 -25.39999999999996305 0 0 1 I I -0.7071067811865470176 0.7071067811865480168 25.39999999999996305 forward I I I I #
coedge $-1 $16 $22 $23 $24 forward $8 $-1 #
coedge $-1 $10 $10 $25 $26 reversed $5 $-1 #
coedge $-1 $27 $14 $10 $17 reversed $8 $-1 #
edge $-1 $28 0 $29 3.141592653589790007 $10 $30 forward 7 unknown #
face $-1 $31 $32 $2 $-1 $33 forward single #
loop $-1 $-1 $34 $11 #
cone-surface $-1 0 6.66749999999999865 0 0 -1 0 -1.190624999999999822 0 0 1 I I 0 1 1.190624999999999822 forward I I I I #
coedge $-1 $25 $35 $27 $36 forward $12 $-1 #
coedge $-1 $14 $27 $37 $38 forward $8 $-1 #
coedge $-1 $35 $25 $14 $24 reversed $12 $-1 #
edge $-1 $39 3.895154936061551455e-31 $29 0.007071067811865319221 $14 $40 forward 7 unknown #
coedge $-1 $23 $21 $15 $26 forward $12 $-1 #
edge $-1 $28 0 $29 3.141592653589796669 $15 $41 forward 7 unknown #
coedge $-1 $22 $16 $21 $36 reversed $8 $-1 #
vertex $-1 $26 $42 #
vertex $-1 $26 $43 #
ellipse-curve $-1 4.406197628981089773e-17 0 0 2.65127886477648629e-15 -1 3.246772943560269607e-31 1.063625000000002707 2.819966482547897455e-15 1.30252193308433132e-16 1 I I #
face $-1 $44 $45 $2 $-1 $46 forward single #
loop $-1 $-1 $47 $18 #
cone-surface $-1 0 6.66749999999999865 0 0 -1 0 -1.190624999999999822 0 0 1 I I 0 1 1.190624999999999822 forward I I I I #
coedge $-1 $48 $49 $35 $50 forward $19 $-1 #
coedge $-1 $21 $23 $34 $50 reversed $12 $-1 #
edge $-1 $51 -0 $28 0.007071067811865319221 $27 $52 forward 7 unknown #
coedge $-1 $53 $54 $22 $38 reversed $32 $-1 #
edge $-1 $51 0 $39 3.141592653589793116 $37 $55 forward 7 unknown #
vertex $-1 $38 $56 #
straight-curve $-1 -1.190624999999999822 0.1270000000000001128 3.938340335817892519e-15 17.96051224213830722 -17.96051224213830722 -5.940964603898234738e-14 I I #
ellipse-curve $-1 0 0 -8.812395257962179547e-17 -2.65127886477648629e-15 1 -5.443422824438549255e-31 1.063625000000002707 2.819966482547897455e-15 2.183761458880549275e-16 1 I I #
point $-1 1.063625000000002707 2.819966482547897455e-15 1.30252193308433132e-16 #
point $-1 -1.063625000000002707 2.819966482547897455e-15 3.518250699997332268e-15 #
face $-1 $57 $58 $2 $-1 $59 reversed single #
loop $-1 $-1 $60 $31 #
cone-surface $-1 0 28.97187499999999716 0 0 -1 0 -25.39999999999999503 0 0 1 I I -0.7071067811865474617 0.7071067811865475727 25.39999999999999503 forward I I I I #
coedge $-1 $54 $53 $61 $62 forward $32 $-1 #
coedge $-1 $63 $34 $54 $64 forward $19 $-1 #
coedge $-1 $34 $63 $53 $65 reversed $19 $-1 #
edge $-1 $51 0 $39 3.141592653589793116 $34 $66 forward 7 unknown #
vertex $-1 $65 $67 #
straight-curve $-1 1.190624999999999822 0.1270000000000001128 1.458046940019767824e-16 -17.96051224213830722 -17.96051224213830722 -2.199455740962688798e-15 I I #
coedge $-1 $47 $37 $49 $65 forward $32 $-1 #
coedge $-1 $37 $47 $48 $64 reversed $32 $-1 #
ellipse-curve $-1 8.812395257962179547e-17 0.1270000000000001128 -4.406197628981089773e-17 0 -1 0 1.190624999999999822 0 1.898666702917876925e-16 1 I I #
point $-1 -1.190624999999999822 0.1270000000000001128 -2.916093880039535649e-16 #
face $-1 $68 $69 $2 $-1 $70 reversed single #
loop $-1 $-1 $71 $44 #
plane-surface $-1 0 6.349999999999999645 0 0 -1 0 -25.39999999999999858 0 0 forward_v I I I I #
coedge $-1 $72 $73 $71 $74 forward $45 $-1 #
coedge $-1 $75 $76 $47 $62 reversed $45 $-1 #
edge $-1 $77 2.086804221553088656e-31 $78 3.141592653589793116 $47 $79 forward 7 unknown #
coedge $-1 $49 $48 $80 $81 reversed $19 $-1 #
edge $-1 $39 0 $78 0.1825000000000001343 $54 $82 forward 7 unknown #
edge $-1 $51 0 $77 0.1824999999999999678 $53 $83 forward 7 unknown #
ellipse-curve $-1 -4.406197628981089773e-17 0.1270000000000001128 8.812395257962179547e-17 0 1 0 1.190624999999999822 0 5.768074142235498698e-17 1 I I #
point $-1 1.190624999999999822 0.1270000000000001128 1.458046940019767824e-16 #
face $-1 $84 $85 $2 $-1 $86 reversed single #
loop $-1 $-1 $87 $57 #
plane-surface $-1 3.333749999999999325 6.349999999999999645 0.3809999999999999498 0 0 1 0 -25.39999999999999858 0 forward_v I I I I #
coedge $-1 $88 $88 $60 $74 reversed $58 $-1 #
coedge $-1 $89 $60 $90 $91 reversed $45 $-1 #
coedge $-1 $60 $92 $93 $94 reversed $45 $-1 #
edge $-1 $95 2.876978790178068716e-17 $96 2.866439777946724998 $60 $97 forward 7 unknown #
coedge $-1 $92 $61 $98 $99 forward $45 $-1 #
coedge $-1 $61 $89 $100 $101 reversed $45 $-1 #
vertex $-1 $65 $102 #
vertex $-1 $64 $103 #
ellipse-curve $-1 0 4.762500000000002842 4.406197628981089773e-17 0 -1 0 1.190625000000002709 0 1.017427177121658847e-16 1 I I #
coedge $-1 $100 $98 $63 $81 forward $104 $-1 #
edge $-1 $77 -3.825807739513995724e-31 $78 3.141592653589793116 $63 $105 forward 7 unknown #
straight-curve $-1 -1.190624999999999822 0.1270000000000001128 -2.916093880039535649e-16 0 25.39999999999999858 0 I I #
straight-curve $-1 1.190624999999999822 0.1270000000000001128 1.458046940019767824e-16 0 25.39999999999999858 0 I I #
face $-1 $106 $104 $2 $-1 $107 forward single #
loop $-1 $-1 $108 $68 #
plane-surface $-1 3.333749999999999325 5.588000000000000078 0.3809999999999999498 0 -1 0 0 0 -25.39999999999999858 forward_v I I I I #
coedge $-1 $90 $93 $109 $110 forward $69 $-1 #
coedge $-1 $71 $71 $111 $112 forward $58 $-1 #
coedge $-1 $76 $72 $113 $114 forward $45 $-1 #
coedge $-1 $111 $87 $72 $91 forward $69 $-1 #
edge $-1 $115 0 $96 1 $72 $116 forward 7 unknown #
coedge $-1 $73 $75 $117 $118 forward $45 $-1 #
coedge $-1 $87 $111 $73 $94 forward $69 $-1 #
edge $-1 $95 0 $119 1 $73 $120 forward 7 unknown #
vertex $-1 $94 $121 #
vertex $-1 $91 $122 #
ellipse-curve $-1 -8.812395257962179547e-17 6.349999999999999645 8.812395257962179547e-17 0 -1 0 2.751875272541435269 0 0.3809999999999998943 1 I I #
coedge $-1 $80 $123 $75 $99 reversed $104 $-1 #
edge $-1 $77 -2.03988390301435394e-16 $124 0.04596194077712539849 $75 $125 forward 7 unknown #
coedge $-1 $126 $80 $76 $101 forward $104 $-1 #
edge $-1 $78 -1.988287998524157793e-33 $127 0.04596194077712546094 $76 $128 forward 7 unknown #
point $-1 1.190624999999999822 4.762499999999998401 1.458046940019767824e-16 #
point $-1 -1.190625000000002709 4.762500000000002842 0 #
loop $-1 $-1 $129 $84 #
ellipse-curve $-1 -4.406197628981089773e-17 4.762500000000002842 -4.406197628981089773e-17 0 1 0 1.190625000000002709 0 1.898666702917876925e-16 1 I I #
face $-1 $130 $131 $2 $-1 $132 reversed single #
cone-surface $-1 0 28.97187499999999716 0 0 -1 0 -25.39999999999999503 0 0 1 I I -0.7071067811865474617 0.7071067811865475727 25.39999999999999503 forward I I I I #
coedge $-1 $133 $117 $123 $134 reversed $85 $-1 #
coedge $-1 $117 $113 $87 $110 reversed $85 $-1 #
edge $-1 $119 0 $115 0.1558895843217243393 $87 $135 forward 7 unknown #
coedge $-1 $93 $90 $88 $112 reversed $69 $-1 #
edge $-1 $95 3.496765431890256772e-17 $96 0.2166830923260972819 $88 $136 forward 7 unknown #
coedge $-1 $109 $137 $89 $114 reversed $85 $-1 #
edge $-1 $115 0 $127 0.1901196372927035083 $89 $138 forward 7 unknown #
vertex $-1 $114 $139 #
intcurve-curve $-1 forward { surfintcur full nurbs 3 open 4 
	0 3 0.3288635761003515512 1 0.662183023580404706 1 1 3 
	-1.97979772088589967 5.588000000000000078 0.3809999999999999498 1 
	-2.059461904857006864 5.666248639416720856 0.3809999999999999498 1 
	-2.223164057728064247 5.827307558211631822 0.3809999999999999498 1 
	-2.48054630595444392 6.081413335245779983 0.3810000000000001164 0.999999999999999778 
	-2.659897738539872769 6.258878250479565253 0.3809999999999998943 1.000000000000000222 
	-2.751875272541435269 6.349999999999999645 0.3809999999999999498 1 
	0.02539999999999999897 
	cone 0 28.97187499999999716 0 0 -1 0 -25.39999999999999503 0 0 1 I I -0.7071067811865474617 0.7071067811865475727 25.39999999999999503 forward I I I I 
	plane 3.333749999999999325 6.349999999999999645 0.3809999999999999498 0 0 1 0 -25.39999999999999858 0 forward_v I I I I 
	nullbs 
	nullbs 
	I I 
	0 
	0 
	0 
	} I I #
coedge $-1 $108 $109 $92 $118 reversed $85 $-1 #
edge $-1 $124 1.224606353822354085e-16 $119 0.1901196372926990397 $92 $140 forward 7 unknown #
vertex $-1 $94 $141 #
intcurve-curve $-1 forward { surfintcur full nurbs 3 open 4 
	0 3 0.3377151944450080823 1 0.6710364307958700536 1 1 3 
	2.751875272541434381 6.349999999999999645 0.3809999999999999498 1 
	2.660042841580896322 6.259021852392224972 0.3809999999999999498 1 
	2.48087163248706899 6.081735170553363545 0.3809999999999999498 1 
	2.223487820509236101 5.82762640359477313 0.3809999999999999498 1 
	2.059602438542175395 5.666386974525674525 0.3809999999999999498 0.999999999999999889 
	1.979797720885898338 5.588000000000000078 0.3809999999999999498 1 
	0.02539999999999999897 
	cone 0 28.97187499999999716 0 0 -1 0 -25.39999999999999503 0 0 1 I I -0.7071067811865474617 0.7071067811865475727 25.39999999999999503 forward I I I I 
	plane 3.333749999999999325 6.349999999999999645 0.3809999999999999498 0 0 1 0 -25.39999999999999858 0 forward_v I I I I 
	nullbs 
	nullbs 
	I I 
	0 
	0 
	0 
	} I I #
point $-1 2.751875272541434381 6.349999999999999645 0.3809999999999999498 #
point $-1 -2.751875272541435269 6.349999999999999645 0.3809999999999999498 #
coedge $-1 $98 $142 $108 $134 forward $104 $-1 #
vertex $-1 $118 $143 #
straight-curve $-1 1.190625000000002709 4.762500000000002842 1.458046940019767824e-16 17.96051224213830722 17.96051224213830722 2.199455740962726269e-15 I I #
coedge $-1 $129 $100 $137 $144 forward $104 $-1 #
vertex $-1 $101 $145 #
straight-curve $-1 -1.190625000000002709 4.762500000000002842 -2.916093880039535649e-16 -17.96051224213830722 17.96051224213830722 -4.398911481925452538e-15 I I #
coedge $-1 $146 $126 $147 $148 reversed $104 $-1 #
face $-1 $-1 $149 $2 $-1 $150 reversed single #
loop $-1 $-1 $147 $106 #
plane-surface $-1 3.333749999999999325 5.588000000000000078 -0.3809999999999999498 0 0 -1 0 25.39999999999999858 0 forward_v I I I I #
coedge $-1 $137 $108 $151 $152 forward $85 $-1 #
edge $-1 $153 0 $124 0.1901196372927032585 $123 $154 forward 7 unknown #
straight-curve $-1 1.979797720885898338 5.588000000000000078 0.3809999999999999498 -25.39999999999999858 0 0 I I #
straight-curve $-1 2.751875272541435269 6.349999999999999645 0.3809999999999999498 -25.39999999999999858 0 0 I I #
coedge $-1 $113 $133 $126 $144 reversed $85 $-1 #
ellipse-curve $-1 -9.869882688917640698e-15 5.588000000000000078 1.321859288694327006e-15 0 -1 0 -1.9797977208858899 0 0.3809999999999986176 1 I I #
point $-1 -1.97979772088589967 5.588000000000000078 0.3809999999999999498 #
ellipse-curve $-1 -3.877453913503359217e-14 5.588000000000000078 -3.172462292866384735e-15 0 -1 0 2.016125000000037915 0 3.172462292866384735e-15 1 I I #
point $-1 1.979797720885898338 5.588000000000000078 0.3809999999999999498 #
coedge $-1 $123 $146 $155 $156 reversed $104 $-1 #
point $-1 2.016124999999999279 5.58799999999999919 2.468959485100140354e-16 #
edge $-1 $127 0 $157 0.1901196372926998723 $126 $158 forward 7 unknown #
point $-1 -2.016125000000000611 5.588000000000000078 0 #
coedge $-1 $142 $129 $159 $160 reversed $104 $-1 #
coedge $-1 $151 $161 $129 $148 forward $131 $-1 #
edge $-1 $162 0 $157 1 $129 $163 forward 7 unknown #
loop $-1 $-1 $159 $130 #
plane-surface $-1 0 6.349999999999999645 0 0 -1 0 -25.39999999999999858 0 0 forward_v I I I I #
coedge $-1 $155 $147 $133 $152 reversed $131 $-1 #
edge $-1 $153 0 $157 0.1558895843217243393 $133 $164 forward 7 unknown #
vertex $-1 $134 $165 #
ellipse-curve $-1 4.229949723821845788e-15 5.588000000000000078 -9.693634783758397255e-16 0 -1 0 1.979797720885894119 0 -0.3809999999999990061 1 I I #
coedge $-1 $161 $151 $142 $156 forward $131 $-1 #
edge $-1 $153 0 $166 1 $142 $167 forward 7 unknown #
vertex $-1 $144 $168 #
ellipse-curve $-1 2.890465644611594674e-14 5.588000000000000078 2.379346719649788453e-15 0 -1 0 -2.016125000000029477 0 -2.379346719649788453e-15 1 I I #
coedge $-1 $169 $169 $146 $160 forward $149 $-1 #
edge $-1 $166 0 $162 2.866439777946724554 $159 $170 forward 7 unknown #
coedge $-1 $147 $155 $169 $171 forward $131 $-1 #
vertex $-1 $171 $172 #
intcurve-curve $-1 forward { surfintcur full nurbs 3 open 4 
	0 3 0.3377151944450079712 1 0.6710364307958701646 1 1 3 
	-2.751875272541435269 6.349999999999999645 -0.3809999999999999498 1 
	-2.660042841580898987 6.25902185239222586 -0.3810000000000000608 0.999999999999999778 
	-2.480871632487070766 6.081735170553363545 -0.3809999999999998943 1.000000000000000222 
	-2.223487820509237434 5.82762640359477313 -0.3809999999999999498 1 
	-2.059602438542176728 5.66638697452567186 -0.3809999999999998943 1 
	-1.97979772088589967 5.588000000000000078 -0.3809999999999999498 1 
	0.02539999999999999897 
	cone 0 28.97187499999999716 0 0 -1 0 -25.39999999999999503 0 0 1 I I -0.7071067811865474617 0.7071067811865475727 25.39999999999999503 forward I I I I 
	plane 3.333749999999999325 5.588000000000000078 -0.3809999999999999498 0 0 -1 0 25.39999999999999858 0 forward_v I I I I 
	nullbs 
	nullbs 
	I I 
	0 
	0 
	0 
	} I I #
straight-curve $-1 1.979797720885898338 5.588000000000000078 -0.3809999999999999498 -25.39999999999999858 0 0 I I #
point $-1 1.979797720885898338 5.588000000000000078 -0.3809999999999999498 #
vertex $-1 $171 $173 #
intcurve-curve $-1 forward { surfintcur full nurbs 3 open 4 
	0 3 0.3288635761003515512 1 0.662183023580404484 1 1 3 
	1.979797720885898338 5.588000000000000078 -0.3809999999999999498 1 
	2.059461904857005532 5.666248639416720856 -0.3809999999999998943 1.000000000000000222 
	2.223164057728062915 5.827307558211630933 -0.3809999999999999498 0.999999999999999778 
	2.480546305954441255 6.081413335245779983 -0.3809999999999998943 1 
	2.659897738539871881 6.258878250479566141 -0.3810000000000000053 1 
	2.751875272541434381 6.349999999999999645 -0.3809999999999999498 1 
	0.02539999999999999897 
	cone 0 28.97187499999999716 0 0 -1 0 -25.39999999999999503 0 0 1 I I -0.7071067811865474617 0.7071067811865475727 25.39999999999999503 forward I I I I 
	plane 3.333749999999999325 5.588000000000000078 -0.3809999999999999498 0 0 -1 0 25.39999999999999858 0 forward_v I I I I 
	nullbs 
	nullbs 
	I I 
	0 
	0 
	0 
	} I I #
point $-1 -1.97979772088589967 5.588000000000000078 -0.3809999999999999498 #
coedge $-1 $159 $159 $161 $171 reversed $149 $-1 #
ellipse-curve $-1 -1.762479051592435909e-16 6.349999999999999645 1.762479051592435909e-16 0 1 0 2.751875272541435269 0 -0.3810000000000001164 1 I I #
edge $-1 $166 0 $162 0.2166830923260973096 $169 $174 forward 7 unknown #
point $-1 -2.751875272541435713 6.349999999999999645 -0.3809999999999999498 #
point $-1 2.751875272541435269 6.349999999999999645 -0.3809999999999999498 #
straight-curve $-1 2.751875272541435269 6.349999999999999645 -0.3809999999999999498 -25.39999999999999858 0 0 I I #
End-of-ACIS-data 