600 0 1 0           
98 GICL Pro/E ACIS Translator - Source: f:/data5/repository/PTC/V18/reel18/areel/wind_shaft.prt - 6 0 13 ACIS 6.0.3 NT 24 Thu Apr 04 09:56:23 2002 
1 9.9999999999999995e-007 1e-010 
body $-1 $1 $-1 $2 #
lump $-1 $-1 $3 $0 #
transform $-1 1 0 0 0 1 0 0 0 1 0 0 0 25.399999999999999 no_rotate no_reflect no_shear #
shell $-1 $-1 $-1 $4 $-1 $1 #
face $-1 $5 $6 $3 $-1 $7 reversed single #
face $-1 $8 $9 $3 $-1 $10 forward single #
loop $-1 $-1 $11 $4 #
plane-surface $-1 0 0 -2.03125 0 0 1 1 0 0 forward_v I I I I #
face $-1 $12 $13 $3 $-1 $14 forward single #
loop $-1 $-1 $15 $5 #
cone-surface $-1 0 0 -2.03125 0 0 1 0.109375 0 0 1 I I 0 1 0.109375 forward I I I I #
coedge $-1 $16 $17 $18 $19 reversed $6 $-1 #
face $-1 $20 $21 $3 $-1 $22 forward single #
loop $-1 $-1 $23 $8 #
cone-surface $-1 0 0 -2.03125 0 0 1 0.109375 0 0 1 I I 0 1 0.109375 forward I I I I #
coedge $-1 $18 $24 $25 $26 reversed $9 $-1 #
coedge $-1 $17 $11 $27 $28 reversed $6 $-1 #
coedge $-1 $11 $16 $29 $30 reversed $6 $-1 #
coedge $-1 $31 $15 $11 $19 forward $9 $-1 #
edge $-1 $32 0 $33 2.0137073708685356 $11 $34 forward 7 unknown #
face $-1 $35 $36 $3 $-1 $37 forward single #
loop $-1 $38 $39 $12 #
plane-surface $-1 0 0 2.03125 0 0 1 1 0 0 forward_v I I I I #
coedge $-1 $40 $41 $42 $43 forward $13 $-1 #
coedge $-1 $15 $42 $44 $45 forward $9 $-1 #
coedge $-1 $41 $27 $15 $26 forward $13 $-1 #
edge $-1 $32 0 $46 0.37324294986950846 $15 $47 forward 7 unknown #
coedge $-1 $25 $48 $16 $28 forward $13 $-1 #
edge $-1 $49 0 $32 2.0137073708685356 $16 $50 forward 7 unknown #
coedge $-1 $51 $52 $17 $30 forward $53 $-1 #
edge $-1 $33 0 $49 0.19764235376052369 $17 $54 forward 7 unknown #
coedge $-1 $55 $18 $52 $56 forward $9 $-1 #
vertex $-1 $28 $57 #
vertex $-1 $30 $58 #
ellipse-curve $-1 0 0 -2.03125 0 0 1 0.109375 0 0 1 I I #
face $-1 $59 $60 $3 $-1 $61 forward single #
loop $-1 $-1 $62 $20 #
cone-surface $-1 0 0 2.03125 0 0 1 0 0.09375 0 1 I I 0 1 0.09375 forward I I I I #
loop $-1 $-1 $63 $12 #
coedge $-1 $64 $64 $40 $65 forward $21 $-1 #
coedge $-1 $66 $23 $39 $65 reversed $13 $-1 #
coedge $-1 $23 $25 $67 $68 forward $13 $-1 #
coedge $-1 $24 $69 $23 $43 reversed $9 $-1 #
edge $-1 $70 0 $71 3.5557429498695083 $42 $72 forward 7 unknown #
coedge $-1 $73 $74 $24 $45 reversed $75 $-1 #
edge $-1 $70 0 $46 1.0000000000000002 $24 $76 forward 7 unknown #
vertex $-1 $45 $77 #
straight-curve $-1 0.109375 0 -2.03125 0 0 1 I I #
coedge $-1 $27 $78 $51 $79 reversed $13 $-1 #
vertex $-1 $30 $80 #
ellipse-curve $-1 0 0 -2.03125 0 0 1 -0.046875 -0.098821176880261846 0 1 I I #
coedge $-1 $81 $29 $48 $79 forward $53 $-1 #
coedge $-1 $29 $81 $31 $56 reversed $53 $-1 #
loop $-1 $82 $51 $83 #
straight-curve $-1 -0.046875 0.098821176880261846 -2.03125 0 -1 0 I I #
coedge $-1 $84 $31 $85 $86 forward $9 $-1 #
edge $-1 $33 0 $87 0.6875 $31 $88 forward 7 unknown #
point $-1 0.109375 0 -2.03125 #
point $-1 -0.046875 0.098821176880261846 -2.03125 #
face $-1 $89 $90 $3 $-1 $91 forward single #
loop $-1 $-1 $92 $35 #
plane-surface $-1 0 0 3.78125 0 0 1 0 1 0 forward_v I I I I #
coedge $-1 $93 $94 $95 $96 reversed $36 $-1 #
coedge $-1 $97 $97 $98 $99 reversed $38 $-1 #
coedge $-1 $39 $39 $69 $100 forward $21 $-1 #
edge $-1 $101 0 $71 3.1415926535897931 $39 $102 forward 7 unknown #
coedge $-1 $78 $40 $84 $103 reversed $13 $-1 #
coedge $-1 $104 $105 $41 $68 reversed $106 $-1 #
edge $-1 $46 0 $70 1.0000000000000002 $41 $107 forward 7 unknown #
coedge $-1 $42 $84 $64 $100 reversed $9 $-1 #
vertex $-1 $45 $108 #
vertex $-1 $100 $109 #
straight-curve $-1 0.109375 0 -1.5244929498695083 0 0 1 I I #
coedge $-1 $110 $44 $105 $111 forward $75 $-1 #
coedge $-1 $44 $112 $104 $113 reversed $75 $-1 #
loop $-1 $-1 $73 $114 #
intcurve-curve $-1 forward { surfintcur full nurbs 3 open 11 
	0 3 0.09815088233797227 1 0.19720381212392252 1 0.29737383068467893 1 0.39849543326622983 1 
	0.50023399056115825 1 0.60187558307231104 1 0.70268908877830938 1 0.80254002830577464 1 0.90161203974109227 1 
	1.0000000000000002 3 
	0.109375 0 -1.5244929498695083 1 
	0.10935758876956403 0.0050422383315759725 -1.5244486347145385 1 
	0.10871131674878663 0.014892983759356529 -1.526276945025709 1 
	0.10560562658742438 0.029672414402149423 -1.5348658400978674 1.0000000000000002 
	0.10114611211576419 0.042162357659778014 -1.5494214686711458 1 
	0.096947652227640291 0.050774951383066785 -1.5688670405086464 1 
	0.095161463177291378 0.053894016720972431 -1.5917711000422674 1 
	0.09709392500411175 0.050505522065285323 -1.6144399466058035 0.99999999999999956 
	0.10119215636274638 0.042004649691661122 -1.6331638687798744 1.0000000000000002 
	0.10544657664252553 0.030150949044367673 -1.6471529826412461 0.99999999999999967 
	0.10865883489571579 0.015430022349428597 -1.6560886712880418 1.0000000000000002 
	0.10933446871556739 0.0052806895756730768 -1.6579939902519094 1 
	0.109375 0 -1.6580070501304915 1 
	0.001 
	cone 1.0443204488954003 0 -1.5912500000000001 -1 0 0 0 0 -1.0261703293156896 1 I I -0.7161801451052382 0.69791546748660038 1.0261703293156896 forward I I I I 
	cone 0 0 -2.03125 0 0 1 0.109375 0 0 1 I I 0 1 0.109375 forward I I I I 
	nullbs 
	nullbs 
	I I 
	0 
	0 
	0 
	} I I #
point $-1 0.109375 0 -1.6580070501304915 #
coedge $-1 $48 $66 $115 $116 forward $13 $-1 #
edge $-1 $49 8.6841932037824444e-033 $117 0.6875 $48 $118 forward 7 unknown #
point $-1 -0.046875 -0.098821176880261846 -2.03125 #
coedge $-1 $52 $51 $119 $120 reversed $53 $-1 #
loop $-1 $-1 $121 $83 #
face $-1 $122 $53 $3 $-1 $123 reversed single #
coedge $-1 $69 $55 $66 $103 forward $9 $-1 #
coedge $-1 $119 $115 $55 $86 reversed $124 $-1 #
edge $-1 $87 0 $125 1.1278852827212564 $55 $126 forward 7 unknown #
vertex $-1 $86 $127 #
straight-curve $-1 -0.046875 0.098821176880261846 -2.03125 0 2.0185873175002847e-017 1 I I #
face $-1 $128 $129 $3 $-1 $130 reversed single #
loop $-1 $-1 $131 $59 #
cone-surface $-1 0 0 2.03125 0 0 1 0 0.09375 0 1 I I 0 1 0.09375 forward I I I I #
coedge $-1 $132 $133 $134 $135 forward $60 $-1 #
coedge $-1 $98 $62 $136 $137 reversed $36 $-1 #
coedge $-1 $62 $138 $139 $140 forward $36 $-1 #
coedge $-1 $133 $141 $62 $96 forward $60 $-1 #
edge $-1 $142 -1.2246063538223755e-016 $143 0.72972765622696489 $95 $144 forward 7 unknown #
coedge $-1 $63 $63 $145 $146 reversed $38 $-1 #
coedge $-1 $147 $93 $63 $99 forward $36 $-1 #
edge $-1 $148 0 $149 3.1415926535897931 $63 $150 forward 7 unknown #
edge $-1 $71 0 $101 3.1415926535897931 $64 $151 forward 7 unknown #
vertex $-1 $100 $152 #
ellipse-curve $-1 0 0 2.03125 0 0 1 -0.109375 0 0 1 I I #
edge $-1 $125 0 $101 3.375 $84 $153 forward 7 unknown #
coedge $-1 $154 $67 $74 $113 forward $106 $-1 #
coedge $-1 $67 $155 $73 $111 reversed $106 $-1 #
loop $-1 $-1 $104 $156 #
intcurve-curve $-1 forward { surfintcur full nurbs 3 open 11 
	0 3 0.098307150657681766 1 0.19751343596131443 1 0.29772894375903197 1 0.39885403184319318 1 
	0.50057136997546747 1 0.60217072899186264 1 0.702923240212455 1 0.80271136592335279 1 0.90171127331805634 1 
	1.0000000000000002 3 
	0.109375 -2.6788263989864503e-017 -1.6580070501304918 1 
	0.10935173221047144 -0.0051664214037308188 -1.6580424828536036 1 
	0.10868431052362695 -0.015211405264336243 -1.6561525081518589 0.99999999999999989 
	0.10545266060309948 -0.030217847383325912 -1.647189813358229 1.0000000000000002 
	0.10097633685016641 -0.042546860813332602 -1.6324422778253791 0.99999999999999989 
	0.096836380469947358 -0.050977698517919487 -1.6128920960582798 0.99999999999999967 
	0.095169814998478583 -0.05387968385203467 -1.5899988590453107 1.0000000000000002 
	0.097195682746304829 -0.050316787903137358 -1.5674575122568597 1.0000000000000002 
	0.10130434250714054 -0.041736205774573439 -1.5489300612009334 0.99999999999999978 
	0.10552619990240159 -0.029868923182329424 -1.5351154950305488 1 
	0.10868049151130185 -0.015214332235305253 -1.5263535896762954 1.0000000000000002 
	0.1093400554149115 -0.0051960611599551516 -1.5244946589374992 1 
	0.109375 -2.6788263989864503e-017 -1.5244929498695083 1 
	0.001 
	cone 1.0443204488954003 0 -1.5912500000000001 -1 0 0 0 0 -1.0261703293156896 1 I I -0.7161801451052382 0.69791546748660038 1.0261703293156896 forward I I I I 
	cone 0 0 -2.03125 0 0 1 0.109375 0 0 1 I I 0 1 0.109375 forward I I I I 
	nullbs 
	nullbs 
	I I 
	0 
	0 
	0 
	} I I #
point $-1 0.109375 0 -1.5244929498695083 #
point $-1 0.109375 0 2.03125 #
coedge $-1 $112 $73 $157 $158 reversed $75 $-1 #
edge $-1 $70 1.7688353906568601e-013 $159 0.027761241730174965 $105 $160 forward 7 unknown #
coedge $-1 $74 $110 $161 $162 reversed $75 $-1 #
edge $-1 $46 1.4854269218967289e-013 $163 0.027761241730146859 $104 $164 forward 7 unknown #
face $-1 $156 $75 $3 $-1 $165 reversed single #
coedge $-1 $85 $119 $78 $116 reversed $124 $-1 #
edge $-1 $125 -1.2246063538223775e-016 $117 1.1278852827212582 $78 $166 forward 7 unknown #
vertex $-1 $79 $167 #
straight-curve $-1 -0.046875000000000069 -0.098821176880261818 -2.03125 1.0092936587501423e-016 -6.0557619525008534e-017 1 I I #
coedge $-1 $115 $85 $81 $120 forward $124 $-1 #
edge $-1 $87 0 $117 0.19764235376052375 $119 $168 forward 7 unknown #
coedge $-1 $169 $169 $170 $171 forward $82 $-1 #
face $-1 $172 $173 $3 $-1 $174 reversed single #
plane-surface $-1 -0.046875 0.09882117688026186 -2.03125 1 0 0 0 -1 0 forward_v I I I I #
loop $-1 $-1 $119 $175 #
vertex $-1 $103 $176 #
ellipse-curve $-1 1.1102230246251565e-016 -5.377642775528102e-017 -1.34375 0 0 1 -0.046875000000000111 0.098821176880261929 0 1 I I #
point $-1 -0.046875 0.098821176880261874 -1.34375 #
face $-1 $177 $178 $3 $-1 $179 forward single #
loop $-1 $-1 $180 $89 #
plane-surface $-1 -0.0625 -0.069877124296868431 3.78125 1 0 0 0 1 0 forward_v I I I I #
coedge $-1 $181 $182 $132 $183 reversed $90 $-1 #
coedge $-1 $184 $92 $131 $183 forward $60 $-1 #
coedge $-1 $92 $95 $185 $186 forward $60 $-1 #
coedge $-1 $187 $147 $92 $135 reversed $36 $-1 #
edge $-1 $188 0 $189 0.72972765622696711 $92 $190 forward 7 unknown #
coedge $-1 $191 $145 $93 $137 forward $90 $-1 #
edge $-1 $148 0 $142 1.75 $136 $192 forward 7 unknown #
coedge $-1 $94 $187 $193 $194 reversed $36 $-1 #
coedge $-1 $195 $185 $94 $140 reversed $196 $-1 #
edge $-1 $197 0 $143 1.1875 $94 $198 forward 7 unknown #
coedge $-1 $95 $184 $191 $199 forward $60 $-1 #
vertex $-1 $96 $200 #
vertex $-1 $186 $201 #
ellipse-curve $-1 -6.2450045135165055e-017 1.7347234759768071e-016 3.78125 0 0 1 6.2450045135165055e-017 -0.093750000000000167 0 1 I I #
coedge $-1 $136 $181 $97 $146 forward $90 $-1 #
edge $-1 $149 0 $148 3.1415926535897931 $97 $202 forward 7 unknown #
coedge $-1 $134 $98 $181 $203 forward $36 $-1 #
vertex $-1 $146 $204 #
vertex $-1 $146 $205 #
ellipse-curve $-1 0 0 2.03125 0 0 1 0 -0.09375 0 1 I I #
ellipse-curve $-1 0 0 2.03125 0 0 1 0.109375 0 0 1 I I #
point $-1 -0.109375 0 2.03125 #
straight-curve $-1 -0.109375 1.3394131994932251e-017 -1.34375 0 0 1 I I #
coedge $-1 $155 $104 $206 $207 reversed $106 $-1 #
coedge $-1 $105 $154 $208 $209 reversed $106 $-1 #
face $-1 $-1 $106 $3 $-1 $210 reversed single #
coedge $-1 $208 $211 $110 $158 forward $212 $-1 #
edge $-1 $213 -1.121935509647648e-029 $159 1.570796326794885 $157 $214 forward 7 unknown #
vertex $-1 $209 $215 #
straight-curve $-1 0.10937500000012357 -1.260899139518004e-012 -1.5244929498693818 -0.69791546748660116 4.5419613867262734e-011 -0.71618014510523753 I I #
coedge $-1 $216 $206 $112 $162 forward $217 $-1 #
edge $-1 $163 0 $213 1.5707963267949205 $161 $218 forward 7 unknown #
vertex $-1 $207 $219 #
straight-curve $-1 0.10937500000010369 1.5150491537017383e-012 -1.6580070501305979 -0.69791546748659583 -5.4574257464013066e-011 0.71618014510524264 I I #
cone-surface $-1 1.0443204488954003 0 -1.5912500000000001 -1 0 0 0 0 -1.0261703293156896 1 I I -0.7161801451052382 0.69791546748660038 1.0261703293156896 forward I I I I #
ellipse-curve $-1 -4.163336342344337e-017 -3.8163916471489756e-017 -1.34375 0 0 1 -0.10937499999999996 3.8163916471489756e-017 0 1 I I #
point $-1 -0.046875 -0.09882117688026186 -1.34375 #
straight-curve $-1 -0.046875 0.098821176880261874 -1.34375 0 -1 0 I I #
coedge $-1 $121 $121 $220 $221 forward $82 $-1 #
coedge $-1 $222 $223 $121 $171 reversed $173 $-1 #
edge $-1 $224 0 $225 3.1415926535897865 $121 $226 forward 7 unknown #
face $-1 $227 $228 $3 $-1 $229 reversed single #
loop $-1 $-1 $222 $122 #
cone-surface $-1 -0.97999999999999998 0 -1.5912500000000001 1 0 0 0 1.0000000000000002 0 1 I I -0.70710678118654757 0.70710678118654746 1.0000000000000002 forward I I I I #
face $-1 $83 $124 $3 $-1 $230 forward single #
point $-1 -0.109375 1.3394131994932251e-017 -1.34375 #
face $-1 $231 $196 $3 $-1 $232 forward single #
loop $-1 $-1 $233 $128 #
plane-surface $-1 0 0 2.59375 0 0 1 0 1 0 forward_v I I I I #
coedge $-1 $234 $235 $182 $236 reversed $129 $-1 #
coedge $-1 $145 $131 $147 $203 reversed $90 $-1 #
coedge $-1 $131 $237 $180 $236 forward $90 $-1 #
edge $-1 $189 0 $238 0.729727656226966 $132 $239 forward 7 unknown #
coedge $-1 $141 $132 $235 $240 reversed $60 $-1 #
coedge $-1 $139 $241 $133 $186 reversed $196 $-1 #
edge $-1 $143 0 $188 0.13975424859373686 $133 $242 forward 7 unknown #
coedge $-1 $138 $134 $241 $243 reversed $36 $-1 #
vertex $-1 $186 $244 #
vertex $-1 $183 $245 #
ellipse-curve $-1 3.5561831257524545e-017 8.3266726846886741e-017 3.78125 0 0 1 0.062499999999999965 0.069877124296868348 0 1 I I #
coedge $-1 $246 $136 $141 $199 reversed $90 $-1 #
straight-curve $-1 -1.1480684567084787e-017 -0.09375 2.03125 0 0 1 I I #
coedge $-1 $247 $247 $138 $194 forward $248 $-1 #
edge $-1 $197 0 $249 1.6821373411358604 $138 $250 forward 7 unknown #
coedge $-1 $241 $139 $247 $251 forward $196 $-1 #
loop $-1 $-1 $139 $177 #
vertex $-1 $140 $252 #
straight-curve $-1 0.0625 -0.069877124296868431 2.59375 0 0 1 I I #
edge $-1 $253 0 $142 0.729727656226966 $141 $254 forward 7 unknown #
point $-1 -1.1480684567084787e-017 -0.09375 3.78125 #
point $-1 0.0625 -0.069877124296868431 3.78125 #
ellipse-curve $-1 0 0 2.03125 0 0 1 0 0.09375 0 1 I I #
edge $-1 $149 0 $189 1.75 $181 $255 forward 7 unknown #
point $-1 0 -0.09375 2.03125 #
point $-1 0 0.09375 2.03125 #
coedge $-1 $161 $256 $154 $207 forward $217 $-1 #
edge $-1 $257 2.7657845679383655e-061 $163 1.5707963267949137 $206 $258 forward 7 unknown #
coedge $-1 $259 $157 $155 $209 forward $212 $-1 #
edge $-1 $159 -1.1063138271753037e-060 $257 1.5707963267948852 $208 $260 forward 7 unknown #
cone-surface $-1 1.0443204488954003 0 -1.5912500000000001 -1 0 0 0 0 -1.0261703293156896 1 I I -0.7161801451052382 0.69791546748660038 1.0261703293156896 forward I I I I #
coedge $-1 $157 $261 $216 $262 forward $212 $-1 #
loop $-1 $-1 $259 $227 #
vertex $-1 $158 $263 #
ellipse-curve $-1 0.089999999999999969 -3.3046482217358175e-016 -1.5912500000000003 1 0 0 0 0.046875000000000222 2.2204460492503131e-016 1 I I #
point $-1 0.089999999999999969 -5.7403422835423934e-018 -1.5443750000000001 #
coedge $-1 $264 $161 $211 $262 reversed $217 $-1 #
loop $-1 $-1 $161 $265 #
ellipse-curve $-1 0.089999999999999941 6.7307270867900115e-016 -1.5912500000000005 1 -2.5506502602147014e-029 -1.776356839400284e-015 -8.3266726846886741e-017 -6.7307270867900115e-016 -0.046874999999999112 1 I I #
point $-1 0.089999999999999858 0 -1.6381249999999996 #
coedge $-1 $266 $267 $169 $221 reversed $228 $-1 #
edge $-1 $225 0 $224 3.1415926535897931 $169 $268 forward 7 unknown #
coedge $-1 $269 $170 $267 $270 forward $173 $-1 #
coedge $-1 $170 $269 $266 $271 reversed $173 $-1 #
vertex $-1 $221 $272 #
vertex $-1 $221 $273 #
ellipse-curve $-1 -0.046875 5.5511151231257827e-017 -1.5912499999999998 1 0 0 0 -0.066875000000000184 -2.2204460492503131e-016 1 I I #
face $-1 $265 $212 $3 $-1 $274 reversed single #
loop $-1 $-1 $266 $172 #
cone-surface $-1 -0.97999999999999998 0 -1.5912500000000001 1 0 0 0 1.0000000000000002 0 1 I I -0.70710678118654757 0.70710678118654746 1.0000000000000002 forward I I I I #
plane-surface $-1 0 0 -1.34375 0 0 -1 0 -1 0 forward_v I I I I #
face $-1 $175 $248 $3 $-1 $275 reversed single #
plane-surface $-1 0.0625 -0.069877124296868431 3.78125 1 0 0 0 1 0 forward_v I I I I #
coedge $-1 $276 $276 $234 $277 forward $178 $-1 #
coedge $-1 $278 $180 $233 $277 reversed $129 $-1 #
coedge $-1 $180 $278 $184 $240 forward $129 $-1 #
edge $-1 $279 0 $238 1.1875 $182 $280 forward 7 unknown #
coedge $-1 $182 $246 $276 $281 reversed $90 $-1 #
vertex $-1 $240 $282 #
ellipse-curve $-1 2.9490299091605721e-017 -4.163336342344337e-017 3.78125 0 0 1 -2.9490299091605721e-017 0.093750000000000042 0 1 I I #
edge $-1 $253 0 $238 0.13975424859373686 $184 $283 forward 7 unknown #
coedge $-1 $185 $195 $187 $243 forward $196 $-1 #
straight-curve $-1 0.0625 -0.069877124296868431 3.78125 0 1 0 I I #
edge $-1 $249 0 $188 1.1875 $187 $284 forward 7 unknown #
point $-1 0.0625 0.069877124296868431 3.78125 #
point $-1 0 0.09375 3.78125 #
coedge $-1 $237 $191 $278 $285 reversed $90 $-1 #
coedge $-1 $193 $193 $195 $251 reversed $248 $-1 #
loop $-1 $-1 $247 $231 #
vertex $-1 $194 $286 #
ellipse-curve $-1 -1.3877787807814457e-017 0 2.59375 0 0 1 0.062500000000000014 -0.069877124296868431 0 1 I I #
edge $-1 $197 0 $249 0.13975424859373686 $247 $287 forward 7 unknown #
point $-1 0.0625 -0.069877124296868431 2.59375 #
vertex $-1 $199 $288 #
ellipse-curve $-1 6.9388939039072284e-018 2.7755575615628914e-017 3.78125 0 0 1 -0.0625 -0.069877124296868459 0 1 I I #
straight-curve $-1 0 0.09375 2.03125 0 0 1 I I #
coedge $-1 $206 $264 $259 $289 forward $217 $-1 #
vertex $-1 $209 $290 #
ellipse-curve $-1 0.089999999999999941 -5.7853027923826517e-016 -1.5912500000000003 1 5.921189464667588e-016 -2.8048387741192349e-030 2.7755575615628914e-017 -0.046874999999999313 2.2204460492503131e-016 1 I I #
coedge $-1 $261 $208 $256 $289 reversed $212 $-1 #
ellipse-curve $-1 0.089999999999999913 3.0531133177191805e-016 -1.5912500000000003 1 7.8583291536399548e-030 -1.1842378929334947e-015 5.5511151231257827e-017 -3.1105167405546044e-016 0.046875000000000222 1 I I #
coedge $-1 $211 $259 $291 $292 reversed $212 $-1 #
edge $-1 $293 -9.7144514654701197e-017 $213 0.11687499999999999 $211 $294 forward 7 unknown #
point $-1 0.089999999999999997 0.046875 -1.5912500000000001 #
coedge $-1 $256 $216 $269 $295 reversed $217 $-1 #
face $-1 $114 $217 $3 $-1 $296 reversed single #
coedge $-1 $291 $220 $223 $271 forward $228 $-1 #
coedge $-1 $220 $291 $222 $270 reversed $228 $-1 #
ellipse-curve $-1 -0.046875 0 -1.5912500000000001 1 0 0 0 0.066875000000000129 0 1 I I #
coedge $-1 $223 $222 $264 $295 forward $173 $-1 #
edge $-1 $224 0 $297 0.028284271247461853 $267 $298 forward 7 unknown #
edge $-1 $225 1.7431527984210533e-030 $293 0.028284271247461853 $266 $299 forward 7 unknown #
point $-1 -0.046875 -0.066875000000000129 -1.5912500000000001 #
point $-1 -0.046875 0.066875000000000129 -1.5912500000000001 #
cone-surface $-1 -0.046875 0 -1.5912500000000001 1 0 0 0 0.046875 0 1 I I 0 1 0.046875 forward I I I I #
plane-surface $-1 0 0 2.59375 0 0 -1 0 1 0 forward_v I I I I #
coedge $-1 $233 $233 $237 $281 forward $178 $-1 #
edge $-1 $300 0 $279 0.13975424859373686 $233 $301 forward 7 unknown #
coedge $-1 $235 $234 $246 $285 forward $129 $-1 #
vertex $-1 $236 $302 #
straight-curve $-1 -0.0625 0.069877124296868431 2.59375 0 0 1 I I #
edge $-1 $279 0 $300 1.6821373411358604 $237 $303 forward 7 unknown #
point $-1 -0.0625 0.069877124296868431 3.78125 #
straight-curve $-1 -0.0625 -0.069877124296868431 3.78125 0 1 0 I I #
straight-curve $-1 0.0625 0.069877124296868431 2.59375 0 0 1 I I #
edge $-1 $300 0 $253 1.1875 $246 $304 forward 7 unknown #
point $-1 0.0625 0.069877124296868431 2.59375 #
straight-curve $-1 0.0625 -0.069877124296868431 2.59375 0 1 0 I I #
point $-1 -0.0625 -0.069877124296868431 3.78125 #
edge $-1 $297 -9.7144514654701197e-017 $257 0.11687499999999997 $259 $305 forward 7 unknown #
point $-1 0.089999999999999969 -0.046874999999999889 -1.5912500000000001 #
coedge $-1 $267 $266 $261 $292 forward $228 $-1 #
edge $-1 $293 0 $297 3.1415926535897838 $261 $306 forward 7 unknown #
vertex $-1 $262 $307 #
straight-curve $-1 -0.026874999999999996 0.046875 -1.5912500000000001 1 0 0 I I #
edge $-1 $297 0 $293 3.1415926535897931 $264 $308 forward 7 unknown #
cone-surface $-1 -0.046875 0 -1.5912500000000001 1 0 0 0 0.046875 0 1 I I 0 1 0.046875 forward I I I I #
vertex $-1 $292 $309 #
straight-curve $-1 -0.046875 -0.066875000000000129 -1.5912500000000001 0.70710678118654546 0.70710678118654946 0 I I #
straight-curve $-1 -0.046875 0.066875000000000129 -1.5912500000000003 0.70710678118654546 -0.70710678118654946 7.8504622934188898e-015 I I #
vertex $-1 $281 $310 #
straight-curve $-1 -0.0625 -0.069877124296868431 2.59375 0 1 0 I I #
point $-1 -0.0625 0.069877124296868431 2.59375 #
ellipse-curve $-1 1.3877787807814457e-017 0 2.59375 0 0 1 -0.062500000000000014 0.069877124296868431 0 1 I I #
straight-curve $-1 -0.0625 -0.069877124296868431 2.59375 0 0 1 I I #
straight-curve $-1 -0.026874999999999996 -0.046875 -1.5912500000000001 1 0 0 I I #
ellipse-curve $-1 -0.026875000000000093 1.7347234759768071e-018 -1.5912500000000003 1 0 0 0 0.046875000000000111 2.2204460492503131e-016 1 I I #
point $-1 -0.026875000000000093 0.046875000000000111 -1.5912500000000001 #
ellipse-curve $-1 -0.026875000000000093 1.7347234759768071e-018 -1.5912500000000001 1 0 0 0 -0.046875000000000111 0 1 I I #
point $-1 -0.026875000000000093 -0.046875000000000111 -1.5912500000000001 #
point $-1 -0.0625 -0.069877124296868431 2.59375 #
End-of-ACIS-data 