700 0 2 0           
24 FBMach with ACIS - 7.0.3 13 ACIS 7.0.3 NT 24 Wed May 15 12:36:05 2002 
1 9.9999999999999995e-007 1e-010 
body $2 -1 $-1 $3 $-1 $4 #
bdycol-kcp $-1 -1 1 4 $5 $6 $7 $8 #
model_id-kcp-attrib $-1 -1 $-1 $-1 $0 1 1021480564 1021480564 1201078273 1 #
lump $-1 -1 $-1 $-1 $9 $0 #
transform $-1 -1 1 0 0 0 1 0 0 0 1 0 0 0 1 rotate no_reflect no_shear #
body $10 -1 $-1 $11 $-1 $12 #
body $13 -1 $-1 $14 $-1 $15 #
body $16 -1 $-1 $17 $-1 $18 #
body $19 -1 $-1 $20 $-1 $21 #
shell $-1 -1 $-1 $-1 $-1 $22 $-1 $3 #
model_id-kcp-attrib $-1 -1 $-1 $-1 $5 1 1021480564 1021480564 1201733634 1 #
lump $-1 -1 $-1 $-1 $23 $5 #
transform $-1 -1 1 0 0 0 1 0 0 0 1 0 -5.5511151231257827e-017 -12.430124999999993 1 no_rotate no_reflect no_shear #
rgb_color-st-attrib $-1 -1 $24 $-1 $6 0.5 1 1 #
lump $-1 -1 $-1 $-1 $25 $6 #
transform $-1 -1 1 0 0 0 1 0 0 0 1 0 -5.5511151231257827e-017 -12.430124999999993 1 no_rotate no_reflect no_shear #
rgb_color-st-attrib $-1 -1 $26 $-1 $7 0.5 1 1 #
lump $-1 -1 $-1 $-1 $27 $7 #
transform $-1 -1 1 0 0 0 1 0 0 0 1 0 0 0 1 no_rotate no_reflect no_shear #
rgb_color-st-attrib $-1 -1 $28 $-1 $8 0.5 1 1 #
lump $-1 -1 $-1 $-1 $29 $8 #
transform $-1 -1 1 0 0 0 1 0 0 0 1 0 0 0 1 no_rotate no_reflect no_shear #
face $30 -1 $-1 $31 $32 $9 $-1 $33 reversed single #
shell $-1 -1 $-1 $-1 $-1 $34 $-1 $11 #
model_id-kcp-attrib $-1 -1 $-1 $13 $6 1 1021480564 1021480565 1191182339 1 #
shell $-1 -1 $-1 $-1 $-1 $35 $-1 $14 #
model_id-kcp-attrib $-1 -1 $-1 $16 $7 1 1021480564 1021480565 1197080580 1 #
shell $-1 -1 $-1 $-1 $-1 $36 $-1 $17 #
model_id-kcp-attrib $-1 -1 $-1 $19 $8 1 1021480564 1021480565 1199702021 1 #
shell $-1 -1 $-1 $-1 $-1 $37 $-1 $20 #
model_id-kcp-attrib $-1 -1 $-1 $-1 $22 1 1021480564 1021480564 1201078273 2 #
face $38 -1 $-1 $39 $40 $9 $-1 $41 reversed single #
loop $-1 -1 $-1 $42 $43 $22 #
plane-surface $-1 -1 $-1 0 -0.79374999999999996 0 0 1 0 25.399999999999999 0 0 forward_v I I I I #
face $-1 -1 $-1 $44 $45 $23 $-1 $46 forward single #
face $-1 -1 $-1 $47 $48 $25 $-1 $49 reversed single #
face $-1 -1 $-1 $50 $51 $27 $-1 $52 forward single #
face $-1 -1 $-1 $53 $54 $29 $-1 $55 forward single #
model_id-kcp-attrib $-1 -1 $-1 $-1 $31 1 1021480564 1021480564 1201078273 3 #
face $56 -1 $-1 $57 $58 $9 $-1 $59 forward single #
loop $-1 -1 $-1 $-1 $60 $31 #
cone-surface $-1 -1 $-1 -22.790042201773058 -0.79374999999999996 -22.672352077078987 0 1 0 11.254341828036077 0 11.196223247940239 1 I I 0 1 15.874999999999996 forward I I I I #
loop $-1 -1 $-1 $61 $62 $22 #
coedge $-1 -1 $-1 $63 $64 $65 $66 forward $32 $-1 #
face $-1 -1 $-1 $67 $68 $23 $-1 $69 reversed single #
loop $-1 -1 $-1 $-1 $70 $34 #
plane-surface $-1 -1 $-1 0 0 28.701999999999995 0 0 1 1 0 0 forward_v I I I I #
face $-1 -1 $-1 $71 $72 $25 $-1 $73 reversed single #
loop $-1 -1 $-1 $-1 $74 $35 #
cone-surface $-1 -1 $-1 -22.790042201773019 -0.79374999999999996 -10.242227077078969 0 -1 0 11.254341828036036 0 11.196223247940216 1 I I 0 -1 15.874999999999952 forward I I I I #
face $-1 -1 $-1 $75 $76 $27 $-1 $77 forward single #
loop $-1 -1 $-1 $78 $79 $36 #
cone-surface $-1 -1 $-1 0 -0.79374999999999996 0 0 1 0 -13.525499999999999 0 0 1 I I 0 1 13.525499999999999 forward I I I I #
face $-1 -1 $-1 $80 $81 $29 $-1 $82 forward single #
loop $-1 -1 $-1 $83 $84 $37 #
cone-surface $-1 -1 $-1 8.8123952579621795e-017 -0.79374999999999996 -36.306124999999994 0 1 0 -1.984375 0 0 1 I I 0 1 1.984375 forward I I I I #
model_id-kcp-attrib $-1 -1 $-1 $-1 $39 1 1021480564 1021480564 1201078273 4 #
face $85 -1 $-1 $86 $87 $9 $-1 $88 reversed single #
loop $-1 -1 $-1 $89 $90 $39 #
plane-surface $-1 -1 $-1 0 0.79374999999999996 0 0 1 0 25.399999999999999 0 0 forward_v I I I I #
coedge $-1 -1 $-1 $91 $92 $93 $94 forward $40 $-1 #
loop $-1 -1 $-1 $-1 $95 $22 #
coedge $-1 -1 $-1 $96 $96 $97 $98 reversed $42 $-1 #
coedge $-1 -1 $-1 $99 $43 $100 $101 reversed $32 $-1 #
coedge $-1 -1 $-1 $43 $102 $103 $104 reversed $32 $-1 #
coedge $-1 -1 $-1 $92 $91 $43 $66 reversed $40 $-1 #
edge $105 -1 $-1 $106 -1.6916635286247134e-016 $107 0.64499666363208763 $43 $108 forward @7 unknown #
face $109 -1 $-1 $110 $111 $23 $-1 $112 reversed single #
loop $-1 -1 $-1 $-1 $113 $44 #
plane-surface $-1 -1 $-1 0 0 -28.701999999999995 0 0 1 1 0 0 forward_v I I I I #
coedge $-1 -1 $-1 $114 $115 $116 $117 forward $45 $-1 #
face $-1 -1 $-1 $118 $119 $25 $-1 $120 reversed single #
loop $-1 -1 $-1 $-1 $121 $47 #
cone-surface $-1 -1 $-1 0 -0.79374999999999996 -23.876000000000001 0 -1 0 4.7802439232795457 0 -0.66298117163987058 1 I I 0 1 4.8259999999999996 forward I I I I #
coedge $-1 -1 $-1 $122 $123 $124 $125 reversed $48 $-1 #
face $-1 -1 $-1 $-1 $126 $27 $-1 $127 reversed single #
loop $-1 -1 $-1 $-1 $128 $50 #
plane-surface $-1 -1 $-1 0 0.79374999999999984 0 -2.1560745858471919e-034 1 3.2341118787707872e-034 0 -3.2341118787707872e-034 1 forward_v I I I I #
loop $-1 -1 $-1 $-1 $129 $36 #
coedge $-1 -1 $-1 $79 $79 $128 $130 forward $51 $-1 #
face $-1 -1 $-1 $-1 $131 $29 $-1 $132 reversed single #
loop $-1 -1 $-1 $-1 $133 $53 #
plane-surface $-1 -1 $-1 0 0.79374999999999984 -36.306124999999994 6.2604126646592796e-033 1 -2.5658541216885078e-049 0 2.5658541216885078e-049 1 forward_v I I I I #
loop $-1 -1 $-1 $-1 $134 $37 #
coedge $-1 -1 $-1 $84 $84 $133 $135 forward $54 $-1 #
model_id-kcp-attrib $-1 -1 $-1 $-1 $57 1 1021480564 1021480564 1201078273 5 #
face $136 -1 $-1 $137 $138 $9 $-1 $139 forward single #
loop $-1 -1 $-1 $-1 $140 $57 #
cone-surface $-1 -1 $-1 22.790042201773062 -0.79374999999999996 -22.672352077078987 0 1 0 -15.724486589735349 0 2.1808591172364125 1 I I 0 1 15.875 forward I I I I #
loop $-1 -1 $-1 $141 $142 $39 #
coedge $-1 -1 $-1 $143 $144 $140 $145 reversed $58 $-1 #
coedge $-1 -1 $-1 $65 $60 $146 $147 reversed $40 $-1 #
coedge $-1 -1 $-1 $60 $65 $148 $149 forward $40 $-1 #
coedge $-1 -1 $-1 $144 $150 $60 $94 reversed $58 $-1 #
edge $151 -1 $-1 $152 -1.6916635286247134e-016 $153 0.64499666363208763 $93 $154 forward @7 unknown #
coedge $-1 -1 $-1 $155 $155 $156 $157 reversed $61 $-1 #
coedge $-1 -1 $-1 $62 $62 $158 $159 reversed $42 $-1 #
coedge $-1 -1 $-1 $160 $161 $62 $98 forward $162 $-1 #
edge $163 -1 $-1 $164 0 $165 3.1415926535897931 $62 $166 forward @7 unknown #
coedge $-1 -1 $-1 $167 $63 $168 $169 reversed $32 $-1 #
coedge $-1 -1 $-1 $146 $170 $63 $101 forward $171 $-1 #
edge $172 -1 $-1 $173 0 $107 0.6549344678824669 $63 $174 forward @7 unknown #
coedge $-1 -1 $-1 $64 $167 $175 $176 forward $32 $-1 #
coedge $-1 -1 $-1 $177 $148 $64 $104 forward $138 $-1 #
edge $178 -1 $-1 $106 0 $179 4.7072115204792091 $64 $180 forward @7 unknown #
attrib_edge_convexity-kcp-attrib $-1 -1 $181 $-1 $66 1 #
vertex $-1 -1 $-1 $104 $182 #
vertex $-1 -1 $-1 $101 $183 #
ellipse-curve $-1 -1 $-1 -22.790042201773019 -0.79374999999999996 -22.672352077078965 0 1 0 11.254341828036038 0 11.196223247940216 1 I I #
model_id-kcp-attrib $-1 -1 $-1 $-1 $67 1 1021480564 1021480564 1201733634 2 #
face $-1 -1 $-1 $184 $185 $23 $-1 $186 reversed single #
loop $-1 -1 $-1 $-1 $187 $67 #
plane-surface $-1 -1 $-1 0 -0.79374999999999996 0 0 1 0 0 0 1 forward_v I I I I #
coedge $-1 -1 $-1 $188 $189 $190 $191 forward $68 $-1 #
coedge $-1 -1 $-1 $192 $70 $193 $194 forward $45 $-1 #
coedge $-1 -1 $-1 $70 $192 $195 $196 forward $45 $-1 #
coedge $-1 -1 $-1 $197 $198 $70 $117 reversed $199 $-1 #
edge $-1 -1 $-1 $200 -0.79374999999999996 $201 0.79374999999999996 $116 $202 forward @7 unknown #
face $-1 -1 $-1 $203 $204 $25 $-1 $120 reversed single #
loop $-1 -1 $-1 $-1 $205 $71 #
cone-surface $-1 -1 $-1 2.0708258483226464e-015 -0.79374999999999996 12.430124999999993 0 -1 0 -11.535700373736981 0 -11.476128829138746 1 I I 0 1 16.271875000000001 forward I I I I #
coedge $-1 -1 $-1 $206 $207 $208 $209 reversed $72 $-1 #
coedge $-1 -1 $-1 $210 $74 $211 $212 forward $48 $-1 #
coedge $-1 -1 $-1 $74 $210 $213 $214 reversed $48 $-1 #
coedge $-1 -1 $-1 $215 $216 $74 $125 forward $217 $-1 #
edge $-1 -1 $-1 $218 -0.64499666363208774 $219 -1.6916635286247142e-016 $124 $220 forward @7 unknown #
loop $-1 -1 $-1 $-1 $221 $75 #
plane-surface $-1 -1 $-1 0 -0.79375000000000007 0 -2.1560745858471919e-034 1 3.2341118787707872e-034 0 -3.2341118787707872e-034 1 forward_v I I I I #
coedge $-1 -1 $-1 $128 $128 $79 $130 reversed $76 $-1 #
coedge $-1 -1 $-1 $129 $129 $221 $222 reversed $78 $-1 #
edge $-1 -1 $-1 $223 -3.1415926535897931 $223 3.1415926535897931 $79 $224 forward @7 unknown #
loop $-1 -1 $-1 $-1 $225 $80 #
plane-surface $-1 -1 $-1 0 -0.79375000000000007 -36.306124999999994 6.2604126646592796e-033 1 -2.5658541216885078e-049 0 2.5658541216885078e-049 1 forward_v I I I I #
coedge $-1 -1 $-1 $133 $133 $84 $135 reversed $81 $-1 #
coedge $-1 -1 $-1 $134 $134 $225 $226 reversed $83 $-1 #
edge $-1 -1 $-1 $227 -3.1415926535897931 $227 3.1415926535897931 $84 $228 forward @7 unknown #
model_id-kcp-attrib $-1 -1 $-1 $-1 $86 1 1021480564 1021480564 1201078273 6 #
face $229 -1 $-1 $230 $231 $9 $-1 $232 forward single #
loop $-1 -1 $-1 $-1 $177 $86 #
cone-surface $-1 -1 $-1 0 -0.79374999999999996 0 0 1 0 16.271874999999998 0 0 1 I I 0 1 16.271874999999998 forward I I I I #
coedge $-1 -1 $-1 $233 $234 $90 $145 forward $87 $-1 #
loop $-1 -1 $-1 $-1 $235 $39 #
coedge $-1 -1 $-1 $236 $236 $237 $238 forward $89 $-1 #
coedge $-1 -1 $-1 $239 $90 $240 $241 forward $58 $-1 #
coedge $-1 -1 $-1 $90 $93 $242 $243 forward $58 $-1 #
edge $244 -1 $-1 $245 -1.1277756857497997e-016 $246 0.64499666363208485 $90 $247 forward @7 unknown #
coedge $-1 -1 $-1 $248 $100 $91 $147 forward $171 $-1 #
edge $249 -1 $-1 $107 0 $153 0.0625 $146 $250 forward @7 unknown #
coedge $-1 -1 $-1 $103 $242 $92 $149 reversed $138 $-1 #
edge $251 -1 $-1 $106 2.4846012762866522e-031 $152 0.0625 $148 $252 forward @7 unknown #
coedge $-1 -1 $-1 $93 $239 $248 $253 forward $58 $-1 #
attrib_edge_convexity-kcp-attrib $-1 -1 $254 $-1 $94 1 #
vertex $-1 -1 $-1 $243 $255 #
vertex $-1 -1 $-1 $94 $256 #
ellipse-curve $-1 -1 $-1 -22.790042201773019 0.79374999999999996 -22.672352077078965 7.8707586925906486e-018 1 7.8301132842247255e-018 11.254341828036038 -1.7624790515924359e-016 11.196223247940216 1 I I #
coedge $-1 -1 $-1 $95 $95 $257 $258 reversed $61 $-1 #
coedge $-1 -1 $-1 $259 $260 $95 $157 forward $261 $-1 #
edge $262 -1 $-1 $263 0 $264 3.1415926535897931 $95 $265 forward @7 unknown #
coedge $-1 -1 $-1 $266 $267 $96 $159 forward $268 $-1 #
edge $269 -1 $-1 $165 0 $164 3.1415926535897931 $96 $270 forward @7 unknown #
coedge $-1 -1 $-1 $237 $97 $267 $271 reversed $162 $-1 #
coedge $-1 -1 $-1 $97 $237 $266 $272 forward $162 $-1 #
loop $-1 -1 $-1 $-1 $160 $273 #
attrib_edge_convexity-kcp-attrib $-1 -1 $274 $-1 $98 1 #
vertex $-1 -1 $-1 $159 $275 #
vertex $-1 -1 $-1 $159 $276 #
ellipse-curve $-1 -1 $-1 0 -0.79374999999999996 0 0 -1 0 -13.525499999999999 0 0 1 I I #
coedge $-1 -1 $-1 $102 $99 $277 $278 reversed $32 $-1 #
coedge $-1 -1 $-1 $279 $280 $99 $169 forward $281 $-1 #
edge $282 -1 $-1 $283 6.1016257236290403e-016 $173 2.8659671139645484 $99 $284 forward @7 unknown #
coedge $-1 -1 $-1 $100 $248 $279 $285 reversed $171 $-1 #
loop $-1 -1 $-1 $-1 $146 $286 #
attrib_edge_convexity-kcp-attrib $-1 -1 $287 $-1 $101 1 #
vertex $-1 -1 $-1 $169 $288 #
straight-curve $-1 -1 $-1 -4.7802439232795457 -0.79374999999999996 -36.969106171639865 -3.4893745875782574 0 25.159178543576559 I I #
coedge $-1 -1 $-1 $234 $233 $102 $176 reversed $87 $-1 #
edge $289 -1 $-1 $290 -1.1277756857497997e-016 $179 0.64499666363208485 $102 $291 forward @7 unknown #
coedge $-1 -1 $-1 $242 $103 $233 $292 forward $138 $-1 #
attrib_edge_convexity-kcp-attrib $-1 -1 $293 $-1 $104 1 #
vertex $-1 -1 $-1 $104 $294 #
ellipse-curve $-1 -1 $-1 0 -0.79374999999999996 0 0 1 0 -11.535700373736981 0 -11.476128829138746 1 I I #
convexity-sys-attrib $-1 -1 $-1 $105 $66 #
point $-1 -1 $-1 -11.535700373736981 -0.79374999999999996 -11.476128829138746 #
point $-1 -1 $-1 -7.0655556120377137 -0.79374999999999996 -20.491492959842578 #
face $295 -1 $-1 $296 $297 $23 $-1 $298 reversed single #
loop $-1 -1 $-1 $-1 $299 $110 #
plane-surface $-1 -1 $-1 -16.271875000000001 0 0 1 0 0 0 0 -1 forward_v I I I I #
coedge $-1 -1 $-1 $300 $195 $301 $302 forward $111 $-1 #
coedge $-1 -1 $-1 $303 $113 $300 $304 forward $68 $-1 #
coedge $-1 -1 $-1 $113 $303 $305 $306 forward $68 $-1 #
coedge $-1 -1 $-1 $198 $197 $113 $191 reversed $199 $-1 #
edge $-1 -1 $-1 $307 -0.79374999999999996 $308 0.79374999999999996 $190 $309 forward @7 unknown #
coedge $-1 -1 $-1 $115 $114 $310 $311 forward $45 $-1 #
coedge $-1 -1 $-1 $312 $313 $114 $194 reversed $297 $-1 #
edge $-1 -1 $-1 $201 -16.271875000000001 $314 16.271875000000001 $193 $315 forward @7 unknown #
coedge $-1 -1 $-1 $187 $316 $115 $196 reversed $111 $-1 #
edge $-1 -1 $-1 $317 -16.271875000000001 $200 16.271875000000001 $195 $318 forward @7 unknown #
coedge $-1 -1 $-1 $190 $116 $316 $319 forward $199 $-1 #
coedge $-1 -1 $-1 $116 $190 $312 $320 reversed $199 $-1 #
loop $-1 -1 $-1 $-1 $197 $296 #
vertex $-1 -1 $-1 $117 $321 #
vertex $-1 -1 $-1 $117 $322 #
straight-curve $-1 -1 $-1 16.271875000000001 0 28.701999999999995 0 1 0 I I #
face $-1 -1 $-1 $323 $324 $25 $-1 $120 reversed single #
loop $-1 -1 $-1 $-1 $325 $118 #
coedge $-1 -1 $-1 $213 $326 $215 $327 reversed $119 $-1 #
coedge $-1 -1 $-1 $328 $121 $329 $330 forward $72 $-1 #
coedge $-1 -1 $-1 $121 $328 $331 $332 forward $72 $-1 #
coedge $-1 -1 $-1 $333 $334 $121 $209 forward $335 $-1 #
edge $-1 -1 $-1 $336 1.5063388505209193e-015 $337 1.4329835569822738 $208 $338 forward @7 unknown #
coedge $-1 -1 $-1 $123 $122 $339 $340 reversed $48 $-1 #
coedge $-1 -1 $-1 $341 $342 $122 $212 reversed $343 $-1 #
edge $-1 -1 $-1 $218 0 $344 1.5874999999999999 $211 $345 forward @7 unknown #
coedge $-1 -1 $-1 $346 $205 $123 $214 forward $119 $-1 #
edge $-1 -1 $-1 $219 0 $347 1.5874999999999999 $123 $348 forward @7 unknown #
coedge $-1 -1 $-1 $349 $124 $205 $327 forward $217 $-1 #
coedge $-1 -1 $-1 $124 $350 $341 $351 forward $217 $-1 #
loop $-1 -1 $-1 $-1 $350 $352 #
vertex $-1 -1 $-1 $351 $353 #
vertex $-1 -1 $-1 $125 $354 #
ellipse-curve $-1 -1 $-1 -22.790042201773019 -0.79374999999999996 -10.242227077078969 0 -1 0 11.254341828036036 0 11.196223247940216 1 I I #
coedge $-1 -1 $-1 $221 $221 $129 $222 forward $126 $-1 #
edge $-1 -1 $-1 $355 -3.1415926535897931 $355 3.1415926535897931 $129 $356 forward @7 unknown #
vertex $-1 -1 $-1 $130 $357 #
ellipse-curve $-1 -1 $-1 0 0.79374999999999996 0 0 -1 0 13.525499999999999 0 0 1 I I #
coedge $-1 -1 $-1 $225 $225 $134 $226 forward $131 $-1 #
edge $-1 -1 $-1 $358 -3.1415926535897931 $358 3.1415926535897931 $134 $359 forward @7 unknown #
vertex $-1 -1 $-1 $135 $360 #
ellipse-curve $-1 -1 $-1 -8.8123952579621795e-017 0.79374999999999996 -36.306124999999994 0 -1 0 1.984375 0 0 1 I I #
model_id-kcp-attrib $-1 -1 $-1 $-1 $137 1 1021480564 1021480564 1201078273 7 #
face $361 -1 $-1 $286 $281 $9 $-1 $362 forward single #
loop $-1 -1 $-1 $-1 $363 $137 #
plane-surface $-1 -1 $-1 7.9375 -0.79374999999999996 -14.20457707098754 0.99051884029828974 0 -0.13737695226686056 -3.4893745875782574 0 -25.159178543576555 forward_v I I I I #
coedge $-1 -1 $-1 $175 $140 $177 $292 reversed $87 $-1 #
coedge $-1 -1 $-1 $140 $175 $364 $365 forward $87 $-1 #
coedge $-1 -1 $-1 $366 $366 $367 $368 forward $141 $-1 #
coedge $-1 -1 $-1 $142 $142 $369 $370 forward $89 $-1 #
coedge $-1 -1 $-1 $161 $160 $142 $238 reversed $162 $-1 #
edge $-1 -1 $-1 $371 0 $372 3.1415926535897931 $142 $373 forward @7 unknown #
coedge $-1 -1 $-1 $150 $143 $374 $375 forward $58 $-1 #
coedge $-1 -1 $-1 $364 $363 $143 $241 reversed $231 $-1 #
edge $376 -1 $-1 $245 0 $377 0.6549344678824669 $143 $378 forward @7 unknown #
coedge $-1 -1 $-1 $148 $177 $144 $243 reversed $138 $-1 #
edge $-1 -1 $-1 $152 -1.0734331333728043e-016 $246 4.7072115204792091 $144 $379 forward @7 unknown #
attrib_edge_convexity-kcp-attrib $-1 -1 $380 $-1 $145 1 #
vertex $-1 -1 $-1 $241 $381 #
vertex $-1 -1 $-1 $243 $382 #
ellipse-curve $-1 -1 $-1 22.79004220177308 0.79374999999999996 -22.672352077078994 0 1 0 -15.724486589735369 0 2.1808591172364182 1 I I #
coedge $-1 -1 $-1 $170 $146 $150 $253 reversed $171 $-1 #
attrib_edge_convexity-kcp-attrib $-1 -1 $383 $-1 $147 4 #
straight-curve $-1 -1 $-1 -7.0655556120377145 -0.79374999999999996 -20.491492959842574 0 25.399999999999999 0 I I #
attrib_edge_convexity-kcp-attrib $-1 -1 $384 $-1 $149 4 #
straight-curve $-1 -1 $-1 -11.535700373736978 -0.79374999999999996 -11.476128829138748 -4.5119463720766372e-014 25.399999999999999 0 I I #
edge $385 -1 $-1 $386 0 $153 0.6549344678824669 $150 $387 forward @7 unknown #
convexity-sys-attrib $-1 -1 $-1 $151 $94 #
point $-1 -1 $-1 -11.535700373736981 0.79374999999999996 -11.476128829138746 #
point $-1 -1 $-1 -7.0655556120377137 0.79374999999999996 -20.491492959842578 #
coedge $-1 -1 $-1 $388 $389 $155 $258 forward $390 $-1 #
edge $391 -1 $-1 $264 0 $263 3.1415926535897931 $155 $392 forward @7 unknown #
coedge $-1 -1 $-1 $367 $156 $389 $393 reversed $261 $-1 #
coedge $-1 -1 $-1 $156 $367 $388 $394 forward $261 $-1 #
loop $-1 -1 $-1 $-1 $259 $395 #
attrib_edge_convexity-kcp-attrib $-1 -1 $396 $-1 $157 1 #
vertex $-1 -1 $-1 $258 $397 #
vertex $-1 -1 $-1 $258 $398 #
ellipse-curve $-1 -1 $-1 8.8123952579621795e-017 -0.79374999999999996 -36.306124999999994 0 -1 0 -1.984375 0 0 1 I I #
coedge $-1 -1 $-1 $369 $158 $161 $272 reversed $268 $-1 #
coedge $-1 -1 $-1 $158 $369 $160 $271 forward $268 $-1 #
loop $-1 -1 $-1 $-1 $266 $399 #
attrib_edge_convexity-kcp-attrib $-1 -1 $400 $-1 $159 1 #
ellipse-curve $-1 -1 $-1 0 -0.79374999999999996 0 0 -1 0 13.525499999999999 0 0 1 I I #
edge $-1 -1 $-1 $372 0 $165 0.0625 $267 $401 forward @7 unknown #
edge $-1 -1 $-1 $371 0 $164 0.0625 $266 $402 forward @7 unknown #
face $403 -1 $-1 $399 $162 $9 $-1 $404 reversed single #
convexity-sys-attrib $-1 -1 $-1 $163 $98 #
point $-1 -1 $-1 -13.525499999999999 -0.79374999999999996 0 #
point $-1 -1 $-1 13.525499999999999 -0.79374999999999996 0 #
coedge $-1 -1 $-1 $363 $364 $167 $278 forward $231 $-1 #
edge $405 -1 $-1 $290 0 $283 0.6549344678824669 $167 $406 forward @7 unknown #
coedge $-1 -1 $-1 $374 $168 $170 $285 forward $281 $-1 #
coedge $-1 -1 $-1 $168 $374 $363 $407 reversed $281 $-1 #
loop $-1 -1 $-1 $-1 $279 $230 #
attrib_edge_convexity-kcp-attrib $-1 -1 $408 $-1 $169 1 #
vertex $-1 -1 $-1 $278 $409 #
ellipse-curve $-1 -1 $-1 0 -0.79374999999999996 -36.306124999999994 0 1 0 4.7802439232795457 0 -0.66298117163986758 1 I I #
edge $410 -1 $-1 $173 0 $386 0.0625 $279 $411 forward @7 unknown #
face $412 -1 $-1 $273 $171 $9 $-1 $413 forward single #
convexity-sys-attrib $-1 -1 $-1 $172 $101 #
point $-1 -1 $-1 -4.7802439232795457 -0.79374999999999996 -36.969106171639865 #
attrib_edge_convexity-kcp-attrib $-1 -1 $414 $-1 $176 1 #
vertex $-1 -1 $-1 $176 $415 #
ellipse-curve $-1 -1 $-1 22.79004220177308 -0.79374999999999996 -22.672352077078994 0 1 0 -15.724486589735369 0 2.1808591172364182 1 I I #
edge $416 -1 $-1 $179 -1.2423006381433257e-031 $246 0.0625 $177 $417 forward @7 unknown #
convexity-sys-attrib $-1 -1 $-1 $178 $104 #
point $-1 -1 $-1 11.535700373736979 -0.79374999999999996 -11.476128829138748 #
model_id-kcp-attrib $-1 -1 $-1 $-1 $184 1 1021480564 1021480564 1201733634 3 #
face $-1 -1 $-1 $-1 $199 $23 $-1 $418 reversed single #
loop $-1 -1 $-1 $-1 $312 $184 #
plane-surface $-1 -1 $-1 0 0.79374999999999996 0 0 -1 0 0 0 -1 forward_v I I I I #
coedge $-1 -1 $-1 $419 $310 $313 $420 forward $185 $-1 #
coedge $-1 -1 $-1 $316 $187 $188 $304 reversed $111 $-1 #
coedge $-1 -1 $-1 $310 $419 $187 $302 reversed $185 $-1 #
edge $-1 -1 $-1 $317 -28.701999999999995 $421 28.701999999999995 $301 $422 forward @7 unknown #
coedge $-1 -1 $-1 $189 $188 $419 $423 forward $68 $-1 #
edge $-1 -1 $-1 $308 -16.271875000000001 $421 16.271875000000001 $300 $424 forward @7 unknown #
coedge $-1 -1 $-1 $313 $312 $189 $306 reversed $297 $-1 #
edge $-1 -1 $-1 $425 -16.271875000000001 $307 16.271875000000001 $305 $426 forward @7 unknown #
vertex $-1 -1 $-1 $191 $427 #
vertex $-1 -1 $-1 $319 $428 #
straight-curve $-1 -1 $-1 16.271875000000001 0 -28.701999999999995 0 -1 0 I I #
coedge $-1 -1 $-1 $299 $301 $192 $311 reversed $185 $-1 #
edge $-1 -1 $-1 $314 -0.79374999999999996 $317 0.79374999999999996 $310 $429 forward @7 unknown #
coedge $-1 -1 $-1 $305 $193 $198 $320 forward $297 $-1 #
coedge $-1 -1 $-1 $193 $305 $299 $420 reversed $297 $-1 #
vertex $-1 -1 $-1 $194 $430 #
straight-curve $-1 -1 $-1 0 0.79374999999999996 28.701999999999995 -1 0 0 I I #
coedge $-1 -1 $-1 $195 $300 $197 $319 reversed $111 $-1 #
vertex $-1 -1 $-1 $311 $431 #
straight-curve $-1 -1 $-1 0 -0.79374999999999996 28.701999999999995 1 0 0 I I #
edge $-1 -1 $-1 $200 -28.701999999999995 $308 28.701999999999995 $197 $432 forward @7 unknown #
edge $-1 -1 $-1 $201 -28.701999999999995 $307 28.701999999999995 $198 $433 forward @7 unknown #
point $-1 -1 $-1 16.271875000000001 -0.79374999999999996 28.701999999999995 #
point $-1 -1 $-1 16.271875000000001 0.79374999999999996 28.701999999999995 #
face $-1 -1 $-1 $434 $435 $25 $-1 $436 reversed single #
loop $-1 -1 $-1 $-1 $437 $203 #
coedge $-1 -1 $-1 $438 $439 $440 $441 reversed $204 $-1 #
coedge $-1 -1 $-1 $205 $346 $442 $443 forward $119 $-1 #
edge $-1 -1 $-1 $219 0 $444 0.78280943344470832 $215 $445 forward @7 unknown #
coedge $-1 -1 $-1 $207 $206 $446 $447 reversed $72 $-1 #
coedge $-1 -1 $-1 $448 $449 $206 $330 reversed $435 $-1 #
edge $-1 -1 $-1 $336 0 $450 1.5874999999999999 $329 $451 forward @7 unknown #
coedge $-1 -1 $-1 $452 $453 $454 $332 reversed $455 $-1 #
edge $-1 -1 $-1 $456 -1.5874999999999999 $337 0 $454 $457 forward @7 unknown #
coedge $-1 -1 $-1 $458 $208 $459 $460 reversed $335 $-1 #
coedge $-1 -1 $-1 $208 $461 $448 $462 forward $335 $-1 #
loop $-1 -1 $-1 $-1 $208 $463 #
vertex $-1 -1 $-1 $462 $464 #
vertex $-1 -1 $-1 $465 $466 #
ellipse-curve $-1 -1 $-1 0 -0.79374999999999996 -23.876000000000001 0 1 0 4.7802439232795457 0 -0.66298117163987058 1 I I #
coedge $-1 -1 $-1 $467 $468 $210 $340 forward $469 $-1 #
edge $-1 -1 $-1 $347 1.6916635286247142e-016 $344 0.64499666363208774 $339 $470 forward @7 unknown #
coedge $-1 -1 $-1 $471 $211 $216 $351 reversed $343 $-1 #
coedge $-1 -1 $-1 $211 $471 $467 $472 reversed $343 $-1 #
loop $-1 -1 $-1 $-1 $341 $473 #
vertex $-1 -1 $-1 $472 $474 #
straight-curve $-1 -1 $-1 -7.0655556120377145 -0.79374999999999996 -8.0613679598425811 0 1 0 I I #
coedge $-1 -1 $-1 $326 $213 $468 $475 reversed $119 $-1 #
vertex $-1 -1 $-1 $340 $476 #
straight-curve $-1 -1 $-1 -11.535700373736981 -0.79374999999999996 0.95399617086124522 0 1 0 I I #
coedge $-1 -1 $-1 $477 $215 $478 $479 forward $217 $-1 #
coedge $-1 -1 $-1 $216 $477 $453 $480 forward $217 $-1 #
edge $-1 -1 $-1 $481 -11.824813915480986 $218 4.8105215687336749 $216 $482 forward @7 unknown #
face $-1 -1 $-1 $483 $217 $25 $-1 $484 reversed single #
point $-1 -1 $-1 -7.0655556120377145 -0.79374999999999996 -8.0613679598425811 #
point $-1 -1 $-1 -11.535700373736981 -0.79374999999999996 0.95399617086124522 #
vertex $-1 -1 $-1 $222 $485 #
ellipse-curve $-1 -1 $-1 0 -0.79374999999999996 0 0 -1 0 -13.525499999999999 0 0 1 I I #
point $-1 -1 $-1 -13.525499999999999 0.79374999999999996 0 #
vertex $-1 -1 $-1 $226 $486 #
ellipse-curve $-1 -1 $-1 8.8123952579621795e-017 -0.79374999999999996 -36.306124999999994 0 -1 0 -1.984375 0 0 1 I I #
point $-1 -1 $-1 -1.984375 0.79374999999999996 -36.306124999999994 #
model_id-kcp-attrib $-1 -1 $-1 $-1 $230 1 1021480564 1021480564 1201078273 8 #
cone-surface $-1 -1 $-1 0 -0.79374999999999996 -36.306124999999994 0 1 0 4.8259999999999996 0 0 1 I I 0 1 4.8259999999999996 forward I I I I #
coedge $-1 -1 $-1 $240 $277 $280 $407 forward $231 $-1 #
coedge $-1 -1 $-1 $277 $240 $234 $365 reversed $231 $-1 #
edge $487 -1 $-1 $290 0 $245 0.0625 $364 $488 forward @7 unknown #
coedge $-1 -1 $-1 $235 $235 $489 $490 forward $141 $-1 #
coedge $-1 -1 $-1 $260 $259 $235 $368 reversed $261 $-1 #
edge $-1 -1 $-1 $491 0 $492 3.1415926535897931 $235 $493 forward @7 unknown #
coedge $-1 -1 $-1 $267 $266 $236 $370 reversed $268 $-1 #
edge $-1 -1 $-1 $372 0 $371 3.1415926535897931 $236 $494 forward @7 unknown #
vertex $-1 -1 $-1 $370 $495 #
vertex $-1 -1 $-1 $370 $496 #
ellipse-curve $-1 -1 $-1 0 0.79374999999999996 0 0 -1 0 -13.525499999999999 0 0 1 I I #
coedge $-1 -1 $-1 $280 $279 $239 $375 reversed $281 $-1 #
edge $-1 -1 $-1 $377 6.1016257236290403e-016 $386 2.8659671139645484 $239 $497 forward @7 unknown #
attrib_edge_convexity-kcp-attrib $-1 -1 $498 $-1 $241 1 #
vertex $-1 -1 $-1 $375 $499 #
straight-curve $-1 -1 $-1 7.0655556120377137 0.79374999999999996 -20.491492959842578 -3.4893745875782587 0 -25.159178543576559 I I #
ellipse-curve $-1 -1 $-1 2.4674706722294102e-015 0.79374999999999996 -8.81239525796218e-016 0 1 0 -11.535700373736983 0 -11.476128829138744 1 I I #
convexity-sys-attrib $-1 -1 $-1 $244 $145 #
point $-1 -1 $-1 7.0655556120377137 0.79374999999999996 -20.491492959842578 #
point $-1 -1 $-1 11.535700373736979 0.79374999999999996 -11.476128829138748 #
convexity-sys-attrib $-1 -1 $-1 $249 $147 #
convexity-sys-attrib $-1 -1 $-1 $251 $149 #
attrib_edge_convexity-kcp-attrib $-1 -1 $500 $-1 $253 1 #
vertex $-1 -1 $-1 $253 $501 #
straight-curve $-1 -1 $-1 -4.7802439232795457 0.79374999999999996 -36.969106171639865 -3.4893745875782574 0 25.159178543576559 I I #
coedge $-1 -1 $-1 $489 $257 $260 $394 reversed $390 $-1 #
coedge $-1 -1 $-1 $257 $489 $259 $393 forward $390 $-1 #
loop $-1 -1 $-1 $-1 $388 $502 #
attrib_edge_convexity-kcp-attrib $-1 -1 $503 $-1 $258 1 #
ellipse-curve $-1 -1 $-1 -8.8123952579621795e-017 -0.79374999999999996 -36.306124999999994 0 -1 0 1.984375 0 0 1 I I #
edge $-1 -1 $-1 $492 -2.1854783949314106e-017 $264 0.062499999999999979 $389 $504 forward @7 unknown #
edge $-1 -1 $-1 $491 -2.1854783949314106e-017 $263 0.062499999999999979 $388 $505 forward @7 unknown #
face $506 -1 $-1 $502 $261 $9 $-1 $507 reversed single #
convexity-sys-attrib $-1 -1 $-1 $262 $157 #
point $-1 -1 $-1 -1.984375 -0.79374999999999996 -36.306124999999994 #
point $-1 -1 $-1 1.984375 -0.79374999999999996 -36.306124999999994 #
face $508 -1 $-1 $395 $268 $9 $-1 $509 reversed single #
convexity-sys-attrib $-1 -1 $-1 $269 $159 #
straight-curve $-1 -1 $-1 13.525499999999999 0.79374999999999996 0 0 -25.399999999999999 0 I I #
straight-curve $-1 -1 $-1 -13.525499999999999 0.79374999999999996 1.6563413238624562e-015 0 -25.399999999999999 0 I I #
model_id-kcp-attrib $-1 -1 $-1 $-1 $273 1 1021480564 1021480564 1201078273 10 #
cone-surface $-1 -1 $-1 0 0.9524999999999999 0 0 -1 0 13.525499999999999 0 0 1 I I 0 1 13.525499999999999 forward I I I I #
attrib_edge_convexity-kcp-attrib $-1 -1 $510 $-1 $278 1 #
straight-curve $-1 -1 $-1 7.0655556120377137 -0.79374999999999996 -20.491492959842578 -3.4893745875782587 0 -25.159178543576559 I I #
edge $511 -1 $-1 $283 0 $377 0.0625 $363 $512 forward @7 unknown #
convexity-sys-attrib $-1 -1 $-1 $282 $169 #
point $-1 -1 $-1 4.7802439232795457 -0.79374999999999996 -36.969106171639865 #
attrib_edge_convexity-kcp-attrib $-1 -1 $513 $-1 $285 3 #
straight-curve $-1 -1 $-1 -4.7802439232795457 -0.79374999999999996 -36.969106171639865 0 25.399999999999999 0 I I #
model_id-kcp-attrib $-1 -1 $-1 $-1 $286 1 1021480564 1021480564 1201078273 9 #
plane-surface $-1 -1 $-1 -4.7802439232795457 -0.79374999999999996 -36.969106171639865 -0.99051884029828974 0 -0.13737695226686056 -3.4893745875782574 0 25.159178543576555 forward_v I I I I #
convexity-sys-attrib $-1 -1 $-1 $289 $176 #
point $-1 -1 $-1 7.0655556120377137 -0.79374999999999996 -20.491492959842578 #
attrib_edge_convexity-kcp-attrib $-1 -1 $514 $-1 $292 4 #
straight-curve $-1 -1 $-1 11.535700373736976 -0.79374999999999996 -11.476128829138752 -2.255973186038318e-014 25.399999999999999 0 I I #
plane-surface $-1 -1 $-1 16.271875000000001 0 0 -1 0 0 0 0 1 forward_v I I I I #
coedge $-1 -1 $-1 $301 $299 $303 $423 reversed $185 $-1 #
edge $-1 -1 $-1 $314 -28.701999999999995 $425 28.701999999999995 $313 $515 forward @7 unknown #
vertex $-1 -1 $-1 $423 $516 #
straight-curve $-1 -1 $-1 -16.271875000000001 -0.79374999999999996 0 0 0 -1 I I #
edge $-1 -1 $-1 $421 -0.79374999999999996 $425 0.79374999999999996 $419 $517 forward @7 unknown #
straight-curve $-1 -1 $-1 0 -0.79374999999999996 -28.701999999999995 -1 0 0 I I #
vertex $-1 -1 $-1 $306 $518 #
straight-curve $-1 -1 $-1 0 0.79374999999999996 -28.701999999999995 1 0 0 I I #
point $-1 -1 $-1 16.271875000000001 0.79374999999999996 -28.701999999999995 #
point $-1 -1 $-1 16.271875000000001 -0.79374999999999996 -28.701999999999995 #
straight-curve $-1 -1 $-1 -16.271875000000001 0 28.701999999999995 0 -1 0 I I #
point $-1 -1 $-1 -16.271875000000001 0.79374999999999996 28.701999999999995 #
point $-1 -1 $-1 -16.271875000000001 -0.79374999999999996 28.701999999999995 #
straight-curve $-1 -1 $-1 16.271875000000001 -0.79374999999999996 0 0 0 -1 I I #
straight-curve $-1 -1 $-1 16.271875000000001 0.79374999999999996 0 0 0 -1 I I #
face $-1 -1 $-1 $473 $455 $25 $-1 $73 reversed single #
loop $-1 -1 $-1 $-1 $448 $323 #
plane-surface $-1 -1 $-1 7.065555612037711 -0.79374999999999996 -8.0613679598425847 0.99051884029828974 0 -0.13737695226686061 0 1 0 forward_v I I I I #
coedge $-1 -1 $-1 $519 $442 $520 $521 reversed $324 $-1 #
coedge $-1 -1 $-1 $522 $325 $523 $524 reversed $204 $-1 #
coedge $-1 -1 $-1 $325 $522 $525 $526 forward $204 $-1 #
coedge $-1 -1 $-1 $461 $458 $325 $441 forward $335 $-1 #
edge $-1 -1 $-1 $527 -2.3587832201450851 $528 -1.5759737867003765 $440 $445 forward @7 unknown #
coedge $-1 -1 $-1 $437 $529 $530 $443 reversed $324 $-1 #
edge $-1 -1 $-1 $531 -1.5874999999999999 $444 0 $530 $532 forward @7 unknown #
vertex $-1 -1 $-1 $479 $533 #
ellipse-curve $-1 -1 $-1 2.0708258483226464e-015 -0.79374999999999996 12.430124999999993 0 1 0 -11.535700373736981 0 -11.476128829138746 1 I I #
coedge $-1 -1 $-1 $534 $535 $328 $447 forward $536 $-1 #
edge $-1 -1 $-1 $456 -1.4329835569822738 $450 -1.5063388505209193e-015 $446 $537 forward @7 unknown #
coedge $-1 -1 $-1 $538 $329 $334 $462 reversed $435 $-1 #
coedge $-1 -1 $-1 $329 $538 $534 $539 reversed $435 $-1 #
vertex $-1 -1 $-1 $539 $540 #
straight-curve $-1 -1 $-1 4.7802439232795439 -0.79374999999999996 -24.538981171639879 0 1 0 I I #
coedge $-1 -1 $-1 $541 $331 $542 $543 reversed $455 $-1 #
coedge $-1 -1 $-1 $331 $541 $350 $480 reversed $455 $-1 #
coedge $-1 -1 $-1 $544 $545 $546 $332 forward $547 $-1 #
loop $-1 -1 $-1 $-1 $453 $434 #
vertex $-1 -1 $-1 $548 $549 #
straight-curve $-1 -1 $-1 0 -0.79374999999999996 -28.701999999999995 0 -1 0 I I #
coedge $-1 -1 $-1 $440 $333 $550 $551 reversed $335 $-1 #
coedge $-1 -1 $-1 $546 $552 $333 $460 forward $553 $-1 #
edge $-1 -1 $-1 $554 -16.271875000000001 $337 0 $333 $555 forward @7 unknown #
coedge $-1 -1 $-1 $334 $440 $556 $557 forward $335 $-1 #
edge $-1 -1 $-1 $558 3.5071461733736573 $336 20.14248165758832 $334 $559 forward @7 unknown #
face $-1 -1 $-1 $352 $335 $25 $-1 $484 reversed single #
point $-1 -1 $-1 4.7802439232795439 -0.79374999999999996 -24.538981171639879 #
edge $-1 -1 $-1 $337 0 $560 16.271875000000001 $477 $555 forward @7 unknown #
point $-1 -1 $-1 0 -0.79374999999999996 -28.701999999999995 #
coedge $-1 -1 $-1 $542 $339 $342 $472 forward $469 $-1 #
coedge $-1 -1 $-1 $339 $561 $346 $475 forward $469 $-1 #
loop $-1 -1 $-1 $-1 $542 $562 #
ellipse-curve $-1 -1 $-1 -22.790042201773019 0.79374999999999996 -10.242227077078969 0 1 0 11.254341828036036 0 11.196223247940216 1 I I #
coedge $-1 -1 $-1 $342 $341 $541 $563 forward $343 $-1 #
edge $-1 -1 $-1 $344 -4.8105215687336749 $564 11.824813915480986 $467 $565 forward @7 unknown #
face $-1 -1 $-1 $566 $343 $25 $-1 $567 reversed single #
point $-1 -1 $-1 -7.0655556120377145 0.79374999999999996 -8.0613679598425811 #
edge $-1 -1 $-1 $531 -0.78280943344470832 $347 0 $468 $568 forward @7 unknown #
point $-1 -1 $-1 -11.535700373736981 0.79374999999999996 0.95399617086124522 #
coedge $-1 -1 $-1 $350 $349 $544 $465 reversed $217 $-1 #
coedge $-1 -1 $-1 $569 $570 $349 $479 reversed $571 $-1 #
edge $-1 -1 $-1 $444 -12.430124999999993 $560 28.701999999999995 $478 $572 forward @7 unknown #
edge $-1 -1 $-1 $337 1.4329835569822738 $481 2.8659671139645475 $350 $338 forward @7 unknown #
vertex $-1 -1 $-1 $480 $573 #
straight-curve $-1 -1 $-1 -6.404700820111084 -0.79374999999999996 -12.826280205334569 -0.13737695226686056 0 0.99051884029828974 I I #
face $-1 -1 $-1 $574 $575 $25 $-1 $484 reversed single #
plane-surface $-1 -1 $-1 0 -0.79374999999999996 0 0 1 0 0 0 1 forward_v I I I I #
point $-1 -1 $-1 13.525499999999999 -0.79374999999999996 0 #
point $-1 -1 $-1 1.984375 -0.79374999999999996 -36.306124999999994 #
attrib_edge_convexity-kcp-attrib $-1 -1 $576 $-1 $365 4 #
straight-curve $-1 -1 $-1 7.0655556120377137 -0.79374999999999996 -20.491492959842574 0 25.399999999999999 0 I I #
coedge $-1 -1 $-1 $389 $388 $366 $490 reversed $390 $-1 #
edge $-1 -1 $-1 $492 0 $491 3.1415926535897931 $366 $577 forward @7 unknown #
vertex $-1 -1 $-1 $490 $578 #
vertex $-1 -1 $-1 $490 $579 #
ellipse-curve $-1 -1 $-1 8.8123952579621795e-017 0.79374999999999996 -36.306124999999994 0 -1 0 -1.984375 0 0 1 I I #
ellipse-curve $-1 -1 $-1 0 0.79374999999999996 0 0 -1 0 13.525499999999999 0 0 1 I I #
point $-1 -1 $-1 -13.525499999999999 0.79374999999999996 0 #
point $-1 -1 $-1 13.525499999999999 0.79374999999999996 0 #
ellipse-curve $-1 -1 $-1 1.7624790515924359e-016 0.79374999999999996 -36.306124999999994 0 1 0 4.7802439232795457 0 -0.66298117163986758 1 I I #
convexity-sys-attrib $-1 -1 $-1 $376 $241 #
point $-1 -1 $-1 4.7802439232795457 0.79374999999999996 -36.969106171639865 #
convexity-sys-attrib $-1 -1 $-1 $385 $253 #
point $-1 -1 $-1 -4.7802439232795457 0.79374999999999996 -36.969106171639865 #
face $580 -1 $-1 $-1 $390 $9 $-1 $581 reversed single #
convexity-sys-attrib $-1 -1 $-1 $391 $258 #
straight-curve $-1 -1 $-1 1.984375 0.7937499999999994 -36.306124999999994 0 -25.399999999999999 0 I I #
straight-curve $-1 -1 $-1 -1.984375 0.7937499999999994 -36.306124999999994 0 -25.399999999999999 0 I I #
model_id-kcp-attrib $-1 -1 $-1 $-1 $395 1 1021480564 1021480564 1201078273 12 #
cone-surface $-1 -1 $-1 0 0.9524999999999999 -36.306124999999994 0 -1 0 1.984375 0 0 1 I I 0 1 1.984375 forward I I I I #
model_id-kcp-attrib $-1 -1 $-1 $-1 $399 1 1021480564 1021480564 1201078273 11 #
cone-surface $-1 -1 $-1 0 0.9524999999999999 0 0 -1 0 13.525499999999999 0 0 1 I I 0 1 13.525499999999999 forward I I I I #
convexity-sys-attrib $-1 -1 $-1 $405 $278 #
attrib_edge_convexity-kcp-attrib $-1 -1 $582 $-1 $407 3 #
straight-curve $-1 -1 $-1 4.7802439232795457 -0.79374999999999996 -36.969106171639865 0 25.399999999999999 0 I I #
convexity-sys-attrib $-1 -1 $-1 $410 $285 #
convexity-sys-attrib $-1 -1 $-1 $416 $292 #
straight-curve $-1 -1 $-1 -16.271875000000001 0.79374999999999996 0 0 0 -1 I I #
point $-1 -1 $-1 -16.271875000000001 -0.79374999999999996 -28.701999999999995 #
straight-curve $-1 -1 $-1 -16.271875000000001 0 -28.701999999999995 0 1 0 I I #
point $-1 -1 $-1 -16.271875000000001 0.79374999999999996 -28.701999999999995 #
coedge $-1 -1 $-1 $529 $437 $583 $584 forward $324 $-1 #
coedge $-1 -1 $-1 $585 $586 $437 $521 forward $587 $-1 #
edge $-1 -1 $-1 $588 -2.353605760239605 $531 -0.78280943344470832 $520 $568 forward @7 unknown #
coedge $-1 -1 $-1 $439 $438 $589 $590 reversed $204 $-1 #
coedge $-1 -1 $-1 $550 $591 $592 $524 forward $593 $-1 #
edge $-1 -1 $-1 $594 -1.5874999999999999 $527 0 $523 $595 forward @7 unknown #
coedge $-1 -1 $-1 $596 $556 $439 $526 reversed $597 $-1 #
edge $-1 -1 $-1 $598 -1.5874999999999999 $528 0 $525 $599 forward @7 unknown #
vertex $-1 -1 $-1 $551 $600 #
vertex $-1 -1 $-1 $441 $601 #
coedge $-1 -1 $-1 $442 $519 $602 $603 reversed $324 $-1 #
coedge $-1 -1 $-1 $604 $605 $569 $443 forward $606 $-1 #
vertex $-1 -1 $-1 $607 $608 #
straight-curve $-1 -1 $-1 -16.271875000000001 -0.79374999999999996 12.430124999999993 0 -1 0 I I #
point $-1 -1 $-1 -16.271875000000001 -0.79374999999999996 12.430124999999993 #
coedge $-1 -1 $-1 $609 $446 $449 $539 forward $536 $-1 #
coedge $-1 -1 $-1 $446 $610 $611 $548 reversed $536 $-1 #
loop $-1 -1 $-1 $-1 $446 $612 #
ellipse-curve $-1 -1 $-1 0 0.79374999999999996 -23.876000000000001 0 -1 0 4.7802439232795457 0 -0.66298117163987058 1 I I #
coedge $-1 -1 $-1 $449 $448 $613 $614 forward $435 $-1 #
edge $-1 -1 $-1 $450 -20.14248165758832 $615 -3.5071461733736573 $534 $616 forward @7 unknown #
point $-1 -1 $-1 4.7802439232795439 0.79374999999999996 -24.538981171639879 #
coedge $-1 -1 $-1 $453 $452 $471 $563 reversed $455 $-1 #
coedge $-1 -1 $-1 $617 $467 $452 $543 forward $469 $-1 #
edge $-1 -1 $-1 $564 -2.8659671139645475 $456 -1.4329835569822738 $542 $537 forward @7 unknown #
coedge $-1 -1 $-1 $618 $454 $477 $465 forward $547 $-1 #
coedge $-1 -1 $-1 $454 $618 $617 $619 forward $547 $-1 #
coedge $-1 -1 $-1 $611 $459 $207 $332 reversed $553 $-1 #
loop $-1 -1 $-1 $-1 $454 $620 #
edge $-1 -1 $-1 $456 0 $621 16.271875000000001 $535 $622 forward @7 unknown #
point $-1 -1 $-1 0 0.79374999999999996 -28.701999999999995 #
coedge $-1 -1 $-1 $623 $523 $458 $551 forward $593 $-1 #
edge $-1 -1 $-1 $527 -12.430124999999993 $554 28.701999999999995 $550 $624 forward @7 unknown #
coedge $-1 -1 $-1 $459 $611 $623 $625 forward $553 $-1 #
loop $-1 -1 $-1 $-1 $546 $626 #
vertex $-1 -1 $-1 $551 $627 #
straight-curve $-1 -1 $-1 0 -0.79374999999999996 -28.701999999999995 -1 0 0 I I #
coedge $-1 -1 $-1 $525 $613 $461 $557 reversed $597 $-1 #
edge $-1 -1 $-1 $528 -0.64499666363208485 $558 0 $461 $628 forward @7 unknown #
vertex $-1 -1 $-1 $462 $629 #
straight-curve $-1 -1 $-1 7.5473566644901675 -0.79374999999999996 -4.5874735994359259 -0.13737695226686061 0 -0.99051884029828974 I I #
vertex $-1 -1 $-1 $630 $631 #
coedge $-1 -1 $-1 $468 $617 $632 $607 reversed $469 $-1 #
face $-1 -1 $-1 $612 $469 $25 $-1 $633 reversed single #
edge $-1 -1 $-1 $481 0 $564 1.5874999999999999 $541 $634 forward @7 unknown #
vertex $-1 -1 $-1 $543 $635 #
straight-curve $-1 -1 $-1 -6.404700820111084 0.79374999999999973 -12.826280205334569 0.13737695226686056 0 -0.99051884029828974 I I #
face $-1 -1 $-1 $636 $637 $25 $-1 $120 reversed single #
plane-surface $-1 -1 $-1 -4.7802439232795439 -0.79374999999999996 -24.538981171639872 -0.99051884029828974 0 -0.13737695226686056 0 -1 0 forward_v I I I I #
ellipse-curve $-1 -1 $-1 2.0708258483226464e-015 0.79374999999999996 12.430124999999993 0 -1 0 -11.535700373736981 0 -11.476128829138746 1 I I #
coedge $-1 -1 $-1 $632 $478 $326 $443 reversed $571 $-1 #
coedge $-1 -1 $-1 $478 $632 $618 $630 reversed $571 $-1 #
loop $-1 -1 $-1 $-1 $569 $638 #
straight-curve $-1 -1 $-1 -16.271875000000001 -0.79374999999999996 0 0 0 -1 I I #
point $-1 -1 $-1 -4.7802439232795439 -0.79374999999999996 -24.538981171639872 #
face $-1 -1 $-1 $639 $640 $25 $-1 $484 reversed single #
loop $-1 -1 $-1 $-1 $602 $483 #
convexity-sys-attrib $-1 -1 $-1 $487 $365 #
ellipse-curve $-1 -1 $-1 -8.8123952579621795e-017 0.79374999999999996 -36.306124999999994 0 -1 0 1.984375 0 0 1 I I #
point $-1 -1 $-1 -1.984375 0.79374999999999996 -36.306124999999994 #
point $-1 -1 $-1 1.984375 0.79374999999999996 -36.306124999999994 #
model_id-kcp-attrib $-1 -1 $-1 $-1 $502 1 1021480564 1021480564 1201078273 13 #
cone-surface $-1 -1 $-1 0 0.9524999999999999 -36.306124999999994 0 -1 0 1.984375 0 0 1 I I 0 1 1.984375 forward I I I I #
convexity-sys-attrib $-1 -1 $-1 $511 $407 #
coedge $-1 -1 $-1 $641 $642 $643 $584 reversed $637 $-1 #
edge $-1 -1 $-1 $588 -1.5874999999999999 $644 0 $643 $645 forward @7 unknown #
coedge $-1 -1 $-1 $586 $520 $605 $646 reversed $587 $-1 #
coedge $-1 -1 $-1 $520 $585 $647 $648 reversed $587 $-1 #
loop $-1 -1 $-1 $-1 $520 $649 #
vertex $-1 -1 $-1 $648 $650 #
coedge $-1 -1 $-1 $610 $609 $522 $590 forward $536 $-1 #
edge $-1 -1 $-1 $598 1.5759737867003765 $594 2.3587832201450851 $589 $568 forward @7 unknown #
coedge $-1 -1 $-1 $523 $623 $610 $651 reversed $593 $-1 #
coedge $-1 -1 $-1 $652 $653 $654 $524 reversed $655 $-1 #
loop $-1 -1 $-1 $-1 $523 $656 #
vertex $-1 -1 $-1 $651 $657 #
straight-curve $-1 -1 $-1 16.271875000000001 -0.79374999999999996 12.430124999999993 0 -1 0 I I #
coedge $-1 -1 $-1 $613 $525 $609 $658 reversed $597 $-1 #
loop $-1 -1 $-1 $-1 $556 $636 #
vertex $-1 -1 $-1 $590 $659 #
straight-curve $-1 -1 $-1 11.535700373736978 -0.79374999999999996 0.95399617086124877 0 -1 0 I I #
point $-1 -1 $-1 16.271875000000001 -0.79374999999999996 12.430124999999993 #
point $-1 -1 $-1 11.535700373736978 -0.79374999999999996 0.95399617086124877 #
coedge $-1 -1 $-1 $660 $661 $529 $603 forward $575 $-1 #
edge $-1 -1 $-1 $444 0.78280943344470832 $644 2.353605760239605 $602 $445 forward @7 unknown #
coedge $-1 -1 $-1 $662 $530 $661 $663 reversed $606 $-1 #
coedge $-1 -1 $-1 $530 $662 $585 $646 forward $606 $-1 #
loop $-1 -1 $-1 $-1 $530 $664 #
edge $-1 -1 $-1 $531 -12.430124999999993 $665 28.701999999999995 $561 $666 forward @7 unknown #
point $-1 -1 $-1 -16.271875000000001 0.79374999999999996 12.430124999999993 #
coedge $-1 -1 $-1 $589 $534 $596 $658 forward $536 $-1 #
coedge $-1 -1 $-1 $535 $589 $591 $651 forward $536 $-1 #
coedge $-1 -1 $-1 $552 $546 $535 $548 forward $553 $-1 #
face $-1 -1 $-1 $667 $536 $25 $-1 $633 reversed single #
coedge $-1 -1 $-1 $556 $596 $538 $614 reversed $597 $-1 #
edge $-1 -1 $-1 $558 0 $615 1.5874999999999999 $613 $668 forward @7 unknown #
vertex $-1 -1 $-1 $539 $669 #
straight-curve $-1 -1 $-1 7.5473566644901675 0.79374999999999984 -4.5874735994359259 0.13737695226686061 0 0.99051884029828974 I I #
coedge $-1 -1 $-1 $561 $542 $545 $619 reversed $469 $-1 #
coedge $-1 -1 $-1 $545 $544 $570 $630 forward $547 $-1 #
edge $-1 -1 $-1 $665 -16.271875000000001 $456 0 $617 $622 forward @7 unknown #
face $-1 -1 $-1 $664 $547 $25 $-1 $670 reversed single #
vertex $-1 -1 $-1 $625 $671 #
straight-curve $-1 -1 $-1 0 0.79374999999999996 -28.701999999999995 1 0 0 I I #
coedge $-1 -1 $-1 $591 $550 $552 $625 reversed $593 $-1 #
straight-curve $-1 -1 $-1 16.271875000000001 -0.79374999999999996 0 0 0 -1 I I #
edge $-1 -1 $-1 $621 -0.79374999999999996 $554 0.79374999999999996 $623 $672 forward @7 unknown #
face $-1 -1 $-1 $638 $553 $25 $-1 $670 reversed single #
point $-1 -1 $-1 16.271875000000001 -0.79374999999999996 -28.701999999999995 #
ellipse-curve $-1 -1 $-1 22.790042201773083 -0.79374999999999996 -10.242227077079001 0 -1 0 -15.724486589735372 0 2.180859117236416 1 I I #
point $-1 -1 $-1 7.065555612037711 -0.79374999999999996 -8.0613679598425847 #
edge $-1 -1 $-1 $560 -0.79374999999999996 $665 0.79374999999999996 $570 $673 forward @7 unknown #
point $-1 -1 $-1 -16.271875000000001 -0.79374999999999996 -28.701999999999995 #
coedge $-1 -1 $-1 $570 $569 $561 $607 forward $571 $-1 #
plane-surface $-1 -1 $-1 0 0.79374999999999996 0 0 -1 0 0 0 -1 forward_v I I I I #
straight-curve $-1 -1 $-1 -4.7802439232795439 -0.79374999999999996 -24.538981171639872 0 1 0 I I #
point $-1 -1 $-1 -4.7802439232795439 0.79374999999999996 -24.538981171639872 #
face $-1 -1 $-1 $626 $597 $25 $-1 $674 reversed single #
loop $-1 -1 $-1 $-1 $641 $566 #
face $-1 -1 $-1 $463 $571 $25 $-1 $675 reversed single #
face $-1 -1 $-1 $676 $677 $25 $-1 $678 forward single #
loop $-1 -1 $-1 $-1 $679 $574 #
coedge $-1 -1 $-1 $654 $583 $680 $681 reversed $637 $-1 #
coedge $-1 -1 $-1 $583 $654 $679 $682 reversed $637 $-1 #
coedge $-1 -1 $-1 $683 $684 $685 $584 forward $686 $-1 #
vertex $-1 -1 $-1 $687 $688 #
straight-curve $-1 -1 $-1 2.0708258483226464e-015 -0.79374999999999996 28.701999999999995 0 -1 0 I I #
edge $-1 -1 $-1 $689 -28.701999999999995 $531 -12.430124999999993 $585 $666 forward @7 unknown #
coedge $-1 -1 $-1 $690 $685 $586 $648 forward $677 $-1 #
edge $-1 -1 $-1 $588 -2.0708258483226464e-015 $689 16.271875000000001 $586 $691 forward @7 unknown #
face $-1 -1 $-1 $562 $587 $25 $-1 $633 reversed single #
point $-1 -1 $-1 2.0708258483226464e-015 0.79374999999999996 28.701999999999995 #
edge $-1 -1 $-1 $594 -12.430124999999993 $621 28.701999999999995 $591 $692 forward @7 unknown #
coedge $-1 -1 $-1 $693 $592 $694 $695 reversed $655 $-1 #
coedge $-1 -1 $-1 $592 $693 $696 $697 forward $655 $-1 #
coedge $-1 -1 $-1 $642 $641 $438 $524 forward $637 $-1 #
loop $-1 -1 $-1 $-1 $592 $667 #
face $-1 -1 $-1 $-1 $593 $25 $-1 $698 reversed single #
point $-1 -1 $-1 16.271875000000001 0.79374999999999996 12.430124999999993 #
edge $-1 -1 $-1 $615 0 $598 0.64499666363208485 $609 $699 forward @7 unknown #
point $-1 -1 $-1 11.535700373736978 0.79374999999999996 0.95399617086124877 #
coedge $-1 -1 $-1 $661 $602 $700 $701 reversed $575 $-1 #
coedge $-1 -1 $-1 $602 $660 $604 $663 forward $575 $-1 #
coedge $-1 -1 $-1 $605 $604 $690 $702 reversed $606 $-1 #
edge $-1 -1 $-1 $703 -28.701999999999995 $444 -12.430124999999993 $604 $572 forward @7 unknown #
face $-1 -1 $-1 $656 $606 $25 $-1 $675 reversed single #
vertex $-1 -1 $-1 $619 $704 #
straight-curve $-1 -1 $-1 -16.271875000000001 0.79374999999999996 0 0 0 -1 I I #
face $-1 -1 $-1 $705 $655 $25 $-1 $698 reversed single #
straight-curve $-1 -1 $-1 7.065555612037711 -0.79374999999999996 -8.0613679598425847 0 1 0 I I #
point $-1 -1 $-1 7.065555612037711 0.79374999999999996 -8.0613679598425847 #
plane-surface $-1 -1 $-1 0 0 -28.701999999999995 0 0 1 1 0 0 forward_v I I I I #
point $-1 -1 $-1 16.271875000000001 0.79374999999999996 -28.701999999999995 #
straight-curve $-1 -1 $-1 16.271875000000001 0 -28.701999999999995 0 -1 0 I I #
straight-curve $-1 -1 $-1 -16.271875000000001 0 -28.701999999999995 0 1 0 I I #
cone-surface $-1 -1 $-1 22.790042201773083 -0.79374999999999996 -10.242227077079001 0 -1 0 -15.724486589735372 0 2.180859117236416 1 I I 0 -1 15.875000000000025 forward I I I I #
plane-surface $-1 -1 $-1 -16.271875000000001 0 0 1 0 0 0 0 -1 forward_v I I I I #
face $-1 -1 $-1 $649 $706 $25 $-1 $633 reversed single #
loop $-1 -1 $-1 $-1 $685 $639 #
plane-surface $-1 -1 $-1 0 0 28.701999999999995 0 0 1 1 0 0 forward_v I I I I #
coedge $-1 -1 $-1 $696 $707 $642 $682 forward $640 $-1 #
coedge $-1 -1 $-1 $708 $694 $641 $681 forward $706 $-1 #
edge $-1 -1 $-1 $594 2.3587832201450851 $588 3.9295795469399812 $680 $568 forward @7 unknown #
edge $-1 -1 $-1 $644 2.353605760239605 $527 3.9244020870345011 $679 $445 forward @7 unknown #
coedge $-1 -1 $-1 $709 $643 $707 $687 forward $686 $-1 #
coedge $-1 -1 $-1 $643 $709 $708 $710 forward $686 $-1 #
coedge $-1 -1 $-1 $647 $700 $519 $584 reversed $677 $-1 #
loop $-1 -1 $-1 $-1 $643 $705 #
edge $-1 -1 $-1 $644 2.0708258483226464e-015 $711 16.271875000000001 $707 $712 forward @7 unknown #
point $-1 -1 $-1 2.0708258483226464e-015 -0.79374999999999996 28.701999999999995 #
vertex $-1 -1 $-1 $648 $713 #
coedge $-1 -1 $-1 $700 $647 $662 $702 forward $677 $-1 #
straight-curve $-1 -1 $-1 0 0.79374999999999996 28.701999999999995 -1 0 0 I I #
straight-curve $-1 -1 $-1 16.271875000000001 0.79374999999999996 0 0 0 -1 I I #
coedge $-1 -1 $-1 $653 $652 $709 $714 reversed $655 $-1 #
coedge $-1 -1 $-1 $680 $708 $652 $695 forward $706 $-1 #
edge $-1 -1 $-1 $715 -28.701999999999995 $594 -12.430124999999993 $652 $692 forward @7 unknown #
coedge $-1 -1 $-1 $707 $679 $653 $697 reversed $640 $-1 #
edge $-1 -1 $-1 $711 -28.701999999999995 $527 -12.430124999999993 $653 $624 forward @7 unknown #
plane-surface $-1 -1 $-1 16.271875000000001 0 0 -1 0 0 0 0 1 forward_v I I I I #
ellipse-curve $-1 -1 $-1 22.790042201773083 0.79374999999999996 -10.242227077079001 0 1 0 -15.724486589735372 0 2.180859117236416 1 I I #
coedge $-1 -1 $-1 $685 $690 $660 $701 forward $677 $-1 #
edge $-1 -1 $-1 $703 -16.271875000000001 $644 2.0708258483226464e-015 $660 $712 forward @7 unknown #
edge $-1 -1 $-1 $689 -0.79374999999999996 $703 0.79374999999999996 $662 $716 forward @7 unknown #
vertex $-1 -1 $-1 $702 $717 #
point $-1 -1 $-1 -16.271875000000001 0.79374999999999996 -28.701999999999995 #
face $-1 -1 $-1 $620 $686 $25 $-1 $678 forward single #
loop $-1 -1 $-1 $-1 $680 $676 #
coedge $-1 -1 $-1 $679 $696 $683 $687 reversed $640 $-1 #
coedge $-1 -1 $-1 $694 $680 $684 $710 reversed $706 $-1 #
coedge $-1 -1 $-1 $684 $683 $693 $714 forward $686 $-1 #
edge $-1 -1 $-1 $715 -16.271875000000001 $588 -2.0708258483226464e-015 $708 $691 forward @7 unknown #
vertex $-1 -1 $-1 $714 $718 #
straight-curve $-1 -1 $-1 0 -0.79374999999999996 28.701999999999995 1 0 0 I I #
point $-1 -1 $-1 -16.271875000000001 0.79374999999999996 28.701999999999995 #
edge $-1 -1 $-1 $711 -0.79374999999999996 $715 0.79374999999999996 $693 $719 forward @7 unknown #
vertex $-1 -1 $-1 $714 $720 #
straight-curve $-1 -1 $-1 -16.271875000000001 0 28.701999999999995 0 -1 0 I I #
point $-1 -1 $-1 -16.271875000000001 -0.79374999999999996 28.701999999999995 #
point $-1 -1 $-1 16.271875000000001 -0.79374999999999996 28.701999999999995 #
straight-curve $-1 -1 $-1 16.271875000000001 0 28.701999999999995 0 1 0 I I #
point $-1 -1 $-1 16.271875000000001 0.79374999999999996 28.701999999999995 #
End-of-ACIS-data 