700 0 2 0           
24 FBMach with ACIS - 7.0.3 13 ACIS 7.0.3 NT 24 Wed May 15 11:39:11 2002 
1 9.9999999999999995e-007 1e-010 
body $2 -1 $-1 $3 $-1 $4 #
bdycol-kcp $-1 -1 1 3 $5 $6 $7 #
model_id-kcp-attrib $-1 -1 $-1 $-1 $0 1 1021477150 1021477151 -1407320063 1 #
lump $-1 -1 $-1 $-1 $8 $0 #
transform $-1 -1 1 0 0 0 1 0 0 0 1 0 0 0 1 rotate no_reflect no_shear #
body $9 -1 $-1 $10 $-1 $11 #
body $12 -1 $-1 $13 $-1 $14 #
body $15 -1 $-1 $16 $-1 $17 #
shell $-1 -1 $-1 $-1 $-1 $18 $-1 $3 #
model_id-kcp-attrib $-1 -1 $-1 $-1 $5 1 1021477150 1021477151 -1407320062 1 #
lump $-1 -1 $-1 $-1 $19 $5 #
transform $-1 -1 1 0 0 0 1 0 0 0 1 -4.4408920985006262e-016 3.1876999999999986 0 1 no_rotate no_reflect no_shear #
rgb_color-st-attrib $-1 -1 $20 $-1 $6 1 0 0 #
lump $-1 -1 $-1 $-1 $21 $6 #
transform $-1 -1 1 0 0 0 -3.8285889215894375e-016 -1 0 1 -3.8285889215894375e-016 -1.7763568394002505e-015 15.705839244640154 -3.8481853156103361e-015 1 rotate no_reflect no_shear #
rgb_color-st-attrib $-1 -1 $22 $-1 $7 0.5 0.5 1 #
lump $-1 -1 $-1 $-1 $23 $7 #
transform $-1 -1 1 0 0 0 1 0 0 0 1 -4.4408920985006262e-016 3.1876999999999986 0 1 no_rotate no_reflect no_shear #
face $24 -1 $-1 $25 $26 $8 $-1 $27 forward single #
shell $-1 -1 $-1 $-1 $-1 $28 $-1 $10 #
model_id-kcp-attrib $-1 -1 $-1 $12 $6 1 1021477150 1021477151 -1402404860 1 #
shell $-1 -1 $-1 $-1 $-1 $29 $-1 $13 #
model_id-kcp-attrib $-1 -1 $-1 $15 $7 1 1021477150 1021477151 -1400700925 1 #
shell $-1 -1 $-1 $-1 $-1 $30 $-1 $16 #
model_id-kcp-attrib $-1 -1 $-1 $-1 $18 1 1021477150 1021477151 -1407320063 2 #
face $31 -1 $-1 $32 $33 $8 $-1 $34 forward single #
loop $-1 -1 $-1 $-1 $35 $18 #
plane-surface $-1 -1 $-1 0 0 0 0 -1 0 -25.399999999999999 0 0 forward_v I I I I #
face $-1 -1 $-1 $36 $37 $19 $-1 $38 forward single #
face $-1 -1 $-1 $39 $40 $21 $-1 $41 reversed single #
face $-1 -1 $-1 $42 $43 $23 $-1 $44 reversed single #
model_id-kcp-attrib $-1 -1 $-1 $-1 $25 1 1021477150 1021477151 -1407320063 3 #
face $45 -1 $-1 $46 $47 $8 $-1 $48 forward single #
loop $-1 -1 $-1 $-1 $49 $25 #
cone-surface $-1 -1 $-1 0 24.336374999999997 0 0 -1 0 -25.399999999999963 0 0 1 I I -0.70710678118654702 0.70710678118654802 25.399999999999963 forward I I I I #
coedge $-1 -1 $-1 $50 $50 $51 $52 forward $26 $-1 #
face $-1 -1 $-1 $53 $54 $19 $-1 $55 reversed single #
loop $-1 -1 $-1 $-1 $56 $28 #
plane-surface $-1 -1 $-1 0 0 2.7781249999999997 0 0 1 1 0 0 forward_v I I I I #
face $-1 -1 $-1 $57 $58 $21 $-1 $59 forward single #
loop $-1 -1 $-1 $-1 $60 $29 #
plane-surface $-1 -1 $-1 2.777275272541436 9.4449560748399072e-016 -12.518139244640157 -1 0 0 0 -1 -3.8285889215894375e-016 forward_v I I I I #
face $-1 -1 $-1 $61 $62 $23 $-1 $63 reversed single #
loop $-1 -1 $-1 $-1 $64 $30 #
plane-surface $-1 -1 $-1 4.4408920985006262e-016 3.1623000000000001 1.5795624999999995 0 1 0 -1 0 0 forward_v I I I I #
model_id-kcp-attrib $-1 -1 $-1 $-1 $32 1 1021477150 1021477151 -1407320063 4 #
face $65 -1 $-1 $66 $67 $8 $-1 $68 forward single #
loop $-1 -1 $-1 $-1 $69 $32 #
cone-surface $-1 -1 $-1 0 24.336374999999997 0 0 -1 0 -25.399999999999963 0 0 1 I I -0.70710678118654702 0.70710678118654802 25.399999999999963 forward I I I I #
coedge $-1 -1 $-1 $51 $70 $71 $72 forward $33 $-1 #
coedge $-1 -1 $-1 $35 $35 $73 $74 reversed $26 $-1 #
coedge $-1 -1 $-1 $75 $49 $35 $52 reversed $33 $-1 #
edge $76 -1 $-1 $77 0 $78 3.14159265358979 $35 $79 forward @7 unknown #
face $80 -1 $-1 $81 $82 $19 $-1 $83 reversed single #
loop $-1 -1 $-1 $-1 $84 $36 #
plane-surface $-1 -1 $-1 0 0 -2.7781249999999997 0 0 1 1 0 0 forward_v I I I I #
coedge $-1 -1 $-1 $85 $86 $87 $88 forward $37 $-1 #
face $-1 -1 $-1 $89 $90 $21 $-1 $91 reversed single #
loop $-1 -1 $-1 $-1 $92 $39 #
plane-surface $-1 -1 $-1 1.7763568394002505e-015 -1.5795624999999998 -9.3558392446401566 0 -3.8285889215894375e-016 1 -1 0 0 forward_v I I I I #
coedge $-1 -1 $-1 $93 $94 $95 $96 forward $40 $-1 #
face $-1 -1 $-1 $97 $98 $23 $-1 $99 reversed single #
loop $-1 -1 $-1 $-1 $100 $42 #
plane-surface $-1 -1 $-1 2.7772752725414347 0 0 -1 0 0 0 0 1 forward_v I I I I #
coedge $-1 -1 $-1 $101 $102 $103 $104 forward $43 $-1 #
model_id-kcp-attrib $-1 -1 $-1 $-1 $46 1 1021477150 1021477151 -1407320063 5 #
face $105 -1 $-1 $106 $107 $8 $-1 $108 forward single #
loop $-1 -1 $-1 $-1 $109 $46 #
cone-surface $-1 -1 $-1 0 6.6674999999999986 0 0 -1 0 -1.1906249999999998 0 0 1 I I 0 1 1.1906249999999998 forward I I I I #
coedge $-1 -1 $-1 $73 $110 $75 $111 forward $47 $-1 #
coedge $-1 -1 $-1 $49 $75 $112 $113 forward $33 $-1 #
coedge $-1 -1 $-1 $110 $73 $49 $72 reversed $47 $-1 #
edge $-1 -1 $-1 $114 3.8951549360615515e-031 $78 0.0070710678118653192 $49 $115 forward @7 unknown #
coedge $-1 -1 $-1 $71 $69 $50 $74 forward $47 $-1 #
edge $116 -1 $-1 $77 0 $78 3.1415926535897967 $50 $117 forward @7 unknown #
coedge $-1 -1 $-1 $70 $51 $69 $111 reversed $33 $-1 #
attrib_edge_convexity-kcp-attrib $-1 -1 $118 $-1 $52 1 #
vertex $-1 -1 $-1 $74 $119 #
vertex $-1 -1 $-1 $74 $120 #
ellipse-curve $-1 -1 $-1 4.4061976289810898e-017 0 0 2.6512788647764863e-015 -1 3.2467729435602696e-031 1.0636250000000027 2.8199664825478975e-015 1.3025219330843313e-016 1 I I #
model_id-kcp-attrib $-1 -1 $-1 $-1 $53 1 1021477150 1021477151 -1407320062 2 #
face $-1 -1 $-1 $121 $122 $19 $-1 $123 reversed single #
loop $-1 -1 $-1 $-1 $124 $53 #
plane-surface $-1 -1 $-1 0 -3.1877000000000013 0 0 1 0 0 0 1 forward_v I I I I #
coedge $-1 -1 $-1 $125 $126 $127 $128 forward $54 $-1 #
coedge $-1 -1 $-1 $129 $56 $130 $131 forward $37 $-1 #
coedge $-1 -1 $-1 $56 $129 $132 $133 forward $37 $-1 #
coedge $-1 -1 $-1 $134 $135 $56 $88 reversed $136 $-1 #
edge $-1 -1 $-1 $137 -3.1877000000000013 $138 3.1877000000000013 $87 $139 forward @7 unknown #
face $-1 -1 $-1 $140 $141 $21 $-1 $142 reversed single #
loop $-1 -1 $-1 $-1 $143 $57 #
plane-surface $-1 -1 $-1 -2.7772752725414334 9.4449560748399072e-016 -12.518139244640157 1 0 0 0 1 3.8285889215894375e-016 forward_v I I I I #
coedge $-1 -1 $-1 $144 $145 $146 $147 forward $58 $-1 #
coedge $-1 -1 $-1 $148 $60 $149 $150 forward $40 $-1 #
coedge $-1 -1 $-1 $60 $148 $144 $151 forward $40 $-1 #
coedge $-1 -1 $-1 $146 $152 $60 $96 reversed $153 $-1 #
edge $-1 -1 $-1 $154 3.0967696223200782 $155 3.8587696223200787 $95 $156 forward @7 unknown #
face $-1 -1 $-1 $157 $158 $23 $-1 $159 forward single #
loop $-1 -1 $-1 $-1 $103 $61 #
plane-surface $-1 -1 $-1 0 0 -2.7781249999999997 0 0 1 1 0 0 forward_v I I I I #
coedge $-1 -1 $-1 $160 $161 $101 $162 reversed $62 $-1 #
coedge $-1 -1 $-1 $163 $64 $100 $162 forward $43 $-1 #
coedge $-1 -1 $-1 $64 $163 $164 $165 forward $43 $-1 #
coedge $-1 -1 $-1 $166 $167 $64 $104 reversed $98 $-1 #
edge $168 -1 $-1 $169 -2.7772752725414351 $170 2.7772752725414342 $103 $171 forward @7 unknown #
model_id-kcp-attrib $-1 -1 $-1 $-1 $66 1 1021477150 1021477151 -1407320063 6 #
face $172 -1 $-1 $173 $174 $8 $-1 $175 forward single #
loop $-1 -1 $-1 $-1 $176 $66 #
cone-surface $-1 -1 $-1 0 6.6674999999999986 0 0 -1 0 -1.1906249999999998 0 0 1 I I 0 1 1.1906249999999998 forward I I I I #
coedge $-1 -1 $-1 $177 $178 $110 $179 forward $67 $-1 #
coedge $-1 -1 $-1 $69 $71 $109 $179 reversed $47 $-1 #
edge $-1 -1 $-1 $180 0 $77 0.0070710678118653192 $75 $181 forward @7 unknown #
coedge $-1 -1 $-1 $182 $183 $70 $113 reversed $107 $-1 #
edge $-1 -1 $-1 $180 0 $114 3.1415926535897931 $112 $184 forward @7 unknown #
vertex $-1 -1 $-1 $113 $185 #
straight-curve $-1 -1 $-1 -1.1906249999999998 0.12700000000000011 3.9383403358178925e-015 17.960512242138307 -17.960512242138307 -5.9409646038982347e-014 I I #
attrib_edge_convexity-kcp-attrib $-1 -1 $186 $-1 $74 1 #
ellipse-curve $-1 -1 $-1 0 0 -8.8123952579621795e-017 -2.6512788647764863e-015 1 -5.4434228244385493e-031 1.0636250000000027 2.8199664825478975e-015 2.1837614588805493e-016 1 I I #
convexity-sys-attrib $-1 -1 $-1 $76 $52 #
point $-1 -1 $-1 1.0636250000000027 2.8199664825478975e-015 1.3025219330843313e-016 #
point $-1 -1 $-1 -1.0636250000000027 2.8199664825478975e-015 3.5182506999973323e-015 #
face $-1 -1 $-1 $187 $188 $19 $-1 $189 reversed single #
loop $-1 -1 $-1 $-1 $190 $81 #
plane-surface $-1 -1 $-1 -2.7772752725414347 0 0 1 0 0 0 0 -1 forward_v I I I I #
coedge $-1 -1 $-1 $191 $132 $192 $193 forward $82 $-1 #
coedge $-1 -1 $-1 $194 $84 $191 $195 forward $54 $-1 #
coedge $-1 -1 $-1 $84 $194 $196 $197 forward $54 $-1 #
coedge $-1 -1 $-1 $135 $134 $84 $128 reversed $136 $-1 #
edge $-1 -1 $-1 $198 -3.1877000000000013 $199 3.1877000000000013 $127 $200 forward @7 unknown #
coedge $-1 -1 $-1 $86 $85 $201 $202 forward $37 $-1 #
coedge $-1 -1 $-1 $203 $204 $85 $131 reversed $188 $-1 #
edge $-1 -1 $-1 $138 -2.7772752725414347 $205 2.7772752725414347 $130 $206 forward @7 unknown #
coedge $-1 -1 $-1 $124 $207 $86 $133 reversed $82 $-1 #
edge $-1 -1 $-1 $208 -2.7772752725414347 $137 2.7772752725414347 $132 $209 forward @7 unknown #
coedge $-1 -1 $-1 $127 $87 $207 $210 forward $136 $-1 #
coedge $-1 -1 $-1 $87 $127 $203 $211 reversed $136 $-1 #
loop $-1 -1 $-1 $-1 $134 $187 #
vertex $-1 -1 $-1 $88 $212 #
vertex $-1 -1 $-1 $88 $213 #
straight-curve $-1 -1 $-1 2.7772752725414347 0 2.7781249999999997 0 1 0 I I #
face $-1 -1 $-1 $214 $215 $21 $-1 $216 reversed single #
loop $-1 -1 $-1 $-1 $217 $89 #
plane-surface $-1 -1 $-1 0 0 -10.117839244640153 0 0 1 1 0 0 forward_v I I I I #
coedge $-1 -1 $-1 $218 $219 $220 $221 forward $90 $-1 #
coedge $-1 -1 $-1 $222 $92 $94 $151 reversed $58 $-1 #
coedge $-1 -1 $-1 $92 $222 $218 $223 reversed $58 $-1 #
coedge $-1 -1 $-1 $220 $95 $92 $147 reversed $153 $-1 #
edge $-1 -1 $-1 $224 -2.7772752725414342 $154 2.7772752725414351 $146 $225 forward @7 unknown #
coedge $-1 -1 $-1 $94 $93 $226 $227 forward $40 $-1 #
coedge $-1 -1 $-1 $228 $229 $93 $150 reversed $141 $-1 #
edge $230 -1 $-1 $155 -0.38100000000000045 $231 0.38099999999999945 $149 $232 forward @7 unknown #
edge $-1 -1 $-1 $233 -1.1707812499999999 $154 -0.40878125000000004 $94 $234 forward @7 unknown #
coedge $-1 -1 $-1 $95 $220 $228 $235 reversed $153 $-1 #
loop $-1 -1 $-1 $-1 $152 $214 #
vertex $-1 -1 $-1 $147 $236 #
vertex $-1 -1 $-1 $235 $237 #
straight-curve $-1 -1 $-1 2.777275272541436 -0.38099999999999995 -6.2590696223200784 0 0 -1 I I #
face $-1 -1 $-1 $238 $239 $23 $-1 $240 reversed single #
loop $-1 -1 $-1 $-1 $241 $97 #
plane-surface $-1 -1 $-1 0 0 2.7781249999999997 0 0 1 1 0 0 forward_v I I I I #
coedge $-1 -1 $-1 $242 $100 $167 $243 reversed $62 $-1 #
coedge $-1 -1 $-1 $100 $242 $244 $245 reversed $62 $-1 #
edge $246 -1 $-1 $170 -3.5679062499999996 $247 1.9883437499999999 $100 $248 forward @7 unknown #
coedge $-1 -1 $-1 $102 $101 $241 $249 forward $43 $-1 #
coedge $-1 -1 $-1 $250 $251 $102 $165 reversed $239 $-1 #
edge $252 -1 $-1 $253 -1.9883437499999999 $169 3.5679062499999996 $164 $254 forward @7 unknown #
coedge $-1 -1 $-1 $255 $103 $251 $256 forward $98 $-1 #
coedge $-1 -1 $-1 $103 $255 $160 $243 forward $98 $-1 #
convexity-sys-attrib $-1 -1 $-1 $-1 $104 #
vertex $-1 -1 $-1 $256 $257 #
vertex $-1 -1 $-1 $104 $258 #
straight-curve $-1 -1 $-1 2.2204460492503131e-016 3.1623000000000001 -2.7781249999999997 1 0 0 I I #
model_id-kcp-attrib $-1 -1 $-1 $-1 $106 1 1021477150 1021477151 -1407320063 7 #
face $259 -1 $-1 $260 $261 $8 $-1 $262 reversed single #
loop $-1 -1 $-1 $-1 $263 $106 #
cone-surface $-1 -1 $-1 0 28.971874999999997 0 0 -1 0 -25.399999999999995 0 0 1 I I -0.70710678118654746 0.70710678118654757 25.399999999999995 forward I I I I #
coedge $-1 -1 $-1 $183 $182 $264 $265 forward $107 $-1 #
coedge $-1 -1 $-1 $266 $109 $183 $267 forward $67 $-1 #
coedge $-1 -1 $-1 $109 $266 $182 $268 reversed $67 $-1 #
edge $-1 -1 $-1 $180 0 $114 3.1415926535897931 $109 $269 forward @7 unknown #
vertex $-1 -1 $-1 $268 $270 #
straight-curve $-1 -1 $-1 1.1906249999999998 0.12700000000000011 1.4580469400197678e-016 -17.960512242138307 -17.960512242138307 -2.1994557409626888e-015 I I #
coedge $-1 -1 $-1 $176 $112 $178 $268 forward $107 $-1 #
coedge $-1 -1 $-1 $112 $176 $177 $267 reversed $107 $-1 #
ellipse-curve $-1 -1 $-1 8.8123952579621795e-017 0.12700000000000011 -4.4061976289810898e-017 0 -1 0 1.1906249999999998 0 1.8986667029178769e-016 1 I I #
point $-1 -1 $-1 -1.1906249999999998 0.12700000000000011 -2.9160938800395356e-016 #
convexity-sys-attrib $-1 -1 $-1 $116 $74 #
face $-1 -1 $-1 $-1 $136 $19 $-1 $271 reversed single #
loop $-1 -1 $-1 $-1 $203 $121 #
plane-surface $-1 -1 $-1 0 3.1877000000000013 0 0 -1 0 0 0 -1 forward_v I I I I #
coedge $-1 -1 $-1 $272 $201 $204 $273 forward $122 $-1 #
coedge $-1 -1 $-1 $207 $124 $125 $195 reversed $82 $-1 #
coedge $-1 -1 $-1 $201 $272 $124 $193 reversed $122 $-1 #
edge $-1 -1 $-1 $208 -2.7781249999999997 $274 2.7781249999999997 $192 $275 forward @7 unknown #
coedge $-1 -1 $-1 $126 $125 $272 $276 forward $54 $-1 #
edge $-1 -1 $-1 $199 -2.7772752725414347 $274 2.7772752725414347 $191 $277 forward @7 unknown #
coedge $-1 -1 $-1 $204 $203 $126 $197 reversed $188 $-1 #
edge $-1 -1 $-1 $278 -2.7772752725414347 $198 2.7772752725414347 $196 $279 forward @7 unknown #
vertex $-1 -1 $-1 $128 $280 #
vertex $-1 -1 $-1 $210 $281 #
straight-curve $-1 -1 $-1 2.7772752725414347 0 -2.7781249999999997 0 -1 0 I I #
coedge $-1 -1 $-1 $190 $192 $129 $202 reversed $122 $-1 #
edge $-1 -1 $-1 $205 -3.1877000000000013 $208 3.1877000000000013 $201 $282 forward @7 unknown #
coedge $-1 -1 $-1 $196 $130 $135 $211 forward $188 $-1 #
coedge $-1 -1 $-1 $130 $196 $190 $273 reversed $188 $-1 #
vertex $-1 -1 $-1 $131 $283 #
straight-curve $-1 -1 $-1 0 3.1877000000000013 2.7781249999999997 -1 0 0 I I #
coedge $-1 -1 $-1 $132 $191 $134 $210 reversed $82 $-1 #
vertex $-1 -1 $-1 $202 $284 #
straight-curve $-1 -1 $-1 0 -3.1877000000000013 2.7781249999999997 1 0 0 I I #
edge $-1 -1 $-1 $137 -2.7781249999999997 $199 2.7781249999999997 $134 $285 forward @7 unknown #
edge $-1 -1 $-1 $138 -2.7781249999999997 $198 2.7781249999999997 $135 $286 forward @7 unknown #
point $-1 -1 $-1 2.7772752725414347 -3.1877000000000013 2.7781249999999997 #
point $-1 -1 $-1 2.7772752725414347 3.1877000000000013 2.7781249999999997 #
face $-1 -1 $-1 $-1 $153 $21 $-1 $287 reversed single #
loop $-1 -1 $-1 $-1 $288 $140 #
plane-surface $-1 -1 $-1 0 0.38099999999999995 0 0 -1 0 0 0 -1 forward_v I I I I #
coedge $-1 -1 $-1 $229 $228 $219 $289 reversed $141 $-1 #
coedge $-1 -1 $-1 $290 $143 $145 $223 forward $90 $-1 #
coedge $-1 -1 $-1 $143 $290 $217 $289 forward $90 $-1 #
coedge $-1 -1 $-1 $152 $146 $143 $221 reversed $153 $-1 #
edge $-1 -1 $-1 $291 -3.8587696223200787 $224 -3.0967696223200782 $220 $292 forward @7 unknown #
coedge $-1 -1 $-1 $145 $144 $288 $293 forward $58 $-1 #
edge $-1 -1 $-1 $224 0.40878125000000004 $294 1.1707812499999999 $218 $295 forward @7 unknown #
vertex $-1 -1 $-1 $147 $296 #
straight-curve $-1 -1 $-1 8.8817841970012523e-016 -0.38099999999999989 -9.3558392446401566 1 0 0 I I #
coedge $-1 -1 $-1 $297 $288 $148 $227 reversed $215 $-1 #
edge $-1 -1 $-1 $231 -3.8587696223200787 $233 -3.0967696223200782 $226 $298 forward @7 unknown #
coedge $-1 -1 $-1 $217 $149 $152 $235 forward $141 $-1 #
coedge $-1 -1 $-1 $149 $217 $297 $299 forward $141 $-1 #
convexity-sys-attrib $-1 -1 $-1 $-1 $150 #
vertex $-1 -1 $-1 $227 $300 #
straight-curve $-1 -1 $-1 2.777275272541436 4.7224780374199536e-016 -10.117839244640153 0 1 0 I I #
vertex $-1 -1 $-1 $293 $301 #
straight-curve $-1 -1 $-1 2.777275272541436 -0.78978124999999999 -9.3558392446401566 0 -1 -3.8285889215894375e-016 I I #
edge $302 -1 $-1 $155 -2.777275272541436 $291 2.7772752725414334 $152 $303 forward @7 unknown #
point $-1 -1 $-1 2.777275272541436 -0.38099999999999995 -9.3558392446401566 #
point $-1 -1 $-1 2.777275272541436 -0.38099999999999995 -10.117839244640157 #
face $-1 -1 $-1 $-1 $304 $23 $-1 $305 reversed single #
loop $-1 -1 $-1 $-1 $164 $157 #
plane-surface $-1 -1 $-1 -2.7772752725414347 0 0 1 0 0 0 0 -1 forward_v I I I I #
coedge $-1 -1 $-1 $244 $306 $163 $249 reversed $158 $-1 #
coedge $-1 -1 $-1 $161 $160 $307 $308 reversed $62 $-1 #
edge $-1 -1 $-1 $309 -3.1877000000000013 $170 -3.1623000000000001 $160 $310 forward @7 unknown #
coedge $-1 -1 $-1 $311 $241 $161 $245 forward $158 $-1 #
edge $-1 -1 $-1 $247 3.1623000000000001 $312 3.1877000000000013 $161 $313 forward @7 unknown #
convexity-sys-attrib $-1 -1 $-1 $-1 $162 #
vertex $-1 -1 $-1 $245 $314 #
straight-curve $-1 -1 $-1 2.7772752725414347 3.1623000000000001 0.78978124999999977 0 0 1 I I #
edge $315 -1 $-1 $247 -2.7772752725414342 $253 2.7772752725414351 $241 $316 forward @7 unknown #
coedge $-1 -1 $-1 $317 $164 $306 $318 reversed $239 $-1 #
coedge $-1 -1 $-1 $164 $317 $166 $256 reversed $239 $-1 #
convexity-sys-attrib $-1 -1 $-1 $-1 $165 #
vertex $-1 -1 $-1 $165 $319 #
straight-curve $-1 -1 $-1 -2.7772752725414347 3.1623000000000001 0.78978124999999977 0 0 -1 I I #
coedge $-1 -1 $-1 $167 $166 $320 $321 forward $98 $-1 #
edge $-1 -1 $-1 $169 3.1623000000000001 $322 3.1877000000000013 $251 $323 forward @7 unknown #
point $-1 -1 $-1 -2.7772752725414347 3.1623000000000001 -2.7781249999999997 #
point $-1 -1 $-1 2.7772752725414347 3.1623000000000001 -2.7781249999999997 #
model_id-kcp-attrib $-1 -1 $-1 $-1 $173 1 1021477150 1021477151 -1407320063 8 #
face $324 -1 $-1 $325 $326 $8 $-1 $327 reversed single #
loop $-1 -1 $-1 $-1 $328 $173 #
plane-surface $-1 -1 $-1 0 6.3499999999999996 0 0 -1 0 -25.399999999999999 0 0 forward_v I I I I #
coedge $-1 -1 $-1 $329 $330 $328 $331 forward $174 $-1 #
coedge $-1 -1 $-1 $332 $333 $176 $265 reversed $174 $-1 #
edge $-1 -1 $-1 $334 2.0868042215530887e-031 $335 3.1415926535897931 $176 $336 forward @7 unknown #
coedge $-1 -1 $-1 $178 $177 $337 $338 reversed $67 $-1 #
edge $-1 -1 $-1 $114 0 $335 0.18250000000000013 $183 $339 forward @7 unknown #
edge $-1 -1 $-1 $180 0 $334 0.18249999999999997 $182 $340 forward @7 unknown #
ellipse-curve $-1 -1 $-1 -4.4061976289810898e-017 0.12700000000000011 8.8123952579621795e-017 0 1 0 1.1906249999999998 0 5.7680741422354987e-017 1 I I #
point $-1 -1 $-1 1.1906249999999998 0.12700000000000011 1.4580469400197678e-016 #
plane-surface $-1 -1 $-1 2.7772752725414347 0 0 -1 0 0 0 0 1 forward_v I I I I #
coedge $-1 -1 $-1 $192 $190 $194 $276 reversed $122 $-1 #
edge $-1 -1 $-1 $205 -2.7781249999999997 $278 2.7781249999999997 $204 $341 forward @7 unknown #
vertex $-1 -1 $-1 $276 $342 #
straight-curve $-1 -1 $-1 -2.7772752725414347 -3.1877000000000013 0 0 0 -1 I I #
edge $-1 -1 $-1 $274 -3.1877000000000013 $278 3.1877000000000013 $272 $343 forward @7 unknown #
straight-curve $-1 -1 $-1 0 -3.1877000000000013 -2.7781249999999997 -1 0 0 I I #
vertex $-1 -1 $-1 $197 $344 #
straight-curve $-1 -1 $-1 0 3.1877000000000013 -2.7781249999999997 1 0 0 I I #
point $-1 -1 $-1 2.7772752725414347 3.1877000000000013 -2.7781249999999997 #
point $-1 -1 $-1 2.7772752725414347 -3.1877000000000013 -2.7781249999999997 #
straight-curve $-1 -1 $-1 -2.7772752725414347 0 2.7781249999999997 0 -1 0 I I #
point $-1 -1 $-1 -2.7772752725414347 3.1877000000000013 2.7781249999999997 #
point $-1 -1 $-1 -2.7772752725414347 -3.1877000000000013 2.7781249999999997 #
straight-curve $-1 -1 $-1 2.7772752725414347 -3.1877000000000013 0 0 0 -1 I I #
straight-curve $-1 -1 $-1 2.7772752725414347 3.1877000000000013 0 0 0 -1 I I #
plane-surface $-1 -1 $-1 0 -0.38099999999999995 0 0 1 0 0 0 1 forward_v I I I I #
coedge $-1 -1 $-1 $226 $345 $222 $293 reversed $215 $-1 #
edge $346 -1 $-1 $347 -0.38099999999999945 $291 0.38100000000000045 $217 $348 forward @7 unknown #
coedge $-1 -1 $-1 $219 $218 $345 $349 forward $90 $-1 #
vertex $-1 -1 $-1 $289 $350 #
straight-curve $-1 -1 $-1 -2.7772752725414334 -0.38099999999999995 -6.2590696223200784 0 0 1 I I #
edge $-1 -1 $-1 $233 -2.7772752725414351 $294 2.7772752725414342 $288 $351 forward @7 unknown #
vertex $-1 -1 $-1 $293 $352 #
straight-curve $-1 -1 $-1 -2.7772752725414334 -0.78978124999999999 -9.3558392446401566 0 1 3.8285889215894375e-016 I I #
point $-1 -1 $-1 -2.7772752725414334 -0.38099999999999995 -9.3558392446401566 #
coedge $-1 -1 $-1 $345 $226 $229 $299 reversed $215 $-1 #
straight-curve $-1 -1 $-1 2.777275272541436 0.38099999999999995 -6.2590696223200784 0 0 1 I I #
edge $353 -1 $-1 $347 -2.7772752725414334 $231 2.777275272541436 $297 $354 forward @7 unknown #
point $-1 -1 $-1 2.777275272541436 0.38099999999999995 -10.117839244640157 #
point $-1 -1 $-1 2.777275272541436 0.38099999999999989 -9.3558392446401566 #
convexity-sys-attrib $-1 -1 $-1 $-1 $235 #
straight-curve $-1 -1 $-1 0 -0.38099999999999995 -10.117839244640153 -1 0 0 I I #
loop $-1 -1 $-1 $-1 $307 $238 #
plane-surface $-1 -1 $-1 0 3.1877000000000013 0 0 -1 0 0 0 -1 forward_v I I I I #
coedge $-1 -1 $-1 $241 $311 $250 $318 forward $158 $-1 #
coedge $-1 -1 $-1 $320 $355 $242 $308 forward $304 $-1 #
edge $-1 -1 $-1 $312 -2.7781249999999997 $309 2.7781249999999997 $242 $356 forward @7 unknown #
vertex $-1 -1 $-1 $243 $357 #
straight-curve $-1 -1 $-1 2.7772752725414347 0 -2.7781249999999997 0 -1 0 I I #
coedge $-1 -1 $-1 $306 $244 $355 $358 forward $158 $-1 #
vertex $-1 -1 $-1 $245 $359 #
straight-curve $-1 -1 $-1 2.7772752725414347 0 2.7781249999999997 0 1 0 I I #
point $-1 -1 $-1 2.7772752725414347 3.1623000000000001 2.7781249999999997 #
convexity-sys-attrib $-1 -1 $-1 $-1 $249 #
straight-curve $-1 -1 $-1 2.2204460492503131e-016 3.1623000000000001 2.7781249999999997 -1 0 0 I I #
coedge $-1 -1 $-1 $251 $250 $360 $361 forward $239 $-1 #
edge $-1 -1 $-1 $362 -3.1877000000000013 $253 -3.1623000000000001 $250 $363 forward @7 unknown #
point $-1 -1 $-1 -2.7772752725414347 3.1623000000000001 2.7781249999999997 #
coedge $-1 -1 $-1 $360 $307 $255 $321 reversed $304 $-1 #
edge $-1 -1 $-1 $322 -2.7772752725414347 $309 2.7772752725414347 $320 $364 forward @7 unknown #
vertex $-1 -1 $-1 $321 $365 #
straight-curve $-1 -1 $-1 -2.7772752725414347 0 -2.7781249999999997 0 1 0 I I #
model_id-kcp-attrib $-1 -1 $-1 $-1 $260 1 1021477150 1021477151 -1407320063 9 #
face $366 -1 $-1 $367 $368 $8 $-1 $369 reversed single #
loop $-1 -1 $-1 $-1 $370 $260 #
plane-surface $-1 -1 $-1 3.3337499999999993 6.3499999999999996 0.38099999999999995 0 0 1 0 -25.399999999999999 0 forward_v I I I I #
coedge $-1 -1 $-1 $371 $371 $263 $331 reversed $261 $-1 #
coedge $-1 -1 $-1 $372 $263 $373 $374 reversed $174 $-1 #
coedge $-1 -1 $-1 $263 $375 $376 $377 reversed $174 $-1 #
edge $378 -1 $-1 $379 2.8769787901780687e-017 $380 2.866439777946725 $263 $381 forward @7 unknown #
coedge $-1 -1 $-1 $375 $264 $382 $383 forward $174 $-1 #
coedge $-1 -1 $-1 $264 $372 $384 $385 reversed $174 $-1 #
vertex $-1 -1 $-1 $268 $386 #
vertex $-1 -1 $-1 $267 $387 #
ellipse-curve $-1 -1 $-1 0 4.7625000000000028 4.4061976289810898e-017 0 -1 0 1.1906250000000027 0 1.0174271771216588e-016 1 I I #
coedge $-1 -1 $-1 $384 $382 $266 $338 forward $388 $-1 #
edge $-1 -1 $-1 $334 -3.8258077395139957e-031 $335 3.1415926535897931 $266 $389 forward @7 unknown #
straight-curve $-1 -1 $-1 -1.1906249999999998 0.12700000000000011 -2.9160938800395356e-016 0 25.399999999999999 0 I I #
straight-curve $-1 -1 $-1 1.1906249999999998 0.12700000000000011 1.4580469400197678e-016 0 25.399999999999999 0 I I #
straight-curve $-1 -1 $-1 -2.7772752725414347 3.1877000000000013 0 0 0 -1 I I #
point $-1 -1 $-1 -2.7772752725414347 -3.1877000000000013 -2.7781249999999997 #
straight-curve $-1 -1 $-1 -2.7772752725414347 0 -2.7781249999999997 0 1 0 I I #
point $-1 -1 $-1 -2.7772752725414347 3.1877000000000013 -2.7781249999999997 #
coedge $-1 -1 $-1 $288 $297 $290 $349 reversed $215 $-1 #
convexity-sys-attrib $-1 -1 $-1 $-1 $289 #
vertex $-1 -1 $-1 $299 $390 #
straight-curve $-1 -1 $-1 -2.7772752725414334 4.7224780374199536e-016 -10.117839244640153 0 -1 0 I I #
edge $-1 -1 $-1 $294 3.0967696223200782 $347 3.8587696223200787 $345 $391 forward @7 unknown #
point $-1 -1 $-1 -2.7772752725414334 -0.38099999999999995 -10.117839244640157 #
straight-curve $-1 -1 $-1 8.8817841970012523e-016 0.38099999999999989 -9.3558392446401566 -1 0 0 I I #
point $-1 -1 $-1 -2.7772752725414334 0.38099999999999989 -9.3558392446401566 #
convexity-sys-attrib $-1 -1 $-1 $-1 $299 #
straight-curve $-1 -1 $-1 0 0.38099999999999995 -10.117839244640153 1 0 0 I I #
coedge $-1 -1 $-1 $307 $360 $311 $358 reversed $304 $-1 #
straight-curve $-1 -1 $-1 2.7772752725414347 3.1877000000000013 0 0 0 -1 I I #
point $-1 -1 $-1 2.7772752725414347 3.1877000000000013 -2.7781249999999997 #
edge $-1 -1 $-1 $312 -2.7772752725414347 $362 2.7772752725414347 $355 $392 forward @7 unknown #
point $-1 -1 $-1 2.7772752725414347 3.1877000000000013 2.7781249999999997 #
coedge $-1 -1 $-1 $355 $320 $317 $361 reversed $304 $-1 #
edge $-1 -1 $-1 $362 -2.7781249999999997 $322 2.7781249999999997 $360 $393 forward @7 unknown #
vertex $-1 -1 $-1 $358 $394 #
straight-curve $-1 -1 $-1 -2.7772752725414347 0 2.7781249999999997 0 -1 0 I I #
straight-curve $-1 -1 $-1 0 3.1877000000000013 -2.7781249999999997 1 0 0 I I #
point $-1 -1 $-1 -2.7772752725414347 3.1877000000000013 -2.7781249999999997 #
model_id-kcp-attrib $-1 -1 $-1 $-1 $325 1 1021477150 1021477151 -1407320063 10 #
face $395 -1 $-1 $396 $388 $8 $-1 $397 forward single #
loop $-1 -1 $-1 $-1 $398 $325 #
plane-surface $-1 -1 $-1 3.3337499999999993 5.5880000000000001 0.38099999999999995 0 -1 0 0 0 -25.399999999999999 forward_v I I I I #
coedge $-1 -1 $-1 $373 $376 $399 $400 forward $326 $-1 #
coedge $-1 -1 $-1 $328 $328 $401 $402 forward $261 $-1 #
coedge $-1 -1 $-1 $333 $329 $403 $404 forward $174 $-1 #
coedge $-1 -1 $-1 $401 $370 $329 $374 forward $326 $-1 #
edge $-1 -1 $-1 $405 0 $380 1 $329 $406 forward @7 unknown #
coedge $-1 -1 $-1 $330 $332 $407 $408 forward $174 $-1 #
coedge $-1 -1 $-1 $370 $401 $330 $377 forward $326 $-1 #
edge $-1 -1 $-1 $379 0 $409 1 $330 $410 forward @7 unknown #
attrib_edge_convexity-kcp-attrib $-1 -1 $411 $-1 $331 1 #
vertex $-1 -1 $-1 $377 $412 #
vertex $-1 -1 $-1 $374 $413 #
ellipse-curve $-1 -1 $-1 -8.8123952579621795e-017 6.3499999999999996 8.8123952579621795e-017 0 -1 0 2.7518752725414353 0 0.38099999999999989 1 I I #
coedge $-1 -1 $-1 $337 $414 $332 $383 reversed $388 $-1 #
edge $-1 -1 $-1 $334 -2.0398839030143539e-016 $415 0.045961940777125398 $332 $416 forward @7 unknown #
coedge $-1 -1 $-1 $417 $337 $333 $385 forward $388 $-1 #
edge $-1 -1 $-1 $335 -1.9882879985241578e-033 $418 0.045961940777125461 $333 $419 forward @7 unknown #
point $-1 -1 $-1 1.1906249999999998 4.7624999999999984 1.4580469400197678e-016 #
point $-1 -1 $-1 -1.1906250000000027 4.7625000000000028 0 #
loop $-1 -1 $-1 $-1 $420 $367 #
ellipse-curve $-1 -1 $-1 -4.4061976289810898e-017 4.7625000000000028 -4.4061976289810898e-017 0 1 0 1.1906250000000027 0 1.8986667029178769e-016 1 I I #
point $-1 -1 $-1 -2.7772752725414334 0.38099999999999995 -10.117839244640157 #
straight-curve $-1 -1 $-1 -2.7772752725414334 0.38099999999999995 -6.2590696223200784 0 0 -1 I I #
straight-curve $-1 -1 $-1 0 3.1877000000000013 2.7781249999999997 -1 0 0 I I #
straight-curve $-1 -1 $-1 -2.7772752725414347 3.1877000000000013 0 0 0 -1 I I #
point $-1 -1 $-1 -2.7772752725414347 3.1877000000000013 2.7781249999999997 #
model_id-kcp-attrib $-1 -1 $-1 $-1 $367 1 1021477150 1021477151 -1407320063 11 #
face $421 -1 $-1 $422 $423 $8 $-1 $424 reversed single #
cone-surface $-1 -1 $-1 0 28.971874999999997 0 0 -1 0 -25.399999999999995 0 0 1 I I -0.70710678118654746 0.70710678118654757 25.399999999999995 forward I I I I #
coedge $-1 -1 $-1 $425 $407 $414 $426 reversed $368 $-1 #
coedge $-1 -1 $-1 $407 $403 $370 $400 reversed $368 $-1 #
edge $427 -1 $-1 $409 0 $405 0.15588958432172434 $370 $428 forward @7 unknown #
coedge $-1 -1 $-1 $376 $373 $371 $402 reversed $326 $-1 #
edge $429 -1 $-1 $379 3.4967654318902568e-017 $380 0.21668309232609728 $371 $430 forward @7 unknown #
coedge $-1 -1 $-1 $399 $431 $372 $404 reversed $368 $-1 #
edge $432 -1 $-1 $405 0 $418 0.19011963729270351 $372 $433 forward @7 unknown #
vertex $-1 -1 $-1 $404 $434 #
intcurve-curve $-1 -1 $-1 forward { surfintcur full nurbs 3 open 4 
	0 3 0.32886357610035155 1 0.66218302358040471 1 1 3 
	-1.9797977208858997 5.5880000000000001 0.38099999999999995 1 
	-2.0594619048570069 5.6662486394167209 0.38099999999999995 1 
	-2.2231640577280642 5.8273075582116318 0.38099999999999995 1 
	-2.4805463059544439 6.08141333524578 0.38100000000000012 0.99999999999999978 
	-2.6598977385398728 6.2588782504795653 0.38099999999999989 1.0000000000000002 
	-2.7518752725414353 6.3499999999999996 0.38099999999999995 1 
	0.025399999999999999 
	cone 0 28.971874999999997 0 0 -1 0 -25.399999999999995 0 0 1 I I -0.70710678118654746 0.70710678118654757 25.399999999999995 forward I I I I 
	plane 3.3337499999999993 6.3499999999999996 0.38099999999999995 0 0 1 0 -25.399999999999999 0 forward_v I I I I 
	nullbs 
	nullbs 
	I I 
	0 
	0 
	0 
	} I I #
coedge $-1 -1 $-1 $398 $399 $375 $408 reversed $368 $-1 #
edge $435 -1 $-1 $415 1.2246063538223541e-016 $409 0.19011963729269904 $375 $436 forward @7 unknown #
vertex $-1 -1 $-1 $377 $437 #
intcurve-curve $-1 -1 $-1 forward { surfintcur full nurbs 3 open 4 
	0 3 0.33771519444500808 1 0.67103643079587005 1 1 3 
	2.7518752725414344 6.3499999999999996 0.38099999999999995 1 
	2.6600428415808963 6.259021852392225 0.38099999999999995 1 
	2.480871632487069 6.0817351705533635 0.38099999999999995 1 
	2.2234878205092361 5.8276264035947731 0.38099999999999995 1 
	2.0596024385421754 5.6663869745256745 0.38099999999999995 0.99999999999999989 
	1.9797977208858983 5.5880000000000001 0.38099999999999995 1 
	0.025399999999999999 
	cone 0 28.971874999999997 0 0 -1 0 -25.399999999999995 0 0 1 I I -0.70710678118654746 0.70710678118654757 25.399999999999995 forward I I I I 
	plane 3.3337499999999993 6.3499999999999996 0.38099999999999995 0 0 1 0 -25.399999999999999 0 forward_v I I I I 
	nullbs 
	nullbs 
	I I 
	0 
	0 
	0 
	} I I #
convexity-sys-attrib $-1 -1 $-1 $378 $331 #
point $-1 -1 $-1 2.7518752725414344 6.3499999999999996 0.38099999999999995 #
point $-1 -1 $-1 -2.7518752725414353 6.3499999999999996 0.38099999999999995 #
coedge $-1 -1 $-1 $382 $438 $398 $426 forward $388 $-1 #
vertex $-1 -1 $-1 $408 $439 #
straight-curve $-1 -1 $-1 1.1906250000000027 4.7625000000000028 1.4580469400197678e-016 17.960512242138307 17.960512242138307 2.1994557409627263e-015 I I #
coedge $-1 -1 $-1 $420 $384 $431 $440 forward $388 $-1 #
vertex $-1 -1 $-1 $385 $441 #
straight-curve $-1 -1 $-1 -1.1906250000000027 4.7625000000000028 -2.9160938800395356e-016 -17.960512242138307 17.960512242138307 -4.3989114819254525e-015 I I #
coedge $-1 -1 $-1 $442 $417 $443 $444 reversed $388 $-1 #
model_id-kcp-attrib $-1 -1 $-1 $-1 $396 1 1021477150 1021477151 -1407320063 12 #
face $445 -1 $-1 $-1 $446 $8 $-1 $447 reversed single #
loop $-1 -1 $-1 $-1 $443 $396 #
plane-surface $-1 -1 $-1 3.3337499999999993 5.5880000000000001 -0.38099999999999995 0 0 -1 0 25.399999999999999 0 forward_v I I I I #
coedge $-1 -1 $-1 $431 $398 $448 $449 forward $368 $-1 #
edge $450 -1 $-1 $451 0 $415 0.19011963729270326 $414 $452 forward @7 unknown #
attrib_edge_convexity-kcp-attrib $-1 -1 $453 $-1 $400 2 #
straight-curve $-1 -1 $-1 1.9797977208858983 5.5880000000000001 0.38099999999999995 -25.399999999999999 0 0 I I #
attrib_edge_convexity-kcp-attrib $-1 -1 $454 $-1 $402 1 #
straight-curve $-1 -1 $-1 2.7518752725414353 6.3499999999999996 0.38099999999999995 -25.399999999999999 0 0 I I #
coedge $-1 -1 $-1 $403 $425 $417 $440 reversed $368 $-1 #
attrib_edge_convexity-kcp-attrib $-1 -1 $455 $-1 $404 1 #
ellipse-curve $-1 -1 $-1 -9.8698826889176407e-015 5.5880000000000001 1.321859288694327e-015 0 -1 0 -1.9797977208858899 0 0.38099999999999862 1 I I #
point $-1 -1 $-1 -1.9797977208858997 5.5880000000000001 0.38099999999999995 #
attrib_edge_convexity-kcp-attrib $-1 -1 $456 $-1 $408 1 #
ellipse-curve $-1 -1 $-1 -3.8774539135033592e-014 5.5880000000000001 -3.1724622928663847e-015 0 -1 0 2.0161250000000379 0 3.1724622928663847e-015 1 I I #
point $-1 -1 $-1 1.9797977208858983 5.5880000000000001 0.38099999999999995 #
coedge $-1 -1 $-1 $414 $442 $457 $458 reversed $388 $-1 #
point $-1 -1 $-1 2.0161249999999993 5.5879999999999992 2.4689594851001404e-016 #
edge $459 -1 $-1 $418 0 $460 0.19011963729269987 $417 $461 forward @7 unknown #
point $-1 -1 $-1 -2.0161250000000006 5.5880000000000001 0 #
coedge $-1 -1 $-1 $438 $420 $462 $463 reversed $388 $-1 #
coedge $-1 -1 $-1 $448 $464 $420 $444 forward $423 $-1 #
edge $-1 -1 $-1 $465 0 $460 1 $420 $466 forward @7 unknown #
model_id-kcp-attrib $-1 -1 $-1 $-1 $422 1 1021477150 1021477151 -1407320063 13 #
loop $-1 -1 $-1 $-1 $462 $422 #
plane-surface $-1 -1 $-1 0 6.3499999999999996 0 0 -1 0 -25.399999999999999 0 0 forward_v I I I I #
coedge $-1 -1 $-1 $457 $443 $425 $449 reversed $423 $-1 #
edge $467 -1 $-1 $451 0 $460 0.15588958432172434 $425 $468 forward @7 unknown #
attrib_edge_convexity-kcp-attrib $-1 -1 $469 $-1 $426 1 #
vertex $-1 -1 $-1 $426 $470 #
ellipse-curve $-1 -1 $-1 4.2299497238218458e-015 5.5880000000000001 -9.6936347837583973e-016 0 -1 0 1.9797977208858941 0 -0.38099999999999901 1 I I #
convexity-sys-attrib $-1 -1 $-1 $427 $400 #
convexity-sys-attrib $-1 -1 $-1 $429 $402 #
convexity-sys-attrib $-1 -1 $-1 $432 $404 #
convexity-sys-attrib $-1 -1 $-1 $435 $408 #
coedge $-1 -1 $-1 $464 $448 $438 $458 forward $423 $-1 #
edge $-1 -1 $-1 $451 0 $471 1 $438 $472 forward @7 unknown #
attrib_edge_convexity-kcp-attrib $-1 -1 $473 $-1 $440 1 #
vertex $-1 -1 $-1 $440 $474 #
ellipse-curve $-1 -1 $-1 2.8904656446115947e-014 5.5880000000000001 2.3793467196497885e-015 0 -1 0 -2.0161250000000295 0 -2.3793467196497885e-015 1 I I #
coedge $-1 -1 $-1 $475 $475 $442 $463 forward $446 $-1 #
edge $476 -1 $-1 $471 0 $465 2.8664397779467246 $462 $477 forward @7 unknown #
coedge $-1 -1 $-1 $443 $457 $475 $478 forward $423 $-1 #
vertex $-1 -1 $-1 $478 $479 #
intcurve-curve $-1 -1 $-1 forward { surfintcur full nurbs 3 open 4 
	0 3 0.33771519444500797 1 0.67103643079587016 1 1 3 
	-2.7518752725414353 6.3499999999999996 -0.38099999999999995 1 
	-2.660042841580899 6.2590218523922259 -0.38100000000000006 0.99999999999999978 
	-2.4808716324870708 6.0817351705533635 -0.38099999999999989 1.0000000000000002 
	-2.2234878205092374 5.8276264035947731 -0.38099999999999995 1 
	-2.0596024385421767 5.6663869745256719 -0.38099999999999989 1 
	-1.9797977208858997 5.5880000000000001 -0.38099999999999995 1 
	0.025399999999999999 
	cone 0 28.971874999999997 0 0 -1 0 -25.399999999999995 0 0 1 I I -0.70710678118654746 0.70710678118654757 25.399999999999995 forward I I I I 
	plane 3.3337499999999993 5.5880000000000001 -0.38099999999999995 0 0 -1 0 25.399999999999999 0 forward_v I I I I 
	nullbs 
	nullbs 
	I I 
	0 
	0 
	0 
	} I I #
attrib_edge_convexity-kcp-attrib $-1 -1 $480 $-1 $449 2 #
straight-curve $-1 -1 $-1 1.9797977208858983 5.5880000000000001 -0.38099999999999995 -25.399999999999999 0 0 I I #
convexity-sys-attrib $-1 -1 $-1 $450 $426 #
point $-1 -1 $-1 1.9797977208858983 5.5880000000000001 -0.38099999999999995 #
vertex $-1 -1 $-1 $478 $481 #
intcurve-curve $-1 -1 $-1 forward { surfintcur full nurbs 3 open 4 
	0 3 0.32886357610035155 1 0.66218302358040448 1 1 3 
	1.9797977208858983 5.5880000000000001 -0.38099999999999995 1 
	2.0594619048570055 5.6662486394167209 -0.38099999999999989 1.0000000000000002 
	2.2231640577280629 5.8273075582116309 -0.38099999999999995 0.99999999999999978 
	2.4805463059544413 6.08141333524578 -0.38099999999999989 1 
	2.6598977385398719 6.2588782504795661 -0.38100000000000001 1 
	2.7518752725414344 6.3499999999999996 -0.38099999999999995 1 
	0.025399999999999999 
	cone 0 28.971874999999997 0 0 -1 0 -25.399999999999995 0 0 1 I I -0.70710678118654746 0.70710678118654757 25.399999999999995 forward I I I I 
	plane 3.3337499999999993 5.5880000000000001 -0.38099999999999995 0 0 -1 0 25.399999999999999 0 forward_v I I I I 
	nullbs 
	nullbs 
	I I 
	0 
	0 
	0 
	} I I #
convexity-sys-attrib $-1 -1 $-1 $459 $440 #
point $-1 -1 $-1 -1.9797977208858997 5.5880000000000001 -0.38099999999999995 #
coedge $-1 -1 $-1 $462 $462 $464 $478 reversed $446 $-1 #
attrib_edge_convexity-kcp-attrib $-1 -1 $482 $-1 $463 1 #
ellipse-curve $-1 -1 $-1 -1.7624790515924359e-016 6.3499999999999996 1.7624790515924359e-016 0 1 0 2.7518752725414353 0 -0.38100000000000012 1 I I #
edge $483 -1 $-1 $471 0 $465 0.21668309232609731 $475 $484 forward @7 unknown #
point $-1 -1 $-1 -2.7518752725414357 6.3499999999999996 -0.38099999999999995 #
convexity-sys-attrib $-1 -1 $-1 $467 $449 #
point $-1 -1 $-1 2.7518752725414353 6.3499999999999996 -0.38099999999999995 #
convexity-sys-attrib $-1 -1 $-1 $476 $463 #
attrib_edge_convexity-kcp-attrib $-1 -1 $485 $-1 $478 1 #
straight-curve $-1 -1 $-1 2.7518752725414353 6.3499999999999996 -0.38099999999999995 -25.399999999999999 0 0 I I #
convexity-sys-attrib $-1 -1 $-1 $483 $478 #
End-of-ACIS-data 