600 0 1 0           
98 GICL Pro/E ACIS Translator - Source: f:/data5/repository/PTC/V18/reel18/areel/wind_screw.prt - 6 0 13 ACIS 6.0.3 NT 24 Thu Apr 04 13:30:23 2002 
1 9.9999999999999995e-007 1e-010 
body $-1 $1 $-1 $2 #
lump $-1 $-1 $3 $0 #
transform $-1 1 0 0 0 1 0 0 0 1 0 0 0 25.399999999999999 no_rotate no_reflect no_shear #
shell $-1 $-1 $-1 $4 $-1 $1 #
face $-1 $5 $6 $3 $-1 $7 forward single #
face $-1 $8 $9 $3 $-1 $10 forward single #
loop $-1 $-1 $11 $4 #
plane-surface $-1 0 0 0 0 -1 0 -1 0 0 forward_v I I I I #
face $-1 $12 $13 $3 $-1 $14 forward single #
loop $-1 $-1 $15 $5 #
cone-surface $-1 0 0.95812499999999989 0 0 -1 0 -0.99999999999999856 0 0 1 I I -0.70710678118654702 0.70710678118654802 0.99999999999999856 forward I I I I #
coedge $-1 $16 $16 $17 $18 forward $6 $-1 #
face $-1 $19 $20 $3 $-1 $21 forward single #
loop $-1 $-1 $22 $8 #
cone-surface $-1 0 0.95812499999999989 0 0 -1 0 -0.99999999999999856 0 0 1 I I -0.70710678118654702 0.70710678118654802 0.99999999999999856 forward I I I I #
coedge $-1 $17 $23 $24 $25 forward $9 $-1 #
coedge $-1 $11 $11 $26 $27 reversed $6 $-1 #
coedge $-1 $28 $15 $11 $18 reversed $9 $-1 #
edge $-1 $29 0 $30 3.14159265358979 $11 $31 forward 7 unknown #
face $-1 $32 $33 $3 $-1 $34 forward single #
loop $-1 $-1 $35 $12 #
cone-surface $-1 0 0.26249999999999996 0 0 -1 0 -0.046875 0 0 1 I I 0 1 0.046875 forward I I I I #
coedge $-1 $26 $36 $28 $37 forward $13 $-1 #
coedge $-1 $15 $28 $38 $39 forward $9 $-1 #
coedge $-1 $36 $26 $15 $25 reversed $13 $-1 #
edge $-1 $40 3.8951549360615515e-031 $30 0.0070710678118653253 $15 $41 forward 7 unknown #
coedge $-1 $24 $22 $16 $27 forward $13 $-1 #
edge $-1 $29 0 $30 3.1415926535897967 $16 $42 forward 7 unknown #
coedge $-1 $23 $17 $22 $37 reversed $9 $-1 #
vertex $-1 $27 $43 #
vertex $-1 $27 $44 #
ellipse-curve $-1 1.7347234759768071e-018 0 0 2.6512788647764863e-015 -1 3.2467729435602696e-031 0.041875000000000107 1.1102230246251565e-016 5.1280391066312255e-018 1 I I #
face $-1 $45 $46 $3 $-1 $47 forward single #
loop $-1 $-1 $48 $19 #
cone-surface $-1 0 0.26249999999999996 0 0 -1 0 -0.046875 0 0 1 I I 0 1 0.046875 forward I I I I #
coedge $-1 $49 $50 $36 $51 forward $20 $-1 #
coedge $-1 $22 $24 $35 $51 reversed $13 $-1 #
edge $-1 $52 0 $29 0.0070710678118653253 $28 $53 forward 7 unknown #
coedge $-1 $54 $55 $23 $39 reversed $33 $-1 #
edge $-1 $52 0 $40 3.1415926535897931 $38 $56 forward 7 unknown #
vertex $-1 $39 $57 #
straight-curve $-1 -0.046875 0.0050000000000000044 1.5505276912668869e-016 0.70710678118654757 -0.70710678118654757 -2.3389624424796202e-015 I I #
ellipse-curve $-1 0 0 -3.4694469519536142e-018 -2.6512788647764863e-015 1 -5.4434228244385493e-031 0.041875000000000107 1.1102230246251565e-016 8.5974860585848397e-018 1 I I #
point $-1 0.041875000000000107 1.1102230246251565e-016 5.1280391066312255e-018 #
point $-1 -0.041875000000000107 1.1102230246251565e-016 1.3851380708650915e-016 #
face $-1 $58 $59 $3 $-1 $60 reversed single #
loop $-1 $-1 $61 $32 #
cone-surface $-1 0 1.140625 0 0 -1 0 -0.99999999999999989 0 0 1 I I -0.70710678118654746 0.70710678118654757 0.99999999999999989 forward I I I I #
coedge $-1 $55 $54 $62 $63 forward $33 $-1 #
coedge $-1 $64 $35 $55 $65 forward $20 $-1 #
coedge $-1 $35 $64 $54 $66 reversed $20 $-1 #
edge $-1 $52 0 $40 3.1415926535897931 $35 $67 forward 7 unknown #
vertex $-1 $66 $68 #
straight-curve $-1 0.046875 0.0050000000000000044 5.7403422835423934e-018 -0.70710678118654757 -0.70710678118654757 -8.6592745707192469e-017 I I #
coedge $-1 $48 $38 $50 $66 forward $33 $-1 #
coedge $-1 $38 $48 $49 $65 reversed $33 $-1 #
ellipse-curve $-1 3.4694469519536142e-018 0.0050000000000000044 -1.7347234759768071e-018 0 -1 0 0.046875 0 7.4750657595192005e-018 1 I I #
point $-1 -0.046875 0.0050000000000000044 -1.1480684567084787e-017 #
face $-1 $69 $70 $3 $-1 $71 reversed single #
loop $-1 $-1 $72 $45 #
plane-surface $-1 0 0.25 0 0 -1 0 -1 0 0 forward_v I I I I #
coedge $-1 $73 $74 $72 $75 forward $46 $-1 #
coedge $-1 $76 $77 $48 $63 reversed $46 $-1 #
edge $-1 $78 1.9721522630525249e-031 $79 3.1415926535897931 $48 $80 forward 7 unknown #
coedge $-1 $50 $49 $81 $82 reversed $20 $-1 #
edge $-1 $40 0 $79 0.18250000000000011 $55 $83 forward 7 unknown #
edge $-1 $52 0 $78 0.18249999999999994 $54 $84 forward 7 unknown #
ellipse-curve $-1 -1.7347234759768071e-018 0.0050000000000000044 3.4694469519536142e-018 0 1 0 0.046875 0 2.2708953315887792e-018 1 I I #
point $-1 0.046875 0.0050000000000000044 5.7403422835423934e-018 #
face $-1 $85 $86 $3 $-1 $87 reversed single #
loop $-1 $-1 $88 $58 #
plane-surface $-1 0.13124999999999998 0.25 0.014999999999999999 0 0 1 0 -1 0 forward_v I I I I #
coedge $-1 $89 $89 $61 $75 reversed $59 $-1 #
coedge $-1 $90 $61 $91 $92 reversed $46 $-1 #
coedge $-1 $61 $93 $94 $95 reversed $46 $-1 #
edge $-1 $96 3.6252180395923494e-017 $97 2.866439777946725 $61 $98 forward 7 unknown #
coedge $-1 $93 $62 $99 $100 forward $46 $-1 #
coedge $-1 $62 $90 $101 $102 reversed $46 $-1 #
vertex $-1 $66 $103 #
vertex $-1 $65 $104 #
ellipse-curve $-1 0 0.18750000000000011 1.7347234759768071e-018 0 -1 0 0.046875000000000111 0 4.0056188075655863e-018 1 I I #
coedge $-1 $101 $99 $64 $82 forward $105 $-1 #
edge $-1 $78 -3.7251764968769913e-031 $79 3.1415926535897931 $64 $106 forward 7 unknown #
straight-curve $-1 -0.046875 0.0050000000000000044 -1.1480684567084787e-017 0 1 0 I I #
straight-curve $-1 0.046875 0.0050000000000000044 5.7403422835423934e-018 0 1 0 I I #
face $-1 $107 $105 $3 $-1 $108 forward single #
loop $-1 $-1 $109 $69 #
plane-surface $-1 0.13124999999999998 0.22 0.014999999999999999 0 -1 0 0 0 -1 forward_v I I I I #
coedge $-1 $91 $94 $110 $111 forward $70 $-1 #
coedge $-1 $72 $72 $112 $113 forward $59 $-1 #
coedge $-1 $77 $73 $114 $115 forward $46 $-1 #
coedge $-1 $112 $88 $73 $92 forward $70 $-1 #
edge $-1 $116 0 $97 1 $73 $117 forward 7 unknown #
coedge $-1 $74 $76 $118 $119 forward $46 $-1 #
coedge $-1 $88 $112 $74 $95 forward $70 $-1 #
edge $-1 $96 0 $120 1 $74 $121 forward 7 unknown #
vertex $-1 $95 $122 #
vertex $-1 $92 $123 #
ellipse-curve $-1 -3.4694469519536142e-018 0.25 3.4694469519536142e-018 0 -1 0 0.10834154616304864 0 0.014999999999999996 1 I I #
coedge $-1 $81 $124 $76 $100 reversed $105 $-1 #
edge $-1 $78 -1.9626155733547189e-016 $125 0.045961940777125398 $76 $126 forward 7 unknown #
coedge $-1 $127 $81 $77 $102 forward $105 $-1 #
edge $-1 $79 -1.9882879985241581e-033 $128 0.045961940777125454 $77 $129 forward 7 unknown #
point $-1 0.046875 0.18749999999999994 5.7403422835423934e-018 #
point $-1 -0.046875000000000111 0.18750000000000011 0 #
loop $-1 $-1 $130 $85 #
ellipse-curve $-1 -1.7347234759768071e-018 0.18750000000000011 -1.7347234759768071e-018 0 1 0 0.046875000000000111 0 7.4750657595192005e-018 1 I I #
face $-1 $131 $132 $3 $-1 $133 reversed single #
cone-surface $-1 0 1.140625 0 0 -1 0 -0.99999999999999989 0 0 1 I I -0.70710678118654746 0.70710678118654757 0.99999999999999989 forward I I I I #
coedge $-1 $134 $118 $124 $135 reversed $86 $-1 #
coedge $-1 $118 $114 $88 $111 reversed $86 $-1 #
edge $-1 $120 0 $116 0.15588958432172434 $88 $136 forward 7 unknown #
coedge $-1 $94 $91 $89 $113 reversed $70 $-1 #
edge $-1 $96 4.163336342344337e-017 $97 0.21668309232609728 $89 $137 forward 7 unknown #
coedge $-1 $110 $138 $90 $115 reversed $86 $-1 #
edge $-1 $116 0 $128 0.19011963729270354 $90 $139 forward 7 unknown #
vertex $-1 $115 $140 #
intcurve-curve $-1 forward { surfintcur full nurbs 3 open 4 
	0 3 0.32886357610035155 1 0.66218302358040471 1 1 3 
	-0.077944792160862197 0.22 0.014999999999999999 1 
	-0.081081177356575079 0.22308065509514652 0.014999999999999999 1 
	-0.087526144005041911 0.22942155740990677 0.014999999999999999 1 
	-0.097659303384033225 0.23942572186007011 0.015000000000000005 0.99999999999999978 
	-0.10472038340708162 0.24641252954643961 0.014999999999999996 1.0000000000000002 
	-0.10834154616304864 0.25 0.014999999999999999 1 
	0.001 
	cone 0 1.140625 0 0 -1 0 -0.99999999999999989 0 0 1 I I -0.70710678118654746 0.70710678118654757 0.99999999999999989 forward I I I I 
	plane 0.13124999999999998 0.25 0.014999999999999999 0 0 1 0 -1 0 forward_v I I I I 
	nullbs 
	nullbs 
	I I 
	0 
	0 
	0 
	} I I #
coedge $-1 $109 $110 $93 $119 reversed $86 $-1 #
edge $-1 $125 1.2246063538223536e-016 $120 0.19011963729269907 $93 $141 forward 7 unknown #
vertex $-1 $95 $142 #
intcurve-curve $-1 forward { surfintcur full nurbs 3 open 4 
	0 3 0.33771519444500808 1 0.67103643079587005 1 1 3 
	0.1083415461630486 0.25 0.014999999999999999 1 
	0.10472609612523215 0.24641818316504824 0.014999999999999999 1 
	0.097672111515238941 0.23943839254147101 0.014999999999999999 1 
	0.08753889057122978 0.229434110377747 0.014999999999999999 1 
	0.081086710178825808 0.22308610135927853 0.014999999999999999 0.99999999999999989 
	0.077944792160862142 0.22 0.014999999999999999 1 
	0.001 
	cone 0 1.140625 0 0 -1 0 -0.99999999999999989 0 0 1 I I -0.70710678118654746 0.70710678118654757 0.99999999999999989 forward I I I I 
	plane 0.13124999999999998 0.25 0.014999999999999999 0 0 1 0 -1 0 forward_v I I I I 
	nullbs 
	nullbs 
	I I 
	0 
	0 
	0 
	} I I #
point $-1 0.1083415461630486 0.25 0.014999999999999999 #
point $-1 -0.10834154616304864 0.25 0.014999999999999999 #
coedge $-1 $99 $143 $109 $135 forward $105 $-1 #
vertex $-1 $119 $144 #
straight-curve $-1 0.046875000000000111 0.18750000000000011 5.7403422835423934e-018 0.70710678118654757 0.70710678118654757 8.6592745707193949e-017 I I #
coedge $-1 $130 $101 $138 $145 forward $105 $-1 #
vertex $-1 $102 $146 #
straight-curve $-1 -0.046875000000000111 0.18750000000000011 -1.1480684567084787e-017 -0.70710678118654757 0.70710678118654757 -1.731854914143879e-016 I I #
coedge $-1 $147 $127 $148 $149 reversed $105 $-1 #
face $-1 $-1 $150 $3 $-1 $151 reversed single #
loop $-1 $-1 $148 $107 #
plane-surface $-1 0.13124999999999998 0.22 -0.014999999999999999 0 0 -1 0 1 0 forward_v I I I I #
coedge $-1 $138 $109 $152 $153 forward $86 $-1 #
edge $-1 $154 0 $125 0.19011963729270323 $124 $155 forward 7 unknown #
straight-curve $-1 0.077944792160862142 0.22 0.014999999999999999 -1 0 0 I I #
straight-curve $-1 0.10834154616304864 0.25 0.014999999999999999 -1 0 0 I I #
coedge $-1 $114 $134 $127 $145 reversed $86 $-1 #
ellipse-curve $-1 -3.8857805861880479e-016 0.22 5.2041704279304213e-017 0 -1 0 -0.077944792160861809 0 0.014999999999999947 1 I I #
point $-1 -0.077944792160862197 0.22 0.014999999999999999 #
ellipse-curve $-1 -1.5265566588595902e-015 0.22 -1.2490009027033011e-016 0 -1 0 0.0793750000000015 0 1.2490009027033011e-016 1 I I #
point $-1 0.077944792160862142 0.22 0.014999999999999999 #
coedge $-1 $124 $147 $156 $157 reversed $105 $-1 #
point $-1 0.079374999999999973 0.21999999999999997 9.7203129334651205e-018 #
edge $-1 $128 0 $158 0.19011963729269984 $127 $159 forward 7 unknown #
point $-1 -0.079375000000000029 0.22 0 #
coedge $-1 $143 $130 $160 $161 reversed $105 $-1 #
coedge $-1 $152 $162 $130 $149 forward $132 $-1 #
edge $-1 $163 0 $158 1 $130 $164 forward 7 unknown #
loop $-1 $-1 $160 $131 #
plane-surface $-1 0 0.25 0 0 -1 0 -1 0 0 forward_v I I I I #
coedge $-1 $156 $148 $134 $153 reversed $132 $-1 #
edge $-1 $154 0 $158 0.15588958432172434 $134 $165 forward 7 unknown #
vertex $-1 $135 $166 #
ellipse-curve $-1 1.6653345369377348e-016 0.22 -3.8163916471489756e-017 0 -1 0 0.077944792160861975 0 -0.014999999999999961 1 I I #
coedge $-1 $162 $152 $143 $157 forward $132 $-1 #
edge $-1 $154 0 $167 1 $143 $168 forward 7 unknown #
vertex $-1 $145 $169 #
ellipse-curve $-1 1.1379786002407855e-015 0.22 9.3675067702747583e-017 0 -1 0 -0.079375000000001167 0 -9.3675067702747583e-017 1 I I #
coedge $-1 $170 $170 $147 $161 forward $150 $-1 #
edge $-1 $167 0 $163 2.8664397779467246 $160 $171 forward 7 unknown #
coedge $-1 $148 $156 $170 $172 forward $132 $-1 #
vertex $-1 $172 $173 #
intcurve-curve $-1 forward { surfintcur full nurbs 3 open 4 
	0 3 0.33771519444500797 1 0.67103643079587016 1 1 3 
	-0.10834154616304864 0.25 -0.014999999999999999 1 
	-0.10472609612523225 0.24641818316504829 -0.015000000000000003 0.99999999999999978 
	-0.09767211151523901 0.23943839254147101 -0.014999999999999996 1.0000000000000002 
	-0.087538890571229822 0.229434110377747 -0.014999999999999999 1 
	-0.081086710178825863 0.22308610135927842 -0.014999999999999998 1 
	-0.077944792160862197 0.22 -0.014999999999999999 1 
	0.001 
	cone 0 1.140625 0 0 -1 0 -0.99999999999999989 0 0 1 I I -0.70710678118654746 0.70710678118654757 0.99999999999999989 forward I I I I 
	plane 0.13124999999999998 0.22 -0.014999999999999999 0 0 -1 0 1 0 forward_v I I I I 
	nullbs 
	nullbs 
	I I 
	0 
	0 
	0 
	} I I #
straight-curve $-1 0.077944792160862142 0.22 -0.014999999999999999 -1 0 0 I I #
point $-1 0.077944792160862142 0.22 -0.014999999999999999 #
vertex $-1 $172 $174 #
intcurve-curve $-1 forward { surfintcur full nurbs 3 open 4 
	0 3 0.32886357610035155 1 0.66218302358040448 1 1 3 
	0.077944792160862142 0.22 -0.014999999999999999 1 
	0.081081177356575024 0.22308065509514652 -0.014999999999999996 1.0000000000000002 
	0.087526144005041856 0.22942155740990675 -0.014999999999999999 0.99999999999999978 
	0.097659303384033128 0.23942572186007011 -0.014999999999999998 1 
	0.10472038340708158 0.24641252954643963 -0.015000000000000001 1 
	0.1083415461630486 0.25 -0.014999999999999999 1 
	0.001 
	cone 0 1.140625 0 0 -1 0 -0.99999999999999989 0 0 1 I I -0.70710678118654746 0.70710678118654757 0.99999999999999989 forward I I I I 
	plane 0.13124999999999998 0.22 -0.014999999999999999 0 0 -1 0 1 0 forward_v I I I I 
	nullbs 
	nullbs 
	I I 
	0 
	0 
	0 
	} I I #
point $-1 -0.077944792160862197 0.22 -0.014999999999999999 #
coedge $-1 $160 $160 $162 $172 reversed $150 $-1 #
ellipse-curve $-1 -6.9388939039072284e-018 0.25 6.9388939039072284e-018 0 1 0 0.10834154616304864 0 -0.015000000000000006 1 I I #
edge $-1 $167 0 $163 0.21668309232609728 $170 $175 forward 7 unknown #
point $-1 -0.10834154616304865 0.25 -0.014999999999999999 #
point $-1 0.10834154616304864 0.25 -0.014999999999999999 #
straight-curve $-1 0.10834154616304864 0.25 -0.014999999999999999 -1 0 0 I I #
End-of-ACIS-data 