600 0 1 0           
89 GICL ACIS Healer - Source: /gicl/data5/repository/PTC/V18/reel18/areel/wind_arm.sat - 6 0 18 ACIS 6.0.3 Solaris 24 Sat Apr 13 21:00:53 2002 
1 9.999999999999999547e-07 1.000000000000000036e-10 
body $-1 $1 $-1 $-1 #
lump $-1 $-1 $2 $0 #
shell $-1 $-1 $-1 $3 $-1 $1 #
face $-1 $4 $5 $2 $-1 $6 reversed single #
face $-1 $7 $8 $2 $-1 $9 reversed single #
loop $-1 $10 $11 $3 #
plane-surface $-1 0 -0.7937499999999999556 0 0 1 0 25.39999999999999858 0 0 forward_v I I I I #
face $-1 $12 $13 $2 $-1 $14 forward single #
loop $-1 $-1 $15 $4 #
cone-surface $-1 -22.79004220177305839 -0.7937499999999999556 -22.67235207707898681 0 1 0 11.25434182803607719 0 11.19622324794023882 1 I I 0 1 15.87499999999999645 forward I I I I #
loop $-1 $16 $17 $3 #
coedge $-1 $18 $19 $20 $21 forward $5 $-1 #
face $-1 $22 $23 $2 $-1 $24 reversed single #
loop $-1 $25 $26 $7 #
plane-surface $-1 0 0.7937499999999999556 0 0 1 0 25.39999999999999858 0 0 forward_v I I I I #
coedge $-1 $27 $28 $29 $30 forward $8 $-1 #
loop $-1 $-1 $31 $3 #
coedge $-1 $32 $32 $33 $34 reversed $10 $-1 #
coedge $-1 $35 $11 $36 $37 reversed $5 $-1 #
coedge $-1 $11 $38 $39 $40 reversed $5 $-1 #
coedge $-1 $28 $27 $11 $21 reversed $8 $-1 #
edge $-1 $41 -1.691663528624713423e-16 $42 0.6449966636320876301 $11 $43 forward 7 unknown #
face $-1 $44 $45 $2 $-1 $46 forward single #
loop $-1 $-1 $47 $12 #
cone-surface $-1 22.79004220177306195 -0.7937499999999999556 -22.67235207707898681 0 1 0 -15.72448658973534918 0 2.180859117236412459 1 I I 0 1 15.875 forward I I I I #
loop $-1 $48 $49 $7 #
coedge $-1 $50 $51 $47 $52 reversed $13 $-1 #
coedge $-1 $20 $15 $53 $54 reversed $8 $-1 #
coedge $-1 $15 $20 $55 $56 forward $8 $-1 #
coedge $-1 $51 $57 $15 $30 reversed $13 $-1 #
edge $-1 $58 -1.691663528624713423e-16 $59 0.6449966636320876301 $29 $60 forward 7 unknown #
coedge $-1 $61 $61 $62 $63 reversed $16 $-1 #
coedge $-1 $17 $17 $64 $65 reversed $10 $-1 #
coedge $-1 $66 $67 $17 $34 forward $68 $-1 #
edge $-1 $69 0 $70 3.141592653589793116 $17 $71 forward 7 unknown #
coedge $-1 $72 $18 $73 $74 reversed $5 $-1 #
coedge $-1 $53 $75 $18 $37 forward $76 $-1 #
edge $-1 $77 0 $42 0.6549344678824668975 $18 $78 forward 7 unknown #
coedge $-1 $19 $72 $79 $80 forward $5 $-1 #
coedge $-1 $81 $55 $19 $40 forward $45 $-1 #
edge $-1 $41 0 $82 4.707211520479209099 $19 $83 forward 7 unknown #
vertex $-1 $40 $84 #
vertex $-1 $37 $85 #
ellipse-curve $-1 -22.79004220177301931 -0.7937499999999999556 -22.67235207707896549 0 1 0 11.25434182803603811 0 11.19622324794021573 1 I I #
face $-1 $86 $87 $2 $-1 $88 forward single #
loop $-1 $-1 $81 $22 #
cone-surface $-1 0 -0.7937499999999999556 0 0 1 0 16.27187499999999787 0 0 1 I I 0 1 16.27187499999999787 forward I I I I #
coedge $-1 $89 $90 $26 $52 forward $23 $-1 #
loop $-1 $-1 $91 $7 #
coedge $-1 $92 $92 $93 $94 forward $25 $-1 #
coedge $-1 $95 $26 $96 $97 forward $13 $-1 #
coedge $-1 $26 $29 $98 $99 forward $13 $-1 #
edge $-1 $100 -1.127775685749799663e-16 $101 0.6449966636320848545 $26 $102 forward 7 unknown #
coedge $-1 $103 $36 $27 $54 forward $76 $-1 #
edge $-1 $42 0 $59 0.0625 $53 $104 forward 7 unknown #
coedge $-1 $39 $98 $28 $56 reversed $45 $-1 #
edge $-1 $41 2.484601276286652197e-31 $58 0.0625 $55 $105 forward 7 unknown #
coedge $-1 $29 $95 $103 $106 forward $13 $-1 #
vertex $-1 $99 $107 #
vertex $-1 $30 $108 #
ellipse-curve $-1 -22.79004220177301931 0.7937499999999999556 -22.67235207707896549 7.870758692590648636e-18 1 7.830113284224725481e-18 11.25434182803603811 -1.762479051592435909e-16 11.19622324794021573 1 I I #
coedge $-1 $31 $31 $109 $110 reversed $16 $-1 #
coedge $-1 $111 $112 $31 $63 forward $113 $-1 #
edge $-1 $114 0 $115 3.141592653589793116 $31 $116 forward 7 unknown #
coedge $-1 $117 $118 $32 $65 forward $119 $-1 #
edge $-1 $70 0 $69 3.141592653589793116 $32 $120 forward 7 unknown #
coedge $-1 $93 $33 $118 $121 reversed $68 $-1 #
coedge $-1 $33 $93 $117 $122 forward $68 $-1 #
loop $-1 $-1 $66 $123 #
vertex $-1 $65 $124 #
vertex $-1 $65 $125 #
ellipse-curve $-1 0 -0.7937499999999999556 0 0 -1 0 -13.52549999999999919 0 0 1 I I #
coedge $-1 $38 $35 $126 $127 reversed $5 $-1 #
coedge $-1 $128 $129 $35 $74 forward $130 $-1 #
edge $-1 $131 6.101625723629040299e-16 $77 2.865967113964548396 $35 $132 forward 7 unknown #
coedge $-1 $36 $103 $128 $133 reversed $76 $-1 #
loop $-1 $-1 $53 $134 #
vertex $-1 $74 $135 #
straight-curve $-1 -4.780243923279545726 -0.7937499999999999556 -36.96910617163986501 -3.489374587578257358 0 25.1591785435765587 I I #
coedge $-1 $90 $89 $38 $80 reversed $23 $-1 #
edge $-1 $136 -1.127775685749799663e-16 $82 0.6449966636320848545 $38 $137 forward 7 unknown #
coedge $-1 $98 $39 $89 $138 forward $45 $-1 #
vertex $-1 $40 $139 #
ellipse-curve $-1 0 -0.7937499999999999556 0 0 1 0 -11.53570037373698121 0 -11.47612882913874621 1 I I #
point $-1 -11.53570037373698121 -0.7937499999999999556 -11.47612882913874621 #
point $-1 -7.065555612037713651 -0.7937499999999999556 -20.4914929598425779 #
face $-1 $134 $130 $2 $-1 $140 forward single #
loop $-1 $-1 $141 $44 #
plane-surface $-1 7.9375 -0.7937499999999999556 -14.20457707098753986 0.9905188402982897378 0 -0.137376952266860558 -3.489374587578257358 0 -25.15917854357655514 forward_v I I I I #
coedge $-1 $79 $47 $81 $138 reversed $23 $-1 #
coedge $-1 $47 $79 $142 $143 forward $23 $-1 #
coedge $-1 $144 $144 $145 $146 forward $48 $-1 #
coedge $-1 $49 $49 $147 $148 forward $25 $-1 #
coedge $-1 $67 $66 $49 $94 reversed $68 $-1 #
edge $-1 $149 0 $150 3.141592653589793116 $49 $151 forward 7 unknown #
coedge $-1 $57 $50 $152 $153 forward $13 $-1 #
coedge $-1 $142 $141 $50 $97 reversed $87 $-1 #
edge $-1 $100 0 $154 0.6549344678824668975 $50 $155 forward 7 unknown #
coedge $-1 $55 $81 $51 $99 reversed $45 $-1 #
edge $-1 $58 -1.073433133372804283e-16 $101 4.707211520479209099 $51 $156 forward 7 unknown #
vertex $-1 $97 $157 #
vertex $-1 $99 $158 #
ellipse-curve $-1 22.79004220177307971 0.7937499999999999556 -22.67235207707899391 0 1 0 -15.72448658973536872 0 2.180859117236418232 1 I I #
coedge $-1 $75 $53 $57 $106 reversed $76 $-1 #
straight-curve $-1 -7.065555612037714539 -0.7937499999999999556 -20.49149295984257435 0 25.39999999999999858 0 I I #
straight-curve $-1 -11.53570037373697765 -0.7937499999999999556 -11.47612882913874799 -4.51194637207663719e-14 25.39999999999999858 0 I I #
edge $-1 $159 0 $59 0.6549344678824668975 $57 $160 forward 7 unknown #
point $-1 -11.53570037373698121 0.7937499999999999556 -11.47612882913874621 #
point $-1 -7.065555612037713651 0.7937499999999999556 -20.4914929598425779 #
coedge $-1 $161 $162 $61 $110 forward $163 $-1 #
edge $-1 $115 0 $114 3.141592653589793116 $61 $164 forward 7 unknown #
coedge $-1 $145 $62 $162 $165 reversed $113 $-1 #
coedge $-1 $62 $145 $161 $166 forward $113 $-1 #
loop $-1 $-1 $111 $167 #
vertex $-1 $110 $168 #
vertex $-1 $110 $169 #
ellipse-curve $-1 8.812395257962179547e-17 -0.7937499999999999556 -36.30612499999999443 0 -1 0 -1.984375 0 0 1 I I #
coedge $-1 $147 $64 $67 $122 reversed $119 $-1 #
coedge $-1 $64 $147 $66 $121 forward $119 $-1 #
loop $-1 $-1 $117 $170 #
ellipse-curve $-1 0 -0.7937499999999999556 0 0 -1 0 13.52549999999999919 0 0 1 I I #
edge $-1 $150 0 $70 0.0625 $118 $171 forward 7 unknown #
edge $-1 $149 0 $69 0.0625 $117 $172 forward 7 unknown #
face $-1 $170 $68 $2 $-1 $173 reversed single #
point $-1 -13.52549999999999919 -0.7937499999999999556 0 #
point $-1 13.52549999999999919 -0.7937499999999999556 0 #
coedge $-1 $141 $142 $72 $127 forward $87 $-1 #
edge $-1 $136 0 $131 0.6549344678824668975 $72 $174 forward 7 unknown #
coedge $-1 $152 $73 $75 $133 forward $130 $-1 #
coedge $-1 $73 $152 $141 $175 reversed $130 $-1 #
loop $-1 $-1 $128 $86 #
vertex $-1 $127 $176 #
ellipse-curve $-1 0 -0.7937499999999999556 -36.30612499999999443 0 1 0 4.780243923279545726 0 -0.6629811716398675836 1 I I #
edge $-1 $77 0 $159 0.0625 $128 $177 forward 7 unknown #
face $-1 $123 $76 $2 $-1 $178 forward single #
point $-1 -4.780243923279545726 -0.7937499999999999556 -36.96910617163986501 #
vertex $-1 $80 $179 #
ellipse-curve $-1 22.79004220177307971 -0.7937499999999999556 -22.67235207707899391 0 1 0 -15.72448658973536872 0 2.180859117236418232 1 I I #
edge $-1 $82 -1.242300638143325661e-31 $101 0.0625 $81 $180 forward 7 unknown #
point $-1 11.53570037373697943 -0.7937499999999999556 -11.47612882913874799 #
cone-surface $-1 0 -0.7937499999999999556 -36.30612499999999443 0 1 0 4.825999999999999623 0 0 1 I I 0 1 4.825999999999999623 forward I I I I #
coedge $-1 $96 $126 $129 $175 forward $87 $-1 #
coedge $-1 $126 $96 $90 $143 reversed $87 $-1 #
edge $-1 $136 0 $100 0.0625 $142 $181 forward 7 unknown #
coedge $-1 $91 $91 $182 $183 forward $48 $-1 #
coedge $-1 $112 $111 $91 $146 reversed $113 $-1 #
edge $-1 $184 0 $185 3.141592653589793116 $91 $186 forward 7 unknown #
coedge $-1 $118 $117 $92 $148 reversed $119 $-1 #
edge $-1 $150 0 $149 3.141592653589793116 $92 $187 forward 7 unknown #
vertex $-1 $148 $188 #
vertex $-1 $148 $189 #
ellipse-curve $-1 0 0.7937499999999999556 0 0 -1 0 -13.52549999999999919 0 0 1 I I #
coedge $-1 $129 $128 $95 $153 reversed $130 $-1 #
edge $-1 $154 6.101625723629040299e-16 $159 2.865967113964548396 $95 $190 forward 7 unknown #
vertex $-1 $153 $191 #
straight-curve $-1 7.065555612037713651 0.7937499999999999556 -20.4914929598425779 -3.489374587578258691 0 -25.1591785435765587 I I #
ellipse-curve $-1 2.467470672229410174e-15 0.7937499999999999556 -8.81239525796218004e-16 0 1 0 -11.53570037373698298 0 -11.47612882913874444 1 I I #
point $-1 7.065555612037713651 0.7937499999999999556 -20.4914929598425779 #
point $-1 11.53570037373697943 0.7937499999999999556 -11.47612882913874799 #
vertex $-1 $106 $192 #
straight-curve $-1 -4.780243923279545726 0.7937499999999999556 -36.96910617163986501 -3.489374587578257358 0 25.1591785435765587 I I #
coedge $-1 $182 $109 $112 $166 reversed $163 $-1 #
coedge $-1 $109 $182 $111 $165 forward $163 $-1 #
loop $-1 $-1 $161 $193 #
ellipse-curve $-1 -8.812395257962179547e-17 -0.7937499999999999556 -36.30612499999999443 0 -1 0 1.984375 0 0 1 I I #
edge $-1 $185 -2.185478394931410636e-17 $115 0.06249999999999997918 $162 $194 forward 7 unknown #
edge $-1 $184 -2.185478394931410636e-17 $114 0.06249999999999997918 $161 $195 forward 7 unknown #
face $-1 $193 $113 $2 $-1 $196 reversed single #
point $-1 -1.984375 -0.7937499999999999556 -36.30612499999999443 #
point $-1 1.984375 -0.7937499999999999556 -36.30612499999999443 #
face $-1 $167 $119 $2 $-1 $197 reversed single #
straight-curve $-1 13.52549999999999919 0.7937499999999999556 0 0 -25.39999999999999858 0 I I #
straight-curve $-1 -13.52549999999999919 0.7937499999999999556 1.656341323862456233e-15 0 -25.39999999999999858 0 I I #
cone-surface $-1 0 0.9524999999999999023 0 0 -1 0 13.52549999999999919 0 0 1 I I 0 1 13.52549999999999919 forward I I I I #
straight-curve $-1 7.065555612037713651 -0.7937499999999999556 -20.4914929598425779 -3.489374587578258691 0 -25.1591785435765587 I I #
edge $-1 $131 0 $154 0.0625 $141 $198 forward 7 unknown #
point $-1 4.780243923279545726 -0.7937499999999999556 -36.96910617163986501 #
straight-curve $-1 -4.780243923279545726 -0.7937499999999999556 -36.96910617163986501 0 25.39999999999999858 0 I I #
plane-surface $-1 -4.780243923279545726 -0.7937499999999999556 -36.96910617163986501 -0.9905188402982897378 0 -0.137376952266860558 -3.489374587578257358 0 25.15917854357655514 forward_v I I I I #
point $-1 7.065555612037713651 -0.7937499999999999556 -20.4914929598425779 #
straight-curve $-1 11.53570037373697588 -0.7937499999999999556 -11.47612882913875154 -2.255973186038317964e-14 25.39999999999999858 0 I I #
straight-curve $-1 7.065555612037713651 -0.7937499999999999556 -20.49149295984257435 0 25.39999999999999858 0 I I #
coedge $-1 $162 $161 $144 $183 reversed $163 $-1 #
edge $-1 $185 0 $184 3.141592653589793116 $144 $199 forward 7 unknown #
vertex $-1 $183 $200 #
vertex $-1 $183 $201 #
ellipse-curve $-1 8.812395257962179547e-17 0.7937499999999999556 -36.30612499999999443 0 -1 0 -1.984375 0 0 1 I I #
ellipse-curve $-1 0 0.7937499999999999556 0 0 -1 0 13.52549999999999919 0 0 1 I I #
point $-1 -13.52549999999999919 0.7937499999999999556 0 #
point $-1 13.52549999999999919 0.7937499999999999556 0 #
ellipse-curve $-1 1.762479051592435909e-16 0.7937499999999999556 -36.30612499999999443 0 1 0 4.780243923279545726 0 -0.6629811716398675836 1 I I #
point $-1 4.780243923279545726 0.7937499999999999556 -36.96910617163986501 #
point $-1 -4.780243923279545726 0.7937499999999999556 -36.96910617163986501 #
face $-1 $-1 $163 $2 $-1 $202 reversed single #
straight-curve $-1 1.984375 0.7937499999999994005 -36.30612499999999443 0 -25.39999999999999858 0 I I #
straight-curve $-1 -1.984375 0.7937499999999994005 -36.30612499999999443 0 -25.39999999999999858 0 I I #
cone-surface $-1 0 0.9524999999999999023 -36.30612499999999443 0 -1 0 1.984375 0 0 1 I I 0 1 1.984375 forward I I I I #
cone-surface $-1 0 0.9524999999999999023 0 0 -1 0 13.52549999999999919 0 0 1 I I 0 1 13.52549999999999919 forward I I I I #
straight-curve $-1 4.780243923279545726 -0.7937499999999999556 -36.96910617163986501 0 25.39999999999999858 0 I I #
ellipse-curve $-1 -8.812395257962179547e-17 0.7937499999999999556 -36.30612499999999443 0 -1 0 1.984375 0 0 1 I I #
point $-1 -1.984375 0.7937499999999999556 -36.30612499999999443 #
point $-1 1.984375 0.7937499999999999556 -36.30612499999999443 #
cone-surface $-1 0 0.9524999999999999023 -36.30612499999999443 0 -1 0 1.984375 0 0 1 I I 0 1 1.984375 forward I I I I #
End-of-ACIS-data 