  0
SECTION
  2
HEADER
  9
$ACADVER
  1
AC1009
  9
$INSBASE
 10
0.0
 20
0.0
 30
0.0
  9
$EXTMIN
 10
0.0
 20
0.0
 30
0.0
  9
$EXTMAX
 10
10.0
 20
8.0
 30
10.0
  9
$LIMMIN
 10
0.0
 20
0.0
  9
$LIMMAX
 10
12.0
 20
9.0
  9
$ORTHOMODE
 70
     0
  9
$REGENMODE
 70
     1
  9
$FILLMODE
 70
     1
  9
$QTEXTMODE
 70
     0
  9
$MIRRTEXT
 70
     1
  9
$DRAGMODE
 70
     2
  9
$LTSCALE
 40
1.0
  9
$OSMODE
 70
     0
  9
$ATTMODE
 70
     1
  9
$TEXTSIZE
 40
0.2
  9
$TRACEWID
 40
0.05
  9
$TEXTSTYLE
  7
STANDARD
  9
$CLAYER
  8
0
  9
$CELTYPE
  6
BYLAYER
  9
$CECOLOR
 62
   256
  9
$DIMSCALE
 40
1.0
  9
$DIMASZ
 40
0.18
  9
$DIMEXO
 40
0.0625
  9
$DIMDLI
 40
0.38
  9
$DIMRND
 40
0.0
  9
$DIMDLE
 40
0.0
  9
$DIMEXE
 40
0.18
  9
$DIMTP
 40
0.0
  9
$DIMTM
 40
0.0
  9
$DIMTXT
 40
0.18
  9
$DIMCEN
 40
0.09
  9
$DIMTSZ
 40
0.0
  9
$DIMTOL
 70
     0
  9
$DIMLIM
 70
     0
  9
$DIMTIH
 70
     1
  9
$DIMTOH
 70
     1
  9
$DIMSE1
 70
     0
  9
$DIMSE2
 70
     0
  9
$DIMTAD
 70
     0
  9
$DIMZIN
 70
     0
  9
$DIMBLK
  1

  9
$DIMASO
 70
     1
  9
$DIMSHO
 70
     1
  9
$DIMPOST
  1

  9
$DIMAPOST
  1

  9
$DIMALT
 70
     0
  9
$DIMALTD
 70
     2
  9
$DIMALTF
 40
25.4
  9
$DIMLFAC
 40
1.0
  9
$DIMTOFL
 70
     0
  9
$DIMTVP
 40
0.0
  9
$DIMTIX
 70
     0
  9
$DIMSOXD
 70
     0
  9
$DIMSAH
 70
     0
  9
$DIMBLK1
  1

  9
$DIMBLK2
  1

  9
$DIMSTYLE
  2
*UNNAMED
  9
$DIMCLRD
 70
     0
  9
$DIMCLRE
 70
     0
  9
$DIMCLRT
 70
     0
  9
$DIMTFAC
 40
1.0
  9
$DIMGAP
 40
0.09
  9
$LUNITS
 70
     2
  9
$LUPREC
 70
     4
  9
$SKETCHINC
 40
0.1
  9
$FILLETRAD
 40
0.0
  9
$AUNITS
 70
     0
  9
$AUPREC
 70
     0
  9
$MENU
  1
acad
  9
$ELEVATION
 40
0.0
  9
$PELEVATION
 40
0.0
  9
$THICKNESS
 40
0.0
  9
$LIMCHECK
 70
     0
  9
$BLIPMODE
 70
     1
  9
$CHAMFERA
 40
0.0
  9
$CHAMFERB
 40
0.0
  9
$SKPOLY
 70
     0
  9
$TDCREATE
 40
2449202.624767881
  9
$TDUPDATE
 40
2449202.632302361
  9
$TDINDWG
 40
0.0075344792
  9
$TDUSRTIMER
 40
0.0075344792
  9
$USRTIMER
 70
     1
  9
$ANGBASE
 50
0.0
  9
$ANGDIR
 70
     0
  9
$PDMODE
 70
     0
  9
$PDSIZE
 40
0.0
  9
$PLINEWID
 40
0.0
  9
$COORDS
 70
     0
  9
$SPLFRAME
 70
     0
  9
$SPLINETYPE
 70
     6
  9
$SPLINESEGS
 70
     8
  9
$ATTDIA
 70
     0
  9
$ATTREQ
 70
     1
  9
$HANDLING
 70
     1
  9
$HANDSEED
  5
DC
  9
$SURFTAB1
 70
     6
  9
$SURFTAB2
 70
     6
  9
$SURFTYPE
 70
     6
  9
$SURFU
 70
     6
  9
$SURFV
 70
     6
  9
$UCSNAME
  2

  9
$UCSORG
 10
0.0
 20
0.0
 30
0.0
  9
$UCSXDIR
 10
1.0
 20
0.0
 30
0.0
  9
$UCSYDIR
 10
0.0
 20
1.0
 30
0.0
  9
$PUCSNAME
  2

  9
$PUCSORG
 10
0.0
 20
0.0
 30
0.0
  9
$PUCSXDIR
 10
1.0
 20
0.0
 30
0.0
  9
$PUCSYDIR
 10
0.0
 20
1.0
 30
0.0
  9
$USERI1
 70
     0
  9
$USERI2
 70
     0
  9
$USERI3
 70
     0
  9
$USERI4
 70
     0
  9
$USERI5
 70
     0
  9
$USERR1
 40
0.0
  9
$USERR2
 40
0.0
  9
$USERR3
 40
0.0
  9
$USERR4
 40
0.0
  9
$USERR5
 40
0.0
  9
$WORLDVIEW
 70
     1
  9
$SHADEDGE
 70
     3
  9
$SHADEDIF
 70
    70
  9
$TILEMODE
 70
     1
  9
$MAXACTVP
 70
    16
  9
$PINSBASE
 10
0.0
 20
0.0
 30
0.0
  9
$PLIMCHECK
 70
     0
  9
$PEXTMIN
 10
1.000000E+20
 20
1.000000E+20
 30
1.000000E+20
  9
$PEXTMAX
 10
-1.000000E+20
 20
-1.000000E+20
 30
-1.000000E+20
  9
$PLIMMIN
 10
0.0
 20
0.0
  9
$PLIMMAX
 10
12.0
 20
9.0
  9
$UNITMODE
 70
     0
  9
$VISRETAIN
 70
     0
  9
$PLINEGEN
 70
     0
  9
$PSLTSCALE
 70
     0
  9
$TREEDEPTH
 70
  3020
  9
$DWGCODEPAGE
  3
undefined
  0
ENDSEC
  0
SECTION
  2
TABLES
  0
TABLE
  2
VPORT
 70
     2
  0
VPORT
  2
*ACTIVE
 70
     0
 10
0.0
 20
0.0
 11
1.0
 21
1.0
 12
5.299987
 22
0.408248
 13
0.0
 23
0.0
 14
1.0
 24
1.0
 15
0.0
 25
0.0
 16
1.0
 26
1.0
 36
1.0
 17
0.0
 27
0.0
 37
0.0
 40
15.513435
 41
1.594883
 42
50.0
 43
0.0
 44
0.0
 50
0.0
 51
0.0
 71
     0
 72
   100
 73
     1
 74
     1
 75
     0
 76
     0
 77
     0
 78
     0
  0
ENDTAB
  0
TABLE
  2
LTYPE
 70
     1
  0
LTYPE
  2
CONTINUOUS
 70
    64
  3
Solid line
 72
    65
 73
     0
 40
0.0
  0
ENDTAB
  0
TABLE
  2
LAYER
 70
     2
  0
LAYER
  2
0
 70
    64
 62
     7
  6
CONTINUOUS
  0
LAYER
  2
AME_FRZ
 70
    65
 62
     7
  6
CONTINUOUS
  0
ENDTAB
  0
TABLE
  2
STYLE
 70
     1
  0
STYLE
  2
STANDARD
 70
     0
 40
0.0
 41
1.0
 50
0.0
 71
     0
 42
0.2
  3
txt
  4

  0
ENDTAB
  0
TABLE
  2
VIEW
 70
     0
  0
ENDTAB
  0
TABLE
  2
UCS
 70
     0
  0
ENDTAB
  0
TABLE
  2
APPID
 70
     2
  0
APPID
  2
ACAD
 70
    64
  0
APPID
  2
AME_SOL
 70
    64
  0
ENDTAB
  0
TABLE
  2
DIMSTYLE
 70
     0
  0
ENDTAB
  0
ENDSEC
  0
SECTION
  2
BLOCKS
  0
BLOCK
  8
0
  5
1
  2
AME_NIL
 70
    64
 10
0.0
 20
0.0
 30
0.0
  1
AME_NIL
  3
AME_NIL
  0
ENDBLK
  8
0
  5
2
  0
BLOCK
  8
0
  5
4
  2
AME_SOL
 70
    64
 10
0.0
 20
0.0
 30
0.0
  1
AME_SOL
  3
AME_SOL
  0
ENDBLK
  8
0
  5
5
  0
BLOCK
  8
0
  5
3A
  2
*U2
 70
    65
 10
0.0
 20
0.0
 30
0.0
  1
*U
  3
*U
  0
LINE
  8
0
 62
     0
  5
3B
 10
10.0
 20
4.0
 30
0.0
 11
10.0
 21
4.0
 31
10.0
1001
AME_SOL
1070
     1
1071
       18
  0
LINE
  8
0
 62
     0
  5
3C
 10
10.0
 20
4.0
 30
10.0
 11
10.0
 21
0.0
 31
10.0
1001
AME_SOL
1070
     1
1071
       17
  0
LINE
  8
0
 62
     0
  5
3D
 10
0.0
 20
4.0
 30
10.0
 11
10.0
 21
4.0
 31
10.0
1001
AME_SOL
1070
     1
1071
       16
  0
LINE
  8
0
 62
     0
  5
3E
 10
0.0
 20
4.0
 30
0.0
 11
0.0
 21
4.0
 31
10.0
1001
AME_SOL
1070
     1
1071
       15
  0
LINE
  8
0
 62
     0
  5
3F
 10
0.0
 20
4.0
 30
10.0
 11
0.0
 21
0.0
 31
10.0
1001
AME_SOL
1070
     1
1071
       14
  0
LINE
  8
0
 62
     0
  5
40
 10
0.0
 20
0.0
 30
0.0
 11
0.0
 21
0.0
 31
10.0
1001
AME_SOL
1070
     1
1071
       13
  0
LINE
  8
0
 62
     0
  5
41
 10
10.0
 20
0.0
 30
10.0
 11
10.0
 21
0.0
 31
0.0
1001
AME_SOL
1070
     1
1071
       12
  0
LINE
  8
0
 62
     0
  5
42
 10
0.0
 20
0.0
 30
10.0
 11
10.0
 21
0.0
 31
10.0
1001
AME_SOL
1070
     1
1071
       11
  0
LINE
  8
0
 62
     0
  5
43
 10
0.0
 20
0.0
 30
0.0
 11
10.0
 21
0.0
 31
0.0
1001
AME_SOL
1070
     1
1071
       10
  0
LINE
  8
0
 62
     0
  5
44
 10
0.0
 20
4.0
 30
0.0
 11
0.0
 21
0.0
 31
0.0
1001
AME_SOL
1070
     1
1071
        9
  0
LINE
  8
0
 62
     0
  5
45
 10
10.0
 20
0.0
 30
0.0
 11
10.0
 21
4.0
 31
0.0
1001
AME_SOL
1070
     1
1071
        8
  0
LINE
  8
0
 62
     0
  5
46
 10
10.0
 20
4.0
 30
0.0
 11
0.0
 21
4.0
 31
0.0
1001
AME_SOL
1070
     1
1071
        7
  0
ENDBLK
  8
0
  5
47
  0
BLOCK
  8
0
  5
4B
  2
*U3
 70
    65
 10
0.0
 20
0.0
 30
0.0
  1
*U
  3
*U
  0
LINE
  8
0
 62
     0
  5
4C
 10
5.0
 20
4.0
 30
0.0
 11
5.0
 21
4.0
 31
10.0
1001
AME_SOL
1070
     1
1071
       18
  0
LINE
  8
0
 62
     0
  5
4D
 10
5.0
 20
4.0
 30
10.0
 11
5.0
 21
0.0
 31
10.0
1001
AME_SOL
1070
     1
1071
       17
  0
LINE
  8
0
 62
     0
  5
4E
 10
0.0
 20
4.0
 30
10.0
 11
5.0
 21
4.0
 31
10.0
1001
AME_SOL
1070
     1
1071
       16
  0
LINE
  8
0
 62
     0
  5
4F
 10
0.0
 20
4.0
 30
0.0
 11
0.0
 21
4.0
 31
10.0
1001
AME_SOL
1070
     1
1071
       15
  0
LINE
  8
0
 62
     0
  5
50
 10
0.0
 20
4.0
 30
10.0
 11
0.0
 21
0.0
 31
10.0
1001
AME_SOL
1070
     1
1071
       14
  0
LINE
  8
0
 62
     0
  5
51
 10
0.0
 20
0.0
 30
0.0
 11
0.0
 21
0.0
 31
10.0
1001
AME_SOL
1070
     1
1071
       13
  0
LINE
  8
0
 62
     0
  5
52
 10
5.0
 20
0.0
 30
10.0
 11
5.0
 21
0.0
 31
0.0
1001
AME_SOL
1070
     1
1071
       12
  0
LINE
  8
0
 62
     0
  5
53
 10
0.0
 20
0.0
 30
10.0
 11
5.0
 21
0.0
 31
10.0
1001
AME_SOL
1070
     1
1071
       11
  0
LINE
  8
0
 62
     0
  5
54
 10
0.0
 20
0.0
 30
0.0
 11
5.0
 21
0.0
 31
0.0
1001
AME_SOL
1070
     1
1071
       10
  0
LINE
  8
0
 62
     0
  5
55
 10
0.0
 20
4.0
 30
0.0
 11
0.0
 21
0.0
 31
0.0
1001
AME_SOL
1070
     1
1071
        9
  0
LINE
  8
0
 62
     0
  5
56
 10
5.0
 20
0.0
 30
0.0
 11
5.0
 21
4.0
 31
0.0
1001
AME_SOL
1070
     1
1071
        8
  0
LINE
  8
0
 62
     0
  5
57
 10
5.0
 20
4.0
 30
0.0
 11
0.0
 21
4.0
 31
0.0
1001
AME_SOL
1070
     1
1071
        7
  0
ENDBLK
  8
0
  5
58
  0
BLOCK
  8
0
  5
5C
  2
*U4
 70
    65
 10
0.0
 20
0.0
 30
0.0
  1
*U
  3
*U
  0
LINE
  8
0
 62
     0
  5
5D
 10
2.0
 20
4.0
 30
0.0
 11
2.0
 21
4.0
 31
8.0
1001
AME_SOL
1070
     1
1071
       18
  0
LINE
  8
0
 62
     0
  5
5E
 10
2.0
 20
4.0
 30
8.0
 11
2.0
 21
0.0
 31
8.0
1001
AME_SOL
1070
     1
1071
       17
  0
LINE
  8
0
 62
     0
  5
5F
 10
0.0
 20
4.0
 30
8.0
 11
2.0
 21
4.0
 31
8.0
1001
AME_SOL
1070
     1
1071
       16
  0
LINE
  8
0
 62
     0
  5
60
 10
0.0
 20
4.0
 30
0.0
 11
0.0
 21
4.0
 31
8.0
1001
AME_SOL
1070
     1
1071
       15
  0
LINE
  8
0
 62
     0
  5
61
 10
0.0
 20
4.0
 30
8.0
 11
0.0
 21
0.0
 31
8.0
1001
AME_SOL
1070
     1
1071
       14
  0
LINE
  8
0
 62
     0
  5
62
 10
0.0
 20
0.0
 30
0.0
 11
0.0
 21
0.0
 31
8.0
1001
AME_SOL
1070
     1
1071
       13
  0
LINE
  8
0
 62
     0
  5
63
 10
2.0
 20
0.0
 30
8.0
 11
2.0
 21
0.0
 31
0.0
1001
AME_SOL
1070
     1
1071
       12
  0
LINE
  8
0
 62
     0
  5
64
 10
0.0
 20
0.0
 30
8.0
 11
2.0
 21
0.0
 31
8.0
1001
AME_SOL
1070
     1
1071
       11
  0
LINE
  8
0
 62
     0
  5
65
 10
0.0
 20
0.0
 30
0.0
 11
2.0
 21
0.0
 31
0.0
1001
AME_SOL
1070
     1
1071
       10
  0
LINE
  8
0
 62
     0
  5
66
 10
0.0
 20
4.0
 30
0.0
 11
0.0
 21
0.0
 31
0.0
1001
AME_SOL
1070
     1
1071
        9
  0
LINE
  8
0
 62
     0
  5
67
 10
2.0
 20
0.0
 30
0.0
 11
2.0
 21
4.0
 31
0.0
1001
AME_SOL
1070
     1
1071
        8
  0
LINE
  8
0
 62
     0
  5
68
 10
2.0
 20
4.0
 30
0.0
 11
0.0
 21
4.0
 31
0.0
1001
AME_SOL
1070
     1
1071
        7
  0
ENDBLK
  8
0
  5
69
  0
BLOCK
  8
0
  5
6D
  2
*U5
 70
    65
 10
0.0
 20
0.0
 30
0.0
  1
*U
  3
*U
  0
LINE
  8
0
 62
     0
  5
6E
 10
1.0
 20
4.0
 30
0.0
 11
1.0
 21
4.0
 31
4.0
1001
AME_SOL
1070
     1
1071
       18
  0
LINE
  8
0
 62
     0
  5
6F
 10
1.0
 20
4.0
 30
4.0
 11
1.0
 21
0.0
 31
4.0
1001
AME_SOL
1070
     1
1071
       17
  0
LINE
  8
0
 62
     0
  5
70
 10
0.0
 20
4.0
 30
4.0
 11
1.0
 21
4.0
 31
4.0
1001
AME_SOL
1070
     1
1071
       16
  0
LINE
  8
0
 62
     0
  5
71
 10
0.0
 20
4.0
 30
0.0
 11
0.0
 21
4.0
 31
4.0
1001
AME_SOL
1070
     1
1071
       15
  0
LINE
  8
0
 62
     0
  5
72
 10
0.0
 20
4.0
 30
4.0
 11
0.0
 21
0.0
 31
4.0
1001
AME_SOL
1070
     1
1071
       14
  0
LINE
  8
0
 62
     0
  5
73
 10
0.0
 20
0.0
 30
0.0
 11
0.0
 21
0.0
 31
4.0
1001
AME_SOL
1070
     1
1071
       13
  0
LINE
  8
0
 62
     0
  5
74
 10
1.0
 20
0.0
 30
4.0
 11
1.0
 21
0.0
 31
0.0
1001
AME_SOL
1070
     1
1071
       12
  0
LINE
  8
0
 62
     0
  5
75
 10
0.0
 20
0.0
 30
4.0
 11
1.0
 21
0.0
 31
4.0
1001
AME_SOL
1070
     1
1071
       11
  0
LINE
  8
0
 62
     0
  5
76
 10
0.0
 20
0.0
 30
0.0
 11
1.0
 21
0.0
 31
0.0
1001
AME_SOL
1070
     1
1071
       10
  0
LINE
  8
0
 62
     0
  5
77
 10
0.0
 20
4.0
 30
0.0
 11
0.0
 21
0.0
 31
0.0
1001
AME_SOL
1070
     1
1071
        9
  0
LINE
  8
0
 62
     0
  5
78
 10
1.0
 20
0.0
 30
0.0
 11
1.0
 21
4.0
 31
0.0
1001
AME_SOL
1070
     1
1071
        8
  0
LINE
  8
0
 62
     0
  5
79
 10
1.0
 20
4.0
 30
0.0
 11
0.0
 21
4.0
 31
0.0
1001
AME_SOL
1070
     1
1071
        7
  0
ENDBLK
  8
0
  5
7A
  0
BLOCK
  8
0
  5
80
  2
*U6
 70
    65
 10
0.0
 20
0.0
 30
0.0
  1
*U
  3
*U
  0
LINE
  8
0
 62
     7
  5
81
 10
5.0
 20
8.0
 30
0.0
 11
5.0
 21
8.0
 31
6.0
1001
AME_SOL
1070
     1
1071
       34
  0
LINE
  8
0
 62
     7
  5
82
 10
0.0
 20
8.0
 30
10.0
 11
2.0
 21
8.0
 31
10.0
1001
AME_SOL
1070
     1
1071
       33
  0
LINE
  8
0
 62
     7
  5
83
 10
0.0
 20
8.0
 30
0.0
 11
0.0
 21
8.0
 31
10.0
1001
AME_SOL
1070
     1
1071
       32
  0
LINE
  8
0
 62
     7
  5
84
 10
0.0
 20
8.0
 30
10.0
 11
0.0
 21
4.0
 31
10.0
1001
AME_SOL
1070
     1
1071
       31
  0
LINE
  8
0
 62
     7
  5
85
 10
0.0
 20
4.0
 30
0.0
 11
0.0
 21
4.0
 31
10.0
1001
AME_SOL
1070
     1
1071
       30
  0
LINE
  8
0
 62
     7
  5
86
 10
5.0
 20
4.0
 30
6.0
 11
5.0
 21
4.0
 31
0.0
1001
AME_SOL
1070
     1
1071
       29
  0
LINE
  8
0
 62
     7
  5
87
 10
0.0
 20
4.0
 30
10.0
 11
2.0
 21
4.0
 31
10.0
1001
AME_SOL
1070
     1
1071
       28
  0
LINE
  8
0
 62
     7
  5
88
 10
0.0
 20
4.0
 30
0.0
 11
5.0
 21
4.0
 31
0.0
1001
AME_SOL
1070
     1
1071
       27
  0
LINE
  8
0
 62
     7
  5
89
 10
0.0
 20
8.0
 30
0.0
 11
0.0
 21
4.0
 31
0.0
1001
AME_SOL
1070
     1
1071
       26
  0
LINE
  8
0
 62
     7
  5
8A
 10
5.0
 20
4.0
 30
0.0
 11
5.0
 21
8.0
 31
0.0
1001
AME_SOL
1070
     1
1071
       25
  0
LINE
  8
0
 62
     7
  5
8B
 10
5.0
 20
8.0
 30
0.0
 11
0.0
 21
8.0
 31
0.0
1001
AME_SOL
1070
     1
1071
       24
  0
LINE
  8
0
 62
     7
  5
8C
 10
4.0
 20
4.0
 30
2.0
 11
4.0
 21
4.0
 31
6.0
1001
AME_SOL
1070
     1
1071
       23
  0
LINE
  8
0
 62
     7
  5
8D
 10
4.0
 20
8.0
 30
6.0
 11
4.0
 21
8.0
 31
2.0
1001
AME_SOL
1070
     1
1071
       22
  0
LINE
  8
0
 62
     7
  5
8E
 10
2.0
 20
4.0
 30
10.0
 11
2.0
 21
4.0
 31
2.0
1001
AME_SOL
1070
     1
1071
       21
  0
LINE
  8
0
 62
     7
  5
8F
 10
2.0
 20
8.0
 30
2.0
 11
2.0
 21
8.0
 31
10.0
1001
AME_SOL
1070
     1
1071
       20
  0
LINE
  8
0
 62
     7
  5
90
 10
2.0
 20
8.0
 30
10.0
 11
2.0
 21
4.0
 31
10.0
1001
AME_SOL
1070
     1
1071
       19
  0
LINE
  8
0
 62
     7
  5
91
 10
2.0
 20
4.0
 30
2.0
 11
4.0
 21
4.0
 31
2.0
1001
AME_SOL
1070
     1
1071
       18
  0
LINE
  8
0
 62
     7
  5
92
 10
2.0
 20
8.0
 30
2.0
 11
2.0
 21
4.0
 31
2.0
1001
AME_SOL
1070
     1
1071
       17
  0
LINE
  8
0
 62
     7
  5
93
 10
4.0
 20
8.0
 30
2.0
 11
2.0
 21
8.0
 31
2.0
1001
AME_SOL
1070
     1
1071
       16
  0
LINE
  8
0
 62
     7
  5
94
 10
4.0
 20
4.0
 30
2.0
 11
4.0
 21
8.0
 31
2.0
1001
AME_SOL
1070
     1
1071
       15
  0
LINE
  8
0
 62
     7
  5
95
 10
4.0
 20
4.0
 30
6.0
 11
5.0
 21
4.0
 31
6.0
1001
AME_SOL
1070
     1
1071
       14
  0
LINE
  8
0
 62
     7
  5
96
 10
5.0
 20
4.0
 30
6.0
 11
5.0
 21
8.0
 31
6.0
1001
AME_SOL
1070
     1
1071
       13
  0
LINE
  8
0
 62
     7
  5
97
 10
5.0
 20
8.0
 30
6.0
 11
4.0
 21
8.0
 31
6.0
1001
AME_SOL
1070
     1
1071
       12
  0
LINE
  8
0
 62
     7
  5
98
 10
4.0
 20
4.0
 30
6.0
 11
4.0
 21
8.0
 31
6.0
1001
AME_SOL
1070
     1
1071
       11
  0
ENDBLK
  8
0
  5
99
  0
BLOCK
  8
0
  5
9D
  2
*U7
 70
    65
 10
0.0
 20
0.0
 30
0.0
  1
*U
  3
*U
  0
LINE
  8
0
 62
     0
  5
9E
 10
2.0
 20
2.0
 30
0.0
 11
2.0
 21
2.0
 31
10.0
1001
AME_SOL
1070
     1
1071
       18
  0
LINE
  8
0
 62
     0
  5
9F
 10
2.0
 20
2.0
 30
10.0
 11
2.0
 21
0.0
 31
10.0
1001
AME_SOL
1070
     1
1071
       17
  0
LINE
  8
0
 62
     0
  5
A0
 10
0.0
 20
2.0
 30
10.0
 11
2.0
 21
2.0
 31
10.0
1001
AME_SOL
1070
     1
1071
       16
  0
LINE
  8
0
 62
     0
  5
A1
 10
0.0
 20
2.0
 30
0.0
 11
0.0
 21
2.0
 31
10.0
1001
AME_SOL
1070
     1
1071
       15
  0
LINE
  8
0
 62
     0
  5
A2
 10
0.0
 20
2.0
 30
10.0
 11
0.0
 21
0.0
 31
10.0
1001
AME_SOL
1070
     1
1071
       14
  0
LINE
  8
0
 62
     0
  5
A3
 10
0.0
 20
0.0
 30
0.0
 11
0.0
 21
0.0
 31
10.0
1001
AME_SOL
1070
     1
1071
       13
  0
LINE
  8
0
 62
     0
  5
A4
 10
2.0
 20
0.0
 30
10.0
 11
2.0
 21
0.0
 31
0.0
1001
AME_SOL
1070
     1
1071
       12
  0
LINE
  8
0
 62
     0
  5
A5
 10
0.0
 20
0.0
 30
10.0
 11
2.0
 21
0.0
 31
10.0
1001
AME_SOL
1070
     1
1071
       11
  0
LINE
  8
0
 62
     0
  5
A6
 10
0.0
 20
0.0
 30
0.0
 11
2.0
 21
0.0
 31
0.0
1001
AME_SOL
1070
     1
1071
       10
  0
LINE
  8
0
 62
     0
  5
A7
 10
0.0
 20
2.0
 30
0.0
 11
0.0
 21
0.0
 31
0.0
1001
AME_SOL
1070
     1
1071
        9
  0
LINE
  8
0
 62
     0
  5
A8
 10
2.0
 20
0.0
 30
0.0
 11
2.0
 21
2.0
 31
0.0
1001
AME_SOL
1070
     1
1071
        8
  0
LINE
  8
0
 62
     0
  5
A9
 10
2.0
 20
2.0
 30
0.0
 11
0.0
 21
2.0
 31
0.0
1001
AME_SOL
1070
     1
1071
        7
  0
ENDBLK
  8
0
  5
AA
  0
BLOCK
  8
0
  5
B0
  2
*U8
 70
    65
 10
0.0
 20
0.0
 30
0.0
  1
*U
  3
*U
  0
LINE
  8
0
 62
     7
  5
B1
 10
10.0
 20
6.0
 30
0.0
 11
10.0
 21
6.0
 31
10.0
1001
AME_SOL
1070
     1
1071
       50
  0
LINE
  8
0
 62
     7
  5
B2
 10
8.0
 20
6.0
 30
10.0
 11
10.0
 21
6.0
 31
10.0
1001
AME_SOL
1070
     1
1071
       49
  0
LINE
  8
0
 62
     7
  5
B3
 10
10.0
 20
6.0
 30
10.0
 11
10.0
 21
0.0
 31
10.0
1001
AME_SOL
1070
     1
1071
       48
  0
LINE
  8
0
 62
     7
  5
B4
 10
8.0
 20
6.0
 30
0.0
 11
8.0
 21
6.0
 31
10.0
1001
AME_SOL
1070
     1
1071
       47
  0
LINE
  8
0
 62
     7
  5
B5
 10
8.0
 20
6.0
 30
10.0
 11
8.0
 21
4.0
 31
10.0
1001
AME_SOL
1070
     1
1071
       46
  0
LINE
  8
0
 62
     7
  5
B6
 10
10.0
 20
6.0
 30
0.0
 11
8.0
 21
6.0
 31
0.0
1001
AME_SOL
1070
     1
1071
       45
  0
LINE
  8
0
 62
     7
  5
B7
 10
8.0
 20
6.0
 30
0.0
 11
8.0
 21
4.0
 31
0.0
1001
AME_SOL
1070
     1
1071
       44
  0
LINE
  8
0
 62
     7
  5
B8
 10
10.0
 20
0.0
 30
0.0
 11
10.0
 21
6.0
 31
0.0
1001
AME_SOL
1070
     1
1071
       43
  0
LINE
  8
0
 62
     7
  5
B9
 10
5.0
 20
8.0
 30
0.0
 11
5.0
 21
4.0
 31
0.0
1001
AME_SOL
1070
     1
1071
       42
  0
LINE
  8
0
 62
     7
  5
BA
 10
0.0
 20
8.0
 30
0.0
 11
5.0
 21
8.0
 31
0.0
1001
AME_SOL
1070
     1
1071
       41
  0
LINE
  8
0
 62
     7
  5
BB
 10
5.0
 20
8.0
 30
0.0
 11
5.0
 21
8.0
 31
6.0
1001
AME_SOL
1070
     1
1071
       40
  0
LINE
  8
0
 62
     7
  5
BC
 10
2.0
 20
8.0
 30
10.0
 11
0.0
 21
8.0
 31
10.0
1001
AME_SOL
1070
     1
1071
       39
  0
LINE
  8
0
 62
     7
  5
BD
 10
0.0
 20
0.0
 30
0.0
 11
0.0
 21
8.0
 31
0.0
1001
AME_SOL
1070
     1
1071
       38
  0
LINE
  8
0
 62
     7
  5
BE
 10
0.0
 20
8.0
 30
0.0
 11
0.0
 21
8.0
 31
10.0
1001
AME_SOL
1070
     1
1071
       37
  0
LINE
  8
0
 62
     7
  5
BF
 10
0.0
 20
8.0
 30
10.0
 11
0.0
 21
0.0
 31
10.0
1001
AME_SOL
1070
     1
1071
       36
  0
LINE
  8
0
 62
     7
  5
C0
 10
4.0
 20
8.0
 30
6.0
 11
4.0
 21
8.0
 31
2.0
1001
AME_SOL
1070
     1
1071
       35
  0
LINE
  8
0
 62
     7
  5
C1
 10
2.0
 20
8.0
 30
2.0
 11
2.0
 21
8.0
 31
10.0
1001
AME_SOL
1070
     1
1071
       34
  0
LINE
  8
0
 62
     7
  5
C2
 10
2.0
 20
8.0
 30
10.0
 11
2.0
 21
4.0
 31
10.0
1001
AME_SOL
1070
     1
1071
       33
  0
LINE
  8
0
 62
     7
  5
C3
 10
8.0
 20
4.0
 30
0.0
 11
5.0
 21
4.0
 31
0.0
1001
AME_SOL
1070
     1
1071
       32
  0
LINE
  8
0
 62
     7
  5
C4
 10
2.0
 20
4.0
 30
2.0
 11
2.0
 21
4.0
 31
10.0
1001
AME_SOL
1070
     1
1071
       31
  0
LINE
  8
0
 62
     7
  5
C5
 10
5.0
 20
4.0
 30
6.0
 11
5.0
 21
4.0
 31
0.0
1001
AME_SOL
1070
     1
1071
       30
  0
LINE
  8
0
 62
     7
  5
C6
 10
4.0
 20
4.0
 30
6.0
 11
4.0
 21
4.0
 31
2.0
1001
AME_SOL
1070
     1
1071
       29
  0
LINE
  8
0
 62
     7
  5
C7
 10
8.0
 20
4.0
 30
0.0
 11
8.0
 21
4.0
 31
10.0
1001
AME_SOL
1070
     1
1071
       28
  0
LINE
  8
0
 62
     7
  5
C8
 10
2.0
 20
4.0
 30
10.0
 11
8.0
 21
4.0
 31
10.0
1001
AME_SOL
1070
     1
1071
       27
  0
LINE
  8
0
 62
     7
  5
C9
 10
2.0
 20
4.0
 30
2.0
 11
4.0
 21
4.0
 31
2.0
1001
AME_SOL
1070
     1
1071
       26
  0
LINE
  8
0
 62
     7
  5
CA
 10
2.0
 20
8.0
 30
2.0
 11
2.0
 21
4.0
 31
2.0
1001
AME_SOL
1070
     1
1071
       25
  0
LINE
  8
0
 62
     7
  5
CB
 10
4.0
 20
8.0
 30
2.0
 11
2.0
 21
8.0
 31
2.0
1001
AME_SOL
1070
     1
1071
       24
  0
LINE
  8
0
 62
     7
  5
CC
 10
4.0
 20
4.0
 30
2.0
 11
4.0
 21
8.0
 31
2.0
1001
AME_SOL
1070
     1
1071
       23
  0
LINE
  8
0
 62
     7
  5
CD
 10
4.0
 20
4.0
 30
6.0
 11
5.0
 21
4.0
 31
6.0
1001
AME_SOL
1070
     1
1071
       22
  0
LINE
  8
0
 62
     7
  5
CE
 10
5.0
 20
4.0
 30
6.0
 11
5.0
 21
8.0
 31
6.0
1001
AME_SOL
1070
     1
1071
       21
  0
LINE
  8
0
 62
     7
  5
CF
 10
5.0
 20
8.0
 30
6.0
 11
4.0
 21
8.0
 31
6.0
1001
AME_SOL
1070
     1
1071
       20
  0
LINE
  8
0
 62
     7
  5
D0
 10
4.0
 20
4.0
 30
6.0
 11
4.0
 21
8.0
 31
6.0
1001
AME_SOL
1070
     1
1071
       19
  0
LINE
  8
0
 62
     7
  5
D1
 10
10.0
 20
0.0
 30
0.0
 11
0.0
 21
0.0
 31
0.0
1001
AME_SOL
1070
     1
1071
       18
  0
LINE
  8
0
 62
     7
  5
D2
 10
0.0
 20
0.0
 30
0.0
 11
0.0
 21
0.0
 31
10.0
1001
AME_SOL
1070
     1
1071
       17
  0
LINE
  8
0
 62
     7
  5
D3
 10
10.0
 20
0.0
 30
10.0
 11
10.0
 21
0.0
 31
0.0
1001
AME_SOL
1070
     1
1071
       16
  0
LINE
  8
0
 62
     7
  5
D4
 10
0.0
 20
0.0
 30
10.0
 11
10.0
 21
0.0
 31
10.0
1001
AME_SOL
1070
     1
1071
       15
  0
ENDBLK
  8
0
  5
D5
  0
BLOCK
  8
0
  5
D9
  2
AME_MAT
 70
    64
 10
0.0
 20
0.0
 30
0.0
  1
AME_MAT
  3
AME_MAT
  0
ENDBLK
  8
0
  5
DA
  0
ENDSEC
  0
SECTION
  2
ENTITIES
  0
INSERT
  8
AME_FRZ
  5
3
  2
AME_NIL
 10
0.0
 20
0.0
 30
0.0
  0
INSERT
  8
AME_FRZ
  5
6
  2
AME_SOL
 10
0.0
 20
0.0
 30
0.0
1001
AME_SOL
1000
1.0
1000
sq cm
1070
     3
1070
     0
1070
     3
1000
wire
1040
0.0
1000
NONE
1040
1.0
1000
cm
1000
gm
1000
MILD_STEEL
1070
    25
1000
CSG
1070
     3
1070
     2
1070
     3
1000
cu cm
1070
     4
1070
     0
1005
3
  0
INSERT
  8
AME_FRZ
  5
48
  2
*U2
 10
0.0
 20
0.0
 30
0.0
1001
AME_SOL
1002
{
1070
     0
1071
  1947168
1070
  1536
1010
10.0
1020
4.0
1030
10.0
1005
0
1005
0
1005
D6
1040
0.0
1040
1.0
1000
MILD_STEEL
1000
0
1010
0.0
1020
0.0
1030
0.0
1010
0.0
1020
0.0
1030
1.0
1040
0.0
1002
}
  0
INSERT
  8
AME_FRZ
  5
59
  2
*U3
 10
0.0
 20
4.0
 30
0.0
1001
AME_SOL
1002
{
1070
     0
1071
  1951856
1070
  1536
1010
5.0
1020
4.0
1030
10.0
1005
0
1005
0
1005
9A
1040
0.0
1040
1.0
1000
MILD_STEEL
1000
0
1010
0.0
1020
4.0
1030
0.0
1010
0.0
1020
0.0
1030
1.0
1040
0.0
1002
}
  0
INSERT
  8
AME_FRZ
  5
6A
  2
*U4
 10
2.0
 20
4.0
 30
2.0
1001
AME_SOL
1002
{
1070
     0
1071
  1977904
1070
  1536
1010
2.0
1020
4.0
1030
8.0
1005
0
1005
0
1005
7E
1040
0.0
1040
1.0
1000
MILD_STEEL
1000
0
1010
2.0
1020
4.0
1030
2.0
1010
0.0
1020
0.0
1030
1.0
1040
0.0
1002
}
  0
INSERT
  8
AME_FRZ
  5
7B
  2
*U5
 10
4.0
 20
4.0
 30
6.0
1001
AME_SOL
1002
{
1070
     0
1071
  1990224
1070
  1536
1010
1.0
1020
4.0
1030
4.0
1005
0
1005
0
1005
7E
1040
0.0
1040
1.0
1000
MILD_STEEL
1000
0
1010
4.0
1020
4.0
1030
6.0
1010
0.0
1020
0.0
1030
1.0
1040
0.0
1002
}
  0
INSERT
  8
AME_FRZ
  5
7E
  2
AME_NIL
 10
0.0
 20
0.0
 30
0.0
1001
AME_SOL
1002
{
1070
     0
1071
  2017808
1070
   775
1070
     2
1005
6A
1005
7B
1005
0
1005
0
1005
9A
1040
0.0
1040
1.0
1000
MILD_STEEL
1000
0
1010
0.0
1020
0.0
1030
0.0
1010
0.0
1020
0.0
1030
1.0
1040
0.0
1002
}
  0
INSERT
  8
AME_FRZ
  5
9A
  2
*U6
 10
0.0
 20
0.0
 30
0.0
1001
AME_SOL
1002
{
1070
     0
1071
  2024424
1070
  1543
1070
     0
1005
59
1005
7E
1005
0
1005
0
1005
AE
1040
0.0
1040
1.0
1000
MILD_STEEL
1000
0
1010
0.0
1020
0.0
1030
0.0
1010
0.0
1020
0.0
1030
1.0
1040
0.0
1002
}
  0
INSERT
  8
AME_FRZ
  5
AB
  2
*U7
 10
8.0
 20
4.0
 30
0.0
1001
AME_SOL
1002
{
1070
     0
1071
  1991792
1070
  1536
1010
2.0
1020
2.0
1030
10.0
1005
0
1005
0
1005
AE
1040
0.0
1040
1.0
1000
MILD_STEEL
1000
0
1010
8.0
1020
4.0
1030
0.0
1010
0.0
1020
0.0
1030
1.0
1040
0.0
1002
}
  0
INSERT
  8
AME_FRZ
  5
AE
  2
AME_NIL
 10
0.0
 20
0.0
 30
0.0
1001
AME_SOL
1002
{
1070
     0
1071
  2011920
1070
   775
1070
     2
1005
AB
1005
9A
1005
0
1005
0
1005
D6
1040
0.0
1040
1.0
1000
MILD_STEEL
1000
0
1010
0.0
1020
0.0
1030
0.0
1010
0.0
1020
0.0
1030
1.0
1040
0.0
1002
}
  0
INSERT
  8
0
  5
D6
  2
*U8
 10
0.0
 20
0.0
 30
0.0
1001
AME_SOL
1002
{
1070
     0
1071
  2050232
1070
  1543
1070
     2
1005
AE
1005
48
1005
0
1005
D7
1005
0
1040
0.0
1040
1.0
1000
MILD_STEEL
1000
0
1002
}
  0
INSERT
  8
AME_FRZ
  5
D7
  2
AME_NIL
 10
1.0
 20
1.0
 30
1.0
1001
AME_SOL
1004
E903A9FB0100F0FFFFFF000052F70E0001000000A926EBBAA926EBBAA926EBBA59072041F00500415907204101000000FBF20400A926EBBAA926EBBAA926EBBA59072041A926EB3A590720410100844E187D1F00010000000100CD000000844E00000000803F000000000000000000000000000000000000
1004
803F00000000000000000000000005000000000000000000000000000000000000000000844E00000000803F000000000000000000000000000000000000803F00000000000000000000000005000000000000000000000000000000000001000000FBF2040000EC7F4000EC7F4000F6BF40000AA0400005
1004
0041000AC0400100844E087E1F00FFFF000001005E020000844E0000000000000000803F000000000000803F000000000000000000008040000080400000C04005000000000000000000000000000000000000000000844E0000000000000000803F000000000000803F0000000000000000000080400000
1004
80400000C040050000000000000000000000000000000000FFFFFFFFFBF2040000D8FF3F00EC7F4000D8FF3F000A804000050041001400400100844EF87E1F00FFFF00000100C2020000844E0000000000000000803F000000000000803F0000000000000000000000400000804000000040050000000000
1004
00000000000000000000000000000000844E0000000000000000803F000000000000803F0000000000000000000000400000804000000040050000000000000000000000000000000000FFFFFFFFFBF20800A926EBBA9BE27F40A926EBBA59072041B20E8040590720410100844E90B01F00FFFF00000300
1004
CA000000844E00000000008000000080000080BF000080BF0000008000000080000020410000804000002041050000000000000000000000000000000000000000005D020000844E00000000803F000000000000000000000000000000000000803F00008040000080400000C04005000000000000000000
1004
000000000000000000000000C1020000844E00000000803F000000000000000000000000000000000000803F00000040000080400000004005000000000000000000000000000000000000000000844E00000000803F000000000000000000000000000000000000803F0000004100008040000000000500
1004
00000000000000000000000000000000FFFFFFFFFBF2040000D8FF3F00EC7F4000D8FF3F0014004000050041000520410100844E80B11F00FFFF00000100C0020000844E000000000000000000000000803F000000000000803F000000000000004000008040000000400500000000000000000000000000
1004
0000000000000000844E000000000000000000000000803F000000000000803F00000000000000400000804000000040050000000000000000000000000000000000FFFFFFFFFBF2040000EC7F4000EC7F4000D8FF3F000A804000050041000520410100844E70B21F00FFFF00000100BD020000844E0000
1004
00000080000080BF000000800000008000000080000080BF00008040000000410000204105000000000000000000000000000000000000000000844E000000000080000080BF000000800000008000000080000080BF000080400000004100002041050000000000000000000000000000000000FFFFFFFF
1004
FBF20400A926EBBAA926EBBAA926EBBAA926EB3AB20E8040590720410100844E70B31F00010000000200CC000000844E000000000000000000000000803F000000000000803F000000000000000000000000000000000500000000000000000000000000000000000000000024030000844E000000000000
1004
000000000000803F000000000000803F0000000000000000000080400000000005000000000000000000000000000000000000000000844E000000000000000000000000803F000000000000803F0000000000000000000080400000000005000000000000000000000000000000000001000000FBF20800
1004
4EFDBDBA20F4FF404EFDBDBAE00BA040F0050041F00520410100844E60B41F0001000000010022030000844E00000000008000000080000080BF000080BF00000080000000800000A040000000410000204105000000000000000000000000000000000000000000844E00000000008000000080000080BF
1004
000080BF00000080000000800000A040000000410000204105000000000000000000000000000000000001000000FBF2040020F49F4040E87F404EFDBDBAE00BA040F0050041F00520410100844E50B51F0001000000010021030000844E000000000080000080BF000000800000008000000080000080BF
1004
0000A040000000410000204105000000000000000000000000000000000000000000844E000000000080000080BF000000800000008000000080000080BF0000A040000000410000204105000000000000000000000000000000000001000000FBF20800A926EBBAA926EBBAA926EBBA59072041B20E8040
1004
A926EB3A0100844E60B61F00010000000300CE000000844E0000000000000000803F000000000000803F00000000000000000000000000000000000000000500000000000000000000000000000000000000000026030000844E0000000000000000803F000000000000803F000000000000000000000000
1004
0000804000000000050000000000000000000000000000000000000000008A030000844E0000000000000000803F000000000000803F000000000000000000000041000080400000000005000000000000000000000000000000000000000000844E0000000000000000803F000000000000803F00000000
1004
0000000000000041000080400000000005000000000000000000000000000000000001000000FBF204009CF5FF4037EB7F40E146A6BA32050041640AC040320520410100844E50B71F0001000000010088030000844E000000000000000000000000803F000000000000803F000000000000004100008040
1004
0000000005000000000000000000000000000000000000000000844E000000000000000000000000803F000000000000803F0000000000000041000080400000000005000000000000000000000000000000000001000000FBF20800A926EBBAA926EBBAA7F81F4159072041B20E8040590720410100844E
1004
50A51D00010000000300CB000000844E0000000080BF000000800000008000000080000080BF000000800000204100008040000020410500000000000000000000000000000000000000000023030000844E0000000080BF000000800000008000000080000080BF000000800000A0400000004100002041
1004
0500000000000000000000000000000000000000000087030000844E0000000080BF000000800000008000000080000080BF00000080000020410000C0400000204105000000000000000000000000000000000000000000844E0000000080BF000000800000008000000080000080BF0000008000002041
1004
0000C0400000204105000000000000000000000000000000000001000000FBF204009CF5FF409CF5BF40E146A6BA32052041640AC040320520410100844EC0CE1D0001000000010086030000844E00000000008000000080000080BF000080BF0000008000000080000020410000C0400000204105000000
1004
000000000000000000000000000000000000844E00000000008000000080000080BF000080BF0000008000000080000020410000C0400000204105000000000000000000000000000000000001000000FBF20400A7F81F41A926EBBAA926EBBA59072041B20E8040590720410100844E98D01D0001000000
1004
0200C9000000844E000000000080000080BF000000800000008000000080000080BF0000204100008040000020410500000000000000000000000000000000000000000085030000844E000000000080000080BF000000800000008000000080000080BF000020410000C040000020410500000000000000
1004
0000000000000000000000000000844E000000000080000080BF000000800000008000000080000080BF000020410000C0400000204105000000000000000000000000000000000001000000A4EEA926EBBAA926EBBAA7F81F4159072041A926EB3A590720410000A0C00000A04002009675B8DF1D000000
1004
FFFF0100187D1F0050A51D0000000200187D1F0050A51D0001000000010000009675000000000000000000000000803F00000000000080BF000000000000A040000000000000204102000000A0C00000A040A4EEA7F81F41A926EBBAA926EBBA59072041A926EB3A590720410000A0C00000A04002009675
1004
48DC1D000000FFFF0100187D1F0098D01D0000000200187D1F0098D01D000100000001000000967500000000803F000000000000000000000000000080BF0000000000002041000000000000A04002000000A0C00000A040A4EEA926EBBAA926EBBAA926EBBAA926EB3AA926EB3A59072041000000000000
1004
20410200967558F31D000000FFFF0100187D1F0070B31F0000000200187D1F0070B31F00010000000100000096750000000080BF000000000000000000000000000080BF0000000000000000000000000000000002000000000000002041A4EEA926EBBAA926EBBAA926EBBA59072041A926EB3AA926EB3A
1004
0000C0C00000804002009675A0EF1D000000FFFF0100187D1F0060B61F0000000200187D1F0060B61F000100000001000000967500000000000000000000000080BF00000000000080BF0000000000008040000000000000000002000000C0C000008040A4EE00EC7F4000EC7F4000F6BF40000A80400005
1004
0041000AC040010000C0FFFFFF3F02009675A81A1E000000FFFF0100087E1F0070B21F0000000200087E1F0070B21F00FFFFFFFFFFFFFFFF967500000000803F00000000000000000000000000000000000080BF000080400000C0400000C0400200010000C0FFFFFF3FA4EE00EC7F4020F4FF4000F6BF40
1004
000AA04000050041000AC040020000BFFAFFFF3E02009675F01C1E0000000100FFFF087E1F0060B41F000000020060B41F00087E1F0001000000FFFFFFFF96750000000000000000803F000000000000000000000000000080BF00009040000000410000C0400200020000BFFAFFFF3EA4EE20F49F4000EC
1004
7F4000F6BF40000AA04000050041000AC040010000C0FFFFFF3F0200967530131E0000000100FFFF087E1F0050B51F000000020050B51F00087E1F0001000000FFFFFFFF967500000000803F00000000000000000000000000000000000080BF0000A0400000C0400000C0400200010000C0FFFFFF3FA4EE
1004
00EC7F4000EC7F4000F6BF40000AA040B20E8040000AC040010000C0020080BF02009675F0141E0000000100FFFF087E1F0090B01F000000020090B01F00087E1F00FFFFFFFFFFFFFFFF9675000000000000000080BF000000000000000000000000000080BF0000C040000080400000C0400200010000C0
1004
020080BFA4EE00EC7F4000EC7F4000D8FF3F000A80400005004100140040010000C0FFFFFF3F0200967598041E0000000100FFFFF87E1F0070B21F000000020070B21F00F87E1F00FFFFFFFFFFFFFFFF967500000000803F00000000000000000000000000000000000080BF000080400000C04000000040
1004
0200010000C0FFFFFF3FA4EE00D8FF3F20F4FF4000D8FF3F000A80400005004100140040FAFFFFBE0200C03F0200967520F61D0000000100FFFFF87E1F0060B41F000000020060B41F00F87E1F0001000000FFFFFFFF96750000000000000000803F000000000000000000000000000080BF010060400000
1004
0041000000400200FAFFFFBE0200C03FA4EE00D8FF3F00EC7F4000D8FF3F001400400005004100140040000080C0000000800200967560691F0000000100FFFFF87E1F0080B11F000000020080B11F00F87E1F00FFFFFFFFFFFFFFFF96750000000080BF00000000000000000000000000000000000080BF
1004
0000004000008040000000400200000080C000000080A4EE00D8FF3F00EC7F4000D8FF3F000A8040B20E804000140040000040C0FFFF7FBF02009675F0691F0000000100FFFFF87E1F0090B01F000000020090B01F00F87E1F00FFFFFFFFFFFFFFFF9675000000000000000080BF00000000000000000000
1004
0000000080BF0000A04000008040000000400200000040C0FFFF7FBFA4EEA926EBBA9BE27F40A7F81F4159072041B20E8040590720410000E0C0FAFF7FBF02009675B02D1E0000000100FFFF90B01F0050A51D000000020050A51D0090B01F0001000000FFFFFFFF9675000000000000000000000000803F
1004
00000000000080BF0000000000001041000080400000204102000000E0C0FAFF7FBFA4EE9CF5FF4037EB7F40E146A6BA32050041B20E804032052041000000000000204102009675202C1E000000FFFF010090B01F0050B71F000000020090B01F0050B71F00FFFFFFFF0100000096750000000080BF0000
1004
00000000000000000000000080BF0000000000000041000080400000000002000000000000002041A4EE00EC7F4000EC7F4000D8FF3F000A8040B20E804000052041020080BF0000404002009675D89F1E0000000100FFFF90B01F0070B21F000000020070B21F0090B01F00FFFFFFFFFFFFFFFF96750000
1004
0000803F000000000000000000000000000080BF0000000000008040000080400000A0400200020080BF00004040A4EE20F49F4040E87F404EFDBDBAE00BA040B20E8040F0052041020080BF0000A04002009675B0A01E000000FFFF010090B01F0050B51F000000020090B01F0050B51F00FFFFFFFF0100
1004
0000967500000000803F000000000000000000000000000080BF000000000000A040000080400000A0400200020080BF0000A040A4EE00D8FF3F00EC7F4000D8FF3F00140040B20E8040000520410000803F000010410200967540A11E0000000100FFFF90B01F0080B11F000000020080B11F0090B01F00
1004
FFFFFFFFFFFFFFFF96750000000080BF000000000000000000000000000080BF0000000000000040000080400000803F02000000803F00001041A4EEA926EBBA9BE27F40A926EBBA59072041B20E8040A926EB3A00000080000040400200967518B01E0000000100FFFF90B01F0060B61F000000020060B6
1004
1F0090B01F0001000000FFFFFFFF967500000000000000000000000080BF00000000000080BF0000000000000041000080400000000002000000008000004040A4EE00D8FF3F00EC7F40A7F81F41001400400005004100052041000040C0FFFF7F3F0200967560DD1E0000000100FFFF80B11F0050A51D00
1004
0000020050A51D0080B11F0001000000FFFFFFFF9675000000000000000000000000803F000080BF0000000000000000FFFFFF3F0000A040000020410200000040C0FFFF7F3FA4EE00D8FF3F20F4FF4000D8FF3F001400400005004100052041010080C0FFFF7F4002009675D0A11E0000000100FFFF80B1
1004
1F0060B41F000000020060B41F0080B11F0001000000FFFFFFFF96750000000000000000803F00000000000080BF0000000000000000FFFFFF3F000000410000C0400200010080C0FFFF7F40A4EE00EC7F4020F4FF4000D8FF3F000A80400005004100052041FFFF7F400000004102009675909F1E000000
1004
0100FFFF70B21F0060B41F000000020060B41F0070B21F0001000000FFFFFFFF96750000000000000000803F000000000000803F00000000000000000000804000000041000020410200FFFF7F4000000041A4EEA926EBBAA926EBBAA7F81F41A926EB3AF005004159072041000040C00000A04002009675
1004
F0DD1E000000FFFF010070B31F0050A51D000000020070B31F0050A51D0001000000010000009675000000000000000000000000803F000080BF0000000000000000000000000000A040000020410200000040C00000A040A4EE4EFDBDBA20F4FF404EFDBDBA4EFDBD3AF0050041F00520410000A0C00000
1004
A0400200967510DF1E000000FFFF010070B31F0060B41F000000020070B31F0060B41F00010000000100000096750000000000000000803F00000000000080BF000000000000000000000000000000410000A04002000000A0C00000A040A4EEA926EBBAA926EBBAA926EBBAA926EB3AF0050041A926EB3A
1004
000080C0000080400200967538E01E000000FFFF010070B31F0060B61F000000020070B31F0060B61F000100000001000000967500000000000000000000000080BF000080BF00000000000000000000000000008040000000000200000080C000008040A4EE4EFDBDBA20F4FF4010FA1F41E00BA040F005
1004
0041F00520410000B0400000F0400200967580E01E000000FFFF010060B41F0050A51D000000020060B41F0050A51D0001000000010000009675000000000000000000000000803F000000000000803F000000800000F040000000410000204102000000B0400000F040A4EE20F49F4020F4FF404EFDBDBA
1004
E00BA040F0050041F0052041000020C1FFFF7FC002009675D8051F000000FFFF010060B41F0050B51F000000020060B41F0050B51F000100000001000000967500000000803F0000000000000000000000000000803F000000000000A04000000041000020410200000020C1FFFF7FC0A4EE4EFDBDBA20F4
1004
FF404EFDBDBAE00BA040F00500414EFDBD3AFFFFCFC0FEFFBFBF0200967530E21E000000FFFF010060B41F0060B61F000000020060B41F0060B61F000100000001000000967500000000000000000000000080BF000000000000803F00000000FFFFCF4000000041000000000200FFFFCFC0FEFFBFBFA4EE
1004
20F49F4040E87F404EFDBDBAE00BA040F0050041A926EB3AFFFFFFBF010000400200967568061F000000FFFF010050B51F0060B61F000000020050B51F0060B61F000100000001000000967500000000000000000000000080BF0000803F00000000000000000000A0400000C040000000000200FFFFFFBF
1004
01000040A4EEA7F81F41A926EBBAA926EBBA59072041640AC040A926EB3A0000A0C00200803F0200967500131F000000FFFF010060B61F0098D01D000000020060B61F0098D01D000100000001000000967500000000803F00000000000000000000000000000000000080BF000020410000A04000000000
1004
02000000A0C00200803FA4EE9CF5FF4037EB7F40E146A6BA32050041640AC040A926EB3A010000C0000000800200967510111F000000FFFF010060B61F0050B71F000000020060B61F0050B71F00010000000100000096750000000080BF00000000000000000000000000000000000080BF000000410000
1004
8040000000000200010000C000000080A4EE9CF5FF409CF5BF40E146A6BA32052041640AC040E146A63A020080BFFAFF7F3F0200967530101F000000FFFF010060B61F00C0CE1D000000020060B61F00C0CE1D00010000000100000096750000000000000000803F000000000000000000000000000080BF
1004
000010410000C040000000000200020080BFFAFF7F3FA4EE9CF5FF4037EB7F40A7F81F4132050041640AC04032052041020080BFFFFF7F3F0200967560161F000000FFFF010050B71F0050A51D000000020050B71F0050A51D0001000000010000009675000000000000000000000000803F000080BF0000
1004
000000000000000000410000A040000020410200020080BFFFFF7F3FA4EE9CF5FF409CF5BF40E146A6BA32050041640AC040320520410000A0C00000A04002009675F8261F000000FFFF010050B71F00C0CE1D000000020050B71F00C0CE1D00010000000100000096750000000000000000803F00000000
1004
000080BF0000000000000000000000410000C0400000A04002000000A0C00000A040A4EEA7F81F41A926EBBAA7F81F4159072041640AC04059072041000000000000C0400200967518281F000000FFFF010050A51D0098D01D000000020050A51D0098D01D000100000001000000967500000000803F0000
1004
00000000000000000080000000000000803F000020410000C040000020410200000000000000C040A4EE9CF5FF409CF5BF40CEFA1F4132052041640AC04032052041FFFFFFBF0000008002009675682B1F000000FFFF010050A51D00C0CE1D000000020050A51D00C0CE1D00010000000100000096750000
1004
000000000000803F0000000000000000000000000000803F000020410000C040000020410200FFFFFFBF00000080A4EECEFA1F419CF5BF40E146A6BA32052041640AC04032052041000020C10000008002009675002F1F000000FFFF0100C0CE1D0098D01D0000000200C0CE1D0098D01D00010000000100
1004
0000967500000000803F0000000000000000000000000000803F00000000000020410000C040000020410200000020C10000008019FC
1005
D8
  0
INSERT
  8
AME_FRZ
  5
D8
  2
AME_NIL
 10
1.0
 20
1.0
 30
1.0
1001
AME_SOL
1004

1005
0
  0
INSERT
  8
AME_FRZ
  5
DB
  2
AME_MAT
 10
0.0
 20
0.0
 30
0.0
1001
AME_SOL
1000
MILD_STEEL
1040
7860.0
1040
220.0
1040
0.275
1040
207.0
1040
345.0
1040
56.0
1040
12.0
1040
0.46
  0
ENDSEC
  0
EOF
