600 0 2 0           
24 FBMach with ACIS - 6.0.3 13 ACIS 6.0.3 NT 24 Tue May 22 15:34:53 2001 
1 9.9999999999999995e-007 1e-010 
body $2 $3 $-1 $4 #
bdycol-kcp $-1 1 4 $5 $6 $7 $8 #
model_id-kcp-attrib $-1 $-1 $-1 $0 1 990560092 40 -785907711 1 #
lump $-1 $-1 $9 $0 #
transform $-1 1 0 0 0 1 0 0 0 1 0 0 0 1 no_rotate no_reflect no_shear #
body $10 $11 $-1 $12 #
body $13 $14 $-1 $15 #
body $16 $17 $-1 $18 #
body $19 $20 $-1 $21 #
shell $-1 $-1 $-1 $22 $-1 $3 #
model_id-kcp-attrib $-1 $-1 $-1 $5 1 990560092 40 -785907710 1 #
lump $-1 $-1 $23 $5 #
transform $-1 1 0 0 0 1 0 0 0 1 0 0 0.25 1 no_rotate no_reflect no_shear #
rgb_color-st-attrib $-1 $24 $-1 $6 0.5 1 1 #
lump $-1 $-1 $25 $6 #
transform $-1 1 0 0 0 1 0 0 0 1 -2.125 0 0.25 1 no_rotate no_reflect no_shear #
rgb_color-st-attrib $-1 $26 $-1 $7 0.5 1 1 #
lump $-1 $-1 $27 $7 #
transform $-1 1 0 0 0 1 0 0 0 1 2.125 0 0.25 1 no_rotate no_reflect no_shear #
rgb_color-st-attrib $-1 $28 $-1 $8 0.5 1 1 #
lump $-1 $29 $30 $8 #
transform $-1 1 0 0 0 1 0 0 0 1 0 0 0.25 1 no_rotate no_reflect no_shear #
face $31 $32 $33 $9 $-1 $34 reversed single #
shell $-1 $-1 $-1 $35 $-1 $11 #
model_id-kcp-attrib $-1 $-1 $13 $6 1 990560092 70 -783941629 1 #
shell $-1 $-1 $-1 $36 $-1 $14 #
model_id-kcp-attrib $-1 $-1 $16 $7 1 990560092 80 -783286268 1 #
shell $-1 $-1 $-1 $37 $-1 $17 #
model_id-kcp-attrib $-1 $-1 $19 $8 1 990560092 160 -778043387 1 #
lump $-1 $-1 $38 $8 #
shell $-1 $-1 $-1 $39 $-1 $20 #
model_id-kcp-attrib $-1 $40 $-1 $22 1 990560092 40 -785907711 10 #
face $41 $42 $43 $9 $-1 $44 forward single #
loop $45 $46 $47 $22 #
plane-surface $-1 0 0 0 0 0 1 1 0 0 forward_v I I I I #
face $48 $49 $50 $23 $-1 $51 forward single #
face $-1 $52 $53 $25 $-1 $54 forward single #
face $-1 $55 $56 $27 $-1 $57 forward single #
shell $-1 $-1 $-1 $58 $-1 $29 #
face $-1 $59 $60 $30 $-1 $61 reversed single #
model_id-kcp-attrib $-1 $-1 $31 $22 1 990560092 40 -785907711 2 #
model_id-kcp-attrib $-1 $62 $-1 $32 1 990560092 40 -785907711 13 #
face $63 $64 $65 $9 $-1 $66 reversed single #
loop $67 $68 $69 $32 #
plane-surface $-1 0 0 0.5 0 0 1 1 0 0 forward_v I I I I #
model_id-kcp-attrib $-1 $-1 $-1 $33 1 990560092 40 -785907711 17 #
loop $70 $71 $72 $22 #
coedge $-1 $47 $47 $73 $74 forward $33 $-1 #
model_id-kcp-attrib $-1 $-1 $-1 $35 1 990560092 40 -785907710 3 #
face $75 $76 $77 $23 $-1 $78 reversed single #
loop $-1 $-1 $79 $35 #
plane-surface $-1 0 0 0.25 0 0 1 1 0 0 forward_v I I I I #
face $-1 $80 $81 $25 $-1 $82 forward single #
loop $-1 $83 $84 $36 #
cone-surface $-1 0 0 0 0 0 1 0.4375 0 0 1 I I 0 1 0.4375 forward I I I I #
face $-1 $85 $86 $27 $-1 $87 forward single #
loop $-1 $88 $89 $37 #
cone-surface $-1 0 0 0 0 0 1 0.4375 0 0 1 I I 0 1 0.4375 forward I I I I #
face $-1 $90 $91 $38 $-1 $92 reversed single #
face $-1 $93 $94 $30 $-1 $61 reversed single #
loop $-1 $-1 $95 $39 #
cone-surface $-1 -2.125 0 -0.25 0 0 -1 0 -0.75 0 1 I I 0 1 0.75 forward I I I I #
model_id-kcp-attrib $-1 $-1 $41 $32 1 990560092 40 -785907711 3 #
model_id-kcp-attrib $-1 $-1 $-1 $42 1 990560092 40 -785907711 4 #
face $96 $97 $98 $9 $-1 $99 reversed single #
loop $100 $101 $102 $42 #
cone-surface $-1 -2.125 0 0 0 0 1 0.4375 0 0 1 I I 0 1 0.4375 forward I I I I #
model_id-kcp-attrib $-1 $-1 $-1 $43 1 990560092 40 -785907711 16 #
loop $103 $104 $105 $32 #
coedge $-1 $69 $69 $102 $106 reversed $43 $-1 #
model_id-kcp-attrib $-1 $-1 $-1 $46 1 990560092 40 -785907711 23 #
loop $-1 $-1 $107 $22 #
coedge $-1 $72 $72 $108 $109 forward $46 $-1 #
coedge $-1 $73 $73 $47 $74 reversed $101 $-1 #
edge $110 $111 -3.1415926535897931 $111 3.1415926535897931 $73 $112 forward 7 unknown #
model_id-kcp-attrib $-1 $-1 $-1 $49 1 990560092 40 -785907710 2 #
face $113 $114 $115 $23 $-1 $116 reversed single #
loop $-1 $-1 $117 $49 #
plane-surface $-1 0 0 -0.25 0 0 1 1 0 0 forward_v I I I I #
coedge $-1 $118 $119 $120 $121 forward $50 $-1 #
face $-1 $-1 $122 $25 $-1 $123 forward single #
loop $-1 $-1 $124 $52 #
plane-surface $-1 0 0 -0.25 0 0 -1 -1 0 0 forward_v I I I I #
loop $-1 $-1 $125 $36 #
coedge $-1 $84 $84 $124 $126 reversed $53 $-1 #
face $-1 $-1 $127 $27 $-1 $128 forward single #
loop $-1 $-1 $129 $55 #
plane-surface $-1 0 0 -0.25 0 0 -1 -1 0 0 forward_v I I I I #
loop $-1 $-1 $130 $37 #
coedge $-1 $89 $89 $129 $131 reversed $56 $-1 #
face $-1 $132 $133 $38 $-1 $134 forward single #
loop $-1 $-1 $135 $58 #
plane-surface $-1 2.875 0 0 -1 0 0 0 0 1 forward_v I I I I #
face $-1 $136 $137 $30 $-1 $138 reversed single #
loop $-1 $-1 $139 $59 #
coedge $-1 $140 $141 $142 $143 reversed $60 $-1 #
model_id-kcp-attrib $-1 $-1 $-1 $64 1 990560092 40 -785907711 5 #
face $144 $145 $146 $9 $-1 $147 forward single #
loop $148 $149 $150 $64 #
cone-surface $-1 2.125 0 0 0 0 1 0.4375 0 0 1 I I 0 1 0.4375 forward I I I I #
model_id-kcp-attrib $-1 $-1 $-1 $65 1 990560092 40 -785907711 14 #
loop $151 $-1 $73 $42 #
coedge $-1 $102 $102 $69 $106 forward $65 $-1 #
model_id-kcp-attrib $-1 $-1 $-1 $68 1 990560092 40 -785907711 22 #
loop $-1 $-1 $152 $32 #
coedge $-1 $105 $105 $150 $153 reversed $68 $-1 #
edge $154 $155 0 $155 6.2831853071795862 $102 $156 forward 7 unknown #
coedge $-1 $157 $158 $159 $160 forward $71 $-1 #
coedge $-1 $108 $108 $72 $109 reversed $149 $-1 #
edge $161 $162 -3.1415926535897931 $162 3.1415926535897931 $108 $163 forward 7 unknown #
attrib_edge_convexity-kcp-attrib $-1 $164 $-1 $74 1 #
vertex $165 $74 $166 #
ellipse-curve $-1 -2.125 0 0 0 0 1 -0.4375 0 0 1 I I #
model_id-kcp-attrib $-1 $-1 $-1 $76 1 990560092 40 -785907710 5 #
face $-1 $167 $168 $23 $-1 $169 reversed single #
loop $-1 $-1 $170 $76 #
plane-surface $-1 0 -0.75 0 0 1 0 0 0 1 forward_v I I I I #
coedge $-1 $171 $172 $173 $174 forward $77 $-1 #
coedge $-1 $175 $79 $176 $177 forward $50 $-1 #
coedge $-1 $79 $175 $178 $179 forward $50 $-1 #
coedge $-1 $180 $181 $79 $121 reversed $182 $-1 #
edge $-1 $183 -0.75 $184 0.75 $120 $185 forward 7 unknown #
loop $-1 $-1 $186 $80 #
plane-surface $-1 0 0 0.25 0 0 1 1 0 0 forward_v I I I I #
coedge $-1 $124 $124 $84 $126 forward $81 $-1 #
coedge $-1 $125 $125 $186 $187 reversed $83 $-1 #
edge $-1 $188 0 $188 6.2831853071795862 $124 $189 forward 7 unknown #
loop $-1 $-1 $190 $85 #
plane-surface $-1 0 0 0.25 0 0 1 1 0 0 forward_v I I I I #
coedge $-1 $129 $129 $89 $131 forward $86 $-1 #
coedge $-1 $130 $130 $190 $191 reversed $88 $-1 #
edge $-1 $192 0 $192 6.2831853071795862 $129 $193 forward 7 unknown #
face $-1 $194 $195 $38 $-1 $134 forward single #
loop $-1 $-1 $196 $90 #
plane-surface $-1 0 0 0.25 0 0 1 1 0 0 forward_v I I I I #
coedge $-1 $197 $198 $199 $200 forward $91 $-1 #
face $-1 $201 $202 $30 $-1 $203 reversed single #
loop $-1 $-1 $204 $93 #
plane-surface $-1 -2.875 0 0 1 0 0 0 0 -1 forward_v I I I I #
coedge $-1 $205 $206 $207 $208 reversed $94 $-1 #
coedge $-1 $209 $95 $210 $211 reversed $60 $-1 #
coedge $-1 $95 $209 $205 $212 forward $60 $-1 #
coedge $-1 $213 $214 $95 $143 forward $215 $-1 #
edge $-1 $216 -3.1415926535897931 $217 -1.5707963267948966 $142 $218 forward 7 unknown #
model_id-kcp-attrib $-1 $-1 $-1 $97 1 990560092 40 -785907711 6 #
face $219 $220 $221 $9 $-1 $222 forward single #
loop $-1 $-1 $159 $97 #
cone-surface $-1 2.125 0 0 0 0 1 0.75 0 0 1 I I 0 1 0.75 forward I I I I #
model_id-kcp-attrib $-1 $-1 $-1 $98 1 990560092 40 -785907711 20 #
loop $223 $-1 $108 $64 #
coedge $-1 $150 $150 $105 $153 forward $98 $-1 #
model_id-kcp-attrib $-1 $-1 $-1 $101 1 990560092 40 -785907711 15 #
coedge $-1 $224 $225 $226 $227 reversed $104 $-1 #
edge $228 $229 0 $229 6.2831853071795862 $150 $230 forward 7 unknown #
attrib_edge_convexity-kcp-attrib $-1 $231 $-1 $106 1 #
vertex $232 $106 $233 #
ellipse-curve $-1 -2.125 0 0.5 0 0 1 0.4375 0 0 1 I I #
coedge $-1 $234 $107 $235 $236 forward $71 $-1 #
coedge $-1 $107 $234 $237 $238 forward $71 $-1 #
coedge $-1 $239 $240 $107 $160 reversed $146 $-1 #
edge $241 $242 -3.1415926535897931 $243 0 $159 $244 forward 7 unknown #
attrib_edge_convexity-kcp-attrib $-1 $245 $-1 $109 1 #
vertex $246 $109 $247 #
ellipse-curve $-1 2.125 0 0 0 0 1 -0.4375 0 0 1 I I #
convexity-sys-attrib $-1 $-1 $110 $74 #
model_id-kcp-attrib $-1 $-1 $-1 $111 1 990560092 40 -785907711 19 #
point $-1 -1.6875 0 0 #
face $248 $249 $250 $23 $-1 $251 reversed single #
loop $-1 $-1 $252 $114 #
plane-surface $-1 -2.875 0 0 1 0 0 0 0 -1 forward_v I I I I #
coedge $-1 $253 $178 $254 $255 forward $115 $-1 #
coedge $-1 $256 $117 $253 $257 forward $77 $-1 #
coedge $-1 $117 $256 $258 $259 forward $77 $-1 #
coedge $-1 $181 $180 $117 $174 reversed $182 $-1 #
edge $-1 $260 -0.75 $261 0.75 $173 $262 forward 7 unknown #
coedge $-1 $119 $118 $263 $264 forward $50 $-1 #
coedge $-1 $265 $266 $118 $177 reversed $250 $-1 #
edge $-1 $184 -2.875 $267 2.875 $176 $268 forward 7 unknown #
coedge $-1 $170 $269 $119 $179 reversed $115 $-1 #
edge $-1 $270 -2.875 $183 2.875 $178 $271 forward 7 unknown #
coedge $-1 $173 $120 $269 $272 forward $182 $-1 #
coedge $-1 $120 $173 $265 $273 reversed $182 $-1 #
loop $-1 $-1 $180 $249 #
vertex $-1 $121 $274 #
vertex $-1 $121 $275 #
straight-curve $-1 2.875 0 0.25 0 1 0 I I #
coedge $-1 $186 $186 $125 $187 forward $122 $-1 #
edge $-1 $276 0 $276 6.2831853071795862 $186 $277 forward 7 unknown #
vertex $-1 $126 $278 #
ellipse-curve $-1 0 0 -0.25 0 0 -1 0.4375 0 0 1 I I #
coedge $-1 $190 $190 $130 $191 forward $127 $-1 #
edge $-1 $279 0 $279 6.2831853071795862 $190 $280 forward 7 unknown #
vertex $-1 $131 $281 #
ellipse-curve $-1 0 0 -0.25 0 0 -1 0.4375 0 0 1 I I #
face $-1 $282 $283 $38 $-1 $284 reversed single #
loop $-1 $-1 $285 $132 #
coedge $-1 $286 $287 $288 $289 forward $133 $-1 #
coedge $-1 $290 $135 $291 $292 reversed $91 $-1 #
coedge $-1 $135 $290 $293 $294 reversed $91 $-1 #
coedge $-1 $295 $296 $297 $200 reversed $298 $-1 #
edge $-1 $299 -0.5 $300 0 $135 $301 forward 7 unknown #
face $-1 $302 $215 $30 $-1 $303 reversed single #
loop $-1 $-1 $304 $136 #
plane-surface $-1 0 -0.75 0 0 1 0 0 0 1 forward_v I I I I #
coedge $-1 $305 $306 $141 $212 reversed $137 $-1 #
coedge $-1 $307 $139 $308 $212 reversed $94 $-1 #
coedge $-1 $139 $307 $304 $309 forward $94 $-1 #
coedge $-1 $310 $311 $139 $208 forward $312 $-1 #
edge $-1 $217 -1.5707963267948966 $313 0 $207 $218 forward 7 unknown #
coedge $-1 $141 $140 $314 $315 reversed $60 $-1 #
coedge $-1 $316 $317 $140 $211 forward $318 $-1 #
edge $-1 $319 -0.5 $216 0 $210 $320 forward 7 unknown #
edge $-1 $321 -0.5 $217 0 $308 $322 forward 7 unknown #
coedge $-1 $214 $142 $306 $323 forward $215 $-1 #
coedge $-1 $142 $213 $316 $324 forward $215 $-1 #
loop $-1 $-1 $142 $201 #
vertex $-1 $211 $325 #
vertex $-1 $323 $326 #
ellipse-curve $-1 -2.125 0 -0.25 0 0 1 0 -0.75 0 1 I I #
model_id-kcp-attrib $-1 $-1 $-1 $145 1 990560092 40 -785907711 7 #
face $327 $328 $329 $9 $-1 $330 forward single #
loop $-1 $-1 $237 $145 #
plane-surface $-1 2.125 0.75 0 0 1 0 0 0 1 forward_v I I I I #
model_id-kcp-attrib $-1 $-1 $-1 $149 1 990560092 40 -785907711 21 #
coedge $-1 $331 $152 $332 $333 reversed $104 $-1 #
coedge $-1 $152 $331 $334 $335 reversed $104 $-1 #
coedge $-1 $240 $239 $152 $227 forward $146 $-1 #
edge $-1 $336 -3.1415926535897931 $337 0 $226 $338 forward 7 unknown #
attrib_edge_convexity-kcp-attrib $-1 $339 $-1 $153 1 #
vertex $340 $153 $341 #
ellipse-curve $-1 2.125 0 0.5 0 0 1 0.4375 0 0 1 I I #
convexity-sys-attrib $-1 $-1 $154 $106 #
model_id-kcp-attrib $-1 $-1 $-1 $155 1 990560092 40 -785907711 18 #
point $-1 -1.6875 0 0.5 #
coedge $-1 $158 $157 $342 $343 forward $71 $-1 #
coedge $-1 $344 $345 $157 $236 reversed $346 $-1 #
edge $347 $243 -4.25 $348 0 $235 $349 forward 7 unknown #
coedge $-1 $350 $351 $158 $238 reversed $221 $-1 #
edge $352 $353 -4.25 $242 0 $237 $354 forward 7 unknown #
coedge $-1 $226 $159 $351 $355 reversed $146 $-1 #
coedge $-1 $159 $226 $344 $356 forward $146 $-1 #
attrib_edge_convexity-kcp-attrib $-1 $357 $-1 $160 1 #
vertex $-1 $355 $358 #
vertex $-1 $356 $359 #
ellipse-curve $-1 2.125 0 0 0 0 -1 0 -0.75 0 1 I I #
convexity-sys-attrib $-1 $-1 $161 $109 #
model_id-kcp-attrib $-1 $-1 $-1 $162 1 990560092 40 -785907711 25 #
point $-1 2.5625 0 0 #
model_id-kcp-attrib $-1 $-1 $-1 $167 1 990560092 40 -785907710 4 #
face $-1 $-1 $182 $23 $-1 $360 reversed single #
loop $-1 $-1 $265 $167 #
plane-surface $-1 0 0.75 0 0 -1 0 0 0 -1 forward_v I I I I #
coedge $-1 $361 $263 $266 $362 forward $168 $-1 #
coedge $-1 $269 $170 $171 $257 reversed $115 $-1 #
coedge $-1 $263 $361 $170 $255 reversed $168 $-1 #
edge $-1 $270 -0.25 $363 0.25 $254 $364 forward 7 unknown #
coedge $-1 $172 $171 $361 $365 forward $77 $-1 #
edge $-1 $261 -2.875 $363 2.875 $253 $366 forward 7 unknown #
coedge $-1 $266 $265 $172 $259 reversed $250 $-1 #
edge $-1 $367 -2.875 $260 2.875 $258 $368 forward 7 unknown #
vertex $-1 $174 $369 #
vertex $-1 $272 $370 #
straight-curve $-1 2.875 0 -0.25 0 -1 0 I I #
coedge $-1 $252 $254 $175 $264 reversed $168 $-1 #
edge $-1 $267 -0.75 $270 0.75 $263 $371 forward 7 unknown #
coedge $-1 $258 $176 $181 $273 forward $250 $-1 #
coedge $-1 $176 $258 $252 $362 reversed $250 $-1 #
vertex $-1 $177 $372 #
straight-curve $-1 0 0.75 0.25 -1 0 0 I I #
coedge $-1 $178 $253 $180 $272 reversed $115 $-1 #
vertex $-1 $264 $373 #
straight-curve $-1 0 -0.75 0.25 1 0 0 I I #
edge $-1 $183 -0.25 $261 0.25 $180 $374 forward 7 unknown #
edge $-1 $184 -0.25 $260 0.25 $181 $375 forward 7 unknown #
point $-1 2.875 -0.75 0.25 #
point $-1 2.875 0.75 0.25 #
vertex $-1 $187 $376 #
ellipse-curve $-1 0 0 0.25 0 0 1 0.4375 0 0 1 I I #
point $-1 0.4375 0 -0.25 #
vertex $-1 $191 $377 #
ellipse-curve $-1 0 0 0.25 0 0 1 0.4375 0 0 1 I I #
point $-1 0.4375 0 -0.25 #
face $-1 $378 $379 $38 $-1 $303 reversed single #
loop $-1 $-1 $380 $194 #
plane-surface $-1 0 0.75 0 0 -1 0 0 0 -1 forward_v I I I I #
coedge $-1 $293 $381 $382 $383 forward $195 $-1 #
coedge $-1 $287 $196 $384 $385 forward $133 $-1 #
coedge $-1 $196 $286 $295 $386 forward $133 $-1 #
coedge $-1 $297 $387 $196 $289 reversed $388 $-1 #
edge $-1 $299 1.5707963267948966 $389 3.1415926535897931 $196 $390 forward 7 unknown #
coedge $-1 $198 $197 $391 $392 reversed $91 $-1 #
coedge $-1 $393 $394 $197 $292 forward $395 $-1 #
edge $-1 $396 -0.75 $300 0 $197 $397 forward 7 unknown #
coedge $-1 $381 $285 $198 $294 forward $195 $-1 #
edge $-1 $299 0 $398 0.75 $198 $399 forward 7 unknown #
coedge $-1 $400 $199 $287 $386 reversed $298 $-1 #
coedge $-1 $199 $400 $401 $402 reversed $298 $-1 #
coedge $-1 $403 $288 $404 $200 forward $388 $-1 #
loop $-1 $-1 $199 $405 #
vertex $-1 $294 $406 #
vertex $-1 $402 $407 #
straight-curve $-1 2.875 0 -0.25 0 0 -1 I I #
face $-1 $408 $409 $30 $-1 $134 forward single #
plane-surface $-1 0 0 -0.25 0 0 1 1 0 0 forward_v I I I I #
coedge $-1 $410 $411 $206 $309 reversed $202 $-1 #
coedge $-1 $412 $204 $413 $414 reversed $137 $-1 #
coedge $-1 $204 $412 $213 $323 reversed $137 $-1 #
coedge $-1 $206 $205 $415 $416 reversed $94 $-1 #
coedge $-1 $417 $418 $204 $212 forward $419 $-1 #
edge $-1 $420 -0.5 $313 0 $304 $421 forward 7 unknown #
coedge $-1 $311 $207 $411 $422 forward $312 $-1 #
coedge $-1 $207 $310 $417 $423 forward $312 $-1 #
loop $-1 $-1 $207 $424 #
vertex $-1 $422 $425 #
coedge $-1 $426 $413 $209 $315 forward $409 $-1 #
edge $-1 $321 1.5707963267948966 $319 3.1415926535897931 $314 $427 forward 7 unknown #
coedge $-1 $428 $210 $214 $324 reversed $318 $-1 #
coedge $-1 $210 $428 $426 $429 reversed $318 $-1 #
loop $-1 $-1 $210 $430 #
vertex $-1 $429 $431 #
straight-curve $-1 -2.125 0.75 -0.25 0 0 -1 I I #
vertex $-1 $432 $433 #
straight-curve $-1 -2.875 0 -0.25 0 0 -1 I I #
edge $-1 $217 0 $434 0.75 $306 $435 forward 7 unknown #
edge $-1 $434 -2.875 $216 -2.125 $316 $436 forward 7 unknown #
point $-1 -2.125 0.75 -0.25 #
point $-1 -2.875 0 -0.25 #
model_id-kcp-attrib $-1 $-1 $-1 $220 1 990560092 40 -785907711 8 #
face $437 $-1 $346 $9 $-1 $438 forward single #
loop $-1 $-1 $342 $220 #
cone-surface $-1 -2.125 0 0 0 0 1 0.75 0 0 1 I I 0 1 0.75 forward I I I I #
coedge $-1 $225 $224 $439 $440 reversed $104 $-1 #
coedge $-1 $351 $350 $224 $333 forward $221 $-1 #
edge $441 $442 -4.25 $336 0 $332 $443 forward 7 unknown #
coedge $-1 $345 $344 $225 $335 forward $346 $-1 #
edge $444 $337 -4.25 $445 0 $334 $446 forward 7 unknown #
vertex $-1 $355 $447 #
vertex $-1 $356 $448 #
ellipse-curve $-1 2.125 0 0.5 0 0 -1 0 -0.75 0 1 I I #
convexity-sys-attrib $-1 $-1 $228 $153 #
model_id-kcp-attrib $-1 $-1 $-1 $229 1 990560092 40 -785907711 24 #
point $-1 2.5625 0 0.5 #
coedge $-1 $449 $450 $234 $343 reversed $329 $-1 #
edge $451 $348 -3.1415926535897931 $353 0 $342 $452 forward 7 unknown #
coedge $-1 $334 $235 $240 $356 reversed $346 $-1 #
coedge $-1 $235 $334 $449 $453 forward $346 $-1 #
loop $-1 $-1 $235 $328 #
attrib_edge_convexity-kcp-attrib $-1 $454 $-1 $236 1 #
vertex $-1 $453 $455 #
straight-curve $-1 -2.125 -0.75 0 -1 0 0 I I #
coedge $-1 $332 $237 $450 $456 reversed $221 $-1 #
coedge $-1 $237 $332 $239 $355 forward $221 $-1 #
attrib_edge_convexity-kcp-attrib $-1 $457 $-1 $238 1 #
vertex $-1 $456 $458 #
straight-curve $-1 2.125 0.75 0 1 0 0 I I #
edge $459 $336 -0.5 $242 0 $351 $460 forward 7 unknown #
edge $-1 $337 -0.5 $243 0 $344 $461 forward 7 unknown #
convexity-sys-attrib $-1 $-1 $241 $160 #
point $-1 2.125 0.75 0 #
point $-1 2.125 -0.75 0 #
plane-surface $-1 2.875 0 0 -1 0 0 0 0 1 forward_v I I I I #
coedge $-1 $254 $252 $256 $365 reversed $168 $-1 #
edge $-1 $267 -0.25 $367 0.25 $266 $462 forward 7 unknown #
vertex $-1 $365 $463 #
straight-curve $-1 -2.875 -0.75 0 0 0 -1 I I #
edge $-1 $363 -0.75 $367 0.75 $361 $464 forward 7 unknown #
straight-curve $-1 0 -0.75 -0.25 -1 0 0 I I #
vertex $-1 $259 $465 #
straight-curve $-1 0 0.75 -0.25 1 0 0 I I #
point $-1 2.875 0.75 -0.25 #
point $-1 2.875 -0.75 -0.25 #
straight-curve $-1 -2.875 0 0.25 0 -1 0 I I #
point $-1 -2.875 0.75 0.25 #
point $-1 -2.875 -0.75 0.25 #
straight-curve $-1 2.875 -0.75 0 0 0 -1 I I #
straight-curve $-1 2.875 0.75 0 0 0 -1 I I #
point $-1 0.4375 0 0.25 #
point $-1 0.4375 0 0.25 #
face $-1 $405 $395 $38 $-1 $303 reversed single #
loop $-1 $-1 $466 $282 #
coedge $-1 $467 $468 $469 $470 reversed $283 $-1 #
coedge $-1 $285 $293 $467 $471 forward $195 $-1 #
coedge $-1 $469 $404 $285 $383 reversed $472 $-1 #
edge $-1 $473 0 $299 1.5707963267948966 $285 $390 forward 7 unknown #
coedge $-1 $474 $475 $286 $385 reversed $476 $-1 #
edge $-1 $389 2.125 $477 2.875 $384 $478 forward 7 unknown #
edge $-1 $477 -0.75 $299 0 $295 $399 forward 7 unknown #
coedge $-1 $288 $403 $474 $479 reversed $388 $-1 #
loop $-1 $-1 $403 $480 #
vertex $-1 $385 $481 #
ellipse-curve $-1 2.125 0 0.25 0 0 -1 0 0.75 0 1 I I #
coedge $-1 $468 $467 $290 $392 forward $283 $-1 #
edge $-1 $398 -0.25 $396 0.25 $290 $482 forward 7 unknown #
coedge $-1 $394 $291 $483 $484 forward $395 $-1 #
coedge $-1 $291 $393 $468 $485 forward $395 $-1 #
loop $-1 $-1 $393 $378 #
vertex $-1 $292 $486 #
straight-curve $-1 2.875 0 -0.25 0 -1 0 I I #
vertex $-1 $294 $487 #
straight-curve $-1 2.875 0 0.25 0 1 0 I I #
coedge $-1 $296 $295 $475 $488 forward $298 $-1 #
coedge $-1 $489 $466 $296 $402 forward $379 $-1 #
edge $-1 $300 0 $490 0.75 $296 $397 forward 7 unknown #
coedge $-1 $387 $297 $466 $491 reversed $388 $-1 #
coedge $-1 $382 $483 $135 $200 reversed $472 $-1 #
face $-1 $492 $298 $38 $-1 $92 reversed single #
point $-1 2.875 0 0.25 #
point $-1 2.875 0 -0.25 #
face $-1 $424 $493 $30 $-1 $134 forward single #
loop $-1 $-1 $314 $302 #
coedge $-1 $494 $304 $495 $496 reversed $202 $-1 #
coedge $-1 $304 $494 $310 $422 reversed $202 $-1 #
coedge $-1 $306 $305 $428 $497 forward $137 $-1 #
coedge $-1 $314 $426 $305 $414 forward $409 $-1 #
edge $-1 $498 -0.75 $321 0 $305 $499 forward 7 unknown #
coedge $-1 $500 $495 $307 $416 forward $493 $-1 #
edge $-1 $420 0 $321 1.5707963267948966 $415 $427 forward 7 unknown #
coedge $-1 $501 $308 $311 $423 reversed $419 $-1 #
coedge $-1 $308 $501 $500 $432 reversed $419 $-1 #
loop $-1 $-1 $308 $502 #
vertex $-1 $309 $503 #
straight-curve $-1 -2.125 -0.75 -0.25 0 0 -1 I I #
edge $-1 $313 2.125 $504 2.875 $411 $505 forward 7 unknown #
edge $-1 $504 -0.75 $217 0 $417 $435 forward 7 unknown #
face $-1 $502 $312 $30 $-1 $303 reversed single #
point $-1 -2.125 -0.75 -0.25 #
coedge $-1 $413 $314 $317 $429 forward $409 $-1 #
ellipse-curve $-1 -2.125 0 0.25 0 0 -1 0 -0.75 0 1 I I #
coedge $-1 $317 $316 $412 $497 reversed $318 $-1 #
edge $-1 $319 2.125 $498 2.875 $317 $506 forward 7 unknown #
face $-1 $-1 $318 $30 $-1 $284 reversed single #
point $-1 -2.125 0.75 0.25 #
edge $-1 $321 0 $507 0.75 $418 $499 forward 7 unknown #
point $-1 -2.875 0 0.25 #
vertex $-1 $324 $508 #
straight-curve $-1 -2.875 0 -0.25 0 1 0 I I #
straight-curve $-1 0 0.75 -0.25 1 0 0 I I #
model_id-kcp-attrib $-1 $-1 $-1 $328 1 990560092 40 -785907711 9 #
plane-surface $-1 -2.125 -0.75 0 0 -1 0 0 0 -1 forward_v I I I I #
coedge $-1 $450 $449 $331 $440 forward $329 $-1 #
edge $-1 $445 -3.1415926535897931 $442 0 $439 $509 forward 7 unknown #
model_id-kcp-attrib $-1 $510 $-1 $333 1 990560092 40 -785907711 12 #
vertex $-1 $456 $511 #
straight-curve $-1 2.125 0.75 0.5 1 0 0 I I #
model_id-kcp-attrib $-1 $-1 $-1 $335 1 990560092 40 -785907711 11 #
vertex $-1 $453 $512 #
straight-curve $-1 -2.125 -0.75 0.5 -1 0 0 I I #
point $-1 2.125 0.75 0.5 #
point $-1 2.125 -0.75 0.5 #
coedge $-1 $439 $342 $345 $453 reversed $329 $-1 #
coedge $-1 $342 $439 $350 $456 forward $329 $-1 #
attrib_edge_convexity-kcp-attrib $-1 $513 $-1 $343 1 #
ellipse-curve $-1 -2.125 0 0 0 0 -1 0 0.75 0 1 I I #
edge $-1 $445 -0.5 $348 0 $345 $514 forward 7 unknown #
convexity-sys-attrib $-1 $-1 $347 $236 #
point $-1 -2.125 -0.75 0 #
edge $515 $442 -0.5 $353 0 $450 $516 forward 7 unknown #
convexity-sys-attrib $-1 $-1 $352 $238 #
point $-1 -2.125 0.75 0 #
attrib_edge_convexity-kcp-attrib $-1 $517 $-1 $355 3 #
straight-curve $-1 2.125 0.75 0 0 0 -1 I I #
straight-curve $-1 2.125 -0.75 0 0 0 -1 I I #
straight-curve $-1 -2.875 0.75 0 0 0 -1 I I #
point $-1 -2.875 -0.75 -0.25 #
straight-curve $-1 -2.875 0 -0.25 0 1 0 I I #
point $-1 -2.875 0.75 -0.25 #
coedge $-1 $401 $489 $403 $491 forward $379 $-1 #
coedge $-1 $391 $380 $381 $471 reversed $283 $-1 #
coedge $-1 $380 $391 $394 $485 reversed $283 $-1 #
coedge $-1 $483 $382 $380 $470 forward $472 $-1 #
edge $-1 $473 -0.5 $518 0 $380 $519 forward 7 unknown #
edge $-1 $398 -2.875 $473 -2.125 $467 $506 forward 7 unknown #
loop $-1 $-1 $483 $520 #
vertex $-1 $383 $521 #
coedge $-1 $522 $384 $387 $479 forward $476 $-1 #
coedge $-1 $384 $522 $400 $488 reversed $476 $-1 #
loop $-1 $-1 $474 $492 #
vertex $-1 $386 $523 #
straight-curve $-1 0 -0.75 0.25 1 0 0 I I #
edge $-1 $389 -0.5 $524 0 $474 $525 forward 7 unknown #
face $-1 $520 $388 $38 $-1 $526 reversed single #
point $-1 2.125 -0.75 0.25 #
straight-curve $-1 2.875 0.75 0 0 0 -1 I I #
coedge $-1 $404 $469 $393 $484 reversed $472 $-1 #
edge $-1 $300 -1.5707963267948966 $518 0 $393 $527 forward 7 unknown #
edge $-1 $518 2.125 $396 2.875 $468 $436 forward 7 unknown #
point $-1 2.875 0.75 -0.25 #
point $-1 2.875 0.75 0.25 #
edge $-1 $477 -0.25 $490 0.25 $400 $528 forward 7 unknown #
coedge $-1 $466 $401 $522 $529 forward $379 $-1 #
vertex $-1 $488 $530 #
edge $-1 $524 -3.1415926535897931 $300 -1.5707963267948966 $466 $527 forward 7 unknown #
face $-1 $480 $476 $38 $-1 $203 reversed single #
loop $-1 $-1 $415 $408 #
coedge $-1 $411 $410 $501 $531 forward $202 $-1 #
coedge $-1 $415 $500 $410 $496 forward $493 $-1 #
edge $-1 $507 -2.875 $420 -2.125 $410 $478 forward 7 unknown #
edge $-1 $498 -0.25 $434 0.25 $428 $532 forward 7 unknown #
vertex $-1 $429 $533 #
straight-curve $-1 -2.875 0 0.25 0 -1 0 I I #
coedge $-1 $495 $415 $418 $432 forward $493 $-1 #
coedge $-1 $418 $417 $494 $531 reversed $419 $-1 #
face $-1 $430 $419 $30 $-1 $138 reversed single #
point $-1 -2.125 -0.75 0.25 #
vertex $-1 $423 $534 #
straight-curve $-1 0 -0.75 -0.25 -1 0 0 I I #
straight-curve $-1 0 0.75 0.25 -1 0 0 I I #
vertex $-1 $432 $535 #
point $-1 -2.875 0.75 -0.25 #
ellipse-curve $-1 -2.125 0 0.5 0 0 -1 0 0.75 0 1 I I #
attrib_edge_convexity-kcp-attrib $-1 $536 $441 $333 1 #
point $-1 -2.125 0.75 0.5 #
point $-1 -2.125 -0.75 0.5 #
convexity-sys-attrib $-1 $-1 $451 $343 #
straight-curve $-1 -2.125 -0.75 0 0 0 -1 I I #
attrib_edge_convexity-kcp-attrib $-1 $537 $-1 $456 3 #
straight-curve $-1 -2.125 0.75 0 0 0 -1 I I #
convexity-sys-attrib $-1 $-1 $459 $355 #
vertex $-1 $485 $538 #
straight-curve $-1 2.125 0.75 -0.25 0 0 -1 I I #
face $-1 $-1 $472 $38 $-1 $526 reversed single #
point $-1 2.125 0.75 0.25 #
coedge $-1 $475 $474 $489 $529 reversed $476 $-1 #
point $-1 2.875 -0.75 0.25 #
vertex $-1 $491 $539 #
straight-curve $-1 2.125 -0.75 -0.25 0 0 -1 I I #
cone-surface $-1 2.125 0 -0.25 0 0 -1 0 0.75 0 1 I I 0 1 0.75 forward I I I I #
ellipse-curve $-1 2.125 0 -0.25 0 0 1 0 0.75 0 1 I I #
straight-curve $-1 2.875 -0.75 0 0 0 -1 I I #
edge $-1 $490 -2.875 $524 -2.125 $522 $505 forward 7 unknown #
point $-1 2.875 -0.75 -0.25 #
edge $-1 $507 -0.25 $504 0.25 $501 $540 forward 7 unknown #
straight-curve $-1 -2.875 0.75 0 0 0 -1 I I #
point $-1 -2.875 0.75 0.25 #
point $-1 -2.875 -0.75 -0.25 #
point $-1 -2.875 -0.75 0.25 #
convexity-sys-attrib $-1 $-1 $510 $333 #
convexity-sys-attrib $-1 $-1 $515 $456 #
point $-1 2.125 0.75 -0.25 #
point $-1 2.125 -0.75 -0.25 #
straight-curve $-1 -2.875 -0.75 0 0 0 -1 I I #
End-of-ACIS-data 