700 0 2 0           
24 FBMach with ACIS - 7.0.3 13 ACIS 7.0.3 NT 24 Tue May 14 14:30:27 2002 
1 9.9999999999999995e-007 1e-010 
body $2 -1 $-1 $3 $-1 $4 #
bdycol-kcp $-1 -1 1 4 $5 $6 $7 $8 #
model_id-kcp-attrib $-1 -1 $9 $-1 $0 1 1021401026 1021401027 -1256325119 1 #
lump $-1 -1 $-1 $-1 $10 $0 #
transform $-1 -1 1 0 0 0 1 0 0 0 1 0 0 0 1 rotate no_reflect no_shear #
body $11 -1 $-1 $12 $-1 $13 #
body $14 -1 $-1 $15 $-1 $16 #
body $17 -1 $-1 $18 $-1 $19 #
body $20 -1 $-1 $21 $-1 $22 #
aggregate_advspl_attribute-aggregate_geombuild_base_attribute-aggregate_body_attribute-attrib_HH-attrib $-1 -1 $23 $2 $0 F #
shell $-1 -1 $-1 $-1 $-1 $24 $-1 $3 #
model_id-kcp-attrib $-1 -1 $-1 $-1 $5 1 1021401026 1021401027 -1256325118 1 #
lump $-1 -1 $-1 $-1 $25 $5 #
transform $-1 -1 1 0 0 0 1 0 0 0 1 0 0 0.25 1 no_rotate no_reflect no_shear #
rgb_color-st-attrib $-1 -1 $26 $-1 $6 0.5 1 1 #
lump $-1 -1 $-1 $-1 $27 $6 #
transform $-1 -1 1 0 0 0 1 0 0 0 1 -2.125 0 0.25 1 no_rotate no_reflect no_shear #
rgb_color-st-attrib $-1 -1 $28 $-1 $7 0.5 1 1 #
lump $-1 -1 $-1 $-1 $29 $7 #
transform $-1 -1 1 0 0 0 1 0 0 0 1 2.125 0 0.25 1 no_rotate no_reflect no_shear #
rgb_color-st-attrib $-1 -1 $30 $-1 $8 0.5 1 1 #
lump $-1 -1 $-1 $31 $32 $8 #
transform $-1 -1 1 0 0 0 1 0 0 0 1 0 0 0.25 1 no_rotate no_reflect no_shear #
aggregate_secndry_attribute-aggregate_geombuild_base_attribute-aggregate_body_attribute-attrib_HH-attrib $-1 -1 $33 $9 $0 F #
face $34 -1 $-1 $35 $36 $10 $-1 $37 reversed single #
shell $-1 -1 $-1 $-1 $-1 $38 $-1 $12 #
model_id-kcp-attrib $-1 -1 $-1 $14 $6 1 1021401026 1021401027 -1253703677 1 #
shell $-1 -1 $-1 $-1 $-1 $39 $-1 $15 #
model_id-kcp-attrib $-1 -1 $-1 $17 $7 1 1021401026 1021401027 -1253703676 1 #
shell $-1 -1 $-1 $-1 $-1 $40 $-1 $18 #
model_id-kcp-attrib $-1 -1 $-1 $20 $8 1 1021401026 1021401027 -1247150075 1 #
lump $-1 -1 $-1 $-1 $41 $8 #
shell $-1 -1 $-1 $-1 $-1 $42 $-1 $21 #
aggregate_sharped_attribute-aggregate_geombuild_base_attribute-aggregate_body_attribute-attrib_HH-attrib $-1 -1 $43 $23 $0 F #
model_id-kcp-attrib $-1 -1 $44 $-1 $24 1 1021401026 1021401027 -1256325119 2 #
face $45 -1 $-1 $46 $47 $10 $-1 $48 forward single #
loop $49 -1 $-1 $50 $51 $24 #
plane-surface $-1 -1 $-1 0 0 0 0 0 1 1 0 0 forward_v I I I I #
face $52 -1 $-1 $53 $54 $25 $-1 $55 forward single #
face $-1 -1 $-1 $56 $57 $27 $-1 $58 forward single #
face $-1 -1 $-1 $59 $60 $29 $-1 $61 forward single #
shell $-1 -1 $-1 $-1 $-1 $62 $-1 $31 #
face $-1 -1 $-1 $63 $64 $32 $-1 $65 reversed single #
aggregate_reblend_attribute-aggregate_geombuild_base_attribute-aggregate_body_attribute-attrib_HH-attrib $-1 -1 $66 $33 $0 F #
attrib_hh_face_geombuild-attrib_entity_geombuild-individual_entity_attribute-attrib_HH-attrib $-1 -1 $-1 $34 $24 F #
model_id-kcp-attrib $-1 -1 $67 $-1 $35 1 1021401026 1021401027 -1256325119 3 #
face $68 -1 $-1 $69 $70 $10 $-1 $71 reversed single #
loop $72 -1 $-1 $73 $74 $35 #
plane-surface $-1 -1 $-1 0 0 0.5 0 0 1 1 0 0 forward_v I I I I #
model_id-kcp-attrib $-1 -1 $-1 $-1 $36 1 1021401026 1021401027 -1256325119 17 #
loop $75 -1 $-1 $76 $77 $24 #
coedge $78 -1 $-1 $51 $51 $79 $80 forward $36 $-1 #
model_id-kcp-attrib $-1 -1 $-1 $-1 $38 1 1021401026 1021401027 -1256325118 3 #
face $81 -1 $-1 $82 $83 $25 $-1 $84 reversed single #
loop $-1 -1 $-1 $-1 $85 $38 #
plane-surface $-1 -1 $-1 0 0 0.25 0 0 1 1 0 0 forward_v I I I I #
face $-1 -1 $-1 $86 $87 $27 $-1 $88 forward single #
loop $-1 -1 $-1 $89 $90 $39 #
cone-surface $-1 -1 $-1 0 0 0 0 0 1 0.4375 0 0 1 I I 0 1 0.4375 forward I I I I #
face $-1 -1 $-1 $91 $92 $29 $-1 $93 forward single #
loop $-1 -1 $-1 $94 $95 $40 #
cone-surface $-1 -1 $-1 0 0 0 0 0 1 0.4375 0 0 1 I I 0 1 0.4375 forward I I I I #
face $-1 -1 $-1 $96 $97 $41 $-1 $98 reversed single #
face $-1 -1 $-1 $99 $100 $32 $-1 $65 reversed single #
loop $-1 -1 $-1 $-1 $101 $42 #
cone-surface $-1 -1 $-1 -2.125 0 -0.25 0 0 -1 0 -0.75 0 1 I I 0 1 0.75 forward I I I I #
aggregate_isospline_attribute-aggregate_geombuild_base_attribute-aggregate_body_attribute-attrib_HH-attrib $-1 -1 $102 $43 $0 F #
attrib_hh_face_geombuild-attrib_entity_geombuild-individual_entity_attribute-attrib_HH-attrib $-1 -1 $-1 $45 $35 F #
model_id-kcp-attrib $-1 -1 $103 $-1 $46 1 1021401026 1021401027 -1256325119 4 #
face $104 -1 $-1 $105 $106 $10 $-1 $107 reversed single #
loop $108 -1 $-1 $109 $110 $46 #
cone-surface $-1 -1 $-1 -2.125 0 0 0 0 1 0.4375 0 0 1 I I 0 1 0.4375 forward I I I I #
model_id-kcp-attrib $-1 -1 $-1 $-1 $47 1 1021401026 1021401027 -1256325119 16 #
loop $111 -1 $-1 $112 $113 $35 #
coedge $114 -1 $-1 $74 $74 $110 $115 reversed $47 $-1 #
model_id-kcp-attrib $-1 -1 $-1 $-1 $50 1 1021401026 1021401027 -1256325119 23 #
loop $-1 -1 $-1 $-1 $116 $24 #
coedge $117 -1 $-1 $77 $77 $118 $119 forward $50 $-1 #
attrib_hh_coedge_geombuild-attrib_entity_geombuild-individual_entity_attribute-attrib_HH-attrib $-1 -1 $-1 $-1 $51 F #
coedge $120 -1 $-1 $79 $79 $51 $80 reversed $109 $-1 #
edge $121 -1 $-1 $122 -3.1415926535897931 $122 3.1415926535897931 $79 $123 forward @7 unknown #
model_id-kcp-attrib $-1 -1 $-1 $-1 $53 1 1021401026 1021401027 -1256325118 2 #
face $124 -1 $-1 $125 $126 $25 $-1 $127 reversed single #
loop $-1 -1 $-1 $-1 $128 $53 #
plane-surface $-1 -1 $-1 0 0 -0.25 0 0 1 1 0 0 forward_v I I I I #
coedge $-1 -1 $-1 $129 $130 $131 $132 forward $54 $-1 #
face $-1 -1 $-1 $-1 $133 $27 $-1 $134 forward single #
loop $-1 -1 $-1 $-1 $135 $56 #
plane-surface $-1 -1 $-1 0 0 -0.25 0 0 -1 -1 0 0 forward_v I I I I #
loop $-1 -1 $-1 $-1 $136 $39 #
coedge $-1 -1 $-1 $90 $90 $135 $137 reversed $57 $-1 #
face $-1 -1 $-1 $-1 $138 $29 $-1 $139 forward single #
loop $-1 -1 $-1 $-1 $140 $59 #
plane-surface $-1 -1 $-1 0 0 -0.25 0 0 -1 -1 0 0 forward_v I I I I #
loop $-1 -1 $-1 $-1 $141 $40 #
coedge $-1 -1 $-1 $95 $95 $140 $142 reversed $60 $-1 #
face $-1 -1 $-1 $143 $144 $41 $-1 $145 forward single #
loop $-1 -1 $-1 $-1 $146 $62 #
plane-surface $-1 -1 $-1 2.875 0 0 -1 0 0 0 0 1 forward_v I I I I #
face $-1 -1 $-1 $147 $148 $32 $-1 $149 reversed single #
loop $-1 -1 $-1 $-1 $150 $63 #
coedge $-1 -1 $-1 $151 $152 $153 $154 reversed $64 $-1 #
aggregate_analytic_solver_attribute-aggregate_geombuild_base_attribute-aggregate_body_attribute-attrib_HH-attrib $-1 -1 $155 $66 $0 F #
attrib_hh_face_geombuild-attrib_entity_geombuild-individual_entity_attribute-attrib_HH-attrib $-1 -1 $-1 $68 $46 F #
model_id-kcp-attrib $-1 -1 $156 $-1 $69 1 1021401026 1021401027 -1256325119 5 #
face $157 -1 $-1 $158 $159 $10 $-1 $160 forward single #
loop $161 -1 $-1 $162 $163 $69 #
cone-surface $-1 -1 $-1 2.125 0 0 0 0 1 0.4375 0 0 1 I I 0 1 0.4375 forward I I I I #
model_id-kcp-attrib $-1 -1 $-1 $-1 $70 1 1021401026 1021401027 -1256325119 14 #
loop $164 -1 $-1 $-1 $79 $46 #
coedge $165 -1 $-1 $110 $110 $74 $115 forward $70 $-1 #
model_id-kcp-attrib $-1 -1 $-1 $-1 $73 1 1021401026 1021401027 -1256325119 22 #
loop $-1 -1 $-1 $-1 $166 $35 #
coedge $167 -1 $-1 $113 $113 $163 $168 reversed $73 $-1 #
attrib_hh_coedge_geombuild-attrib_entity_geombuild-individual_entity_attribute-attrib_HH-attrib $-1 -1 $-1 $-1 $74 F #
edge $169 -1 $-1 $170 0 $170 6.2831853071795862 $110 $171 forward @7 unknown #
coedge $172 -1 $-1 $173 $174 $175 $176 forward $76 $-1 #
attrib_hh_coedge_geombuild-attrib_entity_geombuild-individual_entity_attribute-attrib_HH-attrib $-1 -1 $-1 $-1 $77 F #
coedge $177 -1 $-1 $118 $118 $77 $119 reversed $162 $-1 #
edge $178 -1 $-1 $179 -3.1415926535897931 $179 3.1415926535897931 $118 $180 forward @7 unknown #
attrib_hh_coedge_geombuild-attrib_entity_geombuild-individual_entity_attribute-attrib_HH-attrib $-1 -1 $-1 $-1 $79 F #
attrib_edge_convexity-kcp-attrib $-1 -1 $181 $-1 $80 1 #
vertex $182 -1 $-1 $80 $183 #
ellipse-curve $-1 -1 $-1 -2.125 0 0 0 0 1 -0.4375 0 0 1 I I #
model_id-kcp-attrib $-1 -1 $-1 $-1 $82 1 1021401026 1021401027 -1256325118 5 #
face $-1 -1 $-1 $184 $185 $25 $-1 $186 reversed single #
loop $-1 -1 $-1 $-1 $187 $82 #
plane-surface $-1 -1 $-1 0 -0.75 0 0 1 0 0 0 1 forward_v I I I I #
coedge $-1 -1 $-1 $188 $189 $190 $191 forward $83 $-1 #
coedge $-1 -1 $-1 $192 $85 $193 $194 forward $54 $-1 #
coedge $-1 -1 $-1 $85 $192 $195 $196 forward $54 $-1 #
coedge $-1 -1 $-1 $197 $198 $85 $132 reversed $199 $-1 #
edge $-1 -1 $-1 $200 -0.75 $201 0.75 $131 $202 forward @7 unknown #
loop $-1 -1 $-1 $-1 $203 $86 #
plane-surface $-1 -1 $-1 0 0 0.25 0 0 1 1 0 0 forward_v I I I I #
coedge $-1 -1 $-1 $135 $135 $90 $137 forward $87 $-1 #
coedge $-1 -1 $-1 $136 $136 $203 $204 reversed $89 $-1 #
edge $-1 -1 $-1 $205 0 $205 6.2831853071795862 $135 $206 forward @7 unknown #
loop $-1 -1 $-1 $-1 $207 $91 #
plane-surface $-1 -1 $-1 0 0 0.25 0 0 1 1 0 0 forward_v I I I I #
coedge $-1 -1 $-1 $140 $140 $95 $142 forward $92 $-1 #
coedge $-1 -1 $-1 $141 $141 $207 $208 reversed $94 $-1 #
edge $-1 -1 $-1 $209 0 $209 6.2831853071795862 $140 $210 forward @7 unknown #
face $-1 -1 $-1 $211 $212 $41 $-1 $145 forward single #
loop $-1 -1 $-1 $-1 $213 $96 #
plane-surface $-1 -1 $-1 0 0 0.25 0 0 1 1 0 0 forward_v I I I I #
coedge $-1 -1 $-1 $214 $215 $216 $217 forward $97 $-1 #
face $-1 -1 $-1 $218 $219 $32 $-1 $220 reversed single #
loop $-1 -1 $-1 $-1 $221 $99 #
plane-surface $-1 -1 $-1 -2.875 0 0 1 0 0 0 0 -1 forward_v I I I I #
coedge $-1 -1 $-1 $222 $223 $224 $225 reversed $100 $-1 #
coedge $-1 -1 $-1 $226 $101 $227 $228 reversed $64 $-1 #
coedge $-1 -1 $-1 $101 $226 $222 $229 forward $64 $-1 #
coedge $-1 -1 $-1 $230 $231 $101 $154 forward $232 $-1 #
edge $-1 -1 $-1 $233 -3.1415926535897931 $234 -1.5707963267948966 $153 $235 forward @7 unknown #
aggregate_geombuild_attribute-aggregate_geombuild_base_attribute-aggregate_body_attribute-attrib_HH-attrib $-1 -1 $236 $102 $0 #
attrib_hh_face_geombuild-attrib_entity_geombuild-individual_entity_attribute-attrib_HH-attrib $-1 -1 $-1 $104 $69 F #
model_id-kcp-attrib $-1 -1 $237 $-1 $105 1 1021401026 1021401027 -1256325119 6 #
face $238 -1 $-1 $239 $240 $10 $-1 $241 forward single #
loop $-1 -1 $-1 $-1 $175 $105 #
cone-surface $-1 -1 $-1 2.125 0 0 0 0 1 0.75 0 0 1 I I 0 1 0.75 forward I I I I #
model_id-kcp-attrib $-1 -1 $-1 $-1 $106 1 1021401026 1021401027 -1256325119 20 #
loop $242 -1 $-1 $-1 $118 $69 #
coedge $243 -1 $-1 $163 $163 $113 $168 forward $106 $-1 #
model_id-kcp-attrib $-1 -1 $-1 $-1 $109 1 1021401026 1021401027 -1256325119 15 #
attrib_hh_coedge_geombuild-attrib_entity_geombuild-individual_entity_attribute-attrib_HH-attrib $-1 -1 $-1 $-1 $110 F #
coedge $244 -1 $-1 $245 $246 $247 $248 reversed $112 $-1 #
attrib_hh_coedge_geombuild-attrib_entity_geombuild-individual_entity_attribute-attrib_HH-attrib $-1 -1 $-1 $-1 $113 F #
edge $249 -1 $-1 $250 0 $250 6.2831853071795862 $163 $251 forward @7 unknown #
attrib_edge_convexity-kcp-attrib $-1 -1 $252 $-1 $115 1 #
vertex $253 -1 $-1 $115 $254 #
ellipse-curve $-1 -1 $-1 -2.125 0 0.5 0 0 1 0.4375 0 0 1 I I #
attrib_hh_coedge_geombuild-attrib_entity_geombuild-individual_entity_attribute-attrib_HH-attrib $-1 -1 $-1 $-1 $116 F #
coedge $255 -1 $-1 $256 $116 $257 $258 forward $76 $-1 #
coedge $259 -1 $-1 $116 $256 $260 $261 forward $76 $-1 #
coedge $262 -1 $-1 $263 $264 $116 $176 reversed $159 $-1 #
edge $265 -1 $-1 $266 -3.1415926535897931 $267 0 $175 $268 forward @7 unknown #
attrib_hh_coedge_geombuild-attrib_entity_geombuild-individual_entity_attribute-attrib_HH-attrib $-1 -1 $-1 $-1 $118 F #
attrib_edge_convexity-kcp-attrib $-1 -1 $269 $-1 $119 1 #
vertex $270 -1 $-1 $119 $271 #
ellipse-curve $-1 -1 $-1 2.125 0 0 0 0 1 -0.4375 0 0 1 I I #
convexity-sys-attrib $-1 -1 $272 $121 $80 #
model_id-kcp-attrib $-1 -1 $273 $-1 $122 1 1021401026 1021401027 -1256325119 19 #
point $-1 -1 $-1 -1.6875 0 0 #
face $274 -1 $-1 $275 $276 $25 $-1 $277 reversed single #
loop $-1 -1 $-1 $-1 $278 $125 #
plane-surface $-1 -1 $-1 -2.875 0 0 1 0 0 0 0 -1 forward_v I I I I #
coedge $-1 -1 $-1 $279 $195 $280 $281 forward $126 $-1 #
coedge $-1 -1 $-1 $282 $128 $279 $283 forward $83 $-1 #
coedge $-1 -1 $-1 $128 $282 $284 $285 forward $83 $-1 #
coedge $-1 -1 $-1 $198 $197 $128 $191 reversed $199 $-1 #
edge $-1 -1 $-1 $286 -0.75 $287 0.75 $190 $288 forward @7 unknown #
coedge $-1 -1 $-1 $130 $129 $289 $290 forward $54 $-1 #
coedge $-1 -1 $-1 $291 $292 $129 $194 reversed $276 $-1 #
edge $-1 -1 $-1 $201 -2.875 $293 2.875 $193 $294 forward @7 unknown #
coedge $-1 -1 $-1 $187 $295 $130 $196 reversed $126 $-1 #
edge $-1 -1 $-1 $296 -2.875 $200 2.875 $195 $297 forward @7 unknown #
coedge $-1 -1 $-1 $190 $131 $295 $298 forward $199 $-1 #
coedge $-1 -1 $-1 $131 $190 $291 $299 reversed $199 $-1 #
loop $-1 -1 $-1 $-1 $197 $275 #
vertex $-1 -1 $-1 $132 $300 #
vertex $-1 -1 $-1 $132 $301 #
straight-curve $-1 -1 $-1 2.875 0 0.25 0 1 0 I I #
coedge $-1 -1 $-1 $203 $203 $136 $204 forward $133 $-1 #
edge $-1 -1 $-1 $302 0 $302 6.2831853071795862 $203 $303 forward @7 unknown #
vertex $-1 -1 $-1 $137 $304 #
ellipse-curve $-1 -1 $-1 0 0 -0.25 0 0 -1 0.4375 0 0 1 I I #
coedge $-1 -1 $-1 $207 $207 $141 $208 forward $138 $-1 #
edge $-1 -1 $-1 $305 0 $305 6.2831853071795862 $207 $306 forward @7 unknown #
vertex $-1 -1 $-1 $142 $307 #
ellipse-curve $-1 -1 $-1 0 0 -0.25 0 0 -1 0.4375 0 0 1 I I #
face $-1 -1 $-1 $308 $309 $41 $-1 $310 reversed single #
loop $-1 -1 $-1 $-1 $311 $143 #
coedge $-1 -1 $-1 $312 $313 $314 $315 forward $144 $-1 #
coedge $-1 -1 $-1 $316 $146 $317 $318 reversed $97 $-1 #
coedge $-1 -1 $-1 $146 $316 $319 $320 reversed $97 $-1 #
coedge $-1 -1 $-1 $321 $322 $323 $217 reversed $324 $-1 #
edge $-1 -1 $-1 $325 -0.5 $326 0 $146 $327 forward @7 unknown #
face $-1 -1 $-1 $328 $232 $32 $-1 $329 reversed single #
loop $-1 -1 $-1 $-1 $330 $147 #
plane-surface $-1 -1 $-1 0 -0.75 0 0 1 0 0 0 1 forward_v I I I I #
coedge $-1 -1 $-1 $331 $332 $152 $229 reversed $148 $-1 #
coedge $-1 -1 $-1 $333 $150 $334 $229 reversed $100 $-1 #
coedge $-1 -1 $-1 $150 $333 $330 $335 forward $100 $-1 #
coedge $-1 -1 $-1 $336 $337 $150 $225 forward $338 $-1 #
edge $-1 -1 $-1 $234 -1.5707963267948966 $339 0 $224 $235 forward @7 unknown #
coedge $-1 -1 $-1 $152 $151 $340 $341 reversed $64 $-1 #
coedge $-1 -1 $-1 $342 $343 $151 $228 forward $344 $-1 #
edge $-1 -1 $-1 $345 -0.5 $233 0 $227 $346 forward @7 unknown #
edge $-1 -1 $-1 $347 -0.5 $234 0 $334 $348 forward @7 unknown #
coedge $-1 -1 $-1 $231 $153 $332 $349 forward $232 $-1 #
coedge $-1 -1 $-1 $153 $230 $342 $350 forward $232 $-1 #
loop $-1 -1 $-1 $-1 $153 $218 #
vertex $-1 -1 $-1 $228 $351 #
vertex $-1 -1 $-1 $349 $352 #
ellipse-curve $-1 -1 $-1 -2.125 0 -0.25 0 0 1 0 -0.75 0 1 I I #
aggregate_stitch_attribute-aggregate_stitch_base_attribute-aggregate_body_attribute-attrib_HH-attrib $-1 -1 $353 $155 $0 F #
attrib_hh_face_geombuild-attrib_entity_geombuild-individual_entity_attribute-attrib_HH-attrib $-1 -1 $-1 $157 $105 F #
model_id-kcp-attrib $-1 -1 $354 $-1 $158 1 1021401026 1021401027 -1256325119 7 #
face $355 -1 $-1 $356 $357 $10 $-1 $358 forward single #
loop $-1 -1 $-1 $-1 $260 $158 #
plane-surface $-1 -1 $-1 2.125 0.75 0 0 1 0 0 0 1 forward_v I I I I #
model_id-kcp-attrib $-1 -1 $-1 $-1 $162 1 1021401026 1021401027 -1256325119 21 #
attrib_hh_coedge_geombuild-attrib_entity_geombuild-individual_entity_attribute-attrib_HH-attrib $-1 -1 $-1 $-1 $163 F #
attrib_hh_coedge_geombuild-attrib_entity_geombuild-individual_entity_attribute-attrib_HH-attrib $-1 -1 $-1 $-1 $166 F #
coedge $359 -1 $-1 $360 $166 $361 $362 reversed $112 $-1 #
coedge $363 -1 $-1 $166 $360 $364 $365 reversed $112 $-1 #
coedge $366 -1 $-1 $264 $263 $166 $248 forward $159 $-1 #
edge $367 -1 $-1 $368 -3.1415926535897931 $369 0 $247 $370 forward @7 unknown #
attrib_edge_convexity-kcp-attrib $-1 -1 $371 $-1 $168 1 #
vertex $372 -1 $-1 $168 $373 #
ellipse-curve $-1 -1 $-1 2.125 0 0.5 0 0 1 0.4375 0 0 1 I I #
convexity-sys-attrib $-1 -1 $374 $169 $115 #
model_id-kcp-attrib $-1 -1 $375 $-1 $170 1 1021401026 1021401027 -1256325119 18 #
point $-1 -1 $-1 -1.6875 0 0.5 #
attrib_hh_coedge_geombuild-attrib_entity_geombuild-individual_entity_attribute-attrib_HH-attrib $-1 -1 $-1 $-1 $173 F #
coedge $376 -1 $-1 $174 $173 $377 $378 forward $76 $-1 #
coedge $379 -1 $-1 $380 $381 $173 $258 reversed $382 $-1 #
edge $383 -1 $-1 $267 -4.25 $384 0 $257 $385 forward @7 unknown #
attrib_hh_coedge_geombuild-attrib_entity_geombuild-individual_entity_attribute-attrib_HH-attrib $-1 -1 $-1 $-1 $174 F #
coedge $386 -1 $-1 $387 $388 $174 $261 reversed $240 $-1 #
edge $389 -1 $-1 $390 -4.25 $266 0 $260 $391 forward @7 unknown #
attrib_hh_coedge_geombuild-attrib_entity_geombuild-individual_entity_attribute-attrib_HH-attrib $-1 -1 $-1 $-1 $175 F #
coedge $392 -1 $-1 $247 $175 $388 $393 reversed $159 $-1 #
coedge $394 -1 $-1 $175 $247 $380 $395 forward $159 $-1 #
attrib_edge_convexity-kcp-attrib $-1 -1 $396 $-1 $176 1 #
vertex $397 -1 $-1 $393 $398 #
vertex $399 -1 $-1 $395 $400 #
ellipse-curve $-1 -1 $-1 2.125 0 0 0 0 -1 0 -0.75 0 1 I I #
convexity-sys-attrib $-1 -1 $401 $178 $119 #
model_id-kcp-attrib $-1 -1 $402 $-1 $179 1 1021401026 1021401027 -1256325119 25 #
point $-1 -1 $-1 2.5625 0 0 #
attrib_hh_edge_geombuild-attrib_entity_geombuild-individual_entity_attribute-attrib_HH-attrib $-1 -1 $-1 $181 $80 F #
attrib_hh_vertex_geombuild-attrib_entity_geombuild-individual_entity_attribute-attrib_HH-attrib $-1 -1 $-1 $182 $122 F #
model_id-kcp-attrib $-1 -1 $-1 $-1 $184 1 1021401026 1021401027 -1256325118 4 #
face $-1 -1 $-1 $-1 $199 $25 $-1 $403 reversed single #
loop $-1 -1 $-1 $-1 $291 $184 #
plane-surface $-1 -1 $-1 0 0.75 0 0 -1 0 0 0 -1 forward_v I I I I #
coedge $-1 -1 $-1 $404 $289 $292 $405 forward $185 $-1 #
coedge $-1 -1 $-1 $295 $187 $188 $283 reversed $126 $-1 #
coedge $-1 -1 $-1 $289 $404 $187 $281 reversed $185 $-1 #
edge $-1 -1 $-1 $296 -0.25 $406 0.25 $280 $407 forward @7 unknown #
coedge $-1 -1 $-1 $189 $188 $404 $408 forward $83 $-1 #
edge $-1 -1 $-1 $287 -2.875 $406 2.875 $279 $409 forward @7 unknown #
coedge $-1 -1 $-1 $292 $291 $189 $285 reversed $276 $-1 #
edge $-1 -1 $-1 $410 -2.875 $286 2.875 $284 $411 forward @7 unknown #
vertex $-1 -1 $-1 $191 $412 #
vertex $-1 -1 $-1 $298 $413 #
straight-curve $-1 -1 $-1 2.875 0 -0.25 0 -1 0 I I #
coedge $-1 -1 $-1 $278 $280 $192 $290 reversed $185 $-1 #
edge $-1 -1 $-1 $293 -0.75 $296 0.75 $289 $414 forward @7 unknown #
coedge $-1 -1 $-1 $284 $193 $198 $299 forward $276 $-1 #
coedge $-1 -1 $-1 $193 $284 $278 $405 reversed $276 $-1 #
vertex $-1 -1 $-1 $194 $415 #
straight-curve $-1 -1 $-1 0 0.75 0.25 -1 0 0 I I #
coedge $-1 -1 $-1 $195 $279 $197 $298 reversed $126 $-1 #
vertex $-1 -1 $-1 $290 $416 #
straight-curve $-1 -1 $-1 0 -0.75 0.25 1 0 0 I I #
edge $-1 -1 $-1 $200 -0.25 $287 0.25 $197 $417 forward @7 unknown #
edge $-1 -1 $-1 $201 -0.25 $286 0.25 $198 $418 forward @7 unknown #
point $-1 -1 $-1 2.875 -0.75 0.25 #
point $-1 -1 $-1 2.875 0.75 0.25 #
vertex $-1 -1 $-1 $204 $419 #
ellipse-curve $-1 -1 $-1 0 0 0.25 0 0 1 0.4375 0 0 1 I I #
point $-1 -1 $-1 0.4375 0 -0.25 #
vertex $-1 -1 $-1 $208 $420 #
ellipse-curve $-1 -1 $-1 0 0 0.25 0 0 1 0.4375 0 0 1 I I #
point $-1 -1 $-1 0.4375 0 -0.25 #
face $-1 -1 $-1 $421 $422 $41 $-1 $329 reversed single #
loop $-1 -1 $-1 $-1 $423 $211 #
plane-surface $-1 -1 $-1 0 0.75 0 0 -1 0 0 0 -1 forward_v I I I I #
coedge $-1 -1 $-1 $319 $424 $425 $426 forward $212 $-1 #
coedge $-1 -1 $-1 $313 $213 $427 $428 forward $144 $-1 #
coedge $-1 -1 $-1 $213 $312 $321 $429 forward $144 $-1 #
coedge $-1 -1 $-1 $323 $430 $213 $315 reversed $431 $-1 #
edge $-1 -1 $-1 $325 1.5707963267948966 $432 3.1415926535897931 $213 $433 forward @7 unknown #
coedge $-1 -1 $-1 $215 $214 $434 $435 reversed $97 $-1 #
coedge $-1 -1 $-1 $436 $437 $214 $318 forward $438 $-1 #
edge $-1 -1 $-1 $439 -0.75 $326 0 $214 $440 forward @7 unknown #
coedge $-1 -1 $-1 $424 $311 $215 $320 forward $212 $-1 #
edge $-1 -1 $-1 $325 0 $441 0.75 $215 $442 forward @7 unknown #
coedge $-1 -1 $-1 $443 $216 $313 $429 reversed $324 $-1 #
coedge $-1 -1 $-1 $216 $443 $444 $445 reversed $324 $-1 #
coedge $-1 -1 $-1 $446 $314 $447 $217 forward $431 $-1 #
loop $-1 -1 $-1 $-1 $216 $448 #
vertex $-1 -1 $-1 $320 $449 #
vertex $-1 -1 $-1 $445 $450 #
straight-curve $-1 -1 $-1 2.875 0 -0.25 0 0 -1 I I #
face $-1 -1 $-1 $451 $452 $32 $-1 $145 forward single #
plane-surface $-1 -1 $-1 0 0 -0.25 0 0 1 1 0 0 forward_v I I I I #
coedge $-1 -1 $-1 $453 $454 $223 $335 reversed $219 $-1 #
coedge $-1 -1 $-1 $455 $221 $456 $457 reversed $148 $-1 #
coedge $-1 -1 $-1 $221 $455 $230 $349 reversed $148 $-1 #
coedge $-1 -1 $-1 $223 $222 $458 $459 reversed $100 $-1 #
coedge $-1 -1 $-1 $460 $461 $221 $229 forward $462 $-1 #
edge $-1 -1 $-1 $463 -0.5 $339 0 $330 $464 forward @7 unknown #
coedge $-1 -1 $-1 $337 $224 $454 $465 forward $338 $-1 #
coedge $-1 -1 $-1 $224 $336 $460 $466 forward $338 $-1 #
loop $-1 -1 $-1 $-1 $224 $467 #
vertex $-1 -1 $-1 $465 $468 #
coedge $-1 -1 $-1 $469 $456 $226 $341 forward $452 $-1 #
edge $-1 -1 $-1 $347 1.5707963267948966 $345 3.1415926535897931 $340 $470 forward @7 unknown #
coedge $-1 -1 $-1 $471 $227 $231 $350 reversed $344 $-1 #
coedge $-1 -1 $-1 $227 $471 $469 $472 reversed $344 $-1 #
loop $-1 -1 $-1 $-1 $227 $473 #
vertex $-1 -1 $-1 $472 $474 #
straight-curve $-1 -1 $-1 -2.125 0.75 -0.25 0 0 -1 I I #
vertex $-1 -1 $-1 $475 $476 #
straight-curve $-1 -1 $-1 -2.875 0 -0.25 0 0 -1 I I #
edge $-1 -1 $-1 $234 0 $477 0.75 $332 $478 forward @7 unknown #
edge $-1 -1 $-1 $477 -2.875 $233 -2.125 $342 $479 forward @7 unknown #
point $-1 -1 $-1 -2.125 0.75 -0.25 #
point $-1 -1 $-1 -2.875 0 -0.25 #
aggregate_simgeom_attribute-aggregate_simgeom_base_attribute-aggregate_body_attribute-attrib_HH-attrib $-1 -1 $-1 $236 $0 F #
attrib_hh_face_geombuild-attrib_entity_geombuild-individual_entity_attribute-attrib_HH-attrib $-1 -1 $-1 $238 $158 F #
model_id-kcp-attrib $-1 -1 $480 $-1 $239 1 1021401026 1021401027 -1256325119 8 #
face $481 -1 $-1 $-1 $382 $10 $-1 $482 forward single #
loop $-1 -1 $-1 $-1 $377 $239 #
cone-surface $-1 -1 $-1 -2.125 0 0 0 0 1 0.75 0 0 1 I I 0 1 0.75 forward I I I I #
attrib_hh_coedge_geombuild-attrib_entity_geombuild-individual_entity_attribute-attrib_HH-attrib $-1 -1 $-1 $-1 $245 F #
coedge $483 -1 $-1 $246 $245 $484 $485 reversed $112 $-1 #
coedge $486 -1 $-1 $388 $387 $245 $362 forward $240 $-1 #
edge $487 -1 $-1 $488 -4.25 $368 0 $361 $489 forward @7 unknown #
attrib_hh_coedge_geombuild-attrib_entity_geombuild-individual_entity_attribute-attrib_HH-attrib $-1 -1 $-1 $-1 $246 F #
coedge $490 -1 $-1 $381 $380 $246 $365 forward $382 $-1 #
edge $491 -1 $-1 $369 -4.25 $492 0 $364 $493 forward @7 unknown #
attrib_hh_coedge_geombuild-attrib_entity_geombuild-individual_entity_attribute-attrib_HH-attrib $-1 -1 $-1 $-1 $247 F #
attrib_hh_edge_geombuild-attrib_entity_geombuild-individual_entity_attribute-attrib_HH-attrib $-1 -1 $-1 $-1 $248 F #
vertex $494 -1 $-1 $393 $495 #
vertex $496 -1 $-1 $395 $497 #
ellipse-curve $-1 -1 $-1 2.125 0 0.5 0 0 -1 0 -0.75 0 1 I I #
convexity-sys-attrib $-1 -1 $498 $249 $168 #
model_id-kcp-attrib $-1 -1 $499 $-1 $250 1 1021401026 1021401027 -1256325119 24 #
point $-1 -1 $-1 2.5625 0 0.5 #
attrib_hh_edge_geombuild-attrib_entity_geombuild-individual_entity_attribute-attrib_HH-attrib $-1 -1 $-1 $252 $115 F #
attrib_hh_vertex_geombuild-attrib_entity_geombuild-individual_entity_attribute-attrib_HH-attrib $-1 -1 $-1 $253 $170 F #
attrib_hh_coedge_geombuild-attrib_entity_geombuild-individual_entity_attribute-attrib_HH-attrib $-1 -1 $-1 $-1 $256 F #
coedge $500 -1 $-1 $501 $502 $256 $378 reversed $357 $-1 #
edge $503 -1 $-1 $384 -3.1415926535897931 $390 0 $377 $504 forward @7 unknown #
attrib_hh_coedge_geombuild-attrib_entity_geombuild-individual_entity_attribute-attrib_HH-attrib $-1 -1 $-1 $-1 $257 F #
coedge $505 -1 $-1 $364 $257 $264 $395 reversed $382 $-1 #
coedge $506 -1 $-1 $257 $364 $501 $507 forward $382 $-1 #
loop $-1 -1 $-1 $-1 $257 $356 #
attrib_edge_convexity-kcp-attrib $-1 -1 $508 $-1 $258 1 #
vertex $509 -1 $-1 $507 $510 #
straight-curve $-1 -1 $-1 -2.125 -0.75 0 -1 0 0 I I #
attrib_hh_coedge_geombuild-attrib_entity_geombuild-individual_entity_attribute-attrib_HH-attrib $-1 -1 $-1 $-1 $260 F #
coedge $511 -1 $-1 $361 $260 $502 $512 reversed $240 $-1 #
coedge $513 -1 $-1 $260 $361 $263 $393 forward $240 $-1 #
attrib_edge_convexity-kcp-attrib $-1 -1 $514 $-1 $261 1 #
vertex $515 -1 $-1 $512 $516 #
straight-curve $-1 -1 $-1 2.125 0.75 0 1 0 0 I I #
attrib_hh_coedge_geombuild-attrib_entity_geombuild-individual_entity_attribute-attrib_HH-attrib $-1 -1 $-1 $-1 $263 F #
edge $517 -1 $-1 $368 -0.5 $266 0 $388 $518 forward @7 unknown #
attrib_hh_coedge_geombuild-attrib_entity_geombuild-individual_entity_attribute-attrib_HH-attrib $-1 -1 $-1 $-1 $264 F #
edge $519 -1 $-1 $369 -0.5 $267 0 $380 $520 forward @7 unknown #
convexity-sys-attrib $-1 -1 $521 $265 $176 #
attrib_hh_vertex_geombuild-attrib_entity_geombuild-individual_entity_attribute-attrib_HH-attrib $-1 -1 $-1 $-1 $266 F #
point $-1 -1 $-1 2.125 0.75 0 #
attrib_hh_vertex_geombuild-attrib_entity_geombuild-individual_entity_attribute-attrib_HH-attrib $-1 -1 $-1 $-1 $267 F #
point $-1 -1 $-1 2.125 -0.75 0 #
attrib_hh_edge_geombuild-attrib_entity_geombuild-individual_entity_attribute-attrib_HH-attrib $-1 -1 $-1 $269 $119 F #
attrib_hh_vertex_geombuild-attrib_entity_geombuild-individual_entity_attribute-attrib_HH-attrib $-1 -1 $-1 $270 $179 F #
plane-surface $-1 -1 $-1 2.875 0 0 -1 0 0 0 0 1 forward_v I I I I #
coedge $-1 -1 $-1 $280 $278 $282 $408 reversed $185 $-1 #
edge $-1 -1 $-1 $293 -0.25 $410 0.25 $292 $522 forward @7 unknown #
vertex $-1 -1 $-1 $408 $523 #
straight-curve $-1 -1 $-1 -2.875 -0.75 0 0 0 -1 I I #
edge $-1 -1 $-1 $406 -0.75 $410 0.75 $404 $524 forward @7 unknown #
straight-curve $-1 -1 $-1 0 -0.75 -0.25 -1 0 0 I I #
vertex $-1 -1 $-1 $285 $525 #
straight-curve $-1 -1 $-1 0 0.75 -0.25 1 0 0 I I #
point $-1 -1 $-1 2.875 0.75 -0.25 #
point $-1 -1 $-1 2.875 -0.75 -0.25 #
straight-curve $-1 -1 $-1 -2.875 0 0.25 0 -1 0 I I #
point $-1 -1 $-1 -2.875 0.75 0.25 #
point $-1 -1 $-1 -2.875 -0.75 0.25 #
straight-curve $-1 -1 $-1 2.875 -0.75 0 0 0 -1 I I #
straight-curve $-1 -1 $-1 2.875 0.75 0 0 0 -1 I I #
point $-1 -1 $-1 0.4375 0 0.25 #
point $-1 -1 $-1 0.4375 0 0.25 #
face $-1 -1 $-1 $448 $438 $41 $-1 $329 reversed single #
loop $-1 -1 $-1 $-1 $526 $308 #
coedge $-1 -1 $-1 $527 $528 $529 $530 reversed $309 $-1 #
coedge $-1 -1 $-1 $311 $319 $527 $531 forward $212 $-1 #
coedge $-1 -1 $-1 $529 $447 $311 $426 reversed $532 $-1 #
edge $-1 -1 $-1 $533 0 $325 1.5707963267948966 $311 $433 forward @7 unknown #
coedge $-1 -1 $-1 $534 $535 $312 $428 reversed $536 $-1 #
edge $-1 -1 $-1 $432 2.125 $537 2.875 $427 $538 forward @7 unknown #
edge $-1 -1 $-1 $537 -0.75 $325 0 $321 $442 forward @7 unknown #
coedge $-1 -1 $-1 $314 $446 $534 $539 reversed $431 $-1 #
loop $-1 -1 $-1 $-1 $446 $540 #
vertex $-1 -1 $-1 $428 $541 #
ellipse-curve $-1 -1 $-1 2.125 0 0.25 0 0 -1 0 0.75 0 1 I I #
coedge $-1 -1 $-1 $528 $527 $316 $435 forward $309 $-1 #
edge $-1 -1 $-1 $441 -0.25 $439 0.25 $316 $542 forward @7 unknown #
coedge $-1 -1 $-1 $437 $317 $543 $544 forward $438 $-1 #
coedge $-1 -1 $-1 $317 $436 $528 $545 forward $438 $-1 #
loop $-1 -1 $-1 $-1 $436 $421 #
vertex $-1 -1 $-1 $318 $546 #
straight-curve $-1 -1 $-1 2.875 0 -0.25 0 -1 0 I I #
vertex $-1 -1 $-1 $320 $547 #
straight-curve $-1 -1 $-1 2.875 0 0.25 0 1 0 I I #
coedge $-1 -1 $-1 $322 $321 $535 $548 forward $324 $-1 #
coedge $-1 -1 $-1 $549 $526 $322 $445 forward $422 $-1 #
edge $-1 -1 $-1 $326 0 $550 0.75 $322 $440 forward @7 unknown #
coedge $-1 -1 $-1 $430 $323 $526 $551 reversed $431 $-1 #
coedge $-1 -1 $-1 $425 $543 $146 $217 reversed $532 $-1 #
face $-1 -1 $-1 $552 $324 $41 $-1 $98 reversed single #
point $-1 -1 $-1 2.875 0 0.25 #
point $-1 -1 $-1 2.875 0 -0.25 #
face $-1 -1 $-1 $467 $553 $32 $-1 $145 forward single #
loop $-1 -1 $-1 $-1 $340 $328 #
coedge $-1 -1 $-1 $554 $330 $555 $556 reversed $219 $-1 #
coedge $-1 -1 $-1 $330 $554 $336 $465 reversed $219 $-1 #
coedge $-1 -1 $-1 $332 $331 $471 $557 forward $148 $-1 #
coedge $-1 -1 $-1 $340 $469 $331 $457 forward $452 $-1 #
edge $-1 -1 $-1 $558 -0.75 $347 0 $331 $559 forward @7 unknown #
coedge $-1 -1 $-1 $560 $555 $333 $459 forward $553 $-1 #
edge $-1 -1 $-1 $463 0 $347 1.5707963267948966 $458 $470 forward @7 unknown #
coedge $-1 -1 $-1 $561 $334 $337 $466 reversed $462 $-1 #
coedge $-1 -1 $-1 $334 $561 $560 $475 reversed $462 $-1 #
loop $-1 -1 $-1 $-1 $334 $562 #
vertex $-1 -1 $-1 $335 $563 #
straight-curve $-1 -1 $-1 -2.125 -0.75 -0.25 0 0 -1 I I #
edge $-1 -1 $-1 $339 2.125 $564 2.875 $454 $565 forward @7 unknown #
edge $-1 -1 $-1 $564 -0.75 $234 0 $460 $478 forward @7 unknown #
face $-1 -1 $-1 $562 $338 $32 $-1 $329 reversed single #
point $-1 -1 $-1 -2.125 -0.75 -0.25 #
coedge $-1 -1 $-1 $456 $340 $343 $472 forward $452 $-1 #
ellipse-curve $-1 -1 $-1 -2.125 0 0.25 0 0 -1 0 -0.75 0 1 I I #
coedge $-1 -1 $-1 $343 $342 $455 $557 reversed $344 $-1 #
edge $-1 -1 $-1 $345 2.125 $558 2.875 $343 $566 forward @7 unknown #
face $-1 -1 $-1 $-1 $344 $32 $-1 $310 reversed single #
point $-1 -1 $-1 -2.125 0.75 0.25 #
edge $-1 -1 $-1 $347 0 $567 0.75 $461 $559 forward @7 unknown #
point $-1 -1 $-1 -2.875 0 0.25 #
vertex $-1 -1 $-1 $350 $568 #
straight-curve $-1 -1 $-1 -2.875 0 -0.25 0 1 0 I I #
straight-curve $-1 -1 $-1 0 0.75 -0.25 1 0 0 I I #
attrib_hh_face_geombuild-attrib_entity_geombuild-individual_entity_attribute-attrib_HH-attrib $-1 -1 $-1 $355 $239 F #
model_id-kcp-attrib $-1 -1 $569 $-1 $356 1 1021401026 1021401027 -1256325119 9 #
plane-surface $-1 -1 $-1 -2.125 -0.75 0 0 -1 0 0 0 -1 forward_v I I I I #
attrib_hh_coedge_geombuild-attrib_entity_geombuild-individual_entity_attribute-attrib_HH-attrib $-1 -1 $-1 $-1 $360 F #
coedge $570 -1 $-1 $502 $501 $360 $485 forward $357 $-1 #
edge $571 -1 $-1 $492 -3.1415926535897931 $488 0 $484 $572 forward @7 unknown #
attrib_hh_coedge_geombuild-attrib_entity_geombuild-individual_entity_attribute-attrib_HH-attrib $-1 -1 $-1 $-1 $361 F #
model_id-kcp-attrib $-1 -1 $573 $-1 $362 1 1021401026 1021401027 -1256325119 12 #
vertex $574 -1 $-1 $512 $575 #
straight-curve $-1 -1 $-1 2.125 0.75 0.5 1 0 0 I I #
attrib_hh_coedge_geombuild-attrib_entity_geombuild-individual_entity_attribute-attrib_HH-attrib $-1 -1 $-1 $-1 $364 F #
model_id-kcp-attrib $-1 -1 $576 $-1 $365 1 1021401026 1021401027 -1256325119 11 #
vertex $577 -1 $-1 $507 $578 #
straight-curve $-1 -1 $-1 -2.125 -0.75 0.5 -1 0 0 I I #
attrib_hh_vertex_geombuild-attrib_entity_geombuild-individual_entity_attribute-attrib_HH-attrib $-1 -1 $-1 $-1 $368 F #
point $-1 -1 $-1 2.125 0.75 0.5 #
attrib_hh_vertex_geombuild-attrib_entity_geombuild-individual_entity_attribute-attrib_HH-attrib $-1 -1 $-1 $-1 $369 F #
point $-1 -1 $-1 2.125 -0.75 0.5 #
attrib_hh_edge_geombuild-attrib_entity_geombuild-individual_entity_attribute-attrib_HH-attrib $-1 -1 $-1 $371 $168 F #
attrib_hh_vertex_geombuild-attrib_entity_geombuild-individual_entity_attribute-attrib_HH-attrib $-1 -1 $-1 $372 $250 F #
attrib_hh_coedge_geombuild-attrib_entity_geombuild-individual_entity_attribute-attrib_HH-attrib $-1 -1 $-1 $-1 $377 F #
coedge $579 -1 $-1 $484 $377 $381 $507 reversed $357 $-1 #
coedge $580 -1 $-1 $377 $484 $387 $512 forward $357 $-1 #
attrib_edge_convexity-kcp-attrib $-1 -1 $581 $-1 $378 1 #
ellipse-curve $-1 -1 $-1 -2.125 0 0 0 0 -1 0 0.75 0 1 I I #
attrib_hh_coedge_geombuild-attrib_entity_geombuild-individual_entity_attribute-attrib_HH-attrib $-1 -1 $-1 $-1 $380 F #
attrib_hh_coedge_geombuild-attrib_entity_geombuild-individual_entity_attribute-attrib_HH-attrib $-1 -1 $-1 $-1 $381 F #
edge $582 -1 $-1 $492 -0.5 $384 0 $381 $583 forward @7 unknown #
convexity-sys-attrib $-1 -1 $584 $383 $258 #
attrib_hh_vertex_geombuild-attrib_entity_geombuild-individual_entity_attribute-attrib_HH-attrib $-1 -1 $-1 $-1 $384 F #
point $-1 -1 $-1 -2.125 -0.75 0 #
attrib_hh_coedge_geombuild-attrib_entity_geombuild-individual_entity_attribute-attrib_HH-attrib $-1 -1 $-1 $-1 $387 F #
edge $585 -1 $-1 $488 -0.5 $390 0 $502 $586 forward @7 unknown #
attrib_hh_coedge_geombuild-attrib_entity_geombuild-individual_entity_attribute-attrib_HH-attrib $-1 -1 $-1 $-1 $388 F #
convexity-sys-attrib $-1 -1 $587 $389 $261 #
attrib_hh_vertex_geombuild-attrib_entity_geombuild-individual_entity_attribute-attrib_HH-attrib $-1 -1 $-1 $-1 $390 F #
point $-1 -1 $-1 -2.125 0.75 0 #
attrib_edge_convexity-kcp-attrib $-1 -1 $588 $-1 $393 3 #
straight-curve $-1 -1 $-1 2.125 0.75 0 0 0 -1 I I #
attrib_hh_edge_geombuild-attrib_entity_geombuild-individual_entity_attribute-attrib_HH-attrib $-1 -1 $-1 $-1 $395 F #
straight-curve $-1 -1 $-1 2.125 -0.75 0 0 0 -1 I I #
attrib_hh_edge_geombuild-attrib_entity_geombuild-individual_entity_attribute-attrib_HH-attrib $-1 -1 $-1 $396 $176 F #
straight-curve $-1 -1 $-1 -2.875 0.75 0 0 0 -1 I I #
point $-1 -1 $-1 -2.875 -0.75 -0.25 #
straight-curve $-1 -1 $-1 -2.875 0 -0.25 0 1 0 I I #
point $-1 -1 $-1 -2.875 0.75 -0.25 #
coedge $-1 -1 $-1 $444 $549 $446 $551 forward $422 $-1 #
coedge $-1 -1 $-1 $434 $423 $424 $531 reversed $309 $-1 #
coedge $-1 -1 $-1 $423 $434 $437 $545 reversed $309 $-1 #
coedge $-1 -1 $-1 $543 $425 $423 $530 forward $532 $-1 #
edge $-1 -1 $-1 $533 -0.5 $589 0 $423 $590 forward @7 unknown #
edge $-1 -1 $-1 $441 -2.875 $533 -2.125 $527 $566 forward @7 unknown #
loop $-1 -1 $-1 $-1 $543 $591 #
vertex $-1 -1 $-1 $426 $592 #
coedge $-1 -1 $-1 $593 $427 $430 $539 forward $536 $-1 #
coedge $-1 -1 $-1 $427 $593 $443 $548 reversed $536 $-1 #
loop $-1 -1 $-1 $-1 $534 $552 #
vertex $-1 -1 $-1 $429 $594 #
straight-curve $-1 -1 $-1 0 -0.75 0.25 1 0 0 I I #
edge $-1 -1 $-1 $432 -0.5 $595 0 $534 $596 forward @7 unknown #
face $-1 -1 $-1 $591 $431 $41 $-1 $597 reversed single #
point $-1 -1 $-1 2.125 -0.75 0.25 #
straight-curve $-1 -1 $-1 2.875 0.75 0 0 0 -1 I I #
coedge $-1 -1 $-1 $447 $529 $436 $544 reversed $532 $-1 #
edge $-1 -1 $-1 $326 -1.5707963267948966 $589 0 $436 $598 forward @7 unknown #
edge $-1 -1 $-1 $589 2.125 $439 2.875 $528 $479 forward @7 unknown #
point $-1 -1 $-1 2.875 0.75 -0.25 #
point $-1 -1 $-1 2.875 0.75 0.25 #
edge $-1 -1 $-1 $537 -0.25 $550 0.25 $443 $599 forward @7 unknown #
coedge $-1 -1 $-1 $526 $444 $593 $600 forward $422 $-1 #
vertex $-1 -1 $-1 $548 $601 #
edge $-1 -1 $-1 $595 -3.1415926535897931 $326 -1.5707963267948966 $526 $598 forward @7 unknown #
face $-1 -1 $-1 $540 $536 $41 $-1 $220 reversed single #
loop $-1 -1 $-1 $-1 $458 $451 #
coedge $-1 -1 $-1 $454 $453 $561 $602 forward $219 $-1 #
coedge $-1 -1 $-1 $458 $560 $453 $556 forward $553 $-1 #
edge $-1 -1 $-1 $567 -2.875 $463 -2.125 $453 $538 forward @7 unknown #
edge $-1 -1 $-1 $558 -0.25 $477 0.25 $471 $603 forward @7 unknown #
vertex $-1 -1 $-1 $472 $604 #
straight-curve $-1 -1 $-1 -2.875 0 0.25 0 -1 0 I I #
coedge $-1 -1 $-1 $555 $458 $461 $475 forward $553 $-1 #
coedge $-1 -1 $-1 $461 $460 $554 $602 reversed $462 $-1 #
face $-1 -1 $-1 $473 $462 $32 $-1 $149 reversed single #
point $-1 -1 $-1 -2.125 -0.75 0.25 #
vertex $-1 -1 $-1 $466 $605 #
straight-curve $-1 -1 $-1 0 -0.75 -0.25 -1 0 0 I I #
straight-curve $-1 -1 $-1 0 0.75 0.25 -1 0 0 I I #
vertex $-1 -1 $-1 $475 $606 #
point $-1 -1 $-1 -2.875 0.75 -0.25 #
attrib_hh_face_geombuild-attrib_entity_geombuild-individual_entity_attribute-attrib_HH-attrib $-1 -1 $-1 $481 $356 F #
attrib_hh_coedge_geombuild-attrib_entity_geombuild-individual_entity_attribute-attrib_HH-attrib $-1 -1 $-1 $-1 $484 F #
attrib_hh_edge_geombuild-attrib_entity_geombuild-individual_entity_attribute-attrib_HH-attrib $-1 -1 $-1 $-1 $485 F #
ellipse-curve $-1 -1 $-1 -2.125 0 0.5 0 0 -1 0 0.75 0 1 I I #
attrib_edge_convexity-kcp-attrib $-1 -1 $607 $487 $362 1 #
attrib_hh_vertex_geombuild-attrib_entity_geombuild-individual_entity_attribute-attrib_HH-attrib $-1 -1 $-1 $-1 $488 F #
point $-1 -1 $-1 -2.125 0.75 0.5 #
attrib_hh_edge_geombuild-attrib_entity_geombuild-individual_entity_attribute-attrib_HH-attrib $-1 -1 $-1 $491 $365 F #
attrib_hh_vertex_geombuild-attrib_entity_geombuild-individual_entity_attribute-attrib_HH-attrib $-1 -1 $-1 $-1 $492 F #
point $-1 -1 $-1 -2.125 -0.75 0.5 #
attrib_hh_coedge_geombuild-attrib_entity_geombuild-individual_entity_attribute-attrib_HH-attrib $-1 -1 $-1 $-1 $501 F #
attrib_hh_coedge_geombuild-attrib_entity_geombuild-individual_entity_attribute-attrib_HH-attrib $-1 -1 $-1 $-1 $502 F #
convexity-sys-attrib $-1 -1 $608 $503 $378 #
attrib_hh_edge_geombuild-attrib_entity_geombuild-individual_entity_attribute-attrib_HH-attrib $-1 -1 $-1 $-1 $507 F #
straight-curve $-1 -1 $-1 -2.125 -0.75 0 0 0 -1 I I #
attrib_hh_edge_geombuild-attrib_entity_geombuild-individual_entity_attribute-attrib_HH-attrib $-1 -1 $-1 $508 $258 F #
attrib_edge_convexity-kcp-attrib $-1 -1 $609 $-1 $512 3 #
straight-curve $-1 -1 $-1 -2.125 0.75 0 0 0 -1 I I #
attrib_hh_edge_geombuild-attrib_entity_geombuild-individual_entity_attribute-attrib_HH-attrib $-1 -1 $-1 $514 $261 F #
convexity-sys-attrib $-1 -1 $610 $517 $393 #
vertex $-1 -1 $-1 $545 $611 #
straight-curve $-1 -1 $-1 2.125 0.75 -0.25 0 0 -1 I I #
face $-1 -1 $-1 $-1 $532 $41 $-1 $597 reversed single #
point $-1 -1 $-1 2.125 0.75 0.25 #
coedge $-1 -1 $-1 $535 $534 $549 $600 reversed $536 $-1 #
point $-1 -1 $-1 2.875 -0.75 0.25 #
vertex $-1 -1 $-1 $551 $612 #
straight-curve $-1 -1 $-1 2.125 -0.75 -0.25 0 0 -1 I I #
cone-surface $-1 -1 $-1 2.125 0 -0.25 0 0 -1 0 0.75 0 1 I I 0 1 0.75 forward I I I I #
ellipse-curve $-1 -1 $-1 2.125 0 -0.25 0 0 1 0 0.75 0 1 I I #
straight-curve $-1 -1 $-1 2.875 -0.75 0 0 0 -1 I I #
edge $-1 -1 $-1 $550 -2.875 $595 -2.125 $593 $565 forward @7 unknown #
point $-1 -1 $-1 2.875 -0.75 -0.25 #
edge $-1 -1 $-1 $567 -0.25 $564 0.25 $561 $613 forward @7 unknown #
straight-curve $-1 -1 $-1 -2.875 0.75 0 0 0 -1 I I #
point $-1 -1 $-1 -2.875 0.75 0.25 #
point $-1 -1 $-1 -2.875 -0.75 -0.25 #
point $-1 -1 $-1 -2.875 -0.75 0.25 #
convexity-sys-attrib $-1 -1 $614 $573 $362 #
attrib_hh_edge_geombuild-attrib_entity_geombuild-individual_entity_attribute-attrib_HH-attrib $-1 -1 $-1 $581 $378 F #
convexity-sys-attrib $-1 -1 $615 $585 $512 #
attrib_hh_edge_geombuild-attrib_entity_geombuild-individual_entity_attribute-attrib_HH-attrib $-1 -1 $-1 $588 $393 F #
point $-1 -1 $-1 2.125 0.75 -0.25 #
point $-1 -1 $-1 2.125 -0.75 -0.25 #
straight-curve $-1 -1 $-1 -2.875 -0.75 0 0 0 -1 I I #
attrib_hh_edge_geombuild-attrib_entity_geombuild-individual_entity_attribute-attrib_HH-attrib $-1 -1 $-1 $607 $362 F #
attrib_hh_edge_geombuild-attrib_entity_geombuild-individual_entity_attribute-attrib_HH-attrib $-1 -1 $-1 $609 $512 F #
End-of-ACIS-data 