600 0 1 0           
57 GICL ACIS Healer - Source: linkage_arm_short_46.sat - 6 0 18 ACIS 6.0.3 Solaris 24 Fri Mar 29 22:30:45 2002 
1 9.999999999999999547e-07 1.000000000000000036e-10 
body $1 $2 $-1 $3 #
aggregate_advspl_attribute-aggregate_geombuild_base_attribute-aggregate_body_attribute-attrib_HH-attrib $-1 $4 $-1 $0 F #
lump $-1 $-1 $5 $0 #
transform $-1 1 0 0 0 1 0 0 0 1 0 0 0 1 no_rotate no_reflect no_shear #
aggregate_secndry_attribute-aggregate_geombuild_base_attribute-aggregate_body_attribute-attrib_HH-attrib $-1 $6 $1 $0 F #
shell $-1 $-1 $-1 $7 $-1 $2 #
aggregate_sharped_attribute-aggregate_geombuild_base_attribute-aggregate_body_attribute-attrib_HH-attrib $-1 $8 $4 $0 F #
face $9 $10 $11 $5 $-1 $12 reversed single #
aggregate_reblend_attribute-aggregate_geombuild_base_attribute-aggregate_body_attribute-attrib_HH-attrib $-1 $13 $6 $0 F #
attrib_hh_face_geombuild-attrib_entity_geombuild-individual_entity_attribute-attrib_HH-attrib $-1 $-1 $-1 $7 F #
face $14 $15 $16 $5 $-1 $17 forward single #
loop $-1 $18 $19 $7 #
plane-surface $-1 0 0 0 0 0 1 1 0 0 forward_v I I I I #
aggregate_isospline_attribute-aggregate_geombuild_base_attribute-aggregate_body_attribute-attrib_HH-attrib $-1 $20 $8 $0 F #
attrib_hh_face_geombuild-attrib_entity_geombuild-individual_entity_attribute-attrib_HH-attrib $-1 $-1 $-1 $10 F #
face $21 $22 $23 $5 $-1 $24 reversed single #
loop $-1 $25 $26 $10 #
plane-surface $-1 0 0 0.5 0 0 1 1 0 0 forward_v I I I I #
loop $-1 $27 $28 $7 #
coedge $29 $19 $19 $30 $31 forward $11 $-1 #
aggregate_analytic_solver_attribute-aggregate_geombuild_base_attribute-aggregate_body_attribute-attrib_HH-attrib $-1 $32 $13 $0 F #
attrib_hh_face_geombuild-attrib_entity_geombuild-individual_entity_attribute-attrib_HH-attrib $-1 $-1 $-1 $15 F #
face $33 $34 $35 $5 $-1 $36 reversed single #
loop $-1 $37 $38 $15 #
cone-surface $-1 -2.125 0 0 0 0 1 0.4375 0 0 1 I I 0 1 0.4375 forward I I I I #
loop $-1 $39 $40 $10 #
coedge $41 $26 $26 $38 $42 reversed $16 $-1 #
loop $-1 $-1 $43 $7 #
coedge $44 $28 $28 $45 $46 forward $18 $-1 #
attrib_hh_coedge_geombuild-attrib_entity_geombuild-individual_entity_attribute-attrib_HH-attrib $-1 $-1 $-1 $19 F #
coedge $47 $30 $30 $19 $31 reversed $37 $-1 #
edge $48 $49 -3.141592653589793116 $49 3.141592653589793116 $30 $50 forward 7 unknown #
aggregate_geombuild_attribute-aggregate_geombuild_base_attribute-aggregate_body_attribute-attrib_HH-attrib $-1 $51 $20 $0 #
attrib_hh_face_geombuild-attrib_entity_geombuild-individual_entity_attribute-attrib_HH-attrib $-1 $-1 $-1 $22 F #
face $52 $53 $54 $5 $-1 $55 forward single #
loop $-1 $56 $57 $22 #
cone-surface $-1 2.125 0 0 0 0 1 0.4375 0 0 1 I I 0 1 0.4375 forward I I I I #
loop $-1 $-1 $30 $15 #
coedge $58 $38 $38 $26 $42 forward $23 $-1 #
loop $-1 $-1 $59 $10 #
coedge $60 $40 $40 $57 $61 reversed $25 $-1 #
attrib_hh_coedge_geombuild-attrib_entity_geombuild-individual_entity_attribute-attrib_HH-attrib $-1 $-1 $-1 $26 F #
edge $62 $63 0 $63 6.283185307179586232 $38 $64 forward 7 unknown #
coedge $65 $66 $67 $68 $69 forward $27 $-1 #
attrib_hh_coedge_geombuild-attrib_entity_geombuild-individual_entity_attribute-attrib_HH-attrib $-1 $-1 $-1 $28 F #
coedge $70 $45 $45 $28 $46 reversed $56 $-1 #
edge $71 $72 -3.141592653589793116 $72 3.141592653589793116 $45 $73 forward 7 unknown #
attrib_hh_coedge_geombuild-attrib_entity_geombuild-individual_entity_attribute-attrib_HH-attrib $-1 $-1 $-1 $30 F #
attrib_hh_edge_geombuild-attrib_entity_geombuild-individual_entity_attribute-attrib_HH-attrib $-1 $-1 $-1 $31 F #
vertex $74 $31 $75 #
ellipse-curve $-1 -2.125 0 0 0 0 1 -0.4375 0 0 1 I I #
aggregate_stitch_attribute-aggregate_stitch_base_attribute-aggregate_body_attribute-attrib_HH-attrib $-1 $76 $32 $0 F #
attrib_hh_face_geombuild-attrib_entity_geombuild-individual_entity_attribute-attrib_HH-attrib $-1 $-1 $-1 $34 F #
face $77 $78 $79 $5 $-1 $80 forward single #
loop $-1 $-1 $68 $34 #
cone-surface $-1 2.125 0 0 0 0 1 0.75 0 0 1 I I 0 1 0.75 forward I I I I #
loop $-1 $-1 $45 $22 #
coedge $81 $57 $57 $40 $61 forward $35 $-1 #
attrib_hh_coedge_geombuild-attrib_entity_geombuild-individual_entity_attribute-attrib_HH-attrib $-1 $-1 $-1 $38 F #
coedge $82 $83 $84 $85 $86 reversed $39 $-1 #
attrib_hh_coedge_geombuild-attrib_entity_geombuild-individual_entity_attribute-attrib_HH-attrib $-1 $-1 $-1 $40 F #
edge $87 $88 0 $88 6.283185307179586232 $57 $89 forward 7 unknown #
attrib_hh_edge_geombuild-attrib_entity_geombuild-individual_entity_attribute-attrib_HH-attrib $-1 $-1 $-1 $42 F #
vertex $90 $42 $91 #
ellipse-curve $-1 -2.125 0 0.5 0 0 1 0.4375 0 0 1 I I #
attrib_hh_coedge_geombuild-attrib_entity_geombuild-individual_entity_attribute-attrib_HH-attrib $-1 $-1 $-1 $43 F #
coedge $92 $93 $43 $94 $95 forward $27 $-1 #
coedge $96 $43 $93 $97 $98 forward $27 $-1 #
coedge $99 $100 $101 $43 $69 reversed $54 $-1 #
edge $102 $103 -3.141592653589793116 $104 0 $68 $105 forward 7 unknown #
attrib_hh_coedge_geombuild-attrib_entity_geombuild-individual_entity_attribute-attrib_HH-attrib $-1 $-1 $-1 $45 F #
attrib_hh_edge_geombuild-attrib_entity_geombuild-individual_entity_attribute-attrib_HH-attrib $-1 $-1 $-1 $46 F #
vertex $106 $46 $107 #
ellipse-curve $-1 2.125 0 0 0 0 1 -0.4375 0 0 1 I I #
attrib_hh_vertex_geombuild-attrib_entity_geombuild-individual_entity_attribute-attrib_HH-attrib $-1 $-1 $-1 $49 F #
point $-1 -1.6875 0 0 #
aggregate_simgeom_attribute-aggregate_simgeom_base_attribute-aggregate_body_attribute-attrib_HH-attrib $-1 $-1 $51 $0 F #
attrib_hh_face_geombuild-attrib_entity_geombuild-individual_entity_attribute-attrib_HH-attrib $-1 $-1 $-1 $53 F #
face $108 $109 $110 $5 $-1 $111 forward single #
loop $-1 $-1 $97 $53 #
plane-surface $-1 2.125 0.75 0 0 1 0 0 0 1 forward_v I I I I #
attrib_hh_coedge_geombuild-attrib_entity_geombuild-individual_entity_attribute-attrib_HH-attrib $-1 $-1 $-1 $57 F #
attrib_hh_coedge_geombuild-attrib_entity_geombuild-individual_entity_attribute-attrib_HH-attrib $-1 $-1 $-1 $59 F #
coedge $112 $113 $59 $114 $115 reversed $39 $-1 #
coedge $116 $59 $113 $117 $118 reversed $39 $-1 #
coedge $119 $101 $100 $59 $86 forward $54 $-1 #
edge $120 $121 -3.141592653589793116 $122 0 $85 $123 forward 7 unknown #
attrib_hh_edge_geombuild-attrib_entity_geombuild-individual_entity_attribute-attrib_HH-attrib $-1 $-1 $-1 $61 F #
vertex $124 $61 $125 #
ellipse-curve $-1 2.125 0 0.5 0 0 1 0.4375 0 0 1 I I #
attrib_hh_vertex_geombuild-attrib_entity_geombuild-individual_entity_attribute-attrib_HH-attrib $-1 $-1 $-1 $63 F #
point $-1 -1.6875 0 0.5 #
attrib_hh_coedge_geombuild-attrib_entity_geombuild-individual_entity_attribute-attrib_HH-attrib $-1 $-1 $-1 $66 F #
coedge $126 $67 $66 $127 $128 forward $27 $-1 #
coedge $129 $130 $131 $66 $95 reversed $132 $-1 #
edge $133 $104 -4.25 $134 0 $94 $135 forward 7 unknown #
attrib_hh_coedge_geombuild-attrib_entity_geombuild-individual_entity_attribute-attrib_HH-attrib $-1 $-1 $-1 $67 F #
coedge $136 $137 $138 $67 $98 reversed $79 $-1 #
edge $139 $140 -4.25 $103 0 $97 $141 forward 7 unknown #
attrib_hh_coedge_geombuild-attrib_entity_geombuild-individual_entity_attribute-attrib_HH-attrib $-1 $-1 $-1 $68 F #
coedge $142 $85 $68 $138 $143 reversed $54 $-1 #
coedge $144 $68 $85 $130 $145 forward $54 $-1 #
attrib_hh_edge_geombuild-attrib_entity_geombuild-individual_entity_attribute-attrib_HH-attrib $-1 $-1 $-1 $69 F #
vertex $146 $143 $147 #
vertex $148 $145 $149 #
ellipse-curve $-1 2.125 0 0 0 0 -1 0 -0.75 0 1 I I #
attrib_hh_vertex_geombuild-attrib_entity_geombuild-individual_entity_attribute-attrib_HH-attrib $-1 $-1 $-1 $72 F #
point $-1 2.5625 0 0 #
attrib_hh_face_geombuild-attrib_entity_geombuild-individual_entity_attribute-attrib_HH-attrib $-1 $-1 $-1 $78 F #
face $150 $-1 $132 $5 $-1 $151 forward single #
loop $-1 $-1 $127 $78 #
cone-surface $-1 -2.125 0 0 0 0 1 0.75 0 0 1 I I 0 1 0.75 forward I I I I #
attrib_hh_coedge_geombuild-attrib_entity_geombuild-individual_entity_attribute-attrib_HH-attrib $-1 $-1 $-1 $83 F #
coedge $152 $84 $83 $153 $154 reversed $39 $-1 #
coedge $155 $138 $137 $83 $115 forward $79 $-1 #
edge $156 $157 -4.25 $121 0 $114 $158 forward 7 unknown #
attrib_hh_coedge_geombuild-attrib_entity_geombuild-individual_entity_attribute-attrib_HH-attrib $-1 $-1 $-1 $84 F #
coedge $159 $131 $130 $84 $118 forward $132 $-1 #
edge $160 $122 -4.25 $161 0 $117 $162 forward 7 unknown #
attrib_hh_coedge_geombuild-attrib_entity_geombuild-individual_entity_attribute-attrib_HH-attrib $-1 $-1 $-1 $85 F #
attrib_hh_edge_geombuild-attrib_entity_geombuild-individual_entity_attribute-attrib_HH-attrib $-1 $-1 $-1 $86 F #
vertex $163 $143 $164 #
vertex $165 $145 $166 #
ellipse-curve $-1 2.125 0 0.5 0 0 -1 0 -0.75 0 1 I I #
attrib_hh_vertex_geombuild-attrib_entity_geombuild-individual_entity_attribute-attrib_HH-attrib $-1 $-1 $-1 $88 F #
point $-1 2.5625 0 0.5 #
attrib_hh_coedge_geombuild-attrib_entity_geombuild-individual_entity_attribute-attrib_HH-attrib $-1 $-1 $-1 $93 F #
coedge $167 $168 $169 $93 $128 reversed $110 $-1 #
edge $170 $134 -3.141592653589793116 $140 0 $127 $171 forward 7 unknown #
attrib_hh_coedge_geombuild-attrib_entity_geombuild-individual_entity_attribute-attrib_HH-attrib $-1 $-1 $-1 $94 F #
coedge $172 $117 $94 $101 $145 reversed $132 $-1 #
coedge $173 $94 $117 $168 $174 forward $132 $-1 #
loop $-1 $-1 $94 $109 #
attrib_hh_edge_geombuild-attrib_entity_geombuild-individual_entity_attribute-attrib_HH-attrib $-1 $-1 $-1 $95 F #
vertex $175 $174 $176 #
straight-curve $-1 -2.125 -0.75 0 -1 0 0 I I #
attrib_hh_coedge_geombuild-attrib_entity_geombuild-individual_entity_attribute-attrib_HH-attrib $-1 $-1 $-1 $97 F #
coedge $177 $114 $97 $169 $178 reversed $79 $-1 #
coedge $179 $97 $114 $100 $143 forward $79 $-1 #
attrib_hh_edge_geombuild-attrib_entity_geombuild-individual_entity_attribute-attrib_HH-attrib $-1 $-1 $-1 $98 F #
vertex $180 $178 $181 #
straight-curve $-1 2.125 0.75 0 1 0 0 I I #
attrib_hh_coedge_geombuild-attrib_entity_geombuild-individual_entity_attribute-attrib_HH-attrib $-1 $-1 $-1 $100 F #
edge $182 $121 -0.5 $103 0 $138 $183 forward 7 unknown #
attrib_hh_coedge_geombuild-attrib_entity_geombuild-individual_entity_attribute-attrib_HH-attrib $-1 $-1 $-1 $101 F #
edge $184 $122 -0.5 $104 0 $130 $185 forward 7 unknown #
attrib_hh_vertex_geombuild-attrib_entity_geombuild-individual_entity_attribute-attrib_HH-attrib $-1 $-1 $-1 $103 F #
point $-1 2.125 0.75 0 #
attrib_hh_vertex_geombuild-attrib_entity_geombuild-individual_entity_attribute-attrib_HH-attrib $-1 $-1 $-1 $104 F #
point $-1 2.125 -0.75 0 #
attrib_hh_face_geombuild-attrib_entity_geombuild-individual_entity_attribute-attrib_HH-attrib $-1 $-1 $-1 $109 F #
plane-surface $-1 -2.125 -0.75 0 0 -1 0 0 0 -1 forward_v I I I I #
attrib_hh_coedge_geombuild-attrib_entity_geombuild-individual_entity_attribute-attrib_HH-attrib $-1 $-1 $-1 $113 F #
coedge $186 $169 $168 $113 $154 forward $110 $-1 #
edge $187 $161 -3.141592653589793116 $157 0 $153 $188 forward 7 unknown #
attrib_hh_coedge_geombuild-attrib_entity_geombuild-individual_entity_attribute-attrib_HH-attrib $-1 $-1 $-1 $114 F #
attrib_hh_edge_geombuild-attrib_entity_geombuild-individual_entity_attribute-attrib_HH-attrib $-1 $-1 $-1 $115 F #
vertex $189 $178 $190 #
straight-curve $-1 2.125 0.75 0.5 1 0 0 I I #
attrib_hh_coedge_geombuild-attrib_entity_geombuild-individual_entity_attribute-attrib_HH-attrib $-1 $-1 $-1 $117 F #
attrib_hh_edge_geombuild-attrib_entity_geombuild-individual_entity_attribute-attrib_HH-attrib $-1 $-1 $-1 $118 F #
vertex $191 $174 $192 #
straight-curve $-1 -2.125 -0.75 0.5 -1 0 0 I I #
attrib_hh_vertex_geombuild-attrib_entity_geombuild-individual_entity_attribute-attrib_HH-attrib $-1 $-1 $-1 $121 F #
point $-1 2.125 0.75 0.5 #
attrib_hh_vertex_geombuild-attrib_entity_geombuild-individual_entity_attribute-attrib_HH-attrib $-1 $-1 $-1 $122 F #
point $-1 2.125 -0.75 0.5 #
attrib_hh_coedge_geombuild-attrib_entity_geombuild-individual_entity_attribute-attrib_HH-attrib $-1 $-1 $-1 $127 F #
coedge $193 $153 $127 $131 $174 reversed $110 $-1 #
coedge $194 $127 $153 $137 $178 forward $110 $-1 #
attrib_hh_edge_geombuild-attrib_entity_geombuild-individual_entity_attribute-attrib_HH-attrib $-1 $-1 $-1 $128 F #
ellipse-curve $-1 -2.125 0 0 0 0 -1 0 0.75 0 1 I I #
attrib_hh_coedge_geombuild-attrib_entity_geombuild-individual_entity_attribute-attrib_HH-attrib $-1 $-1 $-1 $130 F #
attrib_hh_coedge_geombuild-attrib_entity_geombuild-individual_entity_attribute-attrib_HH-attrib $-1 $-1 $-1 $131 F #
edge $195 $161 -0.5 $134 0 $131 $196 forward 7 unknown #
attrib_hh_vertex_geombuild-attrib_entity_geombuild-individual_entity_attribute-attrib_HH-attrib $-1 $-1 $-1 $134 F #
point $-1 -2.125 -0.75 0 #
attrib_hh_coedge_geombuild-attrib_entity_geombuild-individual_entity_attribute-attrib_HH-attrib $-1 $-1 $-1 $137 F #
edge $197 $157 -0.5 $140 0 $169 $198 forward 7 unknown #
attrib_hh_coedge_geombuild-attrib_entity_geombuild-individual_entity_attribute-attrib_HH-attrib $-1 $-1 $-1 $138 F #
attrib_hh_vertex_geombuild-attrib_entity_geombuild-individual_entity_attribute-attrib_HH-attrib $-1 $-1 $-1 $140 F #
point $-1 -2.125 0.75 0 #
attrib_hh_edge_geombuild-attrib_entity_geombuild-individual_entity_attribute-attrib_HH-attrib $-1 $-1 $-1 $143 F #
straight-curve $-1 2.125 0.75 0 0 0 -1 I I #
attrib_hh_edge_geombuild-attrib_entity_geombuild-individual_entity_attribute-attrib_HH-attrib $-1 $-1 $-1 $145 F #
straight-curve $-1 2.125 -0.75 0 0 0 -1 I I #
attrib_hh_coedge_geombuild-attrib_entity_geombuild-individual_entity_attribute-attrib_HH-attrib $-1 $-1 $-1 $153 F #
attrib_hh_edge_geombuild-attrib_entity_geombuild-individual_entity_attribute-attrib_HH-attrib $-1 $-1 $-1 $154 F #
ellipse-curve $-1 -2.125 0 0.5 0 0 -1 0 0.75 0 1 I I #
attrib_hh_vertex_geombuild-attrib_entity_geombuild-individual_entity_attribute-attrib_HH-attrib $-1 $-1 $-1 $157 F #
point $-1 -2.125 0.75 0.5 #
attrib_hh_vertex_geombuild-attrib_entity_geombuild-individual_entity_attribute-attrib_HH-attrib $-1 $-1 $-1 $161 F #
point $-1 -2.125 -0.75 0.5 #
attrib_hh_coedge_geombuild-attrib_entity_geombuild-individual_entity_attribute-attrib_HH-attrib $-1 $-1 $-1 $168 F #
attrib_hh_coedge_geombuild-attrib_entity_geombuild-individual_entity_attribute-attrib_HH-attrib $-1 $-1 $-1 $169 F #
attrib_hh_edge_geombuild-attrib_entity_geombuild-individual_entity_attribute-attrib_HH-attrib $-1 $-1 $-1 $174 F #
straight-curve $-1 -2.125 -0.75 0 0 0 -1 I I #
attrib_hh_edge_geombuild-attrib_entity_geombuild-individual_entity_attribute-attrib_HH-attrib $-1 $-1 $-1 $178 F #
straight-curve $-1 -2.125 0.75 0 0 0 -1 I I #
End-of-ACIS-data 