600 0 1 0           
83 GICL ACIS Healer - Source: /gicl/data5/repository/UMD/goodpart1/goodpart1.sat - 6 0 18 ACIS 6.0.3 Solaris 24 Sun Apr 14 00:34:40 2002 
1 9.999999999999999547e-07 1.000000000000000036e-10 
body $-1 $1 $-1 $-1 #
lump $-1 $-1 $2 $0 #
shell $-1 $-1 $-1 $3 $-1 $1 #
face $-1 $4 $5 $2 $-1 $6 reversed single #
face $-1 $7 $8 $2 $-1 $9 forward single #
loop $-1 $-1 $10 $3 #
plane-surface $-1 -50 0 15 0 0 1 1 0 0 forward_v I I I I #
face $-1 $11 $12 $2 $-1 $13 forward single #
loop $-1 $-1 $14 $4 #
plane-surface $-1 -50 0 -15 0 0 1 1 0 0 forward_v I I I I #
coedge $-1 $15 $16 $17 $18 reversed $5 $-1 #
face $-1 $19 $20 $2 $-1 $21 reversed single #
loop $-1 $-1 $22 $7 #
plane-surface $-1 -40 0 0 -1 0 0 0 0 1 forward_v I I I I #
coedge $-1 $23 $24 $25 $26 reversed $8 $-1 #
coedge $-1 $27 $10 $28 $29 reversed $5 $-1 #
coedge $-1 $10 $27 $30 $31 reversed $5 $-1 #
coedge $-1 $32 $22 $10 $18 forward $12 $-1 #
edge $-1 $33 -25 $34 25 $17 $35 forward 7 unknown #
face $-1 $36 $37 $2 $-1 $21 reversed single #
loop $-1 $-1 $38 $11 #
plane-surface $-1 -60 0 0 1 0 0 0 0 -1 forward_v I I I I #
coedge $-1 $17 $25 $39 $40 reversed $12 $-1 #
coedge $-1 $41 $14 $42 $43 reversed $8 $-1 #
coedge $-1 $14 $41 $44 $45 reversed $8 $-1 #
coedge $-1 $22 $32 $14 $26 forward $12 $-1 #
edge $-1 $46 -25 $47 25 $25 $48 forward 7 unknown #
coedge $-1 $16 $15 $49 $50 reversed $5 $-1 #
coedge $-1 $39 $51 $15 $29 forward $52 $-1 #
edge $-1 $53 -35 $33 -15 $28 $54 forward 7 unknown #
coedge $-1 $55 $56 $16 $31 forward $57 $-1 #
edge $-1 $34 15 $58 35 $30 $59 forward 7 unknown #
coedge $-1 $25 $17 $56 $60 reversed $12 $-1 #
vertex $-1 $29 $61 #
vertex $-1 $31 $62 #
straight-curve $-1 -40 0 15 0 1 0 I I #
face $-1 $63 $52 $2 $-1 $64 reversed single #
loop $-1 $-1 $49 $19 #
coedge $-1 $65 $66 $41 $67 forward $20 $-1 #
coedge $-1 $44 $28 $22 $40 forward $52 $-1 #
edge $-1 $33 -15 $47 15 $39 $68 forward 7 unknown #
coedge $-1 $24 $23 $38 $67 reversed $8 $-1 #
coedge $-1 $56 $69 $23 $43 forward $57 $-1 #
edge $-1 $70 -35 $46 -15 $42 $71 forward 7 unknown #
coedge $-1 $72 $39 $24 $45 forward $52 $-1 #
edge $-1 $47 15 $73 35 $44 $74 forward 7 unknown #
vertex $-1 $43 $75 #
vertex $-1 $45 $76 #
straight-curve $-1 -40 0 -15 0 -1 0 I I #
coedge $-1 $77 $78 $27 $50 forward $37 $-1 #
edge $-1 $58 -25 $53 25 $49 $79 forward 7 unknown #
coedge $-1 $28 $80 $77 $81 forward $52 $-1 #
loop $-1 $-1 $28 $36 #
vertex $-1 $81 $82 #
straight-curve $-1 -25 -25 15 1 -0 0 I I #
coedge $-1 $83 $30 $78 $84 reversed $57 $-1 #
coedge $-1 $30 $42 $32 $60 forward $57 $-1 #
loop $-1 $-1 $30 $85 #
vertex $-1 $84 $86 #
straight-curve $-1 -25 25 15 -1 0 0 I I #
edge $-1 $46 -15 $34 15 $56 $87 forward 7 unknown #
point $-1 -40 -25 15 #
point $-1 -40 25 15 #
face $-1 $88 $89 $2 $-1 $90 reversed single #
plane-surface $-1 0 -25 0 0 1 -0 -0 0 1 forward_v I I I I #
coedge $-1 $91 $38 $69 $92 forward $20 $-1 #
coedge $-1 $38 $91 $72 $93 reversed $20 $-1 #
edge $-1 $73 -25 $70 25 $38 $94 forward 7 unknown #
straight-curve $-1 -40 -25 0 -0 0 -1 I I #
coedge $-1 $42 $95 $65 $92 reversed $57 $-1 #
vertex $-1 $67 $96 #
straight-curve $-1 -25 25 -15 1 0 -0 I I #
coedge $-1 $97 $44 $66 $93 forward $52 $-1 #
vertex $-1 $45 $98 #
straight-curve $-1 -25 -25 -15 -1 0 0 I I #
point $-1 -40 25 -15 #
point $-1 -40 -25 -15 #
coedge $-1 $99 $49 $51 $81 reversed $37 $-1 #
coedge $-1 $49 $99 $55 $84 forward $37 $-1 #
straight-curve $-1 -60 0 15 0 -1 0 I I #
coedge $-1 $51 $100 $101 $102 forward $52 $-1 #
edge $-1 $103 -30 $53 -15 $77 $104 forward 7 unknown #
point $-1 -60 -25 15 #
coedge $-1 $105 $55 $106 $107 forward $57 $-1 #
edge $-1 $108 -30 $58 -15 $55 $109 forward 7 unknown #
face $-1 $110 $57 $2 $-1 $111 reversed single #
point $-1 -60 25 15 #
straight-curve $-1 -40 25 0 0 0 1 I I #
face $-1 $112 $113 $2 $-1 $114 forward single #
loop $-1 $-1 $115 $63 #
plane-surface $-1 50 0 15 0 0 1 1 0 0 forward_v I I I I #
coedge $-1 $66 $65 $116 $117 forward $20 $-1 #
edge $-1 $70 15 $118 30 $69 $109 forward 7 unknown #
edge $-1 $73 15 $119 30 $66 $104 forward 7 unknown #
straight-curve $-1 -60 0 -15 0 1 0 I I #
coedge $-1 $69 $120 $121 $122 forward $57 $-1 #
point $-1 -60 25 -15 #
coedge $-1 $123 $72 $124 $125 forward $52 $-1 #
point $-1 -60 -25 -15 #
coedge $-1 $78 $77 $126 $127 forward $37 $-1 #
coedge $-1 $80 $128 $129 $130 forward $52 $-1 #
coedge $-1 $131 $126 $80 $102 reversed $132 $-1 #
edge $-1 $133 12.5 $103 30 $80 $134 forward 7 unknown #
vertex $-1 $102 $135 #
straight-curve $-1 -60 -25 0 0 0 -1 I I #
coedge $-1 $136 $83 $137 $138 forward $57 $-1 #
coedge $-1 $126 $131 $83 $107 reversed $132 $-1 #
edge $-1 $108 -30 $139 -12.5 $83 $140 forward 7 unknown #
vertex $-1 $127 $141 #
straight-curve $-1 -60 25 0 0 0 -1 I I #
face $-1 $142 $143 $2 $-1 $144 reversed single #
plane-surface $-1 0 25 0 0 -1 0 0 0 -1 forward_v I I I I #
face $-1 $85 $145 $2 $-1 $146 forward single #
loop $-1 $-1 $147 $88 #
plane-surface $-1 50 0 -15 0 0 1 1 0 0 forward_v I I I I #
coedge $-1 $148 $149 $150 $151 reversed $89 $-1 #
coedge $-1 $121 $124 $91 $117 reversed $152 $-1 #
edge $-1 $118 -25 $119 25 $91 $153 forward 7 unknown #
vertex $-1 $92 $154 #
vertex $-1 $93 $155 #
coedge $-1 $95 $156 $157 $158 forward $57 $-1 #
coedge $-1 $159 $116 $95 $122 reversed $152 $-1 #
edge $-1 $160 12.5 $118 30 $95 $161 forward 7 unknown #
coedge $-1 $162 $97 $163 $164 forward $52 $-1 #
coedge $-1 $116 $159 $97 $125 reversed $152 $-1 #
edge $-1 $119 -30 $165 -12.5 $97 $166 forward 7 unknown #
coedge $-1 $101 $106 $99 $127 reversed $132 $-1 #
edge $-1 $103 -25 $108 25 $99 $167 forward 7 unknown #
coedge $-1 $100 $168 $169 $170 forward $52 $-1 #
coedge $-1 $171 $172 $100 $130 reversed $173 $-1 #
edge $-1 $174 -0.785398163397448279 $133 0.785398163397448279 $100 $175 forward 7 unknown #
coedge $-1 $106 $101 $172 $176 forward $132 $-1 #
loop $-1 $-1 $106 $177 #
vertex $-1 $102 $178 #
straight-curve $-1 -30 -25 30 -1 0 0 I I #
point $-1 -60 -25 30 #
coedge $-1 $179 $105 $180 $181 forward $57 $-1 #
coedge $-1 $172 $171 $105 $138 reversed $173 $-1 #
edge $-1 $139 -0.785398163397448279 $182 0.785398163397448279 $105 $183 forward 7 unknown #
vertex $-1 $107 $184 #
straight-curve $-1 -30 25 30 1 0 -0 I I #
point $-1 -60 25 30 #
face $-1 $185 $186 $2 $-1 $187 reversed single #
loop $-1 $-1 $188 $110 #
plane-surface $-1 60 0 0 -1 0 0 0 -0 1 forward_v I I I I #
loop $-1 $-1 $189 $112 #
plane-surface $-1 40 0 0 1 0 0 0 0 -1 forward_v I I I I #
coedge $-1 $190 $191 $188 $192 reversed $113 $-1 #
coedge $-1 $193 $115 $194 $195 reversed $89 $-1 #
coedge $-1 $115 $193 $196 $197 reversed $89 $-1 #
coedge $-1 $198 $199 $115 $151 forward $200 $-1 #
edge $-1 $201 -25 $202 25 $150 $203 forward 7 unknown #
loop $-1 $-1 $121 $204 #
straight-curve $-1 -60 0 -30 0 -1 0 I I #
point $-1 -60 25 -30 #
point $-1 -60 -25 -30 #
coedge $-1 $120 $205 $206 $207 forward $57 $-1 #
coedge $-1 $208 $209 $120 $158 reversed $210 $-1 #
edge $-1 $211 -0.785398163397448279 $160 0.785398163397448279 $120 $212 forward 7 unknown #
coedge $-1 $124 $121 $209 $213 forward $152 $-1 #
vertex $-1 $122 $214 #
straight-curve $-1 -30 25 -30 -1 0 0 I I #
coedge $-1 $215 $123 $216 $217 forward $52 $-1 #
coedge $-1 $209 $208 $123 $164 reversed $210 $-1 #
edge $-1 $165 -0.785398163397448279 $218 0.785398163397448279 $123 $219 forward 7 unknown #
vertex $-1 $125 $220 #
straight-curve $-1 -30 -25 -30 1 -0 0 I I #
straight-curve $-1 -60 0 30 0 1 0 I I #
coedge $-1 $128 $221 $222 $223 reversed $52 $-1 #
coedge $-1 $224 $225 $128 $170 reversed $226 $-1 #
edge $-1 $227 -25 $174 -7.5 $128 $228 forward 7 unknown #
coedge $-1 $137 $129 $225 $229 reversed $173 $-1 #
coedge $-1 $129 $137 $131 $176 reversed $173 $-1 #
loop $-1 $-1 $137 $230 #
vertex $-1 $130 $231 #
ellipse-curve $-1 -42.5 -25 32.5 0 1 -0 1.767766952966369987 0 -1.767766952966369987 1 I I #
edge $-1 $133 -25 $139 25 $131 $232 forward 7 unknown #
face $-1 $230 $132 $2 $-1 $233 forward single #
point $-1 -42.5 -25 30 #
coedge $-1 $234 $136 $235 $236 reversed $57 $-1 #
coedge $-1 $225 $224 $136 $181 reversed $226 $-1 #
edge $-1 $182 7.5 $237 25 $136 $238 forward 7 unknown #
vertex $-1 $138 $239 #
ellipse-curve $-1 -42.5 25 32.5 0 -1 0 1.767766952966369987 0 -1.767766952966369987 1 I I #
point $-1 -42.5 25 30 #
face $-1 $240 $241 $2 $-1 $242 reversed single #
loop $-1 $243 $244 $142 #
cone-surface $-1 0 0 0 0 0 1 5 0 0 1 I I 0 1 5 forward I I I I #
coedge $-1 $245 $246 $147 $192 forward $143 $-1 #
coedge $-1 $247 $248 $249 $250 reversed $145 $-1 #
coedge $-1 $251 $147 $252 $253 reversed $113 $-1 #
coedge $-1 $147 $251 $254 $255 reversed $113 $-1 #
edge $-1 $256 -25 $257 25 $188 $258 forward 7 unknown #
coedge $-1 $149 $148 $247 $259 reversed $89 $-1 #
coedge $-1 $260 $261 $148 $195 forward $52 $-1 #
edge $-1 $262 15 $201 35 $194 $263 forward 7 unknown #
coedge $-1 $249 $264 $149 $197 forward $57 $-1 #
edge $-1 $202 -35 $265 -15 $196 $266 forward 7 unknown #
coedge $-1 $267 $150 $264 $268 reversed $200 $-1 #
coedge $-1 $150 $267 $260 $269 forward $200 $-1 #
loop $-1 $-1 $150 $270 #
vertex $-1 $269 $271 #
vertex $-1 $268 $272 #
straight-curve $-1 60 0 15 0 1 -0 I I #
face $-1 $273 $152 $2 $-1 $274 reversed single #
coedge $-1 $156 $275 $276 $277 reversed $57 $-1 #
coedge $-1 $278 $279 $156 $207 reversed $280 $-1 #
edge $-1 $281 -25 $211 -7.5 $156 $282 forward 7 unknown #
coedge $-1 $163 $157 $279 $283 reversed $210 $-1 #
coedge $-1 $157 $163 $159 $213 reversed $210 $-1 #
loop $-1 $-1 $157 $273 #
vertex $-1 $158 $284 #
ellipse-curve $-1 -42.5 25 -32.5 0 -1 0 1.767766952966369987 0 1.767766952966369987 1 I I #
edge $-1 $160 -25 $165 25 $159 $285 forward 7 unknown #
point $-1 -42.5 25 -30 #
coedge $-1 $286 $162 $287 $288 reversed $52 $-1 #
coedge $-1 $279 $278 $162 $217 reversed $280 $-1 #
edge $-1 $218 7.5 $289 25 $162 $290 forward 7 unknown #
vertex $-1 $164 $291 #
ellipse-curve $-1 -42.5 -25 -32.5 0 1 -0 1.767766952966369987 0 1.767766952966369987 1 I I #
point $-1 -42.5 -25 -30 #
coedge $-1 $168 $292 $293 $294 forward $52 $-1 #
coedge $-1 $295 $296 $168 $223 forward $297 $-1 #
edge $-1 $227 -40 $298 -20 $168 $299 forward 7 unknown #
coedge $-1 $180 $169 $296 $300 reversed $226 $-1 #
coedge $-1 $169 $180 $171 $229 forward $226 $-1 #
loop $-1 $-1 $180 $301 #
vertex $-1 $170 $302 #
straight-curve $-1 -40 -25 25 -0 0 -1 I I #
edge $-1 $182 -25 $174 25 $225 $303 forward 7 unknown #
face $-1 $304 $173 $2 $-1 $305 reversed single #
point $-1 -40 -25 32.5 #
straight-curve $-1 -42.5 0 30 0 1 0 I I #
plane-surface $-1 -60 0 30 0 0 1 1 0 0 forward_v I I I I #
coedge $-1 $306 $179 $307 $308 forward $57 $-1 #
coedge $-1 $296 $295 $179 $236 forward $297 $-1 #
edge $-1 $309 20 $237 40 $179 $310 forward 7 unknown #
vertex $-1 $236 $311 #
straight-curve $-1 -40 25 25 0 0 1 I I #
point $-1 -40 25 32.5 #
face $-1 $312 $313 $2 $-1 $242 reversed single #
loop $-1 $314 $315 $185 #
cone-surface $-1 0 0 -40 1 0 -3.491481338843129805e-15 -1.745740669421570149e-14 0 -5 1 I I 0 1 5 forward I I I I #
loop $-1 $-1 $316 $142 #
coedge $-1 $244 $244 $317 $318 reversed $186 $-1 #
coedge $-1 $319 $188 $320 $321 forward $143 $-1 #
coedge $-1 $188 $319 $322 $323 reversed $143 $-1 #
coedge $-1 $324 $189 $193 $259 forward $145 $-1 #
coedge $-1 $189 $324 $251 $325 forward $145 $-1 #
coedge $-1 $252 $196 $189 $250 forward $57 $-1 #
edge $-1 $265 -15 $326 15 $249 $327 forward 7 unknown #
coedge $-1 $191 $190 $248 $325 reversed $113 $-1 #
coedge $-1 $322 $249 $190 $253 forward $57 $-1 #
edge $-1 $326 15 $256 35 $252 $328 forward 7 unknown #
coedge $-1 $261 $320 $191 $255 forward $52 $-1 #
edge $-1 $257 -35 $329 -15 $254 $330 forward 7 unknown #
vertex $-1 $192 $331 #
vertex $-1 $255 $332 #
straight-curve $-1 60 0 -15 0 -1 0 I I #
edge $-1 $265 -25 $262 25 $247 $333 forward 7 unknown #
coedge $-1 $334 $194 $199 $269 reversed $52 $-1 #
coedge $-1 $194 $254 $324 $335 forward $52 $-1 #
vertex $-1 $195 $336 #
straight-curve $-1 25 -25 15 1 -0 0 I I #
coedge $-1 $196 $337 $198 $268 forward $57 $-1 #
vertex $-1 $197 $338 #
straight-curve $-1 25 25 15 -1 0 0 I I #
coedge $-1 $199 $198 $339 $340 forward $200 $-1 #
edge $-1 $341 -30 $202 -15 $198 $342 forward 7 unknown #
edge $-1 $343 -30 $201 -15 $199 $344 forward 7 unknown #
face $-1 $-1 $200 $2 $-1 $144 reversed single #
point $-1 60 -25 15 #
point $-1 60 25 15 #
face $-1 $345 $210 $2 $-1 $346 reversed single #
plane-surface $-1 -60 0 -30 0 0 1 1 0 0 forward_v I I I I #
coedge $-1 $205 $347 $348 $349 forward $57 $-1 #
coedge $-1 $350 $351 $205 $277 forward $352 $-1 #
edge $-1 $281 -40 $353 -20 $205 $354 forward 7 unknown #
coedge $-1 $216 $206 $351 $355 reversed $280 $-1 #
coedge $-1 $206 $216 $208 $283 forward $280 $-1 #
loop $-1 $-1 $206 $345 #
vertex $-1 $355 $356 #
straight-curve $-1 -40 25 -25 0 0 1 I I #
edge $-1 $218 -25 $211 25 $279 $357 forward 7 unknown #
point $-1 -40 25 -32.5 #
straight-curve $-1 -42.5 0 -30 -0 -1 -0 I I #
coedge $-1 $358 $215 $359 $360 forward $52 $-1 #
coedge $-1 $351 $350 $215 $288 forward $352 $-1 #
edge $-1 $361 20 $289 40 $215 $362 forward 7 unknown #
vertex $-1 $288 $363 #
straight-curve $-1 -40 -25 -25 -0 0 -1 I I #
point $-1 -40 -25 -32.5 #
coedge $-1 $221 $364 $365 $366 forward $52 $-1 #
coedge $-1 $367 $368 $221 $294 reversed $369 $-1 #
edge $-1 $370 10 $298 30 $221 $371 forward 7 unknown #
coedge $-1 $235 $222 $368 $372 forward $297 $-1 #
coedge $-1 $222 $235 $224 $300 forward $297 $-1 #
loop $-1 $-1 $295 $304 #
vertex $-1 $223 $373 #
straight-curve $-1 0 -25 50 1 0 0 I I #
edge $-1 $237 -25 $227 25 $296 $374 forward 7 unknown #
face $-1 $177 $375 $2 $-1 $376 forward single #
point $-1 -40 -25 50 #
straight-curve $-1 -40 0 32.5 0 -1 0 I I #
face $-1 $377 $297 $2 $-1 $378 forward single #
cone-surface $-1 -42.5 0 32.5 0 -1 0 1.767766952966369987 0 -1.767766952966369987 1 I I 0 1 2.500000000000001776 forward I I I I #
coedge $-1 $379 $234 $380 $381 forward $57 $-1 #
coedge $-1 $368 $367 $234 $308 reversed $369 $-1 #
edge $-1 $309 -30 $382 -10 $234 $383 forward 7 unknown #
vertex $-1 $372 $384 #
straight-curve $-1 0 25 50 -1 0 0 I I #
point $-1 -40 25 50 #
face $-1 $385 $386 $2 $-1 $387 reversed single #
loop $-1 $388 $389 $240 #
loop $-1 $-1 $390 $185 #
coedge $-1 $315 $315 $391 $392 reversed $241 $-1 #
coedge $-1 $316 $316 $393 $394 reversed $243 $-1 #
coedge $-1 $317 $317 $244 $318 forward $395 $-1 #
edge $-1 $396 -3.141592653589799777 $396 3.141592653589786455 $317 $397 forward 7 unknown #
coedge $-1 $246 $245 $398 $399 forward $143 $-1 #
coedge $-1 $254 $400 $245 $321 reversed $52 $-1 #
edge $-1 $257 15 $401 30 $245 $344 forward 7 unknown #
coedge $-1 $402 $252 $246 $323 forward $57 $-1 #
edge $-1 $256 15 $403 30 $246 $342 forward 7 unknown #
coedge $-1 $248 $247 $261 $335 reversed $145 $-1 #
edge $-1 $329 -25 $326 25 $248 $404 forward 7 unknown #
vertex $-1 $253 $405 #
straight-curve $-1 40 25 0 0 0 -1 I I #
straight-curve $-1 25 25 -15 1 0 -0 I I #
vertex $-1 $255 $406 #
straight-curve $-1 25 -25 -15 -1 0 0 I I #
point $-1 60 25 -15 #
point $-1 60 -25 -15 #
straight-curve $-1 40 0 15 0 -1 0 I I #
coedge $-1 $407 $260 $408 $409 forward $52 $-1 #
edge $-1 $329 -15 $262 15 $261 $410 forward 7 unknown #
point $-1 40 -25 15 #
coedge $-1 $264 $411 $412 $413 forward $57 $-1 #
point $-1 40 25 15 #
coedge $-1 $412 $408 $267 $340 reversed $414 $-1 #
edge $-1 $341 -25 $343 25 $267 $415 forward 7 unknown #
vertex $-1 $413 $416 #
straight-curve $-1 60 25 0 0 0 -1 I I #
vertex $-1 $409 $417 #
straight-curve $-1 60 -25 0 0 0 -1 I I #
face $-1 $301 $418 $2 $-1 $419 forward single #
cone-surface $-1 -42.5 0 -32.5 0 1 0 1.767766952966369987 0 1.767766952966369987 1 I I 0 1 2.500000000000001776 forward I I I I #
coedge $-1 $275 $420 $421 $422 forward $57 $-1 #
coedge $-1 $423 $424 $275 $349 reversed $425 $-1 #
edge $-1 $426 10 $353 30 $275 $427 forward 7 unknown #
coedge $-1 $287 $276 $424 $428 forward $352 $-1 #
coedge $-1 $276 $287 $278 $355 forward $352 $-1 #
loop $-1 $-1 $350 $429 #
vertex $-1 $277 $430 #
straight-curve $-1 0 25 -50 1 0 0 I I #
edge $-1 $289 -25 $281 25 $351 $431 forward 7 unknown #
point $-1 -40 25 -50 #
straight-curve $-1 -40 0 -32.5 0 1 0 I I #
coedge $-1 $432 $286 $433 $434 forward $52 $-1 #
coedge $-1 $424 $423 $286 $360 reversed $425 $-1 #
edge $-1 $361 -30 $435 -10 $286 $436 forward 7 unknown #
vertex $-1 $428 $437 #
straight-curve $-1 0 -25 -50 -1 0 0 I I #
point $-1 -40 -25 -50 #
coedge $-1 $292 $438 $439 $440 forward $52 $-1 #
coedge $-1 $441 $442 $292 $366 reversed $443 $-1 #
edge $-1 $444 -20 $370 20 $292 $445 forward 7 unknown #
coedge $-1 $307 $293 $442 $446 forward $369 $-1 #
coedge $-1 $293 $307 $295 $372 reversed $369 $-1 #
loop $-1 $-1 $307 $447 #
vertex $-1 $366 $448 #
straight-curve $-1 -20 -25 20 -0 0 1 I I #
edge $-1 $298 -25 $309 25 $295 $449 forward 7 unknown #
point $-1 -20 -25 50 #
straight-curve $-1 -40 0 50 0 -1 0 I I #
loop $-1 $226 $450 $301 #
plane-surface $-1 -40 0 50 -1 0 0 0 0 1 forward_v I I I I #
face $-1 $451 $452 $2 $-1 $453 forward single #
plane-surface $-1 0 0 50 0 0 1 1 0 0 forward_v I I I I #
coedge $-1 $454 $306 $455 $456 forward $57 $-1 #
coedge $-1 $442 $441 $306 $381 reversed $443 $-1 #
edge $-1 $382 -20 $457 20 $306 $458 forward 7 unknown #
vertex $-1 $381 $459 #
straight-curve $-1 -20 25 20 0 0 -1 I I #
point $-1 -20 25 50 #
face $-1 $460 $461 $2 $-1 $387 reversed single #
loop $-1 $462 $463 $312 #
cone-surface $-1 0 0 40 1 0 -3.491481338843129805e-15 -1.745740669421570149e-14 0 -5 1 I I 0 1 5 forward I I I I #
loop $-1 $-1 $464 $240 #
coedge $-1 $389 $389 $465 $466 reversed $313 $-1 #
coedge $-1 $390 $390 $467 $468 reversed $314 $-1 #
coedge $-1 $391 $391 $315 $392 forward $452 $-1 #
edge $-1 $469 -3.141592653589799777 $469 3.141592653589786455 $391 $470 forward 7 unknown #
coedge $-1 $393 $393 $316 $394 forward $471 $-1 #
edge $-1 $472 -3.141592653589799777 $472 3.141592653589786455 $393 $473 forward 7 unknown #
loop $-1 $474 $317 $460 #
vertex $-1 $318 $475 #
ellipse-curve $-1 0 0 -30 0 0 1 5 0 0 1 I I #
coedge $-1 $476 $477 $319 $399 reversed $478 $-1 #
edge $-1 $401 -25 $403 25 $319 $479 forward 7 unknown #
coedge $-1 $320 $480 $476 $481 forward $52 $-1 #
vertex $-1 $321 $482 #
coedge $-1 $483 $322 $477 $484 forward $57 $-1 #
vertex $-1 $323 $485 #
straight-curve $-1 40 0 -15 0 1 0 I I #
point $-1 40 25 -15 #
point $-1 40 -25 -15 #
coedge $-1 $486 $334 $487 $488 forward $52 $-1 #
coedge $-1 $339 $489 $334 $409 reversed $414 $-1 #
edge $-1 $343 -30 $490 -12.5 $334 $491 forward 7 unknown #
straight-curve $-1 40 -25 0 -0 0 1 I I #
coedge $-1 $337 $492 $493 $494 forward $57 $-1 #
coedge $-1 $489 $339 $337 $413 reversed $414 $-1 #
edge $-1 $495 12.5 $341 30 $337 $496 forward 7 unknown #
loop $-1 $-1 $412 $497 #
straight-curve $-1 60 0 30 0 -1 0 I I #
point $-1 60 25 30 #
point $-1 60 -25 30 #
loop $-1 $280 $498 $345 #
plane-surface $-1 -40 0 -50 -1 0 0 0 0 1 forward_v I I I I #
coedge $-1 $347 $499 $500 $501 forward $57 $-1 #
coedge $-1 $502 $503 $347 $422 reversed $474 $-1 #
edge $-1 $504 -20 $426 20 $347 $505 forward 7 unknown #
coedge $-1 $359 $348 $503 $506 forward $425 $-1 #
coedge $-1 $348 $359 $350 $428 reversed $425 $-1 #
loop $-1 $-1 $348 $507 #
vertex $-1 $422 $508 #
straight-curve $-1 -20 25 -20 0 0 -1 I I #
edge $-1 $353 -25 $361 25 $350 $509 forward 7 unknown #
face $-1 $510 $352 $2 $-1 $511 reversed single #
point $-1 -20 25 -50 #
straight-curve $-1 -40 0 -50 0 1 -0 I I #
coedge $-1 $512 $358 $513 $514 forward $52 $-1 #
coedge $-1 $503 $502 $358 $434 reversed $474 $-1 #
edge $-1 $435 -20 $515 20 $358 $516 forward 7 unknown #
vertex $-1 $434 $517 #
straight-curve $-1 -20 -25 -20 -0 0 1 I I #
point $-1 -20 -25 -50 #
coedge $-1 $364 $486 $518 $519 reversed $52 $-1 #
coedge $-1 $520 $521 $364 $440 reversed $522 $-1 #
edge $-1 $523 -30 $444 -10 $364 $524 forward 7 unknown #
coedge $-1 $380 $365 $521 $525 reversed $443 $-1 #
coedge $-1 $365 $380 $367 $446 reversed $443 $-1 #
loop $-1 $-1 $441 $510 #
vertex $-1 $366 $526 #
straight-curve $-1 0 -25 30 -1 0 0 I I #
edge $-1 $370 -25 $382 25 $367 $527 forward 7 unknown #
face $-1 $528 $529 $2 $-1 $530 forward single #
point $-1 -20 -25 30 #
straight-curve $-1 -20 0 50 0 1 0 I I #
coedge $-1 $450 $450 $531 $532 forward $375 $-1 #
face $-1 $533 $534 $2 $-1 $535 reversed single #
loop $-1 $536 $391 $377 #
plane-surface $-1 40 0 -50 1 0 0 0 0 -1 forward_v I I I I #
coedge $-1 $492 $379 $537 $538 reversed $57 $-1 #
coedge $-1 $521 $520 $379 $456 reversed $522 $-1 #
edge $-1 $457 10 $539 30 $379 $540 forward 7 unknown #
vertex $-1 $381 $541 #
straight-curve $-1 0 25 30 1 0 -0 I I #
point $-1 -20 25 30 #
face $-1 $507 $395 $2 $-1 $542 reversed single #
loop $-1 $543 $544 $385 #
loop $-1 $-1 $545 $312 #
coedge $-1 $463 $463 $546 $547 reversed $386 $-1 #
coedge $-1 $464 $464 $498 $548 reversed $388 $-1 #
coedge $-1 $465 $465 $389 $466 forward $549 $-1 #
edge $-1 $550 -3.141592653589799777 $550 3.141592653589786455 $465 $551 forward 7 unknown #
coedge $-1 $467 $467 $390 $468 forward $552 $-1 #
edge $-1 $553 -3.141592653589799777 $553 3.141592653589786455 $467 $554 forward 7 unknown #
vertex $-1 $392 $555 #
ellipse-curve $-1 40 0 -40.00000000000009948 -1 -0 -0 -1.745740669421570149e-14 0 -5 1 I I #
loop $-1 $443 $393 $510 #
vertex $-1 $394 $556 #
ellipse-curve $-1 0 0 30 -0 -0 -1 5 0 0 1 I I #
loop $-1 $-1 $502 $460 #
point $-1 -5 3.4914813388431302e-14 -30 #
coedge $-1 $557 $398 $400 $481 reversed $478 $-1 #
coedge $-1 $398 $557 $402 $484 reversed $478 $-1 #
loop $-1 $-1 $477 $533 #
straight-curve $-1 60 0 -30 0 1 -0 I I #
coedge $-1 $400 $558 $559 $560 forward $52 $-1 #
edge $-1 $561 12.5 $401 30 $400 $562 forward 7 unknown #
point $-1 60 -25 -30 #
coedge $-1 $563 $402 $564 $565 forward $57 $-1 #
edge $-1 $403 -30 $566 -12.5 $402 $567 forward 7 unknown #
point $-1 60 25 -30 #
coedge $-1 $438 $407 $568 $569 forward $52 $-1 #
coedge $-1 $570 $571 $407 $488 reversed $572 $-1 #
edge $-1 $490 -0.785398163397448279 $573 0.785398163397448279 $407 $574 forward 7 unknown #
coedge $-1 $408 $412 $570 $575 forward $414 $-1 #
vertex $-1 $488 $576 #
straight-curve $-1 30 -25 30 -1 0 0 I I #
coedge $-1 $411 $454 $577 $578 forward $57 $-1 #
coedge $-1 $571 $570 $411 $494 reversed $572 $-1 #
edge $-1 $579 -0.785398163397448279 $495 0.785398163397448279 $411 $580 forward 7 unknown #
vertex $-1 $494 $581 #
straight-curve $-1 30 25 30 1 0 -0 I I #
face $-1 $582 $414 $2 $-1 $583 forward single #
coedge $-1 $498 $498 $464 $548 forward $418 $-1 #
coedge $-1 $420 $563 $584 $585 reversed $57 $-1 #
coedge $-1 $586 $587 $420 $501 reversed $588 $-1 #
edge $-1 $589 -30 $504 -10 $420 $590 forward 7 unknown #
coedge $-1 $433 $421 $587 $591 reversed $474 $-1 #
coedge $-1 $421 $433 $423 $506 reversed $474 $-1 #
vertex $-1 $422 $592 #
straight-curve $-1 0 25 -30 -1 0 0 I I #
edge $-1 $426 -25 $435 25 $423 $593 forward 7 unknown #
face $-1 $594 $549 $2 $-1 $595 forward single #
point $-1 -20 25 -30 #
straight-curve $-1 -20 0 -50 0 -1 0 I I #
face $-1 $447 $471 $2 $-1 $596 forward single #
plane-surface $-1 0 0 -50 0 0 1 1 0 0 forward_v I I I I #
coedge $-1 $558 $432 $597 $598 reversed $52 $-1 #
coedge $-1 $587 $586 $432 $514 reversed $588 $-1 #
edge $-1 $515 10 $599 30 $432 $600 forward 7 unknown #
vertex $-1 $434 $601 #
straight-curve $-1 0 -25 -30 1 -0 0 I I #
point $-1 -20 -25 -30 #
coedge $-1 $602 $603 $438 $519 forward $604 $-1 #
edge $-1 $523 20 $605 40 $438 $299 forward 7 unknown #
coedge $-1 $455 $439 $603 $606 reversed $522 $-1 #
coedge $-1 $439 $455 $441 $525 forward $522 $-1 #
loop $-1 $-1 $439 $528 #
vertex $-1 $440 $607 #
straight-curve $-1 20 -25 20 -0 0 -1 I I #
edge $-1 $457 -25 $444 25 $521 $608 forward 7 unknown #
point $-1 20 -25 30 #
straight-curve $-1 -20 0 30 0 1 0 I I #
face $-1 $609 $610 $2 $-1 $611 forward single #
loop $-1 $369 $612 $447 #
plane-surface $-1 -20 0 40 1 0 0 0 0 -1 forward_v I I I I #
coedge $-1 $531 $531 $450 $532 reversed $543 $-1 #
edge $-1 $613 -3.141592653589799777 $613 3.141592653589786455 $450 $614 forward 7 unknown #
face $-1 $615 $478 $2 $-1 $616 reversed single #
loop $-1 $-1 $564 $451 #
cone-surface $-1 42.5 0 -32.5 0 -1 0 -1.767766952966369987 0 1.767766952966369987 1 I I 0 1 2.500000000000001776 forward I I I I #
loop $-1 $-1 $617 $377 #
coedge $-1 $603 $602 $454 $538 forward $604 $-1 #
edge $-1 $618 -40 $539 -20 $454 $310 forward 7 unknown #
vertex $-1 $538 $619 #
straight-curve $-1 20 25 20 0 0 1 I I #
point $-1 20 25 30 #
plane-surface $-1 0 0 -30 0 0 1 1 0 0 forward_v I I I I #
loop $-1 $-1 $531 $385 #
coedge $-1 $544 $544 $612 $620 reversed $461 $-1 #
coedge $-1 $545 $545 $621 $622 reversed $462 $-1 #
coedge $-1 $546 $546 $463 $547 forward $623 $-1 #
edge $-1 $624 -3.141592653589799777 $624 3.141592653589786455 $546 $625 forward 7 unknown #
edge $-1 $626 -3.141592653589799777 $626 3.141592653589786455 $498 $627 forward 7 unknown #
loop $-1 $425 $465 $507 #
vertex $-1 $466 $628 #
ellipse-curve $-1 -20 0 -39.99999999999990052 -1 -0 -0 -1.745740669421570149e-14 0 -5 1 I I #
loop $-1 $588 $467 $594 #
vertex $-1 $468 $629 #
ellipse-curve $-1 20 0 -40.00000000000009948 1 -0 -0 -1.745740669421570149e-14 0 -5 1 I I #
point $-1 40 -3.4914813388431302e-14 -35.00000000000009948 #
point $-1 -5 -3.4914813388431302e-14 30 #
coedge $-1 $477 $476 $630 $631 forward $478 $-1 #
coedge $-1 $480 $512 $632 $633 forward $52 $-1 #
coedge $-1 $634 $630 $480 $560 reversed $534 $-1 #
edge $-1 $635 -0.785398163397448279 $561 0.785398163397448279 $480 $636 forward 7 unknown #
vertex $-1 $560 $637 #
straight-curve $-1 30 -25 -30 1 -0 0 I I #
coedge $-1 $499 $483 $617 $638 forward $57 $-1 #
coedge $-1 $630 $634 $483 $565 reversed $534 $-1 #
edge $-1 $566 -0.785398163397448279 $639 0.785398163397448279 $483 $640 forward 7 unknown #
vertex $-1 $565 $641 #
straight-curve $-1 30 25 -30 -1 0 0 I I #
coedge $-1 $642 $643 $486 $569 reversed $644 $-1 #
edge $-1 $573 7.5 $605 25 $486 $645 forward 7 unknown #
coedge $-1 $493 $487 $489 $575 reversed $572 $-1 #
coedge $-1 $487 $493 $642 $646 reversed $572 $-1 #
loop $-1 $-1 $493 $582 #
vertex $-1 $488 $647 #
ellipse-curve $-1 42.5 -25 32.5 0 1 -0 -1.767766952966369987 0 -1.767766952966369987 1 I I #
edge $-1 $495 -25 $490 25 $489 $648 forward 7 unknown #
point $-1 42.5 -25 30 #
coedge $-1 $643 $642 $492 $578 reversed $644 $-1 #
edge $-1 $618 -25 $579 -7.5 $492 $649 forward 7 unknown #
vertex $-1 $494 $650 #
ellipse-curve $-1 42.5 25 32.5 0 -1 0 -1.767766952966369987 0 -1.767766952966369987 1 I I #
point $-1 42.5 25 30 #
face $-1 $651 $572 $2 $-1 $652 reversed single #
plane-surface $-1 60 0 30 0 0 1 1 0 0 forward_v I I I I #
coedge $-1 $653 $654 $499 $585 forward $655 $-1 #
edge $-1 $589 20 $656 40 $499 $354 forward 7 unknown #
coedge $-1 $513 $500 $654 $657 reversed $588 $-1 #
coedge $-1 $500 $513 $502 $591 forward $588 $-1 #
loop $-1 $-1 $513 $594 #
vertex $-1 $657 $658 #
straight-curve $-1 20 25 -20 0 0 1 I I #
edge $-1 $515 -25 $504 25 $587 $659 forward 7 unknown #
point $-1 20 25 -30 #
straight-curve $-1 -20 0 -30 0 -1 0 I I #
face $-1 $429 $552 $2 $-1 $660 forward single #
plane-surface $-1 -20 0 -40 1 0 0 0 0 -1 forward_v I I I I #
plane-surface $-1 0 0 30 0 0 1 1 0 0 forward_v I I I I #
coedge $-1 $654 $653 $512 $598 forward $655 $-1 #
edge $-1 $661 -40 $599 -20 $512 $362 forward 7 unknown #
vertex $-1 $598 $662 #
straight-curve $-1 20 -25 -20 -0 0 -1 I I #
point $-1 20 -25 -30 #
coedge $-1 $537 $518 $643 $663 forward $604 $-1 #
coedge $-1 $518 $537 $520 $606 forward $604 $-1 #
loop $-1 $-1 $603 $609 #
vertex $-1 $519 $664 #
edge $-1 $539 -25 $523 25 $603 $665 forward 7 unknown #
point $-1 20 -25 50 #
straight-curve $-1 20 0 30 0 -1 0 I I #
face $-1 $204 $604 $2 $-1 $378 forward single #
loop $-1 $522 $621 $528 #
plane-surface $-1 20 0 40 -1 0 0 0 0 1 forward_v I I I I #
coedge $-1 $612 $612 $544 $620 forward $529 $-1 #
vertex $-1 $532 $666 #
ellipse-curve $-1 -40 0 40.00000000000009948 1 -0 -0 -1.745740669421570149e-14 0 -5 1 I I #
face $-1 $497 $655 $2 $-1 $511 reversed single #
plane-surface $-1 60 0 -30 0 0 1 1 0 0 forward_v I I I I #
coedge $-1 $667 $668 $563 $638 reversed $536 $-1 #
vertex $-1 $663 $669 #
point $-1 20 25 50 #
edge $-1 $670 -3.141592653589799777 $670 3.141592653589786455 $612 $671 forward 7 unknown #
coedge $-1 $621 $621 $545 $622 forward $610 $-1 #
edge $-1 $672 -3.141592653589799777 $672 3.141592653589786455 $621 $673 forward 7 unknown #
loop $-1 $644 $546 $651 #
vertex $-1 $547 $674 #
ellipse-curve $-1 40 0 39.99999999999990052 -1 -0 -0 -1.745740669421570149e-14 0 -5 1 I I #
vertex $-1 $548 $675 #
ellipse-curve $-1 -40 0 -39.99999999999990052 1 -0 -0 -1.745740669421570149e-14 0 -5 1 I I #
point $-1 -20 -3.4914813388431302e-14 -34.99999999999990052 #
point $-1 20 3.4914813388431302e-14 -35.00000000000009948 #
coedge $-1 $559 $564 $557 $631 reversed $534 $-1 #
edge $-1 $561 -25 $566 25 $557 $676 forward 7 unknown #
coedge $-1 $668 $667 $558 $633 reversed $536 $-1 #
edge $-1 $661 -25 $635 -7.5 $558 $677 forward 7 unknown #
coedge $-1 $564 $559 $667 $678 reversed $534 $-1 #
vertex $-1 $560 $679 #
ellipse-curve $-1 42.5 -25 -32.5 0 1 -0 -1.767766952966369987 0 1.767766952966369987 1 I I #
point $-1 42.5 -25 -30 #
edge $-1 $639 7.5 $656 25 $563 $680 forward 7 unknown #
vertex $-1 $565 $681 #
ellipse-curve $-1 42.5 25 -32.5 0 -1 0 -1.767766952966369987 0 1.767766952966369987 1 I I #
point $-1 42.5 25 -30 #
coedge $-1 $577 $568 $571 $646 forward $644 $-1 #
coedge $-1 $568 $577 $602 $663 reversed $644 $-1 #
loop $-1 $-1 $577 $651 #
straight-curve $-1 40 -25 25 -0 0 1 I I #
edge $-1 $573 -25 $579 25 $642 $682 forward 7 unknown #
point $-1 40 -25 32.5 #
straight-curve $-1 42.5 0 30 -0 -1 -0 I I #
straight-curve $-1 40 25 25 0 0 -1 I I #
point $-1 40 25 32.5 #
face $-1 $270 $623 $2 $-1 $683 forward single #
cone-surface $-1 42.5 0 32.5 0 1 0 -1.767766952966369987 0 -1.767766952966369987 1 I I 0 1 2.500000000000001776 forward I I I I #
coedge $-1 $597 $584 $668 $684 forward $655 $-1 #
coedge $-1 $584 $597 $586 $657 forward $655 $-1 #
loop $-1 $-1 $654 $615 #
vertex $-1 $585 $685 #
edge $-1 $599 -25 $589 25 $654 $686 forward 7 unknown #
point $-1 20 25 -50 #
straight-curve $-1 20 0 -30 0 1 0 I I #
plane-surface $-1 20 0 -40 -1 0 0 0 0 1 forward_v I I I I #
vertex $-1 $633 $687 #
point $-1 20 -25 -50 #
edge $-1 $605 -25 $618 25 $602 $688 forward 7 unknown #
point $-1 40 -25 50 #
straight-curve $-1 20 0 50 0 -1 0 I I #
point $-1 -40 3.4914813388431302e-14 45.00000000000009948 #
coedge $-1 $632 $617 $634 $678 forward $536 $-1 #
coedge $-1 $617 $632 $653 $684 reversed $536 $-1 #
point $-1 40 25 50 #
vertex $-1 $620 $689 #
ellipse-curve $-1 -20 0 40.00000000000009948 -1 -0 -0 -1.745740669421570149e-14 0 -5 1 I I #
vertex $-1 $622 $690 #
ellipse-curve $-1 20 0 39.99999999999990052 1 -0 -0 -1.745740669421570149e-14 0 -5 1 I I #
point $-1 40 -3.4914813388431302e-14 44.99999999999990052 #
point $-1 -40 3.4914813388431302e-14 -34.99999999999990052 #
straight-curve $-1 42.5 0 -30 0 1 0 I I #
straight-curve $-1 40 -25 -25 -0 0 1 I I #
edge $-1 $639 -25 $635 25 $667 $691 forward 7 unknown #
point $-1 40 -25 -32.5 #
straight-curve $-1 40 25 -25 0 0 -1 I I #
point $-1 40 25 -32.5 #
straight-curve $-1 40 0 32.5 0 1 0 I I #
plane-surface $-1 40 0 50 1 0 0 0 0 -1 forward_v I I I I #
edge $-1 $656 -25 $661 25 $653 $692 forward 7 unknown #
point $-1 40 25 -50 #
straight-curve $-1 20 0 -50 0 1 -0 I I #
point $-1 40 -25 -50 #
straight-curve $-1 40 0 50 0 1 0 I I #
point $-1 -20 -3.4914813388431302e-14 45.00000000000009948 #
point $-1 20 3.4914813388431302e-14 44.99999999999990052 #
straight-curve $-1 40 0 -32.5 0 -1 0 I I #
straight-curve $-1 40 0 -50 0 -1 0 I I #
End-of-ACIS-data 