105 693 1 0                             
body $-1 $1 $-1 $-1 #
lump $-1 $-1 $2 $0 #
shell $-1 $-1 $-1 $3 $1 #
face $-1 $4 $5 $2 $-1 $6 reversed single #
face $-1 $7 $8 $2 $-1 $9 forward single #
loop $-1 $-1 $10 $3 #
plane-surface $-1 -50 0 15 0 0 1 1 0 0 0 #
face $-1 $11 $12 $2 $-1 $13 forward single #
loop $-1 $-1 $14 $4 #
plane-surface $-1 -50 0 -15 0 0 1 1 0 0 0 #
coedge $-1 $15 $16 $17 $18 1 $5 $-1 #
face $-1 $19 $20 $2 $-1 $21 reversed single #
loop $-1 $-1 $22 $7 #
plane-surface $-1 -40 0 0 -1 0 0 0 0 1 0 #
coedge $-1 $23 $24 $25 $26 1 $8 $-1 #
coedge $-1 $27 $10 $28 $29 1 $5 $-1 #
coedge $-1 $10 $27 $30 $31 1 $5 $-1 #
coedge $-1 $32 $22 $10 $18 0 $12 $-1 #
edge $-1 $33 $34 $17 $35 0 #
face $-1 $36 $37 $2 $-1 $21 reversed single #
loop $-1 $-1 $38 $11 #
plane-surface $-1 -60 0 0 1 0 0 0 0 -1 0 #
coedge $-1 $17 $25 $39 $40 1 $12 $-1 #
coedge $-1 $41 $14 $42 $43 1 $8 $-1 #
coedge $-1 $14 $41 $44 $45 1 $8 $-1 #
coedge $-1 $22 $32 $14 $26 0 $12 $-1 #
edge $-1 $46 $47 $25 $48 0 #
coedge $-1 $16 $15 $49 $50 1 $5 $-1 #
coedge $-1 $39 $51 $15 $29 0 $52 $-1 #
edge $-1 $53 $33 $28 $54 0 #
coedge $-1 $55 $56 $16 $31 0 $57 $-1 #
edge $-1 $34 $58 $30 $59 0 #
coedge $-1 $25 $17 $56 $60 1 $12 $-1 #
vertex $-1 $29 $61 #
vertex $-1 $31 $62 #
straight-curve $-1 -40 0 15 0 1 0 #
face $-1 $63 $52 $2 $-1 $64 reversed single #
loop $-1 $-1 $49 $19 #
coedge $-1 $65 $66 $41 $67 0 $20 $-1 #
coedge $-1 $44 $28 $22 $40 0 $52 $-1 #
edge $-1 $33 $47 $39 $68 0 #
coedge $-1 $24 $23 $38 $67 1 $8 $-1 #
coedge $-1 $56 $69 $23 $43 0 $57 $-1 #
edge $-1 $70 $46 $42 $71 0 #
coedge $-1 $72 $39 $24 $45 0 $52 $-1 #
edge $-1 $47 $73 $44 $74 0 #
vertex $-1 $43 $75 #
vertex $-1 $45 $76 #
straight-curve $-1 -40 0 -15 0 -1 0 #
coedge $-1 $77 $78 $27 $50 0 $37 $-1 #
edge $-1 $58 $53 $49 $79 0 #
coedge $-1 $28 $80 $77 $81 0 $52 $-1 #
loop $-1 $-1 $28 $36 #
vertex $-1 $81 $82 #
straight-curve $-1 -25 -25 15 1 -0 0 #
coedge $-1 $83 $30 $78 $84 1 $57 $-1 #
coedge $-1 $30 $42 $32 $60 0 $57 $-1 #
loop $-1 $-1 $30 $85 #
vertex $-1 $84 $86 #
straight-curve $-1 -25 25 15 -1 0 0 #
edge $-1 $46 $34 $56 $87 0 #
point $-1 -40 -25 15 #
point $-1 -40 25 15 #
face $-1 $88 $89 $2 $-1 $90 reversed single #
plane-surface $-1 0 -25 0 0 1 -0 -0 0 1 0 #
coedge $-1 $91 $38 $69 $92 0 $20 $-1 #
coedge $-1 $38 $91 $72 $93 1 $20 $-1 #
edge $-1 $73 $70 $38 $94 0 #
straight-curve $-1 -40 -25 0 -0 0 -1 #
coedge $-1 $42 $95 $65 $92 1 $57 $-1 #
vertex $-1 $67 $96 #
straight-curve $-1 -25 25 -15 1 0 -0 #
coedge $-1 $97 $44 $66 $93 0 $52 $-1 #
vertex $-1 $45 $98 #
straight-curve $-1 -25 -25 -15 -1 0 0 #
point $-1 -40 25 -15 #
point $-1 -40 -25 -15 #
coedge $-1 $99 $49 $51 $81 1 $37 $-1 #
coedge $-1 $49 $99 $55 $84 0 $37 $-1 #
straight-curve $-1 -60 0 15 0 -1 0 #
coedge $-1 $51 $100 $101 $102 0 $52 $-1 #
edge $-1 $103 $53 $77 $104 0 #
point $-1 -60 -25 15 #
coedge $-1 $105 $55 $106 $107 0 $57 $-1 #
edge $-1 $108 $58 $55 $109 0 #
face $-1 $110 $57 $2 $-1 $111 reversed single #
point $-1 -60 25 15 #
straight-curve $-1 -40 25 0 0 0 1 #
face $-1 $112 $113 $2 $-1 $114 forward single #
loop $-1 $-1 $115 $63 #
plane-surface $-1 50 0 15 0 0 1 1 0 0 0 #
coedge $-1 $66 $65 $116 $117 0 $20 $-1 #
edge $-1 $70 $118 $69 $109 0 #
edge $-1 $73 $119 $66 $104 0 #
straight-curve $-1 -60 0 -15 0 1 0 #
coedge $-1 $69 $120 $121 $122 0 $57 $-1 #
point $-1 -60 25 -15 #
coedge $-1 $123 $72 $124 $125 0 $52 $-1 #
point $-1 -60 -25 -15 #
coedge $-1 $78 $77 $126 $127 0 $37 $-1 #
coedge $-1 $80 $128 $129 $130 0 $52 $-1 #
coedge $-1 $131 $126 $80 $102 1 $132 $-1 #
edge $-1 $133 $103 $80 $134 0 #
vertex $-1 $102 $135 #
straight-curve $-1 -60 -25 0 0 0 -1 #
coedge $-1 $136 $83 $137 $138 0 $57 $-1 #
coedge $-1 $126 $131 $83 $107 1 $132 $-1 #
edge $-1 $108 $139 $83 $140 0 #
vertex $-1 $127 $141 #
straight-curve $-1 -60 25 0 0 0 -1 #
face $-1 $142 $143 $2 $-1 $144 reversed single #
plane-surface $-1 0 25 0 0 -1 0 0 0 -1 0 #
face $-1 $85 $145 $2 $-1 $146 forward single #
loop $-1 $-1 $147 $88 #
plane-surface $-1 50 0 -15 0 0 1 1 0 0 0 #
coedge $-1 $148 $149 $150 $151 1 $89 $-1 #
coedge $-1 $121 $124 $91 $117 1 $152 $-1 #
edge $-1 $118 $119 $91 $153 0 #
vertex $-1 $92 $154 #
vertex $-1 $93 $155 #
coedge $-1 $95 $156 $157 $158 0 $57 $-1 #
coedge $-1 $159 $116 $95 $122 1 $152 $-1 #
edge $-1 $160 $118 $95 $161 0 #
coedge $-1 $162 $97 $163 $164 0 $52 $-1 #
coedge $-1 $116 $159 $97 $125 1 $152 $-1 #
edge $-1 $119 $165 $97 $166 0 #
coedge $-1 $101 $106 $99 $127 1 $132 $-1 #
edge $-1 $103 $108 $99 $167 0 #
coedge $-1 $100 $168 $169 $170 0 $52 $-1 #
coedge $-1 $171 $172 $100 $130 1 $173 $-1 #
edge $-1 $174 $133 $100 $175 0 #
coedge $-1 $106 $101 $172 $176 0 $132 $-1 #
loop $-1 $-1 $106 $177 #
vertex $-1 $102 $178 #
straight-curve $-1 -30 -25 30 -1 0 0 #
point $-1 -60 -25 30 #
coedge $-1 $179 $105 $180 $181 0 $57 $-1 #
coedge $-1 $172 $171 $105 $138 1 $173 $-1 #
edge $-1 $139 $182 $105 $183 0 #
vertex $-1 $107 $184 #
straight-curve $-1 -30 25 30 1 0 -0 #
point $-1 -60 25 30 #
face $-1 $185 $186 $2 $-1 $187 reversed single #
loop $-1 $-1 $188 $110 #
plane-surface $-1 60 0 0 -1 0 0 0 -0 1 0 #
loop $-1 $-1 $189 $112 #
plane-surface $-1 40 0 0 1 0 0 0 0 -1 0 #
coedge $-1 $190 $191 $188 $192 1 $113 $-1 #
coedge $-1 $193 $115 $194 $195 1 $89 $-1 #
coedge $-1 $115 $193 $196 $197 1 $89 $-1 #
coedge $-1 $198 $199 $115 $151 0 $200 $-1 #
edge $-1 $201 $202 $150 $203 0 #
loop $-1 $-1 $121 $204 #
straight-curve $-1 -60 0 -30 0 -1 0 #
point $-1 -60 25 -30 #
point $-1 -60 -25 -30 #
coedge $-1 $120 $205 $206 $207 0 $57 $-1 #
coedge $-1 $208 $209 $120 $158 1 $210 $-1 #
edge $-1 $211 $160 $120 $212 0 #
coedge $-1 $124 $121 $209 $213 0 $152 $-1 #
vertex $-1 $122 $214 #
straight-curve $-1 -30 25 -30 -1 0 0 #
coedge $-1 $215 $123 $216 $217 0 $52 $-1 #
coedge $-1 $209 $208 $123 $164 1 $210 $-1 #
edge $-1 $165 $218 $123 $219 0 #
vertex $-1 $125 $220 #
straight-curve $-1 -30 -25 -30 1 -0 0 #
straight-curve $-1 -60 0 30 0 1 0 #
coedge $-1 $128 $221 $222 $223 1 $52 $-1 #
coedge $-1 $224 $225 $128 $170 1 $226 $-1 #
edge $-1 $227 $174 $128 $228 0 #
coedge $-1 $137 $129 $225 $229 1 $173 $-1 #
coedge $-1 $129 $137 $131 $176 1 $173 $-1 #
loop $-1 $-1 $137 $230 #
vertex $-1 $130 $231 #
ellipse-curve $-1 -42.5 -25 32.5 0 1 -0 1.76776695296637 0 -1.76776695296637 1 #
edge $-1 $133 $139 $131 $232 0 #
face $-1 $230 $132 $2 $-1 $233 forward single #
point $-1 -42.5 -25 30 #
coedge $-1 $234 $136 $235 $236 1 $57 $-1 #
coedge $-1 $225 $224 $136 $181 1 $226 $-1 #
edge $-1 $182 $237 $136 $238 0 #
vertex $-1 $138 $239 #
ellipse-curve $-1 -42.5 25 32.5 0 -1 0 1.76776695296637 0 -1.76776695296637 1 #
point $-1 -42.5 25 30 #
face $-1 $240 $241 $2 $-1 $242 reversed single #
loop $-1 $243 $244 $142 #
cone-surface $-1 0 0 0 0 0 1 5 0 0 1 0 1 0 #
coedge $-1 $245 $246 $147 $192 0 $143 $-1 #
coedge $-1 $247 $248 $249 $250 1 $145 $-1 #
coedge $-1 $251 $147 $252 $253 1 $113 $-1 #
coedge $-1 $147 $251 $254 $255 1 $113 $-1 #
edge $-1 $256 $257 $188 $258 0 #
coedge $-1 $149 $148 $247 $259 1 $89 $-1 #
coedge $-1 $260 $261 $148 $195 0 $52 $-1 #
edge $-1 $262 $201 $194 $263 0 #
coedge $-1 $249 $264 $149 $197 0 $57 $-1 #
edge $-1 $202 $265 $196 $266 0 #
coedge $-1 $267 $150 $264 $268 1 $200 $-1 #
coedge $-1 $150 $267 $260 $269 0 $200 $-1 #
loop $-1 $-1 $150 $270 #
vertex $-1 $269 $271 #
vertex $-1 $268 $272 #
straight-curve $-1 60 0 15 0 1 -0 #
face $-1 $273 $152 $2 $-1 $274 reversed single #
coedge $-1 $156 $275 $276 $277 1 $57 $-1 #
coedge $-1 $278 $279 $156 $207 1 $280 $-1 #
edge $-1 $281 $211 $156 $282 0 #
coedge $-1 $163 $157 $279 $283 1 $210 $-1 #
coedge $-1 $157 $163 $159 $213 1 $210 $-1 #
loop $-1 $-1 $157 $273 #
vertex $-1 $158 $284 #
ellipse-curve $-1 -42.5 25 -32.5 0 -1 0 1.76776695296637 0 1.76776695296637 1 #
edge $-1 $160 $165 $159 $285 0 #
point $-1 -42.5 25 -30 #
coedge $-1 $286 $162 $287 $288 1 $52 $-1 #
coedge $-1 $279 $278 $162 $217 1 $280 $-1 #
edge $-1 $218 $289 $162 $290 0 #
vertex $-1 $164 $291 #
ellipse-curve $-1 -42.5 -25 -32.5 0 1 -0 1.76776695296637 0 1.76776695296637 1 #
point $-1 -42.5 -25 -30 #
coedge $-1 $168 $292 $293 $294 0 $52 $-1 #
coedge $-1 $295 $296 $168 $223 0 $297 $-1 #
edge $-1 $227 $298 $168 $299 0 #
coedge $-1 $180 $169 $296 $300 1 $226 $-1 #
coedge $-1 $169 $180 $171 $229 0 $226 $-1 #
loop $-1 $-1 $180 $301 #
vertex $-1 $170 $302 #
straight-curve $-1 -40 -25 25 -0 0 -1 #
edge $-1 $182 $174 $225 $303 0 #
face $-1 $304 $173 $2 $-1 $305 reversed single #
point $-1 -40 -25 32.5 #
straight-curve $-1 -42.5 0 30 0 1 0 #
plane-surface $-1 -60 0 30 0 0 1 1 0 0 0 #
coedge $-1 $306 $179 $307 $308 0 $57 $-1 #
coedge $-1 $296 $295 $179 $236 0 $297 $-1 #
edge $-1 $309 $237 $179 $310 0 #
vertex $-1 $236 $311 #
straight-curve $-1 -40 25 25 0 0 1 #
point $-1 -40 25 32.5 #
face $-1 $312 $313 $2 $-1 $242 reversed single #
loop $-1 $314 $315 $185 #
cone-surface $-1 0 0 -40 1 0 -3.49148133884313e-15 -1.74574066942157e-14 0 -5 1 0 1 0 #
loop $-1 $-1 $316 $142 #
coedge $-1 $244 $244 $317 $318 1 $186 $-1 #
coedge $-1 $319 $188 $320 $321 0 $143 $-1 #
coedge $-1 $188 $319 $322 $323 1 $143 $-1 #
coedge $-1 $324 $189 $193 $259 0 $145 $-1 #
coedge $-1 $189 $324 $251 $325 0 $145 $-1 #
coedge $-1 $252 $196 $189 $250 0 $57 $-1 #
edge $-1 $265 $326 $249 $327 0 #
coedge $-1 $191 $190 $248 $325 1 $113 $-1 #
coedge $-1 $322 $249 $190 $253 0 $57 $-1 #
edge $-1 $326 $256 $252 $328 0 #
coedge $-1 $261 $320 $191 $255 0 $52 $-1 #
edge $-1 $257 $329 $254 $330 0 #
vertex $-1 $192 $331 #
vertex $-1 $255 $332 #
straight-curve $-1 60 0 -15 0 -1 0 #
edge $-1 $265 $262 $247 $333 0 #
coedge $-1 $334 $194 $199 $269 1 $52 $-1 #
coedge $-1 $194 $254 $324 $335 0 $52 $-1 #
vertex $-1 $195 $336 #
straight-curve $-1 25 -25 15 1 -0 0 #
coedge $-1 $196 $337 $198 $268 0 $57 $-1 #
vertex $-1 $197 $338 #
straight-curve $-1 25 25 15 -1 0 0 #
coedge $-1 $199 $198 $339 $340 0 $200 $-1 #
edge $-1 $341 $202 $198 $342 0 #
edge $-1 $343 $201 $199 $344 0 #
face $-1 $-1 $200 $2 $-1 $144 reversed single #
point $-1 60 -25 15 #
point $-1 60 25 15 #
face $-1 $345 $210 $2 $-1 $346 reversed single #
plane-surface $-1 -60 0 -30 0 0 1 1 0 0 0 #
coedge $-1 $205 $347 $348 $349 0 $57 $-1 #
coedge $-1 $350 $351 $205 $277 0 $352 $-1 #
edge $-1 $281 $353 $205 $354 0 #
coedge $-1 $216 $206 $351 $355 1 $280 $-1 #
coedge $-1 $206 $216 $208 $283 0 $280 $-1 #
loop $-1 $-1 $206 $345 #
vertex $-1 $355 $356 #
straight-curve $-1 -40 25 -25 0 0 1 #
edge $-1 $218 $211 $279 $357 0 #
point $-1 -40 25 -32.5 #
straight-curve $-1 -42.5 0 -30 -0 -1 -0 #
coedge $-1 $358 $215 $359 $360 0 $52 $-1 #
coedge $-1 $351 $350 $215 $288 0 $352 $-1 #
edge $-1 $361 $289 $215 $362 0 #
vertex $-1 $288 $363 #
straight-curve $-1 -40 -25 -25 -0 0 -1 #
point $-1 -40 -25 -32.5 #
coedge $-1 $221 $364 $365 $366 0 $52 $-1 #
coedge $-1 $367 $368 $221 $294 1 $369 $-1 #
edge $-1 $370 $298 $221 $371 0 #
coedge $-1 $235 $222 $368 $372 0 $297 $-1 #
coedge $-1 $222 $235 $224 $300 0 $297 $-1 #
loop $-1 $-1 $295 $304 #
vertex $-1 $223 $373 #
straight-curve $-1 0 -25 50 1 0 0 #
edge $-1 $237 $227 $296 $374 0 #
face $-1 $177 $375 $2 $-1 $376 forward single #
point $-1 -40 -25 50 #
straight-curve $-1 -40 0 32.5 0 -1 0 #
face $-1 $377 $297 $2 $-1 $378 forward single #
cone-surface $-1 -42.5 0 32.5 0 -1 0 1.76776695296637 0 -1.76776695296637 1 0 1 0 #
coedge $-1 $379 $234 $380 $381 0 $57 $-1 #
coedge $-1 $368 $367 $234 $308 1 $369 $-1 #
edge $-1 $309 $382 $234 $383 0 #
vertex $-1 $372 $384 #
straight-curve $-1 0 25 50 -1 0 0 #
point $-1 -40 25 50 #
face $-1 $385 $386 $2 $-1 $387 reversed single #
loop $-1 $388 $389 $240 #
loop $-1 $-1 $390 $185 #
coedge $-1 $315 $315 $391 $392 1 $241 $-1 #
coedge $-1 $316 $316 $393 $394 1 $243 $-1 #
coedge $-1 $317 $317 $244 $318 0 $395 $-1 #
edge $-1 $396 $396 $317 $397 0 #
coedge $-1 $246 $245 $398 $399 0 $143 $-1 #
coedge $-1 $254 $400 $245 $321 1 $52 $-1 #
edge $-1 $257 $401 $245 $344 0 #
coedge $-1 $402 $252 $246 $323 0 $57 $-1 #
edge $-1 $256 $403 $246 $342 0 #
coedge $-1 $248 $247 $261 $335 1 $145 $-1 #
edge $-1 $329 $326 $248 $404 0 #
vertex $-1 $253 $405 #
straight-curve $-1 40 25 0 0 0 -1 #
straight-curve $-1 25 25 -15 1 0 -0 #
vertex $-1 $255 $406 #
straight-curve $-1 25 -25 -15 -1 0 0 #
point $-1 60 25 -15 #
point $-1 60 -25 -15 #
straight-curve $-1 40 0 15 0 -1 0 #
coedge $-1 $407 $260 $408 $409 0 $52 $-1 #
edge $-1 $329 $262 $261 $410 0 #
point $-1 40 -25 15 #
coedge $-1 $264 $411 $412 $413 0 $57 $-1 #
point $-1 40 25 15 #
coedge $-1 $412 $408 $267 $340 1 $414 $-1 #
edge $-1 $341 $343 $267 $415 0 #
vertex $-1 $413 $416 #
straight-curve $-1 60 25 0 0 0 -1 #
vertex $-1 $409 $417 #
straight-curve $-1 60 -25 0 0 0 -1 #
face $-1 $301 $418 $2 $-1 $419 forward single #
cone-surface $-1 -42.5 0 -32.5 0 1 0 1.76776695296637 0 1.76776695296637 1 0 1 0 #
coedge $-1 $275 $420 $421 $422 0 $57 $-1 #
coedge $-1 $423 $424 $275 $349 1 $425 $-1 #
edge $-1 $426 $353 $275 $427 0 #
coedge $-1 $287 $276 $424 $428 0 $352 $-1 #
coedge $-1 $276 $287 $278 $355 0 $352 $-1 #
loop $-1 $-1 $350 $429 #
vertex $-1 $277 $430 #
straight-curve $-1 0 25 -50 1 0 0 #
edge $-1 $289 $281 $351 $431 0 #
point $-1 -40 25 -50 #
straight-curve $-1 -40 0 -32.5 0 1 0 #
coedge $-1 $432 $286 $433 $434 0 $52 $-1 #
coedge $-1 $424 $423 $286 $360 1 $425 $-1 #
edge $-1 $361 $435 $286 $436 0 #
vertex $-1 $428 $437 #
straight-curve $-1 0 -25 -50 -1 0 0 #
point $-1 -40 -25 -50 #
coedge $-1 $292 $438 $439 $440 0 $52 $-1 #
coedge $-1 $441 $442 $292 $366 1 $443 $-1 #
edge $-1 $444 $370 $292 $445 0 #
coedge $-1 $307 $293 $442 $446 0 $369 $-1 #
coedge $-1 $293 $307 $295 $372 1 $369 $-1 #
loop $-1 $-1 $307 $447 #
vertex $-1 $366 $448 #
straight-curve $-1 -20 -25 20 -0 0 1 #
edge $-1 $298 $309 $295 $449 0 #
point $-1 -20 -25 50 #
straight-curve $-1 -40 0 50 0 -1 0 #
loop $-1 $226 $450 $301 #
plane-surface $-1 -40 0 50 -1 0 0 0 0 1 0 #
face $-1 $451 $452 $2 $-1 $453 forward single #
plane-surface $-1 0 0 50 0 0 1 1 0 0 0 #
coedge $-1 $454 $306 $455 $456 0 $57 $-1 #
coedge $-1 $442 $441 $306 $381 1 $443 $-1 #
edge $-1 $382 $457 $306 $458 0 #
vertex $-1 $381 $459 #
straight-curve $-1 -20 25 20 0 0 -1 #
point $-1 -20 25 50 #
face $-1 $460 $461 $2 $-1 $387 reversed single #
loop $-1 $462 $463 $312 #
cone-surface $-1 0 0 40 1 0 -3.49148133884313e-15 -1.74574066942157e-14 0 -5 1 0 1 0 #
loop $-1 $-1 $464 $240 #
coedge $-1 $389 $389 $465 $466 1 $313 $-1 #
coedge $-1 $390 $390 $467 $468 1 $314 $-1 #
coedge $-1 $391 $391 $315 $392 0 $452 $-1 #
edge $-1 $469 $469 $391 $470 0 #
coedge $-1 $393 $393 $316 $394 0 $471 $-1 #
edge $-1 $472 $472 $393 $473 0 #
loop $-1 $474 $317 $460 #
vertex $-1 $318 $475 #
ellipse-curve $-1 0 0 -30 0 0 1 5 0 0 1 #
coedge $-1 $476 $477 $319 $399 1 $478 $-1 #
edge $-1 $401 $403 $319 $479 0 #
coedge $-1 $320 $480 $476 $481 0 $52 $-1 #
vertex $-1 $321 $482 #
coedge $-1 $483 $322 $477 $484 0 $57 $-1 #
vertex $-1 $323 $485 #
straight-curve $-1 40 0 -15 0 1 0 #
point $-1 40 25 -15 #
point $-1 40 -25 -15 #
coedge $-1 $486 $334 $487 $488 0 $52 $-1 #
coedge $-1 $339 $489 $334 $409 1 $414 $-1 #
edge $-1 $343 $490 $334 $491 0 #
straight-curve $-1 40 -25 0 -0 0 1 #
coedge $-1 $337 $492 $493 $494 0 $57 $-1 #
coedge $-1 $489 $339 $337 $413 1 $414 $-1 #
edge $-1 $495 $341 $337 $496 0 #
loop $-1 $-1 $412 $497 #
straight-curve $-1 60 0 30 0 -1 0 #
point $-1 60 25 30 #
point $-1 60 -25 30 #
loop $-1 $280 $498 $345 #
plane-surface $-1 -40 0 -50 -1 0 0 0 0 1 0 #
coedge $-1 $347 $499 $500 $501 0 $57 $-1 #
coedge $-1 $502 $503 $347 $422 1 $474 $-1 #
edge $-1 $504 $426 $347 $505 0 #
coedge $-1 $359 $348 $503 $506 0 $425 $-1 #
coedge $-1 $348 $359 $350 $428 1 $425 $-1 #
loop $-1 $-1 $348 $507 #
vertex $-1 $422 $508 #
straight-curve $-1 -20 25 -20 0 0 -1 #
edge $-1 $353 $361 $350 $509 0 #
face $-1 $510 $352 $2 $-1 $511 reversed single #
point $-1 -20 25 -50 #
straight-curve $-1 -40 0 -50 0 1 -0 #
coedge $-1 $512 $358 $513 $514 0 $52 $-1 #
coedge $-1 $503 $502 $358 $434 1 $474 $-1 #
edge $-1 $435 $515 $358 $516 0 #
vertex $-1 $434 $517 #
straight-curve $-1 -20 -25 -20 -0 0 1 #
point $-1 -20 -25 -50 #
coedge $-1 $364 $486 $518 $519 1 $52 $-1 #
coedge $-1 $520 $521 $364 $440 1 $522 $-1 #
edge $-1 $523 $444 $364 $524 0 #
coedge $-1 $380 $365 $521 $525 1 $443 $-1 #
coedge $-1 $365 $380 $367 $446 1 $443 $-1 #
loop $-1 $-1 $441 $510 #
vertex $-1 $366 $526 #
straight-curve $-1 0 -25 30 -1 0 0 #
edge $-1 $370 $382 $367 $527 0 #
face $-1 $528 $529 $2 $-1 $530 forward single #
point $-1 -20 -25 30 #
straight-curve $-1 -20 0 50 0 1 0 #
coedge $-1 $450 $450 $531 $532 0 $375 $-1 #
face $-1 $533 $534 $2 $-1 $535 reversed single #
loop $-1 $536 $391 $377 #
plane-surface $-1 40 0 -50 1 0 0 0 0 -1 0 #
coedge $-1 $492 $379 $537 $538 1 $57 $-1 #
coedge $-1 $521 $520 $379 $456 1 $522 $-1 #
edge $-1 $457 $539 $379 $540 0 #
vertex $-1 $381 $541 #
straight-curve $-1 0 25 30 1 0 -0 #
point $-1 -20 25 30 #
face $-1 $507 $395 $2 $-1 $542 reversed single #
loop $-1 $543 $544 $385 #
loop $-1 $-1 $545 $312 #
coedge $-1 $463 $463 $546 $547 1 $386 $-1 #
coedge $-1 $464 $464 $498 $548 1 $388 $-1 #
coedge $-1 $465 $465 $389 $466 0 $549 $-1 #
edge $-1 $550 $550 $465 $551 0 #
coedge $-1 $467 $467 $390 $468 0 $552 $-1 #
edge $-1 $553 $553 $467 $554 0 #
vertex $-1 $392 $555 #
ellipse-curve $-1 40 0 -40.0000000000001 -1 -0 -0 -1.74574066942157e-14 0 -5 1 #
loop $-1 $443 $393 $510 #
vertex $-1 $394 $556 #
ellipse-curve $-1 0 0 30 -0 -0 -1 5 0 0 1 #
loop $-1 $-1 $502 $460 #
point $-1 -5 3.49148133884313e-14 -30 #
coedge $-1 $557 $398 $400 $481 1 $478 $-1 #
coedge $-1 $398 $557 $402 $484 1 $478 $-1 #
loop $-1 $-1 $477 $533 #
straight-curve $-1 60 0 -30 0 1 -0 #
coedge $-1 $400 $558 $559 $560 0 $52 $-1 #
edge $-1 $561 $401 $400 $562 0 #
point $-1 60 -25 -30 #
coedge $-1 $563 $402 $564 $565 0 $57 $-1 #
edge $-1 $403 $566 $402 $567 0 #
point $-1 60 25 -30 #
coedge $-1 $438 $407 $568 $569 0 $52 $-1 #
coedge $-1 $570 $571 $407 $488 1 $572 $-1 #
edge $-1 $490 $573 $407 $574 0 #
coedge $-1 $408 $412 $570 $575 0 $414 $-1 #
vertex $-1 $488 $576 #
straight-curve $-1 30 -25 30 -1 0 0 #
coedge $-1 $411 $454 $577 $578 0 $57 $-1 #
coedge $-1 $571 $570 $411 $494 1 $572 $-1 #
edge $-1 $579 $495 $411 $580 0 #
vertex $-1 $494 $581 #
straight-curve $-1 30 25 30 1 0 -0 #
face $-1 $582 $414 $2 $-1 $583 forward single #
coedge $-1 $498 $498 $464 $548 0 $418 $-1 #
coedge $-1 $420 $563 $584 $585 1 $57 $-1 #
coedge $-1 $586 $587 $420 $501 1 $588 $-1 #
edge $-1 $589 $504 $420 $590 0 #
coedge $-1 $433 $421 $587 $591 1 $474 $-1 #
coedge $-1 $421 $433 $423 $506 1 $474 $-1 #
vertex $-1 $422 $592 #
straight-curve $-1 0 25 -30 -1 0 0 #
edge $-1 $426 $435 $423 $593 0 #
face $-1 $594 $549 $2 $-1 $595 forward single #
point $-1 -20 25 -30 #
straight-curve $-1 -20 0 -50 0 -1 0 #
face $-1 $447 $471 $2 $-1 $596 forward single #
plane-surface $-1 0 0 -50 0 0 1 1 0 0 0 #
coedge $-1 $558 $432 $597 $598 1 $52 $-1 #
coedge $-1 $587 $586 $432 $514 1 $588 $-1 #
edge $-1 $515 $599 $432 $600 0 #
vertex $-1 $434 $601 #
straight-curve $-1 0 -25 -30 1 -0 0 #
point $-1 -20 -25 -30 #
coedge $-1 $602 $603 $438 $519 0 $604 $-1 #
edge $-1 $523 $605 $438 $299 0 #
coedge $-1 $455 $439 $603 $606 1 $522 $-1 #
coedge $-1 $439 $455 $441 $525 0 $522 $-1 #
loop $-1 $-1 $439 $528 #
vertex $-1 $440 $607 #
straight-curve $-1 20 -25 20 -0 0 -1 #
edge $-1 $457 $444 $521 $608 0 #
point $-1 20 -25 30 #
straight-curve $-1 -20 0 30 0 1 0 #
face $-1 $609 $610 $2 $-1 $611 forward single #
loop $-1 $369 $612 $447 #
plane-surface $-1 -20 0 40 1 0 0 0 0 -1 0 #
coedge $-1 $531 $531 $450 $532 1 $543 $-1 #
edge $-1 $613 $613 $450 $614 0 #
face $-1 $615 $478 $2 $-1 $616 reversed single #
loop $-1 $-1 $564 $451 #
cone-surface $-1 42.5 0 -32.5 0 -1 0 -1.76776695296637 0 1.76776695296637 1 0 1 0 #
loop $-1 $-1 $617 $377 #
coedge $-1 $603 $602 $454 $538 0 $604 $-1 #
edge $-1 $618 $539 $454 $310 0 #
vertex $-1 $538 $619 #
straight-curve $-1 20 25 20 0 0 1 #
point $-1 20 25 30 #
plane-surface $-1 0 0 -30 0 0 1 1 0 0 0 #
loop $-1 $-1 $531 $385 #
coedge $-1 $544 $544 $612 $620 1 $461 $-1 #
coedge $-1 $545 $545 $621 $622 1 $462 $-1 #
coedge $-1 $546 $546 $463 $547 0 $623 $-1 #
edge $-1 $624 $624 $546 $625 0 #
edge $-1 $626 $626 $498 $627 0 #
loop $-1 $425 $465 $507 #
vertex $-1 $466 $628 #
ellipse-curve $-1 -20 0 -39.9999999999999 -1 -0 -0 -1.74574066942157e-14 0 -5 1 #
loop $-1 $588 $467 $594 #
vertex $-1 $468 $629 #
ellipse-curve $-1 20 0 -40.0000000000001 1 -0 -0 -1.74574066942157e-14 0 -5 1 #
point $-1 40 -3.49148133884313e-14 -35.0000000000001 #
point $-1 -5 -3.49148133884313e-14 30 #
coedge $-1 $477 $476 $630 $631 0 $478 $-1 #
coedge $-1 $480 $512 $632 $633 0 $52 $-1 #
coedge $-1 $634 $630 $480 $560 1 $534 $-1 #
edge $-1 $635 $561 $480 $636 0 #
vertex $-1 $560 $637 #
straight-curve $-1 30 -25 -30 1 -0 0 #
coedge $-1 $499 $483 $617 $638 0 $57 $-1 #
coedge $-1 $630 $634 $483 $565 1 $534 $-1 #
edge $-1 $566 $639 $483 $640 0 #
vertex $-1 $565 $641 #
straight-curve $-1 30 25 -30 -1 0 0 #
coedge $-1 $642 $643 $486 $569 1 $644 $-1 #
edge $-1 $573 $605 $486 $645 0 #
coedge $-1 $493 $487 $489 $575 1 $572 $-1 #
coedge $-1 $487 $493 $642 $646 1 $572 $-1 #
loop $-1 $-1 $493 $582 #
vertex $-1 $488 $647 #
ellipse-curve $-1 42.5 -25 32.5 0 1 -0 -1.76776695296637 0 -1.76776695296637 1 #
edge $-1 $495 $490 $489 $648 0 #
point $-1 42.5 -25 30 #
coedge $-1 $643 $642 $492 $578 1 $644 $-1 #
edge $-1 $618 $579 $492 $649 0 #
vertex $-1 $494 $650 #
ellipse-curve $-1 42.5 25 32.5 0 -1 0 -1.76776695296637 0 -1.76776695296637 1 #
point $-1 42.5 25 30 #
face $-1 $651 $572 $2 $-1 $652 reversed single #
plane-surface $-1 60 0 30 0 0 1 1 0 0 0 #
coedge $-1 $653 $654 $499 $585 0 $655 $-1 #
edge $-1 $589 $656 $499 $354 0 #
coedge $-1 $513 $500 $654 $657 1 $588 $-1 #
coedge $-1 $500 $513 $502 $591 0 $588 $-1 #
loop $-1 $-1 $513 $594 #
vertex $-1 $657 $658 #
straight-curve $-1 20 25 -20 0 0 1 #
edge $-1 $515 $504 $587 $659 0 #
point $-1 20 25 -30 #
straight-curve $-1 -20 0 -30 0 -1 0 #
face $-1 $429 $552 $2 $-1 $660 forward single #
plane-surface $-1 -20 0 -40 1 0 0 0 0 -1 0 #
plane-surface $-1 0 0 30 0 0 1 1 0 0 0 #
coedge $-1 $654 $653 $512 $598 0 $655 $-1 #
edge $-1 $661 $599 $512 $362 0 #
vertex $-1 $598 $662 #
straight-curve $-1 20 -25 -20 -0 0 -1 #
point $-1 20 -25 -30 #
coedge $-1 $537 $518 $643 $663 0 $604 $-1 #
coedge $-1 $518 $537 $520 $606 0 $604 $-1 #
loop $-1 $-1 $603 $609 #
vertex $-1 $519 $664 #
edge $-1 $539 $523 $603 $665 0 #
point $-1 20 -25 50 #
straight-curve $-1 20 0 30 0 -1 0 #
face $-1 $204 $604 $2 $-1 $378 forward single #
loop $-1 $522 $621 $528 #
plane-surface $-1 20 0 40 -1 0 0 0 0 1 0 #
coedge $-1 $612 $612 $544 $620 0 $529 $-1 #
vertex $-1 $532 $666 #
ellipse-curve $-1 -40 0 40.0000000000001 1 -0 -0 -1.74574066942157e-14 0 -5 1 #
face $-1 $497 $655 $2 $-1 $511 reversed single #
plane-surface $-1 60 0 -30 0 0 1 1 0 0 0 #
coedge $-1 $667 $668 $563 $638 1 $536 $-1 #
vertex $-1 $663 $669 #
point $-1 20 25 50 #
edge $-1 $670 $670 $612 $671 0 #
coedge $-1 $621 $621 $545 $622 0 $610 $-1 #
edge $-1 $672 $672 $621 $673 0 #
loop $-1 $644 $546 $651 #
vertex $-1 $547 $674 #
ellipse-curve $-1 40 0 39.9999999999999 -1 -0 -0 -1.74574066942157e-14 0 -5 1 #
vertex $-1 $548 $675 #
ellipse-curve $-1 -40 0 -39.9999999999999 1 -0 -0 -1.74574066942157e-14 0 -5 1 #
point $-1 -20 -3.49148133884313e-14 -34.9999999999999 #
point $-1 20 3.49148133884313e-14 -35.0000000000001 #
coedge $-1 $559 $564 $557 $631 1 $534 $-1 #
edge $-1 $561 $566 $557 $676 0 #
coedge $-1 $668 $667 $558 $633 1 $536 $-1 #
edge $-1 $661 $635 $558 $677 0 #
coedge $-1 $564 $559 $667 $678 1 $534 $-1 #
vertex $-1 $560 $679 #
ellipse-curve $-1 42.5 -25 -32.5 0 1 -0 -1.76776695296637 0 1.76776695296637 1 #
point $-1 42.5 -25 -30 #
edge $-1 $639 $656 $563 $680 0 #
vertex $-1 $565 $681 #
ellipse-curve $-1 42.5 25 -32.5 0 -1 0 -1.76776695296637 0 1.76776695296637 1 #
point $-1 42.5 25 -30 #
coedge $-1 $577 $568 $571 $646 0 $644 $-1 #
coedge $-1 $568 $577 $602 $663 1 $644 $-1 #
loop $-1 $-1 $577 $651 #
straight-curve $-1 40 -25 25 -0 0 1 #
edge $-1 $573 $579 $642 $682 0 #
point $-1 40 -25 32.5 #
straight-curve $-1 42.5 0 30 -0 -1 -0 #
straight-curve $-1 40 25 25 0 0 -1 #
point $-1 40 25 32.5 #
face $-1 $270 $623 $2 $-1 $683 forward single #
cone-surface $-1 42.5 0 32.5 0 1 0 -1.76776695296637 0 -1.76776695296637 1 0 1 0 #
coedge $-1 $597 $584 $668 $684 0 $655 $-1 #
coedge $-1 $584 $597 $586 $657 0 $655 $-1 #
loop $-1 $-1 $654 $615 #
vertex $-1 $585 $685 #
edge $-1 $599 $589 $654 $686 0 #
point $-1 20 25 -50 #
straight-curve $-1 20 0 -30 0 1 0 #
plane-surface $-1 20 0 -40 -1 0 0 0 0 1 0 #
vertex $-1 $633 $687 #
point $-1 20 -25 -50 #
edge $-1 $605 $618 $602 $688 0 #
point $-1 40 -25 50 #
straight-curve $-1 20 0 50 0 -1 0 #
point $-1 -40 3.49148133884313e-14 45.0000000000001 #
coedge $-1 $632 $617 $634 $678 0 $536 $-1 #
coedge $-1 $617 $632 $653 $684 1 $536 $-1 #
point $-1 40 25 50 #
vertex $-1 $620 $689 #
ellipse-curve $-1 -20 0 40.0000000000001 -1 -0 -0 -1.74574066942157e-14 0 -5 1 #
vertex $-1 $622 $690 #
ellipse-curve $-1 20 0 39.9999999999999 1 -0 -0 -1.74574066942157e-14 0 -5 1 #
point $-1 40 -3.49148133884313e-14 44.9999999999999 #
point $-1 -40 3.49148133884313e-14 -34.9999999999999 #
straight-curve $-1 42.5 0 -30 0 1 0 #
straight-curve $-1 40 -25 -25 -0 0 1 #
edge $-1 $639 $635 $667 $691 0 #
point $-1 40 -25 -32.5 #
straight-curve $-1 40 25 -25 0 0 -1 #
point $-1 40 25 -32.5 #
straight-curve $-1 40 0 32.5 0 1 0 #
plane-surface $-1 40 0 50 1 0 0 0 0 -1 0 #
edge $-1 $656 $661 $653 $692 0 #
point $-1 40 25 -50 #
straight-curve $-1 20 0 -50 0 1 -0 #
point $-1 40 -25 -50 #
straight-curve $-1 40 0 50 0 1 0 #
point $-1 -20 -3.49148133884313e-14 45.0000000000001 #
point $-1 20 3.49148133884313e-14 44.9999999999999 #
straight-curve $-1 40 0 -32.5 0 -1 0 #
straight-curve $-1 40 0 -50 0 -1 0 #
