600 0 1 0           
119 GICL Pro/E ACIS Translator - Source: f:/data5/repository/NIST/Manfred_Osti/suitcase/adaptnipple1/adaptnipple1.prt - 6 0 13 ACIS 6.0.3 NT 24 Thu Apr 04 13:52:26 2002 
1 9.9999999999999995e-007 1e-010 
body $-1 $1 $-1 $2 #
lump $-1 $-1 $3 $0 #
transform $-1 1 0 0 0 1 0 0 0 1 0 0 0 25.399999999999999 no_rotate no_reflect no_shear #
shell $-1 $-1 $-1 $4 $-1 $1 #
face $-1 $5 $6 $3 $-1 $7 forward single #
face $-1 $8 $9 $3 $-1 $10 forward single #
loop $-1 $-1 $11 $4 #
cone-surface $-1 0 0 -2.6880000000000002 0 0 1 2 0 0 1 I I 0 1 2 forward I I I I #
face $-1 $12 $13 $3 $-1 $14 reversed single #
loop $-1 $-1 $15 $5 #
cone-surface $-1 0 0 -2.6880000000000002 0 0 1 2 0 0 1 I I 0 1 2 forward I I I I #
coedge $-1 $16 $17 $18 $19 forward $6 $-1 #
face $-1 $20 $21 $3 $-1 $22 forward single #
loop $-1 $23 $24 $8 #
plane-surface $-1 0 0 2.6880000000000002 0 0 1 1 0 0 forward_v I I I I #
coedge $-1 $25 $26 $27 $28 forward $9 $-1 #
coedge $-1 $27 $11 $29 $30 reversed $6 $-1 #
coedge $-1 $11 $27 $31 $32 forward $6 $-1 #
coedge $-1 $26 $25 $11 $19 reversed $9 $-1 #
edge $-1 $33 0 $34 5.3760000000000003 $11 $35 forward 7 unknown #
face $-1 $36 $37 $3 $-1 $38 forward single #
loop $-1 $-1 $39 $12 #
cone-surface $-1 0 0 2.6880000000000002 0 0 1 3 0 0 1 I I 0 1 3 forward I I I I #
loop $-1 $-1 $40 $8 #
coedge $-1 $41 $41 $42 $43 reversed $13 $-1 #
coedge $-1 $18 $15 $40 $44 reversed $9 $-1 #
coedge $-1 $15 $18 $45 $46 forward $9 $-1 #
coedge $-1 $17 $16 $15 $28 reversed $6 $-1 #
edge $-1 $47 0 $48 5.3760000000000003 $27 $49 forward 7 unknown #
coedge $-1 $40 $40 $16 $30 forward $23 $-1 #
edge $-1 $48 0 $34 3.1415926535897931 $16 $50 forward 7 unknown #
coedge $-1 $45 $45 $17 $32 reversed $51 $-1 #
edge $-1 $47 0 $33 3.1415926535897931 $17 $52 forward 7 unknown #
vertex $-1 $32 $53 #
vertex $-1 $30 $54 #
straight-curve $-1 -2 2.4492127076447545e-016 -2.6880000000000002 0 0 1 I I #
face $-1 $55 $56 $3 $-1 $57 forward single #
loop $-1 $-1 $58 $20 #
cone-surface $-1 0 0 2.6880000000000002 0 0 1 3 0 0 1 I I 0 1 3 forward I I I I #
coedge $-1 $59 $42 $60 $61 forward $21 $-1 #
coedge $-1 $29 $29 $25 $44 forward $23 $-1 #
coedge $-1 $24 $24 $62 $63 reversed $13 $-1 #
coedge $-1 $39 $64 $24 $43 forward $21 $-1 #
edge $-1 $65 0 $66 3.1415926535897931 $24 $67 forward 7 unknown #
edge $-1 $34 0 $48 3.1415926535897931 $25 $68 forward 7 unknown #
coedge $-1 $31 $31 $26 $46 reversed $51 $-1 #
edge $-1 $33 0 $47 3.1415926535897931 $26 $69 forward 7 unknown #
vertex $-1 $32 $70 #
vertex $-1 $28 $71 #
straight-curve $-1 2 0 -2.6880000000000002 0 0 1 I I #
ellipse-curve $-1 0 0 2.6880000000000002 0 0 1 2 0 0 1 I I #
loop $-1 $-1 $45 $55 #
ellipse-curve $-1 0 0 -2.6880000000000002 0 0 1 2 0 0 1 I I #
point $-1 -2 0 -2.6880000000000002 #
point $-1 -2 0 2.6880000000000002 #
face $-1 $72 $73 $3 $-1 $74 reversed single #
loop $-1 $-1 $75 $36 #
plane-surface $-1 0 0 3.528 0 0 1 1 0 0 forward_v I I I I #
coedge $-1 $76 $62 $64 $77 forward $37 $-1 #
coedge $-1 $64 $39 $75 $78 reversed $21 $-1 #
coedge $-1 $62 $76 $39 $61 reversed $37 $-1 #
edge $-1 $66 0 $79 0.83999999999999986 $60 $80 forward 7 unknown #
coedge $-1 $58 $60 $41 $63 forward $37 $-1 #
edge $-1 $66 0 $65 3.1415926535897931 $41 $81 forward 7 unknown #
coedge $-1 $42 $59 $58 $77 reversed $21 $-1 #
vertex $-1 $63 $82 #
vertex $-1 $63 $83 #
ellipse-curve $-1 0 0 2.6880000000000002 0 0 1 -3 0 0 1 I I #
ellipse-curve $-1 0 0 2.6880000000000002 0 0 1 -2 0 0 1 I I #
ellipse-curve $-1 0 0 -2.6880000000000002 0 0 1 -2 0 0 1 I I #
point $-1 2 0 -2.6880000000000002 #
point $-1 2 0 2.6880000000000002 #
face $-1 $84 $85 $3 $-1 $86 forward single #
loop $-1 $51 $87 $55 #
plane-surface $-1 0 0 -2.6880000000000002 0 0 -1 -1 0 0 forward_v I I I I #
coedge $-1 $88 $88 $59 $78 forward $56 $-1 #
coedge $-1 $60 $58 $88 $89 reversed $37 $-1 #
edge $-1 $65 0 $90 0.83999999999999986 $58 $91 forward 7 unknown #
edge $-1 $90 0 $79 3.1415926535897931 $75 $92 forward 7 unknown #
vertex $-1 $89 $93 #
straight-curve $-1 3 0 2.6880000000000002 0 0 1 I I #
ellipse-curve $-1 0 0 2.6880000000000002 0 0 1 3 0 0 1 I I #
point $-1 -3 0 2.6880000000000002 #
point $-1 3 0 2.6880000000000002 #
face $-1 $94 $95 $3 $-1 $96 forward single #
loop $-1 $-1 $97 $72 #
cone-surface $-1 0 0 -2.6880000000000002 0 0 -1 -4 0 0 1 I I 0 1 4 forward I I I I #
coedge $-1 $98 $98 $99 $100 reversed $73 $-1 #
coedge $-1 $75 $75 $76 $89 forward $56 $-1 #
edge $-1 $79 0 $90 3.1415926535897931 $88 $101 forward 7 unknown #
vertex $-1 $89 $102 #
straight-curve $-1 -3 3.6738190614671318e-016 2.6880000000000002 0 0 1 I I #
ellipse-curve $-1 1.1102230246251565e-016 2.2204460492503131e-016 3.528 0 0 1 -3 -2.2204460492503131e-016 0 1 I I #
point $-1 3 0 3.528 #
face $-1 $-1 $103 $3 $-1 $104 forward single #
loop $-1 $-1 $105 $84 #
cone-surface $-1 0 0 -2.6880000000000002 0 0 -1 -4 0 0 1 I I 0 1 4 forward I I I I #
coedge $-1 $106 $99 $107 $108 forward $85 $-1 #
coedge $-1 $87 $87 $109 $110 reversed $73 $-1 #
coedge $-1 $97 $111 $87 $100 forward $85 $-1 #
edge $-1 $112 0 $113 3.1415926535897931 $87 $114 forward 7 unknown #
ellipse-curve $-1 1.1102230246251565e-016 -2.2204460492503131e-016 3.528 0 0 1 3 2.2204460492503131e-016 0 1 I I #
point $-1 -3 0 3.528 #
loop $-1 $-1 $115 $94 #
plane-surface $-1 0 0 -3.6180000000000003 0 0 -1 -1 0 0 forward_v I I I I #
coedge $-1 $116 $109 $111 $117 forward $95 $-1 #
coedge $-1 $111 $97 $115 $118 reversed $85 $-1 #
coedge $-1 $109 $116 $97 $108 reversed $95 $-1 #
edge $-1 $113 0 $119 0.93000000000000016 $107 $120 forward 7 unknown #
coedge $-1 $105 $107 $98 $110 forward $95 $-1 #
edge $-1 $113 0 $112 3.1415926535897931 $98 $121 forward 7 unknown #
coedge $-1 $99 $106 $105 $117 reversed $85 $-1 #
vertex $-1 $110 $122 #
vertex $-1 $110 $123 #
ellipse-curve $-1 0 0 -2.6880000000000002 0 0 -1 4 0 0 1 I I #
coedge $-1 $124 $124 $106 $118 forward $103 $-1 #
coedge $-1 $107 $105 $124 $125 reversed $95 $-1 #
edge $-1 $112 0 $126 0.93000000000000016 $105 $127 forward 7 unknown #
edge $-1 $126 0 $119 3.1415926535897931 $115 $128 forward 7 unknown #
vertex $-1 $125 $129 #
straight-curve $-1 -4 0 -2.6880000000000002 0 0 -1 I I #
ellipse-curve $-1 0 0 -2.6880000000000002 0 0 -1 -4 0 0 1 I I #
point $-1 4 0 -2.6880000000000002 #
point $-1 -4 0 -2.6880000000000002 #
coedge $-1 $115 $115 $116 $125 forward $103 $-1 #
edge $-1 $119 0 $126 3.1415926535897931 $124 $130 forward 7 unknown #
vertex $-1 $125 $131 #
straight-curve $-1 4 4.898425415289509e-016 -2.6880000000000002 0 0 -1 I I #
ellipse-curve $-1 -2.2204460492503131e-016 2.2204460492503131e-016 -3.6180000000000003 0 0 -1 4 -2.2204460492503131e-016 0 1 I I #
point $-1 -4 0 -3.6180000000000003 #
ellipse-curve $-1 1.1102230246251565e-016 0 -3.6180000000000003 0 0 -1 -4 0 0 1 I I #
point $-1 4 0 -3.6180000000000003 #
End-of-ACIS-data 