700 0 2 0           
24 FBMach with ACIS - 7.0.3 13 ACIS 7.0.3 NT 24 Tue May 14 14:19:32 2002 
1 9.9999999999999995e-007 1e-010 
body $2 -1 $-1 $3 $-1 $4 #
bdycol-kcp $-1 -1 1 2 $5 $6 #
model_id-kcp-attrib $-1 -1 $-1 $-1 $0 1 1021400371 1021400372 -599523327 1 #
lump $-1 -1 $-1 $-1 $7 $0 #
transform $-1 -1 1 0 0 0 1 0 0 0 1 0 0 0 1 rotate no_reflect no_shear #
body $8 -1 $-1 $9 $-1 $10 #
body $11 -1 $-1 $12 $-1 $13 #
shell $-1 -1 $-1 $-1 $-1 $14 $-1 $3 #
model_id-kcp-attrib $-1 -1 $-1 $-1 $5 1 1021400371 1021400372 -599523326 1 #
lump $-1 -1 $-1 $-1 $15 $5 #
transform $-1 -1 1 0 0 0 1 0 0 0 1 0 0 -0.044999999999999929 1 no_rotate no_reflect no_shear #
rgb_color-st-attrib $-1 -1 $16 $-1 $6 0.5 1 1 #
lump $-1 -1 $-1 $-1 $17 $6 #
transform $-1 -1 1 0 0 0 1 0 0 0 1 0 0 -0.044999999999999929 1 no_rotate no_reflect no_shear #
face $18 -1 $-1 $19 $20 $7 $-1 $21 forward single #
shell $-1 -1 $-1 $-1 $-1 $22 $-1 $9 #
model_id-kcp-attrib $-1 -1 $-1 $11 $6 1 1021400371 1021400372 -596901885 1 #
shell $-1 -1 $-1 $-1 $-1 $23 $-1 $12 #
model_id-kcp-attrib $-1 -1 $-1 $-1 $14 1 1021400371 1021400372 -599523327 2 #
face $24 -1 $-1 $25 $26 $7 $-1 $27 reversed single #
loop $-1 -1 $-1 $28 $29 $14 #
cone-surface $-1 -1 $-1 0 0 -2.6880000000000002 0 0 1 2 0 0 1 I I 0 1 2 forward I I I I #
face $30 -1 $-1 $31 $32 $15 $-1 $33 forward single #
face $-1 -1 $-1 $34 $35 $17 $-1 $36 reversed single #
model_id-kcp-attrib $-1 -1 $-1 $-1 $19 1 1021400371 1021400372 -599523327 3 #
face $37 -1 $-1 $38 $39 $7 $-1 $40 forward single #
loop $-1 -1 $-1 $41 $42 $19 #
plane-surface $-1 -1 $-1 0 0 2.6880000000000002 0 0 1 1 0 0 forward_v I I I I #
loop $-1 -1 $-1 $-1 $43 $14 #
coedge $-1 -1 $-1 $29 $29 $44 $45 forward $20 $-1 #
model_id-kcp-attrib $-1 -1 $-1 $-1 $22 1 1021400371 1021400372 -599523326 2 #
face $46 -1 $-1 $47 $48 $15 $-1 $49 reversed single #
loop $-1 -1 $-1 $-1 $50 $22 #
plane-surface $-1 -1 $-1 0 0 3.573 0 0 1 1 0 0 forward_v I I I I #
face $-1 -1 $-1 $51 $52 $17 $-1 $36 reversed single #
loop $-1 -1 $-1 $-1 $53 $23 #
cone-surface $-1 -1 $-1 -4.4989821654664123e-032 0 3.573 0 0 1 4 4.898425415289509e-016 0 1 I I 0 1 4 forward I I I I #
model_id-kcp-attrib $-1 -1 $-1 $-1 $25 1 1021400371 1021400372 -599523327 4 #
face $54 -1 $-1 $55 $56 $7 $-1 $57 forward single #
loop $-1 -1 $-1 $-1 $58 $25 #
plane-surface $-1 -1 $-1 0 0 3.528 0 0 1 1 0 0 forward_v I I I I #
loop $-1 -1 $-1 $-1 $44 $19 #
coedge $-1 -1 $-1 $42 $42 $59 $60 forward $26 $-1 #
coedge $-1 -1 $-1 $43 $43 $61 $62 reversed $28 $-1 #
coedge $-1 -1 $-1 $44 $44 $29 $45 reversed $41 $-1 #
edge $-1 -1 $-1 $63 -3.1415926535897931 $63 3.1415926535897931 $44 $64 forward @7 unknown #
model_id-kcp-attrib $-1 -1 $-1 $-1 $31 1 1021400371 1021400372 -599523326 3 #
face $-1 -1 $-1 $65 $66 $15 $-1 $67 reversed single #
loop $-1 -1 $-1 $-1 $68 $31 #
plane-surface $-1 -1 $-1 0 0 -3.573 0 0 1 1 0 0 forward_v I I I I #
coedge $-1 -1 $-1 $69 $70 $71 $72 forward $32 $-1 #
face $-1 -1 $-1 $73 $74 $17 $-1 $36 reversed single #
loop $-1 -1 $-1 $-1 $75 $34 #
coedge $-1 -1 $-1 $76 $77 $78 $79 reversed $35 $-1 #
model_id-kcp-attrib $-1 -1 $-1 $-1 $38 1 1021400371 1021400372 -599523327 5 #
face $80 -1 $-1 $81 $82 $7 $-1 $83 reversed single #
loop $-1 -1 $-1 $84 $85 $38 #
cone-surface $-1 -1 $-1 0 0 2.6880000000000002 0 0 1 3 0 0 1 I I 0 1 3 forward I I I I #
coedge $-1 -1 $-1 $58 $58 $85 $86 reversed $39 $-1 #
coedge $-1 -1 $-1 $59 $59 $42 $60 reversed $84 $-1 #
edge $-1 -1 $-1 $87 -3.1415926535897931 $87 3.1415926535897931 $59 $88 forward @7 unknown #
coedge $-1 -1 $-1 $61 $61 $43 $62 forward $89 $-1 #
edge $-1 -1 $-1 $90 -3.1415926535897931 $90 3.1415926535897931 $61 $91 forward @7 unknown #
vertex $-1 -1 $-1 $45 $92 #
ellipse-curve $-1 -1 $-1 0 0 2.6880000000000002 0 0 -1 -2 0 0 1 I I #
face $-1 -1 $-1 $93 $94 $15 $-1 $95 reversed single #
loop $-1 -1 $-1 $-1 $96 $47 #
plane-surface $-1 -1 $-1 0 -4 0 0 1 0 0 0 1 forward_v I I I I #
coedge $-1 -1 $-1 $97 $98 $99 $100 forward $48 $-1 #
coedge $-1 -1 $-1 $101 $50 $102 $103 forward $32 $-1 #
coedge $-1 -1 $-1 $50 $101 $104 $105 forward $32 $-1 #
coedge $-1 -1 $-1 $106 $107 $50 $72 reversed $108 $-1 #
edge $-1 -1 $-1 $109 -4 $110 4 $71 $111 forward @7 unknown #
face $-1 -1 $-1 $112 $113 $17 $-1 $36 reversed single #
loop $-1 -1 $-1 $-1 $114 $51 #
coedge $-1 -1 $-1 $115 $116 $117 $118 reversed $52 $-1 #
coedge $-1 -1 $-1 $119 $53 $120 $121 reversed $35 $-1 #
coedge $-1 -1 $-1 $53 $119 $122 $123 reversed $35 $-1 #
coedge $-1 -1 $-1 $124 $125 $126 $79 forward $127 $-1 #
edge $-1 -1 $-1 $128 -7.1459999999999999 $129 0 $78 $130 forward @7 unknown #
model_id-kcp-attrib $-1 -1 $-1 $-1 $55 1 1021400371 1021400372 -599523327 6 #
face $131 -1 $-1 $132 $133 $7 $-1 $134 forward single #
loop $-1 -1 $-1 $89 $135 $55 #
plane-surface $-1 -1 $-1 0 0 -2.6880000000000002 0 0 -1 -1 0 0 forward_v I I I I #
loop $-1 -1 $-1 $-1 $59 $38 #
coedge $-1 -1 $-1 $85 $85 $58 $86 forward $56 $-1 #
edge $136 -1 $-1 $137 0 $137 6.2831853071795862 $85 $138 forward @7 unknown #
vertex $-1 -1 $-1 $60 $139 #
ellipse-curve $-1 -1 $-1 0 0 2.6880000000000002 0 0 -1 -3 0 0 1 I I #
loop $-1 -1 $-1 $-1 $61 $55 #
vertex $-1 -1 $-1 $62 $140 #
ellipse-curve $-1 -1 $-1 0 0 -2.6880000000000002 0 0 -1 -2 0 0 1 I I #
point $-1 -1 $-1 2 0 2.6880000000000002 #
face $-1 -1 $-1 $141 $142 $15 $-1 $143 reversed single #
loop $-1 -1 $-1 $-1 $144 $65 #
plane-surface $-1 -1 $-1 -4 0 0 1 0 0 0 0 -1 forward_v I I I I #
coedge $-1 -1 $-1 $145 $104 $146 $147 forward $66 $-1 #
coedge $-1 -1 $-1 $148 $68 $145 $149 forward $48 $-1 #
coedge $-1 -1 $-1 $68 $148 $150 $151 forward $48 $-1 #
coedge $-1 -1 $-1 $107 $106 $68 $100 reversed $108 $-1 #
edge $-1 -1 $-1 $152 -4 $153 4 $99 $154 forward @7 unknown #
coedge $-1 -1 $-1 $70 $69 $155 $156 forward $32 $-1 #
coedge $-1 -1 $-1 $157 $158 $69 $103 reversed $142 $-1 #
edge $-1 -1 $-1 $110 -4 $159 4 $102 $160 forward @7 unknown #
coedge $-1 -1 $-1 $96 $161 $70 $105 reversed $66 $-1 #
edge $-1 -1 $-1 $162 -4 $109 4 $104 $163 forward @7 unknown #
coedge $-1 -1 $-1 $99 $71 $161 $164 forward $108 $-1 #
coedge $-1 -1 $-1 $71 $99 $157 $165 reversed $108 $-1 #
loop $-1 -1 $-1 $-1 $106 $141 #
vertex $-1 -1 $-1 $72 $166 #
vertex $-1 -1 $-1 $72 $167 #
straight-curve $-1 -1 $-1 4 0 3.573 0 1 0 I I #
face $-1 -1 $-1 $168 $169 $17 $-1 $170 reversed single #
loop $-1 -1 $-1 $-1 $171 $73 #
coedge $-1 -1 $-1 $172 $173 $174 $175 reversed $74 $-1 #
coedge $-1 -1 $-1 $176 $75 $177 $178 reversed $52 $-1 #
coedge $-1 -1 $-1 $75 $176 $53 $79 forward $52 $-1 #
coedge $-1 -1 $-1 $179 $180 $75 $118 forward $181 $-1 #
edge $-1 -1 $-1 $182 -3.1415926535897931 $129 -1.5707963267948966 $117 $183 forward @7 unknown #
coedge $-1 -1 $-1 $77 $76 $173 $184 forward $35 $-1 #
coedge $-1 -1 $-1 $185 $186 $76 $121 forward $187 $-1 #
edge $-1 -1 $-1 $188 -1.2246063538223773e-016 $128 1.5707963267948966 $120 $189 forward @7 unknown #
coedge $-1 -1 $-1 $190 $191 $77 $123 forward $192 $-1 #
edge $-1 -1 $-1 $129 -1.5707963267948966 $193 1.2246063538223773e-016 $122 $183 forward @7 unknown #
coedge $-1 -1 $-1 $194 $78 $191 $195 reversed $127 $-1 #
coedge $-1 -1 $-1 $78 $194 $185 $196 reversed $127 $-1 #
coedge $-1 -1 $-1 $197 $198 $116 $79 reversed $199 $-1 #
loop $-1 -1 $-1 $-1 $78 $200 #
vertex $-1 -1 $-1 $196 $201 #
vertex $-1 -1 $-1 $202 $203 #
straight-curve $-1 -1 $-1 -4.4989821654664123e-032 4 3.573 0 0 1 I I #
model_id-kcp-attrib $-1 -1 $-1 $-1 $81 1 1021400371 1021400372 -599523327 7 #
face $204 -1 $-1 $-1 $205 $7 $-1 $206 forward single #
loop $-1 -1 $-1 $-1 $207 $81 #
plane-surface $-1 -1 $-1 0 0 -3.6179999999999999 0 0 -1 -1 0 0 forward_v I I I I #
coedge $-1 -1 $-1 $135 $135 $208 $209 forward $82 $-1 #
attrib_edge_convexity-kcp-attrib $-1 -1 $210 $-1 $86 1 #
vertex $-1 -1 $-1 $86 $211 #
ellipse-curve $-1 -1 $-1 0 0 3.528 0 0 -1 3 0 0 1 I I #
point $-1 -1 $-1 3 0 2.6880000000000002 #
point $-1 -1 $-1 2 0 -2.6880000000000002 #
face $-1 -1 $-1 $-1 $108 $15 $-1 $212 reversed single #
loop $-1 -1 $-1 $-1 $157 $93 #
plane-surface $-1 -1 $-1 0 4 0 0 -1 0 0 0 -1 forward_v I I I I #
coedge $-1 -1 $-1 $213 $155 $158 $214 forward $94 $-1 #
coedge $-1 -1 $-1 $161 $96 $97 $149 reversed $66 $-1 #
coedge $-1 -1 $-1 $155 $213 $96 $147 reversed $94 $-1 #
edge $-1 -1 $-1 $162 -3.573 $215 3.573 $146 $216 forward @7 unknown #
coedge $-1 -1 $-1 $98 $97 $213 $217 forward $48 $-1 #
edge $-1 -1 $-1 $153 -4 $215 4 $145 $218 forward @7 unknown #
coedge $-1 -1 $-1 $158 $157 $98 $151 reversed $142 $-1 #
edge $-1 -1 $-1 $219 -4 $152 4 $150 $220 forward @7 unknown #
vertex $-1 -1 $-1 $100 $221 #
vertex $-1 -1 $-1 $164 $222 #
straight-curve $-1 -1 $-1 4 0 -3.573 0 -1 0 I I #
coedge $-1 -1 $-1 $144 $146 $101 $156 reversed $94 $-1 #
edge $-1 -1 $-1 $159 -4 $162 4 $155 $223 forward @7 unknown #
coedge $-1 -1 $-1 $150 $102 $107 $165 forward $142 $-1 #
coedge $-1 -1 $-1 $102 $150 $144 $214 reversed $142 $-1 #
vertex $-1 -1 $-1 $103 $224 #
straight-curve $-1 -1 $-1 0 4 3.573 -1 0 0 I I #
coedge $-1 -1 $-1 $104 $145 $106 $164 reversed $66 $-1 #
vertex $-1 -1 $-1 $156 $225 #
straight-curve $-1 -1 $-1 0 -4 3.573 1 0 0 I I #
edge $-1 -1 $-1 $109 -3.573 $153 3.573 $106 $226 forward @7 unknown #
edge $-1 -1 $-1 $110 -3.573 $152 3.573 $107 $227 forward @7 unknown #
point $-1 -1 $-1 4 -4 3.573 #
point $-1 -1 $-1 4 4 3.573 #
face $-1 -1 $-1 $228 $199 $17 $-1 $229 reversed single #
loop $-1 -1 $-1 $-1 $230 $112 #
plane-surface $-1 -1 $-1 4 0 0 -1 0 0 0 0 1 forward_v I I I I #
coedge $-1 -1 $-1 $231 $232 $233 $234 reversed $113 $-1 #
coedge $-1 -1 $-1 $235 $114 $232 $236 forward $74 $-1 #
coedge $-1 -1 $-1 $114 $235 $237 $184 reversed $74 $-1 #
coedge $-1 -1 $-1 $238 $239 $114 $175 forward $240 $-1 #
edge $-1 -1 $-1 $241 -1.5707963267948968 $188 -1.2246063538223773e-016 $174 $189 forward @7 unknown #
coedge $-1 -1 $-1 $116 $115 $242 $243 reversed $52 $-1 #
coedge $-1 -1 $-1 $244 $245 $246 $178 forward $247 $-1 #
edge $-1 -1 $-1 $248 -7.1459999999999999 $182 0 $177 $249 forward @7 unknown #
coedge $-1 -1 $-1 $180 $117 $198 $202 forward $181 $-1 #
coedge $-1 -1 $-1 $117 $179 $244 $250 forward $181 $-1 #
loop $-1 -1 $-1 $-1 $117 $251 #
vertex $-1 -1 $-1 $252 $253 #
ellipse-curve $-1 -1 $-1 -4.4989821654664123e-032 0 3.573 0 0 -1 4 4.898425415289509e-016 0 1 I I #
edge $-1 -1 $-1 $188 -7.1459999999999999 $193 0 $237 $254 forward @7 unknown #
coedge $-1 -1 $-1 $186 $120 $125 $196 forward $187 $-1 #
coedge $-1 -1 $-1 $120 $185 $255 $256 forward $187 $-1 #
loop $-1 -1 $-1 $-1 $120 $257 #
vertex $-1 -1 $-1 $258 $259 #
ellipse-curve $-1 -1 $-1 -4.4989821654664123e-032 0 -3.573 0 0 1 4 4.898425415289509e-016 0 1 I I #
coedge $-1 -1 $-1 $191 $122 $260 $261 forward $192 $-1 #
coedge $-1 -1 $-1 $122 $190 $124 $195 forward $192 $-1 #
loop $-1 -1 $-1 $-1 $122 $262 #
vertex $-1 -1 $-1 $261 $263 #
coedge $-1 -1 $-1 $125 $124 $264 $265 forward $127 $-1 #
edge $-1 -1 $-1 $266 -4 $129 4.4989821654664123e-032 $124 $267 forward @7 unknown #
edge $-1 -1 $-1 $128 -4.4989821654664123e-032 $268 4 $125 $269 forward @7 unknown #
coedge $-1 -1 $-1 $270 $126 $271 $272 reversed $199 $-1 #
coedge $-1 -1 $-1 $126 $270 $179 $202 reversed $199 $-1 #
loop $-1 -1 $-1 $-1 $126 $168 #
face $-1 -1 $-1 $273 $127 $17 $-1 $229 reversed single #
point $-1 -1 $-1 -4.4989821654664123e-032 4 -3.573 #
edge $-1 -1 $-1 $129 4.4989821654664123e-032 $274 4 $198 $267 forward @7 unknown #
point $-1 -1 $-1 -4.4989821654664123e-032 4 3.573 #
model_id-kcp-attrib $-1 -1 $-1 $-1 $132 1 1021400371 1021400372 -599523327 8 #
loop $-1 -1 $-1 $275 $276 $132 #
cone-surface $-1 -1 $-1 0 0 -2.6880000000000002 0 0 -1 -4 0 0 1 I I 0 1 4 forward I I I I #
coedge $-1 -1 $-1 $207 $207 $276 $277 reversed $133 $-1 #
coedge $-1 -1 $-1 $208 $208 $135 $209 reversed $275 $-1 #
edge $-1 -1 $-1 $278 -3.1415926535897931 $278 3.1415926535897931 $208 $279 forward @7 unknown #
convexity-sys-attrib $-1 -1 $-1 $136 $86 #
point $-1 -1 $-1 3 0 3.528 #
plane-surface $-1 -1 $-1 4 0 0 -1 0 0 0 0 1 forward_v I I I I #
coedge $-1 -1 $-1 $146 $144 $148 $217 reversed $94 $-1 #
edge $-1 -1 $-1 $159 -3.573 $219 3.573 $158 $280 forward @7 unknown #
vertex $-1 -1 $-1 $217 $281 #
straight-curve $-1 -1 $-1 -4 -4 0 0 0 -1 I I #
edge $-1 -1 $-1 $215 -4 $219 4 $213 $282 forward @7 unknown #
straight-curve $-1 -1 $-1 0 -4 -3.573 -1 0 0 I I #
vertex $-1 -1 $-1 $151 $283 #
straight-curve $-1 -1 $-1 0 4 -3.573 1 0 0 I I #
point $-1 -1 $-1 4 4 -3.573 #
point $-1 -1 $-1 4 -4 -3.573 #
straight-curve $-1 -1 $-1 -4 0 3.573 0 -1 0 I I #
point $-1 -1 $-1 -4 4 3.573 #
point $-1 -1 $-1 -4 -4 3.573 #
straight-curve $-1 -1 $-1 4 -4 0 0 0 -1 I I #
straight-curve $-1 -1 $-1 4 4 0 0 0 -1 I I #
face $-1 -1 $-1 $284 $285 $17 $-1 $286 reversed single #
plane-surface $-1 -1 $-1 0 4 0 0 -1 0 0 0 -1 forward_v I I I I #
coedge $-1 -1 $-1 $255 $260 $119 $184 reversed $169 $-1 #
coedge $-1 -1 $-1 $287 $171 $115 $178 forward $113 $-1 #
coedge $-1 -1 $-1 $171 $287 $288 $236 reversed $113 $-1 #
coedge $-1 -1 $-1 $289 $290 $171 $234 forward $291 $-1 #
edge $-1 -1 $-1 $248 -3.1415926535897931 $241 -1.5707963267948968 $233 $189 forward @7 unknown #
coedge $-1 -1 $-1 $173 $172 $292 $293 reversed $74 $-1 #
edge $-1 -1 $-1 $241 -7.1459999999999999 $294 0 $288 $295 forward @7 unknown #
coedge $-1 -1 $-1 $296 $297 $230 $184 forward $298 $-1 #
coedge $-1 -1 $-1 $239 $174 $297 $258 forward $240 $-1 #
coedge $-1 -1 $-1 $174 $238 $299 $300 forward $240 $-1 #
loop $-1 -1 $-1 $-1 $174 $301 #
vertex $-1 -1 $-1 $302 $303 #
coedge $-1 -1 $-1 $304 $271 $176 $243 forward $305 $-1 #
edge $-1 -1 $-1 $128 1.5707963267948966 $248 3.1415926535897931 $242 $189 forward @7 unknown #
coedge $-1 -1 $-1 $306 $177 $180 $250 reversed $247 $-1 #
coedge $-1 -1 $-1 $177 $306 $304 $307 reversed $247 $-1 #
coedge $-1 -1 $-1 $308 $309 $231 $178 reversed $285 $-1 #
loop $-1 -1 $-1 $-1 $177 $310 #
vertex $-1 -1 $-1 $307 $311 #
straight-curve $-1 -1 $-1 -4 0 3.573 0 0 1 I I #
edge $-1 -1 $-1 $274 -4 $182 0 $244 $312 forward @7 unknown #
face $-1 -1 $-1 $262 $181 $17 $-1 $313 forward single #
edge $-1 -1 $-1 $182 0 $314 4 $309 $312 forward @7 unknown #
point $-1 -1 $-1 -4 0 3.573 #
straight-curve $-1 -1 $-1 4 0 3.573 0 0 1 I I #
coedge $-1 -1 $-1 $264 $230 $186 $256 reversed $169 $-1 #
edge $-1 -1 $-1 $268 -4 $188 0 $255 $315 forward @7 unknown #
face $-1 -1 $-1 $316 $187 $17 $-1 $317 reversed single #
edge $-1 -1 $-1 $188 0 $318 4 $297 $315 forward @7 unknown #
point $-1 -1 $-1 4 0 -3.573 #
coedge $-1 -1 $-1 $230 $264 $190 $261 reversed $169 $-1 #
edge $-1 -1 $-1 $193 0 $266 4 $260 $319 forward @7 unknown #
face $-1 -1 $-1 $320 $192 $17 $-1 $313 forward single #
point $-1 -1 $-1 4 0 3.573 #
coedge $-1 -1 $-1 $260 $255 $194 $265 reversed $169 $-1 #
edge $-1 -1 $-1 $266 -3.573 $268 3.573 $264 $321 forward @7 unknown #
vertex $-1 -1 $-1 $261 $322 #
straight-curve $-1 -1 $-1 0 4 3.573 -1 0 0 I I #
vertex $-1 -1 $-1 $256 $323 #
straight-curve $-1 -1 $-1 0 4 -3.573 1 0 0 I I #
coedge $-1 -1 $-1 $198 $197 $306 $324 reversed $199 $-1 #
coedge $-1 -1 $-1 $242 $304 $197 $272 forward $305 $-1 #
edge $-1 -1 $-1 $325 -4 $128 -4.4989821654664123e-032 $197 $269 forward @7 unknown #
face $-1 -1 $-1 $-1 $298 $17 $-1 $170 reversed single #
vertex $-1 -1 $-1 $202 $326 #
loop $-1 -1 $-1 $-1 $208 $132 #
coedge $-1 -1 $-1 $276 $276 $207 $277 forward $205 $-1 #
edge $-1 -1 $-1 $327 0 $327 6.2831853071795862 $276 $328 forward @7 unknown #
vertex $-1 -1 $-1 $209 $329 #
ellipse-curve $-1 -1 $-1 0 0 -2.6880000000000002 0 0 1 4 0 0 1 I I #
straight-curve $-1 -1 $-1 -4 4 0 0 0 -1 I I #
point $-1 -1 $-1 -4 -4 -3.573 #
straight-curve $-1 -1 $-1 -4 0 -3.573 0 1 0 I I #
point $-1 -1 $-1 -4 4 -3.573 #
face $-1 -1 $-1 $251 $330 $17 $-1 $313 forward single #
loop $-1 -1 $-1 $-1 $246 $228 #
plane-surface $-1 -1 $-1 -4 0 0 1 0 0 0 0 -1 forward_v I I I I #
coedge $-1 -1 $-1 $232 $231 $331 $332 reversed $113 $-1 #
coedge $-1 -1 $-1 $333 $334 $335 $236 forward $336 $-1 #
coedge $-1 -1 $-1 $290 $233 $334 $302 forward $291 $-1 #
coedge $-1 -1 $-1 $233 $289 $308 $337 forward $291 $-1 #
loop $-1 -1 $-1 $-1 $233 $338 #
coedge $-1 -1 $-1 $339 $340 $235 $293 forward $341 $-1 #
edge $-1 -1 $-1 $193 1.2246063538223773e-016 $294 1.5707963267948968 $292 $183 forward @7 unknown #
vertex $-1 -1 $-1 $342 $343 #
straight-curve $-1 -1 $-1 -4.4989821654664123e-032 -4 3.573 0 0 1 I I #
coedge $-1 -1 $-1 $344 $237 $340 $345 reversed $298 $-1 #
coedge $-1 -1 $-1 $237 $344 $238 $258 reversed $298 $-1 #
loop $-1 -1 $-1 $-1 $237 $273 #
coedge $-1 -1 $-1 $346 $335 $239 $300 reversed $347 $-1 #
edge $-1 -1 $-1 $318 -4 $241 4.4989821654664123e-032 $299 $348 forward @7 unknown #
face $-1 -1 $-1 $257 $240 $17 $-1 $317 reversed single #
edge $-1 -1 $-1 $241 4.4989821654664123e-032 $349 4 $334 $348 forward @7 unknown #
point $-1 -1 $-1 -4.4989821654664123e-032 -4 -3.573 #
coedge $-1 -1 $-1 $271 $242 $245 $307 forward $305 $-1 #
loop $-1 -1 $-1 $-1 $242 $316 #
coedge $-1 -1 $-1 $245 $244 $270 $324 forward $247 $-1 #
edge $-1 -1 $-1 $248 0 $325 4 $245 $350 forward @7 unknown #
coedge $-1 -1 $-1 $351 $246 $290 $337 reversed $285 $-1 #
coedge $-1 -1 $-1 $246 $351 $352 $252 reversed $285 $-1 #
face $-1 -1 $-1 $200 $247 $17 $-1 $286 reversed single #
point $-1 -1 $-1 -4 0 -3.573 #
straight-curve $-1 -1 $-1 -4 0 3.573 0 -1 0 I I #
plane-surface $-1 -1 $-1 0 0 3.573 0 0 1 1 0 0 forward_v I I I I #
vertex $-1 -1 $-1 $252 $353 #
straight-curve $-1 -1 $-1 4 0 -3.573 0 -1 0 I I #
face $-1 -1 $-1 $354 $305 $17 $-1 $317 reversed single #
plane-surface $-1 -1 $-1 0 0 -3.573 0 0 1 1 0 0 forward_v I I I I #
vertex $-1 -1 $-1 $355 $356 #
straight-curve $-1 -1 $-1 4 0 3.573 0 1 0 I I #
face $-1 -1 $-1 $357 $341 $17 $-1 $313 forward single #
straight-curve $-1 -1 $-1 4 4 0 0 0 -1 I I #
point $-1 -1 $-1 4 4 3.573 #
point $-1 -1 $-1 4 4 -3.573 #
edge $-1 -1 $-1 $274 -3.573 $325 3.573 $270 $358 forward @7 unknown #
vertex $-1 -1 $-1 $272 $359 #
point $-1 -1 $-1 -4 4 3.573 #
vertex $-1 -1 $-1 $277 $360 #
ellipse-curve $-1 -1 $-1 0 0 -3.6179999999999999 0 0 1 -4 0 0 1 I I #
point $-1 -1 $-1 -4 0 -2.6880000000000002 #
loop $-1 -1 $-1 $-1 $331 $284 #
coedge $-1 -1 $-1 $352 $361 $287 $332 forward $330 $-1 #
edge $-1 -1 $-1 $294 1.5707963267948968 $182 3.1415926535897931 $331 $183 forward @7 unknown #
coedge $-1 -1 $-1 $362 $288 $361 $363 reversed $336 $-1 #
coedge $-1 -1 $-1 $288 $362 $289 $302 reversed $336 $-1 #
coedge $-1 -1 $-1 $299 $364 $172 $236 reversed $347 $-1 #
loop $-1 -1 $-1 $-1 $288 $354 #
edge $-1 -1 $-1 $349 -4 $248 0 $308 $350 forward @7 unknown #
face $-1 -1 $-1 $301 $291 $17 $-1 $317 reversed single #
coedge $-1 -1 $-1 $340 $292 $364 $342 forward $341 $-1 #
coedge $-1 -1 $-1 $292 $339 $296 $345 forward $341 $-1 #
loop $-1 -1 $-1 $-1 $292 $320 #
edge $-1 -1 $-1 $294 -4.4989821654664123e-032 $365 4 $364 $366 forward @7 unknown #
point $-1 -1 $-1 -4.4989821654664123e-032 -4 3.573 #
coedge $-1 -1 $-1 $297 $296 $346 $355 forward $298 $-1 #
edge $-1 -1 $-1 $365 -4 $193 0 $296 $319 forward @7 unknown #
coedge $-1 -1 $-1 $364 $299 $344 $355 reversed $347 $-1 #
loop $-1 -1 $-1 $-1 $335 $357 #
straight-curve $-1 -1 $-1 0 -4 -3.573 -1 0 0 I I #
vertex $-1 -1 $-1 $337 $367 #
straight-curve $-1 -1 $-1 -4 0 -3.573 0 1 0 I I #
coedge $-1 -1 $-1 $309 $308 $362 $368 reversed $285 $-1 #
coedge $-1 -1 $-1 $361 $331 $309 $252 forward $330 $-1 #
point $-1 -1 $-1 -4 -4 3.573 #
face $-1 -1 $-1 $310 $336 $17 $-1 $369 reversed single #
edge $-1 -1 $-1 $365 -3.573 $318 3.573 $344 $370 forward @7 unknown #
point $-1 -1 $-1 4 -4 -3.573 #
face $-1 -1 $-1 $338 $347 $17 $-1 $369 reversed single #
straight-curve $-1 -1 $-1 -4 4 0 0 0 -1 I I #
point $-1 -1 $-1 -4 4 -3.573 #
point $-1 -1 $-1 -4 0 -3.6179999999999999 #
coedge $-1 -1 $-1 $331 $352 $333 $363 forward $330 $-1 #
coedge $-1 -1 $-1 $334 $333 $351 $368 forward $336 $-1 #
edge $-1 -1 $-1 $314 -4 $294 -4.4989821654664123e-032 $333 $366 forward @7 unknown #
coedge $-1 -1 $-1 $335 $346 $339 $342 reversed $347 $-1 #
vertex $-1 -1 $-1 $345 $371 #
straight-curve $-1 -1 $-1 0 -4 3.573 1 0 0 I I #
point $-1 -1 $-1 -4 -4 -3.573 #
edge $-1 -1 $-1 $314 -3.573 $349 3.573 $351 $372 forward @7 unknown #
plane-surface $-1 -1 $-1 0 -4 0 0 1 0 0 0 1 forward_v I I I I #
straight-curve $-1 -1 $-1 4 -4 0 0 0 -1 I I #
point $-1 -1 $-1 4 -4 3.573 #
straight-curve $-1 -1 $-1 -4 -4 0 0 0 -1 I I #
End-of-ACIS-data 