600 0 1 0           
112 GICL ACIS Healer - Source: /gicl/data5/repository/NIST/Manfred_Osti/suitcase/adaptnipple1/adaptnipple1.sat - 6 0 18 ACIS 6.0.3 Solaris 24 Sun Apr 14 00:36:43 2002 
1 9.999999999999999547e-07 1.000000000000000036e-10 
body $-1 $1 $-1 $-1 #
lump $-1 $-1 $2 $0 #
shell $-1 $-1 $-1 $3 $-1 $1 #
face $-1 $4 $5 $2 $-1 $6 forward single #
face $-1 $7 $8 $2 $-1 $9 reversed single #
loop $-1 $10 $11 $3 #
cone-surface $-1 0 0 -2.688000000000000167 0 0 1 2 0 0 1 I I 0 1 2 forward I I I I #
face $-1 $12 $13 $2 $-1 $14 forward single #
loop $-1 $15 $16 $4 #
plane-surface $-1 0 0 2.688000000000000167 0 0 1 1 0 0 forward_v I I I I #
loop $-1 $-1 $17 $3 #
coedge $-1 $11 $11 $18 $19 forward $5 $-1 #
face $-1 $20 $21 $2 $-1 $22 forward single #
loop $-1 $-1 $23 $7 #
plane-surface $-1 0 0 3.528000000000000025 0 0 1 1 0 0 forward_v I I I I #
loop $-1 $-1 $18 $4 #
coedge $-1 $16 $16 $24 $25 forward $8 $-1 #
coedge $-1 $17 $17 $26 $27 reversed $10 $-1 #
coedge $-1 $18 $18 $11 $19 reversed $15 $-1 #
edge $-1 $28 -3.141592653589793116 $28 3.141592653589793116 $18 $29 forward 7 unknown #
face $-1 $30 $31 $2 $-1 $32 reversed single #
loop $-1 $33 $34 $12 #
cone-surface $-1 0 0 2.688000000000000167 0 0 1 3 0 0 1 I I 0 1 3 forward I I I I #
coedge $-1 $23 $23 $34 $35 reversed $13 $-1 #
coedge $-1 $24 $24 $16 $25 reversed $33 $-1 #
edge $-1 $36 -3.141592653589793116 $36 3.141592653589793116 $24 $37 forward 7 unknown #
coedge $-1 $26 $26 $17 $27 forward $38 $-1 #
edge $-1 $39 -3.141592653589793116 $39 3.141592653589793116 $26 $40 forward 7 unknown #
vertex $-1 $19 $41 #
ellipse-curve $-1 0 0 2.688000000000000167 0 0 -1 -2 0 0 1 I I #
face $-1 $42 $43 $2 $-1 $44 forward single #
loop $-1 $38 $45 $20 #
plane-surface $-1 0 0 -2.688000000000000167 0 0 -1 -1 0 0 forward_v I I I I #
loop $-1 $-1 $24 $12 #
coedge $-1 $34 $34 $23 $35 forward $21 $-1 #
edge $-1 $46 0 $46 6.283185307179586232 $34 $47 forward 7 unknown #
vertex $-1 $25 $48 #
ellipse-curve $-1 0 0 2.688000000000000167 0 0 -1 -3 0 0 1 I I #
loop $-1 $-1 $26 $20 #
vertex $-1 $27 $49 #
ellipse-curve $-1 0 0 -2.688000000000000167 0 0 -1 -2 0 0 1 I I #
point $-1 2 0 2.688000000000000167 #
face $-1 $-1 $50 $2 $-1 $51 forward single #
loop $-1 $-1 $52 $30 #
plane-surface $-1 0 0 -3.617999999999999883 0 0 -1 -1 0 0 forward_v I I I I #
coedge $-1 $45 $45 $53 $54 forward $31 $-1 #
vertex $-1 $35 $55 #
ellipse-curve $-1 0 0 3.528000000000000025 0 0 -1 3 0 0 1 I I #
point $-1 3 0 2.688000000000000167 #
point $-1 2 0 -2.688000000000000167 #
loop $-1 $56 $57 $42 #
cone-surface $-1 0 0 -2.688000000000000167 0 0 -1 -4 0 0 1 I I 0 1 4 forward I I I I #
coedge $-1 $52 $52 $57 $58 reversed $43 $-1 #
coedge $-1 $53 $53 $45 $54 reversed $56 $-1 #
edge $-1 $59 -3.141592653589793116 $59 3.141592653589793116 $53 $60 forward 7 unknown #
point $-1 3 0 3.528000000000000025 #
loop $-1 $-1 $53 $42 #
coedge $-1 $57 $57 $52 $58 forward $50 $-1 #
edge $-1 $61 0 $61 6.283185307179586232 $57 $62 forward 7 unknown #
vertex $-1 $54 $63 #
ellipse-curve $-1 0 0 -2.688000000000000167 0 0 1 4 0 0 1 I I #
vertex $-1 $58 $64 #
ellipse-curve $-1 0 0 -3.617999999999999883 0 0 1 -4 0 0 1 I I #
point $-1 -4 0 -2.688000000000000167 #
point $-1 -4 0 -3.617999999999999883 #
End-of-ACIS-data 