700 0 2 0           
24 FBMach with ACIS - 7.0.3 13 ACIS 7.0.3 NT 24 Tue May 14 14:19:33 2002 
1 9.9999999999999995e-007 1e-010 
body $2 -1 $-1 $3 $-1 $4 #
bdycol-kcp $-1 -1 1 2 $5 $6 #
model_id-kcp-attrib $-1 -1 $-1 $-1 $0 1 1021400373 1021400373 570294273 1 #
lump $-1 -1 $-1 $-1 $7 $0 #
transform $-1 -1 1 0 0 0 1 0 0 0 1 0 0 0 1 rotate no_reflect no_shear #
body $8 -1 $-1 $9 $-1 $10 #
body $11 -1 $-1 $12 $-1 $13 #
shell $-1 -1 $-1 $-1 $-1 $14 $-1 $3 #
rgb_color-st-attrib $-1 -1 $15 $-1 $5 0.5 1 1 #
lump $-1 -1 $-1 $-1 $16 $5 #
transform $-1 -1 1 0 0 0 1 0 0 0 1 0 0 -1.1430000000000007 1 no_rotate no_reflect no_shear #
model_id-kcp-attrib $-1 -1 $-1 $-1 $6 1 1021400373 1021400373 570294274 1 #
lump $-1 -1 $-1 $-1 $17 $6 #
transform $-1 -1 1 0 0 0 1 0 0 0 1 0 0 -1.1430000000000007 1 no_rotate no_reflect no_shear #
face $18 -1 $-1 $19 $20 $7 $-1 $21 forward single #
model_id-kcp-attrib $-1 -1 $-1 $8 $5 1 1021400373 1021400373 560070659 1 #
shell $-1 -1 $-1 $-1 $-1 $22 $-1 $9 #
shell $-1 -1 $-1 $-1 $-1 $23 $-1 $12 #
model_id-kcp-attrib $-1 -1 $-1 $-1 $14 1 1021400373 1021400373 570294273 2 #
face $24 -1 $-1 $25 $26 $7 $-1 $27 forward single #
loop $-1 -1 $-1 $-1 $28 $14 #
cone-surface $-1 -1 $-1 0 0 -68.275199999999998 0 0 1 50.799999999999997 0 0 1 I I 0 1 50.799999999999997 forward I I I I #
face $-1 -1 $-1 $29 $30 $16 $-1 $31 reversed single #
face $32 -1 $-1 $33 $34 $17 $-1 $35 forward single #
model_id-kcp-attrib $-1 -1 $-1 $-1 $19 1 1021400373 1021400373 570294273 3 #
face $36 -1 $-1 $37 $38 $7 $-1 $39 reversed single #
loop $-1 -1 $-1 $-1 $40 $19 #
cone-surface $-1 -1 $-1 0 0 -68.275199999999998 0 0 1 50.799999999999997 0 0 1 I I 0 1 50.799999999999997 forward I I I I #
coedge $-1 -1 $-1 $41 $42 $43 $44 forward $20 $-1 #
face $-1 -1 $-1 $45 $46 $16 $-1 $31 reversed single #
loop $-1 -1 $-1 $-1 $47 $22 #
cone-surface $-1 -1 $-1 -3.5578936133393385e-032 5.6399329650957949e-015 90.754199999999997 0 0 1 101.59999999999999 -5.6399329650957949e-015 0 1 I I 0 1 101.59999999999999 forward I I I I #
model_id-kcp-attrib $-1 -1 $-1 $-1 $23 1 1021400373 1021400373 570294274 2 #
face $48 -1 $-1 $49 $50 $17 $-1 $51 reversed single #
loop $-1 -1 $-1 $-1 $52 $23 #
plane-surface $-1 -1 $-1 0 0 90.754199999999997 0 0 1 1 0 0 forward_v I I I I #
model_id-kcp-attrib $-1 -1 $-1 $-1 $25 1 1021400373 1021400373 570294273 4 #
face $53 -1 $-1 $54 $55 $7 $-1 $56 forward single #
loop $-1 -1 $-1 $57 $58 $25 #
plane-surface $-1 -1 $-1 0 0 68.275199999999998 0 0 1 25.399999999999999 0 0 forward_v I I I I #
coedge $-1 -1 $-1 $59 $60 $61 $62 forward $26 $-1 #
coedge $-1 -1 $-1 $61 $28 $63 $64 reversed $20 $-1 #
coedge $-1 -1 $-1 $28 $61 $65 $66 forward $20 $-1 #
coedge $-1 -1 $-1 $60 $59 $28 $44 reversed $26 $-1 #
edge $-1 -1 $-1 $67 0 $68 5.3760000000000003 $28 $69 forward @7 unknown #
face $-1 -1 $-1 $70 $71 $16 $-1 $31 reversed single #
loop $-1 -1 $-1 $-1 $72 $29 #
coedge $-1 -1 $-1 $73 $74 $75 $76 reversed $30 $-1 #
model_id-kcp-attrib $-1 -1 $-1 $-1 $33 1 1021400373 1021400373 570294274 3 #
face $-1 -1 $-1 $77 $78 $17 $-1 $79 reversed single #
loop $-1 -1 $-1 $-1 $80 $33 #
plane-surface $-1 -1 $-1 0 0 -90.754199999999997 0 0 1 1 0 0 forward_v I I I I #
coedge $-1 -1 $-1 $81 $82 $83 $84 forward $34 $-1 #
model_id-kcp-attrib $-1 -1 $-1 $-1 $37 1 1021400373 1021400373 570294273 5 #
face $85 -1 $-1 $86 $87 $7 $-1 $88 forward single #
loop $-1 -1 $-1 $-1 $89 $37 #
cone-surface $-1 -1 $-1 0 0 68.275199999999998 0 0 1 76.199999999999989 0 0 1 I I 0 1 76.199999999999989 forward I I I I #
loop $-1 -1 $-1 $-1 $90 $25 #
coedge $-1 -1 $-1 $91 $91 $92 $93 reversed $38 $-1 #
coedge $-1 -1 $-1 $43 $40 $90 $94 reversed $26 $-1 #
coedge $-1 -1 $-1 $40 $43 $95 $96 forward $26 $-1 #
coedge $-1 -1 $-1 $42 $41 $40 $62 reversed $20 $-1 #
edge $-1 -1 $-1 $97 0 $98 5.3760000000000003 $61 $99 forward @7 unknown #
coedge $-1 -1 $-1 $90 $90 $41 $64 forward $57 $-1 #
edge $-1 -1 $-1 $98 0 $68 3.1415926535897931 $41 $100 forward @7 unknown #
coedge $-1 -1 $-1 $95 $95 $42 $66 reversed $101 $-1 #
edge $-1 -1 $-1 $97 0 $67 3.1415926535897931 $42 $102 forward @7 unknown #
vertex $-1 -1 $-1 $66 $103 #
vertex $-1 -1 $-1 $64 $104 #
straight-curve $-1 -1 $-1 -50.799999999999997 6.2210002774176763e-015 -68.275199999999998 0 0 25.399999999999999 I I #
face $-1 -1 $-1 $105 $106 $16 $-1 $31 reversed single #
loop $-1 -1 $-1 $-1 $107 $45 #
coedge $-1 -1 $-1 $108 $109 $110 $111 reversed $46 $-1 #
coedge $-1 -1 $-1 $112 $47 $113 $114 reversed $30 $-1 #
coedge $-1 -1 $-1 $47 $112 $115 $116 reversed $30 $-1 #
coedge $-1 -1 $-1 $117 $118 $119 $76 forward $120 $-1 #
edge $-1 -1 $-1 $121 -181.50839999999999 $122 0 $75 $123 forward @7 unknown #
face $-1 -1 $-1 $124 $125 $17 $-1 $126 reversed single #
loop $-1 -1 $-1 $-1 $127 $49 #
plane-surface $-1 -1 $-1 0 -101.59999999999999 0 0 1 0 0 0 1 forward_v I I I I #
coedge $-1 -1 $-1 $128 $129 $130 $131 forward $50 $-1 #
coedge $-1 -1 $-1 $132 $52 $133 $134 forward $34 $-1 #
coedge $-1 -1 $-1 $52 $132 $135 $136 forward $34 $-1 #
coedge $-1 -1 $-1 $137 $138 $52 $84 reversed $139 $-1 #
edge $-1 -1 $-1 $140 -101.59999999999999 $141 101.59999999999999 $83 $142 forward @7 unknown #
model_id-kcp-attrib $-1 -1 $-1 $-1 $54 1 1021400373 1021400373 570294273 6 #
face $143 -1 $-1 $144 $145 $7 $-1 $146 forward single #
loop $-1 -1 $-1 $-1 $147 $54 #
cone-surface $-1 -1 $-1 0 0 68.275199999999998 0 0 1 76.199999999999989 0 0 1 I I 0 1 76.199999999999989 forward I I I I #
coedge $-1 -1 $-1 $148 $92 $149 $150 forward $55 $-1 #
coedge $-1 -1 $-1 $63 $63 $59 $94 forward $57 $-1 #
coedge $-1 -1 $-1 $58 $58 $151 $152 reversed $38 $-1 #
coedge $-1 -1 $-1 $89 $153 $58 $93 forward $55 $-1 #
edge $-1 -1 $-1 $154 0 $155 3.1415926535897931 $58 $156 forward @7 unknown #
edge $-1 -1 $-1 $68 0 $98 3.1415926535897931 $59 $157 forward @7 unknown #
coedge $-1 -1 $-1 $65 $65 $60 $96 reversed $101 $-1 #
edge $-1 -1 $-1 $67 0 $97 3.1415926535897931 $60 $158 forward @7 unknown #
vertex $-1 -1 $-1 $66 $159 #
vertex $-1 -1 $-1 $62 $160 #
straight-curve $-1 -1 $-1 50.799999999999997 0 -68.275199999999998 0 0 25.399999999999999 I I #
ellipse-curve $-1 -1 $-1 0 0 68.275199999999998 0 0 1 50.799999999999997 0 0 1 I I #
loop $-1 -1 $-1 $-1 $95 $144 #
ellipse-curve $-1 -1 $-1 0 0 -68.275199999999998 0 0 1 50.799999999999997 0 0 1 I I #
point $-1 -1 $-1 -50.799999999999997 0 -68.275199999999998 #
point $-1 -1 $-1 -50.799999999999997 0 68.275199999999998 #
face $-1 -1 $-1 $161 $162 $16 $-1 $163 reversed single #
loop $-1 -1 $-1 $-1 $164 $70 #
coedge $-1 -1 $-1 $165 $166 $167 $168 reversed $71 $-1 #
coedge $-1 -1 $-1 $169 $72 $170 $171 reversed $46 $-1 #
coedge $-1 -1 $-1 $72 $169 $47 $76 forward $46 $-1 #
coedge $-1 -1 $-1 $172 $173 $72 $111 forward $174 $-1 #
edge $-1 -1 $-1 $175 -3.1415926535897931 $122 -1.5707963267948968 $110 $176 forward @7 unknown #
coedge $-1 -1 $-1 $74 $73 $166 $177 forward $30 $-1 #
coedge $-1 -1 $-1 $178 $179 $73 $114 forward $180 $-1 #
edge $-1 -1 $-1 $181 5.5511151231257827e-017 $121 1.5707963267948968 $113 $182 forward @7 unknown #
coedge $-1 -1 $-1 $183 $184 $74 $116 forward $185 $-1 #
edge $-1 -1 $-1 $122 -1.5707963267948968 $186 -5.5511151231257827e-017 $115 $176 forward @7 unknown #
coedge $-1 -1 $-1 $187 $75 $184 $188 reversed $120 $-1 #
coedge $-1 -1 $-1 $75 $187 $178 $189 reversed $120 $-1 #
coedge $-1 -1 $-1 $190 $191 $109 $76 reversed $192 $-1 #
loop $-1 -1 $-1 $-1 $75 $193 #
vertex $-1 -1 $-1 $189 $194 #
vertex $-1 -1 $-1 $195 $196 #
straight-curve $-1 -1 $-1 -3.5578936133393385e-032 101.59999999999999 90.754199999999997 0 0 1 I I #
face $-1 -1 $-1 $197 $198 $17 $-1 $199 reversed single #
loop $-1 -1 $-1 $-1 $200 $77 #
plane-surface $-1 -1 $-1 -101.59999999999999 0 0 1 0 0 0 0 -1 forward_v I I I I #
coedge $-1 -1 $-1 $201 $135 $202 $203 forward $78 $-1 #
coedge $-1 -1 $-1 $204 $80 $201 $205 forward $50 $-1 #
coedge $-1 -1 $-1 $80 $204 $206 $207 forward $50 $-1 #
coedge $-1 -1 $-1 $138 $137 $80 $131 reversed $139 $-1 #
edge $-1 -1 $-1 $208 -101.59999999999999 $209 101.59999999999999 $130 $210 forward @7 unknown #
coedge $-1 -1 $-1 $82 $81 $211 $212 forward $34 $-1 #
coedge $-1 -1 $-1 $213 $214 $81 $134 reversed $198 $-1 #
edge $-1 -1 $-1 $141 -101.59999999999999 $215 101.59999999999999 $133 $216 forward @7 unknown #
coedge $-1 -1 $-1 $127 $217 $82 $136 reversed $78 $-1 #
edge $-1 -1 $-1 $218 -101.59999999999999 $140 101.59999999999999 $135 $219 forward @7 unknown #
coedge $-1 -1 $-1 $130 $83 $217 $220 forward $139 $-1 #
coedge $-1 -1 $-1 $83 $130 $213 $221 reversed $139 $-1 #
loop $-1 -1 $-1 $-1 $137 $197 #
vertex $-1 -1 $-1 $84 $222 #
vertex $-1 -1 $-1 $84 $223 #
straight-curve $-1 -1 $-1 101.59999999999999 0 90.754199999999997 0 1 0 I I #
model_id-kcp-attrib $-1 -1 $-1 $-1 $86 1 1021400373 1021400373 570294273 7 #
face $224 -1 $-1 $225 $226 $7 $-1 $227 reversed single #
loop $-1 -1 $-1 $-1 $228 $86 #
plane-surface $-1 -1 $-1 0 0 89.611199999999997 0 0 1 25.399999999999999 0 0 forward_v I I I I #
coedge $-1 -1 $-1 $229 $151 $153 $230 forward $87 $-1 #
coedge $-1 -1 $-1 $153 $89 $228 $231 reversed $55 $-1 #
coedge $-1 -1 $-1 $151 $229 $89 $150 reversed $87 $-1 #
edge $-1 -1 $-1 $155 0 $232 0.83999999999999997 $149 $233 forward @7 unknown #
coedge $-1 -1 $-1 $147 $149 $91 $152 forward $87 $-1 #
edge $-1 -1 $-1 $155 0 $154 3.1415926535897931 $91 $234 forward @7 unknown #
coedge $-1 -1 $-1 $92 $148 $147 $230 reversed $55 $-1 #
vertex $-1 -1 $-1 $152 $235 #
vertex $-1 -1 $-1 $152 $236 #
ellipse-curve $-1 -1 $-1 0 0 68.275199999999998 0 0 1 -76.199999999999989 0 0 1 I I #
ellipse-curve $-1 -1 $-1 0 0 68.275199999999998 0 0 1 -50.799999999999997 0 0 1 I I #
ellipse-curve $-1 -1 $-1 0 0 -68.275199999999998 0 0 1 -50.799999999999997 0 0 1 I I #
point $-1 -1 $-1 50.799999999999997 0 -68.275199999999998 #
point $-1 -1 $-1 50.799999999999997 0 68.275199999999998 #
face $-1 -1 $-1 $237 $192 $16 $-1 $238 reversed single #
loop $-1 -1 $-1 $-1 $239 $105 #
plane-surface $-1 -1 $-1 101.59999999999999 0 0 -1 0 0 0 0 1 forward_v I I I I #
coedge $-1 -1 $-1 $240 $241 $242 $243 reversed $106 $-1 #
coedge $-1 -1 $-1 $244 $107 $241 $245 forward $71 $-1 #
coedge $-1 -1 $-1 $107 $244 $246 $177 reversed $71 $-1 #
coedge $-1 -1 $-1 $247 $248 $107 $168 forward $249 $-1 #
edge $-1 -1 $-1 $250 -1.5707963267948966 $181 5.5511151231257827e-017 $167 $182 forward @7 unknown #
coedge $-1 -1 $-1 $109 $108 $251 $252 reversed $46 $-1 #
coedge $-1 -1 $-1 $253 $254 $255 $171 forward $256 $-1 #
edge $-1 -1 $-1 $257 -181.50839999999999 $175 0 $170 $258 forward @7 unknown #
coedge $-1 -1 $-1 $173 $110 $191 $195 forward $174 $-1 #
coedge $-1 -1 $-1 $110 $172 $253 $259 forward $174 $-1 #
loop $-1 -1 $-1 $-1 $110 $260 #
vertex $-1 -1 $-1 $261 $262 #
ellipse-curve $-1 -1 $-1 -3.5578936133393385e-032 5.6399329650957949e-015 90.754199999999997 0 0 -1 101.59999999999999 -5.6399329650957949e-015 0 1 I I #
edge $-1 -1 $-1 $181 -181.50839999999999 $186 0 $246 $263 forward @7 unknown #
coedge $-1 -1 $-1 $179 $113 $118 $189 forward $180 $-1 #
coedge $-1 -1 $-1 $113 $178 $264 $265 forward $180 $-1 #
loop $-1 -1 $-1 $-1 $113 $266 #
vertex $-1 -1 $-1 $267 $268 #
ellipse-curve $-1 -1 $-1 -3.5578936133393385e-032 5.6399329650957949e-015 -90.754199999999997 0 0 1 101.59999999999999 -5.6399329650957949e-015 0 1 I I #
coedge $-1 -1 $-1 $184 $115 $269 $270 forward $185 $-1 #
coedge $-1 -1 $-1 $115 $183 $117 $188 forward $185 $-1 #
loop $-1 -1 $-1 $-1 $115 $271 #
vertex $-1 -1 $-1 $270 $272 #
coedge $-1 -1 $-1 $118 $117 $273 $274 forward $120 $-1 #
edge $-1 -1 $-1 $275 -101.59999999999999 $122 3.5578936133393385e-032 $117 $276 forward @7 unknown #
edge $-1 -1 $-1 $121 -3.5578936133393385e-032 $277 101.59999999999999 $118 $278 forward @7 unknown #
coedge $-1 -1 $-1 $279 $119 $280 $281 reversed $192 $-1 #
coedge $-1 -1 $-1 $119 $279 $172 $195 reversed $192 $-1 #
loop $-1 -1 $-1 $-1 $119 $161 #
face $-1 -1 $-1 $282 $120 $16 $-1 $238 reversed single #
point $-1 -1 $-1 -3.5578936133393385e-032 101.59999999999999 -90.754199999999997 #
edge $-1 -1 $-1 $122 3.5578936133393385e-032 $283 101.59999999999999 $191 $276 forward @7 unknown #
point $-1 -1 $-1 -3.5578936133393385e-032 101.59999999999999 90.754199999999997 #
face $-1 -1 $-1 $-1 $139 $17 $-1 $284 reversed single #
loop $-1 -1 $-1 $-1 $213 $124 #
plane-surface $-1 -1 $-1 0 101.59999999999999 0 0 -1 0 0 0 -1 forward_v I I I I #
coedge $-1 -1 $-1 $285 $211 $214 $286 forward $125 $-1 #
coedge $-1 -1 $-1 $217 $127 $128 $205 reversed $78 $-1 #
coedge $-1 -1 $-1 $211 $285 $127 $203 reversed $125 $-1 #
edge $-1 -1 $-1 $218 -90.754199999999997 $287 90.754199999999997 $202 $288 forward @7 unknown #
coedge $-1 -1 $-1 $129 $128 $285 $289 forward $50 $-1 #
edge $-1 -1 $-1 $209 -101.59999999999999 $287 101.59999999999999 $201 $290 forward @7 unknown #
coedge $-1 -1 $-1 $214 $213 $129 $207 reversed $198 $-1 #
edge $-1 -1 $-1 $291 -101.59999999999999 $208 101.59999999999999 $206 $292 forward @7 unknown #
vertex $-1 -1 $-1 $131 $293 #
vertex $-1 -1 $-1 $220 $294 #
straight-curve $-1 -1 $-1 101.59999999999999 0 -90.754199999999997 0 -1 0 I I #
coedge $-1 -1 $-1 $200 $202 $132 $212 reversed $125 $-1 #
edge $-1 -1 $-1 $215 -101.59999999999999 $218 101.59999999999999 $211 $295 forward @7 unknown #
coedge $-1 -1 $-1 $206 $133 $138 $221 forward $198 $-1 #
coedge $-1 -1 $-1 $133 $206 $200 $286 reversed $198 $-1 #
vertex $-1 -1 $-1 $134 $296 #
straight-curve $-1 -1 $-1 0 101.59999999999999 90.754199999999997 -1 0 0 I I #
coedge $-1 -1 $-1 $135 $201 $137 $220 reversed $78 $-1 #
vertex $-1 -1 $-1 $212 $297 #
straight-curve $-1 -1 $-1 0 -101.59999999999999 90.754199999999997 1 0 0 I I #
edge $-1 -1 $-1 $140 -90.754199999999997 $209 90.754199999999997 $137 $298 forward @7 unknown #
edge $-1 -1 $-1 $141 -90.754199999999997 $208 90.754199999999997 $138 $299 forward @7 unknown #
point $-1 -1 $-1 101.59999999999999 -101.59999999999999 90.754199999999997 #
point $-1 -1 $-1 101.59999999999999 101.59999999999999 90.754199999999997 #
model_id-kcp-attrib $-1 -1 $-1 $-1 $144 1 1021400373 1021400373 570294273 8 #
face $300 -1 $-1 $301 $302 $7 $-1 $303 forward single #
loop $-1 -1 $-1 $101 $304 $144 #
plane-surface $-1 -1 $-1 0 0 -68.275199999999998 0 0 -1 -25.399999999999999 0 0 forward_v I I I I #
coedge $-1 -1 $-1 $305 $305 $148 $231 forward $145 $-1 #
coedge $-1 -1 $-1 $149 $147 $305 $306 reversed $87 $-1 #
edge $-1 -1 $-1 $154 0 $307 0.83999999999999997 $147 $308 forward @7 unknown #
edge $309 -1 $-1 $307 0 $232 3.1415926535897931 $228 $310 forward @7 unknown #
vertex $-1 -1 $-1 $306 $311 #
straight-curve $-1 -1 $-1 76.199999999999989 0 68.275199999999998 0 0 25.399999999999999 I I #
ellipse-curve $-1 -1 $-1 0 0 68.275199999999998 0 0 1 76.199999999999989 0 0 1 I I #
point $-1 -1 $-1 -76.199999999999989 0 68.275199999999998 #
point $-1 -1 $-1 76.199999999999989 0 68.275199999999998 #
face $-1 -1 $-1 $312 $313 $16 $-1 $314 reversed single #
plane-surface $-1 -1 $-1 0 101.59999999999999 0 0 -1 0 0 0 -1 forward_v I I I I #
coedge $-1 -1 $-1 $264 $269 $112 $177 reversed $162 $-1 #
coedge $-1 -1 $-1 $315 $164 $108 $171 forward $106 $-1 #
coedge $-1 -1 $-1 $164 $315 $316 $245 reversed $106 $-1 #
coedge $-1 -1 $-1 $317 $318 $164 $243 forward $319 $-1 #
edge $-1 -1 $-1 $257 -3.1415926535897931 $250 -1.5707963267948966 $242 $182 forward @7 unknown #
coedge $-1 -1 $-1 $166 $165 $320 $321 reversed $71 $-1 #
edge $-1 -1 $-1 $250 -181.50839999999999 $322 0 $316 $323 forward @7 unknown #
coedge $-1 -1 $-1 $324 $325 $239 $177 forward $326 $-1 #
coedge $-1 -1 $-1 $248 $167 $325 $267 forward $249 $-1 #
coedge $-1 -1 $-1 $167 $247 $327 $328 forward $249 $-1 #
loop $-1 -1 $-1 $-1 $167 $329 #
vertex $-1 -1 $-1 $330 $331 #
coedge $-1 -1 $-1 $332 $280 $169 $252 forward $333 $-1 #
edge $-1 -1 $-1 $121 1.5707963267948968 $257 3.1415926535897931 $251 $182 forward @7 unknown #
coedge $-1 -1 $-1 $334 $170 $173 $259 reversed $256 $-1 #
coedge $-1 -1 $-1 $170 $334 $332 $335 reversed $256 $-1 #
coedge $-1 -1 $-1 $336 $337 $240 $171 reversed $313 $-1 #
loop $-1 -1 $-1 $-1 $170 $338 #
vertex $-1 -1 $-1 $335 $339 #
straight-curve $-1 -1 $-1 -101.59999999999999 5.6399329650957949e-015 90.754199999999997 0 0 1 I I #
edge $-1 -1 $-1 $283 -101.59999999999999 $175 -5.6399329650957949e-015 $253 $340 forward @7 unknown #
face $-1 -1 $-1 $271 $174 $16 $-1 $341 forward single #
edge $-1 -1 $-1 $175 -5.6399329650957949e-015 $342 101.59999999999999 $337 $340 forward @7 unknown #
point $-1 -1 $-1 -101.59999999999999 5.6399329650957949e-015 90.754199999999997 #
straight-curve $-1 -1 $-1 101.59999999999999 5.6399329650957949e-015 90.754199999999997 0 0 1 I I #
coedge $-1 -1 $-1 $273 $239 $179 $265 reversed $162 $-1 #
edge $-1 -1 $-1 $277 -101.59999999999999 $181 -5.6399329650957949e-015 $264 $343 forward @7 unknown #
face $-1 -1 $-1 $344 $180 $16 $-1 $345 reversed single #
edge $-1 -1 $-1 $181 -5.6399329650957949e-015 $346 101.59999999999999 $325 $343 forward @7 unknown #
point $-1 -1 $-1 101.59999999999999 5.6399329650957949e-015 -90.754199999999997 #
coedge $-1 -1 $-1 $239 $273 $183 $270 reversed $162 $-1 #
edge $-1 -1 $-1 $186 5.6399329650957949e-015 $275 101.59999999999999 $269 $347 forward @7 unknown #
face $-1 -1 $-1 $348 $185 $16 $-1 $341 forward single #
point $-1 -1 $-1 101.59999999999999 5.6399329650957949e-015 90.754199999999997 #
coedge $-1 -1 $-1 $269 $264 $187 $274 reversed $162 $-1 #
edge $-1 -1 $-1 $275 -90.754199999999997 $277 90.754199999999997 $273 $349 forward @7 unknown #
vertex $-1 -1 $-1 $270 $350 #
straight-curve $-1 -1 $-1 0 101.59999999999999 90.754199999999997 -1 0 0 I I #
vertex $-1 -1 $-1 $265 $351 #
straight-curve $-1 -1 $-1 0 101.59999999999999 -90.754199999999997 1 0 0 I I #
coedge $-1 -1 $-1 $191 $190 $334 $352 reversed $192 $-1 #
coedge $-1 -1 $-1 $251 $332 $190 $281 forward $333 $-1 #
edge $-1 -1 $-1 $353 -101.59999999999999 $121 -3.5578936133393385e-032 $190 $278 forward @7 unknown #
face $-1 -1 $-1 $-1 $326 $16 $-1 $163 reversed single #
vertex $-1 -1 $-1 $195 $354 #
plane-surface $-1 -1 $-1 101.59999999999999 0 0 -1 0 0 0 0 1 forward_v I I I I #
coedge $-1 -1 $-1 $202 $200 $204 $289 reversed $125 $-1 #
edge $-1 -1 $-1 $215 -90.754199999999997 $291 90.754199999999997 $214 $355 forward @7 unknown #
vertex $-1 -1 $-1 $289 $356 #
straight-curve $-1 -1 $-1 -101.59999999999999 -101.59999999999999 0 0 0 -1 I I #
edge $-1 -1 $-1 $287 -101.59999999999999 $291 101.59999999999999 $285 $357 forward @7 unknown #
straight-curve $-1 -1 $-1 0 -101.59999999999999 -90.754199999999997 -1 0 0 I I #
vertex $-1 -1 $-1 $207 $358 #
straight-curve $-1 -1 $-1 0 101.59999999999999 -90.754199999999997 1 0 0 I I #
point $-1 -1 $-1 101.59999999999999 101.59999999999999 -90.754199999999997 #
point $-1 -1 $-1 101.59999999999999 -101.59999999999999 -90.754199999999997 #
straight-curve $-1 -1 $-1 -101.59999999999999 0 90.754199999999997 0 -1 0 I I #
point $-1 -1 $-1 -101.59999999999999 101.59999999999999 90.754199999999997 #
point $-1 -1 $-1 -101.59999999999999 -101.59999999999999 90.754199999999997 #
straight-curve $-1 -1 $-1 101.59999999999999 -101.59999999999999 0 0 0 -1 I I #
straight-curve $-1 -1 $-1 101.59999999999999 101.59999999999999 0 0 0 -1 I I #
model_id-kcp-attrib $-1 -1 $-1 $-1 $225 1 1021400373 1021400373 570294273 9 #
face $359 -1 $-1 $360 $361 $7 $-1 $362 forward single #
loop $-1 -1 $-1 $-1 $363 $225 #
cone-surface $-1 -1 $-1 0 0 -68.275199999999998 0 0 -1 -101.59999999999999 0 0 1 I I 0 1 101.59999999999999 forward I I I I #
coedge $-1 -1 $-1 $364 $364 $365 $366 reversed $226 $-1 #
coedge $-1 -1 $-1 $228 $228 $229 $306 forward $145 $-1 #
edge $367 -1 $-1 $232 0 $307 3.1415926535897931 $305 $368 forward @7 unknown #
vertex $-1 -1 $-1 $306 $369 #
straight-curve $-1 -1 $-1 -76.199999999999989 9.3315004161265141e-015 68.275199999999998 0 0 25.399999999999999 I I #
attrib_edge_convexity-kcp-attrib $-1 -1 $370 $-1 $231 1 #
ellipse-curve $-1 -1 $-1 2.8199664825478975e-015 5.6399329650957949e-015 89.611199999999997 0 0 1 -76.199999999999989 -5.6399329650957949e-015 0 1 I I #
point $-1 -1 $-1 76.199999999999989 0 89.611199999999997 #
face $-1 -1 $-1 $260 $371 $16 $-1 $341 forward single #
loop $-1 -1 $-1 $-1 $255 $237 #
plane-surface $-1 -1 $-1 -101.59999999999999 0 0 1 0 0 0 0 -1 forward_v I I I I #
coedge $-1 -1 $-1 $241 $240 $372 $373 reversed $106 $-1 #
coedge $-1 -1 $-1 $374 $375 $376 $245 forward $377 $-1 #
coedge $-1 -1 $-1 $318 $242 $375 $330 forward $319 $-1 #
coedge $-1 -1 $-1 $242 $317 $336 $378 forward $319 $-1 #
loop $-1 -1 $-1 $-1 $242 $379 #
coedge $-1 -1 $-1 $380 $381 $244 $321 forward $382 $-1 #
edge $-1 -1 $-1 $186 -5.5511151231257827e-017 $322 1.5707963267948966 $320 $176 forward @7 unknown #
vertex $-1 -1 $-1 $383 $384 #
straight-curve $-1 -1 $-1 -3.5578936133393385e-032 -101.59999999999999 90.754199999999997 0 0 1 I I #
coedge $-1 -1 $-1 $385 $246 $381 $386 reversed $326 $-1 #
coedge $-1 -1 $-1 $246 $385 $247 $267 reversed $326 $-1 #
loop $-1 -1 $-1 $-1 $246 $282 #
coedge $-1 -1 $-1 $387 $376 $248 $328 reversed $388 $-1 #
edge $-1 -1 $-1 $346 -101.59999999999999 $250 3.5578936133393385e-032 $327 $389 forward @7 unknown #
face $-1 -1 $-1 $266 $249 $16 $-1 $345 reversed single #
edge $-1 -1 $-1 $250 3.5578936133393385e-032 $390 101.59999999999999 $375 $389 forward @7 unknown #
point $-1 -1 $-1 -3.5578936133393385e-032 -101.59999999999999 -90.754199999999997 #
coedge $-1 -1 $-1 $280 $251 $254 $335 forward $333 $-1 #
loop $-1 -1 $-1 $-1 $251 $344 #
coedge $-1 -1 $-1 $254 $253 $279 $352 forward $256 $-1 #
edge $-1 -1 $-1 $257 5.6399329650957949e-015 $353 101.59999999999999 $254 $391 forward @7 unknown #
coedge $-1 -1 $-1 $392 $255 $318 $378 reversed $313 $-1 #
coedge $-1 -1 $-1 $255 $392 $393 $261 reversed $313 $-1 #
face $-1 -1 $-1 $193 $256 $16 $-1 $314 reversed single #
point $-1 -1 $-1 -101.59999999999999 5.6399329650957949e-015 -90.754199999999997 #
straight-curve $-1 -1 $-1 -101.59999999999999 0 90.754199999999997 0 -1 0 I I #
plane-surface $-1 -1 $-1 0 0 90.754199999999997 0 0 1 1 0 0 forward_v I I I I #
vertex $-1 -1 $-1 $261 $394 #
straight-curve $-1 -1 $-1 101.59999999999999 0 -90.754199999999997 0 -1 0 I I #
face $-1 -1 $-1 $395 $333 $16 $-1 $345 reversed single #
plane-surface $-1 -1 $-1 0 0 -90.754199999999997 0 0 1 1 0 0 forward_v I I I I #
vertex $-1 -1 $-1 $396 $397 #
straight-curve $-1 -1 $-1 101.59999999999999 0 90.754199999999997 0 1 0 I I #
face $-1 -1 $-1 $398 $382 $16 $-1 $341 forward single #
straight-curve $-1 -1 $-1 101.59999999999999 101.59999999999999 0 0 0 -1 I I #
point $-1 -1 $-1 101.59999999999999 101.59999999999999 90.754199999999997 #
point $-1 -1 $-1 101.59999999999999 101.59999999999999 -90.754199999999997 #
edge $-1 -1 $-1 $283 -90.754199999999997 $353 90.754199999999997 $279 $399 forward @7 unknown #
vertex $-1 -1 $-1 $281 $400 #
point $-1 -1 $-1 -101.59999999999999 101.59999999999999 90.754199999999997 #
straight-curve $-1 -1 $-1 -101.59999999999999 101.59999999999999 0 0 0 -1 I I #
point $-1 -1 $-1 -101.59999999999999 -101.59999999999999 -90.754199999999997 #
straight-curve $-1 -1 $-1 -101.59999999999999 0 -90.754199999999997 0 1 0 I I #
point $-1 -1 $-1 -101.59999999999999 101.59999999999999 -90.754199999999997 #
model_id-kcp-attrib $-1 -1 $-1 $-1 $301 1 1021400373 1021400373 570294273 10 #
face $401 -1 $-1 $-1 $402 $7 $-1 $403 forward single #
loop $-1 -1 $-1 $-1 $404 $301 #
cone-surface $-1 -1 $-1 0 0 -68.275199999999998 0 0 -1 -101.59999999999999 0 0 1 I I 0 1 101.59999999999999 forward I I I I #
coedge $-1 -1 $-1 $405 $365 $406 $407 forward $302 $-1 #
coedge $-1 -1 $-1 $304 $304 $408 $409 reversed $226 $-1 #
coedge $-1 -1 $-1 $363 $410 $304 $366 forward $302 $-1 #
edge $-1 -1 $-1 $411 0 $412 3.1415926535897931 $304 $413 forward @7 unknown #
attrib_edge_convexity-kcp-attrib $-1 -1 $414 $-1 $306 1 #
ellipse-curve $-1 -1 $-1 2.8199664825478975e-015 -5.6399329650957949e-015 89.611199999999997 0 0 1 76.199999999999989 5.6399329650957949e-015 0 1 I I #
point $-1 -1 $-1 -76.199999999999989 0 89.611199999999997 #
convexity-sys-attrib $-1 -1 $-1 $309 $231 #
loop $-1 -1 $-1 $-1 $372 $312 #
coedge $-1 -1 $-1 $393 $415 $315 $373 forward $371 $-1 #
edge $-1 -1 $-1 $322 1.5707963267948966 $175 3.1415926535897931 $372 $176 forward @7 unknown #
coedge $-1 -1 $-1 $416 $316 $415 $417 reversed $377 $-1 #
coedge $-1 -1 $-1 $316 $416 $317 $330 reversed $377 $-1 #
coedge $-1 -1 $-1 $327 $418 $165 $245 reversed $388 $-1 #
loop $-1 -1 $-1 $-1 $316 $395 #
edge $-1 -1 $-1 $390 -101.59999999999999 $257 5.6399329650957949e-015 $336 $391 forward @7 unknown #
face $-1 -1 $-1 $329 $319 $16 $-1 $345 reversed single #
coedge $-1 -1 $-1 $381 $320 $418 $383 forward $382 $-1 #
coedge $-1 -1 $-1 $320 $380 $324 $386 forward $382 $-1 #
loop $-1 -1 $-1 $-1 $320 $348 #
edge $-1 -1 $-1 $322 -3.5578936133393385e-032 $419 101.59999999999999 $418 $420 forward @7 unknown #
point $-1 -1 $-1 -3.5578936133393385e-032 -101.59999999999999 90.754199999999997 #
coedge $-1 -1 $-1 $325 $324 $387 $396 forward $326 $-1 #
edge $-1 -1 $-1 $419 -101.59999999999999 $186 5.6399329650957949e-015 $324 $347 forward @7 unknown #
coedge $-1 -1 $-1 $418 $327 $385 $396 reversed $388 $-1 #
loop $-1 -1 $-1 $-1 $376 $398 #
straight-curve $-1 -1 $-1 0 -101.59999999999999 -90.754199999999997 -1 0 0 I I #
vertex $-1 -1 $-1 $378 $421 #
straight-curve $-1 -1 $-1 -101.59999999999999 0 -90.754199999999997 0 1 0 I I #
coedge $-1 -1 $-1 $337 $336 $416 $422 reversed $313 $-1 #
coedge $-1 -1 $-1 $415 $372 $337 $261 forward $371 $-1 #
point $-1 -1 $-1 -101.59999999999999 -101.59999999999999 90.754199999999997 #
face $-1 -1 $-1 $338 $377 $16 $-1 $423 reversed single #
edge $-1 -1 $-1 $419 -90.754199999999997 $346 90.754199999999997 $385 $424 forward @7 unknown #
point $-1 -1 $-1 101.59999999999999 -101.59999999999999 -90.754199999999997 #
face $-1 -1 $-1 $379 $388 $16 $-1 $423 reversed single #
straight-curve $-1 -1 $-1 -101.59999999999999 101.59999999999999 0 0 0 -1 I I #
point $-1 -1 $-1 -101.59999999999999 101.59999999999999 -90.754199999999997 #
model_id-kcp-attrib $-1 -1 $-1 $-1 $360 1 1021400373 1021400373 570294273 11 #
loop $-1 -1 $-1 $-1 $425 $360 #
plane-surface $-1 -1 $-1 0 0 -91.897199999999998 0 0 -1 -25.399999999999999 0 0 forward_v I I I I #
coedge $-1 -1 $-1 $426 $408 $410 $427 forward $361 $-1 #
coedge $-1 -1 $-1 $410 $363 $425 $428 reversed $302 $-1 #
coedge $-1 -1 $-1 $408 $426 $363 $407 reversed $361 $-1 #
edge $-1 -1 $-1 $412 0 $429 0.93000000000000005 $406 $430 forward @7 unknown #
coedge $-1 -1 $-1 $404 $406 $364 $409 forward $361 $-1 #
edge $-1 -1 $-1 $412 0 $411 3.1415926535897931 $364 $431 forward @7 unknown #
coedge $-1 -1 $-1 $365 $405 $404 $427 reversed $302 $-1 #
vertex $-1 -1 $-1 $409 $432 #
vertex $-1 -1 $-1 $409 $433 #
ellipse-curve $-1 -1 $-1 0 0 -68.275199999999998 0 0 -1 101.59999999999999 0 0 1 I I #
convexity-sys-attrib $-1 -1 $-1 $367 $306 #
coedge $-1 -1 $-1 $372 $393 $374 $417 forward $371 $-1 #
coedge $-1 -1 $-1 $375 $374 $392 $422 forward $377 $-1 #
edge $-1 -1 $-1 $342 -101.59999999999999 $322 -3.5578936133393385e-032 $374 $420 forward @7 unknown #
coedge $-1 -1 $-1 $376 $387 $380 $383 reversed $388 $-1 #
vertex $-1 -1 $-1 $386 $434 #
straight-curve $-1 -1 $-1 0 -101.59999999999999 90.754199999999997 1 0 0 I I #
point $-1 -1 $-1 -101.59999999999999 -101.59999999999999 -90.754199999999997 #
edge $-1 -1 $-1 $342 -90.754199999999997 $390 90.754199999999997 $392 $435 forward @7 unknown #
plane-surface $-1 -1 $-1 0 -101.59999999999999 0 0 1 0 0 0 1 forward_v I I I I #
straight-curve $-1 -1 $-1 101.59999999999999 -101.59999999999999 0 0 0 -1 I I #
coedge $-1 -1 $-1 $436 $436 $405 $428 forward $402 $-1 #
coedge $-1 -1 $-1 $406 $404 $436 $437 reversed $361 $-1 #
edge $-1 -1 $-1 $411 0 $438 0.93000000000000005 $404 $439 forward @7 unknown #
edge $-1 -1 $-1 $438 0 $429 3.1415926535897931 $425 $440 forward @7 unknown #
vertex $-1 -1 $-1 $437 $441 #
straight-curve $-1 -1 $-1 -101.59999999999999 0 -68.275199999999998 0 0 -25.399999999999999 I I #
ellipse-curve $-1 -1 $-1 0 0 -68.275199999999998 0 0 -1 -101.59999999999999 0 0 1 I I #
point $-1 -1 $-1 101.59999999999999 0 -68.275199999999998 #
point $-1 -1 $-1 -101.59999999999999 0 -68.275199999999998 #
point $-1 -1 $-1 101.59999999999999 -101.59999999999999 90.754199999999997 #
straight-curve $-1 -1 $-1 -101.59999999999999 -101.59999999999999 0 0 0 -1 I I #
coedge $-1 -1 $-1 $425 $425 $426 $437 forward $402 $-1 #
edge $-1 -1 $-1 $429 0 $438 3.1415926535897931 $436 $442 forward @7 unknown #
vertex $-1 -1 $-1 $437 $443 #
straight-curve $-1 -1 $-1 101.59999999999999 1.2442000554835353e-014 -68.275199999999998 0 0 -25.399999999999999 I I #
ellipse-curve $-1 -1 $-1 -5.6399329650957949e-015 5.6399329650957949e-015 -91.897199999999998 0 0 -1 101.59999999999999 -5.6399329650957949e-015 0 1 I I #
point $-1 -1 $-1 -101.59999999999999 0 -91.897199999999998 #
ellipse-curve $-1 -1 $-1 2.8199664825478975e-015 0 -91.897199999999998 0 0 -1 -101.59999999999999 0 0 1 I I #
point $-1 -1 $-1 101.59999999999999 0 -91.897199999999998 #
End-of-ACIS-data 