600 0 1 0           
116 GICL ACIS Healer - Source: /gicl/data5/repository/NIST/Manfred_Osti/suitcase/adaptnipple1/adaptnipple1.prt.sat - 6 0 18 ACIS 6.0.3 Solaris 24 Sun Apr 14 00:36:44 2002 
1 9.999999999999999547e-07 1.000000000000000036e-10 
body $-1 $1 $-1 $-1 #
lump $-1 $-1 $2 $0 #
shell $-1 $-1 $-1 $3 $-1 $1 #
face $-1 $4 $5 $2 $-1 $6 forward single #
face $-1 $7 $8 $2 $-1 $9 forward single #
loop $-1 $-1 $10 $3 #
cone-surface $-1 0 0 -68.27519999999999811 0 0 1 50.79999999999999716 0 0 1 I I 0 1 50.79999999999999716 forward I I I I #
face $-1 $11 $12 $2 $-1 $13 reversed single #
loop $-1 $-1 $14 $4 #
cone-surface $-1 0 0 -68.27519999999999811 0 0 1 50.79999999999999716 0 0 1 I I 0 1 50.79999999999999716 forward I I I I #
coedge $-1 $15 $16 $17 $18 forward $5 $-1 #
face $-1 $19 $20 $2 $-1 $21 forward single #
loop $-1 $22 $23 $7 #
plane-surface $-1 0 0 68.27519999999999811 0 0 1 25.39999999999999858 0 0 forward_v I I I I #
coedge $-1 $24 $25 $26 $27 forward $8 $-1 #
coedge $-1 $26 $10 $28 $29 reversed $5 $-1 #
coedge $-1 $10 $26 $30 $31 forward $5 $-1 #
coedge $-1 $25 $24 $10 $18 reversed $8 $-1 #
edge $-1 $32 0 $33 5.376000000000000334 $10 $34 forward 7 unknown #
face $-1 $35 $36 $2 $-1 $37 forward single #
loop $-1 $-1 $38 $11 #
cone-surface $-1 0 0 68.27519999999999811 0 0 1 76.19999999999998863 0 0 1 I I 0 1 76.19999999999998863 forward I I I I #
loop $-1 $-1 $39 $7 #
coedge $-1 $40 $40 $41 $42 reversed $12 $-1 #
coedge $-1 $17 $14 $39 $43 reversed $8 $-1 #
coedge $-1 $14 $17 $44 $45 forward $8 $-1 #
coedge $-1 $16 $15 $14 $27 reversed $5 $-1 #
edge $-1 $46 0 $47 5.376000000000000334 $26 $48 forward 7 unknown #
coedge $-1 $39 $39 $15 $29 forward $22 $-1 #
edge $-1 $47 0 $33 3.141592653589793116 $15 $49 forward 7 unknown #
coedge $-1 $44 $44 $16 $31 reversed $50 $-1 #
edge $-1 $46 0 $32 3.141592653589793116 $16 $51 forward 7 unknown #
vertex $-1 $31 $52 #
vertex $-1 $29 $53 #
straight-curve $-1 -50.79999999999999716 6.221000277417676314e-15 -68.27519999999999811 0 0 25.39999999999999858 I I #
face $-1 $54 $55 $2 $-1 $56 forward single #
loop $-1 $-1 $57 $19 #
cone-surface $-1 0 0 68.27519999999999811 0 0 1 76.19999999999998863 0 0 1 I I 0 1 76.19999999999998863 forward I I I I #
coedge $-1 $58 $41 $59 $60 forward $20 $-1 #
coedge $-1 $28 $28 $24 $43 forward $22 $-1 #
coedge $-1 $23 $23 $61 $62 reversed $12 $-1 #
coedge $-1 $38 $63 $23 $42 forward $20 $-1 #
edge $-1 $64 0 $65 3.141592653589793116 $23 $66 forward 7 unknown #
edge $-1 $33 0 $47 3.141592653589793116 $24 $67 forward 7 unknown #
coedge $-1 $30 $30 $25 $45 reversed $50 $-1 #
edge $-1 $32 0 $46 3.141592653589793116 $25 $68 forward 7 unknown #
vertex $-1 $31 $69 #
vertex $-1 $27 $70 #
straight-curve $-1 50.79999999999999716 0 -68.27519999999999811 0 0 25.39999999999999858 I I #
ellipse-curve $-1 0 0 68.27519999999999811 0 0 1 50.79999999999999716 0 0 1 I I #
loop $-1 $-1 $44 $54 #
ellipse-curve $-1 0 0 -68.27519999999999811 0 0 1 50.79999999999999716 0 0 1 I I #
point $-1 -50.79999999999999716 0 -68.27519999999999811 #
point $-1 -50.79999999999999716 0 68.27519999999999811 #
face $-1 $71 $72 $2 $-1 $73 reversed single #
loop $-1 $-1 $74 $35 #
plane-surface $-1 0 0 89.61119999999999663 0 0 1 25.39999999999999858 0 0 forward_v I I I I #
coedge $-1 $75 $61 $63 $76 forward $36 $-1 #
coedge $-1 $63 $38 $74 $77 reversed $20 $-1 #
coedge $-1 $61 $75 $38 $60 reversed $36 $-1 #
edge $-1 $65 0 $78 0.8399999999999999689 $59 $79 forward 7 unknown #
coedge $-1 $57 $59 $40 $62 forward $36 $-1 #
edge $-1 $65 0 $64 3.141592653589793116 $40 $80 forward 7 unknown #
coedge $-1 $41 $58 $57 $76 reversed $20 $-1 #
vertex $-1 $62 $81 #
vertex $-1 $62 $82 #
ellipse-curve $-1 0 0 68.27519999999999811 0 0 1 -76.19999999999998863 0 0 1 I I #
ellipse-curve $-1 0 0 68.27519999999999811 0 0 1 -50.79999999999999716 0 0 1 I I #
ellipse-curve $-1 0 0 -68.27519999999999811 0 0 1 -50.79999999999999716 0 0 1 I I #
point $-1 50.79999999999999716 0 -68.27519999999999811 #
point $-1 50.79999999999999716 0 68.27519999999999811 #
face $-1 $83 $84 $2 $-1 $85 forward single #
loop $-1 $50 $86 $54 #
plane-surface $-1 0 0 -68.27519999999999811 0 0 -1 -25.39999999999999858 0 0 forward_v I I I I #
coedge $-1 $87 $87 $58 $77 forward $55 $-1 #
coedge $-1 $59 $57 $87 $88 reversed $36 $-1 #
edge $-1 $64 0 $89 0.8399999999999999689 $57 $90 forward 7 unknown #
edge $-1 $89 0 $78 3.141592653589793116 $74 $91 forward 7 unknown #
vertex $-1 $88 $92 #
straight-curve $-1 76.19999999999998863 0 68.27519999999999811 0 0 25.39999999999999858 I I #
ellipse-curve $-1 0 0 68.27519999999999811 0 0 1 76.19999999999998863 0 0 1 I I #
point $-1 -76.19999999999998863 0 68.27519999999999811 #
point $-1 76.19999999999998863 0 68.27519999999999811 #
face $-1 $93 $94 $2 $-1 $95 forward single #
loop $-1 $-1 $96 $71 #
cone-surface $-1 0 0 -68.27519999999999811 0 0 -1 -101.5999999999999943 0 0 1 I I 0 1 101.5999999999999943 forward I I I I #
coedge $-1 $97 $97 $98 $99 reversed $72 $-1 #
coedge $-1 $74 $74 $75 $88 forward $55 $-1 #
edge $-1 $78 0 $89 3.141592653589793116 $87 $100 forward 7 unknown #
vertex $-1 $88 $101 #
straight-curve $-1 -76.19999999999998863 9.331500416126514076e-15 68.27519999999999811 0 0 25.39999999999999858 I I #
ellipse-curve $-1 2.819966482547897455e-15 5.63993296509579491e-15 89.61119999999999663 0 0 1 -76.19999999999998863 -5.63993296509579491e-15 0 1 I I #
point $-1 76.19999999999998863 0 89.61119999999999663 #
face $-1 $-1 $102 $2 $-1 $103 forward single #
loop $-1 $-1 $104 $83 #
cone-surface $-1 0 0 -68.27519999999999811 0 0 -1 -101.5999999999999943 0 0 1 I I 0 1 101.5999999999999943 forward I I I I #
coedge $-1 $105 $98 $106 $107 forward $84 $-1 #
coedge $-1 $86 $86 $108 $109 reversed $72 $-1 #
coedge $-1 $96 $110 $86 $99 forward $84 $-1 #
edge $-1 $111 0 $112 3.141592653589793116 $86 $113 forward 7 unknown #
ellipse-curve $-1 2.819966482547897455e-15 -5.63993296509579491e-15 89.61119999999999663 0 0 1 76.19999999999998863 5.63993296509579491e-15 0 1 I I #
point $-1 -76.19999999999998863 0 89.61119999999999663 #
loop $-1 $-1 $114 $93 #
plane-surface $-1 0 0 -91.897199999999998 0 0 -1 -25.39999999999999858 0 0 forward_v I I I I #
coedge $-1 $115 $108 $110 $116 forward $94 $-1 #
coedge $-1 $110 $96 $114 $117 reversed $84 $-1 #
coedge $-1 $108 $115 $96 $107 reversed $94 $-1 #
edge $-1 $112 0 $118 0.9300000000000000488 $106 $119 forward 7 unknown #
coedge $-1 $104 $106 $97 $109 forward $94 $-1 #
edge $-1 $112 0 $111 3.141592653589793116 $97 $120 forward 7 unknown #
coedge $-1 $98 $105 $104 $116 reversed $84 $-1 #
vertex $-1 $109 $121 #
vertex $-1 $109 $122 #
ellipse-curve $-1 0 0 -68.27519999999999811 0 0 -1 101.5999999999999943 0 0 1 I I #
coedge $-1 $123 $123 $105 $117 forward $102 $-1 #
coedge $-1 $106 $104 $123 $124 reversed $94 $-1 #
edge $-1 $111 0 $125 0.9300000000000000488 $104 $126 forward 7 unknown #
edge $-1 $125 0 $118 3.141592653589793116 $114 $127 forward 7 unknown #
vertex $-1 $124 $128 #
straight-curve $-1 -101.5999999999999943 0 -68.27519999999999811 0 0 -25.39999999999999858 I I #
ellipse-curve $-1 0 0 -68.27519999999999811 0 0 -1 -101.5999999999999943 0 0 1 I I #
point $-1 101.5999999999999943 0 -68.27519999999999811 #
point $-1 -101.5999999999999943 0 -68.27519999999999811 #
coedge $-1 $114 $114 $115 $124 forward $102 $-1 #
edge $-1 $118 0 $125 3.141592653589793116 $123 $129 forward 7 unknown #
vertex $-1 $124 $130 #
straight-curve $-1 101.5999999999999943 1.244200055483535263e-14 -68.27519999999999811 0 0 -25.39999999999999858 I I #
ellipse-curve $-1 -5.63993296509579491e-15 5.63993296509579491e-15 -91.897199999999998 0 0 -1 101.5999999999999943 -5.63993296509579491e-15 0 1 I I #
point $-1 -101.5999999999999943 0 -91.897199999999998 #
ellipse-curve $-1 2.819966482547897455e-15 0 -91.897199999999998 0 0 -1 -101.5999999999999943 0 0 1 I I #
point $-1 101.5999999999999943 0 -91.897199999999998 #
End-of-ACIS-data 