600 0 2 0           
24 FBMach with ACIS - 6.0.3 13 ACIS 6.0.3 NT 24 Tue May 22 15:33:54 2001 
1 9.9999999999999995e-007 1e-010 
body $2 $3 $-1 $4 #
bdycol-kcp $-1 1 2 $5 $6 #
model_id-kcp-attrib $-1 $-1 $-1 $0 1 990560033 40 -869793791 1 #
lump $-1 $-1 $7 $0 #
transform $-1 1 0 0 0 1 0 0 0 1 0 0 0 1 no_rotate no_reflect no_shear #
body $8 $9 $-1 $10 #
body $11 $12 $-1 $13 #
shell $-1 $-1 $-1 $14 $-1 $3 #
model_id-kcp-attrib $-1 $-1 $-1 $5 1 990560033 50 -869138430 1 #
lump $-1 $-1 $15 $5 #
transform $-1 1 0 0 0 1 0 0 0 1 0 0 -0.044999999999999929 1 no_rotate no_reflect no_shear #
rgb_color-st-attrib $-1 $16 $-1 $6 0.5 1 1 #
lump $-1 $-1 $17 $6 #
transform $-1 1 0 0 0 1 0 0 0 1 0 0 -0.044999999999999929 1 no_rotate no_reflect no_shear #
face $18 $19 $20 $7 $-1 $21 forward single #
shell $-1 $-1 $-1 $22 $-1 $9 #
model_id-kcp-attrib $-1 $-1 $11 $6 1 990560033 80 -867172349 1 #
shell $-1 $-1 $-1 $23 $-1 $12 #
model_id-kcp-attrib $-1 $-1 $-1 $14 1 990560033 40 -869793791 2 #
face $24 $25 $26 $7 $-1 $27 reversed single #
loop $-1 $28 $29 $14 #
cone-surface $-1 0 0 -2.6880000000000002 0 0 1 2 0 0 1 I I 0 1 2 forward I I I I #
face $30 $31 $32 $15 $-1 $33 forward single #
face $-1 $34 $35 $17 $-1 $36 reversed single #
model_id-kcp-attrib $-1 $-1 $-1 $19 1 990560033 40 -869793791 3 #
face $37 $38 $39 $7 $-1 $40 forward single #
loop $-1 $41 $42 $19 #
plane-surface $-1 0 0 2.6880000000000002 0 0 1 1 0 0 forward_v I I I I #
loop $-1 $-1 $43 $14 #
coedge $-1 $29 $29 $44 $45 forward $20 $-1 #
model_id-kcp-attrib $-1 $-1 $-1 $22 1 990560033 50 -869138430 2 #
face $46 $47 $48 $15 $-1 $49 reversed single #
loop $-1 $-1 $50 $22 #
plane-surface $-1 0 0 3.573 0 0 1 1 0 0 forward_v I I I I #
face $-1 $51 $52 $17 $-1 $36 reversed single #
loop $-1 $-1 $53 $23 #
cone-surface $-1 -4.4989821654664123e-032 0 3.573 0 0 1 4 4.898425415289509e-016 0 1 I I 0 1 4 forward I I I I #
model_id-kcp-attrib $-1 $54 $-1 $25 1 990560033 40 -869793791 9 #
face $55 $56 $57 $7 $-1 $58 forward single #
loop $-1 $-1 $59 $25 #
plane-surface $-1 0 0 3.528 0 0 1 1 0 0 forward_v I I I I #
loop $-1 $-1 $44 $19 #
coedge $-1 $42 $42 $60 $61 forward $26 $-1 #
coedge $-1 $43 $43 $62 $63 reversed $28 $-1 #
coedge $-1 $44 $44 $29 $45 reversed $41 $-1 #
edge $-1 $64 -3.1415926535897931 $64 3.1415926535897931 $44 $65 forward 7 unknown #
model_id-kcp-attrib $-1 $-1 $-1 $31 1 990560033 50 -869138430 3 #
face $-1 $66 $67 $15 $-1 $68 reversed single #
loop $-1 $-1 $69 $31 #
plane-surface $-1 0 0 -3.573 0 0 1 1 0 0 forward_v I I I I #
coedge $-1 $70 $71 $72 $73 forward $32 $-1 #
face $-1 $74 $75 $17 $-1 $36 reversed single #
loop $-1 $-1 $76 $34 #
coedge $-1 $77 $78 $79 $80 reversed $35 $-1 #
model_id-kcp-attrib $-1 $-1 $37 $25 1 990560033 40 -869793791 4 #
model_id-kcp-attrib $-1 $-1 $-1 $38 1 990560033 40 -869793791 5 #
face $81 $82 $83 $7 $-1 $84 reversed single #
loop $-1 $85 $86 $38 #
cone-surface $-1 0 0 2.6880000000000002 0 0 1 3 0 0 1 I I 0 1 3 forward I I I I #
coedge $-1 $59 $59 $86 $87 reversed $39 $-1 #
coedge $-1 $60 $60 $42 $61 reversed $85 $-1 #
edge $-1 $88 -3.1415926535897931 $88 3.1415926535897931 $60 $89 forward 7 unknown #
coedge $-1 $62 $62 $43 $63 forward $90 $-1 #
edge $-1 $91 -3.1415926535897931 $91 3.1415926535897931 $62 $92 forward 7 unknown #
vertex $-1 $45 $93 #
ellipse-curve $-1 0 0 2.6880000000000002 0 0 -1 -2 0 0 1 I I #
face $-1 $94 $95 $15 $-1 $96 reversed single #
loop $-1 $-1 $97 $47 #
plane-surface $-1 0 -4 0 0 1 0 0 0 1 forward_v I I I I #
coedge $-1 $98 $99 $100 $101 forward $48 $-1 #
coedge $-1 $102 $50 $103 $104 forward $32 $-1 #
coedge $-1 $50 $102 $105 $106 forward $32 $-1 #
coedge $-1 $107 $108 $50 $73 reversed $109 $-1 #
edge $-1 $110 -4 $111 4 $72 $112 forward 7 unknown #
face $-1 $113 $114 $17 $-1 $36 reversed single #
loop $-1 $-1 $115 $51 #
coedge $-1 $116 $117 $118 $119 reversed $52 $-1 #
coedge $-1 $120 $53 $121 $122 reversed $35 $-1 #
coedge $-1 $53 $120 $123 $124 reversed $35 $-1 #
coedge $-1 $125 $126 $127 $80 forward $128 $-1 #
edge $-1 $129 -7.1459999999999999 $130 0 $79 $131 forward 7 unknown #
model_id-kcp-attrib $-1 $-1 $-1 $56 1 990560033 40 -869793791 6 #
face $132 $133 $134 $7 $-1 $135 forward single #
loop $-1 $90 $136 $56 #
plane-surface $-1 0 0 -2.6880000000000002 0 0 -1 -1 0 0 forward_v I I I I #
loop $-1 $-1 $60 $38 #
coedge $-1 $86 $86 $59 $87 forward $57 $-1 #
edge $137 $138 0 $138 6.2831853071795862 $86 $139 forward 7 unknown #
vertex $-1 $61 $140 #
ellipse-curve $-1 0 0 2.6880000000000002 0 0 -1 -3 0 0 1 I I #
loop $-1 $-1 $62 $56 #
vertex $-1 $63 $141 #
ellipse-curve $-1 0 0 -2.6880000000000002 0 0 -1 -2 0 0 1 I I #
point $-1 2 0 2.6880000000000002 #
face $-1 $142 $143 $15 $-1 $144 reversed single #
loop $-1 $-1 $145 $66 #
plane-surface $-1 -4 0 0 1 0 0 0 0 -1 forward_v I I I I #
coedge $-1 $146 $105 $147 $148 forward $67 $-1 #
coedge $-1 $149 $69 $146 $150 forward $48 $-1 #
coedge $-1 $69 $149 $151 $152 forward $48 $-1 #
coedge $-1 $108 $107 $69 $101 reversed $109 $-1 #
edge $-1 $153 -4 $154 4 $100 $155 forward 7 unknown #
coedge $-1 $71 $70 $156 $157 forward $32 $-1 #
coedge $-1 $158 $159 $70 $104 reversed $143 $-1 #
edge $-1 $111 -4 $160 4 $103 $161 forward 7 unknown #
coedge $-1 $97 $162 $71 $106 reversed $67 $-1 #
edge $-1 $163 -4 $110 4 $105 $164 forward 7 unknown #
coedge $-1 $100 $72 $162 $165 forward $109 $-1 #
coedge $-1 $72 $100 $158 $166 reversed $109 $-1 #
loop $-1 $-1 $107 $142 #
vertex $-1 $73 $167 #
vertex $-1 $73 $168 #
straight-curve $-1 4 0 3.573 0 1 0 I I #
face $-1 $169 $170 $17 $-1 $171 reversed single #
loop $-1 $-1 $172 $74 #
coedge $-1 $173 $174 $175 $176 reversed $75 $-1 #
coedge $-1 $177 $76 $178 $179 reversed $52 $-1 #
coedge $-1 $76 $177 $53 $80 forward $52 $-1 #
coedge $-1 $180 $181 $76 $119 forward $182 $-1 #
edge $-1 $183 -3.1415926535897931 $130 -1.5707963267948966 $118 $184 forward 7 unknown #
coedge $-1 $78 $77 $174 $185 forward $35 $-1 #
coedge $-1 $186 $187 $77 $122 forward $188 $-1 #
edge $-1 $189 -1.2246063538223773e-016 $129 1.5707963267948966 $121 $190 forward 7 unknown #
coedge $-1 $191 $192 $78 $124 forward $193 $-1 #
edge $-1 $130 -1.5707963267948966 $194 1.2246063538223773e-016 $123 $184 forward 7 unknown #
coedge $-1 $195 $79 $192 $196 reversed $128 $-1 #
coedge $-1 $79 $195 $186 $197 reversed $128 $-1 #
coedge $-1 $198 $199 $117 $80 reversed $200 $-1 #
loop $-1 $-1 $79 $201 #
vertex $-1 $197 $202 #
vertex $-1 $203 $204 #
straight-curve $-1 -4.4989821654664123e-032 4 3.573 0 0 1 I I #
model_id-kcp-attrib $-1 $-1 $-1 $82 1 990560033 40 -869793791 7 #
face $205 $-1 $206 $7 $-1 $207 forward single #
loop $-1 $-1 $208 $82 #
plane-surface $-1 0 0 -3.6179999999999999 0 0 -1 -1 0 0 forward_v I I I I #
coedge $-1 $136 $136 $209 $210 forward $83 $-1 #
attrib_edge_convexity-kcp-attrib $-1 $211 $-1 $87 1 #
vertex $-1 $87 $212 #
ellipse-curve $-1 0 0 3.528 0 0 -1 3 0 0 1 I I #
point $-1 3 0 2.6880000000000002 #
point $-1 2 0 -2.6880000000000002 #
face $-1 $-1 $109 $15 $-1 $213 reversed single #
loop $-1 $-1 $158 $94 #
plane-surface $-1 0 4 0 0 -1 0 0 0 -1 forward_v I I I I #
coedge $-1 $214 $156 $159 $215 forward $95 $-1 #
coedge $-1 $162 $97 $98 $150 reversed $67 $-1 #
coedge $-1 $156 $214 $97 $148 reversed $95 $-1 #
edge $-1 $163 -3.573 $216 3.573 $147 $217 forward 7 unknown #
coedge $-1 $99 $98 $214 $218 forward $48 $-1 #
edge $-1 $154 -4 $216 4 $146 $219 forward 7 unknown #
coedge $-1 $159 $158 $99 $152 reversed $143 $-1 #
edge $-1 $220 -4 $153 4 $151 $221 forward 7 unknown #
vertex $-1 $101 $222 #
vertex $-1 $165 $223 #
straight-curve $-1 4 0 -3.573 0 -1 0 I I #
coedge $-1 $145 $147 $102 $157 reversed $95 $-1 #
edge $-1 $160 -4 $163 4 $156 $224 forward 7 unknown #
coedge $-1 $151 $103 $108 $166 forward $143 $-1 #
coedge $-1 $103 $151 $145 $215 reversed $143 $-1 #
vertex $-1 $104 $225 #
straight-curve $-1 0 4 3.573 -1 0 0 I I #
coedge $-1 $105 $146 $107 $165 reversed $67 $-1 #
vertex $-1 $157 $226 #
straight-curve $-1 0 -4 3.573 1 0 0 I I #
edge $-1 $110 -3.573 $154 3.573 $107 $227 forward 7 unknown #
edge $-1 $111 -3.573 $153 3.573 $108 $228 forward 7 unknown #
point $-1 4 -4 3.573 #
point $-1 4 4 3.573 #
face $-1 $229 $200 $17 $-1 $230 reversed single #
loop $-1 $-1 $231 $113 #
plane-surface $-1 4 0 0 -1 0 0 0 0 1 forward_v I I I I #
coedge $-1 $232 $233 $234 $235 reversed $114 $-1 #
coedge $-1 $236 $115 $233 $237 forward $75 $-1 #
coedge $-1 $115 $236 $238 $185 reversed $75 $-1 #
coedge $-1 $239 $240 $115 $176 forward $241 $-1 #
edge $-1 $242 -1.5707963267948968 $189 -1.2246063538223773e-016 $175 $190 forward 7 unknown #
coedge $-1 $117 $116 $243 $244 reversed $52 $-1 #
coedge $-1 $245 $246 $247 $179 forward $248 $-1 #
edge $-1 $249 -7.1459999999999999 $183 0 $178 $250 forward 7 unknown #
coedge $-1 $181 $118 $199 $203 forward $182 $-1 #
coedge $-1 $118 $180 $245 $251 forward $182 $-1 #
loop $-1 $-1 $118 $252 #
vertex $-1 $253 $254 #
ellipse-curve $-1 -4.4989821654664123e-032 0 3.573 0 0 -1 4 4.898425415289509e-016 0 1 I I #
edge $-1 $189 -7.1459999999999999 $194 0 $238 $255 forward 7 unknown #
coedge $-1 $187 $121 $126 $197 forward $188 $-1 #
coedge $-1 $121 $186 $256 $257 forward $188 $-1 #
loop $-1 $-1 $121 $258 #
vertex $-1 $259 $260 #
ellipse-curve $-1 -4.4989821654664123e-032 0 -3.573 0 0 1 4 4.898425415289509e-016 0 1 I I #
coedge $-1 $192 $123 $261 $262 forward $193 $-1 #
coedge $-1 $123 $191 $125 $196 forward $193 $-1 #
loop $-1 $-1 $123 $263 #
vertex $-1 $262 $264 #
coedge $-1 $126 $125 $265 $266 forward $128 $-1 #
edge $-1 $267 -4 $130 4.4989821654664123e-032 $125 $268 forward 7 unknown #
edge $-1 $129 -4.4989821654664123e-032 $269 4 $126 $270 forward 7 unknown #
coedge $-1 $271 $127 $272 $273 reversed $200 $-1 #
coedge $-1 $127 $271 $180 $203 reversed $200 $-1 #
loop $-1 $-1 $127 $169 #
face $-1 $274 $128 $17 $-1 $230 reversed single #
point $-1 -4.4989821654664123e-032 4 -3.573 #
edge $-1 $130 4.4989821654664123e-032 $275 4 $199 $268 forward 7 unknown #
point $-1 -4.4989821654664123e-032 4 3.573 #
model_id-kcp-attrib $-1 $-1 $-1 $133 1 990560033 40 -869793791 8 #
loop $-1 $276 $277 $133 #
cone-surface $-1 0 0 -2.6880000000000002 0 0 -1 -4 0 0 1 I I 0 1 4 forward I I I I #
coedge $-1 $208 $208 $277 $278 reversed $134 $-1 #
coedge $-1 $209 $209 $136 $210 reversed $276 $-1 #
edge $-1 $279 -3.1415926535897931 $279 3.1415926535897931 $209 $280 forward 7 unknown #
convexity-sys-attrib $-1 $-1 $137 $87 #
point $-1 3 0 3.528 #
plane-surface $-1 4 0 0 -1 0 0 0 0 1 forward_v I I I I #
coedge $-1 $147 $145 $149 $218 reversed $95 $-1 #
edge $-1 $160 -3.573 $220 3.573 $159 $281 forward 7 unknown #
vertex $-1 $218 $282 #
straight-curve $-1 -4 -4 0 0 0 -1 I I #
edge $-1 $216 -4 $220 4 $214 $283 forward 7 unknown #
straight-curve $-1 0 -4 -3.573 -1 0 0 I I #
vertex $-1 $152 $284 #
straight-curve $-1 0 4 -3.573 1 0 0 I I #
point $-1 4 4 -3.573 #
point $-1 4 -4 -3.573 #
straight-curve $-1 -4 0 3.573 0 -1 0 I I #
point $-1 -4 4 3.573 #
point $-1 -4 -4 3.573 #
straight-curve $-1 4 -4 0 0 0 -1 I I #
straight-curve $-1 4 4 0 0 0 -1 I I #
face $-1 $285 $286 $17 $-1 $287 reversed single #
plane-surface $-1 0 4 0 0 -1 0 0 0 -1 forward_v I I I I #
coedge $-1 $256 $261 $120 $185 reversed $170 $-1 #
coedge $-1 $288 $172 $116 $179 forward $114 $-1 #
coedge $-1 $172 $288 $289 $237 reversed $114 $-1 #
coedge $-1 $290 $291 $172 $235 forward $292 $-1 #
edge $-1 $249 -3.1415926535897931 $242 -1.5707963267948968 $234 $190 forward 7 unknown #
coedge $-1 $174 $173 $293 $294 reversed $75 $-1 #
edge $-1 $242 -7.1459999999999999 $295 0 $289 $296 forward 7 unknown #
coedge $-1 $297 $298 $231 $185 forward $299 $-1 #
coedge $-1 $240 $175 $298 $259 forward $241 $-1 #
coedge $-1 $175 $239 $300 $301 forward $241 $-1 #
loop $-1 $-1 $175 $302 #
vertex $-1 $303 $304 #
coedge $-1 $305 $272 $177 $244 forward $306 $-1 #
edge $-1 $129 1.5707963267948966 $249 3.1415926535897931 $243 $190 forward 7 unknown #
coedge $-1 $307 $178 $181 $251 reversed $248 $-1 #
coedge $-1 $178 $307 $305 $308 reversed $248 $-1 #
coedge $-1 $309 $310 $232 $179 reversed $286 $-1 #
loop $-1 $-1 $178 $311 #
vertex $-1 $308 $312 #
straight-curve $-1 -4 0 3.573 0 0 1 I I #
edge $-1 $275 -4 $183 0 $245 $313 forward 7 unknown #
face $-1 $263 $182 $17 $-1 $314 forward single #
edge $-1 $183 0 $315 4 $310 $313 forward 7 unknown #
point $-1 -4 0 3.573 #
straight-curve $-1 4 0 3.573 0 0 1 I I #
coedge $-1 $265 $231 $187 $257 reversed $170 $-1 #
edge $-1 $269 -4 $189 0 $256 $316 forward 7 unknown #
face $-1 $317 $188 $17 $-1 $318 reversed single #
edge $-1 $189 0 $319 4 $298 $316 forward 7 unknown #
point $-1 4 0 -3.573 #
coedge $-1 $231 $265 $191 $262 reversed $170 $-1 #
edge $-1 $194 0 $267 4 $261 $320 forward 7 unknown #
face $-1 $321 $193 $17 $-1 $314 forward single #
point $-1 4 0 3.573 #
coedge $-1 $261 $256 $195 $266 reversed $170 $-1 #
edge $-1 $267 -3.573 $269 3.573 $265 $322 forward 7 unknown #
vertex $-1 $262 $323 #
straight-curve $-1 0 4 3.573 -1 0 0 I I #
vertex $-1 $257 $324 #
straight-curve $-1 0 4 -3.573 1 0 0 I I #
coedge $-1 $199 $198 $307 $325 reversed $200 $-1 #
coedge $-1 $243 $305 $198 $273 forward $306 $-1 #
edge $-1 $326 -4 $129 -4.4989821654664123e-032 $198 $270 forward 7 unknown #
face $-1 $-1 $299 $17 $-1 $171 reversed single #
vertex $-1 $203 $327 #
loop $-1 $-1 $209 $133 #
coedge $-1 $277 $277 $208 $278 forward $206 $-1 #
edge $-1 $328 0 $328 6.2831853071795862 $277 $329 forward 7 unknown #
vertex $-1 $210 $330 #
ellipse-curve $-1 0 0 -2.6880000000000002 0 0 1 4 0 0 1 I I #
straight-curve $-1 -4 4 0 0 0 -1 I I #
point $-1 -4 -4 -3.573 #
straight-curve $-1 -4 0 -3.573 0 1 0 I I #
point $-1 -4 4 -3.573 #
face $-1 $252 $331 $17 $-1 $314 forward single #
loop $-1 $-1 $247 $229 #
plane-surface $-1 -4 0 0 1 0 0 0 0 -1 forward_v I I I I #
coedge $-1 $233 $232 $332 $333 reversed $114 $-1 #
coedge $-1 $334 $335 $336 $237 forward $337 $-1 #
coedge $-1 $291 $234 $335 $303 forward $292 $-1 #
coedge $-1 $234 $290 $309 $338 forward $292 $-1 #
loop $-1 $-1 $234 $339 #
coedge $-1 $340 $341 $236 $294 forward $342 $-1 #
edge $-1 $194 1.2246063538223773e-016 $295 1.5707963267948968 $293 $184 forward 7 unknown #
vertex $-1 $343 $344 #
straight-curve $-1 -4.4989821654664123e-032 -4 3.573 0 0 1 I I #
coedge $-1 $345 $238 $341 $346 reversed $299 $-1 #
coedge $-1 $238 $345 $239 $259 reversed $299 $-1 #
loop $-1 $-1 $238 $274 #
coedge $-1 $347 $336 $240 $301 reversed $348 $-1 #
edge $-1 $319 -4 $242 4.4989821654664123e-032 $300 $349 forward 7 unknown #
face $-1 $258 $241 $17 $-1 $318 reversed single #
edge $-1 $242 4.4989821654664123e-032 $350 4 $335 $349 forward 7 unknown #
point $-1 -4.4989821654664123e-032 -4 -3.573 #
coedge $-1 $272 $243 $246 $308 forward $306 $-1 #
loop $-1 $-1 $243 $317 #
coedge $-1 $246 $245 $271 $325 forward $248 $-1 #
edge $-1 $249 0 $326 4 $246 $351 forward 7 unknown #
coedge $-1 $352 $247 $291 $338 reversed $286 $-1 #
coedge $-1 $247 $352 $353 $253 reversed $286 $-1 #
face $-1 $201 $248 $17 $-1 $287 reversed single #
point $-1 -4 0 -3.573 #
straight-curve $-1 -4 0 3.573 0 -1 0 I I #
plane-surface $-1 0 0 3.573 0 0 1 1 0 0 forward_v I I I I #
vertex $-1 $253 $354 #
straight-curve $-1 4 0 -3.573 0 -1 0 I I #
face $-1 $355 $306 $17 $-1 $318 reversed single #
plane-surface $-1 0 0 -3.573 0 0 1 1 0 0 forward_v I I I I #
vertex $-1 $356 $357 #
straight-curve $-1 4 0 3.573 0 1 0 I I #
face $-1 $358 $342 $17 $-1 $314 forward single #
straight-curve $-1 4 4 0 0 0 -1 I I #
point $-1 4 4 3.573 #
point $-1 4 4 -3.573 #
edge $-1 $275 -3.573 $326 3.573 $271 $359 forward 7 unknown #
vertex $-1 $273 $360 #
point $-1 -4 4 3.573 #
vertex $-1 $278 $361 #
ellipse-curve $-1 0 0 -3.6179999999999999 0 0 1 -4 0 0 1 I I #
point $-1 -4 0 -2.6880000000000002 #
loop $-1 $-1 $332 $285 #
coedge $-1 $353 $362 $288 $333 forward $331 $-1 #
edge $-1 $295 1.5707963267948968 $183 3.1415926535897931 $332 $184 forward 7 unknown #
coedge $-1 $363 $289 $362 $364 reversed $337 $-1 #
coedge $-1 $289 $363 $290 $303 reversed $337 $-1 #
coedge $-1 $300 $365 $173 $237 reversed $348 $-1 #
loop $-1 $-1 $289 $355 #
edge $-1 $350 -4 $249 0 $309 $351 forward 7 unknown #
face $-1 $302 $292 $17 $-1 $318 reversed single #
coedge $-1 $341 $293 $365 $343 forward $342 $-1 #
coedge $-1 $293 $340 $297 $346 forward $342 $-1 #
loop $-1 $-1 $293 $321 #
edge $-1 $295 -4.4989821654664123e-032 $366 4 $365 $367 forward 7 unknown #
point $-1 -4.4989821654664123e-032 -4 3.573 #
coedge $-1 $298 $297 $347 $356 forward $299 $-1 #
edge $-1 $366 -4 $194 0 $297 $320 forward 7 unknown #
coedge $-1 $365 $300 $345 $356 reversed $348 $-1 #
loop $-1 $-1 $336 $358 #
straight-curve $-1 0 -4 -3.573 -1 0 0 I I #
vertex $-1 $338 $368 #
straight-curve $-1 -4 0 -3.573 0 1 0 I I #
coedge $-1 $310 $309 $363 $369 reversed $286 $-1 #
coedge $-1 $362 $332 $310 $253 forward $331 $-1 #
point $-1 -4 -4 3.573 #
face $-1 $311 $337 $17 $-1 $370 reversed single #
edge $-1 $366 -3.573 $319 3.573 $345 $371 forward 7 unknown #
point $-1 4 -4 -3.573 #
face $-1 $339 $348 $17 $-1 $370 reversed single #
straight-curve $-1 -4 4 0 0 0 -1 I I #
point $-1 -4 4 -3.573 #
point $-1 -4 0 -3.6179999999999999 #
coedge $-1 $332 $353 $334 $364 forward $331 $-1 #
coedge $-1 $335 $334 $352 $369 forward $337 $-1 #
edge $-1 $315 -4 $295 -4.4989821654664123e-032 $334 $367 forward 7 unknown #
coedge $-1 $336 $347 $340 $343 reversed $348 $-1 #
vertex $-1 $346 $372 #
straight-curve $-1 0 -4 3.573 1 0 0 I I #
point $-1 -4 -4 -3.573 #
edge $-1 $315 -3.573 $350 3.573 $352 $373 forward 7 unknown #
plane-surface $-1 0 -4 0 0 1 0 0 0 1 forward_v I I I I #
straight-curve $-1 4 -4 0 0 0 -1 I I #
point $-1 4 -4 3.573 #
straight-curve $-1 -4 -4 0 0 0 -1 I I #
End-of-ACIS-data 