  0
SECTION
  2
HEADER
  9
$ACADVER
  1
AC1009
  9
$INSBASE
 10
0.0
 20
0.0
 30
0.0
  9
$EXTMIN
 10
-0.09798
 20
-4.0
 30
-0.09798
  9
$EXTMAX
 10
4.0
 20
4.0
 30
4.0
  9
$LIMMIN
 10
0.0
 20
0.0
  9
$LIMMAX
 10
12.0
 20
9.0
  9
$ORTHOMODE
 70
     0
  9
$REGENMODE
 70
     1
  9
$FILLMODE
 70
     1
  9
$QTEXTMODE
 70
     0
  9
$MIRRTEXT
 70
     1
  9
$DRAGMODE
 70
     2
  9
$LTSCALE
 40
1.0
  9
$OSMODE
 70
     0
  9
$ATTMODE
 70
     1
  9
$TEXTSIZE
 40
0.2
  9
$TRACEWID
 40
0.05
  9
$TEXTSTYLE
  7
STANDARD
  9
$CLAYER
  8
0
  9
$CELTYPE
  6
BYLAYER
  9
$CECOLOR
 62
   256
  9
$DIMSCALE
 40
1.0
  9
$DIMASZ
 40
0.18
  9
$DIMEXO
 40
0.0625
  9
$DIMDLI
 40
0.38
  9
$DIMRND
 40
0.0
  9
$DIMDLE
 40
0.0
  9
$DIMEXE
 40
0.18
  9
$DIMTP
 40
0.0
  9
$DIMTM
 40
0.0
  9
$DIMTXT
 40
0.18
  9
$DIMCEN
 40
0.09
  9
$DIMTSZ
 40
0.0
  9
$DIMTOL
 70
     0
  9
$DIMLIM
 70
     0
  9
$DIMTIH
 70
     1
  9
$DIMTOH
 70
     1
  9
$DIMSE1
 70
     0
  9
$DIMSE2
 70
     0
  9
$DIMTAD
 70
     0
  9
$DIMZIN
 70
     0
  9
$DIMBLK
  1

  9
$DIMASO
 70
     1
  9
$DIMSHO
 70
     1
  9
$DIMPOST
  1

  9
$DIMAPOST
  1

  9
$DIMALT
 70
     0
  9
$DIMALTD
 70
     2
  9
$DIMALTF
 40
25.4
  9
$DIMLFAC
 40
1.0
  9
$DIMTOFL
 70
     0
  9
$DIMTVP
 40
0.0
  9
$DIMTIX
 70
     0
  9
$DIMSOXD
 70
     0
  9
$DIMSAH
 70
     0
  9
$DIMBLK1
  1

  9
$DIMBLK2
  1

  9
$DIMSTYLE
  2
*UNNAMED
  9
$DIMCLRD
 70
     0
  9
$DIMCLRE
 70
     0
  9
$DIMCLRT
 70
     0
  9
$DIMTFAC
 40
1.0
  9
$DIMGAP
 40
0.09
  9
$LUNITS
 70
     2
  9
$LUPREC
 70
     4
  9
$SKETCHINC
 40
0.1
  9
$FILLETRAD
 40
0.0
  9
$AUNITS
 70
     0
  9
$AUPREC
 70
     0
  9
$MENU
  1
acad
  9
$ELEVATION
 40
0.0
  9
$PELEVATION
 40
0.0
  9
$THICKNESS
 40
0.0
  9
$LIMCHECK
 70
     0
  9
$BLIPMODE
 70
     1
  9
$CHAMFERA
 40
0.0
  9
$CHAMFERB
 40
0.0
  9
$SKPOLY
 70
     0
  9
$TDCREATE
 40
2449373.093220671
  9
$TDUPDATE
 40
2449373.093220671
  9
$TDINDWG
 40
0.0000000000
  9
$TDUSRTIMER
 40
0.0000000000
  9
$USRTIMER
 70
     1
  9
$ANGBASE
 50
0.0
  9
$ANGDIR
 70
     0
  9
$PDMODE
 70
     0
  9
$PDSIZE
 40
0.0
  9
$PLINEWID
 40
0.0
  9
$COORDS
 70
     1
  9
$SPLFRAME
 70
     0
  9
$SPLINETYPE
 70
     6
  9
$SPLINESEGS
 70
     8
  9
$ATTDIA
 70
     0
  9
$ATTREQ
 70
     1
  9
$HANDLING
 70
     1
  9
$HANDSEED
  5
FC
  9
$SURFTAB1
 70
     6
  9
$SURFTAB2
 70
     6
  9
$SURFTYPE
 70
     6
  9
$SURFU
 70
     6
  9
$SURFV
 70
     6
  9
$UCSNAME
  2

  9
$UCSORG
 10
0.0
 20
0.0
 30
0.0
  9
$UCSXDIR
 10
1.0
 20
0.0
 30
0.0
  9
$UCSYDIR
 10
0.0
 20
1.0
 30
0.0
  9
$PUCSNAME
  2

  9
$PUCSORG
 10
0.0
 20
0.0
 30
0.0
  9
$PUCSXDIR
 10
1.0
 20
0.0
 30
0.0
  9
$PUCSYDIR
 10
0.0
 20
1.0
 30
0.0
  9
$USERI1
 70
     0
  9
$USERI2
 70
     0
  9
$USERI3
 70
     0
  9
$USERI4
 70
     0
  9
$USERI5
 70
     0
  9
$USERR1
 40
0.0
  9
$USERR2
 40
0.0
  9
$USERR3
 40
0.0
  9
$USERR4
 40
0.0
  9
$USERR5
 40
0.0
  9
$WORLDVIEW
 70
     1
  9
$SHADEDGE
 70
     3
  9
$SHADEDIF
 70
    70
  9
$TILEMODE
 70
     1
  9
$MAXACTVP
 70
    16
  9
$PINSBASE
 10
0.0
 20
0.0
 30
0.0
  9
$PLIMCHECK
 70
     0
  9
$PEXTMIN
 10
1.000000E+20
 20
1.000000E+20
 30
1.000000E+20
  9
$PEXTMAX
 10
-1.000000E+20
 20
-1.000000E+20
 30
-1.000000E+20
  9
$PLIMMIN
 10
0.0
 20
0.0
  9
$PLIMMAX
 10
12.0
 20
9.0
  9
$UNITMODE
 70
     0
  9
$VISRETAIN
 70
     0
  9
$PLINEGEN
 70
     0
  9
$PSLTSCALE
 70
     1
  9
$TREEDEPTH
 70
  3020
  9
$DWGCODEPAGE
  3
ascii
  0
ENDSEC
  0
SECTION
  2
TABLES
  0
TABLE
  2
VPORT
 70
     2
  0
VPORT
  2
*ACTIVE
 70
     0
 10
0.0
 20
0.0
 11
1.0
 21
1.0
 12
0.542716
 22
1.424816
 13
0.0
 23
0.0
 14
1.0
 24
1.0
 15
0.0
 25
0.0
 16
1.0
 26
2.0
 36
1.0
 17
0.0
 27
0.0
 37
0.0
 40
7.410299
 41
1.594883
 42
50.0
 43
0.0
 44
0.0
 50
0.0
 51
0.0
 71
     0
 72
   100
 73
     1
 74
     1
 75
     0
 76
     0
 77
     0
 78
     0
  0
ENDTAB
  0
TABLE
  2
LTYPE
 70
     1
  0
LTYPE
  2
CONTINUOUS
 70
    64
  3
Solid line
 72
    65
 73
     0
 40
0.0
  0
ENDTAB
  0
TABLE
  2
LAYER
 70
     2
  0
LAYER
  2
0
 70
    64
 62
     7
  6
CONTINUOUS
  0
LAYER
  2
AME_FRZ
 70
    65
 62
     7
  6
CONTINUOUS
  0
ENDTAB
  0
TABLE
  2
STYLE
 70
     1
  0
STYLE
  2
STANDARD
 70
     0
 40
0.0
 41
1.0
 50
0.0
 71
     0
 42
0.2
  3
txt
  4

  0
ENDTAB
  0
TABLE
  2
VIEW
 70
     0
  0
ENDTAB
  0
TABLE
  2
UCS
 70
     0
  0
ENDTAB
  0
TABLE
  2
APPID
 70
     3
  0
APPID
  2
ACAD
 70
    64
  0
APPID
  2
AME_SOL
 70
    64
  0
APPID
  2
AVE_INVOKE
 70
    64
  0
ENDTAB
  0
TABLE
  2
DIMSTYLE
 70
     0
  0
ENDTAB
  0
ENDSEC
  0
SECTION
  2
BLOCKS
  0
BLOCK
  8
0
  5
1
  2
AME_NIL
 70
    64
 10
0.0
 20
0.0
 30
0.0
  1
AME_NIL
  3
AME_NIL
  0
ENDBLK
  8
0
  5
2
  0
BLOCK
  8
0
  5
4
  2
AME_SOL
 70
    64
 10
0.0
 20
0.0
 30
0.0
  1
AME_SOL
  3
AME_SOL
  0
ENDBLK
  8
0
  5
5
  0
BLOCK
  8
0
  5
25
  2
*U4
 70
    65
 10
0.0
 20
0.0
 30
0.0
  1
*U
  3
*U
  0
LINE
  8
0
 62
     7
  5
26
 10
4.0
 20
4.0
 30
0.0
 11
4.0
 21
4.0
 31
4.0
1001
AME_SOL
1070
     1
1071
       21
  0
LINE
  8
0
 62
     7
  5
27
 10
4.0
 20
4.0
 30
4.0
 11
4.0
 21
0.0
 31
4.0
1001
AME_SOL
1070
     1
1071
       20
  0
LINE
  8
0
 62
     7
  5
28
 10
0.0
 20
4.0
 30
4.0
 11
4.0
 21
4.0
 31
4.0
1001
AME_SOL
1070
     1
1071
       19
  0
LINE
  8
0
 62
     7
  5
29
 10
0.0
 20
4.0
 30
0.0
 11
0.0
 21
4.0
 31
4.0
1001
AME_SOL
1070
     1
1071
       18
  0
LINE
  8
0
 62
     7
  5
2A
 10
0.0
 20
4.0
 30
4.0
 11
0.0
 21
0.0
 31
4.0
1001
AME_SOL
1070
     1
1071
       17
  0
LINE
  8
0
 62
     7
  5
2B
 10
0.0
 20
0.0
 30
0.0
 11
0.0
 21
0.0
 31
4.0
1001
AME_SOL
1070
     1
1071
       16
  0
LINE
  8
0
 62
     7
  5
2C
 10
4.0
 20
0.0
 30
4.0
 11
4.0
 21
0.0
 31
0.0
1001
AME_SOL
1070
     1
1071
       15
  0
LINE
  8
0
 62
     7
  5
2D
 10
0.0
 20
0.0
 30
4.0
 11
4.0
 21
0.0
 31
4.0
1001
AME_SOL
1070
     1
1071
       14
  0
LINE
  8
0
 62
     7
  5
2E
 10
0.0
 20
0.0
 30
0.0
 11
4.0
 21
0.0
 31
0.0
1001
AME_SOL
1070
     1
1071
       13
  0
LINE
  8
0
 62
     7
  5
2F
 10
0.0
 20
4.0
 30
0.0
 11
0.0
 21
0.0
 31
0.0
1001
AME_SOL
1070
     1
1071
       12
  0
LINE
  8
0
 62
     7
  5
30
 10
4.0
 20
0.0
 30
0.0
 11
4.0
 21
4.0
 31
0.0
1001
AME_SOL
1070
     1
1071
       11
  0
LINE
  8
0
 62
     7
  5
31
 10
4.0
 20
4.0
 30
0.0
 11
0.0
 21
4.0
 31
0.0
1001
AME_SOL
1070
     1
1071
       10
  0
CIRCLE
  8
0
 62
     7
  5
32
 10
2.0
 20
2.0
 30
0.0
 40
1.0
1001
AME_SOL
1070
     1
1071
        9
  0
CIRCLE
  8
0
 62
     7
  5
33
 10
2.0
 20
2.0
 30
4.0
 40
1.0
1001
AME_SOL
1070
     1
1071
        8
  0
LINE
  8
0
 62
     7
  5
34
 10
2.0
 20
3.0
 30
0.0
 11
2.0
 21
3.0
 31
4.0
1001
AME_SOL
1070
     0
1071
        1
  0
LINE
  8
0
 62
     7
  5
35
 10
3.0
 20
2.0
 30
0.0
 11
3.0
 21
2.0
 31
4.0
1001
AME_SOL
1070
     0
1071
        1
  0
LINE
  8
0
 62
     7
  5
36
 10
2.0
 20
1.0
 30
0.0
 11
2.0
 21
1.0
 31
4.0
1001
AME_SOL
1070
     0
1071
        1
  0
LINE
  8
0
 62
     7
  5
37
 10
1.0
 20
2.0
 30
0.0
 11
1.0
 21
2.0
 31
4.0
1001
AME_SOL
1070
     0
1071
        1
  0
ENDBLK
  8
0
  5
38
  0
BLOCK
  8
0
  5
3C
  2
AME_JNK
 70
     0
 10
0.0
 20
0.0
 30
0.0
  1
AME_JNK
  3
AME_JNK
  0
ENDBLK
  8
0
  5
3D
  0
BLOCK
  8
0
  5
3F
  2
SOLAXES
 70
     0
 10
0.0
 20
0.0
 30
0.0
  1
SOLAXES
  3
SOLAXES
  0
LINE
  8
0
 62
     0
  5
40
 10
0.0
 20
0.0
 30
0.0
 11
1.959592
 21
0.0
 31
0.0
  0
LINE
  8
0
 62
     0
  5
41
 10
0.0
 20
0.0
 30
0.0
 11
0.0
 21
1.959592
 31
0.0
  0
LINE
  8
0
 62
     0
  5
42
 10
0.0
 20
0.0
 30
0.0
 11
0.0
 21
0.0
 31
1.959592
  0
CIRCLE
  8
0
 62
     0
  5
43
 10
0.0
 20
0.0
 30
1.763633
 40
0.09798
210
1.0
220
0.0
230
0.0
  0
LINE
  8
0
 62
     0
  5
44
 10
1.763633
 20
0.09798
 30
0.0
 11
1.959592
 21
0.0
 31
0.0
  0
LINE
  8
0
 62
     0
  5
45
 10
1.763633
 20
0.0
 30
0.09798
 11
1.959592
 21
0.0
 31
0.0
  0
LINE
  8
0
 62
     0
  5
46
 10
1.763633
 20
-0.09798
 30
0.0
 11
1.959592
 21
0.0
 31
0.0
  0
LINE
  8
0
 62
     0
  5
47
 10
1.763633
 20
0.0
 30
-0.09798
 11
1.959592
 21
0.0
 31
0.0
  0
CIRCLE
  8
0
 62
     0
  5
48
 10
0.0
 20
0.0
 30
1.763633
 40
0.09798
210
0.0
220
1.0
230
0.0
  0
LINE
  8
0
 62
     0
  5
49
 10
0.09798
 20
1.763633
 30
0.0
 11
0.0
 21
1.959592
 31
0.0
  0
LINE
  8
0
 62
     0
  5
4A
 10
0.0
 20
1.763633
 30
0.09798
 11
0.0
 21
1.959592
 31
0.0
  0
LINE
  8
0
 62
     0
  5
4B
 10
-0.09798
 20
1.763633
 30
0.0
 11
0.0
 21
1.959592
 31
0.0
  0
LINE
  8
0
 62
     0
  5
4C
 10
0.0
 20
1.763633
 30
-0.09798
 11
0.0
 21
1.959592
 31
0.0
  0
CIRCLE
  8
0
 62
     0
  5
4D
 10
0.0
 20
0.0
 30
1.567673
 40
0.09798
210
0.0
220
1.0
230
0.0
  0
LINE
  8
0
 62
     0
  5
4E
 10
0.09798
 20
1.567673
 30
0.0
 11
0.0
 21
1.763633
 31
0.0
  0
LINE
  8
0
 62
     0
  5
4F
 10
0.0
 20
1.567673
 30
0.09798
 11
0.0
 21
1.763633
 31
0.0
  0
LINE
  8
0
 62
     0
  5
50
 10
-0.09798
 20
1.567673
 30
0.0
 11
0.0
 21
1.763633
 31
0.0
  0
LINE
  8
0
 62
     0
  5
51
 10
0.0
 20
1.567673
 30
-0.09798
 11
0.0
 21
1.763633
 31
0.0
  0
CIRCLE
  8
0
 62
     0
  5
52
 10
0.0
 20
0.0
 30
1.763633
 40
0.09798
  0
LINE
  8
0
 62
     0
  5
53
 10
0.09798
 20
0.0
 30
1.763633
 11
0.0
 21
0.0
 31
1.959592
  0
LINE
  8
0
 62
     0
  5
54
 10
0.0
 20
0.09798
 30
1.763633
 11
0.0
 21
0.0
 31
1.959592
  0
LINE
  8
0
 62
     0
  5
55
 10
-0.09798
 20
0.0
 30
1.763633
 11
0.0
 21
0.0
 31
1.959592
  0
LINE
  8
0
 62
     0
  5
56
 10
0.0
 20
-0.09798
 30
1.763633
 11
0.0
 21
0.0
 31
1.959592
  0
CIRCLE
  8
0
 62
     0
  5
57
 10
0.0
 20
0.0
 30
1.567673
 40
0.09798
  0
LINE
  8
0
 62
     0
  5
58
 10
0.09798
 20
0.0
 30
1.567673
 11
0.0
 21
0.0
 31
1.763633
  0
LINE
  8
0
 62
     0
  5
59
 10
0.0
 20
0.09798
 30
1.567673
 11
0.0
 21
0.0
 31
1.763633
  0
LINE
  8
0
 62
     0
  5
5A
 10
-0.09798
 20
0.0
 30
1.567673
 11
0.0
 21
0.0
 31
1.763633
  0
LINE
  8
0
 62
     0
  5
5B
 10
0.0
 20
-0.09798
 30
1.567673
 11
0.0
 21
0.0
 31
1.763633
  0
CIRCLE
  8
0
 62
     0
  5
5C
 10
0.0
 20
0.0
 30
1.371714
 40
0.09798
  0
LINE
  8
0
 62
     0
  5
5D
 10
0.09798
 20
0.0
 30
1.371714
 11
0.0
 21
0.0
 31
1.567673
  0
LINE
  8
0
 62
     0
  5
5E
 10
0.0
 20
0.09798
 30
1.371714
 11
0.0
 21
0.0
 31
1.567673
  0
LINE
  8
0
 62
     0
  5
5F
 10
-0.09798
 20
0.0
 30
1.371714
 11
0.0
 21
0.0
 31
1.567673
  0
LINE
  8
0
 62
     0
  5
60
 10
0.0
 20
-0.09798
 30
1.371714
 11
0.0
 21
0.0
 31
1.567673
  0
ENDBLK
  8
0
  5
61
  0
BLOCK
  8
0
  5
63
  2
*U7
 70
    65
 10
0.0
 20
0.0
 30
0.0
  1
*U
  3
*U
  0
POLYLINE
  8
0
 62
     7
  5
64
 66
     1
 10
0.0
 20
0.0
 30
0.0
 70
    64
  0
VERTEX
  8
0
  5
65
 10
4.0
 20
4.0
 30
4.0
 70
   192
  0
VERTEX
  8
0
  5
66
 10
4.0
 20
0.0
 30
4.0
 70
   192
  0
VERTEX
  8
0
  5
67
 10
4.0
 20
0.0
 30
0.0
 70
   192
  0
VERTEX
  8
0
  5
68
 10
4.0
 20
4.0
 30
0.0
 70
   192
  0
VERTEX
  8
0
 62
     7
  5
69
 10
0.0
 20
0.0
 30
0.0
 70
   128
 71
     1
 72
     2
 73
    -3
  0
VERTEX
  8
0
 62
     7
  5
6A
 10
0.0
 20
0.0
 30
0.0
 70
   128
 71
     3
 72
     4
 73
    -1
  0
SEQEND
  8
0
 62
     7
  5
6B
  0
POLYLINE
  8
0
 62
     7
  5
6C
 66
     1
 10
0.0
 20
0.0
 30
0.0
 70
    64
  0
VERTEX
  8
0
  5
6D
 10
0.0
 20
4.0
 30
4.0
 70
   192
  0
VERTEX
  8
0
  5
6E
 10
4.0
 20
4.0
 30
4.0
 70
   192
  0
VERTEX
  8
0
  5
6F
 10
0.0
 20
4.0
 30
0.0
 70
   192
  0
VERTEX
  8
0
  5
70
 10
4.0
 20
4.0
 30
0.0
 70
   192
  0
VERTEX
  8
0
 62
     7
  5
71
 10
0.0
 20
0.0
 30
0.0
 70
   128
 71
     1
 72
    -2
 73
     3
  0
VERTEX
  8
0
 62
     7
  5
72
 10
0.0
 20
0.0
 30
0.0
 70
   128
 71
     2
 72
     4
 73
    -3
  0
SEQEND
  8
0
 62
     7
  5
73
  0
POLYLINE
  8
0
 62
     7
  5
74
 66
     1
 10
0.0
 20
0.0
 30
0.0
 70
    64
  0
VERTEX
  8
0
  5
75
 10
1.5
 20
1.133975
 30
4.0
 70
   192
  0
VERTEX
  8
0
  5
76
 10
1.133975
 20
1.5
 30
4.0
 70
   192
  0
VERTEX
  8
0
  5
77
 10
0.0
 20
0.0
 30
4.0
 70
   192
  0
VERTEX
  8
0
  5
78
 10
0.0
 20
4.0
 30
4.0
 70
   192
  0
VERTEX
  8
0
  5
79
 10
2.0
 20
1.0
 30
4.0
 70
   192
  0
VERTEX
  8
0
  5
7A
 10
4.0
 20
0.0
 30
4.0
 70
   192
  0
VERTEX
  8
0
  5
7B
 10
1.0
 20
2.0
 30
4.0
 70
   192
  0
VERTEX
  8
0
  5
7C
 10
1.133975
 20
2.5
 30
4.0
 70
   192
  0
VERTEX
  8
0
  5
7D
 10
1.5
 20
2.866025
 30
4.0
 70
   192
  0
VERTEX
  8
0
  5
7E
 10
2.5
 20
1.133975
 30
4.0
 70
   192
  0
VERTEX
  8
0
  5
7F
 10
2.866025
 20
1.5
 30
4.0
 70
   192
  0
VERTEX
  8
0
  5
80
 10
3.0
 20
2.0
 30
4.0
 70
   192
  0
VERTEX
  8
0
  5
81
 10
4.0
 20
4.0
 30
4.0
 70
   192
  0
VERTEX
  8
0
  5
82
 10
2.0
 20
3.0
 30
4.0
 70
   192
  0
VERTEX
  8
0
  5
83
 10
2.5
 20
2.866025
 30
4.0
 70
   192
  0
VERTEX
  8
0
  5
84
 10
2.866025
 20
2.5
 30
4.0
 70
   192
  0
VERTEX
  8
0
 62
     7
  5
85
 10
0.0
 20
0.0
 30
0.0
 70
   128
 71
     1
 72
    -2
 73
    -3
  0
VERTEX
  8
0
 62
     7
  5
86
 10
0.0
 20
0.0
 30
0.0
 70
   128
 71
    -2
 72
     4
 73
    -3
  0
VERTEX
  8
0
 62
     7
  5
87
 10
0.0
 20
0.0
 30
0.0
 70
   128
 71
    -3
 72
     5
 73
    -1
  0
VERTEX
  8
0
 62
     7
  5
88
 10
0.0
 20
0.0
 30
0.0
 70
   128
 71
     3
 72
    -6
 73
    -5
  0
VERTEX
  8
0
 62
     7
  5
89
 10
0.0
 20
0.0
 30
0.0
 70
   128
 71
     2
 72
    -7
 73
    -4
  0
VERTEX
  8
0
 62
     7
  5
8A
 10
0.0
 20
0.0
 30
0.0
 70
   128
 71
     7
 72
    -8
 73
    -4
  0
VERTEX
  8
0
 62
     7
  5
8B
 10
0.0
 20
0.0
 30
0.0
 70
   128
 71
     8
 72
    -9
 73
    -4
  0
VERTEX
  8
0
 62
     7
  5
8C
 10
0.0
 20
0.0
 30
0.0
 70
   128
 71
    -6
 72
    10
 73
    -5
  0
VERTEX
  8
0
 62
     7
  5
8D
 10
0.0
 20
0.0
 30
0.0
 70
   128
 71
    -6
 72
    11
 73
   -10
  0
VERTEX
  8
0
 62
     7
  5
8E
 10
0.0
 20
0.0
 30
0.0
 70
   128
 71
    -6
 72
    12
 73
   -11
  0
VERTEX
  8
0
 62
     7
  5
8F
 10
0.0
 20
0.0
 30
0.0
 70
   128
 71
    -9
 72
    13
 73
    -4
  0
VERTEX
  8
0
 62
     7
  5
90
 10
0.0
 20
0.0
 30
0.0
 70
   128
 71
     9
 72
   -14
 73
   -13
  0
VERTEX
  8
0
 62
     7
  5
91
 10
0.0
 20
0.0
 30
0.0
 70
   128
 71
    14
 72
   -15
 73
   -13
  0
VERTEX
  8
0
 62
     7
  5
92
 10
0.0
 20
0.0
 30
0.0
 70
   128
 71
    15
 72
   -16
 73
   -13
  0
VERTEX
  8
0
 62
     7
  5
93
 10
0.0
 20
0.0
 30
0.0
 70
   128
 71
   -16
 72
     6
 73
   -13
  0
VERTEX
  8
0
 62
     7
  5
94
 10
0.0
 20
0.0
 30
0.0
 70
   128
 71
    16
 72
   -12
 73
    -6
  0
SEQEND
  8
0
 62
     7
  5
95
  0
POLYLINE
  8
0
 62
     7
  5
96
 66
     1
 10
0.0
 20
0.0
 30
0.0
 70
    64
  0
VERTEX
  8
0
  5
97
 10
0.0
 20
0.0
 30
0.0
 70
   192
  0
VERTEX
  8
0
  5
98
 10
0.0
 20
0.0
 30
4.0
 70
   192
  0
VERTEX
  8
0
  5
99
 10
0.0
 20
4.0
 30
4.0
 70
   192
  0
VERTEX
  8
0
  5
9A
 10
0.0
 20
4.0
 30
0.0
 70
   192
  0
VERTEX
  8
0
 62
     7
  5
9B
 10
0.0
 20
0.0
 30
0.0
 70
   128
 71
     1
 72
     2
 73
    -3
  0
VERTEX
  8
0
 62
     7
  5
9C
 10
0.0
 20
0.0
 30
0.0
 70
   128
 71
     3
 72
     4
 73
    -1
  0
SEQEND
  8
0
 62
     7
  5
9D
  0
POLYLINE
  8
0
 62
     7
  5
9E
 66
     1
 10
0.0
 20
0.0
 30
0.0
 70
    64
  0
VERTEX
  8
0
  5
9F
 10
0.0
 20
0.0
 30
4.0
 70
   192
  0
VERTEX
  8
0
  5
A0
 10
0.0
 20
0.0
 30
0.0
 70
   192
  0
VERTEX
  8
0
  5
A1
 10
4.0
 20
0.0
 30
4.0
 70
   192
  0
VERTEX
  8
0
  5
A2
 10
4.0
 20
0.0
 30
0.0
 70
   192
  0
VERTEX
  8
0
 62
     7
  5
A3
 10
0.0
 20
0.0
 30
0.0
 70
   128
 71
     1
 72
    -2
 73
     3
  0
VERTEX
  8
0
 62
     7
  5
A4
 10
0.0
 20
0.0
 30
0.0
 70
   128
 71
     2
 72
     4
 73
    -3
  0
SEQEND
  8
0
 62
     7
  5
A5
  0
POLYLINE
  8
0
 62
     7
  5
A6
 66
     1
 10
0.0
 20
0.0
 30
0.0
 70
    64
  0
VERTEX
  8
0
  5
A7
 10
2.866025
 20
2.5
 30
0.0
 70
   192
  0
VERTEX
  8
0
  5
A8
 10
2.5
 20
2.866025
 30
0.0
 70
   192
  0
VERTEX
  8
0
  5
A9
 10
4.0
 20
4.0
 30
0.0
 70
   192
  0
VERTEX
  8
0
  5
AA
 10
0.0
 20
4.0
 30
0.0
 70
   192
  0
VERTEX
  8
0
  5
AB
 10
3.0
 20
2.0
 30
0.0
 70
   192
  0
VERTEX
  8
0
  5
AC
 10
4.0
 20
0.0
 30
0.0
 70
   192
  0
VERTEX
  8
0
  5
AD
 10
2.0
 20
3.0
 30
0.0
 70
   192
  0
VERTEX
  8
0
  5
AE
 10
1.5
 20
2.866025
 30
0.0
 70
   192
  0
VERTEX
  8
0
  5
AF
 10
1.133975
 20
2.5
 30
0.0
 70
   192
  0
VERTEX
  8
0
  5
B0
 10
2.866025
 20
1.5
 30
0.0
 70
   192
  0
VERTEX
  8
0
  5
B1
 10
2.5
 20
1.133975
 30
0.0
 70
   192
  0
VERTEX
  8
0
  5
B2
 10
2.0
 20
1.0
 30
0.0
 70
   192
  0
VERTEX
  8
0
  5
B3
 10
0.0
 20
0.0
 30
0.0
 70
   192
  0
VERTEX
  8
0
  5
B4
 10
1.0
 20
2.0
 30
0.0
 70
   192
  0
VERTEX
  8
0
  5
B5
 10
1.133975
 20
1.5
 30
0.0
 70
   192
  0
VERTEX
  8
0
  5
B6
 10
1.5
 20
1.133975
 30
0.0
 70
   192
  0
VERTEX
  8
0
 62
     7
  5
B7
 10
0.0
 20
0.0
 30
0.0
 70
   128
 71
     1
 72
    -2
 73
    -3
  0
VERTEX
  8
0
 62
     7
  5
B8
 10
0.0
 20
0.0
 30
0.0
 70
   128
 71
    -2
 72
     4
 73
    -3
  0
VERTEX
  8
0
 62
     7
  5
B9
 10
0.0
 20
0.0
 30
0.0
 70
   128
 71
    -3
 72
     5
 73
    -1
  0
VERTEX
  8
0
 62
     7
  5
BA
 10
0.0
 20
0.0
 30
0.0
 70
   128
 71
     3
 72
    -6
 73
    -5
  0
VERTEX
  8
0
 62
     7
  5
BB
 10
0.0
 20
0.0
 30
0.0
 70
   128
 71
     2
 72
    -7
 73
    -4
  0
VERTEX
  8
0
 62
     7
  5
BC
 10
0.0
 20
0.0
 30
0.0
 70
   128
 71
     7
 72
    -8
 73
    -4
  0
VERTEX
  8
0
 62
     7
  5
BD
 10
0.0
 20
0.0
 30
0.0
 70
   128
 71
     8
 72
    -9
 73
    -4
  0
VERTEX
  8
0
 62
     7
  5
BE
 10
0.0
 20
0.0
 30
0.0
 70
   128
 71
    -6
 72
    10
 73
    -5
  0
VERTEX
  8
0
 62
     7
  5
BF
 10
0.0
 20
0.0
 30
0.0
 70
   128
 71
    -6
 72
    11
 73
   -10
  0
VERTEX
  8
0
 62
     7
  5
C0
 10
0.0
 20
0.0
 30
0.0
 70
   128
 71
    -6
 72
    12
 73
   -11
  0
VERTEX
  8
0
 62
     7
  5
C1
 10
0.0
 20
0.0
 30
0.0
 70
   128
 71
    -9
 72
    13
 73
    -4
  0
VERTEX
  8
0
 62
     7
  5
C2
 10
0.0
 20
0.0
 30
0.0
 70
   128
 71
     9
 72
   -14
 73
   -13
  0
VERTEX
  8
0
 62
     7
  5
C3
 10
0.0
 20
0.0
 30
0.0
 70
   128
 71
    14
 72
   -15
 73
   -13
  0
VERTEX
  8
0
 62
     7
  5
C4
 10
0.0
 20
0.0
 30
0.0
 70
   128
 71
    15
 72
   -16
 73
   -13
  0
VERTEX
  8
0
 62
     7
  5
C5
 10
0.0
 20
0.0
 30
0.0
 70
   128
 71
   -16
 72
     6
 73
   -13
  0
VERTEX
  8
0
 62
     7
  5
C6
 10
0.0
 20
0.0
 30
0.0
 70
   128
 71
    16
 72
   -12
 73
    -6
  0
SEQEND
  8
0
 62
     7
  5
C7
  0
POLYLINE
  8
0
 62
     7
  5
C8
 66
     1
 10
0.0
 20
0.0
 30
0.0
 70
    64
  0
VERTEX
  8
0
  5
C9
 10
1.0
 20
2.0
 30
0.0
 70
   192
  0
VERTEX
  8
0
  5
CA
 10
1.133975
 20
1.5
 30
0.0
 70
   192
  0
VERTEX
  8
0
  5
CB
 10
1.133975
 20
1.5
 30
4.0
 70
   192
  0
VERTEX
  8
0
  5
CC
 10
1.0
 20
2.0
 30
4.0
 70
   192
  0
VERTEX
  8
0
  5
CD
 10
1.5
 20
1.133975
 30
0.0
 70
   192
  0
VERTEX
  8
0
  5
CE
 10
1.5
 20
1.133975
 30
4.0
 70
   192
  0
VERTEX
  8
0
  5
CF
 10
2.0
 20
1.0
 30
4.0
 70
   192
  0
VERTEX
  8
0
  5
D0
 10
2.0
 20
1.0
 30
0.0
 70
   192
  0
VERTEX
  8
0
  5
D1
 10
2.5
 20
1.133975
 30
0.0
 70
   192
  0
VERTEX
  8
0
  5
D2
 10
2.5
 20
1.133975
 30
4.0
 70
   192
  0
VERTEX
  8
0
  5
D3
 10
2.866025
 20
1.5
 30
0.0
 70
   192
  0
VERTEX
  8
0
  5
D4
 10
2.866025
 20
1.5
 30
4.0
 70
   192
  0
VERTEX
  8
0
  5
D5
 10
3.0
 20
2.0
 30
0.0
 70
   192
  0
VERTEX
  8
0
  5
D6
 10
3.0
 20
2.0
 30
4.0
 70
   192
  0
VERTEX
  8
0
  5
D7
 10
2.866025
 20
2.5
 30
4.0
 70
   192
  0
VERTEX
  8
0
  5
D8
 10
2.866025
 20
2.5
 30
0.0
 70
   192
  0
VERTEX
  8
0
  5
D9
 10
2.5
 20
2.866025
 30
0.0
 70
   192
  0
VERTEX
  8
0
  5
DA
 10
2.5
 20
2.866025
 30
4.0
 70
   192
  0
VERTEX
  8
0
  5
DB
 10
2.0
 20
3.0
 30
0.0
 70
   192
  0
VERTEX
  8
0
  5
DC
 10
2.0
 20
3.0
 30
4.0
 70
   192
  0
VERTEX
  8
0
  5
DD
 10
1.5
 20
2.866025
 30
0.0
 70
   192
  0
VERTEX
  8
0
  5
DE
 10
1.5
 20
2.866025
 30
4.0
 70
   192
  0
VERTEX
  8
0
  5
DF
 10
1.133975
 20
2.5
 30
4.0
 70
   192
  0
VERTEX
  8
0
  5
E0
 10
1.133975
 20
2.5
 30
0.0
 70
   192
  0
VERTEX
  8
0
 62
     7
  5
E1
 10
0.0
 20
0.0
 30
0.0
 70
   128
 71
    -1
 72
     3
 73
     2
  0
VERTEX
  8
0
 62
     7
  5
E2
 10
0.0
 20
0.0
 30
0.0
 70
   128
 71
    -3
 72
     1
 73
     4
  0
VERTEX
  8
0
 62
     7
  5
E3
 10
0.0
 20
0.0
 30
0.0
 70
   128
 71
     3
 72
     6
 73
    -5
  0
VERTEX
  8
0
 62
     7
  5
E4
 10
0.0
 20
0.0
 30
0.0
 70
   128
 71
    -3
 72
     5
 73
     2
  0
VERTEX
  8
0
 62
     7
  5
E5
 10
0.0
 20
0.0
 30
0.0
 70
   128
 71
     6
 72
    -7
 73
     5
  0
VERTEX
  8
0
 62
     7
  5
E6
 10
0.0
 20
0.0
 30
0.0
 70
   128
 71
    -5
 72
     7
 73
     8
  0
VERTEX
  8
0
 62
     7
  5
E7
 10
0.0
 20
0.0
 30
0.0
 70
   128
 71
    -7
 72
     9
 73
     8
  0
VERTEX
  8
0
 62
     7
  5
E8
 10
0.0
 20
0.0
 30
0.0
 70
   128
 71
    -9
 72
     7
 73
    10
  0
VERTEX
  8
0
 62
     7
  5
E9
 10
0.0
 20
0.0
 30
0.0
 70
   128
 71
    -9
 72
    12
 73
    11
  0
VERTEX
  8
0
 62
     7
  5
EA
 10
0.0
 20
0.0
 30
0.0
 70
   128
 71
   -12
 72
     9
 73
    10
  0
VERTEX
  8
0
 62
     7
  5
EB
 10
0.0
 20
0.0
 30
0.0
 70
   128
 71
    12
 72
    14
 73
   -13
  0
VERTEX
  8
0
 62
     7
  5
EC
 10
0.0
 20
0.0
 30
0.0
 70
   128
 71
   -12
 72
    13
 73
    11
  0
VERTEX
  8
0
 62
     7
  5
ED
 10
0.0
 20
0.0
 30
0.0
 70
   128
 71
    14
 72
   -15
 73
    13
  0
VERTEX
  8
0
 62
     7
  5
EE
 10
0.0
 20
0.0
 30
0.0
 70
   128
 71
   -13
 72
    15
 73
    16
  0
VERTEX
  8
0
 62
     7
  5
EF
 10
0.0
 20
0.0
 30
0.0
 70
   128
 71
   -15
 72
    17
 73
    16
  0
VERTEX
  8
0
 62
     7
  5
F0
 10
0.0
 20
0.0
 30
0.0
 70
   128
 71
   -17
 72
    15
 73
    18
  0
VERTEX
  8
0
 62
     7
  5
F1
 10
0.0
 20
0.0
 30
0.0
 70
   128
 71
   -17
 72
    20
 73
    19
  0
VERTEX
  8
0
 62
     7
  5
F2
 10
0.0
 20
0.0
 30
0.0
 70
   128
 71
   -20
 72
    17
 73
    18
  0
VERTEX
  8
0
 62
     7
  5
F3
 10
0.0
 20
0.0
 30
0.0
 70
   128
 71
    20
 72
    22
 73
   -21
  0
VERTEX
  8
0
 62
     7
  5
F4
 10
0.0
 20
0.0
 30
0.0
 70
   128
 71
   -20
 72
    21
 73
    19
  0
VERTEX
  8
0
 62
     7
  5
F5
 10
0.0
 20
0.0
 30
0.0
 70
   128
 71
    22
 72
   -23
 73
    21
  0
VERTEX
  8
0
 62
     7
  5
F6
 10
0.0
 20
0.0
 30
0.0
 70
   128
 71
   -21
 72
    23
 73
    24
  0
VERTEX
  8
0
 62
     7
  5
F7
 10
0.0
 20
0.0
 30
0.0
 70
   128
 71
   -23
 72
     1
 73
    24
  0
VERTEX
  8
0
 62
     7
  5
F8
 10
0.0
 20
0.0
 30
0.0
 70
   128
 71
    -1
 72
    23
 73
     4
  0
SEQEND
  8
0
 62
     7
  5
F9
  0
ENDBLK
  8
0
  5
FA
  0
ENDSEC
  0
SECTION
  2
ENTITIES
  0
INSERT
  8
AME_FRZ
  5
3
  2
AME_NIL
 10
0.0
 20
0.0
 30
0.0
  0
INSERT
  8
AME_FRZ
  5
6
  2
AME_SOL
 10
0.0
 20
0.0
 30
0.0
1001
AME_SOL
1000
R2.1
1000
AME2
1000
sq cm
1070
     3
1070
     0
1070
     3
1000
wire
1040
45.0
1000
U
1040
1.0
1000
cm
1000
gm
1000
MILD_STEEL
1070
    25
1000
CSG
1070
     1
1070
     3
1070
     3
1070
     3
1070
     0
1000
cu cm
1070
     1
1070
     0
1005
3
  0
INSERT
  8
AME_FRZ
  5
15
  2
AME_NIL
 10
0.0
 20
0.0
 30
0.0
1001
AME_SOL
1002
{
1070
     1
1071
  2388032
1070
  1536
1070
     1
1010
4.0
1020
4.0
1030
4.0
1005
0
1005
0
1005
39
1040
0.0
1040
1.0
1070
     0
1000
MILD_STEEL
1000
0
1010
0.0
1020
0.0
1030
0.0
1010
0.0
1020
0.0
1030
1.0
1040
0.0
1002
}
1001
AVE_INVOKE
1000
SOLAVEMESH
  0
INSERT
  8
AME_FRZ
  5
21
  2
AME_NIL
 10
2.0
 20
2.0
 30
0.0
1001
AME_SOL
1002
{
1070
     1
1071
  2428096
1070
  1538
1070
     1
1010
1.0
1020
1.0
1030
4.0
1005
0
1005
0
1005
39
1040
0.0
1040
1.0
1070
     0
1000
MILD_STEEL
1000
0
1010
2.0
1020
2.0
1030
0.0
1010
0.0
1020
0.0
1030
1.0
1040
0.0
1002
}
1001
AVE_INVOKE
1000
SOLAVEMESH
  0
INSERT
  8
0
  5
39
  2
*U7
 10
0.0
 20
0.0
 30
0.0
210
0.0
220
-1.0
230
0.0000000000000001
1001
AME_SOL
1002
{
1070
     1
1071
  2409616
1070
  9223
1070
    11
1070
     0
1005
15
1005
21
1005
FB
1005
3A
1005
0
1040
114.846628
1040
1.0
1070
     0
1000
MILD_STEEL
1000
0
1002
}
1001
AVE_INVOKE
1000
SOLAVEMESH
  0
INSERT
  8
AME_FRZ
  5
3A
  2
AME_NIL
 10
1.0
 20
1.0
 30
1.0
1001
AME_SOL
1004
C7CF0100C500620161015F015B015301100048013D0196002C01EE002D008000540149012400A00002005C0155014A01FE0005003F0056014B013E012D0150001E01F200080075003F012E0168000F002F01FB0079004C0140013001F500F3003101BC00E400410132015C0082003301ED001F010900B000
1004
60015D0157014D014201340120014400540021015F00210035012201DF003500230116014D000F010201F70019000301E800E000170110010401CB002E0005012F00310011010601320058000701B800B60074004E0143013601AF00700037012401180112010801B300B20009019000520013010A01AE00
1004
AD000B01A900A70048008400180058014F012800BF0040005E01590150014401380125002501EA00810039012601DA00D9002701190114010C01A6004C000D019B009D000400600001005101F00045010600A8005A01FF00520146013A014E002801DB0030003B01C00029014F001A010C00FC0047010A00
1004
3C012A011B011500EF001C01D700CE002B011D017F00150103000E01A200010107000001A4000000613FA613FA4A63666F7B9CED28D0D1FDD678D41487268AA350521C9A2A8D41487268AAF9BB8AD8902DF37715B1205BE6EE2B6240B679B18873FAA3BF6FD3F253FAA3BF6FD3F251A8290E4D155F83073F
1004
8F73E31ADF83073F8F73E31ADF37715B1205B3613C2816C173B66871D84F1FED17FFFFFFF68BFFFD7FD7FE4FF68BFB45FFFFFF613C7FB45FFFFFFFDA2FFFF5FF5FF93FDA2FED17FFFFF69543184FEB8433FED17FFFFFFF68BFFFB4507EBFF1CF0E8ECDCF524D1087874766E7A926882FF1F3C3A3B373D493
1004
4427FFE059E1D1D9B9EA49A2099FFFF8163A15CE7215CE733FFFF02D0C610F8433FED17FFFFFFF68BFED39CE739C5FDA2FF8E7874766E7A9268843C3A3B373D4934417F8F9E1D1D9B9EA49A213FFF02CF0E8ECDCF524D104CFFFFC0B1D0AE7390AE7399FFFF816863099E10CFFB45FFFFFFFDA2FFB3F31AF
1004
FAFFC73C3A3B373D4934421E1D1D9B9EA49A20BFC7CF0E8ECDCF524D109FFF8167874766E7A92688267FFFE058E85739C85739CCFFFFC0B43185E10CFFB45FFFFFFFDA2FFB4E739CE7159F98D7FE39E1D1D9B9EA49A210F0E8ECDCF524D105FE3E7874766E7A926884FFFC0B3C3A3B373D49344133FFFF02
1004
C742B9CE42B9CE67FFFE059B18898D41487268AA350521C9A2A8D41487268AAF9BB8AD8902DF37715B12058D41487268959A5BC06F660B3D9A1E33A5BC7FFFB45FFFDA2FFFFFFFFFF93FFFFFFFFFF4B78FFFF68BFFFB45FFFFFFFFFF27FFFFFFFFFB45363131B1A8290E4D1546A0A43934551A8290E4D155
1004
F37715B12058D4148726895F37715B1205B34B7879B144B3D9A1DB3A5BC7FB45FFFFFFFFFDA2FFFFFF93FFFFFFFFFF4B78FF68BFFFFFFFFFB45FFFFFF27FFFFFFFFFB45363131B1A8290E4D1546A0A43934551A8290E4D1546A0A439344AF9BB8AD8902DF37715B1205B34B784AB104B3D9BCD9D2DE3FFFF
1004
FDA2FFFED17FFFFFFFC9FFFFFFFFFFA5BC7FFFFFB45FFFDA2FFFFFFFF93FFFFFFFFFDA29B18898D41487268AA350521C9A2A9F24433938355BE6EE2B6240B7CDDC56C4816F9BB8AD8902D9A5BC31DE4259ECD0E99D2DE3FDA57F87FC3FE1FED2BFC3FC0BFC0BFC0B27FFFFFFFFFE96F1FED2BFC3FE1FF0FF
1004
695FE1FE05FE05FE0593FFFFFFFFFDA29B1898D8D41487268AA7C910CE4E0D56350521C9A2ABE6EE2B6240B7CDDC56C4816F9BB8AD8902D9A5BC26C312CF66872CE96F1FF0FF87FB4AFED2BFC3FE1FE05FE05FE0593FFFFFFFFFF4B78FF87FC3FDA57F695FE1FF0FF02FF02FF02C9FFFFFFFFFED14D8C4C6
1004
CF92219C9C1AAC6A0A43934551A8290E4D155F37715B1205BE6EE2B6240B7CDDC56C4816CD2DE0C1112CF6616CE96F1FF0FF695FE1FF0FF87FB4AFE05FE05FE0593FFFFFFFFFF4B78FF87FB4AFF0FF87FC3FDA57F02FF02FF02C9FFFFFFFFFED15FE147F5477EDFA7E4A7F5477EDFA7E4A7C910CE4E0D56F
1004
C1839FC7B9F18D6FC1839FC7B9F18D6F9BB8AD8902D40B40204D9067E7A502D008136419F963BDE65E98C583B373940B60B1DE4271D8EF212A05B059EE739CF799FF68BFFFFFFFB45FFFEBFEBFC0B637FB45FDA2A81680409B20CFCF4A05A01026C833F2DFE147F5477EDFA7E4A7F5477EDFA7E4A350521C
1004
9A2ABF060E7F1EE7C635BF060E7F1EE7C6358D414872689540B40204D9067E7A502D008136419F963BDE65289E183B9CCD40B6086F660E3A816C10DECC1739CE67BDE67FDA2FFFFFFFED17FFFAFFAFFD8DFED17F68AA05A01026C833F3D281680409B20CFCB7F850D41487268AA7C910CE4E0D56350521C9
1004
A2ABE6EE2B6240B7CDDC56C4816350521C9A25FEF5FD638432B63313B9CCC37B30536189C70DECC14D86259ECF0867FFFDA2FFFFFFFED2BFD7F817FE3FF7AFEB7F851F244339383558D41487268AA350521C9A2ABE6EE2B6240B7CDDC56C4816350521C9A25FEF5FD63843287AFEC27739986F6609822271
1004
C37B304C1112CF678433FED17FFFFFFFFF695FC0BFEBFF1FFBD7F5BFC286A0A43934551A8290E4D1546A0A43934551A8290E4D12BE6EE2B6240B1A8290E4D12FE07AFE18E10CA1F31909DCE661BD982956209C70DECC14AB104B3D9E10CFFB4AFFFFFFFFFED2BFFFFFE3FE07AFE1BFC286A0A43934551A82
1004
90E4D1546A0A43934557CDDC56C4816350521C9A251A8290E4D12FFFE058E10CA1BB1809DCE661BD982F36289C70DECC179B144B3D9E10CFFFFB4AFFFFFFFED2BFFFFFE3FFFE05BFC286A0A43934551A8290E4D154F92219C9C1AADF37715B12058D4148726895F37715B1205FF7AFEB1C219494A713B9CC
1004
DE6C512C77909C779B144B1DE4259ECF0867FFFFFDA2FFFED2BFFFD7FFF8163FF7AFEB7F851F244339383558D41487268AA350521C9A2ABE6EE2B6240B1A8290E4D12BE6EE2B6240BFEF5FD63843286C87E277399BCD8A24C11138EF3628930444B3D9E10CFFB45FFFFFFFDA57FFF02FFFFAC7FEF5FD6FF0
1004
A1A8290E4D1546A0A43934551A8290E4D1546A0A439344A350521C9A257CDDC56C4817FFF816384329A5289DCE66F362894AB104E3BCD8A252AC412CF678433FED2BFFFFFFFB4AFFFFFFFF8FFFF816FF0A1A8290E4D1546A0A43934553E488672706AB1A8290E4D12BE6EE2B6240B7CDDC56C4817FDEBFAC
1004
7086544A413B9CCD2AC412C77909C74AB104B1DE4259ECF0867FFFFFDA2FED2BFFFFFFFD7F8163FF7AFEB7F850D41487268AA7C910CE4E0D56350521C9A2A8D4148726895F37715B1205BE6EE2B6240BFEF5FD6384321A409DCE669562094D86271D2AC4129B0C4B3D9E10CFFFFB45FFFDA57FFFFFFF02FF
1004
AC7FEF5FD6FF0A1A8290E4D154F92219C9C1AACF92219C9C1AADF37715B1205BE6EE2B6240B7CDDC56C4817F81EBF86384327F3F89DCE66C779094D86271D8EF2129B0C4B3D9E10CFFFFB45FFFFFFFDA2FE05FE05FE058FF81EBF86FF0A3E488672706AB1A8290E4D154F92219C9C1AADF37715B1205BE6E
1004
E2B6240B7CDDC56C4817FFF816384334A113B9CCD8EF21260889C763BC849822259ECF0867FDA2FFFFFF0FFFF68BF817F817F8163FFFE05BFC28F92219C9C1AACF92219C9C1AAC6A0A43934557CDDC56C4816F9BB8AD8902DF37715B1205FE07AFE18E10CBCD2804EE7334D8624C11138E9B0C49822259EC
1004
F0867FDA2FFFFFFFED17FFF02FF02FF02C7FC0F5FC34357BDFDE
1005
3B
  0
INSERT
  8
AME_FRZ
  5
3B
  2
AME_NIL
 10
1.0
 20
1.0
 30
1.0
1001
AME_SOL
1004

1005
0
  0
INSERT
  8
AME_FRZ
  5
FB
  2
*U4
 10
0.0
 20
0.0
 30
0.0
  0
ENDSEC
  0
EOF
