700 0 2 0           
24 FBMach with ACIS - 7.0.3 13 ACIS 7.0.3 NT 24 Tue May 14 09:58:26 2002 
1 9.9999999999999995e-007 1e-010 
body $2 -1 $-1 $3 $-1 $4 #
bdycol-kcp $-1 -1 1 4 $5 $6 $7 $8 #
model_id-kcp-attrib $-1 -1 $-1 $-1 $0 1 1021384705 1021384706 -551616511 1 #
lump $-1 -1 $-1 $-1 $9 $0 #
transform $-1 -1 1 0 0 0 1 0 0 0 1 0 0 0 1 rotate no_reflect no_shear #
body $10 -1 $-1 $11 $-1 $12 #
body $13 -1 $-1 $14 $-1 $15 #
body $16 -1 $-1 $17 $-1 $18 #
body $19 -1 $-1 $20 $-1 $21 #
shell $-1 -1 $-1 $-1 $-1 $22 $-1 $3 #
model_id-kcp-attrib $-1 -1 $-1 $-1 $5 1 1021384705 1021384706 -551616510 1 #
lump $-1 -1 $-1 $-1 $23 $5 #
transform $-1 -1 1 0 0 0 1 0 0 0 1 0 0 17.5 1 no_rotate no_reflect no_shear #
rgb_color-st-attrib $-1 -1 $24 $-1 $6 1 1 0.5 #
lump $-1 -1 $-1 $-1 $25 $6 #
transform $-1 -1 1 0 0 0 -1 0 0 0 -1 0 0 6.8686935486365517 1 rotate no_reflect no_shear #
rgb_color-st-attrib $-1 -1 $26 $-1 $7 0.5 1 1 #
lump $-1 -1 $-1 $-1 $27 $7 #
transform $-1 -1 1 0 0 0 1 0 0 0 1 0 0 17.5 1 no_rotate no_reflect no_shear #
rgb_color-st-attrib $-1 -1 $28 $-1 $8 0.5 1 1 #
lump $-1 -1 $-1 $-1 $29 $8 #
transform $-1 -1 1 0 0 0 1 0 0 0 1 0 0 17.5 1 no_rotate no_reflect no_shear #
face $30 -1 $-1 $31 $32 $9 $-1 $33 reversed single #
shell $-1 -1 $-1 $-1 $-1 $34 $-1 $11 #
model_id-kcp-attrib $-1 -1 $-1 $13 $6 1 1021384705 1021384706 -550961149 1 #
shell $-1 -1 $-1 $-1 $-1 $35 $-1 $14 #
model_id-kcp-attrib $-1 -1 $-1 $16 $7 1 1021384705 1021384706 -549650428 1 #
shell $-1 -1 $-1 $-1 $-1 $36 $-1 $17 #
model_id-kcp-attrib $-1 -1 $-1 $19 $8 1 1021384705 1021384706 -547028987 1 #
shell $-1 -1 $-1 $-1 $-1 $37 $-1 $20 #
model_id-kcp-attrib $-1 -1 $38 $-1 $22 1 1021384705 1021384706 -551616511 2 #
face $39 -1 $-1 $40 $41 $9 $-1 $42 forward single #
loop $43 -1 $-1 $44 $45 $22 #
plane-surface $46 -1 $-1 0 0 0 0 0 1 1 0 0 forward_v I I I I #
face $47 -1 $-1 $48 $49 $23 $-1 $50 forward single #
face $-1 -1 $-1 $51 $52 $25 $-1 $53 reversed single #
face $-1 -1 $-1 $54 $55 $27 $-1 $56 forward single #
face $-1 -1 $-1 $57 $58 $29 $-1 $59 reversed single #
face_name-twe-attrib $-1 -1 $-1 $30 $22 1 #
model_id-kcp-attrib $-1 -1 $60 $-1 $31 1 1021384705 1021384706 -551616511 3 #
face $61 -1 $-1 $62 $63 $9 $-1 $64 forward single #
loop $65 -1 $-1 $66 $67 $31 #
plane-surface $68 -1 $-1 0 0 35 0 0 1 1 0 0 forward_v I I I I #
loop_type-twe-attrib $-1 -1 $-1 $-1 $32 0 #
loop $69 -1 $-1 $-1 $70 $22 #
coedge $-1 -1 $-1 $45 $45 $71 $72 forward $32 $-1 #
surf-twe-attrib $-1 -1 $-1 $-1 $33 4 #
model_id-kcp-attrib $-1 -1 $-1 $-1 $34 1 1021384705 1021384706 -551616510 3 #
face $73 -1 $-1 $74 $75 $23 $-1 $76 reversed single #
loop $-1 -1 $-1 $-1 $77 $34 #
plane-surface $-1 -1 $-1 0 0 17.5 0 0 1 1 0 0 forward_v I I I I #
face $-1 -1 $-1 $78 $79 $25 $-1 $80 forward single #
loop $-1 -1 $-1 $81 $82 $35 #
cone-surface $-1 -1 $-1 0 0 13.737387097273094 0 0 1 7.5 0 0 1 I I -0.3420201433256691 0.93969262078590832 7.5 forward I I I I #
face $-1 -1 $-1 $83 $84 $27 $-1 $85 forward single #
loop $-1 -1 $-1 $86 $87 $36 #
cone-surface $-1 -1 $-1 0 0 0 0 0 1 6 0 0 1 I I 0 1 6 forward I I I I #
face $-1 -1 $-1 $88 $89 $29 $-1 $59 reversed single #
loop $-1 -1 $-1 $-1 $90 $37 #
cone-surface $-1 -1 $-1 -5.6237277068330154e-032 0 -17.5 0 0 -1 15 0 0 1 I I 0 1 15 forward I I I I #
face_name-twe-attrib $-1 -1 $-1 $39 $31 2 #
model_id-kcp-attrib $-1 -1 $91 $-1 $40 1 1021384705 1021384706 -551616511 4 #
face $92 -1 $-1 $93 $94 $9 $-1 $95 reversed single #
loop $96 -1 $-1 $97 $98 $40 #
cone-surface $99 -1 $-1 0 0 0 0 0 1 15 0 0 1 I I 0 1 15 forward I I I I #
loop_type-twe-attrib $-1 -1 $-1 $-1 $41 0 #
loop $100 -1 $-1 $-1 $101 $31 #
coedge $-1 -1 $-1 $67 $67 $102 $103 reversed $41 $-1 #
surf-twe-attrib $-1 -1 $-1 $-1 $42 6 #
model_id-kcp-attrib $-1 -1 $104 $-1 $44 1 1021384705 1021384706 -551616511 11 #
coedge $-1 -1 $-1 $70 $70 $105 $106 forward $44 $-1 #
coedge $-1 -1 $-1 $71 $71 $45 $72 reversed $107 $-1 #
edge $108 -1 $-1 $109 -3.1415926535897989 $109 3.1415926535897873 $71 $110 forward @7 unknown #
model_id-kcp-attrib $-1 -1 $-1 $-1 $48 1 1021384705 1021384706 -551616510 2 #
face $-1 -1 $-1 $111 $112 $23 $-1 $113 reversed single #
loop $-1 -1 $-1 $-1 $114 $48 #
plane-surface $-1 -1 $-1 0 0 -17.5 0 0 1 1 0 0 forward_v I I I I #
coedge $-1 -1 $-1 $115 $116 $117 $118 forward $49 $-1 #
face $-1 -1 $-1 $-1 $119 $25 $-1 $120 forward single #
loop $-1 -1 $-1 $121 $122 $51 #
cone-surface $-1 -1 $-1 0 0 0 0 0 1 15 0 0 1 I I 0 1 15 forward I I I I #
loop $-1 -1 $-1 $-1 $123 $35 #
coedge $-1 -1 $-1 $82 $82 $124 $125 reversed $52 $-1 #
face $-1 -1 $-1 $-1 $126 $27 $-1 $127 forward single #
loop $-1 -1 $-1 $-1 $128 $54 #
plane-surface $-1 -1 $-1 0 0 -17.5 0 0 -1 -1 0 0 forward_v I I I I #
loop $-1 -1 $-1 $-1 $129 $36 #
coedge $-1 -1 $-1 $87 $87 $128 $130 reversed $55 $-1 #
face $-1 -1 $-1 $131 $132 $29 $-1 $59 reversed single #
loop $-1 -1 $-1 $-1 $133 $57 #
coedge $-1 -1 $-1 $134 $135 $136 $137 forward $58 $-1 #
face_name-twe-attrib $-1 -1 $-1 $61 $40 3 #
model_id-kcp-attrib $-1 -1 $138 $-1 $62 1 1021384705 1021384706 -551616511 5 #
face $139 -1 $-1 $-1 $107 $9 $-1 $140 forward single #
loop $141 -1 $-1 $142 $105 $62 #
cone-surface $143 -1 $-1 0 0 0 0 0 1 6 0 0 1 I I 0 1 6 forward I I I I #
loop_type-twe-attrib $-1 -1 $-1 $-1 $63 0 #
loop $144 -1 $-1 $-1 $102 $40 #
coedge $-1 -1 $-1 $98 $98 $145 $146 reversed $63 $-1 #
surf-twe-attrib $-1 -1 $-1 $-1 $64 10 #
model_id-kcp-attrib $-1 -1 $147 $-1 $66 1 1021384705 1021384706 -551616511 12 #
coedge $-1 -1 $-1 $101 $101 $148 $149 reversed $66 $-1 #
coedge $-1 -1 $-1 $102 $102 $67 $103 forward $97 $-1 #
edge $150 -1 $-1 $151 0 $151 6.2831853071795862 $102 $152 forward @7 unknown #
loop_type-twe-attrib $-1 -1 $-1 $69 $44 1 #
coedge $-1 -1 $-1 $105 $105 $70 $106 reversed $94 $-1 #
edge $153 -1 $-1 $154 -3.1415926535897931 $154 3.1415926535897931 $105 $155 forward @7 unknown #
loop $156 -1 $-1 $157 $71 $93 #
attrib_edge_convexity-kcp-attrib $-1 -1 $158 $-1 $72 1 #
vertex $-1 -1 $-1 $72 $159 #
ellipse-curve $160 -1 $-1 0 0 4.0000000000000003e-015 0 0 -1 -10 1e-014 0 1 I I #
face $-1 -1 $-1 $161 $162 $23 $-1 $163 reversed single #
loop $-1 -1 $-1 $-1 $164 $74 #
plane-surface $-1 -1 $-1 0 -15 0 0 1 0 0 0 1 forward_v I I I I #
coedge $-1 -1 $-1 $165 $166 $167 $168 forward $75 $-1 #
coedge $-1 -1 $-1 $169 $77 $170 $171 forward $49 $-1 #
coedge $-1 -1 $-1 $77 $169 $172 $173 forward $49 $-1 #
coedge $-1 -1 $-1 $174 $175 $77 $118 reversed $176 $-1 #
edge $-1 -1 $-1 $177 -15 $178 15 $117 $179 forward @7 unknown #
loop $-1 -1 $-1 $180 $124 $78 #
plane-surface $-1 -1 $-1 0 0 6.8686935486365481 0 0 1 1 0 0 forward_v I I I I #
loop $-1 -1 $-1 $-1 $181 $51 #
coedge $-1 -1 $-1 $122 $122 $123 $182 reversed $79 $-1 #
coedge $-1 -1 $-1 $123 $123 $122 $182 forward $81 $-1 #
coedge $-1 -1 $-1 $124 $124 $82 $125 forward $119 $-1 #
edge $-1 -1 $-1 $183 -3.1415926535897931 $183 3.1415926535897931 $124 $184 forward @7 unknown #
loop $-1 -1 $-1 $-1 $185 $83 #
plane-surface $-1 -1 $-1 0 0 17.5 0 0 1 1 0 0 forward_v I I I I #
coedge $-1 -1 $-1 $128 $128 $87 $130 forward $84 $-1 #
coedge $-1 -1 $-1 $129 $129 $185 $186 reversed $86 $-1 #
edge $-1 -1 $-1 $187 0 $187 6.2831853071795862 $128 $188 forward @7 unknown #
face $-1 -1 $-1 $189 $190 $29 $-1 $59 reversed single #
loop $-1 -1 $-1 $-1 $191 $88 #
coedge $-1 -1 $-1 $192 $136 $193 $194 reversed $89 $-1 #
coedge $-1 -1 $-1 $195 $90 $196 $197 reversed $58 $-1 #
coedge $-1 -1 $-1 $90 $195 $198 $199 reversed $58 $-1 #
coedge $-1 -1 $-1 $133 $200 $201 $137 reversed $89 $-1 #
edge $-1 -1 $-1 $202 -35 $203 0 $201 $204 forward @7 unknown #
face_name-twe-attrib $-1 -1 $-1 $92 $62 4 #
model_id-kcp-attrib $-1 -1 $205 $-1 $93 1 1021384705 1021384706 -551616511 6 #
cone-surface $206 -1 $-1 0 0 13.7373870972731 0 0 1 -15 0 0 1 I I 0.34202014332566899 0.93969262078590798 15 forward I I I I #
model_id-kcp-attrib $-1 -1 $207 $-1 $94 1 1021384705 1021384706 -551616511 9 #
loop $208 -1 $-1 $-1 $148 $62 #
surf-twe-attrib $-1 -1 $-1 $-1 $95 18 #
loop_type-twe-attrib $-1 -1 $-1 $-1 $97 1 #
coedge $-1 -1 $-1 $145 $145 $98 $146 forward $157 $-1 #
edge $209 -1 $-1 $210 -3.1415926535897931 $210 3.1415926535897931 $145 $211 forward @7 unknown #
loop_type-twe-attrib $-1 -1 $-1 $100 $66 1 #
coedge $-1 -1 $-1 $148 $148 $101 $149 forward $142 $-1 #
edge $212 -1 $-1 $213 0 $213 6.2831853071795862 $148 $214 forward @7 unknown #
edge_name-twe-attrib $-1 -1 $-1 $-1 $103 1 8704 #
vertex $-1 -1 $-1 $103 $215 #
ellipse-curve $216 -1 $-1 0 0 35 0 0 -1 15 0 0 1 I I #
attrib_edge_convexity-kcp-attrib $-1 -1 $217 $-1 $106 1 #
vertex $218 -1 $-1 $106 $219 #
ellipse-curve $220 -1 $-1 0 0 0 0 0 1 -6 0 0 1 I I #
loop_type-twe-attrib $-1 -1 $-1 $-1 $107 0 #
loop $221 -1 $-1 $-1 $145 $93 #
convexity-sys-attrib $-1 -1 $222 $108 $72 #
point $-1 -1 $-1 10 5.0000000000000002e-014 4.0000000000000003e-015 #
cur-twe-attrib $-1 -1 $-1 $-1 $110 28 #
face $-1 -1 $-1 $223 $224 $23 $-1 $225 reversed single #
loop $-1 -1 $-1 $-1 $226 $111 #
plane-surface $-1 -1 $-1 -15 0 0 1 0 0 0 0 -1 forward_v I I I I #
coedge $-1 -1 $-1 $227 $172 $228 $229 forward $112 $-1 #
coedge $-1 -1 $-1 $230 $114 $227 $231 forward $75 $-1 #
coedge $-1 -1 $-1 $114 $230 $232 $233 forward $75 $-1 #
coedge $-1 -1 $-1 $175 $174 $114 $168 reversed $176 $-1 #
edge $-1 -1 $-1 $234 -15 $235 15 $167 $236 forward @7 unknown #
coedge $-1 -1 $-1 $116 $115 $237 $238 forward $49 $-1 #
coedge $-1 -1 $-1 $239 $240 $115 $171 reversed $224 $-1 #
edge $-1 -1 $-1 $178 -15 $241 15 $170 $242 forward @7 unknown #
coedge $-1 -1 $-1 $164 $243 $116 $173 reversed $112 $-1 #
edge $-1 -1 $-1 $244 -15 $177 15 $172 $245 forward @7 unknown #
coedge $-1 -1 $-1 $167 $117 $243 $246 forward $176 $-1 #
coedge $-1 -1 $-1 $117 $167 $239 $247 reversed $176 $-1 #
loop $-1 -1 $-1 $-1 $174 $223 #
vertex $-1 -1 $-1 $118 $248 #
vertex $-1 -1 $-1 $118 $249 #
straight-curve $-1 -1 $-1 15 0 17.5 0 1 0 I I #
loop $-1 -1 $-1 $-1 $250 $78 #
coedge $-1 -1 $-1 $181 $181 $250 $251 reversed $121 $-1 #
edge $-1 -1 $-1 $252 0 $252 6.2831853071795862 $122 $253 forward @7 unknown #
vertex $-1 -1 $-1 $125 $254 #
ellipse-curve $-1 -1 $-1 0 0 6.8686935486365481 0 0 -1 10 0 0 1 I I #
coedge $-1 -1 $-1 $185 $185 $129 $186 forward $126 $-1 #
edge $-1 -1 $-1 $255 0 $255 6.2831853071795862 $185 $256 forward @7 unknown #
vertex $-1 -1 $-1 $130 $257 #
ellipse-curve $-1 -1 $-1 0 0 -17.5 0 0 -1 6 0 0 1 I I #
face $-1 -1 $-1 $258 $259 $29 $-1 $260 reversed single #
loop $-1 -1 $-1 $-1 $261 $131 #
coedge $-1 -1 $-1 $262 $263 $264 $265 reversed $132 $-1 #
coedge $-1 -1 $-1 $200 $133 $266 $267 forward $89 $-1 #
coedge $-1 -1 $-1 $268 $269 $133 $194 forward $270 $-1 #
edge $-1 -1 $-1 $271 -3.1415926535897931 $202 -1.5707963267948966 $193 $272 forward @7 unknown #
coedge $-1 -1 $-1 $135 $134 $273 $274 reversed $58 $-1 #
coedge $-1 -1 $-1 $275 $276 $134 $197 forward $277 $-1 #
edge $-1 -1 $-1 $278 0 $203 1.5707963267948966 $196 $279 forward @7 unknown #
coedge $-1 -1 $-1 $280 $281 $135 $199 forward $282 $-1 #
edge $-1 -1 $-1 $202 -1.5707963267948966 $283 0 $198 $272 forward @7 unknown #
coedge $-1 -1 $-1 $136 $192 $284 $285 reversed $89 $-1 #
coedge $-1 -1 $-1 $286 $287 $288 $137 forward $289 $-1 #
vertex $-1 -1 $-1 $290 $291 #
vertex $-1 -1 $-1 $292 $293 #
straight-curve $-1 -1 $-1 -5.6237277068330154e-032 15 -17.5 0 0 -1 I I #
face_name-twe-attrib $-1 -1 $-1 $139 $93 5 #
surf-twe-attrib $-1 -1 $-1 $-1 $140 30 #
loop_type-twe-attrib $-1 -1 $-1 $141 $94 0 #
model_id-kcp-attrib $-1 -1 $294 $-1 $142 1 1021384705 1021384706 -551616511 10 #
attrib_edge_convexity-kcp-attrib $-1 -1 $295 $-1 $146 1 #
vertex $-1 -1 $-1 $146 $296 #
ellipse-curve $297 -1 $-1 0 0 13.7373870972731 0 0 -1 -15 0 0 1 I I #
attrib_edge_convexity-kcp-attrib $-1 -1 $298 $-1 $149 1 #
vertex $299 -1 $-1 $149 $300 #
ellipse-curve $301 -1 $-1 0 0 35 0 0 1 6 0 0 1 I I #
point $-1 -1 $-1 15 0 35 #
cur-twe-attrib $-1 -1 $-1 $-1 $152 40 #
convexity-sys-attrib $-1 -1 $302 $153 $106 #
model_id-kcp-attrib $-1 -1 $-1 $-1 $154 1 1021384705 1021384706 -551616511 13 #
point $-1 -1 $-1 6 0 0 #
cur-twe-attrib $-1 -1 $-1 $-1 $155 42 #
loop_type-twe-attrib $-1 -1 $-1 $-1 $157 1 #
edge_name-twe-attrib $-1 -1 $-1 $158 $72 4 8448 #
face $-1 -1 $-1 $-1 $176 $23 $-1 $303 reversed single #
loop $-1 -1 $-1 $-1 $239 $161 #
plane-surface $-1 -1 $-1 0 15 0 0 -1 0 0 0 -1 forward_v I I I I #
coedge $-1 -1 $-1 $304 $237 $240 $305 forward $162 $-1 #
coedge $-1 -1 $-1 $243 $164 $165 $231 reversed $112 $-1 #
coedge $-1 -1 $-1 $237 $304 $164 $229 reversed $162 $-1 #
edge $-1 -1 $-1 $244 -17.5 $306 17.5 $228 $307 forward @7 unknown #
coedge $-1 -1 $-1 $166 $165 $304 $308 forward $75 $-1 #
edge $-1 -1 $-1 $235 -15 $306 15 $227 $309 forward @7 unknown #
coedge $-1 -1 $-1 $240 $239 $166 $233 reversed $224 $-1 #
edge $-1 -1 $-1 $310 -15 $234 15 $232 $311 forward @7 unknown #
vertex $-1 -1 $-1 $168 $312 #
vertex $-1 -1 $-1 $246 $313 #
straight-curve $-1 -1 $-1 15 0 -17.5 0 -1 0 I I #
coedge $-1 -1 $-1 $226 $228 $169 $238 reversed $162 $-1 #
edge $-1 -1 $-1 $241 -15 $244 15 $237 $314 forward @7 unknown #
coedge $-1 -1 $-1 $232 $170 $175 $247 forward $224 $-1 #
coedge $-1 -1 $-1 $170 $232 $226 $305 reversed $224 $-1 #
vertex $-1 -1 $-1 $171 $315 #
straight-curve $-1 -1 $-1 0 15 17.5 -1 0 0 I I #
coedge $-1 -1 $-1 $172 $227 $174 $246 reversed $112 $-1 #
vertex $-1 -1 $-1 $238 $316 #
straight-curve $-1 -1 $-1 0 -15 17.5 1 0 0 I I #
edge $-1 -1 $-1 $177 -17.5 $235 17.5 $174 $317 forward @7 unknown #
edge $-1 -1 $-1 $178 -17.5 $234 17.5 $175 $318 forward @7 unknown #
point $-1 -1 $-1 15 -15 17.5 #
point $-1 -1 $-1 15 15 17.5 #
coedge $-1 -1 $-1 $250 $250 $181 $251 forward $180 $-1 #
edge $-1 -1 $-1 $319 0 $319 6.2831853071795862 $250 $320 forward @7 unknown #
vertex $-1 -1 $-1 $182 $321 #
ellipse-curve $-1 -1 $-1 0 0 -6.8686935486365481 0 0 -1 15 0 0 1 I I #
point $-1 -1 $-1 -10 1.2246063538223773e-015 6.8686935486365481 #
vertex $-1 -1 $-1 $186 $322 #
ellipse-curve $-1 -1 $-1 0 0 17.5 0 0 1 6 0 0 1 I I #
point $-1 -1 $-1 6 0 -17.5 #
face $-1 -1 $-1 $323 $289 $29 $-1 $324 reversed single #
loop $-1 -1 $-1 $-1 $273 $189 #
plane-surface $-1 -1 $-1 15 0 0 -1 0 0 0 0 1 forward_v I I I I #
coedge $-1 -1 $-1 $266 $325 $326 $327 reversed $190 $-1 #
coedge $-1 -1 $-1 $328 $191 $329 $330 reversed $132 $-1 #
coedge $-1 -1 $-1 $191 $328 $195 $274 forward $132 $-1 #
coedge $-1 -1 $-1 $331 $332 $191 $265 forward $333 $-1 #
edge $-1 -1 $-1 $334 -1.5707963267948966 $278 0 $264 $279 forward @7 unknown #
coedge $-1 -1 $-1 $335 $261 $336 $267 reversed $190 $-1 #
edge $-1 -1 $-1 $271 -35 $337 0 $336 $338 forward @7 unknown #
coedge $-1 -1 $-1 $269 $193 $287 $290 forward $270 $-1 #
coedge $-1 -1 $-1 $193 $268 $339 $340 forward $270 $-1 #
loop $-1 -1 $-1 $-1 $193 $341 #
vertex $-1 -1 $-1 $342 $343 #
ellipse-curve $-1 -1 $-1 -5.6237277068330154e-032 0 17.5 0 0 -1 15 0 0 1 I I #
coedge $-1 -1 $-1 $344 $345 $346 $274 forward $259 $-1 #
edge $-1 -1 $-1 $283 -35 $278 0 $273 $347 forward @7 unknown #
coedge $-1 -1 $-1 $276 $196 $348 $292 forward $277 $-1 #
coedge $-1 -1 $-1 $196 $275 $344 $349 forward $277 $-1 #
loop $-1 -1 $-1 $-1 $196 $350 #
vertex $-1 -1 $-1 $351 $352 #
ellipse-curve $-1 -1 $-1 -5.6237277068330154e-032 0 -17.5 0 0 1 15 0 0 1 I I #
coedge $-1 -1 $-1 $281 $198 $345 $353 forward $282 $-1 #
coedge $-1 -1 $-1 $198 $280 $354 $355 forward $282 $-1 #
loop $-1 -1 $-1 $-1 $198 $356 #
vertex $-1 -1 $-1 $353 $357 #
coedge $-1 -1 $-1 $358 $359 $200 $285 forward $360 $-1 #
edge $-1 -1 $-1 $203 1.5707963267948966 $337 3.1415926535897931 $284 $279 forward @7 unknown #
coedge $-1 -1 $-1 $361 $201 $359 $362 reversed $289 $-1 #
coedge $-1 -1 $-1 $201 $361 $268 $290 reversed $289 $-1 #
coedge $-1 -1 $-1 $354 $348 $90 $137 reversed $363 $-1 #
loop $-1 -1 $-1 $-1 $201 $258 #
edge $-1 -1 $-1 $202 5.6237277068330154e-032 $364 15 $287 $365 forward @7 unknown #
point $-1 -1 $-1 -5.6237277068330154e-032 15 17.5 #
edge $-1 -1 $-1 $203 -5.6237277068330154e-032 $366 15 $348 $367 forward @7 unknown #
point $-1 -1 $-1 -5.6237277068330154e-032 15 -17.5 #
loop_type-twe-attrib $-1 -1 $-1 $208 $142 1 #
convexity-sys-attrib $-1 -1 $368 $209 $146 #
point $-1 -1 $-1 15 0 13.7373870972731 #
cur-twe-attrib $-1 -1 $-1 $-1 $211 54 #
convexity-sys-attrib $-1 -1 $369 $212 $149 #
model_id-kcp-attrib $-1 -1 $-1 $-1 $213 1 1021384705 1021384706 -551616511 14 #
point $-1 -1 $-1 6 0 35 #
cur-twe-attrib $-1 -1 $-1 $-1 $214 56 #
edge_name-twe-attrib $-1 -1 $-1 $217 $106 2 8704 #
plane-surface $-1 -1 $-1 15 0 0 -1 0 0 0 0 1 forward_v I I I I #
coedge $-1 -1 $-1 $228 $226 $230 $308 reversed $162 $-1 #
edge $-1 -1 $-1 $241 -17.5 $310 17.5 $240 $370 forward @7 unknown #
vertex $-1 -1 $-1 $308 $371 #
straight-curve $-1 -1 $-1 -15 -15 0 0 0 -1 I I #
edge $-1 -1 $-1 $306 -15 $310 15 $304 $372 forward @7 unknown #
straight-curve $-1 -1 $-1 0 -15 -17.5 -1 0 0 I I #
vertex $-1 -1 $-1 $233 $373 #
straight-curve $-1 -1 $-1 0 15 -17.5 1 0 0 I I #
point $-1 -1 $-1 15 15 -17.5 #
point $-1 -1 $-1 15 -15 -17.5 #
straight-curve $-1 -1 $-1 -15 0 17.5 0 -1 0 I I #
point $-1 -1 $-1 -15 15 17.5 #
point $-1 -1 $-1 -15 -15 17.5 #
straight-curve $-1 -1 $-1 15 -15 0 0 0 -1 I I #
straight-curve $-1 -1 $-1 15 15 0 0 0 -1 I I #
vertex $-1 -1 $-1 $251 $374 #
ellipse-curve $-1 -1 $-1 0 0 6.8686935486365481 0 0 1 15 0 0 1 I I #
point $-1 -1 $-1 15 0 -6.8686935486365481 #
point $-1 -1 $-1 6 0 17.5 #
face $-1 -1 $-1 $375 $376 $29 $-1 $377 reversed single #
plane-surface $-1 -1 $-1 0 15 0 0 -1 0 0 0 -1 forward_v I I I I #
coedge $-1 -1 $-1 $261 $335 $262 $330 forward $190 $-1 #
coedge $-1 -1 $-1 $378 $379 $261 $327 forward $380 $-1 #
edge $-1 -1 $-1 $337 -3.1415926535897931 $334 -1.5707963267948966 $326 $279 forward @7 unknown #
coedge $-1 -1 $-1 $263 $262 $381 $382 reversed $132 $-1 #
coedge $-1 -1 $-1 $383 $384 $385 $330 forward $386 $-1 #
edge $-1 -1 $-1 $387 -35 $334 0 $329 $388 forward @7 unknown #
coedge $-1 -1 $-1 $332 $264 $389 $351 forward $333 $-1 #
coedge $-1 -1 $-1 $264 $331 $383 $390 forward $333 $-1 #
loop $-1 -1 $-1 $-1 $264 $391 #
vertex $-1 -1 $-1 $392 $393 #
coedge $-1 -1 $-1 $325 $266 $394 $395 reversed $190 $-1 #
coedge $-1 -1 $-1 $396 $397 $398 $267 forward $376 $-1 #
vertex $-1 -1 $-1 $399 $400 #
straight-curve $-1 -1 $-1 -15 0 -17.5 0 0 -1 I I #
coedge $-1 -1 $-1 $401 $398 $269 $340 reversed $402 $-1 #
edge $-1 -1 $-1 $364 -15 $271 0 $339 $403 forward @7 unknown #
face $-1 -1 $-1 $356 $270 $29 $-1 $404 forward single #
edge $-1 -1 $-1 $271 0 $405 15 $397 $403 forward @7 unknown #
point $-1 -1 $-1 -15 0 17.5 #
coedge $-1 -1 $-1 $406 $273 $276 $349 reversed $259 $-1 #
coedge $-1 -1 $-1 $273 $406 $280 $353 reversed $259 $-1 #
coedge $-1 -1 $-1 $407 $389 $263 $274 reversed $408 $-1 #
straight-curve $-1 -1 $-1 15 0 -17.5 0 0 -1 I I #
coedge $-1 -1 $-1 $288 $409 $275 $292 reversed $363 $-1 #
edge $-1 -1 $-1 $366 -15 $278 0 $344 $410 forward @7 unknown #
face $-1 -1 $-1 $411 $277 $29 $-1 $412 reversed single #
edge $-1 -1 $-1 $278 0 $413 15 $389 $410 forward @7 unknown #
point $-1 -1 $-1 15 0 -17.5 #
edge $-1 -1 $-1 $283 0 $414 15 $345 $415 forward @7 unknown #
coedge $-1 -1 $-1 $409 $288 $281 $355 reversed $363 $-1 #
edge $-1 -1 $-1 $414 -15 $202 5.6237277068330154e-032 $354 $365 forward @7 unknown #
face $-1 -1 $-1 $416 $282 $29 $-1 $404 forward single #
point $-1 -1 $-1 15 0 17.5 #
coedge $-1 -1 $-1 $359 $284 $417 $399 forward $360 $-1 #
coedge $-1 -1 $-1 $284 $358 $286 $362 forward $360 $-1 #
loop $-1 -1 $-1 $-1 $284 $411 #
coedge $-1 -1 $-1 $287 $286 $401 $418 reversed $289 $-1 #
edge $-1 -1 $-1 $419 -15 $203 -5.6237277068330154e-032 $286 $367 forward @7 unknown #
loop $-1 -1 $-1 $-1 $288 $420 #
vertex $-1 -1 $-1 $290 $421 #
straight-curve $-1 -1 $-1 0 15 17.5 -1 0 0 I I #
vertex $-1 -1 $-1 $349 $422 #
straight-curve $-1 -1 $-1 0 15 -17.5 1 0 0 I I #
edge_name-twe-attrib $-1 -1 $-1 $295 $146 5 8448 #
edge_name-twe-attrib $-1 -1 $-1 $298 $149 3 8704 #
straight-curve $-1 -1 $-1 -15 15 0 0 0 -1 I I #
point $-1 -1 $-1 -15 -15 -17.5 #
straight-curve $-1 -1 $-1 -15 0 -17.5 0 1 0 I I #
point $-1 -1 $-1 -15 15 -17.5 #
point $-1 -1 $-1 15 0 6.8686935486365481 #
face $-1 -1 $-1 $341 $423 $29 $-1 $404 forward single #
loop $-1 -1 $-1 $-1 $336 $323 #
plane-surface $-1 -1 $-1 -15 0 0 1 0 0 0 0 -1 forward_v I I I I #
coedge $-1 -1 $-1 $379 $326 $424 $392 forward $380 $-1 #
coedge $-1 -1 $-1 $326 $378 $396 $425 forward $380 $-1 #
loop $-1 -1 $-1 $-1 $326 $426 #
coedge $-1 -1 $-1 $427 $428 $328 $382 forward $429 $-1 #
edge $-1 -1 $-1 $283 0 $387 1.5707963267948966 $381 $272 forward @7 unknown #
coedge $-1 -1 $-1 $430 $329 $332 $390 reversed $386 $-1 #
coedge $-1 -1 $-1 $329 $430 $427 $431 reversed $386 $-1 #
coedge $-1 -1 $-1 $432 $424 $325 $330 reversed $433 $-1 #
loop $-1 -1 $-1 $-1 $329 $434 #
vertex $-1 -1 $-1 $431 $435 #
straight-curve $-1 -1 $-1 -5.6237277068330154e-032 -15 -17.5 0 0 -1 I I #
coedge $-1 -1 $-1 $346 $436 $331 $351 reversed $408 $-1 #
edge $-1 -1 $-1 $413 -15 $334 5.6237277068330154e-032 $383 $437 forward @7 unknown #
face $-1 -1 $-1 $350 $333 $29 $-1 $412 reversed single #
edge $-1 -1 $-1 $334 5.6237277068330154e-032 $438 15 $424 $437 forward @7 unknown #
point $-1 -1 $-1 -5.6237277068330154e-032 -15 -17.5 #
coedge $-1 -1 $-1 $439 $440 $335 $395 forward $423 $-1 #
edge $-1 -1 $-1 $387 1.5707963267948966 $271 3.1415926535897931 $394 $272 forward @7 unknown #
coedge $-1 -1 $-1 $441 $336 $379 $425 reversed $376 $-1 #
coedge $-1 -1 $-1 $336 $441 $439 $342 reversed $376 $-1 #
coedge $-1 -1 $-1 $339 $417 $192 $267 reversed $402 $-1 #
edge $-1 -1 $-1 $337 0 $419 15 $417 $442 forward @7 unknown #
point $-1 -1 $-1 -15 0 -17.5 #
coedge $-1 -1 $-1 $417 $339 $361 $418 forward $402 $-1 #
loop $-1 -1 $-1 $-1 $398 $443 #
straight-curve $-1 -1 $-1 -15 0 17.5 0 -1 0 I I #
plane-surface $-1 -1 $-1 0 0 17.5 0 0 1 1 0 0 forward_v I I I I #
vertex $-1 -1 $-1 $342 $444 #
coedge $-1 -1 $-1 $345 $344 $409 $445 reversed $259 $-1 #
coedge $-1 -1 $-1 $436 $346 $428 $446 reversed $408 $-1 #
loop $-1 -1 $-1 $-1 $346 $447 #
coedge $-1 -1 $-1 $348 $354 $406 $445 forward $363 $-1 #
straight-curve $-1 -1 $-1 15 0 -17.5 0 -1 0 I I #
face $-1 -1 $-1 $448 $360 $29 $-1 $412 reversed single #
plane-surface $-1 -1 $-1 0 0 -17.5 0 0 1 1 0 0 forward_v I I I I #
vertex $-1 -1 $-1 $449 $450 #
vertex $-1 -1 $-1 $353 $451 #
straight-curve $-1 -1 $-1 15 0 17.5 0 1 0 I I #
face $-1 -1 $-1 $434 $429 $29 $-1 $404 forward single #
coedge $-1 -1 $-1 $398 $401 $358 $399 reversed $402 $-1 #
edge $-1 -1 $-1 $364 -17.5 $419 17.5 $361 $452 forward @7 unknown #
vertex $-1 -1 $-1 $362 $453 #
face $-1 -1 $-1 $447 $363 $29 $-1 $324 reversed single #
point $-1 -1 $-1 -15 15 17.5 #
point $-1 -1 $-1 15 15 -17.5 #
loop $-1 -1 $-1 $-1 $394 $375 #
coedge $-1 -1 $-1 $385 $454 $378 $392 reversed $433 $-1 #
edge $-1 -1 $-1 $438 -15 $337 0 $396 $442 forward @7 unknown #
face $-1 -1 $-1 $391 $380 $29 $-1 $412 reversed single #
coedge $-1 -1 $-1 $428 $381 $384 $431 forward $429 $-1 #
coedge $-1 -1 $-1 $381 $427 $407 $446 forward $429 $-1 #
loop $-1 -1 $-1 $-1 $381 $416 #
coedge $-1 -1 $-1 $384 $383 $436 $449 reversed $386 $-1 #
edge $-1 -1 $-1 $387 -5.6237277068330154e-032 $455 15 $384 $456 forward @7 unknown #
coedge $-1 -1 $-1 $454 $385 $440 $457 reversed $433 $-1 #
loop $-1 -1 $-1 $-1 $385 $448 #
face $-1 -1 $-1 $426 $386 $29 $-1 $458 reversed single #
point $-1 -1 $-1 -5.6237277068330154e-032 -15 17.5 #
coedge $-1 -1 $-1 $389 $407 $430 $449 forward $408 $-1 #
straight-curve $-1 -1 $-1 0 -15 -17.5 -1 0 0 I I #
vertex $-1 -1 $-1 $425 $459 #
coedge $-1 -1 $-1 $440 $394 $397 $342 forward $423 $-1 #
coedge $-1 -1 $-1 $394 $439 $432 $457 forward $423 $-1 #
coedge $-1 -1 $-1 $397 $396 $454 $460 reversed $376 $-1 #
straight-curve $-1 -1 $-1 -15 0 -17.5 0 1 0 I I #
face $-1 -1 $-1 $420 $402 $29 $-1 $377 reversed single #
point $-1 -1 $-1 -15 -15 17.5 #
edge $-1 -1 $-1 $414 -17.5 $366 17.5 $406 $461 forward @7 unknown #
edge $-1 -1 $-1 $455 -15 $283 0 $407 $415 forward @7 unknown #
face $-1 -1 $-1 $-1 $408 $29 $-1 $260 reversed single #
face $-1 -1 $-1 $443 $433 $29 $-1 $458 reversed single #
edge $-1 -1 $-1 $455 -17.5 $413 17.5 $436 $462 forward @7 unknown #
point $-1 -1 $-1 15 -15 -17.5 #
point $-1 -1 $-1 15 15 17.5 #
straight-curve $-1 -1 $-1 -15 15 0 0 0 -1 I I #
point $-1 -1 $-1 -15 15 -17.5 #
coedge $-1 -1 $-1 $424 $432 $441 $460 forward $433 $-1 #
vertex $-1 -1 $-1 $446 $463 #
straight-curve $-1 -1 $-1 0 -15 17.5 1 0 0 I I #
edge $-1 -1 $-1 $405 -15 $387 -5.6237277068330154e-032 $432 $456 forward @7 unknown #
plane-surface $-1 -1 $-1 0 -15 0 0 1 0 0 0 1 forward_v I I I I #
point $-1 -1 $-1 -15 -15 -17.5 #
edge $-1 -1 $-1 $405 -17.5 $438 17.5 $441 $464 forward @7 unknown #
straight-curve $-1 -1 $-1 15 15 0 0 0 -1 I I #
straight-curve $-1 -1 $-1 15 -15 0 0 0 -1 I I #
point $-1 -1 $-1 15 -15 17.5 #
straight-curve $-1 -1 $-1 -15 -15 0 0 0 -1 I I #
End-of-ACIS-data 