600 0 2 0           
24 FBMach with ACIS - 6.0.3 13 ACIS 6.0.3 NT 24 Wed May 23 21:06:16 2001 
1 9.9999999999999995e-007 1e-010 
body $2 $3 $-1 $4 #
bdycol-kcp $-1 1 4 $5 $6 $7 $8 #
model_id-kcp-attrib $-1 $-1 $-1 $0 1 990666376 40 1915224065 1 #
lump $-1 $-1 $9 $0 #
transform $-1 1 0 0 0 1 0 0 0 1 0 0 0 1 no_rotate no_reflect no_shear #
body $10 $11 $-1 $12 #
body $13 $14 $-1 $15 #
body $16 $17 $-1 $18 #
body $19 $20 $-1 $21 #
shell $-1 $-1 $-1 $22 $-1 $3 #
model_id-kcp-attrib $-1 $-1 $-1 $5 1 990666376 50 1915879426 1 #
lump $-1 $-1 $23 $5 #
transform $-1 1 0 0 0 1 0 0 0 1 0 0 17.5 1 no_rotate no_reflect no_shear #
rgb_color-st-attrib $-1 $24 $-1 $6 1 1 0.5 #
lump $-1 $-1 $25 $6 #
transform $-1 1 0 0 0 -1 0 0 0 -1 0 0 6.8686935486365517 1 rotate no_reflect no_shear #
rgb_color-st-attrib $-1 $26 $-1 $7 0.5 1 1 #
lump $-1 $-1 $27 $7 #
transform $-1 1 0 0 0 1 0 0 0 1 0 0 17.5 1 no_rotate no_reflect no_shear #
rgb_color-st-attrib $-1 $28 $-1 $8 0.5 1 1 #
lump $-1 $-1 $29 $8 #
transform $-1 1 0 0 0 1 0 0 0 1 0 0 17.5 1 no_rotate no_reflect no_shear #
face $30 $31 $32 $9 $-1 $33 reversed single #
shell $-1 $-1 $-1 $34 $-1 $11 #
model_id-kcp-attrib $-1 $-1 $13 $6 1 990666376 50 1915879427 1 #
shell $-1 $-1 $-1 $35 $-1 $14 #
model_id-kcp-attrib $-1 $-1 $16 $7 1 990666376 70 1917190148 1 #
shell $-1 $-1 $-1 $36 $-1 $17 #
model_id-kcp-attrib $-1 $-1 $19 $8 1 990666376 110 1919811589 1 #
shell $-1 $-1 $-1 $37 $-1 $20 #
model_id-kcp-attrib $-1 $38 $-1 $22 1 990666376 40 1915224065 7 #
face $39 $40 $41 $9 $-1 $42 forward single #
loop $43 $44 $45 $22 #
plane-surface $46 0 0 0 0 0 1 1 0 0 forward_v I I I I #
face $47 $48 $49 $23 $-1 $50 forward single #
face $-1 $51 $52 $25 $-1 $53 reversed single #
face $-1 $54 $55 $27 $-1 $56 forward single #
face $-1 $57 $58 $29 $-1 $59 reversed single #
model_id-kcp-attrib $-1 $60 $30 $22 1 990666376 40 1915224065 2 #
model_id-kcp-attrib $-1 $61 $-1 $31 1 990666376 40 1915224065 8 #
face $62 $63 $64 $9 $-1 $65 forward single #
loop $66 $67 $68 $31 #
plane-surface $69 0 0 35 0 0 1 1 0 0 forward_v I I I I #
loop_type-twe-attrib $-1 $-1 $-1 $32 0 #
loop $70 $-1 $71 $22 #
coedge $-1 $45 $45 $72 $73 forward $32 $-1 #
surf-twe-attrib $-1 $-1 $-1 $33 4 #
model_id-kcp-attrib $-1 $-1 $-1 $34 1 990666376 50 1915879426 3 #
face $74 $75 $76 $23 $-1 $77 reversed single #
loop $-1 $-1 $78 $34 #
plane-surface $-1 0 0 17.5 0 0 1 1 0 0 forward_v I I I I #
face $-1 $79 $80 $25 $-1 $81 forward single #
loop $-1 $82 $83 $35 #
cone-surface $-1 0 0 13.737387097273094 0 0 1 7.5 0 0 1 I I -0.3420201433256691 0.93969262078590832 7.5 forward I I I I #
face $-1 $84 $85 $27 $-1 $86 forward single #
loop $-1 $87 $88 $36 #
cone-surface $-1 0 0 0 0 0 1 6 0 0 1 I I 0 1 6 forward I I I I #
face $-1 $89 $90 $29 $-1 $59 reversed single #
loop $-1 $-1 $91 $37 #
cone-surface $-1 -5.6237277068330154e-032 0 -17.5 0 0 -1 15 0 0 1 I I 0 1 15 forward I I I I #
face_name-twe-attrib $-1 $-1 $38 $22 1 #
model_id-kcp-attrib $-1 $92 $39 $31 1 990666376 40 1915224065 3 #
model_id-kcp-attrib $-1 $93 $-1 $40 1 990666376 40 1915224065 4 #
face $94 $95 $96 $9 $-1 $97 reversed single #
loop $98 $99 $100 $40 #
cone-surface $101 0 0 0 0 0 1 15 0 0 1 I I 0 1 15 forward I I I I #
loop_type-twe-attrib $-1 $-1 $-1 $41 0 #
loop $102 $-1 $103 $31 #
coedge $-1 $68 $68 $104 $105 reversed $41 $-1 #
surf-twe-attrib $-1 $-1 $-1 $42 6 #
model_id-kcp-attrib $-1 $106 $-1 $44 1 990666376 40 1915224065 11 #
coedge $-1 $71 $71 $107 $108 forward $44 $-1 #
coedge $-1 $72 $72 $45 $73 reversed $109 $-1 #
edge $110 $111 -3.1415926535897989 $111 3.1415926535897873 $72 $112 forward 7 unknown #
model_id-kcp-attrib $-1 $-1 $-1 $48 1 990666376 50 1915879426 2 #
face $-1 $113 $114 $23 $-1 $115 reversed single #
loop $-1 $-1 $116 $48 #
plane-surface $-1 0 0 -17.5 0 0 1 1 0 0 forward_v I I I I #
coedge $-1 $117 $118 $119 $120 forward $49 $-1 #
face $-1 $-1 $121 $25 $-1 $122 forward single #
loop $-1 $123 $124 $51 #
cone-surface $-1 0 0 0 0 0 1 15 0 0 1 I I 0 1 15 forward I I I I #
loop $-1 $-1 $125 $35 #
coedge $-1 $83 $83 $126 $127 reversed $52 $-1 #
face $-1 $-1 $128 $27 $-1 $129 forward single #
loop $-1 $-1 $130 $54 #
plane-surface $-1 0 0 -17.5 0 0 -1 -1 0 0 forward_v I I I I #
loop $-1 $-1 $131 $36 #
coedge $-1 $88 $88 $130 $132 reversed $55 $-1 #
face $-1 $133 $134 $29 $-1 $59 reversed single #
loop $-1 $-1 $135 $57 #
coedge $-1 $136 $137 $138 $139 forward $58 $-1 #
face_name-twe-attrib $-1 $-1 $61 $31 2 #
face_name-twe-attrib $-1 $-1 $62 $40 3 #
model_id-kcp-attrib $-1 $140 $-1 $63 1 990666376 40 1915224065 5 #
face $141 $-1 $109 $9 $-1 $142 forward single #
loop $143 $144 $107 $63 #
cone-surface $145 0 0 0 0 0 1 6 0 0 1 I I 0 1 6 forward I I I I #
loop_type-twe-attrib $-1 $-1 $-1 $64 0 #
loop $146 $-1 $104 $40 #
coedge $-1 $100 $100 $147 $148 reversed $64 $-1 #
surf-twe-attrib $-1 $-1 $-1 $65 10 #
model_id-kcp-attrib $-1 $149 $-1 $67 1 990666376 40 1915224065 12 #
coedge $-1 $103 $103 $150 $151 reversed $67 $-1 #
coedge $-1 $104 $104 $68 $105 forward $99 $-1 #
edge $152 $153 0 $153 6.2831853071795862 $104 $154 forward 7 unknown #
loop_type-twe-attrib $-1 $-1 $70 $44 1 #
coedge $-1 $107 $107 $71 $108 reversed $96 $-1 #
edge $155 $156 -3.1415926535897931 $156 3.1415926535897931 $107 $157 forward 7 unknown #
loop $158 $159 $72 $95 #
attrib_edge_convexity-kcp-attrib $-1 $160 $-1 $73 1 #
vertex $-1 $73 $161 #
ellipse-curve $162 0 0 4.0000000000000003e-015 0 0 -1 -10 1e-014 0 1 I I #
face $-1 $163 $164 $23 $-1 $165 reversed single #
loop $-1 $-1 $166 $75 #
plane-surface $-1 0 -15 0 0 1 0 0 0 1 forward_v I I I I #
coedge $-1 $167 $168 $169 $170 forward $76 $-1 #
coedge $-1 $171 $78 $172 $173 forward $49 $-1 #
coedge $-1 $78 $171 $174 $175 forward $49 $-1 #
coedge $-1 $176 $177 $78 $120 reversed $178 $-1 #
edge $-1 $179 -15 $180 15 $119 $181 forward 7 unknown #
loop $-1 $182 $126 $79 #
plane-surface $-1 0 0 6.8686935486365481 0 0 1 1 0 0 forward_v I I I I #
loop $-1 $-1 $183 $51 #
coedge $-1 $124 $124 $125 $184 reversed $80 $-1 #
coedge $-1 $125 $125 $124 $184 forward $82 $-1 #
coedge $-1 $126 $126 $83 $127 forward $121 $-1 #
edge $-1 $185 -3.1415926535897931 $185 3.1415926535897931 $126 $186 forward 7 unknown #
loop $-1 $-1 $187 $84 #
plane-surface $-1 0 0 17.5 0 0 1 1 0 0 forward_v I I I I #
coedge $-1 $130 $130 $88 $132 forward $85 $-1 #
coedge $-1 $131 $131 $187 $188 reversed $87 $-1 #
edge $-1 $189 0 $189 6.2831853071795862 $130 $190 forward 7 unknown #
face $-1 $191 $192 $29 $-1 $59 reversed single #
loop $-1 $-1 $193 $89 #
coedge $-1 $194 $138 $195 $196 reversed $90 $-1 #
coedge $-1 $197 $91 $198 $199 reversed $58 $-1 #
coedge $-1 $91 $197 $200 $201 reversed $58 $-1 #
coedge $-1 $135 $202 $203 $139 reversed $90 $-1 #
edge $-1 $204 -35 $205 0 $203 $206 forward 7 unknown #
face_name-twe-attrib $-1 $-1 $94 $63 4 #
model_id-kcp-attrib $-1 $207 $-1 $95 1 990666376 40 1915224065 6 #
cone-surface $208 0 0 13.7373870972731 0 0 1 -15 0 0 1 I I 0.34202014332566899 0.93969262078590798 15 forward I I I I #
model_id-kcp-attrib $-1 $209 $-1 $96 1 990666376 40 1915224065 9 #
loop $210 $-1 $150 $63 #
surf-twe-attrib $-1 $-1 $-1 $97 18 #
loop_type-twe-attrib $-1 $-1 $-1 $99 1 #
coedge $-1 $147 $147 $100 $148 forward $159 $-1 #
edge $211 $212 -3.1415926535897931 $212 3.1415926535897931 $147 $213 forward 7 unknown #
loop_type-twe-attrib $-1 $-1 $102 $67 1 #
coedge $-1 $150 $150 $103 $151 forward $144 $-1 #
edge $214 $215 0 $215 6.2831853071795862 $150 $216 forward 7 unknown #
edge_name-twe-attrib $-1 $-1 $-1 $105 1 8704 #
vertex $-1 $105 $217 #
ellipse-curve $218 0 0 35 0 0 -1 15 0 0 1 I I #
attrib_edge_convexity-kcp-attrib $-1 $219 $-1 $108 1 #
vertex $220 $108 $221 #
ellipse-curve $222 0 0 0 0 0 1 -6 0 0 1 I I #
loop_type-twe-attrib $-1 $-1 $-1 $109 0 #
loop $223 $-1 $147 $95 #
convexity-sys-attrib $-1 $224 $110 $73 #
point $-1 10 5.0000000000000002e-014 4.0000000000000003e-015 #
cur-twe-attrib $-1 $-1 $-1 $112 28 #
face $-1 $225 $226 $23 $-1 $227 reversed single #
loop $-1 $-1 $228 $113 #
plane-surface $-1 -15 0 0 1 0 0 0 0 -1 forward_v I I I I #
coedge $-1 $229 $174 $230 $231 forward $114 $-1 #
coedge $-1 $232 $116 $229 $233 forward $76 $-1 #
coedge $-1 $116 $232 $234 $235 forward $76 $-1 #
coedge $-1 $177 $176 $116 $170 reversed $178 $-1 #
edge $-1 $236 -15 $237 15 $169 $238 forward 7 unknown #
coedge $-1 $118 $117 $239 $240 forward $49 $-1 #
coedge $-1 $241 $242 $117 $173 reversed $226 $-1 #
edge $-1 $180 -15 $243 15 $172 $244 forward 7 unknown #
coedge $-1 $166 $245 $118 $175 reversed $114 $-1 #
edge $-1 $246 -15 $179 15 $174 $247 forward 7 unknown #
coedge $-1 $169 $119 $245 $248 forward $178 $-1 #
coedge $-1 $119 $169 $241 $249 reversed $178 $-1 #
loop $-1 $-1 $176 $225 #
vertex $-1 $120 $250 #
vertex $-1 $120 $251 #
straight-curve $-1 15 0 17.5 0 1 0 I I #
loop $-1 $-1 $252 $79 #
coedge $-1 $183 $183 $252 $253 reversed $123 $-1 #
edge $-1 $254 0 $254 6.2831853071795862 $124 $255 forward 7 unknown #
vertex $-1 $127 $256 #
ellipse-curve $-1 0 0 6.8686935486365481 0 0 -1 10 0 0 1 I I #
coedge $-1 $187 $187 $131 $188 forward $128 $-1 #
edge $-1 $257 0 $257 6.2831853071795862 $187 $258 forward 7 unknown #
vertex $-1 $132 $259 #
ellipse-curve $-1 0 0 -17.5 0 0 -1 6 0 0 1 I I #
face $-1 $260 $261 $29 $-1 $262 reversed single #
loop $-1 $-1 $263 $133 #
coedge $-1 $264 $265 $266 $267 reversed $134 $-1 #
coedge $-1 $202 $135 $268 $269 forward $90 $-1 #
coedge $-1 $270 $271 $135 $196 forward $272 $-1 #
edge $-1 $273 -3.1415926535897931 $204 -1.5707963267948966 $195 $274 forward 7 unknown #
coedge $-1 $137 $136 $275 $276 reversed $58 $-1 #
coedge $-1 $277 $278 $136 $199 forward $279 $-1 #
edge $-1 $280 0 $205 1.5707963267948966 $198 $281 forward 7 unknown #
coedge $-1 $282 $283 $137 $201 forward $284 $-1 #
edge $-1 $204 -1.5707963267948966 $285 0 $200 $274 forward 7 unknown #
coedge $-1 $138 $194 $286 $287 reversed $90 $-1 #
coedge $-1 $288 $289 $290 $139 forward $291 $-1 #
vertex $-1 $292 $293 #
vertex $-1 $294 $295 #
straight-curve $-1 -5.6237277068330154e-032 15 -17.5 0 0 -1 I I #
face_name-twe-attrib $-1 $-1 $141 $95 5 #
surf-twe-attrib $-1 $-1 $-1 $142 30 #
loop_type-twe-attrib $-1 $-1 $143 $96 0 #
model_id-kcp-attrib $-1 $296 $-1 $144 1 990666376 40 1915224065 10 #
attrib_edge_convexity-kcp-attrib $-1 $297 $-1 $148 1 #
vertex $-1 $148 $298 #
ellipse-curve $299 0 0 13.7373870972731 0 0 -1 -15 0 0 1 I I #
attrib_edge_convexity-kcp-attrib $-1 $300 $-1 $151 1 #
vertex $301 $151 $302 #
ellipse-curve $303 0 0 35 0 0 1 6 0 0 1 I I #
point $-1 15 0 35 #
cur-twe-attrib $-1 $-1 $-1 $154 40 #
convexity-sys-attrib $-1 $304 $155 $108 #
model_id-kcp-attrib $-1 $-1 $-1 $156 1 990666376 40 1915224065 13 #
point $-1 6 0 0 #
cur-twe-attrib $-1 $-1 $-1 $157 42 #
loop_type-twe-attrib $-1 $-1 $-1 $159 1 #
edge_name-twe-attrib $-1 $-1 $160 $73 4 8448 #
face $-1 $-1 $178 $23 $-1 $305 reversed single #
loop $-1 $-1 $241 $163 #
plane-surface $-1 0 15 0 0 -1 0 0 0 -1 forward_v I I I I #
coedge $-1 $306 $239 $242 $307 forward $164 $-1 #
coedge $-1 $245 $166 $167 $233 reversed $114 $-1 #
coedge $-1 $239 $306 $166 $231 reversed $164 $-1 #
edge $-1 $246 -17.5 $308 17.5 $230 $309 forward 7 unknown #
coedge $-1 $168 $167 $306 $310 forward $76 $-1 #
edge $-1 $237 -15 $308 15 $229 $311 forward 7 unknown #
coedge $-1 $242 $241 $168 $235 reversed $226 $-1 #
edge $-1 $312 -15 $236 15 $234 $313 forward 7 unknown #
vertex $-1 $170 $314 #
vertex $-1 $248 $315 #
straight-curve $-1 15 0 -17.5 0 -1 0 I I #
coedge $-1 $228 $230 $171 $240 reversed $164 $-1 #
edge $-1 $243 -15 $246 15 $239 $316 forward 7 unknown #
coedge $-1 $234 $172 $177 $249 forward $226 $-1 #
coedge $-1 $172 $234 $228 $307 reversed $226 $-1 #
vertex $-1 $173 $317 #
straight-curve $-1 0 15 17.5 -1 0 0 I I #
coedge $-1 $174 $229 $176 $248 reversed $114 $-1 #
vertex $-1 $240 $318 #
straight-curve $-1 0 -15 17.5 1 0 0 I I #
edge $-1 $179 -17.5 $237 17.5 $176 $319 forward 7 unknown #
edge $-1 $180 -17.5 $236 17.5 $177 $320 forward 7 unknown #
point $-1 15 -15 17.5 #
point $-1 15 15 17.5 #
coedge $-1 $252 $252 $183 $253 forward $182 $-1 #
edge $-1 $321 0 $321 6.2831853071795862 $252 $322 forward 7 unknown #
vertex $-1 $184 $323 #
ellipse-curve $-1 0 0 -6.8686935486365481 0 0 -1 15 0 0 1 I I #
point $-1 -10 1.2246063538223773e-015 6.8686935486365481 #
vertex $-1 $188 $324 #
ellipse-curve $-1 0 0 17.5 0 0 1 6 0 0 1 I I #
point $-1 6 0 -17.5 #
face $-1 $325 $291 $29 $-1 $326 reversed single #
loop $-1 $-1 $275 $191 #
plane-surface $-1 15 0 0 -1 0 0 0 0 1 forward_v I I I I #
coedge $-1 $268 $327 $328 $329 reversed $192 $-1 #
coedge $-1 $330 $193 $331 $332 reversed $134 $-1 #
coedge $-1 $193 $330 $197 $276 forward $134 $-1 #
coedge $-1 $333 $334 $193 $267 forward $335 $-1 #
edge $-1 $336 -1.5707963267948966 $280 0 $266 $281 forward 7 unknown #
coedge $-1 $337 $263 $338 $269 reversed $192 $-1 #
edge $-1 $273 -35 $339 0 $338 $340 forward 7 unknown #
coedge $-1 $271 $195 $289 $292 forward $272 $-1 #
coedge $-1 $195 $270 $341 $342 forward $272 $-1 #
loop $-1 $-1 $195 $343 #
vertex $-1 $344 $345 #
ellipse-curve $-1 -5.6237277068330154e-032 0 17.5 0 0 -1 15 0 0 1 I I #
coedge $-1 $346 $347 $348 $276 forward $261 $-1 #
edge $-1 $285 -35 $280 0 $275 $349 forward 7 unknown #
coedge $-1 $278 $198 $350 $294 forward $279 $-1 #
coedge $-1 $198 $277 $346 $351 forward $279 $-1 #
loop $-1 $-1 $198 $352 #
vertex $-1 $353 $354 #
ellipse-curve $-1 -5.6237277068330154e-032 0 -17.5 0 0 1 15 0 0 1 I I #
coedge $-1 $283 $200 $347 $355 forward $284 $-1 #
coedge $-1 $200 $282 $356 $357 forward $284 $-1 #
loop $-1 $-1 $200 $358 #
vertex $-1 $355 $359 #
coedge $-1 $360 $361 $202 $287 forward $362 $-1 #
edge $-1 $205 1.5707963267948966 $339 3.1415926535897931 $286 $281 forward 7 unknown #
coedge $-1 $363 $203 $361 $364 reversed $291 $-1 #
coedge $-1 $203 $363 $270 $292 reversed $291 $-1 #
coedge $-1 $356 $350 $91 $139 reversed $365 $-1 #
loop $-1 $-1 $203 $260 #
edge $-1 $204 5.6237277068330154e-032 $366 15 $289 $367 forward 7 unknown #
point $-1 -5.6237277068330154e-032 15 17.5 #
edge $-1 $205 -5.6237277068330154e-032 $368 15 $350 $369 forward 7 unknown #
point $-1 -5.6237277068330154e-032 15 -17.5 #
loop_type-twe-attrib $-1 $-1 $210 $144 1 #
convexity-sys-attrib $-1 $370 $211 $148 #
point $-1 15 0 13.7373870972731 #
cur-twe-attrib $-1 $-1 $-1 $213 54 #
convexity-sys-attrib $-1 $371 $214 $151 #
model_id-kcp-attrib $-1 $-1 $-1 $215 1 990666376 40 1915224065 14 #
point $-1 6 0 35 #
cur-twe-attrib $-1 $-1 $-1 $216 56 #
edge_name-twe-attrib $-1 $-1 $219 $108 2 8704 #
plane-surface $-1 15 0 0 -1 0 0 0 0 1 forward_v I I I I #
coedge $-1 $230 $228 $232 $310 reversed $164 $-1 #
edge $-1 $243 -17.5 $312 17.5 $242 $372 forward 7 unknown #
vertex $-1 $310 $373 #
straight-curve $-1 -15 -15 0 0 0 -1 I I #
edge $-1 $308 -15 $312 15 $306 $374 forward 7 unknown #
straight-curve $-1 0 -15 -17.5 -1 0 0 I I #
vertex $-1 $235 $375 #
straight-curve $-1 0 15 -17.5 1 0 0 I I #
point $-1 15 15 -17.5 #
point $-1 15 -15 -17.5 #
straight-curve $-1 -15 0 17.5 0 -1 0 I I #
point $-1 -15 15 17.5 #
point $-1 -15 -15 17.5 #
straight-curve $-1 15 -15 0 0 0 -1 I I #
straight-curve $-1 15 15 0 0 0 -1 I I #
vertex $-1 $253 $376 #
ellipse-curve $-1 0 0 6.8686935486365481 0 0 1 15 0 0 1 I I #
point $-1 15 0 -6.8686935486365481 #
point $-1 6 0 17.5 #
face $-1 $377 $378 $29 $-1 $379 reversed single #
plane-surface $-1 0 15 0 0 -1 0 0 0 -1 forward_v I I I I #
coedge $-1 $263 $337 $264 $332 forward $192 $-1 #
coedge $-1 $380 $381 $263 $329 forward $382 $-1 #
edge $-1 $339 -3.1415926535897931 $336 -1.5707963267948966 $328 $281 forward 7 unknown #
coedge $-1 $265 $264 $383 $384 reversed $134 $-1 #
coedge $-1 $385 $386 $387 $332 forward $388 $-1 #
edge $-1 $389 -35 $336 0 $331 $390 forward 7 unknown #
coedge $-1 $334 $266 $391 $353 forward $335 $-1 #
coedge $-1 $266 $333 $385 $392 forward $335 $-1 #
loop $-1 $-1 $266 $393 #
vertex $-1 $394 $395 #
coedge $-1 $327 $268 $396 $397 reversed $192 $-1 #
coedge $-1 $398 $399 $400 $269 forward $378 $-1 #
vertex $-1 $401 $402 #
straight-curve $-1 -15 0 -17.5 0 0 -1 I I #
coedge $-1 $403 $400 $271 $342 reversed $404 $-1 #
edge $-1 $366 -15 $273 0 $341 $405 forward 7 unknown #
face $-1 $358 $272 $29 $-1 $406 forward single #
edge $-1 $273 0 $407 15 $399 $405 forward 7 unknown #
point $-1 -15 0 17.5 #
coedge $-1 $408 $275 $278 $351 reversed $261 $-1 #
coedge $-1 $275 $408 $282 $355 reversed $261 $-1 #
coedge $-1 $409 $391 $265 $276 reversed $410 $-1 #
straight-curve $-1 15 0 -17.5 0 0 -1 I I #
coedge $-1 $290 $411 $277 $294 reversed $365 $-1 #
edge $-1 $368 -15 $280 0 $346 $412 forward 7 unknown #
face $-1 $413 $279 $29 $-1 $414 reversed single #
edge $-1 $280 0 $415 15 $391 $412 forward 7 unknown #
point $-1 15 0 -17.5 #
edge $-1 $285 0 $416 15 $347 $417 forward 7 unknown #
coedge $-1 $411 $290 $283 $357 reversed $365 $-1 #
edge $-1 $416 -15 $204 5.6237277068330154e-032 $356 $367 forward 7 unknown #
face $-1 $418 $284 $29 $-1 $406 forward single #
point $-1 15 0 17.5 #
coedge $-1 $361 $286 $419 $401 forward $362 $-1 #
coedge $-1 $286 $360 $288 $364 forward $362 $-1 #
loop $-1 $-1 $286 $413 #
coedge $-1 $289 $288 $403 $420 reversed $291 $-1 #
edge $-1 $421 -15 $205 -5.6237277068330154e-032 $288 $369 forward 7 unknown #
loop $-1 $-1 $290 $422 #
vertex $-1 $292 $423 #
straight-curve $-1 0 15 17.5 -1 0 0 I I #
vertex $-1 $351 $424 #
straight-curve $-1 0 15 -17.5 1 0 0 I I #
edge_name-twe-attrib $-1 $-1 $297 $148 5 8448 #
edge_name-twe-attrib $-1 $-1 $300 $151 3 8704 #
straight-curve $-1 -15 15 0 0 0 -1 I I #
point $-1 -15 -15 -17.5 #
straight-curve $-1 -15 0 -17.5 0 1 0 I I #
point $-1 -15 15 -17.5 #
point $-1 15 0 6.8686935486365481 #
face $-1 $343 $425 $29 $-1 $406 forward single #
loop $-1 $-1 $338 $325 #
plane-surface $-1 -15 0 0 1 0 0 0 0 -1 forward_v I I I I #
coedge $-1 $381 $328 $426 $394 forward $382 $-1 #
coedge $-1 $328 $380 $398 $427 forward $382 $-1 #
loop $-1 $-1 $328 $428 #
coedge $-1 $429 $430 $330 $384 forward $431 $-1 #
edge $-1 $285 0 $389 1.5707963267948966 $383 $274 forward 7 unknown #
coedge $-1 $432 $331 $334 $392 reversed $388 $-1 #
coedge $-1 $331 $432 $429 $433 reversed $388 $-1 #
coedge $-1 $434 $426 $327 $332 reversed $435 $-1 #
loop $-1 $-1 $331 $436 #
vertex $-1 $433 $437 #
straight-curve $-1 -5.6237277068330154e-032 -15 -17.5 0 0 -1 I I #
coedge $-1 $348 $438 $333 $353 reversed $410 $-1 #
edge $-1 $415 -15 $336 5.6237277068330154e-032 $385 $439 forward 7 unknown #
face $-1 $352 $335 $29 $-1 $414 reversed single #
edge $-1 $336 5.6237277068330154e-032 $440 15 $426 $439 forward 7 unknown #
point $-1 -5.6237277068330154e-032 -15 -17.5 #
coedge $-1 $441 $442 $337 $397 forward $425 $-1 #
edge $-1 $389 1.5707963267948966 $273 3.1415926535897931 $396 $274 forward 7 unknown #
coedge $-1 $443 $338 $381 $427 reversed $378 $-1 #
coedge $-1 $338 $443 $441 $344 reversed $378 $-1 #
coedge $-1 $341 $419 $194 $269 reversed $404 $-1 #
edge $-1 $339 0 $421 15 $419 $444 forward 7 unknown #
point $-1 -15 0 -17.5 #
coedge $-1 $419 $341 $363 $420 forward $404 $-1 #
loop $-1 $-1 $400 $445 #
straight-curve $-1 -15 0 17.5 0 -1 0 I I #
plane-surface $-1 0 0 17.5 0 0 1 1 0 0 forward_v I I I I #
vertex $-1 $344 $446 #
coedge $-1 $347 $346 $411 $447 reversed $261 $-1 #
coedge $-1 $438 $348 $430 $448 reversed $410 $-1 #
loop $-1 $-1 $348 $449 #
coedge $-1 $350 $356 $408 $447 forward $365 $-1 #
straight-curve $-1 15 0 -17.5 0 -1 0 I I #
face $-1 $450 $362 $29 $-1 $414 reversed single #
plane-surface $-1 0 0 -17.5 0 0 1 1 0 0 forward_v I I I I #
vertex $-1 $451 $452 #
vertex $-1 $355 $453 #
straight-curve $-1 15 0 17.5 0 1 0 I I #
face $-1 $436 $431 $29 $-1 $406 forward single #
coedge $-1 $400 $403 $360 $401 reversed $404 $-1 #
edge $-1 $366 -17.5 $421 17.5 $363 $454 forward 7 unknown #
vertex $-1 $364 $455 #
face $-1 $449 $365 $29 $-1 $326 reversed single #
point $-1 -15 15 17.5 #
point $-1 15 15 -17.5 #
loop $-1 $-1 $396 $377 #
coedge $-1 $387 $456 $380 $394 reversed $435 $-1 #
edge $-1 $440 -15 $339 0 $398 $444 forward 7 unknown #
face $-1 $393 $382 $29 $-1 $414 reversed single #
coedge $-1 $430 $383 $386 $433 forward $431 $-1 #
coedge $-1 $383 $429 $409 $448 forward $431 $-1 #
loop $-1 $-1 $383 $418 #
coedge $-1 $386 $385 $438 $451 reversed $388 $-1 #
edge $-1 $389 -5.6237277068330154e-032 $457 15 $386 $458 forward 7 unknown #
coedge $-1 $456 $387 $442 $459 reversed $435 $-1 #
loop $-1 $-1 $387 $450 #
face $-1 $428 $388 $29 $-1 $460 reversed single #
point $-1 -5.6237277068330154e-032 -15 17.5 #
coedge $-1 $391 $409 $432 $451 forward $410 $-1 #
straight-curve $-1 0 -15 -17.5 -1 0 0 I I #
vertex $-1 $427 $461 #
coedge $-1 $442 $396 $399 $344 forward $425 $-1 #
coedge $-1 $396 $441 $434 $459 forward $425 $-1 #
coedge $-1 $399 $398 $456 $462 reversed $378 $-1 #
straight-curve $-1 -15 0 -17.5 0 1 0 I I #
face $-1 $422 $404 $29 $-1 $379 reversed single #
point $-1 -15 -15 17.5 #
edge $-1 $416 -17.5 $368 17.5 $408 $463 forward 7 unknown #
edge $-1 $457 -15 $285 0 $409 $417 forward 7 unknown #
face $-1 $-1 $410 $29 $-1 $262 reversed single #
face $-1 $445 $435 $29 $-1 $460 reversed single #
edge $-1 $457 -17.5 $415 17.5 $438 $464 forward 7 unknown #
point $-1 15 -15 -17.5 #
point $-1 15 15 17.5 #
straight-curve $-1 -15 15 0 0 0 -1 I I #
point $-1 -15 15 -17.5 #
coedge $-1 $426 $434 $443 $462 forward $435 $-1 #
vertex $-1 $448 $465 #
straight-curve $-1 0 -15 17.5 1 0 0 I I #
edge $-1 $407 -15 $389 -5.6237277068330154e-032 $434 $458 forward 7 unknown #
plane-surface $-1 0 -15 0 0 1 0 0 0 1 forward_v I I I I #
point $-1 -15 -15 -17.5 #
edge $-1 $407 -17.5 $440 17.5 $443 $466 forward 7 unknown #
straight-curve $-1 15 15 0 0 0 -1 I I #
straight-curve $-1 15 -15 0 0 0 -1 I I #
point $-1 15 -15 17.5 #
straight-curve $-1 -15 -15 0 0 0 -1 I I #
End-of-ACIS-data 