600 0 1 0           
111 GICL ACIS Healer - Source: /gicl/data5/repository/ICEM-CDC/Fixture_Models/bluco_412_057/bluco_412_057.sat - 6 0 18 ACIS 6.0.3 Solaris 24 Sat Apr 13 23:05:36 2002 
1 9.999999999999999547e-07 1.000000000000000036e-10 
body $-1 $1 $-1 $2 #
lump $-1 $-1 $3 $0 #
transform $-1 1 0 0 0 1 0 0 0 1 0 0 0 1 no_rotate no_reflect no_shear #
shell $-1 $-1 $-1 $4 $-1 $1 #
face $5 $6 $7 $3 $-1 $8 reversed single #
face_name-twe-attrib $-1 $-1 $-1 $4 1 #
face $9 $10 $11 $3 $-1 $12 forward single #
loop $13 $14 $15 $4 #
plane-surface $16 0 0 0 0 0 1 1 0 0 forward_v I I I I #
face_name-twe-attrib $-1 $-1 $-1 $6 2 #
face $17 $18 $19 $3 $-1 $20 forward single #
loop $21 $22 $23 $6 #
plane-surface $24 0 0 35 0 0 1 1 0 0 forward_v I I I I #
loop_type-twe-attrib $-1 $-1 $-1 $7 0 #
loop $25 $-1 $26 $4 #
coedge $-1 $15 $15 $27 $28 forward $7 $-1 #
surf-twe-attrib $-1 $-1 $-1 $8 4 #
face_name-twe-attrib $-1 $-1 $-1 $10 3 #
face $29 $30 $31 $3 $-1 $32 reversed single #
loop $33 $34 $35 $10 #
cone-surface $36 0 0 0 0 0 1 15 0 0 1 I I 0 1 15 forward I I I I #
loop_type-twe-attrib $-1 $-1 $-1 $11 0 #
loop $37 $-1 $38 $6 #
coedge $-1 $23 $23 $39 $40 reversed $11 $-1 #
surf-twe-attrib $-1 $-1 $-1 $12 6 #
loop_type-twe-attrib $-1 $-1 $-1 $14 1 #
coedge $-1 $26 $26 $41 $42 forward $14 $-1 #
coedge $-1 $27 $27 $15 $28 reversed $43 $-1 #
edge $44 $45 -3.141592653589798889 $45 3.141592653589787343 $27 $46 forward 7 unknown #
face_name-twe-attrib $-1 $-1 $-1 $18 4 #
face $47 $-1 $43 $3 $-1 $48 forward single #
loop $49 $50 $41 $18 #
cone-surface $51 0 0 0 0 0 1 6 0 0 1 I I 0 1 6 forward I I I I #
loop_type-twe-attrib $-1 $-1 $-1 $19 0 #
loop $52 $-1 $39 $10 #
coedge $-1 $35 $35 $53 $54 reversed $19 $-1 #
surf-twe-attrib $-1 $-1 $-1 $20 10 #
loop_type-twe-attrib $-1 $-1 $-1 $22 1 #
coedge $-1 $38 $38 $55 $56 reversed $22 $-1 #
coedge $-1 $39 $39 $23 $40 forward $34 $-1 #
edge $57 $58 0 $58 6.283185307179586232 $39 $59 forward 7 unknown #
coedge $-1 $41 $41 $26 $42 reversed $31 $-1 #
edge $60 $61 -3.141592653589793116 $61 3.141592653589793116 $41 $62 forward 7 unknown #
loop $63 $64 $27 $30 #
edge_name-twe-attrib $-1 $-1 $-1 $28 4 8448 #
vertex $-1 $28 $65 #
ellipse-curve $66 0 0 4.000000000000000311e-15 0 0 -1 -10 9.999999999999999988e-15 0 1 I I #
face_name-twe-attrib $-1 $-1 $-1 $30 5 #
cone-surface $67 0 0 13.73738709727309981 0 0 1 -15 0 0 1 I I 0.3420201433256689905 0.9396926207859079838 15 forward I I I I #
loop_type-twe-attrib $-1 $-1 $-1 $31 0 #
loop $68 $-1 $55 $18 #
surf-twe-attrib $-1 $-1 $-1 $32 18 #
loop_type-twe-attrib $-1 $-1 $-1 $34 1 #
coedge $-1 $53 $53 $35 $54 forward $64 $-1 #
edge $69 $70 -3.141592653589793116 $70 3.141592653589793116 $53 $71 forward 7 unknown #
coedge $-1 $55 $55 $38 $56 forward $50 $-1 #
edge $72 $73 0 $73 6.283185307179586232 $55 $74 forward 7 unknown #
edge_name-twe-attrib $-1 $-1 $-1 $40 1 8704 #
vertex $-1 $40 $75 #
ellipse-curve $76 0 0 35 0 0 -1 15 0 0 1 I I #
edge_name-twe-attrib $-1 $-1 $-1 $42 2 8704 #
vertex $-1 $42 $77 #
ellipse-curve $78 0 0 0 0 0 1 -6 0 0 1 I I #
loop_type-twe-attrib $-1 $-1 $-1 $43 0 #
loop $79 $-1 $53 $30 #
point $-1 10 5.000000000000000152e-14 4.000000000000000311e-15 #
cur-twe-attrib $-1 $-1 $-1 $46 28 #
surf-twe-attrib $-1 $-1 $-1 $48 30 #
loop_type-twe-attrib $-1 $-1 $-1 $50 1 #
edge_name-twe-attrib $-1 $-1 $-1 $54 5 8448 #
vertex $-1 $54 $80 #
ellipse-curve $81 0 0 13.73738709727309981 0 0 -1 -15 0 0 1 I I #
edge_name-twe-attrib $-1 $-1 $-1 $56 3 8704 #
vertex $-1 $56 $82 #
ellipse-curve $83 0 0 35 0 0 1 6 0 0 1 I I #
point $-1 15 0 35 #
cur-twe-attrib $-1 $-1 $-1 $59 40 #
point $-1 6 0 0 #
cur-twe-attrib $-1 $-1 $-1 $62 42 #
loop_type-twe-attrib $-1 $-1 $-1 $64 1 #
point $-1 15 0 13.73738709727309981 #
cur-twe-attrib $-1 $-1 $-1 $71 54 #
point $-1 6 0 35 #
cur-twe-attrib $-1 $-1 $-1 $74 56 #
End-of-ACIS-data 