104 84 0 0                              
body $-1 $1 $-1 $2 #
lump $-1 $-1 $3 $0 #
transform $-1 1 0 0 0 1 0 0 0 1 0 0 0 1 0 0 0 #
shell $-1 $-1 $-1 $4 $1 #
face $5 $6 $7 $3 $-1 $8 1 #
face_name-twe-attrib $-1 $-1 $-1 $4 1 #
face $9 $10 $11 $3 $-1 $12 0 #
loop $13 $14 $15 $4 #
plane-surface $16 0 0 0 0 0 1 1 0 0 0 #
face_name-twe-attrib $-1 $-1 $-1 $6 2 #
face $17 $18 $19 $3 $-1 $20 0 #
loop $21 $22 $23 $6 #
plane-surface $24 0 0 35 0 0 1 1 0 0 0 #
loop_type-twe-attrib $-1 $-1 $-1 $7 0 #
loop $25 $-1 $26 $4 #
coedge $-1 $15 $15 $27 $28 0 $7 $-1 #
surf-twe-attrib $-1 $-1 $-1 $8 4 #
face_name-twe-attrib $-1 $-1 $-1 $10 3 #
face $29 $30 $31 $3 $-1 $32 1 #
loop $33 $34 $35 $10 #
cone-surface $36 0 0 0 0 0 1 15 0 0 1 0 1 0 #
loop_type-twe-attrib $-1 $-1 $-1 $11 0 #
loop $37 $-1 $38 $6 #
coedge $-1 $23 $23 $39 $40 1 $11 $-1 #
surf-twe-attrib $-1 $-1 $-1 $12 6 #
loop_type-twe-attrib $-1 $-1 $-1 $14 1 #
coedge $-1 $26 $26 $41 $42 0 $14 $-1 #
coedge $-1 $27 $27 $15 $28 1 $43 $-1 #
edge $44 $45 $45 $27 $46 0 #
face_name-twe-attrib $-1 $-1 $-1 $18 4 #
face $47 $-1 $43 $3 $-1 $48 0 #
loop $49 $50 $41 $18 #
cone-surface $51 0 0 0 0 0 1 6 0 0 1 0 1 0 #
loop_type-twe-attrib $-1 $-1 $-1 $19 0 #
loop $52 $-1 $39 $10 #
coedge $-1 $35 $35 $53 $54 1 $19 $-1 #
surf-twe-attrib $-1 $-1 $-1 $20 10 #
loop_type-twe-attrib $-1 $-1 $-1 $22 1 #
coedge $-1 $38 $38 $55 $56 1 $22 $-1 #
coedge $-1 $39 $39 $23 $40 0 $34 $-1 #
edge $57 $58 $58 $39 $59 0 #
coedge $-1 $41 $41 $26 $42 1 $31 $-1 #
edge $60 $61 $61 $41 $62 0 #
loop $63 $64 $27 $30 #
edge_name-twe-attrib $-1 $-1 $-1 $28 4 8448 #
vertex $-1 $28 $65 #
ellipse-curve $66 0 0 4e-15 0 0 -1 -10 1e-14 0 1 #
face_name-twe-attrib $-1 $-1 $-1 $30 5 #
cone-surface $67 0 0 13.7373870972731 0 0 1 -15 0 0 1 0.342020143325669 0.939692620785908 0 #
loop_type-twe-attrib $-1 $-1 $-1 $31 0 #
loop $68 $-1 $55 $18 #
surf-twe-attrib $-1 $-1 $-1 $32 18 #
loop_type-twe-attrib $-1 $-1 $-1 $34 1 #
coedge $-1 $53 $53 $35 $54 0 $64 $-1 #
edge $69 $70 $70 $53 $71 0 #
coedge $-1 $55 $55 $38 $56 0 $50 $-1 #
edge $72 $73 $73 $55 $74 0 #
edge_name-twe-attrib $-1 $-1 $-1 $40 1 8704 #
vertex $-1 $40 $75 #
ellipse-curve $76 0 0 35 0 0 -1 15 0 0 1 #
edge_name-twe-attrib $-1 $-1 $-1 $42 2 8704 #
vertex $-1 $42 $77 #
ellipse-curve $78 0 0 0 0 0 1 -6 0 0 1 #
loop_type-twe-attrib $-1 $-1 $-1 $43 0 #
loop $79 $-1 $53 $30 #
point $-1 10 5e-14 4e-15 #
cur-twe-attrib $-1 $-1 $-1 $46 28 #
surf-twe-attrib $-1 $-1 $-1 $48 30 #
loop_type-twe-attrib $-1 $-1 $-1 $50 1 #
edge_name-twe-attrib $-1 $-1 $-1 $54 5 8448 #
vertex $-1 $54 $80 #
ellipse-curve $81 0 0 13.7373870972731 0 0 -1 -15 0 0 1 #
edge_name-twe-attrib $-1 $-1 $-1 $56 3 8704 #
vertex $-1 $56 $82 #
ellipse-curve $83 0 0 35 0 0 1 6 0 0 1 #
point $-1 15 0 35 #
cur-twe-attrib $-1 $-1 $-1 $59 40 #
point $-1 6 0 0 #
cur-twe-attrib $-1 $-1 $-1 $62 42 #
loop_type-twe-attrib $-1 $-1 $-1 $64 1 #
point $-1 15 0 13.7373870972731 #
cur-twe-attrib $-1 $-1 $-1 $71 54 #
point $-1 6 0 35 #
cur-twe-attrib $-1 $-1 $-1 $74 56 #
