105 124 1 0                             
body $-1 $1 $-1 $2 #
lump $-1 $-1 $3 $0 #
transform $-1 1 0 0 0 1 0 0 0 1 60 0 28 1 0 0 0 #
shell $-1 $-1 $-1 $4 $1 #
face $-1 $5 $6 $3 $-1 $7 reversed single #
face $-1 $8 $9 $3 $-1 $10 reversed single #
loop $-1 $-1 $11 $4 #
plane-surface $-1 0 0 -9 0 0 1 1 0 0 0 #
face $-1 $12 $13 $3 $-1 $14 forward single #
loop $-1 $-1 $15 $5 #
plane-surface $-1 15 0 0 -1 0 0 0 -0 1 0 #
coedge $-1 $16 $17 $18 $19 1 $6 $-1 #
face $-1 $20 $21 $3 $-1 $22 forward single #
loop $-1 $-1 $23 $8 #
cone-surface $-1 3.5 48 0 -1 0 0 0 6.36396103067893 6.36396103067893 1 0 1 0 #
coedge $-1 $24 $25 $26 $27 1 $9 $-1 #
coedge $-1 $28 $11 $25 $29 0 $6 $-1 #
coedge $-1 $11 $28 $30 $31 0 $6 $-1 #
coedge $-1 $32 $26 $11 $19 0 $13 $-1 #
edge $-1 $33 $34 $11 $35 0 #
face $-1 $36 $37 $3 $-1 $38 reversed single #
loop $-1 $-1 $39 $12 #
plane-surface $-1 0 0 9 0 0 1 1 0 0 0 #
coedge $-1 $26 $40 $39 $41 0 $13 $-1 #
coedge $-1 $42 $15 $43 $44 1 $9 $-1 #
coedge $-1 $15 $42 $16 $29 1 $9 $-1 #
coedge $-1 $18 $23 $15 $27 0 $13 $-1 #
edge $-1 $45 $33 $15 $46 0 #
coedge $-1 $17 $16 $47 $48 1 $6 $-1 #
edge $-1 $33 $49 $25 $50 0 #
coedge $-1 $51 $52 $17 $31 1 $53 $-1 #
edge $-1 $54 $34 $17 $55 0 #
coedge $-1 $56 $18 $52 $57 0 $13 $-1 #
vertex $-1 $27 $58 #
vertex $-1 $31 $59 #
straight-curve $-1 0 48 -9 -1 -0 -0 #
face $-1 $60 $61 $3 $-1 $62 reversed single #
loop $-1 $-1 $63 $20 #
cone-surface $-1 -15 0 9 0 -1 0 4.94974746830583 0 -4.94974746830583 1 0 1 0 #
coedge $-1 $64 $43 $23 $41 1 $21 $-1 #
coedge $-1 $23 $56 $63 $65 0 $13 $-1 #
edge $-1 $66 $45 $39 $67 0 #
coedge $-1 $25 $24 $68 $69 1 $9 $-1 #
coedge $-1 $39 $70 $24 $44 0 $21 $-1 #
edge $-1 $71 $45 $24 $72 0 #
vertex $-1 $44 $73 #
ellipse-curve $-1 15 48 0 -1 0 0 0 6.36396103067893 -6.36396103067893 1 #
coedge $-1 $68 $74 $28 $48 0 $75 $-1 #
edge $-1 $54 $49 $28 $76 0 #
vertex $-1 $29 $77 #
straight-curve $-1 15 0 -9 0 -1 0 #
coedge $-1 $78 $30 $74 $79 1 $53 $-1 #
coedge $-1 $30 $78 $32 $57 1 $53 $-1 #
loop $-1 $-1 $52 $60 #
vertex $-1 $48 $80 #
straight-curve $-1 -8 0 -9 0 1 0 #
coedge $-1 $40 $32 $81 $82 0 $13 $-1 #
edge $-1 $34 $83 $52 $84 0 #
point $-1 15 48 -9 #
point $-1 -8 48 -9 #
face $-1 $85 $53 $3 $-1 $86 reversed single #
loop $-1 $-1 $81 $36 #
plane-surface $-1 -15 0 0 1 0 0 0 0 -1 0 #
coedge $-1 $87 $88 $40 $65 1 $37 $-1 #
coedge $-1 $70 $39 $88 $89 0 $21 $-1 #
edge $-1 $90 $66 $63 $91 0 #
vertex $-1 $65 $92 #
straight-curve $-1 0 48 9 1 0 0 #
coedge $-1 $93 $47 $42 $69 0 $75 $-1 #
edge $-1 $49 $71 $42 $94 0 #
coedge $-1 $43 $64 $93 $95 1 $21 $-1 #
vertex $-1 $95 $96 #
straight-curve $-1 15 0 9 0 1 0 #
point $-1 15 48 9 #
coedge $-1 $47 $97 $51 $79 0 $75 $-1 #
loop $-1 $-1 $93 $85 #
straight-curve $-1 0 -48 -9 1 0 0 #
point $-1 15 -48 -9 #
coedge $-1 $52 $51 $98 $99 1 $53 $-1 #
edge $-1 $100 $54 $51 $101 0 #
point $-1 -8 -48 -9 #
coedge $-1 $98 $102 $56 $82 1 $61 $-1 #
edge $-1 $83 $90 $81 $103 0 #
vertex $-1 $82 $104 #
intcurve-curve $-1 0 { surfintcur nubs 3 open 13 
	16.3076401833041 3 17.8323518525469 2 19.3570635217896 2 20.8817751910324 2 22.4064868602751 2 
	23.1463501741338 2 23.8862134879926 2 24.6260768018513 2 25.36594011571 2 26.94262828392 2 
	28.51931645213 2 30.0960046203401 2 31.6726927885501 3 
	-8 48 -9 
	-8 48.5082372230809 -9 
	-7.99952239544811 49.0352060010738 -8.95622695602314 
	-8.00313986263173 50.0879229633117 -8.77075996989905 
	-8.00730266736202 50.6136748462905 -8.62908834987278 
	-8.03731960346093 51.628154447123 -8.25402650112249 
	-8.06349068237094 52.1175749298162 -8.02036072722242 
	-8.16111321721299 53.0300164330214 -7.48194788338584 
	-8.23301007300161 53.4529960872124 -7.17721156127368 
	-8.38716817459432 54.01581437722 -6.69837761610578 
	-8.44802318770919 54.2003305086126 -6.52836980825781 
	-8.59438989920485 54.5564800030125 -6.17059808564968 
	-8.67997114103787 54.728105195865 -5.98285449216839 
	-8.87638676262701 55.0484756308131 -5.60186910082302 
	-8.98735240120194 55.1973558106224 -5.40852222824527 
	-9.23045326715673 55.4669787236682 -5.02973876994843 
	-9.36261455962112 55.5877628304946 -4.84434836587504 
	-9.79381536787354 55.9201099686955 -4.29673618017913 
	-10.1448037412857 56.1042864057233 -3.93074992741715 
	-10.9468368640054 56.3930089865084 -3.26919762388146 
	-11.3977719099705 56.4982470442828 -2.97380074391308 
	-12.36385855969 56.6515288891605 -2.49293369584096 
	-12.8802693377241 56.7003044968707 -2.30669440863313 
	-13.9355612263161 56.761942554548 -2.0602184500368 
	-14.4744372772633 56.7749643873921 -2 
	-15 56.7749643873921 -2 
	0.001 
	cone 3.5 48 0 1 -0 0 0 6.36396103067893 -6.36396103067893 1 0 1 0 
	cone -15 0 -9 0 1 0 4.94974746830583 0 4.94974746830583 1 -0 -1 0 
	nullbs 
	nullbs 
	} #
face $-1 $-1 $75 $3 $-1 $105 forward single #
cone-surface $-1 -15 0 -9 0 1 0 4.94974746830583 0 4.94974746830583 1 0 1 0 #
coedge $-1 $106 $63 $102 $107 1 $37 $-1 #
coedge $-1 $63 $106 $64 $89 1 $37 $-1 #
edge $-1 $66 $108 $64 $109 0 #
vertex $-1 $107 $110 #
intcurve-curve $-1 0 { surfintcur nubs 3 open 13 
	0.942587578058169 3 2.51927574626819 2 4.0959639144782 2 5.67265208268822 2 7.24934025089824 2 
	7.98920356475696 2 8.72906687861568 2 9.4689301924744 2 10.2087935063331 2 11.7335051755759 2 
	13.2582168448186 2 14.7829285140614 2 16.3076401833041 3 
	-15 56.7749643873921 2 
	-14.4744372772633 56.7749643873921 2 
	-13.9355612263161 56.761942554548 2.0602184500368 
	-12.8802693377241 56.7003044968707 2.30669440863313 
	-12.36385855969 56.6515288891605 2.49293369584096 
	-11.3977719099705 56.4982470442828 2.97380074391308 
	-10.9468368640054 56.3930089865084 3.26919762388146 
	-10.1448037412857 56.1042864057233 3.93074992741715 
	-9.79381536787354 55.9201099686955 4.29673618017913 
	-9.36261455962112 55.5877628304946 4.84434836587504 
	-9.23045326715672 55.4669787236682 5.02973876994843 
	-8.98735240120193 55.1973558106224 5.40852222824528 
	-8.87638676262701 55.0484756308131 5.60186910082303 
	-8.67997114103787 54.728105195865 5.98285449216839 
	-8.59438989920485 54.5564800030125 6.17059808564968 
	-8.44802318770919 54.2003305086126 6.52836980825781 
	-8.38716817459432 54.01581437722 6.69837761610578 
	-8.23301007300161 53.4529960872124 7.17721156127368 
	-8.16111321721299 53.0300164330214 7.48194788338584 
	-8.06349068237094 52.1175749298162 8.02036072722242 
	-8.03731960346093 51.628154447123 8.25402650112249 
	-8.00730266736202 50.6136748462905 8.62908834987278 
	-8.00313986263173 50.0879229633117 8.77075996989905 
	-7.99952239544811 49.0352060010738 8.95622695602314 
	-8 48.5082372230809 9 
	-8 48 9 
	0.001 
	cone 3.5 48 0 -1 0 0 0 6.36396103067893 6.36396103067893 1 0 1 0 
	cone -15 0 9 0 -1 0 4.94974746830583 0 -4.94974746830583 1 -0 -1 0 
	nullbs 
	nullbs 
	} #
point $-1 -8 48 9 #
coedge $-1 $111 $68 $70 $95 0 $75 $-1 #
ellipse-curve $-1 15 -48 0 -1 0 0 0 -6.36396103067893 6.36396103067893 1 #
edge $-1 $71 $108 $70 $112 0 #
point $-1 15 -48 9 #
coedge $-1 $74 $111 $113 $114 0 $75 $-1 #
coedge $-1 $113 $81 $78 $99 0 $61 $-1 #
edge $-1 $83 $100 $98 $115 0 #
vertex $-1 $99 $116 #
intcurve-curve $-1 0 { surfintcur nubs 3 open 13 
	0.941637552297054 3 2.51832572050707 2 4.09501388871709 2 5.67170205692711 2 7.24839022513713 2 
	7.98825353899585 2 8.72811685285457 2 9.46798016671329 2 10.207843480572 2 11.7325551498148 2 
	13.2572668190575 2 14.7819784883003 2 16.306690157543 3 
	-15 -56.7749643873921 -2 
	-14.4744372772633 -56.7749643873921 -2 
	-13.9355612263161 -56.761942554548 -2.0602184500368 
	-12.8802693377241 -56.7003044968707 -2.30669440863313 
	-12.36385855969 -56.6515288891605 -2.49293369584096 
	-11.3977719099705 -56.4982470442828 -2.97380074391307 
	-10.9468368640054 -56.3930089865084 -3.26919762388146 
	-10.1448037412857 -56.1042864057233 -3.93074992741715 
	-9.79381536787354 -55.9201099686955 -4.29673618017913 
	-9.36261455962112 -55.5877628304946 -4.84434836587504 
	-9.23045326715672 -55.4669787236682 -5.02973876994843 
	-8.98735240120193 -55.1973558106224 -5.40852222824528 
	-8.87638676262701 -55.0484756308131 -5.60186910082302 
	-8.67997114103787 -54.728105195865 -5.98285449216839 
	-8.59438989920486 -54.5564800030125 -6.17059808564968 
	-8.44802318770919 -54.2003305086126 -6.52836980825781 
	-8.38716817459432 -54.01581437722 -6.69837761610578 
	-8.23301007300161 -53.4529960872124 -7.17721156127368 
	-8.16111321721299 -53.0300164330214 -7.48194788338584 
	-8.06349068237094 -52.1175749298162 -8.02036072722242 
	-8.03731960346093 -51.628154447123 -8.25402650112249 
	-8.00730266736202 -50.6136748462905 -8.62908834987278 
	-8.00313986263173 -50.0879229633117 -8.77075996989905 
	-7.99952239544811 -49.0352060010738 -8.95622695602314 
	-8 -48.5082372230809 -9 
	-8 -48 -9 
	0.001 
	cone 3.5 -48 0 -1 -0 -0 0 -6.36396103067893 -6.36396103067893 1 0 1 0 
	cone -15 0 -9 0 1 0 4.94974746830583 0 4.94974746830583 1 -0 -1 0 
	nullbs 
	nullbs 
	} #
coedge $-1 $81 $113 $87 $107 0 $61 $-1 #
ellipse-curve $-1 -15 48 0 1 0 0 0 6.36396103067893 6.36396103067893 1 #
point $-1 -15 56.7749643873921 -2 #
cone-surface $-1 3.5 -48 0 1 0 0 0 -6.36396103067893 6.36396103067893 1 0 1 0 #
coedge $-1 $88 $87 $111 $117 1 $37 $-1 #
edge $-1 $118 $90 $102 $119 0 #
vertex $-1 $89 $120 #
straight-curve $-1 -8 0 9 0 -1 0 #
point $-1 -15 56.7749643873921 2 #
coedge $-1 $97 $93 $106 $117 0 $75 $-1 #
straight-curve $-1 0 -48 9 -1 -0 -0 #
coedge $-1 $102 $98 $97 $114 1 $61 $-1 #
edge $-1 $118 $100 $113 $121 0 #
straight-curve $-1 -15 0 -2 -0 -1 -0 #
point $-1 -15 -56.7749643873921 -2 #
edge $-1 $108 $118 $106 $122 0 #
vertex $-1 $117 $123 #
straight-curve $-1 -15 0 2 -0 1 -0 #
point $-1 -8 -48 9 #
ellipse-curve $-1 -15 -48 0 1 0 0 0 -6.36396103067893 6.36396103067893 1 #
intcurve-curve $-1 0 { surfintcur nubs 3 open 13 
	16.306690157543 3 17.8314018267858 2 19.3561134960285 2 20.8808251652713 2 22.405536834514 2 
	23.1454001483727 2 23.8852634622314 2 24.6251267760902 2 25.3649900899489 2 26.9416782581589 2 
	28.5183664263689 2 30.0950545945789 2 31.671742762789 3 
	-8 -48 9 
	-8 -48.5082372230809 9 
	-7.99952239544811 -49.0352060010738 8.95622695602313 
	-8.00313986263173 -50.0879229633117 8.77075996989905 
	-8.00730266736202 -50.6136748462905 8.62908834987278 
	-8.03731960346093 -51.628154447123 8.25402650112249 
	-8.06349068237094 -52.1175749298162 8.02036072722242 
	-8.16111321721299 -53.0300164330214 7.48194788338584 
	-8.23301007300161 -53.4529960872124 7.17721156127368 
	-8.38716817459432 -54.01581437722 6.69837761610578 
	-8.44802318770919 -54.2003305086126 6.52836980825781 
	-8.59438989920485 -54.5564800030125 6.17059808564968 
	-8.67997114103787 -54.728105195865 5.98285449216839 
	-8.87638676262701 -55.0484756308131 5.60186910082302 
	-8.98735240120194 -55.1973558106224 5.40852222824527 
	-9.23045326715673 -55.4669787236682 5.02973876994843 
	-9.36261455962112 -55.5877628304946 4.84434836587504 
	-9.79381536787354 -55.9201099686955 4.29673618017913 
	-10.1448037412857 -56.1042864057233 3.93074992741715 
	-10.9468368640054 -56.3930089865084 3.26919762388146 
	-11.3977719099705 -56.4982470442828 2.97380074391307 
	-12.36385855969 -56.6515288891605 2.49293369584096 
	-12.8802693377241 -56.7003044968707 2.30669440863313 
	-13.9355612263161 -56.761942554548 2.0602184500368 
	-14.4744372772633 -56.7749643873921 2 
	-15 -56.7749643873921 2 
	0.001 
	cone 3.5 -48 0 1 0 -0 0 -6.36396103067893 6.36396103067893 1 0 1 0 
	cone -15 0 9 0 -1 0 4.94974746830583 0 -4.94974746830583 1 -0 -1 0 
	nullbs 
	nullbs 
	} #
point $-1 -15 -56.7749643873921 2 #
