600 0 2 0           
24 FBMach with ACIS - 6.0.3 13 ACIS 6.0.3 NT 24 Tue May 22 12:24:17 2001 
1 9.9999999999999995e-007 1e-010 
body $2 $3 $-1 $4 #
bdycol-kcp $-1 1 3 $5 $6 $7 #
model_id-kcp-attrib $-1 $-1 $-1 $0 1 990548656 70 1111883777 1 #
lump $-1 $-1 $8 $0 #
transform $-1 1 0 0 0 1 0 0 0 1 60 0 28 1 rotate no_reflect no_shear #
body $9 $10 $-1 $11 #
body $12 $13 $-1 $14 #
body $15 $16 $-1 $17 #
shell $-1 $-1 $-1 $18 $-1 $3 #
model_id-kcp-attrib $-1 $-1 $-1 $5 1 990548656 70 1111883778 1 #
lump $-1 $-1 $19 $5 #
transform $-1 1 0 0 0 1 0 0 0 1 59.999499999999998 0 28 1 no_rotate no_reflect no_shear #
rgb_color-st-attrib $-1 $20 $-1 $6 0.5 1 1 #
lump $-1 $-1 $21 $6 #
transform $-1 1 0 0 0 1 0 0 0 1 59.999499999999998 0 28 1 no_rotate no_reflect no_shear #
rgb_color-st-attrib $-1 $22 $-1 $7 0.5 0.5 1 #
lump $-1 $-1 $23 $7 #
transform $-1 1 0 0 0 1 0 0 0 1 59.999499999999998 0 28 1 no_rotate no_reflect no_shear #
face $24 $25 $26 $8 $-1 $27 reversed single #
shell $-1 $-1 $-1 $28 $-1 $10 #
model_id-kcp-attrib $-1 $-1 $12 $6 1 990548656 160 1117782019 1 #
shell $-1 $-1 $-1 $29 $-1 $13 #
model_id-kcp-attrib $-1 $-1 $15 $7 1 990548656 721 1120993284 1 #
shell $-1 $-1 $-1 $30 $-1 $16 #
model_id-kcp-attrib $-1 $-1 $-1 $18 1 990548656 70 1111883777 2 #
face $31 $32 $33 $8 $-1 $34 reversed single #
loop $-1 $-1 $35 $18 #
plane-surface $-1 0 0 -9 0 0 1 1 0 0 forward_v I I I I #
face $-1 $36 $37 $19 $-1 $38 forward single #
face $-1 $39 $40 $21 $-1 $41 reversed single #
face $-1 $42 $43 $23 $-1 $44 reversed single #
model_id-kcp-attrib $-1 $45 $-1 $25 1 990548656 70 1111883777 10 #
face $46 $47 $48 $8 $-1 $49 forward single #
loop $-1 $-1 $50 $25 #
plane-surface $-1 15 0 0 -1 0 0 0 0 1 forward_v I I I I #
coedge $-1 $51 $52 $53 $54 reversed $26 $-1 #
face $-1 $55 $56 $19 $-1 $57 reversed single #
loop $-1 $-1 $58 $28 #
plane-surface $-1 0 0 9.0009999999999977 0 0 1 1 0 0 forward_v I I I I #
face $-1 $59 $60 $21 $-1 $61 reversed single #
loop $-1 $-1 $62 $29 #
cone-surface $-1 15.000500000000002 -48 0 1 0 0 0 -8.7749643873921244 2.0000000000000027 1 I I 0 1 9.0000000000000036 forward I I I I #
face $-1 $63 $64 $23 $-1 $65 forward single #
loop $-1 $-1 $66 $30 #
plane-surface $-1 -14.999499999999998 0 0 -1 0 0 0 -1 0 forward_v I I I I #
model_id-kcp-attrib $-1 $-1 $31 $25 1 990548656 70 1111883777 3 #
model_id-kcp-attrib $-1 $-1 $-1 $32 1 990548656 70 1111883777 4 #
face $67 $68 $69 $8 $-1 $70 forward single #
loop $-1 $-1 $71 $32 #
cone-surface $-1 3.5 48 0 -1 0 0 0 6.3639610306789303 6.3639610306789303 1 I I 0 1 9.0000000000000036 forward I I I I #
coedge $-1 $72 $73 $74 $75 reversed $33 $-1 #
coedge $-1 $76 $35 $73 $77 forward $26 $-1 #
coedge $-1 $35 $76 $78 $79 forward $26 $-1 #
coedge $-1 $80 $74 $35 $54 forward $48 $-1 #
edge $81 $82 -15 $83 8 $35 $84 forward 7 unknown #
face $-1 $85 $86 $19 $-1 $87 reversed single #
loop $-1 $-1 $88 $36 #
plane-surface $-1 0 0 -9.0009999999999977 0 0 1 1 0 0 forward_v I I I I #
coedge $-1 $89 $90 $91 $92 forward $37 $-1 #
face $-1 $93 $94 $21 $-1 $95 reversed single #
loop $-1 $-1 $96 $39 #
plane-surface $-1 15.000500000000002 -48 9 0 0 1 -1 0 0 forward_v I I I I #
coedge $-1 $97 $98 $99 $100 reversed $40 $-1 #
face $-1 $101 $102 $23 $-1 $103 forward single #
loop $-1 $-1 $104 $42 #
plane-surface $-1 15.000500000000002 48 -9 0 0 -1 1 0 0 forward_v I I I I #
coedge $-1 $105 $106 $107 $108 forward $43 $-1 #
model_id-kcp-attrib $-1 $-1 $-1 $47 1 990548656 70 1111883777 5 #
face $109 $110 $111 $8 $-1 $112 reversed single #
loop $-1 $-1 $113 $47 #
plane-surface $-1 0 0 9 0 0 1 1 0 0 forward_v I I I I #
coedge $-1 $74 $114 $113 $115 forward $48 $-1 #
coedge $-1 $116 $50 $117 $118 reversed $33 $-1 #
coedge $-1 $50 $116 $51 $77 reversed $33 $-1 #
coedge $-1 $53 $71 $50 $75 forward $48 $-1 #
edge $119 $120 -2.3561944901923448 $82 0.78539816339744828 $50 $121 forward 7 unknown #
coedge $-1 $52 $51 $122 $123 reversed $26 $-1 #
edge $124 $82 -48 $125 48 $73 $126 forward 7 unknown #
coedge $-1 $127 $128 $52 $79 reversed $129 $-1 #
edge $130 $131 -48 $83 48 $52 $132 forward 7 unknown #
coedge $-1 $133 $53 $128 $134 forward $48 $-1 #
attrib_edge_convexity-kcp-attrib $-1 $135 $-1 $54 3 #
vertex $-1 $75 $136 #
vertex $-1 $79 $137 #
straight-curve $-1 0 48 -9 -1 0 0 I I #
face $-1 $138 $139 $19 $-1 $140 reversed single #
loop $-1 $-1 $141 $55 #
plane-surface $-1 0 -57 0 0 1 0 0 0 1 forward_v I I I I #
coedge $-1 $142 $143 $144 $145 forward $56 $-1 #
coedge $-1 $146 $58 $147 $148 forward $37 $-1 #
coedge $-1 $58 $146 $149 $150 forward $37 $-1 #
coedge $-1 $151 $152 $58 $92 reversed $153 $-1 #
edge $-1 $154 -57 $155 57 $91 $156 forward 7 unknown #
face $-1 $157 $158 $21 $-1 $95 reversed single #
loop $-1 $-1 $159 $59 #
cone-surface $-1 15.000500000000002 48 0 1 0 0 0 8.7749643873921244 -2.0000000000000027 1 I I 0 1 9.0000000000000036 forward I I I I #
coedge $-1 $160 $161 $162 $163 reversed $60 $-1 #
coedge $-1 $164 $62 $165 $166 forward $40 $-1 #
coedge $-1 $62 $164 $167 $168 forward $40 $-1 #
coedge $-1 $169 $170 $62 $100 forward $171 $-1 #
edge $-1 $172 -1.7948894190962676 $173 -0.22409309230137112 $99 $174 forward 7 unknown #
face $-1 $175 $176 $23 $-1 $177 forward single #
loop $-1 $-1 $107 $63 #
cone-surface $-1 15.000500000000002 -48 0 1 0 0 0 -8.7749643873921244 2.0000000000000027 1 I I 0 1 9.0000000000000036 forward I I I I #
coedge $-1 $178 $179 $105 $180 reversed $64 $-1 #
coedge $-1 $181 $66 $104 $180 forward $43 $-1 #
coedge $-1 $66 $181 $182 $183 forward $43 $-1 #
coedge $-1 $184 $185 $66 $108 reversed $102 $-1 #
edge $186 $187 -1.3467032344935255 $188 1.7948894190962676 $107 $189 forward 7 unknown #
model_id-kcp-attrib $-1 $-1 $-1 $68 1 990548656 70 1111883777 6 #
face $190 $191 $192 $8 $-1 $193 reversed single #
loop $-1 $-1 $194 $68 #
cone-surface $-1 -15 0 9 0 -1 0 4.94974746830583 0 -4.94974746830583 1 I I 0 1 6.9999999999999964 forward I I I I #
coedge $-1 $195 $117 $71 $115 reversed $69 $-1 #
coedge $-1 $71 $133 $194 $196 forward $48 $-1 #
edge $-1 $197 -8 $120 15 $113 $198 forward 7 unknown #
coedge $-1 $73 $72 $199 $200 reversed $33 $-1 #
coedge $-1 $113 $201 $72 $118 forward $69 $-1 #
edge $202 $203 -48 $120 48 $72 $204 forward 7 unknown #
attrib_edge_convexity-kcp-attrib $-1 $205 $-1 $75 1 #
vertex $-1 $118 $206 #
ellipse-curve $-1 15 48 0 -1 0 0 0 6.3639610306789303 -6.3639610306789303 1 I I #
coedge $-1 $199 $207 $76 $123 forward $208 $-1 #
edge $209 $131 -8 $125 15 $76 $210 forward 7 unknown #
attrib_edge_convexity-kcp-attrib $-1 $211 $-1 $77 1 #
vertex $-1 $77 $212 #
straight-curve $-1 15 0 -9 0 -1 0 I I #
coedge $-1 $213 $78 $207 $214 reversed $129 $-1 #
coedge $-1 $78 $213 $80 $134 reversed $129 $-1 #
loop $-1 $-1 $128 $191 #
attrib_edge_convexity-kcp-attrib $-1 $215 $-1 $79 1 #
vertex $-1 $123 $216 #
straight-curve $-1 -8 0 -9 0 1 0 I I #
coedge $-1 $114 $80 $217 $218 forward $48 $-1 #
edge $-1 $83 16.307640183304098 $219 31.672692788550101 $128 $220 forward 7 unknown #
convexity-sys-attrib $-1 $-1 $81 $54 #
point $-1 15 48 -9 #
point $-1 -8 48 -9 #
face $-1 $221 $222 $19 $-1 $223 reversed single #
loop $-1 $-1 $224 $85 #
plane-surface $-1 -15.000499999999999 0 0 1 0 0 0 0 -1 forward_v I I I I #
coedge $-1 $225 $149 $226 $227 forward $86 $-1 #
coedge $-1 $228 $88 $225 $229 forward $56 $-1 #
coedge $-1 $88 $228 $230 $231 forward $56 $-1 #
coedge $-1 $152 $151 $88 $145 reversed $153 $-1 #
edge $-1 $232 -57 $233 57 $144 $234 forward 7 unknown #
coedge $-1 $90 $89 $235 $236 forward $37 $-1 #
coedge $-1 $237 $238 $89 $148 reversed $222 $-1 #
edge $-1 $155 -15.000499999999999 $239 15.000499999999999 $147 $240 forward 7 unknown #
coedge $-1 $141 $241 $90 $150 reversed $86 $-1 #
edge $-1 $242 -15.000499999999999 $154 15.000499999999999 $149 $243 forward 7 unknown #
coedge $-1 $144 $91 $241 $244 forward $153 $-1 #
coedge $-1 $91 $144 $237 $245 reversed $153 $-1 #
loop $-1 $-1 $151 $221 #
vertex $-1 $92 $246 #
vertex $-1 $92 $247 #
straight-curve $-1 15.000499999999999 0 9.0009999999999977 0 1 0 I I #
face $-1 $248 $249 $21 $-1 $41 reversed single #
loop $-1 $-1 $250 $93 #
coedge $-1 $251 $252 $253 $254 reversed $94 $-1 #
coedge $-1 $255 $96 $256 $257 forward $60 $-1 #
coedge $-1 $96 $255 $258 $259 reversed $60 $-1 #
coedge $-1 $260 $261 $96 $163 forward $262 $-1 #
edge $-1 $263 -24 $264 72 $162 $265 forward 7 unknown #
coedge $-1 $98 $97 $266 $267 reversed $40 $-1 #
coedge $-1 $268 $269 $97 $166 reversed $270 $-1 #
edge $-1 $172 3.5527136788005009e-015 $271 30.001000000000001 $165 $272 forward 7 unknown #
coedge $-1 $273 $274 $275 $168 reversed $249 $-1 #
edge $-1 $276 -30.001000000000001 $173 -3.5527136788005009e-015 $275 $277 forward 7 unknown #
coedge $-1 $278 $99 $279 $280 forward $171 $-1 #
coedge $-1 $99 $253 $268 $281 forward $171 $-1 #
loop $-1 $-1 $99 $282 #
vertex $-1 $100 $283 #
vertex $-1 $280 $284 #
ellipse-curve $-1 15.000499999999999 -48 0 -1 0 0 0 -8.7749643873921244 2.0000000000000027 1 I I #
face $-1 $285 $286 $23 $-1 $287 forward single #
loop $-1 $-1 $182 $101 #
plane-surface $-1 15.000500000000002 -48 9 0 0 1 -1 0 0 forward_v I I I I #
coedge $-1 $288 $104 $185 $289 forward $64 $-1 #
coedge $-1 $104 $288 $290 $291 forward $64 $-1 #
edge $292 $188 -72 $293 24 $104 $294 forward 7 unknown #
coedge $-1 $106 $105 $295 $296 forward $43 $-1 #
coedge $-1 $297 $298 $106 $183 reversed $176 $-1 #
edge $299 $300 -72 $187 24 $182 $301 forward 7 unknown #
coedge $-1 $302 $107 $298 $303 forward $102 $-1 #
coedge $-1 $107 $302 $178 $289 reversed $102 $-1 #
convexity-sys-attrib $-1 $-1 $-1 $108 #
vertex $-1 $303 $304 #
vertex $-1 $289 $305 #
ellipse-curve $-1 -14.999499999999998 -48 0 1 0 0 0 -8.7749643873921244 2.0000000000000027 1 I I #
model_id-kcp-attrib $-1 $-1 $-1 $110 1 990548656 70 1111883777 7 #
face $306 $307 $129 $8 $-1 $308 reversed single #
loop $-1 $-1 $217 $110 #
plane-surface $-1 -15 0 0 1 0 0 0 0 -1 forward_v I I I I #
coedge $-1 $309 $310 $114 $196 reversed $111 $-1 #
coedge $-1 $201 $113 $310 $311 forward $69 $-1 #
edge $-1 $312 0.94258757805816895 $197 16.307640183304098 $194 $313 forward 7 unknown #
vertex $-1 $196 $314 #
straight-curve $-1 0 48 9 1 0 0 I I #
coedge $-1 $315 $122 $116 $200 forward $208 $-1 #
edge $316 $125 -2.3561944901923448 $203 0.78539816339744828 $116 $317 forward 7 unknown #
coedge $-1 $117 $195 $315 $318 reversed $69 $-1 #
attrib_edge_convexity-kcp-attrib $-1 $319 $-1 $118 1 #
vertex $-1 $318 $320 #
straight-curve $-1 15 0 9 0 1 0 I I #
convexity-sys-attrib $-1 $-1 $119 $75 #
point $-1 15 48 9 #
coedge $-1 $122 $321 $127 $214 forward $208 $-1 #
loop $-1 $-1 $315 $307 #
attrib_edge_convexity-kcp-attrib $-1 $322 $-1 $123 3 #
straight-curve $-1 0 -48 -9 1 0 0 I I #
convexity-sys-attrib $-1 $-1 $124 $77 #
point $-1 15 -48 -9 #
coedge $-1 $128 $127 $323 $324 reversed $129 $-1 #
edge $-1 $325 0.94163755229705404 $131 16.306690157542999 $127 $326 forward 7 unknown #
convexity-sys-attrib $-1 $-1 $130 $79 #
point $-1 -8 -48 -9 #
coedge $-1 $323 $327 $133 $218 reversed $192 $-1 #
edge $328 $219 -1.0094912556988196 $312 -0.56130507109607697 $217 $329 forward 7 unknown #
vertex $-1 $218 $330 #
intcurve-curve $-1 forward { surfintcur full nubs 3 open 13 
	16.307640183304098 3 17.8323518525469 2 19.357063521789598 2 20.8817751910324 2 22.406486860275098 2 
	23.146350174133801 2 23.886213487992599 2 24.626076801851301 2 25.36594011571 2 26.942628283920001 2 
	28.519316452129999 2 30.0960046203401 2 31.672692788550101 3 
	-8 48 -9 
	-8 48.508237223080897 -9 
	-7.9995223954481096 49.035206001073803 -8.9562269560231407 
	-8.0031398626317305 50.087922963311698 -8.7707599698990499 
	-8.0073026673620191 50.6136748462905 -8.6290883498727808 
	-8.0373196034609293 51.628154447123002 -8.2540265011224907 
	-8.06349068237094 52.1175749298162 -8.0203607272224193 
	-8.1611132172129892 53.030016433021402 -7.4819478833858399 
	-8.2330100730016103 53.452996087212398 -7.1772115612736798 
	-8.3871681745943203 54.015814377220003 -6.6983776161057804 
	-8.4480231877091896 54.200330508612602 -6.5283698082578097 
	-8.5943898992048506 54.556480003012503 -6.1705980856496803 
	-8.6799711410378695 54.728105195864998 -5.9828544921683902 
	-8.8763867626270105 55.048475630813101 -5.6018691008230199 
	-8.9873524012019406 55.197355810622398 -5.4085222282452703 
	-9.2304532671567294 55.466978723668198 -5.0297387699484304 
	-9.3626145596211199 55.587762830494597 -4.8443483658750397 
	-9.79381536787354 55.920109968695499 -4.2967361801791304 
	-10.144803741285701 56.1042864057233 -3.9307499274171498 
	-10.9468368640054 56.393008986508399 -3.26919762388146 
	-11.397771909970499 56.498247044282799 -2.9738007439130798 
	-12.36385855969 56.651528889160502 -2.4929336958409598 
	-12.8802693377241 56.7003044968707 -2.3066944086331298 
	-13.9355612263161 56.761942554548 -2.0602184500368002 
	-14.4744372772633 56.774964387392103 -2 
	-15 56.774964387392103 -2 
	0.001 
	cone 3.5 48 0 1 0 0 0 6.3639610306789303 -6.3639610306789303 1 I I 0 1 9.0000000000000036 forward I I I I 
	cone -15 0 -9 0 1 0 4.94974746830583 0 4.94974746830583 1 I I 0 -1 6.9999999999999964 forward I I I I 
	nullbs 
	nullbs 
	I I 
	0 
	0 
	0 
	} I I #
face $331 $-1 $153 $19 $-1 $332 reversed single #
loop $-1 $-1 $237 $138 #
plane-surface $-1 0 57 0 0 -1 0 0 0 -1 forward_v I I I I #
coedge $-1 $333 $235 $238 $334 forward $139 $-1 #
coedge $-1 $241 $141 $142 $229 reversed $86 $-1 #
coedge $-1 $235 $333 $141 $227 reversed $139 $-1 #
edge $-1 $242 -9.0009999999999977 $335 9.0009999999999977 $226 $336 forward 7 unknown #
coedge $-1 $143 $142 $333 $337 forward $56 $-1 #
edge $-1 $233 -15.000499999999999 $335 15.000499999999999 $225 $338 forward 7 unknown #
coedge $-1 $238 $237 $143 $231 reversed $222 $-1 #
edge $-1 $339 -15.000499999999999 $232 15.000499999999999 $230 $340 forward 7 unknown #
vertex $-1 $145 $341 #
vertex $-1 $244 $342 #
straight-curve $-1 15.000499999999999 0 -9.0009999999999977 0 -1 0 I I #
coedge $-1 $224 $226 $146 $236 reversed $139 $-1 #
edge $-1 $239 -57 $242 57 $235 $343 forward 7 unknown #
coedge $-1 $230 $147 $152 $245 forward $222 $-1 #
coedge $-1 $147 $230 $224 $334 reversed $222 $-1 #
vertex $-1 $148 $344 #
straight-curve $-1 0 57 9.0009999999999977 -1 0 0 I I #
coedge $-1 $149 $225 $151 $244 reversed $86 $-1 #
vertex $-1 $236 $345 #
straight-curve $-1 0 -57 9.0009999999999977 1 0 0 I I #
edge $-1 $154 -9.0009999999999977 $233 9.0009999999999977 $151 $346 forward 7 unknown #
edge $-1 $155 -9.0009999999999977 $232 9.0009999999999977 $152 $347 forward 7 unknown #
point $-1 15.000499999999999 -57 9.0009999999999977 #
point $-1 15.000499999999999 57 9.0009999999999977 #
face $-1 $282 $270 $21 $-1 $348 reversed single #
loop $-1 $-1 $274 $157 #
coedge $-1 $258 $349 $260 $350 reversed $158 $-1 #
coedge $-1 $351 $159 $352 $353 reversed $94 $-1 #
coedge $-1 $159 $351 $354 $355 forward $94 $-1 #
coedge $-1 $170 $356 $159 $254 forward $171 $-1 #
edge $-1 $357 -0.22409309230137112 $358 1.3467032344935255 $253 $359 forward 7 unknown #
coedge $-1 $161 $160 $360 $361 reversed $60 $-1 #
coedge $-1 $274 $273 $160 $257 reversed $249 $-1 #
edge $-1 $263 3.5527136788005009e-015 $362 30.001000000000001 $256 $363 forward 7 unknown #
coedge $-1 $364 $250 $161 $259 forward $158 $-1 #
edge $-1 $264 3.5527136788005009e-015 $365 30.001000000000001 $161 $366 forward 7 unknown #
coedge $-1 $367 $162 $250 $350 forward $262 $-1 #
coedge $-1 $162 $368 $274 $369 forward $262 $-1 #
loop $-1 $-1 $261 $370 #
vertex $-1 $369 $371 #
vertex $-1 $163 $372 #
straight-curve $-1 15.000499999999999 -24 9 0 1 0 I I #
coedge $-1 $373 $374 $164 $267 forward $375 $-1 #
edge $-1 $276 0.22409309230137112 $271 1.7948894190962676 $266 $376 forward 7 unknown #
coedge $-1 $354 $165 $170 $281 reversed $270 $-1 #
coedge $-1 $165 $354 $373 $377 reversed $270 $-1 #
loop $-1 $-1 $268 $248 #
vertex $-1 $267 $378 #
straight-curve $-1 15.000500000000002 -48 -9 -1 0 0 I I #
coedge $-1 $256 $167 $379 $380 reversed $249 $-1 #
coedge $-1 $167 $256 $261 $369 reversed $249 $-1 #
coedge $-1 $381 $382 $383 $168 forward $384 $-1 #
vertex $-1 $385 $386 #
straight-curve $-1 15.000500000000002 -57 0 1 0 0 I I #
coedge $-1 $356 $169 $387 $388 reversed $171 $-1 #
coedge $-1 $383 $389 $169 $280 reversed $390 $-1 #
edge $-1 $173 0 $391 9.0009999999999977 $169 $392 forward 7 unknown #
edge $-1 $358 -24 $172 72 $170 $393 forward 7 unknown #
face $-1 $370 $171 $21 $-1 $394 reversed single #
point $-1 15.000499999999999 -48 -9 #
point $-1 15.000499999999999 -57 0 #
face $-1 $-1 $395 $23 $-1 $396 reversed single #
loop $-1 $-1 $295 $175 #
cone-surface $-1 15.000500000000002 48 0 1 0 0 0 8.7749643873921244 -2.0000000000000027 1 I I 0 1 9.0000000000000036 forward I I I I #
coedge $-1 $179 $178 $397 $398 reversed $64 $-1 #
edge $-1 $188 30 $399 30.001000000000001 $178 $400 forward 7 unknown #
coedge $-1 $401 $295 $179 $291 reversed $286 $-1 #
edge $-1 $402 -30.001000000000001 $293 -30 $179 $403 forward 7 unknown #
convexity-sys-attrib $-1 $-1 $-1 $180 #
vertex $-1 $180 $404 #
straight-curve $-1 -14.999499999999998 24 -9 0 1 0 I I #
coedge $-1 $290 $405 $181 $296 reversed $286 $-1 #
edge $406 $293 -1.3467032344935255 $300 1.7948894190962676 $295 $407 forward 7 unknown #
coedge $-1 $408 $182 $405 $409 forward $176 $-1 #
coedge $-1 $182 $408 $184 $303 reversed $176 $-1 #
convexity-sys-attrib $-1 $-1 $-1 $183 #
vertex $-1 $409 $410 #
straight-curve $-1 -14.999499999999998 -24 9 0 -1 0 I I #
coedge $-1 $185 $184 $411 $412 reversed $102 $-1 #
edge $-1 $187 30 $413 30.001000000000001 $184 $414 forward 7 unknown #
point $-1 -14.999499999999998 -48 9 #
point $-1 -14.999499999999998 -48 -9 #
model_id-kcp-attrib $-1 $-1 $-1 $191 1 990548656 70 1111883777 8 #
face $415 $-1 $208 $8 $-1 $416 forward single #
cone-surface $-1 -15 0 -9 0 1 0 4.94974746830583 0 4.94974746830583 1 I I 0 1 6.9999999999999964 forward I I I I #
coedge $-1 $417 $194 $327 $418 reversed $111 $-1 #
coedge $-1 $194 $417 $195 $311 reversed $111 $-1 #
edge $-1 $197 -48 $419 48 $195 $420 forward 7 unknown #
vertex $-1 $418 $421 #
intcurve-curve $-1 forward { surfintcur full nubs 3 open 13 
	0.94258757805816895 3 2.5192757462681898 2 4.0959639144782001 2 5.6726520826882201 2 7.2493402508982401 2 
	7.9892035647569601 2 8.7290668786156793 2 9.4689301924743994 2 10.2087935063331 2 11.7335051755759 2 
	13.2582168448186 2 14.7829285140614 2 16.307640183304098 3 
	-15 56.774964387392103 2 
	-14.4744372772633 56.774964387392103 2 
	-13.9355612263161 56.761942554548 2.0602184500368002 
	-12.8802693377241 56.7003044968707 2.3066944086331298 
	-12.36385855969 56.651528889160502 2.4929336958409598 
	-11.397771909970499 56.498247044282799 2.9738007439130798 
	-10.9468368640054 56.393008986508399 3.26919762388146 
	-10.144803741285701 56.1042864057233 3.9307499274171498 
	-9.79381536787354 55.920109968695499 4.2967361801791304 
	-9.3626145596211199 55.587762830494597 4.8443483658750397 
	-9.2304532671567205 55.466978723668198 5.0297387699484304 
	-8.9873524012019299 55.197355810622398 5.4085222282452801 
	-8.8763867626270105 55.048475630813101 5.6018691008230297 
	-8.6799711410378695 54.728105195864998 5.9828544921683902 
	-8.5943898992048506 54.556480003012503 6.1705980856496803 
	-8.4480231877091896 54.200330508612602 6.5283698082578097 
	-8.3871681745943203 54.015814377220003 6.6983776161057804 
	-8.2330100730016103 53.452996087212398 7.1772115612736798 
	-8.1611132172129892 53.030016433021402 7.4819478833858399 
	-8.06349068237094 52.1175749298162 8.0203607272224193 
	-8.0373196034609293 51.628154447123002 8.2540265011224907 
	-8.0073026673620191 50.6136748462905 8.6290883498727808 
	-8.0031398626317305 50.087922963311698 8.7707599698990499 
	-7.9995223954481096 49.035206001073803 8.9562269560231407 
	-8 48.508237223080897 9 
	-8 48 9 
	0.001 
	cone 3.5 48 0 -1 0 0 0 6.3639610306789303 6.3639610306789303 1 I I 0 1 9.0000000000000036 forward I I I I 
	cone -15 0 9 0 -1 0 4.94974746830583 0 -4.94974746830583 1 I I 0 -1 6.9999999999999964 forward I I I I 
	nullbs 
	nullbs 
	I I 
	0 
	0 
	0 
	} I I #
point $-1 -8 48 9 #
coedge $-1 $422 $199 $201 $318 forward $208 $-1 #
attrib_edge_convexity-kcp-attrib $-1 $423 $-1 $200 1 #
ellipse-curve $-1 15 -48 0 -1 0 0 0 -6.3639610306789303 6.3639610306789303 1 I I #
edge $-1 $203 -15 $419 8 $201 $424 forward 7 unknown #
convexity-sys-attrib $-1 $-1 $202 $118 #
point $-1 15 -48 9 #
coedge $-1 $207 $422 $425 $426 forward $208 $-1 #
convexity-sys-attrib $-1 $-1 $209 $123 #
coedge $-1 $425 $217 $213 $324 forward $192 $-1 #
edge $427 $219 -56.774964387392103 $325 56.774964387392103 $323 $428 forward 7 unknown #
vertex $-1 $324 $429 #
intcurve-curve $-1 forward { surfintcur full nubs 3 open 13 
	0.94163755229705404 3 2.5183257205070699 2 4.0950138887170899 2 5.6717020569271099 2 7.2483902251371299 2 
	7.98825353899585 2 8.7281168528545692 2 9.4679801667132892 2 10.207843480572 2 11.7325551498148 2 
	13.2572668190575 2 14.7819784883003 2 16.306690157542999 3 
	-15 -56.774964387392103 -2 
	-14.4744372772633 -56.774964387392103 -2 
	-13.9355612263161 -56.761942554548 -2.0602184500368002 
	-12.8802693377241 -56.7003044968707 -2.3066944086331298 
	-12.36385855969 -56.651528889160502 -2.4929336958409598 
	-11.397771909970499 -56.498247044282799 -2.97380074391307 
	-10.9468368640054 -56.393008986508399 -3.26919762388146 
	-10.144803741285701 -56.1042864057233 -3.9307499274171498 
	-9.79381536787354 -55.920109968695499 -4.2967361801791304 
	-9.3626145596211199 -55.587762830494597 -4.8443483658750397 
	-9.2304532671567205 -55.466978723668198 -5.0297387699484304 
	-8.9873524012019299 -55.197355810622398 -5.4085222282452801 
	-8.8763867626270105 -55.048475630813101 -5.6018691008230199 
	-8.6799711410378695 -54.728105195864998 -5.9828544921683902 
	-8.5943898992048595 -54.556480003012503 -6.1705980856496803 
	-8.4480231877091896 -54.200330508612602 -6.5283698082578097 
	-8.3871681745943203 -54.015814377220003 -6.6983776161057804 
	-8.2330100730016103 -53.452996087212398 -7.1772115612736798 
	-8.1611132172129892 -53.030016433021402 -7.4819478833858399 
	-8.06349068237094 -52.1175749298162 -8.0203607272224193 
	-8.0373196034609293 -51.628154447123002 -8.2540265011224907 
	-8.0073026673620191 -50.6136748462905 -8.6290883498727808 
	-8.0031398626317305 -50.087922963311698 -8.7707599698990499 
	-7.9995223954481096 -49.035206001073803 -8.9562269560231407 
	-8 -48.508237223080897 -9 
	-8 -48 -9 
	0.001 
	cone 3.5 -48 0 -1 0 0 0 -6.3639610306789303 -6.3639610306789303 1 I I 0 1 9.0000000000000036 forward I I I I 
	cone -15 0 -9 0 1 0 4.94974746830583 0 4.94974746830583 1 I I 0 -1 6.9999999999999964 forward I I I I 
	nullbs 
	nullbs 
	I I 
	0 
	0 
	0 
	} I I #
coedge $-1 $217 $425 $309 $418 forward $192 $-1 #
attrib_edge_convexity-kcp-attrib $-1 $430 $-1 $218 1 #
ellipse-curve $-1 -15 48 0 1 0 0 0 6.3639610306789303 6.3639610306789303 1 I I #
point $-1 -15 56.774964387392103 -2 #
model_id-kcp-attrib $-1 $-1 $-1 $221 1 990548656 70 1111883778 2 #
plane-surface $-1 15.000499999999999 0 0 -1 0 0 0 0 1 forward_v I I I I #
coedge $-1 $226 $224 $228 $337 reversed $139 $-1 #
edge $-1 $239 -9.0009999999999977 $339 9.0009999999999977 $238 $431 forward 7 unknown #
vertex $-1 $337 $432 #
straight-curve $-1 -15.000499999999999 -57 0 0 0 -1 I I #
edge $-1 $335 -57 $339 57 $333 $433 forward 7 unknown #
straight-curve $-1 0 -57 -9.0009999999999977 -1 0 0 I I #
vertex $-1 $231 $434 #
straight-curve $-1 0 57 -9.0009999999999977 1 0 0 I I #
point $-1 15.000499999999999 57 -9.0009999999999977 #
point $-1 15.000499999999999 -57 -9.0009999999999977 #
straight-curve $-1 -15.000499999999999 0 9.0009999999999977 0 -1 0 I I #
point $-1 -15.000499999999999 57 9.0009999999999977 #
point $-1 -15.000499999999999 -57 9.0009999999999977 #
straight-curve $-1 15.000499999999999 -57 0 0 0 -1 I I #
straight-curve $-1 15.000499999999999 57 0 0 0 -1 I I #
plane-surface $-1 15.000500000000002 48 -9 0 0 -1 1 0 0 forward_v I I I I #
coedge $-1 $250 $364 $251 $353 forward $158 $-1 #
edge $-1 $264 -1.7948894190962676 $357 -0.22409309230137112 $260 $359 forward 7 unknown #
coedge $-1 $252 $251 $435 $436 reversed $94 $-1 #
coedge $-1 $437 $438 $439 $353 forward $440 $-1 #
edge $-1 $441 -30.001000000000001 $357 -3.5527136788005009e-015 $352 $442 forward 7 unknown #
coedge $-1 $269 $268 $252 $355 reversed $270 $-1 #
edge $-1 $443 -30.001000000000001 $358 -3.5527136788005009e-015 $354 $444 forward 7 unknown #
coedge $-1 $253 $278 $437 $445 reversed $171 $-1 #
vertex $-1 $445 $446 #
vertex $-1 $254 $447 #
ellipse-curve $-1 15.000499999999999 48 0 -1 0 0 0 8.7749643873921244 -2.0000000000000027 1 I I #
coedge $-1 $379 $448 $255 $361 forward $449 $-1 #
edge $-1 $365 -72 $362 24 $360 $450 forward 7 unknown #
vertex $-1 $380 $451 #
straight-curve $-1 15.000500000000002 -48 9 -1 0 0 I I #
coedge $-1 $349 $258 $448 $452 reversed $158 $-1 #
vertex $-1 $361 $453 #
straight-curve $-1 15.000500000000002 48 9 -1 0 0 I I #
coedge $-1 $454 $260 $455 $456 reversed $262 $-1 #
coedge $-1 $261 $454 $381 $457 forward $262 $-1 #
edge $-1 $173 -0.22409309230137112 $263 1.3467032344935255 $261 $174 forward 7 unknown #
face $-1 $458 $262 $21 $-1 $394 reversed single #
point $-1 15.000499999999999 -48 9 #
point $-1 15.000499999999999 48 9 #
coedge $-1 $435 $266 $269 $377 forward $375 $-1 #
coedge $-1 $266 $459 $460 $385 reversed $375 $-1 #
loop $-1 $-1 $266 $461 #
ellipse-curve $-1 -15.000499999999999 -48 0 1 0 0 0 -8.7749643873921244 2.0000000000000027 1 I I #
edge $-1 $271 -72 $443 24 $373 $462 forward 7 unknown #
point $-1 -15.000499999999999 -48 -9 #
coedge $-1 $463 $360 $273 $380 forward $449 $-1 #
edge $-1 $362 -1.3467032344935255 $276 0.22409309230137112 $379 $376 forward 7 unknown #
coedge $-1 $464 $275 $368 $457 reversed $384 $-1 #
coedge $-1 $275 $464 $463 $465 forward $384 $-1 #
coedge $-1 $460 $279 $98 $168 reversed $390 $-1 #
loop $-1 $-1 $275 $466 #
edge $-1 $276 0 $467 9.0009999999999977 $374 $468 forward 7 unknown #
point $-1 -15.000499999999999 -57 0 #
coedge $-1 $469 $470 $278 $388 forward $471 $-1 #
edge $-1 $472 -57 $391 57 $278 $473 forward 7 unknown #
coedge $-1 $279 $460 $469 $474 reversed $390 $-1 #
loop $-1 $-1 $383 $458 #
vertex $-1 $280 $475 #
straight-curve $-1 15.000499999999999 -57 0 0 0 -1 I I #
straight-curve $-1 15.000499999999999 24 -9 0 -1 0 I I #
plane-surface $-1 15.000499999999999 0 0 -1 0 0 0 0 1 forward_v I I I I #
loop $-1 $-1 $411 $285 #
plane-surface $-1 -15.000499999999999 0 0 1 0 0 0 0 -1 forward_v I I I I #
coedge $-1 $411 $476 $288 $398 forward $395 $-1 #
edge $-1 $402 -24 $399 72 $397 $477 forward 7 unknown #
vertex $-1 $412 $478 #
straight-curve $-1 15.000500000000002 -48 -9 -1 0 0 I I #
coedge $-1 $405 $290 $476 $479 reversed $286 $-1 #
vertex $-1 $479 $480 #
straight-curve $-1 15.000500000000002 48 -9 1 0 0 I I #
point $-1 -14.999499999999998 48 -9 #
coedge $-1 $295 $401 $297 $409 reversed $286 $-1 #
convexity-sys-attrib $-1 $-1 $-1 $296 #
ellipse-curve $-1 -14.999499999999998 48 0 1 0 0 0 8.7749643873921244 -2.0000000000000027 1 I I #
coedge $-1 $298 $297 $481 $482 reversed $176 $-1 #
edge $-1 $300 30 $483 30.001000000000001 $297 $484 forward 7 unknown #
point $-1 -14.999499999999998 48 9 #
coedge $-1 $481 $397 $302 $412 forward $395 $-1 #
edge $-1 $399 -1.7948894190962676 $413 1.3467032344935255 $411 $485 forward 7 unknown #
vertex $-1 $482 $486 #
straight-curve $-1 15.000500000000002 -48 9 -1 0 0 I I #
model_id-kcp-attrib $-1 $-1 $-1 $307 1 990548656 70 1111883777 9 #
cone-surface $-1 3.5 -48 0 1 0 0 0 -6.3639610306789303 6.3639610306789303 1 I I 0 1 9.0000000000000036 forward I I I I #
coedge $-1 $310 $309 $422 $487 reversed $111 $-1 #
edge $488 $489 -56.774964387392103 $312 56.774964387392103 $327 $490 forward 7 unknown #
vertex $-1 $311 $491 #
straight-curve $-1 -8 0 9 0 -1 0 I I #
point $-1 -15 56.774964387392103 2 #
coedge $-1 $321 $315 $417 $487 forward $208 $-1 #
convexity-sys-attrib $-1 $-1 $316 $200 #
straight-curve $-1 0 -48 9 -1 0 0 I I #
coedge $-1 $327 $323 $321 $426 reversed $192 $-1 #
edge $492 $489 0.56130507109607697 $325 1.0094912556988196 $425 $493 forward 7 unknown #
attrib_edge_convexity-kcp-attrib $-1 $494 $-1 $324 1 #
straight-curve $-1 -15 0 -2 0 -1 0 I I #
point $-1 -15 -56.774964387392103 -2 #
convexity-sys-attrib $-1 $-1 $328 $218 #
straight-curve $-1 -15.000499999999999 57 0 0 0 -1 I I #
point $-1 -15.000499999999999 -57 -9.0009999999999977 #
straight-curve $-1 -15.000499999999999 0 -9.0009999999999977 0 1 0 I I #
point $-1 -15.000499999999999 57 -9.0009999999999977 #
coedge $-1 $495 $373 $351 $436 forward $375 $-1 #
edge $-1 $443 -1.3467032344935255 $441 0.22409309230137112 $435 $496 forward 7 unknown #
coedge $-1 $497 $352 $356 $445 forward $440 $-1 #
coedge $-1 $352 $497 $495 $498 reversed $440 $-1 #
coedge $-1 $499 $455 $349 $353 reversed $500 $-1 #
loop $-1 $-1 $352 $501 #
vertex $-1 $498 $502 #
straight-curve $-1 15.000500000000002 57 0 1 0 0 I I #
vertex $-1 $436 $503 #
straight-curve $-1 15.000500000000002 48 -9 1 0 0 I I #
edge $-1 $357 0 $472 9.0009999999999977 $356 $504 forward 7 unknown #
point $-1 15.000499999999999 57 0 #
point $-1 15.000499999999999 48 -9 #
coedge $-1 $360 $505 $364 $452 forward $449 $-1 #
loop $-1 $-1 $379 $506 #
straight-curve $-1 -15.000499999999999 -24 9 0 -1 0 I I #
point $-1 -15.000499999999999 -48 9 #
edge $-1 $441 0.22409309230137112 $365 1.7948894190962676 $448 $496 forward 7 unknown #
point $-1 -15.000499999999999 48 9 #
coedge $-1 $368 $367 $507 $508 reversed $262 $-1 #
coedge $-1 $439 $509 $367 $456 forward $500 $-1 #
edge $-1 $510 -9.0009999999999977 $357 0 $367 $504 forward 7 unknown #
edge $-1 $511 -9.0009999999999977 $173 0 $368 $392 forward 7 unknown #
face $-1 $506 $390 $21 $-1 $512 reversed single #
coedge $-1 $374 $495 $513 $514 reversed $375 $-1 #
coedge $-1 $389 $383 $374 $385 forward $390 $-1 #
face $-1 $515 $375 $21 $-1 $516 reversed single #
straight-curve $-1 -15.000499999999999 24 -9 0 1 0 I I #
coedge $-1 $517 $379 $382 $465 reversed $449 $-1 #
coedge $-1 $382 $381 $518 $519 reversed $384 $-1 #
edge $-1 $520 -9.0009999999999977 $276 0 $463 $468 forward 7 unknown #
face $-1 $501 $384 $21 $-1 $512 reversed single #
vertex $-1 $514 $521 #
straight-curve $-1 -15.000499999999999 -57 0 0 0 -1 I I #
coedge $-1 $513 $387 $389 $474 forward $471 $-1 #
coedge $-1 $387 $513 $497 $522 forward $471 $-1 #
loop $-1 $-1 $387 $523 #
vertex $-1 $388 $524 #
straight-curve $-1 15.000499999999999 0 -9.0009999999999977 0 -1 0 I I #
edge $-1 $391 -15.000499999999999 $467 15.000499999999999 $389 $525 forward 7 unknown #
point $-1 15.000499999999999 -57 -9.0009999999999977 #
coedge $-1 $397 $481 $401 $479 forward $395 $-1 #
straight-curve $-1 -15.000499999999999 24 -9 0 -1 0 I I #
point $-1 -15.000499999999999 -48 -9 #
edge $-1 $483 -1.7948894190962676 $402 1.3467032344935255 $476 $526 forward 7 unknown #
point $-1 -15.000499999999999 48 -9 #
coedge $-1 $476 $411 $408 $482 forward $395 $-1 #
edge $-1 $413 -24 $483 72 $481 $527 forward 7 unknown #
vertex $-1 $482 $528 #
straight-curve $-1 15.000500000000002 48 9 -1 0 0 I I #
ellipse-curve $-1 -15.000499999999999 -48 0 -1 0 0 0 -8.7749643873921244 2.0000000000000027 1 I I #
point $-1 -15.000499999999999 -48 9 #
edge $-1 $419 16.306690157542999 $489 31.671742762788998 $417 $529 forward 7 unknown #
attrib_edge_convexity-kcp-attrib $-1 $530 $-1 $418 1 #
vertex $-1 $487 $531 #
straight-curve $-1 -15 0 2 0 1 0 I I #
point $-1 -8 -48 9 #
attrib_edge_convexity-kcp-attrib $-1 $532 $-1 $426 1 #
ellipse-curve $-1 -15 -48 0 1 0 0 0 -6.3639610306789303 6.3639610306789303 1 I I #
convexity-sys-attrib $-1 $-1 $427 $324 #
coedge $-1 $459 $435 $438 $498 forward $375 $-1 #
ellipse-curve $-1 -15.000499999999999 48 0 1 0 0 0 8.7749643873921244 -2.0000000000000027 1 I I #
coedge $-1 $438 $437 $470 $522 reversed $440 $-1 #
edge $-1 $441 0 $533 9.0009999999999977 $438 $534 forward 7 unknown #
coedge $-1 $509 $439 $505 $535 reversed $500 $-1 #
loop $-1 $-1 $439 $515 #
face $-1 $-1 $440 $21 $-1 $536 reversed single #
point $-1 -15.000499999999999 57 0 #
point $-1 -15.000499999999999 48 -9 #
straight-curve $-1 15.000499999999999 57 0 0 0 -1 I I #
coedge $-1 $448 $517 $499 $535 forward $449 $-1 #
face $-1 $461 $449 $21 $-1 $516 reversed single #
coedge $-1 $537 $518 $454 $508 forward $538 $-1 #
edge $-1 $511 -57 $510 57 $454 $539 forward 7 unknown #
coedge $-1 $455 $499 $537 $540 reversed $500 $-1 #
vertex $-1 $508 $541 #
vertex $-1 $508 $542 #
plane-surface $-1 0 -57 0 0 1 0 0 0 1 forward_v I I I I #
coedge $-1 $470 $469 $459 $514 forward $471 $-1 #
edge $-1 $467 -57 $533 57 $459 $543 forward 7 unknown #
face $-1 $544 $500 $21 $-1 $536 reversed single #
plane-surface $-1 -15.000499999999999 0 0 1 0 0 0 0 -1 forward_v I I I I #
coedge $-1 $505 $463 $545 $546 reversed $449 $-1 #
coedge $-1 $507 $545 $464 $519 forward $538 $-1 #
edge $-1 $520 -15.000499999999999 $511 15.000499999999999 $464 $547 forward 7 unknown #
vertex $-1 $546 $548 #
point $-1 -15.000499999999999 -57 -9.0009999999999977 #
edge $-1 $533 -15.000499999999999 $472 15.000499999999999 $497 $549 forward 7 unknown #
face $-1 $466 $471 $21 $-1 $550 reversed single #
point $-1 15.000499999999999 57 -9.0009999999999977 #
straight-curve $-1 0 -57 -9.0009999999999977 -1 0 0 I I #
ellipse-curve $-1 -15.000499999999999 48 0 -1 0 0 0 8.7749643873921244 -2.0000000000000027 1 I I #
straight-curve $-1 -15.000499999999999 -24 9 0 1 0 I I #
point $-1 -15.000499999999999 48 9 #
intcurve-curve $-1 forward { surfintcur full nubs 3 open 13 
	16.306690157542999 3 17.8314018267858 2 19.356113496028499 2 20.8808251652713 2 22.405536834513999 2 
	23.145400148372701 2 23.8852634622314 2 24.625126776090202 2 25.3649900899489 2 26.941678258158898 2 
	28.5183664263689 2 30.095054594578901 2 31.671742762788998 3 
	-8 -48 9 
	-8 -48.508237223080897 9 
	-7.9995223954481096 -49.035206001073803 8.95622695602313 
	-8.0031398626317305 -50.087922963311698 8.7707599698990499 
	-8.0073026673620191 -50.6136748462905 8.6290883498727808 
	-8.0373196034609293 -51.628154447123002 8.2540265011224907 
	-8.06349068237094 -52.1175749298162 8.0203607272224193 
	-8.1611132172129892 -53.030016433021402 7.4819478833858399 
	-8.2330100730016103 -53.452996087212398 7.1772115612736798 
	-8.3871681745943203 -54.015814377220003 6.6983776161057804 
	-8.4480231877091896 -54.200330508612602 6.5283698082578097 
	-8.5943898992048506 -54.556480003012503 6.1705980856496803 
	-8.6799711410378695 -54.728105195864998 5.9828544921683902 
	-8.8763867626270105 -55.048475630813101 5.6018691008230199 
	-8.9873524012019406 -55.197355810622398 5.4085222282452703 
	-9.2304532671567294 -55.466978723668198 5.0297387699484304 
	-9.3626145596211199 -55.587762830494597 4.8443483658750397 
	-9.79381536787354 -55.920109968695499 4.2967361801791304 
	-10.144803741285701 -56.1042864057233 3.9307499274171498 
	-10.9468368640054 -56.393008986508399 3.26919762388146 
	-11.397771909970499 -56.498247044282799 2.97380074391307 
	-12.36385855969 -56.651528889160502 2.4929336958409598 
	-12.8802693377241 -56.7003044968707 2.3066944086331298 
	-13.9355612263161 -56.761942554548 2.0602184500368002 
	-14.4744372772633 -56.774964387392103 2 
	-15 -56.774964387392103 2 
	0.001 
	cone 3.5 -48 0 1 0 0 0 -6.3639610306789303 6.3639610306789303 1 I I 0 1 9.0000000000000036 forward I I I I 
	cone -15 0 9 0 -1 0 4.94974746830583 0 -4.94974746830583 1 I I 0 -1 6.9999999999999964 forward I I I I 
	nullbs 
	nullbs 
	I I 
	0 
	0 
	0 
	} I I #
convexity-sys-attrib $-1 $-1 $488 $418 #
point $-1 -15 -56.774964387392103 2 #
convexity-sys-attrib $-1 $-1 $492 $426 #
vertex $-1 $522 $551 #
straight-curve $-1 -15.000499999999999 57 0 0 0 -1 I I #
edge $-1 $552 -9.0009999999999977 $441 0 $499 $534 forward 7 unknown #
plane-surface $-1 0 57 0 0 -1 0 0 0 -1 forward_v I I I I #
coedge $-1 $545 $507 $509 $540 forward $538 $-1 #
loop $-1 $-1 $507 $544 #
straight-curve $-1 15.000499999999999 0 9.0009999999999977 0 1 0 I I #
edge $-1 $510 -15.000499999999999 $552 15.000499999999999 $509 $553 forward 7 unknown #
point $-1 15.000499999999999 57 9.0009999999999977 #
point $-1 15.000499999999999 -57 9.0009999999999977 #
straight-curve $-1 -15.000499999999999 0 -9.0009999999999977 0 1 0 I I #
face $-1 $523 $538 $21 $-1 $554 forward single #
coedge $-1 $518 $537 $517 $546 forward $538 $-1 #
edge $-1 $552 -57 $520 57 $517 $555 forward 7 unknown #
straight-curve $-1 0 -57 9.0009999999999977 1 0 0 I I #
point $-1 -15.000499999999999 -57 9.0009999999999977 #
straight-curve $-1 0 57 -9.0009999999999977 1 0 0 I I #
plane-surface $-1 0 0 -9.0009999999999977 0 0 1 1 0 0 forward_v I I I I #
point $-1 -15.000499999999999 57 -9.0009999999999977 #
vertex $-1 $540 $556 #
straight-curve $-1 0 57 9.0009999999999977 -1 0 0 I I #
plane-surface $-1 0 0 9.0009999999999977 0 0 1 1 0 0 forward_v I I I I #
straight-curve $-1 -15.000499999999999 0 9.0009999999999977 0 -1 0 I I #
point $-1 -15.000499999999999 57 9.0009999999999977 #
End-of-ACIS-data 