600 0 2 0           
24 FBMach with ACIS - 6.0.3 13 ACIS 6.0.3 NT 24 Sun Mar 31 23:25:02 2002 
1 9.9999999999999995e-007 1e-010 
body $2 $3 $-1 $4 #
bdycol-kcp $-1 1 3 $5 $6 $7 #
model_id-kcp-attrib $-1 $8 $-1 $0 1 1017635101 80 1833959425 1 #
lump $-1 $-1 $9 $0 #
transform $-1 1 0 0 0 1 0 0 0 1 0 0 0 1 rotate no_reflect no_shear #
body $10 $11 $-1 $12 #
body $13 $14 $-1 $15 #
body $16 $17 $-1 $18 #
aggregate_advspl_attribute-aggregate_geombuild_base_attribute-aggregate_body_attribute-attrib_HH-attrib $-1 $19 $2 $0 F #
shell $-1 $-1 $-1 $20 $-1 $3 #
model_id-kcp-attrib $-1 $-1 $-1 $5 1 1017635101 80 1833959426 1 #
lump $-1 $-1 $21 $5 #
transform $-1 1 0 0 0 1 0 0 0 1 59.999499999999998 0 28 1 no_rotate no_reflect no_shear #
rgb_color-st-attrib $-1 $22 $-1 $6 0.5 1 1 #
lump $-1 $-1 $23 $6 #
transform $-1 1 0 0 0 1 0 0 0 1 59.999499999999998 0 28 1 no_rotate no_reflect no_shear #
rgb_color-st-attrib $-1 $24 $-1 $7 0.5 0.5 1 #
lump $-1 $-1 $25 $7 #
transform $-1 1 0 0 0 1 0 0 0 1 59.999499999999998 0 28 1 no_rotate no_reflect no_shear #
aggregate_secndry_attribute-aggregate_geombuild_base_attribute-aggregate_body_attribute-attrib_HH-attrib $-1 $26 $8 $0 F #
face $27 $28 $29 $9 $-1 $30 reversed single #
shell $-1 $-1 $-1 $31 $-1 $11 #
model_id-kcp-attrib $-1 $-1 $13 $6 1 1017635101 170 1839857667 1 #
shell $-1 $-1 $-1 $32 $-1 $14 #
model_id-kcp-attrib $-1 $-1 $16 $7 1 1017635101 640 1837105156 1 #
shell $-1 $-1 $-1 $33 $-1 $17 #
aggregate_sharped_attribute-aggregate_geombuild_base_attribute-aggregate_body_attribute-attrib_HH-attrib $-1 $34 $19 $0 F #
model_id-kcp-attrib $-1 $35 $-1 $20 1 1017635101 80 1833959425 2 #
face $36 $37 $38 $9 $-1 $39 reversed single #
loop $-1 $-1 $40 $20 #
plane-surface $-1 60 0 19 0 0 1 1 0 0 forward_v I I I I #
face $-1 $41 $42 $21 $-1 $43 forward single #
face $-1 $44 $45 $23 $-1 $46 reversed single #
face $-1 $47 $48 $25 $-1 $49 reversed single #
aggregate_reblend_attribute-aggregate_geombuild_base_attribute-aggregate_body_attribute-attrib_HH-attrib $-1 $50 $26 $0 F #
attrib_hh_face_geombuild-attrib_entity_geombuild-individual_entity_attribute-attrib_HH-attrib $-1 $-1 $27 $20 F #
model_id-kcp-attrib $-1 $51 $-1 $28 1 1017635101 80 1833959425 10 #
face $52 $53 $54 $9 $-1 $55 forward single #
loop $-1 $-1 $56 $28 #
plane-surface $-1 75 0 28 -1 0 0 0 0 1 forward_v I I I I #
coedge $57 $58 $59 $60 $61 reversed $29 $-1 #
face $-1 $62 $63 $21 $-1 $64 reversed single #
loop $-1 $-1 $65 $31 #
plane-surface $-1 0 0 9.0009999999999994 0 0 1 1 0 0 forward_v I I I I #
face $-1 $66 $67 $23 $-1 $68 reversed single #
loop $-1 $-1 $69 $32 #
cone-surface $-1 15.000500000000002 -48 0 1 0 0 0 -8.7749643873921244 2.0000000000000036 1 I I 0 1 9.0000000000000036 forward I I I I #
face $-1 $70 $71 $25 $-1 $72 forward single #
loop $-1 $-1 $73 $33 #
plane-surface $-1 -14.999499999999998 0 0 -1 0 0 0 -1 0 forward_v I I I I #
aggregate_isospline_attribute-aggregate_geombuild_base_attribute-aggregate_body_attribute-attrib_HH-attrib $-1 $74 $34 $0 F #
model_id-kcp-attrib $-1 $75 $36 $28 1 1017635101 80 1833959425 3 #
model_id-kcp-attrib $-1 $76 $-1 $37 1 1017635101 80 1833959425 4 #
face $77 $78 $79 $9 $-1 $80 forward single #
loop $-1 $-1 $81 $37 #
cone-surface $-1 63.5 48 28 -1 0 0 0 6.3639610306789303 6.3639610306789303 1 I I 0 1 9.0000000000000036 forward I I I I #
coedge $82 $83 $84 $85 $86 reversed $38 $-1 #
attrib_hh_coedge_geombuild-attrib_entity_geombuild-individual_entity_attribute-attrib_HH-attrib $-1 $-1 $-1 $40 F #
coedge $87 $88 $40 $84 $89 forward $29 $-1 #
coedge $90 $40 $88 $91 $92 forward $29 $-1 #
coedge $93 $94 $85 $40 $61 forward $54 $-1 #
edge $95 $96 -15 $97 8 $40 $98 forward 7 unknown #
face $-1 $99 $100 $21 $-1 $101 reversed single #
loop $-1 $-1 $102 $41 #
plane-surface $-1 0 0 -9.0009999999999994 0 0 1 1 0 0 forward_v I I I I #
coedge $-1 $103 $104 $105 $106 forward $42 $-1 #
face $-1 $107 $108 $23 $-1 $109 reversed single #
loop $-1 $-1 $110 $44 #
plane-surface $-1 15.000500000000002 -48 9 0 0 1 -1 0 0 forward_v I I I I #
coedge $-1 $111 $112 $113 $114 reversed $45 $-1 #
face $-1 $115 $116 $25 $-1 $117 forward single #
loop $-1 $-1 $118 $47 #
plane-surface $-1 15.000500000000002 48 -9 0 0 -1 1 0 0 forward_v I I I I #
coedge $-1 $119 $120 $121 $122 forward $48 $-1 #
aggregate_analytic_solver_attribute-aggregate_geombuild_base_attribute-aggregate_body_attribute-attrib_HH-attrib $-1 $123 $50 $0 F #
attrib_hh_face_geombuild-attrib_entity_geombuild-individual_entity_attribute-attrib_HH-attrib $-1 $-1 $51 $28 F #
attrib_hh_face_geombuild-attrib_entity_geombuild-individual_entity_attribute-attrib_HH-attrib $-1 $-1 $52 $37 F #
model_id-kcp-attrib $-1 $124 $-1 $53 1 1017635101 80 1833959425 5 #
face $125 $126 $127 $9 $-1 $128 reversed single #
loop $-1 $-1 $129 $53 #
plane-surface $-1 60 0 37 0 0 1 1 0 0 forward_v I I I I #
coedge $130 $85 $131 $129 $132 forward $54 $-1 #
attrib_hh_coedge_geombuild-attrib_entity_geombuild-individual_entity_attribute-attrib_HH-attrib $-1 $-1 $-1 $56 F #
coedge $133 $134 $56 $135 $136 reversed $38 $-1 #
coedge $137 $56 $134 $58 $89 reversed $38 $-1 #
coedge $138 $60 $81 $56 $86 forward $54 $-1 #
edge $139 $140 -2.3561944901923448 $96 0.78539816339744828 $56 $141 forward 7 unknown #
attrib_hh_coedge_geombuild-attrib_entity_geombuild-individual_entity_attribute-attrib_HH-attrib $-1 $-1 $-1 $58 F #
coedge $142 $59 $58 $143 $144 reversed $29 $-1 #
edge $145 $96 -48 $146 48 $84 $147 forward 7 unknown #
attrib_hh_coedge_geombuild-attrib_entity_geombuild-individual_entity_attribute-attrib_HH-attrib $-1 $-1 $-1 $59 F #
coedge $148 $149 $150 $59 $92 reversed $151 $-1 #
edge $152 $153 -48 $97 48 $59 $154 forward 7 unknown #
attrib_hh_coedge_geombuild-attrib_entity_geombuild-individual_entity_attribute-attrib_HH-attrib $-1 $-1 $-1 $60 F #
coedge $155 $156 $60 $150 $157 forward $54 $-1 #
attrib_edge_convexity-kcp-attrib $-1 $158 $-1 $61 3 #
vertex $159 $86 $160 #
vertex $161 $92 $162 #
straight-curve $-1 60 48 19 -1 0 0 I I #
face $-1 $163 $164 $21 $-1 $165 reversed single #
loop $-1 $-1 $166 $62 #
plane-surface $-1 0 -57 0 0 1 0 0 0 1 forward_v I I I I #
coedge $-1 $167 $168 $169 $170 forward $63 $-1 #
coedge $-1 $171 $65 $172 $173 forward $42 $-1 #
coedge $-1 $65 $171 $174 $175 forward $42 $-1 #
coedge $-1 $176 $177 $65 $106 reversed $178 $-1 #
edge $-1 $179 -57 $180 57 $105 $181 forward 7 unknown #
face $-1 $182 $183 $23 $-1 $109 reversed single #
loop $-1 $-1 $184 $66 #
cone-surface $-1 15.000500000000002 48 0 1 0 0 0 8.7749643873921244 -2.0000000000000027 1 I I 0 1 9.0000000000000036 forward I I I I #
coedge $-1 $185 $186 $187 $188 reversed $67 $-1 #
coedge $-1 $189 $69 $190 $191 forward $45 $-1 #
coedge $-1 $69 $189 $192 $193 forward $45 $-1 #
coedge $-1 $194 $195 $69 $114 forward $196 $-1 #
edge $-1 $197 -1.7948894190962679 $198 -0.2240930923013712 $113 $199 forward 7 unknown #
face $-1 $200 $201 $25 $-1 $202 forward single #
loop $-1 $-1 $121 $70 #
cone-surface $-1 15.000500000000002 -48 0 1 0 0 0 -8.7749643873921244 2.0000000000000036 1 I I 0 1 9.0000000000000036 forward I I I I #
coedge $-1 $203 $204 $119 $205 reversed $71 $-1 #
coedge $-1 $206 $73 $118 $205 forward $48 $-1 #
coedge $-1 $73 $206 $207 $208 forward $48 $-1 #
coedge $-1 $209 $210 $73 $122 reversed $116 $-1 #
edge $211 $212 -1.3467032344935255 $213 1.7948894190962679 $121 $214 forward 7 unknown #
aggregate_geombuild_attribute-aggregate_geombuild_base_attribute-aggregate_body_attribute-attrib_HH-attrib $-1 $215 $74 $0 #
attrib_hh_face_geombuild-attrib_entity_geombuild-individual_entity_attribute-attrib_HH-attrib $-1 $-1 $77 $53 F #
model_id-kcp-attrib $-1 $216 $-1 $78 1 1017635101 80 1833959425 6 #
face $217 $218 $219 $9 $-1 $220 reversed single #
loop $-1 $-1 $221 $78 #
cone-surface $-1 45 0 37 0 -1 0 4.94974746830583 0 -4.94974746830583 1 I I 0 1 6.9999999999999964 forward I I I I #
coedge $222 $223 $135 $81 $132 reversed $79 $-1 #
attrib_hh_coedge_geombuild-attrib_entity_geombuild-individual_entity_attribute-attrib_HH-attrib $-1 $-1 $-1 $81 F #
coedge $224 $81 $156 $221 $225 forward $54 $-1 #
edge $226 $227 -8 $140 15 $129 $228 forward 7 unknown #
attrib_hh_coedge_geombuild-attrib_entity_geombuild-individual_entity_attribute-attrib_HH-attrib $-1 $-1 $-1 $83 F #
coedge $229 $84 $83 $230 $231 reversed $38 $-1 #
coedge $232 $129 $233 $83 $136 forward $79 $-1 #
edge $234 $235 -48 $140 48 $83 $236 forward 7 unknown #
attrib_hh_coedge_geombuild-attrib_entity_geombuild-individual_entity_attribute-attrib_HH-attrib $-1 $-1 $-1 $84 F #
attrib_hh_coedge_geombuild-attrib_entity_geombuild-individual_entity_attribute-attrib_HH-attrib $-1 $-1 $-1 $85 F #
attrib_edge_convexity-kcp-attrib $-1 $237 $-1 $86 1 #
vertex $238 $136 $239 #
ellipse-curve $-1 75 48 28 -1 0 0 0 6.3639610306789303 -6.3639610306789303 1 I I #
attrib_hh_coedge_geombuild-attrib_entity_geombuild-individual_entity_attribute-attrib_HH-attrib $-1 $-1 $-1 $88 F #
coedge $240 $230 $241 $88 $144 forward $242 $-1 #
edge $243 $153 -8 $146 15 $88 $244 forward 7 unknown #
attrib_edge_convexity-kcp-attrib $-1 $245 $-1 $89 1 #
vertex $246 $89 $247 #
straight-curve $-1 75 0 19 0 -1 0 I I #
attrib_hh_coedge_geombuild-attrib_entity_geombuild-individual_entity_attribute-attrib_HH-attrib $-1 $-1 $-1 $91 F #
coedge $248 $249 $91 $241 $250 reversed $151 $-1 #
coedge $251 $91 $249 $94 $157 reversed $151 $-1 #
loop $-1 $-1 $150 $218 #
attrib_edge_convexity-kcp-attrib $-1 $252 $-1 $92 1 #
vertex $253 $144 $254 #
straight-curve $-1 52 0 19 0 1 0 I I #
attrib_hh_coedge_geombuild-attrib_entity_geombuild-individual_entity_attribute-attrib_HH-attrib $-1 $-1 $-1 $94 F #
coedge $255 $131 $94 $256 $257 forward $54 $-1 #
edge $258 $97 16.307640183304098 $259 31.672692788550101 $150 $260 forward 7 unknown #
convexity-sys-attrib $-1 $261 $95 $61 #
attrib_hh_vertex_geombuild-attrib_entity_geombuild-individual_entity_attribute-attrib_HH-attrib $-1 $-1 $-1 $96 F #
point $-1 75 48 19 #
attrib_hh_vertex_geombuild-attrib_entity_geombuild-individual_entity_attribute-attrib_HH-attrib $-1 $-1 $-1 $97 F #
point $-1 52 48 19 #
face $-1 $262 $263 $21 $-1 $264 reversed single #
loop $-1 $-1 $265 $99 #
plane-surface $-1 -15.000499999999999 0 0 1 0 0 0 0 -1 forward_v I I I I #
coedge $-1 $266 $174 $267 $268 forward $100 $-1 #
coedge $-1 $269 $102 $266 $270 forward $63 $-1 #
coedge $-1 $102 $269 $271 $272 forward $63 $-1 #
coedge $-1 $177 $176 $102 $170 reversed $178 $-1 #
edge $-1 $273 -57 $274 57 $169 $275 forward 7 unknown #
coedge $-1 $104 $103 $276 $277 forward $42 $-1 #
coedge $-1 $278 $279 $103 $173 reversed $263 $-1 #
edge $-1 $180 -15.000499999999999 $280 15.000499999999999 $172 $281 forward 7 unknown #
coedge $-1 $166 $282 $104 $175 reversed $100 $-1 #
edge $-1 $283 -15.000499999999999 $179 15.000499999999999 $174 $284 forward 7 unknown #
coedge $-1 $169 $105 $282 $285 forward $178 $-1 #
coedge $-1 $105 $169 $278 $286 reversed $178 $-1 #
loop $-1 $-1 $176 $262 #
vertex $-1 $106 $287 #
vertex $-1 $106 $288 #
straight-curve $-1 15.000499999999999 0 9.0009999999999994 0 1 0 I I #
face $-1 $289 $290 $23 $-1 $46 reversed single #
loop $-1 $-1 $291 $107 #
coedge $-1 $292 $293 $294 $295 reversed $108 $-1 #
coedge $-1 $296 $110 $297 $298 forward $67 $-1 #
coedge $-1 $110 $296 $299 $300 reversed $67 $-1 #
coedge $-1 $301 $302 $110 $188 forward $303 $-1 #
edge $-1 $304 -24 $305 72 $187 $306 forward 7 unknown #
coedge $-1 $112 $111 $307 $308 reversed $45 $-1 #
coedge $-1 $309 $310 $111 $191 reversed $311 $-1 #
edge $-1 $197 3.5527136788005009e-015 $312 30.001000000000001 $190 $313 forward 7 unknown #
coedge $-1 $314 $315 $316 $193 reversed $290 $-1 #
edge $-1 $317 -30.001000000000001 $198 -3.5527136788005009e-015 $316 $318 forward 7 unknown #
coedge $-1 $319 $113 $320 $321 forward $196 $-1 #
coedge $-1 $113 $294 $309 $322 forward $196 $-1 #
loop $-1 $-1 $113 $323 #
vertex $-1 $114 $324 #
vertex $-1 $321 $325 #
ellipse-curve $-1 15.000499999999999 -48 0 -1 0 0 0 -8.7749643873921244 2.0000000000000036 1 I I #
face $-1 $326 $327 $25 $-1 $328 forward single #
loop $-1 $-1 $207 $115 #
plane-surface $-1 15.000500000000002 -48 9 0 0 1 -1 0 0 forward_v I I I I #
coedge $-1 $329 $118 $210 $330 forward $71 $-1 #
coedge $-1 $118 $329 $331 $332 forward $71 $-1 #
edge $333 $213 -72 $334 24 $118 $335 forward 7 unknown #
coedge $-1 $120 $119 $336 $337 forward $48 $-1 #
coedge $-1 $338 $339 $120 $208 reversed $201 $-1 #
edge $340 $341 -72 $212 24 $207 $342 forward 7 unknown #
coedge $-1 $343 $121 $339 $344 forward $116 $-1 #
coedge $-1 $121 $343 $203 $330 reversed $116 $-1 #
convexity-sys-attrib $-1 $-1 $-1 $122 #
vertex $-1 $344 $345 #
vertex $-1 $330 $346 #
ellipse-curve $-1 -14.999499999999998 -48 0 1 0 0 0 -8.7749643873921244 2.0000000000000036 1 I I #
aggregate_stitch_attribute-aggregate_stitch_base_attribute-aggregate_body_attribute-attrib_HH-attrib $-1 $347 $123 $0 F #
attrib_hh_face_geombuild-attrib_entity_geombuild-individual_entity_attribute-attrib_HH-attrib $-1 $-1 $125 $78 F #
model_id-kcp-attrib $-1 $348 $-1 $126 1 1017635101 80 1833959425 7 #
face $349 $350 $151 $9 $-1 $351 reversed single #
loop $-1 $-1 $256 $126 #
plane-surface $-1 45 0 28 1 0 0 0 0 -1 forward_v I I I I #
coedge $352 $353 $354 $131 $225 reversed $127 $-1 #
attrib_hh_coedge_geombuild-attrib_entity_geombuild-individual_entity_attribute-attrib_HH-attrib $-1 $-1 $-1 $129 F #
coedge $355 $233 $129 $354 $356 forward $79 $-1 #
attrib_hh_coedge_geombuild-attrib_entity_geombuild-individual_entity_attribute-attrib_HH-attrib $-1 $-1 $-1 $131 F #
edge $357 $358 0.94258757805816895 $227 16.307640183304098 $221 $359 forward 7 unknown #
attrib_hh_edge_geombuild-attrib_entity_geombuild-individual_entity_attribute-attrib_HH-attrib $-1 $-1 $-1 $132 F #
vertex $360 $225 $361 #
straight-curve $-1 60 48 37 1 0 0 I I #
attrib_hh_coedge_geombuild-attrib_entity_geombuild-individual_entity_attribute-attrib_HH-attrib $-1 $-1 $-1 $134 F #
coedge $362 $363 $143 $134 $231 forward $242 $-1 #
edge $364 $146 -2.3561944901923448 $235 0.78539816339744828 $134 $365 forward 7 unknown #
attrib_hh_coedge_geombuild-attrib_entity_geombuild-individual_entity_attribute-attrib_HH-attrib $-1 $-1 $-1 $135 F #
coedge $366 $135 $223 $363 $367 reversed $79 $-1 #
attrib_edge_convexity-kcp-attrib $-1 $368 $-1 $136 1 #
vertex $369 $367 $370 #
straight-curve $-1 75 0 37 0 1 0 I I #
convexity-sys-attrib $-1 $371 $139 $86 #
attrib_hh_vertex_geombuild-attrib_entity_geombuild-individual_entity_attribute-attrib_HH-attrib $-1 $-1 $-1 $140 F #
point $-1 75 48 37 #
attrib_hh_coedge_geombuild-attrib_entity_geombuild-individual_entity_attribute-attrib_HH-attrib $-1 $-1 $-1 $143 F #
coedge $372 $143 $373 $149 $250 forward $242 $-1 #
loop $-1 $-1 $363 $350 #
attrib_edge_convexity-kcp-attrib $-1 $374 $-1 $144 3 #
straight-curve $-1 60 -48 19 1 0 0 I I #
convexity-sys-attrib $-1 $375 $145 $89 #
attrib_hh_vertex_geombuild-attrib_entity_geombuild-individual_entity_attribute-attrib_HH-attrib $-1 $-1 $-1 $146 F #
point $-1 75 -48 19 #
attrib_hh_coedge_geombuild-attrib_entity_geombuild-individual_entity_attribute-attrib_HH-attrib $-1 $-1 $-1 $149 F #
coedge $376 $150 $149 $377 $378 reversed $151 $-1 #
edge $379 $380 0.94163755229705404 $153 16.306690157542999 $149 $381 forward 7 unknown #
attrib_hh_coedge_geombuild-attrib_entity_geombuild-individual_entity_attribute-attrib_HH-attrib $-1 $-1 $-1 $150 F #
convexity-sys-attrib $-1 $382 $152 $92 #
attrib_hh_vertex_geombuild-attrib_entity_geombuild-individual_entity_attribute-attrib_HH-attrib $-1 $-1 $-1 $153 F #
point $-1 52 -48 19 #
attrib_hh_coedge_geombuild-attrib_entity_geombuild-individual_entity_attribute-attrib_HH-attrib $-1 $-1 $-1 $156 F #
coedge $383 $377 $384 $156 $257 reversed $219 $-1 #
edge $385 $259 -1.0094912556988196 $358 -0.56130507109607697 $256 $386 forward 7 unknown #
attrib_hh_edge_geombuild-attrib_entity_geombuild-individual_entity_attribute-attrib_HH-attrib $-1 $-1 $-1 $157 F #
vertex $387 $257 $388 #
intcurve-curve $-1 forward { surfintcur full nubs 3 open 13 
	16.307640183304098 3 17.8323518525469 2 19.357063521789598 2 20.8817751910324 2 22.406486860275098 2 
	23.146350174133801 2 23.886213487992599 2 24.626076801851301 2 25.36594011571 2 26.942628283920001 2 
	28.519316452129999 2 30.0960046203401 2 31.672692788550101 3 
	52 48 19 
	52 48.508237223080897 19 
	52.000477604551889 49.035206001073803 19.043773043976859 
	51.996860137368273 50.087922963311698 19.22924003010095 
	51.992697332637981 50.6136748462905 19.370911650127219 
	51.962680396539071 51.628154447123002 19.745973498877511 
	51.93650931762906 52.1175749298162 19.979639272777582 
	51.838886782787014 53.030016433021402 20.518052116614161 
	51.766989926998392 53.452996087212398 20.82278843872632 
	51.612831825405678 54.015814377220003 21.30162238389422 
	51.55197681229081 54.200330508612602 21.471630191742189 
	51.405610100795151 54.556480003012503 21.829401914350321 
	51.320028858962132 54.728105195864998 22.017145507831611 
	51.123613237372993 55.048475630813101 22.39813089917698 
	51.012647598798061 55.197355810622398 22.591477771754729 
	50.769546732843267 55.466978723668198 22.97026123005157 
	50.637385440378878 55.587762830494597 23.155651634124961 
	50.206184632126458 55.920109968695499 23.703263819820869 
	49.855196258714301 56.1042864057233 24.06925007258285 
	49.053163135994602 56.393008986508399 24.73080237611854 
	48.602228090029499 56.498247044282799 25.026199256086919 
	47.636141440309999 56.651528889160502 25.507066304159039 
	47.119730662275899 56.7003044968707 25.693305591366869 
	46.064438773683904 56.761942554548 25.9397815499632 
	45.525562722736701 56.774964387392103 26 
	45 56.774964387392103 26 
	0.001 
	cone 63.5 48 28 1 0 0 0 6.3639610306789303 -6.3639610306789303 1 I I 0 1 9.0000000000000036 forward I I I I 
	cone 45 0 19 0 1 0 4.94974746830583 0 4.94974746830583 1 I I 0 -1 6.9999999999999964 forward I I I I 
	nullbs 
	nullbs 
	I I 
	0 
	0 
	0 
	} I I #
attrib_hh_edge_geombuild-attrib_entity_geombuild-individual_entity_attribute-attrib_HH-attrib $-1 $-1 $158 $61 F #
face $389 $-1 $178 $21 $-1 $390 reversed single #
loop $-1 $-1 $278 $163 #
plane-surface $-1 0 57 0 0 -1 0 0 0 -1 forward_v I I I I #
coedge $-1 $391 $276 $279 $392 forward $164 $-1 #
coedge $-1 $282 $166 $167 $270 reversed $100 $-1 #
coedge $-1 $276 $391 $166 $268 reversed $164 $-1 #
edge $-1 $283 -9.0009999999999994 $393 9.0009999999999994 $267 $394 forward 7 unknown #
coedge $-1 $168 $167 $391 $395 forward $63 $-1 #
edge $-1 $274 -15.000499999999999 $393 15.000499999999999 $266 $396 forward 7 unknown #
coedge $-1 $279 $278 $168 $272 reversed $263 $-1 #
edge $-1 $397 -15.000499999999999 $273 15.000499999999999 $271 $398 forward 7 unknown #
vertex $-1 $170 $399 #
vertex $-1 $285 $400 #
straight-curve $-1 15.000499999999999 0 -9.0009999999999994 0 -1 0 I I #
coedge $-1 $265 $267 $171 $277 reversed $164 $-1 #
edge $-1 $280 -57 $283 57 $276 $401 forward 7 unknown #
coedge $-1 $271 $172 $177 $286 forward $263 $-1 #
coedge $-1 $172 $271 $265 $392 reversed $263 $-1 #
vertex $-1 $173 $402 #
straight-curve $-1 0 57 9.0009999999999994 -1 0 0 I I #
coedge $-1 $174 $266 $176 $285 reversed $100 $-1 #
vertex $-1 $277 $403 #
straight-curve $-1 0 -57 9.0009999999999994 1 0 0 I I #
edge $-1 $179 -9.0009999999999994 $274 9.0009999999999994 $176 $404 forward 7 unknown #
edge $-1 $180 -9.0009999999999994 $273 9.0009999999999994 $177 $405 forward 7 unknown #
point $-1 15.000499999999999 -57 9.0009999999999994 #
point $-1 15.000499999999999 57 9.0009999999999994 #
face $-1 $323 $311 $23 $-1 $406 reversed single #
loop $-1 $-1 $315 $182 #
coedge $-1 $299 $407 $301 $408 reversed $183 $-1 #
coedge $-1 $409 $184 $410 $411 reversed $108 $-1 #
coedge $-1 $184 $409 $412 $413 forward $108 $-1 #
coedge $-1 $195 $414 $184 $295 forward $196 $-1 #
edge $-1 $415 -0.22409309230137112 $416 1.3467032344935255 $294 $417 forward 7 unknown #
coedge $-1 $186 $185 $418 $419 reversed $67 $-1 #
coedge $-1 $315 $314 $185 $298 reversed $290 $-1 #
edge $-1 $304 3.5527136788005009e-015 $420 30.001000000000001 $297 $421 forward 7 unknown #
coedge $-1 $422 $291 $186 $300 forward $183 $-1 #
edge $-1 $305 3.5527136788005009e-015 $423 30.001000000000001 $186 $424 forward 7 unknown #
coedge $-1 $425 $187 $291 $408 forward $303 $-1 #
coedge $-1 $187 $426 $315 $427 forward $303 $-1 #
loop $-1 $-1 $302 $428 #
vertex $-1 $427 $429 #
vertex $-1 $188 $430 #
straight-curve $-1 15.000499999999999 -24 9 0 1 0 I I #
coedge $-1 $431 $432 $189 $308 forward $433 $-1 #
edge $-1 $317 0.2240930923013712 $312 1.7948894190962679 $307 $434 forward 7 unknown #
coedge $-1 $412 $190 $195 $322 reversed $311 $-1 #
coedge $-1 $190 $412 $431 $435 reversed $311 $-1 #
loop $-1 $-1 $309 $289 #
vertex $-1 $308 $436 #
straight-curve $-1 15.000500000000002 -48 -9 -1 0 0 I I #
coedge $-1 $297 $192 $437 $438 reversed $290 $-1 #
coedge $-1 $192 $297 $302 $427 reversed $290 $-1 #
coedge $-1 $439 $440 $441 $193 forward $442 $-1 #
vertex $-1 $443 $444 #
straight-curve $-1 15.000500000000002 -57 0 1 0 0 I I #
coedge $-1 $414 $194 $445 $446 reversed $196 $-1 #
coedge $-1 $441 $447 $194 $321 reversed $448 $-1 #
edge $-1 $198 0 $449 9.0009999999999994 $194 $450 forward 7 unknown #
edge $-1 $416 -24 $197 72 $195 $451 forward 7 unknown #
face $-1 $428 $196 $23 $-1 $452 reversed single #
point $-1 15.000499999999999 -48 -9 #
point $-1 15.000499999999999 -57 0 #
face $-1 $-1 $453 $25 $-1 $454 reversed single #
loop $-1 $-1 $336 $200 #
cone-surface $-1 15.000500000000002 48 0 1 0 0 0 8.7749643873921244 -2.0000000000000027 1 I I 0 1 9.0000000000000036 forward I I I I #
coedge $-1 $204 $203 $455 $456 reversed $71 $-1 #
edge $-1 $213 30 $457 30.001000000000001 $203 $458 forward 7 unknown #
coedge $-1 $459 $336 $204 $332 reversed $327 $-1 #
edge $-1 $460 -30.001000000000001 $334 -30 $204 $461 forward 7 unknown #
convexity-sys-attrib $-1 $-1 $-1 $205 #
vertex $-1 $205 $462 #
straight-curve $-1 -14.999499999999998 24 -9 0 1 0 I I #
coedge $-1 $331 $463 $206 $337 reversed $327 $-1 #
edge $464 $334 -1.3467032344935255 $341 1.7948894190962676 $336 $465 forward 7 unknown #
coedge $-1 $466 $207 $463 $467 forward $201 $-1 #
coedge $-1 $207 $466 $209 $344 reversed $201 $-1 #
convexity-sys-attrib $-1 $-1 $-1 $208 #
vertex $-1 $467 $468 #
straight-curve $-1 -14.999499999999998 -24 9 0 -1 0 I I #
coedge $-1 $210 $209 $469 $470 reversed $116 $-1 #
edge $-1 $212 30 $471 30.001000000000001 $209 $472 forward 7 unknown #
point $-1 -14.999499999999998 -48 9 #
point $-1 -14.999499999999998 -48 -9 #
aggregate_simgeom_attribute-aggregate_simgeom_base_attribute-aggregate_body_attribute-attrib_HH-attrib $-1 $-1 $215 $0 F #
attrib_hh_face_geombuild-attrib_entity_geombuild-individual_entity_attribute-attrib_HH-attrib $-1 $-1 $217 $126 F #
model_id-kcp-attrib $-1 $473 $-1 $218 1 1017635101 80 1833959425 8 #
face $474 $-1 $242 $9 $-1 $475 forward single #
cone-surface $-1 45 0 19 0 1 0 4.94974746830583 0 4.94974746830583 1 I I 0 1 6.9999999999999964 forward I I I I #
attrib_hh_coedge_geombuild-attrib_entity_geombuild-individual_entity_attribute-attrib_HH-attrib $-1 $-1 $-1 $221 F #
coedge $476 $477 $221 $384 $478 reversed $127 $-1 #
coedge $479 $221 $477 $223 $356 reversed $127 $-1 #
attrib_hh_coedge_geombuild-attrib_entity_geombuild-individual_entity_attribute-attrib_HH-attrib $-1 $-1 $-1 $223 F #
edge $480 $227 -48 $481 48 $223 $482 forward 7 unknown #
attrib_hh_edge_geombuild-attrib_entity_geombuild-individual_entity_attribute-attrib_HH-attrib $-1 $-1 $-1 $225 F #
vertex $483 $478 $484 #
intcurve-curve $-1 forward { surfintcur full nubs 3 open 13 
	0.94258757805816895 3 2.5192757462681898 2 4.0959639144782001 2 5.6726520826882201 2 7.2493402508982401 2 
	7.9892035647569601 2 8.7290668786156793 2 9.4689301924743994 2 10.2087935063331 2 11.7335051755759 2 
	13.2582168448186 2 14.7829285140614 2 16.307640183304098 3 
	45 56.774964387392103 30 
	45.525562722736701 56.774964387392103 30 
	46.064438773683904 56.761942554548 30.0602184500368 
	47.119730662275899 56.7003044968707 30.306694408633131 
	47.636141440309999 56.651528889160502 30.492933695840961 
	48.602228090029499 56.498247044282799 30.973800743913081 
	49.053163135994602 56.393008986508399 31.26919762388146 
	49.855196258714301 56.1042864057233 31.93074992741715 
	50.206184632126458 55.920109968695499 32.296736180179131 
	50.637385440378878 55.587762830494597 32.844348365875042 
	50.769546732843281 55.466978723668198 33.02973876994843 
	51.012647598798068 55.197355810622398 33.408522228245282 
	51.123613237372993 55.048475630813101 33.601869100823031 
	51.320028858962132 54.728105195864998 33.982854492168393 
	51.405610100795151 54.556480003012503 34.170598085649679 
	51.55197681229081 54.200330508612602 34.528369808257807 
	51.612831825405678 54.015814377220003 34.69837761610578 
	51.766989926998392 53.452996087212398 35.17721156127368 
	51.838886782787014 53.030016433021402 35.481947883385843 
	51.93650931762906 52.1175749298162 36.020360727222418 
	51.962680396539071 51.628154447123002 36.254026501122489 
	51.992697332637981 50.6136748462905 36.629088349872781 
	51.996860137368273 50.087922963311698 36.770759969899046 
	52.000477604551889 49.035206001073803 36.956226956023144 
	52 48.508237223080897 37 
	52 48 37 
	0.001 
	cone 63.5 48 28 -1 0 0 0 6.3639610306789303 6.3639610306789303 1 I I 0 1 9.0000000000000036 forward I I I I 
	cone 45 0 37 0 -1 0 4.94974746830583 0 -4.94974746830583 1 I I 0 -1 6.9999999999999964 forward I I I I 
	nullbs 
	nullbs 
	I I 
	0 
	0 
	0 
	} I I #
attrib_hh_vertex_geombuild-attrib_entity_geombuild-individual_entity_attribute-attrib_HH-attrib $-1 $-1 $-1 $227 F #
point $-1 52 48 37 #
attrib_hh_coedge_geombuild-attrib_entity_geombuild-individual_entity_attribute-attrib_HH-attrib $-1 $-1 $-1 $230 F #
coedge $485 $486 $230 $233 $367 forward $242 $-1 #
attrib_edge_convexity-kcp-attrib $-1 $487 $-1 $231 1 #
ellipse-curve $-1 75 -48 28 -1 0 0 0 -6.3639610306789303 6.3639610306789303 1 I I #
attrib_hh_coedge_geombuild-attrib_entity_geombuild-individual_entity_attribute-attrib_HH-attrib $-1 $-1 $-1 $233 F #
edge $488 $235 -15 $481 8 $233 $489 forward 7 unknown #
convexity-sys-attrib $-1 $490 $234 $136 #
attrib_hh_vertex_geombuild-attrib_entity_geombuild-individual_entity_attribute-attrib_HH-attrib $-1 $-1 $-1 $235 F #
point $-1 75 -48 37 #
attrib_hh_edge_geombuild-attrib_entity_geombuild-individual_entity_attribute-attrib_HH-attrib $-1 $-1 $237 $86 F #
attrib_hh_coedge_geombuild-attrib_entity_geombuild-individual_entity_attribute-attrib_HH-attrib $-1 $-1 $-1 $241 F #
coedge $491 $241 $486 $492 $493 forward $242 $-1 #
convexity-sys-attrib $-1 $494 $243 $144 #
attrib_hh_edge_geombuild-attrib_entity_geombuild-individual_entity_attribute-attrib_HH-attrib $-1 $-1 $245 $89 F #
attrib_hh_coedge_geombuild-attrib_entity_geombuild-individual_entity_attribute-attrib_HH-attrib $-1 $-1 $-1 $249 F #
coedge $495 $492 $256 $249 $378 forward $219 $-1 #
edge $496 $259 -56.774964387392103 $380 56.774964387392103 $377 $497 forward 7 unknown #
attrib_hh_edge_geombuild-attrib_entity_geombuild-individual_entity_attribute-attrib_HH-attrib $-1 $-1 $-1 $250 F #
vertex $498 $378 $499 #
intcurve-curve $-1 forward { surfintcur full nubs 3 open 13 
	0.94163755229705404 3 2.5183257205070699 2 4.0950138887170899 2 5.6717020569271099 2 7.2483902251371299 2 
	7.98825353899585 2 8.7281168528545692 2 9.4679801667132892 2 10.207843480572 2 11.7325551498148 2 
	13.2572668190575 2 14.7819784883003 2 16.306690157542999 3 
	45 -56.774964387392103 26 
	45.525562722736701 -56.774964387392103 26 
	46.064438773683904 -56.761942554548 25.9397815499632 
	47.119730662275899 -56.7003044968707 25.693305591366869 
	47.636141440309999 -56.651528889160502 25.507066304159039 
	48.602228090029499 -56.498247044282799 25.02619925608693 
	49.053163135994602 -56.393008986508399 24.73080237611854 
	49.855196258714301 -56.1042864057233 24.06925007258285 
	50.206184632126458 -55.920109968695499 23.703263819820869 
	50.637385440378878 -55.587762830494597 23.155651634124961 
	50.769546732843281 -55.466978723668198 22.97026123005157 
	51.012647598798068 -55.197355810622398 22.591477771754718 
	51.123613237372993 -55.048475630813101 22.39813089917698 
	51.320028858962132 -54.728105195864998 22.017145507831611 
	51.405610100795144 -54.556480003012503 21.829401914350321 
	51.55197681229081 -54.200330508612602 21.471630191742189 
	51.612831825405678 -54.015814377220003 21.30162238389422 
	51.766989926998392 -53.452996087212398 20.82278843872632 
	51.838886782787014 -53.030016433021402 20.518052116614161 
	51.93650931762906 -52.1175749298162 19.979639272777582 
	51.962680396539071 -51.628154447123002 19.745973498877511 
	51.992697332637981 -50.6136748462905 19.370911650127219 
	51.996860137368273 -50.087922963311698 19.22924003010095 
	52.000477604551889 -49.035206001073803 19.043773043976859 
	52 -48.508237223080897 19 
	52 -48 19 
	0.001 
	cone 63.5 -48 28 -1 0 0 0 -6.3639610306789303 -6.3639610306789303 1 I I 0 1 9.0000000000000036 forward I I I I 
	cone 45 0 19 0 1 0 4.94974746830583 0 4.94974746830583 1 I I 0 -1 6.9999999999999964 forward I I I I 
	nullbs 
	nullbs 
	I I 
	0 
	0 
	0 
	} I I #
attrib_hh_edge_geombuild-attrib_entity_geombuild-individual_entity_attribute-attrib_HH-attrib $-1 $-1 $252 $92 F #
attrib_hh_coedge_geombuild-attrib_entity_geombuild-individual_entity_attribute-attrib_HH-attrib $-1 $-1 $-1 $256 F #
coedge $500 $256 $492 $353 $478 forward $219 $-1 #
attrib_edge_convexity-kcp-attrib $-1 $501 $-1 $257 1 #
ellipse-curve $-1 45 48 28 1 0 0 0 6.3639610306789303 6.3639610306789303 1 I I #
attrib_hh_vertex_geombuild-attrib_entity_geombuild-individual_entity_attribute-attrib_HH-attrib $-1 $-1 $-1 $259 F #
point $-1 45 56.774964387392103 26 #
model_id-kcp-attrib $-1 $-1 $-1 $262 1 1017635101 80 1833959426 2 #
plane-surface $-1 15.000499999999999 0 0 -1 0 0 0 0 1 forward_v I I I I #
coedge $-1 $267 $265 $269 $395 reversed $164 $-1 #
edge $-1 $280 -9.0009999999999994 $397 9.0009999999999994 $279 $502 forward 7 unknown #
vertex $-1 $395 $503 #
straight-curve $-1 -15.000499999999999 -57 0 0 0 -1 I I #
edge $-1 $393 -57 $397 57 $391 $504 forward 7 unknown #
straight-curve $-1 0 -57 -9.0009999999999994 -1 0 0 I I #
vertex $-1 $272 $505 #
straight-curve $-1 0 57 -9.0009999999999994 1 0 0 I I #
point $-1 15.000499999999999 57 -9.0009999999999994 #
point $-1 15.000499999999999 -57 -9.0009999999999994 #
straight-curve $-1 -15.000499999999999 0 9.0009999999999994 0 -1 0 I I #
point $-1 -15.000499999999999 57 9.0009999999999994 #
point $-1 -15.000499999999999 -57 9.0009999999999994 #
straight-curve $-1 15.000499999999999 -57 0 0 0 -1 I I #
straight-curve $-1 15.000499999999999 57 0 0 0 -1 I I #
plane-surface $-1 15.000500000000002 48 -9 0 0 -1 1 0 0 forward_v I I I I #
coedge $-1 $291 $422 $292 $411 forward $183 $-1 #
edge $-1 $305 -1.7948894190962676 $415 -0.22409309230137112 $301 $417 forward 7 unknown #
coedge $-1 $293 $292 $506 $507 reversed $108 $-1 #
coedge $-1 $508 $509 $510 $411 forward $511 $-1 #
edge $-1 $512 -30.001000000000001 $415 -3.5527136788005009e-015 $410 $513 forward 7 unknown #
coedge $-1 $310 $309 $293 $413 reversed $311 $-1 #
edge $-1 $514 -30.001000000000001 $416 -3.5527136788005009e-015 $412 $515 forward 7 unknown #
coedge $-1 $294 $319 $508 $516 reversed $196 $-1 #
vertex $-1 $516 $517 #
vertex $-1 $295 $518 #
ellipse-curve $-1 15.000499999999999 48 0 -1 0 0 0 8.7749643873921244 -2.0000000000000027 1 I I #
coedge $-1 $437 $519 $296 $419 forward $520 $-1 #
edge $-1 $423 -72 $420 24 $418 $521 forward 7 unknown #
vertex $-1 $438 $522 #
straight-curve $-1 15.000500000000002 -48 9 -1 0 0 I I #
coedge $-1 $407 $299 $519 $523 reversed $183 $-1 #
vertex $-1 $419 $524 #
straight-curve $-1 15.000500000000002 48 9 -1 0 0 I I #
coedge $-1 $525 $301 $526 $527 reversed $303 $-1 #
coedge $-1 $302 $525 $439 $528 forward $303 $-1 #
edge $-1 $198 -0.2240930923013712 $304 1.3467032344935255 $302 $199 forward 7 unknown #
face $-1 $529 $303 $23 $-1 $452 reversed single #
point $-1 15.000499999999999 -48 9 #
point $-1 15.000499999999999 48 9 #
coedge $-1 $506 $307 $310 $435 forward $433 $-1 #
coedge $-1 $307 $530 $531 $443 reversed $433 $-1 #
loop $-1 $-1 $307 $532 #
ellipse-curve $-1 -15.000499999999999 -48 0 1 0 0 0 -8.7749643873921244 2.0000000000000036 1 I I #
edge $-1 $312 -72 $514 24 $431 $533 forward 7 unknown #
point $-1 -15.000499999999999 -48 -9 #
coedge $-1 $534 $418 $314 $438 forward $520 $-1 #
edge $-1 $420 -1.3467032344935255 $317 0.2240930923013712 $437 $434 forward 7 unknown #
coedge $-1 $535 $316 $426 $528 reversed $442 $-1 #
coedge $-1 $316 $535 $534 $536 forward $442 $-1 #
coedge $-1 $531 $320 $112 $193 reversed $448 $-1 #
loop $-1 $-1 $316 $537 #
edge $-1 $317 0 $538 9.0009999999999994 $432 $539 forward 7 unknown #
point $-1 -15.000499999999999 -57 0 #
coedge $-1 $540 $541 $319 $446 forward $542 $-1 #
edge $-1 $543 -57 $449 57 $319 $544 forward 7 unknown #
coedge $-1 $320 $531 $540 $545 reversed $448 $-1 #
loop $-1 $-1 $441 $529 #
vertex $-1 $321 $546 #
straight-curve $-1 15.000499999999999 -57 0 0 0 -1 I I #
straight-curve $-1 15.000499999999999 24 -9 0 -1 0 I I #
plane-surface $-1 15.000499999999999 0 0 -1 0 0 0 0 1 forward_v I I I I #
loop $-1 $-1 $469 $326 #
plane-surface $-1 -15.000499999999999 0 0 1 0 0 0 0 -1 forward_v I I I I #
coedge $-1 $469 $547 $329 $456 forward $453 $-1 #
edge $-1 $460 -24 $457 72 $455 $548 forward 7 unknown #
vertex $-1 $470 $549 #
straight-curve $-1 15.000500000000002 -48 -9 -1 0 0 I I #
coedge $-1 $463 $331 $547 $550 reversed $327 $-1 #
vertex $-1 $550 $551 #
straight-curve $-1 15.000500000000002 48 -9 1 0 0 I I #
point $-1 -14.999499999999998 48 -9 #
coedge $-1 $336 $459 $338 $467 reversed $327 $-1 #
convexity-sys-attrib $-1 $-1 $-1 $337 #
ellipse-curve $-1 -14.999499999999998 48 0 1 0 0 0 8.7749643873921244 -2.0000000000000027 1 I I #
coedge $-1 $339 $338 $552 $553 reversed $201 $-1 #
edge $-1 $341 30 $554 30.001000000000001 $338 $555 forward 7 unknown #
point $-1 -14.999499999999998 48 9 #
coedge $-1 $552 $455 $343 $470 forward $453 $-1 #
edge $-1 $457 -1.7948894190962679 $471 1.3467032344935255 $469 $556 forward 7 unknown #
vertex $-1 $553 $557 #
straight-curve $-1 15.000500000000002 -48 9 -1 0 0 I I #
attrib_hh_face_geombuild-attrib_entity_geombuild-individual_entity_attribute-attrib_HH-attrib $-1 $-1 $349 $218 F #
model_id-kcp-attrib $-1 $558 $-1 $350 1 1017635101 80 1833959425 9 #
cone-surface $-1 63.5 -48 28 1 0 0 0 -6.3639610306789303 6.3639610306789303 1 I I 0 1 9.0000000000000036 forward I I I I #
attrib_hh_coedge_geombuild-attrib_entity_geombuild-individual_entity_attribute-attrib_HH-attrib $-1 $-1 $-1 $353 F #
coedge $559 $354 $353 $486 $560 reversed $127 $-1 #
edge $561 $562 -56.774964387392103 $358 56.774964387392103 $384 $563 forward 7 unknown #
attrib_hh_coedge_geombuild-attrib_entity_geombuild-individual_entity_attribute-attrib_HH-attrib $-1 $-1 $-1 $354 F #
attrib_hh_edge_geombuild-attrib_entity_geombuild-individual_entity_attribute-attrib_HH-attrib $-1 $-1 $-1 $356 F #
vertex $564 $356 $565 #
straight-curve $-1 52 0 37 0 -1 0 I I #
attrib_hh_vertex_geombuild-attrib_entity_geombuild-individual_entity_attribute-attrib_HH-attrib $-1 $-1 $-1 $358 F #
point $-1 45 56.774964387392103 30 #
attrib_hh_coedge_geombuild-attrib_entity_geombuild-individual_entity_attribute-attrib_HH-attrib $-1 $-1 $-1 $363 F #
coedge $566 $373 $363 $477 $560 forward $242 $-1 #
convexity-sys-attrib $-1 $567 $364 $231 #
attrib_hh_edge_geombuild-attrib_entity_geombuild-individual_entity_attribute-attrib_HH-attrib $-1 $-1 $-1 $367 F #
straight-curve $-1 60 -48 37 -1 0 0 I I #
attrib_hh_edge_geombuild-attrib_entity_geombuild-individual_entity_attribute-attrib_HH-attrib $-1 $-1 $368 $136 F #
attrib_hh_coedge_geombuild-attrib_entity_geombuild-individual_entity_attribute-attrib_HH-attrib $-1 $-1 $-1 $373 F #
coedge $568 $384 $377 $373 $493 reversed $219 $-1 #
edge $569 $562 0.56130507109607697 $380 1.0094912556988196 $492 $570 forward 7 unknown #
attrib_hh_edge_geombuild-attrib_entity_geombuild-individual_entity_attribute-attrib_HH-attrib $-1 $-1 $374 $144 F #
attrib_hh_coedge_geombuild-attrib_entity_geombuild-individual_entity_attribute-attrib_HH-attrib $-1 $-1 $-1 $377 F #
attrib_edge_convexity-kcp-attrib $-1 $571 $-1 $378 1 #
straight-curve $-1 45 0 26 0 -1 0 I I #
attrib_hh_vertex_geombuild-attrib_entity_geombuild-individual_entity_attribute-attrib_HH-attrib $-1 $-1 $-1 $380 F #
point $-1 45 -56.774964387392103 26 #
attrib_hh_coedge_geombuild-attrib_entity_geombuild-individual_entity_attribute-attrib_HH-attrib $-1 $-1 $-1 $384 F #
convexity-sys-attrib $-1 $572 $385 $257 #
straight-curve $-1 -15.000499999999999 57 0 0 0 -1 I I #
point $-1 -15.000499999999999 -57 -9.0009999999999994 #
straight-curve $-1 -15.000499999999999 0 -9.0009999999999994 0 1 0 I I #
point $-1 -15.000499999999999 57 -9.0009999999999994 #
coedge $-1 $573 $431 $409 $507 forward $433 $-1 #
edge $-1 $514 -1.3467032344935255 $512 0.22409309230137112 $506 $574 forward 7 unknown #
coedge $-1 $575 $410 $414 $516 forward $511 $-1 #
coedge $-1 $410 $575 $573 $576 reversed $511 $-1 #
coedge $-1 $577 $526 $407 $411 reversed $578 $-1 #
loop $-1 $-1 $410 $579 #
vertex $-1 $576 $580 #
straight-curve $-1 15.000500000000002 57 0 1 0 0 I I #
vertex $-1 $507 $581 #
straight-curve $-1 15.000500000000002 48 -9 1 0 0 I I #
edge $-1 $415 0 $543 9.0009999999999994 $414 $582 forward 7 unknown #
point $-1 15.000499999999999 57 0 #
point $-1 15.000499999999999 48 -9 #
coedge $-1 $418 $583 $422 $523 forward $520 $-1 #
loop $-1 $-1 $437 $584 #
straight-curve $-1 -15.000499999999999 -24 9 0 -1 0 I I #
point $-1 -15.000499999999999 -48 9 #
edge $-1 $512 0.22409309230137112 $423 1.7948894190962676 $519 $574 forward 7 unknown #
point $-1 -15.000499999999999 48 9 #
coedge $-1 $426 $425 $585 $586 reversed $303 $-1 #
coedge $-1 $510 $587 $425 $527 forward $578 $-1 #
edge $-1 $588 -9.0009999999999994 $415 0 $425 $582 forward 7 unknown #
edge $-1 $589 -9.0009999999999994 $198 0 $426 $450 forward 7 unknown #
face $-1 $584 $448 $23 $-1 $590 reversed single #
coedge $-1 $432 $573 $591 $592 reversed $433 $-1 #
coedge $-1 $447 $441 $432 $443 forward $448 $-1 #
face $-1 $593 $433 $23 $-1 $594 reversed single #
straight-curve $-1 -15.000499999999999 24 -9 0 1 0 I I #
coedge $-1 $595 $437 $440 $536 reversed $520 $-1 #
coedge $-1 $440 $439 $596 $597 reversed $442 $-1 #
edge $-1 $598 -9.0009999999999994 $317 0 $534 $539 forward 7 unknown #
face $-1 $579 $442 $23 $-1 $590 reversed single #
vertex $-1 $592 $599 #
straight-curve $-1 -15.000499999999999 -57 0 0 0 -1 I I #
coedge $-1 $591 $445 $447 $545 forward $542 $-1 #
coedge $-1 $445 $591 $575 $600 forward $542 $-1 #
loop $-1 $-1 $445 $601 #
vertex $-1 $446 $602 #
straight-curve $-1 15.000499999999999 0 -9.0009999999999994 0 -1 0 I I #
edge $-1 $449 -15.000499999999999 $538 15.000499999999999 $447 $603 forward 7 unknown #
point $-1 15.000499999999999 -57 -9.0009999999999994 #
coedge $-1 $455 $552 $459 $550 forward $453 $-1 #
straight-curve $-1 -15.000499999999999 24 -9 0 -1 0 I I #
point $-1 -15.000499999999999 -48 -9 #
edge $-1 $554 -1.7948894190962676 $460 1.3467032344935255 $547 $604 forward 7 unknown #
point $-1 -15.000499999999999 48 -9 #
coedge $-1 $547 $469 $466 $553 forward $453 $-1 #
edge $-1 $471 -24 $554 72 $552 $605 forward 7 unknown #
vertex $-1 $553 $606 #
straight-curve $-1 15.000500000000002 48 9 -1 0 0 I I #
ellipse-curve $-1 -15.000499999999999 -48 0 -1 0 0 0 -8.7749643873921244 2.0000000000000036 1 I I #
point $-1 -15.000499999999999 -48 9 #
attrib_hh_face_geombuild-attrib_entity_geombuild-individual_entity_attribute-attrib_HH-attrib $-1 $-1 $474 $350 F #
attrib_hh_coedge_geombuild-attrib_entity_geombuild-individual_entity_attribute-attrib_HH-attrib $-1 $-1 $-1 $477 F #
edge $607 $481 16.306690157542999 $562 31.671742762788998 $477 $608 forward 7 unknown #
attrib_edge_convexity-kcp-attrib $-1 $609 $-1 $478 1 #
vertex $610 $560 $611 #
straight-curve $-1 45 0 30 0 1 0 I I #
attrib_hh_vertex_geombuild-attrib_entity_geombuild-individual_entity_attribute-attrib_HH-attrib $-1 $-1 $-1 $481 F #
point $-1 52 -48 37 #
attrib_hh_coedge_geombuild-attrib_entity_geombuild-individual_entity_attribute-attrib_HH-attrib $-1 $-1 $-1 $486 F #
attrib_hh_edge_geombuild-attrib_entity_geombuild-individual_entity_attribute-attrib_HH-attrib $-1 $-1 $487 $231 F #
attrib_hh_coedge_geombuild-attrib_entity_geombuild-individual_entity_attribute-attrib_HH-attrib $-1 $-1 $-1 $492 F #
attrib_edge_convexity-kcp-attrib $-1 $612 $-1 $493 1 #
ellipse-curve $-1 45 -48 28 1 0 0 0 -6.3639610306789303 6.3639610306789303 1 I I #
convexity-sys-attrib $-1 $613 $496 $378 #
attrib_hh_edge_geombuild-attrib_entity_geombuild-individual_entity_attribute-attrib_HH-attrib $-1 $-1 $501 $257 F #
coedge $-1 $530 $506 $509 $576 forward $433 $-1 #
ellipse-curve $-1 -15.000499999999999 48 0 1 0 0 0 8.7749643873921244 -2.0000000000000027 1 I I #
coedge $-1 $509 $508 $541 $600 reversed $511 $-1 #
edge $-1 $512 0 $614 9.0009999999999994 $509 $615 forward 7 unknown #
coedge $-1 $587 $510 $583 $616 reversed $578 $-1 #
loop $-1 $-1 $510 $593 #
face $-1 $-1 $511 $23 $-1 $617 reversed single #
point $-1 -15.000499999999999 57 0 #
point $-1 -15.000499999999999 48 -9 #
straight-curve $-1 15.000499999999999 57 0 0 0 -1 I I #
coedge $-1 $519 $595 $577 $616 forward $520 $-1 #
face $-1 $532 $520 $23 $-1 $594 reversed single #
coedge $-1 $618 $596 $525 $586 forward $619 $-1 #
edge $-1 $589 -57 $588 57 $525 $620 forward 7 unknown #
coedge $-1 $526 $577 $618 $621 reversed $578 $-1 #
vertex $-1 $586 $622 #
vertex $-1 $586 $623 #
plane-surface $-1 0 -57 0 0 1 0 0 0 1 forward_v I I I I #
coedge $-1 $541 $540 $530 $592 forward $542 $-1 #
edge $-1 $538 -57 $614 57 $530 $624 forward 7 unknown #
face $-1 $625 $578 $23 $-1 $617 reversed single #
plane-surface $-1 -15.000499999999999 0 0 1 0 0 0 0 -1 forward_v I I I I #
coedge $-1 $583 $534 $626 $627 reversed $520 $-1 #
coedge $-1 $585 $626 $535 $597 forward $619 $-1 #
edge $-1 $598 -15.000499999999999 $589 15.000499999999999 $535 $628 forward 7 unknown #
vertex $-1 $627 $629 #
point $-1 -15.000499999999999 -57 -9.0009999999999994 #
edge $-1 $614 -15.000499999999999 $543 15.000499999999999 $575 $630 forward 7 unknown #
face $-1 $537 $542 $23 $-1 $631 reversed single #
point $-1 15.000499999999999 57 -9.0009999999999994 #
straight-curve $-1 0 -57 -9.0009999999999994 -1 0 0 I I #
ellipse-curve $-1 -15.000499999999999 48 0 -1 0 0 0 8.7749643873921244 -2.0000000000000027 1 I I #
straight-curve $-1 -15.000499999999999 -24 9 0 1 0 I I #
point $-1 -15.000499999999999 48 9 #
attrib_hh_edge_geombuild-attrib_entity_geombuild-individual_entity_attribute-attrib_HH-attrib $-1 $-1 $-1 $560 F #
intcurve-curve $-1 forward { surfintcur full nubs 3 open 13 
	16.306690157542999 3 17.8314018267858 2 19.356113496028499 2 20.8808251652713 2 22.405536834513999 2 
	23.145400148372701 2 23.8852634622314 2 24.625126776090202 2 25.3649900899489 2 26.941678258158898 2 
	28.5183664263689 2 30.095054594578901 2 31.671742762788998 3 
	52 -48 37 
	52 -48.508237223080897 37 
	52.000477604551889 -49.035206001073803 36.95622695602313 
	51.996860137368273 -50.087922963311698 36.770759969899046 
	51.992697332637981 -50.6136748462905 36.629088349872781 
	51.962680396539071 -51.628154447123002 36.254026501122489 
	51.93650931762906 -52.1175749298162 36.020360727222418 
	51.838886782787014 -53.030016433021402 35.481947883385843 
	51.766989926998392 -53.452996087212398 35.17721156127368 
	51.612831825405678 -54.015814377220003 34.69837761610578 
	51.55197681229081 -54.200330508612602 34.528369808257807 
	51.405610100795151 -54.556480003012503 34.170598085649679 
	51.320028858962132 -54.728105195864998 33.982854492168393 
	51.123613237372993 -55.048475630813101 33.601869100823023 
	51.012647598798061 -55.197355810622398 33.408522228245268 
	50.769546732843267 -55.466978723668198 33.02973876994843 
	50.637385440378878 -55.587762830494597 32.844348365875042 
	50.206184632126458 -55.920109968695499 32.296736180179131 
	49.855196258714301 -56.1042864057233 31.93074992741715 
	49.053163135994602 -56.393008986508399 31.26919762388146 
	48.602228090029499 -56.498247044282799 30.97380074391307 
	47.636141440309999 -56.651528889160502 30.492933695840961 
	47.119730662275899 -56.7003044968707 30.306694408633131 
	46.064438773683904 -56.761942554548 30.0602184500368 
	45.525562722736701 -56.774964387392103 30 
	45 -56.774964387392103 30 
	0.001 
	cone 63.5 -48 28 1 0 0 0 -6.3639610306789303 6.3639610306789303 1 I I 0 1 9.0000000000000036 forward I I I I 
	cone 45 0 37 0 -1 0 4.94974746830583 0 -4.94974746830583 1 I I 0 -1 6.9999999999999964 forward I I I I 
	nullbs 
	nullbs 
	I I 
	0 
	0 
	0 
	} I I #
convexity-sys-attrib $-1 $632 $561 $478 #
attrib_hh_vertex_geombuild-attrib_entity_geombuild-individual_entity_attribute-attrib_HH-attrib $-1 $-1 $-1 $562 F #
point $-1 45 -56.774964387392103 30 #
convexity-sys-attrib $-1 $633 $569 $493 #
attrib_hh_edge_geombuild-attrib_entity_geombuild-individual_entity_attribute-attrib_HH-attrib $-1 $-1 $571 $378 F #
vertex $-1 $600 $634 #
straight-curve $-1 -15.000499999999999 57 0 0 0 -1 I I #
edge $-1 $635 -9.0009999999999994 $512 0 $577 $615 forward 7 unknown #
plane-surface $-1 0 57 0 0 -1 0 0 0 -1 forward_v I I I I #
coedge $-1 $626 $585 $587 $621 forward $619 $-1 #
loop $-1 $-1 $585 $625 #
straight-curve $-1 15.000499999999999 0 9.0009999999999994 0 1 0 I I #
edge $-1 $588 -15.000499999999999 $635 15.000499999999999 $587 $636 forward 7 unknown #
point $-1 15.000499999999999 57 9.0009999999999994 #
point $-1 15.000499999999999 -57 9.0009999999999994 #
straight-curve $-1 -15.000499999999999 0 -9.0009999999999994 0 1 0 I I #
face $-1 $601 $619 $23 $-1 $637 forward single #
coedge $-1 $596 $618 $595 $627 forward $619 $-1 #
edge $-1 $635 -57 $598 57 $595 $638 forward 7 unknown #
straight-curve $-1 0 -57 9.0009999999999994 1 0 0 I I #
point $-1 -15.000499999999999 -57 9.0009999999999994 #
straight-curve $-1 0 57 -9.0009999999999994 1 0 0 I I #
plane-surface $-1 0 0 -9.0009999999999994 0 0 1 1 0 0 forward_v I I I I #
attrib_hh_edge_geombuild-attrib_entity_geombuild-individual_entity_attribute-attrib_HH-attrib $-1 $-1 $609 $478 F #
attrib_hh_edge_geombuild-attrib_entity_geombuild-individual_entity_attribute-attrib_HH-attrib $-1 $-1 $612 $493 F #
point $-1 -15.000499999999999 57 -9.0009999999999994 #
vertex $-1 $621 $639 #
straight-curve $-1 0 57 9.0009999999999994 -1 0 0 I I #
plane-surface $-1 0 0 9.0009999999999994 0 0 1 1 0 0 forward_v I I I I #
straight-curve $-1 -15.000499999999999 0 9.0009999999999994 0 -1 0 I I #
point $-1 -15.000499999999999 57 9.0009999999999994 #
End-of-ACIS-data 