600 0 1 0           
101 GICL ACIS Healer - Source: /gicl/data5/repository/UMD/tmp/fillet1-feature1/fillet1-feature1.sat - 6 0 18 ACIS 6.0.3 Solaris 24 Sun Apr 14 00:33:51 2002 
1 9.999999999999999547e-07 1.000000000000000036e-10 
body $-1 $1 $-1 $-1 #
lump $-1 $-1 $2 $0 #
shell $-1 $-1 $-1 $3 $-1 $1 #
face $-1 $4 $5 $2 $-1 $6 reversed single #
face $-1 $7 $8 $2 $-1 $9 reversed single #
loop $-1 $-1 $10 $3 #
plane-surface $-1 60 0 19 0 0 1 1 0 0 forward_v I I I I #
face $-1 $11 $12 $2 $-1 $13 forward single #
loop $-1 $-1 $14 $4 #
plane-surface $-1 75 0 28 -1 0 0 0 0 1 forward_v I I I I #
coedge $-1 $15 $16 $17 $18 reversed $5 $-1 #
face $-1 $19 $20 $2 $-1 $21 forward single #
loop $-1 $-1 $22 $7 #
cone-surface $-1 63.5 48 28 -1 0 0 0 6.363961030678930264 6.363961030678930264 1 I I 0 1 9.000000000000003553 forward I I I I #
coedge $-1 $23 $24 $25 $26 reversed $8 $-1 #
coedge $-1 $27 $10 $24 $28 forward $5 $-1 #
coedge $-1 $10 $27 $29 $30 forward $5 $-1 #
coedge $-1 $31 $25 $10 $18 forward $12 $-1 #
edge $-1 $32 -15 $33 8 $10 $34 forward 7 unknown #
face $-1 $35 $36 $2 $-1 $37 reversed single #
loop $-1 $-1 $38 $11 #
plane-surface $-1 60 0 37 0 0 1 1 0 0 forward_v I I I I #
coedge $-1 $25 $39 $38 $40 forward $12 $-1 #
coedge $-1 $41 $14 $42 $43 reversed $8 $-1 #
coedge $-1 $14 $41 $15 $28 reversed $8 $-1 #
coedge $-1 $17 $22 $14 $26 forward $12 $-1 #
edge $-1 $44 -2.356194490192344837 $32 0.785398163397448279 $14 $45 forward 7 unknown #
coedge $-1 $16 $15 $46 $47 reversed $5 $-1 #
edge $-1 $32 -48 $48 48 $24 $49 forward 7 unknown #
coedge $-1 $50 $51 $16 $30 reversed $52 $-1 #
edge $-1 $53 -48 $33 48 $16 $54 forward 7 unknown #
coedge $-1 $55 $17 $51 $56 forward $12 $-1 #
vertex $-1 $26 $57 #
vertex $-1 $30 $58 #
straight-curve $-1 60 48 19 -1 -0 -0 I I #
face $-1 $59 $60 $2 $-1 $61 reversed single #
loop $-1 $-1 $62 $19 #
cone-surface $-1 45 0 37 0 -1 0 4.949747468305830012 0 -4.949747468305830012 1 I I 0 1 6.999999999999996447 forward I I I I #
coedge $-1 $63 $42 $22 $40 reversed $20 $-1 #
coedge $-1 $22 $55 $62 $64 forward $12 $-1 #
edge $-1 $65 -8 $44 15 $38 $66 forward 7 unknown #
coedge $-1 $24 $23 $67 $68 reversed $8 $-1 #
coedge $-1 $38 $69 $23 $43 forward $20 $-1 #
edge $-1 $70 -48 $44 48 $23 $71 forward 7 unknown #
vertex $-1 $43 $72 #
ellipse-curve $-1 75 48 28 -1 0 0 0 6.363961030678930264 -6.363961030678930264 1 I I #
coedge $-1 $67 $73 $27 $47 forward $74 $-1 #
edge $-1 $53 -8 $48 15 $27 $75 forward 7 unknown #
vertex $-1 $28 $76 #
straight-curve $-1 75 0 19 0 -1 0 I I #
coedge $-1 $77 $29 $73 $78 reversed $52 $-1 #
coedge $-1 $29 $77 $31 $56 reversed $52 $-1 #
loop $-1 $-1 $51 $59 #
vertex $-1 $47 $79 #
straight-curve $-1 52 0 19 0 1 0 I I #
coedge $-1 $39 $31 $80 $81 forward $12 $-1 #
edge $-1 $33 16.30764018330409826 $82 31.67269278855010128 $51 $83 forward 7 unknown #
point $-1 75 48 19 #
point $-1 52 48 19 #
face $-1 $84 $52 $2 $-1 $85 reversed single #
loop $-1 $-1 $80 $35 #
plane-surface $-1 45 0 28 1 0 0 0 0 -1 forward_v I I I I #
coedge $-1 $86 $87 $39 $64 reversed $36 $-1 #
coedge $-1 $69 $38 $87 $88 forward $20 $-1 #
edge $-1 $89 0.9425875780581689511 $65 16.30764018330409826 $62 $90 forward 7 unknown #
vertex $-1 $64 $91 #
straight-curve $-1 60 48 37 1 0 0 I I #
coedge $-1 $92 $46 $41 $68 forward $74 $-1 #
edge $-1 $48 -2.356194490192344837 $70 0.785398163397448279 $41 $93 forward 7 unknown #
coedge $-1 $42 $63 $92 $94 reversed $20 $-1 #
vertex $-1 $94 $95 #
straight-curve $-1 75 0 37 0 1 0 I I #
point $-1 75 48 37 #
coedge $-1 $46 $96 $50 $78 forward $74 $-1 #
loop $-1 $-1 $92 $84 #
straight-curve $-1 60 -48 19 1 0 0 I I #
point $-1 75 -48 19 #
coedge $-1 $51 $50 $97 $98 reversed $52 $-1 #
edge $-1 $99 0.9416375522970540368 $53 16.30669015754299878 $50 $100 forward 7 unknown #
point $-1 52 -48 19 #
coedge $-1 $97 $101 $55 $81 reversed $60 $-1 #
edge $-1 $82 -1.00949125569881959 $89 -0.5613050710960769685 $80 $102 forward 7 unknown #
vertex $-1 $81 $103 #
intcurve-curve $-1 forward { surfintcur full nubs 3 open 13 
	16.30764018330409826 3 17.83235185254689981 2 19.35706352178959833 2 20.88177519103239987 2 22.40648686027509839 2 
	23.14635017413380069 2 23.88621348799259891 2 24.62607680185130121 2 25.36594011570999996 2 26.94262828392000131 2 
	28.51931645212999911 2 30.09600462034009993 2 31.67269278855010128 3 
	52 48 19 
	52 48.50823722308089714 19 
	52.0004776045518895 49.0352060010738029 19.04377304397685933 
	51.99686013736827306 50.0879229633116978 19.22924003010095007 
	51.99269733263798088 50.6136748462905004 19.37091165012721916 
	51.96268039653907067 51.62815444712300206 19.74597349887751108 
	51.93650931762905998 52.11757492981620032 19.97963927277758245 
	51.83888678278701434 53.03001643302140167 20.51805211661416095 
	51.76698992699839152 53.45299608721239792 20.82278843872632024 
	51.61283182540567793 54.01581437722000345 21.30162238389421958 
	51.55197681229081041 54.20033050861260193 21.47163019174218945 
	51.40561010079515114 54.55648000301250278 21.82940191435032062 
	51.32002885896213229 54.72810519586499822 22.01714550783161073 
	51.12361323737299301 55.04847563081310113 22.39813089917698008 
	51.01264759879806121 55.1973558106223976 22.59147777175472882 
	50.76954673284326702 55.46697872366819837 22.97026123005156961 
	50.63738544037887834 55.58776283049459721 23.15565163412496119 
	50.20618463212645821 55.92010996869549899 23.70326381982086872 
	49.85519625871430094 56.10428640572330039 24.06925007258285021 
	49.05316313599460187 56.39300898650839855 24.7308023761185396 
	48.60222809002949873 56.49824704428279887 25.02619925608691887 
	47.63614144030999853 56.65152888916050244 25.5070663041590393 
	47.11973066227589868 56.70030449687070018 25.69330559136686887 
	46.06443877368390361 56.76194255454799986 25.93978154996320029 
	45.52556272273670146 56.77496438739210305 26 
	45 56.77496438739210305 26 
	0.001000000000000000021 
	cone 63.5 48 28 1 0 0 0 6.363961030678930264 -6.363961030678930264 1 I I 0 1 9.000000000000003553 forward I I I I 
	cone 45 0 19 0 1 0 4.949747468305830012 0 4.949747468305830012 1 I I -0 -1 6.999999999999996447 forward I I I I 
	nullbs 
	nullbs 
	I I 
	0 
	0 
	0 
	} I I #
face $-1 $-1 $74 $2 $-1 $104 forward single #
cone-surface $-1 45 0 19 0 1 0 4.949747468305830012 0 4.949747468305830012 1 I I 0 1 6.999999999999996447 forward I I I I #
coedge $-1 $105 $62 $101 $106 reversed $36 $-1 #
coedge $-1 $62 $105 $63 $88 reversed $36 $-1 #
edge $-1 $65 -48 $107 48 $63 $108 forward 7 unknown #
vertex $-1 $106 $109 #
intcurve-curve $-1 forward { surfintcur full nubs 3 open 13 
	0.9425875780581689511 3 2.519275746268189842 2 4.095963914478200074 2 5.672652082688220077 2 7.249340250898240079 2 
	7.989203564756960141 2 8.729066878615679315 2 9.468930192474399377 2 10.2087935063330999 2 11.73350517557589967 2 
	13.25821684481859997 2 14.78292851406139974 2 16.30764018330409826 3 
	45 56.77496438739210305 30 
	45.52556272273670146 56.77496438739210305 30 
	46.06443877368390361 56.76194255454799986 30.06021845003679971 
	47.11973066227589868 56.70030449687070018 30.30669440863313113 
	47.63614144030999853 56.65152888916050244 30.4929336958409607 
	48.60222809002949873 56.49824704428279887 30.97380074391308113 
	49.05316313599460187 56.39300898650839855 31.2691976238814604 
	49.85519625871430094 56.10428640572330039 31.93074992741714979 
	50.20618463212645821 55.92010996869549899 32.29673618017913128 
	50.63738544037887834 55.58776283049459721 32.84434836587504236 
	50.76954673284328123 55.46697872366819837 33.02973876994843039 
	51.01264759879806832 55.1973558106223976 33.40852222824528184 
	51.12361323737299301 55.04847563081310113 33.60186910082303058 
	51.32002885896213229 54.72810519586499822 33.98285449216839282 
	51.40561010079515114 54.55648000301250278 34.17059808564967938 
	51.55197681229081041 54.20033050861260193 34.52836980825780699 
	51.61283182540567793 54.01581437722000345 34.69837761610578042 
	51.76698992699839152 53.45299608721239792 35.17721156127367976 
	51.83888678278701434 53.03001643302140167 35.4819478833858426 
	51.93650931762905998 52.11757492981620032 36.02036072722241755 
	51.96268039653907067 51.62815444712300206 36.25402650112248892 
	51.99269733263798088 50.6136748462905004 36.62908834987278084 
	51.99686013736827306 50.0879229633116978 36.77075996989904638 
	52.0004776045518895 49.0352060010738029 36.95622695602314423 
	52 48.50823722308089714 37 
	52 48 37 
	0.001000000000000000021 
	cone 63.5 48 28 -1 0 0 0 6.363961030678930264 6.363961030678930264 1 I I 0 1 9.000000000000003553 forward I I I I 
	cone 45 0 37 0 -1 0 4.949747468305830012 0 -4.949747468305830012 1 I I -0 -1 6.999999999999996447 forward I I I I 
	nullbs 
	nullbs 
	I I 
	0 
	0 
	0 
	} I I #
point $-1 52 48 37 #
coedge $-1 $110 $67 $69 $94 forward $74 $-1 #
ellipse-curve $-1 75 -48 28 -1 0 0 0 -6.363961030678930264 6.363961030678930264 1 I I #
edge $-1 $70 -15 $107 8 $69 $111 forward 7 unknown #
point $-1 75 -48 37 #
coedge $-1 $73 $110 $112 $113 forward $74 $-1 #
coedge $-1 $112 $80 $77 $98 forward $60 $-1 #
edge $-1 $82 -56.77496438739210305 $99 56.77496438739210305 $97 $114 forward 7 unknown #
vertex $-1 $98 $115 #
intcurve-curve $-1 forward { surfintcur full nubs 3 open 13 
	0.9416375522970540368 3 2.518325720507069931 2 4.095013888717089934 2 5.671702056927109936 2 7.248390225137129939 2 
	7.988253538995850001 2 8.728116852854569174 2 9.467980166713289236 2 10.20784348057200042 2 11.73255514981480019 2 
	13.25726681905750048 2 14.78197848830030026 2 16.30669015754299878 3 
	45 -56.77496438739210305 26 
	45.52556272273670146 -56.77496438739210305 26 
	46.06443877368390361 -56.76194255454799986 25.93978154996320029 
	47.11973066227589868 -56.70030449687070018 25.69330559136686887 
	47.63614144030999853 -56.65152888916050244 25.5070663041590393 
	48.60222809002949873 -56.49824704428279887 25.02619925608692952 
	49.05316313599460187 -56.39300898650839855 24.7308023761185396 
	49.85519625871430094 -56.10428640572330039 24.06925007258285021 
	50.20618463212645821 -55.92010996869549899 23.70326381982086872 
	50.63738544037887834 -55.58776283049459721 23.15565163412496119 
	50.76954673284328123 -55.46697872366819837 22.97026123005156961 
	51.01264759879806832 -55.1973558106223976 22.59147777175471816 
	51.12361323737299301 -55.04847563081310113 22.39813089917698008 
	51.32002885896213229 -54.72810519586499822 22.01714550783161073 
	51.40561010079514404 -54.55648000301250278 21.82940191435032062 
	51.55197681229081041 -54.20033050861260193 21.47163019174218945 
	51.61283182540567793 -54.01581437722000345 21.30162238389421958 
	51.76698992699839152 -53.45299608721239792 20.82278843872632024 
	51.83888678278701434 -53.03001643302140167 20.51805211661416095 
	51.93650931762905998 -52.11757492981620032 19.97963927277758245 
	51.96268039653907067 -51.62815444712300206 19.74597349887751108 
	51.99269733263798088 -50.6136748462905004 19.37091165012721916 
	51.99686013736827306 -50.0879229633116978 19.22924003010095007 
	52.0004776045518895 -49.0352060010738029 19.04377304397685933 
	52 -48.50823722308089714 19 
	52 -48 19 
	0.001000000000000000021 
	cone 63.5 -48 28 -1 -0 -0 0 -6.363961030678930264 -6.363961030678930264 1 I I 0 1 9.000000000000003553 forward I I I I 
	cone 45 0 19 0 1 0 4.949747468305830012 0 4.949747468305830012 1 I I -0 -1 6.999999999999996447 forward I I I I 
	nullbs 
	nullbs 
	I I 
	0 
	0 
	0 
	} I I #
coedge $-1 $80 $112 $86 $106 forward $60 $-1 #
ellipse-curve $-1 45 48 28 1 0 0 0 6.363961030678930264 6.363961030678930264 1 I I #
point $-1 45 56.77496438739210305 26 #
cone-surface $-1 63.5 -48 28 1 0 0 0 -6.363961030678930264 6.363961030678930264 1 I I 0 1 9.000000000000003553 forward I I I I #
coedge $-1 $87 $86 $110 $116 reversed $36 $-1 #
edge $-1 $117 -56.77496438739210305 $89 56.77496438739210305 $101 $118 forward 7 unknown #
vertex $-1 $88 $119 #
straight-curve $-1 52 0 37 0 -1 0 I I #
point $-1 45 56.77496438739210305 30 #
coedge $-1 $96 $92 $105 $116 forward $74 $-1 #
straight-curve $-1 60 -48 37 -1 -0 -0 I I #
coedge $-1 $101 $97 $96 $113 reversed $60 $-1 #
edge $-1 $117 0.5613050710960769685 $99 1.00949125569881959 $112 $120 forward 7 unknown #
straight-curve $-1 45 0 26 -0 -1 -0 I I #
point $-1 45 -56.77496438739210305 26 #
edge $-1 $107 16.30669015754299878 $117 31.67174276278899825 $105 $121 forward 7 unknown #
vertex $-1 $116 $122 #
straight-curve $-1 45 0 30 0 1 0 I I #
point $-1 52 -48 37 #
ellipse-curve $-1 45 -48 28 1 0 0 0 -6.363961030678930264 6.363961030678930264 1 I I #
intcurve-curve $-1 forward { surfintcur full nubs 3 open 13 
	16.30669015754299878 3 17.83140182678580032 2 19.35611349602849884 2 20.88082516527130039 2 22.40553683451399891 2 
	23.14540014837270121 2 23.88526346223139996 2 24.62512677609020173 2 25.36499008994890048 2 26.94167825815889827 2 
	28.51836642636889962 2 30.09505459457890097 2 31.67174276278899825 3 
	52 -48 37 
	52 -48.50823722308089714 37 
	52.0004776045518895 -49.0352060010738029 36.95622695602313001 
	51.99686013736827306 -50.0879229633116978 36.77075996989904638 
	51.99269733263798088 -50.6136748462905004 36.62908834987278084 
	51.96268039653907067 -51.62815444712300206 36.25402650112248892 
	51.93650931762905998 -52.11757492981620032 36.02036072722241755 
	51.83888678278701434 -53.03001643302140167 35.4819478833858426 
	51.76698992699839152 -53.45299608721239792 35.17721156127367976 
	51.61283182540567793 -54.01581437722000345 34.69837761610578042 
	51.55197681229081041 -54.20033050861260193 34.52836980825780699 
	51.40561010079515114 -54.55648000301250278 34.17059808564967938 
	51.32002885896213229 -54.72810519586499822 33.98285449216839282 
	51.12361323737299301 -55.04847563081310113 33.60186910082302347 
	51.01264759879806121 -55.1973558106223976 33.40852222824526763 
	50.76954673284326702 -55.46697872366819837 33.02973876994843039 
	50.63738544037887834 -55.58776283049459721 32.84434836587504236 
	50.20618463212645821 -55.92010996869549899 32.29673618017913128 
	49.85519625871430094 -56.10428640572330039 31.93074992741714979 
	49.05316313599460187 -56.39300898650839855 31.2691976238814604 
	48.60222809002949873 -56.49824704428279887 30.97380074391307048 
	47.63614144030999853 -56.65152888916050244 30.4929336958409607 
	47.11973066227589868 -56.70030449687070018 30.30669440863313113 
	46.06443877368390361 -56.76194255454799986 30.06021845003679971 
	45.52556272273670146 -56.77496438739210305 30 
	45 -56.77496438739210305 30 
	0.001000000000000000021 
	cone 63.5 -48 28 1 0 0 0 -6.363961030678930264 6.363961030678930264 1 I I 0 1 9.000000000000003553 forward I I I I 
	cone 45 0 37 0 -1 0 4.949747468305830012 0 -4.949747468305830012 1 I I -0 -1 6.999999999999996447 forward I I I I 
	nullbs 
	nullbs 
	I I 
	0 
	0 
	0 
	} I I #
point $-1 45 -56.77496438739210305 30 #
End-of-ACIS-data 