600 0 1 0           
90 GICL ACIS Healer - Source: /gicl/data5/repository/UIUC/pocketIsland/pocketIsland.sat - 6 0 18 ACIS 6.0.3 Solaris 24 Sun Apr 14 00:06:28 2002 
1 9.999999999999999547e-07 1.000000000000000036e-10 
body $1 $2 $-1 $-1 #
named_string_attribute-named_attribute-st-attrib $-1 $3 $-1 $0 4 name 12 pocketIsland #
lump $-1 $-1 $4 $0 #
rgb_color-st-attrib $-1 $-1 $1 $0 0 1 0 #
shell $-1 $-1 $-1 $5 $-1 $2 #
face $-1 $6 $7 $4 $-1 $8 forward single #
face $-1 $9 $10 $4 $-1 $11 forward single #
loop $-1 $-1 $12 $5 #
cone-surface $-1 10 10 6.25 -0 -0 -1 -3.535533905932737309 -3.535533905932737309 0 1 I I 0 -1 5 forward I I I I #
face $-1 $13 $14 $4 $-1 $15 forward single #
loop $-1 $16 $17 $6 #
plane-surface $-1 15 15 2.5 0 0 1 1 0 0 forward_v I I I I #
coedge $-1 $18 $19 $20 $21 forward $7 $-1 #
face $-1 $22 $23 $4 $-1 $24 forward single #
loop $-1 $-1 $25 $9 #
plane-surface $-1 15 5 6.25 0 1 0 0 0 1 forward_v I I I I #
loop $-1 $-1 $26 $6 #
coedge $-1 $27 $28 $29 $30 forward $10 $-1 #
coedge $-1 $31 $12 $32 $33 reversed $7 $-1 #
coedge $-1 $12 $31 $26 $34 reversed $7 $-1 #
coedge $-1 $35 $36 $12 $21 reversed $37 $-1 #
edge $-1 $38 -3.75 $39 3.75 $20 $40 forward 7 unknown #
face $-1 $41 $42 $4 $-1 $43 forward single #
loop $-1 $-1 $44 $13 #
cone-surface $-1 10 20 6.25 0 0 -1 -3.535533905932737309 3.535533905932737309 0 1 I I 0 -1 5 forward I I I I #
coedge $-1 $45 $46 $31 $47 reversed $14 $-1 #
coedge $-1 $48 $49 $19 $34 forward $16 $-1 #
coedge $-1 $50 $17 $51 $52 forward $10 $-1 #
coedge $-1 $17 $50 $53 $54 forward $10 $-1 #
coedge $-1 $55 $56 $17 $30 reversed $57 $-1 #
edge $-1 $58 -5 $59 5 $17 $60 forward 7 unknown #
coedge $-1 $19 $18 $25 $47 forward $7 $-1 #
coedge $-1 $61 $62 $18 $33 forward $63 $-1 #
edge $-1 $64 -0.785398163397448279 $39 0.785398163397448279 $32 $65 forward 7 unknown #
edge $-1 $38 -0.785398163397448279 $66 0.785398163397448279 $26 $67 forward 7 unknown #
coedge $-1 $68 $20 $49 $69 forward $37 $-1 #
coedge $-1 $20 $68 $61 $70 reversed $37 $-1 #
loop $-1 $-1 $20 $71 #
vertex $-1 $69 $72 #
vertex $-1 $70 $73 #
straight-curve $-1 5 10 6.25 0 0 1 F -19.25 F 19.25 #
face $-1 $74 $75 $4 $-1 $76 forward single #
loop $-1 $-1 $77 $22 #
plane-surface $-1 15 25 6.25 0 -1 0 0 0 -1 forward_v I I I I #
coedge $-1 $78 $79 $77 $80 forward $23 $-1 #
coedge $-1 $81 $25 $62 $82 reversed $14 $-1 #
coedge $-1 $25 $81 $48 $83 forward $14 $-1 #
edge $-1 $64 -3.75 $66 3.75 $25 $84 forward 7 unknown #
coedge $-1 $85 $26 $46 $83 reversed $16 $-1 #
coedge $-1 $26 $86 $35 $69 reversed $16 $-1 #
coedge $-1 $28 $27 $87 $88 forward $10 $-1 #
coedge $-1 $89 $90 $27 $52 reversed $91 $-1 #
edge $-1 $59 -5 $92 5 $27 $93 forward 7 unknown #
coedge $-1 $94 $95 $28 $54 reversed $96 $-1 #
edge $-1 $97 -5 $58 5 $28 $98 forward 7 unknown #
coedge $-1 $99 $29 $95 $100 reversed $57 $-1 #
coedge $-1 $29 $99 $89 $101 forward $57 $-1 #
loop $-1 $-1 $56 $102 #
vertex $-1 $30 $103 #
vertex $-1 $30 $104 #
straight-curve $-1 15 10 2.5 -1 0 0 I I #
coedge $-1 $105 $32 $36 $70 forward $63 $-1 #
coedge $-1 $32 $106 $45 $82 forward $63 $-1 #
loop $-1 $107 $62 $108 #
vertex $-1 $33 $109 #
ellipse-curve $-1 10 10 10 -0 -0 -1 -3.535533905932737309 -3.535533905932737309 0 1 I I #
vertex $-1 $47 $110 #
ellipse-curve $-1 10 10 2.5 0 0 1 -3.535533905932737309 -3.535533905932737309 0 1 I I #
coedge $-1 $36 $35 $111 $112 reversed $37 $-1 #
edge $-1 $38 -5 $113 5 $35 $114 forward 7 unknown #
edge $-1 $39 -5 $115 5 $61 $116 forward 7 unknown #
face $117 $108 $37 $4 $-1 $118 forward single #
point $-1 5 10 2.5 #
point $-1 5 10 10 #
face $-1 $119 $120 $4 $-1 $121 forward single #
loop $-1 $-1 $122 $41 #
cone-surface $-1 20 20 6.25 -0 -0 -1 3.535533905932737309 3.535533905932737309 0 1 I I 0 -1 5 forward I I I I #
coedge $-1 $123 $124 $44 $80 reversed $42 $-1 #
coedge $-1 $111 $44 $105 $125 reversed $23 $-1 #
coedge $-1 $44 $111 $86 $126 reversed $23 $-1 #
edge $-1 $127 -3.75 $128 3.75 $77 $129 forward 7 unknown #
coedge $-1 $46 $45 $130 $131 reversed $14 $-1 #
edge $-1 $132 -5 $64 5 $62 $133 forward 7 unknown #
edge $-1 $134 -5 $66 5 $46 $135 forward 7 unknown #
straight-curve $-1 10 5 6.25 0 0 -1 F -19.25 F 19.25 #
coedge $-1 $136 $48 $137 $138 forward $16 $-1 #
coedge $-1 $49 $139 $79 $126 forward $16 $-1 #
coedge $-1 $140 $141 $50 $88 reversed $142 $-1 #
edge $-1 $92 -5 $97 5 $50 $143 forward 7 unknown #
coedge $-1 $144 $51 $56 $101 reversed $91 $-1 #
coedge $-1 $51 $144 $140 $145 forward $91 $-1 #
loop $-1 $-1 $90 $146 #
vertex $-1 $52 $147 #
straight-curve $-1 10 15 2.5 0 1 0 I I #
coedge $-1 $148 $53 $141 $149 reversed $96 $-1 #
coedge $-1 $53 $148 $55 $100 forward $96 $-1 #
loop $-1 $-1 $95 $150 #
vertex $-1 $88 $151 #
straight-curve $-1 20 15 2.5 0 -1 0 I I #
coedge $-1 $56 $55 $152 $153 reversed $57 $-1 #
edge $-1 $154 -2.5 $58 2.5 $95 $155 forward 7 unknown #
edge $-1 $156 -2.5 $59 2.5 $89 $157 forward 7 unknown #
face $158 $146 $57 $4 $-1 $159 reversed single #
point $-1 20 10 2.5 #
point $-1 10 10 2.5 #
coedge $-1 $160 $61 $78 $125 forward $63 $-1 #
coedge $-1 $62 $161 $162 $163 forward $63 $-1 #
loop $-1 $-1 $164 $108 #
face $165 $166 $63 $4 $-1 $167 forward single #
point $-1 10 5 10 #
point $-1 10 5 2.5 #
coedge $-1 $79 $78 $68 $112 forward $23 $-1 #
edge $-1 $115 -3.75 $113 3.75 $68 $168 forward 7 unknown #
vertex $-1 $126 $169 #
straight-curve $-1 5 15 2.5 0 1 0 I I #
vertex $-1 $125 $170 #
straight-curve $-1 5 15 10 0 1 0 I I #
fmesh-eye-attrib $-1 $-1 $-1 $71 #
plane-surface $-1 5 15 6.25 1 0 0 0 0 -1 forward_v I I I I #
face $-1 $171 $172 $4 $-1 $173 forward single #
loop $-1 $-1 $174 $74 #
plane-surface $-1 25 15 6.25 -1 0 0 0 0 1 forward_v I I I I #
coedge $-1 $175 $176 $174 $177 forward $75 $-1 #
coedge $-1 $178 $77 $139 $179 forward $42 $-1 #
coedge $-1 $77 $178 $160 $180 reversed $42 $-1 #
edge $-1 $115 -0.785398163397448279 $128 0.785398163397448279 $105 $181 forward 7 unknown #
edge $-1 $127 -0.785398163397448279 $113 0.785398163397448279 $86 $182 forward 7 unknown #
vertex $-1 $179 $183 #
vertex $-1 $180 $184 #
straight-curve $-1 10 25 6.25 0 0 1 F -19.25 F 19.25 #
coedge $-1 $162 $137 $81 $131 forward $172 $-1 #
edge $-1 $134 -3.75 $132 3.75 $81 $185 forward 7 unknown #
vertex $-1 $82 $186 #
straight-curve $-1 15 5 10 -1 0 0 I I #
vertex $-1 $83 $187 #
straight-curve $-1 15 5 2.5 -1 0 0 I I #
coedge $-1 $188 $85 $189 $190 reversed $16 $-1 #
coedge $-1 $130 $191 $85 $138 reversed $172 $-1 #
edge $-1 $134 -0.785398163397448279 $192 0.785398163397448279 $85 $193 forward 7 unknown #
coedge $-1 $86 $188 $123 $179 reversed $16 $-1 #
coedge $-1 $194 $87 $90 $145 reversed $142 $-1 #
coedge $-1 $87 $194 $94 $149 forward $142 $-1 #
loop $-1 $-1 $141 $195 #
straight-curve $-1 15 20 2.5 1 0 0 I I #
coedge $-1 $90 $89 $196 $197 reversed $91 $-1 #
edge $-1 $198 -2.5 $92 2.5 $140 $199 forward 7 unknown #
face $200 $195 $91 $4 $-1 $201 reversed single #
point $-1 10 20 2.5 #
coedge $-1 $95 $94 $202 $203 reversed $96 $-1 #
edge $-1 $204 -2.5 $97 2.5 $94 $205 forward 7 unknown #
face $206 $71 $96 $4 $-1 $207 reversed single #
point $-1 20 20 2.5 #
coedge $-1 $202 $196 $99 $153 forward $208 $-1 #
edge $-1 $156 -5 $154 5 $99 $209 forward 7 unknown #
vertex $-1 $203 $210 #
straight-curve $-1 20 10 5 0 0 -1 I I #
vertex $-1 $197 $211 #
straight-curve $-1 10 10 5 0 0 -1 I I #
fmesh-eye-attrib $-1 $-1 $-1 $102 #
plane-surface $-1 15 10 5 0 1 0 0 0 1 forward_v I I I I #
coedge $-1 $212 $105 $124 $180 forward $63 $-1 #
coedge $-1 $106 $212 $213 $214 forward $63 $-1 #
coedge $-1 $191 $130 $106 $163 reversed $172 $-1 #
edge $-1 $215 -0.785398163397448279 $132 0.785398163397448279 $106 $216 forward 7 unknown #
coedge $-1 $217 $218 $219 $220 forward $107 $-1 #
fmesh-eye-attrib $-1 $-1 $-1 $108 #
face $221 $222 $223 $4 $-1 $224 reversed single #
plane-surface $-1 15 15 10 0 0 1 1 0 0 forward_v I I I I #
straight-curve $-1 5 20 6.25 0 0 -1 F -19.25 F 19.25 #
point $-1 5 20 2.5 #
point $-1 5 20 10 #
face $225 $102 $208 $4 $-1 $226 forward single #
loop $-1 $-1 $130 $119 #
cone-surface $-1 20 10 6.25 0 0 -1 3.535533905932737309 -3.535533905932737309 0 1 I I 0 -1 5 forward I I I I #
coedge $-1 $189 $213 $122 $177 reversed $120 $-1 #
coedge $-1 $227 $122 $212 $228 reversed $75 $-1 #
coedge $-1 $122 $227 $188 $229 reversed $75 $-1 #
edge $-1 $230 -3.75 $231 3.75 $174 $232 forward 7 unknown #
coedge $-1 $124 $123 $227 $233 reversed $42 $-1 #
edge $-1 $127 -5 $234 5 $123 $235 forward 7 unknown #
edge $-1 $128 -5 $236 5 $160 $237 forward 7 unknown #
ellipse-curve $-1 10 20 10 -0 -0 -1 -3.535533905932737309 3.535533905932737309 0 1 I I #
ellipse-curve $-1 10 20 2.5 0 0 1 -3.535533905932737309 3.535533905932737309 0 1 I I #
point $-1 10 25 2.5 #
point $-1 10 25 10 #
straight-curve $-1 20 5 6.25 0 0 1 F -19.25 F 19.25 #
point $-1 20 5 10 #
point $-1 20 5 2.5 #
coedge $-1 $139 $136 $176 $229 forward $16 $-1 #
coedge $-1 $238 $174 $136 $190 forward $120 $-1 #
edge $-1 $230 -5 $192 5 $189 $239 forward 7 unknown #
coedge $-1 $137 $162 $238 $240 forward $172 $-1 #
vertex $-1 $138 $241 #
ellipse-curve $-1 20 10 2.5 0 0 1 3.535533905932737309 -3.535533905932737309 0 1 I I #
coedge $-1 $141 $140 $242 $243 reversed $142 $-1 #
face $244 $150 $142 $4 $-1 $245 reversed single #
coedge $-1 $152 $242 $144 $197 forward $208 $-1 #
edge $-1 $198 -5 $156 5 $144 $246 forward 7 unknown #
vertex $-1 $243 $247 #
straight-curve $-1 10 20 5 0 0 -1 I I #
fmesh-eye-attrib $-1 $-1 $-1 $146 #
plane-surface $-1 10 15 5 1 0 0 0 0 -1 forward_v I I I I #
coedge $-1 $242 $152 $148 $203 forward $208 $-1 #
edge $-1 $154 -5 $204 5 $148 $248 forward 7 unknown #
vertex $-1 $203 $249 #
straight-curve $-1 20 20 5 0 0 -1 I I #
fmesh-eye-attrib $-1 $-1 $-1 $150 #
plane-surface $-1 20 15 5 -1 0 0 0 0 1 forward_v I I I I #
loop $-1 $-1 $202 $171 #
straight-curve $-1 15 10 7.5 1 0 0 I I #
point $-1 20 10 7.5 #
point $-1 10 10 7.5 #
coedge $-1 $161 $160 $175 $228 forward $63 $-1 #
coedge $-1 $174 $238 $161 $214 reversed $120 $-1 #
edge $-1 $231 -5 $215 5 $161 $250 forward 7 unknown #
vertex $-1 $163 $251 #
ellipse-curve $-1 20 10 10 -0 -0 -1 3.535533905932737309 -3.535533905932737309 0 1 I I #
coedge $-1 $252 $164 $253 $254 forward $107 $-1 #
coedge $-1 $164 $252 $255 $256 forward $107 $-1 #
coedge $-1 $257 $258 $164 $220 reversed $259 $-1 #
edge $-1 $260 -15 $261 15 $219 $262 forward 7 unknown #
fmesh-eye-attrib $-1 $-1 $-1 $166 #
face $263 $264 $265 $4 $-1 $266 reversed single #
loop $-1 $-1 $267 $166 #
plane-surface $-1 15 15 0 0 0 1 1 0 0 forward_v I I I I #
fmesh-eye-attrib $-1 $-1 $-1 $171 #
plane-surface $-1 15 15 7.5 0 0 1 1 0 0 forward_v I I I I #
coedge $-1 $176 $175 $178 $233 forward $75 $-1 #
edge $-1 $236 -0.785398163397448279 $231 0.785398163397448279 $212 $268 forward 7 unknown #
edge $-1 $230 -0.785398163397448279 $234 0.785398163397448279 $188 $269 forward 7 unknown #
vertex $-1 $190 $270 #
vertex $-1 $214 $271 #
straight-curve $-1 25 20 6.25 0 0 1 F -19.25 F 19.25 #
edge $-1 $236 -3.75 $234 3.75 $178 $272 forward 7 unknown #
vertex $-1 $229 $273 #
straight-curve $-1 15 25 2.5 1 0 0 I I #
vertex $-1 $228 $274 #
straight-curve $-1 15 25 10 1 0 0 I I #
coedge $-1 $213 $189 $191 $240 reversed $120 $-1 #
straight-curve $-1 25 15 2.5 0 -1 0 I I #
edge $-1 $215 -3.75 $192 3.75 $238 $275 forward 7 unknown #
point $-1 25 10 2.5 #
coedge $-1 $196 $202 $194 $243 forward $208 $-1 #
edge $-1 $204 -5 $198 5 $194 $276 forward 7 unknown #
fmesh-eye-attrib $-1 $-1 $-1 $195 #
plane-surface $-1 15 20 5 0 -1 0 0 0 -1 forward_v I I I I #
straight-curve $-1 10 15 7.5 0 -1 0 I I #
point $-1 10 20 7.5 #
straight-curve $-1 20 15 7.5 0 1 0 I I #
point $-1 20 20 7.5 #
straight-curve $-1 25 15 10 0 -1 0 I I #
point $-1 25 10 10 #
coedge $-1 $218 $217 $277 $278 forward $107 $-1 #
coedge $-1 $279 $280 $217 $254 reversed $281 $-1 #
edge $-1 $261 -15 $282 15 $253 $283 forward 7 unknown #
coedge $-1 $284 $285 $218 $256 reversed $265 $-1 #
edge $-1 $286 -15 $260 15 $255 $287 forward 7 unknown #
coedge $-1 $288 $219 $285 $289 forward $259 $-1 #
coedge $-1 $219 $288 $279 $290 reversed $259 $-1 #
loop $-1 $-1 $257 $291 #
vertex $-1 $220 $292 #
vertex $-1 $220 $293 #
straight-curve $-1 30 15 10 0 1 0 I I #
fmesh-eye-attrib $-1 $-1 $-1 $222 #
face $294 $295 $296 $4 $-1 $297 reversed single #
loop $-1 $-1 $284 $222 #
plane-surface $-1 15 0 5 0 1 0 0 0 1 forward_v I I I I #
coedge $-1 $298 $299 $288 $300 forward $223 $-1 #
ellipse-curve $-1 20 20 10 -0 -0 -1 3.535533905932737309 3.535533905932737309 0 1 I I #
ellipse-curve $-1 20 20 2.5 0 0 1 3.535533905932737309 3.535533905932737309 0 1 I I #
point $-1 25 20 2.5 #
point $-1 25 20 10 #
straight-curve $-1 20 25 6.25 0 0 -1 F -19.25 F 19.25 #
point $-1 20 25 2.5 #
point $-1 20 25 10 #
straight-curve $-1 25 10 6.25 0 0 -1 F -19.25 F 19.25 #
straight-curve $-1 15 20 7.5 -1 0 0 I I #
coedge $-1 $301 $302 $252 $278 reversed $296 $-1 #
edge $-1 $282 -15 $286 15 $277 $303 forward 7 unknown #
coedge $-1 $304 $253 $258 $290 forward $281 $-1 #
coedge $-1 $253 $304 $301 $305 reversed $281 $-1 #
loop $-1 $-1 $279 $295 #
vertex $-1 $254 $306 #
straight-curve $-1 15 30 10 -1 0 0 I I #
coedge $-1 $307 $255 $302 $308 forward $265 $-1 #
coedge $-1 $255 $307 $257 $289 reversed $265 $-1 #
vertex $-1 $278 $309 #
straight-curve $-1 15 0 10 1 0 0 I I #
coedge $-1 $258 $257 $267 $300 reversed $259 $-1 #
edge $-1 $260 -5 $310 5 $257 $311 forward 7 unknown #
edge $-1 $261 -5 $312 5 $258 $313 forward 7 unknown #
face $314 $-1 $259 $4 $-1 $315 reversed single #
point $-1 30 0 10 #
point $-1 30 30 10 #
fmesh-eye-attrib $-1 $-1 $-1 $264 #
face $316 $291 $281 $4 $-1 $317 reversed single #
loop $-1 $-1 $301 $264 #
plane-surface $-1 0 15 5 1 0 0 0 0 -1 forward_v I I I I #
coedge $-1 $318 $267 $307 $319 forward $223 $-1 #
coedge $-1 $267 $318 $304 $320 forward $223 $-1 #
edge $-1 $312 -15 $310 15 $288 $321 forward 7 unknown #
coedge $-1 $322 $277 $280 $305 forward $296 $-1 #
coedge $-1 $277 $322 $284 $308 reversed $296 $-1 #
straight-curve $-1 0 15 10 0 -1 0 I I #
coedge $-1 $280 $279 $299 $320 reversed $281 $-1 #
edge $-1 $282 -5 $323 5 $280 $324 forward 7 unknown #
point $-1 0 30 10 #
coedge $-1 $285 $284 $298 $319 reversed $265 $-1 #
edge $-1 $286 -5 $325 5 $302 $326 forward 7 unknown #
point $-1 0 0 10 #
vertex $-1 $289 $327 #
straight-curve $-1 30 0 5 0 0 -1 I I #
vertex $-1 $300 $328 #
straight-curve $-1 30 30 5 0 0 -1 I I #
fmesh-eye-attrib $-1 $-1 $-1 $291 #
plane-surface $-1 30 15 5 -1 0 0 0 0 1 forward_v I I I I #
fmesh-eye-attrib $-1 $-1 $-1 $295 #
plane-surface $-1 15 30 5 0 -1 0 0 0 -1 forward_v I I I I #
coedge $-1 $299 $298 $322 $329 forward $223 $-1 #
edge $-1 $310 -15 $325 15 $307 $330 forward 7 unknown #
edge $-1 $323 -15 $312 15 $304 $331 forward 7 unknown #
straight-curve $-1 30 15 0 0 -1 0 I I #
coedge $-1 $302 $301 $318 $329 reversed $296 $-1 #
vertex $-1 $320 $332 #
straight-curve $-1 0 30 5 0 0 -1 I I #
vertex $-1 $329 $333 #
straight-curve $-1 0 0 5 0 0 -1 I I #
point $-1 30 0 0 #
point $-1 30 30 0 #
edge $-1 $325 -15 $323 15 $322 $334 forward 7 unknown #
straight-curve $-1 15 0 0 -1 0 0 I I #
straight-curve $-1 15 30 0 1 0 0 I I #
point $-1 0 30 0 #
point $-1 0 0 0 #
straight-curve $-1 0 15 0 0 1 0 I I #
End-of-ACIS-data 