600 0 2 0           
24 FBMach with ACIS - 6.0.3 13 ACIS 6.0.3 NT 24 Tue May 22 15:47:13 2001 
1 9.9999999999999995e-007 1e-010 
body $2 $3 $-1 $4 #
bdycol-kcp $-1 1 3 $5 $6 $7 #
model_id-kcp-attrib $-1 $8 $-1 $0 1 990560832 50 -1120796671 1 #
lump $-1 $-1 $9 $0 #
transform $-1 1 0 0 0 1 0 0 0 1 15 15 5 1 rotate no_reflect no_shear #
body $10 $11 $-1 $12 #
body $13 $14 $-1 $15 #
body $16 $17 $-1 $18 #
named_string_attribute-named_attribute-st-attrib $-1 $19 $2 $0 4 name 12 pocketIsland #
shell $-1 $-1 $-1 $20 $-1 $3 #
model_id-kcp-attrib $-1 $-1 $-1 $5 1 990560832 60 -1120141310 1 #
lump $-1 $-1 $21 $5 #
transform $-1 1 0 0 0 1 0 0 0 1 15 15 5 1 no_rotate no_reflect no_shear #
model_id-kcp-attrib $-1 $22 $-1 $6 1 990560832 510 -1107427325 1 #
lump $-1 $-1 $23 $6 #
transform $-1 1 0 0 0 1 0 0 0 1 15 15 5 1 no_rotate no_reflect no_shear #
model_id-kcp-attrib $-1 $24 $-1 $7 1 990560832 751 -1108410364 1 #
lump $-1 $-1 $25 $7 #
transform $-1 1 0 0 0 1 0 0 0 1 15 15 5 1 no_rotate no_reflect no_shear #
rgb_color-st-attrib $-1 $-1 $8 $0 0 1 0 #
face $26 $27 $28 $9 $-1 $29 forward single #
shell $-1 $-1 $-1 $30 $-1 $11 #
rgb_color-st-attrib $-1 $-1 $13 $6 0 0 1 #
shell $-1 $-1 $-1 $31 $-1 $14 #
rgb_color-st-attrib $-1 $-1 $16 $7 0 0 1 #
shell $-1 $-1 $-1 $32 $-1 $17 #
model_id-kcp-attrib $-1 $-1 $-1 $20 1 990560832 50 -1120796671 2 #
face $33 $34 $35 $9 $-1 $36 forward single #
loop $-1 $-1 $37 $20 #
cone-surface $-1 -5 -5 1.25 0 0 -1 -3.5355339059327373 -3.5355339059327373 0 1 I I 0 -1 5 forward I I I I #
face $38 $39 $40 $21 $-1 $41 forward single #
face $-1 $42 $43 $23 $-1 $44 forward single #
face $-1 $45 $46 $25 $-1 $47 forward single #
model_id-kcp-attrib $-1 $-1 $-1 $27 1 990560832 50 -1120796671 3 #
face $48 $49 $50 $9 $-1 $51 forward single #
loop $-1 $52 $53 $27 #
plane-surface $-1 0 0 -2.5 0 0 1 1 0 0 forward_v I I I I #
coedge $-1 $54 $55 $56 $57 forward $28 $-1 #
model_id-kcp-attrib $-1 $-1 $-1 $30 1 990560832 60 -1120141310 2 #
face $58 $59 $60 $21 $-1 $61 reversed single #
loop $-1 $-1 $62 $30 #
plane-surface $-1 0 0 5 0 0 1 1 0 0 forward_v I I I I #
face $-1 $63 $64 $23 $-1 $65 forward single #
loop $-1 $-1 $66 $31 #
plane-surface $-1 5 -5 -2.5 -1 0 0 0 0 1 forward_v I I I I #
face $-1 $67 $68 $25 $-1 $69 forward single #
loop $-1 $-1 $70 $32 #
plane-surface $-1 -5 10 2.5 0 1 0 0 0 1 forward_v I I I I #
model_id-kcp-attrib $-1 $-1 $-1 $34 1 990560832 50 -1120796671 4 #
face $71 $72 $73 $9 $-1 $74 forward single #
loop $-1 $-1 $75 $34 #
plane-surface $-1 0 -10 1.25 0 1 0 0 0 1 forward_v I I I I #
loop $-1 $-1 $76 $27 #
coedge $-1 $77 $78 $79 $80 forward $35 $-1 #
coedge $-1 $81 $37 $82 $83 reversed $28 $-1 #
coedge $-1 $37 $81 $76 $84 reversed $28 $-1 #
coedge $-1 $85 $86 $37 $57 reversed $87 $-1 #
edge $-1 $88 -3.75 $89 3.75 $56 $90 forward 7 unknown #
model_id-kcp-attrib $-1 $-1 $-1 $39 1 990560832 60 -1120141310 3 #
face $91 $92 $93 $21 $-1 $94 reversed single #
loop $-1 $-1 $95 $39 #
plane-surface $-1 0 0 -5 0 0 1 1 0 0 forward_v I I I I #
coedge $-1 $96 $97 $98 $99 forward $40 $-1 #
face $-1 $100 $101 $23 $-1 $102 forward single #
loop $-1 $-1 $103 $42 #
plane-surface $-1 5 5 -2.5 0 -1 0 0 0 -1 forward_v I I I I #
coedge $-1 $104 $105 $106 $107 forward $43 $-1 #
face $-1 $108 $109 $25 $-1 $110 forward single #
loop $-1 $-1 $111 $45 #
cone-surface $-1 5 5 2.5 0 0 1 3.5355339059327373 3.5355339059327373 0 1 I I 0 1 5 forward I I I I #
coedge $-1 $112 $113 $114 $115 forward $46 $-1 #
model_id-kcp-attrib $-1 $-1 $-1 $49 1 990560832 50 -1120796671 5 #
face $116 $117 $118 $9 $-1 $119 forward single #
loop $-1 $-1 $120 $49 #
cone-surface $-1 -5 5 1.25 0 0 -1 -3.5355339059327373 3.5355339059327373 0 1 I I 0 -1 5 forward I I I I #
coedge $-1 $121 $122 $81 $123 reversed $50 $-1 #
coedge $-1 $124 $125 $55 $84 forward $52 $-1 #
coedge $-1 $126 $53 $127 $128 forward $35 $-1 #
coedge $-1 $53 $126 $129 $130 forward $35 $-1 #
coedge $-1 $131 $132 $53 $80 reversed $133 $-1 #
edge $134 $135 -5 $136 5 $53 $137 forward 7 unknown #
coedge $-1 $55 $54 $75 $123 forward $28 $-1 #
coedge $-1 $138 $139 $54 $83 forward $140 $-1 #
edge $141 $142 -0.78539816339744828 $89 0.78539816339744828 $82 $143 forward 7 unknown #
edge $-1 $88 -0.78539816339744828 $144 0.78539816339744828 $76 $145 forward 7 unknown #
coedge $-1 $146 $56 $125 $147 forward $87 $-1 #
coedge $-1 $56 $146 $138 $148 reversed $87 $-1 #
loop $-1 $-1 $56 $149 #
vertex $-1 $147 $150 #
vertex $-1 $148 $151 #
straight-curve $-1 -10 -5 1.25 0 0 1 F -19.25 F 19.25 #
model_id-kcp-attrib $-1 $-1 $-1 $59 1 990560832 60 -1120141310 4 #
face $152 $153 $154 $21 $-1 $155 reversed single #
loop $-1 $-1 $156 $59 #
plane-surface $-1 0 -15 0 0 1 0 0 0 1 forward_v I I I I #
coedge $-1 $157 $158 $159 $160 forward $60 $-1 #
coedge $-1 $161 $62 $162 $163 forward $40 $-1 #
coedge $-1 $62 $161 $164 $165 forward $40 $-1 #
coedge $-1 $166 $167 $62 $99 reversed $168 $-1 #
edge $-1 $169 -15 $170 15 $98 $171 forward 7 unknown #
face $-1 $172 $173 $23 $-1 $174 forward single #
loop $-1 $-1 $175 $63 #
plane-surface $-1 -5 5 -2.5 1 0 0 0 0 -1 forward_v I I I I #
coedge $-1 $176 $177 $178 $179 forward $64 $-1 #
coedge $-1 $180 $66 $177 $181 reversed $43 $-1 #
coedge $-1 $66 $180 $182 $183 forward $43 $-1 #
coedge $-1 $184 $178 $66 $107 reversed $185 $-1 #
edge $-1 $186 -5 $187 5 $66 $188 forward 7 unknown #
face $-1 $189 $190 $25 $-1 $191 forward single #
loop $-1 $-1 $192 $67 #
plane-surface $-1 10 5 2.5 1 0 0 0 0 -1 forward_v I I I I #
coedge $-1 $193 $194 $195 $196 forward $68 $-1 #
coedge $-1 $197 $70 $194 $198 reversed $46 $-1 #
coedge $-1 $70 $197 $199 $200 forward $46 $-1 #
coedge $-1 $201 $195 $70 $115 reversed $202 $-1 #
edge $-1 $203 -5 $204 5 $70 $205 forward 7 unknown #
model_id-kcp-attrib $-1 $-1 $-1 $72 1 990560832 50 -1120796671 6 #
face $206 $207 $208 $9 $-1 $209 forward single #
loop $-1 $-1 $210 $72 #
plane-surface $-1 0 10 1.25 0 -1 0 0 0 -1 forward_v I I I I #
coedge $-1 $211 $212 $210 $213 forward $73 $-1 #
coedge $-1 $214 $75 $139 $215 reversed $50 $-1 #
coedge $-1 $75 $214 $124 $216 forward $50 $-1 #
edge $-1 $142 -3.75 $144 3.75 $75 $217 forward 7 unknown #
coedge $-1 $218 $76 $122 $216 reversed $52 $-1 #
coedge $-1 $76 $219 $85 $147 reversed $52 $-1 #
coedge $-1 $78 $77 $220 $221 forward $35 $-1 #
coedge $-1 $222 $223 $77 $128 reversed $224 $-1 #
edge $225 $136 -5 $226 5 $77 $227 forward 7 unknown #
coedge $-1 $228 $229 $78 $130 reversed $230 $-1 #
edge $231 $232 -5 $135 5 $78 $233 forward 7 unknown #
coedge $-1 $234 $79 $229 $235 reversed $133 $-1 #
coedge $-1 $79 $234 $222 $236 forward $133 $-1 #
loop $-1 $-1 $132 $237 #
ptlist-eye-attrib $-1 $-1 $-1 $80 #
vertex $-1 $80 $238 #
vertex $-1 $80 $239 #
straight-curve $-1 0 -5 -2.5 -1 0 0 I I #
coedge $-1 $240 $82 $86 $148 forward $140 $-1 #
coedge $-1 $82 $241 $121 $215 forward $140 $-1 #
loop $-1 $242 $139 $243 #
attrib_edge_convexity-kcp-attrib $-1 $244 $-1 $83 1 #
vertex $-1 $83 $245 #
ellipse-curve $-1 -5 -5 5 0 0 -1 -3.5355339059327373 -3.5355339059327373 0 1 I I #
vertex $-1 $123 $246 #
ellipse-curve $-1 -5 -5 -2.5 0 0 1 -3.5355339059327373 -3.5355339059327373 0 1 I I #
coedge $-1 $86 $85 $247 $248 reversed $87 $-1 #
edge $249 $88 -5 $250 5 $85 $251 forward 7 unknown #
edge $252 $89 -5 $253 5 $138 $254 forward 7 unknown #
face $255 $243 $87 $9 $-1 $256 forward single #
point $-1 -10 -5 -2.5 #
point $-1 -10 -5 5 #
model_id-kcp-attrib $-1 $-1 $-1 $92 1 990560832 60 -1120141310 5 #
face $257 $258 $259 $21 $-1 $260 reversed single #
loop $-1 $-1 $261 $92 #
plane-surface $-1 -15 0 0 1 0 0 0 0 -1 forward_v I I I I #
coedge $-1 $262 $164 $263 $264 forward $93 $-1 #
coedge $-1 $265 $95 $262 $266 forward $60 $-1 #
coedge $-1 $95 $265 $267 $268 forward $60 $-1 #
coedge $-1 $167 $166 $95 $160 reversed $168 $-1 #
edge $-1 $269 -15 $270 15 $159 $271 forward 7 unknown #
coedge $-1 $97 $96 $272 $273 forward $40 $-1 #
coedge $-1 $274 $275 $96 $163 reversed $259 $-1 #
edge $-1 $170 -15 $276 15 $162 $277 forward 7 unknown #
coedge $-1 $156 $278 $97 $165 reversed $93 $-1 #
edge $-1 $279 -15 $169 15 $164 $280 forward 7 unknown #
coedge $-1 $159 $98 $278 $281 forward $168 $-1 #
coedge $-1 $98 $159 $274 $282 reversed $168 $-1 #
loop $-1 $-1 $166 $258 #
vertex $-1 $99 $283 #
vertex $-1 $99 $284 #
straight-curve $-1 15 0 5 0 1 0 I I #
face $-1 $285 $286 $23 $-1 $287 forward single #
loop $-1 $-1 $288 $100 #
plane-surface $-1 -5 -5 -2.5 0 1 0 0 0 1 forward_v I I I I #
coedge $-1 $289 $290 $291 $292 forward $101 $-1 #
coedge $-1 $293 $103 $290 $294 reversed $64 $-1 #
coedge $-1 $103 $293 $104 $181 forward $64 $-1 #
coedge $-1 $106 $291 $103 $179 reversed $185 $-1 #
edge $-1 $187 -5 $295 5 $103 $296 forward 7 unknown #
coedge $-1 $105 $104 $297 $298 reversed $43 $-1 #
edge $299 $300 0 $187 5 $177 $301 forward 7 unknown #
coedge $-1 $302 $288 $105 $183 reversed $173 $-1 #
edge $303 $304 0 $186 5 $105 $305 forward 7 unknown #
coedge $-1 $291 $106 $288 $306 reversed $185 $-1 #
loop $-1 $-1 $106 $307 #
vertex $-1 $183 $308 #
vertex $-1 $181 $309 #
straight-curve $-1 5 0 2.5 0 1 0 I I #
face $-1 $310 $311 $25 $-1 $312 forward single #
loop $-1 $-1 $313 $108 #
cone-surface $-1 5 -5 2.5 0 0 1 3.5355339059327373 -3.5355339059327373 0 1 I I 0 1 5 forward I I I I #
coedge $-1 $314 $315 $316 $317 forward $109 $-1 #
coedge $-1 $318 $111 $315 $319 reversed $68 $-1 #
coedge $-1 $111 $318 $112 $198 forward $68 $-1 #
coedge $-1 $114 $316 $111 $196 reversed $202 $-1 #
edge $-1 $204 -0.78539816339744828 $320 0.78539816339744828 $111 $321 forward 7 unknown #
coedge $-1 $113 $112 $322 $323 reversed $46 $-1 #
edge $324 $325 0 $204 2.5 $194 $326 forward 7 unknown #
coedge $-1 $327 $328 $113 $200 reversed $329 $-1 #
edge $-1 $330 0 $203 2.5 $113 $331 forward 7 unknown #
coedge $-1 $332 $114 $328 $333 reversed $202 $-1 #
loop $-1 $-1 $114 $334 #
vertex $-1 $200 $335 #
vertex $-1 $198 $336 #
straight-curve $-1 0 10 5 1 0 0 I I #
model_id-kcp-attrib $-1 $-1 $-1 $117 1 990560832 50 -1120796671 7 #
face $337 $338 $339 $9 $-1 $340 forward single #
loop $-1 $-1 $341 $117 #
cone-surface $-1 5 5 1.25 0 0 -1 3.5355339059327373 3.5355339059327373 0 1 I I 0 -1 5 forward I I I I #
coedge $-1 $342 $343 $120 $213 reversed $118 $-1 #
coedge $-1 $247 $120 $240 $344 reversed $73 $-1 #
coedge $-1 $120 $247 $219 $345 reversed $73 $-1 #
edge $-1 $346 -3.75 $347 3.75 $210 $348 forward 7 unknown #
coedge $-1 $122 $121 $349 $350 reversed $50 $-1 #
edge $351 $352 -5 $142 5 $139 $353 forward 7 unknown #
edge $354 $355 -5 $144 5 $122 $356 forward 7 unknown #
straight-curve $-1 -5 -10 1.25 0 0 -1 F -19.25 F 19.25 #
coedge $-1 $357 $124 $358 $359 forward $52 $-1 #
coedge $-1 $125 $360 $212 $345 forward $52 $-1 #
coedge $-1 $361 $362 $126 $221 reversed $363 $-1 #
edge $364 $226 -5 $232 5 $126 $365 forward 7 unknown #
coedge $-1 $366 $127 $132 $236 reversed $224 $-1 #
coedge $-1 $127 $366 $361 $367 forward $224 $-1 #
loop $-1 $-1 $223 $368 #
ptlist-eye-attrib $-1 $-1 $-1 $128 #
vertex $-1 $128 $369 #
straight-curve $-1 -5 0 -2.5 0 1 0 I I #
coedge $-1 $370 $129 $362 $371 reversed $230 $-1 #
coedge $-1 $129 $370 $131 $235 forward $230 $-1 #
loop $-1 $-1 $229 $372 #
ptlist-eye-attrib $-1 $-1 $-1 $130 #
vertex $-1 $221 $373 #
straight-curve $-1 5 0 -2.5 0 -1 0 I I #
coedge $-1 $132 $131 $374 $375 reversed $133 $-1 #
edge $376 $377 -2.5 $135 2.5 $229 $378 forward 7 unknown #
edge $379 $380 -2.5 $136 2.5 $222 $381 forward 7 unknown #
face $382 $368 $133 $9 $-1 $383 reversed single #
point $-1 5 -5 -2.5 #
point $-1 -5 -5 -2.5 #
coedge $-1 $384 $138 $211 $344 forward $140 $-1 #
coedge $-1 $139 $385 $386 $387 forward $140 $-1 #
loop $-1 $-1 $388 $243 #
face $389 $390 $140 $9 $-1 $391 forward single #
convexity-sys-attrib $-1 $-1 $141 $83 #
point $-1 -5 -10 5 #
point $-1 -5 -10 -2.5 #
coedge $-1 $212 $211 $146 $248 forward $73 $-1 #
edge $-1 $253 -3.75 $250 3.75 $146 $392 forward 7 unknown #
ptlist-eye-attrib $-1 $-1 $-1 $147 #
vertex $-1 $345 $393 #
straight-curve $-1 -10 0 -2.5 0 1 0 I I #
attrib_edge_convexity-kcp-attrib $-1 $394 $-1 $148 1 #
vertex $-1 $344 $395 #
straight-curve $-1 -10 0 5 0 1 0 I I #
model_id-kcp-attrib $-1 $396 $-1 $149 1 990560832 50 -1120796671 15 #
plane-surface $-1 -10 0 1.25 1 0 0 0 0 -1 forward_v I I I I #
model_id-kcp-attrib $-1 $-1 $-1 $153 1 990560832 60 -1120141310 6 #
face $397 $-1 $168 $21 $-1 $398 reversed single #
loop $-1 $-1 $274 $153 #
plane-surface $-1 0 15 0 0 -1 0 0 0 -1 forward_v I I I I #
coedge $-1 $399 $272 $275 $400 forward $154 $-1 #
coedge $-1 $278 $156 $157 $266 reversed $93 $-1 #
coedge $-1 $272 $399 $156 $264 reversed $154 $-1 #
edge $-1 $279 -5 $401 5 $263 $402 forward 7 unknown #
coedge $-1 $158 $157 $399 $403 forward $60 $-1 #
edge $-1 $270 -15 $401 15 $262 $404 forward 7 unknown #
coedge $-1 $275 $274 $158 $268 reversed $259 $-1 #
edge $-1 $405 -15 $269 15 $267 $406 forward 7 unknown #
vertex $-1 $160 $407 #
vertex $-1 $281 $408 #
straight-curve $-1 15 0 -5 0 -1 0 I I #
coedge $-1 $261 $263 $161 $273 reversed $154 $-1 #
edge $-1 $276 -15 $279 15 $272 $409 forward 7 unknown #
coedge $-1 $267 $162 $167 $282 forward $259 $-1 #
coedge $-1 $162 $267 $261 $400 reversed $259 $-1 #
vertex $-1 $163 $410 #
straight-curve $-1 0 15 5 -1 0 0 I I #
coedge $-1 $164 $262 $166 $281 reversed $93 $-1 #
vertex $-1 $273 $411 #
straight-curve $-1 0 -15 5 1 0 0 I I #
edge $-1 $169 -5 $270 5 $166 $412 forward 7 unknown #
edge $-1 $170 -5 $269 5 $167 $413 forward 7 unknown #
point $-1 15 -15 5 #
point $-1 15 15 5 #
face $-1 $414 $415 $23 $-1 $416 forward single #
loop $-1 $-1 $417 $172 #
plane-surface $-1 5 -10 -2.5 0 -1 0 0 0 -1 forward_v I I I I #
coedge $-1 $182 $418 $184 $306 forward $173 $-1 #
coedge $-1 $419 $175 $418 $420 reversed $101 $-1 #
coedge $-1 $175 $419 $176 $294 forward $101 $-1 #
coedge $-1 $178 $184 $175 $292 reversed $185 $-1 #
edge $-1 $295 -5 $421 5 $175 $422 forward 7 unknown #
coedge $-1 $177 $176 $423 $424 reversed $64 $-1 #
edge $-1 $425 0 $295 5 $290 $426 forward 7 unknown #
vertex $-1 $294 $427 #
straight-curve $-1 0 5 2.5 -1 0 0 I I #
coedge $-1 $423 $428 $180 $298 forward $429 $-1 #
edge $-1 $304 -5 $300 5 $180 $430 forward 7 unknown #
convexity-sys-attrib $-1 $-1 $-1 $181 #
vertex $-1 $298 $431 #
straight-curve $-1 5 5 -2.5 0 0 1 I I #
coedge $-1 $418 $182 $428 $432 reversed $173 $-1 #
convexity-sys-attrib $-1 $-1 $-1 $183 #
vertex $-1 $432 $433 #
straight-curve $-1 5 -5 -2.5 0 0 1 I I #
edge $-1 $421 -5 $186 5 $288 $434 forward 7 unknown #
face $-1 $435 $436 $23 $-1 $437 forward single #
point $-1 5 -5 2.5 #
point $-1 5 5 2.5 #
face $-1 $438 $439 $25 $-1 $440 forward single #
loop $-1 $-1 $441 $189 #
plane-surface $-1 5 -10 2.5 0 -1 0 0 0 -1 forward_v I I I I #
coedge $-1 $442 $443 $444 $445 forward $190 $-1 #
coedge $-1 $446 $192 $443 $447 reversed $109 $-1 #
coedge $-1 $192 $446 $193 $319 forward $109 $-1 #
coedge $-1 $195 $444 $192 $317 reversed $202 $-1 #
edge $-1 $320 -5 $448 5 $192 $449 forward 7 unknown #
coedge $-1 $194 $193 $450 $451 reversed $68 $-1 #
edge $-1 $452 0 $320 2.5 $315 $453 forward 7 unknown #
vertex $-1 $319 $454 #
ellipse-curve $-1 5 5 5 0 0 -1 3.5355339059327373 3.5355339059327373 0 1 I I #
coedge $-1 $450 $455 $197 $323 forward $456 $-1 #
edge $457 $330 -5 $325 5 $197 $458 forward 7 unknown #
convexity-sys-attrib $-1 $-1 $-1 $198 #
vertex $-1 $323 $459 #
straight-curve $-1 5 10 2.5 0 0 1 I I #
coedge $-1 $460 $199 $455 $461 reversed $329 $-1 #
coedge $-1 $199 $460 $201 $333 forward $329 $-1 #
loop $-1 $-1 $328 $462 #
vertex $-1 $461 $463 #
straight-curve $-1 -5 10 2.5 0 0 1 I I #
coedge $-1 $464 $201 $465 $466 reversed $202 $-1 #
edge $-1 $467 -0.78539816339744828 $203 0.78539816339744828 $328 $468 forward 7 unknown #
face $-1 $469 $202 $25 $-1 $470 forward single #
point $-1 -5 10 5 #
point $-1 5 10 5 #
model_id-kcp-attrib $-1 $-1 $-1 $207 1 990560832 50 -1120796671 8 #
face $471 $472 $473 $9 $-1 $474 forward single #
loop $-1 $-1 $475 $207 #
plane-surface $-1 10 0 1.25 -1 0 0 0 0 1 forward_v I I I I #
coedge $-1 $476 $477 $475 $478 forward $208 $-1 #
coedge $-1 $479 $210 $360 $480 forward $118 $-1 #
coedge $-1 $210 $479 $384 $481 reversed $118 $-1 #
edge $482 $253 -0.78539816339744828 $347 0.78539816339744828 $240 $483 forward 7 unknown #
edge $-1 $346 -0.78539816339744828 $250 0.78539816339744828 $219 $484 forward 7 unknown #
vertex $-1 $480 $485 #
vertex $-1 $481 $486 #
straight-curve $-1 -5 10 1.25 0 0 1 F -19.25 F 19.25 #
coedge $-1 $386 $358 $214 $350 forward $473 $-1 #
edge $-1 $355 -3.75 $352 3.75 $214 $487 forward 7 unknown #
attrib_edge_convexity-kcp-attrib $-1 $488 $-1 $215 1 #
vertex $-1 $215 $489 #
straight-curve $-1 0 -10 5 -1 0 0 I I #
ptlist-eye-attrib $-1 $-1 $-1 $216 #
vertex $-1 $216 $490 #
straight-curve $-1 0 -10 -2.5 -1 0 0 I I #
coedge $-1 $491 $218 $492 $493 reversed $52 $-1 #
coedge $-1 $349 $494 $218 $359 reversed $473 $-1 #
edge $-1 $355 -0.78539816339744828 $495 0.78539816339744828 $218 $496 forward 7 unknown #
coedge $-1 $219 $491 $342 $480 reversed $52 $-1 #
coedge $-1 $497 $220 $223 $367 reversed $363 $-1 #
coedge $-1 $220 $497 $228 $371 forward $363 $-1 #
loop $-1 $-1 $362 $498 #
ptlist-eye-attrib $-1 $-1 $-1 $221 #
straight-curve $-1 0 5 -2.5 1 0 0 I I #
coedge $-1 $223 $222 $499 $500 reversed $224 $-1 #
edge $501 $502 -2.5 $226 2.5 $361 $503 forward 7 unknown #
face $504 $498 $224 $9 $-1 $505 reversed single #
point $-1 -5 5 -2.5 #
coedge $-1 $229 $228 $506 $507 reversed $230 $-1 #
edge $508 $509 -2.5 $232 2.5 $228 $510 forward 7 unknown #
face $511 $149 $230 $9 $-1 $512 reversed single #
point $-1 5 5 -2.5 #
coedge $-1 $506 $499 $234 $375 forward $513 $-1 #
edge $514 $380 -5 $377 5 $234 $515 forward 7 unknown #
ptlist-eye-attrib $-1 $-1 $-1 $235 #
vertex $-1 $507 $516 #
straight-curve $-1 5 -5 0 0 0 -1 I I #
ptlist-eye-attrib $-1 $-1 $-1 $236 #
vertex $-1 $500 $517 #
straight-curve $-1 -5 -5 0 0 0 -1 I I #
model_id-kcp-attrib $-1 $518 $-1 $237 1 990560832 50 -1120796671 11 #
plane-surface $-1 0 -5 0 0 1 0 0 0 1 forward_v I I I I #
coedge $-1 $519 $240 $343 $481 forward $140 $-1 #
coedge $-1 $241 $519 $520 $521 forward $140 $-1 #
coedge $-1 $494 $349 $241 $387 reversed $473 $-1 #
edge $522 $523 -0.78539816339744828 $352 0.78539816339744828 $241 $524 forward 7 unknown #
coedge $-1 $525 $526 $527 $528 forward $242 $-1 #
model_id-kcp-attrib $-1 $529 $-1 $243 1 990560832 50 -1120796671 16 #
face $530 $531 $532 $9 $-1 $533 reversed single #
plane-surface $-1 0 0 5 0 0 1 1 0 0 forward_v I I I I #
straight-curve $-1 -10 5 1.25 0 0 -1 F -19.25 F 19.25 #
point $-1 -10 5 -2.5 #
convexity-sys-attrib $-1 $534 $252 $148 #
point $-1 -10 5 5 #
fmesh-eye-attrib $-1 $-1 $255 $149 #
model_id-kcp-attrib $-1 $-1 $-1 $258 1 990560832 60 -1120141310 7 #
plane-surface $-1 15 0 0 -1 0 0 0 0 1 forward_v I I I I #
coedge $-1 $263 $261 $265 $403 reversed $154 $-1 #
edge $-1 $276 -5 $405 5 $275 $535 forward 7 unknown #
vertex $-1 $403 $536 #
straight-curve $-1 -15 -15 0 0 0 -1 I I #
edge $-1 $401 -15 $405 15 $399 $537 forward 7 unknown #
straight-curve $-1 0 -15 -5 -1 0 0 I I #
vertex $-1 $268 $538 #
straight-curve $-1 0 15 -5 1 0 0 I I #
point $-1 15 15 -5 #
point $-1 15 -15 -5 #
straight-curve $-1 -15 0 5 0 -1 0 I I #
point $-1 -15 15 5 #
point $-1 -15 -15 5 #
straight-curve $-1 15 -15 0 0 0 -1 I I #
straight-curve $-1 15 15 0 0 0 -1 I I #
face $-1 $539 $540 $23 $-1 $541 forward single #
loop $-1 $-1 $542 $285 #
cone-surface $-1 -5 -5 -2.5 0 0 1 -3.5355339059327373 -3.5355339059327373 0 1 I I 0 1 5 forward I I I I #
coedge $-1 $543 $544 $545 $546 forward $286 $-1 #
coedge $-1 $288 $302 $289 $420 forward $173 $-1 #
coedge $-1 $290 $289 $547 $548 reversed $101 $-1 #
edge $-1 $549 0 $421 5 $418 $550 forward 7 unknown #
vertex $-1 $420 $551 #
straight-curve $-1 -5 0 2.5 0 -1 0 I I #
coedge $-1 $547 $297 $293 $424 forward $429 $-1 #
edge $-1 $300 -5 $425 5 $293 $552 forward 7 unknown #
vertex $-1 $424 $553 #
straight-curve $-1 -5 5 -2.5 0 0 1 I I #
point $-1 -5 5 2.5 #
coedge $-1 $297 $547 $302 $432 forward $429 $-1 #
loop $-1 $-1 $428 $435 #
straight-curve $-1 5 0 -2.5 0 1 0 I I #
point $-1 5 5 -2.5 #
edge $-1 $549 -5 $304 5 $302 $554 forward 7 unknown #
point $-1 5 -5 -2.5 #
straight-curve $-1 0 -5 2.5 1 0 0 I I #
face $-1 $-1 $555 $23 $-1 $556 reversed single #
loop $-1 $185 $545 $307 #
plane-surface $-1 2.2204460492503131e-016 0 2.4999999999999996 0 0 1 1 0 0 forward_v I I I I #
face $-1 $462 $557 $25 $-1 $558 forward single #
loop $-1 $-1 $559 $310 #
cone-surface $-1 -5 -5 2.5 0 0 1 -3.5355339059327373 -3.5355339059327373 0 1 I I 0 1 5 forward I I I I #
coedge $-1 $560 $561 $562 $563 forward $311 $-1 #
coedge $-1 $564 $313 $561 $565 reversed $190 $-1 #
coedge $-1 $313 $564 $314 $447 forward $190 $-1 #
coedge $-1 $316 $562 $313 $445 reversed $202 $-1 #
edge $-1 $448 -0.78539816339744828 $566 0.78539816339744828 $313 $567 forward 7 unknown #
coedge $-1 $315 $314 $568 $569 reversed $109 $-1 #
edge $-1 $570 0 $448 2.5 $443 $571 forward 7 unknown #
vertex $-1 $447 $572 #
straight-curve $-1 10 0 5 0 -1 0 I I #
coedge $-1 $568 $322 $318 $451 forward $456 $-1 #
edge $573 $325 -0.78539816339744828 $452 0.78539816339744828 $318 $574 forward 7 unknown #
vertex $-1 $451 $575 #
straight-curve $-1 10 5 2.5 0 0 1 I I #
point $-1 10 5 5 #
coedge $-1 $322 $576 $327 $461 forward $456 $-1 #
loop $-1 $-1 $455 $469 #
convexity-sys-attrib $-1 $-1 $-1 $323 #
straight-curve $-1 0 10 2.5 1 0 0 I I #
point $-1 5 10 2.5 #
coedge $-1 $328 $327 $577 $578 forward $329 $-1 #
edge $579 $580 -0.78539816339744828 $330 0.78539816339744828 $327 $581 forward 7 unknown #
face $-1 $334 $329 $25 $-1 $582 forward single #
point $-1 -5 10 2.5 #
coedge $-1 $562 $332 $559 $583 reversed $202 $-1 #
coedge $-1 $577 $584 $332 $466 forward $557 $-1 #
edge $-1 $585 -5 $467 5 $465 $586 forward 7 unknown #
vertex $-1 $578 $587 #
ellipse-curve $-1 -5 5 5 0 0 -1 -3.5355339059327373 3.5355339059327373 0 1 I I #
face $-1 $-1 $456 $25 $-1 $588 reversed single #
plane-surface $-1 2.2204460492503131e-016 2.2204460492503131e-016 5 0 0 1 1 0 0 forward_v I I I I #
model_id-kcp-attrib $-1 $-1 $-1 $338 1 990560832 50 -1120796671 9 #
face $589 $237 $513 $9 $-1 $590 forward single #
loop $-1 $-1 $349 $338 #
cone-surface $-1 5 -5 1.25 0 0 -1 3.5355339059327373 -3.5355339059327373 0 1 I I 0 -1 5 forward I I I I #
coedge $-1 $492 $520 $341 $478 reversed $339 $-1 #
coedge $-1 $591 $341 $519 $592 reversed $208 $-1 #
coedge $-1 $341 $591 $491 $593 reversed $208 $-1 #
edge $-1 $594 -3.75 $595 3.75 $475 $596 forward 7 unknown #
coedge $-1 $343 $342 $591 $597 reversed $118 $-1 #
edge $598 $346 -5 $599 5 $342 $600 forward 7 unknown #
edge $601 $347 -5 $602 5 $384 $603 forward 7 unknown #
attrib_edge_convexity-kcp-attrib $-1 $604 $-1 $344 1 #
ellipse-curve $-1 -5 5 5 0 0 -1 -3.5355339059327373 3.5355339059327373 0 1 I I #
ellipse-curve $-1 -5 5 -2.5 0 0 1 -3.5355339059327373 3.5355339059327373 0 1 I I #
point $-1 -5 10 -2.5 #
point $-1 -5 10 5 #
straight-curve $-1 5 -10 1.25 0 0 1 F -19.25 F 19.25 #
convexity-sys-attrib $-1 $605 $351 $215 #
point $-1 5 -10 5 #
point $-1 5 -10 -2.5 #
coedge $-1 $360 $357 $477 $593 forward $52 $-1 #
coedge $-1 $606 $475 $357 $493 forward $339 $-1 #
edge $607 $594 -5 $495 5 $492 $608 forward 7 unknown #
coedge $-1 $358 $386 $606 $609 forward $473 $-1 #
vertex $-1 $359 $610 #
ellipse-curve $-1 5 -5 -2.5 0 0 1 3.5355339059327373 -3.5355339059327373 0 1 I I #
coedge $-1 $362 $361 $611 $612 reversed $363 $-1 #
face $613 $372 $363 $9 $-1 $614 reversed single #
coedge $-1 $374 $611 $366 $500 forward $513 $-1 #
edge $615 $502 -5 $380 5 $366 $616 forward 7 unknown #
ptlist-eye-attrib $-1 $-1 $-1 $367 #
vertex $-1 $612 $617 #
straight-curve $-1 -5 5 0 0 0 -1 I I #
model_id-kcp-attrib $-1 $618 $-1 $368 1 990560832 50 -1120796671 12 #
plane-surface $-1 -5 0 0 1 0 0 0 0 -1 forward_v I I I I #
coedge $-1 $611 $374 $370 $507 forward $513 $-1 #
edge $619 $377 -5 $509 5 $370 $620 forward 7 unknown #
ptlist-eye-attrib $-1 $-1 $-1 $371 #
vertex $-1 $507 $621 #
straight-curve $-1 5 5 0 0 0 -1 I I #
model_id-kcp-attrib $-1 $622 $-1 $372 1 990560832 50 -1120796671 14 #
plane-surface $-1 5 0 0 -1 0 0 0 0 1 forward_v I I I I #
loop $-1 $-1 $506 $472 #
ptlist-eye-attrib $-1 $-1 $-1 $375 #
straight-curve $-1 0 -5 2.5 1 0 0 I I #
point $-1 5 -5 2.5 #
point $-1 -5 -5 2.5 #
fmesh-eye-attrib $-1 $-1 $382 $237 #
coedge $-1 $385 $384 $476 $592 forward $140 $-1 #
coedge $-1 $475 $606 $385 $521 reversed $339 $-1 #
edge $623 $595 -5 $523 5 $385 $624 forward 7 unknown #
attrib_edge_convexity-kcp-attrib $-1 $625 $-1 $387 1 #
vertex $-1 $387 $626 #
ellipse-curve $-1 5 -5 5 0 0 -1 3.5355339059327373 -3.5355339059327373 0 1 I I #
coedge $-1 $627 $388 $628 $629 forward $242 $-1 #
coedge $-1 $388 $627 $630 $631 forward $242 $-1 #
coedge $-1 $632 $633 $388 $528 reversed $634 $-1 #
edge $635 $636 -15 $637 15 $527 $638 forward 7 unknown #
fmesh-eye-attrib $-1 $-1 $389 $243 #
model_id-kcp-attrib $-1 $639 $-1 $390 1 990560832 50 -1120796671 17 #
face $640 $641 $642 $9 $-1 $643 reversed single #
loop $-1 $-1 $644 $390 #
plane-surface $-1 0 0 -5 0 0 1 1 0 0 forward_v I I I I #
ptlist-eye-attrib $-1 $-1 $394 $148 #
straight-curve $-1 -15 15 0 0 0 -1 I I #
point $-1 -15 -15 -5 #
straight-curve $-1 -15 0 -5 0 1 0 I I #
point $-1 -15 15 -5 #
face $-1 $645 $646 $23 $-1 $647 forward single #
loop $-1 $-1 $648 $414 #
plane-surface $-1 -10 -5 -2.5 -1 0 0 0 0 1 forward_v I I I I #
coedge $-1 $649 $650 $651 $652 forward $415 $-1 #
coedge $-1 $653 $417 $650 $654 reversed $286 $-1 #
coedge $-1 $417 $653 $655 $656 forward $286 $-1 #
coedge $-1 $657 $651 $417 $546 reversed $436 $-1 #
edge $-1 $658 -5 $659 5 $417 $660 forward 7 unknown #
coedge $-1 $428 $423 $419 $548 forward $429 $-1 #
edge $-1 $425 -5 $549 5 $419 $661 forward 7 unknown #
vertex $-1 $432 $662 #
straight-curve $-1 -5 -5 -2.5 0 0 1 I I #
point $-1 -5 -5 2.5 #
straight-curve $-1 0 5 -2.5 -1 0 0 I I #
point $-1 -5 5 -2.5 #
straight-curve $-1 0 -5 -2.5 1 0 0 I I #
loop $-1 $429 $663 $435 #
plane-surface $-1 2.2204460492503131e-016 0 -2.5000000000000004 0 0 1 1 0 0 forward_v I I I I #
loop $-1 $-1 $465 $438 #
plane-surface $-1 -10 -5 2.5 -1 0 0 0 0 1 forward_v I I I I #
coedge $-1 $664 $665 $464 $583 forward $439 $-1 #
coedge $-1 $666 $441 $665 $667 reversed $311 $-1 #
coedge $-1 $441 $666 $442 $565 forward $311 $-1 #
coedge $-1 $444 $464 $441 $563 reversed $202 $-1 #
edge $-1 $566 -5 $668 5 $441 $669 forward 7 unknown #
coedge $-1 $443 $442 $670 $671 reversed $190 $-1 #
edge $-1 $672 0 $566 2.5 $561 $673 forward 7 unknown #
vertex $-1 $565 $674 #
ellipse-curve $-1 5 -5 5 0 0 -1 3.5355339059327373 -3.5355339059327373 0 1 I I #
coedge $-1 $670 $450 $446 $569 forward $456 $-1 #
edge $675 $452 -5 $570 5 $446 $676 forward 7 unknown #
vertex $-1 $569 $677 #
straight-curve $-1 10 -5 2.5 0 0 1 I I #
point $-1 10 -5 5 #
convexity-sys-attrib $-1 $-1 $-1 $451 #
ellipse-curve $-1 5 5 2.5 0 0 -1 3.5355339059327373 3.5355339059327373 0 1 I I #
point $-1 10 5 2.5 #
coedge $-1 $455 $678 $679 $680 forward $456 $-1 #
coedge $-1 $679 $465 $460 $578 reversed $557 $-1 #
edge $-1 $580 0 $467 2.5 $460 $681 forward 7 unknown #
convexity-sys-attrib $-1 $-1 $-1 $461 #
vertex $-1 $461 $682 #
ellipse-curve $-1 -5 5 2.5 0 0 -1 -3.5355339059327373 3.5355339059327373 0 1 I I #
cone-surface $-1 -5 5 2.5 0 0 1 -3.5355339059327373 3.5355339059327373 0 1 I I 0 1 5 forward I I I I #
edge $-1 $668 -0.78539816339744828 $585 0.78539816339744828 $559 $683 forward 7 unknown #
coedge $-1 $465 $679 $664 $684 forward $557 $-1 #
vertex $-1 $684 $685 #
straight-curve $-1 -10 0 5 0 1 0 I I #
point $-1 -10 5 5 #
plane-surface $-1 2.2204460492503131e-016 2.2204460492503131e-016 2.5 0 0 1 1 0 0 forward_v I I I I #
model_id-kcp-attrib $-1 $686 $-1 $472 1 990560832 50 -1120796671 10 #
plane-surface $-1 0 0 2.5 0 0 1 1 0 0 forward_v I I I I #
coedge $-1 $477 $476 $479 $597 forward $208 $-1 #
edge $687 $602 -0.78539816339744828 $595 0.78539816339744828 $519 $688 forward 7 unknown #
edge $-1 $594 -0.78539816339744828 $599 0.78539816339744828 $491 $689 forward 7 unknown #
vertex $-1 $493 $690 #
vertex $-1 $521 $691 #
straight-curve $-1 10 5 1.25 0 0 1 F -19.25 F 19.25 #
edge $-1 $602 -3.75 $599 3.75 $479 $692 forward 7 unknown #
ptlist-eye-attrib $-1 $-1 $-1 $480 #
vertex $-1 $593 $693 #
straight-curve $-1 0 10 -2.5 1 0 0 I I #
attrib_edge_convexity-kcp-attrib $-1 $694 $-1 $481 1 #
vertex $-1 $592 $695 #
straight-curve $-1 0 10 5 1 0 0 I I #
convexity-sys-attrib $-1 $-1 $482 $344 #
ptlist-eye-attrib $-1 $-1 $488 $215 #
coedge $-1 $520 $492 $494 $609 reversed $339 $-1 #
ptlist-eye-attrib $-1 $-1 $-1 $493 #
straight-curve $-1 10 0 -2.5 0 -1 0 I I #
edge $-1 $523 -3.75 $495 3.75 $606 $696 forward 7 unknown #
point $-1 10 -5 -2.5 #
coedge $-1 $499 $506 $497 $612 forward $513 $-1 #
edge $697 $509 -5 $502 5 $497 $698 forward 7 unknown #
model_id-kcp-attrib $-1 $699 $-1 $498 1 990560832 50 -1120796671 13 #
plane-surface $-1 0 5 0 0 -1 0 0 0 -1 forward_v I I I I #
ptlist-eye-attrib $-1 $-1 $-1 $500 #
straight-curve $-1 -5 0 2.5 0 -1 0 I I #
point $-1 -5 5 2.5 #
fmesh-eye-attrib $-1 $-1 $504 $368 #
ptlist-eye-attrib $-1 $-1 $-1 $507 #
straight-curve $-1 5 0 2.5 0 1 0 I I #
point $-1 5 5 2.5 #
fmesh-eye-attrib $-1 $-1 $511 $372 #
attrib_edge_convexity-kcp-attrib $-1 $700 $-1 $521 1 #
straight-curve $-1 10 0 5 0 -1 0 I I #
convexity-sys-attrib $-1 $-1 $522 $387 #
point $-1 10 -5 5 #
coedge $-1 $526 $525 $701 $702 forward $242 $-1 #
coedge $-1 $703 $704 $525 $629 reversed $705 $-1 #
edge $706 $637 -15 $707 15 $628 $708 forward 7 unknown #
coedge $-1 $709 $710 $526 $631 reversed $642 $-1 #
edge $711 $712 -15 $636 15 $630 $713 forward 7 unknown #
coedge $-1 $714 $527 $710 $715 forward $634 $-1 #
coedge $-1 $527 $714 $703 $716 reversed $634 $-1 #
loop $-1 $-1 $632 $717 #
attrib_edge_convexity-kcp-attrib $-1 $718 $-1 $528 1 #
vertex $-1 $528 $719 #
vertex $-1 $528 $720 #
straight-curve $-1 15 0 5 0 1 0 I I #
fmesh-eye-attrib $-1 $-1 $530 $390 #
model_id-kcp-attrib $-1 $721 $-1 $531 1 990560832 50 -1120796671 18 #
face $722 $723 $724 $9 $-1 $725 reversed single #
loop $-1 $-1 $709 $531 #
plane-surface $-1 0 -15 0 0 1 0 0 0 1 forward_v I I I I #
coedge $-1 $726 $727 $714 $728 forward $532 $-1 #
face $-1 $729 $730 $23 $-1 $731 forward single #
loop $-1 $-1 $732 $539 #
cone-surface $-1 -5 5 -2.5 0 0 1 -3.5355339059327373 3.5355339059327373 0 1 I I 0 1 5 forward I I I I #
coedge $-1 $733 $734 $735 $736 forward $540 $-1 #
coedge $-1 $737 $542 $734 $738 reversed $415 $-1 #
coedge $-1 $542 $737 $543 $654 forward $415 $-1 #
coedge $-1 $545 $735 $542 $652 reversed $436 $-1 #
edge $-1 $659 -0.78539816339744828 $739 0.78539816339744828 $542 $740 forward 7 unknown #
coedge $-1 $544 $543 $741 $742 reversed $286 $-1 #
edge $-1 $743 0 $659 5 $650 $744 forward 7 unknown #
coedge $-1 $745 $746 $544 $656 reversed $747 $-1 #
edge $-1 $748 0 $658 5 $544 $749 forward 7 unknown #
coedge $-1 $750 $545 $746 $751 reversed $436 $-1 #
vertex $-1 $656 $752 #
vertex $-1 $654 $753 #
straight-curve $-1 0 -10 2.5 -1 0 0 I I #
straight-curve $-1 -5 0 -2.5 0 -1 0 I I #
point $-1 -5 -5 -2.5 #
coedge $-1 $741 $754 $745 $755 forward $555 $-1 #
coedge $-1 $756 $559 $584 $684 reversed $439 $-1 #
coedge $-1 $559 $756 $560 $667 forward $439 $-1 #
coedge $-1 $561 $560 $757 $758 reversed $311 $-1 #
edge $-1 $759 0 $668 2.5 $665 $760 forward 7 unknown #
vertex $-1 $667 $761 #
straight-curve $-1 0 -10 5 -1 0 0 I I #
coedge $-1 $757 $568 $564 $671 forward $456 $-1 #
edge $762 $570 -0.78539816339744828 $672 0.78539816339744828 $564 $763 forward 7 unknown #
vertex $-1 $671 $764 #
straight-curve $-1 5 -10 2.5 0 0 1 I I #
point $-1 5 -10 5 #
convexity-sys-attrib $-1 $-1 $-1 $569 #
straight-curve $-1 10 0 2.5 0 -1 0 I I #
point $-1 10 -5 2.5 #
coedge $-1 $576 $757 $756 $765 forward $456 $-1 #
coedge $-1 $584 $577 $576 $680 reversed $557 $-1 #
edge $766 $767 -5 $580 5 $679 $768 forward 7 unknown #
straight-curve $-1 -10 5 2.5 0 0 1 I I #
point $-1 -10 5 2.5 #
ellipse-curve $-1 -5 -5 5 0 0 -1 -3.5355339059327373 -3.5355339059327373 0 1 I I #
edge $-1 $767 0 $585 2.5 $584 $769 forward 7 unknown #
point $-1 -10 -5 5 #
fmesh-eye-attrib $-1 $-1 $589 $472 #
attrib_edge_convexity-kcp-attrib $-1 $770 $-1 $592 1 #
ellipse-curve $-1 5 5 5 0 0 -1 3.5355339059327373 3.5355339059327373 0 1 I I #
ellipse-curve $-1 5 5 -2.5 0 0 1 3.5355339059327373 3.5355339059327373 0 1 I I #
point $-1 10 5 -2.5 #
point $-1 10 5 5 #
straight-curve $-1 5 10 1.25 0 0 -1 F -19.25 F 19.25 #
point $-1 5 10 -2.5 #
convexity-sys-attrib $-1 $771 $601 $481 #
point $-1 5 10 5 #
straight-curve $-1 10 -5 1.25 0 0 -1 F -19.25 F 19.25 #
ptlist-eye-attrib $-1 $-1 $-1 $612 #
straight-curve $-1 0 5 2.5 -1 0 0 I I #
fmesh-eye-attrib $-1 $-1 $613 $498 #
convexity-sys-attrib $-1 $772 $623 $521 #
coedge $-1 $773 $774 $627 $702 reversed $724 $-1 #
edge $775 $707 -15 $712 15 $701 $776 forward 7 unknown #
coedge $-1 $777 $628 $633 $716 forward $705 $-1 #
coedge $-1 $628 $777 $773 $778 reversed $705 $-1 #
loop $-1 $-1 $703 $723 #
attrib_edge_convexity-kcp-attrib $-1 $779 $-1 $629 1 #
vertex $-1 $629 $780 #
straight-curve $-1 0 15 5 -1 0 0 I I #
coedge $-1 $781 $630 $774 $782 forward $642 $-1 #
coedge $-1 $630 $781 $632 $715 reversed $642 $-1 #
attrib_edge_convexity-kcp-attrib $-1 $783 $-1 $631 1 #
vertex $-1 $702 $784 #
straight-curve $-1 0 -15 5 1 0 0 I I #
coedge $-1 $633 $632 $644 $728 reversed $634 $-1 #
edge $785 $636 -5 $786 5 $632 $787 forward 7 unknown #
edge $788 $637 -5 $789 5 $633 $790 forward 7 unknown #
face $791 $-1 $634 $9 $-1 $792 reversed single #
convexity-sys-attrib $-1 $793 $635 $528 #
point $-1 15 -15 5 #
point $-1 15 15 5 #
fmesh-eye-attrib $-1 $-1 $640 $531 #
model_id-kcp-attrib $-1 $794 $-1 $641 1 990560832 50 -1120796671 19 #
face $795 $717 $705 $9 $-1 $796 reversed single #
loop $-1 $-1 $773 $641 #
plane-surface $-1 -15 0 0 1 0 0 0 0 -1 forward_v I I I I #
coedge $-1 $797 $644 $781 $798 forward $532 $-1 #
coedge $-1 $644 $797 $777 $799 forward $532 $-1 #
edge $800 $789 -15 $786 15 $714 $801 forward 7 unknown #
face $-1 $802 $803 $23 $-1 $804 forward single #
loop $-1 $-1 $805 $645 #
plane-surface $-1 -5 10 -2.5 0 1 0 0 0 1 forward_v I I I I #
coedge $-1 $806 $807 $808 $809 forward $646 $-1 #
coedge $-1 $810 $648 $807 $811 reversed $540 $-1 #
coedge $-1 $648 $810 $649 $738 forward $540 $-1 #
coedge $-1 $651 $808 $648 $736 reversed $436 $-1 #
edge $-1 $739 -5 $812 5 $648 $813 forward 7 unknown #
coedge $-1 $650 $649 $814 $815 reversed $415 $-1 #
edge $-1 $816 0 $739 5 $734 $817 forward 7 unknown #
vertex $-1 $738 $818 #
ellipse-curve $-1 -5 -5 2.5 0 0 -1 -3.5355339059327373 -3.5355339059327373 0 1 I I #
coedge $-1 $814 $663 $653 $742 forward $555 $-1 #
edge $819 $748 -5 $743 5 $653 $820 forward 7 unknown #
vertex $-1 $742 $821 #
straight-curve $-1 -5 -10 -2.5 0 0 1 I I #
coedge $-1 $822 $655 $663 $755 reversed $747 $-1 #
coedge $-1 $655 $822 $657 $751 forward $747 $-1 #
loop $-1 $-1 $746 $823 #
vertex $-1 $755 $824 #
straight-curve $-1 5 -10 -2.5 0 0 1 I I #
coedge $-1 $825 $657 $826 $827 reversed $436 $-1 #
edge $-1 $828 -0.78539816339744828 $658 0.78539816339744828 $746 $829 forward 7 unknown #
point $-1 5 -10 2.5 #
point $-1 -5 -10 2.5 #
coedge $-1 $663 $830 $831 $832 forward $555 $-1 #
edge $833 $834 -0.78539816339744828 $748 0.78539816339744828 $745 $835 forward 7 unknown #
coedge $-1 $665 $664 $678 $765 reversed $439 $-1 #
coedge $-1 $678 $670 $666 $758 forward $456 $-1 #
edge $836 $672 -5 $759 5 $666 $837 forward 7 unknown #
vertex $-1 $758 $838 #
straight-curve $-1 -5 -10 2.5 0 0 1 I I #
point $-1 -5 -10 5 #
convexity-sys-attrib $-1 $-1 $-1 $671 #
ellipse-curve $-1 5 -5 2.5 0 0 -1 3.5355339059327373 -3.5355339059327373 0 1 I I #
point $-1 5 -10 2.5 #
edge $839 $759 -0.78539816339744828 $767 0.78539816339744828 $756 $840 forward 7 unknown #
convexity-sys-attrib $-1 $-1 $-1 $680 #
vertex $-1 $765 $841 #
straight-curve $-1 -10 0 2.5 0 1 0 I I #
straight-curve $-1 -10 -5 2.5 0 0 1 I I #
convexity-sys-attrib $-1 $-1 $687 $592 #
ptlist-eye-attrib $-1 $-1 $694 $481 #
ptlist-eye-attrib $-1 $-1 $700 $521 #
coedge $-1 $842 $701 $704 $778 forward $724 $-1 #
coedge $-1 $701 $842 $709 $782 reversed $724 $-1 #
attrib_edge_convexity-kcp-attrib $-1 $843 $-1 $702 1 #
straight-curve $-1 -15 0 5 0 -1 0 I I #
coedge $-1 $704 $703 $727 $799 reversed $705 $-1 #
edge $844 $707 -5 $845 5 $704 $846 forward 7 unknown #
convexity-sys-attrib $-1 $847 $706 $629 #
point $-1 -15 15 5 #
coedge $-1 $710 $709 $726 $798 reversed $642 $-1 #
edge $848 $712 -5 $849 5 $774 $850 forward 7 unknown #
convexity-sys-attrib $-1 $851 $711 $631 #
point $-1 -15 -15 5 #
attrib_edge_convexity-kcp-attrib $-1 $852 $-1 $715 1 #
vertex $-1 $715 $853 #
straight-curve $-1 15 -15 0 0 0 -1 I I #
ptlist-eye-attrib $-1 $-1 $-1 $716 #
vertex $-1 $728 $854 #
straight-curve $-1 15 15 0 0 0 -1 I I #
model_id-kcp-attrib $-1 $855 $-1 $717 1 990560832 50 -1120796671 21 #
plane-surface $-1 15 0 0 -1 0 0 0 0 1 forward_v I I I I #
ptlist-eye-attrib $-1 $-1 $718 $528 #
fmesh-eye-attrib $-1 $-1 $722 $641 #
model_id-kcp-attrib $-1 $856 $-1 $723 1 990560832 50 -1120796671 20 #
plane-surface $-1 0 15 0 0 -1 0 0 0 -1 forward_v I I I I #
coedge $-1 $727 $726 $842 $857 forward $532 $-1 #
edge $858 $786 -15 $849 15 $781 $859 forward 7 unknown #
edge $860 $845 -15 $789 15 $777 $861 forward 7 unknown #
ptlist-eye-attrib $-1 $-1 $-1 $728 #
straight-curve $-1 15 0 -5 0 -1 0 I I #
face $-1 $823 $862 $23 $-1 $863 forward single #
loop $-1 $-1 $864 $729 #
cone-surface $-1 5 5 -2.5 0 0 1 3.5355339059327373 3.5355339059327373 0 1 I I 0 1 5 forward I I I I #
coedge $-1 $865 $866 $867 $868 forward $730 $-1 #
coedge $-1 $869 $732 $866 $870 reversed $646 $-1 #
coedge $-1 $732 $869 $733 $811 forward $646 $-1 #
coedge $-1 $735 $867 $732 $809 reversed $436 $-1 #
edge $-1 $812 -0.78539816339744828 $871 0.78539816339744828 $732 $872 forward 7 unknown #
coedge $-1 $734 $733 $873 $874 reversed $540 $-1 #
edge $-1 $875 0 $812 5 $807 $876 forward 7 unknown #
vertex $-1 $811 $877 #
straight-curve $-1 -10 0 2.5 0 1 0 I I #
coedge $-1 $873 $741 $737 $815 forward $555 $-1 #
edge $878 $743 -0.78539816339744828 $816 0.78539816339744828 $737 $879 forward 7 unknown #
vertex $-1 $815 $880 #
straight-curve $-1 -10 -5 -2.5 0 0 1 I I #
point $-1 -10 -5 2.5 #
convexity-sys-attrib $-1 $-1 $-1 $742 #
straight-curve $-1 0 -10 -2.5 -1 0 0 I I #
point $-1 -5 -10 -2.5 #
coedge $-1 $746 $745 $881 $882 forward $747 $-1 #
face $-1 $307 $747 $23 $-1 $883 forward single #
point $-1 5 -10 -2.5 #
coedge $-1 $867 $750 $864 $884 reversed $436 $-1 #
coedge $-1 $881 $885 $750 $827 forward $862 $-1 #
edge $-1 $886 -5 $828 5 $826 $887 forward 7 unknown #
vertex $-1 $882 $888 #
ellipse-curve $-1 5 -5 2.5 0 0 -1 3.5355339059327373 -3.5355339059327373 0 1 I I #
coedge $-1 $754 $889 $890 $891 forward $555 $-1 #
coedge $-1 $885 $881 $754 $832 reversed $862 $-1 #
edge $892 $893 -5 $834 5 $831 $894 forward 7 unknown #
convexity-sys-attrib $-1 $-1 $-1 $755 #
vertex $-1 $755 $895 #
ellipse-curve $-1 5 -5 -2.5 0 0 -1 3.5355339059327373 -3.5355339059327373 0 1 I I #
convexity-sys-attrib $-1 $-1 $-1 $758 #
straight-curve $-1 0 -10 2.5 -1 0 0 I I #
point $-1 -5 -10 2.5 #
convexity-sys-attrib $-1 $-1 $-1 $765 #
ellipse-curve $-1 -5 -5 2.5 0 0 -1 -3.5355339059327373 -3.5355339059327373 0 1 I I #
point $-1 -10 -5 2.5 #
coedge $-1 $774 $773 $797 $857 reversed $724 $-1 #
convexity-sys-attrib $-1 $896 $775 $702 #
attrib_edge_convexity-kcp-attrib $-1 $897 $-1 $778 1 #
vertex $-1 $799 $898 #
straight-curve $-1 -15 15 0 0 0 -1 I I #
ptlist-eye-attrib $-1 $-1 $779 $629 #
attrib_edge_convexity-kcp-attrib $-1 $899 $-1 $782 1 #
vertex $-1 $857 $900 #
straight-curve $-1 -15 -15 0 0 0 -1 I I #
ptlist-eye-attrib $-1 $-1 $783 $631 #
convexity-sys-attrib $-1 $901 $785 $715 #
point $-1 15 -15 -5 #
point $-1 15 15 -5 #
fmesh-eye-attrib $-1 $-1 $791 $717 #
fmesh-eye-attrib $-1 $-1 $795 $723 #
edge $902 $849 -15 $845 15 $842 $903 forward 7 unknown #
attrib_edge_convexity-kcp-attrib $-1 $904 $-1 $798 1 #
straight-curve $-1 0 -15 -5 -1 0 0 I I #
ptlist-eye-attrib $-1 $-1 $-1 $799 #
straight-curve $-1 0 15 -5 1 0 0 I I #
loop $-1 $-1 $826 $802 #
plane-surface $-1 10 5 -2.5 1 0 0 0 0 -1 forward_v I I I I #
coedge $-1 $905 $906 $825 $884 forward $803 $-1 #
coedge $-1 $907 $805 $906 $908 reversed $730 $-1 #
coedge $-1 $805 $907 $806 $870 forward $730 $-1 #
coedge $-1 $808 $825 $805 $868 reversed $436 $-1 #
edge $-1 $871 -5 $909 5 $805 $910 forward 7 unknown #
coedge $-1 $807 $806 $911 $912 reversed $646 $-1 #
edge $-1 $913 0 $871 5 $866 $914 forward 7 unknown #
vertex $-1 $870 $915 #
ellipse-curve $-1 -5 5 2.5 0 0 -1 -3.5355339059327373 3.5355339059327373 0 1 I I #
coedge $-1 $911 $814 $810 $874 forward $555 $-1 #
edge $916 $816 -5 $875 5 $810 $917 forward 7 unknown #
vertex $-1 $874 $918 #
straight-curve $-1 -10 5 -2.5 0 0 1 I I #
point $-1 -10 5 2.5 #
convexity-sys-attrib $-1 $-1 $-1 $815 #
ellipse-curve $-1 -5 -5 -2.5 0 0 -1 -3.5355339059327373 -3.5355339059327373 0 1 I I #
point $-1 -10 -5 -2.5 #
coedge $-1 $831 $826 $822 $882 reversed $862 $-1 #
edge $-1 $834 0 $828 5 $822 $919 forward 7 unknown #
cone-surface $-1 5 -5 -2.5 0 0 1 3.5355339059327373 -3.5355339059327373 0 1 I I 0 1 5 forward I I I I #
edge $-1 $909 -0.78539816339744828 $886 0.78539816339744828 $864 $920 forward 7 unknown #
coedge $-1 $826 $831 $905 $921 forward $862 $-1 #
vertex $-1 $921 $922 #
straight-curve $-1 10 0 2.5 0 -1 0 I I #
point $-1 10 -5 2.5 #
coedge $-1 $830 $911 $907 $923 forward $555 $-1 #
coedge $-1 $906 $905 $830 $891 reversed $803 $-1 #
edge $924 $925 -0.78539816339744828 $893 0.78539816339744828 $890 $926 forward 7 unknown #
convexity-sys-attrib $-1 $-1 $-1 $832 #
vertex $-1 $891 $927 #
straight-curve $-1 10 0 -2.5 0 -1 0 I I #
point $-1 10 -5 -2.5 #
ptlist-eye-attrib $-1 $-1 $843 $702 #
convexity-sys-attrib $-1 $928 $844 $778 #
point $-1 -15 15 -5 #
convexity-sys-attrib $-1 $929 $848 $782 #
point $-1 -15 -15 -5 #
ptlist-eye-attrib $-1 $-1 $852 $715 #
attrib_edge_convexity-kcp-attrib $-1 $930 $-1 $857 1 #
straight-curve $-1 -15 0 -5 0 1 0 I I #
convexity-sys-attrib $-1 $931 $858 $798 #
coedge $-1 $890 $864 $885 $921 reversed $803 $-1 #
coedge $-1 $864 $890 $865 $908 forward $803 $-1 #
coedge $-1 $866 $865 $889 $923 reversed $730 $-1 #
edge $-1 $925 0 $909 5 $906 $932 forward 7 unknown #
vertex $-1 $908 $933 #
straight-curve $-1 0 10 2.5 1 0 0 I I #
coedge $-1 $889 $873 $869 $912 forward $555 $-1 #
edge $934 $875 -0.78539816339744828 $913 0.78539816339744828 $869 $935 forward 7 unknown #
vertex $-1 $912 $936 #
straight-curve $-1 -5 10 -2.5 0 0 1 I I #
point $-1 -5 10 2.5 #
convexity-sys-attrib $-1 $-1 $-1 $874 #
straight-curve $-1 -10 0 -2.5 0 1 0 I I #
point $-1 -10 5 -2.5 #
straight-curve $-1 10 -5 -2.5 0 0 1 I I #
ellipse-curve $-1 5 5 2.5 0 0 -1 3.5355339059327373 3.5355339059327373 0 1 I I #
edge $-1 $893 0 $886 5 $885 $937 forward 7 unknown #
point $-1 10 5 2.5 #
edge $938 $913 -5 $925 5 $907 $939 forward 7 unknown #
convexity-sys-attrib $-1 $-1 $-1 $891 #
vertex $-1 $923 $940 #
ellipse-curve $-1 5 5 -2.5 0 0 -1 3.5355339059327373 3.5355339059327373 0 1 I I #
point $-1 10 5 -2.5 #
ptlist-eye-attrib $-1 $-1 $897 $778 #
ptlist-eye-attrib $-1 $-1 $899 $782 #
convexity-sys-attrib $-1 $941 $902 $857 #
ptlist-eye-attrib $-1 $-1 $904 $798 #
straight-curve $-1 5 10 -2.5 0 0 1 I I #
point $-1 5 10 2.5 #
convexity-sys-attrib $-1 $-1 $-1 $912 #
ellipse-curve $-1 -5 5 -2.5 0 0 -1 -3.5355339059327373 3.5355339059327373 0 1 I I #
point $-1 -5 10 -2.5 #
straight-curve $-1 10 5 -2.5 0 0 1 I I #
convexity-sys-attrib $-1 $-1 $-1 $923 #
straight-curve $-1 0 10 -2.5 1 0 0 I I #
point $-1 5 10 -2.5 #
ptlist-eye-attrib $-1 $-1 $930 $857 #
End-of-ACIS-data 