700 0 2 0           
24 FBMach with ACIS - 7.0.3 13 ACIS 7.0.3 NT 24 Tue May 14 09:19:49 2002 
1 9.9999999999999995e-007 1e-010 
body $2 -1 $-1 $3 $-1 $4 #
bdycol-kcp $-1 -1 1 4 $5 $6 $7 $8 #
model_id-kcp-attrib $-1 -1 $-1 $-1 $0 1 1021382388 1021382388 307101697 1 #
lump $-1 -1 $-1 $-1 $9 $0 #
transform $-1 -1 1 0 0 0 1 0 0 0 1 0 0 0 1 rotate no_reflect no_shear #
body $10 -1 $-1 $11 $-1 $12 #
body $13 -1 $-1 $14 $-1 $15 #
body $16 -1 $-1 $17 $-1 $18 #
body $19 -1 $-1 $20 $-1 $21 #
shell $-1 -1 $-1 $-1 $-1 $22 $-1 $3 #
rgb_color-st-attrib $-1 -1 $23 $-1 $5 1 0 0 #
lump $-1 -1 $-1 $-1 $24 $5 #
transform $-1 -1 1 0 0 0 1 0 0 0 1 0 0 0 1 no_rotate no_reflect no_shear #
rgb_color-st-attrib $-1 -1 $25 $-1 $6 0.59999999999999998 0.90000000000000002 1 #
lump $-1 -1 $-1 $-1 $26 $6 #
transform $-1 -1 1 0 0 0 1 0 0 0 1 0 0 0 1 no_rotate no_reflect no_shear #
model_id-kcp-attrib $-1 -1 $-1 $-1 $7 1 1021382388 1021382388 307101698 1 #
lump $-1 -1 $-1 $-1 $27 $7 #
transform $-1 -1 1 0 0 0 1 0 0 0 1 0 0 0 1 no_rotate no_reflect no_shear #
rgb_color-st-attrib $-1 -1 $28 $-1 $8 0.5 1 1 #
lump $-1 -1 $-1 $-1 $29 $8 #
transform $-1 -1 1 0 0 0 1 0 0 0 1 0 0 0 1 no_rotate no_reflect no_shear #
face $30 -1 $-1 $31 $32 $9 $-1 $33 forward single #
model_id-kcp-attrib $-1 -1 $-1 $10 $5 1 1021382388 1021382388 302448644 1 #
shell $-1 -1 $-1 $-1 $-1 $34 $-1 $11 #
model_id-kcp-attrib $-1 -1 $-1 $13 $6 1 1021382388 1021382388 306642949 1 #
shell $-1 -1 $-1 $-1 $-1 $35 $-1 $14 #
shell $-1 -1 $-1 $-1 $-1 $36 $-1 $17 #
model_id-kcp-attrib $-1 -1 $-1 $19 $8 1 1021382388 1021382388 318242819 1 #
shell $-1 -1 $-1 $-1 $-1 $37 $-1 $20 #
model_id-kcp-attrib $-1 -1 $-1 $-1 $22 1 1021382388 1021382388 307101697 2 #
face $38 -1 $-1 $39 $40 $9 $-1 $41 forward single #
loop $-1 -1 $-1 $-1 $42 $22 #
plane-surface $-1 -1 $-1 -20 -50 0 1 0 0 0 0 -1 forward_v I I I I #
face $-1 -1 $-1 $43 $44 $24 $-1 $45 forward single #
face $-1 -1 $-1 $46 $47 $26 $-1 $48 forward single #
face $49 -1 $-1 $50 $51 $27 $-1 $52 forward single #
face $-1 -1 $-1 $53 $54 $29 $-1 $55 forward single #
model_id-kcp-attrib $-1 -1 $-1 $-1 $31 1 1021382388 1021382388 307101697 3 #
face $56 -1 $-1 $57 $58 $9 $-1 $59 forward single #
loop $-1 -1 $-1 $-1 $60 $31 #
plane-surface $-1 -1 $-1 0 -70 0 0 1 0 0 0 1 forward_v I I I I #
coedge $-1 -1 $-1 $61 $62 $63 $64 reversed $32 $-1 #
face $-1 -1 $-1 $65 $66 $24 $-1 $67 forward single #
loop $-1 -1 $-1 $-1 $68 $34 #
plane-surface $-1 -1 $-1 -30 40 0 -1 0 0 0 0 1 forward_v I I I I #
face $-1 -1 $-1 $69 $70 $26 $-1 $71 forward single #
loop $-1 -1 $-1 $-1 $72 $35 #
plane-surface $-1 -1 $-1 -30 60 20 -1 0 0 0 0 1 forward_v I I I I #
model_id-kcp-attrib $-1 -1 $-1 $-1 $36 1 1021382388 1021382388 307101698 2 #
face $73 -1 $-1 $74 $75 $27 $-1 $76 reversed single #
loop $-1 -1 $-1 $-1 $77 $36 #
plane-surface $-1 -1 $-1 0 0 40 0 0 1 1 0 0 forward_v I I I I #
face $-1 -1 $-1 $78 $79 $29 $-1 $80 forward single #
loop $-1 -1 $-1 $-1 $81 $37 #
plane-surface $-1 -1 $-1 20 -70 -40 0 -1 0 0 0 -1 forward_v I I I I #
model_id-kcp-attrib $-1 -1 $-1 $-1 $39 1 1021382388 1021382388 307101697 4 #
face $82 -1 $-1 $83 $84 $9 $-1 $85 forward single #
loop $-1 -1 $-1 $-1 $86 $39 #
plane-surface $-1 -1 $-1 20 -50 0 -1 0 0 0 0 1 forward_v I I I I #
coedge $-1 -1 $-1 $87 $88 $89 $90 reversed $40 $-1 #
coedge $-1 -1 $-1 $89 $42 $91 $92 reversed $32 $-1 #
coedge $-1 -1 $-1 $42 $89 $93 $94 reversed $32 $-1 #
coedge $-1 -1 $-1 $95 $96 $42 $64 forward $97 $-1 #
edge $-1 -1 $-1 $98 -40 $99 40 $63 $100 forward @7 unknown #
face $-1 -1 $-1 $101 $102 $24 $-1 $103 forward single #
loop $-1 -1 $-1 $-1 $104 $43 #
plane-surface $-1 -1 $-1 -30 80 0 0 1 0 0 0 1 forward_v I I I I #
coedge $-1 -1 $-1 $105 $106 $107 $108 forward $44 $-1 #
face $-1 -1 $-1 $109 $110 $26 $-1 $111 forward single #
loop $-1 -1 $-1 $-1 $112 $46 #
plane-surface $-1 -1 $-1 -30 80 20 0 1 0 0 0 1 forward_v I I I I #
coedge $-1 -1 $-1 $113 $114 $115 $116 forward $47 $-1 #
model_id-kcp-attrib $-1 -1 $-1 $-1 $50 1 1021382388 1021382388 307101698 3 #
face $117 -1 $-1 $118 $119 $27 $-1 $120 reversed single #
loop $-1 -1 $-1 $-1 $121 $50 #
plane-surface $-1 -1 $-1 0 0 -40 0 0 1 1 0 0 forward_v I I I I #
coedge $-1 -1 $-1 $122 $123 $124 $125 forward $51 $-1 #
face $-1 -1 $-1 $126 $127 $29 $-1 $128 forward single #
loop $-1 -1 $-1 $-1 $129 $53 #
plane-surface $-1 -1 $-1 -20 -70 -40 -1 0 0 0 0 1 forward_v I I I I #
coedge $-1 -1 $-1 $130 $131 $132 $133 forward $54 $-1 #
model_id-kcp-attrib $-1 -1 $-1 $-1 $57 1 1021382388 1021382388 307101697 5 #
face $134 -1 $-1 $135 $136 $9 $-1 $137 forward single #
loop $-1 -1 $-1 $138 $139 $57 #
plane-surface $-1 -1 $-1 0 0 40 0 0 1 1 0 0 forward_v I I I I #
coedge $-1 -1 $-1 $140 $141 $142 $143 reversed $58 $-1 #
coedge $-1 -1 $-1 $144 $60 $145 $146 reversed $40 $-1 #
coedge $-1 -1 $-1 $60 $144 $147 $148 reversed $40 $-1 #
coedge $-1 -1 $-1 $62 $61 $60 $90 forward $32 $-1 #
edge $-1 -1 $-1 $149 -40 $150 40 $89 $151 forward @7 unknown #
coedge $-1 -1 $-1 $152 $145 $61 $92 forward $138 $-1 #
edge $153 -1 $-1 $149 -45 $98 -20.825756949558397 $91 $154 forward @7 unknown #
coedge $-1 -1 $-1 $147 $155 $62 $94 forward $156 $-1 #
edge $-1 -1 $-1 $99 20.825756949558397 $150 45 $93 $157 forward @7 unknown #
coedge $-1 -1 $-1 $142 $63 $155 $158 reversed $97 $-1 #
coedge $-1 -1 $-1 $63 $159 $152 $160 reversed $97 $-1 #
loop $-1 -1 $-1 $-1 $142 $161 #
vertex $-1 -1 $-1 $64 $162 #
vertex $-1 -1 $-1 $158 $163 #
straight-curve $-1 -1 $-1 -20 -45.825756949558397 0 0 0 -1 I I #
face $-1 -1 $-1 $164 $165 $24 $-1 $166 forward single #
loop $-1 -1 $-1 $-1 $167 $65 #
plane-surface $-1 -1 $-1 30 80 0 1 0 0 0 0 -1 forward_v I I I I #
coedge $-1 -1 $-1 $168 $169 $170 $171 forward $66 $-1 #
coedge $-1 -1 $-1 $172 $68 $169 $173 reversed $44 $-1 #
coedge $-1 -1 $-1 $68 $172 $174 $175 forward $44 $-1 #
coedge $-1 -1 $-1 $176 $170 $68 $108 reversed $177 $-1 #
edge $-1 -1 $-1 $178 -10 $179 30 $68 $180 forward @7 unknown #
face $-1 -1 $-1 $181 $182 $26 $-1 $183 forward single #
loop $-1 -1 $-1 $-1 $184 $69 #
plane-surface $-1 -1 $-1 30 80 20 1 0 0 0 0 -1 forward_v I I I I #
coedge $-1 -1 $-1 $185 $186 $187 $188 forward $70 $-1 #
coedge $-1 -1 $-1 $189 $72 $186 $190 reversed $47 $-1 #
coedge $-1 -1 $-1 $72 $189 $191 $192 forward $47 $-1 #
coedge $-1 -1 $-1 $193 $187 $72 $116 reversed $194 $-1 #
edge $-1 -1 $-1 $195 10 $196 30 $72 $197 forward @7 unknown #
model_id-kcp-attrib $-1 -1 $-1 $-1 $74 1 1021382388 1021382388 307101698 4 #
face $198 -1 $-1 $199 $200 $27 $-1 $201 reversed single #
loop $-1 -1 $-1 $-1 $202 $74 #
plane-surface $-1 -1 $-1 0 -100 0 0 1 0 0 0 1 forward_v I I I I #
coedge $-1 -1 $-1 $203 $204 $205 $206 forward $75 $-1 #
coedge $-1 -1 $-1 $207 $77 $208 $209 forward $51 $-1 #
coedge $-1 -1 $-1 $77 $207 $210 $211 forward $51 $-1 #
coedge $-1 -1 $-1 $212 $213 $77 $125 reversed $214 $-1 #
edge $-1 -1 $-1 $215 -100 $216 100 $124 $217 forward @7 unknown #
face $-1 -1 $-1 $218 $219 $29 $-1 $220 forward single #
loop $-1 -1 $-1 $-1 $221 $78 #
cone-surface $-1 -1 $-1 0 0 -40 0 0 1 50 0 0 1 I I 0 1 50 forward I I I I #
coedge $-1 -1 $-1 $222 $223 $224 $225 forward $79 $-1 #
coedge $-1 -1 $-1 $226 $81 $223 $227 reversed $54 $-1 #
coedge $-1 -1 $-1 $81 $226 $228 $229 forward $54 $-1 #
coedge $-1 -1 $-1 $230 $224 $81 $133 reversed $231 $-1 #
edge $-1 -1 $-1 $232 -20 $233 20 $81 $234 forward @7 unknown #
model_id-kcp-attrib $-1 -1 $-1 $-1 $83 1 1021382388 1021382388 307101697 6 #
face $235 -1 $-1 $236 $237 $9 $-1 $137 forward single #
loop $-1 -1 $-1 $-1 $238 $83 #
plane-surface $-1 -1 $-1 0 40 30 0 1 0 0 0 1 forward_v I I I I #
loop $-1 -1 $-1 $-1 $239 $57 #
coedge $-1 -1 $-1 $240 $241 $242 $243 forward $84 $-1 #
coedge $-1 -1 $-1 $244 $86 $245 $246 reversed $58 $-1 #
coedge $-1 -1 $-1 $86 $244 $239 $247 reversed $58 $-1 #
coedge $-1 -1 $-1 $248 $95 $86 $143 forward $97 $-1 #
edge $-1 -1 $-1 $249 -40 $250 40 $142 $251 forward @7 unknown #
coedge $-1 -1 $-1 $88 $87 $244 $252 forward $40 $-1 #
coedge $-1 -1 $-1 $91 $239 $87 $146 forward $138 $-1 #
edge $253 -1 $-1 $254 -20 $149 20 $145 $255 forward @7 unknown #
coedge $-1 -1 $-1 $245 $93 $88 $148 forward $156 $-1 #
edge $-1 -1 $-1 $150 -20 $256 20 $147 $257 forward @7 unknown #
vertex $-1 -1 $-1 $146 $258 #
vertex $-1 -1 $-1 $148 $259 #
straight-curve $-1 -1 $-1 -20 -70 0 0 0 -1 I I #
coedge $-1 -1 $-1 $260 $91 $96 $160 forward $138 $-1 #
attrib_edge_convexity-kcp-attrib $-1 -1 $261 $-1 $92 1 #
straight-curve $-1 -1 $-1 -20 -25 40 0 1 0 I I #
coedge $-1 -1 $-1 $93 $245 $95 $158 forward $156 $-1 #
loop $-1 -1 $-1 $262 $245 $263 #
straight-curve $-1 -1 $-1 -20 -25 -40 0 -1 0 I I #
edge $-1 -1 $-1 $249 -1.1592794807274085 $99 4.3008721343172009 $155 $264 forward @7 unknown #
coedge $-1 -1 $-1 $96 $265 $238 $266 forward $97 $-1 #
edge $267 -1 $-1 $98 1.9823131728623848 $268 4.0688878715914054 $152 $269 forward @7 unknown #
face $270 -1 $-1 $263 $97 $9 $-1 $271 reversed single #
point $-1 -1 $-1 -20 -45.825756949558397 40 #
point $-1 -1 $-1 -20 -45.825756949558397 -40 #
face $-1 -1 $-1 $272 $177 $24 $-1 $273 forward single #
loop $-1 -1 $-1 $-1 $274 $101 #
cone-surface $-1 -1 $-1 0 0 0 0 0 1 50 0 0 1 I I 0 -1 50 forward I I I I #
coedge $-1 -1 $-1 $275 $276 $277 $278 forward $102 $-1 #
coedge $-1 -1 $-1 $279 $104 $276 $280 reversed $66 $-1 #
coedge $-1 -1 $-1 $104 $279 $105 $173 forward $66 $-1 #
coedge $-1 -1 $-1 $107 $277 $104 $171 reversed $177 $-1 #
edge $-1 -1 $-1 $179 -30 $281 30 $104 $282 forward @7 unknown #
coedge $-1 -1 $-1 $106 $105 $283 $284 reversed $44 $-1 #
edge $285 -1 $-1 $286 0 $179 20 $169 $287 forward @7 unknown #
coedge $-1 -1 $-1 $288 $274 $106 $175 reversed $165 $-1 #
edge $-1 -1 $-1 $289 0 $178 20 $106 $290 forward @7 unknown #
coedge $-1 -1 $-1 $277 $107 $274 $291 reversed $177 $-1 #
loop $-1 -1 $-1 $-1 $107 $164 #
vertex $-1 -1 $-1 $175 $292 #
vertex $-1 -1 $-1 $173 $293 #
straight-curve $-1 -1 $-1 -30 50 20 0 1 0 I I #
face $-1 -1 $-1 $294 $295 $26 $-1 $296 forward single #
loop $-1 -1 $-1 $-1 $297 $109 #
plane-surface $-1 -1 $-1 30 60 20 0 1 0 0 0 1 forward_v I I I I #
coedge $-1 -1 $-1 $298 $299 $300 $301 forward $110 $-1 #
coedge $-1 -1 $-1 $302 $112 $299 $303 reversed $70 $-1 #
coedge $-1 -1 $-1 $112 $302 $113 $190 forward $70 $-1 #
coedge $-1 -1 $-1 $115 $300 $112 $188 reversed $194 $-1 #
edge $-1 -1 $-1 $196 -30 $304 30 $112 $305 forward @7 unknown #
coedge $-1 -1 $-1 $114 $113 $306 $307 reversed $47 $-1 #
edge $308 -1 $-1 $309 0 $196 20 $186 $310 forward @7 unknown #
coedge $-1 -1 $-1 $311 $312 $114 $192 reversed $313 $-1 #
edge $-1 -1 $-1 $314 0 $195 20 $114 $315 forward @7 unknown #
coedge $-1 -1 $-1 $316 $115 $312 $317 reversed $194 $-1 #
loop $-1 -1 $-1 $-1 $115 $318 #
vertex $-1 -1 $-1 $192 $319 #
vertex $-1 -1 $-1 $190 $320 #
straight-curve $-1 -1 $-1 -30 50 40 0 1 0 I I #
model_id-kcp-attrib $-1 -1 $-1 $-1 $118 1 1021382388 1021382388 307101698 5 #
face $321 -1 $-1 $322 $323 $27 $-1 $324 reversed single #
loop $-1 -1 $-1 $-1 $325 $118 #
plane-surface $-1 -1 $-1 -100 0 0 1 0 0 0 0 -1 forward_v I I I I #
coedge $-1 -1 $-1 $326 $210 $327 $328 forward $119 $-1 #
coedge $-1 -1 $-1 $329 $121 $326 $330 forward $75 $-1 #
coedge $-1 -1 $-1 $121 $329 $331 $332 forward $75 $-1 #
coedge $-1 -1 $-1 $213 $212 $121 $206 reversed $214 $-1 #
edge $-1 -1 $-1 $333 -100 $334 100 $205 $335 forward @7 unknown #
coedge $-1 -1 $-1 $123 $122 $336 $337 forward $51 $-1 #
coedge $-1 -1 $-1 $338 $339 $122 $209 reversed $323 $-1 #
edge $-1 -1 $-1 $216 -100 $340 100 $208 $341 forward @7 unknown #
coedge $-1 -1 $-1 $202 $342 $123 $211 reversed $119 $-1 #
edge $-1 -1 $-1 $343 -100 $215 100 $210 $344 forward @7 unknown #
coedge $-1 -1 $-1 $205 $124 $342 $345 forward $214 $-1 #
coedge $-1 -1 $-1 $124 $205 $338 $346 reversed $214 $-1 #
loop $-1 -1 $-1 $-1 $212 $322 #
vertex $-1 -1 $-1 $125 $347 #
vertex $-1 -1 $-1 $125 $348 #
straight-curve $-1 -1 $-1 100 0 40 0 1 0 I I #
face $-1 -1 $-1 $349 $231 $29 $-1 $350 forward single #
loop $-1 -1 $-1 $-1 $351 $126 #
plane-surface $-1 -1 $-1 20 -45.825756949558397 -40 1 0 0 0 0 -1 forward_v I I I I #
coedge $-1 -1 $-1 $352 $353 $354 $355 forward $127 $-1 #
coedge $-1 -1 $-1 $356 $129 $353 $357 reversed $79 $-1 #
coedge $-1 -1 $-1 $129 $356 $130 $227 forward $79 $-1 #
coedge $-1 -1 $-1 $132 $354 $129 $225 reversed $231 $-1 #
edge $-1 -1 $-1 $233 -45 $358 -20.825756949558397 $129 $359 forward @7 unknown #
coedge $-1 -1 $-1 $131 $130 $360 $361 forward $54 $-1 #
edge $-1 -1 $-1 $362 0 $233 80 $223 $363 forward @7 unknown #
coedge $-1 -1 $-1 $364 $351 $131 $229 reversed $219 $-1 #
edge $-1 -1 $-1 $365 0 $232 80 $131 $366 forward @7 unknown #
coedge $-1 -1 $-1 $354 $132 $351 $367 reversed $231 $-1 #
loop $-1 -1 $-1 $-1 $132 $218 #
vertex $-1 -1 $-1 $229 $368 #
vertex $-1 -1 $-1 $227 $369 #
straight-curve $-1 -1 $-1 0 -70 40 -1 0 0 I I #
model_id-kcp-attrib $-1 -1 $-1 $-1 $135 1 1021382388 1021382388 307101697 7 #
face $370 -1 $-1 $371 $372 $9 $-1 $373 forward single #
loop $-1 -1 $-1 $-1 $374 $135 #
coedge $-1 -1 $-1 $375 $376 $159 $266 reversed $136 $-1 #
coedge $-1 -1 $-1 $145 $377 $141 $247 forward $138 $-1 #
coedge $-1 -1 $-1 $378 $139 $379 $380 forward $84 $-1 #
coedge $-1 -1 $-1 $139 $378 $381 $382 forward $84 $-1 #
coedge $-1 -1 $-1 $383 $384 $139 $243 reversed $385 $-1 #
edge $386 -1 $-1 $387 -100 $388 100 $242 $389 forward @7 unknown #
coedge $-1 -1 $-1 $141 $140 $144 $252 reversed $58 $-1 #
coedge $-1 -1 $-1 $155 $147 $140 $246 forward $156 $-1 #
edge $-1 -1 $-1 $256 -45 $249 -20.825756949558397 $245 $390 forward @7 unknown #
edge $391 -1 $-1 $250 20.825756949558397 $254 45 $239 $392 forward @7 unknown #
coedge $-1 -1 $-1 $393 $142 $377 $394 reversed $97 $-1 #
vertex $-1 -1 $-1 $246 $395 #
vertex $-1 -1 $-1 $394 $396 #
straight-curve $-1 -1 $-1 20 -45.825756949558397 0 0 0 1 I I #
edge $-1 -1 $-1 $254 -40 $256 40 $244 $397 forward @7 unknown #
attrib_edge_convexity-kcp-attrib $-1 -1 $398 $-1 $146 1 #
vertex $-1 -1 $-1 $146 $399 #
straight-curve $-1 -1 $-1 0 -70 40 -1 0 0 I I #
vertex $-1 -1 $-1 $148 $400 #
straight-curve $-1 -1 $-1 0 -70 -40 1 0 0 I I #
point $-1 -1 $-1 -20 -70 40 #
point $-1 -1 $-1 -20 -70 -40 #
coedge $-1 -1 $-1 $401 $152 $376 $402 forward $138 $-1 #
convexity-sys-attrib $-1 -1 $-1 $153 $92 #
loop $-1 -1 $-1 $-1 $403 $263 #
face $404 -1 $-1 $405 $156 $9 $-1 $406 reversed single #
ellipse-curve $-1 -1 $-1 0 0 -40 0 0 1 50 0 0 1 I I #
coedge $-1 -1 $-1 $159 $407 $408 $409 forward $97 $-1 #
edge $-1 -1 $-1 $410 20 $268 40 $159 $411 forward @7 unknown #
attrib_edge_convexity-kcp-attrib $-1 -1 $412 $-1 $160 1 #
vertex $-1 -1 $-1 $160 $413 #
ellipse-curve $-1 -1 $-1 0 0 40 0 0 -1 50 0 0 1 I I #
model_id-kcp-attrib $-1 -1 $-1 $-1 $161 1 1021382388 1021382388 307101697 18 #
cone-surface $-1 -1 $-1 0 0 0 0 0 1 50 0 0 1 I I 0 1 50 forward I I I I #
face $-1 -1 $-1 $-1 $414 $24 $-1 $415 reversed single #
plane-surface $-1 -1 $-1 1.7763568394002505e-015 61.450945873325111 20 0 0 1 1 0 0 forward_v I I I I #
coedge $-1 -1 $-1 $174 $416 $176 $291 forward $165 $-1 #
coedge $-1 -1 $-1 $417 $167 $416 $418 reversed $102 $-1 #
coedge $-1 -1 $-1 $167 $417 $168 $280 forward $102 $-1 #
coedge $-1 -1 $-1 $170 $176 $167 $278 reversed $177 $-1 #
edge $-1 -1 $-1 $281 -30 $419 10 $167 $420 forward @7 unknown #
coedge $-1 -1 $-1 $169 $168 $421 $422 reversed $66 $-1 #
edge $423 -1 $-1 $424 0 $281 20 $276 $425 forward @7 unknown #
vertex $-1 -1 $-1 $280 $426 #
straight-curve $-1 -1 $-1 8.8817841970012523e-016 80 20 1 0 0 I I #
coedge $-1 -1 $-1 $421 $427 $172 $284 forward $414 $-1 #
edge $428 -1 $-1 $289 -10 $286 30 $172 $429 forward @7 unknown #
convexity-sys-attrib $-1 -1 $-1 $-1 $173 #
vertex $-1 -1 $-1 $284 $430 #
straight-curve $-1 -1 $-1 -30 80 0 0 0 1 I I #
coedge $-1 -1 $-1 $416 $174 $427 $431 reversed $165 $-1 #
vertex $-1 -1 $-1 $431 $432 #
straight-curve $-1 -1 $-1 -30 40 0 0 0 1 I I #
edge $-1 -1 $-1 $419 0.92729521800161219 $178 2.2142974355881808 $274 $433 forward @7 unknown #
point $-1 -1 $-1 -30 40 20 #
point $-1 -1 $-1 -30 80 20 #
face $-1 -1 $-1 $434 $435 $26 $-1 $436 forward single #
loop $-1 -1 $-1 $-1 $437 $181 #
plane-surface $-1 -1 $-1 50 60 20 1 0 0 0 0 -1 forward_v I I I I #
coedge $-1 -1 $-1 $438 $439 $440 $441 forward $182 $-1 #
coedge $-1 -1 $-1 $442 $184 $439 $443 reversed $110 $-1 #
coedge $-1 -1 $-1 $184 $442 $185 $303 forward $110 $-1 #
coedge $-1 -1 $-1 $187 $440 $184 $301 reversed $194 $-1 #
edge $-1 -1 $-1 $304 -30 $444 -10 $184 $445 forward @7 unknown #
coedge $-1 -1 $-1 $186 $185 $446 $447 reversed $70 $-1 #
edge $-1 -1 $-1 $448 0 $304 20 $299 $449 forward @7 unknown #
vertex $-1 -1 $-1 $303 $450 #
straight-curve $-1 -1 $-1 0 80 40 1 0 0 I I #
coedge $-1 -1 $-1 $446 $451 $189 $307 forward $452 $-1 #
edge $453 -1 $-1 $314 10 $309 30 $189 $454 forward @7 unknown #
convexity-sys-attrib $-1 -1 $-1 $-1 $190 #
vertex $-1 -1 $-1 $307 $455 #
straight-curve $-1 -1 $-1 -30 80 20 0 0 1 I I #
coedge $-1 -1 $-1 $456 $191 $451 $457 reversed $313 $-1 #
coedge $-1 -1 $-1 $191 $456 $193 $317 forward $313 $-1 #
loop $-1 -1 $-1 $-1 $312 $458 #
vertex $-1 -1 $-1 $457 $459 #
straight-curve $-1 -1 $-1 -30 60 20 0 0 1 I I #
coedge $-1 -1 $-1 $460 $193 $461 $462 reversed $194 $-1 #
edge $-1 -1 $-1 $463 -50 $195 -30 $312 $464 forward @7 unknown #
face $-1 -1 $-1 $465 $194 $26 $-1 $466 forward single #
point $-1 -1 $-1 -30 60 40 #
point $-1 -1 $-1 -30 80 40 #
model_id-kcp-attrib $-1 -1 $-1 $-1 $199 1 1021382388 1021382388 307101698 6 #
face $467 -1 $-1 $-1 $214 $27 $-1 $468 reversed single #
loop $-1 -1 $-1 $-1 $338 $199 #
plane-surface $-1 -1 $-1 0 100 0 0 -1 0 0 0 -1 forward_v I I I I #
coedge $-1 -1 $-1 $469 $336 $339 $470 forward $200 $-1 #
coedge $-1 -1 $-1 $342 $202 $203 $330 reversed $119 $-1 #
coedge $-1 -1 $-1 $336 $469 $202 $328 reversed $200 $-1 #
edge $-1 -1 $-1 $343 -40 $471 40 $327 $472 forward @7 unknown #
coedge $-1 -1 $-1 $204 $203 $469 $473 forward $75 $-1 #
edge $-1 -1 $-1 $334 -100 $471 100 $326 $474 forward @7 unknown #
coedge $-1 -1 $-1 $339 $338 $204 $332 reversed $323 $-1 #
edge $-1 -1 $-1 $475 -100 $333 100 $331 $476 forward @7 unknown #
vertex $-1 -1 $-1 $206 $477 #
vertex $-1 -1 $-1 $345 $478 #
straight-curve $-1 -1 $-1 100 0 -40 0 -1 0 I I #
coedge $-1 -1 $-1 $325 $327 $207 $337 reversed $200 $-1 #
edge $-1 -1 $-1 $340 -100 $343 100 $336 $479 forward @7 unknown #
coedge $-1 -1 $-1 $331 $208 $213 $346 forward $323 $-1 #
coedge $-1 -1 $-1 $208 $331 $325 $470 reversed $323 $-1 #
vertex $-1 -1 $-1 $209 $480 #
straight-curve $-1 -1 $-1 0 100 40 -1 0 0 I I #
coedge $-1 -1 $-1 $210 $326 $212 $345 reversed $119 $-1 #
vertex $-1 -1 $-1 $337 $481 #
straight-curve $-1 -1 $-1 0 -100 40 1 0 0 I I #
edge $-1 -1 $-1 $215 -40 $334 40 $212 $482 forward @7 unknown #
edge $-1 -1 $-1 $216 -40 $333 40 $213 $483 forward @7 unknown #
point $-1 -1 $-1 100 -100 40 #
point $-1 -1 $-1 100 100 40 #
face $-1 -1 $-1 $-1 $484 $29 $-1 $485 reversed single #
plane-surface $-1 -1 $-1 0 -13.738691122583415 39.999999999999986 0 0 1 1 0 0 forward_v I I I I #
coedge $-1 -1 $-1 $228 $486 $230 $367 forward $219 $-1 #
coedge $-1 -1 $-1 $487 $221 $486 $488 reversed $127 $-1 #
coedge $-1 -1 $-1 $221 $487 $222 $357 forward $127 $-1 #
coedge $-1 -1 $-1 $224 $230 $221 $355 reversed $231 $-1 #
edge $-1 -1 $-1 $358 1.9823131728623846 $489 7.4424647879069949 $221 $490 forward @7 unknown #
coedge $-1 -1 $-1 $223 $222 $491 $492 forward $79 $-1 #
edge $-1 -1 $-1 $493 0 $358 80 $353 $494 forward @7 unknown #
vertex $-1 -1 $-1 $357 $495 #
straight-curve $-1 -1 $-1 -20 -25 40 0 1 0 I I #
coedge $-1 -1 $-1 $491 $496 $226 $361 reversed $484 $-1 #
edge $-1 -1 $-1 $362 -20 $365 20 $226 $497 forward @7 unknown #
vertex $-1 -1 $-1 $492 $498 #
straight-curve $-1 -1 $-1 -20 -70 -40 0 0 1 I I #
coedge $-1 -1 $-1 $486 $228 $496 $499 forward $219 $-1 #
vertex $-1 -1 $-1 $499 $500 #
straight-curve $-1 -1 $-1 20 -70 -40 0 0 1 I I #
edge $-1 -1 $-1 $489 20.825756949558397 $232 45 $351 $501 forward @7 unknown #
point $-1 -1 $-1 20 -70 40 #
point $-1 -1 $-1 -20 -70 40 #
model_id-kcp-attrib $-1 -1 $-1 $-1 $236 1 1021382388 1021382388 307101697 8 #
face $502 -1 $-1 $503 $504 $9 $-1 $505 forward single #
loop $-1 -1 $-1 $-1 $506 $236 #
plane-surface $-1 -1 $-1 0 60 30 0 -1 0 0 0 -1 forward_v I I I I #
coedge $-1 -1 $-1 $507 $508 $393 $509 reversed $237 $-1 #
coedge $-1 -1 $-1 $510 $238 $511 $512 forward $136 $-1 #
coedge $-1 -1 $-1 $238 $510 $260 $402 reversed $136 $-1 #
coedge $-1 -1 $-1 $239 $513 $248 $394 forward $138 $-1 #
coedge $-1 -1 $-1 $241 $240 $514 $515 forward $84 $-1 #
coedge $-1 -1 $-1 $516 $517 $240 $380 reversed $518 $-1 #
edge $519 -1 $-1 $388 -100 $520 100 $379 $521 forward @7 unknown #
coedge $-1 -1 $-1 $522 $523 $241 $382 reversed $524 $-1 #
edge $525 -1 $-1 $526 -100 $387 100 $381 $527 forward @7 unknown #
coedge $-1 -1 $-1 $528 $242 $523 $529 forward $385 $-1 #
coedge $-1 -1 $-1 $242 $528 $516 $530 reversed $385 $-1 #
loop $-1 -1 $-1 $-1 $383 $531 #
attrib_edge_convexity-kcp-attrib $-1 -1 $532 $-1 $243 1 #
vertex $-1 -1 $-1 $243 $533 #
vertex $-1 -1 $-1 $243 $534 #
straight-curve $-1 -1 $-1 100 0 40 0 1 0 I I #
straight-curve $-1 -1 $-1 20 -25 -40 0 1 0 I I #
attrib_edge_convexity-kcp-attrib $-1 -1 $535 $-1 $247 1 #
straight-curve $-1 -1 $-1 20 -25 40 0 -1 0 I I #
coedge $-1 -1 $-1 $536 $248 $374 $509 forward $97 $-1 #
edge $537 -1 $-1 $538 -0.92729521800161219 $250 1.1592794807274085 $377 $269 forward @7 unknown #
point $-1 -1 $-1 20 -45.825756949558397 -40 #
point $-1 -1 $-1 20 -45.825756949558397 40 #
straight-curve $-1 -1 $-1 20 -70 0 0 0 -1 I I #
convexity-sys-attrib $-1 -1 $-1 $253 $146 #
point $-1 -1 $-1 20 -70 40 #
point $-1 -1 $-1 20 -70 -40 #
coedge $-1 -1 $-1 $539 $260 $540 $541 forward $138 $-1 #
edge $542 -1 $-1 $268 30 $543 50 $260 $544 forward @7 unknown #
coedge $-1 -1 $-1 $545 $546 $528 $547 forward $262 $-1 #
model_id-kcp-attrib $-1 -1 $-1 $-1 $263 1 1021382388 1021382388 307101697 19 #
face $548 -1 $-1 $549 $524 $9 $-1 $550 reversed single #
plane-surface $-1 -1 $-1 0 0 -40 0 0 1 1 0 0 forward_v I I I I #
coedge $-1 -1 $-1 $265 $536 $551 $552 forward $97 $-1 #
coedge $-1 -1 $-1 $553 $554 $265 $409 reversed $555 $-1 #
edge $-1 -1 $-1 $556 0 $410 20 $265 $411 forward @7 unknown #
vertex $-1 -1 $-1 $409 $557 #
straight-curve $-1 -1 $-1 -30 40 0 0 0 1 I I #
convexity-sys-attrib $-1 -1 $-1 $267 $160 #
point $-1 -1 $-1 -30 40 40 #
loop $-1 -1 $-1 $-1 $427 $272 #
plane-surface $-1 -1 $-1 1.7763568394002505e-015 61.450945873325111 0 0 0 1 1 0 0 forward_v I I I I #
coedge $-1 -1 $-1 $274 $288 $275 $418 forward $165 $-1 #
coedge $-1 -1 $-1 $276 $275 $558 $559 reversed $102 $-1 #
edge $-1 -1 $-1 $560 0 $419 20 $416 $561 forward @7 unknown #
vertex $-1 -1 $-1 $418 $562 #
straight-curve $-1 -1 $-1 30 50 20 0 -1 0 I I #
coedge $-1 -1 $-1 $558 $283 $279 $422 forward $414 $-1 #
edge $563 -1 $-1 $286 -30 $424 30 $279 $564 forward @7 unknown #
convexity-sys-attrib $-1 -1 $-1 $-1 $280 #
vertex $-1 -1 $-1 $422 $565 #
straight-curve $-1 -1 $-1 30 80 0 0 0 1 I I #
point $-1 -1 $-1 30 80 20 #
coedge $-1 -1 $-1 $283 $558 $288 $431 forward $414 $-1 #
convexity-sys-attrib $-1 -1 $-1 $-1 $284 #
straight-curve $-1 -1 $-1 -30 50 0 0 1 0 I I #
point $-1 -1 $-1 -30 80 0 #
edge $566 -1 $-1 $560 0.92729521800161219 $289 2.2142974355881808 $288 $567 forward @7 unknown #
point $-1 -1 $-1 -30 40 0 #
ellipse-curve $-1 -1 $-1 0 0 20 0 0 1 50 0 0 1 I I #
face $-1 -1 $-1 $568 $569 $26 $-1 $570 forward single #
loop $-1 -1 $-1 $-1 $571 $294 #
plane-surface $-1 -1 $-1 50 40 20 0 -1 0 0 0 -1 forward_v I I I I #
coedge $-1 -1 $-1 $572 $573 $574 $575 forward $295 $-1 #
coedge $-1 -1 $-1 $576 $297 $573 $577 reversed $182 $-1 #
coedge $-1 -1 $-1 $297 $576 $298 $443 forward $182 $-1 #
coedge $-1 -1 $-1 $300 $574 $297 $441 reversed $194 $-1 #
edge $-1 -1 $-1 $444 30 $578 50 $297 $579 forward @7 unknown #
coedge $-1 -1 $-1 $299 $298 $580 $581 reversed $110 $-1 #
edge $-1 -1 $-1 $582 0 $444 20 $439 $583 forward @7 unknown #
vertex $-1 -1 $-1 $443 $584 #
straight-curve $-1 -1 $-1 30 50 40 0 -1 0 I I #
coedge $-1 -1 $-1 $580 $306 $302 $447 forward $452 $-1 #
edge $585 -1 $-1 $309 -30 $448 30 $302 $586 forward @7 unknown #
vertex $-1 -1 $-1 $447 $587 #
straight-curve $-1 -1 $-1 30 80 20 0 0 1 I I #
point $-1 -1 $-1 30 80 40 #
coedge $-1 -1 $-1 $306 $588 $311 $457 forward $452 $-1 #
loop $-1 -1 $-1 $-1 $451 $465 #
convexity-sys-attrib $-1 -1 $-1 $-1 $307 #
straight-curve $-1 -1 $-1 -30 50 20 0 1 0 I I #
point $-1 -1 $-1 -30 80 20 #
coedge $-1 -1 $-1 $312 $311 $589 $590 forward $313 $-1 #
edge $591 -1 $-1 $592 -50 $314 -30 $311 $593 forward @7 unknown #
face $-1 -1 $-1 $318 $313 $26 $-1 $594 forward single #
point $-1 -1 $-1 -30 60 20 #
coedge $-1 -1 $-1 $595 $316 $596 $597 reversed $194 $-1 #
coedge $-1 -1 $-1 $589 $598 $316 $462 forward $599 $-1 #
edge $-1 -1 $-1 $600 -15 $463 5 $461 $601 forward @7 unknown #
vertex $-1 -1 $-1 $590 $602 #
straight-curve $-1 -1 $-1 0 60 40 1 0 0 I I #
face $-1 -1 $-1 $-1 $452 $26 $-1 $603 reversed single #
plane-surface $-1 -1 $-1 1.7763568394002505e-015 58.229298914816376 40 0 0 1 1 0 0 forward_v I I I I #
model_id-kcp-attrib $-1 -1 $-1 $-1 $322 1 1021382388 1021382388 307101698 7 #
plane-surface $-1 -1 $-1 100 0 0 -1 0 0 0 0 1 forward_v I I I I #
coedge $-1 -1 $-1 $327 $325 $329 $473 reversed $200 $-1 #
edge $-1 -1 $-1 $340 -40 $475 40 $339 $604 forward @7 unknown #
vertex $-1 -1 $-1 $473 $605 #
straight-curve $-1 -1 $-1 -100 -100 0 0 0 -1 I I #
edge $-1 -1 $-1 $471 -100 $475 100 $469 $606 forward @7 unknown #
straight-curve $-1 -1 $-1 0 -100 -40 -1 0 0 I I #
vertex $-1 -1 $-1 $332 $607 #
straight-curve $-1 -1 $-1 0 100 -40 1 0 0 I I #
point $-1 -1 $-1 100 100 -40 #
point $-1 -1 $-1 100 -100 -40 #
straight-curve $-1 -1 $-1 -100 0 40 0 -1 0 I I #
point $-1 -1 $-1 -100 100 40 #
point $-1 -1 $-1 -100 -100 40 #
straight-curve $-1 -1 $-1 100 -100 0 0 0 -1 I I #
straight-curve $-1 -1 $-1 100 100 0 0 0 -1 I I #
loop $-1 -1 $-1 $-1 $496 $349 #
plane-surface $-1 -1 $-1 0 -13.738691122583415 -40.000000000000014 0 0 1 1 0 0 forward_v I I I I #
coedge $-1 -1 $-1 $351 $364 $352 $488 forward $219 $-1 #
coedge $-1 -1 $-1 $353 $352 $608 $609 forward $127 $-1 #
edge $-1 -1 $-1 $610 0 $489 80 $486 $611 forward @7 unknown #
vertex $-1 -1 $-1 $488 $612 #
ellipse-curve $-1 -1 $-1 0 0 40 0 0 -1 50 0 0 1 I I #
coedge $-1 -1 $-1 $608 $360 $356 $492 reversed $484 $-1 #
edge $-1 -1 $-1 $493 20.825756949558397 $362 45 $356 $613 forward @7 unknown #
vertex $-1 -1 $-1 $609 $614 #
straight-curve $-1 -1 $-1 -20 -45.825756949558397 -40 0 0 1 I I #
point $-1 -1 $-1 -20 -45.825756949558397 40 #
coedge $-1 -1 $-1 $360 $608 $364 $499 reversed $484 $-1 #
straight-curve $-1 -1 $-1 0 -70 -40 1 0 0 I I #
point $-1 -1 $-1 -20 -70 -40 #
edge $-1 -1 $-1 $365 -45 $610 -20.825756949558397 $364 $615 forward @7 unknown #
point $-1 -1 $-1 20 -70 -40 #
straight-curve $-1 -1 $-1 20 -25 40 0 -1 0 I I #
model_id-kcp-attrib $-1 -1 $-1 $-1 $371 1 1021382388 1021382388 307101697 9 #
face $616 -1 $-1 $617 $618 $9 $-1 $505 forward single #
loop $-1 -1 $-1 $-1 $619 $371 #
plane-surface $-1 -1 $-1 0 50 20 0 0 1 1 0 0 forward_v I I I I #
coedge $-1 -1 $-1 $620 $621 $622 $623 reversed $372 $-1 #
coedge $-1 -1 $-1 $624 $374 $513 $625 reversed $237 $-1 #
coedge $-1 -1 $-1 $374 $624 $626 $627 forward $237 $-1 #
edge $-1 -1 $-1 $538 -40 $628 -20 $393 $629 forward @7 unknown #
coedge $-1 -1 $-1 $376 $375 $630 $631 reversed $136 $-1 #
coedge $-1 -1 $-1 $619 $632 $375 $512 reversed $504 $-1 #
edge $633 -1 $-1 $410 30 $634 50 $375 $635 forward @7 unknown #
coedge $-1 -1 $-1 $377 $636 $507 $625 forward $138 $-1 #
coedge $-1 -1 $-1 $637 $638 $378 $515 reversed $639 $-1 #
edge $640 -1 $-1 $520 -100 $526 100 $514 $641 forward @7 unknown #
coedge $-1 -1 $-1 $642 $379 $384 $530 forward $518 $-1 #
coedge $-1 -1 $-1 $379 $642 $637 $643 reversed $518 $-1 #
loop $-1 -1 $-1 $-1 $516 $644 #
attrib_edge_convexity-kcp-attrib $-1 -1 $645 $-1 $380 1 #
vertex $-1 -1 $-1 $380 $646 #
straight-curve $-1 -1 $-1 0 100 40 -1 0 0 I I #
coedge $-1 -1 $-1 $647 $381 $638 $648 forward $524 $-1 #
coedge $-1 -1 $-1 $381 $647 $383 $529 reversed $524 $-1 #
loop $-1 -1 $-1 $-1 $522 $405 #
attrib_edge_convexity-kcp-attrib $-1 -1 $649 $-1 $382 1 #
vertex $-1 -1 $-1 $515 $650 #
straight-curve $-1 -1 $-1 0 -100 40 1 0 0 I I #
coedge $-1 -1 $-1 $384 $383 $403 $547 reversed $385 $-1 #
edge $651 -1 $-1 $387 -40 $652 40 $383 $653 forward @7 unknown #
edge $-1 -1 $-1 $388 -40 $654 40 $384 $655 forward @7 unknown #
face $656 -1 $-1 $-1 $385 $9 $-1 $657 reversed single #
convexity-sys-attrib $-1 -1 $-1 $386 $243 #
point $-1 -1 $-1 100 -100 40 #
point $-1 -1 $-1 100 100 40 #
convexity-sys-attrib $-1 -1 $-1 $391 $247 #
coedge $-1 -1 $-1 $407 $393 $658 $659 forward $97 $-1 #
attrib_edge_convexity-kcp-attrib $-1 -1 $660 $-1 $394 1 #
vertex $-1 -1 $-1 $509 $661 #
coedge $-1 -1 $-1 $662 $401 $620 $663 forward $138 $-1 #
coedge $-1 -1 $-1 $630 $664 $401 $541 reversed $665 $-1 #
edge $666 -1 $-1 $543 15 $667 35 $401 $668 forward @7 unknown #
attrib_edge_convexity-kcp-attrib $-1 -1 $669 $-1 $402 1 #
vertex $-1 -1 $-1 $402 $670 #
straight-curve $-1 -1 $-1 0 40 40 -1 0 0 I I #
coedge $-1 -1 $-1 $671 $403 $647 $672 forward $262 $-1 #
coedge $-1 -1 $-1 $403 $671 $642 $673 forward $262 $-1 #
edge $-1 -1 $-1 $654 -100 $652 100 $528 $674 forward @7 unknown #
model_id-kcp-attrib $-1 -1 $-1 $-1 $405 1 1021382388 1021382388 307101697 20 #
face $675 -1 $-1 $644 $639 $9 $-1 $676 reversed single #
plane-surface $-1 -1 $-1 0 -100 0 0 1 0 0 0 1 forward_v I I I I #
coedge $-1 -1 $-1 $677 $678 $407 $552 reversed $679 $-1 #
edge $680 -1 $-1 $681 0.92729521800161219 $556 2.2142974355881808 $407 $682 forward @7 unknown #
coedge $-1 -1 $-1 $683 $408 $678 $684 forward $555 $-1 #
coedge $-1 -1 $-1 $408 $622 $619 $685 forward $555 $-1 #
loop $-1 -1 $-1 $-1 $622 $686 #
vertex $-1 -1 $-1 $552 $687 #
point $-1 -1 $-1 -30 40 20 #
coedge $-1 -1 $-1 $427 $421 $417 $559 forward $414 $-1 #
edge $688 -1 $-1 $424 -30 $560 10 $417 $689 forward @7 unknown #
vertex $-1 -1 $-1 $431 $690 #
straight-curve $-1 -1 $-1 30 40 0 0 0 1 I I #
point $-1 -1 $-1 30 40 20 #
convexity-sys-attrib $-1 -1 $-1 $-1 $422 #
straight-curve $-1 -1 $-1 8.8817841970012523e-016 80 0 1 0 0 I I #
point $-1 -1 $-1 30 80 0 #
convexity-sys-attrib $-1 -1 $-1 $-1 $431 #
ellipse-curve $-1 -1 $-1 0 0 0 0 0 1 50 0 0 1 I I #
face $-1 -1 $-1 $691 $692 $26 $-1 $693 forward single #
loop $-1 -1 $-1 $-1 $694 $434 #
cone-surface $-1 -1 $-1 0 0 20 0 0 1 50 0 0 1 I I 0 -1 50 forward I I I I #
coedge $-1 -1 $-1 $695 $696 $697 $698 forward $435 $-1 #
coedge $-1 -1 $-1 $699 $437 $696 $700 reversed $295 $-1 #
coedge $-1 -1 $-1 $437 $699 $438 $577 forward $295 $-1 #
coedge $-1 -1 $-1 $440 $697 $437 $575 reversed $194 $-1 #
edge $-1 -1 $-1 $578 -5 $701 15 $437 $702 forward @7 unknown #
coedge $-1 -1 $-1 $439 $438 $703 $704 reversed $182 $-1 #
edge $-1 -1 $-1 $705 0 $578 20 $573 $706 forward @7 unknown #
vertex $-1 -1 $-1 $577 $707 #
straight-curve $-1 -1 $-1 0 60 40 1 0 0 I I #
coedge $-1 -1 $-1 $703 $446 $442 $581 forward $452 $-1 #
edge $708 -1 $-1 $448 -30 $582 -10 $442 $709 forward @7 unknown #
vertex $-1 -1 $-1 $581 $710 #
straight-curve $-1 -1 $-1 30 60 20 0 0 1 I I #
point $-1 -1 $-1 30 60 40 #
convexity-sys-attrib $-1 -1 $-1 $-1 $447 #
straight-curve $-1 -1 $-1 0 80 20 1 0 0 I I #
point $-1 -1 $-1 30 80 20 #
coedge $-1 -1 $-1 $451 $711 $712 $713 forward $452 $-1 #
coedge $-1 -1 $-1 $712 $461 $456 $590 reversed $599 $-1 #
edge $-1 -1 $-1 $592 0 $463 20 $456 $714 forward @7 unknown #
convexity-sys-attrib $-1 -1 $-1 $-1 $457 #
vertex $-1 -1 $-1 $457 $715 #
straight-curve $-1 -1 $-1 0 60 20 1 0 0 I I #
plane-surface $-1 -1 $-1 -50 60 20 0 1 0 0 0 1 forward_v I I I I #
coedge $-1 -1 $-1 $697 $460 $694 $716 reversed $194 $-1 #
coedge $-1 -1 $-1 $717 $718 $460 $597 forward $692 $-1 #
edge $-1 -1 $-1 $719 30 $600 50 $596 $720 forward @7 unknown #
coedge $-1 -1 $-1 $461 $712 $717 $721 forward $599 $-1 #
loop $-1 -1 $-1 $-1 $461 $691 #
vertex $-1 -1 $-1 $721 $722 #
straight-curve $-1 -1 $-1 -50 55 40 0 1 0 I I #
point $-1 -1 $-1 -50 60 40 #
plane-surface $-1 -1 $-1 1.7763568394002505e-015 58.229298914816376 19.999999999999996 0 0 1 1 0 0 forward_v I I I I #
straight-curve $-1 -1 $-1 -100 100 0 0 0 -1 I I #
point $-1 -1 $-1 -100 -100 -40 #
straight-curve $-1 -1 $-1 -100 0 -40 0 1 0 I I #
point $-1 -1 $-1 -100 100 -40 #
coedge $-1 -1 $-1 $496 $491 $487 $609 reversed $484 $-1 #
edge $-1 -1 $-1 $610 -1.1592794807274085 $493 4.3008721343172018 $487 $723 forward @7 unknown #
vertex $-1 -1 $-1 $499 $724 #
straight-curve $-1 -1 $-1 20 -45.825756949558397 -40 0 0 1 I I #
point $-1 -1 $-1 20 -45.825756949558397 40 #
straight-curve $-1 -1 $-1 -20 -25 -40 0 -1 0 I I #
point $-1 -1 $-1 -20 -45.825756949558397 -40 #
straight-curve $-1 -1 $-1 20 -25 -40 0 1 0 I I #
model_id-kcp-attrib $-1 -1 $-1 $-1 $503 1 1021382388 1021382388 307101697 10 #
face $725 -1 $-1 $726 $665 $9 $-1 $727 forward single #
loop $-1 -1 $-1 $-1 $728 $503 #
coedge $-1 -1 $-1 $729 $511 $554 $685 reversed $504 $-1 #
coedge $-1 -1 $-1 $730 $506 $539 $663 reversed $372 $-1 #
coedge $-1 -1 $-1 $506 $730 $729 $731 forward $372 $-1 #
coedge $-1 -1 $-1 $554 $732 $506 $623 forward $555 $-1 #
edge $-1 -1 $-1 $733 -15 $734 5 $622 $735 forward @7 unknown #
coedge $-1 -1 $-1 $508 $507 $736 $737 forward $237 $-1 #
edge $738 -1 $-1 $739 -50 $538 -30 $513 $544 forward @7 unknown #
coedge $-1 -1 $-1 $740 $728 $508 $627 reversed $618 $-1 #
edge $741 -1 $-1 $742 -50 $628 -30 $508 $635 forward @7 unknown #
vertex $-1 -1 $-1 $509 $743 #
straight-curve $-1 -1 $-1 30 40 0 0 0 -1 I I #
coedge $-1 -1 $-1 $744 $540 $510 $631 forward $665 $-1 #
edge $-1 -1 $-1 $543 -10 $634 10 $630 $745 forward @7 unknown #
coedge $-1 -1 $-1 $511 $729 $744 $746 reversed $504 $-1 #
attrib_edge_convexity-kcp-attrib $-1 -1 $747 $-1 $512 2 #
vertex $-1 -1 $-1 $746 $748 #
straight-curve $-1 -1 $-1 0 40 20 -1 0 0 I I #
coedge $-1 -1 $-1 $513 $749 $750 $751 forward $138 $-1 #
coedge $-1 -1 $-1 $752 $514 $517 $643 forward $639 $-1 #
coedge $-1 -1 $-1 $514 $752 $522 $648 reversed $639 $-1 #
loop $-1 -1 $-1 $-1 $637 $549 #
attrib_edge_convexity-kcp-attrib $-1 -1 $753 $-1 $515 1 #
straight-curve $-1 -1 $-1 -100 0 40 0 -1 0 I I #
coedge $-1 -1 $-1 $517 $516 $546 $673 reversed $518 $-1 #
edge $754 -1 $-1 $520 -40 $755 40 $517 $756 forward @7 unknown #
face $757 -1 $-1 $531 $518 $9 $-1 $758 reversed single #
convexity-sys-attrib $-1 -1 $-1 $519 $380 #
point $-1 -1 $-1 -100 100 40 #
coedge $-1 -1 $-1 $523 $522 $545 $672 reversed $524 $-1 #
edge $759 -1 $-1 $526 -40 $760 40 $638 $761 forward @7 unknown #
convexity-sys-attrib $-1 -1 $-1 $525 $382 #
point $-1 -1 $-1 -100 -100 40 #
attrib_edge_convexity-kcp-attrib $-1 -1 $762 $-1 $529 1 #
vertex $-1 -1 $-1 $529 $763 #
straight-curve $-1 -1 $-1 100 -100 0 0 0 -1 I I #
vertex $-1 -1 $-1 $547 $764 #
straight-curve $-1 -1 $-1 100 100 0 0 0 -1 I I #
model_id-kcp-attrib $-1 -1 $-1 $-1 $531 1 1021382388 1021382388 307101697 23 #
plane-surface $-1 -1 $-1 100 0 0 -1 0 0 0 0 1 forward_v I I I I #
coedge $-1 -1 $-1 $765 $766 $536 $659 reversed $767 $-1 #
edge $-1 -1 $-1 $628 -20 $681 0 $536 $629 forward @7 unknown #
convexity-sys-attrib $-1 -1 $-1 $537 $394 #
point $-1 -1 $-1 30 40 40 #
coedge $-1 -1 $-1 $768 $539 $732 $769 forward $138 $-1 #
edge $770 -1 $-1 $667 -50 $733 -30 $539 $771 forward @7 unknown #
coedge $-1 -1 $-1 $540 $744 $730 $772 reversed $665 $-1 #
loop $-1 -1 $-1 $-1 $664 $617 #
attrib_edge_convexity-kcp-attrib $-1 -1 $773 $-1 $541 1 #
vertex $-1 -1 $-1 $541 $774 #
straight-curve $-1 -1 $-1 -50 25 40 0 1 0 I I #
convexity-sys-attrib $-1 -1 $-1 $542 $402 #
point $-1 -1 $-1 -50 40 40 #
coedge $-1 -1 $-1 $546 $545 $752 $775 forward $262 $-1 #
edge $776 -1 $-1 $652 -100 $760 100 $647 $777 forward @7 unknown #
edge $-1 -1 $-1 $755 -100 $654 100 $642 $778 forward @7 unknown #
straight-curve $-1 -1 $-1 100 0 -40 0 -1 0 I I #
model_id-kcp-attrib $-1 -1 $-1 $-1 $549 1 1021382388 1021382388 307101697 21 #
plane-surface $-1 -1 $-1 -100 0 0 1 0 0 0 0 -1 forward_v I I I I #
coedge $-1 -1 $-1 $779 $551 $766 $780 reversed $679 $-1 #
coedge $-1 -1 $-1 $551 $779 $553 $684 reversed $679 $-1 #
loop $-1 -1 $-1 $-1 $551 $781 #
attrib_edge_convexity-kcp-attrib $-1 -1 $782 $-1 $552 1 #
vertex $-1 -1 $-1 $552 $783 #
ellipse-curve $-1 -1 $-1 0 0 0 0 0 1 50 0 0 1 I I #
coedge $-1 -1 $-1 $732 $553 $784 $785 reversed $555 $-1 #
edge $786 -1 $-1 $556 0 $787 40 $553 $788 forward @7 unknown #
edge $789 -1 $-1 $734 -15 $410 5 $554 $790 forward @7 unknown #
face $791 -1 $-1 $792 $555 $9 $-1 $793 forward single #
point $-1 -1 $-1 -30 40 0 #
convexity-sys-attrib $-1 -1 $-1 $-1 $559 #
straight-curve $-1 -1 $-1 30 50 0 0 -1 0 I I #
point $-1 -1 $-1 30 40 0 #
face $-1 -1 $-1 $458 $599 $26 $-1 $794 forward single #
loop $-1 -1 $-1 $-1 $596 $568 #
plane-surface $-1 -1 $-1 -30 40 20 0 -1 0 0 0 -1 forward_v I I I I #
coedge $-1 -1 $-1 $795 $796 $595 $716 forward $569 $-1 #
coedge $-1 -1 $-1 $797 $571 $796 $798 reversed $435 $-1 #
coedge $-1 -1 $-1 $571 $797 $572 $700 forward $435 $-1 #
coedge $-1 -1 $-1 $574 $595 $571 $698 reversed $194 $-1 #
edge $-1 -1 $-1 $701 -50 $799 -30 $571 $800 forward @7 unknown #
coedge $-1 -1 $-1 $573 $572 $801 $802 reversed $295 $-1 #
edge $-1 -1 $-1 $803 0 $701 20 $696 $804 forward @7 unknown #
vertex $-1 -1 $-1 $700 $805 #
straight-curve $-1 -1 $-1 50 55 40 0 -1 0 I I #
coedge $-1 -1 $-1 $801 $580 $576 $704 forward $452 $-1 #
edge $806 -1 $-1 $582 30 $705 50 $576 $807 forward @7 unknown #
vertex $-1 -1 $-1 $704 $808 #
straight-curve $-1 -1 $-1 50 60 20 0 0 1 I I #
point $-1 -1 $-1 50 60 40 #
convexity-sys-attrib $-1 -1 $-1 $-1 $581 #
straight-curve $-1 -1 $-1 30 50 20 0 -1 0 I I #
point $-1 -1 $-1 30 60 20 #
coedge $-1 -1 $-1 $588 $809 $810 $811 forward $452 $-1 #
coedge $-1 -1 $-1 $598 $589 $588 $713 reversed $599 $-1 #
edge $812 -1 $-1 $813 -15 $592 5 $712 $814 forward @7 unknown #
straight-curve $-1 -1 $-1 -50 60 20 0 0 1 I I #
point $-1 -1 $-1 -50 60 20 #
edge $-1 -1 $-1 $799 0.92729521800161219 $719 2.2142974355881808 $694 $815 forward @7 unknown #
coedge $-1 -1 $-1 $810 $596 $598 $721 reversed $692 $-1 #
coedge $-1 -1 $-1 $596 $810 $795 $816 forward $692 $-1 #
vertex $-1 -1 $-1 $816 $817 #
straight-curve $-1 -1 $-1 0 40 40 -1 0 0 I I #
edge $-1 -1 $-1 $813 0 $600 20 $598 $818 forward @7 unknown #
point $-1 -1 $-1 -50 40 40 #
ellipse-curve $-1 -1 $-1 0 0 -40 0 0 1 50 0 0 1 I I #
point $-1 -1 $-1 20 -45.825756949558397 -40 #
model_id-kcp-attrib $-1 -1 $-1 $-1 $617 1 1021382388 1021382388 307101697 11 #
face $819 -1 $-1 $820 $821 $9 $-1 $373 forward single #
plane-surface $-1 -1 $-1 -50 50 30 1 0 0 0 0 -1 forward_v I I I I #
coedge $-1 -1 $-1 $626 $822 $765 $823 reversed $618 $-1 #
coedge $-1 -1 $-1 $632 $619 $621 $731 reversed $504 $-1 #
coedge $-1 -1 $-1 $621 $620 $664 $772 forward $372 $-1 #
edge $824 -1 $-1 $825 -50 $734 -30 $621 $826 forward @7 unknown #
coedge $-1 -1 $-1 $622 $683 $662 $769 reversed $555 $-1 #
vertex $-1 -1 $-1 $623 $827 #
vertex $-1 -1 $-1 $685 $828 #
straight-curve $-1 -1 $-1 -30 60 25 0 0 -1 I I #
coedge $-1 -1 $-1 $750 $829 $624 $737 reversed $830 $-1 #
edge $-1 -1 $-1 $739 -10 $742 10 $736 $831 forward @7 unknown #
attrib_edge_convexity-kcp-attrib $-1 -1 $832 $-1 $625 1 #
vertex $-1 -1 $-1 $625 $833 #
coedge $-1 -1 $-1 $822 $626 $829 $834 reversed $618 $-1 #
attrib_edge_convexity-kcp-attrib $-1 -1 $835 $-1 $627 2 #
vertex $-1 -1 $-1 $737 $836 #
point $-1 -1 $-1 30 40 20 #
coedge $-1 -1 $-1 $664 $630 $632 $746 forward $665 $-1 #
straight-curve $-1 -1 $-1 -50 40 30 0 0 -1 I I #
edge $837 -1 $-1 $634 -10 $825 10 $744 $838 forward @7 unknown #
convexity-sys-attrib $-1 -1 $-1 $633 $512 #
point $-1 -1 $-1 -50 40 20 #
coedge $-1 -1 $-1 $636 $839 $840 $841 forward $138 $-1 #
coedge $-1 -1 $-1 $842 $736 $636 $751 reversed $830 $-1 #
edge $843 -1 $-1 $844 -35 $739 -15 $636 $845 forward @7 unknown #
coedge $-1 -1 $-1 $638 $637 $671 $775 reversed $639 $-1 #
convexity-sys-attrib $-1 -1 $-1 $640 $515 #
attrib_edge_convexity-kcp-attrib $-1 -1 $846 $-1 $643 1 #
vertex $-1 -1 $-1 $673 $847 #
straight-curve $-1 -1 $-1 -100 100 0 0 0 -1 I I #
model_id-kcp-attrib $-1 -1 $-1 $-1 $644 1 1021382388 1021382388 307101697 22 #
plane-surface $-1 -1 $-1 0 100 0 0 -1 0 0 0 -1 forward_v I I I I #
attrib_edge_convexity-kcp-attrib $-1 -1 $848 $-1 $648 1 #
vertex $-1 -1 $-1 $775 $849 #
straight-curve $-1 -1 $-1 -100 -100 0 0 0 -1 I I #
convexity-sys-attrib $-1 -1 $-1 $651 $529 #
point $-1 -1 $-1 100 -100 -40 #
point $-1 -1 $-1 100 100 -40 #
coedge $-1 -1 $-1 $850 $658 $728 $823 forward $767 $-1 #
coedge $-1 -1 $-1 $658 $851 $677 $780 forward $767 $-1 #
loop $-1 -1 $-1 $-1 $850 $792 #
coedge $-1 -1 $-1 $839 $662 $852 $853 forward $138 $-1 #
edge $854 -1 $-1 $733 40 $855 60 $662 $856 forward @7 unknown #
attrib_edge_convexity-kcp-attrib $-1 -1 $857 $-1 $663 1 #
straight-curve $-1 -1 $-1 0 60 40 1 0 0 I I #
edge $-1 -1 $-1 $667 -10 $825 10 $730 $858 forward @7 unknown #
convexity-sys-attrib $-1 -1 $-1 $666 $541 #
point $-1 -1 $-1 -50 60 40 #
edge $859 -1 $-1 $760 -100 $755 100 $752 $860 forward @7 unknown #
attrib_edge_convexity-kcp-attrib $-1 -1 $861 $-1 $672 1 #
straight-curve $-1 -1 $-1 0 -100 -40 -1 0 0 I I #
straight-curve $-1 -1 $-1 0 100 -40 1 0 0 I I #
coedge $-1 -1 $-1 $678 $677 $862 $863 reversed $679 $-1 #
edge $864 -1 $-1 $865 -40 $681 0 $766 $866 forward @7 unknown #
face $867 -1 $-1 $868 $679 $9 $-1 $869 forward single #
convexity-sys-attrib $-1 -1 $-1 $680 $552 #
point $-1 -1 $-1 30 40 0 #
coedge $-1 -1 $-1 $862 $852 $683 $785 forward $870 $-1 #
edge $-1 -1 $-1 $855 -20 $787 20 $784 $871 forward @7 unknown #
attrib_edge_convexity-kcp-attrib $-1 -1 $872 $-1 $684 2 #
vertex $-1 -1 $-1 $863 $873 #
straight-curve $-1 -1 $-1 -30 40 0 0 1 0 I I #
attrib_edge_convexity-kcp-attrib $-1 -1 $874 $-1 $685 1 #
straight-curve $-1 -1 $-1 -30 45 20 0 -1 0 I I #
model_id-kcp-attrib $-1 -1 $-1 $-1 $686 1 1021382388 1021382388 307101697 14 #
face $875 -1 $-1 $781 $767 $9 $-1 $876 forward single #
plane-surface $-1 -1 $-1 -30 40 20 1 0 0 0 0 -1 forward_v I I I I #
plane-surface $-1 -1 $-1 -50 40 20 -1 0 0 0 0 1 forward_v I I I I #
coedge $-1 -1 $-1 $877 $694 $718 $816 reversed $569 $-1 #
coedge $-1 -1 $-1 $694 $877 $695 $798 forward $569 $-1 #
coedge $-1 -1 $-1 $696 $695 $878 $879 reversed $435 $-1 #
edge $-1 -1 $-1 $880 0 $799 20 $796 $881 forward @7 unknown #
vertex $-1 -1 $-1 $798 $882 #
straight-curve $-1 -1 $-1 0 40 40 -1 0 0 I I #
coedge $-1 -1 $-1 $878 $703 $699 $802 forward $452 $-1 #
edge $883 -1 $-1 $705 -5 $803 15 $699 $884 forward @7 unknown #
vertex $-1 -1 $-1 $802 $885 #
straight-curve $-1 -1 $-1 50 40 20 0 0 1 I I #
point $-1 -1 $-1 50 40 40 #
convexity-sys-attrib $-1 -1 $-1 $-1 $704 #
straight-curve $-1 -1 $-1 0 60 20 1 0 0 I I #
point $-1 -1 $-1 50 60 20 #
coedge $-1 -1 $-1 $711 $878 $877 $886 forward $452 $-1 #
coedge $-1 -1 $-1 $718 $717 $711 $811 reversed $692 $-1 #
edge $887 -1 $-1 $888 30 $813 50 $810 $889 forward @7 unknown #
convexity-sys-attrib $-1 -1 $-1 $-1 $713 #
vertex $-1 -1 $-1 $811 $890 #
straight-curve $-1 -1 $-1 -50 55 20 0 1 0 I I #
ellipse-curve $-1 -1 $-1 0 0 40 0 0 1 50 0 0 1 I I #
edge $-1 -1 $-1 $888 0 $719 20 $718 $891 forward @7 unknown #
point $-1 -1 $-1 -30 40 40 #
straight-curve $-1 -1 $-1 -50 40 20 0 0 1 I I #
model_id-kcp-attrib $-1 -1 $-1 $-1 $726 1 1021382388 1021382388 307101697 12 #
face $892 -1 $-1 $686 $830 $9 $-1 $893 forward single #
loop $-1 -1 $-1 $-1 $894 $726 #
coedge $-1 -1 $-1 $728 $740 $895 $896 reversed $618 $-1 #
edge $897 -1 $-1 $628 -5 $898 15 $765 $899 forward @7 unknown #
attrib_edge_convexity-kcp-attrib $-1 -1 $900 $-1 $731 2 #
vertex $-1 -1 $-1 $731 $901 #
straight-curve $-1 -1 $-1 0 60 20 1 0 0 I I #
point $-1 -1 $-1 -30 60 40 #
point $-1 -1 $-1 -30 60 20 #
coedge $-1 -1 $-1 $736 $842 $740 $834 forward $830 $-1 #
loop $-1 -1 $-1 $-1 $736 $820 #
straight-curve $-1 -1 $-1 50 40 30 0 0 -1 I I #
convexity-sys-attrib $-1 -1 $-1 $738 $625 #
point $-1 -1 $-1 50 40 40 #
edge $902 -1 $-1 $903 -10 $742 10 $829 $904 forward @7 unknown #
convexity-sys-attrib $-1 -1 $-1 $741 $627 #
point $-1 -1 $-1 50 40 20 #
attrib_edge_convexity-kcp-attrib $-1 -1 $905 $-1 $746 2 #
straight-curve $-1 -1 $-1 -50 50 20 0 1 0 I I #
coedge $-1 -1 $-1 $749 $768 $906 $907 forward $138 $-1 #
coedge $-1 -1 $-1 $894 $908 $749 $841 reversed $821 $-1 #
edge $909 -1 $-1 $910 30 $844 50 $749 $771 forward @7 unknown #
coedge $-1 -1 $-1 $829 $750 $908 $911 forward $830 $-1 #
attrib_edge_convexity-kcp-attrib $-1 -1 $912 $-1 $751 1 #
vertex $-1 -1 $-1 $841 $913 #
straight-curve $-1 -1 $-1 50 25 40 0 -1 0 I I #
convexity-sys-attrib $-1 -1 $-1 $754 $643 #
point $-1 -1 $-1 -100 100 -40 #
convexity-sys-attrib $-1 -1 $-1 $759 $648 #
point $-1 -1 $-1 -100 -100 -40 #
coedge $-1 -1 $-1 $906 $765 $894 $914 forward $767 $-1 #
coedge $-1 -1 $-1 $766 $906 $915 $916 forward $767 $-1 #
coedge $-1 -1 $-1 $784 $915 $768 $853 reversed $870 $-1 #
edge $917 -1 $-1 $855 -30 $918 30 $768 $919 forward @7 unknown #
attrib_edge_convexity-kcp-attrib $-1 -1 $920 $-1 $769 1 #
vertex $-1 -1 $-1 $769 $921 #
straight-curve $-1 -1 $-1 -30 20 40 0 1 0 I I #
convexity-sys-attrib $-1 -1 $-1 $770 $663 #
straight-curve $-1 -1 $-1 -50 60 30 0 0 -1 I I #
attrib_edge_convexity-kcp-attrib $-1 -1 $922 $-1 $775 1 #
straight-curve $-1 -1 $-1 -100 0 -40 0 1 0 I I #
convexity-sys-attrib $-1 -1 $-1 $776 $672 #
coedge $-1 -1 $-1 $915 $784 $779 $863 forward $870 $-1 #
edge $923 -1 $-1 $787 -30 $865 30 $862 $924 forward @7 unknown #
attrib_edge_convexity-kcp-attrib $-1 -1 $925 $-1 $780 2 #
vertex $-1 -1 $-1 $780 $926 #
straight-curve $-1 -1 $-1 30 40 0 0 -1 0 I I #
model_id-kcp-attrib $-1 -1 $-1 $-1 $781 1 1021382388 1021382388 307101697 16 #
face $927 -1 $-1 $161 $870 $9 $-1 $928 forward single #
plane-surface $-1 -1 $-1 0 40 0 0 0 1 1 0 0 forward_v I I I I #
loop $-1 -1 $-1 $-1 $915 $868 #
straight-curve $-1 -1 $-1 -30 80 20 0 0 -1 I I #
convexity-sys-attrib $-1 -1 $-1 $786 $684 #
point $-1 -1 $-1 -30 80 0 #
convexity-sys-attrib $-1 -1 $-1 $789 $685 #
model_id-kcp-attrib $-1 -1 $-1 $-1 $792 1 1021382388 1021382388 307101697 15 #
plane-surface $-1 -1 $-1 30 40 20 -1 0 0 0 0 1 forward_v I I I I #
coedge $-1 -1 $-1 $796 $795 $809 $886 reversed $569 $-1 #
coedge $-1 -1 $-1 $809 $801 $797 $879 forward $452 $-1 #
edge $929 -1 $-1 $803 -50 $880 -30 $797 $930 forward @7 unknown #
vertex $-1 -1 $-1 $879 $931 #
straight-curve $-1 -1 $-1 30 40 20 0 0 1 I I #
point $-1 -1 $-1 30 40 40 #
convexity-sys-attrib $-1 -1 $-1 $-1 $802 #
straight-curve $-1 -1 $-1 50 55 20 0 -1 0 I I #
point $-1 -1 $-1 50 40 20 #
edge $932 -1 $-1 $880 0.92729521800161219 $888 2.2142974355881808 $877 $933 forward @7 unknown #
convexity-sys-attrib $-1 -1 $-1 $-1 $811 #
vertex $-1 -1 $-1 $886 $934 #
straight-curve $-1 -1 $-1 0 40 20 -1 0 0 I I #
point $-1 -1 $-1 -50 40 20 #
straight-curve $-1 -1 $-1 -30 40 20 0 0 1 I I #
model_id-kcp-attrib $-1 -1 $-1 $-1 $820 1 1021382388 1021382388 307101697 13 #
plane-surface $-1 -1 $-1 50 50 30 -1 0 0 0 0 1 forward_v I I I I #
coedge $-1 -1 $-1 $895 $840 $850 $914 reversed $821 $-1 #
coedge $-1 -1 $-1 $908 $894 $822 $896 forward $821 $-1 #
edge $935 -1 $-1 $898 30 $903 50 $895 $826 forward @7 unknown #
attrib_edge_convexity-kcp-attrib $-1 -1 $936 $-1 $823 1 #
vertex $-1 -1 $-1 $823 $937 #
straight-curve $-1 -1 $-1 30 45 20 0 1 0 I I #
convexity-sys-attrib $-1 -1 $-1 $824 $731 #
point $-1 -1 $-1 -50 60 20 #
attrib_edge_convexity-kcp-attrib $-1 -1 $938 $-1 $834 2 #
vertex $-1 -1 $-1 $834 $939 #
straight-curve $-1 -1 $-1 50 50 20 0 -1 0 I I #
convexity-sys-attrib $-1 -1 $-1 $837 $746 #
coedge $-1 -1 $-1 $851 $850 $839 $907 reversed $767 $-1 #
edge $940 -1 $-1 $918 -60 $910 -40 $839 $941 forward @7 unknown #
coedge $-1 -1 $-1 $840 $895 $842 $911 reversed $821 $-1 #
attrib_edge_convexity-kcp-attrib $-1 -1 $942 $-1 $841 1 #
vertex $-1 -1 $-1 $907 $943 #
edge $-1 -1 $-1 $844 -10 $903 10 $842 $944 forward @7 unknown #
convexity-sys-attrib $-1 -1 $-1 $843 $751 #
point $-1 -1 $-1 50 60 40 #
edge $-1 -1 $-1 $898 -5 $910 15 $850 $945 forward @7 unknown #
coedge $-1 -1 $-1 $852 $862 $851 $916 reversed $870 $-1 #
edge $-1 -1 $-1 $918 -20 $865 20 $851 $946 forward @7 unknown #
attrib_edge_convexity-kcp-attrib $-1 -1 $947 $-1 $853 1 #
vertex $-1 -1 $-1 $853 $948 #
straight-curve $-1 -1 $-1 0 80 40 1 0 0 I I #
convexity-sys-attrib $-1 -1 $-1 $854 $769 #
point $-1 -1 $-1 -30 80 40 #
convexity-sys-attrib $-1 -1 $-1 $859 $775 #
attrib_edge_convexity-kcp-attrib $-1 -1 $949 $-1 $863 2 #
straight-curve $-1 -1 $-1 0 80 0 1 0 0 I I #
convexity-sys-attrib $-1 -1 $-1 $864 $780 #
point $-1 -1 $-1 30 80 0 #
model_id-kcp-attrib $-1 -1 $-1 $-1 $868 1 1021382388 1021382388 307101697 17 #
plane-surface $-1 -1 $-1 0 80 20 0 -1 0 0 0 -1 forward_v I I I I #
convexity-sys-attrib $-1 -1 $-1 $-1 $879 #
straight-curve $-1 -1 $-1 0 40 20 -1 0 0 I I #
point $-1 -1 $-1 30 40 20 #
convexity-sys-attrib $-1 -1 $-1 $-1 $886 #
ellipse-curve $-1 -1 $-1 0 0 20 0 0 1 50 0 0 1 I I #
point $-1 -1 $-1 -30 40 20 #
attrib_edge_convexity-kcp-attrib $-1 -1 $950 $-1 $896 2 #
convexity-sys-attrib $-1 -1 $-1 $897 $823 #
point $-1 -1 $-1 30 60 20 #
convexity-sys-attrib $-1 -1 $-1 $902 $834 #
point $-1 -1 $-1 50 60 20 #
attrib_edge_convexity-kcp-attrib $-1 -1 $951 $-1 $907 1 #
straight-curve $-1 -1 $-1 30 20 40 0 -1 0 I I #
convexity-sys-attrib $-1 -1 $-1 $909 $841 #
point $-1 -1 $-1 30 60 40 #
straight-curve $-1 -1 $-1 50 60 30 0 0 -1 I I #
straight-curve $-1 -1 $-1 30 60 25 0 0 1 I I #
straight-curve $-1 -1 $-1 30 80 20 0 0 -1 I I #
convexity-sys-attrib $-1 -1 $-1 $917 $853 #
point $-1 -1 $-1 30 80 40 #
convexity-sys-attrib $-1 -1 $-1 $923 $863 #
convexity-sys-attrib $-1 -1 $-1 $935 $896 #
convexity-sys-attrib $-1 -1 $-1 $940 $907 #
End-of-ACIS-data 