600 0 2 0           
24 FBMach with ACIS - 6.0.3 13 ACIS 6.0.3 NT 24 Wed May 23 20:18:41 2001 
1 9.9999999999999995e-007 1e-010 
body $2 $3 $-1 $4 #
bdycol-kcp $-1 1 4 $5 $6 $7 $8 #
model_id-kcp-attrib $-1 $-1 $-1 $0 1 990663520 60 -885260287 1 #
lump $-1 $-1 $9 $0 #
transform $-1 1 0 0 0 1 0 0 0 1 0 0 0 1 no_rotate no_reflect no_shear #
body $10 $11 $-1 $12 #
body $13 $14 $-1 $15 #
body $16 $17 $-1 $18 #
body $19 $20 $-1 $21 #
shell $-1 $-1 $-1 $22 $-1 $3 #
model_id-kcp-attrib $-1 $-1 $-1 $5 1 990663520 60 -885260286 1 #
lump $-1 $-1 $23 $5 #
transform $-1 1 0 0 0 1 0 0 0 1 0 0 0 1 no_rotate no_reflect no_shear #
rgb_color-st-attrib $-1 $24 $-1 $6 0.5 1 1 #
lump $-1 $-1 $25 $6 #
transform $-1 1 0 0 0 1 0 0 0 1 0 0 0 1 no_rotate no_reflect no_shear #
rgb_color-st-attrib $-1 $26 $-1 $7 0.59999999999999998 0.90000000000000002 1 #
lump $-1 $-1 $27 $7 #
transform $-1 1 0 0 0 1 0 0 0 1 0 0 0 1 no_rotate no_reflect no_shear #
rgb_color-st-attrib $-1 $28 $-1 $8 1 0 0 #
lump $-1 $-1 $29 $8 #
transform $-1 1 0 0 0 1 0 0 0 1 0 0 0 1 no_rotate no_reflect no_shear #
face $30 $31 $32 $9 $-1 $33 forward single #
shell $-1 $-1 $-1 $34 $-1 $11 #
model_id-kcp-attrib $-1 $-1 $13 $6 1 990663520 220 -874774525 1 #
shell $-1 $-1 $-1 $35 $-1 $14 #
model_id-kcp-attrib $-1 $-1 $16 $7 1 990663520 570 -885391356 1 #
shell $-1 $-1 $-1 $36 $-1 $17 #
model_id-kcp-attrib $-1 $-1 $19 $8 1 990663520 771 -888995835 1 #
shell $-1 $-1 $-1 $37 $-1 $20 #
model_id-kcp-attrib $-1 $-1 $-1 $22 1 990663520 60 -885260287 2 #
face $38 $39 $40 $9 $-1 $41 forward single #
loop $-1 $-1 $42 $22 #
plane-surface $-1 -20 -50 0 1 0 0 0 0 -1 forward_v I I I I #
face $43 $44 $45 $23 $-1 $46 forward single #
face $-1 $47 $48 $25 $-1 $49 forward single #
face $-1 $50 $51 $27 $-1 $52 forward single #
face $-1 $53 $54 $29 $-1 $55 forward single #
model_id-kcp-attrib $-1 $-1 $-1 $31 1 990663520 60 -885260287 3 #
face $56 $57 $58 $9 $-1 $59 forward single #
loop $-1 $-1 $60 $31 #
plane-surface $-1 0 -70 0 0 1 0 0 0 1 forward_v I I I I #
coedge $-1 $61 $62 $63 $64 reversed $32 $-1 #
model_id-kcp-attrib $-1 $-1 $-1 $34 1 990663520 60 -885260286 2 #
face $65 $66 $67 $23 $-1 $68 reversed single #
loop $-1 $-1 $69 $34 #
plane-surface $-1 0 0 40 0 0 1 1 0 0 forward_v I I I I #
face $-1 $70 $71 $25 $-1 $72 forward single #
loop $-1 $-1 $73 $35 #
plane-surface $-1 20 -70 -40 0 -1 0 0 0 -1 forward_v I I I I #
face $-1 $74 $75 $27 $-1 $76 forward single #
loop $-1 $-1 $77 $36 #
plane-surface $-1 -30 40 20 0 -1 0 0 0 -1 forward_v I I I I #
face $-1 $78 $79 $29 $-1 $80 forward single #
loop $-1 $-1 $81 $37 #
plane-surface $-1 30 80 0 1 0 0 0 0 -1 forward_v I I I I #
model_id-kcp-attrib $-1 $-1 $-1 $39 1 990663520 60 -885260287 4 #
face $82 $83 $84 $9 $-1 $85 forward single #
loop $-1 $-1 $86 $39 #
plane-surface $-1 20 -50 0 -1 0 0 0 0 1 forward_v I I I I #
coedge $-1 $87 $88 $89 $90 reversed $40 $-1 #
coedge $-1 $89 $42 $91 $92 reversed $32 $-1 #
coedge $-1 $42 $89 $93 $94 reversed $32 $-1 #
coedge $-1 $95 $96 $42 $64 forward $97 $-1 #
edge $-1 $98 -40 $99 40 $63 $100 forward 7 unknown #
model_id-kcp-attrib $-1 $-1 $-1 $44 1 990663520 60 -885260286 3 #
face $101 $102 $103 $23 $-1 $104 reversed single #
loop $-1 $-1 $105 $44 #
plane-surface $-1 0 0 -40 0 0 1 1 0 0 forward_v I I I I #
coedge $-1 $106 $107 $108 $109 forward $45 $-1 #
face $-1 $110 $111 $25 $-1 $112 forward single #
loop $-1 $-1 $113 $47 #
plane-surface $-1 -20 -70 -40 -1 0 0 0 0 1 forward_v I I I I #
coedge $-1 $114 $115 $116 $117 forward $48 $-1 #
face $-1 $118 $119 $27 $-1 $120 forward single #
loop $-1 $-1 $121 $50 #
plane-surface $-1 -50 40 20 -1 0 0 0 0 1 forward_v I I I I #
coedge $-1 $122 $123 $124 $125 forward $51 $-1 #
face $-1 $126 $127 $29 $-1 $128 forward single #
loop $-1 $-1 $129 $53 #
cone-surface $-1 0 0 0 0 0 1 50 0 0 1 I I 0 -1 50 forward I I I I #
coedge $-1 $130 $131 $132 $133 forward $54 $-1 #
model_id-kcp-attrib $-1 $-1 $-1 $57 1 990663520 60 -885260287 5 #
face $134 $135 $136 $9 $-1 $137 forward single #
loop $-1 $138 $139 $57 #
plane-surface $-1 0 0 40 0 0 1 1 0 0 forward_v I I I I #
coedge $-1 $140 $141 $142 $143 reversed $58 $-1 #
coedge $-1 $144 $60 $145 $146 reversed $40 $-1 #
coedge $-1 $60 $144 $147 $148 reversed $40 $-1 #
coedge $-1 $62 $61 $60 $90 forward $32 $-1 #
edge $-1 $149 -40 $150 40 $89 $151 forward 7 unknown #
coedge $-1 $152 $145 $61 $92 forward $138 $-1 #
edge $153 $149 -45 $98 -20.825756949558397 $91 $154 forward 7 unknown #
coedge $-1 $147 $155 $62 $94 forward $156 $-1 #
edge $-1 $99 20.825756949558397 $150 45 $93 $157 forward 7 unknown #
coedge $-1 $142 $63 $155 $158 reversed $97 $-1 #
coedge $-1 $63 $159 $152 $160 reversed $97 $-1 #
loop $-1 $-1 $142 $161 #
vertex $-1 $64 $162 #
vertex $-1 $158 $163 #
straight-curve $-1 -20 -45.825756949558397 0 0 0 -1 I I #
model_id-kcp-attrib $-1 $-1 $-1 $66 1 990663520 60 -885260286 4 #
face $164 $165 $166 $23 $-1 $167 reversed single #
loop $-1 $-1 $168 $66 #
plane-surface $-1 0 -100 0 0 1 0 0 0 1 forward_v I I I I #
coedge $-1 $169 $170 $171 $172 forward $67 $-1 #
coedge $-1 $173 $69 $174 $175 forward $45 $-1 #
coedge $-1 $69 $173 $176 $177 forward $45 $-1 #
coedge $-1 $178 $179 $69 $109 reversed $180 $-1 #
edge $-1 $181 -100 $182 100 $108 $183 forward 7 unknown #
face $-1 $184 $185 $25 $-1 $186 forward single #
loop $-1 $-1 $187 $70 #
cone-surface $-1 0 0 -40 0 0 1 50 0 0 1 I I 0 1 50 forward I I I I #
coedge $-1 $188 $189 $190 $191 forward $71 $-1 #
coedge $-1 $192 $73 $189 $193 reversed $48 $-1 #
coedge $-1 $73 $192 $194 $195 forward $48 $-1 #
coedge $-1 $196 $190 $73 $117 reversed $197 $-1 #
edge $-1 $198 -20 $199 20 $73 $200 forward 7 unknown #
face $-1 $201 $202 $27 $-1 $203 forward single #
loop $-1 $-1 $204 $74 #
plane-surface $-1 -50 60 20 0 1 0 0 0 1 forward_v I I I I #
coedge $-1 $205 $206 $207 $208 forward $75 $-1 #
coedge $-1 $209 $77 $206 $210 reversed $51 $-1 #
coedge $-1 $77 $209 $211 $212 forward $51 $-1 #
coedge $-1 $213 $207 $77 $125 reversed $214 $-1 #
edge $-1 $215 50 $216 70 $77 $217 forward 7 unknown #
face $-1 $218 $219 $29 $-1 $220 forward single #
loop $-1 $-1 $221 $78 #
plane-surface $-1 -30 40 0 -1 0 0 0 0 1 forward_v I I I I #
coedge $-1 $222 $223 $224 $225 forward $79 $-1 #
coedge $-1 $226 $81 $223 $227 reversed $54 $-1 #
coedge $-1 $81 $226 $228 $229 forward $54 $-1 #
coedge $-1 $230 $224 $81 $133 reversed $231 $-1 #
edge $-1 $232 -30 $233 10 $81 $234 forward 7 unknown #
model_id-kcp-attrib $-1 $-1 $-1 $83 1 990663520 60 -885260287 6 #
face $235 $236 $237 $9 $-1 $137 forward single #
loop $-1 $-1 $238 $83 #
plane-surface $-1 0 40 30 0 1 0 0 0 1 forward_v I I I I #
loop $-1 $-1 $239 $57 #
coedge $-1 $240 $241 $242 $243 forward $84 $-1 #
coedge $-1 $244 $86 $245 $246 reversed $58 $-1 #
coedge $-1 $86 $244 $239 $247 reversed $58 $-1 #
coedge $-1 $248 $95 $86 $143 forward $97 $-1 #
edge $-1 $249 -40 $250 40 $142 $251 forward 7 unknown #
coedge $-1 $88 $87 $244 $252 forward $40 $-1 #
coedge $-1 $91 $239 $87 $146 forward $138 $-1 #
edge $253 $254 -20 $149 20 $145 $255 forward 7 unknown #
coedge $-1 $245 $93 $88 $148 forward $156 $-1 #
edge $-1 $150 -20 $256 20 $147 $257 forward 7 unknown #
vertex $-1 $146 $258 #
vertex $-1 $148 $259 #
straight-curve $-1 -20 -70 0 0 0 -1 I I #
coedge $-1 $260 $91 $96 $160 forward $138 $-1 #
attrib_edge_convexity-kcp-attrib $-1 $261 $-1 $92 1 #
straight-curve $-1 -20 -25 40 0 1 0 I I #
coedge $-1 $93 $245 $95 $158 forward $156 $-1 #
loop $-1 $262 $245 $263 #
straight-curve $-1 -20 -25 -40 0 -1 0 I I #
edge $-1 $249 -1.1592794807274085 $99 4.3008721343172018 $155 $264 forward 7 unknown #
coedge $-1 $96 $265 $238 $266 forward $97 $-1 #
edge $267 $98 1.9823131728623846 $268 4.0688878715914054 $152 $269 forward 7 unknown #
face $270 $263 $97 $9 $-1 $271 reversed single #
point $-1 -20 -45.825756949558397 40 #
point $-1 -20 -45.825756949558397 -40 #
model_id-kcp-attrib $-1 $-1 $-1 $102 1 990663520 60 -885260286 5 #
face $272 $273 $274 $23 $-1 $275 reversed single #
loop $-1 $-1 $276 $102 #
plane-surface $-1 -100 0 0 1 0 0 0 0 -1 forward_v I I I I #
coedge $-1 $277 $176 $278 $279 forward $103 $-1 #
coedge $-1 $280 $105 $277 $281 forward $67 $-1 #
coedge $-1 $105 $280 $282 $283 forward $67 $-1 #
coedge $-1 $179 $178 $105 $172 reversed $180 $-1 #
edge $-1 $284 -100 $285 100 $171 $286 forward 7 unknown #
coedge $-1 $107 $106 $287 $288 forward $45 $-1 #
coedge $-1 $289 $290 $106 $175 reversed $274 $-1 #
edge $-1 $182 -100 $291 100 $174 $292 forward 7 unknown #
coedge $-1 $168 $293 $107 $177 reversed $103 $-1 #
edge $-1 $294 -100 $181 100 $176 $295 forward 7 unknown #
coedge $-1 $171 $108 $293 $296 forward $180 $-1 #
coedge $-1 $108 $171 $289 $297 reversed $180 $-1 #
loop $-1 $-1 $178 $273 #
vertex $-1 $109 $298 #
vertex $-1 $109 $299 #
straight-curve $-1 100 0 40 0 1 0 I I #
face $-1 $300 $197 $25 $-1 $301 forward single #
loop $-1 $-1 $302 $110 #
plane-surface $-1 20 -45.825756949558397 -40 1 0 0 0 0 -1 forward_v I I I I #
coedge $-1 $303 $304 $305 $306 forward $111 $-1 #
coedge $-1 $307 $113 $304 $308 reversed $71 $-1 #
coedge $-1 $113 $307 $114 $193 forward $71 $-1 #
coedge $-1 $116 $305 $113 $191 reversed $197 $-1 #
edge $-1 $199 -45 $309 -20.825756949558397 $113 $310 forward 7 unknown #
coedge $-1 $115 $114 $311 $312 forward $48 $-1 #
edge $-1 $313 0 $199 80 $189 $314 forward 7 unknown #
coedge $-1 $315 $302 $115 $195 reversed $185 $-1 #
edge $-1 $316 0 $198 80 $115 $317 forward 7 unknown #
coedge $-1 $305 $116 $302 $318 reversed $197 $-1 #
loop $-1 $-1 $116 $184 #
vertex $-1 $195 $319 #
vertex $-1 $193 $320 #
straight-curve $-1 0 -70 40 -1 0 0 I I #
face $-1 $321 $322 $27 $-1 $323 forward single #
loop $-1 $-1 $324 $118 #
plane-surface $-1 -30 60 20 -1 0 0 0 0 1 forward_v I I I I #
coedge $-1 $325 $326 $327 $328 forward $119 $-1 #
coedge $-1 $329 $121 $326 $330 reversed $75 $-1 #
coedge $-1 $121 $329 $122 $210 forward $75 $-1 #
coedge $-1 $124 $327 $121 $208 reversed $214 $-1 #
edge $-1 $216 -10 $331 10 $121 $332 forward 7 unknown #
coedge $-1 $123 $122 $333 $334 reversed $51 $-1 #
edge $335 $336 0 $216 20 $206 $337 forward 7 unknown #
coedge $-1 $338 $339 $123 $212 reversed $340 $-1 #
edge $-1 $341 0 $215 20 $123 $342 forward 7 unknown #
coedge $-1 $343 $124 $339 $344 reversed $214 $-1 #
loop $-1 $-1 $124 $345 #
vertex $-1 $212 $346 #
vertex $-1 $210 $347 #
straight-curve $-1 20 40 40 -1 0 0 I I #
face $-1 $348 $231 $29 $-1 $349 forward single #
loop $-1 $-1 $350 $126 #
plane-surface $-1 -30 80 0 0 1 0 0 0 1 forward_v I I I I #
coedge $-1 $351 $352 $353 $354 forward $127 $-1 #
coedge $-1 $355 $129 $352 $356 reversed $79 $-1 #
coedge $-1 $129 $355 $130 $227 forward $79 $-1 #
coedge $-1 $132 $353 $129 $225 reversed $231 $-1 #
edge $-1 $233 0.92729521800161219 $357 2.2142974355881808 $129 $358 forward 7 unknown #
coedge $-1 $131 $130 $359 $360 reversed $54 $-1 #
edge $-1 $361 0 $233 20 $223 $362 forward 7 unknown #
coedge $-1 $363 $350 $131 $229 reversed $219 $-1 #
edge $364 $365 0 $232 20 $131 $366 forward 7 unknown #
coedge $-1 $353 $132 $350 $367 reversed $231 $-1 #
loop $-1 $-1 $132 $218 #
vertex $-1 $229 $368 #
vertex $-1 $227 $369 #
straight-curve $-1 30 50 20 0 -1 0 I I #
model_id-kcp-attrib $-1 $-1 $-1 $135 1 990663520 60 -885260287 7 #
face $370 $371 $372 $9 $-1 $373 forward single #
loop $-1 $-1 $374 $135 #
coedge $-1 $375 $376 $159 $266 reversed $136 $-1 #
coedge $-1 $145 $377 $141 $247 forward $138 $-1 #
coedge $-1 $378 $139 $379 $380 forward $84 $-1 #
coedge $-1 $139 $378 $381 $382 forward $84 $-1 #
coedge $-1 $383 $384 $139 $243 reversed $385 $-1 #
edge $386 $387 -100 $388 100 $242 $389 forward 7 unknown #
coedge $-1 $141 $140 $144 $252 reversed $58 $-1 #
coedge $-1 $155 $147 $140 $246 forward $156 $-1 #
edge $-1 $256 -45 $249 -20.825756949558397 $245 $390 forward 7 unknown #
edge $391 $250 20.825756949558397 $254 45 $239 $392 forward 7 unknown #
coedge $-1 $393 $142 $377 $394 reversed $97 $-1 #
vertex $-1 $246 $395 #
vertex $-1 $394 $396 #
straight-curve $-1 20 -45.825756949558397 0 0 0 1 I I #
edge $-1 $254 -40 $256 40 $244 $397 forward 7 unknown #
attrib_edge_convexity-kcp-attrib $-1 $398 $-1 $146 1 #
vertex $-1 $146 $399 #
straight-curve $-1 0 -70 40 -1 0 0 I I #
vertex $-1 $148 $400 #
straight-curve $-1 0 -70 -40 1 0 0 I I #
point $-1 -20 -70 40 #
point $-1 -20 -70 -40 #
coedge $-1 $401 $152 $376 $402 forward $138 $-1 #
convexity-sys-attrib $-1 $-1 $153 $92 #
loop $-1 $-1 $403 $263 #
face $404 $405 $156 $9 $-1 $406 reversed single #
ellipse-curve $-1 0 0 -40 0 0 1 50 0 0 1 I I #
coedge $-1 $159 $407 $408 $409 forward $97 $-1 #
edge $-1 $410 20 $268 40 $159 $411 forward 7 unknown #
attrib_edge_convexity-kcp-attrib $-1 $412 $-1 $160 1 #
vertex $-1 $160 $413 #
ellipse-curve $-1 0 0 40 0 0 -1 50 0 0 1 I I #
model_id-kcp-attrib $-1 $-1 $-1 $161 1 990663520 60 -885260287 18 #
cone-surface $-1 0 0 0 0 0 1 50 0 0 1 I I 0 1 50 forward I I I I #
model_id-kcp-attrib $-1 $-1 $-1 $165 1 990663520 60 -885260286 6 #
face $414 $-1 $180 $23 $-1 $415 reversed single #
loop $-1 $-1 $289 $165 #
plane-surface $-1 0 100 0 0 -1 0 0 0 -1 forward_v I I I I #
coedge $-1 $416 $287 $290 $417 forward $166 $-1 #
coedge $-1 $293 $168 $169 $281 reversed $103 $-1 #
coedge $-1 $287 $416 $168 $279 reversed $166 $-1 #
edge $-1 $294 -40 $418 40 $278 $419 forward 7 unknown #
coedge $-1 $170 $169 $416 $420 forward $67 $-1 #
edge $-1 $285 -100 $418 100 $277 $421 forward 7 unknown #
coedge $-1 $290 $289 $170 $283 reversed $274 $-1 #
edge $-1 $422 -100 $284 100 $282 $423 forward 7 unknown #
vertex $-1 $172 $424 #
vertex $-1 $296 $425 #
straight-curve $-1 100 0 -40 0 -1 0 I I #
coedge $-1 $276 $278 $173 $288 reversed $166 $-1 #
edge $-1 $291 -100 $294 100 $287 $426 forward 7 unknown #
coedge $-1 $282 $174 $179 $297 forward $274 $-1 #
coedge $-1 $174 $282 $276 $417 reversed $274 $-1 #
vertex $-1 $175 $427 #
straight-curve $-1 0 100 40 -1 0 0 I I #
coedge $-1 $176 $277 $178 $296 reversed $103 $-1 #
vertex $-1 $288 $428 #
straight-curve $-1 0 -100 40 1 0 0 I I #
edge $-1 $181 -40 $285 40 $178 $429 forward 7 unknown #
edge $-1 $182 -40 $284 40 $179 $430 forward 7 unknown #
point $-1 100 -100 40 #
point $-1 100 100 40 #
face $-1 $-1 $431 $25 $-1 $432 reversed single #
plane-surface $-1 0 -13.738691122583415 39.999999999999986 0 0 1 1 0 0 forward_v I I I I #
coedge $-1 $194 $433 $196 $318 forward $185 $-1 #
coedge $-1 $434 $187 $433 $435 reversed $111 $-1 #
coedge $-1 $187 $434 $188 $308 forward $111 $-1 #
coedge $-1 $190 $196 $187 $306 reversed $197 $-1 #
edge $-1 $309 1.9823131728623846 $436 7.4424647879069949 $187 $437 forward 7 unknown #
coedge $-1 $189 $188 $438 $439 forward $71 $-1 #
edge $-1 $440 0 $309 80 $304 $441 forward 7 unknown #
vertex $-1 $308 $442 #
straight-curve $-1 -20 -25 40 0 1 0 I I #
coedge $-1 $438 $443 $192 $312 reversed $431 $-1 #
edge $-1 $313 -20 $316 20 $192 $444 forward 7 unknown #
vertex $-1 $439 $445 #
straight-curve $-1 -20 -70 -40 0 0 1 I I #
coedge $-1 $433 $194 $443 $446 forward $185 $-1 #
vertex $-1 $446 $447 #
straight-curve $-1 20 -70 -40 0 0 1 I I #
edge $-1 $436 20.825756949558397 $198 45 $302 $448 forward 7 unknown #
point $-1 20 -70 40 #
point $-1 -20 -70 40 #
face $-1 $449 $450 $27 $-1 $451 forward single #
loop $-1 $-1 $452 $201 #
plane-surface $-1 -30 80 20 0 1 0 0 0 1 forward_v I I I I #
coedge $-1 $453 $454 $455 $456 forward $202 $-1 #
coedge $-1 $457 $204 $454 $458 reversed $119 $-1 #
coedge $-1 $204 $457 $205 $330 forward $119 $-1 #
coedge $-1 $207 $455 $204 $328 reversed $214 $-1 #
edge $-1 $331 -70 $459 -50 $204 $460 forward 7 unknown #
coedge $-1 $206 $205 $461 $462 reversed $75 $-1 #
edge $-1 $463 0 $331 20 $326 $464 forward 7 unknown #
vertex $-1 $330 $465 #
straight-curve $-1 -50 50 40 0 1 0 I I #
coedge $-1 $461 $466 $209 $334 forward $467 $-1 #
edge $468 $341 50 $336 70 $209 $469 forward 7 unknown #
convexity-sys-attrib $-1 $-1 $-1 $210 #
vertex $-1 $334 $470 #
straight-curve $-1 -50 40 20 0 0 1 I I #
coedge $-1 $471 $211 $466 $472 reversed $340 $-1 #
coedge $-1 $211 $471 $213 $344 forward $340 $-1 #
loop $-1 $-1 $339 $473 #
vertex $-1 $472 $474 #
straight-curve $-1 -30 40 20 0 0 1 I I #
coedge $-1 $475 $213 $476 $477 reversed $214 $-1 #
edge $-1 $478 0.92729521800161219 $215 2.2142974355881808 $339 $479 forward 7 unknown #
face $-1 $480 $214 $27 $-1 $481 forward single #
point $-1 -30 40 40 #
point $-1 -50 40 40 #
face $-1 $-1 $482 $29 $-1 $483 reversed single #
plane-surface $-1 1.7763568394002505e-015 61.450945873325111 20 0 0 1 1 0 0 forward_v I I I I #
coedge $-1 $228 $484 $230 $367 forward $219 $-1 #
coedge $-1 $485 $221 $484 $486 reversed $127 $-1 #
coedge $-1 $221 $485 $222 $356 forward $127 $-1 #
coedge $-1 $224 $230 $221 $354 reversed $231 $-1 #
edge $-1 $357 -10 $487 30 $221 $488 forward 7 unknown #
coedge $-1 $223 $222 $489 $490 reversed $79 $-1 #
edge $-1 $491 0 $357 20 $352 $492 forward 7 unknown #
vertex $-1 $356 $493 #
ellipse-curve $-1 0 0 20 0 0 1 50 0 0 1 I I #
coedge $-1 $489 $494 $226 $360 forward $482 $-1 #
edge $495 $365 -30 $361 10 $226 $496 forward 7 unknown #
vertex $-1 $360 $497 #
straight-curve $-1 30 40 0 0 0 1 I I #
coedge $-1 $484 $228 $494 $498 reversed $219 $-1 #
convexity-sys-attrib $-1 $-1 $-1 $229 #
vertex $-1 $498 $499 #
straight-curve $-1 30 80 0 0 0 1 I I #
edge $-1 $487 -30 $232 30 $350 $500 forward 7 unknown #
point $-1 30 80 20 #
point $-1 30 40 20 #
model_id-kcp-attrib $-1 $-1 $-1 $236 1 990663520 60 -885260287 8 #
face $501 $502 $503 $9 $-1 $504 forward single #
loop $-1 $-1 $505 $236 #
plane-surface $-1 0 60 30 0 -1 0 0 0 -1 forward_v I I I I #
coedge $-1 $506 $507 $393 $508 reversed $237 $-1 #
coedge $-1 $509 $238 $510 $511 forward $136 $-1 #
coedge $-1 $238 $509 $260 $402 reversed $136 $-1 #
coedge $-1 $239 $512 $248 $394 forward $138 $-1 #
coedge $-1 $241 $240 $513 $514 forward $84 $-1 #
coedge $-1 $515 $516 $240 $380 reversed $517 $-1 #
edge $518 $388 -100 $519 100 $379 $520 forward 7 unknown #
coedge $-1 $521 $522 $241 $382 reversed $523 $-1 #
edge $524 $525 -100 $387 100 $381 $526 forward 7 unknown #
coedge $-1 $527 $242 $522 $528 forward $385 $-1 #
coedge $-1 $242 $527 $515 $529 reversed $385 $-1 #
loop $-1 $-1 $383 $530 #
attrib_edge_convexity-kcp-attrib $-1 $531 $-1 $243 1 #
vertex $-1 $243 $532 #
vertex $-1 $243 $533 #
straight-curve $-1 100 0 40 0 1 0 I I #
straight-curve $-1 20 -25 -40 0 1 0 I I #
attrib_edge_convexity-kcp-attrib $-1 $534 $-1 $247 1 #
straight-curve $-1 20 -25 40 0 -1 0 I I #
coedge $-1 $535 $248 $374 $508 forward $97 $-1 #
edge $536 $537 -0.92729521800161219 $250 1.1592794807274085 $377 $269 forward 7 unknown #
point $-1 20 -45.825756949558397 -40 #
point $-1 20 -45.825756949558397 40 #
straight-curve $-1 20 -70 0 0 0 -1 I I #
convexity-sys-attrib $-1 $-1 $253 $146 #
point $-1 20 -70 40 #
point $-1 20 -70 -40 #
coedge $-1 $538 $260 $539 $540 forward $138 $-1 #
edge $541 $268 30 $542 50 $260 $543 forward 7 unknown #
coedge $-1 $544 $545 $527 $546 forward $262 $-1 #
model_id-kcp-attrib $-1 $-1 $-1 $263 1 990663520 60 -885260287 19 #
face $547 $548 $523 $9 $-1 $549 reversed single #
plane-surface $-1 0 0 -40 0 0 1 1 0 0 forward_v I I I I #
coedge $-1 $265 $535 $550 $551 forward $97 $-1 #
coedge $-1 $552 $553 $265 $409 reversed $554 $-1 #
edge $-1 $555 0 $410 20 $265 $411 forward 7 unknown #
vertex $-1 $409 $556 #
straight-curve $-1 -30 40 0 0 0 1 I I #
convexity-sys-attrib $-1 $-1 $267 $160 #
point $-1 -30 40 40 #
model_id-kcp-attrib $-1 $-1 $-1 $273 1 990663520 60 -885260286 7 #
plane-surface $-1 100 0 0 -1 0 0 0 0 1 forward_v I I I I #
coedge $-1 $278 $276 $280 $420 reversed $166 $-1 #
edge $-1 $291 -40 $422 40 $290 $557 forward 7 unknown #
vertex $-1 $420 $558 #
straight-curve $-1 -100 -100 0 0 0 -1 I I #
edge $-1 $418 -100 $422 100 $416 $559 forward 7 unknown #
straight-curve $-1 0 -100 -40 -1 0 0 I I #
vertex $-1 $283 $560 #
straight-curve $-1 0 100 -40 1 0 0 I I #
point $-1 100 100 -40 #
point $-1 100 -100 -40 #
straight-curve $-1 -100 0 40 0 -1 0 I I #
point $-1 -100 100 40 #
point $-1 -100 -100 40 #
straight-curve $-1 100 -100 0 0 0 -1 I I #
straight-curve $-1 100 100 0 0 0 -1 I I #
loop $-1 $-1 $443 $300 #
plane-surface $-1 0 -13.738691122583415 -40.000000000000014 0 0 1 1 0 0 forward_v I I I I #
coedge $-1 $302 $315 $303 $435 forward $185 $-1 #
coedge $-1 $304 $303 $561 $562 forward $111 $-1 #
edge $-1 $563 0 $436 80 $433 $564 forward 7 unknown #
vertex $-1 $435 $565 #
ellipse-curve $-1 0 0 40 0 0 -1 50 0 0 1 I I #
coedge $-1 $561 $311 $307 $439 reversed $431 $-1 #
edge $-1 $440 20.825756949558397 $313 45 $307 $566 forward 7 unknown #
vertex $-1 $562 $567 #
straight-curve $-1 -20 -45.825756949558397 -40 0 0 1 I I #
point $-1 -20 -45.825756949558397 40 #
coedge $-1 $311 $561 $315 $446 reversed $431 $-1 #
straight-curve $-1 0 -70 -40 1 0 0 I I #
point $-1 -20 -70 -40 #
edge $-1 $316 -45 $563 -20.825756949558397 $315 $568 forward 7 unknown #
point $-1 20 -70 -40 #
straight-curve $-1 20 -25 40 0 -1 0 I I #
face $-1 $569 $570 $27 $-1 $571 forward single #
loop $-1 $-1 $572 $321 #
plane-surface $-1 30 80 20 1 0 0 0 0 -1 forward_v I I I I #
coedge $-1 $573 $574 $575 $576 forward $322 $-1 #
coedge $-1 $577 $324 $574 $578 reversed $202 $-1 #
coedge $-1 $324 $577 $325 $458 forward $202 $-1 #
coedge $-1 $327 $575 $324 $456 reversed $214 $-1 #
edge $-1 $459 15 $579 35 $324 $580 forward 7 unknown #
coedge $-1 $326 $325 $581 $582 reversed $119 $-1 #
edge $-1 $583 0 $459 20 $454 $584 forward 7 unknown #
vertex $-1 $458 $585 #
straight-curve $-1 20 60 40 1 0 0 I I #
coedge $-1 $581 $333 $329 $462 forward $467 $-1 #
edge $586 $336 -10 $463 10 $329 $587 forward 7 unknown #
vertex $-1 $462 $588 #
straight-curve $-1 -50 60 20 0 0 1 I I #
point $-1 -50 60 40 #
coedge $-1 $333 $589 $338 $472 forward $467 $-1 #
loop $-1 $-1 $466 $480 #
convexity-sys-attrib $-1 $-1 $-1 $334 #
straight-curve $-1 20 40 20 -1 0 0 I I #
point $-1 -50 40 20 #
coedge $-1 $339 $338 $590 $591 forward $340 $-1 #
edge $592 $593 0.92729521800161219 $341 2.2142974355881808 $338 $594 forward 7 unknown #
face $-1 $345 $340 $27 $-1 $595 forward single #
point $-1 -30 40 20 #
coedge $-1 $596 $343 $597 $598 reversed $214 $-1 #
coedge $-1 $590 $599 $343 $477 forward $600 $-1 #
edge $-1 $601 -30 $478 -10 $476 $602 forward 7 unknown #
vertex $-1 $591 $603 #
ellipse-curve $-1 0 0 40 0 0 1 50 0 0 1 I I #
face $-1 $-1 $467 $27 $-1 $604 reversed single #
plane-surface $-1 0 58.229298914816368 40 0 0 1 1 0 0 forward_v I I I I #
loop $-1 $-1 $494 $348 #
plane-surface $-1 1.7763568394002505e-015 61.450945873325111 0 0 0 1 1 0 0 forward_v I I I I #
coedge $-1 $350 $363 $351 $486 forward $219 $-1 #
coedge $-1 $352 $351 $605 $606 reversed $127 $-1 #
edge $607 $608 0 $487 20 $484 $609 forward 7 unknown #
vertex $-1 $486 $610 #
straight-curve $-1 -30 50 20 0 1 0 I I #
coedge $-1 $605 $359 $355 $490 forward $482 $-1 #
edge $611 $361 0.92729521800161219 $491 2.2142974355881808 $355 $612 forward 7 unknown #
vertex $-1 $490 $613 #
straight-curve $-1 -30 40 0 0 0 1 I I #
point $-1 -30 40 20 #
coedge $-1 $359 $605 $363 $498 forward $482 $-1 #
convexity-sys-attrib $-1 $-1 $-1 $360 #
straight-curve $-1 30 50 0 0 -1 0 I I #
point $-1 30 40 0 #
edge $614 $608 -30 $365 30 $363 $615 forward 7 unknown #
point $-1 30 80 0 #
straight-curve $-1 8.8817841970012523e-016 80 20 1 0 0 I I #
model_id-kcp-attrib $-1 $-1 $-1 $371 1 990663520 60 -885260287 9 #
face $616 $617 $618 $9 $-1 $504 forward single #
loop $-1 $-1 $619 $371 #
plane-surface $-1 0 50 20 0 0 1 1 0 0 forward_v I I I I #
coedge $-1 $620 $621 $622 $623 reversed $372 $-1 #
coedge $-1 $624 $374 $512 $625 reversed $237 $-1 #
coedge $-1 $374 $624 $626 $627 forward $237 $-1 #
edge $-1 $537 -40 $628 -20 $393 $629 forward 7 unknown #
coedge $-1 $376 $375 $630 $631 reversed $136 $-1 #
coedge $-1 $619 $632 $375 $511 reversed $503 $-1 #
edge $-1 $410 30 $633 50 $375 $634 forward 7 unknown #
coedge $-1 $377 $635 $506 $625 forward $138 $-1 #
coedge $-1 $636 $637 $378 $514 reversed $638 $-1 #
edge $639 $519 -100 $525 100 $513 $640 forward 7 unknown #
coedge $-1 $641 $379 $384 $529 forward $517 $-1 #
coedge $-1 $379 $641 $636 $642 reversed $517 $-1 #
loop $-1 $-1 $515 $643 #
attrib_edge_convexity-kcp-attrib $-1 $644 $-1 $380 1 #
vertex $-1 $380 $645 #
straight-curve $-1 0 100 40 -1 0 0 I I #
coedge $-1 $646 $381 $637 $647 forward $523 $-1 #
coedge $-1 $381 $646 $383 $528 reversed $523 $-1 #
loop $-1 $-1 $521 $405 #
attrib_edge_convexity-kcp-attrib $-1 $648 $-1 $382 1 #
vertex $-1 $514 $649 #
straight-curve $-1 0 -100 40 1 0 0 I I #
coedge $-1 $384 $383 $403 $546 reversed $385 $-1 #
edge $650 $387 -40 $651 40 $383 $652 forward 7 unknown #
edge $-1 $388 -40 $653 40 $384 $654 forward 7 unknown #
face $655 $-1 $385 $9 $-1 $656 reversed single #
convexity-sys-attrib $-1 $-1 $386 $243 #
point $-1 100 -100 40 #
point $-1 100 100 40 #
convexity-sys-attrib $-1 $-1 $391 $247 #
coedge $-1 $407 $393 $657 $658 forward $97 $-1 #
attrib_edge_convexity-kcp-attrib $-1 $659 $-1 $394 1 #
vertex $-1 $508 $660 #
coedge $-1 $661 $401 $620 $662 forward $138 $-1 #
coedge $-1 $630 $663 $401 $540 reversed $664 $-1 #
edge $665 $542 15 $666 35 $401 $667 forward 7 unknown #
attrib_edge_convexity-kcp-attrib $-1 $668 $-1 $402 1 #
vertex $-1 $402 $669 #
straight-curve $-1 0 40 40 -1 0 0 I I #
coedge $-1 $670 $403 $646 $671 forward $262 $-1 #
coedge $-1 $403 $670 $641 $672 forward $262 $-1 #
edge $-1 $653 -100 $651 100 $527 $673 forward 7 unknown #
model_id-kcp-attrib $-1 $-1 $-1 $405 1 990663520 60 -885260287 20 #
face $674 $643 $638 $9 $-1 $675 reversed single #
plane-surface $-1 0 -100 0 0 1 0 0 0 1 forward_v I I I I #
coedge $-1 $676 $677 $407 $551 reversed $678 $-1 #
edge $-1 $679 0.92729521800161219 $555 2.2142974355881808 $407 $680 forward 7 unknown #
coedge $-1 $681 $408 $677 $682 forward $554 $-1 #
coedge $-1 $408 $622 $619 $683 forward $554 $-1 #
loop $-1 $-1 $622 $684 #
vertex $-1 $551 $685 #
point $-1 -30 40 20 #
straight-curve $-1 -100 100 0 0 0 -1 I I #
point $-1 -100 -100 -40 #
straight-curve $-1 -100 0 -40 0 1 0 I I #
point $-1 -100 100 -40 #
coedge $-1 $443 $438 $434 $562 reversed $431 $-1 #
edge $-1 $563 -1.1592794807274085 $440 4.3008721343172018 $434 $686 forward 7 unknown #
vertex $-1 $446 $687 #
straight-curve $-1 20 -45.825756949558397 -40 0 0 1 I I #
point $-1 20 -45.825756949558397 40 #
straight-curve $-1 -20 -25 -40 0 -1 0 I I #
point $-1 -20 -45.825756949558397 -40 #
straight-curve $-1 20 -25 -40 0 1 0 I I #
face $-1 $688 $689 $27 $-1 $690 forward single #
loop $-1 $-1 $691 $449 #
plane-surface $-1 30 60 20 0 1 0 0 0 1 forward_v I I I I #
coedge $-1 $692 $693 $694 $695 forward $450 $-1 #
coedge $-1 $696 $452 $693 $697 reversed $322 $-1 #
coedge $-1 $452 $696 $453 $578 forward $322 $-1 #
coedge $-1 $455 $694 $452 $576 reversed $214 $-1 #
edge $-1 $579 -50 $698 10 $452 $699 forward 7 unknown #
coedge $-1 $454 $453 $700 $701 reversed $202 $-1 #
edge $-1 $702 0 $579 20 $574 $703 forward 7 unknown #
vertex $-1 $578 $704 #
straight-curve $-1 -30 45 40 0 1 0 I I #
coedge $-1 $700 $461 $457 $582 forward $467 $-1 #
edge $705 $463 -70 $583 -50 $457 $706 forward 7 unknown #
vertex $-1 $582 $707 #
straight-curve $-1 -30 60 20 0 0 1 I I #
point $-1 -30 60 40 #
convexity-sys-attrib $-1 $-1 $-1 $462 #
straight-curve $-1 -50 50 20 0 1 0 I I #
point $-1 -50 60 20 #
coedge $-1 $466 $708 $709 $710 forward $467 $-1 #
coedge $-1 $709 $476 $471 $591 reversed $600 $-1 #
edge $-1 $593 0 $478 20 $471 $711 forward 7 unknown #
convexity-sys-attrib $-1 $-1 $-1 $472 #
vertex $-1 $472 $712 #
ellipse-curve $-1 0 0 20 0 0 1 50 0 0 1 I I #
cone-surface $-1 0 0 20 0 0 1 50 0 0 1 I I 0 -1 50 forward I I I I #
coedge $-1 $694 $475 $691 $713 reversed $214 $-1 #
coedge $-1 $714 $715 $475 $598 forward $689 $-1 #
edge $-1 $716 -10 $601 10 $597 $717 forward 7 unknown #
coedge $-1 $476 $709 $714 $718 forward $600 $-1 #
loop $-1 $-1 $476 $688 #
vertex $-1 $718 $719 #
straight-curve $-1 20 40 40 -1 0 0 I I #
point $-1 30 40 40 #
plane-surface $-1 0 58.229298914816368 19.999999999999996 0 0 1 1 0 0 forward_v I I I I #
coedge $-1 $494 $489 $485 $606 forward $482 $-1 #
edge $720 $491 -10 $608 30 $485 $721 forward 7 unknown #
convexity-sys-attrib $-1 $-1 $-1 $486 #
vertex $-1 $498 $722 #
straight-curve $-1 -30 80 0 0 0 1 I I #
point $-1 -30 80 20 #
convexity-sys-attrib $-1 $-1 $-1 $490 #
ellipse-curve $-1 0 0 0 0 0 1 50 0 0 1 I I #
point $-1 -30 40 0 #
convexity-sys-attrib $-1 $-1 $-1 $498 #
straight-curve $-1 8.8817841970012523e-016 80 0 1 0 0 I I #
model_id-kcp-attrib $-1 $-1 $-1 $502 1 990663520 60 -885260287 10 #
face $723 $724 $664 $9 $-1 $725 forward single #
loop $-1 $-1 $726 $502 #
coedge $-1 $727 $510 $553 $683 reversed $503 $-1 #
coedge $-1 $728 $505 $538 $662 reversed $372 $-1 #
coedge $-1 $505 $728 $727 $729 forward $372 $-1 #
coedge $-1 $553 $730 $505 $623 forward $554 $-1 #
edge $-1 $731 -15 $732 5 $622 $733 forward 7 unknown #
coedge $-1 $507 $506 $734 $735 forward $237 $-1 #
edge $736 $737 -50 $537 -30 $512 $543 forward 7 unknown #
coedge $-1 $738 $726 $507 $627 reversed $618 $-1 #
edge $-1 $739 -50 $628 -30 $507 $634 forward 7 unknown #
vertex $-1 $508 $740 #
straight-curve $-1 30 40 0 0 0 -1 I I #
coedge $-1 $741 $539 $509 $631 forward $664 $-1 #
edge $-1 $542 -10 $633 10 $630 $742 forward 7 unknown #
coedge $-1 $510 $727 $741 $743 reversed $503 $-1 #
vertex $-1 $743 $744 #
straight-curve $-1 0 40 20 -1 0 0 I I #
coedge $-1 $512 $745 $746 $747 forward $138 $-1 #
coedge $-1 $748 $513 $516 $642 forward $638 $-1 #
coedge $-1 $513 $748 $521 $647 reversed $638 $-1 #
loop $-1 $-1 $636 $548 #
attrib_edge_convexity-kcp-attrib $-1 $749 $-1 $514 1 #
straight-curve $-1 -100 0 40 0 -1 0 I I #
coedge $-1 $516 $515 $545 $672 reversed $517 $-1 #
edge $750 $519 -40 $751 40 $516 $752 forward 7 unknown #
face $753 $530 $517 $9 $-1 $754 reversed single #
convexity-sys-attrib $-1 $-1 $518 $380 #
point $-1 -100 100 40 #
coedge $-1 $522 $521 $544 $671 reversed $523 $-1 #
edge $755 $525 -40 $756 40 $637 $757 forward 7 unknown #
convexity-sys-attrib $-1 $-1 $524 $382 #
point $-1 -100 -100 40 #
attrib_edge_convexity-kcp-attrib $-1 $758 $-1 $528 1 #
vertex $-1 $528 $759 #
straight-curve $-1 100 -100 0 0 0 -1 I I #
vertex $-1 $546 $760 #
straight-curve $-1 100 100 0 0 0 -1 I I #
model_id-kcp-attrib $-1 $-1 $-1 $530 1 990663520 60 -885260287 23 #
plane-surface $-1 100 0 0 -1 0 0 0 0 1 forward_v I I I I #
coedge $-1 $761 $762 $535 $658 reversed $763 $-1 #
edge $-1 $628 -20 $679 0 $535 $629 forward 7 unknown #
convexity-sys-attrib $-1 $-1 $536 $394 #
point $-1 30 40 40 #
coedge $-1 $764 $538 $730 $765 forward $138 $-1 #
edge $766 $666 -50 $731 -30 $538 $767 forward 7 unknown #
coedge $-1 $539 $741 $728 $768 reversed $664 $-1 #
loop $-1 $-1 $663 $617 #
attrib_edge_convexity-kcp-attrib $-1 $769 $-1 $540 1 #
vertex $-1 $540 $770 #
straight-curve $-1 -50 25 40 0 1 0 I I #
convexity-sys-attrib $-1 $-1 $541 $402 #
point $-1 -50 40 40 #
coedge $-1 $545 $544 $748 $771 forward $262 $-1 #
edge $772 $651 -100 $756 100 $646 $773 forward 7 unknown #
edge $-1 $751 -100 $653 100 $641 $774 forward 7 unknown #
straight-curve $-1 100 0 -40 0 -1 0 I I #
model_id-kcp-attrib $-1 $-1 $-1 $548 1 990663520 60 -885260287 21 #
plane-surface $-1 -100 0 0 1 0 0 0 0 -1 forward_v I I I I #
coedge $-1 $775 $550 $762 $776 reversed $678 $-1 #
coedge $-1 $550 $775 $552 $682 reversed $678 $-1 #
loop $-1 $-1 $550 $777 #
vertex $-1 $551 $778 #
ellipse-curve $-1 0 0 0 0 0 1 50 0 0 1 I I #
coedge $-1 $730 $552 $779 $780 reversed $554 $-1 #
edge $-1 $555 0 $781 40 $552 $782 forward 7 unknown #
edge $-1 $732 -15 $410 5 $553 $783 forward 7 unknown #
face $784 $785 $554 $9 $-1 $786 forward single #
point $-1 -30 40 0 #
ellipse-curve $-1 0 0 -40 0 0 1 50 0 0 1 I I #
point $-1 20 -45.825756949558397 -40 #
face $-1 $473 $600 $27 $-1 $787 forward single #
loop $-1 $-1 $597 $569 #
plane-surface $-1 50 60 20 1 0 0 0 0 -1 forward_v I I I I #
coedge $-1 $788 $789 $596 $713 forward $570 $-1 #
coedge $-1 $790 $572 $789 $791 reversed $450 $-1 #
coedge $-1 $572 $790 $573 $697 forward $450 $-1 #
coedge $-1 $575 $596 $572 $695 reversed $214 $-1 #
edge $-1 $698 -35 $792 -15 $572 $793 forward 7 unknown #
coedge $-1 $574 $573 $794 $795 reversed $322 $-1 #
edge $-1 $796 0 $698 20 $693 $797 forward 7 unknown #
vertex $-1 $697 $798 #
straight-curve $-1 20 80 40 1 0 0 I I #
coedge $-1 $794 $581 $577 $701 forward $467 $-1 #
edge $799 $583 15 $702 35 $577 $800 forward 7 unknown #
vertex $-1 $701 $801 #
straight-curve $-1 -30 80 20 0 0 1 I I #
point $-1 -30 80 40 #
convexity-sys-attrib $-1 $-1 $-1 $582 #
straight-curve $-1 20 60 20 1 0 0 I I #
point $-1 -30 60 20 #
coedge $-1 $589 $802 $803 $804 forward $467 $-1 #
coedge $-1 $599 $590 $589 $710 reversed $600 $-1 #
edge $805 $806 -30 $593 -10 $709 $807 forward 7 unknown #
straight-curve $-1 30 40 20 0 0 1 I I #
point $-1 30 40 20 #
edge $-1 $792 10 $716 30 $691 $808 forward 7 unknown #
coedge $-1 $803 $597 $599 $718 reversed $689 $-1 #
coedge $-1 $597 $803 $788 $809 forward $689 $-1 #
vertex $-1 $809 $810 #
straight-curve $-1 50 50 40 0 -1 0 I I #
edge $-1 $806 0 $601 20 $599 $811 forward 7 unknown #
point $-1 50 40 40 #
convexity-sys-attrib $-1 $-1 $-1 $606 #
straight-curve $-1 -30 50 0 0 1 0 I I #
point $-1 -30 80 0 #
model_id-kcp-attrib $-1 $-1 $-1 $617 1 990663520 60 -885260287 11 #
face $812 $813 $814 $9 $-1 $373 forward single #
plane-surface $-1 -50 50 30 1 0 0 0 0 -1 forward_v I I I I #
coedge $-1 $626 $815 $761 $816 reversed $618 $-1 #
coedge $-1 $632 $619 $621 $729 reversed $503 $-1 #
coedge $-1 $621 $620 $663 $768 forward $372 $-1 #
edge $-1 $817 -50 $732 -30 $621 $818 forward 7 unknown #
coedge $-1 $622 $681 $661 $765 reversed $554 $-1 #
vertex $-1 $623 $819 #
vertex $-1 $683 $820 #
straight-curve $-1 -30 60 25 0 0 -1 I I #
coedge $-1 $746 $821 $624 $735 reversed $822 $-1 #
edge $-1 $737 -10 $739 10 $734 $823 forward 7 unknown #
attrib_edge_convexity-kcp-attrib $-1 $824 $-1 $625 1 #
vertex $-1 $625 $825 #
coedge $-1 $815 $626 $821 $826 reversed $618 $-1 #
vertex $-1 $735 $827 #
point $-1 30 40 20 #
coedge $-1 $663 $630 $632 $743 forward $664 $-1 #
straight-curve $-1 -50 40 30 0 0 -1 I I #
edge $-1 $633 -10 $817 10 $741 $828 forward 7 unknown #
point $-1 -50 40 20 #
coedge $-1 $635 $829 $830 $831 forward $138 $-1 #
coedge $-1 $832 $734 $635 $747 reversed $822 $-1 #
edge $833 $834 -35 $737 -15 $635 $835 forward 7 unknown #
coedge $-1 $637 $636 $670 $771 reversed $638 $-1 #
convexity-sys-attrib $-1 $-1 $639 $514 #
attrib_edge_convexity-kcp-attrib $-1 $836 $-1 $642 1 #
vertex $-1 $672 $837 #
straight-curve $-1 -100 100 0 0 0 -1 I I #
model_id-kcp-attrib $-1 $-1 $-1 $643 1 990663520 60 -885260287 22 #
plane-surface $-1 0 100 0 0 -1 0 0 0 -1 forward_v I I I I #
attrib_edge_convexity-kcp-attrib $-1 $838 $-1 $647 1 #
vertex $-1 $771 $839 #
straight-curve $-1 -100 -100 0 0 0 -1 I I #
convexity-sys-attrib $-1 $-1 $650 $528 #
point $-1 100 -100 -40 #
point $-1 100 100 -40 #
coedge $-1 $840 $657 $726 $816 forward $763 $-1 #
coedge $-1 $657 $841 $676 $776 forward $763 $-1 #
loop $-1 $-1 $840 $785 #
coedge $-1 $829 $661 $842 $843 forward $138 $-1 #
edge $844 $731 40 $845 60 $661 $846 forward 7 unknown #
attrib_edge_convexity-kcp-attrib $-1 $847 $-1 $662 1 #
straight-curve $-1 0 60 40 1 0 0 I I #
edge $-1 $666 -10 $817 10 $728 $848 forward 7 unknown #
convexity-sys-attrib $-1 $-1 $665 $540 #
point $-1 -50 60 40 #
edge $849 $756 -100 $751 100 $748 $850 forward 7 unknown #
attrib_edge_convexity-kcp-attrib $-1 $851 $-1 $671 1 #
straight-curve $-1 0 -100 -40 -1 0 0 I I #
straight-curve $-1 0 100 -40 1 0 0 I I #
coedge $-1 $677 $676 $852 $853 reversed $678 $-1 #
edge $-1 $854 -40 $679 0 $762 $855 forward 7 unknown #
face $856 $857 $678 $9 $-1 $858 forward single #
point $-1 30 40 0 #
coedge $-1 $852 $842 $681 $780 forward $859 $-1 #
edge $-1 $845 -20 $781 20 $779 $860 forward 7 unknown #
vertex $-1 $853 $861 #
straight-curve $-1 -30 40 0 0 1 0 I I #
straight-curve $-1 -30 45 20 0 -1 0 I I #
model_id-kcp-attrib $-1 $-1 $-1 $684 1 990663520 60 -885260287 14 #
face $862 $777 $763 $9 $-1 $863 forward single #
plane-surface $-1 -30 40 20 1 0 0 0 0 -1 forward_v I I I I #
plane-surface $-1 50 40 20 0 -1 0 0 0 -1 forward_v I I I I #
coedge $-1 $864 $691 $715 $809 reversed $570 $-1 #
coedge $-1 $691 $864 $692 $791 forward $570 $-1 #
coedge $-1 $693 $692 $865 $866 reversed $450 $-1 #
edge $-1 $867 0 $792 20 $789 $868 forward 7 unknown #
vertex $-1 $791 $869 #
straight-curve $-1 30 45 40 0 -1 0 I I #
coedge $-1 $865 $700 $696 $795 forward $467 $-1 #
edge $870 $702 -50 $796 10 $696 $871 forward 7 unknown #
vertex $-1 $795 $872 #
straight-curve $-1 30 80 20 0 0 1 I I #
point $-1 30 80 40 #
convexity-sys-attrib $-1 $-1 $-1 $701 #
straight-curve $-1 -30 45 20 0 1 0 I I #
point $-1 -30 80 20 #
coedge $-1 $708 $865 $864 $873 forward $467 $-1 #
coedge $-1 $715 $714 $708 $804 reversed $689 $-1 #
edge $874 $875 -10 $806 10 $803 $876 forward 7 unknown #
convexity-sys-attrib $-1 $-1 $-1 $710 #
vertex $-1 $804 $877 #
straight-curve $-1 20 40 20 -1 0 0 I I #
straight-curve $-1 20 60 40 1 0 0 I I #
edge $-1 $875 0 $716 20 $715 $878 forward 7 unknown #
point $-1 50 60 40 #
straight-curve $-1 50 40 20 0 0 1 I I #
model_id-kcp-attrib $-1 $-1 $-1 $724 1 990663520 60 -885260287 12 #
face $879 $684 $822 $9 $-1 $880 forward single #
loop $-1 $-1 $881 $724 #
coedge $-1 $726 $738 $882 $883 reversed $618 $-1 #
edge $-1 $628 -5 $884 15 $761 $885 forward 7 unknown #
vertex $-1 $729 $886 #
straight-curve $-1 0 60 20 1 0 0 I I #
point $-1 -30 60 40 #
point $-1 -30 60 20 #
coedge $-1 $734 $832 $738 $826 forward $822 $-1 #
loop $-1 $-1 $734 $813 #
straight-curve $-1 50 40 30 0 0 -1 I I #
convexity-sys-attrib $-1 $-1 $736 $625 #
point $-1 50 40 40 #
edge $-1 $887 -10 $739 10 $821 $888 forward 7 unknown #
point $-1 50 40 20 #
straight-curve $-1 -50 50 20 0 1 0 I I #
coedge $-1 $745 $764 $889 $890 forward $138 $-1 #
coedge $-1 $881 $891 $745 $831 reversed $814 $-1 #
edge $892 $893 30 $834 50 $745 $767 forward 7 unknown #
coedge $-1 $821 $746 $891 $894 forward $822 $-1 #
attrib_edge_convexity-kcp-attrib $-1 $895 $-1 $747 1 #
vertex $-1 $831 $896 #
straight-curve $-1 50 25 40 0 -1 0 I I #
convexity-sys-attrib $-1 $-1 $750 $642 #
point $-1 -100 100 -40 #
convexity-sys-attrib $-1 $-1 $755 $647 #
point $-1 -100 -100 -40 #
coedge $-1 $889 $761 $881 $897 forward $763 $-1 #
coedge $-1 $762 $889 $898 $899 forward $763 $-1 #
coedge $-1 $779 $898 $764 $843 reversed $859 $-1 #
edge $900 $845 -30 $901 30 $764 $902 forward 7 unknown #
attrib_edge_convexity-kcp-attrib $-1 $903 $-1 $765 1 #
vertex $-1 $765 $904 #
straight-curve $-1 -30 20 40 0 1 0 I I #
convexity-sys-attrib $-1 $-1 $766 $662 #
straight-curve $-1 -50 60 30 0 0 -1 I I #
attrib_edge_convexity-kcp-attrib $-1 $905 $-1 $771 1 #
straight-curve $-1 -100 0 -40 0 1 0 I I #
convexity-sys-attrib $-1 $-1 $772 $671 #
coedge $-1 $898 $779 $775 $853 forward $859 $-1 #
edge $-1 $781 -30 $854 30 $852 $906 forward 7 unknown #
vertex $-1 $776 $907 #
straight-curve $-1 30 40 0 0 -1 0 I I #
model_id-kcp-attrib $-1 $-1 $-1 $777 1 990663520 60 -885260287 16 #
face $908 $161 $859 $9 $-1 $909 forward single #
plane-surface $-1 0 40 0 0 0 1 1 0 0 forward_v I I I I #
loop $-1 $-1 $898 $857 #
straight-curve $-1 -30 80 20 0 0 -1 I I #
point $-1 -30 80 0 #
model_id-kcp-attrib $-1 $-1 $-1 $785 1 990663520 60 -885260287 15 #
plane-surface $-1 30 40 20 -1 0 0 0 0 1 forward_v I I I I #
coedge $-1 $789 $788 $802 $873 reversed $570 $-1 #
coedge $-1 $802 $794 $790 $866 forward $467 $-1 #
edge $910 $796 -35 $867 -15 $790 $911 forward 7 unknown #
vertex $-1 $866 $912 #
straight-curve $-1 30 60 20 0 0 1 I I #
point $-1 30 60 40 #
convexity-sys-attrib $-1 $-1 $-1 $795 #
straight-curve $-1 20 80 20 1 0 0 I I #
point $-1 30 80 20 #
edge $913 $867 10 $875 30 $864 $914 forward 7 unknown #
convexity-sys-attrib $-1 $-1 $-1 $804 #
vertex $-1 $873 $915 #
straight-curve $-1 50 50 20 0 -1 0 I I #
point $-1 50 40 20 #
straight-curve $-1 50 60 20 0 0 1 I I #
model_id-kcp-attrib $-1 $-1 $-1 $813 1 990663520 60 -885260287 13 #
plane-surface $-1 50 50 30 -1 0 0 0 0 1 forward_v I I I I #
coedge $-1 $882 $830 $840 $897 reversed $814 $-1 #
coedge $-1 $891 $881 $815 $883 forward $814 $-1 #
edge $-1 $884 30 $887 50 $882 $818 forward 7 unknown #
vertex $-1 $816 $916 #
straight-curve $-1 30 45 20 0 1 0 I I #
point $-1 -50 60 20 #
vertex $-1 $826 $917 #
straight-curve $-1 50 50 20 0 -1 0 I I #
coedge $-1 $841 $840 $829 $890 reversed $763 $-1 #
edge $918 $901 -60 $893 -40 $829 $919 forward 7 unknown #
coedge $-1 $830 $882 $832 $894 reversed $814 $-1 #
attrib_edge_convexity-kcp-attrib $-1 $920 $-1 $831 1 #
vertex $-1 $890 $921 #
edge $-1 $834 -10 $887 10 $832 $922 forward 7 unknown #
convexity-sys-attrib $-1 $-1 $833 $747 #
point $-1 50 60 40 #
edge $-1 $884 -5 $893 15 $840 $923 forward 7 unknown #
coedge $-1 $842 $852 $841 $899 reversed $859 $-1 #
edge $-1 $901 -20 $854 20 $841 $924 forward 7 unknown #
attrib_edge_convexity-kcp-attrib $-1 $925 $-1 $843 1 #
vertex $-1 $843 $926 #
straight-curve $-1 0 80 40 1 0 0 I I #
convexity-sys-attrib $-1 $-1 $844 $765 #
point $-1 -30 80 40 #
convexity-sys-attrib $-1 $-1 $849 $771 #
straight-curve $-1 0 80 0 1 0 0 I I #
point $-1 30 80 0 #
model_id-kcp-attrib $-1 $-1 $-1 $857 1 990663520 60 -885260287 17 #
plane-surface $-1 0 80 20 0 -1 0 0 0 -1 forward_v I I I I #
convexity-sys-attrib $-1 $-1 $-1 $866 #
straight-curve $-1 30 45 20 0 -1 0 I I #
point $-1 30 60 20 #
convexity-sys-attrib $-1 $-1 $-1 $873 #
straight-curve $-1 20 60 20 1 0 0 I I #
point $-1 50 60 20 #
point $-1 30 60 20 #
point $-1 50 60 20 #
attrib_edge_convexity-kcp-attrib $-1 $927 $-1 $890 1 #
straight-curve $-1 30 20 40 0 -1 0 I I #
convexity-sys-attrib $-1 $-1 $892 $831 #
point $-1 30 60 40 #
straight-curve $-1 50 60 30 0 0 -1 I I #
straight-curve $-1 30 60 25 0 0 1 I I #
straight-curve $-1 30 80 20 0 0 -1 I I #
convexity-sys-attrib $-1 $-1 $900 $843 #
point $-1 30 80 40 #
convexity-sys-attrib $-1 $-1 $918 $890 #
End-of-ACIS-data 