600 0 1 0           
81 GICL ACIS Healer - Source: /gicl/data5/repository/Heriot_Watt/ex33/ex33.sat - 6 0 18 ACIS 6.0.3 Solaris 24 Sat Apr 13 23:38:37 2002 
1 9.999999999999999547e-07 1.000000000000000036e-10 
body $-1 $1 $-1 $-1 #
lump $-1 $-1 $2 $0 #
shell $-1 $-1 $-1 $3 $-1 $1 #
face $-1 $4 $5 $2 $-1 $6 forward single #
face $-1 $7 $8 $2 $-1 $9 forward single #
loop $-1 $-1 $10 $3 #
plane-surface $-1 -20 -50 0 1 0 0 0 0 -1 forward_v I I I I #
face $-1 $11 $12 $2 $-1 $13 forward single #
loop $-1 $-1 $14 $4 #
plane-surface $-1 0 -70 0 0 1 0 0 0 1 forward_v I I I I #
coedge $-1 $15 $16 $17 $18 reversed $5 $-1 #
face $-1 $19 $20 $2 $-1 $21 forward single #
loop $-1 $-1 $22 $7 #
plane-surface $-1 20 -50 0 -1 0 0 0 0 1 forward_v I I I I #
coedge $-1 $23 $24 $25 $26 reversed $8 $-1 #
coedge $-1 $25 $10 $27 $28 reversed $5 $-1 #
coedge $-1 $10 $25 $29 $30 reversed $5 $-1 #
coedge $-1 $31 $32 $10 $18 forward $33 $-1 #
edge $-1 $34 -40 $35 40 $17 $36 forward 7 unknown #
face $-1 $37 $38 $2 $-1 $39 forward single #
loop $-1 $40 $41 $11 #
plane-surface $-1 0 0 40 0 0 1 1 0 0 forward_v I I I I #
coedge $-1 $42 $43 $44 $45 reversed $12 $-1 #
coedge $-1 $46 $14 $47 $48 reversed $8 $-1 #
coedge $-1 $14 $46 $49 $50 reversed $8 $-1 #
coedge $-1 $16 $15 $14 $26 forward $5 $-1 #
edge $-1 $51 -40 $52 40 $25 $53 forward 7 unknown #
coedge $-1 $54 $47 $15 $28 forward $40 $-1 #
edge $-1 $51 -45 $34 -20.82575694955839651 $27 $55 forward 7 unknown #
coedge $-1 $49 $56 $16 $30 forward $57 $-1 #
edge $-1 $35 20.82575694955839651 $52 45 $29 $58 forward 7 unknown #
coedge $-1 $44 $17 $56 $59 reversed $33 $-1 #
coedge $-1 $17 $60 $54 $61 reversed $33 $-1 #
loop $-1 $-1 $44 $62 #
vertex $-1 $18 $63 #
vertex $-1 $59 $64 #
straight-curve $-1 -20 -45.82575694955839651 0 0 0 -1 I I #
face $-1 $65 $66 $2 $-1 $39 forward single #
loop $-1 $-1 $67 $19 #
plane-surface $-1 0 40 30 0 1 0 0 0 1 forward_v I I I I #
loop $-1 $-1 $68 $11 #
coedge $-1 $69 $70 $71 $72 forward $20 $-1 #
coedge $-1 $73 $22 $74 $75 reversed $12 $-1 #
coedge $-1 $22 $73 $68 $76 reversed $12 $-1 #
coedge $-1 $77 $31 $22 $45 forward $33 $-1 #
edge $-1 $78 -40 $79 40 $44 $80 forward 7 unknown #
coedge $-1 $24 $23 $73 $81 forward $8 $-1 #
coedge $-1 $27 $68 $23 $48 forward $40 $-1 #
edge $-1 $82 -20 $51 20 $47 $83 forward 7 unknown #
coedge $-1 $74 $29 $24 $50 forward $57 $-1 #
edge $-1 $52 -20 $84 20 $49 $85 forward 7 unknown #
vertex $-1 $48 $86 #
vertex $-1 $50 $87 #
straight-curve $-1 -20 -70 0 0 0 -1 I I #
coedge $-1 $88 $27 $32 $61 forward $40 $-1 #
straight-curve $-1 -20 -25 40 0 1 0 I I #
coedge $-1 $29 $74 $31 $59 forward $57 $-1 #
loop $-1 $89 $74 $90 #
straight-curve $-1 -20 -25 -40 0 -1 0 I I #
edge $-1 $78 -1.159279480727408496 $35 4.300872134317200945 $56 $91 forward 7 unknown #
coedge $-1 $32 $92 $67 $93 forward $33 $-1 #
edge $-1 $34 1.982313172862384842 $94 4.068887871591405414 $54 $95 forward 7 unknown #
face $-1 $90 $33 $2 $-1 $96 reversed single #
point $-1 -20 -45.82575694955839651 40 #
point $-1 -20 -45.82575694955839651 -40 #
face $-1 $97 $98 $2 $-1 $99 forward single #
loop $-1 $-1 $100 $37 #
coedge $-1 $101 $102 $60 $93 reversed $38 $-1 #
coedge $-1 $47 $103 $43 $76 forward $40 $-1 #
coedge $-1 $104 $41 $105 $106 forward $20 $-1 #
coedge $-1 $41 $104 $107 $108 forward $20 $-1 #
coedge $-1 $109 $110 $41 $72 reversed $111 $-1 #
edge $-1 $112 -100 $113 100 $71 $114 forward 7 unknown #
coedge $-1 $43 $42 $46 $81 reversed $12 $-1 #
coedge $-1 $56 $49 $42 $75 forward $57 $-1 #
edge $-1 $84 -45 $78 -20.82575694955839651 $74 $115 forward 7 unknown #
edge $-1 $79 20.82575694955839651 $82 45 $68 $116 forward 7 unknown #
coedge $-1 $117 $44 $103 $118 reversed $33 $-1 #
vertex $-1 $75 $119 #
vertex $-1 $118 $120 #
straight-curve $-1 20 -45.82575694955839651 0 0 0 1 I I #
edge $-1 $82 -40 $84 40 $73 $121 forward 7 unknown #
vertex $-1 $48 $122 #
straight-curve $-1 0 -70 40 -1 0 0 I I #
vertex $-1 $50 $123 #
straight-curve $-1 0 -70 -40 1 0 0 I I #
point $-1 -20 -70 40 #
point $-1 -20 -70 -40 #
coedge $-1 $124 $54 $102 $125 forward $40 $-1 #
loop $-1 $-1 $126 $90 #
face $-1 $127 $57 $2 $-1 $128 reversed single #
ellipse-curve $-1 0 0 -40 0 0 1 50 0 0 1 I I #
coedge $-1 $60 $129 $130 $131 forward $33 $-1 #
edge $-1 $132 20 $94 40 $60 $133 forward 7 unknown #
vertex $-1 $61 $134 #
ellipse-curve $-1 0 0 40 0 0 -1 50 0 0 1 I I #
cone-surface $-1 0 0 0 0 0 1 50 0 0 1 I I 0 1 50 forward I I I I #
face $-1 $135 $136 $2 $-1 $137 forward single #
loop $-1 $-1 $138 $65 #
plane-surface $-1 0 60 30 0 -1 0 0 0 -1 forward_v I I I I #
coedge $-1 $139 $140 $117 $141 reversed $66 $-1 #
coedge $-1 $142 $67 $143 $144 forward $38 $-1 #
coedge $-1 $67 $142 $88 $125 reversed $38 $-1 #
coedge $-1 $68 $145 $77 $118 forward $40 $-1 #
coedge $-1 $70 $69 $146 $147 forward $20 $-1 #
coedge $-1 $148 $149 $69 $106 reversed $150 $-1 #
edge $-1 $113 -100 $151 100 $105 $152 forward 7 unknown #
coedge $-1 $153 $154 $70 $108 reversed $155 $-1 #
edge $-1 $156 -100 $112 100 $107 $157 forward 7 unknown #
coedge $-1 $158 $71 $154 $159 forward $111 $-1 #
coedge $-1 $71 $158 $148 $160 reversed $111 $-1 #
loop $-1 $-1 $109 $161 #
vertex $-1 $72 $162 #
vertex $-1 $72 $163 #
straight-curve $-1 100 0 40 0 1 0 I I #
straight-curve $-1 20 -25 -40 0 1 0 I I #
straight-curve $-1 20 -25 40 0 -1 0 I I #
coedge $-1 $164 $77 $100 $141 forward $33 $-1 #
edge $-1 $165 -0.927295218001612187 $79 1.159279480727408496 $103 $95 forward 7 unknown #
point $-1 20 -45.82575694955839651 -40 #
point $-1 20 -45.82575694955839651 40 #
straight-curve $-1 20 -70 0 0 0 -1 I I #
point $-1 20 -70 40 #
point $-1 20 -70 -40 #
coedge $-1 $166 $88 $167 $168 forward $40 $-1 #
edge $-1 $94 30 $169 50 $88 $170 forward 7 unknown #
coedge $-1 $171 $172 $158 $173 forward $89 $-1 #
face $-1 $174 $155 $2 $-1 $175 reversed single #
plane-surface $-1 0 0 -40 0 0 1 1 0 0 forward_v I I I I #
coedge $-1 $92 $164 $176 $177 forward $33 $-1 #
coedge $-1 $178 $179 $92 $131 reversed $180 $-1 #
edge $-1 $181 0 $132 20 $92 $133 forward 7 unknown #
vertex $-1 $131 $182 #
straight-curve $-1 -30 40 0 0 0 1 I I #
point $-1 -30 40 40 #
face $-1 $183 $184 $2 $-1 $137 forward single #
loop $-1 $-1 $185 $97 #
plane-surface $-1 0 50 20 0 0 1 1 0 0 forward_v I I I I #
coedge $-1 $186 $187 $188 $189 reversed $98 $-1 #
coedge $-1 $190 $100 $145 $191 reversed $66 $-1 #
coedge $-1 $100 $190 $192 $193 forward $66 $-1 #
edge $-1 $165 -40 $194 -20 $117 $195 forward 7 unknown #
coedge $-1 $102 $101 $196 $197 reversed $38 $-1 #
coedge $-1 $185 $198 $101 $144 reversed $136 $-1 #
edge $-1 $132 30 $199 50 $101 $200 forward 7 unknown #
coedge $-1 $103 $201 $139 $191 forward $40 $-1 #
coedge $-1 $202 $203 $104 $147 reversed $204 $-1 #
edge $-1 $151 -100 $156 100 $146 $205 forward 7 unknown #
coedge $-1 $206 $105 $110 $160 forward $150 $-1 #
coedge $-1 $105 $206 $202 $207 reversed $150 $-1 #
loop $-1 $-1 $148 $208 #
vertex $-1 $106 $209 #
straight-curve $-1 0 100 40 -1 0 0 I I #
coedge $-1 $210 $107 $203 $211 forward $155 $-1 #
coedge $-1 $107 $210 $109 $159 reversed $155 $-1 #
loop $-1 $-1 $153 $127 #
vertex $-1 $147 $212 #
straight-curve $-1 0 -100 40 1 0 0 I I #
coedge $-1 $110 $109 $126 $173 reversed $111 $-1 #
edge $-1 $112 -40 $213 40 $109 $214 forward 7 unknown #
edge $-1 $113 -40 $215 40 $110 $216 forward 7 unknown #
face $-1 $-1 $111 $2 $-1 $217 reversed single #
point $-1 100 -100 40 #
point $-1 100 100 40 #
coedge $-1 $129 $117 $218 $219 forward $33 $-1 #
vertex $-1 $141 $220 #
coedge $-1 $221 $124 $186 $222 forward $40 $-1 #
coedge $-1 $196 $223 $124 $168 reversed $224 $-1 #
edge $-1 $169 15 $225 35 $124 $226 forward 7 unknown #
vertex $-1 $125 $227 #
straight-curve $-1 0 40 40 -1 0 0 I I #
coedge $-1 $228 $126 $210 $229 forward $89 $-1 #
coedge $-1 $126 $228 $206 $230 forward $89 $-1 #
edge $-1 $215 -100 $213 100 $158 $231 forward 7 unknown #
face $-1 $208 $204 $2 $-1 $232 reversed single #
plane-surface $-1 0 -100 0 0 1 0 0 0 1 forward_v I I I I #
coedge $-1 $233 $234 $129 $177 reversed $235 $-1 #
edge $-1 $236 0.927295218001612187 $181 2.214297435588180818 $129 $237 forward 7 unknown #
coedge $-1 $238 $130 $234 $239 forward $180 $-1 #
coedge $-1 $130 $188 $185 $240 forward $180 $-1 #
loop $-1 $-1 $188 $241 #
vertex $-1 $177 $242 #
point $-1 -30 40 20 #
face $-1 $243 $224 $2 $-1 $244 forward single #
loop $-1 $-1 $245 $135 #
coedge $-1 $246 $143 $179 $240 reversed $136 $-1 #
coedge $-1 $247 $138 $166 $222 reversed $98 $-1 #
coedge $-1 $138 $247 $246 $248 forward $98 $-1 #
coedge $-1 $179 $249 $138 $189 forward $180 $-1 #
edge $-1 $250 -15 $251 5 $188 $252 forward 7 unknown #
coedge $-1 $140 $139 $253 $254 forward $66 $-1 #
edge $-1 $255 -50 $165 -30 $145 $170 forward 7 unknown #
coedge $-1 $256 $245 $140 $193 reversed $184 $-1 #
edge $-1 $257 -50 $194 -30 $140 $200 forward 7 unknown #
vertex $-1 $141 $258 #
straight-curve $-1 30 40 0 0 0 -1 I I #
coedge $-1 $259 $167 $142 $197 forward $224 $-1 #
edge $-1 $169 -10 $199 10 $196 $260 forward 7 unknown #
coedge $-1 $143 $246 $259 $261 reversed $136 $-1 #
vertex $-1 $261 $262 #
straight-curve $-1 0 40 20 -1 0 0 I I #
coedge $-1 $145 $263 $264 $265 forward $40 $-1 #
coedge $-1 $266 $146 $149 $207 forward $204 $-1 #
coedge $-1 $146 $266 $153 $211 reversed $204 $-1 #
loop $-1 $-1 $202 $174 #
straight-curve $-1 -100 0 40 0 -1 0 I I #
coedge $-1 $149 $148 $172 $230 reversed $150 $-1 #
edge $-1 $151 -40 $267 40 $149 $268 forward 7 unknown #
face $-1 $161 $150 $2 $-1 $269 reversed single #
point $-1 -100 100 40 #
coedge $-1 $154 $153 $171 $229 reversed $155 $-1 #
edge $-1 $156 -40 $270 40 $203 $271 forward 7 unknown #
point $-1 -100 -100 40 #
vertex $-1 $159 $272 #
straight-curve $-1 100 -100 0 0 0 -1 I I #
vertex $-1 $173 $273 #
straight-curve $-1 100 100 0 0 0 -1 I I #
plane-surface $-1 100 0 0 -1 0 0 0 0 1 forward_v I I I I #
coedge $-1 $274 $275 $164 $219 reversed $276 $-1 #
edge $-1 $194 -20 $236 0 $164 $195 forward 7 unknown #
point $-1 30 40 40 #
coedge $-1 $277 $166 $249 $278 forward $40 $-1 #
edge $-1 $225 -50 $250 -30 $166 $279 forward 7 unknown #
coedge $-1 $167 $259 $247 $280 reversed $224 $-1 #
loop $-1 $-1 $223 $183 #
vertex $-1 $168 $281 #
straight-curve $-1 -50 25 40 0 1 0 I I #
point $-1 -50 40 40 #
coedge $-1 $172 $171 $266 $282 forward $89 $-1 #
edge $-1 $213 -100 $270 100 $210 $283 forward 7 unknown #
edge $-1 $267 -100 $215 100 $206 $284 forward 7 unknown #
straight-curve $-1 100 0 -40 0 -1 0 I I #
plane-surface $-1 -100 0 0 1 0 0 0 0 -1 forward_v I I I I #
coedge $-1 $285 $176 $275 $286 reversed $235 $-1 #
coedge $-1 $176 $285 $178 $239 reversed $235 $-1 #
loop $-1 $-1 $176 $287 #
vertex $-1 $177 $288 #
ellipse-curve $-1 0 0 0 0 0 1 50 0 0 1 I I #
coedge $-1 $249 $178 $289 $290 reversed $180 $-1 #
edge $-1 $181 0 $291 40 $178 $292 forward 7 unknown #
edge $-1 $251 -15 $132 5 $179 $293 forward 7 unknown #
face $-1 $294 $180 $2 $-1 $295 forward single #
point $-1 -30 40 0 #
face $-1 $296 $297 $2 $-1 $99 forward single #
plane-surface $-1 -50 50 30 1 0 0 0 0 -1 forward_v I I I I #
coedge $-1 $192 $298 $274 $299 reversed $184 $-1 #
coedge $-1 $198 $185 $187 $248 reversed $136 $-1 #
coedge $-1 $187 $186 $223 $280 forward $98 $-1 #
edge $-1 $300 -50 $251 -30 $187 $301 forward 7 unknown #
coedge $-1 $188 $238 $221 $278 reversed $180 $-1 #
vertex $-1 $189 $302 #
vertex $-1 $240 $303 #
straight-curve $-1 -30 60 25 0 0 -1 I I #
coedge $-1 $264 $304 $190 $254 reversed $305 $-1 #
edge $-1 $255 -10 $257 10 $253 $306 forward 7 unknown #
vertex $-1 $191 $307 #
coedge $-1 $298 $192 $304 $308 reversed $184 $-1 #
vertex $-1 $254 $309 #
point $-1 30 40 20 #
coedge $-1 $223 $196 $198 $261 forward $224 $-1 #
straight-curve $-1 -50 40 30 0 0 -1 I I #
edge $-1 $199 -10 $300 10 $259 $310 forward 7 unknown #
point $-1 -50 40 20 #
coedge $-1 $201 $311 $312 $313 forward $40 $-1 #
coedge $-1 $314 $253 $201 $265 reversed $305 $-1 #
edge $-1 $315 -35 $255 -15 $201 $316 forward 7 unknown #
coedge $-1 $203 $202 $228 $282 reversed $204 $-1 #
vertex $-1 $230 $317 #
straight-curve $-1 -100 100 0 0 0 -1 I I #
plane-surface $-1 0 100 0 0 -1 0 0 0 -1 forward_v I I I I #
vertex $-1 $282 $318 #
straight-curve $-1 -100 -100 0 0 0 -1 I I #
point $-1 100 -100 -40 #
point $-1 100 100 -40 #
coedge $-1 $319 $218 $245 $299 forward $276 $-1 #
coedge $-1 $218 $320 $233 $286 forward $276 $-1 #
loop $-1 $-1 $319 $294 #
coedge $-1 $311 $221 $321 $322 forward $40 $-1 #
edge $-1 $250 40 $323 60 $221 $324 forward 7 unknown #
straight-curve $-1 0 60 40 1 0 0 I I #
edge $-1 $225 -10 $300 10 $247 $325 forward 7 unknown #
point $-1 -50 60 40 #
edge $-1 $270 -100 $267 100 $266 $326 forward 7 unknown #
straight-curve $-1 0 -100 -40 -1 0 0 I I #
straight-curve $-1 0 100 -40 1 0 0 I I #
coedge $-1 $234 $233 $327 $328 reversed $235 $-1 #
edge $-1 $329 -40 $236 0 $275 $330 forward 7 unknown #
face $-1 $331 $235 $2 $-1 $332 forward single #
point $-1 30 40 0 #
coedge $-1 $327 $321 $238 $290 forward $333 $-1 #
edge $-1 $323 -20 $291 20 $289 $334 forward 7 unknown #
vertex $-1 $328 $335 #
straight-curve $-1 -30 40 0 0 1 0 I I #
straight-curve $-1 -30 45 20 0 -1 0 I I #
face $-1 $287 $276 $2 $-1 $336 forward single #
plane-surface $-1 -30 40 20 1 0 0 0 0 -1 forward_v I I I I #
face $-1 $241 $305 $2 $-1 $337 forward single #
loop $-1 $-1 $338 $243 #
coedge $-1 $245 $256 $339 $340 reversed $184 $-1 #
edge $-1 $194 -5 $341 15 $274 $342 forward 7 unknown #
vertex $-1 $248 $343 #
straight-curve $-1 0 60 20 1 0 0 I I #
point $-1 -30 60 40 #
point $-1 -30 60 20 #
coedge $-1 $253 $314 $256 $308 forward $305 $-1 #
loop $-1 $-1 $253 $296 #
straight-curve $-1 50 40 30 0 0 -1 I I #
point $-1 50 40 40 #
edge $-1 $344 -10 $257 10 $304 $345 forward 7 unknown #
point $-1 50 40 20 #
straight-curve $-1 -50 50 20 0 1 0 I I #
coedge $-1 $263 $277 $346 $347 forward $40 $-1 #
coedge $-1 $338 $348 $263 $313 reversed $297 $-1 #
edge $-1 $349 30 $315 50 $263 $279 forward 7 unknown #
coedge $-1 $304 $264 $348 $350 forward $305 $-1 #
vertex $-1 $313 $351 #
straight-curve $-1 50 25 40 0 -1 0 I I #
point $-1 -100 100 -40 #
point $-1 -100 -100 -40 #
coedge $-1 $346 $274 $338 $352 forward $276 $-1 #
coedge $-1 $275 $346 $353 $354 forward $276 $-1 #
coedge $-1 $289 $353 $277 $322 reversed $333 $-1 #
edge $-1 $323 -30 $355 30 $277 $356 forward 7 unknown #
vertex $-1 $278 $357 #
straight-curve $-1 -30 20 40 0 1 0 I I #
straight-curve $-1 -50 60 30 0 0 -1 I I #
straight-curve $-1 -100 0 -40 0 1 0 I I #
coedge $-1 $353 $289 $285 $328 forward $333 $-1 #
edge $-1 $291 -30 $329 30 $327 $358 forward 7 unknown #
vertex $-1 $286 $359 #
straight-curve $-1 30 40 0 0 -1 0 I I #
face $-1 $62 $333 $2 $-1 $360 forward single #
plane-surface $-1 0 40 0 0 0 1 1 0 0 forward_v I I I I #
loop $-1 $-1 $353 $331 #
straight-curve $-1 -30 80 20 0 0 -1 I I #
point $-1 -30 80 0 #
plane-surface $-1 30 40 20 -1 0 0 0 0 1 forward_v I I I I #
plane-surface $-1 50 50 30 -1 0 0 0 0 1 forward_v I I I I #
coedge $-1 $339 $312 $319 $352 reversed $297 $-1 #
coedge $-1 $348 $338 $298 $340 forward $297 $-1 #
edge $-1 $341 30 $344 50 $339 $301 forward 7 unknown #
vertex $-1 $299 $361 #
straight-curve $-1 30 45 20 0 1 0 I I #
point $-1 -50 60 20 #
vertex $-1 $308 $362 #
straight-curve $-1 50 50 20 0 -1 0 I I #
coedge $-1 $320 $319 $311 $347 reversed $276 $-1 #
edge $-1 $355 -60 $349 -40 $311 $363 forward 7 unknown #
coedge $-1 $312 $339 $314 $350 reversed $297 $-1 #
vertex $-1 $347 $364 #
edge $-1 $315 -10 $344 10 $314 $365 forward 7 unknown #
point $-1 50 60 40 #
edge $-1 $341 -5 $349 15 $319 $366 forward 7 unknown #
coedge $-1 $321 $327 $320 $354 reversed $333 $-1 #
edge $-1 $355 -20 $329 20 $320 $367 forward 7 unknown #
vertex $-1 $322 $368 #
straight-curve $-1 0 80 40 1 0 0 I I #
point $-1 -30 80 40 #
straight-curve $-1 0 80 0 1 0 0 I I #
point $-1 30 80 0 #
plane-surface $-1 0 80 20 0 -1 0 0 0 -1 forward_v I I I I #
point $-1 30 60 20 #
point $-1 50 60 20 #
straight-curve $-1 30 20 40 0 -1 0 I I #
point $-1 30 60 40 #
straight-curve $-1 50 60 30 0 0 -1 I I #
straight-curve $-1 30 60 25 0 0 1 I I #
straight-curve $-1 30 80 20 0 0 -1 I I #
point $-1 30 80 40 #
End-of-ACIS-data 