106 0 1 0           
body $-1 $1 $-1 $-1 #
lump $-1 $-1 $2 $0 #
shell $-1 $-1 $-1 $3 $1 #
face $-1 $4 $5 $2 $-1 $6 forward single #
face $-1 $7 $8 $2 $-1 $9 forward single #
loop $-1 $-1 $10 $3 #
plane-surface $-1 -20 -50 0 1 0 0 0 0 -1 0 I I I I #
face $-1 $11 $12 $2 $-1 $13 forward single #
loop $-1 $-1 $14 $4 #
plane-surface $-1 0 -70 0 0 1 0 0 0 1 0 I I I I #
coedge $-1 $15 $16 $17 $18 1 $5 $-1 #
face $-1 $19 $20 $2 $-1 $21 forward single #
loop $-1 $-1 $22 $7 #
plane-surface $-1 20 -50 0 -1 0 0 0 0 1 0 I I I I #
coedge $-1 $23 $24 $25 $26 1 $8 $-1 #
coedge $-1 $25 $10 $27 $28 1 $5 $-1 #
coedge $-1 $10 $25 $29 $30 1 $5 $-1 #
coedge $-1 $31 $32 $10 $18 0 $33 $-1 #
edge $-1 $34 $35 $17 $36 0 #
face $-1 $37 $38 $2 $-1 $39 forward single #
loop $-1 $40 $41 $11 #
plane-surface $-1 0 0 40 0 0 1 1 0 0 0 I I I I #
coedge $-1 $42 $43 $44 $45 1 $12 $-1 #
coedge $-1 $46 $14 $47 $48 1 $8 $-1 #
coedge $-1 $14 $46 $49 $50 1 $8 $-1 #
coedge $-1 $16 $15 $14 $26 0 $5 $-1 #
edge $-1 $51 $52 $25 $53 0 #
coedge $-1 $54 $47 $15 $28 0 $40 $-1 #
edge $-1 $51 $34 $27 $55 0 #
coedge $-1 $49 $56 $16 $30 0 $57 $-1 #
edge $-1 $35 $52 $29 $58 0 #
coedge $-1 $44 $17 $56 $59 1 $33 $-1 #
coedge $-1 $17 $60 $54 $61 1 $33 $-1 #
loop $-1 $-1 $44 $62 #
vertex $-1 $18 $63 #
vertex $-1 $59 $64 #
straight-curve $-1 -20 -45.825756949558397 0 0 0 -1 I I #
face $-1 $65 $66 $2 $-1 $39 forward single #
loop $-1 $-1 $67 $19 #
plane-surface $-1 0 40 30 0 1 0 0 0 1 0 I I I I #
loop $-1 $-1 $68 $11 #
coedge $-1 $69 $70 $71 $72 0 $20 $-1 #
coedge $-1 $73 $22 $74 $75 1 $12 $-1 #
coedge $-1 $22 $73 $68 $76 1 $12 $-1 #
coedge $-1 $77 $31 $22 $45 0 $33 $-1 #
edge $-1 $78 $79 $44 $80 0 #
coedge $-1 $24 $23 $73 $81 0 $8 $-1 #
coedge $-1 $27 $68 $23 $48 0 $40 $-1 #
edge $-1 $82 $51 $47 $83 0 #
coedge $-1 $74 $29 $24 $50 0 $57 $-1 #
edge $-1 $52 $84 $49 $85 0 #
vertex $-1 $48 $86 #
vertex $-1 $50 $87 #
straight-curve $-1 -20 -70 0 0 0 -1 I I #
coedge $-1 $88 $27 $32 $61 0 $40 $-1 #
straight-curve $-1 -20 -25 40 0 1 0 I I #
coedge $-1 $29 $74 $31 $59 0 $57 $-1 #
loop $-1 $89 $74 $90 #
straight-curve $-1 -20 -25 -40 0 -1 0 I I #
edge $-1 $78 $35 $56 $91 0 #
coedge $-1 $32 $92 $67 $93 0 $33 $-1 #
edge $-1 $34 $94 $54 $95 0 #
face $-1 $90 $33 $2 $-1 $96 reversed single #
point $-1 -20 -45.825756949558397 40 #
point $-1 -20 -45.825756949558397 -40 #
face $-1 $97 $98 $2 $-1 $99 forward single #
loop $-1 $-1 $100 $37 #
coedge $-1 $101 $102 $60 $93 1 $38 $-1 #
coedge $-1 $47 $103 $43 $76 0 $40 $-1 #
coedge $-1 $104 $41 $105 $106 0 $20 $-1 #
coedge $-1 $41 $104 $107 $108 0 $20 $-1 #
coedge $-1 $109 $110 $41 $72 1 $111 $-1 #
edge $-1 $112 $113 $71 $114 0 #
coedge $-1 $43 $42 $46 $81 1 $12 $-1 #
coedge $-1 $56 $49 $42 $75 0 $57 $-1 #
edge $-1 $84 $78 $74 $115 0 #
edge $-1 $79 $82 $68 $116 0 #
coedge $-1 $117 $44 $103 $118 1 $33 $-1 #
vertex $-1 $75 $119 #
vertex $-1 $118 $120 #
straight-curve $-1 20 -45.825756949558397 0 0 0 1 I I #
edge $-1 $82 $84 $73 $121 0 #
vertex $-1 $48 $122 #
straight-curve $-1 0 -70 40 -1 0 0 I I #
vertex $-1 $50 $123 #
straight-curve $-1 0 -70 -40 1 0 0 I I #
point $-1 -20 -70 40 #
point $-1 -20 -70 -40 #
coedge $-1 $124 $54 $102 $125 0 $40 $-1 #
loop $-1 $-1 $126 $90 #
face $-1 $127 $57 $2 $-1 $128 reversed single #
ellipse-curve $-1 0 0 -40 0 0 1 50 0 0 1 I I #
coedge $-1 $60 $129 $130 $131 0 $33 $-1 #
edge $-1 $132 $94 $60 $133 0 #
vertex $-1 $61 $134 #
ellipse-curve $-1 0 0 40 0 0 -1 50 0 0 1 I I #
cone-surface $-1 0 0 0 0 0 1 50 0 0 1 I I 0 1 0 I I I I #
face $-1 $135 $136 $2 $-1 $137 forward single #
loop $-1 $-1 $138 $65 #
plane-surface $-1 0 60 30 0 -1 0 0 0 -1 0 I I I I #
coedge $-1 $139 $140 $117 $141 1 $66 $-1 #
coedge $-1 $142 $67 $143 $144 0 $38 $-1 #
coedge $-1 $67 $142 $88 $125 1 $38 $-1 #
coedge $-1 $68 $145 $77 $118 0 $40 $-1 #
coedge $-1 $70 $69 $146 $147 0 $20 $-1 #
coedge $-1 $148 $149 $69 $106 1 $150 $-1 #
edge $-1 $113 $151 $105 $152 0 #
coedge $-1 $153 $154 $70 $108 1 $155 $-1 #
edge $-1 $156 $112 $107 $157 0 #
coedge $-1 $158 $71 $154 $159 0 $111 $-1 #
coedge $-1 $71 $158 $148 $160 1 $111 $-1 #
loop $-1 $-1 $109 $161 #
vertex $-1 $72 $162 #
vertex $-1 $72 $163 #
straight-curve $-1 100 0 40 0 1 0 I I #
straight-curve $-1 20 -25 -40 0 1 0 I I #
straight-curve $-1 20 -25 40 0 -1 0 I I #
coedge $-1 $164 $77 $100 $141 0 $33 $-1 #
edge $-1 $165 $79 $103 $95 0 #
point $-1 20 -45.825756949558397 -40 #
point $-1 20 -45.825756949558397 40 #
straight-curve $-1 20 -70 0 0 0 -1 I I #
point $-1 20 -70 40 #
point $-1 20 -70 -40 #
coedge $-1 $166 $88 $167 $168 0 $40 $-1 #
edge $-1 $94 $169 $88 $170 0 #
coedge $-1 $171 $172 $158 $173 0 $89 $-1 #
face $-1 $174 $155 $2 $-1 $175 reversed single #
plane-surface $-1 0 0 -40 0 0 1 1 0 0 0 I I I I #
coedge $-1 $92 $164 $176 $177 0 $33 $-1 #
coedge $-1 $178 $179 $92 $131 1 $180 $-1 #
edge $-1 $181 $132 $92 $133 0 #
vertex $-1 $131 $182 #
straight-curve $-1 -30 40 0 0 0 1 I I #
point $-1 -30 40 40 #
face $-1 $183 $184 $2 $-1 $137 forward single #
loop $-1 $-1 $185 $97 #
plane-surface $-1 0 50 20 0 0 1 1 0 0 0 I I I I #
coedge $-1 $186 $187 $188 $189 1 $98 $-1 #
coedge $-1 $190 $100 $145 $191 1 $66 $-1 #
coedge $-1 $100 $190 $192 $193 0 $66 $-1 #
edge $-1 $165 $194 $117 $195 0 #
coedge $-1 $102 $101 $196 $197 1 $38 $-1 #
coedge $-1 $185 $198 $101 $144 1 $136 $-1 #
edge $-1 $132 $199 $101 $200 0 #
coedge $-1 $103 $201 $139 $191 0 $40 $-1 #
coedge $-1 $202 $203 $104 $147 1 $204 $-1 #
edge $-1 $151 $156 $146 $205 0 #
coedge $-1 $206 $105 $110 $160 0 $150 $-1 #
coedge $-1 $105 $206 $202 $207 1 $150 $-1 #
loop $-1 $-1 $148 $208 #
vertex $-1 $106 $209 #
straight-curve $-1 0 100 40 -1 0 0 I I #
coedge $-1 $210 $107 $203 $211 0 $155 $-1 #
coedge $-1 $107 $210 $109 $159 1 $155 $-1 #
loop $-1 $-1 $153 $127 #
vertex $-1 $147 $212 #
straight-curve $-1 0 -100 40 1 0 0 I I #
coedge $-1 $110 $109 $126 $173 1 $111 $-1 #
edge $-1 $112 $213 $109 $214 0 #
edge $-1 $113 $215 $110 $216 0 #
face $-1 $-1 $111 $2 $-1 $217 reversed single #
point $-1 100 -100 40 #
point $-1 100 100 40 #
coedge $-1 $129 $117 $218 $219 0 $33 $-1 #
vertex $-1 $141 $220 #
coedge $-1 $221 $124 $186 $222 0 $40 $-1 #
coedge $-1 $196 $223 $124 $168 1 $224 $-1 #
edge $-1 $169 $225 $124 $226 0 #
vertex $-1 $125 $227 #
straight-curve $-1 0 40 40 -1 0 0 I I #
coedge $-1 $228 $126 $210 $229 0 $89 $-1 #
coedge $-1 $126 $228 $206 $230 0 $89 $-1 #
edge $-1 $215 $213 $158 $231 0 #
face $-1 $208 $204 $2 $-1 $232 reversed single #
plane-surface $-1 0 -100 0 0 1 0 0 0 1 0 I I I I #
coedge $-1 $233 $234 $129 $177 1 $235 $-1 #
edge $-1 $236 $181 $129 $237 0 #
coedge $-1 $238 $130 $234 $239 0 $180 $-1 #
coedge $-1 $130 $188 $185 $240 0 $180 $-1 #
loop $-1 $-1 $188 $241 #
vertex $-1 $177 $242 #
point $-1 -30 40 20 #
face $-1 $243 $224 $2 $-1 $244 forward single #
loop $-1 $-1 $245 $135 #
coedge $-1 $246 $143 $179 $240 1 $136 $-1 #
coedge $-1 $247 $138 $166 $222 1 $98 $-1 #
coedge $-1 $138 $247 $246 $248 0 $98 $-1 #
coedge $-1 $179 $249 $138 $189 0 $180 $-1 #
edge $-1 $250 $251 $188 $252 0 #
coedge $-1 $140 $139 $253 $254 0 $66 $-1 #
edge $-1 $255 $165 $145 $170 0 #
coedge $-1 $256 $245 $140 $193 1 $184 $-1 #
edge $-1 $257 $194 $140 $200 0 #
vertex $-1 $141 $258 #
straight-curve $-1 30 40 0 0 0 -1 I I #
coedge $-1 $259 $167 $142 $197 0 $224 $-1 #
edge $-1 $169 $199 $196 $260 0 #
coedge $-1 $143 $246 $259 $261 1 $136 $-1 #
vertex $-1 $261 $262 #
straight-curve $-1 0 40 20 -1 0 0 I I #
coedge $-1 $145 $263 $264 $265 0 $40 $-1 #
coedge $-1 $266 $146 $149 $207 0 $204 $-1 #
coedge $-1 $146 $266 $153 $211 1 $204 $-1 #
loop $-1 $-1 $202 $174 #
straight-curve $-1 -100 0 40 0 -1 0 I I #
coedge $-1 $149 $148 $172 $230 1 $150 $-1 #
edge $-1 $151 $267 $149 $268 0 #
face $-1 $161 $150 $2 $-1 $269 reversed single #
point $-1 -100 100 40 #
coedge $-1 $154 $153 $171 $229 1 $155 $-1 #
edge $-1 $156 $270 $203 $271 0 #
point $-1 -100 -100 40 #
vertex $-1 $159 $272 #
straight-curve $-1 100 -100 0 0 0 -1 I I #
vertex $-1 $173 $273 #
straight-curve $-1 100 100 0 0 0 -1 I I #
plane-surface $-1 100 0 0 -1 0 0 0 0 1 0 I I I I #
coedge $-1 $274 $275 $164 $219 1 $276 $-1 #
edge $-1 $194 $236 $164 $195 0 #
point $-1 30 40 40 #
coedge $-1 $277 $166 $249 $278 0 $40 $-1 #
edge $-1 $225 $250 $166 $279 0 #
coedge $-1 $167 $259 $247 $280 1 $224 $-1 #
loop $-1 $-1 $223 $183 #
vertex $-1 $168 $281 #
straight-curve $-1 -50 25 40 0 1 0 I I #
point $-1 -50 40 40 #
coedge $-1 $172 $171 $266 $282 0 $89 $-1 #
edge $-1 $213 $270 $210 $283 0 #
edge $-1 $267 $215 $206 $284 0 #
straight-curve $-1 100 0 -40 0 -1 0 I I #
plane-surface $-1 -100 0 0 1 0 0 0 0 -1 0 I I I I #
coedge $-1 $285 $176 $275 $286 1 $235 $-1 #
coedge $-1 $176 $285 $178 $239 1 $235 $-1 #
loop $-1 $-1 $176 $287 #
vertex $-1 $177 $288 #
ellipse-curve $-1 0 0 0 0 0 1 50 0 0 1 I I #
coedge $-1 $249 $178 $289 $290 1 $180 $-1 #
edge $-1 $181 $291 $178 $292 0 #
edge $-1 $251 $132 $179 $293 0 #
face $-1 $294 $180 $2 $-1 $295 forward single #
point $-1 -30 40 0 #
face $-1 $296 $297 $2 $-1 $99 forward single #
plane-surface $-1 -50 50 30 1 0 0 0 0 -1 0 I I I I #
coedge $-1 $192 $298 $274 $299 1 $184 $-1 #
coedge $-1 $198 $185 $187 $248 1 $136 $-1 #
coedge $-1 $187 $186 $223 $280 0 $98 $-1 #
edge $-1 $300 $251 $187 $301 0 #
coedge $-1 $188 $238 $221 $278 1 $180 $-1 #
vertex $-1 $189 $302 #
vertex $-1 $240 $303 #
straight-curve $-1 -30 60 25 0 0 -1 I I #
coedge $-1 $264 $304 $190 $254 1 $305 $-1 #
edge $-1 $255 $257 $253 $306 0 #
vertex $-1 $191 $307 #
coedge $-1 $298 $192 $304 $308 1 $184 $-1 #
vertex $-1 $254 $309 #
point $-1 30 40 20 #
coedge $-1 $223 $196 $198 $261 0 $224 $-1 #
straight-curve $-1 -50 40 30 0 0 -1 I I #
edge $-1 $199 $300 $259 $310 0 #
point $-1 -50 40 20 #
coedge $-1 $201 $311 $312 $313 0 $40 $-1 #
coedge $-1 $314 $253 $201 $265 1 $305 $-1 #
edge $-1 $315 $255 $201 $316 0 #
coedge $-1 $203 $202 $228 $282 1 $204 $-1 #
vertex $-1 $230 $317 #
straight-curve $-1 -100 100 0 0 0 -1 I I #
plane-surface $-1 0 100 0 0 -1 0 0 0 -1 0 I I I I #
vertex $-1 $282 $318 #
straight-curve $-1 -100 -100 0 0 0 -1 I I #
point $-1 100 -100 -40 #
point $-1 100 100 -40 #
coedge $-1 $319 $218 $245 $299 0 $276 $-1 #
coedge $-1 $218 $320 $233 $286 0 $276 $-1 #
loop $-1 $-1 $319 $294 #
coedge $-1 $311 $221 $321 $322 0 $40 $-1 #
edge $-1 $250 $323 $221 $324 0 #
straight-curve $-1 0 60 40 1 0 0 I I #
edge $-1 $225 $300 $247 $325 0 #
point $-1 -50 60 40 #
edge $-1 $270 $267 $266 $326 0 #
straight-curve $-1 0 -100 -40 -1 0 0 I I #
straight-curve $-1 0 100 -40 1 0 0 I I #
coedge $-1 $234 $233 $327 $328 1 $235 $-1 #
edge $-1 $329 $236 $275 $330 0 #
face $-1 $331 $235 $2 $-1 $332 forward single #
point $-1 30 40 0 #
coedge $-1 $327 $321 $238 $290 0 $333 $-1 #
edge $-1 $323 $291 $289 $334 0 #
vertex $-1 $328 $335 #
straight-curve $-1 -30 40 0 0 1 0 I I #
straight-curve $-1 -30 45 20 0 -1 0 I I #
face $-1 $287 $276 $2 $-1 $336 forward single #
plane-surface $-1 -30 40 20 1 0 0 0 0 -1 0 I I I I #
face $-1 $241 $305 $2 $-1 $337 forward single #
loop $-1 $-1 $338 $243 #
coedge $-1 $245 $256 $339 $340 1 $184 $-1 #
edge $-1 $194 $341 $274 $342 0 #
vertex $-1 $248 $343 #
straight-curve $-1 0 60 20 1 0 0 I I #
point $-1 -30 60 40 #
point $-1 -30 60 20 #
coedge $-1 $253 $314 $256 $308 0 $305 $-1 #
loop $-1 $-1 $253 $296 #
straight-curve $-1 50 40 30 0 0 -1 I I #
point $-1 50 40 40 #
edge $-1 $344 $257 $304 $345 0 #
point $-1 50 40 20 #
straight-curve $-1 -50 50 20 0 1 0 I I #
coedge $-1 $263 $277 $346 $347 0 $40 $-1 #
coedge $-1 $338 $348 $263 $313 1 $297 $-1 #
edge $-1 $349 $315 $263 $279 0 #
coedge $-1 $304 $264 $348 $350 0 $305 $-1 #
vertex $-1 $313 $351 #
straight-curve $-1 50 25 40 0 -1 0 I I #
point $-1 -100 100 -40 #
point $-1 -100 -100 -40 #
coedge $-1 $346 $274 $338 $352 0 $276 $-1 #
coedge $-1 $275 $346 $353 $354 0 $276 $-1 #
coedge $-1 $289 $353 $277 $322 1 $333 $-1 #
edge $-1 $323 $355 $277 $356 0 #
vertex $-1 $278 $357 #
straight-curve $-1 -30 20 40 0 1 0 I I #
straight-curve $-1 -50 60 30 0 0 -1 I I #
straight-curve $-1 -100 0 -40 0 1 0 I I #
coedge $-1 $353 $289 $285 $328 0 $333 $-1 #
edge $-1 $291 $329 $327 $358 0 #
vertex $-1 $286 $359 #
straight-curve $-1 30 40 0 0 -1 0 I I #
face $-1 $62 $333 $2 $-1 $360 forward single #
plane-surface $-1 0 40 0 0 0 1 1 0 0 0 I I I I #
loop $-1 $-1 $353 $331 #
straight-curve $-1 -30 80 20 0 0 -1 I I #
point $-1 -30 80 0 #
plane-surface $-1 30 40 20 -1 0 0 0 0 1 0 I I I I #
plane-surface $-1 50 50 30 -1 0 0 0 0 1 0 I I I I #
coedge $-1 $339 $312 $319 $352 1 $297 $-1 #
coedge $-1 $348 $338 $298 $340 0 $297 $-1 #
edge $-1 $341 $344 $339 $301 0 #
vertex $-1 $299 $361 #
straight-curve $-1 30 45 20 0 1 0 I I #
point $-1 -50 60 20 #
vertex $-1 $308 $362 #
straight-curve $-1 50 50 20 0 -1 0 I I #
coedge $-1 $320 $319 $311 $347 1 $276 $-1 #
edge $-1 $355 $349 $311 $363 0 #
coedge $-1 $312 $339 $314 $350 1 $297 $-1 #
vertex $-1 $347 $364 #
edge $-1 $315 $344 $314 $365 0 #
point $-1 50 60 40 #
edge $-1 $341 $349 $319 $366 0 #
coedge $-1 $321 $327 $320 $354 1 $333 $-1 #
edge $-1 $355 $329 $320 $367 0 #
vertex $-1 $322 $368 #
straight-curve $-1 0 80 40 1 0 0 I I #
point $-1 -30 80 40 #
straight-curve $-1 0 80 0 1 0 0 I I #
point $-1 30 80 0 #
plane-surface $-1 0 80 20 0 -1 0 0 0 -1 0 I I I I #
point $-1 30 60 20 #
point $-1 50 60 20 #
straight-curve $-1 30 20 40 0 -1 0 I I #
point $-1 30 60 40 #
straight-curve $-1 50 60 30 0 0 -1 I I #
straight-curve $-1 30 60 25 0 0 1 I I #
straight-curve $-1 30 80 20 0 0 -1 I I #
point $-1 30 80 40 #
End-of-ACIS-data 