#define _width 230
#define _height 268
static char _bits[] = {
 0x00,0x00,0x00,0x00,0x00,0x00,0x00,0x00,0x00,0x00,0x00,0x00,0x00,0x00,0x00,
 0x00,0x00,0x00,0x00,0x00,0x00,0xff,0x1f,0x00,0x00,0x00,0x00,0x00,0x00,0x00,
 0x00,0x00,0x00,0x00,0x00,0x00,0x00,0x00,0x00,0x00,0x00,0x00,0x00,0x00,0x00,
 0x00,0x00,0x00,0x00,0x00,0xff,0x1f,0x00,0x00,0x00,0x00,0x00,0x00,0x00,0x00,
 0x00,0x00,0x00,0x00,0x00,0x00,0x00,0x00,0x00,0x00,0x00,0x00,0x00,0x00,0x00,
 0x00,0x00,0xe0,0xff,0x00,0xe0,0xff,0x01,0x00,0x00,0x00,0x00,0x00,0x00,0x00,
 0x00,0x00,0x00,0x00,0x00,0x00,0x00,0x00,0x00,0x00,0x00,0x00,0x00,0x00,0x00,
 0x80,0x1f,0x00,0x00,0x00,0x00,0x7e,0x00,0x00,0x00,0x00,0x00,0x00,0x00,0x00,
 0x00,0x00,0x00,0x00,0x00,0x00,0x00,0x00,0x00,0x00,0x00,0x00,0x00,0x00,0x80,
 0x1f,0x00,0x00,0x00,0x00,0x7e,0x00,0x00,0x00,0x00,0x00,0x00,0x00,0x00,0x00,
 0x00,0x00,0x00,0x00,0x00,0x00,0x00,0x00,0x00,0x00,0x00,0x00,0x00,0x78,0x00,
 0x00,0x00,0x00,0x00,0x80,0x07,0x00,0x00,0x00,0x00,0x00,0x00,0x00,0x00,0x00,
 0x00,0x00,0x00,0x00,0x00,0x00,0x00,0x00,0x00,0x00,0x00,0x00,0x07,0x00,0xfe,
 0xff,0xff,0x0f,0x00,0x38,0x00,0x00,0x00,0x00,0x00,0x00,0x00,0x00,0x00,0x00,
 0x00,0x00,0x00,0x00,0x00,0x00,0x00,0x00,0x00,0x00,0x00,0x07,0x00,0xfe,0xff,
 0xff,0x0f,0x00,0x38,0x00,0x00,0x00,0x00,0x00,0x00,0x00,0x00,0x00,0x00,0x00,
 0x00,0x00,0x00,0x00,0x00,0x00,0x00,0x00,0x00,0xe0,0x00,0xf8,0x01,0x00,0x00,
 0xf0,0x03,0xc0,0x01,0x00,0x00,0x00,0x00,0x00,0x00,0x00,0x00,0x00,0x00,0x00,
 0x00,0x00,0x00,0x00,0x00,0x00,0x00,0x00,0x1c,0xc0,0x07,0x00,0x00,0x00,0x00,
 0xfc,0x00,0x06,0x00,0x00,0x00,0x00,0x00,0x00,0x00,0x00,0x00,0x00,0x00,0x00,
 0x00,0x00,0x00,0x00,0x00,0x00,0x80,0x03,0x38,0x00,0x00,0x00,0x00,0x00,0x00,
 0x07,0x38,0x00,0x00,0x00,0x00,0x00,0x00,0x00,0x00,0x00,0x00,0x00,0x00,0x00,
 0x00,0x00,0x00,0x00,0x00,0x80,0x03,0x38,0x00,0x00,0x00,0x00,0x00,0x00,0x07,
 0x38,0x00,0x00,0x00,0x00,0x00,0x00,0x00,0x00,0x00,0x00,0x00,0x00,0x00,0x00,
 0x00,0x00,0x00,0x00,0x70,0x00,0x07,0x00,0x00,0x00,0x00,0x00,0x00,0x38,0xc0,
 0x01,0x00,0x00,0x00,0x00,0x00,0x00,0x00,0x00,0x00,0x00,0x00,0x00,0x00,0x00,
 0x00,0x00,0x00,0x0e,0xe0,0x00,0x00,0x00,0x00,0x00,0x00,0x00,0xc0,0x01,0x06,
 0x00,0x00,0x00,0x00,0x00,0x00,0x00,0x00,0x00,0x00,0x00,0x00,0x00,0x00,0x00,
 0x00,0x00,0x0e,0xe0,0x00,0x00,0x00,0x00,0x00,0x00,0x00,0xc0,0x01,0x06,0x00,
 0x00,0x00,0x00,0x00,0x00,0x00,0x00,0x00,0x00,0x00,0x00,0x00,0x00,0x00,0x00,
 0x80,0x01,0x3c,0x00,0x00,0x00,0x00,0x00,0x00,0x00,0x00,0x02,0x38,0x00,0x00,
 0x00,0x00,0x00,0x00,0x00,0x00,0x00,0x00,0x00,0x00,0x00,0x00,0x00,0x00,0x60,
 0x80,0x23,0x00,0x00,0x00,0x00,0x00,0x00,0x00,0x00,0x1c,0x40,0x00,0x00,0x00,
 0x00,0x00,0x00,0x00,0x00,0x00,0x00,0x00,0x00,0x00,0x00,0x00,0x00,0x60,0x80,
 0x23,0x00,0x00,0x00,0x00,0x00,0x00,0x00,0x00,0x1c,0x40,0x00,0x00,0x00,0x00,
 0x00,0x00,0x00,0x00,0x00,0x00,0x00,0x00,0x00,0x00,0x00,0x00,0x1c,0x70,0x20,
 0x00,0x00,0x00,0x00,0x00,0x00,0x00,0x00,0x20,0x80,0x00,0x00,0x00,0x00,0x00,
 0x00,0x00,0x00,0x00,0x00,0x00,0x00,0x00,0x00,0x00,0x80,0x03,0x08,0x20,0x00,
 0x00,0x00,0x00,0x00,0x00,0x00,0x00,0xc0,0x00,0x03,0x00,0x00,0x00,0x00,0x00,
 0x00,0x00,0x00,0x00,0x00,0x00,0x00,0x00,0x00,0x80,0x03,0x08,0x20,0x00,0x00,
 0x00,0x00,0x00,0x00,0x00,0x00,0xc0,0x00,0x03,0x00,0x00,0x00,0x00,0x00,0x00,
 0x00,0x00,0x00,0x00,0x00,0x00,0x00,0x00,0x70,0x00,0x07,0x20,0x00,0x00,0x00,
 0x00,0x00,0x00,0x00,0x00,0x00,0x01,0x03,0x00,0x00,0x00,0x00,0x00,0x00,0x00,
 0x00,0x00,0x00,0x00,0x00,0x00,0x00,0x08,0xe0,0x00,0x20,0x00,0x00,0x00,0x00,
 0x00,0x00,0x00,0x00,0x00,0x06,0x04,0x00,0x00,0x00,0x00,0x00,0x00,0x00,0x00,
 0x00,0x00,0x00,0x00,0x00,0x00,0x07,0x1c,0x00,0x20,0x00,0x00,0x00,0x00,0x00,
 0x00,0x00,0x00,0x00,0x06,0x18,0x00,0x00,0x00,0x00,0x00,0x00,0x00,0x00,0x00,
 0x00,0x00,0x00,0x00,0x00,0x07,0x1c,0x00,0x20,0x00,0x00,0x00,0x00,0x00,0x00,
 0x00,0x00,0x00,0x06,0x18,0x00,0x00,0x00,0x00,0x00,0x00,0x00,0x00,0x00,0x00,
 0x00,0x00,0x00,0xe0,0x00,0x02,0x00,0x20,0x00,0x00,0x00,0x00,0x00,0x00,0x00,
 0x00,0x00,0x08,0x18,0x00,0x00,0x00,0x00,0x00,0x00,0x00,0x00,0x00,0x00,0x00,
 0x00,0x00,0x10,0xc0,0x01,0x00,0x20,0x00,0x00,0x00,0xfc,0x0f,0x00,0x00,0x00,
 0x00,0x08,0x18,0x00,0x00,0x00,0x00,0x00,0x00,0x00,0x00,0x00,0x00,0x00,0x00,
 0x00,0x10,0xc0,0x01,0x00,0x20,0x00,0x00,0x00,0xfc,0x0f,0x00,0x00,0x00,0x00,
 0x08,0x18,0x00,0x00,0x00,0x00,0x00,0x00,0x00,0x00,0x00,0x00,0x00,0x00,0x00,
 0x0e,0x38,0x00,0x00,0x20,0x00,0x00,0xfe,0x03,0xf0,0x0f,0x00,0x00,0x00,0x30,
 0x20,0x00,0x00,0x00,0x00,0x00,0x00,0x00,0x00,0x00,0x00,0x00,0x00,0xc0,0x01,
 0x04,0x00,0x00,0x20,0x00,0xf8,0x01,0x00,0x00,0xf0,0x03,0x00,0x00,0x30,0x20,
 0x00,0x00,0x00,0x00,0x00,0x00,0x00,0x00,0x00,0x00,0x00,0x00,0xc0,0x01,0x04,
 0x00,0x00,0x20,0x00,0xf8,0x01,0x00,0x00,0xf0,0x03,0x00,0x00,0x30,0x20,0x00,
 0x00,0x00,0x00,0x00,0x00,0x00,0x00,0x00,0x00,0x00,0x00,0x38,0x80,0x03,0x00,
 0x00,0x20,0xc0,0x07,0x00,0x00,0x00,0x00,0xfc,0x00,0x00,0x40,0x20,0x00,0x00,
 0x00,0x00,0x00,0x00,0x00,0x00,0x00,0x00,0x00,0x00,0x04,0x70,0x00,0x00,0x00,
 0x20,0x38,0x00,0x00,0x00,0x00,0x00,0x00,0x07,0x00,0x40,0x20,0x00,0x00,0x00,
 0x00,0x00,0x00,0x00,0x00,0x00,0x00,0x00,0x00,0x04,0x70,0x00,0x00,0x00,0x20,
 0x38,0x00,0x00,0x00,0x00,0x00,0x00,0x07,0x00,0x40,0x20,0x00,0x00,0x00,0x00,
 0x00,0x00,0x00,0x00,0x00,0x00,0x00,0x80,0x03,0x0e,0x00,0x00,0x00,0x20,0x07,
 0x00,0x00,0x00,0x00,0x00,0x00,0x38,0x00,0x40,0x20,0x00,0x00,0x00,0x00,0x00,
 0x00,0x00,0x00,0x00,0x00,0x00,0x70,0x80,0x01,0x00,0x00,0x00,0xe0,0x00,0x00,
 0x00,0x00,0x00,0x00,0x00,0xc0,0x01,0x30,0x20,0x00,0x00,0x00,0x00,0x00,0x00,
 0x00,0x00,0x00,0x00,0x00,0x0e,0x60,0x00,0x00,0x00,0x00,0x1c,0x00,0x00,0x00,
 0x00,0x00,0x00,0x00,0x00,0x02,0x30,0x20,0x00,0x00,0x00,0x00,0x00,0x00,0x00,
 0x00,0x00,0x00,0x00,0x0e,0x60,0x00,0x00,0x00,0x00,0x1c,0x00,0x00,0x00,0x00,
 0x00,0x00,0x00,0x00,0x02,0x30,0x20,0x00,0x00,0x00,0x00,0x00,0x00,0x00,0x00,
 0x00,0x00,0x00,0x01,0x1c,0x00,0x00,0x00,0x80,0x03,0x00,0x00,0x00,0x00,0x00,
 0x00,0x00,0x00,0x1c,0x08,0x38,0x00,0x00,0x00,0x00,0x00,0x00,0x00,0x00,0x00,
 0x00,0xe0,0x80,0x03,0x00,0x00,0x00,0x70,0x00,0x00,0x00,0x00,0x00,0x7c,0x00,
 0x00,0x00,0x20,0x08,0x38,0x00,0x00,0x00,0x00,0x00,0x00,0x00,0x00,0x00,0x00,
 0xe0,0x80,0x03,0x00,0x00,0x00,0x70,0x00,0x00,0x00,0x00,0x00,0x7c,0x00,0x00,
 0x00,0x20,0x08,0x38,0x00,0x00,0x00,0x00,0x00,0x00,0x00,0x00,0x00,0x00,0x1c,
 0x60,0x00,0x00,0x00,0x00,0x08,0x00,0x00,0x00,0x00,0xf8,0x83,0x3f,0x00,0x00,
 0xc0,0x08,0x38,0x00,0x00,0x00,0x00,0x00,0x00,0x00,0x00,0x00,0x80,0x03,0x18,
 0x00,0x00,0x00,0x00,0x07,0x00,0x00,0x00,0x00,0x07,0x00,0xc0,0x01,0x00,0x00,
 0x07,0x38,0x00,0x00,0x00,0x00,0x00,0x00,0x00,0x00,0x00,0x80,0x03,0x18,0x00,
 0x00,0x00,0x00,0x07,0x00,0x00,0x00,0x00,0x07,0x00,0xc0,0x01,0x00,0x00,0x07,
 0x38,0x00,0x00,0x00,0x00,0x00,0x00,0x00,0x00,0x00,0x40,0x00,0x07,0x00,0x00,
 0x00,0xe0,0x00,0x00,0x00,0x00,0xe0,0x00,0x00,0x00,0x0e,0x00,0x00,0x06,0x3c,
 0x00,0x00,0x00,0x00,0x00,0x00,0x00,0x00,0x00,0x38,0xe0,0x00,0x00,0x00,0x00,
 0x1c,0x00,0x00,0x00,0x00,0x60,0x00,0x00,0x00,0x10,0x00,0x00,0x07,0x3c,0x00,
 0x00,0x00,0x00,0x00,0x00,0x00,0x00,0x00,0x07,0x18,0x00,0x00,0x00,0x00,0x02,
 0x00,0x00,0x00,0x00,0x10,0x00,0x00,0x00,0x10,0x00,0x00,0x09,0x3b,0x00,0x00,
 0x00,0x00,0x00,0x00,0x00,0x00,0x00,0x07,0x18,0x00,0x00,0x00,0x00,0x02,0x00,
 0x00,0x00,0x00,0x10,0x00,0x00,0x00,0x10,0x00,0x00,0x09,0x3b,0x00,0x00,0x00,
 0x00,0x00,0x00,0x00,0x00,0xc0,0x00,0x07,0x00,0x00,0x00,0xc0,0x01,0x00,0x00,
 0x00,0x00,0x10,0x00,0x00,0x00,0x10,0x00,0xc0,0x00,0x3b,0x00,0x00,0x00,0x00,
 0x00,0x00,0x00,0x00,0x38,0xc0,0x00,0x00,0x00,0x00,0x38,0x00,0x00,0x00,0x00,
 0x00,0x10,0x00,0x00,0x00,0x10,0x00,0xc0,0x80,0x38,0x00,0x00,0x00,0x00,0x00,
 0x00,0x00,0x00,0x38,0xc0,0x00,0x00,0x00,0x00,0x38,0x00,0x00,0x00,0x00,0x00,
 0x10,0x00,0x00,0x00,0x10,0x00,0xc0,0x80,0x38,0x00,0x00,0x00,0x00,0x00,0x00,
 0x00,0x00,0x06,0x30,0x00,0x00,0x00,0x00,0x04,0x00,0x00,0x00,0x00,0x00,0x10,
 0x00,0x00,0x00,0x10,0x00,0x20,0x80,0x38,0x00,0x00,0x00,0x00,0x00,0x00,0x00,
 0xc0,0x01,0x0e,0x00,0x00,0x00,0x80,0x03,0x00,0x00,0x00,0x00,0x00,0x60,0x00,
 0x00,0x00,0x10,0x00,0x20,0x40,0x38,0x00,0x00,0x00,0x00,0x00,0x00,0x00,0xc0,
 0x01,0x0e,0x00,0x00,0x00,0x80,0x03,0x00,0x00,0x00,0x00,0x00,0x60,0x00,0x00,
 0x00,0x10,0x00,0x20,0x40,0x38,0x00,0x00,0x00,0x00,0x00,0x00,0x00,0x30,0xc0,
 0x01,0x00,0x00,0x00,0x70,0x00,0x00,0x00,0x00,0x00,0x00,0x60,0x00,0x00,0x00,
 0x0c,0x00,0x20,0x40,0x38,0x00,0x00,0x00,0x00,0x00,0x00,0x00,0x0e,0x38,0x00,
 0x00,0x00,0x00,0x0e,0x00,0x00,0x00,0x00,0x00,0x00,0x80,0x03,0x00,0x80,0x03,
 0x00,0x18,0x40,0x38,0x00,0x00,0x00,0x00,0x00,0x00,0x00,0x0e,0x38,0x00,0x00,
 0x00,0x00,0x0e,0x00,0x00,0x00,0x00,0x00,0x00,0x80,0x03,0x00,0x80,0x03,0x00,
 0x18,0x40,0x38,0x00,0x00,0x00,0x00,0x00,0x00,0x80,0x01,0x04,0x00,0x00,0x00,
 0x80,0x01,0x00,0x00,0x00,0xf8,0xff,0x07,0x00,0x3c,0x00,0x78,0x00,0x00,0x18,
 0x30,0x38,0x00,0x00,0x00,0x00,0x00,0x00,0x70,0x80,0x03,0x00,0x00,0x00,0x60,
 0x00,0x00,0x00,0xf0,0x07,0x00,0xf8,0x07,0xc0,0xff,0x07,0x00,0x00,0x04,0x30,
 0x38,0x00,0x00,0x00,0x00,0x00,0x00,0x0c,0x70,0x00,0x00,0x00,0x00,0x1c,0x00,
 0x00,0x00,0x0f,0x00,0x00,0x00,0x78,0x00,0x00,0x00,0x00,0x00,0x04,0x08,0x38,
 0x00,0x00,0x00,0x00,0x00,0x00,0x0c,0x70,0x00,0x00,0x00,0x00,0x1c,0x00,0x00,
 0x00,0x0f,0x00,0x00,0x00,0x78,0x00,0x00,0x00,0x00,0x00,0x04,0x08,0x38,0x00,
 0x00,0x00,0x00,0x00,0x80,0x03,0x0e,0x00,0x00,0x00,0x80,0x03,0x00,0x00,0xf0,
 0x00,0x00,0x00,0x00,0x80,0x03,0x00,0x00,0x00,0x00,0x02,0x08,0x38,0x00,0x00,
 0x00,0x00,0x00,0x70,0x00,0x01,0x00,0x00,0x00,0x60,0x00,0x00,0x00,0x0e,0x00,
 0x00,0x00,0x00,0x00,0x1c,0x00,0x00,0x00,0x00,0x02,0x06,0x38,0x00,0x00,0x00,
 0x00,0x00,0x70,0x00,0x01,0x00,0x00,0x00,0x60,0x00,0x00,0x00,0x0e,0x00,0x00,
 0x00,0x00,0x00,0x1c,0x00,0x00,0x00,0x00,0x02,0x06,0x38,0x00,0x00,0x00,0x00,
 0x00,0x0c,0xe0,0x00,0x00,0x00,0x00,0x18,0x00,0x00,0xc0,0x01,0x00,0x00,0x00,
 0x00,0x00,0x60,0x00,0x00,0x00,0x00,0x02,0x06,0x38,0x00,0x00,0x00,0x00,0x00,
 0x03,0x1c,0x00,0x00,0x00,0x00,0x07,0x00,0x00,0x78,0x00,0x00,0x00,0x00,0x00,
 0x00,0x80,0x01,0x00,0x00,0x80,0x01,0x01,0x38,0x00,0x00,0x00,0x00,0x00,0x03,
 0x1c,0x00,0x00,0x00,0x00,0x07,0x00,0x00,0x78,0x00,0x00,0x00,0x00,0x00,0x00,
 0x80,0x01,0x00,0x00,0x80,0x01,0x01,0x38,0x00,0x00,0x00,0x00,0xe0,0x80,0x03,
 0x00,0x00,0x00,0xe0,0x00,0x00,0x00,0x44,0x00,0x00,0x00,0x00,0x00,0x00,0x00,
 0x02,0x00,0x00,0x80,0x01,0x01,0x38,0x00,0x00,0x00,0x00,0x1c,0x40,0x00,0x00,
 0x00,0x00,0x18,0x00,0x00,0x00,0x43,0x00,0x00,0x00,0x00,0x00,0x00,0x00,0x0c,
 0x00,0x00,0x40,0xc0,0x00,0x38,0x00,0x00,0x00,0x00,0x1c,0x40,0x00,0x00,0x00,
 0x00,0x18,0x00,0x00,0x00,0x43,0x00,0x00,0x00,0x00,0x00,0x00,0x00,0x0c,0x00,
 0x00,0x40,0xc0,0x00,0x38,0x00,0x00,0x00,0x00,0x02,0x38,0x00,0x00,0x00,0x00,
 0x07,0x00,0x00,0xe0,0x40,0x00,0x00,0x00,0x00,0x00,0x00,0x00,0x10,0x00,0x00,
 0x40,0xc0,0x00,0x38,0x00,0x00,0x00,0xc0,0x01,0x07,0x00,0x00,0x00,0xc0,0x00,
 0x00,0x00,0x10,0x40,0x00,0x00,0x00,0x00,0x00,0x00,0x00,0x60,0x00,0x00,0x30,
 0xc0,0x00,0x38,0x00,0x00,0x00,0x38,0x80,0x00,0x00,0x00,0x00,0x30,0x00,0x00,
 0x00,0x0e,0x40,0x00,0x00,0x00,0x00,0x00,0x00,0x00,0x60,0x00,0x00,0x30,0x20,
 0x00,0x38,0x00,0x00,0x00,0x38,0x80,0x00,0x00,0x00,0x00,0x30,0x00,0x00,0x00,
 0x0e,0x40,0x00,0x00,0x00,0x00,0x00,0x00,0x00,0x60,0x00,0x00,0x30,0x20,0x00,
 0x38,0x00,0x00,0x00,0x07,0x70,0x00,0x00,0x00,0x00,0x0e,0x00,0x00,0x80,0x01,
 0x40,0x00,0x00,0x00,0x00,0x00,0x00,0x00,0x80,0x00,0x00,0x08,0x20,0x00,0x38,
 0x00,0x00,0x80,0x00,0x0e,0x00,0x00,0x00,0xc0,0x01,0x00,0x00,0x40,0x00,0x40,
 0x00,0x00,0x00,0x00,0x00,0x00,0x00,0x80,0x00,0x00,0x08,0x18,0x00,0x38,0x00,
 0x00,0x80,0x00,0x0e,0x00,0x00,0x00,0xc0,0x01,0x00,0x00,0x40,0x00,0x40,0x00,
 0x00,0x00,0x00,0x00,0x00,0x00,0x80,0x00,0x00,0x08,0x18,0x00,0x38,0x00,0x00,
 0x70,0xc0,0x01,0x00,0x00,0x00,0x38,0x00,0x00,0x00,0x38,0x00,0x40,0x00,0x00,
 0x00,0x00,0x00,0x00,0x00,0x80,0x03,0x00,0x08,0x18,0x00,0x38,0x00,0x00,0x0e,
 0x20,0x00,0x00,0x00,0x00,0x04,0x00,0x00,0x00,0x04,0x00,0x40,0x00,0x00,0x00,
 0x00,0x00,0x00,0x00,0x80,0x03,0x00,0x06,0x04,0x00,0x38,0x00,0x00,0x0e,0x20,
 0x00,0x00,0x00,0x00,0x04,0x00,0x00,0x00,0x04,0x00,0x40,0x00,0x00,0x00,0x00,
 0x00,0x00,0x00,0x80,0x03,0x00,0x06,0x04,0x00,0x38,0x00,0xc0,0x01,0x1c,0x00,
 0x00,0x00,0x80,0x03,0x00,0x00,0x80,0x03,0x00,0x40,0x00,0x00,0x00,0x00,0x00,
 0x00,0x00,0x80,0x03,0x00,0x06,0x04,0x00,0x38,0x00,0x20,0x80,0x03,0x00,0x00,
 0x00,0x70,0x00,0x00,0x00,0x60,0x00,0x00,0x40,0x00,0x00,0x00,0x00,0x00,0x00,
 0x00,0x80,0x04,0x00,0x01,0x02,0x00,0x38,0x00,0x1c,0x70,0x00,0x00,0x00,0x00,
 0x0e,0x00,0x00,0x00,0x18,0x00,0x00,0x40,0x00,0x00,0x00,0x00,0x00,0x00,0x00,
 0x80,0x04,0x00,0x01,0x02,0x00,0x38,0x00,0x1c,0x70,0x00,0x00,0x00,0x00,0x0e,
 0x00,0x00,0x00,0x18,0x00,0x00,0x40,0x00,0x00,0x00,0x00,0x00,0x00,0x00,0x80,
 0x04,0x00,0x01,0x02,0x00,0x38,0x80,0x03,0x08,0x00,0x00,0x00,0x00,0x01,0x00,
 0x00,0x00,0x06,0x00,0x00,0x40,0x00,0x00,0x00,0x00,0x00,0x00,0x00,0x80,0x04,
 0x80,0x00,0x02,0x00,0x38,0x40,0x00,0x0e,0x00,0x00,0x00,0xe0,0x00,0x00,0x00,
 0x00,0x01,0x00,0x00,0x40,0x00,0x00,0x00,0x00,0x00,0x00,0x00,0x80,0x08,0x80,
 0x80,0x01,0x00,0x38,0x40,0x00,0x0e,0x00,0x00,0x00,0xe0,0x00,0x00,0x00,0x00,
 0x01,0x00,0x00,0x40,0x00,0x00,0x00,0x00,0x00,0x00,0x00,0x80,0x08,0x80,0x80,
 0x01,0x00,0x38,0x30,0xc0,0x09,0x00,0x00,0x00,0x1c,0x00,0x00,0x00,0xe0,0x00,
 0x00,0x00,0x40,0x00,0x00,0x00,0x00,0x00,0x00,0x00,0x80,0x08,0x60,0x80,0x01,
 0x00,0x38,0x30,0x20,0x08,0x00,0x00,0x80,0x03,0x00,0x00,0x00,0x18,0x00,0x00,
 0x00,0x40,0x00,0x00,0x00,0x00,0x00,0x00,0x00,0x80,0x08,0x60,0x40,0x00,0x00,
 0x38,0x30,0x20,0x08,0x00,0x00,0x80,0x03,0x00,0x00,0x00,0x18,0x00,0x00,0x00,
 0x40,0x00,0x00,0x00,0x00,0x00,0x00,0x00,0x80,0x08,0x60,0x40,0x00,0x00,0x38,
 0x08,0x18,0x08,0x00,0x00,0x40,0x00,0x00,0x00,0x00,0x1c,0x00,0x00,0x00,0x40,
 0x00,0x00,0x00,0x00,0x00,0x00,0x00,0x80,0x30,0x60,0x40,0x00,0x00,0x38,0x06,
 0x18,0x08,0x00,0x00,0x38,0x00,0x00,0x00,0x80,0x1b,0x00,0x00,0x00,0x40,0x00,
 0x00,0x00,0x00,0x00,0x00,0x00,0x80,0x30,0x10,0x30,0x00,0x00,0x38,0x06,0x18,
 0x08,0x00,0x00,0x38,0x00,0x00,0x00,0x80,0x1b,0x00,0x00,0x00,0x40,0x00,0x00,
 0x00,0x00,0x00,0x00,0x00,0x80,0x30,0x10,0x30,0x00,0x00,0x38,0x06,0x04,0x08,
 0x00,0x00,0x07,0x00,0x00,0x00,0x40,0x18,0x00,0x00,0x00,0x40,0x00,0x00,0x00,
 0x00,0x00,0x00,0x00,0x80,0x30,0x10,0x30,0x00,0x00,0x38,0x06,0x04,0x08,0x00,
 0x80,0x00,0x00,0x00,0x00,0x30,0x18,0x00,0x00,0x00,0x40,0x00,0x00,0x00,0x00,
 0x00,0x00,0x00,0x80,0x40,0x0c,0x08,0x00,0x00,0x38,0x01,0x03,0x08,0x00,0x70,
 0x00,0x00,0x00,0x00,0x08,0x18,0x00,0x00,0x00,0x40,0x00,0x00,0x00,0x00,0x00,
 0x00,0x00,0x80,0x40,0x0c,0x08,0x00,0x00,0x38,0x01,0x03,0x08,0x00,0x70,0x00,
 0x00,0x00,0x00,0x08,0x18,0x00,0x00,0x00,0x40,0x00,0x00,0x00,0x00,0x00,0x00,
 0x00,0x80,0x40,0x0c,0x08,0x00,0x00,0x38,0x01,0x03,0x08,0x00,0x0e,0x00,0x00,
 0x00,0x00,0x06,0x18,0x00,0x00,0x00,0x40,0x00,0x00,0x00,0x00,0x00,0x00,0x00,
 0x80,0x40,0x02,0x08,0x00,0x00,0x38,0x01,0x03,0x08,0xc0,0x01,0x00,0x00,0x00,
 0x00,0x06,0x18,0x00,0x00,0x00,0x40,0x00,0x00,0x00,0x00,0x00,0x00,0x00,0x80,
 0x80,0x03,0x06,0x00,0x00,0x38,0x01,0x03,0x08,0xc0,0x01,0x00,0x00,0x00,0x00,
 0x06,0x18,0x00,0x00,0x00,0x40,0x00,0x00,0x00,0x00,0x00,0x00,0x00,0x80,0x80,
 0x03,0x06,0x00,0x00,0x38,0x01,0x03,0x08,0x20,0x00,0x00,0x00,0x00,0x00,0x01,
 0x18,0x00,0x00,0x00,0x40,0x00,0x00,0x00,0x00,0x00,0x00,0x00,0x80,0x80,0x01,
 0x06,0x00,0x00,0x38,0x01,0x03,0x08,0x1c,0x00,0x00,0x00,0x00,0xc0,0x00,0x18,
 0x00,0x00,0x00,0x40,0x00,0x00,0x00,0x00,0x00,0x00,0x00,0x80,0x80,0x01,0x01,
 0x00,0x00,0x38,0x01,0x03,0x08,0x1c,0x00,0x00,0x00,0x00,0xc0,0x00,0x18,0x00,
 0x00,0x00,0x40,0x00,0x00,0x00,0x00,0x00,0x00,0x00,0x80,0x80,0x01,0x01,0x00,
 0x00,0x38,0x01,0x03,0x88,0x03,0x00,0x00,0x00,0x00,0xc0,0x00,0x18,0x00,0x00,
 0x00,0x40,0x00,0x00,0x00,0x00,0x00,0x00,0x00,0x80,0x80,0x03,0x01,0x00,0x00,
 0x38,0x07,0x03,0x78,0x00,0x00,0x00,0x00,0x00,0xc0,0x00,0x18,0x00,0x00,0x00,
 0x40,0x00,0x00,0x00,0x00,0x00,0x00,0x00,0x80,0x40,0x82,0x00,0x00,0x00,0x38,
 0x07,0x03,0x78,0x00,0x00,0x00,0x00,0x00,0xc0,0x00,0x18,0x00,0x00,0x00,0x40,
 0x00,0x00,0x00,0x00,0x00,0x00,0x00,0x80,0x40,0x82,0x00,0x00,0x00,0x38,0x07,
 0x04,0x08,0x00,0x00,0x00,0x00,0x00,0xc0,0x00,0x18,0x00,0x00,0x00,0x40,0x00,
 0x00,0x00,0x00,0x00,0x00,0x00,0x80,0x40,0x80,0x00,0x00,0x00,0x38,0x09,0x04,
 0x06,0x00,0x00,0x00,0x00,0x00,0x20,0x00,0x18,0x00,0x00,0x00,0x40,0x00,0x00,
 0x00,0x00,0x00,0x00,0x00,0x80,0x30,0x60,0x00,0x00,0x00,0x38,0x09,0xd8,0x01,
 0x00,0x00,0x00,0x00,0x00,0x20,0x00,0x18,0x00,0x00,0x00,0x40,0x00,0x00,0x00,
 0x00,0x00,0x00,0x00,0x80,0x30,0x60,0x00,0x00,0x00,0x38,0x09,0xd8,0x01,0x00,
 0x00,0x00,0x00,0x00,0x20,0x00,0x18,0x00,0x00,0x00,0x40,0x00,0x00,0x00,0x00,
 0x00,0x00,0x00,0x80,0x30,0x60,0x00,0x00,0x00,0x38,0x31,0x20,0x00,0x00,0x00,
 0x00,0x00,0x00,0x20,0x00,0x18,0x00,0x00,0x00,0x40,0x00,0x00,0x00,0x00,0x00,
 0x00,0x00,0x80,0x08,0x60,0x00,0x00,0x00,0x38,0x41,0xc0,0x00,0x00,0x00,0xff,
 0x0f,0x00,0x20,0x00,0x18,0x00,0x00,0x00,0x40,0x00,0x00,0x00,0x00,0x00,0x00,
 0x00,0x80,0x08,0x10,0x00,0x00,0x00,0x38,0x41,0xc0,0x00,0x00,0x00,0xff,0x0f,
 0x00,0x20,0x00,0x18,0x00,0x00,0x00,0x40,0x00,0x00,0x00,0x00,0x00,0x00,0x00,
 0x80,0x08,0x10,0x00,0x00,0x00,0x38,0x41,0x00,0x01,0x00,0xf0,0x00,0x70,0x00,
 0x20,0x00,0x18,0x00,0x00,0x00,0x40,0x00,0x00,0x00,0x00,0x00,0x00,0x00,0x80,
 0x08,0x10,0x00,0x00,0x00,0x38,0x81,0x00,0x0e,0x00,0x0e,0x00,0x80,0x01,0xc0,
 0x00,0x18,0x00,0x00,0x00,0x40,0x00,0x00,0x00,0x00,0x00,0x00,0x00,0x80,0x04,
 0x0c,0x00,0x00,0x00,0x38,0x81,0x00,0x0e,0x00,0x0e,0x00,0x80,0x01,0xc0,0x00,
 0x18,0x00,0x00,0x00,0x40,0x00,0x00,0x00,0x00,0x00,0x00,0x00,0x80,0x04,0x0c,
 0x00,0x00,0x00,0x38,0x01,0x07,0x10,0x80,0x01,0x00,0x00,0x0e,0xc0,0x00,0x18,
 0x00,0x00,0x00,0x40,0x00,0x00,0x00,0x00,0x00,0x00,0x00,0x80,0x04,0x0c,0x00,
 0x00,0x00,0x38,0x01,0x38,0xe0,0x40,0x00,0x00,0x00,0x30,0xc0,0x00,0x18,0x00,
 0x00,0x00,0x40,0x00,0x00,0x00,0x00,0x00,0x00,0x00,0x80,0x03,0x02,0x00,0x00,
 0x00,0x38,0x01,0xc0,0x00,0x3f,0x00,0x00,0x00,0x30,0xc0,0x00,0x18,0x00,0x00,
 0x00,0x40,0x00,0x00,0x00,0x00,0x00,0x00,0x00,0x80,0x03,0x02,0x00,0x00,0x00,
 0x38,0x01,0xc0,0x00,0x3f,0x00,0x00,0x00,0x30,0xc0,0x00,0x18,0x00,0x00,0x00,
 0x40,0x00,0x00,0x00,0x00,0x00,0x00,0x00,0x80,0x03,0x02,0x00,0x00,0x00,0x38,
 0x01,0x00,0x07,0xe0,0x01,0x00,0x00,0x30,0x00,0x01,0x18,0x00,0x00,0x00,0x40,
 0x00,0x00,0x00,0x00,0x00,0x00,0x00,0x80,0x80,0x01,0x00,0x00,0x00,0x38,0x01,
 0x00,0x18,0x00,0x1e,0x00,0x00,0x30,0x00,0x01,0x18,0x00,0x00,0x00,0x40,0x00,
 0x00,0x00,0x00,0x00,0x00,0x00,0x80,0x80,0x01,0x00,0x00,0x00,0x38,0x01,0x00,
 0x18,0x00,0x1e,0x00,0x00,0x30,0x00,0x01,0x18,0x00,0x00,0x00,0x40,0x00,0x00,
 0x00,0x00,0x00,0x00,0x00,0x80,0x80,0x01,0x00,0x00,0x00,0x38,0x01,0x00,0xe0,
 0x00,0xe0,0x03,0x00,0x30,0x00,0x01,0x18,0x00,0x00,0x00,0x40,0x00,0x00,0x00,
 0x00,0x00,0x00,0x00,0xe0,0x40,0x00,0x00,0x00,0x00,0x38,0x01,0x00,0x60,0x1f,
 0x00,0x3c,0x00,0x30,0x00,0x01,0x18,0x00,0x00,0x00,0x40,0x00,0x00,0x00,0x00,
 0x00,0x00,0x00,0xe0,0x40,0x00,0x00,0x00,0x00,0x38,0x01,0x00,0x60,0x1f,0x00,
 0x3c,0x00,0x30,0x00,0x01,0x18,0x00,0x00,0x00,0x40,0x00,0x00,0x00,0x00,0x00,
 0x00,0x00,0xe0,0x40,0x00,0x00,0x00,0x00,0x38,0x01,0x00,0x60,0xe0,0x01,0xc0,
 0x03,0x08,0x00,0x06,0x18,0x00,0x00,0x00,0x40,0x00,0x00,0xf8,0x07,0x00,0x00,
 0x00,0xe0,0x40,0x00,0x00,0x00,0x00,0x38,0x01,0x00,0x60,0x00,0x1e,0x00,0x7c,
 0x07,0x00,0x06,0x18,0x00,0x00,0x00,0x40,0x00,0xf0,0x07,0xf8,0xff,0x07,0x00,
 0x90,0x30,0x00,0x00,0x00,0x00,0x38,0x01,0x00,0x60,0x00,0x1e,0x00,0x7c,0x07,
 0x00,0x06,0x18,0x00,0x00,0x00,0x40,0x00,0xf0,0x07,0xf8,0xff,0x07,0x00,0x90,
 0x30,0x00,0x00,0x00,0x00,0x38,0x01,0x00,0x60,0x00,0xe0,0x03,0x80,0x07,0x00,
 0x06,0x18,0x00,0x00,0x00,0x40,0x00,0x0f,0x00,0x00,0x00,0x78,0x00,0x90,0x30,
 0x00,0x00,0x00,0x00,0x38,0x01,0x00,0x60,0x00,0x00,0x3c,0x00,0x78,0x00,0x06,
 0x18,0x00,0x00,0x00,0x40,0xe0,0x00,0x00,0x00,0x00,0x80,0x03,0x8c,0x08,0x00,
 0x00,0x00,0x00,0x38,0x01,0x00,0x60,0x00,0x00,0xc0,0x03,0x80,0x07,0x08,0x18,
 0x00,0x00,0x00,0x40,0x1c,0x00,0x00,0x00,0x00,0x00,0x1c,0x8c,0x08,0x00,0x00,
 0x00,0x00,0x38,0x01,0x00,0x60,0x00,0x00,0xc0,0x03,0x80,0x07,0x08,0x18,0x00,
 0x00,0x00,0x40,0x1c,0x00,0x00,0x00,0x00,0x00,0x1c,0x8c,0x08,0x00,0x00,0x00,
 0x00,0x38,0x01,0x00,0x60,0x00,0x00,0x00,0x7c,0x00,0xf8,0x08,0x18,0x00,0x00,
 0x00,0xc0,0x03,0x00,0x00,0x70,0x00,0x00,0x60,0x82,0x04,0x00,0x00,0x00,0x00,
 0x38,0x01,0x00,0x60,0x00,0x00,0x00,0x80,0x07,0x00,0x3f,0x18,0x00,0x00,0x00,
 0x40,0x00,0x00,0xe0,0x8f,0x3f,0x00,0x80,0x8f,0x04,0x00,0x00,0x00,0x00,0x38,
 0x01,0x00,0x60,0x00,0x00,0x00,0x80,0x07,0x00,0x3f,0x18,0x00,0x00,0x00,0x40,
 0x00,0x00,0xe0,0x8f,0x3f,0x00,0x80,0x8f,0x04,0x00,0x00,0x00,0x00,0x38,0x01,
 0x00,0x60,0x00,0x00,0x00,0x00,0x78,0x00,0xc0,0x1b,0x00,0x00,0x00,0x38,0x00,
 0x00,0x1c,0x00,0xc0,0x01,0x80,0x83,0x03,0x00,0x00,0x00,0x00,0x38,0x01,0x00,
 0x60,0x00,0x00,0x00,0x00,0x80,0x07,0x00,0x3c,0x00,0x00,0x00,0x04,0x00,0x00,
 0x02,0x00,0x00,0x06,0xc0,0x81,0x03,0x00,0x00,0x00,0x00,0x18,0x01,0x00,0x60,
 0x00,0x00,0x00,0x00,0x80,0x07,0x00,0x3c,0x00,0x00,0x00,0x04,0x00,0x00,0x02,
 0x00,0x00,0x06,0xc0,0x81,0x03,0x00,0x00,0x00,0x00,0x18,0x01,0x00,0x60,0x00,
 0x00,0x00,0x00,0x00,0xf8,0x01,0xd8,0x07,0x00,0x00,0x03,0x00,0x80,0x01,0x00,
 0x00,0x08,0x78,0x80,0x03,0x00,0x00,0x00,0x00,0x18,0x01,0x00,0x60,0x00,0x00,
 0x00,0x00,0x00,0x00,0x3e,0x18,0x78,0x00,0xe0,0x00,0x00,0x40,0x00,0x00,0x00,
 0x10,0x44,0x80,0x03,0x00,0x00,0x00,0x00,0x18,0x01,0x00,0x60,0x00,0x00,0x00,
 0x00,0x00,0x00,0x3e,0x18,0x78,0x00,0xe0,0x00,0x00,0x40,0x00,0x00,0x00,0x10,
 0x44,0x80,0x03,0x00,0x00,0x00,0x00,0x18,0x01,0x00,0x60,0x00,0x00,0x00,0x00,
 0x00,0x00,0xc0,0x1b,0x80,0x07,0x10,0x00,0x00,0x40,0x00,0x00,0x00,0x90,0x23,
 0xe0,0x03,0x00,0x00,0x00,0x00,0x18,0x01,0x00,0x60,0x00,0x00,0x00,0x00,0x00,
 0x00,0x00,0x3c,0x00,0x78,0x0e,0x00,0x00,0x40,0xe0,0xff,0x3f,0x70,0x18,0x90,
 0x03,0x00,0x00,0x00,0x00,0x04,0x01,0x00,0x60,0x00,0x00,0x00,0x00,0x00,0x00,
 0x00,0xd8,0x07,0x80,0x0f,0x00,0x00,0x40,0x1c,0x00,0xc0,0x19,0x04,0x0c,0x03,
 0x00,0x00,0x00,0x00,0x04,0x01,0x00,0x60,0x00,0x00,0x00,0x00,0x00,0x00,0x00,
 0xd8,0x07,0x80,0x0f,0x00,0x00,0x40,0x1c,0x00,0xc0,0x19,0x04,0x0c,0x03,0x00,
 0x00,0x00,0x00,0x04,0x01,0x00,0x60,0x00,0x00,0x00,0x00,0x00,0x00,0x00,0x18,
 0x78,0x00,0xf0,0x00,0x00,0x80,0x03,0x00,0x00,0x86,0x03,0x02,0x03,0x00,0x00,
 0x00,0x00,0x03,0x01,0x00,0x60,0x00,0x00,0x00,0x00,0x00,0x00,0x00,0x18,0x80,
 0x07,0x00,0x0f,0x00,0x80,0x01,0x00,0xc0,0x79,0x80,0x01,0x03,0x00,0x00,0x00,
 0x00,0x03,0x01,0x00,0x60,0x00,0x00,0x00,0x00,0x00,0x00,0x00,0x18,0x80,0x07,
 0x00,0x0f,0x00,0x80,0x01,0x00,0xc0,0x79,0x80,0x01,0x03,0x00,0x00,0x00,0x00,
 0x03,0x01,0x00,0x60,0x00,0x00,0x00,0x00,0x00,0x00,0x00,0x18,0x00,0x78,0x00,
 0xf0,0x01,0x00,0x06,0x00,0x20,0x0f,0x40,0x00,0x03,0x00,0x00,0x00,0x80,0x00,
 0x01,0x00,0x60,0x00,0x00,0x00,0x00,0x00,0x00,0x00,0x18,0x00,0x80,0x0f,0x00,
 0x7e,0x00,0xf8,0x00,0xfc,0x00,0x38,0x00,0x03,0x00,0x00,0x00,0x80,0x00,0x01,
 0x00,0x60,0x00,0x00,0x00,0x00,0x00,0x00,0x00,0x18,0x00,0x80,0x0f,0x00,0x7e,
 0x00,0xf8,0x00,0xfc,0x00,0x38,0x00,0x03,0x00,0x00,0x00,0x80,0x00,0x01,0x00,
 0x60,0x00,0x00,0x00,0x00,0x00,0x00,0x00,0x18,0x00,0x00,0xf0,0x00,0x80,0x3f,
 0x00,0xff,0x1f,0x00,0x07,0x00,0x03,0x00,0x00,0x00,0x40,0x00,0x01,0x00,0x60,
 0x00,0x00,0x00,0x00,0x00,0x00,0x00,0x18,0x00,0x00,0x00,0x0f,0x00,0xc0,0xff,
 0xc0,0x00,0xe0,0x00,0x00,0x03,0x00,0x00,0x00,0x40,0x00,0x01,0x00,0x60,0x00,
 0x00,0x00,0x00,0x00,0x00,0x00,0x18,0x00,0x00,0x00,0xf0,0x03,0x00,0x00,0x30,
 0x00,0x1f,0x00,0x00,0x03,0x00,0x00,0x00,0x40,0x00,0x01,0x00,0x60,0x00,0x00,
 0x00,0x00,0x00,0x00,0x00,0x18,0x00,0x00,0x00,0xf0,0x03,0x00,0x00,0x30,0x00,
 0x1f,0x00,0x00,0x03,0x00,0x00,0x00,0x40,0x00,0x01,0x00,0x60,0x00,0x00,0x00,
 0x00,0x00,0x00,0x00,0x18,0x00,0x00,0x00,0x40,0xfc,0x0f,0x00,0x0e,0xfc,0x00,
 0x00,0x00,0x03,0x00,0x00,0x00,0x30,0x00,0x01,0x00,0x60,0x00,0x00,0x00,0x00,
 0x00,0x00,0x00,0x18,0x00,0x00,0x00,0x40,0x00,0xf0,0xff,0xff,0x03,0x00,0x00,
 0x00,0x03,0x00,0x00,0x00,0x30,0x00,0x01,0x00,0x60,0x00,0x00,0x00,0x00,0x00,
 0x00,0x00,0x18,0x00,0x00,0x00,0x40,0x00,0xf0,0xff,0xff,0x03,0x00,0x00,0x00,
 0x03,0x00,0x00,0x00,0x30,0x00,0x01,0x00,0x60,0x00,0x00,0x00,0x00,0x00,0x00,
 0x00,0x00,0x00,0x00,0x00,0x40,0x00,0x00,0x00,0x00,0x00,0x00,0x00,0x00,0x03,
 0x00,0x00,0x00,0x08,0x00,0x01,0x00,0x60,0x00,0x00,0x00,0x00,0x00,0x00,0x00,
 0x00,0x00,0x00,0x00,0x40,0x00,0x00,0x00,0x00,0x00,0x00,0x00,0x00,0x03,0x00,
 0x00,0x00,0x08,0x00,0x01,0x00,0x60,0x00,0x00,0x00,0x00,0x00,0x00,0x00,0x00,
 0x00,0x00,0x00,0x40,0x00,0x00,0x00,0x00,0x00,0x00,0x00,0x00,0x03,0x00,0x00,
 0x00,0x08,0x00,0x01,0x00,0x60,0x00,0x00,0x00,0x00,0x00,0x00,0x00,0x00,0x00,
 0x00,0x00,0x40,0x00,0x00,0x00,0x00,0x00,0x00,0x00,0x00,0x03,0x00,0x00,0x00,
 0x06,0x00,0x01,0x00,0x60,0x00,0x00,0x00,0x00,0x00,0x00,0x00,0x00,0x00,0x00,
 0x00,0x40,0x00,0x00,0x00,0x00,0x00,0x00,0x00,0x00,0x03,0x00,0x00,0x00,0x06,
 0x00,0x01,0x00,0x60,0x00,0x00,0x00,0x00,0x00,0x00,0x00,0x00,0x00,0x00,0x00,
 0x40,0x00,0x00,0x00,0x00,0x00,0x00,0x00,0x00,0x03,0x00,0x00,0x00,0x06,0x00,
 0x01,0x00,0x60,0x00,0x00,0x00,0x00,0x00,0x00,0x00,0x00,0x00,0x00,0x00,0x40,
 0x00,0x00,0x00,0x00,0x00,0x00,0x00,0x00,0x03,0x00,0x00,0x00,0x01,0x00,0x01,
 0x00,0x60,0x00,0x00,0x00,0x00,0x00,0x00,0x00,0x00,0x00,0x00,0x00,0x40,0x00,
 0x00,0x00,0x00,0x00,0x00,0x00,0x00,0x03,0x00,0x00,0x00,0x01,0x00,0x01,0x00,
 0x60,0x00,0x00,0x00,0x00,0x00,0x00,0x00,0x00,0x00,0x00,0x00,0x40,0x00,0x00,
 0x00,0x00,0x00,0x00,0x00,0x00,0x03,0x00,0x00,0xc0,0x00,0x00,0x01,0x00,0x60,
 0x00,0x00,0x00,0x00,0x00,0x00,0x00,0x00,0x00,0x00,0x00,0x40,0x00,0x00,0x00,
 0x00,0x00,0x00,0x00,0x00,0x03,0x00,0x00,0xc0,0x00,0x00,0x01,0x00,0x60,0x00,
 0x00,0x00,0x00,0x00,0x00,0x00,0x00,0x00,0x00,0x00,0x40,0x00,0x00,0x00,0x00,
 0x00,0x00,0x00,0x00,0x03,0x00,0x00,0xc0,0x00,0x00,0x01,0x00,0x60,0x00,0x00,
 0x00,0x00,0x00,0x00,0x00,0x00,0x00,0x00,0x00,0x40,0x00,0x00,0x00,0x00,0x00,
 0x00,0x00,0x00,0x03,0x00,0x00,0xc0,0x00,0x00,0x01,0x00,0x60,0x00,0x00,0x00,
 0x00,0x00,0x00,0x00,0x00,0x00,0x00,0x00,0x40,0x00,0x00,0x00,0x00,0x00,0x00,
 0x00,0x00,0x03,0x00,0x00,0xc0,0x00,0x00,0x01,0x00,0x60,0x00,0x00,0x00,0x00,
 0x00,0x00,0x00,0x00,0x00,0x00,0x00,0x40,0x00,0x00,0x00,0x00,0x00,0x00,0x00,
 0x00,0x03,0x00,0x00,0x20,0x00,0x00,0x01,0x00,0x60,0x00,0x00,0x00,0x00,0x00,
 0x00,0x00,0x00,0x00,0x00,0x00,0x40,0x00,0x00,0x00,0x00,0x00,0x00,0x00,0x00,
 0x03,0x00,0x00,0x20,0x00,0x00,0x01,0x00,0x60,0x00,0x00,0x00,0x00,0x00,0x00,
 0x00,0x00,0x00,0x00,0x00,0x40,0x00,0x00,0x00,0x00,0x00,0x00,0x00,0x00,0x03,
 0x00,0x00,0x20,0x00,0x00,0x01,0x00,0x60,0x00,0x00,0x00,0x00,0x00,0x00,0x00,
 0x00,0x00,0x00,0x00,0x40,0x00,0x00,0x00,0x00,0x00,0x00,0x00,0x00,0x03,0x00,
 0x00,0x18,0x00,0x00,0x01,0x00,0x60,0x00,0x00,0x00,0x00,0x00,0x00,0x00,0x00,
 0x00,0x00,0x00,0x40,0x00,0x00,0x00,0x00,0x00,0x00,0x00,0x00,0x03,0x00,0x00,
 0x18,0x00,0x00,0x01,0x00,0x60,0x00,0x00,0x00,0x00,0x00,0x00,0x00,0x00,0x00,
 0x00,0x00,0x40,0x00,0x00,0x00,0x00,0x00,0x00,0x00,0x00,0x03,0x00,0x00,0x18,
 0x00,0x00,0x01,0x00,0x60,0x00,0x00,0x00,0x00,0x00,0x00,0x00,0x00,0x00,0x00,
 0x00,0x40,0x00,0x00,0x00,0x00,0x00,0x00,0x00,0x00,0x03,0x00,0x00,0x04,0x00,
 0x00,0x01,0x00,0x60,0x00,0x00,0x00,0x00,0x00,0x00,0x00,0x00,0x00,0x00,0x00,
 0x40,0x00,0x00,0x00,0x00,0x00,0x00,0x00,0x00,0x03,0x00,0x00,0x04,0x00,0x00,
 0x01,0x00,0x60,0x00,0x00,0x00,0x00,0x00,0x00,0x00,0x00,0x00,0x00,0x00,0x40,
 0x00,0x00,0x00,0x00,0x00,0x00,0x00,0x00,0x03,0x00,0x00,0x02,0x00,0x00,0x01,
 0x00,0x60,0x00,0x00,0x00,0x00,0x00,0x00,0x00,0x00,0x00,0x00,0x00,0x40,0x00,
 0x00,0x00,0x00,0x00,0x00,0x00,0x00,0x03,0x00,0x00,0x02,0x00,0x00,0x01,0x00,
 0x60,0x00,0x00,0x00,0x00,0x00,0x00,0x00,0x00,0x00,0x00,0x00,0x40,0x00,0x00,
 0x00,0x00,0x00,0x00,0x00,0x00,0x03,0x00,0x00,0x02,0x00,0x00,0x01,0x00,0x60,
 0x00,0x00,0x00,0x00,0x00,0x00,0x00,0x00,0x00,0x00,0x00,0x40,0x00,0x00,0x00,
 0x00,0x00,0x00,0x00,0x00,0x03,0x00,0x00,0x02,0x00,0x00,0x01,0x00,0x60,0x00,
 0x00,0x00,0x00,0x00,0x00,0x00,0x00,0x00,0x00,0x00,0x40,0x00,0x00,0x00,0x00,
 0x00,0x00,0x00,0x00,0x03,0x00,0x00,0x02,0x00,0x00,0x01,0x00,0x60,0x00,0x00,
 0x00,0x00,0x00,0x00,0x00,0x00,0x00,0x00,0x00,0x40,0x00,0x00,0x00,0x00,0x00,
 0x00,0x00,0x00,0x03,0x00,0x80,0x01,0x00,0x00,0x01,0x00,0x60,0x00,0x00,0x00,
 0x00,0x00,0x00,0x00,0x00,0x00,0x00,0x00,0x40,0x00,0x00,0x00,0x00,0x00,0x00,
 0x00,0x00,0x03,0x00,0x80,0x01,0x00,0x00,0x01,0x00,0x60,0x00,0x00,0x00,0x00,
 0x00,0x00,0x00,0x00,0x00,0x00,0x00,0x40,0x00,0x00,0x00,0x00,0x00,0x00,0x00,
 0x00,0x03,0x00,0x80,0x01,0x00,0x00,0x01,0x00,0x60,0x00,0x00,0x00,0x00,0x00,
 0x00,0x00,0x00,0x00,0x00,0x00,0x40,0x00,0x00,0x00,0x00,0x00,0x00,0x00,0x00,
 0x03,0x00,0x40,0x00,0x00,0x00,0x01,0x00,0x60,0x00,0x00,0x00,0x00,0x00,0x00,
 0x00,0x00,0x00,0x00,0x00,0x40,0x00,0x00,0x00,0x00,0x00,0x00,0x00,0x00,0x03,
 0x00,0x40,0x00,0x00,0x00,0x01,0x00,0x60,0x00,0x00,0x00,0x00,0x00,0x00,0x00,
 0x00,0x00,0x00,0x00,0x40,0x00,0x00,0x00,0x00,0x00,0x00,0x00,0x00,0x03,0x00,
 0x30,0x00,0x00,0x00,0x01,0x00,0x60,0x00,0x00,0x00,0x00,0x00,0x00,0x00,0x00,
 0x00,0x00,0x00,0x40,0x00,0x00,0x00,0x00,0x00,0x00,0x00,0x00,0x03,0x00,0x30,
 0x00,0x00,0x00,0x01,0x00,0x60,0x00,0x00,0x00,0x00,0x00,0x00,0x00,0x00,0x00,
 0x00,0x00,0x40,0x00,0x00,0x00,0x00,0x00,0x00,0x00,0x00,0x03,0x00,0x30,0x00,
 0x00,0x00,0x01,0x00,0x60,0x00,0x00,0x00,0x00,0x00,0x00,0x00,0x00,0x00,0x00,
 0x00,0x40,0x00,0x00,0x00,0x00,0x00,0x00,0x00,0x00,0x03,0x00,0x08,0x00,0x00,
 0x00,0x01,0x00,0x60,0x00,0x00,0x00,0x00,0x00,0x00,0x00,0x00,0x00,0x00,0x00,
 0x40,0x00,0x00,0x00,0x00,0x00,0x00,0x00,0x00,0x03,0x00,0x08,0x00,0x00,0x00,
 0x01,0x00,0x60,0x00,0x00,0x00,0x00,0x00,0x00,0x00,0x00,0x00,0x00,0x00,0x40,
 0x00,0x00,0x00,0x00,0x00,0x00,0x00,0x00,0x03,0x00,0x08,0x00,0x00,0x00,0x01,
 0x00,0x60,0x00,0x00,0x00,0x00,0x00,0x00,0x00,0x00,0x00,0x00,0x00,0x40,0x00,
 0x00,0x00,0x00,0x00,0x00,0x00,0x00,0x03,0x00,0x08,0x00,0x00,0x00,0x01,0x00,
 0x60,0x00,0x00,0x00,0x00,0x00,0x00,0x00,0x00,0x00,0x00,0x00,0x40,0x00,0x00,
 0x00,0x00,0x00,0x00,0x00,0x00,0x03,0x00,0x08,0x00,0x00,0x00,0x01,0x00,0x60,
 0x00,0x00,0x00,0x00,0x00,0x00,0x00,0x00,0x00,0x00,0x00,0x40,0x00,0x00,0x00,
 0x00,0x00,0x00,0x00,0x00,0x03,0x00,0x06,0x00,0x00,0x00,0x01,0x00,0x60,0x00,
 0x00,0x00,0x00,0x00,0x00,0x00,0x00,0x00,0x00,0x00,0x40,0x00,0x00,0x00,0x00,
 0x00,0x00,0x00,0x00,0x03,0x00,0x06,0x00,0x00,0x00,0x01,0x00,0x60,0x00,0x00,
 0x00,0x00,0x00,0x00,0x00,0x00,0x00,0x00,0x00,0x40,0x00,0x00,0x00,0x00,0x00,
 0x00,0x00,0x00,0x03,0x00,0x06,0x00,0x00,0x00,0x01,0x00,0x60,0x00,0x00,0x00,
 0x00,0x00,0x00,0x00,0x00,0x00,0x00,0x00,0x40,0x00,0x00,0x00,0x00,0x00,0x00,
 0x00,0x00,0x03,0x00,0x01,0x00,0x00,0x00,0x01,0x00,0x60,0x00,0x00,0x00,0x00,
 0x00,0x00,0x00,0x00,0x00,0x00,0x00,0x40,0x00,0x00,0x00,0x00,0x00,0x00,0x00,
 0x00,0x03,0x00,0x01,0x00,0x00,0x00,0x06,0x00,0x60,0x00,0x00,0x00,0x00,0x00,
 0x00,0x00,0x00,0x00,0x00,0x00,0x40,0x00,0x00,0x00,0x00,0x00,0x00,0x00,0x00,
 0x03,0x80,0x00,0x00,0x00,0x00,0x06,0x00,0x60,0x00,0x00,0x00,0x00,0x00,0x00,
 0x00,0x00,0x00,0x00,0x00,0x40,0x00,0x00,0x00,0x00,0x00,0x00,0x00,0x00,0x03,
 0x80,0x00,0x00,0x00,0x00,0x06,0x00,0x60,0x00,0x00,0x00,0x00,0x00,0x00,0x00,
 0x00,0x00,0x00,0x00,0x40,0x00,0x00,0x00,0x00,0x00,0x00,0x00,0x00,0x03,0x80,
 0x00,0x00,0x00,0x00,0x08,0x00,0x60,0x00,0x00,0x00,0x00,0x00,0x00,0x00,0x00,
 0x00,0x00,0x00,0x40,0x00,0x00,0x00,0x00,0x00,0x00,0x00,0x00,0x03,0x60,0x00,
 0x00,0x00,0x00,0x08,0x00,0x60,0x00,0x00,0x00,0x00,0x00,0x00,0x00,0x00,0x00,
 0x00,0x00,0x40,0x00,0x00,0x00,0x00,0x00,0x00,0x00,0x00,0x03,0x60,0x00,0x00,
 0x00,0x00,0x08,0x00,0x60,0x00,0x00,0x00,0x00,0x00,0x00,0x00,0x00,0x00,0x00,
 0x00,0x40,0x00,0x00,0x00,0x00,0x00,0x00,0x00,0x00,0x03,0x60,0x00,0x00,0x00,
 0x00,0x30,0x00,0x60,0x00,0x00,0x00,0x00,0x00,0x00,0x00,0x00,0x00,0x00,0x00,
 0x40,0x00,0x00,0x00,0x00,0x00,0x00,0x00,0x00,0x03,0x60,0x00,0x00,0x00,0x00,
 0x30,0x00,0x60,0x00,0x00,0x00,0x00,0x00,0x00,0x00,0x00,0x00,0x00,0x00,0x40,
 0x00,0x00,0x00,0x00,0x00,0x00,0x00,0x00,0x03,0x60,0x00,0x00,0x00,0x00,0x40,
 0x00,0x60,0x00,0x00,0x00,0x00,0x00,0x00,0x00,0x00,0x00,0x00,0x00,0x40,0x00,
 0x00,0x00,0x00,0x00,0x00,0x00,0x00,0x03,0x10,0x00,0x00,0x00,0x00,0x40,0x00,
 0x60,0x00,0x00,0x00,0x00,0x00,0x00,0x00,0x00,0x00,0x00,0x00,0x40,0x00,0x00,
 0x00,0x00,0x00,0x00,0x00,0x00,0x03,0x10,0x00,0x00,0x00,0x00,0x40,0x00,0x60,
 0x00,0x00,0x00,0x00,0x00,0x00,0x00,0x00,0x00,0x00,0x00,0x40,0x00,0x00,0x00,
 0x00,0x00,0x00,0x00,0x00,0x03,0x10,0x00,0x00,0x00,0x00,0x80,0x00,0x60,0x00,
 0x00,0x00,0x00,0x00,0x00,0x00,0x00,0x00,0x00,0x00,0x40,0x00,0x00,0x00,0x00,
 0x00,0x00,0x00,0x00,0x03,0x0c,0x00,0x00,0x00,0x00,0x00,0x07,0x60,0x00,0x00,
 0x00,0x00,0x00,0x00,0x00,0x00,0x00,0x00,0x00,0x40,0x00,0x00,0x00,0x00,0x00,
 0x00,0x00,0x00,0x03,0x0c,0x00,0x00,0x00,0x00,0x00,0x38,0x60,0x00,0x00,0x00,
 0x00,0x00,0x00,0x00,0x00,0x00,0x00,0x00,0x40,0x00,0x00,0x00,0x00,0x00,0x00,
 0x00,0x00,0x03,0x02,0x00,0x00,0x00,0x00,0x00,0x38,0x60,0x00,0x00,0x00,0x00,
 0x00,0x00,0x00,0x00,0x00,0x00,0x00,0x40,0x00,0x00,0x00,0x00,0x00,0x00,0x00,
 0x00,0x03,0x02,0x00,0x00,0x00,0x00,0x00,0xc0,0x60,0x00,0x00,0x00,0x00,0x00,
 0x00,0x00,0x00,0x00,0x00,0x00,0x40,0x00,0x00,0x00,0x00,0x00,0x00,0x00,0x00,
 0x03,0x02,0x00,0x00,0x00,0x00,0x00,0x00,0x67,0x00,0x00,0x00,0x00,0x00,0x00,
 0x00,0x00,0x00,0x00,0x00,0x40,0x00,0x00,0x00,0x00,0x00,0x00,0x00,0x00,0x83,
 0x01,0x00,0x00,0x00,0x00,0x00,0x00,0x67,0x00,0x00,0x00,0x00,0x00,0x00,0x00,
 0x00,0x00,0x00,0x00,0x40,0x00,0x00,0x00,0x00,0x00,0x00,0x00,0x00,0x83,0x01,
 0x00,0x00,0x00,0x00,0x00,0x00,0x78,0x00,0x00,0x00,0x00,0x00,0x00,0x00,0x00,
 0x00,0x00,0x00,0x40,0x00,0x00,0x00,0x00,0x00,0x00,0x00,0x00,0x83,0x01,0x00,
 0x00,0x00,0x00,0x00,0x00,0xe0,0x00,0x00,0x00,0x00,0x00,0x00,0x00,0x00,0x00,
 0x00,0x00,0x40,0x00,0x00,0x00,0x00,0x00,0x00,0x00,0x00,0x43,0x00,0x00,0x00,
 0x00,0x00,0x00,0x00,0xe0,0x00,0x00,0x00,0x00,0x00,0x00,0x00,0x00,0x00,0x00,
 0x00,0x40,0x00,0x00,0x00,0x00,0x00,0x00,0x00,0x00,0x43,0x00,0x00,0x00,0x00,
 0x00,0x00,0x00,0x00,0x1f,0x00,0x00,0x00,0x00,0x00,0x00,0x00,0x00,0x00,0x00,
 0x40,0x00,0x00,0x00,0x00,0x00,0x00,0x00,0x00,0x43,0x00,0x00,0x00,0x00,0x00,
 0x00,0x00,0x00,0xe0,0x01,0x00,0x00,0x00,0x00,0x00,0x00,0x00,0x00,0x00,0x40,
 0x00,0x00,0x00,0x00,0x00,0x00,0x00,0x00,0x43,0x00,0x00,0x00,0x00,0x00,0x00,
 0x00,0x00,0x00,0x1e,0x00,0x00,0x00,0x00,0x00,0x00,0x00,0x00,0x00,0x40,0x00,
 0x00,0x00,0x00,0x00,0x00,0x00,0x00,0x33,0x00,0x00,0x00,0x00,0x00,0x00,0x00,
 0x00,0x00,0x1e,0x00,0x00,0x00,0x00,0x00,0x00,0x00,0x00,0x00,0x40,0x00,0x00,
 0x00,0x00,0x00,0x00,0x00,0x00,0x33,0x00,0x00,0x00,0x00,0x00,0x00,0x00,0x00,
 0x00,0xe0,0x03,0x00,0x00,0x00,0x00,0x00,0x00,0x00,0x00,0x40,0x00,0x00,0x00,
 0x00,0x00,0x00,0x00,0x00,0x33,0x00,0x00,0x00,0x00,0x00,0x00,0x00,0x00,0x00,
 0x00,0x3c,0x00,0x00,0x00,0x00,0x00,0x00,0x00,0x00,0x40,0x00,0x00,0x00,0x00,
 0x00,0x00,0x00,0x00,0x0b,0x00,0x00,0x00,0x00,0x00,0x00,0x00,0x00,0x00,0x00,
 0x3c,0x00,0x00,0x00,0x00,0x00,0x00,0x00,0x00,0x40,0x00,0x00,0x00,0x00,0x00,
 0x00,0x00,0x00,0x0b,0x00,0x00,0x00,0x00,0x00,0x00,0x00,0x00,0x00,0x00,0xc0,
 0x03,0x00,0x00,0x00,0x00,0x00,0x00,0x00,0x40,0x00,0x00,0x00,0x00,0x00,0x00,
 0x00,0x00,0x0b,0x00,0x00,0x00,0x00,0x00,0x00,0x00,0x00,0x00,0x00,0x00,0x7c,
 0x00,0x00,0x00,0x00,0x00,0x00,0x00,0x40,0x00,0x00,0x00,0x00,0x00,0x00,0x00,
 0x00,0x07,0x00,0x00,0x00,0x00,0x00,0x00,0x00,0x00,0x00,0x00,0x00,0x7c,0x00,
 0x00,0x00,0x00,0x00,0x00,0x00,0x40,0x00,0x00,0x00,0x00,0x00,0x00,0x00,0x00,
 0x07,0x00,0x00,0x00,0x00,0x00,0x00,0x00,0x00,0x00,0x00,0x00,0x80,0x07,0x00,
 0x00,0x00,0x00,0x00,0x00,0x40,0x00,0x00,0x00,0x00,0x00,0x00,0x00,0x00,0x07,
 0x00,0x00,0x00,0x00,0x00,0x00,0x00,0x00,0x00,0x00,0x00,0x00,0x78,0x00,0x00,
 0x00,0x00,0x00,0x00,0x40,0x00,0x00,0x00,0x00,0x00,0x00,0x00,0x00,0x03,0x00,
 0x00,0x00,0x00,0x00,0x00,0x00,0x00,0x00,0x00,0x00,0x00,0x78,0x00,0x00,0x00,
 0x00,0x00,0x00,0x40,0x00,0x00,0x00,0x00,0x00,0x00,0x00,0x00,0x03,0x00,0x00,
 0x00,0x00,0x00,0x00,0x00,0x00,0x00,0x00,0x00,0x00,0x80,0x07,0x00,0x00,0x00,
 0x00,0x00,0x40,0x00,0x00,0x00,0x00,0x00,0x00,0x00,0x00,0x03,0x00,0x00,0x00,
 0x00,0x00,0x00,0x00,0x00,0x00,0x00,0x00,0x00,0x00,0xf8,0x01,0x00,0x00,0x00,
 0x00,0x40,0x00,0x00,0x00,0x00,0x00,0x00,0x00,0x80,0x00,0x00,0x00,0x00,0x00,
 0x00,0x00,0x00,0x00,0x00,0x00,0x00,0x00,0x00,0x00,0x3e,0x00,0x00,0x00,0x00,
 0x40,0x00,0x00,0x00,0x00,0x00,0x00,0x00,0x80,0x00,0x00,0x00,0x00,0x00,0x00,
 0x00,0x00,0x00,0x00,0x00,0x00,0x00,0x00,0x00,0x3e,0x00,0x00,0x00,0x00,0x40,
 0x00,0x00,0x00,0x00,0x00,0x00,0x00,0x80,0x00,0x00,0x00,0x00,0x00,0x00,0x00,
 0x00,0x00,0x00,0x00,0x00,0x00,0x00,0x00,0xc0,0x03,0x00,0x00,0x00,0x40,0x00,
 0x00,0x00,0x00,0x00,0x00,0x00,0x60,0x00,0x00,0x00,0x00,0x00,0x00,0x00,0x00,
 0x00,0x00,0x00,0x00,0x00,0x00,0x00,0x00,0x3c,0x00,0x00,0x00,0x40,0x00,0x00,
 0x00,0x00,0x00,0x00,0x00,0x10,0x00,0x00,0x00,0x00,0x00,0x00,0x00,0x00,0x00,
 0x00,0x00,0x00,0x00,0x00,0x00,0x00,0x3c,0x00,0x00,0x00,0x40,0x00,0x00,0x00,
 0x00,0x00,0x00,0x00,0x10,0x00,0x00,0x00,0x00,0x00,0x00,0x00,0x00,0x00,0x00,
 0x00,0x00,0x00,0x00,0x00,0x00,0xc0,0x07,0x00,0x00,0x40,0x00,0x00,0x00,0x00,
 0x00,0x00,0x00,0x0c,0x00,0x00,0x00,0x00,0x00,0x00,0x00,0x00,0x00,0x00,0x00,
 0x00,0x00,0x00,0x00,0x00,0x00,0x78,0x00,0x00,0x40,0x00,0x00,0x00,0x00,0x00,
 0x00,0x00,0x02,0x00,0x00,0x00,0x00,0x00,0x00,0x00,0x00,0x00,0x00,0x00,0x00,
 0x00,0x00,0x00,0x00,0x00,0x78,0x00,0x00,0x40,0x00,0x00,0x00,0x00,0x00,0x00,
 0x00,0x02,0x00,0x00,0x00,0x00,0x00,0x00,0x00,0x00,0x00,0x00,0x00,0x00,0x00,
 0x00,0x00,0x00,0x00,0x80,0x07,0x00,0x40,0x00,0x00,0x00,0x00,0x00,0x00,0x80,
 0x01,0x00,0x00,0x00,0x00,0x00,0x00,0x00,0x00,0x00,0x00,0x00,0x00,0x00,0x00,
 0x00,0x00,0x00,0x00,0x78,0x00,0x40,0x00,0x00,0x00,0x00,0x00,0x00,0x40,0x00,
 0x00,0x00,0x00,0x00,0x00,0x00,0x00,0x00,0x00,0x00,0x00,0x00,0x00,0x00,0x00,
 0x00,0x00,0x00,0x78,0x00,0x40,0x00,0x00,0x00,0x00,0x00,0x00,0x40,0x00,0x00,
 0x00,0x00,0x00,0x00,0x00,0x00,0x00,0x00,0x00,0x00,0x00,0x00,0x00,0x00,0x00,
 0x00,0x00,0x80,0x0f,0x40,0x00,0x00,0x00,0x00,0x00,0x00,0x38,0x00,0x00,0x00,
 0x00,0x00,0x00,0x00,0x00,0x00,0x00,0x00,0x00,0x00,0x00,0x00,0x00,0x00,0x00,
 0x00,0x00,0xf0,0x40,0x80,0x87,0x1f,0x00,0x00,0x00,0x07,0x00,0x00,0x00,0x00,
 0x00,0x00,0x00,0x00,0x00,0x00,0x00,0x00,0x00,0x00,0x00,0x00,0x00,0x00,0x00,
 0x00,0x00,0x4f,0x62,0x48,0x20,0x00,0x00,0xe0,0x00,0x00,0x00,0x00,0x00,0x00,
 0x00,0x00,0x00,0x00,0x00,0x00,0x00,0x00,0x00,0x00,0x00,0x00,0x00,0x00,0x00,
 0x00,0x4f,0x62,0x48,0x20,0x00,0x00,0xe0,0x00,0x00,0x00,0x00,0x00,0x00,0x00,
 0x00,0x00,0x00,0x00,0x00,0x00,0x00,0x00,0x00,0x00,0x00,0x00,0x00,0x00,0x00,
 0xf0,0x63,0x48,0x20,0x00,0x00,0x1f,0x00,0x00,0x00,0x00,0x00,0x00,0x00,0x00,
 0x00,0x00,0x00,0x00,0x00,0x00,0x00,0x00,0x00,0x00,0x00,0x60,0x9f,0x7f,0xc8,
 0xff,0x4f,0x20,0x00,0xfc,0x00,0x00,0x00,0x00,0x00,0x00,0x00,0x00,0x00,0x00,
 0x00,0x00,0x00,0x00,0x00,0x00,0x00,0x00,0x00,0x00,0x60,0x9f,0x7f,0xc8,0xff,
 0x4f,0x20,0x00,0xfc,0x00,0x00,0x00,0x00,0x00,0x00,0x00,0x00,0x00,0x00,0x00,
 0x00,0x00,0x00,0x00,0x00,0x00,0x00,0x00,0x00,0xe0,0x20,0x60,0x38,0x62,0xf8,
 0xff,0xff,0x03,0x00,0x00,0x00,0x00,0x00,0x00,0x00,0x00,0x00,0x00,0x00,0x00,
 0x00,0x00,0x00,0x00,0x00,0x00,0x00,0x00,0x60,0x20,0x7e,0x08,0x62,0x88,0x27,
 0x00,0x00,0x00,0x00,0x00,0x00,0x00,0x00,0x00,0x00,0x00,0x00,0x00,0x00,0x00,
 0x00,0x00,0x00,0x00,0x00,0x00,0x00,0x60,0x20,0x7e,0x08,0x62,0x88,0x27,0x00,
 0x00,0x00,0x00,0x00,0x00,0x00,0x00,0x00,0x00,0x00,0x00,0x00,0x00,0x00,0x00,
 0x00,0x00,0x00,0x00,0x00,0x00,0x60,0xa0,0x61,0x08,0x62,0x08,0x20,0x00,0x00,
 0x00,0x00,0x00,0x00,0x00,0x00,0x00,0x00,0x00,0x00,0x00,0x00,0x00,0x00,0x00,
 0x00,0x00,0x00,0x00,0x00,0xe0,0xa0,0x61,0x08,0x62,0x48,0x18,0x00,0x00,0x00,
 0x00,0x00,0x00,0x00,0x00,0x00,0x00,0x00,0x00,0x00,0x00,0x00,0x00,0x00,0x00,
 0x00,0x00,0x00,0x00,0x60,0x1f,0x9e,0x08,0x8e,0x87,0x07,0x00,0x00,0x00,0x00,
 0x00,0x00,0x00,0x00,0x00,0x00,0x00,0x00,0x00,0x00,0x00,0x00,0x00,0x00,0x00,
 0x00,0x00,0x00,0x60,0x1f,0x9e,0x08,0x8e,0x87,0x07,0x00,0x00,0x00,0x00,0x00,
 0x00,0x00,0x00,0x00,0x00,0x00,0x00,0x00,0x00,0x00,0x00,0x00,0x00,0x00,0x00,
 0x00,0x00,0x60,0x00,0x00,0x00,0x00,0x00,0x00,0x00,0x00,0x00,0x00,0x00,0x00,
 0x00,0x00,0x00,0x00,0x00,0x00,0x00,0x00,0x00,0x00,0x00,0x00,0x00,0x00,0x00,
 0x00,0x60,0x00,0x00,0x00,0x00,0x00,0x00,0x00,0x00,0x00,0x00,0x00,0x00,0x00,
 0x00,0x00,0x00,0x00,0x00,0x00,0x00,0x00,0x00,0x00,0x00,0x00,0x00,0x00,0x00,
 0x60,0x00,0x00,0x00,0x00,0x00,0x00,0x00,0x00,0x00,0x00,0x00,0x00,0x00,0x00,
 0x00,0x00,0x00,0x00,0x00,0x00,0x00,0x00,0x00,0x00,0x00,0x00,0x00,0x00,0x60,
 0x00,0x00,0x00,0x00,0x00,0x00,0x00,0x00,0x00,0x00,0x00,0x00,0x00,0x00,0x00,
 0x00,0x00};
