600 0 1 0           
105 GICL ACIS Healer - Source: /gicl/data5/repository/ICEM-CDC/models/1797609in_blnk/1797609in_blnk.sat - 6 0 18 ACIS 6.0.3 Solaris 24 Sat Apr 13 23:09:29 2002 
1 9.999999999999999547e-07 1.000000000000000036e-10 
body $-1 $1 $-1 $2 #
lump $-1 $-1 $3 $0 #
transform $-1 1 0 0 0 1 0 0 0 1 0 0 0 1 no_rotate no_reflect no_shear #
shell $-1 $-1 $-1 $4 $-1 $1 #
face $5 $6 $7 $3 $-1 $8 reversed single #
face_name-twe-attrib $-1 $-1 $-1 $4 1 #
face $9 $10 $11 $3 $-1 $12 forward single #
loop $13 $14 $15 $4 #
plane-surface $16 0 0 0 0 0 1 1 0 0 forward_v I I I I #
face_name-twe-attrib $-1 $-1 $-1 $6 2 #
face $17 $18 $19 $3 $-1 $20 forward single #
loop $21 $22 $23 $6 #
plane-surface $24 0 0 0.3820000000000000062 0 0 1 1 0 0 forward_v I I I I #
loop_type-twe-attrib $-1 $-1 $-1 $7 0 #
loop $25 $26 $27 $4 #
coedge $-1 $28 $29 $30 $31 forward $7 $-1 #
surf-twe-attrib $-1 $-1 $-1 $8 4 #
face_name-twe-attrib $-1 $-1 $-1 $10 3 #
face $32 $33 $34 $3 $-1 $35 forward single #
loop $36 $-1 $30 $10 #
plane-surface $37 0.1000000000000000056 -3.285000000000000142 0 1 0 0 0 0 -1 forward_v I I I I #
loop_type-twe-attrib $-1 $-1 $-1 $11 0 #
loop $38 $39 $40 $6 #
coedge $-1 $41 $42 $43 $44 reversed $11 $-1 #
surf-twe-attrib $-1 $-1 $-1 $12 6 #
loop_type-twe-attrib $-1 $-1 $-1 $14 1 #
loop $45 $46 $47 $4 #
coedge $-1 $27 $27 $48 $49 reversed $14 $-1 #
coedge $-1 $50 $15 $51 $52 forward $7 $-1 #
coedge $-1 $15 $50 $53 $54 forward $7 $-1 #
coedge $-1 $55 $56 $15 $31 reversed $19 $-1 #
edge $57 $58 -4.009999999999999787 $59 0 $30 $60 forward 7 unknown #
face_name-twe-attrib $-1 $-1 $-1 $18 4 #
face $61 $62 $63 $3 $-1 $64 forward single #
loop $65 $-1 $53 $18 #
plane-surface $66 0.1000000000000000056 0.7249999999999999778 0 0 1 0 0 0 1 forward_v I I I I #
loop_type-twe-attrib $-1 $-1 $-1 $19 0 #
surf-twe-attrib $-1 $-1 $-1 $20 10 #
loop_type-twe-attrib $-1 $-1 $-1 $22 1 #
loop $67 $68 $69 $6 #
coedge $-1 $40 $40 $70 $71 reversed $22 $-1 #
coedge $-1 $72 $23 $73 $74 reversed $11 $-1 #
coedge $-1 $23 $72 $75 $76 reversed $11 $-1 #
coedge $-1 $56 $55 $23 $44 forward $19 $-1 #
edge $77 $78 -4.009999999999999787 $79 0 $43 $80 forward 7 unknown #
loop_type-twe-attrib $-1 $-1 $-1 $26 1 #
loop $81 $-1 $82 $4 #
coedge $-1 $47 $47 $83 $84 reversed $26 $-1 #
coedge $-1 $48 $48 $27 $49 forward $85 $-1 #
edge $86 $87 0 $87 6.283185307179586232 $48 $88 forward 7 unknown #
coedge $-1 $29 $28 $89 $90 forward $7 $-1 #
coedge $-1 $91 $92 $28 $52 reversed $93 $-1 #
edge $94 $59 -3.705000000000000071 $95 0 $51 $96 forward 7 unknown #
coedge $-1 $97 $98 $29 $54 reversed $34 $-1 #
edge $99 $100 -3.705000000000000071 $58 0 $53 $101 forward 7 unknown #
coedge $-1 $43 $30 $98 $102 reversed $19 $-1 #
coedge $-1 $30 $43 $91 $103 forward $19 $-1 #
edge_name-twe-attrib $-1 $-1 $-1 $31 1 8704 #
vertex $-1 $102 $104 #
vertex $-1 $103 $105 #
straight-curve $106 0.1000000000000000056 -3.285000000000000142 0 0 -1 0 I I #
face_name-twe-attrib $-1 $-1 $-1 $33 5 #
face $107 $108 $93 $3 $-1 $109 forward single #
loop $110 $-1 $89 $33 #
plane-surface $111 -3.604999999999999982 0.7249999999999999778 0 -1 0 0 0 0 1 forward_v I I I I #
loop_type-twe-attrib $-1 $-1 $-1 $34 0 #
surf-twe-attrib $-1 $-1 $-1 $35 18 #
loop_type-twe-attrib $-1 $-1 $-1 $39 1 #
loop $112 $-1 $113 $6 #
coedge $-1 $69 $69 $114 $115 reversed $39 $-1 #
coedge $-1 $70 $70 $40 $71 forward $116 $-1 #
edge $117 $118 0 $118 6.283185307179586232 $70 $119 forward 7 unknown #
coedge $-1 $42 $41 $120 $121 reversed $11 $-1 #
coedge $-1 $98 $97 $41 $74 forward $34 $-1 #
edge $122 $123 -3.705000000000000071 $78 0 $73 $124 forward 7 unknown #
coedge $-1 $92 $91 $42 $76 forward $93 $-1 #
edge $125 $79 -3.705000000000000071 $126 0 $75 $127 forward 7 unknown #
edge_name-twe-attrib $-1 $-1 $-1 $44 2 8704 #
vertex $-1 $102 $128 #
vertex $-1 $103 $129 #
straight-curve $130 0.1000000000000000056 -3.285000000000000142 0.3820000000000000062 0 -1 0 I I #
loop_type-twe-attrib $-1 $-1 $-1 $46 1 #
coedge $-1 $82 $82 $131 $132 reversed $46 $-1 #
coedge $-1 $83 $83 $47 $84 forward $133 $-1 #
edge $134 $135 0 $135 6.283185307179586232 $83 $136 forward 7 unknown #
loop $137 $-1 $48 $138 #
edge_name-twe-attrib $-1 $-1 $-1 $49 18 8704 #
vertex $-1 $49 $139 #
ellipse-curve $140 -0.625 0.3439999999999999725 0 0 0 -1 0.21875 0 0 1 I I #
coedge $-1 $141 $142 $50 $90 reversed $63 $-1 #
edge $143 $95 -4.009999999999999787 $100 0 $89 $144 forward 7 unknown #
coedge $-1 $75 $51 $56 $103 reversed $93 $-1 #
coedge $-1 $51 $75 $141 $145 forward $93 $-1 #
loop $146 $-1 $51 $62 #
edge_name-twe-attrib $-1 $-1 $-1 $52 9 8704 #
vertex $-1 $145 $147 #
straight-curve $148 -3.604999999999999982 -3.285000000000000142 0 -1 0 0 I I #
coedge $-1 $73 $53 $142 $149 reversed $34 $-1 #
coedge $-1 $53 $73 $55 $102 forward $34 $-1 #
edge_name-twe-attrib $-1 $-1 $-1 $54 3 8704 #
vertex $-1 $149 $150 #
straight-curve $151 0.1000000000000000056 0.7249999999999999778 0 1 0 0 I I #
edge $152 $78 -0.3820000000000000062 $58 0 $98 $153 forward 7 unknown #
edge $154 $79 -0.3820000000000000062 $59 0 $91 $155 forward 7 unknown #
point $-1 0.1000000000000000056 0.7249999999999999778 0 #
point $-1 0.1000000000000000056 -3.285000000000000142 0 #
cur-twe-attrib $-1 $-1 $-1 $60 31 #
face_name-twe-attrib $-1 $-1 $-1 $62 6 #
face $156 $157 $116 $3 $-1 $158 reversed single #
plane-surface $159 -3.604999999999999982 -3.285000000000000142 0 0 -1 0 0 0 -1 forward_v I I I I #
loop_type-twe-attrib $-1 $-1 $-1 $63 0 #
surf-twe-attrib $-1 $-1 $-1 $64 33 #
loop_type-twe-attrib $-1 $-1 $-1 $68 1 #
coedge $-1 $113 $113 $160 $161 reversed $68 $-1 #
coedge $-1 $114 $114 $69 $115 forward $162 $-1 #
edge $163 $164 0 $164 6.283185307179586232 $114 $165 forward 7 unknown #
loop $166 $167 $70 $108 #
edge_name-twe-attrib $-1 $-1 $-1 $71 13 8704 #
vertex $-1 $71 $168 #
ellipse-curve $169 -0.625 0.3439999999999999725 0.3820000000000000062 0 0 1 -0.1015000000000000069 0 0 1 I I #
coedge $-1 $142 $141 $72 $121 forward $63 $-1 #
edge $170 $126 -4.009999999999999787 $123 0 $120 $171 forward 7 unknown #
edge_name-twe-attrib $-1 $-1 $-1 $74 4 8704 #
vertex $-1 $149 $172 #
straight-curve $173 0.1000000000000000056 0.7249999999999999778 0.3820000000000000062 1 0 0 I I #
edge_name-twe-attrib $-1 $-1 $-1 $76 11 8704 #
vertex $-1 $145 $174 #
straight-curve $175 -3.604999999999999982 -3.285000000000000142 0.3820000000000000062 -1 0 0 I I #
point $-1 0.1000000000000000056 0.7249999999999999778 0.3820000000000000062 #
point $-1 0.1000000000000000056 -3.285000000000000142 0.3820000000000000062 #
cur-twe-attrib $-1 $-1 $-1 $80 44 #
coedge $-1 $131 $131 $82 $132 forward $176 $-1 #
edge $177 $178 0 $178 6.283185307179586232 $131 $179 forward 7 unknown #
loop $180 $-1 $83 $181 #
edge_name-twe-attrib $-1 $-1 $-1 $84 21 8704 #
vertex $-1 $84 $182 #
ellipse-curve $183 -3.224000000000000199 -1.280000000000000027 0 0 0 -1 0.21875 0 0 1 I I #
loop_type-twe-attrib $-1 $-1 $-1 $85 1 #
face $184 $185 $186 $3 $-1 $187 reversed single #
point $-1 -0.40625 0.3439999999999999725 0 #
cur-twe-attrib $-1 $-1 $-1 $88 49 #
coedge $-1 $120 $89 $92 $145 reversed $63 $-1 #
coedge $-1 $89 $120 $97 $149 forward $63 $-1 #
edge_name-twe-attrib $-1 $-1 $-1 $90 6 8704 #
straight-curve $188 -3.604999999999999982 0.7249999999999999778 0 0 1 0 I I #
edge $189 $126 -0.3820000000000000062 $95 0 $92 $190 forward 7 unknown #
loop_type-twe-attrib $-1 $-1 $-1 $93 0 #
point $-1 -3.604999999999999982 -3.285000000000000142 0 #
cur-twe-attrib $-1 $-1 $-1 $96 52 #
edge $191 $123 -0.3820000000000000062 $100 0 $142 $192 forward 7 unknown #
point $-1 -3.604999999999999982 0.7249999999999999778 0 #
cur-twe-attrib $-1 $-1 $-1 $101 54 #
edge_name-twe-attrib $-1 $-1 $-1 $102 5 8704 #
straight-curve $193 0.1000000000000000056 0.7249999999999999778 0 0 0 -1 I I #
edge_name-twe-attrib $-1 $-1 $-1 $103 10 8704 #
straight-curve $194 0.1000000000000000056 -3.285000000000000142 0 0 0 -1 I I #
face_name-twe-attrib $-1 $-1 $-1 $108 7 #
face $195 $196 $162 $3 $-1 $197 reversed single #
cone-surface $198 -0.625 0.3439999999999999725 0.3820000000000000062 0 0 -1 -0.1015000000000000069 0 0 1 I I 0 1 0.1015000000000000069 forward I I I I #
surf-twe-attrib $-1 $-1 $-1 $109 62 #
coedge $-1 $160 $160 $113 $161 forward $199 $-1 #
edge $200 $201 0 $201 6.283185307179586232 $160 $202 forward 7 unknown #
loop $203 $204 $114 $157 #
edge_name-twe-attrib $-1 $-1 $-1 $115 14 8704 #
vertex $-1 $115 $205 #
ellipse-curve $206 -0.625 -2.903999999999999915 0.3820000000000000062 0 0 1 -0.1015000000000000069 0 0 1 I I #
loop_type-twe-attrib $-1 $-1 $-1 $116 0 #
loop $207 $-1 $208 $108 #
point $-1 -0.7265000000000000346 0.3439999999999999725 0.3820000000000000062 #
cur-twe-attrib $-1 $-1 $-1 $119 71 #
edge_name-twe-attrib $-1 $-1 $-1 $121 7 8704 #
straight-curve $209 -3.604999999999999982 0.7249999999999999778 0.3820000000000000062 0 1 0 I I #
point $-1 -3.604999999999999982 0.7249999999999999778 0.3820000000000000062 #
cur-twe-attrib $-1 $-1 $-1 $124 74 #
point $-1 -3.604999999999999982 -3.285000000000000142 0.3820000000000000062 #
cur-twe-attrib $-1 $-1 $-1 $127 76 #
loop $210 $-1 $131 $211 #
edge_name-twe-attrib $-1 $-1 $-1 $132 24 8704 #
vertex $-1 $132 $212 #
ellipse-curve $213 -0.625 -2.903999999999999915 0 0 0 -1 0.21875 0 0 1 I I #
loop_type-twe-attrib $-1 $-1 $-1 $133 1 #
face $214 $215 $216 $3 $-1 $217 reversed single #
point $-1 -3.005250000000000199 -1.280000000000000027 0 #
cur-twe-attrib $-1 $-1 $-1 $136 84 #
face_name-twe-attrib $-1 $-1 $-1 $138 11 #
face $218 $181 $219 $3 $-1 $220 reversed single #
loop $221 $85 $222 $138 #
cone-surface $223 -0.625 0.3439999999999999725 0 0 0 1 0.21875 0 0 1 I I 0 1 0.21875 forward I I I I #
cur-twe-attrib $-1 $-1 $-1 $144 90 #
edge_name-twe-attrib $-1 $-1 $-1 $145 12 8704 #
straight-curve $224 -3.604999999999999982 -3.285000000000000142 0 0 0 -1 I I #
edge_name-twe-attrib $-1 $-1 $-1 $149 8 8704 #
straight-curve $225 -3.604999999999999982 0.7249999999999999778 0 0 0 -1 I I #
cur-twe-attrib $-1 $-1 $-1 $153 102 #
cur-twe-attrib $-1 $-1 $-1 $155 103 #
face_name-twe-attrib $-1 $-1 $-1 $157 8 #
face $226 $227 $199 $3 $-1 $228 reversed single #
cone-surface $229 -0.625 -2.903999999999999915 0.3820000000000000062 0 0 -1 -0.1015000000000000069 0 0 1 I I 0 1 0.1015000000000000069 forward I I I I #
surf-twe-attrib $-1 $-1 $-1 $158 108 #
loop $230 $231 $160 $196 #
edge_name-twe-attrib $-1 $-1 $-1 $161 15 8704 #
vertex $-1 $161 $232 #
ellipse-curve $233 -3.224000000000000199 -1.280000000000000027 0.3820000000000000062 0 0 1 -0.1015000000000000069 0 0 1 I I #
loop_type-twe-attrib $-1 $-1 $-1 $162 0 #
loop $234 $-1 $235 $157 #
point $-1 -0.7265000000000000346 -2.903999999999999915 0.3820000000000000062 #
cur-twe-attrib $-1 $-1 $-1 $165 115 #
loop_type-twe-attrib $-1 $-1 $-1 $167 1 #
coedge $-1 $208 $208 $236 $237 reversed $167 $-1 #
cur-twe-attrib $-1 $-1 $-1 $171 121 #
loop_type-twe-attrib $-1 $-1 $-1 $176 1 #
face $238 $-1 $239 $3 $-1 $240 reversed single #
point $-1 -0.40625 -2.903999999999999915 0 #
cur-twe-attrib $-1 $-1 $-1 $179 132 #
face_name-twe-attrib $-1 $-1 $-1 $181 13 #
face $241 $211 $242 $3 $-1 $243 reversed single #
loop $244 $133 $245 $181 #
cone-surface $246 -3.224000000000000199 -1.280000000000000027 0 0 0 1 0.21875 0 0 1 I I 0 1 0.21875 forward I I I I #
face_name-twe-attrib $-1 $-1 $-1 $185 12 #
loop $247 $248 $249 $185 #
plane-surface $250 -3.224000000000000199 -1.280000000000000027 0.25 0 0 1 1 0 0 forward_v I I I I #
loop_type-twe-attrib $-1 $-1 $-1 $186 0 #
coedge $-1 $222 $222 $251 $252 reversed $186 $-1 #
surf-twe-attrib $-1 $-1 $-1 $187 138 #
cur-twe-attrib $-1 $-1 $-1 $190 145 #
cur-twe-attrib $-1 $-1 $-1 $192 149 #
face_name-twe-attrib $-1 $-1 $-1 $196 9 #
face $253 $138 $254 $3 $-1 $255 reversed single #
cone-surface $256 -3.224000000000000199 -1.280000000000000027 0.3820000000000000062 0 0 -1 -0.1015000000000000069 0 0 1 I I 0 1 0.1015000000000000069 forward I I I I #
surf-twe-attrib $-1 $-1 $-1 $197 157 #
loop_type-twe-attrib $-1 $-1 $-1 $199 0 #
loop $257 $-1 $258 $196 #
point $-1 -3.325499999999999901 -1.280000000000000027 0.3820000000000000062 #
cur-twe-attrib $-1 $-1 $-1 $202 161 #
loop_type-twe-attrib $-1 $-1 $-1 $204 1 #
coedge $-1 $235 $235 $259 $260 reversed $204 $-1 #
coedge $-1 $236 $236 $208 $237 forward $261 $-1 #
edge $262 $263 -3.141592653589793116 $263 3.141592653589793116 $236 $264 forward 7 unknown #
face_name-twe-attrib $-1 $-1 $-1 $211 15 #
loop $265 $176 $266 $211 #
cone-surface $267 -0.625 -2.903999999999999915 0 0 0 1 0.21875 0 0 1 I I 0 1 0.21875 forward I I I I #
face_name-twe-attrib $-1 $-1 $-1 $215 14 #
loop $268 $269 $270 $215 #
plane-surface $271 -0.625 -2.903999999999999915 0.25 0 0 1 1 0 0 forward_v I I I I #
loop_type-twe-attrib $-1 $-1 $-1 $216 0 #
coedge $-1 $245 $245 $249 $272 reversed $216 $-1 #
surf-twe-attrib $-1 $-1 $-1 $217 181 #
loop_type-twe-attrib $-1 $-1 $-1 $219 0 #
loop $273 $-1 $274 $185 #
coedge $-1 $249 $249 $245 $272 forward $219 $-1 #
surf-twe-attrib $-1 $275 $-1 $220 215 #
coedge $-1 $251 $251 $222 $252 forward $254 $-1 #
edge $276 $277 -3.141592653589793116 $277 3.141592653589793116 $222 $278 forward 7 unknown #
face_name-twe-attrib $-1 $-1 $-1 $227 10 #
loop $279 $261 $251 $227 #
plane-surface $280 -0.625 0.3439999999999999725 0.25 0 0 1 1 0 0 forward_v I I I I #
surf-twe-attrib $-1 $-1 $-1 $228 196 #
loop_type-twe-attrib $-1 $-1 $-1 $231 1 #
coedge $-1 $258 $258 $274 $281 reversed $231 $-1 #
coedge $-1 $259 $259 $235 $260 forward $269 $-1 #
edge $282 $283 -3.141592653589793116 $283 3.141592653589793116 $259 $284 forward 7 unknown #
loop $285 $-1 $236 $227 #
edge_name-twe-attrib $-1 $-1 $-1 $237 16 8704 #
vertex $-1 $237 $286 #
ellipse-curve $287 -0.625 0.3439999999999999725 0.25 0 0 1 0.1015000000000000069 0 0 1 I I #
loop_type-twe-attrib $-1 $-1 $-1 $239 0 #
coedge $-1 $266 $266 $270 $288 reversed $239 $-1 #
surf-twe-attrib $-1 $-1 $-1 $240 211 #
loop_type-twe-attrib $-1 $-1 $-1 $242 0 #
loop $289 $-1 $259 $215 #
coedge $-1 $270 $270 $266 $288 forward $242 $-1 #
surf-twe-attrib $-1 $290 $-1 $243 215 #
edge $291 $292 -3.141592653589793116 $292 3.141592653589793116 $245 $293 forward 7 unknown #
loop_type-twe-attrib $-1 $-1 $-1 $248 1 #
coedge $-1 $274 $274 $258 $281 forward $248 $-1 #
surf-twe-attrib $-1 $294 $250 $220 185 #
edge_name-twe-attrib $-1 $-1 $-1 $252 17 4608 #
vertex $-1 $252 $295 #
ellipse-curve $296 -0.625 0.3439999999999999725 0.25 0 0 -1 -0.21875 0 0 1 I I #
loop_type-twe-attrib $-1 $-1 $-1 $254 0 #
surf-twe-attrib $-1 $297 $-1 $255 215 #
edge $298 $299 -3.141592653589793116 $299 3.141592653589793116 $274 $300 forward 7 unknown #
edge_name-twe-attrib $-1 $-1 $-1 $260 22 8704 #
vertex $-1 $260 $301 #
ellipse-curve $302 -0.625 -2.903999999999999915 0.25 0 0 1 0.1015000000000000069 0 0 1 I I #
loop_type-twe-attrib $-1 $-1 $-1 $261 1 #
point $-1 -0.7265000000000000346 0.3439999999999999725 0.25 #
cur-twe-attrib $-1 $-1 $-1 $264 237 #
edge $303 $304 -3.141592653589793116 $304 3.141592653589793116 $266 $305 forward 7 unknown #
loop_type-twe-attrib $-1 $-1 $-1 $269 1 #
surf-twe-attrib $-1 $306 $271 $243 185 #
edge_name-twe-attrib $-1 $-1 $-1 $272 20 4608 #
vertex $-1 $272 $307 #
ellipse-curve $308 -3.224000000000000199 -1.280000000000000027 0.25 0 0 -1 -0.21875 0 0 1 I I #
surf-twe-attrib $-1 $-1 $275 $220 227 #
point $-1 -0.40625 0.3439999999999999725 0.25 #
cur-twe-attrib $-1 $-1 $-1 $278 252 #
surf-twe-attrib $-1 $309 $280 $255 185 #
edge_name-twe-attrib $-1 $-1 $-1 $281 19 8704 #
vertex $-1 $281 $310 #
ellipse-curve $311 -3.224000000000000199 -1.280000000000000027 0.25 0 0 1 0.1015000000000000069 0 0 1 I I #
point $-1 -0.7265000000000000346 -2.903999999999999915 0.25 #
cur-twe-attrib $-1 $-1 $-1 $284 260 #
edge_name-twe-attrib $-1 $-1 $-1 $288 23 4608 #
vertex $-1 $288 $312 #
ellipse-curve $313 -0.625 -2.903999999999999915 0.25 0 0 -1 -0.21875 0 0 1 I I #
surf-twe-attrib $-1 $-1 $290 $243 227 #
point $-1 -3.005250000000000199 -1.280000000000000027 0.25 #
cur-twe-attrib $-1 $-1 $-1 $293 272 #
surf-twe-attrib $-1 $-1 $297 $255 227 #
point $-1 -3.325499999999999901 -1.280000000000000027 0.25 #
cur-twe-attrib $-1 $-1 $-1 $300 281 #
point $-1 -0.40625 -2.903999999999999915 0.25 #
cur-twe-attrib $-1 $-1 $-1 $305 288 #
End-of-ACIS-data 