700 0 2 0           
24 FBMach with ACIS - 7.0.3 13 ACIS 7.0.3 NT 24 Tue May 14 12:19:14 2002 
1 9.9999999999999995e-007 1e-010 
body $2 -1 $-1 $3 $-1 $4 #
bdycol-kcp $-1 -1 1 7 $5 $6 $7 $8 $9 $10 $11 #
model_id-kcp-attrib $-1 -1 $-1 $-1 $0 1 1021393153 1021393153 1621491713 1 #
lump $-1 -1 $-1 $-1 $12 $0 #
transform $-1 -1 1 0 0 0 1 0 0 0 1 0 0 0 1 rotate no_reflect no_shear #
body $13 -1 $-1 $14 $-1 $15 #
body $16 -1 $-1 $17 $-1 $18 #
body $19 -1 $-1 $20 $-1 $21 #
body $22 -1 $-1 $23 $-1 $24 #
body $25 -1 $-1 $26 $-1 $27 #
body $28 -1 $-1 $29 $-1 $30 #
body $31 -1 $-1 $32 $-1 $33 #
shell $-1 -1 $-1 $-1 $-1 $34 $-1 $3 #
rgb_color-st-attrib $-1 -1 $35 $-1 $5 0.5 1 1 #
lump $-1 -1 $-1 $-1 $36 $5 #
transform $-1 -1 -1 0 -1.2246063538223773e-016 0 1 0 1.2246063538223773e-016 0 -1 -0.625 0.34399999999999997 0.316 1 rotate no_reflect no_shear #
rgb_color-st-attrib $-1 -1 $37 $-1 $6 0.5 1 1 #
lump $-1 -1 $-1 $-1 $38 $6 #
transform $-1 -1 -1 0 -1.2246063538223773e-016 0 1 0 1.2246063538223773e-016 0 -1 -0.625 -2.9039999999999999 0.316 1 rotate no_reflect no_shear #
rgb_color-st-attrib $-1 -1 $39 $-1 $7 0.5 1 1 #
lump $-1 -1 $-1 $-1 $40 $7 #
transform $-1 -1 -1 0 -1.2246063538223773e-016 0 1 0 1.2246063538223773e-016 0 -1 -3.2240000000000002 -1.28 0.316 1 rotate no_reflect no_shear #
rgb_color-st-attrib $-1 -1 $41 $-1 $8 0.5 1 1 #
lump $-1 -1 $-1 $-1 $42 $8 #
transform $-1 -1 1 0 0 0 1 0 0 0 1 -0.625 0.34399999999999997 0.125 1 no_rotate no_reflect no_shear #
rgb_color-st-attrib $-1 -1 $43 $-1 $9 0.5 1 1 #
lump $-1 -1 $-1 $-1 $44 $9 #
transform $-1 -1 1 0 0 0 1 0 0 0 1 -3.2240000000000002 -1.28 0.125 1 no_rotate no_reflect no_shear #
rgb_color-st-attrib $-1 -1 $45 $-1 $10 0.5 1 1 #
lump $-1 -1 $-1 $-1 $46 $10 #
transform $-1 -1 1 0 0 0 1 0 0 0 1 -0.625 -2.9039999999999999 0.125 1 no_rotate no_reflect no_shear #
model_id-kcp-attrib $-1 -1 $-1 $-1 $11 1 1021393153 1021393153 1621491714 1 #
lump $-1 -1 $-1 $-1 $47 $11 #
transform $-1 -1 1 0 0 0 1 0 0 0 1 -1.7524999999999999 -1.28 0.191 1 no_rotate no_reflect no_shear #
face $48 -1 $-1 $49 $50 $12 $-1 $51 reversed single #
model_id-kcp-attrib $-1 -1 $-1 $13 $5 1 1021393153 1021393153 1613234179 1 #
shell $-1 -1 $-1 $-1 $-1 $52 $-1 $14 #
model_id-kcp-attrib $-1 -1 $-1 $16 $6 1 1021393153 1021393153 1613889540 1 #
shell $-1 -1 $-1 $-1 $-1 $53 $-1 $17 #
model_id-kcp-attrib $-1 -1 $-1 $19 $7 1 1021393153 1021393153 1613889541 1 #
shell $-1 -1 $-1 $-1 $-1 $54 $-1 $20 #
model_id-kcp-attrib $-1 -1 $-1 $22 $8 1 1021393153 1021393153 1613889542 1 #
shell $-1 -1 $-1 $-1 $-1 $55 $-1 $23 #
model_id-kcp-attrib $-1 -1 $-1 $25 $9 1 1021393153 1021393153 1614544903 1 #
shell $-1 -1 $-1 $-1 $-1 $56 $-1 $26 #
model_id-kcp-attrib $-1 -1 $-1 $28 $10 1 1021393153 1021393153 1614544904 1 #
shell $-1 -1 $-1 $-1 $-1 $57 $-1 $29 #
shell $-1 -1 $-1 $-1 $-1 $58 $-1 $32 #
model_id-kcp-attrib $-1 -1 $59 $-1 $34 1 1021393153 1021393153 1621491713 2 #
face $60 -1 $-1 $61 $62 $12 $-1 $63 forward single #
loop $64 -1 $-1 $65 $66 $34 #
plane-surface $67 -1 $-1 0 0 0 0 0 1 1 0 0 forward_v I I I I #
face $-1 -1 $-1 $68 $69 $36 $-1 $70 forward single #
face $-1 -1 $-1 $71 $72 $38 $-1 $73 forward single #
face $-1 -1 $-1 $74 $75 $40 $-1 $76 forward single #
face $-1 -1 $-1 $77 $78 $42 $-1 $79 forward single #
face $-1 -1 $-1 $80 $81 $44 $-1 $82 forward single #
face $-1 -1 $-1 $83 $84 $46 $-1 $85 forward single #
face $86 -1 $-1 $87 $88 $47 $-1 $89 forward single #
face_name-twe-attrib $-1 -1 $-1 $48 $34 1 #
model_id-kcp-attrib $-1 -1 $90 $-1 $49 1 1021393153 1021393153 1621491713 3 #
face $91 -1 $-1 $92 $93 $12 $-1 $94 forward single #
loop $95 -1 $-1 $96 $97 $49 #
plane-surface $98 -1 $-1 0 0 0.38200000000000001 0 0 1 1 0 0 forward_v I I I I #
loop_type-twe-attrib $-1 -1 $-1 $-1 $50 0 #
loop $99 -1 $-1 $100 $101 $34 #
coedge $-1 -1 $-1 $102 $103 $104 $105 forward $50 $-1 #
surf-twe-attrib $-1 -1 $-1 $-1 $51 4 #
face $-1 -1 $-1 $106 $107 $36 $-1 $108 forward single #
loop $-1 -1 $-1 $109 $110 $52 #
cone-surface $-1 -1 $-1 0 0 0 0 0 1 0.10150000000000001 0 0 1 I I 0 1 0.10150000000000001 forward I I I I #
face $-1 -1 $-1 $111 $112 $38 $-1 $113 forward single #
loop $-1 -1 $-1 $114 $115 $53 #
cone-surface $-1 -1 $-1 0 0 0 0 0 1 0.10150000000000001 0 0 1 I I 0 1 0.10150000000000001 forward I I I I #
face $-1 -1 $-1 $116 $117 $40 $-1 $118 forward single #
loop $-1 -1 $-1 $119 $120 $54 #
cone-surface $-1 -1 $-1 0 0 0 0 0 1 0.10150000000000001 0 0 1 I I 0 1 0.10150000000000001 forward I I I I #
face $-1 -1 $-1 $121 $122 $42 $-1 $123 forward single #
loop $-1 -1 $-1 $124 $125 $55 #
cone-surface $-1 -1 $-1 0 0 0 0 0 1 0.21875 0 0 1 I I 0 1 0.21875 forward I I I I #
face $-1 -1 $-1 $126 $127 $44 $-1 $128 forward single #
loop $-1 -1 $-1 $129 $130 $56 #
cone-surface $-1 -1 $-1 0 0 0 0 0 1 0.21875 0 0 1 I I 0 1 0.21875 forward I I I I #
face $-1 -1 $-1 $131 $132 $46 $-1 $133 forward single #
loop $-1 -1 $-1 $134 $135 $57 #
cone-surface $-1 -1 $-1 0 0 0 0 0 1 0.21875 0 0 1 I I 0 1 0.21875 forward I I I I #
model_id-kcp-attrib $-1 -1 $-1 $-1 $58 1 1021393153 1021393153 1621491714 3 #
face $136 -1 $-1 $137 $138 $47 $-1 $139 reversed single #
loop $-1 -1 $-1 $-1 $140 $58 #
plane-surface $-1 -1 $-1 0 0 0.191 0 0 1 1 0 0 forward_v I I I I #
face_name-twe-attrib $-1 -1 $-1 $60 $49 2 #
model_id-kcp-attrib $-1 -1 $141 $-1 $61 1 1021393153 1021393153 1621491713 4 #
face $142 -1 $-1 $143 $144 $12 $-1 $145 forward single #
loop $146 -1 $-1 $-1 $104 $61 #
plane-surface $147 -1 $-1 0.10000000000000001 -3.2850000000000001 0 1 0 0 0 0 -1 forward_v I I I I #
loop_type-twe-attrib $-1 -1 $-1 $-1 $62 0 #
loop $148 -1 $-1 $149 $150 $49 #
coedge $-1 -1 $-1 $151 $152 $153 $154 reversed $62 $-1 #
surf-twe-attrib $-1 -1 $-1 $-1 $63 6 #
loop_type-twe-attrib $-1 -1 $-1 $-1 $65 1 #
loop $155 -1 $-1 $156 $157 $34 #
coedge $-1 -1 $-1 $101 $101 $158 $159 reversed $65 $-1 #
coedge $-1 -1 $-1 $160 $66 $161 $162 forward $50 $-1 #
coedge $-1 -1 $-1 $66 $160 $163 $164 forward $50 $-1 #
coedge $-1 -1 $-1 $165 $166 $66 $105 reversed $93 $-1 #
edge $167 -1 $-1 $168 -4.0099999999999998 $169 0 $104 $170 forward @7 unknown #
face $-1 -1 $-1 $-1 $171 $36 $-1 $172 forward single #
loop $-1 -1 $-1 $-1 $173 $68 #
plane-surface $-1 -1 $-1 0 0 -0.066000000000000003 0 0 -1 -1 0 0 forward_v I I I I #
loop $-1 -1 $-1 $-1 $174 $52 #
coedge $-1 -1 $-1 $110 $110 $173 $175 reversed $69 $-1 #
face $-1 -1 $-1 $-1 $176 $38 $-1 $177 forward single #
loop $-1 -1 $-1 $-1 $178 $71 #
plane-surface $-1 -1 $-1 0 0 -0.066000000000000003 0 0 -1 -1 0 0 forward_v I I I I #
loop $-1 -1 $-1 $-1 $179 $53 #
coedge $-1 -1 $-1 $115 $115 $178 $180 reversed $72 $-1 #
face $-1 -1 $-1 $-1 $181 $40 $-1 $182 forward single #
loop $-1 -1 $-1 $-1 $183 $74 #
plane-surface $-1 -1 $-1 0 0 -0.066000000000000003 0 0 -1 -1 0 0 forward_v I I I I #
loop $-1 -1 $-1 $-1 $184 $54 #
coedge $-1 -1 $-1 $120 $120 $183 $185 reversed $75 $-1 #
face $-1 -1 $-1 $-1 $186 $42 $-1 $187 forward single #
loop $-1 -1 $-1 $-1 $188 $77 #
plane-surface $-1 -1 $-1 0 0 -0.125 0 0 -1 -1 0 0 forward_v I I I I #
loop $-1 -1 $-1 $-1 $189 $55 #
coedge $-1 -1 $-1 $125 $125 $188 $190 reversed $78 $-1 #
face $-1 -1 $-1 $-1 $191 $44 $-1 $192 forward single #
loop $-1 -1 $-1 $-1 $193 $80 #
plane-surface $-1 -1 $-1 0 0 -0.125 0 0 -1 -1 0 0 forward_v I I I I #
loop $-1 -1 $-1 $-1 $194 $56 #
coedge $-1 -1 $-1 $130 $130 $193 $195 reversed $81 $-1 #
face $-1 -1 $-1 $-1 $196 $46 $-1 $197 forward single #
loop $-1 -1 $-1 $-1 $198 $83 #
plane-surface $-1 -1 $-1 0 0 -0.125 0 0 -1 -1 0 0 forward_v I I I I #
loop $-1 -1 $-1 $-1 $199 $57 #
coedge $-1 -1 $-1 $135 $135 $198 $200 reversed $84 $-1 #
model_id-kcp-attrib $-1 -1 $-1 $-1 $87 1 1021393153 1021393153 1621491714 2 #
face $201 -1 $-1 $202 $203 $47 $-1 $204 reversed single #
loop $-1 -1 $-1 $-1 $205 $87 #
plane-surface $-1 -1 $-1 0 0 -0.191 0 0 1 1 0 0 forward_v I I I I #
coedge $-1 -1 $-1 $206 $207 $208 $209 forward $88 $-1 #
face_name-twe-attrib $-1 -1 $-1 $91 $61 3 #
model_id-kcp-attrib $-1 -1 $210 $-1 $92 1 1021393153 1021393153 1621491713 5 #
face $211 -1 $-1 $212 $213 $12 $-1 $214 forward single #
loop $215 -1 $-1 $-1 $163 $92 #
plane-surface $216 -1 $-1 0.10000000000000001 0.72499999999999998 0 0 1 0 0 0 1 forward_v I I I I #
loop_type-twe-attrib $-1 -1 $-1 $-1 $93 0 #
surf-twe-attrib $-1 -1 $-1 $-1 $94 10 #
model_id-kcp-attrib $-1 -1 $217 $-1 $96 1 1021393153 1021393153 1621491713 21 #
loop $218 -1 $-1 $219 $220 $49 #
coedge $-1 -1 $-1 $150 $150 $221 $222 reversed $96 $-1 #
coedge $-1 -1 $-1 $223 $97 $224 $225 reversed $62 $-1 #
coedge $-1 -1 $-1 $97 $223 $226 $227 reversed $62 $-1 #
coedge $-1 -1 $-1 $166 $165 $97 $154 forward $93 $-1 #
edge $228 -1 $-1 $229 -4.0099999999999998 $230 0 $153 $231 forward @7 unknown #
loop_type-twe-attrib $-1 -1 $-1 $-1 $100 1 #
loop $232 -1 $-1 $-1 $233 $34 #
coedge $-1 -1 $-1 $157 $157 $234 $235 reversed $100 $-1 #
coedge $-1 -1 $-1 $158 $158 $101 $159 forward $236 $-1 #
edge $237 -1 $-1 $238 0 $238 6.2831853071795862 $158 $239 forward @7 unknown #
coedge $-1 -1 $-1 $103 $102 $240 $241 forward $50 $-1 #
coedge $-1 -1 $-1 $242 $243 $102 $162 reversed $244 $-1 #
edge $245 -1 $-1 $169 -3.7050000000000001 $246 0 $161 $247 forward @7 unknown #
coedge $-1 -1 $-1 $248 $249 $103 $164 reversed $144 $-1 #
edge $250 -1 $-1 $251 -3.7050000000000001 $168 0 $163 $252 forward @7 unknown #
coedge $-1 -1 $-1 $153 $104 $249 $253 reversed $93 $-1 #
coedge $-1 -1 $-1 $104 $153 $242 $254 forward $93 $-1 #
attrib_edge_convexity-kcp-attrib $-1 -1 $255 $-1 $105 1 #
vertex $-1 -1 $-1 $253 $256 #
vertex $-1 -1 $-1 $254 $257 #
straight-curve $258 -1 $-1 0.10000000000000001 -3.2850000000000001 0 0 -1 0 I I #
loop $-1 -1 $-1 $-1 $259 $106 #
plane-surface $-1 -1 $-1 0 0 0.066000000000000003 0 0 1 1 0 0 forward_v I I I I #
coedge $-1 -1 $-1 $173 $173 $110 $175 forward $107 $-1 #
coedge $-1 -1 $-1 $174 $174 $259 $260 reversed $109 $-1 #
edge $-1 -1 $-1 $261 0 $261 6.2831853071795862 $173 $262 forward @7 unknown #
loop $-1 -1 $-1 $-1 $263 $111 #
plane-surface $-1 -1 $-1 0 0 0.066000000000000003 0 0 1 1 0 0 forward_v I I I I #
coedge $-1 -1 $-1 $178 $178 $115 $180 forward $112 $-1 #
coedge $-1 -1 $-1 $179 $179 $263 $264 reversed $114 $-1 #
edge $-1 -1 $-1 $265 0 $265 6.2831853071795862 $178 $266 forward @7 unknown #
loop $-1 -1 $-1 $-1 $267 $116 #
plane-surface $-1 -1 $-1 0 0 0.066000000000000003 0 0 1 1 0 0 forward_v I I I I #
coedge $-1 -1 $-1 $183 $183 $120 $185 forward $117 $-1 #
coedge $-1 -1 $-1 $184 $184 $267 $268 reversed $119 $-1 #
edge $-1 -1 $-1 $269 0 $269 6.2831853071795862 $183 $270 forward @7 unknown #
loop $-1 -1 $-1 $-1 $271 $121 #
plane-surface $-1 -1 $-1 0 0 0.125 0 0 1 1 0 0 forward_v I I I I #
coedge $-1 -1 $-1 $188 $188 $125 $190 forward $122 $-1 #
coedge $-1 -1 $-1 $189 $189 $271 $272 reversed $124 $-1 #
edge $-1 -1 $-1 $273 0 $273 6.2831853071795862 $188 $274 forward @7 unknown #
loop $-1 -1 $-1 $-1 $275 $126 #
plane-surface $-1 -1 $-1 0 0 0.125 0 0 1 1 0 0 forward_v I I I I #
coedge $-1 -1 $-1 $193 $193 $130 $195 forward $127 $-1 #
coedge $-1 -1 $-1 $194 $194 $275 $276 reversed $129 $-1 #
edge $-1 -1 $-1 $277 0 $277 6.2831853071795862 $193 $278 forward @7 unknown #
loop $-1 -1 $-1 $-1 $279 $131 #
plane-surface $-1 -1 $-1 0 0 0.125 0 0 1 1 0 0 forward_v I I I I #
coedge $-1 -1 $-1 $198 $198 $135 $200 forward $132 $-1 #
coedge $-1 -1 $-1 $199 $199 $279 $280 reversed $134 $-1 #
edge $-1 -1 $-1 $281 0 $281 6.2831853071795862 $198 $282 forward @7 unknown #
model_id-kcp-attrib $-1 -1 $-1 $-1 $137 1 1021393153 1021393153 1621491714 7 #
face $283 -1 $-1 $284 $285 $47 $-1 $286 reversed single #
loop $-1 -1 $-1 $-1 $287 $137 #
plane-surface $-1 -1 $-1 0 -2.0049999999999999 0 0 1 0 0 0 1 forward_v I I I I #
coedge $-1 -1 $-1 $288 $289 $290 $291 forward $138 $-1 #
coedge $-1 -1 $-1 $292 $140 $293 $294 forward $88 $-1 #
coedge $-1 -1 $-1 $140 $292 $295 $296 forward $88 $-1 #
coedge $-1 -1 $-1 $297 $298 $140 $209 reversed $299 $-1 #
edge $-1 -1 $-1 $300 -2.0049999999999999 $301 2.0049999999999999 $208 $302 forward @7 unknown #
face_name-twe-attrib $-1 -1 $-1 $142 $92 4 #
model_id-kcp-attrib $-1 -1 $303 $-1 $143 1 1021393153 1021393153 1621491713 6 #
face $304 -1 $-1 $305 $244 $12 $-1 $306 forward single #
loop $307 -1 $-1 $-1 $240 $143 #
plane-surface $308 -1 $-1 -3.605 0.72499999999999998 0 -1 0 0 0 0 1 forward_v I I I I #
loop_type-twe-attrib $-1 -1 $-1 $-1 $144 0 #
surf-twe-attrib $-1 -1 $-1 $-1 $145 18 #
loop_type-twe-attrib $-1 -1 $-1 $148 $96 1 #
model_id-kcp-attrib $-1 -1 $309 $-1 $149 1 1021393153 1021393153 1621491713 28 #
loop $310 -1 $-1 $-1 $311 $49 #
coedge $-1 -1 $-1 $220 $220 $312 $313 reversed $149 $-1 #
coedge $-1 -1 $-1 $221 $221 $150 $222 forward $314 $-1 #
edge $315 -1 $-1 $316 0 $316 6.2831853071795862 $221 $317 forward @7 unknown #
coedge $-1 -1 $-1 $152 $151 $318 $319 reversed $62 $-1 #
coedge $-1 -1 $-1 $249 $248 $151 $225 forward $144 $-1 #
edge $320 -1 $-1 $321 -3.7050000000000001 $229 0 $224 $322 forward @7 unknown #
coedge $-1 -1 $-1 $243 $242 $152 $227 forward $244 $-1 #
edge $323 -1 $-1 $230 -3.7050000000000001 $324 0 $226 $325 forward @7 unknown #
attrib_edge_convexity-kcp-attrib $-1 -1 $326 $-1 $154 1 #
vertex $-1 -1 $-1 $253 $327 #
vertex $-1 -1 $-1 $254 $328 #
straight-curve $329 -1 $-1 0.10000000000000001 -3.2850000000000001 0.38200000000000001 0 -1 0 I I #
loop_type-twe-attrib $-1 -1 $-1 $-1 $156 1 #
coedge $-1 -1 $-1 $233 $233 $330 $331 reversed $156 $-1 #
coedge $-1 -1 $-1 $234 $234 $157 $235 forward $332 $-1 #
edge $333 -1 $-1 $334 0 $334 6.2831853071795862 $234 $335 forward @7 unknown #
loop $336 -1 $-1 $-1 $158 $337 #
attrib_edge_convexity-kcp-attrib $-1 -1 $338 $-1 $159 1 #
vertex $-1 -1 $-1 $159 $339 #
ellipse-curve $340 -1 $-1 -0.625 0.34399999999999997 0 0 0 -1 0.21875 0 0 1 I I #
coedge $-1 -1 $-1 $341 $342 $160 $241 reversed $213 $-1 #
edge $343 -1 $-1 $246 -4.0099999999999998 $251 0 $240 $344 forward @7 unknown #
coedge $-1 -1 $-1 $226 $161 $166 $254 reversed $244 $-1 #
coedge $-1 -1 $-1 $161 $226 $341 $345 forward $244 $-1 #
loop $346 -1 $-1 $-1 $161 $212 #
attrib_edge_convexity-kcp-attrib $-1 -1 $347 $-1 $162 1 #
vertex $-1 -1 $-1 $345 $348 #
straight-curve $349 -1 $-1 -3.605 -3.2850000000000001 0 -1 0 0 I I #
coedge $-1 -1 $-1 $224 $163 $342 $350 reversed $144 $-1 #
coedge $-1 -1 $-1 $163 $224 $165 $253 forward $144 $-1 #
attrib_edge_convexity-kcp-attrib $-1 -1 $351 $-1 $164 1 #
vertex $-1 -1 $-1 $350 $352 #
straight-curve $353 -1 $-1 0.10000000000000001 0.72499999999999998 0 1 0 0 I I #
edge $354 -1 $-1 $229 -0.38200000000000001 $168 0 $249 $355 forward @7 unknown #
edge $356 -1 $-1 $230 -0.38200000000000001 $169 0 $242 $357 forward @7 unknown #
convexity-sys-attrib $-1 -1 $358 $167 $105 #
point $-1 -1 $-1 0.10000000000000001 0.72499999999999998 0 #
point $-1 -1 $-1 0.10000000000000001 -3.2850000000000001 0 #
cur-twe-attrib $-1 -1 $-1 $-1 $170 31 #
coedge $-1 -1 $-1 $259 $259 $174 $260 forward $171 $-1 #
edge $-1 -1 $-1 $359 0 $359 6.2831853071795862 $259 $360 forward @7 unknown #
vertex $-1 -1 $-1 $175 $361 #
ellipse-curve $-1 -1 $-1 0 0 -0.066000000000000003 0 0 -1 0.10150000000000001 0 0 1 I I #
coedge $-1 -1 $-1 $263 $263 $179 $264 forward $176 $-1 #
edge $-1 -1 $-1 $362 0 $362 6.2831853071795862 $263 $363 forward @7 unknown #
vertex $-1 -1 $-1 $180 $364 #
ellipse-curve $-1 -1 $-1 0 0 -0.066000000000000003 0 0 -1 0.10150000000000001 0 0 1 I I #
coedge $-1 -1 $-1 $267 $267 $184 $268 forward $181 $-1 #
edge $-1 -1 $-1 $365 0 $365 6.2831853071795862 $267 $366 forward @7 unknown #
vertex $-1 -1 $-1 $185 $367 #
ellipse-curve $-1 -1 $-1 0 0 -0.066000000000000003 0 0 -1 0.10150000000000001 0 0 1 I I #
coedge $-1 -1 $-1 $271 $271 $189 $272 forward $186 $-1 #
edge $-1 -1 $-1 $368 0 $368 6.2831853071795862 $271 $369 forward @7 unknown #
vertex $-1 -1 $-1 $190 $370 #
ellipse-curve $-1 -1 $-1 0 0 -0.125 0 0 -1 0.21875 0 0 1 I I #
coedge $-1 -1 $-1 $275 $275 $194 $276 forward $191 $-1 #
edge $-1 -1 $-1 $371 0 $371 6.2831853071795862 $275 $372 forward @7 unknown #
vertex $-1 -1 $-1 $195 $373 #
ellipse-curve $-1 -1 $-1 0 0 -0.125 0 0 -1 0.21875 0 0 1 I I #
coedge $-1 -1 $-1 $279 $279 $199 $280 forward $196 $-1 #
edge $-1 -1 $-1 $374 0 $374 6.2831853071795862 $279 $375 forward @7 unknown #
vertex $-1 -1 $-1 $200 $376 #
ellipse-curve $-1 -1 $-1 0 0 -0.125 0 0 -1 0.21875 0 0 1 I I #
model_id-kcp-attrib $-1 -1 $-1 $-1 $202 1 1021393153 1021393153 1621491714 6 #
face $377 -1 $-1 $378 $379 $47 $-1 $380 reversed single #
loop $-1 -1 $-1 $-1 $381 $202 #
plane-surface $-1 -1 $-1 -1.8525 0 0 1 0 0 0 0 -1 forward_v I I I I #
coedge $-1 -1 $-1 $382 $295 $383 $384 forward $203 $-1 #
coedge $-1 -1 $-1 $385 $205 $382 $386 forward $138 $-1 #
coedge $-1 -1 $-1 $205 $385 $387 $388 forward $138 $-1 #
coedge $-1 -1 $-1 $298 $297 $205 $291 reversed $299 $-1 #
edge $-1 -1 $-1 $389 -2.0049999999999999 $390 2.0049999999999999 $290 $391 forward @7 unknown #
coedge $-1 -1 $-1 $207 $206 $392 $393 forward $88 $-1 #
coedge $-1 -1 $-1 $394 $395 $206 $294 reversed $379 $-1 #
edge $-1 -1 $-1 $301 -1.8525 $396 1.8525 $293 $397 forward @7 unknown #
coedge $-1 -1 $-1 $287 $398 $207 $296 reversed $203 $-1 #
edge $-1 -1 $-1 $399 -1.8525 $300 1.8525 $295 $400 forward @7 unknown #
coedge $-1 -1 $-1 $290 $208 $398 $401 forward $299 $-1 #
coedge $-1 -1 $-1 $208 $290 $394 $402 reversed $299 $-1 #
loop $-1 -1 $-1 $-1 $297 $378 #
vertex $-1 -1 $-1 $209 $403 #
vertex $-1 -1 $-1 $209 $404 #
straight-curve $-1 -1 $-1 1.8525 0 0.191 0 1 0 I I #
face_name-twe-attrib $-1 -1 $-1 $211 $143 5 #
model_id-kcp-attrib $-1 -1 $405 $-1 $212 1 1021393153 1021393153 1621491713 7 #
face $406 -1 $-1 $407 $314 $12 $-1 $408 reversed single #
plane-surface $409 -1 $-1 -3.605 -3.2850000000000001 0 0 -1 0 0 0 -1 forward_v I I I I #
loop_type-twe-attrib $-1 -1 $-1 $-1 $213 0 #
surf-twe-attrib $-1 -1 $-1 $-1 $214 33 #
loop_type-twe-attrib $-1 -1 $-1 $218 $149 1 #
model_id-kcp-attrib $-1 -1 $410 $-1 $219 1 1021393153 1021393153 1621491713 35 #
coedge $-1 -1 $-1 $311 $311 $411 $412 reversed $219 $-1 #
coedge $-1 -1 $-1 $312 $312 $220 $313 forward $413 $-1 #
edge $414 -1 $-1 $415 0 $415 6.2831853071795862 $312 $416 forward @7 unknown #
loop $417 -1 $-1 $418 $221 $305 #
attrib_edge_convexity-kcp-attrib $-1 -1 $419 $-1 $222 1 #
vertex $420 -1 $-1 $222 $421 #
ellipse-curve $422 -1 $-1 -0.625 0.34399999999999997 0.38200000000000001 0 0 1 -0.10150000000000001 0 0 1 I I #
coedge $-1 -1 $-1 $342 $341 $223 $319 forward $213 $-1 #
edge $423 -1 $-1 $324 -4.0099999999999998 $321 0 $318 $424 forward @7 unknown #
attrib_edge_convexity-kcp-attrib $-1 -1 $425 $-1 $225 1 #
vertex $-1 -1 $-1 $350 $426 #
straight-curve $427 -1 $-1 0.10000000000000001 0.72499999999999998 0.38200000000000001 1 0 0 I I #
edge_name-twe-attrib $-1 -1 $-1 $-1 $227 11 8704 #
vertex $-1 -1 $-1 $345 $428 #
straight-curve $429 -1 $-1 -3.605 -3.2850000000000001 0.38200000000000001 -1 0 0 I I #
convexity-sys-attrib $-1 -1 $430 $228 $154 #
point $-1 -1 $-1 0.10000000000000001 0.72499999999999998 0.38200000000000001 #
point $-1 -1 $-1 0.10000000000000001 -3.2850000000000001 0.38200000000000001 #
cur-twe-attrib $-1 -1 $-1 $-1 $231 44 #
coedge $-1 -1 $-1 $330 $330 $233 $331 forward $431 $-1 #
edge $432 -1 $-1 $433 0 $433 6.2831853071795862 $330 $434 forward @7 unknown #
loop $435 -1 $-1 $-1 $234 $436 #
attrib_edge_convexity-kcp-attrib $-1 -1 $437 $-1 $235 1 #
vertex $-1 -1 $-1 $235 $438 #
ellipse-curve $439 -1 $-1 -3.2240000000000002 -1.28 0 0 0 -1 0.21875 0 0 1 I I #
loop_type-twe-attrib $-1 -1 $-1 $-1 $236 1 #
face $440 -1 $-1 $441 $442 $12 $-1 $443 reversed single #
convexity-sys-attrib $-1 -1 $444 $237 $159 #
point $-1 -1 $-1 -0.40625 0.34399999999999997 0 #
cur-twe-attrib $-1 -1 $-1 $-1 $239 49 #
coedge $-1 -1 $-1 $318 $240 $243 $345 reversed $213 $-1 #
coedge $-1 -1 $-1 $240 $318 $248 $350 forward $213 $-1 #
attrib_edge_convexity-kcp-attrib $-1 -1 $445 $-1 $241 1 #
straight-curve $446 -1 $-1 -3.605 0.72499999999999998 0 0 1 0 I I #
edge $447 -1 $-1 $324 -0.38200000000000001 $246 0 $243 $448 forward @7 unknown #
loop_type-twe-attrib $-1 -1 $-1 $-1 $244 0 #
convexity-sys-attrib $-1 -1 $449 $245 $162 #
point $-1 -1 $-1 -3.605 -3.2850000000000001 0 #
cur-twe-attrib $-1 -1 $-1 $-1 $247 52 #
edge $450 -1 $-1 $321 -0.38200000000000001 $251 0 $342 $451 forward @7 unknown #
convexity-sys-attrib $-1 -1 $452 $250 $164 #
point $-1 -1 $-1 -3.605 0.72499999999999998 0 #
cur-twe-attrib $-1 -1 $-1 $-1 $252 54 #
attrib_edge_convexity-kcp-attrib $-1 -1 $453 $-1 $253 1 #
straight-curve $454 -1 $-1 0.10000000000000001 0.72499999999999998 0 0 0 -1 I I #
attrib_edge_convexity-kcp-attrib $-1 -1 $455 $-1 $254 1 #
straight-curve $456 -1 $-1 0.10000000000000001 -3.2850000000000001 0 0 0 -1 I I #
edge_name-twe-attrib $-1 -1 $-1 $255 $105 1 8704 #
vertex $-1 -1 $-1 $260 $457 #
ellipse-curve $-1 -1 $-1 0 0 0.066000000000000003 0 0 1 0.10150000000000001 0 0 1 I I #
point $-1 -1 $-1 0.10150000000000001 0 -0.066000000000000003 #
vertex $-1 -1 $-1 $264 $458 #
ellipse-curve $-1 -1 $-1 0 0 0.066000000000000003 0 0 1 0.10150000000000001 0 0 1 I I #
point $-1 -1 $-1 0.10150000000000001 0 -0.066000000000000003 #
vertex $-1 -1 $-1 $268 $459 #
ellipse-curve $-1 -1 $-1 0 0 0.066000000000000003 0 0 1 0.10150000000000001 0 0 1 I I #
point $-1 -1 $-1 0.10150000000000001 0 -0.066000000000000003 #
vertex $-1 -1 $-1 $272 $460 #
ellipse-curve $-1 -1 $-1 0 0 0.125 0 0 1 0.21875 0 0 1 I I #
point $-1 -1 $-1 0.21875 0 -0.125 #
vertex $-1 -1 $-1 $276 $461 #
ellipse-curve $-1 -1 $-1 0 0 0.125 0 0 1 0.21875 0 0 1 I I #
point $-1 -1 $-1 0.21875 0 -0.125 #
vertex $-1 -1 $-1 $280 $462 #
ellipse-curve $-1 -1 $-1 0 0 0.125 0 0 1 0.21875 0 0 1 I I #
point $-1 -1 $-1 0.21875 0 -0.125 #
model_id-kcp-attrib $-1 -1 $-1 $-1 $284 1 1021393153 1021393153 1621491714 5 #
face $463 -1 $-1 $-1 $299 $47 $-1 $464 reversed single #
loop $-1 -1 $-1 $-1 $394 $284 #
plane-surface $-1 -1 $-1 0 2.0049999999999999 0 0 -1 0 0 0 -1 forward_v I I I I #
coedge $-1 -1 $-1 $465 $392 $395 $466 forward $285 $-1 #
coedge $-1 -1 $-1 $398 $287 $288 $386 reversed $203 $-1 #
coedge $-1 -1 $-1 $392 $465 $287 $384 reversed $285 $-1 #
edge $-1 -1 $-1 $399 -0.191 $467 0.191 $383 $468 forward @7 unknown #
coedge $-1 -1 $-1 $289 $288 $465 $469 forward $138 $-1 #
edge $-1 -1 $-1 $390 -1.8525 $467 1.8525 $382 $470 forward @7 unknown #
coedge $-1 -1 $-1 $395 $394 $289 $388 reversed $379 $-1 #
edge $-1 -1 $-1 $471 -1.8525 $389 1.8525 $387 $472 forward @7 unknown #
vertex $-1 -1 $-1 $291 $473 #
vertex $-1 -1 $-1 $401 $474 #
straight-curve $-1 -1 $-1 1.8525 0 -0.191 0 -1 0 I I #
coedge $-1 -1 $-1 $381 $383 $292 $393 reversed $285 $-1 #
edge $-1 -1 $-1 $396 -2.0049999999999999 $399 2.0049999999999999 $392 $475 forward @7 unknown #
coedge $-1 -1 $-1 $387 $293 $298 $402 forward $379 $-1 #
coedge $-1 -1 $-1 $293 $387 $381 $466 reversed $379 $-1 #
vertex $-1 -1 $-1 $294 $476 #
straight-curve $-1 -1 $-1 0 2.0049999999999999 0.191 -1 0 0 I I #
coedge $-1 -1 $-1 $295 $382 $297 $401 reversed $203 $-1 #
vertex $-1 -1 $-1 $393 $477 #
straight-curve $-1 -1 $-1 0 -2.0049999999999999 0.191 1 0 0 I I #
edge $-1 -1 $-1 $300 -0.191 $390 0.191 $297 $478 forward @7 unknown #
edge $-1 -1 $-1 $301 -0.191 $389 0.191 $298 $479 forward @7 unknown #
point $-1 -1 $-1 1.8525 -2.0049999999999999 0.191 #
point $-1 -1 $-1 1.8525 2.0049999999999999 0.191 #
face_name-twe-attrib $-1 -1 $-1 $304 $212 6 #
model_id-kcp-attrib $-1 -1 $480 $-1 $305 1 1021393153 1021393153 1621491713 8 #
face $481 -1 $-1 $482 $413 $12 $-1 $483 reversed single #
cone-surface $484 -1 $-1 -0.625 0.34399999999999997 0.38200000000000001 0 0 -1 -0.10150000000000001 0 0 1 I I 0 1 0.10150000000000001 forward I I I I #
surf-twe-attrib $-1 -1 $-1 $-1 $306 62 #
loop_type-twe-attrib $-1 -1 $-1 $310 $219 1 #
coedge $-1 -1 $-1 $411 $411 $311 $412 forward $485 $-1 #
edge $486 -1 $-1 $487 0 $487 6.2831853071795862 $411 $488 forward @7 unknown #
loop $489 -1 $-1 $490 $312 $407 #
attrib_edge_convexity-kcp-attrib $-1 -1 $491 $-1 $313 1 #
vertex $492 -1 $-1 $313 $493 #
ellipse-curve $494 -1 $-1 -0.625 -2.9039999999999999 0.38200000000000001 0 0 1 -0.10150000000000001 0 0 1 I I #
model_id-kcp-attrib $-1 -1 $495 $-1 $314 1 1021393153 1021393153 1621491713 19 #
loop $496 -1 $-1 $-1 $497 $305 #
convexity-sys-attrib $-1 -1 $498 $315 $222 #
model_id-kcp-attrib $-1 -1 $-1 $-1 $316 1 1021393153 1021393153 1621491713 23 #
point $-1 -1 $-1 -0.72650000000000003 0.34399999999999997 0.38200000000000001 #
cur-twe-attrib $-1 -1 $-1 $-1 $317 71 #
edge_name-twe-attrib $-1 -1 $-1 $-1 $319 7 8704 #
straight-curve $499 -1 $-1 -3.605 0.72499999999999998 0.38200000000000001 0 1 0 I I #
convexity-sys-attrib $-1 -1 $500 $320 $225 #
point $-1 -1 $-1 -3.605 0.72499999999999998 0.38200000000000001 #
cur-twe-attrib $-1 -1 $-1 $-1 $322 74 #
point $-1 -1 $-1 -3.605 -3.2850000000000001 0.38200000000000001 #
cur-twe-attrib $-1 -1 $-1 $-1 $325 76 #
edge_name-twe-attrib $-1 -1 $-1 $326 $154 2 8704 #
loop $501 -1 $-1 $-1 $330 $502 #
attrib_edge_convexity-kcp-attrib $-1 -1 $503 $-1 $331 1 #
vertex $-1 -1 $-1 $331 $504 #
ellipse-curve $505 -1 $-1 -0.625 -2.9039999999999999 0 0 0 -1 0.21875 0 0 1 I I #
loop_type-twe-attrib $-1 -1 $-1 $-1 $332 1 #
face $506 -1 $-1 $507 $508 $12 $-1 $509 reversed single #
convexity-sys-attrib $-1 -1 $510 $333 $235 #
point $-1 -1 $-1 -3.0052500000000002 -1.28 0 #
cur-twe-attrib $-1 -1 $-1 $-1 $335 84 #
model_id-kcp-attrib $-1 -1 $511 $-1 $337 1 1021393153 1021393153 1621491713 12 #
face $512 -1 $-1 $436 $513 $12 $-1 $514 reversed single #
loop $515 -1 $-1 $236 $516 $337 #
cone-surface $517 -1 $-1 -0.625 0.34399999999999997 0 0 0 1 0.21875 0 0 1 I I 0 1 0.21875 forward I I I I #
edge_name-twe-attrib $-1 -1 $-1 $338 $159 18 8704 #
convexity-sys-attrib $-1 -1 $518 $343 $241 #
cur-twe-attrib $-1 -1 $-1 $-1 $344 90 #
edge_name-twe-attrib $-1 -1 $-1 $-1 $345 12 8704 #
straight-curve $519 -1 $-1 -3.605 -3.2850000000000001 0 0 0 -1 I I #
edge_name-twe-attrib $-1 -1 $-1 $347 $162 9 8704 #
attrib_edge_convexity-kcp-attrib $-1 -1 $520 $-1 $350 1 #
straight-curve $521 -1 $-1 -3.605 0.72499999999999998 0 0 0 -1 I I #
edge_name-twe-attrib $-1 -1 $-1 $351 $164 3 8704 #
convexity-sys-attrib $-1 -1 $522 $354 $253 #
cur-twe-attrib $-1 -1 $-1 $-1 $355 102 #
convexity-sys-attrib $-1 -1 $523 $356 $254 #
cur-twe-attrib $-1 -1 $-1 $-1 $357 103 #
point $-1 -1 $-1 0.10150000000000001 0 0.066000000000000003 #
point $-1 -1 $-1 0.10150000000000001 0 0.066000000000000003 #
point $-1 -1 $-1 0.10150000000000001 0 0.066000000000000003 #
point $-1 -1 $-1 0.21875 0 0.125 #
point $-1 -1 $-1 0.21875 0 0.125 #
point $-1 -1 $-1 0.21875 0 0.125 #
model_id-kcp-attrib $-1 -1 $-1 $-1 $378 1 1021393153 1021393153 1621491714 4 #
plane-surface $-1 -1 $-1 1.8525 0 0 -1 0 0 0 0 1 forward_v I I I I #
coedge $-1 -1 $-1 $383 $381 $385 $469 reversed $285 $-1 #
edge $-1 -1 $-1 $396 -0.191 $471 0.191 $395 $524 forward @7 unknown #
vertex $-1 -1 $-1 $469 $525 #
straight-curve $-1 -1 $-1 -1.8525 -2.0049999999999999 0 0 0 -1 I I #
edge $-1 -1 $-1 $467 -2.0049999999999999 $471 2.0049999999999999 $465 $526 forward @7 unknown #
straight-curve $-1 -1 $-1 0 -2.0049999999999999 -0.191 -1 0 0 I I #
vertex $-1 -1 $-1 $388 $527 #
straight-curve $-1 -1 $-1 0 2.0049999999999999 -0.191 1 0 0 I I #
point $-1 -1 $-1 1.8525 2.0049999999999999 -0.191 #
point $-1 -1 $-1 1.8525 -2.0049999999999999 -0.191 #
straight-curve $-1 -1 $-1 -1.8525 0 0.191 0 -1 0 I I #
point $-1 -1 $-1 -1.8525 2.0049999999999999 0.191 #
point $-1 -1 $-1 -1.8525 -2.0049999999999999 0.191 #
straight-curve $-1 -1 $-1 1.8525 -2.0049999999999999 0 0 0 -1 I I #
straight-curve $-1 -1 $-1 1.8525 2.0049999999999999 0 0 0 -1 I I #
face_name-twe-attrib $-1 -1 $-1 $406 $305 7 #
model_id-kcp-attrib $-1 -1 $528 $-1 $407 1 1021393153 1021393153 1621491713 9 #
face $529 -1 $-1 $530 $485 $12 $-1 $531 reversed single #
cone-surface $532 -1 $-1 -0.625 -2.9039999999999999 0.38200000000000001 0 0 -1 -0.10150000000000001 0 0 1 I I 0 1 0.10150000000000001 forward I I I I #
surf-twe-attrib $-1 -1 $-1 $-1 $408 108 #
loop $533 -1 $-1 $534 $411 $482 #
attrib_edge_convexity-kcp-attrib $-1 -1 $535 $-1 $412 1 #
vertex $536 -1 $-1 $412 $537 #
ellipse-curve $538 -1 $-1 -3.2240000000000002 -1.28 0.38200000000000001 0 0 1 -0.10150000000000001 0 0 1 I I #
model_id-kcp-attrib $-1 -1 $539 $-1 $413 1 1021393153 1021393153 1621491713 26 #
loop $540 -1 $-1 $-1 $541 $407 #
convexity-sys-attrib $-1 -1 $542 $414 $313 #
model_id-kcp-attrib $-1 -1 $-1 $-1 $415 1 1021393153 1021393153 1621491713 30 #
point $-1 -1 $-1 -0.72650000000000003 -2.9039999999999999 0.38200000000000001 #
cur-twe-attrib $-1 -1 $-1 $-1 $416 115 #
loop_type-twe-attrib $-1 -1 $-1 $417 $314 0 #
model_id-kcp-attrib $-1 -1 $543 $-1 $418 1 1021393153 1021393153 1621491713 20 #
coedge $-1 -1 $-1 $497 $497 $544 $545 reversed $418 $-1 #
edge_name-twe-attrib $-1 -1 $-1 $419 $222 13 8704 #
cur-twe-attrib $-1 -1 $-1 $-1 $424 121 #
edge_name-twe-attrib $-1 -1 $-1 $425 $225 4 8704 #
loop_type-twe-attrib $-1 -1 $-1 $-1 $431 1 #
face $546 -1 $-1 $-1 $547 $12 $-1 $548 reversed single #
convexity-sys-attrib $-1 -1 $549 $432 $331 #
point $-1 -1 $-1 -0.40625 -2.9039999999999999 0 #
cur-twe-attrib $-1 -1 $-1 $-1 $434 132 #
model_id-kcp-attrib $-1 -1 $550 $-1 $436 1 1021393153 1021393153 1621491713 14 #
face $551 -1 $-1 $502 $552 $12 $-1 $553 reversed single #
loop $554 -1 $-1 $332 $555 $436 #
cone-surface $556 -1 $-1 -3.2240000000000002 -1.28 0 0 0 1 0.21875 0 0 1 I I 0 1 0.21875 forward I I I I #
edge_name-twe-attrib $-1 -1 $-1 $437 $235 21 8704 #
face_name-twe-attrib $-1 -1 $-1 $440 $337 11 #
model_id-kcp-attrib $-1 -1 $557 $-1 $441 1 1021393153 1021393153 1621491713 13 #
loop $558 -1 $-1 $559 $560 $441 #
plane-surface $561 -1 $-1 -3.2240000000000002 -1.28 0.25 0 0 1 1 0 0 forward_v I I I I #
loop_type-twe-attrib $-1 -1 $-1 $-1 $442 0 #
coedge $-1 -1 $-1 $516 $516 $562 $563 reversed $442 $-1 #
surf-twe-attrib $-1 -1 $-1 $-1 $443 138 #
edge_name-twe-attrib $-1 -1 $-1 $445 $241 6 8704 #
cur-twe-attrib $-1 -1 $-1 $-1 $448 145 #
convexity-sys-attrib $-1 -1 $564 $450 $350 #
cur-twe-attrib $-1 -1 $-1 $-1 $451 149 #
edge_name-twe-attrib $-1 -1 $-1 $453 $253 5 8704 #
edge_name-twe-attrib $-1 -1 $-1 $455 $254 10 8704 #
straight-curve $-1 -1 $-1 -1.8525 2.0049999999999999 0 0 0 -1 I I #
point $-1 -1 $-1 -1.8525 -2.0049999999999999 -0.191 #
straight-curve $-1 -1 $-1 -1.8525 0 -0.191 0 1 0 I I #
point $-1 -1 $-1 -1.8525 2.0049999999999999 -0.191 #
face_name-twe-attrib $-1 -1 $-1 $481 $407 8 #
model_id-kcp-attrib $-1 -1 $565 $-1 $482 1 1021393153 1021393153 1621491713 10 #
face $566 -1 $-1 $337 $567 $12 $-1 $568 reversed single #
cone-surface $569 -1 $-1 -3.2240000000000002 -1.28 0.38200000000000001 0 0 -1 -0.10150000000000001 0 0 1 I I 0 1 0.10150000000000001 forward I I I I #
surf-twe-attrib $-1 -1 $-1 $-1 $483 157 #
model_id-kcp-attrib $-1 -1 $570 $-1 $485 1 1021393153 1021393153 1621491713 33 #
loop $571 -1 $-1 $-1 $572 $482 #
convexity-sys-attrib $-1 -1 $573 $486 $412 #
model_id-kcp-attrib $-1 -1 $-1 $-1 $487 1 1021393153 1021393153 1621491713 37 #
point $-1 -1 $-1 -3.3254999999999999 -1.28 0.38200000000000001 #
cur-twe-attrib $-1 -1 $-1 $-1 $488 161 #
loop_type-twe-attrib $-1 -1 $-1 $489 $413 0 #
model_id-kcp-attrib $-1 -1 $574 $-1 $490 1 1021393153 1021393153 1621491713 27 #
coedge $-1 -1 $-1 $541 $541 $575 $576 reversed $490 $-1 #
edge_name-twe-attrib $-1 -1 $-1 $491 $313 14 8704 #
loop_type-twe-attrib $-1 -1 $-1 $496 $418 1 #
coedge $-1 -1 $-1 $544 $544 $497 $545 forward $577 $-1 #
edge $578 -1 $-1 $579 -3.1415926535897931 $579 3.1415926535897931 $544 $580 forward @7 unknown #
model_id-kcp-attrib $-1 -1 $581 $-1 $502 1 1021393153 1021393153 1621491713 16 #
loop $582 -1 $-1 $431 $583 $502 #
cone-surface $584 -1 $-1 -0.625 -2.9039999999999999 0 0 0 1 0.21875 0 0 1 I I 0 1 0.21875 forward I I I I #
edge_name-twe-attrib $-1 -1 $-1 $503 $331 24 8704 #
face_name-twe-attrib $-1 -1 $-1 $506 $436 13 #
model_id-kcp-attrib $-1 -1 $585 $-1 $507 1 1021393153 1021393153 1621491713 15 #
loop $586 -1 $-1 $587 $588 $507 #
plane-surface $589 -1 $-1 -0.625 -2.9039999999999999 0.25 0 0 1 1 0 0 forward_v I I I I #
loop_type-twe-attrib $-1 -1 $-1 $-1 $508 0 #
coedge $-1 -1 $-1 $555 $555 $560 $590 reversed $508 $-1 #
surf-twe-attrib $-1 -1 $-1 $-1 $509 181 #
face_name-twe-attrib $-1 -1 $-1 $512 $441 12 #
loop_type-twe-attrib $-1 -1 $-1 $-1 $513 0 #
loop $591 -1 $-1 $-1 $592 $441 #
coedge $-1 -1 $-1 $560 $560 $555 $590 forward $513 $-1 #
surf-twe-attrib $-1 -1 $593 $-1 $514 215 #
coedge $-1 -1 $-1 $562 $562 $516 $563 forward $567 $-1 #
edge $594 -1 $-1 $595 -3.1415926535897931 $595 3.1415926535897931 $516 $596 forward @7 unknown #
edge_name-twe-attrib $-1 -1 $-1 $520 $350 8 8704 #
face_name-twe-attrib $-1 -1 $-1 $529 $482 9 #
model_id-kcp-attrib $-1 -1 $597 $-1 $530 1 1021393153 1021393153 1621491713 11 #
loop $598 -1 $-1 $577 $562 $530 #
plane-surface $599 -1 $-1 -0.625 0.34399999999999997 0.25 0 0 1 1 0 0 forward_v I I I I #
surf-twe-attrib $-1 -1 $-1 $-1 $531 196 #
loop_type-twe-attrib $-1 -1 $-1 $533 $485 0 #
model_id-kcp-attrib $-1 -1 $600 $-1 $534 1 1021393153 1021393153 1621491713 34 #
coedge $-1 -1 $-1 $572 $572 $592 $601 reversed $534 $-1 #
edge_name-twe-attrib $-1 -1 $-1 $535 $412 15 8704 #
loop_type-twe-attrib $-1 -1 $-1 $540 $490 1 #
coedge $-1 -1 $-1 $575 $575 $541 $576 forward $587 $-1 #
edge $602 -1 $-1 $603 -3.1415926535897931 $603 3.1415926535897931 $575 $604 forward @7 unknown #
loop $605 -1 $-1 $-1 $544 $530 #
attrib_edge_convexity-kcp-attrib $-1 -1 $606 $-1 $545 1 #
vertex $607 -1 $-1 $545 $608 #
ellipse-curve $609 -1 $-1 -0.625 0.34399999999999997 0.25 0 0 1 0.10150000000000001 0 0 1 I I #
face_name-twe-attrib $-1 -1 $-1 $546 $502 15 #
loop_type-twe-attrib $-1 -1 $-1 $-1 $547 0 #
coedge $-1 -1 $-1 $583 $583 $588 $610 reversed $547 $-1 #
surf-twe-attrib $-1 -1 $-1 $-1 $548 211 #
face_name-twe-attrib $-1 -1 $-1 $551 $507 14 #
loop_type-twe-attrib $-1 -1 $-1 $-1 $552 0 #
loop $611 -1 $-1 $-1 $575 $507 #
coedge $-1 -1 $-1 $588 $588 $583 $610 forward $552 $-1 #
surf-twe-attrib $-1 -1 $612 $-1 $553 215 #
edge $613 -1 $-1 $614 -3.1415926535897931 $614 3.1415926535897931 $555 $615 forward @7 unknown #
model_id-kcp-attrib $-1 -1 $616 $-1 $559 1 1021393153 1021393153 1621491713 36 #
coedge $-1 -1 $-1 $592 $592 $572 $601 forward $559 $-1 #
surf-twe-attrib $-1 -1 $617 $561 $514 185 #
attrib_edge_convexity-kcp-attrib $-1 -1 $618 $-1 $563 2 #
vertex $-1 -1 $-1 $563 $619 #
ellipse-curve $620 -1 $-1 -0.625 0.34399999999999997 0.25 0 0 -1 -0.21875 0 0 1 I I #
face_name-twe-attrib $-1 -1 $-1 $566 $530 10 #
loop_type-twe-attrib $-1 -1 $-1 $-1 $567 0 #
surf-twe-attrib $-1 -1 $621 $-1 $568 215 #
loop_type-twe-attrib $-1 -1 $-1 $571 $534 1 #
edge $622 -1 $-1 $623 -3.1415926535897931 $623 3.1415926535897931 $592 $624 forward @7 unknown #
attrib_edge_convexity-kcp-attrib $-1 -1 $625 $-1 $576 1 #
vertex $626 -1 $-1 $576 $627 #
ellipse-curve $628 -1 $-1 -0.625 -2.9039999999999999 0.25 0 0 1 0.10150000000000001 0 0 1 I I #
model_id-kcp-attrib $-1 -1 $629 $-1 $577 1 1021393153 1021393153 1621491713 22 #
convexity-sys-attrib $-1 -1 $630 $578 $545 #
model_id-kcp-attrib $-1 -1 $-1 $-1 $579 1 1021393153 1021393153 1621491713 24 #
point $-1 -1 $-1 -0.72650000000000003 0.34399999999999997 0.25 #
cur-twe-attrib $-1 -1 $-1 $-1 $580 237 #
edge $631 -1 $-1 $632 -3.1415926535897931 $632 3.1415926535897931 $583 $633 forward @7 unknown #
model_id-kcp-attrib $-1 -1 $634 $-1 $587 1 1021393153 1021393153 1621491713 29 #
surf-twe-attrib $-1 -1 $635 $589 $553 185 #
attrib_edge_convexity-kcp-attrib $-1 -1 $636 $-1 $590 2 #
vertex $-1 -1 $-1 $590 $637 #
ellipse-curve $638 -1 $-1 -3.2240000000000002 -1.28 0.25 0 0 -1 -0.21875 0 0 1 I I #
loop_type-twe-attrib $-1 -1 $-1 $591 $559 1 #
surf-twe-attrib $-1 -1 $-1 $593 $514 227 #
convexity-sys-attrib $-1 -1 $639 $594 $563 #
point $-1 -1 $-1 -0.40625 0.34399999999999997 0.25 #
cur-twe-attrib $-1 -1 $-1 $-1 $596 252 #
surf-twe-attrib $-1 -1 $640 $599 $568 185 #
attrib_edge_convexity-kcp-attrib $-1 -1 $641 $-1 $601 1 #
vertex $642 -1 $-1 $601 $643 #
ellipse-curve $644 -1 $-1 -3.2240000000000002 -1.28 0.25 0 0 1 0.10150000000000001 0 0 1 I I #
convexity-sys-attrib $-1 -1 $645 $602 $576 #
model_id-kcp-attrib $-1 -1 $-1 $-1 $603 1 1021393153 1021393153 1621491713 31 #
point $-1 -1 $-1 -0.72650000000000003 -2.9039999999999999 0.25 #
cur-twe-attrib $-1 -1 $-1 $-1 $604 260 #
loop_type-twe-attrib $-1 -1 $-1 $605 $577 1 #
edge_name-twe-attrib $-1 -1 $-1 $606 $545 16 8704 #
attrib_edge_convexity-kcp-attrib $-1 -1 $646 $-1 $610 2 #
vertex $-1 -1 $-1 $610 $647 #
ellipse-curve $648 -1 $-1 -0.625 -2.9039999999999999 0.25 0 0 -1 -0.21875 0 0 1 I I #
loop_type-twe-attrib $-1 -1 $-1 $611 $587 1 #
surf-twe-attrib $-1 -1 $-1 $612 $553 227 #
convexity-sys-attrib $-1 -1 $649 $613 $590 #
point $-1 -1 $-1 -3.0052500000000002 -1.28 0.25 #
cur-twe-attrib $-1 -1 $-1 $-1 $615 272 #
edge_name-twe-attrib $-1 -1 $-1 $618 $563 17 4608 #
surf-twe-attrib $-1 -1 $-1 $621 $568 227 #
convexity-sys-attrib $-1 -1 $650 $622 $601 #
model_id-kcp-attrib $-1 -1 $-1 $-1 $623 1 1021393153 1021393153 1621491713 38 #
point $-1 -1 $-1 -3.3254999999999999 -1.28 0.25 #
cur-twe-attrib $-1 -1 $-1 $-1 $624 281 #
edge_name-twe-attrib $-1 -1 $-1 $625 $576 22 8704 #
convexity-sys-attrib $-1 -1 $651 $631 $610 #
point $-1 -1 $-1 -0.40625 -2.9039999999999999 0.25 #
cur-twe-attrib $-1 -1 $-1 $-1 $633 288 #
edge_name-twe-attrib $-1 -1 $-1 $636 $590 20 4608 #
edge_name-twe-attrib $-1 -1 $-1 $641 $601 19 8704 #
edge_name-twe-attrib $-1 -1 $-1 $646 $610 23 4608 #
End-of-ACIS-data 