600 0 2 0           
24 FBMach with ACIS - 6.0.3 13 ACIS 6.0.3 NT 24 Thu May 24 09:51:36 2001 
1 9.9999999999999995e-007 1e-010 
body $2 $3 $-1 $4 #
bdycol-kcp $-1 1 7 $5 $6 $7 $8 $9 $10 $11 #
model_id-kcp-attrib $-1 $-1 $-1 $0 1 990712296 60 -851705855 1 #
lump $-1 $-1 $12 $0 #
transform $-1 1 0 0 0 1 0 0 0 1 0 0 0 1 no_rotate no_reflect no_shear #
body $13 $14 $-1 $15 #
body $16 $17 $-1 $18 #
body $19 $20 $-1 $21 #
body $22 $23 $-1 $24 #
body $25 $26 $-1 $27 #
body $28 $29 $-1 $30 #
body $31 $32 $-1 $33 #
shell $-1 $-1 $-1 $34 $-1 $3 #
model_id-kcp-attrib $-1 $-1 $-1 $5 1 990712296 60 -851705854 1 #
lump $-1 $-1 $35 $5 #
transform $-1 1 0 0 0 1 0 0 0 1 -1.7524999999999999 -1.28 0.191 1 no_rotate no_reflect no_shear #
rgb_color-st-attrib $-1 $36 $-1 $6 0.5 1 1 #
lump $-1 $-1 $37 $6 #
transform $-1 -1 0 -1.2246063538223773e-016 0 1 0 1.2246063538223773e-016 0 -1 -0.625 0.34399999999999997 0.316 1 rotate no_reflect no_shear #
rgb_color-st-attrib $-1 $38 $-1 $7 0.5 1 1 #
lump $-1 $-1 $39 $7 #
transform $-1 -1 0 -1.2246063538223773e-016 0 1 0 1.2246063538223773e-016 0 -1 -0.625 -2.9039999999999999 0.316 1 rotate no_reflect no_shear #
rgb_color-st-attrib $-1 $40 $-1 $8 0.5 1 1 #
lump $-1 $-1 $41 $8 #
transform $-1 -1 0 -1.2246063538223773e-016 0 1 0 1.2246063538223773e-016 0 -1 -3.2240000000000002 -1.28 0.316 1 rotate no_reflect no_shear #
rgb_color-st-attrib $-1 $42 $-1 $9 0.5 1 1 #
lump $-1 $-1 $43 $9 #
transform $-1 1 0 0 0 1 0 0 0 1 -0.625 0.34399999999999997 0.125 1 no_rotate no_reflect no_shear #
rgb_color-st-attrib $-1 $44 $-1 $10 0.5 1 1 #
lump $-1 $-1 $45 $10 #
transform $-1 1 0 0 0 1 0 0 0 1 -3.2240000000000002 -1.28 0.125 1 no_rotate no_reflect no_shear #
rgb_color-st-attrib $-1 $46 $-1 $11 0.5 1 1 #
lump $-1 $-1 $47 $11 #
transform $-1 1 0 0 0 1 0 0 0 1 -0.625 -2.9039999999999999 0.125 1 no_rotate no_reflect no_shear #
face $48 $49 $50 $12 $-1 $51 reversed single #
shell $-1 $-1 $-1 $52 $-1 $14 #
model_id-kcp-attrib $-1 $-1 $16 $6 1 990712296 180 -843841533 1 #
shell $-1 $-1 $-1 $53 $-1 $17 #
model_id-kcp-attrib $-1 $-1 $19 $7 1 990712296 180 -843841532 1 #
shell $-1 $-1 $-1 $54 $-1 $20 #
model_id-kcp-attrib $-1 $-1 $22 $8 1 990712296 190 -843186171 1 #
shell $-1 $-1 $-1 $55 $-1 $23 #
model_id-kcp-attrib $-1 $-1 $25 $9 1 990712296 190 -843186170 1 #
shell $-1 $-1 $-1 $56 $-1 $26 #
model_id-kcp-attrib $-1 $-1 $28 $10 1 990712296 190 -843186169 1 #
shell $-1 $-1 $-1 $57 $-1 $29 #
model_id-kcp-attrib $-1 $-1 $31 $11 1 990712296 200 -842530808 1 #
shell $-1 $-1 $-1 $58 $-1 $32 #
model_id-kcp-attrib $-1 $59 $-1 $34 1 990712296 60 -851705855 17 #
face $60 $61 $62 $12 $-1 $63 forward single #
loop $64 $65 $66 $34 #
plane-surface $67 0 0 0 0 0 1 1 0 0 forward_v I I I I #
face $68 $69 $70 $35 $-1 $71 forward single #
face $-1 $72 $73 $37 $-1 $74 forward single #
face $-1 $75 $76 $39 $-1 $77 forward single #
face $-1 $78 $79 $41 $-1 $80 forward single #
face $-1 $81 $82 $43 $-1 $83 forward single #
face $-1 $84 $85 $45 $-1 $86 forward single #
face $-1 $87 $88 $47 $-1 $89 forward single #
model_id-kcp-attrib $-1 $90 $48 $34 1 990712296 60 -851705855 2 #
model_id-kcp-attrib $-1 $91 $-1 $49 1 990712296 60 -851705855 32 #
face $92 $93 $94 $12 $-1 $95 forward single #
loop $96 $97 $98 $49 #
plane-surface $99 0 0 0.38200000000000001 0 0 1 1 0 0 forward_v I I I I #
loop_type-twe-attrib $-1 $-1 $-1 $50 0 #
loop $100 $101 $102 $34 #
coedge $-1 $103 $104 $105 $106 forward $50 $-1 #
surf-twe-attrib $-1 $-1 $-1 $51 4 #
model_id-kcp-attrib $-1 $-1 $-1 $52 1 990712296 60 -851705854 3 #
face $107 $108 $109 $35 $-1 $110 reversed single #
loop $-1 $-1 $111 $52 #
plane-surface $-1 0 0 0.191 0 0 1 1 0 0 forward_v I I I I #
face $-1 $112 $113 $37 $-1 $114 forward single #
loop $-1 $115 $116 $53 #
cone-surface $-1 0 0 0 0 0 1 0.10150000000000001 0 0 1 I I 0 1 0.10150000000000001 forward I I I I #
face $-1 $117 $118 $39 $-1 $119 forward single #
loop $-1 $120 $121 $54 #
cone-surface $-1 0 0 0 0 0 1 0.10150000000000001 0 0 1 I I 0 1 0.10150000000000001 forward I I I I #
face $-1 $122 $123 $41 $-1 $124 forward single #
loop $-1 $125 $126 $55 #
cone-surface $-1 0 0 0 0 0 1 0.10150000000000001 0 0 1 I I 0 1 0.10150000000000001 forward I I I I #
face $-1 $127 $128 $43 $-1 $129 forward single #
loop $-1 $130 $131 $56 #
cone-surface $-1 0 0 0 0 0 1 0.21875 0 0 1 I I 0 1 0.21875 forward I I I I #
face $-1 $132 $133 $45 $-1 $134 forward single #
loop $-1 $135 $136 $57 #
cone-surface $-1 0 0 0 0 0 1 0.21875 0 0 1 I I 0 1 0.21875 forward I I I I #
face $-1 $137 $138 $47 $-1 $139 forward single #
loop $-1 $140 $141 $58 #
cone-surface $-1 0 0 0 0 0 1 0.21875 0 0 1 I I 0 1 0.21875 forward I I I I #
face_name-twe-attrib $-1 $-1 $59 $34 1 #
model_id-kcp-attrib $-1 $142 $60 $49 1 990712296 60 -851705855 25 #
model_id-kcp-attrib $-1 $143 $-1 $61 1 990712296 60 -851705855 4 #
face $144 $145 $146 $12 $-1 $147 forward single #
loop $148 $-1 $105 $61 #
plane-surface $149 0.10000000000000001 -3.2850000000000001 0 1 0 0 0 0 -1 forward_v I I I I #
loop_type-twe-attrib $-1 $-1 $-1 $62 0 #
loop $150 $151 $152 $49 #
coedge $-1 $153 $154 $155 $156 reversed $62 $-1 #
surf-twe-attrib $-1 $-1 $-1 $63 6 #
loop_type-twe-attrib $-1 $-1 $-1 $65 1 #
loop $157 $158 $159 $34 #
coedge $-1 $102 $102 $160 $161 reversed $65 $-1 #
coedge $-1 $162 $66 $163 $164 forward $50 $-1 #
coedge $-1 $66 $162 $165 $166 forward $50 $-1 #
coedge $-1 $167 $168 $66 $106 reversed $94 $-1 #
edge $169 $170 -4.0099999999999998 $171 0 $105 $172 forward 7 unknown #
model_id-kcp-attrib $-1 $-1 $-1 $69 1 990712296 60 -851705854 2 #
face $173 $174 $175 $35 $-1 $176 reversed single #
loop $-1 $-1 $177 $69 #
plane-surface $-1 0 0 -0.191 0 0 1 1 0 0 forward_v I I I I #
coedge $-1 $178 $179 $180 $181 forward $70 $-1 #
face $-1 $-1 $182 $37 $-1 $183 forward single #
loop $-1 $-1 $184 $72 #
plane-surface $-1 0 0 -0.066000000000000003 0 0 -1 -1 0 0 forward_v I I I I #
loop $-1 $-1 $185 $53 #
coedge $-1 $116 $116 $184 $186 reversed $73 $-1 #
face $-1 $-1 $187 $39 $-1 $188 forward single #
loop $-1 $-1 $189 $75 #
plane-surface $-1 0 0 -0.066000000000000003 0 0 -1 -1 0 0 forward_v I I I I #
loop $-1 $-1 $190 $54 #
coedge $-1 $121 $121 $189 $191 reversed $76 $-1 #
face $-1 $-1 $192 $41 $-1 $193 forward single #
loop $-1 $-1 $194 $78 #
plane-surface $-1 0 0 -0.066000000000000003 0 0 -1 -1 0 0 forward_v I I I I #
loop $-1 $-1 $195 $55 #
coedge $-1 $126 $126 $194 $196 reversed $79 $-1 #
face $-1 $-1 $197 $43 $-1 $198 forward single #
loop $-1 $-1 $199 $81 #
plane-surface $-1 0 0 -0.125 0 0 -1 -1 0 0 forward_v I I I I #
loop $-1 $-1 $200 $56 #
coedge $-1 $131 $131 $199 $201 reversed $82 $-1 #
face $-1 $-1 $202 $45 $-1 $203 forward single #
loop $-1 $-1 $204 $84 #
plane-surface $-1 0 0 -0.125 0 0 -1 -1 0 0 forward_v I I I I #
loop $-1 $-1 $205 $57 #
coedge $-1 $136 $136 $204 $206 reversed $85 $-1 #
face $-1 $-1 $207 $47 $-1 $208 forward single #
loop $-1 $-1 $209 $87 #
plane-surface $-1 0 0 -0.125 0 0 -1 -1 0 0 forward_v I I I I #
loop $-1 $-1 $210 $58 #
coedge $-1 $141 $141 $209 $211 reversed $88 $-1 #
model_id-kcp-attrib $-1 $212 $91 $49 1 990712296 60 -851705855 18 #
face_name-twe-attrib $-1 $-1 $92 $61 3 #
model_id-kcp-attrib $-1 $213 $-1 $93 1 990712296 60 -851705855 5 #
face $214 $215 $216 $12 $-1 $217 forward single #
loop $218 $-1 $165 $93 #
plane-surface $219 0.10000000000000001 0.72499999999999998 0 0 1 0 0 0 1 forward_v I I I I #
loop_type-twe-attrib $-1 $-1 $-1 $94 0 #
surf-twe-attrib $-1 $-1 $-1 $95 10 #
model_id-kcp-attrib $-1 $220 $-1 $97 1 990712296 60 -851705855 21 #
loop $221 $222 $223 $49 #
coedge $-1 $152 $152 $224 $225 reversed $97 $-1 #
coedge $-1 $226 $98 $227 $228 reversed $62 $-1 #
coedge $-1 $98 $226 $229 $230 reversed $62 $-1 #
coedge $-1 $168 $167 $98 $156 forward $94 $-1 #
edge $231 $232 -4.0099999999999998 $233 0 $155 $234 forward 7 unknown #
loop_type-twe-attrib $-1 $-1 $-1 $101 1 #
loop $235 $-1 $236 $34 #
coedge $-1 $159 $159 $237 $238 reversed $101 $-1 #
coedge $-1 $160 $160 $102 $161 forward $239 $-1 #
edge $240 $241 0 $241 6.2831853071795862 $160 $242 forward 7 unknown #
coedge $-1 $104 $103 $243 $244 forward $50 $-1 #
coedge $-1 $245 $246 $103 $164 reversed $247 $-1 #
edge $248 $171 -3.7050000000000001 $249 0 $163 $250 forward 7 unknown #
coedge $-1 $251 $252 $104 $166 reversed $146 $-1 #
edge $253 $254 -3.7050000000000001 $170 0 $165 $255 forward 7 unknown #
coedge $-1 $155 $105 $252 $256 reversed $94 $-1 #
coedge $-1 $105 $155 $245 $257 forward $94 $-1 #
attrib_edge_convexity-kcp-attrib $-1 $258 $-1 $106 1 #
vertex $-1 $256 $259 #
vertex $-1 $257 $260 #
straight-curve $261 0.10000000000000001 -3.2850000000000001 0 0 -1 0 I I #
model_id-kcp-attrib $-1 $-1 $-1 $108 1 990712296 60 -851705854 7 #
face $262 $263 $264 $35 $-1 $265 reversed single #
loop $-1 $-1 $266 $108 #
plane-surface $-1 0 -2.0049999999999999 0 0 1 0 0 0 1 forward_v I I I I #
coedge $-1 $267 $268 $269 $270 forward $109 $-1 #
coedge $-1 $271 $111 $272 $273 forward $70 $-1 #
coedge $-1 $111 $271 $274 $275 forward $70 $-1 #
coedge $-1 $276 $277 $111 $181 reversed $278 $-1 #
edge $-1 $279 -2.0049999999999999 $280 2.0049999999999999 $180 $281 forward 7 unknown #
loop $-1 $-1 $282 $112 #
plane-surface $-1 0 0 0.066000000000000003 0 0 1 1 0 0 forward_v I I I I #
coedge $-1 $184 $184 $116 $186 forward $113 $-1 #
coedge $-1 $185 $185 $282 $283 reversed $115 $-1 #
edge $-1 $284 0 $284 6.2831853071795862 $184 $285 forward 7 unknown #
loop $-1 $-1 $286 $117 #
plane-surface $-1 0 0 0.066000000000000003 0 0 1 1 0 0 forward_v I I I I #
coedge $-1 $189 $189 $121 $191 forward $118 $-1 #
coedge $-1 $190 $190 $286 $287 reversed $120 $-1 #
edge $-1 $288 0 $288 6.2831853071795862 $189 $289 forward 7 unknown #
loop $-1 $-1 $290 $122 #
plane-surface $-1 0 0 0.066000000000000003 0 0 1 1 0 0 forward_v I I I I #
coedge $-1 $194 $194 $126 $196 forward $123 $-1 #
coedge $-1 $195 $195 $290 $291 reversed $125 $-1 #
edge $-1 $292 0 $292 6.2831853071795862 $194 $293 forward 7 unknown #
loop $-1 $-1 $294 $127 #
plane-surface $-1 0 0 0.125 0 0 1 1 0 0 forward_v I I I I #
coedge $-1 $199 $199 $131 $201 forward $128 $-1 #
coedge $-1 $200 $200 $294 $295 reversed $130 $-1 #
edge $-1 $296 0 $296 6.2831853071795862 $199 $297 forward 7 unknown #
loop $-1 $-1 $298 $132 #
plane-surface $-1 0 0 0.125 0 0 1 1 0 0 forward_v I I I I #
coedge $-1 $204 $204 $136 $206 forward $133 $-1 #
coedge $-1 $205 $205 $298 $299 reversed $135 $-1 #
edge $-1 $300 0 $300 6.2831853071795862 $204 $301 forward 7 unknown #
loop $-1 $-1 $302 $137 #
plane-surface $-1 0 0 0.125 0 0 1 1 0 0 forward_v I I I I #
coedge $-1 $209 $209 $141 $211 forward $138 $-1 #
coedge $-1 $210 $210 $302 $303 reversed $140 $-1 #
edge $-1 $304 0 $304 6.2831853071795862 $209 $305 forward 7 unknown #
model_id-kcp-attrib $-1 $306 $142 $49 1 990712296 60 -851705855 3 #
face_name-twe-attrib $-1 $-1 $144 $93 4 #
model_id-kcp-attrib $-1 $307 $-1 $145 1 990712296 60 -851705855 6 #
face $308 $309 $247 $12 $-1 $310 forward single #
loop $311 $-1 $243 $145 #
plane-surface $312 -3.605 0.72499999999999998 0 -1 0 0 0 0 1 forward_v I I I I #
loop_type-twe-attrib $-1 $-1 $-1 $146 0 #
surf-twe-attrib $-1 $-1 $-1 $147 18 #
loop_type-twe-attrib $-1 $-1 $150 $97 1 #
model_id-kcp-attrib $-1 $313 $-1 $151 1 990712296 60 -851705855 28 #
loop $314 $-1 $315 $49 #
coedge $-1 $223 $223 $316 $317 reversed $151 $-1 #
coedge $-1 $224 $224 $152 $225 forward $318 $-1 #
edge $319 $320 0 $320 6.2831853071795862 $224 $321 forward 7 unknown #
coedge $-1 $154 $153 $322 $323 reversed $62 $-1 #
coedge $-1 $252 $251 $153 $228 forward $146 $-1 #
edge $324 $325 -3.7050000000000001 $232 0 $227 $326 forward 7 unknown #
coedge $-1 $246 $245 $154 $230 forward $247 $-1 #
edge $327 $233 -3.7050000000000001 $328 0 $229 $329 forward 7 unknown #
attrib_edge_convexity-kcp-attrib $-1 $330 $-1 $156 1 #
vertex $-1 $256 $331 #
vertex $-1 $257 $332 #
straight-curve $333 0.10000000000000001 -3.2850000000000001 0.38200000000000001 0 -1 0 I I #
loop_type-twe-attrib $-1 $-1 $-1 $158 1 #
coedge $-1 $236 $236 $334 $335 reversed $158 $-1 #
coedge $-1 $237 $237 $159 $238 forward $336 $-1 #
edge $337 $338 0 $338 6.2831853071795862 $237 $339 forward 7 unknown #
loop $340 $-1 $160 $341 #
attrib_edge_convexity-kcp-attrib $-1 $342 $-1 $161 1 #
vertex $-1 $161 $343 #
ellipse-curve $344 -0.625 0.34399999999999997 0 0 0 -1 0.21875 0 0 1 I I #
coedge $-1 $345 $346 $162 $244 reversed $216 $-1 #
edge $347 $249 -4.0099999999999998 $254 0 $243 $348 forward 7 unknown #
coedge $-1 $229 $163 $168 $257 reversed $247 $-1 #
coedge $-1 $163 $229 $345 $349 forward $247 $-1 #
loop $350 $-1 $163 $215 #
attrib_edge_convexity-kcp-attrib $-1 $351 $-1 $164 1 #
vertex $-1 $349 $352 #
straight-curve $353 -3.605 -3.2850000000000001 0 -1 0 0 I I #
coedge $-1 $227 $165 $346 $354 reversed $146 $-1 #
coedge $-1 $165 $227 $167 $256 forward $146 $-1 #
attrib_edge_convexity-kcp-attrib $-1 $355 $-1 $166 1 #
vertex $-1 $354 $356 #
straight-curve $357 0.10000000000000001 0.72499999999999998 0 1 0 0 I I #
edge $358 $232 -0.38200000000000001 $170 0 $252 $359 forward 7 unknown #
edge $360 $233 -0.38200000000000001 $171 0 $245 $361 forward 7 unknown #
convexity-sys-attrib $-1 $362 $169 $106 #
point $-1 0.10000000000000001 0.72499999999999998 0 #
point $-1 0.10000000000000001 -3.2850000000000001 0 #
cur-twe-attrib $-1 $-1 $-1 $172 31 #
model_id-kcp-attrib $-1 $-1 $-1 $174 1 990712296 60 -851705854 6 #
face $363 $364 $365 $35 $-1 $366 reversed single #
loop $-1 $-1 $367 $174 #
plane-surface $-1 -1.8525 0 0 1 0 0 0 0 -1 forward_v I I I I #
coedge $-1 $368 $274 $369 $370 forward $175 $-1 #
coedge $-1 $371 $177 $368 $372 forward $109 $-1 #
coedge $-1 $177 $371 $373 $374 forward $109 $-1 #
coedge $-1 $277 $276 $177 $270 reversed $278 $-1 #
edge $-1 $375 -2.0049999999999999 $376 2.0049999999999999 $269 $377 forward 7 unknown #
coedge $-1 $179 $178 $378 $379 forward $70 $-1 #
coedge $-1 $380 $381 $178 $273 reversed $365 $-1 #
edge $-1 $280 -1.8525 $382 1.8525 $272 $383 forward 7 unknown #
coedge $-1 $266 $384 $179 $275 reversed $175 $-1 #
edge $-1 $385 -1.8525 $279 1.8525 $274 $386 forward 7 unknown #
coedge $-1 $269 $180 $384 $387 forward $278 $-1 #
coedge $-1 $180 $269 $380 $388 reversed $278 $-1 #
loop $-1 $-1 $276 $364 #
vertex $-1 $181 $389 #
vertex $-1 $181 $390 #
straight-curve $-1 1.8525 0 0.191 0 1 0 I I #
coedge $-1 $282 $282 $185 $283 forward $182 $-1 #
edge $-1 $391 0 $391 6.2831853071795862 $282 $392 forward 7 unknown #
vertex $-1 $186 $393 #
ellipse-curve $-1 0 0 -0.066000000000000003 0 0 -1 0.10150000000000001 0 0 1 I I #
coedge $-1 $286 $286 $190 $287 forward $187 $-1 #
edge $-1 $394 0 $394 6.2831853071795862 $286 $395 forward 7 unknown #
vertex $-1 $191 $396 #
ellipse-curve $-1 0 0 -0.066000000000000003 0 0 -1 0.10150000000000001 0 0 1 I I #
coedge $-1 $290 $290 $195 $291 forward $192 $-1 #
edge $-1 $397 0 $397 6.2831853071795862 $290 $398 forward 7 unknown #
vertex $-1 $196 $399 #
ellipse-curve $-1 0 0 -0.066000000000000003 0 0 -1 0.10150000000000001 0 0 1 I I #
coedge $-1 $294 $294 $200 $295 forward $197 $-1 #
edge $-1 $400 0 $400 6.2831853071795862 $294 $401 forward 7 unknown #
vertex $-1 $201 $402 #
ellipse-curve $-1 0 0 -0.125 0 0 -1 0.21875 0 0 1 I I #
coedge $-1 $298 $298 $205 $299 forward $202 $-1 #
edge $-1 $403 0 $403 6.2831853071795862 $298 $404 forward 7 unknown #
vertex $-1 $206 $405 #
ellipse-curve $-1 0 0 -0.125 0 0 -1 0.21875 0 0 1 I I #
coedge $-1 $302 $302 $210 $303 forward $207 $-1 #
edge $-1 $406 0 $406 6.2831853071795862 $302 $407 forward 7 unknown #
vertex $-1 $211 $408 #
ellipse-curve $-1 0 0 -0.125 0 0 -1 0.21875 0 0 1 I I #
face_name-twe-attrib $-1 $-1 $212 $49 2 #
face_name-twe-attrib $-1 $-1 $214 $145 5 #
model_id-kcp-attrib $-1 $409 $-1 $215 1 990712296 60 -851705855 7 #
face $410 $411 $318 $12 $-1 $412 reversed single #
plane-surface $413 -3.605 -3.2850000000000001 0 0 -1 0 0 0 -1 forward_v I I I I #
loop_type-twe-attrib $-1 $-1 $-1 $216 0 #
surf-twe-attrib $-1 $-1 $-1 $217 33 #
loop_type-twe-attrib $-1 $-1 $221 $151 1 #
model_id-kcp-attrib $-1 $414 $-1 $222 1 990712296 60 -851705855 35 #
coedge $-1 $315 $315 $415 $416 reversed $222 $-1 #
coedge $-1 $316 $316 $223 $317 forward $417 $-1 #
edge $418 $419 0 $419 6.2831853071795862 $316 $420 forward 7 unknown #
loop $421 $422 $224 $309 #
attrib_edge_convexity-kcp-attrib $-1 $423 $-1 $225 1 #
vertex $424 $225 $425 #
ellipse-curve $426 -0.625 0.34399999999999997 0.38200000000000001 0 0 1 -0.10150000000000001 0 0 1 I I #
coedge $-1 $346 $345 $226 $323 forward $216 $-1 #
edge $427 $328 -4.0099999999999998 $325 0 $322 $428 forward 7 unknown #
attrib_edge_convexity-kcp-attrib $-1 $429 $-1 $228 1 #
vertex $-1 $354 $430 #
straight-curve $431 0.10000000000000001 0.72499999999999998 0.38200000000000001 1 0 0 I I #
edge_name-twe-attrib $-1 $-1 $-1 $230 11 8704 #
vertex $-1 $349 $432 #
straight-curve $433 -3.605 -3.2850000000000001 0.38200000000000001 -1 0 0 I I #
convexity-sys-attrib $-1 $434 $231 $156 #
point $-1 0.10000000000000001 0.72499999999999998 0.38200000000000001 #
point $-1 0.10000000000000001 -3.2850000000000001 0.38200000000000001 #
cur-twe-attrib $-1 $-1 $-1 $234 44 #
coedge $-1 $334 $334 $236 $335 forward $435 $-1 #
edge $436 $437 0 $437 6.2831853071795862 $334 $438 forward 7 unknown #
loop $439 $-1 $237 $440 #
attrib_edge_convexity-kcp-attrib $-1 $441 $-1 $238 1 #
vertex $-1 $238 $442 #
ellipse-curve $443 -3.2240000000000002 -1.28 0 0 0 -1 0.21875 0 0 1 I I #
loop_type-twe-attrib $-1 $-1 $-1 $239 1 #
face $444 $445 $446 $12 $-1 $447 reversed single #
convexity-sys-attrib $-1 $448 $240 $161 #
point $-1 -0.40625 0.34399999999999997 0 #
cur-twe-attrib $-1 $-1 $-1 $242 49 #
coedge $-1 $322 $243 $246 $349 reversed $216 $-1 #
coedge $-1 $243 $322 $251 $354 forward $216 $-1 #
attrib_edge_convexity-kcp-attrib $-1 $449 $-1 $244 1 #
straight-curve $450 -3.605 0.72499999999999998 0 0 1 0 I I #
edge $451 $328 -0.38200000000000001 $249 0 $246 $452 forward 7 unknown #
loop_type-twe-attrib $-1 $-1 $-1 $247 0 #
convexity-sys-attrib $-1 $453 $248 $164 #
point $-1 -3.605 -3.2850000000000001 0 #
cur-twe-attrib $-1 $-1 $-1 $250 52 #
edge $454 $325 -0.38200000000000001 $254 0 $346 $455 forward 7 unknown #
convexity-sys-attrib $-1 $456 $253 $166 #
point $-1 -3.605 0.72499999999999998 0 #
cur-twe-attrib $-1 $-1 $-1 $255 54 #
attrib_edge_convexity-kcp-attrib $-1 $457 $-1 $256 1 #
straight-curve $458 0.10000000000000001 0.72499999999999998 0 0 0 -1 I I #
attrib_edge_convexity-kcp-attrib $-1 $459 $-1 $257 1 #
straight-curve $460 0.10000000000000001 -3.2850000000000001 0 0 0 -1 I I #
edge_name-twe-attrib $-1 $-1 $258 $106 1 8704 #
model_id-kcp-attrib $-1 $-1 $-1 $263 1 990712296 60 -851705854 5 #
face $461 $-1 $278 $35 $-1 $462 reversed single #
loop $-1 $-1 $380 $263 #
plane-surface $-1 0 2.0049999999999999 0 0 -1 0 0 0 -1 forward_v I I I I #
coedge $-1 $463 $378 $381 $464 forward $264 $-1 #
coedge $-1 $384 $266 $267 $372 reversed $175 $-1 #
coedge $-1 $378 $463 $266 $370 reversed $264 $-1 #
edge $-1 $385 -0.191 $465 0.191 $369 $466 forward 7 unknown #
coedge $-1 $268 $267 $463 $467 forward $109 $-1 #
edge $-1 $376 -1.8525 $465 1.8525 $368 $468 forward 7 unknown #
coedge $-1 $381 $380 $268 $374 reversed $365 $-1 #
edge $-1 $469 -1.8525 $375 1.8525 $373 $470 forward 7 unknown #
vertex $-1 $270 $471 #
vertex $-1 $387 $472 #
straight-curve $-1 1.8525 0 -0.191 0 -1 0 I I #
coedge $-1 $367 $369 $271 $379 reversed $264 $-1 #
edge $-1 $382 -2.0049999999999999 $385 2.0049999999999999 $378 $473 forward 7 unknown #
coedge $-1 $373 $272 $277 $388 forward $365 $-1 #
coedge $-1 $272 $373 $367 $464 reversed $365 $-1 #
vertex $-1 $273 $474 #
straight-curve $-1 0 2.0049999999999999 0.191 -1 0 0 I I #
coedge $-1 $274 $368 $276 $387 reversed $175 $-1 #
vertex $-1 $379 $475 #
straight-curve $-1 0 -2.0049999999999999 0.191 1 0 0 I I #
edge $-1 $279 -0.191 $376 0.191 $276 $476 forward 7 unknown #
edge $-1 $280 -0.191 $375 0.191 $277 $477 forward 7 unknown #
point $-1 1.8525 -2.0049999999999999 0.191 #
point $-1 1.8525 2.0049999999999999 0.191 #
vertex $-1 $283 $478 #
ellipse-curve $-1 0 0 0.066000000000000003 0 0 1 0.10150000000000001 0 0 1 I I #
point $-1 0.10150000000000001 0 -0.066000000000000003 #
vertex $-1 $287 $479 #
ellipse-curve $-1 0 0 0.066000000000000003 0 0 1 0.10150000000000001 0 0 1 I I #
point $-1 0.10150000000000001 0 -0.066000000000000003 #
vertex $-1 $291 $480 #
ellipse-curve $-1 0 0 0.066000000000000003 0 0 1 0.10150000000000001 0 0 1 I I #
point $-1 0.10150000000000001 0 -0.066000000000000003 #
vertex $-1 $295 $481 #
ellipse-curve $-1 0 0 0.125 0 0 1 0.21875 0 0 1 I I #
point $-1 0.21875 0 -0.125 #
vertex $-1 $299 $482 #
ellipse-curve $-1 0 0 0.125 0 0 1 0.21875 0 0 1 I I #
point $-1 0.21875 0 -0.125 #
vertex $-1 $303 $483 #
ellipse-curve $-1 0 0 0.125 0 0 1 0.21875 0 0 1 I I #
point $-1 0.21875 0 -0.125 #
face_name-twe-attrib $-1 $-1 $308 $215 6 #
model_id-kcp-attrib $-1 $484 $-1 $309 1 990712296 60 -851705855 8 #
face $485 $486 $417 $12 $-1 $487 reversed single #
cone-surface $488 -0.625 0.34399999999999997 0.38200000000000001 0 0 -1 -0.10150000000000001 0 0 1 I I 0 1 0.10150000000000001 forward I I I I #
surf-twe-attrib $-1 $-1 $-1 $310 62 #
loop_type-twe-attrib $-1 $-1 $314 $222 1 #
coedge $-1 $415 $415 $315 $416 forward $489 $-1 #
edge $490 $491 0 $491 6.2831853071795862 $415 $492 forward 7 unknown #
loop $493 $494 $316 $411 #
attrib_edge_convexity-kcp-attrib $-1 $495 $-1 $317 1 #
vertex $496 $317 $497 #
ellipse-curve $498 -0.625 -2.9039999999999999 0.38200000000000001 0 0 1 -0.10150000000000001 0 0 1 I I #
model_id-kcp-attrib $-1 $499 $-1 $318 1 990712296 60 -851705855 19 #
loop $500 $-1 $501 $309 #
convexity-sys-attrib $-1 $502 $319 $225 #
model_id-kcp-attrib $-1 $-1 $-1 $320 1 990712296 60 -851705855 23 #
point $-1 -0.72650000000000003 0.34399999999999997 0.38200000000000001 #
cur-twe-attrib $-1 $-1 $-1 $321 71 #
edge_name-twe-attrib $-1 $-1 $-1 $323 7 8704 #
straight-curve $503 -3.605 0.72499999999999998 0.38200000000000001 0 1 0 I I #
convexity-sys-attrib $-1 $504 $324 $228 #
point $-1 -3.605 0.72499999999999998 0.38200000000000001 #
cur-twe-attrib $-1 $-1 $-1 $326 74 #
point $-1 -3.605 -3.2850000000000001 0.38200000000000001 #
cur-twe-attrib $-1 $-1 $-1 $329 76 #
edge_name-twe-attrib $-1 $-1 $330 $156 2 8704 #
loop $505 $-1 $334 $506 #
attrib_edge_convexity-kcp-attrib $-1 $507 $-1 $335 1 #
vertex $-1 $335 $508 #
ellipse-curve $509 -0.625 -2.9039999999999999 0 0 0 -1 0.21875 0 0 1 I I #
loop_type-twe-attrib $-1 $-1 $-1 $336 1 #
face $510 $511 $512 $12 $-1 $513 reversed single #
convexity-sys-attrib $-1 $514 $337 $238 #
point $-1 -3.0052500000000002 -1.28 0 #
cur-twe-attrib $-1 $-1 $-1 $339 84 #
model_id-kcp-attrib $-1 $515 $-1 $341 1 990712296 60 -851705855 12 #
face $516 $440 $517 $12 $-1 $518 reversed single #
loop $519 $239 $520 $341 #
cone-surface $521 -0.625 0.34399999999999997 0 0 0 1 0.21875 0 0 1 I I 0 1 0.21875 forward I I I I #
edge_name-twe-attrib $-1 $-1 $342 $161 18 8704 #
convexity-sys-attrib $-1 $522 $347 $244 #
cur-twe-attrib $-1 $-1 $-1 $348 90 #
edge_name-twe-attrib $-1 $-1 $-1 $349 12 8704 #
straight-curve $523 -3.605 -3.2850000000000001 0 0 0 -1 I I #
edge_name-twe-attrib $-1 $-1 $351 $164 9 8704 #
attrib_edge_convexity-kcp-attrib $-1 $524 $-1 $354 1 #
straight-curve $525 -3.605 0.72499999999999998 0 0 0 -1 I I #
edge_name-twe-attrib $-1 $-1 $355 $166 3 8704 #
convexity-sys-attrib $-1 $526 $358 $256 #
cur-twe-attrib $-1 $-1 $-1 $359 102 #
convexity-sys-attrib $-1 $527 $360 $257 #
cur-twe-attrib $-1 $-1 $-1 $361 103 #
model_id-kcp-attrib $-1 $-1 $-1 $364 1 990712296 60 -851705854 4 #
plane-surface $-1 1.8525 0 0 -1 0 0 0 0 1 forward_v I I I I #
coedge $-1 $369 $367 $371 $467 reversed $264 $-1 #
edge $-1 $382 -0.191 $469 0.191 $381 $528 forward 7 unknown #
vertex $-1 $467 $529 #
straight-curve $-1 -1.8525 -2.0049999999999999 0 0 0 -1 I I #
edge $-1 $465 -2.0049999999999999 $469 2.0049999999999999 $463 $530 forward 7 unknown #
straight-curve $-1 0 -2.0049999999999999 -0.191 -1 0 0 I I #
vertex $-1 $374 $531 #
straight-curve $-1 0 2.0049999999999999 -0.191 1 0 0 I I #
point $-1 1.8525 2.0049999999999999 -0.191 #
point $-1 1.8525 -2.0049999999999999 -0.191 #
straight-curve $-1 -1.8525 0 0.191 0 -1 0 I I #
point $-1 -1.8525 2.0049999999999999 0.191 #
point $-1 -1.8525 -2.0049999999999999 0.191 #
straight-curve $-1 1.8525 -2.0049999999999999 0 0 0 -1 I I #
straight-curve $-1 1.8525 2.0049999999999999 0 0 0 -1 I I #
point $-1 0.10150000000000001 0 0.066000000000000003 #
point $-1 0.10150000000000001 0 0.066000000000000003 #
point $-1 0.10150000000000001 0 0.066000000000000003 #
point $-1 0.21875 0 0.125 #
point $-1 0.21875 0 0.125 #
point $-1 0.21875 0 0.125 #
face_name-twe-attrib $-1 $-1 $410 $309 7 #
model_id-kcp-attrib $-1 $532 $-1 $411 1 990712296 60 -851705855 9 #
face $533 $534 $489 $12 $-1 $535 reversed single #
cone-surface $536 -0.625 -2.9039999999999999 0.38200000000000001 0 0 -1 -0.10150000000000001 0 0 1 I I 0 1 0.10150000000000001 forward I I I I #
surf-twe-attrib $-1 $-1 $-1 $412 108 #
loop $537 $538 $415 $486 #
attrib_edge_convexity-kcp-attrib $-1 $539 $-1 $416 1 #
vertex $540 $416 $541 #
ellipse-curve $542 -3.2240000000000002 -1.28 0.38200000000000001 0 0 1 -0.10150000000000001 0 0 1 I I #
model_id-kcp-attrib $-1 $543 $-1 $417 1 990712296 60 -851705855 26 #
loop $544 $-1 $545 $411 #
convexity-sys-attrib $-1 $546 $418 $317 #
model_id-kcp-attrib $-1 $-1 $-1 $419 1 990712296 60 -851705855 30 #
point $-1 -0.72650000000000003 -2.9039999999999999 0.38200000000000001 #
cur-twe-attrib $-1 $-1 $-1 $420 115 #
loop_type-twe-attrib $-1 $-1 $421 $318 0 #
model_id-kcp-attrib $-1 $547 $-1 $422 1 990712296 60 -851705855 20 #
coedge $-1 $501 $501 $548 $549 reversed $422 $-1 #
edge_name-twe-attrib $-1 $-1 $423 $225 13 8704 #
cur-twe-attrib $-1 $-1 $-1 $428 121 #
edge_name-twe-attrib $-1 $-1 $429 $228 4 8704 #
loop_type-twe-attrib $-1 $-1 $-1 $435 1 #
face $550 $-1 $551 $12 $-1 $552 reversed single #
convexity-sys-attrib $-1 $553 $436 $335 #
point $-1 -0.40625 -2.9039999999999999 0 #
cur-twe-attrib $-1 $-1 $-1 $438 132 #
model_id-kcp-attrib $-1 $554 $-1 $440 1 990712296 60 -851705855 14 #
face $555 $506 $556 $12 $-1 $557 reversed single #
loop $558 $336 $559 $440 #
cone-surface $560 -3.2240000000000002 -1.28 0 0 0 1 0.21875 0 0 1 I I 0 1 0.21875 forward I I I I #
edge_name-twe-attrib $-1 $-1 $441 $238 21 8704 #
face_name-twe-attrib $-1 $-1 $444 $341 11 #
model_id-kcp-attrib $-1 $561 $-1 $445 1 990712296 60 -851705855 13 #
loop $562 $563 $564 $445 #
plane-surface $565 -3.2240000000000002 -1.28 0.25 0 0 1 1 0 0 forward_v I I I I #
loop_type-twe-attrib $-1 $-1 $-1 $446 0 #
coedge $-1 $520 $520 $566 $567 reversed $446 $-1 #
surf-twe-attrib $-1 $-1 $-1 $447 138 #
edge_name-twe-attrib $-1 $-1 $449 $244 6 8704 #
cur-twe-attrib $-1 $-1 $-1 $452 145 #
convexity-sys-attrib $-1 $568 $454 $354 #
cur-twe-attrib $-1 $-1 $-1 $455 149 #
edge_name-twe-attrib $-1 $-1 $457 $256 5 8704 #
edge_name-twe-attrib $-1 $-1 $459 $257 10 8704 #
straight-curve $-1 -1.8525 2.0049999999999999 0 0 0 -1 I I #
point $-1 -1.8525 -2.0049999999999999 -0.191 #
straight-curve $-1 -1.8525 0 -0.191 0 1 0 I I #
point $-1 -1.8525 2.0049999999999999 -0.191 #
face_name-twe-attrib $-1 $-1 $485 $411 8 #
model_id-kcp-attrib $-1 $569 $-1 $486 1 990712296 60 -851705855 10 #
face $570 $341 $571 $12 $-1 $572 reversed single #
cone-surface $573 -3.2240000000000002 -1.28 0.38200000000000001 0 0 -1 -0.10150000000000001 0 0 1 I I 0 1 0.10150000000000001 forward I I I I #
surf-twe-attrib $-1 $-1 $-1 $487 157 #
model_id-kcp-attrib $-1 $574 $-1 $489 1 990712296 60 -851705855 33 #
loop $575 $-1 $576 $486 #
convexity-sys-attrib $-1 $577 $490 $416 #
model_id-kcp-attrib $-1 $-1 $-1 $491 1 990712296 60 -851705855 37 #
point $-1 -3.3254999999999999 -1.28 0.38200000000000001 #
cur-twe-attrib $-1 $-1 $-1 $492 161 #
loop_type-twe-attrib $-1 $-1 $493 $417 0 #
model_id-kcp-attrib $-1 $578 $-1 $494 1 990712296 60 -851705855 27 #
coedge $-1 $545 $545 $579 $580 reversed $494 $-1 #
edge_name-twe-attrib $-1 $-1 $495 $317 14 8704 #
loop_type-twe-attrib $-1 $-1 $500 $422 1 #
coedge $-1 $548 $548 $501 $549 forward $581 $-1 #
edge $582 $583 -3.1415926535897931 $583 3.1415926535897931 $548 $584 forward 7 unknown #
model_id-kcp-attrib $-1 $585 $-1 $506 1 990712296 60 -851705855 16 #
loop $586 $435 $587 $506 #
cone-surface $588 -0.625 -2.9039999999999999 0 0 0 1 0.21875 0 0 1 I I 0 1 0.21875 forward I I I I #
edge_name-twe-attrib $-1 $-1 $507 $335 24 8704 #
face_name-twe-attrib $-1 $-1 $510 $440 13 #
model_id-kcp-attrib $-1 $589 $-1 $511 1 990712296 60 -851705855 15 #
loop $590 $591 $592 $511 #
plane-surface $593 -0.625 -2.9039999999999999 0.25 0 0 1 1 0 0 forward_v I I I I #
loop_type-twe-attrib $-1 $-1 $-1 $512 0 #
coedge $-1 $559 $559 $564 $594 reversed $512 $-1 #
surf-twe-attrib $-1 $-1 $-1 $513 181 #
face_name-twe-attrib $-1 $-1 $516 $445 12 #
loop_type-twe-attrib $-1 $-1 $-1 $517 0 #
loop $595 $-1 $596 $445 #
coedge $-1 $564 $564 $559 $594 forward $517 $-1 #
surf-twe-attrib $-1 $597 $-1 $518 215 #
coedge $-1 $566 $566 $520 $567 forward $571 $-1 #
edge $598 $599 -3.1415926535897931 $599 3.1415926535897931 $520 $600 forward 7 unknown #
edge_name-twe-attrib $-1 $-1 $524 $354 8 8704 #
face_name-twe-attrib $-1 $-1 $533 $486 9 #
model_id-kcp-attrib $-1 $601 $-1 $534 1 990712296 60 -851705855 11 #
loop $602 $581 $566 $534 #
plane-surface $603 -0.625 0.34399999999999997 0.25 0 0 1 1 0 0 forward_v I I I I #
surf-twe-attrib $-1 $-1 $-1 $535 196 #
loop_type-twe-attrib $-1 $-1 $537 $489 0 #
model_id-kcp-attrib $-1 $604 $-1 $538 1 990712296 60 -851705855 34 #
coedge $-1 $576 $576 $596 $605 reversed $538 $-1 #
edge_name-twe-attrib $-1 $-1 $539 $416 15 8704 #
loop_type-twe-attrib $-1 $-1 $544 $494 1 #
coedge $-1 $579 $579 $545 $580 forward $591 $-1 #
edge $606 $607 -3.1415926535897931 $607 3.1415926535897931 $579 $608 forward 7 unknown #
loop $609 $-1 $548 $534 #
attrib_edge_convexity-kcp-attrib $-1 $610 $-1 $549 1 #
vertex $611 $549 $612 #
ellipse-curve $613 -0.625 0.34399999999999997 0.25 0 0 1 0.10150000000000001 0 0 1 I I #
face_name-twe-attrib $-1 $-1 $550 $506 15 #
loop_type-twe-attrib $-1 $-1 $-1 $551 0 #
coedge $-1 $587 $587 $592 $614 reversed $551 $-1 #
surf-twe-attrib $-1 $-1 $-1 $552 211 #
face_name-twe-attrib $-1 $-1 $555 $511 14 #
loop_type-twe-attrib $-1 $-1 $-1 $556 0 #
loop $615 $-1 $579 $511 #
coedge $-1 $592 $592 $587 $614 forward $556 $-1 #
surf-twe-attrib $-1 $616 $-1 $557 215 #
edge $617 $618 -3.1415926535897931 $618 3.1415926535897931 $559 $619 forward 7 unknown #
model_id-kcp-attrib $-1 $620 $-1 $563 1 990712296 60 -851705855 36 #
coedge $-1 $596 $596 $576 $605 forward $563 $-1 #
surf-twe-attrib $-1 $621 $565 $518 185 #
attrib_edge_convexity-kcp-attrib $-1 $622 $-1 $567 2 #
vertex $-1 $567 $623 #
ellipse-curve $624 -0.625 0.34399999999999997 0.25 0 0 -1 -0.21875 0 0 1 I I #
face_name-twe-attrib $-1 $-1 $570 $534 10 #
loop_type-twe-attrib $-1 $-1 $-1 $571 0 #
surf-twe-attrib $-1 $625 $-1 $572 215 #
loop_type-twe-attrib $-1 $-1 $575 $538 1 #
edge $626 $627 -3.1415926535897931 $627 3.1415926535897931 $596 $628 forward 7 unknown #
attrib_edge_convexity-kcp-attrib $-1 $629 $-1 $580 1 #
vertex $630 $580 $631 #
ellipse-curve $632 -0.625 -2.9039999999999999 0.25 0 0 1 0.10150000000000001 0 0 1 I I #
model_id-kcp-attrib $-1 $633 $-1 $581 1 990712296 60 -851705855 22 #
convexity-sys-attrib $-1 $634 $582 $549 #
model_id-kcp-attrib $-1 $-1 $-1 $583 1 990712296 60 -851705855 24 #
point $-1 -0.72650000000000003 0.34399999999999997 0.25 #
cur-twe-attrib $-1 $-1 $-1 $584 237 #
edge $635 $636 -3.1415926535897931 $636 3.1415926535897931 $587 $637 forward 7 unknown #
model_id-kcp-attrib $-1 $638 $-1 $591 1 990712296 60 -851705855 29 #
surf-twe-attrib $-1 $639 $593 $557 185 #
attrib_edge_convexity-kcp-attrib $-1 $640 $-1 $594 2 #
vertex $-1 $594 $641 #
ellipse-curve $642 -3.2240000000000002 -1.28 0.25 0 0 -1 -0.21875 0 0 1 I I #
loop_type-twe-attrib $-1 $-1 $595 $563 1 #
surf-twe-attrib $-1 $-1 $597 $518 227 #
convexity-sys-attrib $-1 $643 $598 $567 #
point $-1 -0.40625 0.34399999999999997 0.25 #
cur-twe-attrib $-1 $-1 $-1 $600 252 #
surf-twe-attrib $-1 $644 $603 $572 185 #
attrib_edge_convexity-kcp-attrib $-1 $645 $-1 $605 1 #
vertex $646 $605 $647 #
ellipse-curve $648 -3.2240000000000002 -1.28 0.25 0 0 1 0.10150000000000001 0 0 1 I I #
convexity-sys-attrib $-1 $649 $606 $580 #
model_id-kcp-attrib $-1 $-1 $-1 $607 1 990712296 60 -851705855 31 #
point $-1 -0.72650000000000003 -2.9039999999999999 0.25 #
cur-twe-attrib $-1 $-1 $-1 $608 260 #
loop_type-twe-attrib $-1 $-1 $609 $581 1 #
edge_name-twe-attrib $-1 $-1 $610 $549 16 8704 #
attrib_edge_convexity-kcp-attrib $-1 $650 $-1 $614 2 #
vertex $-1 $614 $651 #
ellipse-curve $652 -0.625 -2.9039999999999999 0.25 0 0 -1 -0.21875 0 0 1 I I #
loop_type-twe-attrib $-1 $-1 $615 $591 1 #
surf-twe-attrib $-1 $-1 $616 $557 227 #
convexity-sys-attrib $-1 $653 $617 $594 #
point $-1 -3.0052500000000002 -1.28 0.25 #
cur-twe-attrib $-1 $-1 $-1 $619 272 #
edge_name-twe-attrib $-1 $-1 $622 $567 17 4608 #
surf-twe-attrib $-1 $-1 $625 $572 227 #
convexity-sys-attrib $-1 $654 $626 $605 #
model_id-kcp-attrib $-1 $-1 $-1 $627 1 990712296 60 -851705855 38 #
point $-1 -3.3254999999999999 -1.28 0.25 #
cur-twe-attrib $-1 $-1 $-1 $628 281 #
edge_name-twe-attrib $-1 $-1 $629 $580 22 8704 #
convexity-sys-attrib $-1 $655 $635 $614 #
point $-1 -0.40625 -2.9039999999999999 0.25 #
cur-twe-attrib $-1 $-1 $-1 $637 288 #
edge_name-twe-attrib $-1 $-1 $640 $594 20 4608 #
edge_name-twe-attrib $-1 $-1 $645 $605 19 8704 #
edge_name-twe-attrib $-1 $-1 $650 $614 23 4608 #
End-of-ACIS-data 