105 770 1 0                             
body $-1 $1 $-1 $-1 #
lump $-1 $-1 $2 $0 #
shell $-1 $-1 $-1 $3 $1 #
face $-1 $4 $5 $2 $-1 $6 reversed single #
face $-1 $7 $8 $2 $-1 $9 forward single #
loop $-1 $-1 $10 $3 #
cone-surface $-1 49.5 20 -0.5 0 -1 -3.49148133884313e-15 2.5 0 0 1 0 1 0 #
face $-1 $11 $12 $2 $-1 $13 reversed single #
loop $-1 $-1 $14 $4 #
plane-surface $-1 50 20 7.5 1 0 0 0 0 -1 0 #
coedge $-1 $15 $16 $17 $18 1 $5 $-1 #
face $-1 $19 $20 $2 $-1 $21 reversed single #
loop $-1 $-1 $22 $7 #
plane-surface $-1 0 37.5 0 0 -1 0 0 0 -1 0 #
coedge $-1 $23 $24 $25 $26 0 $8 $-1 #
coedge $-1 $25 $10 $22 $27 1 $5 $-1 #
coedge $-1 $10 $28 $29 $30 1 $5 $-1 #
coedge $-1 $31 $32 $10 $18 0 $33 $-1 #
edge $-1 $34 $35 $17 $36 0 #
face $-1 $37 $33 $2 $-1 $38 forward single #
loop $-1 $-1 $39 $11 #
cone-surface $-1 70.5 20 -0.5 0 -1 -3.49148133884313e-15 2.5 0 0 1 0 1 0 #
coedge $-1 $40 $41 $15 $27 0 $12 $-1 #
coedge $-1 $42 $14 $41 $43 1 $8 $-1 #
coedge $-1 $14 $42 $44 $45 1 $8 $-1 #
coedge $-1 $28 $15 $14 $26 1 $5 $-1 #
edge $-1 $46 $47 $14 $48 0 #
edge $-1 $47 $34 $22 $49 0 #
coedge $-1 $16 $25 $50 $51 1 $5 $-1 #
coedge $-1 $52 $53 $16 $30 0 $54 $-1 #
edge $-1 $35 $55 $29 $56 0 #
coedge $-1 $57 $17 $53 $58 1 $33 $-1 #
coedge $-1 $17 $57 $40 $59 1 $33 $-1 #
loop $-1 $-1 $17 $19 #
vertex $-1 $18 $60 #
vertex $-1 $58 $61 #
straight-curve $-1 51.9494897427832 20 0 0 -1 -3.49148133884313e-15 #
face $-1 $62 $63 $2 $-1 $64 reversed single #
plane-surface $-1 60 20 0 0 0 1 1 0 0 0 #
coedge $-1 $65 $66 $67 $68 1 $20 $-1 #
coedge $-1 $69 $22 $32 $59 0 $12 $-1 #
coedge $-1 $22 $70 $23 $43 0 $12 $-1 #
coedge $-1 $24 $23 $71 $72 1 $8 $-1 #
edge $-1 $73 $47 $41 $74 0 #
coedge $-1 $75 $50 $24 $45 0 $76 $-1 #
edge $-1 $46 $77 $44 $78 1 #
vertex $-1 $26 $79 #
vertex $-1 $43 $80 #
straight-curve $-1 50 20 1.94948974278318 -0 1 3.49148133884313e-15 #
ellipse-curve $-1 49.5 37.5 -0.499999999999939 0 -1 0 2.5 0 0 1 #
coedge $-1 $44 $81 $28 $51 0 $76 $-1 #
edge $-1 $55 $46 $50 $82 0 #
coedge $-1 $83 $29 $81 $84 0 $54 $-1 #
coedge $-1 $29 $85 $31 $58 0 $54 $-1 #
loop $-1 $-1 $29 $86 #
vertex $-1 $30 $87 #
ellipse-curve $-1 49.5 2.5 -0.500000000000061 -0 1 -0 2.5 0 0 1 #
coedge $-1 $32 $31 $88 $89 0 $33 $-1 #
edge $-1 $90 $35 $53 $91 0 #
edge $-1 $34 $92 $40 $93 0 #
point $-1 51.9494897427832 37.5 3.86570753711546e-17 #
point $-1 51.9494897427832 2.5 -3.86570753711546e-17 #
face $-1 $94 $95 $2 $-1 $96 forward single #
loop $-1 $-1 $97 $37 #
cone-surface $-1 -49.5 20 -0.5 0 -1 -3.49148133884313e-15 2.5 0 0 1 0 1 0 #
coedge $-1 $88 $39 $69 $98 1 $20 $-1 #
coedge $-1 $39 $88 $85 $99 1 $20 $-1 #
coedge $-1 $100 $101 $39 $68 0 $102 $-1 #
edge $-1 $103 $104 $67 $105 0 #
coedge $-1 $106 $40 $65 $98 0 $12 $-1 #
coedge $-1 $41 $107 $108 $109 1 $12 $-1 #
coedge $-1 $108 $110 $42 $72 0 $111 $-1 #
edge $-1 $77 $73 $71 $112 0 #
vertex $-1 $43 $113 #
straight-curve $-1 50 37.5 3.75 0 0 -1 #
coedge $-1 $114 $44 $110 $115 1 $76 $-1 #
loop $-1 $-1 $50 $116 #
vertex $-1 $115 $117 #
straight-curve $-1 50 2.5 0 0 0 -1 #
point $-1 50 2.5 1.94948974278312 #
point $-1 50 37.5 1.94948974278324 #
coedge $-1 $50 $118 $52 $84 1 $76 $-1 #
intcurve-curve $-1 0 { surfintcur nubs 3 open 21 
	-4.28766666183029 3 -4.26873636891582 2 -3.79744032483958 2 -3.32143632798254 2 -2.84543233112551 2 
	-2.36942833426847 2 -1.89342433741145 2 -1.42006825305858 2 -0.946712168705723 2 -0.473356084352861 2 
	0 3 0.474312518967233 2 0.948625037934465 2 1.4229375569017 2 1.89725007586895 2 
	2.3722983981806 2 2.84734672049226 2 3.32239504280391 2 3.79744336511557 2 4.26936301103119 2 
	4.28770158684428 3 
	50 2.5 -2.94948974278324 
	49.9935211328489 2.5 -2.95081223600253 
	49.9870405016309 2.49999370339604 -2.95210831290864 
	49.8191799201289 2.4996673565592 -2.9849882152627 
	49.65690218512 2.49534711178703 -3.00000000000006 
	49.3415304601609 2.47955877777147 -3.00000000000006 
	49.1780795527431 2.46749754821099 -2.98469219694707 
	48.8537132998452 2.43542084645861 -2.9206696571573 
	48.692793315458 2.41541495906727 -2.87197362276948 
	48.3847317309584 2.36991142554606 -2.74366176716816 
	48.2373380682876 2.34440217357716 -2.66394809671587 
	47.9650304619021 2.29173785493931 -2.48011490463054 
	47.8401188635387 2.26461962762313 -2.37598135731195 
	47.6196554846453 2.21322294873148 -2.15485467580028 
	47.5162952781245 2.18711165389882 -2.03025793992128 
	47.3337596596348 2.13846895460818 -1.7586407639373 
	47.2545706652948 2.11597768652827 -1.61162226544202 
	47.1271140288041 2.07867086778191 -1.30440584898651 
	47.0787446362461 2.06385768112147 -1.14394459270389 
	47.0151791978839 2.044210361539 -0.820636484594654 
	47 2.03939201416946 -0.657785361451041 
	47 2.03939201416946 -0.500000000000063 
	47 2.03939201416946 -0.341895827010985 
	47.0152404888439 2.04422997498551 -0.178727603180396 
	47.0790502092874 2.06395145710849 0.145172762286304 
	47.1276024453494 2.0788190323046 0.305909222599223 
	47.2555288686563 2.11625289161125 0.613602052774415 
	47.3350055076298 2.13881678176587 0.760822995744122 
	47.5181950451897 2.18760180654227 1.03275076287814 
	47.6219216732229 2.21378256921771 1.1574555791556 
	47.8427155474213 2.2651928784414 1.37824945335397 
	47.9675188622656 2.29225234852649 1.48201556889383 
	48.2395158697394 2.34478954875998 1.66519373517716 
	48.3867072796881 2.37023067959208 1.74461967034622 
	48.6942932109576 2.41560874825099 1.872461754439 
	48.8549386295243 2.43555725112245 1.92097508829808 
	49.1787140386978 2.46754497367683 1.98475348494816 
	49.3418486198958 2.47957470568056 1.99999999999994 
	49.6571097924031 2.49535750515102 1.99999999999994 
	49.8195951430881 2.49967799808721 1.98494850831735 
	49.9874469576797 2.49999409213837 1.9520269985213 
	49.9937243085841 2.5 1.95077076292913 
	50 2.5 1.94948974278312 
	0.001 
	cone 49.5 20 -0.5 0 -1 -3.49148133884313e-15 2.5 0 0 1 0 1 0 
	cone 50 -7.5 0 0 0 -1 -7.07106781186547 7.07106781186547 0 1 -0 -1 0 
	nullbs 
	nullbs 
	} #
coedge $-1 $119 $52 $120 $121 1 $54 $-1 #
edge $-1 $55 $122 $52 $78 0 #
coedge $-1 $53 $123 $66 $99 0 $54 $-1 #
face $-1 $124 $54 $2 $-1 $125 forward single #
point $-1 50 2.5 -2.94948974278324 #
coedge $-1 $66 $65 $57 $89 1 $20 $-1 #
edge $-1 $90 $92 $57 $126 0 #
vertex $-1 $99 $127 #
straight-curve $-1 60 2.5 0 -1 0 0 #
vertex $-1 $59 $128 #
straight-curve $-1 30 37.5 0 1 0 -0 #
face $-1 $129 $130 $2 $-1 $131 forward single #
loop $-1 $-1 $132 $62 #
plane-surface $-1 -60 2.5 0 0 -1 0 0 0 -1 0 #
coedge $-1 $133 $134 $135 $136 1 $63 $-1 #
edge $-1 $92 $103 $69 $137 0 #
edge $-1 $104 $90 $85 $138 0 #
coedge $-1 $139 $67 $123 $140 1 $102 $-1 #
coedge $-1 $67 $139 $106 $141 1 $102 $-1 #
loop $-1 $-1 $67 $142 #
vertex $-1 $68 $143 #
vertex $-1 $140 $144 #
straight-curve $-1 70 20 1.94948974278318 0 -1 -3.49148133884313e-15 #
coedge $-1 $145 $69 $101 $141 0 $12 $-1 #
coedge $-1 $70 $146 $147 $148 0 $12 $-1 #
coedge $-1 $149 $71 $70 $109 0 $111 $-1 #
edge $-1 $73 $150 $70 $151 0 #
coedge $-1 $71 $152 $75 $115 0 $111 $-1 #
loop $-1 $-1 $149 $153 #
straight-curve $-1 50 10 15 0 1 0 #
point $-1 50 37.5 15 #
coedge $-1 $118 $75 $154 $155 1 $76 $-1 #
edge $-1 $156 $77 $110 $157 0 #
face $-1 $86 $76 $2 $-1 $158 reversed single #
point $-1 50 2.5 15 #
coedge $-1 $81 $114 $159 $160 1 $76 $-1 #
coedge $-1 $161 $83 $162 $163 1 $54 $-1 #
coedge $-1 $159 $164 $83 $121 0 $165 $-1 #
edge $-1 $166 $122 $120 $167 0 #
vertex $-1 $160 $168 #
coedge $-1 $85 $161 $100 $140 0 $54 $-1 #
face $-1 $169 $170 $2 $-1 $171 forward single #
plane-surface $-1 60 2.5 0 0 -1 0 0 0 -1 0 #
straight-curve $-1 68.0505102572168 20 0 -0 1 3.49148133884313e-15 #
point $-1 68.0505102572168 2.5 -3.86570753711546e-17 #
point $-1 68.0505102572168 37.5 3.86570753711546e-17 #
face $-1 $172 $173 $2 $-1 $174 reversed single #
loop $-1 $-1 $175 $94 #
plane-surface $-1 -60 20 0 0 0 1 1 0 0 0 #
coedge $-1 $176 $177 $178 $179 0 $95 $-1 #
coedge $-1 $178 $97 $175 $180 1 $63 $-1 #
coedge $-1 $97 $181 $182 $183 1 $63 $-1 #
coedge $-1 $184 $185 $97 $136 0 $186 $-1 #
edge $-1 $187 $188 $135 $189 0 #
ellipse-curve $-1 70.5 37.5 -0.499999999999939 0 -1 0 2.5 0 0 1 #
ellipse-curve $-1 70.5 2.5 -0.500000000000061 -0 1 -0 2.5 0 0 1 #
coedge $-1 $101 $100 $190 $191 1 $102 $-1 #
edge $-1 $192 $104 $123 $193 0 #
edge $-1 $103 $194 $106 $195 0 #
face $-1 $196 $102 $2 $-1 $197 forward single #
point $-1 70 37.5 1.94948974278324 #
point $-1 70 2.5 1.94948974278312 #
coedge $-1 $198 $106 $199 $200 1 $12 $-1 #
coedge $-1 $107 $198 $201 $202 1 $12 $-1 #
coedge $-1 $203 $204 $107 $148 1 $205 $-1 #
edge $-1 $206 $150 $107 $207 0 #
coedge $-1 $208 $108 $204 $209 0 $111 $-1 #
vertex $-1 $109 $210 #
straight-curve $-1 0 37.5 15 -1 0 0 #
coedge $-1 $110 $211 $212 $213 0 $111 $-1 #
face $-1 $214 $111 $2 $-1 $215 forward single #
coedge $-1 $212 $216 $114 $155 0 $170 $-1 #
edge $-1 $217 $156 $154 $218 0 #
vertex $-1 $115 $219 #
ellipse-curve $-1 50 -7.5 15 -0 -0 -1 -7.07106781186547 7.07106781186547 0 1 #
cone-surface $-1 50 -7.5 0 0 0 -1 -7.07106781186547 7.07106781186547 0 1 0 1 0 #
coedge $-1 $220 $120 $118 $160 0 $165 $-1 #
edge $-1 $122 $217 $159 $221 0 #
coedge $-1 $123 $119 $222 $223 1 $54 $-1 #
coedge $-1 $224 $225 $119 $163 0 $226 $-1 #
edge $-1 $227 $166 $162 $228 0 #
coedge $-1 $120 $201 $224 $229 0 $165 $-1 #
loop $-1 $-1 $230 $169 #
vertex $-1 $229 $231 #
straight-curve $-1 30 2.5 -15 -1 0 0 #
point $-1 50 2.5 -15 #
face $-1 $232 $165 $2 $-1 $233 reversed single #
loop $-1 $-1 $154 $124 #
plane-surface $-1 40 -17.5 0 1 0 0 0 0 -1 0 #
face $-1 $234 $235 $2 $-1 $236 forward single #
loop $-1 $-1 $237 $129 #
cone-surface $-1 -70.5 20 -0.5 0 -1 -3.49148133884313e-15 2.5 0 0 1 0 1 0 #
coedge $-1 $238 $239 $133 $180 0 $130 $-1 #
coedge $-1 $240 $132 $239 $241 0 $95 $-1 #
coedge $-1 $132 $242 $243 $244 0 $95 $-1 #
coedge $-1 $181 $133 $132 $179 1 $63 $-1 #
edge $-1 $245 $246 $132 $247 0 #
edge $-1 $246 $187 $175 $248 0 #
coedge $-1 $134 $178 $249 $250 1 $63 $-1 #
coedge $-1 $251 $252 $134 $183 0 $253 $-1 #
edge $-1 $188 $254 $182 $255 0 #
coedge $-1 $256 $135 $252 $257 0 $186 $-1 #
coedge $-1 $135 $258 $238 $259 0 $186 $-1 #
loop $-1 $-1 $135 $214 #
vertex $-1 $259 $260 #
vertex $-1 $136 $261 #
ellipse-curve $-1 -49.5 37.5 -0.499999999999939 0 -1 0 2.5 0 0 1 #
coedge $-1 $222 $199 $139 $191 0 $262 $-1 #
edge $-1 $194 $192 $190 $263 0 #
vertex $-1 $191 $264 #
straight-curve $-1 70 2.5 3.75 -0 -0 -1 #
vertex $-1 $200 $265 #
straight-curve $-1 70 37.5 3.75 0 0 1 #
face $-1 $266 $253 $2 $-1 $267 forward single #
plane-surface $-1 70 20 7.5 -1 0 0 0 0 1 0 #
coedge $-1 $146 $145 $268 $269 0 $12 $-1 #
coedge $-1 $190 $270 $145 $200 0 $262 $-1 #
edge $-1 $271 $194 $145 $151 0 #
coedge $-1 $164 $230 $146 $202 0 $165 $-1 #
edge $-1 $206 $272 $146 $273 0 #
coedge $-1 $274 $147 $230 $275 1 $205 $-1 #
coedge $-1 $147 $274 $149 $209 1 $205 $-1 #
loop $-1 $-1 $274 $276 #
vertex $-1 $275 $277 #
straight-curve $-1 20 37.5 0 0 0 1 #
coedge $-1 $278 $149 $279 $280 0 $111 $-1 #
edge $-1 $150 $281 $149 $282 0 #
point $-1 20 37.5 15 #
coedge $-1 $152 $283 $284 $285 0 $111 $-1 #
coedge $-1 $286 $154 $152 $213 1 $170 $-1 #
edge $-1 $287 $156 $152 $288 0 #
face $-1 $142 $186 $2 $-1 $13 reversed single #
plane-surface $-1 0 0 15 0 0 1 1 0 0 0 #
coedge $-1 $154 $286 $220 $289 1 $170 $-1 #
vertex $-1 $160 $290 #
straight-curve $-1 40 -7.5 0 0 0 1 #
point $-1 40 -7.5 15 #
coedge $-1 $291 $159 $216 $289 0 $165 $-1 #
ellipse-curve $-1 50 -7.5 -15 0 0 1 -7.07106781186547 7.07106781186547 0 1 #
coedge $-1 $270 $190 $161 $223 0 $262 $-1 #
edge $-1 $192 $227 $222 $292 0 #
coedge $-1 $268 $162 $164 $229 1 $226 $-1 #
coedge $-1 $162 $268 $270 $293 1 $226 $-1 #
loop $-1 $-1 $162 $294 #
vertex $-1 $223 $295 #
straight-curve $-1 80 2.5 0 -0 -0 -1 #
edge $-1 $272 $166 $224 $296 0 #
coedge $-1 $201 $297 $203 $275 0 $165 $-1 #
point $-1 80 2.5 -15 #
face $-1 $298 $299 $2 $-1 $300 reversed single #
plane-surface $-1 0 0 -15 0 0 1 1 0 0 0 #
face $-1 $301 $302 $2 $-1 $303 reversed single #
loop $-1 $-1 $304 $172 #
plane-surface $-1 -70 20 7.5 1 0 0 0 0 -1 0 #
coedge $-1 $305 $306 $258 $307 1 $173 $-1 #
coedge $-1 $308 $175 $185 $259 1 $130 $-1 #
coedge $-1 $175 $308 $176 $241 1 $130 $-1 #
coedge $-1 $309 $176 $310 $311 0 $95 $-1 #
edge $-1 $246 $312 $176 $313 0 #
coedge $-1 $177 $314 $315 $316 1 $95 $-1 #
coedge $-1 $317 $249 $177 $244 1 $299 $-1 #
edge $-1 $318 $245 $177 $319 0 #
vertex $-1 $244 $320 #
vertex $-1 $180 $321 #
ellipse-curve $-1 -49.5 2.5 -0.500000000000061 -0 1 -0 2.5 0 0 1 #
straight-curve $-1 -51.9494897427832 20 0 -0 1 3.49148133884313e-15 #
coedge $-1 $243 $322 $181 $250 0 $299 $-1 #
edge $-1 $254 $245 $249 $323 0 #
coedge $-1 $324 $182 $322 $325 0 $253 $-1 #
coedge $-1 $182 $324 $184 $257 1 $253 $-1 #
loop $-1 $-1 $182 $196 #
vertex $-1 $183 $326 #
straight-curve $-1 -50 20 1.94948974278318 0 -1 -3.49148133884313e-15 #
coedge $-1 $327 $184 $328 $329 1 $186 $-1 #
edge $-1 $188 $330 $184 $331 0 #
coedge $-1 $185 $332 $237 $307 0 $186 $-1 #
edge $-1 $333 $187 $185 $334 0 #
point $-1 -51.9494897427832 37.5 3.86570753711546e-17 #
point $-1 -50 37.5 1.94948974278324 #
loop $-1 $-1 $190 $335 #
straight-curve $-1 70 10 15 0 -1 0 #
point $-1 70 2.5 15 #
point $-1 70 37.5 15 #
face $-1 $336 $337 $2 $-1 $215 forward single #
plane-surface $-1 -50 20 7.5 -1 0 0 0 0 1 0 #
coedge $-1 $225 $224 $198 $269 1 $226 $-1 #
edge $-1 $271 $272 $268 $338 0 #
coedge $-1 $199 $222 $225 $293 0 $262 $-1 #
vertex $-1 $293 $339 #
vertex $-1 $229 $340 #
straight-curve $-1 0 37.5 -15 1 0 0 #
coedge $-1 $204 $203 $341 $342 1 $205 $-1 #
edge $-1 $343 $206 $230 $344 0 #
face $-1 $153 $205 $2 $-1 $345 forward single #
point $-1 20 37.5 -15 #
coedge $-1 $346 $208 $347 $348 0 $111 $-1 #
coedge $-1 $341 $349 $208 $280 1 $350 $-1 #
edge $-1 $281 $351 $208 $352 0 #
vertex $-1 $280 $353 #
straight-curve $-1 20 12.5 15 0 -1 0 #
coedge $-1 $211 $354 $355 $356 0 $111 $-1 #
coedge $-1 $357 $358 $211 $285 1 $359 $-1 #
edge $-1 $360 $287 $284 $361 0 #
coedge $-1 $216 $212 $358 $362 1 $170 $-1 #
vertex $-1 $285 $363 #
straight-curve $-1 40 -8.75 15 0 1 0 #
edge $-1 $217 $364 $220 $365 0 #
point $-1 40 -7.5 -15 #
coedge $-1 $366 $220 $367 $368 0 $165 $-1 #
straight-curve $-1 30 2.5 15 1 0 -0 #
edge $-1 $227 $271 $225 $369 0 #
face $-1 $-1 $226 $2 $-1 $370 reversed single #
point $-1 80 2.5 15 #
straight-curve $-1 80 0 -15 0 -1 0 #
coedge $-1 $230 $371 $372 $373 0 $165 $-1 #
face $-1 $374 $375 $2 $-1 $376 forward single #
loop $-1 $-1 $249 $232 #
cone-surface $-1 -50 -7.5 0 0 0 -1 7.07106781186547 7.07106781186547 0 1 0 1 0 #
face $-1 $377 $378 $2 $-1 $379 reversed single #
loop $-1 $380 $381 $234 #
cone-surface $-1 0 -2.5 5 0 -1 -3.49148133884313e-15 2.5 0 0 1 0 1 0 #
coedge $-1 $382 $383 $305 $384 0 $235 $-1 #
coedge $-1 $310 $237 $304 $384 1 $173 $-1 #
coedge $-1 $237 $310 $308 $385 1 $173 $-1 #
edge $-1 $386 $333 $258 $387 0 #
coedge $-1 $239 $238 $306 $385 0 $130 $-1 #
coedge $-1 $388 $240 $383 $389 0 $95 $-1 #
coedge $-1 $306 $305 $240 $311 1 $173 $-1 #
edge $-1 $312 $390 $240 $391 0 #
vertex $-1 $241 $392 #
straight-curve $-1 -60 2.5 0 -1 0 0 #
coedge $-1 $242 $388 $393 $394 1 $95 $-1 #
coedge $-1 $395 $396 $242 $316 0 $165 $-1 #
edge $-1 $318 $397 $315 $398 0 #
coedge $-1 $399 $243 $396 $400 1 $299 $-1 #
vertex $-1 $400 $401 #
straight-curve $-1 -50 2.5 0 0 0 1 #
point $-1 -50 2.5 -2.94948974278324 #
point $-1 -51.9494897427832 2.5 -3.86570753711546e-17 #
coedge $-1 $249 $402 $251 $325 1 $299 $-1 #
intcurve-curve $-1 0 { surfintcur nubs 3 open 21 
	3.28590998662356 3 3.30424856243927 2 3.77616820835487 2 4.25121653066654 2 4.7262648529782 2 
	5.20131317528988 2 5.67636149760156 2 6.15067401656884 2 6.62498653553613 2 7.09929905450342 2 
	7.57361157347071 2 8.04696765782374 2 8.52032374217676 2 8.99367982652978 2 9.4670359108828 2 
	9.94303990773993 2 10.4190439045971 2 10.8950479014542 2 11.3710518983114 2 11.8423479423877 2 
	11.8612782353003 3 
	-50 2.5 1.94948974278312 
	-49.9937243085832 2.5 1.95077076292931 
	-49.9874469576806 2.49999409213837 1.95202699852113 
	-49.8195951430881 2.49967799808721 1.98494850831736 
	-49.6571097924031 2.49535750515102 1.99999999999994 
	-49.3418486198958 2.47957470568056 1.99999999999994 
	-49.1787140386978 2.46754497367683 1.98475348494816 
	-48.8549386295243 2.43555725112244 1.92097508829807 
	-48.6942932109576 2.41560874825098 1.87246175443899 
	-48.386707279688 2.37023067959207 1.74461967034621 
	-48.2395158697394 2.34478954875997 1.66519373517715 
	-47.9675188622656 2.29225234852648 1.4820155688938 
	-47.8427155474213 2.26519287844139 1.37824945335395 
	-47.6219216732229 2.2137825692177 1.15745557915558 
	-47.5181950451897 2.18760180654227 1.03275076287811 
	-47.3350055076298 2.13881678176587 0.760822995744099 
	-47.2555288686563 2.11625289161124 0.613602052774393 
	-47.1276024453494 2.0788190323046 0.305909222599207 
	-47.0790502092874 2.06395145710849 0.145172762286291 
	-47.0152404888439 2.04422997498551 -0.178727603180402 
	-47 2.03939201416946 -0.341895827010988 
	-47 2.03939201416946 -0.657785361451047 
	-47.0151791978839 2.044210361539 -0.820636484594668 
	-47.0787446362461 2.06385768112147 -1.14394459270391 
	-47.1271140288041 2.07867086778191 -1.30440584898654 
	-47.2545706652948 2.11597768652827 -1.61162226544206 
	-47.3337596596348 2.13846895460819 -1.75864076393734 
	-47.5162952781245 2.18711165389883 -2.03025793992132 
	-47.6196554846453 2.21322294873149 -2.15485467580033 
	-47.8401188635388 2.26461962762314 -2.375981357312 
	-47.9650304619022 2.29173785493932 -2.48011490463059 
	-48.2373380682876 2.34440217357717 -2.66394809671591 
	-48.3847317309584 2.36991142554607 -2.74366176716819 
	-48.6927933154581 2.41541495906728 -2.87197362276951 
	-48.8537132998453 2.43542084645862 -2.92066965715732 
	-49.1780795527432 2.467497548211 -2.98469219694708 
	-49.3415304601609 2.47955877777147 -3.00000000000006 
	-49.6569021851201 2.49534711178703 -3.00000000000006 
	-49.819179920129 2.4996673565592 -2.98498821526269 
	-49.9870405016303 2.49999370339604 -2.95210831290876 
	-49.9935211328496 2.5 -2.95081223600239 
	-50 2.5 -2.94948974278324 
	0.001 
	cone -49.5 20 -0.5 0 -1 -3.49148133884313e-15 2.5 0 0 1 0 1 0 
	cone -50 -7.5 0 0 0 -1 7.07106781186547 7.07106781186547 0 1 -0 -1 0 
	nullbs 
	nullbs 
	} #
coedge $-1 $252 $251 $403 $404 1 $253 $-1 #
edge $-1 $254 $405 $322 $319 0 #
point $-1 -50 2.5 1.94948974278312 #
coedge $-1 $406 $256 $407 $408 0 $186 $-1 #
coedge $-1 $403 $409 $256 $329 0 $111 $-1 #
edge $-1 $410 $330 $256 $151 0 #
vertex $-1 $329 $411 #
straight-curve $-1 -50 37.5 3.75 0 0 1 #
coedge $-1 $258 $412 $382 $413 0 $186 $-1 #
vertex $-1 $307 $414 #
straight-curve $-1 -30 37.5 0 1 0 -0 #
face $-1 $415 $262 $2 $-1 $215 forward single #
face $-1 $416 $417 $2 $-1 $418 forward single #
loop $-1 $-1 $419 $266 #
straight-curve $-1 80 37.5 0 0 0 -1 #
point $-1 80 37.5 15 #
point $-1 80 37.5 -15 #
coedge $-1 $372 $279 $274 $342 0 $350 $-1 #
edge $-1 $281 $343 $274 $420 0 #
vertex $-1 $373 $421 #
straight-curve $-1 20 12.5 -15 0 1 -0 #
plane-surface $-1 20 25 0 -1 0 0 0 0 1 0 #
coedge $-1 $422 $278 $423 $424 0 $111 $-1 #
coedge $-1 $425 $426 $278 $348 1 $427 $-1 #
edge $-1 $351 $428 $347 $429 0 #
coedge $-1 $279 $372 $425 $430 0 $350 $-1 #
loop $-1 $-1 $349 $431 #
vertex $-1 $280 $432 #
straight-curve $-1 0 12.5 15 -1 0 0 #
point $-1 20 12.5 15 #
coedge $-1 $283 $433 $434 $435 0 $111 $-1 #
coedge $-1 $436 $437 $283 $356 1 $438 $-1 #
edge $-1 $439 $360 $283 $440 0 #
coedge $-1 $367 $284 $437 $441 0 $359 $-1 #
coedge $-1 $284 $367 $286 $362 0 $359 $-1 #
loop $-1 $-1 $357 $415 #
vertex $-1 $441 $442 #
straight-curve $-1 0 -37.5 15 1 0 0 #
edge $-1 $364 $287 $358 $443 0 #
point $-1 40 -37.5 15 #
vertex $-1 $362 $444 #
straight-curve $-1 40 -8.75 -15 0 -1 0 #
coedge $-1 $445 $291 $446 $447 0 $165 $-1 #
coedge $-1 $358 $357 $291 $368 1 $359 $-1 #
edge $-1 $364 $448 $367 $449 0 #
straight-curve $-1 80 0 15 0 1 0 #
plane-surface $-1 80 0 0 -1 0 0 0 -0 1 0 #
coedge $-1 $297 $450 $451 $452 0 $165 $-1 #
coedge $-1 $349 $341 $297 $373 1 $350 $-1 #
edge $-1 $453 $343 $297 $454 0 #
face $-1 $294 $455 $2 $-1 $456 reversed single #
loop $-1 $-1 $457 $298 #
plane-surface $-1 -40 -17.5 0 -1 0 0 0 0 1 0 #
face $-1 $458 $459 $2 $-1 $460 reversed single #
loop $-1 $-1 $461 $301 #
plane-surface $-1 -7 15 0 1 0 0 0 0 -1 0 #
loop $-1 $-1 $462 $234 #
coedge $-1 $381 $381 $463 $464 1 $302 $-1 #
coedge $-1 $465 $304 $332 $413 1 $235 $-1 #
coedge $-1 $304 $465 $309 $389 1 $235 $-1 #
edge $-1 $390 $386 $304 $466 0 #
edge $-1 $333 $312 $308 $467 0 #
vertex $-1 $413 $468 #
ellipse-curve $-1 -70.5 37.5 -0.499999999999939 0 -1 0 2.5 0 0 1 #
coedge $-1 $314 $309 $469 $470 1 $95 $-1 #
edge $-1 $390 $471 $309 $472 0 #
vertex $-1 $384 $473 #
ellipse-curve $-1 -70.5 2.5 -0.500000000000061 -0 1 -0 2.5 0 0 1 #
point $-1 -68.0505102572168 2.5 -3.86570753712303e-17 #
coedge $-1 $474 $475 $314 $394 0 $455 $-1 #
edge $-1 $397 $476 $393 $477 0 #
coedge $-1 $478 $315 $475 $479 0 $165 $-1 #
coedge $-1 $315 $480 $317 $400 0 $165 $-1 #
vertex $-1 $394 $481 #
straight-curve $-1 -30 2.5 -15 -1 0 0 #
coedge $-1 $402 $317 $457 $482 1 $299 $-1 #
edge $-1 $483 $318 $396 $484 0 #
point $-1 -50 2.5 -15 #
coedge $-1 $322 $399 $485 $486 1 $299 $-1 #
coedge $-1 $485 $328 $324 $404 0 $111 $-1 #
edge $-1 $330 $405 $403 $487 0 #
vertex $-1 $486 $488 #
coedge $-1 $489 $327 $478 $490 1 $186 $-1 #
coedge $-1 $491 $492 $327 $408 1 $493 $-1 #
edge $-1 $410 $494 $327 $495 0 #
coedge $-1 $328 $496 $491 $497 0 $111 $-1 #
vertex $-1 $408 $498 #
point $-1 -50 37.5 15 #
coedge $-1 $332 $489 $499 $500 1 $186 $-1 #
edge $-1 $501 $386 $332 $502 0 #
point $-1 -68.0505102572168 37.5 3.86570753712303e-17 #
face $-1 $503 $359 $2 $-1 $504 reversed single #
face $-1 $505 $506 $2 $-1 $507 forward single #
loop $-1 $-1 $508 $336 #
plane-surface $-1 0 -32.5 0 0 0 1 1 0 0 0 #
coedge $-1 $499 $469 $465 $509 0 $337 $-1 #
straight-curve $-1 20 12.5 0 0 0 -1 #
point $-1 20 12.5 -15 #
coedge $-1 $496 $346 $510 $511 0 $111 $-1 #
coedge $-1 $512 $513 $346 $424 1 $514 $-1 #
edge $-1 $428 $515 $423 $516 0 #
coedge $-1 $451 $347 $349 $430 1 $427 $-1 #
coedge $-1 $347 $451 $512 $517 1 $427 $-1 #
loop $-1 $-1 $425 $458 #
vertex $-1 $348 $518 #
straight-curve $-1 7 15 15 0 1 0 #
edge $-1 $453 $351 $349 $519 0 #
face $-1 $520 $350 $2 $-1 $521 forward single #
point $-1 7 12.5 15 #
coedge $-1 $354 $522 $523 $524 0 $111 $-1 #
coedge $-1 $525 $526 $354 $435 1 $527 $-1 #
edge $-1 $528 $439 $354 $529 0 #
coedge $-1 $446 $355 $526 $530 1 $438 $-1 #
coedge $-1 $355 $446 $357 $441 1 $438 $-1 #
loop $-1 $-1 $437 $531 #
vertex $-1 $435 $532 #
straight-curve $-1 30 -15 15 0 -1 0 #
edge $-1 $360 $448 $357 $533 0 #
point $-1 30 -37.5 15 #
straight-curve $-1 40 -37.5 0 -0 0 1 #
point $-1 40 -37.5 -15 #
coedge $-1 $534 $366 $535 $536 0 $165 $-1 #
coedge $-1 $437 $436 $366 $447 1 $438 $-1 #
edge $-1 $448 $537 $366 $538 0 #
vertex $-1 $368 $539 #
straight-curve $-1 0 -37.5 -15 -1 0 0 #
coedge $-1 $371 $540 $541 $542 0 $165 $-1 #
coedge $-1 $426 $425 $371 $452 1 $427 $-1 #
edge $-1 $543 $453 $451 $544 0 #
vertex $-1 $373 $545 #
straight-curve $-1 0 12.5 -15 1 0 0 #
loop $-1 $-1 $393 $374 #
plane-surface $-1 -80 0 0 1 0 0 0 0 -1 0 #
coedge $-1 $546 $547 $399 $482 0 $375 $-1 #
face $-1 $548 $427 $2 $-1 $549 reversed single #
loop $-1 $514 $463 $377 #
plane-surface $-1 0 17.5 0 0 -1 0 0 0 -1 0 #
coedge $-1 $550 $510 $513 $551 0 $378 $-1 #
coedge $-1 $462 $462 $552 $553 1 $380 $-1 #
coedge $-1 $463 $463 $381 $464 0 $459 $-1 #
edge $-1 $554 $554 $463 $555 0 #
coedge $-1 $383 $382 $419 $509 1 $235 $-1 #
straight-curve $-1 -70 20 1.94948974278318 -0 1 3.49148133884313e-15 #
straight-curve $-1 -68.0505102572168 20 0 0 -1 -3.49148133884313e-15 #
point $-1 -70 37.5 1.94948974278324 #
coedge $-1 $419 $556 $388 $470 0 $337 $-1 #
edge $-1 $476 $471 $469 $557 0 #
vertex $-1 $470 $558 #
straight-curve $-1 -70 2.5 3.75 -0 0 1 #
point $-1 -70 2.5 1.94948974278312 #
coedge $-1 $559 $393 $556 $560 1 $455 $-1 #
coedge $-1 $393 $559 $395 $479 1 $455 $-1 #
vertex $-1 $560 $561 #
straight-curve $-1 -80 2.5 0 -0 0 1 #
coedge $-1 $562 $395 $406 $490 0 $165 $-1 #
edge $-1 $397 $563 $475 $564 0 #
coedge $-1 $396 $565 $546 $566 0 $165 $-1 #
point $-1 -80 2.5 -15 #
edge $-1 $567 $483 $457 $568 0 #
vertex $-1 $400 $569 #
ellipse-curve $-1 -50 -7.5 -15 0 0 1 7.07106781186547 7.07106781186547 0 1 #
coedge $-1 $570 $403 $402 $486 0 $111 $-1 #
edge $-1 $405 $567 $485 $571 0 #
straight-curve $-1 -50 10 15 0 -1 0 #
point $-1 -50 2.5 15 #
coedge $-1 $412 $406 $559 $572 1 $186 $-1 #
edge $-1 $563 $494 $406 $273 0 #
coedge $-1 $573 $407 $409 $497 1 $493 $-1 #
coedge $-1 $407 $573 $562 $574 1 $493 $-1 #
loop $-1 $-1 $407 $520 #
vertex $-1 $490 $575 #
straight-curve $-1 -20 37.5 0 0 0 -1 #
coedge $-1 $409 $422 $576 $577 0 $111 $-1 #
edge $-1 $578 $410 $409 $579 0 #
point $-1 -20 37.5 15 #
coedge $-1 $556 $419 $412 $500 0 $337 $-1 #
edge $-1 $501 $580 $412 $151 0 #
vertex $-1 $413 $581 #
straight-curve $-1 -70 37.5 3.75 0 0 -1 #
face $-1 $582 $583 $2 $-1 $584 reversed single #
plane-surface $-1 0 -37.5 0 0 1 -0 -0 0 1 0 #
face $-1 $585 $586 $2 $-1 $587 forward single #
loop $-1 $588 $552 $416 #
plane-surface $-1 0 -27.5 7.5 0 -1 0 0 0 -1 0 #
coedge $-1 $589 $590 $591 $592 1 $417 $-1 #
edge $-1 $471 $501 $419 $593 0 #
coedge $-1 $461 $594 $422 $511 1 $378 $-1 #
edge $-1 $515 $595 $510 $596 0 #
coedge $-1 $541 $423 $426 $517 0 $514 $-1 #
coedge $-1 $423 $541 $461 $551 1 $514 $-1 #
loop $-1 $-1 $512 $377 #
vertex $-1 $424 $597 #
straight-curve $-1 0 17.5 15 -1 0 0 #
edge $-1 $428 $543 $426 $598 0 #
point $-1 7 17.5 15 #
straight-curve $-1 7 12.5 0 0 -0 1 #
face $-1 $276 $493 $2 $-1 $599 forward single #
plane-surface $-1 0 12.5 0 0 1 0 0 0 1 0 #
coedge $-1 $433 $600 $601 $602 0 $111 $-1 #
coedge $-1 $603 $604 $433 $524 1 $586 $-1 #
edge $-1 $605 $528 $433 $606 0 #
coedge $-1 $535 $434 $604 $607 1 $527 $-1 #
coedge $-1 $434 $535 $436 $530 0 $527 $-1 #
loop $-1 $-1 $525 $608 #
vertex $-1 $435 $609 #
ellipse-curve $-1 25 -22.5 15 -0 -0 -1 5 0 0 1 #
edge $-1 $537 $439 $436 $610 1 #
face $-1 $335 $438 $2 $-1 $611 forward single #
point $-1 30 -22.5 15 #
straight-curve $-1 30 -37.5 0 -0 0 -1 #
coedge $-1 $612 $445 $613 $614 0 $165 $-1 #
coedge $-1 $526 $525 $445 $536 1 $527 $-1 #
edge $-1 $537 $615 $445 $616 0 #
vertex $-1 $536 $617 #
straight-curve $-1 30 -15 -15 0 1 -0 #
point $-1 30 -37.5 -15 #
coedge $-1 $450 $618 $550 $619 0 $165 $-1 #
coedge $-1 $513 $512 $450 $542 1 $514 $-1 #
edge $-1 $620 $543 $541 $621 0 #
vertex $-1 $452 $622 #
straight-curve $-1 7 15 -15 0 -1 0 #
point $-1 7 12.5 -15 #
coedge $-1 $623 $457 $480 $566 1 $375 $-1 #
coedge $-1 $457 $623 $570 $624 1 $375 $-1 #
face $-1 $431 $625 $2 $-1 $521 forward single #
plane-surface $-1 7 15 0 -1 0 0 0 0 1 0 #
coedge $-1 $594 $461 $540 $619 1 $378 $-1 #
edge $-1 $515 $620 $513 $626 0 #
coedge $-1 $552 $552 $462 $553 0 $506 $-1 #
edge $-1 $627 $627 $552 $628 0 #
vertex $-1 $464 $629 #
ellipse-curve $-1 0 17.5 5.00000000000007 0 -1 0 2.5 0 0 1 #
coedge $-1 $469 $499 $474 $560 0 $337 $-1 #
straight-curve $-1 -30 2.5 15 1 0 -0 #
point $-1 -70 2.5 15 #
coedge $-1 $475 $474 $489 $572 0 $455 $-1 #
edge $-1 $580 $476 $474 $630 0 #
point $-1 -80 2.5 15 #
coedge $-1 $618 $478 $492 $574 0 $165 $-1 #
vertex $-1 $490 $631 #
straight-curve $-1 -80 0 -15 0 1 0 #
coedge $-1 $480 $632 $633 $634 0 $165 $-1 #
edge $-1 $635 $483 $480 $636 0 #
vertex $-1 $486 $637 #
straight-curve $-1 -40 -7.5 0 0 0 -1 #
point $-1 -40 -7.5 -15 #
coedge $-1 $638 $485 $547 $624 0 $111 $-1 #
ellipse-curve $-1 -50 -7.5 15 -0 -0 -1 7.07106781186547 7.07106781186547 0 1 #
edge $-1 $580 $563 $489 $639 0 #
coedge $-1 $492 $491 $640 $641 0 $493 $-1 #
edge $-1 $494 $642 $562 $643 0 #
point $-1 -20 37.5 -15 #
coedge $-1 $644 $640 $496 $577 1 $625 $-1 #
edge $-1 $595 $578 $496 $352 0 #
vertex $-1 $577 $645 #
straight-curve $-1 -20 12.5 15 0 1 0 #
vertex $-1 $500 $646 #
point $-1 -70 37.5 15 #
face $-1 $647 $648 $2 $-1 $649 forward single #
loop $-1 $-1 $650 $503 #
cone-surface $-1 -25 -22.5 0 0 0 1 5 0 0 1 0 1 0 #
face $-1 $608 $651 $2 $-1 $504 reversed single #
loop $-1 $-1 $603 $505 #
plane-surface $-1 20 -30 0 1 0 0 0 0 -1 0 #
loop $-1 $-1 $652 $416 #
coedge $-1 $653 $508 $654 $655 1 $417 $-1 #
coedge $-1 $508 $653 $656 $657 1 $417 $-1 #
coedge $-1 $658 $603 $508 $592 0 $586 $-1 #
edge $-1 $659 $660 $591 $661 0 #
straight-curve $-1 -70 10 15 0 1 0 #
coedge $-1 $510 $550 $644 $662 1 $378 $-1 #
vertex $-1 $577 $663 #
straight-curve $-1 -7 15 15 0 -1 0 #
point $-1 -7 17.5 15 #
straight-curve $-1 7 17.5 0 0 0 -1 #
plane-surface $-1 -20 25 0 1 0 0 0 0 -1 0 #
coedge $-1 $522 $664 $665 $666 0 $111 $-1 #
coedge $-1 $667 $652 $522 $602 1 $588 $-1 #
edge $-1 $668 $605 $522 $669 0 #
coedge $-1 $591 $523 $652 $670 0 $586 $-1 #
coedge $-1 $523 $613 $525 $607 0 $586 $-1 #
vertex $-1 $602 $671 #
straight-curve $-1 20 -15 15 0 1 0 #
edge $-1 $615 $528 $604 $672 1 #
face $-1 $531 $527 $2 $-1 $673 reversed single #
point $-1 20 -22.5 15 #
straight-curve $-1 30 -22.5 0 0 0 -1 #
plane-surface $-1 30 -30 0 -1 0 0 0 0 1 0 #
coedge $-1 $674 $534 $675 $676 0 $165 $-1 #
coedge $-1 $604 $658 $534 $614 1 $586 $-1 #
edge $-1 $615 $677 $534 $678 0 #
vertex $-1 $536 $679 #
ellipse-curve $-1 25 -22.5 -15 0 0 1 5 0 0 1 #
point $-1 30 -22.5 -15 #
coedge $-1 $540 $562 $680 $681 0 $165 $-1 #
edge $-1 $682 $620 $550 $683 0 #
vertex $-1 $542 $684 #
straight-curve $-1 0 17.5 -15 1 0 0 #
point $-1 7 17.5 -15 #
coedge $-1 $547 $546 $685 $686 1 $375 $-1 #
edge $-1 $567 $687 $570 $688 0 #
loop $-1 $-1 $644 $548 #
straight-curve $-1 -7 17.5 0 0 0 -1 #
vertex $-1 $553 $689 #
ellipse-curve $-1 0 -27.5 4.99999999999991 -0 1 -0 2.5 0 0 1 #
point $-1 -2.5 17.5 5.00000000000009 #
straight-curve $-1 -80 0 15 0 -1 0 #
point $-1 -80 37.5 -15 #
coedge $-1 $565 $690 $691 $692 0 $165 $-1 #
coedge $-1 $693 $685 $565 $634 1 $694 $-1 #
edge $-1 $695 $635 $633 $449 0 #
vertex $-1 $634 $696 #
straight-curve $-1 -40 -8.75 -15 0 1 -0 #
point $-1 -40 -7.5 15 #
coedge $-1 $697 $570 $698 $699 0 $111 $-1 #
straight-curve $-1 -80 37.5 0 0 0 -1 #
coedge $-1 $576 $680 $573 $641 1 $625 $-1 #
edge $-1 $578 $642 $573 $700 0 #
vertex $-1 $681 $701 #
straight-curve $-1 -20 12.5 -15 0 -1 0 #
coedge $-1 $680 $576 $594 $662 0 $625 $-1 #
point $-1 -20 12.5 15 #
point $-1 -80 37.5 15 #
face $-1 $702 $703 $2 $-1 $704 forward single #
loop $-1 $-1 $705 $582 #
plane-surface $-1 -30 -30 0 1 0 0 0 0 -1 0 #
coedge $-1 $706 $707 $705 $708 1 $583 $-1 #
loop $-1 $-1 $656 $585 #
coedge $-1 $601 $654 $603 $670 1 $588 $-1 #
coedge $-1 $590 $589 $709 $710 1 $417 $-1 #
coedge $-1 $652 $667 $589 $655 0 $588 $-1 #
edge $-1 $711 $659 $654 $712 0 #
coedge $-1 $713 $714 $590 $657 0 $651 $-1 #
edge $-1 $660 $715 $656 $716 0 #
coedge $-1 $613 $591 $714 $717 1 $586 $-1 #
vertex $-1 $592 $718 #
vertex $-1 $717 $719 #
straight-curve $-1 20 -31.25 0 0 -1 0 #
edge $-1 $595 $682 $644 $720 0 #
point $-1 -7 12.5 15 #
coedge $-1 $600 $697 $707 $721 0 $111 $-1 #
coedge $-1 $722 $723 $600 $666 1 $703 $-1 #
edge $-1 $724 $668 $600 $725 0 #
coedge $-1 $654 $601 $723 $726 1 $588 $-1 #
vertex $-1 $666 $727 #
straight-curve $-1 0 -27.5 15 1 0 -0 #
edge $-1 $605 $659 $603 $728 0 #
point $-1 20 -27.5 15 #
straight-curve $-1 20 -22.5 0 0 0 -1 #
cone-surface $-1 25 -22.5 0 0 0 1 5 0 0 1 0 1 0 #
coedge $-1 $690 $612 $729 $730 0 $165 $-1 #
coedge $-1 $714 $713 $612 $676 1 $651 $-1 #
edge $-1 $677 $731 $675 $449 0 #
vertex $-1 $614 $732 #
straight-curve $-1 20 -15 -15 0 -1 0 #
point $-1 20 -22.5 -15 #
coedge $-1 $640 $644 $618 $681 1 $625 $-1 #
edge $-1 $642 $682 $618 $454 0 #
vertex $-1 $681 $733 #
straight-curve $-1 -7 15 -15 0 1 0 #
point $-1 -7 17.5 -15 #
coedge $-1 $633 $698 $623 $686 0 $694 $-1 #
edge $-1 $687 $635 $685 $734 0 #
vertex $-1 $686 $735 #
straight-curve $-1 -40 -8.75 15 0 -1 0 #
point $-1 2.5 -27.5 4.99999999999991 #
coedge $-1 $632 $674 $706 $736 0 $165 $-1 #
coedge $-1 $705 $737 $632 $692 1 $648 $-1 #
edge $-1 $738 $695 $632 $739 0 #
coedge $-1 $698 $633 $737 $740 0 $694 $-1 #
loop $-1 $-1 $693 $702 #
vertex $-1 $740 $741 #
point $-1 -40 -37.5 -15 #
coedge $-1 $664 $638 $742 $743 0 $111 $-1 #
coedge $-1 $685 $693 $638 $699 1 $694 $-1 #
edge $-1 $687 $744 $698 $361 0 #
straight-curve $-1 -20 12.5 0 0 0 -1 #
point $-1 -20 12.5 -15 #
face $-1 $116 $694 $2 $-1 $504 reversed single #
loop $-1 $-1 $723 $647 #
plane-surface $-1 -20 -30 0 -1 0 0 0 0 1 0 #
coedge $-1 $742 $691 $650 $708 0 $648 $-1 #
coedge $-1 $745 $650 $690 $736 1 $583 $-1 #
coedge $-1 $650 $745 $664 $721 1 $583 $-1 #
edge $-1 $738 $746 $705 $747 1 #
coedge $-1 $723 $748 $653 $710 0 $703 $-1 #
edge $-1 $715 $711 $709 $749 0 #
vertex $-1 $710 $750 #
straight-curve $-1 0 -27.5 0 1 0 0 #
coedge $-1 $675 $656 $748 $751 0 $651 $-1 #
coedge $-1 $656 $675 $658 $717 0 $651 $-1 #
vertex $-1 $710 $752 #
straight-curve $-1 0 -37.5 0 -1 0 0 #
edge $-1 $677 $660 $714 $753 0 #
point $-1 20 -27.5 0 #
point $-1 20 -37.5 0 #
straight-curve $-1 -7 12.5 0 0 0 -1 #
edge $-1 $746 $724 $664 $754 0 #
coedge $-1 $729 $665 $745 $755 1 $703 $-1 #
coedge $-1 $665 $709 $667 $726 0 $703 $-1 #
vertex $-1 $721 $756 #
straight-curve $-1 -20 -15 15 0 -1 0 #
edge $-1 $711 $668 $723 $757 0 #
point $-1 -20 -27.5 15 #
straight-curve $-1 20 -27.5 3.75 0 0 -1 #
coedge $-1 $748 $722 $674 $730 1 $703 $-1 #
edge $-1 $731 $758 $674 $759 0 #
vertex $-1 $676 $760 #
point $-1 20 -37.5 -15 #
point $-1 -7 12.5 -15 #
straight-curve $-1 -40 -37.5 0 -0 0 -1 #
point $-1 -40 -37.5 15 #
edge $-1 $758 $738 $690 $761 0 #
coedge $-1 $691 $742 $693 $740 1 $648 $-1 #
vertex $-1 $736 $762 #
straight-curve $-1 -30 -15 -15 0 -1 0 #
edge $-1 $695 $744 $693 $763 0 #
point $-1 -30 -37.5 -15 #
coedge $-1 $737 $705 $697 $743 1 $648 $-1 #
edge $-1 $744 $746 $697 $764 0 #
vertex $-1 $699 $765 #
coedge $-1 $707 $706 $722 $755 0 $583 $-1 #
vertex $-1 $721 $766 #
straight-curve $-1 -30 -22.5 0 0 0 -1 #
coedge $-1 $709 $729 $713 $751 1 $703 $-1 #
straight-curve $-1 -20 -31.25 0 0 1 -0 #
point $-1 -20 -27.5 0 #
edge $-1 $715 $731 $713 $767 0 #
point $-1 -20 -37.5 0 #
straight-curve $-1 20 -37.5 0 -0 0 1 #
ellipse-curve $-1 -25 -22.5 15 -0 -0 -1 5 0 0 1 #
edge $-1 $758 $724 $722 $768 1 #
point $-1 -20 -22.5 15 #
straight-curve $-1 -20 -27.5 3.75 0 0 1 #
vertex $-1 $736 $769 #
straight-curve $-1 -20 -15 -15 0 1 -0 #
point $-1 -20 -37.5 -15 #
ellipse-curve $-1 -25 -22.5 -15 0 0 1 5 0 0 1 #
point $-1 -30 -22.5 -15 #
straight-curve $-1 -30 -37.5 0 -0 0 1 #
straight-curve $-1 -30 -15 15 0 1 0 #
point $-1 -30 -37.5 15 #
point $-1 -30 -22.5 15 #
straight-curve $-1 -20 -37.5 0 -0 0 -1 #
straight-curve $-1 -20 -22.5 0 0 0 -1 #
point $-1 -20 -22.5 -15 #
