600 0 1 0           
89 GICL ACIS Healer - Source: /gicl/data5/repository/UMD/good-bracket/good-bracket.sat - 6 0 18 ACIS 6.0.3 Solaris 24 Sun Apr 14 00:34:33 2002 
1 9.999999999999999547e-07 1.000000000000000036e-10 
body $-1 $1 $-1 $-1 #
lump $-1 $-1 $2 $0 #
shell $-1 $-1 $-1 $3 $-1 $1 #
face $-1 $4 $5 $2 $-1 $6 reversed single #
face $-1 $7 $8 $2 $-1 $9 forward single #
loop $-1 $-1 $10 $3 #
cone-surface $-1 49.5 20 -0.5 0 -1 -3.491481338843129805e-15 2.5 0 0 1 I I 0 1 2.5 forward I I I I #
face $-1 $11 $12 $2 $-1 $13 reversed single #
loop $-1 $-1 $14 $4 #
plane-surface $-1 50 20 7.5 1 0 0 0 0 -1 forward_v I I I I #
coedge $-1 $15 $16 $17 $18 reversed $5 $-1 #
face $-1 $19 $20 $2 $-1 $21 reversed single #
loop $-1 $-1 $22 $7 #
plane-surface $-1 0 37.5 0 0 -1 0 0 0 -1 forward_v I I I I #
coedge $-1 $23 $24 $25 $26 forward $8 $-1 #
coedge $-1 $25 $10 $22 $27 reversed $5 $-1 #
coedge $-1 $10 $28 $29 $30 reversed $5 $-1 #
coedge $-1 $31 $32 $10 $18 forward $33 $-1 #
edge $-1 $34 -17.5 $35 17.5 $17 $36 forward 7 unknown #
face $-1 $37 $33 $2 $-1 $38 forward single #
loop $-1 $-1 $39 $11 #
cone-surface $-1 70.5 20 -0.5 0 -1 -3.491481338843129805e-15 2.5 0 0 1 I I 0 1 2.5 forward I I I I #
coedge $-1 $40 $41 $15 $27 forward $12 $-1 #
coedge $-1 $42 $14 $41 $43 reversed $8 $-1 #
coedge $-1 $14 $42 $44 $45 reversed $8 $-1 #
coedge $-1 $28 $15 $14 $26 reversed $5 $-1 #
edge $-1 $46 -17.5 $47 17.5 $14 $48 forward 7 unknown #
edge $-1 $47 1.3694384060045659 $34 6.484543227969891355 $22 $49 forward 7 unknown #
coedge $-1 $16 $25 $50 $51 reversed $5 $-1 #
coedge $-1 $52 $53 $16 $30 forward $54 $-1 #
edge $-1 $35 -0.2013579207903529178 $55 1.3694384060045659 $29 $56 forward 7 unknown #
coedge $-1 $57 $17 $53 $58 reversed $33 $-1 #
coedge $-1 $17 $57 $40 $59 reversed $33 $-1 #
loop $-1 $-1 $17 $19 #
vertex $-1 $18 $60 #
vertex $-1 $58 $61 #
straight-curve $-1 51.94948974278320009 20 0 0 -1 -3.491481338843129805e-15 I I #
face $-1 $62 $63 $2 $-1 $64 reversed single #
plane-surface $-1 60 20 0 0 0 1 1 0 0 forward_v I I I I #
coedge $-1 $65 $66 $67 $68 reversed $20 $-1 #
coedge $-1 $69 $22 $32 $59 forward $12 $-1 #
coedge $-1 $22 $70 $23 $43 forward $12 $-1 #
coedge $-1 $24 $23 $71 $72 reversed $8 $-1 #
edge $-1 $73 -11.25 $47 1.800510257216759946 $41 $74 forward 7 unknown #
coedge $-1 $75 $50 $24 $45 forward $76 $-1 #
edge $-1 $46 1.949489742783119928 $77 15 $44 $78 reversed 7 unknown #
vertex $-1 $26 $79 #
vertex $-1 $43 $80 #
straight-curve $-1 50 20 1.949489742783180102 -0 1 3.491481338843129805e-15 I I #
ellipse-curve $-1 49.5 37.5 -0.4999999999999389932 0 -1 0 2.5 0 0 1 I I #
coedge $-1 $44 $81 $28 $51 forward $76 $-1 #
edge $-1 $55 -4.287666661830289883 $46 4.287701586844280044 $50 $82 forward 7 unknown #
coedge $-1 $83 $29 $81 $84 forward $54 $-1 #
coedge $-1 $29 $85 $31 $58 forward $54 $-1 #
loop $-1 $-1 $29 $86 #
vertex $-1 $30 $87 #
ellipse-curve $-1 49.5 2.5 -0.5000000000000609512 -0 1 -0 2.5 0 0 1 I I #
coedge $-1 $32 $31 $88 $89 forward $33 $-1 #
edge $-1 $90 -8.050510257216799914 $35 8.050510257216799914 $53 $91 forward 7 unknown #
edge $-1 $34 21.94948974278320009 $92 38.05051025721679991 $40 $93 forward 7 unknown #
point $-1 51.94948974278320009 37.5 3.865707537115459897e-17 #
point $-1 51.94948974278320009 2.5 -3.865707537115459897e-17 #
face $-1 $94 $95 $2 $-1 $96 forward single #
loop $-1 $-1 $97 $37 #
cone-surface $-1 -49.5 20 -0.5 0 -1 -3.491481338843129805e-15 2.5 0 0 1 I I 0 1 2.5 forward I I I I #
coedge $-1 $88 $39 $69 $98 reversed $20 $-1 #
coedge $-1 $39 $88 $85 $99 reversed $20 $-1 #
coedge $-1 $100 $101 $39 $68 forward $102 $-1 #
edge $-1 $103 -17.5 $104 17.5 $67 $105 forward 7 unknown #
coedge $-1 $106 $40 $65 $98 forward $12 $-1 #
coedge $-1 $41 $107 $108 $109 reversed $12 $-1 #
coedge $-1 $108 $110 $42 $72 forward $111 $-1 #
edge $-1 $77 -7.5 $73 27.5 $71 $112 forward 7 unknown #
vertex $-1 $43 $113 #
straight-curve $-1 50 37.5 3.75 0 0 -1 I I #
coedge $-1 $114 $44 $110 $115 reversed $76 $-1 #
loop $-1 $-1 $50 $116 #
vertex $-1 $115 $117 #
straight-curve $-1 50 2.5 0 0 0 -1 I I #
point $-1 50 2.5 1.949489742783119928 #
point $-1 50 37.5 1.949489742783240054 #
coedge $-1 $50 $118 $52 $84 reversed $76 $-1 #
intcurve-curve $-1 forward { surfintcur full nubs 3 open 21 
	-4.287666661830289883 3 -4.268736368915820201 2 -3.79744032483958005 2 -3.321436327982540071 2 -2.845432331125509862 2 
	-2.369428334268469882 2 -1.893424337411450109 2 -1.420068253058579977 2 -0.9467121687057229451 2 -0.473356084352860973 2 
	0 3 0.4743125189672329767 2 0.9486250379344649541 2 1.422937556901699985 2 1.897250075868949892 2 
	2.372298398180599843 2 2.847346720492260008 2 3.322395042803909959 2 3.797443365115570124 2 4.269363011031190425 2 
	4.287701586844280044 3 
	50 2.5 -2.949489742783240054 
	49.99352113284889754 2.5 -2.950812236002529954 
	49.98704050163090074 2.49999370339603999 -2.952108312908639842 
	49.81917992012890295 2.499667356559200027 -2.984988215262700084 
	49.65690218512000342 2.495347111787030059 -3.000000000000059952 
	49.34153046016089661 2.479558777771469824 -3.000000000000059952 
	49.17807955274309961 2.46749754821099021 -2.984692196947070109 
	48.85371329984519662 2.435420846458610011 -2.92066965715729987 
	48.69279331545799749 2.415414959067270217 -2.871973622769480095 
	48.38473173095839996 2.369911425546059824 -2.743661767168160015 
	48.23733806828759896 2.344402173577159854 -2.663948096715869962 
	47.96503046190210284 2.291737854939309926 -2.480114904630540185 
	47.84011886353869869 2.264619627623130071 -2.375981357311950148 
	47.61965548464529974 2.213222948731480066 -2.154854675800280006 
	47.51629527812450249 2.187111653898819785 -2.030257939921280119 
	47.3337596596348007 2.138468954608180095 -1.758640763937300067 
	47.25457066529479988 2.115977686528269786 -1.61162226544202003 
	47.12711402880410105 2.078670867781910125 -1.304405848986510019 
	47.07874463624609973 2.063857681121469945 -1.14394459270389004 
	47.01517919788390287 2.044210361539000154 -0.8206364845946539921 
	47 2.039392014169460143 -0.6577853614510410507 
	47 2.039392014169460143 -0.5000000000000629496 
	47 2.039392014169460143 -0.3418958270109849762 
	47.01524048884390083 2.044229974985510179 -0.1787276031803959886 
	47.07905020928740214 2.06395145710849004 0.1451727622863039913 
	47.12760244534940313 2.078819032304600078 0.3059092225992229852 
	47.25552886865629887 2.116252891611249964 0.613602052774415041 
	47.33500550762980197 2.13881678176587009 0.7608229957441220437 
	47.5181950451896995 2.187601806542270211 1.032750762878140049 
	47.62192167322290004 2.213782569217709995 1.157455579155600045 
	47.8427155474212995 2.265192878441399937 1.378249453353969978 
	47.96751886226559947 2.292252348526489847 1.482015568893829904 
	48.23951586973939953 2.344789548759980136 1.665193735177159962 
	48.38670727968810326 2.370230679592079781 1.744619670346220008 
	48.69429321095760343 2.415608748250989812 1.872461754439000092 
	48.85493862952429822 2.43555725112245014 1.920975088298080058 
	49.17871403869779812 2.467544973676830011 1.984753484948160063 
	49.34184861989579929 2.479574705680560154 1.999999999999940048 
	49.65710979240309797 2.49535750515101995 1.999999999999940048 
	49.819595143088101 2.499677998087209918 1.984948508317349924 
	49.98744695767970114 2.499994092138369872 1.952026998521299905 
	49.99372430858409899 2.5 1.950770762929129987 
	50 2.5 1.949489742783119928 
	0.001000000000000000021 
	cone 49.5 20 -0.5 0 -1 -3.491481338843129805e-15 2.5 0 0 1 I I 0 1 2.5 forward I I I I 
	cone 50 -7.5 0 0 0 -1 -7.071067811865470176 7.071067811865470176 0 1 I I -0 -1 9.999999999999992895 forward I I I I 
	nullbs 
	nullbs 
	I I 
	0 
	0 
	0 
	} I I #
coedge $-1 $119 $52 $120 $121 reversed $54 $-1 #
edge $-1 $55 2.949489742783240054 $122 15 $52 $78 forward 7 unknown #
coedge $-1 $53 $123 $66 $99 forward $54 $-1 #
face $-1 $124 $54 $2 $-1 $125 forward single #
point $-1 50 2.5 -2.949489742783240054 #
coedge $-1 $66 $65 $57 $89 reversed $20 $-1 #
edge $-1 $90 -17.5 $92 17.5 $57 $126 forward 7 unknown #
vertex $-1 $99 $127 #
straight-curve $-1 60 2.5 0 -1 0 0 I I #
vertex $-1 $59 $128 #
straight-curve $-1 30 37.5 0 1 0 -0 I I #
face $-1 $129 $130 $2 $-1 $131 forward single #
loop $-1 $-1 $132 $62 #
plane-surface $-1 -60 2.5 0 0 -1 0 0 0 -1 forward_v I I I I #
coedge $-1 $133 $134 $135 $136 reversed $63 $-1 #
edge $-1 $92 2.940234732799487993 $103 8.05533955476481367 $69 $137 forward 7 unknown #
edge $-1 $104 -1.772154247585227216 $90 3.342950574380145756 $85 $138 forward 7 unknown #
coedge $-1 $139 $67 $123 $140 reversed $102 $-1 #
coedge $-1 $67 $139 $106 $141 reversed $102 $-1 #
loop $-1 $-1 $67 $142 #
vertex $-1 $68 $143 #
vertex $-1 $140 $144 #
straight-curve $-1 70 20 1.949489742783180102 0 -1 -3.491481338843129805e-15 I I #
coedge $-1 $145 $69 $101 $141 forward $12 $-1 #
coedge $-1 $70 $146 $147 $148 forward $12 $-1 #
coedge $-1 $149 $71 $70 $109 forward $111 $-1 #
edge $-1 $73 -50 $150 -20 $70 $151 forward 7 unknown #
coedge $-1 $71 $152 $75 $115 forward $111 $-1 #
loop $-1 $-1 $149 $153 #
straight-curve $-1 50 10 15 0 1 0 I I #
point $-1 50 37.5 15 #
coedge $-1 $118 $75 $154 $155 reversed $76 $-1 #
edge $-1 $156 -0.785398163397448279 $77 0.785398163397448279 $110 $157 forward 7 unknown #
face $-1 $86 $76 $2 $-1 $158 reversed single #
point $-1 50 2.5 15 #
coedge $-1 $81 $114 $159 $160 reversed $76 $-1 #
coedge $-1 $161 $83 $162 $163 reversed $54 $-1 #
coedge $-1 $159 $164 $83 $121 forward $165 $-1 #
edge $-1 $166 -50 $122 -20 $120 $167 forward 7 unknown #
vertex $-1 $160 $168 #
coedge $-1 $85 $161 $100 $140 forward $54 $-1 #
face $-1 $169 $170 $2 $-1 $171 forward single #
plane-surface $-1 60 2.5 0 0 -1 0 0 0 -1 forward_v I I I I #
straight-curve $-1 68.05051025721679991 20 0 -0 1 3.491481338843129805e-15 I I #
point $-1 68.05051025721679991 2.5 -3.865707537115459897e-17 #
point $-1 68.05051025721679991 37.5 3.865707537115459897e-17 #
face $-1 $172 $173 $2 $-1 $174 reversed single #
loop $-1 $-1 $175 $94 #
plane-surface $-1 -60 20 0 0 0 1 1 0 0 forward_v I I I I #
coedge $-1 $176 $177 $178 $179 forward $95 $-1 #
coedge $-1 $178 $97 $175 $180 reversed $63 $-1 #
coedge $-1 $97 $181 $182 $183 reversed $63 $-1 #
coedge $-1 $184 $185 $97 $136 forward $186 $-1 #
edge $-1 $187 2.940234732799487993 $188 8.05533955476481367 $135 $189 forward 7 unknown #
ellipse-curve $-1 70.5 37.5 -0.4999999999999389932 0 -1 0 2.5 0 0 1 I I #
ellipse-curve $-1 70.5 2.5 -0.5000000000000609512 -0 1 -0 2.5 0 0 1 I I #
coedge $-1 $101 $100 $190 $191 reversed $102 $-1 #
edge $-1 $192 -11.25 $104 1.800510257216880072 $123 $193 forward 7 unknown #
edge $-1 $103 -1.800510257216759946 $194 11.25 $106 $195 forward 7 unknown #
face $-1 $196 $102 $2 $-1 $197 forward single #
point $-1 70 37.5 1.949489742783240054 #
point $-1 70 2.5 1.949489742783119928 #
coedge $-1 $198 $106 $199 $200 reversed $12 $-1 #
coedge $-1 $107 $198 $201 $202 reversed $12 $-1 #
coedge $-1 $203 $204 $107 $148 reversed $205 $-1 #
edge $-1 $206 -15 $150 15 $107 $207 forward 7 unknown #
coedge $-1 $208 $108 $204 $209 forward $111 $-1 #
vertex $-1 $109 $210 #
straight-curve $-1 0 37.5 15 -1 0 0 I I #
coedge $-1 $110 $211 $212 $213 forward $111 $-1 #
face $-1 $214 $111 $2 $-1 $215 forward single #
coedge $-1 $212 $216 $114 $155 forward $170 $-1 #
edge $-1 $217 -15 $156 15 $154 $218 forward 7 unknown #
vertex $-1 $115 $219 #
ellipse-curve $-1 50 -7.5 15 -0 -0 -1 -7.071067811865470176 7.071067811865470176 0 1 I I #
cone-surface $-1 50 -7.5 0 0 0 -1 -7.071067811865470176 7.071067811865470176 0 1 I I 0 1 9.999999999999992895 forward I I I I #
coedge $-1 $220 $120 $118 $160 forward $165 $-1 #
edge $-1 $122 -0.785398163397448279 $217 0.785398163397448279 $159 $221 forward 7 unknown #
coedge $-1 $123 $119 $222 $223 reversed $54 $-1 #
coedge $-1 $224 $225 $119 $163 forward $226 $-1 #
edge $-1 $227 -15 $166 15 $162 $228 forward 7 unknown #
coedge $-1 $120 $201 $224 $229 forward $165 $-1 #
loop $-1 $-1 $230 $169 #
vertex $-1 $229 $231 #
straight-curve $-1 30 2.5 -15 -1 0 0 I I #
point $-1 50 2.5 -15 #
face $-1 $232 $165 $2 $-1 $233 reversed single #
loop $-1 $-1 $154 $124 #
plane-surface $-1 40 -17.5 0 1 0 0 0 0 -1 forward_v I I I I #
face $-1 $234 $235 $2 $-1 $236 forward single #
loop $-1 $-1 $237 $129 #
cone-surface $-1 -70.5 20 -0.5 0 -1 -3.491481338843129805e-15 2.5 0 0 1 I I 0 1 2.5 forward I I I I #
coedge $-1 $238 $239 $133 $180 forward $130 $-1 #
coedge $-1 $240 $132 $239 $241 forward $95 $-1 #
coedge $-1 $132 $242 $243 $244 forward $95 $-1 #
coedge $-1 $181 $133 $132 $179 reversed $63 $-1 #
edge $-1 $245 1.772154247585227438 $246 3.342950574380145756 $132 $247 forward 7 unknown #
edge $-1 $246 -17.5 $187 17.5 $175 $248 forward 7 unknown #
coedge $-1 $134 $178 $249 $250 reversed $63 $-1 #
coedge $-1 $251 $252 $134 $183 forward $253 $-1 #
edge $-1 $188 -17.5 $254 17.5 $182 $255 forward 7 unknown #
coedge $-1 $256 $135 $252 $257 forward $186 $-1 #
coedge $-1 $135 $258 $238 $259 forward $186 $-1 #
loop $-1 $-1 $135 $214 #
vertex $-1 $259 $260 #
vertex $-1 $136 $261 #
ellipse-curve $-1 -49.5 37.5 -0.4999999999999389932 0 -1 0 2.5 0 0 1 I I #
coedge $-1 $222 $199 $139 $191 forward $262 $-1 #
edge $-1 $194 -27.5 $192 7.5 $190 $263 forward 7 unknown #
vertex $-1 $191 $264 #
straight-curve $-1 70 2.5 3.75 -0 -0 -1 I I #
vertex $-1 $200 $265 #
straight-curve $-1 70 37.5 3.75 0 0 1 I I #
face $-1 $266 $253 $2 $-1 $267 forward single #
plane-surface $-1 70 20 7.5 -1 0 0 0 0 1 forward_v I I I I #
coedge $-1 $146 $145 $268 $269 forward $12 $-1 #
coedge $-1 $190 $270 $145 $200 forward $262 $-1 #
edge $-1 $271 -80 $194 -70 $145 $151 forward 7 unknown #
coedge $-1 $164 $230 $146 $202 forward $165 $-1 #
edge $-1 $206 20 $272 80 $146 $273 forward 7 unknown #
coedge $-1 $274 $147 $230 $275 reversed $205 $-1 #
coedge $-1 $147 $274 $149 $209 reversed $205 $-1 #
loop $-1 $-1 $274 $276 #
vertex $-1 $275 $277 #
straight-curve $-1 20 37.5 0 0 0 1 I I #
coedge $-1 $278 $149 $279 $280 forward $111 $-1 #
edge $-1 $150 -25 $281 0 $149 $282 forward 7 unknown #
point $-1 20 37.5 15 #
coedge $-1 $152 $283 $284 $285 forward $111 $-1 #
coedge $-1 $286 $154 $152 $213 reversed $170 $-1 #
edge $-1 $287 -28.75 $156 1.25 $152 $288 forward 7 unknown #
face $-1 $142 $186 $2 $-1 $13 reversed single #
plane-surface $-1 0 0 15 0 0 1 1 0 0 forward_v I I I I #
coedge $-1 $154 $286 $220 $289 reversed $170 $-1 #
vertex $-1 $160 $290 #
straight-curve $-1 40 -7.5 0 0 0 1 I I #
point $-1 40 -7.5 15 #
coedge $-1 $291 $159 $216 $289 forward $165 $-1 #
ellipse-curve $-1 50 -7.5 -15 0 0 1 -7.071067811865470176 7.071067811865470176 0 1 I I #
coedge $-1 $270 $190 $161 $223 forward $262 $-1 #
edge $-1 $192 40 $227 50 $222 $292 forward 7 unknown #
coedge $-1 $268 $162 $164 $229 reversed $226 $-1 #
coedge $-1 $162 $268 $270 $293 reversed $226 $-1 #
loop $-1 $-1 $162 $294 #
vertex $-1 $223 $295 #
straight-curve $-1 80 2.5 0 -0 -0 -1 I I #
edge $-1 $272 -37.5 $166 -2.5 $224 $296 forward 7 unknown #
coedge $-1 $201 $297 $203 $275 forward $165 $-1 #
point $-1 80 2.5 -15 #
face $-1 $298 $299 $2 $-1 $300 reversed single #
plane-surface $-1 0 0 -15 0 0 1 1 0 0 forward_v I I I I #
face $-1 $301 $302 $2 $-1 $303 reversed single #
loop $-1 $-1 $304 $172 #
plane-surface $-1 -70 20 7.5 1 0 0 0 0 -1 forward_v I I I I #
coedge $-1 $305 $306 $258 $307 reversed $173 $-1 #
coedge $-1 $308 $175 $185 $259 reversed $130 $-1 #
coedge $-1 $175 $308 $176 $241 reversed $130 $-1 #
coedge $-1 $309 $176 $310 $311 forward $95 $-1 #
edge $-1 $246 -8.050510257216799914 $312 8.050510257216799914 $176 $313 forward 7 unknown #
coedge $-1 $177 $314 $315 $316 reversed $95 $-1 #
coedge $-1 $317 $249 $177 $244 reversed $299 $-1 #
edge $-1 $318 -15 $245 -2.949489742783240054 $177 $319 forward 7 unknown #
vertex $-1 $244 $320 #
vertex $-1 $180 $321 #
ellipse-curve $-1 -49.5 2.5 -0.5000000000000609512 -0 1 -0 2.5 0 0 1 I I #
straight-curve $-1 -51.94948974278320009 20 0 -0 1 3.491481338843129805e-15 I I #
coedge $-1 $243 $322 $181 $250 forward $299 $-1 #
edge $-1 $254 3.285909986623559931 $245 11.86127823530030057 $249 $323 forward 7 unknown #
coedge $-1 $324 $182 $322 $325 forward $253 $-1 #
coedge $-1 $182 $324 $184 $257 reversed $253 $-1 #
loop $-1 $-1 $182 $196 #
vertex $-1 $183 $326 #
straight-curve $-1 -50 20 1.949489742783180102 0 -1 -3.491481338843129805e-15 I I #
coedge $-1 $327 $184 $328 $329 reversed $186 $-1 #
edge $-1 $188 -1.800510257216759946 $330 11.25 $184 $331 forward 7 unknown #
coedge $-1 $185 $332 $237 $307 forward $186 $-1 #
edge $-1 $333 -38.05051025721679991 $187 -21.94948974278320009 $185 $334 forward 7 unknown #
point $-1 -51.94948974278320009 37.5 3.865707537115459897e-17 #
point $-1 -50 37.5 1.949489742783240054 #
loop $-1 $-1 $190 $335 #
straight-curve $-1 70 10 15 0 -1 0 I I #
point $-1 70 2.5 15 #
point $-1 70 37.5 15 #
face $-1 $336 $337 $2 $-1 $215 forward single #
plane-surface $-1 -50 20 7.5 -1 0 0 0 0 1 forward_v I I I I #
coedge $-1 $225 $224 $198 $269 reversed $226 $-1 #
edge $-1 $271 -15 $272 15 $268 $338 forward 7 unknown #
coedge $-1 $199 $222 $225 $293 forward $262 $-1 #
vertex $-1 $293 $339 #
vertex $-1 $229 $340 #
straight-curve $-1 0 37.5 -15 1 0 0 I I #
coedge $-1 $204 $203 $341 $342 reversed $205 $-1 #
edge $-1 $343 0 $206 25 $230 $344 forward 7 unknown #
face $-1 $153 $205 $2 $-1 $345 forward single #
point $-1 20 37.5 -15 #
coedge $-1 $346 $208 $347 $348 forward $111 $-1 #
coedge $-1 $341 $349 $208 $280 reversed $350 $-1 #
edge $-1 $281 -20 $351 -7 $208 $352 forward 7 unknown #
vertex $-1 $280 $353 #
straight-curve $-1 20 12.5 15 0 -1 0 I I #
coedge $-1 $211 $354 $355 $356 forward $111 $-1 #
coedge $-1 $357 $358 $211 $285 reversed $359 $-1 #
edge $-1 $360 30 $287 40 $284 $361 forward 7 unknown #
coedge $-1 $216 $212 $358 $362 reversed $170 $-1 #
vertex $-1 $285 $363 #
straight-curve $-1 40 -8.75 15 0 1 0 I I #
edge $-1 $217 -1.25 $364 28.75 $220 $365 forward 7 unknown #
point $-1 40 -7.5 -15 #
coedge $-1 $366 $220 $367 $368 forward $165 $-1 #
straight-curve $-1 30 2.5 15 1 0 -0 I I #
edge $-1 $227 2.5 $271 37.5 $225 $369 forward 7 unknown #
face $-1 $-1 $226 $2 $-1 $370 reversed single #
point $-1 80 2.5 15 #
straight-curve $-1 80 0 -15 0 -1 0 I I #
coedge $-1 $230 $371 $372 $373 forward $165 $-1 #
face $-1 $374 $375 $2 $-1 $376 forward single #
loop $-1 $-1 $249 $232 #
cone-surface $-1 -50 -7.5 0 0 0 -1 7.071067811865470176 7.071067811865470176 0 1 I I 0 1 9.999999999999992895 forward I I I I #
face $-1 $377 $378 $2 $-1 $379 reversed single #
loop $-1 $380 $381 $234 #
cone-surface $-1 0 -2.5 5 0 -1 -3.491481338843129805e-15 2.5 0 0 1 I I 0 1 2.5 forward I I I I #
coedge $-1 $382 $383 $305 $384 forward $235 $-1 #
coedge $-1 $310 $237 $304 $384 reversed $173 $-1 #
coedge $-1 $237 $310 $308 $385 reversed $173 $-1 #
edge $-1 $386 1.3694384060045659 $333 6.484543227969891355 $258 $387 forward 7 unknown #
coedge $-1 $239 $238 $306 $385 forward $130 $-1 #
coedge $-1 $388 $240 $383 $389 forward $95 $-1 #
coedge $-1 $306 $305 $240 $311 reversed $173 $-1 #
edge $-1 $312 -0.2013579207903529178 $390 4.913746901175020554 $240 $391 forward 7 unknown #
vertex $-1 $241 $392 #
straight-curve $-1 -60 2.5 0 -1 0 0 I I #
coedge $-1 $242 $388 $393 $394 reversed $95 $-1 #
coedge $-1 $395 $396 $242 $316 forward $165 $-1 #
edge $-1 $318 20 $397 50 $315 $398 forward 7 unknown #
coedge $-1 $399 $243 $396 $400 reversed $299 $-1 #
vertex $-1 $400 $401 #
straight-curve $-1 -50 2.5 0 0 0 1 I I #
point $-1 -50 2.5 -2.949489742783240054 #
point $-1 -51.94948974278320009 2.5 -3.865707537115459897e-17 #
coedge $-1 $249 $402 $251 $325 reversed $299 $-1 #
intcurve-curve $-1 forward { surfintcur full nubs 3 open 21 
	3.285909986623559931 3 3.30424856243927012 2 3.776168208354869993 2 4.251216530666540372 2 4.726264852978199649 2 
	5.201313175289880242 2 5.676361497601559947 2 6.150674016568840052 2 6.624986535536129928 2 7.099299054503419804 2 
	7.573611573470709679 2 8.046967657823740794 2 8.520323742176760362 2 8.99367982652977993 2 9.467035910882799499 2 
	9.943039907739930072 2 10.41904390459709973 2 10.8950479014542001 2 11.37105189831139995 2 11.8423479423877005 2 
	11.86127823530030057 3 
	-50 2.5 1.949489742783119928 
	-49.9937243085831966 2.5 1.950770762929310065 
	-49.98744695768060353 2.499994092138369872 1.952026998521130041 
	-49.819595143088101 2.499677998087209918 1.984948508317359916 
	-49.65710979240309797 2.49535750515101995 1.999999999999940048 
	-49.34184861989579929 2.479574705680560154 1.999999999999940048 
	-49.17871403869779812 2.467544973676830011 1.984753484948160063 
	-48.85493862952429822 2.435557251122439926 1.920975088298070066 
	-48.69429321095760343 2.415608748250980042 1.8724617544389901 
	-48.38670727968799667 2.370230679592070011 1.744619670346210016 
	-48.23951586973939953 2.344789548759969922 1.66519373517714997 
	-47.96751886226559947 2.292252348526480077 1.482015568893799928 
	-47.8427155474212995 2.265192878441390167 1.378249453353949994 
	-47.62192167322290004 2.21378256921769978 1.157455579155580061 
	-47.5181950451896995 2.187601806542270211 1.032750762878110073 
	-47.33500550762980197 2.13881678176587009 0.760822995744098951 
	-47.25552886865629887 2.116252891611240194 0.6136020527743929476 
	-47.12760244534940313 2.078819032304600078 0.305909222599206998 
	-47.07905020928740214 2.06395145710849004 0.1451727622862910017 
	-47.01524048884390083 2.044229974985510179 -0.1787276031804020116 
	-47 2.039392014169460143 -0.3418958270109879738 
	-47 2.039392014169460143 -0.6577853614510470459 
	-47.01517919788390287 2.044210361539000154 -0.8206364845946679809 
	-47.07874463624609973 2.063857681121469945 -1.143944592703910024 
	-47.12711402880410105 2.078670867781910125 -1.304405848986539995 
	-47.25457066529479988 2.115977686528269786 -1.611622265442059998 
	-47.3337596596348007 2.138468954608189865 -1.758640763937340035 
	-47.51629527812450249 2.187111653898829999 -2.030257939921320087 
	-47.61965548464529974 2.213222948731489836 -2.154854675800330188 
	-47.84011886353879817 2.264619627623139841 -2.375981357311999886 
	-47.96503046190220232 2.29173785493932014 -2.480114904630589923 
	-48.23733806828759896 2.344402173577170068 -2.66394809671590993 
	-48.38473173095839996 2.369911425546070038 -2.743661767168190213 
	-48.69279331545809697 2.415414959067279987 -2.871973622769509848 
	-48.8537132998453032 2.435420846458619781 -2.920669657157319854 
	-49.17807955274319909 2.46749754821099998 -2.984692196947079879 
	-49.34153046016089661 2.479558777771469824 -3.000000000000059952 
	-49.6569021851201029 2.495347111787030059 -3.000000000000059952 
	-49.81917992012900243 2.499667356559200027 -2.98498821526268987 
	-49.98704050163029677 2.49999370339603999 -2.95210831290876019 
	-49.99352113284960097 2.5 -2.950812236002390065 
	-50 2.5 -2.949489742783240054 
	0.001000000000000000021 
	cone -49.5 20 -0.5 0 -1 -3.491481338843129805e-15 2.5 0 0 1 I I 0 1 2.5 forward I I I I 
	cone -50 -7.5 0 0 0 -1 7.071067811865470176 7.071067811865470176 0 1 I I -0 -1 9.999999999999992895 forward I I I I 
	nullbs 
	nullbs 
	I I 
	0 
	0 
	0 
	} I I #
coedge $-1 $252 $251 $403 $404 reversed $253 $-1 #
edge $-1 $254 1.949489742783119928 $405 15 $322 $319 forward 7 unknown #
point $-1 -50 2.5 1.949489742783119928 #
coedge $-1 $406 $256 $407 $408 forward $186 $-1 #
coedge $-1 $403 $409 $256 $329 forward $111 $-1 #
edge $-1 $410 20 $330 50 $256 $151 forward 7 unknown #
vertex $-1 $329 $411 #
straight-curve $-1 -50 37.5 3.75 0 0 1 I I #
coedge $-1 $258 $412 $382 $413 forward $186 $-1 #
vertex $-1 $307 $414 #
straight-curve $-1 -30 37.5 0 1 0 -0 I I #
face $-1 $415 $262 $2 $-1 $215 forward single #
face $-1 $416 $417 $2 $-1 $418 forward single #
loop $-1 $-1 $419 $266 #
straight-curve $-1 80 37.5 0 0 0 -1 I I #
point $-1 80 37.5 15 #
point $-1 80 37.5 -15 #
coedge $-1 $372 $279 $274 $342 forward $350 $-1 #
edge $-1 $281 -15 $343 15 $274 $420 forward 7 unknown #
vertex $-1 $373 $421 #
straight-curve $-1 20 12.5 -15 0 1 -0 I I #
plane-surface $-1 20 25 0 -1 0 0 0 0 1 forward_v I I I I #
coedge $-1 $422 $278 $423 $424 forward $111 $-1 #
coedge $-1 $425 $426 $278 $348 reversed $427 $-1 #
edge $-1 $351 -2.5 $428 2.5 $347 $429 forward 7 unknown #
coedge $-1 $279 $372 $425 $430 forward $350 $-1 #
loop $-1 $-1 $349 $431 #
vertex $-1 $280 $432 #
straight-curve $-1 0 12.5 15 -1 0 0 I I #
point $-1 20 12.5 15 #
coedge $-1 $283 $433 $434 $435 forward $111 $-1 #
coedge $-1 $436 $437 $283 $356 reversed $438 $-1 #
edge $-1 $439 7.5 $360 22.5 $283 $440 forward 7 unknown #
coedge $-1 $367 $284 $437 $441 forward $359 $-1 #
coedge $-1 $284 $367 $286 $362 forward $359 $-1 #
loop $-1 $-1 $357 $415 #
vertex $-1 $441 $442 #
straight-curve $-1 0 -37.5 15 1 0 0 I I #
edge $-1 $364 -15 $287 15 $358 $443 forward 7 unknown #
point $-1 40 -37.5 15 #
vertex $-1 $362 $444 #
straight-curve $-1 40 -8.75 -15 0 -1 0 I I #
coedge $-1 $445 $291 $446 $447 forward $165 $-1 #
coedge $-1 $358 $357 $291 $368 reversed $359 $-1 #
edge $-1 $364 -40 $448 -30 $367 $449 forward 7 unknown #
straight-curve $-1 80 0 15 0 1 0 I I #
plane-surface $-1 80 0 0 -1 0 0 0 -0 1 forward_v I I I I #
coedge $-1 $297 $450 $451 $452 forward $165 $-1 #
coedge $-1 $349 $341 $297 $373 reversed $350 $-1 #
edge $-1 $453 7 $343 20 $297 $454 forward 7 unknown #
face $-1 $294 $455 $2 $-1 $456 reversed single #
loop $-1 $-1 $457 $298 #
plane-surface $-1 -40 -17.5 0 -1 0 0 0 0 1 forward_v I I I I #
face $-1 $458 $459 $2 $-1 $460 reversed single #
loop $-1 $-1 $461 $301 #
plane-surface $-1 -7 15 0 1 0 0 0 0 -1 forward_v I I I I #
loop $-1 $-1 $462 $234 #
coedge $-1 $381 $381 $463 $464 reversed $302 $-1 #
coedge $-1 $465 $304 $332 $413 reversed $235 $-1 #
coedge $-1 $304 $465 $309 $389 reversed $235 $-1 #
edge $-1 $390 -17.5 $386 17.5 $304 $466 forward 7 unknown #
edge $-1 $333 -17.5 $312 17.5 $308 $467 forward 7 unknown #
vertex $-1 $413 $468 #
ellipse-curve $-1 -70.5 37.5 -0.4999999999999389932 0 -1 0 2.5 0 0 1 I I #
coedge $-1 $314 $309 $469 $470 reversed $95 $-1 #
edge $-1 $390 -1.800510257216880072 $471 11.25 $309 $472 forward 7 unknown #
vertex $-1 $384 $473 #
ellipse-curve $-1 -70.5 2.5 -0.5000000000000609512 -0 1 -0 2.5 0 0 1 I I #
point $-1 -68.05051025721679991 2.5 -3.86570753712302988e-17 #
coedge $-1 $474 $475 $314 $394 forward $455 $-1 #
edge $-1 $397 -15 $476 15 $393 $477 forward 7 unknown #
coedge $-1 $478 $315 $475 $479 forward $165 $-1 #
coedge $-1 $315 $480 $317 $400 forward $165 $-1 #
vertex $-1 $394 $481 #
straight-curve $-1 -30 2.5 -15 -1 0 0 I I #
coedge $-1 $402 $317 $457 $482 reversed $299 $-1 #
edge $-1 $483 -0.785398163397448279 $318 0.785398163397448279 $396 $484 forward 7 unknown #
point $-1 -50 2.5 -15 #
coedge $-1 $322 $399 $485 $486 reversed $299 $-1 #
coedge $-1 $485 $328 $324 $404 forward $111 $-1 #
edge $-1 $330 -27.5 $405 7.5 $403 $487 forward 7 unknown #
vertex $-1 $486 $488 #
coedge $-1 $489 $327 $478 $490 reversed $186 $-1 #
coedge $-1 $491 $492 $327 $408 reversed $493 $-1 #
edge $-1 $410 -15 $494 15 $327 $495 forward 7 unknown #
coedge $-1 $328 $496 $491 $497 forward $111 $-1 #
vertex $-1 $408 $498 #
point $-1 -50 37.5 15 #
coedge $-1 $332 $489 $499 $500 reversed $186 $-1 #
edge $-1 $501 -11.25 $386 1.800510257216759946 $332 $502 forward 7 unknown #
point $-1 -68.05051025721679991 37.5 3.86570753712302988e-17 #
face $-1 $503 $359 $2 $-1 $504 reversed single #
face $-1 $505 $506 $2 $-1 $507 forward single #
loop $-1 $-1 $508 $336 #
plane-surface $-1 0 -32.5 0 0 0 1 1 0 0 forward_v I I I I #
coedge $-1 $499 $469 $465 $509 forward $337 $-1 #
straight-curve $-1 20 12.5 0 0 0 -1 I I #
point $-1 20 12.5 -15 #
coedge $-1 $496 $346 $510 $511 forward $111 $-1 #
coedge $-1 $512 $513 $346 $424 reversed $514 $-1 #
edge $-1 $428 -7 $515 7 $423 $516 forward 7 unknown #
coedge $-1 $451 $347 $349 $430 reversed $427 $-1 #
coedge $-1 $347 $451 $512 $517 reversed $427 $-1 #
loop $-1 $-1 $425 $458 #
vertex $-1 $348 $518 #
straight-curve $-1 7 15 15 0 1 0 I I #
edge $-1 $453 -15 $351 15 $349 $519 forward 7 unknown #
face $-1 $520 $350 $2 $-1 $521 forward single #
point $-1 7 12.5 15 #
coedge $-1 $354 $522 $523 $524 forward $111 $-1 #
coedge $-1 $525 $526 $354 $435 reversed $527 $-1 #
edge $-1 $528 -3.141592653589793116 $439 0 $354 $529 forward 7 unknown #
coedge $-1 $446 $355 $526 $530 reversed $438 $-1 #
coedge $-1 $355 $446 $357 $441 reversed $438 $-1 #
loop $-1 $-1 $437 $531 #
vertex $-1 $435 $532 #
straight-curve $-1 30 -15 15 0 -1 0 I I #
edge $-1 $360 -15 $448 15 $357 $533 forward 7 unknown #
point $-1 30 -37.5 15 #
straight-curve $-1 40 -37.5 0 -0 0 1 I I #
point $-1 40 -37.5 -15 #
coedge $-1 $534 $366 $535 $536 forward $165 $-1 #
coedge $-1 $437 $436 $366 $447 reversed $438 $-1 #
edge $-1 $448 -22.5 $537 -7.5 $366 $538 forward 7 unknown #
vertex $-1 $368 $539 #
straight-curve $-1 0 -37.5 -15 -1 0 0 I I #
coedge $-1 $371 $540 $541 $542 forward $165 $-1 #
coedge $-1 $426 $425 $371 $452 reversed $427 $-1 #
edge $-1 $543 -2.5 $453 2.5 $451 $544 forward 7 unknown #
vertex $-1 $373 $545 #
straight-curve $-1 0 12.5 -15 1 0 0 I I #
loop $-1 $-1 $393 $374 #
plane-surface $-1 -80 0 0 1 0 0 0 0 -1 forward_v I I I I #
coedge $-1 $546 $547 $399 $482 forward $375 $-1 #
face $-1 $548 $427 $2 $-1 $549 reversed single #
loop $-1 $514 $463 $377 #
plane-surface $-1 0 17.5 0 0 -1 0 0 0 -1 forward_v I I I I #
coedge $-1 $550 $510 $513 $551 forward $378 $-1 #
coedge $-1 $462 $462 $552 $553 reversed $380 $-1 #
coedge $-1 $463 $463 $381 $464 forward $459 $-1 #
edge $-1 $554 -3.141592653589800666 $554 3.141592653589785566 $463 $555 forward 7 unknown #
coedge $-1 $383 $382 $419 $509 reversed $235 $-1 #
straight-curve $-1 -70 20 1.949489742783180102 -0 1 3.491481338843129805e-15 I I #
straight-curve $-1 -68.05051025721679991 20 0 0 -1 -3.491481338843129805e-15 I I #
point $-1 -70 37.5 1.949489742783240054 #
coedge $-1 $419 $556 $388 $470 forward $337 $-1 #
edge $-1 $476 -50 $471 -40 $469 $557 forward 7 unknown #
vertex $-1 $470 $558 #
straight-curve $-1 -70 2.5 3.75 -0 0 1 I I #
point $-1 -70 2.5 1.949489742783119928 #
coedge $-1 $559 $393 $556 $560 reversed $455 $-1 #
coedge $-1 $393 $559 $395 $479 reversed $455 $-1 #
vertex $-1 $560 $561 #
straight-curve $-1 -80 2.5 0 -0 0 1 I I #
coedge $-1 $562 $395 $406 $490 forward $165 $-1 #
edge $-1 $397 2.5 $563 37.5 $475 $564 forward 7 unknown #
coedge $-1 $396 $565 $546 $566 forward $165 $-1 #
point $-1 -80 2.5 -15 #
edge $-1 $567 -15 $483 15 $457 $568 forward 7 unknown #
vertex $-1 $400 $569 #
ellipse-curve $-1 -50 -7.5 -15 0 0 1 7.071067811865470176 7.071067811865470176 0 1 I I #
coedge $-1 $570 $403 $402 $486 forward $111 $-1 #
edge $-1 $405 -0.785398163397448279 $567 0.785398163397448279 $485 $571 forward 7 unknown #
straight-curve $-1 -50 10 15 0 -1 0 I I #
point $-1 -50 2.5 15 #
coedge $-1 $412 $406 $559 $572 reversed $186 $-1 #
edge $-1 $563 -80 $494 -20 $406 $273 forward 7 unknown #
coedge $-1 $573 $407 $409 $497 reversed $493 $-1 #
coedge $-1 $407 $573 $562 $574 reversed $493 $-1 #
loop $-1 $-1 $407 $520 #
vertex $-1 $490 $575 #
straight-curve $-1 -20 37.5 0 0 0 -1 I I #
coedge $-1 $409 $422 $576 $577 forward $111 $-1 #
edge $-1 $578 0 $410 25 $409 $579 forward 7 unknown #
point $-1 -20 37.5 15 #
coedge $-1 $556 $419 $412 $500 forward $337 $-1 #
edge $-1 $501 70 $580 80 $412 $151 forward 7 unknown #
vertex $-1 $413 $581 #
straight-curve $-1 -70 37.5 3.75 0 0 -1 I I #
face $-1 $582 $583 $2 $-1 $584 reversed single #
plane-surface $-1 0 -37.5 0 0 1 -0 -0 0 1 forward_v I I I I #
face $-1 $585 $586 $2 $-1 $587 forward single #
loop $-1 $588 $552 $416 #
plane-surface $-1 0 -27.5 7.5 0 -1 0 0 0 -1 forward_v I I I I #
coedge $-1 $589 $590 $591 $592 reversed $417 $-1 #
edge $-1 $471 -7.5 $501 27.5 $419 $593 forward 7 unknown #
coedge $-1 $461 $594 $422 $511 reversed $378 $-1 #
edge $-1 $515 -2.5 $595 2.5 $510 $596 forward 7 unknown #
coedge $-1 $541 $423 $426 $517 forward $514 $-1 #
coedge $-1 $423 $541 $461 $551 reversed $514 $-1 #
loop $-1 $-1 $512 $377 #
vertex $-1 $424 $597 #
straight-curve $-1 0 17.5 15 -1 0 0 I I #
edge $-1 $428 -15 $543 15 $426 $598 forward 7 unknown #
point $-1 7 17.5 15 #
straight-curve $-1 7 12.5 0 0 -0 1 I I #
face $-1 $276 $493 $2 $-1 $599 forward single #
plane-surface $-1 0 12.5 0 0 1 0 0 0 1 forward_v I I I I #
coedge $-1 $433 $600 $601 $602 forward $111 $-1 #
coedge $-1 $603 $604 $433 $524 reversed $586 $-1 #
edge $-1 $605 -12.5 $528 -7.5 $433 $606 forward 7 unknown #
coedge $-1 $535 $434 $604 $607 reversed $527 $-1 #
coedge $-1 $434 $535 $436 $530 forward $527 $-1 #
loop $-1 $-1 $525 $608 #
vertex $-1 $435 $609 #
ellipse-curve $-1 25 -22.5 15 -0 -0 -1 5 0 0 1 I I #
edge $-1 $537 -15 $439 15 $436 $610 reversed 7 unknown #
face $-1 $335 $438 $2 $-1 $611 forward single #
point $-1 30 -22.5 15 #
straight-curve $-1 30 -37.5 0 -0 0 -1 I I #
coedge $-1 $612 $445 $613 $614 forward $165 $-1 #
coedge $-1 $526 $525 $445 $536 reversed $527 $-1 #
edge $-1 $537 0 $615 3.141592653589793116 $445 $616 forward 7 unknown #
vertex $-1 $536 $617 #
straight-curve $-1 30 -15 -15 0 1 -0 I I #
point $-1 30 -37.5 -15 #
coedge $-1 $450 $618 $550 $619 forward $165 $-1 #
coedge $-1 $513 $512 $450 $542 reversed $514 $-1 #
edge $-1 $620 -7 $543 7 $541 $621 forward 7 unknown #
vertex $-1 $452 $622 #
straight-curve $-1 7 15 -15 0 -1 0 I I #
point $-1 7 12.5 -15 #
coedge $-1 $623 $457 $480 $566 reversed $375 $-1 #
coedge $-1 $457 $623 $570 $624 reversed $375 $-1 #
face $-1 $431 $625 $2 $-1 $521 forward single #
plane-surface $-1 7 15 0 -1 0 0 0 0 1 forward_v I I I I #
coedge $-1 $594 $461 $540 $619 reversed $378 $-1 #
edge $-1 $515 -15 $620 15 $513 $626 forward 7 unknown #
coedge $-1 $552 $552 $462 $553 forward $506 $-1 #
edge $-1 $627 0 $627 6.283185307179586232 $552 $628 forward 7 unknown #
vertex $-1 $464 $629 #
ellipse-curve $-1 0 17.5 5.000000000000070166 0 -1 0 2.5 0 0 1 I I #
coedge $-1 $469 $499 $474 $560 forward $337 $-1 #
straight-curve $-1 -30 2.5 15 1 0 -0 I I #
point $-1 -70 2.5 15 #
coedge $-1 $475 $474 $489 $572 forward $455 $-1 #
edge $-1 $580 -37.5 $476 -2.5 $474 $630 forward 7 unknown #
point $-1 -80 2.5 15 #
coedge $-1 $618 $478 $492 $574 forward $165 $-1 #
vertex $-1 $490 $631 #
straight-curve $-1 -80 0 -15 0 1 0 I I #
coedge $-1 $480 $632 $633 $634 forward $165 $-1 #
edge $-1 $635 -28.75 $483 1.25 $480 $636 forward 7 unknown #
vertex $-1 $486 $637 #
straight-curve $-1 -40 -7.5 0 0 0 -1 I I #
point $-1 -40 -7.5 -15 #
coedge $-1 $638 $485 $547 $624 forward $111 $-1 #
ellipse-curve $-1 -50 -7.5 15 -0 -0 -1 7.071067811865470176 7.071067811865470176 0 1 I I #
edge $-1 $580 -15 $563 15 $489 $639 forward 7 unknown #
coedge $-1 $492 $491 $640 $641 forward $493 $-1 #
edge $-1 $494 -25 $642 0 $562 $643 forward 7 unknown #
point $-1 -20 37.5 -15 #
coedge $-1 $644 $640 $496 $577 reversed $625 $-1 #
edge $-1 $595 7 $578 20 $496 $352 forward 7 unknown #
vertex $-1 $577 $645 #
straight-curve $-1 -20 12.5 15 0 1 0 I I #
vertex $-1 $500 $646 #
point $-1 -70 37.5 15 #
face $-1 $647 $648 $2 $-1 $649 forward single #
loop $-1 $-1 $650 $503 #
cone-surface $-1 -25 -22.5 0 0 0 1 5 0 0 1 I I 0 1 5 forward I I I I #
face $-1 $608 $651 $2 $-1 $504 reversed single #
loop $-1 $-1 $603 $505 #
plane-surface $-1 20 -30 0 1 0 0 0 0 -1 forward_v I I I I #
loop $-1 $-1 $652 $416 #
coedge $-1 $653 $508 $654 $655 reversed $417 $-1 #
coedge $-1 $508 $653 $656 $657 reversed $417 $-1 #
coedge $-1 $658 $603 $508 $592 forward $586 $-1 #
edge $-1 $659 -3.75 $660 6.25 $591 $661 forward 7 unknown #
straight-curve $-1 -70 10 15 0 1 0 I I #
coedge $-1 $510 $550 $644 $662 reversed $378 $-1 #
vertex $-1 $577 $663 #
straight-curve $-1 -7 15 15 0 -1 0 I I #
point $-1 -7 17.5 15 #
straight-curve $-1 7 17.5 0 0 0 -1 I I #
plane-surface $-1 -20 25 0 1 0 0 0 0 -1 forward_v I I I I #
coedge $-1 $522 $664 $665 $666 forward $111 $-1 #
coedge $-1 $667 $652 $522 $602 reversed $588 $-1 #
edge $-1 $668 -20 $605 20 $522 $669 forward 7 unknown #
coedge $-1 $591 $523 $652 $670 forward $586 $-1 #
coedge $-1 $523 $613 $525 $607 forward $586 $-1 #
vertex $-1 $602 $671 #
straight-curve $-1 20 -15 15 0 1 0 I I #
edge $-1 $615 -15 $528 15 $604 $672 reversed 7 unknown #
face $-1 $531 $527 $2 $-1 $673 reversed single #
point $-1 20 -22.5 15 #
straight-curve $-1 30 -22.5 0 0 0 -1 I I #
plane-surface $-1 30 -30 0 -1 0 0 0 0 1 forward_v I I I I #
coedge $-1 $674 $534 $675 $676 forward $165 $-1 #
coedge $-1 $604 $658 $534 $614 reversed $586 $-1 #
edge $-1 $615 7.5 $677 22.5 $534 $678 forward 7 unknown #
vertex $-1 $536 $679 #
ellipse-curve $-1 25 -22.5 -15 0 0 1 5 0 0 1 I I #
point $-1 30 -22.5 -15 #
coedge $-1 $540 $562 $680 $681 forward $165 $-1 #
edge $-1 $682 -2.5 $620 2.5 $550 $683 forward 7 unknown #
vertex $-1 $542 $684 #
straight-curve $-1 0 17.5 -15 1 0 0 I I #
point $-1 7 17.5 -15 #
coedge $-1 $547 $546 $685 $686 reversed $375 $-1 #
edge $-1 $567 -1.25 $687 28.75 $570 $688 forward 7 unknown #
loop $-1 $-1 $644 $548 #
straight-curve $-1 -7 17.5 0 0 0 -1 I I #
vertex $-1 $553 $689 #
ellipse-curve $-1 0 -27.5 4.999999999999910294 -0 1 -0 2.5 0 0 1 I I #
point $-1 -2.5 17.5 5.000000000000089706 #
straight-curve $-1 -80 0 15 0 -1 0 I I #
point $-1 -80 37.5 -15 #
coedge $-1 $565 $690 $691 $692 forward $165 $-1 #
coedge $-1 $693 $685 $565 $634 reversed $694 $-1 #
edge $-1 $695 30 $635 40 $633 $449 forward 7 unknown #
vertex $-1 $634 $696 #
straight-curve $-1 -40 -8.75 -15 0 1 -0 I I #
point $-1 -40 -7.5 15 #
coedge $-1 $697 $570 $698 $699 forward $111 $-1 #
straight-curve $-1 -80 37.5 0 0 0 -1 I I #
coedge $-1 $576 $680 $573 $641 reversed $625 $-1 #
edge $-1 $578 -15 $642 15 $573 $700 forward 7 unknown #
vertex $-1 $681 $701 #
straight-curve $-1 -20 12.5 -15 0 -1 0 I I #
coedge $-1 $680 $576 $594 $662 forward $625 $-1 #
point $-1 -20 12.5 15 #
point $-1 -80 37.5 15 #
face $-1 $702 $703 $2 $-1 $704 forward single #
loop $-1 $-1 $705 $582 #
plane-surface $-1 -30 -30 0 1 0 0 0 0 -1 forward_v I I I I #
coedge $-1 $706 $707 $705 $708 reversed $583 $-1 #
loop $-1 $-1 $656 $585 #
coedge $-1 $601 $654 $603 $670 reversed $588 $-1 #
coedge $-1 $590 $589 $709 $710 reversed $417 $-1 #
coedge $-1 $652 $667 $589 $655 forward $588 $-1 #
edge $-1 $711 -20 $659 20 $654 $712 forward 7 unknown #
coedge $-1 $713 $714 $590 $657 forward $651 $-1 #
edge $-1 $660 -20 $715 20 $656 $716 forward 7 unknown #
coedge $-1 $613 $591 $714 $717 reversed $586 $-1 #
vertex $-1 $592 $718 #
vertex $-1 $717 $719 #
straight-curve $-1 20 -31.25 0 0 -1 0 I I #
edge $-1 $595 -15 $682 15 $644 $720 forward 7 unknown #
point $-1 -7 12.5 15 #
coedge $-1 $600 $697 $707 $721 forward $111 $-1 #
coedge $-1 $722 $723 $600 $666 reversed $703 $-1 #
edge $-1 $724 7.5 $668 12.5 $600 $725 forward 7 unknown #
coedge $-1 $654 $601 $723 $726 reversed $588 $-1 #
vertex $-1 $666 $727 #
straight-curve $-1 0 -27.5 15 1 0 -0 I I #
edge $-1 $605 -11.25 $659 3.75 $603 $728 forward 7 unknown #
point $-1 20 -27.5 15 #
straight-curve $-1 20 -22.5 0 0 0 -1 I I #
cone-surface $-1 25 -22.5 0 0 0 1 5 0 0 1 I I 0 1 5 forward I I I I #
coedge $-1 $690 $612 $729 $730 forward $165 $-1 #
coedge $-1 $714 $713 $612 $676 reversed $651 $-1 #
edge $-1 $677 -20 $731 20 $675 $449 forward 7 unknown #
vertex $-1 $614 $732 #
straight-curve $-1 20 -15 -15 0 -1 0 I I #
point $-1 20 -22.5 -15 #
coedge $-1 $640 $644 $618 $681 reversed $625 $-1 #
edge $-1 $642 -20 $682 -7 $618 $454 forward 7 unknown #
vertex $-1 $681 $733 #
straight-curve $-1 -7 15 -15 0 1 0 I I #
point $-1 -7 17.5 -15 #
coedge $-1 $633 $698 $623 $686 forward $694 $-1 #
edge $-1 $687 -15 $635 15 $685 $734 forward 7 unknown #
vertex $-1 $686 $735 #
straight-curve $-1 -40 -8.75 15 0 -1 0 I I #
point $-1 2.5 -27.5 4.999999999999910294 #
coedge $-1 $632 $674 $706 $736 forward $165 $-1 #
coedge $-1 $705 $737 $632 $692 reversed $648 $-1 #
edge $-1 $738 7.5 $695 22.5 $632 $739 forward 7 unknown #
coedge $-1 $698 $633 $737 $740 forward $694 $-1 #
loop $-1 $-1 $693 $702 #
vertex $-1 $740 $741 #
point $-1 -40 -37.5 -15 #
coedge $-1 $664 $638 $742 $743 forward $111 $-1 #
coedge $-1 $685 $693 $638 $699 reversed $694 $-1 #
edge $-1 $687 -40 $744 -30 $698 $361 forward 7 unknown #
straight-curve $-1 -20 12.5 0 0 0 -1 I I #
point $-1 -20 12.5 -15 #
face $-1 $116 $694 $2 $-1 $504 reversed single #
loop $-1 $-1 $723 $647 #
plane-surface $-1 -20 -30 0 -1 0 0 0 0 1 forward_v I I I I #
coedge $-1 $742 $691 $650 $708 forward $648 $-1 #
coedge $-1 $745 $650 $690 $736 reversed $583 $-1 #
coedge $-1 $650 $745 $664 $721 reversed $583 $-1 #
edge $-1 $738 -15 $746 15 $705 $747 reversed 7 unknown #
coedge $-1 $723 $748 $653 $710 forward $703 $-1 #
edge $-1 $715 -6.25 $711 3.75 $709 $749 forward 7 unknown #
vertex $-1 $710 $750 #
straight-curve $-1 0 -27.5 0 1 0 0 I I #
coedge $-1 $675 $656 $748 $751 forward $651 $-1 #
coedge $-1 $656 $675 $658 $717 forward $651 $-1 #
vertex $-1 $710 $752 #
straight-curve $-1 0 -37.5 0 -1 0 0 I I #
edge $-1 $677 -15 $660 0 $714 $753 forward 7 unknown #
point $-1 20 -27.5 0 #
point $-1 20 -37.5 0 #
straight-curve $-1 -7 12.5 0 0 0 -1 I I #
edge $-1 $746 -3.141592653589793116 $724 0 $664 $754 forward 7 unknown #
coedge $-1 $729 $665 $745 $755 reversed $703 $-1 #
coedge $-1 $665 $709 $667 $726 forward $703 $-1 #
vertex $-1 $721 $756 #
straight-curve $-1 -20 -15 15 0 -1 0 I I #
edge $-1 $711 -3.75 $668 11.25 $723 $757 forward 7 unknown #
point $-1 -20 -27.5 15 #
straight-curve $-1 20 -27.5 3.75 0 0 -1 I I #
coedge $-1 $748 $722 $674 $730 reversed $703 $-1 #
edge $-1 $731 -22.5 $758 -7.5 $674 $759 forward 7 unknown #
vertex $-1 $676 $760 #
point $-1 20 -37.5 -15 #
point $-1 -7 12.5 -15 #
straight-curve $-1 -40 -37.5 0 -0 0 -1 I I #
point $-1 -40 -37.5 15 #
edge $-1 $758 0 $738 3.141592653589793116 $690 $761 forward 7 unknown #
coedge $-1 $691 $742 $693 $740 reversed $648 $-1 #
vertex $-1 $736 $762 #
straight-curve $-1 -30 -15 -15 0 -1 0 I I #
edge $-1 $695 -15 $744 15 $693 $763 forward 7 unknown #
point $-1 -30 -37.5 -15 #
coedge $-1 $737 $705 $697 $743 reversed $648 $-1 #
edge $-1 $744 -22.5 $746 -7.5 $697 $764 forward 7 unknown #
vertex $-1 $699 $765 #
coedge $-1 $707 $706 $722 $755 forward $583 $-1 #
vertex $-1 $721 $766 #
straight-curve $-1 -30 -22.5 0 0 0 -1 I I #
coedge $-1 $709 $729 $713 $751 reversed $703 $-1 #
straight-curve $-1 -20 -31.25 0 0 1 -0 I I #
point $-1 -20 -27.5 0 #
edge $-1 $715 0 $731 15 $713 $767 forward 7 unknown #
point $-1 -20 -37.5 0 #
straight-curve $-1 20 -37.5 0 -0 0 1 I I #
ellipse-curve $-1 -25 -22.5 15 -0 -0 -1 5 0 0 1 I I #
edge $-1 $758 -15 $724 15 $722 $768 reversed 7 unknown #
point $-1 -20 -22.5 15 #
straight-curve $-1 -20 -27.5 3.75 0 0 1 I I #
vertex $-1 $736 $769 #
straight-curve $-1 -20 -15 -15 0 1 -0 I I #
point $-1 -20 -37.5 -15 #
ellipse-curve $-1 -25 -22.5 -15 0 0 1 5 0 0 1 I I #
point $-1 -30 -22.5 -15 #
straight-curve $-1 -30 -37.5 0 -0 0 1 I I #
straight-curve $-1 -30 -15 15 0 1 0 I I #
point $-1 -30 -37.5 15 #
point $-1 -30 -22.5 15 #
straight-curve $-1 -20 -37.5 0 -0 0 -1 I I #
straight-curve $-1 -20 -22.5 0 0 0 -1 I I #
point $-1 -20 -22.5 -15 #
End-of-ACIS-data 