  0
SECTION
  2
HEADER
  9
$ACADVER
  1
AC1009
  9
$INSBASE
 10
0.0
 20
0.0
 30
0.0
  9
$EXTMIN
 10
-16.173034
 20
-14.141724
 30
-0.349396
  9
$EXTMAX
 10
14.0
 20
15.0
 30
6.987914
  9
$LIMMIN
 10
0.0
 20
0.0
  9
$LIMMAX
 10
12.0
 20
9.0
  9
$ORTHOMODE
 70
     0
  9
$REGENMODE
 70
     1
  9
$FILLMODE
 70
     1
  9
$QTEXTMODE
 70
     0
  9
$MIRRTEXT
 70
     1
  9
$DRAGMODE
 70
     2
  9
$LTSCALE
 40
1.0
  9
$OSMODE
 70
     0
  9
$ATTMODE
 70
     1
  9
$TEXTSIZE
 40
0.2
  9
$TRACEWID
 40
0.05
  9
$TEXTSTYLE
  7
STANDARD
  9
$CLAYER
  8
0
  9
$CELTYPE
  6
BYLAYER
  9
$CECOLOR
 62
   256
  9
$DIMSCALE
 40
1.0
  9
$DIMASZ
 40
0.18
  9
$DIMEXO
 40
0.0625
  9
$DIMDLI
 40
0.38
  9
$DIMRND
 40
0.0
  9
$DIMDLE
 40
0.0
  9
$DIMEXE
 40
0.18
  9
$DIMTP
 40
0.0
  9
$DIMTM
 40
0.0
  9
$DIMTXT
 40
0.18
  9
$DIMCEN
 40
0.09
  9
$DIMTSZ
 40
0.0
  9
$DIMTOL
 70
     0
  9
$DIMLIM
 70
     0
  9
$DIMTIH
 70
     1
  9
$DIMTOH
 70
     1
  9
$DIMSE1
 70
     0
  9
$DIMSE2
 70
     0
  9
$DIMTAD
 70
     0
  9
$DIMZIN
 70
     0
  9
$DIMBLK
  1

  9
$DIMASO
 70
     1
  9
$DIMSHO
 70
     1
  9
$DIMPOST
  1

  9
$DIMAPOST
  1

  9
$DIMALT
 70
     0
  9
$DIMALTD
 70
     2
  9
$DIMALTF
 40
25.4
  9
$DIMLFAC
 40
1.0
  9
$DIMTOFL
 70
     0
  9
$DIMTVP
 40
0.0
  9
$DIMTIX
 70
     0
  9
$DIMSOXD
 70
     0
  9
$DIMSAH
 70
     0
  9
$DIMBLK1
  1

  9
$DIMBLK2
  1

  9
$DIMSTYLE
  2
*UNNAMED
  9
$DIMCLRD
 70
     0
  9
$DIMCLRE
 70
     0
  9
$DIMCLRT
 70
     0
  9
$DIMTFAC
 40
1.0
  9
$DIMGAP
 40
0.09
  9
$LUNITS
 70
     2
  9
$LUPREC
 70
     4
  9
$SKETCHINC
 40
0.1
  9
$FILLETRAD
 40
0.0
  9
$AUNITS
 70
     0
  9
$AUPREC
 70
     0
  9
$MENU
  1
acad
  9
$ELEVATION
 40
0.0
  9
$PELEVATION
 40
0.0
  9
$THICKNESS
 40
0.0
  9
$LIMCHECK
 70
     0
  9
$BLIPMODE
 70
     1
  9
$CHAMFERA
 40
0.0
  9
$CHAMFERB
 40
0.0
  9
$SKPOLY
 70
     0
  9
$TDCREATE
 40
2449408.808223437
  9
$TDUPDATE
 40
2449444.049135833
  9
$TDINDWG
 40
0.0390386574
  9
$TDUSRTIMER
 40
0.0390386574
  9
$USRTIMER
 70
     1
  9
$ANGBASE
 50
0.0
  9
$ANGDIR
 70
     0
  9
$PDMODE
 70
     0
  9
$PDSIZE
 40
0.0
  9
$PLINEWID
 40
0.0
  9
$COORDS
 70
     1
  9
$SPLFRAME
 70
     0
  9
$SPLINETYPE
 70
     6
  9
$SPLINESEGS
 70
     8
  9
$ATTDIA
 70
     0
  9
$ATTREQ
 70
     1
  9
$HANDLING
 70
     1
  9
$HANDSEED
  5
D4
  9
$SURFTAB1
 70
     6
  9
$SURFTAB2
 70
     6
  9
$SURFTYPE
 70
     6
  9
$SURFU
 70
     6
  9
$SURFV
 70
     6
  9
$UCSNAME
  2

  9
$UCSORG
 10
0.0
 20
0.0
 30
0.0
  9
$UCSXDIR
 10
1.0
 20
0.0
 30
0.0
  9
$UCSYDIR
 10
0.0
 20
1.0
 30
0.0
  9
$PUCSNAME
  2

  9
$PUCSORG
 10
0.0
 20
0.0
 30
0.0
  9
$PUCSXDIR
 10
1.0
 20
0.0
 30
0.0
  9
$PUCSYDIR
 10
0.0
 20
1.0
 30
0.0
  9
$USERI1
 70
     0
  9
$USERI2
 70
     0
  9
$USERI3
 70
     0
  9
$USERI4
 70
     0
  9
$USERI5
 70
     0
  9
$USERR1
 40
0.0
  9
$USERR2
 40
0.0
  9
$USERR3
 40
0.0
  9
$USERR4
 40
0.0
  9
$USERR5
 40
0.0
  9
$WORLDVIEW
 70
     1
  9
$SHADEDGE
 70
     3
  9
$SHADEDIF
 70
    70
  9
$TILEMODE
 70
     1
  9
$MAXACTVP
 70
    16
  9
$PINSBASE
 10
0.0
 20
0.0
 30
0.0
  9
$PLIMCHECK
 70
     0
  9
$PEXTMIN
 10
1.000000E+20
 20
1.000000E+20
 30
1.000000E+20
  9
$PEXTMAX
 10
-1.000000E+20
 20
-1.000000E+20
 30
-1.000000E+20
  9
$PLIMMIN
 10
0.0
 20
0.0
  9
$PLIMMAX
 10
12.0
 20
9.0
  9
$UNITMODE
 70
     0
  9
$VISRETAIN
 70
     0
  9
$PLINEGEN
 70
     0
  9
$PSLTSCALE
 70
     1
  9
$TREEDEPTH
 70
  3020
  9
$DWGCODEPAGE
  3
ascii
  0
ENDSEC
  0
SECTION
  2
TABLES
  0
TABLE
  2
VPORT
 70
     2
  0
VPORT
  2
*ACTIVE
 70
     0
 10
0.0
 20
0.0
 11
1.0
 21
1.0
 12
1.579345
 22
3.382883
 13
0.0
 23
0.0
 14
1.0
 24
1.0
 15
0.0
 25
0.0
 16
1.0
 26
2.0
 36
1.0
 17
0.0
 27
0.0
 37
0.0
 40
23.293048
 41
1.594883
 42
50.0
 43
0.0
 44
0.0
 50
0.0
 51
0.0
 71
     0
 72
   100
 73
     1
 74
     1
 75
     0
 76
     0
 77
     0
 78
     0
  0
ENDTAB
  0
TABLE
  2
LTYPE
 70
     1
  0
LTYPE
  2
CONTINUOUS
 70
    64
  3
Solid line
 72
    65
 73
     0
 40
0.0
  0
ENDTAB
  0
TABLE
  2
LAYER
 70
     3
  0
LAYER
  2
0
 70
    64
 62
     7
  6
CONTINUOUS
  0
LAYER
  2
AME_FRZ
 70
    65
 62
     7
  6
CONTINUOUS
  0
LAYER
  2
ASHADE
 70
     0
 62
     7
  6
CONTINUOUS
  0
ENDTAB
  0
TABLE
  2
STYLE
 70
     2
  0
STYLE
  2
STANDARD
 70
     0
 40
0.0
 41
1.0
 50
0.0
 71
     0
 42
0.2
  3
txt
  4

  0
STYLE
  2
ASHADE
 70
     0
 40
0.2
 41
1.0
 50
0.0
 71
     0
 42
0.2
  3
simplex
  4

  0
ENDTAB
  0
TABLE
  2
VIEW
 70
     0
  0
ENDTAB
  0
TABLE
  2
UCS
 70
     0
  0
ENDTAB
  0
TABLE
  2
APPID
 70
     4
  0
APPID
  2
ACAD
 70
    64
  0
APPID
  2
AME_SOL
 70
    64
  0
APPID
  2
AVE_INVOKE
 70
    64
  0
ENDTAB
  0
TABLE
  2
DIMSTYLE
 70
     0
  0
ENDTAB
  0
ENDSEC
  0
SECTION
  2
BLOCKS
  0
BLOCK
  8
0
  5
1
  2
AME_NIL
 70
    64
 10
0.0
 20
0.0
 30
0.0
  1
AME_NIL
  3
AME_NIL
  0
ENDBLK
  8
0
  5
2
  0
BLOCK
  8
0
  5
4
  2
AME_SOL
 70
    64
 10
0.0
 20
0.0
 30
0.0
  1
AME_SOL
  3
AME_SOL
  0
ENDBLK
  8
0
  5
5
  0
BLOCK
  8
0
  5
42
  2
AME_JNK
 70
     0
 10
0.0
 20
0.0
 30
0.0
  1
AME_JNK
  3
AME_JNK
  0
ENDBLK
  8
0
  5
43
  0
BLOCK
  8
0
  5
45
  2
AVE_RENDER
 70
     0
 10
0.0
 20
0.0
 30
0.0
  1
AVE_RENDER
  3
AVE_RENDER
  0
ENDBLK
  8
0
  5
46
  0
BLOCK
  8
0
  5
70
  2
SOLAXES
 70
     0
 10
0.0
 20
0.0
 30
0.0
  1
SOLAXES
  3
SOLAXES
  0
LINE
  8
0
 62
     0
  5
71
 10
0.0
 20
0.0
 30
0.0
 11
6.987914
 21
0.0
 31
0.0
  0
LINE
  8
0
 62
     0
  5
72
 10
0.0
 20
0.0
 30
0.0
 11
0.0
 21
6.987914
 31
0.0
  0
LINE
  8
0
 62
     0
  5
73
 10
0.0
 20
0.0
 30
0.0
 11
0.0
 21
0.0
 31
6.987914
  0
CIRCLE
  8
0
 62
     0
  5
74
 10
0.0
 20
0.0
 30
6.289123
 40
0.349396
210
1.0
220
0.0
230
0.0
  0
LINE
  8
0
 62
     0
  5
75
 10
6.289123
 20
0.349396
 30
0.0
 11
6.987914
 21
0.0
 31
0.0
  0
LINE
  8
0
 62
     0
  5
76
 10
6.289123
 20
0.0
 30
0.349396
 11
6.987914
 21
0.0
 31
0.0
  0
LINE
  8
0
 62
     0
  5
77
 10
6.289123
 20
-0.349396
 30
0.0
 11
6.987914
 21
0.0
 31
0.0
  0
LINE
  8
0
 62
     0
  5
78
 10
6.289123
 20
0.0
 30
-0.349396
 11
6.987914
 21
0.0
 31
0.0
  0
CIRCLE
  8
0
 62
     0
  5
79
 10
0.0
 20
0.0
 30
6.289123
 40
0.349396
210
0.0
220
1.0
230
0.0
  0
LINE
  8
0
 62
     0
  5
7A
 10
0.349396
 20
6.289123
 30
0.0
 11
0.0
 21
6.987914
 31
0.0
  0
LINE
  8
0
 62
     0
  5
7B
 10
0.0
 20
6.289123
 30
0.349396
 11
0.0
 21
6.987914
 31
0.0
  0
LINE
  8
0
 62
     0
  5
7C
 10
-0.349396
 20
6.289123
 30
0.0
 11
0.0
 21
6.987914
 31
0.0
  0
LINE
  8
0
 62
     0
  5
7D
 10
0.0
 20
6.289123
 30
-0.349396
 11
0.0
 21
6.987914
 31
0.0
  0
CIRCLE
  8
0
 62
     0
  5
7E
 10
0.0
 20
0.0
 30
5.590331
 40
0.349396
210
0.0
220
1.0
230
0.0
  0
LINE
  8
0
 62
     0
  5
7F
 10
0.349396
 20
5.590331
 30
0.0
 11
0.0
 21
6.289123
 31
0.0
  0
LINE
  8
0
 62
     0
  5
80
 10
0.0
 20
5.590331
 30
0.349396
 11
0.0
 21
6.289123
 31
0.0
  0
LINE
  8
0
 62
     0
  5
81
 10
-0.349396
 20
5.590331
 30
0.0
 11
0.0
 21
6.289123
 31
0.0
  0
LINE
  8
0
 62
     0
  5
82
 10
0.0
 20
5.590331
 30
-0.349396
 11
0.0
 21
6.289123
 31
0.0
  0
CIRCLE
  8
0
 62
     0
  5
83
 10
0.0
 20
0.0
 30
6.289123
 40
0.349396
  0
LINE
  8
0
 62
     0
  5
84
 10
0.349396
 20
0.0
 30
6.289123
 11
0.0
 21
0.0
 31
6.987914
  0
LINE
  8
0
 62
     0
  5
85
 10
0.0
 20
0.349396
 30
6.289123
 11
0.0
 21
0.0
 31
6.987914
  0
LINE
  8
0
 62
     0
  5
86
 10
-0.349396
 20
0.0
 30
6.289123
 11
0.0
 21
0.0
 31
6.987914
  0
LINE
  8
0
 62
     0
  5
87
 10
0.0
 20
-0.349396
 30
6.289123
 11
0.0
 21
0.0
 31
6.987914
  0
CIRCLE
  8
0
 62
     0
  5
88
 10
0.0
 20
0.0
 30
5.590331
 40
0.349396
  0
LINE
  8
0
 62
     0
  5
89
 10
0.349396
 20
0.0
 30
5.590331
 11
0.0
 21
0.0
 31
6.289123
  0
LINE
  8
0
 62
     0
  5
8A
 10
0.0
 20
0.349396
 30
5.590331
 11
0.0
 21
0.0
 31
6.289123
  0
LINE
  8
0
 62
     0
  5
8B
 10
-0.349396
 20
0.0
 30
5.590331
 11
0.0
 21
0.0
 31
6.289123
  0
LINE
  8
0
 62
     0
  5
8C
 10
0.0
 20
-0.349396
 30
5.590331
 11
0.0
 21
0.0
 31
6.289123
  0
CIRCLE
  8
0
 62
     0
  5
8D
 10
0.0
 20
0.0
 30
4.89154
 40
0.349396
  0
LINE
  8
0
 62
     0
  5
8E
 10
0.349396
 20
0.0
 30
4.89154
 11
0.0
 21
0.0
 31
5.590331
  0
LINE
  8
0
 62
     0
  5
8F
 10
0.0
 20
0.349396
 30
4.89154
 11
0.0
 21
0.0
 31
5.590331
  0
LINE
  8
0
 62
     0
  5
90
 10
-0.349396
 20
0.0
 30
4.89154
 11
0.0
 21
0.0
 31
5.590331
  0
LINE
  8
0
 62
     0
  5
91
 10
0.0
 20
-0.349396
 30
4.89154
 11
0.0
 21
0.0
 31
5.590331
  0
ENDBLK
  8
0
  5
92
  0
BLOCK
  8
0
  5
B6
  2
*U8
 70
    65
 10
0.0
 20
0.0
 30
0.0
  1
*U
  3
*U
  0
LINE
  8
0
 62
     7
  5
B7
 10
13.0
 20
10.0
 30
0.0
 11
13.0
 21
10.0
 31
3.0
1001
AME_SOL
1070
     1
1071
       32
  0
LINE
  8
0
 62
     7
  5
B8
 10
13.0
 20
0.641101
 30
3.0
 11
13.0
 21
0.0
 31
3.0
1001
AME_SOL
1070
     1
1071
       31
  0
LINE
  8
0
 62
     7
  5
B9
 10
13.0
 20
10.0
 30
3.0
 11
13.0
 21
9.358899
 31
3.0
1001
AME_SOL
1070
     1
1071
       30
  0
LINE
  8
0
 62
     7
  5
BA
 10
12.660254
 20
10.0
 30
3.0
 11
13.0
 21
10.0
 31
3.0
1001
AME_SOL
1070
     1
1071
       29
  0
LINE
  8
0
 62
     7
  5
BB
 10
0.0
 20
10.0
 30
0.0
 11
0.0
 21
10.0
 31
1.0
1001
AME_SOL
1070
     1
1071
       28
  0
LINE
  8
0
 62
     7
  5
BC
 10
0.0
 20
0.0
 30
0.0
 11
0.0
 21
0.0
 31
1.0
1001
AME_SOL
1070
     1
1071
       27
  0
LINE
  8
0
 62
     7
  5
BD
 10
13.0
 20
0.0
 30
3.0
 11
13.0
 21
0.0
 31
0.0
1001
AME_SOL
1070
     1
1071
       26
  0
LINE
  8
0
 62
     7
  5
BE
 10
12.660254
 20
0.0
 30
3.0
 11
13.0
 21
0.0
 31
3.0
1001
AME_SOL
1070
     1
1071
       25
  0
LINE
  8
0
 62
     7
  5
BF
 10
0.0
 20
0.0
 30
0.0
 11
13.0
 21
0.0
 31
0.0
1001
AME_SOL
1070
     1
1071
       24
  0
LINE
  8
0
 62
     7
  5
C0
 10
0.0
 20
10.0
 30
0.0
 11
0.0
 21
0.0
 31
0.0
1001
AME_SOL
1070
     1
1071
       23
  0
LINE
  8
0
 62
     7
  5
C1
 10
13.0
 20
0.0
 30
0.0
 11
13.0
 21
10.0
 31
0.0
1001
AME_SOL
1070
     1
1071
       22
  0
LINE
  8
0
 62
     7
  5
C2
 10
13.0
 20
10.0
 30
0.0
 11
0.0
 21
10.0
 31
0.0
1001
AME_SOL
1070
     1
1071
       21
  0
LINE
  8
0
 62
     7
  5
C3
 10
0.0
 20
0.0
 30
1.0
 11
12.660254
 21
0.0
 31
1.0
1001
AME_SOL
1070
     1
1071
       20
  0
LINE
  8
0
 62
     7
  5
C4
 10
0.0
 20
10.0
 30
1.0
 11
0.0
 21
0.0
 31
1.0
1001
AME_SOL
1070
     1
1071
       19
  0
LINE
  8
0
 62
     7
  5
C5
 10
13.0
 20
0.641101
 30
1.0
 11
13.0
 21
9.358899
 31
1.0
1001
AME_SOL
1070
     1
1071
       18
  0
LINE
  8
0
 62
     7
  5
C6
 10
12.660254
 20
10.0
 30
1.0
 11
0.0
 21
10.0
 31
1.0
1001
AME_SOL
1070
     1
1071
       17
  0
ARC
  8
0
 62
     7
  5
C7
 10
4.0
 20
5.0
 30
1.0
 40
10.0
 50
25.841933
 51
30.0
1001
AME_SOL
1070
     1
1071
       16
  0
ARC
  8
0
 62
     7
  5
C8
 10
4.0
 20
5.0
 30
1.0
 40
10.0
 50
330.0
 51
334.158067
1001
AME_SOL
1070
     1
1071
       15
  0
LINE
  8
0
 62
     7
  5
C9
 10
12.660254
 20
0.0
 30
1.0
 11
12.660254
 21
0.0
 31
3.0
1001
AME_SOL
1070
     1
1071
       14
  0
LINE
  8
0
 62
     7
  5
CA
 10
13.0
 20
0.641101
 30
1.0
 11
13.0
 21
0.641101
 31
3.0
1001
AME_SOL
1070
     1
1071
       13
  0
LINE
  8
0
 62
     7
  5
CB
 10
13.0
 20
9.358899
 30
1.0
 11
13.0
 21
9.358899
 31
3.0
1001
AME_SOL
1070
     1
1071
       12
  0
LINE
  8
0
 62
     7
  5
CC
 10
12.660254
 20
10.0
 30
1.0
 11
12.660254
 21
10.0
 31
3.0
1001
AME_SOL
1070
     1
1071
       11
  0
ARC
  8
0
 62
     7
  5
CD
 10
4.0
 20
5.0
 30
3.0
 40
10.0
 50
25.841933
 51
30.0
1001
AME_SOL
1070
     1
1071
       10
  0
ARC
  8
0
 62
     7
  5
CE
 10
4.0
 20
5.0
 30
3.0
 40
10.0
 50
330.0
 51
334.158067
1001
AME_SOL
1070
     1
1071
        9
  0
ENDBLK
  8
0
  5
CF
  0
ENDSEC
  0
SECTION
  2
ENTITIES
  0
INSERT
  8
AME_FRZ
  5
15
  2
AME_NIL
 10
0.0
 20
0.0
 30
0.0
1001
AME_SOL
1002
{
1070
     1
1071
  2426768
1070
  1536
1070
     0
1010
13.0
1020
10.0
1030
3.0
1005
0
1005
0
1005
3F
1040
0.0
1040
1.0
1070
     0
1000
MILD_STEEL
1000
0
1010
0.0
1020
0.0
1030
0.0
1010
0.0
1020
0.0
1030
1.0
1040
0.0
1002
}
  0
INSERT
  8
AME_FRZ
  5
21
  2
AME_NIL
 10
4.0
 20
5.0
 30
1.0
1001
AME_SOL
1002
{
1070
     1
1071
  2434040
1070
  1538
1070
     0
1010
10.0
1020
10.0
1030
2.0
1005
0
1005
0
1005
3F
1040
0.0
1040
1.0
1070
     0
1000
MILD_STEEL
1000
0
1010
4.0
1020
5.0
1030
1.0
1010
0.0
1020
0.0
1030
1.0
1040
0.0
1002
}
  0
INSERT
  8
AME_FRZ
  5
40
  2
AME_NIL
 10
1.0
 20
1.0
 30
1.0
1001
AME_SOL
1004
C7CF01001B018D018C018A0186017E01700161014C0134015F002D001800250062014D013501200112010701CA00C30008016800A900110004005D004E01600036011A00210119002F0071015400E2007F017201FE00020073014F0063014F018400140050016E00420087018001FF007401640196005101
1004
3701DF00980038012900DD000100810175012A0065015201C4003901C1007D0053014E003A01E000EF007601660154013B0122010C002C0023013700D1003C0124014D00130103009A00250114011E00220015012600E80055018300520020008B018801820177016701750056013D0193009C003E012601
1004
1601E400D9000700FC000800400083017801BF00680127005701C000A4007901690158013F01A000EA00400127012300570028013B00410059019F0041012901510017015C000600B8006A015A01420178002E00A8007100890184017A016B015B0143018E00880044012A018C008F002B01F800F2005C01
1004
45012C017E0066002D01EB00380046012E017300A3002F01DC001801210032006C0180005D01470130011901E600B7001A01D400A20031011B01BE0009010F00FA001C010A011B0091000B0134004A00480132011D010C015800C8000D01640065001E010E01B2006F000F0101010900000102010D008B00
1004
05007B016D015E014901FB0092004A01550033011F01100103012800300004013100E700110105015000D0000601CF00CB0077001000F00085017C0124003F007D016E0182005F01FD00EE006F016001D8004B01D500F70090000000589CA589CA0436817439084CEDF68CBE78620C13501563C310609A8E
1004
AB3C3C310609FA8D579151889C290457915188AE523E68F4B4BA7A292FB41874678620C13501563C310609A8EAB3D3DA2C814D66F75AAF22A311385208AF22A3115CA47CD1E96974F4525D626CC9A4064265DA6FD626DFEDBBFFFFFFFB6EFFFED53F8EA7F6DD67FF713FB89FFFFFF589B7FB6EFFFFFFFEDB
1004
BFFFB54FE3A9FDB759FFDC4FEE27FFFFF6D43916272B9441FEDBBFFFFFFFB6EFFFE02AC37C753FB6E8B5EC50280B1AC2310545EC50280B1AC2310002FF9C8B1179441FEDBBFFFFFFFB6EFFB3A10842119A93F8EAB7EDBA2D7B140A02C6B08C41517B140A02C6B08C4000BFE722C4BE5107FB6EFFFFFFFEDB
1004
BFFF9C29FC753FB6E8B5EC50280B1AC2310545EC50280B1AC2310002FF9C8B1F2883FDB77FFFFFFF6DDFF67421084233527F5CA7F6DD16BD8A050163584620A8BD8A050163584620005FF6830EB6E78620C13501563C310609A8EAB3D3DA2C814D66F75AAF22A311385208AF22A3115CA4E982D0756C59DB
1004
74B8E1B031D8190997040E386DFEDBBFFFFFD97EDA9FD97ED53F8EA7F6DD67FFFFFFFFFFC70DBFDB77FFFFFB2FDB53FB2FDAA7F1D4FEDBACFFFFFFFFFFEDA8D061C137878620C13F51E1E188304FD47878620C13F51AAF22A311312D57915188B897878620C13F74B8E1B2EB4EE4BE5D8F978E1B7FFFB6EF
1004
FFEDBBFFFFFFFFFECFFFFFFFFFFF8E1B7FFFB6EFFFEDBBFFFFFFFFFECFFFFFFFFFFEDBAD061D6DDE1E188304FD47878620C13F51E1E188304FD46ABC8A8C44C4BC3C310609FBA3E68F4B4BA7A292E386CB742B92F97699178E1B7FB6EFFFFFFFFFEDBBFFFFFECFFFFFFFFFFF8E1B7FB6EFFFFFFFFFEDBBFF
1004
FFFECFFFFFFFFFFEDBAD061C137878620C13F51E1E188304FD47878620C13F51E1E188304FDD6ABC8A8C45C48F9A3D2D2E9E8A4B8E1B305A2E4BE5DA625E386DFFFFFEDBBFFFB6EFFFFFFFFB3FFFFFFFFFFE386DFFFFFEDBBFFFB6EFFFFFFFFB3FFFFFFFFFFB6EB41875B77878620C13F51E1E188304FD45
1004
1661419652A21A96ABC8A8C44C4B55E454622E247CD1E96974F4525C70D96084725F2E0F978E1B7FB6A7F65FD97F65FB6A7F65F989FDC4FE8A59FFFFFFFFFFF1C36FF6D4FECBFB2FECBF6D4FECBF313FB89FD14B3FFFFFFFFFFB6EB41875B77878620C13F51B605F1F4FB5912F0F0C41827EA355E4546226
1004
25AAF22A3117123E68F4B4BA7A292E386CB83A725F2EB92F1C36FFB2FECBF6D4FDB53FB2FECBF313FB89FD14B3FFFFFFFFFFE386DFF65FD97EDA9FB6A7F65FD97E627F713FA2967FFFFFFFFFF6DD6830E8DB605F1F4FB2B25E1E188304FD47878620C13F51AAF22A311312D57915188B891F347A5A5D3D14
1004
971C367C1E725F2E012F1C36FFB2FDB53FB2FECBFB2FDB53F313FB89FD14B3FFFFFFFFFFE386DFF65FB6A7F65FD97F65FB6A7E627F713FA2967FFFFFFFFFF6DD577B7878620C13F51E1E188304FD451661419652A21A96ABC8A8C44C4B55E454622E247CD1E96974F452C4B180162CECD46E50AAB968B0AB
1004
4576394168740550001E5C8464D20358211CE2D608472C9A4065F2108443A0FF6DDFFFFFFFDB77FFF6A9FC753FA2904FF713FB896258C00B16766A3728555CB45855A2BB1CA2BBDBC3C310609FA8F0F0C41827EA28B30A0CB29510D4B55E454622625AAF22A3117123E68F4B4BA7A292AAE5A2C2AD15D8E7
1004
58963002C59D9A8DCE8B43A05C1CF739721193480D6084738B58211CB2690197C842110E83FDB77FFFFFFF6DDFFFDAA7F1D4FE8A413FDC4FEE24AAB968B0AB457639D6258C00B16766A373AAEF6F0F0C41827EA36C0BE3E9F6B225E9ED1640A6B37BAD579151889896ABC8A8C45C48F9A3D2D2E9E8A7FFFA
1004
45944055677B9C842EC9A406B83A738B64D2035C1D39210842F9441FEDBBFFFFFFFB6EFFAC41F388E3380ECAC9FDC4FEDBA2FFFFA55DEDB605F1F4FB2B25E1E188304FD47A7B459029ACDEEB55E454622625AAF22A3117123E68F4B4BA7A29FFFE9165102C17B9CB908C9A406F83CE716F83CE593480CBE4
1004
21085107FB6EFFFFFFFEDBBFFF989439CE63E72CD4CC4E6A7F6DD17FFFD2AEF6DB02F8FA7D9592F0F0C41827EA3D3DA2C814D66F75AAF22A311312D57915188B891F347A5A5D3D14FFFF48B2880DCBDCE421764D2037C1E738B64D2037C1E72421085F2883FDB77FFFFFFF6DDFFFCC48FBF2BADA66074861
1004
DFDB745FFFF4ABBDBC3C310609FA8F0F0C41827EA3D3DA2C814D66F75AAF22A311312F0F0C41827EE8F9A3D2D2E9E8A7FFFA459440084FB739721193480D6E85738B5BA15CB2690197C84210A20FF6DDFFFFFFFDB77FD620F9C4719C076564FFFEDBA2FFFFA55DECF0C41826A02AC78620C1351D567A7B45
1004
9029ACDEEB55E45462270A4115E454622B949D305A0EAD8B3B6EB12C60058B3B351B942AAE5A2C2AD15D8E505A1D02E18F01E421764D203063B03C5B26901831D81908421084221D07FB6EFFFFFFFEDBBFFFB54FE3A9FDB7413FDC4FEE258963002C59D9A8DCA15572D161568AEC728AEF678620C1350156
1004
3C310609A8EAB3D3DA2C814D66F75AAF22A311385208AF22A3115CA4E982D0756C59DB74AAB968B0AB457639D6258C00B16766A373A2D0E819C598B9C842EC9A4060C76078B64D203063B03210842108443A0FF6DDFFFFFFFDB77FFF6A9FC753FB6E827FB89FDC495572D161568AEC73AC4B180162CECD46
1004
E755DEDE1E188304FD46D817C7D3ED644BD3DA2C814D66F75AAF22A311312D57915188B893A60B41D5B1676DD664001E6660F2BB556FD8F2459440D3067701E5C84063B035C1D39C5AE0E9C831D8197C84210A20FFFF6DDFFFFFFFDB53F63C9FDC4FEDBA2D99000799983CAED55BF63C9577B6D817C7D3EC
1004
AC97878620C13F51E9ED1640A6B37BAD579151889896ABC8A8C45C49D305A0EAD8B3B6EB359C8CE4CDC74CEACD8AC73CE266D38CE0668F4E8B2880AA881E5C84063B037C1E738B7C1E720C76065F210842883FDB77FFFFFFFFF6D4FCC4FE7313FB6E8B66B3919C99B8E99D59B158E79C4CDA719C0CD1E9D5
1004
77B7878620C13F51E1E188304FD47A7B459029ACDEEBC3C310609FBAD57915188B893A60B41D5B1676DDFCE62B7E0948B2880059D8079721018EC0D82D1738B60B45C831D8197C84210A20FF6D4FFFFFFFFFDB53FFF04A7F6DD17F9CC56FC129577B7878620C13F51E1E188304FD47A7B459029ACDEEB55E
1004
454622625E1E188304FDD3A60B41D5B1676DDFEACB107CE238CE03B02916510008240F2E42031D81ADD0AE716B742B9063B032F908421441FFFEDA9FFFFFFFB6A7F4FFFEDBA2FFAB2C41F388E3380EC0A55DEDE1E188304FD46D817C7D3ED644BC3C310609FA8D579151889896ABC8A8C45C4BC3C310609F
1004
BBF8395BF07245944002CF03C842EBAD3B95C1D39C5AEB4EE57074E4BE5F2883FFFDB77FFFFFFF6D4FC1C9FDC4FF8BFC1CADF8392AEF6DB02F8FA7D9592F0F0C41827EA3C3C310609FA8D579151889896ABC8A8C45C4BC3C310609FBBF8EAB7E3A9165102DDA0E7210BAEB4EE5F079CE2D75A772F83CE4BE
1004
5F2883FDB77FFFFFFFFF6D4FCC4FE3A9FF17F8EAB7E3A9577B7878620C13F51E1E188304FD47878620C13F51E1E188304FDD6ABC8A8C45C4BC3C310609FBBFB8ADFD90B28819C50EE7210BAEB4EE582D1738B5D69DCB05A2E4BE5F2883FDB53FFFFFFFFF6D4FFFFFF17FB8ADFD92BBDBC3C310609FA8F0F0
1004
C41827EA3C3C310609FA8D579151889897878620C13F75E1E188304FDDFFFCC48B2881F1E9CE42175D69DCADD0AE716BAD3B95BA15C97CBE5107FFFB6A7FFFFFFEDA9FFFFFE2FFFF312AEF6F0F0C41827EA3C3C310609FA8A2CC2832CA544352D579151889897878620C13F747CD1E96974F452CC8003CCC
1004
C1E57014FE0E48B2880DC082E7210BADD0AE56084738B5BA15CAC108E4BE5F2883FFFFFDB77FFF6D4FFFC1C9FFFD148B664001E6660F2B80A7F07255DEDB605F1F4FB2B25E1E188304FD47878620C13F51AAF22A311312F0F0C41827EE8F9A3D2D2E9E8A7F6194FD867459440F8B1739085D6E8572F83CE7
1004
16B742B97C1E725F2F9441FEDBBFFFFFFFB6A7FFE627FFF619D17FB0CA7EC33AAEF6F0F0C41827EA3C3C310609FA8F0F0C41827EA3C3C310609FBAF0F0C41827EE8F9A3D2D2E9E8A7FFF6DD1651034D19839C842EB742B960B45CE2D6E8572C168B92F97CA20FF6D4FFFFFFFDB53FFFFFFFC5FFFEDBAAEF6
1004
F0F0C41827EA36C0BE3E9F6B225E1E188304FD47878620C13F75AAF22A3117123E68F4B4BA7A29FD8653F37282CA204B4CDCE421760B45CAE0E9CE2D82D172B83A725F2F9441FFFEDBBFFFB6A7FFFFFFEE27F619D17FB0CA7E6E515DEDE1E188304FD46D817C7D3ED644A8B30A0CB29510D4B55E45462262
1004
5AAF22A3117123E68F4B4BA7A2934141C8659CD9A3E94FEC859440CE0F8E7210BAC108E57074E716B042395C1D392F97CA20FFFF6DDFFFFFFFDB77F313FB89FD148B34141C8659CD9A3E94FEC95DEDB605F1F4FB2B25E1E188304FD451661419652A21A96ABC8A8C44C4B55E454622E247CD1E96974F453F
1004
ECDEFCAEB69981D2187459440CE0865CE421758211CBE0F39C5AC108E5F079C97CBE5107FB6EFFFFFF65FFFB6EFE627F713FA2917FECDEFCAEB69981D218755DEDB605F1F4FB2B25E1E188304FD451661419652A21A96ABC8A8C44C4B55E454622E247CD1E96974F4528739CC7CE59A9989CD4FEE2459440
1004
BAD36739085D608472F83CE716B042397C1E725F2F9441FEDBBFFFFFD97FFEDBBF989FDC4FE8A45A1CE731F3966A6627353FB89577B6D817C7D3ECAC96D817C7D3ED644BC3C310609FA8D579151889896ABC8A8C45C48F9A3D2D2E9E8A7F455BFB2165102DDA6AE7210BAE0E9CBE0F39C5AE0E9CBE0F392F
1004
97CA20FF6DDFFFFFFFDB77FFF313FB89FD148BFD156FEC81E43B3B7F
1005
41
  0
INSERT
  8
AME_FRZ
  5
41
  2
AME_NIL
 10
1.0
 20
1.0
 30
1.0
1001
AME_SOL
1004

1005
0
  0
INSERT
  8
AME_FRZ
  5
96
  2
AME_NIL
 10
0.0
 20
0.0
 30
0.0
  0
INSERT
  8
AME_FRZ
  5
97
  2
AME_SOL
 10
0.0
 20
0.0
 30
0.0
1001
AME_SOL
1000
R2.1
1000
AME2
1000
sq cm
1070
     3
1070
     0
1070
     3
1000
wire
1040
45.0
1000
U
1040
1.0
1000
cm
1000
gm
1000
MILD_STEEL
1070
    25
1000
CSG
1070
     1
1070
     3
1070
     3
1070
     3
1070
     0
1000
cu cm
1070
     1
1070
     0
1005
96
  0
INSERT
  8
AME_FRZ
  5
A6
  2
AME_NIL
 10
0.0
 20
0.0
 30
0.0
1001
AME_SOL
1002
{
1070
     1
1071
  2438760
1070
  1536
1070
     1
1010
13.0
1020
10.0
1030
3.0
1005
0
1005
0
1005
D0
1040
0.0
1040
1.0
1070
     0
1000
MILD_STEEL
1000
0
1010
0.0
1020
0.0
1030
0.0
1010
0.0
1020
0.0
1030
1.0
1040
0.0
1002
}
1001
AVE_INVOKE
1000
SOLAVEMESH
  0
INSERT
  8
AME_FRZ
  5
B2
  2
AME_NIL
 10
4.0
 20
5.0
 30
1.0
1001
AME_SOL
1002
{
1070
     1
1071
  2407776
1070
  1538
1070
     1
1010
10.0
1020
10.0
1030
2.0
1005
0
1005
0
1005
D0
1040
0.0
1040
1.0
1070
     0
1000
MILD_STEEL
1000
0
1010
4.0
1020
5.0
1030
1.0
1010
0.0
1020
0.0
1030
1.0
1040
0.0
1002
}
1001
AVE_INVOKE
1000
SOLAVEMESH
  0
INSERT
  8
0
  5
D0
  2
*U8
 10
0.0
 20
0.0
 30
0.0
1001
AME_SOL
1002
{
1070
     1
1071
  2396696
1070
  1543
1070
     1
1070
     0
1005
A6
1005
B2
1005
0
1005
D1
1005
0
1040
0.0
1040
1.0
1070
     0
1000
MILD_STEEL
1000
0
1002
}
1001
AVE_INVOKE
1000
SOLAVEMESH
  0
INSERT
  8
AME_FRZ
  5
D1
  2
AME_NIL
 10
1.0
 20
1.0
 30
1.0
1001
AME_SOL
1004
C7CF01001F018F018E018C01880180017201FE00E200730102004F00810174016401500137011A0020012F00110108016D007000030084005101600014002500FF00890182017501650196005201A8002D0066015301420038012900DD0054013901C100DF00C400760190000100830177012A0067015501
1004
3A01E0007D004E0056013B01220083003C0121010C00190022012C00370078012400680157013D012301D1004D00240112011E0021001301260030003E0125011401E800E6001501E4006F00260116015C00B70017016400650080008D018A018401790120006901750058013F01FC0052004001EF00AC00
1004
400085017A0108006A01270059014101270118019A000901A9000F000700EA00A4007B01BF006B015A014201A00028004301280123003B002901410057005B01C0009F008B0186017C016C0171005C0144011B002A0151008F0045010500FB006D015D0146018E002E0047012B017E0088002C01F2007300
1004
5E0148012D0192008C002E01A300980049012F01DC0019010600320030011A016E00D4001B01A200BE007D016E015F015D004A0131011C010A01FA0034000B01D9004A001D010C019100B2000D01B000010100011D00F70060014B0118005E00FD00F00087017E016F01100082003F007F01700161014C01
1004
32011E010E0102013100ED000301D000CB000F010401C8006200050163006700AD0068004D01CA00D50062014E0133010400F80034015F0078004F013501EB003800360166001F011001060169006A0007016B006C00110071016301EE00D8005400000056887568875626397460C63D1AD3525F4010037E
1004
E1A8BC802006FDC09AF394010037E52CE180D518A1BC97BEC06A8C5192924276B5F22414497D8ECB294010037EE1A8BC802006FDC09AF35BE287DA0D28E75C301AA3143792F7D80D518A3252484ED6BE4482892EAD3529E47463CBBC0FAB4D7FDB77FFFFFFF6DDFFFDC27F134FEDBAC6FE727F393FFFFFEA
1004
D35FF6DDFFFFFFFDB77FFF709FC4D3FB6EB1BF9C9FCE4FFFFFEDAC78AB443F208BFDB77FFFFFFF6DDFFFDA8BC1FC4D3FB6E8560F6343519A6659426B07B1A1A8CD332CA3D45FF3C55A17208BFDB77FFFFFFF6DDFF69518C631AB1A7F135EFDB742B07B1A1A8CD332CA13583D8D0D466999651EA2FF9E2AD2
1004
F9045FEDBBFFFFFFFB6EFFFE6F27F134FEDBA1583D8D0D4669996509AC1EC686A334CCB28F517FCF156F9045FEDBBFFFFFFFB6EFFB4A8C6318D58D3FB253FB6E8560F6343519A6659426B07B1A1A8CD332CA3D45FF63B2CCEA802006FDC3517900400DFB8135E6B7C50FB41A51CEB8603546286F25EFB01A
1004
A31464A4DACAB1DD629766DD2E226A248F3A31E5DE5C44D7FDB77FFFFF9FFDB5BF9FFDC27F134FEDBAC6FFFFFFFFFF889AFFB6EFFFFFF3FFB6B7F3FFB84FE269FDB758DFFFFFFFFFDB598ECB3D172802006FCA59CA00801BF29672802006FCA59C301AA314312E180D518A1C972802006FCA74B889ABD6F0
1004
9D2F976765E226BFFFEDBBFFFB6EFFFFFFFFFFB1BFFFFFFFFFE226BFFFEDBBFFFB6EFFFFFFFFFFB1BFFFFFFFFFB6EB1D9667572802006FCA59CA00801BF29672802006FCA59C301AA314312E500400DF94E9213B5AF9120A24B889AAE1A0597CBBC00BC44D7FDB77FFFFFFFFF6DDFFFFFF637FFFFFFFFFC4
1004
4D7FDB77FFFFFFFFF6DDFFFFFF637FFFFFFFFF6DD63B2CF45CA00801BF29672802006FCA59CA00801BF29672802006FCA75C301AA314392484ED6BE4482892E226AFA6C165F2E79CBC44D7FFFFFDB77FFF6DDFFFFFFFF637FFFFFFFFFC44D7FFFFFDB77FFF6DDFFFFFFFF637FFFFFFFFF6DD63B2CCEAE500
1004
400DF94B394010037E52CB2EA1092EE4D5652E180D518A18970C06A8C50E49213B5AF9120A24B889AAE48C597CB8845E226BFEDADFCFFF3FFCFFEDADFCFFE627F393FA89637FFFFFFFFFC44D7FDB5BF9FFE7FF9FFDB5BF9FFCC4FE727F512C6FFFFFFFFFEDBAC76599D5CA00801BF2966D917D79B4D744B9
1004
4010037E52CE180D518A18970C06A8C50E49213B5AF9120A24B889ABEB10597CBB24BC44D7FE7FF9FFDB5BF6D6FE7FF9FFCC4FE727F512C6FFFFFFFFFF889AFFCFFF3FFB6B7EDADFCFFF3FF989FCE4FEA258DFFFFFFFFFDB758ECB296D917D79B4C94972802006FCA59CA00801BF29670C06A8C50C4B8603
1004
54628724909DAD7C8905125C44D5E2D5165F2E465E226BFF3FFB6B7F3FFCFFF3FFB6B7E627F393FA89637FFFFFFFFFC44D7FE7FF6D6FE7FF9FFE7FF6D6FCC4FE727F512C6FFFFFFFFFEDBAAEF8E500400DF94B394010037E52CB2EA1092EE4D5652E180D518A18970C06A8C50E49213B5AF9120A25EE65C8
1004
DED46930D0B336C96618B5F25B38B054622655A5E2F2E3194F23AB92317855C918B29E474BE318C68C45FEDBBFFFFFFFB6EFFFEE13F89A7F512F47F393F9C97B997237B51A4C342CCDB259862D7C96CE2CAEF8E500400DF94B394010037E52CB2EA1092EE4D5652E180D518A18970C06A8C50E49213B5AF9
1004
120A259B64B30C5AF92D9C75EE65C8DED46930D0E8546226967A85E5C6329E47572462F0AB9231653C8E97C6318D188BFDB77FFFFFFF6DDFFFDC27F134FEA25E8FE727F392CDB259862D7C96CE3AF732E46F6A349868755DF1CA00801BF2966D917D79B4D744B5BE287DA0D28E75C301AA314312E180D518
1004
A1C924276B5F224144FFFF485208889922F18CB94F23AFAC4178529E475F5882C6318CBE4117FB6EFFFFFFFEDBBFEAD108DF3C0DC469293F9C9FDB742FFFF4ABBE36C8BEBCDA64A4B94010037E52CD6F8A1F6834A39D70C06A8C50C4B860354628724909DAD7C890513FFFD2148227821BA2F2E3194F23AF
1004
16A8BC2BC5AA2CA791D2F8C6319045FEDBBFFFFFFFB6EFFFE625187999DAB0261ED3627F6DD0BFFFD2AEF8DB22FAF3699292E500400DF94B35BE287DA0D28E75C301AA314312E180D518A1C924276B5F224144FFFF4852088F3BC145E319729E475E2D5178529E475E2D516318C65F208BFDB77FFFFFFF6D
1004
DFFFCC492144B3D87A4DA7A9DFDB742FFFF4ABBE394010037E52CE500400DF94B35BE287DA0D28E75C301AA314312E500400DF94E9213B5AF9120A27FFFA42904479DE0C2F2E3194F23AB86817855C340B29E474BE318C64117FB6EFFFFFFFEDBBFEAD108DF3C0DC469293FFFB6E85FFFE9577C4010037EE
1004
1A8BC802006FDC09AF35BE287DA0D28E75C301AA3143792F7D80D518A32526D6558EEB14BB36EBDCCB91BDA8D261A1666D92CC316BE4B67160A8C4493DC2F18CB94F23A248F3B8529E474491E746318C6318D188BFDB77FFFFFFF6DDFFFDC27F134FEDBAF47F393F9C97B997237B51A4C342CCDB259862D7
1004
C96CE2CAEF8802006FDC3517900400DFB8135E6B7C50FB41A51CEB8603546286F25EFB01AA31464A4DACAB1DD629766DD66D92CC316BE4B671D7B997237B51A4C343A15188848F78BC632E53C8E8923CEE14A791D12479D18C6318C634622FF6DDFFFFFFFDB77FFF709FC4D3FB6EBD1FCE4FE7259B64B30C
1004
5AF92D9C75EE65C8DED46930D0EABBE394010037E52CDB22FAF369AE896B7C50FB41A51CEB860354628625C301AA3143926D6558EEB14BB36EB3D7A99E33E3755DC2F7E7952148223EF70BCB8C6248F3AFAC417857D620B12479D2F8C6319045FFFEDBBFFFFFFFB6B7E7953F9C9FDB742B3D7A99E33E3755
1004
DC2F7E7952AEF8DB22FAF3699292E500400DF94B35BE287DA0D28E75C301AA314312E180D518A1C936B2AC7758A5D9B75A40F13DCD226D3D6C45E3D06FB4A1E06E33F6B742904453C1C5E5C6312479D78B545E15E2D516248F3A5F18C63208BFDB77FFFFFFFFF6D6FCC4FE7913FB6E856903C4F73489B4F5
1004
B1178F41BED28781B8CFDADD577C72802006FCA59CA00801BF2966B7C50FB41A51CEB94010037E53AE180D518A1C936B2AC7758A5D9B77F3C8BDFBD090A4112E1E22F2E318923CEBE9B05E15F4D82C491E74BE318C64117FB6B7FFFFFFFFEDADFFFBD09FDB742FE7917BF7A12AEF8E500400DF94B3940100
1004
37E52CD6F8A1F6834A39D70C06A8C50C4B94010037E53A6D6558EEB14BB36EFF5E568846F9E06E23454852089A59EF02F2E318923CEAE1A05E1570D02C491E74BE318C64117FFFB6B7FFFFFFEDADFD3FFFB6E85FEBCAD108DF3C0DC468A9577C72802006FCA59B645F5E6D35D12E500400DF94B386035462
1004
8625C301AA314392E500400DF94EFE205EFC4090A4112F3DE45E31977ADE13AFAC417857ADE13AFAC4165F2F9045FFFEDBBFFFFFFFB6B7E204FE727FC2FE205EFC409577C6D917D79B4C94972802006FCA59CA00801BF29670C06A8C50C4B860354628725CA00801BF29DFC4D7BF134852089E04F7A178C6
1004
5DEB784EBC5AA2F0AF5BC275E2D5165F2F9045FEDBBFFFFFFFFFB6B7E627F134FF85FC4D7BF134ABBE394010037E52CE500400DF94B394010037E52CE500400DF94EB860354628725CA00801BF29DFCE5EFE7C29044687BD8BC632EF5BC275F4D82F0AF5BC275F4D82CBE5F208BFDB5BFFFFFFFFF6D6FFFF
1004
FF0BF9CBDFCFABBE394010037E52CE500400DF94B394010037E52CE180D518A18972802006FCA75CA00801BF29DFFFCC4852089B10C178C65DEB784EAE1A05E15EB784EAE1A0597CBE4117FFFB6B7FFFFFFEDADFFFFFE17FFF312AEF8E500400DF94B394010037E52CB2EA1092EE4D5652E180D518A18972
1004
802006FCA74909DAD7C890512CF5EA678CF8DD576A27F1024290453D62F18CBAE1A05AE48C5E1570D02D72462CBE5F208BFFFFFDB77FFF6D6FFFC409FFFD448567AF533C67C6EABB513F8812AEF8DB22FAF3699292E500400DF94B394010037E52CE180D518A18972802006FCA74909DAD7C890513FBD2B7
1004
EF4BA148227021A2F18CBAE1A05BC5AA2F0AB86816F16A8B2F97C822FF6DDFFFFFFFDB5BFFF313FFFBD2E85FDE95BF7A5D577C72802006FCA59CA00801BF29672802006FCA59CA00801BF29D72802006FCA74909DAD7C890513FFFB6E852088F42B4EE31975C340B7D360BC2AE1A05BE9B0597CBE4117FB6
1004
B7FFFFFFEDADFFFFFFFE17FFF6DD577C72802006FCA59B645F5E6D35D12E500400DF94B394010037E53AE180D518A1C924276B5F224144FEF4ADF9A160A4113D2F61DC632EFA6C16FAC417857D360B7D620B2F97C822FFFF6DDFFFDB5BFFFFFFF393FBD2E85FDE95BF342CAEF8E500400DF94B36C8BEBCDA
1004
6BA2565D42125DC9AACA5C301AA314312E180D518A1C924276B5F2241449384206923DECFDE6B7F3E1482251E027718CBAE48C5BEB105E1572462DF5882CBE5F208BFFFDB77FFFFFFF6DDFCC4FE727F512149C2103491EF67EF35BF9F577C6D917D79B4C94972802006FCA5965D42125DC9AACA5C301AA31
1004
4312E180D518A1C924276B5F224144FFB49944B3D87A4DA7A9D0A411351F0EE31975C918B78B545E1572462DE2D5165F2F9045FEDBBFFFFFCFFFFEDBBF989FCE4FEA242FFB49944B3D87A4DA7A9D577C6D917D79B4C94972802006FCA5965D42125DC9AACA5C301AA314312E180D518A1C924276B5F22414
1004
4A30F333B5604C3DA6C4FE72429044B9471DC632EB92316F16A8BC2AE48C5BC5AA2CBE5F208BFDB77FFFFF9FFFFDB77F313F9C9FD4485461E6676AC0987B4D89FCE4ABBE36C8BEBCDA64A4B6C8BEBCDA6BA25CA00801BF29670C06A8C50C4B860354628724909DAD7C890513FA8BDFCF852089ED6CEE3197
1004
7D620B78B545E15F5882DE2D5165F2F9045FEDBBFFFFFFFB6EFFFE627F393FA890BFA8BDFCF9BA8C6976
1005
D2
  0
INSERT
  8
AME_FRZ
  5
D2
  2
AME_NIL
 10
1.0
 20
1.0
 30
1.0
1001
AME_SOL
1004

1005
0
  0
ENDSEC
  0
EOF
