  0
SECTION
  2
HEADER
  9
$ACADVER
  1
AC1009
  9
$INSBASE
 10
0.0
 20
0.0
 30
0.0
  9
$EXTMIN
 10
0.0
 20
0.0
 30
0.0
  9
$EXTMAX
 10
5.0
 20
6.0
 30
5.0
  9
$LIMMIN
 10
0.0
 20
0.0
  9
$LIMMAX
 10
12.0
 20
9.0
  9
$ORTHOMODE
 70
     0
  9
$REGENMODE
 70
     1
  9
$FILLMODE
 70
     1
  9
$QTEXTMODE
 70
     0
  9
$MIRRTEXT
 70
     1
  9
$DRAGMODE
 70
     2
  9
$LTSCALE
 40
1.0
  9
$OSMODE
 70
     0
  9
$ATTMODE
 70
     1
  9
$TEXTSIZE
 40
0.2
  9
$TRACEWID
 40
0.05
  9
$TEXTSTYLE
  7
STANDARD
  9
$CLAYER
  8
0
  9
$CELTYPE
  6
BYLAYER
  9
$CECOLOR
 62
   256
  9
$DIMSCALE
 40
1.0
  9
$DIMASZ
 40
0.18
  9
$DIMEXO
 40
0.0625
  9
$DIMDLI
 40
0.38
  9
$DIMRND
 40
0.0
  9
$DIMDLE
 40
0.0
  9
$DIMEXE
 40
0.18
  9
$DIMTP
 40
0.0
  9
$DIMTM
 40
0.0
  9
$DIMTXT
 40
0.18
  9
$DIMCEN
 40
0.09
  9
$DIMTSZ
 40
0.0
  9
$DIMTOL
 70
     0
  9
$DIMLIM
 70
     0
  9
$DIMTIH
 70
     1
  9
$DIMTOH
 70
     1
  9
$DIMSE1
 70
     0
  9
$DIMSE2
 70
     0
  9
$DIMTAD
 70
     0
  9
$DIMZIN
 70
     0
  9
$DIMBLK
  1

  9
$DIMASO
 70
     1
  9
$DIMSHO
 70
     1
  9
$DIMPOST
  1

  9
$DIMAPOST
  1

  9
$DIMALT
 70
     0
  9
$DIMALTD
 70
     2
  9
$DIMALTF
 40
25.4
  9
$DIMLFAC
 40
1.0
  9
$DIMTOFL
 70
     0
  9
$DIMTVP
 40
0.0
  9
$DIMTIX
 70
     0
  9
$DIMSOXD
 70
     0
  9
$DIMSAH
 70
     0
  9
$DIMBLK1
  1

  9
$DIMBLK2
  1

  9
$DIMSTYLE
  2
*UNNAMED
  9
$DIMCLRD
 70
     0
  9
$DIMCLRE
 70
     0
  9
$DIMCLRT
 70
     0
  9
$DIMTFAC
 40
1.0
  9
$DIMGAP
 40
0.09
  9
$LUNITS
 70
     2
  9
$LUPREC
 70
     4
  9
$SKETCHINC
 40
0.1
  9
$FILLETRAD
 40
0.0
  9
$AUNITS
 70
     0
  9
$AUPREC
 70
     0
  9
$MENU
  1
acad
  9
$ELEVATION
 40
0.0
  9
$PELEVATION
 40
0.0
  9
$THICKNESS
 40
0.0
  9
$LIMCHECK
 70
     0
  9
$BLIPMODE
 70
     1
  9
$CHAMFERA
 40
0.0
  9
$CHAMFERB
 40
0.0
  9
$SKPOLY
 70
     0
  9
$TDCREATE
 40
2448833.539682071
  9
$TDUPDATE
 40
2448833.544170902
  9
$TDINDWG
 40
0.0044888310
  9
$TDUSRTIMER
 40
0.0044888310
  9
$USRTIMER
 70
     1
  9
$ANGBASE
 50
0.0
  9
$ANGDIR
 70
     0
  9
$PDMODE
 70
     0
  9
$PDSIZE
 40
0.0
  9
$PLINEWID
 40
0.0
  9
$COORDS
 70
     0
  9
$SPLFRAME
 70
     0
  9
$SPLINETYPE
 70
     6
  9
$SPLINESEGS
 70
     8
  9
$ATTDIA
 70
     0
  9
$ATTREQ
 70
     1
  9
$HANDLING
 70
     1
  9
$HANDSEED
  5
CD
  9
$SURFTAB1
 70
     6
  9
$SURFTAB2
 70
     6
  9
$SURFTYPE
 70
     6
  9
$SURFU
 70
     6
  9
$SURFV
 70
     6
  9
$UCSNAME
  2

  9
$UCSORG
 10
0.0
 20
0.0
 30
0.0
  9
$UCSXDIR
 10
1.0
 20
0.0
 30
0.0
  9
$UCSYDIR
 10
0.0
 20
1.0
 30
0.0
  9
$PUCSNAME
  2

  9
$PUCSORG
 10
0.0
 20
0.0
 30
0.0
  9
$PUCSXDIR
 10
1.0
 20
0.0
 30
0.0
  9
$PUCSYDIR
 10
0.0
 20
1.0
 30
0.0
  9
$USERI1
 70
     0
  9
$USERI2
 70
     0
  9
$USERI3
 70
     0
  9
$USERI4
 70
     0
  9
$USERI5
 70
     0
  9
$USERR1
 40
0.0
  9
$USERR2
 40
0.0
  9
$USERR3
 40
0.0
  9
$USERR4
 40
0.0
  9
$USERR5
 40
0.0
  9
$WORLDVIEW
 70
     1
  9
$SHADEDGE
 70
     3
  9
$SHADEDIF
 70
    70
  9
$TILEMODE
 70
     1
  9
$MAXACTVP
 70
    16
  9
$PINSBASE
 10
0.0
 20
0.0
 30
0.0
  9
$PLIMCHECK
 70
     0
  9
$PEXTMIN
 10
1.000000E+20
 20
1.000000E+20
 30
1.000000E+20
  9
$PEXTMAX
 10
-1.000000E+20
 20
-1.000000E+20
 30
-1.000000E+20
  9
$PLIMMIN
 10
0.0
 20
0.0
  9
$PLIMMAX
 10
12.0
 20
9.0
  9
$UNITMODE
 70
     0
  9
$VISRETAIN
 70
     0
  9
$PLINEGEN
 70
     0
  9
$PSLTSCALE
 70
     0
  9
$TREEDEPTH
 70
  3020
  9
$DWGCODEPAGE
  3
undefined
  0
ENDSEC
  0
SECTION
  2
TABLES
  0
TABLE
  2
VPORT
 70
     2
  0
VPORT
  2
*ACTIVE
 70
     0
 10
0.0
 20
0.0
 11
1.0
 21
1.0
 12
3.5388
 22
-0.055086
 13
0.0
 23
0.0
 14
1.0
 24
1.0
 15
0.0
 25
0.0
 16
1.0
 26
1.0
 36
1.0
 17
0.0
 27
0.0
 37
0.0
 40
8.87129
 41
1.594883
 42
50.0
 43
0.0
 44
0.0
 50
0.0
 51
0.0
 71
     0
 72
   100
 73
     1
 74
     1
 75
     0
 76
     0
 77
     0
 78
     0
  0
ENDTAB
  0
TABLE
  2
LTYPE
 70
     1
  0
LTYPE
  2
CONTINUOUS
 70
    64
  3
Solid line
 72
    65
 73
     0
 40
0.0
  0
ENDTAB
  0
TABLE
  2
LAYER
 70
     2
  0
LAYER
  2
0
 70
    64
 62
     7
  6
CONTINUOUS
  0
LAYER
  2
AME_FRZ
 70
    65
 62
     7
  6
CONTINUOUS
  0
ENDTAB
  0
TABLE
  2
STYLE
 70
     1
  0
STYLE
  2
STANDARD
 70
     0
 40
0.0
 41
1.0
 50
0.0
 71
     0
 42
0.2
  3
txt
  4

  0
ENDTAB
  0
TABLE
  2
VIEW
 70
     0
  0
ENDTAB
  0
TABLE
  2
UCS
 70
     0
  0
ENDTAB
  0
TABLE
  2
APPID
 70
     2
  0
APPID
  2
ACAD
 70
    64
  0
APPID
  2
AME_SOL
 70
    64
  0
ENDTAB
  0
TABLE
  2
DIMSTYLE
 70
     0
  0
ENDTAB
  0
ENDSEC
  0
SECTION
  2
BLOCKS
  0
BLOCK
  8
0
  5
1
  2
AME_NIL
 70
    64
 10
0.0
 20
0.0
 30
0.0
  1
AME_NIL
  3
AME_NIL
  0
ENDBLK
  8
0
  5
2
  0
BLOCK
  8
0
  5
4
  2
AME_SOL
 70
    64
 10
0.0
 20
0.0
 30
0.0
  1
AME_SOL
  3
AME_SOL
  0
ENDBLK
  8
0
  5
5
  0
BLOCK
  8
0
  5
7
  2
*U2
 70
    65
 10
0.0
 20
0.0
 30
0.0
  1
*U
  3
*U
  0
LINE
  8
0
 62
     0
  5
8
 10
5.0
 20
1.0
 30
0.0
 11
5.0
 21
1.0
 31
5.0
1001
AME_SOL
1070
     1
1071
       18
  0
LINE
  8
0
 62
     0
  5
9
 10
5.0
 20
1.0
 30
5.0
 11
5.0
 21
0.0
 31
5.0
1001
AME_SOL
1070
     1
1071
       17
  0
LINE
  8
0
 62
     0
  5
A
 10
0.0
 20
1.0
 30
5.0
 11
5.0
 21
1.0
 31
5.0
1001
AME_SOL
1070
     1
1071
       16
  0
LINE
  8
0
 62
     0
  5
B
 10
0.0
 20
1.0
 30
0.0
 11
0.0
 21
1.0
 31
5.0
1001
AME_SOL
1070
     1
1071
       15
  0
LINE
  8
0
 62
     0
  5
C
 10
0.0
 20
1.0
 30
5.0
 11
0.0
 21
0.0
 31
5.0
1001
AME_SOL
1070
     1
1071
       14
  0
LINE
  8
0
 62
     0
  5
D
 10
0.0
 20
0.0
 30
0.0
 11
0.0
 21
0.0
 31
5.0
1001
AME_SOL
1070
     1
1071
       13
  0
LINE
  8
0
 62
     0
  5
E
 10
5.0
 20
0.0
 30
5.0
 11
5.0
 21
0.0
 31
0.0
1001
AME_SOL
1070
     1
1071
       12
  0
LINE
  8
0
 62
     0
  5
F
 10
0.0
 20
0.0
 30
5.0
 11
5.0
 21
0.0
 31
5.0
1001
AME_SOL
1070
     1
1071
       11
  0
LINE
  8
0
 62
     0
  5
10
 10
0.0
 20
0.0
 30
0.0
 11
5.0
 21
0.0
 31
0.0
1001
AME_SOL
1070
     1
1071
       10
  0
LINE
  8
0
 62
     0
  5
11
 10
0.0
 20
1.0
 30
0.0
 11
0.0
 21
0.0
 31
0.0
1001
AME_SOL
1070
     1
1071
        9
  0
LINE
  8
0
 62
     0
  5
12
 10
5.0
 20
0.0
 30
0.0
 11
5.0
 21
1.0
 31
0.0
1001
AME_SOL
1070
     1
1071
        8
  0
LINE
  8
0
 62
     0
  5
13
 10
5.0
 20
1.0
 30
0.0
 11
0.0
 21
1.0
 31
0.0
1001
AME_SOL
1070
     1
1071
        7
  0
ENDBLK
  8
0
  5
14
  0
BLOCK
  8
0
  5
18
  2
*U3
 70
    65
 10
0.0
 20
0.0
 30
0.0
  1
*U
  3
*U
  0
LINE
  8
0
 62
     0
  5
19
 10
1.0
 20
3.0
 30
0.0
 11
1.0
 21
3.0
 31
5.0
1001
AME_SOL
1070
     1
1071
       18
  0
LINE
  8
0
 62
     0
  5
1A
 10
1.0
 20
3.0
 30
5.0
 11
1.0
 21
0.0
 31
5.0
1001
AME_SOL
1070
     1
1071
       17
  0
LINE
  8
0
 62
     0
  5
1B
 10
0.0
 20
3.0
 30
5.0
 11
1.0
 21
3.0
 31
5.0
1001
AME_SOL
1070
     1
1071
       16
  0
LINE
  8
0
 62
     0
  5
1C
 10
0.0
 20
3.0
 30
0.0
 11
0.0
 21
3.0
 31
5.0
1001
AME_SOL
1070
     1
1071
       15
  0
LINE
  8
0
 62
     0
  5
1D
 10
0.0
 20
3.0
 30
5.0
 11
0.0
 21
0.0
 31
5.0
1001
AME_SOL
1070
     1
1071
       14
  0
LINE
  8
0
 62
     0
  5
1E
 10
0.0
 20
0.0
 30
0.0
 11
0.0
 21
0.0
 31
5.0
1001
AME_SOL
1070
     1
1071
       13
  0
LINE
  8
0
 62
     0
  5
1F
 10
1.0
 20
0.0
 30
5.0
 11
1.0
 21
0.0
 31
0.0
1001
AME_SOL
1070
     1
1071
       12
  0
LINE
  8
0
 62
     0
  5
20
 10
0.0
 20
0.0
 30
5.0
 11
1.0
 21
0.0
 31
5.0
1001
AME_SOL
1070
     1
1071
       11
  0
LINE
  8
0
 62
     0
  5
21
 10
0.0
 20
0.0
 30
0.0
 11
1.0
 21
0.0
 31
0.0
1001
AME_SOL
1070
     1
1071
       10
  0
LINE
  8
0
 62
     0
  5
22
 10
0.0
 20
3.0
 30
0.0
 11
0.0
 21
0.0
 31
0.0
1001
AME_SOL
1070
     1
1071
        9
  0
LINE
  8
0
 62
     0
  5
23
 10
1.0
 20
0.0
 30
0.0
 11
1.0
 21
3.0
 31
0.0
1001
AME_SOL
1070
     1
1071
        8
  0
LINE
  8
0
 62
     0
  5
24
 10
1.0
 20
3.0
 30
0.0
 11
0.0
 21
3.0
 31
0.0
1001
AME_SOL
1070
     1
1071
        7
  0
ENDBLK
  8
0
  5
25
  0
BLOCK
  8
0
  5
29
  2
*U4
 70
    65
 10
0.0
 20
0.0
 30
0.0
  1
*U
  3
*U
  0
LINE
  8
0
 62
     0
  5
2A
 10
1.0
 20
5.0
 30
0.0
 11
1.0
 21
5.0
 31
3.0
1001
AME_SOL
1070
     1
1071
       18
  0
LINE
  8
0
 62
     0
  5
2B
 10
1.0
 20
5.0
 30
3.0
 11
1.0
 21
0.0
 31
3.0
1001
AME_SOL
1070
     1
1071
       17
  0
LINE
  8
0
 62
     0
  5
2C
 10
0.0
 20
5.0
 30
3.0
 11
1.0
 21
5.0
 31
3.0
1001
AME_SOL
1070
     1
1071
       16
  0
LINE
  8
0
 62
     0
  5
2D
 10
0.0
 20
5.0
 30
0.0
 11
0.0
 21
5.0
 31
3.0
1001
AME_SOL
1070
     1
1071
       15
  0
LINE
  8
0
 62
     0
  5
2E
 10
0.0
 20
5.0
 30
3.0
 11
0.0
 21
0.0
 31
3.0
1001
AME_SOL
1070
     1
1071
       14
  0
LINE
  8
0
 62
     0
  5
2F
 10
0.0
 20
0.0
 30
0.0
 11
0.0
 21
0.0
 31
3.0
1001
AME_SOL
1070
     1
1071
       13
  0
LINE
  8
0
 62
     0
  5
30
 10
1.0
 20
0.0
 30
3.0
 11
1.0
 21
0.0
 31
0.0
1001
AME_SOL
1070
     1
1071
       12
  0
LINE
  8
0
 62
     0
  5
31
 10
0.0
 20
0.0
 30
3.0
 11
1.0
 21
0.0
 31
3.0
1001
AME_SOL
1070
     1
1071
       11
  0
LINE
  8
0
 62
     0
  5
32
 10
0.0
 20
0.0
 30
0.0
 11
1.0
 21
0.0
 31
0.0
1001
AME_SOL
1070
     1
1071
       10
  0
LINE
  8
0
 62
     0
  5
33
 10
0.0
 20
5.0
 30
0.0
 11
0.0
 21
0.0
 31
0.0
1001
AME_SOL
1070
     1
1071
        9
  0
LINE
  8
0
 62
     0
  5
34
 10
1.0
 20
0.0
 30
0.0
 11
1.0
 21
5.0
 31
0.0
1001
AME_SOL
1070
     1
1071
        8
  0
LINE
  8
0
 62
     0
  5
35
 10
1.0
 20
5.0
 30
0.0
 11
0.0
 21
5.0
 31
0.0
1001
AME_SOL
1070
     1
1071
        7
  0
ENDBLK
  8
0
  5
36
  0
BLOCK
  8
0
  5
3A
  2
*U5
 70
    65
 10
0.0
 20
0.0
 30
0.0
  1
*U
  3
*U
  0
LINE
  8
0
 62
     0
  5
3B
 10
1.0
 20
1.0
 30
0.0
 11
1.0
 21
1.0
 31
2.0
1001
AME_SOL
1070
     1
1071
       18
  0
LINE
  8
0
 62
     0
  5
3C
 10
1.0
 20
1.0
 30
2.0
 11
1.0
 21
0.0
 31
2.0
1001
AME_SOL
1070
     1
1071
       17
  0
LINE
  8
0
 62
     0
  5
3D
 10
0.0
 20
1.0
 30
2.0
 11
1.0
 21
1.0
 31
2.0
1001
AME_SOL
1070
     1
1071
       16
  0
LINE
  8
0
 62
     0
  5
3E
 10
0.0
 20
1.0
 30
0.0
 11
0.0
 21
1.0
 31
2.0
1001
AME_SOL
1070
     1
1071
       15
  0
LINE
  8
0
 62
     0
  5
3F
 10
0.0
 20
1.0
 30
2.0
 11
0.0
 21
0.0
 31
2.0
1001
AME_SOL
1070
     1
1071
       14
  0
LINE
  8
0
 62
     0
  5
40
 10
0.0
 20
0.0
 30
0.0
 11
0.0
 21
0.0
 31
2.0
1001
AME_SOL
1070
     1
1071
       13
  0
LINE
  8
0
 62
     0
  5
41
 10
1.0
 20
0.0
 30
2.0
 11
1.0
 21
0.0
 31
0.0
1001
AME_SOL
1070
     1
1071
       12
  0
LINE
  8
0
 62
     0
  5
42
 10
0.0
 20
0.0
 30
2.0
 11
1.0
 21
0.0
 31
2.0
1001
AME_SOL
1070
     1
1071
       11
  0
LINE
  8
0
 62
     0
  5
43
 10
0.0
 20
0.0
 30
0.0
 11
1.0
 21
0.0
 31
0.0
1001
AME_SOL
1070
     1
1071
       10
  0
LINE
  8
0
 62
     0
  5
44
 10
0.0
 20
1.0
 30
0.0
 11
0.0
 21
0.0
 31
0.0
1001
AME_SOL
1070
     1
1071
        9
  0
LINE
  8
0
 62
     0
  5
45
 10
1.0
 20
0.0
 30
0.0
 11
1.0
 21
1.0
 31
0.0
1001
AME_SOL
1070
     1
1071
        8
  0
LINE
  8
0
 62
     0
  5
46
 10
1.0
 20
1.0
 30
0.0
 11
0.0
 21
1.0
 31
0.0
1001
AME_SOL
1070
     1
1071
        7
  0
ENDBLK
  8
0
  5
47
  0
BLOCK
  8
0
  5
6D
  2
*U6
 70
    65
 10
0.0
 20
0.0
 30
0.0
  1
*U
  3
*U
  0
LINE
  8
0
 62
     0
  5
6E
 10
1.0
 20
4.0
 30
0.0
 11
1.0
 21
4.0
 31
1.0
1001
AME_SOL
1070
     1
1071
       18
  0
LINE
  8
0
 62
     0
  5
6F
 10
1.0
 20
4.0
 30
1.0
 11
1.0
 21
0.0
 31
1.0
1001
AME_SOL
1070
     1
1071
       17
  0
LINE
  8
0
 62
     0
  5
70
 10
0.0
 20
4.0
 30
1.0
 11
1.0
 21
4.0
 31
1.0
1001
AME_SOL
1070
     1
1071
       16
  0
LINE
  8
0
 62
     0
  5
71
 10
0.0
 20
4.0
 30
0.0
 11
0.0
 21
4.0
 31
1.0
1001
AME_SOL
1070
     1
1071
       15
  0
LINE
  8
0
 62
     0
  5
72
 10
0.0
 20
4.0
 30
1.0
 11
0.0
 21
0.0
 31
1.0
1001
AME_SOL
1070
     1
1071
       14
  0
LINE
  8
0
 62
     0
  5
73
 10
0.0
 20
0.0
 30
0.0
 11
0.0
 21
0.0
 31
1.0
1001
AME_SOL
1070
     1
1071
       13
  0
LINE
  8
0
 62
     0
  5
74
 10
1.0
 20
0.0
 30
1.0
 11
1.0
 21
0.0
 31
0.0
1001
AME_SOL
1070
     1
1071
       12
  0
LINE
  8
0
 62
     0
  5
75
 10
0.0
 20
0.0
 30
1.0
 11
1.0
 21
0.0
 31
1.0
1001
AME_SOL
1070
     1
1071
       11
  0
LINE
  8
0
 62
     0
  5
76
 10
0.0
 20
0.0
 30
0.0
 11
1.0
 21
0.0
 31
0.0
1001
AME_SOL
1070
     1
1071
       10
  0
LINE
  8
0
 62
     0
  5
77
 10
0.0
 20
4.0
 30
0.0
 11
0.0
 21
0.0
 31
0.0
1001
AME_SOL
1070
     1
1071
        9
  0
LINE
  8
0
 62
     0
  5
78
 10
1.0
 20
0.0
 30
0.0
 11
1.0
 21
4.0
 31
0.0
1001
AME_SOL
1070
     1
1071
        8
  0
LINE
  8
0
 62
     0
  5
79
 10
1.0
 20
4.0
 30
0.0
 11
0.0
 21
4.0
 31
0.0
1001
AME_SOL
1070
     1
1071
        7
  0
ENDBLK
  8
0
  5
7A
  0
BLOCK
  8
0
  5
7E
  2
*U7
 70
    65
 10
0.0
 20
0.0
 30
0.0
  1
*U
  3
*U
  0
LINE
  8
0
 62
     0
  5
7F
 10
1.0
 20
2.0
 30
0.0
 11
1.0
 21
2.0
 31
2.0
1001
AME_SOL
1070
     1
1071
       18
  0
LINE
  8
0
 62
     0
  5
80
 10
1.0
 20
2.0
 30
2.0
 11
1.0
 21
0.0
 31
2.0
1001
AME_SOL
1070
     1
1071
       17
  0
LINE
  8
0
 62
     0
  5
81
 10
0.0
 20
2.0
 30
2.0
 11
1.0
 21
2.0
 31
2.0
1001
AME_SOL
1070
     1
1071
       16
  0
LINE
  8
0
 62
     0
  5
82
 10
0.0
 20
2.0
 30
0.0
 11
0.0
 21
2.0
 31
2.0
1001
AME_SOL
1070
     1
1071
       15
  0
LINE
  8
0
 62
     0
  5
83
 10
0.0
 20
2.0
 30
2.0
 11
0.0
 21
0.0
 31
2.0
1001
AME_SOL
1070
     1
1071
       14
  0
LINE
  8
0
 62
     0
  5
84
 10
0.0
 20
0.0
 30
0.0
 11
0.0
 21
0.0
 31
2.0
1001
AME_SOL
1070
     1
1071
       13
  0
LINE
  8
0
 62
     0
  5
85
 10
1.0
 20
0.0
 30
2.0
 11
1.0
 21
0.0
 31
0.0
1001
AME_SOL
1070
     1
1071
       12
  0
LINE
  8
0
 62
     0
  5
86
 10
0.0
 20
0.0
 30
2.0
 11
1.0
 21
0.0
 31
2.0
1001
AME_SOL
1070
     1
1071
       11
  0
LINE
  8
0
 62
     0
  5
87
 10
0.0
 20
0.0
 30
0.0
 11
1.0
 21
0.0
 31
0.0
1001
AME_SOL
1070
     1
1071
       10
  0
LINE
  8
0
 62
     0
  5
88
 10
0.0
 20
2.0
 30
0.0
 11
0.0
 21
0.0
 31
0.0
1001
AME_SOL
1070
     1
1071
        9
  0
LINE
  8
0
 62
     0
  5
89
 10
1.0
 20
0.0
 30
0.0
 11
1.0
 21
2.0
 31
0.0
1001
AME_SOL
1070
     1
1071
        8
  0
LINE
  8
0
 62
     0
  5
8A
 10
1.0
 20
2.0
 30
0.0
 11
0.0
 21
2.0
 31
0.0
1001
AME_SOL
1070
     1
1071
        7
  0
ENDBLK
  8
0
  5
8B
  0
BLOCK
  8
0
  5
94
  2
*U8
 70
    65
 10
0.0
 20
0.0
 30
0.0
  1
*U
  3
*U
  0
LINE
  8
0
 62
     7
  5
95
 10
1.0
 20
5.0
 30
2.0
 11
1.0
 21
5.0
 31
3.0
1001
AME_SOL
1070
     1
1071
       67
  0
LINE
  8
0
 62
     7
  5
96
 10
0.0
 20
5.0
 30
3.0
 11
1.0
 21
5.0
 31
3.0
1001
AME_SOL
1070
     1
1071
       66
  0
LINE
  8
0
 62
     7
  5
97
 10
1.0
 20
5.0
 30
3.0
 11
1.0
 21
3.0
 31
3.0
1001
AME_SOL
1070
     1
1071
       65
  0
LINE
  8
0
 62
     7
  5
98
 10
0.0
 20
5.0
 30
2.0
 11
0.0
 21
5.0
 31
3.0
1001
AME_SOL
1070
     1
1071
       64
  0
LINE
  8
0
 62
     7
  5
99
 10
0.0
 20
5.0
 30
3.0
 11
0.0
 21
3.0
 31
3.0
1001
AME_SOL
1070
     1
1071
       63
  0
LINE
  8
0
 62
     7
  5
9A
 10
1.0
 20
5.0
 30
2.0
 11
0.0
 21
5.0
 31
2.0
1001
AME_SOL
1070
     1
1071
       62
  0
LINE
  8
0
 62
     7
  5
9B
 10
1.0
 20
2.0
 30
2.0
 11
1.0
 21
5.0
 31
2.0
1001
AME_SOL
1070
     1
1071
       61
  0
LINE
  8
0
 62
     7
  5
9C
 10
0.0
 20
5.0
 30
2.0
 11
0.0
 21
2.0
 31
2.0
1001
AME_SOL
1070
     1
1071
       60
  0
LINE
  8
0
 62
     7
  5
9D
 10
1.0
 20
3.0
 30
3.0
 11
0.0
 21
3.0
 31
3.0
1001
AME_SOL
1070
     1
1071
       59
  0
LINE
  8
0
 62
     7
  5
9E
 10
1.0
 20
3.0
 30
3.0
 11
1.0
 21
3.0
 31
5.0
1001
AME_SOL
1070
     1
1071
       58
  0
LINE
  8
0
 62
     7
  5
9F
 10
0.0
 20
3.0
 30
5.0
 11
0.0
 21
3.0
 31
3.0
1001
AME_SOL
1070
     1
1071
       57
  0
LINE
  8
0
 62
     7
  5
A0
 10
0.0
 20
3.0
 30
5.0
 11
1.0
 21
3.0
 31
5.0
1001
AME_SOL
1070
     1
1071
       56
  0
LINE
  8
0
 62
     7
  5
A1
 10
1.0
 20
3.0
 30
5.0
 11
1.0
 21
1.0
 31
5.0
1001
AME_SOL
1070
     1
1071
       55
  0
LINE
  8
0
 62
     7
  5
A2
 10
0.0
 20
0.0
 30
5.0
 11
0.0
 21
3.0
 31
5.0
1001
AME_SOL
1070
     1
1071
       54
  0
LINE
  8
0
 62
     7
  5
A3
 10
0.0
 20
2.0
 30
2.0
 11
1.0
 21
2.0
 31
2.0
1001
AME_SOL
1070
     1
1071
       53
  0
LINE
  8
0
 62
     7
  5
A4
 10
1.0
 20
2.0
 30
0.0
 11
1.0
 21
2.0
 31
2.0
1001
AME_SOL
1070
     1
1071
       52
  0
LINE
  8
0
 62
     7
  5
A5
 10
0.0
 20
2.0
 30
2.0
 11
0.0
 21
2.0
 31
0.0
1001
AME_SOL
1070
     1
1071
       51
  0
LINE
  8
0
 62
     7
  5
A6
 10
1.0
 20
1.0
 30
0.0
 11
1.0
 21
2.0
 31
0.0
1001
AME_SOL
1070
     1
1071
       50
  0
LINE
  8
0
 62
     7
  5
A7
 10
1.0
 20
2.0
 30
0.0
 11
0.0
 21
2.0
 31
0.0
1001
AME_SOL
1070
     1
1071
       49
  0
LINE
  8
0
 62
     7
  5
A8
 10
0.0
 20
2.0
 30
0.0
 11
0.0
 21
0.0
 31
0.0
1001
AME_SOL
1070
     1
1071
       48
  0
LINE
  8
0
 62
     7
  5
A9
 10
3.0
 20
6.0
 30
1.0
 11
3.0
 21
6.0
 31
4.0
1001
AME_SOL
1070
     1
1071
       47
  0
LINE
  8
0
 62
     7
  5
AA
 10
3.0
 20
6.0
 30
4.0
 11
3.0
 21
1.0
 31
4.0
1001
AME_SOL
1070
     1
1071
       46
  0
LINE
  8
0
 62
     7
  5
AB
 10
2.0
 20
6.0
 30
4.0
 11
3.0
 21
6.0
 31
4.0
1001
AME_SOL
1070
     1
1071
       45
  0
LINE
  8
0
 62
     7
  5
AC
 10
2.0
 20
6.0
 30
1.0
 11
2.0
 21
6.0
 31
4.0
1001
AME_SOL
1070
     1
1071
       44
  0
LINE
  8
0
 62
     7
  5
AD
 10
2.0
 20
6.0
 30
4.0
 11
2.0
 21
1.0
 31
4.0
1001
AME_SOL
1070
     1
1071
       43
  0
LINE
  8
0
 62
     7
  5
AE
 10
3.0
 20
1.0
 30
1.0
 11
3.0
 21
6.0
 31
1.0
1001
AME_SOL
1070
     1
1071
       42
  0
LINE
  8
0
 62
     7
  5
AF
 10
3.0
 20
6.0
 30
1.0
 11
2.0
 21
6.0
 31
1.0
1001
AME_SOL
1070
     1
1071
       41
  0
LINE
  8
0
 62
     7
  5
B0
 10
2.0
 20
6.0
 30
1.0
 11
2.0
 21
1.0
 31
1.0
1001
AME_SOL
1070
     1
1071
       40
  0
LINE
  8
0
 62
     7
  5
B1
 10
5.0
 20
4.0
 30
0.0
 11
5.0
 21
0.0
 31
0.0
1001
AME_SOL
1070
     1
1071
       39
  0
LINE
  8
0
 62
     7
  5
B2
 10
5.0
 20
0.0
 30
5.0
 11
5.0
 21
4.0
 31
5.0
1001
AME_SOL
1070
     1
1071
       38
  0
LINE
  8
0
 62
     7
  5
B3
 10
2.0
 20
1.0
 30
1.0
 11
3.0
 21
1.0
 31
1.0
1001
AME_SOL
1070
     1
1071
       37
  0
LINE
  8
0
 62
     7
  5
B4
 10
1.0
 20
1.0
 30
0.0
 11
4.0
 21
1.0
 31
0.0
1001
AME_SOL
1070
     1
1071
       36
  0
LINE
  8
0
 62
     7
  5
B5
 10
1.0
 20
1.0
 30
0.0
 11
1.0
 21
1.0
 31
5.0
1001
AME_SOL
1070
     1
1071
       35
  0
LINE
  8
0
 62
     7
  5
B6
 10
3.0
 20
1.0
 30
1.0
 11
3.0
 21
1.0
 31
4.0
1001
AME_SOL
1070
     1
1071
       34
  0
LINE
  8
0
 62
     7
  5
B7
 10
3.0
 20
1.0
 30
4.0
 11
2.0
 21
1.0
 31
4.0
1001
AME_SOL
1070
     1
1071
       33
  0
LINE
  8
0
 62
     7
  5
B8
 10
2.0
 20
1.0
 30
4.0
 11
2.0
 21
1.0
 31
1.0
1001
AME_SOL
1070
     1
1071
       32
  0
LINE
  8
0
 62
     7
  5
B9
 10
4.0
 20
1.0
 30
5.0
 11
1.0
 21
1.0
 31
5.0
1001
AME_SOL
1070
     1
1071
       31
  0
LINE
  8
0
 62
     7
  5
BA
 10
5.0
 20
0.0
 30
0.0
 11
0.0
 21
0.0
 31
0.0
1001
AME_SOL
1070
     1
1071
       30
  0
LINE
  8
0
 62
     7
  5
BB
 10
0.0
 20
0.0
 30
0.0
 11
0.0
 21
0.0
 31
5.0
1001
AME_SOL
1070
     1
1071
       29
  0
LINE
  8
0
 62
     7
  5
BC
 10
5.0
 20
0.0
 30
5.0
 11
5.0
 21
0.0
 31
0.0
1001
AME_SOL
1070
     1
1071
       28
  0
LINE
  8
0
 62
     7
  5
BD
 10
0.0
 20
0.0
 30
5.0
 11
5.0
 21
0.0
 31
5.0
1001
AME_SOL
1070
     1
1071
       27
  0
LINE
  8
0
 62
     7
  5
BE
 10
4.0
 20
4.0
 30
0.0
 11
5.0
 21
4.0
 31
0.0
1001
AME_SOL
1070
     1
1071
       26
  0
LINE
  8
0
 62
     7
  5
BF
 10
5.0
 20
4.0
 30
0.0
 11
5.0
 21
4.0
 31
5.0
1001
AME_SOL
1070
     1
1071
       25
  0
LINE
  8
0
 62
     7
  5
C0
 10
5.0
 20
4.0
 30
5.0
 11
4.0
 21
4.0
 31
5.0
1001
AME_SOL
1070
     1
1071
       24
  0
LINE
  8
0
 62
     7
  5
C1
 10
4.0
 20
1.0
 30
0.0
 11
4.0
 21
4.0
 31
0.0
1001
AME_SOL
1070
     1
1071
       23
  0
LINE
  8
0
 62
     7
  5
C2
 10
4.0
 20
1.0
 30
0.0
 11
4.0
 21
1.0
 31
5.0
1001
AME_SOL
1070
     1
1071
       22
  0
LINE
  8
0
 62
     7
  5
C3
 10
4.0
 20
4.0
 30
0.0
 11
4.0
 21
4.0
 31
5.0
1001
AME_SOL
1070
     1
1071
       21
  0
LINE
  8
0
 62
     7
  5
C4
 10
4.0
 20
4.0
 30
5.0
 11
4.0
 21
1.0
 31
5.0
1001
AME_SOL
1070
     1
1071
       20
  0
ENDBLK
  8
0
  5
C5
  0
BLOCK
  8
0
  5
C9
  2
AME_MAT
 70
    64
 10
0.0
 20
0.0
 30
0.0
  1
AME_MAT
  3
AME_MAT
  0
ENDBLK
  8
0
  5
CA
  0
ENDSEC
  0
SECTION
  2
ENTITIES
  0
INSERT
  8
AME_FRZ
  5
3
  2
AME_NIL
 10
0.0
 20
0.0
 30
0.0
  0
INSERT
  8
AME_FRZ
  5
6
  2
AME_SOL
 10
0.0
 20
0.0
 30
0.0
1001
AME_SOL
1000
1.0
1000
sq cm
1070
     3
1070
     0
1070
     3
1000
wire
1040
0.0
1000
NONE
1040
1.0
1000
cm
1000
gm
1000
MILD_STEEL
1070
    25
1000
CSG
1070
     3
1070
     2
1070
     3
1000
cu cm
1070
     4
1070
     0
1005
3
  0
INSERT
  8
AME_FRZ
  5
15
  2
*U2
 10
0.0
 20
0.0
 30
0.0
1001
AME_SOL
1002
{
1070
     0
1071
  1858912
1070
  1536
1010
5.0
1020
1.0
1030
5.0
1005
0
1005
0
1005
91
1040
0.0
1040
1.0
1000
MILD_STEEL
1000
0
1010
0.0
1020
0.0
1030
0.0
1010
0.0
1020
0.0
1030
1.0
1040
0.0
1002
}
  0
INSERT
  8
AME_FRZ
  5
26
  2
*U3
 10
4.0
 20
1.0
 30
0.0
1001
AME_SOL
1002
{
1070
     0
1071
  1860304
1070
  1536
1010
1.0
1020
3.0
1030
5.0
1005
0
1005
0
1005
92
1040
0.0
1040
1.0
1000
MILD_STEEL
1000
0
1010
4.0
1020
1.0
1030
0.0
1010
0.0
1020
0.0
1030
1.0
1040
0.0
1002
}
  0
INSERT
  8
AME_FRZ
  5
37
  2
*U4
 10
2.0
 20
1.0
 30
1.0
1001
AME_SOL
1002
{
1070
     0
1071
  1928696
1070
  1536
1010
1.0
1020
5.0
1030
3.0
1005
0
1005
0
1005
91
1040
0.0
1040
1.0
1000
MILD_STEEL
1000
0
1010
2.0
1020
1.0
1030
1.0
1010
0.0
1020
0.0
1030
1.0
1040
0.0
1002
}
  0
INSERT
  8
AME_FRZ
  5
48
  2
*U5
 10
0.0
 20
1.0
 30
0.0
1001
AME_SOL
1002
{
1070
     0
1071
  1945480
1070
  1536
1010
1.0
1020
1.0
1030
2.0
1005
0
1005
0
1005
90
1040
0.0
1040
1.0
1000
MILD_STEEL
1000
0
1010
0.0
1020
1.0
1030
0.0
1010
0.0
1020
0.0
1030
1.0
1040
0.0
1002
}
  0
INSERT
  8
AME_FRZ
  5
7B
  2
*U6
 10
0.0
 20
1.0
 30
2.0
1001
AME_SOL
1002
{
1070
     0
1071
  1968720
1070
  1536
1010
1.0
1020
4.0
1030
1.0
1005
0
1005
0
1005
8F
1040
0.0
1040
1.0
1000
MILD_STEEL
1000
0
1010
0.0
1020
1.0
1030
2.0
1010
0.0
1020
0.0
1030
1.0
1040
0.0
1002
}
  0
INSERT
  8
AME_FRZ
  5
8C
  2
*U7
 10
0.0
 20
1.0
 30
3.0
1001
AME_SOL
1002
{
1070
     0
1071
  2002688
1070
  1536
1010
1.0
1020
2.0
1030
2.0
1005
0
1005
0
1005
8F
1040
0.0
1040
1.0
1000
MILD_STEEL
1000
0
1010
0.0
1020
1.0
1030
3.0
1010
0.0
1020
0.0
1030
1.0
1040
0.0
1002
}
  0
INSERT
  8
AME_FRZ
  5
8F
  2
AME_NIL
 10
0.0
 20
0.0
 30
0.0
1001
AME_SOL
1002
{
1070
     0
1071
  2027128
1070
   775
1070
     2
1005
7B
1005
8C
1005
0
1005
0
1005
90
1040
0.0
1040
1.0
1000
MILD_STEEL
1000
0
1010
0.0
1020
0.0
1030
0.0
1010
0.0
1020
0.0
1030
1.0
1040
0.0
1002
}
  0
INSERT
  8
AME_FRZ
  5
90
  2
AME_NIL
 10
0.0
 20
0.0
 30
0.0
1001
AME_SOL
1002
{
1070
     0
1071
  2041152
1070
   775
1070
     2
1005
8F
1005
48
1005
0
1005
0
1005
C6
1040
0.0
1040
1.0
1000
MILD_STEEL
1000
0
1010
0.0
1020
0.0
1030
0.0
1010
0.0
1020
0.0
1030
1.0
1040
0.0
1002
}
  0
INSERT
  8
AME_FRZ
  5
91
  2
AME_NIL
 10
0.0
 20
0.0
 30
0.0
1001
AME_SOL
1002
{
1070
     0
1071
  2050344
1070
   775
1070
     2
1005
37
1005
15
1005
0
1005
0
1005
92
1040
0.0
1040
1.0
1000
MILD_STEEL
1000
0
1010
0.0
1020
0.0
1030
0.0
1010
0.0
1020
0.0
1030
1.0
1040
0.0
1002
}
  0
INSERT
  8
AME_FRZ
  5
92
  2
AME_NIL
 10
0.0
 20
0.0
 30
0.0
1001
AME_SOL
1002
{
1070
     0
1071
  2063408
1070
   775
1070
     2
1005
91
1005
26
1005
0
1005
0
1005
C6
1040
0.0
1040
1.0
1000
MILD_STEEL
1000
0
1010
0.0
1020
0.0
1030
0.0
1010
0.0
1020
0.0
1030
1.0
1040
0.0
1002
}
  0
INSERT
  8
0
  5
C6
  2
*U8
 10
0.0
 20
0.0
 30
0.0
1001
AME_SOL
1002
{
1070
     0
1071
  2071144
1070
  1543
1070
     2
1005
90
1005
92
1005
0
1005
C7
1005
0
1040
0.0
1040
1.0
1000
MILD_STEEL
1000
0
1002
}
  0
INSERT
  8
AME_FRZ
  5
C7
  2
AME_NIL
 10
1.0
 20
1.0
 30
1.0
1001
AME_SOL
1004
E903A9FB0100F0FFFFFF000052F7130001000000958664BA958664BA958664BA2507A040EB05C0402507A04001000000FBF204002BF47F40ACD07F3F87503DBAEA058040EA058040EB05A0400100844EE8B61D0001000000010030010000844E000000000000000000000000803F000000000000803F0000
1004
0000000080400000803F0000000005000000000000000000000000000000000000000000844E000000000000000000000000803F000000000000803F00000000000080400000803F0000000005000000000000000000000000000000000001000000FBF204002BF47F402BF47F4087503DBAEB05A040EA05
1004
8040EB05A0400100844E30B71D000100000001002E010000844E00000000008000000080000080BF000080BF00000080000000800000A040000080400000A04005000000000000000000000000000000000000000000844E00000000008000000080000080BF000080BF00000080000000800000A0400000
1004
80400000A04005000000000000000000000000000000000001000000FBF20400958664BA958664BA958664BA2507A0409586643A2507A0400100844ED0B41D00010000000100F9010000844E00000000803F000000000000000000000000000000000000803F000000000000000000000000050000000000
1004
00000000000000000000000000000000844E00000000803F000000000000000000000000000000000000803F00000000000000000000000005000000000000000000000000000000000001000000FBF20800958664BADEC67F3F958664BA2507A040911C803F2507A0400100844EC8AE1D00010000000100
1004
F6010000844E00000000008000000080000080BF000080BF00000080000000800000A0400000803F0000A04005000000000000000000000000000000000000000000844E0000000080BF000000800000008000000000000000000000803F000000000000803F000000400500000000000000000000000000
1004
0000000001000000FBF2040015FA9F40ACD07F3F87503DBAEB05A040EA058040EB05A0400100844E98A11D000100000002002D010000844E000000000080000080BF000000800000008000000080000080BF0000A040000080400000A04005000000000000000000000000000000000000000000F5010000
1004
844E000000000080000080BF000000800000008000000080000080BF0000A0400000803F0000A04005000000000000000000000000000000000000000000844E000000000080000080BF000000800000008000000080000080BF0000A0400000803F0000A040050000000000000000000000000000000000
1004
01000000FBF2040057E8FF3FACD07F3FACD07F3FD50B4040EB05C040AA17803F0100844E709F1D000100000001005E020000844E0000000000000000803F000000000000803F0000000000000000000000400000803F0000803F05000000000000000000000000000000000000000000844E000000000000
1004
0000803F000000000000803F0000000000000000000000400000803F0000803F05000000000000000000000000000000000001000000FBF2040057E8FF3FACD07F3FACD07F3FD50B0040EB05C040EA0580400100844EF0CC1D000100000001005C020000844E000000000000000000000000803F00000000
1004
0000803F00000000000000400000803F0000803F05000000000000000000000000000000000000000000844E000000000000000000000000803F000000000000803F00000000000000400000803F0000803F05000000000000000000000000000000000001000000FBF2040057E8FF3FACD07F3F2BF47F40
1004
D50B4040EB05C040EA0580400100844E008E1D000100000001005B020000844E0000000080BF000000800000008000000080000080BF00000080000040400000C0400000804005000000000000000000000000000000000000000000844E0000000080BF000000800000008000000080000080BF00000080
1004
000040400000C0400000804005000000000000000000000000000000000001000000FBF2040057E8FF3F15FABF40ACD07F3FD50B4040EB05C040EA0580400100844ED08E1D000100000001005A020000844E00000000008000000080000080BF000080BF0000008000000080000040400000C04000008040
1004
05000000000000000000000000000000000000000000844E00000000008000000080000080BF000080BF0000008000000080000040400000C0400000804005000000000000000000000000000000000001000000FBF204002AF43F40ACD07F3FACD07F3FD50B4040EB05C040EA0580400100844EA08F1D00
1004
01000000010059020000844E000000000080000080BF000000800000008000000080000080BF000040400000C0400000804005000000000000000000000000000000000000000000844E000000000080000080BF000000800000008000000080000080BF000040400000C040000080400500000000000000
1004
0000000000000000000001000000FBF208002BF47F40ACD07F3F87503DBAEB05A040EA05804087503D3A0100844E70901D0001000000030032010000844E0000000000000000803F000000000000803F0000000000000000000080400000803F000000000500000000000000000000000000000000000000
1004
0000FA010000844E0000000000000000803F000000000000803F00000000000000000000000000000000000000000500000000000000000000000000000000000000000026030000844E0000000000000000803F000000000000803F0000000000000000000000000000803F000000000500000000000000
1004
0000000000000000000000000000844E0000000000000000803F000000000000803F0000000000000000000000000000803F0000000005000000000000000000000000000000000001000000FBF20400000020BA00ECFF3F000020BA0014803F000A0040000A00400100844E40911D000100000001002203
1004
0000844E00000000008000000080000080BF000080BF00000080000000800000803F000000400000004005000000000000000000000000000000000000000000844E00000000008000000080000080BF000080BF00000080000000800000803F000000400000004005000000000000000000000000000000
1004
000001000000FBF208002BF47F40ACD07F3F15FA9F40EB05A040EA058040EB05A0400100844E10921D000100000003002F010000844E0000000080BF000000800000008000000080000080BF000000800000A040000080400000A04005000000000000000000000000000000000000000000F7010000844E
1004
0000000080BF000000800000008000000080000080BF000000800000A0400000803F0000A04005000000000000000000000000000000000000000000EB030000844E0000000080BF000000800000008000000080000080BF000000800000803F000040400000A04005000000000000000000000000000000
1004
000000000000844E0000000080BF000000800000008000000080000080BF000000800000803F000040400000A04005000000000000000000000000000000000001000000FBF20400000020BA00F63F4000F63F400014803F000A40400005A0400100844E10D01F00010000000100EA030000844E00000000
1004
008000000080000080BF000080BF00000080000000800000803F000040400000A04005000000000000000000000000000000000000000000844E00000000008000000080000080BF000080BF00000080000000800000803F000040400000A04005000000000000000000000000000000000001000000FBF2
1004
0400000020BA00D87F3F00ECFF3F0014803F0005A040000A00400100844E78D21F0001000000010052040000844E0000000000000000803F000000000000803F0000000000000000000000000000803F0000004005000000000000000000000000000000000000000000844E0000000000000000803F0000
1004
00000000803F0000000000000000000000000000803F0000004005000000000000000000000000000000000001000000FBF20800958664BA958664BA958664BA9586643A911C803F2507A0400100844E38D11F00010000000400F8010000844E000000000000000000000000803F000000000000803F0000
1004
00000000000000000000000000000500000000000000000000000000000000000000000024030000844E000000000000000000000000803F000000000000803F00000000000000000000803F0000000005000000000000000000000000000000000000000000EC030000844E000000000000000000000000
1004
803F000000000000803F00000000000000000000803F000040400500000000000000000000000000000000000000000050040000844E000000000000000000000000803F000000000000803F00000000000000000000803F0000004005000000000000000000000000000000000000000000844E00000000
1004
0000000000000000803F000000000000803F00000000000000000000803F0000004005000000000000000000000000000000000001000000FBF20400000020BA00D87F3F00F63F400014803F0005A040000A40400100844E68C01E000100000001004F040000844E0000000080BF00000080000000800000
1004
0080000080BF000000800000803F0000A0400000404005000000000000000000000000000000000000000000844E0000000080BF000000800000008000000080000080BF000000800000803F0000A0400000404005000000000000000000000000000000000001000000FBF20400000020BA00FB9F4000EC
1004
FF3F0014803F0005A040000A40400100844EC8C51E000100000001004E040000844E00000000008000000080000080BF000080BF00000080000000800000803F0000A0400000404005000000000000000000000000000000000000000000844E00000000008000000080000080BF000080BF000000800000
1004
00800000803F0000A0400000404005000000000000000000000000000000000001000000FBF2080000D87F3F00D87F3F000020BA0014803F000A0040000A00400100844E58C61E0001000000030021030000844E000000000080000080BF000000800000008000000080000080BF0000803F000000400000
1004
004005000000000000000000000000000000000000000000E9030000844E000000000080000080BF000000800000008000000080000080BF0000803F000040400000A040050000000000000000000000000000000000000000004D040000844E000000000080000080BF0000008000000080000000800000
1004
80BF0000803F0000A0400000404005000000000000000000000000000000000000000000844E000000000080000080BF000000800000008000000080000080BF0000803F0000A0400000404005000000000000000000000000000000000001000000A4EE2BF47F40ACD07F3FDCF89F40EA058040EA058040
1004
EB05A040000000C00000803F0200967538951D000000FFFF0100E8B61D0010921D0000000200E8B61D0010921D0001000000010000009675000000000000000000000000803F000080BF000000000000000000008040000000400000A0400200000000C00000803FA4EE2BF47F402BF47F4087503DBAEA05
1004
8040EA058040EB05A040000020C00000204002009675B0A31E000000FFFF0100E8B61D0030B71D0000000200E8B61D0030B71D00010000000100000096750000000000000000803F00000000000080BF00000000000000000000804000008040000020400200000020C000002040A4EE2BF47F40ACD07F3F
1004
87503DBAEA058040911C803FEB05A040000080BF000080400200967568A71E0000000100FFFFE8B61D00C8AE1D0000000200C8AE1D00E8B61D00010000000100000096750000000000000000803F00000000000080BF0000000000000000000080400000803F0000803F0200000080BF00008040A4EE2BF4
1004
7F40ACD07F3F87503DBAEA058040EA0580409586643A00000000000040400200967508C81E000000FFFF0100E8B61D0070901D0000000200E8B61D0070901D000100000001000000967500000000000000000000000080BF000080BF0000000000000000000080400000803F000000000200000000000000
1004
4040A4EE2BF47F402BF47F4015FA9F40EB05A040EA058040EB05A040FFFFFFBFFFFF7FBF0200967588C11E000000FFFF010030B71D0010921D000000020030B71D0010921D0001000000010000009675000000000000000000000000803F000000000000803F0000008000004040000080400000A0400200
1004
FFFFFFBFFFFF7FBFA4EE15FA9F402BF47F4087503DBAEB05A040EA058040EB05A0400000A0C00000008002009675B0D81E000000FFFF010030B71D0098A11D000000020030B71D0098A11D000100000001000000967500000000803F0000000000000000000000000000803F000000000000A04000008040
1004
0000A04002000000A0C000000080A4EE2BF47F402BF47F4087503DBAEB05A040EA05804087503D3A0000C03F0000204002009675F8D81E000000FFFF010030B71D0070901D000000020030B71D0070901D000100000001000000967500000000000000000000000080BF000000000000803F000000000000
1004
2040000080400000000002000000C03F00002040A4EE958664BA958664BADCF89F402507A0409586643A2507A040000000BF000090400200967550A51F000000FFFF0100D0B41D0010921D0000000200D0B41D0010921D0001000000010000009675000000000000000000000000803F00000000000080BF
1004
000000000000003F000000000000A0400200000000BF00009040A4EEDCF89F40958664BA958664BA2507A0409586643A2507A040000020C0000020400200967500A71F000000FFFF0100D0B41D0098A11D0000000200D0B41D0098A11D000100000001000000967500000000803F00000000000000000000
1004
0000000080BF000000000000A04000000000000020400200000020C000002040A4EE958664BA958664BA958664BA9586643A9586643A2507A040000080BF000080400200967580DE1E000000FFFF0100D0B41D0038D11F0000000200D0B41D0038D11F00010000000100000096750000000080BF00000000
1004
0000000000000000000080BF0000000000000000000000000000803F0200000080BF00008040A4EE958664BA958664BA958664BA2507A0409586643A9586643A0000A0C00000008002009675B0DB1E000000FFFF0100D0B41D0070901D0000000200D0B41D0070901D000100000001000000967500000000
1004
000000000000000080BF00000000000080BF0000000000000000000000000000000002000000A0C000000080A4EE958664BADEC67F3FDCF89F402507A040911C803F2507A040000060C0000000BF0200967500DA1E000000FFFF0100C8AE1D0010921D0000000200C8AE1D0010921D000100000001000000
1004
9675000000000000000000000000803F000000000000803F000000800000003FFFFF7F3F0000A0400200000060C0000000BFA4EE57E8FF3FACD07F3FACD07F3FD50B0040911C803FEA058040000020C00100003F0200967550D01E0000000100FFFFC8AE1D00F0CC1D0000000200F0CC1D00C8AE1D000100
1004
00000100000096750000000080BF0000000000000000000000000000803F00000000000000400000803F0000C03F0200000020C00100003FA4EE57E8FF3FACD07F3F2BF47F40D50B4040911C803FEA0580400000C0BFFFFFFFBE0200967550BC1E0000000100FFFFC8AE1D00008E1D0000000200008E1D00
1004
C8AE1D0001000000010000009675000000000000000000000000803F000000000000803F000000800000C03F0000803F0000804002000000C0BFFFFFFFBEA4EE2AF43F40ACD07F3FACD07F3FD50B4040911C803FEA058040010000C0FFFF7F3F02009675A8061E0000000100FFFFC8AE1D00A08F1D000000
1004
0200A08F1D00C8AE1D000100000001000000967500000000803F0000000000000000000000000000803F00000000000040400000803F000040400200010000C0FFFF7F3FA4EE00D87F3F00D87F3F000020BA0014803F911C803F0005A040000020C0000020400200967558081E0000000100FFFFC8AE1D00
1004
58C61E000000020058C61E00C8AE1D000100000001000000967500000000803F0000000000000000000000000000803F000000000000803F0000803F000020400200000020C000002040A4EE958664BADEC67F3F958664BA2507A040911C803F9586643A0000803F0000804002009675801B1E000000FFFF
1004
0100C8AE1D0070901D0000000200C8AE1D0070901D000100000001000000967500000000000000000000000080BF000000000000803F00000000000000000000803F0000000002000000803F00008040A4EE57E8FF3FACD07F3FACD07F3FD50B4040911C803FAA17803F0000803F0100004002009675A01C
1004
1E0000000100FFFFC8AE1D00709F1D0000000200709F1D00C8AE1D000100000001000000967500000000000000000000000080BF000000000000803F000000000000803F0000803F0000803F02000000803F01000040A4EEDCF89F40958664BADCF89F402507A040EA0580402507A040010000C0FFFFFF3F
1004
02009675C01F1E000000FFFF010098A11D0010921D000000020098A11D0010921D0001000000010000009675000000000000000000000000803F0000803F00000000000000000000A040010000400000A0400200010000C0FFFFFF3FA4EEDCF89F40958664BA958664BA2507A040EA0580409586643A0000
1004
40C00000803F02009675F8F21D000000FFFF010098A11D0070901D000000020098A11D0070901D000100000001000000967500000000000000000000000080BF0000803F00000000000000000000A0400000803F000000000200000040C00000803FA4EE57E8FF3FACD07F3FACD07F3FD50B0040EB05C040
1004
AA17803F0000A0C0000000000200967530F41D000000FFFF0100709F1D00F0CC1D0000000200709F1D00F0CC1D00010000000100000096750000000080BF00000000000000000000000000000000000080BF000000400000803F0000803F02000000A0C000000000A4EE57E8FF3F15FABF40ACD07F3FD50B
1004
4040EB05C040AA17803F020000BFFFFFFF3E0200967530101E000000FFFF0100709F1D00D08E1D0000000200709F1D00D08E1D00010000000100000096750000000000000000803F000000000000000000000000000080BF000020400000C040FFFF7F3F0200020000BFFFFFFF3EA4EE2AF43F40ACD07F3F
1004
ACD07F3FD50B4040EB05C040AA17803F000020C00100204002009675A8231E000000FFFF0100709F1D00A08F1D0000000200709F1D00A08F1D000100000001000000967500000000803F00000000000000000000000000000000000080BF00004040000060400000803F0200000020C001002040A4EE57E8
1004
FF3FACD07F3F2BF47F40D50B0040EB05C040EA058040000020C00100204002009675E8251E000000FFFF0100F0CC1D00008E1D0000000200F0CC1D00008E1D0001000000010000009675000000000000000000000000803F000080BF00000000000000000000004001006040000080400200000020C00100
1004
2040A4EE57E8FF3F15FABF40ACD07F3FD50B0040EB05C040EA0580400000C0BF0000C03F02009675D82A1E000000FFFF0100F0CC1D00D08E1D0000000200F0CC1D00D08E1D00010000000100000096750000000000000000803F00000000000080BF0000000000000000000000400000C040000020400200
1004
0000C0BF0000C03FA4EE57E8FF3F15FABF402BF47F40D50B4040EB05C040EA058040010080BF0000008002009675F82B1E000000FFFF0100008E1D00D08E1D0000000200008E1D00D08E1D00010000000100000096750000000000000000803F0000000000000000000000000000803F000040400000C040
1004
000080400200010080BF00000080A4EE2AF43F40ACD07F3F2BF47F40D50B4040EB05C040EA058040000000000000A04002009675582F1E000000FFFF0100008E1D00A08F1D0000000200008E1D00A08F1D000100000001000000967500000000803F000000000000000000000080000000000000803F0000
1004
40400000C040000080400200000000000000A040A4EE2AF43F4015FABF40ACD07F3FD50B4040EB05C040EA058040000040C0000000800200967558361E000000FFFF0100D08E1D00A08F1D0000000200D08E1D00A08F1D000100000001000000967500000000803F0000000000000000000000000000803F
1004
00000000000040400000C040000080400200000040C000000080A4EE958664BA958664BA958664BA9586643A000A00409586643A000080BF0000803F02009675C8241E000000FFFF010070901D0038D11F000000020070901D0038D11F00010000000100000096750000000080BF00000000000000000000
1004
000000000000000080BF000000000000803F000000000200000080BF0000803FA4EE000020BA00ECFF3F000020BA0014803F000A00400000203A000000BF0000003F0200967530091E000000FFFF010070901D0040911D000000020070901D0040911D00010000000100000096750000000000000000803F
1004
000000000000000000000000000080BF0000003F00000040000000000200000000BF0000003FA4EE00D87F3F00D87F3F000020BA0014803F000A00409586643A010000C0010080BF02009675F0061E000000FFFF010070901D0058C61E000000020070901D0058C61E000100000001000000967500000000
1004
803F00000000000000000000000000000000000080BF0000803F00004040000000000200010000C0010080BFA4EE000020BA00ECFF3F000020BA0000203A000A0040000A004000000000000000400200967530E71D000000FFFF010040911D0038D11F000000020040911D0038D11F000100000001000000
1004
96750000000080BF0000000000000000000000000000803F0000000000000000000000400000004002000000000000000040A4EE00D87F3F00ECFF3F000020BA0014803F000A0040000A0040000020C0FFFFFFBE0200967520E81D000000FFFF010040911D0058C61E000000020040911D0058C61E000100
1004
000001000000967500000000803F0000000000000000000000000000803F000000000000803F00000040000020400200000020C0FFFFFFBEA4EE000020BA00ECFF3F00ECFF3F0014803F000A0040000A0040000000BF0000003F0200967510E91D0000000100FFFF40911D0078D21F000000020078D21F00
1004
40911D000100000001000000967500000000000000000000000080BF000000000000803F000000000000003F00000040000000400200000000BF0000003FA4EE958664BA958664BADCF89F409586643A000A40402507A040000000C00100803F0200967500EA1D000000FFFF010010921D0038D11F000000
1004
020010921D0038D11F00010000000100000096750000000080BF000000000000000000000000000000000000803F00000000000000400000A0400200000000C00100803FA4EE00D87F3F00D87F3FDCF89F400014803F000A40400005A040FFFF7F3F000040400200967540EB1D000000FFFF010010921D00
1004
58C61E000000020010921D0058C61E000100000001000000967500000000803F000000000000000000000080000000000000803F0000803F000080400000A0400200FFFF7F3F00004040A4EE000020BA00F63F4000FB9F400014803F000A40400005A040000080BF0000008002009675A0371E000000FFFF
1004
010010921D0010D01F000000020010921D0010D01F00010000000100000096750000000000000000803F0000000000000000000000000000803F0000803F000040400000A0400200000080BF00000080A4EE000020BA00F63F4000F63F400000203A000A40400005A0400000C0BFFAFFFF3E020096759038
1004
1E000000FFFF010010D01F0038D11F000000020010D01F0038D11F00010000000100000096750000000080BF0000000000000000000000000000803F0000000000000000000040400000604002000000C0BFFAFFFF3EA4EE00D87F3F00F63F4000F63F400014803F000A40400005A040FFFF7FBFFFFF7F3F
1004
0200967580391E000000FFFF010010D01F0058C61E000000020010D01F0058C61E000100000001000000967500000000803F0000000000000000000000000000803F000000000000803F00004040000080400200FFFF7FBFFFFF7F3FA4EE000020BA00F63F4000F63F400014803F000A4040000A40400000
1004
00000000803F02009675703A1E0000000100FFFF10D01F0068C01E000000020068C01E0010D01F0001000000010000009675000000000000000000000000803F000000000000803F000000800000803F00004040000040400200000000000000803FA4EE000020BA00D87F3F00ECFF3F9586643A0005A040
1004
000A0040000080C0000080BF02009675603B1E000000FFFF010078D21F0038D11F000000020078D21F0038D11F00010000000100000096750000000080BF00000000000000000000000000000000000080BF000000000000803F000000400200000080C0000080BFA4EE00D87F3F00D87F3F00ECFF3F0014
1004
803F0005A040000A0040010080BFFFFFFF3F02009675503C1E000000FFFF010078D21F0058C61E000000020078D21F0058C61E000100000001000000967500000000803F00000000000000000000000000000000000080BF0000803F00004040000000400200010080BFFFFFFF3FA4EE000020BA00FB9F40
1004
00ECFF3F0014803F0005A040000A0040000000BF0000003F02009675403D1E000000FFFF010078D21F00C8C51E000000020078D21F00C8C51E00010000000100000096750000000000000000803F000000000000000000000000000080BF0000003F0000A040000000400200000000BF0000003FA4EE0000
1004
20BA00D87F3F00F63F409586643A0005A040000A4040FFFFFFBF0000000002009675303E1E000000FFFF010038D11F0068C01E000000020038D11F0068C01E0001000000010000009675000000000000000000000000803F000080BF00000000000000000000000000004040000040400200FFFFFFBF0000
1004
0000A4EE000020BA00FB9F4000ECFF3F0000203A0005A040000A4040FFFFFFBE0200003F0200967558D21D000000FFFF010038D11F00C8C51E000000020038D11F00C8C51E00010000000100000096750000000000000000803F00000000000080BF0000000000000000000000000000A040000020400200
1004
FFFFFFBE0200003FA4EE00D87F3F00D87F3F00F63F400014803F0005A040000A404000000000FFFFFF3F0200967548D31D000000FFFF010068C01E0058C61E000000020068C01E0058C61E000100000001000000967500000000803F000000000000000000000080000000000000803F0000803F0000A040
1004
00004040020000000000FFFFFF3FA4EE000020BA00FB9F4000F63F400014803F0005A040000A4040000080BF000000800200967538D41D000000FFFF010068C01E00C8C51E000000020068C01E00C8C51E00010000000100000096750000000000000000803F0000000000000000000000000000803F0000
1004
803F0000A040000040400200000080BF00000080A4EE00D87F3F00FB9F4000ECFF3F0014803F0005A040000A4040010080BF000000800200967528D51D000000FFFF0100C8C51E0058C61E0000000200C8C51E0058C61E000100000001000000967500000000803F0000000000000000000000000000803F
1004
000000000000803F0000A040000040400200010080BF0000008019FC
1005
C8
  0
INSERT
  8
AME_FRZ
  5
C8
  2
AME_NIL
 10
1.0
 20
1.0
 30
1.0
1001
AME_SOL
1004

1005
0
  0
INSERT
  8
AME_FRZ
  5
CC
  2
AME_MAT
 10
0.0
 20
0.0
 30
0.0
1001
AME_SOL
1000
MILD_STEEL
1040
7860.0
1040
220.0
1040
0.275
1040
207.0
1040
345.0
1040
56.0
1040
12.0
1040
0.46
  0
ENDSEC
  0
EOF
