600 0 1 0           
109 GICL ACIS Healer - Source: /gicl/data5/repository/ICEM-CDC/Fixture_Models/pallet_plain/pallet_plain.sat - 6 0 18 ACIS 6.0.3 Solaris 24 Sat Apr 13 23:05:28 2002 
1 9.999999999999999547e-07 1.000000000000000036e-10 
body $-1 $1 $-1 $2 #
lump $-1 $-1 $3 $0 #
transform $-1 1 0 0 0 1 0 0 0 1 0 0 0 1 no_rotate no_reflect no_shear #
shell $-1 $-1 $-1 $4 $-1 $1 #
face $5 $6 $7 $3 $-1 $8 forward single #
face_name-twe-attrib $-1 $-1 $-1 $4 1 #
face $9 $10 $11 $3 $-1 $12 reversed single #
loop $13 $-1 $14 $4 #
plane-surface $15 -123.431457505075997 30 180 -0.7071067811865475727 0 0.7071067811865475727 0 1 0 forward_v I I I I #
face_name-twe-attrib $-1 $-1 $-1 $6 2 #
face $16 $17 $18 $3 $-1 $19 forward single #
loop $20 $-1 $21 $6 #
plane-surface $22 0 30 0 0 -1 0 0 0 -1 forward_v I I I I #
loop_type-twe-attrib $-1 $-1 $-1 $7 0 #
coedge $-1 $23 $24 $21 $25 reversed $7 $-1 #
surf-twe-attrib $-1 $-1 $-1 $8 4 #
face_name-twe-attrib $-1 $-1 $-1 $10 3 #
face $26 $27 $28 $3 $-1 $29 forward single #
loop $30 $-1 $31 $10 #
plane-surface $32 0 0 180 0 0 1 1 0 0 forward_v I I I I #
loop_type-twe-attrib $-1 $-1 $-1 $11 0 #
coedge $-1 $33 $34 $14 $25 forward $11 $-1 #
surf-twe-attrib $-1 $-1 $-1 $12 6 #
coedge $-1 $35 $14 $36 $37 reversed $7 $-1 #
coedge $-1 $14 $35 $31 $38 reversed $7 $-1 #
edge $39 $40 -60.00000000000016342 $41 20.0000000000000675 $21 $42 forward 7 unknown #
face_name-twe-attrib $-1 $-1 $-1 $17 4 #
face $43 $44 $45 $3 $-1 $46 reversed single #
loop $47 $-1 $48 $17 #
plane-surface $49 123.431186255013003 -30 180 0.7071033905688870469 0 0.7071101717879499926 0 1 0 forward_v I I I I #
loop_type-twe-attrib $-1 $-1 $-1 $18 0 #
coedge $-1 $50 $51 $24 $38 forward $18 $-1 #
surf-twe-attrib $-1 $-1 $-1 $19 10 #
coedge $-1 $52 $21 $51 $53 reversed $11 $-1 #
coedge $-1 $21 $54 $55 $56 reversed $11 $-1 #
coedge $-1 $24 $23 $57 $58 reversed $7 $-1 #
coedge $-1 $55 $59 $23 $37 forward $60 $-1 #
edge $61 $62 -45 $40 15 $36 $63 forward 7 unknown #
edge $64 $41 -45 $65 15 $31 $66 forward 7 unknown #
edge_name-twe-attrib $-1 $-1 $-1 $25 1 8704 #
vertex $-1 $37 $67 #
vertex $-1 $53 $68 #
straight-curve $69 -137.5735931288079996 30 165.8578643762699869 0.7071067811865480168 0 0.7071067811865480168 I I #
face_name-twe-attrib $-1 $-1 $-1 $27 5 #
face $70 $71 $72 $3 $-1 $73 forward single #
loop $74 $-1 $57 $27 #
plane-surface $75 0 -30 0 0 1 0 0 0 1 forward_v I I I I #
loop_type-twe-attrib $-1 $-1 $-1 $28 0 #
coedge $-1 $76 $77 $78 $79 reversed $28 $-1 #
surf-twe-attrib $-1 $-1 $-1 $29 17 #
coedge $-1 $80 $31 $81 $82 forward $18 $-1 #
coedge $-1 $31 $80 $33 $53 forward $18 $-1 #
coedge $-1 $83 $33 $84 $85 forward $11 $-1 #
edge $86 $87 -123.431186255013003 $41 123.431457505075997 $33 $88 forward 7 unknown #
coedge $-1 $34 $89 $90 $91 forward $11 $-1 #
coedge $-1 $92 $36 $34 $56 forward $60 $-1 #
edge $93 $40 -123.431457505075997 $94 123.431457505077006 $34 $95 forward 7 unknown #
coedge $-1 $96 $81 $35 $58 forward $45 $-1 #
edge $97 $65 -20.0000000000000675 $62 60.00000000000016342 $57 $98 forward 7 unknown #
coedge $-1 $36 $92 $96 $99 reversed $60 $-1 #
loop $100 $-1 $36 $101 #
edge_name-twe-attrib $-1 $-1 $-1 $37 18 8448 #
vertex $-1 $58 $102 #
straight-curve $103 -180 15 123.431457505075997 0 1 0 I I #
edge_name-twe-attrib $-1 $-1 $-1 $38 8 8448 #
vertex $-1 $58 $104 #
straight-curve $105 -123.431457505075997 -15 180 0 -1 0 I I #
point $-1 -180 30 123.431457505075997 #
point $-1 -123.431457505075997 30 180 #
cur-twe-attrib $-1 $-1 $-1 $42 25 #
face_name-twe-attrib $-1 $-1 $-1 $44 6 #
face $106 $107 $108 $3 $-1 $109 reversed single #
loop $110 $-1 $111 $44 #
plane-surface $112 -123.431457505077006 -30 -180 -0.7071067811865475727 0 -0.7071067811865475727 0 1 0 forward_v I I I I #
loop_type-twe-attrib $-1 $-1 $-1 $45 0 #
surf-twe-attrib $-1 $-1 $-1 $46 27 #
coedge $-1 $84 $48 $113 $114 reversed $28 $-1 #
coedge $-1 $48 $84 $80 $115 reversed $28 $-1 #
coedge $-1 $81 $116 $48 $79 forward $45 $-1 #
edge $117 $118 -60.00041850994541193 $119 19.99958149281375341 $78 $120 forward 7 unknown #
coedge $-1 $51 $50 $77 $115 forward $18 $-1 #
coedge $-1 $57 $78 $50 $82 reversed $45 $-1 #
edge $121 $65 -123.431457505075997 $119 123.431186255013003 $81 $122 forward 7 unknown #
coedge $-1 $123 $52 $124 $125 forward $11 $-1 #
coedge $-1 $77 $76 $52 $85 reversed $28 $-1 #
edge $126 $87 -19.99958149281375341 $127 60.00041850994541193 $52 $128 forward 7 unknown #
edge_name-twe-attrib $-1 $-1 $-1 $53 2 8704 #
vertex $-1 $85 $129 #
straight-curve $130 0 30 180 -1 0 0 I I #
coedge $-1 $54 $123 $131 $132 reversed $11 $-1 #
coedge $-1 $133 $134 $54 $91 reversed $72 $-1 #
edge $135 $136 -19.99999999999935341 $94 59.99999999999944578 $54 $137 forward 7 unknown #
coedge $-1 $59 $55 $134 $138 forward $60 $-1 #
edge_name-twe-attrib $-1 $-1 $-1 $56 7 8704 #
vertex $-1 $56 $139 #
straight-curve $140 -180 30 0 0 0 -1 I I #
coedge $-1 $141 $57 $59 $99 forward $45 $-1 #
edge_name-twe-attrib $-1 $-1 $-1 $58 10 8704 #
straight-curve $142 -137.5735931288079996 -30 165.8578643762699869 -0.7071067811865480168 0 -0.7071067811865480168 I I #
edge $143 $62 -123.431457505075997 $144 123.431457505077006 $59 $145 forward 7 unknown #
loop_type-twe-attrib $-1 $-1 $-1 $60 0 #
face $146 $147 $60 $3 $-1 $148 reversed single #
point $-1 -180 -30 123.431457505075997 #
cur-twe-attrib $-1 $-1 $-1 $63 37 #
point $-1 -123.431457505075997 -30 180 #
cur-twe-attrib $-1 $-1 $-1 $66 38 #
face_name-twe-attrib $-1 $-1 $-1 $71 7 #
face $149 $101 $150 $3 $-1 $151 forward single #
loop $152 $-1 $153 $71 #
plane-surface $154 0 0 -180 0 0 1 1 0 0 forward_v I I I I #
loop_type-twe-attrib $-1 $-1 $-1 $72 0 #
coedge $-1 $134 $133 $141 $155 reversed $72 $-1 #
surf-twe-attrib $-1 $-1 $-1 $73 44 #
coedge $-1 $156 $124 $76 $114 forward $157 $-1 #
edge $158 $127 -45 $118 15 $113 $159 forward 7 unknown #
edge $160 $119 -45 $87 15 $80 $161 forward 7 unknown #
coedge $-1 $78 $162 $156 $163 reversed $45 $-1 #
edge_name-twe-attrib $-1 $-1 $-1 $79 14 8704 #
vertex $-1 $114 $164 #
vertex $-1 $82 $165 #
straight-curve $166 137.5730937600839923 -30 165.8582281164729864 -0.7071101717879499926 0 0.7071033905688870469 I I #
edge_name-twe-attrib $-1 $-1 $-1 $82 15 8704 #
straight-curve $167 0 -30 180 1 0 0 I I #
coedge $-1 $89 $83 $168 $169 forward $11 $-1 #
coedge $-1 $113 $170 $83 $125 reversed $157 $-1 #
edge $171 $127 -123.4317287525380067 $172 123.431457505077006 $124 $173 forward 7 unknown #
edge_name-twe-attrib $-1 $-1 $-1 $85 3 8704 #
vertex $-1 $85 $174 #
straight-curve $175 137.5730937600839923 30 165.8582281164729864 0.7071101717879499926 0 -0.7071033905688870469 I I #
point $-1 123.431186255013003 30 180 #
cur-twe-attrib $-1 $-1 $-1 $88 53 #
coedge $-1 $176 $153 $89 $132 forward $108 $-1 #
edge $177 $136 -123.431457505077006 $178 123.431457505077006 $89 $179 forward 7 unknown #
coedge $-1 $111 $90 $153 $180 reversed $72 $-1 #
coedge $-1 $90 $111 $92 $138 reversed $72 $-1 #
edge_name-twe-attrib $-1 $-1 $-1 $91 6 8704 #
vertex $-1 $91 $181 #
straight-curve $182 -137.5735931288079996 30 -165.8578643762699869 -0.7071067811865480168 0 0.7071067811865480168 I I #
edge $183 $94 -45 $144 15 $92 $184 forward 7 unknown #
point $-1 -180 30 -123.431457505077006 #
cur-twe-attrib $-1 $-1 $-1 $95 56 #
coedge $-1 $185 $96 $111 $155 forward $45 $-1 #
cur-twe-attrib $-1 $-1 $-1 $98 58 #
edge_name-twe-attrib $-1 $-1 $-1 $99 20 8704 #
vertex $-1 $99 $186 #
straight-curve $187 -180 -30 0 0 0 -1 I I #
face_name-twe-attrib $-1 $-1 $-1 $101 9 #
face $188 $-1 $157 $3 $-1 $189 reversed single #
plane-surface $190 -180 0 0 1 0 0 0 0 -1 forward_v I I I I #
face_name-twe-attrib $-1 $-1 $-1 $107 8 #
loop $191 $-1 $168 $107 #
plane-surface $192 123.431457505077006 30 -180 0.7071067811865475727 0 -0.7071067811865475727 0 1 0 forward_v I I I I #
loop_type-twe-attrib $-1 $-1 $-1 $108 0 #
coedge $-1 $131 $193 $133 $180 forward $108 $-1 #
surf-twe-attrib $-1 $-1 $-1 $109 71 #
edge $194 $144 -59.99999999999944578 $195 19.99999999999935341 $141 $196 forward 7 unknown #
coedge $-1 $170 $113 $116 $163 forward $157 $-1 #
loop $197 $-1 $113 $147 #
edge_name-twe-attrib $-1 $-1 $-1 $114 21 8448 #
straight-curve $198 180 -15 123.4317287525380067 0 -1 0 I I #
edge_name-twe-attrib $-1 $-1 $-1 $115 9 8448 #
straight-curve $199 123.431186255013003 15 180 0 1 0 I I #
coedge $-1 $116 $185 $200 $201 forward $45 $-1 #
edge $202 $118 -123.4317287525380067 $203 123.431457505077006 $156 $204 forward 7 unknown #
point $-1 180 -30 123.4317287525380067 #
point $-1 123.431186255013003 -30 180 #
cur-twe-attrib $-1 $-1 $-1 $120 79 #
cur-twe-attrib $-1 $-1 $-1 $122 82 #
coedge $-1 $205 $206 $123 $169 reversed $150 $-1 #
edge $207 $172 -59.99999999999944578 $178 19.99999999999935341 $123 $208 forward 7 unknown #
coedge $-1 $124 $156 $205 $209 forward $157 $-1 #
edge_name-twe-attrib $-1 $-1 $-1 $125 24 8704 #
vertex $-1 $125 $210 #
straight-curve $211 180 30 0 0 0 -1 I I #
point $-1 180 30 123.4317287525380067 #
cur-twe-attrib $-1 $-1 $-1 $128 85 #
coedge $-1 $193 $131 $206 $212 forward $108 $-1 #
edge_name-twe-attrib $-1 $-1 $-1 $132 5 8704 #
vertex $-1 $132 $213 #
straight-curve $214 0 30 -180 1 0 0 I I #
edge $215 $195 -45 $136 15 $153 $216 forward 7 unknown #
point $-1 -123.431457505077006 30 -180 #
cur-twe-attrib $-1 $-1 $-1 $137 91 #
edge_name-twe-attrib $-1 $-1 $-1 $138 19 8448 #
straight-curve $217 -180 -15 -123.431457505077006 0 -1 0 I I #
coedge $-1 $162 $141 $193 $218 reversed $45 $-1 #
point $-1 -180 -30 -123.431457505077006 #
cur-twe-attrib $-1 $-1 $-1 $145 99 #
face_name-twe-attrib $-1 $-1 $-1 $147 10 #
plane-surface $219 180 0 0 -1 0 0 0 0 1 forward_v I I I I #
surf-twe-attrib $-1 $-1 $-1 $148 101 #
loop_type-twe-attrib $-1 $-1 $-1 $150 0 #
surf-twe-attrib $-1 $-1 $-1 $151 107 #
coedge $-1 $153 $176 $185 $218 forward $108 $-1 #
edge_name-twe-attrib $-1 $-1 $-1 $155 11 8704 #
vertex $-1 $218 $220 #
straight-curve $221 -137.5735931288079996 -30 -165.8578643762699869 0.7071067811865480168 0 -0.7071067811865480168 I I #
loop_type-twe-attrib $-1 $-1 $-1 $157 0 #
cur-twe-attrib $-1 $-1 $-1 $159 114 #
cur-twe-attrib $-1 $-1 $-1 $161 115 #
coedge $-1 $206 $205 $162 $201 reversed $150 $-1 #
edge $222 $223 -19.99999999999935341 $203 59.99999999999944578 $162 $224 forward 7 unknown #
edge_name-twe-attrib $-1 $-1 $-1 $163 22 8704 #
vertex $-1 $163 $225 #
straight-curve $226 180 -30 0 0 0 -1 I I #
coedge $-1 $200 $168 $170 $209 reversed $150 $-1 #
coedge $-1 $168 $200 $176 $212 reversed $150 $-1 #
edge_name-twe-attrib $-1 $-1 $-1 $169 4 8704 #
straight-curve $227 137.5735931288079996 30 -165.8578643762699869 -0.7071067811865480168 0 -0.7071067811865480168 I I #
edge $228 $203 -45 $172 15 $170 $229 forward 7 unknown #
point $-1 180 30 -123.431457505077006 #
cur-twe-attrib $-1 $-1 $-1 $173 125 #
edge $230 $178 -45 $223 15 $176 $231 forward 7 unknown #
point $-1 123.431457505077006 30 -180 #
cur-twe-attrib $-1 $-1 $-1 $179 132 #
edge_name-twe-attrib $-1 $-1 $-1 $180 16 8448 #
straight-curve $232 -123.431457505077006 15 -180 0 1 0 I I #
cur-twe-attrib $-1 $-1 $-1 $184 138 #
edge $233 $223 -123.431457505077006 $195 123.431457505077006 $185 $234 forward 7 unknown #
surf-twe-attrib $-1 $-1 $-1 $189 147 #
point $-1 -123.431457505077006 -30 -180 #
cur-twe-attrib $-1 $-1 $-1 $196 155 #
edge_name-twe-attrib $-1 $-1 $-1 $201 13 8704 #
vertex $-1 $201 $235 #
straight-curve $236 137.5735931288079996 -30 -165.8578643762699869 0.7071067811865480168 0 0.7071067811865480168 I I #
point $-1 180 -30 -123.431457505077006 #
cur-twe-attrib $-1 $-1 $-1 $204 163 #
cur-twe-attrib $-1 $-1 $-1 $208 169 #
edge_name-twe-attrib $-1 $-1 $-1 $209 23 8448 #
straight-curve $237 180 15 -123.431457505077006 0 1 0 I I #
edge_name-twe-attrib $-1 $-1 $-1 $212 17 8448 #
straight-curve $238 123.431457505077006 -15 -180 0 -1 0 I I #
cur-twe-attrib $-1 $-1 $-1 $216 180 #
edge_name-twe-attrib $-1 $-1 $-1 $218 12 8704 #
straight-curve $239 0 -30 -180 -1 0 0 I I #
point $-1 123.431457505077006 -30 -180 #
cur-twe-attrib $-1 $-1 $-1 $224 201 #
cur-twe-attrib $-1 $-1 $-1 $229 209 #
cur-twe-attrib $-1 $-1 $-1 $231 212 #
cur-twe-attrib $-1 $-1 $-1 $234 218 #
End-of-ACIS-data 