104 240 0 0                             
body $-1 $1 $-1 $2 #
lump $-1 $-1 $3 $0 #
transform $-1 1 0 0 0 1 0 0 0 1 0 0 0 1 0 0 0 #
shell $-1 $-1 $-1 $4 $1 #
face $5 $6 $7 $3 $-1 $8 0 #
face_name-twe-attrib $-1 $-1 $-1 $4 1 #
face $9 $10 $11 $3 $-1 $12 1 #
loop $13 $-1 $14 $4 #
plane-surface $15 -123.431457505076 30 180 -0.707106781186548 0 0.707106781186548 0 1 0 0 #
face_name-twe-attrib $-1 $-1 $-1 $6 2 #
face $16 $17 $18 $3 $-1 $19 0 #
loop $20 $-1 $21 $6 #
plane-surface $22 0 30 0 0 -1 0 0 0 -1 0 #
loop_type-twe-attrib $-1 $-1 $-1 $7 0 #
coedge $-1 $23 $24 $21 $25 1 $7 $-1 #
surf-twe-attrib $-1 $-1 $-1 $8 4 #
face_name-twe-attrib $-1 $-1 $-1 $10 3 #
face $26 $27 $28 $3 $-1 $29 0 #
loop $30 $-1 $31 $10 #
plane-surface $32 0 0 180 0 0 1 1 0 0 0 #
loop_type-twe-attrib $-1 $-1 $-1 $11 0 #
coedge $-1 $33 $34 $14 $25 0 $11 $-1 #
surf-twe-attrib $-1 $-1 $-1 $12 6 #
coedge $-1 $35 $14 $36 $37 1 $7 $-1 #
coedge $-1 $14 $35 $31 $38 1 $7 $-1 #
edge $39 $40 $41 $21 $42 0 #
face_name-twe-attrib $-1 $-1 $-1 $17 4 #
face $43 $44 $45 $3 $-1 $46 1 #
loop $47 $-1 $48 $17 #
plane-surface $49 123.431186255013 -30 180 0.707103390568887 0 0.70711017178795 0 1 0 0 #
loop_type-twe-attrib $-1 $-1 $-1 $18 0 #
coedge $-1 $50 $51 $24 $38 0 $18 $-1 #
surf-twe-attrib $-1 $-1 $-1 $19 10 #
coedge $-1 $52 $21 $51 $53 1 $11 $-1 #
coedge $-1 $21 $54 $55 $56 1 $11 $-1 #
coedge $-1 $24 $23 $57 $58 1 $7 $-1 #
coedge $-1 $55 $59 $23 $37 0 $60 $-1 #
edge $61 $62 $40 $36 $63 0 #
edge $64 $41 $65 $31 $66 0 #
edge_name-twe-attrib $-1 $-1 $-1 $25 1 8704 #
vertex $-1 $37 $67 #
vertex $-1 $53 $68 #
straight-curve $69 -137.573593128808 30 165.85786437627 0.707106781186548 0 0.707106781186548 #
face_name-twe-attrib $-1 $-1 $-1 $27 5 #
face $70 $71 $72 $3 $-1 $73 0 #
loop $74 $-1 $57 $27 #
plane-surface $75 0 -30 0 0 1 0 0 0 1 0 #
loop_type-twe-attrib $-1 $-1 $-1 $28 0 #
coedge $-1 $76 $77 $78 $79 1 $28 $-1 #
surf-twe-attrib $-1 $-1 $-1 $29 17 #
coedge $-1 $80 $31 $81 $82 0 $18 $-1 #
coedge $-1 $31 $80 $33 $53 0 $18 $-1 #
coedge $-1 $83 $33 $84 $85 0 $11 $-1 #
edge $86 $87 $41 $33 $88 0 #
coedge $-1 $34 $89 $90 $91 0 $11 $-1 #
coedge $-1 $92 $36 $34 $56 0 $60 $-1 #
edge $93 $40 $94 $34 $95 0 #
coedge $-1 $96 $81 $35 $58 0 $45 $-1 #
edge $97 $65 $62 $57 $98 0 #
coedge $-1 $36 $92 $96 $99 1 $60 $-1 #
loop $100 $-1 $36 $101 #
edge_name-twe-attrib $-1 $-1 $-1 $37 18 8448 #
vertex $-1 $58 $102 #
straight-curve $103 -180 15 123.431457505076 0 1 0 #
edge_name-twe-attrib $-1 $-1 $-1 $38 8 8448 #
vertex $-1 $58 $104 #
straight-curve $105 -123.431457505076 -15 180 0 -1 0 #
point $-1 -180 30 123.431457505076 #
point $-1 -123.431457505076 30 180 #
cur-twe-attrib $-1 $-1 $-1 $42 25 #
face_name-twe-attrib $-1 $-1 $-1 $44 6 #
face $106 $107 $108 $3 $-1 $109 1 #
loop $110 $-1 $111 $44 #
plane-surface $112 -123.431457505077 -30 -180 -0.707106781186548 0 -0.707106781186548 0 1 0 0 #
loop_type-twe-attrib $-1 $-1 $-1 $45 0 #
surf-twe-attrib $-1 $-1 $-1 $46 27 #
coedge $-1 $84 $48 $113 $114 1 $28 $-1 #
coedge $-1 $48 $84 $80 $115 1 $28 $-1 #
coedge $-1 $81 $116 $48 $79 0 $45 $-1 #
edge $117 $118 $119 $78 $120 0 #
coedge $-1 $51 $50 $77 $115 0 $18 $-1 #
coedge $-1 $57 $78 $50 $82 1 $45 $-1 #
edge $121 $65 $119 $81 $122 0 #
coedge $-1 $123 $52 $124 $125 0 $11 $-1 #
coedge $-1 $77 $76 $52 $85 1 $28 $-1 #
edge $126 $87 $127 $52 $128 0 #
edge_name-twe-attrib $-1 $-1 $-1 $53 2 8704 #
vertex $-1 $85 $129 #
straight-curve $130 0 30 180 -1 0 0 #
coedge $-1 $54 $123 $131 $132 1 $11 $-1 #
coedge $-1 $133 $134 $54 $91 1 $72 $-1 #
edge $135 $136 $94 $54 $137 0 #
coedge $-1 $59 $55 $134 $138 0 $60 $-1 #
edge_name-twe-attrib $-1 $-1 $-1 $56 7 8704 #
vertex $-1 $56 $139 #
straight-curve $140 -180 30 0 0 0 -1 #
coedge $-1 $141 $57 $59 $99 0 $45 $-1 #
edge_name-twe-attrib $-1 $-1 $-1 $58 10 8704 #
straight-curve $142 -137.573593128808 -30 165.85786437627 -0.707106781186548 0 -0.707106781186548 #
edge $143 $62 $144 $59 $145 0 #
loop_type-twe-attrib $-1 $-1 $-1 $60 0 #
face $146 $147 $60 $3 $-1 $148 1 #
point $-1 -180 -30 123.431457505076 #
cur-twe-attrib $-1 $-1 $-1 $63 37 #
point $-1 -123.431457505076 -30 180 #
cur-twe-attrib $-1 $-1 $-1 $66 38 #
face_name-twe-attrib $-1 $-1 $-1 $71 7 #
face $149 $101 $150 $3 $-1 $151 0 #
loop $152 $-1 $153 $71 #
plane-surface $154 0 0 -180 0 0 1 1 0 0 0 #
loop_type-twe-attrib $-1 $-1 $-1 $72 0 #
coedge $-1 $134 $133 $141 $155 1 $72 $-1 #
surf-twe-attrib $-1 $-1 $-1 $73 44 #
coedge $-1 $156 $124 $76 $114 0 $157 $-1 #
edge $158 $127 $118 $113 $159 0 #
edge $160 $119 $87 $80 $161 0 #
coedge $-1 $78 $162 $156 $163 1 $45 $-1 #
edge_name-twe-attrib $-1 $-1 $-1 $79 14 8704 #
vertex $-1 $114 $164 #
vertex $-1 $82 $165 #
straight-curve $166 137.573093760084 -30 165.858228116473 -0.70711017178795 0 0.707103390568887 #
edge_name-twe-attrib $-1 $-1 $-1 $82 15 8704 #
straight-curve $167 0 -30 180 1 0 0 #
coedge $-1 $89 $83 $168 $169 0 $11 $-1 #
coedge $-1 $113 $170 $83 $125 1 $157 $-1 #
edge $171 $127 $172 $124 $173 0 #
edge_name-twe-attrib $-1 $-1 $-1 $85 3 8704 #
vertex $-1 $85 $174 #
straight-curve $175 137.573093760084 30 165.858228116473 0.70711017178795 0 -0.707103390568887 #
point $-1 123.431186255013 30 180 #
cur-twe-attrib $-1 $-1 $-1 $88 53 #
coedge $-1 $176 $153 $89 $132 0 $108 $-1 #
edge $177 $136 $178 $89 $179 0 #
coedge $-1 $111 $90 $153 $180 1 $72 $-1 #
coedge $-1 $90 $111 $92 $138 1 $72 $-1 #
edge_name-twe-attrib $-1 $-1 $-1 $91 6 8704 #
vertex $-1 $91 $181 #
straight-curve $182 -137.573593128808 30 -165.85786437627 -0.707106781186548 0 0.707106781186548 #
edge $183 $94 $144 $92 $184 0 #
point $-1 -180 30 -123.431457505077 #
cur-twe-attrib $-1 $-1 $-1 $95 56 #
coedge $-1 $185 $96 $111 $155 0 $45 $-1 #
cur-twe-attrib $-1 $-1 $-1 $98 58 #
edge_name-twe-attrib $-1 $-1 $-1 $99 20 8704 #
vertex $-1 $99 $186 #
straight-curve $187 -180 -30 0 0 0 -1 #
face_name-twe-attrib $-1 $-1 $-1 $101 9 #
face $188 $-1 $157 $3 $-1 $189 1 #
plane-surface $190 -180 0 0 1 0 0 0 0 -1 0 #
face_name-twe-attrib $-1 $-1 $-1 $107 8 #
loop $191 $-1 $168 $107 #
plane-surface $192 123.431457505077 30 -180 0.707106781186548 0 -0.707106781186548 0 1 0 0 #
loop_type-twe-attrib $-1 $-1 $-1 $108 0 #
coedge $-1 $131 $193 $133 $180 0 $108 $-1 #
surf-twe-attrib $-1 $-1 $-1 $109 71 #
edge $194 $144 $195 $141 $196 0 #
coedge $-1 $170 $113 $116 $163 0 $157 $-1 #
loop $197 $-1 $113 $147 #
edge_name-twe-attrib $-1 $-1 $-1 $114 21 8448 #
straight-curve $198 180 -15 123.431728752538 0 -1 0 #
edge_name-twe-attrib $-1 $-1 $-1 $115 9 8448 #
straight-curve $199 123.431186255013 15 180 0 1 0 #
coedge $-1 $116 $185 $200 $201 0 $45 $-1 #
edge $202 $118 $203 $156 $204 0 #
point $-1 180 -30 123.431728752538 #
point $-1 123.431186255013 -30 180 #
cur-twe-attrib $-1 $-1 $-1 $120 79 #
cur-twe-attrib $-1 $-1 $-1 $122 82 #
coedge $-1 $205 $206 $123 $169 1 $150 $-1 #
edge $207 $172 $178 $123 $208 0 #
coedge $-1 $124 $156 $205 $209 0 $157 $-1 #
edge_name-twe-attrib $-1 $-1 $-1 $125 24 8704 #
vertex $-1 $125 $210 #
straight-curve $211 180 30 0 0 0 -1 #
point $-1 180 30 123.431728752538 #
cur-twe-attrib $-1 $-1 $-1 $128 85 #
coedge $-1 $193 $131 $206 $212 0 $108 $-1 #
edge_name-twe-attrib $-1 $-1 $-1 $132 5 8704 #
vertex $-1 $132 $213 #
straight-curve $214 0 30 -180 1 0 0 #
edge $215 $195 $136 $153 $216 0 #
point $-1 -123.431457505077 30 -180 #
cur-twe-attrib $-1 $-1 $-1 $137 91 #
edge_name-twe-attrib $-1 $-1 $-1 $138 19 8448 #
straight-curve $217 -180 -15 -123.431457505077 0 -1 0 #
coedge $-1 $162 $141 $193 $218 1 $45 $-1 #
point $-1 -180 -30 -123.431457505077 #
cur-twe-attrib $-1 $-1 $-1 $145 99 #
face_name-twe-attrib $-1 $-1 $-1 $147 10 #
plane-surface $219 180 0 0 -1 0 0 0 0 1 0 #
surf-twe-attrib $-1 $-1 $-1 $148 101 #
loop_type-twe-attrib $-1 $-1 $-1 $150 0 #
surf-twe-attrib $-1 $-1 $-1 $151 107 #
coedge $-1 $153 $176 $185 $218 0 $108 $-1 #
edge_name-twe-attrib $-1 $-1 $-1 $155 11 8704 #
vertex $-1 $218 $220 #
straight-curve $221 -137.573593128808 -30 -165.85786437627 0.707106781186548 0 -0.707106781186548 #
loop_type-twe-attrib $-1 $-1 $-1 $157 0 #
cur-twe-attrib $-1 $-1 $-1 $159 114 #
cur-twe-attrib $-1 $-1 $-1 $161 115 #
coedge $-1 $206 $205 $162 $201 1 $150 $-1 #
edge $222 $223 $203 $162 $224 0 #
edge_name-twe-attrib $-1 $-1 $-1 $163 22 8704 #
vertex $-1 $163 $225 #
straight-curve $226 180 -30 0 0 0 -1 #
coedge $-1 $200 $168 $170 $209 1 $150 $-1 #
coedge $-1 $168 $200 $176 $212 1 $150 $-1 #
edge_name-twe-attrib $-1 $-1 $-1 $169 4 8704 #
straight-curve $227 137.573593128808 30 -165.85786437627 -0.707106781186548 0 -0.707106781186548 #
edge $228 $203 $172 $170 $229 0 #
point $-1 180 30 -123.431457505077 #
cur-twe-attrib $-1 $-1 $-1 $173 125 #
edge $230 $178 $223 $176 $231 0 #
point $-1 123.431457505077 30 -180 #
cur-twe-attrib $-1 $-1 $-1 $179 132 #
edge_name-twe-attrib $-1 $-1 $-1 $180 16 8448 #
straight-curve $232 -123.431457505077 15 -180 0 1 0 #
cur-twe-attrib $-1 $-1 $-1 $184 138 #
edge $233 $223 $195 $185 $234 0 #
surf-twe-attrib $-1 $-1 $-1 $189 147 #
point $-1 -123.431457505077 -30 -180 #
cur-twe-attrib $-1 $-1 $-1 $196 155 #
edge_name-twe-attrib $-1 $-1 $-1 $201 13 8704 #
vertex $-1 $201 $235 #
straight-curve $236 137.573593128808 -30 -165.85786437627 0.707106781186548 0 0.707106781186548 #
point $-1 180 -30 -123.431457505077 #
cur-twe-attrib $-1 $-1 $-1 $204 163 #
cur-twe-attrib $-1 $-1 $-1 $208 169 #
edge_name-twe-attrib $-1 $-1 $-1 $209 23 8448 #
straight-curve $237 180 15 -123.431457505077 0 1 0 #
edge_name-twe-attrib $-1 $-1 $-1 $212 17 8448 #
straight-curve $238 123.431457505077 -15 -180 0 -1 0 #
cur-twe-attrib $-1 $-1 $-1 $216 180 #
edge_name-twe-attrib $-1 $-1 $-1 $218 12 8704 #
straight-curve $239 0 -30 -180 -1 0 0 #
point $-1 123.431457505077 -30 -180 #
cur-twe-attrib $-1 $-1 $-1 $224 201 #
cur-twe-attrib $-1 $-1 $-1 $229 209 #
cur-twe-attrib $-1 $-1 $-1 $231 212 #
cur-twe-attrib $-1 $-1 $-1 $234 218 #
