600 0 2 0           
24 FBMach with ACIS - 6.0.3 13 ACIS 6.0.3 NT 24 Wed May 23 21:06:06 2001 
1 9.9999999999999995e-007 1e-010 
body $2 $3 $-1 $4 #
bdycol-kcp $-1 1 2 $5 $6 #
model_id-kcp-attrib $-1 $-1 $-1 $0 1 990666366 70 -2109341695 1 #
lump $-1 $-1 $7 $0 #
transform $-1 1.0000000000000007 0 0 0 1 0 0 0 1.0000000000000007 0 0 0 1 rotate no_reflect no_shear #
body $8 $9 $-1 $10 #
body $11 $12 $-1 $13 #
shell $-1 $-1 $-1 $14 $-1 $3 #
model_id-kcp-attrib $-1 $-1 $-1 $5 1 990666366 70 -2109341694 1 #
lump $-1 $-1 $15 $5 #
transform $-1 1 0 0 0 1 0 0 0 1 -2.5579538487363607e-013 0 2.5579538487363607e-013 1 no_rotate no_reflect no_shear #
rgb_color-st-attrib $-1 $16 $-1 $6 0.5 1 1 #
lump $-1 $17 $18 $6 #
transform $-1 1 0 0 0 1 0 0 0 1 -2.5579538487363607e-013 0 2.5579538487363607e-013 1 no_rotate no_reflect no_shear #
face $19 $20 $21 $7 $-1 $22 forward single #
shell $-1 $-1 $-1 $23 $-1 $9 #
model_id-kcp-attrib $-1 $-1 $11 $6 1 990666366 290 -2111700989 1 #
lump $-1 $24 $25 $6 #
shell $-1 $-1 $-1 $26 $-1 $12 #
model_id-kcp-attrib $-1 $27 $-1 $14 1 990666366 70 -2109341695 2 #
face $28 $29 $30 $7 $-1 $31 reversed single #
loop $32 $-1 $33 $14 #
plane-surface $34 -123.431457505076 30 180 -0.70710678118654757 0 0.70710678118654757 0 1 0 forward_v I I I I #
face $35 $36 $37 $15 $-1 $38 forward single #
lump $-1 $39 $40 $6 #
shell $-1 $-1 $-1 $41 $-1 $17 #
face $-1 $42 $43 $18 $-1 $44 reversed single #
face_name-twe-attrib $-1 $-1 $19 $14 1 #
model_id-kcp-attrib $-1 $45 $-1 $20 1 990666366 70 -2109341695 12 #
face $46 $47 $48 $7 $-1 $49 forward single #
loop $50 $-1 $51 $20 #
plane-surface $52 0 30 0 0 -1 0 0 0 -1 forward_v I I I I #
loop_type-twe-attrib $-1 $-1 $-1 $21 0 #
coedge $-1 $53 $54 $51 $55 reversed $21 $-1 #
surf-twe-attrib $-1 $-1 $-1 $22 4 #
model_id-kcp-attrib $-1 $-1 $-1 $23 1 990666366 70 -2109341694 3 #
face $56 $57 $58 $15 $-1 $59 reversed single #
loop $-1 $-1 $60 $23 #
plane-surface $-1 0 0 180.00000000000074 0 0 1 1 0 0 forward_v I I I I #
lump $-1 $-1 $61 $6 #
shell $-1 $-1 $-1 $62 $-1 $24 #
face $-1 $63 $64 $25 $-1 $65 forward single #
face $-1 $66 $67 $18 $-1 $68 reversed single #
loop $-1 $-1 $69 $26 #
plane-surface $-1 -180.00000000000026 30 -123.43145750507779 -0.70710678118654746 0 -0.70710678118654757 0 -1 0 forward_v I I I I #
model_id-kcp-attrib $-1 $70 $28 $20 1 990666366 70 -2109341695 3 #
model_id-kcp-attrib $-1 $71 $-1 $29 1 990666366 70 -2109341695 4 #
face $72 $73 $74 $7 $-1 $75 forward single #
loop $76 $-1 $77 $29 #
plane-surface $78 0 0 180 0 0 1 1 0 0 forward_v I I I I #
loop_type-twe-attrib $-1 $-1 $-1 $30 0 #
coedge $-1 $79 $80 $33 $55 forward $30 $-1 #
surf-twe-attrib $-1 $-1 $-1 $31 6 #
coedge $-1 $81 $33 $82 $83 reversed $21 $-1 #
coedge $-1 $33 $81 $77 $84 reversed $21 $-1 #
edge $85 $86 -60.000000000000163 $87 20.000000000000068 $51 $88 forward 7 unknown #
model_id-kcp-attrib $-1 $-1 $-1 $36 1 990666366 70 -2109341694 5 #
face $89 $90 $91 $15 $-1 $92 reversed single #
loop $-1 $-1 $93 $36 #
plane-surface $-1 0 0 -180.00000000000074 0 0 1 1 0 0 forward_v I I I I #
coedge $-1 $94 $95 $96 $97 forward $37 $-1 #
shell $-1 $-1 $-1 $98 $-1 $39 #
face $-1 $99 $100 $40 $-1 $101 reversed single #
face $-1 $102 $103 $25 $-1 $104 reversed single #
loop $-1 $-1 $105 $41 #
plane-surface $-1 0 0 180.00000000000074 0 0 1 1 0 0 forward_v I I I I #
face $-1 $106 $107 $18 $-1 $108 reversed single #
loop $-1 $-1 $109 $42 #
plane-surface $-1 0 -30 0 0 1 0 0 0 1 forward_v I I I I #
coedge $-1 $110 $111 $109 $112 reversed $43 $-1 #
face_name-twe-attrib $-1 $-1 $45 $20 2 #
face_name-twe-attrib $-1 $-1 $46 $29 3 #
model_id-kcp-attrib $-1 $113 $-1 $47 1 990666366 70 -2109341695 5 #
face $114 $115 $116 $7 $-1 $117 reversed single #
loop $118 $-1 $119 $47 #
plane-surface $120 123.431186255013 -30 180 0.70710339056888705 0 0.70711017178794999 0 1 0 forward_v I I I I #
loop_type-twe-attrib $-1 $-1 $-1 $48 0 #
coedge $-1 $121 $122 $54 $84 forward $48 $-1 #
surf-twe-attrib $-1 $-1 $-1 $49 10 #
coedge $-1 $123 $51 $122 $124 reversed $30 $-1 #
coedge $-1 $51 $125 $126 $127 reversed $30 $-1 #
coedge $-1 $54 $53 $128 $129 reversed $21 $-1 #
coedge $-1 $126 $130 $53 $83 forward $131 $-1 #
edge $132 $133 -45 $86 15 $82 $134 forward 7 unknown #
edge $135 $87 -45 $136 15 $77 $137 forward 7 unknown #
attrib_edge_convexity-kcp-attrib $-1 $138 $-1 $55 1 #
vertex $-1 $83 $139 #
vertex $-1 $124 $140 #
straight-curve $141 -137.573593128808 30 165.85786437626999 0.70710678118654802 0 0.70710678118654802 I I #
model_id-kcp-attrib $-1 $-1 $-1 $57 1 990666366 70 -2109341694 4 #
face $142 $143 $144 $15 $-1 $145 reversed single #
loop $-1 $-1 $146 $57 #
plane-surface $-1 0 -30 0 0 1 0 0 0 1 forward_v I I I I #
coedge $-1 $147 $148 $149 $150 forward $58 $-1 #
coedge $-1 $151 $60 $152 $153 forward $37 $-1 #
coedge $-1 $60 $151 $154 $155 forward $37 $-1 #
coedge $-1 $156 $157 $60 $97 reversed $158 $-1 #
edge $-1 $159 -30 $160 30 $96 $161 forward 7 unknown #
face $-1 $162 $163 $61 $-1 $164 reversed single #
face $-1 $165 $166 $40 $-1 $68 reversed single #
loop $-1 $-1 $167 $62 #
plane-surface $-1 180.00000000000031 30 123.43172875253777 0.70710339056888716 0 0.70711017178794977 0 1 0 forward_v I I I I #
face $-1 $168 $169 $25 $-1 $68 reversed single #
loop $-1 $-1 $170 $63 #
plane-surface $-1 0 30 0 0 -1 0 0 0 -1 forward_v I I I I #
coedge $-1 $171 $172 $173 $174 forward $64 $-1 #
face $-1 $175 $176 $18 $-1 $177 reversed single #
loop $-1 $-1 $178 $66 #
plane-surface $-1 0 0 -180.00000000000074 0 0 1 1 0 0 forward_v I I I I #
coedge $-1 $179 $180 $69 $112 forward $67 $-1 #
coedge $-1 $181 $69 $178 $182 reversed $43 $-1 #
coedge $-1 $69 $181 $183 $184 reversed $43 $-1 #
edge $-1 $185 -59.999999999999304 $186 19.999999999999538 $109 $187 forward 7 unknown #
face_name-twe-attrib $-1 $-1 $72 $47 4 #
model_id-kcp-attrib $-1 $188 $-1 $73 1 990666366 70 -2109341695 6 #
face $189 $190 $191 $7 $-1 $192 forward single #
loop $193 $-1 $128 $73 #
plane-surface $194 0 -30 0 0 1 0 0 0 1 forward_v I I I I #
loop_type-twe-attrib $-1 $-1 $-1 $74 0 #
coedge $-1 $195 $196 $197 $198 reversed $74 $-1 #
surf-twe-attrib $-1 $-1 $-1 $75 17 #
coedge $-1 $199 $77 $200 $201 forward $48 $-1 #
coedge $-1 $77 $199 $79 $124 forward $48 $-1 #
coedge $-1 $202 $79 $203 $204 forward $30 $-1 #
edge $205 $206 -123.431186255013 $87 123.431457505076 $79 $207 forward 7 unknown #
coedge $-1 $80 $208 $209 $210 forward $30 $-1 #
coedge $-1 $211 $82 $80 $127 forward $131 $-1 #
edge $212 $86 -123.431457505076 $213 123.43145750507701 $80 $214 forward 7 unknown #
coedge $-1 $215 $200 $81 $129 forward $116 $-1 #
edge $216 $136 -20.000000000000068 $133 60.000000000000163 $128 $217 forward 7 unknown #
coedge $-1 $82 $211 $215 $218 reversed $131 $-1 #
loop $219 $-1 $82 $220 #
attrib_edge_convexity-kcp-attrib $-1 $221 $-1 $83 1 #
vertex $-1 $129 $222 #
straight-curve $223 -180 15 123.431457505076 0 1 0 I I #
attrib_edge_convexity-kcp-attrib $-1 $224 $-1 $84 1 #
vertex $-1 $129 $225 #
straight-curve $226 -123.431457505076 -15 180 0 -1 0 I I #
convexity-sys-attrib $-1 $227 $85 $55 #
point $-1 -180 30 123.431457505076 #
point $-1 -123.431457505076 30 180 #
cur-twe-attrib $-1 $-1 $-1 $88 25 #
model_id-kcp-attrib $-1 $-1 $-1 $90 1 990666366 70 -2109341694 6 #
face $228 $229 $230 $15 $-1 $231 reversed single #
loop $-1 $-1 $232 $90 #
plane-surface $-1 -180.00000000000074 0 0 1 0 0 0 0 -1 forward_v I I I I #
coedge $-1 $233 $154 $234 $235 forward $91 $-1 #
coedge $-1 $236 $93 $233 $237 forward $58 $-1 #
coedge $-1 $93 $236 $238 $239 forward $58 $-1 #
coedge $-1 $157 $156 $93 $150 reversed $158 $-1 #
edge $-1 $240 -30 $241 30 $149 $242 forward 7 unknown #
coedge $-1 $95 $94 $243 $244 forward $37 $-1 #
coedge $-1 $245 $246 $94 $153 reversed $230 $-1 #
edge $-1 $160 -180.00000000000074 $247 180.00000000000074 $152 $248 forward 7 unknown #
coedge $-1 $146 $249 $95 $155 reversed $91 $-1 #
edge $-1 $250 -180.00000000000074 $159 180.00000000000074 $154 $251 forward 7 unknown #
coedge $-1 $149 $96 $249 $252 forward $158 $-1 #
coedge $-1 $96 $149 $245 $253 reversed $158 $-1 #
loop $-1 $-1 $156 $229 #
vertex $-1 $97 $254 #
vertex $-1 $97 $255 #
straight-curve $-1 180.00000000000074 0 180.00000000000074 0 1 0 I I #
face $-1 $256 $257 $61 $-1 $104 reversed single #
loop $-1 $-1 $258 $98 #
plane-surface $-1 180.00000000000074 0 0 -1 0 0 0 0 1 forward_v I I I I #
face $-1 $259 $260 $40 $-1 $164 reversed single #
loop $-1 $-1 $261 $99 #
coedge $-1 $262 $263 $261 $264 reversed $100 $-1 #
face $-1 $265 $266 $25 $-1 $177 reversed single #
loop $-1 $-1 $267 $102 #
coedge $-1 $268 $269 $270 $271 forward $103 $-1 #
coedge $-1 $272 $105 $269 $273 forward $64 $-1 #
coedge $-1 $105 $272 $274 $275 forward $64 $-1 #
coedge $-1 $276 $270 $105 $174 reversed $277 $-1 #
edge $-1 $278 -45 $279 15 $105 $280 forward 7 unknown #
face $-1 $-1 $281 $18 $-1 $104 reversed single #
loop $-1 $-1 $183 $106 #
plane-surface $-1 -180.00000000000074 0 0 1 0 0 0 0 -1 forward_v I I I I #
coedge $-1 $282 $283 $110 $182 forward $107 $-1 #
coedge $-1 $180 $109 $284 $285 forward $67 $-1 #
coedge $-1 $109 $179 $282 $286 reversed $67 $-1 #
coedge $-1 $111 $110 $287 $288 reversed $43 $-1 #
edge $-1 $289 -15 $185 45 $178 $290 forward 7 unknown #
coedge $-1 $291 $284 $111 $184 forward $176 $-1 #
edge $-1 $186 -45 $292 15 $183 $293 forward 7 unknown #
vertex $-1 $286 $294 #
vertex $-1 $285 $295 #
straight-curve $-1 -165.85786437626962 -30 -137.5735931288084 -0.70710678118654757 0 0.70710678118654746 I I #
face_name-twe-attrib $-1 $-1 $114 $73 5 #
model_id-kcp-attrib $-1 $296 $-1 $115 1 990666366 70 -2109341695 7 #
face $297 $298 $299 $7 $-1 $300 reversed single #
loop $301 $-1 $302 $115 #
plane-surface $303 -123.43145750507701 -30 -180 -0.70710678118654757 0 -0.70710678118654757 0 1 0 forward_v I I I I #
loop_type-twe-attrib $-1 $-1 $-1 $116 0 #
surf-twe-attrib $-1 $-1 $-1 $117 27 #
coedge $-1 $203 $119 $304 $305 reversed $74 $-1 #
coedge $-1 $119 $203 $199 $306 reversed $74 $-1 #
coedge $-1 $200 $307 $119 $198 forward $116 $-1 #
edge $308 $309 -60.000418509945412 $310 19.999581492813753 $197 $311 forward 7 unknown #
coedge $-1 $122 $121 $196 $306 forward $48 $-1 #
coedge $-1 $128 $197 $121 $201 reversed $116 $-1 #
edge $312 $136 -123.431457505076 $310 123.431186255013 $200 $313 forward 7 unknown #
coedge $-1 $314 $123 $315 $316 forward $30 $-1 #
coedge $-1 $196 $195 $123 $204 reversed $74 $-1 #
edge $317 $206 -19.999581492813753 $318 60.000418509945412 $123 $319 forward 7 unknown #
attrib_edge_convexity-kcp-attrib $-1 $320 $-1 $124 1 #
vertex $-1 $204 $321 #
straight-curve $322 0 30 180 -1 0 0 I I #
coedge $-1 $125 $314 $323 $324 reversed $30 $-1 #
coedge $-1 $325 $326 $125 $210 reversed $191 $-1 #
edge $327 $328 -19.999999999999353 $213 59.999999999999446 $125 $329 forward 7 unknown #
coedge $-1 $130 $126 $326 $330 forward $131 $-1 #
attrib_edge_convexity-kcp-attrib $-1 $331 $-1 $127 1 #
vertex $-1 $127 $332 #
straight-curve $333 -180 30 0 0 0 -1 I I #
coedge $-1 $334 $128 $130 $218 forward $116 $-1 #
attrib_edge_convexity-kcp-attrib $-1 $335 $-1 $129 1 #
straight-curve $336 -137.573593128808 -30 165.85786437626999 -0.70710678118654802 0 -0.70710678118654802 I I #
edge $337 $133 -123.431457505076 $338 123.43145750507701 $130 $339 forward 7 unknown #
loop_type-twe-attrib $-1 $-1 $-1 $131 0 #
face $340 $341 $131 $7 $-1 $342 reversed single #
convexity-sys-attrib $-1 $343 $132 $83 #
point $-1 -180 -30 123.431457505076 #
cur-twe-attrib $-1 $-1 $-1 $134 37 #
convexity-sys-attrib $-1 $344 $135 $84 #
point $-1 -123.431457505076 -30 180 #
cur-twe-attrib $-1 $-1 $-1 $137 38 #
edge_name-twe-attrib $-1 $-1 $138 $55 1 8704 #
model_id-kcp-attrib $-1 $-1 $-1 $143 1 990666366 70 -2109341694 2 #
face $345 $-1 $158 $15 $-1 $346 reversed single #
loop $-1 $-1 $245 $143 #
plane-surface $-1 0 30 0 0 -1 0 0 0 -1 forward_v I I I I #
coedge $-1 $347 $243 $246 $348 forward $144 $-1 #
coedge $-1 $249 $146 $147 $237 reversed $91 $-1 #
coedge $-1 $243 $347 $146 $235 reversed $144 $-1 #
edge $-1 $250 -180.00000000000074 $349 180.00000000000074 $234 $350 forward 7 unknown #
coedge $-1 $148 $147 $347 $351 forward $58 $-1 #
edge $-1 $241 -180.00000000000074 $349 180.00000000000074 $233 $352 forward 7 unknown #
coedge $-1 $246 $245 $148 $239 reversed $230 $-1 #
edge $-1 $353 -180.00000000000074 $240 180.00000000000074 $238 $354 forward 7 unknown #
vertex $-1 $150 $355 #
vertex $-1 $252 $356 #
straight-curve $-1 180.00000000000074 0 -180.00000000000074 0 -1 0 I I #
coedge $-1 $232 $234 $151 $244 reversed $144 $-1 #
edge $-1 $247 -30 $250 30 $243 $357 forward 7 unknown #
coedge $-1 $238 $152 $157 $253 forward $230 $-1 #
coedge $-1 $152 $238 $232 $348 reversed $230 $-1 #
vertex $-1 $153 $358 #
straight-curve $-1 0 30 180.00000000000074 -1 0 0 I I #
coedge $-1 $154 $233 $156 $252 reversed $91 $-1 #
vertex $-1 $244 $359 #
straight-curve $-1 0 -30 180.00000000000074 1 0 0 I I #
edge $-1 $159 -180.00000000000074 $241 180.00000000000074 $156 $360 forward 7 unknown #
edge $-1 $160 -180.00000000000074 $240 180.00000000000074 $157 $361 forward 7 unknown #
point $-1 180.00000000000074 -30 180.00000000000074 #
point $-1 180.00000000000074 30 180.00000000000074 #
face $-1 $362 $363 $61 $-1 $68 reversed single #
loop $-1 $-1 $364 $162 #
coedge $-1 $365 $366 $367 $368 forward $163 $-1 #
face $-1 $369 $370 $40 $-1 $104 reversed single #
loop $-1 $-1 $371 $165 #
coedge $-1 $372 $373 $167 $264 forward $166 $-1 #
coedge $-1 $374 $167 $375 $376 reversed $100 $-1 #
coedge $-1 $167 $374 $371 $377 reversed $100 $-1 #
edge $-1 $378 -59.999581494194288 $379 20.000418508566277 $261 $380 forward 7 unknown #
face $-1 $-1 $277 $25 $-1 $381 reversed single #
loop $-1 $-1 $382 $168 #
coedge $-1 $274 $383 $276 $384 forward $169 $-1 #
coedge $-1 $269 $170 $385 $386 reversed $103 $-1 #
coedge $-1 $170 $268 $171 $273 reversed $103 $-1 #
coedge $-1 $173 $387 $170 $271 reversed $277 $-1 #
edge $-1 $279 -20.00000000000005 $388 60.000000000001613 $170 $389 forward 7 unknown #
coedge $-1 $172 $171 $390 $391 forward $64 $-1 #
edge $-1 $279 123.43145750507576 $392 180.00000000000074 $269 $393 forward 7 unknown #
coedge $-1 $383 $267 $172 $275 reversed $169 $-1 #
edge $-1 $394 -180.00000000000074 $278 -123.43145750507576 $274 $395 forward 7 unknown #
coedge $-1 $387 $173 $267 $384 reversed $277 $-1 #
loop $-1 $-1 $270 $265 #
vertex $-1 $384 $396 #
vertex $-1 $273 $397 #
straight-curve $-1 -123.4314575050748 15 180.00000000000074 0 1 0 I I #
loop $-1 $-1 $287 $175 #
coedge $-1 $398 $178 $180 $286 forward $107 $-1 #
coedge $-1 $178 $398 $399 $400 forward $107 $-1 #
coedge $-1 $183 $401 $179 $285 reversed $176 $-1 #
edge $-1 $186 123.43145750507779 $402 180.00000000000074 $284 $403 forward 7 unknown #
edge $-1 $185 123.43145750507726 $402 180.00000000000074 $180 $404 forward 7 unknown #
coedge $-1 $399 $405 $181 $288 forward $281 $-1 #
edge $-1 $292 -19.999999999999538 $289 59.999999999999304 $287 $406 forward 7 unknown #
vertex $-1 $288 $407 #
straight-curve $-1 -123.4314575050773 15 -180.00000000000074 0 -1 0 I I #
coedge $-1 $401 $183 $405 $408 forward $176 $-1 #
vertex $-1 $408 $409 #
straight-curve $-1 -180.00000000000074 15 -123.43145750507732 0 1 0 I I #
point $-1 -123.43145750507726 -30 -180.00000000000077 #
point $-1 -180.00000000000026 -30 -123.43145750507779 #
face_name-twe-attrib $-1 $-1 $189 $115 6 #
model_id-kcp-attrib $-1 $410 $-1 $190 1 990666366 70 -2109341695 8 #
face $411 $220 $412 $7 $-1 $413 forward single #
loop $414 $-1 $415 $190 #
plane-surface $416 0 0 -180 0 0 1 1 0 0 forward_v I I I I #
loop_type-twe-attrib $-1 $-1 $-1 $191 0 #
coedge $-1 $326 $325 $334 $417 reversed $191 $-1 #
surf-twe-attrib $-1 $-1 $-1 $192 44 #
coedge $-1 $418 $315 $195 $305 forward $419 $-1 #
edge $420 $318 -45 $309 15 $304 $421 forward 7 unknown #
edge $422 $310 -45 $206 15 $199 $423 forward 7 unknown #
coedge $-1 $197 $424 $418 $425 reversed $116 $-1 #
attrib_edge_convexity-kcp-attrib $-1 $426 $-1 $198 1 #
vertex $-1 $305 $427 #
vertex $-1 $201 $428 #
straight-curve $429 137.57309376008399 -30 165.85822811647299 -0.70711017178794999 0 0.70710339056888705 I I #
model_id-kcp-attrib $-1 $430 $-1 $201 1 990666366 70 -2109341695 14 #
straight-curve $431 0 -30 180 1 0 0 I I #
coedge $-1 $208 $202 $432 $433 forward $30 $-1 #
coedge $-1 $304 $434 $202 $316 reversed $419 $-1 #
edge $435 $318 -123.43172875253801 $436 123.43145750507701 $315 $437 forward 7 unknown #
attrib_edge_convexity-kcp-attrib $-1 $438 $-1 $204 1 #
vertex $-1 $204 $439 #
straight-curve $440 137.57309376008399 30 165.85822811647299 0.70711017178794999 0 -0.70710339056888705 I I #
convexity-sys-attrib $-1 $441 $205 $124 #
point $-1 123.431186255013 30 180 #
cur-twe-attrib $-1 $-1 $-1 $207 53 #
coedge $-1 $442 $415 $208 $324 forward $299 $-1 #
edge $443 $328 -123.43145750507701 $444 123.43145750507701 $208 $445 forward 7 unknown #
coedge $-1 $302 $209 $415 $446 reversed $191 $-1 #
coedge $-1 $209 $302 $211 $330 reversed $191 $-1 #
attrib_edge_convexity-kcp-attrib $-1 $447 $-1 $210 1 #
vertex $-1 $210 $448 #
straight-curve $449 -137.573593128808 30 -165.85786437626999 -0.70710678118654802 0 0.70710678118654802 I I #
edge $450 $213 -45 $338 15 $211 $451 forward 7 unknown #
convexity-sys-attrib $-1 $452 $212 $127 #
point $-1 -180 30 -123.43145750507701 #
cur-twe-attrib $-1 $-1 $-1 $214 56 #
coedge $-1 $453 $215 $302 $417 forward $116 $-1 #
convexity-sys-attrib $-1 $454 $216 $129 #
cur-twe-attrib $-1 $-1 $-1 $217 58 #
model_id-kcp-attrib $-1 $455 $-1 $218 1 990666366 70 -2109341695 13 #
vertex $-1 $218 $456 #
straight-curve $457 -180 -30 0 0 0 -1 I I #
model_id-kcp-attrib $-1 $458 $-1 $220 1 990666366 70 -2109341695 10 #
face $459 $-1 $419 $7 $-1 $460 reversed single #
plane-surface $461 -180 0 0 1 0 0 0 0 -1 forward_v I I I I #
edge_name-twe-attrib $-1 $-1 $221 $83 18 8448 #
edge_name-twe-attrib $-1 $-1 $224 $84 8 8448 #
model_id-kcp-attrib $-1 $-1 $-1 $229 1 990666366 70 -2109341694 7 #
plane-surface $-1 180.00000000000074 0 0 -1 0 0 0 0 1 forward_v I I I I #
coedge $-1 $234 $232 $236 $351 reversed $144 $-1 #
edge $-1 $247 -180.00000000000074 $353 180.00000000000074 $246 $462 forward 7 unknown #
vertex $-1 $351 $463 #
straight-curve $-1 -180.00000000000074 -30 0 0 0 -1 I I #
edge $-1 $349 -30 $353 30 $347 $464 forward 7 unknown #
straight-curve $-1 0 -30 -180.00000000000074 -1 0 0 I I #
vertex $-1 $239 $465 #
straight-curve $-1 0 30 -180.00000000000074 1 0 0 I I #
point $-1 180.00000000000074 30 -180.00000000000074 #
point $-1 180.00000000000074 -30 -180.00000000000074 #
straight-curve $-1 -180.00000000000074 0 180.00000000000074 0 -1 0 I I #
point $-1 -180.00000000000074 30 180.00000000000074 #
point $-1 -180.00000000000074 -30 180.00000000000074 #
straight-curve $-1 180.00000000000074 -30 0 0 0 -1 I I #
straight-curve $-1 180.00000000000074 30 0 0 0 -1 I I #
face $-1 $466 $467 $61 $-1 $108 reversed single #
loop $-1 $-1 $468 $256 #
coedge $-1 $469 $470 $471 $472 forward $257 $-1 #
coedge $-1 $473 $258 $474 $475 forward $163 $-1 #
coedge $-1 $258 $473 $469 $476 reversed $163 $-1 #
coedge $-1 $471 $477 $258 $368 reversed $478 $-1 #
edge $-1 $479 -15 $480 45 $258 $481 forward 7 unknown #
face $-1 $-1 $482 $40 $-1 $65 forward single #
loop $-1 $-1 $483 $259 #
coedge $-1 $484 $485 $263 $377 forward $260 $-1 #
coedge $-1 $373 $261 $485 $486 reversed $166 $-1 #
coedge $-1 $261 $372 $487 $488 reversed $166 $-1 #
coedge $-1 $263 $262 $483 $489 reversed $100 $-1 #
coedge $-1 $487 $490 $262 $376 forward $482 $-1 #
edge $-1 $491 -15 $378 45 $375 $492 forward 7 unknown #
edge $-1 $379 -45 $493 15 $371 $494 forward 7 unknown #
vertex $-1 $488 $495 #
vertex $-1 $264 $496 #
straight-curve $-1 165.85750063257711 -30 137.5740924927417 0.70711017178794977 0 -0.70710339056888716 I I #
plane-surface $-1 -123.43145750507576 30 179.99999999999977 -0.70710678118654746 0 0.70710678118654768 0 -1 0 forward_v I I I I #
coedge $-1 $497 $385 $387 $498 forward $266 $-1 #
coedge $-1 $267 $274 $497 $499 forward $169 $-1 #
edge $-1 $500 -60.000000000000249 $278 20.00000000000005 $267 $501 forward 7 unknown #
coedge $-1 $382 $390 $268 $386 forward $266 $-1 #
edge $-1 $392 -180.00000000000074 $388 -123.4314575050748 $268 $502 forward 7 unknown #
coedge $-1 $270 $276 $382 $498 reversed $277 $-1 #
vertex $-1 $271 $503 #
straight-curve $-1 -137.57359312880675 30 165.85786437626879 -0.70710678118654768 0 -0.70710678118654746 I I #
coedge $-1 $385 $497 $272 $391 reversed $266 $-1 #
edge $-1 $392 -30 $394 30 $390 $504 forward 7 unknown #
vertex $-1 $273 $505 #
straight-curve $-1 0 30 180.00000000000074 -1 0 0 I I #
vertex $-1 $391 $506 #
straight-curve $-1 0 -30 180.00000000000074 1 0 0 I I #
point $-1 -123.43145750507576 -30 179.99999999999977 #
point $-1 -123.43145750507576 30 179.99999999999977 #
coedge $-1 $283 $282 $401 $507 forward $107 $-1 #
coedge $-1 $405 $287 $283 $400 reversed $281 $-1 #
edge $-1 $508 -180.00000000000074 $289 -123.43145750507726 $399 $509 forward 7 unknown #
coedge $-1 $284 $291 $398 $507 reversed $176 $-1 #
vertex $-1 $507 $510 #
straight-curve $-1 -180.00000000000074 -30 0 0 0 -1 I I #
straight-curve $-1 0 -30 -180.00000000000074 -1 0 0 I I #
coedge $-1 $287 $399 $291 $408 reversed $281 $-1 #
straight-curve $-1 -165.85786437626962 30 -137.5735931288084 0.70710678118654757 0 -0.70710678118654746 I I #
point $-1 -123.43145750507726 30 -180.00000000000077 #
edge $-1 $292 123.43145750507779 $508 180.00000000000074 $405 $502 forward 7 unknown #
point $-1 -180.00000000000026 30 -123.43145750507779 #
face_name-twe-attrib $-1 $-1 $297 $190 7 #
model_id-kcp-attrib $-1 $511 $-1 $298 1 990666366 70 -2109341695 9 #
loop $512 $-1 $432 $298 #
plane-surface $513 123.43145750507701 30 -180 0.70710678118654757 0 -0.70710678118654757 0 1 0 forward_v I I I I #
loop_type-twe-attrib $-1 $-1 $-1 $299 0 #
coedge $-1 $323 $514 $325 $446 forward $299 $-1 #
surf-twe-attrib $-1 $-1 $-1 $300 71 #
edge $515 $338 -59.999999999999446 $516 19.999999999999353 $334 $517 forward 7 unknown #
coedge $-1 $434 $304 $307 $425 forward $419 $-1 #
loop $518 $-1 $304 $341 #
attrib_edge_convexity-kcp-attrib $-1 $519 $-1 $305 1 #
straight-curve $520 180 -15 123.43172875253801 0 -1 0 I I #
attrib_edge_convexity-kcp-attrib $-1 $521 $-1 $306 1 #
straight-curve $522 123.431186255013 15 180 0 1 0 I I #
coedge $-1 $307 $453 $523 $524 forward $116 $-1 #
edge $525 $309 -123.43172875253801 $526 123.43145750507701 $418 $527 forward 7 unknown #
convexity-sys-attrib $-1 $528 $308 $198 #
point $-1 180 -30 123.43172875253801 #
point $-1 123.431186255013 -30 180 #
cur-twe-attrib $-1 $-1 $-1 $311 79 #
attrib_edge_convexity-kcp-attrib $-1 $529 $312 $201 1 #
cur-twe-attrib $-1 $-1 $-1 $313 82 #
coedge $-1 $530 $531 $314 $433 reversed $412 $-1 #
edge $532 $436 -59.999999999999446 $444 19.999999999999353 $314 $533 forward 7 unknown #
coedge $-1 $315 $418 $530 $534 forward $419 $-1 #
attrib_edge_convexity-kcp-attrib $-1 $535 $-1 $316 1 #
vertex $-1 $316 $536 #
straight-curve $537 180 30 0 0 0 -1 I I #
convexity-sys-attrib $-1 $538 $317 $204 #
point $-1 180 30 123.43172875253801 #
cur-twe-attrib $-1 $-1 $-1 $319 85 #
edge_name-twe-attrib $-1 $-1 $320 $124 2 8704 #
coedge $-1 $514 $323 $531 $539 forward $299 $-1 #
attrib_edge_convexity-kcp-attrib $-1 $540 $-1 $324 1 #
vertex $-1 $324 $541 #
straight-curve $542 0 30 -180 1 0 0 I I #
edge $543 $516 -45 $328 15 $415 $544 forward 7 unknown #
convexity-sys-attrib $-1 $545 $327 $210 #
point $-1 -123.43145750507701 30 -180 #
cur-twe-attrib $-1 $-1 $-1 $329 91 #
attrib_edge_convexity-kcp-attrib $-1 $546 $-1 $330 1 #
straight-curve $547 -180 -15 -123.43145750507701 0 -1 0 I I #
edge_name-twe-attrib $-1 $-1 $331 $127 7 8704 #
coedge $-1 $424 $334 $514 $548 reversed $116 $-1 #
edge_name-twe-attrib $-1 $-1 $335 $129 10 8704 #
attrib_edge_convexity-kcp-attrib $-1 $549 $337 $218 1 #
point $-1 -180 -30 -123.43145750507701 #
cur-twe-attrib $-1 $-1 $-1 $339 99 #
face_name-twe-attrib $-1 $-1 $340 $220 9 #
model_id-kcp-attrib $-1 $550 $-1 $341 1 990666366 70 -2109341695 11 #
plane-surface $551 180 0 0 -1 0 0 0 0 1 forward_v I I I I #
surf-twe-attrib $-1 $-1 $-1 $342 101 #
straight-curve $-1 -180.00000000000074 30 0 0 0 -1 I I #
point $-1 -180.00000000000074 -30 -180.00000000000074 #
straight-curve $-1 -180.00000000000074 0 -180.00000000000074 0 1 0 I I #
point $-1 -180.00000000000074 30 -180.00000000000074 #
face $-1 $-1 $478 $61 $-1 $552 reversed single #
loop $-1 $-1 $553 $362 #
coedge $-1 $554 $474 $477 $555 forward $363 $-1 #
coedge $-1 $470 $364 $366 $476 forward $257 $-1 #
coedge $-1 $364 $469 $556 $557 reversed $257 $-1 #
coedge $-1 $558 $367 $364 $472 reversed $478 $-1 #
edge $-1 $559 -19.999999999999698 $479 59.99999999999914 $364 $560 forward 7 unknown #
coedge $-1 $366 $365 $561 $562 reversed $163 $-1 #
coedge $-1 $468 $554 $365 $475 reversed $363 $-1 #
edge $-1 $480 123.43145750507779 $563 180.00000000000074 $365 $564 forward 7 unknown #
edge $-1 $479 123.43145750507779 $565 180.00000000000074 $366 $566 forward 7 unknown #
coedge $-1 $367 $558 $468 $555 reversed $478 $-1 #
loop $-1 $-1 $477 $466 #
vertex $-1 $476 $567 #
vertex $-1 $475 $568 #
straight-curve $-1 180.00000000000074 15 -123.43145750507685 0 -1 0 I I #
loop $-1 $-1 $375 $369 #
coedge $-1 $569 $570 $374 $489 forward $370 $-1 #
coedge $-1 $571 $371 $570 $572 reversed $260 $-1 #
coedge $-1 $371 $571 $372 $486 forward $260 $-1 #
edge $-1 $573 -180.00000000000074 $379 -123.43172875253777 $485 $564 forward 7 unknown #
coedge $-1 $574 $375 $373 $488 forward $482 $-1 #
edge $-1 $378 123.43118625501231 $573 180.00000000000074 $373 $395 forward 7 unknown #
edge $-1 $493 -20.000418508566277 $491 59.999581494194288 $483 $575 forward 7 unknown #
coedge $-1 $375 $574 $569 $576 forward $482 $-1 #
vertex $-1 $376 $577 #
straight-curve $-1 123.43118625501231 15 180.00000000000074 0 -1 0 I I #
vertex $-1 $489 $578 #
straight-curve $-1 180.00000000000074 15 123.43172875253734 0 1 0 I I #
point $-1 123.43118625501231 -30 180.00000000000074 #
point $-1 180.00000000000031 -30 123.43172875253777 #
coedge $-1 $390 $382 $383 $499 reversed $266 $-1 #
edge $-1 $388 -15 $500 45 $382 $579 forward 7 unknown #
edge $-1 $394 -180.00000000000074 $500 -123.43145750507577 $497 $403 forward 7 unknown #
vertex $-1 $384 $580 #
straight-curve $-1 -137.57359312880675 -30.000000000000004 165.85786437626879 0.70710678118654768 0 0.70710678118654746 I I #
straight-curve $-1 -180.00000000000074 30 0 0 0 -1 I I #
point $-1 -180.00000000000074 30 123.4314575050748 #
straight-curve $-1 -180.00000000000074 0 180.00000000000074 0 -1 0 I I #
point $-1 -180.00000000000074 30 180.00000000000074 #
point $-1 -180.00000000000074 -30 180.00000000000074 #
edge $-1 $402 -30 $508 30 $401 $581 forward 7 unknown #
vertex $-1 $400 $582 #
straight-curve $-1 0 30 -180.00000000000074 1 0 0 I I #
point $-1 -180.00000000000074 -30 -180.00000000000074 #
face_name-twe-attrib $-1 $-1 $411 $298 8 #
loop_type-twe-attrib $-1 $-1 $-1 $412 0 #
surf-twe-attrib $-1 $-1 $-1 $413 107 #
coedge $-1 $415 $442 $453 $548 forward $299 $-1 #
attrib_edge_convexity-kcp-attrib $-1 $583 $-1 $417 1 #
vertex $-1 $548 $584 #
straight-curve $585 -137.573593128808 -30 -165.85786437626999 0.70710678118654802 0 -0.70710678118654802 I I #
loop_type-twe-attrib $-1 $-1 $-1 $419 0 #
convexity-sys-attrib $-1 $586 $420 $305 #
cur-twe-attrib $-1 $-1 $-1 $421 114 #
convexity-sys-attrib $-1 $587 $422 $306 #
cur-twe-attrib $-1 $-1 $-1 $423 115 #
coedge $-1 $531 $530 $424 $524 reversed $412 $-1 #
edge $588 $589 -19.999999999999353 $526 59.999999999999446 $424 $590 forward 7 unknown #
model_id-kcp-attrib $-1 $591 $-1 $425 1 990666366 70 -2109341695 15 #
vertex $-1 $425 $592 #
straight-curve $593 180 -30 0 0 0 -1 I I #
edge_name-twe-attrib $-1 $-1 $426 $198 14 8704 #
convexity-sys-attrib $-1 $594 $430 $201 #
coedge $-1 $523 $432 $434 $534 reversed $412 $-1 #
coedge $-1 $432 $523 $442 $539 reversed $412 $-1 #
attrib_edge_convexity-kcp-attrib $-1 $595 $-1 $433 1 #
straight-curve $596 137.573593128808 30 -165.85786437626999 -0.70710678118654802 0 -0.70710678118654802 I I #
edge $597 $526 -45 $436 15 $434 $598 forward 7 unknown #
convexity-sys-attrib $-1 $599 $435 $316 #
point $-1 180 30 -123.43145750507701 #
cur-twe-attrib $-1 $-1 $-1 $437 125 #
edge_name-twe-attrib $-1 $-1 $438 $204 3 8704 #
edge $600 $444 -45 $589 15 $442 $601 forward 7 unknown #
convexity-sys-attrib $-1 $602 $443 $324 #
point $-1 123.43145750507701 30 -180 #
cur-twe-attrib $-1 $-1 $-1 $445 132 #
attrib_edge_convexity-kcp-attrib $-1 $603 $-1 $446 1 #
straight-curve $604 -123.43145750507701 15 -180 0 1 0 I I #
edge_name-twe-attrib $-1 $-1 $447 $210 6 8704 #
convexity-sys-attrib $-1 $605 $450 $330 #
cur-twe-attrib $-1 $-1 $-1 $451 138 #
edge $606 $589 -123.43145750507701 $516 123.43145750507701 $453 $607 forward 7 unknown #
convexity-sys-attrib $-1 $608 $455 $218 #
face_name-twe-attrib $-1 $-1 $459 $341 10 #
surf-twe-attrib $-1 $-1 $-1 $460 147 #
plane-surface $-1 123.4314575050773 30 -180.00000000000028 0.70710678118654746 0 -0.70710678118654757 0 1 0 forward_v I I I I #
coedge $-1 $556 $609 $558 $610 forward $467 $-1 #
coedge $-1 $474 $468 $609 $611 reversed $363 $-1 #
edge $-1 $480 -59.99999999999914 $612 19.999999999999698 $468 $613 forward 7 unknown #
coedge $-1 $561 $553 $470 $557 forward $467 $-1 #
edge $-1 $559 123.4314575050773 $565 180.00000000000074 $470 $509 forward 7 unknown #
coedge $-1 $477 $471 $553 $610 reversed $478 $-1 #
vertex $-1 $557 $614 #
straight-curve $-1 137.57359312880806 30 -165.85786437626956 0.70710678118654757 0 0.70710678118654746 I I #
coedge $-1 $609 $556 $473 $562 forward $467 $-1 #
edge $-1 $565 -30 $563 30 $473 $615 forward 7 unknown #
vertex $-1 $475 $616 #
straight-curve $-1 180.00000000000074 -30 0 0 0 -1 I I #
vertex $-1 $562 $617 #
straight-curve $-1 180.00000000000074 30 0 0 0 -1 I I #
point $-1 180.00000000000077 30 -123.43145750507779 #
point $-1 180.00000000000077 -30 -123.43145750507779 #
coedge $-1 $570 $483 $490 $576 reversed $370 $-1 #
coedge $-1 $483 $569 $484 $572 forward $370 $-1 #
coedge $-1 $485 $484 $574 $618 reversed $260 $-1 #
edge $-1 $619 -180.00000000000074 $493 -123.43172875253777 $484 $566 forward 7 unknown #
vertex $-1 $618 $620 #
coedge $-1 $490 $487 $571 $618 forward $482 $-1 #
straight-curve $-1 165.85750063257711 30 137.5740924927417 -0.70711017178794977 0 0.70710339056888716 I I #
edge $-1 $619 -180.00000000000074 $491 -123.43118625501231 $569 $393 forward 7 unknown #
point $-1 123.43118625501231 30 180.00000000000074 #
point $-1 180.00000000000031 30 123.43172875253777 #
straight-curve $-1 -180.00000000000074 15 123.4314575050748 0 -1 0 I I #
point $-1 -179.99999999999977 -30 123.43145750507577 #
straight-curve $-1 -180.00000000000074 0 -180.00000000000074 0 1 0 I I #
point $-1 -180.00000000000074 30 -180.00000000000074 #
convexity-sys-attrib $-1 $621 $515 $417 #
point $-1 -123.43145750507701 -30 -180 #
cur-twe-attrib $-1 $-1 $-1 $517 155 #
edge_name-twe-attrib $-1 $-1 $519 $305 21 8448 #
edge_name-twe-attrib $-1 $-1 $521 $306 9 8448 #
edge_name-twe-attrib $-1 $-1 $-1 $524 13 8704 #
vertex $-1 $524 $622 #
straight-curve $623 137.573593128808 -30 -165.85786437626999 0.70710678118654802 0 0.70710678118654802 I I #
edge_name-twe-attrib $-1 $-1 $525 $425 22 8704 #
point $-1 180 -30 -123.43145750507701 #
cur-twe-attrib $-1 $-1 $-1 $527 163 #
edge_name-twe-attrib $-1 $-1 $529 $201 15 8704 #
convexity-sys-attrib $-1 $624 $532 $433 #
cur-twe-attrib $-1 $-1 $-1 $533 169 #
edge_name-twe-attrib $-1 $-1 $-1 $534 23 8448 #
straight-curve $625 180 15 -123.43145750507701 0 1 0 I I #
edge_name-twe-attrib $-1 $-1 $535 $316 24 8704 #
edge_name-twe-attrib $-1 $-1 $-1 $539 17 8448 #
straight-curve $626 123.43145750507701 -15 -180 0 -1 0 I I #
edge_name-twe-attrib $-1 $-1 $540 $324 5 8704 #
convexity-sys-attrib $-1 $627 $543 $446 #
cur-twe-attrib $-1 $-1 $-1 $544 180 #
edge_name-twe-attrib $-1 $-1 $546 $330 19 8448 #
model_id-kcp-attrib $-1 $628 $-1 $548 1 990666366 70 -2109341695 16 #
straight-curve $629 0 -30 -180 -1 0 0 I I #
edge_name-twe-attrib $-1 $-1 $549 $218 20 8704 #
coedge $-1 $553 $561 $554 $611 forward $467 $-1 #
edge $-1 $612 -45 $559 15 $553 $630 forward 7 unknown #
edge $-1 $563 -180.00000000000074 $612 -123.4314575050773 $554 $404 forward 7 unknown #
vertex $-1 $555 $631 #
straight-curve $-1 137.57359312880806 -30 -165.85786437626956 -0.70710678118654757 0 -0.70710678118654746 I I #
point $-1 123.4314575050773 30 -180.00000000000028 #
straight-curve $-1 180.00000000000074 0 -180.00000000000074 0 -1 0 I I #
point $-1 180.00000000000074 -30 -180.00000000000074 #
point $-1 180.00000000000074 30 -180.00000000000074 #
edge $-1 $573 -30 $619 30 $571 $632 forward 7 unknown #
vertex $-1 $618 $633 #
point $-1 180.00000000000074 -30 180.00000000000074 #
edge_name-twe-attrib $-1 $-1 $583 $417 11 8704 #
point $-1 123.43145750507701 -30 -180 #
cur-twe-attrib $-1 $-1 $-1 $590 201 #
edge_name-twe-attrib $-1 $-1 $595 $433 4 8704 #
cur-twe-attrib $-1 $-1 $-1 $598 209 #
cur-twe-attrib $-1 $-1 $-1 $601 212 #
edge_name-twe-attrib $-1 $-1 $603 $446 16 8448 #
edge_name-twe-attrib $-1 $-1 $606 $548 12 8704 #
cur-twe-attrib $-1 $-1 $-1 $607 218 #
straight-curve $-1 123.43145750507685 15 -180.00000000000074 0 1 0 I I #
point $-1 123.4314575050773 -30 -180.00000000000028 #
straight-curve $-1 180.00000000000074 0 180.00000000000074 0 1 0 I I #
point $-1 180.00000000000074 30 180.00000000000074 #
End-of-ACIS-data 