700 0 2 0           
24 FBMach with ACIS - 7.0.3 13 ACIS 7.0.3 NT 24 Tue May 14 09:58:12 2002 
1 9.9999999999999995e-007 1e-010 
body $2 -1 $-1 $3 $-1 $4 #
bdycol-kcp $-1 -1 1 2 $5 $6 #
model_id-kcp-attrib $-1 -1 $-1 $-1 $0 1 1021384692 1021384692 1434910721 1 #
lump $-1 -1 $-1 $-1 $7 $0 #
transform $-1 -1 1.0000000000000007 0 0 0 1 0 0 0 1.0000000000000007 0 0 0 1 rotate no_reflect no_shear #
body $8 -1 $-1 $9 $-1 $10 #
body $11 -1 $-1 $12 $-1 $13 #
shell $-1 -1 $-1 $-1 $-1 $14 $-1 $3 #
rgb_color-st-attrib $-1 -1 $15 $-1 $5 0.5 1 1 #
lump $-1 -1 $-1 $16 $17 $5 #
transform $-1 -1 1 0 0 0 1 0 0 0 1 -2.5579538487363607e-013 0 2.5579538487363607e-013 1 no_rotate no_reflect no_shear #
model_id-kcp-attrib $-1 -1 $-1 $-1 $6 1 1021384692 1021384692 1435566082 1 #
lump $-1 -1 $-1 $-1 $18 $6 #
transform $-1 -1 1 0 0 0 1 0 0 0 1 -2.5579538487363607e-013 0 2.5579538487363607e-013 1 no_rotate no_reflect no_shear #
face $19 -1 $-1 $20 $21 $7 $-1 $22 forward single #
model_id-kcp-attrib $-1 -1 $-1 $8 $5 1 1021384692 1021384692 1434583043 1 #
lump $-1 -1 $-1 $23 $24 $5 #
shell $-1 -1 $-1 $-1 $-1 $25 $-1 $9 #
shell $-1 -1 $-1 $-1 $-1 $26 $-1 $12 #
model_id-kcp-attrib $-1 -1 $27 $-1 $14 1 1021384692 1021384692 1434910721 2 #
face $28 -1 $-1 $29 $30 $7 $-1 $31 reversed single #
loop $32 -1 $-1 $-1 $33 $14 #
plane-surface $34 -1 $-1 -123.431457505076 30 180 -0.70710678118654757 0 0.70710678118654757 0 1 0 forward_v I I I I #
lump $-1 -1 $-1 $35 $36 $5 #
shell $-1 -1 $-1 $-1 $-1 $37 $-1 $16 #
face $-1 -1 $-1 $38 $39 $17 $-1 $40 reversed single #
face $41 -1 $-1 $42 $43 $18 $-1 $44 forward single #
face_name-twe-attrib $-1 -1 $-1 $19 $14 1 #
model_id-kcp-attrib $-1 -1 $45 $-1 $20 1 1021384692 1021384692 1434910721 3 #
face $46 -1 $-1 $47 $48 $7 $-1 $49 forward single #
loop $50 -1 $-1 $-1 $51 $20 #
plane-surface $52 -1 $-1 0 30 0 0 -1 0 0 0 -1 forward_v I I I I #
loop_type-twe-attrib $-1 -1 $-1 $-1 $21 0 #
coedge $-1 -1 $-1 $53 $54 $51 $55 reversed $21 $-1 #
surf-twe-attrib $-1 -1 $-1 $-1 $22 4 #
lump $-1 -1 $-1 $-1 $56 $5 #
shell $-1 -1 $-1 $-1 $-1 $57 $-1 $23 #
face $-1 -1 $-1 $58 $59 $24 $-1 $60 forward single #
face $-1 -1 $-1 $61 $62 $17 $-1 $63 reversed single #
loop $-1 -1 $-1 $-1 $64 $25 #
plane-surface $-1 -1 $-1 -180.00000000000026 30 -123.43145750507779 -0.70710678118654746 0 -0.70710678118654757 0 -1 0 forward_v I I I I #
model_id-kcp-attrib $-1 -1 $-1 $-1 $26 1 1021384692 1021384692 1435566082 3 #
face $65 -1 $-1 $66 $67 $18 $-1 $68 reversed single #
loop $-1 -1 $-1 $-1 $69 $26 #
plane-surface $-1 -1 $-1 0 0 180.00000000000074 0 0 1 1 0 0 forward_v I I I I #
face_name-twe-attrib $-1 -1 $-1 $28 $20 2 #
model_id-kcp-attrib $-1 -1 $70 $-1 $29 1 1021384692 1021384692 1434910721 4 #
face $71 -1 $-1 $72 $73 $7 $-1 $74 forward single #
loop $75 -1 $-1 $-1 $76 $29 #
plane-surface $77 -1 $-1 0 0 180 0 0 1 1 0 0 forward_v I I I I #
loop_type-twe-attrib $-1 -1 $-1 $-1 $30 0 #
coedge $-1 -1 $-1 $78 $79 $33 $55 forward $30 $-1 #
surf-twe-attrib $-1 -1 $-1 $-1 $31 6 #
coedge $-1 -1 $-1 $80 $33 $81 $82 reversed $21 $-1 #
coedge $-1 -1 $-1 $33 $80 $76 $83 reversed $21 $-1 #
edge $84 -1 $-1 $85 -60.000000000000163 $86 20.000000000000068 $51 $87 forward @7 unknown #
shell $-1 -1 $-1 $-1 $-1 $88 $-1 $35 #
face $-1 -1 $-1 $89 $90 $36 $-1 $91 reversed single #
face $-1 -1 $-1 $92 $93 $24 $-1 $94 reversed single #
loop $-1 -1 $-1 $-1 $95 $37 #
plane-surface $-1 -1 $-1 0 0 180.00000000000074 0 0 1 1 0 0 forward_v I I I I #
face $-1 -1 $-1 $96 $97 $17 $-1 $98 reversed single #
loop $-1 -1 $-1 $-1 $99 $38 #
plane-surface $-1 -1 $-1 0 -30 0 0 1 0 0 0 1 forward_v I I I I #
coedge $-1 -1 $-1 $100 $101 $99 $102 reversed $39 $-1 #
model_id-kcp-attrib $-1 -1 $-1 $-1 $42 1 1021384692 1021384692 1435566082 5 #
face $103 -1 $-1 $104 $105 $18 $-1 $106 reversed single #
loop $-1 -1 $-1 $-1 $107 $42 #
plane-surface $-1 -1 $-1 0 0 -180.00000000000074 0 0 1 1 0 0 forward_v I I I I #
coedge $-1 -1 $-1 $108 $109 $110 $111 forward $43 $-1 #
face_name-twe-attrib $-1 -1 $-1 $46 $29 3 #
model_id-kcp-attrib $-1 -1 $112 $-1 $47 1 1021384692 1021384692 1434910721 5 #
face $113 -1 $-1 $114 $115 $7 $-1 $116 reversed single #
loop $117 -1 $-1 $-1 $118 $47 #
plane-surface $119 -1 $-1 123.431186255013 -30 180 0.70710339056888705 0 0.70711017178794999 0 1 0 forward_v I I I I #
loop_type-twe-attrib $-1 -1 $-1 $-1 $48 0 #
coedge $-1 -1 $-1 $120 $121 $54 $83 forward $48 $-1 #
surf-twe-attrib $-1 -1 $-1 $-1 $49 10 #
coedge $-1 -1 $-1 $122 $51 $121 $123 reversed $30 $-1 #
coedge $-1 -1 $-1 $51 $124 $125 $126 reversed $30 $-1 #
coedge $-1 -1 $-1 $54 $53 $127 $128 reversed $21 $-1 #
coedge $-1 -1 $-1 $125 $129 $53 $82 forward $130 $-1 #
edge $131 -1 $-1 $132 -45 $85 15 $81 $133 forward @7 unknown #
edge $134 -1 $-1 $86 -45 $135 15 $76 $136 forward @7 unknown #
attrib_edge_convexity-kcp-attrib $-1 -1 $137 $-1 $55 1 #
vertex $-1 -1 $-1 $82 $138 #
vertex $-1 -1 $-1 $123 $139 #
straight-curve $140 -1 $-1 -137.573593128808 30 165.85786437626999 0.70710678118654802 0 0.70710678118654802 I I #
face $-1 -1 $-1 $141 $142 $56 $-1 $143 reversed single #
face $-1 -1 $-1 $144 $145 $36 $-1 $63 reversed single #
loop $-1 -1 $-1 $-1 $146 $57 #
plane-surface $-1 -1 $-1 180.00000000000031 30 123.43172875253777 0.70710339056888716 0 0.70711017178794977 0 1 0 forward_v I I I I #
face $-1 -1 $-1 $147 $148 $24 $-1 $63 reversed single #
loop $-1 -1 $-1 $-1 $149 $58 #
plane-surface $-1 -1 $-1 0 30 0 0 -1 0 0 0 -1 forward_v I I I I #
coedge $-1 -1 $-1 $150 $151 $152 $153 forward $59 $-1 #
face $-1 -1 $-1 $154 $155 $17 $-1 $156 reversed single #
loop $-1 -1 $-1 $-1 $157 $61 #
plane-surface $-1 -1 $-1 0 0 -180.00000000000074 0 0 1 1 0 0 forward_v I I I I #
coedge $-1 -1 $-1 $158 $159 $64 $102 forward $62 $-1 #
coedge $-1 -1 $-1 $160 $64 $157 $161 reversed $39 $-1 #
coedge $-1 -1 $-1 $64 $160 $162 $163 reversed $39 $-1 #
edge $-1 -1 $-1 $164 -59.999999999999304 $165 19.999999999999538 $99 $166 forward @7 unknown #
model_id-kcp-attrib $-1 -1 $-1 $-1 $66 1 1021384692 1021384692 1435566082 4 #
face $167 -1 $-1 $168 $169 $18 $-1 $170 reversed single #
loop $-1 -1 $-1 $-1 $171 $66 #
plane-surface $-1 -1 $-1 0 -30 0 0 1 0 0 0 1 forward_v I I I I #
coedge $-1 -1 $-1 $172 $173 $174 $175 forward $67 $-1 #
coedge $-1 -1 $-1 $176 $69 $177 $178 forward $43 $-1 #
coedge $-1 -1 $-1 $69 $176 $179 $180 forward $43 $-1 #
coedge $-1 -1 $-1 $181 $182 $69 $111 reversed $183 $-1 #
edge $-1 -1 $-1 $184 -30 $185 30 $110 $186 forward @7 unknown #
face_name-twe-attrib $-1 -1 $-1 $71 $47 4 #
model_id-kcp-attrib $-1 -1 $187 $-1 $72 1 1021384692 1021384692 1434910721 6 #
face $188 -1 $-1 $189 $190 $7 $-1 $191 forward single #
loop $192 -1 $-1 $-1 $127 $72 #
plane-surface $193 -1 $-1 0 -30 0 0 1 0 0 0 1 forward_v I I I I #
loop_type-twe-attrib $-1 -1 $-1 $-1 $73 0 #
coedge $-1 -1 $-1 $194 $195 $196 $197 reversed $73 $-1 #
surf-twe-attrib $-1 -1 $-1 $-1 $74 17 #
coedge $-1 -1 $-1 $198 $76 $199 $200 forward $48 $-1 #
coedge $-1 -1 $-1 $76 $198 $78 $123 forward $48 $-1 #
coedge $-1 -1 $-1 $201 $78 $202 $203 forward $30 $-1 #
edge $204 -1 $-1 $205 -123.431186255013 $86 123.431457505076 $78 $206 forward @7 unknown #
coedge $-1 -1 $-1 $79 $207 $208 $209 forward $30 $-1 #
coedge $-1 -1 $-1 $210 $81 $79 $126 forward $130 $-1 #
edge $211 -1 $-1 $85 -123.431457505076 $212 123.43145750507701 $79 $213 forward @7 unknown #
coedge $-1 -1 $-1 $214 $199 $80 $128 forward $115 $-1 #
edge $215 -1 $-1 $135 -20.000000000000068 $132 60.000000000000163 $127 $216 forward @7 unknown #
coedge $-1 -1 $-1 $81 $210 $214 $217 reversed $130 $-1 #
loop $218 -1 $-1 $-1 $81 $219 #
attrib_edge_convexity-kcp-attrib $-1 -1 $220 $-1 $82 1 #
vertex $-1 -1 $-1 $128 $221 #
straight-curve $222 -1 $-1 -180 15 123.431457505076 0 1 0 I I #
attrib_edge_convexity-kcp-attrib $-1 -1 $223 $-1 $83 1 #
vertex $-1 -1 $-1 $128 $224 #
straight-curve $225 -1 $-1 -123.431457505076 -15 180 0 -1 0 I I #
convexity-sys-attrib $-1 -1 $226 $84 $55 #
point $-1 -1 $-1 -180 30 123.431457505076 #
point $-1 -1 $-1 -123.431457505076 30 180 #
cur-twe-attrib $-1 -1 $-1 $-1 $87 25 #
face $-1 -1 $-1 $227 $228 $56 $-1 $94 reversed single #
loop $-1 -1 $-1 $-1 $229 $88 #
plane-surface $-1 -1 $-1 180.00000000000074 0 0 -1 0 0 0 0 1 forward_v I I I I #
face $-1 -1 $-1 $230 $231 $36 $-1 $143 reversed single #
loop $-1 -1 $-1 $-1 $232 $89 #
coedge $-1 -1 $-1 $233 $234 $232 $235 reversed $90 $-1 #
face $-1 -1 $-1 $236 $237 $24 $-1 $156 reversed single #
loop $-1 -1 $-1 $-1 $238 $92 #
coedge $-1 -1 $-1 $239 $240 $241 $242 forward $93 $-1 #
coedge $-1 -1 $-1 $243 $95 $240 $244 forward $59 $-1 #
coedge $-1 -1 $-1 $95 $243 $245 $246 forward $59 $-1 #
coedge $-1 -1 $-1 $247 $241 $95 $153 reversed $248 $-1 #
edge $-1 -1 $-1 $249 -45 $250 15 $95 $251 forward @7 unknown #
face $-1 -1 $-1 $-1 $252 $17 $-1 $94 reversed single #
loop $-1 -1 $-1 $-1 $162 $96 #
plane-surface $-1 -1 $-1 -180.00000000000074 0 0 1 0 0 0 0 -1 forward_v I I I I #
coedge $-1 -1 $-1 $253 $254 $100 $161 forward $97 $-1 #
coedge $-1 -1 $-1 $159 $99 $255 $256 forward $62 $-1 #
coedge $-1 -1 $-1 $99 $158 $253 $257 reversed $62 $-1 #
coedge $-1 -1 $-1 $101 $100 $258 $259 reversed $39 $-1 #
edge $-1 -1 $-1 $260 -15 $164 45 $157 $261 forward @7 unknown #
coedge $-1 -1 $-1 $262 $255 $101 $163 forward $155 $-1 #
edge $-1 -1 $-1 $165 -45 $263 15 $162 $264 forward @7 unknown #
vertex $-1 -1 $-1 $257 $265 #
vertex $-1 -1 $-1 $256 $266 #
straight-curve $-1 -1 $-1 -165.85786437626962 -30 -137.5735931288084 -0.70710678118654757 0 0.70710678118654746 I I #
model_id-kcp-attrib $-1 -1 $-1 $-1 $104 1 1021384692 1021384692 1435566082 6 #
face $267 -1 $-1 $268 $269 $18 $-1 $270 reversed single #
loop $-1 -1 $-1 $-1 $271 $104 #
plane-surface $-1 -1 $-1 -180.00000000000074 0 0 1 0 0 0 0 -1 forward_v I I I I #
coedge $-1 -1 $-1 $272 $179 $273 $274 forward $105 $-1 #
coedge $-1 -1 $-1 $275 $107 $272 $276 forward $67 $-1 #
coedge $-1 -1 $-1 $107 $275 $277 $278 forward $67 $-1 #
coedge $-1 -1 $-1 $182 $181 $107 $175 reversed $183 $-1 #
edge $-1 -1 $-1 $279 -30 $280 30 $174 $281 forward @7 unknown #
coedge $-1 -1 $-1 $109 $108 $282 $283 forward $43 $-1 #
coedge $-1 -1 $-1 $284 $285 $108 $178 reversed $269 $-1 #
edge $-1 -1 $-1 $185 -180.00000000000074 $286 180.00000000000074 $177 $287 forward @7 unknown #
coedge $-1 -1 $-1 $171 $288 $109 $180 reversed $105 $-1 #
edge $-1 -1 $-1 $289 -180.00000000000074 $184 180.00000000000074 $179 $290 forward @7 unknown #
coedge $-1 -1 $-1 $174 $110 $288 $291 forward $183 $-1 #
coedge $-1 -1 $-1 $110 $174 $284 $292 reversed $183 $-1 #
loop $-1 -1 $-1 $-1 $181 $268 #
vertex $-1 -1 $-1 $111 $293 #
vertex $-1 -1 $-1 $111 $294 #
straight-curve $-1 -1 $-1 180.00000000000074 0 180.00000000000074 0 1 0 I I #
face_name-twe-attrib $-1 -1 $-1 $113 $72 5 #
model_id-kcp-attrib $-1 -1 $295 $-1 $114 1 1021384692 1021384692 1434910721 7 #
face $296 -1 $-1 $297 $298 $7 $-1 $299 reversed single #
loop $300 -1 $-1 $-1 $301 $114 #
plane-surface $302 -1 $-1 -123.43145750507701 -30 -180 -0.70710678118654757 0 -0.70710678118654757 0 1 0 forward_v I I I I #
loop_type-twe-attrib $-1 -1 $-1 $-1 $115 0 #
surf-twe-attrib $-1 -1 $-1 $-1 $116 27 #
coedge $-1 -1 $-1 $202 $118 $303 $304 reversed $73 $-1 #
coedge $-1 -1 $-1 $118 $202 $198 $305 reversed $73 $-1 #
coedge $-1 -1 $-1 $199 $306 $118 $197 forward $115 $-1 #
edge $307 -1 $-1 $308 -60.000418509945412 $309 19.999581492813753 $196 $310 forward @7 unknown #
coedge $-1 -1 $-1 $121 $120 $195 $305 forward $48 $-1 #
coedge $-1 -1 $-1 $127 $196 $120 $200 reversed $115 $-1 #
edge $311 -1 $-1 $135 -123.431457505076 $309 123.431186255013 $199 $312 forward @7 unknown #
coedge $-1 -1 $-1 $313 $122 $314 $315 forward $30 $-1 #
coedge $-1 -1 $-1 $195 $194 $122 $203 reversed $73 $-1 #
edge $316 -1 $-1 $205 -19.999581492813753 $317 60.000418509945412 $122 $318 forward @7 unknown #
attrib_edge_convexity-kcp-attrib $-1 -1 $319 $-1 $123 1 #
vertex $-1 -1 $-1 $203 $320 #
straight-curve $321 -1 $-1 0 30 180 -1 0 0 I I #
coedge $-1 -1 $-1 $124 $313 $322 $323 reversed $30 $-1 #
coedge $-1 -1 $-1 $324 $325 $124 $209 reversed $190 $-1 #
edge $326 -1 $-1 $327 -19.999999999999353 $212 59.999999999999446 $124 $328 forward @7 unknown #
coedge $-1 -1 $-1 $129 $125 $325 $329 forward $130 $-1 #
attrib_edge_convexity-kcp-attrib $-1 -1 $330 $-1 $126 1 #
vertex $-1 -1 $-1 $126 $331 #
straight-curve $332 -1 $-1 -180 30 0 0 0 -1 I I #
coedge $-1 -1 $-1 $333 $127 $129 $217 forward $115 $-1 #
attrib_edge_convexity-kcp-attrib $-1 -1 $334 $-1 $128 1 #
straight-curve $335 -1 $-1 -137.573593128808 -30 165.85786437626999 -0.70710678118654802 0 -0.70710678118654802 I I #
edge $336 -1 $-1 $132 -123.431457505076 $337 123.43145750507701 $129 $338 forward @7 unknown #
loop_type-twe-attrib $-1 -1 $-1 $-1 $130 0 #
face $339 -1 $-1 $340 $130 $7 $-1 $341 reversed single #
convexity-sys-attrib $-1 -1 $342 $131 $82 #
point $-1 -1 $-1 -180 -30 123.431457505076 #
cur-twe-attrib $-1 -1 $-1 $-1 $133 37 #
convexity-sys-attrib $-1 -1 $343 $134 $83 #
point $-1 -1 $-1 -123.431457505076 -30 180 #
cur-twe-attrib $-1 -1 $-1 $-1 $136 38 #
edge_name-twe-attrib $-1 -1 $-1 $137 $55 1 8704 #
face $-1 -1 $-1 $344 $345 $56 $-1 $63 reversed single #
loop $-1 -1 $-1 $-1 $346 $141 #
coedge $-1 -1 $-1 $347 $348 $349 $350 forward $142 $-1 #
face $-1 -1 $-1 $351 $352 $36 $-1 $94 reversed single #
loop $-1 -1 $-1 $-1 $353 $144 #
coedge $-1 -1 $-1 $354 $355 $146 $235 forward $145 $-1 #
coedge $-1 -1 $-1 $356 $146 $357 $358 reversed $90 $-1 #
coedge $-1 -1 $-1 $146 $356 $353 $359 reversed $90 $-1 #
edge $-1 -1 $-1 $360 -59.999581494194288 $361 20.000418508566277 $232 $362 forward @7 unknown #
face $-1 -1 $-1 $-1 $248 $24 $-1 $363 reversed single #
loop $-1 -1 $-1 $-1 $364 $147 #
coedge $-1 -1 $-1 $245 $365 $247 $366 forward $148 $-1 #
coedge $-1 -1 $-1 $240 $149 $367 $368 reversed $93 $-1 #
coedge $-1 -1 $-1 $149 $239 $150 $244 reversed $93 $-1 #
coedge $-1 -1 $-1 $152 $369 $149 $242 reversed $248 $-1 #
edge $-1 -1 $-1 $250 -20.00000000000005 $370 60.000000000001613 $149 $371 forward @7 unknown #
coedge $-1 -1 $-1 $151 $150 $372 $373 forward $59 $-1 #
edge $-1 -1 $-1 $250 123.43145750507576 $374 180.00000000000074 $240 $375 forward @7 unknown #
coedge $-1 -1 $-1 $365 $238 $151 $246 reversed $148 $-1 #
edge $-1 -1 $-1 $376 -180.00000000000074 $249 -123.43145750507576 $245 $377 forward @7 unknown #
coedge $-1 -1 $-1 $369 $152 $238 $366 reversed $248 $-1 #
loop $-1 -1 $-1 $-1 $241 $236 #
vertex $-1 -1 $-1 $366 $378 #
vertex $-1 -1 $-1 $244 $379 #
straight-curve $-1 -1 $-1 -123.4314575050748 15 180.00000000000074 0 1 0 I I #
loop $-1 -1 $-1 $-1 $258 $154 #
coedge $-1 -1 $-1 $380 $157 $159 $257 forward $97 $-1 #
coedge $-1 -1 $-1 $157 $380 $381 $382 forward $97 $-1 #
coedge $-1 -1 $-1 $162 $383 $158 $256 reversed $155 $-1 #
edge $-1 -1 $-1 $165 123.43145750507779 $384 180.00000000000074 $255 $385 forward @7 unknown #
edge $-1 -1 $-1 $164 123.43145750507726 $384 180.00000000000074 $159 $386 forward @7 unknown #
coedge $-1 -1 $-1 $381 $387 $160 $259 forward $252 $-1 #
edge $-1 -1 $-1 $263 -19.999999999999538 $260 59.999999999999304 $258 $388 forward @7 unknown #
vertex $-1 -1 $-1 $259 $389 #
straight-curve $-1 -1 $-1 -123.4314575050773 15 -180.00000000000074 0 -1 0 I I #
coedge $-1 -1 $-1 $383 $162 $387 $390 forward $155 $-1 #
vertex $-1 -1 $-1 $390 $391 #
straight-curve $-1 -1 $-1 -180.00000000000074 15 -123.43145750507732 0 1 0 I I #
point $-1 -1 $-1 -123.43145750507726 -30 -180.00000000000077 #
point $-1 -1 $-1 -180.00000000000026 -30 -123.43145750507779 #
model_id-kcp-attrib $-1 -1 $-1 $-1 $168 1 1021384692 1021384692 1435566082 2 #
face $392 -1 $-1 $-1 $183 $18 $-1 $393 reversed single #
loop $-1 -1 $-1 $-1 $284 $168 #
plane-surface $-1 -1 $-1 0 30 0 0 -1 0 0 0 -1 forward_v I I I I #
coedge $-1 -1 $-1 $394 $282 $285 $395 forward $169 $-1 #
coedge $-1 -1 $-1 $288 $171 $172 $276 reversed $105 $-1 #
coedge $-1 -1 $-1 $282 $394 $171 $274 reversed $169 $-1 #
edge $-1 -1 $-1 $289 -180.00000000000074 $396 180.00000000000074 $273 $397 forward @7 unknown #
coedge $-1 -1 $-1 $173 $172 $394 $398 forward $67 $-1 #
edge $-1 -1 $-1 $280 -180.00000000000074 $396 180.00000000000074 $272 $399 forward @7 unknown #
coedge $-1 -1 $-1 $285 $284 $173 $278 reversed $269 $-1 #
edge $-1 -1 $-1 $400 -180.00000000000074 $279 180.00000000000074 $277 $401 forward @7 unknown #
vertex $-1 -1 $-1 $175 $402 #
vertex $-1 -1 $-1 $291 $403 #
straight-curve $-1 -1 $-1 180.00000000000074 0 -180.00000000000074 0 -1 0 I I #
coedge $-1 -1 $-1 $271 $273 $176 $283 reversed $169 $-1 #
edge $-1 -1 $-1 $286 -30 $289 30 $282 $404 forward @7 unknown #
coedge $-1 -1 $-1 $277 $177 $182 $292 forward $269 $-1 #
coedge $-1 -1 $-1 $177 $277 $271 $395 reversed $269 $-1 #
vertex $-1 -1 $-1 $178 $405 #
straight-curve $-1 -1 $-1 0 30 180.00000000000074 -1 0 0 I I #
coedge $-1 -1 $-1 $179 $272 $181 $291 reversed $105 $-1 #
vertex $-1 -1 $-1 $283 $406 #
straight-curve $-1 -1 $-1 0 -30 180.00000000000074 1 0 0 I I #
edge $-1 -1 $-1 $184 -180.00000000000074 $280 180.00000000000074 $181 $407 forward @7 unknown #
edge $-1 -1 $-1 $185 -180.00000000000074 $279 180.00000000000074 $182 $408 forward @7 unknown #
point $-1 -1 $-1 180.00000000000074 -30 180.00000000000074 #
point $-1 -1 $-1 180.00000000000074 30 180.00000000000074 #
face_name-twe-attrib $-1 -1 $-1 $188 $114 6 #
model_id-kcp-attrib $-1 -1 $409 $-1 $189 1 1021384692 1021384692 1434910721 8 #
face $410 -1 $-1 $219 $411 $7 $-1 $412 forward single #
loop $413 -1 $-1 $-1 $414 $189 #
plane-surface $415 -1 $-1 0 0 -180 0 0 1 1 0 0 forward_v I I I I #
loop_type-twe-attrib $-1 -1 $-1 $-1 $190 0 #
coedge $-1 -1 $-1 $325 $324 $333 $416 reversed $190 $-1 #
surf-twe-attrib $-1 -1 $-1 $-1 $191 44 #
coedge $-1 -1 $-1 $417 $314 $194 $304 forward $418 $-1 #
edge $419 -1 $-1 $317 -45 $308 15 $303 $420 forward @7 unknown #
edge $421 -1 $-1 $309 -45 $205 15 $198 $422 forward @7 unknown #
coedge $-1 -1 $-1 $196 $423 $417 $424 reversed $115 $-1 #
attrib_edge_convexity-kcp-attrib $-1 -1 $425 $-1 $197 1 #
vertex $-1 -1 $-1 $304 $426 #
vertex $-1 -1 $-1 $200 $427 #
straight-curve $428 -1 $-1 137.57309376008399 -30 165.85822811647299 -0.70711017178794999 0 0.70710339056888705 I I #
model_id-kcp-attrib $-1 -1 $429 $-1 $200 1 1021384692 1021384692 1434910721 14 #
straight-curve $430 -1 $-1 0 -30 180 1 0 0 I I #
coedge $-1 -1 $-1 $207 $201 $431 $432 forward $30 $-1 #
coedge $-1 -1 $-1 $303 $433 $201 $315 reversed $418 $-1 #
edge $434 -1 $-1 $317 -123.43172875253801 $435 123.43145750507701 $314 $436 forward @7 unknown #
attrib_edge_convexity-kcp-attrib $-1 -1 $437 $-1 $203 1 #
vertex $-1 -1 $-1 $203 $438 #
straight-curve $439 -1 $-1 137.57309376008399 30 165.85822811647299 0.70711017178794999 0 -0.70710339056888705 I I #
convexity-sys-attrib $-1 -1 $440 $204 $123 #
point $-1 -1 $-1 123.431186255013 30 180 #
cur-twe-attrib $-1 -1 $-1 $-1 $206 53 #
coedge $-1 -1 $-1 $441 $414 $207 $323 forward $298 $-1 #
edge $442 -1 $-1 $327 -123.43145750507701 $443 123.43145750507701 $207 $444 forward @7 unknown #
coedge $-1 -1 $-1 $301 $208 $414 $445 reversed $190 $-1 #
coedge $-1 -1 $-1 $208 $301 $210 $329 reversed $190 $-1 #
attrib_edge_convexity-kcp-attrib $-1 -1 $446 $-1 $209 1 #
vertex $-1 -1 $-1 $209 $447 #
straight-curve $448 -1 $-1 -137.573593128808 30 -165.85786437626999 -0.70710678118654802 0 0.70710678118654802 I I #
edge $449 -1 $-1 $212 -45 $337 15 $210 $450 forward @7 unknown #
convexity-sys-attrib $-1 -1 $451 $211 $126 #
point $-1 -1 $-1 -180 30 -123.43145750507701 #
cur-twe-attrib $-1 -1 $-1 $-1 $213 56 #
coedge $-1 -1 $-1 $452 $214 $301 $416 forward $115 $-1 #
convexity-sys-attrib $-1 -1 $453 $215 $128 #
cur-twe-attrib $-1 -1 $-1 $-1 $216 58 #
model_id-kcp-attrib $-1 -1 $454 $-1 $217 1 1021384692 1021384692 1434910721 13 #
vertex $-1 -1 $-1 $217 $455 #
straight-curve $456 -1 $-1 -180 -30 0 0 0 -1 I I #
model_id-kcp-attrib $-1 -1 $457 $-1 $219 1 1021384692 1021384692 1434910721 10 #
face $458 -1 $-1 $-1 $418 $7 $-1 $459 reversed single #
plane-surface $460 -1 $-1 -180 0 0 1 0 0 0 0 -1 forward_v I I I I #
edge_name-twe-attrib $-1 -1 $-1 $220 $82 18 8448 #
edge_name-twe-attrib $-1 -1 $-1 $223 $83 8 8448 #
face $-1 -1 $-1 $461 $462 $56 $-1 $98 reversed single #
loop $-1 -1 $-1 $-1 $463 $227 #
coedge $-1 -1 $-1 $464 $465 $466 $467 forward $228 $-1 #
coedge $-1 -1 $-1 $468 $229 $469 $470 forward $142 $-1 #
coedge $-1 -1 $-1 $229 $468 $464 $471 reversed $142 $-1 #
coedge $-1 -1 $-1 $466 $472 $229 $350 reversed $473 $-1 #
edge $-1 -1 $-1 $474 -15 $475 45 $229 $476 forward @7 unknown #
face $-1 -1 $-1 $-1 $477 $36 $-1 $60 forward single #
loop $-1 -1 $-1 $-1 $478 $230 #
coedge $-1 -1 $-1 $479 $480 $234 $359 forward $231 $-1 #
coedge $-1 -1 $-1 $355 $232 $480 $481 reversed $145 $-1 #
coedge $-1 -1 $-1 $232 $354 $482 $483 reversed $145 $-1 #
coedge $-1 -1 $-1 $234 $233 $478 $484 reversed $90 $-1 #
coedge $-1 -1 $-1 $482 $485 $233 $358 forward $477 $-1 #
edge $-1 -1 $-1 $486 -15 $360 45 $357 $487 forward @7 unknown #
edge $-1 -1 $-1 $361 -45 $488 15 $353 $489 forward @7 unknown #
vertex $-1 -1 $-1 $483 $490 #
vertex $-1 -1 $-1 $235 $491 #
straight-curve $-1 -1 $-1 165.85750063257711 -30 137.5740924927417 0.70711017178794977 0 -0.70710339056888716 I I #
plane-surface $-1 -1 $-1 -123.43145750507576 30 179.99999999999977 -0.70710678118654746 0 0.70710678118654768 0 -1 0 forward_v I I I I #
coedge $-1 -1 $-1 $492 $367 $369 $493 forward $237 $-1 #
coedge $-1 -1 $-1 $238 $245 $492 $494 forward $148 $-1 #
edge $-1 -1 $-1 $495 -60.000000000000249 $249 20.00000000000005 $238 $496 forward @7 unknown #
coedge $-1 -1 $-1 $364 $372 $239 $368 forward $237 $-1 #
edge $-1 -1 $-1 $374 -180.00000000000074 $370 -123.4314575050748 $239 $497 forward @7 unknown #
coedge $-1 -1 $-1 $241 $247 $364 $493 reversed $248 $-1 #
vertex $-1 -1 $-1 $242 $498 #
straight-curve $-1 -1 $-1 -137.57359312880675 30 165.85786437626879 -0.70710678118654768 0 -0.70710678118654746 I I #
coedge $-1 -1 $-1 $367 $492 $243 $373 reversed $237 $-1 #
edge $-1 -1 $-1 $374 -30 $376 30 $372 $499 forward @7 unknown #
vertex $-1 -1 $-1 $244 $500 #
straight-curve $-1 -1 $-1 0 30 180.00000000000074 -1 0 0 I I #
vertex $-1 -1 $-1 $373 $501 #
straight-curve $-1 -1 $-1 0 -30 180.00000000000074 1 0 0 I I #
point $-1 -1 $-1 -123.43145750507576 -30 179.99999999999977 #
point $-1 -1 $-1 -123.43145750507576 30 179.99999999999977 #
coedge $-1 -1 $-1 $254 $253 $383 $502 forward $97 $-1 #
coedge $-1 -1 $-1 $387 $258 $254 $382 reversed $252 $-1 #
edge $-1 -1 $-1 $503 -180.00000000000074 $260 -123.43145750507726 $381 $504 forward @7 unknown #
coedge $-1 -1 $-1 $255 $262 $380 $502 reversed $155 $-1 #
vertex $-1 -1 $-1 $502 $505 #
straight-curve $-1 -1 $-1 -180.00000000000074 -30 0 0 0 -1 I I #
straight-curve $-1 -1 $-1 0 -30 -180.00000000000074 -1 0 0 I I #
coedge $-1 -1 $-1 $258 $381 $262 $390 reversed $252 $-1 #
straight-curve $-1 -1 $-1 -165.85786437626962 30 -137.5735931288084 0.70710678118654757 0 -0.70710678118654746 I I #
point $-1 -1 $-1 -123.43145750507726 30 -180.00000000000077 #
edge $-1 -1 $-1 $263 123.43145750507779 $503 180.00000000000074 $387 $497 forward @7 unknown #
point $-1 -1 $-1 -180.00000000000026 30 -123.43145750507779 #
model_id-kcp-attrib $-1 -1 $-1 $-1 $268 1 1021384692 1021384692 1435566082 7 #
plane-surface $-1 -1 $-1 180.00000000000074 0 0 -1 0 0 0 0 1 forward_v I I I I #
coedge $-1 -1 $-1 $273 $271 $275 $398 reversed $169 $-1 #
edge $-1 -1 $-1 $286 -180.00000000000074 $400 180.00000000000074 $285 $506 forward @7 unknown #
vertex $-1 -1 $-1 $398 $507 #
straight-curve $-1 -1 $-1 -180.00000000000074 -30 0 0 0 -1 I I #
edge $-1 -1 $-1 $396 -30 $400 30 $394 $508 forward @7 unknown #
straight-curve $-1 -1 $-1 0 -30 -180.00000000000074 -1 0 0 I I #
vertex $-1 -1 $-1 $278 $509 #
straight-curve $-1 -1 $-1 0 30 -180.00000000000074 1 0 0 I I #
point $-1 -1 $-1 180.00000000000074 30 -180.00000000000074 #
point $-1 -1 $-1 180.00000000000074 -30 -180.00000000000074 #
straight-curve $-1 -1 $-1 -180.00000000000074 0 180.00000000000074 0 -1 0 I I #
point $-1 -1 $-1 -180.00000000000074 30 180.00000000000074 #
point $-1 -1 $-1 -180.00000000000074 -30 180.00000000000074 #
straight-curve $-1 -1 $-1 180.00000000000074 -30 0 0 0 -1 I I #
straight-curve $-1 -1 $-1 180.00000000000074 30 0 0 0 -1 I I #
face_name-twe-attrib $-1 -1 $-1 $296 $189 7 #
model_id-kcp-attrib $-1 -1 $510 $-1 $297 1 1021384692 1021384692 1434910721 9 #
loop $511 -1 $-1 $-1 $431 $297 #
plane-surface $512 -1 $-1 123.43145750507701 30 -180 0.70710678118654757 0 -0.70710678118654757 0 1 0 forward_v I I I I #
loop_type-twe-attrib $-1 -1 $-1 $-1 $298 0 #
coedge $-1 -1 $-1 $322 $513 $324 $445 forward $298 $-1 #
surf-twe-attrib $-1 -1 $-1 $-1 $299 71 #
edge $514 -1 $-1 $337 -59.999999999999446 $515 19.999999999999353 $333 $516 forward @7 unknown #
coedge $-1 -1 $-1 $433 $303 $306 $424 forward $418 $-1 #
loop $517 -1 $-1 $-1 $303 $340 #
attrib_edge_convexity-kcp-attrib $-1 -1 $518 $-1 $304 1 #
straight-curve $519 -1 $-1 180 -15 123.43172875253801 0 -1 0 I I #
attrib_edge_convexity-kcp-attrib $-1 -1 $520 $-1 $305 1 #
straight-curve $521 -1 $-1 123.431186255013 15 180 0 1 0 I I #
coedge $-1 -1 $-1 $306 $452 $522 $523 forward $115 $-1 #
edge $524 -1 $-1 $308 -123.43172875253801 $525 123.43145750507701 $417 $526 forward @7 unknown #
convexity-sys-attrib $-1 -1 $527 $307 $197 #
point $-1 -1 $-1 180 -30 123.43172875253801 #
point $-1 -1 $-1 123.431186255013 -30 180 #
cur-twe-attrib $-1 -1 $-1 $-1 $310 79 #
attrib_edge_convexity-kcp-attrib $-1 -1 $528 $311 $200 1 #
cur-twe-attrib $-1 -1 $-1 $-1 $312 82 #
coedge $-1 -1 $-1 $529 $530 $313 $432 reversed $411 $-1 #
edge $531 -1 $-1 $435 -59.999999999999446 $443 19.999999999999353 $313 $532 forward @7 unknown #
coedge $-1 -1 $-1 $314 $417 $529 $533 forward $418 $-1 #
attrib_edge_convexity-kcp-attrib $-1 -1 $534 $-1 $315 1 #
vertex $-1 -1 $-1 $315 $535 #
straight-curve $536 -1 $-1 180 30 0 0 0 -1 I I #
convexity-sys-attrib $-1 -1 $537 $316 $203 #
point $-1 -1 $-1 180 30 123.43172875253801 #
cur-twe-attrib $-1 -1 $-1 $-1 $318 85 #
edge_name-twe-attrib $-1 -1 $-1 $319 $123 2 8704 #
coedge $-1 -1 $-1 $513 $322 $530 $538 forward $298 $-1 #
attrib_edge_convexity-kcp-attrib $-1 -1 $539 $-1 $323 1 #
vertex $-1 -1 $-1 $323 $540 #
straight-curve $541 -1 $-1 0 30 -180 1 0 0 I I #
edge $542 -1 $-1 $515 -45 $327 15 $414 $543 forward @7 unknown #
convexity-sys-attrib $-1 -1 $544 $326 $209 #
point $-1 -1 $-1 -123.43145750507701 30 -180 #
cur-twe-attrib $-1 -1 $-1 $-1 $328 91 #
attrib_edge_convexity-kcp-attrib $-1 -1 $545 $-1 $329 1 #
straight-curve $546 -1 $-1 -180 -15 -123.43145750507701 0 -1 0 I I #
edge_name-twe-attrib $-1 -1 $-1 $330 $126 7 8704 #
coedge $-1 -1 $-1 $423 $333 $513 $547 reversed $115 $-1 #
edge_name-twe-attrib $-1 -1 $-1 $334 $128 10 8704 #
attrib_edge_convexity-kcp-attrib $-1 -1 $548 $336 $217 1 #
point $-1 -1 $-1 -180 -30 -123.43145750507701 #
cur-twe-attrib $-1 -1 $-1 $-1 $338 99 #
face_name-twe-attrib $-1 -1 $-1 $339 $219 9 #
model_id-kcp-attrib $-1 -1 $549 $-1 $340 1 1021384692 1021384692 1434910721 11 #
plane-surface $550 -1 $-1 180 0 0 -1 0 0 0 0 1 forward_v I I I I #
surf-twe-attrib $-1 -1 $-1 $-1 $341 101 #
face $-1 -1 $-1 $-1 $473 $56 $-1 $551 reversed single #
loop $-1 -1 $-1 $-1 $552 $344 #
coedge $-1 -1 $-1 $553 $469 $472 $554 forward $345 $-1 #
coedge $-1 -1 $-1 $465 $346 $348 $471 forward $228 $-1 #
coedge $-1 -1 $-1 $346 $464 $555 $556 reversed $228 $-1 #
coedge $-1 -1 $-1 $557 $349 $346 $467 reversed $473 $-1 #
edge $-1 -1 $-1 $558 -19.999999999999698 $474 59.99999999999914 $346 $559 forward @7 unknown #
coedge $-1 -1 $-1 $348 $347 $560 $561 reversed $142 $-1 #
coedge $-1 -1 $-1 $463 $553 $347 $470 reversed $345 $-1 #
edge $-1 -1 $-1 $475 123.43145750507779 $562 180.00000000000074 $347 $563 forward @7 unknown #
edge $-1 -1 $-1 $474 123.43145750507779 $564 180.00000000000074 $348 $565 forward @7 unknown #
coedge $-1 -1 $-1 $349 $557 $463 $554 reversed $473 $-1 #
loop $-1 -1 $-1 $-1 $472 $461 #
vertex $-1 -1 $-1 $471 $566 #
vertex $-1 -1 $-1 $470 $567 #
straight-curve $-1 -1 $-1 180.00000000000074 15 -123.43145750507685 0 -1 0 I I #
loop $-1 -1 $-1 $-1 $357 $351 #
coedge $-1 -1 $-1 $568 $569 $356 $484 forward $352 $-1 #
coedge $-1 -1 $-1 $570 $353 $569 $571 reversed $231 $-1 #
coedge $-1 -1 $-1 $353 $570 $354 $481 forward $231 $-1 #
edge $-1 -1 $-1 $572 -180.00000000000074 $361 -123.43172875253777 $480 $563 forward @7 unknown #
coedge $-1 -1 $-1 $573 $357 $355 $483 forward $477 $-1 #
edge $-1 -1 $-1 $360 123.43118625501231 $572 180.00000000000074 $355 $377 forward @7 unknown #
edge $-1 -1 $-1 $488 -20.000418508566277 $486 59.999581494194288 $478 $574 forward @7 unknown #
coedge $-1 -1 $-1 $357 $573 $568 $575 forward $477 $-1 #
vertex $-1 -1 $-1 $358 $576 #
straight-curve $-1 -1 $-1 123.43118625501231 15 180.00000000000074 0 -1 0 I I #
vertex $-1 -1 $-1 $484 $577 #
straight-curve $-1 -1 $-1 180.00000000000074 15 123.43172875253734 0 1 0 I I #
point $-1 -1 $-1 123.43118625501231 -30 180.00000000000074 #
point $-1 -1 $-1 180.00000000000031 -30 123.43172875253777 #
coedge $-1 -1 $-1 $372 $364 $365 $494 reversed $237 $-1 #
edge $-1 -1 $-1 $370 -15 $495 45 $364 $578 forward @7 unknown #
edge $-1 -1 $-1 $376 -180.00000000000074 $495 -123.43145750507577 $492 $385 forward @7 unknown #
vertex $-1 -1 $-1 $366 $579 #
straight-curve $-1 -1 $-1 -137.57359312880675 -30.000000000000004 165.85786437626879 0.70710678118654768 0 0.70710678118654746 I I #
straight-curve $-1 -1 $-1 -180.00000000000074 30 0 0 0 -1 I I #
point $-1 -1 $-1 -180.00000000000074 30 123.4314575050748 #
straight-curve $-1 -1 $-1 -180.00000000000074 0 180.00000000000074 0 -1 0 I I #
point $-1 -1 $-1 -180.00000000000074 30 180.00000000000074 #
point $-1 -1 $-1 -180.00000000000074 -30 180.00000000000074 #
edge $-1 -1 $-1 $384 -30 $503 30 $383 $580 forward @7 unknown #
vertex $-1 -1 $-1 $382 $581 #
straight-curve $-1 -1 $-1 0 30 -180.00000000000074 1 0 0 I I #
point $-1 -1 $-1 -180.00000000000074 -30 -180.00000000000074 #
straight-curve $-1 -1 $-1 -180.00000000000074 30 0 0 0 -1 I I #
point $-1 -1 $-1 -180.00000000000074 -30 -180.00000000000074 #
straight-curve $-1 -1 $-1 -180.00000000000074 0 -180.00000000000074 0 1 0 I I #
point $-1 -1 $-1 -180.00000000000074 30 -180.00000000000074 #
face_name-twe-attrib $-1 -1 $-1 $410 $297 8 #
loop_type-twe-attrib $-1 -1 $-1 $-1 $411 0 #
surf-twe-attrib $-1 -1 $-1 $-1 $412 107 #
coedge $-1 -1 $-1 $414 $441 $452 $547 forward $298 $-1 #
attrib_edge_convexity-kcp-attrib $-1 -1 $582 $-1 $416 1 #
vertex $-1 -1 $-1 $547 $583 #
straight-curve $584 -1 $-1 -137.573593128808 -30 -165.85786437626999 0.70710678118654802 0 -0.70710678118654802 I I #
loop_type-twe-attrib $-1 -1 $-1 $-1 $418 0 #
convexity-sys-attrib $-1 -1 $585 $419 $304 #
cur-twe-attrib $-1 -1 $-1 $-1 $420 114 #
convexity-sys-attrib $-1 -1 $586 $421 $305 #
cur-twe-attrib $-1 -1 $-1 $-1 $422 115 #
coedge $-1 -1 $-1 $530 $529 $423 $523 reversed $411 $-1 #
edge $587 -1 $-1 $588 -19.999999999999353 $525 59.999999999999446 $423 $589 forward @7 unknown #
model_id-kcp-attrib $-1 -1 $590 $-1 $424 1 1021384692 1021384692 1434910721 15 #
vertex $-1 -1 $-1 $424 $591 #
straight-curve $592 -1 $-1 180 -30 0 0 0 -1 I I #
edge_name-twe-attrib $-1 -1 $-1 $425 $197 14 8704 #
convexity-sys-attrib $-1 -1 $593 $429 $200 #
coedge $-1 -1 $-1 $522 $431 $433 $533 reversed $411 $-1 #
coedge $-1 -1 $-1 $431 $522 $441 $538 reversed $411 $-1 #
attrib_edge_convexity-kcp-attrib $-1 -1 $594 $-1 $432 1 #
straight-curve $595 -1 $-1 137.573593128808 30 -165.85786437626999 -0.70710678118654802 0 -0.70710678118654802 I I #
edge $596 -1 $-1 $525 -45 $435 15 $433 $597 forward @7 unknown #
convexity-sys-attrib $-1 -1 $598 $434 $315 #
point $-1 -1 $-1 180 30 -123.43145750507701 #
cur-twe-attrib $-1 -1 $-1 $-1 $436 125 #
edge_name-twe-attrib $-1 -1 $-1 $437 $203 3 8704 #
edge $599 -1 $-1 $443 -45 $588 15 $441 $600 forward @7 unknown #
convexity-sys-attrib $-1 -1 $601 $442 $323 #
point $-1 -1 $-1 123.43145750507701 30 -180 #
cur-twe-attrib $-1 -1 $-1 $-1 $444 132 #
attrib_edge_convexity-kcp-attrib $-1 -1 $602 $-1 $445 1 #
straight-curve $603 -1 $-1 -123.43145750507701 15 -180 0 1 0 I I #
edge_name-twe-attrib $-1 -1 $-1 $446 $209 6 8704 #
convexity-sys-attrib $-1 -1 $604 $449 $329 #
cur-twe-attrib $-1 -1 $-1 $-1 $450 138 #
edge $605 -1 $-1 $588 -123.43145750507701 $515 123.43145750507701 $452 $606 forward @7 unknown #
convexity-sys-attrib $-1 -1 $607 $454 $217 #
face_name-twe-attrib $-1 -1 $-1 $458 $340 10 #
surf-twe-attrib $-1 -1 $-1 $-1 $459 147 #
plane-surface $-1 -1 $-1 123.4314575050773 30 -180.00000000000028 0.70710678118654746 0 -0.70710678118654757 0 1 0 forward_v I I I I #
coedge $-1 -1 $-1 $555 $608 $557 $609 forward $462 $-1 #
coedge $-1 -1 $-1 $469 $463 $608 $610 reversed $345 $-1 #
edge $-1 -1 $-1 $475 -59.99999999999914 $611 19.999999999999698 $463 $612 forward @7 unknown #
coedge $-1 -1 $-1 $560 $552 $465 $556 forward $462 $-1 #
edge $-1 -1 $-1 $558 123.4314575050773 $564 180.00000000000074 $465 $504 forward @7 unknown #
coedge $-1 -1 $-1 $472 $466 $552 $609 reversed $473 $-1 #
vertex $-1 -1 $-1 $556 $613 #
straight-curve $-1 -1 $-1 137.57359312880806 30 -165.85786437626956 0.70710678118654757 0 0.70710678118654746 I I #
coedge $-1 -1 $-1 $608 $555 $468 $561 forward $462 $-1 #
edge $-1 -1 $-1 $564 -30 $562 30 $468 $614 forward @7 unknown #
vertex $-1 -1 $-1 $470 $615 #
straight-curve $-1 -1 $-1 180.00000000000074 -30 0 0 0 -1 I I #
vertex $-1 -1 $-1 $561 $616 #
straight-curve $-1 -1 $-1 180.00000000000074 30 0 0 0 -1 I I #
point $-1 -1 $-1 180.00000000000077 30 -123.43145750507779 #
point $-1 -1 $-1 180.00000000000077 -30 -123.43145750507779 #
coedge $-1 -1 $-1 $569 $478 $485 $575 reversed $352 $-1 #
coedge $-1 -1 $-1 $478 $568 $479 $571 forward $352 $-1 #
coedge $-1 -1 $-1 $480 $479 $573 $617 reversed $231 $-1 #
edge $-1 -1 $-1 $618 -180.00000000000074 $488 -123.43172875253777 $479 $565 forward @7 unknown #
vertex $-1 -1 $-1 $617 $619 #
coedge $-1 -1 $-1 $485 $482 $570 $617 forward $477 $-1 #
straight-curve $-1 -1 $-1 165.85750063257711 30 137.5740924927417 -0.70711017178794977 0 0.70710339056888716 I I #
edge $-1 -1 $-1 $618 -180.00000000000074 $486 -123.43118625501231 $568 $375 forward @7 unknown #
point $-1 -1 $-1 123.43118625501231 30 180.00000000000074 #
point $-1 -1 $-1 180.00000000000031 30 123.43172875253777 #
straight-curve $-1 -1 $-1 -180.00000000000074 15 123.4314575050748 0 -1 0 I I #
point $-1 -1 $-1 -179.99999999999977 -30 123.43145750507577 #
straight-curve $-1 -1 $-1 -180.00000000000074 0 -180.00000000000074 0 1 0 I I #
point $-1 -1 $-1 -180.00000000000074 30 -180.00000000000074 #
convexity-sys-attrib $-1 -1 $620 $514 $416 #
point $-1 -1 $-1 -123.43145750507701 -30 -180 #
cur-twe-attrib $-1 -1 $-1 $-1 $516 155 #
edge_name-twe-attrib $-1 -1 $-1 $518 $304 21 8448 #
edge_name-twe-attrib $-1 -1 $-1 $520 $305 9 8448 #
edge_name-twe-attrib $-1 -1 $-1 $-1 $523 13 8704 #
vertex $-1 -1 $-1 $523 $621 #
straight-curve $622 -1 $-1 137.573593128808 -30 -165.85786437626999 0.70710678118654802 0 0.70710678118654802 I I #
edge_name-twe-attrib $-1 -1 $-1 $524 $424 22 8704 #
point $-1 -1 $-1 180 -30 -123.43145750507701 #
cur-twe-attrib $-1 -1 $-1 $-1 $526 163 #
edge_name-twe-attrib $-1 -1 $-1 $528 $200 15 8704 #
convexity-sys-attrib $-1 -1 $623 $531 $432 #
cur-twe-attrib $-1 -1 $-1 $-1 $532 169 #
edge_name-twe-attrib $-1 -1 $-1 $-1 $533 23 8448 #
straight-curve $624 -1 $-1 180 15 -123.43145750507701 0 1 0 I I #
edge_name-twe-attrib $-1 -1 $-1 $534 $315 24 8704 #
edge_name-twe-attrib $-1 -1 $-1 $-1 $538 17 8448 #
straight-curve $625 -1 $-1 123.43145750507701 -15 -180 0 -1 0 I I #
edge_name-twe-attrib $-1 -1 $-1 $539 $323 5 8704 #
convexity-sys-attrib $-1 -1 $626 $542 $445 #
cur-twe-attrib $-1 -1 $-1 $-1 $543 180 #
edge_name-twe-attrib $-1 -1 $-1 $545 $329 19 8448 #
model_id-kcp-attrib $-1 -1 $627 $-1 $547 1 1021384692 1021384692 1434910721 16 #
straight-curve $628 -1 $-1 0 -30 -180 -1 0 0 I I #
edge_name-twe-attrib $-1 -1 $-1 $548 $217 20 8704 #
coedge $-1 -1 $-1 $552 $560 $553 $610 forward $462 $-1 #
edge $-1 -1 $-1 $611 -45 $558 15 $552 $629 forward @7 unknown #
edge $-1 -1 $-1 $562 -180.00000000000074 $611 -123.4314575050773 $553 $386 forward @7 unknown #
vertex $-1 -1 $-1 $554 $630 #
straight-curve $-1 -1 $-1 137.57359312880806 -30 -165.85786437626956 -0.70710678118654757 0 -0.70710678118654746 I I #
point $-1 -1 $-1 123.4314575050773 30 -180.00000000000028 #
straight-curve $-1 -1 $-1 180.00000000000074 0 -180.00000000000074 0 -1 0 I I #
point $-1 -1 $-1 180.00000000000074 -30 -180.00000000000074 #
point $-1 -1 $-1 180.00000000000074 30 -180.00000000000074 #
edge $-1 -1 $-1 $572 -30 $618 30 $570 $631 forward @7 unknown #
vertex $-1 -1 $-1 $617 $632 #
point $-1 -1 $-1 180.00000000000074 -30 180.00000000000074 #
edge_name-twe-attrib $-1 -1 $-1 $582 $416 11 8704 #
point $-1 -1 $-1 123.43145750507701 -30 -180 #
cur-twe-attrib $-1 -1 $-1 $-1 $589 201 #
edge_name-twe-attrib $-1 -1 $-1 $594 $432 4 8704 #
cur-twe-attrib $-1 -1 $-1 $-1 $597 209 #
cur-twe-attrib $-1 -1 $-1 $-1 $600 212 #
edge_name-twe-attrib $-1 -1 $-1 $602 $445 16 8448 #
edge_name-twe-attrib $-1 -1 $-1 $605 $547 12 8704 #
cur-twe-attrib $-1 -1 $-1 $-1 $606 218 #
straight-curve $-1 -1 $-1 123.43145750507685 15 -180.00000000000074 0 1 0 I I #
point $-1 -1 $-1 123.4314575050773 -30 -180.00000000000028 #
straight-curve $-1 -1 $-1 180.00000000000074 0 180.00000000000074 0 1 0 I I #
point $-1 -1 $-1 180.00000000000074 30 180.00000000000074 #
End-of-ACIS-data 