  0
SECTION
  2
HEADER
  9
$ACADVER
  1
AC1009
  9
$INSBASE
 10
0.0
 20
0.0
 30
0.0
  9
$EXTMIN
 10
0.0
 20
0.0
 30
0.0
  9
$EXTMAX
 10
9.713608
 20
6.439617
 30
5.0
  9
$LIMMIN
 10
0.0
 20
0.0
  9
$LIMMAX
 10
12.0
 20
9.0
  9
$ORTHOMODE
 70
     0
  9
$REGENMODE
 70
     1
  9
$FILLMODE
 70
     1
  9
$QTEXTMODE
 70
     0
  9
$MIRRTEXT
 70
     1
  9
$DRAGMODE
 70
     2
  9
$LTSCALE
 40
1.0
  9
$OSMODE
 70
     0
  9
$ATTMODE
 70
     1
  9
$TEXTSIZE
 40
0.2
  9
$TRACEWID
 40
0.05
  9
$TEXTSTYLE
  7
STANDARD
  9
$CLAYER
  8
0
  9
$CELTYPE
  6
BYLAYER
  9
$CECOLOR
 62
   256
  9
$DIMSCALE
 40
1.0
  9
$DIMASZ
 40
0.18
  9
$DIMEXO
 40
0.0625
  9
$DIMDLI
 40
0.38
  9
$DIMRND
 40
0.0
  9
$DIMDLE
 40
0.0
  9
$DIMEXE
 40
0.18
  9
$DIMTP
 40
0.0
  9
$DIMTM
 40
0.0
  9
$DIMTXT
 40
0.18
  9
$DIMCEN
 40
0.09
  9
$DIMTSZ
 40
0.0
  9
$DIMTOL
 70
     0
  9
$DIMLIM
 70
     0
  9
$DIMTIH
 70
     1
  9
$DIMTOH
 70
     1
  9
$DIMSE1
 70
     0
  9
$DIMSE2
 70
     0
  9
$DIMTAD
 70
     0
  9
$DIMZIN
 70
     0
  9
$DIMBLK
  1

  9
$DIMASO
 70
     1
  9
$DIMSHO
 70
     1
  9
$DIMPOST
  1

  9
$DIMAPOST
  1

  9
$DIMALT
 70
     0
  9
$DIMALTD
 70
     2
  9
$DIMALTF
 40
25.4
  9
$DIMLFAC
 40
1.0
  9
$DIMTOFL
 70
     0
  9
$DIMTVP
 40
0.0
  9
$DIMTIX
 70
     0
  9
$DIMSOXD
 70
     0
  9
$DIMSAH
 70
     0
  9
$DIMBLK1
  1

  9
$DIMBLK2
  1

  9
$DIMSTYLE
  2
*UNNAMED
  9
$DIMCLRD
 70
     0
  9
$DIMCLRE
 70
     0
  9
$DIMCLRT
 70
     0
  9
$DIMTFAC
 40
1.0
  9
$DIMGAP
 40
0.09
  9
$LUNITS
 70
     2
  9
$LUPREC
 70
     4
  9
$SKETCHINC
 40
0.1
  9
$FILLETRAD
 40
0.0
  9
$AUNITS
 70
     0
  9
$AUPREC
 70
     0
  9
$MENU
  1
acad
  9
$ELEVATION
 40
0.0
  9
$PELEVATION
 40
0.0
  9
$THICKNESS
 40
0.0
  9
$LIMCHECK
 70
     0
  9
$BLIPMODE
 70
     1
  9
$CHAMFERA
 40
0.0
  9
$CHAMFERB
 40
0.0
  9
$SKPOLY
 70
     0
  9
$TDCREATE
 40
2448820.932889386
  9
$TDUPDATE
 40
2449328.153998449
  9
$TDINDWG
 40
0.0053013889
  9
$TDUSRTIMER
 40
0.0053013889
  9
$USRTIMER
 70
     1
  9
$ANGBASE
 50
0.0
  9
$ANGDIR
 70
     0
  9
$PDMODE
 70
     0
  9
$PDSIZE
 40
0.0
  9
$PLINEWID
 40
0.0
  9
$COORDS
 70
     0
  9
$SPLFRAME
 70
     0
  9
$SPLINETYPE
 70
     6
  9
$SPLINESEGS
 70
     8
  9
$ATTDIA
 70
     0
  9
$ATTREQ
 70
     1
  9
$HANDLING
 70
     1
  9
$HANDSEED
  5
1CA
  9
$SURFTAB1
 70
     6
  9
$SURFTAB2
 70
     6
  9
$SURFTYPE
 70
     6
  9
$SURFU
 70
     6
  9
$SURFV
 70
     6
  9
$UCSNAME
  2

  9
$UCSORG
 10
0.0
 20
0.0
 30
0.0
  9
$UCSXDIR
 10
1.0
 20
0.0
 30
0.0
  9
$UCSYDIR
 10
0.0
 20
1.0
 30
0.0
  9
$PUCSNAME
  2

  9
$PUCSORG
 10
0.0
 20
0.0
 30
0.0
  9
$PUCSXDIR
 10
1.0
 20
0.0
 30
0.0
  9
$PUCSYDIR
 10
0.0
 20
1.0
 30
0.0
  9
$USERI1
 70
     0
  9
$USERI2
 70
     0
  9
$USERI3
 70
     0
  9
$USERI4
 70
     0
  9
$USERI5
 70
     0
  9
$USERR1
 40
0.0
  9
$USERR2
 40
0.0
  9
$USERR3
 40
0.0
  9
$USERR4
 40
0.0
  9
$USERR5
 40
0.0
  9
$WORLDVIEW
 70
     1
  9
$SHADEDGE
 70
     3
  9
$SHADEDIF
 70
    70
  9
$TILEMODE
 70
     1
  9
$MAXACTVP
 70
    16
  9
$PINSBASE
 10
0.0
 20
0.0
 30
0.0
  9
$PLIMCHECK
 70
     0
  9
$PEXTMIN
 10
1.000000E+20
 20
1.000000E+20
 30
1.000000E+20
  9
$PEXTMAX
 10
-1.000000E+20
 20
-1.000000E+20
 30
-1.000000E+20
  9
$PLIMMIN
 10
0.0
 20
0.0
  9
$PLIMMAX
 10
12.0
 20
9.0
  9
$UNITMODE
 70
     0
  9
$VISRETAIN
 70
     0
  9
$PLINEGEN
 70
     0
  9
$PSLTSCALE
 70
     0
  9
$TREEDEPTH
 70
  3020
  9
$DWGCODEPAGE
  3
undefined
  0
ENDSEC
  0
SECTION
  2
TABLES
  0
TABLE
  2
VPORT
 70
     2
  0
VPORT
  2
*ACTIVE
 70
     0
 10
0.0
 20
0.0
 11
1.0
 21
1.0
 12
-2.651602
 22
2.727787
 13
0.0
 23
0.0
 14
1.0
 24
1.0
 15
0.0
 25
0.0
 16
0.2
 26
1.0
 36
0.2
 17
0.0
 27
0.0
 37
0.0
 40
8.619285
 41
1.594883
 42
50.0
 43
0.0
 44
0.0
 50
0.0
 51
0.0
 71
     0
 72
   100
 73
     1
 74
     1
 75
     0
 76
     0
 77
     0
 78
     0
  0
ENDTAB
  0
TABLE
  2
LTYPE
 70
     1
  0
LTYPE
  2
CONTINUOUS
 70
    64
  3
Solid line
 72
    65
 73
     0
 40
0.0
  0
ENDTAB
  0
TABLE
  2
LAYER
 70
     2
  0
LAYER
  2
0
 70
    64
 62
     7
  6
CONTINUOUS
  0
LAYER
  2
AME_FRZ
 70
    65
 62
     7
  6
CONTINUOUS
  0
ENDTAB
  0
TABLE
  2
STYLE
 70
     1
  0
STYLE
  2
STANDARD
 70
     0
 40
0.0
 41
1.0
 50
0.0
 71
     0
 42
0.2
  3
txt
  4

  0
ENDTAB
  0
TABLE
  2
VIEW
 70
     0
  0
ENDTAB
  0
TABLE
  2
UCS
 70
     0
  0
ENDTAB
  0
TABLE
  2
APPID
 70
     2
  0
APPID
  2
ACAD
 70
    64
  0
APPID
  2
AME_SOL
 70
    64
  0
ENDTAB
  0
TABLE
  2
DIMSTYLE
 70
     0
  0
ENDTAB
  0
ENDSEC
  0
SECTION
  2
BLOCKS
  0
BLOCK
  8
0
  5
31
  2
AME_NIL
 70
    64
 10
0.0
 20
0.0
 30
0.0
  1
AME_NIL
  3
AME_NIL
  0
ENDBLK
  8
0
  5
32
  0
BLOCK
  8
0
  5
34
  2
AME_SOL
 70
    64
 10
0.0
 20
0.0
 30
0.0
  1
AME_SOL
  3
AME_SOL
  0
ENDBLK
  8
0
  5
35
  0
BLOCK
  8
0
  5
37
  2
*U2
 70
    65
 10
0.0
 20
0.0
 30
0.0
  1
*U
  3
*U
  0
LINE
  8
0
 62
     0
  5
38
 10
5.0
 20
1.0
 30
0.0
 11
5.0
 21
1.0
 31
5.0
1001
AME_SOL
1070
     1
1071
       18
  0
LINE
  8
0
 62
     0
  5
39
 10
5.0
 20
1.0
 30
5.0
 11
5.0
 21
0.0
 31
5.0
1001
AME_SOL
1070
     1
1071
       17
  0
LINE
  8
0
 62
     0
  5
3A
 10
0.0
 20
1.0
 30
5.0
 11
5.0
 21
1.0
 31
5.0
1001
AME_SOL
1070
     1
1071
       16
  0
LINE
  8
0
 62
     0
  5
3B
 10
0.0
 20
1.0
 30
0.0
 11
0.0
 21
1.0
 31
5.0
1001
AME_SOL
1070
     1
1071
       15
  0
LINE
  8
0
 62
     0
  5
3C
 10
0.0
 20
1.0
 30
5.0
 11
0.0
 21
0.0
 31
5.0
1001
AME_SOL
1070
     1
1071
       14
  0
LINE
  8
0
 62
     0
  5
3D
 10
0.0
 20
0.0
 30
0.0
 11
0.0
 21
0.0
 31
5.0
1001
AME_SOL
1070
     1
1071
       13
  0
LINE
  8
0
 62
     0
  5
3E
 10
5.0
 20
0.0
 30
5.0
 11
5.0
 21
0.0
 31
0.0
1001
AME_SOL
1070
     1
1071
       12
  0
LINE
  8
0
 62
     0
  5
3F
 10
0.0
 20
0.0
 30
5.0
 11
5.0
 21
0.0
 31
5.0
1001
AME_SOL
1070
     1
1071
       11
  0
LINE
  8
0
 62
     0
  5
40
 10
0.0
 20
0.0
 30
0.0
 11
5.0
 21
0.0
 31
0.0
1001
AME_SOL
1070
     1
1071
       10
  0
LINE
  8
0
 62
     0
  5
41
 10
0.0
 20
1.0
 30
0.0
 11
0.0
 21
0.0
 31
0.0
1001
AME_SOL
1070
     1
1071
        9
  0
LINE
  8
0
 62
     0
  5
42
 10
5.0
 20
0.0
 30
0.0
 11
5.0
 21
1.0
 31
0.0
1001
AME_SOL
1070
     1
1071
        8
  0
LINE
  8
0
 62
     0
  5
43
 10
5.0
 20
1.0
 30
0.0
 11
0.0
 21
1.0
 31
0.0
1001
AME_SOL
1070
     1
1071
        7
  0
ENDBLK
  8
0
  5
44
  0
BLOCK
  8
0
  5
48
  2
*U3
 70
    65
 10
0.0
 20
0.0
 30
0.0
  1
*U
  3
*U
  0
LINE
  8
0
 62
     0
  5
49
 10
4.0
 20
1.0
 30
0.0
 11
4.0
 21
1.0
 31
3.0
1001
AME_SOL
1070
     1
1071
       18
  0
LINE
  8
0
 62
     0
  5
4A
 10
4.0
 20
1.0
 30
3.0
 11
4.0
 21
0.0
 31
3.0
1001
AME_SOL
1070
     1
1071
       17
  0
LINE
  8
0
 62
     0
  5
4B
 10
0.0
 20
1.0
 30
3.0
 11
4.0
 21
1.0
 31
3.0
1001
AME_SOL
1070
     1
1071
       16
  0
LINE
  8
0
 62
     0
  5
4C
 10
0.0
 20
1.0
 30
0.0
 11
0.0
 21
1.0
 31
3.0
1001
AME_SOL
1070
     1
1071
       15
  0
LINE
  8
0
 62
     0
  5
4D
 10
0.0
 20
1.0
 30
3.0
 11
0.0
 21
0.0
 31
3.0
1001
AME_SOL
1070
     1
1071
       14
  0
LINE
  8
0
 62
     0
  5
4E
 10
0.0
 20
0.0
 30
0.0
 11
0.0
 21
0.0
 31
3.0
1001
AME_SOL
1070
     1
1071
       13
  0
LINE
  8
0
 62
     0
  5
4F
 10
4.0
 20
0.0
 30
3.0
 11
4.0
 21
0.0
 31
0.0
1001
AME_SOL
1070
     1
1071
       12
  0
LINE
  8
0
 62
     0
  5
50
 10
0.0
 20
0.0
 30
3.0
 11
4.0
 21
0.0
 31
3.0
1001
AME_SOL
1070
     1
1071
       11
  0
LINE
  8
0
 62
     0
  5
51
 10
0.0
 20
0.0
 30
0.0
 11
4.0
 21
0.0
 31
0.0
1001
AME_SOL
1070
     1
1071
       10
  0
LINE
  8
0
 62
     0
  5
52
 10
0.0
 20
1.0
 30
0.0
 11
0.0
 21
0.0
 31
0.0
1001
AME_SOL
1070
     1
1071
        9
  0
LINE
  8
0
 62
     0
  5
53
 10
4.0
 20
0.0
 30
0.0
 11
4.0
 21
1.0
 31
0.0
1001
AME_SOL
1070
     1
1071
        8
  0
LINE
  8
0
 62
     0
  5
54
 10
4.0
 20
1.0
 30
0.0
 11
0.0
 21
1.0
 31
0.0
1001
AME_SOL
1070
     1
1071
        7
  0
ENDBLK
  8
0
  5
55
  0
BLOCK
  8
0
  5
5A
  2
*U4
 70
    65
 10
0.0
 20
0.0
 30
0.0
  1
*U
  3
*U
  0
LINE
  8
0
 62
     7
  5
5B
 10
5.0
 20
1.0
 30
0.0
 11
5.0
 21
1.0
 31
5.0
1001
AME_SOL
1070
     1
1071
       33
  0
LINE
  8
0
 62
     7
  5
5C
 10
5.0
 20
1.0
 30
5.0
 11
5.0
 21
0.0
 31
5.0
1001
AME_SOL
1070
     1
1071
       32
  0
LINE
  8
0
 62
     7
  5
5D
 10
0.0
 20
1.0
 30
5.0
 11
5.0
 21
1.0
 31
5.0
1001
AME_SOL
1070
     1
1071
       31
  0
LINE
  8
0
 62
     7
  5
5E
 10
0.0
 20
1.0
 30
4.0
 11
0.0
 21
1.0
 31
5.0
1001
AME_SOL
1070
     1
1071
       30
  0
LINE
  8
0
 62
     7
  5
5F
 10
0.0
 20
1.0
 30
0.0
 11
0.0
 21
1.0
 31
1.0
1001
AME_SOL
1070
     1
1071
       29
  0
LINE
  8
0
 62
     7
  5
60
 10
0.0
 20
1.0
 30
5.0
 11
0.0
 21
0.0
 31
5.0
1001
AME_SOL
1070
     1
1071
       28
  0
LINE
  8
0
 62
     7
  5
61
 10
0.0
 20
0.0
 30
4.0
 11
0.0
 21
0.0
 31
5.0
1001
AME_SOL
1070
     1
1071
       27
  0
LINE
  8
0
 62
     7
  5
62
 10
0.0
 20
0.0
 30
0.0
 11
0.0
 21
0.0
 31
1.0
1001
AME_SOL
1070
     1
1071
       26
  0
LINE
  8
0
 62
     7
  5
63
 10
5.0
 20
0.0
 30
5.0
 11
5.0
 21
0.0
 31
0.0
1001
AME_SOL
1070
     1
1071
       25
  0
LINE
  8
0
 62
     7
  5
64
 10
0.0
 20
0.0
 30
5.0
 11
5.0
 21
0.0
 31
5.0
1001
AME_SOL
1070
     1
1071
       24
  0
LINE
  8
0
 62
     7
  5
65
 10
0.0
 20
0.0
 30
0.0
 11
5.0
 21
0.0
 31
0.0
1001
AME_SOL
1070
     1
1071
       23
  0
LINE
  8
0
 62
     7
  5
66
 10
0.0
 20
1.0
 30
0.0
 11
0.0
 21
0.0
 31
0.0
1001
AME_SOL
1070
     1
1071
       22
  0
LINE
  8
0
 62
     7
  5
67
 10
5.0
 20
0.0
 30
0.0
 11
5.0
 21
1.0
 31
0.0
1001
AME_SOL
1070
     1
1071
       21
  0
LINE
  8
0
 62
     7
  5
68
 10
5.0
 20
1.0
 30
0.0
 11
0.0
 21
1.0
 31
0.0
1001
AME_SOL
1070
     1
1071
       20
  0
LINE
  8
0
 62
     7
  5
69
 10
4.0
 20
0.0
 30
1.0
 11
4.0
 21
0.0
 31
4.0
1001
AME_SOL
1070
     1
1071
       19
  0
LINE
  8
0
 62
     7
  5
6A
 10
4.0
 20
1.0
 30
4.0
 11
4.0
 21
1.0
 31
1.0
1001
AME_SOL
1070
     1
1071
       18
  0
LINE
  8
0
 62
     7
  5
6B
 10
4.0
 20
0.0
 30
4.0
 11
0.0
 21
0.0
 31
4.0
1001
AME_SOL
1070
     1
1071
       17
  0
LINE
  8
0
 62
     7
  5
6C
 10
0.0
 20
0.0
 30
4.0
 11
0.0
 21
1.0
 31
4.0
1001
AME_SOL
1070
     1
1071
       16
  0
LINE
  8
0
 62
     7
  5
6D
 10
0.0
 20
1.0
 30
4.0
 11
4.0
 21
1.0
 31
4.0
1001
AME_SOL
1070
     1
1071
       15
  0
LINE
  8
0
 62
     7
  5
6E
 10
4.0
 20
1.0
 30
4.0
 11
4.0
 21
0.0
 31
4.0
1001
AME_SOL
1070
     1
1071
       14
  0
LINE
  8
0
 62
     7
  5
6F
 10
0.0
 20
0.0
 30
1.0
 11
4.0
 21
0.0
 31
1.0
1001
AME_SOL
1070
     1
1071
       13
  0
LINE
  8
0
 62
     7
  5
70
 10
0.0
 20
1.0
 30
1.0
 11
0.0
 21
0.0
 31
1.0
1001
AME_SOL
1070
     1
1071
       12
  0
LINE
  8
0
 62
     7
  5
71
 10
4.0
 20
1.0
 30
1.0
 11
0.0
 21
1.0
 31
1.0
1001
AME_SOL
1070
     1
1071
       11
  0
LINE
  8
0
 62
     7
  5
72
 10
4.0
 20
0.0
 30
1.0
 11
4.0
 21
1.0
 31
1.0
1001
AME_SOL
1070
     1
1071
       10
  0
ENDBLK
  8
0
  5
73
  0
BLOCK
  8
0
  5
77
  2
*U5
 70
    65
 10
0.0
 20
0.0
 30
0.0
  1
*U
  3
*U
  0
LINE
  8
0
 62
     0
  5
78
 10
1.0
 20
1.0
 30
0.0
 11
1.0
 21
1.0
 31
1.0
1001
AME_SOL
1070
     1
1071
       18
  0
LINE
  8
0
 62
     0
  5
79
 10
1.0
 20
1.0
 30
1.0
 11
1.0
 21
0.0
 31
1.0
1001
AME_SOL
1070
     1
1071
       17
  0
LINE
  8
0
 62
     0
  5
7A
 10
0.0
 20
1.0
 30
1.0
 11
1.0
 21
1.0
 31
1.0
1001
AME_SOL
1070
     1
1071
       16
  0
LINE
  8
0
 62
     0
  5
7B
 10
0.0
 20
1.0
 30
0.0
 11
0.0
 21
1.0
 31
1.0
1001
AME_SOL
1070
     1
1071
       15
  0
LINE
  8
0
 62
     0
  5
7C
 10
0.0
 20
1.0
 30
1.0
 11
0.0
 21
0.0
 31
1.0
1001
AME_SOL
1070
     1
1071
       14
  0
LINE
  8
0
 62
     0
  5
7D
 10
0.0
 20
0.0
 30
0.0
 11
0.0
 21
0.0
 31
1.0
1001
AME_SOL
1070
     1
1071
       13
  0
LINE
  8
0
 62
     0
  5
7E
 10
1.0
 20
0.0
 30
1.0
 11
1.0
 21
0.0
 31
0.0
1001
AME_SOL
1070
     1
1071
       12
  0
LINE
  8
0
 62
     0
  5
7F
 10
0.0
 20
0.0
 30
1.0
 11
1.0
 21
0.0
 31
1.0
1001
AME_SOL
1070
     1
1071
       11
  0
LINE
  8
0
 62
     0
  5
80
 10
0.0
 20
0.0
 30
0.0
 11
1.0
 21
0.0
 31
0.0
1001
AME_SOL
1070
     1
1071
       10
  0
LINE
  8
0
 62
     0
  5
81
 10
0.0
 20
1.0
 30
0.0
 11
0.0
 21
0.0
 31
0.0
1001
AME_SOL
1070
     1
1071
        9
  0
LINE
  8
0
 62
     0
  5
82
 10
1.0
 20
0.0
 30
0.0
 11
1.0
 21
1.0
 31
0.0
1001
AME_SOL
1070
     1
1071
        8
  0
LINE
  8
0
 62
     0
  5
83
 10
1.0
 20
1.0
 30
0.0
 11
0.0
 21
1.0
 31
0.0
1001
AME_SOL
1070
     1
1071
        7
  0
ENDBLK
  8
0
  5
84
  0
BLOCK
  8
0
  5
89
  2
*U6
 70
    65
 10
0.0
 20
0.0
 30
0.0
  1
*U
  3
*U
  0
LINE
  8
0
 62
     7
  5
8A
 10
5.0
 20
1.0
 30
0.0
 11
5.0
 21
1.0
 31
5.0
1001
AME_SOL
1070
     1
1071
       34
  0
LINE
  8
0
 62
     7
  5
8B
 10
5.0
 20
1.0
 30
5.0
 11
5.0
 21
0.0
 31
5.0
1001
AME_SOL
1070
     1
1071
       33
  0
LINE
  8
0
 62
     7
  5
8C
 10
0.0
 20
1.0
 30
5.0
 11
5.0
 21
1.0
 31
5.0
1001
AME_SOL
1070
     1
1071
       32
  0
LINE
  8
0
 62
     7
  5
8D
 10
0.0
 20
1.0
 30
4.0
 11
0.0
 21
1.0
 31
5.0
1001
AME_SOL
1070
     1
1071
       31
  0
LINE
  8
0
 62
     7
  5
8E
 10
0.0
 20
1.0
 30
5.0
 11
0.0
 21
0.0
 31
5.0
1001
AME_SOL
1070
     1
1071
       30
  0
LINE
  8
0
 62
     7
  5
8F
 10
0.0
 20
0.0
 30
4.0
 11
0.0
 21
0.0
 31
5.0
1001
AME_SOL
1070
     1
1071
       29
  0
LINE
  8
0
 62
     7
  5
90
 10
5.0
 20
0.0
 30
5.0
 11
5.0
 21
0.0
 31
0.0
1001
AME_SOL
1070
     1
1071
       28
  0
LINE
  8
0
 62
     7
  5
91
 10
0.0
 20
0.0
 30
5.0
 11
5.0
 21
0.0
 31
5.0
1001
AME_SOL
1070
     1
1071
       27
  0
LINE
  8
0
 62
     7
  5
92
 10
1.0
 20
0.0
 30
0.0
 11
5.0
 21
0.0
 31
0.0
1001
AME_SOL
1070
     1
1071
       26
  0
LINE
  8
0
 62
     7
  5
93
 10
5.0
 20
0.0
 30
0.0
 11
5.0
 21
1.0
 31
0.0
1001
AME_SOL
1070
     1
1071
       25
  0
LINE
  8
0
 62
     7
  5
94
 10
5.0
 20
1.0
 30
0.0
 11
1.0
 21
1.0
 31
0.0
1001
AME_SOL
1070
     1
1071
       24
  0
LINE
  8
0
 62
     7
  5
95
 10
4.0
 20
0.0
 30
1.0
 11
4.0
 21
0.0
 31
4.0
1001
AME_SOL
1070
     1
1071
       23
  0
LINE
  8
0
 62
     7
  5
96
 10
4.0
 20
1.0
 30
4.0
 11
4.0
 21
1.0
 31
1.0
1001
AME_SOL
1070
     1
1071
       22
  0
LINE
  8
0
 62
     7
  5
97
 10
4.0
 20
0.0
 30
4.0
 11
0.0
 21
0.0
 31
4.0
1001
AME_SOL
1070
     1
1071
       21
  0
LINE
  8
0
 62
     7
  5
98
 10
0.0
 20
0.0
 30
4.0
 11
0.0
 21
1.0
 31
4.0
1001
AME_SOL
1070
     1
1071
       20
  0
LINE
  8
0
 62
     7
  5
99
 10
0.0
 20
1.0
 30
4.0
 11
4.0
 21
1.0
 31
4.0
1001
AME_SOL
1070
     1
1071
       19
  0
LINE
  8
0
 62
     7
  5
9A
 10
4.0
 20
1.0
 30
4.0
 11
4.0
 21
0.0
 31
4.0
1001
AME_SOL
1070
     1
1071
       18
  0
LINE
  8
0
 62
     7
  5
9B
 10
1.0
 20
0.0
 30
1.0
 11
4.0
 21
0.0
 31
1.0
1001
AME_SOL
1070
     1
1071
       17
  0
LINE
  8
0
 62
     7
  5
9C
 10
4.0
 20
1.0
 30
1.0
 11
1.0
 21
1.0
 31
1.0
1001
AME_SOL
1070
     1
1071
       16
  0
LINE
  8
0
 62
     7
  5
9D
 10
4.0
 20
0.0
 30
1.0
 11
4.0
 21
1.0
 31
1.0
1001
AME_SOL
1070
     1
1071
       15
  0
LINE
  8
0
 62
     7
  5
9E
 10
1.0
 20
0.0
 30
0.0
 11
1.0
 21
0.0
 31
1.0
1001
AME_SOL
1070
     1
1071
       14
  0
LINE
  8
0
 62
     7
  5
9F
 10
1.0
 20
1.0
 30
1.0
 11
1.0
 21
1.0
 31
0.0
1001
AME_SOL
1070
     1
1071
       13
  0
LINE
  8
0
 62
     7
  5
A0
 10
1.0
 20
1.0
 30
0.0
 11
1.0
 21
0.0
 31
0.0
1001
AME_SOL
1070
     1
1071
       12
  0
LINE
  8
0
 62
     7
  5
A1
 10
1.0
 20
1.0
 30
1.0
 11
1.0
 21
0.0
 31
1.0
1001
AME_SOL
1070
     1
1071
       11
  0
ENDBLK
  8
0
  5
A2
  0
BLOCK
  8
0
  5
A6
  2
*U7
 70
    65
 10
0.0
 20
0.0
 30
0.0
  1
*U
  3
*U
  0
LINE
  8
0
 62
     0
  5
A7
 10
3.0
 20
2.0
 30
0.0
 11
3.0
 21
2.0
 31
2.0
1001
AME_SOL
1070
     1
1071
       18
  0
LINE
  8
0
 62
     0
  5
A8
 10
3.0
 20
2.0
 30
2.0
 11
3.0
 21
0.0
 31
2.0
1001
AME_SOL
1070
     1
1071
       17
  0
LINE
  8
0
 62
     0
  5
A9
 10
0.0
 20
2.0
 30
2.0
 11
3.0
 21
2.0
 31
2.0
1001
AME_SOL
1070
     1
1071
       16
  0
LINE
  8
0
 62
     0
  5
AA
 10
0.0
 20
2.0
 30
0.0
 11
0.0
 21
2.0
 31
2.0
1001
AME_SOL
1070
     1
1071
       15
  0
LINE
  8
0
 62
     0
  5
AB
 10
0.0
 20
2.0
 30
2.0
 11
0.0
 21
0.0
 31
2.0
1001
AME_SOL
1070
     1
1071
       14
  0
LINE
  8
0
 62
     0
  5
AC
 10
0.0
 20
0.0
 30
0.0
 11
0.0
 21
0.0
 31
2.0
1001
AME_SOL
1070
     1
1071
       13
  0
LINE
  8
0
 62
     0
  5
AD
 10
3.0
 20
0.0
 30
2.0
 11
3.0
 21
0.0
 31
0.0
1001
AME_SOL
1070
     1
1071
       12
  0
LINE
  8
0
 62
     0
  5
AE
 10
0.0
 20
0.0
 30
2.0
 11
3.0
 21
0.0
 31
2.0
1001
AME_SOL
1070
     1
1071
       11
  0
LINE
  8
0
 62
     0
  5
AF
 10
0.0
 20
0.0
 30
0.0
 11
3.0
 21
0.0
 31
0.0
1001
AME_SOL
1070
     1
1071
       10
  0
LINE
  8
0
 62
     0
  5
B0
 10
0.0
 20
2.0
 30
0.0
 11
0.0
 21
0.0
 31
0.0
1001
AME_SOL
1070
     1
1071
        9
  0
LINE
  8
0
 62
     0
  5
B1
 10
3.0
 20
0.0
 30
0.0
 11
3.0
 21
2.0
 31
0.0
1001
AME_SOL
1070
     1
1071
        8
  0
LINE
  8
0
 62
     0
  5
B2
 10
3.0
 20
2.0
 30
0.0
 11
0.0
 21
2.0
 31
0.0
1001
AME_SOL
1070
     1
1071
        7
  0
ENDBLK
  8
0
  5
B3
  0
BLOCK
  8
0
  5
B8
  2
*U8
 70
    65
 10
0.0
 20
0.0
 30
0.0
  1
*U
  3
*U
  0
LINE
  8
0
 62
     7
  5
B9
 10
5.0
 20
1.0
 30
0.0
 11
5.0
 21
1.0
 31
5.0
1001
AME_SOL
1070
     1
1071
       49
  0
LINE
  8
0
 62
     7
  5
BA
 10
5.0
 20
1.0
 30
5.0
 11
5.0
 21
0.0
 31
5.0
1001
AME_SOL
1070
     1
1071
       48
  0
LINE
  8
0
 62
     7
  5
BB
 10
0.0
 20
1.0
 30
5.0
 11
5.0
 21
1.0
 31
5.0
1001
AME_SOL
1070
     1
1071
       47
  0
LINE
  8
0
 62
     7
  5
BC
 10
0.0
 20
1.0
 30
4.0
 11
0.0
 21
1.0
 31
5.0
1001
AME_SOL
1070
     1
1071
       46
  0
LINE
  8
0
 62
     7
  5
BD
 10
0.0
 20
1.0
 30
5.0
 11
0.0
 21
0.0
 31
5.0
1001
AME_SOL
1070
     1
1071
       45
  0
LINE
  8
0
 62
     7
  5
BE
 10
0.0
 20
0.0
 30
2.0
 11
0.0
 21
0.0
 31
5.0
1001
AME_SOL
1070
     1
1071
       44
  0
LINE
  8
0
 62
     7
  5
BF
 10
5.0
 20
0.0
 30
5.0
 11
5.0
 21
0.0
 31
0.0
1001
AME_SOL
1070
     1
1071
       43
  0
LINE
  8
0
 62
     7
  5
C0
 10
0.0
 20
0.0
 30
5.0
 11
5.0
 21
0.0
 31
5.0
1001
AME_SOL
1070
     1
1071
       42
  0
LINE
  8
0
 62
     7
  5
C1
 10
1.0
 20
0.0
 30
0.0
 11
5.0
 21
0.0
 31
0.0
1001
AME_SOL
1070
     1
1071
       41
  0
LINE
  8
0
 62
     7
  5
C2
 10
5.0
 20
0.0
 30
0.0
 11
5.0
 21
1.0
 31
0.0
1001
AME_SOL
1070
     1
1071
       40
  0
LINE
  8
0
 62
     7
  5
C3
 10
5.0
 20
1.0
 30
0.0
 11
1.0
 21
1.0
 31
0.0
1001
AME_SOL
1070
     1
1071
       39
  0
LINE
  8
0
 62
     7
  5
C4
 10
4.0
 20
0.0
 30
1.0
 11
4.0
 21
0.0
 31
4.0
1001
AME_SOL
1070
     1
1071
       38
  0
LINE
  8
0
 62
     7
  5
C5
 10
4.0
 20
1.0
 30
4.0
 11
4.0
 21
1.0
 31
1.0
1001
AME_SOL
1070
     1
1071
       37
  0
LINE
  8
0
 62
     7
  5
C6
 10
4.0
 20
0.0
 30
4.0
 11
3.0
 21
0.0
 31
4.0
1001
AME_SOL
1070
     1
1071
       36
  0
LINE
  8
0
 62
     7
  5
C7
 10
3.0
 20
1.0
 30
4.0
 11
4.0
 21
1.0
 31
4.0
1001
AME_SOL
1070
     1
1071
       35
  0
LINE
  8
0
 62
     7
  5
C8
 10
4.0
 20
1.0
 30
4.0
 11
4.0
 21
0.0
 31
4.0
1001
AME_SOL
1070
     1
1071
       34
  0
LINE
  8
0
 62
     7
  5
C9
 10
1.0
 20
0.0
 30
1.0
 11
4.0
 21
0.0
 31
1.0
1001
AME_SOL
1070
     1
1071
       33
  0
LINE
  8
0
 62
     7
  5
CA
 10
4.0
 20
1.0
 30
1.0
 11
1.0
 21
1.0
 31
1.0
1001
AME_SOL
1070
     1
1071
       32
  0
LINE
  8
0
 62
     7
  5
CB
 10
4.0
 20
0.0
 30
1.0
 11
4.0
 21
1.0
 31
1.0
1001
AME_SOL
1070
     1
1071
       31
  0
LINE
  8
0
 62
     7
  5
CC
 10
1.0
 20
0.0
 30
0.0
 11
1.0
 21
0.0
 31
1.0
1001
AME_SOL
1070
     1
1071
       30
  0
LINE
  8
0
 62
     7
  5
CD
 10
1.0
 20
1.0
 30
1.0
 11
1.0
 21
1.0
 31
0.0
1001
AME_SOL
1070
     1
1071
       29
  0
LINE
  8
0
 62
     7
  5
CE
 10
1.0
 20
1.0
 30
0.0
 11
1.0
 21
0.0
 31
0.0
1001
AME_SOL
1070
     1
1071
       28
  0
LINE
  8
0
 62
     7
  5
CF
 10
1.0
 20
1.0
 30
1.0
 11
1.0
 21
0.0
 31
1.0
1001
AME_SOL
1070
     1
1071
       27
  0
LINE
  8
0
 62
     7
  5
D0
 10
3.0
 20
0.0
 30
2.0
 11
3.0
 21
0.0
 31
4.0
1001
AME_SOL
1070
     1
1071
       26
  0
LINE
  8
0
 62
     7
  5
D1
 10
3.0
 20
0.0
 30
4.0
 11
3.0
 21
1.0
 31
4.0
1001
AME_SOL
1070
     1
1071
       25
  0
LINE
  8
0
 62
     7
  5
D2
 10
0.0
 20
2.0
 30
4.0
 11
0.0
 21
2.0
 31
2.0
1001
AME_SOL
1070
     1
1071
       24
  0
LINE
  8
0
 62
     7
  5
D3
 10
3.0
 20
2.0
 30
2.0
 11
3.0
 21
2.0
 31
4.0
1001
AME_SOL
1070
     1
1071
       23
  0
LINE
  8
0
 62
     7
  5
D4
 10
0.0
 20
1.0
 30
4.0
 11
0.0
 21
2.0
 31
4.0
1001
AME_SOL
1070
     1
1071
       22
  0
LINE
  8
0
 62
     7
  5
D5
 10
0.0
 20
1.0
 30
4.0
 11
3.0
 21
1.0
 31
4.0
1001
AME_SOL
1070
     1
1071
       21
  0
LINE
  8
0
 62
     7
  5
D6
 10
3.0
 20
2.0
 30
4.0
 11
3.0
 21
1.0
 31
4.0
1001
AME_SOL
1070
     1
1071
       20
  0
LINE
  8
0
 62
     7
  5
D7
 10
0.0
 20
2.0
 30
4.0
 11
3.0
 21
2.0
 31
4.0
1001
AME_SOL
1070
     1
1071
       19
  0
LINE
  8
0
 62
     7
  5
D8
 10
0.0
 20
0.0
 30
2.0
 11
3.0
 21
0.0
 31
2.0
1001
AME_SOL
1070
     1
1071
       18
  0
LINE
  8
0
 62
     7
  5
D9
 10
0.0
 20
2.0
 30
2.0
 11
0.0
 21
0.0
 31
2.0
1001
AME_SOL
1070
     1
1071
       17
  0
LINE
  8
0
 62
     7
  5
DA
 10
3.0
 20
0.0
 30
2.0
 11
3.0
 21
2.0
 31
2.0
1001
AME_SOL
1070
     1
1071
       16
  0
LINE
  8
0
 62
     7
  5
DB
 10
3.0
 20
2.0
 30
2.0
 11
0.0
 21
2.0
 31
2.0
1001
AME_SOL
1070
     1
1071
       15
  0
ENDBLK
  8
0
  5
DC
  0
BLOCK
  8
0
  5
E0
  2
*U9
 70
    65
 10
0.0
 20
0.0
 30
0.0
  1
*U
  3
*U
  0
LINE
  8
0
 62
     0
  5
E1
 10
1.0
 20
2.0
 30
0.0
 11
1.0
 21
2.0
 31
1.0
1001
AME_SOL
1070
     1
1071
       18
  0
LINE
  8
0
 62
     0
  5
E2
 10
1.0
 20
2.0
 30
1.0
 11
1.0
 21
0.0
 31
1.0
1001
AME_SOL
1070
     1
1071
       17
  0
LINE
  8
0
 62
     0
  5
E3
 10
0.0
 20
2.0
 30
1.0
 11
1.0
 21
2.0
 31
1.0
1001
AME_SOL
1070
     1
1071
       16
  0
LINE
  8
0
 62
     0
  5
E4
 10
0.0
 20
2.0
 30
0.0
 11
0.0
 21
2.0
 31
1.0
1001
AME_SOL
1070
     1
1071
       15
  0
LINE
  8
0
 62
     0
  5
E5
 10
0.0
 20
2.0
 30
1.0
 11
0.0
 21
0.0
 31
1.0
1001
AME_SOL
1070
     1
1071
       14
  0
LINE
  8
0
 62
     0
  5
E6
 10
0.0
 20
0.0
 30
0.0
 11
0.0
 21
0.0
 31
1.0
1001
AME_SOL
1070
     1
1071
       13
  0
LINE
  8
0
 62
     0
  5
E7
 10
1.0
 20
0.0
 30
1.0
 11
1.0
 21
0.0
 31
0.0
1001
AME_SOL
1070
     1
1071
       12
  0
LINE
  8
0
 62
     0
  5
E8
 10
0.0
 20
0.0
 30
1.0
 11
1.0
 21
0.0
 31
1.0
1001
AME_SOL
1070
     1
1071
       11
  0
LINE
  8
0
 62
     0
  5
E9
 10
0.0
 20
0.0
 30
0.0
 11
1.0
 21
0.0
 31
0.0
1001
AME_SOL
1070
     1
1071
       10
  0
LINE
  8
0
 62
     0
  5
EA
 10
0.0
 20
2.0
 30
0.0
 11
0.0
 21
0.0
 31
0.0
1001
AME_SOL
1070
     1
1071
        9
  0
LINE
  8
0
 62
     0
  5
EB
 10
1.0
 20
0.0
 30
0.0
 11
1.0
 21
2.0
 31
0.0
1001
AME_SOL
1070
     1
1071
        8
  0
LINE
  8
0
 62
     0
  5
EC
 10
1.0
 20
2.0
 30
0.0
 11
0.0
 21
2.0
 31
0.0
1001
AME_SOL
1070
     1
1071
        7
  0
ENDBLK
  8
0
  5
ED
  0
BLOCK
  8
0
  5
F2
  2
*U10
 70
    65
 10
0.0
 20
0.0
 30
0.0
  1
*U
  3
*U
  0
LINE
  8
0
 62
     7
  5
F3
 10
5.0
 20
1.0
 30
0.0
 11
5.0
 21
1.0
 31
5.0
1001
AME_SOL
1070
     1
1071
       57
  0
LINE
  8
0
 62
     7
  5
F4
 10
5.0
 20
1.0
 30
5.0
 11
5.0
 21
0.0
 31
5.0
1001
AME_SOL
1070
     1
1071
       56
  0
LINE
  8
0
 62
     7
  5
F5
 10
0.0
 20
1.0
 30
5.0
 11
5.0
 21
1.0
 31
5.0
1001
AME_SOL
1070
     1
1071
       55
  0
LINE
  8
0
 62
     7
  5
F6
 10
0.0
 20
1.0
 30
4.0
 11
0.0
 21
1.0
 31
5.0
1001
AME_SOL
1070
     1
1071
       54
  0
LINE
  8
0
 62
     7
  5
F7
 10
0.0
 20
1.0
 30
5.0
 11
0.0
 21
0.0
 31
5.0
1001
AME_SOL
1070
     1
1071
       53
  0
LINE
  8
0
 62
     7
  5
F8
 10
0.0
 20
0.0
 30
2.0
 11
0.0
 21
0.0
 31
5.0
1001
AME_SOL
1070
     1
1071
       52
  0
LINE
  8
0
 62
     7
  5
F9
 10
5.0
 20
0.0
 30
5.0
 11
5.0
 21
0.0
 31
0.0
1001
AME_SOL
1070
     1
1071
       51
  0
LINE
  8
0
 62
     7
  5
FA
 10
0.0
 20
0.0
 30
5.0
 11
5.0
 21
0.0
 31
5.0
1001
AME_SOL
1070
     1
1071
       50
  0
LINE
  8
0
 62
     7
  5
FB
 10
1.0
 20
0.0
 30
0.0
 11
5.0
 21
0.0
 31
0.0
1001
AME_SOL
1070
     1
1071
       49
  0
LINE
  8
0
 62
     7
  5
FC
 10
5.0
 20
0.0
 30
0.0
 11
5.0
 21
1.0
 31
0.0
1001
AME_SOL
1070
     1
1071
       48
  0
LINE
  8
0
 62
     7
  5
FD
 10
5.0
 20
1.0
 30
0.0
 11
1.0
 21
1.0
 31
0.0
1001
AME_SOL
1070
     1
1071
       47
  0
LINE
  8
0
 62
     7
  5
FE
 10
4.0
 20
0.0
 30
1.0
 11
4.0
 21
0.0
 31
4.0
1001
AME_SOL
1070
     1
1071
       46
  0
LINE
  8
0
 62
     7
  5
FF
 10
4.0
 20
1.0
 30
4.0
 11
4.0
 21
1.0
 31
1.0
1001
AME_SOL
1070
     1
1071
       45
  0
LINE
  8
0
 62
     7
  5
100
 10
4.0
 20
0.0
 30
4.0
 11
2.0
 21
0.0
 31
4.0
1001
AME_SOL
1070
     1
1071
       44
  0
LINE
  8
0
 62
     7
  5
101
 10
2.0
 20
1.0
 30
4.0
 11
4.0
 21
1.0
 31
4.0
1001
AME_SOL
1070
     1
1071
       43
  0
LINE
  8
0
 62
     7
  5
102
 10
4.0
 20
1.0
 30
4.0
 11
4.0
 21
0.0
 31
4.0
1001
AME_SOL
1070
     1
1071
       42
  0
LINE
  8
0
 62
     7
  5
103
 10
1.0
 20
0.0
 30
1.0
 11
4.0
 21
0.0
 31
1.0
1001
AME_SOL
1070
     1
1071
       41
  0
LINE
  8
0
 62
     7
  5
104
 10
4.0
 20
1.0
 30
1.0
 11
1.0
 21
1.0
 31
1.0
1001
AME_SOL
1070
     1
1071
       40
  0
LINE
  8
0
 62
     7
  5
105
 10
4.0
 20
0.0
 30
1.0
 11
4.0
 21
1.0
 31
1.0
1001
AME_SOL
1070
     1
1071
       39
  0
LINE
  8
0
 62
     7
  5
106
 10
1.0
 20
0.0
 30
0.0
 11
1.0
 21
0.0
 31
1.0
1001
AME_SOL
1070
     1
1071
       38
  0
LINE
  8
0
 62
     7
  5
107
 10
1.0
 20
1.0
 30
1.0
 11
1.0
 21
1.0
 31
0.0
1001
AME_SOL
1070
     1
1071
       37
  0
LINE
  8
0
 62
     7
  5
108
 10
1.0
 20
1.0
 30
0.0
 11
1.0
 21
0.0
 31
0.0
1001
AME_SOL
1070
     1
1071
       36
  0
LINE
  8
0
 62
     7
  5
109
 10
1.0
 20
1.0
 30
1.0
 11
1.0
 21
0.0
 31
1.0
1001
AME_SOL
1070
     1
1071
       35
  0
LINE
  8
0
 62
     7
  5
10A
 10
3.0
 20
0.0
 30
2.0
 11
3.0
 21
0.0
 31
3.0
1001
AME_SOL
1070
     1
1071
       34
  0
LINE
  8
0
 62
     7
  5
10B
 10
0.0
 20
2.0
 30
4.0
 11
0.0
 21
2.0
 31
2.0
1001
AME_SOL
1070
     1
1071
       33
  0
LINE
  8
0
 62
     7
  5
10C
 10
3.0
 20
2.0
 30
2.0
 11
3.0
 21
2.0
 31
3.0
1001
AME_SOL
1070
     1
1071
       32
  0
LINE
  8
0
 62
     7
  5
10D
 10
0.0
 20
1.0
 30
4.0
 11
2.0
 21
1.0
 31
4.0
1001
AME_SOL
1070
     1
1071
       31
  0
LINE
  8
0
 62
     7
  5
10E
 10
0.0
 20
1.0
 30
4.0
 11
0.0
 21
2.0
 31
4.0
1001
AME_SOL
1070
     1
1071
       30
  0
LINE
  8
0
 62
     7
  5
10F
 10
0.0
 20
2.0
 30
4.0
 11
2.0
 21
2.0
 31
4.0
1001
AME_SOL
1070
     1
1071
       29
  0
LINE
  8
0
 62
     7
  5
110
 10
0.0
 20
0.0
 30
2.0
 11
3.0
 21
0.0
 31
2.0
1001
AME_SOL
1070
     1
1071
       28
  0
LINE
  8
0
 62
     7
  5
111
 10
0.0
 20
2.0
 30
2.0
 11
0.0
 21
0.0
 31
2.0
1001
AME_SOL
1070
     1
1071
       27
  0
LINE
  8
0
 62
     7
  5
112
 10
3.0
 20
0.0
 30
2.0
 11
3.0
 21
2.0
 31
2.0
1001
AME_SOL
1070
     1
1071
       26
  0
LINE
  8
0
 62
     7
  5
113
 10
3.0
 20
2.0
 30
2.0
 11
0.0
 21
2.0
 31
2.0
1001
AME_SOL
1070
     1
1071
       25
  0
LINE
  8
0
 62
     7
  5
114
 10
2.0
 20
0.0
 30
4.0
 11
2.0
 21
0.0
 31
3.0
1001
AME_SOL
1070
     1
1071
       24
  0
LINE
  8
0
 62
     7
  5
115
 10
2.0
 20
2.0
 30
3.0
 11
2.0
 21
2.0
 31
4.0
1001
AME_SOL
1070
     1
1071
       23
  0
LINE
  8
0
 62
     7
  5
116
 10
2.0
 20
2.0
 30
4.0
 11
2.0
 21
1.0
 31
4.0
1001
AME_SOL
1070
     1
1071
       22
  0
LINE
  8
0
 62
     7
  5
117
 10
2.0
 20
1.0
 30
4.0
 11
2.0
 21
0.0
 31
4.0
1001
AME_SOL
1070
     1
1071
       21
  0
LINE
  8
0
 62
     7
  5
118
 10
2.0
 20
0.0
 30
3.0
 11
3.0
 21
0.0
 31
3.0
1001
AME_SOL
1070
     1
1071
       20
  0
LINE
  8
0
 62
     7
  5
119
 10
3.0
 20
0.0
 30
3.0
 11
3.0
 21
2.0
 31
3.0
1001
AME_SOL
1070
     1
1071
       19
  0
LINE
  8
0
 62
     7
  5
11A
 10
3.0
 20
2.0
 30
3.0
 11
2.0
 21
2.0
 31
3.0
1001
AME_SOL
1070
     1
1071
       18
  0
LINE
  8
0
 62
     7
  5
11B
 10
2.0
 20
2.0
 30
3.0
 11
2.0
 21
0.0
 31
3.0
1001
AME_SOL
1070
     1
1071
       17
  0
ENDBLK
  8
0
  5
11C
  0
BLOCK
  8
0
  5
120
  2
*U11
 70
    65
 10
0.0
 20
0.0
 30
0.0
  1
*U
  3
*U
  0
POLYLINE
  8
0
 62
     7
  5
121
 66
     1
 10
0.0
 20
0.0
 30
0.0
 70
    64
  0
VERTEX
  8
0
  5
122
 10
5.0
 20
1.0
 30
0.0
 70
   192
  0
VERTEX
  8
0
  5
123
 10
5.0
 20
1.0
 30
5.0
 70
   192
  0
VERTEX
  8
0
  5
124
 10
5.0
 20
0.0
 30
5.0
 70
   192
  0
VERTEX
  8
0
  5
125
 10
5.0
 20
0.0
 30
0.0
 70
   192
  0
VERTEX
  8
0
 62
     7
  5
126
 10
0.0
 20
0.0
 30
0.0
 70
   128
 71
     1
 72
     2
 73
    -3
  0
VERTEX
  8
0
 62
     7
  5
127
 10
0.0
 20
0.0
 30
0.0
 70
   128
 71
     3
 72
     4
 73
    -1
  0
SEQEND
  8
0
 62
     7
  5
128
  0
POLYLINE
  8
0
 62
     7
  5
129
 66
     1
 10
0.0
 20
0.0
 30
0.0
 70
    64
  0
VERTEX
  8
0
  5
12A
 10
4.0
 20
1.0
 30
1.0
 70
   192
  0
VERTEX
  8
0
  5
12B
 10
4.0
 20
1.0
 30
4.0
 70
   192
  0
VERTEX
  8
0
  5
12C
 10
5.0
 20
1.0
 30
0.0
 70
   192
  0
VERTEX
  8
0
  5
12D
 10
5.0
 20
1.0
 30
5.0
 70
   192
  0
VERTEX
  8
0
  5
12E
 10
2.0
 20
1.0
 30
4.0
 70
   192
  0
VERTEX
  8
0
  5
12F
 10
1.0
 20
1.0
 30
1.0
 70
   192
  0
VERTEX
  8
0
  5
130
 10
1.0
 20
1.0
 30
0.0
 70
   192
  0
VERTEX
  8
0
  5
131
 10
0.0
 20
1.0
 30
5.0
 70
   192
  0
VERTEX
  8
0
  5
132
 10
0.0
 20
1.0
 30
4.0
 70
   192
  0
VERTEX
  8
0
 62
     7
  5
133
 10
0.0
 20
0.0
 30
0.0
 70
   128
 71
     1
 72
    -2
 73
    -3
  0
VERTEX
  8
0
 62
     7
  5
134
 10
0.0
 20
0.0
 30
0.0
 70
   128
 71
    -2
 72
     4
 73
    -3
  0
VERTEX
  8
0
 62
     7
  5
135
 10
0.0
 20
0.0
 30
0.0
 70
   128
 71
     2
 72
    -5
 73
    -4
  0
VERTEX
  8
0
 62
     7
  5
136
 10
0.0
 20
0.0
 30
0.0
 70
   128
 71
    -3
 72
     6
 73
    -1
  0
VERTEX
  8
0
 62
     7
  5
137
 10
0.0
 20
0.0
 30
0.0
 70
   128
 71
     3
 72
     7
 73
    -6
  0
VERTEX
  8
0
 62
     7
  5
138
 10
0.0
 20
0.0
 30
0.0
 70
   128
 71
    -5
 72
     8
 73
    -4
  0
VERTEX
  8
0
 62
     7
  5
139
 10
0.0
 20
0.0
 30
0.0
 70
   128
 71
     5
 72
     9
 73
    -8
  0
SEQEND
  8
0
 62
     7
  5
13A
  0
POLYLINE
  8
0
 62
     7
  5
13B
 66
     1
 10
0.0
 20
0.0
 30
0.0
 70
    64
  0
VERTEX
  8
0
  5
13C
 10
5.0
 20
0.0
 30
5.0
 70
   192
  0
VERTEX
  8
0
  5
13D
 10
5.0
 20
1.0
 30
5.0
 70
   192
  0
VERTEX
  8
0
  5
13E
 10
0.0
 20
0.0
 30
5.0
 70
   192
  0
VERTEX
  8
0
  5
13F
 10
0.0
 20
1.0
 30
5.0
 70
   192
  0
VERTEX
  8
0
 62
     7
  5
140
 10
0.0
 20
0.0
 30
0.0
 70
   128
 71
     1
 72
    -2
 73
     3
  0
VERTEX
  8
0
 62
     7
  5
141
 10
0.0
 20
0.0
 30
0.0
 70
   128
 71
     2
 72
     4
 73
    -3
  0
SEQEND
  8
0
 62
     7
  5
142
  0
POLYLINE
  8
0
 62
     7
  5
143
 66
     1
 10
0.0
 20
0.0
 30
0.0
 70
    64
  0
VERTEX
  8
0
  5
144
 10
0.0
 20
0.0
 30
5.0
 70
   192
  0
VERTEX
  8
0
  5
145
 10
0.0
 20
1.0
 30
4.0
 70
   192
  0
VERTEX
  8
0
  5
146
 10
0.0
 20
2.0
 30
2.0
 70
   192
  0
VERTEX
  8
0
  5
147
 10
0.0
 20
1.0
 30
5.0
 70
   192
  0
VERTEX
  8
0
  5
148
 10
0.0
 20
0.0
 30
2.0
 70
   192
  0
VERTEX
  8
0
  5
149
 10
0.0
 20
2.0
 30
4.0
 70
   192
  0
VERTEX
  8
0
 62
     7
  5
14A
 10
0.0
 20
0.0
 30
0.0
 70
   128
 71
    -1
 72
    -2
 73
    -3
  0
VERTEX
  8
0
 62
     7
  5
14B
 10
0.0
 20
0.0
 30
0.0
 70
   128
 71
     1
 72
     4
 73
    -2
  0
VERTEX
  8
0
 62
     7
  5
14C
 10
0.0
 20
0.0
 30
0.0
 70
   128
 71
     3
 72
     5
 73
    -1
  0
VERTEX
  8
0
 62
     7
  5
14D
 10
0.0
 20
0.0
 30
0.0
 70
   128
 71
     2
 72
     6
 73
    -3
  0
SEQEND
  8
0
 62
     7
  5
14E
  0
POLYLINE
  8
0
 62
     7
  5
14F
 66
     1
 10
0.0
 20
0.0
 30
0.0
 70
    64
  0
VERTEX
  8
0
  5
150
 10
2.0
 20
0.0
 30
4.0
 70
   192
  0
VERTEX
  8
0
  5
151
 10
4.0
 20
0.0
 30
4.0
 70
   192
  0
VERTEX
  8
0
  5
152
 10
0.0
 20
0.0
 30
5.0
 70
   192
  0
VERTEX
  8
0
  5
153
 10
0.0
 20
0.0
 30
2.0
 70
   192
  0
VERTEX
  8
0
  5
154
 10
5.0
 20
0.0
 30
5.0
 70
   192
  0
VERTEX
  8
0
  5
155
 10
4.0
 20
0.0
 30
1.0
 70
   192
  0
VERTEX
  8
0
  5
156
 10
2.0
 20
0.0
 30
3.0
 70
   192
  0
VERTEX
  8
0
  5
157
 10
3.0
 20
0.0
 30
3.0
 70
   192
  0
VERTEX
  8
0
  5
158
 10
3.0
 20
0.0
 30
2.0
 70
   192
  0
VERTEX
  8
0
  5
159
 10
5.0
 20
0.0
 30
0.0
 70
   192
  0
VERTEX
  8
0
  5
15A
 10
1.0
 20
0.0
 30
0.0
 70
   192
  0
VERTEX
  8
0
  5
15B
 10
1.0
 20
0.0
 30
1.0
 70
   192
  0
VERTEX
  8
0
 62
     7
  5
15C
 10
0.0
 20
0.0
 30
0.0
 70
   128
 71
     1
 72
    -2
 73
    -3
  0
VERTEX
  8
0
 62
     7
  5
15D
 10
0.0
 20
0.0
 30
0.0
 70
   128
 71
     3
 72
    -4
 73
    -1
  0
VERTEX
  8
0
 62
     7
  5
15E
 10
0.0
 20
0.0
 30
0.0
 70
   128
 71
    -2
 72
     5
 73
    -3
  0
VERTEX
  8
0
 62
     7
  5
15F
 10
0.0
 20
0.0
 30
0.0
 70
   128
 71
     2
 72
    -6
 73
    -5
  0
VERTEX
  8
0
 62
     7
  5
160
 10
0.0
 20
0.0
 30
0.0
 70
   128
 71
    -4
 72
     7
 73
    -1
  0
VERTEX
  8
0
 62
     7
  5
161
 10
0.0
 20
0.0
 30
0.0
 70
   128
 71
    -4
 72
     8
 73
    -7
  0
VERTEX
  8
0
 62
     7
  5
162
 10
0.0
 20
0.0
 30
0.0
 70
   128
 71
     4
 72
     9
 73
    -8
  0
VERTEX
  8
0
 62
     7
  5
163
 10
0.0
 20
0.0
 30
0.0
 70
   128
 71
    -6
 72
    10
 73
    -5
  0
VERTEX
  8
0
 62
     7
  5
164
 10
0.0
 20
0.0
 30
0.0
 70
   128
 71
    -6
 72
    11
 73
   -10
  0
VERTEX
  8
0
 62
     7
  5
165
 10
0.0
 20
0.0
 30
0.0
 70
   128
 71
     6
 72
    12
 73
   -11
  0
SEQEND
  8
0
 62
     7
  5
166
  0
POLYLINE
  8
0
 62
     7
  5
167
 66
     1
 10
0.0
 20
0.0
 30
0.0
 70
    64
  0
VERTEX
  8
0
  5
168
 10
1.0
 20
1.0
 30
0.0
 70
   192
  0
VERTEX
  8
0
  5
169
 10
5.0
 20
0.0
 30
0.0
 70
   192
  0
VERTEX
  8
0
  5
16A
 10
1.0
 20
0.0
 30
0.0
 70
   192
  0
VERTEX
  8
0
  5
16B
 10
5.0
 20
1.0
 30
0.0
 70
   192
  0
VERTEX
  8
0
 62
     7
  5
16C
 10
0.0
 20
0.0
 30
0.0
 70
   128
 71
    -1
 72
     2
 73
     3
  0
VERTEX
  8
0
 62
     7
  5
16D
 10
0.0
 20
0.0
 30
0.0
 70
   128
 71
     1
 72
     4
 73
    -2
  0
SEQEND
  8
0
 62
     7
  5
16E
  0
POLYLINE
  8
0
 62
     7
  5
16F
 66
     1
 10
0.0
 20
0.0
 30
0.0
 70
    64
  0
VERTEX
  8
0
  5
170
 10
4.0
 20
1.0
 30
4.0
 70
   192
  0
VERTEX
  8
0
  5
171
 10
4.0
 20
0.0
 30
4.0
 70
   192
  0
VERTEX
  8
0
  5
172
 10
4.0
 20
0.0
 30
1.0
 70
   192
  0
VERTEX
  8
0
  5
173
 10
4.0
 20
1.0
 30
1.0
 70
   192
  0
VERTEX
  8
0
 62
     7
  5
174
 10
0.0
 20
0.0
 30
0.0
 70
   128
 71
    -1
 72
     3
 73
     2
  0
VERTEX
  8
0
 62
     7
  5
175
 10
0.0
 20
0.0
 30
0.0
 70
   128
 71
    -3
 72
     1
 73
     4
  0
SEQEND
  8
0
 62
     7
  5
176
  0
POLYLINE
  8
0
 62
     7
  5
177
 66
     1
 10
0.0
 20
0.0
 30
0.0
 70
    64
  0
VERTEX
  8
0
  5
178
 10
4.0
 20
1.0
 30
4.0
 70
   192
  0
VERTEX
  8
0
  5
179
 10
2.0
 20
1.0
 30
4.0
 70
   192
  0
VERTEX
  8
0
  5
17A
 10
2.0
 20
0.0
 30
4.0
 70
   192
  0
VERTEX
  8
0
  5
17B
 10
4.0
 20
0.0
 30
4.0
 70
   192
  0
VERTEX
  8
0
 62
     7
  5
17C
 10
0.0
 20
0.0
 30
0.0
 70
   128
 71
    -1
 72
     3
 73
     2
  0
VERTEX
  8
0
 62
     7
  5
17D
 10
0.0
 20
0.0
 30
0.0
 70
   128
 71
    -3
 72
     1
 73
     4
  0
SEQEND
  8
0
 62
     7
  5
17E
  0
POLYLINE
  8
0
 62
     7
  5
17F
 66
     1
 10
0.0
 20
0.0
 30
0.0
 70
    64
  0
VERTEX
  8
0
  5
180
 10
1.0
 20
1.0
 30
1.0
 70
   192
  0
VERTEX
  8
0
  5
181
 10
4.0
 20
1.0
 30
1.0
 70
   192
  0
VERTEX
  8
0
  5
182
 10
1.0
 20
0.0
 30
1.0
 70
   192
  0
VERTEX
  8
0
  5
183
 10
4.0
 20
0.0
 30
1.0
 70
   192
  0
VERTEX
  8
0
 62
     7
  5
184
 10
0.0
 20
0.0
 30
0.0
 70
   128
 71
     1
 72
    -3
 73
     2
  0
VERTEX
  8
0
 62
     7
  5
185
 10
0.0
 20
0.0
 30
0.0
 70
   128
 71
    -2
 72
     3
 73
     4
  0
SEQEND
  8
0
 62
     7
  5
186
  0
POLYLINE
  8
0
 62
     7
  5
187
 66
     1
 10
0.0
 20
0.0
 30
0.0
 70
    64
  0
VERTEX
  8
0
  5
188
 10
1.0
 20
1.0
 30
0.0
 70
   192
  0
VERTEX
  8
0
  5
189
 10
1.0
 20
0.0
 30
1.0
 70
   192
  0
VERTEX
  8
0
  5
18A
 10
1.0
 20
0.0
 30
0.0
 70
   192
  0
VERTEX
  8
0
  5
18B
 10
1.0
 20
1.0
 30
1.0
 70
   192
  0
VERTEX
  8
0
 62
     7
  5
18C
 10
0.0
 20
0.0
 30
0.0
 70
   128
 71
     1
 72
     3
 73
    -2
  0
VERTEX
  8
0
 62
     7
  5
18D
 10
0.0
 20
0.0
 30
0.0
 70
   128
 71
    -1
 72
     2
 73
     4
  0
SEQEND
  8
0
 62
     7
  5
18E
  0
POLYLINE
  8
0
 62
     7
  5
18F
 66
     1
 10
0.0
 20
0.0
 30
0.0
 70
    64
  0
VERTEX
  8
0
  5
190
 10
3.0
 20
0.0
 30
2.0
 70
   192
  0
VERTEX
  8
0
  5
191
 10
3.0
 20
2.0
 30
2.0
 70
   192
  0
VERTEX
  8
0
  5
192
 10
3.0
 20
2.0
 30
3.0
 70
   192
  0
VERTEX
  8
0
  5
193
 10
3.0
 20
0.0
 30
3.0
 70
   192
  0
VERTEX
  8
0
 62
     7
  5
194
 10
0.0
 20
0.0
 30
0.0
 70
   128
 71
     1
 72
     2
 73
    -3
  0
VERTEX
  8
0
 62
     7
  5
195
 10
0.0
 20
0.0
 30
0.0
 70
   128
 71
     3
 72
     4
 73
    -1
  0
SEQEND
  8
0
 62
     7
  5
196
  0
POLYLINE
  8
0
 62
     7
  5
197
 66
     1
 10
0.0
 20
0.0
 30
0.0
 70
    64
  0
VERTEX
  8
0
  5
198
 10
0.0
 20
2.0
 30
2.0
 70
   192
  0
VERTEX
  8
0
  5
199
 10
2.0
 20
2.0
 30
4.0
 70
   192
  0
VERTEX
  8
0
  5
19A
 10
2.0
 20
2.0
 30
3.0
 70
   192
  0
VERTEX
  8
0
  5
19B
 10
3.0
 20
2.0
 30
3.0
 70
   192
  0
VERTEX
  8
0
  5
19C
 10
0.0
 20
2.0
 30
4.0
 70
   192
  0
VERTEX
  8
0
  5
19D
 10
3.0
 20
2.0
 30
2.0
 70
   192
  0
VERTEX
  8
0
 62
     7
  5
19E
 10
0.0
 20
0.0
 30
0.0
 70
   128
 71
    -1
 72
     2
 73
    -3
  0
VERTEX
  8
0
 62
     7
  5
19F
 10
0.0
 20
0.0
 30
0.0
 70
   128
 71
     3
 72
    -4
 73
    -1
  0
VERTEX
  8
0
 62
     7
  5
1A0
 10
0.0
 20
0.0
 30
0.0
 70
   128
 71
     1
 72
     5
 73
    -2
  0
VERTEX
  8
0
 62
     7
  5
1A1
 10
0.0
 20
0.0
 30
0.0
 70
   128
 71
     4
 72
     6
 73
    -1
  0
SEQEND
  8
0
 62
     7
  5
1A2
  0
POLYLINE
  8
0
 62
     7
  5
1A3
 66
     1
 10
0.0
 20
0.0
 30
0.0
 70
    64
  0
VERTEX
  8
0
  5
1A4
 10
0.0
 20
2.0
 30
4.0
 70
   192
  0
VERTEX
  8
0
  5
1A5
 10
0.0
 20
1.0
 30
4.0
 70
   192
  0
VERTEX
  8
0
  5
1A6
 10
2.0
 20
1.0
 30
4.0
 70
   192
  0
VERTEX
  8
0
  5
1A7
 10
2.0
 20
2.0
 30
4.0
 70
   192
  0
VERTEX
  8
0
 62
     7
  5
1A8
 10
0.0
 20
0.0
 30
0.0
 70
   128
 71
     1
 72
     2
 73
    -3
  0
VERTEX
  8
0
 62
     7
  5
1A9
 10
0.0
 20
0.0
 30
0.0
 70
   128
 71
     3
 72
     4
 73
    -1
  0
SEQEND
  8
0
 62
     7
  5
1AA
  0
POLYLINE
  8
0
 62
     7
  5
1AB
 66
     1
 10
0.0
 20
0.0
 30
0.0
 70
    64
  0
VERTEX
  8
0
  5
1AC
 10
3.0
 20
2.0
 30
2.0
 70
   192
  0
VERTEX
  8
0
  5
1AD
 10
3.0
 20
0.0
 30
2.0
 70
   192
  0
VERTEX
  8
0
  5
1AE
 10
0.0
 20
0.0
 30
2.0
 70
   192
  0
VERTEX
  8
0
  5
1AF
 10
0.0
 20
2.0
 30
2.0
 70
   192
  0
VERTEX
  8
0
 62
     7
  5
1B0
 10
0.0
 20
0.0
 30
0.0
 70
   128
 71
     1
 72
     2
 73
    -3
  0
VERTEX
  8
0
 62
     7
  5
1B1
 10
0.0
 20
0.0
 30
0.0
 70
   128
 71
     3
 72
     4
 73
    -1
  0
SEQEND
  8
0
 62
     7
  5
1B2
  0
POLYLINE
  8
0
 62
     7
  5
1B3
 66
     1
 10
0.0
 20
0.0
 30
0.0
 70
    64
  0
VERTEX
  8
0
  5
1B4
 10
2.0
 20
1.0
 30
4.0
 70
   192
  0
VERTEX
  8
0
  5
1B5
 10
2.0
 20
2.0
 30
3.0
 70
   192
  0
VERTEX
  8
0
  5
1B6
 10
2.0
 20
0.0
 30
4.0
 70
   192
  0
VERTEX
  8
0
  5
1B7
 10
2.0
 20
0.0
 30
3.0
 70
   192
  0
VERTEX
  8
0
  5
1B8
 10
2.0
 20
2.0
 30
4.0
 70
   192
  0
VERTEX
  8
0
 62
     7
  5
1B9
 10
0.0
 20
0.0
 30
0.0
 70
   128
 71
     1
 72
    -3
 73
    -2
  0
VERTEX
  8
0
 62
     7
  5
1BA
 10
0.0
 20
0.0
 30
0.0
 70
   128
 71
    -2
 72
     3
 73
     4
  0
VERTEX
  8
0
 62
     7
  5
1BB
 10
0.0
 20
0.0
 30
0.0
 70
   128
 71
    -1
 72
     2
 73
     5
  0
SEQEND
  8
0
 62
     7
  5
1BC
  0
POLYLINE
  8
0
 62
     7
  5
1BD
 66
     1
 10
0.0
 20
0.0
 30
0.0
 70
    64
  0
VERTEX
  8
0
  5
1BE
 10
3.0
 20
2.0
 30
3.0
 70
   192
  0
VERTEX
  8
0
  5
1BF
 10
3.0
 20
0.0
 30
3.0
 70
   192
  0
VERTEX
  8
0
  5
1C0
 10
2.0
 20
0.0
 30
3.0
 70
   192
  0
VERTEX
  8
0
  5
1C1
 10
2.0
 20
2.0
 30
3.0
 70
   192
  0
VERTEX
  8
0
 62
     7
  5
1C2
 10
0.0
 20
0.0
 30
0.0
 70
   128
 71
    -1
 72
     3
 73
     2
  0
VERTEX
  8
0
 62
     7
  5
1C3
 10
0.0
 20
0.0
 30
0.0
 70
   128
 71
    -3
 72
     1
 73
     4
  0
SEQEND
  8
0
 62
     7
  5
1C4
  0
ENDBLK
  8
0
  5
1C5
  0
BLOCK
  8
0
  5
1C7
  2
AME_MAT
 70
    64
 10
0.0
 20
0.0
 30
0.0
  1
AME_MAT
  3
AME_MAT
  0
ENDBLK
  8
0
  5
1C8
  0
ENDSEC
  0
SECTION
  2
ENTITIES
  0
INSERT
  8
AME_FRZ
  5
33
  2
AME_NIL
 10
0.0
 20
0.0
 30
0.0
  0
INSERT
  8
AME_FRZ
  5
36
  2
AME_SOL
 10
0.0
 20
0.0
 30
0.0
1001
AME_SOL
1000
1.0
1000
sq cm
1070
     3
1070
     0
1070
     3
1000
wire
1040
0.0
1000
NONE
1040
1.0
1000
cm
1000
gm
1000
MILD_STEEL
1070
    25
1000
CSG
1070
     3
1070
     2
1070
     3
1000
cu cm
1070
     4
1070
     0
1005
33
  0
INSERT
  8
AME_FRZ
  5
45
  2
*U2
 10
0.0
 20
0.0
 30
0.0
1001
AME_SOL
1002
{
1070
     0
1071
  1954288
1070
  1536
1010
5.0
1020
1.0
1030
5.0
1005
0
1005
0
1005
74
1040
0.0
1040
1.0
1000
MILD_STEEL
1000
0
1010
0.0
1020
0.0
1030
0.0
1010
0.0
1020
0.0
1030
1.0
1040
0.0
1002
}
  0
INSERT
  8
AME_FRZ
  5
56
  2
*U3
 10
0.0
 20
0.0
 30
1.0
1001
AME_SOL
1002
{
1070
     0
1071
  1955312
1070
  1536
1010
4.0
1020
1.0
1030
3.0
1005
0
1005
0
1005
74
1040
0.0
1040
1.0
1000
MILD_STEEL
1000
0
1010
0.0
1020
0.0
1030
1.0
1010
0.0
1020
0.0
1030
1.0
1040
0.0
1002
}
  0
INSERT
  8
AME_FRZ
  5
74
  2
*U4
 10
0.0
 20
0.0
 30
0.0
1001
AME_SOL
1002
{
1070
     0
1071
  1918952
1070
  1543
1070
     0
1005
45
1005
56
1005
0
1005
0
1005
A3
1040
0.0
1040
1.0
1000
MILD_STEEL
1000
0
1010
0.0
1020
0.0
1030
0.0
1010
0.0
1020
0.0
1030
1.0
1040
0.0
1002
}
  0
INSERT
  8
AME_FRZ
  5
85
  2
*U5
 10
0.0
 20
0.0
 30
0.0
1001
AME_SOL
1002
{
1070
     0
1071
  1949328
1070
  1536
1010
1.0
1020
1.0
1030
1.0
1005
0
1005
0
1005
A3
1040
0.0
1040
1.0
1000
MILD_STEEL
1000
0
1010
0.0
1020
0.0
1030
0.0
1010
0.0
1020
0.0
1030
1.0
1040
0.0
1002
}
  0
INSERT
  8
AME_FRZ
  5
A3
  2
*U6
 10
0.0
 20
0.0
 30
0.0
1001
AME_SOL
1002
{
1070
     0
1071
  1941240
1070
  1543
1070
     0
1005
74
1005
85
1005
0
1005
0
1005
DD
1040
0.0
1040
1.0
1000
MILD_STEEL
1000
0
1010
0.0
1020
0.0
1030
0.0
1010
0.0
1020
0.0
1030
1.0
1040
0.0
1002
}
  0
INSERT
  8
AME_FRZ
  5
B4
  2
*U7
 10
0.0
 20
0.0
 30
2.0
1001
AME_SOL
1002
{
1070
     0
1071
  1953336
1070
  1536
1010
3.0
1020
2.0
1030
2.0
1005
0
1005
0
1005
DD
1040
0.0
1040
1.0
1000
MILD_STEEL
1000
0
1010
0.0
1020
0.0
1030
2.0
1010
0.0
1020
0.0
1030
1.0
1040
0.0
1002
}
  0
INSERT
  8
AME_FRZ
  5
DD
  2
*U8
 10
0.0
 20
0.0
 30
0.0
1001
AME_SOL
1002
{
1070
     0
1071
  1977696
1070
  1543
1070
     2
1005
A3
1005
B4
1005
0
1005
0
1005
11D
1040
0.0
1040
1.0
1000
MILD_STEEL
1000
0
1010
0.0
1020
0.0
1030
0.0
1010
0.0
1020
0.0
1030
1.0
1040
0.0
1002
}
  0
INSERT
  8
AME_FRZ
  5
EE
  2
*U9
 10
2.0
 20
0.0
 30
3.0
1001
AME_SOL
1002
{
1070
     0
1071
  1959952
1070
  1536
1010
1.0
1020
2.0
1030
1.0
1005
0
1005
0
1005
11D
1040
0.0
1040
1.0
1000
MILD_STEEL
1000
0
1010
2.0
1020
0.0
1030
3.0
1010
0.0
1020
0.0
1030
1.0
1040
0.0
1002
}
  0
INSERT
  8
0
  5
11D
  2
*U11
 10
0.0
 20
0.0
 30
0.0
1001
AME_SOL
1002
{
1070
     0
1071
  2009024
1070
  9223
1070
     0
1005
DD
1005
EE
1005
1C6
1005
11E
1005
0
1040
76.0
1040
1.0
1000
MILD_STEEL
1000
0
1002
}
  0
INSERT
  8
AME_FRZ
  5
11E
  2
AME_NIL
 10
1.0
 20
1.0
 30
1.0
1001
AME_SOL
1004
E903A9FB0100F0FFFFFF000052F7100001000000958664BA958664BA958664BA2507A040000A00402507A04001000000FBF2040000ECFF3F000020BA00F63F40000A4040000A0040000A40400100844E50651F00FFFF00000100CE000000844E0000000000000000803F000000000000803F000000000000
1004
000000000040000000000000404005000000000000000000000000000000000000000000844E0000000000000000803F000000000000803F0000000000000000000000400000000000004040050000000000000000000000000000000000FFFFFFFFFBF2050000ECFF3F000020BA00F63F40000A0040000A
1004
0040000580400100844EC8371E00FFFF00000100CC000000844E000000000000000000000000803F000000000000803F0000000000000040000000000000404005000000000000000000000000000000000000000000844E000000000000000000000000803F000000000000803F00000000000000400000
1004
000000004040050000000000000000000000000000000000FFFFFFFFFBF20400000020BA000020BA00ECFF3F000A4040000A0040000A00400100844E70391E0001000000010096010000844E0000000000000000803F000000000000803F0000000000000000000000000000000000000040050000000000
1004
00000000000000000000000000000000844E0000000000000000803F000000000000803F000000000000000000000000000000000000004005000000000000000000000000000000000001000000FBF20400000020BA000020BA00F67F40000A4040000A0040000580400100844EF03F1D00010000000100
1004
93010000844E0000000080BF000000800000008000000080000080BF0000008000004040000000400000804005000000000000000000000000000000000000000000844E0000000080BF000000800000008000000080000080BF00000080000080400000803F000080400500000000000000000000000000
1004
0000000001000000FBF20600000020BA00ECFF3F00ECFF3F000A4040000A0040000580400100844E10421D0001000000010092010000844E00000000008000000080000080BF000080BF000000800000008000004040000000400000804005000000000000000000000000000000000000000000844E0000
1004
0000008000000080000080BF000080BF000000800000008000004040000000400000804005000000000000000000000000000000000001000000FBF2040000F63F40000020BA00ECFF3F000A4040000A0040000580400100844EF0441D0001000000010091010000844E000000000080000080BF00000080
1004
0000008000000080000080BF00004040000000400000804005000000000000000000000000000000000000000000844E000000000080000080BF000000800000008000000080000080BF00004040000000400000804005000000000000000000000000000000000001000000FBF2040000D87F3F000020BA
1004
000020BA0014803F0014803F0014803F0100844E505E1C00FFFF0000010059020000844E000000000080000080BF000000800000008000000080000080BF0000803F0000803F0000803F05000000000000000000000000000000000000000000844E000000000080000080BF000000800000008000000080
1004
000080BF0000803F0000803F0000803F050000000000000000000000000000000000FFFFFFFFFBF204002B2B23BA2B2B23BA36D77F3F1A0580406514803F6514803F0100844E20AD1D00FFFF0000010026030000844E0000000000000000803F000000000000803F00000000000000000000000000000000
1004
0000803F05000000000000000000000000000000000000000000844E0000000000000000803F000000000000803F000000000000000000000000000000000000803F050000000000000000000000000000000000FFFFFFFFFBF2040000ECFF3F000020BA00F67F40000A4040000A0040000580400100844E
1004
88AE1D00FFFF00000200CB000000844E0000000080BF000000800000008000000080000080BF000000800000404000000040000080400500000000000000000000000000000000000000000023030000844E0000000080BF000000800000008000000080000080BF00000080000080400000803F00008040
1004
05000000000000000000000000000000000000000000844E0000000080BF000000800000008000000080000080BF00000080000080400000803F00008040050000000000000000000000000000000000FFFFFFFFFBF20400CDF57F402B2B23BA36D77F3F1A0580406514803F1A0580400100844E30E01D00
1004
FFFF0000010021030000844E000000000080000080BF000000800000008000000080000080BF000080400000803F0000804005000000000000000000000000000000000000000000844E000000000080000080BF000000800000008000000080000080BF000080400000803F000080400500000000000000
1004
00000000000000000000FFFFFFFFFBF20400958664BA958664BA958664BA2507A040911C803F9586643A0100844E90101E000100000001008A030000844E0000000000000000803F000000000000803F00000000000000000000000000000000000000000500000000000000000000000000000000000000
1004
0000844E0000000000000000803F000000000000803F000000000000000000000000000000000000000005000000000000000000000000000000000001000000FBF20C00000020BA000020BA00ECFF3F000A40400000203A000580400100844EB0111E0001000000020095010000844E00000000803F0000
1004
00000000000000000000000000000000803F0000000000000000000000400500000000000000000000000000000000000000000089030000844E00000000803F000000000000000000000000000000000000803F00000000000000000000000005000000000000000000000000000000000000000000844E
1004
00000000803F000000000000000000000000000000000000803F00000000000000000000000005000000000000000000000000000000000001000000FBF20600000020BA000020BA00ECFF3F0000203A000A0040000580400100844E20111E0001000000020094010000844E000000000000000000000000
1004
803F000000000000803F000000000000000000000000000000400500000000000000000000000000000000000000000088030000844E000000000000000000000000803F000000000000803F0000000000000000000000000000000005000000000000000000000000000000000000000000844E00000000
1004
0000000000000000803F000000000000803F0000000000000000000000000000000005000000000000000000000000000000000001000000FBF20400958664BA958664BADCF89F402507A040911C803F2507A0400100844ED0121E0001000000010087030000844E0000000080BF00000080000000800000
1004
0080000080BF000000800000A0400000803F0000A04005000000000000000000000000000000000000000000844E0000000080BF000000800000008000000080000080BF000000800000A0400000803F0000A04005000000000000000000000000000000000001000000FBF20900958664BADEC67F3F9586
1004
64BA2507A040911C803F2507A0400100844E40121E0001000000010086030000844E00000000008000000080000080BF000080BF00000080000000800000A0400000803F0000A04005000000000000000000000000000000000000000000844E00000000008000000080000080BF000080BF000000800000
1004
00800000A0400000803F0000A04005000000000000000000000000000000000001000000FBF20400DCF89F40958664BA958664BA2507A040911C803F2507A0400100844EF0131E0001000000010085030000844E000000000080000080BF000000800000008000000080000080BF0000A0400000803F0000
1004
A04005000000000000000000000000000000000000000000844E000000000080000080BF000000800000008000000080000080BF0000A0400000803F0000A04005000000000000000000000000000000000001000000A4EE00ECFF3F000020BA00F63F40000A0040000A0040000A4040000000C000000080
1004
02009675E8641D0000000100FFFF50651F00C8371E0000000200C8371E0050651F00FFFFFFFFFFFFFFFF96750000000080BF00000000000000000000000000000000000080BF0000004000000000000040400200000000C000000080A4EE00ECFF3F00ECFF3F00F63F40000A4040000A0040000A40400200
1004
00BFFFFFFF3E02009675889A1D0000000100FFFF50651F0010421D000000020010421D0050651F0001000000FFFFFFFF96750000000000000000803F000000000000000000000000000080BF0000204000000040000040400200020000BFFFFFFF3EA4EE00F63F40000020BA00F63F40000A4040000A0040
1004
000A4040000080BF0000803F02009675B8A21D0000000100FFFF50651F00F0441D0000000200F0441D0050651F0001000000FFFFFFFF967500000000803F00000000000000000000000000000000000080BF000040400000803F000040400200000080BF0000803FA4EE00ECFF3F000020BA00F63F40000A
1004
40409586643A000A40400000803F010000400200967500A41D0000000100FFFF50651F00B0111E0000000200B0111E0050651F0001000000FFFFFFFF9675000000000000000080BF000000000000000000000000000080BF0000803F000000000000404002000000803F01000040A4EE00ECFF3F000020BA
1004
CDF57F40000A0040000A004000058040000000BF0000003F0200967518A61D0000000100FFFFC8371E0088AE1D000000020088AE1D00C8371E00FFFFFFFFFFFFFFFF9675000000000000000000000000803F000080BF0000000000000000000000400000003F000080400200000000BF0000003FA4EE00EC
1004
FF3F000020BA00F67F40000A0040000A0040000580400000C0BF000000BF0200967560A61D0000000100FFFFC8371E00F03F1D0000000200F03F1D00C8371E0001000000FFFFFFFF9675000000000000000000000000803F000080BF0000000000000000000000400000003F0000804002000000C0BF0000
1004
00BFA4EE00ECFF3F00ECFF3F00F63F40000A0040000A004000058040020000BFFAFFFF3E0200967508A21D0000000100FFFFC8371E0010421D000000020010421D00C8371E0001000000FFFFFFFF96750000000000000000803F00000000000080BF00000000000000000000004000000040010060400200
1004
020000BFFAFFFF3EA4EE00ECFF3F000020BA00F63F40000A00409586643A00058040000020C00000C0BF02009675E09D1D0000000100FFFFC8371E00B0111E0000000200B0111E00C8371E0001000000FFFFFFFF9675000000000000000080BF00000000000080BF00000000000000000000004000000000
1004
0000C03F0200000020C00000C0BFA4EE000020BA00ECFF3F00ECFF3F000A4040000A0040000A00400000C0BF0000C03F0200967540901D000000FFFF010070391E0010421D000000020070391E0010421D00010000000100000096750000000000000000803F000000000000000000000000000080BF0000
1004
C03F000000400000004002000000C0BF0000C03FA4EE00F63F40000020BA00ECFF3F000A4040000A0040000A0040000080BF0000803F0200967588BB1D000000FFFF010070391E00F0441D000000020070391E00F0441D000100000001000000967500000000803F00000000000000000000000000000000
1004
000080BF000040400000803F000000400200000080BF0000803FA4EE000020BA000020BA00ECFF3F9586643A000A0040000A0040000000C0000000800200967560C21D000000FFFF010070391E0020111E000000020070391E0020111E00010000000100000096750000000080BF00000000000000000000
1004
000000000000000080BF0000000000000000000000400200000000C000000080A4EE000020BA000020BA00ECFF3F000A40409586643A000A0040000000000000404002009675D0CC1D000000FFFF010070391E00B0111E000000020070391E00B0111E0001000000010000009675000000000000000080BF
1004
000000000000000000000000000080BF00000000000000000000004002000000000000004040A4EE000020BA00ECFF3F00F67F40000A4040000A004000058040010060C00200C0BF0200967570E11D000000FFFF0100F03F1D0010421D0000000200F03F1D0010421D000100000001000000967500000000
1004
00000000803F0000000000000000000000000000803F0100604000000040000080400200010060C00200C0BFA4EE000020BA000020BA00F67F409586643A000A0040000580400000003F0000C03F02009675B8E11D000000FFFF0100F03F1D0020111E0000000200F03F1D0020111E000100000001000000
1004
96750000000080BF000000000000000000000000000000000000803F000000000000003F0000804002000000003F0000C03FA4EE000020BADEC67F3F00F67F40000A4040911C803F00058040000090C0FFFF1FC00200967560FA1D0000000100FFFFF03F1D0040121E000000020040121E00F03F1D000100
1004
00000100000096750000000000000000803F0000000000000000000000000000803F000090400000803F000080400200000090C0FFFF1FC0A4EE00F63F4000ECFF3F00ECFF3F000A4040000A004000058040000000C0FFFF7FBF0200967510151E000000FFFF010010421D00F0441D000000020010421D00
1004
F0441D000100000001000000967500000000803F0000000000000000000000000000803F000000000000404000000040000080400200000000C0FFFF7FBFA4EE000020BA00ECFF3F00ECFF3F0000203A000A004000058040000000C0000000800200967578021E000000FFFF010010421D0020111E000000
1004
020010421D0020111E00010000000100000096750000000080BF0000000000000000000000000000803F000000000000000000000040000000400200000000C000000080A4EE00F63F40000020BA00ECFF3F000A40409586643A00058040000000000100803F0200967520261E000000FFFF0100F0441D00
1004
B0111E0000000200F0441D00B0111E0001000000010000009675000000000000000080BF000000000000803F00000000000000000000404000000000000000400200000000000100803FA4EE00D87F3F000020BA36D77F3F0014803F0014803F0014803F000000BF0000003F0200967540271E000000FFFF
1004
0100505E1C0020AD1D0000000200505E1C0020AD1D00FFFFFFFFFFFFFFFF967500000000000000000000000080BF0000803F00000000000000000000803F0000003F0000803F0200000000BF0000003FA4EE00D87F3F000020BA000020BA0014803F0014803F9586643A000000BF0000003F02009675D8E2
1004
1D0000000100FFFF505E1C0090101E000000020090101E00505E1C0001000000FFFFFFFF967500000000000000000000000080BF0000803F00000000000000000000803F0000003F000000000200000000BF0000003FA4EE00D87F3FDEC67F3F000020BA0014803F0014803F0014803F0100004000004040
1004
02009675F0AF1D0000000100FFFF505E1C0040121E000000020040121E00505E1C0001000000FFFFFFFF96750000000000000000803F000000000000803F00000000000000000000803F0000803F0000404002000100004000004040A4EE00D87F3F000020BA000020BA0014803F9586643A0014803F0000
1004
00BF0000003F0200967560541D0000000100FFFF505E1C00B0111E0000000200B0111E00505E1C0001000000FFFFFFFF9675000000000000000080BF000000000000803F00000000000000000000803F000000000000003F0200000000BF0000003FA4EECDF57F402B2B23BA36D77F3F1A0580406514803F
1004
6514803F000000BF0000003F02009675B0451E0000000100FFFF20AD1D0030E01D000000020030E01D0020AD1D00FFFFFFFFFFFFFFFF967500000000803F00000000000000000000000000000000000080BF000080400000003FFFFF7F3F0200000000BF0000003FA4EE2B2B23BADEC67F3F36D77F3F1A05
1004
80406514803F6514803F0000C0BF0000C03F0200967550971E0000000100FFFF20AD1D0040121E000000020040121E0020AD1D0001000000FFFFFFFF96750000000000000000803F000000000000000000000000000080BF000020400000803F0000803F02000000C0BF0000C03FA4EE2B2B23BA2B2B23BA
1004
36D77F3F1A0580409586643A6514803F0000803F000080400200967508971E0000000100FFFF20AD1D00B0111E0000000200B0111E0020AD1D0001000000FFFFFFFF9675000000000000000080BF000000000000000000000000000080BF00000000000000000000803F02000000803F00008040A4EECDF5
1004
7F402B2B23BACDF57F401A0580406514803F1A058040000000000000803F02009675209A1E0000000100FFFF88AE1D0030E01D000000020030E01D0088AE1D00FFFFFFFFFFFFFFFF967500000000803F000000000000000000000080000000000000803F000080400000803F000080400200000000000000
1004
803FA4EE2B2B23BADEC67F3FCDF57F401A058040911C803F1A058040FFFF1FC0FAFFFFBE02009675D09B1E0000000100FFFF88AE1D0040121E000000020040121E0088AE1D0001000000FFFFFFFF96750000000000000000803F0000000000000000000000000000803F000090400000803F000080400200
1004
FFFF1FC0FAFFFFBEA4EE2B2B23BA2B2B23BACDF57F401A0580409586643A1A058040000000C00000008002009675F09C1E0000000100FFFF88AE1D00B0111E0000000200B0111E0088AE1D0001000000FFFFFFFF9675000000000000000080BF0000000000000000000000000000803F0000004000000000
1004
000080400200000000C000000080A4EECDF57F40DEC67F3F36D77F3F1A0580406514803F1A058040FAFFFF3E0000604002009675C89D1E0000000100FFFF30E01D0040121E000000020040121E0030E01D0001000000FFFFFFFF96750000000000000000803F000000000000803F00000000000000000000
1004
80400000803F000090400200FAFFFF3E00006040A4EECDF57F402B2B23BA36D77F3F1A0580409586643A1A058040000080BF000000400200967550B01E0000000100FFFF30E01D00B0111E0000000200B0111E0030E01D0001000000FFFFFFFF9675000000000000000080BF000000000000803F00000000
1004
000000000000804000000000000000400200000080BF00000040A4EE958664BADEC67F3F958664BA2507A040911C803F9586643A000020C00000C03F0200967598B01E000000FFFF010090101E0040121E000000020090101E0040121E00010000000100000096750000000000000000803F000000000000
1004
000000000000000080BF000020400000803F000000000200000020C00000C03FA4EEDCF89F40958664BA958664BA2507A040911C803F9586643A000000BF0000003F02009675809D1E000000FFFF010090101E00F0131E000000020090101E00F0131E000100000001000000967500000000803F00000000
1004
000000000000000000000000000080BF0000A0400000003F000000000200000000BF0000003FA4EE958664BA958664BA958664BA2507A0409586643A9586643A0000803F0000A04002009675A03E1E000000FFFF010090101E00B0111E000000020090101E00B0111E000100000001000000967500000000
1004
0000000080BF000000000000000000000000000080BF00000000000000000000000002000000803F0000A040A4EE958664BA958664BADCF89F402507A0409586643A2507A040000020C00000204002009675903F1E000000FFFF0100B0111E00D0121E0000000200B0111E00D0121E000100000001000000
1004
9675000000000000000000000000803F00000000000080BF0000000000002040000000000000A0400200000020C000002040A4EEDCF89F40958664BA958664BA2507A0409586643A2507A040000020C0000020400200967560301F000000FFFF0100B0111E00F0131E0000000200B0111E00F0131E000100
1004
000001000000967500000000803F000000000000000000000000000080BF000000000000A04000000000000020400200000020C000002040A4EE958664BA958664BA958664BA9586643A9586643A2507A040000000400000A0400200967510321F000000FFFF0100B0111E0020111E0000000200B0111E00
1004
20111E00010000000100000096750000000080BF000000000000000000000000000080BF000000000000000000000000000000000200000000400000A040A4EE958664BA958664BADCF89F409586643A911C803F2507A040000000BF0000003F0200967558321F000000FFFF010020111E00D0121E000000
1004
020020111E00D0121E0001000000010000009675000000000000000000000000803F000080BF0000000000000000000000000000003F0000A0400200000000BF0000003FA4EE958664BADEC67F3F958664BA9586643A911C803F2507A0400000C03F0000204002009675A8301F000000FFFF010020111E00
1004
40121E000000020020111E0040121E00010000000100000096750000000000000000803F00000000000080BF0000000000000000000000000000803F0000204002000000C03F00002040A4EE958664BADEC67F3FDCF89F402507A040911C803F2507A0400000A0C00000008002009675D0E71E000000FFFF
1004
0100D0121E0040121E0000000200D0121E0040121E00010000000100000096750000000000000000803F0000000000000000000000000000803F0000A0400000803F0000A04002000000A0C000000080A4EEDCF89F40958664BADCF89F402507A040911C803F2507A040000000000000803F02009675C0E8
1004
1E000000FFFF0100D0121E00F0131E0000000200D0121E00F0131E000100000001000000967500000000803F000000000000000000000000000000000000803F0000A0400000803F0000A0400200000000000000803FA4EEDCF89F40DEC67F3F958664BA2507A040911C803F2507A0400000A0C000000080
1004
0200967520C61E000000FFFF010040121E00F0131E000000020040121E00F0131E000100000001000000967500000000803F0000000000000000000000000000803F000000000000A0400000803F0000A04002000000A0C00000008019FC
1005
11F
  0
INSERT
  8
AME_FRZ
  5
11F
  2
AME_NIL
 10
1.0
 20
1.0
 30
1.0
1001
AME_SOL
1004

1005
0
  0
INSERT
  8
AME_FRZ
  5
1C6
  2
*U10
 10
0.0
 20
0.0
 30
0.0
  0
INSERT
  8
AME_FRZ
  5
1C9
  2
AME_MAT
 10
0.0
 20
0.0
 30
0.0
1001
AME_SOL
1000
MILD_STEEL
1040
7860.0
1040
220.0
1040
0.275
1040
207.0
1040
345.0
1040
56.0
1040
12.0
1040
0.46
  0
ENDSEC
  0
EOF
