600 0 1 0           
119 GICL ACIS Healer - Source: /gicl/data5/repository/Sandia/Randy_Wilson/discriminator/s418fr7p28ld/s418fr7p28ld.sat - 6 0 18 ACIS 6.0.3 Solaris 24 Sat Apr 13 23:38:08 2002 
1 9.999999999999999547e-07 1.000000000000000036e-10 
body $-1 $1 $-1 $2 #
lump $-1 $-1 $3 $0 #
transform $-1 1 0 0 0 1 0 0 0 1 0 0 0 1 no_rotate no_reflect no_shear #
shell $-1 $-1 $-1 $4 $-1 $1 #
face $5 $6 $7 $3 $-1 $8 reversed single #
pid_name-sg-attrib $-1 $-1 $-1 $4 7 rwilson 784252905 626 1 #
face $9 $10 $11 $3 $-1 $12 forward single #
loop $-1 $13 $14 $4 #
cone-surface $-1 0.0625 0.004685000000000050235 0 0 -1 0 -0.0625 0 0 1 I I 0 1 0.0625 forward I I I I #
pid_name-sg-attrib $-1 $-1 $-1 $6 7 rwilson 784252905 627 1 #
face $15 $16 $17 $3 $-1 $18 forward single #
loop $-1 $19 $20 $6 #
plane-surface $-1 0.0625 -0.09370000000000000551 0 0 -1 0 0 0 -1 forward_v I I I I #
loop $-1 $-1 $21 $4 #
coedge $-1 $14 $14 $20 $22 forward $7 $-1 #
pid_name-sg-attrib $-1 $-1 $-1 $10 7 rwilson 784252905 628 1 #
face $23 $24 $25 $3 $-1 $26 reversed single #
loop $-1 $27 $28 $10 #
cone-surface $-1 0.0625 0.004685000000000050235 0 0 -1 0 -0.1479999999999999927 0 0 1 I I 0 1 0.1479999999999999927 forward I I I I #
loop $-1 $-1 $29 $6 #
coedge $-1 $20 $20 $14 $22 reversed $11 $-1 #
coedge $-1 $21 $21 $30 $31 forward $13 $-1 #
edge $-1 $32 -6.283185307179586232 $32 -0 $20 $33 reversed 7 unknown #
pid_name-sg-attrib $-1 $-1 $-1 $16 7 rwilson 784252905 629 1 #
face $34 $35 $36 $3 $-1 $37 forward single #
loop $-1 $38 $39 $16 #
plane-surface $-1 0.0625 -0.07069999999999999896 0 0 -1 0 0 0 -1 forward_v I I I I #
loop $-1 $-1 $40 $10 #
coedge $-1 $28 $28 $39 $41 forward $17 $-1 #
coedge $-1 $29 $29 $40 $42 reversed $19 $-1 #
coedge $-1 $30 $30 $21 $31 reversed $43 $-1 #
edge $-1 $44 -3.141592653589793116 $44 3.141592653589793116 $30 $45 forward 7 unknown #
vertex $-1 $22 $46 #
ellipse-curve $-1 0.0625 -0.09370000000000000551 0 -6.661338147750940229e-16 1 0 -0.0625 -4.163336342344340108e-17 0 1 I I #
pid_name-sg-attrib $-1 $-1 $-1 $24 7 rwilson 784252905 630 1 #
face $47 $-1 $48 $3 $-1 $49 reversed single #
loop $-1 $50 $51 $24 #
cone-surface $-1 0.0625 0.004685000000000050235 0 0 -1 0 -0.125 0 0 1 I I 0 1 0.125 forward I I I I #
loop $-1 $-1 $52 $16 #
coedge $-1 $39 $39 $28 $41 reversed $25 $-1 #
coedge $-1 $40 $40 $29 $42 forward $27 $-1 #
edge $-1 $53 -6.283185307179586232 $53 -0 $39 $54 reversed 7 unknown #
edge $-1 $55 -3.141592653589793116 $55 3.141592653589793116 $29 $56 forward 7 unknown #
loop $-1 $-1 $30 $35 #
vertex $-1 $31 $57 #
ellipse-curve $-1 0.0625 0 0 0 1 0 -0.0625 0 0 1 I I #
point $-1 0 -0.09370000000000000551 0 #
pid_name-sg-attrib $-1 $-1 $-1 $35 7 rwilson 784252905 631 1 #
loop $-1 $43 $58 $35 #
plane-surface $-1 0.0625 0 0 0 -1 0 0 0 -1 forward_v I I I I #
loop $-1 $-1 $59 $24 #
coedge $-1 $51 $51 $58 $60 forward $36 $-1 #
coedge $-1 $52 $52 $59 $61 reversed $38 $-1 #
vertex $-1 $41 $62 #
ellipse-curve $-1 0.0625 -0.07069999999999999896 0 0 1 0 -0.1479999999999999927 0 0 1 I I #
vertex $-1 $42 $63 #
ellipse-curve $-1 0.0625 -0.09369999999999989448 0 -4.688441826964340354e-16 1 0 -0.1479999999999999927 -6.93889390390722961e-17 0 1 I I #
point $-1 0.125 0 7.653789711389859405e-18 #
coedge $-1 $58 $58 $51 $60 reversed $48 $-1 #
coedge $-1 $59 $59 $52 $61 forward $50 $-1 #
edge $-1 $64 -6.283185307179586232 $64 -0 $58 $65 reversed 7 unknown #
edge $-1 $66 -3.141592653589793116 $66 3.141592653589793116 $52 $67 forward 7 unknown #
point $-1 -0.08550000000000000655 -0.07069999999999999896 0 #
point $-1 0.2104999999999999927 -0.09369999999999989448 1.812477262738079966e-17 #
vertex $-1 $60 $68 #
ellipse-curve $-1 0.0625 0 0 0 1 0 -0.125 0 0 1 I I #
vertex $-1 $61 $69 #
ellipse-curve $-1 0.0625 -0.07069999999999999896 0 -1.110223024625159992e-16 1 0 -0.125 -1.38777878078144999e-17 0 1 I I #
point $-1 -0.0625 0 0 #
point $-1 0.1875 -0.07069999999999999896 1.530808498934189968e-17 #
End-of-ACIS-data 