600 0 2 0           
24 FBMach with ACIS - 6.0.3 13 ACIS 6.0.3 NT 24 Wed May 23 19:35:38 2001 
1 9.9999999999999995e-007 1e-010 
body $2 $3 $-1 $4 #
bdycol-kcp $-1 1 4 $5 $6 $7 $8 #
model_id-kcp-attrib $-1 $-1 $-1 $0 1 990660938 50 842137601 1 #
lump $-1 $-1 $9 $0 #
transform $-1 1 0 0 0 1 0 0 0 1 0 0 0 1 no_rotate no_reflect no_shear #
body $10 $11 $-1 $12 #
body $13 $14 $-1 $15 #
body $16 $17 $-1 $18 #
body $19 $20 $-1 $21 #
shell $-1 $-1 $-1 $22 $-1 $3 #
model_id-kcp-attrib $-1 $-1 $-1 $5 1 990660938 50 842137602 1 #
lump $-1 $-1 $23 $5 #
transform $-1 1 0 0 0 1 0 0 0 1 0.0625 -0.046850000000000024 0 1 no_rotate no_reflect no_shear #
rgb_color-st-attrib $-1 $24 $-1 $6 0.5 1 1 #
lump $-1 $-1 $25 $6 #
transform $-1 1 0 0 0 -3.8285889215894375e-016 1 0 -1 -3.8285889215894375e-016 0.0625 -0.046850000000000017 -1.9730633007411191e-017 1 rotate no_reflect no_shear #
rgb_color-st-attrib $-1 $26 $-1 $7 0.5 1 1 #
lump $-1 $-1 $27 $7 #
transform $-1 1 0 0 0 1 0 0 0 1 0.0625 -0.046850000000000024 0 1 no_rotate no_reflect no_shear #
rgb_color-st-attrib $-1 $28 $-1 $8 1 0.5 1 #
lump $-1 $-1 $29 $8 #
transform $-1 1 0 0 0 1 0 0 0 1 0.0625 -0.046850000000000024 0 1 no_rotate no_reflect no_shear #
face $30 $31 $32 $9 $-1 $33 reversed single #
shell $-1 $-1 $-1 $34 $-1 $11 #
model_id-kcp-attrib $-1 $-1 $13 $6 1 990660938 70 843448323 1 #
shell $-1 $-1 $-1 $35 $-1 $14 #
model_id-kcp-attrib $-1 $-1 $16 $7 1 990660938 130 847380484 1 #
shell $-1 $-1 $-1 $36 $-1 $17 #
model_id-kcp-attrib $-1 $-1 $19 $8 1 990660938 210 852623365 1 #
shell $-1 $-1 $-1 $37 $-1 $20 #
model_id-kcp-attrib $-1 $38 $-1 $22 1 990660938 50 842137601 2 #
face $39 $40 $41 $9 $-1 $42 forward single #
loop $43 $44 $45 $22 #
cone-surface $-1 0.0625 0.0046850000000000502 0 0 -1 0 -0.0625 0 0 1 I I 0 1 0.0625 forward I I I I #
face $-1 $46 $47 $23 $-1 $48 forward single #
face $-1 $49 $50 $25 $-1 $51 forward single #
face $-1 $52 $53 $27 $-1 $54 reversed single #
face $-1 $55 $56 $29 $-1 $57 forward single #
pid_name-sg-attrib $-1 $-1 $30 $22 7 114 119 105 108 115 111 110 784252905 626 1 #
model_id-kcp-attrib $-1 $58 $-1 $31 1 990660938 50 842137601 8 #
face $59 $60 $61 $9 $-1 $62 forward single #
loop $63 $64 $65 $31 #
plane-surface $-1 0.0625 -0.093700000000000006 0 0 -1 0 0 0 -1 forward_v I I I I #
model_id-kcp-attrib $-1 $-1 $-1 $32 1 990660938 50 842137601 10 #
loop $66 $-1 $67 $22 #
coedge $-1 $45 $45 $65 $68 forward $32 $-1 #
face $-1 $69 $70 $23 $-1 $71 reversed single #
loop $-1 $-1 $72 $34 #
plane-surface $-1 0 0 0.14799999999999999 0 0 1 1 0 0 forward_v I I I I #
face $-1 $73 $74 $25 $-1 $75 forward single #
loop $-1 $76 $77 $35 #
cone-surface $-1 0 0 0 0 0 1 0.0625 0 0 1 I I 0 1 0.0625 forward I I I I #
face $-1 $78 $79 $27 $-1 $54 reversed single #
loop $-1 $-1 $80 $36 #
cone-surface $-1 0 -0.046849999999999982 0 0 -1 0 0.14799999999999999 0 5.4372522109713549e-017 1 I I 0 1 0.14799999999999999 forward I I I I #
face $-1 $81 $82 $29 $-1 $83 forward single #
loop $-1 $84 $85 $37 #
cone-surface $-1 0 -0.023849999999999989 0 0 1 0 -0.125 0 0 1 I I 0 -1 0.125 forward I I I I #
model_id-kcp-attrib $-1 $86 $39 $31 1 990660938 50 842137601 3 #
model_id-kcp-attrib $-1 $87 $-1 $40 1 990660938 50 842137601 4 #
face $88 $89 $90 $9 $-1 $91 reversed single #
loop $-1 $92 $93 $40 #
cone-surface $-1 0.0625 0.0046850000000000502 0 0 -1 0 -0.14799999999999999 0 0 1 I I 0 1 0.14799999999999999 forward I I I I #
model_id-kcp-attrib $-1 $-1 $-1 $41 1 990660938 50 842137601 12 #
loop $-1 $-1 $94 $31 #
coedge $-1 $65 $65 $45 $68 reversed $41 $-1 #
model_id-kcp-attrib $-1 $-1 $-1 $44 1 990660938 50 842137601 11 #
coedge $-1 $67 $67 $95 $96 forward $44 $-1 #
edge $97 $98 -6.2831853071795862 $98 0 $65 $99 reversed 7 unknown #
face $100 $101 $102 $23 $-1 $103 reversed single #
loop $-1 $-1 $104 $46 #
plane-surface $-1 0 0 -0.14799999999999999 0 0 1 1 0 0 forward_v I I I I #
coedge $-1 $105 $106 $107 $108 forward $47 $-1 #
face $-1 $-1 $109 $25 $-1 $110 forward single #
loop $-1 $-1 $111 $49 #
plane-surface $-1 0 0 -0.046850000000000037 0 0 -1 -1 0 0 forward_v I I I I #
loop $-1 $-1 $112 $35 #
coedge $-1 $77 $77 $111 $113 reversed $50 $-1 #
face $-1 $114 $115 $27 $-1 $54 reversed single #
loop $-1 $-1 $116 $52 #
coedge $-1 $117 $118 $119 $120 reversed $53 $-1 #
face $-1 $121 $122 $29 $-1 $123 forward single #
loop $-1 $124 $125 $55 #
cone-surface $-1 0 -0.023849999999999982 0 0 1 0 0.14799999999999999 0 5.4372522109713549e-017 1 I I 0 1 0.14799999999999999 forward I I I I #
loop $-1 $-1 $126 $37 #
coedge $-1 $85 $85 $127 $128 forward $56 $-1 #
pid_name-sg-attrib $-1 $-1 $58 $31 7 114 119 105 108 115 111 110 784252905 627 1 #
pid_name-sg-attrib $-1 $-1 $59 $40 7 114 119 105 108 115 111 110 784252905 628 1 #
model_id-kcp-attrib $-1 $129 $-1 $60 1 990660938 50 842137601 5 #
face $130 $131 $132 $9 $-1 $133 forward single #
loop $-1 $134 $135 $60 #
plane-surface $-1 0.0625 -0.070699999999999999 0 0 -1 0 0 0 -1 forward_v I I I I #
loop $-1 $-1 $136 $40 #
coedge $-1 $93 $93 $135 $137 forward $61 $-1 #
coedge $-1 $94 $94 $136 $138 reversed $64 $-1 #
coedge $-1 $95 $95 $67 $96 reversed $139 $-1 #
edge $140 $141 -3.1415926535897931 $141 3.1415926535897931 $95 $142 forward 7 unknown #
attrib_edge_convexity-kcp-attrib $-1 $143 $-1 $68 1 #
vertex $144 $68 $145 #
ellipse-curve $-1 0.0625 -0.093700000000000006 0 -6.6613381477509402e-016 1 0 -0.0625 -4.1633363423443401e-017 0 1 I I #
model_id-kcp-attrib $-1 $-1 $-1 $69 1 990660938 50 842137602 2 #
face $-1 $146 $147 $23 $-1 $148 reversed single #
loop $-1 $-1 $149 $69 #
plane-surface $-1 0 -0.046850000000000024 0 0 1 0 0 0 1 forward_v I I I I #
coedge $-1 $150 $151 $152 $153 forward $70 $-1 #
coedge $-1 $154 $72 $155 $156 forward $47 $-1 #
coedge $-1 $72 $154 $157 $158 forward $47 $-1 #
coedge $-1 $159 $160 $72 $108 reversed $161 $-1 #
edge $-1 $162 -0.046850000000000024 $163 0.046850000000000024 $107 $164 forward 7 unknown #
loop $-1 $-1 $165 $73 #
plane-surface $-1 0 0 0.046850000000000037 0 0 1 1 0 0 forward_v I I I I #
coedge $-1 $111 $111 $77 $113 forward $74 $-1 #
coedge $-1 $112 $112 $165 $166 reversed $76 $-1 #
edge $-1 $167 0 $167 6.2831853071795862 $111 $168 forward 7 unknown #
face $-1 $169 $170 $27 $-1 $54 reversed single #
loop $-1 $-1 $171 $78 #
coedge $-1 $172 $173 $174 $175 reversed $79 $-1 #
coedge $-1 $176 $80 $177 $178 forward $53 $-1 #
coedge $-1 $80 $176 $179 $180 reversed $53 $-1 #
coedge $-1 $181 $182 $80 $120 forward $183 $-1 #
edge $-1 $184 -3.6738190614671318e-016 $185 1.5707963267948963 $119 $186 forward 7 unknown #
face $-1 $-1 $187 $29 $-1 $188 reversed single #
loop $-1 $189 $190 $81 #
plane-surface $-1 -0.0020909090909090886 0.046850000000000017 -1.726950237414057e-018 -1.0263689117147997e-033 1 -5.1318445585739978e-034 0 5.1318445585739978e-034 1 forward_v I I I I #
loop $-1 $-1 $191 $55 #
coedge $-1 $125 $125 $190 $192 forward $82 $-1 #
coedge $-1 $126 $126 $193 $194 reversed $84 $-1 #
coedge $-1 $127 $127 $85 $128 reversed $189 $-1 #
edge $-1 $195 -3.1415926535897931 $195 3.1415926535897931 $85 $196 forward 7 unknown #
pid_name-sg-attrib $-1 $-1 $88 $60 7 114 119 105 108 115 111 110 784252905 629 1 #
model_id-kcp-attrib $-1 $197 $-1 $89 1 990660938 50 842137601 6 #
face $198 $-1 $199 $9 $-1 $200 reversed single #
loop $-1 $201 $202 $89 #
cone-surface $-1 0.0625 0.0046850000000000502 0 0 -1 0 -0.125 0 0 1 I I 0 1 0.125 forward I I I I #
loop $-1 $-1 $203 $60 #
coedge $-1 $135 $135 $93 $137 reversed $90 $-1 #
coedge $-1 $136 $136 $94 $138 forward $92 $-1 #
edge $-1 $204 -6.2831853071795862 $204 0 $135 $205 reversed 7 unknown #
edge $206 $207 -3.1415926535897931 $207 3.1415926535897931 $94 $208 forward 7 unknown #
loop $209 $-1 $95 $131 #
attrib_edge_convexity-kcp-attrib $-1 $210 $-1 $96 1 #
vertex $211 $96 $212 #
ellipse-curve $-1 0.0625 0 0 0 1 0 -0.0625 0 0 1 I I #
convexity-sys-attrib $-1 $-1 $97 $68 #
model_id-kcp-attrib $-1 $-1 $-1 $98 1 990660938 50 842137601 14 #
point $-1 0 -0.093700000000000006 0 #
face $213 $214 $215 $23 $-1 $216 reversed single #
loop $-1 $-1 $217 $101 #
plane-surface $-1 -0.14799999999999999 0 0 1 0 0 0 0 -1 forward_v I I I I #
coedge $-1 $218 $157 $219 $220 forward $102 $-1 #
coedge $-1 $221 $104 $218 $222 forward $70 $-1 #
coedge $-1 $104 $221 $223 $224 forward $70 $-1 #
coedge $-1 $160 $159 $104 $153 reversed $161 $-1 #
edge $-1 $225 -0.046850000000000024 $226 0.046850000000000024 $152 $227 forward 7 unknown #
coedge $-1 $106 $105 $228 $229 forward $47 $-1 #
coedge $-1 $230 $231 $105 $156 reversed $215 $-1 #
edge $-1 $163 -0.14799999999999999 $232 0.14799999999999999 $155 $233 forward 7 unknown #
coedge $-1 $149 $234 $106 $158 reversed $102 $-1 #
edge $-1 $235 -0.14799999999999999 $162 0.14799999999999999 $157 $236 forward 7 unknown #
coedge $-1 $152 $107 $234 $237 forward $161 $-1 #
coedge $-1 $107 $152 $230 $238 reversed $161 $-1 #
loop $-1 $-1 $159 $214 #
vertex $-1 $108 $239 #
vertex $-1 $108 $240 #
straight-curve $-1 0.14799999999999999 0 0.14799999999999999 0 1 0 I I #
coedge $-1 $165 $165 $112 $166 forward $109 $-1 #
edge $-1 $241 0 $241 6.2831853071795862 $165 $242 forward 7 unknown #
vertex $-1 $113 $243 #
ellipse-curve $-1 0 0 -0.046850000000000037 0 0 -1 0.0625 0 0 1 I I #
face $-1 $244 $245 $27 $-1 $246 forward single #
loop $-1 $-1 $247 $114 #
coedge $-1 $248 $249 $247 $250 forward $115 $-1 #
coedge $-1 $251 $116 $252 $253 reversed $79 $-1 #
coedge $-1 $116 $251 $118 $180 forward $79 $-1 #
coedge $-1 $254 $255 $116 $175 forward $256 $-1 #
edge $-1 $257 -3.1415926535897927 $258 -1.5707963267948963 $174 $259 forward 7 unknown #
coedge $-1 $118 $117 $260 $261 reversed $53 $-1 #
coedge $-1 $249 $248 $262 $178 reversed $115 $-1 #
edge $-1 $184 -0.093700000000000006 $263 4.163336342344337e-017 $262 $264 forward 7 unknown #
coedge $-1 $265 $266 $267 $180 forward $268 $-1 #
edge $-1 $185 -0.093700000000000006 $258 4.163336342344337e-017 $179 $269 forward 7 unknown #
coedge $-1 $182 $119 $266 $270 reversed $183 $-1 #
coedge $-1 $119 $181 $271 $272 forward $183 $-1 #
loop $-1 $-1 $119 $273 #
vertex $-1 $274 $275 #
vertex $-1 $276 $277 #
ellipse-curve $-1 0 0.046850000000000024 0 0 -1 0 0.14799999999999999 0 5.4372522109713549e-017 1 I I #
loop $-1 $278 $279 $121 #
plane-surface $-1 -0.0020909090909090886 -0.023849999999999986 -1.726950237414057e-018 -1.0263689117147997e-033 1 -5.1318445585739978e-034 0 5.1318445585739978e-034 1 forward_v I I I I #
loop $-1 $-1 $127 $81 #
coedge $-1 $190 $190 $125 $192 reversed $122 $-1 #
coedge $-1 $191 $191 $279 $280 reversed $124 $-1 #
edge $-1 $281 -3.1415926535897931 $281 3.1415926535897931 $125 $282 forward 7 unknown #
coedge $-1 $193 $193 $126 $194 forward $278 $-1 #
edge $-1 $283 -3.1415926535897931 $283 3.1415926535897931 $126 $284 forward 7 unknown #
vertex $-1 $128 $285 #
ellipse-curve $-1 0 0.04685000000000001 0 0 1 0 -0.125 0 0 1 I I #
pid_name-sg-attrib $-1 $-1 $130 $89 7 114 119 105 108 115 111 110 784252905 630 1 #
model_id-kcp-attrib $-1 $286 $-1 $131 1 990660938 50 842137601 9 #
loop $-1 $139 $287 $131 #
plane-surface $-1 0.0625 0 0 0 -1 0 0 0 -1 forward_v I I I I #
loop $-1 $-1 $288 $89 #
coedge $-1 $202 $202 $287 $289 forward $132 $-1 #
coedge $-1 $203 $203 $288 $290 reversed $134 $-1 #
vertex $-1 $137 $291 #
ellipse-curve $-1 0.0625 -0.070699999999999999 0 0 1 0 -0.14799999999999999 0 0 1 I I #
attrib_edge_convexity-kcp-attrib $-1 $292 $-1 $138 1 #
vertex $-1 $138 $293 #
ellipse-curve $-1 0.0625 -0.093699999999999894 0 -4.6884418269643404e-016 1 0 -0.14799999999999999 -6.9388939039072296e-017 0 1 I I #
model_id-kcp-attrib $-1 $-1 $-1 $139 1 990660938 50 842137601 13 #
convexity-sys-attrib $-1 $-1 $140 $96 #
model_id-kcp-attrib $-1 $-1 $-1 $141 1 990660938 50 842137601 15 #
point $-1 0.125 0 7.6537897113898594e-018 #
model_id-kcp-attrib $-1 $-1 $-1 $146 1 990660938 50 842137602 3 #
face $-1 $-1 $161 $23 $-1 $294 reversed single #
loop $-1 $-1 $230 $146 #
plane-surface $-1 0 0.046850000000000024 0 0 -1 0 0 0 -1 forward_v I I I I #
coedge $-1 $295 $228 $231 $296 forward $147 $-1 #
coedge $-1 $234 $149 $150 $222 reversed $102 $-1 #
coedge $-1 $228 $295 $149 $220 reversed $147 $-1 #
edge $-1 $235 -0.14799999999999999 $297 0.14799999999999999 $219 $298 forward 7 unknown #
coedge $-1 $151 $150 $295 $299 forward $70 $-1 #
edge $-1 $226 -0.14799999999999999 $297 0.14799999999999999 $218 $300 forward 7 unknown #
coedge $-1 $231 $230 $151 $224 reversed $215 $-1 #
edge $-1 $301 -0.14799999999999999 $225 0.14799999999999999 $223 $302 forward 7 unknown #
vertex $-1 $153 $303 #
vertex $-1 $237 $304 #
straight-curve $-1 0.14799999999999999 0 -0.14799999999999999 0 -1 0 I I #
coedge $-1 $217 $219 $154 $229 reversed $147 $-1 #
edge $-1 $232 -0.046850000000000024 $235 0.046850000000000024 $228 $305 forward 7 unknown #
coedge $-1 $223 $155 $160 $238 forward $215 $-1 #
coedge $-1 $155 $223 $217 $296 reversed $215 $-1 #
vertex $-1 $156 $306 #
straight-curve $-1 0 0.046850000000000024 0.14799999999999999 -1 0 0 I I #
coedge $-1 $157 $218 $159 $237 reversed $102 $-1 #
vertex $-1 $229 $307 #
straight-curve $-1 0 -0.046850000000000024 0.14799999999999999 1 0 0 I I #
edge $-1 $162 -0.14799999999999999 $226 0.14799999999999999 $159 $308 forward 7 unknown #
edge $-1 $163 -0.14799999999999999 $225 0.14799999999999999 $160 $309 forward 7 unknown #
point $-1 0.14799999999999999 -0.046850000000000024 0.14799999999999999 #
point $-1 0.14799999999999999 0.046850000000000024 0.14799999999999999 #
vertex $-1 $166 $310 #
ellipse-curve $-1 0 0 0.046850000000000037 0 0 1 0.0625 0 0 1 I I #
point $-1 0.0625 0 -0.046850000000000037 #
face $-1 $311 $312 $27 $-1 $313 reversed single #
loop $-1 $-1 $267 $169 #
plane-surface $-1 0 0 0.14799999999999999 0 0 1 1 0 0 forward_v I I I I #
coedge $-1 $314 $315 $316 $250 reversed $170 $-1 #
coedge $-1 $177 $171 $317 $318 reversed $115 $-1 #
coedge $-1 $171 $177 $319 $320 reversed $115 $-1 #
edge $-1 $321 -0.093700000000000006 $322 4.163336342344337e-017 $316 $323 forward 7 unknown #
coedge $-1 $173 $172 $324 $325 reversed $79 $-1 #
coedge $-1 $326 $327 $328 $253 forward $329 $-1 #
edge $-1 $330 -0.093700000000000006 $257 4.163336342344337e-017 $252 $331 forward 7 unknown #
coedge $-1 $255 $174 $332 $333 reversed $256 $-1 #
coedge $-1 $174 $254 $326 $334 forward $256 $-1 #
loop $-1 $-1 $174 $335 #
vertex $-1 $336 $337 #
vertex $-1 $338 $339 #
ellipse-curve $-1 0 -0.046850000000000024 0 0 1 0 0.14799999999999999 0 5.4372522109713549e-017 1 I I #
coedge $-1 $340 $341 $176 $261 forward $342 $-1 #
edge $-1 $258 -1.5707963267948963 $263 3.6738190614671318e-016 $260 $259 forward 7 unknown #
coedge $-1 $343 $344 $345 $178 forward $312 $-1 #
vertex $-1 $346 $347 #
straight-curve $-1 0.14799999999999999 -0.046849999999999982 0 0 -1 0 I I #
coedge $-1 $348 $179 $341 $338 forward $268 $-1 #
coedge $-1 $179 $348 $181 $270 forward $268 $-1 #
coedge $-1 $349 $332 $173 $180 reversed $245 $-1 #
loop $-1 $-1 $179 $350 #
straight-curve $-1 0 -0.046849999999999982 0.14799999999999999 0 -1 0 I I #
edge $-1 $351 -0.14799999999999999 $185 0 $181 $352 forward 7 unknown #
coedge $-1 $353 $345 $182 $272 reversed $354 $-1 #
edge $-1 $351 -0.14799999999999999 $184 0 $271 $355 forward 7 unknown #
face $-1 $356 $183 $27 $-1 $357 reversed single #
edge $-1 $184 0 $358 0.14799999999999999 $344 $355 forward 7 unknown #
point $-1 0.14799999999999999 0.046850000000000024 0 #
edge $-1 $185 0 $359 0.14799999999999999 $360 $352 forward 7 unknown #
point $-1 0 0.046850000000000024 0.14799999999999999 #
loop $-1 $-1 $193 $121 #
coedge $-1 $279 $279 $191 $280 forward $187 $-1 #
edge $361 $362 -3.1415926535897931 $362 3.1415926535897931 $191 $363 forward 7 unknown #
vertex $-1 $192 $364 #
ellipse-curve $-1 0 0.046850000000000017 0 0 -1 0 0.14799999999999999 0 5.4372522109713549e-017 1 I I #
vertex $-1 $194 $365 #
ellipse-curve $-1 0 -0.023849999999999989 0 0 1 0 -0.125 0 0 1 I I #
point $-1 0.12500000000000003 0.046850000000000024 1.5308084989341894e-017 #
model_id-kcp-attrib $-1 $366 $198 $131 1 990660938 50 842137601 7 #
coedge $-1 $287 $287 $202 $289 reversed $199 $-1 #
coedge $-1 $288 $288 $203 $290 forward $201 $-1 #
edge $-1 $367 -6.2831853071795862 $367 0 $287 $368 reversed 7 unknown #
edge $-1 $369 -3.1415926535897931 $369 3.1415926535897931 $203 $370 forward 7 unknown #
point $-1 -0.085500000000000007 -0.070699999999999999 0 #
convexity-sys-attrib $-1 $-1 $206 $138 #
point $-1 0.21049999999999999 -0.093699999999999894 1.81247726273808e-017 #
plane-surface $-1 0.14799999999999999 0 0 -1 0 0 0 0 1 forward_v I I I I #
coedge $-1 $219 $217 $221 $299 reversed $147 $-1 #
edge $-1 $232 -0.14799999999999999 $301 0.14799999999999999 $231 $371 forward 7 unknown #
vertex $-1 $299 $372 #
straight-curve $-1 -0.14799999999999999 -0.046850000000000024 0 0 0 -1 I I #
edge $-1 $297 -0.046850000000000024 $301 0.046850000000000024 $295 $373 forward 7 unknown #
straight-curve $-1 0 -0.046850000000000024 -0.14799999999999999 -1 0 0 I I #
vertex $-1 $224 $374 #
straight-curve $-1 0 0.046850000000000024 -0.14799999999999999 1 0 0 I I #
point $-1 0.14799999999999999 0.046850000000000024 -0.14799999999999999 #
point $-1 0.14799999999999999 -0.046850000000000024 -0.14799999999999999 #
straight-curve $-1 -0.14799999999999999 0 0.14799999999999999 0 -1 0 I I #
point $-1 -0.14799999999999999 0.046850000000000024 0.14799999999999999 #
point $-1 -0.14799999999999999 -0.046850000000000024 0.14799999999999999 #
straight-curve $-1 0.14799999999999999 -0.046850000000000024 0 0 0 -1 I I #
straight-curve $-1 0.14799999999999999 0.046850000000000024 0 0 0 -1 I I #
point $-1 0.0625 0 0.046850000000000037 #
face $-1 $375 $376 $27 $-1 $377 reversed single #
loop $-1 $-1 $262 $244 #
plane-surface $-1 0.14799999999999999 0 0 -1 0 0 0 0 1 forward_v I I I I #
coedge $-1 $378 $247 $379 $380 reversed $170 $-1 #
coedge $-1 $247 $378 $381 $382 reversed $170 $-1 #
coedge $-1 $383 $384 $385 $250 forward $386 $-1 #
coedge $-1 $387 $388 $248 $318 forward $389 $-1 #
edge $-1 $263 3.6738190614671318e-016 $322 1.570796326794897 $317 $259 forward 7 unknown #
coedge $-1 $390 $391 $249 $320 forward $392 $-1 #
edge $-1 $321 -1.570796326794897 $184 -3.6738190614671318e-016 $319 $186 forward 7 unknown #
vertex $-1 $393 $394 #
vertex $-1 $395 $396 #
straight-curve $-1 0 -0.046849999999999982 -0.14799999999999999 0 -1 0 I I #
coedge $-1 $397 $360 $251 $325 forward $398 $-1 #
edge $-1 $185 1.5707963267948963 $330 3.1415926535897927 $324 $186 forward 7 unknown #
coedge $-1 $399 $252 $255 $334 reversed $329 $-1 #
coedge $-1 $252 $399 $397 $400 forward $329 $-1 #
coedge $-1 $401 $402 $378 $253 reversed $376 $-1 #
loop $-1 $-1 $252 $403 #
vertex $-1 $404 $405 #
straight-curve $-1 -0.14799999999999999 -0.046849999999999982 0 0 -1 0 I I #
coedge $-1 $267 $406 $254 $333 forward $245 $-1 #
edge $-1 $407 -0.14799999999999999 $258 0 $254 $408 forward 7 unknown #
edge $-1 $407 -0.14799999999999999 $257 0 $326 $409 forward 7 unknown #
face $-1 $410 $256 $27 $-1 $411 reversed single #
edge $-1 $257 0 $412 0.14799999999999999 $402 $409 forward 7 unknown #
point $-1 -0.14799999999999999 -0.046850000000000024 0 #
edge $-1 $258 0 $413 0.14799999999999999 $341 $408 forward 7 unknown #
point $-1 0 -0.046850000000000024 0.14799999999999999 #
coedge $-1 $341 $260 $414 $415 reversed $342 $-1 #
coedge $-1 $260 $340 $265 $338 reversed $342 $-1 #
loop $-1 $-1 $260 $410 #
coedge $-1 $416 $262 $388 $346 forward $312 $-1 #
coedge $-1 $262 $416 $390 $274 reversed $312 $-1 #
coedge $-1 $271 $414 $117 $178 reversed $354 $-1 #
edge $-1 $263 0 $417 0.14799999999999999 $343 $418 forward 7 unknown #
point $-1 0.14799999999999999 -0.046850000000000024 0 #
coedge $-1 $266 $265 $353 $419 forward $268 $-1 #
coedge $-1 $406 $267 $360 $276 forward $245 $-1 #
face $-1 $420 $268 $27 $-1 $246 forward single #
vertex $-1 $419 $421 #
straight-curve $-1 0 0.046850000000000024 0.14799999999999999 -1 0 0 I I #
coedge $-1 $414 $271 $348 $419 reversed $354 $-1 #
loop $-1 $-1 $345 $422 #
straight-curve $-1 0.14799999999999999 0.046850000000000024 0 0 0 -1 I I #
face $-1 $423 $398 $27 $-1 $357 reversed single #
plane-surface $-1 0 0.046850000000000024 0 0 -1 0 0 0 -1 forward_v I I I I #
vertex $-1 $424 $425 #
vertex $-1 $276 $426 #
coedge $-1 $324 $397 $349 $276 reversed $398 $-1 #
convexity-sys-attrib $-1 $-1 $-1 $280 #
vertex $-1 $280 $427 #
ellipse-curve $-1 0 -0.023849999999999982 0 0 -1 0 0.14799999999999999 0 5.4372522109713549e-017 1 I I #
point $-1 -0.14799999999999999 0.046850000000000017 -7.2496696146284732e-017 #
point $-1 0.125 -0.023849999999999975 1.53080849893419e-017 #
pid_name-sg-attrib $-1 $-1 $286 $131 7 114 119 105 108 115 111 110 784252905 631 1 #
vertex $-1 $289 $428 #
ellipse-curve $-1 0.0625 0 0 0 1 0 -0.125 0 0 1 I I #
vertex $-1 $290 $429 #
ellipse-curve $-1 0.0625 -0.070699999999999999 0 -1.11022302462516e-016 1 0 -0.125 -1.38777878078145e-017 0 1 I I #
straight-curve $-1 -0.14799999999999999 0.046850000000000024 0 0 0 -1 I I #
point $-1 -0.14799999999999999 -0.046850000000000024 -0.14799999999999999 #
straight-curve $-1 -0.14799999999999999 0 -0.14799999999999999 0 1 0 I I #
point $-1 -0.14799999999999999 0.046850000000000024 -0.14799999999999999 #
face $-1 $335 $430 $27 $-1 $411 reversed single #
loop $-1 $-1 $328 $311 #
plane-surface $-1 -0.14799999999999999 0 0 1 0 0 0 0 -1 forward_v I I I I #
coedge $-1 $315 $314 $172 $253 forward $170 $-1 #
coedge $-1 $431 $432 $314 $380 forward $433 $-1 #
edge $-1 $330 -3.1415926535897936 $321 -1.570796326794897 $379 $186 forward 7 unknown #
coedge $-1 $434 $435 $315 $382 forward $430 $-1 #
edge $-1 $322 1.570796326794897 $257 3.1415926535897936 $381 $259 forward 7 unknown #
coedge $-1 $436 $316 $435 $395 forward $386 $-1 #
coedge $-1 $316 $436 $431 $437 forward $386 $-1 #
coedge $-1 $438 $439 $171 $250 reversed $440 $-1 #
loop $-1 $-1 $316 $420 #
coedge $-1 $388 $317 $439 $441 reversed $389 $-1 #
coedge $-1 $317 $387 $343 $346 reversed $389 $-1 #
loop $-1 $-1 $317 $442 #
coedge $-1 $391 $319 $344 $274 forward $392 $-1 #
coedge $-1 $319 $390 $438 $393 reversed $392 $-1 #
loop $-1 $-1 $319 $443 #
edge $-1 $321 0 $358 0.14799999999999999 $391 $444 forward 7 unknown #
point $-1 0 0.046850000000000024 -0.14799999999999999 #
edge $-1 $322 0 $412 0.14799999999999999 $435 $445 forward 7 unknown #
point $-1 0 -0.046850000000000024 -0.14799999999999999 #
coedge $-1 $360 $324 $327 $400 reversed $398 $-1 #
loop $-1 $-1 $324 $356 #
coedge $-1 $327 $326 $406 $446 reversed $329 $-1 #
edge $-1 $359 -0.14799999999999999 $330 0 $397 $447 forward 7 unknown #
coedge $-1 $448 $328 $432 $404 forward $376 $-1 #
coedge $-1 $328 $448 $434 $336 reversed $376 $-1 #
face $-1 $422 $329 $27 $-1 $377 reversed single #
edge $-1 $330 0 $449 0.14799999999999999 $432 $447 forward 7 unknown #
point $-1 -0.14799999999999999 0.046850000000000024 0 #
coedge $-1 $332 $349 $399 $446 forward $245 $-1 #
vertex $-1 $446 $450 #
straight-curve $-1 0 -0.046850000000000024 0.14799999999999999 1 0 0 I I #
straight-curve $-1 -0.14799999999999999 -0.046850000000000024 0 0 0 -1 I I #
face $-1 $442 $342 $27 $-1 $411 reversed single #
plane-surface $-1 0 -0.046850000000000024 0 0 1 0 0 0 1 forward_v I I I I #
vertex $-1 $451 $452 #
vertex $-1 $419 $453 #
coedge $-1 $345 $353 $340 $415 forward $354 $-1 #
edge $-1 $413 -0.14799999999999999 $263 0 $414 $418 forward 7 unknown #
coedge $-1 $344 $343 $454 $424 reversed $312 $-1 #
vertex $-1 $346 $455 #
straight-curve $-1 0.14799999999999999 -0.046850000000000024 0 0 0 -1 I I #
edge $-1 $413 -0.046850000000000024 $351 0.046850000000000024 $353 $456 forward 7 unknown #
face $-1 $403 $386 $27 $-1 $457 reversed single #
point $-1 0.14799999999999999 0.046850000000000024 0.14799999999999999 #
face $-1 $-1 $354 $27 $-1 $313 reversed single #
face $-1 $458 $433 $27 $-1 $357 reversed single #
edge $-1 $358 -0.046850000000000024 $417 0.046850000000000024 $416 $459 forward 7 unknown #
point $-1 0.14799999999999999 0.046850000000000024 -0.14799999999999999 #
point $-1 -0.14799999999999999 0.046850000000000024 0.14799999999999999 #
point $-1 -0.14799999999999999 -0.023849999999999982 -7.2496696146284732e-017 #
point $-1 -0.0625 0 0 #
point $-1 0.1875 -0.070699999999999999 1.53080849893419e-017 #
loop $-1 $-1 $381 $375 #
coedge $-1 $432 $379 $384 $437 reversed $433 $-1 #
coedge $-1 $379 $431 $401 $404 reversed $433 $-1 #
loop $-1 $-1 $379 $423 #
coedge $-1 $435 $381 $402 $336 forward $430 $-1 #
coedge $-1 $381 $434 $383 $395 reversed $430 $-1 #
coedge $-1 $384 $383 $448 $451 forward $386 $-1 #
edge $-1 $449 -0.14799999999999999 $321 0 $431 $444 forward 7 unknown #
coedge $-1 $454 $385 $391 $393 forward $440 $-1 #
coedge $-1 $385 $454 $387 $441 forward $440 $-1 #
loop $-1 $-1 $385 $458 #
edge $-1 $417 -0.14799999999999999 $322 0 $387 $445 forward 7 unknown #
face $-1 $443 $389 $27 $-1 $411 reversed single #
face $-1 $273 $392 $27 $-1 $357 reversed single #
straight-curve $-1 0 0.046850000000000024 -0.14799999999999999 1 0 0 I I #
straight-curve $-1 0 -0.046850000000000024 -0.14799999999999999 -1 0 0 I I #
edge $-1 $359 -0.046850000000000024 $407 0.046850000000000024 $399 $460 forward 7 unknown #
straight-curve $-1 -0.14799999999999999 0.046850000000000024 0 0 0 -1 I I #
coedge $-1 $402 $401 $436 $451 reversed $376 $-1 #
vertex $-1 $437 $461 #
point $-1 -0.14799999999999999 -0.046850000000000024 0.14799999999999999 #
edge $-1 $412 -0.046850000000000024 $449 0.046850000000000024 $448 $462 forward 7 unknown #
point $-1 -0.14799999999999999 -0.046850000000000024 -0.14799999999999999 #
point $-1 0.14799999999999999 -0.046850000000000024 0.14799999999999999 #
coedge $-1 $439 $438 $416 $424 forward $440 $-1 #
point $-1 0.14799999999999999 -0.046850000000000024 -0.14799999999999999 #
straight-curve $-1 0.14799999999999999 0 0.14799999999999999 0 1 0 I I #
plane-surface $-1 0 0 -0.14799999999999999 0 0 1 1 0 0 forward_v I I I I #
face $-1 $350 $440 $27 $-1 $457 reversed single #
straight-curve $-1 0.14799999999999999 0 -0.14799999999999999 0 -1 0 I I #
straight-curve $-1 -0.14799999999999999 0 0.14799999999999999 0 -1 0 I I #
point $-1 -0.14799999999999999 0.046850000000000024 -0.14799999999999999 #
straight-curve $-1 -0.14799999999999999 0 -0.14799999999999999 0 1 0 I I #
End-of-ACIS-data 