600 0 2 0           
24 FBMach with ACIS - 6.0.3 13 ACIS 6.0.3 NT 24 Mon Apr 01 16:20:44 2002 
1 9.9999999999999995e-007 1e-010 
body $2 $3 $-1 $4 #
bdycol-kcp $-1 1 4 $5 $6 $7 $8 #
model_id-kcp-attrib $-1 $9 $-1 $0 1 1017696043 60 -969146367 1 #
lump $-1 $-1 $10 $0 #
transform $-1 1 0 0 0 1 0 0 0 1 0 0 0 1 rotate no_reflect no_shear #
body $11 $12 $-1 $13 #
body $14 $15 $-1 $16 #
body $17 $18 $-1 $19 #
body $20 $21 $-1 $22 #
aggregate_advspl_attribute-aggregate_geombuild_base_attribute-aggregate_body_attribute-attrib_HH-attrib $-1 $23 $2 $0 F #
shell $-1 $-1 $-1 $24 $-1 $3 #
model_id-kcp-attrib $-1 $-1 $-1 $5 1 1017696043 60 -969146366 1 #
lump $-1 $-1 $25 $5 #
transform $-1 1 0 0 0 1 0 0 0 1 0.0625 -0.046850000000000024 0 1 no_rotate no_reflect no_shear #
rgb_color-st-attrib $-1 $26 $-1 $6 0.5 1 1 #
lump $-1 $-1 $27 $6 #
transform $-1 1 0 0 0 -3.8285889215894375e-016 1 0 -1 -3.8285889215894375e-016 0.0625 -0.046850000000000017 -1.9730633007411191e-017 1 rotate no_reflect no_shear #
rgb_color-st-attrib $-1 $28 $-1 $7 0.5 1 1 #
lump $-1 $-1 $29 $7 #
transform $-1 1 0 0 0 1 0 0 0 1 0.0625 -0.046850000000000024 0 1 no_rotate no_reflect no_shear #
rgb_color-st-attrib $-1 $30 $-1 $8 1 0.5 1 #
lump $-1 $-1 $31 $8 #
transform $-1 1 0 0 0 1 0 0 0 1 0.0625 -0.046850000000000024 0 1 no_rotate no_reflect no_shear #
aggregate_secndry_attribute-aggregate_geombuild_base_attribute-aggregate_body_attribute-attrib_HH-attrib $-1 $32 $9 $0 F #
face $33 $34 $35 $10 $-1 $36 reversed single #
shell $-1 $-1 $-1 $37 $-1 $12 #
model_id-kcp-attrib $-1 $-1 $14 $6 1 1017696043 80 -967835645 1 #
shell $-1 $-1 $-1 $38 $-1 $15 #
model_id-kcp-attrib $-1 $-1 $17 $7 1 1017696043 140 -963903484 1 #
shell $-1 $-1 $-1 $39 $-1 $18 #
model_id-kcp-attrib $-1 $-1 $20 $8 1 1017696043 230 -958005243 1 #
shell $-1 $-1 $-1 $40 $-1 $21 #
aggregate_sharped_attribute-aggregate_geombuild_base_attribute-aggregate_body_attribute-attrib_HH-attrib $-1 $41 $23 $0 F #
model_id-kcp-attrib $-1 $42 $-1 $24 1 1017696043 60 -969146367 2 #
face $43 $44 $45 $10 $-1 $46 forward single #
loop $47 $48 $49 $24 #
cone-surface $-1 0.0625 0.0046850000000000502 0 0 -1 0 -0.0625 0 0 1 I I 0 1 0.0625 forward I I I I #
face $-1 $50 $51 $25 $-1 $52 forward single #
face $-1 $53 $54 $27 $-1 $55 forward single #
face $-1 $56 $57 $29 $-1 $58 reversed single #
face $-1 $59 $60 $31 $-1 $61 forward single #
aggregate_reblend_attribute-aggregate_geombuild_base_attribute-aggregate_body_attribute-attrib_HH-attrib $-1 $62 $32 $0 F #
attrib_hh_face_geombuild-attrib_entity_geombuild-individual_entity_attribute-attrib_HH-attrib $-1 $63 $33 $24 F #
model_id-kcp-attrib $-1 $64 $-1 $34 1 1017696043 60 -969146367 8 #
face $65 $66 $67 $10 $-1 $68 forward single #
loop $69 $70 $71 $34 #
plane-surface $-1 0.0625 -0.093700000000000006 0 0 -1 0 0 0 -1 forward_v I I I I #
model_id-kcp-attrib $-1 $-1 $-1 $35 1 1017696043 60 -969146367 10 #
loop $72 $-1 $73 $24 #
coedge $74 $49 $49 $71 $75 forward $35 $-1 #
face $-1 $76 $77 $25 $-1 $78 reversed single #
loop $-1 $-1 $79 $37 #
plane-surface $-1 0 0 0.14799999999999999 0 0 1 1 0 0 forward_v I I I I #
face $-1 $80 $81 $27 $-1 $82 forward single #
loop $-1 $83 $84 $38 #
cone-surface $-1 0 0 0 0 0 1 0.0625 0 0 1 I I 0 1 0.0625 forward I I I I #
face $-1 $85 $86 $29 $-1 $58 reversed single #
loop $-1 $-1 $87 $39 #
cone-surface $-1 0 -0.046849999999999982 0 0 -1 0 0.14799999999999999 0 5.4372522109713549e-017 1 I I 0 1 0.14799999999999999 forward I I I I #
face $-1 $88 $89 $31 $-1 $90 forward single #
loop $-1 $91 $92 $40 #
cone-surface $-1 0 -0.023849999999999989 0 0 1 0 -0.125 0 0 1 I I 0 -1 0.125 forward I I I I #
aggregate_isospline_attribute-aggregate_geombuild_base_attribute-aggregate_body_attribute-attrib_HH-attrib $-1 $93 $41 $0 F #
pid_name-sg-attrib $-1 $-1 $42 $24 7 rwilson 784252905 626 1 #
model_id-kcp-attrib $-1 $94 $43 $34 1 1017696043 60 -969146367 3 #
model_id-kcp-attrib $-1 $95 $-1 $44 1 1017696043 60 -969146367 4 #
face $96 $97 $98 $10 $-1 $99 reversed single #
loop $-1 $100 $101 $44 #
cone-surface $-1 0.0625 0.0046850000000000502 0 0 -1 0 -0.14799999999999999 0 0 1 I I 0 1 0.14799999999999999 forward I I I I #
model_id-kcp-attrib $-1 $-1 $-1 $45 1 1017696043 60 -969146367 12 #
loop $-1 $-1 $102 $34 #
coedge $103 $71 $71 $49 $75 reversed $45 $-1 #
model_id-kcp-attrib $-1 $-1 $-1 $48 1 1017696043 60 -969146367 11 #
coedge $104 $73 $73 $105 $106 forward $48 $-1 #
attrib_hh_coedge_geombuild-attrib_entity_geombuild-individual_entity_attribute-attrib_HH-attrib $-1 $-1 $-1 $49 F #
edge $107 $108 -6.2831853071795862 $108 0 $71 $109 reversed 7 unknown #
face $110 $111 $112 $25 $-1 $113 reversed single #
loop $-1 $-1 $114 $50 #
plane-surface $-1 0 0 -0.14799999999999999 0 0 1 1 0 0 forward_v I I I I #
coedge $-1 $115 $116 $117 $118 forward $51 $-1 #
face $-1 $-1 $119 $27 $-1 $120 forward single #
loop $-1 $-1 $121 $53 #
plane-surface $-1 0 0 -0.046850000000000037 0 0 -1 -1 0 0 forward_v I I I I #
loop $-1 $-1 $122 $38 #
coedge $-1 $84 $84 $121 $123 reversed $54 $-1 #
face $-1 $124 $125 $29 $-1 $58 reversed single #
loop $-1 $-1 $126 $56 #
coedge $-1 $127 $128 $129 $130 reversed $57 $-1 #
face $-1 $131 $132 $31 $-1 $133 forward single #
loop $-1 $134 $135 $59 #
cone-surface $-1 0 -0.023849999999999982 0 0 1 0 0.14799999999999999 0 5.4372522109713549e-017 1 I I 0 1 0.14799999999999999 forward I I I I #
loop $-1 $-1 $136 $40 #
coedge $-1 $92 $92 $137 $138 forward $60 $-1 #
aggregate_analytic_solver_attribute-aggregate_geombuild_base_attribute-aggregate_body_attribute-attrib_HH-attrib $-1 $139 $62 $0 F #
attrib_hh_face_geombuild-attrib_entity_geombuild-individual_entity_attribute-attrib_HH-attrib $-1 $140 $64 $34 F #
attrib_hh_face_geombuild-attrib_entity_geombuild-individual_entity_attribute-attrib_HH-attrib $-1 $141 $65 $44 F #
model_id-kcp-attrib $-1 $142 $-1 $66 1 1017696043 60 -969146367 5 #
face $143 $144 $145 $10 $-1 $146 forward single #
loop $-1 $147 $148 $66 #
plane-surface $-1 0.0625 -0.070699999999999999 0 0 -1 0 0 0 -1 forward_v I I I I #
loop $-1 $-1 $149 $44 #
coedge $150 $101 $101 $148 $151 forward $67 $-1 #
coedge $152 $102 $102 $149 $153 reversed $70 $-1 #
attrib_hh_coedge_geombuild-attrib_entity_geombuild-individual_entity_attribute-attrib_HH-attrib $-1 $-1 $-1 $71 F #
attrib_hh_coedge_geombuild-attrib_entity_geombuild-individual_entity_attribute-attrib_HH-attrib $-1 $-1 $-1 $73 F #
coedge $154 $105 $105 $73 $106 reversed $155 $-1 #
edge $156 $157 -3.1415926535897931 $157 3.1415926535897931 $105 $158 forward 7 unknown #
attrib_edge_convexity-kcp-attrib $-1 $159 $-1 $75 1 #
vertex $160 $75 $161 #
ellipse-curve $-1 0.0625 -0.093700000000000006 0 -6.6613381477509402e-016 1 0 -0.0625 -4.1633363423443401e-017 0 1 I I #
model_id-kcp-attrib $-1 $-1 $-1 $76 1 1017696043 60 -969146366 2 #
face $-1 $162 $163 $25 $-1 $164 reversed single #
loop $-1 $-1 $165 $76 #
plane-surface $-1 0 -0.046850000000000024 0 0 1 0 0 0 1 forward_v I I I I #
coedge $-1 $166 $167 $168 $169 forward $77 $-1 #
coedge $-1 $170 $79 $171 $172 forward $51 $-1 #
coedge $-1 $79 $170 $173 $174 forward $51 $-1 #
coedge $-1 $175 $176 $79 $118 reversed $177 $-1 #
edge $-1 $178 -0.046850000000000024 $179 0.046850000000000024 $117 $180 forward 7 unknown #
loop $-1 $-1 $181 $80 #
plane-surface $-1 0 0 0.046850000000000037 0 0 1 1 0 0 forward_v I I I I #
coedge $-1 $121 $121 $84 $123 forward $81 $-1 #
coedge $-1 $122 $122 $181 $182 reversed $83 $-1 #
edge $-1 $183 0 $183 6.2831853071795862 $121 $184 forward 7 unknown #
face $-1 $185 $186 $29 $-1 $58 reversed single #
loop $-1 $-1 $187 $85 #
coedge $-1 $188 $189 $190 $191 reversed $86 $-1 #
coedge $-1 $192 $87 $193 $194 forward $57 $-1 #
coedge $-1 $87 $192 $195 $196 reversed $57 $-1 #
coedge $-1 $197 $198 $87 $130 forward $199 $-1 #
edge $-1 $200 -3.6738190614671318e-016 $201 1.5707963267948963 $129 $202 forward 7 unknown #
face $-1 $-1 $203 $31 $-1 $204 reversed single #
loop $-1 $205 $206 $88 #
plane-surface $-1 -0.0020909090909090886 0.046850000000000017 -1.726950237414057e-018 -1.0263689117147997e-033 1 -5.1318445585739978e-034 0 5.1318445585739978e-034 1 forward_v I I I I #
loop $-1 $-1 $207 $59 #
coedge $-1 $135 $135 $206 $208 forward $89 $-1 #
coedge $-1 $136 $136 $209 $210 reversed $91 $-1 #
coedge $-1 $137 $137 $92 $138 reversed $205 $-1 #
edge $-1 $211 -3.1415926535897931 $211 3.1415926535897931 $92 $212 forward 7 unknown #
aggregate_geombuild_attribute-aggregate_geombuild_base_attribute-aggregate_body_attribute-attrib_HH-attrib $-1 $213 $93 $0 #
pid_name-sg-attrib $-1 $-1 $94 $34 7 rwilson 784252905 627 1 #
pid_name-sg-attrib $-1 $-1 $95 $44 7 rwilson 784252905 628 1 #
attrib_hh_face_geombuild-attrib_entity_geombuild-individual_entity_attribute-attrib_HH-attrib $-1 $214 $96 $66 F #
model_id-kcp-attrib $-1 $215 $-1 $97 1 1017696043 60 -969146367 6 #
face $216 $-1 $217 $10 $-1 $218 reversed single #
loop $-1 $219 $220 $97 #
cone-surface $-1 0.0625 0.0046850000000000502 0 0 -1 0 -0.125 0 0 1 I I 0 1 0.125 forward I I I I #
loop $-1 $-1 $221 $66 #
coedge $222 $148 $148 $101 $151 reversed $98 $-1 #
coedge $223 $149 $149 $102 $153 forward $100 $-1 #
attrib_hh_coedge_geombuild-attrib_entity_geombuild-individual_entity_attribute-attrib_HH-attrib $-1 $-1 $-1 $101 F #
edge $224 $225 -6.2831853071795862 $225 0 $148 $226 reversed 7 unknown #
attrib_hh_coedge_geombuild-attrib_entity_geombuild-individual_entity_attribute-attrib_HH-attrib $-1 $-1 $-1 $102 F #
edge $227 $228 -3.1415926535897931 $228 3.1415926535897931 $102 $229 forward 7 unknown #
attrib_hh_coedge_geombuild-attrib_entity_geombuild-individual_entity_attribute-attrib_HH-attrib $-1 $-1 $-1 $105 F #
loop $230 $-1 $105 $144 #
attrib_edge_convexity-kcp-attrib $-1 $231 $-1 $106 1 #
vertex $232 $106 $233 #
ellipse-curve $-1 0.0625 0 0 0 1 0 -0.0625 0 0 1 I I #
convexity-sys-attrib $-1 $234 $107 $75 #
model_id-kcp-attrib $-1 $235 $-1 $108 1 1017696043 60 -969146367 14 #
point $-1 0 -0.093700000000000006 0 #
face $236 $237 $238 $25 $-1 $239 reversed single #
loop $-1 $-1 $240 $111 #
plane-surface $-1 -0.14799999999999999 0 0 1 0 0 0 0 -1 forward_v I I I I #
coedge $-1 $241 $173 $242 $243 forward $112 $-1 #
coedge $-1 $244 $114 $241 $245 forward $77 $-1 #
coedge $-1 $114 $244 $246 $247 forward $77 $-1 #
coedge $-1 $176 $175 $114 $169 reversed $177 $-1 #
edge $-1 $248 -0.046850000000000024 $249 0.046850000000000024 $168 $250 forward 7 unknown #
coedge $-1 $116 $115 $251 $252 forward $51 $-1 #
coedge $-1 $253 $254 $115 $172 reversed $238 $-1 #
edge $-1 $179 -0.14799999999999999 $255 0.14799999999999999 $171 $256 forward 7 unknown #
coedge $-1 $165 $257 $116 $174 reversed $112 $-1 #
edge $-1 $258 -0.14799999999999999 $178 0.14799999999999999 $173 $259 forward 7 unknown #
coedge $-1 $168 $117 $257 $260 forward $177 $-1 #
coedge $-1 $117 $168 $253 $261 reversed $177 $-1 #
loop $-1 $-1 $175 $237 #
vertex $-1 $118 $262 #
vertex $-1 $118 $263 #
straight-curve $-1 0.14799999999999999 0 0.14799999999999999 0 1 0 I I #
coedge $-1 $181 $181 $122 $182 forward $119 $-1 #
edge $-1 $264 0 $264 6.2831853071795862 $181 $265 forward 7 unknown #
vertex $-1 $123 $266 #
ellipse-curve $-1 0 0 -0.046850000000000037 0 0 -1 0.0625 0 0 1 I I #
face $-1 $267 $268 $29 $-1 $269 forward single #
loop $-1 $-1 $270 $124 #
coedge $-1 $271 $272 $270 $273 forward $125 $-1 #
coedge $-1 $274 $126 $275 $276 reversed $86 $-1 #
coedge $-1 $126 $274 $128 $196 forward $86 $-1 #
coedge $-1 $277 $278 $126 $191 forward $279 $-1 #
edge $-1 $280 -3.1415926535897927 $281 -1.5707963267948963 $190 $282 forward 7 unknown #
coedge $-1 $128 $127 $283 $284 reversed $57 $-1 #
coedge $-1 $272 $271 $285 $194 reversed $125 $-1 #
edge $-1 $200 -0.093700000000000006 $286 4.163336342344337e-017 $285 $287 forward 7 unknown #
coedge $-1 $288 $289 $290 $196 forward $291 $-1 #
edge $-1 $201 -0.093700000000000006 $281 4.163336342344337e-017 $195 $292 forward 7 unknown #
coedge $-1 $198 $129 $289 $293 reversed $199 $-1 #
coedge $-1 $129 $197 $294 $295 forward $199 $-1 #
loop $-1 $-1 $129 $296 #
vertex $-1 $297 $298 #
vertex $-1 $299 $300 #
ellipse-curve $-1 0 0.046850000000000024 0 0 -1 0 0.14799999999999999 0 5.4372522109713549e-017 1 I I #
loop $-1 $301 $302 $131 #
plane-surface $-1 -0.0020909090909090886 -0.023849999999999986 -1.726950237414057e-018 -1.0263689117147997e-033 1 -5.1318445585739978e-034 0 5.1318445585739978e-034 1 forward_v I I I I #
loop $-1 $-1 $137 $88 #
coedge $-1 $206 $206 $135 $208 reversed $132 $-1 #
coedge $-1 $207 $207 $302 $303 reversed $134 $-1 #
edge $-1 $304 -3.1415926535897931 $304 3.1415926535897931 $135 $305 forward 7 unknown #
coedge $-1 $209 $209 $136 $210 forward $301 $-1 #
edge $-1 $306 -3.1415926535897931 $306 3.1415926535897931 $136 $307 forward 7 unknown #
vertex $-1 $138 $308 #
ellipse-curve $-1 0 0.04685000000000001 0 0 1 0 -0.125 0 0 1 I I #
aggregate_stitch_attribute-aggregate_stitch_base_attribute-aggregate_body_attribute-attrib_HH-attrib $-1 $309 $139 $0 F #
pid_name-sg-attrib $-1 $-1 $142 $66 7 rwilson 784252905 629 1 #
attrib_hh_face_geombuild-attrib_entity_geombuild-individual_entity_attribute-attrib_HH-attrib $-1 $310 $143 $97 F #
model_id-kcp-attrib $-1 $311 $-1 $144 1 1017696043 60 -969146367 9 #
loop $-1 $155 $312 $144 #
plane-surface $-1 0.0625 0 0 0 -1 0 0 0 -1 forward_v I I I I #
loop $-1 $-1 $313 $97 #
coedge $314 $220 $220 $312 $315 forward $145 $-1 #
coedge $316 $221 $221 $313 $317 reversed $147 $-1 #
attrib_hh_coedge_geombuild-attrib_entity_geombuild-individual_entity_attribute-attrib_HH-attrib $-1 $-1 $-1 $148 F #
attrib_hh_coedge_geombuild-attrib_entity_geombuild-individual_entity_attribute-attrib_HH-attrib $-1 $-1 $-1 $149 F #
attrib_hh_edge_geombuild-attrib_entity_geombuild-individual_entity_attribute-attrib_HH-attrib $-1 $-1 $-1 $151 F #
vertex $318 $151 $319 #
ellipse-curve $-1 0.0625 -0.070699999999999999 0 0 1 0 -0.14799999999999999 0 0 1 I I #
attrib_edge_convexity-kcp-attrib $-1 $320 $-1 $153 1 #
vertex $321 $153 $322 #
ellipse-curve $-1 0.0625 -0.093699999999999894 0 -4.6884418269643404e-016 1 0 -0.14799999999999999 -6.9388939039072296e-017 0 1 I I #
model_id-kcp-attrib $-1 $-1 $-1 $155 1 1017696043 60 -969146367 13 #
convexity-sys-attrib $-1 $323 $156 $106 #
model_id-kcp-attrib $-1 $324 $-1 $157 1 1017696043 60 -969146367 15 #
point $-1 0.125 0 7.6537897113898594e-018 #
attrib_hh_edge_geombuild-attrib_entity_geombuild-individual_entity_attribute-attrib_HH-attrib $-1 $-1 $159 $75 F #
attrib_hh_vertex_geombuild-attrib_entity_geombuild-individual_entity_attribute-attrib_HH-attrib $-1 $-1 $160 $108 F #
model_id-kcp-attrib $-1 $-1 $-1 $162 1 1017696043 60 -969146366 3 #
face $-1 $-1 $177 $25 $-1 $325 reversed single #
loop $-1 $-1 $253 $162 #
plane-surface $-1 0 0.046850000000000024 0 0 -1 0 0 0 -1 forward_v I I I I #
coedge $-1 $326 $251 $254 $327 forward $163 $-1 #
coedge $-1 $257 $165 $166 $245 reversed $112 $-1 #
coedge $-1 $251 $326 $165 $243 reversed $163 $-1 #
edge $-1 $258 -0.14799999999999999 $328 0.14799999999999999 $242 $329 forward 7 unknown #
coedge $-1 $167 $166 $326 $330 forward $77 $-1 #
edge $-1 $249 -0.14799999999999999 $328 0.14799999999999999 $241 $331 forward 7 unknown #
coedge $-1 $254 $253 $167 $247 reversed $238 $-1 #
edge $-1 $332 -0.14799999999999999 $248 0.14799999999999999 $246 $333 forward 7 unknown #
vertex $-1 $169 $334 #
vertex $-1 $260 $335 #
straight-curve $-1 0.14799999999999999 0 -0.14799999999999999 0 -1 0 I I #
coedge $-1 $240 $242 $170 $252 reversed $163 $-1 #
edge $-1 $255 -0.046850000000000024 $258 0.046850000000000024 $251 $336 forward 7 unknown #
coedge $-1 $246 $171 $176 $261 forward $238 $-1 #
coedge $-1 $171 $246 $240 $327 reversed $238 $-1 #
vertex $-1 $172 $337 #
straight-curve $-1 0 0.046850000000000024 0.14799999999999999 -1 0 0 I I #
coedge $-1 $173 $241 $175 $260 reversed $112 $-1 #
vertex $-1 $252 $338 #
straight-curve $-1 0 -0.046850000000000024 0.14799999999999999 1 0 0 I I #
edge $-1 $178 -0.14799999999999999 $249 0.14799999999999999 $175 $339 forward 7 unknown #
edge $-1 $179 -0.14799999999999999 $248 0.14799999999999999 $176 $340 forward 7 unknown #
point $-1 0.14799999999999999 -0.046850000000000024 0.14799999999999999 #
point $-1 0.14799999999999999 0.046850000000000024 0.14799999999999999 #
vertex $-1 $182 $341 #
ellipse-curve $-1 0 0 0.046850000000000037 0 0 1 0.0625 0 0 1 I I #
point $-1 0.0625 0 -0.046850000000000037 #
face $-1 $342 $343 $29 $-1 $344 reversed single #
loop $-1 $-1 $290 $185 #
plane-surface $-1 0 0 0.14799999999999999 0 0 1 1 0 0 forward_v I I I I #
coedge $-1 $345 $346 $347 $273 reversed $186 $-1 #
coedge $-1 $193 $187 $348 $349 reversed $125 $-1 #
coedge $-1 $187 $193 $350 $351 reversed $125 $-1 #
edge $-1 $352 -0.093700000000000006 $353 4.163336342344337e-017 $347 $354 forward 7 unknown #
coedge $-1 $189 $188 $355 $356 reversed $86 $-1 #
coedge $-1 $357 $358 $359 $276 forward $360 $-1 #
edge $-1 $361 -0.093700000000000006 $280 4.163336342344337e-017 $275 $362 forward 7 unknown #
coedge $-1 $278 $190 $363 $364 reversed $279 $-1 #
coedge $-1 $190 $277 $357 $365 forward $279 $-1 #
loop $-1 $-1 $190 $366 #
vertex $-1 $367 $368 #
vertex $-1 $369 $370 #
ellipse-curve $-1 0 -0.046850000000000024 0 0 1 0 0.14799999999999999 0 5.4372522109713549e-017 1 I I #
coedge $-1 $371 $372 $192 $284 forward $373 $-1 #
edge $-1 $281 -1.5707963267948963 $286 3.6738190614671318e-016 $283 $282 forward 7 unknown #
coedge $-1 $374 $375 $376 $194 forward $343 $-1 #
vertex $-1 $377 $378 #
straight-curve $-1 0.14799999999999999 -0.046849999999999982 0 0 -1 0 I I #
coedge $-1 $379 $195 $372 $369 forward $291 $-1 #
coedge $-1 $195 $379 $197 $293 forward $291 $-1 #
coedge $-1 $380 $363 $189 $196 reversed $268 $-1 #
loop $-1 $-1 $195 $381 #
straight-curve $-1 0 -0.046849999999999982 0.14799999999999999 0 -1 0 I I #
edge $-1 $382 -0.14799999999999999 $201 0 $197 $383 forward 7 unknown #
coedge $-1 $384 $376 $198 $295 reversed $385 $-1 #
edge $-1 $382 -0.14799999999999999 $200 0 $294 $386 forward 7 unknown #
face $-1 $387 $199 $29 $-1 $388 reversed single #
edge $-1 $200 0 $389 0.14799999999999999 $375 $386 forward 7 unknown #
point $-1 0.14799999999999999 0.046850000000000024 0 #
edge $-1 $201 0 $390 0.14799999999999999 $391 $383 forward 7 unknown #
point $-1 0 0.046850000000000024 0.14799999999999999 #
loop $-1 $-1 $209 $131 #
coedge $-1 $302 $302 $207 $303 forward $203 $-1 #
edge $392 $393 -3.1415926535897931 $393 3.1415926535897931 $207 $394 forward 7 unknown #
vertex $-1 $208 $395 #
ellipse-curve $-1 0 0.046850000000000017 0 0 -1 0 0.14799999999999999 0 5.4372522109713549e-017 1 I I #
vertex $-1 $210 $396 #
ellipse-curve $-1 0 -0.023849999999999989 0 0 1 0 -0.125 0 0 1 I I #
point $-1 0.12500000000000003 0.046850000000000024 1.5308084989341894e-017 #
aggregate_simgeom_attribute-aggregate_simgeom_base_attribute-aggregate_body_attribute-attrib_HH-attrib $-1 $-1 $213 $0 F #
pid_name-sg-attrib $-1 $-1 $215 $97 7 rwilson 784252905 630 1 #
model_id-kcp-attrib $-1 $397 $216 $144 1 1017696043 60 -969146367 7 #
coedge $398 $312 $312 $220 $315 reversed $217 $-1 #
coedge $399 $313 $313 $221 $317 forward $219 $-1 #
attrib_hh_coedge_geombuild-attrib_entity_geombuild-individual_entity_attribute-attrib_HH-attrib $-1 $-1 $-1 $220 F #
edge $400 $401 -6.2831853071795862 $401 0 $312 $402 reversed 7 unknown #
attrib_hh_coedge_geombuild-attrib_entity_geombuild-individual_entity_attribute-attrib_HH-attrib $-1 $-1 $-1 $221 F #
edge $403 $404 -3.1415926535897931 $404 3.1415926535897931 $221 $405 forward 7 unknown #
attrib_hh_vertex_geombuild-attrib_entity_geombuild-individual_entity_attribute-attrib_HH-attrib $-1 $-1 $-1 $225 F #
point $-1 -0.085500000000000007 -0.070699999999999999 0 #
convexity-sys-attrib $-1 $406 $227 $153 #
attrib_hh_vertex_geombuild-attrib_entity_geombuild-individual_entity_attribute-attrib_HH-attrib $-1 $-1 $-1 $228 F #
point $-1 0.21049999999999999 -0.093699999999999894 1.81247726273808e-017 #
attrib_hh_edge_geombuild-attrib_entity_geombuild-individual_entity_attribute-attrib_HH-attrib $-1 $-1 $231 $106 F #
attrib_hh_vertex_geombuild-attrib_entity_geombuild-individual_entity_attribute-attrib_HH-attrib $-1 $-1 $232 $157 F #
plane-surface $-1 0.14799999999999999 0 0 -1 0 0 0 0 1 forward_v I I I I #
coedge $-1 $242 $240 $244 $330 reversed $163 $-1 #
edge $-1 $255 -0.14799999999999999 $332 0.14799999999999999 $254 $407 forward 7 unknown #
vertex $-1 $330 $408 #
straight-curve $-1 -0.14799999999999999 -0.046850000000000024 0 0 0 -1 I I #
edge $-1 $328 -0.046850000000000024 $332 0.046850000000000024 $326 $409 forward 7 unknown #
straight-curve $-1 0 -0.046850000000000024 -0.14799999999999999 -1 0 0 I I #
vertex $-1 $247 $410 #
straight-curve $-1 0 0.046850000000000024 -0.14799999999999999 1 0 0 I I #
point $-1 0.14799999999999999 0.046850000000000024 -0.14799999999999999 #
point $-1 0.14799999999999999 -0.046850000000000024 -0.14799999999999999 #
straight-curve $-1 -0.14799999999999999 0 0.14799999999999999 0 -1 0 I I #
point $-1 -0.14799999999999999 0.046850000000000024 0.14799999999999999 #
point $-1 -0.14799999999999999 -0.046850000000000024 0.14799999999999999 #
straight-curve $-1 0.14799999999999999 -0.046850000000000024 0 0 0 -1 I I #
straight-curve $-1 0.14799999999999999 0.046850000000000024 0 0 0 -1 I I #
point $-1 0.0625 0 0.046850000000000037 #
face $-1 $411 $412 $29 $-1 $413 reversed single #
loop $-1 $-1 $285 $267 #
plane-surface $-1 0.14799999999999999 0 0 -1 0 0 0 0 1 forward_v I I I I #
coedge $-1 $414 $270 $415 $416 reversed $186 $-1 #
coedge $-1 $270 $414 $417 $418 reversed $186 $-1 #
coedge $-1 $419 $420 $421 $273 forward $422 $-1 #
coedge $-1 $423 $424 $271 $349 forward $425 $-1 #
edge $-1 $286 3.6738190614671318e-016 $353 1.570796326794897 $348 $282 forward 7 unknown #
coedge $-1 $426 $427 $272 $351 forward $428 $-1 #
edge $-1 $352 -1.570796326794897 $200 -3.6738190614671318e-016 $350 $202 forward 7 unknown #
vertex $-1 $429 $430 #
vertex $-1 $431 $432 #
straight-curve $-1 0 -0.046849999999999982 -0.14799999999999999 0 -1 0 I I #
coedge $-1 $433 $391 $274 $356 forward $434 $-1 #
edge $-1 $201 1.5707963267948963 $361 3.1415926535897927 $355 $202 forward 7 unknown #
coedge $-1 $435 $275 $278 $365 reversed $360 $-1 #
coedge $-1 $275 $435 $433 $436 forward $360 $-1 #
coedge $-1 $437 $438 $414 $276 reversed $412 $-1 #
loop $-1 $-1 $275 $439 #
vertex $-1 $440 $441 #
straight-curve $-1 -0.14799999999999999 -0.046849999999999982 0 0 -1 0 I I #
coedge $-1 $290 $442 $277 $364 forward $268 $-1 #
edge $-1 $443 -0.14799999999999999 $281 0 $277 $444 forward 7 unknown #
edge $-1 $443 -0.14799999999999999 $280 0 $357 $445 forward 7 unknown #
face $-1 $446 $279 $29 $-1 $447 reversed single #
edge $-1 $280 0 $448 0.14799999999999999 $438 $445 forward 7 unknown #
point $-1 -0.14799999999999999 -0.046850000000000024 0 #
edge $-1 $281 0 $449 0.14799999999999999 $372 $444 forward 7 unknown #
point $-1 0 -0.046850000000000024 0.14799999999999999 #
coedge $-1 $372 $283 $450 $451 reversed $373 $-1 #
coedge $-1 $283 $371 $288 $369 reversed $373 $-1 #
loop $-1 $-1 $283 $446 #
coedge $-1 $452 $285 $424 $377 forward $343 $-1 #
coedge $-1 $285 $452 $426 $297 reversed $343 $-1 #
coedge $-1 $294 $450 $127 $194 reversed $385 $-1 #
edge $-1 $286 0 $453 0.14799999999999999 $374 $454 forward 7 unknown #
point $-1 0.14799999999999999 -0.046850000000000024 0 #
coedge $-1 $289 $288 $384 $455 forward $291 $-1 #
coedge $-1 $442 $290 $391 $299 forward $268 $-1 #
face $-1 $456 $291 $29 $-1 $269 forward single #
vertex $-1 $455 $457 #
straight-curve $-1 0 0.046850000000000024 0.14799999999999999 -1 0 0 I I #
coedge $-1 $450 $294 $379 $455 reversed $385 $-1 #
loop $-1 $-1 $376 $458 #
straight-curve $-1 0.14799999999999999 0.046850000000000024 0 0 0 -1 I I #
face $-1 $459 $434 $29 $-1 $388 reversed single #
plane-surface $-1 0 0.046850000000000024 0 0 -1 0 0 0 -1 forward_v I I I I #
vertex $-1 $460 $461 #
vertex $-1 $299 $462 #
coedge $-1 $355 $433 $380 $299 reversed $434 $-1 #
convexity-sys-attrib $-1 $-1 $-1 $303 #
vertex $-1 $303 $463 #
ellipse-curve $-1 0 -0.023849999999999982 0 0 -1 0 0.14799999999999999 0 5.4372522109713549e-017 1 I I #
point $-1 -0.14799999999999999 0.046850000000000017 -7.2496696146284732e-017 #
point $-1 0.125 -0.023849999999999975 1.53080849893419e-017 #
attrib_hh_face_geombuild-attrib_entity_geombuild-individual_entity_attribute-attrib_HH-attrib $-1 $464 $311 $144 F #
attrib_hh_coedge_geombuild-attrib_entity_geombuild-individual_entity_attribute-attrib_HH-attrib $-1 $-1 $-1 $312 F #
attrib_hh_coedge_geombuild-attrib_entity_geombuild-individual_entity_attribute-attrib_HH-attrib $-1 $-1 $-1 $313 F #
attrib_hh_edge_geombuild-attrib_entity_geombuild-individual_entity_attribute-attrib_HH-attrib $-1 $-1 $-1 $315 F #
vertex $465 $315 $466 #
ellipse-curve $-1 0.0625 0 0 0 1 0 -0.125 0 0 1 I I #
attrib_hh_edge_geombuild-attrib_entity_geombuild-individual_entity_attribute-attrib_HH-attrib $-1 $-1 $-1 $317 F #
vertex $467 $317 $468 #
ellipse-curve $-1 0.0625 -0.070699999999999999 0 -1.11022302462516e-016 1 0 -0.125 -1.38777878078145e-017 0 1 I I #
attrib_hh_edge_geombuild-attrib_entity_geombuild-individual_entity_attribute-attrib_HH-attrib $-1 $-1 $320 $153 F #
straight-curve $-1 -0.14799999999999999 0.046850000000000024 0 0 0 -1 I I #
point $-1 -0.14799999999999999 -0.046850000000000024 -0.14799999999999999 #
straight-curve $-1 -0.14799999999999999 0 -0.14799999999999999 0 1 0 I I #
point $-1 -0.14799999999999999 0.046850000000000024 -0.14799999999999999 #
face $-1 $366 $469 $29 $-1 $447 reversed single #
loop $-1 $-1 $359 $342 #
plane-surface $-1 -0.14799999999999999 0 0 1 0 0 0 0 -1 forward_v I I I I #
coedge $-1 $346 $345 $188 $276 forward $186 $-1 #
coedge $-1 $470 $471 $345 $416 forward $472 $-1 #
edge $-1 $361 -3.1415926535897936 $352 -1.570796326794897 $415 $202 forward 7 unknown #
coedge $-1 $473 $474 $346 $418 forward $469 $-1 #
edge $-1 $353 1.570796326794897 $280 3.1415926535897936 $417 $282 forward 7 unknown #
coedge $-1 $475 $347 $474 $431 forward $422 $-1 #
coedge $-1 $347 $475 $470 $476 forward $422 $-1 #
coedge $-1 $477 $478 $187 $273 reversed $479 $-1 #
loop $-1 $-1 $347 $456 #
coedge $-1 $424 $348 $478 $480 reversed $425 $-1 #
coedge $-1 $348 $423 $374 $377 reversed $425 $-1 #
loop $-1 $-1 $348 $481 #
coedge $-1 $427 $350 $375 $297 forward $428 $-1 #
coedge $-1 $350 $426 $477 $429 reversed $428 $-1 #
loop $-1 $-1 $350 $482 #
edge $-1 $352 0 $389 0.14799999999999999 $427 $483 forward 7 unknown #
point $-1 0 0.046850000000000024 -0.14799999999999999 #
edge $-1 $353 0 $448 0.14799999999999999 $474 $484 forward 7 unknown #
point $-1 0 -0.046850000000000024 -0.14799999999999999 #
coedge $-1 $391 $355 $358 $436 reversed $434 $-1 #
loop $-1 $-1 $355 $387 #
coedge $-1 $358 $357 $442 $485 reversed $360 $-1 #
edge $-1 $390 -0.14799999999999999 $361 0 $433 $486 forward 7 unknown #
coedge $-1 $487 $359 $471 $440 forward $412 $-1 #
coedge $-1 $359 $487 $473 $367 reversed $412 $-1 #
face $-1 $458 $360 $29 $-1 $413 reversed single #
edge $-1 $361 0 $488 0.14799999999999999 $471 $486 forward 7 unknown #
point $-1 -0.14799999999999999 0.046850000000000024 0 #
coedge $-1 $363 $380 $435 $485 forward $268 $-1 #
vertex $-1 $485 $489 #
straight-curve $-1 0 -0.046850000000000024 0.14799999999999999 1 0 0 I I #
straight-curve $-1 -0.14799999999999999 -0.046850000000000024 0 0 0 -1 I I #
face $-1 $481 $373 $29 $-1 $447 reversed single #
plane-surface $-1 0 -0.046850000000000024 0 0 1 0 0 0 1 forward_v I I I I #
vertex $-1 $490 $491 #
vertex $-1 $455 $492 #
coedge $-1 $376 $384 $371 $451 forward $385 $-1 #
edge $-1 $449 -0.14799999999999999 $286 0 $450 $454 forward 7 unknown #
coedge $-1 $375 $374 $493 $460 reversed $343 $-1 #
vertex $-1 $377 $494 #
straight-curve $-1 0.14799999999999999 -0.046850000000000024 0 0 0 -1 I I #
edge $-1 $449 -0.046850000000000024 $382 0.046850000000000024 $384 $495 forward 7 unknown #
face $-1 $439 $422 $29 $-1 $496 reversed single #
point $-1 0.14799999999999999 0.046850000000000024 0.14799999999999999 #
face $-1 $-1 $385 $29 $-1 $344 reversed single #
face $-1 $497 $472 $29 $-1 $388 reversed single #
edge $-1 $389 -0.046850000000000024 $453 0.046850000000000024 $452 $498 forward 7 unknown #
point $-1 0.14799999999999999 0.046850000000000024 -0.14799999999999999 #
point $-1 -0.14799999999999999 0.046850000000000024 0.14799999999999999 #
point $-1 -0.14799999999999999 -0.023849999999999982 -7.2496696146284732e-017 #
pid_name-sg-attrib $-1 $-1 $397 $144 7 rwilson 784252905 631 1 #
attrib_hh_vertex_geombuild-attrib_entity_geombuild-individual_entity_attribute-attrib_HH-attrib $-1 $-1 $-1 $401 F #
point $-1 -0.0625 0 0 #
attrib_hh_vertex_geombuild-attrib_entity_geombuild-individual_entity_attribute-attrib_HH-attrib $-1 $-1 $-1 $404 F #
point $-1 0.1875 -0.070699999999999999 1.53080849893419e-017 #
loop $-1 $-1 $417 $411 #
coedge $-1 $471 $415 $420 $476 reversed $472 $-1 #
coedge $-1 $415 $470 $437 $440 reversed $472 $-1 #
loop $-1 $-1 $415 $459 #
coedge $-1 $474 $417 $438 $367 forward $469 $-1 #
coedge $-1 $417 $473 $419 $431 reversed $469 $-1 #
coedge $-1 $420 $419 $487 $490 forward $422 $-1 #
edge $-1 $488 -0.14799999999999999 $352 0 $470 $483 forward 7 unknown #
coedge $-1 $493 $421 $427 $429 forward $479 $-1 #
coedge $-1 $421 $493 $423 $480 forward $479 $-1 #
loop $-1 $-1 $421 $497 #
edge $-1 $453 -0.14799999999999999 $353 0 $423 $484 forward 7 unknown #
face $-1 $482 $425 $29 $-1 $447 reversed single #
face $-1 $296 $428 $29 $-1 $388 reversed single #
straight-curve $-1 0 0.046850000000000024 -0.14799999999999999 1 0 0 I I #
straight-curve $-1 0 -0.046850000000000024 -0.14799999999999999 -1 0 0 I I #
edge $-1 $390 -0.046850000000000024 $443 0.046850000000000024 $435 $499 forward 7 unknown #
straight-curve $-1 -0.14799999999999999 0.046850000000000024 0 0 0 -1 I I #
coedge $-1 $438 $437 $475 $490 reversed $412 $-1 #
vertex $-1 $476 $500 #
point $-1 -0.14799999999999999 -0.046850000000000024 0.14799999999999999 #
edge $-1 $448 -0.046850000000000024 $488 0.046850000000000024 $487 $501 forward 7 unknown #
point $-1 -0.14799999999999999 -0.046850000000000024 -0.14799999999999999 #
point $-1 0.14799999999999999 -0.046850000000000024 0.14799999999999999 #
coedge $-1 $478 $477 $452 $460 forward $479 $-1 #
point $-1 0.14799999999999999 -0.046850000000000024 -0.14799999999999999 #
straight-curve $-1 0.14799999999999999 0 0.14799999999999999 0 1 0 I I #
plane-surface $-1 0 0 -0.14799999999999999 0 0 1 1 0 0 forward_v I I I I #
face $-1 $381 $479 $29 $-1 $496 reversed single #
straight-curve $-1 0.14799999999999999 0 -0.14799999999999999 0 -1 0 I I #
straight-curve $-1 -0.14799999999999999 0 0.14799999999999999 0 -1 0 I I #
point $-1 -0.14799999999999999 0.046850000000000024 -0.14799999999999999 #
straight-curve $-1 -0.14799999999999999 0 -0.14799999999999999 0 1 0 I I #
End-of-ACIS-data 