105 70 1 0                              
body $-1 $1 $-1 $2 #
lump $-1 $-1 $3 $0 #
transform $-1 1 0 0 0 1 0 0 0 1 0 0 0 1 0 0 0 #
shell $-1 $-1 $-1 $4 $1 #
face $5 $6 $7 $3 $-1 $8 reversed single #
pid_name-sg-attrib $-1 $-1 $-1 $4 7 114 119 105 108 115 111 110 784252905 626 1 #
face $9 $10 $11 $3 $-1 $12 forward single #
loop $-1 $13 $14 $4 #
cone-surface $-1 0.0625 0.00468500000000005 0 0 -1 0 -0.0625 0 0 1 0 1 0 #
pid_name-sg-attrib $-1 $-1 $-1 $6 7 114 119 105 108 115 111 110 784252905 627 1 #
face $15 $16 $17 $3 $-1 $18 forward single #
loop $-1 $19 $20 $6 #
plane-surface $-1 0.0625 -0.0937 0 0 -1 0 0 0 -1 0 #
loop $-1 $-1 $21 $4 #
coedge $-1 $14 $14 $20 $22 0 $7 $-1 #
pid_name-sg-attrib $-1 $-1 $-1 $10 7 114 119 105 108 115 111 110 784252905 628 1 #
face $23 $24 $25 $3 $-1 $26 reversed single #
loop $-1 $27 $28 $10 #
cone-surface $-1 0.0625 0.00468500000000005 0 0 -1 0 -0.148 0 0 1 0 1 0 #
loop $-1 $-1 $29 $6 #
coedge $-1 $20 $20 $14 $22 1 $11 $-1 #
coedge $-1 $21 $21 $30 $31 0 $13 $-1 #
edge $-1 $32 $32 $20 $33 1 #
pid_name-sg-attrib $-1 $-1 $-1 $16 7 114 119 105 108 115 111 110 784252905 629 1 #
face $34 $35 $36 $3 $-1 $37 forward single #
loop $-1 $38 $39 $16 #
plane-surface $-1 0.0625 -0.0707 0 0 -1 0 0 0 -1 0 #
loop $-1 $-1 $40 $10 #
coedge $-1 $28 $28 $39 $41 0 $17 $-1 #
coedge $-1 $29 $29 $40 $42 1 $19 $-1 #
coedge $-1 $30 $30 $21 $31 1 $43 $-1 #
edge $-1 $44 $44 $30 $45 0 #
vertex $-1 $22 $46 #
ellipse-curve $-1 0.0625 -0.0937 0 -6.66133814775094e-16 1 0 -0.0625 -4.16333634234434e-17 0 1 #
pid_name-sg-attrib $-1 $-1 $-1 $24 7 114 119 105 108 115 111 110 784252905 630 1 #
face $47 $-1 $48 $3 $-1 $49 reversed single #
loop $-1 $50 $51 $24 #
cone-surface $-1 0.0625 0.00468500000000005 0 0 -1 0 -0.125 0 0 1 0 1 0 #
loop $-1 $-1 $52 $16 #
coedge $-1 $39 $39 $28 $41 1 $25 $-1 #
coedge $-1 $40 $40 $29 $42 0 $27 $-1 #
edge $-1 $53 $53 $39 $54 1 #
edge $-1 $55 $55 $29 $56 0 #
loop $-1 $-1 $30 $35 #
vertex $-1 $31 $57 #
ellipse-curve $-1 0.0625 0 0 0 1 0 -0.0625 0 0 1 #
point $-1 0 -0.0937 0 #
pid_name-sg-attrib $-1 $-1 $-1 $35 7 114 119 105 108 115 111 110 784252905 631 1 #
loop $-1 $43 $58 $35 #
plane-surface $-1 0.0625 0 0 0 -1 0 0 0 -1 0 #
loop $-1 $-1 $59 $24 #
coedge $-1 $51 $51 $58 $60 0 $36 $-1 #
coedge $-1 $52 $52 $59 $61 1 $38 $-1 #
vertex $-1 $41 $62 #
ellipse-curve $-1 0.0625 -0.0707 0 0 1 0 -0.148 0 0 1 #
vertex $-1 $42 $63 #
ellipse-curve $-1 0.0625 -0.0936999999999999 0 -4.68844182696434e-16 1 0 -0.148 -6.93889390390723e-17 0 1 #
point $-1 0.125 0 7.65378971138986e-18 #
coedge $-1 $58 $58 $51 $60 1 $48 $-1 #
coedge $-1 $59 $59 $52 $61 0 $50 $-1 #
edge $-1 $64 $64 $58 $65 1 #
edge $-1 $66 $66 $52 $67 0 #
point $-1 -0.0855 -0.0707 0 #
point $-1 0.2105 -0.0936999999999999 1.81247726273808e-17 #
vertex $-1 $60 $68 #
ellipse-curve $-1 0.0625 0 0 0 1 0 -0.125 0 0 1 #
vertex $-1 $61 $69 #
ellipse-curve $-1 0.0625 -0.0707 0 -1.11022302462516e-16 1 0 -0.125 -1.38777878078145e-17 0 1 #
point $-1 -0.0625 0 0 #
point $-1 0.1875 -0.0707 1.53080849893419e-17 #
