600 0 1 0           
104 GICL Pro/E ACIS Translator - Source: f:/data5/repository/PTC/V20/prod_appl/boom_box/board_eq.prt.2 - 6 0 13 ACIS 6.0.3 NT 24 Thu Apr 04 13:14:29 2002 
1 9.9999999999999995e-007 1e-010 
body $-1 $1 $-1 $-1 #
lump $-1 $-1 $2 $0 #
shell $-1 $-1 $-1 $3 $-1 $1 #
face $-1 $4 $5 $2 $-1 $6 reversed single #
face $-1 $7 $8 $2 $-1 $9 forward single #
loop $-1 $10 $11 $3 #
plane-surface $-1 0 0 0 0 0 1 1 0 0 forward_v I I I I #
face $-1 $12 $13 $2 $-1 $14 forward single #
loop $-1 $-1 $15 $4 #
plane-surface $-1 102.67949192431122 0 0 0.86602540378443871 -0.50000000000000011 0 0.5 0.8660254037844386 0 forward_v I I I I #
loop $-1 $16 $17 $3 #
coedge $-1 $18 $19 $20 $21 reversed $5 $-1 #
face $-1 $22 $23 $2 $-1 $24 forward single #
loop $-1 $-1 $25 $7 #
plane-surface $-1 120 30 0 1 0 0 0 1 0 forward_v I I I I #
coedge $-1 $26 $20 $27 $28 forward $8 $-1 #
loop $-1 $29 $30 $3 #
coedge $-1 $31 $31 $32 $33 reversed $10 $-1 #
coedge $-1 $34 $11 $35 $36 reversed $5 $-1 #
coedge $-1 $11 $37 $38 $39 reversed $5 $-1 #
coedge $-1 $15 $40 $11 $21 forward $8 $-1 #
edge $-1 $41 0 $42 34.641016151377549 $11 $43 forward 7 unknown #
face $-1 $44 $45 $2 $-1 $46 forward single #
loop $-1 $-1 $47 $12 #
plane-surface $-1 120 62.299999999999997 0 0 1 0 -1 0 0 forward_v I I I I #
coedge $-1 $48 $38 $49 $50 forward $13 $-1 #
coedge $-1 $40 $15 $51 $52 reversed $8 $-1 #
coedge $-1 $38 $48 $15 $28 reversed $13 $-1 #
edge $-1 $42 0 $53 1.524 $27 $54 forward 7 unknown #
loop $-1 $55 $56 $3 #
coedge $-1 $57 $57 $58 $59 reversed $16 $-1 #
coedge $-1 $17 $17 $60 $61 reversed $10 $-1 #
coedge $-1 $62 $63 $17 $33 forward $64 $-1 #
edge $-1 $65 0 $66 3.1415926535897931 $17 $67 forward 7 unknown #
coedge $-1 $68 $18 $69 $70 reversed $5 $-1 #
coedge $-1 $71 $72 $18 $36 forward $73 $-1 #
edge $-1 $74 0 $41 102.67949192431122 $18 $75 forward 7 unknown #
coedge $-1 $19 $76 $77 $78 reversed $5 $-1 #
coedge $-1 $25 $27 $19 $39 forward $13 $-1 #
edge $-1 $42 0 $79 32.299999999999997 $19 $80 forward 7 unknown #
coedge $-1 $20 $26 $71 $81 reversed $8 $-1 #
vertex $-1 $36 $82 #
vertex $-1 $39 $83 #
straight-curve $-1 102.67949192431122 0 0 0.50000000000000011 0.8660254037844386 0 I I #
face $-1 $84 $85 $2 $-1 $86 forward single #
loop $-1 $-1 $87 $22 #
plane-surface $-1 95.33234841870825 62.299999999999997 0 0.86602540378443871 0.50000000000000011 0 -0.5 0.8660254037844386 0 forward_v I I I I #
coedge $-1 $88 $77 $89 $90 forward $23 $-1 #
coedge $-1 $27 $25 $91 $92 reversed $13 $-1 #
coedge $-1 $77 $88 $25 $50 reversed $23 $-1 #
edge $-1 $79 0 $93 1.524 $25 $94 forward 7 unknown #
coedge $-1 $91 $95 $26 $52 forward $96 $-1 #
edge $-1 $97 0 $53 34.641016151377549 $51 $98 forward 7 unknown #
vertex $-1 $92 $99 #
straight-curve $-1 120 30 0 0 0 1 I I #
loop $-1 $-1 $100 $3 #
coedge $-1 $101 $101 $102 $103 reversed $29 $-1 #
coedge $-1 $30 $30 $104 $105 reversed $16 $-1 #
coedge $-1 $106 $107 $30 $59 forward $108 $-1 #
edge $-1 $109 0 $110 3.1415926535897931 $30 $111 forward 7 unknown #
coedge $-1 $112 $113 $31 $61 forward $114 $-1 #
edge $-1 $66 0 $65 3.1415926535897931 $31 $115 forward 7 unknown #
coedge $-1 $116 $32 $113 $117 reversed $64 $-1 #
coedge $-1 $32 $116 $112 $118 forward $64 $-1 #
loop $-1 $-1 $62 $119 #
vertex $-1 $61 $120 #
vertex $-1 $61 $121 #
ellipse-curve $-1 8 70 0 0 0 -1 2 0 0 1 I I #
coedge $-1 $76 $34 $122 $123 reversed $5 $-1 #
coedge $-1 $124 $125 $34 $70 forward $126 $-1 #
edge $-1 $127 0 $74 75 $34 $128 forward 7 unknown #
coedge $-1 $129 $35 $40 $81 forward $73 $-1 #
coedge $-1 $35 $129 $124 $130 reversed $73 $-1 #
loop $-1 $-1 $71 $131 #
vertex $-1 $70 $132 #
straight-curve $-1 0 0 0 1 0 0 I I #
coedge $-1 $37 $68 $133 $134 reversed $5 $-1 #
coedge $-1 $47 $49 $37 $78 forward $23 $-1 #
edge $-1 $79 0 $135 24.66765158129175 $37 $136 forward 7 unknown #
vertex $-1 $39 $137 #
straight-curve $-1 120 30 0 0 1 0 I I #
edge $-1 $41 0 $97 1.524 $71 $138 forward 7 unknown #
point $-1 102.67949192431122 0 0 #
point $-1 120 30 0 #
face $-1 $131 $126 $2 $-1 $139 forward single #
loop $-1 $-1 $140 $44 #
plane-surface $-1 88 75 0 0 1 0 -1 0 0 forward_v I I I I #
coedge $-1 $141 $133 $142 $143 forward $45 $-1 #
coedge $-1 $49 $47 $144 $145 reversed $23 $-1 #
coedge $-1 $133 $141 $47 $90 reversed $45 $-1 #
edge $-1 $135 0 $146 1.524 $47 $147 forward 7 unknown #
coedge $-1 $144 $51 $48 $92 forward $96 $-1 #
edge $-1 $53 0 $93 32.299999999999997 $91 $148 forward 7 unknown #
vertex $-1 $92 $149 #
straight-curve $-1 120 62.299999999999997 0 0 0 1 I I #
coedge $-1 $51 $150 $129 $151 forward $96 $-1 #
loop $-1 $152 $144 $153 #
vertex $-1 $52 $154 #
straight-curve $-1 102.67949192431122 0 1.524 0.50000000000000011 0.8660254037844386 0 I I #
point $-1 120 30 1.524 #
coedge $-1 $155 $155 $156 $157 reversed $55 $-1 #
coedge $-1 $56 $56 $158 $159 reversed $29 $-1 #
coedge $-1 $160 $161 $56 $103 forward $162 $-1 #
edge $-1 $163 0 $164 3.1415926535897931 $56 $165 forward 7 unknown #
coedge $-1 $166 $167 $57 $105 forward $168 $-1 #
edge $-1 $110 0 $109 3.1415926535897931 $57 $169 forward 7 unknown #
coedge $-1 $170 $58 $167 $171 reversed $108 $-1 #
coedge $-1 $58 $170 $166 $172 forward $108 $-1 #
loop $-1 $-1 $106 $173 #
vertex $-1 $105 $174 #
vertex $-1 $105 $175 #
ellipse-curve $-1 15 15 0 0 0 -1 2 0 0 1 I I #
coedge $-1 $176 $60 $63 $118 reversed $114 $-1 #
coedge $-1 $60 $176 $62 $117 forward $114 $-1 #
loop $-1 $-1 $112 $177 #
ellipse-curve $-1 8 70 0 0 0 -1 -2 0 0 1 I I #
coedge $-1 $63 $62 $178 $179 reversed $64 $-1 #
edge $-1 $180 0 $66 1.524 $113 $181 forward 7 unknown #
edge $-1 $182 0 $65 1.524 $112 $183 forward 7 unknown #
face $-1 $177 $64 $2 $-1 $184 reversed single #
point $-1 10 70 0 #
point $-1 6 70 0 #
coedge $-1 $140 $142 $68 $123 forward $85 $-1 #
edge $-1 $185 0 $127 88 $68 $186 forward 7 unknown #
coedge $-1 $187 $69 $72 $130 forward $126 $-1 #
coedge $-1 $69 $187 $140 $188 reversed $126 $-1 #
loop $-1 $-1 $124 $84 #
vertex $-1 $123 $189 #
straight-curve $-1 0 75 0 0 -1 0 I I #
coedge $-1 $72 $71 $95 $151 reversed $73 $-1 #
edge $-1 $74 0 $190 1.524 $124 $191 forward 7 unknown #
face $-1 $153 $73 $2 $-1 $192 forward single #
point $-1 0 0 0 #
coedge $-1 $87 $89 $76 $134 forward $45 $-1 #
edge $-1 $135 0 $185 14.6646968374165 $76 $193 forward 7 unknown #
vertex $-1 $78 $194 #
straight-curve $-1 120 62.299999999999997 0 -1 0 0 I I #
point $-1 120 62.299999999999997 0 #
straight-curve $-1 102.67949192431122 0 0 0 0 1 I I #
plane-surface $-1 0 75 0 -1 0 0 0 -1 0 forward_v I I I I #
coedge $-1 $195 $122 $125 $188 forward $85 $-1 #
coedge $-1 $89 $87 $196 $197 reversed $45 $-1 #
coedge $-1 $122 $195 $87 $143 reversed $85 $-1 #
edge $-1 $185 0 $198 1.524 $87 $199 forward 7 unknown #
coedge $-1 $196 $91 $88 $145 forward $96 $-1 #
edge $-1 $93 0 $146 24.66765158129175 $144 $200 forward 7 unknown #
vertex $-1 $197 $201 #
straight-curve $-1 95.33234841870825 62.299999999999997 0 0 0 1 I I #
straight-curve $-1 120 30 1.524 0 1 0 I I #
point $-1 120 62.299999999999997 1.524 #
coedge $-1 $95 $202 $187 $203 forward $96 $-1 #
edge $-1 $190 0 $97 102.67949192431122 $95 $204 forward 7 unknown #
loop $-1 $205 $178 $153 #
face $-1 $119 $96 $2 $-1 $206 forward single #
point $-1 102.67949192431122 0 1.524 #
coedge $-1 $100 $100 $207 $208 reversed $55 $-1 #
coedge $-1 $209 $210 $100 $157 forward $211 $-1 #
edge $-1 $212 0 $213 3.1415926535897913 $100 $214 forward 7 unknown #
coedge $-1 $215 $216 $101 $159 forward $217 $-1 #
edge $-1 $164 0 $163 3.1415926535898002 $101 $218 forward 7 unknown #
coedge $-1 $219 $102 $216 $220 reversed $162 $-1 #
coedge $-1 $102 $219 $215 $221 forward $162 $-1 #
loop $-1 $-1 $160 $222 #
vertex $-1 $159 $223 #
vertex $-1 $159 $224 #
ellipse-curve $-1 85 60 0 0 0 -1 2 0 0 1 I I #
coedge $-1 $225 $104 $107 $172 reversed $168 $-1 #
coedge $-1 $104 $225 $106 $171 forward $168 $-1 #
loop $-1 $-1 $166 $226 #
ellipse-curve $-1 15 15 0 0 0 -1 -2 0 0 1 I I #
coedge $-1 $107 $106 $227 $228 reversed $108 $-1 #
edge $-1 $229 0 $110 1.524 $167 $230 forward 7 unknown #
edge $-1 $231 0 $109 1.524 $166 $232 forward 7 unknown #
face $-1 $226 $108 $2 $-1 $233 reversed single #
point $-1 17 15 0 #
point $-1 13 15 0 #
coedge $-1 $113 $112 $234 $235 reversed $114 $-1 #
face $-1 $173 $114 $2 $-1 $236 reversed single #
coedge $-1 $234 $234 $116 $179 forward $152 $-1 #
edge $-1 $182 0 $180 3.1415926535897931 $178 $237 forward 7 unknown #
vertex $-1 $235 $238 #
straight-curve $-1 6 70 1.524 0 0 -1 I I #
vertex $-1 $235 $239 #
straight-curve $-1 10 70 1.524 0 0 -1 I I #
cone-surface $-1 8 70 1.524 0 0 -1 -2 0 0 1 I I 0 1 2 forward I I I I #
vertex $-1 $134 $240 #
straight-curve $-1 88 75 0 -1 0 0 I I #
coedge $-1 $125 $124 $150 $203 reversed $126 $-1 #
edge $-1 $127 0 $241 1.524 $140 $242 forward 7 unknown #
point $-1 0 75 0 #
vertex $-1 $151 $243 #
straight-curve $-1 0 0 0 0 0 1 I I #
plane-surface $-1 0 0 0 0 -1 0 1 0 0 forward_v I I I I #
straight-curve $-1 95.33234841870825 62.299999999999997 0 -0.50000000000000011 0.8660254037844386 0 I I #
point $-1 95.33234841870825 62.299999999999997 0 #
coedge $-1 $142 $140 $202 $244 reversed $85 $-1 #
coedge $-1 $202 $144 $141 $197 forward $96 $-1 #
edge $-1 $146 0 $198 14.6646968374165 $196 $245 forward 7 unknown #
vertex $-1 $244 $246 #
straight-curve $-1 88 75 0 0 0 1 I I #
straight-curve $-1 120 62.299999999999997 1.524 -1 0 0 I I #
point $-1 95.33234841870825 62.299999999999997 1.524 #
coedge $-1 $150 $196 $195 $244 forward $96 $-1 #
edge $-1 $241 0 $190 75 $150 $247 forward 7 unknown #
straight-curve $-1 0 0 1.524 1 0 0 I I #
loop $-1 $248 $227 $153 #
plane-surface $-1 0 0 1.524 0 0 1 1 0 0 forward_v I I I I #
coedge $-1 $249 $250 $155 $208 forward $251 $-1 #
edge $-1 $213 0 $212 3.1415926535897913 $155 $252 forward 7 unknown #
coedge $-1 $253 $156 $250 $254 reversed $211 $-1 #
coedge $-1 $156 $253 $249 $255 forward $211 $-1 #
loop $-1 $-1 $209 $256 #
vertex $-1 $208 $257 #
vertex $-1 $208 $258 #
ellipse-curve $-1 95 15.000000000000002 0 0 0 -1 2 -1.7763568394002505e-015 0 1 I I #
coedge $-1 $259 $158 $161 $221 reversed $217 $-1 #
coedge $-1 $158 $259 $160 $220 forward $217 $-1 #
loop $-1 $-1 $215 $260 #
ellipse-curve $-1 85 60.000000000000007 0 0 0 -1 -2 -7.1054273576010019e-015 0 1 I I #
coedge $-1 $161 $160 $261 $262 reversed $162 $-1 #
edge $-1 $263 0 $164 1.524 $216 $264 forward 7 unknown #
edge $-1 $265 0 $163 1.524 $215 $266 forward 7 unknown #
face $-1 $260 $162 $2 $-1 $267 reversed single #
point $-1 87 60 0 #
point $-1 83 60 0 #
coedge $-1 $167 $166 $268 $269 reversed $168 $-1 #
face $-1 $222 $168 $2 $-1 $270 reversed single #
coedge $-1 $268 $268 $170 $228 forward $205 $-1 #
edge $-1 $231 0 $229 3.1415926535897931 $227 $271 forward 7 unknown #
vertex $-1 $269 $272 #
straight-curve $-1 13 15 1.524 0 0 -1 I I #
vertex $-1 $269 $273 #
straight-curve $-1 17 15 1.524 0 0 -1 I I #
cone-surface $-1 15 15 1.524 0 0 -1 -2 0 0 1 I I 0 1 2 forward I I I I #
coedge $-1 $178 $178 $176 $235 forward $152 $-1 #
edge $-1 $180 0 $182 3.1415926535897931 $234 $274 forward 7 unknown #
cone-surface $-1 8 70 1.524 0 0 -1 -2 0 0 1 I I 0 1 2 forward I I I I #
ellipse-curve $-1 8 70 1.524 0 0 -1 2 0 0 1 I I #
point $-1 6 70 1.524 #
point $-1 10 70 1.524 #
point $-1 88 75 0 #
vertex $-1 $203 $275 #
straight-curve $-1 0 75 0 0 0 1 I I #
point $-1 0 0 1.524 #
edge $-1 $198 0 $241 88 $202 $276 forward 7 unknown #
straight-curve $-1 95.33234841870825 62.299999999999997 1.524 -0.50000000000000011 0.8660254037844386 0 I I #
point $-1 88 75 1.524 #
straight-curve $-1 0 75 1.524 0 -1 0 I I #
loop $-1 $277 $261 $153 #
coedge $-1 $278 $207 $210 $255 reversed $251 $-1 #
coedge $-1 $207 $278 $209 $254 forward $251 $-1 #
loop $-1 $-1 $249 $279 #
ellipse-curve $-1 95 14.999999999999998 0 0 0 -1 -2 1.7763568394002505e-015 0 1 I I #
coedge $-1 $210 $209 $280 $281 reversed $211 $-1 #
edge $-1 $282 0 $213 1.524 $250 $283 forward 7 unknown #
edge $-1 $284 0 $212 1.524 $249 $285 forward 7 unknown #
face $-1 $279 $211 $2 $-1 $286 reversed single #
point $-1 97 15 0 #
point $-1 93 15 0 #
coedge $-1 $216 $215 $287 $288 reversed $217 $-1 #
face $-1 $256 $217 $2 $-1 $289 reversed single #
coedge $-1 $287 $287 $219 $262 forward $248 $-1 #
edge $-1 $265 0 $263 3.1415926535897931 $261 $290 forward 7 unknown #
vertex $-1 $288 $291 #
straight-curve $-1 83 60 1.524 0 0 -1 I I #
vertex $-1 $288 $292 #
straight-curve $-1 87 60 1.524 0 0 -1 I I #
cone-surface $-1 85 60 1.524 0 0 -1 -2 0 0 1 I I 0 1 2 forward I I I I #
coedge $-1 $227 $227 $225 $269 forward $205 $-1 #
edge $-1 $229 0 $231 3.1415926535897931 $268 $293 forward 7 unknown #
cone-surface $-1 15 15 1.524 0 0 -1 -2 0 0 1 I I 0 1 2 forward I I I I #
ellipse-curve $-1 15 15 1.524 0 0 -1 2 0 0 1 I I #
point $-1 13 15 1.524 #
point $-1 17 15 1.524 #
ellipse-curve $-1 8 70 1.524 0 0 -1 -2 0 0 1 I I #
point $-1 0 75 1.524 #
straight-curve $-1 88 75 1.524 -1 0 0 I I #
loop $-1 $-1 $280 $153 #
coedge $-1 $250 $249 $294 $295 reversed $251 $-1 #
face $-1 $-1 $251 $2 $-1 $296 reversed single #
coedge $-1 $294 $294 $253 $281 forward $277 $-1 #
edge $-1 $284 0 $282 3.1415926535897931 $280 $297 forward 7 unknown #
vertex $-1 $295 $298 #
straight-curve $-1 93 15 1.524 0 0 -1 I I #
vertex $-1 $295 $299 #
straight-curve $-1 97 15 1.524 0 0 -1 I I #
cone-surface $-1 95 15 1.524 0 0 -1 -2 0 0 1 I I 0 1 2 forward I I I I #
coedge $-1 $261 $261 $259 $288 forward $248 $-1 #
edge $-1 $263 0 $265 3.1415926535897931 $287 $300 forward 7 unknown #
cone-surface $-1 85 60 1.524 0 0 -1 -2 0 0 1 I I 0 1 2 forward I I I I #
ellipse-curve $-1 85 60 1.524 0 0 -1 2 0 0 1 I I #
point $-1 83 60 1.524 #
point $-1 87 60 1.524 #
ellipse-curve $-1 15 15 1.524 0 0 -1 -2 0 0 1 I I #
coedge $-1 $280 $280 $278 $295 forward $277 $-1 #
edge $-1 $282 0 $284 3.1415926535897931 $294 $301 forward 7 unknown #
cone-surface $-1 95 15 1.524 0 0 -1 -2 0 0 1 I I 0 1 2 forward I I I I #
ellipse-curve $-1 95 15 1.524 0 0 -1 2 0 0 1 I I #
point $-1 93 15 1.524 #
point $-1 97 15 1.524 #
ellipse-curve $-1 85 60 1.524 0 0 -1 -2 0 0 1 I I #
ellipse-curve $-1 95 15 1.524 0 0 -1 -2 0 0 1 I I #
End-of-ACIS-data 