600 0 1 0           
109 GICL Pro/E ACIS Translator - Source: f:/data5/repository/PTC/V20/prod_appl/boom_box/circuit_board.prt.1 - 6 0 13 ACIS 6.0.3 NT 24 Thu Apr 04 13:14:19 2002 
1 9.9999999999999995e-007 1e-010 
body $-1 $1 $-1 $-1 #
lump $-1 $-1 $2 $0 #
shell $-1 $-1 $-1 $3 $-1 $1 #
face $-1 $4 $5 $2 $-1 $6 reversed single #
face $-1 $7 $8 $2 $-1 $9 forward single #
loop $-1 $10 $11 $3 #
plane-surface $-1 0 0 0 1 0 0 0 1 0 forward_v I I I I #
face $-1 $12 $13 $2 $-1 $14 forward single #
loop $-1 $-1 $15 $4 #
plane-surface $-1 0 50 -16 0 1 0 0 0 1 forward_v I I I I #
loop $-1 $16 $17 $3 #
coedge $-1 $18 $19 $15 $20 reversed $5 $-1 #
face $-1 $21 $22 $2 $-1 $23 forward single #
loop $-1 $-1 $24 $7 #
plane-surface $-1 0 50 0 0 0 1 0 -1 0 forward_v I I I I #
coedge $-1 $25 $26 $11 $20 forward $8 $-1 #
loop $-1 $27 $28 $3 #
coedge $-1 $29 $29 $30 $31 forward $10 $-1 #
coedge $-1 $32 $11 $33 $34 forward $5 $-1 #
coedge $-1 $11 $35 $36 $37 reversed $5 $-1 #
edge $-1 $38 0 $39 12 $11 $40 forward 7 unknown #
face $-1 $41 $42 $2 $-1 $43 forward single #
loop $-1 $44 $45 $12 #
plane-surface $-1 2 0 0 1 0 0 0 1 0 forward_v I I I I #
coedge $-1 $46 $47 $48 $49 reversed $13 $-1 #
coedge $-1 $50 $15 $46 $51 forward $8 $-1 #
coedge $-1 $15 $50 $52 $53 reversed $8 $-1 #
loop $-1 $-1 $54 $3 #
coedge $-1 $55 $55 $56 $57 forward $16 $-1 #
coedge $-1 $17 $17 $58 $59 forward $10 $-1 #
coedge $-1 $60 $61 $17 $31 reversed $62 $-1 #
edge $-1 $63 0 $64 3.1415926535897931 $17 $65 forward 7 unknown #
coedge $-1 $66 $18 $67 $68 forward $5 $-1 #
coedge $-1 $52 $69 $18 $34 reversed $70 $-1 #
edge $-1 $38 0 $71 19 $18 $72 forward 7 unknown #
coedge $-1 $19 $73 $74 $75 forward $5 $-1 #
coedge $-1 $47 $46 $19 $37 forward $13 $-1 #
edge $-1 $39 0 $76 9 $19 $77 forward 7 unknown #
vertex $-1 $34 $78 #
vertex $-1 $37 $79 #
straight-curve $-1 0 50 -12 0 0 1 I I #
face $-1 $80 $81 $2 $-1 $82 forward single #
loop $-1 $-1 $83 $21 #
plane-surface $-1 2 19 1.5 0 1 0 0 0 -1 forward_v I I I I #
loop $-1 $84 $85 $12 #
coedge $-1 $86 $87 $88 $89 reversed $22 $-1 #
coedge $-1 $36 $24 $25 $51 reversed $13 $-1 #
coedge $-1 $24 $36 $90 $91 forward $13 $-1 #
coedge $-1 $92 $93 $24 $49 forward $22 $-1 #
edge $-1 $94 0 $95 9 $48 $96 forward 7 unknown #
coedge $-1 $26 $25 $93 $97 reversed $8 $-1 #
edge $-1 $39 0 $94 2 $25 $98 forward 7 unknown #
coedge $-1 $99 $33 $26 $53 forward $70 $-1 #
edge $-1 $38 0 $100 2 $26 $101 forward 7 unknown #
coedge $-1 $102 $102 $103 $104 forward $27 $-1 #
coedge $-1 $28 $28 $105 $106 forward $16 $-1 #
coedge $-1 $107 $108 $28 $57 reversed $109 $-1 #
edge $-1 $110 0 $111 3.1415926535897931 $28 $112 forward 7 unknown #
coedge $-1 $113 $114 $29 $59 reversed $115 $-1 #
edge $-1 $64 0 $63 3.1415926535897931 $29 $116 forward 7 unknown #
coedge $-1 $117 $30 $114 $118 reversed $62 $-1 #
coedge $-1 $30 $117 $113 $119 forward $62 $-1 #
loop $-1 $-1 $60 $120 #
vertex $-1 $59 $121 #
vertex $-1 $59 $122 #
ellipse-curve $-1 0 2.25 -7.8099999999999987 1 0 0 0 0.5 0 1 I I #
coedge $-1 $123 $32 $124 $125 reversed $5 $-1 #
coedge $-1 $126 $127 $32 $68 reversed $128 $-1 #
edge $-1 $71 0 $129 1.5707963267949019 $32 $130 forward 7 unknown #
coedge $-1 $33 $99 $126 $131 forward $70 $-1 #
loop $-1 $-1 $33 $132 #
vertex $-1 $68 $133 #
straight-curve $-1 0 50 -12 0 -1 0 I I #
coedge $-1 $35 $134 $135 $136 forward $5 $-1 #
coedge $-1 $137 $90 $35 $75 reversed $138 $-1 #
edge $-1 $139 0 $76 1.5 $35 $140 forward 7 unknown #
vertex $-1 $37 $141 #
straight-curve $-1 0 50 0 0 -1 0 I I #
point $-1 0 50 -12 #
point $-1 0 50 0 #
face $-1 $142 $143 $2 $-1 $144 forward single #
loop $-1 $-1 $145 $41 #
plane-surface $-1 2 9 1.5 0 0 1 0 1 0 forward_v I I I I #
coedge $-1 $146 $147 $148 $149 reversed $42 $-1 #
loop $-1 $150 $151 $12 #
coedge $-1 $152 $152 $117 $153 reversed $44 $-1 #
coedge $-1 $154 $45 $155 $156 reversed $22 $-1 #
coedge $-1 $45 $157 $158 $159 forward $22 $-1 #
coedge $-1 $147 $146 $45 $89 forward $42 $-1 #
edge $-1 $160 0 $161 1.5 $45 $162 forward 7 unknown #
coedge $-1 $74 $163 $47 $91 reversed $138 $-1 #
edge $-1 $76 0 $95 2 $47 $164 forward 7 unknown #
coedge $-1 $165 $48 $163 $166 reversed $22 $-1 #
coedge $-1 $48 $167 $50 $97 forward $22 $-1 #
vertex $-1 $49 $168 #
vertex $-1 $166 $169 #
straight-curve $-1 2 50 0 0 -1 0 I I #
edge $-1 $100 0 $94 12 $93 $170 forward 7 unknown #
straight-curve $-1 0 50 0 1 0 0 I I #
coedge $-1 $69 $52 $167 $171 forward $70 $-1 #
vertex $-1 $97 $172 #
straight-curve $-1 0 50 -12 1 0 0 I I #
coedge $-1 $54 $54 $173 $174 forward $27 $-1 #
coedge $-1 $175 $176 $54 $104 reversed $177 $-1 #
edge $-1 $178 0 $179 3.1415926535897931 $54 $180 forward 7 unknown #
coedge $-1 $181 $182 $55 $106 reversed $183 $-1 #
edge $-1 $111 0 $110 3.1415926535897931 $55 $184 forward 7 unknown #
coedge $-1 $185 $56 $182 $186 reversed $109 $-1 #
coedge $-1 $56 $185 $181 $187 forward $109 $-1 #
loop $-1 $-1 $107 $188 #
vertex $-1 $106 $189 #
vertex $-1 $106 $190 #
ellipse-curve $-1 0 28 -8.3099999999999987 1 0 0 0 0.75 0 1 I I #
coedge $-1 $191 $58 $61 $119 reversed $115 $-1 #
coedge $-1 $58 $191 $60 $118 forward $115 $-1 #
loop $-1 $-1 $113 $192 #
ellipse-curve $-1 0 2.25 -7.8099999999999987 1 0 0 0 -0.5 0 1 I I #
coedge $-1 $61 $60 $85 $153 forward $62 $-1 #
edge $-1 $193 0 $63 2 $114 $194 forward 7 unknown #
edge $-1 $195 0 $64 2 $113 $196 forward 7 unknown #
face $-1 $192 $62 $2 $-1 $197 reversed single #
point $-1 0 2.75 -7.8099999999999987 #
point $-1 0 1.75 -7.8099999999999987 #
coedge $-1 $198 $66 $199 $200 reversed $5 $-1 #
coedge $-1 $201 $202 $66 $125 forward $203 $-1 #
edge $-1 $204 0 $129 3 $66 $205 forward 7 unknown #
coedge $-1 $206 $67 $69 $131 reversed $128 $-1 #
coedge $-1 $67 $206 $201 $207 forward $128 $-1 #
loop $-1 $-1 $67 $208 #
vertex $-1 $125 $209 #
ellipse-curve $-1 0 30.999999999999996 -12.999999999999998 1 0 0 0 3.5527136788005009e-015 0.99999999999999822 1 I I #
edge $-1 $210 0 $71 2 $69 $211 forward 7 unknown #
face $-1 $212 $70 $2 $-1 $213 reversed single #
point $-1 0 31 -12 #
coedge $-1 $73 $214 $215 $216 forward $5 $-1 #
coedge $-1 $217 $218 $73 $136 reversed $219 $-1 #
edge $-1 $220 0 $139 10 $73 $221 forward 7 unknown #
coedge $-1 $163 $74 $218 $222 reversed $138 $-1 #
loop $-1 $-1 $74 $223 #
vertex $-1 $75 $224 #
straight-curve $-1 0 41 1.5 0 0 -1 I I #
point $-1 0 41 0 #
face $-1 $225 $226 $2 $-1 $227 forward single #
loop $-1 $-1 $228 $80 #
plane-surface $-1 2 9 0 0 -1 0 0 0 1 forward_v I I I I #
coedge $-1 $229 $155 $146 $230 forward $81 $-1 #
coedge $-1 $88 $83 $145 $230 reversed $42 $-1 #
coedge $-1 $83 $88 $231 $232 reversed $42 $-1 #
coedge $-1 $214 $233 $83 $149 forward $5 $-1 #
edge $-1 $234 0 $235 1.5 $148 $236 forward 7 unknown #
loop $-1 $-1 $237 $12 #
coedge $-1 $238 $238 $185 $239 reversed $84 $-1 #
coedge $-1 $85 $85 $191 $240 reversed $44 $-1 #
edge $-1 $193 0 $195 3.1415926535897931 $85 $241 forward 7 unknown #
coedge $-1 $242 $86 $228 $243 reversed $22 $-1 #
coedge $-1 $145 $244 $86 $156 forward $81 $-1 #
edge $-1 $245 0 $160 10 $86 $246 forward 7 unknown #
coedge $-1 $87 $165 $247 $248 reversed $22 $-1 #
coedge $-1 $249 $231 $87 $159 reversed $250 $-1 #
edge $-1 $251 0 $161 12 $87 $252 forward 7 unknown #
vertex $-1 $156 $253 #
vertex $-1 $159 $254 #
straight-curve $-1 2 19 1.5 0 0 -1 I I #
coedge $-1 $90 $137 $92 $166 forward $138 $-1 #
straight-curve $-1 0 41 0 1 0 0 I I #
coedge $-1 $157 $92 $255 $256 reversed $22 $-1 #
edge $-1 $257 0 $95 1.5 $92 $258 forward 7 unknown #
coedge $-1 $93 $259 $99 $171 reversed $22 $-1 #
point $-1 2 50 0 #
point $-1 2 41 0 #
straight-curve $-1 2 50 -12 0 0 1 I I #
edge $-1 $100 0 $210 19 $167 $260 forward 7 unknown #
point $-1 2 50 -12 #
coedge $-1 $261 $262 $102 $174 reversed $263 $-1 #
edge $-1 $179 0 $178 3.1415926535897931 $102 $264 forward 7 unknown #
coedge $-1 $265 $103 $262 $266 reversed $177 $-1 #
coedge $-1 $103 $265 $261 $267 forward $177 $-1 #
loop $-1 $-1 $175 $268 #
vertex $-1 $174 $269 #
vertex $-1 $174 $270 #
ellipse-curve $-1 0 42.75 -7.8099999999999987 1 0 0 0 0.5 0 1 I I #
coedge $-1 $271 $105 $108 $187 reversed $183 $-1 #
coedge $-1 $105 $271 $107 $186 forward $183 $-1 #
loop $-1 $-1 $181 $272 #
ellipse-curve $-1 0 28 -8.3099999999999987 1 0 0 0 -0.75 0 1 I I #
coedge $-1 $108 $107 $151 $239 forward $109 $-1 #
edge $-1 $273 0 $110 2 $182 $274 forward 7 unknown #
edge $-1 $275 0 $111 2 $181 $276 forward 7 unknown #
face $-1 $272 $109 $2 $-1 $277 reversed single #
point $-1 0 28.75 -8.3099999999999987 #
point $-1 0 27.25 -8.3099999999999987 #
coedge $-1 $114 $113 $152 $240 forward $115 $-1 #
face $-1 $188 $115 $2 $-1 $278 reversed single #
vertex $-1 $240 $279 #
straight-curve $-1 2 2.75 -7.8099999999999987 -1 0 0 I I #
vertex $-1 $240 $280 #
straight-curve $-1 2 1.75 -7.8099999999999987 -1 0 0 I I #
cone-surface $-1 2 2.25 -7.8099999999999987 1 0 0 0 0.5 0 1 I I 0 1 0.5 forward I I I I #
coedge $-1 $281 $123 $282 $283 forward $5 $-1 #
coedge $-1 $284 $285 $123 $200 forward $286 $-1 #
edge $-1 $287 0 $204 5 $123 $288 forward 7 unknown #
coedge $-1 $289 $124 $127 $207 reversed $203 $-1 #
coedge $-1 $124 $289 $284 $290 reversed $203 $-1 #
loop $-1 $-1 $289 $291 #
vertex $-1 $200 $292 #
straight-curve $-1 0 30 -16 0 0 1 I I #
coedge $-1 $127 $126 $259 $293 reversed $128 $-1 #
edge $-1 $294 0 $129 2 $201 $295 forward 7 unknown #
face $-1 $132 $128 $2 $-1 $296 reversed single #
point $-1 0 30 -13 #
vertex $-1 $171 $297 #
straight-curve $-1 2 31 -12 -1 0 0 I I #
face $-1 $298 $250 $2 $-1 $299 forward single #
plane-surface $-1 2 50 -12 0 0 1 0 -1 0 forward_v I I I I #
coedge $-1 $134 $148 $300 $301 reversed $5 $-1 #
coedge $-1 $302 $303 $134 $216 reversed $304 $-1 #
edge $-1 $305 0 $220 1.5 $134 $306 forward 7 unknown #
coedge $-1 $255 $135 $303 $307 reversed $219 $-1 #
coedge $-1 $135 $255 $137 $222 forward $219 $-1 #
loop $-1 $-1 $218 $308 #
vertex $-1 $136 $309 #
straight-curve $-1 0 31 1.5 0 1 0 I I #
edge $-1 $257 0 $139 2 $218 $310 forward 7 unknown #
face $-1 $120 $138 $2 $-1 $311 forward single #
point $-1 0 41 1.5 #
face $-1 $312 $313 $2 $-1 $314 forward single #
loop $-1 $-1 $315 $142 #
plane-surface $-1 0 50 0 0 0 1 0 -1 0 forward_v I I I I #
coedge $-1 $316 $317 $154 $243 forward $143 $-1 #
coedge $-1 $244 $145 $233 $318 reversed $81 $-1 #
edge $-1 $160 0 $234 2 $145 $319 forward 7 unknown #
coedge $-1 $158 $300 $147 $232 forward $250 $-1 #
edge $-1 $235 0 $161 2 $231 $320 forward 7 unknown #
coedge $-1 $148 $321 $229 $318 forward $5 $-1 #
vertex $-1 $149 $322 #
vertex $-1 $301 $323 #
straight-curve $-1 0 19 1.5 0 0 -1 I I #
coedge $-1 $324 $324 $265 $325 reversed $150 $-1 #
coedge $-1 $151 $151 $271 $326 reversed $84 $-1 #
edge $-1 $273 0 $275 3.1415926535897931 $151 $327 forward 7 unknown #
edge $-1 $195 0 $193 3.1415926535897931 $152 $328 forward 7 unknown #
ellipse-curve $-1 2 2.25 -7.8099999999999987 1 0 0 0 0.5 0 1 I I #
coedge $-1 $329 $154 $330 $331 forward $22 $-1 #
edge $-1 $332 0 $245 1.5 $154 $333 forward 7 unknown #
coedge $-1 $155 $229 $316 $334 reversed $81 $-1 #
vertex $-1 $243 $335 #
straight-curve $-1 2 9 1.5 0 1 0 I I #
coedge $-1 $303 $302 $157 $248 forward $304 $-1 #
edge $-1 $251 0 $336 1.5 $157 $337 forward 7 unknown #
coedge $-1 $300 $158 $302 $338 reversed $250 $-1 #
loop $-1 $-1 $300 $212 #
vertex $-1 $159 $339 #
straight-curve $-1 2 31 0 0 -1 0 I I #
point $-1 2 19 1.5 #
point $-1 2 19 0 #
coedge $-1 $218 $217 $165 $256 forward $219 $-1 #
edge $-1 $336 0 $257 10 $165 $340 forward 7 unknown #
vertex $-1 $256 $341 #
straight-curve $-1 2 41 1.5 0 0 -1 I I #
coedge $-1 $167 $342 $206 $293 forward $22 $-1 #
straight-curve $-1 2 50 -12 0 -1 0 I I #
coedge $-1 $343 $173 $176 $267 reversed $263 $-1 #
coedge $-1 $173 $343 $175 $266 forward $263 $-1 #
loop $-1 $-1 $261 $344 #
ellipse-curve $-1 0 42.75 -7.8099999999999987 1 0 0 0 -0.5 0 1 I I #
coedge $-1 $176 $175 $237 $325 forward $177 $-1 #
edge $-1 $345 0 $178 2 $262 $346 forward 7 unknown #
edge $-1 $347 0 $179 2 $261 $348 forward 7 unknown #
face $-1 $344 $177 $2 $-1 $349 reversed single #
point $-1 0 43.25 -7.8099999999999987 #
point $-1 0 42.25 -7.8099999999999987 #
coedge $-1 $182 $181 $238 $326 forward $183 $-1 #
face $-1 $268 $183 $2 $-1 $350 reversed single #
vertex $-1 $326 $351 #
straight-curve $-1 2 28.75 -8.3099999999999987 -1 0 0 I I #
vertex $-1 $326 $352 #
straight-curve $-1 2 27.25 -8.3099999999999987 -1 0 0 I I #
cone-surface $-1 2 28 -8.3099999999999987 1 0 0 0 0.75 0 1 I I 0 1 0.75 forward I I I I #
cone-surface $-1 2 2.25 -7.8099999999999987 1 0 0 0 0.5 0 1 I I 0 1 0.5 forward I I I I #
point $-1 2 2.75 -7.8099999999999987 #
point $-1 2 1.75 -7.8099999999999987 #
coedge $-1 $353 $198 $354 $355 forward $5 $-1 #
coedge $-1 $356 $357 $198 $283 reversed $358 $-1 #
edge $-1 $287 0 $359 1 $198 $360 forward 7 unknown #
coedge $-1 $361 $199 $202 $290 forward $286 $-1 #
coedge $-1 $199 $361 $356 $362 reversed $286 $-1 #
loop $-1 $-1 $199 $363 #
vertex $-1 $283 $364 #
straight-curve $-1 0 25 -16 0 1 0 I I #
coedge $-1 $202 $201 $342 $365 reversed $203 $-1 #
edge $-1 $204 0 $366 2 $284 $367 forward 7 unknown #
face $-1 $208 $203 $2 $-1 $368 reversed single #
point $-1 0 30 -16 #
edge $-1 $294 0 $210 1.5707963267948948 $259 $369 forward 7 unknown #
vertex $-1 $293 $370 #
straight-curve $-1 2 30 -13 -1 0 0 I I #
cone-surface $-1 2.0822045784037906 31 -13 -1 0 0 0 0 1 1 I I 0 1 1 forward I I I I #
point $-1 2 31 -12 #
face $-1 $308 $304 $2 $-1 $371 forward single #
plane-surface $-1 0 50 0 0 0 1 0 -1 0 forward_v I I I I #
coedge $-1 $231 $249 $214 $301 forward $250 $-1 #
edge $-1 $305 0 $235 12 $214 $372 forward 7 unknown #
coedge $-1 $247 $215 $249 $338 forward $304 $-1 #
coedge $-1 $215 $247 $217 $307 forward $304 $-1 #
loop $-1 $-1 $247 $298 #
vertex $-1 $216 $373 #
straight-curve $-1 0 31 0 0 0 1 I I #
edge $-1 $336 0 $220 2 $303 $374 forward 7 unknown #
face $-1 $223 $219 $2 $-1 $375 forward single #
point $-1 0 31 1.5 #
straight-curve $-1 2 41 1.5 -1 0 0 I I #
plane-surface $-1 2 41 1.5 0 1 0 0 0 -1 forward_v I I I I #
face $-1 $376 $377 $2 $-1 $378 reversed single #
loop $-1 $-1 $379 $225 #
plane-surface $-1 0 0 0 0 -1 0 0 0 -1 forward_v I I I I #
coedge $-1 $380 $381 $382 $383 forward $226 $-1 #
coedge $-1 $384 $228 $244 $334 forward $143 $-1 #
coedge $-1 $228 $384 $381 $385 forward $143 $-1 #
edge $-1 $386 0 $234 10 $233 $387 forward 7 unknown #
straight-curve $-1 2 19 1.5 -1 0 0 I I #
straight-curve $-1 0 19 0 1 0 0 I I #
coedge $-1 $233 $382 $384 $388 forward $5 $-1 #
point $-1 0 19 1.5 #
point $-1 0 19 0 #
coedge $-1 $237 $237 $343 $389 reversed $150 $-1 #
edge $-1 $345 0 $347 3.1415926535897931 $237 $390 forward 7 unknown #
edge $-1 $275 0 $273 3.1415926535897931 $238 $391 forward 7 unknown #
ellipse-curve $-1 2 28 -8.3099999999999987 1 0 0 0 0.75 0 1 I I #
ellipse-curve $-1 2 2.25 -7.8099999999999987 1 0 0 0 -0.5 0 1 I I #
coedge $-1 $392 $242 $379 $393 forward $22 $-1 #
coedge $-1 $381 $380 $242 $331 reversed $226 $-1 #
edge $-1 $332 0 $394 9 $242 $395 forward 7 unknown #
vertex $-1 $331 $396 #
straight-curve $-1 2 9 0 0 0 1 I I #
edge $-1 $245 0 $386 2 $316 $397 forward 7 unknown #
point $-1 2 9 1.5 #
vertex $-1 $248 $398 #
straight-curve $-1 2 31 0 0 0 1 I I #
edge $-1 $305 0 $251 2 $249 $399 forward 7 unknown #
point $-1 2 31 0 #
straight-curve $-1 2 31 1.5 0 1 0 I I #
point $-1 2 41 1.5 #
coedge $-1 $259 $400 $289 $365 forward $22 $-1 #
coedge $-1 $262 $261 $324 $389 forward $263 $-1 #
face $-1 $-1 $263 $2 $-1 $401 reversed single #
vertex $-1 $389 $402 #
straight-curve $-1 2 43.25 -7.8099999999999987 -1 0 0 I I #
vertex $-1 $389 $403 #
straight-curve $-1 2 42.25 -7.8099999999999987 -1 0 0 I I #
cone-surface $-1 2 42.75 -7.8099999999999987 1 0 0 0 0.5 0 1 I I 0 1 0.5 forward I I I I #
cone-surface $-1 2 28 -8.3099999999999987 1 0 0 0 0.75 0 1 I I 0 1 0.75 forward I I I I #
point $-1 2 28.75 -8.3099999999999987 #
point $-1 2 27.25 -8.3099999999999987 #
coedge $-1 $404 $281 $405 $406 reversed $5 $-1 #
coedge $-1 $407 $408 $281 $355 reversed $409 $-1 #
edge $-1 $359 0 $410 4 $281 $411 forward 7 unknown #
coedge $-1 $412 $282 $285 $362 forward $358 $-1 #
coedge $-1 $282 $412 $407 $413 forward $358 $-1 #
loop $-1 $-1 $356 $414 #
vertex $-1 $355 $415 #
straight-curve $-1 0 25 -16 0 0 1 I I #
coedge $-1 $285 $284 $400 $416 reversed $286 $-1 #
edge $-1 $287 0 $417 2 $285 $418 forward 7 unknown #
face $-1 $291 $286 $2 $-1 $419 forward single #
point $-1 0 25 -16 #
edge $-1 $366 0 $294 3 $342 $420 forward 7 unknown #
vertex $-1 $365 $421 #
straight-curve $-1 0 30 -16 1 0 0 I I #
plane-surface $-1 2 30 -12 0 -1 0 0 0 -1 forward_v I I I I #
ellipse-curve $-1 2 31 -13.000000000000002 -1 0 0 0 -1 1.7763568394002505e-015 1 I I #
point $-1 2 30 -13 #
plane-surface $-1 2 31 0 0 -1 0 0 0 1 forward_v I I I I #
straight-curve $-1 0 31 0 0 -1 0 I I #
point $-1 0 31 0 #
straight-curve $-1 2 31 1.5 -1 0 0 I I #
plane-surface $-1 2 31 1.5 0 0 1 0 1 0 forward_v I I I I #
face $-1 $422 $423 $2 $-1 $424 forward single #
loop $-1 $-1 $425 $312 #
plane-surface $-1 2 3.3450000000000006 -10.309999999999999 0 0 1 0 -1 0 forward_v I I I I #
coedge $-1 $426 $427 $329 $393 reversed $313 $-1 #
coedge $-1 $330 $315 $426 $428 forward $226 $-1 #
coedge $-1 $315 $330 $317 $385 reversed $226 $-1 #
coedge $-1 $321 $429 $315 $383 reversed $5 $-1 #
edge $-1 $430 0 $431 9 $382 $432 forward 7 unknown #
coedge $-1 $317 $316 $321 $388 reversed $143 $-1 #
edge $-1 $430 0 $332 2 $381 $433 forward 7 unknown #
vertex $-1 $318 $434 #
straight-curve $-1 0 9 1.5 0 1 0 I I #
edge $-1 $430 0 $386 1.5 $321 $435 forward 7 unknown #
edge $-1 $347 0 $345 3.1415926535897931 $324 $436 forward 7 unknown #
ellipse-curve $-1 2 42.75 -7.8099999999999987 1 0 0 0 0.5 0 1 I I #
ellipse-curve $-1 2 28 -8.3099999999999987 1 0 0 0 -0.75 0 1 I I #
coedge $-1 $437 $329 $438 $439 forward $22 $-1 #
edge $-1 $394 0 $440 10.309999999999999 $329 $441 forward 7 unknown #
vertex $-1 $393 $442 #
straight-curve $-1 2 9 0 0 -1 0 I I #
point $-1 2 9 0 #
straight-curve $-1 2 9 1.5 -1 0 0 I I #
point $-1 2 31 1.5 #
straight-curve $-1 0 31 0 1 0 0 I I #
coedge $-1 $342 $443 $361 $416 forward $22 $-1 #
cone-surface $-1 2 42.75 -7.8099999999999987 1 0 0 0 0.5 0 1 I I 0 1 0.5 forward I I I I #
point $-1 2 43.25 -7.8099999999999987 #
point $-1 2 42.25 -7.8099999999999987 #
coedge $-1 $444 $353 $445 $446 reversed $5 $-1 #
coedge $-1 $447 $448 $353 $406 forward $449 $-1 #
edge $-1 $450 0 $410 1 $353 $451 forward 7 unknown #
coedge $-1 $452 $354 $357 $413 reversed $409 $-1 #
coedge $-1 $354 $452 $447 $453 forward $409 $-1 #
loop $-1 $-1 $407 $454 #
vertex $-1 $406 $455 #
straight-curve $-1 0 25 -15 0 -1 0 I I #
coedge $-1 $357 $356 $443 $456 forward $358 $-1 #
edge $-1 $457 0 $359 2 $357 $458 forward 7 unknown #
face $-1 $363 $358 $2 $-1 $459 reversed single #
point $-1 0 25 -15 #
edge $-1 $417 0 $366 5 $400 $460 forward 7 unknown #
vertex $-1 $416 $461 #
straight-curve $-1 0 25 -16 1 0 0 I I #
plane-surface $-1 0 0 -16 0 0 -1 0 1 0 forward_v I I I I #
straight-curve $-1 2 30 -16 0 0 1 I I #
point $-1 2 30 -16 #
face $-1 $462 $463 $2 $-1 $464 reversed single #
loop $-1 $-1 $465 $376 #
cone-surface $-1 2 8.3840000000000003 -10.309999999999999 1 0 0 0 5.0389999999999997 0 1 I I 0 1 5.0389999999999997 forward I I I I #
coedge $-1 $438 $466 $467 $468 reversed $377 $-1 #
coedge $-1 $469 $379 $380 $428 reversed $313 $-1 #
coedge $-1 $379 $469 $470 $471 forward $313 $-1 #
edge $-1 $431 0 $394 2 $426 $472 forward 7 unknown #
coedge $-1 $382 $473 $469 $474 reversed $5 $-1 #
vertex $-1 $388 $475 #
vertex $-1 $383 $476 #
straight-curve $-1 0 9 0 0 -1 0 I I #
straight-curve $-1 0 9 0 1 0 0 I I #
point $-1 0 9 1.5 #
straight-curve $-1 0 9 0 0 0 1 I I #
ellipse-curve $-1 2 42.75 -7.8099999999999987 1 0 0 0 -0.5 0 1 I I #
coedge $-1 $477 $392 $478 $479 forward $22 $-1 #
coedge $-1 $470 $425 $392 $439 reversed $377 $-1 #
edge $-1 $440 0 $480 3.3450000000000006 $392 $481 forward 7 unknown #
vertex $-1 $439 $482 #
straight-curve $-1 2 0 0 0 0 -1 I I #
point $-1 2 0 0 #
coedge $-1 $400 $483 $412 $456 reversed $22 $-1 #
coedge $-1 $484 $404 $485 $486 forward $5 $-1 #
coedge $-1 $487 $488 $404 $446 forward $489 $-1 #
edge $-1 $490 0 $450 5 $404 $491 forward 7 unknown #
coedge $-1 $492 $405 $408 $453 reversed $449 $-1 #
coedge $-1 $405 $492 $487 $493 reversed $449 $-1 #
loop $-1 $-1 $447 $494 #
vertex $-1 $446 $495 #
straight-curve $-1 0 21 -16 0 0 1 I I #
coedge $-1 $408 $407 $483 $496 forward $409 $-1 #
edge $-1 $497 0 $410 2 $408 $498 forward 7 unknown #
face $-1 $414 $409 $2 $-1 $499 reversed single #
point $-1 0 21 -15 #
edge $-1 $417 0 $457 1 $443 $500 forward 7 unknown #
vertex $-1 $456 $501 #
straight-curve $-1 2 25 -15 -1 0 0 I I #
plane-surface $-1 2 25 -16 0 1 0 0 0 1 forward_v I I I I #
straight-curve $-1 2 25 -16 0 1 0 I I #
point $-1 2 25 -16 #
face $-1 $502 $503 $2 $-1 $504 forward single #
loop $-1 $-1 $505 $422 #
plane-surface $-1 2 8.3840000000000003 -16 0 1 0 0 0 1 forward_v I I I I #
coedge $-1 $478 $506 $507 $508 reversed $423 $-1 #
coedge $-1 $425 $470 $473 $509 forward $377 $-1 #
coedge $-1 $506 $478 $425 $468 forward $423 $-1 #
edge $-1 $480 0 $510 2 $467 $511 forward 7 unknown #
coedge $-1 $427 $426 $429 $474 forward $313 $-1 #
coedge $-1 $466 $438 $427 $471 reversed $377 $-1 #
edge $-1 $512 0 $440 2 $427 $513 forward 7 unknown #
straight-curve $-1 0 0 0 1 0 0 I I #
coedge $-1 $429 $514 $466 $509 reversed $5 $-1 #
edge $-1 $431 0 $512 10.309999999999999 $429 $515 forward 7 unknown #
point $-1 0 9 0 #
point $-1 0 0 0 #
coedge $-1 $516 $437 $517 $518 reversed $22 $-1 #
coedge $-1 $467 $465 $437 $479 reversed $423 $-1 #
edge $-1 $480 0 $519 1.5707963267948963 $437 $520 forward 7 unknown #
vertex $-1 $479 $521 #
straight-curve $-1 2 0 -10.309999999999999 0 1 0 I I #
point $-1 2 0 -10.309999999999999 #
coedge $-1 $443 $522 $452 $496 reversed $22 $-1 #
coedge $-1 $523 $444 $524 $525 forward $5 $-1 #
coedge $-1 $526 $527 $444 $486 reversed $528 $-1 #
edge $-1 $490 0 $529 1 $444 $530 forward 7 unknown #
coedge $-1 $531 $445 $448 $493 forward $489 $-1 #
coedge $-1 $445 $531 $526 $532 reversed $489 $-1 #
loop $-1 $-1 $531 $533 #
vertex $-1 $486 $534 #
straight-curve $-1 0 16 -16 0 1 0 I I #
coedge $-1 $448 $447 $522 $535 reversed $449 $-1 #
edge $-1 $450 0 $536 2 $487 $537 forward 7 unknown #
face $-1 $454 $449 $2 $-1 $538 reversed single #
point $-1 0 21 -16 #
edge $-1 $457 0 $497 4 $483 $539 forward 7 unknown #
vertex $-1 $496 $540 #
straight-curve $-1 2 21 -15 -1 0 0 I I #
plane-surface $-1 2 25 -15 0 0 1 0 -1 0 forward_v I I I I #
straight-curve $-1 2 25 -16 0 0 1 I I #
point $-1 2 25 -15 #
face $-1 $541 $542 $2 $-1 $543 reversed single #
loop $-1 $-1 $544 $462 #
plane-surface $-1 0 0 -16 0 0 -1 0 1 0 forward_v I I I I #
coedge $-1 $517 $545 $546 $547 forward $463 $-1 #
coedge $-1 $465 $467 $514 $548 forward $423 $-1 #
coedge $-1 $545 $517 $465 $508 forward $463 $-1 #
edge $-1 $519 0 $549 2 $507 $550 forward 7 unknown #
edge $-1 $512 0 $510 3.3450000000000006 $473 $551 forward 7 unknown #
vertex $-1 $509 $552 #
straight-curve $-1 2 3.3450000000000006 -10.309999999999999 -1 0 0 I I #
vertex $-1 $474 $553 #
straight-curve $-1 0 0 -10.309999999999999 1 0 0 I I #
coedge $-1 $473 $554 $506 $548 reversed $5 $-1 #
straight-curve $-1 0 0 0 0 0 -1 I I #
coedge $-1 $555 $477 $544 $556 forward $22 $-1 #
coedge $-1 $507 $505 $477 $518 forward $463 $-1 #
edge $-1 $557 0 $519 0.65100000000000158 $477 $558 forward 7 unknown #
vertex $-1 $518 $559 #
ellipse-curve $-1 2 8.3840000000000003 -10.309999999999999 1 0 0 0 -5.0389999999999997 0 1 I I #
point $-1 2 3.3450000000000006 -10.309999999999999 #
coedge $-1 $483 $560 $492 $535 forward $22 $-1 #
coedge $-1 $561 $484 $562 $563 reversed $5 $-1 #
coedge $-1 $564 $565 $484 $525 reversed $566 $-1 #
edge $-1 $529 0 $567 4 $484 $568 forward 7 unknown #
coedge $-1 $569 $485 $488 $532 forward $528 $-1 #
coedge $-1 $485 $569 $564 $570 forward $528 $-1 #
loop $-1 $-1 $526 $571 #
vertex $-1 $525 $572 #
straight-curve $-1 0 16 -16 0 0 1 I I #
coedge $-1 $488 $487 $560 $573 reversed $489 $-1 #
edge $-1 $490 0 $574 2 $488 $575 forward 7 unknown #
face $-1 $494 $489 $2 $-1 $576 forward single #
point $-1 0 16 -16 #
edge $-1 $536 0 $497 1 $522 $577 forward 7 unknown #
vertex $-1 $535 $578 #
straight-curve $-1 0 21 -16 1 0 0 I I #
plane-surface $-1 2 21 -15 0 -1 0 0 0 -1 forward_v I I I I #
straight-curve $-1 2 25 -15 0 -1 0 I I #
point $-1 2 21 -15 #
face $-1 $571 $566 $2 $-1 $579 reversed single #
loop $-1 $-1 $580 $502 #
plane-surface $-1 2 12 -15 0 -1 0 0 0 -1 forward_v I I I I #
coedge $-1 $546 $581 $516 $556 reversed $503 $-1 #
coedge $-1 $505 $507 $554 $582 reversed $463 $-1 #
coedge $-1 $583 $544 $505 $547 reversed $503 $-1 #
edge $-1 $584 0 $557 2 $546 $585 forward 7 unknown #
edge $-1 $510 0 $549 1.5707963267948966 $514 $586 forward 7 unknown #
vertex $-1 $548 $587 #
straight-curve $-1 2 8.3840000000000003 -15.348999999999998 -1 0 0 I I #
straight-curve $-1 0 0 -10.309999999999999 0 1 0 I I #
point $-1 0 3.3450000000000006 -10.309999999999999 #
point $-1 0 0 -10.309999999999999 #
coedge $-1 $514 $561 $545 $582 forward $5 $-1 #
coedge $-1 $588 $516 $589 $590 forward $22 $-1 #
edge $-1 $557 0 $591 3.6159999999999997 $516 $592 forward 7 unknown #
vertex $-1 $556 $593 #
straight-curve $-1 2 8.3840000000000003 -16 0 0 1 I I #
point $-1 2 8.3839999999999986 -15.348999999999998 #
coedge $-1 $522 $594 $531 $573 forward $22 $-1 #
coedge $-1 $554 $523 $583 $595 reversed $5 $-1 #
coedge $-1 $580 $596 $523 $563 forward $542 $-1 #
edge $-1 $597 0 $567 1 $523 $598 forward 7 unknown #
coedge $-1 $599 $524 $527 $570 reversed $566 $-1 #
coedge $-1 $524 $599 $580 $600 forward $566 $-1 #
loop $-1 $-1 $564 $541 #
vertex $-1 $563 $601 #
straight-curve $-1 0 16 -15 0 -1 0 I I #
coedge $-1 $527 $526 $594 $602 forward $528 $-1 #
edge $-1 $603 0 $529 2 $527 $604 forward 7 unknown #
face $-1 $533 $528 $2 $-1 $605 reversed single #
point $-1 0 16 -15 #
edge $-1 $574 0 $536 5 $560 $606 forward 7 unknown #
vertex $-1 $573 $607 #
straight-curve $-1 0 16 -16 1 0 0 I I #
plane-surface $-1 0 0 -16 0 0 -1 0 1 0 forward_v I I I I #
straight-curve $-1 2 21 -16 0 0 1 I I #
point $-1 2 21 -16 #
plane-surface $-1 2 16 -15 0 0 1 0 -1 0 forward_v I I I I #
coedge $-1 $589 $562 $565 $600 reversed $542 $-1 #
coedge $-1 $544 $583 $596 $608 forward $503 $-1 #
edge $-1 $584 0 $549 0.65100000000000158 $554 $609 forward 7 unknown #
coedge $-1 $581 $546 $561 $595 forward $503 $-1 #
vertex $-1 $582 $610 #
straight-curve $-1 0 8.3840000000000003 -16 1 0 0 I I #
ellipse-curve $-1 0 8.3840000000000003 -10.309999999999999 1 0 0 0 -5.0389999999999997 0 1 I I #
point $-1 0 8.3840000000000003 -15.348999999999998 #
coedge $-1 $594 $555 $599 $611 reversed $22 $-1 #
coedge $-1 $596 $580 $555 $590 reversed $542 $-1 #
edge $-1 $591 0 $612 1 $555 $613 forward 7 unknown #
vertex $-1 $590 $614 #
straight-curve $-1 2 8.3840000000000003 -16 0 1 0 I I #
point $-1 2 8.3840000000000003 -16 #
coedge $-1 $560 $588 $569 $602 reversed $22 $-1 #
edge $-1 $584 0 $597 3.6159999999999997 $561 $615 forward 7 unknown #
coedge $-1 $562 $589 $581 $608 reversed $542 $-1 #
vertex $-1 $595 $616 #
straight-curve $-1 0 12 -16 0 0 1 I I #
coedge $-1 $565 $564 $588 $611 forward $566 $-1 #
edge $-1 $612 0 $567 2 $565 $617 forward 7 unknown #
point $-1 0 12 -15 #
edge $-1 $574 0 $603 1 $594 $618 forward 7 unknown #
vertex $-1 $602 $619 #
straight-curve $-1 2 16 -15 -1 0 0 I I #
plane-surface $-1 2 16 -16 0 1 0 0 0 1 forward_v I I I I #
straight-curve $-1 2 16 -16 0 1 0 I I #
point $-1 2 16 -16 #
edge $-1 $597 0 $591 2 $581 $620 forward 7 unknown #
straight-curve $-1 0 8.3840000000000003 -16 0 0 1 I I #
point $-1 0 8.3840000000000003 -16 #
edge $-1 $603 0 $612 4 $588 $621 forward 7 unknown #
vertex $-1 $611 $622 #
straight-curve $-1 2 12 -16 0 0 1 I I #
point $-1 2 12 -16 #
straight-curve $-1 0 8.3840000000000003 -16 0 1 0 I I #
point $-1 0 12 -16 #
straight-curve $-1 2 12 -15 -1 0 0 I I #
straight-curve $-1 2 16 -16 0 0 1 I I #
point $-1 2 16 -15 #
straight-curve $-1 0 12 -16 1 0 0 I I #
straight-curve $-1 2 16 -15 0 -1 0 I I #
point $-1 2 12 -15 #
End-of-ACIS-data 