600 0 1 0           
103 GICL Pro/E ACIS Translator - Source: f:/data5/repository/PTC/V20/prod_appl/boom_box/coil_4_.prt.2 - 6 0 13 ACIS 6.0.3 NT 24 Thu Apr 04 13:14:38 2002 
1 9.9999999999999995e-007 1e-010 
body $-1 $1 $-1 $-1 #
lump $-1 $-1 $2 $0 #
shell $-1 $-1 $-1 $3 $-1 $1 #
face $-1 $4 $5 $2 $-1 $6 reversed single #
face $-1 $7 $8 $2 $-1 $9 forward single #
loop $-1 $10 $11 $3 #
plane-surface $-1 0 0 0 0 1 0 1 0 0 forward_v I I I I #
face $-1 $12 $13 $2 $-1 $14 forward single #
loop $-1 $-1 $15 $4 #
cone-surface $-1 0 0 0 0 1 0 18.5 0 0 1 I I 0 1 18.5 forward I I I I #
loop $-1 $-1 $16 $3 #
coedge $-1 $17 $17 $18 $19 reversed $5 $-1 #
face $-1 $20 $21 $2 $-1 $22 forward single #
loop $-1 $-1 $23 $7 #
cone-surface $-1 0 0 0 0 1 0 18.5 0 0 1 I I 0 1 18.5 forward I I I I #
coedge $-1 $24 $18 $25 $26 forward $8 $-1 #
coedge $-1 $27 $27 $28 $29 reversed $10 $-1 #
coedge $-1 $11 $11 $30 $31 reversed $5 $-1 #
coedge $-1 $15 $32 $11 $19 forward $8 $-1 #
edge $-1 $33 0 $34 3.1415926535897931 $11 $35 forward 7 unknown #
face $-1 $36 $37 $2 $-1 $38 reversed single #
loop $-1 $39 $40 $12 #
plane-surface $-1 0 1.5 0 0 1 0 1 0 0 forward_v I I I I #
coedge $-1 $41 $30 $32 $42 forward $13 $-1 #
coedge $-1 $32 $15 $40 $43 reversed $8 $-1 #
coedge $-1 $30 $41 $15 $26 reversed $13 $-1 #
edge $-1 $34 0 $44 1.5 $25 $45 forward 7 unknown #
coedge $-1 $16 $16 $46 $47 reversed $10 $-1 #
coedge $-1 $48 $49 $16 $29 forward $37 $-1 #
edge $-1 $50 0 $51 3.1415926535897931 $16 $52 forward 7 unknown #
coedge $-1 $23 $25 $17 $31 forward $13 $-1 #
edge $-1 $34 0 $33 3.1415926535897931 $17 $53 forward 7 unknown #
coedge $-1 $18 $24 $23 $42 reversed $8 $-1 #
vertex $-1 $31 $54 #
vertex $-1 $31 $55 #
ellipse-curve $-1 0 0 0 0 1 0 -18.5 0 -2.2655965784226034e-015 1 I I #
face $-1 $-1 $56 $2 $-1 $57 reversed single #
loop $-1 $-1 $48 $20 #
cone-surface $-1 0 0 0 0 1 0 13.875 0 0 1 I I 0 1 13.875 forward I I I I #
loop $-1 $-1 $58 $12 #
coedge $-1 $59 $59 $24 $43 forward $21 $-1 #
coedge $-1 $25 $23 $59 $60 reversed $13 $-1 #
edge $-1 $33 0 $61 1.5 $23 $62 forward 7 unknown #
edge $-1 $61 0 $44 3.1415926535897931 $40 $63 forward 7 unknown #
vertex $-1 $60 $64 #
straight-curve $-1 18.5 0 0 0 1 0 I I #
coedge $-1 $65 $66 $27 $47 forward $56 $-1 #
edge $-1 $51 0 $50 3.1415926535897931 $27 $67 forward 7 unknown #
coedge $-1 $68 $28 $66 $69 forward $37 $-1 #
coedge $-1 $28 $68 $65 $70 reversed $37 $-1 #
vertex $-1 $47 $71 #
vertex $-1 $47 $72 #
ellipse-curve $-1 0 0 0 0 -1 0 -13.875 0 -1.6991974338169525e-015 1 I I #
ellipse-curve $-1 0 0 0 0 1 0 18.5 0 2.2655965784226038e-015 1 I I #
point $-1 -18.5 0 -2.2655965784226034e-015 #
point $-1 18.5 0 2.2655965784226038e-015 #
loop $-1 $-1 $65 $36 #
cone-surface $-1 0 0 0 0 1 0 13.875 0 0 1 I I 0 1 13.875 forward I I I I #
coedge $-1 $73 $73 $68 $74 forward $39 $-1 #
coedge $-1 $40 $40 $41 $60 forward $21 $-1 #
edge $-1 $44 0 $61 3.1415926535897931 $59 $75 forward 7 unknown #
vertex $-1 $60 $76 #
straight-curve $-1 -18.5 0 -2.2655217545713979e-015 0 1 0 I I #
ellipse-curve $-1 0 1.5 8.8817841970012523e-016 0 1 0 -18.5 0 -3.1537749981227286e-015 1 I I #
point $-1 18.5 1.5 2.2655965784226042e-015 #
coedge $-1 $77 $46 $49 $70 forward $56 $-1 #
coedge $-1 $46 $77 $48 $69 reversed $56 $-1 #
ellipse-curve $-1 0 0 0 0 -1 0 13.875 0 1.6991974338169587e-015 1 I I #
coedge $-1 $49 $48 $58 $74 reversed $37 $-1 #
edge $-1 $51 3.8495687516242128e-030 $78 1.5 $66 $79 forward 7 unknown #
edge $-1 $50 0 $80 1.5 $65 $81 forward 7 unknown #
point $-1 -13.875 0 -1.6991974338169525e-015 #
point $-1 13.875 0 1.6991974338169587e-015 #
coedge $-1 $58 $58 $77 $82 forward $39 $-1 #
edge $-1 $80 0 $78 3.1415926535897931 $58 $83 forward 7 unknown #
ellipse-curve $-1 8.8817841970012523e-016 1.5 -8.8817841970012523e-016 0 1 0 18.5 0 3.1537749981227294e-015 1 I I #
point $-1 -18.5 1.5 -2.2655965784226034e-015 #
coedge $-1 $66 $65 $73 $82 reversed $56 $-1 #
vertex $-1 $82 $84 #
straight-curve $-1 13.875 0 0 0 1 2.2655217545713979e-015 I I #
vertex $-1 $82 $85 #
straight-curve $-1 -13.875 0 -1.6991413159285484e-015 0 1 0 I I #
edge $-1 $78 0 $80 3.1415926535897931 $73 $86 forward 7 unknown #
ellipse-curve $-1 -4.4408920985006262e-016 1.5 0 0 -1 0 -13.875 0 -1.6991974338169525e-015 1 I I #
point $-1 13.875 1.5 1.6991974338169593e-015 #
point $-1 -13.875 1.5 -1.6991974338169525e-015 #
ellipse-curve $-1 -4.4408920985006262e-016 1.5 4.4408920985006262e-016 0 -1 0 13.875 0 1.2551082239668966e-015 1 I I #
End-of-ACIS-data 