600 0 1 0           
105 GICL Pro/E ACIS Translator - Source: f:/data5/repository/PTC/V20/prod_appl/boom_box/left_mesh.prt.2 - 6 0 13 ACIS 6.0.3 NT 24 Thu Apr 04 13:15:18 2002 
1 9.9999999999999995e-007 1e-010 
body $-1 $1 $-1 $-1 #
lump $-1 $-1 $2 $0 #
shell $-1 $-1 $-1 $3 $-1 $1 #
face $-1 $4 $5 $2 $-1 $6 reversed single #
face $-1 $7 $8 $2 $-1 $9 reversed single #
loop $-1 $-1 $10 $3 #
spline-surface $-1 forward { exactsur full nurbs 3 3 both open open none none 2 2 
	0 3 1 3 
	0 3 1 3 
	0 25 105.6341951940978 1 
	-106.7339375813802 25 105.6341951940978 1 
	-166.66666666666669 24.999999999999989 105.89502036555911 1 
	-250 25 106.025432954076 1 
	0 75 104.4940718267882 1 
	-101.09538438587479 75 104.4940718267882 1 
	-166.66666581895618 75 104.6679552798135 1 
	-250 75 104.7548970081836 1 
	0 125 103.3539485140862 1 
	-95.456831190297009 125 103.3539485140862 1 
	-166.66666497124561 125 103.44089023252219 1 
	-250 125 103.484361092669 1 
	0 175 102.2138251467766 1 
	-89.818277994791657 175 102.2138251467766 1 
	-166.6666641235351 175 102.2138251467767 1 
	-250 175 102.2138251467766 1 
	0 
	0 
	0 
	0 
	0 
	0 
	0 
	F 1 F 0 F 1 F 0 } I I I I #
face $-1 $11 $12 $2 $-1 $13 forward single #
loop $-1 $-1 $14 $4 #
plane-surface $-1 -62 55 0 -0.98480775301220813 -0.17364817766693005 0 -0.17364817766693005 0.98480775301220813 0 forward_v I I I I #
coedge $-1 $15 $15 $16 $17 forward $5 $18 #
face $-1 $-1 $19 $2 $-1 $20 forward single #
loop $-1 $-1 $21 $7 #
spline-surface $-1 forward { sweepsur angled 
	intcurve forward { exactcur full nurbs 3 open 8 
	0 3 0.070356439038061977 2 0.24341591216128328 2 0.40883722106391551 2 0.51922280234972329 2 
	0.62330593688868285 2 0.83612129325306817 2 1 3 
	-62 55 105.26881484504808 1 
	-68.934326169237124 53.7442257055434 105.26881484504808 1 
	-75.750546404827844 52.113976268666569 105.26881484504808 1 
	-98.940066283371991 47.946581946106001 105.26881484504808 1 
	-114.73980028691113 47.559458315808975 105.26881484504808 1 
	-151.7272579953254 47.590460373861688 105.26881484504808 1 
	-172.64639927480488 47.973799639473846 105.26881484504808 1 
	-187.02926777868825 66.841082325394666 105.26881484504808 1 
	-187.31189112136286 79.260516740349658 105.26881484504808 1 
	-186.26242654826993 103.13792209377101 105.26881484504808 1 
	-185.02160900692246 114.61030250699541 105.26881484504808 1 
	-169.1432538285232 135.92411677717911 105.26881484504808 1 
	-141.86474452654568 131.54161007260905 105.26881484504808 1 
	-97.414750869195586 117.85668337425665 105.26881484504808 1 
	-79.361559164023674 109.91732338651831 105.26881484504808 1 
	-71.169002996840163 107 105.26881484504808 1 
	0 
	null_surface 
	null_surface 
	nullbs 
	nullbs 
	I I 
	0 
	0 
	5 0.070356439038061977 0.24341591216128328 0.40883722106391551 0.51922280234972329 0.62330593688868285 
	F 1 F 0 } I I 
	straight 0 0 0 0 0 -1 I I 
	angled 
	-1.1393321395975158e-031 -9.4682099149039988e-032 -1 
	0 0 105.26881484504808 
	0 -1 0 
	-1 0 0 
	0 0 -1 
	-105.26881484504808 -100.27370506983479 
	0 0 11 VEC(0,-1,0) 
	0 
	1 0 
	0 
	55 VEC(0.57735026918963,0.57735026918963,0.57735026918963) 
	0 
	full nubs 3 3 open open none none 37 2 
	0 3 0.0625 2 0.078125 2 0.09375 1 0.15625 2 
	0.21875 2 0.23828125 1 0.25 2 0.296875 2 0.34375 2 
	0.375 2 0.390625 2 0.40625 1 0.421875 2 0.4375 2 
	0.46875 2 0.5 2 0.515625 1 0.5234375 1 0.53125 1 
	0.5625 2 0.59375 2 0.625 2 0.640625 2 0.65625 2 
	0.671875 2 0.6875 2 0.71875 2 0.75 2 0.78125 2 
	0.8125 2 0.859375 2 0.90625 2 0.953125 2 0.984375 2 
	0.9921875 1 1 3 
	-105.26881484504808 3 -100.27370506983479 3 
	-62 55 105.26881484504808 
	-68.159846915861536 53.883980959096064 105.26881484505697 
	-74.226934356242381 52.472969285149652 105.26881484504511 
	-81.697720858059924 51.041469927844261 105.26881484504881 
	-83.186009470868996 50.772706001328586 105.26881484504659 
	-86.153293961286536 50.278916489461665 105.26881484504955 
	-93.550694935465543 49.144455635065768 105.2688148450452 
	-100.91225542331512 48.475312318794643 105.26881484504807 
	-113.00432779511758 47.796045706133334 105.26881484504807 
	-119.20559653958112 47.650933645633842 105.26881484505401 
	-127.7864357387321 47.583270869252026 105.26881484504624 
	-131.10653788719534 47.572422175885016 105.26881484504864 
	-134.52684826602896 47.575165112690883 105.26881484504808 
	-141.00181632547344 47.597010882325819 105.26881484504808 
	-146.3612670450764 47.676896761270939 105.26881484505253 
	-156.75054141818904 48.446951648386843 105.26881484504366 
	-161.78247372823091 49.133230986412684 105.26881484504807 
	-169.31668955771644 51.188798339041334 105.26881484504807 
	-172.10670618805193 52.250293230641688 105.26881484504808 
	-175.79518032213005 54.316265698762145 105.26881484504808 
	-176.9442771168485 55.081623760012093 105.26881484504733 
	-179.04937803748592 56.789900773182538 105.26881484504881 
	-180.96816891751325 58.66949581180176 105.26881484504729 
	-182.45077744544756 60.938697385523511 105.26881484504884 
	-183.73146214830916 63.383350811300659 105.26881484504736 
	-184.27494645070146 64.689835788759964 105.26881484504808 
	-185.64379419657433 68.828293978071102 105.26881484504808 
	-186.21739615131835 71.871032819048779 105.2688148450481 
	-186.88662791858948 78.306046615586965 105.2688148450481 
	-186.98679407008635 81.695007132918136 105.26881484504808 
	-186.93837357035216 86.868864380815779 105.26881484504808 
	-186.86520135496909 89.477756647749388 105.26881484504801 
	-186.710733168329 92.958516198903624 105.26881484504698 
	-186.4233476250551 98.159945176245373 105.26881484504779 
	-186.02840518404619 102.40788013870335 105.26881484505105 
	-185.0194415849115 108.85513047230219 105.26881484504514 
	-184.32955438134232 111.9071018889659 105.26881484505105 
	-182.39454703765855 117.42297969920484 105.26881484504514 
	-181.15427830486493 119.89199517429488 105.26881484504659 
	-178.74587721298258 122.97742412895379 105.26881484504881 
	-177.85597330777404 123.90766056580135 105.26881484504882 
	-175.91029493612979 125.57634651764765 105.26881484504734 
	-174.85764279997161 126.31840702024883 105.26881484504659 
	-172.60162002649398 127.62312240516209 105.26881484504955 
	-171.4010862803286 128.18915503234459 105.26881484504807 
	-168.86445234690396 129.15419596798185 105.26881484504807 
	-167.53090361167833 129.55634877857636 105.26881484504808 
	-163.3496358344415 130.53084268459938 105.26881484504808 
	-160.32809325963885 130.8799530325112 105.26881484504661 
	-153.92795733573215 131.06354162000798 105.26881484504956 
	-150.5527542560005 130.9029094075093 105.26881484504807 
	-143.5653720462665 130.16513031573419 105.26881484504807 
	-139.95544142914554 129.59194001345568 105.26881484504956 
	-132.61867886869294 128.12716218366481 105.26881484504661 
	-128.89295368173262 127.23859826223259 105.26881484504958 
	-119.58260746161397 124.74183872906292 105.26881484504588 
	-113.99990417688925 122.99988819343955 105.26881484505921 
	-103.24557922001502 119.35202235821831 105.26881484503701 
	-98.071336095613958 117.44714382680979 105.26881484505253 
	-88.537899176962242 113.80351877293242 105.26881484504366 
	-84.173514978353225 112.06370983409823 105.26881484504587 
	-77.91538885378344 109.57755225429932 105.26881484504956 
	-75.678720327637137 108.69160584004628 105.26881484504808 
	-73.297624907467778 107.78377666275649 105.26881484504808 
	-72.385225597426569 107.43991830759964 105.26881484504808 
	-71.559849044385629 107.13922201300809 105.26881484504808 
	-71.169002996840163 107 105.26881484504808 
	-62 55 103.60377825325504 
	-68.159846915861536 53.883980959096064 103.60377825326393 
	-74.226934356242381 52.472969285149652 103.60377825325207 
	-81.697720858059924 51.041469927844261 103.60377825325577 
	-83.186009470868996 50.772706001328586 103.60377825325355 
	-86.153293961286536 50.278916489461665 103.60377825325651 
	-93.550694935465543 49.144455635065768 103.60377825325216 
	-100.91225542331512 48.475312318794643 103.60377825325503 
	-113.00432779511758 47.796045706133334 103.60377825325503 
	-119.20559653958112 47.650933645633842 103.60377825326097 
	-127.7864357387321 47.583270869252026 103.6037782532532 
	-131.10653788719534 47.572422175885016 103.6037782532556 
	-134.52684826602896 47.575165112690883 103.60377825325504 
	-141.00181632547344 47.597010882325819 103.60377825325504 
	-146.3612670450764 47.676896761270939 103.60377825325949 
	-156.75054141818904 48.446951648386843 103.60377825325062 
	-161.78247372823091 49.133230986412684 103.60377825325503 
	-169.31668955771644 51.188798339041334 103.60377825325503 
	-172.10670618805193 52.250293230641688 103.60377825325504 
	-175.79518032213005 54.316265698762145 103.60377825325504 
	-176.9442771168485 55.081623760012093 103.60377825325429 
	-179.04937803748592 56.789900773182538 103.60377825325577 
	-180.96816891751325 58.66949581180176 103.60377825325425 
	-182.45077744544756 60.938697385523511 103.6037782532558 
	-183.73146214830916 63.383350811300659 103.60377825325432 
	-184.27494645070146 64.689835788759964 103.60377825325504 
	-185.64379419657433 68.828293978071102 103.60377825325504 
	-186.21739615131835 71.871032819048779 103.60377825325506 
	-186.88662791858948 78.306046615586965 103.60377825325506 
	-186.98679407008635 81.695007132918136 103.60377825325504 
	-186.93837357035216 86.868864380815779 103.60377825325504 
	-186.86520135496909 89.477756647749388 103.60377825325497 
	-186.710733168329 92.958516198903624 103.60377825325394 
	-186.4233476250551 98.159945176245373 103.60377825325475 
	-186.02840518404619 102.40788013870335 103.60377825325801 
	-185.0194415849115 108.85513047230219 103.6037782532521 
	-184.32955438134232 111.9071018889659 103.60377825325801 
	-182.39454703765855 117.42297969920484 103.6037782532521 
	-181.15427830486493 119.89199517429488 103.60377825325355 
	-178.74587721298258 122.97742412895379 103.60377825325577 
	-177.85597330777404 123.90766056580135 103.60377825325578 
	-175.91029493612979 125.57634651764765 103.6037782532543 
	-174.85764279997161 126.31840702024883 103.60377825325355 
	-172.60162002649398 127.62312240516209 103.60377825325651 
	-171.4010862803286 128.18915503234459 103.60377825325503 
	-168.86445234690396 129.15419596798185 103.60377825325503 
	-167.53090361167833 129.55634877857636 103.60377825325504 
	-163.3496358344415 130.53084268459938 103.60377825325504 
	-160.32809325963885 130.8799530325112 103.60377825325357 
	-153.92795733573215 131.06354162000798 103.60377825325652 
	-150.5527542560005 130.9029094075093 103.60377825325503 
	-143.5653720462665 130.16513031573419 103.60377825325503 
	-139.95544142914554 129.59194001345568 103.60377825325652 
	-132.61867886869294 128.12716218366481 103.60377825325357 
	-128.89295368173262 127.23859826223259 103.60377825325654 
	-119.58260746161397 124.74183872906292 103.60377825325284 
	-113.99990417688925 122.99988819343955 103.60377825326617 
	-103.24557922001502 119.35202235821831 103.60377825324397 
	-98.071336095613958 117.44714382680979 103.60377825325949 
	-88.537899176962242 113.80351877293242 103.60377825325062 
	-84.173514978353225 112.06370983409823 103.60377825325283 
	-77.91538885378344 109.57755225429932 103.60377825325652 
	-75.678720327637137 108.69160584004628 103.60377825325504 
	-73.297624907467778 107.78377666275649 103.60377825325504 
	-72.385225597426569 107.43991830759964 103.60377825325504 
	-71.559849044385629 107.13922201300809 103.60377825325504 
	-71.169002996840163 107 103.60377825325504 
	-62 55 101.93874166162783 
	-68.159846915861536 53.883980959096064 101.93874166163671 
	-74.226934356242381 52.472969285149652 101.93874166162486 
	-81.697720858059924 51.041469927844261 101.93874166162855 
	-83.186009470868996 50.772706001328586 101.93874166162634 
	-86.153293961286536 50.278916489461665 101.93874166162929 
	-93.550694935465543 49.144455635065768 101.93874166162496 
	-100.91225542331512 48.475312318794643 101.93874166162782 
	-113.00432779511758 47.796045706133334 101.93874166162782 
	-119.20559653958112 47.650933645633842 101.93874166163376 
	-127.7864357387321 47.583270869252026 101.93874166162598 
	-131.10653788719534 47.572422175885016 101.93874166162838 
	-134.52684826602896 47.575165112690883 101.93874166162783 
	-141.00181632547344 47.597010882325819 101.93874166162783 
	-146.3612670450764 47.676896761270939 101.93874166163229 
	-156.75054141818904 48.446951648386843 101.9387416616234 
	-161.78247372823091 49.133230986412684 101.93874166162782 
	-169.31668955771644 51.188798339041334 101.93874166162782 
	-172.10670618805193 52.250293230641688 101.93874166162783 
	-175.79518032213005 54.316265698762145 101.93874166162783 
	-176.9442771168485 55.081623760012093 101.93874166162708 
	-179.04937803748592 56.789900773182538 101.93874166162855 
	-180.96816891751325 58.66949581180176 101.93874166162703 
	-182.45077744544756 60.938697385523511 101.93874166162858 
	-183.73146214830916 63.383350811300659 101.93874166162711 
	-184.27494645070146 64.689835788759964 101.93874166162783 
	-185.64379419657433 68.828293978071102 101.93874166162783 
	-186.21739615131835 71.871032819048779 101.93874166162784 
	-186.88662791858948 78.306046615586965 101.93874166162784 
	-186.98679407008635 81.695007132918136 101.93874166162783 
	-186.93837357035216 86.868864380815779 101.93874166162783 
	-186.86520135496909 89.477756647749388 101.93874166162777 
	-186.710733168329 92.958516198903624 101.93874166162672 
	-186.4233476250551 98.159945176245373 101.93874166162755 
	-186.02840518404619 102.40788013870335 101.9387416616308 
	-185.0194415849115 108.85513047230219 101.93874166162489 
	-184.32955438134232 111.9071018889659 101.9387416616308 
	-182.39454703765855 117.42297969920484 101.93874166162489 
	-181.15427830486493 119.89199517429488 101.93874166162634 
	-178.74587721298258 122.97742412895379 101.93874166162855 
	-177.85597330777404 123.90766056580135 101.93874166162857 
	-175.91029493612979 125.57634651764765 101.93874166162709 
	-174.85764279997161 126.31840702024883 101.93874166162634 
	-172.60162002649398 127.62312240516209 101.93874166162929 
	-171.4010862803286 128.18915503234459 101.93874166162782 
	-168.86445234690396 129.15419596798185 101.93874166162782 
	-167.53090361167833 129.55634877857636 101.93874166162783 
	-163.3496358344415 130.53084268459938 101.93874166162783 
	-160.32809325963885 130.8799530325112 101.93874166162635 
	-153.92795733573215 131.06354162000798 101.93874166162931 
	-150.5527542560005 130.9029094075093 101.93874166162782 
	-143.5653720462665 130.16513031573419 101.93874166162782 
	-139.95544142914554 129.59194001345568 101.93874166162931 
	-132.61867886869294 128.12716218366481 101.93874166162635 
	-128.89295368173262 127.23859826223259 101.93874166162932 
	-119.58260746161397 124.74183872906292 101.93874166162563 
	-113.99990417688925 122.99988819343955 101.93874166163896 
	-103.24557922001502 119.35202235821831 101.93874166161676 
	-98.071336095613958 117.44714382680979 101.93874166163229 
	-88.537899176962242 113.80351877293242 101.9387416616234 
	-84.173514978353225 112.06370983409823 101.93874166162561 
	-77.91538885378344 109.57755225429932 101.93874166162931 
	-75.678720327637137 108.69160584004628 101.93874166162783 
	-73.297624907467778 107.78377666275649 101.93874166162783 
	-72.385225597426569 107.43991830759964 101.93874166162783 
	-71.559849044385629 107.13922201300809 101.93874166162783 
	-71.169002996840163 107 101.93874166162783 
	-62 55 100.27370506983479 
	-68.159846915861536 53.883980959096064 100.27370506984367 
	-74.226934356242381 52.472969285149652 100.27370506983182 
	-81.697720858059924 51.041469927844261 100.27370506983551 
	-83.186009470868996 50.772706001328586 100.2737050698333 
	-86.153293961286536 50.278916489461665 100.27370506983625 
	-93.550694935465543 49.144455635065768 100.27370506983192 
	-100.91225542331512 48.475312318794643 100.27370506983478 
	-113.00432779511758 47.796045706133334 100.27370506983478 
	-119.20559653958112 47.650933645633842 100.27370506984072 
	-127.7864357387321 47.583270869252026 100.27370506983294 
	-131.10653788719534 47.572422175885016 100.27370506983534 
	-134.52684826602896 47.575165112690883 100.27370506983479 
	-141.00181632547344 47.597010882325819 100.27370506983479 
	-146.3612670450764 47.676896761270939 100.27370506983925 
	-156.75054141818904 48.446951648386843 100.27370506983036 
	-161.78247372823091 49.133230986412684 100.27370506983478 
	-169.31668955771644 51.188798339041334 100.27370506983478 
	-172.10670618805193 52.250293230641688 100.27370506983479 
	-175.79518032213005 54.316265698762145 100.27370506983479 
	-176.9442771168485 55.081623760012093 100.27370506983404 
	-179.04937803748592 56.789900773182538 100.27370506983551 
	-180.96816891751325 58.66949581180176 100.27370506983399 
	-182.45077744544756 60.938697385523511 100.27370506983554 
	-183.73146214830916 63.383350811300659 100.27370506983407 
	-184.27494645070146 64.689835788759964 100.27370506983479 
	-185.64379419657433 68.828293978071102 100.27370506983479 
	-186.21739615131835 71.871032819048779 100.2737050698348 
	-186.88662791858948 78.306046615586965 100.2737050698348 
	-186.98679407008635 81.695007132918136 100.27370506983479 
	-186.93837357035216 86.868864380815779 100.27370506983479 
	-186.86520135496909 89.477756647749388 100.27370506983473 
	-186.710733168329 92.958516198903624 100.27370506983368 
	-186.4233476250551 98.159945176245373 100.27370506983451 
	-186.02840518404619 102.40788013870335 100.27370506983776 
	-185.0194415849115 108.85513047230219 100.27370506983185 
	-184.32955438134232 111.9071018889659 100.27370506983776 
	-182.39454703765855 117.42297969920484 100.27370506983185 
	-181.15427830486493 119.89199517429488 100.2737050698333 
	-178.74587721298258 122.97742412895379 100.27370506983551 
	-177.85597330777404 123.90766056580135 100.27370506983553 
	-175.91029493612979 125.57634651764765 100.27370506983405 
	-174.85764279997161 126.31840702024883 100.2737050698333 
	-172.60162002649398 127.62312240516209 100.27370506983625 
	-171.4010862803286 128.18915503234459 100.27370506983478 
	-168.86445234690396 129.15419596798185 100.27370506983478 
	-167.53090361167833 129.55634877857636 100.27370506983479 
	-163.3496358344415 130.53084268459938 100.27370506983479 
	-160.32809325963885 130.8799530325112 100.27370506983331 
	-153.92795733573215 131.06354162000798 100.27370506983627 
	-150.5527542560005 130.9029094075093 100.27370506983478 
	-143.5653720462665 130.16513031573419 100.27370506983478 
	-139.95544142914554 129.59194001345568 100.27370506983627 
	-132.61867886869294 128.12716218366481 100.27370506983331 
	-128.89295368173262 127.23859826223259 100.27370506983628 
	-119.58260746161397 124.74183872906292 100.27370506983259 
	-113.99990417688925 122.99988819343955 100.27370506984592 
	-103.24557922001502 119.35202235821831 100.27370506982372 
	-98.071336095613958 117.44714382680979 100.27370506983925 
	-88.537899176962242 113.80351877293242 100.27370506983036 
	-84.173514978353225 112.06370983409823 100.27370506983257 
	-77.91538885378344 109.57755225429932 100.27370506983627 
	-75.678720327637137 108.69160584004628 100.27370506983479 
	-73.297624907467778 107.78377666275649 100.27370506983479 
	-72.385225597426569 107.43991830759964 100.27370506983479 
	-71.559849044385629 107.13922201300809 100.27370506983479 
	-71.169002996840163 107 100.27370506983479 
	0.001 
	0 
	0 
	0 
	0 
	0 
	0 
	} I I I I #
coedge $-1 $22 $16 $23 $24 reversed $8 $-1 #
coedge $-1 $10 $10 $25 $26 forward $5 $27 #
coedge $-1 $14 $28 $10 $17 reversed $8 $-1 #
edge $-1 $29 0 $30 1 $10 $31 forward 7 unknown #
pcurve $-1 0 forward { exppc nurbs 3 open 4 
	0 3 0.33104139085201878 1 0.66437494168576716 1 1 3 
	0.21610166071829054 0.19999999999999998 1 
	0.22071955554626363 0.23707935471499506 0.99999999999999989 
	0.23017305850904013 0.31227537510680053 1.0000000000000004 
	0.2449769616682623 0.42784535190002482 1 
	0.25523974446793662 0.50670625791673163 1 
	0.26048153201504287 0.54666666666666686 1 
	0.001 
	spline forward { ref 0 } I I I I 
	} 0 0 #
loop $-1 $-1 $32 $11 #
spline-surface $-1 forward { exactsur full nurbs 3 3 both open open none none 2 2 
	0 3 1 3 
	0 3 1 3 
	0 24.931610375329623 102.63497481886068 1 
	-106.73882370093037 24.931610375329623 102.63497481886068 1 
	-166.67536759558487 24.926398419883135 102.89593217807737 1 
	-250.00469333243257 24.923792536320949 103.02640471227662 1 
	0 74.931610377512214 101.49485145150132 1 
	-101.09889992351604 74.931610377512243 101.49485145150292 1 
	-166.67225474369985 74.926398246757017 101.66886013603379 1 
	-250.00312889216653 74.92379247536266 101.75586631966077 1 
	0 124.93161037751223 100.35472813879932 1 
	-95.45876663431585 124.93161037751224 100.3547281387991 1 
	-166.66935357842064 124.92639817203178 100.44179210723168 1 
	-250.00156444591406 124.92379244427639 100.485329180793 1 
	0 174.93161037532963 99.214604771539484 1 
	-89.818277994791657 174.93161037532963 99.214604771539484 1 
	-166.6666641235351 174.9263981704685 99.214727021524851 1 
	-250 174.92379244306244 99.214793234931449 1 
	0 
	0 
	0 
	0 
	0 
	0 
	0 
	F 1 F 0 F 1 F 0 } I I I I #
coedge $-1 $33 $25 $28 $34 reversed $12 $35 #
coedge $-1 $28 $14 $32 $36 reversed $8 $-1 #
coedge $-1 $25 $33 $14 $24 forward $12 $37 #
edge $-1 $38 1.4210854715202004e-014 $29 3.0007930473197746 $23 $39 forward 7 unknown #
coedge $-1 $21 $23 $15 $26 reversed $12 $40 #
edge $-1 $30 0 $29 1.0000000000000002 $15 $41 forward 7 unknown #
pcurve $-1 0 forward { exppc nurbs 3 open 45 
	0 3 0.022443843029619437 1 0.044903532287212437 1 0.067377178846272395 1 0.089871397356406452 1 
	0.11240019916999058 1 0.13496575319630016 1 0.15757024332642847 1 0.18021788085661603 1 0.20291374357864594 1 
	0.22565215001681371 1 0.24841010473803113 1 0.27116443318193678 1 0.29389552296143195 1 0.3165902724215513 1 
	0.33923788125788246 1 0.3618346869471683 1 0.38439498005377437 1 0.40693127999492357 1 0.42946366618170001 1 
	0.45201715425550648 1 0.47461763501152043 1 0.49728585902576 1 0.52002742972337235 1 0.54283423132905562 1 
	0.56570401791665803 1 0.58860220696494536 1 0.6114903275157495 1 0.63434145361185335 1 0.6571533950866838 1 
	0.67992529052692952 1 0.70265936137466956 1 0.72536566281859216 1 0.74804956180802074 1 0.77071961299006264 1 
	0.79338950709202705 1 0.81609357605730692 1 0.83884273824498512 1 0.86164029843738055 1 0.88449780994706284 1 
	0.90742493283164516 1 0.93043231435546225 1 0.95352576726346505 1 0.9767145715975003 1 1.0000000000000002 3 
	0.26048153201504287 0.54666666666666686 1 
	0.26448985413378046 0.54911626935532154 1.0000000000000002 
	0.27274646415250386 0.55426430775210578 0.99999999999999978 
	0.28588205695369795 0.56287111016413083 1.0000000000000002 
	0.29967076192918984 0.57194606434691109 1 
	0.314484506743201 0.58165910567590784 0.99999999999999978 
	0.33148062505649922 0.59264455934859595 1 
	0.35059006774474283 0.6047109973027156 1.0000000000000004 
	0.37206014821484656 0.61782993742499115 1 
	0.39620176332896473 0.63194564245221796 1.0000000000000002 
	0.42357950706039915 0.64703409396733236 1 
	0.45418604502849014 0.66256449525279892 0.99999999999999989 
	0.48658531330673155 0.67720907827564025 1 
	0.51955540394737476 0.68985172246018267 1.0000000000000002 
	0.55184186606337426 0.69950814190233235 1 
	0.58259070567196614 0.70550636100220965 1 
	0.61075208966672923 0.70732592097175973 1.0000000000000002 
	0.63523557301325984 0.70503549798384246 0.99999999999999989 
	0.65671073457734574 0.69883320231401613 1.0000000000000002 
	0.67488295425181777 0.68904832232774216 1 
	0.69029298298684882 0.67578239955078012 1 
	0.70345283647603096 0.6585179909411949 1 
	0.71437832655177813 0.63621377693549597 1.0000000000000002 
	0.72294557772821733 0.60807132474038894 0.99999999999999967 
	0.72933202477052916 0.57421008696479836 1.0000000000000002 
	0.73361214703268429 0.53602004859486951 1 
	0.73622042814124988 0.49293914548867651 0.99999999999999978 
	0.73742699917595589 0.44801548274994668 1 
	0.73791192616803047 0.40379876914316437 1 
	0.73718262750293018 0.36240151281282362 1.0000000000000002 
	0.7347470635964275 0.32355943795042541 1.0000000000000002 
	0.73006527975224256 0.28759482946811687 0.99999999999999978 
	0.72250007227574597 0.25479914010959254 1 
	0.71069159515041469 0.22495206211687677 0.99999999999999989 
	0.6929256880714818 0.19995160393860353 0.99999999999999978 
	0.67004595478135665 0.18092240222693207 1.0000000000000002 
	0.6440338039187059 0.16766903914080472 0.99999999999999967 
	0.61355560327175485 0.15842266843539449 1.0000000000000002 
	0.57916910700871393 0.15299698047196239 0.99999999999999978 
	0.54144184677990803 0.15065224244319497 0.99999999999999989 
	0.49963133811142196 0.1504218747615346 1.0000000000000002 
	0.45329380713310663 0.15065461411271464 1 
	0.40159768402653095 0.15281790761640732 1 
	0.34447454455709609 0.1589082541040342 0.99999999999999978 
	0.28269334457624667 0.17542246676384068 1.0000000000000002 
	0.23878870319763393 0.19091061196881656 1 
	0.21610166071829054 0.19999999999999998 1 
	0.001 
	spline forward { ref 0 } I I I I 
	} 0 0 #
coedge $-1 $16 $22 $21 $34 forward $8 $-1 #
vertex $-1 $26 $42 #
tvertex-vertex $-1 $26 $43 3.4809342861069267e-014 #
intcurve-curve $-1 forward { surfintcur full nurbs 3 open 4 
	0 3 0.33106456627046299 1 0.66439789825920637 1 1 3 
	-62 55 104.97619574375125 1 
	-62.980677607353719 60.561699085491249 104.84922970273549 0.99999999999999989 
	-64.969470345204968 71.840703182654963 104.59146946727729 1.0000000000000002 
	-68.026187339261369 89.176206698763337 104.19457030375654 0.99999999999999978 
	-70.112053751946746 101.00574296317738 103.92305735352886 1 
	-71.169002996840163 107 103.78532637802546 1 
	0.001 
	spline forward { ref 0 } I I I I 
	plane -62 55 0 -0.98480775301220813 -0.17364817766693005 0 -0.17364817766693005 0.98480775301220813 0 forward_v I I I I 
	nurbs 3 open 4 
	0 3 0.33104139085201878 1 0.66437494168576716 1 1 3 
	0.21610166071829054 0.19999999999999998 1 
	0.22071955554626363 0.23707935471499506 0.99999999999999989 
	0.23017305850904013 0.31227537510680053 1.0000000000000004 
	0.2449769616682623 0.42784535190002482 1 
	0.25523974446793662 0.50670625791673163 1 
	0.26048153201504287 0.54666666666666686 1 
	
	nullbs 
	I I 
	0 
	0 
	0 
	} I I #
coedge $-1 $44 $44 $22 $36 forward $19 $45 #
tcoedge-coedge $-1 $23 $21 $44 $46 reversed $12 $47 -1.0000000000000002 0 #
edge $-1 $48 -1.4210854715202004e-014 $30 3.0007991879499798 $21 $49 forward 7 unknown #
pcurve $-1 0 forward { exppc nurbs 3 open 2 
	-3.0007991879499798 3 1.4210854715202004e-014 3 
	1 -103.78532637802547 1 
	1 -102.78505998204213 1 
	1 -101.78479358605878 1 
	1 -100.78452719007545 1 
	0.001 
	spline forward { ref 1 } I I I I 
	} 0 0 #
edge $-1 $48 0 $38 1 $32 $50 forward 7 unknown #
pcurve $-1 0 forward { exppc nurbs 3 open 2 
	1.4210854715202004e-014 3 3.0007930473197746 3 
	0 -101.97540269643143 1 
	0 -102.97566704553803 1 
	0 -103.97593139464465 1 
	0 -104.97619574375126 1 
	0.001 
	spline forward { ref 1 } I I I I 
	} 0 0 #
tvertex-vertex $-1 $46 $51 2.6586074758753436e-014 #
straight-curve $-1 -62 55 101.97540269643143 0 0 1 I I #
pcurve $-1 0 forward { exppc nurbs 3 open 45 
	-1.0000000000000002 3 -0.97695076228812794 1 -0.95406193470930389 1 -0.93136099010315376 1 -0.90877605589955945 1 
	-0.88626397715490124 1 -0.86380231442712507 1 -0.84138618383292485 1 -0.81898674367849056 1 -0.79654462796941528 1 
	-0.77400736465691655 1 -0.75132524426183633 1 -0.72848187376578055 1 -0.70550013152539615 1 -0.68241967089733246 1 
	-0.65924925191085215 1 -0.63599662572211391 1 -0.61266926009839229 1 -0.58927421106319589 1 -0.56586020906444701 1 
	-0.5424953947269362 1 -0.51924281497643421 1 -0.49611108547913352 1 -0.47312280941761631 1 -0.45028191183122179 1 
	-0.42756905988266303 1 -0.40495811195029585 1 -0.38243151545761223 1 -0.35998156630074607 1 -0.3375948004931123 1 
	-0.31522248487435311 1 -0.29280470334137976 1 -0.27031973632606354 1 -0.24777307372623503 1 -0.22518361772249107 1 
	-0.20257681219164669 1 -0.17997970890721882 1 -0.15740524207810913 1 -0.13485518092885018 1 -0.1123299433726318 1 
	-0.089830456722012841 1 -0.067356837129178615 1 -0.044897232271603804 1 -0.022445182032972077 1 0 3 
	0 -104.97619574375126 1 
	0.020653846179644348 -105.01285553170685 1 
	0.060309797416099042 -105.07759635605514 1.0000000000000002 
	0.11585778258776973 -105.15474156938592 0.99999999999999967 
	0.16504812047054454 -105.19664694215574 1 
	0.20652125320669504 -105.22433561394259 1 
	0.2410039769790627 -105.2440909023826 1 
	0.26994754605388266 -105.26094078378669 0.99999999999999989 
	0.29569581752186891 -105.26881484504808 1.0000000000000004 
	0.31979302608271182 -105.26418307835212 0.99999999999999978 
	0.34254071321060764 -105.2438225966292 1.0000000000000002 
	0.36395727249107418 -105.20663399460176 0.99999999999999978 
	0.38578509940723565 -105.14657084537667 1 
	0.40702810308121412 -105.06206469351967 1 
	0.42682750058992525 -104.95699667340557 0.99999999999999989 
	0.44547178828583339 -104.83906897130163 1 
	0.46390616626493841 -104.70817125256202 1 
	0.48244732170187621 -104.56574004408476 0.99999999999999989 
	0.5013611564849072 -104.41324704292778 0.99999999999999978 
	0.52115960394786021 -104.25005110663594 0.99999999999999978 
	0.54139491677411944 -104.08410818493762 1.0000000000000002 
	0.5615253145512894 -103.92466799973349 1 
	0.58060227668263664 -103.78290005339437 1 
	0.59926174830787737 -103.65684875573942 0.99999999999999989 
	0.61707018170108108 -103.55161076306103 0.99999999999999989 
	0.63417145976467504 -103.46762782877185 1.0000000000000002 
	0.65084987875317823 -103.4019969824305 0.99999999999999978 
	0.66758469555697386 -103.35087468834618 0.99999999999999978 
	0.68501393413433254 -103.31223228409699 1 
	0.70357955159256702 -103.28628935643327 0.99999999999999978 
	0.72303065166207947 -103.27421410091272 1 
	0.74393120750376374 -103.27653925099411 1 
	0.76555908638824566 -103.29351023766449 0.99999999999999989 
	0.78748812745373364 -103.32321115829728 1.0000000000000004 
	0.80950641830785508 -103.36322886111506 0.99999999999999978 
	0.83115560856883886 -103.41016474601238 1 
	0.85196547427428893 -103.4602333820818 1 
	0.87118389531447615 -103.50901465432894 1.0000000000000002 
	0.88887845999989412 -103.55472130977263 1 
	0.90547629582635569 -103.59723994263591 1 
	0.9212137638317347 -103.63636887103267 1 
	0.93630063840687261 -103.67200187428546 1 
	0.95060489788071389 -103.70350762479238 1 
	0.96535130494062737 -103.73293282632061 1 
	0.98117342421481679 -103.76081907396524 1 
	0.99348859416434632 -103.77743377787904 1 
	1 -103.78532637802547 1 
	0.001 
	spline forward { ref 1 } I I I I 
	} 0 0 #
intcurve-curve $-1 forward { surfintcur full nurbs 3 open 45 
	0 3 0.022466554160749587 1 0.04494746713266743 1 0.067441790015044217 1 0.089957211730318787 1 
	0.11250913402180907 1 0.13510019850380087 1 0.1577332226502961 1 0.18041346230055941 1 0.20314753774436375 1 
	0.22593102954826386 1 0.24874101012389213 1 0.27155390947282959 1 0.2943489289826885 1 0.31711071014940861 1 
	0.33982394567840607 1 0.36247875495551807 1 0.38508409043919239 1 0.40764605821042876 1 0.43017956232919646 1 
	0.45270460418892955 1 0.47524186042765848 1 0.4978109172269809 1 0.52042216274447339 1 0.54307442869339639 1 
	0.56576925363410713 1 0.58848328003588857 1 0.61118943049110031 1 0.63386844047418867 1 0.6565196268544643 1 
	0.6791446203267365 1 0.70174990058044062 1 0.72435349846222663 1 0.74697606879477896 1 0.76962868974980736 1 
	0.7923138058725121 1 0.81505554124960866 1 0.83785867282125703 1 0.86072342393853118 1 0.88366267315096236 1 
	0.90669055452280878 1 0.92982575365831222 1 0.95308221072378707 1 0.97647122476949466 1 1.0000000000000002 3 
	-71.169002996840163 107 103.78532637802547 1 
	-72.181079717943859 107.36742548625244 103.77743217159257 1 
	-74.25879840751972 108.13960330361925 103.76081464671984 1 
	-77.543948585677896 109.43065003789675 103.73292918623697 1.0000000000000002 
	-80.972997111975033 110.79192285134121 103.7035030626112 1.0000000000000002 
	-84.637575263053009 112.24893309714031 103.67199397827716 0.99999999999999978 
	-88.819376969028369 113.89677268081827 103.6363579297402 1 
	-93.495259534071565 115.70677271289668 103.59722469185746 0.99999999999999978 
	-98.720431958836954 117.67466868657972 103.55469948728323 1.0000000000000002 
	-104.56530212872646 119.79211315203844 103.50898245420167 1.0000000000000002 
	-111.16143237388304 122.05546525081678 103.46018947690298 1 
	-118.50326925621742 124.38502181586283 103.41011714460203 0.99999999999999989 
	-126.24892917334714 126.58166092393438 103.3631840025119 1.0000000000000002 
	-134.114373501637 128.47795812042534 103.32317655711473 1 
	-141.81014162719799 129.92630062030543 103.29349222326304 0.99999999999999978 
	-149.14110523381615 130.82592111188629 103.27654363393164 1.0000000000000002 
	-155.86299075475799 131.09887718383808 103.27421073496514 0.99999999999999967 
	-161.71790062246987 130.75548877874846 103.28624186620995 1.0000000000000002 
	-166.86508545558476 129.8254832872048 103.31214492231769 1.0000000000000002 
	-171.23303556228441 128.35817588816988 103.35076271292628 1 
	-174.94954650049667 126.3688257858325 103.40185720983067 0.99999999999999989 
	-178.13757739259214 123.77996467858095 103.46743921654675 1 
	-180.80355904287302 120.43509074908832 103.55137159569109 0.99999999999999989 
	-182.91961060094718 116.21394132967292 103.65659100899406 1 
	-184.52732795727766 111.13431072543735 103.78267693984428 1 
	-185.6419132508897 105.40582243291578 103.92443478689276 1.0000000000000002 
	-186.37017777529809 98.942198865160194 104.08400438578379 0.99999999999999989 
	-186.7702378475868 92.201975954822586 104.25009176884608 1 
	-186.99768162449072 85.56837968750402 104.41338900540471 1 
	-186.93344929471357 79.35878284062008 104.56588400076603 1 
	-186.4661463231312 73.532228671598588 104.70833489296012 1 
	-185.47265814176285 68.137192158144842 104.83925654891046 1.0000000000000002 
	-183.80845243986965 63.217212846925676 104.95722842575432 0.99999999999999956 
	-181.16390354762393 58.738870530193928 105.06240541291797 1.0000000000000004 
	-177.14738559545185 54.989492003147504 105.1468817354951 0.99999999999999989 
	-171.95636309657507 52.136711265372888 105.20681808713127 1 
	-166.03915199034481 50.149570579604713 105.24391541617952 0.99999999999999978 
	-159.08413776535639 48.763025815368735 105.2642067218116 1.0000000000000002 
	-151.200451789483 47.949391759952917 105.26880983934784 0.99999999999999967 
	-142.49179560548072 47.597786214921506 105.26093359742214 1.0000000000000002 
	-132.75054304004587 47.563278114256349 105.24407514745226 0.99999999999999989 
	-121.82385121150314 47.598261668859081 105.22432064995994 0.99999999999999978 
	-109.41940492646904 47.923067171587348 105.1966325072656 1.0000000000000004 
	-95.374082817362009 48.837405764273122 105.15482918931465 1 
	-79.676483540891866 51.316448974317126 105.07764025270099 1 
	-68.085293248186758 53.637142698227201 105.01286642061035 1 
	-62 55 104.97619574375126 1 
	0.001 
	spline forward { ref 1 } I I I I 
	spline forward { ref 0 } I I I I 
	nurbs 3 open 45 
	0 3 0.022445182032972077 1 0.044897232271603804 1 0.067356837129178615 1 0.089830456722012841 1 
	0.1123299433726318 1 0.13485518092885018 1 0.15740524207810913 1 0.17997970890721882 1 0.20257681219164669 1 
	0.22518361772249107 1 0.24777307372623503 1 0.27031973632606354 1 0.29280470334137976 1 0.31522248487435311 1 
	0.3375948004931123 1 0.35998156630074607 1 0.38243151545761223 1 0.40495811195029585 1 0.42756905988266303 1 
	0.45028191183122179 1 0.47312280941761631 1 0.49611108547913352 1 0.51924281497643421 1 0.5424953947269362 1 
	0.56586020906444701 1 0.58927421106319589 1 0.61266926009839229 1 0.63599662572211391 1 0.65924925191085215 1 
	0.68241967089733246 1 0.70550013152539615 1 0.72848187376578055 1 0.75132524426183633 1 0.77400736465691655 1 
	0.79654462796941528 1 0.81898674367849056 1 0.84138618383292485 1 0.86380231442712507 1 0.88626397715490124 1 
	0.90877605589955945 1 0.93136099010315376 1 0.95406193470930389 1 0.97695076228812794 1 1.0000000000000002 3 
	1 -103.78532637802547 1 
	0.99348859416434632 -103.77743377787904 1 
	0.98117342421481679 -103.76081907396524 1 
	0.96535130494062737 -103.73293282632061 1 
	0.95060489788071389 -103.70350762479238 1 
	0.93630063840687261 -103.67200187428546 1 
	0.9212137638317347 -103.63636887103267 1 
	0.90547629582635569 -103.59723994263591 1 
	0.88887845999989412 -103.55472130977263 1 
	0.87118389531447615 -103.50901465432894 1.0000000000000002 
	0.85196547427428893 -103.4602333820818 1 
	0.83115560856883886 -103.41016474601238 1 
	0.80950641830785508 -103.36322886111506 0.99999999999999978 
	0.78748812745373364 -103.32321115829728 1.0000000000000004 
	0.76555908638824566 -103.29351023766449 0.99999999999999989 
	0.74393120750376374 -103.27653925099411 1 
	0.72303065166207947 -103.27421410091272 1 
	0.70357955159256702 -103.28628935643327 0.99999999999999978 
	0.68501393413433254 -103.31223228409699 1 
	0.66758469555697386 -103.35087468834618 0.99999999999999978 
	0.65084987875317823 -103.4019969824305 0.99999999999999978 
	0.63417145976467504 -103.46762782877185 1.0000000000000002 
	0.61707018170108108 -103.55161076306103 0.99999999999999989 
	0.59926174830787737 -103.65684875573942 0.99999999999999989 
	0.58060227668263664 -103.78290005339437 1 
	0.5615253145512894 -103.92466799973349 1 
	0.54139491677411944 -104.08410818493762 1.0000000000000002 
	0.52115960394786021 -104.25005110663594 0.99999999999999978 
	0.5013611564849072 -104.41324704292778 0.99999999999999978 
	0.48244732170187621 -104.56574004408476 0.99999999999999989 
	0.46390616626493841 -104.70817125256202 1 
	0.44547178828583339 -104.83906897130163 1 
	0.42682750058992525 -104.95699667340557 0.99999999999999989 
	0.40702810308121412 -105.06206469351967 1 
	0.38578509940723565 -105.14657084537667 1 
	0.36395727249107418 -105.20663399460176 0.99999999999999978 
	0.34254071321060764 -105.2438225966292 1.0000000000000002 
	0.31979302608271182 -105.26418307835212 0.99999999999999978 
	0.29569581752186891 -105.26881484504808 1.0000000000000004 
	0.26994754605388266 -105.26094078378669 0.99999999999999989 
	0.2410039769790627 -105.2440909023826 1 
	0.20652125320669504 -105.22433561394259 1 
	0.16504812047054454 -105.19664694215574 1 
	0.11585778258776973 -105.15474156938592 0.99999999999999967 
	0.060309797416099042 -105.07759635605514 1.0000000000000002 
	0.020653846179644348 -105.01285553170685 1 
	0 -104.97619574375126 1 
	
	nurbs 3 open 45 
	0 3 0.022443843029619437 1 0.044903532287212437 1 0.067377178846272395 1 0.089871397356406452 1 
	0.11240019916999058 1 0.13496575319630016 1 0.15757024332642847 1 0.18021788085661603 1 0.20291374357864594 1 
	0.22565215001681371 1 0.24841010473803113 1 0.27116443318193678 1 0.29389552296143195 1 0.3165902724215513 1 
	0.33923788125788246 1 0.3618346869471683 1 0.38439498005377437 1 0.40693127999492357 1 0.42946366618170001 1 
	0.45201715425550648 1 0.47461763501152043 1 0.49728585902576 1 0.52002742972337235 1 0.54283423132905562 1 
	0.56570401791665803 1 0.58860220696494536 1 0.6114903275157495 1 0.63434145361185335 1 0.6571533950866838 1 
	0.67992529052692952 1 0.70265936137466956 1 0.72536566281859216 1 0.74804956180802074 1 0.77071961299006264 1 
	0.79338950709202705 1 0.81609357605730692 1 0.83884273824498512 1 0.86164029843738055 1 0.88449780994706284 1 
	0.90742493283164516 1 0.93043231435546225 1 0.95352576726346505 1 0.9767145715975003 1 1.0000000000000002 3 
	0.26048153201504287 0.54666666666666686 1 
	0.26448985413378046 0.54911626935532154 1.0000000000000002 
	0.27274646415250386 0.55426430775210578 0.99999999999999978 
	0.28588205695369795 0.56287111016413083 1.0000000000000002 
	0.29967076192918984 0.57194606434691109 1 
	0.314484506743201 0.58165910567590784 0.99999999999999978 
	0.33148062505649922 0.59264455934859595 1 
	0.35059006774474283 0.6047109973027156 1.0000000000000004 
	0.37206014821484656 0.61782993742499115 1 
	0.39620176332896473 0.63194564245221796 1.0000000000000002 
	0.42357950706039915 0.64703409396733236 1 
	0.45418604502849014 0.66256449525279892 0.99999999999999989 
	0.48658531330673155 0.67720907827564025 1 
	0.51955540394737476 0.68985172246018267 1.0000000000000002 
	0.55184186606337426 0.69950814190233235 1 
	0.58259070567196614 0.70550636100220965 1 
	0.61075208966672923 0.70732592097175973 1.0000000000000002 
	0.63523557301325984 0.70503549798384246 0.99999999999999989 
	0.65671073457734574 0.69883320231401613 1.0000000000000002 
	0.67488295425181777 0.68904832232774216 1 
	0.69029298298684882 0.67578239955078012 1 
	0.70345283647603096 0.6585179909411949 1 
	0.71437832655177813 0.63621377693549597 1.0000000000000002 
	0.72294557772821733 0.60807132474038894 0.99999999999999967 
	0.72933202477052916 0.57421008696479836 1.0000000000000002 
	0.73361214703268429 0.53602004859486951 1 
	0.73622042814124988 0.49293914548867651 0.99999999999999978 
	0.73742699917595589 0.44801548274994668 1 
	0.73791192616803047 0.40379876914316437 1 
	0.73718262750293018 0.36240151281282362 1.0000000000000002 
	0.7347470635964275 0.32355943795042541 1.0000000000000002 
	0.73006527975224256 0.28759482946811687 0.99999999999999978 
	0.72250007227574597 0.25479914010959254 1 
	0.71069159515041469 0.22495206211687677 0.99999999999999989 
	0.6929256880714818 0.19995160393860353 0.99999999999999978 
	0.67004595478135665 0.18092240222693207 1.0000000000000002 
	0.6440338039187059 0.16766903914080472 0.99999999999999967 
	0.61355560327175485 0.15842266843539449 1.0000000000000002 
	0.57916910700871393 0.15299698047196239 0.99999999999999978 
	0.54144184677990803 0.15065224244319497 0.99999999999999989 
	0.49963133811142196 0.1504218747615346 1.0000000000000002 
	0.45329380713310663 0.15065461411271464 1 
	0.40159768402653095 0.15281790761640732 1 
	0.34447454455709609 0.1589082541040342 0.99999999999999978 
	0.28269334457624667 0.17542246676384068 1.0000000000000002 
	0.23878870319763393 0.19091061196881656 1 
	0.21610166071829054 0.19999999999999998 1 
	
	I I 
	0 
	0 
	0 
	} I I #
point $-1 -62.000000000000036 54.999999999999993 104.97619574375121 #
point $-1 -71.169002996840177 106.99999999999999 103.78532637802545 #
tcoedge-coedge $-1 $32 $32 $33 $46 forward $19 $52 0 1.0000000000000002 #
pcurve $-1 0 forward { exppc nurbs 3 open 4 
	0 3 0.3356257695638063 1 0.66895931906724915 1 1 3 
	0.26048813985434466 0.54712874951234014 1 
	0.2552457555139695 0.50716769074122947 0.99999999999999989 
	0.24498188967426038 0.42830581843423654 1 
	0.23017667351044524 0.31273522998856396 1 
	0.22072248565064961 0.23753938196715002 1 
	0.21610429942290058 0.20046027296003469 1 
	0.001 
	spline forward { ref 4 } I I I I 
	} 0 0 #
tedge-edge $-1 $38 0 $48 1.0000000000000002 $44 $53 forward 7 unknown 0.15358575201090854 #
pcurve $-1 0 forward { exppc nurbs 3 open 45 
	-1.0000000000000002 3 -0.97755933649283822 1 -0.95510750347462525 1 -0.93264489464575606 1 -0.91016598574693608 1 
	-0.88765937880077883 1 -0.86512622222582225 1 -0.84256826909467519 1 -0.81998670873287094 1 -0.79738423963640104 1 
	-0.77477617623440653 1 -0.75219009730885733 1 -0.72965087616312507 1 -0.70717534141990068 1 -0.68476560605255199 1 
	-0.66239690496361914 1 -0.64001003983353955 1 -0.6175580525879748 1 -0.59502624110301772 1 -0.57240486685088987 1 
	-0.54967552339763315 1 -0.52681414040034835 1 -0.50380863983198554 1 -0.48067082133280159 1 -0.45742606971182898 1 
	-0.43408261421854566 1 -0.4106991470413307 1 -0.38733654245928129 1 -0.3640378976915194 1 -0.34080732641601774 1 
	-0.31764992935097858 1 -0.29457170994594473 1 -0.27158152778268974 1 -0.24872090287724447 1 -0.22602178464938116 1 
	-0.20347324368102093 1 -0.18102485381737066 1 -0.15862357834293583 1 -0.13620799239204118 1 -0.11374651150036885 1 
	-0.091234128860359975 1 -0.068648708363932776 1 -0.045946371229016125 1 -0.02305425142499351 1 0 3 
	1 -100.78452719007545 1 
	0.99366318733073022 -100.7768899571526 0.99999999999999989 
	0.98158507622260316 -100.76062923824497 1 
	0.96568672193524185 -100.73278304299929 1 
	0.95072478725807485 -100.70297069478153 0.99999999999999989 
	0.93611622479043766 -100.67079166544831 1 
	0.92065287269906093 -100.6342079746839 1 
	0.90452796322964946 -100.59403064557945 1 
	0.88754531759574529 -100.55046096758633 1.0000000000000002 
	0.86948913912942671 -100.5038290426469 0.99999999999999989 
	0.84991330017131339 -100.45430209679387 1 
	0.82889143757455919 -100.40413118866688 0.99999999999999978 
	0.80717676172094521 -100.35774670177265 1.0000000000000002 
	0.78527497685913572 -100.31889376942995 0.99999999999999978 
	0.76364994631199634 -100.29069017886732 1 
	0.74243808360614605 -100.27510873150793 1 
	0.72198928464340473 -100.27370506983479 1 
	0.70284272933460468 -100.28620201365192 1 
	0.68437630403654215 -100.31250032797665 0.99999999999999978 
	0.66686213308591846 -100.35184336417757 0.99999999999999978 
	0.6498872565785796 -100.40439539552362 1 
	0.63288155416496805 -100.47234679857411 1 
	0.61547969436448335 -100.5593609008892 1 
	0.59750375421895241 -100.66719216795333 1 
	0.57891244753514137 -100.79413625508353 1.0000000000000002 
	0.56010028445940319 -100.93483436123707 1 
	0.54040862189635774 -101.09124350897065 0.99999999999999989 
	0.52071643732983697 -101.25281146813019 1.0000000000000002 
	0.50146991691653842 -101.41141645758141 1 
	0.48306344772670418 -101.55989727499795 0.99999999999999978 
	0.46497297169475998 -101.69924144754374 1.0000000000000002 
	0.44691519355613374 -101.82831105951183 1 
	0.42852629441513751 -101.9459767963277 0.99999999999999989 
	0.40891722946172082 -102.05224971591942 1.0000000000000004 
	0.38763755878062939 -102.13948258592549 0.99999999999999989 
	0.36559840843065339 -102.20211886300302 1.0000000000000002 
	0.34405519092478409 -102.24096264049074 1 
	0.32127923216361215 -102.2625348366885 1 
	0.29712643577659337 -102.26807844095387 0.99999999999999978 
	0.27130236917462208 -102.26076239616856 1.0000000000000004 
	0.24230552267656169 -102.24401353504167 0.99999999999999967 
	0.20777029112338047 -102.22424486399041 1.0000000000000002 
	0.16616638931072822 -102.19667216802929 0.99999999999999978 
	0.11667621309832214 -102.15485515653006 1.0000000000000002 
	0.060659657787282724 -102.0774437435807 0.99999999999999978 
	0.020768496076686429 -102.01231418712689 1.0000000000000002 
	0 -101.97540269643143 1 
	0.001 
	spline forward { ref 1 } I I I I 
	} 0 0 #
tvertex-vertex $-1 $46 $54 7.1054273576010019e-014 #
straight-curve $-1 -71.169002996840163 107 100.78452719007547 0 0 1 I I #
intcurve-curve $-1 forward { surfintcur full nurbs 3 open 4 
	0 3 0.33560276745103201 1 0.6689360994394965 1 1 3 
	-71.169002996840163 107 100.78452719007547 1 
	-70.112042541209192 101.0056793839252 100.92226043318536 0.99999999999999989 
	-68.026162019359447 89.176063102464084 101.19377674870297 1 
	-64.96944480078848 71.840558313070062 101.59067795751591 1 
	-62.980666438113623 60.561635741583132 101.84843753770799 1 
	-62 55 101.97540269643143 1 
	0.001 
	plane -62 55 0 -0.98480775301220813 -0.17364817766693005 0 -0.17364817766693005 0.98480775301220813 0 forward_v I I I I 
	spline forward { ref 4 } I I I I 
	nullbs 
	nurbs 3 open 4 
	0 3 0.3356257695638063 1 0.66895931906724915 1 1 3 
	0.26048813985434466 0.54712874951234014 1 
	0.2552457555139695 0.50716769074122947 0.99999999999999989 
	0.24498188967426038 0.42830581843423654 1 
	0.23017667351044524 0.31273522998856396 1 
	0.22072248565064961 0.23753938196715002 1 
	0.21610429942290058 0.20046027296003469 1 
	
	I I 
	0 
	0 
	0 
	} I I #
point $-1 -62.000000000000014 55 101.97540269643144 #
pcurve $-1 0 forward { exppc nurbs 3 open 45 
	0 3 0.023292013107526419 1 0.046488073048299584 1 0.069587581748880467 1 0.092599217563666042 1 
	0.11552954719945135 1 0.1383895441278927 1 0.1611885664159266 1 0.18393808259618957 1 0.20664216193139145 1 
	0.229314097599675 1 0.25198870848053051 1 0.27467696551729831 1 0.29738443490556132 1 0.32011548712507687 1 
	0.34287918916230808 1 0.36567830828363057 1 0.38851306387181056 1 0.41138278628006431 1 0.43426369720674629 1 
	0.45712140599730106 1 0.47992365202514103 1 0.5026682065459358 1 0.52534524909317548 1 0.54795601745123768 1 
	0.57051772286426117 1 0.59305510400149364 1 0.61559286437762628 1 0.63815079821496612 1 0.66074091681937941 1 
	0.68337813788078683 1 0.7060616824178807 1 0.7287835754537394 1 0.75153320105601662 1 0.77429178259159392 1 
	0.79703568069842545 1 0.81974073349266363 1 0.84239838642190235 1 0.86501291463459407 1 0.88758787825206231 1 
	0.91012472977665582 1 0.93262468667443221 1 0.9551014343371661 1 0.97756075912197182 1 1.0000000000000002 3 
	0.21610429942290058 0.20046027296003469 1 
	0.23891555336909395 0.19130615702547157 0.99999999999999989 
	0.28308553544227355 0.17572642629234636 1.0000000000000002 
	0.34539174934527705 0.15919600572345272 1.0000000000000002 
	0.40292940827533041 0.15318706926125908 1 
	0.45489616882911132 0.15109752212366068 0.99999999999999978 
	0.50144103898233017 0.15089343489318996 1.0000000000000004 
	0.54342078814251549 0.15117857267672072 0.99999999999999989 
	0.5812372363167807 0.15369241076187534 1 
	0.61560765284601937 0.15936676151399595 1.0000000000000002 
	0.64595953108608128 0.1689267415727545 1 
	0.67189863170669639 0.18261702638715044 1.0000000000000002 
	0.69466577350807845 0.20232532863601979 1 
	0.7120075290675888 0.22801405457259338 1 
	0.72329603664965969 0.25812566486983035 1 
	0.73049878203998364 0.29080747460845496 1.0000000000000002 
	0.73491352909677121 0.32624686171331208 0.99999999999999978 
	0.73720441941293813 0.36423696793466759 1.0000000000000002 
	0.73789105291502521 0.40454209883623421 1 
	0.73742882920721819 0.44751353639758418 0.99999999999999978 
	0.73628694261231242 0.49125183353188867 1.0000000000000002 
	0.73383521337765623 0.53351819011494073 1 
	0.7297813479673303 0.57142929234357054 1 
	0.72364863859392059 0.60554374166244251 1.0000000000000002 
	0.71525948716508336 0.63439727511626565 0.99999999999999978 
	0.70438487784055137 0.65752486217480621 0.99999999999999978 
	0.691124090079555 0.67541239327119806 1 
	0.67559738761267374 0.68905993138434207 1.0000000000000002 
	0.65741234480432609 0.6990334012180679 1 
	0.63612274795151891 0.70533955745594423 0.99999999999999978 
	0.61210244867022312 0.70776502707614519 1.0000000000000002 
	0.58465181051251436 0.70622936533016334 1 
	0.55460413452848056 0.70064821407305411 0.99999999999999978 
	0.52284914197191101 0.69143755843308652 1 
	0.4900870848619191 0.67913880799861825 1 
	0.45756232035020256 0.66465333895170242 1.0000000000000002 
	0.42656462795728922 0.6490848632820001 0.99999999999999989 
	0.39857459876001572 0.63376303065011641 0.99999999999999978 
	0.37383746317914934 0.61936023528883322 1 
	0.35178032555589511 0.60591644588253379 1 
	0.33213506671544285 0.59352652016552054 1 
	0.31468018584889723 0.58224796914323373 1 
	0.29955150433734784 0.57232734237903393 1 
	0.2855838906195648 0.56313294796466384 1 
	0.27245672884098904 0.55453786387474335 1 
	0.26437222722888204 0.54949935413244011 1 
	0.26048813985434466 0.54712874951234014 1 
	0.001 
	spline forward { ref 4 } I I I I 
	} 0 0 #
intcurve-curve $-1 forward { exactcur full nurbs 3 open 45 
	0 3 0.023536777962600498 1 0.046934445163561697 1 0.070197708270871656 1 0.093337383129876661 1 
	0.11636852441389531 1 0.13931024838932018 1 0.16217627296959489 1 0.18497922747978388 1 0.20771991483157098 1 
	0.23040519961575898 1 0.25305896514386506 1 0.27568147910523561 1 0.29828351755424243 1 0.32088553678583548 1 
	0.3435041968357273 1 0.36614598273016169 1 0.3888130949853808 1 0.41150586566626435 1 0.43420728601680564 1 
	0.45689315884945969 1 0.4795416810358219 1 0.50215427248094779 1 0.52472857474361378 1 0.54727216486905839 1 
	0.56980271507259217 1 0.59233984305614051 1 0.61490255338730715 1 0.63750475516138561 1 0.66015169436987364 1 
	0.68285314402965547 1 0.70560268072528853 1 0.72838810457025704 1 0.75119655861133861 1 0.77400786635098362 1 
	0.79679776251207546 1 0.81954200496993379 1 0.8422331243784309 1 0.86487695358189964 1 0.88747810769548763 1 
	0.91003866059684824 1 0.93256025425843037 1 0.95505794236536701 1 0.97753849303299833 1 1.0000000000000002 3 
	-62.000000000000014 55 101.97540269643143 1 
	-68.170682015244068 53.882518118575661 102.0063294184166 0.99999999999999989 
	-79.779243735377946 51.292605787737457 102.07749318717173 1 
	-95.604342407801099 48.810665337617017 102.15494247029697 0.99999999999999989 
	-109.74369563050983 47.908024174405952 102.19665663882544 0.99999999999999978 
	-122.20612983219667 47.59380939571934 102.22422947167514 1 
	-133.17637767576585 47.562677790235846 102.24399770258088 1.0000000000000002 
	-142.95282998607334 47.604979240178452 102.26075514210052 1 
	-151.67864277842651 47.981557584621726 102.26807365180838 1 
	-159.55625820363073 48.832121135015306 102.26256264112395 1 
	-166.4809686569657 50.265367934183182 102.24106224218764 1.0000000000000002 
	-172.38047511070602 52.317685854248573 102.20231642301871 1 
	-177.54493748672846 55.272023227165619 102.13981009419591 1.0000000000000002 
	-181.46361757770634 59.124773511916231 102.05258083760387 0.99999999999999989 
	-183.98829534296394 63.642844156744729 101.9461867686542 1 
	-185.5692840201595 68.545656490042518 101.82847660530746 1 
	-186.50220716626325 73.861830069518845 101.69938495903462 0.99999999999999978 
	-186.93783776778605 79.560512634457922 101.56002522290579 1.0000000000000002 
	-186.99462816284444 85.606232982174873 101.41154704043784 1 
	-186.77542245994138 92.052891370662124 101.25285456107352 1 
	-186.39341604054138 98.615100741352194 101.09116142010478 1 
	-185.70415601516055 104.95647735308827 100.93463105639971 1.0000000000000002 
	-184.64399542251576 110.64322083785225 100.79393870249118 0.99999999999999978 
	-183.09609461168483 115.76103319450051 100.66694940144333 0.99999999999999989 
	-181.02066771307409 120.08916012683807 100.55911826020869 1 
	-178.36451429611856 123.55776225082302 100.47214504444281 1.0000000000000002 
	-175.15062186171792 126.24016392472136 100.40424563609595 1 
	-171.40512444283121 128.28684661020827 100.35172660365662 1.0000000000000002 
	-167.03349050469544 129.78259140967501 100.31241246965371 1 
	-161.93019276491506 130.72839121544371 100.28615508694894 1 
	-156.18531668158502 131.09229523980613 100.27370014627355 1 
	-149.63214317851376 130.86219913642728 100.2751136634194 1 
	-142.46760306340488 130.0254262258625 100.290675422844 0.99999999999999989 
	-134.89843173545364 128.64425658751739 100.31886295977837 1.0000000000000002 
	-127.08362338911928 126.79987162537658 100.35770434474229 1.0000000000000002 
	-119.31011408194324 124.6274242955211 100.40408421025676 0.99999999999999989 
	-111.87741520694763 122.29245419279894 100.45425738168063 1.0000000000000004 
	-105.1368166858516 119.99435575166886 100.50379506945504 0.99999999999999978 
	-99.150314009612075 117.83405627040054 100.55043781911201 1.0000000000000004 
	-93.784227434424679 115.81761365044443 100.59401431134739 1.0000000000000002 
	-88.978478029050606 113.95924569241592 100.63419618755852 1 
	-84.684351396594266 112.26757582525836 100.67078309765654 0.99999999999999989 
	-80.941854338395132 110.77953785628463 100.70296571782819 1.0000000000000004 
	-77.467994513333423 109.40045079021063 100.73277903338671 0.99999999999999978 
	-74.184352858083088 108.11125779552452 100.76062467834177 1 
	-72.151851553056503 107.34998686856015 100.7770170463145 0.99999999999999978 
	-71.169002996840163 107 100.78452719007545 1 
	0 
	null_surface 
	null_surface 
	nullbs 
	nullbs 
	I I 
	0 
	0 
	43 0.023536777962600498 0.046934445163561697 0.070197708270871656 0.093337383129876661 0.11636852441389531 0.13931024838932018 0.16217627296959489 0.18497922747978388 0.20771991483157098 0.23040519961575898 0.25305896514386506 0.27568147910523561 0.29828351755424243 0.32088553678583548 0.3435041968357273 0.36614598273016169 0.3888130949853808 0.41150586566626435 0.43420728601680564 0.45689315884945969 0.4795416810358219 0.50215427248094779 0.52472857474361378 0.54727216486905839 0.56980271507259217 0.59233984305614051 0.61490255338730715 0.63750475516138561 0.66015169436987364 0.68285314402965547 0.70560268072528853 0.72838810457025704 0.75119655861133861 0.77400786635098362 0.79679776251207546 0.81954200496993379 0.8422331243784309 0.86487695358189964 0.88747810769548763 0.91003866059684824 0.93256025425843037 0.95505794236536701 0.97753849303299833 
	F 1 F 0 } I I #
point $-1 -71.16900299684022 107.00000000000004 100.78452719007545 #
End-of-ACIS-data 