600 0 1 0           
113 GICL Pro/E ACIS Translator - Source: f:/data5/repository/PTC/V20/prod_appl/boom_box/power_trans_wrap_.prt.1 - 6 0 13 ACIS 6.0.3 NT 24 Thu Apr 04 13:14:24 2002 
1 9.9999999999999995e-007 1e-010 
body $-1 $1 $-1 $-1 #
lump $-1 $-1 $2 $0 #
shell $-1 $-1 $-1 $3 $-1 $1 #
face $-1 $4 $5 $2 $-1 $6 reversed single #
face $-1 $7 $8 $2 $-1 $9 forward single #
loop $-1 $10 $11 $3 #
plane-surface $-1 0 0 -9.5 0 0 1 1 0 0 forward_v I I I I #
face $-1 $12 $13 $2 $-1 $14 forward single #
loop $-1 $-1 $15 $4 #
plane-surface $-1 -23 31 -9.5 0 -1 0 1 0 0 forward_v I I I I #
loop $-1 $-1 $16 $3 #
coedge $-1 $17 $18 $19 $20 reversed $5 $-1 #
face $-1 $21 $22 $2 $-1 $23 forward single #
loop $-1 $-1 $24 $7 #
plane-surface $-1 23 31 -9.5 -1 0 0 0 -1 0 forward_v I I I I #
coedge $-1 $25 $19 $26 $27 forward $8 $-1 #
coedge $-1 $28 $29 $30 $31 reversed $10 $-1 #
coedge $-1 $32 $11 $33 $34 reversed $5 $-1 #
coedge $-1 $11 $32 $35 $36 reversed $5 $-1 #
coedge $-1 $15 $37 $11 $20 forward $8 $-1 #
edge $-1 $38 0 $39 46 $11 $40 forward 7 unknown #
face $-1 $41 $42 $2 $-1 $43 forward single #
loop $-1 $-1 $44 $12 #
plane-surface $-1 23 -0.5 -9.5 0 1 0 -1 0 0 forward_v I I I I #
coedge $-1 $45 $35 $46 $47 forward $13 $-1 #
coedge $-1 $37 $15 $48 $49 reversed $8 $-1 #
coedge $-1 $35 $45 $15 $27 reversed $13 $-1 #
edge $-1 $39 0 $50 19 $26 $51 forward 7 unknown #
coedge $-1 $52 $16 $53 $54 reversed $10 $-1 #
coedge $-1 $16 $52 $55 $56 reversed $10 $-1 #
coedge $-1 $57 $58 $16 $31 forward $59 $-1 #
edge $-1 $60 0 $61 40 $16 $62 forward 7 unknown #
coedge $-1 $18 $17 $63 $64 reversed $5 $-1 #
coedge $-1 $65 $66 $17 $34 forward $42 $-1 #
edge $-1 $67 0 $38 31.5 $17 $68 forward 7 unknown #
coedge $-1 $24 $26 $18 $36 forward $13 $-1 #
edge $-1 $39 0 $69 31.5 $18 $70 forward 7 unknown #
coedge $-1 $19 $25 $65 $71 reversed $8 $-1 #
vertex $-1 $34 $72 #
vertex $-1 $36 $73 #
straight-curve $-1 -23 31 -9.5 1 0 0 I I #
face $-1 $74 $75 $2 $-1 $76 forward single #
loop $-1 $-1 $65 $21 #
plane-surface $-1 -23 -0.5 -9.5 1 0 0 0 1 0 forward_v I I I I #
coedge $-1 $77 $63 $66 $78 forward $22 $-1 #
coedge $-1 $26 $24 $79 $80 reversed $13 $-1 #
coedge $-1 $63 $77 $24 $47 reversed $22 $-1 #
edge $-1 $69 0 $81 19 $24 $82 forward 7 unknown #
coedge $-1 $79 $83 $25 $49 forward $75 $-1 #
edge $-1 $84 0 $50 46 $48 $85 forward 7 unknown #
vertex $-1 $80 $86 #
straight-curve $-1 23 31 -9.5 0 0 1 I I #
coedge $-1 $29 $28 $87 $88 reversed $10 $-1 #
coedge $-1 $89 $90 $28 $54 forward $91 $-1 #
edge $-1 $92 0 $60 55 $28 $93 forward 7 unknown #
coedge $-1 $94 $95 $29 $56 forward $96 $-1 #
edge $-1 $61 0 $97 55 $29 $98 forward 7 unknown #
coedge $-1 $99 $30 $95 $100 forward $59 $-1 #
coedge $-1 $30 $99 $89 $101 reversed $59 $-1 #
loop $-1 $-1 $57 $102 #
vertex $-1 $54 $103 #
vertex $-1 $56 $104 #
straight-curve $-1 -27.5 35.25 -9.5 0 -1 0 I I #
coedge $-1 $44 $46 $32 $64 forward $22 $-1 #
edge $-1 $69 0 $67 46 $32 $105 forward 7 unknown #
coedge $-1 $106 $33 $37 $71 forward $42 $-1 #
coedge $-1 $33 $106 $44 $78 reversed $42 $-1 #
vertex $-1 $64 $107 #
straight-curve $-1 -23 -0.5 -9.5 0 1 0 I I #
vertex $-1 $36 $108 #
straight-curve $-1 23 31 -9.5 0 -1 0 I I #
edge $-1 $38 0 $84 19 $65 $109 forward 7 unknown #
point $-1 -23 31 -9.5 #
point $-1 23 31 -9.5 #
face $-1 $110 $111 $2 $-1 $112 forward single #
loop $-1 $113 $114 $41 #
plane-surface $-1 0 0 9.5 0 0 1 1 0 0 forward_v I I I I #
coedge $-1 $46 $44 $114 $115 reversed $22 $-1 #
edge $-1 $67 0 $116 19 $44 $117 forward 7 unknown #
coedge $-1 $114 $48 $45 $80 forward $75 $-1 #
edge $-1 $50 0 $81 31.5 $79 $118 forward 7 unknown #
vertex $-1 $80 $119 #
straight-curve $-1 23 -0.5 -9.5 0 0 1 I I #
coedge $-1 $48 $114 $106 $120 forward $75 $-1 #
vertex $-1 $49 $121 #
straight-curve $-1 -23 31 9.5 1 0 0 I I #
point $-1 23 31 9.5 #
coedge $-1 $122 $123 $52 $88 forward $111 $-1 #
edge $-1 $97 0 $92 40 $52 $124 forward 7 unknown #
coedge $-1 $125 $53 $58 $101 forward $91 $-1 #
coedge $-1 $53 $125 $122 $126 reversed $91 $-1 #
loop $-1 $-1 $89 $110 #
vertex $-1 $88 $127 #
straight-curve $-1 27.5 35.25 -9.5 -1 0 0 I I #
coedge $-1 $128 $55 $123 $129 forward $96 $-1 #
coedge $-1 $55 $128 $57 $100 reversed $96 $-1 #
loop $-1 $-1 $94 $130 #
vertex $-1 $56 $131 #
straight-curve $-1 -27.5 -4.75 -9.5 1 0 0 I I #
coedge $-1 $58 $57 $132 $133 reversed $59 $-1 #
edge $-1 $61 0 $134 19 $95 $135 forward 7 unknown #
edge $-1 $60 0 $136 19 $89 $137 forward 7 unknown #
face $-1 $130 $59 $2 $-1 $138 forward single #
point $-1 -27.5 35.25 -9.5 #
point $-1 -27.5 -4.75 -9.5 #
straight-curve $-1 23 -0.5 -9.5 -1 0 0 I I #
coedge $-1 $66 $65 $83 $120 reversed $42 $-1 #
point $-1 -23 -0.5 -9.5 #
point $-1 23 -0.5 -9.5 #
straight-curve $-1 -23 31 -9.5 0 0 1 I I #
face $-1 $102 $91 $2 $-1 $139 forward single #
loop $-1 $-1 $122 $74 #
plane-surface $-1 27.5 -4.75 -9.5 1 0 0 0 1 0 forward_v I I I I #
loop $-1 $-1 $140 $41 #
coedge $-1 $83 $79 $77 $115 forward $75 $-1 #
edge $-1 $81 0 $116 46 $114 $141 forward 7 unknown #
vertex $-1 $120 $142 #
straight-curve $-1 -23 -0.5 -9.5 0 0 1 I I #
straight-curve $-1 23 31 9.5 0 -1 0 I I #
point $-1 23 -0.5 9.5 #
edge $-1 $116 0 $84 31.5 $83 $143 forward 7 unknown #
point $-1 -23 31 9.5 #
coedge $-1 $144 $87 $90 $126 forward $111 $-1 #
coedge $-1 $87 $144 $94 $129 reversed $111 $-1 #
straight-curve $-1 27.5 -4.75 -9.5 0 1 0 I I #
coedge $-1 $90 $89 $145 $146 reversed $91 $-1 #
edge $-1 $92 0 $147 19 $122 $148 forward 7 unknown #
point $-1 27.5 35.25 -9.5 #
coedge $-1 $95 $94 $149 $150 reversed $96 $-1 #
edge $-1 $97 0 $151 19 $94 $152 forward 7 unknown #
face $-1 $-1 $96 $2 $-1 $153 forward single #
point $-1 27.5 -4.75 -9.5 #
coedge $-1 $149 $145 $99 $133 forward $113 $-1 #
edge $-1 $136 0 $134 40 $132 $154 forward 7 unknown #
vertex $-1 $150 $155 #
straight-curve $-1 -27.5 -4.75 -9.5 0 0 1 I I #
vertex $-1 $133 $156 #
straight-curve $-1 -27.5 35.25 -9.5 0 0 1 I I #
plane-surface $-1 -27.5 35.25 -9.5 -1 0 0 0 -1 0 forward_v I I I I #
plane-surface $-1 27.5 35.25 -9.5 0 1 0 -1 0 0 forward_v I I I I #
coedge $-1 $145 $149 $144 $157 forward $113 $-1 #
straight-curve $-1 23 -0.5 9.5 -1 0 0 I I #
point $-1 -23 -0.5 9.5 #
straight-curve $-1 -23 -0.5 9.5 0 1 0 I I #
coedge $-1 $123 $122 $140 $157 reversed $111 $-1 #
coedge $-1 $132 $140 $125 $146 forward $113 $-1 #
edge $-1 $147 0 $136 55 $145 $158 forward 7 unknown #
vertex $-1 $146 $159 #
straight-curve $-1 27.5 35.25 -9.5 0 0 1 I I #
coedge $-1 $140 $132 $128 $150 forward $113 $-1 #
edge $-1 $134 0 $151 55 $149 $160 forward 7 unknown #
vertex $-1 $150 $161 #
straight-curve $-1 27.5 -4.75 -9.5 0 0 1 I I #
plane-surface $-1 -27.5 -4.75 -9.5 0 -1 0 1 0 0 forward_v I I I I #
straight-curve $-1 -27.5 35.25 9.5 0 -1 0 I I #
point $-1 -27.5 -4.75 9.5 #
point $-1 -27.5 35.25 9.5 #
edge $-1 $151 0 $147 40 $140 $162 forward 7 unknown #
straight-curve $-1 27.5 35.25 9.5 -1 0 0 I I #
point $-1 27.5 35.25 9.5 #
straight-curve $-1 -27.5 -4.75 9.5 1 0 0 I I #
point $-1 27.5 -4.75 9.5 #
straight-curve $-1 27.5 -4.75 9.5 0 1 0 I I #
End-of-ACIS-data 