600 0 1 0           
106 GICL Pro/E ACIS Translator - Source: f:/data5/repository/PTC/V20/prod_appl/boom_box/right_mesh.prt.2 - 6 0 13 ACIS 6.0.3 NT 24 Thu Apr 04 13:15:18 2002 
1 9.9999999999999995e-007 1e-010 
body $-1 $1 $-1 $-1 #
lump $-1 $-1 $2 $0 #
shell $-1 $-1 $-1 $3 $-1 $1 #
face $-1 $4 $5 $2 $-1 $6 forward single #
face $-1 $7 $8 $2 $-1 $9 reversed single #
loop $-1 $-1 $10 $3 #
spline-surface $-1 forward { exactsur full nurbs 3 3 both open open none none 2 2 
	0 3 1 3 
	0 3 1 3 
	0 25 105.6341951940978 1 
	106.7339375813802 25 105.6341951940978 1 
	166.66666666666669 24.999999999999989 105.89502036555911 1 
	250 25 106.025432954076 1 
	0 75 104.4940718267882 1 
	101.09538438587479 75 104.4940718267882 1 
	166.66666581895618 75 104.6679552798135 1 
	250 75 104.7548970081836 1 
	0 125 103.3539485140862 1 
	95.456831190297009 125 103.3539485140862 1 
	166.66666497124561 125 103.44089023252219 1 
	250 125 103.484361092669 1 
	0 175 102.2138251467766 1 
	89.818277994791657 175 102.2138251467766 1 
	166.6666641235351 175 102.2138251467767 1 
	250 175 102.2138251467766 1 
	0 
	0 
	0 
	0 
	0 
	0 
	0 
	F 1 F 0 F 1 F 0 } I I I I #
face $-1 $11 $12 $2 $-1 $13 forward single #
loop $-1 $-1 $14 $4 #
plane-surface $-1 71.169002996840163 107 0 0.98480775301220813 -0.17364817766693005 0 -0.17364817766693005 -0.98480775301220813 0 forward_v I I I I #
coedge $-1 $15 $15 $16 $17 forward $5 $18 #
face $-1 $-1 $19 $2 $-1 $20 reversed single #
loop $-1 $-1 $21 $7 #
spline-surface $-1 forward { sweepsur angled 
	intcurve forward { exactcur full nurbs 3 open 8 
	0 3 0.16387870674693178 2 0.37669406311131703 2 0.48077719765027666 2 0.59116277893608449 2 
	0.75658408783871667 2 0.92964356096193801 2 1 3 
	71.169002996840163 107 105.26898603575835 1 
	79.361559164023674 109.91732338651831 105.26898603575835 1 
	97.414750869195586 117.85668337425665 105.26898603575835 1 
	141.86474452654568 131.54161007260905 105.26898603575835 1 
	169.1432538285232 135.92411677717911 105.26898603575835 1 
	185.02160900692246 114.61030250699541 105.26898603575835 1 
	186.26242654826993 103.13792209377101 105.26898603575835 1 
	187.31189112136286 79.260516740349658 105.26898603575835 1 
	187.02926777868825 66.841082325394666 105.26898603575835 1 
	172.64639927480488 47.973799639473846 105.26898603575835 1 
	151.7272579953254 47.590460373861688 105.26898603575835 1 
	114.73980028691113 47.559458315808975 105.26898603575835 1 
	98.940066283371991 47.946581946106001 105.26898603575835 1 
	75.750546404827844 52.113976268666569 105.26898603575835 1 
	68.934326169237124 53.7442257055434 105.26898603575835 1 
	62 55 105.26898603575835 1 
	0 
	null_surface 
	null_surface 
	nullbs 
	nullbs 
	I I 
	0 
	0 
	5 0.37669406311131703 0.48077719765027666 0.59116277893608449 0.75658408783871667 0.92964356096193801 
	F 1 F 0 } I I 
	straight 0 0 0 0 0 -1 I I 
	angled 
	8.7986874104997907e-032 8.6489164906062667e-032 -1 
	0 0 105.26898603575835 
	0 -1 0 
	-1 0 0 
	0 0 -1 
	-105.26898603575835 -100.27358731316819 
	0 0 11 VEC(0,-1,0) 
	0 
	1 0 
	0 
	55 VEC(0.57735026918963,0.57735026918963,0.57735026918963) 
	0 
	full nubs 3 3 open open none none 34 2 
	0 3 0.03125 2 0.0625 2 0.09375 2 0.140625 2 
	0.1875 2 0.234375 2 0.28125 2 0.3125 2 0.34375 2 
	0.375 2 0.390625 2 0.40625 2 0.4375 2 0.46875 2 
	0.484375 2 0.5 2 0.53125 2 0.5625 2 0.578125 2 
	0.59375 2 0.609375 2 0.625 2 0.640625 2 0.65625 2 
	0.6875 2 0.734375 1 0.7578125 2 0.7734375 1 0.8125 2 
	0.890625 2 0.921875 1 0.9375 2 1 3 
	-105.26898603575835 3 -100.27358731316819 3 
	71.169002996840163 107 105.26898603575835 
	72.732387187019071 107.55688805202939 105.26898603575835 
	74.651078512551564 108.29479333198664 105.26898603575835 
	79.092766916852739 110.04153130624563 105.26898603575835 
	81.610022648825137 111.04779177144076 105.26898603575835 
	87.12876514197275 113.233122674632 105.26898603575835 
	90.125652312839563 114.41055385444182 105.26898603576132 
	98.07306562146097 117.44749746801497 105.26898603575393 
	103.24470601153394 119.35236844519513 105.26898603575833 
	114.00077738537033 122.99954210646267 105.26898603575833 
	119.58259057049438 124.74288454421739 105.2689860357539 
	130.75503981687598 127.73690435371205 105.26898603576277 
	136.34562703158724 128.99072066367739 105.26898603576056 
	147.13165661955082 130.67559144462433 105.26898603575613 
	152.32961909837655 131.11188403842294 105.26898603576056 
	160.32696276389146 130.87832285148397 105.26898603575687 
	163.35114691568984 130.53278385593563 105.26898603575984 
	168.92314845617571 129.22957630523246 105.26898603575688 
	171.47550030648955 128.27773225925668 105.26898603575687 
	175.98376251997615 125.66379716615427 105.26898603575982 
	177.94534910124818 124.00846359911743 105.26898603575833 
	180.35034181479097 120.91918991654249 105.26898603575833 
	181.06330684048589 119.78935760596633 105.26898603575759 
	182.32610418346684 117.35045025851937 105.26898603575907 
	182.87917968633559 116.04494339597697 105.2689860357591 
	184.32779275583022 111.90523559030213 105.26898603575688 
	185.0206415019187 108.85624215092832 105.26898603575685 
	186.02720526703888 102.4067684600771 105.26898603575981 
	186.34451823961354 99.009620829687222 105.26898603575835 
	186.66905167681281 93.828846241131515 105.26898603575835 
	186.75372946527466 92.088170473045679 105.26898603575835 
	186.88981322935126 88.608134918751958 105.26898603575835 
	186.93879230213921 86.868674472975968 105.26898603575687 
	186.98595660651233 81.695386948597786 105.2689860357613 
	186.88814075197391 78.30494102868937 105.26898603575836 
	186.21588331793382 71.872138405946373 105.26898603575836 
	185.64598239976331 68.826462619957056 105.26898603575835 
	184.27385234910693 64.690751467816995 105.26898603575835 
	183.73272509235477 63.382253689439864 105.26898603575835 
	182.44951450140189 60.939794507384249 105.26898603575835 
	181.71059965183323 59.803093323071046 105.26898603575611 
	180.00764700714669 57.73070156808371 105.26898603576055 
	179.0505915689657 56.788785080122743 105.26898603575833 
	176.94306358536878 55.082739453071873 105.26898603575833 
	175.79623058950685 54.315263964136165 105.2689860357591 
	173.33514729870123 52.939952454641173 105.26898603575762 
	172.02404676100414 52.329111959537741 105.26898603575908 
	169.26042819467963 51.248922557217284 105.26898603575761 
	167.81057013099758 50.776911050755388 105.26898603575984 
	163.28786941577161 49.545892092458921 105.2689860357554 
	160.04841075798299 48.964938029883349 105.26898603575687 
	151.63565025121594 47.943700172148795 105.26898603576056 
	143.64697410321878 47.59821515060235 105.26898603575442 
	135.8035574861544 47.576357604573722 105.26898603576171 
	131.54533507568516 47.574150417170507 105.26898603575617 
	125.67094780599189 47.58290085157396 105.26898603576069 
	120.07053316856941 47.652895899896215 105.26898603576021 
	108.35854699565073 47.972523275218755 105.26898603575466 
	100.93348266838278 48.409678258599499 105.26898603575836 
	90.587500468600041 49.618739254001355 105.26898603575836 
	86.16204836911993 50.237132908140381 105.2689860357591 
	81.697792874905005 51.041257580498261 105.26898603575759 
	74.226646288862057 52.473818674533668 105.26898603576129 
	68.159846915857102 53.883980959093108 105.26898603575835 
	62 55 105.26898603575835 
	71.169002996840163 107 103.60385312817301 
	72.732387187019071 107.55688805202939 103.60385312817301 
	74.651078512551564 108.29479333198664 103.60385312817301 
	79.092766916852739 110.04153130624563 103.60385312817301 
	81.610022648825137 111.04779177144076 103.60385312817301 
	87.12876514197275 113.233122674632 103.60385312817301 
	90.125652312839563 114.41055385444182 103.60385312817598 
	98.07306562146097 117.44749746801497 103.60385312816859 
	103.24470601153394 119.35236844519513 103.603853128173 
	114.00077738537033 122.99954210646267 103.603853128173 
	119.58259057049438 124.74288454421739 103.60385312816857 
	130.75503981687598 127.73690435371205 103.60385312817743 
	136.34562703158724 128.99072066367739 103.60385312817523 
	147.13165661955082 130.67559144462433 103.6038531281708 
	152.32961909837655 131.11188403842294 103.60385312817523 
	160.32696276389146 130.87832285148397 103.60385312817154 
	163.35114691568984 130.53278385593563 103.60385312817451 
	168.92314845617571 129.22957630523246 103.60385312817155 
	171.47550030648955 128.27773225925668 103.60385312817154 
	175.98376251997615 125.66379716615427 103.60385312817449 
	177.94534910124818 124.00846359911743 103.603853128173 
	180.35034181479097 120.91918991654249 103.603853128173 
	181.06330684048589 119.78935760596633 103.60385312817226 
	182.32610418346684 117.35045025851937 103.60385312817374 
	182.87917968633559 116.04494339597697 103.60385312817377 
	184.32779275583022 111.90523559030213 103.60385312817155 
	185.0206415019187 108.85624215092832 103.60385312817152 
	186.02720526703888 102.4067684600771 103.60385312817448 
	186.34451823961354 99.009620829687222 103.60385312817301 
	186.66905167681281 93.828846241131515 103.60385312817301 
	186.75372946527466 92.088170473045679 103.60385312817301 
	186.88981322935126 88.608134918751958 103.60385312817301 
	186.93879230213921 86.868674472975968 103.60385312817154 
	186.98595660651233 81.695386948597786 103.60385312817597 
	186.88814075197391 78.30494102868937 103.60385312817303 
	186.21588331793382 71.872138405946373 103.60385312817303 
	185.64598239976331 68.826462619957056 103.60385312817301 
	184.27385234910693 64.690751467816995 103.60385312817301 
	183.73272509235477 63.382253689439864 103.60385312817301 
	182.44951450140189 60.939794507384249 103.60385312817301 
	181.71059965183323 59.803093323071046 103.60385312817078 
	180.00764700714669 57.73070156808371 103.60385312817522 
	179.0505915689657 56.788785080122743 103.603853128173 
	176.94306358536878 55.082739453071873 103.603853128173 
	175.79623058950685 54.315263964136165 103.60385312817377 
	173.33514729870123 52.939952454641173 103.60385312817229 
	172.02404676100414 52.329111959537741 103.60385312817375 
	169.26042819467963 51.248922557217284 103.60385312817228 
	167.81057013099758 50.776911050755388 103.60385312817451 
	163.28786941577161 49.545892092458921 103.60385312817007 
	160.04841075798299 48.964938029883349 103.60385312817154 
	151.63565025121594 47.943700172148795 103.60385312817523 
	143.64697410321878 47.59821515060235 103.60385312816909 
	135.8035574861544 47.576357604573722 103.60385312817638 
	131.54533507568516 47.574150417170507 103.60385312817084 
	125.67094780599189 47.58290085157396 103.60385312817536 
	120.07053316856941 47.652895899896215 103.60385312817488 
	108.35854699565073 47.972523275218755 103.60385312816933 
	100.93348266838278 48.409678258599499 103.60385312817303 
	90.587500468600041 49.618739254001355 103.60385312817303 
	86.16204836911993 50.237132908140381 103.60385312817377 
	81.697792874905005 51.041257580498261 103.60385312817226 
	74.226646288862057 52.473818674533668 103.60385312817596 
	68.159846915857102 53.883980959093108 103.60385312817301 
	62 55 103.60385312817301 
	71.169002996840163 107 101.93872022075352 
	72.732387187019071 107.55688805202939 101.93872022075352 
	74.651078512551564 108.29479333198664 101.93872022075352 
	79.092766916852739 110.04153130624563 101.93872022075352 
	81.610022648825137 111.04779177144076 101.93872022075352 
	87.12876514197275 113.233122674632 101.93872022075352 
	90.125652312839563 114.41055385444182 101.93872022075649 
	98.07306562146097 117.44749746801497 101.9387202207491 
	103.24470601153394 119.35236844519513 101.93872022075351 
	114.00077738537033 122.99954210646267 101.93872022075351 
	119.58259057049438 124.74288454421739 101.93872022074908 
	130.75503981687598 127.73690435371205 101.93872022075794 
	136.34562703158724 128.99072066367739 101.93872022075574 
	147.13165661955082 130.67559144462433 101.93872022075131 
	152.32961909837655 131.11188403842294 101.93872022075574 
	160.32696276389146 130.87832285148397 101.93872022075205 
	163.35114691568984 130.53278385593563 101.93872022075502 
	168.92314845617571 129.22957630523246 101.93872022075206 
	171.47550030648955 128.27773225925668 101.93872022075205 
	175.98376251997615 125.66379716615427 101.938720220755 
	177.94534910124818 124.00846359911743 101.93872022075351 
	180.35034181479097 120.91918991654249 101.93872022075351 
	181.06330684048589 119.78935760596633 101.93872022075277 
	182.32610418346684 117.35045025851937 101.93872022075425 
	182.87917968633559 116.04494339597697 101.93872022075428 
	184.32779275583022 111.90523559030213 101.93872022075206 
	185.0206415019187 108.85624215092832 101.93872022075203 
	186.02720526703888 102.4067684600771 101.93872022075499 
	186.34451823961354 99.009620829687222 101.93872022075352 
	186.66905167681281 93.828846241131515 101.93872022075352 
	186.75372946527466 92.088170473045679 101.93872022075352 
	186.88981322935126 88.608134918751958 101.93872022075352 
	186.93879230213921 86.868674472975968 101.93872022075205 
	186.98595660651233 81.695386948597786 101.93872022075648 
	186.88814075197391 78.30494102868937 101.93872022075354 
	186.21588331793382 71.872138405946373 101.93872022075354 
	185.64598239976331 68.826462619957056 101.93872022075352 
	184.27385234910693 64.690751467816995 101.93872022075352 
	183.73272509235477 63.382253689439864 101.93872022075352 
	182.44951450140189 60.939794507384249 101.93872022075352 
	181.71059965183323 59.803093323071046 101.93872022075129 
	180.00764700714669 57.73070156808371 101.93872022075573 
	179.0505915689657 56.788785080122743 101.93872022075351 
	176.94306358536878 55.082739453071873 101.93872022075351 
	175.79623058950685 54.315263964136165 101.93872022075428 
	173.33514729870123 52.939952454641173 101.9387202207528 
	172.02404676100414 52.329111959537741 101.93872022075426 
	169.26042819467963 51.248922557217284 101.93872022075278 
	167.81057013099758 50.776911050755388 101.93872022075502 
	163.28786941577161 49.545892092458921 101.93872022075058 
	160.04841075798299 48.964938029883349 101.93872022075205 
	151.63565025121594 47.943700172148795 101.93872022075574 
	143.64697410321878 47.59821515060235 101.9387202207496 
	135.8035574861544 47.576357604573722 101.93872022075689 
	131.54533507568516 47.574150417170507 101.93872022075135 
	125.67094780599189 47.58290085157396 101.93872022075587 
	120.07053316856941 47.652895899896215 101.93872022075539 
	108.35854699565073 47.972523275218755 101.93872022074984 
	100.93348266838278 48.409678258599499 101.93872022075354 
	90.587500468600041 49.618739254001355 101.93872022075354 
	86.16204836911993 50.237132908140381 101.93872022075428 
	81.697792874905005 51.041257580498261 101.93872022075277 
	74.226646288862057 52.473818674533668 101.93872022075647 
	68.159846915857102 53.883980959093108 101.93872022075352 
	62 55 101.93872022075352 
	71.169002996840163 107 100.27358731316819 
	72.732387187019071 107.55688805202939 100.27358731316819 
	74.651078512551564 108.29479333198664 100.27358731316819 
	79.092766916852739 110.04153130624563 100.27358731316819 
	81.610022648825137 111.04779177144076 100.27358731316819 
	87.12876514197275 113.233122674632 100.27358731316819 
	90.125652312839563 114.41055385444182 100.27358731317116 
	98.07306562146097 117.44749746801497 100.27358731316377 
	103.24470601153394 119.35236844519513 100.27358731316818 
	114.00077738537033 122.99954210646267 100.27358731316818 
	119.58259057049438 124.74288454421739 100.27358731316374 
	130.75503981687598 127.73690435371205 100.27358731317261 
	136.34562703158724 128.99072066367739 100.27358731317041 
	147.13165661955082 130.67559144462433 100.27358731316598 
	152.32961909837655 131.11188403842294 100.27358731317041 
	160.32696276389146 130.87832285148397 100.27358731316671 
	163.35114691568984 130.53278385593563 100.27358731316968 
	168.92314845617571 129.22957630523246 100.27358731316673 
	171.47550030648955 128.27773225925668 100.27358731316671 
	175.98376251997615 125.66379716615427 100.27358731316967 
	177.94534910124818 124.00846359911743 100.27358731316818 
	180.35034181479097 120.91918991654249 100.27358731316818 
	181.06330684048589 119.78935760596633 100.27358731316744 
	182.32610418346684 117.35045025851937 100.27358731316892 
	182.87917968633559 116.04494339597697 100.27358731316895 
	184.32779275583022 111.90523559030213 100.27358731316673 
	185.0206415019187 108.85624215092832 100.2735873131667 
	186.02720526703888 102.4067684600771 100.27358731316966 
	186.34451823961354 99.009620829687222 100.27358731316819 
	186.66905167681281 93.828846241131515 100.27358731316819 
	186.75372946527466 92.088170473045679 100.27358731316819 
	186.88981322935126 88.608134918751958 100.27358731316819 
	186.93879230213921 86.868674472975968 100.27358731316671 
	186.98595660651233 81.695386948597786 100.27358731317115 
	186.88814075197391 78.30494102868937 100.27358731316821 
	186.21588331793382 71.872138405946373 100.27358731316821 
	185.64598239976331 68.826462619957056 100.27358731316819 
	184.27385234910693 64.690751467816995 100.27358731316819 
	183.73272509235477 63.382253689439864 100.27358731316819 
	182.44951450140189 60.939794507384249 100.27358731316819 
	181.71059965183323 59.803093323071046 100.27358731316596 
	180.00764700714669 57.73070156808371 100.2735873131704 
	179.0505915689657 56.788785080122743 100.27358731316818 
	176.94306358536878 55.082739453071873 100.27358731316818 
	175.79623058950685 54.315263964136165 100.27358731316895 
	173.33514729870123 52.939952454641173 100.27358731316747 
	172.02404676100414 52.329111959537741 100.27358731316893 
	169.26042819467963 51.248922557217284 100.27358731316745 
	167.81057013099758 50.776911050755388 100.27358731316968 
	163.28786941577161 49.545892092458921 100.27358731316525 
	160.04841075798299 48.964938029883349 100.27358731316671 
	151.63565025121594 47.943700172148795 100.27358731317041 
	143.64697410321878 47.59821515060235 100.27358731316427 
	135.8035574861544 47.576357604573722 100.27358731317156 
	131.54533507568516 47.574150417170507 100.27358731316602 
	125.67094780599189 47.58290085157396 100.27358731317054 
	120.07053316856941 47.652895899896215 100.27358731317005 
	108.35854699565073 47.972523275218755 100.27358731316451 
	100.93348266838278 48.409678258599499 100.27358731316821 
	90.587500468600041 49.618739254001355 100.27358731316821 
	86.16204836911993 50.237132908140381 100.27358731316895 
	81.697792874905005 51.041257580498261 100.27358731316744 
	74.226646288862057 52.473818674533668 100.27358731317113 
	68.159846915857102 53.883980959093108 100.27358731316819 
	62 55 100.27358731316819 
	0.001 
	0 
	0 
	0 
	0 
	0 
	0 
	} I I I I #
coedge $-1 $22 $16 $23 $24 reversed $8 $-1 #
tcoedge-coedge $-1 $10 $10 $25 $26 forward $5 $27 0 1.0000000000000002 #
coedge $-1 $14 $28 $10 $17 reversed $8 $-1 #
edge $-1 $29 0 $30 1 $10 $31 forward 7 unknown #
pcurve $-1 0 forward { exppc nurbs 3 open 4 
	0 3 0.33562525889281758 1 0.66895880967186261 1 1 3 
	0.26048153201504282 0.54666666666666697 1 
	0.25523972784932947 0.50670613022455391 1 
	0.24497692422879469 0.42784506351516177 1.0000000000000002 
	0.2301730217699744 0.31227508411803206 0.99999999999999978 
	0.22071953952661039 0.23707922748660848 1.0000000000000002 
	0.21610166071829034 0.20000000000000026 1 
	0.001 
	spline forward { ref 0 } I I I I 
	} 0 0 #
loop $-1 $-1 $32 $11 #
spline-surface $-1 forward { exactsur full nurbs 3 3 both open open none none 2 2 
	0 3 1 3 
	0 3 1 3 
	0 24.931610375329623 102.63497481886068 1 
	106.73882370093037 24.931610375329623 102.63497481886068 1 
	166.67536759558487 24.926398419883135 102.89593217807737 1 
	250.00469333243257 24.923792536320949 103.02640471227662 1 
	0 74.931610377512214 101.49485145150132 1 
	101.09889992351604 74.931610377512243 101.49485145150292 1 
	166.67225474369985 74.926398246757017 101.66886013603379 1 
	250.00312889216653 74.92379247536266 101.75586631966077 1 
	0 124.93161037751223 100.35472813879932 1 
	95.45876663431585 124.93161037751224 100.3547281387991 1 
	166.66935357842064 124.92639817203178 100.44179210723168 1 
	250.00156444591406 124.92379244427639 100.485329180793 1 
	0 174.93161037532963 99.214604771539484 1 
	89.818277994791657 174.93161037532963 99.214604771539484 1 
	166.6666641235351 174.9263981704685 99.214727021524851 1 
	250 174.92379244306244 99.214793234931449 1 
	0 
	0 
	0 
	0 
	0 
	0 
	0 
	F 1 F 0 F 1 F 0 } I I I I #
coedge $-1 $33 $25 $28 $34 reversed $12 $35 #
coedge $-1 $28 $14 $32 $36 reversed $8 $-1 #
coedge $-1 $25 $33 $14 $24 forward $12 $37 #
edge $-1 $38 -4.2632564145606011e-014 $29 3.0007991879500082 $23 $39 forward 7 unknown #
tcoedge-coedge $-1 $21 $23 $15 $26 reversed $12 $40 -1.0000000000000002 0 #
tedge-edge $-1 $30 0 $29 1.0000000000000002 $15 $41 forward 7 unknown 0.15313860675495575 #
pcurve $-1 0 forward { exppc nurbs 3 open 45 
	0 3 0.023288493660595537 1 0.046486124839120575 1 0.069588225694370259 1 0.092601688481193545 1 
	0.11553358600567265 1 0.1383952546362979 1 0.16119614924132369 1 0.18394734036808871 1 0.2066524696526873 1 
	0.22932515018989116 1 0.25199960802843263 1 0.27468598098238134 1 0.297390396468385 1 0.32011841263265162 1 
	0.34287886224075875 1 0.36567469198566432 1 0.38850627572819074 1 0.41137297883829277 1 0.43425104752888982 1 
	0.45710637118403769 1 0.47990694763112224 1 0.50265047670531771 1 0.52532750869599365 1 0.54793910968034543 1 
	0.57050172313029002 1 0.5930395275350927 1 0.61557699012425982 1 0.63813389246087859 1 0.66072222078589593 1 
	0.68335707510961075 1 0.70603852534513156 1 0.72875907174234433 1 0.75150850249483803 1 0.7742682371932802 1 
	0.79701434354517697 1 0.81972236014010935 1 0.8423830016956968 1 0.86500051490388163 1 0.88757834243618972 1 
	0.91011790005793025 1 0.93262027162786332 1 0.95509911769784295 1 0.97755995618313896 1 1.0000000000000002 3 
	0.21610166071829034 0.20000000000000026 1 
	0.23878946407890733 0.19089037584157592 0.99999999999999978 
	0.28280565313572298 0.17536593785484172 1.0000000000000002 
	0.34525792242951786 0.15874000421841575 1 
	0.40298223662470622 0.15271178150916775 1.0000000000000002 
	0.45505910812525824 0.15062134535318444 0.99999999999999989 
	0.50170586629488556 0.15041704066834774 1.0000000000000002 
	0.54379435894927641 0.15070801968991304 0.99999999999999978 
	0.58173819476780131 0.15325962880806265 1.0000000000000004 
	0.61621733384506627 0.15901556648017159 0.99999999999999978 
	0.64659883576445287 0.16869254527266284 1 
	0.6725255681083534 0.18253864542637857 1 
	0.69516782552135514 0.20239796786965128 0.99999999999999989 
	0.7122770785195246 0.22807613972449098 1.0000000000000002 
	0.72340359734078541 0.25800548950271451 1 
	0.73053795256497367 0.29050654089213129 0.99999999999999989 
	0.73491914249416712 0.32572886465423617 1 
	0.7372044441745772 0.36350139172343249 1 
	0.73790003528481984 0.40359741510380759 1 
	0.7374487861325234 0.44637132177018124 0.99999999999999989 
	0.73632542877125495 0.48991994786123272 0.99999999999999989 
	0.7339178398799493 0.53202755396727774 0.99999999999999978 
	0.72993365150388345 0.56983909680065969 1 
	0.72390911658485757 0.60389574694652237 1.0000000000000002 
	0.71566160387566002 0.63278753737537063 1 
	0.70495665459049317 0.65606139499099581 1 
	0.69183974161935757 0.67413435641566832 1.0000000000000002 
	0.6764434184407726 0.68797368053367436 1 
	0.65838650213156136 0.69813844390792767 0.99999999999999978 
	0.63722379331792955 0.70463830781295189 1 
	0.61334002761716877 0.70725339671101495 1.0000000000000002 
	0.58604604369618474 0.70591718946020021 1 
	0.5561048336109583 0.70052807378636417 1 
	0.52439887773686844 0.69147932340712803 1 
	0.49161029181727128 0.67929380107386828 1.0000000000000002 
	0.45897475066655835 0.66485513487206072 0.99999999999999978 
	0.42781796517481957 0.64927752004471695 1.0000000000000004 
	0.3996251626782692 0.63389280306466933 0.99999999999999989 
	0.37470668894117748 0.619415764903679 1 
	0.3524696248261579 0.60588274427187794 0.99999999999999989 
	0.33265955868581343 0.59340115312623498 0.99999999999999978 
	0.31504936167682557 0.58202877775469686 0.99999999999999989 
	0.29978729234768187 0.57202325856803649 1 
	0.28570012441946829 0.56275046084627645 1 
	0.27248866871408295 0.55409967262987525 1 
	0.26437423960139383 0.5490423576189839 1 
	0.26048153201504282 0.54666666666666697 1 
	0.001 
	spline forward { ref 0 } I I I I 
	} 0 0 #
coedge $-1 $16 $22 $21 $34 forward $8 $-1 #
tvertex-vertex $-1 $26 $42 4.2632564145606011e-014 #
tvertex-vertex $-1 $26 $43 5.4113322575687367e-014 #
intcurve-curve $-1 forward { surfintcur full nurbs 3 open 4 
	0 3 0.33560230229152621 1 0.66893563428139446 1 1 3 
	71.169002996840163 107 103.78532637802547 1 
	70.112050374503482 101.00572380874468 103.92305779304691 0.99999999999999989 
	68.026179711153063 89.176163437611436 104.19457129609901 0.99999999999999989 
	64.969462649427655 71.840659537732861 104.59147046495465 1 
	62.980674242390783 60.561680001838226 104.8492301388283 0.99999999999999989 
	62 55 104.97619574375126 1 
	0.001 
	plane 71.169002996840163 107 0 0.98480775301220813 -0.17364817766693005 0 -0.17364817766693005 -0.98480775301220813 0 forward_v I I I I 
	spline forward { ref 0 } I I I I 
	nullbs 
	nurbs 3 open 4 
	0 3 0.33562525889281758 1 0.66895880967186261 1 1 3 
	0.26048153201504282 0.54666666666666697 1 
	0.25523972784932947 0.50670613022455391 1 
	0.24497692422879469 0.42784506351516177 1.0000000000000002 
	0.2301730217699744 0.31227508411803206 0.99999999999999978 
	0.22071953952661039 0.23707922748660848 1.0000000000000002 
	0.21610166071829034 0.20000000000000026 1 
	
	I I 
	0 
	0 
	0 
	} I I #
coedge $-1 $44 $44 $22 $36 forward $19 $45 #
coedge $-1 $23 $21 $44 $46 reversed $12 $47 #
edge $-1 $48 -1.4210854715202004e-014 $30 3.000793047319803 $21 $49 forward 7 unknown #
pcurve $-1 0 forward { exppc nurbs 3 open 2 
	-3.000793047319803 3 1.4210854715202004e-014 3 
	1 -104.97619574375126 1 
	1 -103.97593139464463 1 
	1 -102.97566704553802 1 
	1 -101.97540269643142 1 
	0.001 
	spline forward { ref 1 } I I I I 
	} 0 0 #
edge $-1 $48 0 $38 1 $32 $50 forward 7 unknown #
pcurve $-1 0 forward { exppc nurbs 3 open 2 
	-4.2632564145606011e-014 3 3.0007991879500082 3 
	0 -100.78452719007545 1 
	0 -101.78479358605878 1 
	0 -102.78505998204213 1 
	0 -103.78532637802547 1 
	0.001 
	spline forward { ref 1 } I I I I 
	} 0 0 #
vertex $-1 $46 $51 #
straight-curve $-1 71.169002996840163 107 100.78452719007545 0 0 1 I I #
pcurve $-1 0 forward { exppc nurbs 3 open 45 
	-1.0000000000000002 3 -0.9775585484965198 1 -0.95510529508671471 1 -0.93264077970819903 1 -0.91015975671662197 1 
	-0.88765088682723292 1 -0.86511548121964221 1 -0.84255537940940284 1 -0.81997194745224122 1 -0.79736802241425275 1 
	-0.77475959361235214 1 -0.75217445997313903 1 -0.72963754374684853 1 -0.7071651588214225 1 -0.68475833260719288 1 
	-0.66239025463996115 1 -0.64000091957623129 1 -0.61754498000308766 1 -0.59500870735011113 1 -0.57238268237877421 1 
	-0.54964888267701362 1 -0.52678420805391202 1 -0.50377787195525947 1 -0.4806415371583922 1 -0.45739964004640765 1 
	-0.43406037832400501 1 -0.41068191585669622 1 -0.38732462125577538 1 -0.3640315556798368 1 -0.34080673500163317 1 
	-0.31765489070339548 1 -0.29458146974756649 1 -0.27159501087910753 1 -0.24873426354737926 1 -0.22603165057026742 1 
	-0.20347941178179274 1 -0.18102861152559857 1 -0.15862629093842395 1 -0.13621027383350759 1 -0.11374832135140789 1 
	-0.091235379934486271 1 -0.068649173595107249 1 -0.045945286756706727 1 -0.023051592938728271 1 0 3 
	0 -103.78532637802547 1 
	0.0063524831700095871 -103.77767281831436 0.99999999999999978 
	0.01847032477289447 -103.76135133798998 1.0000000000000004 
	0.034457655854581756 -103.73332449878524 0.99999999999999967 
	0.049524320223614235 -103.70325772837894 1.0000000000000004 
	0.064233351714621759 -103.67080334850596 0.99999999999999978 
	0.079800964253677373 -103.6339156147581 1 
	0.096025576034703658 -103.59344178360924 1 
	0.11311071757981962 -103.54958432267918 1 
	0.13126496224654566 -103.50271470480494 0.99999999999999989 
	0.15095213379313971 -103.45298940525103 1 
	0.17206001511343758 -103.40279916154755 1 
	0.19384131399156049 -103.35658430821015 1 
	0.21577103915553708 -103.3181263545511 1 
	0.23739101580199912 -103.29048578609705 0.99999999999999978 
	0.25857393834857711 -103.27557512662358 1.0000000000000002 
	0.27896563751981335 -103.27487111943024 1 
	0.29807271200530383 -103.28804002233204 0.99999999999999978 
	0.31651370224828834 -103.31503095992421 0.99999999999999978 
	0.33400459143019107 -103.3550613106331 1.0000000000000002 
	0.35095776329070655 -103.40830459433984 1 
	0.36793167710425251 -103.47692236098315 1 
	0.38526933944729669 -103.5644521735737 1.0000000000000002 
	0.40315953748200739 -103.67240548863708 1 
	0.42165150044698868 -103.79912177911869 0.99999999999999978 
	0.44037537769310525 -103.93944062864156 1 
	0.45997315808097711 -104.09525633591363 1.0000000000000002 
	0.47957436673440973 -104.2561214137918 1 
	0.49873474308061672 -104.41399484469329 1 
	0.51705113660199042 -104.56170126708187 1 
	0.53504264099605325 -104.70024494374429 1.0000000000000002 
	0.55298715596239478 -104.82852751255578 1 
	0.57125915865465593 -104.94555584995149 1.0000000000000002 
	0.59069660267190527 -105.05123073162117 0.99999999999999989 
	0.61183355347115553 -105.1385251330295 1 
	0.63385860196689892 -105.20177530382824 1 
	0.65545544658815713 -105.24120248177299 0.99999999999999989 
	0.67829125980718152 -105.26319294808549 1.0000000000000002 
	0.70253746176066845 -105.26898603575835 1 
	0.72844982130223379 -105.26174818031893 1 
	0.75750961961136487 -105.24497066304885 1 
	0.79210625979745275 -105.22515600682401 1 
	0.83378923559097151 -105.19753524786202 1.0000000000000002 
	0.88344233259854721 -105.15558018356161 0.99999999999999978 
	0.93959366533512301 -105.07781100819342 1 
	0.97934417937558926 -105.01291761441786 1 
	1 -104.97619574375126 1 
	0.001 
	spline forward { ref 1 } I I I I 
	} 0 0 #
intcurve-curve $-1 forward { exactcur full nurbs 3 open 45 
	0 3 0.023532486595390052 1 0.04693205143536143 1 0.070198372184170701 1 0.093340104344520211 1 
	0.11637295514529811 1 0.13931648106827757 1 0.16218449583733446 1 0.18498913012780444 1 0.20773061665435336 1 
	0.23041604233228166 1 0.25306870381168717 1 0.27568870599338208 1 0.29828796409072056 1 0.32088763047404745 1 
	0.34350390768032857 1 0.36614331325531507 1 0.38880812792257236 1 0.41149870468405658 1 0.43419804837892273 1 
	0.45688213792812071 1 0.47952930717835712 1 0.50214082250235748 1 0.5247144490778658 1 0.54725752802363126 1 
	0.56978742313115416 1 0.59232355045662699 1 0.61488483788762727 1 0.63748523276932934 1 0.66012990912095826 1 
	0.68282875680702526 1 0.70557622487529181 1 0.72836052447237776 1 0.75116913521301643 1 0.77398200988177068 1 
	0.79677451888352191 1 0.81952209365254114 1 0.84221650058458741 1 0.86486356993103486 1 0.88746781036756539 1 
	0.91003127056284183 1 0.93255545913785953 1 0.95505541007552863 1 0.97753760532136924 1 1.0000000000000002 3 
	62 55 104.97619574375125 1 
	68.138282003747634 53.888385610323859 105.00696285615054 1 
	79.706987818694955 51.307904203257301 105.07786429147967 1 
	95.571450148050161 48.812204542589924 105.15566931531232 0.99999999999999978 
	109.75587378819466 47.907141940640841 105.19751926986532 1 
	122.24361399127552 47.59326848446733 105.22514059881362 0.99999999999999989 
	133.23663981915431 47.562551282035507 105.24495486151447 0.99999999999999967 
	143.03718257476581 47.606146248183556 105.26174101571175 0.99999999999999978 
	151.79117135324211 47.988772627812345 105.26898120517536 1.0000000000000002 
	159.69263407649814 48.851920899989267 105.26322221845028 0.99999999999999978 
	166.62333092313406 50.3030225739911 105.24130506830811 1 
	172.51950703018625 52.378962019535109 105.2019771711043 0.99999999999999967 
	177.65529359017711 55.356238504237155 105.13885143031307 1.0000000000000002 
	181.52092577164115 59.207690422341358 105.05155219578113 0.99999999999999967 
	184.00889474399099 63.698483259786038 104.94576122452327 1.0000000000000002 
	185.57473223740874 68.574233417368333 104.82869018223248 0.99999999999999978 
	186.50062983285446 73.85787486560092 104.7003870827108 0.99999999999999989 
	186.93573769076571 79.523933167703518 104.56182884916282 1.0000000000000004 
	186.99541052522582 85.538291870300128 104.41412539836139 0.99999999999999944 
	186.77957791571311 91.955310829214511 104.25616487808351 1.0000000000000002 
	186.40273843070023 98.489036039790577 104.09517632556216 1 
	185.7246696480083 104.80655620508776 103.93924093469197 1 
	184.68165916288618 110.47832270293193 103.79892764305566 0.99999999999999989 
	183.16004502976838 115.58738052313825 103.67216798634237 1.0000000000000002 
	181.11869230257949 119.92117740790093 103.56421381687981 0.99999999999999989 
	178.50297183634171 123.41166700050802 103.47672104277284 1.0000000000000002 
	175.3232415357445 126.12176387704585 103.40815378269278 1 
	171.6086440817017 128.19705302375857 103.35494304712171 0.99999999999999989 
	167.26733824469349 129.72129623139779 103.31494115826217 1.0000000000000002 
	162.1940399121475 130.69592016776963 103.28799088434889 0.99999999999999989 
	156.4814684665721 131.08801069145002 103.27486454217285 1.0000000000000002 
	149.96540518386067 130.88754213814988 103.27558062501389 0.99999999999999956 
	142.82617302200993 130.0792632404937 103.29047209673871 1.0000000000000002 
	135.26893251061099 128.72206001736069 103.31809631033759 0.99999999999999989 
	127.4484568652625 126.89433960808131 103.35654227658854 1.0000000000000002 
	119.64954462616774 124.72860669890156 103.40275193784383 0.99999999999999989 
	112.18004486355697 122.39198166702396 103.45294417171034 1 
	105.39200006652803 120.08420387003756 103.50268005282172 1.0000000000000002 
	99.362855567183217 117.91255380068016 103.54956073214424 1.0000000000000002 
	93.954072505216999 115.88254397703795 103.59342509542637 1 
	89.10886290365751 114.01026930964984 103.63390357580906 0.99999999999999989 
	84.777158745952391 112.30439216919973 103.67079458177143 0.99999999999999978 
	81.00207214723838 110.80350780420187 103.70325262819051 1.0000000000000002 
	77.498718956087743 109.41256091530968 103.73332036898279 0.99999999999999967 
	74.194069556497439 108.11492195079836 103.76134668930311 1.0000000000000004 
	72.154054882382184 107.35077146179806 103.77779996209067 1 
	71.169002996840163 107 103.78532637802547 1 
	0 
	null_surface 
	null_surface 
	nullbs 
	nullbs 
	I I 
	0 
	0 
	43 0.023532486595390052 0.04693205143536143 0.070198372184170701 0.093340104344520211 0.11637295514529811 0.13931648106827757 0.16218449583733446 0.18498913012780444 0.20773061665435336 0.23041604233228166 0.25306870381168717 0.27568870599338208 0.29828796409072056 0.32088763047404745 0.34350390768032857 0.36614331325531507 0.38880812792257236 0.41149870468405658 0.43419804837892273 0.45688213792812071 0.47952930717835712 0.50214082250235748 0.5247144490778658 0.54725752802363126 0.56978742313115416 0.59232355045662699 0.61488483788762727 0.63748523276932934 0.66012990912095826 0.68282875680702526 0.70557622487529181 0.72836052447237776 0.75116913521301643 0.77398200988177068 0.79677451888352191 0.81952209365254114 0.84221650058458741 0.86486356993103486 0.88746781036756539 0.91003127056284183 0.93255545913785953 0.95505541007552863 0.97753760532136924 
	F 1 F 0 } I I #
point $-1 71.169002996840192 107.00000000000003 103.78532637802546 #
point $-1 61.999999999999979 55.000000000000043 104.97619574375125 #
coedge $-1 $32 $32 $33 $46 forward $19 $52 #
pcurve $-1 0 forward { exppc nurbs 3 open 4 
	0 3 0.3310404815115795 1 0.66437403096052061 1 1 3 
	0.2161042994229006 0.2004602729600348 1 
	0.2207224697178243 0.23753925543781645 1 
	0.23017663697038282 0.31273494059805335 1 
	0.24498185243712317 0.42830553163401697 1 
	0.25524573898511754 0.50716756375045513 1 
	0.26048813985434466 0.54712874951234025 1 
	0.001 
	spline forward { ref 4 } I I I I 
	} 0 0 #
edge $-1 $38 0 $48 1.0000000000000002 $44 $53 forward 7 unknown #
pcurve $-1 0 forward { exppc nurbs 3 open 45 
	-1.0000000000000002 3 -0.97695337337017163 1 -0.9540630175764534 1 -0.93136062254030871 1 -0.90877505233353195 1 
	-0.88626258000061819 1 -0.86380058728556397 1 -0.84138411508056032 1 -0.81898367873519506 1 -0.79653915104888617 1 
	-0.77399815513935954 1 -0.75131211942005094 1 -0.72846779806863449 1 -0.70548896371920233 1 -0.68241277843369219 1 
	-0.65924761050559222 1 -0.63600063169456478 1 -0.61267886928199566 1 -0.58928924877244881 1 -0.56588050433728054 1 
	-0.54252016698462402 1 -0.51927071443700012 1 -0.49614051810988802 1 -0.47315141634217917 1 -0.4503073587669898 1 
	-0.42759033612744524 1 -0.40497508500741064 1 -0.38244438075317577 1 -0.35999081099403041 1 -0.33760188049949014 1 
	-0.3152304114957446 1 -0.29281557470931052 1 -0.27033369518056871 1 -0.24778926707186788 1 -0.22520076335285899 1 
	-0.20259363787174534 1 -0.1799951389238259 1 -0.15741883008044799 1 -0.1348666063163293 1 -0.11233906250359837 1 
	-0.08983721352202878 1 -0.067361360110213986 1 -0.044899718287011225 1 -0.022446104473422102 1 0 3 
	1 -101.97540269643142 1 
	0.97945452649083253 -102.01187607647164 1 
	0.93993125250092846 -102.07638173197367 0.99999999999999989 
	0.88423588538747488 -102.15386789073358 1.0000000000000002 
	0.8348760951343529 -102.19588501846603 0.99999999999999989 
	0.79332901667019751 -102.22359064718526 1.0000000000000002 
	0.75879478096265196 -102.24336207713006 0.99999999999999978 
	0.72979778316843102 -102.26021647003587 1 
	0.70396738975088224 -102.26799499903936 1 
	0.67977772634160705 -102.26310697010786 0.99999999999999978 
	0.65696619977797754 -102.24231540150581 1.0000000000000002 
	0.63549794355478584 -102.20454704453425 1 
	0.61366502865140915 -102.14381136499793 0.99999999999999989 
	0.59254688092704799 -102.05911502632564 1.0000000000000002 
	0.57291374048468291 -101.9545230663504 1 
	0.55438392376944234 -101.83716294804606 1 
	0.53606231734201293 -101.70700790780829 1.0000000000000002 
	0.51762135961290801 -101.56536348061968 0.99999999999999967 
	0.4987992962105639 -101.41364782075838 1 
	0.47908867085037321 -101.2511956490256 1 
	0.4589485279902436 -101.08599337233252 1.0000000000000002 
	0.43891586304961305 -100.92718204679794 0.99999999999999989 
	0.41993293072395921 -100.78583898501932 0.99999999999999989 
	0.40137192285641421 -100.66001421495035 0.99999999999999989 
	0.38364635887388676 -100.55465185818069 1 
	0.36660270791929633 -100.47017040088484 1 
	0.3499508320501743 -100.40391700939088 1.0000000000000002 
	0.33323466138746299 -100.35215465796524 0.99999999999999989 
	0.31582773298264899 -100.31287754340673 1.0000000000000002 
	0.29728850081162222 -100.28629268921898 0.99999999999999978 
	0.27788539138257984 -100.27358731316819 1.0000000000000002 
	0.25704455101978219 -100.27524103363945 0.99999999999999978 
	0.23545169552818496 -100.2915683989897 1 
	0.2135343970875109 -100.32073006244313 1 
	0.19149585310105163 -100.36037415572919 0.99999999999999978 
	0.16979311178211703 -100.40714408529919 0.99999999999999978 
	0.14890831236222712 -100.45723060804207 1.0000000000000004 
	0.12958845258950702 -100.50620399762768 0.99999999999999978 
	0.11180173803147396 -100.55214663213789 1.0000000000000002 
	0.095104223310399319 -100.59495674385454 0.99999999999999989 
	0.079267222746987401 -100.6343910759735 1 
	0.064073310110860787 -100.67034314073541 0.99999999999999978 
	0.049664457359495602 -100.70214127370289 1 
	0.034808519019677311 -100.73183869216312 0.99999999999999989 
	0.018890761844959081 -100.75992607646953 1.0000000000000004 
	0.0065302041357111797 -100.77661285846716 1 
	0 -100.78452719007545 1 
	0.001 
	spline forward { ref 1 } I I I I 
	} 0 0 #
tvertex-vertex $-1 $46 $54 3.0145775206728478e-014 #
straight-curve $-1 62 54.999999999999993 101.97540269643144 0 0 1 I I #
intcurve-curve $-1 forward { surfintcur full nurbs 3 open 4 
	0 3 0.33106370111145256 1 0.66439703310104448 1 1 3 
	62 55 101.97540269643144 1 
	62.980663091655984 60.561616762878671 101.84843797140459 1 
	64.969437147319184 71.840514908088807 101.59067894971315 1.0000000000000002 
	68.026154433207282 89.176020079257171 101.19377773559282 1 
	70.112039182336375 101.00566033481084 100.92226087028924 1 
	71.169002996840163 107 100.78452719007545 1 
	0.001 
	spline forward { ref 4 } I I I I 
	plane 71.169002996840163 107 0 0.98480775301220813 -0.17364817766693005 0 -0.17364817766693005 -0.98480775301220813 0 forward_v I I I I 
	nurbs 3 open 4 
	0 3 0.3310404815115795 1 0.66437403096052061 1 1 3 
	0.2161042994229006 0.2004602729600348 1 
	0.2207224697178243 0.23753925543781645 1 
	0.23017663697038282 0.31273494059805335 1 
	0.24498185243712317 0.42830553163401697 1 
	0.25524573898511754 0.50716756375045513 1 
	0.26048813985434466 0.54712874951234025 1 
	
	nullbs 
	I I 
	0 
	0 
	0 
	} I I #
point $-1 71.169002996840192 107 100.78452719007541 #
pcurve $-1 0 forward { exppc nurbs 3 open 45 
	0 3 0.022444780728296233 1 0.04490613149450684 1 0.067382011705985054 1 0.089878767497943587 1 
	0.11241037189278816 1 0.13497883142188483 1 0.1575862843274794 1 0.18023681241412823 1 0.20293546139690077 1 
	0.22567586499784195 1 0.24843475726178696 1 0.27118876233562983 1 0.29391840319310425 1 0.31661096249187282 1 
	0.33925612253242776 1 0.36185101175267109 1 0.38441021321270952 1 0.40694616542363105 1 0.42947890514437548 1 
	0.45203321974145061 1 0.47463448004975395 1 0.49730268524706289 1 0.52004320637255508 1 0.5428481976865952 1 
	0.56571545917904753 1 0.5886106861355096 1 0.61149574349285907 1 0.63434370415792807 1 0.65715242749764369 1 
	0.67992123905609669 1 0.70265253716370146 1 0.72535615360099948 1 0.74803858358089959 1 0.77070879198268338 1 
	0.79337947872903236 1 0.81608464509894085 1 0.83883545471753662 1 0.86163473726460826 1 0.88449369979262671 1 
	0.9074221814068314 1 0.93043128986211643 1 0.95352739478662651 1 0.97671791034637623 1 1.0000000000000002 3 
	0.26048813985434466 0.54712874951234025 1 
	0.26450722211923555 0.54958510416554618 1 
	0.27279814659749774 0.55475542847831383 0.99999999999999967 
	0.28602565353276149 0.56342420719490793 1.0000000000000004 
	0.29994029162461683 0.5725829977667779 0.99999999999999989 
	0.31489330171801905 0.58238611554631425 0.99999999999999978 
	0.33204922970948819 0.59346993228194522 0.99999999999999989 
	0.35132435206694462 0.60563065613923273 1 
	0.3729714321192279 0.61883979412137546 1 
	0.39728679881517576 0.63302896338599324 1.0000000000000002 
	0.42485345838855892 0.64817799804612852 0.99999999999999978 
	0.45560350601719513 0.66371651267312437 1 
	0.48809525633933137 0.67831457567200359 1 
	0.52108199913023712 0.69084949037351939 0.99999999999999978 
	0.5533109297582619 0.70035012327380874 1.0000000000000002 
	0.58394564528915915 0.70616333689357003 0.99999999999999978 
	0.61194710963670351 0.70779097535285118 1.0000000000000002 
	0.63628497970509312 0.70532195552989208 0.99999999999999978 
	0.65763564679434261 0.69893981266903193 1 
	0.67568555426111476 0.68897810975494622 1.0000000000000002 
	0.69097412463696595 0.67553457090974767 1 
	0.70400138739748319 0.6580970316424446 1.0000000000000002 
	0.714766652763558 0.63565157035904785 1 
	0.7231936299941788 0.60747020330793711 0.99999999999999989 
	0.72947063042316829 0.57366627673986637 1.0000000000000002 
	0.7336779783368963 0.53558811222655245 1.0000000000000002 
	0.73624029881442521 0.49267548465140382 0.99999999999999989 
	0.73742653793206558 0.44795169578335925 1 
	0.7378996412698664 0.40393575556935218 1 
	0.73716239937060557 0.36274855438211717 1 
	0.73473569132186811 0.32412076280245145 1.0000000000000002 
	0.73009346462865854 0.28836193719113495 1.0000000000000002 
	0.72260397122434139 0.25572909793210108 0.99999999999999967 
	0.71096919047394425 0.22603250908130548 1.0000000000000002 
	0.6934285030570847 0.20100693633544944 1 
	0.67065265643402006 0.18180849270391528 1 
	0.64465386134234659 0.16840033301707966 0.99999999999999978 
	0.6141413018980415 0.15903276488760359 1.0000000000000002 
	0.57964846851442586 0.15352376375846843 0.99999999999999989 
	0.54180558370167131 0.15113774399540117 1 
	0.49990283322673534 0.15089659548113654 0.99999999999999978 
	0.45347944567140203 0.15112273239495966 1 
	0.40168164763915576 0.1532785491010954 1.0000000000000002 
	0.34436709012151157 0.15937953547188702 0.99999999999999978 
	0.28242980646364158 0.17598266321895006 1 
	0.23867183097284261 0.19141491033601454 1 
	0.2161042994229006 0.2004602729600348 1 
	0.001 
	spline forward { ref 4 } I I I I 
	} 0 0 #
intcurve-curve $-1 forward { surfintcur full nurbs 3 open 45 
	0 3 0.022467571085558358 1 0.044950268317582913 1 0.067446978362703747 1 0.089965104159678067 1 
	0.11252001241866086 1 0.13511418054411431 1 0.15775039102453192 1 0.18043377948043637 1 0.20317095812732655 1 
	0.2259567934851644 1 0.2487680666045349 1 0.27158095152503497 1 0.29437471987452374 1 0.31713433134821711 1 
	0.33984489884480501 1 0.36249734954887619 1 0.38510089191074981 1 0.40766150096786541 1 0.43019407579215169 1 
	0.45271851667867552 1 0.47525528306037018 1 0.49782366728994998 1 0.52043381511952624 1 0.54308461957182064 1 
	0.56577755223083603 1 0.58848940537729599 1 0.61119331907193741 1 0.63387002271153237 1 0.65651886064861886 1 
	0.6791415593990926 1 0.70174461516287534 1 0.72434559183931957 1 0.74696589520567036 1 0.76961768002628816 1 
	0.79230299123568804 1 0.81504559105890684 1 0.83785039830509001 1 0.86071701028921577 1 0.883657859899182 1 
	0.9066872626064657 1 0.92982445620692034 1 0.95308410131732912 1 0.97647524764163807 1 1.0000000000000002 3 
	71.169002996840163 107 100.78452719007545 1 
	72.183807637604914 107.36841229259413 100.77661121182862 1.0000000000000002 
	74.270115534689566 108.14387830296623 100.75992155549532 0.99999999999999956 
	77.578126420875009 109.44413003108811 100.73183493451756 1 
	81.038206490021182 110.81787852403824 100.70213659263054 1 
	84.736791085389768 112.28829052013833 100.67033505591735 0.99999999999999989 
	88.957255693794423 113.95075329512069 100.63437990342047 1 
	93.672818080024683 115.77474399178364 100.59494117219931 0.99999999999999978 
	98.940017158800586 117.75599170415481 100.55212441722016 1 
	104.82577687344168 119.88424970842759 100.5061712010866 1.0000000000000002 
	111.46615972269815 122.15644226903308 100.45718625148109 0.99999999999999978 
	118.84125412271035 124.48693032714148 100.40709629049437 1.0000000000000002 
	126.60819372123065 126.67627759415211 100.36032958679945 1 
	134.4772456529798 128.5560888089268 100.32069621042741 1.0000000000000002 
	142.15940601545131 129.98073968359347 100.29155145242248 0.99999999999999978 
	149.46363166833629 130.85230093841199 100.27524608705214 1.0000000000000002 
	156.14805056591928 131.09618728067204 100.27358239241451 0.99999999999999978 
	161.96890349768873 130.72576267675854 100.28624312722471 1 
	167.08706395976003 129.76856674415944 100.31278842810744 1 
	171.42646822086675 128.27455296763964 100.35204134084749 0.99999999999999989 
	175.11460248611644 126.25840126211865 100.40377626323308 1 
	178.27157545278018 123.6434218793182 100.46998194655862 0.99999999999999978 
	180.89983647681404 120.27719433868648 100.55441648895089 1 
	182.98264630196144 116.05009653782278 100.65976166448198 1 
	184.5643049883528 110.97901116250024 100.7856198525636 1 
	185.6615211023915 105.26726554528253 100.92695262014408 1.0000000000000002 
	186.37872680908438 98.828876238833274 101.08589175487398 0.99999999999999978 
	186.77376210816581 92.118648029692878 101.2512363921682 1.0000000000000002 
	186.99820164273223 85.515166955846041 101.41378955020029 1 
	186.9318455618307 79.33708998814366 101.56550675238338 0.99999999999999978 
	186.46630258153778 73.542716826350031 101.70716966651166 1.0000000000000004 
	185.48165648597228 68.17861424581838 101.83734714779159 1.0000000000000002 
	183.83465427726398 63.283165175362356 101.95474953994454 1 
	181.22978393087521 58.827553233782922 102.05944687575217 1 
	177.26473997466792 55.074480567913277 102.14412239064247 0.99999999999999978 
	172.09751855307292 52.196516977624064 102.20473547412982 1.0000000000000002 
	166.18357994795429 50.186449743290289 102.24241114075522 0.99999999999999967 
	159.22103427795724 48.78205303941558 102.26313200186991 1.0000000000000002 
	151.31339102079855 47.956286212648713 102.26798994079711 1 
	142.57845874125744 47.598875886136661 102.26020939908197 1.0000000000000002 
	132.8160278599459 47.563167980445328 102.24334636154721 0.99999999999999989 
	121.8693668880086 47.597607517415305 102.22357563872988 1 
	109.44067406002068 47.921764448995674 102.19587003390727 1 
	95.348179614981547 48.838197819888606 102.15395720668602 0.99999999999999989 
	79.607799579593191 51.330951551803679 102.07642959434827 1.0000000000000002 
	68.054319397400533 53.643606594901144 102.01188791311017 0.99999999999999978 
	62 55 101.97540269643142 1 
	0.001 
	spline forward { ref 1 } I I I I 
	spline forward { ref 4 } I I I I 
	nurbs 3 open 45 
	0 3 0.022446104473422102 1 0.044899718287011225 1 0.067361360110213986 1 0.08983721352202878 1 
	0.11233906250359837 1 0.1348666063163293 1 0.15741883008044799 1 0.1799951389238259 1 0.20259363787174534 1 
	0.22520076335285899 1 0.24778926707186788 1 0.27033369518056871 1 0.29281557470931052 1 0.3152304114957446 1 
	0.33760188049949014 1 0.35999081099403041 1 0.38244438075317577 1 0.40497508500741064 1 0.42759033612744524 1 
	0.4503073587669898 1 0.47315141634217917 1 0.49614051810988802 1 0.51927071443700012 1 0.54252016698462402 1 
	0.56588050433728054 1 0.58928924877244881 1 0.61267886928199566 1 0.63600063169456478 1 0.65924761050559222 1 
	0.68241277843369219 1 0.70548896371920233 1 0.72846779806863449 1 0.75131211942005094 1 0.77399815513935954 1 
	0.79653915104888617 1 0.81898367873519506 1 0.84138411508056032 1 0.86380058728556397 1 0.88626258000061819 1 
	0.90877505233353195 1 0.93136062254030871 1 0.9540630175764534 1 0.97695337337017163 1 1.0000000000000002 3 
	0 -100.78452719007545 1 
	0.0065302041357111797 -100.77661285846716 1 
	0.018890761844959081 -100.75992607646953 1.0000000000000004 
	0.034808519019677311 -100.73183869216312 0.99999999999999989 
	0.049664457359495602 -100.70214127370289 1 
	0.064073310110860787 -100.67034314073541 0.99999999999999978 
	0.079267222746987401 -100.6343910759735 1 
	0.095104223310399319 -100.59495674385454 0.99999999999999989 
	0.11180173803147396 -100.55214663213789 1.0000000000000002 
	0.12958845258950702 -100.50620399762768 0.99999999999999978 
	0.14890831236222712 -100.45723060804207 1.0000000000000004 
	0.16979311178211703 -100.40714408529919 0.99999999999999978 
	0.19149585310105163 -100.36037415572919 0.99999999999999978 
	0.2135343970875109 -100.32073006244313 1 
	0.23545169552818496 -100.2915683989897 1 
	0.25704455101978219 -100.27524103363945 0.99999999999999978 
	0.27788539138257984 -100.27358731316819 1.0000000000000002 
	0.29728850081162222 -100.28629268921898 0.99999999999999978 
	0.31582773298264899 -100.31287754340673 1.0000000000000002 
	0.33323466138746299 -100.35215465796524 0.99999999999999989 
	0.3499508320501743 -100.40391700939088 1.0000000000000002 
	0.36660270791929633 -100.47017040088484 1 
	0.38364635887388676 -100.55465185818069 1 
	0.40137192285641421 -100.66001421495035 0.99999999999999989 
	0.41993293072395921 -100.78583898501932 0.99999999999999989 
	0.43891586304961305 -100.92718204679794 0.99999999999999989 
	0.4589485279902436 -101.08599337233252 1.0000000000000002 
	0.47908867085037321 -101.2511956490256 1 
	0.4987992962105639 -101.41364782075838 1 
	0.51762135961290801 -101.56536348061968 0.99999999999999967 
	0.53606231734201293 -101.70700790780829 1.0000000000000002 
	0.55438392376944234 -101.83716294804606 1 
	0.57291374048468291 -101.9545230663504 1 
	0.59254688092704799 -102.05911502632564 1.0000000000000002 
	0.61366502865140915 -102.14381136499793 0.99999999999999989 
	0.63549794355478584 -102.20454704453425 1 
	0.65696619977797754 -102.24231540150581 1.0000000000000002 
	0.67977772634160705 -102.26310697010786 0.99999999999999978 
	0.70396738975088224 -102.26799499903936 1 
	0.72979778316843102 -102.26021647003587 1 
	0.75879478096265196 -102.24336207713006 0.99999999999999978 
	0.79332901667019751 -102.22359064718526 1.0000000000000002 
	0.8348760951343529 -102.19588501846603 0.99999999999999989 
	0.88423588538747488 -102.15386789073358 1.0000000000000002 
	0.93993125250092846 -102.07638173197367 0.99999999999999989 
	0.97945452649083253 -102.01187607647164 1 
	1 -101.97540269643142 1 
	
	nurbs 3 open 45 
	0 3 0.022444780728296233 1 0.04490613149450684 1 0.067382011705985054 1 0.089878767497943587 1 
	0.11241037189278816 1 0.13497883142188483 1 0.1575862843274794 1 0.18023681241412823 1 0.20293546139690077 1 
	0.22567586499784195 1 0.24843475726178696 1 0.27118876233562983 1 0.29391840319310425 1 0.31661096249187282 1 
	0.33925612253242776 1 0.36185101175267109 1 0.38441021321270952 1 0.40694616542363105 1 0.42947890514437548 1 
	0.45203321974145061 1 0.47463448004975395 1 0.49730268524706289 1 0.52004320637255508 1 0.5428481976865952 1 
	0.56571545917904753 1 0.5886106861355096 1 0.61149574349285907 1 0.63434370415792807 1 0.65715242749764369 1 
	0.67992123905609669 1 0.70265253716370146 1 0.72535615360099948 1 0.74803858358089959 1 0.77070879198268338 1 
	0.79337947872903236 1 0.81608464509894085 1 0.83883545471753662 1 0.86163473726460826 1 0.88449369979262671 1 
	0.9074221814068314 1 0.93043128986211643 1 0.95352739478662651 1 0.97671791034637623 1 1.0000000000000002 3 
	0.26048813985434466 0.54712874951234025 1 
	0.26450722211923555 0.54958510416554618 1 
	0.27279814659749774 0.55475542847831383 0.99999999999999967 
	0.28602565353276149 0.56342420719490793 1.0000000000000004 
	0.29994029162461683 0.5725829977667779 0.99999999999999989 
	0.31489330171801905 0.58238611554631425 0.99999999999999978 
	0.33204922970948819 0.59346993228194522 0.99999999999999989 
	0.35132435206694462 0.60563065613923273 1 
	0.3729714321192279 0.61883979412137546 1 
	0.39728679881517576 0.63302896338599324 1.0000000000000002 
	0.42485345838855892 0.64817799804612852 0.99999999999999978 
	0.45560350601719513 0.66371651267312437 1 
	0.48809525633933137 0.67831457567200359 1 
	0.52108199913023712 0.69084949037351939 0.99999999999999978 
	0.5533109297582619 0.70035012327380874 1.0000000000000002 
	0.58394564528915915 0.70616333689357003 0.99999999999999978 
	0.61194710963670351 0.70779097535285118 1.0000000000000002 
	0.63628497970509312 0.70532195552989208 0.99999999999999978 
	0.65763564679434261 0.69893981266903193 1 
	0.67568555426111476 0.68897810975494622 1.0000000000000002 
	0.69097412463696595 0.67553457090974767 1 
	0.70400138739748319 0.6580970316424446 1.0000000000000002 
	0.714766652763558 0.63565157035904785 1 
	0.7231936299941788 0.60747020330793711 0.99999999999999989 
	0.72947063042316829 0.57366627673986637 1.0000000000000002 
	0.7336779783368963 0.53558811222655245 1.0000000000000002 
	0.73624029881442521 0.49267548465140382 0.99999999999999989 
	0.73742653793206558 0.44795169578335925 1 
	0.7378996412698664 0.40393575556935218 1 
	0.73716239937060557 0.36274855438211717 1 
	0.73473569132186811 0.32412076280245145 1.0000000000000002 
	0.73009346462865854 0.28836193719113495 1.0000000000000002 
	0.72260397122434139 0.25572909793210108 0.99999999999999967 
	0.71096919047394425 0.22603250908130548 1.0000000000000002 
	0.6934285030570847 0.20100693633544944 1 
	0.67065265643402006 0.18180849270391528 1 
	0.64465386134234659 0.16840033301707966 0.99999999999999978 
	0.6141413018980415 0.15903276488760359 1.0000000000000002 
	0.57964846851442586 0.15352376375846843 0.99999999999999989 
	0.54180558370167131 0.15113774399540117 1 
	0.49990283322673534 0.15089659548113654 0.99999999999999978 
	0.45347944567140203 0.15112273239495966 1 
	0.40168164763915576 0.1532785491010954 1.0000000000000002 
	0.34436709012151157 0.15937953547188702 0.99999999999999978 
	0.28242980646364158 0.17598266321895006 1 
	0.23867183097284261 0.19141491033601454 1 
	0.2161042994229006 0.2004602729600348 1 
	
	I I 
	0 
	0 
	0 
	} I I #
point $-1 62.000000000000014 55.000000000000014 101.97540269643143 #
End-of-ACIS-data 