**ABCDEFGHIJKLMNOPQRSTUVWXYZabcdefghijklmnopqrstuvwxyz**************************
**PARASOLID !"#$%&'()*+,-./:;<=>?@[\]^_`{|}~0123456789**************************
**PART1;MC=sun;MC_MODEL=Sun-3;MC_ID=unknown;OS=SunOS;OS_RELEASE=unknown;FRU=sdl_
parasolid_test_sun;APPL=unknown;SITE=sdl-cambridge-u.k.;USER=kramer;FORMAT=text;
GUISE=transmit;KEY=olps_workpiece_out;FILE=olps_workpiece_out.xmt_txt;DATE=5-oct
-1990;
**PART2;SCH=SCH_210_1012;USFLD_SIZE=0;
**PART3;
**END_OF_HEADER*****************************************************************
T47 : TRANSMIT FILE created by modeller version 22012 SCH_210_10120 12 1 1924 0
 0 0 0 0 1e3 1e-8 2 2 0 0 0 1 3 102 18 2 olps_workpiece_out13 3 1169 0 1 0 4 5 6
 7 8 9 14 4 1828 0 10 0 11 3 7 -16 5 1848 0 12 0 13 8 18 6 1868 0 12 0 14 9 50 7
 1880 0 4 15 0 0 +10.625 4 .75 -1 0 -0 30 8 1890 0 5 16 0 0 +10.625 3.875 .75 -0
 -.2425356250363325 .970142500145332 29 9 1910 0 6 17 0 10.625 3.84375 .875 29 1
7 1911 0 14 18 9 10.75 3.84375 .875 18 14 1869 0 19 6 20 17 29 18 1913 0 20 21 1
7 10.625 3.90625 .625 18 20 1871 0 22 14 23 18 29 21 1915 0 23 24 18 10.625 4.37
5 .875 18 23 1873 0 25 20 26 21 29 24 1916 0 26 27 21 10.75 4.375 .875 18 26 187
4 0 28 23 29 24 29 27 1918 0 29 30 24 10.625 4.375 .625 18 29 1876 0 31 26 32 27
 29 30 1921 0 32 33 27 10.75 4.375 .625 18 32 1879 0 34 29 35 30 29 33 1795 0 35
 36 30 10.75 3.90625 .625 18 35 1793 0 37 32 38 33 29 36 1778 0 38 39 33 10.625
 1.15625 .875 18 38 1736 0 40 35 41 36 29 39 1779 0 41 42 36 10.75 1.15625 .875
 18 41 1737 0 43 38 44 39 29 42 1780 0 44 45 39 10.75 1.09375 .625 18 44 1738 0
 46 41 47 42 29 45 1781 0 47 48 42 10.625 1.09375 .625 18 47 1739 0 49 44 50 45
 29 48 1782 0 50 51 45 10.625 .625 .875 18 50 1740 0 52 47 53 48 29 51 1785 0 53
 54 48 10.75 .625 .875 18 53 1743 0 55 50 56 51 29 54 1787 0 56 57 51 10.625 .62
5 .625 18 56 1745 0 58 53 59 54 29 57 1671 0 59 60 54 10.75 .625 .625 18 59 1669
 0 61 56 62 57 29 60 1638 0 62 63 57 10.5 3.097597050800555 1.25 18 62 1571 0 64
 59 65 60 29 63 1639 0 65 66 60 10.5 3.65240294919945 1.25 18 65 1572 0 67 62 68
 63 29 66 1640 0 68 69 63 10.5 3.773670761717615 1.155316953129544 18 68 1573 0
 70 65 71 66 29 69 1641 0 71 72 66 10.5 3.961170761717615 .4053169531295455 18 7
1 1574 0 73 68 74 69 29 72 1642 0 74 75 69 10.5 3.83990294919945 .25 18 74 1575
 0 76 71 77 72 29 75 1643 0 77 78 72 10.5 2.91009705080055 .25 18 77 1576 0 79 7
4 80 75 29 78 1644 0 80 81 75 10.75 3.83990294919945 .25 18 80 1577 0 82 77 83 7
8 29 81 1645 0 83 84 78 10.75 2.91009705080055 .25 18 83 1578 0 85 80 86 81 29 8
4 1646 0 86 87 81 10.75 3.097597050800555 1.25 18 86 1579 0 88 83 89 84 29 87 16
47 0 89 90 84 10.75 3.65240294919945 1.25 18 89 1580 0 91 86 92 87 29 90 1648 0
 92 93 87 10.75 3.773670761717615 1.155316953129546 18 92 1581 0 94 89 95 90 29
 93 1649 0 95 96 90 10.75 3.961170761717615 .4053169531295455 18 95 1582 0 97 92
 98 93 29 96 1650 0 98 99 93 10.5 2.788829238282385 .4053169531295455 18 98 1583
 0 100 95 101 96 29 99 1651 0 101 102 96 10.5 2.976329238282385 1.15531695312954
6 18 101 1584 0 103 98 104 99 29 102 1652 0 104 105 99 10.75 2.788829238282385 .
4053169531295455 18 104 1585 0 106 101 107 102 29 105 1473 0 107 108 102 10.75 2
.976329238282385 1.155316953129546 18 107 1471 0 109 104 110 105 29 108 1448 0 1
10 111 105 10.5 1.347597050800552 1.25 18 110 1381 0 112 107 113 108 29 111 1449
 0 113 114 108 10.5 1.90240294919945 1.25 18 113 1382 0 115 110 116 111 29 114 1
450 0 116 117 111 10.5 2.023670761717615 1.155316953129544 18 116 1383 0 118 113
 119 114 29 117 1451 0 119 120 114 10.5 2.211170761717615 .4053169531295455 18 1
19 1384 0 121 116 122 117 29 120 1452 0 122 123 117 10.5 2.08990294919945 .25 18
 122 1385 0 124 119 125 120 29 123 1453 0 125 126 120 10.5 1.160097050800552 .25
 18 125 1386 0 127 122 128 123 29 126 1454 0 128 129 123 10.75 2.08990294919945
 .25 18 128 1387 0 130 125 131 126 29 129 1455 0 131 132 126 10.75 1.16009705080
0552 .25 18 131 1388 0 133 128 134 129 29 132 1456 0 134 135 129 10.75 1.3475970
50800552 1.25 18 134 1389 0 136 131 137 132 29 135 1457 0 137 138 132 10.75 1.90
240294919945 1.25 18 137 1390 0 139 134 140 135 29 138 1458 0 140 141 135 10.75
 2.023670761717615 1.155316953129544 18 140 1391 0 142 137 143 138 29 141 1459 0
 143 144 138 10.75 2.211170761717615 .4053169531295455 18 143 1392 0 145 140 146
 141 29 144 1460 0 146 147 141 10.5 1.038829238282386 .4053169531295455 18 146 1
393 0 148 143 149 144 29 147 1461 0 149 150 144 10.5 1.226329238282386 1.1553169
53129544 18 149 1394 0 151 146 152 147 29 150 1462 0 152 153 147 10.75 1.0388292
38282386 .4053169531295455 18 152 1395 0 154 149 155 150 29 153 1283 0 155 156 1
50 10.75 1.226329238282386 1.155316953129544 18 155 1281 0 157 152 158 153 29 15
6 941 0 158 159 153 9 0 3 18 158 847 0 160 155 161 156 29 159 942 0 161 162 156
 9 5 3 18 161 848 0 163 158 164 159 29 162 947 0 164 165 159 10.75 5 3 18 164 85
3 0 166 161 167 162 29 165 948 0 167 168 162 10.75 0 3 18 167 854 0 169 164 170
 165 29 168 950 0 170 171 165 10.75 5 1.5 18 170 856 0 172 167 173 168 29 171 95
1 0 173 174 168 9 5 1.5 18 173 857 0 175 170 176 171 29 174 952 0 176 177 171 9
 0 1.5 18 176 858 0 178 173 179 174 29 177 708 0 179 180 174 10.75 0 1.5 18 179
 706 0 181 176 182 177 29 180 35 0 183 184 177 10.75 0 0 18 183 7 0 185 186 0 18
0 29 184 36 0 187 188 180 10.75 5 0 18 187 12 0 189 190 191 184 29 188 37 0 191
 192 184 0 5 0 18 191 10 0 193 187 186 188 29 192 38 0 186 194 188 0 0 0 18 186
 8 0 195 191 183 192 29 194 52 0 196 197 192 10.75 0 5 18 196 14 0 198 199 190 1
94 29 197 53 0 190 200 194 10.75 5 5 18 190 16 0 201 196 187 197 29 200 54 0 202
 203 197 0 5 5 18 202 18 0 204 205 199 200 29 203 55 0 199 206 200 0 0 5 18 199
 20 0 207 202 196 203 29 206 161 0 182 208 203 .75 4.25 1.750215154756895 18 182
 153 0 209 179 205 206 29 208 251 0 205 0 206 .75 .75 1.75021515475689 18 205 24
3 0 210 182 202 208 17 210 211 210 210 205 0 0 15 211 234 0 210 212 0 14 212 232
 0 213 214 215 3 216 -14 213 24 0 217 212 218 3 219 +14 214 142 0 212 220 221 3
 222 -15 215 233 0 223 212 211 52 216 245 0 212 224 225 0 +.75 .75 1.75021515475
689 -0 -0 -1 0 .857167300702112 .515038074910054 50 224 345 0 226 227 216 0 +4 2
.5 .25 0 0 1 51 225 246 0 228 216 229 0 +.75 .75 1.6 -0 -0 -1 .25 14 228 237 0 2
30 231 232 3 225 -51 229 216 0 231 225 233 0 +10 .75 1.6 -0 -0 -1 .25 14 231 207
 0 228 234 235 3 229 -51 233 186 0 234 229 222 0 +10 4.25 1.6 -0 -0 -1 .25 14 23
4 177 0 231 236 237 3 233 -52 222 155 0 214 233 238 0 +.75 4.25 1.75021515475689
5 -0 -0 -1 0 .857167300702112 .515038074910054 51 238 156 0 236 222 239 0 +.75 4
.25 1.6 -0 -0 -1 .25 14 236 147 0 234 240 241 3 238 -50 239 51 0 220 238 242 0 +
5.375 2.5 5 0 0 1 14 220 33 0 214 243 244 3 239 +50 242 46 0 245 239 246 0 +5.37
5 0 0 -0 -1 -0 14 245 30 0 240 217 247 3 242 +50 246 45 0 217 242 219 0 +0 2.5 0
 -1 -0 -0 14 217 27 0 245 213 248 3 246 +50 219 44 0 213 246 249 0 +5.375 5 0 0
 1 0 50 249 43 0 240 219 250 0 +10.75 2.5 0 1 0 0 14 240 1 0 236 245 251 3 249 +
50 250 34 0 230 249 252 0 +5.375 2.5 0 -0 -0 -1 14 230 6 0 226 228 253 3 250 +51
 252 389 0 243 250 254 0 +4 2.5 .5 -0 -0 -1 1.25 14 243 376 0 220 255 256 3 252
 -50 254 387 0 255 252 257 0 +4 2.5 .5 0 0 1 14 255 370 0 243 258 259 3 254 -50
 257 421 0 258 254 260 0 +4 2.5 2.5 0 0 1 14 258 412 0 255 261 262 3 257 -51 260
 420 0 261 257 263 0 +4 2.5 2.5 -0 -0 -1 1 14 261 409 0 258 264 265 3 260 -50 26
3 458 0 264 260 266 0 +10.75 2.5 0 1 0 0 14 264 457 0 261 267 268 3 263 +50 266
 891 0 267 263 269 0 +9 2.5 2.25 -1 0 -0 14 267 793 0 264 270 271 3 266 -50 269
 890 0 270 266 272 0 +9 2.5 3 0 0 1 14 270 791 0 267 273 274 3 269 -50 272 883 0
 273 269 275 0 +9 2.5 1.5 0 -0 -1 14 273 775 0 270 276 277 3 272 -50 275 1406 0
 276 272 278 0 +10.5 1.125 .75 -0 -.970142500145332 .242535625036333 14 276 1337
 0 273 279 280 3 275 -50 278 1405 0 279 275 281 0 +10.5 1.625 .25 0 -0 -1 14 279
 1335 0 276 282 283 3 278 -50 281 1404 0 282 278 284 0 +10.5 2.25 .25 -1 0 -0 14
 282 1333 0 279 285 286 3 281 -50 284 1403 0 285 281 287 0 +10.5 1.625 1.25 0 0
 1 14 285 1331 0 282 288 289 3 284 -50 287 1402 0 288 284 290 0 +10.5 2.125 .75
 0 .970142500145332 .242535625036333 14 288 1329 0 285 291 292 3 287 -51 290 140
1 0 291 287 293 0 +10.5 1.160097050800552 .375 1 0 0 .125 14 291 1327 0 288 294
 295 3 290 -51 293 1400 0 294 290 296 0 +10.5 1.347597050800552 1.125 1 0 0 .125
 14 294 1325 0 291 297 298 3 293 -51 296 1399 0 297 293 299 0 +10.5 1.9024029491
9945 1.125 1 0 0 .125 14 297 1323 0 294 300 301 3 296 -51 299 1398 0 300 296 302
 0 +10.5 2.08990294919945 .375 1 0 0 .125 14 300 1321 0 297 303 304 3 299 -50 30
2 1596 0 303 299 305 0 +10.5 2.875 .75 -0 -.970142500145332 .242535625036333 14
 303 1527 0 300 306 307 3 302 -50 305 1595 0 306 302 308 0 +10.5 3.375 .25 0 -0
 -1 14 306 1525 0 303 309 310 3 305 -50 308 1594 0 309 305 311 0 +10.5 4 .25 -1
 0 -0 14 309 1523 0 306 312 313 3 308 -50 311 1593 0 312 308 314 0 +10.5 3.375 1
.25 0 0 1 14 312 1521 0 309 315 316 3 311 -50 314 1592 0 315 311 317 0 +10.5 3.8
75 .75 0 .970142500145332 .242535625036333 14 315 1519 0 312 318 319 3 314 -51 3
17 1591 0 318 314 320 0 +10.5 2.910097050800555 .375 1 0 0 .125 14 318 1517 0 31
5 321 322 3 317 -51 320 1590 0 321 317 323 0 +10.5 3.097597050800555 1.125 1 0 0
 .125 14 321 1515 0 318 324 325 3 320 -51 323 1589 0 324 320 326 0 +10.5 3.65240
294919945 1.125 1 0 0 .125 14 324 1513 0 321 327 328 3 323 -51 326 1588 0 327 32
3 329 0 +10.5 3.83990294919945 .375 1 0 0 .125 14 327 1511 0 324 330 331 3 326 -
51 329 1752 0 330 326 332 0 +10.625 .625 .75 1 0 0 .125 14 330 1704 0 327 333 33
4 3 329 -50 332 1751 0 333 329 335 0 +10.625 1 .625 0 -0 -1 14 333 1702 0 330 33
6 337 3 332 -50 335 1750 0 336 332 338 0 +10.625 1 .875 0 0 1 14 336 1700 0 333
 339 340 3 335 -50 338 1748 0 339 335 341 0 +10.625 1 .75 -1 0 -0 14 339 1696 0
 336 342 343 3 338 -51 341 1885 0 342 338 344 0 +10.625 4.375 .75 1 0 0 .125 14
 342 1838 0 339 345 346 3 341 -50 344 1883 0 345 341 15 0 +10.625 4 .625 0 -0 -1
 14 345 1834 0 342 10 347 3 344 -50 15 1882 0 10 344 7 0 +10.625 4 .875 0 0 1 14
 10 1832 0 345 4 348 3 15 -15 348 1833 0 349 10 0 17 349 348 350 351 23 352 353
 17 350 348 354 349 26 355 356 17 351 348 349 354 6 19 13 17 352 11 22 25 6 349
 353 16 353 1860 0 352 357 358 359 16 357 1858 0 360 356 353 361 16 358 1861 0 3
62 353 363 364 30 359 1902 0 353 364 361 0 +10.625 4 .875 -0 -1 0 31 364 1903 0
 358 365 359 0 +10.75 4.375 .75 1 0 0 .125 31 361 1900 0 357 359 366 0 +10.625 4
.375 .75 -1 0 -0 .125 30 366 1898 0 356 361 367 0 +10.625 4.375 .875 -1 0 -0 16
 356 1856 0 355 368 357 366 30 367 1897 0 368 366 369 0 +10.625 4 .625 0 1 0 16
 368 1855 0 370 371 356 367 30 369 1894 0 371 367 16 0 +10.75 4 .875 0 1 0 16 37
1 1852 0 28 13 368 369 30 16 1892 0 13 369 8 0 +10.5 3.84375 .875 1 0 0 16 13 18
50 0 19 5 371 16 17 19 319 372 12 14 351 13 15 319 1520 0 12 315 0 17 372 319 70
 19 92 373 374 17 12 319 19 375 6 22 5 17 375 319 12 376 20 377 378 17 22 11 370
 352 20 12 5 15 11 1829 0 370 4 0 17 370 11 25 22 29 379 368 17 25 11 352 370 23
 360 357 17 379 347 377 31 20 370 368 15 347 1835 0 380 345 0 17 377 347 380 379
 35 375 378 17 31 347 379 380 29 381 363 17 380 347 31 377 32 37 382 17 381 346
 362 360 32 31 363 16 363 1864 0 381 358 382 365 16 382 1867 0 37 363 378 383 30
 365 1906 0 363 383 364 0 +10.625 4.375 .625 1 0 0 30 383 1909 0 382 384 365 0 +
10.75 4 .625 -0 -1 0 30 384 1817 0 378 385 383 0 +10.5 3.90625 .625 -1 0 -0 16 3
78 1815 0 375 382 374 384 30 385 1800 0 374 386 384 0 +10.75 4 .25 -0 -.24253562
50363325 .970142500145332 16 374 1798 0 372 378 387 385 30 386 1758 0 387 388 38
5 0 +10.625 1.125 .75 -0 -.2425356250363335 -.970142500145332 16 387 1716 0 49 3
74 389 386 30 388 1760 0 389 390 386 0 +10.5 1.15625 .875 -1 0 -0 16 389 1718 0
 40 387 391 388 30 390 1761 0 391 392 388 0 +10.625 1 .875 -0 -1 0 16 391 1719 0
 393 389 394 390 30 392 1763 0 394 395 390 0 +10.5 1.09375 .625 1 0 0 16 394 172
1 0 46 391 396 392 30 395 1764 0 396 397 392 0 +10.75 1 .625 -0 -1 0 16 396 1722
 0 61 394 398 395 30 397 1767 0 398 399 395 0 +10.625 .625 .875 1 0 0 16 398 172
5 0 400 396 401 397 31 399 1769 0 401 402 397 0 +10.625 .625 .75 -1 0 -0 .125 16
 401 1727 0 403 398 404 399 30 402 1773 0 404 405 399 0 +10.75 1 .875 0 1 0 16 4
04 1731 0 43 401 406 402 30 405 1775 0 406 407 402 0 +10.625 .625 .625 -1 0 -0 1
6 406 1733 0 408 404 409 405 30 407 1776 0 409 410 405 0 +10.625 1 .625 0 1 0 16
 409 1734 0 411 406 412 407 31 410 1676 0 412 413 407 0 +10.75 .625 .75 1 0 0 .1
25 16 412 1674 0 414 409 415 410 30 413 1668 0 415 416 410 0 +10.75 1.25 1.25 -0
 -.2425356250363335 -.970142500145332 16 415 1666 0 417 412 418 413 30 416 1606
 0 418 419 413 0 +10.5 3.773670761717615 1.155316953129546 1 0 0 16 418 1539 0 4
20 415 421 416 30 419 1607 0 421 422 416 0 +10.5 3.961170761717615 .405316953129
5455 -1 0 -0 16 421 1540 0 423 418 424 419 30 422 1608 0 424 425 419 0 +10.5 3.0
97597050800555 1.25 1 0 0 16 424 1541 0 426 421 427 422 30 425 1609 0 427 428 42
2 0 +10.5 3.65240294919945 1.25 -1 0 -0 16 427 1542 0 429 424 430 425 31 428 161
0 0 430 431 425 0 +10.5 2.91009705080055 .375 -1 0 -0 .125 16 430 1543 0 432 427
 433 428 31 431 1611 0 433 434 428 0 +10.5 3.097597050800555 1.125 -1 0 -0 .125
 16 433 1544 0 435 430 436 431 31 434 1612 0 436 437 431 0 +10.5 3.6524029491994
5 1.125 -1 0 -0 .125 16 436 1545 0 438 433 439 434 31 437 1613 0 439 440 434 0 +
10.5 3.83990294919945 .375 -1 0 -0 .125 16 439 1546 0 441 436 442 437 30 440 161
4 0 442 443 437 0 +10.5 3.75 1.25 -0 -1 0 16 442 1547 0 444 439 445 440 30 443 1
615 0 445 446 440 0 +10.5 4 .25 -0 -.2425356250363325 .970142500145332 16 445 15
48 0 447 442 448 443 30 446 1616 0 448 449 443 0 +10.5 2.91009705080055 .25 -1 0
 -0 16 448 1549 0 450 445 451 446 30 449 1617 0 451 452 446 0 +10.5 3.8399029491
9945 .25 1 0 0 16 451 1550 0 453 448 454 449 30 452 1618 0 454 455 449 0 +10.5 2
.75 .25 0 1 0 16 454 1551 0 456 451 457 452 31 455 1619 0 457 458 452 0 -10.75 2
.910097050800555 .375 -1 0 -0 .125 16 457 1552 0 459 454 460 455 31 458 1621 0 4
60 461 455 0 -10.75 3.65240294919945 1.125 -1 0 -0 .125 16 460 1554 0 462 457 46
3 458 31 461 1622 0 463 464 458 0 -10.75 3.83990294919945 .375 -1 0 -0 .125 16 4
63 1555 0 465 460 466 461 30 464 1623 0 466 467 461 0 +10.75 2.75 .25 0 1 0 16 4
66 1556 0 468 463 469 464 30 467 1624 0 469 470 464 0 +10.75 3.75 1.25 -0 -1 0 1
6 469 1557 0 471 466 472 467 30 470 1625 0 472 473 467 0 +10.75 4 .25 -0 -.24253
56250363325 .970142500145332 16 472 1558 0 376 469 474 470 30 473 1626 0 474 475
 470 0 +10.5 2.788829238282385 .4053169531295455 1 0 0 16 474 1559 0 476 472 477
 473 30 475 1627 0 477 478 473 0 +10.5 2.976329238282385 1.155316953129546 -1 0
 -0 16 477 1560 0 479 474 480 475 30 478 1628 0 480 481 475 0 +10.5 3 1.25 -0 -.
2425356250363335 -.970142500145332 16 480 1561 0 482 477 483 478 30 481 1629 0 4
83 484 478 0 +10.75 3 1.25 -0 -.2425356250363335 -.970142500145332 16 483 1562 0
 485 480 486 481 31 484 1485 0 486 487 481 0 +10.75 3.097597050800555 1.125 1 0
 0 .125 16 486 1483 0 488 483 489 484 30 487 1416 0 489 490 484 0 +10.5 2.023670
761717615 1.155316953129544 1 0 0 16 489 1349 0 491 486 492 487 30 490 1417 0 49
2 493 487 0 +10.5 2.211170761717615 .4053169531295455 -1 0 -0 16 492 1350 0 494
 489 495 490 30 493 1418 0 495 496 490 0 +10.5 1.347597050800552 1.25 1 0 0 16 4
95 1351 0 497 492 498 493 30 496 1419 0 498 499 493 0 +10.5 1.90240294919945 1.2
5 -1 0 -0 16 498 1352 0 500 495 501 496 31 499 1420 0 501 502 496 0 +10.5 1.1600
97050800552 .375 -1 0 -0 .125 16 501 1353 0 503 498 504 499 31 502 1421 0 504 50
5 499 0 +10.5 1.347597050800552 1.125 -1 0 -0 .125 16 504 1354 0 506 501 507 502
 31 505 1422 0 507 508 502 0 +10.5 1.90240294919945 1.125 -1 0 -0 .125 16 507 13
55 0 509 504 510 505 31 508 1423 0 510 511 505 0 +10.5 2.08990294919945 .375 -1
 0 -0 .125 16 510 1356 0 512 507 513 508 30 511 1424 0 513 514 508 0 +10.5 2 1.2
5 -0 -1 0 16 513 1357 0 515 510 516 511 30 514 1425 0 516 517 511 0 +10.5 2.25 .
25 -0 -.2425356250363325 .970142500145332 16 516 1358 0 518 513 519 514 30 517 1
426 0 519 520 514 0 +10.5 1.160097050800552 .25 -1 0 -0 16 519 1359 0 521 516 52
2 517 30 520 1427 0 522 523 517 0 +10.5 2.08990294919945 .25 1 0 0 16 522 1360 0
 524 519 525 520 30 523 1428 0 525 526 520 0 +10.5 1 .25 0 1 0 16 525 1361 0 527
 522 528 523 31 526 1429 0 528 529 523 0 -10.75 1.160097050800552 .375 -1 0 -0 .
125 16 528 1362 0 530 525 531 526 31 529 1431 0 531 532 526 0 -10.75 1.902402949
19945 1.125 -1 0 -0 .125 16 531 1364 0 533 528 534 529 31 532 1432 0 534 535 529
 0 -10.75 2.08990294919945 .375 -1 0 -0 .125 16 534 1365 0 536 531 537 532 30 53
5 1433 0 537 538 532 0 +10.75 1 .25 0 1 0 16 537 1366 0 539 534 540 535 30 538 1
434 0 540 541 535 0 +10.75 2 1.25 -0 -1 0 16 540 1367 0 542 537 543 538 30 541 1
435 0 543 544 538 0 +10.75 2.25 .25 -0 -.2425356250363325 .970142500145332 16 54
3 1368 0 545 540 546 541 30 544 1436 0 546 547 541 0 +10.5 1.038829238282386 .40
53169531295455 1 0 0 16 546 1369 0 548 543 549 544 30 547 1437 0 549 550 544 0 +
10.5 1.226329238282386 1.155316953129544 -1 0 -0 16 549 1370 0 551 546 552 547 3
0 550 1438 0 552 553 547 0 +10.5 1.25 1.25 -0 -.2425356250363335 -.9701425001453
32 16 552 1371 0 554 549 555 550 30 553 1439 0 555 556 550 0 +10.75 1.25 1.25 -0
 -.2425356250363335 -.970142500145332 16 555 1372 0 557 552 558 553 31 556 1295
 0 558 559 553 0 +10.75 1.347597050800552 1.125 1 0 0 .125 16 558 1293 0 560 555
 561 556 30 559 895 0 561 562 556 0 +5.375 5 3 1 0 0 16 561 801 0 563 558 564 55
9 30 562 896 0 564 565 559 0 +5.375 0 3 -1 0 -0 16 564 802 0 566 561 567 562 30
 565 897 0 567 568 562 0 +9 5 0 -0 0 1 16 567 803 0 569 564 570 565 30 568 898 0
 570 571 565 0 +9 0 0 0 -0 -1 16 570 804 0 178 567 572 568 30 571 900 0 572 573
 568 0 +9 2.5 3 -0 -1 0 16 572 806 0 574 570 575 571 30 573 908 0 575 576 571 0
 +10.75 2.5 3 0 1 0 16 575 814 0 166 572 577 573 30 576 909 0 577 578 573 0 +5.3
75 5 1.5 -1 0 -0 16 577 815 0 579 575 580 576 30 578 914 0 580 581 576 0 +10.75
 2.5 1.5 -0 -1 0 16 580 820 0 181 577 582 578 30 581 916 0 582 583 578 0 +9 2.5
 1.5 0 1 0 16 582 822 0 584 580 585 581 30 583 739 0 585 586 581 0 +10.75 5 0 0
 0 1 16 585 737 0 201 582 587 583 30 586 726 0 587 588 583 0 +5.375 0 1.5 1 0 0
 16 587 724 0 589 585 590 586 30 588 722 0 590 591 586 0 +10.75 0 0 0 0 1 16 590
 720 0 198 587 592 588 31 591 703 0 592 593 588 0 -10 4.25 1.5 0 -0 -1 .25 16 59
2 700 0 594 590 595 591 31 593 697 0 595 596 591 0 -10 .75 1.5 0 -0 -1 .25 16 59
5 694 0 597 592 598 593 31 596 424 0 598 599 593 0 +4 2.5 2.5 0 0 1 1 16 598 417
 0 600 595 601 596 31 599 402 0 601 602 596 0 +4 2.5 .5 0 0 1 1 16 601 399 0 603
 598 604 599 31 602 394 0 604 605 599 0 +4 2.5 .5 0 0 1 1.25 16 604 385 0 606 60
1 607 602 31 605 366 0 607 608 602 0 +4 2.5 .25 0 0 1 1.25 16 607 363 0 609 604
 610 605 30 608 39 0 611 612 605 0 +5.375 0 0 1 0 0 16 611 9 0 185 613 614 608 3
0 612 40 0 614 615 608 0 +10.75 2.5 0 0 1 0 16 614 3 0 189 611 616 612 30 615 41
 0 617 618 612 0 +5.375 5 0 -1 -0 -0 16 617 13 0 193 619 613 615 30 618 42 0 613
 620 615 0 +0 2.5 0 -0 -1 -0 16 613 11 0 195 617 611 618 30 620 47 0 621 622 618
 0 +10.75 0 0 0 0 1 16 621 15 0 623 624 625 620 30 622 48 0 626 627 620 0 +10.75
 5 0 0 0 1 16 626 17 0 628 625 629 622 30 627 49 0 630 631 622 0 +0 5 0 0 0 1 16
 630 19 0 204 610 632 627 30 631 50 0 633 634 627 0 +0 0 0 0 0 1 16 633 21 0 207
 632 624 631 30 634 56 0 625 635 631 0 +10.75 2.5 5 -0 -1 -0 16 625 22 0 636 621
 626 634 30 635 57 0 610 637 634 0 +5.375 5 5 1 0 0 16 610 25 0 638 607 630 635
 30 637 58 0 632 639 635 0 +0 2.5 5 0 1 0 16 632 28 0 640 630 633 637 30 639 59
 0 624 641 637 0 +5.375 0 5 -1 -0 -0 16 624 31 0 642 633 621 639 31 641 135 0 61
6 643 639 0 +.75 4.25 0 -0 -0 -1 .25 16 616 132 0 644 614 645 641 31 643 160 0 6
29 646 641 0 +.75 4.25 1.6 -0 -0 -1 .25 16 629 152 0 647 626 619 643 31 646 165
 0 645 648 643 0 +10 4.25 0 -0 -0 -1 .25 16 645 162 0 649 616 650 646 31 648 195
 0 650 651 646 0 +10 .75 0 -0 -0 -1 .25 16 650 192 0 652 645 653 648 31 651 225
 0 653 654 648 0 +.75 .75 0 -0 -0 -1 .25 16 653 222 0 655 650 656 651 31 654 250
 0 619 657 651 0 +.75 .75 1.6 -0 -0 -1 .25 16 619 242 0 223 629 617 654 31 657 3
18 0 656 658 654 0 +4 2.5 0 -0 -0 -1 1.5 16 656 315 0 659 653 660 657 31 658 352
 0 660 0 657 0 +4 2.5 .25 0 0 1 1.5 16 660 343 0 661 656 0 658 17 661 662 661 66
1 0 663 660 15 662 335 0 661 664 665 17 663 666 663 663 0 661 660 15 666 329 0 6
63 226 0 14 226 328 0 664 230 667 3 224 -14 664 334 0 0 226 662 3 227 -15 667 36
4 0 609 226 666 17 609 667 609 609 0 668 607 17 668 669 668 668 0 609 607 15 669
 378 0 668 243 0 51 227 347 0 664 0 224 0 +4 2.5 .25 -0 -0 -1 1.5 15 665 336 0 6
59 664 0 17 659 665 659 659 0 670 656 17 670 253 670 670 0 659 656 15 253 317 0
 670 230 671 15 671 224 0 672 230 673 17 672 671 672 672 0 655 653 15 673 194 0
 674 230 675 17 674 673 674 674 0 652 650 15 675 164 0 676 230 677 17 676 675 67
6 676 0 649 645 15 677 134 0 678 230 679 17 678 677 678 678 0 644 616 15 679 5 0
 680 230 0 17 680 679 681 682 183 189 614 17 681 679 683 680 186 185 611 17 682
 679 680 683 187 193 617 17 189 684 628 685 187 680 614 15 684 715 0 181 240 0 1
7 628 684 181 189 170 686 626 17 685 684 189 181 183 623 621 17 181 684 685 628
 179 687 580 17 623 247 688 185 179 685 621 15 247 732 0 169 245 0 17 688 247 16
0 623 176 589 587 17 185 247 623 689 183 681 611 17 689 247 185 642 186 207 633
 17 642 247 689 198 199 690 624 17 207 248 640 195 199 689 633 15 248 26 0 207 2
17 0 17 640 248 691 207 202 692 632 17 195 248 207 691 186 683 613 17 691 248 19
5 640 191 204 630 17 683 679 682 681 191 195 613 17 204 218 638 193 202 691 630
 15 218 749 0 163 213 0 17 638 218 693 204 190 694 610 17 193 218 204 686 191 68
2 617 17 686 218 193 172 187 628 626 17 172 218 686 175 170 579 577 17 175 218 1
72 163 173 569 567 17 579 277 695 687 173 172 577 15 277 776 0 579 273 696 17 69
5 277 589 579 176 584 582 17 687 277 579 589 170 181 580 17 589 277 687 695 179
 688 587 17 584 271 569 178 173 695 582 15 271 794 0 569 267 0 17 569 271 574 58
4 161 175 567 17 178 271 584 574 176 160 570 17 574 271 178 569 158 697 572 17 1
60 247 169 688 158 178 570 17 169 247 198 160 167 566 564 17 198 247 642 169 196
 698 590 17 566 274 697 699 158 169 564 15 274 792 0 563 270 0 17 697 274 563 56
6 161 574 572 17 699 274 566 563 167 166 575 17 563 274 699 697 164 163 561 17 1
66 268 201 698 164 699 575 15 268 754 0 166 264 0 17 201 268 636 166 190 693 585
 17 698 268 166 636 167 198 590 17 636 268 698 201 196 700 625 17 700 244 694 69
0 190 636 625 15 244 32 0 690 220 0 17 694 244 692 700 202 638 610 17 690 244 70
0 692 196 642 624 17 692 244 690 694 199 640 632 17 693 218 163 638 164 201 585
 17 163 218 175 693 161 563 561 15 696 777 0 701 273 702 17 701 696 701 701 0 59
7 595 15 702 778 0 703 273 0 17 703 702 703 703 0 594 592 17 594 237 594 594 0 7
03 592 15 237 701 0 594 234 704 15 704 178 0 649 234 0 17 649 704 649 649 0 676
 645 17 597 235 597 597 0 701 595 15 235 695 0 597 231 705 15 705 208 0 652 231
 0 17 652 705 652 652 0 674 650 17 644 241 644 644 0 678 616 15 241 148 0 644 23
6 706 15 706 149 0 707 236 0 17 707 706 707 707 0 647 629 17 647 221 647 647 0 7
07 629 15 221 143 0 647 214 708 15 708 144 0 209 214 0 17 209 708 209 209 182 0
 0 17 655 232 655 655 0 672 653 15 232 238 0 655 228 709 15 709 239 0 710 228 0
 17 710 709 710 710 0 223 619 17 223 215 223 223 0 710 619 17 606 256 606 606 0
 711 604 15 256 377 0 606 243 669 17 711 712 711 711 0 606 604 15 712 371 0 711
 255 0 17 603 259 603 603 0 713 601 15 259 400 0 603 255 712 17 713 714 713 713
 0 603 601 15 714 411 0 713 261 0 17 600 265 600 600 0 715 598 15 265 410 0 600
 261 714 17 715 262 715 715 0 600 598 15 262 413 0 715 258 0 17 560 298 551 497
 155 136 558 15 298 1326 0 506 294 0 17 551 298 506 560 149 716 549 17 497 298 5
60 506 134 112 495 17 136 717 139 157 134 560 558 15 717 1678 0 43 240 684 17 13
9 717 142 136 137 542 540 17 157 717 136 43 155 557 555 17 43 717 157 55 41 718
 404 17 557 280 40 716 41 157 555 15 280 1338 0 557 276 0 17 40 280 49 557 38 71
9 389 17 716 280 557 720 155 551 549 17 720 280 716 148 149 554 552 17 148 280 7
20 417 146 548 546 17 554 286 127 151 146 720 552 15 286 1334 0 527 282 0 17 127
 286 527 554 125 503 501 17 151 286 554 515 149 506 504 17 515 286 151 115 110 7
21 513 17 506 298 497 551 110 151 504 17 115 286 515 518 113 509 507 17 721 289
 722 112 113 515 513 15 289 1332 0 721 285 0 17 722 289 542 721 137 500 498 17 1
12 289 721 542 110 497 495 17 542 289 112 722 134 139 540 17 500 301 509 533 113
 722 498 15 301 1324 0 509 297 0 17 509 301 491 500 116 115 507 17 533 301 500 4
91 137 142 531 17 491 301 533 509 140 118 489 17 142 717 145 139 140 533 531 17
 145 717 130 142 143 545 543 17 130 717 133 145 128 536 534 17 545 292 118 723 1
40 145 543 15 292 1330 0 724 288 0 17 118 292 724 545 116 491 489 17 723 292 545
 724 143 494 492 17 724 292 723 118 119 518 516 17 494 304 512 536 119 723 492 1
5 304 1322 0 512 300 0 17 512 304 524 494 122 121 510 17 536 304 494 524 143 130
 534 17 524 304 536 512 128 124 522 17 124 283 725 539 122 524 522 15 283 1336 0
 539 279 0 17 725 283 726 124 125 527 525 17 539 283 124 726 128 133 537 17 726
 283 539 725 131 521 519 17 133 717 154 130 131 539 537 17 154 717 727 133 152 5
30 528 17 727 717 61 154 44 417 415 17 530 295 521 548 131 154 528 15 295 1328 0
 503 291 0 17 521 295 503 530 125 726 519 17 548 295 530 503 152 148 546 17 503
 295 548 521 146 127 501 17 61 717 55 727 59 728 396 17 417 280 148 46 152 727 4
15 17 46 280 417 49 44 729 394 17 49 280 46 40 47 730 387 17 729 337 731 728 47
 46 394 15 337 1703 0 731 333 0 17 731 337 732 729 56 411 409 17 728 337 729 732
 44 61 396 17 732 337 728 731 59 408 406 17 408 334 403 414 56 732 406 15 334 17
05 0 403 330 0 17 403 334 400 408 50 58 401 17 414 334 408 400 59 55 412 17 400
 334 414 403 53 52 398 17 55 717 43 61 53 414 412 17 52 340 733 718 50 400 398 1
5 340 1701 0 718 336 0 17 733 340 719 52 38 393 391 17 718 340 52 719 53 43 404
 17 719 340 718 733 41 40 389 17 393 343 58 730 50 733 391 15 343 1697 0 393 339
 0 17 58 343 411 393 56 403 401 17 730 343 393 411 38 49 387 17 411 343 730 58 4
7 731 409 17 527 286 121 127 122 725 525 17 121 286 518 527 119 512 510 17 518 2
86 115 121 116 724 516 17 488 325 479 426 107 88 486 15 325 1516 0 435 321 0 17
 479 325 435 488 101 734 477 17 426 325 488 435 86 64 424 17 88 251 91 109 86 48
8 486 15 251 1810 0 28 240 717 17 91 251 94 88 89 471 469 17 109 251 88 106 107
 485 483 17 106 251 109 85 104 459 457 17 485 307 100 734 104 109 483 15 307 152
8 0 735 303 0 17 100 307 735 485 98 476 474 17 734 307 485 735 107 479 477 17 73
5 307 734 100 101 482 480 17 482 313 79 103 98 735 480 15 313 1524 0 456 309 0 1
7 79 313 456 482 77 432 430 17 103 313 482 444 101 435 433 17 444 313 103 67 62
 736 442 17 435 325 426 479 62 103 433 17 67 313 444 447 65 438 436 17 736 316 7
37 64 65 444 442 15 316 1522 0 736 312 0 17 737 316 471 736 89 429 427 17 64 316
 736 471 62 426 424 17 471 316 64 737 86 91 469 17 429 328 438 462 65 737 427 15
 328 1514 0 438 324 0 17 438 328 420 429 68 67 436 17 462 328 429 420 89 94 460
 17 420 328 462 438 92 70 418 17 94 251 373 91 92 462 460 17 373 251 28 94 14 37
2 374 17 28 251 34 373 26 354 371 17 34 251 37 28 32 362 358 17 354 348 351 350
 14 28 371 17 37 251 97 34 35 380 382 17 362 346 355 381 26 34 358 15 346 1839 0
 360 342 0 17 355 346 360 362 23 350 356 17 360 346 381 355 29 25 357 17 97 251
 82 37 95 376 472 17 82 251 85 97 80 465 463 17 376 319 375 738 35 97 472 17 738
 319 376 739 95 423 421 17 739 319 738 70 71 447 445 17 423 331 441 465 71 738 4
21 15 331 1512 0 441 327 0 17 441 331 453 423 74 73 439 17 465 331 423 453 95 82
 463 17 453 331 465 441 80 76 451 17 76 310 740 468 74 453 451 15 310 1526 0 468
 306 0 17 740 310 741 76 77 456 454 17 468 310 76 741 80 85 466 17 741 310 468 7
40 83 450 448 17 85 251 106 82 83 468 466 17 450 322 432 459 77 741 448 15 322 1
518 0 432 318 0 17 432 322 476 450 98 79 430 17 459 322 450 476 83 106 457 17 47
6 322 459 432 104 100 474 17 456 313 73 79 74 740 454 17 73 313 447 456 71 441 4
39 17 447 313 67 73 68 739 445 17 70 319 739 372 68 420 418 1 0 
