**ABCDEFGHIJKLMNOPQRSTUVWXYZabcdefghijklmnopqrstuvwxyz**************************
**PARASOLID !"#$%&'()*+,-./:;<=>?@[\]^_`{|}~0123456789**************************
**PART1;MC=sun;MC_MODEL=Sun-3;MC_ID=unknown;OS=SunOS;OS_RELEASE=unknown;FRU=sdl_
parasolid_test_sun;APPL=unknown;SITE=sdl-cambridge-u.k.;USER=kramer;FORMAT=text;
GUISE=transmit;KEY=olps_workpiece_out;FILE=olps_workpiece_out.xmt_txt;DATE=29-oc
t-1990;
**PART2;SCH=SCH_210_1012;USFLD_SIZE=0;
**PART3;
**END_OF_HEADER*****************************************************************
T47 : TRANSMIT FILE created by modeller version 22012 SCH_210_10120 12 1 7852 0
 0 0 0 0 1e3 1e-8 2 2 0 0 0 1 3 102 18 2 olps_workpiece_out13 3 6068 0 1 0 4 5 6
 7 8 9 14 4 7550 0 10 0 11 3 7 -16 5 7560 0 12 0 13 8 18 6 7561 0 14 0 15 9 52 7
 7563 0 4 16 0 0 +6.23209323019043 2.5 1.768022670567045 .5 0 .866025403784439 0
 .857167300702112 .515038074910054 31 8 7568 0 5 17 0 0 +6.30720080756888 2.5 1.
898112810619925 .5 0 .866025403784439 .25 29 9 7569 0 6 18 0 6.23209323019043 2.
5 1.768022670567045 29 18 7739 0 15 19 9 5.5 4.5 4.5 18 15 7675 0 20 6 21 18 29
 19 7740 0 21 22 18 5.5 .5 4.5 18 21 7676 0 23 15 24 19 29 22 7742 0 24 25 19 9
 4.5 2.47927405783631 18 24 7678 0 26 21 27 22 29 25 7576 0 27 28 22 9 .5 2.4792
7405783631 18 27 7574 0 29 24 30 25 29 28 6311 0 30 31 25 2 .5 4.5 18 30 6233 0
 32 27 33 28 29 31 6123 0 33 34 28 2 4.5 4.5 18 33 6121 0 35 30 36 31 29 34 5532
 0 36 37 31 5 4.75 1.75 18 36 5454 0 38 33 39 34 29 37 5533 0 39 40 34 5 4.75 3
 18 39 5455 0 41 36 42 37 29 40 5534 0 42 43 37 3 4.75 3 18 42 5456 0 44 39 45 4
0 29 43 5535 0 45 46 40 3 4.75 1.75 18 45 5457 0 47 42 48 43 29 46 5538 0 48 49
 43 2.75 4.75 1.5 18 48 5460 0 50 45 51 46 29 49 5539 0 51 52 46 5.25 4.75 1.5 1
8 51 5461 0 53 48 54 49 29 52 5240 0 54 55 49 2 4.5 1.5 18 54 5082 0 56 51 57 52
 29 55 5252 0 57 58 52 9 4.5 1.5 18 57 5094 0 59 54 60 55 29 58 5255 0 60 61 55
 5.25 4.5 1.5 18 60 5097 0 62 57 63 58 29 61 5257 0 63 64 58 5 4.5 3 18 63 5099
 0 65 60 66 61 29 64 5258 0 66 67 61 5 4.5 1.75 18 66 5100 0 68 63 69 64 29 67 5
259 0 69 70 64 3 4.5 1.75 18 69 5101 0 71 66 72 67 29 70 5260 0 72 73 67 3 4.5 3
 18 72 5102 0 74 69 75 70 29 73 5262 0 75 76 70 2.75 4.5 1.5 18 75 5104 0 77 72
 78 73 29 76 3745 0 78 79 73 6.75 1.40021515475689 2.625 18 78 3737 0 80 75 81 7
6 29 79 3689 0 81 82 76 6.3963700234192 .125 .396523211987738 18 81 3639 0 83 78
 84 79 29 82 3690 0 84 85 79 6.3963700234192 .125 1.103476788012262 18 84 3640 0
 86 81 87 82 29 85 3691 0 87 88 82 6.375 .125 .4481308230375285 18 87 3641 0 89
 84 90 85 29 88 3692 0 90 91 85 6.375 .125 1.051869176962472 18 90 3642 0 92 87
 93 88 29 91 3693 0 93 94 88 6.3963700234192 0 1.103476788012262 18 93 3643 0 95
 90 96 91 29 94 3694 0 96 97 91 6.3963700234192 0 .396523211987738 18 96 3644 0
 98 93 99 94 29 97 3695 0 99 100 94 6.375 0 .4481308230375285 18 99 3645 0 101 9
6 102 97 29 100 3696 0 102 103 97 6.375 0 1.051869176962472 18 102 3646 0 104 99
 105 100 29 103 3453 0 105 106 100 9 .5 1.5 18 105 3353 0 107 102 108 103 29 106
 3454 0 108 109 103 2 .5 1.5 18 108 3354 0 110 105 111 106 29 109 2903 0 111 112
 106 .25 0 1 18 111 2861 0 113 108 114 109 29 112 2904 0 114 115 109 0 0 1 18 11
4 2862 0 116 111 117 112 29 115 2906 0 117 118 112 .25 0 .5 18 117 2864 0 119 11
4 120 115 29 118 2907 0 120 121 115 .25 2.25 1 18 120 2865 0 122 117 123 118 29
 121 2910 0 123 124 118 0 2.25 1 18 123 2868 0 125 120 126 121 29 124 2912 0 126
 127 121 .25 2.25 .5 18 126 2870 0 128 123 129 124 29 127 2913 0 129 130 124 0 2
.25 .5 18 129 2871 0 131 126 132 127 29 130 2788 0 132 133 127 0 0 .5 18 132 278
6 0 134 129 135 130 29 133 2763 0 135 136 130 2.25 3.04109974682634 3.7465984809
58035 18 135 2696 0 137 132 138 133 29 136 2764 0 138 139 133 2.25 1.54109974682
634 3.996598480958035 18 138 2697 0 140 135 141 136 29 139 2765 0 141 142 136 2.
25 1.267880827278686 3.657152330911475 18 141 2698 0 143 138 144 139 29 142 2766
 0 144 145 139 2.25 1.767880827278685 2.407152330911475 18 144 2699 0 146 141 14
7 142 29 145 2767 0 147 148 142 2.25 1.95890025317366 2.253401519041965 18 147 2
700 0 149 144 150 145 29 148 2768 0 150 151 145 2.25 3.458900253173665 2.0034015
19041965 18 150 2701 0 152 147 153 148 29 151 2769 0 153 154 148 2 1.95890025317
366 2.253401519041965 18 153 2702 0 155 150 156 151 29 154 2770 0 156 157 151 2
 3.458900253173665 2.003401519041965 18 156 2703 0 158 153 159 154 29 157 2771 0
 159 160 154 2 3.04109974682634 3.746598480958035 18 159 2704 0 161 156 162 157
 29 160 2772 0 162 163 157 2 1.54109974682634 3.996598480958035 18 162 2705 0 16
4 159 165 160 29 163 2773 0 165 166 160 2 1.267880827278686 3.657152330911475 18
 165 2706 0 167 162 168 163 29 166 2774 0 168 169 163 2 1.767880827278685 2.4071
52330911475 18 168 2707 0 170 165 171 166 29 169 2775 0 171 172 166 2.25 3.73211
9172721315 2.342847669088525 18 171 2708 0 173 168 174 169 29 172 2776 0 174 175
 169 2.25 3.232119172721315 3.592847669088525 18 174 2709 0 176 171 177 172 29 1
75 2777 0 177 178 172 2 3.732119172721315 2.342847669088525 18 177 2710 0 179 17
4 180 175 29 178 2601 0 180 181 175 2 3.232119172721315 3.592847669088525 18 180
 2599 0 182 177 183 178 29 181 2415 0 183 184 178 0 5 1.5 18 183 2329 0 185 180
 186 181 29 184 2200 0 186 187 181 0 0 1.5 18 186 2198 0 188 183 189 184 29 187
 1910 0 189 190 184 10.625 3.84375 .875 18 189 1868 0 191 186 192 187 29 190 191
1 0 192 193 187 10.75 3.84375 .875 18 192 1869 0 194 189 195 190 29 193 1913 0 1
95 196 190 10.625 3.90625 .625 18 195 1871 0 197 192 198 193 29 196 1915 0 198 1
99 193 10.625 4.375 .875 18 198 1873 0 200 195 201 196 29 199 1916 0 201 202 196
 10.75 4.375 .875 18 201 1874 0 203 198 204 199 29 202 1918 0 204 205 199 10.625
 4.375 .625 18 204 1876 0 206 201 207 202 29 205 1921 0 207 208 202 10.75 4.375
 .625 18 207 1879 0 209 204 210 205 29 208 1795 0 210 211 205 10.75 3.90625 .625
 18 210 1793 0 212 207 213 208 29 211 1778 0 213 214 208 10.625 1.15625 .875 18
 213 1736 0 215 210 216 211 29 214 1779 0 216 217 211 10.75 1.15625 .875 18 216
 1737 0 218 213 219 214 29 217 1780 0 219 220 214 10.75 1.09375 .625 18 219 1738
 0 221 216 222 217 29 220 1781 0 222 223 217 10.625 1.09375 .625 18 222 1739 0 2
24 219 225 220 29 223 1782 0 225 226 220 10.625 .625 .875 18 225 1740 0 227 222
 228 223 29 226 1785 0 228 229 223 10.75 .625 .875 18 228 1743 0 230 225 231 226
 29 229 1787 0 231 232 226 10.625 .625 .625 18 231 1745 0 233 228 234 229 29 232
 1671 0 234 235 229 10.75 .625 .625 18 234 1669 0 236 231 237 232 29 235 1638 0
 237 238 232 10.5 3.097597050800555 1.25 18 237 1571 0 239 234 240 235 29 238 16
39 0 240 241 235 10.5 3.65240294919945 1.25 18 240 1572 0 242 237 243 238 29 241
 1640 0 243 244 238 10.5 3.773670761717615 1.155316953129542 18 243 1573 0 245 2
40 246 241 29 244 1641 0 246 247 241 10.5 3.961170761717615 .4053169531295435 18
 246 1574 0 248 243 249 244 29 247 1642 0 249 250 244 10.5 3.83990294919945 .25
 18 249 1575 0 251 246 252 247 29 250 1643 0 252 253 247 10.5 2.91009705080055 .
25 18 252 1576 0 254 249 255 250 29 253 1644 0 255 256 250 10.75 3.8399029491994
5 .25 18 255 1577 0 257 252 258 253 29 256 1645 0 258 259 253 10.75 2.9100970508
0055 .25 18 258 1578 0 260 255 261 256 29 259 1646 0 261 262 256 10.75 3.0975970
50800555 1.25 18 261 1579 0 263 258 264 259 29 262 1647 0 264 265 259 10.75 3.65
240294919945 1.25 18 264 1580 0 266 261 267 262 29 265 1648 0 267 268 262 10.75
 3.773670761717615 1.155316953129544 18 267 1581 0 269 264 270 265 29 268 1649 0
 270 271 265 10.75 3.961170761717615 .4053169531295435 18 270 1582 0 272 267 273
 268 29 271 1650 0 273 274 268 10.5 2.788829238282385 .4053169531295425 18 273 1
583 0 275 270 276 271 29 274 1651 0 276 277 271 10.5 2.976329238282385 1.1553169
53129544 18 276 1584 0 278 273 279 274 29 277 1652 0 279 280 274 10.75 2.7888292
38282385 .4053169531295425 18 279 1585 0 281 276 282 277 29 280 1473 0 282 283 2
77 10.75 2.976329238282385 1.155316953129544 18 282 1471 0 284 279 285 280 29 28
3 1448 0 285 286 280 10.5 1.34759705080055 1.25 18 285 1381 0 287 282 288 283 29
 286 1449 0 288 289 283 10.5 1.90240294919945 1.25 18 288 1382 0 290 285 291 286
 29 289 1450 0 291 292 286 10.5 2.023670761717615 1.155316953129542 18 291 1383
 0 293 288 294 289 29 292 1451 0 294 295 289 10.5 2.21117076171761 .405316953129
5425 18 294 1384 0 296 291 297 292 29 295 1452 0 297 298 292 10.5 2.089902949199
445 .25 18 297 1385 0 299 294 300 295 29 298 1453 0 300 301 295 10.5 1.160097050
80055 .25 18 300 1386 0 302 297 303 298 29 301 1454 0 303 304 298 10.75 2.089902
949199445 .25 18 303 1387 0 305 300 306 301 29 304 1455 0 306 307 301 10.75 1.16
009705080055 .25 18 306 1388 0 308 303 309 304 29 307 1456 0 309 310 304 10.75 1
.34759705080055 1.25 18 309 1389 0 311 306 312 307 29 310 1457 0 312 313 307 10.
75 1.90240294919945 1.25 18 312 1390 0 314 309 315 310 29 313 1458 0 315 316 310
 10.75 2.023670761717615 1.155316953129542 18 315 1391 0 317 312 318 313 29 316
 1459 0 318 319 313 10.75 2.21117076171761 .4053169531295425 18 318 1392 0 320 3
15 321 316 29 319 1460 0 321 322 316 10.5 1.038829238282382 .4053169531295425 18
 321 1393 0 323 318 324 319 29 322 1461 0 324 325 319 10.5 1.226329238282382 1.1
5531695312954 18 324 1394 0 326 321 327 322 29 325 1462 0 327 328 322 10.75 1.03
8829238282382 .4053169531295425 18 327 1395 0 329 324 330 325 29 328 1283 0 330
 331 325 10.75 1.226329238282382 1.15531695312954 18 330 1281 0 332 327 333 328
 29 331 950 0 333 334 328 10.75 5 1.5 18 333 856 0 335 330 336 331 29 334 708 0
 336 337 331 10.75 0 1.5 18 336 706 0 338 333 339 334 29 337 35 0 340 341 334 10
.75 0 0 18 340 7 0 342 343 0 337 29 341 36 0 339 344 337 10.75 5 0 18 339 12 0 3
45 336 346 341 29 344 37 0 346 347 341 0 5 0 18 346 10 0 348 339 343 344 29 347
 38 0 343 0 344 0 0 0 18 343 8 0 349 346 340 347 17 349 350 351 352 343 353 354
 15 350 2816 0 116 355 0 17 351 350 356 349 132 357 358 17 352 350 349 185 346 3
59 360 17 353 361 362 363 346 349 354 16 354 11 0 349 364 365 366 16 364 13 0 34
8 367 354 368 16 365 9 0 342 354 369 370 30 366 42 0 354 371 368 0 +0 2.5 0 0 -1
 0 30 371 47 0 372 373 366 0 +10.75 0 0 0 0 1 30 368 41 0 364 366 374 0 +5.375 5
 0 -1 0 0 30 374 40 0 369 368 370 0 +10.75 2.5 0 0 1 0 16 369 3 0 345 365 375 37
4 30 370 39 0 365 374 376 0 +5.375 0 0 1 0 0 31 376 366 0 377 370 378 0 +4 2.5 .
25 0 0 1 1.25 16 377 363 0 379 380 360 376 31 378 394 0 380 376 381 0 +4 2.5 .5
 0 0 1 1.25 16 380 385 0 382 383 377 378 31 381 402 0 383 378 384 0 +4 2.5 .5 0
 0 1 1 16 383 399 0 385 386 380 381 31 384 697 0 386 381 387 0 -10 .75 1.5 0 0 -
1 .25 16 386 694 0 388 389 383 384 31 387 703 0 389 384 390 0 -10 4.25 1.5 0 0 -
1 .25 16 389 700 0 391 392 386 387 31 390 1295 0 392 387 393 0 +10.75 1.34759705
080055 1.125 1 0 0 .125 16 392 1293 0 394 395 389 390 30 393 1439 0 395 390 396
 0 +10.75 1.25 1.25 0 -.242535625036334 -.970142500145333 16 395 1372 0 397 398
 392 393 30 396 1438 0 398 393 399 0 +10.5 1.25 1.25 0 -.242535625036334 -.97014
2500145333 16 398 1371 0 400 401 395 396 30 399 1437 0 401 396 402 0 +10.5 1.226
329238282382 1.15531695312954 -1 0 0 16 401 1370 0 403 404 398 399 30 402 1436 0
 404 399 405 0 +10.5 1.038829238282382 .4053169531295425 1 0 0 16 404 1369 0 406
 407 401 402 30 405 1435 0 407 402 408 0 +10.75 2.25 .25 -0 -.2425356250363325 .
970142500145332 16 407 1368 0 409 410 404 405 30 408 1434 0 410 405 411 0 +10.75
 2 1.25 0 -1 0 16 410 1367 0 412 413 407 408 30 411 1433 0 413 408 414 0 +10.75
 1 .25 0 1 0 16 413 1366 0 415 416 410 411 31 414 1432 0 416 411 417 0 -10.75 2.
089902949199445 .375 -1 0 0 .125 16 416 1365 0 418 419 413 414 31 417 1431 0 419
 414 420 0 -10.75 1.90240294919945 1.125 -1 0 0 .125 16 419 1364 0 421 422 416 4
17 31 420 1429 0 422 417 423 0 -10.75 1.16009705080055 .375 -1 0 0 .125 16 422 1
362 0 424 425 419 420 30 423 1428 0 425 420 426 0 +10.5 1 .25 0 1 0 16 425 1361
 0 427 428 422 423 30 426 1427 0 428 423 429 0 +10.5 2.089902949199445 .25 1 0 0
 16 428 1360 0 430 431 425 426 30 429 1426 0 431 426 432 0 +10.5 1.1600970508005
5 .25 -1 0 0 16 431 1359 0 433 434 428 429 30 432 1425 0 434 429 435 0 +10.5 2.2
5 .25 -0 -.2425356250363325 .970142500145332 16 434 1358 0 436 437 431 432 30 43
5 1424 0 437 432 438 0 +10.5 2 1.25 0 -1 0 16 437 1357 0 439 440 434 435 31 438
 1423 0 440 435 441 0 +10.5 2.089902949199445 .375 -1 0 0 .125 16 440 1356 0 442
 443 437 438 31 441 1422 0 443 438 444 0 +10.5 1.90240294919945 1.125 -1 0 0 .12
5 16 443 1355 0 445 446 440 441 31 444 1421 0 446 441 447 0 +10.5 1.347597050800
55 1.125 -1 0 0 .125 16 446 1354 0 448 449 443 444 31 447 1420 0 449 444 450 0 +
10.5 1.16009705080055 .375 -1 0 0 .125 16 449 1353 0 451 452 446 447 30 450 1419
 0 452 447 453 0 +10.5 1.90240294919945 1.25 -1 0 0 16 452 1352 0 454 455 449 45
0 30 453 1418 0 455 450 456 0 +10.5 1.34759705080055 1.25 1 0 0 16 455 1351 0 45
7 458 452 453 30 456 1417 0 458 453 459 0 +10.5 2.21117076171761 .40531695312954
25 -1 0 0 16 458 1350 0 460 461 455 456 30 459 1416 0 461 456 462 0 +10.5 2.0236
70761717615 1.155316953129542 1 0 0 16 461 1349 0 463 464 458 459 31 462 1485 0
 464 459 465 0 +10.75 3.097597050800555 1.125 1 0 0 .125 16 464 1483 0 466 467 4
61 462 30 465 1629 0 467 462 468 0 +10.75 3 1.25 0 -.242535625036334 -.970142500
145333 16 467 1562 0 469 470 464 465 30 468 1628 0 470 465 471 0 +10.5 3 1.25 0
 -.242535625036334 -.970142500145333 16 470 1561 0 472 473 467 468 30 471 1627 0
 473 468 474 0 +10.5 2.976329238282385 1.155316953129544 -1 0 0 16 473 1560 0 47
5 476 470 471 30 474 1626 0 476 471 477 0 +10.5 2.788829238282385 .4053169531295
425 1 0 0 16 476 1559 0 478 479 473 474 30 477 1625 0 479 474 480 0 +10.75 4 .25
 -0 -.2425356250363325 .970142500145332 16 479 1558 0 481 482 476 477 30 480 162
4 0 482 477 483 0 +10.75 3.75 1.25 0 -1 0 16 482 1557 0 484 485 479 480 30 483 1
623 0 485 480 486 0 +10.75 2.75 .25 0 1 0 16 485 1556 0 487 488 482 483 31 486 1
622 0 488 483 489 0 -10.75 3.83990294919945 .375 -1 0 0 .125 16 488 1555 0 490 4
91 485 486 31 489 1621 0 491 486 492 0 -10.75 3.65240294919945 1.125 -1 0 0 .125
 16 491 1554 0 493 494 488 489 31 492 1619 0 494 489 495 0 -10.75 2.910097050800
555 .375 -1 0 0 .125 16 494 1552 0 496 497 491 492 30 495 1618 0 497 492 498 0 +
10.5 2.75 .25 0 1 0 16 497 1551 0 499 500 494 495 30 498 1617 0 500 495 501 0 +1
0.5 3.83990294919945 .25 1 0 0 16 500 1550 0 502 503 497 498 30 501 1616 0 503 4
98 504 0 +10.5 2.91009705080055 .25 -1 0 0 16 503 1549 0 505 506 500 501 30 504
 1615 0 506 501 507 0 +10.5 4 .25 -0 -.2425356250363325 .970142500145332 16 506
 1548 0 508 509 503 504 30 507 1614 0 509 504 510 0 +10.5 3.75 1.25 0 -1 0 16 50
9 1547 0 511 512 506 507 31 510 1613 0 512 507 513 0 +10.5 3.83990294919945 .375
 -1 0 0 .125 16 512 1546 0 514 515 509 510 31 513 1612 0 515 510 516 0 +10.5 3.6
5240294919945 1.125 -1 0 0 .125 16 515 1545 0 517 518 512 513 31 516 1611 0 518
 513 519 0 +10.5 3.097597050800555 1.125 -1 0 0 .125 16 518 1544 0 520 521 515 5
16 31 519 1610 0 521 516 522 0 +10.5 2.91009705080055 .375 -1 0 0 .125 16 521 15
43 0 523 524 518 519 30 522 1609 0 524 519 525 0 +10.5 3.65240294919945 1.25 -1
 0 0 16 524 1542 0 526 527 521 522 30 525 1608 0 527 522 528 0 +10.5 3.097597050
800555 1.25 1 0 0 16 527 1541 0 529 530 524 525 30 528 1607 0 530 525 531 0 +10.
5 3.961170761717615 .4053169531295435 -1 0 0 16 530 1540 0 532 533 527 528 30 53
1 1606 0 533 528 534 0 +10.5 3.773670761717615 1.155316953129544 1 0 0 16 533 15
39 0 535 536 530 531 30 534 1668 0 536 531 537 0 +10.75 1.25 1.25 0 -.2425356250
36334 -.970142500145333 16 536 1666 0 538 539 533 534 31 537 1676 0 539 534 540
 0 +10.75 .625 .75 1 0 0 .125 16 539 1674 0 541 542 536 537 30 540 1776 0 542 53
7 543 0 +10.625 1 .625 0 1 0 16 542 1734 0 544 545 539 540 30 543 1775 0 545 540
 546 0 +10.625 .625 .625 -1 0 0 16 545 1733 0 547 548 542 543 30 546 1773 0 548
 543 549 0 +10.75 1 .875 0 1 0 16 548 1731 0 218 550 545 546 31 549 1769 0 550 5
46 551 0 +10.625 .625 .75 -1 0 0 .125 16 550 1727 0 552 553 548 549 30 551 1767
 0 553 549 554 0 +10.625 .625 .875 1 0 0 16 553 1725 0 555 556 550 551 30 554 17
64 0 556 551 557 0 +10.75 1 .625 0 -1 0 16 556 1722 0 236 558 553 554 30 557 176
3 0 558 554 559 0 +10.5 1.09375 .625 1 0 0 16 558 1721 0 221 560 556 557 30 559
 1761 0 560 557 561 0 +10.625 1 .875 0 -1 0 16 560 1719 0 562 563 558 559 30 561
 1760 0 563 559 564 0 +10.5 1.15625 .875 -1 0 0 16 563 1718 0 215 565 560 561 30
 564 1758 0 565 561 566 0 +10.625 1.125 .75 0 -.242535625036334 -.97014250014533
3 16 565 1716 0 224 567 563 564 30 566 1800 0 567 564 568 0 +10.75 4 .25 -0 -.24
25356250363325 .970142500145332 16 567 1798 0 569 570 565 566 30 568 1817 0 570
 566 571 0 +10.5 3.90625 .625 -1 0 0 16 570 1815 0 572 573 567 568 30 571 1909 0
 573 568 574 0 +10.75 4 .625 0 -1 0 16 573 1867 0 212 575 570 571 30 574 1906 0
 575 571 576 0 +10.625 4.375 .625 1 0 0 16 575 1864 0 577 578 573 574 31 576 190
3 0 578 574 579 0 +10.75 4.375 .75 1 0 0 .125 16 578 1861 0 580 581 575 576 30 5
79 1902 0 581 576 582 0 +10.625 4 .875 0 -1 0 16 581 1860 0 583 584 578 579 31 5
82 1900 0 584 579 585 0 +10.625 4.375 .75 -1 0 0 .125 16 584 1858 0 586 587 581
 582 30 585 1898 0 587 582 588 0 +10.625 4.375 .875 -1 0 0 16 587 1856 0 589 590
 584 585 30 588 1897 0 590 585 591 0 +10.625 4 .625 0 1 0 16 590 1855 0 592 593
 587 588 30 591 1894 0 593 588 594 0 +10.75 4 .875 0 1 0 16 593 1852 0 203 595 5
90 591 30 594 1892 0 595 591 596 0 +10.5 3.84375 .875 1 0 0 16 595 1850 0 194 59
7 593 594 30 596 1890 0 597 594 598 0 +10.625 3.875 .75 -0 -.2425356250363325 .9
70142500145332 16 597 1848 0 191 599 595 596 31 598 2189 0 599 596 600 0 -.75 .7
5 1.5 0 0 -1 .25 16 599 2186 0 601 602 597 598 31 600 2195 0 602 598 603 0 -.75
 4.25 1.5 0 0 -1 .25 16 602 2192 0 604 605 599 600 30 603 2221 0 605 600 606 0 +
0 2.5 1.5 0 -1 0 16 605 2219 0 607 608 602 603 31 606 2610 0 608 603 609 0 +2 3
 3.5 1 0 0 .25 16 608 2608 0 161 610 605 606 30 609 2754 0 610 606 611 0 +2 3.17
987021234117 3.7234700700389 0 .3713906763541035 -.928476690885259 16 610 2687 0
 612 613 608 609 30 611 2753 0 613 609 614 0 +2.25 3.17987021234117 3.7234700700
389 0 .3713906763541035 -.928476690885259 16 613 2686 0 615 616 610 611 30 614 2
752 0 616 611 617 0 +2.25 3.232119172721315 3.592847669088525 1 0 0 16 616 2685
 0 618 619 613 614 30 617 2751 0 619 614 620 0 +2.25 3.732119172721315 2.3428476
69088525 -1 0 0 16 619 2684 0 621 622 616 617 30 620 2750 0 622 617 623 0 +2 1.8
20129787658835 2.2765299299611 0 -.3713906763541035 .92847669088526 16 622 2683
 0 624 625 619 620 30 623 2749 0 625 620 626 0 +2 1.102888268719614 4.0696337273
0916 0 .986393923832144 -.1643989873053575 16 625 2682 0 627 628 622 623 30 626
 2748 0 628 623 629 0 +2 3.89711173128039 1.930366272690845 0 -.986393923832144
 .1643989873053575 16 628 2681 0 630 631 625 626 31 629 2747 0 631 626 632 0 -2
 2 2.5 1 0 0 .25 16 631 2680 0 633 634 628 629 31 632 2746 0 634 629 635 0 -2 1.
5 3.75 1 0 0 .25 16 634 2679 0 636 637 631 632 31 635 2744 0 637 632 638 0 -2 3.
5 2.25 1 0 0 .25 16 637 2677 0 639 640 634 635 30 638 2743 0 640 635 641 0 +2.25
 3.89711173128039 1.930366272690845 0 -.986393923832144 .1643989873053575 16 640
 2676 0 642 643 637 638 30 641 2742 0 643 638 644 0 +2.25 1.95890025317366 2.253
401519041965 -1 0 0 16 643 2675 0 645 646 640 641 30 644 2741 0 646 641 647 0 +2
.25 3.458900253173665 2.003401519041965 1 0 0 16 646 2674 0 648 649 643 644 30 6
47 2740 0 649 644 650 0 +2.25 1.820129787658835 2.2765299299611 0 -.371390676354
1035 .92847669088526 16 649 2673 0 651 652 646 647 30 650 2739 0 652 647 653 0 +
2.25 1.102888268719614 4.06963372730916 0 .986393923832144 -.1643989873053575 16
 652 2672 0 654 655 649 650 31 653 2738 0 655 650 656 0 +2.25 2 2.5 1 0 0 .25 16
 655 2671 0 657 658 652 653 31 656 2737 0 658 653 659 0 +2.25 1.5 3.75 1 0 0 .25
 16 658 2670 0 660 661 655 656 31 659 2736 0 661 656 662 0 +2.25 3 3.5 1 0 0 .25
 16 661 2669 0 663 664 658 659 31 662 2735 0 664 659 665 0 +2.25 3.5 2.25 1 0 0
 .25 16 664 2668 0 666 667 661 662 30 665 2734 0 667 662 668 0 +2.25 1.541099746
82634 3.996598480958035 1 0 0 16 667 2667 0 669 670 664 665 30 668 2733 0 670 66
5 671 0 +2.25 3.04109974682634 3.746598480958035 -1 0 0 16 670 2666 0 672 673 66
7 668 30 671 2732 0 673 668 674 0 +2.25 1.767880827278685 2.407152330911475 1 0
 0 16 673 2665 0 675 676 670 671 30 674 2731 0 676 671 677 0 +2.25 1.26788082727
8686 3.657152330911475 -1 0 0 16 676 2664 0 678 679 673 674 30 677 2793 0 679 67
4 680 0 +0 0 0 0 0 1 16 679 2791 0 681 682 676 677 30 680 2810 0 682 677 683 0 +
0 2.5 .5 0 -1 0 16 682 2808 0 684 685 679 680 30 683 2901 0 685 680 686 0 +.25 1
 .5 0 -1 0 16 685 2859 0 687 688 682 683 30 686 2900 0 688 683 689 0 +.25 2.25 .
5 1 0 0 16 688 2858 0 690 691 685 686 30 689 2898 0 691 686 692 0 +0 1 1 0 -1 0
 16 691 2856 0 116 693 688 689 31 692 2897 0 693 689 694 0 +0 2.25 .75 -1 0 0 .2
5 16 693 2855 0 695 696 691 692 31 694 2894 0 696 692 697 0 +.25 2.25 .75 1 0 0
 .25 16 696 2852 0 698 699 693 694 30 697 2892 0 699 694 700 0 +.25 2.25 1 -1 0
 0 16 699 2850 0 701 702 696 697 30 700 2888 0 702 697 703 0 +5.375 0 .5 1 0 0 1
6 702 2846 0 704 705 699 700 30 703 2885 0 705 700 706 0 +.25 1 1 0 1 0 16 705 2
843 0 707 708 702 703 30 706 2884 0 708 703 709 0 +.25 0 0 0 0 1 16 708 2842 0 7
10 711 705 706 30 709 2883 0 711 706 712 0 +5.375 0 1 -1 0 0 16 711 2841 0 713 7
14 708 709 30 712 3187 0 714 709 715 0 +5.375 0 1.5 1 0 0 16 714 3185 0 716 717
 711 712 30 715 3204 0 717 712 718 0 +9 2.5 1.5 0 1 0 16 717 3202 0 719 720 714
 715 30 718 3415 0 720 715 721 0 +5.5 .5 1.5 1 0 0 16 720 3315 0 722 723 717 718
 30 721 3400 0 723 718 724 0 +2 .5 3.25 0 0 1 16 723 3300 0 725 726 720 721 31 7
24 3679 0 726 721 727 0 -6.448 0 1.051869176962472 0 1 0 .073 16 726 3629 0 728
 729 723 724 31 727 3677 0 729 724 730 0 -6.448 0 .4481308230375285 0 1 0 .073 1
6 729 3627 0 731 732 726 727 30 730 3676 0 732 727 733 0 +6.375 .125 1.082097503
32497 0 0 -1 16 732 3626 0 734 735 729 730 31 733 3675 0 735 730 736 0 +6.448 .1
25 1.051869176962472 0 1 0 .073 16 735 3625 0 737 738 732 733 31 736 3674 0 738
 733 739 0 +6.75 .125 .75 0 1 0 .5 16 738 3624 0 740 741 735 736 31 739 3673 0 7
41 736 742 0 +6.448 .125 .4481308230375285 0 1 0 .073 16 741 3623 0 743 744 738
 739 30 742 3672 0 744 739 745 0 +6.375 .125 1.051869176962472 0 1 0 16 744 3622
 0 746 747 741 742 30 745 3671 0 747 742 748 0 +6.375 .125 .4481308230375285 0 -
1 0 16 747 3621 0 749 750 744 745 30 748 3670 0 750 745 751 0 +6.3963700234192 .
125 1.103476788012262 0 -1 0 16 750 3620 0 752 753 747 748 30 751 3669 0 753 748
 754 0 +6.3963700234192 .125 .396523211987738 0 1 0 16 753 3619 0 755 756 750 75
1 31 754 3719 0 756 751 757 0 +6.75 .5 2.625 0 1 0 .25 16 756 3716 0 758 759 753
 754 31 757 3744 0 759 754 760 0 +6.75 1.25 2.625 0 -1 0 .25 16 759 3736 0 761 7
62 756 757 30 760 4803 0 762 757 763 0 +10.75 2.5 1.5 0 -1 0 16 762 4801 0 338 7
64 759 760 30 763 4815 0 764 760 765 0 +5.375 5 1.5 -1 0 0 16 764 4813 0 766 767
 762 763 30 765 4877 0 767 763 768 0 +2 2.5 1.5 0 -1 0 16 767 4875 0 769 770 764
 765 30 768 5209 0 770 765 771 0 +3 4.5 1.5 -1 0 0 16 770 5051 0 772 773 767 768
 30 771 5208 0 773 768 774 0 +3 4.5 4 0 0 -1 16 773 5050 0 775 776 770 771 30 77
4 5207 0 776 771 777 0 +5 4.5 1.5 0 0 1 16 776 5049 0 778 779 773 774 31 777 520
3 0 779 774 780 0 +5.25 4.5 1.75 0 -1 0 .25 16 779 5045 0 781 782 776 777 31 780
 5202 0 782 777 783 0 +2.75 4.5 1.75 0 -1 0 .25 16 782 5044 0 784 785 779 780 30
 783 5196 0 785 780 786 0 +3 4.5 1.75 0 1 0 16 785 5038 0 787 788 782 783 30 786
 5194 0 788 783 789 0 +5 4.5 3 0 1 0 16 788 5036 0 790 791 785 786 30 789 5192 0
 791 786 792 0 +5.25 4.5 1.5 0 1 0 16 791 5034 0 793 794 788 789 31 792 5189 0 7
94 789 795 0 -4 4.5 3 0 -1 0 1 16 794 5031 0 796 797 791 792 30 795 5185 0 797 7
92 798 0 +11.15 4.5 1.5 -1 0 0 16 797 5027 0 799 800 794 795 30 798 5164 0 800 7
95 801 0 +9 4.5 2.25 0 0 1 16 800 5006 0 802 803 797 798 30 801 5336 0 803 798 8
04 0 +2.75 4.5 1.5 0 -1 0 16 803 5334 0 805 806 800 801 30 804 5358 0 806 801 80
7 0 +5 4.5 1.75 0 -1 0 16 806 5356 0 808 809 803 804 30 807 5367 0 809 804 810 0
 +3 4.5 3 0 -1 0 16 809 5365 0 811 812 806 807 30 810 5505 0 812 807 813 0 +4 4.
75 1.5 -1 0 0 16 812 5427 0 814 815 809 810 31 813 5498 0 815 810 816 0 -2.75 4.
75 1.75 0 -1 0 .25 16 815 5420 0 50 817 812 813 30 816 5497 0 817 813 818 0 +3 4
.75 2.75 0 0 -1 16 817 5419 0 47 819 815 816 31 818 5496 0 819 816 820 0 -4 4.75
 3 0 -1 0 1 16 819 5418 0 821 822 817 818 30 820 5495 0 822 818 823 0 +5 4.75 2.
75 0 0 1 16 822 5417 0 41 824 819 820 31 823 5494 0 824 820 825 0 -5.25 4.75 1.7
5 0 -1 0 .25 16 824 5416 0 38 826 822 823 30 825 6124 0 826 823 827 0 +2 4.5 3.2
5 0 0 -1 16 826 6122 0 56 828 824 825 30 827 6149 0 828 825 829 0 +11.15 4.5 4.5
 1 0 0 16 828 6147 0 830 831 826 827 30 829 6277 0 831 827 832 0 +2 2.5 4.5 0 1
 0 16 831 6199 0 35 833 828 829 31 832 6349 0 833 829 834 0 +4 2.5 4.5 0 0 -1 1.
25 16 833 6346 0 835 836 831 832 31 834 6377 0 836 832 837 0 +4 2.5 4 0 0 -1 1.2
5 16 836 6368 0 838 839 833 834 31 837 6390 0 839 834 840 0 +4 2.5 4 0 0 -1 1 16
 839 6387 0 841 842 836 837 31 840 6857 0 842 837 843 0 +4.8125 3.90729128114971
 4.5 0 0 -1 .1875 16 842 6854 0 844 845 839 840 31 843 6880 0 845 840 846 0 +4.8
125 3.90729128114971 3.9 0 0 1 .1875 16 845 6873 0 847 848 842 843 31 846 6884 0
 848 843 849 0 +4 4.125 4.5 0 0 -1 .1875 16 848 6881 0 850 851 845 846 31 849 69
07 0 851 846 852 0 +4 4.125 3.9 0 0 1 .1875 16 851 6900 0 853 854 848 849 31 852
 6911 0 854 849 855 0 +3.1875 3.907291281149715 4.5 0 0 -1 .1875 16 854 6908 0 8
56 857 851 852 31 855 6934 0 857 852 858 0 +3.1875 3.907291281149715 3.9 0 0 1 .
1875 16 857 6927 0 859 860 854 855 31 858 6938 0 860 855 861 0 +2.59270871885029
 3.3125 4.5 0 0 -1 .1875 16 860 6935 0 862 863 857 858 31 861 6961 0 863 858 864
 0 +2.59270871885029 3.3125 3.9 0 0 1 .1875 16 863 6954 0 865 866 860 861 31 864
 6965 0 866 861 867 0 +2.375 2.5 4.5 0 0 -1 .1875 16 866 6962 0 868 869 863 864
 31 867 6988 0 869 864 870 0 +2.375 2.5 3.9 0 0 1 .1875 16 869 6981 0 871 872 86
6 867 31 870 6992 0 872 867 873 0 +2.592708718850285 1.6875 4.5 0 0 -1 .1875 16
 872 6989 0 874 875 869 870 31 873 7015 0 875 870 876 0 +2.592708718850285 1.687
5 3.9 0 0 1 .1875 16 875 7008 0 877 878 872 873 31 876 7019 0 878 873 879 0 +3.1
875 1.092708718850288 4.5 0 0 -1 .1875 16 878 7016 0 880 881 875 876 31 879 7042
 0 881 876 882 0 +3.1875 1.092708718850288 3.9 0 0 1 .1875 16 881 7035 0 883 884
 878 879 31 882 7046 0 884 879 885 0 +4 .875 4.5 0 0 -1 .1875 16 884 7043 0 886
 887 881 882 31 885 7069 0 887 882 888 0 +4 .875 3.9 0 0 1 .1875 16 887 7062 0 8
89 890 884 885 31 888 7073 0 890 885 891 0 +4.8125 1.092708718850286 4.5 0 0 -1
 .1875 16 890 7070 0 892 893 887 888 31 891 7096 0 893 888 894 0 +4.8125 1.09270
8718850286 3.9 0 0 1 .1875 16 893 7089 0 895 896 890 891 30 894 7577 0 896 891 8
97 0 +9 .5 2.25 0 0 -1 16 896 7575 0 107 898 893 894 30 897 7586 0 898 894 899 0
 +5.5 .5 4.5 -1 0 0 16 898 7584 0 32 900 896 897 30 899 7589 0 900 897 901 0 +6.
14518892581941 .5 4.1275 -.866025403784439 0 .5 16 900 7587 0 23 902 898 899 31
 901 7714 0 902 899 903 0 +7.73205080756888 2.5 4.36602540378444 -.5 0 -.8660254
03784439 1 16 902 7650 0 904 905 900 901 31 903 7713 0 905 901 906 0 +7.23205080
756888 2.5 3.5 -.5 0 -.866025403784439 1 16 905 7649 0 907 908 902 903 30 906 77
12 0 908 903 909 0 +9 2.5 2.47927405783631 0 -1 0 16 908 7648 0 29 910 905 906 3
0 909 7710 0 910 906 911 0 +9.47769237886467 4.5 2.20347823430896 .8660254037844
39 0 -.5 16 910 7646 0 26 912 908 909 30 911 7709 0 912 909 913 0 +5.5 2.25 4.5
 0 1 0 16 912 7645 0 20 914 910 911 31 913 7814 0 914 911 915 0 +7.7320508075688
8 2.5 4.36602540378444 -.5 0 -.866025403784439 .5 16 914 7811 0 916 917 912 913
 31 915 7849 0 917 913 17 0 +6.73205080756888 2.5 2.63397459621556 .5 0 .8660254
03784439 .5 16 917 7840 0 918 13 914 915 31 17 7820 0 13 915 8 0 -6.732050807568
88 2.5 2.63397459621556 -.5 0 -.866025403784439 .25 16 13 7817 0 919 5 917 17 17
 919 920 919 919 0 921 13 15 920 7818 0 919 10 922 17 921 923 921 921 0 919 13 1
5 923 7829 0 921 924 0 14 924 7827 0 925 10 926 3 927 -14 925 7834 0 928 924 929
 3 930 -14 10 7547 0 924 4 920 3 16 -15 926 7828 0 918 924 923 50 927 7842 0 924
 930 16 0 +6.73205080756888 2.5 2.63397459621556 -.5 0 -.866025403784439 51 930
 7843 0 925 931 927 0 +6.73205080756888 2.5 2.63397459621556 .5 0 .8660254037844
39 .5 51 16 7562 0 10 927 7 0 +6.30720080756888 2.5 1.898112810619925 .5 0 .8660
25403784439 .25 50 931 7797 0 928 932 930 0 +7.73205080756888 2.5 4.366025403784
44 -.5 0 -.866025403784439 14 928 7776 0 933 925 934 3 931 -50 932 7696 0 933 93
5 931 0 +9.52701812759764 -.65 2.175 -.5 0 -.866025403784439 14 933 7616 0 936 9
28 937 3 932 -51 935 7697 0 936 938 932 0 +7.23205080756888 2.5 3.5 .5 0 .866025
403784439 1 14 936 7619 0 939 933 940 3 935 +51 938 7091 0 941 942 935 0 +4.8125
 1.092708718850286 3.9 0 0 1 .1875 14 941 7084 0 943 939 944 3 938 -50 942 7093
 0 939 945 938 0 +4.8125 1.092708718850286 3.9 0 0 -1 14 939 7082 0 941 936 946
 3 942 -51 945 7064 0 947 948 942 0 +4 .875 3.9 0 0 1 .1875 14 947 7057 0 949 94
3 950 3 945 -50 948 7066 0 943 951 945 0 +4 .875 3.9 0 0 -1 14 943 7055 0 947 94
1 952 3 948 -51 951 7037 0 953 954 948 0 +3.1875 1.092708718850288 3.9 0 0 1 .18
75 14 953 7030 0 955 949 956 3 951 -50 954 7039 0 949 957 951 0 +3.1875 1.092708
718850288 3.9 0 0 -1 14 949 7028 0 953 947 958 3 954 -51 957 7010 0 959 960 954
 0 +2.592708718850285 1.6875 3.9 0 0 1 .1875 14 959 7003 0 961 955 962 3 957 -50
 960 7012 0 955 963 957 0 +2.592708718850285 1.6875 3.9 0 0 -1 14 955 7001 0 959
 953 964 3 960 -51 963 6983 0 965 966 960 0 +2.375 2.5 3.9 0 0 1 .1875 14 965 69
76 0 967 961 968 3 963 -50 966 6985 0 961 969 963 0 +2.375 2.5 3.9 0 0 -1 14 961
 6974 0 965 959 970 3 966 -51 969 6956 0 971 972 966 0 +2.59270871885029 3.3125
 3.9 0 0 1 .1875 14 971 6949 0 973 967 974 3 969 -50 972 6958 0 967 975 969 0 +2
.59270871885029 3.3125 3.9 0 0 -1 14 967 6947 0 971 965 976 3 972 -51 975 6929 0
 977 978 972 0 +3.1875 3.907291281149715 3.9 0 0 1 .1875 14 977 6922 0 979 973 9
80 3 975 -50 978 6931 0 973 981 975 0 +3.1875 3.907291281149715 3.9 0 0 -1 14 97
3 6920 0 977 971 982 3 978 -51 981 6902 0 983 984 978 0 +4 4.125 3.9 0 0 1 .1875
 14 983 6895 0 985 979 986 3 981 -50 984 6904 0 979 987 981 0 +4 4.125 3.9 0 0 -
1 14 979 6893 0 983 977 988 3 984 -51 987 6875 0 989 990 984 0 +4.8125 3.9072912
8114971 3.9 0 0 1 .1875 14 989 6868 0 991 985 992 3 987 -50 990 6877 0 985 993 9
87 0 +4.8125 3.90729128114971 3.9 0 0 -1 14 985 6866 0 989 983 994 3 990 -50 993
 6370 0 991 995 990 0 +4 2.5 4 0 0 -1 14 991 6353 0 996 989 997 3 993 -51 995 63
72 0 996 998 993 0 +4 2.5 4 0 0 1 1.25 14 996 6359 0 999 991 1000 3 995 -50 998
 6255 0 999 1001 995 0 +4.25 2.25 4.5 0 0 -1 14 999 6164 0 1002 996 1003 3 998 -
50 1001 5480 0 1002 1004 998 0 +4 4.75 2.8 0 -1 0 14 1002 5388 0 1005 999 1006 3
 1001 -51 1004 5125 0 1005 1007 1001 0 +4 4.5 3 0 -1 0 1 14 1005 4940 0 1008 100
2 1009 3 1004 +50 1007 5126 0 1008 1010 1004 0 +5 4.5 2.75 -1 0 0 14 1008 4942 0
 1011 1005 1012 3 1007 -50 1010 5127 0 1011 1013 1007 0 +3 4.5 2.75 1 0 0 14 101
1 4944 0 1014 1008 1015 3 1010 -51 1013 5128 0 1014 1016 1010 0 +5.25 4.5 1.75 0
 1 0 .25 14 1014 4946 0 1017 1011 1018 3 1013 -51 1016 5129 0 1017 1019 1013 0 +
2.75 4.5 1.75 0 1 0 .25 14 1017 4948 0 1020 1014 1021 3 1016 -50 1019 5131 0 102
0 1022 1016 0 +11.15 4.5 5.1 0 -1 0 14 1020 4952 0 1023 1017 1024 3 1019 -52 102
2 3739 0 1023 1025 1019 0 +6.75 1.40021515475689 2.625 0 -1 0 0 .857167300702112
 .515038074910054 14 1023 3726 0 1026 1020 1027 3 1022 -51 1025 3740 0 1026 1028
 1022 0 +6.75 1.25 2.625 0 -1 0 .25 14 1026 3731 0 1029 1023 1030 3 1025 -51 102
8 3651 0 1029 1031 1025 0 +6.448 .125 .4481308230375285 0 1 0 .073 14 1029 3595
 0 1032 1026 1033 3 1028 -51 1031 3652 0 1032 1034 1028 0 +6.448 .125 1.05186917
6962472 0 -1 0 .073 14 1032 3597 0 1035 1029 1036 3 1031 -50 1034 3654 0 1035 10
37 1031 0 +6.375 .125 .75 -1 0 0 14 1035 3601 0 1038 1032 1039 3 1034 -50 1037 3
655 0 1038 1040 1034 0 +6.375 .125 1.08209750332497 0 1 0 14 1038 3603 0 1041 10
35 1042 3 1037 -50 1040 3376 0 1041 1043 1037 0 +5.5 .5 3.01 0 1 0 14 1041 3261
 0 1044 1038 1045 3 1040 -51 1043 2877 0 1044 1046 1040 0 +.25 2.25 .75 -1 0 0 .
25 14 1044 2829 0 1047 1041 1048 3 1043 -50 1046 2879 0 1047 1049 1043 0 +.25 1
 1 0 0 1 14 1047 2833 0 1050 1044 1051 3 1046 -50 1049 2880 0 1050 1052 1046 0 +
.25 1 .75 1 0 0 14 1050 2835 0 1053 1047 1054 3 1049 -50 1052 2882 0 1053 1055 1
049 0 +.25 1 .5 0 0 -1 14 1053 2839 0 1056 1050 1057 3 1052 -51 1055 2713 0 1056
 1058 1052 0 +2.25 2 2.5 -1 0 0 .25 14 1056 2636 0 1059 1053 1060 3 1055 -51 105
8 2714 0 1059 1061 1055 0 +2.25 1.5 3.75 -1 0 0 .25 14 1059 2638 0 1062 1056 106
3 3 1058 -51 1061 2715 0 1062 1064 1058 0 +2.25 3 3.5 -1 0 0 .25 14 1062 2640 0
 1065 1059 1066 3 1061 -51 1064 2716 0 1065 1067 1061 0 +2.25 3.5 2.25 -1 0 0 .2
5 14 1065 2642 0 1068 1062 1069 3 1064 -50 1067 2717 0 1068 1070 1064 0 +2.25 1.
461509028189224 3.17308182863513 0 -.92847669088526 -.3713906763541035 14 1068 2
644 0 1071 1065 1072 3 1067 -50 1070 2718 0 1071 1073 1067 0 +2.25 2.14137924053
039 3.89655189867403 0 .164398987305358 .986393923832144 14 1071 2646 0 1074 106
8 1075 3 1070 -50 1073 2719 0 1074 1076 1070 0 +2.25 1.820129787658835 2.2765299
299611 1 0 0 14 1074 2648 0 1077 1071 1078 3 1073 -50 1076 2720 0 1077 1079 1073
 0 +2.25 2.85862075946961 2.10344810132597 0 -.1643989873053575 -.98639392383214
4 14 1077 2650 0 1080 1074 1081 3 1076 -50 1079 2721 0 1080 1082 1076 0 +2.25 3.
53849097181078 2.82691817136487 0 .92847669088526 .371390676354104 14 1080 2652
 0 1083 1077 1084 3 1079 -50 1082 2363 0 1083 1085 1079 0 +2 2.5 3.25 1 0 0 14 1
083 2273 0 1086 1080 1087 3 1082 -50 1085 1880 0 1086 1088 1082 0 +10.625 4 .75
 -1 0 0 14 1086 1828 0 1089 1083 1090 3 1085 -50 1088 1882 0 1089 1091 1085 0 +1
0.625 4 .875 0 0 1 14 1089 1832 0 1092 1086 1093 3 1088 -50 1091 1883 0 1092 109
4 1088 0 +10.625 4 .625 0 0 -1 14 1092 1834 0 1095 1089 1096 3 1091 -51 1094 188
5 0 1095 1097 1091 0 +10.625 4.375 .75 1 0 0 .125 14 1095 1838 0 1098 1092 1099
 3 1094 -50 1097 1748 0 1098 1100 1094 0 +10.625 1 .75 -1 0 0 14 1098 1696 0 110
1 1095 1102 3 1097 -50 1100 1750 0 1101 1103 1097 0 +10.625 1 .875 0 0 1 14 1101
 1700 0 1104 1098 1105 3 1100 -50 1103 1751 0 1104 1106 1100 0 +10.625 1 .625 0
 0 -1 14 1104 1702 0 1107 1101 1108 3 1103 -51 1106 1752 0 1107 1109 1103 0 +10.
625 .625 .75 1 0 0 .125 14 1107 1704 0 1110 1104 1111 3 1106 -51 1109 1588 0 111
0 1112 1106 0 +10.5 3.83990294919945 .375 1 0 0 .125 14 1110 1511 0 1113 1107 11
14 3 1109 -51 1112 1589 0 1113 1115 1109 0 +10.5 3.65240294919945 1.125 1 0 0 .1
25 14 1113 1513 0 1116 1110 1117 3 1112 -51 1115 1590 0 1116 1118 1112 0 +10.5 3
.097597050800555 1.125 1 0 0 .125 14 1116 1515 0 1119 1113 1120 3 1115 -51 1118
 1591 0 1119 1121 1115 0 +10.5 2.910097050800555 .375 1 0 0 .125 14 1119 1517 0
 1122 1116 1123 3 1118 -50 1121 1592 0 1122 1124 1118 0 +10.5 3.875 .75 0 .97014
2500145333 .2425356250363335 14 1122 1519 0 1125 1119 1126 3 1121 -50 1124 1593
 0 1125 1127 1121 0 +10.5 3.375 1.25 0 0 1 14 1125 1521 0 1128 1122 1129 3 1124
 -50 1127 1594 0 1128 1130 1124 0 +10.5 4 .25 -1 0 0 14 1128 1523 0 1131 1125 11
32 3 1127 -50 1130 1595 0 1131 1133 1127 0 +10.5 3.375 .25 0 0 -1 14 1131 1525 0
 1134 1128 1135 3 1130 -50 1133 1596 0 1134 1136 1130 0 +10.5 2.875 .75 -0 -.970
142500145332 .242535625036333 14 1134 1527 0 1137 1131 1138 3 1133 -51 1136 1398
 0 1137 1139 1133 0 +10.5 2.089902949199445 .375 1 0 0 .125 14 1137 1321 0 1140
 1134 1141 3 1136 -51 1139 1399 0 1140 1142 1136 0 +10.5 1.90240294919945 1.125
 1 0 0 .125 14 1140 1323 0 1143 1137 1144 3 1139 -51 1142 1400 0 1143 1145 1139
 0 +10.5 1.34759705080055 1.125 1 0 0 .125 14 1143 1325 0 1146 1140 1147 3 1142
 -51 1145 1401 0 1146 1148 1142 0 +10.5 1.16009705080055 .375 1 0 0 .125 14 1146
 1327 0 1149 1143 1150 3 1145 -50 1148 1402 0 1149 1151 1145 0 +10.5 2.125 .75 0
 .970142500145333 .2425356250363335 14 1149 1329 0 1152 1146 1153 3 1148 -50 115
1 1403 0 1152 1154 1148 0 +10.5 1.625 1.25 0 0 1 14 1152 1331 0 1155 1149 1156 3
 1151 -50 1154 1404 0 1155 1157 1151 0 +10.5 2.25 .25 -1 0 0 14 1155 1333 0 1158
 1152 1159 3 1154 -50 1157 1405 0 1158 1160 1154 0 +10.5 1.625 .25 0 0 -1 14 115
8 1335 0 1161 1155 1162 3 1157 -50 1160 1406 0 1161 1163 1157 0 +10.5 1.125 .75
 -0 -.970142500145332 .242535625036333 14 1161 1337 0 1164 1158 1165 3 1160 -50
 1163 883 0 1164 1166 1160 0 +9 2.5 1.5 0 0 -1 14 1164 775 0 1167 1161 1168 3 11
63 -50 1166 891 0 1167 1169 1163 0 +9 2.5 2.25 -1 0 0 14 1167 793 0 1170 1164 11
71 3 1166 -51 1169 420 0 1170 1172 1166 0 +4 2.5 2.5 0 0 -1 1 14 1170 409 0 1173
 1167 1174 3 1169 -50 1172 387 0 1173 1175 1169 0 +4 2.5 .5 0 0 1 14 1173 370 0
 1176 1170 1177 3 1172 -51 1175 389 0 1176 1178 1172 0 +4 2.5 .5 0 0 -1 1.25 14
 1176 376 0 1179 1173 1180 3 1175 -50 1178 34 0 1181 1182 1175 0 +5.375 2.5 0 0
 0 -1 14 1181 6 0 1183 1184 1185 3 1178 +50 1182 43 0 1186 1187 1178 0 +10.75 2.
5 0 1 0 0 14 1186 1 0 1188 1189 1190 3 1182 +50 1187 44 0 1179 1191 1182 0 +5.37
5 5 0 0 1 0 14 1179 24 0 355 1176 1192 3 1187 +50 1191 45 0 355 1193 1187 0 +0 2
.5 0 -1 0 0 14 355 27 0 1189 1179 350 3 1191 +50 1193 46 0 1189 1194 1191 0 +5.3
75 0 0 0 -1 0 14 1189 30 0 1186 355 1195 3 1193 +51 1194 156 0 1188 1196 1193 0
 +.75 4.25 1.6 0 0 -1 .25 14 1188 147 0 1197 1186 1198 3 1194 -51 1196 186 0 119
7 1199 1194 0 +10 4.25 1.6 0 0 -1 .25 14 1197 177 0 1200 1188 1201 3 1196 -51 11
99 216 0 1200 1202 1196 0 +10 .75 1.6 0 0 -1 .25 14 1200 207 0 1184 1197 1203 3
 1199 -51 1202 246 0 1184 1204 1199 0 +.75 .75 1.6 0 0 -1 .25 14 1184 237 0 1181
 1200 1205 3 1202 -50 1204 345 0 1183 1206 1202 0 +4 2.5 .25 0 0 1 14 1183 328 0
 1207 1181 1208 3 1204 -51 1206 347 0 1207 1209 1204 0 +4 2.5 .25 0 0 -1 1.5 14
 1207 334 0 1210 1183 1211 3 1206 -51 1209 3535 0 1210 0 1206 0 +6.75 .115 .75 0
 -1 0 .5 14 1210 3505 0 0 1207 1212 3 1209 -15 1212 3746 0 1213 1210 0 17 1213 1
212 1214 1215 93 98 1216 17 1214 1212 740 1213 84 752 750 17 1215 1212 1213 740
 96 755 753 17 98 1195 101 95 96 1213 1216 16 1216 3522 0 1213 1217 1218 1219 16
 1217 343 0 1220 1221 1216 1222 16 1218 3524 0 1223 1216 0 1224 31 1219 3548 0 1
216 1224 1222 0 -6.75 0 .75 0 1 0 .5 30 1224 3550 0 1218 0 1219 0 +6.375 0 1.085
500213499822 0 0 -1 31 1222 352 0 1217 1219 1225 0 +4 2.5 .25 0 0 1 1.5 31 1225
 318 0 1221 1222 1226 0 +4 2.5 0 0 0 -1 1.5 16 1221 315 0 1227 1228 1217 1225 31
 1226 225 0 1228 1225 1229 0 +.75 .75 0 0 0 -1 .25 16 1228 222 0 1230 1231 1221
 1226 31 1229 195 0 1231 1226 1232 0 +10 .75 0 0 0 -1 .25 16 1231 192 0 1233 123
4 1228 1229 31 1232 165 0 1234 1229 1235 0 +10 4.25 0 0 0 -1 .25 16 1234 162 0 1
236 375 1231 1232 31 1235 135 0 375 1232 1237 0 +.75 4.25 0 0 0 -1 .25 16 375 13
2 0 1238 369 1234 1235 30 1237 50 0 358 1235 1239 0 +0 0 0 0 0 1 16 358 21 0 351
 360 372 1237 30 1239 49 0 360 1237 373 0 +0 5 0 0 0 1 16 360 19 0 359 377 358 1
239 30 373 48 0 367 1239 371 0 +10.75 5 0 0 0 1 16 367 17 0 1240 372 364 373 17
 1240 1241 338 345 333 1242 367 16 372 15 0 1243 358 367 371 17 1243 1244 188 34
2 336 1245 372 15 1244 3193 0 188 1189 0 17 188 1244 1246 1243 186 716 714 17 34
2 1244 1243 357 340 363 365 17 1245 1241 345 338 340 1243 372 15 1241 715 0 338
 1186 0 17 345 1241 1240 1245 339 1247 369 17 338 1241 1245 1240 336 1248 762 17
 1248 1168 766 716 333 338 762 15 1168 5572 0 766 1164 1249 17 766 1168 607 1248
 183 335 764 17 716 1168 1248 607 336 188 714 17 607 1168 716 766 186 185 605 17
 185 350 352 681 183 607 605 17 681 350 185 116 186 1246 679 17 116 350 681 125
 114 1250 691 17 1246 1244 113 188 114 681 679 17 113 1244 119 1246 111 713 711
 17 119 1244 134 113 117 710 708 17 713 1051 1250 1251 114 113 711 15 1051 2834
 0 713 1047 0 17 1250 1051 122 713 123 116 691 17 1251 1051 713 122 111 707 705
 17 122 1051 1251 1250 120 701 699 17 707 1054 128 710 120 1251 705 15 1054 2836
 0 710 1050 0 17 128 1054 687 707 126 698 696 17 710 1054 707 687 111 119 708 17
 687 1054 710 128 117 1252 685 17 1252 1057 131 704 126 687 685 15 1057 2840 0 7
04 1053 0 17 131 1057 684 1252 129 690 688 17 704 1057 1252 684 117 134 702 17 6
84 1057 704 131 132 356 682 17 134 1244 357 119 132 704 702 17 357 1244 342 134
 343 351 358 17 356 350 125 351 129 684 682 17 125 350 116 356 123 695 693 17 69
5 1048 690 701 129 125 693 15 1048 2830 0 698 1044 0 17 690 1048 698 695 126 131
 688 17 701 1048 695 698 123 122 699 17 698 1048 701 690 120 128 696 17 335 1192
 1242 359 333 766 764 15 1192 5316 0 335 1179 0 17 1242 1192 348 335 339 1240 36
7 17 359 1192 335 348 183 352 360 17 348 1192 359 1242 346 362 364 17 362 361 12
47 353 339 348 364 15 361 5 0 1247 1181 0 17 1247 361 363 362 340 345 369 17 363
 361 353 1247 343 342 365 15 1249 5571 0 59 1164 1253 17 59 1249 1254 62 57 799
 797 15 1253 2258 0 1255 1164 1256 17 1255 1253 1255 1255 0 604 602 15 1256 2257
 0 1257 1164 1258 17 1257 1256 1257 1257 0 601 599 15 1258 777 0 1259 1164 1260
 17 1259 1258 1259 1259 0 388 386 15 1260 778 0 1261 1164 0 17 1261 1260 1261 12
61 0 391 389 17 391 1201 391 391 0 1261 389 15 1201 701 0 391 1197 1262 15 1262
 178 0 1236 1197 0 17 1236 1262 1236 1236 0 1263 1234 17 1263 1264 1263 1263 0 1
236 1234 15 1264 164 0 1263 1181 1265 15 1265 134 0 1266 1181 361 17 1266 1265 1
266 1266 0 1238 375 17 1238 1267 1238 1238 0 1266 375 15 1267 148 0 1238 1188 0
 17 388 1203 388 388 0 1259 386 15 1203 695 0 388 1200 1268 15 1268 208 0 1233 1
200 0 17 1233 1268 1233 1233 0 1269 1231 17 1269 1270 1269 1269 0 1233 1231 15 1
270 194 0 1269 1181 1264 17 601 1205 601 601 0 1257 599 15 1205 2187 0 601 1184
 1271 15 1271 238 0 1230 1184 0 17 1230 1271 1230 1230 0 1272 1228 17 1272 1273
 1272 1272 0 1230 1228 15 1273 224 0 1272 1181 1270 17 604 1198 604 604 0 1255 6
02 15 1198 2193 0 604 1188 1267 17 1254 1249 1274 59 105 719 717 17 62 1249 59 1
275 60 793 791 17 799 1024 68 1276 60 59 797 15 1024 4953 0 830 1020 0 17 68 102
4 778 799 66 781 779 17 1276 1024 799 26 57 802 800 17 26 1024 1276 830 24 1277
 910 17 802 1171 29 719 24 1276 800 15 1171 794 0 802 1167 0 17 29 1171 107 802
 27 1278 908 17 719 1171 802 107 57 1254 717 17 107 1171 719 29 105 1279 896 17
 1279 1280 23 722 27 107 896 15 1280 3262 0 1279 1041 0 17 23 1280 32 1279 21 12
81 900 17 722 1280 1279 110 105 1274 720 17 110 1280 722 32 108 725 723 17 1274
 1249 1282 1254 108 722 720 17 1282 1249 1283 1274 54 769 767 17 1283 1249 1284
 1282 75 772 770 17 769 1285 725 56 108 1282 767 15 1285 2274 0 725 1083 0 17 72
5 1285 35 769 30 110 723 17 56 1285 769 35 54 1286 826 17 35 1285 56 725 33 1287
 831 17 1286 1024 830 772 33 56 826 17 830 1024 26 1286 15 1288 828 17 772 1024
 1286 77 54 1283 770 17 77 1024 772 775 75 784 782 17 775 1024 77 74 69 1289 773
 17 784 1021 787 805 69 77 782 15 1021 4949 0 787 1017 0 17 787 1021 50 784 45 7
1 785 17 805 1021 784 50 75 1284 803 17 50 1021 805 787 48 1290 815 17 1284 1249
 1275 1283 48 805 803 17 1275 1249 62 1284 51 814 812 17 814 1006 1290 53 48 127
5 812 15 1006 5389 0 814 1002 0 17 1290 1006 1291 814 45 50 815 17 53 1006 814 1
292 51 38 824 17 1292 1006 53 821 36 41 822 17 38 1018 808 793 36 53 824 15 1018
 4947 0 793 1014 0 17 808 1018 781 38 66 1293 806 17 793 1018 38 781 51 62 791 1
7 781 1018 793 808 60 68 779 17 1293 1012 41 1294 36 808 806 15 1012 4943 0 1293
 1008 0 17 41 1012 65 1293 39 1292 822 17 1294 1012 1293 65 66 778 776 17 65 101
2 1294 41 63 790 788 17 778 1024 74 68 63 1294 776 17 74 1024 775 778 72 796 794
 17 796 1009 790 811 63 74 794 15 1009 5383 0 44 1005 0 17 790 1009 44 796 39 65
 788 17 811 1009 796 44 72 1295 809 17 44 1009 811 790 42 821 819 17 1295 1015 4
7 1289 42 811 809 15 1015 4945 0 1295 1011 0 17 47 1015 71 1295 45 1291 817 17 1
289 1015 1295 71 72 775 773 17 71 1015 1289 47 69 787 785 17 1291 1006 821 1290
 42 47 817 17 821 1006 1292 1291 39 44 819 17 1288 1296 1287 20 33 830 828 15 12
96 6166 0 1297 999 0 17 1287 1296 1297 1288 30 35 831 17 20 1296 1288 1297 15 12
98 912 17 1297 1296 20 1287 21 32 898 17 1298 1299 1281 1277 21 20 912 15 1299 7
618 0 1281 933 0 17 1281 1299 1278 1298 27 23 900 17 1277 1299 1298 1278 15 26 9
10 17 1278 1299 1277 1281 24 29 908 17 32 1280 110 23 30 1297 898 17 1227 1300 1
227 1227 0 1301 1221 15 1300 336 0 1227 1207 0 17 1301 1185 1301 1301 0 1227 122
1 15 1185 317 0 1301 1181 1273 17 1223 1039 89 1302 99 104 1218 15 1039 3748 0 1
223 1035 0 17 89 1039 1303 1223 87 749 747 17 1302 1039 1223 1303 102 746 744 17
 104 1195 95 101 102 1223 1218 15 1195 3582 0 98 1189 1244 17 95 1195 98 104 93
 728 726 17 101 1195 104 98 99 731 729 17 731 1033 755 749 96 101 729 15 1033 35
96 0 749 1029 0 17 755 1033 743 731 81 1215 753 17 749 1033 731 743 99 89 747 17
 743 1033 749 755 87 83 741 17 83 1042 86 734 81 743 741 15 1042 3604 0 86 1038
 0 17 86 1042 92 83 84 740 738 17 734 1042 83 92 87 1303 732 17 92 1042 734 86 9
0 737 735 17 1303 1039 1302 89 90 734 732 17 737 1036 752 746 84 92 735 15 1036
 3598 0 746 1032 0 17 752 1036 728 737 93 1214 750 17 746 1036 737 728 90 1302 7
44 17 728 1036 746 752 102 95 726 17 740 1212 1215 1214 81 86 738 17 1220 1211 1
220 1220 0 1304 1217 15 1211 335 0 1220 1207 1300 17 1304 1305 1304 1304 0 1220
 1217 15 1305 329 0 1304 1183 0 15 1208 364 0 379 1183 1305 17 379 1208 379 379
 0 1306 377 17 1306 1307 1306 1306 0 379 377 15 1307 378 0 1306 1176 0 15 1190 1
810 0 203 1186 1308 17 203 1190 209 1309 201 1310 593 15 1308 1678 0 218 1186 12
41 17 218 1308 332 230 216 1311 548 17 332 1308 311 218 330 397 395 17 230 1308
 218 236 228 541 539 17 1311 1105 227 1312 228 218 548 15 1105 1701 0 1311 1101
 0 17 227 1105 1313 1311 225 555 553 17 1312 1105 1311 1313 216 215 563 17 1313
 1105 1312 227 213 562 560 17 215 1165 224 397 213 1312 563 15 1165 1338 0 397 1
161 0 17 224 1165 221 215 222 1314 565 17 397 1165 215 1315 216 332 395 17 1315
 1165 397 1316 330 403 401 17 1316 1165 1315 323 324 400 398 17 403 1147 448 394
 324 1315 401 15 1147 1326 0 448 1143 0 17 448 1147 457 403 285 326 446 17 394 1
147 403 457 330 311 392 17 457 1147 394 448 309 287 455 17 311 1308 314 332 309
 394 392 17 314 1308 317 311 312 412 410 17 317 1308 320 314 315 421 419 17 412
 1156 287 1317 309 314 410 15 1156 1332 0 1318 1152 0 17 287 1156 1318 412 285 4
57 455 17 1317 1156 412 1318 312 454 452 17 1318 1156 1317 287 288 439 437 17 45
4 1144 445 421 288 1317 452 15 1144 1324 0 445 1140 0 17 445 1144 463 454 291 29
0 443 17 421 1144 454 463 312 317 419 17 463 1144 421 445 315 293 461 17 293 115
3 1319 409 291 463 461 15 1153 1330 0 1319 1149 0 17 1319 1153 1320 293 294 436
 434 17 409 1153 293 1320 315 320 407 17 1320 1153 409 1319 318 460 458 17 320 1
308 305 317 318 409 407 17 305 1308 308 320 303 418 416 17 308 1308 329 305 306
 415 413 17 418 1141 460 430 318 305 416 15 1141 1322 0 442 1137 0 17 460 1141 4
42 418 294 1320 458 17 430 1141 418 442 303 299 428 17 442 1141 430 460 297 296
 440 17 299 1162 1321 415 297 430 428 15 1162 1336 0 415 1158 0 17 1321 1162 132
2 299 300 427 425 17 415 1162 299 1322 303 308 413 17 1322 1162 415 1321 306 433
 431 17 433 1150 451 424 300 1322 431 15 1150 1328 0 451 1146 0 17 451 1150 406
 433 321 302 449 17 424 1150 433 406 306 329 422 17 406 1150 424 451 327 323 404
 17 329 1308 1323 308 327 424 422 17 1323 1308 236 329 219 538 536 17 236 1308 2
30 1323 234 1324 556 17 538 1165 323 221 327 1323 536 17 323 1165 1316 538 321 4
06 404 17 221 1165 538 224 219 1325 558 17 1325 1108 1326 1324 222 221 558 15 11
08 1703 0 1326 1104 0 17 1326 1108 1327 1325 231 544 542 17 1324 1108 1325 1327
 219 236 556 17 1327 1108 1324 1326 234 547 545 17 547 1111 552 541 231 1327 545
 15 1111 1705 0 552 1107 0 17 552 1111 555 547 225 233 550 17 541 1111 547 555 2
34 230 539 17 555 1111 541 552 228 227 553 17 233 1102 544 562 231 552 550 15 11
02 1697 0 562 1098 0 17 544 1102 1314 233 222 1326 542 17 562 1102 233 1314 225
 1313 560 17 1314 1102 562 544 213 224 565 17 302 1159 427 400 300 451 449 15 11
59 1334 0 427 1155 0 17 427 1159 296 302 297 1321 425 17 400 1159 302 326 321 13
16 398 17 326 1159 400 439 324 448 446 17 439 1159 326 290 285 1318 437 17 290 1
159 439 436 288 445 443 17 436 1159 290 296 291 1319 434 17 296 1159 436 427 294
 442 440 17 209 1190 212 203 207 580 578 17 1309 1190 203 269 192 569 567 17 131
0 1093 1328 1329 192 203 593 15 1093 1833 0 1330 1089 0 17 1328 1093 1330 1310 1
89 194 595 17 1329 1093 1310 1330 201 589 587 17 1330 1093 1329 1328 198 583 581
 17 589 1099 586 580 198 1329 587 15 1099 1839 0 586 1095 0 17 586 1099 577 589
 204 200 584 17 580 1099 589 577 201 209 578 17 577 1099 580 586 207 206 575 17
 206 1096 1331 1332 204 577 575 15 1096 1835 0 1332 1092 0 17 1331 1096 1333 206
 195 592 590 17 1332 1096 206 1333 207 212 573 17 1333 1096 1332 1331 210 572 57
0 17 212 1190 272 209 210 1332 573 17 272 1190 257 212 270 481 479 17 257 1190 2
60 272 255 490 488 17 481 1126 572 1334 210 272 479 15 1126 1520 0 191 1122 0 17
 572 1126 191 481 195 1333 570 17 1334 1126 481 1335 270 532 530 17 1335 1126 13
34 245 246 508 506 17 532 1114 514 490 246 1334 530 15 1114 1512 0 514 1110 0 17
 514 1114 502 532 249 248 512 17 490 1114 532 502 270 257 488 17 502 1114 490 51
4 255 251 500 17 251 1135 1336 487 249 502 500 15 1135 1526 0 487 1131 0 17 1336
 1135 1337 251 252 499 497 17 487 1135 251 1337 255 260 485 17 1337 1135 487 133
6 258 505 503 17 260 1190 281 257 258 487 485 17 281 1190 284 260 279 496 494 17
 284 1190 263 281 282 469 467 17 496 1123 505 478 258 281 494 15 1123 1518 0 523
 1119 0 17 505 1123 523 496 252 1337 503 17 478 1123 496 523 279 275 476 17 523
 1123 478 505 273 254 521 17 275 1138 1338 469 273 478 476 15 1138 1528 0 1338 1
134 0 17 1338 1138 1339 275 276 472 470 17 469 1138 275 1339 279 284 467 17 1339
 1138 469 1338 282 475 473 17 475 1120 520 466 276 1339 473 15 1120 1516 0 520 1
116 0 17 520 1120 529 475 237 278 518 17 466 1120 475 529 282 263 464 17 529 112
0 466 520 261 239 527 17 263 1190 266 284 261 466 464 17 266 1190 269 263 264 48
4 482 17 269 1190 1309 266 267 493 491 17 484 1129 239 1340 261 266 482 15 1129
 1522 0 1341 1125 0 17 239 1129 1341 484 237 529 527 17 1340 1129 484 1341 264 5
26 524 17 1341 1129 1340 239 240 511 509 17 526 1117 517 493 240 1340 524 15 111
7 1514 0 517 1113 0 17 517 1117 535 526 243 242 515 17 493 1117 526 535 264 269
 491 17 535 1117 493 517 267 245 533 17 245 1126 1335 569 243 535 533 17 569 112
6 245 194 267 1309 567 17 194 1126 569 191 192 1328 595 17 191 1126 194 572 189
 197 597 17 197 1090 592 583 195 191 597 15 1090 1829 0 592 1086 0 17 592 1090 2
00 197 204 1331 590 17 583 1090 197 200 189 1330 581 17 200 1090 583 592 198 586
 584 17 242 1132 511 508 240 517 515 15 1132 1524 0 499 1128 0 17 511 1132 278 2
42 237 1341 509 17 508 1132 242 248 243 1335 506 17 248 1132 508 499 246 514 512
 17 499 1132 248 254 249 1336 497 17 254 1132 499 472 252 523 521 17 472 1132 25
4 278 273 1338 470 17 278 1132 472 511 276 520 518 15 1180 377 0 382 1176 1307 1
7 382 1180 382 382 0 1342 380 17 1342 1343 1342 1342 0 382 380 15 1343 371 0 134
2 1173 0 15 1177 400 0 385 1173 1343 17 385 1177 385 385 0 1344 383 17 1344 1174
 1344 1344 0 385 383 15 1174 411 0 1344 1170 1345 15 1345 6395 0 1346 1170 0 17
 1346 1345 1346 1346 0 841 839 17 841 997 841 841 0 1346 839 15 997 6388 0 841 9
91 1347 15 1347 6354 0 1348 991 0 17 1348 1347 1348 1348 0 838 836 17 838 1000 8
38 838 0 1348 836 15 1000 6360 0 838 996 1349 15 1349 6361 0 1350 996 0 17 1350
 1349 1350 1350 0 835 833 17 835 1351 835 835 0 1350 833 15 1351 6347 0 835 999
 1296 15 1087 2597 0 167 1083 1285 17 167 1087 170 164 165 636 634 17 170 1087 1
55 167 168 624 622 17 164 1087 167 161 162 627 625 17 636 1063 669 678 162 167 6
34 15 1063 2639 0 660 1059 0 17 669 1063 660 636 138 1352 667 17 678 1063 636 66
0 165 143 676 17 660 1063 678 669 141 140 658 17 143 1072 1353 624 141 678 676 1
5 1072 2645 0 1353 1068 0 17 1353 1072 1354 143 144 651 649 17 624 1072 143 1354
 165 170 622 17 1354 1072 624 1353 168 675 673 17 675 1060 657 633 144 1354 673
 15 1060 2637 0 657 1056 0 17 657 1060 645 675 147 146 655 17 633 1060 675 645 1
68 155 631 17 645 1060 633 657 153 149 643 17 155 1087 158 170 153 633 631 17 15
8 1087 179 155 156 630 628 17 179 1087 182 158 177 639 637 17 630 1081 149 1355
 153 158 628 15 1081 2651 0 630 1077 0 17 149 1081 1356 630 147 645 643 17 1355
 1081 630 1356 156 648 646 17 1356 1081 1355 149 150 642 640 17 648 1069 666 639
 150 1355 646 15 1069 2643 0 666 1065 0 17 666 1069 621 648 171 152 664 17 639 1
069 648 621 156 179 637 17 621 1069 639 666 177 173 619 17 173 1084 1357 612 171
 621 619 15 1084 2653 0 1357 1080 0 17 1357 1084 1358 173 174 615 613 17 612 108
4 173 1358 177 182 610 17 1358 1084 612 1357 180 618 616 17 182 1087 161 179 180
 612 610 17 161 1087 164 182 159 1359 608 17 1359 1066 618 672 180 161 608 15 10
66 2641 0 663 1062 0 17 618 1066 663 1359 174 1358 616 17 672 1066 1359 663 159
 137 670 17 663 1066 672 618 135 176 661 17 137 1075 1360 627 135 672 670 15 107
5 2647 0 1360 1071 0 17 1360 1075 1352 137 138 654 652 17 627 1075 137 1352 159
 164 625 17 1352 1075 627 1360 162 669 667 17 654 1078 176 140 135 1360 652 15 1
078 2649 0 642 1074 0 17 176 1078 615 654 174 663 661 17 140 1078 654 651 138 66
0 658 17 651 1078 140 146 141 1353 649 17 146 1078 651 642 144 657 655 17 642 10
78 146 152 147 1356 640 17 152 1078 642 615 150 666 664 17 615 1078 152 176 171
 1357 613 15 1045 3717 0 758 1041 1280 17 758 1045 758 758 0 1361 756 17 1361 10
30 1361 1361 0 758 756 15 1030 3732 0 1361 1026 1362 15 1362 3733 0 1363 1026 0
 17 1363 1362 1363 1363 0 761 759 17 761 1027 761 761 0 1363 759 15 1027 3727 0
 761 1023 1364 15 1364 3728 0 80 1023 0 17 80 1364 80 80 78 0 0 15 1003 7071 0 8
92 999 1365 17 892 1003 892 892 0 1366 890 15 1365 7044 0 886 999 1367 17 886 13
65 886 886 0 1368 884 15 1367 7017 0 880 999 1369 17 880 1367 880 880 0 1370 878
 15 1369 6990 0 874 999 1371 17 874 1369 874 874 0 1372 872 15 1371 6963 0 868 9
99 1373 17 868 1371 868 868 0 1374 866 15 1373 6936 0 862 999 1375 17 862 1373 8
62 862 0 1376 860 15 1375 6909 0 856 999 1377 17 856 1375 856 856 0 1378 854 15
 1377 6882 0 850 999 1379 17 850 1377 850 850 0 1380 848 15 1379 6855 0 844 999
 1351 17 844 1379 844 844 0 1381 842 17 1381 992 1381 1381 0 844 842 15 992 6869
 0 1381 989 1382 15 1382 6870 0 1383 989 0 17 1383 1382 1383 1383 0 847 845 17 8
47 994 847 847 0 1383 845 15 994 6867 0 847 985 0 17 1380 986 1380 1380 0 850 84
8 15 986 6896 0 1380 983 1384 15 1384 6897 0 1385 983 0 17 1385 1384 1385 1385 0
 853 851 17 853 988 853 853 0 1385 851 15 988 6894 0 853 979 0 17 1378 980 1378
 1378 0 856 854 15 980 6923 0 1378 977 1386 15 1386 6924 0 1387 977 0 17 1387 13
86 1387 1387 0 859 857 17 859 982 859 859 0 1387 857 15 982 6921 0 859 973 0 17
 1376 974 1376 1376 0 862 860 15 974 6950 0 1376 971 1388 15 1388 6951 0 1389 97
1 0 17 1389 1388 1389 1389 0 865 863 17 865 976 865 865 0 1389 863 15 976 6948 0
 865 967 0 17 1374 968 1374 1374 0 868 866 15 968 6977 0 1374 965 1390 15 1390 6
978 0 1391 965 0 17 1391 1390 1391 1391 0 871 869 17 871 970 871 871 0 1391 869
 15 970 6975 0 871 961 0 17 1372 962 1372 1372 0 874 872 15 962 7004 0 1372 959
 1392 15 1392 7005 0 1393 959 0 17 1393 1392 1393 1393 0 877 875 17 877 964 877
 877 0 1393 875 15 964 7002 0 877 955 0 17 1370 956 1370 1370 0 880 878 15 956 7
031 0 1370 953 1394 15 1394 7032 0 1395 953 0 17 1395 1394 1395 1395 0 883 881 1
7 883 958 883 883 0 1395 881 15 958 7029 0 883 949 0 17 1368 950 1368 1368 0 886
 884 15 950 7058 0 1368 947 1396 15 1396 7059 0 1397 947 0 17 1397 1396 1397 139
7 0 889 887 17 889 952 889 889 0 1397 887 15 952 7056 0 889 943 0 17 1366 944 13
66 1366 0 892 890 15 944 7085 0 1366 941 1398 15 1398 7086 0 1399 941 0 17 1399
 1398 1399 1399 0 895 893 17 895 946 895 895 0 1399 893 15 946 7083 0 895 939 0
 15 940 7620 0 1400 936 1401 17 1400 940 1400 1400 0 907 905 15 1401 7621 0 904
 936 0 17 904 1401 904 904 0 1402 902 17 1402 1403 1402 1402 0 904 902 15 1403 7
777 0 1402 928 0 17 907 937 907 907 0 1400 905 15 937 7617 0 907 933 1299 15 934
 7812 0 916 928 1403 17 916 934 916 916 0 1404 914 17 1404 929 1404 1404 0 916 9
14 15 929 7835 0 1404 925 1405 15 1405 7836 0 1406 925 0 17 1406 1405 1406 1406
 0 918 917 17 918 926 918 918 0 1406 917 15 922 7548 0 1407 10 0 17 1407 922 140
7 1407 0 12 5 17 12 11 12 12 0 1407 5 15 11 7551 0 12 4 1408 15 1408 7552 0 14 4
 0 17 14 1408 14 14 6 0 0 1 0 
