**ABCDEFGHIJKLMNOPQRSTUVWXYZabcdefghijklmnopqrstuvwxyz**************************
**PARASOLID !"#$%&'()*+,-./:;<=>?@[\]^_`{|}~0123456789**************************
**PART1;MC=sun;MC_MODEL=Sun-3;MC_ID=unknown;OS=SunOS;OS_RELEASE=unknown;FRU=sdl_
parasolid_test_sun;APPL=unknown;SITE=sdl-cambridge-u.k.;USER=kramer;FORMAT=text;
GUISE=transmit;KEY=olps_workpiece_out;FILE=olps_workpiece_out.xmt_txt;DATE=5-oct
-1990;
**PART2;SCH=SCH_210_1012;USFLD_SIZE=0;
**PART3;
**END_OF_HEADER*****************************************************************
T47 : TRANSMIT FILE created by modeller version 22012 SCH_210_10120 12 1 2916 0
 0 0 0 0 1e3 1e-8 2 2 0 0 0 1 3 102 18 2 olps_workpiece_out13 3 2484 0 1 0 4 5 6
 7 8 9 14 4 2829 0 10 0 11 3 7 -16 5 2841 0 12 0 13 8 18 6 2861 0 14 0 15 9 51 7
 2877 0 4 16 0 0 +.25 2.25 .75 -1 0 0 .25 30 8 2883 0 5 17 0 0 +5.375 -0 1 -1 0
 0 29 9 2903 0 6 18 0 .25 -0 1 29 18 2904 0 15 19 9 0 -0 1 18 15 2862 0 20 6 21
 18 29 19 2906 0 21 22 18 .25 -0 .5 18 21 2864 0 23 15 24 19 29 22 2907 0 24 25
 19 .25 2.25 1 18 24 2865 0 26 21 27 22 29 25 2910 0 27 28 22 -0 2.25 1 18 27 28
68 0 29 24 30 25 29 28 2912 0 30 31 25 .25 2.25 .5 18 30 2870 0 32 27 33 28 29 3
1 2913 0 33 34 28 -0 2.25 .5 18 33 2871 0 35 30 36 31 29 34 2788 0 36 37 31 0 -0
 .5 18 36 2786 0 38 33 39 34 29 37 2763 0 39 40 34 2.25 3.04109974682634 3.74659
8480958035 18 39 2696 0 41 36 42 37 29 40 2764 0 42 43 37 2.25 1.54109974682634
 3.996598480958035 18 42 2697 0 44 39 45 40 29 43 2765 0 45 46 40 2.25 1.2678808
27278686 3.657152330911475 18 45 2698 0 47 42 48 43 29 46 2766 0 48 49 43 2.25 1
.767880827278685 2.407152330911475 18 48 2699 0 50 45 51 46 29 49 2767 0 51 52 4
6 2.25 1.95890025317366 2.253401519041965 18 51 2700 0 53 48 54 49 29 52 2768 0
 54 55 49 2.25 3.458900253173665 2.003401519041965 18 54 2701 0 56 51 57 52 29 5
5 2769 0 57 58 52 2 1.95890025317366 2.253401519041965 18 57 2702 0 59 54 60 55
 29 58 2770 0 60 61 55 2 3.458900253173665 2.003401519041965 18 60 2703 0 62 57
 63 58 29 61 2771 0 63 64 58 2 3.04109974682634 3.746598480958035 18 63 2704 0 6
5 60 66 61 29 64 2772 0 66 67 61 2 1.54109974682634 3.996598480958035 18 66 2705
 0 68 63 69 64 29 67 2773 0 69 70 64 2 1.267880827278686 3.657152330911475 18 69
 2706 0 71 66 72 67 29 70 2774 0 72 73 67 2 1.767880827278685 2.407152330911475
 18 72 2707 0 74 69 75 70 29 73 2775 0 75 76 70 2.25 3.732119172721315 2.3428476
69088525 18 75 2708 0 77 72 78 73 29 76 2776 0 78 79 73 2.25 3.232119172721315 3
.592847669088525 18 78 2709 0 80 75 81 76 29 79 2777 0 81 82 76 2 3.732119172721
315 2.342847669088525 18 81 2710 0 83 78 84 79 29 82 2601 0 84 85 79 2 3.2321191
72721315 3.592847669088525 18 84 2599 0 86 81 87 82 29 85 2411 0 87 88 82 2 5 5
 18 87 2325 0 89 84 90 85 29 88 2412 0 90 91 85 2 -0 5 18 90 2326 0 92 87 93 88
 29 91 2415 0 93 94 88 -0 5 1.5 18 93 2329 0 95 90 96 91 29 94 2417 0 96 97 91 2
 -0 1.5 18 96 2331 0 98 93 99 94 29 97 2418 0 99 100 94 2 5 1.5 18 99 2332 0 101
 96 102 97 29 100 2200 0 102 103 97 0 -0 1.5 18 102 2198 0 104 99 105 100 29 103
 1910 0 105 106 100 10.625 3.84375 .875 18 105 1868 0 107 102 108 103 29 106 191
1 0 108 109 103 10.75 3.84375 .875 18 108 1869 0 110 105 111 106 29 109 1913 0 1
11 112 106 10.625 3.90625 .625 18 111 1871 0 113 108 114 109 29 112 1915 0 114 1
15 109 10.625 4.375 .875 18 114 1873 0 116 111 117 112 29 115 1916 0 117 118 112
 10.75 4.375 .875 18 117 1874 0 119 114 120 115 29 118 1918 0 120 121 115 10.625
 4.375 .625 18 120 1876 0 122 117 123 118 29 121 1921 0 123 124 118 10.75 4.375
 .625 18 123 1879 0 125 120 126 121 29 124 1795 0 126 127 121 10.75 3.90625 .625
 18 126 1793 0 128 123 129 124 29 127 1778 0 129 130 124 10.625 1.15625 .875 18
 129 1736 0 131 126 132 127 29 130 1779 0 132 133 127 10.75 1.15625 .875 18 132
 1737 0 134 129 135 130 29 133 1780 0 135 136 130 10.75 1.09375 .625 18 135 1738
 0 137 132 138 133 29 136 1781 0 138 139 133 10.625 1.09375 .625 18 138 1739 0 1
40 135 141 136 29 139 1782 0 141 142 136 10.625 .625 .875 18 141 1740 0 143 138
 144 139 29 142 1785 0 144 145 139 10.75 .625 .875 18 144 1743 0 146 141 147 142
 29 145 1787 0 147 148 142 10.625 .625 .625 18 147 1745 0 149 144 150 145 29 148
 1671 0 150 151 145 10.75 .625 .625 18 150 1669 0 152 147 153 148 29 151 1638 0
 153 154 148 10.5 3.097597050800555 1.25 18 153 1571 0 155 150 156 151 29 154 16
39 0 156 157 151 10.5 3.65240294919945 1.25 18 156 1572 0 158 153 159 154 29 157
 1640 0 159 160 154 10.5 3.773670761717615 1.155316953129542 18 159 1573 0 161 1
56 162 157 29 160 1641 0 162 163 157 10.5 3.961170761717615 .4053169531295435 18
 162 1574 0 164 159 165 160 29 163 1642 0 165 166 160 10.5 3.83990294919945 .25
 18 165 1575 0 167 162 168 163 29 166 1643 0 168 169 163 10.5 2.91009705080055 .
25 18 168 1576 0 170 165 171 166 29 169 1644 0 171 172 166 10.75 3.8399029491994
5 .25 18 171 1577 0 173 168 174 169 29 172 1645 0 174 175 169 10.75 2.9100970508
0055 .25 18 174 1578 0 176 171 177 172 29 175 1646 0 177 178 172 10.75 3.0975970
50800555 1.25 18 177 1579 0 179 174 180 175 29 178 1647 0 180 181 175 10.75 3.65
240294919945 1.25 18 180 1580 0 182 177 183 178 29 181 1648 0 183 184 178 10.75
 3.773670761717615 1.155316953129544 18 183 1581 0 185 180 186 181 29 184 1649 0
 186 187 181 10.75 3.961170761717615 .4053169531295435 18 186 1582 0 188 183 189
 184 29 187 1650 0 189 190 184 10.5 2.788829238282385 .405316953129543 18 189 15
83 0 191 186 192 187 29 190 1651 0 192 193 187 10.5 2.976329238282385 1.15531695
3129544 18 192 1584 0 194 189 195 190 29 193 1652 0 195 196 190 10.75 2.78882923
8282385 .405316953129543 18 195 1585 0 197 192 198 193 29 196 1473 0 198 199 193
 10.75 2.976329238282385 1.155316953129544 18 198 1471 0 200 195 201 196 29 199
 1448 0 201 202 196 10.5 1.34759705080055 1.25 18 201 1381 0 203 198 204 199 29
 202 1449 0 204 205 199 10.5 1.90240294919945 1.25 18 204 1382 0 206 201 207 202
 29 205 1450 0 207 208 202 10.5 2.023670761717615 1.155316953129542 18 207 1383
 0 209 204 210 205 29 208 1451 0 210 211 205 10.5 2.21117076171761 .405316953129
543 18 210 1384 0 212 207 213 208 29 211 1452 0 213 214 208 10.5 2.0899029491994
45 .25 18 213 1385 0 215 210 216 211 29 214 1453 0 216 217 211 10.5 1.1600970508
0055 .25 18 216 1386 0 218 213 219 214 29 217 1454 0 219 220 214 10.75 2.0899029
49199445 .25 18 219 1387 0 221 216 222 217 29 220 1455 0 222 223 217 10.75 1.160
09705080055 .25 18 222 1388 0 224 219 225 220 29 223 1456 0 225 226 220 10.75 1.
34759705080055 1.25 18 225 1389 0 227 222 228 223 29 226 1457 0 228 229 223 10.7
5 1.90240294919945 1.25 18 228 1390 0 230 225 231 226 29 229 1458 0 231 232 226
 10.75 2.023670761717615 1.155316953129542 18 231 1391 0 233 228 234 229 29 232
 1459 0 234 235 229 10.75 2.21117076171761 .405316953129543 18 234 1392 0 236 23
1 237 232 29 235 1460 0 237 238 232 10.5 1.038829238282382 .4053169531295425 18
 237 1393 0 239 234 240 235 29 238 1461 0 240 241 235 10.5 1.226329238282382 1.1
5531695312954 18 240 1394 0 242 237 243 238 29 241 1462 0 243 244 238 10.75 1.03
8829238282382 .4053169531295425 18 243 1395 0 245 240 246 241 29 244 1283 0 246
 247 241 10.75 1.226329238282382 1.15531695312954 18 246 1281 0 248 243 249 244
 29 247 941 0 249 250 244 9 -0 3 18 249 847 0 251 246 252 247 29 250 942 0 252 2
53 247 9 5 3 18 252 848 0 254 249 255 250 29 253 947 0 255 256 250 10.75 5 3 18
 255 853 0 257 252 258 253 29 256 948 0 258 259 253 10.75 -0 3 18 258 854 0 260
 255 261 256 29 259 950 0 261 262 256 10.75 5 1.5 18 261 856 0 263 258 264 259 2
9 262 951 0 264 265 259 9 5 1.5 18 264 857 0 266 261 267 262 29 265 952 0 267 26
8 262 9 -0 1.5 18 267 858 0 269 264 270 265 29 268 708 0 270 271 265 10.75 -0 1.
5 18 270 706 0 272 267 273 268 29 271 35 0 274 275 268 10.75 -0 -0 18 274 7 0 27
6 277 0 271 29 275 36 0 278 279 271 10.75 5 -0 18 278 12 0 280 281 282 275 29 27
9 37 0 282 283 275 -0 5 0 18 282 10 0 284 278 277 279 29 283 38 0 277 285 279 0
 0 0 18 277 8 0 286 282 274 283 29 285 52 0 273 287 283 10.75 -0 5 18 273 14 0 2
88 270 281 285 29 287 53 0 281 0 285 10.75 5 5 18 281 16 0 289 273 278 287 17 28
9 290 291 257 281 292 293 15 290 754 0 257 294 0 17 291 290 295 289 273 296 297
 17 257 290 289 295 255 298 299 17 292 300 254 301 255 289 293 16 293 737 0 289
 302 303 304 16 302 822 0 305 306 293 307 16 303 724 0 308 293 309 310 30 304 73
9 0 293 310 307 0 +10.75 5 -0 -0 0 1 30 310 726 0 303 311 304 0 +5.375 -0 1.5 1
 -0 -0 30 307 916 0 302 304 312 0 +9 2.5 1.5 -0 1 0 30 312 914 0 306 307 313 0 +
10.75 2.5 1.5 0 -1 -0 16 306 820 0 272 314 302 312 30 313 909 0 314 312 315 0 +5
.375 5 1.5 -1 0 0 16 314 815 0 316 299 306 313 30 315 908 0 299 313 317 0 +10.75
 2.5 3 -0 1 0 16 299 814 0 257 318 314 315 30 317 900 0 318 315 319 0 +9 2.5 3 0
 -1 -0 16 318 806 0 320 321 299 317 30 319 898 0 321 317 322 0 +9 -0 -0 0 -0 -1
 16 321 804 0 269 323 318 319 30 322 897 0 323 319 324 0 +9 5 -0 -0 0 1 16 323 8
03 0 325 326 321 322 30 324 896 0 326 322 327 0 +5.375 -0 3 -1 0 0 16 326 802 0
 328 329 323 324 30 327 895 0 329 324 330 0 +5.375 5 3 1 -0 -0 16 329 801 0 331
 332 326 327 31 330 1295 0 332 327 333 0 +10.75 1.34759705080055 1.125 1 -0 -0 .
125 16 332 1293 0 334 335 329 330 30 333 1439 0 335 330 336 0 +10.75 1.25 1.25 0
 -.242535625036334 -.970142500145333 16 335 1372 0 337 338 332 333 30 336 1438 0
 338 333 339 0 +10.5 1.25 1.25 0 -.242535625036334 -.970142500145333 16 338 1371
 0 340 341 335 336 30 339 1437 0 341 336 342 0 +10.5 1.226329238282382 1.1553169
5312954 -1 0 0 16 341 1370 0 343 344 338 339 30 342 1436 0 344 339 345 0 +10.5 1
.038829238282382 .4053169531295425 1 -0 -0 16 344 1369 0 346 347 341 342 30 345
 1435 0 347 342 348 0 +10.75 2.25 .25 -0 -.2425356250363325 .970142500145332 16
 347 1368 0 349 350 344 345 30 348 1434 0 350 345 351 0 +10.75 2 1.25 0 -1 -0 16
 350 1367 0 352 353 347 348 30 351 1433 0 353 348 354 0 +10.75 1 .25 -0 1 0 16 3
53 1366 0 355 356 350 351 31 354 1432 0 356 351 357 0 -10.75 2.089902949199445 .
375 -1 0 0 .125 16 356 1365 0 358 359 353 354 31 357 1431 0 359 354 360 0 -10.75
 1.90240294919945 1.125 -1 0 0 .125 16 359 1364 0 361 362 356 357 31 360 1429 0
 362 357 363 0 -10.75 1.16009705080055 .375 -1 0 0 .125 16 362 1362 0 364 365 35
9 360 30 363 1428 0 365 360 366 0 +10.5 1 .25 -0 1 0 16 365 1361 0 367 368 362 3
63 30 366 1427 0 368 363 369 0 +10.5 2.089902949199445 .25 1 -0 -0 16 368 1360 0
 370 371 365 366 30 369 1426 0 371 366 372 0 +10.5 1.16009705080055 .25 -1 0 0 1
6 371 1359 0 373 374 368 369 30 372 1425 0 374 369 375 0 +10.5 2.25 .25 -0 -.242
5356250363325 .970142500145332 16 374 1358 0 376 377 371 372 30 375 1424 0 377 3
72 378 0 +10.5 2 1.25 0 -1 -0 16 377 1357 0 379 380 374 375 31 378 1423 0 380 37
5 381 0 +10.5 2.089902949199445 .375 -1 0 0 .125 16 380 1356 0 382 383 377 378 3
1 381 1422 0 383 378 384 0 +10.5 1.90240294919945 1.125 -1 0 0 .125 16 383 1355
 0 385 386 380 381 31 384 1421 0 386 381 387 0 +10.5 1.34759705080055 1.125 -1 0
 0 .125 16 386 1354 0 388 389 383 384 31 387 1420 0 389 384 390 0 +10.5 1.160097
05080055 .375 -1 0 0 .125 16 389 1353 0 391 392 386 387 30 390 1419 0 392 387 39
3 0 +10.5 1.90240294919945 1.25 -1 0 0 16 392 1352 0 394 395 389 390 30 393 1418
 0 395 390 396 0 +10.5 1.34759705080055 1.25 1 -0 -0 16 395 1351 0 397 398 392 3
93 30 396 1417 0 398 393 399 0 +10.5 2.21117076171761 .405316953129543 -1 0 0 16
 398 1350 0 400 401 395 396 30 399 1416 0 401 396 402 0 +10.5 2.023670761717615
 1.155316953129542 1 -0 -0 16 401 1349 0 403 404 398 399 31 402 1485 0 404 399 4
05 0 +10.75 3.097597050800555 1.125 1 -0 -0 .125 16 404 1483 0 406 407 401 402 3
0 405 1629 0 407 402 408 0 +10.75 3 1.25 0 -.242535625036334 -.970142500145333 1
6 407 1562 0 409 410 404 405 30 408 1628 0 410 405 411 0 +10.5 3 1.25 0 -.242535
625036334 -.970142500145333 16 410 1561 0 412 413 407 408 30 411 1627 0 413 408
 414 0 +10.5 2.976329238282385 1.155316953129544 -1 0 0 16 413 1560 0 415 416 41
0 411 30 414 1626 0 416 411 417 0 +10.5 2.788829238282385 .405316953129543 1 -0
 -0 16 416 1559 0 418 419 413 414 30 417 1625 0 419 414 420 0 +10.75 4 .25 -0 -.
2425356250363325 .970142500145332 16 419 1558 0 421 422 416 417 30 420 1624 0 42
2 417 423 0 +10.75 3.75 1.25 0 -1 -0 16 422 1557 0 424 425 419 420 30 423 1623 0
 425 420 426 0 +10.75 2.75 .25 -0 1 0 16 425 1556 0 427 428 422 423 31 426 1622
 0 428 423 429 0 -10.75 3.83990294919945 .375 -1 0 0 .125 16 428 1555 0 430 431
 425 426 31 429 1621 0 431 426 432 0 -10.75 3.65240294919945 1.125 -1 0 0 .125 1
6 431 1554 0 433 434 428 429 31 432 1619 0 434 429 435 0 -10.75 2.91009705080055
5 .375 -1 0 0 .125 16 434 1552 0 436 437 431 432 30 435 1618 0 437 432 438 0 +10
.5 2.75 .25 -0 1 0 16 437 1551 0 439 440 434 435 30 438 1617 0 440 435 441 0 +10
.5 3.83990294919945 .25 1 -0 -0 16 440 1550 0 442 443 437 438 30 441 1616 0 443
 438 444 0 +10.5 2.91009705080055 .25 -1 0 0 16 443 1549 0 445 446 440 441 30 44
4 1615 0 446 441 447 0 +10.5 4 .25 -0 -.2425356250363325 .970142500145332 16 446
 1548 0 448 449 443 444 30 447 1614 0 449 444 450 0 +10.5 3.75 1.25 0 -1 -0 16 4
49 1547 0 451 452 446 447 31 450 1613 0 452 447 453 0 +10.5 3.83990294919945 .37
5 -1 0 0 .125 16 452 1546 0 454 455 449 450 31 453 1612 0 455 450 456 0 +10.5 3.
65240294919945 1.125 -1 0 0 .125 16 455 1545 0 457 458 452 453 31 456 1611 0 458
 453 459 0 +10.5 3.097597050800555 1.125 -1 0 0 .125 16 458 1544 0 460 461 455 4
56 31 459 1610 0 461 456 462 0 +10.5 2.91009705080055 .375 -1 0 0 .125 16 461 15
43 0 463 464 458 459 30 462 1609 0 464 459 465 0 +10.5 3.65240294919945 1.25 -1
 0 0 16 464 1542 0 466 467 461 462 30 465 1608 0 467 462 468 0 +10.5 3.097597050
800555 1.25 1 -0 -0 16 467 1541 0 469 470 464 465 30 468 1607 0 470 465 471 0 +1
0.5 3.961170761717615 .4053169531295435 -1 0 0 16 470 1540 0 472 473 467 468 30
 471 1606 0 473 468 474 0 +10.5 3.773670761717615 1.155316953129544 1 -0 -0 16 4
73 1539 0 475 476 470 471 30 474 1668 0 476 471 477 0 +10.75 1.25 1.25 0 -.24253
5625036334 -.970142500145333 16 476 1666 0 478 479 473 474 31 477 1676 0 479 474
 480 0 +10.75 .625 .75 1 -0 -0 .125 16 479 1674 0 481 482 476 477 30 480 1776 0
 482 477 483 0 +10.625 1 .625 -0 1 0 16 482 1734 0 484 485 479 480 30 483 1775 0
 485 480 486 0 +10.625 .625 .625 -1 0 0 16 485 1733 0 487 488 482 483 30 486 177
3 0 488 483 489 0 +10.75 1 .875 -0 1 0 16 488 1731 0 134 490 485 486 31 489 1769
 0 490 486 491 0 +10.625 .625 .75 -1 0 0 .125 16 490 1727 0 492 493 488 489 30 4
91 1767 0 493 489 494 0 +10.625 .625 .875 1 -0 -0 16 493 1725 0 495 496 490 491
 30 494 1764 0 496 491 497 0 +10.75 1 .625 0 -1 -0 16 496 1722 0 152 498 493 494
 30 497 1763 0 498 494 499 0 +10.5 1.09375 .625 1 -0 -0 16 498 1721 0 137 500 49
6 497 30 499 1761 0 500 497 501 0 +10.625 1 .875 0 -1 -0 16 500 1719 0 502 503 4
98 499 30 501 1760 0 503 499 504 0 +10.5 1.15625 .875 -1 0 0 16 503 1718 0 131 5
05 500 501 30 504 1758 0 505 501 506 0 +10.625 1.125 .75 0 -.242535625036334 -.9
70142500145333 16 505 1716 0 140 507 503 504 30 506 1800 0 507 504 508 0 +10.75
 4 .25 -0 -.2425356250363325 .970142500145332 16 507 1798 0 509 510 505 506 30 5
08 1817 0 510 506 511 0 +10.5 3.90625 .625 -1 0 0 16 510 1815 0 512 513 507 508
 30 511 1909 0 513 508 514 0 +10.75 4 .625 0 -1 -0 16 513 1867 0 128 515 510 511
 30 514 1906 0 515 511 516 0 +10.625 4.375 .625 1 -0 -0 16 515 1864 0 517 518 51
3 514 31 516 1903 0 518 514 519 0 +10.75 4.375 .75 1 -0 -0 .125 16 518 1861 0 52
0 521 515 516 30 519 1902 0 521 516 522 0 +10.625 4 .875 0 -1 -0 16 521 1860 0 5
23 524 518 519 31 522 1900 0 524 519 525 0 +10.625 4.375 .75 -1 0 0 .125 16 524
 1858 0 526 527 521 522 30 525 1898 0 527 522 528 0 +10.625 4.375 .875 -1 0 0 16
 527 1856 0 529 530 524 525 30 528 1897 0 530 525 531 0 +10.625 4 .625 -0 1 0 16
 530 1855 0 532 533 527 528 30 531 1894 0 533 528 534 0 +10.75 4 .875 -0 1 0 16
 533 1852 0 119 535 530 531 30 534 1892 0 535 531 536 0 +10.5 3.84375 .875 1 -0
 -0 16 535 1850 0 110 537 533 534 30 536 1890 0 537 534 538 0 +10.625 3.875 .75
 -0 -.2425356250363325 .970142500145332 16 537 1848 0 107 539 535 536 31 538 218
9 0 539 536 540 0 -.75 .75 1.5 0 -0 -1 .25 16 539 2186 0 541 542 537 538 31 540
 2195 0 542 538 543 0 -.75 4.25 1.5 0 -0 -1 .25 16 542 2192 0 544 545 539 540 30
 543 2221 0 545 540 546 0 +-0 2.5 1.5 0 -1 0 16 545 2219 0 547 548 542 543 30 54
6 2227 0 548 543 549 0 +5.375 5 5 1 -0 -0 16 548 2225 0 301 550 545 546 30 549 2
384 0 550 546 551 0 +2 2.5 1.5 0 -1 0 16 550 2298 0 552 553 548 549 30 551 2378
 0 553 549 554 0 +5.375 -0 1.5 1 0 -0 16 553 2292 0 555 556 550 551 30 554 2377
 0 556 551 557 0 +5.375 5 1.5 -1 0 0 16 556 2291 0 558 559 553 554 30 557 2373 0
 559 554 560 0 +2 2.5 5 -0 1 0 16 559 2287 0 561 562 556 557 30 560 2371 0 562 5
57 563 0 +2 -0 -0 0 0 1 16 562 2285 0 564 565 559 560 30 563 2370 0 565 560 566
 0 +2 5 0 -0 -0 -1 16 565 2284 0 567 568 562 563 31 566 2610 0 568 563 569 0 +2
 3 3.5 1 0 -0 .25 16 568 2608 0 65 570 565 566 30 569 2754 0 570 566 571 0 +2 3.
17987021234117 3.7234700700389 -0 .3713906763541035 -.928476690885259 16 570 268
7 0 572 573 568 569 30 571 2753 0 573 569 574 0 +2.25 3.17987021234117 3.7234700
700389 -0 .3713906763541035 -.928476690885259 16 573 2686 0 575 576 570 571 30 5
74 2752 0 576 571 577 0 +2.25 3.232119172721315 3.592847669088525 1 0 -0 16 576
 2685 0 578 579 573 574 30 577 2751 0 579 574 580 0 +2.25 3.732119172721315 2.34
2847669088525 -1 0 0 16 579 2684 0 581 582 576 577 30 580 2750 0 582 577 583 0 +
2 1.820129787658835 2.2765299299611 0 -.3713906763541035 .92847669088526 16 582
 2683 0 584 585 579 580 30 583 2749 0 585 580 586 0 +2 1.102888268719614 4.06963
372730916 -0 .986393923832144 -.1643989873053575 16 585 2682 0 587 588 582 583 3
0 586 2748 0 588 583 589 0 +2 3.89711173128039 1.930366272690845 0 -.98639392383
2144 .1643989873053575 16 588 2681 0 590 591 585 586 31 589 2747 0 591 586 592 0
 -2 2 2.5 1 0 -0 .25 16 591 2680 0 593 594 588 589 31 592 2746 0 594 589 595 0 -
2 1.5 3.75 1 0 -0 .25 16 594 2679 0 596 597 591 592 31 595 2744 0 597 592 598 0
 -2 3.5 2.25 1 0 -0 .25 16 597 2677 0 599 600 594 595 30 598 2743 0 600 595 601
 0 +2.25 3.89711173128039 1.930366272690845 0 -.986393923832144 .164398987305357
5 16 600 2676 0 602 603 597 598 30 601 2742 0 603 598 604 0 +2.25 1.958900253173
66 2.253401519041965 -1 0 0 16 603 2675 0 605 606 600 601 30 604 2741 0 606 601
 607 0 +2.25 3.458900253173665 2.003401519041965 1 0 -0 16 606 2674 0 608 609 60
3 604 30 607 2740 0 609 604 610 0 +2.25 1.820129787658835 2.2765299299611 0 -.37
13906763541035 .92847669088526 16 609 2673 0 611 612 606 607 30 610 2739 0 612 6
07 613 0 +2.25 1.102888268719614 4.06963372730916 -0 .986393923832144 -.16439898
73053575 16 612 2672 0 614 615 609 610 31 613 2738 0 615 610 616 0 +2.25 2 2.5 1
 0 -0 .25 16 615 2671 0 617 618 612 613 31 616 2737 0 618 613 619 0 +2.25 1.5 3.
75 1 0 -0 .25 16 618 2670 0 620 621 615 616 31 619 2736 0 621 616 622 0 +2.25 3
 3.5 1 0 -0 .25 16 621 2669 0 623 624 618 619 31 622 2735 0 624 619 625 0 +2.25
 3.5 2.25 1 0 -0 .25 16 624 2668 0 626 627 621 622 30 625 2734 0 627 622 628 0 +
2.25 1.54109974682634 3.996598480958035 1 0 -0 16 627 2667 0 629 630 624 625 30
 628 2733 0 630 625 631 0 +2.25 3.04109974682634 3.746598480958035 -1 0 0 16 630
 2666 0 632 633 627 628 30 631 2732 0 633 628 634 0 +2.25 1.767880827278685 2.40
7152330911475 1 0 -0 16 633 2665 0 635 636 630 631 30 634 2731 0 636 631 637 0 +
2.25 1.267880827278686 3.657152330911475 -1 0 0 16 636 2664 0 638 639 633 634 30
 637 2793 0 639 634 640 0 +0 0 0 -0 0 1 16 639 2791 0 641 642 636 637 30 640 281
0 0 642 637 643 0 +-0 2.5 .5 0 -1 0 16 642 2808 0 644 645 639 640 30 643 2901 0
 645 640 646 0 +.25 1 .5 0 -1 0 16 645 2859 0 647 648 642 643 30 646 2900 0 648
 643 649 0 +.25 2.25 .5 1 0 -0 16 648 2858 0 650 651 645 646 30 649 2898 0 651 6
46 652 0 +-0 1 1 0 -1 0 16 651 2856 0 20 653 648 649 31 652 2897 0 653 649 654 0
 +-0 2.25 .75 -1 0 0 .25 16 653 2855 0 655 656 651 652 31 654 2894 0 656 652 657
 0 +.25 2.25 .75 1 0 -0 .25 16 656 2852 0 658 659 653 654 30 657 2892 0 659 654
 660 0 +.25 2.25 1 -1 0 0 16 659 2850 0 661 662 656 657 30 660 2888 0 662 657 66
3 0 +5.375 -0 .5 1 0 -0 16 662 2846 0 664 665 659 660 30 663 2885 0 665 660 17 0
 +.25 1 1 -0 1 0 16 665 2843 0 666 13 662 663 30 17 2884 0 13 663 8 0 +.25 -0 -0
 0 0 1 16 13 2842 0 667 5 665 17 17 667 668 666 647 6 23 13 15 668 2836 0 667 66
9 0 17 666 668 32 667 24 670 665 17 647 668 667 32 21 671 645 17 23 672 38 14 21
 667 13 15 672 2803 0 14 673 0 17 38 672 674 23 36 664 662 17 14 672 23 675 6 12
 5 17 675 672 14 104 15 641 639 17 12 676 677 670 15 14 5 15 676 2834 0 12 10 0
 17 677 676 26 12 27 20 651 17 670 676 12 26 6 666 665 17 26 676 670 677 24 661
 659 17 661 11 655 658 27 26 659 15 11 2830 0 658 4 0 17 655 11 650 661 33 29 65
3 17 658 11 661 650 24 32 656 17 650 11 658 655 30 35 648 17 32 668 647 666 30 6
58 656 17 35 678 644 671 33 650 648 15 678 2840 0 664 679 0 17 644 678 664 35 36
 680 642 17 671 678 35 664 30 647 645 17 664 678 671 644 21 38 662 17 680 681 29
 682 33 644 642 15 681 2816 0 20 683 0 17 29 681 20 680 27 655 653 17 682 681 68
0 286 36 674 684 17 286 681 682 685 277 686 687 17 674 672 276 38 277 682 684 16
 684 21 0 682 688 689 690 16 688 19 0 691 692 684 693 16 689 31 0 694 684 695 69
6 30 690 50 0 684 697 693 0 +0 0 0 -0 0 1 30 697 56 0 297 696 690 0 +10.75 2.5 5
 0 -1 -0 30 693 49 0 688 690 698 0 +-0 5 0 -0 0 1 30 698 48 0 699 693 700 0 +10.
75 5 -0 -0 0 1 16 699 17 0 701 297 702 698 30 700 47 0 695 698 703 0 +10.75 -0 -
0 -0 0 1 16 695 15 0 704 689 297 700 30 703 42 0 687 700 705 0 +-0 2.5 0 0 -1 -0
 16 687 11 0 286 702 706 703 30 705 41 0 702 703 707 0 +5.375 5 -0 -1 0 0 16 702
 13 0 284 699 687 705 30 707 40 0 708 705 709 0 +10.75 2.5 -0 -0 1 0 16 708 3 0
 280 706 710 707 30 709 39 0 706 707 711 0 +5.375 -0 -0 1 -0 -0 16 706 9 0 276 6
87 708 709 31 711 366 0 692 709 712 0 +4 2.5 .25 -0 0 1 1.25 16 692 363 0 713 71
4 688 711 31 712 394 0 714 711 715 0 +4 2.5 .5 -0 0 1 1.25 16 714 385 0 716 717
 692 712 31 715 402 0 717 712 718 0 +4 2.5 .5 -0 0 1 1 16 717 399 0 719 720 714
 715 31 718 424 0 720 715 721 0 +4 2.5 2.5 -0 0 1 1 16 720 417 0 722 723 717 718
 31 721 697 0 723 718 724 0 -10 .75 1.5 0 -0 -1 .25 16 723 694 0 725 726 720 721
 31 724 703 0 726 721 311 0 -10 4.25 1.5 0 -0 -1 .25 16 726 700 0 727 309 723 72
4 30 311 722 0 309 724 310 0 +10.75 -0 -0 -0 0 1 16 309 720 0 288 303 726 311 17
 288 672 694 260 273 295 309 17 694 672 98 288 90 728 689 17 260 672 288 251 258
 328 326 17 295 290 257 291 258 288 309 17 251 672 260 729 249 269 321 17 328 73
0 731 298 249 260 326 15 730 792 0 331 732 0 17 731 730 331 328 252 320 318 17 2
98 730 328 331 258 257 299 17 331 730 298 731 255 254 329 17 254 300 266 292 252
 331 329 15 300 2233 0 89 733 0 17 266 300 263 254 264 325 323 17 263 300 734 26
6 261 316 314 17 325 735 320 305 252 266 323 15 735 794 0 325 736 0 17 320 735 2
69 325 249 731 318 17 305 735 325 269 264 737 302 17 269 735 305 320 267 251 321
 17 737 738 308 316 267 305 302 15 738 776 0 316 739 740 17 308 738 741 737 270
 729 303 17 316 738 737 741 264 263 314 17 741 738 316 308 261 272 306 17 272 74
2 743 701 270 741 306 15 742 715 0 272 744 0 17 743 742 280 272 274 704 695 17 7
01 742 272 280 261 734 699 17 280 742 701 743 278 745 708 17 734 300 284 263 278
 701 699 17 284 300 691 734 282 746 702 17 691 300 101 284 93 685 688 17 746 747
 745 686 278 284 702 15 747 5 0 745 748 0 17 745 747 749 746 274 280 708 17 686
 747 746 749 282 286 687 17 749 747 686 745 277 276 706 17 276 672 704 674 274 7
49 706 17 704 672 729 276 270 743 695 17 729 672 251 704 267 308 303 14 748 6 0
 750 751 752 3 753 +14 750 328 0 754 748 755 3 756 -14 751 237 0 748 757 758 3 7
59 -15 752 317 0 760 748 761 50 753 34 0 748 762 763 0 +5.375 2.5 -0 0 -0 -1 50
 762 43 0 744 764 753 0 +10.75 2.5 -0 1 -0 -0 51 763 389 0 765 753 766 0 +4 2.5
 .5 0 -0 -1 1.25 14 765 376 0 767 768 769 3 763 -50 766 387 0 768 763 770 0 +4 2
.5 .5 -0 0 1 14 768 370 0 765 771 772 3 766 -50 770 421 0 771 766 773 0 +4 2.5 2
.5 -0 0 1 14 771 412 0 768 774 775 3 770 -51 773 420 0 774 770 776 0 +4 2.5 2.5
 0 -0 -1 1 14 774 409 0 771 294 777 3 773 -50 776 458 0 294 773 778 0 +10.75 2.5
 -0 1 -0 -0 14 294 457 0 774 736 290 3 776 +50 778 891 0 736 776 779 0 +9 2.5 2.
25 -1 0 0 14 736 793 0 294 732 735 3 778 -50 779 890 0 732 778 780 0 +9 2.5 3 -0
 0 1 14 732 791 0 736 739 730 3 779 -50 780 883 0 739 779 781 0 +9 2.5 1.5 0 -0
 -1 14 739 775 0 732 782 738 3 780 -50 781 1406 0 782 780 783 0 +10.5 1.125 .75
 0 -.970142500145332 .242535625036333 14 782 1337 0 739 784 785 3 781 -50 783 14
05 0 784 781 786 0 +10.5 1.625 .25 0 -0 -1 14 784 1335 0 782 787 788 3 783 -50 7
86 1404 0 787 783 789 0 +10.5 2.25 .25 -1 0 0 14 787 1333 0 784 790 791 3 786 -5
0 789 1403 0 790 786 792 0 +10.5 1.625 1.25 -0 0 1 14 790 1331 0 787 793 794 3 7
89 -50 792 1402 0 793 789 795 0 +10.5 2.125 .75 -0 .970142500145333 .24253562503
63335 14 793 1329 0 790 796 797 3 792 -51 795 1401 0 796 792 798 0 +10.5 1.16009
705080055 .375 1 -0 -0 .125 14 796 1327 0 793 799 800 3 795 -51 798 1400 0 799 7
95 801 0 +10.5 1.34759705080055 1.125 1 -0 -0 .125 14 799 1325 0 796 802 803 3 7
98 -51 801 1399 0 802 798 804 0 +10.5 1.90240294919945 1.125 1 -0 -0 .125 14 802
 1323 0 799 805 806 3 801 -51 804 1398 0 805 801 807 0 +10.5 2.089902949199445 .
375 1 -0 -0 .125 14 805 1321 0 802 808 809 3 804 -50 807 1596 0 808 804 810 0 +1
0.5 2.875 .75 0 -.970142500145332 .242535625036333 14 808 1527 0 805 811 812 3 8
07 -50 810 1595 0 811 807 813 0 +10.5 3.375 .25 0 -0 -1 14 811 1525 0 808 814 81
5 3 810 -50 813 1594 0 814 810 816 0 +10.5 4 .25 -1 0 0 14 814 1523 0 811 817 81
8 3 813 -50 816 1593 0 817 813 819 0 +10.5 3.375 1.25 -0 0 1 14 817 1521 0 814 8
20 821 3 816 -50 819 1592 0 820 816 822 0 +10.5 3.875 .75 -0 .970142500145333 .2
425356250363335 14 820 1519 0 817 823 824 3 819 -51 822 1591 0 823 819 825 0 +10
.5 2.910097050800555 .375 1 -0 -0 .125 14 823 1517 0 820 826 827 3 822 -51 825 1
590 0 826 822 828 0 +10.5 3.097597050800555 1.125 1 -0 -0 .125 14 826 1515 0 823
 829 830 3 825 -51 828 1589 0 829 825 831 0 +10.5 3.65240294919945 1.125 1 -0 -0
 .125 14 829 1513 0 826 832 833 3 828 -51 831 1588 0 832 828 834 0 +10.5 3.83990
294919945 .375 1 -0 -0 .125 14 832 1511 0 829 835 836 3 831 -51 834 1752 0 835 8
31 837 0 +10.625 .625 .75 1 -0 -0 .125 14 835 1704 0 832 838 839 3 834 -50 837 1
751 0 838 834 840 0 +10.625 1 .625 0 -0 -1 14 838 1702 0 835 841 842 3 837 -50 8
40 1750 0 841 837 843 0 +10.625 1 .875 -0 0 1 14 841 1700 0 838 844 845 3 840 -5
0 843 1748 0 844 840 846 0 +10.625 1 .75 -1 0 0 14 844 1696 0 841 847 848 3 843
 -51 846 1885 0 847 843 849 0 +10.625 4.375 .75 1 -0 -0 .125 14 847 1838 0 844 8
50 851 3 846 -50 849 1883 0 850 846 852 0 +10.625 4 .625 0 -0 -1 14 850 1834 0 8
47 853 854 3 849 -50 852 1882 0 853 849 855 0 +10.625 4 .875 -0 0 1 14 853 1832
 0 850 856 857 3 852 -50 855 1880 0 856 852 858 0 +10.625 4 .75 -1 0 0 14 856 18
28 0 853 859 860 3 855 -50 858 2363 0 859 855 861 0 +2 2.5 3.25 1 0 -0 14 859 22
73 0 856 862 863 3 858 -50 861 2355 0 862 858 864 0 +2 2.5 1.5 0 -0 -1 14 862 22
55 0 859 865 866 3 861 -50 864 2721 0 865 861 867 0 +2.25 3.53849097181078 2.826
91817136487 -0 .92847669088526 .371390676354104 14 865 2652 0 862 868 869 3 864
 -50 867 2720 0 868 864 870 0 +2.25 2.85862075946961 2.10344810132597 0 -.164398
9873053575 -.986393923832144 14 868 2650 0 865 871 872 3 867 -50 870 2719 0 871
 867 873 0 +2.25 1.820129787658835 2.2765299299611 1 0 -0 14 871 2648 0 868 874
 875 3 870 -50 873 2718 0 874 870 876 0 +2.25 2.14137924053039 3.89655189867403
 -0 .164398987305358 .986393923832144 14 874 2646 0 871 877 878 3 873 -50 876 27
17 0 877 873 879 0 +2.25 1.461509028189224 3.17308182863513 0 -.92847669088526 -
.3713906763541035 14 877 2644 0 874 880 881 3 876 -51 879 2716 0 880 876 882 0 +
2.25 3.5 2.25 -1 0 0 .25 14 880 2642 0 877 883 884 3 879 -51 882 2715 0 883 879
 885 0 +2.25 3 3.5 -1 0 0 .25 14 883 2640 0 880 886 887 3 882 -51 885 2714 0 886
 882 888 0 +2.25 1.5 3.75 -1 0 0 .25 14 886 2638 0 883 889 890 3 885 -51 888 271
3 0 889 885 891 0 +2.25 2 2.5 -1 0 0 .25 14 889 2636 0 886 679 892 3 888 -50 891
 2882 0 679 888 893 0 +.25 1 .5 0 -0 -1 14 679 2839 0 889 669 678 3 891 -50 893
 2880 0 669 891 16 0 +.25 1 .75 1 0 -0 14 669 2835 0 679 10 668 3 893 -50 16 287
9 0 10 893 7 0 +.25 1 1 0 0 1 14 10 2833 0 669 4 676 3 16 -15 892 2637 0 617 889
 0 17 617 892 605 635 51 50 615 17 605 892 593 617 57 53 603 17 635 892 617 593
 48 894 633 17 50 875 611 602 48 617 615 15 875 2649 0 602 871 0 17 611 875 44 5
0 45 895 609 17 602 875 50 56 51 896 600 17 56 875 602 575 54 626 624 17 896 872
 897 53 54 602 600 15 872 2651 0 590 868 0 17 897 872 590 896 60 608 606 17 53 8
72 896 590 51 605 603 17 590 872 53 897 57 62 588 17 62 863 83 59 60 590 588 15
 863 2597 0 71 859 898 17 83 863 86 62 81 599 597 17 59 863 62 74 57 593 591 17
 74 863 59 71 72 584 582 17 593 892 635 605 72 59 591 17 71 863 74 68 69 596 594
 17 584 881 47 894 69 74 582 15 881 2645 0 895 877 0 17 47 881 895 584 45 638 63
6 17 894 881 584 895 72 635 633 17 895 881 894 47 48 611 609 17 638 890 596 620
 69 47 636 15 890 2639 0 620 886 0 17 596 890 629 638 66 71 594 17 620 890 638 6
29 45 44 618 17 629 890 620 596 42 899 627 17 44 875 614 611 42 620 618 17 614 8
75 80 44 39 900 612 17 80 875 575 614 78 623 621 17 900 878 899 41 42 614 612 15
 878 2647 0 900 874 0 17 899 878 587 900 66 629 627 17 41 878 900 587 39 632 630
 17 587 878 41 899 63 68 585 17 632 887 901 623 63 41 630 15 887 2641 0 623 883
 0 17 901 887 578 632 84 65 568 17 623 887 632 578 39 80 621 17 578 887 623 901
 78 902 576 17 902 869 572 903 84 578 576 15 869 2653 0 903 865 0 17 572 869 77
 902 81 86 570 17 903 869 902 77 78 575 573 17 77 869 903 572 75 581 579 17 575
 875 56 80 75 903 573 17 581 884 599 626 81 77 579 15 884 2643 0 626 880 0 17 59
9 884 608 581 60 83 597 17 626 884 581 608 75 56 624 17 608 884 626 599 54 897 6
06 17 86 863 65 83 84 572 570 17 65 863 68 86 63 901 568 17 68 863 71 65 66 587
 585 15 898 2274 0 567 859 0 17 567 898 552 561 99 89 565 17 552 898 564 567 96
 904 550 17 561 898 567 564 87 92 559 17 89 300 301 101 87 567 565 17 301 300 29
2 89 281 905 548 17 101 300 89 691 99 558 556 17 558 866 547 904 93 101 556 15 8
66 2256 0 558 862 906 17 547 866 555 558 102 95 545 17 904 866 558 555 99 552 55
0 17 555 866 904 547 96 104 553 17 104 672 675 98 102 555 553 17 98 672 104 694
 96 564 562 17 564 898 561 552 90 98 562 17 95 681 685 641 93 547 545 17 685 681
 286 95 282 691 688 17 641 681 95 20 102 675 639 17 20 681 641 29 15 677 651 15
 906 2257 0 907 862 908 17 907 906 907 907 0 541 539 15 908 2258 0 909 862 0 17
 909 908 909 909 0 544 542 17 544 910 544 544 0 909 542 15 910 2193 0 544 911 91
2 14 911 147 0 913 744 910 3 914 -15 912 148 0 915 911 0 17 915 912 915 915 0 91
6 710 17 916 917 916 916 0 915 710 16 710 132 0 915 708 918 919 16 918 162 0 920
 710 921 922 31 919 135 0 710 922 696 0 +.75 4.25 0 0 -0 -1 .25 31 922 165 0 918
 923 919 0 +10 4.25 -0 0 -0 -1 .25 30 696 59 0 689 919 697 0 +5.375 -0 5 -1 0 0
 31 923 195 0 921 924 922 0 +10 .75 -0 0 -0 -1 .25 16 921 192 0 925 918 926 923
 31 924 225 0 926 927 923 0 +.75 .75 0 0 -0 -1 .25 16 926 222 0 928 921 929 924
 31 927 318 0 929 930 924 0 +4 2.5 -0 0 -0 -1 1.5 16 929 315 0 931 926 932 927 3
1 930 352 0 932 0 927 0 +4 2.5 .25 -0 0 1 1.5 16 932 343 0 933 929 0 930 17 933
 934 933 933 0 935 932 15 934 335 0 933 754 936 17 935 937 935 935 0 933 932 15
 937 329 0 935 750 0 14 754 334 0 0 750 934 3 938 -15 936 336 0 931 754 0 17 931
 936 931 931 0 760 929 17 760 752 760 760 0 931 929 51 938 347 0 754 0 756 0 +4
 2.5 .25 0 -0 -1 1.5 50 756 345 0 750 938 759 0 +4 2.5 .25 -0 0 1 51 759 246 0 7
51 756 939 0 +.75 .75 1.6 0 -0 -1 .25 51 939 216 0 757 759 940 0 +10 .75 1.6 0 -
0 -1 .25 14 757 207 0 751 913 941 3 939 -51 940 186 0 913 939 914 0 +10 4.25 1.6
 0 -0 -1 .25 14 913 177 0 757 911 942 3 940 -51 914 156 0 911 940 943 0 +.75 4.2
5 1.6 0 -0 -1 .25 50 943 51 0 767 914 944 0 +5.375 2.5 5 -0 0 1 14 767 33 0 733
 765 945 3 943 +50 944 46 0 673 943 946 0 +5.375 -0 -0 0 -1 -0 14 673 30 0 744 6
83 672 3 944 +50 946 45 0 683 944 764 0 +-0 2.5 0 -1 0 0 14 683 27 0 673 733 681
 3 946 +50 764 44 0 733 946 762 0 +5.375 5 -0 -0 1 0 14 733 24 0 683 767 300 3 7
64 +14 744 1 0 911 673 947 3 762 +15 947 1810 0 119 744 948 17 119 947 125 949 1
17 950 533 15 948 1678 0 134 744 742 17 134 948 248 146 132 951 488 17 248 948 2
27 134 246 337 335 17 146 948 134 152 144 481 479 17 951 845 143 952 144 134 488
 15 845 1701 0 951 841 0 17 143 845 953 951 141 495 493 17 952 845 951 953 132 1
31 503 17 953 845 952 143 129 502 500 17 131 785 140 337 129 952 503 15 785 1338
 0 337 782 0 17 140 785 137 131 138 954 505 17 337 785 131 955 132 248 335 17 95
5 785 337 956 246 343 341 17 956 785 955 239 240 340 338 17 343 803 388 334 240
 955 341 15 803 1326 0 388 799 0 17 388 803 397 343 201 242 386 17 334 803 343 3
97 246 227 332 17 397 803 334 388 225 203 395 17 227 948 230 248 225 334 332 17
 230 948 233 227 228 352 350 17 233 948 236 230 231 361 359 17 352 794 203 957 2
25 230 350 15 794 1332 0 958 790 0 17 203 794 958 352 201 397 395 17 957 794 352
 958 228 394 392 17 958 794 957 203 204 379 377 17 394 806 385 361 204 957 392 1
5 806 1324 0 385 802 0 17 385 806 403 394 207 206 383 17 361 806 394 403 228 233
 359 17 403 806 361 385 231 209 401 17 209 797 959 349 207 403 401 15 797 1330 0
 959 793 0 17 959 797 960 209 210 376 374 17 349 797 209 960 231 236 347 17 960
 797 349 959 234 400 398 17 236 948 221 233 234 349 347 17 221 948 224 236 219 3
58 356 17 224 948 245 221 222 355 353 17 358 809 400 370 234 221 356 15 809 1322
 0 382 805 0 17 400 809 382 358 210 960 398 17 370 809 358 382 219 215 368 17 38
2 809 370 400 213 212 380 17 215 788 961 355 213 370 368 15 788 1336 0 355 784 0
 17 961 788 962 215 216 367 365 17 355 788 215 962 219 224 353 17 962 788 355 96
1 222 373 371 17 373 800 391 364 216 962 371 15 800 1328 0 391 796 0 17 391 800
 346 373 237 218 389 17 364 800 373 346 222 245 362 17 346 800 364 391 243 239 3
44 17 245 948 963 224 243 364 362 17 963 948 152 245 135 478 476 17 152 948 146
 963 150 964 496 17 478 785 239 137 243 963 476 17 239 785 956 478 237 346 344 1
7 137 785 478 140 135 965 498 17 965 842 966 964 138 137 498 15 842 1703 0 966 8
38 0 17 966 842 967 965 147 484 482 17 964 842 965 967 135 152 496 17 967 842 96
4 966 150 487 485 17 487 839 492 481 147 967 485 15 839 1705 0 492 835 0 17 492
 839 495 487 141 149 490 17 481 839 487 495 150 146 479 17 495 839 481 492 144 1
43 493 17 149 848 484 502 147 492 490 15 848 1697 0 502 844 0 17 484 848 954 149
 138 966 482 17 502 848 149 954 141 953 500 17 954 848 502 484 129 140 505 17 21
8 791 367 340 216 391 389 15 791 1334 0 367 787 0 17 367 791 212 218 213 961 365
 17 340 791 218 242 237 956 338 17 242 791 340 379 240 388 386 17 379 791 242 20
6 201 958 377 17 206 791 379 376 204 385 383 17 376 791 206 212 207 959 374 17 2
12 791 376 367 210 382 380 17 125 947 128 119 123 520 518 17 949 947 119 185 108
 509 507 17 950 857 968 969 108 119 533 15 857 1833 0 970 853 0 17 968 857 970 9
50 105 110 535 17 969 857 950 970 117 529 527 17 970 857 969 968 114 523 521 17
 529 851 526 520 114 969 527 15 851 1839 0 526 847 0 17 526 851 517 529 120 116
 524 17 520 851 529 517 117 125 518 17 517 851 520 526 123 122 515 17 122 854 97
1 972 120 517 515 15 854 1835 0 972 850 0 17 971 854 973 122 111 532 530 17 972
 854 122 973 123 128 513 17 973 854 972 971 126 512 510 17 128 947 188 125 126 9
72 513 17 188 947 173 128 186 421 419 17 173 947 176 188 171 430 428 17 421 824
 512 974 126 188 419 15 824 1520 0 107 820 0 17 512 824 107 421 111 973 510 17 9
74 824 421 975 186 472 470 17 975 824 974 161 162 448 446 17 472 836 454 430 162
 974 470 15 836 1512 0 454 832 0 17 454 836 442 472 165 164 452 17 430 836 472 4
42 186 173 428 17 442 836 430 454 171 167 440 17 167 815 976 427 165 442 440 15
 815 1526 0 427 811 0 17 976 815 977 167 168 439 437 17 427 815 167 977 171 176
 425 17 977 815 427 976 174 445 443 17 176 947 197 173 174 427 425 17 197 947 20
0 176 195 436 434 17 200 947 179 197 198 409 407 17 436 827 445 418 174 197 434
 15 827 1518 0 463 823 0 17 445 827 463 436 168 977 443 17 418 827 436 463 195 1
91 416 17 463 827 418 445 189 170 461 17 191 812 978 409 189 418 416 15 812 1528
 0 978 808 0 17 978 812 979 191 192 412 410 17 409 812 191 979 195 200 407 17 97
9 812 409 978 198 415 413 17 415 830 460 406 192 979 413 15 830 1516 0 460 826 0
 17 460 830 469 415 153 194 458 17 406 830 415 469 198 179 404 17 469 830 406 46
0 177 155 467 17 179 947 182 200 177 406 404 17 182 947 185 179 180 424 422 17 1
85 947 949 182 183 433 431 17 424 821 155 980 177 182 422 15 821 1522 0 981 817
 0 17 155 821 981 424 153 469 467 17 980 821 424 981 180 466 464 17 981 821 980
 155 156 451 449 17 466 833 457 433 156 980 464 15 833 1514 0 457 829 0 17 457 8
33 475 466 159 158 455 17 433 833 466 475 180 185 431 17 475 833 433 457 183 161
 473 17 161 824 975 509 159 475 473 17 509 824 161 110 183 949 507 17 110 824 50
9 107 108 968 535 17 107 824 110 512 105 113 537 17 113 860 532 523 111 107 537
 15 860 1829 0 532 856 0 17 532 860 116 113 120 971 530 17 523 860 113 116 105 9
70 521 17 116 860 523 532 114 526 524 17 158 818 451 448 156 457 455 15 818 1524
 0 439 814 0 17 451 818 194 158 153 981 449 17 448 818 158 164 159 975 446 17 16
4 818 448 439 162 454 452 17 439 818 164 170 165 976 437 17 170 818 439 412 168
 463 461 17 412 818 170 194 189 978 410 17 194 818 412 451 192 460 458 15 945 22
38 0 92 767 0 17 92 945 728 905 90 561 559 17 728 945 296 92 273 694 689 17 905
 945 92 296 87 301 548 17 296 945 905 728 281 291 297 16 297 22 0 291 695 699 69
7 15 942 701 0 727 913 982 17 727 942 727 727 0 983 726 15 982 178 0 920 913 0 1
7 920 982 920 920 0 984 918 17 984 985 984 984 0 920 918 15 985 164 0 984 748 91
7 15 917 134 0 916 748 747 17 983 986 983 983 0 727 726 15 986 778 0 983 739 0 1
5 941 695 0 725 757 987 17 725 941 725 725 0 988 723 15 987 208 0 925 757 0 17 9
25 987 925 925 0 989 921 17 989 990 989 989 0 925 921 15 990 194 0 989 748 985 1
7 988 740 988 988 0 725 723 15 740 777 0 988 739 986 17 928 991 928 928 0 992 92
6 15 991 238 0 928 751 0 17 992 761 992 992 0 928 926 15 761 224 0 992 748 990 1
7 541 758 541 541 0 907 539 15 758 2187 0 541 751 991 15 777 410 0 722 774 993 1
7 722 777 722 722 0 994 720 15 993 411 0 995 774 0 17 995 993 995 995 0 719 717
 17 719 772 719 719 0 995 717 15 772 400 0 719 768 996 15 996 371 0 997 768 0 17
 997 996 997 997 0 716 714 17 716 769 716 716 0 997 714 15 769 377 0 716 765 998
 15 998 378 0 999 765 0 17 999 998 999 999 0 713 692 17 713 755 713 713 0 999 69
2 15 755 364 0 713 750 937 17 994 775 994 994 0 722 720 15 775 413 0 994 771 0 1
 0 
