**ABCDEFGHIJKLMNOPQRSTUVWXYZabcdefghijklmnopqrstuvwxyz**************************
**PARASOLID !"#$%&'()*+,-./:;<=>?@[\]^_`{|}~0123456789**************************
**PART1;MC=sun;MC_MODEL=Sun-3;MC_ID=unknown;OS=SunOS;OS_RELEASE=unknown;FRU=sdl_
parasolid_test_sun;APPL=unknown;SITE=sdl-cambridge-u.k.;USER=kramer;FORMAT=text;
GUISE=transmit;KEY=olps_workpiece_out;FILE=olps_workpiece_out.xmt_txt;DATE=5-oct
-1990;
**PART2;SCH=SCH_210_1012;USFLD_SIZE=0;
**PART3;
**END_OF_HEADER*****************************************************************
T47 : TRANSMIT FILE created by modeller version 22012 SCH_210_10120 12 1 425 0 0
 0 0 0 1e3 1e-8 2 2 0 0 0 1 3 102 18 2 olps_workpiece_out13 3 2 0 1 0 4 5 6 7 8
 9 14 4 409 0 10 0 11 3 7 -16 5 417 0 12 0 13 8 18 6 153 0 14 0 15 16 51 7 420 0
 4 17 0 0 +4 2.5 2.5 0 0 -1 1 31 8 424 0 5 18 0 0 +4 2.5 2.5 0 -0 1 1 29 9 35 0
 19 20 0 10.75 0 0 18 19 7 0 21 22 0 9 29 20 36 0 23 24 9 10.75 5 -0 18 23 12 0
 25 26 27 20 29 24 37 0 27 28 20 0 5 -0 18 27 10 0 29 23 22 24 29 28 38 0 22 30
 24 0 0 0 18 22 8 0 31 27 19 28 29 30 52 0 32 33 28 10.75 0 5 18 32 14 0 34 35 2
6 30 29 33 53 0 26 36 30 10.75 5 5 18 26 16 0 37 32 23 33 29 36 54 0 38 39 33 0
 5 5 18 38 18 0 40 41 35 36 29 39 55 0 35 16 36 0 0 5 18 35 20 0 42 38 32 39 29
 16 161 0 6 43 39 .75 4.25 1.75021515475689 29 43 191 0 15 44 16 10 4.25 1.75021
515475689 18 15 183 0 45 6 46 43 29 44 221 0 46 47 43 10 .75 1.75021515475689 18
 46 213 0 48 15 41 44 29 47 251 0 41 0 44 .75 .75 1.75021515475689 18 41 243 0 4
9 46 38 47 17 49 50 49 49 41 0 0 15 50 234 0 49 51 0 14 51 232 0 52 53 54 3 55 -
14 52 24 0 56 51 57 3 58 +14 53 202 0 51 59 60 3 61 -15 54 233 0 62 51 50 52 55
 245 0 51 63 64 0 +.75 .75 1.75021515475689 0 0 -1 0 .857167300702112 .515038074
910054 50 63 345 0 65 66 55 0 +4 2.5 .25 0 -0 1 51 64 246 0 67 55 61 0 +.75 .75
 1.6 0 0 -1 .25 14 67 237 0 68 69 70 3 64 -52 61 215 0 53 64 71 0 +10 .75 1.7502
1515475689 0 0 -1 0 .857167300702112 .515038074910054 51 71 216 0 69 61 72 0 +10
 .75 1.6 0 0 -1 .25 14 69 207 0 67 73 74 3 71 -52 72 185 0 59 71 75 0 +10 4.25 1
.75021515475689 0 0 -1 0 .857167300702112 .515038074910054 14 59 172 0 53 76 77
 3 72 -51 75 186 0 73 72 78 0 +10 4.25 1.6 0 0 -1 .25 14 73 177 0 69 79 80 3 75
 -52 78 155 0 76 75 81 0 +.75 4.25 1.75021515475689 0 0 -1 0 .857167300702112 .5
15038074910054 14 76 142 0 59 82 83 3 78 -51 81 156 0 79 78 84 0 +.75 4.25 1.6 0
 0 -1 .25 14 79 147 0 73 85 86 3 81 -50 84 51 0 82 81 87 0 +5.375 2.5 5 0 0 1 14
 82 33 0 76 88 89 3 84 +50 87 46 0 90 84 91 0 +5.375 0 0 0 -1 0 14 90 30 0 85 56
 92 3 87 +50 91 45 0 56 87 58 0 +0 2.5 0 -1 0 0 14 56 27 0 90 52 93 3 91 +50 58
 44 0 52 91 94 0 +5.375 5 -0 0 1 0 50 94 43 0 85 58 95 0 +10.75 2.5 0 1 0 0 14 8
5 1 0 79 90 96 3 94 +50 95 34 0 68 94 97 0 +5.375 2.5 0 0 0 -1 14 68 6 0 65 67 9
8 3 95 +51 97 389 0 88 95 99 0 +4 2.5 .5 0 0 -1 1.25 14 88 376 0 82 100 101 3 97
 -50 99 387 0 100 97 17 0 +4 2.5 .5 0 -0 1 14 100 370 0 88 10 102 3 99 -50 17 42
1 0 10 99 7 0 +4 2.5 2.5 0 -0 1 14 10 412 0 100 4 103 3 17 -15 103 413 0 104 10
 0 17 104 103 104 104 0 12 5 17 12 11 12 12 0 104 5 15 11 410 0 12 4 105 15 105
 411 0 106 4 0 17 106 105 106 106 0 107 13 17 107 102 107 107 0 106 13 16 13 399
 0 107 5 108 18 16 108 385 0 109 13 110 111 31 18 402 0 13 111 8 0 +4 2.5 .5 0 -
0 1 1 31 111 394 0 108 112 18 0 +4 2.5 .5 0 -0 1 1.25 31 112 366 0 110 113 111 0
 +4 2.5 .25 0 -0 1 1.25 16 110 363 0 114 108 115 112 30 113 39 0 116 117 112 0 +
5.375 0 0 1 0 0 16 116 9 0 21 118 119 113 30 117 40 0 119 120 113 0 +10.75 2.5 0
 0 1 0 16 119 3 0 25 116 121 117 30 120 41 0 122 123 117 0 +5.375 5 -0 -1 0 0 16
 122 13 0 29 124 118 120 30 123 42 0 118 125 120 0 +0 2.5 0 0 -1 0 16 118 11 0 3
1 122 116 123 30 125 47 0 126 127 123 0 +10.75 0 0 0 0 1 16 126 15 0 34 128 129
 125 30 127 48 0 130 131 125 0 +10.75 5 -0 0 0 1 16 130 17 0 37 129 132 127 30 1
31 49 0 133 134 127 0 +0 5 -0 0 0 1 16 133 19 0 40 115 135 131 30 134 50 0 136 1
37 131 0 +0 0 0 0 0 1 16 136 21 0 42 135 128 134 30 137 56 0 129 138 134 0 +10.7
5 2.5 5 0 -1 0 16 129 22 0 139 126 130 137 30 138 57 0 115 140 137 0 +5.375 5 5
 1 0 0 16 115 25 0 141 110 133 138 30 140 58 0 135 142 138 0 +0 2.5 5 0 1 0 16 1
35 28 0 143 133 136 140 30 142 59 0 128 144 140 0 +5.375 0 5 -1 0 0 16 128 31 0
 145 136 126 142 31 144 135 0 121 146 142 0 +.75 4.25 0 0 0 -1 .25 16 121 132 0
 147 119 148 144 31 146 160 0 132 149 144 0 +.75 4.25 1.6 0 0 -1 .25 16 132 152
 0 150 130 151 146 31 149 165 0 148 152 146 0 +10 4.25 0 0 0 -1 .25 16 148 162 0
 153 121 154 149 31 152 190 0 151 155 149 0 +10 4.25 1.6 0 0 -1 .25 16 151 182 0
 156 132 157 152 31 155 195 0 154 158 152 0 +10 .75 0 0 0 -1 .25 16 154 192 0 15
9 148 160 155 31 158 220 0 157 161 155 0 +10 .75 1.6 0 0 -1 .25 16 157 212 0 162
 151 124 158 31 161 225 0 160 163 158 0 +.75 .75 0 0 0 -1 .25 16 160 222 0 164 1
54 165 161 31 163 250 0 124 166 161 0 +.75 .75 1.6 0 0 -1 .25 16 124 242 0 62 15
7 122 163 31 166 318 0 165 167 163 0 +4 2.5 0 0 0 -1 1.5 16 165 315 0 168 160 16
9 166 31 167 352 0 169 0 166 0 +4 2.5 .25 0 -0 1 1.5 16 169 343 0 170 165 0 167
 17 170 171 170 170 0 172 169 15 171 335 0 170 173 174 17 172 175 172 172 0 170
 169 15 175 329 0 172 65 0 14 65 328 0 173 68 176 3 63 -14 173 334 0 0 65 171 3
 66 -15 176 364 0 114 65 175 17 114 176 114 114 0 177 110 17 177 178 177 177 0 1
14 110 15 178 378 0 177 88 0 51 66 347 0 173 0 63 0 +4 2.5 .25 0 0 -1 1.5 15 174
 336 0 168 173 0 17 168 174 168 168 0 179 165 17 179 98 179 179 0 168 165 15 98
 317 0 179 68 180 15 180 224 0 181 68 182 17 181 180 181 181 0 164 160 15 182 19
4 0 183 68 184 17 183 182 183 183 0 159 154 15 184 164 0 185 68 186 17 185 184 1
85 185 0 153 148 15 186 134 0 187 68 188 17 187 186 187 187 0 147 121 15 188 5 0
 189 68 0 17 189 188 190 191 19 25 119 17 190 188 192 189 22 21 116 17 191 188 1
89 192 23 29 122 17 25 96 37 193 23 189 119 15 96 4 0 25 85 0 17 37 96 139 25 26
 194 130 17 193 96 25 139 19 34 126 17 139 96 193 37 32 195 129 17 34 92 145 21
 32 193 126 15 92 29 0 34 90 0 17 145 92 196 34 35 197 128 17 21 92 34 196 19 19
0 116 17 196 92 21 145 22 42 136 17 42 93 143 31 35 196 136 15 93 26 0 42 56 0 1
7 143 93 198 42 38 199 135 17 31 93 42 198 22 192 118 17 198 93 31 143 27 40 133
 17 192 188 191 190 27 31 118 17 40 57 141 29 38 198 133 15 57 23 0 40 52 0 17 1
41 57 194 40 26 200 115 17 29 57 40 194 27 191 122 17 194 57 29 141 23 37 130 17
 200 89 199 195 38 141 115 15 89 32 0 197 82 0 17 199 89 197 200 35 143 135 17 1
95 89 200 197 26 139 129 17 197 89 195 199 32 145 128 17 147 86 147 147 0 187 12
1 15 86 148 0 147 79 201 15 201 149 0 202 79 0 17 202 201 202 202 0 150 132 17 1
50 83 150 150 0 202 132 15 83 143 0 150 76 203 15 203 144 0 14 76 0 17 14 203 14
 14 6 0 0 17 153 80 153 153 0 185 148 15 80 178 0 153 73 204 15 204 179 0 205 73
 0 17 205 204 205 205 0 156 151 17 156 77 156 156 0 205 151 15 77 173 0 156 59 2
06 15 206 174 0 45 59 0 17 45 206 45 45 15 0 0 17 159 74 159 159 0 183 154 15 74
 208 0 159 69 207 15 207 209 0 208 69 0 17 208 207 208 208 0 162 157 17 162 60 1
62 162 0 208 157 15 60 203 0 162 53 209 15 209 204 0 48 53 0 17 48 209 48 48 46
 0 0 17 164 70 164 164 0 181 160 15 70 238 0 164 67 210 15 210 239 0 211 67 0 17
 211 210 211 211 0 62 124 17 62 54 62 62 0 211 124 17 109 101 109 109 0 212 108
 15 101 377 0 109 88 178 17 212 213 212 212 0 109 108 15 213 371 0 212 100 0 15
 102 400 0 107 100 213 1 0 
