600 0 1 0           
87 GICL ACIS Healer - Source: /gicl/data5/repository/Allied-Signal/part09/part09.sat - 6 0 18 ACIS 6.0.3 Solaris 24 Sun Apr 14 00:15:24 2002 
1 9.999999999999999547e-07 1.000000000000000036e-10 
body $-1 $1 $-1 $-1 #
lump $-1 $-1 $2 $0 #
shell $-1 $-1 $-1 $3 $-1 $1 #
face $-1 $4 $5 $2 $-1 $6 reversed single #
face $-1 $7 $8 $2 $-1 $9 reversed single #
loop $-1 $-1 $10 $3 #
plane-surface $-1 -0.1740000000000000158 -0.2580000000000000071 -0.1819999999999999951 0 0 -1 -1 0 0 forward_v I I I I #
face $-1 $11 $12 $2 $-1 $13 reversed single #
loop $-1 $14 $15 $4 #
cone-surface $-1 -0.1740000000000000158 -0.2580000000000000071 0 0 0 -1 0.0560000000000000081 0 0 1 I I 0 1 0.0560000000000000081 forward I I I I #
coedge $-1 $10 $10 $15 $16 forward $5 $-1 #
face $-1 $17 $18 $2 $-1 $19 reversed single #
loop $-1 $-1 $20 $7 #
plane-surface $-1 -0.1469999999999999918 0.3900000000000000133 -0.1819999999999999951 0 0 -1 -1 0 0 forward_v I I I I #
loop $-1 $-1 $21 $4 #
coedge $-1 $15 $15 $10 $16 reversed $8 $-1 #
edge $-1 $22 0 $22 6.283185307179586232 $10 $23 forward 7 unknown #
face $-1 $24 $25 $2 $-1 $26 reversed single #
loop $-1 $27 $28 $11 #
cone-surface $-1 -0.1469999999999999918 0.3900000000000000133 0 0 0 -1 0.0560000000000000081 0 0 1 I I 0 1 0.0560000000000000081 forward I I I I #
coedge $-1 $20 $20 $28 $29 forward $12 $-1 #
coedge $-1 $21 $21 $30 $31 forward $14 $-1 #
vertex $-1 $16 $32 #
ellipse-curve $-1 -0.1740000000000000158 -0.2580000000000000071 -0.1819999999999999951 0 0 1 0.0560000000000000081 0 0 1 I I #
face $-1 $33 $34 $2 $-1 $35 reversed single #
loop $-1 $36 $37 $17 #
cone-surface $-1 -0.1199999999999999956 0.2080000000000000182 0 0 0 -1 0.05424999999999999961 0 0 1 I I 0 1 0.05424999999999999961 forward I I I I #
loop $-1 $-1 $38 $11 #
coedge $-1 $28 $28 $20 $29 reversed $18 $-1 #
edge $-1 $39 0 $39 6.283185307179586232 $20 $40 forward 7 unknown #
coedge $-1 $30 $30 $21 $31 reversed $41 $-1 #
edge $-1 $42 0 $42 6.283185307179586232 $21 $43 forward 7 unknown #
point $-1 -0.1180000000000000077 -0.2580000000000000071 -0.1819999999999999951 #
face $-1 $44 $45 $2 $-1 $46 reversed single #
loop $-1 $47 $48 $24 #
cone-surface $-1 0.1199999999999999956 -0.2080000000000000182 0 0 0 -1 0.05424999999999999961 0 0 1 I I 0 1 0.05424999999999999961 forward I I I I #
loop $-1 $-1 $49 $17 #
coedge $-1 $37 $37 $50 $51 forward $25 $-1 #
coedge $-1 $38 $38 $52 $53 forward $27 $-1 #
vertex $-1 $29 $54 #
ellipse-curve $-1 -0.1469999999999999918 0.3900000000000000133 -0.1819999999999999951 0 0 1 0.0560000000000000081 0 0 1 I I #
loop $-1 $55 $30 $44 #
vertex $-1 $31 $56 #
ellipse-curve $-1 -0.1740000000000000158 -0.2580000000000000071 0 0 0 1 0.0560000000000000081 0 0 1 I I #
face $-1 $57 $41 $2 $-1 $58 forward single #
loop $-1 $59 $60 $33 #
cone-surface $-1 0 0 -0.3379999999999999671 0 0 1 0.1545000000000000262 0 0 1 I I 0 1 0.1545000000000000262 forward I I I I #
loop $-1 $-1 $61 $24 #
coedge $-1 $48 $48 $62 $63 forward $34 $-1 #
coedge $-1 $49 $49 $64 $65 forward $36 $-1 #
coedge $-1 $50 $50 $37 $51 reversed $66 $-1 #
edge $-1 $67 0 $67 6.283185307179586232 $37 $68 forward 7 unknown #
coedge $-1 $52 $52 $38 $53 reversed $55 $-1 #
edge $-1 $69 0 $69 6.283185307179586232 $38 $70 forward 7 unknown #
point $-1 -0.09099999999999999756 0.3900000000000000133 -0.1819999999999999951 #
loop $-1 $71 $52 $44 #
point $-1 -0.1180000000000000077 -0.2580000000000000071 0 #
face $-1 $72 $73 $2 $-1 $74 reversed single #
plane-surface $-1 0.201000000000000012 -0.1570000000000000007 0 0 0 1 1 0 0 forward_v I I I I #
loop $-1 $-1 $75 $33 #
coedge $-1 $60 $60 $76 $77 forward $45 $-1 #
coedge $-1 $61 $61 $78 $79 forward $47 $-1 #
coedge $-1 $62 $62 $48 $63 reversed $80 $-1 #
edge $-1 $81 0 $81 6.283185307179586232 $48 $82 forward 7 unknown #
coedge $-1 $64 $64 $49 $65 reversed $83 $-1 #
edge $-1 $84 -6.283185307179586232 $84 -0 $49 $85 reversed 7 unknown #
loop $-1 $80 $50 $86 #
vertex $-1 $51 $87 #
ellipse-curve $-1 -0.1199999999999999956 0.2080000000000000182 -0.2999999999999999889 0 0 1 0.05424999999999999961 0 0 1 I I #
vertex $-1 $53 $88 #
ellipse-curve $-1 -0.1469999999999999918 0.3900000000000000133 0 0 0 1 0.0560000000000000081 0 0 1 I I #
loop $-1 $89 $90 $44 #
face $-1 $91 $92 $2 $-1 $93 reversed single #
loop $-1 $-1 $94 $57 #
plane-surface $-1 0.1572263491375688882 0.1739945127795531621 0.09099999999999999756 0.8620840077385620859 0.5067653930581871302 0 0 0 -1 forward_v I I I I #
coedge $-1 $75 $75 $95 $96 forward $59 $-1 #
coedge $-1 $76 $76 $60 $77 reversed $97 $-1 #
edge $-1 $98 0 $98 6.283185307179586232 $60 $99 forward 7 unknown #
coedge $-1 $78 $78 $61 $79 reversed $100 $-1 #
edge $-1 $101 -6.283185307179586232 $101 -0 $61 $102 reversed 7 unknown #
loop $-1 $97 $62 $86 #
vertex $-1 $63 $103 #
ellipse-curve $-1 0.1199999999999999956 -0.2080000000000000182 -0.2999999999999999889 0 0 1 0.05424999999999999961 0 0 1 I I #
loop $-1 $100 $64 $104 #
vertex $-1 $65 $105 #
ellipse-curve $-1 -0.1199999999999999956 0.2080000000000000182 -0.3379999999999999671 0 0 1 0.05424999999999999961 0 0 1 I I #
face $-1 $-1 $66 $2 $-1 $106 forward single #
point $-1 -0.06575000000000000289 0.2080000000000000182 -0.2999999999999999889 #
point $-1 -0.09099999999999999756 0.3900000000000000133 0 #
loop $-1 $-1 $107 $44 #
coedge $-1 $108 $109 $110 $111 forward $71 $-1 #
face $-1 $112 $113 $2 $-1 $114 reversed single #
loop $-1 $-1 $115 $72 #
cone-surface $-1 -0.1400000000000000133 0.3560000000000000386 0.09099999999999999756 0 0 -1 0.1640000000000000069 0 0 1 I I 0 1 0.1640000000000000069 forward I I I I #
coedge $-1 $116 $117 $118 $119 forward $73 $-1 #
coedge $-1 $95 $95 $75 $96 reversed $120 $-1 #
edge $-1 $121 -6.283185307179586232 $121 -0 $75 $122 reversed 7 unknown #
loop $-1 $123 $76 $86 #
vertex $-1 $77 $124 #
ellipse-curve $-1 0 0 -0.2999999999999999889 0 0 1 0.1545000000000000262 0 0 1 I I #
loop $-1 $120 $78 $104 #
vertex $-1 $79 $125 #
ellipse-curve $-1 0.1199999999999999956 -0.2080000000000000182 -0.3379999999999999671 0 0 1 0.05424999999999999961 0 0 1 I I #
point $-1 0.1742499999999999882 -0.2080000000000000182 -0.2999999999999999889 #
face $-1 $126 $83 $2 $-1 $127 reversed single #
point $-1 -0.06575000000000000289 0.2080000000000000182 -0.3379999999999999671 #
plane-surface $-1 -0.1040000000000000091 0.1799999999999999933 -0.2999999999999999889 0 0 1 1 0 0 forward_v I I I I #
coedge $-1 $128 $129 $130 $131 forward $89 $-1 #
coedge $-1 $132 $90 $117 $133 forward $71 $-1 #
coedge $-1 $90 $134 $135 $136 forward $71 $-1 #
coedge $-1 $137 $118 $90 $111 reversed $138 $-1 #
edge $-1 $139 -1.307705965392549574 $140 0.531428555877342168 $90 $141 forward 7 unknown #
face $-1 $142 $143 $2 $-1 $144 reversed single #
loop $-1 $-1 $145 $91 #
plane-surface $-1 -0.304000000000000048 0.04900000000000000189 0.09099999999999999756 -1 -6.95197473957721002e-18 0 0 0 1 forward_v I I I I #
coedge $-1 $146 $147 $148 $149 reversed $92 $-1 #
coedge $-1 $148 $94 $150 $151 forward $73 $-1 #
coedge $-1 $94 $148 $108 $133 reversed $73 $-1 #
coedge $-1 $110 $152 $94 $119 reversed $138 $-1 #
edge $-1 $140 -0.09099999999999999756 $153 -0 $94 $154 reversed 7 unknown #
loop $-1 $155 $95 $104 #
vertex $-1 $96 $156 #
ellipse-curve $-1 0 0 -0.3379999999999999671 0 0 1 0.1545000000000000262 0 0 1 I I #
loop $-1 $-1 $157 $86 #
point $-1 0.1545000000000000262 0 -0.2999999999999999889 #
point $-1 0.1742499999999999882 -0.2080000000000000182 -0.3379999999999999671 #
face $-1 $158 $159 $2 $-1 $160 reversed single #
plane-surface $-1 -0.1740000000000000158 -0.2580000000000000071 -0.3379999999999999671 0 0 1 1 0 0 forward_v I I I I #
coedge $-1 $161 $107 $162 $163 forward $89 $-1 #
coedge $-1 $107 $164 $165 $166 forward $89 $-1 #
coedge $-1 $167 $168 $107 $131 reversed $169 $-1 #
edge $-1 $170 -3.217768537828392894 $171 -0.9716628111317976435 $107 $172 reversed 7 unknown #
coedge $-1 $173 $108 $147 $174 forward $71 $-1 #
edge $-1 $140 -0.6150560950027247342 $175 -0 $108 $176 reversed 7 unknown #
coedge $-1 $109 $173 $177 $178 forward $71 $-1 #
coedge $-1 $179 $180 $109 $136 reversed $181 $-1 #
edge $-1 $182 -0.3883632320392861326 $139 -0 $109 $183 reversed 7 unknown #
coedge $-1 $152 $110 $180 $184 reversed $138 $-1 #
loop $-1 $-1 $152 $185 #
vertex $-1 $111 $186 #
vertex $-1 $111 $187 #
ellipse-curve $-1 0.201000000000000012 -0.1570000000000000007 0 0 0 1 0.1300000000000000044 0 0 1 I I #
face $-1 $185 $181 $2 $-1 $188 reversed single #
loop $-1 $-1 $189 $112 #
cone-surface $-1 -0.1740000000000000158 -0.2580000000000000071 0.09099999999999999756 0 0 -1 0.1300000000000000044 0 0 1 I I 0 1 0.1300000000000000044 forward I I I I #
coedge $-1 $190 $191 $192 $193 reversed $113 $-1 #
coedge $-1 $192 $115 $194 $195 forward $92 $-1 #
coedge $-1 $115 $192 $132 $174 reversed $92 $-1 #
coedge $-1 $117 $116 $115 $149 forward $73 $-1 #
edge $-1 $196 0 $175 0.09099999999999999756 $148 $197 forward 7 unknown #
coedge $-1 $198 $194 $116 $151 reversed $199 $-1 #
edge $-1 $153 -0.6150560950027247342 $196 -0 $116 $200 reversed 7 unknown #
coedge $-1 $118 $137 $198 $201 forward $138 $-1 #
vertex $-1 $119 $202 #
straight-curve $-1 0.3130709210060133585 -0.09112049890243642536 0.09099999999999999756 0 0 -1 I I #
loop $-1 $-1 $203 $104 #
point $-1 0.1545000000000000262 0 -0.3379999999999999671 #
coedge $-1 $204 $205 $206 $207 reversed $123 $-1 #
face $-1 $208 $199 $2 $-1 $209 forward single #
loop $-1 $-1 $210 $126 #
plane-surface $-1 0.05511053021199827096 -0.3619945428663303155 -0.3379999999999999671 -0.2600658138249893891 0.9655908929145645692 0 0 0 1 forward_v I I I I #
coedge $-1 $211 $128 $212 $213 forward $89 $-1 #
coedge $-1 $214 $215 $128 $163 reversed $216 $-1 #
edge $-1 $171 0 $217 0.1873926359278830223 $128 $218 forward 7 unknown #
coedge $-1 $129 $219 $220 $221 forward $89 $-1 #
coedge $-1 $222 $223 $129 $166 reversed $224 $-1 #
edge $-1 $225 -0.187392635927882828 $170 -0 $129 $226 reversed 7 unknown #
coedge $-1 $206 $130 $223 $227 reversed $169 $-1 #
coedge $-1 $130 $206 $214 $228 reversed $169 $-1 #
loop $-1 $-1 $130 $229 #
vertex $-1 $131 $230 #
vertex $-1 $131 $231 #
ellipse-curve $-1 -0.1040000000000000091 0.1799999999999999933 0 0 0 1 0.1300000000000000044 0 0 1 I I #
coedge $-1 $134 $132 $191 $232 forward $71 $-1 #
edge $-1 $175 0.53142855587734672 $233 3.141592653589793116 $132 $234 forward 7 unknown #
vertex $-1 $133 $235 #
straight-curve $-1 0.001381777269124238134 0.4391095244615424997 0 0.5067653930581865751 -0.8620840077385624189 0 I I #
coedge $-1 $189 $236 $134 $178 reversed $143 $-1 #
edge $-1 $237 -3.141592653589793116 $182 -1.307705965392552461 $134 $238 forward 7 unknown #
coedge $-1 $239 $135 $236 $240 reversed $181 $-1 #
coedge $-1 $135 $239 $137 $184 forward $181 $-1 #
loop $-1 $-1 $179 $142 #
vertex $-1 $178 $241 #
straight-curve $-1 0.2348085557972488246 -0.2825268160788932947 -8.537024980200825639e-18 -0.9655908929145646802 -0.2600658138249892226 2.198206286257613537e-17 I I #
edge $-1 $242 0 $139 0.09100000000000001144 $180 $243 forward 7 unknown #
face $-1 $244 $138 $2 $-1 $245 reversed single #
point $-1 0.2348085557972488246 -0.2825268160788932947 -8.537024980200825639e-18 #
point $-1 0.3130709210060133585 -0.09112049890243642536 0 #
plane-surface $-1 0.04730855579724842913 -0.3330268160788932841 0.09099999999999999756 0.2600658138249893891 -0.9655908929145645692 0 0 0 -1 forward_v I I I I #
coedge $-1 $246 $177 $247 $248 reversed $143 $-1 #
coedge $-1 $247 $145 $249 $250 forward $113 $-1 #
coedge $-1 $145 $247 $173 $232 reversed $113 $-1 #
coedge $-1 $147 $146 $145 $193 forward $92 $-1 #
edge $-1 $251 0 $233 0.09099999999999999756 $192 $252 forward 7 unknown #
coedge $-1 $150 $249 $146 $195 reversed $199 $-1 #
edge $-1 $196 0.53142855587734672 $251 3.141592653589793116 $146 $253 forward 7 unknown #
vertex $-1 $151 $254 #
straight-curve $-1 0.001381777269124238134 0.4391095244615424997 0.09099999999999999756 0 0 -1 I I #
coedge $-1 $255 $150 $152 $201 reversed $199 $-1 #
loop $-1 $256 $150 $158 #
straight-curve $-1 0.001381777269124238134 0.4391095244615424997 0.09099999999999999756 0.5067653930581865751 -0.8620840077385624189 0 I I #
edge $-1 $242 -1.307705965392549574 $153 0.531428555877342168 $152 $257 forward 7 unknown #
point $-1 0.3130709210060133585 -0.09112049890243642536 0.09099999999999999756 #
coedge $-1 $258 $259 $210 $260 forward $155 $-1 #
coedge $-1 $261 $157 $262 $263 reversed $123 $-1 #
coedge $-1 $157 $264 $265 $266 reversed $123 $-1 #
coedge $-1 $168 $167 $157 $207 forward $169 $-1 #
edge $-1 $267 -3.217768537828392894 $268 -0.9716628111317976435 $206 $269 reversed 7 unknown #
face $-1 $270 $216 $2 $-1 $271 forward single #
plane-surface $-1 -0.1740000000000000158 -0.2580000000000000071 0.09099999999999999756 0 0 1 1 0 0 forward_v I I I I #
coedge $-1 $272 $273 $203 $260 reversed $159 $-1 #
coedge $-1 $274 $161 $275 $276 forward $89 $-1 #
coedge $-1 $277 $278 $161 $213 reversed $279 $-1 #
edge $-1 $217 -0.9716628111317962002 $280 -0.07617588423860081892 $161 $281 reversed 7 unknown #
coedge $-1 $265 $162 $168 $228 forward $216 $-1 #
coedge $-1 $162 $265 $277 $282 forward $216 $-1 #
loop $-1 $-1 $214 $208 #
vertex $-1 $163 $283 #
straight-curve $-1 -0.03068947425230338782 0.2873571926542248245 0 0.8258245588786510272 -0.5639271211361283065 0 I I #
coedge $-1 $164 $274 $284 $285 forward $89 $-1 #
coedge $-1 $286 $287 $164 $221 reversed $288 $-1 #
edge $-1 $289 2.169929842457997804 $225 3.06541676935119245 $164 $290 reversed 7 unknown #
coedge $-1 $262 $165 $287 $291 reversed $224 $-1 #
coedge $-1 $165 $262 $167 $227 forward $224 $-1 #
loop $-1 $-1 $222 $292 #
vertex $-1 $221 $293 #
straight-curve $-1 -0.233623002608118524 0.1701067096041982418 0 0.07610223381385930463 -0.9971000200624513532 0 I I #
edge $-1 $267 -0.2999999999999999889 $170 -0 $223 $294 reversed 7 unknown #
edge $-1 $171 0 $268 0.2999999999999999889 $214 $295 forward 7 unknown #
face $-1 $86 $169 $2 $-1 $296 reversed single #
point $-1 -0.233623002608118524 0.1701067096041982418 0 #
point $-1 -0.03068947425230338782 0.2873571926542248245 0 #
edge $-1 $233 -0.6140000000000001013 $237 -0 $173 $297 reversed 7 unknown #
vertex $-1 $174 $298 #
ellipse-curve $-1 -0.1400000000000000133 0.3560000000000000386 0 0 0 1 0.1640000000000000069 0 0 1 I I #
point $-1 0.001381777269124238134 0.4391095244615424997 0 #
coedge $-1 $177 $246 $179 $240 forward $143 $-1 #
vertex $-1 $232 $299 #
ellipse-curve $-1 -0.1740000000000000158 -0.2580000000000000071 0 0 0 1 0.1300000000000000044 0 0 1 I I #
coedge $-1 $180 $179 $255 $300 forward $181 $-1 #
edge $-1 $301 0 $182 0.09099999999999999756 $236 $302 forward 7 unknown #
point $-1 -0.1401914442027515917 -0.3835268160788933289 0 #
vertex $-1 $300 $303 #
straight-curve $-1 0.2348085557972488246 -0.2825268160788932947 0.09099999999999999756 0 0 -1 I I #
face $-1 $304 $305 $2 $-1 $306 forward single #
cone-surface $-1 0.201000000000000012 -0.1570000000000000007 0.09099999999999999756 0 0 -1 0.1300000000000000044 0 0 1 I I 0 1 0.1300000000000000044 forward I I I I #
coedge $-1 $236 $189 $307 $308 forward $143 $-1 #
coedge $-1 $191 $190 $189 $248 forward $113 $-1 #
edge $-1 $309 0 $237 0.09099999999999999756 $247 $310 forward 7 unknown #
coedge $-1 $194 $307 $190 $250 reversed $199 $-1 #
edge $-1 $251 -0.6140000000000001013 $309 -0 $190 $311 reversed 7 unknown #
vertex $-1 $195 $312 #
straight-curve $-1 -0.304000000000000048 0.3560000000000000386 0.09099999999999999756 0 0 -1 I I #
ellipse-curve $-1 -0.1400000000000000133 0.3560000000000000386 0.09099999999999999756 0 0 1 0.1640000000000000069 0 0 1 I I #
point $-1 0.001381777269124238134 0.4391095244615424997 0.09099999999999999756 #
coedge $-1 $307 $198 $239 $300 reversed $199 $-1 #
loop $-1 $-1 $313 $158 #
ellipse-curve $-1 0.201000000000000012 -0.1570000000000000007 0.09099999999999999756 0 0 1 0.1300000000000000044 0 0 1 I I #
coedge $-1 $314 $203 $315 $316 reversed $155 $-1 #
coedge $-1 $203 $317 $318 $319 reversed $155 $-1 #
edge $-1 $320 0 $321 0.388363232039285966 $203 $322 forward 7 unknown #
coedge $-1 $323 $204 $324 $325 reversed $123 $-1 #
coedge $-1 $223 $222 $204 $263 forward $224 $-1 #
edge $-1 $326 -0.187392635927882828 $267 -0 $262 $327 reversed 7 unknown #
coedge $-1 $205 $328 $329 $330 reversed $123 $-1 #
coedge $-1 $215 $214 $205 $266 forward $216 $-1 #
edge $-1 $268 -0.1873926359278830223 $331 -0 $265 $332 reversed 7 unknown #
vertex $-1 $263 $333 #
vertex $-1 $228 $334 #
ellipse-curve $-1 -0.1040000000000000091 0.1799999999999999933 -0.2999999999999999889 0 0 1 0.1300000000000000044 0 0 1 I I #
face $-1 $335 $279 $2 $-1 $336 reversed single #
plane-surface $-1 0.04668724619882236304 0.2345192978037641818 0 -0.5639271211361276404 -0.8258245588786514713 0 0 0 1 forward_v I I I I #
coedge $-1 $337 $210 $338 $339 reversed $159 $-1 #
coedge $-1 $210 $337 $340 $341 reversed $159 $-1 #
coedge $-1 $219 $211 $342 $343 forward $89 $-1 #
coedge $-1 $344 $345 $211 $276 reversed $346 $-1 #
edge $-1 $280 -0.1873926359278834664 $347 -0 $211 $348 reversed 7 unknown #
coedge $-1 $329 $212 $215 $282 reversed $279 $-1 #
coedge $-1 $212 $329 $344 $349 forward $279 $-1 #
loop $-1 $-1 $277 $270 #
vertex $-1 $213 $350 #
ellipse-curve $-1 0 0 0 0 0 1 0.2200000000000000011 0 0 1 I I #
edge $-1 $331 -0.2999999999999999889 $217 -0 $215 $351 reversed 7 unknown #
point $-1 0.1240639666499482319 0.1816814029533031505 0 #
coedge $-1 $352 $353 $219 $285 reversed $354 $-1 #
edge $-1 $355 -0.1873926359278832166 $289 -0 $219 $356 reversed 7 unknown #
coedge $-1 $324 $220 $353 $357 reversed $288 $-1 #
coedge $-1 $220 $324 $222 $291 forward $288 $-1 #
loop $-1 $-1 $286 $358 #
vertex $-1 $285 $359 #
ellipse-curve $-1 0 0 0 0 0 1 0.2200000000000000011 0 0 1 I I #
edge $-1 $326 -0.2999999999999999889 $225 -0 $287 $360 reversed 7 unknown #
face $-1 $229 $224 $2 $-1 $361 forward single #
point $-1 -0.2193620044137393754 -0.01674249143904935067 0 #
straight-curve $-1 -0.233623002608118524 0.1701067096041982418 0 0 0 -1 I I #
straight-curve $-1 -0.03068947425230338782 0.2873571926542248245 0 0 0 -1 I I #
cone-surface $-1 -0.1040000000000000091 0.1799999999999999933 0 0 0 -1 0.1300000000000000044 0 0 1 I I 0 1 0.1300000000000000044 forward I I I I #
straight-curve $-1 -0.304000000000000048 -0.2580000000000000071 0 0 1 0 I I #
point $-1 -0.304000000000000048 0.3560000000000000386 0 #
point $-1 -0.304000000000000048 -0.2580000000000000071 0 #
edge $-1 $301 0 $242 0.3883632320392861326 $239 $362 forward 7 unknown #
vertex $-1 $308 $363 #
straight-curve $-1 -0.1401914442027515917 -0.3835268160788933289 0.09099999999999999756 0 0 -1 I I #
point $-1 0.2348085557972488246 -0.2825268160788932947 0.09099999999999999756 #
face $-1 $364 $365 $2 $-1 $366 reversed single #
loop $-1 $-1 $340 $244 #
cone-surface $-1 -0.1740000000000000158 -0.2580000000000000071 -0.3379999999999999671 0 0 1 0.1600000000000000033 0 0 1 I I 0 1 0.1600000000000000033 forward I I I I #
coedge $-1 $249 $255 $246 $308 reversed $199 $-1 #
edge $-1 $309 -3.141592653589793116 $301 -1.307705965392552461 $246 $367 forward 7 unknown #
vertex $-1 $250 $368 #
straight-curve $-1 -0.304000000000000048 -0.2580000000000000071 0.09099999999999999756 0 0 -1 I I #
straight-curve $-1 -0.304000000000000048 -0.2580000000000000071 0.09099999999999999756 0 1 0 I I #
point $-1 -0.304000000000000048 0.3560000000000000386 0.09099999999999999756 #
coedge $-1 $369 $370 $337 $371 reversed $256 $-1 #
coedge $-1 $372 $258 $373 $374 reversed $155 $-1 #
coedge $-1 $340 $375 $258 $316 forward $305 $-1 #
edge $-1 $376 -3.141592653589793116 $321 -1.307705965392552239 $315 $377 forward 7 unknown #
coedge $-1 $259 $372 $378 $379 reversed $155 $-1 #
coedge $-1 $380 $338 $259 $319 forward $381 $-1 #
edge $-1 $320 -1.307705965392550462 $382 0.5314285558773416129 $318 $383 forward 7 unknown #
vertex $-1 $339 $384 #
vertex $-1 $341 $385 #
straight-curve $-1 0.2426105302119984375 -0.3114945428663303817 -0.3379999999999999671 -0.9655908929145643471 -0.2600658138249901663 0 I I #
coedge $-1 $386 $261 $387 $388 reversed $123 $-1 #
coedge $-1 $287 $286 $261 $325 forward $288 $-1 #
edge $-1 $389 2.169929842457997804 $326 3.06541676935119245 $324 $390 reversed 7 unknown #
vertex $-1 $325 $391 #
straight-curve $-1 -0.233623002608118524 0.1701067096041982418 -0.2999999999999999889 0.07610223381385930463 -0.9971000200624513532 0 I I #
coedge $-1 $264 $386 $392 $393 reversed $123 $-1 #
coedge $-1 $278 $277 $264 $330 forward $279 $-1 #
edge $-1 $331 -0.9716628111317962002 $394 -0.07617588423860081892 $329 $395 reversed 7 unknown #
vertex $-1 $266 $396 #
straight-curve $-1 0.1240639666499482319 0.1816814029533031505 -0.2999999999999999889 -0.8258245588786510272 0.5639271211361283065 0 I I #
point $-1 -0.233623002608118524 0.1701067096041982418 -0.2999999999999999889 #
point $-1 -0.03068947425230338782 0.2873571926542248245 -0.2999999999999999889 #
face $-1 $397 $346 $2 $-1 $398 forward single #
cone-surface $-1 0 0 0 0 0 -1 0.2200000000000000011 0 0 1 I I 0 1 0.2200000000000000011 forward I I I I #
coedge $-1 $273 $272 $313 $371 forward $159 $-1 #
coedge $-1 $318 $399 $272 $339 forward $381 $-1 #
edge $-1 $400 -0.4289999999999999369 $320 -0 $338 $401 reversed 7 unknown #
coedge $-1 $402 $315 $273 $341 forward $305 $-1 #
edge $-1 $321 0 $403 0.4289999999999999369 $340 $404 forward 7 unknown #
coedge $-1 $405 $406 $274 $343 reversed $407 $-1 #
edge $-1 $347 -0.07617588423859499025 $355 2.169929842457995584 $274 $408 reversed 7 unknown #
coedge $-1 $392 $275 $278 $349 reversed $346 $-1 #
coedge $-1 $275 $392 $405 $409 forward $346 $-1 #
loop $-1 $-1 $344 $335 #
vertex $-1 $276 $410 #
straight-curve $-1 0.2336230026081189126 -0.1701067096041988524 0 -0.07610223381386103936 0.9971000200624511312 0 I I #
edge $-1 $394 -0.2999999999999999889 $280 -0 $278 $411 reversed 7 unknown #
point $-1 0.2193620044137393754 0.01674249143904935067 0 #
straight-curve $-1 0.1240639666499482319 0.1816814029533031505 0 0 0 -1 I I #
coedge $-1 $387 $284 $406 $412 reversed $354 $-1 #
coedge $-1 $284 $387 $286 $357 forward $354 $-1 #
loop $-1 $-1 $352 $413 #
vertex $-1 $343 $414 #
straight-curve $-1 -0.1240639666499484262 -0.1816814029533031505 0 0.8258245588786514713 -0.5639271211361277514 0 I I #
edge $-1 $389 -0.2999999999999999889 $289 -0 $353 $415 reversed 7 unknown #
face $-1 $292 $288 $2 $-1 $416 reversed single #
point $-1 -0.1240639666499484262 -0.1816814029533031505 0 #
straight-curve $-1 -0.2193620044137393754 -0.01674249143904935067 0 0 0 -1 I I #
plane-surface $-1 -0.2264925035109291163 0.07668210908257441782 0 0.9971000200624512422 0.07610223381386072017 0 0 0 -1 forward_v I I I I #
straight-curve $-1 -0.1401914442027515917 -0.3835268160788933289 0.09099999999999999756 0.9655908929145646802 0.2600658138249892226 0 I I #
point $-1 -0.1401914442027515917 -0.3835268160788933289 0.09099999999999999756 #
face $-1 $417 $418 $2 $-1 $419 forward single #
loop $-1 $-1 $420 $304 #
plane-surface $-1 -0.3340000000000000191 0.04900000000000000189 -0.3379999999999999671 1 0 0 0 0 -1 forward_v I I I I #
ellipse-curve $-1 -0.1740000000000000158 -0.2580000000000000071 0.09099999999999999756 0 0 1 0.1300000000000000044 0 0 1 I I #
point $-1 -0.304000000000000048 -0.2580000000000000071 0.09099999999999999756 #
coedge $-1 $421 $313 $399 $422 reversed $256 $-1 #
coedge $-1 $313 $423 $402 $424 reversed $256 $-1 #
edge $-1 $400 0 $403 0.388363232039285966 $337 $425 forward 7 unknown #
coedge $-1 $317 $314 $426 $427 reversed $155 $-1 #
coedge $-1 $420 $428 $314 $374 forward $365 $-1 #
edge $-1 $429 -0.6140000000000001013 $376 -0 $373 $430 reversed 7 unknown #
coedge $-1 $315 $402 $420 $431 forward $305 $-1 #
vertex $-1 $431 $432 #
ellipse-curve $-1 -0.1740000000000000158 -0.2580000000000000071 -0.3379999999999999671 0 0 1 0.1600000000000000033 0 0 1 I I #
coedge $-1 $433 $434 $317 $379 forward $435 $-1 #
edge $-1 $382 -0.6150560950027250673 $436 -0 $378 $437 reversed 7 unknown #
coedge $-1 $399 $318 $434 $438 reversed $381 $-1 #
loop $-1 $-1 $380 $439 #
vertex $-1 $438 $440 #
ellipse-curve $-1 0.201000000000000012 -0.1570000000000000007 -0.3379999999999999671 0 0 1 0.1600000000000000033 0 0 1 I I #
point $-1 0.2426105302119984375 -0.3114945428663303817 -0.3379999999999999671 #
point $-1 -0.1323894697880017846 -0.412494542866330749 -0.3379999999999999671 #
coedge $-1 $328 $323 $441 $442 reversed $123 $-1 #
coedge $-1 $353 $352 $323 $388 forward $354 $-1 #
edge $-1 $443 -0.1873926359278832166 $389 -0 $387 $444 reversed 7 unknown #
vertex $-1 $388 $445 #
ellipse-curve $-1 0 0 -0.2999999999999999889 0 0 1 0.2200000000000000011 0 0 1 I I #
point $-1 -0.2193620044137393754 -0.01674249143904935067 -0.2999999999999999889 #
coedge $-1 $345 $344 $328 $393 forward $346 $-1 #
edge $-1 $394 -0.1873926359278834664 $446 -0 $392 $447 reversed 7 unknown #
vertex $-1 $330 $448 #
ellipse-curve $-1 0 0 -0.2999999999999999889 0 0 1 0.2200000000000000011 0 0 1 I I #
point $-1 0.1240639666499482319 0.1816814029533031505 -0.2999999999999999889 #
face $-1 $413 $407 $2 $-1 $449 reversed single #
plane-surface $-1 0.2264925035109291163 -0.0766821090825748064 0 -0.9971000200624512422 -0.07610223381386072017 0 0 0 1 forward_v I I I I #
coedge $-1 $338 $380 $369 $422 forward $381 $-1 #
vertex $-1 $422 $450 #
straight-curve $-1 0.2426105302119984375 -0.3114945428663303817 -0.3379999999999999671 0 0 1 I I #
coedge $-1 $375 $340 $370 $424 forward $305 $-1 #
vertex $-1 $341 $451 #
straight-curve $-1 -0.1323894697880017846 -0.412494542866330749 -0.3379999999999999671 0 0 1 I I #
coedge $-1 $441 $342 $345 $409 reversed $407 $-1 #
coedge $-1 $342 $441 $352 $412 forward $407 $-1 #
loop $-1 $-1 $405 $397 #
ellipse-curve $-1 0.1040000000000000091 -0.1799999999999999933 0 0 0 1 0.1300000000000000044 0 0 1 I I #
edge $-1 $446 -0.2999999999999999889 $347 -0 $345 $452 reversed 7 unknown #
point $-1 0.2336230026081189126 -0.1701067096041988524 0 #
straight-curve $-1 0.2193620044137393754 0.01674249143904935067 0 0 0 -1 I I #
edge $-1 $443 -0.2999999999999999889 $355 -0 $406 $453 reversed 7 unknown #
face $-1 $358 $354 $2 $-1 $454 forward single #
point $-1 0.03068947425230342599 -0.2873571926542248245 0 #
straight-curve $-1 -0.1240639666499484262 -0.1816814029533031505 0 0 0 -1 I I #
cone-surface $-1 0 0 0 0 0 -1 0.2200000000000000011 0 0 1 I I 0 1 0.2200000000000000011 forward I I I I #
face $-1 $439 $435 $2 $-1 $455 reversed single #
loop $-1 $-1 $456 $364 #
cone-surface $-1 -0.1400000000000000133 0.3560000000000000386 -0.3379999999999999671 0 0 1 0.1940000000000000058 0 0 1 I I 0 1 0.1940000000000000058 forward I I I I #
coedge $-1 $457 $373 $375 $431 reversed $365 $-1 #
coedge $-1 $458 $369 $459 $460 reversed $256 $-1 #
edge $-1 $461 -0.5314285558773416129 $400 1.307705965392550462 $399 $462 reversed 7 unknown #
coedge $-1 $370 $458 $457 $463 reversed $256 $-1 #
edge $-1 $403 1.307705965392552239 $464 3.141592653589793116 $402 $465 reversed 7 unknown #
straight-curve $-1 0.2426105302119984375 -0.3114945428663303817 0.09099999999999999756 -0.9655908929145643471 -0.2600658138249901663 0 I I #
coedge $-1 $456 $466 $372 $427 forward $418 $-1 #
edge $-1 $436 0.5314285558773472751 $429 3.141592653589793116 $426 $467 forward 7 unknown #
coedge $-1 $373 $457 $456 $468 forward $365 $-1 #
vertex $-1 $468 $469 #
straight-curve $-1 -0.3340000000000000191 -0.2580000000000000071 -0.3379999999999999671 0 1 0 I I #
edge $-1 $464 -0.4289999999999999369 $376 -0 $375 $470 reversed 7 unknown #
point $-1 -0.3340000000000000191 -0.2580000000000000071 -0.3379999999999999671 #
coedge $-1 $459 $378 $466 $471 reversed $435 $-1 #
coedge $-1 $378 $459 $380 $438 forward $435 $-1 #
loop $-1 $-1 $433 $417 #
vertex $-1 $471 $472 #
straight-curve $-1 0.02724429750128110408 0.4543124862532881836 -0.3379999999999999671 0.5067653930581867971 -0.8620840077385623079 0 I I #
edge $-1 $461 -0.4289999999999999369 $382 -0 $434 $473 reversed 7 unknown #
face $-1 $104 $381 $2 $-1 $474 forward single #
point $-1 0.3389334412381704853 -0.07591753711069094968 -0.3379999999999999671 #
coedge $-1 $406 $405 $386 $442 forward $407 $-1 #
edge $-1 $446 -0.07617588423859499025 $443 2.169929842457995584 $441 $475 reversed 7 unknown #
vertex $-1 $442 $476 #
straight-curve $-1 -0.1240639666499484262 -0.1816814029533031505 -0.2999999999999999889 0.8258245588786514713 -0.5639271211361277514 0 I I #
point $-1 -0.1240639666499484262 -0.1816814029533031505 -0.2999999999999999889 #
vertex $-1 $393 $477 #
straight-curve $-1 0.2336230026081189126 -0.1701067096041988524 -0.2999999999999999889 -0.07610223381386103936 0.9971000200624511312 0 I I #
point $-1 0.2193620044137393754 0.01674249143904935067 -0.2999999999999999889 #
cone-surface $-1 0.1040000000000000091 -0.1799999999999999933 0 0 0 -1 0.1300000000000000044 0 0 1 I I 0 1 0.1300000000000000044 forward I I I I #
point $-1 0.2426105302119984375 -0.3114945428663303817 0.09099999999999999756 #
point $-1 -0.1323894697880017846 -0.412494542866330749 0.09099999999999999756 #
straight-curve $-1 0.2336230026081189126 -0.1701067096041988524 0 0 0 -1 I I #
straight-curve $-1 0.03068947425230342599 -0.2873571926542248245 0 0 0 -1 I I #
plane-surface $-1 -0.04668724619882243937 -0.2345192978037637932 0 0.5639271211361276404 0.8258245588786514713 0 0 0 -1 forward_v I I I I #
plane-surface $-1 0.1830888693697259872 0.1891974745712988459 -0.3379999999999999671 -0.8620840077385620859 -0.5067653930581871302 0 0 0 1 forward_v I I I I #
coedge $-1 $478 $426 $428 $468 reversed $418 $-1 #
coedge $-1 $428 $420 $423 $463 forward $365 $-1 #
coedge $-1 $423 $421 $478 $479 reversed $256 $-1 #
coedge $-1 $434 $433 $421 $460 forward $435 $-1 #
edge $-1 $480 0 $461 0.6150560950027250673 $459 $481 forward 7 unknown #
vertex $-1 $460 $482 #
ellipse-curve $-1 0.201000000000000012 -0.1570000000000000007 0.09099999999999999756 0 0 1 0.1600000000000000033 0 0 1 I I #
edge $-1 $464 0 $483 0.6140000000000001013 $457 $484 forward 7 unknown #
vertex $-1 $424 $485 #
ellipse-curve $-1 -0.1740000000000000158 -0.2580000000000000071 0.09099999999999999756 0 0 1 0.1600000000000000033 0 0 1 I I #
coedge $-1 $426 $478 $433 $471 forward $418 $-1 #
ellipse-curve $-1 -0.1400000000000000133 0.3560000000000000386 -0.3379999999999999671 0 0 1 0.1940000000000000058 0 0 1 I I #
edge $-1 $483 -0.4289999999999999369 $429 -0 $428 $486 reversed 7 unknown #
point $-1 -0.3340000000000000191 0.3560000000000000386 -0.3379999999999999671 #
straight-curve $-1 -0.3340000000000000191 -0.2580000000000000071 -0.3379999999999999671 0 0 1 I I #
edge $-1 $480 -0.4289999999999999369 $436 -0 $466 $487 reversed 7 unknown #
point $-1 0.02724429750128110408 0.4543124862532881836 -0.3379999999999999671 #
straight-curve $-1 0.3389334412381704853 -0.07591753711069094968 -0.3379999999999999671 0 0 1 I I #
cone-surface $-1 0.201000000000000012 -0.1570000000000000007 -0.3379999999999999671 0 0 1 0.1600000000000000033 0 0 1 I I 0 1 0.1600000000000000033 forward I I I I #
ellipse-curve $-1 0.1040000000000000091 -0.1799999999999999933 -0.2999999999999999889 0 0 1 0.1300000000000000044 0 0 1 I I #
point $-1 0.03068947425230342599 -0.2873571926542248245 -0.2999999999999999889 #
point $-1 0.2336230026081189126 -0.1701067096041988524 -0.2999999999999999889 #
coedge $-1 $466 $456 $458 $479 forward $418 $-1 #
edge $-1 $483 -3.141592653589793116 $480 -0.5314285558773472751 $478 $488 reversed 7 unknown #
vertex $-1 $479 $489 #
straight-curve $-1 0.02724429750128110408 0.4543124862532881836 0.09099999999999999756 0.5067653930581867971 -0.8620840077385623079 0 I I #
point $-1 0.3389334412381704853 -0.07591753711069094968 0.09099999999999999756 #
vertex $-1 $463 $490 #
straight-curve $-1 -0.3340000000000000191 -0.2580000000000000071 0.09099999999999999756 0 1 0 I I #
point $-1 -0.3340000000000000191 -0.2580000000000000071 0.09099999999999999756 #
straight-curve $-1 -0.3340000000000000191 0.3560000000000000386 -0.3379999999999999671 0 0 1 I I #
straight-curve $-1 0.02724429750128110408 0.4543124862532881836 -0.3379999999999999671 0 0 1 I I #
ellipse-curve $-1 -0.1400000000000000133 0.3560000000000000386 0.09099999999999999756 0 0 1 0.1940000000000000058 0 0 1 I I #
point $-1 0.02724429750128110408 0.4543124862532881836 0.09099999999999999756 #
point $-1 -0.3340000000000000191 0.3560000000000000386 0.09099999999999999756 #
End-of-ACIS-data 