106 0 1 0           
-0 body $-1 $1 $-1 $-1 #
-1 lump $-1 $-1 $2 $0 #
-2 shell $-1 $-1 $-1 $3 $1 #
-3 face $-1 $4 $5 $2 $-1 $6 reversed single #
-4 face $-1 $7 $8 $2 $-1 $9 reversed single #
-5 loop $-1 $-1 $10 $3 #
-6 plane-surface $-1 -0.17400000000000002 -0.25800000000000001 -0.182 0 0 -1 -1 0 0 0 I I I I #
-7 face $-1 $11 $12 $2 $-1 $13 reversed single #
-8 loop $-1 $14 $15 $4 #
-9 cone-surface $-1 -0.17400000000000002 -0.25800000000000001 0 0 0 -1 0.056000000000000008 0 0 1 I I 0 1 0 I I I I #
-10 coedge $-1 $10 $10 $15 $16 0 $5 $-1 #
-11 face $-1 $17 $18 $2 $-1 $19 reversed single #
-12 loop $-1 $-1 $20 $7 #
-13 plane-surface $-1 -0.14699999999999999 0.39000000000000001 -0.182 0 0 -1 -1 0 0 0 I I I I #
-14 loop $-1 $-1 $21 $4 #
-15 coedge $-1 $15 $15 $10 $16 1 $8 $-1 #
-16 edge $-1 $22 $22 $10 $23 0 #
-17 face $-1 $24 $25 $2 $-1 $26 reversed single #
-18 loop $-1 $27 $28 $11 #
-19 cone-surface $-1 -0.14699999999999999 0.39000000000000001 0 0 0 -1 0.056000000000000008 0 0 1 I I 0 1 0 I I I I #
-20 coedge $-1 $20 $20 $28 $29 0 $12 $-1 #
-21 coedge $-1 $21 $21 $30 $31 0 $14 $-1 #
-22 vertex $-1 $16 $32 #
-23 ellipse-curve $-1 -0.17400000000000002 -0.25800000000000001 -0.182 0 0 1 0.056000000000000008 0 0 1 I I #
-24 face $-1 $33 $34 $2 $-1 $35 reversed single #
-25 loop $-1 $36 $37 $17 #
-26 cone-surface $-1 -0.12 0.20800000000000002 0 0 0 -1 0.05425 0 0 1 I I 0 1 0 I I I I #
-27 loop $-1 $-1 $38 $11 #
-28 coedge $-1 $28 $28 $20 $29 1 $18 $-1 #
-29 edge $-1 $39 $39 $20 $40 0 #
-30 coedge $-1 $30 $30 $21 $31 1 $41 $-1 #
-31 edge $-1 $42 $42 $21 $43 0 #
-32 point $-1 -0.11800000000000001 -0.25800000000000001 -0.182 #
-33 face $-1 $44 $45 $2 $-1 $46 reversed single #
-34 loop $-1 $47 $48 $24 #
-35 cone-surface $-1 0.12 -0.20800000000000002 0 0 0 -1 0.05425 0 0 1 I I 0 1 0 I I I I #
-36 loop $-1 $-1 $49 $17 #
-37 coedge $-1 $37 $37 $50 $51 0 $25 $-1 #
-38 coedge $-1 $38 $38 $52 $53 0 $27 $-1 #
-39 vertex $-1 $29 $54 #
-40 ellipse-curve $-1 -0.14699999999999999 0.39000000000000001 -0.182 0 0 1 0.056000000000000008 0 0 1 I I #
-41 loop $-1 $55 $30 $44 #
-42 vertex $-1 $31 $56 #
-43 ellipse-curve $-1 -0.17400000000000002 -0.25800000000000001 0 0 0 1 0.056000000000000008 0 0 1 I I #
-44 face $-1 $57 $41 $2 $-1 $58 forward single #
-45 loop $-1 $59 $60 $33 #
-46 cone-surface $-1 0 0 -0.33799999999999997 0 0 1 0.15450000000000003 0 0 1 I I 0 1 0 I I I I #
-47 loop $-1 $-1 $61 $24 #
-48 coedge $-1 $48 $48 $62 $63 0 $34 $-1 #
-49 coedge $-1 $49 $49 $64 $65 0 $36 $-1 #
-50 coedge $-1 $50 $50 $37 $51 1 $66 $-1 #
-51 edge $-1 $67 $67 $37 $68 0 #
-52 coedge $-1 $52 $52 $38 $53 1 $55 $-1 #
-53 edge $-1 $69 $69 $38 $70 0 #
-54 point $-1 -0.090999999999999998 0.39000000000000001 -0.182 #
-55 loop $-1 $71 $52 $44 #
-56 point $-1 -0.11800000000000001 -0.25800000000000001 0 #
-57 face $-1 $72 $73 $2 $-1 $74 reversed single #
-58 plane-surface $-1 0.20100000000000001 -0.157 0 0 0 1 1 0 0 0 I I I I #
-59 loop $-1 $-1 $75 $33 #
-60 coedge $-1 $60 $60 $76 $77 0 $45 $-1 #
-61 coedge $-1 $61 $61 $78 $79 0 $47 $-1 #
-62 coedge $-1 $62 $62 $48 $63 1 $80 $-1 #
-63 edge $-1 $81 $81 $48 $82 0 #
-64 coedge $-1 $64 $64 $49 $65 1 $83 $-1 #
-65 edge $-1 $84 $84 $49 $85 1 #
-66 loop $-1 $80 $50 $86 #
-67 vertex $-1 $51 $87 #
-68 ellipse-curve $-1 -0.12 0.20800000000000002 -0.29999999999999999 0 0 1 0.05425 0 0 1 I I #
-69 vertex $-1 $53 $88 #
-70 ellipse-curve $-1 -0.14699999999999999 0.39000000000000001 0 0 0 1 0.056000000000000008 0 0 1 I I #
-71 loop $-1 $89 $90 $44 #
-72 face $-1 $91 $92 $2 $-1 $93 reversed single #
-73 loop $-1 $-1 $94 $57 #
-74 plane-surface $-1 0.15722634913756889 0.17399451277955316 0.090999999999999998 0.86208400773856209 0.50676539305818713 0 0 0 -1 0 I I I I #
-75 coedge $-1 $75 $75 $95 $96 0 $59 $-1 #
-76 coedge $-1 $76 $76 $60 $77 1 $97 $-1 #
-77 edge $-1 $98 $98 $60 $99 0 #
-78 coedge $-1 $78 $78 $61 $79 1 $100 $-1 #
-79 edge $-1 $101 $101 $61 $102 1 #
-80 loop $-1 $97 $62 $86 #
-81 vertex $-1 $63 $103 #
-82 ellipse-curve $-1 0.12 -0.20800000000000002 -0.29999999999999999 0 0 1 0.05425 0 0 1 I I #
-83 loop $-1 $100 $64 $104 #
-84 vertex $-1 $65 $105 #
-85 ellipse-curve $-1 -0.12 0.20800000000000002 -0.33799999999999997 0 0 1 0.05425 0 0 1 I I #
-86 face $-1 $-1 $66 $2 $-1 $106 forward single #
-87 point $-1 -0.065750000000000003 0.20800000000000002 -0.29999999999999999 #
-88 point $-1 -0.090999999999999998 0.39000000000000001 0 #
-89 loop $-1 $-1 $107 $44 #
-90 coedge $-1 $108 $109 $110 $111 0 $71 $-1 #
-91 face $-1 $112 $113 $2 $-1 $114 reversed single #
-92 loop $-1 $-1 $115 $72 #
-93 cone-surface $-1 -0.14000000000000001 0.35600000000000004 0.090999999999999998 0 0 -1 0.16400000000000001 0 0 1 I I 0 1 0 I I I I #
-94 coedge $-1 $116 $117 $118 $119 0 $73 $-1 #
-95 coedge $-1 $95 $95 $75 $96 1 $120 $-1 #
-96 edge $-1 $121 $121 $75 $122 1 #
-97 loop $-1 $123 $76 $86 #
-98 vertex $-1 $77 $124 #
-99 ellipse-curve $-1 0 0 -0.29999999999999999 0 0 1 0.15450000000000003 0 0 1 I I #
-100 loop $-1 $120 $78 $104 #
-101 vertex $-1 $79 $125 #
-102 ellipse-curve $-1 0.12 -0.20800000000000002 -0.33799999999999997 0 0 1 0.05425 0 0 1 I I #
-103 point $-1 0.17424999999999999 -0.20800000000000002 -0.29999999999999999 #
-104 face $-1 $126 $83 $2 $-1 $127 reversed single #
-105 point $-1 -0.065750000000000003 0.20800000000000002 -0.33799999999999997 #
-106 plane-surface $-1 -0.10400000000000001 0.17999999999999999 -0.29999999999999999 0 0 1 1 0 0 0 I I I I #
-107 coedge $-1 $128 $129 $130 $131 0 $89 $-1 #
-108 coedge $-1 $132 $90 $117 $133 0 $71 $-1 #
-109 coedge $-1 $90 $134 $135 $136 0 $71 $-1 #
-110 coedge $-1 $137 $118 $90 $111 1 $138 $-1 #
-111 edge $-1 $139 $140 $90 $141 0 #
-112 face $-1 $142 $143 $2 $-1 $144 reversed single #
-113 loop $-1 $-1 $145 $91 #
-114 plane-surface $-1 -0.30400000000000005 0.049000000000000002 0.090999999999999998 -1 -6.95197473957721e-018 0 0 0 1 0 I I I I #
-115 coedge $-1 $146 $147 $148 $149 1 $92 $-1 #
-116 coedge $-1 $148 $94 $150 $151 0 $73 $-1 #
-117 coedge $-1 $94 $148 $108 $133 1 $73 $-1 #
-118 coedge $-1 $110 $152 $94 $119 1 $138 $-1 #
-119 edge $-1 $140 $153 $94 $154 1 #
-120 loop $-1 $155 $95 $104 #
-121 vertex $-1 $96 $156 #
-122 ellipse-curve $-1 0 0 -0.33799999999999997 0 0 1 0.15450000000000003 0 0 1 I I #
-123 loop $-1 $-1 $157 $86 #
-124 point $-1 0.15450000000000003 0 -0.29999999999999999 #
-125 point $-1 0.17424999999999999 -0.20800000000000002 -0.33799999999999997 #
-126 face $-1 $158 $159 $2 $-1 $160 reversed single #
-127 plane-surface $-1 -0.17400000000000002 -0.25800000000000001 -0.33799999999999997 0 0 1 1 0 0 0 I I I I #
-128 coedge $-1 $161 $107 $162 $163 0 $89 $-1 #
-129 coedge $-1 $107 $164 $165 $166 0 $89 $-1 #
-130 coedge $-1 $167 $168 $107 $131 1 $169 $-1 #
-131 edge $-1 $170 $171 $107 $172 1 #
-132 coedge $-1 $173 $108 $147 $174 0 $71 $-1 #
-133 edge $-1 $140 $175 $108 $176 1 #
-134 coedge $-1 $109 $173 $177 $178 0 $71 $-1 #
-135 coedge $-1 $179 $180 $109 $136 1 $181 $-1 #
-136 edge $-1 $182 $139 $109 $183 1 #
-137 coedge $-1 $152 $110 $180 $184 1 $138 $-1 #
-138 loop $-1 $-1 $152 $185 #
-139 vertex $-1 $111 $186 #
-140 vertex $-1 $111 $187 #
-141 ellipse-curve $-1 0.20100000000000001 -0.157 0 0 0 1 0.13 0 0 1 I I #
-142 face $-1 $185 $181 $2 $-1 $188 reversed single #
-143 loop $-1 $-1 $189 $112 #
-144 cone-surface $-1 -0.17400000000000002 -0.25800000000000001 0.090999999999999998 0 0 -1 0.13 0 0 1 I I 0 1 0 I I I I #
-145 coedge $-1 $190 $191 $192 $193 1 $113 $-1 #
-146 coedge $-1 $192 $115 $194 $195 0 $92 $-1 #
-147 coedge $-1 $115 $192 $132 $174 1 $92 $-1 #
-148 coedge $-1 $117 $116 $115 $149 0 $73 $-1 #
-149 edge $-1 $196 $175 $148 $197 0 #
-150 coedge $-1 $198 $194 $116 $151 1 $199 $-1 #
-151 edge $-1 $153 $196 $116 $200 1 #
-152 coedge $-1 $118 $137 $198 $201 0 $138 $-1 #
-153 vertex $-1 $119 $202 #
-154 straight-curve $-1 0.31307092100601336 -0.091120498902436425 0.090999999999999998 0 0 -1 I I #
-155 loop $-1 $-1 $203 $104 #
-156 point $-1 0.15450000000000003 0 -0.33799999999999997 #
-157 coedge $-1 $204 $205 $206 $207 1 $123 $-1 #
-158 face $-1 $208 $199 $2 $-1 $209 forward single #
-159 loop $-1 $-1 $210 $126 #
-160 plane-surface $-1 0.055110530211998271 -0.36199454286633032 -0.33799999999999997 -0.26006581382498939 0.96559089291456457 0 0 0 1 0 I I I I #
-161 coedge $-1 $211 $128 $212 $213 0 $89 $-1 #
-162 coedge $-1 $214 $215 $128 $163 1 $216 $-1 #
-163 edge $-1 $171 $217 $128 $218 0 #
-164 coedge $-1 $129 $219 $220 $221 0 $89 $-1 #
-165 coedge $-1 $222 $223 $129 $166 1 $224 $-1 #
-166 edge $-1 $225 $170 $129 $226 1 #
-167 coedge $-1 $206 $130 $223 $227 1 $169 $-1 #
-168 coedge $-1 $130 $206 $214 $228 1 $169 $-1 #
-169 loop $-1 $-1 $130 $229 #
-170 vertex $-1 $131 $230 #
-171 vertex $-1 $131 $231 #
-172 ellipse-curve $-1 -0.10400000000000001 0.17999999999999999 0 0 0 1 0.13 0 0 1 I I #
-173 coedge $-1 $134 $132 $191 $232 0 $71 $-1 #
-174 edge $-1 $175 $233 $132 $234 0 #
-175 vertex $-1 $133 $235 #
-176 straight-curve $-1 0.0013817772691242381 0.4391095244615425 0 0.50676539305818658 -0.86208400773856242 0 I I #
-177 coedge $-1 $189 $236 $134 $178 1 $143 $-1 #
-178 edge $-1 $237 $182 $134 $238 0 #
-179 coedge $-1 $239 $135 $236 $240 1 $181 $-1 #
-180 coedge $-1 $135 $239 $137 $184 0 $181 $-1 #
-181 loop $-1 $-1 $179 $142 #
-182 vertex $-1 $178 $241 #
-183 straight-curve $-1 0.23480855579724882 -0.28252681607889329 -8.5370249802008256e-018 -0.96559089291456468 -0.26006581382498922 2.1982062862576135e-017 I I #
-184 edge $-1 $242 $139 $180 $243 0 #
-185 face $-1 $244 $138 $2 $-1 $245 reversed single #
-186 point $-1 0.23480855579724882 -0.28252681607889329 -8.5370249802008256e-018 #
-187 point $-1 0.31307092100601336 -0.091120498902436425 0 #
-188 plane-surface $-1 0.047308555797248429 -0.33302681607889328 0.090999999999999998 0.26006581382498939 -0.96559089291456457 0 0 0 -1 0 I I I I #
-189 coedge $-1 $246 $177 $247 $248 1 $143 $-1 #
-190 coedge $-1 $247 $145 $249 $250 0 $113 $-1 #
-191 coedge $-1 $145 $247 $173 $232 1 $113 $-1 #
-192 coedge $-1 $147 $146 $145 $193 0 $92 $-1 #
-193 edge $-1 $251 $233 $192 $252 0 #
-194 coedge $-1 $150 $249 $146 $195 1 $199 $-1 #
-195 edge $-1 $196 $251 $146 $253 0 #
-196 vertex $-1 $151 $254 #
-197 straight-curve $-1 0.0013817772691242381 0.4391095244615425 0.090999999999999998 0 0 -1 I I #
-198 coedge $-1 $255 $150 $152 $201 1 $199 $-1 #
-199 loop $-1 $256 $150 $158 #
-200 straight-curve $-1 0.0013817772691242381 0.4391095244615425 0.090999999999999998 0.50676539305818658 -0.86208400773856242 0 I I #
-201 edge $-1 $242 $153 $152 $257 0 #
-202 point $-1 0.31307092100601336 -0.091120498902436425 0.090999999999999998 #
-203 coedge $-1 $258 $259 $210 $260 0 $155 $-1 #
-204 coedge $-1 $261 $157 $262 $263 1 $123 $-1 #
-205 coedge $-1 $157 $264 $265 $266 1 $123 $-1 #
-206 coedge $-1 $168 $167 $157 $207 0 $169 $-1 #
-207 edge $-1 $267 $268 $206 $269 1 #
-208 face $-1 $270 $216 $2 $-1 $271 forward single #
-209 plane-surface $-1 -0.17400000000000002 -0.25800000000000001 0.090999999999999998 0 0 1 1 0 0 0 I I I I #
-210 coedge $-1 $272 $273 $203 $260 1 $159 $-1 #
-211 coedge $-1 $274 $161 $275 $276 0 $89 $-1 #
-212 coedge $-1 $277 $278 $161 $213 1 $279 $-1 #
-213 edge $-1 $217 $280 $161 $281 1 #
-214 coedge $-1 $265 $162 $168 $228 0 $216 $-1 #
-215 coedge $-1 $162 $265 $277 $282 0 $216 $-1 #
-216 loop $-1 $-1 $214 $208 #
-217 vertex $-1 $163 $283 #
-218 straight-curve $-1 -0.030689474252303388 0.28735719265422482 0 0.82582455887865103 -0.56392712113612831 0 I I #
-219 coedge $-1 $164 $274 $284 $285 0 $89 $-1 #
-220 coedge $-1 $286 $287 $164 $221 1 $288 $-1 #
-221 edge $-1 $289 $225 $164 $290 1 #
-222 coedge $-1 $262 $165 $287 $291 1 $224 $-1 #
-223 coedge $-1 $165 $262 $167 $227 0 $224 $-1 #
-224 loop $-1 $-1 $222 $292 #
-225 vertex $-1 $221 $293 #
-226 straight-curve $-1 -0.23362300260811852 0.17010670960419824 0 0.076102233813859305 -0.99710002006245135 0 I I #
-227 edge $-1 $267 $170 $223 $294 1 #
-228 edge $-1 $171 $268 $214 $295 0 #
-229 face $-1 $86 $169 $2 $-1 $296 reversed single #
-230 point $-1 -0.23362300260811852 0.17010670960419824 0 #
-231 point $-1 -0.030689474252303388 0.28735719265422482 0 #
-232 edge $-1 $233 $237 $173 $297 1 #
-233 vertex $-1 $174 $298 #
-234 ellipse-curve $-1 -0.14000000000000001 0.35600000000000004 0 0 0 1 0.16400000000000001 0 0 1 I I #
-235 point $-1 0.0013817772691242381 0.4391095244615425 0 #
-236 coedge $-1 $177 $246 $179 $240 0 $143 $-1 #
-237 vertex $-1 $232 $299 #
-238 ellipse-curve $-1 -0.17400000000000002 -0.25800000000000001 0 0 0 1 0.13 0 0 1 I I #
-239 coedge $-1 $180 $179 $255 $300 0 $181 $-1 #
-240 edge $-1 $301 $182 $236 $302 0 #
-241 point $-1 -0.14019144420275159 -0.38352681607889333 0 #
-242 vertex $-1 $300 $303 #
-243 straight-curve $-1 0.23480855579724882 -0.28252681607889329 0.090999999999999998 0 0 -1 I I #
-244 face $-1 $304 $305 $2 $-1 $306 forward single #
-245 cone-surface $-1 0.20100000000000001 -0.157 0.090999999999999998 0 0 -1 0.13 0 0 1 I I 0 1 0 I I I I #
-246 coedge $-1 $236 $189 $307 $308 0 $143 $-1 #
-247 coedge $-1 $191 $190 $189 $248 0 $113 $-1 #
-248 edge $-1 $309 $237 $247 $310 0 #
-249 coedge $-1 $194 $307 $190 $250 1 $199 $-1 #
-250 edge $-1 $251 $309 $190 $311 1 #
-251 vertex $-1 $195 $312 #
-252 straight-curve $-1 -0.30400000000000005 0.35600000000000004 0.090999999999999998 0 0 -1 I I #
-253 ellipse-curve $-1 -0.14000000000000001 0.35600000000000004 0.090999999999999998 0 0 1 0.16400000000000001 0 0 1 I I #
-254 point $-1 0.0013817772691242381 0.4391095244615425 0.090999999999999998 #
-255 coedge $-1 $307 $198 $239 $300 1 $199 $-1 #
-256 loop $-1 $-1 $313 $158 #
-257 ellipse-curve $-1 0.20100000000000001 -0.157 0.090999999999999998 0 0 1 0.13 0 0 1 I I #
-258 coedge $-1 $314 $203 $315 $316 1 $155 $-1 #
-259 coedge $-1 $203 $317 $318 $319 1 $155 $-1 #
-260 edge $-1 $320 $321 $203 $322 0 #
-261 coedge $-1 $323 $204 $324 $325 1 $123 $-1 #
-262 coedge $-1 $223 $222 $204 $263 0 $224 $-1 #
-263 edge $-1 $326 $267 $262 $327 1 #
-264 coedge $-1 $205 $328 $329 $330 1 $123 $-1 #
-265 coedge $-1 $215 $214 $205 $266 0 $216 $-1 #
-266 edge $-1 $268 $331 $265 $332 1 #
-267 vertex $-1 $263 $333 #
-268 vertex $-1 $228 $334 #
-269 ellipse-curve $-1 -0.10400000000000001 0.17999999999999999 -0.29999999999999999 0 0 1 0.13 0 0 1 I I #
-270 face $-1 $335 $279 $2 $-1 $336 reversed single #
-271 plane-surface $-1 0.046687246198822363 0.23451929780376418 0 -0.56392712113612764 -0.82582455887865147 0 0 0 1 0 I I I I #
-272 coedge $-1 $337 $210 $338 $339 1 $159 $-1 #
-273 coedge $-1 $210 $337 $340 $341 1 $159 $-1 #
-274 coedge $-1 $219 $211 $342 $343 0 $89 $-1 #
-275 coedge $-1 $344 $345 $211 $276 1 $346 $-1 #
-276 edge $-1 $280 $347 $211 $348 1 #
-277 coedge $-1 $329 $212 $215 $282 1 $279 $-1 #
-278 coedge $-1 $212 $329 $344 $349 0 $279 $-1 #
-279 loop $-1 $-1 $277 $270 #
-280 vertex $-1 $213 $350 #
-281 ellipse-curve $-1 0 0 0 0 0 1 0.22 0 0 1 I I #
-282 edge $-1 $331 $217 $215 $351 1 #
-283 point $-1 0.12406396664994823 0.18168140295330315 0 #
-284 coedge $-1 $352 $353 $219 $285 1 $354 $-1 #
-285 edge $-1 $355 $289 $219 $356 1 #
-286 coedge $-1 $324 $220 $353 $357 1 $288 $-1 #
-287 coedge $-1 $220 $324 $222 $291 0 $288 $-1 #
-288 loop $-1 $-1 $286 $358 #
-289 vertex $-1 $285 $359 #
-290 ellipse-curve $-1 0 0 0 0 0 1 0.22 0 0 1 I I #
-291 edge $-1 $326 $225 $287 $360 1 #
-292 face $-1 $229 $224 $2 $-1 $361 forward single #
-293 point $-1 -0.21936200441373938 -0.016742491439049351 0 #
-294 straight-curve $-1 -0.23362300260811852 0.17010670960419824 0 0 0 -1 I I #
-295 straight-curve $-1 -0.030689474252303388 0.28735719265422482 0 0 0 -1 I I #
-296 cone-surface $-1 -0.10400000000000001 0.17999999999999999 0 0 0 -1 0.13 0 0 1 I I 0 1 0 I I I I #
-297 straight-curve $-1 -0.30400000000000005 -0.25800000000000001 0 0 1 0 I I #
-298 point $-1 -0.30400000000000005 0.35600000000000004 0 #
-299 point $-1 -0.30400000000000005 -0.25800000000000001 0 #
-300 edge $-1 $301 $242 $239 $362 0 #
-301 vertex $-1 $308 $363 #
-302 straight-curve $-1 -0.14019144420275159 -0.38352681607889333 0.090999999999999998 0 0 -1 I I #
-303 point $-1 0.23480855579724882 -0.28252681607889329 0.090999999999999998 #
-304 face $-1 $364 $365 $2 $-1 $366 reversed single #
-305 loop $-1 $-1 $340 $244 #
-306 cone-surface $-1 -0.17400000000000002 -0.25800000000000001 -0.33799999999999997 0 0 1 0.16 0 0 1 I I 0 1 0 I I I I #
-307 coedge $-1 $249 $255 $246 $308 1 $199 $-1 #
-308 edge $-1 $309 $301 $246 $367 0 #
-309 vertex $-1 $250 $368 #
-310 straight-curve $-1 -0.30400000000000005 -0.25800000000000001 0.090999999999999998 0 0 -1 I I #
-311 straight-curve $-1 -0.30400000000000005 -0.25800000000000001 0.090999999999999998 0 1 0 I I #
-312 point $-1 -0.30400000000000005 0.35600000000000004 0.090999999999999998 #
-313 coedge $-1 $369 $370 $337 $371 1 $256 $-1 #
-314 coedge $-1 $372 $258 $373 $374 1 $155 $-1 #
-315 coedge $-1 $340 $375 $258 $316 0 $305 $-1 #
-316 edge $-1 $376 $321 $315 $377 0 #
-317 coedge $-1 $259 $372 $378 $379 1 $155 $-1 #
-318 coedge $-1 $380 $338 $259 $319 0 $381 $-1 #
-319 edge $-1 $320 $382 $318 $383 0 #
-320 vertex $-1 $339 $384 #
-321 vertex $-1 $341 $385 #
-322 straight-curve $-1 0.24261053021199844 -0.31149454286633038 -0.33799999999999997 -0.96559089291456435 -0.26006581382499017 0 I I #
-323 coedge $-1 $386 $261 $387 $388 1 $123 $-1 #
-324 coedge $-1 $287 $286 $261 $325 0 $288 $-1 #
-325 edge $-1 $389 $326 $324 $390 1 #
-326 vertex $-1 $325 $391 #
-327 straight-curve $-1 -0.23362300260811852 0.17010670960419824 -0.29999999999999999 0.076102233813859305 -0.99710002006245135 0 I I #
-328 coedge $-1 $264 $386 $392 $393 1 $123 $-1 #
-329 coedge $-1 $278 $277 $264 $330 0 $279 $-1 #
-330 edge $-1 $331 $394 $329 $395 1 #
-331 vertex $-1 $266 $396 #
-332 straight-curve $-1 0.12406396664994823 0.18168140295330315 -0.29999999999999999 -0.82582455887865103 0.56392712113612831 0 I I #
-333 point $-1 -0.23362300260811852 0.17010670960419824 -0.29999999999999999 #
-334 point $-1 -0.030689474252303388 0.28735719265422482 -0.29999999999999999 #
-335 face $-1 $397 $346 $2 $-1 $398 forward single #
-336 cone-surface $-1 0 0 0 0 0 -1 0.22 0 0 1 I I 0 1 0 I I I I #
-337 coedge $-1 $273 $272 $313 $371 0 $159 $-1 #
-338 coedge $-1 $318 $399 $272 $339 0 $381 $-1 #
-339 edge $-1 $400 $320 $338 $401 1 #
-340 coedge $-1 $402 $315 $273 $341 0 $305 $-1 #
-341 edge $-1 $321 $403 $340 $404 0 #
-342 coedge $-1 $405 $406 $274 $343 1 $407 $-1 #
-343 edge $-1 $347 $355 $274 $408 1 #
-344 coedge $-1 $392 $275 $278 $349 1 $346 $-1 #
-345 coedge $-1 $275 $392 $405 $409 0 $346 $-1 #
-346 loop $-1 $-1 $344 $335 #
-347 vertex $-1 $276 $410 #
-348 straight-curve $-1 0.23362300260811891 -0.17010670960419885 0 -0.076102233813861039 0.99710002006245113 0 I I #
-349 edge $-1 $394 $280 $278 $411 1 #
-350 point $-1 0.21936200441373938 0.016742491439049351 0 #
-351 straight-curve $-1 0.12406396664994823 0.18168140295330315 0 0 0 -1 I I #
-352 coedge $-1 $387 $284 $406 $412 1 $354 $-1 #
-353 coedge $-1 $284 $387 $286 $357 0 $354 $-1 #
-354 loop $-1 $-1 $352 $413 #
-355 vertex $-1 $343 $414 #
-356 straight-curve $-1 -0.12406396664994843 -0.18168140295330315 0 0.82582455887865147 -0.56392712113612775 0 I I #
-357 edge $-1 $389 $289 $353 $415 1 #
-358 face $-1 $292 $288 $2 $-1 $416 reversed single #
-359 point $-1 -0.12406396664994843 -0.18168140295330315 0 #
-360 straight-curve $-1 -0.21936200441373938 -0.016742491439049351 0 0 0 -1 I I #
-361 plane-surface $-1 -0.22649250351092912 0.076682109082574418 0 0.99710002006245124 0.07610223381386072 0 0 0 -1 0 I I I I #
-362 straight-curve $-1 -0.14019144420275159 -0.38352681607889333 0.090999999999999998 0.96559089291456468 0.26006581382498922 0 I I #
-363 point $-1 -0.14019144420275159 -0.38352681607889333 0.090999999999999998 #
-364 face $-1 $417 $418 $2 $-1 $419 forward single #
-365 loop $-1 $-1 $420 $304 #
-366 plane-surface $-1 -0.33400000000000002 0.049000000000000002 -0.33799999999999997 1 0 0 0 0 -1 0 I I I I #
-367 ellipse-curve $-1 -0.17400000000000002 -0.25800000000000001 0.090999999999999998 0 0 1 0.13 0 0 1 I I #
-368 point $-1 -0.30400000000000005 -0.25800000000000001 0.090999999999999998 #
-369 coedge $-1 $421 $313 $399 $422 1 $256 $-1 #
-370 coedge $-1 $313 $423 $402 $424 1 $256 $-1 #
-371 edge $-1 $400 $403 $337 $425 0 #
-372 coedge $-1 $317 $314 $426 $427 1 $155 $-1 #
-373 coedge $-1 $420 $428 $314 $374 0 $365 $-1 #
-374 edge $-1 $429 $376 $373 $430 1 #
-375 coedge $-1 $315 $402 $420 $431 0 $305 $-1 #
-376 vertex $-1 $431 $432 #
-377 ellipse-curve $-1 -0.17400000000000002 -0.25800000000000001 -0.33799999999999997 0 0 1 0.16 0 0 1 I I #
-378 coedge $-1 $433 $434 $317 $379 0 $435 $-1 #
-379 edge $-1 $382 $436 $378 $437 1 #
-380 coedge $-1 $399 $318 $434 $438 1 $381 $-1 #
-381 loop $-1 $-1 $380 $439 #
-382 vertex $-1 $438 $440 #
-383 ellipse-curve $-1 0.20100000000000001 -0.157 -0.33799999999999997 0 0 1 0.16 0 0 1 I I #
-384 point $-1 0.24261053021199844 -0.31149454286633038 -0.33799999999999997 #
-385 point $-1 -0.13238946978800178 -0.41249454286633075 -0.33799999999999997 #
-386 coedge $-1 $328 $323 $441 $442 1 $123 $-1 #
-387 coedge $-1 $353 $352 $323 $388 0 $354 $-1 #
-388 edge $-1 $443 $389 $387 $444 1 #
-389 vertex $-1 $388 $445 #
-390 ellipse-curve $-1 0 0 -0.29999999999999999 0 0 1 0.22 0 0 1 I I #
-391 point $-1 -0.21936200441373938 -0.016742491439049351 -0.29999999999999999 #
-392 coedge $-1 $345 $344 $328 $393 0 $346 $-1 #
-393 edge $-1 $394 $446 $392 $447 1 #
-394 vertex $-1 $330 $448 #
-395 ellipse-curve $-1 0 0 -0.29999999999999999 0 0 1 0.22 0 0 1 I I #
-396 point $-1 0.12406396664994823 0.18168140295330315 -0.29999999999999999 #
-397 face $-1 $413 $407 $2 $-1 $449 reversed single #
-398 plane-surface $-1 0.22649250351092912 -0.076682109082574806 0 -0.99710002006245124 -0.07610223381386072 0 0 0 1 0 I I I I #
-399 coedge $-1 $338 $380 $369 $422 0 $381 $-1 #
-400 vertex $-1 $422 $450 #
-401 straight-curve $-1 0.24261053021199844 -0.31149454286633038 -0.33799999999999997 0 0 1 I I #
-402 coedge $-1 $375 $340 $370 $424 0 $305 $-1 #
-403 vertex $-1 $341 $451 #
-404 straight-curve $-1 -0.13238946978800178 -0.41249454286633075 -0.33799999999999997 0 0 1 I I #
-405 coedge $-1 $441 $342 $345 $409 1 $407 $-1 #
-406 coedge $-1 $342 $441 $352 $412 0 $407 $-1 #
-407 loop $-1 $-1 $405 $397 #
-408 ellipse-curve $-1 0.10400000000000001 -0.17999999999999999 0 0 0 1 0.13 0 0 1 I I #
-409 edge $-1 $446 $347 $345 $452 1 #
-410 point $-1 0.23362300260811891 -0.17010670960419885 0 #
-411 straight-curve $-1 0.21936200441373938 0.016742491439049351 0 0 0 -1 I I #
-412 edge $-1 $443 $355 $406 $453 1 #
-413 face $-1 $358 $354 $2 $-1 $454 forward single #
-414 point $-1 0.030689474252303426 -0.28735719265422482 0 #
-415 straight-curve $-1 -0.12406396664994843 -0.18168140295330315 0 0 0 -1 I I #
-416 cone-surface $-1 0 0 0 0 0 -1 0.22 0 0 1 I I 0 1 0 I I I I #
-417 face $-1 $439 $435 $2 $-1 $455 reversed single #
-418 loop $-1 $-1 $456 $364 #
-419 cone-surface $-1 -0.14000000000000001 0.35600000000000004 -0.33799999999999997 0 0 1 0.19400000000000001 0 0 1 I I 0 1 0 I I I I #
-420 coedge $-1 $457 $373 $375 $431 1 $365 $-1 #
-421 coedge $-1 $458 $369 $459 $460 1 $256 $-1 #
-422 edge $-1 $461 $400 $399 $462 1 #
-423 coedge $-1 $370 $458 $457 $463 1 $256 $-1 #
-424 edge $-1 $403 $464 $402 $465 1 #
-425 straight-curve $-1 0.24261053021199844 -0.31149454286633038 0.090999999999999998 -0.96559089291456435 -0.26006581382499017 0 I I #
-426 coedge $-1 $456 $466 $372 $427 0 $418 $-1 #
-427 edge $-1 $436 $429 $426 $467 0 #
-428 coedge $-1 $373 $457 $456 $468 0 $365 $-1 #
-429 vertex $-1 $468 $469 #
-430 straight-curve $-1 -0.33400000000000002 -0.25800000000000001 -0.33799999999999997 0 1 0 I I #
-431 edge $-1 $464 $376 $375 $470 1 #
-432 point $-1 -0.33400000000000002 -0.25800000000000001 -0.33799999999999997 #
-433 coedge $-1 $459 $378 $466 $471 1 $435 $-1 #
-434 coedge $-1 $378 $459 $380 $438 0 $435 $-1 #
-435 loop $-1 $-1 $433 $417 #
-436 vertex $-1 $471 $472 #
-437 straight-curve $-1 0.027244297501281104 0.45431248625328818 -0.33799999999999997 0.5067653930581868 -0.86208400773856231 0 I I #
-438 edge $-1 $461 $382 $434 $473 1 #
-439 face $-1 $104 $381 $2 $-1 $474 forward single #
-440 point $-1 0.33893344123817049 -0.07591753711069095 -0.33799999999999997 #
-441 coedge $-1 $406 $405 $386 $442 0 $407 $-1 #
-442 edge $-1 $446 $443 $441 $475 1 #
-443 vertex $-1 $442 $476 #
-444 straight-curve $-1 -0.12406396664994843 -0.18168140295330315 -0.29999999999999999 0.82582455887865147 -0.56392712113612775 0 I I #
-445 point $-1 -0.12406396664994843 -0.18168140295330315 -0.29999999999999999 #
-446 vertex $-1 $393 $477 #
-447 straight-curve $-1 0.23362300260811891 -0.17010670960419885 -0.29999999999999999 -0.076102233813861039 0.99710002006245113 0 I I #
-448 point $-1 0.21936200441373938 0.016742491439049351 -0.29999999999999999 #
-449 cone-surface $-1 0.10400000000000001 -0.17999999999999999 0 0 0 -1 0.13 0 0 1 I I 0 1 0 I I I I #
-450 point $-1 0.24261053021199844 -0.31149454286633038 0.090999999999999998 #
-451 point $-1 -0.13238946978800178 -0.41249454286633075 0.090999999999999998 #
-452 straight-curve $-1 0.23362300260811891 -0.17010670960419885 0 0 0 -1 I I #
-453 straight-curve $-1 0.030689474252303426 -0.28735719265422482 0 0 0 -1 I I #
-454 plane-surface $-1 -0.046687246198822439 -0.23451929780376379 0 0.56392712113612764 0.82582455887865147 0 0 0 -1 0 I I I I #
-455 plane-surface $-1 0.18308886936972599 0.18919747457129885 -0.33799999999999997 -0.86208400773856209 -0.50676539305818713 0 0 0 1 0 I I I I #
-456 coedge $-1 $478 $426 $428 $468 1 $418 $-1 #
-457 coedge $-1 $428 $420 $423 $463 0 $365 $-1 #
-458 coedge $-1 $423 $421 $478 $479 1 $256 $-1 #
-459 coedge $-1 $434 $433 $421 $460 0 $435 $-1 #
-460 edge $-1 $480 $461 $459 $481 0 #
-461 vertex $-1 $460 $482 #
-462 ellipse-curve $-1 0.20100000000000001 -0.157 0.090999999999999998 0 0 1 0.16 0 0 1 I I #
-463 edge $-1 $464 $483 $457 $484 0 #
-464 vertex $-1 $424 $485 #
-465 ellipse-curve $-1 -0.17400000000000002 -0.25800000000000001 0.090999999999999998 0 0 1 0.16 0 0 1 I I #
-466 coedge $-1 $426 $478 $433 $471 0 $418 $-1 #
-467 ellipse-curve $-1 -0.14000000000000001 0.35600000000000004 -0.33799999999999997 0 0 1 0.19400000000000001 0 0 1 I I #
-468 edge $-1 $483 $429 $428 $486 1 #
-469 point $-1 -0.33400000000000002 0.35600000000000004 -0.33799999999999997 #
-470 straight-curve $-1 -0.33400000000000002 -0.25800000000000001 -0.33799999999999997 0 0 1 I I #
-471 edge $-1 $480 $436 $466 $487 1 #
-472 point $-1 0.027244297501281104 0.45431248625328818 -0.33799999999999997 #
-473 straight-curve $-1 0.33893344123817049 -0.07591753711069095 -0.33799999999999997 0 0 1 I I #
-474 cone-surface $-1 0.20100000000000001 -0.157 -0.33799999999999997 0 0 1 0.16 0 0 1 I I 0 1 0 I I I I #
-475 ellipse-curve $-1 0.10400000000000001 -0.17999999999999999 -0.29999999999999999 0 0 1 0.13 0 0 1 I I #
-476 point $-1 0.030689474252303426 -0.28735719265422482 -0.29999999999999999 #
-477 point $-1 0.23362300260811891 -0.17010670960419885 -0.29999999999999999 #
-478 coedge $-1 $466 $456 $458 $479 0 $418 $-1 #
-479 edge $-1 $483 $480 $478 $488 1 #
-480 vertex $-1 $479 $489 #
-481 straight-curve $-1 0.027244297501281104 0.45431248625328818 0.090999999999999998 0.5067653930581868 -0.86208400773856231 0 I I #
-482 point $-1 0.33893344123817049 -0.07591753711069095 0.090999999999999998 #
-483 vertex $-1 $463 $490 #
-484 straight-curve $-1 -0.33400000000000002 -0.25800000000000001 0.090999999999999998 0 1 0 I I #
-485 point $-1 -0.33400000000000002 -0.25800000000000001 0.090999999999999998 #
-486 straight-curve $-1 -0.33400000000000002 0.35600000000000004 -0.33799999999999997 0 0 1 I I #
-487 straight-curve $-1 0.027244297501281104 0.45431248625328818 -0.33799999999999997 0 0 1 I I #
-488 ellipse-curve $-1 -0.14000000000000001 0.35600000000000004 0.090999999999999998 0 0 1 0.19400000000000001 0 0 1 I I #
-489 point $-1 0.027244297501281104 0.45431248625328818 0.090999999999999998 #
-490 point $-1 -0.33400000000000002 0.35600000000000004 0.090999999999999998 #
End-of-ACIS-data 