105 899 1 0                             
body $-1 $1 $-1 $-1 #
lump $-1 $-1 $2 $0 #
shell $-1 $-1 $-1 $3 $1 #
face $-1 $4 $5 $2 $-1 $6 reversed single #
face $-1 $7 $8 $2 $-1 $9 reversed single #
loop $-1 $-1 $10 $3 #
plane-surface $-1 -100.393700787402 -163.385826771654 0 1 0 0 0 0 -1 0 #
face $-1 $11 $12 $2 $-1 $13 reversed single #
loop $-1 $-1 $14 $4 #
plane-surface $-1 -115.157480314961 -163.385826771654 -52.755905511811 0 0 -1 -1 0 0 0 #
coedge $-1 $15 $16 $17 $18 1 $5 $-1 #
face $-1 $19 $20 $2 $-1 $21 reversed single #
loop $-1 $-1 $22 $7 #
plane-surface $-1 -115.157480314961 -129.92125984252 0 0 1 0 0 0 1 0 #
coedge $-1 $23 $24 $25 $26 0 $8 $-1 #
coedge $-1 $25 $10 $22 $27 0 $5 $-1 #
coedge $-1 $10 $25 $28 $29 1 $5 $-1 #
coedge $-1 $30 $31 $10 $18 0 $32 $-1 #
edge $-1 $33 $34 $10 $35 0 #
face $-1 $36 $37 $2 $-1 $38 reversed single #
loop $-1 $-1 $39 $11 #
plane-surface $-1 0 -163.385826771654 -52.755905511811 0 0 -1 -1 0 0 0 #
coedge $-1 $40 $41 $15 $27 1 $12 $-1 #
coedge $-1 $42 $14 $41 $43 0 $8 $-1 #
coedge $-1 $14 $42 $44 $45 1 $8 $-1 #
coedge $-1 $16 $15 $14 $26 1 $5 $-1 #
edge $-1 $46 $47 $25 $48 0 #
edge $-1 $33 $47 $15 $49 0 #
coedge $-1 $44 $50 $16 $29 0 $51 $-1 #
edge $-1 $34 $46 $16 $52 0 #
coedge $-1 $53 $17 $50 $54 0 $32 $-1 #
coedge $-1 $17 $55 $40 $56 0 $32 $-1 #
loop $-1 $-1 $55 $57 #
vertex $-1 $18 $58 #
vertex $-1 $18 $59 #
straight-curve $-1 -100.393700787402 -163.385826771654 0 0 -1 0 #
face $-1 $60 $61 $2 $-1 $62 reversed single #
loop $-1 $-1 $63 $19 #
plane-surface $-1 -88.5826771653543 -163.385826771654 0 -1 0 0 0 -0 1 0 #
coedge $-1 $64 $65 $66 $67 0 $20 $-1 #
coedge $-1 $68 $22 $31 $56 1 $12 $-1 #
coedge $-1 $22 $68 $23 $43 1 $12 $-1 #
coedge $-1 $24 $23 $69 $70 0 $8 $-1 #
edge $-1 $47 $71 $23 $72 0 #
coedge $-1 $73 $28 $24 $45 0 $51 $-1 #
edge $-1 $46 $74 $24 $75 0 #
vertex $-1 $26 $76 #
vertex $-1 $27 $77 #
straight-curve $-1 -100.393700787402 -163.385826771654 -52.755905511811 0 1 0 #
straight-curve $-1 -100.393700787402 -129.92125984252 0 0 0 -1 #
coedge $-1 $28 $78 $30 $54 1 $51 $-1 #
loop $-1 $-1 $28 $79 #
straight-curve $-1 -100.393700787402 -165.472440944882 -61.2007874015748 0 -0.290536957203487 -0.956863771128858 #
coedge $-1 $80 $30 $81 $82 0 $32 $-1 #
edge $-1 $34 $83 $50 $84 0 #
coedge $-1 $31 $85 $86 $87 0 $32 $-1 #
edge $-1 $88 $33 $40 $89 0 #
face $-1 $90 $91 $2 $-1 $92 reversed single #
point $-1 -100.393700787402 -129.92125984252 0 #
point $-1 -100.393700787402 -146.889763779528 0 #
face $-1 $93 $94 $2 $-1 $95 reversed single #
loop $-1 $-1 $96 $36 #
plane-surface $-1 88.5826771653543 -163.385826771654 0 1 0 0 0 0 -1 0 #
coedge $-1 $97 $98 $99 $100 1 $37 $-1 #
coedge $-1 $99 $39 $101 $102 0 $20 $-1 #
coedge $-1 $39 $99 $103 $104 1 $20 $-1 #
coedge $-1 $105 $106 $39 $67 1 $61 $-1 #
edge $-1 $107 $108 $39 $109 0 #
coedge $-1 $41 $40 $110 $111 0 $12 $-1 #
coedge $-1 $110 $112 $42 $70 1 $113 $-1 #
edge $-1 $71 $74 $42 $114 0 #
vertex $-1 $43 $115 #
straight-curve $-1 -115.157480314961 -129.92125984252 -52.755905511811 -1 0 0 #
coedge $-1 $116 $44 $112 $117 1 $51 $-1 #
vertex $-1 $70 $118 #
straight-curve $-1 -157.48031496063 -162.908282532551 -52.755905511811 -1 0 0 #
point $-1 -100.393700787402 -162.908282532551 -52.755905511811 #
point $-1 -100.393700787402 -129.92125984252 -52.755905511811 #
coedge $-1 $50 $103 $98 $119 0 $51 $-1 #
face $-1 $120 $51 $2 $-1 $121 reversed single #
coedge $-1 $122 $53 $123 $124 0 $32 $-1 #
coedge $-1 $98 $97 $53 $82 1 $37 $-1 #
edge $-1 $83 $125 $81 $126 0 #
vertex $-1 $82 $127 #
straight-curve $-1 -157.48031496063 -146.889763779528 0 1 0 0 #
coedge $-1 $55 $128 $129 $130 0 $32 $-1 #
coedge $-1 $131 $110 $55 $87 1 $113 $-1 #
edge $-1 $132 $88 $55 $133 0 #
vertex $-1 $56 $134 #
straight-curve $-1 0 -129.92125984252 0 1 0 0 #
face $-1 $135 $113 $2 $-1 $136 reversed single #
loop $-1 $32 $137 $57 #
plane-surface $-1 0 196.850393700787 0 0 0 -1 -1 0 0 0 #
face $-1 $138 $139 $2 $-1 $140 reversed single #
loop $-1 $-1 $141 $60 #
plane-surface $-1 0 -129.92125984252 0 0 1 0 0 0 1 0 #
coedge $-1 $106 $105 $122 $142 1 $61 $-1 #
coedge $-1 $81 $63 $143 $144 1 $37 $-1 #
coedge $-1 $63 $81 $78 $119 1 $37 $-1 #
coedge $-1 $65 $64 $63 $100 0 $20 $-1 #
edge $-1 $145 $146 $99 $147 0 #
coedge $-1 $141 $143 $64 $102 1 $94 $-1 #
edge $-1 $108 $145 $64 $148 0 #
coedge $-1 $78 $149 $65 $104 0 $51 $-1 #
edge $-1 $107 $146 $65 $150 0 #
coedge $-1 $96 $66 $149 $151 1 $61 $-1 #
coedge $-1 $66 $96 $141 $152 0 $61 $-1 #
vertex $-1 $67 $153 #
vertex $-1 $67 $154 #
straight-curve $-1 88.5826771653543 -163.385826771654 -52.755905511811 0 1 0 #
coedge $-1 $86 $69 $68 $111 1 $113 $-1 #
edge $-1 $88 $71 $68 $155 0 #
coedge $-1 $69 $156 $73 $117 0 $113 $-1 #
loop $-1 $-1 $112 $90 #
straight-curve $-1 -129.92125984252 -163.385826771654 -52.755905511811 0 -1 0 #
point $-1 -129.92125984252 -129.92125984252 -52.755905511811 #
coedge $-1 $157 $73 $158 $159 1 $51 $-1 #
edge $-1 $160 $74 $73 $161 0 #
point $-1 -129.92125984252 -162.908282532551 -52.755905511811 #
edge $-1 $146 $83 $98 $162 0 #
face $-1 $163 $164 $2 $-1 $165 reversed single #
plane-surface $-1 -157.48031496063 -165.472440944882 -61.2007874015748 0 0.956863771128858 -0.290536957203487 -0 0.290536957203487 0.956863771128858 0 #
coedge $-1 $166 $80 $96 $142 0 $32 $-1 #
coedge $-1 $143 $141 $80 $124 1 $94 $-1 #
edge $-1 $125 $167 $123 $168 0 #
vertex $-1 $144 $169 #
straight-curve $-1 -88.5826771653543 -163.385826771654 0 0 1 0 #
point $-1 -88.5826771653543 -146.889763779528 0 #
coedge $-1 $85 $170 $171 $172 0 $32 $-1 #
coedge $-1 $173 $174 $85 $130 1 $175 $-1 #
edge $-1 $176 $132 $129 $177 0 #
coedge $-1 $178 $86 $174 $179 0 $113 $-1 #
vertex $-1 $179 $180 #
straight-curve $-1 -129.92125984252 196.850393700787 0 0 -1 0 #
point $-1 -129.92125984252 -129.92125984252 0 #
face $-1 $181 $182 $2 $-1 $183 reversed single #
plane-surface $-1 -129.92125984252 196.850393700787 -58.2086614173228 1 0 0 0 0 -1 0 #
coedge $-1 $184 $185 $186 $187 0 $91 $-1 #
face $-1 $188 $189 $2 $-1 $190 reversed single #
loop $-1 $-1 $191 $93 #
plane-surface $-1 100.393700787402 -163.385826771654 0 -1 0 0 0 -0 1 0 #
coedge $-1 $123 $101 $106 $152 1 $94 $-1 #
edge $-1 $167 $192 $96 $193 0 #
coedge $-1 $101 $123 $97 $144 0 $94 $-1 #
edge $-1 $125 $145 $97 $194 0 #
vertex $-1 $102 $195 #
vertex $-1 $100 $196 #
straight-curve $-1 -88.5826771653543 -163.385826771654 -52.755905511811 0 -1 0 #
straight-curve $-1 0 -129.92125984252 -52.755905511811 -1 0 0 #
coedge $-1 $103 $197 $105 $151 0 $51 $-1 #
straight-curve $-1 -157.48031496063 -162.908282532551 -52.755905511811 -1 0 0 #
edge $-1 $192 $107 $105 $198 0 #
edge $-1 $167 $108 $106 $199 0 #
point $-1 88.5826771653543 -162.908282532551 -52.755905511811 #
point $-1 88.5826771653543 -129.92125984252 -52.755905511811 #
straight-curve $-1 -129.92125984252 -129.92125984252 0 0 0 -1 #
coedge $-1 $112 $200 $201 $202 0 $113 $-1 #
coedge $-1 $203 $116 $204 $205 0 $51 $-1 #
coedge $-1 $201 $206 $116 $159 0 $182 $-1 #
edge $-1 $207 $160 $116 $208 0 #
vertex $-1 $117 $209 #
straight-curve $-1 -129.92125984252 -134.056322153231 42.2660699323694 0 0.290536957203487 0.956863771128858 #
straight-curve $-1 -88.5826771653543 -165.472440944882 -61.2007874015748 0 0.290536957203487 0.956863771128858 #
face $-1 $210 $211 $2 $-1 $212 reversed single #
loop $-1 $-1 $213 $120 #
plane-surface $-1 -157.48031496063 165.472440944882 -61.2007874015748 0 -0.956863771128858 -0.290536957203487 0 0.290536957203487 -0.956863771128858 0 #
coedge $-1 $214 $122 $197 $215 0 $32 $-1 #
vertex $-1 $142 $216 #
straight-curve $-1 0 -129.92125984252 0 1 0 0 #
point $-1 -88.5826771653543 -129.92125984252 0 #
coedge $-1 $128 $217 $218 $219 0 $32 $-1 #
coedge $-1 $220 $221 $128 $172 1 $222 $-1 #
edge $-1 $223 $176 $171 $224 0 #
coedge $-1 $225 $129 $221 $226 0 $175 $-1 #
coedge $-1 $129 $225 $131 $179 1 $175 $-1 #
loop $-1 $-1 $174 $227 #
vertex $-1 $226 $228 #
straight-curve $-1 -115.157480314961 129.92125984252 0 -1 0 0 #
coedge $-1 $200 $131 $229 $230 0 $113 $-1 #
edge $-1 $132 $231 $174 $232 0 #
point $-1 -129.92125984252 129.92125984252 0 #
face $-1 $233 $234 $2 $-1 $235 reversed single #
loop $-1 $-1 $206 $135 #
plane-surface $-1 -119.448818897638 196.850393700787 -127.066929133858 0.713012698330577 0 0.701151119245595 0.701151119245595 0 -0.713012698330577 0 #
coedge $-1 $236 $137 $237 $238 0 $91 $-1 #
coedge $-1 $137 $236 $239 $240 0 $91 $-1 #
coedge $-1 $241 $242 $137 $187 1 $243 $-1 #
edge $-1 $244 $245 $137 $246 0 #
face $-1 $247 $248 $2 $-1 $249 reversed single #
loop $-1 $-1 $250 $138 #
plane-surface $-1 115.157480314961 -163.385826771654 -52.755905511811 0 0 -1 -1 0 0 0 #
coedge $-1 $251 $252 $253 $254 1 $139 $-1 #
vertex $-1 $142 $255 #
straight-curve $-1 88.5826771653543 -163.385826771654 0 0 -1 0 #
straight-curve $-1 -88.5826771653543 -129.92125984252 0 0 0 -1 #
point $-1 -88.5826771653543 -129.92125984252 -52.755905511811 #
point $-1 -88.5826771653543 -162.908282532551 -52.755905511811 #
coedge $-1 $149 $256 $166 $215 1 $51 $-1 #
straight-curve $-1 88.5826771653543 -165.472440944882 -61.2007874015748 0 -0.290536957203487 -0.956863771128858 #
straight-curve $-1 88.5826771653543 -129.92125984252 0 0 0 -1 #
coedge $-1 $156 $178 $213 $257 0 $113 $-1 #
coedge $-1 $258 $158 $156 $202 1 $182 $-1 #
edge $-1 $259 $160 $156 $260 0 #
coedge $-1 $261 $157 $262 $263 1 $51 $-1 #
coedge $-1 $264 $265 $157 $205 1 $266 $-1 #
edge $-1 $207 $267 $204 $268 0 #
coedge $-1 $158 $269 $264 $270 0 $182 $-1 #
vertex $-1 $270 $271 #
straight-curve $-1 -174.885432531891 -168.35444672583 -70.6924780509051 -0.685275502785233 0.211593397518259 0.6968685094113 #
point $-1 -129.92125984252 -182.23809210243 -116.417322834646 #
face $-1 $57 $272 $2 $-1 $273 reversed single #
loop $-1 $-1 $274 $163 #
plane-surface $-1 -157.48031496063 184.055118110236 -130.05905511811 0 -1 0 0 0 -1 0 #
coedge $-1 $275 $276 $200 $257 1 $164 $-1 #
coedge $-1 $277 $166 $278 $279 0 $32 $-1 #
edge $-1 $192 $280 $197 $281 0 #
point $-1 88.5826771653543 -129.92125984252 0 #
coedge $-1 $170 $282 $283 $284 0 $32 $-1 #
coedge $-1 $285 $286 $170 $219 1 $164 $-1 #
edge $-1 $287 $223 $218 $288 0 #
coedge $-1 $289 $171 $286 $290 1 $222 $-1 #
coedge $-1 $171 $289 $173 $226 1 $222 $-1 #
loop $-1 $-1 $289 $247 #
vertex $-1 $172 $291 #
straight-curve $-1 -100.393700787402 163.385826771654 0 0 -1 0 #
coedge $-1 $174 $173 $292 $293 1 $175 $-1 #
edge $-1 $176 $294 $221 $295 0 #
face $-1 $296 $175 $2 $-1 $297 reversed single #
point $-1 -100.393700787402 129.92125984252 0 #
coedge $-1 $292 $298 $178 $230 1 $299 $-1 #
edge $-1 $231 $300 $229 $301 0 #
vertex $-1 $230 $302 #
straight-curve $-1 -129.92125984252 129.92125984252 0 0 0 -1 #
face $-1 $303 $304 $2 $-1 $305 reversed single #
loop $-1 $-1 $306 $181 #
plane-surface $-1 -72.2047244094488 196.850393700787 -100.944881889764 -0.707106781186548 0 0.707106781186548 0.707106781186548 -0 0.707106781186548 0 #
coedge $-1 $185 $184 $307 $308 0 $91 $-1 #
coedge $-1 $309 $310 $184 $238 1 $311 $-1 #
edge $-1 $245 $312 $184 $313 0 #
coedge $-1 $314 $315 $185 $240 1 $316 $-1 #
edge $-1 $317 $244 $185 $318 0 #
coedge $-1 $319 $186 $315 $320 0 $243 $-1 #
coedge $-1 $186 $319 $309 $321 1 $243 $-1 #
loop $-1 $-1 $242 $322 #
vertex $-1 $187 $323 #
vertex $-1 $187 $324 #
straight-curve $-1 -122.047244094488 0 0 0 1 0 #
face $-1 $325 $222 $2 $-1 $326 reversed single #
loop $-1 $-1 $327 $188 #
plane-surface $-1 115.157480314961 -129.92125984252 0 0 1 0 0 0 1 0 #
coedge $-1 $328 $329 $330 $331 1 $189 $-1 #
coedge $-1 $278 $191 $332 $333 1 $139 $-1 #
coedge $-1 $191 $278 $256 $334 1 $139 $-1 #
coedge $-1 $329 $328 $191 $254 0 $189 $-1 #
edge $-1 $335 $336 $191 $337 0 #
point $-1 88.5826771653543 -146.889763779528 0 #
coedge $-1 $197 $338 $252 $334 0 $51 $-1 #
edge $-1 $300 $259 $213 $339 0 #
coedge $-1 $340 $201 $276 $341 0 $182 $-1 #
vertex $-1 $257 $342 #
straight-curve $-1 -129.92125984252 196.850393700787 -116.417322834646 0 -1 0 #
coedge $-1 $343 $203 $344 $345 1 $51 $-1 #
coedge $-1 $346 $347 $203 $263 0 $234 $-1 #
edge $-1 $348 $267 $203 $349 0 #
coedge $-1 $265 $204 $206 $270 1 $266 $-1 #
coedge $-1 $204 $264 $346 $350 1 $266 $-1 #
loop $-1 $-1 $264 $351 #
vertex $-1 $350 $352 #
straight-curve $-1 -157.48031496063 -184.055118110236 -122.40157480315 1 0 0 #
coedge $-1 $206 $340 $353 $354 0 $182 $-1 #
edge $-1 $355 $207 $264 $356 0 #
point $-1 -124.036561049093 -184.055118110236 -122.40157480315 #
loop $-1 $-1 $357 $210 #
plane-surface $-1 -157.48031496063 184.055118110236 -130.05905511811 0 -1 0 0 0 -1 0 #
coedge $-1 $358 $359 $360 $361 1 $211 $-1 #
coedge $-1 $286 $213 $298 $362 0 $164 $-1 #
coedge $-1 $213 $363 $258 $341 1 $164 $-1 #
coedge $-1 $364 $214 $365 $366 0 $32 $-1 #
coedge $-1 $252 $251 $214 $279 1 $139 $-1 #
edge $-1 $280 $367 $278 $368 0 #
vertex $-1 $279 $369 #
straight-curve $-1 -157.48031496063 -146.889763779528 0 1 0 0 #
coedge $-1 $217 $370 $371 $372 0 $32 $-1 #
coedge $-1 $373 $374 $217 $284 1 $375 $-1 #
edge $-1 $376 $287 $283 $377 0 #
coedge $-1 $378 $218 $374 $379 0 $164 $-1 #
coedge $-1 $218 $275 $220 $290 0 $164 $-1 #
vertex $-1 $284 $380 #
straight-curve $-1 0 146.889763779528 0 -1 0 0 #
coedge $-1 $221 $220 $381 $382 1 $222 $-1 #
edge $-1 $383 $223 $220 $384 0 #
point $-1 -100.393700787402 146.889763779528 -4.37095678986282e-15 #
coedge $-1 $381 $229 $225 $293 0 $299 $-1 #
edge $-1 $231 $294 $292 $385 0 #
vertex $-1 $382 $386 #
straight-curve $-1 -100.393700787402 129.92125984252 0 0 0 -1 #
face $-1 $387 $388 $2 $-1 $389 reversed single #
plane-surface $-1 -115.157480314961 129.92125984252 0 0 -1 0 0 0 -1 0 #
coedge $-1 $229 $381 $275 $362 1 $299 $-1 #
loop $-1 $-1 $229 $325 #
vertex $-1 $230 $390 #
straight-curve $-1 -129.92125984252 196.850393700787 -52.755905511811 0 1 0 #
point $-1 -129.92125984252 129.92125984252 -52.755905511811 #
face $-1 $391 $392 $2 $-1 $393 reversed single #
loop $-1 $-1 $394 $233 #
plane-surface $-1 0 196.850393700787 -64.1732283464567 0 0 1 1 0 0 0 #
coedge $-1 $395 $396 $397 $398 0 $234 $-1 #
coedge $-1 $399 $400 $236 $308 1 $401 $-1 #
edge $-1 $312 $317 $236 $402 0 #
coedge $-1 $403 $237 $242 $321 0 $311 $-1 #
coedge $-1 $237 $403 $399 $404 1 $311 $-1 #
loop $-1 $-1 $310 $405 #
vertex $-1 $238 $406 #
straight-curve $-1 0 122.047244094488 0 1 0 0 #
coedge $-1 $407 $239 $400 $408 0 $316 $-1 #
coedge $-1 $239 $407 $241 $320 1 $316 $-1 #
loop $-1 $-1 $315 $409 #
vertex $-1 $308 $410 #
straight-curve $-1 0 -122.047244094488 0 -1 0 0 #
coedge $-1 $242 $241 $411 $412 1 $243 $-1 #
edge $-1 $244 $413 $241 $414 0 #
edge $-1 $245 $415 $309 $416 0 #
face $-1 $409 $243 $2 $-1 $417 reversed single #
point $-1 -122.047244094488 -122.047244094488 0 #
point $-1 -122.047244094488 122.047244094488 0 #
face $-1 $227 $299 $2 $-1 $418 reversed single #
plane-surface $-1 -100.393700787402 163.385826771654 0 1 0 0 0 0 -1 0 #
coedge $-1 $365 $419 $420 $421 1 $248 $-1 #
coedge $-1 $253 $250 $419 $422 0 $189 $-1 #
coedge $-1 $250 $253 $338 $423 1 $189 $-1 #
coedge $-1 $424 $420 $250 $331 0 $425 $-1 #
edge $-1 $426 $427 $250 $428 0 #
coedge $-1 $419 $365 $251 $333 0 $248 $-1 #
edge $-1 $367 $335 $251 $429 0 #
edge $-1 $336 $280 $252 $430 0 #
vertex $-1 $254 $431 #
vertex $-1 $254 $432 #
straight-curve $-1 100.393700787402 -163.385826771654 -52.755905511811 0 -1 0 #
coedge $-1 $256 $433 $329 $423 0 $51 $-1 #
straight-curve $-1 -129.92125984252 167.289284161522 -67.1844373597693 0 0.290536957203487 -0.956863771128858 #
coedge $-1 $269 $258 $357 $434 0 $182 $-1 #
edge $-1 $259 $435 $276 $436 0 #
point $-1 -129.92125984252 182.238092102431 -116.417322834646 #
coedge $-1 $437 $261 $438 $439 1 $51 $-1 #
coedge $-1 $394 $440 $261 $345 0 $304 $-1 #
edge $-1 $441 $348 $261 $442 0 #
coedge $-1 $353 $262 $265 $350 0 $234 $-1 #
coedge $-1 $262 $395 $394 $443 0 $234 $-1 #
vertex $-1 $263 $444 #
straight-curve $-1 -17.8704132985456 -161.042346222514 -46.6105707788606 -0.69135168609534 -0.209918299026697 -0.69135168609534 #
edge $-1 $267 $355 $265 $445 0 #
face $-1 $446 $266 $2 $-1 $447 reversed single #
point $-1 -93.6614173228347 -184.055118110236 -122.40157480315 #
coedge $-1 $448 $346 $269 $354 1 $234 $-1 #
edge $-1 $449 $355 $269 $450 0 #
vertex $-1 $270 $451 #
straight-curve $-1 -119.448818897638 -184.055118110236 -127.066929133858 -0.701151119245595 0 0.713012698330577 #
coedge $-1 $452 $453 $340 $434 1 $272 $-1 #
coedge $-1 $359 $274 $454 $455 0 $211 $-1 #
coedge $-1 $274 $358 $456 $457 1 $211 $-1 #
coedge $-1 $458 $459 $274 $361 0 $392 $-1 #
edge $-1 $460 $461 $274 $462 0 #
edge $-1 $300 $383 $298 $463 0 #
coedge $-1 $276 $464 $452 $465 1 $164 $-1 #
coedge $-1 $466 $277 $467 $468 1 $32 $-1 #
coedge $-1 $332 $327 $277 $366 1 $248 $-1 #
edge $-1 $367 $469 $365 $470 0 #
vertex $-1 $333 $471 #
straight-curve $-1 100.393700787402 -163.385826771654 0 0 1 0 #
point $-1 100.393700787402 -146.889763779528 0 #
coedge $-1 $282 $472 $473 $474 0 $32 $-1 #
coedge $-1 $475 $476 $282 $372 1 $477 $-1 #
edge $-1 $478 $376 $371 $479 0 #
coedge $-1 $480 $283 $476 $481 0 $375 $-1 #
coedge $-1 $283 $480 $285 $379 1 $375 $-1 #
loop $-1 $-1 $283 $387 #
vertex $-1 $284 $482 #
straight-curve $-1 -88.5826771653543 163.385826771654 0 0 1 0 #
coedge $-1 $483 $285 $484 $485 0 $164 $-1 #
edge $-1 $287 $486 $374 $487 0 #
point $-1 -88.5826771653543 146.889763779528 0 #
coedge $-1 $298 $292 $289 $382 0 $299 $-1 #
edge $-1 $294 $383 $289 $488 0 #
vertex $-1 $382 $489 #
straight-curve $-1 -100.393700787402 165.472440944882 -61.2007874015748 0 -0.290536957203487 0.956863771128858 #
straight-curve $-1 -115.157480314961 129.92125984252 -52.755905511811 1 0 0 #
point $-1 -100.393700787402 129.92125984252 -52.755905511811 #
face $-1 $490 $375 $2 $-1 $491 reversed single #
loop $-1 $-1 $492 $296 #
plane-surface $-1 0 163.385826771654 -52.755905511811 0 0 -1 -1 0 0 0 #
point $-1 -129.92125984252 162.908282532551 -52.755905511811 #
face $-1 $493 $494 $2 $-1 $495 reversed single #
loop $-1 $-1 $496 $303 #
plane-surface $-1 72.2047244094488 196.850393700787 -100.944881889764 0.707106781186548 0 0.707106781186548 0.707106781186548 0 -0.707106781186548 0 #
coedge $-1 $497 $344 $347 $443 1 $304 $-1 #
coedge $-1 $347 $306 $498 $499 0 $234 $-1 #
coedge $-1 $306 $448 $464 $500 0 $234 $-1 #
coedge $-1 $501 $502 $306 $398 1 $503 $-1 #
edge $-1 $504 $505 $397 $506 0 #
coedge $-1 $507 $307 $310 $404 0 $401 $-1 #
coedge $-1 $307 $507 $314 $408 1 $401 $-1 #
loop $-1 $-1 $307 $508 #
straight-curve $-1 122.047244094488 0 0 0 -1 0 #
coedge $-1 $310 $309 $509 $510 1 $311 $-1 #
edge $-1 $312 $511 $310 $512 0 #
face $-1 $322 $311 $2 $-1 $513 reversed single #
point $-1 122.047244094488 122.047244094488 0 #
coedge $-1 $315 $314 $514 $515 1 $316 $-1 #
edge $-1 $317 $516 $314 $517 0 #
face $-1 $508 $316 $2 $-1 $518 reversed single #
point $-1 122.047244094488 -122.047244094488 0 #
coedge $-1 $514 $509 $319 $412 0 $519 $-1 #
edge $-1 $415 $413 $411 $520 0 #
vertex $-1 $412 $521 #
straight-curve $-1 -122.047244094488 -122.047244094488 0 0 0 -1 #
vertex $-1 $510 $522 #
straight-curve $-1 -122.047244094488 122.047244094488 0 0 0 -1 #
plane-surface $-1 -122.047244094488 0 0 -1 0 0 0 -0 1 0 #
plane-surface $-1 -115.157480314961 163.385826771654 -52.755905511811 0 0 -1 -1 0 0 0 #
coedge $-1 $327 $332 $328 $422 1 $248 $-1 #
coedge $-1 $330 $467 $327 $421 0 $425 $-1 #
edge $-1 $469 $426 $327 $523 0 #
edge $-1 $426 $335 $328 $524 0 #
edge $-1 $427 $336 $329 $525 0 #
coedge $-1 $526 $330 $433 $527 0 $425 $-1 #
loop $-1 $-1 $420 $493 #
vertex $-1 $331 $528 #
vertex $-1 $331 $529 #
straight-curve $-1 129.92125984252 196.850393700787 -52.755905511811 0 -1 0 #
straight-curve $-1 100.393700787402 -129.92125984252 0 0 0 -1 #
straight-curve $-1 100.393700787402 -165.472440944882 -61.2007874015748 0 0.290536957203487 0.956863771128858 #
point $-1 100.393700787402 -129.92125984252 -52.755905511811 #
point $-1 100.393700787402 -162.908282532551 -52.755905511811 #
coedge $-1 $338 $530 $424 $527 1 $51 $-1 #
edge $-1 $435 $449 $357 $531 0 #
vertex $-1 $465 $532 #
straight-curve $-1 -117.798908173482 185.981126203515 -128.744751881544 0.685275502785233 0.211593397518259 -0.6968685094113 #
coedge $-1 $530 $343 $533 $534 0 $51 $-1 #
coedge $-1 $535 $496 $343 $439 0 $392 $-1 #
edge $-1 $536 $441 $343 $537 0 #
coedge $-1 $344 $497 $535 $538 0 $304 $-1 #
vertex $-1 $345 $539 #
straight-curve $-1 0 -166.374976889548 -64.1732283464567 -1 0 0 #
edge $-1 $540 $348 $347 $541 0 #
point $-1 -35.4330708661417 -166.374976889548 -64.1732283464567 #
straight-curve $-1 -72.2047244094488 -184.055118110236 -100.944881889764 -0.707106781186548 0 -0.707106781186548 #
face $-1 $79 $542 $2 $-1 $543 reversed single #
plane-surface $-1 -157.48031496063 -184.055118110236 -130.05905511811 0 1 0 0 0 1 0 #
coedge $-1 $396 $353 $453 $544 0 $234 $-1 #
vertex $-1 $434 $545 #
straight-curve $-1 -108.976377952756 196.850393700787 -137.716535433071 0 -1 0 #
point $-1 -108.976377952756 -184.055118110236 -137.716535433071 #
coedge $-1 $453 $357 $363 $465 0 $272 $-1 #
coedge $-1 $357 $452 $448 $544 1 $272 $-1 #
coedge $-1 $546 $547 $358 $455 1 $164 $-1 #
edge $-1 $460 $548 $454 $549 0 #
coedge $-1 $550 $551 $359 $457 0 $494 $-1 #
edge $-1 $461 $548 $359 $552 0 #
coedge $-1 $496 $360 $551 $553 0 $392 $-1 #
coedge $-1 $360 $554 $546 $555 0 $392 $-1 #
vertex $-1 $455 $556 #
vertex $-1 $361 $557 #
straight-curve $-1 72.2047244094488 184.055118110236 -100.944881889764 0.707106781186548 0 -0.707106781186548 #
straight-curve $-1 -157.48031496063 162.908282532551 -52.755905511811 1 0 0 #
coedge $-1 $363 $558 $396 $500 1 $164 $-1 #
edge $-1 $435 $559 $363 $560 0 #
coedge $-1 $561 $364 $562 $563 0 $32 $-1 #
coedge $-1 $420 $564 $364 $468 0 $425 $-1 #
edge $-1 $565 $469 $364 $566 0 #
vertex $-1 $421 $567 #
straight-curve $-1 115.157480314961 -129.92125984252 0 1 0 0 #
point $-1 100.393700787402 -129.92125984252 0 #
coedge $-1 $370 $561 $568 $569 0 $32 $-1 #
coedge $-1 $570 $571 $370 $474 1 $572 $-1 #
edge $-1 $573 $478 $473 $574 0 #
coedge $-1 $575 $371 $571 $576 0 $477 $-1 #
coedge $-1 $371 $575 $373 $481 1 $477 $-1 #
loop $-1 $-1 $476 $577 #
vertex $-1 $576 $578 #
straight-curve $-1 0 129.92125984252 0 -1 0 0 #
coedge $-1 $374 $373 $492 $579 1 $375 $-1 #
edge $-1 $376 $580 $373 $581 0 #
point $-1 -88.5826771653543 129.92125984252 0 #
coedge $-1 $568 $378 $570 $582 0 $164 $-1 #
coedge $-1 $492 $583 $378 $485 1 $388 $-1 #
edge $-1 $486 $584 $484 $585 0 #
vertex $-1 $579 $586 #
straight-curve $-1 -88.5826771653543 165.472440944882 -61.2007874015748 0 0.290536957203487 -0.956863771128858 #
straight-curve $-1 -100.393700787402 163.385826771654 -52.755905511811 0 1 0 #
point $-1 -100.393700787402 162.908282532551 -52.755905511811 #
face $-1 $577 $572 $2 $-1 $587 reversed single #
plane-surface $-1 -88.5826771653543 163.385826771654 0 -1 0 0 0 -0 1 0 #
coedge $-1 $588 $484 $480 $579 0 $388 $-1 #
face $-1 $589 $425 $2 $-1 $590 reversed single #
loop $-1 $-1 $591 $391 #
plane-surface $-1 119.448818897638 196.850393700787 -127.066929133858 -0.713012698330577 0 0.701151119245595 0.701151119245595 -0 0.713012698330577 0 #
coedge $-1 $438 $458 $592 $593 0 $392 $-1 #
coedge $-1 $440 $394 $594 $595 0 $304 $-1 #
coedge $-1 $596 $597 $395 $499 1 $598 $-1 #
edge $-1 $505 $540 $395 $599 0 #
edge $-1 $559 $504 $464 $600 0 #
coedge $-1 $601 $397 $558 $602 0 $503 $-1 #
coedge $-1 $397 $601 $603 $604 0 $503 $-1 #
loop $-1 $-1 $601 $605 #
vertex $-1 $398 $606 #
vertex $-1 $604 $607 #
straight-curve $-1 -35.4330708661417 196.850393700787 -64.1732283464567 0 -1 0 #
coedge $-1 $400 $399 $608 $609 1 $401 $-1 #
face $-1 $-1 $401 $2 $-1 $610 reversed single #
coedge $-1 $411 $608 $403 $510 0 $519 $-1 #
edge $-1 $511 $415 $509 $611 0 #
vertex $-1 $510 $612 #
straight-curve $-1 122.047244094488 122.047244094488 0 0 0 -1 #
plane-surface $-1 0 122.047244094488 0 0 1 0 0 0 1 0 #
coedge $-1 $608 $411 $407 $515 0 $519 $-1 #
edge $-1 $413 $516 $514 $613 0 #
vertex $-1 $515 $614 #
straight-curve $-1 122.047244094488 -122.047244094488 0 0 0 -1 #
plane-surface $-1 0 -122.047244094488 0 0 -1 0 0 0 -1 0 #
loop $-1 $-1 $509 $615 #
straight-curve $-1 -122.047244094488 0 -29.1338582677165 0 -1 0 #
point $-1 -122.047244094488 -122.047244094488 -29.1338582677165 #
point $-1 -122.047244094488 122.047244094488 -29.1338582677165 #
straight-curve $-1 129.92125984252 -129.92125984252 0 0 0 -1 #
straight-curve $-1 115.157480314961 -129.92125984252 -52.755905511811 -1 0 0 #
straight-curve $-1 -157.48031496063 -162.908282532551 -52.755905511811 -1 0 0 #
coedge $-1 $616 $424 $591 $617 1 $425 $-1 #
edge $-1 $427 $618 $433 $619 0 #
point $-1 129.92125984252 -129.92125984252 -52.755905511811 #
point $-1 129.92125984252 -162.908282532551 -52.755905511811 #
coedge $-1 $433 $437 $620 $621 1 $51 $-1 #
straight-curve $-1 -119.448818897638 184.055118110236 -127.066929133858 0.701151119245595 0 -0.713012698330577 #
point $-1 -124.036561049093 184.055118110236 -122.40157480315 #
coedge $-1 $592 $622 $437 $534 1 $542 $-1 #
edge $-1 $536 $623 $533 $624 0 #
coedge $-1 $625 $438 $440 $538 1 $392 $-1 #
vertex $-1 $593 $626 #
straight-curve $-1 17.8704132985456 -161.042346222514 -46.6105707788606 -0.69135168609534 0.209918299026697 0.69135168609534 #
edge $-1 $627 $441 $440 $628 0 #
point $-1 35.4330708661417 -166.374976889549 -64.1732283464567 #
vertex $-1 $499 $629 #
straight-curve $-1 -35.4330708661417 196.850393700787 -64.1732283464567 0 -1 0 #
loop $-1 $-1 $592 $446 #
plane-surface $-1 -157.48031496063 -184.055118110236 -130.05905511811 0 1 0 0 0 1 0 #
edge $-1 $449 $559 $453 $630 0 #
point $-1 -108.976377952756 184.055118110236 -137.716535433071 #
coedge $-1 $558 $454 $459 $555 1 $164 $-1 #
coedge $-1 $454 $631 $550 $632 1 $164 $-1 #
vertex $-1 $632 $633 #
straight-curve $-1 -157.48031496063 184.055118110236 -122.40157480315 1 0 0 #
coedge $-1 $591 $456 $547 $632 0 $494 $-1 #
coedge $-1 $456 $634 $458 $553 1 $494 $-1 #
straight-curve $-1 119.448818897638 184.055118110236 -127.066929133858 0.701151119245595 0 0.713012698330577 #
edge $-1 $461 $635 $458 $636 0 #
coedge $-1 $459 $625 $601 $637 1 $392 $-1 #
edge $-1 $638 $460 $546 $639 0 #
point $-1 93.6614173228347 184.055118110236 -122.40157480315 #
point $-1 108.976377952756 184.055118110236 -137.716535433071 #
coedge $-1 $464 $546 $501 $602 1 $164 $-1 #
vertex $-1 $500 $640 #
straight-curve $-1 -157.48031496063 184.055118110236 -122.40157480315 1 0 0 #
coedge $-1 $472 $466 $641 $642 0 $32 $-1 #
coedge $-1 $643 $644 $466 $563 1 $645 $-1 #
edge $-1 $565 $646 $562 $647 0 #
coedge $-1 $467 $648 $643 $649 1 $425 $-1 #
vertex $-1 $563 $650 #
straight-curve $-1 129.92125984252 196.850393700787 0 0 -1 0 #
point $-1 129.92125984252 -129.92125984252 0 #
coedge $-1 $651 $483 $472 $569 1 $164 $-1 #
edge $-1 $652 $573 $568 $653 0 #
coedge $-1 $654 $473 $483 $582 1 $572 $-1 #
coedge $-1 $473 $654 $475 $576 1 $572 $-1 #
loop $-1 $-1 $654 $490 #
vertex $-1 $474 $655 #
straight-curve $-1 88.5826771653543 163.385826771654 0 0 -1 0 #
coedge $-1 $476 $475 $588 $656 1 $477 $-1 #
edge $-1 $478 $657 $571 $658 0 #
face $-1 $659 $477 $2 $-1 $660 reversed single #
point $-1 88.5826771653543 129.92125984252 0 #
edge $-1 $486 $580 $492 $661 0 #
vertex $-1 $579 $662 #
straight-curve $-1 -88.5826771653543 129.92125984252 0 0 0 -1 #
edge $-1 $584 $573 $570 $663 0 #
coedge $-1 $484 $588 $654 $664 0 $388 $-1 #
vertex $-1 $664 $665 #
straight-curve $-1 -157.48031496063 162.908282532551 -52.755905511811 1 0 0 #
point $-1 -88.5826771653543 162.908282532551 -52.755905511811 #
plane-surface $-1 88.5826771653543 163.385826771654 0 1 0 0 0 0 -1 0 #
coedge $-1 $583 $492 $575 $656 0 $388 $-1 #
face $-1 $666 $598 $2 $-1 $667 reversed single #
plane-surface $-1 129.92125984252 196.850393700787 -58.2086614173228 -1 0 0 0 -0 1 0 #
coedge $-1 $620 $550 $526 $617 0 $494 $-1 #
coedge $-1 $622 $533 $496 $593 1 $542 $-1 #
edge $-1 $635 $536 $592 $668 0 #
coedge $-1 $669 $670 $497 $595 1 $671 $-1 #
edge $-1 $540 $627 $497 $672 0 #
coedge $-1 $673 $498 $674 $675 0 $598 $-1 #
coedge $-1 $498 $673 $669 $676 0 $598 $-1 #
loop $-1 $-1 $596 $589 #
straight-curve $-1 -35.4330708661417 196.850393700787 -64.1732283464567 0 -1 0 #
straight-curve $-1 -75.0071731309758 178.391043965137 -103.747330611291 0.69135168609534 -0.209918299026697 0.69135168609534 #
coedge $-1 $502 $501 $554 $637 0 $503 $-1 #
edge $-1 $504 $638 $501 $677 0 #
coedge $-1 $678 $674 $502 $604 1 $679 $-1 #
edge $-1 $680 $505 $502 $681 0 #
face $-1 $351 $503 $2 $-1 $682 reversed single #
point $-1 -35.4330708661417 166.374976889548 -64.1732283464567 #
point $-1 -35.4330708661417 88.1889763779528 -64.1732283464567 #
coedge $-1 $509 $514 $507 $609 0 $519 $-1 #
edge $-1 $516 $511 $608 $683 0 #
plane-surface $-1 122.047244094488 0 0 1 0 0 0 0 -1 0 #
straight-curve $-1 0 122.047244094488 -29.1338582677165 -1 0 0 #
point $-1 122.047244094488 122.047244094488 -29.1338582677165 #
straight-curve $-1 0 -122.047244094488 -29.1338582677165 1 0 0 #
point $-1 122.047244094488 -122.047244094488 -29.1338582677165 #
face $-1 $405 $684 $2 $-1 $685 reversed single #
coedge $-1 $648 $526 $631 $686 0 $425 $-1 #
edge $-1 $687 $618 $591 $688 0 #
vertex $-1 $621 $689 #
straight-curve $-1 129.92125984252 -134.056322153231 42.2660699323694 0 -0.290536957203487 -0.956863771128858 #
coedge $-1 $634 $591 $530 $621 0 $494 $-1 #
edge $-1 $618 $623 $530 $690 0 #
coedge $-1 $533 $592 $634 $691 1 $542 $-1 #
vertex $-1 $691 $692 #
straight-curve $-1 -157.48031496063 -184.055118110236 -122.40157480315 1 0 0 #
coedge $-1 $554 $535 $693 $694 0 $392 $-1 #
point $-1 93.6614173228347 -184.055118110236 -122.40157480315 #
vertex $-1 $595 $695 #
straight-curve $-1 35.4330708661417 196.850393700787 -64.1732283464567 0 -1 0 #
point $-1 -35.4330708661417 -88.1889763779528 -64.1732283464567 #
straight-curve $-1 -72.2047244094488 184.055118110236 -100.944881889764 0.707106781186548 0 0.707106781186548 #
coedge $-1 $547 $696 $616 $686 1 $164 $-1 #
edge $-1 $548 $687 $547 $697 0 #
point $-1 124.036561049093 184.055118110236 -122.40157480315 #
coedge $-1 $551 $620 $622 $691 0 $494 $-1 #
vertex $-1 $593 $698 #
straight-curve $-1 108.976377952756 196.850393700787 -137.716535433071 0 -1 0 #
edge $-1 $638 $680 $601 $699 0 #
vertex $-1 $637 $700 #
straight-curve $-1 75.0071731309758 178.391043965137 -103.747330611291 0.69135168609534 0.209918299026697 -0.69135168609534 #
point $-1 -93.6614173228347 184.055118110236 -122.40157480315 #
coedge $-1 $701 $702 $561 $642 1 $703 $-1 #
edge $-1 $646 $652 $641 $704 0 #
coedge $-1 $705 $562 $564 $649 0 $645 $-1 #
coedge $-1 $562 $705 $701 $706 1 $645 $-1 #
loop $-1 $-1 $644 $707 #
vertex $-1 $642 $708 #
straight-curve $-1 0 129.92125984252 0 -1 0 0 #
coedge $-1 $564 $616 $709 $710 1 $425 $-1 #
edge $-1 $565 $711 $643 $712 0 #
point $-1 129.92125984252 129.92125984252 0 #
coedge $-1 $696 $568 $702 $713 0 $164 $-1 #
vertex $-1 $642 $714 #
straight-curve $-1 0 146.889763779528 0 -1 0 0 #
coedge $-1 $571 $570 $583 $664 1 $572 $-1 #
point $-1 88.5826771653543 146.889763779528 -4.37095678986282e-15 #
edge $-1 $580 $657 $588 $715 0 #
vertex $-1 $656 $716 #
straight-curve $-1 88.5826771653543 129.92125984252 0 0 0 -1 #
face $-1 $717 $703 $2 $-1 $718 reversed single #
plane-surface $-1 0 129.92125984252 0 0 -1 0 0 0 -1 0 #
straight-curve $-1 -88.5826771653543 163.385826771654 -52.755905511811 0 -1 0 #
point $-1 -88.5826771653543 129.92125984252 -52.755905511811 #
straight-curve $-1 88.5826771653543 165.472440944882 -61.2007874015748 0 -0.290536957203487 0.956863771128858 #
edge $-1 $657 $584 $583 $719 0 #
point $-1 88.5826771653543 162.908282532551 -52.755905511811 #
face $-1 $720 $721 $2 $-1 $722 reversed single #
plane-surface $-1 0 0 -64.1732283464567 0 0 -1 -1 0 0 0 #
straight-curve $-1 72.2047244094488 -184.055118110236 -100.944881889764 -0.707106781186548 0 0.707106781186548 #
coedge $-1 $723 $594 $597 $676 1 $671 $-1 #
coedge $-1 $594 $724 $725 $726 1 $671 $-1 #
loop $-1 $-1 $724 $727 #
straight-curve $-1 0 -88.1889763779528 -64.1732283464567 1 0 0 #
coedge $-1 $597 $596 $728 $729 0 $598 $-1 #
coedge $-1 $603 $730 $596 $675 1 $679 $-1 #
edge $-1 $505 $731 $596 $732 0 #
edge $-1 $733 $540 $597 $734 0 #
straight-curve $-1 0 166.374976889548 -64.1732283464567 1 0 0 #
coedge $-1 $735 $603 $736 $737 1 $679 $-1 #
loop $-1 $-1 $730 $720 #
vertex $-1 $637 $738 #
straight-curve $-1 0 88.1889763779528 -64.1732283464567 -1 0 0 #
plane-surface $-1 0 196.850393700787 -64.1732283464567 0 0 1 1 0 0 0 #
straight-curve $-1 122.047244094488 0 -29.1338582677165 0 1 0 #
loop $-1 $519 $739 $615 #
plane-surface $-1 0 0 -29.1338582677165 0 0 -1 -1 0 0 0 #
edge $-1 $687 $740 $631 $741 0 #
vertex $-1 $686 $742 #
straight-curve $-1 129.92125984252 196.850393700787 -116.417322834646 0 -1 0 #
point $-1 129.92125984252 -182.238092102431 -116.417322834646 #
straight-curve $-1 174.885432531891 -168.35444672583 -70.6924780509051 -0.685275502785233 -0.211593397518259 -0.6968685094113 #
edge $-1 $623 $635 $622 $743 0 #
point $-1 124.036561049093 -184.055118110236 -122.40157480315 #
coedge $-1 $725 $736 $625 $694 1 $721 $-1 #
edge $-1 $627 $680 $625 $744 0 #
point $-1 35.4330708661417 -88.1889763779528 -64.1732283464567 #
coedge $-1 $631 $651 $745 $746 0 $164 $-1 #
straight-curve $-1 117.798908173482 185.981126203515 -128.744751881544 0.685275502785233 -0.211593397518259 0.6968685094113 #
point $-1 108.976377952756 -184.055118110236 -137.716535433071 #
straight-curve $-1 35.4330708661417 196.850393700787 -64.1732283464567 0 -1 0 #
point $-1 35.4330708661417 166.374976889548 -64.1732283464567 #
coedge $-1 $747 $641 $644 $706 0 $703 $-1 #
coedge $-1 $641 $747 $651 $713 1 $703 $-1 #
loop $-1 $-1 $641 $659 #
straight-curve $-1 100.393700787402 163.385826771654 0 0 1 0 #
coedge $-1 $644 $643 $748 $749 1 $645 $-1 #
edge $-1 $646 $750 $701 $751 0 #
face $-1 $605 $645 $2 $-1 $752 reversed single #
point $-1 100.393700787402 129.92125984252 0 #
coedge $-1 $745 $748 $648 $710 0 $753 $-1 #
edge $-1 $711 $740 $709 $754 0 #
vertex $-1 $749 $755 #
straight-curve $-1 129.92125984252 129.92125984252 0 0 0 -1 #
edge $-1 $652 $756 $702 $757 0 #
point $-1 100.393700787402 146.889763779528 0 #
straight-curve $-1 0 129.92125984252 -52.755905511811 1 0 0 #
point $-1 88.5826771653543 129.92125984252 -52.755905511811 #
face $-1 $707 $753 $2 $-1 $758 reversed single #
plane-surface $-1 100.393700787402 163.385826771654 0 -1 0 0 0 -0 1 0 #
straight-curve $-1 88.5826771653543 163.385826771654 -52.755905511811 0 1 0 #
face $-1 $759 $679 $2 $-1 $760 reversed single #
loop $-1 $-1 $725 $666 #
plane-surface $-1 0 0 -64.1732283464567 0 0 -1 -1 0 0 0 #
coedge $-1 $761 $669 $762 $763 1 $671 $-1 #
coedge $-1 $670 $761 $764 $765 0 $671 $-1 #
coedge $-1 $766 $693 $670 $726 0 $721 $-1 #
edge $-1 $627 $767 $725 $768 0 #
face $-1 $769 $671 $2 $-1 $770 reversed single #
coedge $-1 $771 $762 $673 $729 1 $772 $-1 #
edge $-1 $731 $733 $673 $773 0 #
coedge $-1 $674 $774 $771 $775 0 $679 $-1 #
vertex $-1 $675 $776 #
straight-curve $-1 0 88.1889763779528 -64.1732283464567 -1 0 0 #
vertex $-1 $729 $777 #
straight-curve $-1 0 -88.1889763779528 -64.1732283464567 1 0 0 #
coedge $-1 $774 $678 $778 $779 1 $679 $-1 #
coedge $-1 $693 $766 $678 $737 0 $721 $-1 #
edge $-1 $780 $680 $736 $781 0 #
point $-1 35.4330708661417 88.1889763779528 -64.1732283464567 #
coedge $-1 $782 $783 $784 $785 0 $684 $-1 #
vertex $-1 $710 $786 #
straight-curve $-1 129.92125984252 167.289284161522 -67.1844373597693 0 -0.290536957203487 0.956863771128858 #
point $-1 129.92125984252 182.238092102431 -116.417322834646 #
straight-curve $-1 119.448818897638 -184.055118110236 -127.066929133858 -0.701151119245595 0 -0.713012698330577 #
straight-curve $-1 35.4330708661417 196.850393700787 -64.1732283464567 0 1 0 #
coedge $-1 $787 $709 $696 $746 1 $753 $-1 #
edge $-1 $756 $740 $745 $788 0 #
coedge $-1 $702 $701 $787 $789 1 $703 $-1 #
coedge $-1 $709 $787 $705 $749 0 $753 $-1 #
edge $-1 $750 $711 $748 $790 0 #
vertex $-1 $706 $791 #
straight-curve $-1 100.393700787402 129.92125984252 0 0 0 -1 #
plane-surface $-1 115.157480314961 129.92125984252 0 0 -1 0 0 0 -1 0 #
loop $-1 $-1 $787 $717 #
straight-curve $-1 129.92125984252 163.385826771654 -52.755905511811 0 1 0 #
point $-1 129.92125984252 129.92125984252 -52.755905511811 #
vertex $-1 $789 $792 #
straight-curve $-1 100.393700787402 165.472440944882 -61.2007874015748 0 0.290536957203487 -0.956863771128858 #
plane-surface $-1 115.157480314961 163.385826771654 -52.755905511811 0 0 -1 -1 0 0 0 #
face $-1 $727 $772 $2 $-1 $793 reversed single #
plane-surface $-1 0 88.1889763779528 0 0 1 0 0 0 1 0 #
coedge $-1 $724 $723 $794 $795 1 $671 $-1 #
coedge $-1 $728 $796 $723 $763 0 $772 $-1 #
edge $-1 $797 $733 $762 $798 0 #
coedge $-1 $799 $800 $724 $765 1 $801 $-1 #
edge $-1 $802 $767 $724 $803 0 #
coedge $-1 $736 $725 $800 $804 0 $721 $-1 #
vertex $-1 $726 $805 #
straight-curve $-1 0 -88.1889763779528 -64.1732283464567 1 0 0 #
face $-1 $806 $801 $2 $-1 $807 reversed single #
plane-surface $-1 0 -88.1889763779528 0 0 -1 0 0 0 -1 0 #
coedge $-1 $808 $728 $730 $775 1 $772 $-1 #
loop $-1 $-1 $762 $759 #
straight-curve $-1 -112.59842519685 0 -64.1732283464567 0 -1 0 #
coedge $-1 $730 $735 $809 $810 1 $679 $-1 #
edge $-1 $811 $731 $730 $812 0 #
point $-1 -112.59842519685 88.1889763779528 -64.1732283464567 #
point $-1 -112.59842519685 -88.1889763779528 -64.1732283464567 #
coedge $-1 $800 $813 $735 $779 0 $801 $-1 #
edge $-1 $814 $780 $735 $815 0 #
vertex $-1 $804 $816 #
straight-curve $-1 0 88.1889763779528 -64.1732283464567 -1 0 0 #
coedge $-1 $817 $739 $818 $819 0 $684 $-1 #
coedge $-1 $739 $817 $820 $821 0 $684 $-1 #
coedge $-1 $822 $823 $739 $785 1 $824 $-1 #
edge $-1 $825 $826 $784 $827 0 #
point $-1 129.92125984252 162.908282532551 -52.755905511811 #
coedge $-1 $748 $745 $747 $789 0 $753 $-1 #
straight-curve $-1 -157.48031496063 162.908282532551 -52.755905511811 1 0 0 #
edge $-1 $756 $750 $747 $828 0 #
straight-curve $-1 115.157480314961 129.92125984252 -52.755905511811 1 0 0 #
point $-1 100.393700787402 129.92125984252 -52.755905511811 #
point $-1 100.393700787402 162.908282532551 -52.755905511811 #
plane-surface $-1 -112.59842519685 0 0 -1 0 0 0 -0 1 0 #
coedge $-1 $829 $830 $761 $795 0 $831 $-1 #
edge $-1 $802 $797 $761 $832 0 #
coedge $-1 $762 $833 $829 $834 1 $772 $-1 #
vertex $-1 $763 $835 #
straight-curve $-1 -112.59842519685 -88.1889763779528 0 0 0 -1 #
coedge $-1 $836 $764 $830 $837 1 $801 $-1 #
coedge $-1 $764 $778 $766 $804 1 $801 $-1 #
loop $-1 $-1 $778 $769 #
vertex $-1 $765 $838 #
straight-curve $-1 112.59842519685 -88.1889763779528 0 0 0 -1 #
edge $-1 $767 $780 $766 $839 0 #
point $-1 112.59842519685 -88.1889763779528 -64.1732283464567 #
face $-1 $840 $841 $2 $-1 $842 reversed single #
plane-surface $-1 112.59842519685 0 0 1 0 0 0 0 -1 0 #
coedge $-1 $843 $771 $844 $845 1 $772 $-1 #
coedge $-1 $846 $844 $774 $810 0 $841 $-1 #
edge $-1 $811 $814 $774 $847 0 #
vertex $-1 $775 $848 #
straight-curve $-1 -112.59842519685 88.1889763779528 0 0 0 -1 #
coedge $-1 $778 $849 $846 $850 1 $801 $-1 #
vertex $-1 $779 $851 #
straight-curve $-1 112.59842519685 88.1889763779528 0 0 0 -1 #
point $-1 112.59842519685 88.1889763779528 -64.1732283464567 #
coedge $-1 $783 $782 $852 $853 0 $684 $-1 #
coedge $-1 $849 $836 $782 $819 1 $801 $-1 #
edge $-1 $826 $854 $818 $855 0 #
coedge $-1 $833 $843 $783 $821 1 $772 $-1 #
edge $-1 $856 $825 $820 $857 0 #
coedge $-1 $858 $784 $843 $859 0 $824 $-1 #
coedge $-1 $784 $858 $849 $860 1 $824 $-1 #
loop $-1 $-1 $822 $840 #
vertex $-1 $859 $861 #
vertex $-1 $819 $862 #
straight-curve $-1 0 112.59842519685 -29.1338582677165 1 0 0 #
straight-curve $-1 100.393700787402 163.385826771654 -52.755905511811 0 -1 0 #
coedge $-1 $863 $794 $796 $834 0 $831 $-1 #
coedge $-1 $794 $863 $799 $837 0 $831 $-1 #
loop $-1 $-1 $794 $864 #
straight-curve $-1 0 -88.1889763779528 -44.4881889763779 -1 0 0 #
coedge $-1 $796 $820 $865 $866 0 $772 $-1 #
edge $-1 $797 $867 $796 $868 0 #
point $-1 -112.59842519685 -88.1889763779528 -44.4881889763779 #
coedge $-1 $818 $799 $869 $870 1 $801 $-1 #
edge $-1 $871 $802 $799 $872 0 #
point $-1 112.59842519685 -88.1889763779528 -44.4881889763779 #
straight-curve $-1 112.59842519685 0 -64.1732283464567 0 1 0 #
face $-1 $873 $824 $2 $-1 $874 reversed single #
loop $-1 $-1 $809 $806 #
plane-surface $-1 0 0 -44.4881889763779 0 0 -1 -1 0 0 0 #
coedge $-1 $820 $808 $822 $859 1 $772 $-1 #
coedge $-1 $809 $875 $808 $845 0 $841 $-1 #
edge $-1 $876 $811 $808 $877 0 #
coedge $-1 $875 $809 $813 $850 0 $841 $-1 #
straight-curve $-1 0 88.1889763779528 -44.4881889763779 1 0 0 #
point $-1 -112.59842519685 88.1889763779528 -44.4881889763779 #
coedge $-1 $813 $818 $823 $860 0 $801 $-1 #
edge $-1 $814 $878 $813 $879 0 #
point $-1 112.59842519685 88.1889763779528 -44.4881889763779 #
coedge $-1 $869 $865 $817 $853 1 $880 $-1 #
edge $-1 $854 $856 $852 $881 0 #
vertex $-1 $870 $882 #
straight-curve $-1 112.59842519685 0 -29.1338582677165 0 -1 0 #
vertex $-1 $821 $883 #
straight-curve $-1 -112.59842519685 0 -29.1338582677165 0 1 0 #
coedge $-1 $823 $822 $875 $884 1 $824 $-1 #
edge $-1 $825 $876 $843 $885 0 #
edge $-1 $826 $878 $849 $886 0 #
point $-1 -112.59842519685 112.59842519685 -29.1338582677165 #
point $-1 112.59842519685 112.59842519685 -29.1338582677165 #
coedge $-1 $830 $829 $887 $888 0 $831 $-1 #
face $-1 $615 $831 $2 $-1 $889 reversed single #
coedge $-1 $852 $887 $833 $866 1 $880 $-1 #
edge $-1 $856 $867 $833 $890 0 #
vertex $-1 $866 $891 #
straight-curve $-1 -112.59842519685 0 -44.4881889763779 0 -1 0 #
coedge $-1 $887 $852 $836 $870 0 $880 $-1 #
edge $-1 $854 $871 $836 $892 0 #
vertex $-1 $837 $893 #
straight-curve $-1 112.59842519685 0 -44.4881889763779 0 1 0 #
face $-1 $864 $880 $2 $-1 $894 reversed single #
plane-surface $-1 0 112.59842519685 0 0 1 0 0 0 1 0 #
coedge $-1 $844 $846 $858 $884 0 $841 $-1 #
vertex $-1 $845 $895 #
straight-curve $-1 -112.59842519685 0 -44.4881889763779 0 -1 0 #
vertex $-1 $860 $896 #
straight-curve $-1 112.59842519685 0 -44.4881889763779 0 1 0 #
loop $-1 $-1 $869 $873 #
straight-curve $-1 0 -112.59842519685 -29.1338582677165 -1 0 0 #
point $-1 112.59842519685 -112.59842519685 -29.1338582677165 #
point $-1 -112.59842519685 -112.59842519685 -29.1338582677165 #
edge $-1 $878 $876 $875 $897 0 #
straight-curve $-1 -112.59842519685 112.59842519685 0 0 0 -1 #
straight-curve $-1 112.59842519685 112.59842519685 0 0 0 -1 #
coedge $-1 $865 $869 $863 $888 1 $880 $-1 #
edge $-1 $867 $871 $887 $898 0 #
plane-surface $-1 0 0 -44.4881889763779 0 0 -1 -1 0 0 0 #
straight-curve $-1 -112.59842519685 -112.59842519685 0 0 0 -1 #
point $-1 -112.59842519685 -112.59842519685 -44.4881889763779 #
straight-curve $-1 112.59842519685 -112.59842519685 0 0 0 -1 #
point $-1 112.59842519685 -112.59842519685 -44.4881889763779 #
plane-surface $-1 0 -112.59842519685 0 0 -1 0 0 0 -1 0 #
point $-1 -112.59842519685 112.59842519685 -44.4881889763779 #
point $-1 112.59842519685 112.59842519685 -44.4881889763779 #
straight-curve $-1 0 112.59842519685 -44.4881889763779 -1 0 0 #
straight-curve $-1 0 -112.59842519685 -44.4881889763779 1 0 0 #
