**ABCDEFGHIJKLMNOPQRSTUVWXYZabcdefghijklmnopqrstuvwxyz**************************
**PARASOLID !"#$%&'()*+,-./:;<=>?@[\]^_`{|}~0123456789**************************
**PART1;MC=sparc;MC_MODEL=sun4c;MC_ID=chaos;OS=SunOS;OS_RELEASE=4.1.2;FRU=sdl_pa
rasolid_test_sparc;APPL=unknown;SITE=sdl-cambridge-u.k.;USER=brown;FORMAT=text;G
UISE=transmit;KEY=lower_carriage;FILE=lower_carriage.xmt_txt;DATE=14-feb-1992;
**PART2;SCH=SCH_401021_4039;USFLD_SIZE=0;
**PART3;
**END_OF_HEADER*****************************************************************
T50 : TRANSMIT FILE created by modeller version 40102115 SCH_401021_40390 12 1 1
761 2 3 0 0 0 1e3 1e-8 4 2 0 5 6 1 7 1e-8 0 0 81 2 2 1761 8 1 0 0 0 0 9 10 70 3
 0 1 0 0 4 1 20 4 11 11 1 102 14 4 lower_carriage13 7 659 0 1 0 12 13 14 15 16 1
7 14 12 1666 0 18 0 19 7 15 -16 13 1685 0 20 0 21 16 18 14 1704 0 22 0 23 17 50
 15 1717 0 12 24 0 0 +-2.55 -4.15 0 1 0 0 0 0 -1 30 16 1727 0 13 25 0 0 +1e-8 -2
.55 -4.203 -1.5545 0 -.290536957203487 -.956863771128858 29 17 1746 0 14 26 0 -3
.3 -4.137870376326795 -1.34 29 26 1747 0 23 27 17 -2.55 -4.137870376326795 -1.34
 18 23 1705 0 20 14 28 26 29 27 1749 0 28 29 26 -2.55 -3.731 0 18 28 1707 0 30 2
3 31 27 29 29 1750 0 31 32 27 -3.3 -3.3 -1.34 18 31 1708 0 33 28 34 29 29 32 175
3 0 34 35 29 -2.55 -3.3 -1.34 18 34 1711 0 36 31 37 32 29 35 1757 0 37 38 32 -2.
55 -3.3 0 18 37 1715 0 39 34 40 35 29 38 1630 0 40 41 35 -3.3 -3.3 0 18 40 1628
 0 42 37 43 38 29 41 1609 0 43 44 38 -2.25 -3.731 0 18 43 1567 0 45 40 46 41 29
 44 1610 0 46 47 41 -2.25 -4.137870376326795 -1.34 18 46 1568 0 48 43 49 44 29 4
7 1611 0 49 50 44 2.25 -4.137870376326795 -1.34 18 49 1569 0 51 46 52 47 29 50 1
613 0 52 53 47 -2.25 -3.3 -1.34 18 52 1571 0 54 49 55 50 29 53 1616 0 55 56 50 2
.25 -3.3 -1.34 18 55 1574 0 57 52 58 53 29 56 1617 0 58 59 53 -2.25 -3.3 0 18 58
 1577 0 60 55 61 56 29 59 1620 0 61 62 56 2.25 -3.3 0 18 61 1578 0 63 58 64 59 2
9 62 1498 0 64 65 59 2.25 -3.731 0 18 64 1496 0 66 61 67 62 29 65 1477 0 67 68 6
2 2.55 -4.137870376326795 -1.34 18 67 1435 0 69 64 70 65 29 68 1478 0 70 71 65 3
.3 -4.137870376326795 -1.34 18 70 1436 0 72 67 73 68 29 71 1479 0 73 74 68 2.55
 -3.731 0 18 73 1437 0 75 70 76 71 29 74 1481 0 76 77 71 2.55 -3.3 -1.34 18 76 1
439 0 78 73 79 74 29 77 1485 0 79 80 74 2.55 -3.3 0 18 79 1445 0 81 76 82 77 29
 80 1488 0 82 83 77 3.3 -3.3 0 18 82 1446 0 84 79 85 80 29 83 1365 0 85 86 80 3.
3 -3.3 -1.34 18 85 1363 0 87 82 88 83 29 86 1340 0 88 89 83 -3.3 4.1378703763267
95 -1.34 18 88 1298 0 90 85 91 86 29 89 1341 0 91 92 86 -2.55 4.137870376326795
 -1.34 18 91 1299 0 93 88 94 89 29 92 1343 0 94 95 89 -2.55 3.731 -1110223024625
156e-31 18 94 1301 0 96 91 97 92 29 95 1346 0 97 98 92 -2.55 3.3 -1.34 18 97 130
4 0 99 94 100 95 29 98 1349 0 101 102 95 -3.3 3.3 0 18 101 1307 0 103 100 104 98
 29 102 1350 0 100 105 98 -2.55 3.3 0 18 100 1306 0 106 97 101 102 29 105 1228 0
 104 107 102 -3.3 3.3 -1.34 18 104 1226 0 108 101 109 105 29 107 1203 0 109 110
 105 -2.25 3.731 0 18 109 1161 0 111 104 112 107 29 110 1204 0 112 113 107 -2.25
 4.137870376326795 -1.34 18 112 1162 0 114 109 115 110 29 113 1205 0 115 116 110
 2.25 4.137870376326795 -1.34 18 115 1163 0 117 112 118 113 29 116 1206 0 118 11
9 113 2.25 3.731 -1110223024625156e-31 18 118 1164 0 120 115 121 116 29 119 1208
 0 121 122 116 -2.25 3.3 -1.34 18 121 1166 0 123 118 124 119 29 122 1209 0 124 1
25 119 2.25 3.3 -1.34 18 124 1167 0 126 121 127 122 29 125 1212 0 127 128 122 -2
.25 3.3 0 18 127 1170 0 129 124 130 125 29 128 1096 0 130 131 125 2.25 3.3 0 18
 130 1094 0 132 127 133 128 29 131 1071 0 133 134 128 2.55 4.137870376326795 -1.
34 18 133 1029 0 135 130 136 131 29 134 1072 0 136 137 131 3.3 4.137870376326795
 -1.34 18 136 1030 0 138 133 139 134 29 137 1073 0 139 140 134 2.55 3.731 0 18 1
39 1031 0 141 136 142 137 29 140 1076 0 142 143 137 2.55 3.3 -1.34 18 142 1034 0
 144 139 145 140 29 143 1077 0 145 146 140 3.3 3.3 -1.34 18 145 1035 0 147 142 1
48 143 29 146 1080 0 148 149 143 2.55 3.3 0 18 148 1038 0 150 145 151 146 29 149
 951 0 151 152 146 3.3 3.3 0 18 151 949 0 153 148 154 149 29 152 644 0 154 155 1
49 3.1 -3.1 0 18 154 642 0 156 151 157 152 29 155 615 0 157 158 152 .9 2.24 -1.6
3 18 157 613 0 159 154 160 155 29 158 560 0 160 161 155 2.768 -4.675 -3.498 18 1
60 438 0 162 157 163 158 29 161 561 0 163 164 158 -2.768 -4.675 -3.498 18 163 43
9 0 165 160 166 161 29 164 562 0 167 168 161 2.768 4.675 -3.498 18 167 440 0 169
 170 171 164 29 168 563 0 172 173 164 -2.768 4.675 -3.498 18 172 441 0 174 175 1
76 168 29 173 564 0 166 177 168 -3.3 -4.62884753940173 -2.957 18 166 442 0 178 1
63 179 173 29 177 565 0 179 180 173 -.9 -4.22592441299453 -1.63 18 179 443 0 181
 166 182 177 29 180 566 0 182 183 177 .9 -4.225924412994535 -1.63 18 182 444 0 1
84 179 185 180 29 183 568 0 185 186 180 3.15052865064695 -4.675 -3.109 18 185 44
6 0 187 182 188 183 29 186 569 0 188 189 183 2.379 -4.675 -3.109 18 188 447 0 19
0 185 191 186 29 189 570 0 191 192 186 -2.379 -4.675 -3.109 18 191 448 0 193 188
 194 189 29 192 571 0 194 195 189 -3.15052865064695 -4.675 -3.109 18 194 449 0 1
96 191 197 192 29 195 574 0 197 198 192 -3.3 4.62884753940174 -2.957 18 197 452
 0 199 194 200 195 29 198 575 0 200 201 195 -.9 4.22592441299453 -1.63 18 200 45
3 0 202 197 203 198 29 201 576 0 203 204 198 .9 4.22592441299453 -1.63 18 203 45
4 0 205 200 170 201 29 204 577 0 170 206 201 3.3 4.62884753940174 -2.957 18 170
 455 0 207 203 167 204 29 206 578 0 171 208 204 3.15052865064695 4.675 -3.109 18
 171 456 0 209 167 175 206 29 208 579 0 175 210 206 2.379 4.675 -3.109 18 175 45
7 0 211 171 172 208 29 210 580 0 176 212 208 -2.379 4.675 -3.109 18 176 458 0 21
3 172 214 210 29 212 581 0 214 215 210 -3.15052865064695 4.675 -3.109 18 214 459
 0 216 176 217 212 29 215 163 0 217 218 212 3.3 -4.62884753940174 -2.957 18 217
 161 0 219 214 220 215 29 218 904 0 220 221 215 .9 -2.24 -1.63 18 220 776 0 222
 217 223 218 29 221 905 0 223 224 218 -.9 -2.24 -1.63 18 223 777 0 225 220 226 2
21 29 224 906 0 226 227 221 -.9 2.24 -1.63 18 226 778 0 228 223 229 224 29 227 9
08 0 229 230 224 2.86 -2.24 -1.13 18 229 780 0 231 226 232 227 29 230 909 0 232
 233 227 -2.86 2.24 -1.63 18 232 781 0 234 229 235 230 29 233 910 0 235 236 230
 -2.86 -2.24 -1.63 18 235 782 0 237 232 238 233 29 236 911 0 238 239 233 2.86 -2
.24 -1.63 18 238 783 0 240 235 241 236 29 239 912 0 241 242 236 2.86 2.24 -1.63
 18 241 784 0 243 238 244 239 29 242 913 0 244 245 239 -2.86 -2.24 -1.13 18 244
 785 0 246 241 247 242 29 245 914 0 247 248 242 -2.86 2.24 -1.13 18 247 786 0 24
9 244 250 245 29 248 915 0 250 251 245 2.86 2.24 -1.13 18 250 787 0 252 247 253
 248 29 251 924 0 253 254 248 2.86 -2.86 -.74 18 253 796 0 255 250 256 251 29 25
4 925 0 256 257 251 -2.86 2.86 -1.13 18 256 797 0 258 253 259 254 29 257 926 0 2
59 260 254 -2.86 -2.86 -1.13 18 259 798 0 261 256 262 257 29 260 927 0 262 263 2
57 2.86 -2.86 -1.13 18 262 799 0 264 259 265 260 29 263 928 0 265 266 260 2.86 2
.86 -1.13 18 265 800 0 267 262 268 263 29 266 929 0 268 269 263 -2.86 2.86 -.74
 18 268 801 0 270 265 271 266 29 269 930 0 271 272 266 -2.86 -2.86 -.74 18 271 8
02 0 273 268 274 269 29 272 931 0 274 275 269 2.86 2.86 -.74 18 274 803 0 276 27
1 277 272 29 275 936 0 277 278 272 -3.1 3.1 -.74 18 277 808 0 279 274 280 275 29
 278 937 0 280 281 275 -3.1 -3.1 -.74 18 280 809 0 282 277 283 278 29 281 938 0
 283 284 278 3.1 -3.1 -.74 18 283 810 0 285 280 286 281 29 284 939 0 286 287 281
 3.1 3.1 -.74 18 286 811 0 288 283 289 284 29 287 940 0 290 291 284 -3.1 3.1 0 1
8 290 814 0 292 289 293 287 29 291 941 0 289 294 287 -3.1 -3.1 0 18 289 813 0 29
5 286 290 291 29 294 943 0 293 0 291 3.1 3.1 0 18 293 815 0 296 290 0 294 17 296
 297 156 292 293 298 299 0 15 297 640 0 292 300 301 17 156 297 295 296 154 302 3
03 0 17 292 297 296 295 290 304 305 0 17 298 306 279 307 290 296 299 0 16 299 77
4 0 296 305 303 308 16 305 773 0 292 309 299 310 16 303 775 0 156 299 0 311 30 3
08 903 0 299 0 311 0 +1e-8 0 3.1 0 1 0 0 30 311 902 0 303 308 310 0 +1e-8 3.1 0
 0 0 -1 0 30 310 900 0 305 311 312 0 +1e-8 -3.1 0 0 0 1 0 30 312 899 0 309 310 3
13 0 +1e-8 3.1 3.1 0 0 0 -1 16 309 771 0 288 314 305 312 30 313 898 0 314 312 31
5 0 +1e-8 3.1 -3.1 0 0 0 -1 16 314 770 0 285 316 309 313 30 315 897 0 316 313 31
7 0 +1e-8 -3.1 -3.1 0 0 0 -1 16 316 769 0 282 318 314 315 30 317 896 0 318 315 3
19 0 +1e-8 -3.1 3.1 0 0 0 -1 16 318 768 0 279 320 316 317 30 319 895 0 320 317 3
21 0 +1e-8 3.1 0 -.74 0 1 0 16 320 767 0 322 323 318 319 30 321 894 0 323 319 32
4 0 +1e-8 0 -3.1 -.74 1 0 0 16 323 766 0 325 326 320 321 30 324 893 0 326 321 32
7 0 +1e-8 -3.1 0 -.74 0 -1 0 16 326 765 0 328 329 323 324 30 327 892 0 329 324 3
30 0 +1e-8 0 3.1 -.74 -1 0 0 16 329 764 0 331 332 326 327 30 330 885 0 332 327 3
33 0 +1e-8 0 2.86 -.74 1 0 0 16 332 757 0 276 334 329 330 30 333 884 0 334 330 3
35 0 +1e-8 2.86 0 -1.13 0 1 0 16 334 756 0 336 337 332 333 30 335 883 0 337 333
 338 0 +1e-8 0 -2.86 -1.13 1 0 0 16 337 755 0 339 340 334 335 30 338 882 0 340 3
35 341 0 +1e-8 -2.86 0 -1.13 0 -1 0 16 340 754 0 342 343 337 338 30 341 881 0 34
3 338 344 0 +1e-8 0 2.86 -1.13 -1 0 0 16 343 753 0 345 346 340 341 30 344 880 0
 346 341 347 0 +1e-8 2.86 -2.86 0 0 0 -1 16 346 752 0 264 348 343 344 30 347 879
 0 348 344 349 0 +1e-8 2.86 2.86 0 0 0 -1 16 348 751 0 267 350 346 347 30 349 87
8 0 350 347 351 0 +1e-8 -2.86 -2.86 0 0 0 -1 16 350 750 0 261 352 348 349 30 351
 877 0 352 349 353 0 +1e-8 0 -2.86 -.74 -1 0 0 16 352 749 0 273 354 350 351 30 3
53 876 0 354 351 355 0 +1e-8 -2.86 2.86 0 0 0 -1 16 354 748 0 258 356 352 353 30
 355 870 0 356 353 357 0 +1e-8 -2.86 0 -.74 0 1 0 16 356 742 0 270 358 354 355 3
0 357 868 0 358 355 359 0 +1e-8 2.86 0 -.74 0 -1 0 16 358 740 0 255 360 356 357
 30 359 864 0 360 357 361 0 +1e-8 2.86 0 -1.13 0 1 0 16 360 736 0 362 363 358 35
9 30 361 862 0 363 359 364 0 +1e-8 -2.86 0 -1.13 0 -1 0 16 363 734 0 365 366 360
 361 30 364 861 0 366 361 367 0 +1e-8 0 2.24 -1.13 1 0 0 16 366 733 0 252 368 36
3 364 30 367 856 0 368 364 369 0 +1e-8 2.86 0 -1.63 0 1 0 16 368 728 0 370 371 3
66 367 30 369 855 0 371 367 372 0 +1e-8 0 -2.24 -1.63 1 0 0 16 371 727 0 373 374
 368 369 30 372 854 0 374 369 375 0 +1e-8 -2.86 0 -1.63 0 -1 0 16 374 726 0 376
 377 371 372 30 375 853 0 377 372 378 0 +1e-8 0 2.24 -1.63 -1 0 0 16 377 725 0 3
79 380 374 375 30 378 852 0 380 375 381 0 +1e-8 2.86 -2.24 0 0 0 -1 16 380 724 0
 240 382 377 378 30 381 851 0 382 378 383 0 +1e-8 2.86 2.24 0 0 0 -1 16 382 723
 0 243 384 380 381 30 383 850 0 384 381 385 0 +1e-8 -2.86 -2.24 0 0 0 -1 16 384
 722 0 237 386 382 383 30 385 849 0 386 383 387 0 +1e-8 0 -2.24 -1.13 -1 0 0 16
 386 721 0 388 389 384 385 30 387 848 0 389 385 390 0 +1e-8 -2.86 2.24 0 0 0 -1
 16 389 720 0 234 391 386 387 30 390 846 0 391 387 392 0 +1e-8 0 2.24 -1.63 -1 0
 0 16 391 718 0 393 394 389 390 30 392 845 0 394 390 395 0 +1e-8 0 -2.24 -1.63 1
 0 0 16 394 717 0 222 396 391 392 30 395 844 0 396 392 397 0 +1e-8 0 -2.24 -1.63
 1 0 0 16 396 716 0 398 399 394 395 30 397 843 0 399 395 400 0 +1e-8 .9 5 -1.63
 0 1 0 16 399 715 0 159 401 396 397 30 400 842 0 401 397 402 0 +1e-8 -.9 5 -1.63
 0 -1 0 16 401 714 0 225 403 399 400 30 402 160 0 403 400 404 0 +1e-8 3.3 5 -2.9
57 0 -1 0 16 403 158 0 405 406 401 402 30 404 178 0 406 402 407 0 +1e-8 2.768 5
 -3.498 0 -1 0 16 406 176 0 408 409 403 404 30 407 198 0 409 404 410 0 +1e-8 4.4
42089986310035 -4.27620294683608 -1.79558894249299 -.685275502785233 -.211593397
518259 -.6968685094113 16 409 196 0 411 412 406 407 30 410 204 0 412 407 413 0 +
1e-8 .9 5 -1.63 0 -1 0 16 412 202 0 414 415 409 410 30 413 230 0 415 410 416 0 +
1e-8 -.9 5 -1.63 0 -1 0 16 415 228 0 417 418 412 413 30 416 248 0 418 413 419 0
 +1e-8 -2.768 5 -3.498 0 -1 0 16 418 246 0 420 421 415 416 30 419 274 0 421 416
 422 0 +1e-8 -3.3 5 -2.957 0 -1 0 16 421 272 0 423 424 418 419 30 422 539 0 425
 419 426 0 +1e-8 -4 4.675 -3.109 1 0 0 16 425 417 0 427 428 424 422 30 426 537 0
 429 422 430 0 +1e-8 -4 4.675 -3.109 1 0 0 16 429 415 0 431 432 433 426 30 430 5
35 0 434 426 435 0 +1e-8 3.3 4.24914781770267 -1.70648470893814 0 -.290536957203
487 .956863771128858 16 434 413 0 436 437 432 430 30 435 534 0 437 430 438 0 +1e
-8 2.99209226760643 4.72392060556928 -3.270116697791205 .685275502785233 -.21159
3397518259 .6968685094113 16 437 412 0 207 439 434 435 30 438 533 0 439 435 440
 0 +1e-8 1.905182197526785 4.53113251671447 -2.635182197526785 .69135168609534 .
209918299026697 -.69135168609534 16 439 411 0 211 441 437 438 30 440 532 0 441 4
38 442 0 +1e-8 0 4.22592441299453 -1.63 1 0 0 16 441 410 0 205 443 439 440 30 44
2 531 0 443 440 444 0 +1e-8 -1.905182197526785 4.53113251671447 -2.6351821975267
85 .69135168609534 -.209918299026697 .69135168609534 16 443 409 0 202 445 441 44
2 30 444 530 0 445 442 446 0 +1e-8 -2.99209226760643 4.72392060556928 -3.2701166
97791205 .685275502785233 .211593397518259 -.6968685094113 16 445 408 0 216 447
 443 444 30 446 526 0 447 444 448 0 +1e-8 -4 -4.675 -3.109 1 0 0 16 447 404 0 44
9 450 445 446 30 448 524 0 450 446 451 0 +1e-8 -4 -4.675 -3.109 1 0 0 16 450 402
 0 187 452 447 448 30 451 520 0 452 448 453 0 +1e-8 .453908497783058 -4.09047559
4051855 -1.183908497783058 -.69135168609534 .209918299026697 .69135168609534 16
 452 398 0 184 454 450 451 30 453 519 0 454 451 455 0 +1e-8 0 -4.22592441299453
 -1.63 -1 0 0 16 454 397 0 181 456 452 453 30 455 518 0 456 453 457 0 +1e-8 -.45
3908497783058 -4.090475594051855 -1.183908497783058 -.69135168609534 -.209918299
026697 -.69135168609534 16 456 396 0 193 458 454 455 30 457 517 0 458 455 459 0
 +1e-8 -4.442089986310035 -4.27620294683608 -1.79558894249299 -.685275502785233
 .211593397518259 .6968685094113 16 458 395 0 178 460 456 457 30 459 516 0 460 4
57 461 0 +1e-8 -3.3 -3.40503058269206 1.073558176282182 0 .290536957203487 .9568
63771128858 16 460 394 0 462 463 458 459 30 461 511 0 432 459 464 0 +1e-8 3.034
 4.675 -3.2275 .701151119245595 0 .713012698330577 16 432 389 0 209 434 429 461
 30 464 510 0 433 461 465 0 +1e-8 1.834 4.675 -2.564 .707106781186548 0 -.707106
781186548 16 433 388 0 169 429 428 464 30 465 509 0 428 464 466 0 +1e-8 -1.834 4
.675 -2.564 .707106781186548 0 .707106781186548 16 428 387 0 213 433 425 465 30
 466 508 0 424 465 467 0 +1e-8 -3.034 4.675 -3.2275 .701151119245595 0 -.7130126
98330577 16 424 386 0 174 425 421 466 30 467 503 0 463 466 468 0 +1e-8 3.034 -4.
675 -3.2275 -.701151119245595 0 -.713012698330577 16 463 381 0 162 469 460 467 3
0 468 502 0 469 467 470 0 +1e-8 1.834 -4.675 -2.564 -.707106781186548 0 .7071067
81186548 16 469 380 0 190 471 463 468 30 470 501 0 471 468 472 0 +1e-8 -1.834 -4
.675 -2.564 -.707106781186548 0 -.707106781186548 16 471 379 0 165 473 469 470 3
0 472 500 0 473 470 474 0 +1e-8 -3.034 -4.675 -3.2275 -.701151119245595 0 .71301
2698330577 16 473 378 0 196 475 471 472 30 474 620 0 475 472 476 0 +1e-8 .9 5 -1
.63 0 -1 0 16 475 618 0 477 478 473 474 30 476 628 0 478 474 479 0 +1e-8 -.9 5 -
1.63 0 -1 0 16 478 626 0 480 481 475 476 30 479 636 0 481 476 482 0 +1e-8 0 2.24
 -1.63 -1 0 0 16 481 634 0 228 483 478 479 30 482 649 0 483 479 484 0 +1e-8 0 -3
.1 0 -1 0 0 16 483 647 0 295 485 481 482 30 484 952 0 485 482 486 0 +1e-8 3.3 5
 0 0 -1 0 16 485 950 0 487 488 483 484 30 486 969 0 488 484 489 0 +1e-8 0 3.731
 0 -1 0 0 16 488 967 0 490 491 485 486 30 489 973 0 491 486 492 0 +1e-8 0 3.3 0
 -1 0 0 16 491 971 0 150 493 488 489 30 492 1067 0 493 489 494 0 +1e-8 2.55 4.15
 0 0 1 0 16 493 1026 0 141 495 491 492 30 494 1065 0 495 492 496 0 +1e-8 3.3 3.3
 0 0 0 -1 16 495 1023 0 497 498 493 494 30 496 1064 0 498 494 499 0 +1e-8 2.55 3
.3 0 0 0 -1 16 498 1022 0 144 500 495 496 30 499 1062 0 500 496 501 0 +1e-8 3.3
 4.15 -1.34 0 1 0 16 500 1020 0 502 503 498 499 30 501 1061 0 503 499 504 0 +1e-
8 2.925 3.3 -1.34 1 0 0 16 503 1019 0 505 506 500 501 30 504 1054 0 506 501 507
 0 +1e-8 2.55 4.15 -1.34 0 -1 0 16 506 1012 0 508 509 503 504 30 507 1053 0 509
 504 510 0 +1e-8 -4 4.137870376326795 -1.34 1 0 0 16 509 1011 0 138 511 506 507
 30 510 1051 0 511 507 512 0 +1e-8 2.55 4.203 -1.5545 0 .290536957203487 -.95686
3771128858 16 511 1009 0 135 513 509 510 30 512 1093 0 513 510 514 0 +1e-8 0 3.7
31 0 -1 0 0 16 513 1091 0 515 516 511 512 30 514 1101 0 516 512 517 0 +1e-8 0 3.
3 0 -1 0 0 16 516 1099 0 129 518 513 514 30 517 1199 0 518 514 519 0 +1e-8 -2.25
 4.15 0 0 1 0 16 518 1158 0 111 520 516 517 30 519 1197 0 520 517 521 0 +1e-8 2.
25 3.3 0 0 0 -1 16 520 1155 0 126 522 518 519 30 521 1196 0 522 519 523 0 +1e-8
 -2.25 3.3 0 0 0 -1 16 522 1154 0 123 524 520 521 30 523 1194 0 524 521 525 0 +1
e-8 2.25 4.15 -1.34 0 1 0 16 524 1152 0 526 527 522 523 30 525 1193 0 527 523 52
8 0 +1e-8 0 3.3 -1.34 1 0 0 16 527 1151 0 529 530 524 525 30 528 1190 0 530 525
 531 0 +1e-8 2.25 4.15 0 0 -1 0 16 530 1148 0 132 532 527 528 30 531 1188 0 532
 528 533 0 +1e-8 2.25 4.203 -1.5545 0 -.290536957203487 .956863771128858 16 532
 1146 0 120 534 530 531 30 533 1187 0 534 531 535 0 +1e-8 -2.25 4.15 -1.34 0 -1
 0 16 534 1145 0 536 537 532 533 30 535 1185 0 537 533 538 0 +1e-8 -2.25 4.203 -
1.5545 0 .290536957203487 -.956863771128858 16 537 1143 0 114 539 534 535 30 538
 1183 0 539 535 540 0 +1e-8 -4 4.137870376326795 -1.34 1 0 0 16 539 1141 0 117 5
41 537 538 30 540 1221 0 541 538 542 0 +1e-8 -3.3 5 0 0 -1 0 16 541 1219 0 543 5
44 539 540 30 542 1225 0 544 540 545 0 +1e-8 -3.3 4.24914781770267 -1.7064847089
3814 0 .290536957203487 -.956863771128858 16 544 1223 0 199 546 541 542 30 545 1
232 0 546 542 547 0 +1e-8 -3.3 5 -1.34 0 1 0 16 546 1230 0 548 549 544 545 30 54
7 1337 0 549 545 550 0 +1e-8 -2.925 3.3 0 -1 0 0 16 549 1294 0 103 551 546 547 3
0 550 1334 0 551 547 552 0 +1e-8 -2.55 3.3 0 0 0 -1 16 551 1292 0 99 553 549 550
 30 552 1333 0 553 550 554 0 +1e-8 -3.3 3.3 0 0 0 -1 16 553 1291 0 108 555 551 5
52 30 554 1331 0 555 552 556 0 +1e-8 -2.55 4.15 -1.34 0 1 0 16 555 1289 0 557 55
8 553 554 30 556 1330 0 558 554 559 0 +1e-8 -2.925 3.3 -1.34 1 0 0 16 558 1288 0
 560 561 555 556 30 559 1327 0 561 556 562 0 +1e-8 -2.55 4.15 0 0 -1 0 16 561 12
85 0 106 563 558 559 30 562 1322 0 563 559 564 0 +1e-8 -4 4.137870376326795 -1.3
4 1 0 0 16 563 1280 0 93 565 561 562 30 564 1321 0 565 562 566 0 +1e-8 -2.55 4.2
03 -1.5545 0 -.290536957203487 .956863771128858 16 565 1279 0 96 567 563 564 30
 566 1362 0 567 564 568 0 +1e-8 3.3 -3.40503058269206 1.073558176282182 0 -.2905
36957203487 -.956863771128858 16 567 1360 0 219 569 565 566 30 568 1369 0 569 56
6 570 0 +1e-8 3.3 5 -1.34 0 -1 0 16 569 1367 0 571 572 567 568 30 570 1476 0 572
 568 573 0 +1e-8 2.925 -3.3 0 1 0 0 16 572 1433 0 84 574 569 570 30 573 1472 0 5
74 570 575 0 +1e-8 3.3 -3.3 0 0 0 -1 16 574 1430 0 87 576 572 573 30 575 1469 0
 576 573 577 0 +1e-8 2.55 -3.3 0 0 0 -1 16 576 1427 0 78 578 574 575 30 577 1466
 0 578 575 579 0 +1e-8 2.55 -4.15 -1.34 0 -1 0 16 578 1424 0 580 581 576 577 30
 579 1465 0 581 577 582 0 +1e-8 2.925 -3.3 -1.34 -1 0 0 16 581 1423 0 583 584 57
8 579 30 582 1463 0 584 579 585 0 +1e-8 2.55 -4.15 0 0 1 0 16 584 1421 0 81 586
 581 582 30 585 1459 0 586 582 587 0 +1e-8 -4 -4.137870376326795 -1.34 -1 0 0 16
 586 1417 0 69 588 584 585 30 587 1457 0 588 585 589 0 +1e-8 2.55 -4.203 -1.5545
 0 .290536957203487 .956863771128858 16 588 1415 0 75 590 586 587 30 589 1499 0
 590 587 591 0 +1e-8 -4 -3.731 0 1 0 0 16 590 1497 0 592 593 588 589 30 591 1516
 0 593 589 594 0 +1e-8 2.25 -4.203 -1.5545 0 -.290536957203487 -.956863771128858
 16 593 1514 0 595 596 590 591 30 594 1608 0 597 591 598 0 +1e-8 0 -3.3 0 1 0 0
 16 597 1565 0 63 599 596 594 30 598 1607 0 596 594 600 0 +1e-8 2.25 -4.15 0 0 -
1 0 16 596 1566 0 66 597 593 598 30 600 1604 0 599 598 601 0 +1e-8 2.25 -3.3 0 0
 0 -1 16 599 1562 0 57 602 597 600 30 601 1601 0 602 600 603 0 +1e-8 -2.25 -3.3
 0 0 0 -1 16 602 1559 0 54 604 599 601 30 603 1598 0 604 601 605 0 +1e-8 -2.25 -
4.15 -1.34 0 -1 0 16 604 1556 0 606 607 602 603 30 605 1597 0 607 603 608 0 +1e-
8 0 -3.3 -1.34 -1 0 0 16 607 1555 0 609 610 604 605 30 608 1595 0 610 605 611 0
 +1e-8 2.25 -4.15 -1.34 0 1 0 16 610 1553 0 612 613 607 608 30 611 1592 0 613 60
8 614 0 +1e-8 -2.25 -4.15 0 0 1 0 16 613 1550 0 60 615 610 611 30 614 1591 0 615
 611 616 0 +1e-8 -2.25 -4.203 -1.5545 0 .290536957203487 .956863771128858 16 615
 1549 0 45 617 613 614 30 616 1589 0 617 614 618 0 +1e-8 -4 -4.137870376326795 -
1.34 -1 0 0 16 617 1547 0 48 619 615 616 30 618 1644 0 619 616 620 0 +1e-8 -4 -3
.731 0 1 0 0 16 619 1642 0 621 622 617 618 30 620 1651 0 622 618 623 0 +1e-8 0 -
3.3 0 1 0 0 16 622 1649 0 39 624 619 620 30 623 1744 0 624 620 625 0 +1e-8 -2.55
 -4.15 0 0 -1 0 16 624 1703 0 30 626 622 623 30 625 1741 0 626 623 627 0 +1e-8 -
2.55 -3.3 0 0 0 -1 16 626 1699 0 36 628 624 625 30 627 1738 0 628 625 629 0 +1e-
8 -3.3 -3.3 0 0 0 -1 16 628 1696 0 630 631 626 627 30 629 1735 0 631 627 632 0 +
1e-8 -3.3 -4.15 -1.34 0 -1 0 16 631 1693 0 633 634 628 629 30 632 1734 0 634 629
 635 0 +1e-8 -2.925 -3.3 -1.34 -1 0 0 16 634 1692 0 636 637 631 632 30 635 1730
 0 637 632 25 0 +1e-8 -2.55 -4.15 -1.34 0 1 0 16 637 1688 0 638 21 634 635 30 25
 1728 0 21 635 16 0 +1e-8 -4 -4.137870376326795 -1.34 -1 0 0 16 21 1686 0 22 13
 637 25 17 22 639 640 20 14 641 21 0 15 639 351 0 20 642 0 17 640 639 643 22 166
 462 460 0 17 20 639 22 644 23 645 13 0 17 641 646 638 633 23 22 21 0 15 646 166
9 0 638 18 0 17 638 646 636 641 34 647 637 0 17 633 646 641 636 14 33 631 0 17 6
36 646 633 638 31 648 634 0 17 33 649 42 462 31 633 631 0 15 649 128 0 462 650 0
 17 42 649 651 33 40 630 628 0 17 462 649 33 423 14 640 460 0 17 423 649 462 199
 166 652 421 0 17 199 649 423 548 197 653 544 0 17 652 654 216 178 197 423 421 0
 15 654 125 0 196 655 0 17 216 654 174 652 214 656 445 0 17 178 654 652 196 166
 643 458 0 17 196 654 178 420 194 657 473 0 17 643 639 449 640 194 178 458 0 17
 449 639 658 643 191 659 447 0 17 658 639 660 449 179 193 456 0 17 659 661 657 6
62 194 449 447 0 15 661 327 0 657 663 0 17 657 661 662 659 163 196 473 0 17 662
 661 659 657 191 165 471 0 17 165 664 665 193 163 662 471 0 15 664 122 0 417 666
 0 17 665 664 213 165 172 420 418 0 17 193 664 165 480 191 658 456 0 17 480 664
 193 225 179 667 478 0 17 225 664 480 417 223 668 401 0 17 667 669 222 181 223 4
80 478 0 15 669 119 0 667 670 0 17 222 669 477 667 220 671 394 0 17 181 669 667
 477 179 660 454 0 17 477 669 181 222 182 672 475 0 17 660 639 673 658 182 181 4
54 0 17 673 639 187 660 188 184 452 0 17 187 639 674 673 185 675 450 0 17 184 67
6 672 190 182 673 452 0 15 676 116 0 190 677 0 17 672 676 159 184 220 477 475 0
 17 190 676 184 408 188 678 469 0 17 408 676 190 169 160 679 406 0 17 678 680 68
1 675 160 190 469 0 15 680 331 0 678 682 0 17 681 680 675 678 185 162 463 0 17 6
75 680 678 681 188 187 450 0 17 162 683 679 411 160 681 463 0 15 683 113 0 405 6
84 0 17 679 683 209 162 167 408 406 0 17 411 683 162 405 185 674 409 0 17 405 68
3 411 207 217 685 403 0 17 674 639 686 187 217 411 409 0 17 686 639 69 674 70 21
9 567 0 17 69 639 75 686 67 72 586 0 17 219 687 685 571 217 686 567 0 15 687 75
 0 87 688 0 17 685 687 436 219 170 405 403 0 17 571 687 219 87 70 689 569 0 17 8
7 687 571 487 85 690 574 0 17 689 691 583 72 85 571 569 0 15 691 1400 0 689 692
 0 17 583 691 580 689 76 693 581 0 17 72 691 689 580 70 69 586 0 17 580 691 72 5
83 67 694 578 0 17 694 695 696 697 76 580 578 0 15 695 1396 0 694 698 0 17 696 6
95 699 694 79 78 576 0 17 697 695 694 699 67 75 588 0 17 699 695 697 696 73 81 5
84 0 17 75 639 700 69 73 697 588 0 17 700 639 595 75 64 592 590 0 17 595 639 48
 700 49 701 593 0 17 592 301 81 66 73 700 590 0 15 301 131 0 543 300 0 17 81 301
 84 592 79 699 584 0 17 66 301 592 63 64 702 596 0 17 63 301 66 60 61 703 597 0
 17 702 704 57 701 61 66 596 0 15 704 1534 0 702 705 0 17 57 704 706 702 55 707
 599 0 17 701 704 702 706 64 595 593 0 17 706 704 701 57 49 612 610 0 17 612 708
 609 51 55 706 610 0 15 708 1528 0 612 709 0 17 609 708 606 612 52 710 607 0 17
 51 708 612 606 49 48 617 0 17 606 708 51 609 46 711 604 0 17 48 639 45 595 46 5
1 617 0 17 45 639 644 48 43 712 615 0 17 644 639 20 45 28 621 619 0 17 712 713 7
11 714 46 45 615 0 15 713 1532 0 711 715 0 17 711 713 716 712 52 606 604 0 17 71
4 713 712 716 43 60 613 0 17 716 713 714 711 58 54 602 0 17 60 301 63 621 58 714
 613 0 17 621 301 60 30 43 644 619 0 17 30 301 621 39 28 717 624 0 17 39 301 30
 543 37 718 622 0 17 717 19 36 645 37 30 624 0 15 19 1667 0 717 12 0 17 36 19 64
7 717 34 719 626 0 17 645 19 717 647 28 20 13 0 17 647 19 645 36 23 638 637 0 17
 719 720 718 648 37 36 626 0 15 720 1675 0 719 721 0 17 718 720 630 719 40 39 62
2 0 17 648 720 719 630 34 636 634 0 17 630 720 648 718 31 42 628 0 14 721 1674 0
 709 18 720 7 722 -14 709 1527 0 715 721 708 7 723 -14 18 1668 0 721 12 646 7 24
 -50 722 1721 0 721 723 24 0 +-2.925 -3.3 0 0 1 0 0 0 1 50 723 1579 0 709 724 72
2 0 +0 -4.15 -1.34 0 0 -1 -1 0 0 50 24 1718 0 18 722 15 0 +-2.925 -4.15 -1.34 0
 0 -1 -1 0 0 50 724 1581 0 715 725 723 0 +-2.25 -4.15 0 -1 0 0 0 0 1 14 715 1531
 0 705 709 713 7 724 -50 725 1582 0 705 726 724 0 +2.25 -4.15 0 1 0 0 0 0 -1 14
 705 1533 0 727 715 704 7 725 -50 726 1584 0 727 728 725 0 +0 -3.3 0 0 1 0 0 0 1
 14 727 1537 0 698 705 729 7 726 -50 728 1447 0 698 730 726 0 +2.55 -4.15 0 -1 0
 0 0 0 1 14 698 1395 0 692 727 695 7 728 -50 730 1449 0 692 731 728 0 +2.925 -4.
15 -1.34 0 0 -1 -1 0 0 14 692 1399 0 732 698 691 7 730 -50 731 1452 0 732 733 73
0 0 +2.925 -3.3 0 0 1 0 0 0 1 14 732 1405 0 734 692 735 7 731 -50 733 1311 0 734
 736 731 0 +-2.55 4.15 0 1 0 0 0 0 -1 14 734 1260 0 737 732 738 7 733 -50 736 13
12 0 737 739 733 0 +-2.925 4.15 -1.34 0 0 -1 -1 0 0 14 737 1262 0 740 734 741 7
 736 -50 739 1317 0 740 742 736 0 +-2.925 3.3 0 0 -1 0 0 0 -1 14 740 1272 0 743
 737 744 7 739 -50 742 1173 0 743 745 739 0 +0 4.15 -1.34 0 0 -1 -1 0 0 14 743 1
121 0 746 740 747 7 742 -50 745 1175 0 746 748 742 0 +-2.25 4.15 0 -1 0 0 0 0 1
 14 746 1125 0 749 743 750 7 745 -50 748 1176 0 749 751 745 0 +2.25 4.15 0 1 0 0
 0 0 -1 14 749 1127 0 752 746 753 7 748 -50 751 1180 0 752 754 748 0 +0 3.3 0 0
 -1 0 0 0 -1 14 752 1135 0 755 749 756 7 751 -50 754 1041 0 755 757 751 0 +2.55
 4.15 0 -1 0 0 0 0 1 14 755 989 0 758 752 759 7 754 -50 757 1043 0 758 760 754 0
 +2.925 4.15 -1.34 0 0 -1 -1 0 0 14 758 993 0 761 755 762 7 757 -50 760 1048 0 7
61 763 757 0 +2.925 3.3 0 0 -1 0 0 0 -1 14 761 1003 0 764 758 765 7 760 -50 763
 633 0 764 766 760 0 +0 5 -1.63 0 0 1 1 0 0 14 764 632 0 663 761 767 7 763 -50 7
66 474 0 663 768 763 0 +-4 -4.675 -3.3035 0 1 0 0 0 1 14 663 326 0 682 764 661 7
 766 -50 768 476 0 682 769 766 0 +-4 -4.675 -3.3035 0 1 0 0 0 1 14 682 330 0 642
 663 680 7 768 -50 769 480 0 770 771 768 0 +-4 4.675 -3.3035 0 -1 0 0 0 -1 14 77
0 338 0 300 772 773 7 769 -50 771 482 0 772 774 769 0 +-4 4.675 -3.3035 0 -1 0 0
 0 -1 14 772 342 0 770 775 776 7 771 -50 774 486 0 642 777 771 0 +-4 -4.203 -1.5
545 0 .956863771128858 -.290536957203487 0 .290536957203487 .956863771128858 14
 642 350 0 775 682 639 7 774 -50 777 489 0 775 778 774 0 +-4 4.203 -1.5545 0 -.9
56863771128858 -.290536957203487 0 .290536957203487 -.956863771128858 14 775 356
 0 772 642 779 7 777 -50 778 148 0 300 780 777 0 +0 5 0 0 0 -1 -1 0 0 14 300 132
 0 650 770 297 7 778 -50 780 147 0 650 781 778 0 +-3.3 5 -1.4785 1 0 0 0 0 -1 14
 650 129 0 655 300 649 7 780 -50 781 146 0 655 782 780 0 +-3.034 5 -3.2275 .7130
12698330577 0 .701151119245595 .701151119245595 0 -.713012698330577 14 655 126 0
 666 650 654 7 781 -50 782 145 0 666 783 781 0 +-1.834 5 -2.564 -.70710678118654
8 0 .707106781186548 .707106781186548 0 .707106781186548 14 666 123 0 670 655 66
4 7 782 -50 783 144 0 670 784 782 0 +0 5 -1.63 0 0 1 1 0 0 14 670 120 0 677 666
 669 7 783 -50 784 143 0 677 785 783 0 +1.834 5 -2.564 .707106781186548 0 .70710
6781186548 .707106781186548 0 -.707106781186548 14 677 117 0 684 670 676 7 784 -
50 785 142 0 684 786 784 0 +3.034 5 -3.2275 -.713012698330577 0 .701151119245595
 .701151119245595 0 .713012698330577 14 684 114 0 688 677 683 7 785 -50 786 141
 0 688 787 785 0 +3.3 5 -1.4785 -1 0 0 0 0 1 14 688 71 0 788 684 687 7 786 -50 7
87 816 0 788 789 786 0 +0 0 -1.63 0 0 -1 -1 0 0 14 788 660 0 790 688 791 7 787 -
50 789 817 0 790 792 787 0 +0 0 -1.63 0 0 -1 -1 0 0 14 790 662 0 793 788 794 7 7
89 -50 792 818 0 793 795 789 0 +0 2.24 0 0 1 0 0 0 1 14 793 664 0 796 790 797 7
 792 -50 795 819 0 796 798 792 0 +-2.86 0 0 -1 0 0 0 0 1 14 796 666 0 799 793 80
0 7 795 -50 798 820 0 799 801 795 0 +0 -2.24 0 0 -1 0 0 0 -1 14 799 668 0 802 79
6 803 7 798 -50 801 821 0 802 804 798 0 +2.86 0 0 1 0 0 0 0 -1 14 802 670 0 805
 799 806 7 801 -50 804 827 0 805 807 801 0 +0 0 -1.13 0 0 -1 -1 0 0 14 805 682 0
 808 802 809 7 804 -50 807 830 0 808 810 804 0 +0 2.86 0 0 1 0 0 0 1 14 808 688
 0 811 805 812 7 807 -50 810 832 0 811 813 807 0 +0 -2.86 0 0 -1 0 0 0 -1 14 811
 692 0 814 808 815 7 810 -50 813 834 0 814 816 810 0 +0 0 -1.13 0 0 -1 -1 0 0 14
 814 696 0 817 811 818 7 813 -50 816 836 0 817 819 813 0 +0 0 -.74 0 0 -1 -1 0 0
 14 817 700 0 820 814 821 7 816 -50 819 837 0 820 822 816 0 +0 3.1 0 0 1 0 0 0 1
 14 820 703 0 823 817 306 7 819 -50 822 838 0 823 824 819 0 +-3.1 0 0 -1 0 0 0 0
 1 14 823 705 0 825 820 826 7 822 -50 824 839 0 825 827 822 0 +0 -3.1 0 0 -1 0 0
 0 -1 14 825 707 0 828 823 829 7 824 -50 827 840 0 828 0 824 0 +3.1 0 0 1 0 0 0
 0 -1 14 828 712 0 0 825 830 7 827 -15 830 713 0 302 828 0 17 302 830 288 831 29
3 156 303 0 17 288 830 832 302 286 307 309 0 17 831 830 302 832 154 285 314 0 17
 832 830 831 288 283 322 320 0 17 285 829 833 834 283 831 314 0 15 829 708 0 835
 825 0 17 833 829 835 285 280 325 323 0 17 834 829 285 835 154 295 483 0 17 835
 829 834 833 289 282 316 0 17 295 297 292 156 289 834 483 0 17 282 826 836 304 2
80 835 316 0 15 826 706 0 837 823 0 17 836 826 837 282 277 328 326 0 17 304 826
 282 837 289 292 305 0 17 837 826 304 836 290 279 318 0 17 279 306 838 298 277 8
37 318 0 15 306 704 0 307 820 0 17 838 306 307 279 286 331 329 0 17 307 306 298
 838 293 288 309 0 17 331 839 328 322 277 838 329 0 15 839 702 0 331 817 0 17 32
8 839 325 331 280 836 326 0 17 322 839 331 325 286 832 320 0 17 325 839 322 328
 283 833 323 0 15 821 701 0 276 817 839 17 276 821 255 270 274 840 332 0 17 255
 821 273 276 253 841 358 0 17 270 821 276 273 268 842 356 0 17 840 812 258 843 2
68 276 332 0 15 812 689 0 258 808 0 17 258 812 844 840 256 845 354 0 17 843 812
 840 844 274 267 348 0 17 844 812 843 258 265 345 343 0 17 267 806 846 841 265 8
43 348 0 15 806 671 0 243 802 0 17 846 806 243 267 250 362 360 0 17 841 806 267
 847 274 255 358 0 17 847 806 841 848 253 264 346 0 17 848 806 847 231 262 336 3
34 0 17 264 815 849 850 262 847 346 0 15 815 693 0 264 811 0 17 849 815 851 264
 259 339 337 0 17 850 815 264 851 253 273 352 0 17 851 815 850 849 271 261 350 0
 17 273 821 270 255 271 850 352 0 17 261 800 246 842 259 851 350 0 15 800 667 0
 237 796 0 17 246 800 237 261 244 365 363 0 17 842 800 261 845 271 270 356 0 17
 845 800 842 852 268 258 354 0 17 852 800 845 249 256 342 340 0 17 249 800 852 8
53 247 234 389 0 17 342 809 252 345 247 852 340 0 15 809 683 0 252 805 0 17 252
 809 362 342 250 854 366 0 17 345 809 342 362 256 844 343 0 17 362 809 345 252 2
65 846 360 0 17 854 797 234 855 247 252 366 0 15 797 665 0 234 793 0 17 234 797
 856 854 232 249 389 0 17 855 797 854 857 250 243 382 0 17 857 797 855 858 241 3
79 377 0 17 243 806 859 846 241 855 382 0 17 859 806 231 243 238 370 368 0 17 23
1 806 848 859 229 240 380 0 17 370 794 379 398 241 859 368 0 15 794 663 0 398 79
0 0 17 379 794 860 370 157 857 377 0 17 398 794 370 860 238 861 396 0 17 860 794
 398 379 220 159 399 0 17 861 803 671 240 220 398 396 0 15 803 669 0 240 799 0 1
7 671 803 862 861 223 222 394 0 17 240 803 861 863 238 231 380 0 17 863 803 240
 864 229 388 386 0 17 864 803 863 862 244 237 384 0 17 388 818 365 336 244 863 3
86 0 15 818 697 0 388 814 0 17 365 818 339 388 259 246 363 0 17 336 818 388 339
 229 848 334 0 17 339 818 336 365 262 849 337 0 17 862 803 864 671 235 373 371 0
 17 237 800 853 246 235 864 384 0 17 853 800 249 237 232 376 374 0 17 376 791 37
3 393 235 853 374 0 15 791 661 0 393 788 0 17 373 791 668 376 223 862 371 0 17 3
93 791 376 668 232 856 391 0 17 668 791 393 373 226 225 401 0 17 856 797 858 234
 226 393 391 0 17 858 797 857 856 157 228 481 0 17 228 767 865 414 226 858 481 0
 15 767 630 0 414 764 0 17 865 767 205 228 200 417 415 0 17 414 767 228 205 157
 866 412 0 17 205 767 414 865 203 867 441 0 17 866 676 211 159 203 414 412 0 17
 211 676 169 866 175 868 439 0 17 159 676 866 672 157 860 399 0 17 169 676 408 2
11 167 869 433 0 17 868 779 867 870 203 211 439 0 15 779 357 0 653 775 0 17 867
 779 871 868 200 205 441 0 17 870 779 868 872 175 431 429 0 17 872 779 870 873 1
71 207 437 0 17 431 776 874 869 171 870 429 0 15 776 343 0 869 772 0 17 874 776
 869 431 167 209 432 0 17 869 776 431 874 175 169 433 0 17 209 683 207 679 171 8
74 432 0 17 207 683 405 209 170 872 437 0 17 873 779 872 138 170 436 434 0 17 13
8 779 873 135 136 875 509 0 17 436 687 147 685 136 873 434 0 17 147 687 153 436
 145 502 500 0 17 153 687 487 147 151 497 495 0 17 502 762 875 505 136 147 500 0
 15 762 994 0 508 758 0 17 875 762 508 502 133 138 509 0 17 505 762 502 508 145
 876 503 0 17 508 762 505 875 142 877 506 0 17 876 765 878 497 142 505 503 0 15
 765 1004 0 878 761 0 17 878 765 879 876 148 144 498 0 17 497 765 876 879 145 15
3 495 0 17 879 765 497 878 151 150 491 0 17 150 301 141 880 148 879 491 0 17 141
 301 490 150 139 881 493 0 17 880 301 150 84 151 487 485 0 17 84 301 880 81 82 8
82 572 0 17 487 687 87 153 82 880 485 0 17 882 735 78 690 79 84 572 0 15 735 140
6 0 690 732 0 17 78 735 693 882 76 696 576 0 17 690 735 882 693 82 87 574 0 17 6
93 735 690 78 85 583 581 0 17 490 301 132 141 118 883 488 0 17 881 759 144 884 1
48 141 493 0 15 759 990 0 881 755 0 17 144 759 877 881 142 878 498 0 17 884 759
 881 877 139 135 511 0 17 877 759 884 144 133 508 506 0 17 135 779 138 883 133 8
84 511 0 17 883 779 135 120 139 490 488 0 17 120 779 883 117 118 885 532 0 17 11
7 779 120 114 115 886 539 0 17 885 753 887 888 115 120 532 0 15 753 1128 0 887 7
49 0 17 887 753 889 885 124 526 524 0 17 888 753 885 889 118 132 530 0 17 889 75
3 888 887 130 126 520 0 17 132 301 129 490 130 888 530 0 17 129 301 111 132 127
 890 516 0 17 111 301 515 129 109 891 518 0 17 890 756 126 892 130 129 516 0 15
 756 1136 0 892 752 0 17 126 756 893 890 124 889 520 0 17 892 756 890 893 127 12
3 522 0 17 893 756 892 126 121 529 527 0 17 123 750 894 891 121 892 522 0 15 750
 1126 0 891 746 0 17 894 750 895 123 112 536 534 0 17 891 750 123 895 127 111 51
8 0 17 895 750 891 894 109 114 537 0 17 114 779 117 896 112 895 537 0 17 896 779
 114 96 109 515 513 0 17 96 779 896 93 94 897 565 0 17 515 301 106 111 94 896 51
3 0 17 106 301 103 515 100 898 561 0 17 103 301 543 106 101 899 549 0 17 898 738
 897 900 94 106 561 0 15 738 1261 0 901 734 0 17 897 738 901 898 91 96 565 0 17
 900 738 898 901 100 99 551 0 17 901 738 900 897 97 557 555 0 17 99 744 902 899
 97 900 551 0 15 744 1273 0 903 740 0 17 902 744 903 99 104 560 558 0 17 899 744
 99 903 100 103 549 0 17 903 744 899 902 101 108 553 0 17 108 649 548 651 104 90
3 553 0 17 548 649 199 108 88 904 546 0 17 651 649 108 42 101 543 541 0 17 543 3
01 39 103 40 651 541 0 17 904 741 560 90 104 548 546 0 15 741 1263 0 904 737 0 1
7 560 741 557 904 97 902 558 0 17 90 741 904 557 88 93 563 0 17 557 741 90 560 9
1 901 555 0 17 93 779 96 653 91 90 563 0 17 653 779 93 656 88 199 544 0 17 656 7
79 653 905 197 216 445 0 17 905 779 656 871 214 427 425 0 17 871 779 905 867 176
 202 443 0 17 427 773 906 907 176 905 425 0 15 773 339 0 907 770 0 17 906 773 90
7 427 172 213 428 0 17 907 773 427 906 214 174 424 0 17 174 654 420 216 172 907
 424 0 17 420 654 196 174 163 665 418 0 17 213 664 202 665 176 906 428 0 17 202
 664 417 213 200 871 443 0 17 417 664 225 202 226 865 415 0 17 536 747 529 886 1
21 894 534 0 15 747 1122 0 536 743 0 17 529 747 526 536 124 893 527 0 17 886 747
 536 526 112 117 539 0 17 526 747 886 529 115 887 524 0 15 729 1538 0 707 727 0
 17 707 729 703 710 61 57 599 0 17 703 729 54 707 58 63 597 0 17 710 729 707 54
 55 609 607 0 17 54 729 710 703 52 716 602 0 74 20 11 1 0 2 0 0 0 0 0 0 0 0 0 0
 0 0 0 0 0 0 0 0 0 80 2 8 908 8004 909 0 0 0 0 3 5 0 0 FFTFFFFFFFFF2 3 83 1 9 .3
22 84 7 10 density79 16 909 SDL/TYSA_DENSITY1 0 
