600 0 1 0           
122 GICL ACIS STEP Translator - Source: f:/data5/repository/Parasolid/NIST/Pete_Brown/lower_carriage/lower_carriage.step - 6 0 13 ACIS 6.0.3 NT 24 Mon Apr 08 10:55:00 2002 
1 9.9999999999999995e-007 1e-010 
body $-1 $1 $-1 $-1 #
lump $-1 $-1 $2 $0 #
shell $-1 $-1 $-1 $3 $-1 $1 #
face $-1 $4 $5 $2 $-1 $6 reversed single #
face $-1 $7 $8 $2 $-1 $9 reversed single #
loop $-1 $-1 $10 $3 #
plane-surface $-1 -2550.0000000000105 -4150.0000000000109 0 1 0 0 0 0 -25.399999999999999 forward_v I I I I #
face $-1 $11 $12 $2 $-1 $13 reversed single #
loop $-1 $-1 $14 $4 #
plane-surface $-1 -2925.0000000000095 -4150.0000000000109 -1339.9999999999993 0 0 -1 -25.399999999999999 0 0 forward_v I I I I #
coedge $-1 $15 $16 $17 $18 reversed $5 $-1 #
face $-1 $19 $20 $2 $-1 $21 reversed single #
loop $-1 $-1 $22 $7 #
plane-surface $-1 -2925.0000000000095 -3300.0000000000073 0 0 1 0 0 0 25.399999999999999 forward_v I I I I #
coedge $-1 $23 $24 $25 $26 forward $8 $-1 #
coedge $-1 $25 $10 $22 $27 forward $5 $-1 #
coedge $-1 $10 $25 $28 $29 reversed $5 $-1 #
coedge $-1 $30 $31 $10 $18 forward $32 $-1 #
edge $-1 $33 -33.464566929134008 $34 -16.496062992125985 $10 $35 forward 7 unknown #
face $-1 $36 $37 $2 $-1 $38 reversed single #
loop $-1 $-1 $39 $11 #
plane-surface $-1 0 -4150.0000000000109 -1339.9999999999993 0 0 -1 -25.399999999999999 0 0 forward_v I I I I #
coedge $-1 $40 $41 $15 $27 reversed $12 $-1 #
coedge $-1 $42 $14 $41 $43 forward $8 $-1 #
coedge $-1 $14 $42 $44 $45 reversed $8 $-1 #
coedge $-1 $16 $15 $14 $26 reversed $5 $-1 #
edge $-1 $46 0.47754423910299693 $47 33.464566929134008 $25 $48 forward 7 unknown #
edge $-1 $33 0 $47 52.755905511811001 $15 $49 forward 7 unknown #
coedge $-1 $44 $50 $16 $29 forward $51 $-1 #
edge $-1 $34 -63.959770709443006 $46 -8.8255843146835584 $16 $52 forward 7 unknown #
coedge $-1 $53 $17 $50 $54 forward $32 $-1 #
coedge $-1 $17 $55 $40 $56 forward $32 $-1 #
loop $-1 $-1 $55 $57 #
vertex $-1 $18 $58 #
vertex $-1 $18 $59 #
straight-curve $-1 -2550.0000000000105 -4150.0000000000109 0 0 -25.399999999999999 0 I I #
face $-1 $60 $61 $2 $-1 $62 reversed single #
loop $-1 $-1 $63 $19 #
plane-surface $-1 -2249.9999999999991 -4150.0000000000109 0 -1 0 0 0 0 25.399999999999999 forward_v I I I I #
coedge $-1 $64 $65 $66 $67 forward $20 $-1 #
coedge $-1 $68 $22 $31 $56 reversed $12 $-1 #
coedge $-1 $22 $68 $23 $43 reversed $12 $-1 #
coedge $-1 $24 $23 $69 $70 forward $8 $-1 #
edge $-1 $47 -14.763779527559009 $71 14.763779527558981 $23 $72 forward 7 unknown #
coedge $-1 $73 $28 $24 $45 forward $51 $-1 #
edge $-1 $46 -57.086614173228014 $74 -27.559055118110024 $24 $75 forward 7 unknown #
vertex $-1 $26 $76 #
vertex $-1 $27 $77 #
straight-curve $-1 -2550.0000000000105 -4150.0000000000109 -1339.9999999999993 0 25.399999999999999 0 I I #
straight-curve $-1 -2550.0000000000105 -3300.0000000000073 0 0 0 -25.399999999999999 I I #
coedge $-1 $28 $78 $30 $54 reversed $51 $-1 #
loop $-1 $-1 $28 $79 #
straight-curve $-1 -2550.0000000000105 -4203.0000000000027 -1554.4999999999998 0 -7.3796387129685685 -24.30433978667299 I I #
coedge $-1 $80 $30 $81 $82 forward $32 $-1 #
edge $-1 $34 57.086614173228014 $83 68.897637795275713 $50 $84 forward 7 unknown #
coedge $-1 $31 $85 $86 $87 forward $32 $-1 #
edge $-1 $88 -129.92125984251999 $33 -100.393700787402 $40 $89 forward 7 unknown #
face $-1 $90 $91 $2 $-1 $92 reversed single #
point $-1 -2550.0000000000105 -3300.0000000000073 0 #
point $-1 -2550.0000000000105 -3731.0000000000114 0 #
face $-1 $93 $94 $2 $-1 $95 reversed single #
loop $-1 $-1 $96 $36 #
plane-surface $-1 2249.9999999999991 -4150.0000000000109 0 1 0 0 0 0 -25.399999999999999 forward_v I I I I #
coedge $-1 $97 $98 $99 $100 reversed $37 $-1 #
coedge $-1 $99 $39 $101 $102 forward $20 $-1 #
coedge $-1 $39 $99 $103 $104 reversed $20 $-1 #
coedge $-1 $105 $106 $39 $67 reversed $61 $-1 #
edge $-1 $107 0.47754423910299693 $108 33.464566929134008 $39 $109 forward 7 unknown #
coedge $-1 $41 $40 $110 $111 forward $12 $-1 #
coedge $-1 $110 $112 $42 $70 reversed $113 $-1 #
edge $-1 $71 -33.464566929134008 $74 -0.47754423910299693 $42 $114 forward 7 unknown #
vertex $-1 $43 $115 #
straight-curve $-1 -2925.0000000000095 -3300.0000000000073 -1339.9999999999993 -25.399999999999999 0 0 I I #
coedge $-1 $116 $44 $112 $117 reversed $51 $-1 #
vertex $-1 $70 $118 #
straight-curve $-1 -4000.0000000000023 -4137.8703763267949 -1339.9999999999993 -25.399999999999999 0 0 I I #
point $-1 -2550.0000000000105 -4137.8703763267949 -1339.9999999999993 #
point $-1 -2550.0000000000105 -3300.0000000000073 -1339.9999999999993 #
coedge $-1 $50 $103 $98 $119 forward $51 $-1 #
face $-1 $120 $51 $2 $-1 $121 reversed single #
coedge $-1 $122 $53 $123 $124 forward $32 $-1 #
coedge $-1 $98 $97 $53 $82 reversed $37 $-1 #
edge $-1 $83 16.496062992125985 $125 33.464566929134008 $81 $126 forward 7 unknown #
vertex $-1 $82 $127 #
straight-curve $-1 -4000.0000000000023 -3731.0000000000114 0 25.399999999999999 0 0 I I #
coedge $-1 $55 $128 $129 $130 forward $32 $-1 #
coedge $-1 $131 $110 $55 $87 reversed $113 $-1 #
edge $-1 $132 66.929133858267022 $88 326.77165354330702 $55 $133 forward 7 unknown #
vertex $-1 $56 $134 #
straight-curve $-1 0 -3300.0000000000073 0 25.399999999999999 0 0 I I #
face $-1 $135 $113 $2 $-1 $136 reversed single #
loop $-1 $32 $137 $57 #
plane-surface $-1 0 4999.99999999999 0 0 0 -1 -25.399999999999999 0 0 forward_v I I I I #
face $-1 $138 $139 $2 $-1 $140 reversed single #
loop $-1 $-1 $141 $60 #
plane-surface $-1 0 -3300.0000000000073 0 0 1 0 0 0 25.399999999999999 forward_v I I I I #
coedge $-1 $106 $105 $122 $142 reversed $61 $-1 #
coedge $-1 $81 $63 $143 $144 reversed $37 $-1 #
coedge $-1 $63 $81 $78 $119 reversed $37 $-1 #
coedge $-1 $65 $64 $63 $100 forward $20 $-1 #
edge $-1 $145 -33.464566929134008 $146 -0.47754423910299693 $99 $147 forward 7 unknown #
coedge $-1 $141 $143 $64 $102 reversed $94 $-1 #
edge $-1 $108 -88.582677165354298 $145 88.582677165354298 $64 $148 forward 7 unknown #
coedge $-1 $78 $149 $65 $104 forward $51 $-1 #
edge $-1 $107 -246.06299212598429 $146 -68.897637795275713 $65 $150 forward 7 unknown #
coedge $-1 $96 $66 $149 $151 reversed $61 $-1 #
coedge $-1 $66 $96 $141 $152 forward $61 $-1 #
vertex $-1 $67 $153 #
vertex $-1 $67 $154 #
straight-curve $-1 2249.9999999999991 -4150.0000000000109 -1339.9999999999993 0 25.399999999999999 0 I I #
coedge $-1 $86 $69 $68 $111 reversed $113 $-1 #
edge $-1 $88 0 $71 52.755905511811001 $68 $155 forward 7 unknown #
coedge $-1 $69 $156 $73 $117 forward $113 $-1 #
loop $-1 $-1 $112 $90 #
straight-curve $-1 -3300.0000000000073 -4150.0000000000109 -1339.9999999999993 0 -25.399999999999999 0 I I #
point $-1 -3300.0000000000073 -3300.0000000000073 -1339.9999999999993 #
coedge $-1 $157 $73 $158 $159 reversed $51 $-1 #
edge $-1 $160 -165.83697445228671 $74 -99.305646541595337 $73 $161 forward 7 unknown #
point $-1 -3300.0000000000073 -4137.8703763267949 -1339.9999999999993 #
edge $-1 $146 8.8255843146835584 $83 63.959770709443006 $98 $162 forward 7 unknown #
face $-1 $163 $164 $2 $-1 $165 reversed single #
plane-surface $-1 -4000.0000000000023 -4203.0000000000027 -1554.4999999999998 0 0.95686377112885779 -0.29053695720348693 0 7.3796387129685677 24.304339786672987 forward_v I I I I #
coedge $-1 $166 $80 $96 $142 forward $32 $-1 #
coedge $-1 $143 $141 $80 $124 reversed $94 $-1 #
edge $-1 $125 -88.582677165354298 $167 88.582677165354298 $123 $168 forward 7 unknown #
vertex $-1 $144 $169 #
straight-curve $-1 -2249.9999999999991 -4150.0000000000109 0 0 25.399999999999999 0 I I #
point $-1 -2249.9999999999991 -3731.0000000000114 0 #
coedge $-1 $85 $170 $171 $172 forward $32 $-1 #
coedge $-1 $173 $174 $85 $130 reversed $175 $-1 #
edge $-1 $176 -14.763779527559009 $132 14.763779527558981 $129 $177 forward 7 unknown #
coedge $-1 $178 $86 $174 $179 forward $113 $-1 #
vertex $-1 $179 $180 #
straight-curve $-1 -3300.0000000000073 4999.99999999999 0 0 -25.399999999999999 0 I I #
point $-1 -3300.0000000000073 -3300.0000000000073 0 #
face $-1 $181 $182 $2 $-1 $183 reversed single #
plane-surface $-1 -3300.0000000000073 4999.99999999999 -1478.4999999999991 1 0 0 0 0 -25.399999999999999 forward_v I I I I #
coedge $-1 $184 $185 $186 $187 forward $91 $-1 #
face $-1 $188 $189 $2 $-1 $190 reversed single #
loop $-1 $-1 $191 $93 #
plane-surface $-1 2550.0000000000105 -4150.0000000000109 0 -1 0 0 0 0 25.399999999999999 forward_v I I I I #
coedge $-1 $123 $101 $106 $152 reversed $94 $-1 #
edge $-1 $167 -33.464566929134008 $192 -16.496062992125985 $96 $193 forward 7 unknown #
coedge $-1 $101 $123 $97 $144 forward $94 $-1 #
edge $-1 $125 0 $145 52.755905511811001 $97 $194 forward 7 unknown #
vertex $-1 $102 $195 #
vertex $-1 $100 $196 #
straight-curve $-1 -2249.9999999999991 -4150.0000000000109 -1339.9999999999993 0 -25.399999999999999 0 I I #
straight-curve $-1 0 -3300.0000000000073 -1339.9999999999993 -25.399999999999999 0 0 I I #
coedge $-1 $103 $197 $105 $151 forward $51 $-1 #
straight-curve $-1 -4000.0000000000023 -4137.8703763267949 -1339.9999999999993 -25.399999999999999 0 0 I I #
edge $-1 $192 -63.959770709443006 $107 -8.8255843146835584 $105 $198 forward 7 unknown #
edge $-1 $167 0 $108 52.755905511811001 $106 $199 forward 7 unknown #
point $-1 2249.9999999999991 -4137.8703763267949 -1339.9999999999993 #
point $-1 2249.9999999999991 -3300.0000000000073 -1339.9999999999993 #
straight-curve $-1 -3300.0000000000073 -3300.0000000000073 0 0 0 -25.399999999999999 I I #
coedge $-1 $112 $200 $201 $202 forward $113 $-1 #
coedge $-1 $203 $116 $204 $205 forward $51 $-1 #
coedge $-1 $201 $206 $116 $159 forward $182 $-1 #
edge $-1 $207 -74.202085549721815 $160 -65.614738169712751 $116 $208 forward 7 unknown #
vertex $-1 $117 $209 #
straight-curve $-1 -3300.0000000000073 -3405.0305826920676 1073.5581762821826 0 7.3796387129685685 24.30433978667299 I I #
straight-curve $-1 -2249.9999999999991 -4203.0000000000027 -1554.4999999999998 0 7.3796387129685685 24.30433978667299 I I #
face $-1 $210 $211 $2 $-1 $212 reversed single #
loop $-1 $-1 $213 $120 #
plane-surface $-1 -4000.0000000000023 4203.0000000000027 -1554.4999999999998 0 -0.95686377112885779 -0.29053695720348693 0 7.3796387129685677 -24.304339786672987 forward_v I I I I #
coedge $-1 $214 $122 $197 $215 forward $32 $-1 #
vertex $-1 $142 $216 #
straight-curve $-1 0 -3300.0000000000073 0 25.399999999999999 0 0 I I #
point $-1 -2249.9999999999991 -3300.0000000000073 0 #
coedge $-1 $128 $217 $218 $219 forward $32 $-1 #
coedge $-1 $220 $221 $128 $172 reversed $222 $-1 #
edge $-1 $223 16.496062992125985 $176 33.464566929134008 $171 $224 forward 7 unknown #
coedge $-1 $225 $129 $221 $226 forward $175 $-1 #
coedge $-1 $129 $225 $131 $179 reversed $175 $-1 #
loop $-1 $-1 $174 $227 #
vertex $-1 $226 $228 #
straight-curve $-1 -2925.0000000000095 3300.0000000000073 0 -25.399999999999999 0 0 I I #
coedge $-1 $200 $131 $229 $230 forward $113 $-1 #
edge $-1 $132 0 $231 52.755905511811001 $174 $232 forward 7 unknown #
point $-1 -3300.0000000000073 3300.0000000000073 0 #
face $-1 $233 $234 $2 $-1 $235 reversed single #
loop $-1 $-1 $206 $135 #
plane-surface $-1 -3034.000000000005 4999.99999999999 -3227.4999999999927 0.71301269833057668 0 0.7011511192455947 17.809238428838103 0 -18.110522537596648 forward_v I I I I #
coedge $-1 $236 $137 $237 $238 forward $91 $-1 #
coedge $-1 $137 $236 $239 $240 forward $91 $-1 #
coedge $-1 $241 $242 $137 $187 reversed $243 $-1 #
edge $-1 $244 -122.04724409448799 $245 122.04724409448799 $137 $246 forward 7 unknown #
face $-1 $247 $248 $2 $-1 $249 reversed single #
loop $-1 $-1 $250 $138 #
plane-surface $-1 2925.0000000000095 -4150.0000000000109 -1339.9999999999993 0 0 -1 -25.399999999999999 0 0 forward_v I I I I #
coedge $-1 $251 $252 $253 $254 reversed $139 $-1 #
vertex $-1 $142 $255 #
straight-curve $-1 2249.9999999999991 -4150.0000000000109 0 0 -25.399999999999999 0 I I #
straight-curve $-1 -2249.9999999999991 -3300.0000000000073 0 0 0 -25.399999999999999 I I #
point $-1 -2249.9999999999991 -3300.0000000000073 -1339.9999999999993 #
point $-1 -2249.9999999999991 -4137.8703763267949 -1339.9999999999993 #
coedge $-1 $149 $256 $166 $215 reversed $51 $-1 #
straight-curve $-1 2249.9999999999991 -4203.0000000000027 -1554.4999999999998 0 -7.3796387129685685 -24.30433978667299 I I #
straight-curve $-1 2249.9999999999991 -3300.0000000000073 0 0 0 -25.399999999999999 I I #
coedge $-1 $156 $178 $213 $257 forward $113 $-1 #
coedge $-1 $258 $158 $156 $202 reversed $182 $-1 #
edge $-1 $259 14.612301598355998 $160 379.088485803217 $156 $260 forward 7 unknown #
coedge $-1 $261 $157 $262 $263 reversed $51 $-1 #
coedge $-1 $264 $265 $157 $205 reversed $266 $-1 #
edge $-1 $207 33.443753911537016 $267 63.818897637795317 $204 $268 forward 7 unknown #
coedge $-1 $158 $269 $264 $270 forward $182 $-1 #
vertex $-1 $270 $271 #
straight-curve $-1 -4442.0899863100312 -4276.2029468360815 -1795.5889424929894 -17.405997770744918 5.3744722969637788 17.700460139047017 I I #
point $-1 -3300.0000000000073 -4628.8475394017214 -2957.0000000000082 #
face $-1 $57 $272 $2 $-1 $273 reversed single #
loop $-1 $-1 $274 $163 #
plane-surface $-1 -4000.0000000000023 4674.9999999999945 -3303.4999999999936 0 -1 0 0 0 -25.399999999999999 forward_v I I I I #
coedge $-1 $275 $276 $200 $257 reversed $164 $-1 #
coedge $-1 $277 $166 $278 $279 forward $32 $-1 #
edge $-1 $192 246.06299212598429 $280 257.87401574803198 $197 $281 forward 7 unknown #
point $-1 2249.9999999999991 -3300.0000000000073 0 #
coedge $-1 $170 $282 $283 $284 forward $32 $-1 #
coedge $-1 $285 $286 $170 $219 reversed $164 $-1 #
edge $-1 $287 88.582677165354298 $223 100.393700787402 $218 $288 forward 7 unknown #
coedge $-1 $289 $171 $286 $290 reversed $222 $-1 #
coedge $-1 $171 $289 $173 $226 reversed $222 $-1 #
loop $-1 $-1 $289 $247 #
vertex $-1 $172 $291 #
straight-curve $-1 -2550.0000000000105 4150.0000000000109 0 0 -25.399999999999999 0 I I #
coedge $-1 $174 $173 $292 $293 reversed $175 $-1 #
edge $-1 $176 0 $294 52.755905511811001 $221 $295 forward 7 unknown #
face $-1 $296 $175 $2 $-1 $297 reversed single #
point $-1 -2550.0000000000105 3300.0000000000073 0 #
coedge $-1 $292 $298 $178 $230 reversed $299 $-1 #
edge $-1 $231 -66.929133858267022 $300 -33.942111168236011 $229 $301 forward 7 unknown #
vertex $-1 $230 $302 #
straight-curve $-1 -3300.0000000000073 3300.0000000000073 0 0 0 -25.399999999999999 I I #
face $-1 $303 $304 $2 $-1 $305 reversed single #
loop $-1 $-1 $306 $181 #
plane-surface $-1 -1833.9999999999995 4999.99999999999 -2564.0000000000055 -0.70710678118654757 0 0.70710678118654757 17.960512242138307 0 17.960512242138307 forward_v I I I I #
coedge $-1 $185 $184 $307 $308 forward $91 $-1 #
coedge $-1 $309 $310 $184 $238 reversed $311 $-1 #
edge $-1 $245 -122.04724409448799 $312 122.04724409448799 $184 $313 forward 7 unknown #
coedge $-1 $314 $315 $185 $240 reversed $316 $-1 #
edge $-1 $317 -122.04724409448799 $244 122.04724409448799 $185 $318 forward 7 unknown #
coedge $-1 $319 $186 $315 $320 forward $243 $-1 #
coedge $-1 $186 $319 $309 $321 reversed $243 $-1 #
loop $-1 $-1 $242 $322 #
vertex $-1 $187 $323 #
vertex $-1 $187 $324 #
straight-curve $-1 -3099.999999999995 0 0 0 25.399999999999999 0 I I #
face $-1 $325 $222 $2 $-1 $326 reversed single #
loop $-1 $-1 $327 $188 #
plane-surface $-1 2925.0000000000095 -3300.0000000000073 0 0 1 0 0 0 25.399999999999999 forward_v I I I I #
coedge $-1 $328 $329 $330 $331 reversed $189 $-1 #
coedge $-1 $278 $191 $332 $333 reversed $139 $-1 #
coedge $-1 $191 $278 $256 $334 reversed $139 $-1 #
coedge $-1 $329 $328 $191 $254 forward $189 $-1 #
edge $-1 $335 -33.464566929134008 $336 -0.47754423910299693 $191 $337 forward 7 unknown #
point $-1 2249.9999999999991 -3731.0000000000114 0 #
coedge $-1 $197 $338 $252 $334 forward $51 $-1 #
edge $-1 $300 -15.078982278674962 $259 51.452345632016687 $213 $339 forward 7 unknown #
coedge $-1 $340 $201 $276 $341 forward $182 $-1 #
vertex $-1 $257 $342 #
straight-curve $-1 -3300.0000000000073 4999.99999999999 -2957.0000000000082 0 -25.399999999999999 0 I I #
coedge $-1 $343 $203 $344 $345 reversed $51 $-1 #
coedge $-1 $346 $347 $203 $263 forward $234 $-1 #
edge $-1 $348 25.403362602306647 $267 109.62727877666205 $203 $349 forward 7 unknown #
coedge $-1 $265 $204 $206 $270 reversed $266 $-1 #
coedge $-1 $204 $264 $346 $350 reversed $266 $-1 #
loop $-1 $-1 $264 $351 #
vertex $-1 $350 $352 #
straight-curve $-1 -4000.0000000000023 -4674.9999999999945 -3109.00000000001 25.399999999999999 0 0 I I #
coedge $-1 $206 $340 $353 $354 forward $182 $-1 #
edge $-1 $355 -14.936068213297569 $207 6.5431574243092081 $264 $356 forward 7 unknown #
point $-1 -3150.528650646962 -4674.9999999999945 -3109.00000000001 #
loop $-1 $-1 $357 $210 #
plane-surface $-1 -4000.0000000000023 4674.9999999999945 -3303.4999999999936 0 -1 0 0 0 -25.399999999999999 forward_v I I I I #
coedge $-1 $358 $359 $360 $361 reversed $211 $-1 #
coedge $-1 $286 $213 $298 $362 forward $164 $-1 #
coedge $-1 $213 $363 $258 $341 reversed $164 $-1 #
coedge $-1 $364 $214 $365 $366 forward $32 $-1 #
coedge $-1 $252 $251 $214 $279 reversed $139 $-1 #
edge $-1 $280 16.496062992125985 $367 33.464566929134008 $278 $368 forward 7 unknown #
vertex $-1 $279 $369 #
straight-curve $-1 -4000.0000000000023 -3731.0000000000114 0 25.399999999999999 0 0 I I #
coedge $-1 $217 $370 $371 $372 forward $32 $-1 #
coedge $-1 $373 $374 $217 $284 reversed $375 $-1 #
edge $-1 $376 -33.464566929134008 $287 -16.496062992125985 $283 $377 forward 7 unknown #
coedge $-1 $378 $218 $374 $379 forward $164 $-1 #
coedge $-1 $218 $275 $220 $290 forward $164 $-1 #
vertex $-1 $284 $380 #
straight-curve $-1 0 3731.0000000000114 0 -25.399999999999999 0 0 I I #
coedge $-1 $221 $220 $381 $382 reversed $222 $-1 #
edge $-1 $383 8.8255843146835584 $223 63.959770709442999 $220 $384 forward 7 unknown #
point $-1 -2550.0000000000105 3731.0000000000114 -1.1102230246251563e-013 #
coedge $-1 $381 $229 $225 $293 forward $299 $-1 #
edge $-1 $231 -14.763779527558981 $294 14.763779527559009 $292 $385 forward 7 unknown #
vertex $-1 $382 $386 #
straight-curve $-1 -2550.0000000000105 3300.0000000000073 0 0 0 -25.399999999999999 I I #
face $-1 $387 $388 $2 $-1 $389 reversed single #
plane-surface $-1 -2925.0000000000095 3300.0000000000073 0 0 -1 0 0 0 -25.399999999999999 forward_v I I I I #
coedge $-1 $229 $381 $275 $362 reversed $299 $-1 #
loop $-1 $-1 $229 $325 #
vertex $-1 $230 $390 #
straight-curve $-1 -3300.0000000000073 4999.99999999999 -1339.9999999999993 0 25.399999999999999 0 I I #
point $-1 -3300.0000000000073 3300.0000000000073 -1339.9999999999993 #
face $-1 $391 $392 $2 $-1 $393 reversed single #
loop $-1 $-1 $394 $233 #
plane-surface $-1 0 4999.99999999999 -1630 0 0 1 25.399999999999999 0 0 forward_v I I I I #
coedge $-1 $395 $396 $397 $398 forward $234 $-1 #
coedge $-1 $399 $400 $236 $308 reversed $401 $-1 #
edge $-1 $312 -122.04724409448799 $317 122.04724409448799 $236 $402 forward 7 unknown #
coedge $-1 $403 $237 $242 $321 forward $311 $-1 #
coedge $-1 $237 $403 $399 $404 reversed $311 $-1 #
loop $-1 $-1 $310 $405 #
vertex $-1 $238 $406 #
straight-curve $-1 0 3099.999999999995 0 25.399999999999999 0 0 I I #
coedge $-1 $407 $239 $400 $408 forward $316 $-1 #
coedge $-1 $239 $407 $241 $320 reversed $316 $-1 #
loop $-1 $-1 $315 $409 #
vertex $-1 $308 $410 #
straight-curve $-1 0 -3099.999999999995 0 -25.399999999999999 0 0 I I #
coedge $-1 $242 $241 $411 $412 reversed $243 $-1 #
edge $-1 $244 0 $413 29.133858267716501 $241 $414 forward 7 unknown #
edge $-1 $245 0 $415 29.133858267716501 $309 $416 forward 7 unknown #
face $-1 $409 $243 $2 $-1 $417 reversed single #
point $-1 -3099.999999999995 -3099.999999999995 0 #
point $-1 -3099.999999999995 3099.999999999995 0 #
face $-1 $227 $299 $2 $-1 $418 reversed single #
plane-surface $-1 -2550.0000000000105 4150.0000000000109 0 1 0 0 0 0 -25.399999999999999 forward_v I I I I #
coedge $-1 $365 $419 $420 $421 reversed $248 $-1 #
coedge $-1 $253 $250 $419 $422 forward $189 $-1 #
coedge $-1 $250 $253 $338 $423 reversed $189 $-1 #
coedge $-1 $424 $420 $250 $331 forward $425 $-1 #
edge $-1 $426 326.77165354330702 $427 359.75867623333801 $250 $428 forward 7 unknown #
coedge $-1 $419 $365 $251 $333 forward $248 $-1 #
edge $-1 $367 0 $335 52.755905511811001 $251 $429 forward 7 unknown #
edge $-1 $336 8.8255843146835584 $280 63.959770709443006 $252 $430 forward 7 unknown #
vertex $-1 $254 $431 #
vertex $-1 $254 $432 #
straight-curve $-1 2550.0000000000105 -4150.0000000000109 -1339.9999999999993 0 -25.399999999999999 0 I I #
coedge $-1 $256 $433 $329 $423 forward $51 $-1 #
straight-curve $-1 -3300.0000000000073 4249.1478177026584 -1706.4847089381403 0 7.3796387129685685 -24.30433978667299 I I #
coedge $-1 $269 $258 $357 $434 forward $182 $-1 #
edge $-1 $259 -17.689749042199836 $435 -9.1024016621909905 $276 $436 forward 7 unknown #
point $-1 -3300.0000000000073 4628.8475394017478 -2957.0000000000082 #
coedge $-1 $437 $261 $438 $439 reversed $51 $-1 #
coedge $-1 $394 $440 $261 $345 forward $304 $-1 #
edge $-1 $441 -35.433070866141698 $348 35.433070866141698 $261 $442 forward 7 unknown #
coedge $-1 $353 $262 $265 $350 forward $234 $-1 #
coedge $-1 $262 $395 $394 $443 forward $234 $-1 #
vertex $-1 $263 $444 #
straight-curve $-1 -453.90849778305824 -4090.4755940518553 -1183.9084977830591 -17.560332826821636 -5.3319247952781037 -17.560332826821636 I I #
edge $-1 $267 30.344346121785058 $355 52.002971151829527 $265 $445 forward 7 unknown #
face $-1 $446 $266 $2 $-1 $447 reversed single #
point $-1 -2379.0000000000009 -4674.9999999999945 -3109.00000000001 #
coedge $-1 $448 $346 $269 $354 reversed $234 $-1 #
edge $-1 $449 12.795275590551 $355 380.90551181102302 $269 $450 forward 7 unknown #
vertex $-1 $270 $451 #
straight-curve $-1 -3034.000000000005 -4674.9999999999945 -3227.4999999999927 -17.809238428838114 0 18.110522537596655 I I #
coedge $-1 $452 $453 $340 $434 reversed $272 $-1 #
coedge $-1 $359 $274 $454 $455 forward $211 $-1 #
coedge $-1 $274 $358 $456 $457 reversed $211 $-1 #
coedge $-1 $458 $459 $274 $361 forward $392 $-1 #
edge $-1 $460 30.344346121785058 $461 52.002971151829527 $274 $462 forward 7 unknown #
edge $-1 $300 27.559055118110024 $383 57.086614173228014 $298 $463 forward 7 unknown #
coedge $-1 $276 $464 $452 $465 reversed $164 $-1 #
coedge $-1 $466 $277 $467 $468 reversed $32 $-1 #
coedge $-1 $332 $327 $277 $366 reversed $248 $-1 #
edge $-1 $367 -14.763779527559009 $469 14.763779527558981 $365 $470 forward 7 unknown #
vertex $-1 $333 $471 #
straight-curve $-1 2550.0000000000105 -4150.0000000000109 0 0 25.399999999999999 0 I I #
point $-1 2550.0000000000105 -3731.0000000000114 0 #
coedge $-1 $282 $472 $473 $474 forward $32 $-1 #
coedge $-1 $475 $476 $282 $372 reversed $477 $-1 #
edge $-1 $478 -88.582677165354298 $376 88.582677165354298 $371 $479 forward 7 unknown #
coedge $-1 $480 $283 $476 $481 forward $375 $-1 #
coedge $-1 $283 $480 $285 $379 reversed $375 $-1 #
loop $-1 $-1 $283 $387 #
vertex $-1 $284 $482 #
straight-curve $-1 -2249.9999999999991 4150.0000000000109 0 0 25.399999999999999 0 I I #
coedge $-1 $483 $285 $484 $485 forward $164 $-1 #
edge $-1 $287 -63.959770709443006 $486 -8.8255843146835584 $374 $487 forward 7 unknown #
point $-1 -2249.9999999999991 3731.0000000000114 0 #
coedge $-1 $298 $292 $289 $382 forward $299 $-1 #
edge $-1 $294 -33.464566929134008 $383 -0.47754423910299693 $289 $488 forward 7 unknown #
vertex $-1 $382 $489 #
straight-curve $-1 -2550.0000000000105 4203.0000000000027 -1554.4999999999998 0 -7.3796387129685685 24.30433978667299 I I #
straight-curve $-1 -2925.0000000000095 3300.0000000000073 -1339.9999999999993 25.399999999999999 0 0 I I #
point $-1 -2550.0000000000105 3300.0000000000073 -1339.9999999999993 #
face $-1 $490 $375 $2 $-1 $491 reversed single #
loop $-1 $-1 $492 $296 #
plane-surface $-1 0 4150.0000000000109 -1339.9999999999993 0 0 -1 -25.399999999999999 0 0 forward_v I I I I #
point $-1 -3300.0000000000073 4137.8703763267949 -1339.9999999999993 #
face $-1 $493 $494 $2 $-1 $495 reversed single #
loop $-1 $-1 $496 $303 #
plane-surface $-1 1833.9999999999995 4999.99999999999 -2564.0000000000055 0.70710678118654757 0 0.70710678118654757 17.960512242138307 0 -17.960512242138307 forward_v I I I I #
coedge $-1 $497 $344 $347 $443 reversed $304 $-1 #
coedge $-1 $347 $306 $498 $499 forward $234 $-1 #
coedge $-1 $306 $448 $464 $500 forward $234 $-1 #
coedge $-1 $501 $502 $306 $398 reversed $503 $-1 #
edge $-1 $504 30.475416811239 $505 108.66141732283421 $397 $506 forward 7 unknown #
coedge $-1 $507 $307 $310 $404 forward $401 $-1 #
coedge $-1 $307 $507 $314 $408 reversed $401 $-1 #
loop $-1 $-1 $307 $508 #
straight-curve $-1 3099.999999999995 0 0 0 -25.399999999999999 0 I I #
coedge $-1 $310 $309 $509 $510 reversed $311 $-1 #
edge $-1 $312 0 $511 29.133858267716501 $310 $512 forward 7 unknown #
face $-1 $322 $311 $2 $-1 $513 reversed single #
point $-1 3099.999999999995 3099.999999999995 0 #
coedge $-1 $315 $314 $514 $515 reversed $316 $-1 #
edge $-1 $317 0 $516 29.133858267716501 $314 $517 forward 7 unknown #
face $-1 $508 $316 $2 $-1 $518 reversed single #
point $-1 3099.999999999995 -3099.999999999995 0 #
coedge $-1 $514 $509 $319 $412 forward $519 $-1 #
edge $-1 $415 -122.04724409448799 $413 122.04724409448799 $411 $520 forward 7 unknown #
vertex $-1 $412 $521 #
straight-curve $-1 -3099.999999999995 -3099.999999999995 0 0 0 -25.399999999999999 I I #
vertex $-1 $510 $522 #
straight-curve $-1 -3099.999999999995 3099.999999999995 0 0 0 -25.399999999999999 I I #
plane-surface $-1 -3099.999999999995 0 0 -1 0 0 0 0 25.399999999999999 forward_v I I I I #
plane-surface $-1 -2925.0000000000095 4150.0000000000109 -1339.9999999999993 0 0 -1 -25.399999999999999 0 0 forward_v I I I I #
coedge $-1 $327 $332 $328 $422 reversed $248 $-1 #
coedge $-1 $330 $467 $327 $421 forward $425 $-1 #
edge $-1 $469 0 $426 52.755905511811001 $327 $523 forward 7 unknown #
edge $-1 $426 -14.763779527558981 $335 14.763779527559009 $328 $524 forward 7 unknown #
edge $-1 $427 -287.40157480314997 $336 -257.87401574803198 $329 $525 forward 7 unknown #
coedge $-1 $526 $330 $433 $527 forward $425 $-1 #
loop $-1 $-1 $420 $493 #
vertex $-1 $331 $528 #
vertex $-1 $331 $529 #
straight-curve $-1 3300.0000000000073 4999.99999999999 -1339.9999999999993 0 -25.399999999999999 0 I I #
straight-curve $-1 2550.0000000000105 -3300.0000000000073 0 0 0 -25.399999999999999 I I #
straight-curve $-1 2550.0000000000105 -4203.0000000000027 -1554.4999999999998 0 7.3796387129685685 24.30433978667299 I I #
point $-1 2550.0000000000105 -3300.0000000000073 -1339.9999999999993 #
point $-1 2550.0000000000105 -4137.8703763267949 -1339.9999999999993 #
coedge $-1 $338 $530 $424 $527 reversed $51 $-1 #
edge $-1 $435 -6.5431574243092081 $449 14.936068213297569 $357 $531 forward 7 unknown #
vertex $-1 $465 $532 #
straight-curve $-1 -2992.0922676064429 4723.9206055692812 -3270.1166977912176 17.405997770744918 5.3744722969637788 -17.700460139047017 I I #
coedge $-1 $530 $343 $533 $534 forward $51 $-1 #
coedge $-1 $535 $496 $343 $439 forward $392 $-1 #
edge $-1 $536 -109.62727877666205 $441 -25.403362602306856 $343 $537 forward 7 unknown #
coedge $-1 $344 $497 $535 $538 forward $304 $-1 #
vertex $-1 $345 $539 #
straight-curve $-1 0 -4225.9244129945191 -1630 -25.399999999999999 0 0 I I #
edge $-1 $540 285.03937007873981 $348 363.22537059033505 $347 $541 forward 7 unknown #
point $-1 -899.99999999999909 -4225.9244129945191 -1630 #
straight-curve $-1 -1833.9999999999995 -4674.9999999999945 -2564.0000000000055 -17.960512242138318 0 -17.960512242138318 I I #
face $-1 $79 $542 $2 $-1 $543 reversed single #
plane-surface $-1 -4000.0000000000023 -4674.9999999999945 -3303.4999999999936 0 1 0 0 0 25.399999999999999 forward_v I I I I #
coedge $-1 $396 $353 $453 $544 forward $234 $-1 #
vertex $-1 $434 $545 #
straight-curve $-1 -2768.0000000000023 4999.99999999999 -3498.0000000000027 0 -25.399999999999999 0 I I #
point $-1 -2768.0000000000023 -4674.9999999999945 -3498.0000000000027 #
coedge $-1 $453 $357 $363 $465 forward $272 $-1 #
coedge $-1 $357 $452 $448 $544 reversed $272 $-1 #
coedge $-1 $546 $547 $358 $455 reversed $164 $-1 #
edge $-1 $460 251.14173228346471 $548 281.51687600972298 $454 $549 forward 7 unknown #
coedge $-1 $550 $551 $359 $457 forward $494 $-1 #
edge $-1 $461 -14.936068213297569 $548 6.5431574243092081 $359 $552 forward 7 unknown #
coedge $-1 $496 $360 $551 $553 forward $392 $-1 #
coedge $-1 $360 $554 $546 $555 forward $392 $-1 #
vertex $-1 $455 $556 #
vertex $-1 $361 $557 #
straight-curve $-1 1833.9999999999995 4674.9999999999945 -2564.0000000000055 17.960512242138318 0 -17.960512242138318 I I #
straight-curve $-1 -4000.0000000000023 4137.8703763267949 -1339.9999999999993 25.399999999999999 0 0 I I #
coedge $-1 $363 $558 $396 $500 reversed $164 $-1 #
edge $-1 $435 33.443753911537016 $559 63.818897637795317 $363 $560 forward 7 unknown #
coedge $-1 $561 $364 $562 $563 forward $32 $-1 #
coedge $-1 $420 $564 $364 $468 forward $425 $-1 #
edge $-1 $565 66.929133858267022 $469 326.77165354330702 $364 $566 forward 7 unknown #
vertex $-1 $421 $567 #
straight-curve $-1 2925.0000000000095 -3300.0000000000073 0 25.399999999999999 0 0 I I #
point $-1 2550.0000000000105 -3300.0000000000073 0 #
coedge $-1 $370 $561 $568 $569 forward $32 $-1 #
coedge $-1 $570 $571 $370 $474 reversed $572 $-1 #
edge $-1 $573 16.496062992125985 $478 33.464566929134008 $473 $574 forward 7 unknown #
coedge $-1 $575 $371 $571 $576 forward $477 $-1 #
coedge $-1 $371 $575 $373 $481 reversed $477 $-1 #
loop $-1 $-1 $476 $577 #
vertex $-1 $576 $578 #
straight-curve $-1 0 3300.0000000000073 0 -25.399999999999999 0 0 I I #
coedge $-1 $374 $373 $492 $579 reversed $375 $-1 #
edge $-1 $376 0 $580 52.755905511811001 $373 $581 forward 7 unknown #
point $-1 -2249.9999999999991 3300.0000000000073 0 #
coedge $-1 $568 $378 $570 $582 forward $164 $-1 #
coedge $-1 $492 $583 $378 $485 reversed $388 $-1 #
edge $-1 $486 68.897637795275713 $584 246.06299212598429 $484 $585 forward 7 unknown #
vertex $-1 $579 $586 #
straight-curve $-1 -2249.9999999999991 4203.0000000000027 -1554.4999999999998 0 7.3796387129685685 -24.30433978667299 I I #
straight-curve $-1 -2550.0000000000105 4150.0000000000109 -1339.9999999999993 0 25.399999999999999 0 I I #
point $-1 -2550.0000000000105 4137.8703763267949 -1339.9999999999993 #
face $-1 $577 $572 $2 $-1 $587 reversed single #
plane-surface $-1 -2249.9999999999991 4150.0000000000109 0 -1 0 0 0 0 25.399999999999999 forward_v I I I I #
coedge $-1 $588 $484 $480 $579 forward $388 $-1 #
face $-1 $589 $425 $2 $-1 $590 reversed single #
loop $-1 $-1 $591 $391 #
plane-surface $-1 3034.000000000005 4999.99999999999 -3227.4999999999927 -0.71301269833057668 0 0.7011511192455947 17.809238428838103 0 18.110522537596648 forward_v I I I I #
coedge $-1 $438 $458 $592 $593 forward $392 $-1 #
coedge $-1 $440 $394 $594 $595 forward $304 $-1 #
coedge $-1 $596 $597 $395 $499 reversed $598 $-1 #
edge $-1 $505 108.66141732283421 $540 285.03937007873981 $395 $599 forward 7 unknown #
edge $-1 $559 -26.982279159852023 $504 57.241637014503368 $464 $600 forward 7 unknown #
coedge $-1 $601 $397 $558 $602 forward $503 $-1 #
coedge $-1 $397 $601 $603 $604 forward $503 $-1 #
loop $-1 $-1 $601 $605 #
vertex $-1 $398 $606 #
vertex $-1 $604 $607 #
straight-curve $-1 -899.99999999999909 4999.99999999999 -1630 0 -25.399999999999999 0 I I #
coedge $-1 $400 $399 $608 $609 reversed $401 $-1 #
face $-1 $-1 $401 $2 $-1 $610 reversed single #
coedge $-1 $411 $608 $403 $510 forward $519 $-1 #
edge $-1 $511 -122.04724409448799 $415 122.04724409448799 $509 $611 forward 7 unknown #
vertex $-1 $510 $612 #
straight-curve $-1 3099.999999999995 3099.999999999995 0 0 0 -25.399999999999999 I I #
plane-surface $-1 0 3099.999999999995 0 0 1 0 0 0 25.399999999999999 forward_v I I I I #
coedge $-1 $608 $411 $407 $515 forward $519 $-1 #
edge $-1 $413 -122.04724409448799 $516 122.04724409448799 $514 $613 forward 7 unknown #
vertex $-1 $515 $614 #
straight-curve $-1 3099.999999999995 -3099.999999999995 0 0 0 -25.399999999999999 I I #
plane-surface $-1 0 -3099.999999999995 0 0 -1 0 0 0 -25.399999999999999 forward_v I I I I #
loop $-1 $-1 $509 $615 #
straight-curve $-1 -3099.999999999995 0 -739.99999999999909 0 -25.399999999999999 0 I I #
point $-1 -3099.999999999995 -3099.999999999995 -739.99999999999909 #
point $-1 -3099.999999999995 3099.999999999995 -739.99999999999909 #
straight-curve $-1 3300.0000000000073 -3300.0000000000073 0 0 0 -25.399999999999999 I I #
straight-curve $-1 2925.0000000000095 -3300.0000000000073 -1339.9999999999993 -25.399999999999999 0 0 I I #
straight-curve $-1 -4000.0000000000023 -4137.8703763267949 -1339.9999999999993 -25.399999999999999 0 0 I I #
coedge $-1 $616 $424 $591 $617 reversed $425 $-1 #
edge $-1 $427 99.305646541595337 $618 165.83697445228702 $433 $619 forward 7 unknown #
point $-1 3300.0000000000073 -3300.0000000000073 -1339.9999999999993 #
point $-1 3300.0000000000073 -4137.8703763267949 -1339.9999999999993 #
coedge $-1 $433 $437 $620 $621 reversed $51 $-1 #
straight-curve $-1 -3034.000000000005 4674.9999999999945 -3227.4999999999927 17.809238428838114 0 -18.110522537596655 I I #
point $-1 -3150.528650646962 4674.9999999999945 -3109.00000000001 #
coedge $-1 $592 $622 $437 $534 reversed $542 $-1 #
edge $-1 $536 251.14173228346471 $623 281.51687600972298 $533 $624 forward 7 unknown #
coedge $-1 $625 $438 $440 $538 reversed $392 $-1 #
vertex $-1 $593 $626 #
straight-curve $-1 453.90849778305824 -4090.4755940518553 -1183.9084977830591 -17.560332826821636 5.3319247952781037 17.560332826821636 I I #
edge $-1 $627 285.03937007873981 $441 363.22537059033601 $440 $628 forward 7 unknown #
point $-1 899.99999999999909 -4225.9244129945446 -1630 #
vertex $-1 $499 $629 #
straight-curve $-1 -899.99999999999909 4999.99999999999 -1630 0 -25.399999999999999 0 I I #
loop $-1 $-1 $592 $446 #
plane-surface $-1 -4000.0000000000023 -4674.9999999999945 -3303.4999999999936 0 1 0 0 0 25.399999999999999 forward_v I I I I #
edge $-1 $449 -52.002971151829527 $559 -30.344346121785058 $453 $630 forward 7 unknown #
point $-1 -2768.0000000000023 4674.9999999999945 -3498.0000000000027 #
coedge $-1 $558 $454 $459 $555 reversed $164 $-1 #
coedge $-1 $454 $631 $550 $632 reversed $164 $-1 #
vertex $-1 $632 $633 #
straight-curve $-1 -4000.0000000000023 4674.9999999999945 -3109.00000000001 25.399999999999999 0 0 I I #
coedge $-1 $591 $456 $547 $632 forward $494 $-1 #
coedge $-1 $456 $634 $458 $553 reversed $494 $-1 #
straight-curve $-1 3034.000000000005 4674.9999999999945 -3227.4999999999927 17.809238428838114 0 18.110522537596655 I I #
edge $-1 $461 12.795275590551 $635 380.90551181102302 $458 $636 forward 7 unknown #
coedge $-1 $459 $625 $601 $637 reversed $392 $-1 #
edge $-1 $638 -57.241637014503368 $460 26.982279159852023 $546 $639 forward 7 unknown #
point $-1 2379.0000000000009 4674.9999999999945 -3109.00000000001 #
point $-1 2768.0000000000023 4674.9999999999945 -3498.0000000000027 #
coedge $-1 $464 $546 $501 $602 reversed $164 $-1 #
vertex $-1 $500 $640 #
straight-curve $-1 -4000.0000000000023 4674.9999999999945 -3109.00000000001 25.399999999999999 0 0 I I #
coedge $-1 $472 $466 $641 $642 forward $32 $-1 #
coedge $-1 $643 $644 $466 $563 reversed $645 $-1 #
edge $-1 $565 -129.92125984251999 $646 -100.393700787402 $562 $647 forward 7 unknown #
coedge $-1 $467 $648 $643 $649 reversed $425 $-1 #
vertex $-1 $563 $650 #
straight-curve $-1 3300.0000000000073 4999.99999999999 0 0 -25.399999999999999 0 I I #
point $-1 3300.0000000000073 -3300.0000000000073 0 #
coedge $-1 $651 $483 $472 $569 reversed $164 $-1 #
edge $-1 $652 -100.393700787402 $573 -88.582677165354298 $568 $653 forward 7 unknown #
coedge $-1 $654 $473 $483 $582 reversed $572 $-1 #
coedge $-1 $473 $654 $475 $576 reversed $572 $-1 #
loop $-1 $-1 $654 $490 #
vertex $-1 $474 $655 #
straight-curve $-1 2249.9999999999991 4150.0000000000109 0 0 -25.399999999999999 0 I I #
coedge $-1 $476 $475 $588 $656 reversed $477 $-1 #
edge $-1 $478 0 $657 52.755905511811001 $571 $658 forward 7 unknown #
face $-1 $659 $477 $2 $-1 $660 reversed single #
point $-1 2249.9999999999991 3300.0000000000073 0 #
edge $-1 $486 0.47754423910299693 $580 33.464566929134008 $492 $661 forward 7 unknown #
vertex $-1 $579 $662 #
straight-curve $-1 -2249.9999999999991 3300.0000000000073 0 0 0 -25.399999999999999 I I #
edge $-1 $584 8.8255843146835584 $573 63.959770709442999 $570 $663 forward 7 unknown #
coedge $-1 $484 $588 $654 $664 forward $388 $-1 #
vertex $-1 $664 $665 #
straight-curve $-1 -4000.0000000000023 4137.8703763267949 -1339.9999999999993 25.399999999999999 0 0 I I #
point $-1 -2249.9999999999991 4137.8703763267949 -1339.9999999999993 #
plane-surface $-1 2249.9999999999991 4150.0000000000109 0 1 0 0 0 0 -25.399999999999999 forward_v I I I I #
coedge $-1 $583 $492 $575 $656 forward $388 $-1 #
face $-1 $666 $598 $2 $-1 $667 reversed single #
plane-surface $-1 3300.0000000000073 4999.99999999999 -1478.4999999999991 -1 0 0 0 0 25.399999999999999 forward_v I I I I #
coedge $-1 $620 $550 $526 $617 forward $494 $-1 #
coedge $-1 $622 $533 $496 $593 reversed $542 $-1 #
edge $-1 $635 -52.002971151829527 $536 -30.344346121785058 $592 $668 forward 7 unknown #
coedge $-1 $669 $670 $497 $595 reversed $671 $-1 #
edge $-1 $540 -35.433070866141698 $627 35.433070866141698 $497 $672 forward 7 unknown #
coedge $-1 $673 $498 $674 $675 forward $598 $-1 #
coedge $-1 $498 $673 $669 $676 forward $598 $-1 #
loop $-1 $-1 $596 $589 #
straight-curve $-1 -899.99999999999909 4999.99999999999 -1630 0 -25.399999999999999 0 I I #
straight-curve $-1 -1905.1821975267853 4531.1325167144796 -2635.1821975267912 17.560332826821636 -5.3319247952781037 17.560332826821636 I I #
coedge $-1 $502 $501 $554 $637 forward $503 $-1 #
edge $-1 $504 -35.433070866141698 $638 35.433070866141698 $501 $677 forward 7 unknown #
coedge $-1 $678 $674 $502 $604 reversed $679 $-1 #
edge $-1 $680 -35.433070866141698 $505 35.433070866141698 $502 $681 forward 7 unknown #
face $-1 $351 $503 $2 $-1 $682 reversed single #
point $-1 -899.99999999999909 4225.9244129945191 -1630 #
point $-1 -899.99999999999909 2240.0000000000009 -1630 #
coedge $-1 $509 $514 $507 $609 forward $519 $-1 #
edge $-1 $516 -122.04724409448799 $511 122.04724409448799 $608 $683 forward 7 unknown #
plane-surface $-1 3099.999999999995 0 0 1 0 0 0 0 -25.399999999999999 forward_v I I I I #
straight-curve $-1 0 3099.999999999995 -739.99999999999909 -25.399999999999999 0 0 I I #
point $-1 3099.999999999995 3099.999999999995 -739.99999999999909 #
straight-curve $-1 0 -3099.999999999995 -739.99999999999909 25.399999999999999 0 0 I I #
point $-1 3099.999999999995 -3099.999999999995 -739.99999999999909 #
face $-1 $405 $684 $2 $-1 $685 reversed single #
coedge $-1 $648 $526 $631 $686 forward $425 $-1 #
edge $-1 $687 14.612301598355998 $618 379.08848580321802 $591 $688 forward 7 unknown #
vertex $-1 $621 $689 #
straight-curve $-1 3300.0000000000073 -3405.0305826920676 1073.5581762821826 0 -7.3796387129685685 -24.30433978667299 I I #
coedge $-1 $634 $591 $530 $621 forward $494 $-1 #
edge $-1 $618 65.614738169712965 $623 74.202085549721815 $530 $690 forward 7 unknown #
coedge $-1 $533 $592 $634 $691 reversed $542 $-1 #
vertex $-1 $691 $692 #
straight-curve $-1 -4000.0000000000023 -4674.9999999999945 -3109.00000000001 25.399999999999999 0 0 I I #
coedge $-1 $554 $535 $693 $694 forward $392 $-1 #
point $-1 2379.0000000000009 -4674.9999999999945 -3109.00000000001 #
vertex $-1 $595 $695 #
straight-curve $-1 899.99999999999909 4999.99999999999 -1630 0 -25.399999999999999 0 I I #
point $-1 -899.99999999999909 -2240.0000000000009 -1630 #
straight-curve $-1 -1833.9999999999995 4674.9999999999945 -2564.0000000000055 17.960512242138318 0 17.960512242138318 I I #
coedge $-1 $547 $696 $616 $686 reversed $164 $-1 #
edge $-1 $548 9.1024016621909905 $687 17.689749042199836 $547 $697 forward 7 unknown #
point $-1 3150.528650646962 4674.9999999999945 -3109.00000000001 #
coedge $-1 $551 $620 $622 $691 forward $494 $-1 #
vertex $-1 $593 $698 #
straight-curve $-1 2768.0000000000023 4999.99999999999 -3498.0000000000027 0 -25.399999999999999 0 I I #
edge $-1 $638 30.475416811239 $680 108.66141732283421 $601 $699 forward 7 unknown #
vertex $-1 $637 $700 #
straight-curve $-1 1905.1821975267853 4531.1325167144796 -2635.1821975267912 17.560332826821636 5.3319247952781037 -17.560332826821636 I I #
point $-1 -2379.0000000000009 4674.9999999999945 -3109.00000000001 #
coedge $-1 $701 $702 $561 $642 reversed $703 $-1 #
edge $-1 $646 -33.464566929134008 $652 -16.496062992125985 $641 $704 forward 7 unknown #
coedge $-1 $705 $562 $564 $649 forward $645 $-1 #
coedge $-1 $562 $705 $701 $706 reversed $645 $-1 #
loop $-1 $-1 $644 $707 #
vertex $-1 $642 $708 #
straight-curve $-1 0 3300.0000000000073 0 -25.399999999999999 0 0 I I #
coedge $-1 $564 $616 $709 $710 reversed $425 $-1 #
edge $-1 $565 0 $711 52.755905511811001 $643 $712 forward 7 unknown #
point $-1 3300.0000000000073 3300.0000000000073 0 #
coedge $-1 $696 $568 $702 $713 forward $164 $-1 #
vertex $-1 $642 $714 #
straight-curve $-1 0 3731.0000000000114 0 -25.399999999999999 0 0 I I #
coedge $-1 $571 $570 $583 $664 reversed $572 $-1 #
point $-1 2249.9999999999991 3731.0000000000114 -1.1102230246251563e-013 #
edge $-1 $580 -88.582677165354298 $657 88.582677165354298 $588 $715 forward 7 unknown #
vertex $-1 $656 $716 #
straight-curve $-1 2249.9999999999991 3300.0000000000073 0 0 0 -25.399999999999999 I I #
face $-1 $717 $703 $2 $-1 $718 reversed single #
plane-surface $-1 0 3300.0000000000073 0 0 -1 0 0 0 -25.399999999999999 forward_v I I I I #
straight-curve $-1 -2249.9999999999991 4150.0000000000109 -1339.9999999999993 0 -25.399999999999999 0 I I #
point $-1 -2249.9999999999991 3300.0000000000073 -1339.9999999999993 #
straight-curve $-1 2249.9999999999991 4203.0000000000027 -1554.4999999999998 0 -7.3796387129685685 24.30433978667299 I I #
edge $-1 $657 -33.464566929134008 $584 -0.47754423910299693 $583 $719 forward 7 unknown #
point $-1 2249.9999999999991 4137.8703763267949 -1339.9999999999993 #
face $-1 $720 $721 $2 $-1 $722 reversed single #
plane-surface $-1 0 0 -1630 0 0 -1 -25.399999999999999 0 0 forward_v I I I I #
straight-curve $-1 1833.9999999999995 -4674.9999999999945 -2564.0000000000055 -17.960512242138318 0 17.960512242138318 I I #
coedge $-1 $723 $594 $597 $676 reversed $671 $-1 #
coedge $-1 $594 $724 $725 $726 reversed $671 $-1 #
loop $-1 $-1 $724 $727 #
straight-curve $-1 0 -2240.0000000000009 -1630 25.399999999999999 0 0 I I #
coedge $-1 $597 $596 $728 $729 forward $598 $-1 #
coedge $-1 $603 $730 $596 $675 reversed $679 $-1 #
edge $-1 $505 35.433070866141698 $731 112.59842519685 $596 $732 forward 7 unknown #
edge $-1 $733 -112.59842519685 $540 -35.433070866141698 $597 $734 forward 7 unknown #
straight-curve $-1 0 4225.9244129945191 -1630 25.399999999999999 0 0 I I #
coedge $-1 $735 $603 $736 $737 reversed $679 $-1 #
loop $-1 $-1 $730 $720 #
vertex $-1 $637 $738 #
straight-curve $-1 0 2240.0000000000009 -1630 -25.399999999999999 0 0 I I #
plane-surface $-1 0 4999.99999999999 -1630 0 0 1 25.399999999999999 0 0 forward_v I I I I #
straight-curve $-1 3099.999999999995 0 -739.99999999999909 0 25.399999999999999 0 I I #
loop $-1 $519 $739 $615 #
plane-surface $-1 0 0 -739.99999999999909 0 0 -1 -25.399999999999999 0 0 forward_v I I I I #
edge $-1 $687 -51.452345632016687 $740 15.078982278674962 $631 $741 forward 7 unknown #
vertex $-1 $686 $742 #
straight-curve $-1 3300.0000000000073 4999.99999999999 -2957.0000000000082 0 -25.399999999999999 0 I I #
point $-1 3300.0000000000073 -4628.8475394017478 -2957.0000000000082 #
straight-curve $-1 4442.0899863100312 -4276.2029468360815 -1795.5889424929894 -17.405997770744918 -5.3744722969637788 -17.700460139047017 I I #
edge $-1 $623 -6.5431574243092081 $635 14.936068213297569 $622 $743 forward 7 unknown #
point $-1 3150.528650646962 -4674.9999999999945 -3109.00000000001 #
coedge $-1 $725 $736 $625 $694 reversed $721 $-1 #
edge $-1 $627 -285.03937007873981 $680 -108.66141732283421 $625 $744 forward 7 unknown #
point $-1 899.99999999999909 -2240.0000000000009 -1630 #
coedge $-1 $631 $651 $745 $746 forward $164 $-1 #
straight-curve $-1 2992.0922676064429 4723.9206055692812 -3270.1166977912176 17.405997770744918 -5.3744722969637788 17.700460139047017 I I #
point $-1 2768.0000000000023 -4674.9999999999945 -3498.0000000000027 #
straight-curve $-1 899.99999999999909 4999.99999999999 -1630 0 -25.399999999999999 0 I I #
point $-1 899.99999999999909 4225.9244129945191 -1630 #
coedge $-1 $747 $641 $644 $706 forward $703 $-1 #
coedge $-1 $641 $747 $651 $713 reversed $703 $-1 #
loop $-1 $-1 $641 $659 #
straight-curve $-1 2550.0000000000105 4150.0000000000109 0 0 25.399999999999999 0 I I #
coedge $-1 $644 $643 $748 $749 reversed $645 $-1 #
edge $-1 $646 0 $750 52.755905511811001 $701 $751 forward 7 unknown #
face $-1 $605 $645 $2 $-1 $752 reversed single #
point $-1 2550.0000000000105 3300.0000000000073 0 #
coedge $-1 $745 $748 $648 $710 forward $753 $-1 #
edge $-1 $711 -33.464566929134008 $740 -0.47754423910299693 $709 $754 forward 7 unknown #
vertex $-1 $749 $755 #
straight-curve $-1 3300.0000000000073 3300.0000000000073 0 0 0 -25.399999999999999 I I #
edge $-1 $652 -63.959770709443006 $756 -8.8255843146835584 $702 $757 forward 7 unknown #
point $-1 2550.0000000000105 3731.0000000000114 0 #
straight-curve $-1 0 3300.0000000000073 -1339.9999999999993 25.399999999999999 0 0 I I #
point $-1 2249.9999999999991 3300.0000000000073 -1339.9999999999993 #
face $-1 $707 $753 $2 $-1 $758 reversed single #
plane-surface $-1 2550.0000000000105 4150.0000000000109 0 -1 0 0 0 0 25.399999999999999 forward_v I I I I #
straight-curve $-1 2249.9999999999991 4150.0000000000109 -1339.9999999999993 0 25.399999999999999 0 I I #
face $-1 $759 $679 $2 $-1 $760 reversed single #
loop $-1 $-1 $725 $666 #
plane-surface $-1 0 0 -1630 0 0 -1 -25.399999999999999 0 0 forward_v I I I I #
coedge $-1 $761 $669 $762 $763 reversed $671 $-1 #
coedge $-1 $670 $761 $764 $765 forward $671 $-1 #
coedge $-1 $766 $693 $670 $726 forward $721 $-1 #
edge $-1 $627 35.433070866141698 $767 112.59842519685 $725 $768 forward 7 unknown #
face $-1 $769 $671 $2 $-1 $770 reversed single #
coedge $-1 $771 $762 $673 $729 reversed $772 $-1 #
edge $-1 $731 -88.188976377952798 $733 88.188976377952798 $673 $773 forward 7 unknown #
coedge $-1 $674 $774 $771 $775 forward $679 $-1 #
vertex $-1 $675 $776 #
straight-curve $-1 0 2240.0000000000009 -1630 -25.399999999999999 0 0 I I #
vertex $-1 $729 $777 #
straight-curve $-1 0 -2240.0000000000009 -1630 25.399999999999999 0 0 I I #
coedge $-1 $774 $678 $778 $779 reversed $679 $-1 #
coedge $-1 $693 $766 $678 $737 forward $721 $-1 #
edge $-1 $780 -112.59842519685 $680 -35.433070866141698 $736 $781 forward 7 unknown #
point $-1 899.99999999999909 2240.0000000000009 -1630 #
coedge $-1 $782 $783 $784 $785 forward $684 $-1 #
vertex $-1 $710 $786 #
straight-curve $-1 3300.0000000000073 4249.1478177026584 -1706.4847089381403 0 -7.3796387129685685 24.30433978667299 I I #
point $-1 3300.0000000000073 4628.8475394017478 -2957.0000000000082 #
straight-curve $-1 3034.000000000005 -4674.9999999999945 -3227.4999999999927 -17.809238428838114 0 -18.110522537596655 I I #
straight-curve $-1 899.99999999999909 4999.99999999999 -1630 0 25.399999999999999 0 I I #
coedge $-1 $787 $709 $696 $746 reversed $753 $-1 #
edge $-1 $756 257.87401574803198 $740 287.40157480314997 $745 $788 forward 7 unknown #
coedge $-1 $702 $701 $787 $789 reversed $703 $-1 #
coedge $-1 $709 $787 $705 $749 forward $753 $-1 #
edge $-1 $750 -14.763779527559009 $711 14.763779527558981 $748 $790 forward 7 unknown #
vertex $-1 $706 $791 #
straight-curve $-1 2550.0000000000105 3300.0000000000073 0 0 0 -25.399999999999999 I I #
plane-surface $-1 2925.0000000000095 3300.0000000000073 0 0 -1 0 0 0 -25.399999999999999 forward_v I I I I #
loop $-1 $-1 $787 $717 #
straight-curve $-1 3300.0000000000073 4150.0000000000109 -1339.9999999999993 0 25.399999999999999 0 I I #
point $-1 3300.0000000000073 3300.0000000000073 -1339.9999999999993 #
vertex $-1 $789 $792 #
straight-curve $-1 2550.0000000000105 4203.0000000000027 -1554.4999999999998 0 7.3796387129685685 -24.30433978667299 I I #
plane-surface $-1 2925.0000000000095 4150.0000000000109 -1339.9999999999993 0 0 -1 -25.399999999999999 0 0 forward_v I I I I #
face $-1 $727 $772 $2 $-1 $793 reversed single #
plane-surface $-1 0 2240.0000000000009 0 0 1 0 0 0 25.399999999999999 forward_v I I I I #
coedge $-1 $724 $723 $794 $795 reversed $671 $-1 #
coedge $-1 $728 $796 $723 $763 forward $772 $-1 #
edge $-1 $797 44.488188976377899 $733 64.173228346456696 $762 $798 forward 7 unknown #
coedge $-1 $799 $800 $724 $765 reversed $801 $-1 #
edge $-1 $802 44.488188976377899 $767 64.173228346456696 $724 $803 forward 7 unknown #
coedge $-1 $736 $725 $800 $804 forward $721 $-1 #
vertex $-1 $726 $805 #
straight-curve $-1 0 -2240.0000000000009 -1630 25.399999999999999 0 0 I I #
face $-1 $806 $801 $2 $-1 $807 reversed single #
plane-surface $-1 0 -2240.0000000000009 0 0 -1 0 0 0 -25.399999999999999 forward_v I I I I #
coedge $-1 $808 $728 $730 $775 reversed $772 $-1 #
loop $-1 $-1 $762 $759 #
straight-curve $-1 -2859.99999999999 0 -1630 0 -25.399999999999999 0 I I #
coedge $-1 $730 $735 $809 $810 reversed $679 $-1 #
edge $-1 $811 44.488188976377899 $731 64.173228346456696 $730 $812 forward 7 unknown #
point $-1 -2859.99999999999 2240.0000000000009 -1630 #
point $-1 -2859.99999999999 -2240.0000000000009 -1630 #
coedge $-1 $800 $813 $735 $779 forward $801 $-1 #
edge $-1 $814 44.488188976377899 $780 64.173228346456696 $735 $815 forward 7 unknown #
vertex $-1 $804 $816 #
straight-curve $-1 0 2240.0000000000009 -1630 -25.399999999999999 0 0 I I #
coedge $-1 $817 $739 $818 $819 forward $684 $-1 #
coedge $-1 $739 $817 $820 $821 forward $684 $-1 #
coedge $-1 $822 $823 $739 $785 reversed $824 $-1 #
edge $-1 $825 -112.59842519685 $826 112.59842519685 $784 $827 forward 7 unknown #
point $-1 3300.0000000000073 4137.8703763267949 -1339.9999999999993 #
coedge $-1 $748 $745 $747 $789 forward $753 $-1 #
straight-curve $-1 -4000.0000000000023 4137.8703763267949 -1339.9999999999993 25.399999999999999 0 0 I I #
edge $-1 $756 0.47754423910299693 $750 33.464566929134008 $747 $828 forward 7 unknown #
straight-curve $-1 2925.0000000000095 3300.0000000000073 -1339.9999999999993 25.399999999999999 0 0 I I #
point $-1 2550.0000000000105 3300.0000000000073 -1339.9999999999993 #
point $-1 2550.0000000000105 4137.8703763267949 -1339.9999999999993 #
plane-surface $-1 -2859.99999999999 0 0 -1 0 0 0 0 25.399999999999999 forward_v I I I I #
coedge $-1 $829 $830 $761 $795 forward $831 $-1 #
edge $-1 $802 -112.59842519685 $797 112.59842519685 $761 $832 forward 7 unknown #
coedge $-1 $762 $833 $829 $834 reversed $772 $-1 #
vertex $-1 $763 $835 #
straight-curve $-1 -2859.99999999999 -2240.0000000000009 0 0 0 -25.399999999999999 I I #
coedge $-1 $836 $764 $830 $837 reversed $801 $-1 #
coedge $-1 $764 $778 $766 $804 reversed $801 $-1 #
loop $-1 $-1 $778 $769 #
vertex $-1 $765 $838 #
straight-curve $-1 2859.99999999999 -2240.0000000000009 0 0 0 -25.399999999999999 I I #
edge $-1 $767 -88.188976377952798 $780 88.188976377952798 $766 $839 forward 7 unknown #
point $-1 2859.99999999999 -2240.0000000000009 -1630 #
face $-1 $840 $841 $2 $-1 $842 reversed single #
plane-surface $-1 2859.99999999999 0 0 1 0 0 0 0 -25.399999999999999 forward_v I I I I #
coedge $-1 $843 $771 $844 $845 reversed $772 $-1 #
coedge $-1 $846 $844 $774 $810 forward $841 $-1 #
edge $-1 $811 -112.59842519685 $814 112.59842519685 $774 $847 forward 7 unknown #
vertex $-1 $775 $848 #
straight-curve $-1 -2859.99999999999 2240.0000000000009 0 0 0 -25.399999999999999 I I #
coedge $-1 $778 $849 $846 $850 reversed $801 $-1 #
vertex $-1 $779 $851 #
straight-curve $-1 2859.99999999999 2240.0000000000009 0 0 0 -25.399999999999999 I I #
point $-1 2859.99999999999 2240.0000000000009 -1630 #
coedge $-1 $783 $782 $852 $853 forward $684 $-1 #
coedge $-1 $849 $836 $782 $819 reversed $801 $-1 #
edge $-1 $826 -112.59842519685 $854 112.59842519685 $818 $855 forward 7 unknown #
coedge $-1 $833 $843 $783 $821 reversed $772 $-1 #
edge $-1 $856 -112.59842519685 $825 112.59842519685 $820 $857 forward 7 unknown #
coedge $-1 $858 $784 $843 $859 forward $824 $-1 #
coedge $-1 $784 $858 $849 $860 reversed $824 $-1 #
loop $-1 $-1 $822 $840 #
vertex $-1 $859 $861 #
vertex $-1 $819 $862 #
straight-curve $-1 0 2859.99999999999 -739.99999999999909 25.399999999999999 0 0 I I #
straight-curve $-1 2550.0000000000105 4150.0000000000109 -1339.9999999999993 0 -25.399999999999999 0 I I #
coedge $-1 $863 $794 $796 $834 forward $831 $-1 #
coedge $-1 $794 $863 $799 $837 forward $831 $-1 #
loop $-1 $-1 $794 $864 #
straight-curve $-1 0 -2240.0000000000009 -1129.9999999999986 -25.399999999999999 0 0 I I #
coedge $-1 $796 $820 $865 $866 forward $772 $-1 #
edge $-1 $797 88.188976377952798 $867 112.59842519685 $796 $868 forward 7 unknown #
point $-1 -2859.99999999999 -2240.0000000000009 -1129.9999999999986 #
coedge $-1 $818 $799 $869 $870 reversed $801 $-1 #
edge $-1 $871 -112.59842519685 $802 -88.188976377952798 $799 $872 forward 7 unknown #
point $-1 2859.99999999999 -2240.0000000000009 -1129.9999999999986 #
straight-curve $-1 2859.99999999999 0 -1630 0 25.399999999999999 0 I I #
face $-1 $873 $824 $2 $-1 $874 reversed single #
loop $-1 $-1 $809 $806 #
plane-surface $-1 0 0 -1129.9999999999986 0 0 -1 -25.399999999999999 0 0 forward_v I I I I #
coedge $-1 $820 $808 $822 $859 reversed $772 $-1 #
coedge $-1 $809 $875 $808 $845 forward $841 $-1 #
edge $-1 $876 -112.59842519685 $811 -88.188976377952798 $808 $877 forward 7 unknown #
coedge $-1 $875 $809 $813 $850 forward $841 $-1 #
straight-curve $-1 0 2240.0000000000009 -1129.9999999999986 25.399999999999999 0 0 I I #
point $-1 -2859.99999999999 2240.0000000000009 -1129.9999999999986 #
coedge $-1 $813 $818 $823 $860 forward $801 $-1 #
edge $-1 $814 88.188976377952798 $878 112.59842519685 $813 $879 forward 7 unknown #
point $-1 2859.99999999999 2240.0000000000009 -1129.9999999999986 #
coedge $-1 $869 $865 $817 $853 reversed $880 $-1 #
edge $-1 $854 -112.59842519685 $856 112.59842519685 $852 $881 forward 7 unknown #
vertex $-1 $870 $882 #
straight-curve $-1 2859.99999999999 0 -739.99999999999909 0 -25.399999999999999 0 I I #
vertex $-1 $821 $883 #
straight-curve $-1 -2859.99999999999 0 -739.99999999999909 0 25.399999999999999 0 I I #
coedge $-1 $823 $822 $875 $884 reversed $824 $-1 #
edge $-1 $825 29.133858267716501 $876 44.488188976377899 $843 $885 forward 7 unknown #
edge $-1 $826 29.133858267716501 $878 44.488188976377899 $849 $886 forward 7 unknown #
point $-1 -2859.99999999999 2859.99999999999 -739.99999999999909 #
point $-1 2859.99999999999 2859.99999999999 -739.99999999999909 #
coedge $-1 $830 $829 $887 $888 forward $831 $-1 #
face $-1 $615 $831 $2 $-1 $889 reversed single #
coedge $-1 $852 $887 $833 $866 reversed $880 $-1 #
edge $-1 $856 29.133858267716501 $867 44.488188976377899 $833 $890 forward 7 unknown #
vertex $-1 $866 $891 #
straight-curve $-1 -2859.99999999999 0 -1129.9999999999986 0 -25.399999999999999 0 I I #
coedge $-1 $887 $852 $836 $870 forward $880 $-1 #
edge $-1 $854 29.133858267716501 $871 44.488188976377899 $836 $892 forward 7 unknown #
vertex $-1 $837 $893 #
straight-curve $-1 2859.99999999999 0 -1129.9999999999986 0 25.399999999999999 0 I I #
face $-1 $864 $880 $2 $-1 $894 reversed single #
plane-surface $-1 0 2859.99999999999 0 0 1 0 0 0 25.399999999999999 forward_v I I I I #
coedge $-1 $844 $846 $858 $884 forward $841 $-1 #
vertex $-1 $845 $895 #
straight-curve $-1 -2859.99999999999 0 -1129.9999999999986 0 -25.399999999999999 0 I I #
vertex $-1 $860 $896 #
straight-curve $-1 2859.99999999999 0 -1129.9999999999986 0 25.399999999999999 0 I I #
loop $-1 $-1 $869 $873 #
straight-curve $-1 0 -2859.99999999999 -739.99999999999909 -25.399999999999999 0 0 I I #
point $-1 2859.99999999999 -2859.99999999999 -739.99999999999909 #
point $-1 -2859.99999999999 -2859.99999999999 -739.99999999999909 #
edge $-1 $878 -112.59842519685 $876 112.59842519685 $875 $897 forward 7 unknown #
straight-curve $-1 -2859.99999999999 2859.99999999999 0 0 0 -25.399999999999999 I I #
straight-curve $-1 2859.99999999999 2859.99999999999 0 0 0 -25.399999999999999 I I #
coedge $-1 $865 $869 $863 $888 reversed $880 $-1 #
edge $-1 $867 -112.59842519685 $871 112.59842519685 $887 $898 forward 7 unknown #
plane-surface $-1 0 0 -1129.9999999999986 0 0 -1 -25.399999999999999 0 0 forward_v I I I I #
straight-curve $-1 -2859.99999999999 -2859.99999999999 0 0 0 -25.399999999999999 I I #
point $-1 -2859.99999999999 -2859.99999999999 -1129.9999999999986 #
straight-curve $-1 2859.99999999999 -2859.99999999999 0 0 0 -25.399999999999999 I I #
point $-1 2859.99999999999 -2859.99999999999 -1129.9999999999986 #
plane-surface $-1 0 -2859.99999999999 0 0 -1 0 0 0 -25.399999999999999 forward_v I I I I #
point $-1 -2859.99999999999 2859.99999999999 -1129.9999999999986 #
point $-1 2859.99999999999 2859.99999999999 -1129.9999999999986 #
straight-curve $-1 0 2859.99999999999 -1129.9999999999986 -25.399999999999999 0 0 I I #
straight-curve $-1 0 -2859.99999999999 -1129.9999999999986 25.399999999999999 0 0 I I #
End-of-ACIS-data 