600 0 1 0           
67 GICL ACIS Healer - Source: screw_link42_to_spacer67_upper.sat - 6 0 18 ACIS 6.0.3 Solaris 24 Fri Mar 29 22:11:27 2002 
1 9.999999999999999547e-07 1.000000000000000036e-10 
body $1 $2 $-1 $-1 #
aggregate_advspl_attribute-aggregate_geombuild_base_attribute-aggregate_body_attribute-attrib_HH-attrib $-1 $3 $-1 $0 F #
lump $-1 $-1 $4 $0 #
aggregate_secndry_attribute-aggregate_geombuild_base_attribute-aggregate_body_attribute-attrib_HH-attrib $-1 $5 $1 $0 F #
shell $-1 $-1 $-1 $6 $-1 $2 #
aggregate_sharped_attribute-aggregate_geombuild_base_attribute-aggregate_body_attribute-attrib_HH-attrib $-1 $7 $3 $0 F #
face $8 $9 $10 $4 $-1 $11 reversed single #
aggregate_reblend_attribute-aggregate_geombuild_base_attribute-aggregate_body_attribute-attrib_HH-attrib $-1 $12 $5 $0 F #
attrib_hh_face_geombuild-attrib_entity_geombuild-individual_entity_attribute-attrib_HH-attrib $-1 $-1 $-1 $6 F #
face $13 $14 $15 $4 $-1 $16 reversed single #
loop $-1 $-1 $17 $6 #
plane-surface $-1 5.025520244046551177 -3.818010000000000126 5.973743548749914645 0.9659277151446725718 0 0.2588119956945428846 0.258811995694542829 0 -0.9659277151446724607 forward_v I I I I #
aggregate_isospline_attribute-aggregate_geombuild_base_attribute-aggregate_body_attribute-attrib_HH-attrib $-1 $18 $7 $0 F #
attrib_hh_face_geombuild-attrib_entity_geombuild-individual_entity_attribute-attrib_HH-attrib $-1 $-1 $-1 $9 F #
face $19 $20 $21 $4 $-1 $22 reversed single #
loop $-1 $-1 $23 $9 #
plane-surface $-1 4.923456451250085131 -3.818010000000000126 5.871679755953448598 0.7071067811865474617 0 -0.7071067811865474617 -0.7071067811865473507 0 -0.7071067811865473507 forward_v I I I I #
coedge $24 $25 $26 $27 $28 reversed $10 $-1 #
aggregate_analytic_solver_attribute-aggregate_geombuild_base_attribute-aggregate_body_attribute-attrib_HH-attrib $-1 $29 $12 $0 F #
attrib_hh_face_geombuild-attrib_entity_geombuild-individual_entity_attribute-attrib_HH-attrib $-1 $-1 $-1 $14 F #
face $30 $31 $32 $4 $-1 $33 reversed single #
loop $-1 $-1 $34 $14 #
plane-surface $-1 4.784036207203533841 -3.818010000000000126 5.909036207203533841 -0.2588119956945428846 0 -0.9659277151446725718 -0.9659277151446724607 0 0.258811995694542829 forward_v I I I I #
coedge $35 $36 $37 $38 $39 reversed $15 $-1 #
attrib_hh_coedge_geombuild-attrib_entity_geombuild-individual_entity_attribute-attrib_HH-attrib $-1 $-1 $-1 $17 F #
coedge $40 $41 $17 $42 $43 forward $10 $-1 #
coedge $44 $17 $41 $36 $45 reversed $10 $-1 #
coedge $46 $38 $47 $17 $28 forward $48 $-1 #
edge $49 $50 -0.1082545438749903388 $51 0.03608363160190809771 $27 $52 forward 7 unknown #
aggregate_geombuild_attribute-aggregate_geombuild_base_attribute-aggregate_body_attribute-attrib_HH-attrib $-1 $53 $18 $0 #
attrib_hh_face_geombuild-attrib_entity_geombuild-individual_entity_attribute-attrib_HH-attrib $-1 $-1 $-1 $20 F #
face $54 $55 $56 $4 $-1 $57 reversed single #
loop $-1 $-1 $58 $20 #
plane-surface $-1 4.746679755953448598 -3.818010000000000126 6.048456451250085131 -0.9659277151446725718 0 -0.2588119956945428846 -0.258811995694542829 0 0.9659277151446724607 forward_v I I I I #
coedge $59 $60 $61 $62 $63 reversed $21 $-1 #
attrib_hh_coedge_geombuild-attrib_entity_geombuild-individual_entity_attribute-attrib_HH-attrib $-1 $-1 $-1 $23 F #
coedge $64 $65 $23 $26 $45 forward $15 $-1 #
coedge $66 $23 $65 $60 $67 reversed $15 $-1 #
coedge $68 $62 $27 $23 $39 forward $48 $-1 #
edge $69 $51 -0.108254999999999782 $70 0.03608499999999992963 $38 $71 forward 7 unknown #
attrib_hh_coedge_geombuild-attrib_entity_geombuild-individual_entity_attribute-attrib_HH-attrib $-1 $-1 $-1 $25 F #
coedge $72 $26 $25 $73 $74 reversed $10 $-1 #
coedge $75 $76 $77 $25 $43 reversed $56 $-1 #
edge $78 $50 0.1000100000000001682 $79 0.2250100000000001821 $42 $80 forward 7 unknown #
attrib_hh_coedge_geombuild-attrib_entity_geombuild-individual_entity_attribute-attrib_HH-attrib $-1 $-1 $-1 $26 F #
edge $81 $51 0.1000100000000001682 $82 0.2250100000000001821 $26 $83 forward 7 unknown #
attrib_hh_coedge_geombuild-attrib_entity_geombuild-individual_entity_attribute-attrib_HH-attrib $-1 $-1 $-1 $27 F #
coedge $84 $27 $85 $76 $86 forward $48 $-1 #
loop $-1 $87 $88 $89 #
attrib_hh_edge_geombuild-attrib_entity_geombuild-individual_entity_attribute-attrib_HH-attrib $-1 $-1 $-1 $28 F #
vertex $90 $28 $91 #
vertex $92 $39 $93 #
straight-curve $-1 5.016181367339754615 -3.717999999999999972 6.008597728577267816 0.258811995694542829 0 -0.9659277151446724607 I I #
aggregate_stitch_attribute-aggregate_stitch_base_attribute-aggregate_body_attribute-attrib_HH-attrib $-1 $94 $29 $0 F #
attrib_hh_face_geombuild-attrib_entity_geombuild-individual_entity_attribute-attrib_HH-attrib $-1 $-1 $-1 $31 F #
face $95 $96 $97 $4 $-1 $98 reversed single #
loop $-1 $-1 $76 $31 #
plane-surface $-1 4.988163792796465934 -3.818010000000000126 6.113163792796465934 0.2588119956945428846 0 0.9659277151446725718 0.9659277151446724607 0 -0.258811995694542829 forward_v I I I I #
coedge $99 $100 $101 $88 $102 reversed $32 $-1 #
attrib_hh_coedge_geombuild-attrib_entity_geombuild-individual_entity_attribute-attrib_HH-attrib $-1 $-1 $-1 $34 F #
coedge $103 $104 $34 $37 $67 forward $21 $-1 #
coedge $105 $34 $104 $100 $106 reversed $21 $-1 #
coedge $107 $88 $38 $34 $63 forward $48 $-1 #
edge $108 $70 -0.108252719340357309 $109 0.03608545613654112055 $62 $110 forward 7 unknown #
attrib_hh_coedge_geombuild-attrib_entity_geombuild-individual_entity_attribute-attrib_HH-attrib $-1 $-1 $-1 $36 F #
coedge $111 $37 $36 $112 $113 reversed $15 $-1 #
attrib_hh_coedge_geombuild-attrib_entity_geombuild-individual_entity_attribute-attrib_HH-attrib $-1 $-1 $-1 $37 F #
edge $114 $70 0.1000100000000001682 $115 0.2250100000000001821 $37 $116 forward 7 unknown #
attrib_hh_coedge_geombuild-attrib_entity_geombuild-individual_entity_attribute-attrib_HH-attrib $-1 $-1 $-1 $38 F #
attrib_hh_edge_geombuild-attrib_entity_geombuild-individual_entity_attribute-attrib_HH-attrib $-1 $-1 $-1 $39 F #
vertex $117 $63 $118 #
straight-curve $-1 4.948972399449202086 -3.717999999999999972 5.897195704152564666 -0.7071067811865473507 0 -0.7071067811865473507 I I #
attrib_hh_coedge_geombuild-attrib_entity_geombuild-individual_entity_attribute-attrib_HH-attrib $-1 $-1 $-1 $41 F #
coedge $119 $120 $112 $41 $74 forward $121 $-1 #
edge $122 $82 -0.1443381754768984504 $79 0 $41 $123 forward 7 unknown #
attrib_hh_coedge_geombuild-attrib_entity_geombuild-individual_entity_attribute-attrib_HH-attrib $-1 $-1 $-1 $42 F #
coedge $124 $125 $42 $47 $86 reversed $56 $-1 #
coedge $126 $42 $125 $120 $127 reversed $56 $-1 #
attrib_hh_edge_geombuild-attrib_entity_geombuild-individual_entity_attribute-attrib_HH-attrib $-1 $-1 $-1 $43 F #
vertex $128 $43 $129 #
straight-curve $-1 4.988163792796465934 -3.818010000000000126 6.113163792796465934 0 0.999999999999999889 0 I I #
attrib_hh_edge_geombuild-attrib_entity_geombuild-individual_entity_attribute-attrib_HH-attrib $-1 $-1 $-1 $45 F #
vertex $130 $45 $131 #
straight-curve $-1 5.025520244046551177 -3.818010000000000126 5.973743548749914645 0 0.999999999999999889 0 I I #
attrib_hh_coedge_geombuild-attrib_entity_geombuild-individual_entity_attribute-attrib_HH-attrib $-1 $-1 $-1 $47 F #
coedge $132 $47 $88 $133 $134 forward $48 $-1 #
edge $135 $136 -0.108252719340357309 $50 0.03608545613654112055 $47 $137 forward 7 unknown #
loop $-1 $-1 $138 $89 #
coedge $139 $85 $62 $58 $102 forward $48 $-1 #
face $140 $141 $48 $4 $-1 $142 forward single #
attrib_hh_vertex_geombuild-attrib_entity_geombuild-individual_entity_attribute-attrib_HH-attrib $-1 $-1 $-1 $50 F #
point $-1 4.988163792796465934 -3.717999999999999972 6.113163792796465934 #
attrib_hh_vertex_geombuild-attrib_entity_geombuild-individual_entity_attribute-attrib_HH-attrib $-1 $-1 $-1 $51 F #
point $-1 5.025520244046551177 -3.717999999999999972 5.973743548749914645 #
aggregate_simgeom_attribute-aggregate_simgeom_base_attribute-aggregate_body_attribute-attrib_HH-attrib $-1 $-1 $53 $0 F #
attrib_hh_face_geombuild-attrib_entity_geombuild-individual_entity_attribute-attrib_HH-attrib $-1 $-1 $-1 $55 F #
face $143 $144 $121 $4 $-1 $145 forward single #
loop $-1 $-1 $133 $55 #
plane-surface $-1 4.848743548749914645 -3.818010000000000126 6.150520244046551177 -0.7071067811865474617 0 0.7071067811865474617 0.7071067811865473507 0 0.7071067811865473507 forward_v I I I I #
attrib_hh_coedge_geombuild-attrib_entity_geombuild-individual_entity_attribute-attrib_HH-attrib $-1 $-1 $-1 $58 F #
coedge $146 $147 $58 $61 $106 forward $32 $-1 #
coedge $148 $58 $147 $149 $150 reversed $32 $-1 #
edge $151 $109 -0.1082545438749903388 $152 0.03608363160190809771 $88 $153 forward 7 unknown #
attrib_hh_coedge_geombuild-attrib_entity_geombuild-individual_entity_attribute-attrib_HH-attrib $-1 $-1 $-1 $60 F #
coedge $154 $61 $60 $155 $156 reversed $21 $-1 #
attrib_hh_coedge_geombuild-attrib_entity_geombuild-individual_entity_attribute-attrib_HH-attrib $-1 $-1 $-1 $61 F #
edge $157 $109 0.1000100000000001682 $158 0.2250100000000001821 $61 $159 forward 7 unknown #
attrib_hh_coedge_geombuild-attrib_entity_geombuild-individual_entity_attribute-attrib_HH-attrib $-1 $-1 $-1 $62 F #
attrib_hh_edge_geombuild-attrib_entity_geombuild-individual_entity_attribute-attrib_HH-attrib $-1 $-1 $-1 $63 F #
vertex $160 $102 $161 #
straight-curve $-1 4.818892149399456315 -3.717999999999999972 5.899696858285287782 -0.9659277151446724607 0 0.258811995694542829 I I #
attrib_hh_coedge_geombuild-attrib_entity_geombuild-individual_entity_attribute-attrib_HH-attrib $-1 $-1 $-1 $65 F #
coedge $162 $73 $155 $65 $113 forward $121 $-1 #
edge $163 $115 -0.1443399999999996908 $82 0 $65 $164 forward 7 unknown #
attrib_hh_edge_geombuild-attrib_entity_geombuild-individual_entity_attribute-attrib_HH-attrib $-1 $-1 $-1 $67 F #
vertex $165 $67 $166 #
straight-curve $-1 4.923456451250085131 -3.818010000000000126 5.871679755953448598 0 0.999999999999999889 0 I I #
attrib_hh_vertex_geombuild-attrib_entity_geombuild-individual_entity_attribute-attrib_HH-attrib $-1 $-1 $-1 $70 F #
point $-1 4.923456451250085131 -3.717999999999999972 5.871679755953448598 #
attrib_hh_coedge_geombuild-attrib_entity_geombuild-individual_entity_attribute-attrib_HH-attrib $-1 $-1 $-1 $73 F #
coedge $167 $168 $73 $77 $127 forward $121 $-1 #
loop $-1 $-1 $169 $96 #
attrib_hh_edge_geombuild-attrib_entity_geombuild-individual_entity_attribute-attrib_HH-attrib $-1 $-1 $-1 $74 F #
straight-curve $-1 4.988163792796465934 -3.592999999999999972 6.113163792796465934 -0.2588119956945429401 0 0.9659277151446724607 I I #
attrib_hh_coedge_geombuild-attrib_entity_geombuild-individual_entity_attribute-attrib_HH-attrib $-1 $-1 $-1 $76 F #
coedge $170 $77 $76 $171 $172 forward $56 $-1 #
attrib_hh_coedge_geombuild-attrib_entity_geombuild-individual_entity_attribute-attrib_HH-attrib $-1 $-1 $-1 $77 F #
edge $173 $79 -0.1443381754768984504 $174 0 $77 $175 forward 7 unknown #
attrib_hh_vertex_geombuild-attrib_entity_geombuild-individual_entity_attribute-attrib_HH-attrib $-1 $-1 $-1 $79 F #
point $-1 4.988163792796465934 -3.592999999999999972 6.113163792796465934 #
attrib_hh_vertex_geombuild-attrib_entity_geombuild-individual_entity_attribute-attrib_HH-attrib $-1 $-1 $-1 $82 F #
point $-1 5.025520244046551177 -3.592999999999999972 5.973743548749914645 #
attrib_hh_coedge_geombuild-attrib_entity_geombuild-individual_entity_attribute-attrib_HH-attrib $-1 $-1 $-1 $85 F #
coedge $176 $149 $171 $85 $134 reversed $97 $-1 #
edge $177 $152 -0.108254999999999782 $136 0.03608499999999992963 $85 $178 forward 7 unknown #
attrib_hh_edge_geombuild-attrib_entity_geombuild-individual_entity_attribute-attrib_HH-attrib $-1 $-1 $-1 $86 F #
vertex $179 $86 $180 #
straight-curve $-1 4.95330785060054346 -3.717999999999999972 6.122503141714711994 0.9659277151446724607 0 -0.258811995694542829 I I #
coedge $181 $138 $138 $182 $183 forward $87 $-1 #
attrib_hh_coedge_geombuild-attrib_entity_geombuild-individual_entity_attribute-attrib_HH-attrib $-1 $-1 $-1 $88 F #
attrib_hh_face_geombuild-attrib_entity_geombuild-individual_entity_attribute-attrib_HH-attrib $-1 $-1 $-1 $89 F #
face $184 $-1 $185 $4 $-1 $186 forward single #
plane-surface $-1 4.886099999999999888 -3.717999999999999972 6.011099999999999888 0 -1 0 0.7071067811865473507 0 -0.7071067811865473507 forward_v I I I I #
attrib_hh_face_geombuild-attrib_entity_geombuild-individual_entity_attribute-attrib_HH-attrib $-1 $-1 $-1 $96 F #
face $187 $188 $189 $4 $-1 $190 forward single #
plane-surface $-1 4.746679755953448598 -3.592999999999999972 6.048456451250085131 0 -1 0 0.7071067811865473507 0 -0.7071067811865473507 forward_v I I I I #
attrib_hh_coedge_geombuild-attrib_entity_geombuild-individual_entity_attribute-attrib_HH-attrib $-1 $-1 $-1 $100 F #
coedge $191 $101 $100 $169 $192 reversed $32 $-1 #
attrib_hh_coedge_geombuild-attrib_entity_geombuild-individual_entity_attribute-attrib_HH-attrib $-1 $-1 $-1 $101 F #
coedge $193 $194 $133 $101 $150 forward $97 $-1 #
edge $195 $152 0.1000100000000001682 $196 0.2250100000000001821 $101 $197 forward 7 unknown #
attrib_hh_edge_geombuild-attrib_entity_geombuild-individual_entity_attribute-attrib_HH-attrib $-1 $-1 $-1 $102 F #
vertex $198 $102 $199 #
straight-curve $-1 4.75601863266024516 -3.717999999999999972 6.01360227142273196 -0.258811995694542829 0 0.9659277151446724607 I I #
attrib_hh_coedge_geombuild-attrib_entity_geombuild-individual_entity_attribute-attrib_HH-attrib $-1 $-1 $-1 $104 F #
coedge $200 $112 $169 $104 $156 forward $121 $-1 #
edge $201 $158 -0.1443381754768984504 $115 0 $104 $202 forward 7 unknown #
attrib_hh_edge_geombuild-attrib_entity_geombuild-individual_entity_attribute-attrib_HH-attrib $-1 $-1 $-1 $106 F #
vertex $203 $106 $204 #
straight-curve $-1 4.784036207203533841 -3.818010000000000126 5.909036207203533841 0 0.999999999999999889 0 I I #
attrib_hh_vertex_geombuild-attrib_entity_geombuild-individual_entity_attribute-attrib_HH-attrib $-1 $-1 $-1 $109 F #
point $-1 4.784036207203533841 -3.717999999999999972 5.909036207203533841 #
attrib_hh_coedge_geombuild-attrib_entity_geombuild-individual_entity_attribute-attrib_HH-attrib $-1 $-1 $-1 $112 F #
attrib_hh_edge_geombuild-attrib_entity_geombuild-individual_entity_attribute-attrib_HH-attrib $-1 $-1 $-1 $113 F #
straight-curve $-1 5.025520244046551177 -3.592999999999999972 5.973743548749914645 0.7071067811865473507 0 0.7071067811865473507 I I #
attrib_hh_vertex_geombuild-attrib_entity_geombuild-individual_entity_attribute-attrib_HH-attrib $-1 $-1 $-1 $115 F #
point $-1 4.923456451250085131 -3.592999999999999972 5.871679755953448598 #
attrib_hh_coedge_geombuild-attrib_entity_geombuild-individual_entity_attribute-attrib_HH-attrib $-1 $-1 $-1 $120 F #
coedge $205 $169 $120 $194 $206 forward $121 $-1 #
coedge $207 $155 $168 $147 $192 forward $121 $-1 #
attrib_hh_coedge_geombuild-attrib_entity_geombuild-individual_entity_attribute-attrib_HH-attrib $-1 $-1 $-1 $125 F #
coedge $208 $133 $194 $125 $172 reversed $97 $-1 #
edge $209 $136 0.1000100000000001682 $174 0.2250100000000001821 $171 $210 forward 7 unknown #
attrib_hh_edge_geombuild-attrib_entity_geombuild-individual_entity_attribute-attrib_HH-attrib $-1 $-1 $-1 $127 F #
vertex $211 $172 $212 #
straight-curve $-1 4.848743548749914645 -3.592999999999999972 6.150520244046551177 -0.9659277151446724607 0 0.2588119956945429401 I I #
attrib_hh_coedge_geombuild-attrib_entity_geombuild-individual_entity_attribute-attrib_HH-attrib $-1 $-1 $-1 $133 F #
attrib_hh_edge_geombuild-attrib_entity_geombuild-individual_entity_attribute-attrib_HH-attrib $-1 $-1 $-1 $134 F #
straight-curve $-1 4.823227600550797689 -3.717999999999999972 6.12500429584743511 0.7071067811865473507 0 0.7071067811865473507 I I #
attrib_hh_vertex_geombuild-attrib_entity_geombuild-individual_entity_attribute-attrib_HH-attrib $-1 $-1 $-1 $136 F #
point $-1 4.848743548749914645 -3.717999999999999972 6.150520244046551177 #
attrib_hh_coedge_geombuild-attrib_entity_geombuild-individual_entity_attribute-attrib_HH-attrib $-1 $-1 $-1 $138 F #
coedge $213 $182 $182 $138 $183 reversed $214 $-1 #
edge $215 $216 0 $216 6.283185307179586232 $138 $217 forward 7 unknown #
attrib_hh_face_geombuild-attrib_entity_geombuild-individual_entity_attribute-attrib_HH-attrib $-1 $-1 $-1 $141 F #
loop $-1 $218 $219 $141 #
plane-surface $-1 4.886099999999999888 -3.467999999999999972 6.011099999999999888 0 1 0 -0.7071067811865473507 0 0.7071067811865473507 forward_v I I I I #
attrib_hh_face_geombuild-attrib_entity_geombuild-individual_entity_attribute-attrib_HH-attrib $-1 $-1 $-1 $144 F #
face $220 $221 $222 $4 $-1 $223 forward single #
loop $-1 $224 $225 $144 #
cone-surface $-1 4.886099999999999888 -3.092999999999999972 6.011099999999999888 0 1 0 -0.08838834764831841884 0 0.08838834764831841884 1 I I 0 1 0.1249999999999999861 forward I I I I #
attrib_hh_coedge_geombuild-attrib_entity_geombuild-individual_entity_attribute-attrib_HH-attrib $-1 $-1 $-1 $147 F #
edge $226 $196 -0.1443381754768984504 $158 0 $147 $227 forward 7 unknown #
attrib_hh_coedge_geombuild-attrib_entity_geombuild-individual_entity_attribute-attrib_HH-attrib $-1 $-1 $-1 $149 F #
coedge $228 $171 $149 $168 $206 reversed $97 $-1 #
attrib_hh_edge_geombuild-attrib_entity_geombuild-individual_entity_attribute-attrib_HH-attrib $-1 $-1 $-1 $150 F #
vertex $229 $150 $230 #
straight-curve $-1 4.746679755953448598 -3.818010000000000126 6.048456451250085131 0 0.999999999999999889 0 I I #
attrib_hh_vertex_geombuild-attrib_entity_geombuild-individual_entity_attribute-attrib_HH-attrib $-1 $-1 $-1 $152 F #
point $-1 4.746679755953448598 -3.717999999999999972 6.048456451250085131 #
attrib_hh_coedge_geombuild-attrib_entity_geombuild-individual_entity_attribute-attrib_HH-attrib $-1 $-1 $-1 $155 F #
attrib_hh_edge_geombuild-attrib_entity_geombuild-individual_entity_attribute-attrib_HH-attrib $-1 $-1 $-1 $156 F #
straight-curve $-1 4.923456451250085131 -3.592999999999999972 5.871679755953448598 0.9659277151446724607 0 -0.2588119956945429401 I I #
attrib_hh_vertex_geombuild-attrib_entity_geombuild-individual_entity_attribute-attrib_HH-attrib $-1 $-1 $-1 $158 F #
point $-1 4.784036207203533841 -3.592999999999999972 5.909036207203533841 #
attrib_hh_coedge_geombuild-attrib_entity_geombuild-individual_entity_attribute-attrib_HH-attrib $-1 $-1 $-1 $168 F #
edge $231 $174 -0.1443399999999996908 $196 0 $194 $232 forward 7 unknown #
attrib_hh_coedge_geombuild-attrib_entity_geombuild-individual_entity_attribute-attrib_HH-attrib $-1 $-1 $-1 $169 F #
attrib_hh_coedge_geombuild-attrib_entity_geombuild-individual_entity_attribute-attrib_HH-attrib $-1 $-1 $-1 $171 F #
attrib_hh_edge_geombuild-attrib_entity_geombuild-individual_entity_attribute-attrib_HH-attrib $-1 $-1 $-1 $172 F #
straight-curve $-1 4.848743548749914645 -3.818010000000000126 6.150520244046551177 0 0.999999999999999889 0 I I #
attrib_hh_vertex_geombuild-attrib_entity_geombuild-individual_entity_attribute-attrib_HH-attrib $-1 $-1 $-1 $174 F #
point $-1 4.848743548749914645 -3.592999999999999972 6.150520244046551177 #
attrib_hh_coedge_geombuild-attrib_entity_geombuild-individual_entity_attribute-attrib_HH-attrib $-1 $-1 $-1 $182 F #
loop $-1 $233 $182 $221 #
attrib_hh_edge_geombuild-attrib_entity_geombuild-individual_entity_attribute-attrib_HH-attrib $-1 $-1 $-1 $183 F #
vertex $234 $183 $235 #
ellipse-curve $-1 4.886099999999999888 -3.717999999999999972 6.011099999999999888 0 -1 0 -0.1325825214724776491 0 0.1325825214724776491 1 I I #
loop $-1 $-1 $236 $141 #
coedge $237 $219 $219 $225 $238 forward $185 $-1 #
attrib_hh_face_geombuild-attrib_entity_geombuild-individual_entity_attribute-attrib_HH-attrib $-1 $-1 $-1 $188 F #
face $239 $89 $214 $4 $-1 $240 forward single #
loop $-1 $-1 $241 $188 #
plane-surface $-1 4.886099999999999888 -2.717999999999999972 6.011099999999999888 0 1 0 -0.7071067811865473507 0 0.7071067811865473507 forward_v I I I I #
loop $-1 $-1 $242 $144 #
coedge $243 $225 $225 $219 $238 reversed $189 $-1 #
attrib_hh_edge_geombuild-attrib_entity_geombuild-individual_entity_attribute-attrib_HH-attrib $-1 $-1 $-1 $192 F #
straight-curve $-1 4.784036207203533841 -3.592999999999999972 5.909036207203533841 0.2588119956945429401 0 -0.9659277151446724607 I I #
attrib_hh_coedge_geombuild-attrib_entity_geombuild-individual_entity_attribute-attrib_HH-attrib $-1 $-1 $-1 $194 F #
attrib_hh_vertex_geombuild-attrib_entity_geombuild-individual_entity_attribute-attrib_HH-attrib $-1 $-1 $-1 $196 F #
point $-1 4.746679755953448598 -3.592999999999999972 6.048456451250085131 #
attrib_hh_edge_geombuild-attrib_entity_geombuild-individual_entity_attribute-attrib_HH-attrib $-1 $-1 $-1 $206 F #
straight-curve $-1 4.746679755953448598 -3.592999999999999972 6.048456451250085131 -0.7071067811865473507 0 -0.7071067811865473507 I I #
loop $-1 $-1 $244 $221 #
attrib_hh_vertex_geombuild-attrib_entity_geombuild-individual_entity_attribute-attrib_HH-attrib $-1 $-1 $-1 $216 F #
point $-1 4.753517478527522044 -3.717999999999999972 6.143682521472477731 #
coedge $245 $236 $236 $244 $246 forward $218 $-1 #
attrib_hh_coedge_geombuild-attrib_entity_geombuild-individual_entity_attribute-attrib_HH-attrib $-1 $-1 $-1 $219 F #
edge $247 $248 0 $248 6.283185307179586232 $219 $249 forward 7 unknown #
attrib_hh_face_geombuild-attrib_entity_geombuild-individual_entity_attribute-attrib_HH-attrib $-1 $-1 $-1 $221 F #
cone-surface $-1 4.886099999999999888 -3.592999999999999972 6.011099999999999888 0 1 0 -0.1325825214724776491 0 0.1325825214724776491 1 I I 0 1 0.1875 forward I I I I #
coedge $250 $241 $241 $242 $251 forward $222 $-1 #
coedge $252 $242 $242 $241 $251 reversed $224 $-1 #
attrib_hh_coedge_geombuild-attrib_entity_geombuild-individual_entity_attribute-attrib_HH-attrib $-1 $-1 $-1 $225 F #
coedge $253 $244 $244 $236 $246 reversed $233 $-1 #
attrib_hh_coedge_geombuild-attrib_entity_geombuild-individual_entity_attribute-attrib_HH-attrib $-1 $-1 $-1 $236 F #
edge $254 $255 0 $255 6.283185307179586232 $236 $256 forward 7 unknown #
attrib_hh_edge_geombuild-attrib_entity_geombuild-individual_entity_attribute-attrib_HH-attrib $-1 $-1 $-1 $238 F #
vertex $257 $238 $258 #
ellipse-curve $-1 4.886099999999999888 -3.467999999999999972 6.011099999999999888 0 -1 0 -0.08838834764831841884 0 0.08838834764831841884 1 I I #
attrib_hh_coedge_geombuild-attrib_entity_geombuild-individual_entity_attribute-attrib_HH-attrib $-1 $-1 $-1 $241 F #
edge $259 $260 0 $260 6.283185307179586232 $241 $261 forward 7 unknown #
attrib_hh_coedge_geombuild-attrib_entity_geombuild-individual_entity_attribute-attrib_HH-attrib $-1 $-1 $-1 $242 F #
attrib_hh_coedge_geombuild-attrib_entity_geombuild-individual_entity_attribute-attrib_HH-attrib $-1 $-1 $-1 $244 F #
attrib_hh_edge_geombuild-attrib_entity_geombuild-individual_entity_attribute-attrib_HH-attrib $-1 $-1 $-1 $246 F #
vertex $262 $246 $263 #
ellipse-curve $-1 4.886099999999999888 -3.467999999999999972 6.011099999999999888 0 1 0 -0.1325825214724776491 0 0.1325825214724776491 1 I I #
attrib_hh_vertex_geombuild-attrib_entity_geombuild-individual_entity_attribute-attrib_HH-attrib $-1 $-1 $-1 $248 F #
point $-1 4.797711652351681622 -3.467999999999999972 6.099488347648318154 #
attrib_hh_edge_geombuild-attrib_entity_geombuild-individual_entity_attribute-attrib_HH-attrib $-1 $-1 $-1 $251 F #
vertex $264 $251 $265 #
ellipse-curve $-1 4.886099999999999888 -2.717999999999999972 6.011099999999999888 0 1 0 -0.08838834764831841884 0 0.08838834764831841884 1 I I #
attrib_hh_vertex_geombuild-attrib_entity_geombuild-individual_entity_attribute-attrib_HH-attrib $-1 $-1 $-1 $255 F #
point $-1 4.753517478527522044 -3.467999999999999972 6.143682521472477731 #
attrib_hh_vertex_geombuild-attrib_entity_geombuild-individual_entity_attribute-attrib_HH-attrib $-1 $-1 $-1 $260 F #
point $-1 4.797711652351681622 -2.717999999999999972 6.099488347648318154 #
End-of-ACIS-data 