  0
SECTION
  2
HEADER
  9
$ACADVER
  1
AC1009
  9
$INSBASE
 10
0.0
 20
0.0
 30
0.0
  9
$EXTMIN
 10
-0.278468
 20
-0.278468
 30
-0.278468
  9
$EXTMAX
 10
10.0
 20
15.0
 30
10.569366
  9
$LIMMIN
 10
0.0
 20
0.0
  9
$LIMMAX
 10
12.0
 20
9.0
  9
$ORTHOMODE
 70
     0
  9
$REGENMODE
 70
     1
  9
$FILLMODE
 70
     1
  9
$QTEXTMODE
 70
     0
  9
$MIRRTEXT
 70
     1
  9
$DRAGMODE
 70
     2
  9
$LTSCALE
 40
1.0
  9
$OSMODE
 70
     0
  9
$ATTMODE
 70
     1
  9
$TEXTSIZE
 40
0.2
  9
$TRACEWID
 40
0.05
  9
$TEXTSTYLE
  7
STANDARD
  9
$CLAYER
  8
0
  9
$CELTYPE
  6
BYLAYER
  9
$CECOLOR
 62
   256
  9
$DIMSCALE
 40
1.0
  9
$DIMASZ
 40
0.18
  9
$DIMEXO
 40
0.0625
  9
$DIMDLI
 40
0.38
  9
$DIMRND
 40
0.0
  9
$DIMDLE
 40
0.0
  9
$DIMEXE
 40
0.18
  9
$DIMTP
 40
0.0
  9
$DIMTM
 40
0.0
  9
$DIMTXT
 40
0.18
  9
$DIMCEN
 40
0.09
  9
$DIMTSZ
 40
0.0
  9
$DIMTOL
 70
     0
  9
$DIMLIM
 70
     0
  9
$DIMTIH
 70
     1
  9
$DIMTOH
 70
     1
  9
$DIMSE1
 70
     0
  9
$DIMSE2
 70
     0
  9
$DIMTAD
 70
     0
  9
$DIMZIN
 70
     0
  9
$DIMBLK
  1

  9
$DIMASO
 70
     1
  9
$DIMSHO
 70
     1
  9
$DIMPOST
  1

  9
$DIMAPOST
  1

  9
$DIMALT
 70
     0
  9
$DIMALTD
 70
     2
  9
$DIMALTF
 40
25.4
  9
$DIMLFAC
 40
1.0
  9
$DIMTOFL
 70
     0
  9
$DIMTVP
 40
0.0
  9
$DIMTIX
 70
     0
  9
$DIMSOXD
 70
     0
  9
$DIMSAH
 70
     0
  9
$DIMBLK1
  1

  9
$DIMBLK2
  1

  9
$DIMSTYLE
  2
*UNNAMED
  9
$DIMCLRD
 70
     0
  9
$DIMCLRE
 70
     0
  9
$DIMCLRT
 70
     0
  9
$DIMTFAC
 40
1.0
  9
$DIMGAP
 40
0.09
  9
$LUNITS
 70
     2
  9
$LUPREC
 70
     4
  9
$SKETCHINC
 40
0.1
  9
$FILLETRAD
 40
0.0
  9
$AUNITS
 70
     0
  9
$AUPREC
 70
     0
  9
$MENU
  1
acad
  9
$ELEVATION
 40
0.0
  9
$PELEVATION
 40
0.0
  9
$THICKNESS
 40
0.0
  9
$LIMCHECK
 70
     0
  9
$BLIPMODE
 70
     1
  9
$CHAMFERA
 40
0.0
  9
$CHAMFERB
 40
0.0
  9
$SKPOLY
 70
     0
  9
$TDCREATE
 40
2449160.724516284
  9
$TDUPDATE
 40
2449160.724516284
  9
$TDINDWG
 40
0.0000000000
  9
$TDUSRTIMER
 40
0.0000000000
  9
$USRTIMER
 70
     1
  9
$ANGBASE
 50
0.0
  9
$ANGDIR
 70
     0
  9
$PDMODE
 70
     0
  9
$PDSIZE
 40
0.0
  9
$PLINEWID
 40
0.0
  9
$COORDS
 70
     0
  9
$SPLFRAME
 70
     0
  9
$SPLINETYPE
 70
     6
  9
$SPLINESEGS
 70
     8
  9
$ATTDIA
 70
     0
  9
$ATTREQ
 70
     1
  9
$HANDLING
 70
     1
  9
$HANDSEED
  5
19A
  9
$SURFTAB1
 70
     6
  9
$SURFTAB2
 70
     6
  9
$SURFTYPE
 70
     6
  9
$SURFU
 70
     6
  9
$SURFV
 70
     6
  9
$UCSNAME
  2

  9
$UCSORG
 10
0.0
 20
0.0
 30
0.0
  9
$UCSXDIR
 10
1.0
 20
0.0
 30
0.0
  9
$UCSYDIR
 10
0.0
 20
1.0
 30
0.0
  9
$PUCSNAME
  2

  9
$PUCSORG
 10
0.0
 20
0.0
 30
0.0
  9
$PUCSXDIR
 10
1.0
 20
0.0
 30
0.0
  9
$PUCSYDIR
 10
0.0
 20
1.0
 30
0.0
  9
$USERI1
 70
     0
  9
$USERI2
 70
     0
  9
$USERI3
 70
     0
  9
$USERI4
 70
     0
  9
$USERI5
 70
     0
  9
$USERR1
 40
0.0
  9
$USERR2
 40
0.0
  9
$USERR3
 40
0.0
  9
$USERR4
 40
0.0
  9
$USERR5
 40
0.0
  9
$WORLDVIEW
 70
     1
  9
$SHADEDGE
 70
     3
  9
$SHADEDIF
 70
    70
  9
$TILEMODE
 70
     1
  9
$MAXACTVP
 70
    16
  9
$PINSBASE
 10
0.0
 20
0.0
 30
0.0
  9
$PLIMCHECK
 70
     0
  9
$PEXTMIN
 10
1.000000E+20
 20
1.000000E+20
 30
1.000000E+20
  9
$PEXTMAX
 10
-1.000000E+20
 20
-1.000000E+20
 30
-1.000000E+20
  9
$PLIMMIN
 10
0.0
 20
0.0
  9
$PLIMMAX
 10
12.0
 20
9.0
  9
$UNITMODE
 70
     0
  9
$VISRETAIN
 70
     0
  9
$PLINEGEN
 70
     0
  9
$PSLTSCALE
 70
     0
  9
$TREEDEPTH
 70
  3020
  9
$DWGCODEPAGE
  3
undefined
  0
ENDSEC
  0
SECTION
  2
TABLES
  0
TABLE
  2
VPORT
 70
     2
  0
VPORT
  2
*ACTIVE
 70
     0
 10
0.0
 20
0.0
 11
1.0
 21
1.0
 12
7.733075
 22
-4.325999
 13
0.0
 23
0.0
 14
1.0
 24
1.0
 15
0.0
 25
0.0
 16
20.0
 26
20.0
 36
100.0
 17
0.0
 27
0.0
 37
0.0
 40
18.564554
 41
1.594883
 42
50.0
 43
0.0
 44
0.0
 50
0.0
 51
0.0
 71
     0
 72
   100
 73
     1
 74
     1
 75
     0
 76
     0
 77
     0
 78
     0
  0
ENDTAB
  0
TABLE
  2
LTYPE
 70
     1
  0
LTYPE
  2
CONTINUOUS
 70
    64
  3
Solid line
 72
    65
 73
     0
 40
0.0
  0
ENDTAB
  0
TABLE
  2
LAYER
 70
     2
  0
LAYER
  2
0
 70
    64
 62
     7
  6
CONTINUOUS
  0
LAYER
  2
AME_FRZ
 70
    65
 62
     7
  6
CONTINUOUS
  0
ENDTAB
  0
TABLE
  2
STYLE
 70
     1
  0
STYLE
  2
STANDARD
 70
     0
 40
0.0
 41
1.0
 50
0.0
 71
     0
 42
0.2
  3
txt
  4

  0
ENDTAB
  0
TABLE
  2
VIEW
 70
     0
  0
ENDTAB
  0
TABLE
  2
UCS
 70
     0
  0
ENDTAB
  0
TABLE
  2
APPID
 70
     2
  0
APPID
  2
ACAD
 70
    64
  0
APPID
  2
AME_SOL
 70
    64
  0
ENDTAB
  0
TABLE
  2
DIMSTYLE
 70
     0
  0
ENDTAB
  0
ENDSEC
  0
SECTION
  2
BLOCKS
  0
BLOCK
  8
0
  5
1
  2
AME_NIL
 70
    64
 10
0.0
 20
0.0
 30
0.0
  1
AME_NIL
  3
AME_NIL
  0
ENDBLK
  8
0
  5
2
  0
BLOCK
  8
0
  5
4
  2
AME_SOL
 70
    64
 10
0.0
 20
0.0
 30
0.0
  1
AME_SOL
  3
AME_SOL
  0
ENDBLK
  8
0
  5
5
  0
BLOCK
  8
0
  5
7
  2
*U2
 70
    65
 10
0.0
 20
0.0
 30
0.0
  1
*U
  3
*U
  0
LINE
  8
0
 62
     0
  5
8
 10
10.0
 20
10.0
 30
0.0
 11
10.0
 21
10.0
 31
10.0
1001
AME_SOL
1070
     1
1071
       18
  0
LINE
  8
0
 62
     0
  5
9
 10
10.0
 20
10.0
 30
10.0
 11
10.0
 21
0.0
 31
10.0
1001
AME_SOL
1070
     1
1071
       17
  0
LINE
  8
0
 62
     0
  5
A
 10
0.0
 20
10.0
 30
10.0
 11
10.0
 21
10.0
 31
10.0
1001
AME_SOL
1070
     1
1071
       16
  0
LINE
  8
0
 62
     0
  5
B
 10
0.0
 20
10.0
 30
0.0
 11
0.0
 21
10.0
 31
10.0
1001
AME_SOL
1070
     1
1071
       15
  0
LINE
  8
0
 62
     0
  5
C
 10
0.0
 20
10.0
 30
10.0
 11
0.0
 21
0.0
 31
10.0
1001
AME_SOL
1070
     1
1071
       14
  0
LINE
  8
0
 62
     0
  5
D
 10
0.0
 20
0.0
 30
0.0
 11
0.0
 21
0.0
 31
10.0
1001
AME_SOL
1070
     1
1071
       13
  0
LINE
  8
0
 62
     0
  5
E
 10
10.0
 20
0.0
 30
10.0
 11
10.0
 21
0.0
 31
0.0
1001
AME_SOL
1070
     1
1071
       12
  0
LINE
  8
0
 62
     0
  5
F
 10
0.0
 20
0.0
 30
10.0
 11
10.0
 21
0.0
 31
10.0
1001
AME_SOL
1070
     1
1071
       11
  0
LINE
  8
0
 62
     0
  5
10
 10
0.0
 20
0.0
 30
0.0
 11
10.0
 21
0.0
 31
0.0
1001
AME_SOL
1070
     1
1071
       10
  0
LINE
  8
0
 62
     0
  5
11
 10
0.0
 20
10.0
 30
0.0
 11
0.0
 21
0.0
 31
0.0
1001
AME_SOL
1070
     1
1071
        9
  0
LINE
  8
0
 62
     0
  5
12
 10
10.0
 20
0.0
 30
0.0
 11
10.0
 21
10.0
 31
0.0
1001
AME_SOL
1070
     1
1071
        8
  0
LINE
  8
0
 62
     0
  5
13
 10
10.0
 20
10.0
 30
0.0
 11
0.0
 21
10.0
 31
0.0
1001
AME_SOL
1070
     1
1071
        7
  0
ENDBLK
  8
0
  5
14
  0
BLOCK
  8
0
  5
19
  2
*U3
 70
    65
 10
0.0
 20
0.0
 30
0.0
  1
*U
  3
*U
  0
CIRCLE
  8
0
 62
     0
  5
1A
 10
0.0
 20
0.0
 30
0.0
 40
2.5
1001
AME_SOL
1070
     1
1071
        5
  0
CIRCLE
  8
0
 62
     0
  5
1B
 10
0.0
 20
0.0
 30
10.0
 40
2.5
1001
AME_SOL
1070
     1
1071
        4
  0
LINE
  8
0
 62
     0
  5
1C
 10
-0.956708
 20
2.309699
 30
0.0
 11
-0.956708
 21
2.309699
 31
10.0
1001
AME_SOL
1070
     0
1071
        1
  0
LINE
  8
0
 62
     0
  5
1D
 10
-1.767767
 20
1.767767
 30
0.0
 11
-1.767767
 21
1.767767
 31
10.0
1001
AME_SOL
1070
     0
1071
        1
  0
LINE
  8
0
 62
     0
  5
1E
 10
-2.309699
 20
0.956709
 30
0.0
 11
-2.309699
 21
0.956709
 31
10.0
1001
AME_SOL
1070
     0
1071
        1
  0
LINE
  8
0
 62
     0
  5
1F
 10
-2.5
 20
0.0
 30
0.0
 11
-2.5
 21
0.0
 31
10.0
1001
AME_SOL
1070
     0
1071
        1
  0
LINE
  8
0
 62
     0
  5
20
 10
-2.309699
 20
-0.956708
 30
0.0
 11
-2.309699
 21
-0.956708
 31
10.0
1001
AME_SOL
1070
     0
1071
        1
  0
LINE
  8
0
 62
     0
  5
21
 10
-1.767767
 20
-1.767767
 30
0.0
 11
-1.767767
 21
-1.767767
 31
10.0
1001
AME_SOL
1070
     0
1071
        1
  0
LINE
  8
0
 62
     0
  5
22
 10
-0.956709
 20
-2.309699
 30
0.0
 11
-0.956709
 21
-2.309699
 31
10.0
1001
AME_SOL
1070
     0
1071
        1
  0
LINE
  8
0
 62
     0
  5
23
 10
0.0
 20
-2.5
 30
0.0
 11
0.0
 21
-2.5
 31
10.0
1001
AME_SOL
1070
     0
1071
        1
  0
LINE
  8
0
 62
     0
  5
24
 10
0.956708
 20
-2.309699
 30
0.0
 11
0.956708
 21
-2.309699
 31
10.0
1001
AME_SOL
1070
     0
1071
        1
  0
LINE
  8
0
 62
     0
  5
25
 10
1.767767
 20
-1.767767
 30
0.0
 11
1.767767
 21
-1.767767
 31
10.0
1001
AME_SOL
1070
     0
1071
        1
  0
LINE
  8
0
 62
     0
  5
26
 10
2.309699
 20
-0.956709
 30
0.0
 11
2.309699
 21
-0.956709
 31
10.0
1001
AME_SOL
1070
     0
1071
        1
  0
LINE
  8
0
 62
     0
  5
27
 10
2.5
 20
0.0
 30
0.0
 11
2.5
 21
0.0
 31
10.0
1001
AME_SOL
1070
     0
1071
        1
  0
LINE
  8
0
 62
     0
  5
28
 10
2.309699
 20
0.956709
 30
0.0
 11
2.309699
 21
0.956709
 31
10.0
1001
AME_SOL
1070
     0
1071
        1
  0
LINE
  8
0
 62
     0
  5
29
 10
1.767767
 20
1.767767
 30
0.0
 11
1.767767
 21
1.767767
 31
10.0
1001
AME_SOL
1070
     0
1071
        1
  0
LINE
  8
0
 62
     0
  5
2A
 10
0.956709
 20
2.309699
 30
0.0
 11
0.956709
 21
2.309699
 31
10.0
1001
AME_SOL
1070
     0
1071
        1
  0
LINE
  8
0
 62
     0
  5
2B
 10
0.0
 20
2.5
 30
0.0
 11
0.0
 21
2.5
 31
10.0
1001
AME_SOL
1070
     0
1071
        1
  0
ENDBLK
  8
0
  5
2C
  0
BLOCK
  8
0
  5
54
  2
AME_MAT
 70
    64
 10
0.0
 20
0.0
 30
0.0
  1
AME_MAT
  3
AME_MAT
  0
ENDBLK
  8
0
  5
55
  0
BLOCK
  8
0
  5
130
  2
SOLAXES
 70
     0
 10
0.0
 20
0.0
 30
0.0
  1
SOLAXES
  3
SOLAXES
  0
LINE
  8
0
 62
     0
  5
131
 10
0.0
 20
0.0
 30
0.0
 11
5.569366
 21
0.0
 31
0.0
  0
LINE
  8
0
 62
     0
  5
132
 10
0.0
 20
0.0
 30
0.0
 11
0.0
 21
5.569366
 31
0.0
  0
LINE
  8
0
 62
     0
  5
133
 10
0.0
 20
0.0
 30
0.0
 11
0.0
 21
0.0
 31
5.569366
  0
CIRCLE
  8
0
 62
     0
  5
134
 10
0.0
 20
0.0
 30
5.012429
 40
0.278468
210
1.0
220
0.0
230
0.0
  0
LINE
  8
0
 62
     0
  5
135
 10
5.012429
 20
0.278468
 30
0.0
 11
5.569366
 21
0.0
 31
0.0
  0
LINE
  8
0
 62
     0
  5
136
 10
5.012429
 20
0.0
 30
0.278468
 11
5.569366
 21
0.0
 31
0.0
  0
LINE
  8
0
 62
     0
  5
137
 10
5.012429
 20
-0.278468
 30
0.0
 11
5.569366
 21
0.0
 31
0.0
  0
LINE
  8
0
 62
     0
  5
138
 10
5.012429
 20
0.0
 30
-0.278468
 11
5.569366
 21
0.0
 31
0.0
  0
CIRCLE
  8
0
 62
     0
  5
139
 10
0.0
 20
0.0
 30
5.012429
 40
0.278468
210
0.0
220
1.0
230
0.0
  0
LINE
  8
0
 62
     0
  5
13A
 10
0.278468
 20
5.012429
 30
0.0
 11
0.0
 21
5.569366
 31
0.0
  0
LINE
  8
0
 62
     0
  5
13B
 10
0.0
 20
5.012429
 30
0.278468
 11
0.0
 21
5.569366
 31
0.0
  0
LINE
  8
0
 62
     0
  5
13C
 10
-0.278468
 20
5.012429
 30
0.0
 11
0.0
 21
5.569366
 31
0.0
  0
LINE
  8
0
 62
     0
  5
13D
 10
0.0
 20
5.012429
 30
-0.278468
 11
0.0
 21
5.569366
 31
0.0
  0
CIRCLE
  8
0
 62
     0
  5
13E
 10
0.0
 20
0.0
 30
4.455493
 40
0.278468
210
0.0
220
1.0
230
0.0
  0
LINE
  8
0
 62
     0
  5
13F
 10
0.278468
 20
4.455493
 30
0.0
 11
0.0
 21
5.012429
 31
0.0
  0
LINE
  8
0
 62
     0
  5
140
 10
0.0
 20
4.455493
 30
0.278468
 11
0.0
 21
5.012429
 31
0.0
  0
LINE
  8
0
 62
     0
  5
141
 10
-0.278468
 20
4.455493
 30
0.0
 11
0.0
 21
5.012429
 31
0.0
  0
LINE
  8
0
 62
     0
  5
142
 10
0.0
 20
4.455493
 30
-0.278468
 11
0.0
 21
5.012429
 31
0.0
  0
CIRCLE
  8
0
 62
     0
  5
143
 10
0.0
 20
0.0
 30
5.012429
 40
0.278468
  0
LINE
  8
0
 62
     0
  5
144
 10
0.278468
 20
0.0
 30
5.012429
 11
0.0
 21
0.0
 31
5.569366
  0
LINE
  8
0
 62
     0
  5
145
 10
0.0
 20
0.278468
 30
5.012429
 11
0.0
 21
0.0
 31
5.569366
  0
LINE
  8
0
 62
     0
  5
146
 10
-0.278468
 20
0.0
 30
5.012429
 11
0.0
 21
0.0
 31
5.569366
  0
LINE
  8
0
 62
     0
  5
147
 10
0.0
 20
-0.278468
 30
5.012429
 11
0.0
 21
0.0
 31
5.569366
  0
CIRCLE
  8
0
 62
     0
  5
148
 10
0.0
 20
0.0
 30
4.455493
 40
0.278468
  0
LINE
  8
0
 62
     0
  5
149
 10
0.278468
 20
0.0
 30
4.455493
 11
0.0
 21
0.0
 31
5.012429
  0
LINE
  8
0
 62
     0
  5
14A
 10
0.0
 20
0.278468
 30
4.455493
 11
0.0
 21
0.0
 31
5.012429
  0
LINE
  8
0
 62
     0
  5
14B
 10
-0.278468
 20
0.0
 30
4.455493
 11
0.0
 21
0.0
 31
5.012429
  0
LINE
  8
0
 62
     0
  5
14C
 10
0.0
 20
-0.278468
 30
4.455493
 11
0.0
 21
0.0
 31
5.012429
  0
CIRCLE
  8
0
 62
     0
  5
14D
 10
0.0
 20
0.0
 30
3.898556
 40
0.278468
  0
LINE
  8
0
 62
     0
  5
14E
 10
0.278468
 20
0.0
 30
3.898556
 11
0.0
 21
0.0
 31
4.455493
  0
LINE
  8
0
 62
     0
  5
14F
 10
0.0
 20
0.278468
 30
3.898556
 11
0.0
 21
0.0
 31
4.455493
  0
LINE
  8
0
 62
     0
  5
150
 10
-0.278468
 20
0.0
 30
3.898556
 11
0.0
 21
0.0
 31
4.455493
  0
LINE
  8
0
 62
     0
  5
151
 10
0.0
 20
-0.278468
 30
3.898556
 11
0.0
 21
0.0
 31
4.455493
  0
ENDBLK
  8
0
  5
152
  0
BLOCK
  8
0
  5
FA
  2
*U10
 70
    65
 10
0.0
 20
0.0
 30
0.0
  1
*U
  3
*U
  0
LINE
  8
0
 62
     7
  5
FB
 10
10.0
 20
10.0
 30
0.0
 11
10.0
 21
10.0
 31
10.0
1001
AME_SOL
1070
     1
1071
       21
  0
LINE
  8
0
 62
     7
  5
FC
 10
10.0
 20
10.0
 30
10.0
 11
10.0
 21
0.0
 31
10.0
1001
AME_SOL
1070
     1
1071
       20
  0
LINE
  8
0
 62
     7
  5
FD
 10
0.0
 20
10.0
 30
10.0
 11
10.0
 21
10.0
 31
10.0
1001
AME_SOL
1070
     1
1071
       19
  0
LINE
  8
0
 62
     7
  5
FE
 10
0.0
 20
10.0
 30
0.0
 11
0.0
 21
10.0
 31
10.0
1001
AME_SOL
1070
     1
1071
       18
  0
LINE
  8
0
 62
     7
  5
FF
 10
0.0
 20
10.0
 30
10.0
 11
0.0
 21
0.0
 31
10.0
1001
AME_SOL
1070
     1
1071
       17
  0
LINE
  8
0
 62
     7
  5
100
 10
0.0
 20
0.0
 30
0.0
 11
0.0
 21
0.0
 31
10.0
1001
AME_SOL
1070
     1
1071
       16
  0
LINE
  8
0
 62
     7
  5
101
 10
10.0
 20
0.0
 30
10.0
 11
10.0
 21
0.0
 31
0.0
1001
AME_SOL
1070
     1
1071
       15
  0
LINE
  8
0
 62
     7
  5
102
 10
0.0
 20
0.0
 30
10.0
 11
10.0
 21
0.0
 31
10.0
1001
AME_SOL
1070
     1
1071
       14
  0
LINE
  8
0
 62
     7
  5
103
 10
0.0
 20
0.0
 30
0.0
 11
10.0
 21
0.0
 31
0.0
1001
AME_SOL
1070
     1
1071
       13
  0
LINE
  8
0
 62
     7
  5
104
 10
0.0
 20
10.0
 30
0.0
 11
0.0
 21
0.0
 31
0.0
1001
AME_SOL
1070
     1
1071
       12
  0
LINE
  8
0
 62
     7
  5
105
 10
10.0
 20
0.0
 30
0.0
 11
10.0
 21
10.0
 31
0.0
1001
AME_SOL
1070
     1
1071
       11
  0
LINE
  8
0
 62
     7
  5
106
 10
10.0
 20
10.0
 30
0.0
 11
0.0
 21
10.0
 31
0.0
1001
AME_SOL
1070
     1
1071
       10
  0
CIRCLE
  8
0
 62
     7
  5
107
 10
5.0
 20
5.0
 30
0.0
 40
2.5
1001
AME_SOL
1070
     1
1071
        9
  0
CIRCLE
  8
0
 62
     7
  5
108
 10
5.0
 20
5.0
 30
10.0
 40
2.5
1001
AME_SOL
1070
     1
1071
        8
  0
LINE
  8
0
 62
     7
  5
109
 10
4.043292
 20
7.309699
 30
0.0
 11
4.043292
 21
7.309699
 31
10.0
1001
AME_SOL
1070
     0
1071
        1
  0
LINE
  8
0
 62
     7
  5
10A
 10
3.232234
 20
6.767767
 30
0.0
 11
3.232234
 21
6.767767
 31
10.0
1001
AME_SOL
1070
     0
1071
        1
  0
LINE
  8
0
 62
     7
  5
10B
 10
2.690301
 20
5.956709
 30
0.0
 11
2.690301
 21
5.956709
 31
10.0
1001
AME_SOL
1070
     0
1071
        1
  0
LINE
  8
0
 62
     7
  5
10C
 10
2.5
 20
5.0
 30
0.0
 11
2.5
 21
5.0
 31
10.0
1001
AME_SOL
1070
     0
1071
        1
  0
LINE
  8
0
 62
     7
  5
10D
 10
2.690301
 20
4.043292
 30
0.0
 11
2.690301
 21
4.043292
 31
10.0
1001
AME_SOL
1070
     0
1071
        1
  0
LINE
  8
0
 62
     7
  5
10E
 10
3.232233
 20
3.232233
 30
0.0
 11
3.232233
 21
3.232233
 31
10.0
1001
AME_SOL
1070
     0
1071
        1
  0
LINE
  8
0
 62
     7
  5
10F
 10
4.043291
 20
2.690301
 30
0.0
 11
4.043291
 21
2.690301
 31
10.0
1001
AME_SOL
1070
     0
1071
        1
  0
LINE
  8
0
 62
     7
  5
110
 10
5.0
 20
2.5
 30
0.0
 11
5.0
 21
2.5
 31
10.0
1001
AME_SOL
1070
     0
1071
        1
  0
LINE
  8
0
 62
     7
  5
111
 10
5.956708
 20
2.690301
 30
0.0
 11
5.956708
 21
2.690301
 31
10.0
1001
AME_SOL
1070
     0
1071
        1
  0
LINE
  8
0
 62
     7
  5
112
 10
6.767766
 20
3.232233
 30
0.0
 11
6.767766
 21
3.232233
 31
10.0
1001
AME_SOL
1070
     0
1071
        1
  0
LINE
  8
0
 62
     7
  5
113
 10
7.309699
 20
4.043291
 30
0.0
 11
7.309699
 21
4.043291
 31
10.0
1001
AME_SOL
1070
     0
1071
        1
  0
LINE
  8
0
 62
     7
  5
114
 10
7.5
 20
5.0
 30
0.0
 11
7.5
 21
5.0
 31
10.0
1001
AME_SOL
1070
     0
1071
        1
  0
LINE
  8
0
 62
     7
  5
115
 10
7.309699
 20
5.956709
 30
0.0
 11
7.309699
 21
5.956709
 31
10.0
1001
AME_SOL
1070
     0
1071
        1
  0
LINE
  8
0
 62
     7
  5
116
 10
6.767767
 20
6.767767
 30
0.0
 11
6.767767
 21
6.767767
 31
10.0
1001
AME_SOL
1070
     0
1071
        1
  0
LINE
  8
0
 62
     7
  5
117
 10
5.956709
 20
7.309699
 30
0.0
 11
5.956709
 21
7.309699
 31
10.0
1001
AME_SOL
1070
     0
1071
        1
  0
LINE
  8
0
 62
     7
  5
118
 10
5.0
 20
7.5
 30
0.0
 11
5.0
 21
7.5
 31
10.0
1001
AME_SOL
1070
     0
1071
        1
  0
ENDBLK
  8
0
  5
119
  0
BLOCK
  8
0
  5
155
  2
*U12
 70
    65
 10
0.0
 20
0.0
 30
0.0
  1
*U
  3
*U
  0
LINE
  8
0
 62
     0
  5
156
 10
5.0
 20
10.0
 30
0.0
 11
5.0
 21
10.0
 31
5.0
1001
AME_SOL
1070
     1
1071
       18
  0
LINE
  8
0
 62
     0
  5
157
 10
5.0
 20
10.0
 30
5.0
 11
5.0
 21
0.0
 31
5.0
1001
AME_SOL
1070
     1
1071
       17
  0
LINE
  8
0
 62
     0
  5
158
 10
0.0
 20
10.0
 30
5.0
 11
5.0
 21
10.0
 31
5.0
1001
AME_SOL
1070
     1
1071
       16
  0
LINE
  8
0
 62
     0
  5
159
 10
0.0
 20
10.0
 30
0.0
 11
0.0
 21
10.0
 31
5.0
1001
AME_SOL
1070
     1
1071
       15
  0
LINE
  8
0
 62
     0
  5
15A
 10
0.0
 20
10.0
 30
5.0
 11
0.0
 21
0.0
 31
5.0
1001
AME_SOL
1070
     1
1071
       14
  0
LINE
  8
0
 62
     0
  5
15B
 10
0.0
 20
0.0
 30
0.0
 11
0.0
 21
0.0
 31
5.0
1001
AME_SOL
1070
     1
1071
       13
  0
LINE
  8
0
 62
     0
  5
15C
 10
5.0
 20
0.0
 30
5.0
 11
5.0
 21
0.0
 31
0.0
1001
AME_SOL
1070
     1
1071
       12
  0
LINE
  8
0
 62
     0
  5
15D
 10
0.0
 20
0.0
 30
5.0
 11
5.0
 21
0.0
 31
5.0
1001
AME_SOL
1070
     1
1071
       11
  0
LINE
  8
0
 62
     0
  5
15E
 10
0.0
 20
0.0
 30
0.0
 11
5.0
 21
0.0
 31
0.0
1001
AME_SOL
1070
     1
1071
       10
  0
LINE
  8
0
 62
     0
  5
15F
 10
0.0
 20
10.0
 30
0.0
 11
0.0
 21
0.0
 31
0.0
1001
AME_SOL
1070
     1
1071
        9
  0
LINE
  8
0
 62
     0
  5
160
 10
5.0
 20
0.0
 30
0.0
 11
5.0
 21
10.0
 31
0.0
1001
AME_SOL
1070
     1
1071
        8
  0
LINE
  8
0
 62
     0
  5
161
 10
5.0
 20
10.0
 30
0.0
 11
0.0
 21
10.0
 31
0.0
1001
AME_SOL
1070
     1
1071
        7
  0
ENDBLK
  8
0
  5
162
  0
BLOCK
  8
0
  5
168
  2
*U13
 70
    65
 10
0.0
 20
0.0
 30
0.0
  1
*U
  3
*U
  0
LINE
  8
0
 62
     7
  5
169
 10
10.0
 20
10.0
 30
0.0
 11
10.0
 21
10.0
 31
5.0
1001
AME_SOL
1070
     1
1071
       35
  0
LINE
  8
0
 62
     7
  5
16A
 10
0.0
 20
10.0
 30
10.0
 11
5.0
 21
10.0
 31
10.0
1001
AME_SOL
1070
     1
1071
       34
  0
LINE
  8
0
 62
     7
  5
16B
 10
0.0
 20
10.0
 30
0.0
 11
0.0
 21
10.0
 31
10.0
1001
AME_SOL
1070
     1
1071
       33
  0
LINE
  8
0
 62
     7
  5
16C
 10
0.0
 20
10.0
 30
10.0
 11
0.0
 21
0.0
 31
10.0
1001
AME_SOL
1070
     1
1071
       32
  0
LINE
  8
0
 62
     7
  5
16D
 10
0.0
 20
0.0
 30
0.0
 11
0.0
 21
0.0
 31
10.0
1001
AME_SOL
1070
     1
1071
       31
  0
LINE
  8
0
 62
     7
  5
16E
 10
10.0
 20
0.0
 30
5.0
 11
10.0
 21
0.0
 31
0.0
1001
AME_SOL
1070
     1
1071
       30
  0
LINE
  8
0
 62
     7
  5
16F
 10
0.0
 20
0.0
 30
10.0
 11
5.0
 21
0.0
 31
10.0
1001
AME_SOL
1070
     1
1071
       29
  0
LINE
  8
0
 62
     7
  5
170
 10
0.0
 20
0.0
 30
0.0
 11
10.0
 21
0.0
 31
0.0
1001
AME_SOL
1070
     1
1071
       28
  0
LINE
  8
0
 62
     7
  5
171
 10
0.0
 20
10.0
 30
0.0
 11
0.0
 21
0.0
 31
0.0
1001
AME_SOL
1070
     1
1071
       27
  0
LINE
  8
0
 62
     7
  5
172
 10
10.0
 20
0.0
 30
0.0
 11
10.0
 21
10.0
 31
0.0
1001
AME_SOL
1070
     1
1071
       26
  0
LINE
  8
0
 62
     7
  5
173
 10
10.0
 20
10.0
 30
0.0
 11
0.0
 21
10.0
 31
0.0
1001
AME_SOL
1070
     1
1071
       25
  0
CIRCLE
  8
0
 62
     7
  5
174
 10
5.0
 20
5.0
 30
0.0
 40
2.5
1001
AME_SOL
1070
     1
1071
       24
  0
ARC
  8
0
 62
     7
  5
175
 10
5.0
 20
5.0
 30
10.0
 40
2.5
 50
90.0
 51
180.0
1001
AME_SOL
1070
     1
1071
       23
  0
ARC
  8
0
 62
     7
  5
176
 10
5.0
 20
5.0
 30
10.0
 40
2.5
 50
180.0
 51
270.0
1001
AME_SOL
1070
     1
1071
       22
  0
LINE
  8
0
 62
     7
  5
177
 10
5.0
 20
0.0
 30
10.0
 11
5.0
 21
0.0
 31
5.0
1001
AME_SOL
1070
     1
1071
       21
  0
LINE
  8
0
 62
     7
  5
178
 10
5.0
 20
10.0
 30
5.0
 11
5.0
 21
10.0
 31
10.0
1001
AME_SOL
1070
     1
1071
       20
  0
LINE
  8
0
 62
     7
  5
179
 10
5.0
 20
2.5
 30
10.0
 11
5.0
 21
0.0
 31
10.0
1001
AME_SOL
1070
     1
1071
       19
  0
LINE
  8
0
 62
     7
  5
17A
 10
5.0
 20
10.0
 30
10.0
 11
5.0
 21
7.5
 31
10.0
1001
AME_SOL
1070
     1
1071
       18
  0
LINE
  8
0
 62
     7
  5
17B
 10
5.0
 20
2.5
 30
5.0
 11
5.0
 21
2.5
 31
10.0
1001
AME_SOL
1070
     1
1071
       17
  0
LINE
  8
0
 62
     7
  5
17C
 10
5.0
 20
7.5
 30
5.0
 11
5.0
 21
7.5
 31
10.0
1001
AME_SOL
1070
     1
1071
       16
  0
LINE
  8
0
 62
     7
  5
17D
 10
5.0
 20
0.0
 30
5.0
 11
10.0
 21
0.0
 31
5.0
1001
AME_SOL
1070
     1
1071
       15
  0
LINE
  8
0
 62
     7
  5
17E
 10
10.0
 20
0.0
 30
5.0
 11
10.0
 21
10.0
 31
5.0
1001
AME_SOL
1070
     1
1071
       14
  0
LINE
  8
0
 62
     7
  5
17F
 10
10.0
 20
10.0
 30
5.0
 11
5.0
 21
10.0
 31
5.0
1001
AME_SOL
1070
     1
1071
       13
  0
ARC
  8
0
 62
     7
  5
180
 10
5.0
 20
5.0
 30
5.0
 40
2.5
 50
270.0
 51
90.0
1001
AME_SOL
1070
     1
1071
       12
  0
LINE
  8
0
 62
     7
  5
181
 10
5.0
 20
2.5
 30
5.0
 11
5.0
 21
0.0
 31
5.0
1001
AME_SOL
1070
     1
1071
       11
  0
LINE
  8
0
 62
     7
  5
182
 10
5.0
 20
10.0
 30
5.0
 11
5.0
 21
7.5
 31
5.0
1001
AME_SOL
1070
     1
1071
       10
  0
LINE
  8
0
 62
     7
  5
183
 10
5.0
 20
7.5
 30
5.0
 11
5.0
 21
7.5
 31
10.0
1001
AME_SOL
1070
     0
1071
        3
  0
LINE
  8
0
 62
     7
  5
184
 10
5.0
 20
7.5
 30
0.0
 11
5.0
 21
7.5
 31
5.0
1001
AME_SOL
1070
     0
1071
        3
  0
LINE
  8
0
 62
     7
  5
185
 10
5.956709
 20
7.309699
 30
0.0
 11
5.956709
 21
7.309699
 31
5.0
1001
AME_SOL
1070
     0
1071
        3
  0
LINE
  8
0
 62
     7
  5
186
 10
6.767767
 20
6.767767
 30
0.0
 11
6.767767
 21
6.767767
 31
5.0
1001
AME_SOL
1070
     0
1071
        3
  0
LINE
  8
0
 62
     7
  5
187
 10
7.309699
 20
5.956709
 30
0.0
 11
7.309699
 21
5.956709
 31
5.0
1001
AME_SOL
1070
     0
1071
        3
  0
LINE
  8
0
 62
     7
  5
188
 10
7.5
 20
5.0
 30
0.0
 11
7.5
 21
5.0
 31
5.0
1001
AME_SOL
1070
     0
1071
        3
  0
LINE
  8
0
 62
     7
  5
189
 10
7.309699
 20
4.043291
 30
0.0
 11
7.309699
 21
4.043291
 31
5.0
1001
AME_SOL
1070
     0
1071
        3
  0
LINE
  8
0
 62
     7
  5
18A
 10
6.767766
 20
3.232233
 30
0.0
 11
6.767766
 21
3.232233
 31
5.0
1001
AME_SOL
1070
     0
1071
        3
  0
LINE
  8
0
 62
     7
  5
18B
 10
5.956708
 20
2.690301
 30
0.0
 11
5.956708
 21
2.690301
 31
5.0
1001
AME_SOL
1070
     0
1071
        3
  0
LINE
  8
0
 62
     7
  5
18C
 10
5.0
 20
2.5
 30
5.0
 11
5.0
 21
2.5
 31
10.0
1001
AME_SOL
1070
     0
1071
        3
  0
LINE
  8
0
 62
     7
  5
18D
 10
5.0
 20
2.5
 30
0.0
 11
5.0
 21
2.5
 31
5.0
1001
AME_SOL
1070
     0
1071
        3
  0
LINE
  8
0
 62
     7
  5
18E
 10
4.043291
 20
2.690301
 30
0.0
 11
4.043291
 21
2.690301
 31
10.0
1001
AME_SOL
1070
     0
1071
        3
  0
LINE
  8
0
 62
     7
  5
18F
 10
3.232233
 20
3.232233
 30
0.0
 11
3.232233
 21
3.232233
 31
10.0
1001
AME_SOL
1070
     0
1071
        3
  0
LINE
  8
0
 62
     7
  5
190
 10
2.690301
 20
4.043292
 30
0.0
 11
2.690301
 21
4.043292
 31
10.0
1001
AME_SOL
1070
     0
1071
        3
  0
LINE
  8
0
 62
     7
  5
191
 10
2.5
 20
5.0
 30
0.0
 11
2.5
 21
5.0
 31
10.0
1001
AME_SOL
1070
     0
1071
        3
  0
LINE
  8
0
 62
     7
  5
192
 10
2.690301
 20
5.956709
 30
0.0
 11
2.690301
 21
5.956709
 31
10.0
1001
AME_SOL
1070
     0
1071
        3
  0
LINE
  8
0
 62
     7
  5
193
 10
3.232234
 20
6.767767
 30
0.0
 11
3.232234
 21
6.767767
 31
10.0
1001
AME_SOL
1070
     0
1071
        3
  0
LINE
  8
0
 62
     7
  5
194
 10
4.043292
 20
7.309699
 30
0.0
 11
4.043292
 21
7.309699
 31
10.0
1001
AME_SOL
1070
     0
1071
        3
  0
ENDBLK
  8
0
  5
195
  0
ENDSEC
  0
SECTION
  2
ENTITIES
  0
INSERT
  8
AME_FRZ
  5
15
  2
*U2
 10
0.0
 20
0.0
 30
0.0
1001
AME_SOL
1002
{
1070
     0
1071
  1957176
1070
  1536
1010
10.0
1020
10.0
1030
10.0
1005
0
1005
0
1005
11A
1040
0.0
1040
1.0
1000
MILD_STEEL
1000
0
1010
0.0
1020
0.0
1030
0.0
1010
0.0
1020
0.0
1030
1.0
1040
0.0
1002
}
  0
INSERT
  8
AME_FRZ
  5
2D
  2
*U3
 10
5.0
 20
5.0
 30
0.0
1001
AME_SOL
1002
{
1070
     0
1071
  1957584
1070
  1538
1010
2.5
1020
2.5
1030
10.0
1005
0
1005
0
1005
11A
1040
0.0
1040
1.0
1000
MILD_STEEL
1000
0
1010
5.0
1020
5.0
1030
0.0
1010
0.0
1020
0.0
1030
1.0
1040
0.0
1002
}
  0
INSERT
  8
AME_FRZ
  5
57
  2
AME_NIL
 10
0.0
 20
0.0
 30
0.0
  0
INSERT
  8
AME_FRZ
  5
58
  2
AME_SOL
 10
0.0
 20
0.0
 30
0.0
1001
AME_SOL
1000
1.0
1000
sq cm
1070
     3
1070
     0
1070
     3
1000
wire
1040
0.0
1000
NONE
1040
1.0
1000
cm
1000
gm
1000
MILD_STEEL
1070
    25
1000
CSG
1070
     3
1070
     2
1070
     3
1000
cu cm
1070
     4
1070
     0
1005
57
  0
INSERT
  8
AME_FRZ
  5
11A
  2
*U10
 10
0.0
 20
0.0
 30
0.0
1001
AME_SOL
1002
{
1070
     0
1071
  1966208
1070
  1543
1070
     0
1005
15
1005
2D
1005
0
1005
0
1005
196
1040
0.0
1040
1.0
1000
MILD_STEEL
1000
0
1010
0.0
1020
0.0
1030
0.0
1010
0.0
1020
0.0
1030
1.0
1040
0.0
1002
}
  0
INSERT
  8
AME_FRZ
 62
     7
  5
163
  2
*U12
 10
5.0
 20
0.0
 30
5.0
1001
AME_SOL
1002
{
1070
     0
1071
  1967792
1070
  1536
1010
5.0
1020
10.0
1030
5.0
1005
0
1005
0
1005
196
1040
0.0
1040
1.0
1000
MILD_STEEL
1000
0
1010
5.0
1020
0.0
1030
5.0
1010
0.0
1020
0.0
1030
1.0
1040
0.0
1002
}
  0
INSERT
  8
0
  5
196
  2
*U13
 10
0.0
 20
0.0
 30
0.0
1001
AME_SOL
1002
{
1070
     0
1071
  1929240
1070
  1543
1070
     0
1005
11A
1005
163
1005
0
1005
197
1005
0
1040
0.0
1040
1.0
1000
MILD_STEEL
1000
0
1002
}
  0
INSERT
  8
AME_FRZ
  5
197
  2
AME_NIL
 10
1.0
 20
1.0
 30
1.0
1001
AME_SOL
1004
E903A9FB0100F0FFFFFF000052F709000100000066900ABB66900ABB66900ABBA9082041A9082041A908204101000000FBF20600C0F39F408DF5C3BAC0F39F401F0620411F0620413F0CA0400100844E187D1E00FFFF00000100CE000000844E0000000000000000803F000000000000803F000000000000
1004
00000000A040000000000000A04005000000000000000000000000000000000000000000844E0000000000000000803F000000000000803F00000000000000000000A040000000000000A040050000000000000000000000000000000000FFFFFFFFFBF20800C0F39F408DF5C3BAC0F39F403F0CA0401F06
1004
20411F0620410100844EA0471E00FFFF00000100CC000000844E000000000000000000000000803F000000000000803F000000000000A040000000000000A04005000000000000000000000000000000000000000000844E000000000000000000000000803F000000000000803F000000000000A0400000
1004
00000000A040050000000000000000000000000000000000FFFFFFFFFBF2060081E71F4081E71F408DF5C3BA3F0CF0403F0CF0401F0620410100EA4E68471E00FFFF0000010093010000EA4E00000000803F0000000000000000000000000000803F000000000000A0400000A04000000000050000002040
1004
00002040000000000000000000000000EA4E00000000803F0000000000000000000000000000803F000000000000A0400000A04000000000050000002040000020400000000000000000FFFFFFFF4DEA0F000000967500000000803F0000000000000000000000000000803F00000000A66281400EE9E940
1004
000000000200B3A382E0B3A38260000000000000000002000000B3A382E00000000000002041B3A3826001000000000000000000204102006DFEFFFF6DFEFFFF0100000000000000000020414DEA0E000000967500000000803F0000000000000000000000000000803F00000000EADC4E408C91D8400000
1004
00000200B3A382E0B3A38260000000000000000002000000B3A382E00000000000002041B3A3826001000000000000000000204102006DFEFFFF6DFEFFFF0100000000000000000020414DEA0D000000967500000000803F0000000000000000000000000000803F00000000E62D2C405D9DBE4000000000
1004
0200B3A382E0B3A38260000000000000000002000000B3A382E00000000000002041B3A3826001000000000000000000204102006DFEFFFF6DFEFFFF0100000000000000000020414DEA0C000000967500000000803F0000000000000000000000000000803F00000000000020400000A040000000000200
1004
B3A382E0B3A38260000000000000000002000000B3A382E00000000000002041B3A3826001000000000000000000204102006DFEFFFF6DFEFFFF0100000000000000000020414DEA0B000000967500000000803F0000000000000000000000000000803F00000000E42D2C40A5628140000000000200B3A3
1004
82E0B3A38260000000000000000002000000B3A382E00000000000002041B3A3826001000000000000000000204102006DFEFFFF6DFEFFFF0100000000000000000020414DEA0A000000967500000000803F0000000000000000000000000000803F00000000E7DC4E40E7DC4E40000000000200B3A382E0
1004
B3A38260000000000000000002000000B3A382E00000000000002041B3A3826001000000000000000000204102006DFEFFFF6DFEFFFF0100000000000000000020414DEA09000000967500000000803F0000000000000000000000000000803F00000000A4628140E52D2C40000000000200B3A382E0B3A3
1004
8260000000000000000002000000B3A382E00000000000002041B3A3826001000000000000000000204102006DFEFFFF6DFEFFFF0100000000000000000020414DEA08000000967500000000803F0000000000000000000000000000803F000000000000A04000002040000000000200B3A382E0B3A38260
1004
000000000000000002000000B3A382E00000000000002041B3A3826002000000000000000000A04002006DFEFFFF6DFEFFFF0000A0400000204102006DFEFFFF34FFFFFF02000000000000000000A0400000A040000020414DEA07000000967500000000803F0000000000000000000000000000803F0000
1004
00005A9DBE40E52D2C40000000000200B3A382E0B3A38260000000000000000002000000B3A382E0000000000000A040B3A3826001000000000000000000A04002006DFEFFFF6DFEFFFF01000000000000000000A0404DEA06000000967500000000803F0000000000000000000000000000803F00000000
1004
8B91D840E7DC4E40000000000200B3A382E0B3A38260000000000000000002000000B3A382E0000000000000A040B3A3826001000000000000000000A04002006DFEFFFF6DFEFFFF01000000000000000000A0404DEA05000000967500000000803F0000000000000000000000000000803F000000000EE9
1004
E940A4628140000000000200B3A382E0B3A38260000000000000000002000000B3A382E0000000000000A040B3A3826001000000000000000000A04002006DFEFFFF6DFEFFFF01000000000000000000A0404DEA04000000967500000000803F0000000000000000000000000000803F000000000000F040
1004
0000A040000000000200B3A382E0B3A38260000000000000000002000000B3A382E0000000000000A040B3A3826001000000000000000000A04002006DFEFFFF6DFEFFFF01000000000000000000A0404DEA03000000967500000000803F0000000000000000000000000000803F000000000EE9E9405C9D
1004
BE40000000000200B3A382E0B3A38260000000000000000002000000B3A382E0000000000000A040B3A3826001000000000000000000A04002006DFEFFFF6DFEFFFF01000000000000000000A0404DEA02000000967500000000803F0000000000000000000000000000803F000000008C91D8408C91D840
1004
000000000200B3A382E0B3A38260000000000000000002000000B3A382E0000000000000A040B3A3826001000000000000000000A04002006DFEFFFF6DFEFFFF01000000000000000000A0404DEA01000000967500000000803F0000000000000000000000000000803F000000005C9DBE400EE9E9400000
1004
00000200B3A382E0B3A38260000000000000000002000000B3A382E0000000000000A040B3A3826001000000000000000000A04002006DFEFFFF6DFEFFFF01000000000000000000A0404DEA00000000967500000000803F0000000000000000000000000000803F000000000000A0400000F04000000000
1004
0200B3A382E0B3A38260000000000000000002000000B3A382E00000000000002041B3A3826002000000000000000000A04002006DFEFFFF6DFEFFFF0000A04000002041020034FFFFFF6DFEFFFF02000000000000000000A0400000A04000002041FBF2050066900ABB66900ABB66900ABBA9082041A908
1004
204166900A3B0100844E30461E00010000000100FA010000844E0000000000000000803F000000000000803F000000000000000000000000000000000000000005000000000000000000000000000000000000000000844E0000000000000000803F000000000000803F0000000000000000000000000000
1004
00000000000005000000000000000000000000000000000001000000FBF2060066900ABB66900ABB66900ABBA908204166900A3BA90820410100844E788E1E00010000000100F9010000844E00000000803F000000000000000000000000000000000000803F000000000000000000000000050000000000
1004
00000000000000000000000000000000844E00000000803F000000000000000000000000000000000000803F00000000000000000000000005000000000000000000000000000000000001000000FBF2040066900ABB66900ABB66900ABB66900A3BA9082041A90820410100844E688F1E00010000000100
1004
F8010000844E000000000000000000000000803F000000000000803F0000000000000000000000000000000005000000000000000000000000000000000000000000844E000000000000000000000000803F000000000000803F000000000000000000000000000000000500000000000000000000000000
1004
0000000001000000FBF2070066900ABB66900ABB57F71F41A9082041A9082041A90820410100844E58901E00010000000100F7010000844E0000000080BF000000800000008000000080000080BF0000008000002041000020410000204105000000000000000000000000000000000000000000844E0000
1004
000080BF000000800000008000000080000080BF0000008000002041000020410000204105000000000000000000000000000000000001000000FBF2060066900ABB57F71F4166900ABBA9082041A9082041A90820410100844E48911E00010000000100F6010000844E00000000008000000080000080BF
1004
000080BF000000800000008000002041000020410000204105000000000000000000000000000000000000000000844E00000000008000000080000080BF000080BF000000800000008000002041000020410000204105000000000000000000000000000000000001000000FBF2040057F71F4166900ABB
1004
66900ABBA9082041A9082041A90820410100844E38921E00010000000100F5010000844E000000000080000080BF000000800000008000000080000080BF00002041000020410000204105000000000000000000000000000000000000000000844E000000000080000080BF000000800000008000000080
1004
000080BF00002041000020410000204105000000000000000000000000000000000001000000A4EEC0F39F408DF5C3BAC0F39F403F0CA0401F0620413F0CA040000020C10000F0C00200967590921E0000000100FFFF187D1E00A0471E0000000200A0471E00187D1E00FFFFFFFFFFFFFFFF967500000000
1004
80BF00000000000000000000000000000000000080BF0000A040000000000000A0400200000020C10000F0C0A4EEC0F39F408DF5C3BAC0F39F403F0CA0401F0620413F0CA040000020C0000000800200967580931E0000000100FFFF187D1E00A0471E0000000200A0471E00187D1E00FFFFFFFFFFFFFFFF
1004
96750000000080BF00000000000000000000000000000000000080BF0000A040000000000000A0400200000020C000000080A4EEC0F39F4081E71F40C0F39F403F0CF0403F0CF0403F0CA040DB0FC9BFDB0FC93F0200FC7570941E000000FFFF0100187D1E0068471E0000000200187D1E0068471E00FFFF
1004
FFFFFFFFFFFFFC7500000000803F0000000000000000000000000000803F000000000000A0400000A0400000A04004000000204000002040DB0FC9BFDB0FC93FA4EEC0F39F4057F71F41C0F39F401F0620411F0620413F0CA040000020C0000020400200967560951E0000000100FFFF187D1E0048911E00
1004
0000020048911E00187D1E0001000000FFFFFFFF96750000000000000000803F000000000000000000000000000080BF0000F040000020410000A0400200000020C000002040A4EE57F71F418DF5C3BAC0F39F401F0620411F0620413F0CA0400000A0C00000A0400200967550961E0000000100FFFF187D
1004
1E0038921E000000020038921E00187D1E0001000000FFFFFFFF967500000000803F00000000000000000000000000000000000080BF000020410000A0400000A04002000000A0C00000A040A4EEC0F39F408DF5C3BAC0F39F401F06204166900A3B3F0CA040000020400000F0400200967540971E000000
1004
0100FFFF187D1E00788E1E0000000200788E1E00187D1E0001000000FFFFFFFF9675000000000000000080BF000000000000000000000000000080BF00002040000000000000A0400200000020400000F040A4EEC0F39F4081E71F40C0F39F403F0CA0403F0CF0401F0620410000A0400000204102009675
1004
30981E000000FFFF0100A0471E0068471E0000000200A0471E0068471E00FFFFFFFFFFFFFFFF967500000000803F0000000000000000000000000000803F000000000000A0400000F0400000000002000000A04000002041A4EEC0F39F4081E71F40C0F39F403F0CA0403F0CF0401F0620410000A0400000
1004
20410200967520991E0000000100FFFFA0471E0068471E000000020068471E00A0471E00FFFFFFFFFFFFFFFF967500000000803F0000000000000000000000000000803F000000000000A040000020400000000002000000A04000002041A4EEC0F39F408DF5C3BA57F71F413F0CA0401F0620411F062041
1004
0000A0C0000020C002009675109A1E0000000100FFFFA0471E0058901E000000020058901E00A0471E0001000000FFFFFFFF9675000000000000000000000000803F000080BF00000000000000000000A0400000A0400000204102000000A0C0000020C0A4EEC0F39F408DF5C3BA57F71F413F0CA0401F06
1004
20411F062041000020400000A04002009675009B1E0000000100FFFFA0471E0058901E000000020058901E00A0471E0001000000FFFFFFFF9675000000000000000000000000803F000080BF00000000000000000000A0400000A040000020410200000020400000A040A4EEC0F39F4057F71F41C0F39F40
1004
3F0CA0401F0620411F062041000020C00000204002009675F09B1E0000000100FFFFA0471E0048911E000000020048911E00A0471E0001000000FFFFFFFF96750000000000000000803F00000000000080BF00000000000000000000A040000020410000F0400200000020C000002040A4EEC0F39F408DF5
1004
C3BAC0F39F403F0CA04066900A3B1F0620410000F0C0000020C002009675E09C1E0000000100FFFFA0471E00788E1E0000000200788E1E00A0471E0001000000FFFFFFFF9675000000000000000080BF00000000000080BF00000000000000000000A040000000000000204002000000F0C0000020C0A4EE
1004
81E71F4081E71F4057F71F413F0CF0403F0CF0401F062041DB0F49C0DB0FC9BF0200FC75D09D1E0000000100FFFF68471E0058901E000000020058901E0068471E0001000000FFFFFFFFFC7500000000803F0000000000000000000000000000803F000000000000A0400000A04000002041040000002040
1004
00002040DB0F49C0DB0FC9BFA4EE81E71F4081E71F4057F71F413F0CF0403F0CF0401F062041DB0FC93FDB0F49400200FC75C09E1E0000000100FFFF68471E0058901E000000020058901E0068471E0001000000FFFFFFFFFC7500000000803F0000000000000000000000000000803F000000000000A040
1004
0000A0400000204104000000204000002040DB0FC93FDB0F4940A4EE81E71F4081E71F408DF5C3BA3F0CF0403F0CF04066900A3BDB0F49C0DB0F49400200FC75B09F1E000000FFFF010068471E0030461E000000020068471E0030461E00FFFFFFFF01000000FC7500000000803F00000000000000000000
1004
00000000803F000000000000A0400000A0400000000004000000204000002040DB0F49C0DB0F4940A4EE66900ABB57F71F4166900ABBA9082041A908204166900A3B0000A0C00000A04002009675A0A01E000000FFFF010030461E0048911E000000020030461E0048911E00010000000100000096750000
1004
000000000000803F000000000000000000000000000080BF0000A040000020410000000002000000A0C00000A040A4EE57F71F4166900ABB66900ABBA9082041A908204166900A3B0000A0C00000A0400200967590A11E000000FFFF010030461E0038921E000000020030461E0038921E00010000000100
1004
0000967500000000803F00000000000000000000000000000000000080BF000020410000A0400000000002000000A0C00000A040A4EE66900ABB66900ABB66900ABB66900A3BA908204166900A3B000020C1000000800200967580A21E000000FFFF010030461E00688F1E000000020030461E00688F1E00
1004
010000000100000096750000000080BF00000000000000000000000000000000000080BF0000000000000000000000000200000020C100000080A4EE66900ABB66900ABB66900ABBA908204166900A3B66900A3B00000000000020410200967570A31E000000FFFF010030461E00788E1E00000002003046
1004
1E00788E1E0001000000010000009675000000000000000080BF000000000000000000000000000080BF00000000000000000000000002000000000000002041A4EE66900ABB66900ABB57F71F41A908204166900A3BA90820410000A0C0000000000200967560A41E000000FFFF0100788E1E0058901E00
1004
00000200788E1E0058901E0001000000010000009675000000000000000000000000803F00000000000080BF000000000000A040000000000000204102000000A0C000000000A4EE57F71F4166900ABB66900ABBA908204166900A3BA9082041000000800000A0400200967550A51E000000FFFF0100788E
1004
1E0038921E0000000200788E1E0038921E000100000001000000967500000000803F000000000000000000000000000080BF0000000000002041000000000000A0400200000000800000A040A4EE66900ABB66900ABB66900ABB66900A3B66900A3BA908204100000000000020410200967540A61E000000
1004
FFFF0100788E1E00688F1E0000000200788E1E00688F1E00010000000100000096750000000080BF000000000000000000000000000080BF0000000000000000000000000000000002000000000000002041A4EE66900ABB66900ABB57F71F4166900A3BA9082041A90820410000A0C00000A04002009675
1004
30A71E000000FFFF0100688F1E0058901E0000000200688F1E0058901E0001000000010000009675000000000000000000000000803F000080BF0000000000000000000000000000A0400000204102000000A0C00000A040A4EE66900ABB57F71F4166900ABB66900A3BA9082041A90820410000A0C00000
1004
A0400200967520A81E000000FFFF0100688F1E0048911E0000000200688F1E0048911E00010000000100000096750000000000000000803F00000000000080BF000000000000000000000000000020410000A04002000000A0C00000A040A4EE66900ABB57F71F4157F71F41A9082041A9082041A9082041
1004
000020C10000A0C00200967510A91E000000FFFF010058901E0048911E000000020058901E0048911E00010000000100000096750000000000000000803F0000000000000000000000000000803F0000204100002041000020410200000020C10000A0C0A4EE57F71F4157F71F4166900ABBA9082041A908
1004
2041A9082041000020C10000A0C00200967500AA1E000000FFFF010048911E0038921E000000020048911E0038921E000100000001000000967500000000803F0000000000000000000000000000803F000000000000204100002041000020410200000020C10000A0C019FC
1005
198
  0
INSERT
  8
AME_FRZ
  5
198
  2
AME_NIL
 10
1.0
 20
1.0
 30
1.0
1001
AME_SOL
1004

1005
0
  0
INSERT
  8
AME_FRZ
  5
199
  2
AME_MAT
 10
0.0
 20
0.0
 30
0.0
1001
AME_SOL
1000
MILD_STEEL
1040
7860.0
1040
220.0
1040
0.275
1040
207.0
1040
345.0
1040
56.0
1040
12.0
1040
0.46
  0
ENDSEC
  0
EOF
