  0
SECTION
  2
HEADER
  9
$ACADVER
  1
AC1009
  9
$INSBASE
 10
0.0
 20
0.0
 30
0.0
  9
$EXTMIN
 10
-2.0
 20
-2.0
 30
-2.0
  9
$EXTMAX
 10
6.0
 20
4.0
 30
10.0
  9
$LIMMIN
 10
0.0
 20
0.0
  9
$LIMMAX
 10
12.0
 20
9.0
  9
$ORTHOMODE
 70
     0
  9
$REGENMODE
 70
     1
  9
$FILLMODE
 70
     1
  9
$QTEXTMODE
 70
     0
  9
$MIRRTEXT
 70
     1
  9
$DRAGMODE
 70
     2
  9
$LTSCALE
 40
1.0
  9
$OSMODE
 70
     0
  9
$ATTMODE
 70
     1
  9
$TEXTSIZE
 40
0.2
  9
$TRACEWID
 40
0.05
  9
$TEXTSTYLE
  7
STANDARD
  9
$CLAYER
  8
0
  9
$CELTYPE
  6
BYLAYER
  9
$CECOLOR
 62
   256
  9
$DIMSCALE
 40
1.0
  9
$DIMASZ
 40
0.18
  9
$DIMEXO
 40
0.0625
  9
$DIMDLI
 40
0.38
  9
$DIMRND
 40
0.0
  9
$DIMDLE
 40
0.0
  9
$DIMEXE
 40
0.18
  9
$DIMTP
 40
0.0
  9
$DIMTM
 40
0.0
  9
$DIMTXT
 40
0.18
  9
$DIMCEN
 40
0.09
  9
$DIMTSZ
 40
0.0
  9
$DIMTOL
 70
     0
  9
$DIMLIM
 70
     0
  9
$DIMTIH
 70
     1
  9
$DIMTOH
 70
     1
  9
$DIMSE1
 70
     0
  9
$DIMSE2
 70
     0
  9
$DIMTAD
 70
     0
  9
$DIMZIN
 70
     0
  9
$DIMBLK
  1

  9
$DIMASO
 70
     1
  9
$DIMSHO
 70
     1
  9
$DIMPOST
  1

  9
$DIMAPOST
  1

  9
$DIMALT
 70
     0
  9
$DIMALTD
 70
     2
  9
$DIMALTF
 40
25.4
  9
$DIMLFAC
 40
1.0
  9
$DIMTOFL
 70
     0
  9
$DIMTVP
 40
0.0
  9
$DIMTIX
 70
     0
  9
$DIMSOXD
 70
     0
  9
$DIMSAH
 70
     0
  9
$DIMBLK1
  1

  9
$DIMBLK2
  1

  9
$DIMSTYLE
  2
*UNNAMED
  9
$DIMCLRD
 70
     0
  9
$DIMCLRE
 70
     0
  9
$DIMCLRT
 70
     0
  9
$DIMTFAC
 40
1.0
  9
$DIMGAP
 40
0.09
  9
$LUNITS
 70
     2
  9
$LUPREC
 70
     4
  9
$SKETCHINC
 40
0.1
  9
$FILLETRAD
 40
0.0
  9
$AUNITS
 70
     0
  9
$AUPREC
 70
     0
  9
$MENU
  1
acad
  9
$ELEVATION
 40
0.0
  9
$PELEVATION
 40
0.0
  9
$THICKNESS
 40
0.0
  9
$LIMCHECK
 70
     0
  9
$BLIPMODE
 70
     1
  9
$CHAMFERA
 40
0.0
  9
$CHAMFERB
 40
0.0
  9
$SKPOLY
 70
     0
  9
$TDCREATE
 40
2449622.518970115
  9
$TDUPDATE
 40
2449622.518970115
  9
$TDINDWG
 40
0.0000000000
  9
$TDUSRTIMER
 40
0.0000000000
  9
$USRTIMER
 70
     1
  9
$ANGBASE
 50
0.0
  9
$ANGDIR
 70
     0
  9
$PDMODE
 70
     0
  9
$PDSIZE
 40
0.0
  9
$PLINEWID
 40
0.0
  9
$COORDS
 70
     1
  9
$SPLFRAME
 70
     0
  9
$SPLINETYPE
 70
     6
  9
$SPLINESEGS
 70
     8
  9
$ATTDIA
 70
     0
  9
$ATTREQ
 70
     1
  9
$HANDLING
 70
     1
  9
$HANDSEED
  5
285
  9
$SURFTAB1
 70
     6
  9
$SURFTAB2
 70
     6
  9
$SURFTYPE
 70
     6
  9
$SURFU
 70
     6
  9
$SURFV
 70
     6
  9
$UCSNAME
  2

  9
$UCSORG
 10
0.0
 20
0.0
 30
0.0
  9
$UCSXDIR
 10
1.0
 20
0.0
 30
0.0
  9
$UCSYDIR
 10
0.0
 20
1.0
 30
0.0
  9
$PUCSNAME
  2

  9
$PUCSORG
 10
0.0
 20
0.0
 30
0.0
  9
$PUCSXDIR
 10
1.0
 20
0.0
 30
0.0
  9
$PUCSYDIR
 10
0.0
 20
1.0
 30
0.0
  9
$USERI1
 70
     0
  9
$USERI2
 70
     0
  9
$USERI3
 70
     0
  9
$USERI4
 70
     0
  9
$USERI5
 70
     0
  9
$USERR1
 40
0.0
  9
$USERR2
 40
0.0
  9
$USERR3
 40
0.0
  9
$USERR4
 40
0.0
  9
$USERR5
 40
0.0
  9
$WORLDVIEW
 70
     1
  9
$SHADEDGE
 70
     3
  9
$SHADEDIF
 70
    70
  9
$TILEMODE
 70
     1
  9
$MAXACTVP
 70
    16
  9
$PINSBASE
 10
0.0
 20
0.0
 30
0.0
  9
$PLIMCHECK
 70
     0
  9
$PEXTMIN
 10
1.000000E+20
 20
1.000000E+20
 30
1.000000E+20
  9
$PEXTMAX
 10
-1.000000E+20
 20
-1.000000E+20
 30
-1.000000E+20
  9
$PLIMMIN
 10
0.0
 20
0.0
  9
$PLIMMAX
 10
12.0
 20
9.0
  9
$UNITMODE
 70
     0
  9
$VISRETAIN
 70
     0
  9
$PLINEGEN
 70
     0
  9
$PSLTSCALE
 70
     1
  9
$TREEDEPTH
 70
  3020
  9
$DWGCODEPAGE
  3
iso8859-1
  0
ENDSEC
  0
SECTION
  2
TABLES
  0
TABLE
  2
VPORT
 70
     2
  0
VPORT
  2
*ACTIVE
 70
     0
 10
0.0
 20
0.0
 11
1.0
 21
1.0
 12
5.386386
 22
2.921187
 13
0.0
 23
0.0
 14
1.0
 24
1.0
 15
0.0
 25
0.0
 16
1.0
 26
2.0
 36
1.0
 17
0.0
 27
0.0
 37
0.0
 40
14.605935
 41
1.594883
 42
50.0
 43
0.0
 44
0.0
 50
0.0
 51
0.0
 71
     0
 72
   100
 73
     1
 74
     1
 75
     0
 76
     1
 77
     0
 78
     0
  0
ENDTAB
  0
TABLE
  2
LTYPE
 70
     1
  0
LTYPE
  2
CONTINUOUS
 70
    64
  3
Solid line
 72
    65
 73
     0
 40
0.0
  0
ENDTAB
  0
TABLE
  2
LAYER
 70
     2
  0
LAYER
  2
0
 70
    64
 62
     7
  6
CONTINUOUS
  0
LAYER
  2
AME_FRZ
 70
    65
 62
     7
  6
CONTINUOUS
  0
ENDTAB
  0
TABLE
  2
STYLE
 70
     1
  0
STYLE
  2
STANDARD
 70
     0
 40
0.0
 41
1.0
 50
0.0
 71
     0
 42
0.2
  3
txt
  4

  0
ENDTAB
  0
TABLE
  2
VIEW
 70
     0
  0
ENDTAB
  0
TABLE
  2
UCS
 70
     0
  0
ENDTAB
  0
TABLE
  2
APPID
 70
     3
  0
APPID
  2
ACAD
 70
    64
  0
APPID
  2
AME_SOL
 70
    64
  0
APPID
  2
AVE_INVOKE
 70
    64
  0
ENDTAB
  0
TABLE
  2
DIMSTYLE
 70
     0
  0
ENDTAB
  0
ENDSEC
  0
SECTION
  2
BLOCKS
  0
BLOCK
  8
0
  5
1
  2
AME_NIL
 70
    64
 10
0.0
 20
0.0
 30
0.0
  1
AME_NIL
  3
AME_NIL
  0
ENDBLK
  8
0
  5
2
  0
BLOCK
  8
0
  5
4
  2
AME_SOL
 70
    64
 10
0.0
 20
0.0
 30
0.0
  1
AME_SOL
  3
AME_SOL
  0
ENDBLK
  8
0
  5
5
  0
BLOCK
  8
0
  5
6C
  2
SOLAXES
 70
     0
 10
0.0
 20
0.0
 30
0.0
  1
SOLAXES
  3
SOLAXES
  0
LINE
  8
0
 62
     0
  5
6D
 10
0.0
 20
0.0
 30
0.0
 11
2.7
 21
0.0
 31
0.0
  0
LINE
  8
0
 62
     0
  5
6E
 10
0.0
 20
0.0
 30
0.0
 11
0.0
 21
2.7
 31
0.0
  0
LINE
  8
0
 62
     0
  5
6F
 10
0.0
 20
0.0
 30
0.0
 11
0.0
 21
0.0
 31
2.7
  0
CIRCLE
  8
0
 62
     0
  5
70
 10
0.0
 20
0.0
 30
2.43
 40
0.135
210
1.0
220
0.0
230
0.0
  0
LINE
  8
0
 62
     0
  5
71
 10
2.43
 20
0.135
 30
0.0
 11
2.7
 21
0.0
 31
0.0
  0
LINE
  8
0
 62
     0
  5
72
 10
2.43
 20
0.0
 30
0.135
 11
2.7
 21
0.0
 31
0.0
  0
LINE
  8
0
 62
     0
  5
73
 10
2.43
 20
-0.135
 30
0.0
 11
2.7
 21
0.0
 31
0.0
  0
LINE
  8
0
 62
     0
  5
74
 10
2.43
 20
0.0
 30
-0.135
 11
2.7
 21
0.0
 31
0.0
  0
CIRCLE
  8
0
 62
     0
  5
75
 10
0.0
 20
0.0
 30
2.43
 40
0.135
210
0.0
220
1.0
230
0.0
  0
LINE
  8
0
 62
     0
  5
76
 10
0.135
 20
2.43
 30
0.0
 11
0.0
 21
2.7
 31
0.0
  0
LINE
  8
0
 62
     0
  5
77
 10
0.0
 20
2.43
 30
0.135
 11
0.0
 21
2.7
 31
0.0
  0
LINE
  8
0
 62
     0
  5
78
 10
-0.135
 20
2.43
 30
0.0
 11
0.0
 21
2.7
 31
0.0
  0
LINE
  8
0
 62
     0
  5
79
 10
0.0
 20
2.43
 30
-0.135
 11
0.0
 21
2.7
 31
0.0
  0
CIRCLE
  8
0
 62
     0
  5
7A
 10
0.0
 20
0.0
 30
2.16
 40
0.135
210
0.0
220
1.0
230
0.0
  0
LINE
  8
0
 62
     0
  5
7B
 10
0.135
 20
2.16
 30
0.0
 11
0.0
 21
2.43
 31
0.0
  0
LINE
  8
0
 62
     0
  5
7C
 10
0.0
 20
2.16
 30
0.135
 11
0.0
 21
2.43
 31
0.0
  0
LINE
  8
0
 62
     0
  5
7D
 10
-0.135
 20
2.16
 30
0.0
 11
0.0
 21
2.43
 31
0.0
  0
LINE
  8
0
 62
     0
  5
7E
 10
0.0
 20
2.16
 30
-0.135
 11
0.0
 21
2.43
 31
0.0
  0
CIRCLE
  8
0
 62
     0
  5
7F
 10
0.0
 20
0.0
 30
2.43
 40
0.135
  0
LINE
  8
0
 62
     0
  5
80
 10
0.135
 20
0.0
 30
2.43
 11
0.0
 21
0.0
 31
2.7
  0
LINE
  8
0
 62
     0
  5
81
 10
0.0
 20
0.135
 30
2.43
 11
0.0
 21
0.0
 31
2.7
  0
LINE
  8
0
 62
     0
  5
82
 10
-0.135
 20
0.0
 30
2.43
 11
0.0
 21
0.0
 31
2.7
  0
LINE
  8
0
 62
     0
  5
83
 10
0.0
 20
-0.135
 30
2.43
 11
0.0
 21
0.0
 31
2.7
  0
CIRCLE
  8
0
 62
     0
  5
84
 10
0.0
 20
0.0
 30
2.16
 40
0.135
  0
LINE
  8
0
 62
     0
  5
85
 10
0.135
 20
0.0
 30
2.16
 11
0.0
 21
0.0
 31
2.43
  0
LINE
  8
0
 62
     0
  5
86
 10
0.0
 20
0.135
 30
2.16
 11
0.0
 21
0.0
 31
2.43
  0
LINE
  8
0
 62
     0
  5
87
 10
-0.135
 20
0.0
 30
2.16
 11
0.0
 21
0.0
 31
2.43
  0
LINE
  8
0
 62
     0
  5
88
 10
0.0
 20
-0.135
 30
2.16
 11
0.0
 21
0.0
 31
2.43
  0
CIRCLE
  8
0
 62
     0
  5
89
 10
0.0
 20
0.0
 30
1.89
 40
0.135
  0
LINE
  8
0
 62
     0
  5
8A
 10
0.135
 20
0.0
 30
1.89
 11
0.0
 21
0.0
 31
2.16
  0
LINE
  8
0
 62
     0
  5
8B
 10
0.0
 20
0.135
 30
1.89
 11
0.0
 21
0.0
 31
2.16
  0
LINE
  8
0
 62
     0
  5
8C
 10
-0.135
 20
0.0
 30
1.89
 11
0.0
 21
0.0
 31
2.16
  0
LINE
  8
0
 62
     0
  5
8D
 10
0.0
 20
-0.135
 30
1.89
 11
0.0
 21
0.0
 31
2.16
  0
ENDBLK
  8
0
  5
8E
  0
BLOCK
  8
0
  5
93
  2
*U7
 70
    65
 10
0.0
 20
0.0
 30
0.0
  1
*U
  3
*U
  0
LINE
  8
0
 62
     7
  5
94
 10
6.0
 20
3.0
 30
0.0
 11
6.0
 21
3.0
 31
8.0
1001
AME_SOL
1070
     1
1071
       44
  0
LINE
  8
0
 62
     7
  5
95
 10
6.0
 20
3.0
 30
8.0
 11
6.0
 21
0.0
 31
8.0
1001
AME_SOL
1070
     1
1071
       43
  0
LINE
  8
0
 62
     7
  5
96
 10
5.0
 20
3.0
 30
8.0
 11
6.0
 21
3.0
 31
8.0
1001
AME_SOL
1070
     1
1071
       42
  0
LINE
  8
0
 62
     7
  5
97
 10
0.0
 20
3.0
 30
8.0
 11
1.0
 21
3.0
 31
8.0
1001
AME_SOL
1070
     1
1071
       41
  0
LINE
  8
0
 62
     7
  5
98
 10
0.0
 20
3.0
 30
0.0
 11
0.0
 21
3.0
 31
8.0
1001
AME_SOL
1070
     1
1071
       40
  0
LINE
  8
0
 62
     7
  5
99
 10
0.0
 20
3.0
 30
8.0
 11
0.0
 21
0.0
 31
8.0
1001
AME_SOL
1070
     1
1071
       39
  0
LINE
  8
0
 62
     7
  5
9A
 10
0.0
 20
0.0
 30
0.0
 11
0.0
 21
0.0
 31
8.0
1001
AME_SOL
1070
     1
1071
       38
  0
LINE
  8
0
 62
     7
  5
9B
 10
6.0
 20
0.0
 30
8.0
 11
6.0
 21
0.0
 31
0.0
1001
AME_SOL
1070
     1
1071
       37
  0
LINE
  8
0
 62
     7
  5
9C
 10
0.0
 20
0.0
 30
8.0
 11
6.0
 21
0.0
 31
8.0
1001
AME_SOL
1070
     1
1071
       36
  0
LINE
  8
0
 62
     7
  5
9D
 10
0.0
 20
0.0
 30
0.0
 11
6.0
 21
0.0
 31
0.0
1001
AME_SOL
1070
     1
1071
       35
  0
LINE
  8
0
 62
     7
  5
9E
 10
0.0
 20
3.0
 30
0.0
 11
0.0
 21
0.0
 31
0.0
1001
AME_SOL
1070
     1
1071
       34
  0
LINE
  8
0
 62
     7
  5
9F
 10
6.0
 20
0.0
 30
0.0
 11
6.0
 21
3.0
 31
0.0
1001
AME_SOL
1070
     1
1071
       33
  0
LINE
  8
0
 62
     7
  5
A0
 10
2.0
 20
3.0
 30
0.0
 11
0.0
 21
3.0
 31
0.0
1001
AME_SOL
1070
     1
1071
       32
  0
LINE
  8
0
 62
     7
  5
A1
 10
6.0
 20
3.0
 30
0.0
 11
4.0
 21
3.0
 31
0.0
1001
AME_SOL
1070
     1
1071
       31
  0
ARC
  8
0
 62
     7
  5
A2
 10
3.0
 20
3.0
 30
0.0
 40
1.0
 50
180.0
 51
0.0
1001
AME_SOL
1070
     1
1071
       30
  0
LINE
  8
0
 62
     7
  5
A3
 10
4.0
 20
3.0
 30
0.0
 11
4.0
 21
3.0
 31
6.267949
1001
AME_SOL
1070
     1
1071
       29
  0
LINE
  8
0
 62
     7
  5
A4
 10
2.0
 20
3.0
 30
0.0
 11
2.0
 21
3.0
 31
6.267949
1001
AME_SOL
1070
     1
1071
       28
  0
CIRCLE
  8
0
 62
     7
  5
A5
 10
2.0
 20
6.0
 30
0.0
 40
0.25
210
1.0
220
0.0
230
0.0000000000000001
1001
AME_SOL
1070
     1
1071
       27
  0
CIRCLE
  8
0
 62
     7
  5
A6
 10
2.0
 20
6.0
 30
6.0
 40
0.25
210
1.0
220
0.0
230
0.0000000000000001
1001
AME_SOL
1070
     1
1071
       26
  0
POLYLINE
  8
0
 62
     7
  5
A7
 66
     1
 10
0.0
 20
0.0
 30
0.0
 70
     8
  0
VERTEX
  8
0
 62
     7
  5
A8
 10
3.635091
 20
2.227563
 30
6.103514
 70
    32
  0
VERTEX
  8
0
 62
     7
  5
A9
 10
3.63566
 20
2.228031
 30
6.102479
 70
    32
  0
VERTEX
  8
0
 62
     7
  5
AA
 10
3.636228
 20
2.228499
 30
6.101431
 70
    32
  0
VERTEX
  8
0
 62
     7
  5
AB
 10
3.636796
 20
2.228968
 30
6.100368
 70
    32
  0
VERTEX
  8
0
 62
     7
  5
AC
 10
3.637364
 20
2.229437
 30
6.099291
 70
    32
  0
VERTEX
  8
0
 62
     7
  5
AD
 10
3.637931
 20
2.229906
 30
6.098199
 70
    32
  0
VERTEX
  8
0
 62
     7
  5
AE
 10
3.638498
 20
2.230376
 30
6.097092
 70
    32
  0
VERTEX
  8
0
 62
     7
  5
AF
 10
3.639064
 20
2.230847
 30
6.095968
 70
    32
  0
VERTEX
  8
0
 62
     7
  5
B0
 10
3.63963
 20
2.231317
 30
6.094828
 70
    32
  0
VERTEX
  8
0
 62
     7
  5
B1
 10
3.640196
 20
2.231789
 30
6.09367
 70
    32
  0
VERTEX
  8
0
 62
     7
  5
B2
 10
3.640762
 20
2.23226
 30
6.092494
 70
    32
  0
VERTEX
  8
0
 62
     7
  5
B3
 10
3.641327
 20
2.232732
 30
6.0913
 70
    32
  0
VERTEX
  8
0
 62
     7
  5
B4
 10
3.641892
 20
2.233205
 30
6.090087
 70
    32
  0
VERTEX
  8
0
 62
     7
  5
B5
 10
3.642456
 20
2.233677
 30
6.088853
 70
    32
  0
VERTEX
  8
0
 62
     7
  5
B6
 10
3.64302
 20
2.234151
 30
6.087598
 70
    32
  0
VERTEX
  8
0
 62
     7
  5
B7
 10
3.643584
 20
2.234624
 30
6.086321
 70
    32
  0
VERTEX
  8
0
 62
     7
  5
B8
 10
3.644147
 20
2.235099
 30
6.085022
 70
    32
  0
VERTEX
  8
0
 62
     7
  5
B9
 10
3.64471
 20
2.235573
 30
6.083698
 70
    32
  0
VERTEX
  8
0
 62
     7
  5
BA
 10
3.645273
 20
2.236048
 30
6.082349
 70
    32
  0
VERTEX
  8
0
 62
     7
  5
BB
 10
3.645835
 20
2.236523
 30
6.080974
 70
    32
  0
VERTEX
  8
0
 62
     7
  5
BC
 10
3.646397
 20
2.236999
 30
6.07957
 70
    32
  0
VERTEX
  8
0
 62
     7
  5
BD
 10
3.646959
 20
2.237475
 30
6.078138
 70
    32
  0
VERTEX
  8
0
 62
     7
  5
BE
 10
3.64752
 20
2.237952
 30
6.076674
 70
    32
  0
VERTEX
  8
0
 62
     7
  5
BF
 10
3.648081
 20
2.238429
 30
6.075178
 70
    32
  0
VERTEX
  8
0
 62
     7
  5
C0
 10
3.648642
 20
2.238906
 30
6.073647
 70
    32
  0
VERTEX
  8
0
 62
     7
  5
C1
 10
3.649202
 20
2.239384
 30
6.072078
 70
    32
  0
VERTEX
  8
0
 62
     7
  5
C2
 10
3.649762
 20
2.239862
 30
6.070471
 70
    32
  0
VERTEX
  8
0
 62
     7
  5
C3
 10
3.650322
 20
2.240341
 30
6.06882
 70
    32
  0
VERTEX
  8
0
 62
     7
  5
C4
 10
3.650881
 20
2.24082
 30
6.067125
 70
    32
  0
VERTEX
  8
0
 62
     7
  5
C5
 10
3.65144
 20
2.241299
 30
6.06538
 70
    32
  0
VERTEX
  8
0
 62
     7
  5
C6
 10
3.651998
 20
2.241779
 30
6.063583
 70
    32
  0
VERTEX
  8
0
 62
     7
  5
C7
 10
3.652556
 20
2.24226
 30
6.061727
 70
    32
  0
VERTEX
  8
0
 62
     7
  5
C8
 10
3.653114
 20
2.24274
 30
6.059809
 70
    32
  0
VERTEX
  8
0
 62
     7
  5
C9
 10
3.653671
 20
2.243221
 30
6.057822
 70
    32
  0
VERTEX
  8
0
 62
     7
  5
CA
 10
3.654228
 20
2.243703
 30
6.055757
 70
    32
  0
VERTEX
  8
0
 62
     7
  5
CB
 10
3.654785
 20
2.244185
 30
6.053607
 70
    32
  0
VERTEX
  8
0
 62
     7
  5
CC
 10
3.655341
 20
2.244667
 30
6.051361
 70
    32
  0
VERTEX
  8
0
 62
     7
  5
CD
 10
3.655897
 20
2.24515
 30
6.049005
 70
    32
  0
VERTEX
  8
0
 62
     7
  5
CE
 10
3.656453
 20
2.245633
 30
6.046523
 70
    32
  0
VERTEX
  8
0
 62
     7
  5
CF
 10
3.657008
 20
2.246117
 30
6.043893
 70
    32
  0
VERTEX
  8
0
 62
     7
  5
D0
 10
3.657563
 20
2.246601
 30
6.041086
 70
    32
  0
VERTEX
  8
0
 62
     7
  5
D1
 10
3.658118
 20
2.247085
 30
6.038065
 70
    32
  0
VERTEX
  8
0
 62
     7
  5
D2
 10
3.658672
 20
2.24757
 30
6.034773
 70
    32
  0
VERTEX
  8
0
 62
     7
  5
D3
 10
3.659226
 20
2.248055
 30
6.031123
 70
    32
  0
VERTEX
  8
0
 62
     7
  5
D4
 10
3.659779
 20
2.248541
 30
6.026972
 70
    32
  0
VERTEX
  8
0
 62
     7
  5
D5
 10
3.660333
 20
2.249027
 30
6.022038
 70
    32
  0
VERTEX
  8
0
 62
     7
  5
D6
 10
3.660885
 20
2.249513
 30
6.015594
 70
    32
  0
VERTEX
  8
0
 62
     7
  5
D7
 10
3.661438
 20
2.25
 30
6.0
 70
    32
  0
SEQEND
  8
0
 62
     7
  5
D8
1001
AME_SOL
1070
     1
1071
       25
  0
POLYLINE
  8
0
 62
     7
  5
D9
 66
     1
 10
0.0
 20
0.0
 30
0.0
 70
     8
  0
VERTEX
  8
0
 62
     7
  5
DA
 10
2.338562
 20
2.25
 30
6.0
 70
    32
  0
VERTEX
  8
0
 62
     7
  5
DB
 10
2.339115
 20
2.249513
 30
6.015594
 70
    32
  0
VERTEX
  8
0
 62
     7
  5
DC
 10
2.339667
 20
2.249027
 30
6.022038
 70
    32
  0
VERTEX
  8
0
 62
     7
  5
DD
 10
2.340221
 20
2.248541
 30
6.026972
 70
    32
  0
VERTEX
  8
0
 62
     7
  5
DE
 10
2.340774
 20
2.248055
 30
6.031123
 70
    32
  0
VERTEX
  8
0
 62
     7
  5
DF
 10
2.341328
 20
2.24757
 30
6.034773
 70
    32
  0
VERTEX
  8
0
 62
     7
  5
E0
 10
2.341882
 20
2.247085
 30
6.038065
 70
    32
  0
VERTEX
  8
0
 62
     7
  5
E1
 10
2.342437
 20
2.246601
 30
6.041086
 70
    32
  0
VERTEX
  8
0
 62
     7
  5
E2
 10
2.342992
 20
2.246117
 30
6.043893
 70
    32
  0
VERTEX
  8
0
 62
     7
  5
E3
 10
2.343547
 20
2.245633
 30
6.046523
 70
    32
  0
VERTEX
  8
0
 62
     7
  5
E4
 10
2.344103
 20
2.24515
 30
6.049005
 70
    32
  0
VERTEX
  8
0
 62
     7
  5
E5
 10
2.344659
 20
2.244667
 30
6.051361
 70
    32
  0
VERTEX
  8
0
 62
     7
  5
E6
 10
2.345215
 20
2.244185
 30
6.053607
 70
    32
  0
VERTEX
  8
0
 62
     7
  5
E7
 10
2.345772
 20
2.243703
 30
6.055757
 70
    32
  0
VERTEX
  8
0
 62
     7
  5
E8
 10
2.346329
 20
2.243221
 30
6.057822
 70
    32
  0
VERTEX
  8
0
 62
     7
  5
E9
 10
2.346886
 20
2.24274
 30
6.059809
 70
    32
  0
VERTEX
  8
0
 62
     7
  5
EA
 10
2.347444
 20
2.24226
 30
6.061727
 70
    32
  0
VERTEX
  8
0
 62
     7
  5
EB
 10
2.348002
 20
2.241779
 30
6.063583
 70
    32
  0
VERTEX
  8
0
 62
     7
  5
EC
 10
2.34856
 20
2.241299
 30
6.06538
 70
    32
  0
VERTEX
  8
0
 62
     7
  5
ED
 10
2.349119
 20
2.24082
 30
6.067125
 70
    32
  0
VERTEX
  8
0
 62
     7
  5
EE
 10
2.349678
 20
2.240341
 30
6.06882
 70
    32
  0
VERTEX
  8
0
 62
     7
  5
EF
 10
2.350238
 20
2.239862
 30
6.070471
 70
    32
  0
VERTEX
  8
0
 62
     7
  5
F0
 10
2.350798
 20
2.239384
 30
6.072078
 70
    32
  0
VERTEX
  8
0
 62
     7
  5
F1
 10
2.351358
 20
2.238906
 30
6.073647
 70
    32
  0
VERTEX
  8
0
 62
     7
  5
F2
 10
2.351919
 20
2.238429
 30
6.075178
 70
    32
  0
VERTEX
  8
0
 62
     7
  5
F3
 10
2.35248
 20
2.237952
 30
6.076674
 70
    32
  0
VERTEX
  8
0
 62
     7
  5
F4
 10
2.353041
 20
2.237475
 30
6.078138
 70
    32
  0
VERTEX
  8
0
 62
     7
  5
F5
 10
2.353603
 20
2.236999
 30
6.07957
 70
    32
  0
VERTEX
  8
0
 62
     7
  5
F6
 10
2.354165
 20
2.236523
 30
6.080974
 70
    32
  0
VERTEX
  8
0
 62
     7
  5
F7
 10
2.354727
 20
2.236048
 30
6.082349
 70
    32
  0
VERTEX
  8
0
 62
     7
  5
F8
 10
2.35529
 20
2.235573
 30
6.083698
 70
    32
  0
VERTEX
  8
0
 62
     7
  5
F9
 10
2.355853
 20
2.235099
 30
6.085022
 70
    32
  0
VERTEX
  8
0
 62
     7
  5
FA
 10
2.356416
 20
2.234624
 30
6.086321
 70
    32
  0
VERTEX
  8
0
 62
     7
  5
FB
 10
2.35698
 20
2.234151
 30
6.087598
 70
    32
  0
VERTEX
  8
0
 62
     7
  5
FC
 10
2.357544
 20
2.233677
 30
6.088853
 70
    32
  0
VERTEX
  8
0
 62
     7
  5
FD
 10
2.358108
 20
2.233205
 30
6.090087
 70
    32
  0
VERTEX
  8
0
 62
     7
  5
FE
 10
2.358673
 20
2.232732
 30
6.0913
 70
    32
  0
VERTEX
  8
0
 62
     7
  5
FF
 10
2.359238
 20
2.23226
 30
6.092494
 70
    32
  0
VERTEX
  8
0
 62
     7
  5
100
 10
2.359804
 20
2.231789
 30
6.09367
 70
    32
  0
VERTEX
  8
0
 62
     7
  5
101
 10
2.36037
 20
2.231317
 30
6.094828
 70
    32
  0
VERTEX
  8
0
 62
     7
  5
102
 10
2.360936
 20
2.230847
 30
6.095968
 70
    32
  0
VERTEX
  8
0
 62
     7
  5
103
 10
2.361502
 20
2.230376
 30
6.097092
 70
    32
  0
VERTEX
  8
0
 62
     7
  5
104
 10
2.362069
 20
2.229906
 30
6.098199
 70
    32
  0
VERTEX
  8
0
 62
     7
  5
105
 10
2.362636
 20
2.229437
 30
6.099291
 70
    32
  0
VERTEX
  8
0
 62
     7
  5
106
 10
2.363204
 20
2.228968
 30
6.100368
 70
    32
  0
VERTEX
  8
0
 62
     7
  5
107
 10
2.363772
 20
2.228499
 30
6.101431
 70
    32
  0
VERTEX
  8
0
 62
     7
  5
108
 10
2.364909
 20
2.227563
 30
6.103514
 70
    32
  0
SEQEND
  8
0
 62
     7
  5
109
1001
AME_SOL
1070
     1
1071
       24
  0
POLYLINE
  8
0
 62
     7
  5
10A
 66
     1
 10
0.0
 20
0.0
 30
0.0
 70
     8
  0
VERTEX
  8
0
 62
     7
  5
10B
 10
2.338562
 20
2.25
 30
6.0
 70
    32
  0
VERTEX
  8
0
 62
     7
  5
10C
 10
2.350173
 20
2.239918
 30
5.929719
 70
    32
  0
VERTEX
  8
0
 62
     7
  5
10D
 10
2.361937
 20
2.230016
 30
5.902057
 70
    32
  0
VERTEX
  8
0
 62
     7
  5
10E
 10
2.385916
 20
2.210759
 30
5.865536
 70
    32
  0
VERTEX
  8
0
 62
     7
  5
10F
 10
2.410475
 20
2.19225
 30
5.840187
 70
    32
  0
VERTEX
  8
0
 62
     7
  5
110
 10
2.435592
 20
2.174504
 30
5.820979
 70
    32
  0
VERTEX
  8
0
 62
     7
  5
111
 10
2.461243
 20
2.157539
 30
5.805883
 70
    32
  0
VERTEX
  8
0
 62
     7
  5
112
 10
2.487403
 20
2.141371
 30
5.79381
 70
    32
  0
VERTEX
  8
0
 62
     7
  5
113
 10
2.514048
 20
2.126014
 30
5.784082
 70
    32
  0
VERTEX
  8
0
 62
     7
  5
114
 10
2.541153
 20
2.111485
 30
5.776234
 70
    32
  0
VERTEX
  8
0
 62
     7
  5
115
 10
2.568692
 20
2.097795
 30
5.769922
 70
    32
  0
VERTEX
  8
0
 62
     7
  5
116
 10
2.596638
 20
2.084959
 30
5.764879
 70
    32
  0
VERTEX
  8
0
 62
     7
  5
117
 10
2.624966
 20
2.072989
 30
5.760892
 70
    32
  0
VERTEX
  8
0
 62
     7
  5
118
 10
2.653649
 20
2.061895
 30
5.757783
 70
    32
  0
VERTEX
  8
0
 62
     7
  5
119
 10
2.682659
 20
2.051688
 30
5.755402
 70
    32
  0
VERTEX
  8
0
 62
     7
  5
11A
 10
2.71197
 20
2.042379
 30
5.753618
 70
    32
  0
VERTEX
  8
0
 62
     7
  5
11B
 10
2.741553
 20
2.033975
 30
5.752319
 70
    32
  0
VERTEX
  8
0
 62
     7
  5
11C
 10
2.77138
 20
2.026484
 30
5.751407
 70
    32
  0
VERTEX
  8
0
 62
     7
  5
11D
 10
2.801424
 20
2.019915
 30
5.750794
 70
    32
  0
VERTEX
  8
0
 62
     7
  5
11E
 10
2.831655
 20
2.014272
 30
5.750408
 70
    32
  0
VERTEX
  8
0
 62
     7
  5
11F
 10
2.862045
 20
2.009561
 30
5.750183
 70
    32
  0
VERTEX
  8
0
 62
     7
  5
120
 10
2.892566
 20
2.005788
 30
5.750067
 70
    32
  0
VERTEX
  8
0
 62
     7
  5
121
 10
2.923189
 20
2.002954
 30
5.750017
 70
    32
  0
VERTEX
  8
0
 62
     7
  5
122
 10
2.953884
 20
2.001064
 30
5.750002
 70
    32
  0
VERTEX
  8
0
 62
     7
  5
123
 10
2.984623
 20
2.000118
 30
5.75
 70
    32
  0
VERTEX
  8
0
 62
     7
  5
124
 10
3.015377
 20
2.000118
 30
5.75
 70
    32
  0
VERTEX
  8
0
 62
     7
  5
125
 10
3.046116
 20
2.001064
 30
5.750002
 70
    32
  0
VERTEX
  8
0
 62
     7
  5
126
 10
3.076811
 20
2.002954
 30
5.750017
 70
    32
  0
VERTEX
  8
0
 62
     7
  5
127
 10
3.107434
 20
2.005788
 30
5.750067
 70
    32
  0
VERTEX
  8
0
 62
     7
  5
128
 10
3.137955
 20
2.009561
 30
5.750183
 70
    32
  0
VERTEX
  8
0
 62
     7
  5
129
 10
3.168345
 20
2.014272
 30
5.750408
 70
    32
  0
VERTEX
  8
0
 62
     7
  5
12A
 10
3.198576
 20
2.019915
 30
5.750794
 70
    32
  0
VERTEX
  8
0
 62
     7
  5
12B
 10
3.22862
 20
2.026484
 30
5.751407
 70
    32
  0
VERTEX
  8
0
 62
     7
  5
12C
 10
3.258447
 20
2.033975
 30
5.752319
 70
    32
  0
VERTEX
  8
0
 62
     7
  5
12D
 10
3.28803
 20
2.042379
 30
5.753618
 70
    32
  0
VERTEX
  8
0
 62
     7
  5
12E
 10
3.317341
 20
2.051688
 30
5.755402
 70
    32
  0
VERTEX
  8
0
 62
     7
  5
12F
 10
3.346351
 20
2.061895
 30
5.757783
 70
    32
  0
VERTEX
  8
0
 62
     7
  5
130
 10
3.375034
 20
2.072989
 30
5.760892
 70
    32
  0
VERTEX
  8
0
 62
     7
  5
131
 10
3.403362
 20
2.084959
 30
5.764879
 70
    32
  0
VERTEX
  8
0
 62
     7
  5
132
 10
3.431308
 20
2.097795
 30
5.769922
 70
    32
  0
VERTEX
  8
0
 62
     7
  5
133
 10
3.458847
 20
2.111485
 30
5.776234
 70
    32
  0
VERTEX
  8
0
 62
     7
  5
134
 10
3.485952
 20
2.126014
 30
5.784082
 70
    32
  0
VERTEX
  8
0
 62
     7
  5
135
 10
3.512597
 20
2.141371
 30
5.79381
 70
    32
  0
VERTEX
  8
0
 62
     7
  5
136
 10
3.538757
 20
2.157539
 30
5.805883
 70
    32
  0
VERTEX
  8
0
 62
     7
  5
137
 10
3.564408
 20
2.174504
 30
5.820979
 70
    32
  0
VERTEX
  8
0
 62
     7
  5
138
 10
3.589525
 20
2.19225
 30
5.840187
 70
    32
  0
VERTEX
  8
0
 62
     7
  5
139
 10
3.614084
 20
2.210759
 30
5.865536
 70
    32
  0
VERTEX
  8
0
 62
     7
  5
13A
 10
3.638063
 20
2.230016
 30
5.902057
 70
    32
  0
VERTEX
  8
0
 62
     7
  5
13B
 10
3.649827
 20
2.239918
 30
5.929719
 70
    32
  0
VERTEX
  8
0
 62
     7
  5
13C
 10
3.661438
 20
2.25
 30
6.0
 70
    32
  0
SEQEND
  8
0
 62
     7
  5
13D
1001
AME_SOL
1070
     1
1071
       23
  0
LINE
  8
0
 62
     7
  5
13E
 10
1.0
 20
1.0
 30
8.0
 11
5.0
 21
1.0
 31
8.0
1001
AME_SOL
1070
     1
1071
       22
  0
ARC
  8
0
 62
     7
  5
13F
 10
3.0
 20
8.0
 30
-1.0
 40
2.0
 50
180.0
 51
0.0
210
0.0
220
-1.0
230
0.0000000000000001
1001
AME_SOL
1070
     1
1071
       21
  0
ARC
  8
0
 62
     7
  5
140
 10
3.0
 20
8.0
 30
-3.0
 40
2.0
 50
300.0
 51
0.0
210
0.0
220
-1.0
230
0.0000000000000001
1001
AME_SOL
1070
     1
1071
       20
  0
ARC
  8
0
 62
     7
  5
141
 10
3.0
 20
8.0
 30
-3.0
 40
2.0
 50
180.0
 51
240.0
210
0.0
220
-1.0
230
0.0000000000000001
1001
AME_SOL
1070
     1
1071
       19
  0
LINE
  8
0
 62
     7
  5
142
 10
5.0
 20
3.0
 30
8.0
 11
5.0
 21
1.0
 31
8.0
1001
AME_SOL
1070
     1
1071
       18
  0
LINE
  8
0
 62
     7
  5
143
 10
1.0
 20
3.0
 30
8.0
 11
1.0
 21
1.0
 31
8.0
1001
AME_SOL
1070
     1
1071
       17
  0
POLYLINE
  8
0
 62
     7
  5
144
 66
     1
 10
0.0
 20
0.0
 30
0.0
 70
     8
  0
VERTEX
  8
0
 62
     7
  5
145
 10
3.635091
 20
2.227563
 30
6.103514
 70
    32
  0
VERTEX
  8
0
 62
     7
  5
146
 10
3.649485
 20
2.239626
 30
6.108395
 70
    32
  0
VERTEX
  8
0
 62
     7
  5
147
 10
3.66365
 20
2.251956
 30
6.113318
 70
    32
  0
VERTEX
  8
0
 62
     7
  5
148
 10
3.67758
 20
2.264551
 30
6.118276
 70
    32
  0
VERTEX
  8
0
 62
     7
  5
149
 10
3.691272
 20
2.277405
 30
6.123263
 70
    32
  0
VERTEX
  8
0
 62
     7
  5
14A
 10
3.704719
 20
2.290514
 30
6.128271
 70
    32
  0
VERTEX
  8
0
 62
     7
  5
14B
 10
3.717919
 20
2.303873
 30
6.133294
 70
    32
  0
VERTEX
  8
0
 62
     7
  5
14C
 10
3.730865
 20
2.317478
 30
6.138324
 70
    32
  0
VERTEX
  8
0
 62
     7
  5
14D
 10
3.743553
 20
2.331323
 30
6.143355
 70
    32
  0
VERTEX
  8
0
 62
     7
  5
14E
 10
3.755979
 20
2.345404
 30
6.14838
 70
    32
  0
VERTEX
  8
0
 62
     7
  5
14F
 10
3.768138
 20
2.359716
 30
6.153391
 70
    32
  0
VERTEX
  8
0
 62
     7
  5
150
 10
3.780027
 20
2.374254
 30
6.158382
 70
    32
  0
VERTEX
  8
0
 62
     7
  5
151
 10
3.79164
 20
2.389013
 30
6.163344
 70
    32
  0
VERTEX
  8
0
 62
     7
  5
152
 10
3.802975
 20
2.403987
 30
6.168271
 70
    32
  0
VERTEX
  8
0
 62
     7
  5
153
 10
3.814026
 20
2.419171
 30
6.173155
 70
    32
  0
VERTEX
  8
0
 62
     7
  5
154
 10
3.824789
 20
2.43456
 30
6.177989
 70
    32
  0
VERTEX
  8
0
 62
     7
  5
155
 10
3.835262
 20
2.450149
 30
6.182767
 70
    32
  0
VERTEX
  8
0
 62
     7
  5
156
 10
3.845441
 20
2.465931
 30
6.18748
 70
    32
  0
VERTEX
  8
0
 62
     7
  5
157
 10
3.855321
 20
2.481902
 30
6.192121
 70
    32
  0
VERTEX
  8
0
 62
     7
  5
158
 10
3.8649
 20
2.498055
 30
6.196684
 70
    32
  0
VERTEX
  8
0
 62
     7
  5
159
 10
3.874173
 20
2.514386
 30
6.201161
 70
    32
  0
VERTEX
  8
0
 62
     7
  5
15A
 10
3.883139
 20
2.530888
 30
6.205546
 70
    32
  0
VERTEX
  8
0
 62
     7
  5
15B
 10
3.891792
 20
2.547555
 30
6.209831
 70
    32
  0
VERTEX
  8
0
 62
     7
  5
15C
 10
3.900132
 20
2.564382
 30
6.214009
 70
    32
  0
VERTEX
  8
0
 62
     7
  5
15D
 10
3.908153
 20
2.581362
 30
6.218075
 70
    32
  0
VERTEX
  8
0
 62
     7
  5
15E
 10
3.915855
 20
2.59849
 30
6.222021
 70
    32
  0
VERTEX
  8
0
 62
     7
  5
15F
 10
3.923233
 20
2.61576
 30
6.225841
 70
    32
  0
VERTEX
  8
0
 62
     7
  5
160
 10
3.930286
 20
2.633165
 30
6.229529
 70
    32
  0
VERTEX
  8
0
 62
     7
  5
161
 10
3.937011
 20
2.6507
 30
6.233079
 70
    32
  0
VERTEX
  8
0
 62
     7
  5
162
 10
3.943405
 20
2.668358
 30
6.236485
 70
    32
  0
VERTEX
  8
0
 62
     7
  5
163
 10
3.949467
 20
2.686133
 30
6.239741
 70
    32
  0
VERTEX
  8
0
 62
     7
  5
164
 10
3.955194
 20
2.704018
 30
6.242842
 70
    32
  0
VERTEX
  8
0
 62
     7
  5
165
 10
3.960583
 20
2.722008
 30
6.245782
 70
    32
  0
VERTEX
  8
0
 62
     7
  5
166
 10
3.965634
 20
2.740096
 30
6.248558
 70
    32
  0
VERTEX
  8
0
 62
     7
  5
167
 10
3.970345
 20
2.758275
 30
6.251163
 70
    32
  0
VERTEX
  8
0
 62
     7
  5
168
 10
3.974713
 20
2.77654
 30
6.253594
 70
    32
  0
VERTEX
  8
0
 62
     7
  5
169
 10
3.978738
 20
2.794884
 30
6.255846
 70
    32
  0
VERTEX
  8
0
 62
     7
  5
16A
 10
3.982417
 20
2.8133
 30
6.257916
 70
    32
  0
VERTEX
  8
0
 62
     7
  5
16B
 10
3.98575
 20
2.831782
 30
6.2598
 70
    32
  0
VERTEX
  8
0
 62
     7
  5
16C
 10
3.988735
 20
2.850323
 30
6.261494
 70
    32
  0
VERTEX
  8
0
 62
     7
  5
16D
 10
3.991371
 20
2.868917
 30
6.262996
 70
    32
  0
VERTEX
  8
0
 62
     7
  5
16E
 10
3.993658
 20
2.887557
 30
6.264303
 70
    32
  0
VERTEX
  8
0
 62
     7
  5
16F
 10
3.995595
 20
2.906237
 30
6.265413
 70
    32
  0
VERTEX
  8
0
 62
     7
  5
170
 10
3.99718
 20
2.92495
 30
6.266324
 70
    32
  0
VERTEX
  8
0
 62
     7
  5
171
 10
3.998413
 20
2.943689
 30
6.267034
 70
    32
  0
VERTEX
  8
0
 62
     7
  5
172
 10
3.999295
 20
2.962448
 30
6.267542
 70
    32
  0
VERTEX
  8
0
 62
     7
  5
173
 10
4.0
 20
3.0
 30
6.267949
 70
    32
  0
SEQEND
  8
0
 62
     7
  5
174
1001
AME_SOL
1070
     1
1071
       16
  0
POLYLINE
  8
0
 62
     7
  5
175
 66
     1
 10
0.0
 20
0.0
 30
0.0
 70
     8
  0
VERTEX
  8
0
 62
     7
  5
176
 10
2.0
 20
3.0
 30
6.267949
 70
    32
  0
VERTEX
  8
0
 62
     7
  5
177
 10
2.000176
 20
2.981221
 30
6.267847
 70
    32
  0
VERTEX
  8
0
 62
     7
  5
178
 10
2.000705
 20
2.962448
 30
6.267542
 70
    32
  0
VERTEX
  8
0
 62
     7
  5
179
 10
2.001587
 20
2.943689
 30
6.267034
 70
    32
  0
VERTEX
  8
0
 62
     7
  5
17A
 10
2.00282
 20
2.92495
 30
6.266324
 70
    32
  0
VERTEX
  8
0
 62
     7
  5
17B
 10
2.004405
 20
2.906237
 30
6.265413
 70
    32
  0
VERTEX
  8
0
 62
     7
  5
17C
 10
2.006342
 20
2.887557
 30
6.264303
 70
    32
  0
VERTEX
  8
0
 62
     7
  5
17D
 10
2.008629
 20
2.868917
 30
6.262996
 70
    32
  0
VERTEX
  8
0
 62
     7
  5
17E
 10
2.011265
 20
2.850323
 30
6.261494
 70
    32
  0
VERTEX
  8
0
 62
     7
  5
17F
 10
2.01425
 20
2.831782
 30
6.2598
 70
    32
  0
VERTEX
  8
0
 62
     7
  5
180
 10
2.017583
 20
2.8133
 30
6.257916
 70
    32
  0
VERTEX
  8
0
 62
     7
  5
181
 10
2.021262
 20
2.794884
 30
6.255846
 70
    32
  0
VERTEX
  8
0
 62
     7
  5
182
 10
2.025287
 20
2.77654
 30
6.253594
 70
    32
  0
VERTEX
  8
0
 62
     7
  5
183
 10
2.029655
 20
2.758275
 30
6.251163
 70
    32
  0
VERTEX
  8
0
 62
     7
  5
184
 10
2.034366
 20
2.740096
 30
6.248558
 70
    32
  0
VERTEX
  8
0
 62
     7
  5
185
 10
2.039417
 20
2.722008
 30
6.245782
 70
    32
  0
VERTEX
  8
0
 62
     7
  5
186
 10
2.044806
 20
2.704018
 30
6.242842
 70
    32
  0
VERTEX
  8
0
 62
     7
  5
187
 10
2.050533
 20
2.686133
 30
6.239741
 70
    32
  0
VERTEX
  8
0
 62
     7
  5
188
 10
2.056595
 20
2.668358
 30
6.236485
 70
    32
  0
VERTEX
  8
0
 62
     7
  5
189
 10
2.062989
 20
2.6507
 30
6.233079
 70
    32
  0
VERTEX
  8
0
 62
     7
  5
18A
 10
2.069714
 20
2.633165
 30
6.229529
 70
    32
  0
VERTEX
  8
0
 62
     7
  5
18B
 10
2.076767
 20
2.61576
 30
6.225841
 70
    32
  0
VERTEX
  8
0
 62
     7
  5
18C
 10
2.084145
 20
2.59849
 30
6.222021
 70
    32
  0
VERTEX
  8
0
 62
     7
  5
18D
 10
2.091847
 20
2.581362
 30
6.218075
 70
    32
  0
VERTEX
  8
0
 62
     7
  5
18E
 10
2.099868
 20
2.564382
 30
6.214009
 70
    32
  0
VERTEX
  8
0
 62
     7
  5
18F
 10
2.108208
 20
2.547555
 30
6.209831
 70
    32
  0
VERTEX
  8
0
 62
     7
  5
190
 10
2.116861
 20
2.530888
 30
6.205546
 70
    32
  0
VERTEX
  8
0
 62
     7
  5
191
 10
2.125827
 20
2.514386
 30
6.201161
 70
    32
  0
VERTEX
  8
0
 62
     7
  5
192
 10
2.1351
 20
2.498055
 30
6.196684
 70
    32
  0
VERTEX
  8
0
 62
     7
  5
193
 10
2.144679
 20
2.481902
 30
6.192121
 70
    32
  0
VERTEX
  8
0
 62
     7
  5
194
 10
2.154559
 20
2.465931
 30
6.18748
 70
    32
  0
VERTEX
  8
0
 62
     7
  5
195
 10
2.164738
 20
2.450149
 30
6.182767
 70
    32
  0
VERTEX
  8
0
 62
     7
  5
196
 10
2.175211
 20
2.43456
 30
6.177989
 70
    32
  0
VERTEX
  8
0
 62
     7
  5
197
 10
2.185974
 20
2.419171
 30
6.173155
 70
    32
  0
VERTEX
  8
0
 62
     7
  5
198
 10
2.197025
 20
2.403987
 30
6.168271
 70
    32
  0
VERTEX
  8
0
 62
     7
  5
199
 10
2.20836
 20
2.389013
 30
6.163344
 70
    32
  0
VERTEX
  8
0
 62
     7
  5
19A
 10
2.219973
 20
2.374254
 30
6.158382
 70
    32
  0
VERTEX
  8
0
 62
     7
  5
19B
 10
2.231862
 20
2.359716
 30
6.153391
 70
    32
  0
VERTEX
  8
0
 62
     7
  5
19C
 10
2.244021
 20
2.345404
 30
6.14838
 70
    32
  0
VERTEX
  8
0
 62
     7
  5
19D
 10
2.256447
 20
2.331323
 30
6.143355
 70
    32
  0
VERTEX
  8
0
 62
     7
  5
19E
 10
2.269135
 20
2.317478
 30
6.138324
 70
    32
  0
VERTEX
  8
0
 62
     7
  5
19F
 10
2.282081
 20
2.303873
 30
6.133294
 70
    32
  0
VERTEX
  8
0
 62
     7
  5
1A0
 10
2.295281
 20
2.290514
 30
6.128271
 70
    32
  0
VERTEX
  8
0
 62
     7
  5
1A1
 10
2.308728
 20
2.277405
 30
6.123263
 70
    32
  0
VERTEX
  8
0
 62
     7
  5
1A2
 10
2.32242
 20
2.264551
 30
6.118276
 70
    32
  0
VERTEX
  8
0
 62
     7
  5
1A3
 10
2.33635
 20
2.251956
 30
6.113318
 70
    32
  0
VERTEX
  8
0
 62
     7
  5
1A4
 10
2.364909
 20
2.227563
 30
6.103514
 70
    32
  0
SEQEND
  8
0
 62
     7
  5
1A5
1001
AME_SOL
1070
     1
1071
       15
  0
POLYLINE
  8
0
 62
     7
  5
1A6
 66
     1
 10
0.0
 20
0.0
 30
0.0
 70
     8
  0
VERTEX
  8
0
 62
     7
  5
1A7
 10
3.968246
 20
2.0
 30
6.25
 70
    32
  0
VERTEX
  8
0
 62
     7
  5
1A8
 10
3.967993
 20
1.991646
 30
6.24986
 70
    32
  0
VERTEX
  8
0
 62
     7
  5
1A9
 10
3.967236
 20
1.983302
 30
6.249442
 70
    32
  0
VERTEX
  8
0
 62
     7
  5
1AA
 10
3.965973
 20
1.974976
 30
6.248744
 70
    32
  0
VERTEX
  8
0
 62
     7
  5
1AB
 10
3.964203
 20
1.966678
 30
6.247769
 70
    32
  0
VERTEX
  8
0
 62
     7
  5
1AC
 10
3.961925
 20
1.958418
 30
6.246518
 70
    32
  0
VERTEX
  8
0
 62
     7
  5
1AD
 10
3.959136
 20
1.950204
 30
6.24499
 70
    32
  0
VERTEX
  8
0
 62
     7
  5
1AE
 10
3.955833
 20
1.942045
 30
6.24319
 70
    32
  0
VERTEX
  8
0
 62
     7
  5
1AF
 10
3.952015
 20
1.933951
 30
6.241117
 70
    32
  0
VERTEX
  8
0
 62
     7
  5
1B0
 10
3.947675
 20
1.925931
 30
6.238776
 70
    32
  0
VERTEX
  8
0
 62
     7
  5
1B1
 10
3.942812
 20
1.917994
 30
6.236167
 70
    32
  0
VERTEX
  8
0
 62
     7
  5
1B2
 10
3.937419
 20
1.910148
 30
6.233295
 70
    32
  0
VERTEX
  8
0
 62
     7
  5
1B3
 10
3.931491
 20
1.902403
 30
6.230162
 70
    32
  0
VERTEX
  8
0
 62
     7
  5
1B4
 10
3.925022
 20
1.894766
 30
6.226773
 70
    32
  0
VERTEX
  8
0
 62
     7
  5
1B5
 10
3.918004
 20
1.887247
 30
6.22313
 70
    32
  0
VERTEX
  8
0
 62
     7
  5
1B6
 10
3.910431
 20
1.879855
 30
6.219237
 70
    32
  0
VERTEX
  8
0
 62
     7
  5
1B7
 10
3.902293
 20
1.872596
 30
6.2151
 70
    32
  0
VERTEX
  8
0
 62
     7
  5
1B8
 10
3.893582
 20
1.865479
 30
6.210723
 70
    32
  0
VERTEX
  8
0
 62
     7
  5
1B9
 10
3.884285
 20
1.858513
 30
6.20611
 70
    32
  0
VERTEX
  8
0
 62
     7
  5
1BA
 10
3.874392
 20
1.851705
 30
6.201268
 70
    32
  0
VERTEX
  8
0
 62
     7
  5
1BB
 10
3.863889
 20
1.845063
 30
6.1962
 70
    32
  0
VERTEX
  8
0
 62
     7
  5
1BC
 10
3.852763
 20
1.838593
 30
6.190913
 70
    32
  0
VERTEX
  8
0
 62
     7
  5
1BD
 10
3.840996
 20
1.832304
 30
6.185413
 70
    32
  0
VERTEX
  8
0
 62
     7
  5
1BE
 10
3.828571
 20
1.826202
 30
6.179706
 70
    32
  0
VERTEX
  8
0
 62
     7
  5
1BF
 10
3.815467
 20
1.820294
 30
6.173798
 70
    32
  0
VERTEX
  8
0
 62
     7
  5
1C0
 10
3.801662
 20
1.814587
 30
6.167696
 70
    32
  0
VERTEX
  8
0
 62
     7
  5
1C1
 10
3.787131
 20
1.809087
 30
6.161407
 70
    32
  0
VERTEX
  8
0
 62
     7
  5
1C2
 10
3.771845
 20
1.8038
 30
6.154937
 70
    32
  0
VERTEX
  8
0
 62
     7
  5
1C3
 10
3.75577
 20
1.798732
 30
6.148295
 70
    32
  0
VERTEX
  8
0
 62
     7
  5
1C4
 10
3.73887
 20
1.79389
 30
6.141487
 70
    32
  0
VERTEX
  8
0
 62
     7
  5
1C5
 10
3.721101
 20
1.789277
 30
6.134521
 70
    32
  0
VERTEX
  8
0
 62
     7
  5
1C6
 10
3.702414
 20
1.7849
 30
6.127404
 70
    32
  0
VERTEX
  8
0
 62
     7
  5
1C7
 10
3.682749
 20
1.780763
 30
6.120145
 70
    32
  0
VERTEX
  8
0
 62
     7
  5
1C8
 10
3.66204
 20
1.77687
 30
6.112753
 70
    32
  0
VERTEX
  8
0
 62
     7
  5
1C9
 10
3.640204
 20
1.773227
 30
6.105234
 70
    32
  0
VERTEX
  8
0
 62
     7
  5
1CA
 10
3.617142
 20
1.769838
 30
6.097597
 70
    32
  0
VERTEX
  8
0
 62
     7
  5
1CB
 10
3.592735
 20
1.766705
 30
6.089852
 70
    32
  0
VERTEX
  8
0
 62
     7
  5
1CC
 10
3.566833
 20
1.763833
 30
6.082006
 70
    32
  0
VERTEX
  8
0
 62
     7
  5
1CD
 10
3.539249
 20
1.761224
 30
6.074069
 70
    32
  0
VERTEX
  8
0
 62
     7
  5
1CE
 10
3.509738
 20
1.758883
 30
6.066049
 70
    32
  0
VERTEX
  8
0
 62
     7
  5
1CF
 10
3.477976
 20
1.75681
 30
6.057955
 70
    32
  0
VERTEX
  8
0
 62
     7
  5
1D0
 10
3.443516
 20
1.75501
 30
6.049796
 70
    32
  0
VERTEX
  8
0
 62
     7
  5
1D1
 10
3.40571
 20
1.753482
 30
6.041582
 70
    32
  0
VERTEX
  8
0
 62
     7
  5
1D2
 10
3.363561
 20
1.752231
 30
6.033322
 70
    32
  0
VERTEX
  8
0
 62
     7
  5
1D3
 10
3.315388
 20
1.751256
 30
6.025024
 70
    32
  0
VERTEX
  8
0
 62
     7
  5
1D4
 10
3.257903
 20
1.750558
 30
6.016698
 70
    32
  0
VERTEX
  8
0
 62
     7
  5
1D5
 10
3.182607
 20
1.75014
 30
6.008354
 70
    32
  0
VERTEX
  8
0
 62
     7
  5
1D6
 10
3.129199
 20
1.750035
 30
6.004177
 70
    32
  0
VERTEX
  8
0
 62
     7
  5
1D7
 10
3.091383
 20
1.750009
 30
6.002089
 70
    32
  0
VERTEX
  8
0
 62
     7
  5
1D8
 10
3.0
 20
1.75
 30
6.0
 70
    32
  0
SEQEND
  8
0
 62
     7
  5
1D9
1001
AME_SOL
1070
     1
1071
       14
  0
POLYLINE
  8
0
 62
     7
  5
1DA
 66
     1
 10
0.0
 20
0.0
 30
0.0
 70
     8
  0
VERTEX
  8
0
 62
     7
  5
1DB
 10
2.031754
 20
2.0
 30
6.25
 70
    32
  0
VERTEX
  8
0
 62
     7
  5
1DC
 10
2.032007
 20
1.991646
 30
6.24986
 70
    32
  0
VERTEX
  8
0
 62
     7
  5
1DD
 10
2.032764
 20
1.983302
 30
6.249442
 70
    32
  0
VERTEX
  8
0
 62
     7
  5
1DE
 10
2.034027
 20
1.974976
 30
6.248744
 70
    32
  0
VERTEX
  8
0
 62
     7
  5
1DF
 10
2.035797
 20
1.966678
 30
6.247769
 70
    32
  0
VERTEX
  8
0
 62
     7
  5
1E0
 10
2.038075
 20
1.958418
 30
6.246518
 70
    32
  0
VERTEX
  8
0
 62
     7
  5
1E1
 10
2.040864
 20
1.950204
 30
6.24499
 70
    32
  0
VERTEX
  8
0
 62
     7
  5
1E2
 10
2.044167
 20
1.942045
 30
6.24319
 70
    32
  0
VERTEX
  8
0
 62
     7
  5
1E3
 10
2.047985
 20
1.933951
 30
6.241117
 70
    32
  0
VERTEX
  8
0
 62
     7
  5
1E4
 10
2.052325
 20
1.925931
 30
6.238776
 70
    32
  0
VERTEX
  8
0
 62
     7
  5
1E5
 10
2.057188
 20
1.917994
 30
6.236167
 70
    32
  0
VERTEX
  8
0
 62
     7
  5
1E6
 10
2.062581
 20
1.910148
 30
6.233295
 70
    32
  0
VERTEX
  8
0
 62
     7
  5
1E7
 10
2.068509
 20
1.902403
 30
6.230162
 70
    32
  0
VERTEX
  8
0
 62
     7
  5
1E8
 10
2.074978
 20
1.894766
 30
6.226773
 70
    32
  0
VERTEX
  8
0
 62
     7
  5
1E9
 10
2.081996
 20
1.887247
 30
6.22313
 70
    32
  0
VERTEX
  8
0
 62
     7
  5
1EA
 10
2.089569
 20
1.879855
 30
6.219237
 70
    32
  0
VERTEX
  8
0
 62
     7
  5
1EB
 10
2.097707
 20
1.872596
 30
6.2151
 70
    32
  0
VERTEX
  8
0
 62
     7
  5
1EC
 10
2.106418
 20
1.865479
 30
6.210723
 70
    32
  0
VERTEX
  8
0
 62
     7
  5
1ED
 10
2.115715
 20
1.858513
 30
6.20611
 70
    32
  0
VERTEX
  8
0
 62
     7
  5
1EE
 10
2.125608
 20
1.851705
 30
6.201268
 70
    32
  0
VERTEX
  8
0
 62
     7
  5
1EF
 10
2.136111
 20
1.845063
 30
6.1962
 70
    32
  0
VERTEX
  8
0
 62
     7
  5
1F0
 10
2.147237
 20
1.838593
 30
6.190913
 70
    32
  0
VERTEX
  8
0
 62
     7
  5
1F1
 10
2.159004
 20
1.832304
 30
6.185413
 70
    32
  0
VERTEX
  8
0
 62
     7
  5
1F2
 10
2.171429
 20
1.826202
 30
6.179706
 70
    32
  0
VERTEX
  8
0
 62
     7
  5
1F3
 10
2.184533
 20
1.820294
 30
6.173798
 70
    32
  0
VERTEX
  8
0
 62
     7
  5
1F4
 10
2.198338
 20
1.814587
 30
6.167696
 70
    32
  0
VERTEX
  8
0
 62
     7
  5
1F5
 10
2.212869
 20
1.809087
 30
6.161407
 70
    32
  0
VERTEX
  8
0
 62
     7
  5
1F6
 10
2.228155
 20
1.8038
 30
6.154937
 70
    32
  0
VERTEX
  8
0
 62
     7
  5
1F7
 10
2.24423
 20
1.798732
 30
6.148295
 70
    32
  0
VERTEX
  8
0
 62
     7
  5
1F8
 10
2.26113
 20
1.79389
 30
6.141487
 70
    32
  0
VERTEX
  8
0
 62
     7
  5
1F9
 10
2.278899
 20
1.789277
 30
6.134521
 70
    32
  0
VERTEX
  8
0
 62
     7
  5
1FA
 10
2.297586
 20
1.7849
 30
6.127404
 70
    32
  0
VERTEX
  8
0
 62
     7
  5
1FB
 10
2.317251
 20
1.780763
 30
6.120145
 70
    32
  0
VERTEX
  8
0
 62
     7
  5
1FC
 10
2.33796
 20
1.77687
 30
6.112753
 70
    32
  0
VERTEX
  8
0
 62
     7
  5
1FD
 10
2.359796
 20
1.773227
 30
6.105234
 70
    32
  0
VERTEX
  8
0
 62
     7
  5
1FE
 10
2.382858
 20
1.769838
 30
6.097597
 70
    32
  0
VERTEX
  8
0
 62
     7
  5
1FF
 10
2.407265
 20
1.766705
 30
6.089852
 70
    32
  0
VERTEX
  8
0
 62
     7
  5
200
 10
2.433167
 20
1.763833
 30
6.082006
 70
    32
  0
VERTEX
  8
0
 62
     7
  5
201
 10
2.460751
 20
1.761224
 30
6.074069
 70
    32
  0
VERTEX
  8
0
 62
     7
  5
202
 10
2.490262
 20
1.758883
 30
6.066049
 70
    32
  0
VERTEX
  8
0
 62
     7
  5
203
 10
2.522024
 20
1.75681
 30
6.057955
 70
    32
  0
VERTEX
  8
0
 62
     7
  5
204
 10
2.556484
 20
1.75501
 30
6.049796
 70
    32
  0
VERTEX
  8
0
 62
     7
  5
205
 10
2.59429
 20
1.753482
 30
6.041582
 70
    32
  0
VERTEX
  8
0
 62
     7
  5
206
 10
2.636439
 20
1.752231
 30
6.033322
 70
    32
  0
VERTEX
  8
0
 62
     7
  5
207
 10
2.684612
 20
1.751256
 30
6.025024
 70
    32
  0
VERTEX
  8
0
 62
     7
  5
208
 10
2.742097
 20
1.750558
 30
6.016698
 70
    32
  0
VERTEX
  8
0
 62
     7
  5
209
 10
2.817393
 20
1.75014
 30
6.008354
 70
    32
  0
VERTEX
  8
0
 62
     7
  5
20A
 10
2.870801
 20
1.750035
 30
6.004177
 70
    32
  0
VERTEX
  8
0
 62
     7
  5
20B
 10
2.908617
 20
1.750009
 30
6.002089
 70
    32
  0
VERTEX
  8
0
 62
     7
  5
20C
 10
3.0
 20
1.75
 30
6.0
 70
    32
  0
SEQEND
  8
0
 62
     7
  5
20D
1001
AME_SOL
1070
     1
1071
       13
  0
POLYLINE
  8
0
 62
     7
  5
20E
 66
     1
 10
0.0
 20
0.0
 30
0.0
 70
     8
  0
VERTEX
  8
0
 62
     7
  5
20F
 10
3.635091
 20
2.227563
 30
6.103514
 70
    32
  0
VERTEX
  8
0
 62
     7
  5
210
 10
3.651306
 20
2.224976
 30
6.109021
 70
    32
  0
VERTEX
  8
0
 62
     7
  5
211
 10
3.666899
 20
2.222257
 30
6.114464
 70
    32
  0
VERTEX
  8
0
 62
     7
  5
212
 10
3.681905
 20
2.219405
 30
6.119839
 70
    32
  0
VERTEX
  8
0
 62
     7
  5
213
 10
3.696355
 20
2.216424
 30
6.125143
 70
    32
  0
VERTEX
  8
0
 62
     7
  5
214
 10
3.710277
 20
2.213314
 30
6.130372
 70
    32
  0
VERTEX
  8
0
 62
     7
  5
215
 10
3.723694
 20
2.210079
 30
6.135525
 70
    32
  0
VERTEX
  8
0
 62
     7
  5
216
 10
3.736628
 20
2.206718
 30
6.140597
 70
    32
  0
VERTEX
  8
0
 62
     7
  5
217
 10
3.749099
 20
2.203235
 30
6.145586
 70
    32
  0
VERTEX
  8
0
 62
     7
  5
218
 10
3.761124
 20
2.199632
 30
6.150489
 70
    32
  0
VERTEX
  8
0
 62
     7
  5
219
 10
3.772717
 20
2.195911
 30
6.155303
 70
    32
  0
VERTEX
  8
0
 62
     7
  5
21A
 10
3.783894
 20
2.192074
 30
6.160024
 70
    32
  0
VERTEX
  8
0
 62
     7
  5
21B
 10
3.794666
 20
2.188122
 30
6.164651
 70
    32
  0
VERTEX
  8
0
 62
     7
  5
21C
 10
3.805046
 20
2.18406
 30
6.16918
 70
    32
  0
VERTEX
  8
0
 62
     7
  5
21D
 10
3.815045
 20
2.179888
 30
6.17361
 70
    32
  0
VERTEX
  8
0
 62
     7
  5
21E
 10
3.824671
 20
2.17561
 30
6.177936
 70
    32
  0
VERTEX
  8
0
 62
     7
  5
21F
 10
3.833934
 20
2.171228
 30
6.182157
 70
    32
  0
VERTEX
  8
0
 62
     7
  5
220
 10
3.842842
 20
2.166744
 30
6.18627
 70
    32
  0
VERTEX
  8
0
 62
     7
  5
221
 10
3.851402
 20
2.162162
 30
6.190272
 70
    32
  0
VERTEX
  8
0
 62
     7
  5
222
 10
3.859622
 20
2.157483
 30
6.194162
 70
    32
  0
VERTEX
  8
0
 62
     7
  5
223
 10
3.867508
 20
2.152712
 30
6.197937
 70
    32
  0
VERTEX
  8
0
 62
     7
  5
224
 10
3.875066
 20
2.147849
 30
6.201595
 70
    32
  0
VERTEX
  8
0
 62
     7
  5
225
 10
3.8823
 20
2.1429
 30
6.205133
 70
    32
  0
VERTEX
  8
0
 62
     7
  5
226
 10
3.889217
 20
2.137865
 30
6.20855
 70
    32
  0
VERTEX
  8
0
 62
     7
  5
227
 10
3.895822
 20
2.132749
 30
6.211843
 70
    32
  0
VERTEX
  8
0
 62
     7
  5
228
 10
3.902117
 20
2.127555
 30
6.215011
 70
    32
  0
VERTEX
  8
0
 62
     7
  5
229
 10
3.908108
 20
2.122284
 30
6.218052
 70
    32
  0
VERTEX
  8
0
 62
     7
  5
22A
 10
3.913798
 20
2.116942
 30
6.220963
 70
    32
  0
VERTEX
  8
0
 62
     7
  5
22B
 10
3.919191
 20
2.11153
 30
6.223743
 70
    32
  0
VERTEX
  8
0
 62
     7
  5
22C
 10
3.92429
 20
2.106052
 30
6.226391
 70
    32
  0
VERTEX
  8
0
 62
     7
  5
22D
 10
3.929098
 20
2.100511
 30
6.228905
 70
    32
  0
VERTEX
  8
0
 62
     7
  5
22E
 10
3.933617
 20
2.094911
 30
6.231283
 70
    32
  0
VERTEX
  8
0
 62
     7
  5
22F
 10
3.937851
 20
2.089254
 30
6.233525
 70
    32
  0
VERTEX
  8
0
 62
     7
  5
230
 10
3.941801
 20
2.083545
 30
6.235627
 70
    32
  0
VERTEX
  8
0
 62
     7
  5
231
 10
3.94547
 20
2.077786
 30
6.237591
 70
    32
  0
VERTEX
  8
0
 62
     7
  5
232
 10
3.94886
 20
2.071981
 30
6.239413
 70
    32
  0
VERTEX
  8
0
 62
     7
  5
233
 10
3.951972
 20
2.066133
 30
6.241094
 70
    32
  0
VERTEX
  8
0
 62
     7
  5
234
 10
3.954808
 20
2.060246
 30
6.242632
 70
    32
  0
VERTEX
  8
0
 62
     7
  5
235
 10
3.95737
 20
2.054324
 30
6.244026
 70
    32
  0
VERTEX
  8
0
 62
     7
  5
236
 10
3.959658
 20
2.048369
 30
6.245276
 70
    32
  0
VERTEX
  8
0
 62
     7
  5
237
 10
3.961675
 20
2.042386
 30
6.246381
 70
    32
  0
VERTEX
  8
0
 62
     7
  5
238
 10
3.963421
 20
2.036378
 30
6.247339
 70
    32
  0
VERTEX
  8
0
 62
     7
  5
239
 10
3.964897
 20
2.030348
 30
6.248151
 70
    32
  0
VERTEX
  8
0
 62
     7
  5
23A
 10
3.966103
 20
2.0243
 30
6.248816
 70
    32
  0
VERTEX
  8
0
 62
     7
  5
23B
 10
3.967041
 20
2.018237
 30
6.249334
 70
    32
  0
VERTEX
  8
0
 62
     7
  5
23C
 10
3.96771
 20
2.012164
 30
6.249704
 70
    32
  0
VERTEX
  8
0
 62
     7
  5
23D
 10
3.968112
 20
2.006084
 30
6.249926
 70
    32
  0
VERTEX
  8
0
 62
     7
  5
23E
 10
3.968246
 20
2.0
 30
6.25
 70
    32
  0
SEQEND
  8
0
 62
     7
  5
23F
1001
AME_SOL
1070
     1
1071
       12
  0
POLYLINE
  8
0
 62
     7
  5
240
 66
     1
 10
0.0
 20
0.0
 30
0.0
 70
     8
  0
VERTEX
  8
0
 62
     7
  5
241
 10
2.364909
 20
2.227563
 30
6.103514
 70
    32
  0
VERTEX
  8
0
 62
     7
  5
242
 10
2.348694
 20
2.224976
 30
6.109021
 70
    32
  0
VERTEX
  8
0
 62
     7
  5
243
 10
2.333101
 20
2.222257
 30
6.114464
 70
    32
  0
VERTEX
  8
0
 62
     7
  5
244
 10
2.318095
 20
2.219405
 30
6.119839
 70
    32
  0
VERTEX
  8
0
 62
     7
  5
245
 10
2.303645
 20
2.216424
 30
6.125143
 70
    32
  0
VERTEX
  8
0
 62
     7
  5
246
 10
2.289723
 20
2.213314
 30
6.130372
 70
    32
  0
VERTEX
  8
0
 62
     7
  5
247
 10
2.276306
 20
2.210079
 30
6.135525
 70
    32
  0
VERTEX
  8
0
 62
     7
  5
248
 10
2.263372
 20
2.206718
 30
6.140597
 70
    32
  0
VERTEX
  8
0
 62
     7
  5
249
 10
2.250901
 20
2.203235
 30
6.145586
 70
    32
  0
VERTEX
  8
0
 62
     7
  5
24A
 10
2.238876
 20
2.199632
 30
6.150489
 70
    32
  0
VERTEX
  8
0
 62
     7
  5
24B
 10
2.227283
 20
2.195911
 30
6.155303
 70
    32
  0
VERTEX
  8
0
 62
     7
  5
24C
 10
2.216106
 20
2.192074
 30
6.160024
 70
    32
  0
VERTEX
  8
0
 62
     7
  5
24D
 10
2.205334
 20
2.188122
 30
6.164651
 70
    32
  0
VERTEX
  8
0
 62
     7
  5
24E
 10
2.194954
 20
2.18406
 30
6.16918
 70
    32
  0
VERTEX
  8
0
 62
     7
  5
24F
 10
2.184955
 20
2.179888
 30
6.17361
 70
    32
  0
VERTEX
  8
0
 62
     7
  5
250
 10
2.175329
 20
2.17561
 30
6.177936
 70
    32
  0
VERTEX
  8
0
 62
     7
  5
251
 10
2.166066
 20
2.171228
 30
6.182157
 70
    32
  0
VERTEX
  8
0
 62
     7
  5
252
 10
2.157158
 20
2.166744
 30
6.18627
 70
    32
  0
VERTEX
  8
0
 62
     7
  5
253
 10
2.148598
 20
2.162162
 30
6.190272
 70
    32
  0
VERTEX
  8
0
 62
     7
  5
254
 10
2.140378
 20
2.157483
 30
6.194162
 70
    32
  0
VERTEX
  8
0
 62
     7
  5
255
 10
2.132492
 20
2.152712
 30
6.197937
 70
    32
  0
VERTEX
  8
0
 62
     7
  5
256
 10
2.124934
 20
2.147849
 30
6.201595
 70
    32
  0
VERTEX
  8
0
 62
     7
  5
257
 10
2.1177
 20
2.1429
 30
6.205133
 70
    32
  0
VERTEX
  8
0
 62
     7
  5
258
 10
2.110783
 20
2.137865
 30
6.20855
 70
    32
  0
VERTEX
  8
0
 62
     7
  5
259
 10
2.104178
 20
2.132749
 30
6.211843
 70
    32
  0
VERTEX
  8
0
 62
     7
  5
25A
 10
2.097883
 20
2.127555
 30
6.215011
 70
    32
  0
VERTEX
  8
0
 62
     7
  5
25B
 10
2.091892
 20
2.122284
 30
6.218052
 70
    32
  0
VERTEX
  8
0
 62
     7
  5
25C
 10
2.086202
 20
2.116942
 30
6.220963
 70
    32
  0
VERTEX
  8
0
 62
     7
  5
25D
 10
2.080809
 20
2.11153
 30
6.223743
 70
    32
  0
VERTEX
  8
0
 62
     7
  5
25E
 10
2.07571
 20
2.106052
 30
6.226391
 70
    32
  0
VERTEX
  8
0
 62
     7
  5
25F
 10
2.070902
 20
2.100511
 30
6.228905
 70
    32
  0
VERTEX
  8
0
 62
     7
  5
260
 10
2.066383
 20
2.094911
 30
6.231283
 70
    32
  0
VERTEX
  8
0
 62
     7
  5
261
 10
2.062149
 20
2.089254
 30
6.233525
 70
    32
  0
VERTEX
  8
0
 62
     7
  5
262
 10
2.058199
 20
2.083545
 30
6.235627
 70
    32
  0
VERTEX
  8
0
 62
     7
  5
263
 10
2.05453
 20
2.077786
 30
6.237591
 70
    32
  0
VERTEX
  8
0
 62
     7
  5
264
 10
2.05114
 20
2.071981
 30
6.239413
 70
    32
  0
VERTEX
  8
0
 62
     7
  5
265
 10
2.048028
 20
2.066133
 30
6.241094
 70
    32
  0
VERTEX
  8
0
 62
     7
  5
266
 10
2.045192
 20
2.060246
 30
6.242632
 70
    32
  0
VERTEX
  8
0
 62
     7
  5
267
 10
2.04263
 20
2.054324
 30
6.244026
 70
    32
  0
VERTEX
  8
0
 62
     7
  5
268
 10
2.040342
 20
2.048369
 30
6.245276
 70
    32
  0
VERTEX
  8
0
 62
     7
  5
269
 10
2.038325
 20
2.042386
 30
6.246381
 70
    32
  0
VERTEX
  8
0
 62
     7
  5
26A
 10
2.036579
 20
2.036378
 30
6.247339
 70
    32
  0
VERTEX
  8
0
 62
     7
  5
26B
 10
2.035103
 20
2.030348
 30
6.248151
 70
    32
  0
VERTEX
  8
0
 62
     7
  5
26C
 10
2.033897
 20
2.0243
 30
6.248816
 70
    32
  0
VERTEX
  8
0
 62
     7
  5
26D
 10
2.032959
 20
2.018237
 30
6.249334
 70
    32
  0
VERTEX
  8
0
 62
     7
  5
26E
 10
2.03229
 20
2.012164
 30
6.249704
 70
    32
  0
VERTEX
  8
0
 62
     7
  5
26F
 10
2.031888
 20
2.006084
 30
6.249926
 70
    32
  0
VERTEX
  8
0
 62
     7
  5
270
 10
2.031754
 20
2.0
 30
6.25
 70
    32
  0
SEQEND
  8
0
 62
     7
  5
271
1001
AME_SOL
1070
     1
1071
       11
  0
LINE
  8
0
 62
     7
  5
272
 10
2.0
 20
3.0
 30
0.0
 11
2.0
 21
3.0
 31
6.267949
1001
AME_SOL
1070
     0
1071
        4
  0
LINE
  8
0
 62
     7
  5
273
 10
3.0
 20
2.0
 30
0.0
 11
3.0
 21
2.0
 31
5.75
1001
AME_SOL
1070
     0
1071
        4
  0
LINE
  8
0
 62
     7
  5
274
 10
4.0
 20
3.0
 30
0.0
 11
4.0
 21
3.0
 31
6.267949
1001
AME_SOL
1070
     0
1071
        4
  0
LINE
  8
0
 62
     7
  5
275
 10
3.968246
 20
2.0
 30
6.25
 11
6.0
 21
2.0
 31
6.25
1001
AME_SOL
1070
     0
1071
        3
  0
LINE
  8
0
 62
     7
  5
276
 10
0.0
 20
2.0
 30
6.25
 11
2.031754
 21
2.0
 31
6.25
1001
AME_SOL
1070
     0
1071
        3
  0
LINE
  8
0
 62
     7
  5
277
 10
0.0
 20
1.75
 30
6.0
 11
6.0
 21
1.75
 31
6.0
1001
AME_SOL
1070
     0
1071
        3
  0
LINE
  8
0
 62
     7
  5
278
 10
0.0
 20
2.0
 30
5.75
 11
6.0
 21
2.0
 31
5.75
1001
AME_SOL
1070
     0
1071
        3
  0
LINE
  8
0
 62
     7
  5
279
 10
3.661438
 20
2.25
 30
6.0
 11
6.0
 21
2.25
 31
6.0
1001
AME_SOL
1070
     0
1071
        3
  0
LINE
  8
0
 62
     7
  5
27A
 10
0.0
 20
2.25
 30
6.0
 11
2.338562
 21
2.25
 31
6.0
1001
AME_SOL
1070
     0
1071
        3
  0
LINE
  8
0
 62
     7
  5
27B
 10
1.0
 20
3.0
 30
8.0
 11
1.0
 21
1.0
 31
8.0
1001
AME_SOL
1070
     0
1071
        1
  0
LINE
  8
0
 62
     7
  5
27C
 10
3.0
 20
1.75
 30
6.0
 11
3.0
 21
1.0
 31
6.0
1001
AME_SOL
1070
     0
1071
        1
  0
LINE
  8
0
 62
     7
  5
27D
 10
5.0
 20
3.0
 30
8.0
 11
5.0
 21
1.0
 31
8.0
1001
AME_SOL
1070
     0
1071
        1
  0
ENDBLK
  8
0
  5
27E
  0
BLOCK
  8
0
  5
282
  2
AME_JNK
 70
     0
 10
0.0
 20
0.0
 30
0.0
  1
AME_JNK
  3
AME_JNK
  0
ENDBLK
  8
0
  5
283
  0
ENDSEC
  0
SECTION
  2
ENTITIES
  0
INSERT
  8
AME_FRZ
  5
3
  2
AME_NIL
 10
0.0
 20
0.0
 30
0.0
  0
INSERT
  8
AME_FRZ
  5
6
  2
AME_SOL
 10
0.0
 20
0.0
 30
0.0
1001
AME_SOL
1000
R2.1
1000
AME2
1000
sq cm
1070
     3
1070
     0
1070
     3
1000
wire
1040
45.0
1000
U
1040
1.0
1000
cm
1000
gm
1000
MILD_STEEL
1070
    25
1000
CSG
1070
     1
1070
     3
1070
     3
1070
     3
1070
     0
1000
cu cm
1070
     1
1070
     0
1005
3
  0
INSERT
  8
AME_FRZ
  5
21
  2
AME_NIL
 10
0.0
 20
0.0
 30
0.0
1001
AME_SOL
1002
{
1070
     1
1071
  2348440
1070
  1536
1070
     1
1010
6.0
1020
3.0
1030
8.0
1005
0
1005
0
1005
27F
1040
0.0
1040
1.0
1070
     0
1000
MILD_STEEL
1000
0
1010
0.0
1020
0.0
1030
0.0
1010
0.0
1020
0.0
1030
1.0
1040
0.0
1002
}
1001
AVE_INVOKE
1000
SOLAVEMESH
  0
INSERT
  8
AME_FRZ
  5
2D
  2
AME_NIL
 10
3.0
 20
3.0
 30
0.0
1001
AME_SOL
1002
{
1070
     1
1071
  2357704
1070
  1538
1070
     1
1010
1.0
1020
1.0
1030
8.0
1005
0
1005
0
1005
90
1040
0.0
1040
1.0
1070
     0
1000
MILD_STEEL
1000
0
1010
3.0
1020
3.0
1030
0.0
1010
0.0
1020
0.0
1030
1.0
1040
0.0
1002
}
1001
AVE_INVOKE
1000
SOLAVEMESH
  0
INSERT
  8
AME_FRZ
  5
39
  2
AME_NIL
 10
3.0
 20
8.0
 30
-3.0
210
0.0
220
-1.0
230
0.0000000000000001
1001
AME_SOL
1002
{
1070
     1
1071
  2359352
1070
  1538
1070
     1
1010
2.0
1020
2.0
1030
2.0
1005
0
1005
0
1005
91
1040
0.0
1040
1.0
1070
     0
1000
MILD_STEEL
1000
0
1010
3.0
1020
8.0
1030
-3.0
1010
0.0
1020
-1.0
1030
0.0
1040
0.0
1002
}
  0
INSERT
  8
AME_FRZ
  5
69
  2
AME_NIL
 10
2.0
 20
6.0
 30
0.0
 50
270.0
210
1.0
220
0.0
230
0.0000000000000001
1001
AME_SOL
1002
{
1070
     1
1071
  2358680
1070
  1538
1070
     1
1010
0.25
1020
0.25
1030
6.0
1005
0
1005
0
1005
90
1040
0.0
1040
1.0
1070
     0
1000
MILD_STEEL
1000
0
1010
2.0
1020
6.0
1030
0.0
1010
1.0
1020
0.0
1030
0.0
1040
4.712389
1002
}
  0
INSERT
  8
AME_FRZ
  5
90
  2
AME_NIL
 10
0.0
 20
0.0
 30
0.0
1001
AME_SOL
1002
{
1070
     1
1071
  2381824
1070
   775
1070
     0
1070
     2
1005
2D
1005
69
1005
0
1005
0
1005
91
1040
0.0
1040
1.0
1070
     0
1000
MILD_STEEL
1000
0
1010
0.0
1020
0.0
1030
0.0
1010
0.0
1020
0.0
1030
1.0
1040
0.0
1002
}
  0
INSERT
  8
AME_FRZ
  5
91
  2
AME_NIL
 10
0.0
 20
0.0
 30
0.0
1001
AME_SOL
1002
{
1070
     1
1071
  2396528
1070
   775
1070
     0
1070
     2
1005
90
1005
39
1005
0
1005
0
1005
27F
1040
0.0
1040
1.0
1070
     0
1000
MILD_STEEL
1000
0
1010
0.0
1020
0.0
1030
0.0
1010
0.0
1020
0.0
1030
1.0
1040
0.0
1002
}
  0
INSERT
  8
0
  5
27F
  2
*U7
 10
0.0
 20
0.0
 30
0.0
1001
AME_SOL
1002
{
1070
     1
1071
  2395552
1070
  1543
1070
     1
1070
     0
1005
21
1005
91
1005
0
1005
280
1005
0
1040
0.0
1040
1.0
1070
     0
1000
MILD_STEEL
1000
0
1002
}
1001
AVE_INVOKE
1000
SOLAVEMESH
  0
INSERT
  8
AME_FRZ
  5
280
  2
AME_NIL
 10
1.0
 20
1.0
 30
1.0
1001
AME_SOL
1004
C7CF01008D01C601C501C301BF01B701A90194010500790095017701EE005F007801A400540103006100AA0196017F00790115005501390126010F0105016700680006016B006C00100107016D00720008018800E0000E0017009701BC007A015601EF009C00570176003A0116001F00B801AB012800BF00
1004
AC0198017B0158013B012300DB003C01D400590026007C0159016A003D01BE00FD00090099017D015A01B000CF005B016F00B2007E015C013E01F9009B003F014500E9005D01400127012F00A9002801C9006300E800C001B901AD0118009A017F01C8005E01490062008000AE019B01800182005F011900
1004
D000810160014101E700DA0042012C003D0039009C01840082016101430147005300CE00FB00BA01AF019D01250083015B0062014800D700F000B0019E01240084016301440129016E00AC00F800DF0007009F018501E400640111008A0086016501AA009E00660145015200600046012A01CB0011010B00
1004
0D002B0112010F002200130130003100C401C101BB014000B101A00187017000670147012C011401B40037001501C300BD002D011601BA0074001701D3009F0091008801330068011000EC00A10108000A00BC01B201A20189016901EA0048012700D9000C001400A3018A0196006A014901F40093004C00
1004
8B0120006B0144002100B301A4018C016C01A80054006D014A01F2004F004B012E01AE00F7002F01D2004A008D016E0106003C006F014D002D00A5018E01AF0070014C011200FC004D01B5008B008F0171014E01EB004B004E007500C201BD01B4013F00A601FE00900150007800FF00BE01B501A7019101
1004
72014F013001180109019000FA001B0004004100ED007301F500F300A000A8019201740150013101C600C100320199001901F600A700510133011A013800D1001B013E00460034011C01A500BB001D01980071007501520135011E01B900CC001F017B00810036012001E500B8002101B6008F0053013701
1004
22018E00CA0023018C000A013400F100380124010B01690073000C017A00E20025010D0101010001510002015A005E000E0103016400C2000401650066009301C0007601A6005C00B60102000100000050039400E1F25EFD756B5B9F8B353DFE7F423964D20B0AF08E593482C2BC23964D20B0A14CCD08A2
1004
9C842966684514E96427583585A003887F97AC87F52584010EAE07182584010EAE071870AE49B8DC41742966684514EA5023964D214A6427583585A003887EA05EB93D1CB5BBF1F0FEA05EFF9AC7FFFFF2676EF529432EE49AD7F3587FE990FFD323F56400FF47F47FFFFFA817BFE6B1FFFFFC99DBBD4A50
1004
CBB926B5FCD61FFA643FF4C8FD59003FD1FD1FFFFF9A2AD941EA8BFFE6B1FFFFFC99DBBD4A50CBB926B5FCD61D6ED6B5AD3B43FF4C8FCE21E99063C025090CE75320C7804A1219C15FFEB6503FD517FFCD63FFFFF933B77A94A197724D6BF9AC7EA50FFD323F5643D320C7804A1219CEA6418F0094243382
1004
FFBDCC831E012848673AFFBFF4C8320C7804A1219C15EFFFFD0F5D25935A2BDFF43FF4C87A2BD8AF6FFFFFE85B281EEA8BFFE6B1FFFFFC99DBBD4A50CBB926B5FCD61D6ED6B5AD3B43FF4C87FE421E99063C025090CE75320C7804A1219C17DFFFD0FFD321EE6418F009424339D5EFAA8C3FF4C8320C7804
1004
A1219C15FEF7D5463FA1EBA4B26B5D25935AFF7BEAA31FD0B65003BAA2FFF9AC7FFFFF2676EF529432EE49AD7F3587BE6B0FFD32137D590F4C831E012848673A99063C025090CE0BFEF7320C7804A1219CEBFEFFD320C831E01284867057BFFFF43D15EDD25935BFD0FFD321E8AF62BDBFFFFFA0BD647A4B
1004
08021D5C0E304B08021D5C0E30E15C9371B882E852CCD08A29D4A0FC40D6D3FF10D613AC1AC2D001C43F2CBD66180E5ADDFADDFCB2F7FCD63FFFFF933B77A94A197724D6BF9AC3FF4C87BE6B1FAB2007FFFFFFFFFCB2F7FCD63FFFFF933B77A94A197724D6BF9AC3FF4C87BE6B1FAB2007FFFFFFFFF3452F
1004
5906E7F423964D20B0A3815E974CE5EC385724DC6E20F9014CCD08A29C8408E5934852F202999A114539490FD40BD671D1CB5BBF59AFEA05EE76EF529432EE49AD539ECFAAB2B027C0DF9A2A5D7759491764A5B15FE6B09CF67D5595813E06FFFE87FE42007F29B1F94D8FFFFFF502F73B77A94A197724D6
1004
A9CF67D5595813E06FCD152EBBACA48BB252D8AFF3584E7B3EAACAC09F037FFF43FF21003F94D8FCA6C7FFFFE68AB6507AA2FE76EF529432EE49AD539ECFAAB2B027C0DF9A2A5D7759491764A5B15FE6B09CF67D5595813E064A75674D59E3E4E8243A87EF21EF9087A6418F009424339D4C831E01284867
1004
05FF077320C7804A1219CEA94EACE9AB3C7C9D03F4AC7D382BB851FABB3C82B1A92554092EB3CFED0FFC8419063C025090CE0AF74A75674D59E3E4E81FA563E9C15DC28FD5D9E43D1B64D68DB26B4AC6A4955024BACF3FB43FF210F46D935A36C9AD7BA53AB3A6ACF1F2740FD2B1F4E0AEE147EAECF20AC6
1004
A4955024BACF3FB43FF210B6503FD517F3B77A94A197724D6A9CF67D5595813E06FCD152EBBACA48BB252D8AFF3584E7B3EAACAC09F031DBBD4A50CBB9D3D6BFD0FFC2E87A6418F009424339D4C831E0128486705FF7B99063C025090CE753B77A94A197703C33FF2106418F0094243382BFCEDDEA52865D
1004
C0F0CFFC843D1B64D68DB26B5FE76EF529432EE07867FE4216CA07BAA2FE76EF529432EE49AD539ECFAAB2B027C0DF9A2A5D7759491764A5B15FE6B09CF67D5595813E065916621D1CF1C10B2BA83FF5D587BE421E99063C025090CE75320C7804A1219C17FDEE6418F009424339D56459887473C7049656
1004
FFC8419063C025090CE0AFF5916621D1CF1C12595BFF210F46D935A36C9AD7FAC8B310E8E78E092CADFF9085B2801DD517F3B77A94A197724D6A9CF67D5595813E06FCD152EBBACA48BB252D8AFF3584E7B3EAACAC09F031DBBD4A50CBB9D3C3381FD0FFCA487A6418F009424339D4C831E0128486705FF0
1004
77320C7804A1219CEA76EF529432EE07AD4CC551D12E53383424A24B172745668D47F887FE420C831E01284867057B9DBBD4A50CBB81EB533154744B94CE0D0F46D935A36C9AD4944962E4E8ACD1A8FF10FFC843D1B64D68DB26B5EE76EF529432EE07AD4CC551D12E53383424A24B172745668D47F887FE
1004
420BD644D1D8AF4BA676B03B15E974CED61E11CB269058552CCD08A29D2C852CCD08A29D2C84EB06B0B400AC87EA05EC4396B77E64F6A05EFF9AC7FFFFFFE6B1FEFFD321FFA647F80FE6B1F9AC7FFFFFA817BFE6B1FFFFFFF9AC7FBFF4C87FE991FE03F9AC7E6B1FFFFF9A2AD941EA8BFFE6B1FFFFFFF9AC
1004
7FB805AD6B5A768FD2C8FF7A6418F009424339D4C831E01284867057FFAD940FF545FFF358FFFFFFFCD63FFF4B21FFA647FBD320C7804A1219CEA6418F0094243382FFBDCC831E012848673AFFA86971EC7A07AE852419063C025090CE0AFFFF50D2E3D8F40F5D0A487AE9835B5A353DBFFFD434B8F63D03
1004
D7429216CA07BAA2FFF9AC7FFFFFFE6B1FEE016B5AD69DA1FFD1FEF4C831E012848673A99063C025090CE0BFEF7320C7804A1219CEBFE35B5AD6B43E419063C025090CE0AFFFF1ADAD6B5A1F21EBA60D6D6BA60D6D6BFFFC6B6B5AD687C85B2801DD517FFCD63FFFFFFF358FF7FF41EBE991FEF4C831E012
1004
848673A99063C025090CE0BFEF7320C7804A1219CEBFEA1A5C7B1E81EBA14906418F0094243382BFFFD434B8F63D03D742921E8D4F6E9835B5AFFFF50D2E3D8F40F5D0A482F5916978472C9A41615E11CB269058578472C9A416142999A1145390811CB2690A5321E11CB26905987E597A48A11CBFDFBAFA
1004
F6597BFFFE6B1FFF9AC7FFFFFFFFF80FFFFFFFFFF965EFFFF9AC7FFE6B1FFFFFFFFFE03FFFFFFFFF9AC17AC8E06F08E593482C2BC23964D20B0AF08E593482C2853334228A7210F08E593482CC27583585A005643F2CBD2154397FBF742F6597BFE6B1FFFFFFFFF9AC7FFFFF80FFFFFFFFFF965EFF9AC7FF
1004
FFFFFFE6B1FFFFFE03FFFFFFFFF9AC17AC802F08E593482C2BC23964D20B0AF08E593482C2BC23964D20B3023964D214A6427583585A005643F2CBD1C17062FF7EECF6597BFFFFFE6B1FFF9AC7FFFFFFF80FFFFFFFFFF965EFFFFFF9AC7FFE6B1FFFFFFFE03FFFFFFFFF9AC17AC89AF08E593482C2BC2396
1004
4D20B0AE15C9371B883F4053334228A721023964D214A6427583585A005643F2CBD243318BFDF8AF6597BFE68BFC9FF27FC9FE68BFC9BFF210FFD323F56400FFFFFFFFFF965EFF9A2FF27FC9FF27F9A2FF26FFC843FF4C8FD59003FFFFFFFFF9AC17AC89EF08E593482C29520AFCA85E0ED0F08E593482C2
1004
853334228A721023964D214A6427583585A005643F2CBD1F928C5FEFC6A7B2CBDFF93FE4FF345FCD17F93FE4DFF9087FE991FAB2007FFFFFFFFFCB2F7FE4FF93FCD17F345FE4FF937FE421FFA647EAC801FFFFFFFFFCD60BD640170AE49B8DC41743C23964D20B0AF08E593482C2853334228A721023964D
1004
214A6427583585A005643F2CBDAF262FF7E926F6597BFF27F9A2FF27FC9FF27F9A2BFF210FFD323F56400FFFFFFFFFF965EFFC9FE68BFC9FF27FC9FE68AFFC843FF4C8FD59003FFFFFFFFF9AC030212C2008757038C0E057A5D3397B0E15C9371B882E852CCD08A29D4A0472C9A42979014CCD08A29CA482
1004
9BAA2D8AA547466B022DD5CB12F578DA1E8D03C749FF18ED6BF727A39671D1CEF5C9E8E59C7472D6B5AD6B5A340F676EF529432EE49AD539ECFAAB2B027C0DF9A2A5D7759491764A5B15FE6B09CF67D5595813E06FFFE87FE4202DFEE890FFBB0EDDBFFFC1DE7E3A8A1935AD6B5D390E8072395C1E5555E4
1004
AB3F8391CAE0F2AAB80957F8C6EDF94D8FCA6C7E68A537545B154A8E8CD6045BAB9625EAF1B4030212C2008757038C0E057A5D3397B0E15C9371B882E852CCD08A29D4A0472C9A42979014CCD08A29CA4829BAA2D8AA547466B022DD5CB12F578DA1E8D03C665598EFDAD727A39671D1CEF59C7472E4F472
1004
D6B5AD6B5A340F676EF529432EE49AD539ECFAAB2B027C0DF9A2A5D7759491764A5B15FE6B09CF67D5595813E06FFFE87FE4202DFEE890FFBB0EDDBFFFC1DE7E3A8A1935AD6B5D390E8072395C1E5555E4AB3F8391CAE0F2AAB80957F8C6EDF94D8FCA6C7E6B0537545B154A8E8CD6045BAB9625EAF1B403
1004
0212C2008757038C0E057A5D3397B0E15C9371B882E852CCD08A29D4A0472C9A42979014CCD08A29CA48116EAE5897ABC6DD9D54AA572C4BD5E3C0AF4681E0B32D8C76B5FB93D1CB38E8E77AE4F472CE3A396B5AD6B5AD1A07B3B77A94A197724D6A9CF67D5595813E06FCD152EBBACA48BB252D8AFF3584
1004
E7B3EAACAC09F037FFF43FF21016FF74487FDD876EDFFFE0EF3F1D450C9AD6B5AE9C8740391CAE0F2AAAF2559FC1C8E57079555C04ABFC6376FCA6C7E5363F345116EAE5897ABC6DD9D54AA572C4BD5E3C0A0C084B08021D5C0E303815E974CE5EC385724DC6E20BA14B334228A752811CB2690A5E405333
1004
4228A7292045BAB9625EAF1B767552A95CB12F578F02BD1A078917A63BF6B5C9E8E59C7473BD671D1CB93D1CB5AD6B5AD68D03D9DBBD4A50CBB926B54E7B3EAACAC09F037E68A975DD65245D9296C57F9AC273D9F5565604F81BFFFA1FF9080B7FBA243FEEC3B76FFFF0779F8EA2864D6B5AD74E43A01C8E
1004
57079555792ACFE0E472B83CAAAE0255FE31BB7E5363F29B1F9AC08B7572C4BD5E36ECEAA552B9625EAF1E0506041D8AF4BA676B03B15E974CED61C2B926E37105D0A599A11453A59023964D214A6427583585A0056408B7572C4BD5E36ECB387D9FA3E1D2D7479D9E8D03C9998C76B5FB93D1CC439DEB93
1004
D1CC4396B5AD6B5AD1A07BFCD63FFFFFFF358FF7FE990FFD323FC2DFEE891F8FA76FFFFF8C4B351FC99FC1C8E57079555D4924FFFF744EDF9AC7E6B1F9A288B7572C4BD5E36ECB387D9FA3E1D2D7479D81810762BD2E99DAC0EC57A5D33B5870AE49B8DC41742966684514E96408E59348529909D60D6168
1004
01590B2A53ABAAA313A525C5FF7A340F199D7931DAD7EE4F47310E77AE4F47310E5AD6B5AD6B4681EFF358FFFFFFFCD63FDFFA643FF4C8FF0B7FBA247E3E9DBFFFFE312CD47F267F072395C1E555752493FFFDD13B7E6B1F9AC7E68AB2A53ABAAA313A525C5FF06042584010EAE07182584010EAE071870A
1004
E49B8DC41FA14B334228A752811CB2690A53213AC1AC2D002B23FFFA1EAA2F9D2AA1CEFDAD727A39243318EF490CC62E4F472FF6B5AD545FFF358FFFFFE4CEDDEA52865DC935AFE6B0F7CD61FFA647EAC87BFFFD00C084B08021D5C0E304B08021D5C0E30E15C9371B883F42966684514EA5023964D214A6
1004
427583585A005647FFF43D545F3317263B5AFDC9E8E490CC63BD727A39243318B5AD6BFD517FFCD63FFFFF933B77A94A197724D6BF9AC7EA50FFD323F5643DFFFE806042584010EAE07182A415F950BC1DA1C2B926E37105D0A599A11453A9408E59348529909D60D61680159022DD5CB12F578DBB3A93AE
1004
56EE907E3A1BB3D5D57CA6B38E76B5FB93D1C8FC9463BD727A391F928C5AD6B5FEBAAFFF9AC7FFFFF2676EF529432EE49AD7F3587FE990FFD323F564381FF47F408B7572C4BD5E36ECEA4EB95BBA41F8E86EC0C084B08021D5C0E305482BF2A1783B4385724DC6E20BA14B334228A752811CB2690A53213A
1004
C1AC2D002B21D76E9EB77483F1D09A2FF26F5755FA898ED6BF727A391F928C77AE4F4723F2518B5AD6BFD755FFF358FFFFFE4CEDDEA52865DC935AFE6B0FFD321FFA647EAC8703FE8FE875DBA7ADDD20FC74268BFC9830212C2008757038C12C2008757038C385724DC6E20BA14B334228A75283F1035B4F
1004
FC43584EB06B0B40071022DD5CB12F578DBB7F26F5755F7618CC77ED6B93D1CB30C073BD66180E5C9E8E5AD6B5AD6B5755FFF358FFFFFE4CEDDEA52865DC935AFE6B0FFD321EF9AC7EAC8703FE8FE8116EAE5897ABC6DDBF9306042584010EAE07182584010EAE071870AE49B8DC41FA14B334228A75283F
1004
1035B4FFC43584EB06B0B400AC87FEA2ECC9AD6B5A7561EAA2FBB3AF463BF6B5986039243318EF490CC62CC301CBFDAD6B5517FFFFFFCD63FFF345FF7FEBA21EF9AC7EAC87AFFD45D9935AD6B4EAC03020EC57A5D33B581D8AF4BA676B0E15C9371B883E42966684514E96408E5934852F202999A1145394
1004
90EB2EB4B39D60646379D999D4DD005172302F02BD1A078706463B5AFD9C747310E77ACE3A398872D6B5AD6B5A340F7F9AC7FFFFFFE6B1FEFFD321FFA647F85BFC7843FEEC7FAE87FFFC1DC98C2AB7054318461492490598311560EF8DB82FFD59247F1E11F9AC7E6B1F9A2BACBAD2CE7581918DE7666753
1004
740145C8C0BC0A0C083B15E974CED60762BD2E99DAC385724DC6E20F90A599A11453A59023964D214BC80A66684514E5243ACBAD2CE7581918DE7675D0FB3F47C3A5AE8F3B3D1A078D7798EFDAD671D1CC439DEC439671D1CB5AD6B5AD68D03DFE6B1FFFFFFF9AC7FBFF4C87FE991FE16FF1E10FFBB1FEBA
1004
1FFFF0772630AADC150C61185249241660C45583BE36E0BFF56491FC7847E6B1F9AC7E6B0EB2EB4B39D60646379D9D743ECFD1F0E96BA3CEC0C083B15E974CED60762BD2E99DAC385724DC6E20F90A599A11453A59023964D214BC80A66684514E5243A83AD9D5D55189D292E2B33A9BA00A2E4605E057A3
1004
40F1FF3AF663BF6B59C747310E77B10E59C7472D6B5AD6B5A340F7F9AC7FFFFFFE6B1FEFFD321FFA647F85BFC7843FEEC7FAE87FFFC1DC98C2AB7054318461492490598311560EF8DB82FFD59247F1E11F9AC7E6B1F9AC3A83AD9D5D55189D292E2B33A9BA00A2E4605E05060470AE49B8DC41740E057A5D
1004
3397B0E15C9371B883E4053334228A721023964D214BC80A66684514E52408B7572C4BD5E36EC22DD5CB12F578DA1EAEABE900A63BF6B59C74735E4C77B5E4C59C7472FF6B5AD5D57F3B77A94A197724D6A9CF67D5595813E06FCD152EBBACA48BB252D8AFF3584E7B3EAACAC09F033FF211FD0FFC84381F
1004
E5363F29B022DD5CB12F578DBB08B7572C4BD5E368060478472C9A41614702BD2E99CBD870AE49B8DC41F21E11CB269059811CB2690A5E4053334228A7292045BAB9625EAF1B76116EAE5897ABC6D0F5755F483F4C76B5FB38E8E4705C18EF59C7472382E0C5AD6B5FEBAAFE76EF529432EE49AD539ECFAA
1004
B2B027C0DF9A2A5D7759491764A5B15FE6B09CF67D5595813E06FFFE87FE421C0FF29B1F94D8116EAE5897ABC6DD845BAB9625EAF1B403020EC57A5D33B582A415F950BC1DA1E11CB269058552CCD08A29D2C811CB2690A53213AC1AC2D002B23FD434B8F63D03D742921EAA2FA403CC77ED6C4391F928C7
1004
7A3F2518C4397FB5AD6AA2FFF9AC7FFFFFFE6B1FEFFE87FE991FEF7FD434B8F63D03D7429201810762BD2E99DAC1520AFCA85E0ED0F08E593482C2A966684514E96408E59348529909D60D616801591FEA1A5C7B1E81EBA1490F5517CFD2598ED6BF88723F2518EF621C8FC9462D6B5AFF545FFF358FFFFF
1004
FFCD63FFF4B21FFA647FBDFF50D2E3D8F40F5D0A4806041D8AF4BA676B03B15E974CED61E11CB269058552CCD08A29D2C811CB2690A5321E11CB2690598116EAE5897ABC6DDBF937ABAAFB30FB31DAD7F10E4914239DEC43924508E5AD6B5FEBAAFFF9AC7FFFFFFE6B1FEFFD321FFA647FB81FE6B1F9AC08
1004
B7572C4BD5E36EDFC983023C23964D20B0A5482BF2A1783B43C23964D20B0A14CCD08A29C8408E5934852990F08E593482CC3FF4CEDF9A2BD545F6675F0C76B5F92284723F2518EF49142391F928C5FEFF545FFFFF358FFFFFFFCD15FFA643FF4C8FF7AFFD33B7E68A0C08F08E593482C29520AFCA85E0ED
1004
0F08E593482C2853334228A721023964D214A643C23964D20B31F9AC3FF4C87AA8BE875F8C76B5F92284723F2518EF49142391F928C5FEFF545FFFFF358FFFFFFFCD15FFA643FF4C8FF7BF9AC3FF4C8060470AE49B8DC41743C23964D20B0AF08E593482C2853334228A721023964D214A643C23964D20B3
1004
0FFCE915FF9D2C3D545F3FE75FCC76B5F92284735E4C77A48A11CD79317FBFD517FFCD63FFFFFFFFF3457FE421FF9D2C7FBD7FE748AFFCE9601811E11CB269058578472C9A41615E11CB269058578472C9A41660472C9A4294C878472C9A41661FFA676FE4DEAA2FAB0580C76B5F9228472382E0C77A48A1
1004
1C8E0B8317FBFD517FFCD17FFFFFFFFF345FFFFFF7AFFD33B7F260C08F08E593482C2BC23964D20B0AF08E593482C2853334228A7210F08E593482CC3C23964D20B31FEFFC843D545F4B0584C76B5F922847242A873BD24508E48550E5FEFF545FFFFF345FFFFFFFCD17FFFFFDEFFBFF2100C08F08E59348
1004
2C2BC23964D20B0AE15C9371B883F4053334228A7210F08E593482CC27583585A005643FF4CECFFD321EAA2FDD7063B5AFC8550E490CC63BD215439243318BFDFEA8BFFFFFFE6B1FFF9A2FFBFF4C8FFFD590F5FFA6767FE9900C08E15C9371B882E878472C9A41615E11CB26905850A66684514E421E11CB
1004
26905984EB06B0B400AC8FD2CEDFA590F5517CD75C18ED6BF215439AF263BD215439AF262FF7FAA2FFF9AC7FFFFFFE68BFEFFC847FFE9643DFD2CEDFA5900C08F08E593482C2BC23964D20B0AF08E593482C2BC23964D20B30F08E593482CC27583585A005647FFEAC87AA8BE1671A18ED6BF2154391C170
1004
63BD2154391C17062FF7FAA2FFF9A2FFFFFFFE68BFFFFFFFEF7FFF56403023C23964D20B0AF08E593482C2B85724DC6E20FD0F08E593482CC08E59348529909D60D616801590FFCE915FF9D2C3D545F298588C76B5F8E0B831243318EF4705C1892198C5FEFF545FFFFFFF358FCD17FFFFFDFF9D2C7EAC87
1004
AFFCE915FF9D2C03023C23964D20B0A5482BF2A1783B43C23964D20B0AF08E593482CC08E59348529909D60D616801591FA59DBF4B21EAA2FBB058CC76B5F8E0B8311F928C77A382E0C47E4A317FBFD517FFFFCD63FFF345FFFFFF7FE991FA590F7F4B3B7E96403023C23964D20B0A5482BF2A1783B43857
1004
24DC6E20FD014CCD08A29C8408E59348529909D60D616801590FFC876FD4BB3D545F1C0590C76B5F92198C47E4A31DE92198C47E4A317FBFD517FFFFCD63FFFFFFF3587FE421FFA647EAC87AFFC876FD4BB03023C23964D20B0A5482BF2A1783B4385724DC6E20FD014CCD08A29C8408E59348529909D60D
1004
616801590F7CD17F937AA8BEE4E818ED6BF2433188FC9463BD2433188FC9462FF7FAA2FFFFF9AC7FFFFFFE6B0FFC843FF4C8FD590F5EF9A2FF260C08E15C9371B882E878472C9A41615C2B926E37107E80A66684514E420472C9A4294C84EB06B0B400AC8FF7FE990F5517DC003A31DAD7E486631AF263BD
1004
243318D79317FBFD517FFCD63FFFFF93FFFCD61FF9087FE991FAB21EFFBFF4C8060470AE49B8DC41741520AFCA85E0ED0F08E593482C2853334228A721023964D214A6427583585A005647EACEDFC9BD545F269063B5AFC7E4A31AF263BD1F928C6BC98BFDFEA8BFFE6B1FFFFFFF9AC7FBFF210FFD323F56
1004
43DFD59DBF93292EAEBC18
1005
281
  0
INSERT
  8
AME_FRZ
  5
281
  2
AME_NIL
 10
1.0
 20
1.0
 30
1.0
1001
AME_SOL
1004

1005
0
  0
ENDSEC
  0
EOF
