600 0 1 0           
88 GICL ACIS Healer - Source: /gicl/data5/repository/ICEM-CDC/demos/DEMO03/DEMO03.sat - 6 0 18 ACIS 6.0.3 Solaris 24 Sat Apr 13 23:08:51 2002 
1 9.999999999999999547e-07 1.000000000000000036e-10 
body $1 $2 $-1 $3 #
brep_non_volatile_id-cdc-attrib $-1 $-1 $-1 $0 1 #
lump $-1 $-1 $4 $0 #
transform $-1 1 0 0 0 1 0 0 0 1 0 0 0 1 no_rotate no_reflect no_shear #
shell $-1 $-1 $-1 $5 $-1 $2 #
face $6 $7 $8 $4 $-1 $9 reversed single #
face_name-twe-attrib $-1 $10 $-1 $5 1 #
face $11 $12 $13 $4 $-1 $14 reversed single #
loop $15 $16 $17 $5 #
cone-surface $18 135 25 1 0 0 1 5 0 0 1 I I 0 1 5 forward I I I I #
primitive_order-cdc-attrib $-1 $-1 $6 $5 8 8 #
face_name-twe-attrib $-1 $19 $-1 $7 2 #
face $20 $21 $22 $4 $-1 $23 reversed single #
loop $24 $25 $26 $7 #
cone-surface $27 135 25 20 0 0 1 7.5 0 0 1 I I 0 1 7.5 forward I I I I #
loop_type-twe-attrib $-1 $-1 $-1 $8 0 #
loop $28 $-1 $29 $5 #
coedge $-1 $17 $17 $30 $31 reversed $8 $-1 #
surf-twe-attrib $-1 $-1 $-1 $9 5 #
primitive_order-cdc-attrib $-1 $-1 $11 $7 8 8 #
face_name-twe-attrib $-1 $32 $-1 $12 3 #
face $33 $34 $35 $4 $-1 $36 forward single #
loop $37 $38 $39 $12 #
plane-surface $40 140 25 11 0 0 -1 -1 0 0 forward_v I I I I #
loop_type-twe-attrib $-1 $-1 $-1 $13 0 #
loop $41 $-1 $42 $7 #
coedge $-1 $26 $26 $43 $44 reversed $13 $-1 #
surf-twe-attrib $-1 $-1 $-1 $14 7 #
loop_type-twe-attrib $-1 $-1 $-1 $16 1 #
coedge $-1 $29 $29 $45 $46 forward $16 $-1 #
coedge $-1 $30 $30 $17 $31 forward $35 $-1 #
edge $47 $48 -3.141592653589793116 $48 3.141592653589793116 $30 $49 forward 7 unknown #
primitive_order-cdc-attrib $-1 $-1 $20 $12 8 8 #
face_name-twe-attrib $-1 $50 $-1 $21 4 #
face $51 $52 $53 $4 $-1 $54 reversed single #
loop $55 $56 $30 $21 #
plane-surface $57 75 40 0 0 0 -1 -1 0 0 forward_v I I I I #
loop_type-twe-attrib $-1 $-1 $-1 $22 0 #
loop $58 $-1 $45 $12 #
coedge $-1 $39 $39 $42 $59 forward $22 $-1 #
surf-twe-attrib $-1 $60 $-1 $23 61 #
loop_type-twe-attrib $-1 $-1 $-1 $25 1 #
coedge $-1 $42 $42 $39 $59 reversed $25 $-1 #
coedge $-1 $43 $43 $26 $44 forward $53 $-1 #
edge $61 $62 -3.141592653589806439 $62 3.141592653589779793 $43 $63 forward 7 unknown #
coedge $-1 $45 $45 $29 $46 reversed $38 $-1 #
edge $64 $65 0 $65 6.283185307179586232 $45 $66 forward 7 unknown #
edge_name-twe-attrib $-1 $-1 $-1 $31 3 8704 #
vertex $-1 $31 $67 #
ellipse-curve $68 135 25 0 0 0 1 5 0 0 1 I I #
primitive_order-cdc-attrib $-1 $-1 $33 $21 0 10 #
face_name-twe-attrib $-1 $69 $-1 $34 5 #
face $70 $71 $72 $4 $-1 $73 reversed single #
loop $74 $75 $43 $34 #
plane-surface $76 129.1161165235170074 37.5 20 0 0 -1 -1 0 0 forward_v I I I I #
loop_type-twe-attrib $-1 $-1 $-1 $35 1 #
loop $77 $78 $79 $21 #
surf-twe-attrib $-1 $-1 $-1 $36 21 #
loop_type-twe-attrib $-1 $-1 $-1 $38 1 #
edge $80 $81 0 $81 6.283185307179586232 $42 $82 forward 7 unknown #
surf-twe-attrib $-1 $-1 $40 $23 12 #
edge_name-twe-attrib $-1 $-1 $-1 $44 10 8704 #
vertex $-1 $44 $83 #
ellipse-curve $84 135 25 20 0 0 -1 7.5 0 0 1 I I #
edge_name-twe-attrib $-1 $-1 $-1 $46 2 8704 #
vertex $-1 $46 $85 #
ellipse-curve $86 135 25 11 0 0 1 5 0 0 1 I I #
point $-1 130 25 0 #
cur-twe-attrib $-1 $-1 $-1 $49 31 #
primitive_order-cdc-attrib $-1 $-1 $51 $34 6 10 #
face_name-twe-attrib $-1 $87 $-1 $52 6 #
face $88 $89 $90 $4 $-1 $91 reversed single #
loop $92 $93 $94 $52 #
cone-surface $95 135 50 1 0 0 1 5 0 0 1 I I 0 1 5 forward I I I I #
loop_type-twe-attrib $-1 $-1 $-1 $53 1 #
loop $96 $97 $98 $34 #
surf-twe-attrib $-1 $-1 $-1 $54 34 #
loop_type-twe-attrib $-1 $-1 $-1 $56 1 #
loop $99 $100 $101 $21 #
coedge $-1 $79 $79 $102 $103 forward $56 $-1 #
edge_name-twe-attrib $-1 $-1 $-1 $59 1 4608 #
vertex $-1 $59 $104 #
ellipse-curve $105 135 25 11 0 0 1 7.5 0 0 1 I I #
point $-1 127.5 24.99999999999990052 20 #
cur-twe-attrib $-1 $-1 $-1 $63 44 #
point $-1 140 25 11 #
cur-twe-attrib $-1 $-1 $-1 $66 46 #
primitive_order-cdc-attrib $-1 $-1 $70 $52 7 8 #
face_name-twe-attrib $-1 $106 $-1 $71 7 #
face $107 $108 $109 $4 $-1 $110 reversed single #
loop $111 $112 $113 $71 #
cone-surface $114 135 50 20 0 0 1 7.5 0 0 1 I I 0 1 7.5 forward I I I I #
loop_type-twe-attrib $-1 $-1 $-1 $72 0 #
loop $115 $-1 $116 $52 #
coedge $-1 $94 $94 $117 $118 reversed $72 $-1 #
surf-twe-attrib $-1 $-1 $-1 $73 52 #
loop_type-twe-attrib $-1 $-1 $-1 $75 0 #
loop $119 $-1 $120 $34 #
coedge $-1 $121 $122 $123 $124 forward $75 $-1 #
loop_type-twe-attrib $-1 $-1 $-1 $78 0 #
loop $125 $-1 $117 $21 #
coedge $-1 $126 $127 $128 $129 forward $78 $-1 #
coedge $-1 $102 $102 $79 $103 reversed $130 $-1 #
edge $131 $132 0 $132 6.283185307179586232 $79 $133 forward 7 unknown #
point $-1 142.5 25 11 #
cur-twe-attrib $-1 $-1 $-1 $82 59 #
primitive_order-cdc-attrib $-1 $-1 $88 $71 7 8 #
face_name-twe-attrib $-1 $134 $-1 $89 8 #
face $135 $136 $137 $4 $-1 $138 reversed single #
loop $139 $140 $141 $89 #
plane-surface $142 140 50 11 0 0 -1 -1 0 0 forward_v I I I I #
loop_type-twe-attrib $-1 $-1 $-1 $90 0 #
loop $143 $-1 $144 $71 #
coedge $-1 $113 $113 $120 $145 reversed $90 $-1 #
surf-twe-attrib $-1 $-1 $-1 $91 72 #
loop_type-twe-attrib $-1 $-1 $-1 $93 1 #
coedge $-1 $116 $116 $146 $147 forward $93 $-1 #
coedge $-1 $117 $117 $94 $118 forward $100 $-1 #
edge $148 $149 -3.141592653589793116 $149 3.141592653589793116 $117 $150 forward 7 unknown #
loop_type-twe-attrib $-1 $-1 $-1 $97 1 #
coedge $-1 $120 $120 $113 $145 forward $97 $-1 #
coedge $-1 $151 $98 $152 $153 forward $75 $-1 #
coedge $-1 $98 $154 $155 $156 reversed $75 $-1 #
coedge $-1 $157 $158 $98 $124 reversed $137 $-1 #
edge $159 $160 0 $161 25 $123 $162 forward 7 unknown #
loop_type-twe-attrib $-1 $-1 $-1 $100 1 #
coedge $-1 $163 $101 $164 $165 forward $78 $-1 #
coedge $-1 $101 $163 $166 $167 forward $78 $-1 #
coedge $-1 $168 $169 $101 $129 reversed $170 $-1 #
edge $171 $172 0 $173 150 $101 $174 forward 7 unknown #
loop $175 $176 $102 $177 #
edge_name-twe-attrib $-1 $-1 $-1 $103 4 8704 #
vertex $-1 $103 $178 #
ellipse-curve $179 15 40 0 0 0 1 6 0 0 1 I I #
primitive_order-cdc-attrib $-1 $-1 $107 $89 7 8 #
face_name-twe-attrib $-1 $180 $-1 $108 9 #
face $181 $182 $183 $4 $-1 $184 reversed single #
loop $185 $-1 $123 $108 #
plane-surface $186 150 65 30 0 1 0 0 0 1 forward_v I I I I #
loop_type-twe-attrib $-1 $-1 $-1 $109 0 #
loop $187 $-1 $146 $89 #
coedge $-1 $141 $141 $144 $188 forward $109 $-1 #
surf-twe-attrib $-1 $189 $-1 $110 61 #
loop_type-twe-attrib $-1 $-1 $-1 $112 1 #
coedge $-1 $144 $144 $141 $188 reversed $112 $-1 #
edge $190 $191 -3.141592653589793116 $191 3.141592653589793116 $120 $192 forward 7 unknown #
coedge $-1 $146 $146 $116 $147 reversed $140 $-1 #
edge $193 $194 0 $194 6.283185307179586232 $146 $195 forward 7 unknown #
edge_name-twe-attrib $-1 $-1 $-1 $118 9 8704 #
vertex $-1 $118 $196 #
ellipse-curve $197 135 50 0 0 0 1 5 0 0 1 I I #
coedge $-1 $198 $121 $199 $200 forward $75 $-1 #
coedge $-1 $201 $202 $121 $153 reversed $183 $-1 #
edge $203 $161 1.570796326794896558 $204 3.141592653589793116 $152 $205 forward 7 unknown #
coedge $-1 $122 $198 $206 $207 forward $75 $-1 #
coedge $-1 $208 $209 $122 $156 forward $210 $-1 #
edge $211 $160 -6.25 $212 48.75 $155 $213 forward 7 unknown #
coedge $-1 $214 $123 $209 $215 reversed $137 $-1 #
coedge $-1 $123 $214 $201 $216 forward $137 $-1 #
edge_name-twe-attrib $-1 $-1 $-1 $124 14 4608 #
vertex $-1 $215 $217 #
vertex $-1 $216 $218 #
straight-curve $219 150 65 20 -1 0 0 I I #
coedge $-1 $127 $126 $220 $221 forward $78 $-1 #
coedge $-1 $222 $223 $126 $165 reversed $224 $-1 #
edge $225 $173 0 $226 80 $126 $227 forward 7 unknown #
coedge $-1 $228 $229 $127 $167 reversed $210 $-1 #
edge $230 $231 0 $172 80 $127 $232 forward 7 unknown #
coedge $-1 $233 $128 $229 $234 forward $170 $-1 #
coedge $-1 $128 $235 $222 $236 reversed $170 $-1 #
loop $237 $-1 $233 $238 #
edge_name-twe-attrib $-1 $-1 $-1 $129 5 8704 #
vertex $-1 $129 $239 #
vertex $-1 $129 $240 #
straight-curve $241 150 0 0 -1 0 0 I I #
loop_type-twe-attrib $-1 $-1 $-1 $130 0 #
loop $242 $-1 $243 $177 #
face $244 $245 $130 $4 $-1 $246 reversed single #
point $-1 21 40 0 #
cur-twe-attrib $-1 $-1 $-1 $133 107 #
primitive_order-cdc-attrib $-1 $-1 $135 $108 6 10 #
face_name-twe-attrib $-1 $247 $-1 $136 10 #
face $248 $249 $250 $4 $-1 $251 reversed single #
loop $252 $-1 $152 $136 #
cone-surface $253 125 60 30 0 0 -1 5 0 0 1 I I 0 1 5 forward I I I I #
loop_type-twe-attrib $-1 $-1 $-1 $137 0 #
surf-twe-attrib $-1 $-1 $-1 $138 85 #
loop_type-twe-attrib $-1 $-1 $-1 $140 1 #
edge $254 $255 0 $255 6.283185307179586232 $144 $256 forward 7 unknown #
surf-twe-attrib $-1 $-1 $142 $110 12 #
edge_name-twe-attrib $-1 $-1 $-1 $145 11 8704 #
vertex $-1 $145 $257 #
ellipse-curve $258 135 50 20 0 0 -1 7.5 0 0 1 I I #
edge_name-twe-attrib $-1 $-1 $-1 $147 13 8704 #
vertex $-1 $147 $259 #
ellipse-curve $260 135 50 11 0 0 1 5 0 0 1 I I #
point $-1 130 50 0 #
cur-twe-attrib $-1 $-1 $-1 $150 127 #
coedge $-1 $154 $151 $261 $262 forward $75 $-1 #
coedge $-1 $263 $264 $151 $200 reversed $250 $-1 #
edge $265 $204 0 $266 45 $199 $267 forward 7 unknown #
coedge $-1 $268 $152 $158 $216 reversed $183 $-1 #
coedge $-1 $152 $268 $263 $269 forward $183 $-1 #
edge_name-twe-attrib $-1 $-1 $-1 $153 15 4608 #
vertex $-1 $269 $270 #
ellipse-curve $271 125 60 20 0 0 1 5 0 0 1 I I #
coedge $-1 $272 $273 $154 $207 reversed $274 $-1 #
edge $275 $276 0 $212 25 $206 $277 forward 7 unknown #
coedge $-1 $278 $155 $273 $279 forward $210 $-1 #
coedge $-1 $155 $280 $157 $215 forward $210 $-1 #
loop $281 $-1 $208 $282 #
edge_name-twe-attrib $-1 $-1 $-1 $156 30 8704 #
vertex $-1 $279 $283 #
straight-curve $284 150 58.75 20 0 -1 0 I I #
coedge $-1 $158 $157 $285 $286 reversed $137 $-1 #
edge $287 $288 -15 $160 -5 $209 $289 forward 7 unknown #
edge $290 $291 0 $161 10 $201 $292 forward 7 unknown #
point $-1 150 65 20 #
point $-1 125 65 20 #
cur-twe-attrib $-1 $-1 $-1 $162 133 #
coedge $-1 $293 $294 $163 $221 reversed $295 $-1 #
edge $296 $226 0 $231 150 $163 $297 forward 7 unknown #
coedge $-1 $298 $164 $169 $236 forward $224 $-1 #
coedge $-1 $164 $299 $293 $300 reversed $224 $-1 #
loop $301 $-1 $299 $302 #
edge_name-twe-attrib $-1 $-1 $-1 $165 6 8704 #
vertex $-1 $165 $303 #
straight-curve $304 0 0 0 0 1 0 I I #
coedge $-1 $305 $166 $294 $306 forward $210 $-1 #
coedge $-1 $166 $278 $168 $234 reversed $210 $-1 #
edge_name-twe-attrib $-1 $-1 $-1 $167 8 8704 #
vertex $-1 $221 $307 #
straight-curve $308 150 80 0 0 -1 0 I I #
coedge $-1 $309 $168 $310 $311 forward $170 $-1 #
edge $312 $172 0 $313 30 $168 $314 forward 7 unknown #
coedge $-1 $169 $315 $316 $317 forward $170 $-1 #
edge $318 $173 0 $319 50 $222 $320 forward 7 unknown #
loop_type-twe-attrib $-1 $-1 $-1 $170 0 #
face $321 $322 $170 $4 $-1 $323 forward single #
point $-1 150 0 0 #
point $-1 0 0 0 #
cur-twe-attrib $-1 $-1 $-1 $174 138 #
loop_type-twe-attrib $-1 $-1 $-1 $176 1 #
coedge $-1 $243 $243 $324 $325 reversed $176 $-1 #
face_name-twe-attrib $-1 $326 $-1 $177 29 #
face $327 $328 $329 $4 $-1 $330 reversed single #
cone-surface $331 15 40 25 0 0 1 6 0 0 1 I I 0 1 6 forward I I I I #
primitive_order-cdc-attrib $-1 $-1 $181 $136 6 10 #
face_name-twe-attrib $-1 $332 $-1 $182 11 #
face $333 $334 $335 $4 $-1 $336 reversed single #
loop $337 $-1 $199 $182 #
plane-surface $338 120 60 30 -1 0 0 0 0 1 forward_v I I I I #
loop_type-twe-attrib $-1 $-1 $-1 $183 0 #
surf-twe-attrib $-1 $-1 $-1 $184 112 #
edge_name-twe-attrib $-1 $-1 $-1 $188 12 4608 #
vertex $-1 $188 $339 #
ellipse-curve $340 135 50 11 0 0 1 7.5 0 0 1 I I #
point $-1 127.5 50 20 #
cur-twe-attrib $-1 $-1 $-1 $192 156 #
point $-1 140 50 11 #
cur-twe-attrib $-1 $-1 $-1 $195 157 #
coedge $-1 $341 $342 $198 $262 reversed $335 $-1 #
edge $343 $266 -3.141592653589793116 $276 -1.570796326794896558 $261 $344 forward 7 unknown #
coedge $-1 $345 $199 $202 $269 reversed $250 $-1 #
coedge $-1 $199 $345 $341 $346 forward $250 $-1 #
edge_name-twe-attrib $-1 $-1 $-1 $200 17 4608 #
vertex $-1 $346 $347 #
straight-curve $348 120 60 20 0 -1 0 I I #
coedge $-1 $202 $201 $349 $350 reversed $183 $-1 #
edge $351 $352 0 $204 10 $263 $353 forward 7 unknown #
point $-1 120 60 20 #
cur-twe-attrib $-1 $-1 $-1 $205 163 #
coedge $-1 $354 $206 $342 $355 reversed $274 $-1 #
coedge $-1 $206 $354 $208 $279 reversed $274 $-1 #
loop $356 $-1 $206 $334 #
edge_name-twe-attrib $-1 $-1 $-1 $207 21 4608 #
vertex $-1 $355 $357 #
straight-curve $358 125 10 20 1 0 0 I I #
coedge $-1 $229 $208 $359 $360 forward $210 $-1 #
edge $361 $212 5 $362 15 $208 $363 forward 7 unknown #
coedge $-1 $209 $364 $365 $366 forward $210 $-1 #
loop_type-twe-attrib $-1 $-1 $-1 $210 0 #
face $367 $368 $210 $4 $-1 $369 forward single #
point $-1 150 10 20 #
cur-twe-attrib $-1 $-1 $-1 $213 166 #
coedge $-1 $365 $349 $214 $286 forward $370 $-1 #
edge $371 $291 -15 $288 10 $285 $372 forward 7 unknown #
edge_name-twe-attrib $-1 $-1 $-1 $215 29 8704 #
vertex $-1 $366 $373 #
straight-curve $374 150 65 15 0 0 -1 I I #
edge_name-twe-attrib $-1 $-1 $-1 $216 16 20480 #
vertex $-1 $286 $375 #
straight-curve $376 125 65 30 0 0 -1 I I #
coedge $-1 $377 $220 $223 $300 forward $295 $-1 #
coedge $-1 $220 $377 $228 $306 reversed $295 $-1 #
loop $378 $-1 $377 $379 #
edge_name-twe-attrib $-1 $-1 $-1 $221 7 8704 #
straight-curve $380 0 80 0 1 0 0 I I #
coedge $-1 $381 $222 $382 $383 forward $224 $-1 #
coedge $-1 $223 $384 $385 $386 forward $224 $-1 #
edge $387 $226 0 $388 22.5 $293 $389 forward 7 unknown #
loop_type-twe-attrib $-1 $-1 $-1 $224 0 #
face $390 $391 $224 $4 $-1 $392 forward single #
point $-1 0 80 0 #
cur-twe-attrib $-1 $-1 $-1 $227 175 #
coedge $-1 $364 $228 $393 $394 forward $210 $-1 #
edge $395 $231 0 $396 22.5 $228 $397 forward 7 unknown #
point $-1 150 80 0 #
cur-twe-attrib $-1 $-1 $-1 $232 177 #
coedge $-1 $398 $233 $399 $400 forward $170 $-1 #
coedge $-1 $359 $401 $233 $311 reversed $370 $-1 #
edge $402 $313 -10 $403 30 $233 $404 forward 7 unknown #
edge_name-twe-attrib $-1 $-1 $-1 $234 96 8704 #
vertex $-1 $234 $405 #
straight-curve $406 150 0 0 0 0 1 I I #
coedge $-1 $235 $398 $407 $408 forward $170 $-1 #
coedge $-1 $409 $382 $235 $317 reversed $410 $-1 #
edge $411 $412 45 $319 85 $235 $413 forward 7 unknown #
edge_name-twe-attrib $-1 $-1 $-1 $236 81 8704 #
vertex $-1 $236 $414 #
straight-curve $415 0 0 0 0 0 1 I I #
face_name-twe-attrib $-1 $416 $-1 $238 38 #
face $417 $-1 $418 $4 $-1 $419 reversed single #
plane-surface $420 150 0 0 0 -1 0 0 0 -1 forward_v I I I I #
coedge $-1 $324 $324 $243 $325 forward $329 $-1 #
edge $421 $422 0 $422 6.283185307179586232 $324 $423 forward 7 unknown #
primitive_order-cdc-attrib $-1 $-1 $244 $177 4 3 #
face_name-twe-attrib $-1 $424 $-1 $245 30 #
face $425 $426 $427 $4 $-1 $428 reversed single #
loop $429 $410 $324 $245 #
plane-surface $430 20 40 50 0 0 -1 -1 0 0 forward_v I I I I #
surf-twe-attrib $-1 $-1 $-1 $246 187 #
primitive_order-cdc-attrib $-1 $-1 $248 $182 6 10 #
face_name-twe-attrib $-1 $431 $-1 $249 12 #
face $432 $282 $274 $4 $-1 $433 reversed single #
loop $434 $-1 $261 $249 #
cone-surface $435 125 15 30 0 0 -1 5 0 0 1 I I 0 1 5 forward I I I I #
loop_type-twe-attrib $-1 $-1 $-1 $250 0 #
surf-twe-attrib $-1 $-1 $-1 $251 145 #
point $-1 142.5 50 11 #
cur-twe-attrib $-1 $-1 $-1 $256 153 #
coedge $-1 $436 $261 $264 $346 reversed $335 $-1 #
coedge $-1 $261 $436 $272 $355 forward $335 $-1 #
edge_name-twe-attrib $-1 $-1 $-1 $262 19 4608 #
ellipse-curve $437 125 15 20 0 0 1 5 0 0 1 I I #
coedge $-1 $264 $263 $438 $439 reversed $250 $-1 #
edge $440 $441 0 $266 10 $341 $442 forward 7 unknown #
point $-1 120 15 20 #
cur-twe-attrib $-1 $-1 $-1 $267 210 #
coedge $-1 $285 $438 $268 $350 forward $370 $-1 #
edge $443 $352 -3.141592653589793116 $291 -1.570796326794896558 $349 $444 forward 7 unknown #
edge_name-twe-attrib $-1 $-1 $-1 $269 18 20480 #
vertex $-1 $350 $445 #
straight-curve $446 120 60 30 0 0 -1 I I #
coedge $-1 $273 $272 $447 $448 reversed $274 $-1 #
edge $449 $450 0 $276 10 $272 $451 forward 7 unknown #
loop_type-twe-attrib $-1 $-1 $-1 $274 0 #
point $-1 125 10 20 #
cur-twe-attrib $-1 $-1 $-1 $277 217 #
coedge $-1 $447 $310 $278 $360 reversed $370 $-1 #
edge $452 $362 50 $313 60 $278 $453 forward 7 unknown #
edge_name-twe-attrib $-1 $-1 $-1 $279 23 8704 #
vertex $-1 $448 $454 #
straight-curve $455 150 10 15 0 0 1 I I #
coedge $-1 $280 $305 $456 $457 forward $210 $-1 #
coedge $-1 $458 $285 $280 $366 reversed $370 $-1 #
edge $459 $460 -15 $288 -5 $280 $453 forward 7 unknown #
face_name-twe-attrib $-1 $461 $-1 $282 14 #
face $462 $463 $370 $4 $-1 $464 reversed single #
plane-surface $465 150 80 0 1 0 0 0 0 -1 forward_v I I I I #
loop $466 $-1 $447 $368 #
edge_name-twe-attrib $-1 $-1 $-1 $286 35 8704 #
straight-curve $467 140 65 30 1 0 0 I I #
point $-1 150 65 30 #
cur-twe-attrib $-1 $-1 $-1 $289 225 #
point $-1 125 65 30 #
cur-twe-attrib $-1 $-1 $-1 $292 226 #
coedge $-1 $294 $293 $468 $469 forward $295 $-1 #
loop_type-twe-attrib $-1 $-1 $-1 $295 0 #
face $470 $302 $295 $4 $-1 $471 forward single #
cur-twe-attrib $-1 $-1 $-1 $297 231 #
coedge $-1 $472 $298 $473 $474 reversed $224 $-1 #
coedge $-1 $316 $475 $298 $383 reversed $410 $-1 #
edge $476 $319 -20 $477 60 $298 $478 forward 7 unknown #
coedge $-1 $299 $472 $479 $480 forward $224 $-1 #
coedge $-1 $481 $468 $299 $386 reversed $482 $-1 #
edge $483 $484 37.5 $388 42.5 $299 $485 forward 7 unknown #
edge_name-twe-attrib $-1 $-1 $-1 $300 79 8704 #
vertex $-1 $300 $486 #
straight-curve $487 0 80 0 0 0 1 I I #
face_name-twe-attrib $-1 $488 $-1 $302 36 #
face $489 $238 $490 $4 $-1 $471 forward single #
plane-surface $491 0 0 0 -1 0 0 0 0 1 forward_v I I I I #
coedge $-1 $468 $481 $305 $394 reversed $482 $-1 #
edge $492 $396 -2.5 $493 2.5 $305 $494 forward 7 unknown #
edge_name-twe-attrib $-1 $-1 $-1 $306 25 8704 #
vertex $-1 $306 $495 #
straight-curve $496 150 80 0 0 0 1 I I #
coedge $-1 $315 $309 $497 $498 forward $170 $-1 #
coedge $-1 $499 $500 $309 $400 reversed $501 $-1 #
edge $502 $403 0 $503 30 $309 $504 forward 7 unknown #
coedge $-1 $310 $458 $499 $505 forward $370 $-1 #
edge_name-twe-attrib $-1 $-1 $-1 $311 91 8704 #
vertex $-1 $400 $506 #
straight-curve $507 140 0 30 -1 0 0 I I #
point $-1 150 0 30 #
cur-twe-attrib $-1 $-1 $-1 $314 244 #
coedge $-1 $508 $509 $315 $408 reversed $418 $-1 #
edge $510 $511 -30 $412 -20 $315 $512 forward 7 unknown #
coedge $-1 $475 $316 $509 $513 forward $410 $-1 #
loop $514 $-1 $409 $245 #
edge_name-twe-attrib $-1 $-1 $-1 $317 95 8704 #
vertex $-1 $408 $515 #
straight-curve $516 85 0 50 -1 0 0 I I #
point $-1 0 0 50 #
cur-twe-attrib $-1 $-1 $-1 $320 246 #
primitive_order-cdc-attrib $-1 $-1 $321 $238 0 10 #
face_name-twe-attrib $-1 $517 $-1 $322 39 #
loop $518 $-1 $509 $322 #
plane-surface $519 40 0 60 1 0 0 0 0 -1 forward_v I I I I #
surf-twe-attrib $-1 $-1 $-1 $323 248 #
edge_name-twe-attrib $-1 $-1 $-1 $325 72 8704 #
vertex $-1 $325 $520 #
ellipse-curve $521 15 40 50 0 0 -1 6 0 0 1 I I #
primitive_order-cdc-attrib $-1 $-1 $327 $245 1 10 #
face_name-twe-attrib $-1 $522 $-1 $328 31 #
face $523 $524 $525 $4 $-1 $526 reversed single #
loop $527 $-1 $528 $328 #
plane-surface $529 150 75 37.5 0 -1 0 0 0 -1 forward_v I I I I #
loop_type-twe-attrib $-1 $-1 $-1 $329 1 #
surf-twe-attrib $-1 $-1 $-1 $330 255 #
primitive_order-cdc-attrib $-1 $-1 $333 $249 6 10 #
face_name-twe-attrib $-1 $530 $-1 $334 13 #
plane-surface $531 125 10 30 0 -1 0 0 0 -1 forward_v I I I I #
loop_type-twe-attrib $-1 $-1 $-1 $335 0 #
surf-twe-attrib $-1 $-1 $-1 $336 192 #
coedge $-1 $342 $341 $532 $533 reversed $335 $-1 #
cur-twe-attrib $-1 $-1 $-1 $344 271 #
coedge $-1 $349 $532 $345 $439 forward $370 $-1 #
edge $534 $441 -35 $352 10 $438 $535 forward 7 unknown #
edge_name-twe-attrib $-1 $-1 $-1 $346 20 20480 #
vertex $-1 $439 $536 #
straight-curve $537 120 15 30 0 0 -1 I I #
edge_name-twe-attrib $-1 $-1 $-1 $350 34 8704 #
ellipse-curve $538 125 60 30 0 0 -1 5 0 0 1 I I #
point $-1 120 60 30 #
cur-twe-attrib $-1 $-1 $-1 $353 278 #
coedge $-1 $532 $359 $354 $448 forward $370 $-1 #
edge $539 $362 -22.5 $450 2.5 $447 $540 forward 7 unknown #
edge_name-twe-attrib $-1 $-1 $-1 $355 22 20480 #
vertex $-1 $533 $541 #
straight-curve $542 125 10 30 0 0 -1 I I #
edge_name-twe-attrib $-1 $-1 $-1 $360 24 8704 #
straight-curve $543 150 60 30 0 -1 0 I I #
point $-1 150 10 30 #
cur-twe-attrib $-1 $-1 $-1 $363 288 #
coedge $-1 $544 $528 $364 $457 reversed $427 $-1 #
edge $545 $493 3.75 $460 11.25 $364 $546 forward 7 unknown #
coedge $-1 $401 $365 $528 $547 forward $370 $-1 #
edge_name-twe-attrib $-1 $-1 $-1 $366 28 8704 #
vertex $-1 $547 $548 #
primitive_order-cdc-attrib $-1 $-1 $367 $282 0 10 #
face_name-twe-attrib $-1 $549 $-1 $368 15 #
face $550 $551 $552 $4 $-1 $553 reversed single #
plane-surface $554 130 40 30 0 0 -1 -1 0 0 forward_v I I I I #
surf-twe-attrib $-1 $-1 $-1 $369 291 #
loop_type-twe-attrib $-1 $-1 $-1 $370 0 #
cur-twe-attrib $-1 $-1 $-1 $372 295 #
coedge $-1 $385 $393 $377 $469 reversed $482 $-1 #
edge $555 $388 -75 $396 75 $377 $556 forward 7 unknown #
face_name-twe-attrib $-1 $557 $-1 $379 35 #
plane-surface $558 0 80 0 0 1 0 0 0 1 forward_v I I I I #
coedge $-1 $384 $381 $559 $560 forward $224 $-1 #
coedge $-1 $561 $562 $381 $474 forward $490 $-1 #
edge $563 $564 37.5 $477 50 $473 $389 forward 7 unknown #
coedge $-1 $382 $409 $561 $565 reversed $410 $-1 #
edge_name-twe-attrib $-1 $-1 $-1 $383 82 8704 #
vertex $-1 $474 $566 #
straight-curve $567 0 20 50 0 1 0 I I #
coedge $-1 $568 $544 $384 $480 reversed $427 $-1 #
edge $569 $570 -18.75 $484 -3.75 $384 $571 forward 7 unknown #
coedge $-1 $393 $385 $544 $572 reversed $482 $-1 #
loop $573 $-1 $385 $524 #
edge_name-twe-attrib $-1 $-1 $-1 $386 80 8704 #
vertex $-1 $480 $574 #
straight-curve $575 0 37.5 22.5 0 1 0 I I #
point $-1 0 80 22.5 #
cur-twe-attrib $-1 $576 $-1 $389 476 #
primitive_order-cdc-attrib $-1 $-1 $390 $302 0 10 #
face_name-twe-attrib $-1 $577 $-1 $391 37 #
loop $578 $-1 $562 $391 #
surf-twe-attrib $-1 $-1 $-1 $392 311 #
edge_name-twe-attrib $-1 $-1 $-1 $394 26 8704 #
vertex $-1 $457 $579 #
straight-curve $580 150 77.5 22.5 0 -1 0 I I #
point $-1 150 80 22.5 #
cur-twe-attrib $-1 $-1 $-1 $397 315 #
coedge $-1 $581 $582 $398 $498 reversed $583 $-1 #
edge $584 $503 40 $511 110 $398 $585 forward 7 unknown #
coedge $-1 $586 $399 $401 $505 reversed $501 $-1 #
coedge $-1 $399 $587 $581 $588 reversed $501 $-1 #
loop $589 $-1 $586 $590 #
edge_name-twe-attrib $-1 $-1 $-1 $400 92 8704 #
vertex $-1 $588 $591 #
straight-curve $592 110 0 30 0 0 1 I I #
edge $593 $594 5 $403 80 $499 $595 forward 7 unknown #
point $-1 110 0 30 #
cur-twe-attrib $-1 $-1 $-1 $404 320 #
coedge $-1 $596 $407 $582 $597 reversed $418 $-1 #
coedge $-1 $407 $596 $409 $513 reversed $418 $-1 #
edge_name-twe-attrib $-1 $-1 $-1 $408 94 8704 #
vertex $-1 $498 $598 #
straight-curve $599 40 0 30 0 0 -1 I I #
edge $600 $412 0 $601 80 $509 $602 forward 7 unknown #
loop_type-twe-attrib $-1 $-1 $-1 $410 0 #
point $-1 40 0 50 #
cur-twe-attrib $-1 $-1 $-1 $413 326 #
primitive_order-cdc-attrib $-1 $-1 $417 $322 1 10 #
loop_type-twe-attrib $-1 $-1 $-1 $418 0 #
surf-twe-attrib $-1 $-1 $-1 $419 331 #
point $-1 21 40 50 #
cur-twe-attrib $-1 $-1 $-1 $423 334 #
primitive_order-cdc-attrib $-1 $-1 $425 $328 3 10 #
face_name-twe-attrib $-1 $603 $-1 $426 32 #
face $604 $590 $482 $4 $-1 $605 reversed single #
loop $606 $-1 $607 $426 #
plane-surface $608 150 80 37.5 0 0 1 1 0 0 forward_v I I I I #
loop_type-twe-attrib $-1 $-1 $-1 $427 0 #
coedge $-1 $456 $609 $458 $547 reversed $427 $-1 #
surf-twe-attrib $-1 $-1 $-1 $428 337 #
primitive_order-cdc-attrib $-1 $-1 $432 $334 6 10 #
surf-twe-attrib $-1 $-1 $-1 $433 259 #
coedge $-1 $438 $447 $436 $533 forward $370 $-1 #
edge $610 $450 1.570796326794896558 $441 3.141592653589793116 $532 $611 forward 7 unknown #
edge_name-twe-attrib $-1 $-1 $-1 $439 33 8704 #
straight-curve $612 120 50 30 0 1 0 I I #
point $-1 120 15 30 #
cur-twe-attrib $-1 $-1 $-1 $442 351 #
cur-twe-attrib $-1 $-1 $-1 $444 355 #
edge_name-twe-attrib $-1 $-1 $-1 $448 31 8704 #
straight-curve $613 127.5 10 30 -1 0 0 I I #
point $-1 125 10 30 #
cur-twe-attrib $-1 $-1 $-1 $451 360 #
cur-twe-attrib $-1 $614 $-1 $453 371 #
coedge $-1 $479 $456 $481 $572 forward $427 $-1 #
edge_name-twe-attrib $-1 $-1 $-1 $457 27 8704 #
straight-curve $615 150 75 18.75 0 0 1 I I #
edge $616 $460 -10 $594 30 $458 $617 forward 7 unknown #
point $-1 150 75 30 #
primitive_order-cdc-attrib $-1 $-1 $462 $368 2 10 #
face_name-twe-attrib $-1 $618 $-1 $463 16 #
face $619 $620 $621 $4 $-1 $622 reversed single #
loop $623 $-1 $624 $463 #
cone-surface $625 55 65 60 0 0 -1 5 0 0 1 I I 0 1 5 forward I I I I #
surf-twe-attrib $-1 $626 $-1 $464 627 #
edge_name-twe-attrib $-1 $-1 $-1 $469 78 8704 #
straight-curve $627 75 80 22.5 1 0 0 I I #
primitive_order-cdc-attrib $-1 $-1 $470 $379 0 10 #
surf-twe-attrib $-1 $628 $-1 $471 396 #
coedge $-1 $629 $630 $472 $560 reversed $525 $-1 #
edge $631 $564 -40 $570 -35 $472 $632 forward 7 unknown #
coedge $-1 $633 $473 $475 $565 forward $490 $-1 #
coedge $-1 $473 $634 $629 $635 forward $490 $-1 #
edge_name-twe-attrib $-1 $-1 $-1 $474 86 8704 #
vertex $-1 $635 $636 #
edge $637 $477 -10 $601 30 $561 $638 forward 7 unknown #
point $-1 0 80 50 #
cur-twe-attrib $-1 $-1 $-1 $478 388 #
coedge $-1 $609 $479 $630 $639 reversed $427 $-1 #
edge_name-twe-attrib $-1 $-1 $-1 $480 84 8704 #
vertex $-1 $480 $640 #
straight-curve $641 0 75 18.75 0 0 -1 I I #
edge $642 $493 0 $484 150 $481 $643 forward 7 unknown #
loop_type-twe-attrib $-1 $-1 $-1 $482 0 #
point $-1 0 75 22.5 #
cur-twe-attrib $-1 $-1 $-1 $485 391 #
cur-twe-attrib $-1 $-1 $487 $389 309 #
primitive_order-cdc-attrib $-1 $-1 $489 $391 0 10 #
loop_type-twe-attrib $-1 $-1 $-1 $490 0 #
point $-1 150 75 22.5 #
cur-twe-attrib $-1 $-1 $-1 $494 399 #
coedge $-1 $644 $497 $500 $588 forward $583 $-1 #
coedge $-1 $497 $644 $508 $597 forward $583 $-1 #
loop $645 $-1 $581 $646 #
edge_name-twe-attrib $-1 $-1 $-1 $498 93 8704 #
straight-curve $647 150 0 60 -1 0 0 I I #
coedge $-1 $648 $499 $609 $649 forward $501 $-1 #
coedge $-1 $500 $648 $634 $650 reversed $501 $-1 #
edge $651 $503 -60 $652 20 $581 $653 forward 7 unknown #
loop_type-twe-attrib $-1 $-1 $-1 $501 0 #
face $654 $379 $501 $4 $-1 $655 reversed single #
point $-1 110 0 60 #
cur-twe-attrib $-1 $-1 $-1 $504 405 #
edge_name-twe-attrib $-1 $-1 $-1 $505 77 4608 #
vertex $-1 $649 $656 #
straight-curve $657 110 80 30 0 -1 0 I I #
coedge $-1 $509 $508 $633 $658 reversed $418 $-1 #
edge $659 $660 -60 $511 20 $582 $661 forward 7 unknown #
point $-1 40 0 60 #
cur-twe-attrib $-1 $-1 $-1 $512 413 #
edge_name-twe-attrib $-1 $-1 $-1 $513 97 4608 #
vertex $-1 $658 $662 #
straight-curve $663 40 0 50 0 1 0 I I #
primitive_order-cdc-attrib $-1 $-1 $523 $426 3 10 #
face_name-twe-attrib $-1 $664 $-1 $524 33 #
plane-surface $665 150 75 22.5 0 0 -1 -1 0 0 forward_v I I I I #
loop_type-twe-attrib $-1 $-1 $-1 $525 0 #
coedge $-1 $630 $629 $648 $666 reversed $525 $-1 #
surf-twe-attrib $-1 $-1 $-1 $526 431 #
coedge $-1 $528 $568 $586 $649 reversed $427 $-1 #
edge_name-twe-attrib $-1 $-1 $-1 $533 32 8704 #
ellipse-curve $667 125 15 30 0 0 -1 5 0 0 1 I I #
cur-twe-attrib $-1 $-1 $-1 $535 441 #
cur-twe-attrib $-1 $-1 $-1 $540 450 #
cur-twe-attrib $-1 $-1 $543 $453 365 #
cur-twe-attrib $-1 $-1 $-1 $546 459 #
edge_name-twe-attrib $-1 $-1 $-1 $547 36 8704 #
straight-curve $668 140 75 30 -1 0 0 I I #
primitive_order-cdc-attrib $-1 $-1 $550 $463 5 10 #
face_name-twe-attrib $-1 $669 $-1 $551 17 #
face $670 $671 $672 $4 $-1 $673 reversed single #
loop $674 $-1 $675 $551 #
plane-surface $676 50 65 60 -1 0 0 0 0 1 forward_v I I I I #
loop_type-twe-attrib $-1 $-1 $-1 $552 0 #
coedge $-1 $677 $678 $679 $680 reversed $552 $-1 #
surf-twe-attrib $-1 $-1 $-1 $553 465 #
surf-twe-attrib $-1 $-1 $554 $464 373 #
cur-twe-attrib $-1 $-1 $-1 $556 471 #
surf-twe-attrib $-1 $-1 $558 $471 384 #
coedge $-1 $607 $559 $562 $635 reversed $525 $-1 #
coedge $-1 $559 $607 $568 $639 forward $525 $-1 #
edge_name-twe-attrib $-1 $-1 $-1 $560 83 8704 #
straight-curve $681 0 40 37.5 0 -1 0 I I #
coedge $-1 $682 $561 $596 $658 forward $490 $-1 #
coedge $-1 $562 $682 $587 $650 forward $490 $-1 #
edge $683 $684 -35 $564 75 $562 $685 forward 7 unknown #
point $-1 0 80 37.5 #
edge_name-twe-attrib $-1 $-1 $-1 $565 87 8704 #
straight-curve $686 10 80 50 1 0 0 I I #
edge $687 $688 40 $570 150 $568 $689 forward 7 unknown #
point $-1 0 75 37.5 #
cur-twe-attrib $-1 $-1 $-1 $571 482 #
edge_name-twe-attrib $-1 $-1 $-1 $572 74 4608 #
straight-curve $690 150 75 22.5 -1 0 0 I I #
coedge $-1 $582 $581 $682 $691 reversed $583 $-1 #
loop_type-twe-attrib $-1 $-1 $-1 $583 0 #
face $692 $177 $693 $4 $-1 $694 forward single #
cur-twe-attrib $-1 $-1 $-1 $585 500 #
coedge $-1 $587 $586 $607 $666 forward $501 $-1 #
edge $695 $594 -18.75 $688 -11.25 $586 $696 forward 7 unknown #
edge $697 $652 -30 $684 -7.5 $634 $698 forward 7 unknown #
edge_name-twe-attrib $-1 $-1 $-1 $588 70 8704 #
vertex $-1 $691 $699 #
straight-curve $700 110 60 60 0 1 0 I I #
face_name-twe-attrib $-1 $701 $-1 $590 34 #
plane-surface $702 110 80 60 -1 0 0 0 0 1 forward_v I I I I #
point $-1 110 75 30 #
cur-twe-attrib $-1 $-1 $-1 $595 507 #
edge $703 $601 20 $660 30 $633 $704 forward 7 unknown #
edge_name-twe-attrib $-1 $-1 $-1 $597 71 8704 #
vertex $-1 $597 $705 #
straight-curve $706 40 20 60 0 -1 0 I I #
point $-1 40 80 50 #
cur-twe-attrib $-1 $-1 $-1 $602 515 #
primitive_order-cdc-attrib $-1 $-1 $604 $524 3 10 #
surf-twe-attrib $-1 $-1 $-1 $605 526 #
edge $707 $688 -5 $684 0 $648 $708 forward 7 unknown #
cur-twe-attrib $-1 $-1 $-1 $611 533 #
cur-twe-attrib $-1 $-1 $-1 $617 547 #
primitive_order-cdc-attrib $-1 $-1 $619 $551 5 10 #
face_name-twe-attrib $-1 $709 $-1 $620 18 #
face $710 $711 $712 $4 $-1 $713 reversed single #
loop $714 $-1 $715 $620 #
cone-surface $716 55 35 60 0 0 -1 5 0 0 1 I I 0 1 5 forward I I I I #
loop_type-twe-attrib $-1 $-1 $-1 $621 0 #
coedge $-1 $717 $718 $719 $720 reversed $621 $-1 #
surf-twe-attrib $-1 $-1 $-1 $622 551 #
coedge $-1 $721 $624 $722 $723 reversed $552 $-1 #
coedge $-1 $624 $721 $717 $724 forward $552 $-1 #
coedge $-1 $719 $725 $624 $680 forward $726 $-1 #
edge $727 $728 1.570796326794896558 $729 3.141592653589793116 $624 $730 forward 7 unknown #
cur-twe-attrib $-1 $-1 $-1 $632 560 #
coedge $-1 $634 $633 $644 $691 forward $490 $-1 #
edge_name-twe-attrib $-1 $-1 $-1 $635 85 8704 #
vertex $-1 $650 $731 #
straight-curve $732 75 80 37.5 -1 0 0 I I #
cur-twe-attrib $-1 $-1 $-1 $638 565 #
edge_name-twe-attrib $-1 $-1 $-1 $639 73 4608 #
vertex $-1 $649 $733 #
straight-curve $734 150 75 37.5 -1 0 0 I I #
cur-twe-attrib $-1 $-1 $-1 $643 572 #
edge $735 $660 40 $652 110 $682 $736 forward 7 unknown #
face_name-twe-attrib $-1 $737 $-1 $646 28 #
loop $738 $583 $739 $646 #
plane-surface $740 75 40 60 0 0 1 1 0 0 forward_v I I I I #
edge_name-twe-attrib $-1 $-1 $-1 $649 75 8704 #
straight-curve $741 110 75 48.75 0 0 1 I I #
edge_name-twe-attrib $-1 $-1 $-1 $650 90 8704 #
straight-curve $742 110 80 30 0 0 -1 I I #
point $-1 110 80 60 #
cur-twe-attrib $-1 $-1 $-1 $653 588 #
primitive_order-cdc-attrib $-1 $-1 $654 $590 2 10 #
surf-twe-attrib $-1 $-1 $-1 $655 590 #
edge_name-twe-attrib $-1 $-1 $-1 $658 88 8704 #
straight-curve $743 40 80 30 0 0 1 I I #
point $-1 40 80 60 #
cur-twe-attrib $-1 $-1 $-1 $661 597 #
edge_name-twe-attrib $-1 $-1 $-1 $666 76 8704 #
straight-curve $744 110 80 37.5 0 1 0 I I #
primitive_order-cdc-attrib $-1 $-1 $670 $620 5 10 #
face_name-twe-attrib $-1 $745 $-1 $671 19 #
face $746 $747 $748 $4 $-1 $749 reversed single #
loop $750 $-1 $751 $671 #
plane-surface $752 55 30 60 0 -1 0 0 0 -1 forward_v I I I I #
loop_type-twe-attrib $-1 $-1 $-1 $672 0 #
coedge $-1 $753 $754 $755 $756 reversed $672 $-1 #
surf-twe-attrib $-1 $-1 $-1 $673 620 #
coedge $-1 $757 $675 $678 $724 reversed $621 $-1 #
coedge $-1 $675 $757 $753 $758 forward $621 $-1 #
coedge $-1 $755 $679 $675 $720 forward $726 $-1 #
edge $759 $729 0 $760 30 $675 $761 forward 7 unknown #
coedge $-1 $678 $677 $739 $762 reversed $552 $-1 #
coedge $-1 $763 $764 $677 $723 forward $765 $-1 #
edge $766 $767 0 $728 30 $677 $768 forward 7 unknown #
edge $769 $770 0 $729 30 $717 $771 forward 7 unknown #
coedge $-1 $679 $772 $763 $773 forward $726 $-1 #
loop $774 $-1 $679 $775 #
edge_name-twe-attrib $-1 $-1 $-1 $680 37 4608 #
vertex $-1 $723 $776 #
vertex $-1 $724 $777 #
ellipse-curve $778 55 65 30 0 0 1 5 0 0 1 I I #
point $-1 110 80 37.5 #
cur-twe-attrib $-1 $-1 $-1 $685 636 #
point $-1 110 75 37.5 #
cur-twe-attrib $-1 $-1 $-1 $689 640 #
edge_name-twe-attrib $-1 $-1 $-1 $691 89 8704 #
straight-curve $779 0 80 60 1 0 0 I I #
primitive_order-cdc-attrib $-1 $-1 $692 $646 0 10 #
loop_type-twe-attrib $-1 $-1 $-1 $693 1 #
coedge $-1 $780 $781 $721 $762 forward $693 $-1 #
surf-twe-attrib $-1 $-1 $-1 $694 647 #
cur-twe-attrib $-1 $-1 $-1 $696 650 #
cur-twe-attrib $-1 $-1 $-1 $698 651 #
cur-twe-attrib $-1 $-1 $-1 $704 659 #
cur-twe-attrib $-1 $-1 $-1 $708 667 #
primitive_order-cdc-attrib $-1 $-1 $710 $671 5 10 #
face_name-twe-attrib $-1 $782 $-1 $711 20 #
face $783 $784 $785 $4 $-1 $786 reversed single #
loop $787 $-1 $788 $711 #
plane-surface $789 70 30 60 -1 0 0 0 0 1 forward_v I I I I #
loop_type-twe-attrib $-1 $-1 $-1 $712 0 #
coedge $-1 $790 $791 $792 $793 reversed $712 $-1 #
surf-twe-attrib $-1 $-1 $-1 $713 672 #
coedge $-1 $794 $715 $718 $758 reversed $672 $-1 #
coedge $-1 $715 $794 $790 $795 forward $672 $-1 #
coedge $-1 $792 $719 $715 $756 forward $726 $-1 #
edge $796 $760 -3.141592653589793116 $797 -1.570796326794896558 $715 $798 forward 7 unknown #
coedge $-1 $718 $717 $781 $799 reversed $621 $-1 #
edge $800 $801 0 $760 30 $753 $802 forward 7 unknown #
edge_name-twe-attrib $-1 $-1 $-1 $720 39 4608 #
vertex $-1 $758 $803 #
straight-curve $804 50 65 30 0 -1 0 I I #
edge $805 $770 -3.141592653589793116 $767 -1.570796326794896558 $739 $806 forward 7 unknown #
coedge $-1 $807 $722 $725 $773 reversed $765 $-1 #
coedge $-1 $722 $807 $780 $808 reversed $765 $-1 #
loop $809 $-1 $763 $810 #
edge_name-twe-attrib $-1 $-1 $-1 $723 38 20480 #
vertex $-1 $762 $811 #
straight-curve $812 55 70 60 0 0 -1 I I #
edge_name-twe-attrib $-1 $-1 $-1 $724 40 20480 #
vertex $-1 $762 $813 #
straight-curve $814 50 65 60 0 0 -1 I I #
coedge $-1 $725 $815 $816 $817 forward $726 $-1 #
edge $818 $819 0 $728 35 $763 $820 forward 7 unknown #
loop_type-twe-attrib $-1 $-1 $-1 $726 0 #
face $821 $646 $726 $4 $-1 $822 reversed single #
point $-1 55 70 30 #
point $-1 50 65 30 #
cur-twe-attrib $-1 $-1 $-1 $730 681 #
cur-twe-attrib $-1 $-1 $-1 $736 695 #
coedge $-1 $823 $739 $764 $808 forward $693 $-1 #
coedge $-1 $739 $824 $757 $799 forward $693 $-1 #
primitive_order-cdc-attrib $-1 $-1 $746 $711 5 10 #
face_name-twe-attrib $-1 $825 $-1 $747 21 #
face $826 $827 $828 $4 $-1 $829 reversed single #
loop $830 $-1 $831 $747 #
cone-surface $832 75 20 60 0 0 -1 5 0 0 1 I I 0 1 5 forward I I I I #
loop_type-twe-attrib $-1 $-1 $-1 $748 0 #
coedge $-1 $833 $834 $835 $836 reversed $748 $-1 #
surf-twe-attrib $-1 $-1 $-1 $749 715 #
coedge $-1 $837 $751 $754 $795 reversed $712 $-1 #
coedge $-1 $751 $837 $833 $838 forward $712 $-1 #
coedge $-1 $835 $755 $751 $793 forward $726 $-1 #
edge $839 $797 0 $840 15 $751 $841 forward 7 unknown #
coedge $-1 $754 $753 $824 $842 reversed $672 $-1 #
edge $843 $844 0 $797 30 $790 $845 forward 7 unknown #
edge_name-twe-attrib $-1 $-1 $-1 $756 41 4608 #
vertex $-1 $795 $846 #
ellipse-curve $847 55 35 30 0 0 1 5 0 0 1 I I #
edge $848 $801 -17.5 $770 12.5 $781 $849 forward 7 unknown #
edge_name-twe-attrib $-1 $-1 $-1 $758 42 20480 #
vertex $-1 $799 $850 #
straight-curve $851 50 35 60 0 0 -1 I I #
point $-1 50 35 30 #
cur-twe-attrib $-1 $-1 $-1 $761 724 #
edge_name-twe-attrib $-1 $-1 $-1 $762 59 8704 #
ellipse-curve $852 55 65 60 0 0 -1 5 0 0 1 I I #
coedge $-1 $764 $763 $853 $854 reversed $765 $-1 #
edge $855 $767 -27.5 $856 7.5 $780 $857 forward 7 unknown #
loop_type-twe-attrib $-1 $-1 $-1 $765 0 #
face $858 $775 $765 $4 $-1 $859 reversed single #
point $-1 55 70 60 #
cur-twe-attrib $-1 $-1 $-1 $768 727 #
point $-1 50 65 60 #
cur-twe-attrib $-1 $-1 $-1 $771 728 #
coedge $-1 $772 $860 $861 $862 forward $726 $-1 #
coedge $-1 $863 $853 $772 $817 reversed $864 $-1 #
edge $865 $866 0 $819 1.570796326794896558 $816 $867 forward 7 unknown #
edge_name-twe-attrib $-1 $-1 $-1 $773 57 4608 #
vertex $-1 $854 $868 #
straight-curve $869 90 70 30 -1 0 0 I I #
face_name-twe-attrib $-1 $870 $-1 $775 27 #
plane-surface $871 72.27902913087919501 39.77902913087920211 30 0 0 -1 -1 0 0 forward_v I I I I #
coedge $-1 $872 $780 $873 $874 forward $693 $-1 #
coedge $-1 $781 $875 $794 $842 forward $693 $-1 #
primitive_order-cdc-attrib $-1 $-1 $783 $747 5 10 #
face_name-twe-attrib $-1 $876 $-1 $784 22 #
face $877 $878 $879 $4 $-1 $880 reversed single #
loop $881 $-1 $882 $784 #
plane-surface $883 75 15 60 0 -1 0 0 0 -1 forward_v I I I I #
loop_type-twe-attrib $-1 $-1 $-1 $785 0 #
coedge $-1 $884 $885 $886 $887 reversed $785 $-1 #
surf-twe-attrib $-1 $-1 $-1 $786 753 #
coedge $-1 $888 $788 $791 $838 reversed $748 $-1 #
coedge $-1 $788 $888 $884 $889 forward $748 $-1 #
coedge $-1 $886 $792 $788 $836 forward $726 $-1 #
edge $890 $840 0 $891 10 $788 $892 forward 7 unknown #
coedge $-1 $791 $790 $875 $893 reversed $712 $-1 #
edge $894 $895 0 $840 30 $833 $896 forward 7 unknown #
edge_name-twe-attrib $-1 $-1 $-1 $793 43 4608 #
vertex $-1 $838 $897 #
straight-curve $898 55 30 30 1 0 0 I I #
edge $899 $844 1.570796326794896558 $801 3.141592653589793116 $824 $900 forward 7 unknown #
edge_name-twe-attrib $-1 $-1 $-1 $795 44 20480 #
vertex $-1 $842 $901 #
straight-curve $902 55 30 60 0 0 -1 I I #
point $-1 55 30 30 #
cur-twe-attrib $-1 $-1 $-1 $798 762 #
edge_name-twe-attrib $-1 $-1 $-1 $799 69 8704 #
straight-curve $903 50 52.5 60 0 1 0 I I #
point $-1 50 35 60 #
cur-twe-attrib $-1 $-1 $-1 $802 764 #
cur-twe-attrib $-1 $-1 $-1 $806 768 #
coedge $-1 $816 $873 $807 $854 forward $864 $-1 #
edge $904 $856 0 $819 30 $807 $905 forward 7 unknown #
edge_name-twe-attrib $-1 $-1 $-1 $808 60 8704 #
vertex $-1 $874 $906 #
straight-curve $907 82.5 70 60 1 0 0 I I #
face_name-twe-attrib $-1 $908 $-1 $810 26 #
plane-surface $909 90 70 60 0 1 0 0 0 1 forward_v I I I I #
coedge $-1 $815 $910 $911 $912 forward $726 $-1 #
coedge $-1 $913 $914 $815 $862 reversed $915 $-1 #
edge $916 $917 0 $866 45 $861 $918 forward 7 unknown #
coedge $-1 $873 $816 $914 $919 reversed $864 $-1 #
loop $920 $-1 $816 $921 #
edge_name-twe-attrib $-1 $-1 $-1 $817 55 4608 #
vertex $-1 $919 $922 #
ellipse-curve $923 90 65 30 0 0 1 5 0 0 1 I I #
point $-1 90 70 30 #
cur-twe-attrib $-1 $-1 $-1 $820 779 #
primitive_order-cdc-attrib $-1 $-1 $821 $775 5 10 #
surf-twe-attrib $-1 $924 $-1 $822 627 #
coedge $-1 $925 $823 $926 $927 forward $693 $-1 #
coedge $-1 $853 $863 $823 $874 reversed $864 $-1 #
edge $928 $856 -1.570796326794896558 $929 0 $823 $930 forward 7 unknown #
coedge $-1 $824 $931 $837 $893 forward $693 $-1 #
primitive_order-cdc-attrib $-1 $-1 $826 $784 5 10 #
face_name-twe-attrib $-1 $932 $-1 $827 23 #
face $933 $921 $915 $4 $-1 $934 reversed single #
loop $935 $-1 $911 $827 #
cone-surface $936 90 20 60 0 0 -1 5 0 0 1 I I 0 1 5 forward I I I I #
loop_type-twe-attrib $-1 $-1 $-1 $828 0 #
coedge $-1 $937 $938 $910 $939 reversed $828 $-1 #
surf-twe-attrib $-1 $-1 $-1 $829 789 #
coedge $-1 $940 $831 $834 $889 reversed $785 $-1 #
coedge $-1 $831 $940 $937 $941 forward $785 $-1 #
coedge $-1 $910 $835 $831 $887 forward $726 $-1 #
edge $942 $891 -3.141592653589793116 $943 -1.570796326794896558 $831 $944 forward 7 unknown #
coedge $-1 $834 $833 $931 $945 reversed $748 $-1 #
edge $946 $947 0 $891 30 $884 $948 forward 7 unknown #
edge_name-twe-attrib $-1 $-1 $-1 $836 45 4608 #
vertex $-1 $889 $949 #
straight-curve $950 70 30 30 0 -1 0 I I #
edge $951 $895 -5 $844 10 $875 $952 forward 7 unknown #
edge_name-twe-attrib $-1 $-1 $-1 $838 46 8704 #
vertex $-1 $893 $953 #
straight-curve $954 70 30 60 0 0 -1 I I #
point $-1 70 30 30 #
cur-twe-attrib $-1 $-1 $-1 $841 798 #
edge_name-twe-attrib $-1 $-1 $-1 $842 68 8704 #
ellipse-curve $955 55 35 60 0 0 -1 5 0 0 1 I I #
point $-1 55 30 60 #
cur-twe-attrib $-1 $-1 $-1 $845 800 #
cur-twe-attrib $-1 $-1 $-1 $849 804 #
edge_name-twe-attrib $-1 $-1 $-1 $854 58 20480 #
straight-curve $956 90 70 60 0 0 -1 I I #
point $-1 90 70 60 #
cur-twe-attrib $-1 $-1 $-1 $857 813 #
primitive_order-cdc-attrib $-1 $-1 $858 $810 5 10 #
surf-twe-attrib $-1 $-1 $-1 $859 815 #
coedge $-1 $860 $886 $882 $939 forward $726 $-1 #
coedge $-1 $957 $958 $860 $912 reversed $879 $-1 #
edge $959 $960 -1.570796326794896558 $917 0 $911 $961 forward 7 unknown #
coedge $-1 $926 $861 $958 $962 reversed $915 $-1 #
coedge $-1 $861 $926 $863 $919 forward $915 $-1 #
loop $963 $-1 $861 $878 #
edge_name-twe-attrib $-1 $-1 $-1 $862 53 4608 #
vertex $-1 $962 $964 #
straight-curve $965 95 20 30 0 1 0 I I #
edge $966 $929 0 $866 30 $863 $967 forward 7 unknown #
loop_type-twe-attrib $-1 $-1 $-1 $864 0 #
face $968 $810 $864 $4 $-1 $969 reversed single #
point $-1 95 65 30 #
cur-twe-attrib $-1 $-1 $-1 $867 822 #
surf-twe-attrib $-1 $-1 $871 $822 373 #
coedge $-1 $970 $872 $971 $972 forward $693 $-1 #
coedge $-1 $914 $913 $872 $927 reversed $915 $-1 #
edge $973 $929 -35 $974 10 $872 $975 forward 7 unknown #
edge_name-twe-attrib $-1 $-1 $-1 $874 61 8704 #
vertex $-1 $927 $976 #
ellipse-curve $977 90 65 60 0 0 -1 5 0 0 1 I I #
coedge $-1 $875 $978 $888 $945 forward $693 $-1 #
primitive_order-cdc-attrib $-1 $-1 $877 $827 5 10 #
face_name-twe-attrib $-1 $979 $-1 $878 24 #
plane-surface $980 95 20 60 1 0 0 0 0 -1 forward_v I I I I #
loop_type-twe-attrib $-1 $-1 $-1 $879 0 #
surf-twe-attrib $-1 $-1 $-1 $880 830 #
coedge $-1 $981 $882 $885 $941 reversed $828 $-1 #
coedge $-1 $882 $981 $957 $982 forward $828 $-1 #
edge $983 $943 0 $960 15 $882 $984 forward 7 unknown #
coedge $-1 $885 $884 $978 $985 reversed $785 $-1 #
edge $986 $987 0 $943 30 $937 $988 forward 7 unknown #
edge_name-twe-attrib $-1 $-1 $-1 $887 47 4608 #
vertex $-1 $941 $989 #
ellipse-curve $990 75 20 30 0 0 1 5 0 0 1 I I #
edge $991 $947 -15 $895 -5 $931 $992 forward 7 unknown #
edge_name-twe-attrib $-1 $-1 $-1 $889 48 20480 #
vertex $-1 $945 $993 #
straight-curve $994 70 20 60 0 0 -1 I I #
point $-1 70 20 30 #
cur-twe-attrib $-1 $-1 $-1 $892 839 #
edge_name-twe-attrib $-1 $-1 $-1 $893 67 8704 #
straight-curve $995 65 30 60 -1 0 0 I I #
point $-1 70 30 60 #
cur-twe-attrib $-1 $-1 $-1 $896 841 #
cur-twe-attrib $-1 $-1 $-1 $900 845 #
cur-twe-attrib $-1 $-1 $-1 $905 857 #
coedge $-1 $971 $911 $938 $982 reversed $879 $-1 #
coedge $-1 $911 $971 $913 $962 forward $879 $-1 #
edge_name-twe-attrib $-1 $-1 $-1 $912 51 4608 #
vertex $-1 $982 $996 #
ellipse-curve $997 90 20 30 0 0 1 5 0 0 1 I I #
edge $998 $974 0 $917 30 $913 $999 forward 7 unknown #
loop_type-twe-attrib $-1 $-1 $-1 $915 0 #
point $-1 95 20 30 #
cur-twe-attrib $-1 $-1 $-1 $918 865 #
edge_name-twe-attrib $-1 $-1 $-1 $919 56 20480 #
straight-curve $1000 95 65 60 0 0 -1 I I #
face_name-twe-attrib $-1 $1001 $-1 $921 25 #
cone-surface $1002 90 65 60 0 0 -1 5 0 0 1 I I 0 1 5 forward I I I I #
coedge $-1 $978 $925 $981 $1003 forward $693 $-1 #
coedge $-1 $958 $957 $925 $972 reversed $879 $-1 #
edge $1004 $974 0 $1005 1.570796326794896558 $925 $1006 forward 7 unknown #
edge_name-twe-attrib $-1 $-1 $-1 $927 62 8704 #
vertex $-1 $972 $1007 #
straight-curve $1008 95 30 60 0 -1 0 I I #
point $-1 95 65 60 #
cur-twe-attrib $-1 $-1 $-1 $930 875 #
coedge $-1 $931 $970 $940 $985 forward $693 $-1 #
primitive_order-cdc-attrib $-1 $-1 $933 $878 5 10 #
surf-twe-attrib $-1 $-1 $-1 $934 879 #
coedge $-1 $938 $937 $970 $1003 reversed $828 $-1 #
edge $1009 $1005 0 $960 30 $957 $1010 forward 7 unknown #
edge_name-twe-attrib $-1 $-1 $-1 $939 49 4608 #
straight-curve $1011 75 15 30 1 0 0 I I #
edge $1012 $987 1.570796326794896558 $947 3.141592653589793116 $978 $1013 forward 7 unknown #
edge_name-twe-attrib $-1 $-1 $-1 $941 50 20480 #
vertex $-1 $985 $1014 #
straight-curve $1015 75 15 60 0 0 -1 I I #
point $-1 75 15 30 #
cur-twe-attrib $-1 $-1 $-1 $944 888 #
edge_name-twe-attrib $-1 $-1 $-1 $945 66 8704 #
straight-curve $1016 70 35 60 0 1 0 I I #
point $-1 70 20 60 #
cur-twe-attrib $-1 $-1 $-1 $948 890 #
cur-twe-attrib $-1 $-1 $-1 $952 894 #
point $-1 90 15 30 #
cur-twe-attrib $-1 $-1 $-1 $961 913 #
edge_name-twe-attrib $-1 $-1 $-1 $962 54 20480 #
straight-curve $1017 95 20 60 0 0 -1 I I #
cur-twe-attrib $-1 $-1 $-1 $967 920 #
primitive_order-cdc-attrib $-1 $-1 $968 $921 5 10 #
surf-twe-attrib $-1 $-1 $-1 $969 922 #
edge $1018 $1005 -15 $987 0 $970 $1019 forward 7 unknown #
edge_name-twe-attrib $-1 $-1 $-1 $972 63 8704 #
vertex $-1 $1003 $1020 #
ellipse-curve $1021 90 20 60 0 0 -1 5 0 0 1 I I #
point $-1 95 20 60 #
cur-twe-attrib $-1 $-1 $-1 $975 927 #
edge_name-twe-attrib $-1 $-1 $-1 $982 52 20480 #
straight-curve $1022 90 15 60 0 0 -1 I I #
cur-twe-attrib $-1 $-1 $-1 $984 939 #
edge_name-twe-attrib $-1 $-1 $-1 $985 65 8704 #
ellipse-curve $1023 75 20 60 0 0 -1 5 0 0 1 I I #
point $-1 75 15 60 #
cur-twe-attrib $-1 $-1 $-1 $988 941 #
cur-twe-attrib $-1 $-1 $-1 $992 945 #
cur-twe-attrib $-1 $-1 $-1 $999 962 #
edge_name-twe-attrib $-1 $-1 $-1 $1003 64 8704 #
straight-curve $1024 75 15 60 -1 0 0 I I #
point $-1 90 15 60 #
cur-twe-attrib $-1 $-1 $-1 $1006 972 #
cur-twe-attrib $-1 $-1 $-1 $1010 982 #
cur-twe-attrib $-1 $-1 $-1 $1013 985 #
cur-twe-attrib $-1 $-1 $-1 $1019 1003 #
End-of-ACIS-data 