104 1025 0 0                            
body $1 $2 $-1 $3 #
brep_non_volatile_id-cdc-attrib $-1 $-1 $-1 $0 1 #
lump $-1 $-1 $4 $0 #
transform $-1 1 0 0 0 1 0 0 0 1 0 0 0 1 0 0 0 #
shell $-1 $-1 $-1 $5 $2 #
face $6 $7 $8 $4 $-1 $9 1 #
face_name-twe-attrib $-1 $10 $-1 $5 1 #
face $11 $12 $13 $4 $-1 $14 1 #
loop $15 $16 $17 $5 #
cone-surface $18 135 25 1 0 0 1 5 0 0 1 0 1 0 #
primitive_order-cdc-attrib $-1 $-1 $6 $5 8 8 #
face_name-twe-attrib $-1 $19 $-1 $7 2 #
face $20 $21 $22 $4 $-1 $23 1 #
loop $24 $25 $26 $7 #
cone-surface $27 135 25 20 0 0 1 7.5 0 0 1 0 1 0 #
loop_type-twe-attrib $-1 $-1 $-1 $8 0 #
loop $28 $-1 $29 $5 #
coedge $-1 $17 $17 $30 $31 1 $8 $-1 #
surf-twe-attrib $-1 $-1 $-1 $9 5 #
primitive_order-cdc-attrib $-1 $-1 $11 $7 8 8 #
face_name-twe-attrib $-1 $32 $-1 $12 3 #
face $33 $34 $35 $4 $-1 $36 0 #
loop $37 $38 $39 $12 #
plane-surface $40 140 25 11 0 0 -1 -1 0 0 0 #
loop_type-twe-attrib $-1 $-1 $-1 $13 0 #
loop $41 $-1 $42 $7 #
coedge $-1 $26 $26 $43 $44 1 $13 $-1 #
surf-twe-attrib $-1 $-1 $-1 $14 7 #
loop_type-twe-attrib $-1 $-1 $-1 $16 1 #
coedge $-1 $29 $29 $45 $46 0 $16 $-1 #
coedge $-1 $30 $30 $17 $31 0 $35 $-1 #
edge $47 $48 $48 $30 $49 0 #
primitive_order-cdc-attrib $-1 $-1 $20 $12 8 8 #
face_name-twe-attrib $-1 $50 $-1 $21 4 #
face $51 $52 $53 $4 $-1 $54 1 #
loop $55 $56 $30 $21 #
plane-surface $57 75 40 0 0 0 -1 -1 0 0 0 #
loop_type-twe-attrib $-1 $-1 $-1 $22 0 #
loop $58 $-1 $45 $12 #
coedge $-1 $39 $39 $42 $59 0 $22 $-1 #
surf-twe-attrib $-1 $60 $-1 $23 61 #
loop_type-twe-attrib $-1 $-1 $-1 $25 1 #
coedge $-1 $42 $42 $39 $59 1 $25 $-1 #
coedge $-1 $43 $43 $26 $44 0 $53 $-1 #
edge $62 $63 $63 $43 $64 0 #
coedge $-1 $45 $45 $29 $46 1 $38 $-1 #
edge $65 $66 $66 $45 $67 0 #
edge_name-twe-attrib $-1 $-1 $-1 $31 3 8704 #
vertex $-1 $31 $68 #
ellipse-curve $69 135 25 0 0 0 1 5 0 0 1 #
primitive_order-cdc-attrib $-1 $-1 $33 $21 0 10 #
face_name-twe-attrib $-1 $70 $-1 $34 5 #
face $71 $72 $73 $4 $-1 $74 1 #
loop $75 $76 $43 $34 #
plane-surface $77 129.116116523517 37.5 20 0 0 -1 -1 0 0 0 #
loop_type-twe-attrib $-1 $-1 $-1 $35 1 #
loop $78 $79 $80 $21 #
surf-twe-attrib $-1 $-1 $-1 $36 21 #
loop_type-twe-attrib $-1 $-1 $-1 $38 1 #
edge $81 $82 $82 $42 $83 0 #
surf-twe-attrib $-1 $-1 $40 $23 12 #
face $84 $85 $86 $4 $-1 $87 1 #
edge_name-twe-attrib $-1 $-1 $-1 $44 10 8704 #
vertex $-1 $44 $88 #
ellipse-curve $89 135 25 20 0 0 -1 7.5 0 0 1 #
edge_name-twe-attrib $-1 $-1 $-1 $46 2 8704 #
vertex $-1 $46 $90 #
ellipse-curve $91 135 25 11 0 0 1 5 0 0 1 #
point $-1 130 25 0 #
cur-twe-attrib $-1 $-1 $-1 $49 31 #
primitive_order-cdc-attrib $-1 $-1 $51 $34 6 10 #
face_name-twe-attrib $-1 $92 $-1 $52 6 #
face $93 $61 $94 $4 $-1 $95 1 #
loop $96 $97 $98 $52 #
cone-surface $99 135 50 1 0 0 1 5 0 0 1 0 1 0 #
loop_type-twe-attrib $-1 $-1 $-1 $53 1 #
loop $100 $101 $102 $34 #
surf-twe-attrib $-1 $-1 $-1 $54 34 #
loop_type-twe-attrib $-1 $-1 $-1 $56 1 #
loop $103 $104 $105 $21 #
coedge $-1 $80 $80 $106 $107 0 $56 $-1 #
edge_name-twe-attrib $-1 $-1 $-1 $59 1 4608 #
vertex $-1 $59 $108 #
ellipse-curve $109 135 25 11 0 0 1 7.5 0 0 1 #
face_name-twe-attrib $-1 $110 $-1 $61 8 #
face $111 $112 $113 $4 $-1 $114 1 #
loop $115 $116 $117 $61 #
plane-surface $118 140 50 11 0 0 -1 -1 0 0 0 #
point $-1 127.5 24.9999999999999 20 #
cur-twe-attrib $-1 $-1 $-1 $64 44 #
point $-1 140 25 11 #
cur-twe-attrib $-1 $-1 $-1 $67 46 #
primitive_order-cdc-attrib $-1 $-1 $71 $52 7 8 #
face_name-twe-attrib $-1 $119 $-1 $72 7 #
loop $120 $121 $122 $72 #
cone-surface $123 135 50 20 0 0 1 7.5 0 0 1 0 1 0 #
loop_type-twe-attrib $-1 $-1 $-1 $73 0 #
loop $124 $-1 $125 $52 #
coedge $-1 $98 $98 $126 $127 1 $73 $-1 #
surf-twe-attrib $-1 $-1 $-1 $74 52 #
loop_type-twe-attrib $-1 $-1 $-1 $76 0 #
loop $128 $-1 $129 $34 #
coedge $-1 $130 $131 $132 $133 0 $76 $-1 #
loop_type-twe-attrib $-1 $-1 $-1 $79 0 #
loop $134 $-1 $126 $21 #
coedge $-1 $135 $136 $137 $138 0 $79 $-1 #
coedge $-1 $106 $106 $80 $107 1 $139 $-1 #
edge $140 $141 $141 $80 $142 0 #
point $-1 142.5 25 11 #
cur-twe-attrib $-1 $-1 $-1 $83 59 #
primitive_order-cdc-attrib $-1 $-1 $84 $61 7 8 #
face_name-twe-attrib $-1 $143 $-1 $85 9 #
face $144 $145 $146 $4 $-1 $147 1 #
loop $148 $-1 $132 $85 #
plane-surface $149 150 65 30 0 1 0 0 0 1 0 #
loop_type-twe-attrib $-1 $-1 $-1 $86 0 #
loop $150 $-1 $151 $61 #
coedge $-1 $117 $117 $152 $153 0 $86 $-1 #
surf-twe-attrib $-1 $154 $-1 $87 61 #
primitive_order-cdc-attrib $-1 $-1 $93 $72 7 8 #
loop_type-twe-attrib $-1 $-1 $-1 $94 0 #
loop $155 $-1 $152 $72 #
coedge $-1 $122 $122 $129 $156 1 $94 $-1 #
surf-twe-attrib $-1 $-1 $-1 $95 72 #
loop_type-twe-attrib $-1 $-1 $-1 $97 1 #
coedge $-1 $125 $125 $151 $157 0 $97 $-1 #
coedge $-1 $126 $126 $98 $127 0 $104 $-1 #
edge $158 $159 $159 $126 $160 0 #
loop_type-twe-attrib $-1 $-1 $-1 $101 1 #
coedge $-1 $129 $129 $122 $156 0 $101 $-1 #
coedge $-1 $161 $102 $162 $163 0 $76 $-1 #
coedge $-1 $102 $164 $165 $166 1 $76 $-1 #
coedge $-1 $167 $168 $102 $133 1 $113 $-1 #
edge $169 $170 $171 $132 $172 0 #
loop_type-twe-attrib $-1 $-1 $-1 $104 1 #
coedge $-1 $173 $105 $174 $175 0 $79 $-1 #
coedge $-1 $105 $173 $176 $177 0 $79 $-1 #
coedge $-1 $178 $179 $105 $138 1 $180 $-1 #
edge $181 $182 $183 $105 $184 0 #
loop $185 $186 $106 $187 #
edge_name-twe-attrib $-1 $-1 $-1 $107 4 8704 #
vertex $-1 $107 $188 #
ellipse-curve $189 15 40 0 0 0 1 6 0 0 1 #
primitive_order-cdc-attrib $-1 $-1 $111 $85 6 10 #
face_name-twe-attrib $-1 $190 $-1 $112 10 #
face $191 $192 $193 $4 $-1 $194 1 #
loop $195 $-1 $162 $112 #
cone-surface $196 125 60 30 0 0 -1 5 0 0 1 0 1 0 #
loop_type-twe-attrib $-1 $-1 $-1 $113 0 #
surf-twe-attrib $-1 $-1 $-1 $114 85 #
loop_type-twe-attrib $-1 $-1 $-1 $116 1 #
coedge $-1 $151 $151 $125 $157 1 $116 $-1 #
coedge $-1 $152 $152 $117 $153 1 $121 $-1 #
edge $197 $198 $198 $152 $199 0 #
surf-twe-attrib $-1 $-1 $118 $87 12 #
loop_type-twe-attrib $-1 $-1 $-1 $121 1 #
edge $200 $201 $201 $129 $202 0 #
edge $203 $204 $204 $151 $205 0 #
edge_name-twe-attrib $-1 $-1 $-1 $127 9 8704 #
vertex $-1 $127 $206 #
ellipse-curve $207 135 50 0 0 0 1 5 0 0 1 #
coedge $-1 $208 $130 $209 $210 0 $76 $-1 #
coedge $-1 $211 $212 $130 $163 1 $146 $-1 #
edge $213 $171 $214 $162 $215 0 #
coedge $-1 $131 $208 $216 $217 0 $76 $-1 #
coedge $-1 $218 $219 $131 $166 0 $220 $-1 #
edge $221 $170 $222 $165 $223 0 #
coedge $-1 $224 $132 $219 $225 1 $113 $-1 #
coedge $-1 $132 $224 $211 $226 0 $113 $-1 #
edge_name-twe-attrib $-1 $-1 $-1 $133 14 4608 #
vertex $-1 $225 $227 #
vertex $-1 $226 $228 #
straight-curve $229 150 65 20 -1 0 0 #
coedge $-1 $136 $135 $230 $231 0 $79 $-1 #
coedge $-1 $232 $233 $135 $175 1 $234 $-1 #
edge $235 $183 $236 $135 $237 0 #
coedge $-1 $238 $239 $136 $177 1 $220 $-1 #
edge $240 $241 $182 $136 $242 0 #
coedge $-1 $243 $137 $239 $244 0 $180 $-1 #
coedge $-1 $137 $245 $232 $246 1 $180 $-1 #
loop $247 $-1 $243 $248 #
edge_name-twe-attrib $-1 $-1 $-1 $138 5 8704 #
vertex $-1 $138 $249 #
vertex $-1 $138 $250 #
straight-curve $251 150 0 0 -1 0 0 #
loop_type-twe-attrib $-1 $-1 $-1 $139 0 #
loop $252 $-1 $253 $187 #
face $254 $255 $139 $4 $-1 $256 1 #
point $-1 21 40 0 #
cur-twe-attrib $-1 $-1 $-1 $142 107 #
primitive_order-cdc-attrib $-1 $-1 $144 $112 6 10 #
face_name-twe-attrib $-1 $257 $-1 $145 11 #
face $258 $259 $260 $4 $-1 $261 1 #
loop $262 $-1 $209 $145 #
plane-surface $263 120 60 30 -1 0 0 0 0 1 0 #
loop_type-twe-attrib $-1 $-1 $-1 $146 0 #
surf-twe-attrib $-1 $-1 $-1 $147 112 #
edge_name-twe-attrib $-1 $-1 $-1 $153 12 4608 #
vertex $-1 $153 $264 #
ellipse-curve $265 135 50 11 0 0 1 7.5 0 0 1 #
edge_name-twe-attrib $-1 $-1 $-1 $156 11 8704 #
vertex $-1 $156 $266 #
ellipse-curve $267 135 50 20 0 0 -1 7.5 0 0 1 #
edge_name-twe-attrib $-1 $-1 $-1 $157 13 8704 #
vertex $-1 $157 $268 #
ellipse-curve $269 135 50 11 0 0 1 5 0 0 1 #
point $-1 130 50 0 #
cur-twe-attrib $-1 $-1 $-1 $160 127 #
coedge $-1 $164 $161 $270 $271 0 $76 $-1 #
coedge $-1 $272 $273 $161 $210 1 $193 $-1 #
edge $274 $214 $275 $209 $276 0 #
coedge $-1 $277 $162 $168 $226 1 $146 $-1 #
coedge $-1 $162 $277 $272 $278 0 $146 $-1 #
edge_name-twe-attrib $-1 $-1 $-1 $163 15 4608 #
vertex $-1 $278 $279 #
ellipse-curve $280 125 60 20 0 0 1 5 0 0 1 #
coedge $-1 $281 $282 $164 $217 1 $283 $-1 #
edge $284 $285 $222 $216 $286 0 #
coedge $-1 $287 $165 $282 $288 0 $220 $-1 #
coedge $-1 $165 $289 $167 $225 0 $220 $-1 #
loop $290 $-1 $218 $291 #
edge_name-twe-attrib $-1 $-1 $-1 $166 30 8704 #
vertex $-1 $288 $292 #
straight-curve $293 150 58.75 20 0 -1 0 #
coedge $-1 $168 $167 $294 $295 1 $113 $-1 #
edge $296 $297 $170 $219 $298 0 #
edge $299 $300 $171 $211 $301 0 #
point $-1 150 65 20 #
point $-1 125 65 20 #
cur-twe-attrib $-1 $-1 $-1 $172 133 #
coedge $-1 $302 $303 $173 $231 1 $304 $-1 #
edge $305 $236 $241 $173 $306 0 #
coedge $-1 $307 $174 $179 $246 0 $234 $-1 #
coedge $-1 $174 $308 $302 $309 1 $234 $-1 #
loop $310 $-1 $308 $311 #
edge_name-twe-attrib $-1 $-1 $-1 $175 6 8704 #
vertex $-1 $175 $312 #
straight-curve $313 0 0 0 0 1 0 #
coedge $-1 $314 $176 $303 $315 0 $220 $-1 #
coedge $-1 $176 $287 $178 $244 1 $220 $-1 #
edge_name-twe-attrib $-1 $-1 $-1 $177 8 8704 #
vertex $-1 $231 $316 #
straight-curve $317 150 80 0 0 -1 0 #
coedge $-1 $318 $178 $319 $320 0 $180 $-1 #
edge $321 $182 $322 $178 $323 0 #
coedge $-1 $179 $324 $325 $326 0 $180 $-1 #
edge $327 $183 $328 $232 $329 0 #
loop_type-twe-attrib $-1 $-1 $-1 $180 0 #
face $330 $331 $180 $4 $-1 $332 0 #
point $-1 150 0 0 #
point $-1 0 0 0 #
cur-twe-attrib $-1 $-1 $-1 $184 138 #
loop_type-twe-attrib $-1 $-1 $-1 $186 1 #
coedge $-1 $253 $253 $333 $334 1 $186 $-1 #
face_name-twe-attrib $-1 $335 $-1 $187 29 #
face $336 $337 $338 $4 $-1 $339 1 #
cone-surface $340 15 40 25 0 0 1 6 0 0 1 0 1 0 #
primitive_order-cdc-attrib $-1 $-1 $191 $145 6 10 #
face_name-twe-attrib $-1 $341 $-1 $192 12 #
face $342 $291 $283 $4 $-1 $343 1 #
loop $344 $-1 $270 $192 #
cone-surface $345 125 15 30 0 0 -1 5 0 0 1 0 1 0 #
loop_type-twe-attrib $-1 $-1 $-1 $193 0 #
surf-twe-attrib $-1 $-1 $-1 $194 145 #
point $-1 142.5 50 11 #
cur-twe-attrib $-1 $-1 $-1 $199 153 #
point $-1 127.5 50 20 #
cur-twe-attrib $-1 $-1 $-1 $202 156 #
point $-1 140 50 11 #
cur-twe-attrib $-1 $-1 $-1 $205 157 #
coedge $-1 $346 $347 $208 $271 1 $260 $-1 #
edge $348 $275 $285 $270 $349 0 #
coedge $-1 $350 $209 $212 $278 1 $193 $-1 #
coedge $-1 $209 $350 $346 $351 0 $193 $-1 #
edge_name-twe-attrib $-1 $-1 $-1 $210 17 4608 #
vertex $-1 $351 $352 #
straight-curve $353 120 60 20 0 -1 0 #
coedge $-1 $212 $211 $354 $355 1 $146 $-1 #
edge $356 $357 $214 $272 $358 0 #
point $-1 120 60 20 #
cur-twe-attrib $-1 $-1 $-1 $215 163 #
coedge $-1 $359 $216 $347 $360 1 $283 $-1 #
coedge $-1 $216 $359 $218 $288 1 $283 $-1 #
loop $361 $-1 $216 $259 #
edge_name-twe-attrib $-1 $-1 $-1 $217 21 4608 #
vertex $-1 $360 $362 #
straight-curve $363 125 10 20 1 0 0 #
coedge $-1 $239 $218 $364 $365 0 $220 $-1 #
edge $366 $222 $367 $218 $368 0 #
coedge $-1 $219 $369 $370 $371 0 $220 $-1 #
loop_type-twe-attrib $-1 $-1 $-1 $220 0 #
face $372 $373 $220 $4 $-1 $374 0 #
point $-1 150 10 20 #
cur-twe-attrib $-1 $-1 $-1 $223 166 #
coedge $-1 $370 $354 $224 $295 0 $375 $-1 #
edge $376 $300 $297 $294 $377 0 #
edge_name-twe-attrib $-1 $-1 $-1 $225 29 8704 #
vertex $-1 $371 $378 #
straight-curve $379 150 65 15 0 0 -1 #
edge_name-twe-attrib $-1 $-1 $-1 $226 16 20480 #
vertex $-1 $295 $380 #
straight-curve $381 125 65 30 0 0 -1 #
coedge $-1 $382 $230 $233 $309 0 $304 $-1 #
coedge $-1 $230 $382 $238 $315 1 $304 $-1 #
loop $383 $-1 $382 $384 #
edge_name-twe-attrib $-1 $-1 $-1 $231 7 8704 #
straight-curve $385 0 80 0 1 0 0 #
coedge $-1 $386 $232 $387 $388 0 $234 $-1 #
coedge $-1 $233 $389 $390 $391 0 $234 $-1 #
edge $392 $236 $393 $302 $394 0 #
loop_type-twe-attrib $-1 $-1 $-1 $234 0 #
face $395 $396 $234 $4 $-1 $397 0 #
point $-1 0 80 0 #
cur-twe-attrib $-1 $-1 $-1 $237 175 #
coedge $-1 $369 $238 $398 $399 0 $220 $-1 #
edge $400 $241 $401 $238 $402 0 #
point $-1 150 80 0 #
cur-twe-attrib $-1 $-1 $-1 $242 177 #
coedge $-1 $403 $243 $404 $405 0 $180 $-1 #
coedge $-1 $364 $406 $243 $320 1 $375 $-1 #
edge $407 $322 $408 $243 $409 0 #
edge_name-twe-attrib $-1 $-1 $-1 $244 96 8704 #
vertex $-1 $244 $410 #
straight-curve $411 150 0 0 0 0 1 #
coedge $-1 $245 $403 $412 $413 0 $180 $-1 #
coedge $-1 $414 $387 $245 $326 1 $415 $-1 #
edge $416 $417 $328 $245 $418 0 #
edge_name-twe-attrib $-1 $-1 $-1 $246 81 8704 #
vertex $-1 $246 $419 #
straight-curve $420 0 0 0 0 0 1 #
face_name-twe-attrib $-1 $421 $-1 $248 38 #
face $422 $-1 $423 $4 $-1 $424 1 #
plane-surface $425 150 0 0 0 -1 0 0 0 -1 0 #
coedge $-1 $333 $333 $253 $334 0 $338 $-1 #
edge $426 $427 $427 $333 $428 0 #
primitive_order-cdc-attrib $-1 $-1 $254 $187 4 3 #
face_name-twe-attrib $-1 $429 $-1 $255 30 #
face $430 $431 $432 $4 $-1 $433 1 #
loop $434 $415 $333 $255 #
plane-surface $435 20 40 50 0 0 -1 -1 0 0 0 #
surf-twe-attrib $-1 $-1 $-1 $256 187 #
primitive_order-cdc-attrib $-1 $-1 $258 $192 6 10 #
face_name-twe-attrib $-1 $436 $-1 $259 13 #
plane-surface $437 125 10 30 0 -1 0 0 0 -1 0 #
loop_type-twe-attrib $-1 $-1 $-1 $260 0 #
surf-twe-attrib $-1 $-1 $-1 $261 192 #
coedge $-1 $438 $270 $273 $351 1 $260 $-1 #
coedge $-1 $270 $438 $281 $360 0 $260 $-1 #
edge_name-twe-attrib $-1 $-1 $-1 $271 19 4608 #
ellipse-curve $439 125 15 20 0 0 1 5 0 0 1 #
coedge $-1 $273 $272 $440 $441 1 $193 $-1 #
edge $442 $443 $275 $346 $444 0 #
point $-1 120 15 20 #
cur-twe-attrib $-1 $-1 $-1 $276 210 #
coedge $-1 $294 $440 $277 $355 0 $375 $-1 #
edge $445 $357 $300 $354 $446 0 #
edge_name-twe-attrib $-1 $-1 $-1 $278 18 20480 #
vertex $-1 $355 $447 #
straight-curve $448 120 60 30 0 0 -1 #
coedge $-1 $282 $281 $449 $450 1 $283 $-1 #
edge $451 $452 $285 $281 $453 0 #
loop_type-twe-attrib $-1 $-1 $-1 $283 0 #
point $-1 125 10 20 #
cur-twe-attrib $-1 $-1 $-1 $286 217 #
coedge $-1 $449 $319 $287 $365 1 $375 $-1 #
edge $454 $367 $322 $287 $455 0 #
edge_name-twe-attrib $-1 $-1 $-1 $288 23 8704 #
vertex $-1 $450 $456 #
straight-curve $457 150 10 15 0 0 1 #
coedge $-1 $289 $314 $458 $459 0 $220 $-1 #
coedge $-1 $460 $294 $289 $371 1 $375 $-1 #
edge $461 $462 $297 $289 $455 0 #
face_name-twe-attrib $-1 $463 $-1 $291 14 #
face $464 $465 $375 $4 $-1 $466 1 #
plane-surface $467 150 80 0 1 0 0 0 0 -1 0 #
loop $468 $-1 $449 $373 #
edge_name-twe-attrib $-1 $-1 $-1 $295 35 8704 #
straight-curve $469 140 65 30 1 0 0 #
point $-1 150 65 30 #
cur-twe-attrib $-1 $-1 $-1 $298 225 #
point $-1 125 65 30 #
cur-twe-attrib $-1 $-1 $-1 $301 226 #
coedge $-1 $303 $302 $470 $471 0 $304 $-1 #
loop_type-twe-attrib $-1 $-1 $-1 $304 0 #
face $472 $311 $304 $4 $-1 $473 0 #
cur-twe-attrib $-1 $-1 $-1 $306 231 #
coedge $-1 $474 $307 $475 $476 1 $234 $-1 #
coedge $-1 $325 $477 $307 $388 1 $415 $-1 #
edge $478 $328 $479 $307 $480 0 #
coedge $-1 $308 $474 $481 $482 0 $234 $-1 #
coedge $-1 $483 $470 $308 $391 1 $484 $-1 #
edge $485 $486 $393 $308 $487 0 #
edge_name-twe-attrib $-1 $-1 $-1 $309 79 8704 #
vertex $-1 $309 $488 #
straight-curve $489 0 80 0 0 0 1 #
face_name-twe-attrib $-1 $490 $-1 $311 36 #
face $491 $248 $492 $4 $-1 $473 0 #
plane-surface $493 0 0 0 -1 0 0 0 0 1 0 #
coedge $-1 $470 $483 $314 $399 1 $484 $-1 #
edge $494 $401 $495 $314 $496 0 #
edge_name-twe-attrib $-1 $-1 $-1 $315 25 8704 #
vertex $-1 $315 $497 #
straight-curve $498 150 80 0 0 0 1 #
coedge $-1 $324 $318 $499 $500 0 $180 $-1 #
coedge $-1 $501 $502 $318 $405 1 $503 $-1 #
edge $504 $408 $505 $318 $506 0 #
coedge $-1 $319 $460 $501 $507 0 $375 $-1 #
edge_name-twe-attrib $-1 $-1 $-1 $320 91 8704 #
vertex $-1 $405 $508 #
straight-curve $509 140 0 30 -1 0 0 #
point $-1 150 0 30 #
cur-twe-attrib $-1 $-1 $-1 $323 244 #
coedge $-1 $510 $511 $324 $413 1 $423 $-1 #
edge $512 $513 $417 $324 $514 0 #
coedge $-1 $477 $325 $511 $515 0 $415 $-1 #
loop $516 $-1 $414 $255 #
edge_name-twe-attrib $-1 $-1 $-1 $326 95 8704 #
vertex $-1 $413 $517 #
straight-curve $518 85 0 50 -1 0 0 #
point $-1 0 0 50 #
cur-twe-attrib $-1 $-1 $-1 $329 246 #
primitive_order-cdc-attrib $-1 $-1 $330 $248 0 10 #
face_name-twe-attrib $-1 $519 $-1 $331 39 #
loop $520 $-1 $511 $331 #
plane-surface $521 40 0 60 1 0 0 0 0 -1 0 #
surf-twe-attrib $-1 $-1 $-1 $332 248 #
edge_name-twe-attrib $-1 $-1 $-1 $334 72 8704 #
vertex $-1 $334 $522 #
ellipse-curve $523 15 40 50 0 0 -1 6 0 0 1 #
primitive_order-cdc-attrib $-1 $-1 $336 $255 1 10 #
face_name-twe-attrib $-1 $524 $-1 $337 31 #
face $525 $526 $527 $4 $-1 $528 1 #
loop $529 $-1 $530 $337 #
plane-surface $531 150 75 37.5 0 -1 0 0 0 -1 0 #
loop_type-twe-attrib $-1 $-1 $-1 $338 1 #
surf-twe-attrib $-1 $-1 $-1 $339 255 #
primitive_order-cdc-attrib $-1 $-1 $342 $259 6 10 #
surf-twe-attrib $-1 $-1 $-1 $343 259 #
coedge $-1 $347 $346 $532 $533 1 $260 $-1 #
cur-twe-attrib $-1 $-1 $-1 $349 271 #
coedge $-1 $354 $532 $350 $441 0 $375 $-1 #
edge $534 $443 $357 $440 $535 0 #
edge_name-twe-attrib $-1 $-1 $-1 $351 20 20480 #
vertex $-1 $441 $536 #
straight-curve $537 120 15 30 0 0 -1 #
edge_name-twe-attrib $-1 $-1 $-1 $355 34 8704 #
ellipse-curve $538 125 60 30 0 0 -1 5 0 0 1 #
point $-1 120 60 30 #
cur-twe-attrib $-1 $-1 $-1 $358 278 #
coedge $-1 $532 $364 $359 $450 0 $375 $-1 #
edge $539 $367 $452 $449 $540 0 #
edge_name-twe-attrib $-1 $-1 $-1 $360 22 20480 #
vertex $-1 $533 $541 #
straight-curve $542 125 10 30 0 0 -1 #
edge_name-twe-attrib $-1 $-1 $-1 $365 24 8704 #
straight-curve $543 150 60 30 0 -1 0 #
point $-1 150 10 30 #
cur-twe-attrib $-1 $-1 $-1 $368 288 #
coedge $-1 $544 $530 $369 $459 1 $432 $-1 #
edge $545 $495 $462 $369 $546 0 #
coedge $-1 $406 $370 $530 $547 0 $375 $-1 #
edge_name-twe-attrib $-1 $-1 $-1 $371 28 8704 #
vertex $-1 $547 $548 #
primitive_order-cdc-attrib $-1 $-1 $372 $291 0 10 #
face_name-twe-attrib $-1 $549 $-1 $373 15 #
face $550 $551 $552 $4 $-1 $553 1 #
plane-surface $554 130 40 30 0 0 -1 -1 0 0 0 #
surf-twe-attrib $-1 $-1 $-1 $374 291 #
loop_type-twe-attrib $-1 $-1 $-1 $375 0 #
cur-twe-attrib $-1 $-1 $-1 $377 295 #
coedge $-1 $390 $398 $382 $471 1 $484 $-1 #
edge $555 $393 $401 $382 $556 0 #
face_name-twe-attrib $-1 $557 $-1 $384 35 #
plane-surface $558 0 80 0 0 1 0 0 0 1 0 #
coedge $-1 $389 $386 $559 $560 0 $234 $-1 #
coedge $-1 $561 $562 $386 $476 0 $492 $-1 #
edge $563 $564 $479 $475 $394 0 #
coedge $-1 $387 $414 $561 $565 1 $415 $-1 #
edge_name-twe-attrib $-1 $-1 $-1 $388 82 8704 #
vertex $-1 $476 $566 #
straight-curve $567 0 20 50 0 1 0 #
coedge $-1 $568 $544 $389 $482 1 $432 $-1 #
edge $569 $570 $486 $389 $571 0 #
coedge $-1 $398 $390 $544 $572 1 $484 $-1 #
loop $573 $-1 $390 $526 #
edge_name-twe-attrib $-1 $-1 $-1 $391 80 8704 #
vertex $-1 $482 $574 #
straight-curve $575 0 37.5 22.5 0 1 0 #
point $-1 0 80 22.5 #
cur-twe-attrib $-1 $576 $-1 $394 476 #
primitive_order-cdc-attrib $-1 $-1 $395 $311 0 10 #
face_name-twe-attrib $-1 $577 $-1 $396 37 #
loop $578 $-1 $562 $396 #
surf-twe-attrib $-1 $-1 $-1 $397 311 #
edge_name-twe-attrib $-1 $-1 $-1 $399 26 8704 #
vertex $-1 $459 $579 #
straight-curve $580 150 77.5 22.5 0 -1 0 #
point $-1 150 80 22.5 #
cur-twe-attrib $-1 $-1 $-1 $402 315 #
coedge $-1 $581 $582 $403 $500 1 $583 $-1 #
edge $584 $505 $513 $403 $585 0 #
coedge $-1 $586 $404 $406 $507 1 $503 $-1 #
coedge $-1 $404 $587 $581 $588 1 $503 $-1 #
loop $589 $-1 $586 $590 #
edge_name-twe-attrib $-1 $-1 $-1 $405 92 8704 #
vertex $-1 $588 $591 #
straight-curve $592 110 0 30 0 0 1 #
edge $593 $594 $408 $501 $595 0 #
point $-1 110 0 30 #
cur-twe-attrib $-1 $-1 $-1 $409 320 #
coedge $-1 $596 $412 $582 $597 1 $423 $-1 #
coedge $-1 $412 $596 $414 $515 1 $423 $-1 #
edge_name-twe-attrib $-1 $-1 $-1 $413 94 8704 #
vertex $-1 $500 $598 #
straight-curve $599 40 0 30 0 0 -1 #
edge $600 $417 $601 $511 $602 0 #
loop_type-twe-attrib $-1 $-1 $-1 $415 0 #
point $-1 40 0 50 #
cur-twe-attrib $-1 $-1 $-1 $418 326 #
primitive_order-cdc-attrib $-1 $-1 $422 $331 1 10 #
loop_type-twe-attrib $-1 $-1 $-1 $423 0 #
surf-twe-attrib $-1 $-1 $-1 $424 331 #
point $-1 21 40 50 #
cur-twe-attrib $-1 $-1 $-1 $428 334 #
primitive_order-cdc-attrib $-1 $-1 $430 $337 3 10 #
face_name-twe-attrib $-1 $603 $-1 $431 32 #
face $604 $590 $484 $4 $-1 $605 1 #
loop $606 $-1 $607 $431 #
plane-surface $608 150 80 37.5 0 0 1 1 0 0 0 #
loop_type-twe-attrib $-1 $-1 $-1 $432 0 #
coedge $-1 $458 $609 $460 $547 1 $432 $-1 #
surf-twe-attrib $-1 $-1 $-1 $433 337 #
coedge $-1 $440 $449 $438 $533 0 $375 $-1 #
edge $610 $452 $443 $532 $611 0 #
edge_name-twe-attrib $-1 $-1 $-1 $441 33 8704 #
straight-curve $612 120 50 30 0 1 0 #
point $-1 120 15 30 #
cur-twe-attrib $-1 $-1 $-1 $444 351 #
cur-twe-attrib $-1 $-1 $-1 $446 355 #
edge_name-twe-attrib $-1 $-1 $-1 $450 31 8704 #
straight-curve $613 127.5 10 30 -1 0 0 #
point $-1 125 10 30 #
cur-twe-attrib $-1 $-1 $-1 $453 360 #
cur-twe-attrib $-1 $614 $-1 $455 371 #
coedge $-1 $481 $458 $483 $572 0 $432 $-1 #
edge_name-twe-attrib $-1 $-1 $-1 $459 27 8704 #
straight-curve $615 150 75 18.75 0 0 1 #
edge $616 $462 $594 $460 $617 0 #
point $-1 150 75 30 #
primitive_order-cdc-attrib $-1 $-1 $464 $373 2 10 #
face_name-twe-attrib $-1 $618 $-1 $465 16 #
face $619 $620 $621 $4 $-1 $622 1 #
loop $623 $-1 $624 $465 #
cone-surface $625 55 65 60 0 0 -1 5 0 0 1 0 1 0 #
surf-twe-attrib $-1 $626 $-1 $466 627 #
edge_name-twe-attrib $-1 $-1 $-1 $471 78 8704 #
straight-curve $628 75 80 22.5 1 0 0 #
primitive_order-cdc-attrib $-1 $-1 $472 $384 0 10 #
surf-twe-attrib $-1 $629 $-1 $473 396 #
coedge $-1 $630 $631 $474 $560 1 $527 $-1 #
edge $632 $564 $570 $474 $633 0 #
coedge $-1 $634 $475 $477 $565 0 $492 $-1 #
coedge $-1 $475 $635 $630 $636 0 $492 $-1 #
edge_name-twe-attrib $-1 $-1 $-1 $476 86 8704 #
vertex $-1 $636 $637 #
edge $638 $479 $601 $561 $639 0 #
point $-1 0 80 50 #
cur-twe-attrib $-1 $-1 $-1 $480 388 #
coedge $-1 $609 $481 $631 $640 1 $432 $-1 #
edge_name-twe-attrib $-1 $-1 $-1 $482 84 8704 #
vertex $-1 $482 $641 #
straight-curve $642 0 75 18.75 0 0 -1 #
edge $643 $495 $486 $483 $644 0 #
loop_type-twe-attrib $-1 $-1 $-1 $484 0 #
point $-1 0 75 22.5 #
cur-twe-attrib $-1 $-1 $-1 $487 391 #
cur-twe-attrib $-1 $-1 $489 $394 309 #
primitive_order-cdc-attrib $-1 $-1 $491 $396 0 10 #
loop_type-twe-attrib $-1 $-1 $-1 $492 0 #
point $-1 150 75 22.5 #
cur-twe-attrib $-1 $-1 $-1 $496 399 #
coedge $-1 $645 $499 $502 $588 0 $583 $-1 #
coedge $-1 $499 $645 $510 $597 0 $583 $-1 #
loop $646 $-1 $581 $647 #
edge_name-twe-attrib $-1 $-1 $-1 $500 93 8704 #
straight-curve $648 150 0 60 -1 0 0 #
coedge $-1 $649 $501 $609 $650 0 $503 $-1 #
coedge $-1 $502 $649 $635 $651 1 $503 $-1 #
edge $652 $505 $653 $581 $654 0 #
loop_type-twe-attrib $-1 $-1 $-1 $503 0 #
face $655 $384 $503 $4 $-1 $656 1 #
point $-1 110 0 60 #
cur-twe-attrib $-1 $-1 $-1 $506 405 #
edge_name-twe-attrib $-1 $-1 $-1 $507 77 4608 #
vertex $-1 $650 $657 #
straight-curve $658 110 80 30 0 -1 0 #
coedge $-1 $511 $510 $634 $659 1 $423 $-1 #
edge $660 $661 $513 $582 $662 0 #
point $-1 40 0 60 #
cur-twe-attrib $-1 $-1 $-1 $514 413 #
edge_name-twe-attrib $-1 $-1 $-1 $515 97 4608 #
vertex $-1 $659 $663 #
straight-curve $664 40 0 50 0 1 0 #
primitive_order-cdc-attrib $-1 $-1 $525 $431 3 10 #
face_name-twe-attrib $-1 $665 $-1 $526 33 #
plane-surface $666 150 75 22.5 0 0 -1 -1 0 0 0 #
loop_type-twe-attrib $-1 $-1 $-1 $527 0 #
coedge $-1 $631 $630 $649 $667 1 $527 $-1 #
surf-twe-attrib $-1 $-1 $-1 $528 431 #
coedge $-1 $530 $568 $586 $650 1 $432 $-1 #
edge_name-twe-attrib $-1 $-1 $-1 $533 32 8704 #
ellipse-curve $668 125 15 30 0 0 -1 5 0 0 1 #
cur-twe-attrib $-1 $-1 $-1 $535 441 #
cur-twe-attrib $-1 $-1 $-1 $540 450 #
cur-twe-attrib $-1 $-1 $543 $455 365 #
cur-twe-attrib $-1 $-1 $-1 $546 459 #
edge_name-twe-attrib $-1 $-1 $-1 $547 36 8704 #
straight-curve $669 140 75 30 -1 0 0 #
primitive_order-cdc-attrib $-1 $-1 $550 $465 5 10 #
face_name-twe-attrib $-1 $670 $-1 $551 17 #
face $671 $672 $673 $4 $-1 $674 1 #
loop $675 $-1 $676 $551 #
plane-surface $677 50 65 60 -1 0 0 0 0 1 0 #
loop_type-twe-attrib $-1 $-1 $-1 $552 0 #
coedge $-1 $678 $679 $680 $681 1 $552 $-1 #
surf-twe-attrib $-1 $-1 $-1 $553 465 #
surf-twe-attrib $-1 $-1 $554 $466 373 #
face $682 $647 $683 $4 $-1 $684 1 #
cur-twe-attrib $-1 $-1 $-1 $556 471 #
surf-twe-attrib $-1 $-1 $558 $473 384 #
coedge $-1 $607 $559 $562 $636 1 $527 $-1 #
coedge $-1 $559 $607 $568 $640 0 $527 $-1 #
edge_name-twe-attrib $-1 $-1 $-1 $560 83 8704 #
straight-curve $685 0 40 37.5 0 -1 0 #
coedge $-1 $686 $561 $596 $659 0 $492 $-1 #
coedge $-1 $562 $686 $587 $651 0 $492 $-1 #
edge $687 $688 $564 $562 $689 0 #
point $-1 0 80 37.5 #
edge_name-twe-attrib $-1 $-1 $-1 $565 87 8704 #
straight-curve $690 10 80 50 1 0 0 #
edge $691 $692 $570 $568 $693 0 #
point $-1 0 75 37.5 #
cur-twe-attrib $-1 $-1 $-1 $571 482 #
edge_name-twe-attrib $-1 $-1 $-1 $572 74 4608 #
straight-curve $694 150 75 22.5 -1 0 0 #
coedge $-1 $582 $581 $686 $695 1 $583 $-1 #
loop_type-twe-attrib $-1 $-1 $-1 $583 0 #
face $696 $187 $697 $4 $-1 $698 0 #
cur-twe-attrib $-1 $-1 $-1 $585 500 #
coedge $-1 $587 $586 $607 $667 0 $503 $-1 #
edge $699 $594 $692 $586 $700 0 #
edge $701 $653 $688 $635 $702 0 #
edge_name-twe-attrib $-1 $-1 $-1 $588 70 8704 #
vertex $-1 $695 $703 #
straight-curve $704 110 60 60 0 1 0 #
face_name-twe-attrib $-1 $705 $-1 $590 34 #
plane-surface $706 110 80 60 -1 0 0 0 0 1 0 #
point $-1 110 75 30 #
cur-twe-attrib $-1 $-1 $-1 $595 507 #
edge $707 $601 $661 $634 $708 0 #
edge_name-twe-attrib $-1 $-1 $-1 $597 71 8704 #
vertex $-1 $597 $709 #
straight-curve $710 40 20 60 0 -1 0 #
point $-1 40 80 50 #
cur-twe-attrib $-1 $-1 $-1 $602 515 #
primitive_order-cdc-attrib $-1 $-1 $604 $526 3 10 #
surf-twe-attrib $-1 $-1 $-1 $605 526 #
edge $711 $692 $688 $649 $712 0 #
cur-twe-attrib $-1 $-1 $-1 $611 533 #
cur-twe-attrib $-1 $-1 $-1 $617 547 #
primitive_order-cdc-attrib $-1 $-1 $619 $551 5 10 #
face_name-twe-attrib $-1 $713 $-1 $620 18 #
face $714 $715 $716 $4 $-1 $717 1 #
loop $718 $-1 $719 $620 #
cone-surface $720 55 35 60 0 0 -1 5 0 0 1 0 1 0 #
loop_type-twe-attrib $-1 $-1 $-1 $621 0 #
coedge $-1 $721 $722 $723 $724 1 $621 $-1 #
surf-twe-attrib $-1 $-1 $-1 $622 551 #
coedge $-1 $725 $624 $726 $727 1 $552 $-1 #
coedge $-1 $624 $725 $721 $728 0 $552 $-1 #
coedge $-1 $723 $729 $624 $681 0 $683 $-1 #
edge $730 $731 $732 $624 $733 0 #
face_name-twe-attrib $-1 $734 $-1 $627 27 #
loop $735 $-1 $680 $627 #
plane-surface $736 72.2790291308792 39.7790291308792 30 0 0 -1 -1 0 0 0 #
cur-twe-attrib $-1 $-1 $-1 $633 560 #
coedge $-1 $635 $634 $645 $695 0 $492 $-1 #
edge_name-twe-attrib $-1 $-1 $-1 $636 85 8704 #
vertex $-1 $651 $737 #
straight-curve $738 75 80 37.5 -1 0 0 #
cur-twe-attrib $-1 $-1 $-1 $639 565 #
edge_name-twe-attrib $-1 $-1 $-1 $640 73 4608 #
vertex $-1 $650 $739 #
straight-curve $740 150 75 37.5 -1 0 0 #
cur-twe-attrib $-1 $-1 $-1 $644 572 #
edge $741 $661 $653 $686 $742 0 #
face_name-twe-attrib $-1 $743 $-1 $647 28 #
loop $744 $583 $745 $647 #
plane-surface $746 75 40 60 0 0 1 1 0 0 0 #
edge_name-twe-attrib $-1 $-1 $-1 $650 75 8704 #
straight-curve $747 110 75 48.75 0 0 1 #
edge_name-twe-attrib $-1 $-1 $-1 $651 90 8704 #
straight-curve $748 110 80 30 0 0 -1 #
point $-1 110 80 60 #
cur-twe-attrib $-1 $-1 $-1 $654 588 #
primitive_order-cdc-attrib $-1 $-1 $655 $590 2 10 #
surf-twe-attrib $-1 $-1 $-1 $656 590 #
edge_name-twe-attrib $-1 $-1 $-1 $659 88 8704 #
straight-curve $749 40 80 30 0 0 1 #
point $-1 40 80 60 #
cur-twe-attrib $-1 $-1 $-1 $662 597 #
edge_name-twe-attrib $-1 $-1 $-1 $667 76 8704 #
straight-curve $750 110 80 37.5 0 1 0 #
primitive_order-cdc-attrib $-1 $-1 $671 $620 5 10 #
face_name-twe-attrib $-1 $751 $-1 $672 19 #
face $752 $753 $754 $4 $-1 $755 1 #
loop $756 $-1 $757 $672 #
plane-surface $758 55 30 60 0 -1 0 0 0 -1 0 #
loop_type-twe-attrib $-1 $-1 $-1 $673 0 #
coedge $-1 $759 $760 $761 $762 1 $673 $-1 #
surf-twe-attrib $-1 $-1 $-1 $674 620 #
coedge $-1 $763 $676 $679 $728 1 $621 $-1 #
coedge $-1 $676 $763 $759 $764 0 $621 $-1 #
coedge $-1 $761 $680 $676 $724 0 $683 $-1 #
edge $765 $732 $766 $676 $767 0 #
coedge $-1 $679 $678 $745 $768 1 $552 $-1 #
coedge $-1 $769 $770 $678 $727 0 $771 $-1 #
edge $772 $773 $731 $678 $774 0 #
edge $775 $776 $732 $721 $777 0 #
coedge $-1 $680 $778 $769 $779 0 $683 $-1 #
edge_name-twe-attrib $-1 $-1 $-1 $681 37 4608 #
vertex $-1 $727 $780 #
vertex $-1 $728 $781 #
ellipse-curve $782 55 65 30 0 0 1 5 0 0 1 #
primitive_order-cdc-attrib $-1 $-1 $682 $627 5 10 #
loop_type-twe-attrib $-1 $-1 $-1 $683 0 #
surf-twe-attrib $-1 $783 $-1 $684 627 #
point $-1 110 80 37.5 #
cur-twe-attrib $-1 $-1 $-1 $689 636 #
point $-1 110 75 37.5 #
cur-twe-attrib $-1 $-1 $-1 $693 640 #
edge_name-twe-attrib $-1 $-1 $-1 $695 89 8704 #
straight-curve $784 0 80 60 1 0 0 #
primitive_order-cdc-attrib $-1 $-1 $696 $647 0 10 #
loop_type-twe-attrib $-1 $-1 $-1 $697 1 #
coedge $-1 $785 $786 $725 $768 0 $697 $-1 #
surf-twe-attrib $-1 $-1 $-1 $698 647 #
cur-twe-attrib $-1 $-1 $-1 $700 650 #
cur-twe-attrib $-1 $-1 $-1 $702 651 #
cur-twe-attrib $-1 $-1 $-1 $708 659 #
cur-twe-attrib $-1 $-1 $-1 $712 667 #
primitive_order-cdc-attrib $-1 $-1 $714 $672 5 10 #
face_name-twe-attrib $-1 $787 $-1 $715 20 #
face $788 $789 $790 $4 $-1 $791 1 #
loop $792 $-1 $793 $715 #
plane-surface $794 70 30 60 -1 0 0 0 0 1 0 #
loop_type-twe-attrib $-1 $-1 $-1 $716 0 #
coedge $-1 $795 $796 $797 $798 1 $716 $-1 #
surf-twe-attrib $-1 $-1 $-1 $717 672 #
coedge $-1 $799 $719 $722 $764 1 $673 $-1 #
coedge $-1 $719 $799 $795 $800 0 $673 $-1 #
coedge $-1 $797 $723 $719 $762 0 $683 $-1 #
edge $801 $766 $802 $719 $803 0 #
coedge $-1 $722 $721 $786 $804 1 $621 $-1 #
edge $805 $806 $766 $759 $807 0 #
edge_name-twe-attrib $-1 $-1 $-1 $724 39 4608 #
vertex $-1 $764 $808 #
straight-curve $809 50 65 30 0 -1 0 #
edge $810 $776 $773 $745 $811 0 #
coedge $-1 $812 $726 $729 $779 1 $771 $-1 #
coedge $-1 $726 $812 $785 $813 1 $771 $-1 #
loop $814 $-1 $769 $815 #
edge_name-twe-attrib $-1 $-1 $-1 $727 38 20480 #
vertex $-1 $768 $816 #
straight-curve $817 55 70 60 0 0 -1 #
edge_name-twe-attrib $-1 $-1 $-1 $728 40 20480 #
vertex $-1 $768 $818 #
straight-curve $819 50 65 60 0 0 -1 #
coedge $-1 $729 $820 $821 $822 0 $683 $-1 #
edge $823 $824 $731 $769 $825 0 #
point $-1 55 70 30 #
point $-1 50 65 30 #
cur-twe-attrib $-1 $-1 $-1 $733 681 #
surf-twe-attrib $-1 $-1 $736 $684 373 #
cur-twe-attrib $-1 $-1 $-1 $742 695 #
coedge $-1 $826 $745 $770 $813 0 $697 $-1 #
coedge $-1 $745 $827 $763 $804 0 $697 $-1 #
primitive_order-cdc-attrib $-1 $-1 $752 $715 5 10 #
face_name-twe-attrib $-1 $828 $-1 $753 21 #
face $829 $830 $831 $4 $-1 $832 1 #
loop $833 $-1 $834 $753 #
cone-surface $835 75 20 60 0 0 -1 5 0 0 1 0 1 0 #
loop_type-twe-attrib $-1 $-1 $-1 $754 0 #
coedge $-1 $836 $837 $838 $839 1 $754 $-1 #
surf-twe-attrib $-1 $-1 $-1 $755 715 #
coedge $-1 $840 $757 $760 $800 1 $716 $-1 #
coedge $-1 $757 $840 $836 $841 0 $716 $-1 #
coedge $-1 $838 $761 $757 $798 0 $683 $-1 #
edge $842 $802 $843 $757 $844 0 #
coedge $-1 $760 $759 $827 $845 1 $673 $-1 #
edge $846 $847 $802 $795 $848 0 #
edge_name-twe-attrib $-1 $-1 $-1 $762 41 4608 #
vertex $-1 $800 $849 #
ellipse-curve $850 55 35 30 0 0 1 5 0 0 1 #
edge $851 $806 $776 $786 $852 0 #
edge_name-twe-attrib $-1 $-1 $-1 $764 42 20480 #
vertex $-1 $804 $853 #
straight-curve $854 50 35 60 0 0 -1 #
point $-1 50 35 30 #
cur-twe-attrib $-1 $-1 $-1 $767 724 #
edge_name-twe-attrib $-1 $-1 $-1 $768 59 8704 #
ellipse-curve $855 55 65 60 0 0 -1 5 0 0 1 #
coedge $-1 $770 $769 $856 $857 1 $771 $-1 #
edge $858 $773 $859 $785 $860 0 #
loop_type-twe-attrib $-1 $-1 $-1 $771 0 #
face $861 $627 $771 $4 $-1 $862 1 #
point $-1 55 70 60 #
cur-twe-attrib $-1 $-1 $-1 $774 727 #
point $-1 50 65 60 #
cur-twe-attrib $-1 $-1 $-1 $777 728 #
coedge $-1 $778 $863 $864 $865 0 $683 $-1 #
coedge $-1 $866 $856 $778 $822 1 $867 $-1 #
edge $868 $869 $824 $821 $870 0 #
edge_name-twe-attrib $-1 $-1 $-1 $779 57 4608 #
vertex $-1 $857 $871 #
straight-curve $872 90 70 30 -1 0 0 #
coedge $-1 $873 $785 $874 $875 0 $697 $-1 #
coedge $-1 $786 $876 $799 $845 0 $697 $-1 #
primitive_order-cdc-attrib $-1 $-1 $788 $753 5 10 #
face_name-twe-attrib $-1 $877 $-1 $789 22 #
face $878 $879 $880 $4 $-1 $881 1 #
loop $882 $-1 $883 $789 #
plane-surface $884 75 15 60 0 -1 0 0 0 -1 0 #
loop_type-twe-attrib $-1 $-1 $-1 $790 0 #
coedge $-1 $885 $886 $887 $888 1 $790 $-1 #
surf-twe-attrib $-1 $-1 $-1 $791 753 #
coedge $-1 $889 $793 $796 $841 1 $754 $-1 #
coedge $-1 $793 $889 $885 $890 0 $754 $-1 #
coedge $-1 $887 $797 $793 $839 0 $683 $-1 #
edge $891 $843 $892 $793 $893 0 #
coedge $-1 $796 $795 $876 $894 1 $716 $-1 #
edge $895 $896 $843 $836 $897 0 #
edge_name-twe-attrib $-1 $-1 $-1 $798 43 4608 #
vertex $-1 $841 $898 #
straight-curve $899 55 30 30 1 0 0 #
edge $900 $847 $806 $827 $901 0 #
edge_name-twe-attrib $-1 $-1 $-1 $800 44 20480 #
vertex $-1 $845 $902 #
straight-curve $903 55 30 60 0 0 -1 #
point $-1 55 30 30 #
cur-twe-attrib $-1 $-1 $-1 $803 762 #
edge_name-twe-attrib $-1 $-1 $-1 $804 69 8704 #
straight-curve $904 50 52.5 60 0 1 0 #
point $-1 50 35 60 #
cur-twe-attrib $-1 $-1 $-1 $807 764 #
cur-twe-attrib $-1 $-1 $-1 $811 768 #
coedge $-1 $821 $874 $812 $857 0 $867 $-1 #
edge $905 $859 $824 $812 $906 0 #
edge_name-twe-attrib $-1 $-1 $-1 $813 60 8704 #
vertex $-1 $875 $907 #
straight-curve $908 82.5 70 60 1 0 0 #
face_name-twe-attrib $-1 $909 $-1 $815 26 #
plane-surface $910 90 70 60 0 1 0 0 0 1 0 #
coedge $-1 $820 $911 $912 $913 0 $683 $-1 #
coedge $-1 $914 $915 $820 $865 1 $916 $-1 #
edge $917 $918 $869 $864 $919 0 #
coedge $-1 $874 $821 $915 $920 1 $867 $-1 #
loop $921 $-1 $821 $922 #
edge_name-twe-attrib $-1 $-1 $-1 $822 55 4608 #
vertex $-1 $920 $923 #
ellipse-curve $924 90 65 30 0 0 1 5 0 0 1 #
point $-1 90 70 30 #
cur-twe-attrib $-1 $-1 $-1 $825 779 #
coedge $-1 $925 $826 $926 $927 0 $697 $-1 #
coedge $-1 $856 $866 $826 $875 1 $867 $-1 #
edge $928 $859 $929 $826 $930 0 #
coedge $-1 $827 $931 $840 $894 0 $697 $-1 #
primitive_order-cdc-attrib $-1 $-1 $829 $789 5 10 #
face_name-twe-attrib $-1 $932 $-1 $830 23 #
face $933 $922 $916 $4 $-1 $934 1 #
loop $935 $-1 $912 $830 #
cone-surface $936 90 20 60 0 0 -1 5 0 0 1 0 1 0 #
loop_type-twe-attrib $-1 $-1 $-1 $831 0 #
coedge $-1 $937 $938 $911 $939 1 $831 $-1 #
surf-twe-attrib $-1 $-1 $-1 $832 789 #
coedge $-1 $940 $834 $837 $890 1 $790 $-1 #
coedge $-1 $834 $940 $937 $941 0 $790 $-1 #
coedge $-1 $911 $838 $834 $888 0 $683 $-1 #
edge $942 $892 $943 $834 $944 0 #
coedge $-1 $837 $836 $931 $945 1 $754 $-1 #
edge $946 $947 $892 $885 $948 0 #
edge_name-twe-attrib $-1 $-1 $-1 $839 45 4608 #
vertex $-1 $890 $949 #
straight-curve $950 70 30 30 0 -1 0 #
edge $951 $896 $847 $876 $952 0 #
edge_name-twe-attrib $-1 $-1 $-1 $841 46 8704 #
vertex $-1 $894 $953 #
straight-curve $954 70 30 60 0 0 -1 #
point $-1 70 30 30 #
cur-twe-attrib $-1 $-1 $-1 $844 798 #
edge_name-twe-attrib $-1 $-1 $-1 $845 68 8704 #
ellipse-curve $955 55 35 60 0 0 -1 5 0 0 1 #
point $-1 55 30 60 #
cur-twe-attrib $-1 $-1 $-1 $848 800 #
cur-twe-attrib $-1 $-1 $-1 $852 804 #
edge_name-twe-attrib $-1 $-1 $-1 $857 58 20480 #
straight-curve $956 90 70 60 0 0 -1 #
point $-1 90 70 60 #
cur-twe-attrib $-1 $-1 $-1 $860 813 #
primitive_order-cdc-attrib $-1 $-1 $861 $815 5 10 #
surf-twe-attrib $-1 $-1 $-1 $862 815 #
coedge $-1 $863 $887 $883 $939 0 $683 $-1 #
coedge $-1 $957 $958 $863 $913 1 $880 $-1 #
edge $959 $960 $918 $912 $961 0 #
coedge $-1 $926 $864 $958 $962 1 $916 $-1 #
coedge $-1 $864 $926 $866 $920 0 $916 $-1 #
loop $963 $-1 $864 $879 #
edge_name-twe-attrib $-1 $-1 $-1 $865 53 4608 #
vertex $-1 $962 $964 #
straight-curve $965 95 20 30 0 1 0 #
edge $966 $929 $869 $866 $967 0 #
loop_type-twe-attrib $-1 $-1 $-1 $867 0 #
face $968 $815 $867 $4 $-1 $969 1 #
point $-1 95 65 30 #
cur-twe-attrib $-1 $-1 $-1 $870 822 #
coedge $-1 $970 $873 $971 $972 0 $697 $-1 #
coedge $-1 $915 $914 $873 $927 1 $916 $-1 #
edge $973 $929 $974 $873 $975 0 #
edge_name-twe-attrib $-1 $-1 $-1 $875 61 8704 #
vertex $-1 $927 $976 #
ellipse-curve $977 90 65 60 0 0 -1 5 0 0 1 #
coedge $-1 $876 $978 $889 $945 0 $697 $-1 #
primitive_order-cdc-attrib $-1 $-1 $878 $830 5 10 #
face_name-twe-attrib $-1 $979 $-1 $879 24 #
plane-surface $980 95 20 60 1 0 0 0 0 -1 0 #
loop_type-twe-attrib $-1 $-1 $-1 $880 0 #
surf-twe-attrib $-1 $-1 $-1 $881 830 #
coedge $-1 $981 $883 $886 $941 1 $831 $-1 #
coedge $-1 $883 $981 $957 $982 0 $831 $-1 #
edge $983 $943 $960 $883 $984 0 #
coedge $-1 $886 $885 $978 $985 1 $790 $-1 #
edge $986 $987 $943 $937 $988 0 #
edge_name-twe-attrib $-1 $-1 $-1 $888 47 4608 #
vertex $-1 $941 $989 #
ellipse-curve $990 75 20 30 0 0 1 5 0 0 1 #
edge $991 $947 $896 $931 $992 0 #
edge_name-twe-attrib $-1 $-1 $-1 $890 48 20480 #
vertex $-1 $945 $993 #
straight-curve $994 70 20 60 0 0 -1 #
point $-1 70 20 30 #
cur-twe-attrib $-1 $-1 $-1 $893 839 #
edge_name-twe-attrib $-1 $-1 $-1 $894 67 8704 #
straight-curve $995 65 30 60 -1 0 0 #
point $-1 70 30 60 #
cur-twe-attrib $-1 $-1 $-1 $897 841 #
cur-twe-attrib $-1 $-1 $-1 $901 845 #
cur-twe-attrib $-1 $-1 $-1 $906 857 #
coedge $-1 $971 $912 $938 $982 1 $880 $-1 #
coedge $-1 $912 $971 $914 $962 0 $880 $-1 #
edge_name-twe-attrib $-1 $-1 $-1 $913 51 4608 #
vertex $-1 $982 $996 #
ellipse-curve $997 90 20 30 0 0 1 5 0 0 1 #
edge $998 $974 $918 $914 $999 0 #
loop_type-twe-attrib $-1 $-1 $-1 $916 0 #
point $-1 95 20 30 #
cur-twe-attrib $-1 $-1 $-1 $919 865 #
edge_name-twe-attrib $-1 $-1 $-1 $920 56 20480 #
straight-curve $1000 95 65 60 0 0 -1 #
face_name-twe-attrib $-1 $1001 $-1 $922 25 #
cone-surface $1002 90 65 60 0 0 -1 5 0 0 1 0 1 0 #
coedge $-1 $978 $925 $981 $1003 0 $697 $-1 #
coedge $-1 $958 $957 $925 $972 1 $880 $-1 #
edge $1004 $974 $1005 $925 $1006 0 #
edge_name-twe-attrib $-1 $-1 $-1 $927 62 8704 #
vertex $-1 $972 $1007 #
straight-curve $1008 95 30 60 0 -1 0 #
point $-1 95 65 60 #
cur-twe-attrib $-1 $-1 $-1 $930 875 #
coedge $-1 $931 $970 $940 $985 0 $697 $-1 #
primitive_order-cdc-attrib $-1 $-1 $933 $879 5 10 #
surf-twe-attrib $-1 $-1 $-1 $934 879 #
coedge $-1 $938 $937 $970 $1003 1 $831 $-1 #
edge $1009 $1005 $960 $957 $1010 0 #
edge_name-twe-attrib $-1 $-1 $-1 $939 49 4608 #
straight-curve $1011 75 15 30 1 0 0 #
edge $1012 $987 $947 $978 $1013 0 #
edge_name-twe-attrib $-1 $-1 $-1 $941 50 20480 #
vertex $-1 $985 $1014 #
straight-curve $1015 75 15 60 0 0 -1 #
point $-1 75 15 30 #
cur-twe-attrib $-1 $-1 $-1 $944 888 #
edge_name-twe-attrib $-1 $-1 $-1 $945 66 8704 #
straight-curve $1016 70 35 60 0 1 0 #
point $-1 70 20 60 #
cur-twe-attrib $-1 $-1 $-1 $948 890 #
cur-twe-attrib $-1 $-1 $-1 $952 894 #
point $-1 90 15 30 #
cur-twe-attrib $-1 $-1 $-1 $961 913 #
edge_name-twe-attrib $-1 $-1 $-1 $962 54 20480 #
straight-curve $1017 95 20 60 0 0 -1 #
cur-twe-attrib $-1 $-1 $-1 $967 920 #
primitive_order-cdc-attrib $-1 $-1 $968 $922 5 10 #
surf-twe-attrib $-1 $-1 $-1 $969 922 #
edge $1018 $1005 $987 $970 $1019 0 #
edge_name-twe-attrib $-1 $-1 $-1 $972 63 8704 #
vertex $-1 $1003 $1020 #
ellipse-curve $1021 90 20 60 0 0 -1 5 0 0 1 #
point $-1 95 20 60 #
cur-twe-attrib $-1 $-1 $-1 $975 927 #
edge_name-twe-attrib $-1 $-1 $-1 $982 52 20480 #
straight-curve $1022 90 15 60 0 0 -1 #
cur-twe-attrib $-1 $-1 $-1 $984 939 #
edge_name-twe-attrib $-1 $-1 $-1 $985 65 8704 #
ellipse-curve $1023 75 20 60 0 0 -1 5 0 0 1 #
point $-1 75 15 60 #
cur-twe-attrib $-1 $-1 $-1 $988 941 #
cur-twe-attrib $-1 $-1 $-1 $992 945 #
cur-twe-attrib $-1 $-1 $-1 $999 962 #
edge_name-twe-attrib $-1 $-1 $-1 $1003 64 8704 #
straight-curve $1024 75 15 60 -1 0 0 #
point $-1 90 15 60 #
cur-twe-attrib $-1 $-1 $-1 $1006 972 #
cur-twe-attrib $-1 $-1 $-1 $1010 982 #
cur-twe-attrib $-1 $-1 $-1 $1013 985 #
cur-twe-attrib $-1 $-1 $-1 $1019 1003 #
