600 0 1 0           
110 GICL ACIS Healer - Source: /gicl/data5/repository/tar/spectrometer-new/linkage_arm_43/linkage_arm_43.sat - 6 0 18 ACIS 6.0.3 Solaris 24 Sun Apr 14 00:13:42 2002 
1 9.999999999999999547e-07 1.000000000000000036e-10 
body $-1 $1 $-1 $-1 #
lump $-1 $-1 $2 $0 #
shell $-1 $-1 $-1 $3 $-1 $1 #
face $-1 $4 $5 $2 $-1 $6 reversed single #
face $-1 $7 $8 $2 $-1 $9 forward single #
loop $-1 $10 $11 $3 #
plane-surface $-1 -3.005199999999999871 -3.875 4.130200000000000315 0 -1 0 -0.7071067811865474617 0 0.7071067811865474617 forward_v I I I I #
face $-1 $12 $13 $2 $-1 $14 reversed single #
loop $-1 $15 $16 $4 #
plane-surface $-1 -3.005199999999999871 -4.375 4.130200000000000315 0 -1 0 -0.7071067811865474617 0 0.7071067811865474617 forward_v I I I I #
loop $-1 $17 $18 $3 #
coedge $-1 $11 $11 $19 $20 forward $5 $-1 #
face $-1 $21 $22 $2 $-1 $23 reversed single #
loop $-1 $24 $25 $7 #
cone-surface $-1 3.820042826951919324e-06 -3.875 1.124996179957173492 0 -1 0 -0.3093592167691144867 0 0.3093592167691144867 1 I I 0 1 0.4375 forward I I I I #
loop $-1 $26 $27 $4 #
coedge $-1 $16 $16 $25 $28 reversed $8 $-1 #
loop $-1 $29 $30 $3 #
coedge $-1 $18 $18 $31 $32 forward $10 $-1 #
coedge $-1 $19 $19 $11 $20 reversed $24 $-1 #
edge $-1 $33 -3.141592653589793116 $33 3.141592653589793116 $19 $34 forward 7 unknown #
face $-1 $35 $36 $2 $-1 $37 reversed single #
loop $-1 $38 $39 $12 #
cone-surface $-1 -3.005199999999999871 -3.875 4.130200000000000315 0 -1 0 -0.1545028316892606279 0 0.1545028316892606279 1 I I 0 1 0.2184999999999999998 forward I I I I #
loop $-1 $-1 $19 $7 #
coedge $-1 $25 $25 $16 $28 forward $13 $-1 #
loop $-1 $40 $41 $4 #
coedge $-1 $27 $27 $39 $42 reversed $15 $-1 #
edge $-1 $43 0 $43 6.283185307179586232 $25 $44 forward 7 unknown #
loop $-1 $45 $46 $3 #
coedge $-1 $30 $30 $47 $48 forward $17 $-1 #
coedge $-1 $31 $31 $18 $32 reversed $38 $-1 #
edge $-1 $49 -3.141592653589793116 $49 3.141592653589793116 $31 $50 forward 7 unknown #
vertex $-1 $20 $51 #
ellipse-curve $-1 3.820042826951919324e-06 -3.875 1.124996179957173492 0 -1 0 0.3093592167691144867 0 -0.3093592167691144867 1 I I #
face $-1 $52 $53 $2 $-1 $54 reversed single #
loop $-1 $55 $56 $21 #
cone-surface $-1 -4.002220561473031957 -3.875 5.127220561473031957 0 -1 0 -0.04419417382415921636 0 0.04419417382415921636 1 I I 0 1 0.0625 forward I I I I #
loop $-1 $-1 $31 $12 #
coedge $-1 $39 $39 $27 $42 forward $22 $-1 #
loop $-1 $57 $58 $4 #
coedge $-1 $41 $41 $56 $59 reversed $26 $-1 #
edge $-1 $60 0 $60 6.283185307179586232 $39 $61 forward 7 unknown #
vertex $-1 $28 $62 #
ellipse-curve $-1 3.820042826951919324e-06 -4.375 1.124996179957173492 0 -1 0 -0.3093592167691144867 0 0.3093592167691144867 1 I I #
loop $-1 $63 $64 $3 #
coedge $-1 $46 $46 $65 $66 forward $29 $-1 #
coedge $-1 $47 $47 $30 $48 reversed $55 $-1 #
edge $-1 $67 -3.141592653589802886 $67 3.141592653589783346 $47 $68 forward 7 unknown #
vertex $-1 $32 $69 #
ellipse-curve $-1 -3.005199999999999871 -3.875 4.130200000000000315 0 -1 0 0.1545028316892606279 0 -0.1545028316892606279 1 I I #
point $-1 -0.3093553967262878679 -3.875 1.434355396726288312 #
face $-1 $70 $71 $2 $-1 $72 reversed single #
loop $-1 $73 $74 $35 #
cone-surface $-1 -4.596190257669731771 -3.875 5.721190257669732659 0 -1 0 -0.04419417382415921636 0 0.04419417382415921636 1 I I 0 1 0.0625 forward I I I I #
loop $-1 $-1 $47 $21 #
coedge $-1 $56 $56 $41 $59 forward $36 $-1 #
loop $-1 $75 $76 $4 #
coedge $-1 $58 $58 $74 $77 reversed $40 $-1 #
edge $-1 $78 -1.00475183728576872e-14 $78 6.283185307179576462 $56 $79 forward 7 unknown #
vertex $-1 $42 $80 #
ellipse-curve $-1 -3.005199999999999871 -4.375 4.130200000000000315 0 -1 0 -0.1545028316892606279 0 0.1545028316892606279 1 I I #
point $-1 -0.3093553967262878679 -4.375 1.434355396726288312 #
loop $-1 $81 $82 $3 #
coedge $-1 $64 $64 $83 $84 forward $45 $-1 #
coedge $-1 $65 $65 $46 $66 reversed $73 $-1 #
edge $-1 $85 -3.141592653589793116 $85 3.141592653589793116 $65 $86 forward 7 unknown #
vertex $-1 $48 $87 #
ellipse-curve $-1 -4.002220561473031957 -3.875 5.127220561473031957 0 -1 0 0.04419417382415921636 0 -0.04419417382415921636 1 I I #
point $-1 -3.159702831689260361 -3.875 4.284702831689260805 #
face $-1 $88 $89 $2 $-1 $90 reversed single #
loop $-1 $91 $83 $52 #
cone-surface $-1 -4.886104037956216395 -3.875 6.011104037956216395 0 -1 0 -0.09086322138247135416 0 0.09086322138247135416 1 I I 0 1 0.1285000000000000031 forward I I I I #
loop $-1 $-1 $65 $35 #
coedge $-1 $74 $74 $58 $77 forward $53 $-1 #
loop $-1 $92 $93 $4 #
coedge $-1 $76 $76 $94 $95 reversed $57 $-1 #
edge $-1 $96 0 $96 6.283185307179586232 $74 $97 forward 7 unknown #
vertex $-1 $59 $98 #
ellipse-curve $-1 -4.002220561473031957 -4.375 5.127220561473031957 0 -1 0 -0.04419417382415921636 0 0.04419417382415921636 1 I I #
point $-1 -3.159702831689260361 -4.375 4.284702831689260805 #
loop $-1 $99 $100 $3 #
coedge $-1 $82 $82 $101 $102 forward $63 $-1 #
coedge $-1 $83 $83 $64 $84 reversed $71 $-1 #
edge $-1 $103 -3.141592653589793116 $103 3.141592653589793116 $83 $104 forward 7 unknown #
vertex $-1 $66 $105 #
ellipse-curve $-1 -4.596190257669731771 -3.875 5.721190257669732659 0 -1 0 0.04419417382415921636 0 -0.04419417382415921636 1 I I #
point $-1 -4.046414735297190646 -3.875 5.171414735297191534 #
face $-1 $106 $107 $2 $-1 $108 reversed single #
loop $-1 $109 $101 $70 #
cone-surface $-1 -4.289305914634770289 -3.875 4.840135208311293624 0 -1 0 -0.09086322138247135416 0 0.09086322138247135416 1 I I 0 1 0.1285000000000000031 forward I I I I #
loop $-1 $-1 $110 $52 #
loop $-1 $111 $112 $4 #
coedge $-1 $93 $93 $113 $114 reversed $75 $-1 #
coedge $-1 $94 $94 $76 $95 forward $115 $-1 #
edge $-1 $116 4.996003610813239931e-15 $116 6.283185307179591561 $94 $117 forward 7 unknown #
vertex $-1 $77 $118 #
ellipse-curve $-1 -4.596190257669731771 -4.375 5.721190257669732659 0 -1 0 -0.04419417382415921636 0 0.04419417382415921636 1 I I #
point $-1 -4.046414735297190646 -4.375 5.171414735297191534 #
loop $-1 $119 $120 $3 #
coedge $-1 $100 $100 $121 $122 forward $81 $-1 #
coedge $-1 $101 $101 $82 $102 reversed $89 $-1 #
edge $-1 $123 -3.141592653589798001 $123 3.141592653589788231 $101 $124 forward 7 unknown #
vertex $-1 $84 $125 #
ellipse-curve $-1 -4.886104037956216395 -3.875 6.011104037956216395 0 -1 0 0.09086322138247135416 0 -0.09086322138247135416 1 I I #
point $-1 -4.64038443149389046 -3.875 5.765384431493891348 #
face $-1 $126 $115 $2 $-1 $127 reversed single #
loop $-1 $128 $121 $88 #
cone-surface $-1 -3.715135208311293624 -3.875 5.414305914634770289 0 -1 0 -0.09086322138247135416 0 0.09086322138247135416 1 I I 0 1 0.1285000000000000031 forward I I I I #
loop $-1 $-1 $129 $70 #
coedge $-1 $110 $110 $130 $131 reversed $91 $-1 #
loop $-1 $132 $133 $4 #
coedge $-1 $112 $112 $134 $135 reversed $92 $-1 #
coedge $-1 $113 $113 $93 $114 forward $136 $-1 #
edge $-1 $137 0 $137 6.283185307179586232 $113 $138 forward 7 unknown #
loop $-1 $139 $94 $106 #
vertex $-1 $95 $140 #
ellipse-curve $-1 0.8400466760924452103 -4.375 -0.5098346981461236993 0 -1 0 -0.08838834764831843271 0 0.08838834764831843271 1 I I #
point $-1 -4.64038443149389046 -4.375 5.765384431493891348 #
loop $-1 $141 $142 $3 #
coedge $-1 $120 $120 $143 $144 forward $99 $-1 #
coedge $-1 $121 $121 $100 $122 reversed $107 $-1 #
edge $-1 $145 -3.141592653589798001 $145 3.141592653589788231 $121 $146 forward 7 unknown #
vertex $-1 $102 $147 #
ellipse-curve $-1 -4.289305914634770289 -3.875 4.840135208311293624 0 -1 0 0.09086322138247135416 0 -0.09086322138247135416 1 I I #
point $-1 -4.976967259338687555 -3.875 6.101967259338687555 #
face $-1 $148 $136 $2 $-1 $149 reversed single #
cone-surface $-1 0.8400466760924452103 -3.875 -0.5098346981461236993 0 -1 0 -0.08838834764831843271 0 0.08838834764831843271 1 I I 0 1 0.125 forward I I I I #
loop $-1 $-1 $150 $88 #
coedge $-1 $129 $129 $151 $152 reversed $109 $-1 #
coedge $-1 $130 $130 $110 $131 forward $153 $-1 #
edge $-1 $154 -3.141592653589798001 $154 3.141592653589788231 $130 $155 forward 7 unknown #
loop $-1 $156 $157 $4 #
coedge $-1 $133 $133 $158 $159 reversed $111 $-1 #
coedge $-1 $134 $134 $112 $135 forward $160 $-1 #
edge $-1 $161 0 $161 6.283185307179586232 $134 $162 forward 7 unknown #
loop $-1 $163 $113 $126 #
vertex $-1 $114 $164 #
ellipse-curve $-1 0.2213282425542160148 -4.375 0.1088837353921050521 0 -1 0 -0.08838834764831843271 0 0.08838834764831843271 1 I I #
loop $-1 $-1 $143 $106 #
point $-1 0.7516583284441269441 -4.375 -0.4214463504978063213 #
loop $-1 $165 $166 $3 #
coedge $-1 $142 $142 $167 $168 forward $119 $-1 #
coedge $-1 $143 $143 $120 $144 reversed $139 $-1 #
edge $-1 $169 -3.141592653589788231 $169 3.141592653589798001 $143 $170 forward 7 unknown #
vertex $-1 $122 $171 #
ellipse-curve $-1 -3.715135208311293624 -3.875 5.414305914634770289 0 -1 0 0.09086322138247135416 0 -0.09086322138247135416 1 I I #
point $-1 -4.380169136017241449 -3.875 4.930998429693765672 #
face $-1 $172 $160 $2 $-1 $173 reversed single #
cone-surface $-1 0.2213282425542160148 -3.875 0.1088837353921050521 0 -1 0 -0.08838834764831843271 0 0.08838834764831843271 1 I I 0 1 0.125 forward I I I I #
coedge $-1 $150 $150 $174 $175 reversed $128 $-1 #
coedge $-1 $151 $151 $129 $152 forward $176 $-1 #
edge $-1 $177 -3.141592653589798001 $177 3.141592653589788231 $151 $178 forward 7 unknown #
loop $-1 $-1 $130 $179 #
vertex $-1 $131 $180 #
ellipse-curve $-1 -4.886104037956216395 -4.125 6.011104037956216395 -0 1 0 -0.09086322138247135416 0 0.09086322138247135416 1 I I #
loop $-1 $181 $182 $4 #
coedge $-1 $183 $184 $185 $186 reversed $132 $-1 #
coedge $-1 $158 $158 $133 $159 forward $187 $-1 #
edge $-1 $188 -4.996003610813239931e-15 $188 6.283185307179580903 $158 $189 forward 7 unknown #
loop $-1 $190 $134 $148 #
vertex $-1 $135 $191 #
ellipse-curve $-1 1.016116264607895392 -4.375 0.9036717574457844293 0 -1 0 -0.08838834764831843271 0 0.08838834764831843271 1 I I #
loop $-1 $-1 $167 $126 #
point $-1 0.1329398949058977486 -4.375 0.1972720830404233183 #
loop $-1 $192 $193 $3 #
coedge $-1 $166 $166 $194 $195 forward $141 $-1 #
coedge $-1 $167 $167 $142 $168 reversed $163 $-1 #
edge $-1 $196 -3.141592653589793116 $196 3.141592653589793116 $167 $197 forward 7 unknown #
vertex $-1 $144 $198 #
ellipse-curve $-1 0.8400466760924452103 -3.875 -0.5098346981461236993 0 -1 0 0.08838834764831843271 0 -0.08838834764831843271 1 I I #
point $-1 -3.805998429693764784 -3.875 5.505169136017242337 #
face $-1 $199 $187 $2 $-1 $200 reversed single #
cone-surface $-1 1.016116264607895392 -3.875 0.9036717574457844293 0 -1 0 -0.08838834764831843271 0 0.08838834764831843271 1 I I 0 1 0.125 forward I I I I #
coedge $-1 $174 $174 $150 $175 forward $201 $-1 #
edge $-1 $202 -3.141592653589793116 $202 3.141592653589793116 $174 $203 forward 7 unknown #
loop $-1 $-1 $151 $204 #
vertex $-1 $152 $205 #
ellipse-curve $-1 -4.289305914634770289 -4.125 4.840135208311293624 -0 1 0 -0.09086322138247135416 0 0.09086322138247135416 1 I I #
face $-1 $206 $207 $2 $-1 $208 reversed single #
point $-1 -4.795240816573744347 -4.125 5.920240816573745235 #
loop $-1 $209 $210 $4 #
coedge $-1 $211 $212 $213 $214 reversed $156 $-1 #
coedge $-1 $215 $157 $216 $217 reversed $132 $-1 #
coedge $-1 $157 $215 $218 $219 reversed $132 $-1 #
coedge $-1 $220 $221 $157 $186 forward $222 $-1 #
edge $-1 $223 -9.250000000000001776 $224 0 $185 $225 forward 7 unknown #
loop $-1 $226 $158 $172 #
vertex $-1 $159 $227 #
ellipse-curve $-1 1.634834698146124143 -4.375 0.2849533239075552338 0 -1 0 -0.08838834764831843271 0 0.08838834764831843271 1 I I #
loop $-1 $-1 $194 $148 #
point $-1 0.9277279169595771258 -4.375 0.9920601050941026955 #
loop $-1 $228 $229 $3 #
coedge $-1 $193 $193 $230 $231 forward $165 $-1 #
coedge $-1 $194 $194 $166 $195 reversed $190 $-1 #
edge $-1 $232 -3.141592653589793116 $232 3.141592653589793116 $194 $233 forward 7 unknown #
vertex $-1 $168 $234 #
ellipse-curve $-1 0.2213282425542160148 -3.875 0.1088837353921050521 0 -1 0 0.08838834764831843271 0 -0.08838834764831843271 1 I I #
point $-1 0.7516583284441269441 -3.875 -0.4214463504978063213 #
face $-1 $235 $222 $2 $-1 $236 forward single #
cone-surface $-1 1.634834698146124143 -3.875 0.2849533239075552338 0 -1 0 -0.08838834764831843271 0 0.08838834764831843271 1 I I 0 1 0.125 forward I I I I #
loop $-1 $-1 $174 $237 #
vertex $-1 $175 $238 #
ellipse-curve $-1 -3.715135208311293624 -4.125 5.414305914634770289 -0 1 0 -0.09086322138247135416 0 0.09086322138247135416 1 I I #
face $-1 $239 $240 $2 $-1 $241 reversed single #
point $-1 -4.198442693252298241 -4.125 4.749271986928822464 #
face $-1 $237 $242 $2 $-1 $243 reversed single #
loop $-1 $153 $244 $179 #
plane-surface $-1 -4.886104037956216395 -4.125 6.011104037956216395 -0 1 0 0.7071067811865474617 0 -0.7071067811865474617 forward_v I I I I #
loop $-1 $245 $246 $4 #
coedge $-1 $210 $210 $247 $248 reversed $181 $-1 #
coedge $-1 $249 $182 $250 $251 reversed $156 $-1 #
coedge $-1 $182 $249 $252 $253 reversed $156 $-1 #
coedge $-1 $254 $255 $182 $214 forward $256 $-1 #
edge $-1 $257 -1.945729537366546413 $258 0 $213 $259 forward 7 unknown #
coedge $-1 $184 $183 $260 $261 reversed $132 $-1 #
coedge $-1 $262 $263 $183 $217 forward $264 $-1 #
edge $-1 $265 -1.499999999999999778 $223 0 $216 $266 forward 7 unknown #
coedge $-1 $267 $268 $184 $219 forward $269 $-1 #
edge $-1 $224 -1.499999999999999778 $270 0 $218 $271 forward 7 unknown #
coedge $-1 $272 $185 $268 $273 forward $222 $-1 #
coedge $-1 $185 $272 $262 $274 reversed $222 $-1 #
loop $-1 $-1 $272 $199 #
vertex $-1 $274 $275 #
vertex $-1 $273 $276 #
straight-curve $-1 -5.656850429449552742 -4.375 5.721190257669732659 -0.7071067811865474617 0 0.7071067811865474617 I I #
loop $-1 $-1 $230 $172 #
point $-1 1.546446350497806765 -4.375 0.3733416715558735 #
loop $-1 $-1 $277 $3 #
coedge $-1 $278 $279 $272 $280 forward $192 $-1 #
coedge $-1 $230 $230 $193 $231 reversed $226 $-1 #
edge $-1 $281 -3.141592653589798001 $281 3.141592653589788231 $230 $282 forward 7 unknown #
vertex $-1 $195 $283 #
ellipse-curve $-1 1.016116264607895392 -3.875 0.9036717574457844293 0 -1 0 0.08838834764831843271 0 -0.08838834764831843271 1 I I #
point $-1 0.1329398949058977486 -3.875 0.1972720830404233183 #
face $-1 $284 $264 $2 $-1 $285 forward single #
plane-surface $-1 -5.656850429449552742 -3.875 5.721190257669732659 -0.7071067811865474617 0 -0.7071067811865474617 0 -1 0 forward_v I I I I #
face $-1 $286 $287 $2 $-1 $288 reversed single #
point $-1 -3.624271986928822464 -4.125 5.323442693252299129 #
face $-1 $-1 $289 $2 $-1 $290 reversed single #
loop $-1 $176 $291 $204 #
plane-surface $-1 -4.289305914634770289 -4.125 4.840135208311293624 -0 1 0 0.7071067811865474617 0 -0.7071067811865474617 forward_v I I I I #
loop $-1 $292 $293 $206 #
cone-surface $-1 -4.886104037956216395 -4.375 6.011104037956216395 -0 1 0 0.1436310649285174601 0 -0.1436310649285174601 1 I I 0 1 0.203125 forward I I I I #
coedge $-1 $244 $244 $293 $294 forward $207 $-1 #
loop $-1 $-1 $295 $4 #
coedge $-1 $246 $246 $296 $297 reversed $209 $-1 #
coedge $-1 $247 $247 $210 $248 forward $292 $-1 #
edge $-1 $298 0 $298 6.283185307179586232 $247 $299 forward 7 unknown #
coedge $-1 $212 $211 $300 $301 reversed $156 $-1 #
coedge $-1 $302 $303 $211 $251 forward $304 $-1 #
edge $-1 $305 -3.141592653589779349 $257 -2.33701946683597061e-14 $250 $306 forward 7 unknown #
coedge $-1 $307 $308 $212 $253 forward $309 $-1 #
edge $-1 $258 -3.141592653589819761 $310 1.40443212615082113e-14 $252 $311 forward 7 unknown #
coedge $-1 $312 $213 $308 $313 forward $256 $-1 #
coedge $-1 $213 $312 $302 $314 reversed $256 $-1 #
loop $-1 $-1 $312 $315 #
vertex $-1 $314 $316 #
vertex $-1 $313 $317 #
straight-curve $-1 -2.098113313546514647 -4.375 3.223113313546515091 -0.8172529559244898767 0 0.5762791042825370358 I I #
coedge $-1 $318 $319 $215 $261 forward $320 $-1 #
edge $-1 $270 -9.250000000000001776 $265 0 $260 $321 forward 7 unknown #
coedge $-1 $322 $216 $221 $274 forward $264 $-1 #
coedge $-1 $216 $322 $318 $323 reversed $264 $-1 #
loop $-1 $-1 $322 $235 #
vertex $-1 $323 $324 #
straight-curve $-1 0.883887296526010946 -4.375 -0.8195474683058314724 -0.7071067811865474617 0 -0.7071067811865474617 I I #
coedge $-1 $325 $218 $319 $326 forward $269 $-1 #
coedge $-1 $218 $325 $220 $273 reversed $269 $-1 #
loop $-1 $-1 $325 $327 #
vertex $-1 $326 $328 #
straight-curve $-1 -4.596190257669731771 -4.375 6.78185042944955363 0.7071067811865474617 0 0.7071067811865474617 I I #
coedge $-1 $221 $220 $229 $280 reversed $222 $-1 #
edge $-1 $224 -0.5 $329 0 $268 $330 forward 7 unknown #
edge $-1 $223 -0.5 $331 0 $262 $332 forward 7 unknown #
point $-1 0.883887296526010946 -4.375 -0.8195474683058314724 #
point $-1 -5.656850429449552742 -4.375 5.721190257669732659 #
coedge $-1 $333 $334 $312 $335 forward $228 $-1 #
coedge $-1 $336 $229 $325 $337 forward $192 $-1 #
coedge $-1 $229 $336 $322 $338 forward $192 $-1 #
edge $-1 $331 -9.250000000000001776 $329 0 $272 $339 forward 7 unknown #
vertex $-1 $231 $340 #
ellipse-curve $-1 1.634834698146124143 -3.875 0.2849533239075552338 0 -1 0 0.08838834764831843271 0 -0.08838834764831843271 1 I I #
point $-1 0.9277279169595771258 -3.875 0.9920601050941026955 #
face $-1 $327 $320 $2 $-1 $341 forward single #
plane-surface $-1 0.883887296526010946 -3.875 -0.8195474683058314724 0.7071067811865474617 0 -0.7071067811865474617 0 -1 0 forward_v I I I I #
face $-1 $204 $342 $2 $-1 $343 reversed single #
loop $-1 $201 $344 $237 #
plane-surface $-1 -3.715135208311293624 -4.125 5.414305914634770289 -0 1 0 0.7071067811865474617 0 -0.7071067811865474617 forward_v I I I I #
loop $-1 $345 $346 $239 #
cone-surface $-1 -4.289305914634770289 -4.375 4.840135208311293624 -0 1 0 0.1436310649285174601 0 -0.1436310649285174601 1 I I 0 1 0.203125 forward I I I I #
coedge $-1 $291 $291 $346 $347 forward $240 $-1 #
loop $-1 $-1 $247 $206 #
coedge $-1 $293 $293 $244 $294 reversed $242 $-1 #
edge $-1 $348 -3.141592653589793116 $348 3.141592653589793116 $293 $349 forward 7 unknown #
coedge $-1 $295 $295 $350 $351 reversed $245 $-1 #
coedge $-1 $296 $296 $246 $297 forward $352 $-1 #
edge $-1 $353 3.111252215754288894e-15 $353 6.283185307179589785 $296 $354 forward 7 unknown #
vertex $-1 $248 $355 #
ellipse-curve $-1 -4.886104037956216395 -4.375 6.011104037956216395 0 -1 0 0.1436310649285174601 0 -0.1436310649285174601 1 I I #
coedge $-1 $356 $357 $249 $301 forward $358 $-1 #
edge $-1 $310 -1.945729537366546635 $305 0 $300 $359 forward 7 unknown #
coedge $-1 $360 $250 $255 $314 forward $304 $-1 #
coedge $-1 $250 $360 $356 $361 reversed $304 $-1 #
loop $-1 $-1 $360 $362 #
vertex $-1 $361 $363 #
ellipse-curve $-1 -0.6520298737747522999 -4.375 1.897516799595729609 0 -1 0 0.1440697760706342312 0 0.2043132389811221639 1 I I #
coedge $-1 $364 $252 $357 $365 forward $309 $-1 #
coedge $-1 $252 $364 $254 $313 reversed $309 $-1 #
loop $-1 $-1 $364 $366 #
vertex $-1 $365 $367 #
ellipse-curve $-1 -2.242183089617153513 -4.375 3.018800074565397562 0 -1 0 -0.1440697760706340924 0 -0.2043132389811223026 1 I I #
coedge $-1 $255 $254 $277 $335 reversed $256 $-1 #
edge $-1 $258 -0.5 $368 0 $308 $369 forward 7 unknown #
edge $-1 $257 -0.5 $370 0 $302 $371 forward 7 unknown #
face $-1 $362 $256 $2 $-1 $372 forward single #
point $-1 -0.5079600977041138776 -4.375 2.101830038576847581 #
point $-1 -2.098113313546514647 -4.375 3.223113313546515091 #
coedge $-1 $373 $260 $263 $323 forward $320 $-1 #
coedge $-1 $260 $373 $267 $326 reversed $320 $-1 #
loop $-1 $-1 $373 $284 #
straight-curve $-1 1.944547468305831917 -4.375 0.2411127034739894981 0.7071067811865474617 0 -0.7071067811865474617 I I #
coedge $-1 $263 $262 $279 $338 reversed $264 $-1 #
edge $-1 $265 -0.5 $374 0 $318 $375 forward 7 unknown #
point $-1 1.944547468305831917 -4.375 0.2411127034739894981 #
coedge $-1 $268 $267 $278 $337 reversed $269 $-1 #
edge $-1 $270 -0.5 $376 0 $267 $377 forward 7 unknown #
face $-1 $315 $269 $2 $-1 $378 forward single #
point $-1 -4.596190257669731771 -4.375 6.78185042944955363 #
vertex $-1 $273 $379 #
straight-curve $-1 -5.656850429449552742 -3.875 5.721190257669732659 -0 1 0 I I #
vertex $-1 $274 $380 #
straight-curve $-1 0.883887296526010946 -3.875 -0.8195474683058314724 -0 1 0 I I #
coedge $-1 $381 $277 $364 $382 forward $228 $-1 #
coedge $-1 $277 $381 $360 $383 forward $228 $-1 #
edge $-1 $370 -1.945729537366546413 $368 0 $312 $384 forward 7 unknown #
coedge $-1 $279 $278 $373 $385 forward $192 $-1 #
edge $-1 $329 -1.499999999999999778 $376 0 $325 $386 forward 7 unknown #
edge $-1 $374 -1.499999999999999778 $331 0 $322 $387 forward 7 unknown #
straight-curve $-1 -5.656850429449552742 -3.875 5.721190257669732659 -0.7071067811865474617 0 0.7071067811865474617 I I #
point $-1 1.546446350497806765 -3.875 0.3733416715558735 #
plane-surface $-1 1.944547468305831917 -3.875 0.2411127034739894981 0.7071067811865474617 0 0.7071067811865474617 -0 1 0 forward_v I I I I #
loop $-1 $352 $388 $286 #
cone-surface $-1 -3.715135208311293624 -4.375 5.414305914634770289 -0 1 0 0.1436310649285174601 0 -0.1436310649285174601 1 I I 0 1 0.203125 forward I I I I #
coedge $-1 $344 $344 $388 $389 forward $287 $-1 #
loop $-1 $-1 $350 $239 #
coedge $-1 $346 $346 $291 $347 reversed $289 $-1 #
edge $-1 $390 -3.141592653589790007 $390 3.141592653589796225 $346 $391 forward 7 unknown #
vertex $-1 $294 $392 #
ellipse-curve $-1 -4.886104037956216395 -4.125 6.011104037956216395 0 -1 0 -0.1436310649285174601 0 0.1436310649285174601 1 I I #
coedge $-1 $350 $350 $295 $351 forward $345 $-1 #
edge $-1 $393 3.111252215754288894e-15 $393 6.283185307179589785 $350 $394 forward 7 unknown #
loop $-1 $-1 $296 $286 #
vertex $-1 $297 $395 #
ellipse-curve $-1 -3.715135208311293624 -4.375 5.414305914634770289 0 -1 0 0.1436310649285174601 0 -0.1436310649285174601 1 I I #
point $-1 -4.742472973027698657 -4.375 5.867472973027698657 #
coedge $-1 $396 $300 $303 $361 forward $358 $-1 #
coedge $-1 $300 $396 $307 $365 reversed $358 $-1 #
loop $-1 $-1 $396 $397 #
straight-curve $-1 -0.7960996498453840609 -4.375 1.693203560614604974 0.8172529559244898767 -0 -0.5762791042825370358 I I #
coedge $-1 $303 $302 $334 $383 reversed $304 $-1 #
edge $-1 $305 -0.5 $398 0 $356 $399 forward 7 unknown #
face $-1 $397 $304 $2 $-1 $400 reversed single #
point $-1 -0.7960996498453840609 -4.375 1.693203560614604974 #
coedge $-1 $308 $307 $333 $382 reversed $309 $-1 #
edge $-1 $310 -0.5 $401 0 $307 $402 forward 7 unknown #
face $-1 $179 $309 $2 $-1 $403 reversed single #
point $-1 -2.386252865687785274 -4.375 2.814486835584272484 #
vertex $-1 $313 $404 #
straight-curve $-1 -2.098113313546514647 -3.875 3.223113313546515091 -0 1 0 I I #
vertex $-1 $314 $405 #
straight-curve $-1 -0.5079600977041138776 -3.875 2.101830038576847581 -0 1 0 I I #
plane-surface $-1 -2.098113313546514647 -3.875 3.223113313546515091 -0.5762791042825370358 0 -0.8172529559244900987 0 -1 0 forward_v I I I I #
coedge $-1 $319 $318 $336 $385 reversed $320 $-1 #
vertex $-1 $323 $406 #
straight-curve $-1 1.944547468305831917 -3.875 0.2411127034739894981 -0 1 0 I I #
vertex $-1 $326 $407 #
straight-curve $-1 -4.596190257669731771 -3.875 6.78185042944955363 -0 1 0 I I #
plane-surface $-1 -4.596190257669731771 -3.875 6.78185042944955363 -0.7071067811865474617 0 0.7071067811865474617 -0 1 0 forward_v I I I I #
point $-1 -5.656850429449552742 -3.875 5.721190257669732659 #
point $-1 0.883887296526010946 -3.875 -0.8195474683058314724 #
coedge $-1 $334 $333 $396 $408 forward $228 $-1 #
edge $-1 $368 -3.141592653589819761 $401 1.40443212615082113e-14 $364 $409 forward 7 unknown #
edge $-1 $398 -3.141592653589779349 $370 -2.33701946683597061e-14 $360 $410 forward 7 unknown #
straight-curve $-1 -2.098113313546514647 -3.875 3.223113313546515091 -0.8172529559244898767 0 0.5762791042825370358 I I #
edge $-1 $376 -9.250000000000001776 $374 0 $373 $411 forward 7 unknown #
straight-curve $-1 -4.596190257669731771 -3.875 6.78185042944955363 0.7071067811865474617 0 0.7071067811865474617 I I #
straight-curve $-1 0.883887296526010946 -3.875 -0.8195474683058314724 -0.7071067811865474617 0 -0.7071067811865474617 I I #
coedge $-1 $388 $388 $344 $389 reversed $342 $-1 #
edge $-1 $412 -3.141592653589790007 $412 3.141592653589796225 $388 $413 forward 7 unknown #
vertex $-1 $347 $414 #
ellipse-curve $-1 -4.289305914634770289 -4.125 4.840135208311293624 0 -1 0 -0.1436310649285174601 0 0.1436310649285174601 1 I I #
point $-1 -4.742472973027698657 -4.125 5.867472973027698657 #
vertex $-1 $351 $415 #
ellipse-curve $-1 -4.289305914634770289 -4.375 4.840135208311293624 0 -1 0 0.1436310649285174601 0 -0.1436310649285174601 1 I I #
point $-1 -3.571504143382775887 -4.375 5.27067484970625344 #
coedge $-1 $357 $356 $381 $408 reversed $358 $-1 #
face $-1 $366 $358 $2 $-1 $416 forward single #
vertex $-1 $361 $417 #
straight-curve $-1 -0.7960996498453840609 -3.875 1.693203560614604974 -3.532708032038490859e-16 1 -3.532708032038490859e-16 I I #
cone-surface $-1 -0.6520298737747522999 -3.875 1.897516799595729609 0 -1 0 -0.1767766952966368654 0 0.1767766952966368654 1 I I 0 1 0.25 forward I I I I #
vertex $-1 $365 $418 #
straight-curve $-1 -2.386252865687785274 -3.875 2.814486835584272484 9.420554752102651493e-16 1 -3.140184917367545896e-16 I I #
cone-surface $-1 -2.242183089617153513 -3.875 3.018800074565397562 0 -1 0 -0.1767766952966368654 0 0.1767766952966368654 1 I I 0 1 0.25 forward I I I I #
point $-1 -2.098113313546514647 -3.875 3.223113313546515091 #
point $-1 -0.5079600977041138776 -3.875 2.101830038576847581 #
point $-1 1.944547468305831917 -3.875 0.2411127034739894981 #
point $-1 -4.596190257669731771 -3.875 6.78185042944955363 #
edge $-1 $401 -1.945729537366546635 $398 0 $396 $419 forward 7 unknown #
ellipse-curve $-1 -2.242183089617153513 -3.875 3.018800074565397562 0 -1 0 -0.1440697760706340924 0 -0.2043132389811223026 1 I I #
ellipse-curve $-1 -0.6520298737747522999 -3.875 1.897516799595729609 0 -1 0 0.1440697760706342312 0 0.2043132389811221639 1 I I #
straight-curve $-1 1.944547468305831917 -3.875 0.2411127034739894981 0.7071067811865474617 0 -0.7071067811865474617 I I #
vertex $-1 $389 $420 #
ellipse-curve $-1 -3.715135208311293624 -4.125 5.414305914634770289 0 -1 0 -0.1436310649285174601 0 0.1436310649285174601 1 I I #
point $-1 -4.145674849706252552 -4.125 4.696504143382776775 #
point $-1 -4.145674849706252552 -4.375 4.696504143382776775 #
plane-surface $-1 -0.7960996498453840609 -3.875 1.693203560614604974 0.5762791042825370358 0 0.8172529559244900987 -0 1 0 forward_v I I I I #
point $-1 -0.7960996498453840609 -3.875 1.693203560614604974 #
point $-1 -2.386252865687785274 -3.875 2.814486835584272484 #
straight-curve $-1 -0.7960996498453840609 -3.875 1.693203560614604974 0.8172529559244898767 -0 -0.5762791042825370358 I I #
point $-1 -3.571504143382775887 -4.125 5.27067484970625344 #
End-of-ACIS-data 