  0
SECTION
  2
HEADER
  9
$ACADVER
  1
AC1009
  9
$INSBASE
 10
0.0
 20
0.0
 30
0.0
  9
$EXTMIN
 10
-1.0
 20
-5.0
 30
-1.0
  9
$EXTMAX
 10
5.0
 20
6.0
 30
5.0
  9
$LIMMIN
 10
0.0
 20
0.0
  9
$LIMMAX
 10
12.0
 20
9.0
  9
$ORTHOMODE
 70
     0
  9
$REGENMODE
 70
     1
  9
$FILLMODE
 70
     1
  9
$QTEXTMODE
 70
     0
  9
$MIRRTEXT
 70
     1
  9
$DRAGMODE
 70
     2
  9
$LTSCALE
 40
1.0
  9
$OSMODE
 70
     0
  9
$ATTMODE
 70
     1
  9
$TEXTSIZE
 40
0.2
  9
$TRACEWID
 40
0.05
  9
$TEXTSTYLE
  7
STANDARD
  9
$CLAYER
  8
0
  9
$CELTYPE
  6
BYLAYER
  9
$CECOLOR
 62
   256
  9
$DIMSCALE
 40
1.0
  9
$DIMASZ
 40
0.18
  9
$DIMEXO
 40
0.0625
  9
$DIMDLI
 40
0.38
  9
$DIMRND
 40
0.0
  9
$DIMDLE
 40
0.0
  9
$DIMEXE
 40
0.18
  9
$DIMTP
 40
0.0
  9
$DIMTM
 40
0.0
  9
$DIMTXT
 40
0.18
  9
$DIMCEN
 40
0.09
  9
$DIMTSZ
 40
0.0
  9
$DIMTOL
 70
     0
  9
$DIMLIM
 70
     0
  9
$DIMTIH
 70
     1
  9
$DIMTOH
 70
     1
  9
$DIMSE1
 70
     0
  9
$DIMSE2
 70
     0
  9
$DIMTAD
 70
     0
  9
$DIMZIN
 70
     0
  9
$DIMBLK
  1

  9
$DIMASO
 70
     1
  9
$DIMSHO
 70
     1
  9
$DIMPOST
  1

  9
$DIMAPOST
  1

  9
$DIMALT
 70
     0
  9
$DIMALTD
 70
     2
  9
$DIMALTF
 40
25.4
  9
$DIMLFAC
 40
1.0
  9
$DIMTOFL
 70
     0
  9
$DIMTVP
 40
0.0
  9
$DIMTIX
 70
     0
  9
$DIMSOXD
 70
     0
  9
$DIMSAH
 70
     0
  9
$DIMBLK1
  1

  9
$DIMBLK2
  1

  9
$DIMSTYLE
  2
*UNNAMED
  9
$DIMCLRD
 70
     0
  9
$DIMCLRE
 70
     0
  9
$DIMCLRT
 70
     0
  9
$DIMTFAC
 40
1.0
  9
$DIMGAP
 40
0.09
  9
$LUNITS
 70
     2
  9
$LUPREC
 70
     4
  9
$SKETCHINC
 40
0.1
  9
$FILLETRAD
 40
0.0
  9
$AUNITS
 70
     0
  9
$AUPREC
 70
     0
  9
$MENU
  1
acad
  9
$ELEVATION
 40
0.0
  9
$PELEVATION
 40
0.0
  9
$THICKNESS
 40
0.0
  9
$LIMCHECK
 70
     0
  9
$BLIPMODE
 70
     1
  9
$CHAMFERA
 40
0.0
  9
$CHAMFERB
 40
0.0
  9
$SKPOLY
 70
     0
  9
$TDCREATE
 40
2449377.348633425
  9
$TDUPDATE
 40
2449377.348633425
  9
$TDINDWG
 40
0.0000000000
  9
$TDUSRTIMER
 40
0.0000000000
  9
$USRTIMER
 70
     1
  9
$ANGBASE
 50
0.0
  9
$ANGDIR
 70
     0
  9
$PDMODE
 70
     0
  9
$PDSIZE
 40
0.0
  9
$PLINEWID
 40
0.0
  9
$COORDS
 70
     1
  9
$SPLFRAME
 70
     0
  9
$SPLINETYPE
 70
     6
  9
$SPLINESEGS
 70
     8
  9
$ATTDIA
 70
     0
  9
$ATTREQ
 70
     1
  9
$HANDLING
 70
     1
  9
$HANDSEED
  5
1DA
  9
$SURFTAB1
 70
     6
  9
$SURFTAB2
 70
     6
  9
$SURFTYPE
 70
     6
  9
$SURFU
 70
     6
  9
$SURFV
 70
     6
  9
$UCSNAME
  2

  9
$UCSORG
 10
0.0
 20
0.0
 30
0.0
  9
$UCSXDIR
 10
1.0
 20
0.0
 30
0.0
  9
$UCSYDIR
 10
0.0
 20
1.0
 30
0.0
  9
$PUCSNAME
  2

  9
$PUCSORG
 10
0.0
 20
0.0
 30
0.0
  9
$PUCSXDIR
 10
1.0
 20
0.0
 30
0.0
  9
$PUCSYDIR
 10
0.0
 20
1.0
 30
0.0
  9
$USERI1
 70
     0
  9
$USERI2
 70
     0
  9
$USERI3
 70
     0
  9
$USERI4
 70
     0
  9
$USERI5
 70
     0
  9
$USERR1
 40
0.0
  9
$USERR2
 40
0.0
  9
$USERR3
 40
0.0
  9
$USERR4
 40
0.0
  9
$USERR5
 40
0.0
  9
$WORLDVIEW
 70
     1
  9
$SHADEDGE
 70
     3
  9
$SHADEDIF
 70
    70
  9
$TILEMODE
 70
     1
  9
$MAXACTVP
 70
    16
  9
$PINSBASE
 10
0.0
 20
0.0
 30
0.0
  9
$PLIMCHECK
 70
     0
  9
$PEXTMIN
 10
1.000000E+20
 20
1.000000E+20
 30
1.000000E+20
  9
$PEXTMAX
 10
-1.000000E+20
 20
-1.000000E+20
 30
-1.000000E+20
  9
$PLIMMIN
 10
0.0
 20
0.0
  9
$PLIMMAX
 10
12.0
 20
9.0
  9
$UNITMODE
 70
     0
  9
$VISRETAIN
 70
     0
  9
$PLINEGEN
 70
     0
  9
$PSLTSCALE
 70
     1
  9
$TREEDEPTH
 70
  3020
  9
$DWGCODEPAGE
  3
ascii
  0
ENDSEC
  0
SECTION
  2
TABLES
  0
TABLE
  2
VPORT
 70
     2
  0
VPORT
  2
*ACTIVE
 70
     0
 10
0.0
 20
0.0
 11
1.0
 21
1.0
 12
2.360261
 22
0.547723
 13
0.0
 23
0.0
 14
1.0
 24
1.0
 15
0.0
 25
0.0
 16
1.0
 26
2.0
 36
1.0
 17
0.0
 27
0.0
 37
0.0
 40
9.128709
 41
1.594883
 42
50.0
 43
0.0
 44
0.0
 50
0.0
 51
0.0
 71
     0
 72
   100
 73
     1
 74
     1
 75
     0
 76
     0
 77
     0
 78
     0
  0
ENDTAB
  0
TABLE
  2
LTYPE
 70
     1
  0
LTYPE
  2
CONTINUOUS
 70
    64
  3
Solid line
 72
    65
 73
     0
 40
0.0
  0
ENDTAB
  0
TABLE
  2
LAYER
 70
     2
  0
LAYER
  2
0
 70
    64
 62
     7
  6
CONTINUOUS
  0
LAYER
  2
AME_FRZ
 70
    65
 62
     7
  6
CONTINUOUS
  0
ENDTAB
  0
TABLE
  2
STYLE
 70
     1
  0
STYLE
  2
STANDARD
 70
     0
 40
0.0
 41
1.0
 50
0.0
 71
     0
 42
0.2
  3
txt
  4

  0
ENDTAB
  0
TABLE
  2
VIEW
 70
     0
  0
ENDTAB
  0
TABLE
  2
UCS
 70
     0
  0
ENDTAB
  0
TABLE
  2
APPID
 70
     3
  0
APPID
  2
ACAD
 70
    64
  0
APPID
  2
AME_SOL
 70
    64
  0
APPID
  2
AVE_INVOKE
 70
    64
  0
ENDTAB
  0
TABLE
  2
DIMSTYLE
 70
     0
  0
ENDTAB
  0
ENDSEC
  0
SECTION
  2
BLOCKS
  0
BLOCK
  8
0
  5
1
  2
AME_NIL
 70
    64
 10
0.0
 20
0.0
 30
0.0
  1
AME_NIL
  3
AME_NIL
  0
ENDBLK
  8
0
  5
2
  0
BLOCK
  8
0
  5
4
  2
AME_SOL
 70
    64
 10
0.0
 20
0.0
 30
0.0
  1
AME_SOL
  3
AME_SOL
  0
ENDBLK
  8
0
  5
5
  0
BLOCK
  8
0
  5
C5
  2
SOLAXES
 70
     0
 10
0.0
 20
0.0
 30
0.0
  1
SOLAXES
  3
SOLAXES
  0
LINE
  8
0
 62
     0
  5
C6
 10
0.0
 20
0.0
 30
0.0
 11
2.738613
 21
0.0
 31
0.0
  0
LINE
  8
0
 62
     0
  5
C7
 10
0.0
 20
0.0
 30
0.0
 11
0.0
 21
2.738613
 31
0.0
  0
LINE
  8
0
 62
     0
  5
C8
 10
0.0
 20
0.0
 30
0.0
 11
0.0
 21
0.0
 31
2.738613
  0
CIRCLE
  8
0
 62
     0
  5
C9
 10
0.0
 20
0.0
 30
2.464752
 40
0.136931
210
1.0
220
0.0
230
0.0
  0
LINE
  8
0
 62
     0
  5
CA
 10
2.464752
 20
0.136931
 30
0.0
 11
2.738613
 21
0.0
 31
0.0
  0
LINE
  8
0
 62
     0
  5
CB
 10
2.464752
 20
0.0
 30
0.136931
 11
2.738613
 21
0.0
 31
0.0
  0
LINE
  8
0
 62
     0
  5
CC
 10
2.464752
 20
-0.136931
 30
0.0
 11
2.738613
 21
0.0
 31
0.0
  0
LINE
  8
0
 62
     0
  5
CD
 10
2.464752
 20
0.0
 30
-0.136931
 11
2.738613
 21
0.0
 31
0.0
  0
CIRCLE
  8
0
 62
     0
  5
CE
 10
0.0
 20
0.0
 30
2.464752
 40
0.136931
210
0.0
220
1.0
230
0.0
  0
LINE
  8
0
 62
     0
  5
CF
 10
0.136931
 20
2.464752
 30
0.0
 11
0.0
 21
2.738613
 31
0.0
  0
LINE
  8
0
 62
     0
  5
D0
 10
0.0
 20
2.464752
 30
0.136931
 11
0.0
 21
2.738613
 31
0.0
  0
LINE
  8
0
 62
     0
  5
D1
 10
-0.136931
 20
2.464752
 30
0.0
 11
0.0
 21
2.738613
 31
0.0
  0
LINE
  8
0
 62
     0
  5
D2
 10
0.0
 20
2.464752
 30
-0.136931
 11
0.0
 21
2.738613
 31
0.0
  0
CIRCLE
  8
0
 62
     0
  5
D3
 10
0.0
 20
0.0
 30
2.19089
 40
0.136931
210
0.0
220
1.0
230
0.0
  0
LINE
  8
0
 62
     0
  5
D4
 10
0.136931
 20
2.19089
 30
0.0
 11
0.0
 21
2.464752
 31
0.0
  0
LINE
  8
0
 62
     0
  5
D5
 10
0.0
 20
2.19089
 30
0.136931
 11
0.0
 21
2.464752
 31
0.0
  0
LINE
  8
0
 62
     0
  5
D6
 10
-0.136931
 20
2.19089
 30
0.0
 11
0.0
 21
2.464752
 31
0.0
  0
LINE
  8
0
 62
     0
  5
D7
 10
0.0
 20
2.19089
 30
-0.136931
 11
0.0
 21
2.464752
 31
0.0
  0
CIRCLE
  8
0
 62
     0
  5
D8
 10
0.0
 20
0.0
 30
2.464752
 40
0.136931
  0
LINE
  8
0
 62
     0
  5
D9
 10
0.136931
 20
0.0
 30
2.464752
 11
0.0
 21
0.0
 31
2.738613
  0
LINE
  8
0
 62
     0
  5
DA
 10
0.0
 20
0.136931
 30
2.464752
 11
0.0
 21
0.0
 31
2.738613
  0
LINE
  8
0
 62
     0
  5
DB
 10
-0.136931
 20
0.0
 30
2.464752
 11
0.0
 21
0.0
 31
2.738613
  0
LINE
  8
0
 62
     0
  5
DC
 10
0.0
 20
-0.136931
 30
2.464752
 11
0.0
 21
0.0
 31
2.738613
  0
CIRCLE
  8
0
 62
     0
  5
DD
 10
0.0
 20
0.0
 30
2.19089
 40
0.136931
  0
LINE
  8
0
 62
     0
  5
DE
 10
0.136931
 20
0.0
 30
2.19089
 11
0.0
 21
0.0
 31
2.464752
  0
LINE
  8
0
 62
     0
  5
DF
 10
0.0
 20
0.136931
 30
2.19089
 11
0.0
 21
0.0
 31
2.464752
  0
LINE
  8
0
 62
     0
  5
E0
 10
-0.136931
 20
0.0
 30
2.19089
 11
0.0
 21
0.0
 31
2.464752
  0
LINE
  8
0
 62
     0
  5
E1
 10
0.0
 20
-0.136931
 30
2.19089
 11
0.0
 21
0.0
 31
2.464752
  0
CIRCLE
  8
0
 62
     0
  5
E2
 10
0.0
 20
0.0
 30
1.917029
 40
0.136931
  0
LINE
  8
0
 62
     0
  5
E3
 10
0.136931
 20
0.0
 30
1.917029
 11
0.0
 21
0.0
 31
2.19089
  0
LINE
  8
0
 62
     0
  5
E4
 10
0.0
 20
0.136931
 30
1.917029
 11
0.0
 21
0.0
 31
2.19089
  0
LINE
  8
0
 62
     0
  5
E5
 10
-0.136931
 20
0.0
 30
1.917029
 11
0.0
 21
0.0
 31
2.19089
  0
LINE
  8
0
 62
     0
  5
E6
 10
0.0
 20
-0.136931
 30
1.917029
 11
0.0
 21
0.0
 31
2.19089
  0
ENDBLK
  8
0
  5
E7
  0
BLOCK
  8
0
  5
EC
  2
*U3
 70
    65
 10
0.0
 20
0.0
 30
0.0
  1
*U
  3
*U
  0
LINE
  8
0
 62
     7
  5
ED
 10
5.0
 20
6.0
 30
0.0
 11
5.0
 21
6.0
 31
4.0
1001
AME_SOL
1070
     1
1071
       30
  0
LINE
  8
0
 62
     7
  5
EE
 10
5.0
 20
6.0
 30
4.0
 11
5.0
 21
0.0
 31
4.0
1001
AME_SOL
1070
     1
1071
       29
  0
LINE
  8
0
 62
     7
  5
EF
 10
0.0
 20
6.0
 30
4.0
 11
5.0
 21
6.0
 31
4.0
1001
AME_SOL
1070
     1
1071
       28
  0
LINE
  8
0
 62
     7
  5
F0
 10
0.0
 20
6.0
 30
0.0
 11
0.0
 21
6.0
 31
4.0
1001
AME_SOL
1070
     1
1071
       27
  0
LINE
  8
0
 62
     7
  5
F1
 10
0.0
 20
6.0
 30
4.0
 11
0.0
 21
0.0
 31
4.0
1001
AME_SOL
1070
     1
1071
       26
  0
LINE
  8
0
 62
     7
  5
F2
 10
0.0
 20
0.0
 30
0.0
 11
0.0
 21
0.0
 31
4.0
1001
AME_SOL
1070
     1
1071
       25
  0
LINE
  8
0
 62
     7
  5
F3
 10
5.0
 20
0.0
 30
4.0
 11
5.0
 21
0.0
 31
0.0
1001
AME_SOL
1070
     1
1071
       24
  0
LINE
  8
0
 62
     7
  5
F4
 10
0.0
 20
0.0
 30
4.0
 11
5.0
 21
0.0
 31
4.0
1001
AME_SOL
1070
     1
1071
       23
  0
LINE
  8
0
 62
     7
  5
F5
 10
0.0
 20
0.0
 30
0.0
 11
5.0
 21
0.0
 31
0.0
1001
AME_SOL
1070
     1
1071
       22
  0
LINE
  8
0
 62
     7
  5
F6
 10
0.0
 20
6.0
 30
0.0
 11
0.0
 21
0.0
 31
0.0
1001
AME_SOL
1070
     1
1071
       21
  0
LINE
  8
0
 62
     7
  5
F7
 10
5.0
 20
0.0
 30
0.0
 11
5.0
 21
6.0
 31
0.0
1001
AME_SOL
1070
     1
1071
       20
  0
LINE
  8
0
 62
     7
  5
F8
 10
5.0
 20
6.0
 30
0.0
 11
0.0
 21
6.0
 31
0.0
1001
AME_SOL
1070
     1
1071
       19
  0
CIRCLE
  8
0
 62
     7
  5
F9
 10
3.0
 20
2.0
 30
0.0
 40
1.0
210
1.0
220
0.0
230
0.0000000000000001
1001
AME_SOL
1070
     1
1071
       18
  0
CIRCLE
  8
0
 62
     7
  5
FA
 10
-3.0
 20
2.0
 30
1.0
 40
1.0
210
0.0
220
1.0
230
-0.0000000000000002
1001
AME_SOL
1070
     1
1071
       17
  0
CIRCLE
  8
0
 62
     7
  5
FB
 10
-3.0
 20
2.0
 30
6.0
 40
1.0
210
0.0
220
1.0
230
-0.0000000000000002
1001
AME_SOL
1070
     1
1071
       16
  0
POLYLINE
  8
0
 62
     7
  5
FC
 66
     1
 10
0.0
 20
0.0
 30
0.0
 70
     8
  0
VERTEX
  8
0
 62
     7
  5
FD
 10
3.0
 20
3.0
 30
1.0
 70
    32
  0
VERTEX
  8
0
 62
     7
  5
FE
 10
2.933207
 20
3.066793
 30
1.002233
 70
    32
  0
VERTEX
  8
0
 62
     7
  5
FF
 10
2.866713
 20
3.133287
 30
1.008923
 70
    32
  0
VERTEX
  8
0
 62
     7
  5
100
 10
2.800814
 20
3.199186
 30
1.020038
 70
    32
  0
VERTEX
  8
0
 62
     7
  5
101
 10
2.735805
 20
3.264195
 30
1.035531
 70
    32
  0
VERTEX
  8
0
 62
     7
  5
102
 10
2.671975
 20
3.328025
 30
1.055331
 70
    32
  0
VERTEX
  8
0
 62
     7
  5
103
 10
2.609611
 20
3.390389
 30
1.07935
 70
    32
  0
VERTEX
  8
0
 62
     7
  5
104
 10
2.54899
 20
3.45101
 30
1.107481
 70
    32
  0
VERTEX
  8
0
 62
     7
  5
105
 10
2.490383
 20
3.509617
 30
1.139598
 70
    32
  0
VERTEX
  8
0
 62
     7
  5
106
 10
2.434053
 20
3.565947
 30
1.175558
 70
    32
  0
VERTEX
  8
0
 62
     7
  5
107
 10
2.38025
 20
3.61975
 30
1.215201
 70
    32
  0
VERTEX
  8
0
 62
     7
  5
108
 10
2.329215
 20
3.670785
 30
1.258348
 70
    32
  0
VERTEX
  8
0
 62
     7
  5
109
 10
2.281176
 20
3.718824
 30
1.304808
 70
    32
  0
VERTEX
  8
0
 62
     7
  5
10A
 10
2.236348
 20
3.763652
 30
1.354372
 70
    32
  0
VERTEX
  8
0
 62
     7
  5
10B
 10
2.19493
 20
3.80507
 30
1.40682
 70
    32
  0
VERTEX
  8
0
 62
     7
  5
10C
 10
2.157108
 20
3.842892
 30
1.461918
 70
    32
  0
VERTEX
  8
0
 62
     7
  5
10D
 10
2.12305
 20
3.87695
 30
1.519418
 70
    32
  0
VERTEX
  8
0
 62
     7
  5
10E
 10
2.092909
 20
3.907091
 30
1.579065
 70
    32
  0
VERTEX
  8
0
 62
     7
  5
10F
 10
2.066819
 20
3.933181
 30
1.640592
 70
    32
  0
VERTEX
  8
0
 62
     7
  5
110
 10
2.044898
 20
3.955102
 30
1.703724
 70
    32
  0
VERTEX
  8
0
 62
     7
  5
111
 10
2.027241
 20
3.972759
 30
1.76818
 70
    32
  0
VERTEX
  8
0
 62
     7
  5
112
 10
2.01393
 20
3.98607
 30
1.833671
 70
    32
  0
VERTEX
  8
0
 62
     7
  5
113
 10
2.005022
 20
3.994978
 30
1.899904
 70
    32
  0
VERTEX
  8
0
 62
     7
  5
114
 10
2.000558
 20
3.999442
 30
1.966585
 70
    32
  0
VERTEX
  8
0
 62
     7
  5
115
 10
2.000558
 20
3.999442
 30
2.033415
 70
    32
  0
VERTEX
  8
0
 62
     7
  5
116
 10
2.005022
 20
3.994978
 30
2.100096
 70
    32
  0
VERTEX
  8
0
 62
     7
  5
117
 10
2.01393
 20
3.98607
 30
2.166329
 70
    32
  0
VERTEX
  8
0
 62
     7
  5
118
 10
2.027241
 20
3.972759
 30
2.23182
 70
    32
  0
VERTEX
  8
0
 62
     7
  5
119
 10
2.044897
 20
3.955103
 30
2.296276
 70
    32
  0
VERTEX
  8
0
 62
     7
  5
11A
 10
2.066819
 20
3.933181
 30
2.359408
 70
    32
  0
VERTEX
  8
0
 62
     7
  5
11B
 10
2.092909
 20
3.907091
 30
2.420935
 70
    32
  0
VERTEX
  8
0
 62
     7
  5
11C
 10
2.12305
 20
3.87695
 30
2.480582
 70
    32
  0
VERTEX
  8
0
 62
     7
  5
11D
 10
2.157108
 20
3.842892
 30
2.538082
 70
    32
  0
VERTEX
  8
0
 62
     7
  5
11E
 10
2.19493
 20
3.80507
 30
2.59318
 70
    32
  0
VERTEX
  8
0
 62
     7
  5
11F
 10
2.236348
 20
3.763652
 30
2.645628
 70
    32
  0
VERTEX
  8
0
 62
     7
  5
120
 10
2.281176
 20
3.718824
 30
2.695192
 70
    32
  0
VERTEX
  8
0
 62
     7
  5
121
 10
2.329215
 20
3.670785
 30
2.741652
 70
    32
  0
VERTEX
  8
0
 62
     7
  5
122
 10
2.38025
 20
3.61975
 30
2.784799
 70
    32
  0
VERTEX
  8
0
 62
     7
  5
123
 10
2.434053
 20
3.565947
 30
2.824442
 70
    32
  0
VERTEX
  8
0
 62
     7
  5
124
 10
2.490383
 20
3.509617
 30
2.860402
 70
    32
  0
VERTEX
  8
0
 62
     7
  5
125
 10
2.54899
 20
3.45101
 30
2.892519
 70
    32
  0
VERTEX
  8
0
 62
     7
  5
126
 10
2.609611
 20
3.390389
 30
2.92065
 70
    32
  0
VERTEX
  8
0
 62
     7
  5
127
 10
2.671975
 20
3.328025
 30
2.944669
 70
    32
  0
VERTEX
  8
0
 62
     7
  5
128
 10
2.735805
 20
3.264195
 30
2.964469
 70
    32
  0
VERTEX
  8
0
 62
     7
  5
129
 10
2.800814
 20
3.199186
 30
2.979962
 70
    32
  0
VERTEX
  8
0
 62
     7
  5
12A
 10
2.866713
 20
3.133287
 30
2.991077
 70
    32
  0
VERTEX
  8
0
 62
     7
  5
12B
 10
2.933207
 20
3.066793
 30
2.997767
 70
    32
  0
VERTEX
  8
0
 62
     7
  5
12C
 10
3.0
 20
3.0
 30
3.0
 70
    32
  0
SEQEND
  8
0
 62
     7
  5
12D
1001
AME_SOL
1070
     1
1071
       15
  0
POLYLINE
  8
0
 62
     7
  5
12E
 66
     1
 10
0.0
 20
0.0
 30
0.0
 70
     8
  0
VERTEX
  8
0
 62
     7
  5
12F
 10
3.0
 20
3.0
 30
3.0
 70
    32
  0
VERTEX
  8
0
 62
     7
  5
130
 10
2.933207
 20
2.933207
 30
2.997767
 70
    32
  0
VERTEX
  8
0
 62
     7
  5
131
 10
2.866713
 20
2.866713
 30
2.991077
 70
    32
  0
VERTEX
  8
0
 62
     7
  5
132
 10
2.800814
 20
2.800814
 30
2.979962
 70
    32
  0
VERTEX
  8
0
 62
     7
  5
133
 10
2.735805
 20
2.735805
 30
2.964469
 70
    32
  0
VERTEX
  8
0
 62
     7
  5
134
 10
2.671975
 20
2.671975
 30
2.944669
 70
    32
  0
VERTEX
  8
0
 62
     7
  5
135
 10
2.609611
 20
2.609611
 30
2.92065
 70
    32
  0
VERTEX
  8
0
 62
     7
  5
136
 10
2.54899
 20
2.54899
 30
2.892519
 70
    32
  0
VERTEX
  8
0
 62
     7
  5
137
 10
2.490383
 20
2.490383
 30
2.860402
 70
    32
  0
VERTEX
  8
0
 62
     7
  5
138
 10
2.434053
 20
2.434053
 30
2.824442
 70
    32
  0
VERTEX
  8
0
 62
     7
  5
139
 10
2.38025
 20
2.38025
 30
2.784799
 70
    32
  0
VERTEX
  8
0
 62
     7
  5
13A
 10
2.329215
 20
2.329215
 30
2.741652
 70
    32
  0
VERTEX
  8
0
 62
     7
  5
13B
 10
2.281176
 20
2.281176
 30
2.695192
 70
    32
  0
VERTEX
  8
0
 62
     7
  5
13C
 10
2.236348
 20
2.236348
 30
2.645628
 70
    32
  0
VERTEX
  8
0
 62
     7
  5
13D
 10
2.19493
 20
2.19493
 30
2.59318
 70
    32
  0
VERTEX
  8
0
 62
     7
  5
13E
 10
2.157108
 20
2.157108
 30
2.538082
 70
    32
  0
VERTEX
  8
0
 62
     7
  5
13F
 10
2.12305
 20
2.12305
 30
2.480582
 70
    32
  0
VERTEX
  8
0
 62
     7
  5
140
 10
2.092909
 20
2.092909
 30
2.420935
 70
    32
  0
VERTEX
  8
0
 62
     7
  5
141
 10
2.066819
 20
2.066819
 30
2.359408
 70
    32
  0
VERTEX
  8
0
 62
     7
  5
142
 10
2.044898
 20
2.044898
 30
2.296276
 70
    32
  0
VERTEX
  8
0
 62
     7
  5
143
 10
2.027241
 20
2.027241
 30
2.23182
 70
    32
  0
VERTEX
  8
0
 62
     7
  5
144
 10
2.01393
 20
2.01393
 30
2.166329
 70
    32
  0
VERTEX
  8
0
 62
     7
  5
145
 10
2.005022
 20
2.005022
 30
2.100096
 70
    32
  0
VERTEX
  8
0
 62
     7
  5
146
 10
2.000558
 20
2.000558
 30
2.033415
 70
    32
  0
VERTEX
  8
0
 62
     7
  5
147
 10
2.000558
 20
2.000558
 30
1.966585
 70
    32
  0
VERTEX
  8
0
 62
     7
  5
148
 10
2.005022
 20
2.005022
 30
1.899904
 70
    32
  0
VERTEX
  8
0
 62
     7
  5
149
 10
2.01393
 20
2.01393
 30
1.833671
 70
    32
  0
VERTEX
  8
0
 62
     7
  5
14A
 10
2.027241
 20
2.027241
 30
1.76818
 70
    32
  0
VERTEX
  8
0
 62
     7
  5
14B
 10
2.044898
 20
2.044898
 30
1.703724
 70
    32
  0
VERTEX
  8
0
 62
     7
  5
14C
 10
2.066819
 20
2.066819
 30
1.640592
 70
    32
  0
VERTEX
  8
0
 62
     7
  5
14D
 10
2.092909
 20
2.092909
 30
1.579065
 70
    32
  0
VERTEX
  8
0
 62
     7
  5
14E
 10
2.12305
 20
2.12305
 30
1.519418
 70
    32
  0
VERTEX
  8
0
 62
     7
  5
14F
 10
2.157108
 20
2.157108
 30
1.461918
 70
    32
  0
VERTEX
  8
0
 62
     7
  5
150
 10
2.19493
 20
2.19493
 30
1.40682
 70
    32
  0
VERTEX
  8
0
 62
     7
  5
151
 10
2.236348
 20
2.236348
 30
1.354372
 70
    32
  0
VERTEX
  8
0
 62
     7
  5
152
 10
2.281176
 20
2.281176
 30
1.304808
 70
    32
  0
VERTEX
  8
0
 62
     7
  5
153
 10
2.329215
 20
2.329215
 30
1.258348
 70
    32
  0
VERTEX
  8
0
 62
     7
  5
154
 10
2.38025
 20
2.38025
 30
1.215201
 70
    32
  0
VERTEX
  8
0
 62
     7
  5
155
 10
2.434053
 20
2.434053
 30
1.175558
 70
    32
  0
VERTEX
  8
0
 62
     7
  5
156
 10
2.490383
 20
2.490383
 30
1.139598
 70
    32
  0
VERTEX
  8
0
 62
     7
  5
157
 10
2.54899
 20
2.54899
 30
1.107481
 70
    32
  0
VERTEX
  8
0
 62
     7
  5
158
 10
2.609611
 20
2.609611
 30
1.07935
 70
    32
  0
VERTEX
  8
0
 62
     7
  5
159
 10
2.671975
 20
2.671975
 30
1.055331
 70
    32
  0
VERTEX
  8
0
 62
     7
  5
15A
 10
2.735805
 20
2.735805
 30
1.035531
 70
    32
  0
VERTEX
  8
0
 62
     7
  5
15B
 10
2.800814
 20
2.800814
 30
1.020038
 70
    32
  0
VERTEX
  8
0
 62
     7
  5
15C
 10
2.866713
 20
2.866713
 30
1.008923
 70
    32
  0
VERTEX
  8
0
 62
     7
  5
15D
 10
2.933207
 20
2.933207
 30
1.002233
 70
    32
  0
VERTEX
  8
0
 62
     7
  5
15E
 10
3.0
 20
3.0
 30
1.0
 70
    32
  0
SEQEND
  8
0
 62
     7
  5
15F
1001
AME_SOL
1070
     1
1071
       14
  0
CIRCLE
  8
0
 62
     7
  5
160
 10
4.0
 20
2.0
 30
5.0
 40
1.0
210
1.0
220
0.0
230
0.0000000000000001
1001
AME_SOL
1070
     1
1071
       13
  0
POLYLINE
  8
0
 62
     7
  5
161
 66
     1
 10
0.0
 20
0.0
 30
0.0
 70
     8
  0
VERTEX
  8
0
 62
     7
  5
162
 10
3.0
 20
4.0
 30
3.0
 70
    32
  0
VERTEX
  8
0
 62
     7
  5
163
 10
3.066793
 20
4.066793
 30
2.997767
 70
    32
  0
VERTEX
  8
0
 62
     7
  5
164
 10
3.133287
 20
4.133287
 30
2.991077
 70
    32
  0
VERTEX
  8
0
 62
     7
  5
165
 10
3.199186
 20
4.199186
 30
2.979962
 70
    32
  0
VERTEX
  8
0
 62
     7
  5
166
 10
3.264195
 20
4.264195
 30
2.964469
 70
    32
  0
VERTEX
  8
0
 62
     7
  5
167
 10
3.328025
 20
4.328025
 30
2.944669
 70
    32
  0
VERTEX
  8
0
 62
     7
  5
168
 10
3.390389
 20
4.390389
 30
2.92065
 70
    32
  0
VERTEX
  8
0
 62
     7
  5
169
 10
3.45101
 20
4.45101
 30
2.892519
 70
    32
  0
VERTEX
  8
0
 62
     7
  5
16A
 10
3.509617
 20
4.509617
 30
2.860402
 70
    32
  0
VERTEX
  8
0
 62
     7
  5
16B
 10
3.565947
 20
4.565947
 30
2.824442
 70
    32
  0
VERTEX
  8
0
 62
     7
  5
16C
 10
3.61975
 20
4.61975
 30
2.784799
 70
    32
  0
VERTEX
  8
0
 62
     7
  5
16D
 10
3.670785
 20
4.670785
 30
2.741652
 70
    32
  0
VERTEX
  8
0
 62
     7
  5
16E
 10
3.718824
 20
4.718824
 30
2.695192
 70
    32
  0
VERTEX
  8
0
 62
     7
  5
16F
 10
3.763652
 20
4.763652
 30
2.645628
 70
    32
  0
VERTEX
  8
0
 62
     7
  5
170
 10
3.80507
 20
4.80507
 30
2.59318
 70
    32
  0
VERTEX
  8
0
 62
     7
  5
171
 10
3.842892
 20
4.842892
 30
2.538082
 70
    32
  0
VERTEX
  8
0
 62
     7
  5
172
 10
3.87695
 20
4.87695
 30
2.480582
 70
    32
  0
VERTEX
  8
0
 62
     7
  5
173
 10
3.907091
 20
4.907091
 30
2.420935
 70
    32
  0
VERTEX
  8
0
 62
     7
  5
174
 10
3.933181
 20
4.933181
 30
2.359408
 70
    32
  0
VERTEX
  8
0
 62
     7
  5
175
 10
3.955102
 20
4.955102
 30
2.296276
 70
    32
  0
VERTEX
  8
0
 62
     7
  5
176
 10
3.972759
 20
4.972759
 30
2.23182
 70
    32
  0
VERTEX
  8
0
 62
     7
  5
177
 10
3.98607
 20
4.98607
 30
2.166329
 70
    32
  0
VERTEX
  8
0
 62
     7
  5
178
 10
3.994978
 20
4.994978
 30
2.100096
 70
    32
  0
VERTEX
  8
0
 62
     7
  5
179
 10
3.999442
 20
4.999442
 30
2.033415
 70
    32
  0
VERTEX
  8
0
 62
     7
  5
17A
 10
3.999442
 20
4.999442
 30
1.966585
 70
    32
  0
VERTEX
  8
0
 62
     7
  5
17B
 10
3.994978
 20
4.994978
 30
1.899904
 70
    32
  0
VERTEX
  8
0
 62
     7
  5
17C
 10
3.98607
 20
4.98607
 30
1.833671
 70
    32
  0
VERTEX
  8
0
 62
     7
  5
17D
 10
3.972759
 20
4.972759
 30
1.76818
 70
    32
  0
VERTEX
  8
0
 62
     7
  5
17E
 10
3.955102
 20
4.955102
 30
1.703724
 70
    32
  0
VERTEX
  8
0
 62
     7
  5
17F
 10
3.933181
 20
4.933181
 30
1.640592
 70
    32
  0
VERTEX
  8
0
 62
     7
  5
180
 10
3.907091
 20
4.907091
 30
1.579065
 70
    32
  0
VERTEX
  8
0
 62
     7
  5
181
 10
3.87695
 20
4.87695
 30
1.519418
 70
    32
  0
VERTEX
  8
0
 62
     7
  5
182
 10
3.842892
 20
4.842892
 30
1.461918
 70
    32
  0
VERTEX
  8
0
 62
     7
  5
183
 10
3.80507
 20
4.80507
 30
1.40682
 70
    32
  0
VERTEX
  8
0
 62
     7
  5
184
 10
3.763652
 20
4.763652
 30
1.354372
 70
    32
  0
VERTEX
  8
0
 62
     7
  5
185
 10
3.718824
 20
4.718824
 30
1.304808
 70
    32
  0
VERTEX
  8
0
 62
     7
  5
186
 10
3.670785
 20
4.670785
 30
1.258348
 70
    32
  0
VERTEX
  8
0
 62
     7
  5
187
 10
3.61975
 20
4.61975
 30
1.215201
 70
    32
  0
VERTEX
  8
0
 62
     7
  5
188
 10
3.565947
 20
4.565947
 30
1.175558
 70
    32
  0
VERTEX
  8
0
 62
     7
  5
189
 10
3.509617
 20
4.509617
 30
1.139598
 70
    32
  0
VERTEX
  8
0
 62
     7
  5
18A
 10
3.45101
 20
4.45101
 30
1.107481
 70
    32
  0
VERTEX
  8
0
 62
     7
  5
18B
 10
3.390389
 20
4.390389
 30
1.07935
 70
    32
  0
VERTEX
  8
0
 62
     7
  5
18C
 10
3.328025
 20
4.328025
 30
1.055331
 70
    32
  0
VERTEX
  8
0
 62
     7
  5
18D
 10
3.264195
 20
4.264195
 30
1.035531
 70
    32
  0
VERTEX
  8
0
 62
     7
  5
18E
 10
3.199186
 20
4.199186
 30
1.020038
 70
    32
  0
VERTEX
  8
0
 62
     7
  5
18F
 10
3.133287
 20
4.133287
 30
1.008923
 70
    32
  0
VERTEX
  8
0
 62
     7
  5
190
 10
3.066793
 20
4.066793
 30
1.002233
 70
    32
  0
VERTEX
  8
0
 62
     7
  5
191
 10
3.0
 20
4.0
 30
1.0
 70
    32
  0
SEQEND
  8
0
 62
     7
  5
192
1001
AME_SOL
1070
     1
1071
       12
  0
POLYLINE
  8
0
 62
     7
  5
193
 66
     1
 10
0.0
 20
0.0
 30
0.0
 70
     8
  0
VERTEX
  8
0
 62
     7
  5
194
 10
3.0
 20
4.0
 30
3.0
 70
    32
  0
VERTEX
  8
0
 62
     7
  5
195
 10
3.066793
 20
3.933207
 30
2.997767
 70
    32
  0
VERTEX
  8
0
 62
     7
  5
196
 10
3.133287
 20
3.866713
 30
2.991077
 70
    32
  0
VERTEX
  8
0
 62
     7
  5
197
 10
3.199186
 20
3.800814
 30
2.979962
 70
    32
  0
VERTEX
  8
0
 62
     7
  5
198
 10
3.264195
 20
3.735805
 30
2.964469
 70
    32
  0
VERTEX
  8
0
 62
     7
  5
199
 10
3.328025
 20
3.671975
 30
2.944669
 70
    32
  0
VERTEX
  8
0
 62
     7
  5
19A
 10
3.390389
 20
3.609611
 30
2.92065
 70
    32
  0
VERTEX
  8
0
 62
     7
  5
19B
 10
3.45101
 20
3.54899
 30
2.892519
 70
    32
  0
VERTEX
  8
0
 62
     7
  5
19C
 10
3.509617
 20
3.490383
 30
2.860402
 70
    32
  0
VERTEX
  8
0
 62
     7
  5
19D
 10
3.565947
 20
3.434053
 30
2.824442
 70
    32
  0
VERTEX
  8
0
 62
     7
  5
19E
 10
3.61975
 20
3.38025
 30
2.784799
 70
    32
  0
VERTEX
  8
0
 62
     7
  5
19F
 10
3.670785
 20
3.329215
 30
2.741652
 70
    32
  0
VERTEX
  8
0
 62
     7
  5
1A0
 10
3.718824
 20
3.281176
 30
2.695192
 70
    32
  0
VERTEX
  8
0
 62
     7
  5
1A1
 10
3.763652
 20
3.236348
 30
2.645628
 70
    32
  0
VERTEX
  8
0
 62
     7
  5
1A2
 10
3.80507
 20
3.19493
 30
2.59318
 70
    32
  0
VERTEX
  8
0
 62
     7
  5
1A3
 10
3.842892
 20
3.157108
 30
2.538082
 70
    32
  0
VERTEX
  8
0
 62
     7
  5
1A4
 10
3.87695
 20
3.12305
 30
2.480582
 70
    32
  0
VERTEX
  8
0
 62
     7
  5
1A5
 10
3.907091
 20
3.092909
 30
2.420935
 70
    32
  0
VERTEX
  8
0
 62
     7
  5
1A6
 10
3.933181
 20
3.066819
 30
2.359408
 70
    32
  0
VERTEX
  8
0
 62
     7
  5
1A7
 10
3.955102
 20
3.044898
 30
2.296276
 70
    32
  0
VERTEX
  8
0
 62
     7
  5
1A8
 10
3.972759
 20
3.027241
 30
2.23182
 70
    32
  0
VERTEX
  8
0
 62
     7
  5
1A9
 10
3.98607
 20
3.01393
 30
2.166329
 70
    32
  0
VERTEX
  8
0
 62
     7
  5
1AA
 10
3.994978
 20
3.005022
 30
2.100096
 70
    32
  0
VERTEX
  8
0
 62
     7
  5
1AB
 10
3.999442
 20
3.000558
 30
2.033415
 70
    32
  0
VERTEX
  8
0
 62
     7
  5
1AC
 10
3.999442
 20
3.000558
 30
1.966585
 70
    32
  0
VERTEX
  8
0
 62
     7
  5
1AD
 10
3.994978
 20
3.005022
 30
1.899904
 70
    32
  0
VERTEX
  8
0
 62
     7
  5
1AE
 10
3.98607
 20
3.01393
 30
1.833671
 70
    32
  0
VERTEX
  8
0
 62
     7
  5
1AF
 10
3.972759
 20
3.027241
 30
1.76818
 70
    32
  0
VERTEX
  8
0
 62
     7
  5
1B0
 10
3.955102
 20
3.044898
 30
1.703724
 70
    32
  0
VERTEX
  8
0
 62
     7
  5
1B1
 10
3.933181
 20
3.066819
 30
1.640592
 70
    32
  0
VERTEX
  8
0
 62
     7
  5
1B2
 10
3.907091
 20
3.092909
 30
1.579065
 70
    32
  0
VERTEX
  8
0
 62
     7
  5
1B3
 10
3.87695
 20
3.12305
 30
1.519418
 70
    32
  0
VERTEX
  8
0
 62
     7
  5
1B4
 10
3.842892
 20
3.157108
 30
1.461918
 70
    32
  0
VERTEX
  8
0
 62
     7
  5
1B5
 10
3.80507
 20
3.19493
 30
1.40682
 70
    32
  0
VERTEX
  8
0
 62
     7
  5
1B6
 10
3.763652
 20
3.236348
 30
1.354372
 70
    32
  0
VERTEX
  8
0
 62
     7
  5
1B7
 10
3.718824
 20
3.281176
 30
1.304808
 70
    32
  0
VERTEX
  8
0
 62
     7
  5
1B8
 10
3.670785
 20
3.329215
 30
1.258348
 70
    32
  0
VERTEX
  8
0
 62
     7
  5
1B9
 10
3.61975
 20
3.38025
 30
1.215201
 70
    32
  0
VERTEX
  8
0
 62
     7
  5
1BA
 10
3.565947
 20
3.434053
 30
1.175558
 70
    32
  0
VERTEX
  8
0
 62
     7
  5
1BB
 10
3.509617
 20
3.490383
 30
1.139598
 70
    32
  0
VERTEX
  8
0
 62
     7
  5
1BC
 10
3.45101
 20
3.54899
 30
1.107481
 70
    32
  0
VERTEX
  8
0
 62
     7
  5
1BD
 10
3.390389
 20
3.609611
 30
1.07935
 70
    32
  0
VERTEX
  8
0
 62
     7
  5
1BE
 10
3.328025
 20
3.671975
 30
1.055331
 70
    32
  0
VERTEX
  8
0
 62
     7
  5
1BF
 10
3.264195
 20
3.735805
 30
1.035531
 70
    32
  0
VERTEX
  8
0
 62
     7
  5
1C0
 10
3.199186
 20
3.800814
 30
1.020038
 70
    32
  0
VERTEX
  8
0
 62
     7
  5
1C1
 10
3.133287
 20
3.866713
 30
1.008923
 70
    32
  0
VERTEX
  8
0
 62
     7
  5
1C2
 10
3.066793
 20
3.933207
 30
1.002233
 70
    32
  0
VERTEX
  8
0
 62
     7
  5
1C3
 10
3.0
 20
4.0
 30
1.0
 70
    32
  0
SEQEND
  8
0
 62
     7
  5
1C4
1001
AME_SOL
1070
     1
1071
       11
  0
LINE
  8
0
 62
     7
  5
1C5
 10
0.0
 20
3.0
 30
3.0
 11
3.0
 21
3.0
 31
3.0
1001
AME_SOL
1070
     0
1071
        4
  0
LINE
  8
0
 62
     7
  5
1C6
 10
0.0
 20
2.0
 30
2.0
 11
2.0
 21
2.0
 31
2.0
1001
AME_SOL
1070
     0
1071
        4
  0
LINE
  8
0
 62
     7
  5
1C7
 10
0.0
 20
3.0
 30
1.0
 11
3.0
 21
3.0
 31
1.0
1001
AME_SOL
1070
     0
1071
        4
  0
LINE
  8
0
 62
     7
  5
1C8
 10
0.0
 20
4.0
 30
2.0
 11
2.0
 21
4.0
 31
2.0
1001
AME_SOL
1070
     0
1071
        4
  0
LINE
  8
0
 62
     7
  5
1C9
 10
2.0
 20
4.0
 30
2.0
 11
2.0
 21
6.0
 31
2.0
1001
AME_SOL
1070
     0
1071
        2
  0
LINE
  8
0
 62
     7
  5
1CA
 10
2.0
 20
1.0
 30
2.0
 11
2.0
 21
2.0
 31
2.0
1001
AME_SOL
1070
     0
1071
        2
  0
LINE
  8
0
 62
     7
  5
1CB
 10
3.0
 20
1.0
 30
3.0
 11
3.0
 21
6.0
 31
3.0
1001
AME_SOL
1070
     0
1071
        2
  0
LINE
  8
0
 62
     7
  5
1CC
 10
4.0
 20
5.0
 30
2.0
 11
4.0
 21
6.0
 31
2.0
1001
AME_SOL
1070
     0
1071
        2
  0
LINE
  8
0
 62
     7
  5
1CD
 10
4.0
 20
1.0
 30
2.0
 11
4.0
 21
3.0
 31
2.0
1001
AME_SOL
1070
     0
1071
        2
  0
LINE
  8
0
 62
     7
  5
1CE
 10
3.0
 20
1.0
 30
1.0
 11
3.0
 21
6.0
 31
1.0
1001
AME_SOL
1070
     0
1071
        2
  0
LINE
  8
0
 62
     7
  5
1CF
 10
3.0
 20
4.0
 30
3.0
 11
5.0
 21
4.0
 31
3.0
1001
AME_SOL
1070
     0
1071
        1
  0
LINE
  8
0
 62
     7
  5
1D0
 10
4.0
 20
3.0
 30
2.0
 11
5.0
 21
3.0
 31
2.0
1001
AME_SOL
1070
     0
1071
        1
  0
LINE
  8
0
 62
     7
  5
1D1
 10
3.0
 20
4.0
 30
1.0
 11
5.0
 21
4.0
 31
1.0
1001
AME_SOL
1070
     0
1071
        1
  0
LINE
  8
0
 62
     7
  5
1D2
 10
4.0
 20
5.0
 30
2.0
 11
5.0
 21
5.0
 31
2.0
1001
AME_SOL
1070
     0
1071
        1
  0
ENDBLK
  8
0
  5
1D3
  0
BLOCK
  8
0
  5
1D7
  2
AME_JNK
 70
     0
 10
0.0
 20
0.0
 30
0.0
  1
AME_JNK
  3
AME_JNK
  0
ENDBLK
  8
0
  5
1D8
  0
ENDSEC
  0
SECTION
  2
ENTITIES
  0
INSERT
  8
AME_FRZ
  5
3
  2
AME_NIL
 10
0.0
 20
0.0
 30
0.0
  0
INSERT
  8
AME_FRZ
  5
6
  2
AME_SOL
 10
0.0
 20
0.0
 30
0.0
1001
AME_SOL
1000
R2.1
1000
AME2
1000
sq cm
1070
     3
1070
     0
1070
     3
1000
wire
1040
45.0
1000
U
1040
1.0
1000
cm
1000
gm
1000
MILD_STEEL
1070
    25
1000
CSG
1070
     1
1070
     3
1070
     3
1070
     3
1070
     0
1000
cu cm
1070
     1
1070
     0
1005
3
  0
INSERT
  8
AME_FRZ
  5
56
  2
AME_NIL
 10
0.0
 20
0.0
 30
0.0
1001
AME_SOL
1002
{
1070
     1
1071
  2317232
1070
  1536
1070
     1
1010
5.0
1020
6.0
1030
4.0
1005
0
1005
0
1005
1D4
1040
0.0
1040
1.0
1070
     0
1000
MILD_STEEL
1000
0
1010
0.0
1020
0.0
1030
0.0
1010
0.0
1020
0.0
1030
1.0
1040
0.0
1002
}
1001
AVE_INVOKE
1000
SOLAVEMESH
  0
INSERT
  8
AME_FRZ
  5
62
  2
AME_NIL
 10
-3.0
 20
2.0
 30
1.0
 50
180.0
210
0.0
220
1.0
230
-0.0000000000000002
1001
AME_SOL
1002
{
1070
     1
1071
  2392096
1070
  1538
1070
     1
1010
1.0
1020
1.0
1030
5.0
1005
0
1005
0
1005
E9
1040
0.0
1040
1.0
1070
     0
1000
MILD_STEEL
1000
0
1010
-3.0
1020
2.0
1030
1.0
1010
0.0
1020
1.0
1030
0.0
1040
3.141593
1002
}
  0
INSERT
  8
AME_FRZ
  5
92
  2
AME_NIL
 10
3.0
 20
2.0
 30
0.0
 50
270.0
210
1.0
220
0.0
230
0.0000000000000001
1001
AME_SOL
1002
{
1070
     1
1071
  2436584
1070
  1538
1070
     1
1010
1.0
1020
1.0
1030
3.0
1005
0
1005
0
1005
E9
1040
0.0
1040
1.0
1070
     0
1000
MILD_STEEL
1000
0
1010
3.0
1020
2.0
1030
0.0
1010
1.0
1020
0.0
1030
0.0
1040
4.712389
1002
}
  0
INSERT
  8
AME_FRZ
  5
C2
  2
AME_NIL
 10
4.0
 20
2.0
 30
3.0
 50
270.0
210
1.0
220
0.0
230
0.0000000000000001
1001
AME_SOL
1002
{
1070
     1
1071
  2436992
1070
  1538
1070
     1
1010
1.0
1020
1.0
1030
2.0
1005
0
1005
0
1005
EA
1040
0.0
1040
1.0
1070
     0
1000
MILD_STEEL
1000
0
1010
4.0
1020
2.0
1030
3.0
1010
1.0
1020
0.0
1030
0.0
1040
4.712389
1002
}
  0
INSERT
  8
AME_FRZ
  5
E9
  2
AME_NIL
 10
0.0
 20
0.0
 30
0.0
1001
AME_SOL
1002
{
1070
     1
1071
  2454840
1070
   775
1070
     0
1070
     2
1005
92
1005
62
1005
0
1005
0
1005
EA
1040
0.0
1040
1.0
1070
     0
1000
MILD_STEEL
1000
0
1010
0.0
1020
0.0
1030
0.0
1010
0.0
1020
0.0
1030
1.0
1040
0.0
1002
}
  0
INSERT
  8
AME_FRZ
  5
EA
  2
AME_NIL
 10
0.0
 20
0.0
 30
0.0
1001
AME_SOL
1002
{
1070
     1
1071
  2457272
1070
   775
1070
     0
1070
     2
1005
E9
1005
C2
1005
0
1005
0
1005
1D4
1040
0.0
1040
1.0
1070
     0
1000
MILD_STEEL
1000
0
1010
0.0
1020
0.0
1030
0.0
1010
0.0
1020
0.0
1030
1.0
1040
0.0
1002
}
  0
INSERT
  8
0
  5
1D4
  2
*U3
 10
0.0
 20
0.0
 30
0.0
1001
AME_SOL
1002
{
1070
     1
1071
  2459688
1070
  1543
1070
     1
1070
     0
1005
56
1005
EA
1005
0
1005
1D5
1005
0
1040
0.0
1040
1.0
1070
     0
1000
MILD_STEEL
1000
0
1002
}
1001
AVE_INVOKE
1000
SOLAVEMESH
  0
INSERT
  8
AME_FRZ
  5
1D5
  2
AME_NIL
 10
1.0
 20
1.0
 30
1.0
1001
AME_SOL
1004
C7CF01004701A301A201A0019C0194018701720180005A014301A000D5002D003C008801730114005B0144016800C5004D0074015C01370021005D0145012C01780082002D01B800D70060009501890102007501FE0089008A0176017E007C0077015E01330046011200C3005F0147011F00B50048012E01
1004
1B01CE00A200AC00F2009D019601F0008B0178017F00100079016001090049012F018800D10030016A00E80061014A0131011C019E002C001D013D00410032011E0142004A001F019000BB004B0133012001BA0053002101D200CC00340122016E000E01AB002F0023010F013000B6001001F700E7009701
1004
8C01BF007A010F0062014C01350124011101DC00B9001201CF007A0025011301010106000A00020100010C00140103010D0011000401270029003601260115010501A800A90006012A002B00160107012E003100080132003400270117010901FA00F6000A019200520018010B015B00D0000C017000C200
1004
4E008D017B01080003007C016301390004002600A1019E0198018E017D01FD0064014D012400910018007E01650196004E0137011B001E003801F90077004400400099018F0101007F01540066014F0139015000E2001D00FB009001800167015001EF000E0051017600EE00680152013A011900DA003B01
1004
E1002801BD0019010D01C100BE00E300F8008101070025009F019A01910182015F00690175005301A400280083016A0154013C01A5001A003D011C00200055013E01FC0098003F01B00086006B01A6005601EA00840092013F0084016C018D0079006D0161006B009B01FF00930185016E017200AA006F01
1004
DB005701A10040015D0083008601700158014101ED0029011300170042012A01F1005C002B0181001A01E000DE00C0007101BC0059010500DF000000671D671D368ABA9651CE766DB2FE364D4E5D4122028BC61874122028BC61874122028BC618686B980B5C112686B980B5C8693435CC05AE2A953AB8FC
1004
ED6BD72897C08B92ACAE512F811725971E1EC7A3B5834686B980B5C112686B980B5C1128AAD8A307468E254B38DC380ED7DCED497DA9B38DFFB32141FB6BCBF7E43387860E059E7E46BEDAF2FDF9C4FE553FD2FEFE46BF235FFFFFECE37FECC8507EDAF2FDF90CE1E18381679F91AFB6BCBF7E713F954FF4
1004
BFBF91AFC8D7FFFFE4302D9DE88C5FD990A0FDB5E5FBF219C3C30702CF3F235F6D797EFCE27F0895DFA44A36C6F7A6E54F0FF46D8DEF4DCA9E187A9FF38FBF90C3BD1B637BD372A787FFE71F7F219F91AFE946D8DEF4DCA9E1829FF235FD224B514E716A29CE53FE46BFA42D9CA74462FECC8507EDAF2FDF
1004
90CE1E18381679F91AFB6BCBF7E713F954FE4684A36C6F7A6E54F0FF46D8DEF4DCA9E187A9FF38FBFE2746D8DEF4DCA9E1FFF9C7DFE946D8DEF4DCA9E1829FFFFA4496A29CE2D4539CA7FFFE90B6709D118BFB32141FB6BCBF7E43387860E059E7E46BEDAF2FDF9C4FE71273F48946D8DEF4DCA9E1FE8DB1
1004
BDE9B953C30FF13A36C6F7A6E54F0FFFC8D7F4A36C6F7A6E54F0C14FF91AFE9125A8A738B514E729FF235FD216CE3BD118BFB32141FB6BCBF7E43387860E059E7E46BEDAF2FDF9C49CF954FE712251B637BD372A787FA36C6F7A6E54F0C3D4FF9C7DFF13A36C6F7A6E54F0FFFCE3EFF4A36C6F7A6E54F0C1
1004
4FFFFD224B514E716A29CE53FFFF4AB8FCD910A9A1002D2B539A65C787B1E8ED60D1B18F0F63D1DAC1A2A35CC05AE2A9588D73016B90D2AD5B1460E8D1C4A9671BAD8157DCED497F29B38DFFC8D70F0C1C7B8F3ECCF607ECCF607EDAF2FDF90CFCE27F23429CE739CE69FDFC8D7E46BFFFFFD9C6FFE46B87
1004
860E3DC79F667B03F667B03F6D797EFC867E713F91A14E739CE734FEFE46BF235FFFFF90C0B677A2317F91AE1E1838F71E7D99EC0FD99EC0FDB5E5FBF2188B39CE739724539CE73960D328E739CE5834251B637BD372A787FA36C6F7A6E54F0C3D4E29CE739CB033FC4E8DB1BDE9B953C3FC539CE7396062
1004
9F08946D8DEF4DCA9E1829FFD4F844892C14E7160A7394FFEA7C2242D9CA74462FF235C3C3071EE3CFB33D81FB33D81FB6BCBF7E433F2A9FC8D0A739CE739A128DB1BDE9B953C3FD1B637BD372A7861EA7FC867F9DE8DB1BDE9B953C3FFF21829CE739CE694F954A9F08946D8DEF4DCA9E1809FFC539CE73
1004
9CD092C14E7160A7394F954A9F089125829CE2C14E709FFC539CE739CD29F2A953E11216CE13A2317F91AE1E1838F71E7D99EC0FD99EC0FDB5E5FBF218B6E739CE5C953E468539CE7397244A36C6F7A6E54F0FF46D8DEF4DCA9E187A9D4F90CFF13A36C6F7A6E54F0FF53E4314F844A36C6F7A6E54F0C14F
1004
FEA7C2244960A738B0539CA7FF53E11216CE3BD118BFC8D70F0C1C7B8F3ECCF607ECCF607EDAF2FDF90C53F4FE469F3DCE739CE684A36C6F7A6E54F0FF46D8DEF4DCA9E187A9FF219FE77A36C6F7A6E54F0FFFC8609F235F9C4A9F08946D8DEF4DCA9E1809FFC4F91A125829CE2C14E77E712A7C2244960A
1004
738B0539C27FF13E46BF38953E112AE3F5215342005A56A734CB8F0F63D1DAC1A0E4787B1E8ED60D151AE602D715497222028BD15234AD5B1460E8D1C4A9679BBE70F85F73B526D953679BFF91AE1E1838F71E7D99EC0FD99ECFDF6D7907F235F9C4FE468539CE739CD3FBFFFFFFFFFECF37FF235C3C3071
1004
EE3CFB33D81FB33D9FBEDAF20FE46BF389FC8D0A739CE739A7F7FFFFFFFFF218AE3F3B2EA0910145E30C0A9A1002D2B539A65C787B1E8ED60D22AB628C1D1A3892A35CC05AE2A94556C5183A34712A59C6E5B87484B9DA936E09B38DFFB32141FB6BCBF7E43387860E059E7E46BEDAF2FDFFF9C4FF4BFBF9
1004
1AFC8D7FFFFFB38DFFB32141FB6BCBF7E43387860E059E7E46BEDAF2FDFFF9C4FF4BFBF91AFC8D7FFFFE4302D9DE88C5FD990A0FDB5E5FBF219C3C30702CF3F235F6D797EEF94B42F85D8D87F2A95DFA44A36C6F7A6E54F0FF46D8DEF4DCA9E187F89D1B637BD372A787FF7CA5A17C007829CE739CE691B6
1004
37BD372A7860A7EF94B42F800F0539CE739CD09641039CC8207394FDF29685F001E0A739CE739A0B6729D118BFB32141FB6BCBF7E43387860E059E7E46BEDAF2FDF664283F9C4FE4684A36C6F7A6E54F0FF46D8DEF4DCA9E187A9FF389FC2244E8DB1BDE9B953C3FFECCF99FBF08946D8DEF4DCA9E1829FE
1004
CCF99FBF38912C8207399040E729FECCF99FBF3890B6709D118BFB32141FB6BCBF7E43387860E059E7E46BEDAF2FDCBD1772E66DA36153F49CFD2251B637BD372A787FA36C6F7A6E54F0C3D4EA7CAA7F0893BD1B637BD372A787FF2F45DCB98727829CE739CE694F954FE1128DB1BDE9B953C3053F2F45DC
1004
B98727829CE739CE684B2081CE641039CA7E5E8BB9730E4F0539CE739CD05B38EF4462FECC8507EDAF2FDF90CE1E18381679F91AFB6BCBF7D990AFC57E713F9C48946D8DEF4DCA9E1FE8DB1BDE9B953C30F53FE713F84489D1B637BD372A787F8A739CE641F303F844A36C6F7A6E54F0C14E29CE739907CC
1004
0FE712259040E732081CE538A739CE641F303F9C4AB8FCF674122028BC61874122028BC61874122028BC618B11AE602D70449A1AE602D721A4E824405178C694B3CDD28BA12A7526DF13679BFFFF91AFFFC8D7FFFFFFFFFBFBFFFFFFFFFECF37FFFF235FFF91AFFFFFFFFFF7F7FFFFFFFFF234AE3F3D9D04
1004
880A2F1861D04880A2F1861D04880A2F1862C46B980B5C11274122028BC634686B980B5C552A59E6EAC2D07EA752B5C13679BFF91AFFFFFFFFFC8D7FFFFFBFBFFFFFFFFFECF37FF235FFFFFFFFF91AFFFFFF7F7FFFFFFFFF234AE3F7F4E824405178C30E824405178C30E824405178C30E824405178C68D0
1004
D73016B90D2686B980B5C552A59E6E14644FD4EA5F44D9E6FFFFFFE46BFFF235FFFFFFFEFEFFFFFFFFFFB3CDFFFFFFC8D7FFE46BFFFFFFFDFDFFFFFFFFFC8D2B8FCF674122028BC61874122028BC618ACAE512F810D256235CC05AE0893435CC05AE4349A1AE602D7154A9679B80450FD4EA4C13679BFF90
1004
CFE03F80FE03F219FC07E113FA1A7F2A97F7FFFFFFFFFD9E6FFE433F80FE03F80FC867F01F844FE869FCAA5FDFFFFFFFFFC8D2B8FDFD3A0910145E30C1FBDF022C96DF1A4E824405178C316235CC05AE0893435CC05AE4349A1AE602D7154A9679BB2AC91FA9D4AD744D9E6FFF01FC07E433F219FC07F01F
1004
844FE869FCAA5FDFFFFFFFFFF679BFFC07F01F90CFC867F01FC07E113FA1A7F2A97F7FFFFFFFFF234AE3F7F5F23DF022C96DF124E824405178C30E824405178C316235CC05AE0893435CC05AE4349A1AE602D7154A9679BB2CAD3F53A95AC26CF37FF80FC867F01FC07F01F90CFC227F434FE552FEFFFFFF
1004
FFFFB3CDFFE03F219FC07F01FC07E433F089FD0D3F954BFBFFFFFFFFF91A632CD6BD72897C08B92ACAE512F811725971E1EC7A3B5834546B980B5C552686B980B5C112AD5B1460E8D1C49710346A95C351630BC81A354AE1A8B3424B659079E9FEE7290E03B5F5B02AFE24380ED7D6C0ABEE739CE739C5B2
1004
CBFC8D70F0C1C7B8F3ECCF607ECCF607EDAF2FDF90CFCE27F23429CE739CE6963FB263EA7E86157DFFFFFB266C09CB42ECF9ECF2EA5E3BE9741F25C0B9797B7F305ADF64C7D4FE46BF235F90C2E2068D52B86A2C61790346A95C3516698CB35AF5CA25F022E4AB2B944BE045C965C787B1E8ED60D151AE60
1004
2D71549A1AE602D7044AB56C5183A347125C40D1AA570D458C2F2068D52B86A2CD092D9646D03659FEA5CE0E03B5F5B02AFE256C0ABE1C076BEE739CE739C5B2CBFC8D70F0C1C7B8F3ECCF607ECCF607EDAF2FDF90CFCE27F23429CE739CE6963FB263EA7E86157DFFFFFB266C09CB42ECF9ECF2EA5E3BE9
1004
741F25C0B9797B7F305ADF64C7D4FE46BF235F91A2E2068D52B86A2C61790346A95C3516698CB37C8F7C08B25B7C4956572897C08B92CB8F0F63D1DAC1A588D73016B8224D0D73016B8225155B1460E8D1C4B1C0D1AA570D2C7D6381A354AE1A58912CA3105102FEA5CE0E03B5F6595A7F896595A7E1C076
1004
BEA7739CE6518BFB32141FB6BCBF7E43387860E059E7E46BEDAF2FDF844FE553FD27BFC8D7E4698E068D52B86963EB1C0D1AA570D2C4B196615342005A56A73415342005A56A734CB8F0F63D1DAC1A4556C5183A34712546B980B5C552AD5B1460E8D1C4B1C0D1AA570D2C7DFB6BC8224B65931CD987FB9C
1004
A56C0ABE5B87484E256C0ABE5B87484B9CE739CE716CB2FECC8507EDAF2FDF90CE1E18381679F91AFB6BCBF7FFE713FD2B1FD931F53F430ABEFFFFFD8CFF489BE9741F25C16B65A3E872D0E1789EB1CBD97F9BBF17EFD931F5F7F235F91AFC8631C0D1AA570D2C7DFB6BC82C659854D0801695A9CD054D08
1004
01695A9CD32E3C3D8F476B069155B1460E8D1C4951AE602D7154AB56C5183A34713F6D7904BE8D89F29BAB869624496CB22DCD1FEE7295B02AF96E1D213895B02AF96E1D212E739CE739C5B2CBFB32141FB6BCBF7E43387860E059E7E46BEDAF2FDFFF9C4FF4AC7F64C7D4FD0C2AFBFFFFF633FD226FA5D0
1004
7C9705AD968FA1CB4385E27AC72F65FE6EFC5FBF64C7D7DFC8D7E46BF219F6D7904BE8D89F29BAB8696258CB30A9A1002D2B539A1FBDF022C96DF1A4D8C787B1E8ED60D151AE602D7154AC46B980B5C86956AD8A307468E258E068D52B86963EB1C0D1AA570D2C48965188286CD3FD4B9CB6055F655923FC
1004
4B2AC91FAD8157D4EE739CCA317F91AE1E1838F71E7D99EC0FD99EC0FDB5E5FBF219F9C4FE86936C39CE739CD1EFF235F91A6381A354AE1A58FAC70346A95C34B12C659854D0801695A9CD32E3C3D8F476B068391E1EC7A3B5834546B980B5C5525C8880A2F4548D2B56C5183A34712C70346A95C34B1F58
1004
E068D52B8696244B28C4FA843FDCE52B6055F7CE1F0BF895B02AFBE70F85F739CE739CE6518BFC8D70F0C1C7B8F3ECCF607ECCF607EDAF2FDF90CFCE27F23429CE739CE68F7F91AFC8D31C0D1AA570D2C7D6381A354AE1A589632CCE824405178C302A68400B4AD4E69971E1EC7A3B583474122028BC6345
1004
46B980B5C5528AAD8A307468E258E068D52B86963EB1C0D1AA570D2C48965188A9F3FDCE525B87484851913FC496E1D21214644FDCE7394ECA317F664283F6D797EFC8670F0C1C0B3CFC8D7DB5E5FBFFF389FE93DFE46BF234C70346A95C34B1F58E068D52B8696258CB33A0910145E30C1FBDF022C96DF1
1004
A4E824405178C316235CC05AE0893435CC05AE4349D04880A2F18D7E7AFBF9EA44A231153671FEE7294A2E84B2AC91FE2528BA12CAB247EA753A2317FFF91AFFFFFFFC867E7A9FD0D3FE27F3D7DFCF52C659BE47BE04592DBE249D04880A2F1861D04880A2F1862C46B980B5C112686B980B5C8693A09101
1004
45E31AFCE3EFE7122511892C73FDCE52945D096595A7F894A2E84B2CAD3F53A9D118BFC8D7FFFFFFFFE433F089FCE27FC4FE71F7F389632CCE824405178C30E824405178C30E824405178C30E824405178C68D0D73016B90D274122028BC635FA1BEFF00251188DBC6CF3FDCE52945D090A3227F894A2E84
1004
851913F53A9D118BFC867FFFFFFFFE433FFFFFC4FE86FBFC03196674122028BC61874122028BC61874122028BC618B11AE602D70449D04880A2F18D1D04880A2F18D7FFE112251188086D23FDCE52945D09561683FC4A517425585A0FD4EA74462FFFF219FFFFFFF90CFFFFFF13FFF844B196674122028BC
1004
61874122028BC618ACAE512F810D256235CC05AE0893A0910145E31A3435CC05AE2A9FCF5F7F3D489446236E9B4CFF7394AB0B41F80450FF12AC2D07E01143F53A9D118BFFFFFC8D7FFE433FFF3D4FFFE55227F3D7DFCF52C659BE47BE04592DBE249D04880A2F1861D04880A2F1862C46B980B5C1127412
1004
2028BC634686B980B5C553FDF7FA44A23140CFF7394AB0B41FB2CAD3FC4AB0B41FB2CAD3F53A9D118BFC8D7FFFFFFE433FFF089FFFE913FDF7FA58CB33A0910145E30C3A0910145E30C3A0910145E30C3A0910145E31A3A0910145E31A3435CC05AE2A9FFFCAA44A23117E1B50FF7394AB0B41F851913FC4
1004
AB0B41F851913F53A9D118BFC867FFFFFFE433FFFFFFFC4FFFE552C6599D04880A2F1861D04880A2F1862B2B944BE043493A0910145E31A3435CC05AE4349A1AE602D7154FE71F7F3891288C41E5F67FB9CA428C89F80450FF1214644FC02287EA753A2317FFFFF91AFC867FFFFFFE713F95489FCE3EFE71
1004
2C6599D04880A2F1860FDEF81164B6F8D274122028BC61874122028BC634686B980B5C8693435CC05AE2A9FEFBFD2251188BB17E1FEE7290A3227ECAB247F890A3227ECAB247EA753A2317FFF91AFFFC867FFFFFFE869FE913FDF7FA58CB33A0910145E30C1FBDF022C96DF1A5595CA25F021A4AC46B980B
1004
5C112686B980B5C8693435CC05AE2A9FC23EFF00251189F4DAA7FB9CA402287ECAB247F89008A1FB2AC91FA9D4E88C5FFFE46BFFFFFFF235F844FE869FCAA44FE11F7F80632CDF23DF022C96DF124E824405178C31595CA25F021A4AC46B980B5C112686B980B5C8693435CC05AE2A9FFFD0D225118886D6
1004
3FDCE5201143F6595A7F89008A1FB2CAD3F53A9D118BFC8D7FFFFF01FFF91AFC227F434FE55227FFF434B1966F91EF81164B6F8923F7BE04592DBE349D04880A2F1862C46B980B5C112686B980B5C8693435CC05AE2A9FCABEFF002511899336B9FEE729655923F6595A7F89655923F6595A7EA753A2317F
1004
91AFFFFFFFC8D7FFE113FA1A7F2A913F957DFE0168650D94
1005
1D6
  0
INSERT
  8
AME_FRZ
  5
1D6
  2
AME_NIL
 10
1.0
 20
1.0
 30
1.0
1001
AME_SOL
1004

1005
0
  0
ENDSEC
  0
EOF
