  0
SECTION
  2
HEADER
  9
$ACADVER
  1
AC1009
  9
$INSBASE
 10
0.0
 20
0.0
 30
0.0
  9
$EXTMIN
 10
-2.5
 20
-2.5
 30
-0.23668
  9
$EXTMAX
 10
10.0
 20
12.5
 30
10.0
  9
$LIMMIN
 10
0.0
 20
0.0
  9
$LIMMAX
 10
12.0
 20
9.0
  9
$ORTHOMODE
 70
     0
  9
$REGENMODE
 70
     1
  9
$FILLMODE
 70
     1
  9
$QTEXTMODE
 70
     0
  9
$MIRRTEXT
 70
     1
  9
$DRAGMODE
 70
     2
  9
$LTSCALE
 40
1.0
  9
$OSMODE
 70
     0
  9
$ATTMODE
 70
     1
  9
$TEXTSIZE
 40
0.2
  9
$TRACEWID
 40
0.05
  9
$TEXTSTYLE
  7
STANDARD
  9
$CLAYER
  8
0
  9
$CELTYPE
  6
BYLAYER
  9
$CECOLOR
 62
   256
  9
$DIMSCALE
 40
1.0
  9
$DIMASZ
 40
0.18
  9
$DIMEXO
 40
0.0625
  9
$DIMDLI
 40
0.38
  9
$DIMRND
 40
0.0
  9
$DIMDLE
 40
0.0
  9
$DIMEXE
 40
0.18
  9
$DIMTP
 40
0.0
  9
$DIMTM
 40
0.0
  9
$DIMTXT
 40
0.18
  9
$DIMCEN
 40
0.09
  9
$DIMTSZ
 40
0.0
  9
$DIMTOL
 70
     0
  9
$DIMLIM
 70
     0
  9
$DIMTIH
 70
     1
  9
$DIMTOH
 70
     1
  9
$DIMSE1
 70
     0
  9
$DIMSE2
 70
     0
  9
$DIMTAD
 70
     0
  9
$DIMZIN
 70
     0
  9
$DIMBLK
  1

  9
$DIMASO
 70
     1
  9
$DIMSHO
 70
     1
  9
$DIMPOST
  1

  9
$DIMAPOST
  1

  9
$DIMALT
 70
     0
  9
$DIMALTD
 70
     2
  9
$DIMALTF
 40
25.4
  9
$DIMLFAC
 40
1.0
  9
$DIMTOFL
 70
     0
  9
$DIMTVP
 40
0.0
  9
$DIMTIX
 70
     0
  9
$DIMSOXD
 70
     0
  9
$DIMSAH
 70
     0
  9
$DIMBLK1
  1

  9
$DIMBLK2
  1

  9
$DIMSTYLE
  2
*UNNAMED
  9
$DIMCLRD
 70
     0
  9
$DIMCLRE
 70
     0
  9
$DIMCLRT
 70
     0
  9
$DIMTFAC
 40
1.0
  9
$DIMGAP
 40
0.09
  9
$LUNITS
 70
     2
  9
$LUPREC
 70
     4
  9
$SKETCHINC
 40
0.1
  9
$FILLETRAD
 40
0.0
  9
$AUNITS
 70
     0
  9
$AUPREC
 70
     0
  9
$MENU
  1
acad
  9
$ELEVATION
 40
0.0
  9
$PELEVATION
 40
0.0
  9
$THICKNESS
 40
0.0
  9
$LIMCHECK
 70
     0
  9
$BLIPMODE
 70
     1
  9
$CHAMFERA
 40
0.0
  9
$CHAMFERB
 40
0.0
  9
$SKPOLY
 70
     0
  9
$TDCREATE
 40
2449162.522701712
  9
$TDUPDATE
 40
2449162.522701712
  9
$TDINDWG
 40
0.0000000000
  9
$TDUSRTIMER
 40
0.0000000000
  9
$USRTIMER
 70
     1
  9
$ANGBASE
 50
0.0
  9
$ANGDIR
 70
     0
  9
$PDMODE
 70
     0
  9
$PDSIZE
 40
0.0
  9
$PLINEWID
 40
0.0
  9
$COORDS
 70
     0
  9
$SPLFRAME
 70
     0
  9
$SPLINETYPE
 70
     6
  9
$SPLINESEGS
 70
     8
  9
$ATTDIA
 70
     0
  9
$ATTREQ
 70
     1
  9
$HANDLING
 70
     1
  9
$HANDSEED
  5
7B
  9
$SURFTAB1
 70
     6
  9
$SURFTAB2
 70
     6
  9
$SURFTYPE
 70
     6
  9
$SURFU
 70
     6
  9
$SURFV
 70
     6
  9
$UCSNAME
  2

  9
$UCSORG
 10
0.0
 20
0.0
 30
0.0
  9
$UCSXDIR
 10
1.0
 20
0.0
 30
0.0
  9
$UCSYDIR
 10
0.0
 20
1.0
 30
0.0
  9
$PUCSNAME
  2

  9
$PUCSORG
 10
0.0
 20
0.0
 30
0.0
  9
$PUCSXDIR
 10
1.0
 20
0.0
 30
0.0
  9
$PUCSYDIR
 10
0.0
 20
1.0
 30
0.0
  9
$USERI1
 70
     0
  9
$USERI2
 70
     0
  9
$USERI3
 70
     0
  9
$USERI4
 70
     0
  9
$USERI5
 70
     0
  9
$USERR1
 40
0.0
  9
$USERR2
 40
0.0
  9
$USERR3
 40
0.0
  9
$USERR4
 40
0.0
  9
$USERR5
 40
0.0
  9
$WORLDVIEW
 70
     1
  9
$SHADEDGE
 70
     3
  9
$SHADEDIF
 70
    70
  9
$TILEMODE
 70
     1
  9
$MAXACTVP
 70
    16
  9
$PINSBASE
 10
0.0
 20
0.0
 30
0.0
  9
$PLIMCHECK
 70
     0
  9
$PEXTMIN
 10
1.000000E+20
 20
1.000000E+20
 30
1.000000E+20
  9
$PEXTMAX
 10
-1.000000E+20
 20
-1.000000E+20
 30
-1.000000E+20
  9
$PLIMMIN
 10
0.0
 20
0.0
  9
$PLIMMAX
 10
12.0
 20
9.0
  9
$UNITMODE
 70
     0
  9
$VISRETAIN
 70
     0
  9
$PLINEGEN
 70
     0
  9
$PSLTSCALE
 70
     0
  9
$TREEDEPTH
 70
  3020
  9
$DWGCODEPAGE
  3
undefined
  0
ENDSEC
  0
SECTION
  2
TABLES
  0
TABLE
  2
VPORT
 70
     2
  0
VPORT
  2
*ACTIVE
 70
     0
 10
0.0
 20
0.0
 11
1.0
 21
1.0
 12
3.638269
 22
0.415227
 13
0.0
 23
0.0
 14
1.0
 24
1.0
 15
0.0
 25
0.0
 16
0.5
 26
1.0
 36
0.75
 17
0.0
 27
0.0
 37
0.0
 40
15.778641
 41
1.594883
 42
50.0
 43
0.0
 44
0.0
 50
0.0
 51
0.0
 71
     0
 72
   100
 73
     1
 74
     1
 75
     0
 76
     0
 77
     0
 78
     0
  0
ENDTAB
  0
TABLE
  2
LTYPE
 70
     1
  0
LTYPE
  2
CONTINUOUS
 70
    64
  3
Solid line
 72
    65
 73
     0
 40
0.0
  0
ENDTAB
  0
TABLE
  2
LAYER
 70
     2
  0
LAYER
  2
0
 70
    64
 62
     7
  6
CONTINUOUS
  0
LAYER
  2
AME_FRZ
 70
    65
 62
     7
  6
CONTINUOUS
  0
ENDTAB
  0
TABLE
  2
STYLE
 70
     1
  0
STYLE
  2
STANDARD
 70
     0
 40
0.0
 41
1.0
 50
0.0
 71
     0
 42
0.2
  3
txt
  4

  0
ENDTAB
  0
TABLE
  2
VIEW
 70
     0
  0
ENDTAB
  0
TABLE
  2
UCS
 70
     0
  0
ENDTAB
  0
TABLE
  2
APPID
 70
     2
  0
APPID
  2
ACAD
 70
    64
  0
APPID
  2
AME_SOL
 70
    64
  0
ENDTAB
  0
TABLE
  2
DIMSTYLE
 70
     0
  0
ENDTAB
  0
ENDSEC
  0
SECTION
  2
BLOCKS
  0
BLOCK
  8
0
  5
1
  2
AME_NIL
 70
    64
 10
0.0
 20
0.0
 30
0.0
  1
AME_NIL
  3
AME_NIL
  0
ENDBLK
  8
0
  5
2
  0
BLOCK
  8
0
  5
4
  2
AME_SOL
 70
    64
 10
0.0
 20
0.0
 30
0.0
  1
AME_SOL
  3
AME_SOL
  0
ENDBLK
  8
0
  5
5
  0
BLOCK
  8
0
  5
7
  2
*U2
 70
    65
 10
0.0
 20
0.0
 30
0.0
  1
*U
  3
*U
  0
LINE
  8
0
 62
     0
  5
8
 10
10.0
 20
10.0
 30
0.0
 11
10.0
 21
10.0
 31
10.0
1001
AME_SOL
1070
     1
1071
       18
  0
LINE
  8
0
 62
     0
  5
9
 10
10.0
 20
10.0
 30
10.0
 11
10.0
 21
0.0
 31
10.0
1001
AME_SOL
1070
     1
1071
       17
  0
LINE
  8
0
 62
     0
  5
A
 10
0.0
 20
10.0
 30
10.0
 11
10.0
 21
10.0
 31
10.0
1001
AME_SOL
1070
     1
1071
       16
  0
LINE
  8
0
 62
     0
  5
B
 10
0.0
 20
10.0
 30
0.0
 11
0.0
 21
10.0
 31
10.0
1001
AME_SOL
1070
     1
1071
       15
  0
LINE
  8
0
 62
     0
  5
C
 10
0.0
 20
10.0
 30
10.0
 11
0.0
 21
0.0
 31
10.0
1001
AME_SOL
1070
     1
1071
       14
  0
LINE
  8
0
 62
     0
  5
D
 10
0.0
 20
0.0
 30
0.0
 11
0.0
 21
0.0
 31
10.0
1001
AME_SOL
1070
     1
1071
       13
  0
LINE
  8
0
 62
     0
  5
E
 10
10.0
 20
0.0
 30
10.0
 11
10.0
 21
0.0
 31
0.0
1001
AME_SOL
1070
     1
1071
       12
  0
LINE
  8
0
 62
     0
  5
F
 10
0.0
 20
0.0
 30
10.0
 11
10.0
 21
0.0
 31
10.0
1001
AME_SOL
1070
     1
1071
       11
  0
LINE
  8
0
 62
     0
  5
10
 10
0.0
 20
0.0
 30
0.0
 11
10.0
 21
0.0
 31
0.0
1001
AME_SOL
1070
     1
1071
       10
  0
LINE
  8
0
 62
     0
  5
11
 10
0.0
 20
10.0
 30
0.0
 11
0.0
 21
0.0
 31
0.0
1001
AME_SOL
1070
     1
1071
        9
  0
LINE
  8
0
 62
     0
  5
12
 10
10.0
 20
0.0
 30
0.0
 11
10.0
 21
10.0
 31
0.0
1001
AME_SOL
1070
     1
1071
        8
  0
LINE
  8
0
 62
     0
  5
13
 10
10.0
 20
10.0
 30
0.0
 11
0.0
 21
10.0
 31
0.0
1001
AME_SOL
1070
     1
1071
        7
  0
ENDBLK
  8
0
  5
14
  0
BLOCK
  8
0
  5
18
  2
AME_MAT
 70
    64
 10
0.0
 20
0.0
 30
0.0
  1
AME_MAT
  3
AME_MAT
  0
ENDBLK
  8
0
  5
19
  0
BLOCK
  8
0
  5
1E
  2
*U4
 70
    65
 10
0.0
 20
0.0
 30
0.0
  1
*U
  3
*U
  0
CIRCLE
  8
0
 62
     0
  5
1F
 10
0.0
 20
0.0
 30
0.0
 40
2.5
1001
AME_SOL
1070
     1
1071
        5
  0
CIRCLE
  8
0
 62
     0
  5
20
 10
0.0
 20
0.0
 30
5.0
 40
2.5
1001
AME_SOL
1070
     1
1071
        4
  0
LINE
  8
0
 62
     0
  5
21
 10
-0.956708
 20
2.309699
 30
0.0
 11
-0.956708
 21
2.309699
 31
5.0
1001
AME_SOL
1070
     0
1071
        1
  0
LINE
  8
0
 62
     0
  5
22
 10
-1.767767
 20
1.767767
 30
0.0
 11
-1.767767
 21
1.767767
 31
5.0
1001
AME_SOL
1070
     0
1071
        1
  0
LINE
  8
0
 62
     0
  5
23
 10
-2.309699
 20
0.956709
 30
0.0
 11
-2.309699
 21
0.956709
 31
5.0
1001
AME_SOL
1070
     0
1071
        1
  0
LINE
  8
0
 62
     0
  5
24
 10
-2.5
 20
0.0
 30
0.0
 11
-2.5
 21
0.0
 31
5.0
1001
AME_SOL
1070
     0
1071
        1
  0
LINE
  8
0
 62
     0
  5
25
 10
-2.309699
 20
-0.956708
 30
0.0
 11
-2.309699
 21
-0.956708
 31
5.0
1001
AME_SOL
1070
     0
1071
        1
  0
LINE
  8
0
 62
     0
  5
26
 10
-1.767767
 20
-1.767767
 30
0.0
 11
-1.767767
 21
-1.767767
 31
5.0
1001
AME_SOL
1070
     0
1071
        1
  0
LINE
  8
0
 62
     0
  5
27
 10
-0.956709
 20
-2.309699
 30
0.0
 11
-0.956709
 21
-2.309699
 31
5.0
1001
AME_SOL
1070
     0
1071
        1
  0
LINE
  8
0
 62
     0
  5
28
 10
0.0
 20
-2.5
 30
0.0
 11
0.0
 21
-2.5
 31
5.0
1001
AME_SOL
1070
     0
1071
        1
  0
LINE
  8
0
 62
     0
  5
29
 10
0.956708
 20
-2.309699
 30
0.0
 11
0.956708
 21
-2.309699
 31
5.0
1001
AME_SOL
1070
     0
1071
        1
  0
LINE
  8
0
 62
     0
  5
2A
 10
1.767767
 20
-1.767767
 30
0.0
 11
1.767767
 21
-1.767767
 31
5.0
1001
AME_SOL
1070
     0
1071
        1
  0
LINE
  8
0
 62
     0
  5
2B
 10
2.309699
 20
-0.956709
 30
0.0
 11
2.309699
 21
-0.956709
 31
5.0
1001
AME_SOL
1070
     0
1071
        1
  0
LINE
  8
0
 62
     0
  5
2C
 10
2.5
 20
0.0
 30
0.0
 11
2.5
 21
0.0
 31
5.0
1001
AME_SOL
1070
     0
1071
        1
  0
LINE
  8
0
 62
     0
  5
2D
 10
2.309699
 20
0.956709
 30
0.0
 11
2.309699
 21
0.956709
 31
5.0
1001
AME_SOL
1070
     0
1071
        1
  0
LINE
  8
0
 62
     0
  5
2E
 10
1.767767
 20
1.767767
 30
0.0
 11
1.767767
 21
1.767767
 31
5.0
1001
AME_SOL
1070
     0
1071
        1
  0
LINE
  8
0
 62
     0
  5
2F
 10
0.956709
 20
2.309699
 30
0.0
 11
0.956709
 21
2.309699
 31
5.0
1001
AME_SOL
1070
     0
1071
        1
  0
LINE
  8
0
 62
     0
  5
30
 10
0.0
 20
2.5
 30
0.0
 11
0.0
 21
2.5
 31
5.0
1001
AME_SOL
1070
     0
1071
        1
  0
ENDBLK
  8
0
  5
31
  0
BLOCK
  8
0
  5
35
  2
SOLAXES
 70
     0
 10
0.0
 20
0.0
 30
0.0
  1
SOLAXES
  3
SOLAXES
  0
LINE
  8
0
 62
     0
  5
36
 10
0.0
 20
0.0
 30
0.0
 11
4.733593
 21
0.0
 31
0.0
  0
LINE
  8
0
 62
     0
  5
37
 10
0.0
 20
0.0
 30
0.0
 11
0.0
 21
4.733593
 31
0.0
  0
LINE
  8
0
 62
     0
  5
38
 10
0.0
 20
0.0
 30
0.0
 11
0.0
 21
0.0
 31
4.733593
  0
CIRCLE
  8
0
 62
     0
  5
39
 10
0.0
 20
0.0
 30
4.260233
 40
0.23668
210
1.0
220
0.0
230
0.0
  0
LINE
  8
0
 62
     0
  5
3A
 10
4.260233
 20
0.23668
 30
0.0
 11
4.733593
 21
0.0
 31
0.0
  0
LINE
  8
0
 62
     0
  5
3B
 10
4.260233
 20
0.0
 30
0.23668
 11
4.733593
 21
0.0
 31
0.0
  0
LINE
  8
0
 62
     0
  5
3C
 10
4.260233
 20
-0.23668
 30
0.0
 11
4.733593
 21
0.0
 31
0.0
  0
LINE
  8
0
 62
     0
  5
3D
 10
4.260233
 20
0.0
 30
-0.23668
 11
4.733593
 21
0.0
 31
0.0
  0
CIRCLE
  8
0
 62
     0
  5
3E
 10
0.0
 20
0.0
 30
4.260233
 40
0.23668
210
0.0
220
1.0
230
0.0
  0
LINE
  8
0
 62
     0
  5
3F
 10
0.23668
 20
4.260233
 30
0.0
 11
0.0
 21
4.733593
 31
0.0
  0
LINE
  8
0
 62
     0
  5
40
 10
0.0
 20
4.260233
 30
0.23668
 11
0.0
 21
4.733593
 31
0.0
  0
LINE
  8
0
 62
     0
  5
41
 10
-0.23668
 20
4.260233
 30
0.0
 11
0.0
 21
4.733593
 31
0.0
  0
LINE
  8
0
 62
     0
  5
42
 10
0.0
 20
4.260233
 30
-0.23668
 11
0.0
 21
4.733593
 31
0.0
  0
CIRCLE
  8
0
 62
     0
  5
43
 10
0.0
 20
0.0
 30
3.786874
 40
0.23668
210
0.0
220
1.0
230
0.0
  0
LINE
  8
0
 62
     0
  5
44
 10
0.23668
 20
3.786874
 30
0.0
 11
0.0
 21
4.260233
 31
0.0
  0
LINE
  8
0
 62
     0
  5
45
 10
0.0
 20
3.786874
 30
0.23668
 11
0.0
 21
4.260233
 31
0.0
  0
LINE
  8
0
 62
     0
  5
46
 10
-0.23668
 20
3.786874
 30
0.0
 11
0.0
 21
4.260233
 31
0.0
  0
LINE
  8
0
 62
     0
  5
47
 10
0.0
 20
3.786874
 30
-0.23668
 11
0.0
 21
4.260233
 31
0.0
  0
CIRCLE
  8
0
 62
     0
  5
48
 10
0.0
 20
0.0
 30
4.260233
 40
0.23668
  0
LINE
  8
0
 62
     0
  5
49
 10
0.23668
 20
0.0
 30
4.260233
 11
0.0
 21
0.0
 31
4.733593
  0
LINE
  8
0
 62
     0
  5
4A
 10
0.0
 20
0.23668
 30
4.260233
 11
0.0
 21
0.0
 31
4.733593
  0
LINE
  8
0
 62
     0
  5
4B
 10
-0.23668
 20
0.0
 30
4.260233
 11
0.0
 21
0.0
 31
4.733593
  0
LINE
  8
0
 62
     0
  5
4C
 10
0.0
 20
-0.23668
 30
4.260233
 11
0.0
 21
0.0
 31
4.733593
  0
CIRCLE
  8
0
 62
     0
  5
4D
 10
0.0
 20
0.0
 30
3.786874
 40
0.23668
  0
LINE
  8
0
 62
     0
  5
4E
 10
0.23668
 20
0.0
 30
3.786874
 11
0.0
 21
0.0
 31
4.260233
  0
LINE
  8
0
 62
     0
  5
4F
 10
0.0
 20
0.23668
 30
3.786874
 11
0.0
 21
0.0
 31
4.260233
  0
LINE
  8
0
 62
     0
  5
50
 10
-0.23668
 20
0.0
 30
3.786874
 11
0.0
 21
0.0
 31
4.260233
  0
LINE
  8
0
 62
     0
  5
51
 10
0.0
 20
-0.23668
 30
3.786874
 11
0.0
 21
0.0
 31
4.260233
  0
CIRCLE
  8
0
 62
     0
  5
52
 10
0.0
 20
0.0
 30
3.313515
 40
0.23668
  0
LINE
  8
0
 62
     0
  5
53
 10
0.23668
 20
0.0
 30
3.313515
 11
0.0
 21
0.0
 31
3.786874
  0
LINE
  8
0
 62
     0
  5
54
 10
0.0
 20
0.23668
 30
3.313515
 11
0.0
 21
0.0
 31
3.786874
  0
LINE
  8
0
 62
     0
  5
55
 10
-0.23668
 20
0.0
 30
3.313515
 11
0.0
 21
0.0
 31
3.786874
  0
LINE
  8
0
 62
     0
  5
56
 10
0.0
 20
-0.23668
 30
3.313515
 11
0.0
 21
0.0
 31
3.786874
  0
ENDBLK
  8
0
  5
57
  0
BLOCK
  8
0
  5
5A
  2
*U6
 70
    65
 10
0.0
 20
0.0
 30
0.0
  1
*U
  3
*U
  0
LINE
  8
0
 62
     7
  5
5B
 10
10.0
 20
10.0
 30
0.0
 11
10.0
 21
10.0
 31
10.0
1001
AME_SOL
1070
     1
1071
       26
  0
LINE
  8
0
 62
     7
  5
5C
 10
10.0
 20
10.0
 30
10.0
 11
10.0
 21
0.0
 31
10.0
1001
AME_SOL
1070
     1
1071
       25
  0
LINE
  8
0
 62
     7
  5
5D
 10
7.5
 20
10.0
 30
10.0
 11
10.0
 21
10.0
 31
10.0
1001
AME_SOL
1070
     1
1071
       24
  0
LINE
  8
0
 62
     7
  5
5E
 10
0.0
 20
10.0
 30
10.0
 11
2.5
 21
10.0
 31
10.0
1001
AME_SOL
1070
     1
1071
       23
  0
LINE
  8
0
 62
     7
  5
5F
 10
0.0
 20
10.0
 30
0.0
 11
0.0
 21
10.0
 31
10.0
1001
AME_SOL
1070
     1
1071
       22
  0
LINE
  8
0
 62
     7
  5
60
 10
0.0
 20
10.0
 30
10.0
 11
0.0
 21
0.0
 31
10.0
1001
AME_SOL
1070
     1
1071
       21
  0
LINE
  8
0
 62
     7
  5
61
 10
0.0
 20
0.0
 30
0.0
 11
0.0
 21
0.0
 31
10.0
1001
AME_SOL
1070
     1
1071
       20
  0
LINE
  8
0
 62
     7
  5
62
 10
10.0
 20
0.0
 30
10.0
 11
10.0
 21
0.0
 31
0.0
1001
AME_SOL
1070
     1
1071
       19
  0
LINE
  8
0
 62
     7
  5
63
 10
0.0
 20
0.0
 30
10.0
 11
10.0
 21
0.0
 31
10.0
1001
AME_SOL
1070
     1
1071
       18
  0
LINE
  8
0
 62
     7
  5
64
 10
0.0
 20
0.0
 30
0.0
 11
10.0
 21
0.0
 31
0.0
1001
AME_SOL
1070
     1
1071
       17
  0
LINE
  8
0
 62
     7
  5
65
 10
0.0
 20
10.0
 30
0.0
 11
0.0
 21
0.0
 31
0.0
1001
AME_SOL
1070
     1
1071
       16
  0
LINE
  8
0
 62
     7
  5
66
 10
10.0
 20
0.0
 30
0.0
 11
10.0
 21
10.0
 31
0.0
1001
AME_SOL
1070
     1
1071
       15
  0
LINE
  8
0
 62
     7
  5
67
 10
10.0
 20
10.0
 30
0.0
 11
0.0
 21
10.0
 31
0.0
1001
AME_SOL
1070
     1
1071
       14
  0
LINE
  8
0
 62
     7
  5
68
 10
7.5
 20
10.0
 30
5.0
 11
2.5
 21
10.0
 31
5.0
1001
AME_SOL
1070
     1
1071
       13
  0
LINE
  8
0
 62
     7
  5
69
 10
7.5
 20
10.0
 30
5.0
 11
7.5
 21
10.0
 31
10.0
1001
AME_SOL
1070
     1
1071
       12
  0
LINE
  8
0
 62
     7
  5
6A
 10
2.5
 20
10.0
 30
5.0
 11
2.5
 21
10.0
 31
10.0
1001
AME_SOL
1070
     1
1071
       11
  0
ARC
  8
0
 62
     7
  5
6B
 10
5.0
 20
10.0
 30
10.0
 40
2.5
 50
180.0
 51
0.0
1001
AME_SOL
1070
     1
1071
       10
  0
ARC
  8
0
 62
     7
  5
6C
 10
5.0
 20
10.0
 30
5.0
 40
2.5
 50
180.0
 51
0.0
1001
AME_SOL
1070
     1
1071
        9
  0
LINE
  8
0
 62
     7
  5
6D
 10
7.5
 20
10.0
 30
5.0
 11
7.5
 21
10.0
 31
10.0
1001
AME_SOL
1070
     0
1071
        1
  0
LINE
  8
0
 62
     7
  5
6E
 10
7.309699
 20
9.043291
 30
5.0
 11
7.309699
 21
9.043291
 31
10.0
1001
AME_SOL
1070
     0
1071
        1
  0
LINE
  8
0
 62
     7
  5
6F
 10
6.767766
 20
8.232233
 30
5.0
 11
6.767766
 21
8.232233
 31
10.0
1001
AME_SOL
1070
     0
1071
        1
  0
LINE
  8
0
 62
     7
  5
70
 10
5.956708
 20
7.690301
 30
5.0
 11
5.956708
 21
7.690301
 31
10.0
1001
AME_SOL
1070
     0
1071
        1
  0
LINE
  8
0
 62
     7
  5
71
 10
5.0
 20
7.5
 30
5.0
 11
5.0
 21
7.5
 31
10.0
1001
AME_SOL
1070
     0
1071
        1
  0
LINE
  8
0
 62
     7
  5
72
 10
4.043291
 20
7.690301
 30
5.0
 11
4.043291
 21
7.690301
 31
10.0
1001
AME_SOL
1070
     0
1071
        1
  0
LINE
  8
0
 62
     7
  5
73
 10
3.232233
 20
8.232233
 30
5.0
 11
3.232233
 21
8.232233
 31
10.0
1001
AME_SOL
1070
     0
1071
        1
  0
LINE
  8
0
 62
     7
  5
74
 10
2.690301
 20
9.043292
 30
5.0
 11
2.690301
 21
9.043292
 31
10.0
1001
AME_SOL
1070
     0
1071
        1
  0
LINE
  8
0
 62
     7
  5
75
 10
2.5
 20
10.0
 30
5.0
 11
2.5
 21
10.0
 31
10.0
1001
AME_SOL
1070
     0
1071
        1
  0
ENDBLK
  8
0
  5
76
  0
ENDSEC
  0
SECTION
  2
ENTITIES
  0
INSERT
  8
AME_FRZ
  5
15
  2
*U2
 10
0.0
 20
0.0
 30
0.0
1001
AME_SOL
1002
{
1070
     0
1071
  1859128
1070
  1536
1010
10.0
1020
10.0
1030
10.0
1005
0
1005
0
1005
77
1040
0.0
1040
1.0
1000
MILD_STEEL
1000
0
1010
0.0
1020
0.0
1030
0.0
1010
0.0
1020
0.0
1030
1.0
1040
0.0
1002
}
  0
INSERT
  8
AME_FRZ
  5
1B
  2
AME_NIL
 10
0.0
 20
0.0
 30
0.0
  0
INSERT
  8
AME_FRZ
  5
1C
  2
AME_SOL
 10
0.0
 20
0.0
 30
0.0
1001
AME_SOL
1000
1.0
1000
sq cm
1070
     3
1070
     0
1070
     3
1000
wire
1040
0.0
1000
NONE
1040
1.0
1000
cm
1000
gm
1000
MILD_STEEL
1070
    25
1000
CSG
1070
     3
1070
     2
1070
     3
1000
cu cm
1070
     4
1070
     0
1005
1B
  0
INSERT
  8
AME_FRZ
  5
32
  2
*U4
 10
5.0
 20
10.0
 30
5.0
1001
AME_SOL
1002
{
1070
     0
1071
  1916376
1070
  1538
1010
2.5
1020
2.5
1030
5.0
1005
0
1005
0
1005
77
1040
0.0
1040
1.0
1000
MILD_STEEL
1000
0
1010
5.0
1020
10.0
1030
5.0
1010
0.0
1020
0.0
1030
1.0
1040
0.0
1002
}
  0
INSERT
  8
0
  5
77
  2
*U6
 10
0.0
 20
0.0
 30
0.0
1001
AME_SOL
1002
{
1070
     0
1071
  1858648
1070
  1543
1070
     0
1005
15
1005
32
1005
0
1005
78
1005
0
1040
0.0
1040
1.0
1000
MILD_STEEL
1000
0
1002
}
  0
INSERT
  8
AME_FRZ
  5
78
  2
AME_NIL
 10
1.0
 20
1.0
 30
1.0
1001
AME_SOL
1004
E903A9FB0100F0FFFFFF000052F708000100000066900ABB66900ABB66900ABBA908204100054841A908204101000000FBF2040000EC1F4000F6EF4000F69F40000AF04000054841000520410100EA4E784A1D00FFFF00000100CB000000EA4E00000000803F0000000000000000000000000000803F0000
1004
00000000A040000020410000A04005000000204000002040000000000000000000000000EA4E00000000803F0000000000000000000000000000803F000000000000A040000020410000A040050000002040000020400000000000000000FFFFFFFF4DEA0F000000967500000000803F0000000000000000
1004
000000000000803F00000000A662814087F444410000A0400200B3A302E0B3A3026001000000000000004DEA0E000000967500000000803F0000000000000000000000000000803F00000000EADC4E40C7483C410000A0400200B3A302E0B3A3026001000000000000004DEA0D000000967500000000803F
1004
0000000000000000000000000000803F00000000E62D2C40AE4E2F410000A0400200B3A302E0B3A3026001000000000000004DEA0C000000967500000000803F0000000000000000000000000000803F0000000000002040000020410000A0400200B3A302E0B3A30260000000000000000002000000B3A3
1004
02E00000A0C00000A040B3A30260020000000000A0C00000000002002E0100002E010000000000000000A04002002E01000035FFFFFF01000000000000000000A0404DEA0B000000967500000000803F0000000000000000000000000000803F00000000E42D2C4053B110410000A0400200B3A302E0B3A3
1004
026000000000010000000000A0C00000008002000000B3A302E00000A0C00000A040B3A3026001000000000000800000A040020035FFFFFF35FFFFFF01000000000000800000A0404DEA0A000000967500000000803F0000000000000000000000000000803F00000000E7DC4E403AB703410000A0400200
1004
B3A302E0B3A3026000000000010000000000A0C00000008002000000B3A302E00000A0C00000A040B3A3026001000000000000800000A040020035FFFFFF35FFFFFF01000000000000800000A0404DEA09000000967500000000803F0000000000000000000000000000803F00000000A4628140F216F640
1004
0000A0400200B3A302E0B3A3026000000000010000000000A0C00000008002000000B3A302E00000A0C00000A040B3A3026001000000000000800000A040020035FFFFFF35FFFFFF01000000000000800000A0404DEA08000000967500000000803F0000000000000000000000000000803F000000000000
1004
A0400000F0400000A0400200B3A302E0B3A3026000000000010000000000A0C00000008002000000B3A302E00000A0C00000A040B3A3026001000000000000800000A040020035FFFFFF35FFFFFF01000000000000800000A0404DEA07000000967500000000803F0000000000000000000000000000803F
1004
000000005A9DBE40F216F6400000A0400200B3A302E0B3A3026000000000010000000000A0C00000000002000000B3A302E00000A0C00000A040B3A3026001000000000000000000A040020035FFFFFF35FFFFFF01000000000000000000A0404DEA06000000967500000000803F00000000000000000000
1004
00000000803F000000008B91D8403AB703410000A0400200B3A302E0B3A3026000000000010000000000A0C00000000002000000B3A302E00000A0C00000A040B3A3026001000000000000000000A040020035FFFFFF35FFFFFF01000000000000000000A0404DEA05000000967500000000803F00000000
1004
00000000000000000000803F000000000EE9E94052B110410000A0400200B3A302E0B3A3026000000000010000000000A0C00000000002000000B3A302E00000A0C00000A040B3A3026001000000000000000000A040020035FFFFFF35FFFFFF01000000000000000000A0404DEA04000000967500000000
1004
803F0000000000000000000000000000803F000000000000F040000020410000A0400200B3A302E0B3A30260000000000000000002000000B3A302E00000A0C00000A040B3A30260020000000000A0C00000000002002E0100002E010000000000000000A040020035FFFFFF2E0100000100000000000000
1004
0000A0404DEA03000000967500000000803F0000000000000000000000000000803F000000000EE9E940AD4E2F410000A0400200B3A302E0B3A3026001000000000000004DEA02000000967500000000803F0000000000000000000000000000803F000000008C91D840C5483C410000A0400200B3A302E0
1004
B3A3026001000000000000004DEA01000000967500000000803F0000000000000000000000000000803F000000005C9DBE4087F444410000A0400200B3A302E0B3A3026001000000000000004DEA00000000967500000000803F0000000000000000000000000000803F000000000000A040000048410000
1004
A0400200B3A302E0B3A302600100000000000000FBF2020000EC1F4000F6EF4000F69F40000AF04000054841000AA0400100844ED0741D00FFFF00000100CA000000844E00000000803F000000000000000000000080000080BF000000800000A040000020410000A0400500000000000000000000000000
1004
0000000000000000844E00000000803F000000000000000000000080000080BF000000800000A040000020410000A040050000000000000000000000000000000000FFFFFFFFFBF2040066900ABB66900ABB66900ABBA9082041A908204166900A3B0100844EC0751D0001000000010032010000844E0000
1004
000000000000803F000000000000803F000000000000000000000000000000000000000005000000000000000000000000000000000000000000844E0000000000000000803F000000000000803F000000000000000000000000000000000000000005000000000000000000000000000000000001000000
1004
FBF2040066900ABB66900ABB66900ABBA908204166900A3BA90820410100844EB0761D0001000000010031010000844E00000000803F000000000000000000000000000000000000803F00000000000000000000000005000000000000000000000000000000000000000000844E00000000803F00000000
1004
0000000000000000000000000000803F00000000000000000000000005000000000000000000000000000000000001000000FBF2040066900ABB66900ABB66900ABB66900A3BA9082041A90820410100844EA0771D0001000000010030010000844E000000000000000000000000803F000000000000803F
1004
0000000000000000000000000000000005000000000000000000000000000000000000000000844E000000000000000000000000803F000000000000803F0000000000000000000000000000000005000000000000000000000000000000000001000000FBF2060066900ABB66900ABB57F71F41A9082041
1004
A9082041A90820410100844E90781D000100000001002F010000844E0000000080BF000000800000008000000080000080BF0000008000002041000020410000204105000000000000000000000000000000000000000000844E0000000080BF000000800000008000000080000080BF0000008000002041
1004
000020410000204105000000000000000000000000000000000001000000FBF2080066900ABB57F71F4166900ABBA9082041A9082041A90820410100844E80791D000100000001002E010000844E00000000008000000080000080BF000080BF000000800000008000002041000020410000204105000000
1004
000000000000000000000000000000000000844E00000000008000000080000080BF000080BF000000800000008000002041000020410000204105000000000000000000000000000000000001000000FBF2040057F71F4166900ABB66900ABBA9082041A9082041A90820410100844E707A1D0001000000
1004
01002D010000844E000000000080000080BF000000800000008000000080000080BF00002041000020410000204105000000000000000000000000000000000000000000844E000000000080000080BF000000800000008000000080000080BF000020410000204100002041050000000000000000000000
1004
00000000000001000000A4EE00EC1F4000F6EF4000F69F40000AF04000054841000AA040DB0F49C0000000800200FC75C87A1D000000FFFF0100784A1D00D0741D0000000200784A1D00D0741D00FFFFFFFFFFFFFFFFFC7500000000803F0000000000000000000000000000803F000000000000A0400000
1004
20410000A04004000000204000002040DB0F49C000000080A4EE00EC1F4000F6EF4057F71F41000AF040A908204100052041DB0F49C0000000800200FC75B87B1D0000000100FFFF784A1D0090781D000000020090781D00784A1D0001000000FFFFFFFFFC7500000000803F000000000000000000000000
1004
0000803F000000000000A040000020410000204104000000204000002040DB0F49C000000080A4EE00EC1F4057F71F4100F69F40000AF040A908204100052041000000000000A04002009675A87C1D0000000100FFFF784A1D0080791D000000020080791D00784A1D0001000000FFFFFFFF967500000000
1004
803F0000000000000000000000000000803F0000000000002040000020410000A0400200000000000000A040A4EE00EC1F4057F71F4100F69F40000AF040A908204100052041000000000000A04002009675987D1D000000FFFF0100784A1D0080791D0000000200784A1D0080791D00FFFFFFFF01000000
1004
967500000000803F0000000000000000000000000000803F000000000000F040000020410000A0400200000000000000A040A4EE00EC1F4057F71F4100F69F40000AF040A9082041000AA040000000000000A04002009675887E1D0000000100FFFFD0741D0080791D000000020080791D00D0741D000100
1004
0000FFFFFFFF96750000000000000000803F000000000000000000000000000080BF0000F040000020410000A0400200000000000000A040A4EE66900ABB57F71F4166900ABBA9082041A908204166900A3B0000A0C00000A04002009675787F1D000000FFFF0100C0751D0080791D0000000200C0751D00
1004
80791D00010000000100000096750000000000000000803F000000000000000000000000000080BF0000A040000020410000000002000000A0C00000A040A4EE57F71F4166900ABB66900ABBA9082041A908204166900A3B0000A0C00000A0400200967568801D000000FFFF0100C0751D00707A1D000000
1004
0200C0751D00707A1D000100000001000000967500000000803F00000000000000000000000000000000000080BF000020410000A0400000000002000000A0C00000A040A4EE66900ABB66900ABB66900ABB66900A3BA908204166900A3B000020C10000008002009675883F1E000000FFFF0100C0751D00
1004
A0771D0000000200C0751D00A0771D00010000000100000096750000000080BF00000000000000000000000000000000000080BF0000000000000000000000000200000020C100000080A4EE66900ABB66900ABB66900ABBA908204166900A3B66900A3B00000000000020410200967578401E000000FFFF
1004
0100C0751D00B0761D0000000200C0751D00B0761D0001000000010000009675000000000000000080BF000000000000000000000000000080BF00000000000000000000000002000000000000002041A4EE66900ABB66900ABB57F71F41A908204166900A3BA90820410000A0C00000A040020096756841
1004
1E000000FFFF0100B0761D0090781D0000000200B0761D0090781D0001000000010000009675000000000000000000000000803F00000000000080BF000000000000A040000000000000204102000000A0C00000A040A4EE57F71F4166900ABB66900ABBA908204166900A3BA90820410000A0C00000A040
1004
0200967558421E000000FFFF0100B0761D00707A1D0000000200B0761D00707A1D000100000001000000967500000000803F000000000000000000000000000080BF0000000000002041000000000000A04002000000A0C00000A040A4EE66900ABB66900ABB66900ABB66900A3B66900A3BA90820410000
1004
0000000020410200967548431E000000FFFF0100B0761D00A0771D0000000200B0761D00A0771D00010000000100000096750000000080BF000000000000000000000000000080BF0000000000000000000000000000000002000000000000002041A4EE66900ABB66900ABB57F71F4166900A3BA9082041
1004
A90820410000A0C00000A0400200967538441E000000FFFF0100A0771D0090781D0000000200A0771D0090781D0001000000010000009675000000000000000000000000803F000080BF0000000000000000000000000000A0400000204102000000A0C00000A040A4EE66900ABB57F71F4166900ABB6690
1004
0A3BA9082041A90820410000A0C00000A0400200967528451E000000FFFF0100A0771D0080791D0000000200A0771D0080791D00010000000100000096750000000000000000803F00000000000080BF000000000000000000000000000020410000A04002000000A0C00000A040A4EE66900ABB57F71F41
1004
57F71F41A9082041A9082041A9082041000020C10000F0C00200967518461E000000FFFF010090781D0080791D000000020090781D0080791D00010000000100000096750000000000000000803F0000000000000000000000000000803F0000204100002041000020410200000020C10000F0C0A4EE6690
1004
0ABB57F71F4157F71F41A9082041A9082041A9082041000020C0000000800200967508471E000000FFFF010090781D0080791D000000020090781D0080791D00010000000100000096750000000000000000803F0000000000000000000000000000803F0000204100002041000020410200000020C00000
1004
0080A4EE57F71F4166900ABB57F71F41A9082041A9082041A9082041000000000000204102009675F8471E000000FFFF010090781D00707A1D000000020090781D00707A1D000100000001000000967500000000803F000000000000000000000080000000000000803F0000204100002041000020410200
1004
0000000000002041A4EE57F71F4157F71F4166900ABBA9082041A9082041A9082041000020C10000008002009675E8481E000000FFFF010080791D00707A1D000000020080791D00707A1D000100000001000000967500000000803F0000000000000000000000000000803F000000000000204100002041
1004
000020410200000020C10000008019FC
1005
79
  0
INSERT
  8
AME_FRZ
  5
79
  2
AME_NIL
 10
1.0
 20
1.0
 30
1.0
1001
AME_SOL
1004

1005
0
  0
INSERT
  8
AME_FRZ
  5
7A
  2
AME_MAT
 10
0.0
 20
0.0
 30
0.0
1001
AME_SOL
1000
MILD_STEEL
1040
7860.0
1040
220.0
1040
0.275
1040
207.0
1040
345.0
1040
56.0
1040
12.0
1040
0.46
  0
ENDSEC
  0
EOF
