  0
SECTION
  2
HEADER
  9
$ACADVER
  1
AC1009
  9
$INSBASE
 10
0.0
 20
0.0
 30
0.0
  9
$EXTMIN
 10
-0.5
 20
-0.5
 30
0.0
  9
$EXTMAX
 10
8.0
 20
4.5
 30
4.0
  9
$LIMMIN
 10
0.0
 20
0.0
  9
$LIMMAX
 10
12.0
 20
9.0
  9
$ORTHOMODE
 70
     0
  9
$REGENMODE
 70
     1
  9
$FILLMODE
 70
     1
  9
$QTEXTMODE
 70
     0
  9
$MIRRTEXT
 70
     1
  9
$DRAGMODE
 70
     2
  9
$LTSCALE
 40
1.0
  9
$OSMODE
 70
     0
  9
$ATTMODE
 70
     1
  9
$TEXTSIZE
 40
0.2
  9
$TRACEWID
 40
0.05
  9
$TEXTSTYLE
  7
STANDARD
  9
$CLAYER
  8
0
  9
$CELTYPE
  6
BYLAYER
  9
$CECOLOR
 62
   256
  9
$DIMSCALE
 40
1.0
  9
$DIMASZ
 40
0.18
  9
$DIMEXO
 40
0.0625
  9
$DIMDLI
 40
0.38
  9
$DIMRND
 40
0.0
  9
$DIMDLE
 40
0.0
  9
$DIMEXE
 40
0.18
  9
$DIMTP
 40
0.0
  9
$DIMTM
 40
0.0
  9
$DIMTXT
 40
0.18
  9
$DIMCEN
 40
0.09
  9
$DIMTSZ
 40
0.0
  9
$DIMTOL
 70
     0
  9
$DIMLIM
 70
     0
  9
$DIMTIH
 70
     1
  9
$DIMTOH
 70
     1
  9
$DIMSE1
 70
     0
  9
$DIMSE2
 70
     0
  9
$DIMTAD
 70
     0
  9
$DIMZIN
 70
     0
  9
$DIMBLK
  1

  9
$DIMASO
 70
     1
  9
$DIMSHO
 70
     1
  9
$DIMPOST
  1

  9
$DIMAPOST
  1

  9
$DIMALT
 70
     0
  9
$DIMALTD
 70
     2
  9
$DIMALTF
 40
25.4
  9
$DIMLFAC
 40
1.0
  9
$DIMTOFL
 70
     0
  9
$DIMTVP
 40
0.0
  9
$DIMTIX
 70
     0
  9
$DIMSOXD
 70
     0
  9
$DIMSAH
 70
     0
  9
$DIMBLK1
  1

  9
$DIMBLK2
  1

  9
$DIMSTYLE
  2
*UNNAMED
  9
$DIMCLRD
 70
     0
  9
$DIMCLRE
 70
     0
  9
$DIMCLRT
 70
     0
  9
$DIMTFAC
 40
1.0
  9
$DIMGAP
 40
0.09
  9
$LUNITS
 70
     2
  9
$LUPREC
 70
     4
  9
$SKETCHINC
 40
0.1
  9
$FILLETRAD
 40
0.0
  9
$AUNITS
 70
     0
  9
$AUPREC
 70
     0
  9
$MENU
  1
acad
  9
$ELEVATION
 40
0.0
  9
$PELEVATION
 40
0.0
  9
$THICKNESS
 40
0.0
  9
$LIMCHECK
 70
     0
  9
$BLIPMODE
 70
     1
  9
$CHAMFERA
 40
0.0
  9
$CHAMFERB
 40
0.0
  9
$SKPOLY
 70
     0
  9
$TDCREATE
 40
2449408.790375509
  9
$TDUPDATE
 40
2449408.790375509
  9
$TDINDWG
 40
0.0000000000
  9
$TDUSRTIMER
 40
0.0000000000
  9
$USRTIMER
 70
     1
  9
$ANGBASE
 50
0.0
  9
$ANGDIR
 70
     0
  9
$PDMODE
 70
     0
  9
$PDSIZE
 40
0.0
  9
$PLINEWID
 40
0.0
  9
$COORDS
 70
     1
  9
$SPLFRAME
 70
     0
  9
$SPLINETYPE
 70
     6
  9
$SPLINESEGS
 70
     8
  9
$ATTDIA
 70
     0
  9
$ATTREQ
 70
     1
  9
$HANDLING
 70
     1
  9
$HANDSEED
  5
4C
  9
$SURFTAB1
 70
     6
  9
$SURFTAB2
 70
     6
  9
$SURFTYPE
 70
     6
  9
$SURFU
 70
     6
  9
$SURFV
 70
     6
  9
$UCSNAME
  2

  9
$UCSORG
 10
0.0
 20
0.0
 30
0.0
  9
$UCSXDIR
 10
1.0
 20
0.0
 30
0.0
  9
$UCSYDIR
 10
0.0
 20
1.0
 30
0.0
  9
$PUCSNAME
  2

  9
$PUCSORG
 10
0.0
 20
0.0
 30
0.0
  9
$PUCSXDIR
 10
1.0
 20
0.0
 30
0.0
  9
$PUCSYDIR
 10
0.0
 20
1.0
 30
0.0
  9
$USERI1
 70
     0
  9
$USERI2
 70
     0
  9
$USERI3
 70
     0
  9
$USERI4
 70
     0
  9
$USERI5
 70
     0
  9
$USERR1
 40
0.0
  9
$USERR2
 40
0.0
  9
$USERR3
 40
0.0
  9
$USERR4
 40
0.0
  9
$USERR5
 40
0.0
  9
$WORLDVIEW
 70
     1
  9
$SHADEDGE
 70
     3
  9
$SHADEDIF
 70
    70
  9
$TILEMODE
 70
     1
  9
$MAXACTVP
 70
    16
  9
$PINSBASE
 10
0.0
 20
0.0
 30
0.0
  9
$PLIMCHECK
 70
     0
  9
$PEXTMIN
 10
1.000000E+20
 20
1.000000E+20
 30
1.000000E+20
  9
$PEXTMAX
 10
-1.000000E+20
 20
-1.000000E+20
 30
-1.000000E+20
  9
$PLIMMIN
 10
0.0
 20
0.0
  9
$PLIMMAX
 10
12.0
 20
9.0
  9
$UNITMODE
 70
     0
  9
$VISRETAIN
 70
     0
  9
$PLINEGEN
 70
     0
  9
$PSLTSCALE
 70
     1
  9
$TREEDEPTH
 70
  3020
  9
$DWGCODEPAGE
  3
ascii
  0
ENDSEC
  0
SECTION
  2
TABLES
  0
TABLE
  2
VPORT
 70
     2
  0
VPORT
  2
*ACTIVE
 70
     0
 10
0.0
 20
0.0
 11
1.0
 21
1.0
 12
7.176972
 22
4.5
 13
0.0
 23
0.0
 14
1.0
 24
1.0
 15
0.0
 25
0.0
 16
0.0
 26
0.0
 36
1.0
 17
0.0
 27
0.0
 37
0.0
 40
9.0
 41
1.594883
 42
50.0
 43
0.0
 44
0.0
 50
0.0
 51
0.0
 71
     0
 72
   100
 73
     1
 74
     1
 75
     0
 76
     0
 77
     0
 78
     0
  0
ENDTAB
  0
TABLE
  2
LTYPE
 70
     1
  0
LTYPE
  2
CONTINUOUS
 70
    64
  3
Solid line
 72
    65
 73
     0
 40
0.0
  0
ENDTAB
  0
TABLE
  2
LAYER
 70
     2
  0
LAYER
  2
0
 70
    64
 62
     7
  6
CONTINUOUS
  0
LAYER
  2
AME_FRZ
 70
    65
 62
     7
  6
CONTINUOUS
  0
ENDTAB
  0
TABLE
  2
STYLE
 70
     1
  0
STYLE
  2
STANDARD
 70
     0
 40
0.0
 41
1.0
 50
0.0
 71
     0
 42
0.2
  3
txt
  4

  0
ENDTAB
  0
TABLE
  2
VIEW
 70
     0
  0
ENDTAB
  0
TABLE
  2
UCS
 70
     0
  0
ENDTAB
  0
TABLE
  2
APPID
 70
     3
  0
APPID
  2
ACAD
 70
    64
  0
APPID
  2
AME_SOL
 70
    64
  0
APPID
  2
AVE_INVOKE
 70
    64
  0
ENDTAB
  0
TABLE
  2
DIMSTYLE
 70
     0
  0
ENDTAB
  0
ENDSEC
  0
SECTION
  2
BLOCKS
  0
BLOCK
  8
0
  5
1
  2
AME_NIL
 70
    64
 10
0.0
 20
0.0
 30
0.0
  1
AME_NIL
  3
AME_NIL
  0
ENDBLK
  8
0
  5
2
  0
BLOCK
  8
0
  5
4
  2
AME_SOL
 70
    64
 10
0.0
 20
0.0
 30
0.0
  1
AME_SOL
  3
AME_SOL
  0
ENDBLK
  8
0
  5
5
  0
BLOCK
  8
0
  5
25
  2
*U4
 70
    65
 10
0.0
 20
0.0
 30
0.0
  1
*U
  3
*U
  0
LINE
  8
0
 62
     7
  5
26
 10
8.0
 20
4.0
 30
0.0
 11
8.0
 21
4.0
 31
4.0
1001
AME_SOL
1070
     1
1071
       39
  0
LINE
  8
0
 62
     7
  5
27
 10
8.0
 20
4.0
 30
4.0
 11
8.0
 21
0.0
 31
4.0
1001
AME_SOL
1070
     1
1071
       38
  0
LINE
  8
0
 62
     7
  5
28
 10
0.0
 20
4.0
 30
4.0
 11
8.0
 21
4.0
 31
4.0
1001
AME_SOL
1070
     1
1071
       37
  0
LINE
  8
0
 62
     7
  5
29
 10
0.0
 20
4.0
 30
0.0
 11
0.0
 21
4.0
 31
4.0
1001
AME_SOL
1070
     1
1071
       36
  0
LINE
  8
0
 62
     7
  5
2A
 10
0.0
 20
4.0
 30
4.0
 11
0.0
 21
0.0
 31
4.0
1001
AME_SOL
1070
     1
1071
       35
  0
LINE
  8
0
 62
     7
  5
2B
 10
0.0
 20
0.0
 30
0.0
 11
0.0
 21
0.0
 31
4.0
1001
AME_SOL
1070
     1
1071
       34
  0
LINE
  8
0
 62
     7
  5
2C
 10
8.0
 20
0.0
 30
4.0
 11
8.0
 21
0.0
 31
0.0
1001
AME_SOL
1070
     1
1071
       33
  0
LINE
  8
0
 62
     7
  5
2D
 10
0.0
 20
0.0
 30
4.0
 11
8.0
 21
0.0
 31
4.0
1001
AME_SOL
1070
     1
1071
       32
  0
LINE
  8
0
 62
     7
  5
2E
 10
0.0
 20
0.0
 30
0.0
 11
8.0
 21
0.0
 31
0.0
1001
AME_SOL
1070
     1
1071
       31
  0
LINE
  8
0
 62
     7
  5
2F
 10
0.0
 20
4.0
 30
0.0
 11
0.0
 21
0.0
 31
0.0
1001
AME_SOL
1070
     1
1071
       30
  0
LINE
  8
0
 62
     7
  5
30
 10
8.0
 20
0.0
 30
0.0
 11
8.0
 21
4.0
 31
0.0
1001
AME_SOL
1070
     1
1071
       29
  0
LINE
  8
0
 62
     7
  5
31
 10
8.0
 20
4.0
 30
0.0
 11
0.0
 21
4.0
 31
0.0
1001
AME_SOL
1070
     1
1071
       28
  0
LINE
  8
0
 62
     7
  5
32
 10
3.5
 20
0.0
 30
3.0
 11
0.5
 21
0.0
 31
3.0
1001
AME_SOL
1070
     1
1071
       27
  0
LINE
  8
0
 62
     7
  5
33
 10
0.0
 20
0.5
 30
3.0
 11
0.0
 21
3.5
 31
3.0
1001
AME_SOL
1070
     1
1071
       26
  0
LINE
  8
0
 62
     7
  5
34
 10
0.5
 20
4.0
 30
3.0
 11
3.5
 21
4.0
 31
3.0
1001
AME_SOL
1070
     1
1071
       25
  0
LINE
  8
0
 62
     7
  5
35
 10
0.5
 20
0.0
 30
1.0
 11
3.5
 21
0.0
 31
1.0
1001
AME_SOL
1070
     1
1071
       24
  0
LINE
  8
0
 62
     7
  5
36
 10
0.0
 20
3.5
 30
1.0
 11
0.0
 21
0.5
 31
1.0
1001
AME_SOL
1070
     1
1071
       23
  0
LINE
  8
0
 62
     7
  5
37
 10
3.5
 20
4.0
 30
1.0
 11
0.5
 21
4.0
 31
1.0
1001
AME_SOL
1070
     1
1071
       22
  0
ARC
  8
0
 62
     7
  5
38
 10
2.0
 20
2.0
 30
1.0
 40
2.5
 50
126.869898
 51
143.130102
1001
AME_SOL
1070
     1
1071
       21
  0
ARC
  8
0
 62
     7
  5
39
 10
2.0
 20
2.0
 30
1.0
 40
2.5
 50
306.869898
 51
53.130102
1001
AME_SOL
1070
     1
1071
       20
  0
ARC
  8
0
 62
     7
  5
3A
 10
2.0
 20
2.0
 30
1.0
 40
2.5
 50
216.869898
 51
233.130102
1001
AME_SOL
1070
     1
1071
       19
  0
LINE
  8
0
 62
     7
  5
3B
 10
0.5
 20
0.0
 30
1.0
 11
0.5
 21
0.0
 31
3.0
1001
AME_SOL
1070
     1
1071
       18
  0
LINE
  8
0
 62
     7
  5
3C
 10
3.5
 20
0.0
 30
1.0
 11
3.5
 21
0.0
 31
3.0
1001
AME_SOL
1070
     1
1071
       17
  0
LINE
  8
0
 62
     7
  5
3D
 10
0.0
 20
0.5
 30
1.0
 11
0.0
 21
0.5
 31
3.0
1001
AME_SOL
1070
     1
1071
       16
  0
LINE
  8
0
 62
     7
  5
3E
 10
0.0
 20
3.5
 30
1.0
 11
0.0
 21
3.5
 31
3.0
1001
AME_SOL
1070
     1
1071
       15
  0
LINE
  8
0
 62
     7
  5
3F
 10
3.5
 20
4.0
 30
1.0
 11
3.5
 21
4.0
 31
3.0
1001
AME_SOL
1070
     1
1071
       14
  0
LINE
  8
0
 62
     7
  5
40
 10
0.5
 20
4.0
 30
1.0
 11
0.5
 21
4.0
 31
3.0
1001
AME_SOL
1070
     1
1071
       13
  0
ARC
  8
0
 62
     7
  5
41
 10
2.0
 20
2.0
 30
3.0
 40
2.5
 50
126.869898
 51
143.130102
1001
AME_SOL
1070
     1
1071
       12
  0
ARC
  8
0
 62
     7
  5
42
 10
2.0
 20
2.0
 30
3.0
 40
2.5
 50
306.869898
 51
53.130102
1001
AME_SOL
1070
     1
1071
       11
  0
ARC
  8
0
 62
     7
  5
43
 10
2.0
 20
2.0
 30
3.0
 40
2.5
 50
216.869898
 51
233.130102
1001
AME_SOL
1070
     1
1071
       10
  0
LINE
  8
0
 62
     7
  5
44
 10
4.5
 20
2.0
 30
1.0
 11
4.5
 21
2.0
 31
3.0
1001
AME_SOL
1070
     0
1071
        1
  0
ENDBLK
  8
0
  5
45
  0
BLOCK
  8
0
  5
49
  2
AME_JNK
 70
     0
 10
0.0
 20
0.0
 30
0.0
  1
AME_JNK
  3
AME_JNK
  0
ENDBLK
  8
0
  5
4A
  0
ENDSEC
  0
SECTION
  2
ENTITIES
  0
INSERT
  8
AME_FRZ
  5
3
  2
AME_NIL
 10
0.0
 20
0.0
 30
0.0
  0
INSERT
  8
AME_FRZ
  5
6
  2
AME_SOL
 10
0.0
 20
0.0
 30
0.0
1001
AME_SOL
1000
R2.1
1000
AME2
1000
sq cm
1070
     3
1070
     0
1070
     3
1000
wire
1040
45.0
1000
U
1040
1.0
1000
cm
1000
gm
1000
MILD_STEEL
1070
    25
1000
CSG
1070
     1
1070
     3
1070
     3
1070
     3
1070
     0
1000
cu cm
1070
     1
1070
     0
1005
3
  0
INSERT
  8
AME_FRZ
  5
15
  2
AME_NIL
 10
0.0
 20
0.0
 30
0.0
1001
AME_SOL
1002
{
1070
     1
1071
  2388864
1070
  1536
1070
     1
1010
8.0
1020
4.0
1030
4.0
1005
0
1005
0
1005
46
1040
0.0
1040
1.0
1070
     0
1000
MILD_STEEL
1000
0
1010
0.0
1020
0.0
1030
0.0
1010
0.0
1020
0.0
1030
1.0
1040
0.0
1002
}
1001
AVE_INVOKE
1000
SOLAVEMESH
  0
INSERT
  8
AME_FRZ
  5
21
  2
AME_NIL
 10
2.0
 20
2.0
 30
1.0
1001
AME_SOL
1002
{
1070
     1
1071
  2403536
1070
  1538
1070
     1
1010
2.5
1020
2.5
1030
2.0
1005
0
1005
0
1005
46
1040
0.0
1040
1.0
1070
     0
1000
MILD_STEEL
1000
0
1010
2.0
1020
2.0
1030
1.0
1010
0.0
1020
0.0
1030
1.0
1040
0.0
1002
}
1001
AVE_INVOKE
1000
SOLAVEMESH
  0
INSERT
  8
0
  5
46
  2
*U4
 10
0.0
 20
0.0
 30
0.0
1001
AME_SOL
1002
{
1070
     1
1071
  2422256
1070
  1543
1070
     1
1070
     0
1005
15
1005
21
1005
0
1005
47
1005
0
1040
0.0
1040
1.0
1070
     0
1000
MILD_STEEL
1000
0
1002
}
1001
AVE_INVOKE
1000
SOLAVEMESH
  0
INSERT
  8
AME_FRZ
  5
47
  2
AME_NIL
 10
1.0
 20
1.0
 30
1.0
1001
AME_SOL
1004
C7CF010009018401830181017D0176016901A000FE006A017F005C014B0198006B00960077016B015D0124004C0188005F0050006C0184005E014D013701A200ED00040005007E0178016D01180028006E0125005F014E014E00380125011F0007000F004F0108006800FF0082017F0179016F0160015001
1004
39019C00D9003A01EF002601FD001C010E01620078004D005101EE00A400610152013B01DF00A800C00075007001620153013C0106002701850017003D012801F900BE0029015100920054013E012A0161007A002B01AC00B6003F012C01BB0044002D01E1001D010F012D002E0010012F003000BF007A01
1004
400071016301550140012E011E0111013200B4001201480070001F011301C80058001401BC00B8002F0120011501010109000001020119001C00160103011D001E00040121002200210117010501230026000601F7002900180107012A002B0008012C00330012000C006401560141016900670042013001
1004
2201190109013400E8000A01D800CB001A010B01CA0052000C01A9006E006C0031013100F2005701430132016A00DA00030044013800AF0080017B017201F00065010A0014007301660158012000EB00590145013301EA00FB00FA00460163009F0001007C017401670110005A01470134018C005D003501
1004
72005E004801E70036012301F500F30024011B010D016D00C9003500F8003F0075010200680180005B0149016000FC004A01A300E00000006A17AD42F574CD4B77E999EBA558D2C42DF6BBE6A9B5857FA6D77CD536B0AFF4DE24004C81936489375203DA14CC53096B25953314C25AC9C29BED4AEEB6D77C
1004
D536B0AFF4DAEF9AA6D615FE9BF021F402FD04EB314C25AC9654CC53096B25951200264332E5376A0B04821133DBAE8FB5059FEC3BFFFFFFFB0EFFFF57F57EC3A3FF8EABF1D57FFFFFB5059FEC3BFFFFFFFB0EFFFF57F57EC3A3FF8EABF1D57FFFFEC2683DA85EF0E8FFD877FFFFFFF61DFF04CCCCD10993
1004
FABF61D7AE534B9243F9C872D10E534B9243F9C872C4DBFE83DA87B8747FEC3BFFFFFFFB0EFFAF2666666E8266666884FF61D7AE534B9243F9C872D10E534B9243F9C872C4DBFE83DA86F8747FEC3BFFFFFFFB0EFFFEB2AFEAFD875EB94D2E490FE721CB44394D2E490FE721CB13F7BFEC27FFFD4DFCB94F
1004
7729A5C921FCE439688FD84DBF9729CA6972487F390E589B7FFFFA9EB9E999B9E999B7FFFFA907B51E1D1FFB0EFFFFFFFEC3BFEBC999999BBFACABF61D7AE534B9243F9C872D10E534B9243F9C872C4DBFED4AEE90B5DF354DAC2BFD36BBE6A9B5857FA6FC087D00BF413ACC53096B25953314C25AC96542
1004
A90635D8961D6E3163E1C0899EDD749C62CFF61DFFFFFEFBF613FEFBFABFABF61D1FFFFFFFFFFF18B3FD877FFFFFBEFD84FFBEFEAFEAFD8747FFFFFFFFFF6136A577485AEF9AA6D615FE9B5DF354DAC2BFD35E44DBB99A4B553314C25AC9654CC53096B25951200264332E53718B031FC2267B773CF18B3F
1004
D877FFFFFFF61DFFFEAFEAFCB943FFFFFFFFFFE3167FB0EFFFFFFFEC3BFFFD5FD4DFCB943FFFFFFFFFFB09B52BB8EDE24004C819378900132064DE24004C81936489375203DA14CC53096B270A789001320675B8C58D0B92ADF6EB00DE3167FFFB0EFFFEC3BFFFFFFFFFE3FFFFFFFFFFE3167FFFB0EFFFEC
1004
3BFFFFFFFFFE3FFFFFFFFFFB0EB52BB975E24004C819378900132064DE24004C81936489375203DA14F12002640CEB314C25AC9C29B8C58BE2F2ADF6EBB378C59FEC3BFFFFFFFFFB0EFFFFFF8FFFFFFFFFFF8C59FEC3BFFFFFFFFFB0EFFFFFF8FFFFFFFFFFEC3AD4AEE5D78900132064DE24004C81937890
1004
0132064DE24004C819D662984B593853314C25AC9C29B8C582AE0AB7DBA5FB78C59FFFFFEC3BFFFB0EFFFFFFFF8FFFFFFFFFFF8C59FFFFFEC3BFFFB0EFFFFFFFF8FFFFFFFFFFEC3AD4AEE3B78900132064DE24004C81934089B7733496D4C9126EA407B42998A612D64E14CC53096B270A6E31617AF055BE
1004
DD2F9BC62CFF613FEFBFBEFEFBF613FEFBF6857EE15FB850FFFFFFFFFFF8C59FEC27FDF7F7DFDF7EC27FDF7ED0AFDC2BF70A1FFFFFFFFFFD875A95DCBAF12002640C9A044DBB99A4B6A78900132064D9224DD480F6853314C25AC9C2998A612D64E14DC62C7C1A55BEDD2F5BC62CFFBEFEFBF613FD84FFBE
1004
FEFBF6857EE15FB850FFFFFFFFFFF8C59FF7DFDF7EC27FB09FF7DFDF7ED0AFDC2BF70A1FFFFFFFFFFD875A95DC76395FDF39D7385A29E24004C819378900132064D9224DD480F6853314C25AC9C2998A612D64E14DC62C0C5D4AB7DBA5E378C59FF7DFB09FF7DFDF7F7DFB09FED0AFDC2BF70A1FFFFFFFFF
1004
FF18B3FEFBF613FEFBFBEFEFBF613FDA15FB857EE143FFFFFFFFFFB0EA1A135DF354DAC2BFD36BBE6A9B5857FA6BC89B7733496AA662984B592CA998A612D64B2A24004C8665CA7E2449486A46FD5EA2A5A92B4A4E97256DA2BD7EA358441C2BB73312084431FC23BD0C7F0889042266666666FD47FEC3BF
1004
FFFFFFB0EFFFF57F537F2E50EFF1D57E3AA7E2449486A46FD5EA2A5A92B4A4E97256DA2A1A135DF354DAC2BFD36BBE6A9B5857FA6BC89B7733496AA662984B592CA998A612D64B2A24004C8665CA4992C4A07AE52A1CA693258940F5CA543975EBF51BFDCF0576E6624108863F8477A18FE11120844CCCCC
1004
CCDFA8FFD877FFFFFFF61DFFFEAFEA6FE5CA1DFE3AAFC75493258940F5CA54394D264B1281EB94A872EA1A135DF354DAC2BFD36BBE6A9B5857FA6BC89B7733496AA662984B592CA998A612D64B2A24004C8665CA4B5256949D2E4ADB53F1224A435237EAF54F5FA8D85D395DB9989042218FE11DE863F844
1004
48211333333337EA3FF61DFFFFFFFD877FFFABFA9BF972877F8EABF1D525A92B4A4E97256DA9F8912521A91BF57AA434278900132064D0226DDCCD25B53F021F402FD04EB314C25AC9654CC53096B270A24004C8665CAFF6FF53D0E8DC2C195DB99890422F834AEF5F0695120845BE66661D1FFB0EFFFFFF
1004
FEC3BFE3BF7FBBFB857EC3AF7FDBFD48684F12002640C9A044DBB99A4B6A7E043E805FA09D662984B592CA998A612D64E144800990CCB95FEDFEA7A1D192B132B99B7120845F0695DE890422F834A9999B7C3A3FF61DFFFFFFFD877FFF5AAFDC2BF61D7BFEDFEA434278900132064DE24004C81937E043E8
1004
05FA09D78900132067598A612D64E144800990CCB95FEDFEA7A1D1AF962857336E241088AB82BBD12084455C1533336F8747FEC3BFFFFFFFB0EFFFFFEB55FB0EBDFF6FF521A13C4800990326F12002640C9BF021F402FD04EBC480099033ACC53096B270A24004C8665CAFF6FF53D0E8D60962A576E66241
1004
088AB82BBD157054482116F99998747FEC3BFFFFFFFB0EFFFFBDF7FBBFB0EBDFF6FF521A13C4800990326F12002640C9BF021F402FD04EB314C25AC9654F12002640CE9200264332E57FB7FA9E8746B0A5A15DB99890422BE2F2BBD5F1795120845BE66661D1FFB0EFFFFFFFEC3BFFFAD57EB02B0DFB0EBD
1004
FF6FF521A13C4800990326F12002640C9BF021F402FD04EB314C25AC9654F12002640CE9200264332E57FB7FA9E87465ED057336E24108AF8BCAEF4482115F179533336F8747FEC3BFFFFFFFB0EFF8EFDFEEFEB02B0DFB0EBDFF6FF521A135DF354DAC2BFD36BBE6A9B5857FA6FC087D00BF413ACC53096B
1004
25953314C25AC96542A90635D8961D7E2449486A46FD5EA2A5A92B4A4E97256DA2BD7EA341D58B15CCDB890422F87023BD120845F0E044CCCCCCCDFA8FFD877FFFFFFF61DFFFEAFEAFD87477F8EABF1D53F1224A435237EAF5152D495A5274B92B6D150D09AEF9AA6D615FE9B5DF354DAC2BFD37E043E805
1004
FA09D662984B592CA998A612D64B2A154831AEC4B0EA4C962503D72950E534992C4A07AE52A1CBAF5FA8C3162E57336E24108BE1C08EF4482117C3811333333337EA3FF61DFFFFFFFD877FFFABFABF61D1DFE3AAFC75493258940F5CA54394D264B1281EB94A872EA1A135DF354DAC2BFD36BBE6A9B5857F
1004
A6FC087D00BF413ACC53096B25953314C25AC96542A90635D8961D4B5256949D2E4ADB53F1224A435237EAF54F5FA8D61D63057336E24108BE1C08EF4482117C3811333333337EA3FF61DFFFFFFFD877FFFABFABF61D1DFE3AAFC75496A4AD293A5C95B6A7E2449486A46FD5EA90D09E24004C81934089B7
1004
733496D4FC087D00BF413ACC53096B25953314C25AC9C285520C6BB12C3ADFDCFBBFACA9E8746BA210576E66F87022F834AEF5F06957C38116F99998747FFFEC3BFFFFFFFB09FECD5FB857EC3AF5BFB9F77F59521A13C4800990326F12002640C9BF021F402FD04EBC480099033ACC53096B270A154831AE
1004
C4B0E999999AF5152433333443AF43A35D094576E66F870222AE0AEF455C157C38116F99998747FEC27FFFFFFFFFB09FFFEC3BFB0EBD3333335EA2A486666688750D09E24004C819378900132064DF810FA017E827598A612D64B2A7890013206745520C6BB12C3A9219999A2133333335EA9E8746E7D632
1004
576E66F87022BE2F2BBD5F17957C38116F99998747FFFEC27FFFFFFFB09FEC3BFFFB0EBD490CCCCD109999999AF548684F12002640C9A044DBB99A4B6A5E44DBB99A4B553314C25AC9654CC53096B270A24004C8665CAFD6515BFB9F4DE87465C495DB99863F845F0695DEBE0D2A18FE116F99998747FFFE
1004
C3BFFFFFFFB0EFECD5FB8537F2E53DFD6515BFB9F4D0D09E24004C819378900132064D79136EE6692D54F12002640CEB314C25AC9C2890013219972924333334426666666BD53D0E8C858D95DB99863F84455C15DE8AB82A18FE116F99998747FEC27FFFFFFFFFB0EFFFEC3ADFCB94F52433333442666666
1004
6BD521A13C4800990326F12002640C9AF226DDCCD25AA998A612D64B2A789001320674900132199728CCCCCD7A8A9219999A21D7A1D192B1C2BB7330C7F08AF8BCAEF57C5E5431FC22DF33330E8FFFFD84FFFFFFFF61DFD877FDBF9729E999999AF5152433333443A8684F12002640C9A044DBB99A4B6A78
1004
900132064D9224DD480F6853314C25AC9C29E24004C819DFDC22FEE14F43A35F2C74AE66DDA17255F0695DEB42E4ABE0D2ADF6F8747FFFEC3BFFFFFFFB09FEE15FB857FBDFDC22FEE148684395FDF39D7385A29E24004C819378900132064D9224DD480F6853314C25AC9C29E24004C819DFE8BFD4F43A35
1004
8258F15CCDBB42E4A862EA577AD0B92A18BA956FB7C3A3FF61DFFFFFFFFFD84FF6857F57FBDFE8BFD48684F12002640C9BC4800990326F12002640C9BC480099033ACC53096B270A789001320677F708BFDF3D0E8D6152F0AE66DDA1725455C15DEB42E4A8AB82ADF6F8747FEC27FFFFFFFFFB09FFFFFFBD
1004
FDC22FF7C8684F12002640C9BC4800990326F12002640C9B2449BA901ED0A789001320675E24004C819DFFFDA14F43A32F4BD2B99B7685C955F1795DEB42E4AAF8BCAB7DBE1D1FFFFB09FFFFFFFEC27FFFFFEF7FFF68521A13C4800990326F12002640C9A044DBB99A4B6A6489375203DA14F12002640CEB
1004
314C25AC9C2BF708BFB853D0E8D0752F8AE66DD7C5E54BD782BBD5F17952F5E0AB7DBE1D1FFFFFFB0EFFFEC27FFFB857FFEE14F7F708BFB8521A10E57F7CE75CE168A78900132064DE24004C81936489375203DA14F12002640CEB314C25AC9C2BFA2FF53D0E8C492FCAE66DD7C5E5431752BBD5F17950C5
1004
D4AB7DBE1D1FFB0EFFFFFFFEC27FFFB42BFFFA9EFF45FEA434278900132064DE24004C819378900132064DE24004C819D78900132067598A612D64E15FFFB853D0E8C31762B99B75F17951570577ABE2F2A2AE0AB7DBE1D1FFB09FFFFFFFEC27FFFFFFFEF7FFF70A434278900132064DE24004C81934089B
1004
7733496D4F12002640CEB314C25AC9C2998A612D64E15FD17FA9E8746895802B99B7157054BD782BBD157054BD782ADF6F8747FFFFFEC3BFB09FFFFFFFF57EE14F7FA2FF521A13C480099032681136EE6692DA9E24004C819378900132067598A612D64E14CC53096B270AFE8BFD4F43A358758F95CCDB8A
1004
B82AF834AEF455C157C1A55BEDF0E8FFFFD877FFF613FFFFFFFDC2BFA9EFF45FEA434278900132064D0226DDCCD25B52044DBB99A4B6A6489375203DA14CC53096B270A662984B593857ED08BFDF3D0E8D61174057336E5EBC157C1A577A5EBC157C1A55BEDF0E8FFFFD877FFFFFFF61DFDA15FB857EE14F
1004
7F6845FEF90D0872BFBE73AE70B453C480099032681136EE6692DA99224DD480F6853314C25AC9C2998A612D64E15FFFB853D0E8DCFB9E95CCDB97AF05431752BBD2F5E0A862EA55BEDF0E8FFD877FFFFFBEFFFD877F6857EE15FB853DFFFDC290D0872BFBE73AE70B452044DBB99A4B6A78900132064D92
1004
24DD480F6853314C25AC9C2998A612D64E15FB845FEF9E8746F960CAE66DDF06950C5D4AEF5F06950C5D4AB7DBE1D1FFB0EFFFFFFFEC3BFFFB42BF70AFDC29EFEE117FBE5893F56232
1005
48
  0
INSERT
  8
AME_FRZ
  5
48
  2
AME_NIL
 10
1.0
 20
1.0
 30
1.0
1001
AME_SOL
1004

1005
0
  0
ENDSEC
  0
EOF
