600 0 2 0           
34 FBMach with ACIS3D/Toolkit - 6.0.3 13 ACIS 6.0.3 NT 24 Mon Apr 16 12:26:26 2001 
1 9.9999999999999995e-007 1e-010 
body $2 $3 $-1 $4 #
bdycol-kcp $-1 1 13 $5 $6 $7 $8 $9 $10 $11 $12 $13 $14 $15 $16 $17 #
model_id-kcp-attrib $-1 $-1 $-1 $0 1 987438381 171 -726990847 1 #
lump $-1 $-1 $18 $0 #
transform $-1 1 0 0 0 1 0 0 0 1 0 0 0 1 no_rotate no_reflect no_shear #
body $19 $20 $-1 $21 #
body $22 $23 $-1 $24 #
body $25 $26 $-1 $27 #
body $28 $29 $-1 $30 #
body $31 $32 $-1 $33 #
body $34 $35 $-1 $36 #
body $37 $38 $-1 $39 #
body $40 $41 $-1 $42 #
body $43 $44 $-1 $45 #
body $46 $47 $-1 $48 #
body $49 $50 $-1 $51 #
body $52 $53 $-1 $54 #
body $55 $56 $-1 $57 #
shell $-1 $-1 $-1 $58 $-1 $3 #
model_id-kcp-attrib $-1 $-1 $-1 $5 1 987438381 187 -725942270 1 #
lump $-1 $-1 $59 $5 #
transform $-1 1 0 0 0 1 0 0 0 1 -170.4724409448815 0 -379.72440944881896 1 no_rotate no_reflect no_shear #
rgb_color-st-attrib $-1 $60 $-1 $6 1 1 0.5 #
lump $-1 $-1 $61 $6 #
transform $-1 1 0 0 0 -1 0 0 0 -1 -142.51968503936999 0 -375.23079011675281 1 rotate no_reflect no_shear #
rgb_color-st-attrib $-1 $62 $-1 $7 1 1 0.5 #
lump $-1 $-1 $63 $7 #
transform $-1 1 0 0 0 -1 0 0 0 -1 -161.023622047244 0 -375.23079011675281 1 rotate no_reflect no_shear #
rgb_color-st-attrib $-1 $64 $-1 $8 1 1 0.5 #
lump $-1 $-1 $65 $8 #
transform $-1 1 0 0 0 -1 0 0 0 -1 -179.92125984251999 0 -375.23079011675281 1 rotate no_reflect no_shear #
rgb_color-st-attrib $-1 $66 $-1 $9 1 1 0.5 #
lump $-1 $-1 $67 $9 #
transform $-1 1 0 0 0 -1 0 0 0 -1 -198.425196850394 0 -375.23079011675281 1 rotate no_reflect no_shear #
rgb_color-st-attrib $-1 $68 $-1 $10 0.5 1 1 #
lump $-1 $-1 $69 $10 #
transform $-1 -1 0 -1.2246063538223773e-016 0 1 0 1.2246063538223773e-016 0 -1 -142.51968503936999 0 -375.59055118110246 1 rotate no_reflect no_shear #
rgb_color-st-attrib $-1 $70 $-1 $11 0.5 1 1 #
lump $-1 $-1 $71 $11 #
transform $-1 -1 0 -1.2246063538223773e-016 0 1 0 1.2246063538223773e-016 0 -1 -161.023622047244 0 -375.59055118110246 1 rotate no_reflect no_shear #
rgb_color-st-attrib $-1 $72 $-1 $12 0.5 1 1 #
lump $-1 $-1 $73 $12 #
transform $-1 -1 0 -1.2246063538223773e-016 0 1 0 1.2246063538223773e-016 0 -1 -179.92125984251999 0 -375.59055118110246 1 rotate no_reflect no_shear #
rgb_color-st-attrib $-1 $74 $-1 $13 0.5 1 1 #
lump $-1 $-1 $75 $13 #
transform $-1 -1 0 -1.2246063538223773e-016 0 1 0 1.2246063538223773e-016 0 -1 -198.425196850394 0 -375.59055118110246 1 rotate no_reflect no_shear #
rgb_color-st-attrib $-1 $76 $-1 $14 0.5 1 1 #
lump $-1 $-1 $77 $14 #
transform $-1 1 0 0 0 1 0 0 0 1 -170.47244094488201 -15.748031496063 -382.0866141732285 1 no_rotate no_reflect no_shear #
rgb_color-st-attrib $-1 $78 $-1 $15 0.5 1 1 #
lump $-1 $-1 $79 $15 #
transform $-1 1 0 0 0 1 0 0 0 1 -170.47244094488201 -15.748031496063 -373.62204724409446 1 no_rotate no_reflect no_shear #
rgb_color-st-attrib $-1 $80 $-1 $16 0.5 1 1 #
lump $-1 $-1 $81 $16 #
transform $-1 1 0 0 0 1 0 0 0 1 -170.47244094488201 15.748031496063 -382.0866141732285 1 no_rotate no_reflect no_shear #
rgb_color-st-attrib $-1 $82 $-1 $17 0.5 1 1 #
lump $-1 $-1 $83 $17 #
transform $-1 1 0 0 0 1 0 0 0 1 -170.47244094488201 15.748031496063 -373.62204724409446 1 no_rotate no_reflect no_shear #
face $84 $85 $86 $18 $-1 $87 reversed single #
shell $-1 $-1 $-1 $88 $-1 $20 #
model_id-kcp-attrib $-1 $-1 $22 $6 1 987438381 390 -729415677 1 #
shell $-1 $-1 $-1 $89 $-1 $23 #
model_id-kcp-attrib $-1 $-1 $25 $7 1 987438381 406 -728367100 1 #
shell $-1 $-1 $-1 $90 $-1 $26 #
model_id-kcp-attrib $-1 $-1 $28 $8 1 987438381 421 -727384059 1 #
shell $-1 $-1 $-1 $91 $-1 $29 #
model_id-kcp-attrib $-1 $-1 $31 $9 1 987438381 437 -726335482 1 #
shell $-1 $-1 $-1 $92 $-1 $32 #
model_id-kcp-attrib $-1 $-1 $34 $10 1 987438381 2296 -721944569 1 #
shell $-1 $-1 $-1 $93 $-1 $35 #
model_id-kcp-attrib $-1 $-1 $37 $11 1 987438381 2328 -736624632 1 #
shell $-1 $-1 $-1 $94 $-1 $38 #
model_id-kcp-attrib $-1 $-1 $40 $12 1 987438381 2375 -733544439 1 #
shell $-1 $-1 $-1 $95 $-1 $41 #
model_id-kcp-attrib $-1 $-1 $43 $13 1 987438381 2406 -731512822 1 #
shell $-1 $-1 $-1 $96 $-1 $44 #
model_id-kcp-attrib $-1 $-1 $46 $14 1 987438381 2437 -729481205 1 #
shell $-1 $-1 $-1 $97 $-1 $47 #
model_id-kcp-attrib $-1 $-1 $49 $15 1 987438381 2468 -727449588 1 #
shell $-1 $-1 $-1 $98 $-1 $50 #
model_id-kcp-attrib $-1 $-1 $52 $16 1 987438381 2484 -726401011 1 #
shell $-1 $-1 $-1 $99 $-1 $53 #
model_id-kcp-attrib $-1 $-1 $55 $17 1 987438381 2500 -725352434 1 #
shell $-1 $-1 $-1 $100 $-1 $56 #
model_id-kcp-attrib $-1 $-1 $-1 $58 1 987438381 171 -726990847 2 #
face $101 $102 $103 $18 $-1 $104 reversed single #
loop $-1 $105 $106 $58 #
cone-surface $-1 -142.51968503936999 0 -377.16535433070902 0 0 1 1.9685039370078701 0 0 1 I I 0.69502209684747496 0.71898837604911203 1.9685039370078701 forward I I I I #
face $107 $108 $109 $59 $-1 $110 forward single #
face $-1 $111 $112 $61 $-1 $113 reversed single #
face $-1 $114 $115 $63 $-1 $116 reversed single #
face $-1 $117 $118 $65 $-1 $119 reversed single #
face $-1 $120 $121 $67 $-1 $122 reversed single #
face $-1 $123 $124 $69 $-1 $125 forward single #
face $-1 $126 $127 $71 $-1 $128 forward single #
face $-1 $129 $130 $73 $-1 $131 forward single #
face $-1 $132 $133 $75 $-1 $134 forward single #
face $-1 $135 $136 $77 $-1 $137 forward single #
face $-1 $138 $139 $79 $-1 $140 forward single #
face $-1 $141 $142 $81 $-1 $143 forward single #
face $-1 $144 $145 $83 $-1 $146 forward single #
model_id-kcp-attrib $-1 $-1 $-1 $85 1 987438381 171 -726990847 3 #
face $147 $148 $149 $18 $-1 $150 reversed single #
loop $-1 $-1 $151 $85 #
plane-surface $-1 -142.51968503936999 0 -379.92125984251999 0 0 -1 -1 0 0 forward_v I I I I #
loop $-1 $-1 $152 $58 #
coedge $-1 $106 $106 $153 $154 forward $86 $-1 #
model_id-kcp-attrib $-1 $-1 $-1 $88 1 987438381 187 -725942270 2 #
face $155 $156 $157 $59 $-1 $158 reversed single #
loop $-1 $-1 $159 $88 #
plane-surface $-1 0 0 8.4645669291340084 0 0 1 1 0 0 forward_v I I I I #
face $-1 $160 $161 $61 $-1 $162 forward single #
loop $-1 $163 $164 $89 #
cone-surface $-1 0 0 0 0 0 1 1.9685039370078701 0 0 1 I I 0 1 1.9685039370078701 forward I I I I #
face $-1 $165 $166 $63 $-1 $167 forward single #
loop $-1 $168 $169 $90 #
cone-surface $-1 0 0 0 0 0 1 1.9685039370078701 0 0 1 I I 0 1 1.9685039370078701 forward I I I I #
face $-1 $170 $171 $65 $-1 $172 forward single #
loop $-1 $173 $174 $91 #
cone-surface $-1 0 0 0 0 0 1 1.9685039370078701 0 0 1 I I 0 1 1.9685039370078701 forward I I I I #
face $-1 $175 $176 $67 $-1 $177 forward single #
loop $-1 $178 $179 $92 #
cone-surface $-1 0 0 0 0 0 1 1.9685039370078701 0 0 1 I I 0 1 1.9685039370078701 forward I I I I #
face $-1 $180 $181 $69 $-1 $182 forward single #
loop $-1 $183 $184 $93 #
cone-surface $-1 0 0 0 0 0 1 1.9685039370078701 0 0 1 I I 0 1 1.9685039370078701 forward I I I I #
face $-1 $185 $186 $71 $-1 $187 forward single #
loop $-1 $188 $189 $94 #
cone-surface $-1 0 0 0 0 0 1 1.9685039370078701 0 0 1 I I 0 1 1.9685039370078701 forward I I I I #
face $-1 $190 $191 $73 $-1 $192 forward single #
loop $-1 $193 $194 $95 #
cone-surface $-1 0 0 0 0 0 1 1.9685039370078701 0 0 1 I I 0 1 1.9685039370078701 forward I I I I #
face $-1 $195 $196 $75 $-1 $197 forward single #
loop $-1 $198 $199 $96 #
cone-surface $-1 0 0 0 0 0 1 1.9685039370078701 0 0 1 I I 0 1 1.9685039370078701 forward I I I I #
face $-1 $200 $201 $77 $-1 $202 forward single #
loop $-1 $203 $204 $97 #
cone-surface $-1 0 0 0 0 0 1 2.7559055118110201 0 0 1 I I 0 1 2.7559055118110201 forward I I I I #
face $-1 $205 $206 $79 $-1 $207 forward single #
loop $-1 $208 $209 $98 #
cone-surface $-1 0 0 0 0 0 1 4.3307086614173196 0 0 1 I I 0 1 4.3307086614173196 forward I I I I #
face $-1 $210 $211 $81 $-1 $212 forward single #
loop $-1 $213 $214 $99 #
cone-surface $-1 0 0 0 0 0 1 2.7559055118110201 0 0 1 I I 0 1 2.7559055118110201 forward I I I I #
face $-1 $215 $216 $83 $-1 $217 forward single #
loop $-1 $218 $219 $100 #
cone-surface $-1 0 0 0 0 0 1 4.3307086614173196 0 0 1 I I 0 1 4.3307086614173196 forward I I I I #
model_id-kcp-attrib $-1 $-1 $-1 $102 1 987438381 171 -726990847 4 #
face $220 $221 $222 $18 $-1 $223 reversed single #
loop $-1 $224 $225 $102 #
cone-surface $-1 -142.51968503936999 0 -377.16535433070902 0 0 -1 -1.9685039370078701 0 0 1 I I 0 1 1.9685039370078701 forward I I I I #
coedge $-1 $151 $151 $225 $226 forward $103 $-1 #
coedge $-1 $152 $152 $227 $228 forward $105 $-1 #
coedge $-1 $153 $153 $106 $154 reversed $229 $-1 #
edge $230 $231 0 $231 6.2831853071795862 $106 $232 forward 7 unknown #
model_id-kcp-attrib $-1 $-1 $-1 $108 1 987438381 187 -725942270 6 #
face $233 $234 $235 $59 $-1 $236 reversed single #
loop $-1 $-1 $237 $108 #
plane-surface $-1 0 0 -8.4645669291340084 0 0 1 1 0 0 forward_v I I I I #
coedge $-1 $238 $239 $240 $241 forward $109 $-1 #
face $-1 $-1 $242 $61 $-1 $243 forward single #
loop $-1 $244 $245 $111 #
cone-surface $-1 0 0 0 0 0 1 3.8385826771653551 0 0 1 I I -0.69502209684745697 0.71898837604912913 3.8385826771653551 forward I I I I #
loop $-1 $-1 $246 $89 #
coedge $-1 $164 $164 $245 $247 reversed $112 $-1 #
face $-1 $-1 $248 $63 $-1 $249 forward single #
loop $-1 $250 $251 $114 #
cone-surface $-1 0 0 0 0 0 1 3.8385826771653551 0 0 1 I I -0.69502209684745697 0.71898837604912913 3.8385826771653551 forward I I I I #
loop $-1 $-1 $252 $90 #
coedge $-1 $169 $169 $251 $253 reversed $115 $-1 #
face $-1 $-1 $254 $65 $-1 $255 forward single #
loop $-1 $256 $257 $117 #
cone-surface $-1 0 0 0 0 0 1 3.8385826771653551 0 0 1 I I -0.69502209684745697 0.71898837604912913 3.8385826771653551 forward I I I I #
loop $-1 $-1 $258 $91 #
coedge $-1 $174 $174 $257 $259 reversed $118 $-1 #
face $-1 $-1 $260 $67 $-1 $261 forward single #
loop $-1 $262 $263 $120 #
cone-surface $-1 0 0 0 0 0 1 3.8385826771653551 0 0 1 I I -0.69502209684745697 0.71898837604912913 3.8385826771653551 forward I I I I #
loop $-1 $-1 $264 $92 #
coedge $-1 $179 $179 $263 $265 reversed $121 $-1 #
face $-1 $-1 $266 $69 $-1 $267 forward single #
loop $-1 $-1 $268 $123 #
plane-surface $-1 0 0 -4.3307086614175034 0 0 -1 -1 0 0 forward_v I I I I #
loop $-1 $-1 $269 $93 #
coedge $-1 $184 $184 $268 $270 reversed $124 $-1 #
face $-1 $-1 $271 $71 $-1 $272 forward single #
loop $-1 $-1 $273 $126 #
plane-surface $-1 0 0 -4.3307086614175034 0 0 -1 -1 0 0 forward_v I I I I #
loop $-1 $-1 $274 $94 #
coedge $-1 $189 $189 $273 $275 reversed $127 $-1 #
face $-1 $-1 $276 $73 $-1 $277 forward single #
loop $-1 $-1 $278 $129 #
plane-surface $-1 0 0 -4.3307086614175034 0 0 -1 -1 0 0 forward_v I I I I #
loop $-1 $-1 $279 $95 #
coedge $-1 $194 $194 $278 $280 reversed $130 $-1 #
face $-1 $-1 $281 $75 $-1 $282 forward single #
loop $-1 $-1 $283 $132 #
plane-surface $-1 0 0 -4.3307086614175034 0 0 -1 -1 0 0 forward_v I I I I #
loop $-1 $-1 $284 $96 #
coedge $-1 $199 $199 $283 $285 reversed $133 $-1 #
face $-1 $-1 $286 $77 $-1 $287 forward single #
loop $-1 $-1 $288 $135 #
plane-surface $-1 0 0 -6.1023622047244999 0 0 -1 -1 0 0 forward_v I I I I #
loop $-1 $-1 $289 $97 #
coedge $-1 $204 $204 $288 $290 reversed $136 $-1 #
face $-1 $-1 $291 $79 $-1 $292 forward single #
loop $-1 $-1 $293 $138 #
plane-surface $-1 0 0 -2.3622047244095086 0 0 -1 -1 0 0 forward_v I I I I #
loop $-1 $-1 $294 $98 #
coedge $-1 $209 $209 $293 $295 reversed $139 $-1 #
face $-1 $-1 $296 $81 $-1 $297 forward single #
loop $-1 $-1 $298 $141 #
plane-surface $-1 0 0 -6.1023622047244999 0 0 -1 -1 0 0 forward_v I I I I #
loop $-1 $-1 $299 $99 #
coedge $-1 $214 $214 $298 $300 reversed $142 $-1 #
face $-1 $-1 $301 $83 $-1 $302 forward single #
loop $-1 $-1 $303 $144 #
plane-surface $-1 0 0 -2.3622047244095086 0 0 -1 -1 0 0 forward_v I I I I #
loop $-1 $-1 $304 $100 #
coedge $-1 $219 $219 $303 $305 reversed $145 $-1 #
model_id-kcp-attrib $-1 $-1 $-1 $148 1 987438381 171 -726990847 5 #
face $306 $307 $308 $18 $-1 $309 reversed single #
loop $-1 $310 $311 $148 #
cone-surface $-1 -161.023622047244 0 -377.16535433070902 0 0 1 1.9685039370078701 0 0 1 I I 0.69502209684747496 0.71898837604911203 1.9685039370078701 forward I I I I #
loop $-1 $-1 $227 $102 #
coedge $-1 $225 $225 $151 $226 reversed $149 $-1 #
edge $312 $313 0 $313 6.2831853071795862 $151 $314 forward 7 unknown #
coedge $-1 $227 $227 $152 $228 reversed $224 $-1 #
edge $315 $316 0 $316 6.2831853071795862 $152 $317 forward 7 unknown #
loop $-1 $318 $153 $319 #
attrib_edge_convexity-kcp-attrib $-1 $320 $-1 $154 1 #
vertex $-1 $154 $321 #
ellipse-curve $-1 -142.51968503936999 0 -371.25984251968498 0 0 1 7.6771653543307101 0 0 1 I I #
model_id-kcp-attrib $-1 $-1 $-1 $156 1 987438381 187 -725942270 3 #
face $322 $323 $324 $59 $-1 $325 reversed single #
loop $-1 $-1 $326 $156 #
plane-surface $-1 0 -23.6220472440945 0 0 1 0 0 0 1 forward_v I I I I #
coedge $-1 $327 $328 $329 $330 forward $157 $-1 #
coedge $-1 $331 $159 $332 $333 forward $109 $-1 #
coedge $-1 $159 $331 $334 $335 forward $109 $-1 #
coedge $-1 $336 $337 $159 $241 reversed $338 $-1 #
edge $-1 $339 -23.6220472440945 $340 23.6220472440945 $240 $341 forward 7 unknown #
loop $-1 $342 $343 $160 #
plane-surface $-1 0 0 -3.9709475970678056 0 0 -1 -1 0 0 forward_v I I I I #
loop $-1 $-1 $344 $111 #
coedge $-1 $245 $245 $164 $247 forward $161 $-1 #
coedge $-1 $246 $246 $343 $345 reversed $163 $-1 #
edge $-1 $346 -3.1415926535897931 $346 3.1415926535897931 $245 $347 forward 7 unknown #
loop $-1 $348 $349 $165 #
plane-surface $-1 0 0 -3.9709475970678056 0 0 -1 -1 0 0 forward_v I I I I #
loop $-1 $-1 $350 $114 #
coedge $-1 $251 $251 $169 $253 forward $166 $-1 #
coedge $-1 $252 $252 $349 $351 reversed $168 $-1 #
edge $-1 $352 -3.1415926535897931 $352 3.1415926535897931 $251 $353 forward 7 unknown #
loop $-1 $354 $355 $170 #
plane-surface $-1 0 0 -3.9709475970678056 0 0 -1 -1 0 0 forward_v I I I I #
loop $-1 $-1 $356 $117 #
coedge $-1 $257 $257 $174 $259 forward $171 $-1 #
coedge $-1 $258 $258 $355 $357 reversed $173 $-1 #
edge $-1 $358 -3.1415926535897931 $358 3.1415926535897931 $257 $359 forward 7 unknown #
loop $-1 $360 $361 $175 #
plane-surface $-1 0 0 -3.9709475970678056 0 0 -1 -1 0 0 forward_v I I I I #
loop $-1 $-1 $362 $120 #
coedge $-1 $263 $263 $179 $265 forward $176 $-1 #
coedge $-1 $264 $264 $361 $363 reversed $178 $-1 #
edge $-1 $364 -3.1415926535897931 $364 3.1415926535897931 $263 $365 forward 7 unknown #
loop $-1 $-1 $366 $180 #
plane-surface $-1 0 0 4.3307086614175034 0 0 1 1 0 0 forward_v I I I I #
coedge $-1 $268 $268 $184 $270 forward $181 $-1 #
coedge $-1 $269 $269 $366 $367 reversed $183 $-1 #
edge $-1 $368 0 $368 6.2831853071795862 $268 $369 forward 7 unknown #
loop $-1 $-1 $370 $185 #
plane-surface $-1 0 0 4.3307086614175034 0 0 1 1 0 0 forward_v I I I I #
coedge $-1 $273 $273 $189 $275 forward $186 $-1 #
coedge $-1 $274 $274 $370 $371 reversed $188 $-1 #
edge $-1 $372 0 $372 6.2831853071795862 $273 $373 forward 7 unknown #
loop $-1 $-1 $374 $190 #
plane-surface $-1 0 0 4.3307086614175034 0 0 1 1 0 0 forward_v I I I I #
coedge $-1 $278 $278 $194 $280 forward $191 $-1 #
coedge $-1 $279 $279 $374 $375 reversed $193 $-1 #
edge $-1 $376 0 $376 6.2831853071795862 $278 $377 forward 7 unknown #
loop $-1 $-1 $378 $195 #
plane-surface $-1 0 0 4.3307086614175034 0 0 1 1 0 0 forward_v I I I I #
coedge $-1 $283 $283 $199 $285 forward $196 $-1 #
coedge $-1 $284 $284 $378 $379 reversed $198 $-1 #
edge $-1 $380 0 $380 6.2831853071795862 $283 $381 forward 7 unknown #
loop $-1 $-1 $382 $200 #
plane-surface $-1 0 0 6.1023622047244999 0 0 1 1 0 0 forward_v I I I I #
coedge $-1 $288 $288 $204 $290 forward $201 $-1 #
coedge $-1 $289 $289 $382 $383 reversed $203 $-1 #
edge $-1 $384 0 $384 6.2831853071795862 $288 $385 forward 7 unknown #
loop $-1 $-1 $386 $205 #
plane-surface $-1 0 0 2.3622047244095086 0 0 1 1 0 0 forward_v I I I I #
coedge $-1 $293 $293 $209 $295 forward $206 $-1 #
coedge $-1 $294 $294 $386 $387 reversed $208 $-1 #
edge $-1 $388 0 $388 6.2831853071795862 $293 $389 forward 7 unknown #
loop $-1 $-1 $390 $210 #
plane-surface $-1 0 0 6.1023622047244999 0 0 1 1 0 0 forward_v I I I I #
coedge $-1 $298 $298 $214 $300 forward $211 $-1 #
coedge $-1 $299 $299 $390 $391 reversed $213 $-1 #
edge $-1 $392 0 $392 6.2831853071795862 $298 $393 forward 7 unknown #
loop $-1 $-1 $394 $215 #
plane-surface $-1 0 0 2.3622047244095086 0 0 1 1 0 0 forward_v I I I I #
coedge $-1 $303 $303 $219 $305 forward $216 $-1 #
coedge $-1 $304 $304 $394 $395 reversed $218 $-1 #
edge $-1 $396 0 $396 6.2831853071795862 $303 $397 forward 7 unknown #
model_id-kcp-attrib $-1 $-1 $-1 $221 1 987438381 171 -726990847 6 #
face $398 $399 $400 $18 $-1 $401 reversed single #
loop $-1 $-1 $402 $221 #
plane-surface $-1 -161.023622047244 0 -379.92125984251999 0 0 -1 -1 0 0 forward_v I I I I #
loop $-1 $-1 $403 $148 #
coedge $-1 $311 $311 $404 $405 forward $222 $-1 #
attrib_edge_convexity-kcp-attrib $-1 $406 $-1 $226 2 #
vertex $-1 $226 $407 #
ellipse-curve $-1 -142.51968503936999 0 -379.92125984251999 0 0 1 1.9685039370078701 0 0 1 I I #
attrib_edge_convexity-kcp-attrib $-1 $408 $-1 $228 1 #
vertex $-1 $228 $409 #
ellipse-curve $-1 -142.51968503936999 0 -377.16535433070902 0 0 -1 -1.9685039370078701 0 0 1 I I #
loop $-1 $410 $404 $319 #
face $411 $412 $229 $18 $-1 $413 forward single #
convexity-sys-attrib $-1 $-1 $230 $154 #
point $-1 -134.84251968503901 0 -371.25984251968498 #
model_id-kcp-attrib $-1 $-1 $-1 $234 1 987438381 187 -725942270 4 #
face $414 $415 $416 $59 $-1 $417 reversed single #
loop $-1 $-1 $418 $234 #
plane-surface $-1 -39.37007874015751 0 0 1 0 0 0 0 -1 forward_v I I I I #
coedge $-1 $419 $334 $420 $421 forward $235 $-1 #
coedge $-1 $422 $237 $419 $423 forward $157 $-1 #
coedge $-1 $237 $422 $424 $425 forward $157 $-1 #
coedge $-1 $337 $336 $237 $330 reversed $338 $-1 #
edge $-1 $426 -23.6220472440945 $427 23.6220472440945 $329 $428 forward 7 unknown #
coedge $-1 $239 $238 $429 $430 forward $109 $-1 #
coedge $-1 $431 $432 $238 $333 reversed $416 $-1 #
edge $-1 $340 -39.37007874015751 $433 39.37007874015751 $332 $434 forward 7 unknown #
coedge $-1 $326 $435 $239 $335 reversed $235 $-1 #
edge $-1 $436 -39.37007874015751 $339 39.37007874015751 $334 $437 forward 7 unknown #
coedge $-1 $329 $240 $435 $438 forward $338 $-1 #
coedge $-1 $240 $329 $431 $439 reversed $338 $-1 #
loop $-1 $-1 $336 $415 #
vertex $-1 $241 $440 #
vertex $-1 $241 $441 #
straight-curve $-1 39.37007874015751 0 8.4645669291340084 0 1 0 I I #
loop $-1 $-1 $442 $160 #
coedge $-1 $343 $343 $246 $345 forward $242 $-1 #
coedge $-1 $344 $344 $442 $443 reversed $244 $-1 #
edge $-1 $444 0 $444 6.2831853071795862 $343 $445 forward 7 unknown #
vertex $-1 $247 $446 #
ellipse-curve $-1 0 0 1.934564213956115 0 0 -1 1.9685039370078701 0 0 1 I I #
loop $-1 $-1 $447 $165 #
coedge $-1 $349 $349 $252 $351 forward $248 $-1 #
coedge $-1 $350 $350 $447 $448 reversed $250 $-1 #
edge $-1 $449 0 $449 6.2831853071795862 $349 $450 forward 7 unknown #
vertex $-1 $253 $451 #
ellipse-curve $-1 0 0 1.934564213956115 0 0 -1 1.9685039370078701 0 0 1 I I #
loop $-1 $-1 $452 $170 #
coedge $-1 $355 $355 $258 $357 forward $254 $-1 #
coedge $-1 $356 $356 $452 $453 reversed $256 $-1 #
edge $-1 $454 0 $454 6.2831853071795862 $355 $455 forward 7 unknown #
vertex $-1 $259 $456 #
ellipse-curve $-1 0 0 1.934564213956115 0 0 -1 1.9685039370078701 0 0 1 I I #
loop $-1 $-1 $457 $175 #
coedge $-1 $361 $361 $264 $363 forward $260 $-1 #
coedge $-1 $362 $362 $457 $458 reversed $262 $-1 #
edge $-1 $459 0 $459 6.2831853071795862 $361 $460 forward 7 unknown #
vertex $-1 $265 $461 #
ellipse-curve $-1 0 0 1.934564213956115 0 0 -1 1.9685039370078701 0 0 1 I I #
coedge $-1 $366 $366 $269 $367 forward $266 $-1 #
edge $-1 $462 0 $462 6.2831853071795862 $366 $463 forward 7 unknown #
vertex $-1 $270 $464 #
ellipse-curve $-1 0 0 -4.3307086614175034 0 0 -1 1.9685039370078701 0 0 1 I I #
coedge $-1 $370 $370 $274 $371 forward $271 $-1 #
edge $-1 $465 0 $465 6.2831853071795862 $370 $466 forward 7 unknown #
vertex $-1 $275 $467 #
ellipse-curve $-1 0 0 -4.3307086614175034 0 0 -1 1.9685039370078701 0 0 1 I I #
coedge $-1 $374 $374 $279 $375 forward $276 $-1 #
edge $-1 $468 0 $468 6.2831853071795862 $374 $469 forward 7 unknown #
vertex $-1 $280 $470 #
ellipse-curve $-1 0 0 -4.3307086614175034 0 0 -1 1.9685039370078701 0 0 1 I I #
coedge $-1 $378 $378 $284 $379 forward $281 $-1 #
edge $-1 $471 0 $471 6.2831853071795862 $378 $472 forward 7 unknown #
vertex $-1 $285 $473 #
ellipse-curve $-1 0 0 -4.3307086614175034 0 0 -1 1.9685039370078701 0 0 1 I I #
coedge $-1 $382 $382 $289 $383 forward $286 $-1 #
edge $-1 $474 0 $474 6.2831853071795862 $382 $475 forward 7 unknown #
vertex $-1 $290 $476 #
ellipse-curve $-1 0 0 -6.1023622047244999 0 0 -1 2.7559055118110201 0 0 1 I I #
coedge $-1 $386 $386 $294 $387 forward $291 $-1 #
edge $-1 $477 0 $477 6.2831853071795862 $386 $478 forward 7 unknown #
vertex $-1 $295 $479 #
ellipse-curve $-1 0 0 -2.3622047244095086 0 0 -1 4.3307086614173196 0 0 1 I I #
coedge $-1 $390 $390 $299 $391 forward $296 $-1 #
edge $-1 $480 0 $480 6.2831853071795862 $390 $481 forward 7 unknown #
vertex $-1 $300 $482 #
ellipse-curve $-1 0 0 -6.1023622047244999 0 0 -1 2.7559055118110201 0 0 1 I I #
coedge $-1 $394 $394 $304 $395 forward $301 $-1 #
edge $-1 $483 0 $483 6.2831853071795862 $394 $484 forward 7 unknown #
vertex $-1 $305 $485 #
ellipse-curve $-1 0 0 -2.3622047244095086 0 0 -1 4.3307086614173196 0 0 1 I I #
model_id-kcp-attrib $-1 $-1 $-1 $307 1 987438381 171 -726990847 7 #
face $486 $487 $488 $18 $-1 $489 reversed single #
loop $-1 $490 $491 $307 #
cone-surface $-1 -161.023622047244 0 -377.16535433070902 0 0 -1 -1.9685039370078701 0 0 1 I I 0 1 1.9685039370078701 forward I I I I #
coedge $-1 $402 $402 $491 $492 forward $308 $-1 #
coedge $-1 $403 $403 $493 $494 forward $310 $-1 #
coedge $-1 $404 $404 $311 $405 reversed $318 $-1 #
edge $495 $496 0 $496 6.2831853071795862 $311 $497 forward 7 unknown #
convexity-sys-attrib $-1 $-1 $312 $226 #
point $-1 -140.55118110236199 0 -379.92125984251999 #
convexity-sys-attrib $-1 $-1 $315 $228 #
point $-1 -144.48818897637801 0 -377.16535433070902 #
loop $-1 $498 $499 $319 #
model_id-kcp-attrib $-1 $500 $-1 $319 1 987438381 171 -726990847 26 #
face $501 $502 $503 $18 $-1 $504 forward single #
plane-surface $-1 -170.47244094488201 0 -371.25984251968498 0 0 1 1 0 0 forward_v I I I I #
model_id-kcp-attrib $-1 $-1 $-1 $323 1 987438381 187 -725942270 5 #
face $505 $-1 $338 $59 $-1 $506 reversed single #
loop $-1 $-1 $431 $323 #
plane-surface $-1 0 23.6220472440945 0 0 -1 0 0 0 -1 forward_v I I I I #
coedge $-1 $507 $429 $432 $508 forward $324 $-1 #
coedge $-1 $435 $326 $327 $423 reversed $235 $-1 #
coedge $-1 $429 $507 $326 $421 reversed $324 $-1 #
edge $-1 $436 -8.4645669291340084 $509 8.4645669291340084 $420 $510 forward 7 unknown #
coedge $-1 $328 $327 $507 $511 forward $157 $-1 #
edge $-1 $427 -39.37007874015751 $509 39.37007874015751 $419 $512 forward 7 unknown #
coedge $-1 $432 $431 $328 $425 reversed $416 $-1 #
edge $-1 $513 -39.37007874015751 $426 39.37007874015751 $424 $514 forward 7 unknown #
vertex $-1 $330 $515 #
vertex $-1 $438 $516 #
straight-curve $-1 39.37007874015751 0 -8.4645669291340084 0 -1 0 I I #
coedge $-1 $418 $420 $331 $430 reversed $324 $-1 #
edge $-1 $433 -23.6220472440945 $436 23.6220472440945 $429 $517 forward 7 unknown #
coedge $-1 $424 $332 $337 $439 forward $416 $-1 #
coedge $-1 $332 $424 $418 $508 reversed $416 $-1 #
vertex $-1 $333 $518 #
straight-curve $-1 0 23.6220472440945 8.4645669291340084 -1 0 0 I I #
coedge $-1 $334 $419 $336 $438 reversed $235 $-1 #
vertex $-1 $430 $519 #
straight-curve $-1 0 -23.6220472440945 8.4645669291340084 1 0 0 I I #
edge $-1 $339 -8.4645669291340084 $427 8.4645669291340084 $336 $520 forward 7 unknown #
edge $-1 $340 -8.4645669291340084 $426 8.4645669291340084 $337 $521 forward 7 unknown #
point $-1 39.37007874015751 -23.6220472440945 8.4645669291340084 #
point $-1 39.37007874015751 23.6220472440945 8.4645669291340084 #
coedge $-1 $442 $442 $344 $443 forward $342 $-1 #
edge $-1 $522 0 $522 6.2831853071795862 $442 $523 forward 7 unknown #
vertex $-1 $345 $524 #
ellipse-curve $-1 0 0 -3.9709475970678056 0 0 1 1.9685039370078701 0 0 1 I I #
point $-1 -1.9685039370078701 2.4106424287842022e-016 1.934564213956115 #
coedge $-1 $447 $447 $350 $448 forward $348 $-1 #
edge $-1 $525 0 $525 6.2831853071795862 $447 $526 forward 7 unknown #
vertex $-1 $351 $527 #
ellipse-curve $-1 0 0 -3.9709475970678056 0 0 1 1.9685039370078701 0 0 1 I I #
point $-1 -1.9685039370078701 2.4106424287842022e-016 1.934564213956115 #
coedge $-1 $452 $452 $356 $453 forward $354 $-1 #
edge $-1 $528 0 $528 6.2831853071795862 $452 $529 forward 7 unknown #
vertex $-1 $357 $530 #
ellipse-curve $-1 0 0 -3.9709475970678056 0 0 1 1.9685039370078701 0 0 1 I I #
point $-1 -1.9685039370078701 2.4106424287842022e-016 1.934564213956115 #
coedge $-1 $457 $457 $362 $458 forward $360 $-1 #
edge $-1 $531 0 $531 6.2831853071795862 $457 $532 forward 7 unknown #
vertex $-1 $363 $533 #
ellipse-curve $-1 0 0 -3.9709475970678056 0 0 1 1.9685039370078701 0 0 1 I I #
point $-1 -1.9685039370078701 2.4106424287842022e-016 1.934564213956115 #
vertex $-1 $367 $534 #
ellipse-curve $-1 0 0 4.3307086614175034 0 0 1 1.9685039370078701 0 0 1 I I #
point $-1 1.9685039370078701 0 -4.3307086614175034 #
vertex $-1 $371 $535 #
ellipse-curve $-1 0 0 4.3307086614175034 0 0 1 1.9685039370078701 0 0 1 I I #
point $-1 1.9685039370078701 0 -4.3307086614175034 #
vertex $-1 $375 $536 #
ellipse-curve $-1 0 0 4.3307086614175034 0 0 1 1.9685039370078701 0 0 1 I I #
point $-1 1.9685039370078701 0 -4.3307086614175034 #
vertex $-1 $379 $537 #
ellipse-curve $-1 0 0 4.3307086614175034 0 0 1 1.9685039370078701 0 0 1 I I #
point $-1 1.9685039370078701 0 -4.3307086614175034 #
vertex $-1 $383 $538 #
ellipse-curve $-1 0 0 6.1023622047244999 0 0 1 2.7559055118110201 0 0 1 I I #
point $-1 2.7559055118110201 0 -6.1023622047244999 #
vertex $-1 $387 $539 #
ellipse-curve $-1 0 0 2.3622047244095086 0 0 1 4.3307086614173196 0 0 1 I I #
point $-1 4.3307086614173196 0 -2.3622047244095086 #
vertex $-1 $391 $540 #
ellipse-curve $-1 0 0 6.1023622047244999 0 0 1 2.7559055118110201 0 0 1 I I #
point $-1 2.7559055118110201 0 -6.1023622047244999 #
vertex $-1 $395 $541 #
ellipse-curve $-1 0 0 2.3622047244095086 0 0 1 4.3307086614173196 0 0 1 I I #
point $-1 4.3307086614173196 0 -2.3622047244095086 #
model_id-kcp-attrib $-1 $-1 $-1 $399 1 987438381 171 -726990847 8 #
face $542 $543 $544 $18 $-1 $545 reversed single #
loop $-1 $546 $547 $399 #
cone-surface $-1 -179.92125984251999 0 -377.16535433070902 0 0 1 1.9685039370078701 0 0 1 I I 0.69502209684747496 0.71898837604911203 1.9685039370078701 forward I I I I #
loop $-1 $-1 $493 $307 #
coedge $-1 $491 $491 $402 $492 reversed $400 $-1 #
edge $548 $549 0 $549 6.2831853071795862 $402 $550 forward 7 unknown #
coedge $-1 $493 $493 $403 $494 reversed $490 $-1 #
edge $551 $552 0 $552 6.2831853071795862 $403 $553 forward 7 unknown #
attrib_edge_convexity-kcp-attrib $-1 $554 $-1 $405 1 #
vertex $-1 $405 $555 #
ellipse-curve $-1 -161.023622047244 0 -371.25984251968498 0 0 1 7.6771653543307101 0 0 1 I I #
loop $-1 $556 $557 $319 #
coedge $-1 $499 $499 $547 $558 reversed $410 $-1 #
model_id-kcp-attrib $-1 $-1 $411 $319 1 987438381 171 -726990847 20 #
model_id-kcp-attrib $-1 $-1 $-1 $412 1 987438381 171 -726990847 21 #
face $559 $560 $561 $18 $-1 $562 forward single #
loop $-1 $-1 $563 $412 #
plane-surface $-1 -170.47244094488201 -23.6220472440945 -388.188976377953 0 -1 0 0 0 -1 forward_v I I I I #
model_id-kcp-attrib $-1 $-1 $-1 $415 1 987438381 187 -725942270 7 #
plane-surface $-1 39.37007874015751 0 0 -1 0 0 0 0 1 forward_v I I I I #
coedge $-1 $420 $418 $422 $511 reversed $324 $-1 #
edge $-1 $433 -8.4645669291340084 $513 8.4645669291340084 $432 $564 forward 7 unknown #
vertex $-1 $511 $565 #
straight-curve $-1 -39.37007874015751 -23.6220472440945 0 0 0 -1 I I #
edge $-1 $509 -23.6220472440945 $513 23.6220472440945 $507 $566 forward 7 unknown #
straight-curve $-1 0 -23.6220472440945 -8.4645669291340084 -1 0 0 I I #
vertex $-1 $425 $567 #
straight-curve $-1 0 23.6220472440945 -8.4645669291340084 1 0 0 I I #
point $-1 39.37007874015751 23.6220472440945 -8.4645669291340084 #
point $-1 39.37007874015751 -23.6220472440945 -8.4645669291340084 #
straight-curve $-1 -39.37007874015751 0 8.4645669291340084 0 -1 0 I I #
point $-1 -39.37007874015751 23.6220472440945 8.4645669291340084 #
point $-1 -39.37007874015751 -23.6220472440945 8.4645669291340084 #
straight-curve $-1 39.37007874015751 -23.6220472440945 0 0 0 -1 I I #
straight-curve $-1 39.37007874015751 23.6220472440945 0 0 0 -1 I I #
vertex $-1 $443 $568 #
ellipse-curve $-1 0 0 -3.9709475970678056 0 0 -1 7.6771653543307101 0 0 1 I I #
point $-1 1.9685039370078701 0 -3.9709475970678056 #
vertex $-1 $448 $569 #
ellipse-curve $-1 0 0 -3.9709475970678056 0 0 -1 7.6771653543307101 0 0 1 I I #
point $-1 1.9685039370078701 0 -3.9709475970678056 #
vertex $-1 $453 $570 #
ellipse-curve $-1 0 0 -3.9709475970678056 0 0 -1 7.6771653543307101 0 0 1 I I #
point $-1 1.9685039370078701 0 -3.9709475970678056 #
vertex $-1 $458 $571 #
ellipse-curve $-1 0 0 -3.9709475970678056 0 0 -1 7.6771653543307101 0 0 1 I I #
point $-1 1.9685039370078701 0 -3.9709475970678056 #
point $-1 1.9685039370078701 0 4.3307086614175034 #
point $-1 1.9685039370078701 0 4.3307086614175034 #
point $-1 1.9685039370078701 0 4.3307086614175034 #
point $-1 1.9685039370078701 0 4.3307086614175034 #
point $-1 2.7559055118110201 0 6.1023622047244999 #
point $-1 4.3307086614173196 0 2.3622047244095086 #
point $-1 2.7559055118110201 0 6.1023622047244999 #
point $-1 4.3307086614173196 0 2.3622047244095086 #
model_id-kcp-attrib $-1 $-1 $-1 $487 1 987438381 171 -726990847 9 #
face $572 $573 $574 $18 $-1 $575 reversed single #
loop $-1 $-1 $576 $487 #
plane-surface $-1 -179.92125984251999 0 -379.92125984251999 0 0 -1 -1 0 0 forward_v I I I I #
loop $-1 $-1 $577 $399 #
coedge $-1 $547 $547 $499 $558 forward $488 $-1 #
attrib_edge_convexity-kcp-attrib $-1 $578 $-1 $492 2 #
vertex $-1 $492 $579 #
ellipse-curve $-1 -161.023622047244 0 -379.92125984251999 0 0 1 1.9685039370078701 0 0 1 I I #
attrib_edge_convexity-kcp-attrib $-1 $580 $-1 $494 1 #
vertex $-1 $494 $581 #
ellipse-curve $-1 -161.023622047244 0 -377.16535433070902 0 0 -1 -1.9685039370078701 0 0 1 I I #
convexity-sys-attrib $-1 $-1 $495 $405 #
point $-1 -153.34645669291299 0 -371.25984251968498 #
loop $-1 $582 $583 $319 #
coedge $-1 $557 $557 $584 $585 reversed $498 $-1 #
edge $586 $587 0 $587 6.2831853071795862 $547 $588 forward 7 unknown #
model_id-kcp-attrib $-1 $-1 $-1 $502 1 987438381 171 -726990847 22 #
face $589 $590 $591 $18 $-1 $592 forward single #
loop $-1 $-1 $593 $502 #
plane-surface $-1 -209.84251968503901 0 -388.188976377953 -1 0 0 0 0 1 forward_v I I I I #
coedge $-1 $594 $595 $596 $597 forward $503 $-1 #
straight-curve $-1 -39.37007874015751 23.6220472440945 0 0 0 -1 I I #
point $-1 -39.37007874015751 -23.6220472440945 -8.4645669291340084 #
straight-curve $-1 -39.37007874015751 0 -8.4645669291340084 0 1 0 I I #
point $-1 -39.37007874015751 23.6220472440945 -8.4645669291340084 #
point $-1 7.6771653543307101 0 -3.9709475970678056 #
point $-1 7.6771653543307101 0 -3.9709475970678056 #
point $-1 7.6771653543307101 0 -3.9709475970678056 #
point $-1 7.6771653543307101 0 -3.9709475970678056 #
model_id-kcp-attrib $-1 $-1 $-1 $543 1 987438381 171 -726990847 10 #
face $598 $599 $600 $18 $-1 $601 reversed single #
loop $-1 $602 $603 $543 #
cone-surface $-1 -179.92125984251999 0 -377.16535433070902 0 0 -1 -1.9685039370078701 0 0 1 I I 0 1 1.9685039370078701 forward I I I I #
coedge $-1 $576 $576 $603 $604 forward $544 $-1 #
coedge $-1 $577 $577 $605 $606 forward $546 $-1 #
convexity-sys-attrib $-1 $-1 $548 $492 #
point $-1 -159.05511811023601 0 -379.92125984251999 #
convexity-sys-attrib $-1 $-1 $551 $494 #
point $-1 -162.992125984252 0 -377.16535433070902 #
loop $-1 $607 $608 $319 #
coedge $-1 $583 $583 $609 $610 reversed $556 $-1 #
coedge $-1 $584 $584 $557 $585 forward $600 $-1 #
edge $611 $612 0 $612 6.2831853071795862 $584 $613 forward 7 unknown #
attrib_edge_convexity-kcp-attrib $-1 $614 $-1 $558 1 #
vertex $-1 $558 $615 #
ellipse-curve $-1 -179.92125984251999 0 -371.25984251968498 0 0 1 7.6771653543307101 0 0 1 I I #
model_id-kcp-attrib $-1 $-1 $-1 $560 1 987438381 171 -726990847 23 #
face $616 $617 $618 $18 $-1 $619 forward single #
loop $-1 $-1 $620 $560 #
plane-surface $-1 -170.47244094488201 23.6220472440945 -388.188976377953 0 1 0 0 0 1 forward_v I I I I #
coedge $-1 $621 $622 $623 $624 forward $561 $-1 #
coedge $-1 $623 $563 $625 $626 forward $503 $-1 #
coedge $-1 $563 $623 $627 $628 forward $503 $-1 #
coedge $-1 $629 $630 $563 $597 reversed $631 $-1 #
edge $632 $633 0 $634 16.929133858268017 $563 $635 forward 7 unknown #
model_id-kcp-attrib $-1 $-1 $-1 $573 1 987438381 171 -726990847 11 #
face $636 $637 $638 $18 $-1 $639 reversed single #
loop $-1 $640 $584 $573 #
cone-surface $-1 -198.425196850394 0 -377.16535433070902 0 0 1 1.9685039370078701 0 0 1 I I 0.69502209684747496 0.71898837604911203 1.9685039370078701 forward I I I I #
loop $-1 $-1 $605 $543 #
coedge $-1 $603 $603 $576 $604 reversed $574 $-1 #
edge $641 $642 0 $642 6.2831853071795862 $576 $643 forward 7 unknown #
coedge $-1 $605 $605 $577 $606 reversed $602 $-1 #
edge $644 $645 0 $645 6.2831853071795862 $577 $646 forward 7 unknown #
loop $-1 $-1 $625 $319 #
coedge $-1 $608 $608 $647 $648 reversed $582 $-1 #
coedge $-1 $609 $609 $583 $610 forward $649 $-1 #
edge $650 $651 0 $651 6.2831853071795862 $609 $652 forward 7 unknown #
attrib_edge_convexity-kcp-attrib $-1 $653 $-1 $585 1 #
vertex $-1 $585 $654 #
ellipse-curve $-1 -198.425196850394 0 -371.25984251968498 0 0 1 7.6771653543307101 0 0 1 I I #
convexity-sys-attrib $-1 $-1 $586 $558 #
point $-1 -172.24409448818901 0 -371.25984251968498 #
model_id-kcp-attrib $-1 $655 $-1 $590 1 987438381 171 -726990847 34 #
face $656 $-1 $631 $18 $-1 $657 forward single #
loop $658 $659 $660 $590 #
plane-surface $-1 -170.47244094488201 0 -388.188976377953 0 0 -1 -1 0 0 forward_v I I I I #
coedge $-1 $661 $662 $663 $664 forward $591 $-1 #
coedge $-1 $663 $593 $665 $666 forward $561 $-1 #
coedge $-1 $593 $663 $667 $668 forward $561 $-1 #
coedge $-1 $595 $594 $593 $624 reversed $503 $-1 #
edge $669 $670 0 $671 16.929133858268017 $623 $672 forward 7 unknown #
coedge $-1 $673 $665 $594 $626 reversed $607 $-1 #
edge $674 $634 -39.370078740158021 $671 39.370078740156998 $625 $675 forward 7 unknown #
coedge $-1 $667 $676 $595 $628 reversed $677 $-1 #
edge $678 $670 -39.370078740156998 $633 39.370078740158021 $595 $679 forward 7 unknown #
coedge $-1 $680 $596 $676 $681 forward $631 $-1 #
coedge $-1 $596 $680 $673 $682 forward $631 $-1 #
loop $-1 $-1 $629 $617 #
attrib_edge_convexity-kcp-attrib $-1 $683 $-1 $597 1 #
vertex $-1 $597 $684 #
vertex $-1 $626 $685 #
straight-curve $-1 -131.10236220472399 -23.6220472440945 -388.188976377953 0 0 1 I I #
model_id-kcp-attrib $-1 $-1 $-1 $599 1 987438381 171 -726990847 12 #
face $686 $687 $688 $18 $-1 $689 reversed single #
loop $-1 $-1 $690 $599 #
plane-surface $-1 -198.425196850394 0 -379.92125984251999 0 0 -1 -1 0 0 forward_v I I I I #
loop $-1 $-1 $691 $573 #
attrib_edge_convexity-kcp-attrib $-1 $692 $-1 $604 2 #
vertex $-1 $604 $693 #
ellipse-curve $-1 -179.92125984251999 0 -379.92125984251999 0 0 1 1.9685039370078701 0 0 1 I I #
attrib_edge_convexity-kcp-attrib $-1 $694 $-1 $606 1 #
vertex $-1 $606 $695 #
ellipse-curve $-1 -179.92125984251999 0 -377.16535433070902 0 0 -1 -1.9685039370078701 0 0 1 I I #
coedge $-1 $647 $647 $608 $648 forward $696 $-1 #
edge $697 $698 0 $698 6.2831853071795862 $647 $699 forward 7 unknown #
loop $-1 $700 $609 $701 #
attrib_edge_convexity-kcp-attrib $-1 $702 $-1 $610 1 #
vertex $-1 $610 $703 #
ellipse-curve $-1 -170.47244094488201 -15.748031496063 -371.25984251968498 0 0 1 4.3307086614173196 0 0 1 I I #
convexity-sys-attrib $-1 $-1 $611 $585 #
point $-1 -190.74803149606299 0 -371.25984251968498 #
model_id-kcp-attrib $-1 $704 $616 $590 1 987438381 171 -726990847 27 #
model_id-kcp-attrib $-1 $-1 $-1 $617 1 987438381 171 -726990847 25 #
plane-surface $-1 -131.10236220472399 0 -388.188976377953 1 0 0 0 0 -1 forward_v I I I I #
model_id-kcp-attrib $-1 $-1 $-1 $618 1 987438381 171 -726990847 31 #
loop $705 $677 $706 $590 #
coedge $-1 $660 $660 $707 $708 reversed $618 $-1 #
coedge $-1 $709 $620 $710 $711 forward $591 $-1 #
coedge $-1 $620 $709 $712 $713 forward $591 $-1 #
coedge $-1 $622 $621 $620 $664 reversed $561 $-1 #
edge $714 $715 0 $716 16.929133858268017 $663 $717 forward 7 unknown #
coedge $-1 $625 $710 $621 $666 reversed $607 $-1 #
edge $718 $671 -23.6220472440945 $716 23.6220472440945 $665 $719 forward 7 unknown #
coedge $-1 $712 $627 $622 $668 reversed $677 $-1 #
edge $720 $715 -23.6220472440945 $670 23.6220472440945 $622 $721 forward 7 unknown #
attrib_edge_convexity-kcp-attrib $-1 $722 $-1 $624 1 #
vertex $-1 $624 $723 #
vertex $-1 $626 $724 #
straight-curve $-1 -209.84251968503901 -23.6220472440945 -388.188976377953 0 0 1 I I #
coedge $-1 $710 $625 $630 $682 reversed $607 $-1 #
attrib_edge_convexity-kcp-attrib $-1 $725 $-1 $626 1 #
straight-curve $-1 -170.47244094488201 -23.6220472440945 -371.25984251968498 -1 0 0 I I #
coedge $-1 $627 $712 $629 $681 reversed $677 $-1 #
loop $-1 $-1 $676 $590 #
attrib_edge_convexity-kcp-attrib $-1 $726 $-1 $628 1 #
straight-curve $-1 -170.47244094488201 -23.6220472440945 -388.188976377953 1 0 0 I I #
coedge $-1 $630 $629 $709 $727 forward $631 $-1 #
edge $-1 $633 -23.6220472440945 $728 23.6220472440945 $676 $729 forward 7 unknown #
edge $730 $731 -23.6220472440945 $634 23.6220472440945 $673 $732 forward 7 unknown #
convexity-sys-attrib $-1 $-1 $632 $597 #
point $-1 -131.10236220472399 -23.6220472440945 -388.188976377953 #
point $-1 -131.10236220472399 -23.6220472440945 -371.25984251968498 #
model_id-kcp-attrib $-1 $-1 $-1 $637 1 987438381 171 -726990847 13 #
face $733 $734 $735 $18 $-1 $736 reversed single #
loop $-1 $737 $738 $637 #
cone-surface $-1 -198.425196850394 0 -377.16535433070902 0 0 -1 -1.9685039370078701 0 0 1 I I 0 1 1.9685039370078701 forward I I I I #
coedge $-1 $690 $690 $738 $739 forward $638 $-1 #
coedge $-1 $691 $691 $740 $741 forward $640 $-1 #
convexity-sys-attrib $-1 $-1 $641 $604 #
point $-1 -177.95275590551199 0 -379.92125984251999 #
convexity-sys-attrib $-1 $-1 $644 $606 #
point $-1 -181.88976377952801 0 -377.16535433070902 #
loop $-1 $742 $647 $743 #
attrib_edge_convexity-kcp-attrib $-1 $744 $-1 $648 1 #
vertex $-1 $648 $745 #
ellipse-curve $-1 -170.47244094488201 15.748031496063 -371.25984251968498 0 0 1 4.3307086614173196 0 0 1 I I #
loop $-1 $-1 $746 $701 #
face $747 $748 $649 $18 $-1 $749 reversed single #
convexity-sys-attrib $-1 $-1 $650 $610 #
point $-1 -166.14173228346499 -15.748031496063 -371.25984251968498 #
model_id-kcp-attrib $-1 $-1 $655 $590 1 987438381 171 -726990847 24 #
model_id-kcp-attrib $-1 $-1 $-1 $659 1 987438381 171 -726990847 38 #
coedge $-1 $706 $706 $750 $751 reversed $659 $-1 #
coedge $-1 $707 $707 $660 $708 forward $752 $-1 #
edge $753 $754 0 $754 6.2831853071795862 $707 $755 forward 7 unknown #
coedge $-1 $662 $661 $680 $727 reversed $591 $-1 #
coedge $-1 $665 $673 $661 $711 reversed $607 $-1 #
edge $756 $716 -39.370078740156998 $731 39.370078740158021 $710 $757 forward 7 unknown #
coedge $-1 $676 $667 $662 $713 reversed $677 $-1 #
edge $-1 $728 -39.370078740158021 $715 39.370078740156998 $662 $758 forward 7 unknown #
attrib_edge_convexity-kcp-attrib $-1 $759 $-1 $664 1 #
vertex $-1 $664 $760 #
vertex $-1 $711 $761 #
straight-curve $-1 -209.84251968503901 23.6220472440945 -388.188976377953 0 0 1 I I #
attrib_edge_convexity-kcp-attrib $-1 $762 $-1 $666 1 #
straight-curve $-1 -209.84251968503901 0 -371.25984251968498 0 1 0 I I #
attrib_edge_convexity-kcp-attrib $-1 $763 $-1 $668 1 #
straight-curve $-1 -209.84251968503901 0 -388.188976377953 0 -1 0 I I #
convexity-sys-attrib $-1 $-1 $669 $624 #
point $-1 -209.84251968503901 -23.6220472440945 -388.188976377953 #
point $-1 -209.84251968503901 -23.6220472440945 -371.25984251968498 #
convexity-sys-attrib $-1 $-1 $674 $626 #
convexity-sys-attrib $-1 $-1 $678 $628 #
edge $-1 $728 0 $731 16.929133858268017 $709 $764 forward 7 unknown #
vertex $-1 $727 $765 #
straight-curve $-1 -131.10236220472399 0 -388.188976377953 0 1 0 I I #
attrib_edge_convexity-kcp-attrib $-1 $766 $-1 $682 1 #
vertex $-1 $682 $767 #
straight-curve $-1 -131.10236220472399 0 -371.25984251968498 0 -1 0 I I #
model_id-kcp-attrib $-1 $-1 $-1 $687 1 987438381 171 -726990847 14 #
face $768 $701 $769 $18 $-1 $770 reversed single #
loop $771 $752 $772 $687 #
cone-surface $-1 -170.47244094488201 -15.748031496063 -388.188976377953 0 0 1 2.7559055118110201 0 0 1 I I 0 1 2.7559055118110201 forward I I I I #
loop $-1 $-1 $740 $637 #
coedge $-1 $738 $738 $690 $739 reversed $688 $-1 #
edge $773 $774 0 $774 6.2831853071795862 $690 $775 forward 7 unknown #
coedge $-1 $740 $740 $691 $741 reversed $737 $-1 #
edge $776 $777 0 $777 6.2831853071795862 $691 $778 forward 7 unknown #
loop $-1 $-1 $779 $743 #
face $780 $319 $696 $18 $-1 $781 reversed single #
convexity-sys-attrib $-1 $-1 $697 $648 #
point $-1 -166.14173228346499 15.748031496063 -371.25984251968498 #
coedge $-1 $746 $746 $782 $783 reversed $700 $-1 #
model_id-kcp-attrib $-1 $-1 $-1 $701 1 987438381 171 -726990847 16 #
face $784 $785 $786 $18 $-1 $787 reversed single #
cone-surface $-1 -170.47244094488201 -15.748031496063 -375.984251968504 0 0 1 4.3307086614173196 0 0 1 I I 0 1 4.3307086614173196 forward I I I I #
coedge $-1 $750 $750 $706 $751 forward $788 $-1 #
edge $789 $790 0 $790 6.2831853071795862 $750 $791 forward 7 unknown #
loop $792 $-1 $707 $687 #
attrib_edge_convexity-kcp-attrib $-1 $793 $-1 $708 1 #
vertex $794 $708 $795 #
ellipse-curve $-1 -170.47244094488201 -15.748031496063 -388.188976377953 0 0 -1 -2.7559055118110201 0 0 1 I I #
attrib_edge_convexity-kcp-attrib $-1 $796 $-1 $711 1 #
straight-curve $-1 -170.47244094488201 23.6220472440945 -371.25984251968498 1 0 0 I I #
straight-curve $-1 -170.47244094488201 23.6220472440945 -388.188976377953 -1 0 0 I I #
convexity-sys-attrib $-1 $-1 $714 $664 #
point $-1 -209.84251968503901 23.6220472440945 -388.188976377953 #
point $-1 -209.84251968503901 23.6220472440945 -371.25984251968498 #
convexity-sys-attrib $-1 $-1 $718 $666 #
convexity-sys-attrib $-1 $-1 $720 $668 #
straight-curve $-1 -131.10236220472399 23.6220472440945 -388.188976377953 0 0 1 I I #
point $-1 -131.10236220472399 23.6220472440945 -388.188976377953 #
convexity-sys-attrib $-1 $-1 $730 $682 #
point $-1 -131.10236220472399 23.6220472440945 -371.25984251968498 #
model_id-kcp-attrib $-1 $-1 $-1 $734 1 987438381 171 -726990847 15 #
loop $-1 $797 $782 $734 #
plane-surface $-1 -170.47244094488201 -15.748031496063 -375.984251968504 0 0 -1 -1 0 0 forward_v I I I I #
model_id-kcp-attrib $-1 $-1 $-1 $735 1 987438381 171 -726990847 28 #
coedge $-1 $772 $772 $798 $799 forward $735 $-1 #
attrib_edge_convexity-kcp-attrib $-1 $800 $-1 $739 2 #
vertex $-1 $739 $801 #
ellipse-curve $-1 -198.425196850394 0 -379.92125984251999 0 0 1 1.9685039370078701 0 0 1 I I #
attrib_edge_convexity-kcp-attrib $-1 $802 $-1 $741 1 #
vertex $-1 $741 $803 #
ellipse-curve $-1 -198.425196850394 0 -377.16535433070902 0 0 -1 -1.9685039370078701 0 0 1 I I #
coedge $-1 $779 $779 $804 $805 reversed $742 $-1 #
model_id-kcp-attrib $-1 $-1 $-1 $743 1 987438381 171 -726990847 19 #
cone-surface $-1 -170.47244094488201 15.748031496063 -375.984251968504 0 0 1 4.3307086614173196 0 0 1 I I 0 1 4.3307086614173196 forward I I I I #
coedge $-1 $782 $782 $746 $783 forward $769 $-1 #
edge $806 $807 0 $807 6.2831853071795862 $782 $808 forward 7 unknown #
model_id-kcp-attrib $-1 $-1 $-1 $748 1 987438381 171 -726990847 17 #
face $809 $743 $810 $18 $-1 $811 reversed single #
loop $812 $788 $813 $748 #
cone-surface $-1 -170.47244094488201 15.748031496063 -388.188976377953 0 0 1 2.7559055118110201 0 0 1 I I 0 1 2.7559055118110201 forward I I I I #
loop $814 $-1 $750 $748 #
attrib_edge_convexity-kcp-attrib $-1 $815 $-1 $751 1 #
vertex $816 $751 $817 #
ellipse-curve $-1 -170.47244094488201 15.748031496063 -388.188976377953 0 0 -1 -2.7559055118110201 0 0 1 I I #
model_id-kcp-attrib $-1 $-1 $-1 $752 1 987438381 171 -726990847 29 #
convexity-sys-attrib $-1 $-1 $753 $708 #
model_id-kcp-attrib $-1 $-1 $-1 $754 1 987438381 171 -726990847 33 #
point $-1 -173.228346456693 -15.748031496063 -388.188976377953 #
convexity-sys-attrib $-1 $-1 $756 $711 #
loop $818 $-1 $798 $734 #
coedge $-1 $798 $798 $772 $799 reversed $797 $-1 #
edge $819 $820 0 $820 6.2831853071795862 $772 $821 forward 7 unknown #
convexity-sys-attrib $-1 $-1 $773 $739 #
point $-1 -196.45669291338601 0 -379.92125984251999 #
convexity-sys-attrib $-1 $-1 $776 $741 #
point $-1 -200.393700787402 0 -377.16535433070902 #
coedge $-1 $804 $804 $779 $805 forward $810 $-1 #
edge $822 $823 0 $823 6.2831853071795862 $804 $824 forward 7 unknown #
attrib_edge_convexity-kcp-attrib $-1 $825 $-1 $783 2 #
vertex $-1 $783 $826 #
ellipse-curve $-1 -170.47244094488201 -15.748031496063 -375.984251968504 0 0 1 4.3307086614173196 0 0 1 I I #
model_id-kcp-attrib $-1 $-1 $-1 $785 1 987438381 171 -726990847 18 #
loop $-1 $827 $804 $785 #
plane-surface $-1 -170.47244094488201 15.748031496063 -375.984251968504 0 0 -1 -1 0 0 forward_v I I I I #
model_id-kcp-attrib $-1 $-1 $-1 $786 1 987438381 171 -726990847 35 #
coedge $-1 $813 $813 $828 $829 forward $786 $-1 #
model_id-kcp-attrib $-1 $-1 $-1 $788 1 987438381 171 -726990847 36 #
convexity-sys-attrib $-1 $-1 $789 $751 #
model_id-kcp-attrib $-1 $-1 $-1 $790 1 987438381 171 -726990847 40 #
point $-1 -173.228346456693 15.748031496063 -388.188976377953 #
model_id-kcp-attrib $-1 $-1 $-1 $797 1 987438381 171 -726990847 30 #
attrib_edge_convexity-kcp-attrib $-1 $830 $-1 $799 1 #
vertex $831 $799 $832 #
ellipse-curve $-1 -170.47244094488201 -15.748031496063 -375.984251968504 0 0 1 -2.7559055118110201 0 0 1 I I #
attrib_edge_convexity-kcp-attrib $-1 $833 $-1 $805 2 #
vertex $-1 $805 $834 #
ellipse-curve $-1 -170.47244094488201 15.748031496063 -375.984251968504 0 0 1 4.3307086614173196 0 0 1 I I #
convexity-sys-attrib $-1 $-1 $806 $783 #
point $-1 -166.14173228346499 -15.748031496063 -375.984251968504 #
loop $835 $-1 $828 $785 #
coedge $-1 $828 $828 $813 $829 reversed $827 $-1 #
edge $836 $837 0 $837 6.2831853071795862 $813 $838 forward 7 unknown #
convexity-sys-attrib $-1 $-1 $819 $799 #
model_id-kcp-attrib $-1 $-1 $-1 $820 1 987438381 171 -726990847 32 #
point $-1 -173.228346456693 -15.748031496063 -375.984251968504 #
convexity-sys-attrib $-1 $-1 $822 $805 #
point $-1 -166.14173228346499 15.748031496063 -375.984251968504 #
model_id-kcp-attrib $-1 $-1 $-1 $827 1 987438381 171 -726990847 37 #
attrib_edge_convexity-kcp-attrib $-1 $839 $-1 $829 1 #
vertex $840 $829 $841 #
ellipse-curve $-1 -170.47244094488201 15.748031496063 -375.984251968504 0 0 1 -2.7559055118110201 0 0 1 I I #
convexity-sys-attrib $-1 $-1 $836 $829 #
model_id-kcp-attrib $-1 $-1 $-1 $837 1 987438381 171 -726990847 39 #
point $-1 -173.228346456693 15.748031496063 -375.984251968504 #
End-of-ACIS-data 