105 281 1 0                             
body $-1 $1 $-1 $-1 #
lump $-1 $-1 $2 $0 #
shell $-1 $-1 $-1 $3 $1 #
face $-1 $4 $5 $2 $-1 $6 reversed single #
face $-1 $7 $8 $2 $-1 $9 reversed single #
loop $-1 $10 $11 $3 #
cone-surface $-1 -142.51968503937 0 -377.165354330709 0 0 1 1.96850393700787 0 0 1 0.695022096847475 0.718988376049112 0 #
face $-1 $12 $13 $2 $-1 $14 reversed single #
loop $-1 $-1 $15 $4 #
plane-surface $-1 -142.51968503937 0 -379.92125984252 0 0 -1 -1 0 0 0 #
loop $-1 $-1 $16 $3 #
coedge $-1 $11 $11 $17 $18 0 $5 $-1 #
face $-1 $19 $20 $2 $-1 $21 reversed single #
loop $-1 $22 $23 $7 #
cone-surface $-1 -142.51968503937 0 -377.165354330709 0 0 -1 -1.96850393700787 0 0 1 0 1 0 #
coedge $-1 $15 $15 $23 $24 0 $8 $-1 #
coedge $-1 $16 $16 $25 $26 0 $10 $-1 #
coedge $-1 $17 $17 $11 $18 1 $27 $-1 #
edge $-1 $28 $28 $11 $29 0 #
face $-1 $30 $31 $2 $-1 $32 reversed single #
loop $-1 $33 $34 $12 #
cone-surface $-1 -161.023622047244 0 -377.165354330709 0 0 1 1.96850393700787 0 0 1 0.695022096847475 0.718988376049112 0 #
loop $-1 $-1 $25 $7 #
coedge $-1 $23 $23 $15 $24 1 $13 $-1 #
edge $-1 $35 $35 $15 $36 0 #
coedge $-1 $25 $25 $16 $26 1 $22 $-1 #
edge $-1 $37 $37 $16 $38 0 #
loop $-1 $39 $17 $40 #
vertex $-1 $18 $41 #
ellipse-curve $-1 -142.51968503937 0 -371.259842519685 0 0 1 7.67716535433071 0 0 1 #
face $-1 $42 $43 $2 $-1 $44 reversed single #
loop $-1 $-1 $45 $19 #
plane-surface $-1 -161.023622047244 0 -379.92125984252 0 0 -1 -1 0 0 0 #
loop $-1 $-1 $46 $12 #
coedge $-1 $34 $34 $47 $48 0 $20 $-1 #
vertex $-1 $24 $49 #
ellipse-curve $-1 -142.51968503937 0 -379.92125984252 0 0 1 1.96850393700787 0 0 1 #
vertex $-1 $26 $50 #
ellipse-curve $-1 -142.51968503937 0 -377.165354330709 0 0 -1 -1.96850393700787 0 0 1 #
loop $-1 $51 $47 $40 #
face $-1 $52 $27 $2 $-1 $53 forward single #
point $-1 -134.842519685039 0 -371.259842519685 #
face $-1 $54 $55 $2 $-1 $56 reversed single #
loop $-1 $57 $58 $30 #
cone-surface $-1 -161.023622047244 0 -377.165354330709 0 0 -1 -1.96850393700787 0 0 1 0 1 0 #
coedge $-1 $45 $45 $58 $59 0 $31 $-1 #
coedge $-1 $46 $46 $60 $61 0 $33 $-1 #
coedge $-1 $47 $47 $34 $48 1 $39 $-1 #
edge $-1 $62 $62 $34 $63 0 #
point $-1 -140.551181102362 0 -379.92125984252 #
point $-1 -144.488188976378 0 -377.165354330709 #
loop $-1 $64 $65 $40 #
face $-1 $66 $67 $2 $-1 $68 forward single #
plane-surface $-1 -170.472440944882 0 -371.259842519685 0 0 1 1 0 0 0 #
face $-1 $69 $70 $2 $-1 $71 reversed single #
loop $-1 $72 $73 $42 #
cone-surface $-1 -179.92125984252 0 -377.165354330709 0 0 1 1.96850393700787 0 0 1 0.695022096847475 0.718988376049112 0 #
loop $-1 $-1 $60 $30 #
coedge $-1 $58 $58 $45 $59 1 $43 $-1 #
edge $-1 $74 $74 $45 $75 0 #
coedge $-1 $60 $60 $46 $61 1 $57 $-1 #
edge $-1 $76 $76 $46 $77 0 #
vertex $-1 $48 $78 #
ellipse-curve $-1 -161.023622047244 0 -371.259842519685 0 0 1 7.67716535433071 0 0 1 #
loop $-1 $79 $80 $40 #
coedge $-1 $65 $65 $73 $81 1 $51 $-1 #
face $-1 $82 $83 $2 $-1 $84 forward single #
loop $-1 $-1 $85 $52 #
plane-surface $-1 -170.472440944882 -23.6220472440945 -388.188976377953 0 -1 0 0 0 -1 0 #
face $-1 $86 $87 $2 $-1 $88 reversed single #
loop $-1 $-1 $89 $54 #
plane-surface $-1 -179.92125984252 0 -379.92125984252 0 0 -1 -1 0 0 0 #
loop $-1 $-1 $90 $42 #
coedge $-1 $73 $73 $65 $81 0 $55 $-1 #
vertex $-1 $59 $91 #
ellipse-curve $-1 -161.023622047244 0 -379.92125984252 0 0 1 1.96850393700787 0 0 1 #
vertex $-1 $61 $92 #
ellipse-curve $-1 -161.023622047244 0 -377.165354330709 0 0 -1 -1.96850393700787 0 0 1 #
point $-1 -153.346456692913 0 -371.259842519685 #
loop $-1 $93 $94 $40 #
coedge $-1 $80 $80 $95 $96 1 $64 $-1 #
edge $-1 $97 $97 $73 $98 0 #
face $-1 $99 $100 $2 $-1 $101 forward single #
loop $-1 $-1 $102 $66 #
plane-surface $-1 -209.842519685039 0 -388.188976377953 -1 0 0 0 -0 1 0 #
coedge $-1 $103 $104 $105 $106 0 $67 $-1 #
face $-1 $107 $108 $2 $-1 $109 reversed single #
loop $-1 $110 $111 $69 #
cone-surface $-1 -179.92125984252 0 -377.165354330709 0 0 -1 -1.96850393700787 0 0 1 0 1 0 #
coedge $-1 $89 $89 $111 $112 0 $70 $-1 #
coedge $-1 $90 $90 $113 $114 0 $72 $-1 #
point $-1 -159.055118110236 0 -379.92125984252 #
point $-1 -162.992125984252 0 -377.165354330709 #
loop $-1 $115 $116 $40 #
coedge $-1 $94 $94 $117 $118 1 $79 $-1 #
coedge $-1 $95 $95 $80 $96 0 $108 $-1 #
edge $-1 $119 $119 $95 $120 0 #
vertex $-1 $81 $121 #
ellipse-curve $-1 -179.92125984252 0 -371.259842519685 0 0 1 7.67716535433071 0 0 1 #
face $-1 $122 $123 $2 $-1 $124 forward single #
loop $-1 $-1 $125 $82 #
plane-surface $-1 -170.472440944882 23.6220472440945 -388.188976377953 0 1 0 0 0 1 0 #
coedge $-1 $126 $127 $128 $129 0 $83 $-1 #
coedge $-1 $128 $85 $130 $131 0 $67 $-1 #
coedge $-1 $85 $128 $132 $133 0 $67 $-1 #
coedge $-1 $134 $135 $85 $106 1 $136 $-1 #
edge $-1 $137 $138 $85 $139 0 #
face $-1 $140 $141 $2 $-1 $142 reversed single #
loop $-1 $143 $95 $86 #
cone-surface $-1 -198.425196850394 0 -377.165354330709 0 0 1 1.96850393700787 0 0 1 0.695022096847475 0.718988376049112 0 #
loop $-1 $-1 $113 $69 #
coedge $-1 $111 $111 $89 $112 1 $87 $-1 #
edge $-1 $144 $144 $89 $145 0 #
coedge $-1 $113 $113 $90 $114 1 $110 $-1 #
edge $-1 $146 $146 $90 $147 0 #
loop $-1 $-1 $130 $40 #
coedge $-1 $116 $116 $148 $149 1 $93 $-1 #
coedge $-1 $117 $117 $94 $118 0 $150 $-1 #
edge $-1 $151 $151 $117 $152 0 #
vertex $-1 $96 $153 #
ellipse-curve $-1 -198.425196850394 0 -371.259842519685 0 0 1 7.67716535433071 0 0 1 #
point $-1 -172.244094488189 0 -371.259842519685 #
face $-1 $-1 $136 $2 $-1 $154 forward single #
loop $-1 $155 $156 $99 #
plane-surface $-1 -170.472440944882 0 -388.188976377953 0 0 -1 -1 0 0 0 #
coedge $-1 $157 $158 $159 $160 0 $100 $-1 #
coedge $-1 $159 $102 $161 $162 0 $83 $-1 #
coedge $-1 $102 $159 $163 $164 0 $83 $-1 #
coedge $-1 $104 $103 $102 $129 1 $67 $-1 #
edge $-1 $165 $166 $128 $167 0 #
coedge $-1 $168 $161 $103 $131 1 $115 $-1 #
edge $-1 $138 $166 $130 $169 0 #
coedge $-1 $163 $170 $104 $133 1 $171 $-1 #
edge $-1 $165 $137 $104 $172 0 #
coedge $-1 $173 $105 $170 $174 0 $136 $-1 #
coedge $-1 $105 $173 $168 $175 0 $136 $-1 #
loop $-1 $-1 $134 $122 #
vertex $-1 $106 $176 #
vertex $-1 $131 $177 #
straight-curve $-1 -131.102362204724 -23.6220472440945 -388.188976377953 0 0 1 #
face $-1 $178 $179 $2 $-1 $180 reversed single #
loop $-1 $-1 $181 $107 #
plane-surface $-1 -198.425196850394 0 -379.92125984252 0 0 -1 -1 0 0 0 #
loop $-1 $-1 $182 $86 #
vertex $-1 $112 $183 #
ellipse-curve $-1 -179.92125984252 0 -379.92125984252 0 0 1 1.96850393700787 0 0 1 #
vertex $-1 $114 $184 #
ellipse-curve $-1 -179.92125984252 0 -377.165354330709 0 0 -1 -1.96850393700787 0 0 1 #
coedge $-1 $148 $148 $116 $149 0 $185 $-1 #
edge $-1 $186 $186 $148 $187 0 #
loop $-1 $188 $117 $189 #
vertex $-1 $118 $190 #
ellipse-curve $-1 -170.472440944882 -15.748031496063 -371.259842519685 0 0 1 4.33070866141732 0 0 1 #
point $-1 -190.748031496063 0 -371.259842519685 #
plane-surface $-1 -131.102362204724 0 -388.188976377953 1 0 0 0 0 -1 0 #
loop $-1 $171 $191 $99 #
coedge $-1 $156 $156 $192 $193 1 $123 $-1 #
coedge $-1 $194 $125 $195 $196 0 $100 $-1 #
coedge $-1 $125 $194 $197 $198 0 $100 $-1 #
coedge $-1 $127 $126 $125 $160 1 $83 $-1 #
edge $-1 $199 $200 $159 $201 0 #
coedge $-1 $130 $195 $126 $162 1 $115 $-1 #
edge $-1 $166 $200 $161 $202 0 #
coedge $-1 $197 $132 $127 $164 1 $171 $-1 #
edge $-1 $199 $165 $127 $203 0 #
vertex $-1 $129 $204 #
vertex $-1 $131 $205 #
straight-curve $-1 -209.842519685039 -23.6220472440945 -388.188976377953 0 0 1 #
coedge $-1 $195 $130 $135 $175 1 $115 $-1 #
straight-curve $-1 -170.472440944882 -23.6220472440945 -371.259842519685 -1 0 0 #
coedge $-1 $132 $197 $134 $174 1 $171 $-1 #
loop $-1 $-1 $170 $99 #
straight-curve $-1 -170.472440944882 -23.6220472440945 -388.188976377953 1 0 0 #
coedge $-1 $135 $134 $194 $206 0 $136 $-1 #
edge $-1 $137 $207 $170 $208 0 #
edge $-1 $209 $138 $168 $210 0 #
point $-1 -131.102362204724 -23.6220472440945 -388.188976377953 #
point $-1 -131.102362204724 -23.6220472440945 -371.259842519685 #
face $-1 $211 $212 $2 $-1 $213 reversed single #
loop $-1 $214 $215 $140 #
cone-surface $-1 -198.425196850394 0 -377.165354330709 0 0 -1 -1.96850393700787 0 0 1 0 1 0 #
coedge $-1 $181 $181 $215 $216 0 $141 $-1 #
coedge $-1 $182 $182 $217 $218 0 $143 $-1 #
point $-1 -177.952755905512 0 -379.92125984252 #
point $-1 -181.889763779528 0 -377.165354330709 #
loop $-1 $219 $148 $220 #
vertex $-1 $149 $221 #
ellipse-curve $-1 -170.472440944882 15.748031496063 -371.259842519685 0 0 1 4.33070866141732 0 0 1 #
loop $-1 $-1 $222 $189 #
face $-1 $223 $150 $2 $-1 $224 reversed single #
point $-1 -166.141732283465 -15.748031496063 -371.259842519685 #
coedge $-1 $191 $191 $225 $226 1 $155 $-1 #
coedge $-1 $192 $192 $156 $193 0 $227 $-1 #
edge $-1 $228 $228 $192 $229 0 #
coedge $-1 $158 $157 $173 $206 1 $100 $-1 #
coedge $-1 $161 $168 $157 $196 1 $115 $-1 #
edge $-1 $200 $209 $195 $230 0 #
coedge $-1 $170 $163 $158 $198 1 $171 $-1 #
edge $-1 $207 $199 $158 $231 0 #
vertex $-1 $160 $232 #
vertex $-1 $196 $233 #
straight-curve $-1 -209.842519685039 23.6220472440945 -388.188976377953 0 0 1 #
straight-curve $-1 -209.842519685039 0 -371.259842519685 0 1 0 #
straight-curve $-1 -209.842519685039 0 -388.188976377953 0 -1 0 #
point $-1 -209.842519685039 -23.6220472440945 -388.188976377953 #
point $-1 -209.842519685039 -23.6220472440945 -371.259842519685 #
edge $-1 $207 $209 $194 $234 0 #
vertex $-1 $206 $235 #
straight-curve $-1 -131.102362204724 0 -388.188976377953 0 1 0 #
vertex $-1 $175 $236 #
straight-curve $-1 -131.102362204724 0 -371.259842519685 0 -1 0 #
face $-1 $189 $237 $2 $-1 $238 reversed single #
loop $-1 $227 $239 $178 #
cone-surface $-1 -170.472440944882 -15.748031496063 -388.188976377953 0 0 1 2.75590551181102 0 0 1 0 1 0 #
loop $-1 $-1 $217 $140 #
coedge $-1 $215 $215 $181 $216 1 $179 $-1 #
edge $-1 $240 $240 $181 $241 0 #
coedge $-1 $217 $217 $182 $218 1 $214 $-1 #
edge $-1 $242 $242 $182 $243 0 #
loop $-1 $-1 $244 $220 #
face $-1 $40 $185 $2 $-1 $245 reversed single #
point $-1 -166.141732283465 15.748031496063 -371.259842519685 #
coedge $-1 $222 $222 $246 $247 1 $188 $-1 #
face $-1 $248 $249 $2 $-1 $250 reversed single #
cone-surface $-1 -170.472440944882 -15.748031496063 -375.984251968504 0 0 1 4.33070866141732 0 0 1 0 1 0 #
coedge $-1 $225 $225 $191 $226 0 $251 $-1 #
edge $-1 $252 $252 $225 $253 0 #
loop $-1 $-1 $192 $178 #
vertex $-1 $193 $254 #
ellipse-curve $-1 -170.472440944882 -15.748031496063 -388.188976377953 0 0 -1 -2.75590551181102 0 0 1 #
straight-curve $-1 -170.472440944882 23.6220472440945 -371.259842519685 1 0 0 #
straight-curve $-1 -170.472440944882 23.6220472440945 -388.188976377953 -1 0 0 #
point $-1 -209.842519685039 23.6220472440945 -388.188976377953 #
point $-1 -209.842519685039 23.6220472440945 -371.259842519685 #
straight-curve $-1 -131.102362204724 23.6220472440945 -388.188976377953 0 0 1 #
point $-1 -131.102362204724 23.6220472440945 -388.188976377953 #
point $-1 -131.102362204724 23.6220472440945 -371.259842519685 #
loop $-1 $255 $246 $211 #
plane-surface $-1 -170.472440944882 -15.748031496063 -375.984251968504 0 0 -1 -1 0 0 0 #
coedge $-1 $239 $239 $256 $257 0 $212 $-1 #
vertex $-1 $216 $258 #
ellipse-curve $-1 -198.425196850394 0 -379.92125984252 0 0 1 1.96850393700787 0 0 1 #
vertex $-1 $218 $259 #
ellipse-curve $-1 -198.425196850394 0 -377.165354330709 0 0 -1 -1.96850393700787 0 0 1 #
coedge $-1 $244 $244 $260 $261 1 $219 $-1 #
cone-surface $-1 -170.472440944882 15.748031496063 -375.984251968504 0 0 1 4.33070866141732 0 0 1 0 1 0 #
coedge $-1 $246 $246 $222 $247 0 $237 $-1 #
edge $-1 $262 $262 $246 $263 0 #
face $-1 $220 $264 $2 $-1 $265 reversed single #
loop $-1 $251 $266 $223 #
cone-surface $-1 -170.472440944882 15.748031496063 -388.188976377953 0 0 1 2.75590551181102 0 0 1 0 1 0 #
loop $-1 $-1 $225 $223 #
vertex $-1 $226 $267 #
ellipse-curve $-1 -170.472440944882 15.748031496063 -388.188976377953 0 0 -1 -2.75590551181102 0 0 1 #
point $-1 -173.228346456693 -15.748031496063 -388.188976377953 #
loop $-1 $-1 $256 $211 #
coedge $-1 $256 $256 $239 $257 1 $255 $-1 #
edge $-1 $268 $268 $239 $269 0 #
point $-1 -196.456692913386 0 -379.92125984252 #
point $-1 -200.393700787402 0 -377.165354330709 #
coedge $-1 $260 $260 $244 $261 0 $264 $-1 #
edge $-1 $270 $270 $260 $271 0 #
vertex $-1 $247 $272 #
ellipse-curve $-1 -170.472440944882 -15.748031496063 -375.984251968504 0 0 1 4.33070866141732 0 0 1 #
loop $-1 $273 $260 $248 #
plane-surface $-1 -170.472440944882 15.748031496063 -375.984251968504 0 0 -1 -1 0 0 0 #
coedge $-1 $266 $266 $274 $275 0 $249 $-1 #
point $-1 -173.228346456693 15.748031496063 -388.188976377953 #
vertex $-1 $257 $276 #
ellipse-curve $-1 -170.472440944882 -15.748031496063 -375.984251968504 0 0 1 -2.75590551181102 0 0 1 #
vertex $-1 $261 $277 #
ellipse-curve $-1 -170.472440944882 15.748031496063 -375.984251968504 0 0 1 4.33070866141732 0 0 1 #
point $-1 -166.141732283465 -15.748031496063 -375.984251968504 #
loop $-1 $-1 $274 $248 #
coedge $-1 $274 $274 $266 $275 1 $273 $-1 #
edge $-1 $278 $278 $266 $279 0 #
point $-1 -173.228346456693 -15.748031496063 -375.984251968504 #
point $-1 -166.141732283465 15.748031496063 -375.984251968504 #
vertex $-1 $275 $280 #
ellipse-curve $-1 -170.472440944882 15.748031496063 -375.984251968504 0 0 1 -2.75590551181102 0 0 1 #
point $-1 -173.228346456693 15.748031496063 -375.984251968504 #
