600 0 1 0           
101 GICL ACIS Healer - Source: /gicl/data5/repository/Parasolid/NIST/Pete_Brown/ss_base/ss_base.sat - 6 0 18 ACIS 6.0.3 Solaris 24 Sun Apr 14 00:31:45 2002 
1 9.999999999999999547e-07 1.000000000000000036e-10 
body $-1 $1 $-1 $-1 #
lump $-1 $-1 $2 $0 #
shell $-1 $-1 $-1 $3 $-1 $1 #
face $-1 $4 $5 $2 $-1 $6 reversed single #
face $-1 $7 $8 $2 $-1 $9 reversed single #
loop $-1 $10 $11 $3 #
cone-surface $-1 -142.519685039369989 0 -377.1653543307090217 0 0 1 1.968503937007870075 0 0 1 I I 0.6950220968474749572 0.7189883760491120324 1.968503937007870075 forward I I I I #
face $-1 $12 $13 $2 $-1 $14 reversed single #
loop $-1 $-1 $15 $4 #
plane-surface $-1 -142.519685039369989 0 -379.9212598425199872 0 0 -1 -1 0 0 forward_v I I I I #
loop $-1 $-1 $16 $3 #
coedge $-1 $11 $11 $17 $18 forward $5 $-1 #
face $-1 $19 $20 $2 $-1 $21 reversed single #
loop $-1 $22 $23 $7 #
cone-surface $-1 -142.519685039369989 0 -377.1653543307090217 0 0 -1 -1.968503937007870075 0 0 1 I I 0 1 1.968503937007870075 forward I I I I #
coedge $-1 $15 $15 $23 $24 forward $8 $-1 #
coedge $-1 $16 $16 $25 $26 forward $10 $-1 #
coedge $-1 $17 $17 $11 $18 reversed $27 $-1 #
edge $-1 $28 0 $28 6.283185307179586232 $11 $29 forward 7 unknown #
face $-1 $30 $31 $2 $-1 $32 reversed single #
loop $-1 $33 $34 $12 #
cone-surface $-1 -161.0236220472440039 0 -377.1653543307090217 0 0 1 1.968503937007870075 0 0 1 I I 0.6950220968474749572 0.7189883760491120324 1.968503937007870075 forward I I I I #
loop $-1 $-1 $25 $7 #
coedge $-1 $23 $23 $15 $24 reversed $13 $-1 #
edge $-1 $35 0 $35 6.283185307179586232 $15 $36 forward 7 unknown #
coedge $-1 $25 $25 $16 $26 reversed $22 $-1 #
edge $-1 $37 0 $37 6.283185307179586232 $16 $38 forward 7 unknown #
loop $-1 $39 $17 $40 #
vertex $-1 $18 $41 #
ellipse-curve $-1 -142.519685039369989 0 -371.2598425196849803 0 0 1 7.677165354330710123 0 0 1 I I #
face $-1 $42 $43 $2 $-1 $44 reversed single #
loop $-1 $-1 $45 $19 #
plane-surface $-1 -161.0236220472440039 0 -379.9212598425199872 0 0 -1 -1 0 0 forward_v I I I I #
loop $-1 $-1 $46 $12 #
coedge $-1 $34 $34 $47 $48 forward $20 $-1 #
vertex $-1 $24 $49 #
ellipse-curve $-1 -142.519685039369989 0 -379.9212598425199872 0 0 1 1.968503937007870075 0 0 1 I I #
vertex $-1 $26 $50 #
ellipse-curve $-1 -142.519685039369989 0 -377.1653543307090217 0 0 -1 -1.968503937007870075 0 0 1 I I #
loop $-1 $51 $47 $40 #
face $-1 $52 $27 $2 $-1 $53 forward single #
point $-1 -134.842519685039008 0 -371.2598425196849803 #
face $-1 $54 $55 $2 $-1 $56 reversed single #
loop $-1 $57 $58 $30 #
cone-surface $-1 -161.0236220472440039 0 -377.1653543307090217 0 0 -1 -1.968503937007870075 0 0 1 I I 0 1 1.968503937007870075 forward I I I I #
coedge $-1 $45 $45 $58 $59 forward $31 $-1 #
coedge $-1 $46 $46 $60 $61 forward $33 $-1 #
coedge $-1 $47 $47 $34 $48 reversed $39 $-1 #
edge $-1 $62 0 $62 6.283185307179586232 $34 $63 forward 7 unknown #
point $-1 -140.5511811023619941 0 -379.9212598425199872 #
point $-1 -144.4881889763780123 0 -377.1653543307090217 #
loop $-1 $64 $65 $40 #
face $-1 $66 $67 $2 $-1 $68 forward single #
plane-surface $-1 -170.4724409448820097 0 -371.2598425196849803 0 0 1 1 0 0 forward_v I I I I #
face $-1 $69 $70 $2 $-1 $71 reversed single #
loop $-1 $72 $73 $42 #
cone-surface $-1 -179.9212598425199872 0 -377.1653543307090217 0 0 1 1.968503937007870075 0 0 1 I I 0.6950220968474749572 0.7189883760491120324 1.968503937007870075 forward I I I I #
loop $-1 $-1 $60 $30 #
coedge $-1 $58 $58 $45 $59 reversed $43 $-1 #
edge $-1 $74 0 $74 6.283185307179586232 $45 $75 forward 7 unknown #
coedge $-1 $60 $60 $46 $61 reversed $57 $-1 #
edge $-1 $76 0 $76 6.283185307179586232 $46 $77 forward 7 unknown #
vertex $-1 $48 $78 #
ellipse-curve $-1 -161.0236220472440039 0 -371.2598425196849803 0 0 1 7.677165354330710123 0 0 1 I I #
loop $-1 $79 $80 $40 #
coedge $-1 $65 $65 $73 $81 reversed $51 $-1 #
face $-1 $82 $83 $2 $-1 $84 forward single #
loop $-1 $-1 $85 $52 #
plane-surface $-1 -170.4724409448820097 -23.62204724409449952 -388.1889763779529972 0 -1 0 0 0 -1 forward_v I I I I #
face $-1 $86 $87 $2 $-1 $88 reversed single #
loop $-1 $-1 $89 $54 #
plane-surface $-1 -179.9212598425199872 0 -379.9212598425199872 0 0 -1 -1 0 0 forward_v I I I I #
loop $-1 $-1 $90 $42 #
coedge $-1 $73 $73 $65 $81 forward $55 $-1 #
vertex $-1 $59 $91 #
ellipse-curve $-1 -161.0236220472440039 0 -379.9212598425199872 0 0 1 1.968503937007870075 0 0 1 I I #
vertex $-1 $61 $92 #
ellipse-curve $-1 -161.0236220472440039 0 -377.1653543307090217 0 0 -1 -1.968503937007870075 0 0 1 I I #
point $-1 -153.3464566929129944 0 -371.2598425196849803 #
loop $-1 $93 $94 $40 #
coedge $-1 $80 $80 $95 $96 reversed $64 $-1 #
edge $-1 $97 0 $97 6.283185307179586232 $73 $98 forward 7 unknown #
face $-1 $99 $100 $2 $-1 $101 forward single #
loop $-1 $-1 $102 $66 #
plane-surface $-1 -209.842519685039008 0 -388.1889763779529972 -1 0 0 0 -0 1 forward_v I I I I #
coedge $-1 $103 $104 $105 $106 forward $67 $-1 #
face $-1 $107 $108 $2 $-1 $109 reversed single #
loop $-1 $110 $111 $69 #
cone-surface $-1 -179.9212598425199872 0 -377.1653543307090217 0 0 -1 -1.968503937007870075 0 0 1 I I 0 1 1.968503937007870075 forward I I I I #
coedge $-1 $89 $89 $111 $112 forward $70 $-1 #
coedge $-1 $90 $90 $113 $114 forward $72 $-1 #
point $-1 -159.055118110236009 0 -379.9212598425199872 #
point $-1 -162.9921259842519987 0 -377.1653543307090217 #
loop $-1 $115 $116 $40 #
coedge $-1 $94 $94 $117 $118 reversed $79 $-1 #
coedge $-1 $95 $95 $80 $96 forward $108 $-1 #
edge $-1 $119 0 $119 6.283185307179586232 $95 $120 forward 7 unknown #
vertex $-1 $81 $121 #
ellipse-curve $-1 -179.9212598425199872 0 -371.2598425196849803 0 0 1 7.677165354330710123 0 0 1 I I #
face $-1 $122 $123 $2 $-1 $124 forward single #
loop $-1 $-1 $125 $82 #
plane-surface $-1 -170.4724409448820097 23.62204724409449952 -388.1889763779529972 0 1 0 0 0 1 forward_v I I I I #
coedge $-1 $126 $127 $128 $129 forward $83 $-1 #
coedge $-1 $128 $85 $130 $131 forward $67 $-1 #
coedge $-1 $85 $128 $132 $133 forward $67 $-1 #
coedge $-1 $134 $135 $85 $106 reversed $136 $-1 #
edge $-1 $137 0 $138 16.92913385826801687 $85 $139 forward 7 unknown #
face $-1 $140 $141 $2 $-1 $142 reversed single #
loop $-1 $143 $95 $86 #
cone-surface $-1 -198.425196850394002 0 -377.1653543307090217 0 0 1 1.968503937007870075 0 0 1 I I 0.6950220968474749572 0.7189883760491120324 1.968503937007870075 forward I I I I #
loop $-1 $-1 $113 $69 #
coedge $-1 $111 $111 $89 $112 reversed $87 $-1 #
edge $-1 $144 0 $144 6.283185307179586232 $89 $145 forward 7 unknown #
coedge $-1 $113 $113 $90 $114 reversed $110 $-1 #
edge $-1 $146 0 $146 6.283185307179586232 $90 $147 forward 7 unknown #
loop $-1 $-1 $130 $40 #
coedge $-1 $116 $116 $148 $149 reversed $93 $-1 #
coedge $-1 $117 $117 $94 $118 forward $150 $-1 #
edge $-1 $151 0 $151 6.283185307179586232 $117 $152 forward 7 unknown #
vertex $-1 $96 $153 #
ellipse-curve $-1 -198.425196850394002 0 -371.2598425196849803 0 0 1 7.677165354330710123 0 0 1 I I #
point $-1 -172.2440944881890061 0 -371.2598425196849803 #
face $-1 $-1 $136 $2 $-1 $154 forward single #
loop $-1 $155 $156 $99 #
plane-surface $-1 -170.4724409448820097 0 -388.1889763779529972 0 0 -1 -1 0 0 forward_v I I I I #
coedge $-1 $157 $158 $159 $160 forward $100 $-1 #
coedge $-1 $159 $102 $161 $162 forward $83 $-1 #
coedge $-1 $102 $159 $163 $164 forward $83 $-1 #
coedge $-1 $104 $103 $102 $129 reversed $67 $-1 #
edge $-1 $165 0 $166 16.92913385826801687 $128 $167 forward 7 unknown #
coedge $-1 $168 $161 $103 $131 reversed $115 $-1 #
edge $-1 $138 -39.37007874015802145 $166 39.37007874015699826 $130 $169 forward 7 unknown #
coedge $-1 $163 $170 $104 $133 reversed $171 $-1 #
edge $-1 $165 -39.37007874015699826 $137 39.37007874015802145 $104 $172 forward 7 unknown #
coedge $-1 $173 $105 $170 $174 forward $136 $-1 #
coedge $-1 $105 $173 $168 $175 forward $136 $-1 #
loop $-1 $-1 $134 $122 #
vertex $-1 $106 $176 #
vertex $-1 $131 $177 #
straight-curve $-1 -131.1023622047239883 -23.62204724409449952 -388.1889763779529972 0 0 1 I I #
face $-1 $178 $179 $2 $-1 $180 reversed single #
loop $-1 $-1 $181 $107 #
plane-surface $-1 -198.425196850394002 0 -379.9212598425199872 0 0 -1 -1 0 0 forward_v I I I I #
loop $-1 $-1 $182 $86 #
vertex $-1 $112 $183 #
ellipse-curve $-1 -179.9212598425199872 0 -379.9212598425199872 0 0 1 1.968503937007870075 0 0 1 I I #
vertex $-1 $114 $184 #
ellipse-curve $-1 -179.9212598425199872 0 -377.1653543307090217 0 0 -1 -1.968503937007870075 0 0 1 I I #
coedge $-1 $148 $148 $116 $149 forward $185 $-1 #
edge $-1 $186 0 $186 6.283185307179586232 $148 $187 forward 7 unknown #
loop $-1 $188 $117 $189 #
vertex $-1 $118 $190 #
ellipse-curve $-1 -170.4724409448820097 -15.74803149606299968 -371.2598425196849803 0 0 1 4.330708661417319583 0 0 1 I I #
point $-1 -190.7480314960629926 0 -371.2598425196849803 #
plane-surface $-1 -131.1023622047239883 0 -388.1889763779529972 1 0 0 0 0 -1 forward_v I I I I #
loop $-1 $171 $191 $99 #
coedge $-1 $156 $156 $192 $193 reversed $123 $-1 #
coedge $-1 $194 $125 $195 $196 forward $100 $-1 #
coedge $-1 $125 $194 $197 $198 forward $100 $-1 #
coedge $-1 $127 $126 $125 $160 reversed $83 $-1 #
edge $-1 $199 0 $200 16.92913385826801687 $159 $201 forward 7 unknown #
coedge $-1 $130 $195 $126 $162 reversed $115 $-1 #
edge $-1 $166 -23.62204724409449952 $200 23.62204724409449952 $161 $202 forward 7 unknown #
coedge $-1 $197 $132 $127 $164 reversed $171 $-1 #
edge $-1 $199 -23.62204724409449952 $165 23.62204724409449952 $127 $203 forward 7 unknown #
vertex $-1 $129 $204 #
vertex $-1 $131 $205 #
straight-curve $-1 -209.842519685039008 -23.62204724409449952 -388.1889763779529972 0 0 1 I I #
coedge $-1 $195 $130 $135 $175 reversed $115 $-1 #
straight-curve $-1 -170.4724409448820097 -23.62204724409449952 -371.2598425196849803 -1 0 0 I I #
coedge $-1 $132 $197 $134 $174 reversed $171 $-1 #
loop $-1 $-1 $170 $99 #
straight-curve $-1 -170.4724409448820097 -23.62204724409449952 -388.1889763779529972 1 0 0 I I #
coedge $-1 $135 $134 $194 $206 forward $136 $-1 #
edge $-1 $137 -23.62204724409449952 $207 23.62204724409449952 $170 $208 forward 7 unknown #
edge $-1 $209 -23.62204724409449952 $138 23.62204724409449952 $168 $210 forward 7 unknown #
point $-1 -131.1023622047239883 -23.62204724409449952 -388.1889763779529972 #
point $-1 -131.1023622047239883 -23.62204724409449952 -371.2598425196849803 #
face $-1 $211 $212 $2 $-1 $213 reversed single #
loop $-1 $214 $215 $140 #
cone-surface $-1 -198.425196850394002 0 -377.1653543307090217 0 0 -1 -1.968503937007870075 0 0 1 I I 0 1 1.968503937007870075 forward I I I I #
coedge $-1 $181 $181 $215 $216 forward $141 $-1 #
coedge $-1 $182 $182 $217 $218 forward $143 $-1 #
point $-1 -177.9527559055119923 0 -379.9212598425199872 #
point $-1 -181.8897637795280104 0 -377.1653543307090217 #
loop $-1 $219 $148 $220 #
vertex $-1 $149 $221 #
ellipse-curve $-1 -170.4724409448820097 15.74803149606299968 -371.2598425196849803 0 0 1 4.330708661417319583 0 0 1 I I #
loop $-1 $-1 $222 $189 #
face $-1 $223 $150 $2 $-1 $224 reversed single #
point $-1 -166.1417322834649895 -15.74803149606299968 -371.2598425196849803 #
coedge $-1 $191 $191 $225 $226 reversed $155 $-1 #
coedge $-1 $192 $192 $156 $193 forward $227 $-1 #
edge $-1 $228 0 $228 6.283185307179586232 $192 $229 forward 7 unknown #
coedge $-1 $158 $157 $173 $206 reversed $100 $-1 #
coedge $-1 $161 $168 $157 $196 reversed $115 $-1 #
edge $-1 $200 -39.37007874015699826 $209 39.37007874015802145 $195 $230 forward 7 unknown #
coedge $-1 $170 $163 $158 $198 reversed $171 $-1 #
edge $-1 $207 -39.37007874015802145 $199 39.37007874015699826 $158 $231 forward 7 unknown #
vertex $-1 $160 $232 #
vertex $-1 $196 $233 #
straight-curve $-1 -209.842519685039008 23.62204724409449952 -388.1889763779529972 0 0 1 I I #
straight-curve $-1 -209.842519685039008 0 -371.2598425196849803 0 1 0 I I #
straight-curve $-1 -209.842519685039008 0 -388.1889763779529972 0 -1 0 I I #
point $-1 -209.842519685039008 -23.62204724409449952 -388.1889763779529972 #
point $-1 -209.842519685039008 -23.62204724409449952 -371.2598425196849803 #
edge $-1 $207 0 $209 16.92913385826801687 $194 $234 forward 7 unknown #
vertex $-1 $206 $235 #
straight-curve $-1 -131.1023622047239883 0 -388.1889763779529972 0 1 0 I I #
vertex $-1 $175 $236 #
straight-curve $-1 -131.1023622047239883 0 -371.2598425196849803 0 -1 0 I I #
face $-1 $189 $237 $2 $-1 $238 reversed single #
loop $-1 $227 $239 $178 #
cone-surface $-1 -170.4724409448820097 -15.74803149606299968 -388.1889763779529972 0 0 1 2.755905511811020059 0 0 1 I I 0 1 2.755905511811020059 forward I I I I #
loop $-1 $-1 $217 $140 #
coedge $-1 $215 $215 $181 $216 reversed $179 $-1 #
edge $-1 $240 0 $240 6.283185307179586232 $181 $241 forward 7 unknown #
coedge $-1 $217 $217 $182 $218 reversed $214 $-1 #
edge $-1 $242 0 $242 6.283185307179586232 $182 $243 forward 7 unknown #
loop $-1 $-1 $244 $220 #
face $-1 $40 $185 $2 $-1 $245 reversed single #
point $-1 -166.1417322834649895 15.74803149606299968 -371.2598425196849803 #
coedge $-1 $222 $222 $246 $247 reversed $188 $-1 #
face $-1 $248 $249 $2 $-1 $250 reversed single #
cone-surface $-1 -170.4724409448820097 -15.74803149606299968 -375.9842519685039974 0 0 1 4.330708661417319583 0 0 1 I I 0 1 4.330708661417319583 forward I I I I #
coedge $-1 $225 $225 $191 $226 forward $251 $-1 #
edge $-1 $252 0 $252 6.283185307179586232 $225 $253 forward 7 unknown #
loop $-1 $-1 $192 $178 #
vertex $-1 $193 $254 #
ellipse-curve $-1 -170.4724409448820097 -15.74803149606299968 -388.1889763779529972 0 0 -1 -2.755905511811020059 0 0 1 I I #
straight-curve $-1 -170.4724409448820097 23.62204724409449952 -371.2598425196849803 1 0 0 I I #
straight-curve $-1 -170.4724409448820097 23.62204724409449952 -388.1889763779529972 -1 0 0 I I #
point $-1 -209.842519685039008 23.62204724409449952 -388.1889763779529972 #
point $-1 -209.842519685039008 23.62204724409449952 -371.2598425196849803 #
straight-curve $-1 -131.1023622047239883 23.62204724409449952 -388.1889763779529972 0 0 1 I I #
point $-1 -131.1023622047239883 23.62204724409449952 -388.1889763779529972 #
point $-1 -131.1023622047239883 23.62204724409449952 -371.2598425196849803 #
loop $-1 $255 $246 $211 #
plane-surface $-1 -170.4724409448820097 -15.74803149606299968 -375.9842519685039974 0 0 -1 -1 0 0 forward_v I I I I #
coedge $-1 $239 $239 $256 $257 forward $212 $-1 #
vertex $-1 $216 $258 #
ellipse-curve $-1 -198.425196850394002 0 -379.9212598425199872 0 0 1 1.968503937007870075 0 0 1 I I #
vertex $-1 $218 $259 #
ellipse-curve $-1 -198.425196850394002 0 -377.1653543307090217 0 0 -1 -1.968503937007870075 0 0 1 I I #
coedge $-1 $244 $244 $260 $261 reversed $219 $-1 #
cone-surface $-1 -170.4724409448820097 15.74803149606299968 -375.9842519685039974 0 0 1 4.330708661417319583 0 0 1 I I 0 1 4.330708661417319583 forward I I I I #
coedge $-1 $246 $246 $222 $247 forward $237 $-1 #
edge $-1 $262 0 $262 6.283185307179586232 $246 $263 forward 7 unknown #
face $-1 $220 $264 $2 $-1 $265 reversed single #
loop $-1 $251 $266 $223 #
cone-surface $-1 -170.4724409448820097 15.74803149606299968 -388.1889763779529972 0 0 1 2.755905511811020059 0 0 1 I I 0 1 2.755905511811020059 forward I I I I #
loop $-1 $-1 $225 $223 #
vertex $-1 $226 $267 #
ellipse-curve $-1 -170.4724409448820097 15.74803149606299968 -388.1889763779529972 0 0 -1 -2.755905511811020059 0 0 1 I I #
point $-1 -173.2283464566930036 -15.74803149606299968 -388.1889763779529972 #
loop $-1 $-1 $256 $211 #
coedge $-1 $256 $256 $239 $257 reversed $255 $-1 #
edge $-1 $268 0 $268 6.283185307179586232 $239 $269 forward 7 unknown #
point $-1 -196.4566929133860071 0 -379.9212598425199872 #
point $-1 -200.3937007874019969 0 -377.1653543307090217 #
coedge $-1 $260 $260 $244 $261 forward $264 $-1 #
edge $-1 $270 0 $270 6.283185307179586232 $260 $271 forward 7 unknown #
vertex $-1 $247 $272 #
ellipse-curve $-1 -170.4724409448820097 -15.74803149606299968 -375.9842519685039974 0 0 1 4.330708661417319583 0 0 1 I I #
loop $-1 $273 $260 $248 #
plane-surface $-1 -170.4724409448820097 15.74803149606299968 -375.9842519685039974 0 0 -1 -1 0 0 forward_v I I I I #
coedge $-1 $266 $266 $274 $275 forward $249 $-1 #
point $-1 -173.2283464566930036 15.74803149606299968 -388.1889763779529972 #
vertex $-1 $257 $276 #
ellipse-curve $-1 -170.4724409448820097 -15.74803149606299968 -375.9842519685039974 0 0 1 -2.755905511811020059 0 0 1 I I #
vertex $-1 $261 $277 #
ellipse-curve $-1 -170.4724409448820097 15.74803149606299968 -375.9842519685039974 0 0 1 4.330708661417319583 0 0 1 I I #
point $-1 -166.1417322834649895 -15.74803149606299968 -375.9842519685039974 #
loop $-1 $-1 $274 $248 #
coedge $-1 $274 $274 $266 $275 reversed $273 $-1 #
edge $-1 $278 0 $278 6.283185307179586232 $266 $279 forward 7 unknown #
point $-1 -173.2283464566930036 -15.74803149606299968 -375.9842519685039974 #
point $-1 -166.1417322834649895 15.74803149606299968 -375.9842519685039974 #
vertex $-1 $275 $280 #
ellipse-curve $-1 -170.4724409448820097 15.74803149606299968 -375.9842519685039974 0 0 1 -2.755905511811020059 0 0 1 I I #
point $-1 -173.2283464566930036 15.74803149606299968 -375.9842519685039974 #
End-of-ACIS-data 