**ABCDEFGHIJKLMNOPQRSTUVWXYZabcdefghijklmnopqrstuvwxyz**************************
**PARASOLID !"#$%&'()*+,-./:;<=>?@[\]^_`{|}~0123456789**************************
**PART1;MC=sparc;MC_MODEL=sun4c;MC_ID=chaos;OS=SunOS;OS_RELEASE=4.1.2;FRU=sdl_pa
rasolid_test_sparc;APPL=unknown;SITE=sdl-cambridge-u.k.;USER=brown;FORMAT=text;G
UISE=transmit;KEY=ss_base;FILE=ss_base.xmt_txt;DATE=14-feb-1992;
**PART2;SCH=SCH_401021_4039;USFLD_SIZE=0;
**PART3;
**END_OF_HEADER*****************************************************************
T50 : TRANSMIT FILE created by modeller version 40102115 SCH_401021_40390 12 1 2
60 2 3 0 0 0 1e3 1e-8 4 2 0 5 6 1 7 1e-8 0 0 81 2 2 260 8 1 0 0 0 0 9 10 70 3 0
 1 0 0 4 1 20 4 11 11 1 102 7 4 ss_base13 7 2 0 1 0 12 13 14 15 16 17 14 12 242
 0 18 0 19 7 15 -16 13 251 0 20 0 21 16 18 14 20 0 22 0 23 17 52 15 253 0 12 24
 0 0 +-3.62 0 -9.58 0 0 1 .05 .695022096847475 .718988376049112 1 0 0 31 16 258
 0 13 25 0 0 +1e-8 -3.62 0 -9.65 0 0 1 1 0 0 .05 29 17 55 0 14 26 0 -5.33 -.6 -9
.43 29 26 54 0 23 27 17 -5.33 .6 -9.43 18 23 18 0 28 14 29 26 29 27 53 0 29 30 2
6 -3.33 .6 -9.43 18 29 16 0 31 23 32 27 29 30 52 0 32 33 27 -3.33 -.6 -9.43 18 3
2 14 0 34 29 35 30 29 33 38 0 36 37 30 -5.33 -.6 -9.86 18 36 8 0 38 39 40 33 29
 37 37 0 39 41 33 -5.33 .6 -9.86 18 39 10 0 42 35 36 37 29 41 36 0 35 43 37 -3.3
3 .6 -9.86 18 35 12 0 44 32 39 41 29 43 35 0 40 0 41 -3.33 -.6 -9.86 18 40 7 0 4
5 36 0 43 17 45 46 34 47 40 48 49 0 15 46 29 0 34 50 0 17 34 46 51 45 32 52 53 0
 17 47 46 45 51 36 22 54 0 17 48 55 56 57 36 45 49 0 16 49 9 0 45 58 59 60 16 58
 11 0 38 61 49 62 16 59 3 0 44 49 0 63 30 60 39 0 49 0 63 0 +1e-8 -4.33 -.6 -9.8
6 1 0 0 30 63 40 0 59 60 64 0 +1e-8 -3.33 0 -9.86 0 1 0 30 64 41 0 61 63 62 0 +1
e-8 -4.33 .6 -9.86 -1 0 0 16 61 13 0 42 53 58 64 30 62 42 0 58 64 65 0 +1e-8 -5.
33 0 -9.86 0 -1 0 30 65 47 0 53 62 66 0 +1e-8 -3.33 -.6 -9.86 0 0 1 16 53 15 0 3
4 67 61 65 30 66 48 0 67 65 68 0 +1e-8 -3.33 .6 -9.86 0 0 1 16 67 17 0 31 69 53
 66 30 68 49 0 69 66 70 0 +1e-8 -5.33 .6 -9.86 0 0 1 16 69 19 0 28 54 67 68 30 7
0 50 0 54 68 71 0 +1e-8 -5.33 -.6 -9.86 0 0 1 16 54 21 0 22 72 69 70 30 71 56 0
 72 70 73 0 +1e-8 -3.33 0 -9.43 0 -1 0 16 72 22 0 74 75 54 71 30 73 57 0 75 71 7
6 0 +1e-8 -4.33 .6 -9.43 1 0 0 16 75 25 0 77 78 72 73 30 76 58 0 78 73 79 0 +1e-
8 -5.33 0 -9.43 0 1 0 16 78 28 0 80 81 75 76 30 79 59 0 81 76 82 0 +1e-8 -4.33 -
.6 -9.43 -1 0 0 16 81 31 0 51 83 78 79 31 82 63 0 83 79 84 0 +1e-8 -4.33 .4 -9.8
6 0 0 -1 -1 0 0 .07 16 83 60 0 85 86 81 82 31 84 69 0 86 82 87 0 +1e-8 -4.33 .4
 -9.43 0 0 1 1 0 0 .11 16 86 66 0 88 89 83 84 31 87 104 0 89 84 90 0 +1e-8 -4.33
 .4 -9.55 0 0 1 1 0 0 .11 16 89 93 0 91 92 86 87 31 90 102 0 92 87 93 0 -1e-8 -4
.33 .4 -9.55 0 0 -1 -1 0 0 .07 16 92 91 0 94 95 89 90 31 93 109 0 95 90 96 0 +1e
-8 -4.33 -.4 -9.86 0 0 -1 -1 0 0 .07 16 95 106 0 97 98 92 93 31 96 115 0 98 93 9
9 0 +1e-8 -4.33 -.4 -9.43 0 0 1 1 0 0 .11 16 98 112 0 100 101 95 96 31 99 150 0
 101 96 102 0 +1e-8 -4.33 -.4 -9.55 0 0 1 1 0 0 .11 16 101 139 0 103 104 98 99 3
1 102 148 0 104 99 105 0 -1e-8 -4.33 -.4 -9.55 0 0 -1 -1 0 0 .07 16 104 137 0 10
6 107 101 102 31 105 155 0 107 102 108 0 +1e-8 -5.04 0 -9.43 0 0 1 1 0 0 .195 16
 107 152 0 109 110 104 105 31 108 178 0 110 105 111 0 +1e-8 -5.04 0 -9.58 0 0 -1
 -1 0 0 .05 16 110 171 0 112 113 107 108 31 111 177 0 113 108 114 0 +1e-8 -5.04
 0 -9.65 0 0 1 1 0 0 .05 16 113 170 0 115 116 110 111 31 114 182 0 116 111 117 0
 +1e-8 -4.57 0 -9.43 0 0 1 1 0 0 .195 16 116 179 0 118 119 113 114 31 117 205 0
 119 114 120 0 +1e-8 -4.57 0 -9.58 0 0 -1 -1 0 0 .05 16 119 198 0 121 122 116 11
7 31 120 204 0 122 117 123 0 +1e-8 -4.57 0 -9.65 0 0 1 1 0 0 .05 16 122 197 0 12
4 125 119 120 31 123 209 0 125 120 126 0 +1e-8 -4.09 0 -9.43 0 0 1 1 0 0 .195 16
 125 206 0 127 128 122 123 31 126 232 0 128 123 129 0 +1e-8 -4.09 0 -9.58 0 0 -1
 -1 0 0 .05 16 128 225 0 130 131 125 126 31 129 231 0 131 126 132 0 +1e-8 -4.09
 0 -9.65 0 0 1 1 0 0 .05 16 131 224 0 133 134 128 129 31 132 236 0 134 129 25 0
 +1e-8 -3.62 0 -9.43 0 0 1 1 0 0 .195 16 134 233 0 135 21 131 132 31 25 259 0 21
 132 16 0 +1e-8 -3.62 0 -9.58 0 0 -1 -1 0 0 .05 16 21 252 0 136 13 134 25 17 136
 137 136 136 0 138 21 0 15 137 244 0 136 12 0 17 138 139 138 138 0 136 21 0 15 1
39 249 0 138 140 0 14 140 247 0 141 18 142 7 24 -14 141 215 0 143 140 144 7 145
 -14 18 245 0 140 12 146 7 147 -15 142 248 0 148 140 139 51 24 255 0 140 147 15
 0 +-3.62 0 -9.58 0 0 -1 .05 -1 0 0 50 147 256 0 18 145 24 0 +-3.62 0 -9.65 0 0
 -1 -1 0 0 52 145 226 0 141 149 147 0 +-4.09 0 -9.58 0 0 1 .05 .695022096847475
 .718988376049112 1 0 0 51 149 228 0 150 151 145 0 +-4.09 0 -9.58 0 0 -1 .05 -1
 0 0 14 150 220 0 152 143 153 7 149 -50 151 229 0 143 154 149 0 +-4.09 0 -9.65 0
 0 -1 -1 0 0 14 143 218 0 150 141 155 7 151 -52 154 199 0 152 156 151 0 +-4.57 0
 -9.58 0 0 1 .05 .695022096847475 .718988376049112 1 0 0 14 152 188 0 157 150 15
8 7 154 -51 156 201 0 159 160 154 0 +-4.57 0 -9.58 0 0 -1 .05 -1 0 0 14 159 193
 0 161 157 162 7 156 -50 160 202 0 157 163 156 0 +-4.57 0 -9.65 0 0 -1 -1 0 0 14
 157 191 0 159 152 164 7 160 -52 163 172 0 161 165 160 0 +-5.04 0 -9.58 0 0 1 .0
5 .695022096847475 .718988376049112 1 0 0 14 161 161 0 166 159 167 7 163 -51 165
 174 0 168 169 163 0 +-5.04 0 -9.58 0 0 -1 .05 -1 0 0 14 168 166 0 170 166 171 7
 165 -50 169 175 0 166 172 165 0 +-5.04 0 -9.65 0 0 -1 -1 0 0 14 166 164 0 168 1
61 173 7 169 -51 172 140 0 170 174 169 0 +-4.33 -.4 -9.86 0 0 1 .07 1 0 0 14 170
 121 0 175 168 176 7 172 -50 174 144 0 175 177 172 0 +-4.33 -.4 -9.55 0 0 -1 -1
 0 0 14 175 129 0 178 170 179 7 174 -51 177 145 0 178 180 174 0 +-4.33 -.4 -9.55
 0 0 1 .11 1 0 0 14 178 132 0 181 175 182 7 177 -51 180 94 0 181 183 177 0 +-4.3
3 .4 -9.86 0 0 1 .07 1 0 0 14 181 75 0 184 178 185 7 180 -50 183 98 0 184 186 18
0 0 +-4.33 .4 -9.55 0 0 -1 -1 0 0 14 184 83 0 187 181 188 7 183 -51 186 99 0 187
 189 183 0 +-4.33 .4 -9.55 0 0 1 .11 1 0 0 14 187 86 0 190 184 191 7 186 -50 189
 51 0 190 192 186 0 +-4.33 0 -9.43 0 0 1 1 0 0 14 190 33 0 50 187 193 7 189 +50
 192 46 0 50 194 189 0 +-4.33 -.6 -9.86 0 -1 0 0 0 -1 14 50 30 0 195 190 46 7 19
2 +50 194 45 0 195 196 192 0 +-5.33 0 -9.86 -1 0 0 0 0 1 14 195 27 0 197 50 198
 7 194 +50 196 44 0 197 199 194 0 +-4.33 .6 -9.86 0 1 0 0 0 1 14 197 24 0 200 19
5 201 7 196 +50 199 43 0 202 203 196 0 +-3.33 0 -9.86 1 0 0 0 0 -1 14 202 1 0 0
 200 204 7 199 +50 203 34 0 200 0 199 0 +-4.33 0 -9.86 0 0 -1 -1 0 0 14 200 6 0
 202 197 205 7 203 +15 205 108 0 206 200 207 17 206 205 206 206 0 97 95 0 15 207
 62 0 208 200 55 17 208 207 208 208 0 85 83 0 15 55 5 0 57 200 0 17 57 55 48 209
 40 44 59 0 17 209 55 57 56 35 42 61 0 17 44 204 31 52 35 57 59 0 15 204 4 0 44
 202 0 17 31 204 74 44 29 210 67 0 17 52 204 44 74 40 34 53 0 17 74 204 52 31 32
 211 72 0 17 211 212 213 214 29 74 72 0 15 212 32 0 214 190 0 17 213 212 215 211
 23 77 75 0 17 214 212 211 215 32 51 81 0 17 215 212 214 213 14 80 78 0 17 51 46
 47 34 14 214 81 0 17 80 198 216 22 23 215 78 0 15 198 26 0 22 195 0 17 216 198
 38 80 39 28 69 0 17 22 198 80 38 14 47 54 0 17 38 198 22 216 36 56 58 0 17 56 5
5 209 48 39 38 58 0 17 28 201 77 42 23 216 69 0 15 201 23 0 28 197 0 17 77 201 2
10 28 29 213 75 0 17 42 201 28 210 39 209 61 0 17 210 201 42 77 35 31 67 0 17 85
 217 85 85 0 208 83 0 15 217 77 0 85 181 0 17 97 218 97 97 0 206 95 0 15 218 123
 0 97 170 0 15 193 235 0 219 190 220 17 219 193 219 219 0 135 134 0 15 220 208 0
 221 190 222 17 221 220 221 221 0 127 125 0 15 222 181 0 223 190 224 17 223 222
 223 223 0 118 116 0 15 224 154 0 225 190 226 17 225 224 225 225 0 109 107 0 15
 226 114 0 227 190 228 17 227 226 227 227 0 100 98 0 15 228 68 0 229 190 212 17
 229 228 229 229 0 88 86 0 17 88 191 88 88 0 229 86 0 15 191 87 0 88 187 230 15
 230 88 0 231 187 0 17 231 230 231 231 0 91 89 0 17 91 188 91 91 0 231 89 0 15 1
88 84 0 91 184 232 15 232 85 0 233 184 0 17 233 232 233 233 0 94 92 0 17 94 185
 94 94 0 233 92 0 15 185 76 0 94 181 217 17 100 182 100 100 0 227 98 0 15 182 13
3 0 100 178 234 15 234 134 0 235 178 0 17 235 234 235 235 0 103 101 0 17 103 179
 103 103 0 235 101 0 15 179 130 0 103 175 236 15 236 131 0 237 175 0 17 237 236
 237 237 0 106 104 0 17 106 176 106 106 0 237 104 0 15 176 122 0 106 170 218 17
 109 167 109 109 0 225 107 0 15 167 162 0 109 161 238 15 238 163 0 112 161 0 17
 112 238 112 112 0 239 110 0 17 239 240 239 239 0 112 110 0 15 240 168 0 239 168
 0 17 118 158 118 118 0 223 116 0 15 158 189 0 118 152 241 15 241 190 0 121 152
 0 17 121 241 121 121 0 242 119 0 17 242 243 242 242 0 121 119 0 15 243 195 0 24
2 159 0 17 127 144 127 127 0 221 125 0 15 144 216 0 127 141 244 15 244 217 0 130
 141 0 17 130 244 130 130 0 245 128 0 17 245 246 245 245 0 130 128 0 15 246 222
 0 245 150 0 17 135 19 135 135 0 219 134 0 15 19 243 0 135 12 137 15 173 165 0 1
15 166 0 17 115 173 115 115 0 247 113 0 17 247 171 247 247 0 115 113 0 15 171 16
7 0 247 168 240 15 164 192 0 124 157 0 17 124 164 124 124 0 248 122 0 17 248 162
 248 248 0 124 122 0 15 162 194 0 248 159 243 15 155 219 0 133 143 0 17 133 155
 133 133 0 249 131 0 17 249 153 249 249 0 133 131 0 15 153 221 0 249 150 246 17
 148 142 148 148 0 20 13 0 17 20 146 20 20 0 148 13 0 15 146 246 0 20 18 0 74 20
 11 1 0 2 0 0 0 0 0 0 0 0 0 0 0 0 0 0 0 0 0 0 0 80 2 8 250 8004 251 0 0 0 0 3 5
 0 0 FFTFFFFFFFFF2 3 83 1 9 .28 84 7 10 density79 16 251 SDL/TYSA_DENSITY1 0 
