  0
SECTION
  2
HEADER
  9
$ACADVER
  1
AC1009
  9
$INSBASE
 10
0.0
 20
0.0
 30
0.0
  9
$EXTMIN
 10
-2.5
 20
0.0
 30
0.0
  9
$EXTMAX
 10
10.0
 20
10.0
 30
10.0
  9
$LIMMIN
 10
0.0
 20
0.0
  9
$LIMMAX
 10
12.0
 20
9.0
  9
$ORTHOMODE
 70
     0
  9
$REGENMODE
 70
     1
  9
$FILLMODE
 70
     1
  9
$QTEXTMODE
 70
     0
  9
$MIRRTEXT
 70
     1
  9
$DRAGMODE
 70
     2
  9
$LTSCALE
 40
1.0
  9
$OSMODE
 70
     0
  9
$ATTMODE
 70
     1
  9
$TEXTSIZE
 40
0.2
  9
$TRACEWID
 40
0.05
  9
$TEXTSTYLE
  7
STANDARD
  9
$CLAYER
  8
0
  9
$CELTYPE
  6
BYLAYER
  9
$CECOLOR
 62
   256
  9
$DIMSCALE
 40
1.0
  9
$DIMASZ
 40
0.18
  9
$DIMEXO
 40
0.0625
  9
$DIMDLI
 40
0.38
  9
$DIMRND
 40
0.0
  9
$DIMDLE
 40
0.0
  9
$DIMEXE
 40
0.18
  9
$DIMTP
 40
0.0
  9
$DIMTM
 40
0.0
  9
$DIMTXT
 40
0.18
  9
$DIMCEN
 40
0.09
  9
$DIMTSZ
 40
0.0
  9
$DIMTOL
 70
     0
  9
$DIMLIM
 70
     0
  9
$DIMTIH
 70
     1
  9
$DIMTOH
 70
     1
  9
$DIMSE1
 70
     0
  9
$DIMSE2
 70
     0
  9
$DIMTAD
 70
     0
  9
$DIMZIN
 70
     0
  9
$DIMBLK
  1

  9
$DIMASO
 70
     1
  9
$DIMSHO
 70
     1
  9
$DIMPOST
  1

  9
$DIMAPOST
  1

  9
$DIMALT
 70
     0
  9
$DIMALTD
 70
     2
  9
$DIMALTF
 40
25.4
  9
$DIMLFAC
 40
1.0
  9
$DIMTOFL
 70
     0
  9
$DIMTVP
 40
0.0
  9
$DIMTIX
 70
     0
  9
$DIMSOXD
 70
     0
  9
$DIMSAH
 70
     0
  9
$DIMBLK1
  1

  9
$DIMBLK2
  1

  9
$DIMSTYLE
  2
*UNNAMED
  9
$DIMCLRD
 70
     0
  9
$DIMCLRE
 70
     0
  9
$DIMCLRT
 70
     0
  9
$DIMTFAC
 40
1.0
  9
$DIMGAP
 40
0.09
  9
$LUNITS
 70
     2
  9
$LUPREC
 70
     4
  9
$SKETCHINC
 40
0.1
  9
$FILLETRAD
 40
0.0
  9
$AUNITS
 70
     0
  9
$AUPREC
 70
     0
  9
$MENU
  1
acad
  9
$ELEVATION
 40
0.0
  9
$PELEVATION
 40
0.0
  9
$THICKNESS
 40
0.0
  9
$LIMCHECK
 70
     0
  9
$BLIPMODE
 70
     1
  9
$CHAMFERA
 40
0.0
  9
$CHAMFERB
 40
0.0
  9
$SKPOLY
 70
     0
  9
$TDCREATE
 40
2449155.356904537
  9
$TDUPDATE
 40
2449155.356904537
  9
$TDINDWG
 40
0.0000000000
  9
$TDUSRTIMER
 40
0.0000000000
  9
$USRTIMER
 70
     1
  9
$ANGBASE
 50
0.0
  9
$ANGDIR
 70
     0
  9
$PDMODE
 70
     0
  9
$PDSIZE
 40
0.0
  9
$PLINEWID
 40
0.0
  9
$COORDS
 70
     0
  9
$SPLFRAME
 70
     0
  9
$SPLINETYPE
 70
     6
  9
$SPLINESEGS
 70
     8
  9
$ATTDIA
 70
     0
  9
$ATTREQ
 70
     1
  9
$HANDLING
 70
     1
  9
$HANDSEED
  5
F2
  9
$SURFTAB1
 70
     6
  9
$SURFTAB2
 70
     6
  9
$SURFTYPE
 70
     6
  9
$SURFU
 70
     6
  9
$SURFV
 70
     6
  9
$UCSNAME
  2

  9
$UCSORG
 10
0.0
 20
0.0
 30
0.0
  9
$UCSXDIR
 10
1.0
 20
0.0
 30
0.0
  9
$UCSYDIR
 10
0.0
 20
1.0
 30
0.0
  9
$PUCSNAME
  2

  9
$PUCSORG
 10
0.0
 20
0.0
 30
0.0
  9
$PUCSXDIR
 10
1.0
 20
0.0
 30
0.0
  9
$PUCSYDIR
 10
0.0
 20
1.0
 30
0.0
  9
$USERI1
 70
     0
  9
$USERI2
 70
     0
  9
$USERI3
 70
     0
  9
$USERI4
 70
     0
  9
$USERI5
 70
     0
  9
$USERR1
 40
0.0
  9
$USERR2
 40
0.0
  9
$USERR3
 40
0.0
  9
$USERR4
 40
0.0
  9
$USERR5
 40
0.0
  9
$WORLDVIEW
 70
     1
  9
$SHADEDGE
 70
     3
  9
$SHADEDIF
 70
    70
  9
$TILEMODE
 70
     1
  9
$MAXACTVP
 70
    16
  9
$PINSBASE
 10
0.0
 20
0.0
 30
0.0
  9
$PLIMCHECK
 70
     0
  9
$PEXTMIN
 10
1.000000E+20
 20
1.000000E+20
 30
1.000000E+20
  9
$PEXTMAX
 10
-1.000000E+20
 20
-1.000000E+20
 30
-1.000000E+20
  9
$PLIMMIN
 10
0.0
 20
0.0
  9
$PLIMMAX
 10
12.0
 20
9.0
  9
$UNITMODE
 70
     0
  9
$VISRETAIN
 70
     0
  9
$PLINEGEN
 70
     0
  9
$PSLTSCALE
 70
     0
  9
$TREEDEPTH
 70
  3020
  9
$DWGCODEPAGE
  3
undefined
  0
ENDSEC
  0
SECTION
  2
TABLES
  0
TABLE
  2
VPORT
 70
     2
  0
VPORT
  2
*ACTIVE
 70
     0
 10
0.0
 20
0.0
 11
1.0
 21
1.0
 12
0.687599
 22
4.982729
 13
0.0
 23
0.0
 14
1.0
 24
1.0
 15
0.0
 25
0.0
 16
-25.0
 26
10.0
 36
20.0
 17
0.0
 27
0.0
 37
0.0
 40
17.162733
 41
1.594883
 42
50.0
 43
0.0
 44
0.0
 50
0.0
 51
0.0
 71
     0
 72
   100
 73
     1
 74
     1
 75
     0
 76
     0
 77
     0
 78
     0
  0
ENDTAB
  0
TABLE
  2
LTYPE
 70
     1
  0
LTYPE
  2
CONTINUOUS
 70
    64
  3
Solid line
 72
    65
 73
     0
 40
0.0
  0
ENDTAB
  0
TABLE
  2
LAYER
 70
     2
  0
LAYER
  2
0
 70
    64
 62
     7
  6
CONTINUOUS
  0
LAYER
  2
AME_FRZ
 70
    65
 62
     7
  6
CONTINUOUS
  0
ENDTAB
  0
TABLE
  2
STYLE
 70
     1
  0
STYLE
  2
STANDARD
 70
     0
 40
0.0
 41
1.0
 50
0.0
 71
     0
 42
0.2
  3
txt
  4

  0
ENDTAB
  0
TABLE
  2
VIEW
 70
     0
  0
ENDTAB
  0
TABLE
  2
UCS
 70
     0
  0
ENDTAB
  0
TABLE
  2
APPID
 70
     2
  0
APPID
  2
ACAD
 70
    64
  0
APPID
  2
AME_SOL
 70
    64
  0
ENDTAB
  0
TABLE
  2
DIMSTYLE
 70
     0
  0
ENDTAB
  0
ENDSEC
  0
SECTION
  2
BLOCKS
  0
BLOCK
  8
0
  5
1
  2
AME_NIL
 70
    64
 10
0.0
 20
0.0
 30
0.0
  1
AME_NIL
  3
AME_NIL
  0
ENDBLK
  8
0
  5
2
  0
BLOCK
  8
0
  5
4
  2
AME_SOL
 70
    64
 10
0.0
 20
0.0
 30
0.0
  1
AME_SOL
  3
AME_SOL
  0
ENDBLK
  8
0
  5
5
  0
BLOCK
  8
0
  5
7
  2
*U2
 70
    65
 10
0.0
 20
0.0
 30
0.0
  1
*U
  3
*U
  0
LINE
  8
0
 62
     0
  5
8
 10
10.0
 20
10.0
 30
0.0
 11
10.0
 21
10.0
 31
10.0
1001
AME_SOL
1070
     1
1071
       18
  0
LINE
  8
0
 62
     0
  5
9
 10
10.0
 20
10.0
 30
10.0
 11
10.0
 21
0.0
 31
10.0
1001
AME_SOL
1070
     1
1071
       17
  0
LINE
  8
0
 62
     0
  5
A
 10
0.0
 20
10.0
 30
10.0
 11
10.0
 21
10.0
 31
10.0
1001
AME_SOL
1070
     1
1071
       16
  0
LINE
  8
0
 62
     0
  5
B
 10
0.0
 20
10.0
 30
0.0
 11
0.0
 21
10.0
 31
10.0
1001
AME_SOL
1070
     1
1071
       15
  0
LINE
  8
0
 62
     0
  5
C
 10
0.0
 20
10.0
 30
10.0
 11
0.0
 21
0.0
 31
10.0
1001
AME_SOL
1070
     1
1071
       14
  0
LINE
  8
0
 62
     0
  5
D
 10
0.0
 20
0.0
 30
0.0
 11
0.0
 21
0.0
 31
10.0
1001
AME_SOL
1070
     1
1071
       13
  0
LINE
  8
0
 62
     0
  5
E
 10
10.0
 20
0.0
 30
10.0
 11
10.0
 21
0.0
 31
0.0
1001
AME_SOL
1070
     1
1071
       12
  0
LINE
  8
0
 62
     0
  5
F
 10
0.0
 20
0.0
 30
10.0
 11
10.0
 21
0.0
 31
10.0
1001
AME_SOL
1070
     1
1071
       11
  0
LINE
  8
0
 62
     0
  5
10
 10
0.0
 20
0.0
 30
0.0
 11
10.0
 21
0.0
 31
0.0
1001
AME_SOL
1070
     1
1071
       10
  0
LINE
  8
0
 62
     0
  5
11
 10
0.0
 20
10.0
 30
0.0
 11
0.0
 21
0.0
 31
0.0
1001
AME_SOL
1070
     1
1071
        9
  0
LINE
  8
0
 62
     0
  5
12
 10
10.0
 20
0.0
 30
0.0
 11
10.0
 21
10.0
 31
0.0
1001
AME_SOL
1070
     1
1071
        8
  0
LINE
  8
0
 62
     0
  5
13
 10
10.0
 20
10.0
 30
0.0
 11
0.0
 21
10.0
 31
0.0
1001
AME_SOL
1070
     1
1071
        7
  0
ENDBLK
  8
0
  5
14
  0
BLOCK
  8
0
  5
19
  2
*U3
 70
    65
 10
0.0
 20
0.0
 30
0.0
  1
*U
  3
*U
  0
CIRCLE
  8
0
 62
     0
  5
1A
 10
0.0
 20
0.0
 30
0.0
 40
2.5
1001
AME_SOL
1070
     1
1071
        5
  0
CIRCLE
  8
0
 62
     0
  5
1B
 10
0.0
 20
0.0
 30
10.0
 40
2.5
1001
AME_SOL
1070
     1
1071
        4
  0
LINE
  8
0
 62
     0
  5
1C
 10
-0.956708
 20
2.309699
 30
0.0
 11
-0.956708
 21
2.309699
 31
10.0
1001
AME_SOL
1070
     0
1071
        1
  0
LINE
  8
0
 62
     0
  5
1D
 10
-1.767767
 20
1.767767
 30
0.0
 11
-1.767767
 21
1.767767
 31
10.0
1001
AME_SOL
1070
     0
1071
        1
  0
LINE
  8
0
 62
     0
  5
1E
 10
-2.309699
 20
0.956709
 30
0.0
 11
-2.309699
 21
0.956709
 31
10.0
1001
AME_SOL
1070
     0
1071
        1
  0
LINE
  8
0
 62
     0
  5
1F
 10
-2.5
 20
0.0
 30
0.0
 11
-2.5
 21
0.0
 31
10.0
1001
AME_SOL
1070
     0
1071
        1
  0
LINE
  8
0
 62
     0
  5
20
 10
-2.309699
 20
-0.956708
 30
0.0
 11
-2.309699
 21
-0.956708
 31
10.0
1001
AME_SOL
1070
     0
1071
        1
  0
LINE
  8
0
 62
     0
  5
21
 10
-1.767767
 20
-1.767767
 30
0.0
 11
-1.767767
 21
-1.767767
 31
10.0
1001
AME_SOL
1070
     0
1071
        1
  0
LINE
  8
0
 62
     0
  5
22
 10
-0.956709
 20
-2.309699
 30
0.0
 11
-0.956709
 21
-2.309699
 31
10.0
1001
AME_SOL
1070
     0
1071
        1
  0
LINE
  8
0
 62
     0
  5
23
 10
0.0
 20
-2.5
 30
0.0
 11
0.0
 21
-2.5
 31
10.0
1001
AME_SOL
1070
     0
1071
        1
  0
LINE
  8
0
 62
     0
  5
24
 10
0.956708
 20
-2.309699
 30
0.0
 11
0.956708
 21
-2.309699
 31
10.0
1001
AME_SOL
1070
     0
1071
        1
  0
LINE
  8
0
 62
     0
  5
25
 10
1.767767
 20
-1.767767
 30
0.0
 11
1.767767
 21
-1.767767
 31
10.0
1001
AME_SOL
1070
     0
1071
        1
  0
LINE
  8
0
 62
     0
  5
26
 10
2.309699
 20
-0.956709
 30
0.0
 11
2.309699
 21
-0.956709
 31
10.0
1001
AME_SOL
1070
     0
1071
        1
  0
LINE
  8
0
 62
     0
  5
27
 10
2.5
 20
0.0
 30
0.0
 11
2.5
 21
0.0
 31
10.0
1001
AME_SOL
1070
     0
1071
        1
  0
LINE
  8
0
 62
     0
  5
28
 10
2.309699
 20
0.956709
 30
0.0
 11
2.309699
 21
0.956709
 31
10.0
1001
AME_SOL
1070
     0
1071
        1
  0
LINE
  8
0
 62
     0
  5
29
 10
1.767767
 20
1.767767
 30
0.0
 11
1.767767
 21
1.767767
 31
10.0
1001
AME_SOL
1070
     0
1071
        1
  0
LINE
  8
0
 62
     0
  5
2A
 10
0.956709
 20
2.309699
 30
0.0
 11
0.956709
 21
2.309699
 31
10.0
1001
AME_SOL
1070
     0
1071
        1
  0
LINE
  8
0
 62
     0
  5
2B
 10
0.0
 20
2.5
 30
0.0
 11
0.0
 21
2.5
 31
10.0
1001
AME_SOL
1070
     0
1071
        1
  0
ENDBLK
  8
0
  5
2C
  0
BLOCK
  8
0
  5
31
  2
*U4
 70
    65
 10
0.0
 20
0.0
 30
0.0
  1
*U
  3
*U
  0
LINE
  8
0
 62
     7
  5
32
 10
10.0
 20
10.0
 30
0.0
 11
10.0
 21
10.0
 31
10.0
1001
AME_SOL
1070
     1
1071
       25
  0
LINE
  8
0
 62
     7
  5
33
 10
10.0
 20
10.0
 30
10.0
 11
10.0
 21
0.0
 31
10.0
1001
AME_SOL
1070
     1
1071
       24
  0
LINE
  8
0
 62
     7
  5
34
 10
0.0
 20
10.0
 30
10.0
 11
10.0
 21
10.0
 31
10.0
1001
AME_SOL
1070
     1
1071
       23
  0
LINE
  8
0
 62
     7
  5
35
 10
0.0
 20
10.0
 30
0.0
 11
0.0
 21
10.0
 31
10.0
1001
AME_SOL
1070
     1
1071
       22
  0
LINE
  8
0
 62
     7
  5
36
 10
0.0
 20
3.5
 30
10.0
 11
0.0
 21
0.0
 31
10.0
1001
AME_SOL
1070
     1
1071
       21
  0
LINE
  8
0
 62
     7
  5
37
 10
0.0
 20
10.0
 30
10.0
 11
0.0
 21
8.5
 31
10.0
1001
AME_SOL
1070
     1
1071
       20
  0
LINE
  8
0
 62
     7
  5
38
 10
0.0
 20
0.0
 30
0.0
 11
0.0
 21
0.0
 31
10.0
1001
AME_SOL
1070
     1
1071
       19
  0
LINE
  8
0
 62
     7
  5
39
 10
10.0
 20
0.0
 30
10.0
 11
10.0
 21
0.0
 31
0.0
1001
AME_SOL
1070
     1
1071
       18
  0
LINE
  8
0
 62
     7
  5
3A
 10
0.0
 20
0.0
 30
10.0
 11
10.0
 21
0.0
 31
10.0
1001
AME_SOL
1070
     1
1071
       17
  0
LINE
  8
0
 62
     7
  5
3B
 10
0.0
 20
0.0
 30
0.0
 11
10.0
 21
0.0
 31
0.0
1001
AME_SOL
1070
     1
1071
       16
  0
LINE
  8
0
 62
     7
  5
3C
 10
0.0
 20
3.5
 30
0.0
 11
0.0
 21
0.0
 31
0.0
1001
AME_SOL
1070
     1
1071
       15
  0
LINE
  8
0
 62
     7
  5
3D
 10
0.0
 20
10.0
 30
0.0
 11
0.0
 21
8.5
 31
0.0
1001
AME_SOL
1070
     1
1071
       14
  0
LINE
  8
0
 62
     7
  5
3E
 10
10.0
 20
0.0
 30
0.0
 11
10.0
 21
10.0
 31
0.0
1001
AME_SOL
1070
     1
1071
       13
  0
LINE
  8
0
 62
     7
  5
3F
 10
10.0
 20
10.0
 30
0.0
 11
0.0
 21
10.0
 31
0.0
1001
AME_SOL
1070
     1
1071
       12
  0
ARC
  8
0
 62
     7
  5
40
 10
0.0
 20
6.0
 30
0.0
 40
2.5
 50
269.999997
 51
90.000003
1001
AME_SOL
1070
     1
1071
       11
  0
ARC
  8
0
 62
     7
  5
41
 10
0.0
 20
6.0
 30
10.0
 40
2.5
 50
269.999997
 51
90.000003
1001
AME_SOL
1070
     1
1071
       10
  0
LINE
  8
0
 62
     7
  5
42
 10
0.0
 20
3.5
 30
0.0
 11
0.0
 21
3.5
 31
10.0
1001
AME_SOL
1070
     1
1071
        9
  0
LINE
  8
0
 62
     7
  5
43
 10
0.0
 20
8.5
 30
0.0
 11
0.0
 21
8.5
 31
10.0
1001
AME_SOL
1070
     1
1071
        8
  0
LINE
  8
0
 62
     7
  5
44
 10
0.0
 20
8.5
 30
0.0
 11
0.0
 21
8.5
 31
10.0
1001
AME_SOL
1070
     0
1071
        1
  0
LINE
  8
0
 62
     7
  5
45
 10
0.956709
 20
8.309699
 30
0.0
 11
0.956709
 21
8.309699
 31
10.0
1001
AME_SOL
1070
     0
1071
        1
  0
LINE
  8
0
 62
     7
  5
46
 10
1.767767
 20
7.767767
 30
0.0
 11
1.767767
 21
7.767767
 31
10.0
1001
AME_SOL
1070
     0
1071
        1
  0
LINE
  8
0
 62
     7
  5
47
 10
2.309699
 20
6.956709
 30
0.0
 11
2.309699
 21
6.956709
 31
10.0
1001
AME_SOL
1070
     0
1071
        1
  0
LINE
  8
0
 62
     7
  5
48
 10
2.5
 20
6.0
 30
0.0
 11
2.5
 21
6.0
 31
10.0
1001
AME_SOL
1070
     0
1071
        1
  0
LINE
  8
0
 62
     7
  5
49
 10
2.309699
 20
5.043292
 30
0.0
 11
2.309699
 21
5.043292
 31
10.0
1001
AME_SOL
1070
     0
1071
        1
  0
LINE
  8
0
 62
     7
  5
4A
 10
1.767767
 20
4.232233
 30
0.0
 11
1.767767
 21
4.232233
 31
10.0
1001
AME_SOL
1070
     0
1071
        1
  0
LINE
  8
0
 62
     7
  5
4B
 10
0.956708
 20
3.690301
 30
0.0
 11
0.956708
 21
3.690301
 31
10.0
1001
AME_SOL
1070
     0
1071
        1
  0
LINE
  8
0
 62
     7
  5
4C
 10
0.0
 20
3.5
 30
0.0
 11
0.0
 21
3.5
 31
10.0
1001
AME_SOL
1070
     0
1071
        1
  0
ENDBLK
  8
0
  5
4D
  0
BLOCK
  8
0
  5
51
  2
*U5
 70
    65
 10
0.0
 20
0.0
 30
0.0
  1
*U
  3
*U
  0
LINE
  8
0
 62
     0
  5
52
 10
5.0
 20
4.0
 30
0.0
 11
5.0
 21
4.0
 31
10.0
1001
AME_SOL
1070
     1
1071
       18
  0
LINE
  8
0
 62
     0
  5
53
 10
5.0
 20
4.0
 30
10.0
 11
5.0
 21
0.0
 31
10.0
1001
AME_SOL
1070
     1
1071
       17
  0
LINE
  8
0
 62
     0
  5
54
 10
0.0
 20
4.0
 30
10.0
 11
5.0
 21
4.0
 31
10.0
1001
AME_SOL
1070
     1
1071
       16
  0
LINE
  8
0
 62
     0
  5
55
 10
0.0
 20
4.0
 30
0.0
 11
0.0
 21
4.0
 31
10.0
1001
AME_SOL
1070
     1
1071
       15
  0
LINE
  8
0
 62
     0
  5
56
 10
0.0
 20
4.0
 30
10.0
 11
0.0
 21
0.0
 31
10.0
1001
AME_SOL
1070
     1
1071
       14
  0
LINE
  8
0
 62
     0
  5
57
 10
0.0
 20
0.0
 30
0.0
 11
0.0
 21
0.0
 31
10.0
1001
AME_SOL
1070
     1
1071
       13
  0
LINE
  8
0
 62
     0
  5
58
 10
5.0
 20
0.0
 30
10.0
 11
5.0
 21
0.0
 31
0.0
1001
AME_SOL
1070
     1
1071
       12
  0
LINE
  8
0
 62
     0
  5
59
 10
0.0
 20
0.0
 30
10.0
 11
5.0
 21
0.0
 31
10.0
1001
AME_SOL
1070
     1
1071
       11
  0
LINE
  8
0
 62
     0
  5
5A
 10
0.0
 20
0.0
 30
0.0
 11
5.0
 21
0.0
 31
0.0
1001
AME_SOL
1070
     1
1071
       10
  0
LINE
  8
0
 62
     0
  5
5B
 10
0.0
 20
4.0
 30
0.0
 11
0.0
 21
0.0
 31
0.0
1001
AME_SOL
1070
     1
1071
        9
  0
LINE
  8
0
 62
     0
  5
5C
 10
5.0
 20
0.0
 30
0.0
 11
5.0
 21
4.0
 31
0.0
1001
AME_SOL
1070
     1
1071
        8
  0
LINE
  8
0
 62
     0
  5
5D
 10
5.0
 20
4.0
 30
0.0
 11
0.0
 21
4.0
 31
0.0
1001
AME_SOL
1070
     1
1071
        7
  0
ENDBLK
  8
0
  5
5E
  0
BLOCK
  8
0
  5
63
  2
*U6
 70
    65
 10
0.0
 20
0.0
 30
0.0
  1
*U
  3
*U
  0
LINE
  8
0
 62
     7
  5
64
 10
0.0
 20
10.0
 30
10.0
 11
10.0
 21
10.0
 31
10.0
1001
AME_SOL
1070
     1
1071
       29
  0
LINE
  8
0
 62
     7
  5
65
 10
0.0
 20
10.0
 30
0.0
 11
0.0
 21
10.0
 31
10.0
1001
AME_SOL
1070
     1
1071
       28
  0
LINE
  8
0
 62
     7
  5
66
 10
0.0
 20
3.5
 30
10.0
 11
0.0
 21
0.0
 31
10.0
1001
AME_SOL
1070
     1
1071
       27
  0
LINE
  8
0
 62
     7
  5
67
 10
0.0
 20
10.0
 30
10.0
 11
0.0
 21
6.0
 31
10.0
1001
AME_SOL
1070
     1
1071
       26
  0
LINE
  8
0
 62
     7
  5
68
 10
0.0
 20
6.0
 30
0.0
 11
0.0
 21
6.0
 31
10.0
1001
AME_SOL
1070
     1
1071
       25
  0
LINE
  8
0
 62
     7
  5
69
 10
0.0
 20
6.0
 30
10.0
 11
2.5
 21
6.0
 31
10.0
1001
AME_SOL
1070
     1
1071
       24
  0
LINE
  8
0
 62
     7
  5
6A
 10
0.0
 20
3.5
 30
0.0
 11
0.0
 21
0.0
 31
0.0
1001
AME_SOL
1070
     1
1071
       23
  0
LINE
  8
0
 62
     7
  5
6B
 10
0.0
 20
10.0
 30
0.0
 11
0.0
 21
6.0
 31
0.0
1001
AME_SOL
1070
     1
1071
       22
  0
LINE
  8
0
 62
     7
  5
6C
 10
0.0
 20
6.0
 30
0.0
 11
2.5
 21
6.0
 31
0.0
1001
AME_SOL
1070
     1
1071
       21
  0
LINE
  8
0
 62
     7
  5
6D
 10
10.0
 20
10.0
 30
0.0
 11
0.0
 21
10.0
 31
0.0
1001
AME_SOL
1070
     1
1071
       20
  0
LINE
  8
0
 62
     7
  5
6E
 10
10.0
 20
10.0
 30
0.0
 11
10.0
 21
0.0
 31
0.0
1001
AME_SOL
1070
     1
1071
       19
  0
LINE
  8
0
 62
     7
  5
6F
 10
10.0
 20
10.0
 30
10.0
 11
10.0
 21
10.0
 31
0.0
1001
AME_SOL
1070
     1
1071
       18
  0
LINE
  8
0
 62
     7
  5
70
 10
10.0
 20
0.0
 30
10.0
 11
10.0
 21
10.0
 31
10.0
1001
AME_SOL
1070
     1
1071
       17
  0
LINE
  8
0
 62
     7
  5
71
 10
10.0
 20
0.0
 30
0.0
 11
0.0
 21
0.0
 31
0.0
1001
AME_SOL
1070
     1
1071
       16
  0
LINE
  8
0
 62
     7
  5
72
 10
0.0
 20
0.0
 30
0.0
 11
0.0
 21
0.0
 31
10.0
1001
AME_SOL
1070
     1
1071
       15
  0
LINE
  8
0
 62
     7
  5
73
 10
10.0
 20
0.0
 30
10.0
 11
10.0
 21
0.0
 31
0.0
1001
AME_SOL
1070
     1
1071
       14
  0
LINE
  8
0
 62
     7
  5
74
 10
0.0
 20
0.0
 30
10.0
 11
10.0
 21
0.0
 31
10.0
1001
AME_SOL
1070
     1
1071
       13
  0
ARC
  8
0
 62
     7
  5
75
 10
0.0
 20
6.0
 30
0.0
 40
2.5
 50
269.999997
 51
0.0
1001
AME_SOL
1070
     1
1071
       12
  0
LINE
  8
0
 62
     7
  5
76
 10
2.5
 20
6.0
 30
0.0
 11
2.5
 21
6.0
 31
10.0
1001
AME_SOL
1070
     1
1071
       11
  0
ARC
  8
0
 62
     7
  5
77
 10
0.0
 20
6.0
 30
10.0
 40
2.5
 50
269.999997
 51
0.0
1001
AME_SOL
1070
     1
1071
       10
  0
LINE
  8
0
 62
     7
  5
78
 10
0.0
 20
3.5
 30
0.0
 11
0.0
 21
3.5
 31
10.0
1001
AME_SOL
1070
     1
1071
        9
  0
LINE
  8
0
 62
     7
  5
79
 10
0.0
 20
3.5
 30
0.0
 11
0.0
 21
3.5
 31
10.0
1001
AME_SOL
1070
     0
1071
        1
  0
LINE
  8
0
 62
     7
  5
7A
 10
0.956708
 20
3.690301
 30
0.0
 11
0.956708
 21
3.690301
 31
10.0
1001
AME_SOL
1070
     0
1071
        1
  0
LINE
  8
0
 62
     7
  5
7B
 10
1.767767
 20
4.232233
 30
0.0
 11
1.767767
 21
4.232233
 31
10.0
1001
AME_SOL
1070
     0
1071
        1
  0
LINE
  8
0
 62
     7
  5
7C
 10
2.309699
 20
5.043292
 30
0.0
 11
2.309699
 21
5.043292
 31
10.0
1001
AME_SOL
1070
     0
1071
        1
  0
LINE
  8
0
 62
     7
  5
7D
 10
2.5
 20
6.0
 30
0.0
 11
2.5
 21
6.0
 31
10.0
1001
AME_SOL
1070
     0
1071
        1
  0
ENDBLK
  8
0
  5
7E
  0
BLOCK
  8
0
  5
82
  2
*U7
 70
    65
 10
0.0
 20
0.0
 30
0.0
  1
*U
  3
*U
  0
POLYLINE
  8
0
 62
     7
  5
83
 66
     1
 10
0.0
 20
0.0
 30
0.0
 70
    64
  0
VERTEX
  8
0
  5
84
 10
10.0
 20
10.0
 30
0.0
 70
   192
  0
VERTEX
  8
0
  5
85
 10
0.0
 20
10.0
 30
0.0
 70
   192
  0
VERTEX
  8
0
  5
86
 10
0.0
 20
10.0
 30
10.0
 70
   192
  0
VERTEX
  8
0
  5
87
 10
10.0
 20
10.0
 30
10.0
 70
   192
  0
VERTEX
  8
0
 62
     7
  5
88
 10
0.0
 20
0.0
 30
0.0
 70
   128
 71
     1
 72
     2
 73
    -3
  0
VERTEX
  8
0
 62
     7
  5
89
 10
0.0
 20
0.0
 30
0.0
 70
   128
 71
     3
 72
     4
 73
    -1
  0
SEQEND
  8
0
 62
     7
  5
8A
  0
POLYLINE
  8
0
 62
     7
  5
8B
 66
     1
 10
0.0
 20
0.0
 30
0.0
 70
    64
  0
VERTEX
  8
0
  5
8C
 10
2.309699
 20
5.043292
 30
10.0
 70
   192
  0
VERTEX
  8
0
  5
8D
 10
10.0
 20
0.0
 30
10.0
 70
   192
  0
VERTEX
  8
0
  5
8E
 10
2.5
 20
6.0
 30
10.0
 70
   192
  0
VERTEX
  8
0
  5
8F
 10
0.0
 20
10.0
 30
10.0
 70
   192
  0
VERTEX
  8
0
  5
90
 10
1.767767
 20
4.232233
 30
10.0
 70
   192
  0
VERTEX
  8
0
  5
91
 10
0.956708
 20
3.690301
 30
10.0
 70
   192
  0
VERTEX
  8
0
  5
92
 10
0.0
 20
6.0
 30
10.0
 70
   192
  0
VERTEX
  8
0
  5
93
 10
10.0
 20
10.0
 30
10.0
 70
   192
  0
VERTEX
  8
0
  5
94
 10
0.0
 20
0.0
 30
10.0
 70
   192
  0
VERTEX
  8
0
  5
95
 10
0.0
 20
3.5
 30
10.0
 70
   192
  0
VERTEX
  8
0
 62
     7
  5
96
 10
0.0
 20
0.0
 30
0.0
 70
   128
 71
    -1
 72
    -2
 73
     3
  0
VERTEX
  8
0
 62
     7
  5
97
 10
0.0
 20
0.0
 30
0.0
 70
   128
 71
    -2
 72
    -4
 73
    -3
  0
VERTEX
  8
0
 62
     7
  5
98
 10
0.0
 20
0.0
 30
0.0
 70
   128
 71
     1
 72
    -5
 73
    -2
  0
VERTEX
  8
0
 62
     7
  5
99
 10
0.0
 20
0.0
 30
0.0
 70
   128
 71
     5
 72
    -6
 73
    -2
  0
VERTEX
  8
0
 62
     7
  5
9A
 10
0.0
 20
0.0
 30
0.0
 70
   128
 71
     4
 72
     7
 73
    -3
  0
VERTEX
  8
0
 62
     7
  5
9B
 10
0.0
 20
0.0
 30
0.0
 70
   128
 71
     2
 72
     8
 73
    -4
  0
VERTEX
  8
0
 62
     7
  5
9C
 10
0.0
 20
0.0
 30
0.0
 70
   128
 71
    -6
 72
     9
 73
    -2
  0
VERTEX
  8
0
 62
     7
  5
9D
 10
0.0
 20
0.0
 30
0.0
 70
   128
 71
     6
 72
    10
 73
    -9
  0
SEQEND
  8
0
 62
     7
  5
9E
  0
POLYLINE
  8
0
 62
     7
  5
9F
 66
     1
 10
0.0
 20
0.0
 30
0.0
 70
    64
  0
VERTEX
  8
0
  5
A0
 10
0.0
 20
0.0
 30
10.0
 70
   192
  0
VERTEX
  8
0
  5
A1
 10
0.0
 20
3.5
 30
0.0
 70
   192
  0
VERTEX
  8
0
  5
A2
 10
0.0
 20
0.0
 30
0.0
 70
   192
  0
VERTEX
  8
0
  5
A3
 10
0.0
 20
3.5
 30
10.0
 70
   192
  0
VERTEX
  8
0
  5
A4
 10
0.0
 20
6.0
 30
10.0
 70
   192
  0
VERTEX
  8
0
  5
A5
 10
0.0
 20
10.0
 30
10.0
 70
   192
  0
VERTEX
  8
0
  5
A6
 10
0.0
 20
10.0
 30
0.0
 70
   192
  0
VERTEX
  8
0
  5
A7
 10
0.0
 20
6.0
 30
0.0
 70
   192
  0
VERTEX
  8
0
 62
     7
  5
A8
 10
0.0
 20
0.0
 30
0.0
 70
   128
 71
    -1
 72
     2
 73
     3
  0
VERTEX
  8
0
 62
     7
  5
A9
 10
0.0
 20
0.0
 30
0.0
 70
   128
 71
     1
 72
     4
 73
    -2
  0
VERTEX
  8
0
 62
     7
  5
AA
 10
0.0
 20
0.0
 30
0.0
 70
   128
 71
     5
 72
     6
 73
    -7
  0
VERTEX
  8
0
 62
     7
  5
AB
 10
0.0
 20
0.0
 30
0.0
 70
   128
 71
     7
 72
     8
 73
    -5
  0
SEQEND
  8
0
 62
     7
  5
AC
  0
POLYLINE
  8
0
 62
     7
  5
AD
 66
     1
 10
0.0
 20
0.0
 30
0.0
 70
    64
  0
VERTEX
  8
0
  5
AE
 10
2.5
 20
6.0
 30
10.0
 70
   192
  0
VERTEX
  8
0
  5
AF
 10
0.0
 20
6.0
 30
10.0
 70
   192
  0
VERTEX
  8
0
  5
B0
 10
0.0
 20
6.0
 30
0.0
 70
   192
  0
VERTEX
  8
0
  5
B1
 10
2.5
 20
6.0
 30
0.0
 70
   192
  0
VERTEX
  8
0
 62
     7
  5
B2
 10
0.0
 20
0.0
 30
0.0
 70
   128
 71
     1
 72
     2
 73
    -3
  0
VERTEX
  8
0
 62
     7
  5
B3
 10
0.0
 20
0.0
 30
0.0
 70
   128
 71
     3
 72
     4
 73
    -1
  0
SEQEND
  8
0
 62
     7
  5
B4
  0
POLYLINE
  8
0
 62
     7
  5
B5
 66
     1
 10
0.0
 20
0.0
 30
0.0
 70
    64
  0
VERTEX
  8
0
  5
B6
 10
10.0
 20
10.0
 30
0.0
 70
   192
  0
VERTEX
  8
0
  5
B7
 10
0.0
 20
0.0
 30
0.0
 70
   192
  0
VERTEX
  8
0
  5
B8
 10
2.309699
 20
5.043292
 30
0.0
 70
   192
  0
VERTEX
  8
0
  5
B9
 10
1.767767
 20
4.232233
 30
0.0
 70
   192
  0
VERTEX
  8
0
  5
BA
 10
0.956708
 20
3.690301
 30
0.0
 70
   192
  0
VERTEX
  8
0
  5
BB
 10
2.5
 20
6.0
 30
0.0
 70
   192
  0
VERTEX
  8
0
  5
BC
 10
0.0
 20
6.0
 30
0.0
 70
   192
  0
VERTEX
  8
0
  5
BD
 10
0.0
 20
3.5
 30
0.0
 70
   192
  0
VERTEX
  8
0
  5
BE
 10
10.0
 20
0.0
 30
0.0
 70
   192
  0
VERTEX
  8
0
  5
BF
 10
0.0
 20
10.0
 30
0.0
 70
   192
  0
VERTEX
  8
0
 62
     7
  5
C0
 10
0.0
 20
0.0
 30
0.0
 70
   128
 71
    -1
 72
    -2
 73
    -3
  0
VERTEX
  8
0
 62
     7
  5
C1
 10
0.0
 20
0.0
 30
0.0
 70
   128
 71
    -2
 72
     4
 73
    -3
  0
VERTEX
  8
0
 62
     7
  5
C2
 10
0.0
 20
0.0
 30
0.0
 70
   128
 71
    -2
 72
     5
 73
    -4
  0
VERTEX
  8
0
 62
     7
  5
C3
 10
0.0
 20
0.0
 30
0.0
 70
   128
 71
     3
 72
    -6
 73
    -1
  0
VERTEX
  8
0
 62
     7
  5
C4
 10
0.0
 20
0.0
 30
0.0
 70
   128
 71
     6
 72
    -7
 73
    -1
  0
VERTEX
  8
0
 62
     7
  5
C5
 10
0.0
 20
0.0
 30
0.0
 70
   128
 71
     2
 72
     8
 73
    -5
  0
VERTEX
  8
0
 62
     7
  5
C6
 10
0.0
 20
0.0
 30
0.0
 70
   128
 71
     1
 72
     9
 73
    -2
  0
VERTEX
  8
0
 62
     7
  5
C7
 10
0.0
 20
0.0
 30
0.0
 70
   128
 71
     7
 72
    10
 73
    -1
  0
SEQEND
  8
0
 62
     7
  5
C8
  0
POLYLINE
  8
0
 62
     7
  5
C9
 66
     1
 10
0.0
 20
0.0
 30
0.0
 70
    64
  0
VERTEX
  8
0
  5
CA
 10
10.0
 20
0.0
 30
0.0
 70
   192
  0
VERTEX
  8
0
  5
CB
 10
10.0
 20
10.0
 30
10.0
 70
   192
  0
VERTEX
  8
0
  5
CC
 10
10.0
 20
0.0
 30
10.0
 70
   192
  0
VERTEX
  8
0
  5
CD
 10
10.0
 20
10.0
 30
0.0
 70
   192
  0
VERTEX
  8
0
 62
     7
  5
CE
 10
0.0
 20
0.0
 30
0.0
 70
   128
 71
    -1
 72
     2
 73
     3
  0
VERTEX
  8
0
 62
     7
  5
CF
 10
0.0
 20
0.0
 30
0.0
 70
   128
 71
     1
 72
     4
 73
    -2
  0
SEQEND
  8
0
 62
     7
  5
D0
  0
POLYLINE
  8
0
 62
     7
  5
D1
 66
     1
 10
0.0
 20
0.0
 30
0.0
 70
    64
  0
VERTEX
  8
0
  5
D2
 10
0.0
 20
0.0
 30
0.0
 70
   192
  0
VERTEX
  8
0
  5
D3
 10
10.0
 20
0.0
 30
0.0
 70
   192
  0
VERTEX
  8
0
  5
D4
 10
10.0
 20
0.0
 30
10.0
 70
   192
  0
VERTEX
  8
0
  5
D5
 10
0.0
 20
0.0
 30
10.0
 70
   192
  0
VERTEX
  8
0
 62
     7
  5
D6
 10
0.0
 20
0.0
 30
0.0
 70
   128
 71
     1
 72
     2
 73
    -3
  0
VERTEX
  8
0
 62
     7
  5
D7
 10
0.0
 20
0.0
 30
0.0
 70
   128
 71
     3
 72
     4
 73
    -1
  0
SEQEND
  8
0
 62
     7
  5
D8
  0
POLYLINE
  8
0
 62
     7
  5
D9
 66
     1
 10
0.0
 20
0.0
 30
0.0
 70
    64
  0
VERTEX
  8
0
  5
DA
 10
0.0
 20
3.5
 30
0.0
 70
   192
  0
VERTEX
  8
0
  5
DB
 10
0.956708
 20
3.690301
 30
0.0
 70
   192
  0
VERTEX
  8
0
  5
DC
 10
0.956708
 20
3.690301
 30
10.0
 70
   192
  0
VERTEX
  8
0
  5
DD
 10
0.0
 20
3.5
 30
10.0
 70
   192
  0
VERTEX
  8
0
  5
DE
 10
1.767767
 20
4.232233
 30
0.0
 70
   192
  0
VERTEX
  8
0
  5
DF
 10
1.767767
 20
4.232233
 30
10.0
 70
   192
  0
VERTEX
  8
0
  5
E0
 10
2.309699
 20
5.043292
 30
10.0
 70
   192
  0
VERTEX
  8
0
  5
E1
 10
2.309699
 20
5.043292
 30
0.0
 70
   192
  0
VERTEX
  8
0
  5
E2
 10
2.5
 20
6.0
 30
0.0
 70
   192
  0
VERTEX
  8
0
  5
E3
 10
2.5
 20
6.0
 30
10.0
 70
   192
  0
VERTEX
  8
0
 62
     7
  5
E4
 10
0.0
 20
0.0
 30
0.0
 70
   128
 71
    -1
 72
     3
 73
     2
  0
VERTEX
  8
0
 62
     7
  5
E5
 10
0.0
 20
0.0
 30
0.0
 70
   128
 71
    -3
 72
     1
 73
     4
  0
VERTEX
  8
0
 62
     7
  5
E6
 10
0.0
 20
0.0
 30
0.0
 70
   128
 71
     3
 72
     6
 73
    -5
  0
VERTEX
  8
0
 62
     7
  5
E7
 10
0.0
 20
0.0
 30
0.0
 70
   128
 71
    -3
 72
     5
 73
     2
  0
VERTEX
  8
0
 62
     7
  5
E8
 10
0.0
 20
0.0
 30
0.0
 70
   128
 71
     6
 72
    -7
 73
     5
  0
VERTEX
  8
0
 62
     7
  5
E9
 10
0.0
 20
0.0
 30
0.0
 70
   128
 71
    -5
 72
     7
 73
     8
  0
VERTEX
  8
0
 62
     7
  5
EA
 10
0.0
 20
0.0
 30
0.0
 70
   128
 71
    -7
 72
     9
 73
     8
  0
VERTEX
  8
0
 62
     7
  5
EB
 10
0.0
 20
0.0
 30
0.0
 70
   128
 71
    -9
 72
     7
 73
    10
  0
SEQEND
  8
0
 62
     7
  5
EC
  0
ENDBLK
  8
0
  5
ED
  0
BLOCK
  8
0
  5
EF
  2
AME_MAT
 70
    64
 10
0.0
 20
0.0
 30
0.0
  1
AME_MAT
  3
AME_MAT
  0
ENDBLK
  8
0
  5
F0
  0
ENDSEC
  0
SECTION
  2
ENTITIES
  0
INSERT
  8
AME_FRZ
  5
3
  2
AME_NIL
 10
0.0
 20
0.0
 30
0.0
  0
INSERT
  8
AME_FRZ
  5
6
  2
AME_SOL
 10
0.0
 20
0.0
 30
0.0
1001
AME_SOL
1000
1.0
1000
sq cm
1070
     3
1070
     0
1070
     3
1000
wire
1040
0.0
1000
NONE
1040
1.0
1000
cm
1000
gm
1000
MILD_STEEL
1070
    25
1000
CSG
1070
     3
1070
     2
1070
     3
1000
cu cm
1070
     4
1070
     0
1005
3
  0
INSERT
  8
AME_FRZ
  5
15
  2
*U2
 10
0.0
 20
0.0
 30
0.0
1001
AME_SOL
1002
{
1070
     0
1071
  1858912
1070
  1536
1010
10.0
1020
10.0
1030
10.0
1005
0
1005
0
1005
4E
1040
0.0
1040
1.0
1000
MILD_STEEL
1000
0
1010
0.0
1020
0.0
1030
0.0
1010
0.0
1020
0.0
1030
1.0
1040
0.0
1002
}
  0
INSERT
  8
AME_FRZ
  5
2D
  2
*U3
 10
0.0
 20
6.0
 30
0.0
1001
AME_SOL
1002
{
1070
     0
1071
  1860304
1070
  1538
1010
2.5
1020
2.5
1030
10.0
1005
0
1005
0
1005
4E
1040
0.0
1040
1.0
1000
MILD_STEEL
1000
0
1010
0.0
1020
6.0
1030
0.0
1010
0.0
1020
0.0
1030
1.0
1040
0.0
1002
}
  0
INSERT
  8
AME_FRZ
  5
4E
  2
*U4
 10
0.0
 20
0.0
 30
0.0
1001
AME_SOL
1002
{
1070
     0
1071
  1930352
1070
  1543
1070
     0
1005
15
1005
2D
1005
0
1005
0
1005
7F
1040
0.0
1040
1.0
1000
MILD_STEEL
1000
0
1010
0.0
1020
0.0
1030
0.0
1010
0.0
1020
0.0
1030
1.0
1040
0.0
1002
}
  0
INSERT
  8
AME_FRZ
  5
5F
  2
*U5
 10
0.0
 20
6.0
 30
0.0
1001
AME_SOL
1002
{
1070
     0
1071
  1975904
1070
  1536
1010
5.0
1020
4.0
1030
10.0
1005
0
1005
0
1005
7F
1040
0.0
1040
1.0
1000
MILD_STEEL
1000
0
1010
0.0
1020
6.0
1030
0.0
1010
0.0
1020
0.0
1030
1.0
1040
0.0
1002
}
  0
INSERT
  8
0
  5
7F
  2
*U6
 10
0.0
 20
0.0
 30
0.0
1001
AME_SOL
1002
{
1070
     0
1071
  1936752
1070
  9735
1070
     2
1005
5F
1005
4E
1005
EE
1005
80
1005
0
1040
629.45098
1040
1.0
1000
MILD_STEEL
1000
0
1002
}
  0
INSERT
  8
AME_FRZ
  5
80
  2
AME_NIL
 10
1.0
 20
1.0
 30
1.0
1001
AME_SOL
1004
E903A9FB0100F0FFFFFF000052F70800010000007F1820C066900ABB66900ABBA9082041A9082041A908204101000000FBF204007F1820C082E75F408DF5C3BA7F182040200608411F0620410100EA4E78221E00FFFF000001002F010000EA4E00000000803F0000000000000000000000000000803F0000
1004
0000000000000000C0400000000005000000204000002040000000000000000000000000EA4E00000000803F0000000000000000000000000000803F00000000000000000000C04000000000050000002040000020400000000000000000FFFFFFFF4DEA00000000967500000000803F0000000000000000
1004
000000000000803F0000000079ACEAB300000841000000000200B3A382E0B3A38260000000000000000002000000B3A382E00000000000002041B3A382600100000000000000000020410200F8010000F8010000000000004DEA01000000967500000000803F0000000000000000000000000000803F0000
1004
0000DAEA743F87F40441000000000200B3A382E0B3A382600000000001000000000000000000204102000000B3A382E00000000000002041B3A3826000000000000000004DEA02000000967500000000803F0000000000000000000000000000803F000000003146E23F8D91F840000000000200B3A382E0
1004
B3A382600000000001000000000000000000204102000000B3A382E00000000000002041B3A3826000000000000000004DEA03000000967500000000803F0000000000000000000000000000803F000000001BD213405C9DDE40000000000200B3A382E0B3A3826000000000010000000000000000002041
1004
02000000B3A382E00000000000002041B3A3826000000000000000004DEA04000000967500000000803F0000000000000000000000000000803F00000000000020400000C040000000000200B3A382E0B3A38260000000000000000002000000B3A382E00000000000002041B3A382600100000000000000
1004
000020410200D1FEFFFFF90100000100000000000000000020414DEA05000000967500000000803F0000000000000000000000000000803F000000001BD21340A562A140000000000200B3A382E0B3A38260000000000000000002000000B3A382E00000000000002041B3A3826001000000000000000000
1004
20410200D1FEFFFFD1FEFFFF0100000000000000000020414DEA06000000967500000000803F0000000000000000000000000000803F000000002E46E23F746E8740000000000200B3A382E0B3A38260000000000000000002000000B3A382E00000000000002041B3A38260010000000000000000002041
1004
0200D1FEFFFFD1FEFFFF0100000000000000000020414DEA07000000967500000000803F0000000000000000000000000000803F00000000D5EA743FE62D6C40000000000200B3A382E0B3A38260000000000000000002000000B3A382E00000000000002041B3A382600100000000000000000020410200
1004
D1FEFFFFD1FEFFFF0100000000000000000020414DEA08000000967500000000803F0000000000000000000000000000803F0000000079ACEAB301006040000000000200B3A382E0B3A38260000000000000000002000000B3A382E00000000000002041B3A3826001000000000000000000204102009401
1004
0000D1FEFFFF0100000000000000000020414DEA09000000967500000000803F0000000000000000000000000000803F00000000DEEA74BFE62D6C40000000000200B3A382E0B3A3826001000000000000004DEA0A000000967500000000803F0000000000000000000000000000803F000000003046E2BF
1004
746E8740000000000200B3A382E0B3A3826001000000000000004DEA0B000000967500000000803F0000000000000000000000000000803F000000001CD213C0A662A140000000000200B3A382E0B3A3826001000000000000004DEA0C000000967500000000803F0000000000000000000000000000803F
1004
00000000000020C00000C040000000000200B3A382E0B3A3826001000000000000004DEA0D000000967500000000803F0000000000000000000000000000803F000000001AD213C05D9DDE40000000000200B3A382E0B3A3826001000000000000004DEA0E000000967500000000803F0000000000000000
1004
000000000000803F000000002D46E2BF8D91F840000000000200B3A382E0B3A3826001000000000000004DEA0F000000967500000000803F0000000000000000000000000000803F00000000CEEA74BF87F40441000000000200B3A382E0B3A382600100000000000000FBF2040066900ABB66900ABB6690
1004
0ABBA908204166900A3BA90820410100844E70C31D0001000000010095010000844E00000000803F000000000000000000000000000000000000803F00000000000000000000000005000000000000000000000000000000000000000000844E00000000803F000000000000000000000000000000000000
1004
803F00000000000000000000000005000000000000000000000000000000000001000000FBF2040057F71F4166900ABB66900ABBA9082041A9082041A90820410100844E60C41D0001000000010091010000844E000000000080000080BF000000800000008000000080000080BF00002041000020410000
1004
204105000000000000000000000000000000000000000000844E000000000080000080BF000000800000008000000080000080BF00002041000020410000204105000000000000000000000000000000000001000000FBF2070066900ABB66900ABB66900ABBA9082041A908204166900A3B0100844E60C5
1004
1D0001000000020096010000844E0000000000000000803F000000000000803F000000000000000000000000000000000000000005000000000000000000000000000000000000000000FA010000844E0000000000000000803F000000000000803F0000000000000000000000000000C040000000000500
1004
0000000000000000000000000000000000000000844E0000000000000000803F000000000000803F0000000000000000000000000000C0400000000005000000000000000000000000000000000001000000FBF204004EFDBDBA20F4BF404EFDBDBAE00BA040E00BC040F00520410100844E50C61D000100
1004
00000100F9010000844E00000000803F000000000000000000000000000000000000803F000000000000C0400000000005000000000000000000000000000000000000000000844E00000000803F000000000000000000000000000000000000803F000000000000C0400000000005000000000000000000
1004
000000000000000001000000FBF2080066900ABB66900ABB66900ABB66900A3BA9082041A90820410100844E50C71D0001000000020094010000844E000000000000000000000000803F000000000000803F0000000000000000000000000000000005000000000000000000000000000000000000000000
1004
F8010000844E000000000000000000000000803F000000000000803F00000000000000000000C0400000000005000000000000000000000000000000000000000000844E000000000000000000000000803F000000000000803F00000000000000000000C040000000000500000000000000000000000000
1004
0000000001000000FBF2070066900ABB66900ABB57F71F41A9082041A9082041A90820410100844E50C81D0001000000020093010000844E0000000080BF000000800000008000000080000080BF0000008000002041000020410000204105000000000000000000000000000000000000000000F7010000
1004
844E0000000080BF000000800000008000000080000080BF000000800000A040000020410000204105000000000000000000000000000000000000000000844E0000000080BF000000800000008000000080000080BF000000800000A0400000204100002041050000000000000000000000000000000000
1004
01000000FBF2040066900ABB57F71F4166900ABBA9082041A9082041A90820410100844E50C91D0001000000020092010000844E00000000008000000080000080BF000080BF000000800000008000002041000020410000204105000000000000000000000000000000000000000000F6010000844E0000
1004
0000008000000080000080BF000080BF00000080000000800000A040000020410000204105000000000000000000000000000000000000000000844E00000000008000000080000080BF000080BF00000080000000800000A040000020410000204105000000000000000000000000000000000001000000
1004
A4EE66900ABB82E75F408DF5C3BA66900A3B200608411F062041000000000000204102009675A8C91D0000000100FFFF78221E0050C71D000000020050C71D0078221E0001000000FFFFFFFF967500000000803F0000000000000000000000000000803F0000000079ACEAB3010060400000000002000000
1004
000000002041A4EE66900ABB82E75F4057F71F417F182040200608411F062041DB0FC9BF000000000200FC7598CA1D0000000100FFFF78221E0050C81D000000020050C81D0078221E0001000000FFFFFFFFFC7500000000803F0000000000000000000000000000803F00000000000000000000C0400000
1004
204104000000204000002040DB0FC9BF00000000A4EE4EFDBDBA20F4BF404EFDBDBA7F182040E00BC040F005204100000000000020410200967588CB1D000000FFFF010078221E0050C61D000000020078221E0050C61D00FFFFFFFF01000000967500000000803F0000000000000000000000000000803F
1004
00000000000020400000C0400000000002000000000000002041A4EE66900ABB82E75F408DF5C3BA7F1820402006084166900A3BDB0FC9BF000000000200FC7578CC1D000000FFFF010078221E0060C51D000000020078221E0060C51D00FFFFFFFF01000000FC7500000000803F00000000000000000000
1004
00000000803F00000000000000000000C0400000000004000000204000002040DB0FC9BF00000000A4EE66900ABB66900ABB57F71F41A908204166900A3BA9082041000020C00000F0400200967568CD1D000000FFFF010070C31D0050C81D000000020070C31D0050C81D00010000000100000096750000
1004
00000000000000000000803F00000000000080BF000000000000204000000000000020410200000020C00000F040A4EE57F71F4166900ABB66900ABBA908204166900A3BA90820410000A0C00000A0400200967558CE1D000000FFFF010070C31D0060C41D000000020070C31D0060C41D00010000000100
1004
0000967500000000803F000000000000000000000000000080BF0000000000002041000000000000A04002000000A0C00000A040A4EE66900ABB66900ABB66900ABB66900A3B66900A3BA908204100000000000020410200967548CF1D000000FFFF010070C31D0050C71D000000020070C31D0050C71D00
1004
010000000100000096750000000080BF000000000000000000000000000080BF0000000000000000000000000000000002000000000000002041A4EE66900ABB66900ABB66900ABBA908204166900A3B66900A3B000020C1000000800200967538D01D000000FFFF010070C31D0060C51D000000020070C3
1004
1D0060C51D000100000001000000967500000000000000000000000080BF00000000000080BF000000000000000000000000000000000200000020C100000080A4EE57F71F4166900ABB57F71F41A9082041A9082041A9082041000020C10000008002009675B0FE1D000000FFFF010060C41D0050C81D00
1004
0000020060C41D0050C81D0001000000010000009675000000000000000000000000803F0000803F00000000000000000000204100002041000020410200000020C100000080A4EE57F71F4157F71F4166900ABBA9082041A9082041A908204100000000000020410200967580FF1D000000FFFF010060C4
1004
1D0050C91D000000020060C41D0050C91D00010000000100000096750000000000000000803F000000000000803F000000800000000000002041000020410000204102000000000000002041A4EE57F71F4166900ABB66900ABBA9082041A908204166900A3BFFFFFFBF000000410200967570001E000000
1004
FFFF010060C41D0060C51D000000020060C41D0060C51D000100000001000000967500000000000000000000000080BF0000803F00000000000000000000204100000041000000000200FFFFFFBF00000041A4EE66900ABB57F71F4166900ABBA9082041A908204166900A3B0000F0C00000204002009675
1004
60011E000000FFFF010060C51D0050C91D000000020060C51D0050C91D00010000000100000096750000000000000000803F000000000000000000000000000080BF00002040000020410000000002000000F0C000002040A4EE4EFDBDBA20F4BF404EFDBDBAE00BA040E00BC04066900A3B000000000000
1004
20400200967550021E000000FFFF010060C51D0050C61D000000020060C51D0050C61D0001000000010000009675000000000000000080BF000000000000000000000000000080BF000000000000C0400000000002000000000000002040A4EE66900ABB66900ABB66900ABB66900A3BA908204166900A3B
1004
FFFF7FC0000000800200967540031E000000FFFF010060C51D0050C71D000000020060C51D0050C71D00010000000100000096750000000080BF00000000000000000000000000000000000080BF000000000000C040000000000200FFFF7FC000000080A4EE66900ABB66900ABB66900ABB66900A3BA908
1004
204166900A3B000020400000C0400200967530041E000000FFFF010060C51D0050C71D000000020060C51D0050C71D00010000000100000096750000000080BF00000000000000000000000000000000000080BF000000000000C040000000000200000020400000C040A4EE4EFDBDBA20F4BF4057F71F41
1004
E00BA040E00BC040F0052041000020C0000000000200967520051E000000FFFF010050C61D0050C81D000000020050C61D0050C81D0001000000010000009675000000000000000000000000803F00000000000080BF00000000000020400000C040000020410200000020C000000000A4EE4EFDBDBA20F4
1004
BF404EFDBDBA66900A3BE00BC040F005204100000000000020410200967510061E000000FFFF010050C61D0050C71D000000020050C61D0050C71D00010000000100000096750000000080BF000000000000000000000000000080BF00000000000000000000C0400000000002000000000000002041A4EE
1004
66900ABB66900ABB57F71F4166900A3BA9082041A9082041FFFFFFBFFFFFFF3F0200967500071E000000FFFF010050C71D0050C81D000000020050C71D0050C81D0001000000010000009675000000000000000000000000803F000080BF00000000000000000000000000000041000020410200FFFFFFBF
1004
FFFFFF3FA4EE66900ABB66900ABB57F71F4166900A3BA9082041A9082041000090400000004102009675F0071E000000FFFF010050C71D0050C81D000000020050C71D0050C81D0001000000010000009675000000000000000000000000803F000080BF0000000000000000000000000000004100002041
1004
02000000904000000041A4EE66900ABB57F71F4166900ABB66900A3BA9082041A90820410000A0C00000A04002009675E0081E000000FFFF010050C71D0050C91D000000020050C71D0050C91D00010000000100000096750000000000000000803F00000000000080BF0000000000000000000000000000
1004
20410000A04002000000A0C00000A040A4EE66900ABB57F71F4157F71F41A9082041A9082041A90820410000A0C00000A04002009675D0091E000000FFFF010050C81D0050C91D000000020050C81D0050C91D00010000000100000096750000000000000000803F0000000000000000000000000000803F
1004
0000A040000020410000204102000000A0C00000A04019FC
1005
81
  0
INSERT
  8
AME_FRZ
  5
81
  2
AME_NIL
 10
1.0
 20
1.0
 30
1.0
1001
AME_SOL
1004

1005
0
  0
INSERT
  8
AME_FRZ
  5
EE
  2
*U7
 10
0.0
 20
0.0
 30
0.0
  0
INSERT
  8
AME_FRZ
  5
F1
  2
AME_MAT
 10
0.0
 20
0.0
 30
0.0
1001
AME_SOL
1000
MILD_STEEL
1040
7860.0
1040
220.0
1040
0.275
1040
207.0
1040
345.0
1040
56.0
1040
12.0
1040
0.46
  0
ENDSEC
  0
EOF
