700 0 2 0           
24 FBMach with ACIS - 7.0.3 13 ACIS 7.0.3 NT 24 Tue May 14 09:56:45 2002 
1 9.9999999999999995e-007 1e-010 
body $2 -1 $-1 $3 $-1 $4 #
bdycol-kcp $-1 -1 1 1 $5 #
model_id-kcp-attrib $-1 -1 $-1 $-1 $0 1 1021384604 1021384604 -786366463 1 #
lump $-1 -1 $-1 $-1 $6 $0 #
transform $-1 -1 1 0 0 0 1 0 0 0 1 0 0 0 1 rotate no_reflect no_shear #
body $7 -1 $-1 $8 $-1 $9 #
shell $-1 -1 $-1 $-1 $-1 $10 $-1 $3 #
model_id-kcp-attrib $-1 -1 $-1 $-1 $5 1 1021384604 1021384604 -786366462 1 #
lump $-1 -1 $-1 $-1 $11 $5 #
transform $-1 -1 1 0 0 0 1 0 0 0 1 0 0 7.8567420131838617 1 no_rotate no_reflect no_shear #
face $12 -1 $-1 $13 $14 $6 $-1 $15 forward single #
shell $-1 -1 $-1 $-1 $-1 $16 $-1 $8 #
model_id-kcp-attrib $-1 -1 $-1 $-1 $10 1 1021384604 1021384604 -786366463 2 #
face $17 -1 $-1 $18 $19 $6 $-1 $20 forward single #
loop $-1 -1 $-1 $-1 $21 $10 #
plane-surface $-1 -1 $-1 30 0 20 -1 0 0 0 0 1 forward_v I I I I #
face $-1 -1 $-1 $22 $23 $11 $-1 $24 forward single #
model_id-kcp-attrib $-1 -1 $-1 $-1 $13 1 1021384604 1021384604 -786366463 3 #
face $25 -1 $-1 $26 $27 $6 $-1 $28 forward single #
loop $-1 -1 $-1 $-1 $29 $13 #
plane-surface $-1 -1 $-1 -30 0 20 1 0 0 0 0 -1 forward_v I I I I #
coedge $-1 -1 $-1 $30 $31 $32 $33 reversed $14 $-1 #
face $34 -1 $-1 $35 $36 $11 $-1 $37 reversed single #
loop $-1 -1 $-1 $-1 $38 $16 #
plane-surface $-1 -1 $-1 0 0 27.856742013183862 0 0 1 1 0 0 forward_v I I I I #
model_id-kcp-attrib $-1 -1 $-1 $-1 $18 1 1021384604 1021384604 -786366463 4 #
face $39 -1 $-1 $40 $41 $6 $-1 $28 forward single #
loop $-1 -1 $-1 $-1 $42 $18 #
plane-surface $-1 -1 $-1 0 -10 20 0 1 0 0 0 1 forward_v I I I I #
coedge $-1 -1 $-1 $43 $44 $45 $46 reversed $19 $-1 #
coedge $-1 -1 $-1 $47 $21 $48 $49 forward $14 $-1 #
coedge $-1 -1 $-1 $21 $47 $50 $51 reversed $14 $-1 #
coedge $-1 -1 $-1 $52 $53 $21 $33 forward $54 $55 #
edge $-1 -1 $-1 $56 -20.158822093337012 $57 0 $32 $58 forward @7 unknown #
model_id-kcp-attrib $-1 -1 $-1 $-1 $22 1 1021384604 1021384604 -786366462 2 #
face $59 -1 $-1 $60 $61 $11 $-1 $62 reversed single #
loop $-1 -1 $-1 $-1 $63 $22 #
plane-surface $-1 -1 $-1 0 0 -27.856742013183862 0 0 1 1 0 0 forward_v I I I I #
coedge $-1 -1 $-1 $64 $65 $66 $67 forward $23 $-1 #
model_id-kcp-attrib $-1 -1 $-1 $-1 $26 1 1021384604 1021384604 -786366463 5 #
face $68 -1 $-1 $69 $70 $6 $-1 $71 forward single #
loop $-1 -1 $-1 $-1 $72 $26 #
coedge $-1 -1 $-1 $73 $74 $75 $76 reversed $27 $-1 #
coedge $-1 -1 $-1 $77 $29 $74 $78 forward $19 $-1 #
coedge $-1 -1 $-1 $29 $77 $79 $80 reversed $19 $-1 #
coedge $-1 -1 $-1 $81 $75 $29 $46 forward $54 $82 #
edge $-1 -1 $-1 $83 -20.350544657253771 $84 0 $45 $85 forward @7 unknown #
coedge $-1 -1 $-1 $31 $30 $86 $87 forward $14 $-1 #
coedge $-1 -1 $-1 $88 $89 $30 $49 reversed $90 $-1 #
edge $-1 -1 $-1 $56 6.8608537617812715 $91 10 $30 $92 forward @7 unknown #
coedge $-1 -1 $-1 $93 $72 $31 $51 forward $41 $-1 #
edge $-1 -1 $-1 $57 2.0449570434738362 $94 10 $31 $95 forward @7 unknown #
coedge $-1 -1 $-1 $96 $32 $72 $97 forward $54 $98 #
coedge $-1 -1 $-1 $32 $99 $88 $100 forward $54 $101 #
loop $-1 -1 $-1 $-1 $53 $102 #
pcurve $-1 -1 $-1 0 forward { exppc nubs 1 open 2 
	-20.158822093337012 1 0 1 
	67.902075954251472 48.776577757823617 
	67.902075954251472 31.223422242176369 
	4.5659894034948928e-005 
	spline forward { exactsur full nubs 3 3 open open none none 3 3 
	0 3 40 1 80 3 
	0 3 40 1 80 3 
	-40 -40 20 
	-30.571909584179366 -40 29.428090415820634 
	0 -40 20 
	30.571909584179366 -40 10.571909584179366 
	40 -40 20 
	-40 -30.571909584179366 29.428090415820634 
	-30.571909584179366 -30.571909584179366 35.713484026367723 
	0 -30.571909584179359 30.999438818457406 
	30.571909584179366 -30.571909584179366 20 
	40 -30.571909584179366 29.428090415820634 
	-40 0 10.571909584179366 
	-30.571909584179359 0 12.143257986816138 
	0 0 20 
	30.571909584179359 0 9.0005611815425937 
	40 0 20 
	-40 30.571909584179366 29.428090415820634 
	-30.571909584179366 30.571909584179366 20 
	0 30.571909584179366 27.856742013183862 
	30.571909584179366 30.571909584179366 4.2865159736322767 
	40 30.571909584179366 10.571909584179366 
	-40 40 20 
	-30.571909584179366 40 10.571909584179366 
	0 40 29.428090415820634 
	30.571909584179366 40 10.571909584179366 
	40 40 20 
	0 
	0 
	0 
	1 40 
	0 
	0 
	1 40 
	F 1 F 0 F 1 F 0 } I I I I 
	} 0 0 #
vertex $-1 -1 $-1 $100 $103 #
vertex $-1 -1 $-1 $97 $104 #
intcurve-curve $-1 -1 $-1 forward { surfintcur full nubs 3 open 3 
	-20.158822093337012 3 -10.183786237132905 2 0 3 
	29.999999999999996 10.000000000000002 13.139146238218729 
	29.999999999999996 6.6631937365221301 13.773672540978545 
	29.999999999999996 3.2857857923133049 14.558616604832606 
	29.999999999999996 -3.3545483557450324 16.23142025563634 
	29.999999999999996 -6.7037644288415148 17.143803735849069 
	29.999999999999996 -10 17.955042956526164 
	4.5659894034948928e-005 
	plane 30 0 20 1 0 0 0 0 1 reverse_v I I I I 
	spline forward { exactsur full nubs 3 3 open open none none 3 3 
	0 3 40 1 80 3 
	0 3 40 1 80 3 
	-40 -40 20 
	-30.571909584179366 -40 29.428090415820634 
	0 -40 20 
	30.571909584179366 -40 10.571909584179366 
	40 -40 20 
	-40 -30.571909584179366 29.428090415820634 
	-30.571909584179366 -30.571909584179366 35.713484026367723 
	0 -30.571909584179359 30.999438818457406 
	30.571909584179366 -30.571909584179366 20 
	40 -30.571909584179366 29.428090415820634 
	-40 0 10.571909584179366 
	-30.571909584179359 0 12.143257986816138 
	0 0 20 
	30.571909584179359 0 9.0005611815425937 
	40 0 20 
	-40 30.571909584179366 29.428090415820634 
	-30.571909584179366 30.571909584179366 20 
	0 30.571909584179359 27.856742013183862 
	30.571909584179366 30.571909584179366 4.2865159736322767 
	40 30.571909584179366 10.571909584179366 
	-40 40 20 
	-30.571909584179366 40 10.571909584179366 
	0 40 29.428090415820634 
	30.571909584179366 40 10.571909584179366 
	40 40 20 
	0 
	0 
	0 
	1 40 
	0 
	0 
	1 40 
	F 1 F 0 F 1 F 0 } I I I I 
	nullbs 
	nubs 3 open 3 
	-20.158822093337012 3 -10.183786237132905 3 0 3 
	67.902075954251472 48.776577757823617 
	67.902075954251472 45.868059310739767 
	67.902075954251472 42.901532170831629 
	67.902075954251472 39.999999999999993 
	67.902075954251472 37.059336619784702 
	67.902075954251472 34.109037320591348 
	67.902075954251472 31.223422242176369 
	
	I I 
	0 
	0 
	1 -10.183786237132914 
	} I I #
model_id-kcp-attrib $-1 -1 $-1 $-1 $35 1 1021384604 1021384604 -786366462 3 #
face $105 -1 $-1 $106 $107 $11 $-1 $108 reversed single #
loop $-1 -1 $-1 $-1 $109 $35 #
plane-surface $-1 -1 $-1 0 -40 0 0 1 0 0 0 1 forward_v I I I I #
coedge $-1 -1 $-1 $110 $111 $112 $113 forward $36 $-1 #
coedge $-1 -1 $-1 $114 $38 $115 $116 forward $23 $-1 #
coedge $-1 -1 $-1 $38 $114 $117 $118 forward $23 $-1 #
coedge $-1 -1 $-1 $119 $120 $38 $67 reversed $121 $-1 #
edge $-1 -1 $-1 $122 -40 $123 40 $66 $124 forward @7 unknown #
model_id-kcp-attrib $-1 -1 $-1 $-1 $40 1 1021384604 1021384604 -786366463 6 #
face $125 -1 $-1 $126 $127 $6 $-1 $128 forward single #
loop $-1 -1 $-1 $-1 $129 $40 #
plane-surface $-1 -1 $-1 0 10 20 0 -1 0 0 0 -1 forward_v I I I I #
coedge $-1 -1 $-1 $50 $130 $52 $97 reversed $41 $-1 #
coedge $-1 -1 $-1 $131 $42 $132 $133 reversed $27 $-1 #
coedge $-1 -1 $-1 $42 $131 $43 $78 reversed $27 $-1 #
coedge $-1 -1 $-1 $45 $134 $42 $76 forward $54 $135 #
edge $-1 -1 $-1 $136 -9.4199450639824214 $83 0 $75 $137 forward @7 unknown #
coedge $-1 -1 $-1 $44 $43 $138 $139 forward $19 $-1 #
edge $-1 -1 $-1 $83 -2.8123208146687659 $140 10 $43 $141 forward @7 unknown #
coedge $-1 -1 $-1 $142 $129 $44 $80 forward $70 $-1 #
edge $-1 -1 $-1 $84 0.10559039131936032 $143 10 $79 $144 forward @7 unknown #
coedge $-1 -1 $-1 $145 $45 $129 $146 forward $54 $147 #
pcurve $-1 -1 $-1 0 forward { exppc nubs 1 open 2 
	-20.350544657253771 1 0 1 
	12.09792404574852 31.223422242176369 
	12.09792404574852 48.776577757823617 
	0.00020581564810425048 
	spline forward { ref 1 } I I I I 
	} 0 0 #
vertex $-1 -1 $-1 $76 $148 #
vertex $-1 -1 $-1 $46 $149 #
intcurve-curve $-1 -1 $-1 forward { surfintcur full nubs 3 open 3 
	-20.350544657253771 3 -10.084845416484601 2 0 3 
	-30 -10.000000000000004 22.812320814668769 
	-30 -6.7446203918714005 21.835162293414633 
	-30 -3.3724669558199536 20.947767869678803 
	-30 3.3130532196556115 19.963368285841295 
	-30 6.6387081352894164 19.847790494259993 
	-30 10.000000000000004 19.89440960868064 
	0.00020581564810425048 
	plane -30 0 20 -1 0 0 0 0 -1 reverse_v I I I I 
	spline forward { ref 3 } I I I I 
	nullbs 
	nubs 3 open 3 
	-20.350544657253771 3 -10.084845416484601 3 0 3 
	12.09792404574852 31.223422242176369 
	12.09792404574852 34.126640687192285 
	12.09792404574852 37.088276626690487 
	12.09792404574852 39.999999999999993 
	12.09792404574852 42.934533478508058 
	12.09792404574852 45.830792654989565 
	12.09792404574852 48.776577757823617 
	
	I I 
	0 
	0 
	1 -10.084845416484592 
	} I I #
coedge $-1 -1 $-1 $150 $151 $47 $87 reversed $152 $-1 #
edge $-1 -1 $-1 $91 -10 $94 10 $47 $153 forward @7 unknown #
coedge $-1 -1 $-1 $154 $48 $53 $100 reversed $90 $-1 #
coedge $-1 -1 $-1 $48 $154 $150 $155 forward $90 $-1 #
loop $-1 -1 $-1 $-1 $88 $156 #
vertex $-1 -1 $-1 $87 $157 #
straight-curve $-1 -1 $-1 30 10 20 0 0 -1 I I #
coedge $-1 -1 $-1 $130 $50 $151 $158 forward $41 $-1 #
vertex $-1 -1 $-1 $51 $159 #
straight-curve $-1 -1 $-1 30 -10 20 0 0 -1 I I #
coedge $-1 -1 $-1 $160 $52 $161 $162 forward $54 $163 #
edge $-1 -1 $-1 $57 -52.978016379669818 $164 -43.456488947946028 $52 $165 forward @7 unknown #
pcurve $-1 -1 $-1 0 forward { exppc nubs 1 open 2 
	-52.978016379669818 1 -43.456488947946028 1 
	67.902075954251472 31.223422242176369 
	57.903359900899638 31.223422242176387 
	0.0001377809341960623 
	spline forward { ref 3 } I I I I 
	} 0 0 #
coedge $-1 -1 $-1 $53 $166 $167 $168 forward $54 $169 #
edge $-1 -1 $-1 $170 -9.4250379690075548 $56 0 $53 $171 forward @7 unknown #
pcurve $-1 -1 $-1 0 forward { exppc nubs 1 open 2 
	-9.4250379690075548 1 0 1 
	57.903359900899503 48.776577757823787 
	67.902075954251472 48.776577757823617 
	0.00087777211697540514 
	spline forward { ref 1 } I I I I 
	} 0 0 #
face $172 -1 $-1 $173 $174 $6 $-1 $175 forward single #
point $-1 -1 $-1 30 10 13.139146238218729 #
point $-1 -1 $-1 30 -10 17.955042956526164 #
model_id-kcp-attrib $-1 -1 $-1 $-1 $60 1 1021384604 1021384604 -786366462 4 #
face $176 -1 $-1 $177 $178 $11 $-1 $179 reversed single #
loop $-1 -1 $-1 $-1 $180 $60 #
plane-surface $-1 -1 $-1 -40 0 0 1 0 0 0 0 -1 forward_v I I I I #
coedge $-1 -1 $-1 $181 $117 $182 $183 forward $61 $-1 #
coedge $-1 -1 $-1 $184 $63 $181 $185 forward $36 $-1 #
coedge $-1 -1 $-1 $63 $184 $186 $187 forward $36 $-1 #
coedge $-1 -1 $-1 $120 $119 $63 $113 reversed $121 $-1 #
edge $-1 -1 $-1 $188 -40 $189 40 $112 $190 forward @7 unknown #
coedge $-1 -1 $-1 $65 $64 $191 $192 forward $23 $-1 #
coedge $-1 -1 $-1 $193 $194 $64 $116 reversed $178 $-1 #
edge $-1 -1 $-1 $123 -40 $195 40 $115 $196 forward @7 unknown #
coedge $-1 -1 $-1 $109 $197 $65 $118 reversed $61 $-1 #
edge $-1 -1 $-1 $198 -40 $122 40 $117 $199 forward @7 unknown #
coedge $-1 -1 $-1 $112 $66 $197 $200 forward $121 $-1 #
coedge $-1 -1 $-1 $66 $112 $193 $201 reversed $121 $-1 #
loop $-1 -1 $-1 $-1 $119 $177 #
vertex $-1 -1 $-1 $67 $202 #
vertex $-1 -1 $-1 $67 $203 #
straight-curve $-1 -1 $-1 40 0 27.856742013183862 0 1 0 I I #
model_id-kcp-attrib $-1 -1 $-1 $-1 $69 1 1021384604 1021384604 -786366463 7 #
face $204 -1 $-1 $156 $152 $6 $-1 $128 forward single #
loop $-1 -1 $-1 $-1 $205 $69 #
plane-surface $-1 -1 $-1 0 0 10 0 0 1 1 0 0 forward_v I I I I #
coedge $-1 -1 $-1 $79 $206 $81 $146 reversed $70 $-1 #
coedge $-1 -1 $-1 $72 $93 $207 $208 reversed $41 $-1 #
coedge $-1 -1 $-1 $74 $73 $209 $210 forward $27 $-1 #
coedge $-1 -1 $-1 $211 $212 $73 $133 forward $213 $-1 #
edge $-1 -1 $-1 $214 -10 $136 3.4496495772742612 $132 $215 forward @7 unknown #
coedge $-1 -1 $-1 $75 $160 $211 $216 forward $54 $217 #
pcurve $-1 -1 $-1 0 forward { exppc nubs 1 open 2 
	-9.4199450639824214 1 0 1 
	22.096640099100362 31.223422242176383 
	12.097924045748522 31.223422242176369 
	0.00013778093419522362 
	spline forward { ref 3 } I I I I 
	} 0 0 #
vertex $-1 -1 $-1 $216 $218 #
intcurve-curve $-1 -1 $-1 forward { surfintcur full nubs 3 open 2 
	-9.4199450639824214 3 0 3 
	-20 -9.9999999999999893 23.449649577274261 
	-23.516615788682866 -9.9999999999999893 23.387160320535816 
	-26.879691974176851 -10.000000000000004 23.163266430002817 
	-30 -10.000000000000004 22.812320814668773 
	0.00013778093418811819 
	plane 0 -10 20 0 -1 0 0 0 1 reverse_v I I I I 
	spline forward { ref 3 } I I I I 
	nullbs 
	nubs 3 open 2 
	-9.4199450639824214 3 0 3 
	22.096640099100362 31.223422242176383 
	18.133113417861352 31.223422242176369 
	15.017275918037118 31.223422242176369 
	12.097924045748522 31.223422242176369 
	
	I I 
	0 
	0 
	0 
	} I I #
coedge $-1 -1 $-1 $209 $219 $77 $139 reversed $127 $-1 #
edge $-1 -1 $-1 $140 -10 $143 10 $77 $220 forward @7 unknown #
vertex $-1 -1 $-1 $139 $221 #
straight-curve $-1 -1 $-1 -30 -10 20 0 0 -1 I I #
coedge $-1 -1 $-1 $206 $79 $219 $222 forward $70 $-1 #
vertex $-1 -1 $-1 $222 $223 #
straight-curve $-1 -1 $-1 -30 10 20 0 0 -1 I I #
coedge $-1 -1 $-1 $166 $81 $224 $225 forward $54 $226 #
edge $-1 -1 $-1 $84 -57.666340021812573 $227 -46.7403695945534 $81 $228 forward @7 unknown #
pcurve $-1 -1 $-1 0 forward { exppc nubs 1 open 2 
	-57.666340021812573 1 -46.7403695945534 1 
	12.09792404574852 48.776577757823617 
	22.096640099100366 48.776577757823588 
	0.0008777721167978795 
	spline forward { ref 1 } I I I I 
	} 0 0 #
point $-1 -1 $-1 -30 -10 22.812320814668766 #
point $-1 -1 $-1 -30 10 19.89440960868064 #
coedge $-1 -1 $-1 $229 $86 $89 $155 reversed $152 $-1 #
coedge $-1 -1 $-1 $86 $229 $93 $158 reversed $152 $-1 #
loop $-1 -1 $-1 $-1 $229 $126 #
straight-curve $-1 -1 $-1 30 0 10 0 -1 0 I I #
coedge $-1 -1 $-1 $89 $88 $230 $231 reversed $90 $-1 #
edge $-1 -1 $-1 $232 20 $91 30 $89 $233 forward @7 unknown #
face $234 -1 $-1 $102 $90 $6 $-1 $71 forward single #
point $-1 -1 $-1 30 10 10 #
edge $-1 -1 $-1 $94 -30 $235 -20 $93 $236 forward @7 unknown #
point $-1 -1 $-1 30 -10 10 #
coedge $-1 -1 $-1 $134 $96 $237 $238 forward $54 $239 #
coedge $-1 -1 $-1 $207 $240 $96 $162 reversed $241 $-1 #
edge $-1 -1 $-1 $164 -9.7396911559572281 $242 0 $96 $243 forward @7 unknown #
pcurve $-1 -1 $-1 0 forward { exppc nubs 1 open 2 
	-9.7396911559572281 1 0 1 
	57.903359900901819 31.223422242202936 
	57.90335990089963 22.096640099100359 
	0.00033308132953137576 
	spline forward { ref 3 } I I I I 
	} 0 0 #
vertex $-1 -1 $-1 $208 $244 #
intcurve-curve $-1 -1 $-1 forward { surfintcur full nubs 3 open 2 
	-52.978016379669818 3 -43.456488947946028 3 
	29.999999999999996 -10 17.955042956526164 
	26.891487915516485 -10 17.486525318789333 
	23.527656913304341 -9.9999999999999858 17.645055985074837 
	20 -9.9999999999999858 18.123538767000312 
	0.00013778093418811819 
	plane 0 -10 20 0 -1 0 0 0 1 reverse_v I I I I 
	spline forward { ref 3 } I I I I 
	nullbs 
	nubs 3 open 2 
	-52.978016379669818 3 -43.456488947946028 3 
	67.902075954251472 31.223422242176369 
	65.004615840220367 31.223422242176369 
	61.88032428036729 31.223422242176369 
	57.903359900899638 31.223422242176387 
	
	I I 
	0 
	0 
	0 
	} I I #
coedge $-1 -1 $-1 $99 $145 $245 $246 forward $54 $247 #
coedge $-1 -1 $-1 $248 $230 $99 $168 reversed $241 $-1 #
edge $-1 -1 $-1 $249 -37.234539551316367 $170 -28.206594840720811 $99 $250 forward @7 unknown #
pcurve $-1 -1 $-1 0 forward { exppc nubs 1 open 2 
	-37.234539551316367 1 -28.206594840720811 1 
	57.903359900899638 57.903359900899638 
	57.903359900873973 48.776577757779954 
	0.0003330813387451265 
	spline forward { ref 1 } I I I I 
	} 0 0 #
vertex $-1 -1 $-1 $168 $251 #
intcurve-curve $-1 -1 $-1 forward { surfintcur full nubs 3 open 3 
	-9.4250379690075548 3 -8.8661950323824641 2 0 3 
	20 10.000000000000203 14.271776628657094 
	20.207492379951375 10.000000000000203 14.226278038139123 
	20.414208018180965 9.9999999999999929 14.181785615692066 
	23.886623618117095 9.9999999999999929 13.449603073903134 
	27.047466596127919 10.000000000000002 13.009046770537008 
	29.999999999999996 10.000000000000002 13.139146238218729 
	0.00087777211678899771 
	plane 0 10 20 0 1 0 0 0 -1 reverse_v I I I I 
	spline forward { ref 3 } I I I I 
	nullbs 
	nubs 3 open 3 
	-9.4250379690075548 3 -8.8661950323824641 3 0 3 
	57.903359900899503 48.776577757823787 
	58.118726531498424 48.776577757823617 
	58.305248018660691 48.776577757823617 
	58.490846072110443 48.776577757823617 
	61.821501287758927 48.776577757823617 
	64.953489940178201 48.776577757823617 
	67.902075954251472 48.776577757823617 
	
	I I 
	0 
	0 
	0 
	} I I #
model_id-kcp-attrib $-1 -1 $-1 $-1 $102 1 1021384604 1021384604 -786366463 10 #
face $252 -1 $-1 $253 $254 $6 $-1 $255 forward single #
loop $-1 -1 $-1 $54 $256 $102 #
spline-surface $-1 -1 $-1 forward { ref 3 } I I I I #
model_id-kcp-attrib $-1 -1 $-1 $-1 $106 1 1021384604 1021384604 -786366462 5 #
face $257 -1 $-1 $-1 $121 $11 $-1 $258 reversed single #
loop $-1 -1 $-1 $-1 $193 $106 #
plane-surface $-1 -1 $-1 0 40 0 0 -1 0 0 0 -1 forward_v I I I I #
coedge $-1 -1 $-1 $259 $191 $194 $260 forward $107 $-1 #
coedge $-1 -1 $-1 $197 $109 $110 $185 reversed $61 $-1 #
coedge $-1 -1 $-1 $191 $259 $109 $183 reversed $107 $-1 #
edge $-1 -1 $-1 $198 -27.856742013183862 $261 27.856742013183862 $182 $262 forward @7 unknown #
coedge $-1 -1 $-1 $111 $110 $259 $263 forward $36 $-1 #
edge $-1 -1 $-1 $189 -40 $261 40 $181 $264 forward @7 unknown #
coedge $-1 -1 $-1 $194 $193 $111 $187 reversed $178 $-1 #
edge $-1 -1 $-1 $265 -40 $188 40 $186 $266 forward @7 unknown #
vertex $-1 -1 $-1 $113 $267 #
vertex $-1 -1 $-1 $200 $268 #
straight-curve $-1 -1 $-1 40 0 -27.856742013183862 0 -1 0 I I #
coedge $-1 -1 $-1 $180 $182 $114 $192 reversed $107 $-1 #
edge $-1 -1 $-1 $195 -40 $198 40 $191 $269 forward @7 unknown #
coedge $-1 -1 $-1 $186 $115 $120 $201 forward $178 $-1 #
coedge $-1 -1 $-1 $115 $186 $180 $260 reversed $178 $-1 #
vertex $-1 -1 $-1 $116 $270 #
straight-curve $-1 -1 $-1 0 40 27.856742013183862 -1 0 0 I I #
coedge $-1 -1 $-1 $117 $181 $119 $200 reversed $61 $-1 #
vertex $-1 -1 $-1 $192 $271 #
straight-curve $-1 -1 $-1 0 -40 27.856742013183862 1 0 0 I I #
edge $-1 -1 $-1 $122 -27.856742013183862 $189 27.856742013183862 $119 $272 forward @7 unknown #
edge $-1 -1 $-1 $123 -27.856742013183862 $188 27.856742013183862 $120 $273 forward @7 unknown #
point $-1 -1 $-1 40 -40 27.856742013183862 #
point $-1 -1 $-1 40 40 27.856742013183862 #
model_id-kcp-attrib $-1 -1 $-1 $-1 $126 1 1021384604 1021384604 -786366463 8 #
coedge $-1 -1 $-1 $219 $209 $212 $274 reversed $127 $-1 #
coedge $-1 -1 $-1 $129 $142 $275 $276 reversed $70 $-1 #
coedge $-1 -1 $-1 $277 $161 $130 $208 forward $241 $-1 #
edge $-1 -1 $-1 $164 1.8764612329996879 $235 10 $207 $278 forward @7 unknown #
coedge $-1 -1 $-1 $205 $138 $131 $210 reversed $127 $-1 #
edge $-1 -1 $-1 $214 20 $140 30 $131 $236 forward @7 unknown #
coedge $-1 -1 $-1 $279 $132 $134 $216 reversed $213 $-1 #
coedge $-1 -1 $-1 $132 $275 $205 $274 forward $213 $-1 #
loop $-1 -1 $-1 $-1 $132 $280 #
vertex $-1 -1 $-1 $274 $281 #
straight-curve $-1 -1 $-1 -20 -10 20 0 0 1 I I #
edge $-1 -1 $-1 $282 -38.134266029905049 $136 -28.404998637235472 $134 $283 forward @7 unknown #
pcurve $-1 -1 $-1 0 forward { exppc nubs 1 open 2 
	-38.134266029905049 1 -28.404998637235472 1 
	22.096640099100362 22.096640099100362 
	22.096640099100391 31.223422242176934 
	0.00034074937816865524 
	spline forward { ref 3 } I I I I 
	} 0 0 #
point $-1 -1 $-1 -20 -9.9999999999999893 23.449649577274261 #
coedge $-1 -1 $-1 $138 $205 $142 $222 reversed $127 $-1 #
straight-curve $-1 -1 $-1 -30 0 10 0 1 0 I I #
point $-1 -1 $-1 -30 -10 10 #
edge $-1 -1 $-1 $143 -30 $284 -20 $142 $233 forward @7 unknown #
point $-1 -1 $-1 -30 10 10 #
coedge $-1 -1 $-1 $275 $285 $145 $225 reversed $213 $-1 #
edge $-1 -1 $-1 $227 -9.6947846977484957 $286 0 $145 $287 forward @7 unknown #
pcurve $-1 -1 $-1 0 forward { exppc nubs 1 open 2 
	-9.6947846977484957 1 0 1 
	22.096640099101702 48.776577757799046 
	22.096640099100362 57.903359900899638 
	0.00034074937865187472 
	spline forward { ref 1 } I I I I 
	} 0 0 #
vertex $-1 -1 $-1 $276 $288 #
intcurve-curve $-1 -1 $-1 forward { surfintcur full nubs 3 open 2 
	-57.666340021812573 3 -46.7403695945534 3 
	-30 10.000000000000004 19.89440960868064 
	-26.890708419512244 10.000000000000004 19.845628730524759 
	-23.527163120788501 9.9999999999999609 19.948768728291281 
	-20 9.9999999999999609 20.02062152717053 
	0.00087777211678899771 
	plane 0 10 20 0 1 0 0 0 -1 reverse_v I I I I 
	spline forward { ref 3 } I I I I 
	nullbs 
	nubs 3 open 2 
	-57.666340021812573 3 -46.7403695945534 3 
	12.09792404574852 48.776577757823617 
	15.002876350322149 48.776577757823617 
	18.133936428665081 48.776577757823617 
	22.096640099100366 48.776577757823588 
	
	I I 
	0 
	0 
	0 
	} I I #
coedge $-1 -1 $-1 $151 $150 $277 $289 reversed $152 $-1 #
coedge $-1 -1 $-1 $167 $277 $154 $231 forward $241 $-1 #
edge $-1 -1 $-1 $232 -10 $170 -5.7282233713429065 $230 $290 forward @7 unknown #
vertex $-1 -1 $-1 $289 $291 #
straight-curve $-1 -1 $-1 0 10 10 1 0 0 I I #
model_id-kcp-attrib $-1 -1 $-1 $-1 $156 1 1021384604 1021384604 -786366463 9 #
vertex $-1 -1 $-1 $289 $292 #
straight-curve $-1 -1 $-1 0 -10 10 -1 0 0 I I #
coedge $-1 -1 $-1 $293 $294 $160 $238 reversed $295 $-1 #
edge $-1 -1 $-1 $242 -40.678397934460023 $282 0 $160 $296 forward @7 unknown #
pcurve $-1 -1 $-1 0 forward { exppc nubs 1 open 2 
	-40.678397934460023 1 0 1 
	57.90335990089963 22.096640099100359 
	22.096640099100359 22.096640099100362 
	0.00033308132870514144 
	spline forward { ref 3 } I I I I 
	} 0 0 #
coedge $-1 -1 $-1 $161 $297 $293 $298 reversed $241 $-1 #
loop $-1 -1 $-1 $-1 $230 $253 #
vertex $-1 -1 $-1 $238 $299 #
intcurve-curve $-1 -1 $-1 forward { surfintcur full nubs 3 open 2 
	-9.7396911559572281 3 0 3 
	20 -9.9999999999999858 18.123538767000312 
	20 -13.423296994120795 18.891049684562766 
	19.999999999999996 -16.779684875670277 19.587996991171931 
	19.999999999999996 -20.000000000000004 20 
	0.00033308132870380695 
	plane 20 0 20 1 0 0 0 0 1 reverse_v I I I I 
	spline forward { ref 3 } I I I I 
	nullbs 
	nubs 3 open 2 
	-9.7396911559572281 3 0 3 
	57.903359900901819 31.223422242202936 
	57.90335990089963 27.949821705773438 
	57.90335990089963 24.943766860942169 
	57.90335990089963 22.096640099100359 
	
	I I 
	0 
	0 
	0 
	} I I #
point $-1 -1 $-1 20 -9.9999999999999858 18.123538767000312 #
coedge $-1 -1 $-1 $300 $301 $166 $246 reversed $254 $-1 #
edge $-1 -1 $-1 $286 -39.277923672597922 $249 0 $166 $302 forward @7 unknown #
pcurve $-1 -1 $-1 0 forward { exppc nubs 1 open 2 
	-39.277923672597922 1 0 1 
	22.096640099100362 57.903359900899638 
	57.903359900899638 57.903359900899638 
	0.00034074937816562658 
	spline forward { ref 1 } I I I I 
	} 0 0 #
coedge $-1 -1 $-1 $297 $167 $301 $303 forward $241 $-1 #
vertex $-1 -1 $-1 $246 $304 #
intcurve-curve $-1 -1 $-1 forward { surfintcur full nubs 3 open 2 
	-37.234539551316367 3 -28.206594840720811 3 
	20 20 13.537273484758737 
	20 16.712967457917884 13.60095401821572 
	20 13.349977334303743 13.863050315504045 
	20 10.000000000000203 14.271776628657094 
	0.00033308132870380695 
	plane 20 0 20 1 0 0 0 0 1 reverse_v I I I I 
	spline forward { ref 3 } I I I I 
	nullbs 
	nubs 3 open 2 
	-37.234539551316367 3 -28.206594840720811 3 
	57.903359900899638 57.903359900899638 
	57.90335990089963 54.980754893022606 
	57.90335990089963 51.989318351152392 
	57.903359900873973 48.776577757779954 
	
	I I 
	0 
	0 
	0 
	} I I #
point $-1 -1 $-1 20 10.000000000000203 14.271776628657094 #
model_id-kcp-attrib $-1 -1 $-1 $-1 $173 1 1021384604 1021384604 -786366463 11 #
face $305 -1 $-1 $306 $241 $6 $-1 $307 forward single #
loop $-1 -1 $-1 $-1 $245 $173 #
plane-surface $-1 -1 $-1 0 20 20 0 -1 0 0 0 -1 forward_v I I I I #
coedge $-1 -1 $-1 $308 $309 $310 $311 forward $174 $312 #
model_id-kcp-attrib $-1 -1 $-1 $-1 $177 1 1021384604 1021384604 -786366462 6 #
plane-surface $-1 -1 $-1 40 0 0 -1 0 0 0 0 1 forward_v I I I I #
coedge $-1 -1 $-1 $182 $180 $184 $263 reversed $107 $-1 #
edge $-1 -1 $-1 $195 -27.856742013183862 $265 27.856742013183862 $194 $313 forward @7 unknown #
vertex $-1 -1 $-1 $263 $314 #
straight-curve $-1 -1 $-1 -40 -40 0 0 0 -1 I I #
edge $-1 -1 $-1 $261 -40 $265 40 $259 $315 forward @7 unknown #
straight-curve $-1 -1 $-1 0 -40 -27.856742013183862 -1 0 0 I I #
vertex $-1 -1 $-1 $187 $316 #
straight-curve $-1 -1 $-1 0 40 -27.856742013183862 1 0 0 I I #
point $-1 -1 $-1 40 40 -27.856742013183862 #
point $-1 -1 $-1 40 -40 -27.856742013183862 #
straight-curve $-1 -1 $-1 -40 0 27.856742013183862 0 -1 0 I I #
point $-1 -1 $-1 -40 40 27.856742013183862 #
point $-1 -1 $-1 -40 -40 27.856742013183862 #
straight-curve $-1 -1 $-1 40 -40 0 0 0 -1 I I #
straight-curve $-1 -1 $-1 40 40 0 0 0 -1 I I #
edge $-1 -1 $-1 $284 -10 $214 10 $212 $317 forward @7 unknown #
coedge $-1 -1 $-1 $212 $224 $206 $276 forward $213 $-1 #
edge $-1 -1 $-1 $227 -0.020621527170529674 $284 10 $275 $318 forward @7 unknown #
coedge $-1 -1 $-1 $230 $207 $229 $289 forward $241 $-1 #
straight-curve $-1 -1 $-1 20 -10 20 0 0 -1 I I #
coedge $-1 -1 $-1 $319 $211 $294 $320 forward $213 $-1 #
face $321 -1 $-1 $322 $213 $6 $-1 $323 forward single #
point $-1 -1 $-1 -20 -10 10 #
vertex $-1 -1 $-1 $238 $324 #
intcurve-curve $-1 -1 $-1 forward { surfintcur full nubs 3 open 2 
	-38.134266029905049 3 -28.404998637235472 3 
	-19.999999999999993 -20 26.462726515241265 
	-19.999999999999993 -16.779879244351125 25.574603488212418 
	-20 -13.423401376064581 24.473729778810426 
	-20 -9.9999999999999893 23.449649577274261 
	0.00034074937815089168 
	plane -20 0 20 -1 0 0 0 0 -1 reverse_v I I I I 
	spline forward { ref 3 } I I I I 
	nullbs 
	nubs 3 open 2 
	-38.134266029905049 3 -28.404998637235472 3 
	22.096640099100362 22.096640099100362 
	22.096640099100362 24.979896309133743 
	22.096640099100362 28.018214360203608 
	22.096640099100391 31.223422242176934 
	
	I I 
	0 
	0 
	0 
	} I I #
vertex $-1 -1 $-1 $274 $325 #
coedge $-1 -1 $-1 $224 $319 $300 $326 reversed $213 $-1 #
vertex $-1 -1 $-1 $225 $327 #
intcurve-curve $-1 -1 $-1 forward { surfintcur full nubs 3 open 2 
	-9.6947846977484957 3 0 3 
	-20 9.9999999999999609 20.02062152717053 
	-20 13.414772401992471 19.913578771108277 
	-20 16.768527033648947 19.971927582973727 
	-20 20.000000000000004 20 
	0.00034074937815089168 
	plane -20 0 20 -1 0 0 0 0 -1 reverse_v I I I I 
	spline forward { ref 3 } I I I I 
	nullbs 
	nubs 3 open 2 
	-9.6947846977484957 3 0 3 
	22.096640099101702 48.776577757799046 
	22.096640099100362 52.033739848187579 
	22.096640099100362 55.013906680383343 
	22.096640099100362 57.903359900899638 
	
	I I 
	0 
	0 
	0 
	} I I #
point $-1 -1 $-1 -20 9.9999999999999609 20.02062152717053 #
edge $-1 -1 $-1 $235 -10 $232 10 $277 $328 forward @7 unknown #
straight-curve $-1 -1 $-1 20 10 20 0 0 1 I I #
point $-1 -1 $-1 20 10 10 #
point $-1 -1 $-1 20 -10 10 #
coedge $-1 -1 $-1 $329 $237 $240 $298 forward $295 $-1 #
coedge $-1 -1 $-1 $237 $329 $279 $320 reversed $295 $-1 #
loop $-1 -1 $-1 $-1 $237 $330 #
intcurve-curve $-1 -1 $-1 forward { surfintcur full nubs 3 open 3 
	-40.678397934460023 3 -19.805542468115608 2 0 3 
	19.999999999999996 -20.000000000000004 20 
	13.682908040576219 -20.000000000000004 20.808200686529993 
	6.8421841537243848 -20 22.712780651896946 
	-6.4923157758534273 -20 25.408345896661711 
	-13.399391075163841 -20 26.334851207621632 
	-20.000000000000007 -20 26.462726515241265 
	0.00033308132870158873 
	plane 0 -20 20 0 -1 0 0 0 1 reverse_v I I I I 
	spline forward { ref 3 } I I I I 
	nullbs 
	nubs 3 open 3 
	-40.678397934460023 3 -19.805542468115608 3 0 3 
	57.90335990089963 22.096640099100359 
	52.318328349543414 22.096640099100359 
	46.121737885811939 22.096640099100362 
	39.999999999999993 22.096640099100362 
	34.111816045081582 22.096640099100362 
	27.965451086455062 22.096640099100362 
	22.096640099100359 22.096640099100362 
	
	I I 
	0 
	0 
	1 -19.805542468115615 
	} I I #
coedge $-1 -1 $-1 $240 $248 $331 $332 forward $241 $-1 #
edge $-1 -1 $-1 $242 0 $333 20 $240 $334 forward @7 unknown #
point $-1 -1 $-1 20 -20 20 #
coedge $-1 -1 $-1 $335 $245 $285 $326 forward $254 $-1 #
coedge $-1 -1 $-1 $245 $335 $248 $303 reversed $254 $-1 #
intcurve-curve $-1 -1 $-1 forward { surfintcur full nubs 3 open 3 
	-39.277923672597922 3 -19.657546587638294 2 0 3 
	-20 20.000000000000004 20 
	-13.650543117882474 20.000000000000004 20.055158933198943 
	-6.8290296614808241 20 20.225839968309064 
	6.8419668051043114 20 17.840280941453699 
	13.68332980061906 20 15.279438044387698 
	20 20 13.537273484758737 
	0.00034074937815496844 
	plane 0 20 20 0 1 0 0 0 -1 reverse_v I I I I 
	spline forward { ref 3 } I I I I 
	nullbs 
	nubs 3 open 3 
	-39.277923672597922 3 -19.657546587638294 3 0 3 
	22.096640099100362 57.903359900899638 
	27.774069193387486 57.903359900899638 
	33.801721204586421 57.903359900899638 
	40 57.903359900899638 
	45.994949625502215 57.903359900899638 
	52.247491701811576 57.903359900899638 
	57.903359900899638 57.903359900899638 
	
	I I 
	0 
	0 
	1 -19.657546587638294 
	} I I #
edge $-1 -1 $-1 $249 6.4627265152412647 $336 20 $248 $337 forward @7 unknown #
point $-1 -1 $-1 20 20 13.537273484758735 #
model_id-kcp-attrib $-1 -1 $-1 $-1 $253 1 1021384604 1021384604 -786366463 12 #
face $338 -1 $-1 $330 $339 $6 $-1 $340 forward single #
plane-surface $-1 -1 $-1 20 0 20 -1 0 0 0 0 1 forward_v I I I I #
coedge $-1 -1 $-1 $341 $256 $342 $343 forward $174 $344 #
coedge $-1 -1 $-1 $256 $341 $345 $346 forward $174 $347 #
coedge $-1 -1 $-1 $348 $349 $256 $311 reversed $350 $-1 #
edge $-1 -1 $-1 $351 0 $352 80 $310 $353 forward @7 unknown #
pcurve $-1 -1 $-1 0 forward { exppc nubs 1 open 2 
	0 1 80 1 
	80 0 
	80 80 
	0 
	spline forward { exactsur full nubs 3 3 open open none none 3 3 
	0 3 40 1 80 3 
	0 3 40 1 80 3 
	-40 -40 20 
	-30.571909584179366 -40 29.428090415820634 
	0 -40 20 
	30.571909584179366 -40 10.571909584179366 
	40 -40 20 
	-40 -30.571909584179366 29.428090415820634 
	-30.571909584179366 -30.571909584179366 35.713484026367723 
	0 -30.571909584179359 30.999438818457406 
	30.571909584179366 -30.571909584179366 20 
	40 -30.571909584179366 29.428090415820634 
	-40 0 10.571909584179366 
	-30.571909584179359 0 12.143257986816138 
	0 0 20 
	30.571909584179359 0 9.0005611815425937 
	40 0 20 
	-40 30.571909584179366 29.428090415820634 
	-30.571909584179366 30.571909584179366 20 
	0 30.571909584179366 27.856742013183862 
	30.571909584179366 30.571909584179366 4.2865159736322767 
	40 30.571909584179366 10.571909584179366 
	-40 40 20 
	-30.571909584179366 40 10.571909584179366 
	0 40 29.428090415820634 
	30.571909584179366 40 10.571909584179366 
	40 40 20 
	0 
	0 
	0 
	1 40 
	0 
	0 
	1 40 
	F 1 F 0 F 1 F 0 } I I I I 
	} 0 0 #
straight-curve $-1 -1 $-1 -40 40 0 0 0 -1 I I #
point $-1 -1 $-1 -40 -40 -27.856742013183862 #
straight-curve $-1 -1 $-1 -40 0 -27.856742013183862 0 1 0 I I #
point $-1 -1 $-1 -40 40 -27.856742013183862 #
straight-curve $-1 -1 $-1 -20 0 10 0 -1 0 I I #
straight-curve $-1 -1 $-1 -20 10 20 0 0 -1 I I #
coedge $-1 -1 $-1 $285 $279 $354 $355 forward $213 $-1 #
edge $-1 -1 $-1 $282 -6.4627265152412647 $356 20 $279 $357 forward @7 unknown #
model_id-kcp-attrib $-1 -1 $-1 $-1 $280 1 1021384604 1021384604 -786366463 15 #
face $358 -1 $-1 $359 $360 $6 $-1 $361 reversed single #
plane-surface $-1 -1 $-1 -20 0 20 1 0 0 0 0 -1 forward_v I I I I #
point $-1 -1 $-1 -20 -20 26.462726515241265 #
point $-1 -1 $-1 -20 10 10 #
edge $-1 -1 $-1 $286 0 $362 20 $300 $363 forward @7 unknown #
point $-1 -1 $-1 -20 20 20 #
straight-curve $-1 -1 $-1 20 0 10 0 1 0 I I #
coedge $-1 -1 $-1 $294 $293 $364 $365 forward $295 $-1 #
face $366 -1 $-1 $280 $295 $6 $-1 $367 forward single #
coedge $-1 -1 $-1 $368 $364 $297 $332 reversed $339 $-1 #
edge $-1 -1 $-1 $336 -20 $333 20 $297 $369 forward @7 unknown #
vertex $-1 -1 $-1 $298 $370 #
straight-curve $-1 -1 $-1 20 -20 20 0 0 -1 I I #
coedge $-1 -1 $-1 $301 $300 $368 $371 forward $254 $-1 #
vertex $-1 -1 $-1 $332 $372 #
straight-curve $-1 -1 $-1 20 20 20 0 0 -1 I I #
model_id-kcp-attrib $-1 -1 $-1 $-1 $306 1 1021384604 1021384604 -786366463 13 #
loop $-1 -1 $-1 $-1 $331 $306 #
plane-surface $-1 -1 $-1 0 0 0 0 0 1 1 0 0 forward_v I I I I #
coedge $-1 -1 $-1 $309 $308 $373 $374 forward $174 $375 #
coedge $-1 -1 $-1 $376 $377 $308 $343 reversed $378 $-1 #
edge $-1 -1 $-1 $352 -80 $379 0 $342 $380 reversed @7 unknown #
pcurve $-1 -1 $-1 0 reversed { exppc nubs 1 open 2 
	0 1 80 1 
	0 80 
	80 80 
	0 
	spline forward { ref 1 } I I I I 
	} 0 0 #
coedge $-1 -1 $-1 $381 $382 $309 $346 reversed $383 $-1 #
edge $384 -1 $-1 $385 0 $351 80 $345 $386 forward @7 unknown #
pcurve $-1 -1 $-1 0 forward { exppc nubs 1 open 2 
	0 1 80 1 
	0 0 
	80 0 
	0 
	spline forward { ref 3 } I I I I 
	} 0 0 #
coedge $-1 -1 $-1 $387 $310 $382 $388 forward $350 $-1 #
coedge $-1 -1 $-1 $310 $387 $376 $389 reversed $350 $-1 #
loop $-1 -1 $-1 $-1 $348 $390 #
vertex $-1 -1 $-1 $311 $391 #
vertex $-1 -1 $-1 $311 $392 #
intcurve-curve $-1 -1 $-1 forward { exactcur full nubs 3 open 3 
	0 3 40 1 80 3 
	40 -40 20 
	40 -30.571909584179366 29.428090415820634 
	40 0 20 
	40 30.571909584179366 10.571909584179366 
	40 40 20 
	0 
	spline forward { ref 3 } I I I I 
	plane 40 0 0 1 0 0 0 0 1 reverse_v I I I I 
	nubs 1 open 2 
	0 1 80 1 
	80 0 
	80 80 
	
	nullbs 
	I I 
	0 
	0 
	0 
	F 1 F 0 } I I #
coedge $-1 -1 $-1 $364 $368 $319 $355 reversed $339 $-1 #
edge $-1 -1 $-1 $356 -20 $362 20 $319 $393 forward @7 unknown #
vertex $-1 -1 $-1 $355 $394 #
straight-curve $-1 -1 $-1 -20 -20 20 0 0 -1 I I #
model_id-kcp-attrib $-1 -1 $-1 $-1 $322 1 1021384604 1021384604 -786366463 16 #
face $395 -1 $-1 $396 $383 $6 $-1 $397 reversed single #
loop $-1 -1 $-1 $-1 $398 $322 #
plane-surface $-1 -1 $-1 0 0 -20 0 0 1 1 0 0 forward_v I I I I #
vertex $-1 -1 $-1 $371 $399 #
straight-curve $-1 -1 $-1 -20 20 20 0 0 -1 I I #
coedge $-1 -1 $-1 $331 $354 $329 $365 reversed $339 $-1 #
edge $-1 -1 $-1 $333 -20 $356 20 $329 $400 forward @7 unknown #
model_id-kcp-attrib $-1 -1 $-1 $-1 $330 1 1021384604 1021384604 -786366463 14 #
plane-surface $-1 -1 $-1 0 -20 20 0 1 0 0 0 1 forward_v I I I I #
coedge $-1 -1 $-1 $354 $331 $335 $371 reversed $339 $-1 #
straight-curve $-1 -1 $-1 20 0 0 0 -1 0 I I #
point $-1 -1 $-1 20 -20 0 #
edge $-1 -1 $-1 $362 -20 $336 20 $335 $401 forward @7 unknown #
point $-1 -1 $-1 20 20 0 #
coedge $-1 -1 $-1 $402 $403 $341 $374 reversed $404 $-1 #
edge $405 -1 $-1 $379 -80 $385 0 $373 $406 reversed @7 unknown #
pcurve $-1 -1 $-1 0 reversed { exppc nubs 1 open 2 
	0 1 80 1 
	0 0 
	0 80 
	0 
	spline forward { exactsur full nubs 3 3 open open none none 3 3 
	0 3 40 1 80 3 
	0 3 40 1 80 3 
	-40 -40 20 
	-30.571909584179366 -40 29.428090415820634 
	0 -40 20 
	30.571909584179366 -40 10.571909584179366 
	40 -40 20 
	-40 -30.571909584179366 29.428090415820634 
	-30.571909584179366 -30.571909584179366 35.713484026367723 
	0 -30.571909584179359 30.999438818457406 
	30.571909584179366 -30.571909584179366 20 
	40 -30.571909584179366 29.428090415820634 
	-40 0 10.571909584179366 
	-30.571909584179359 0 12.143257986816138 
	0 0 20 
	30.571909584179359 0 9.0005611815425937 
	40 0 20 
	-40 30.571909584179366 29.428090415820634 
	-30.571909584179366 30.571909584179366 20 
	0 30.571909584179366 27.856742013183862 
	30.571909584179366 30.571909584179366 4.2865159736322767 
	40 30.571909584179366 10.571909584179366 
	-40 40 20 
	-30.571909584179366 40 10.571909584179366 
	0 40 29.428090415820634 
	30.571909584179366 40 10.571909584179366 
	40 40 20 
	0 
	0 
	0 
	1 40 
	0 
	0 
	1 40 
	F 1 F 0 F 1 F 0 } I I I I 
	} 0 0 #
coedge $-1 -1 $-1 $407 $342 $349 $389 forward $378 $-1 #
coedge $-1 -1 $-1 $342 $407 $402 $408 reversed $378 $-1 #
loop $-1 -1 $-1 $-1 $376 $409 #
vertex $-1 -1 $-1 $343 $410 #
intcurve-curve $-1 -1 $-1 forward { exactcur full nubs 3 open 3 
	0 3 40 1 80 3 
	-40 40 20 
	-30.571909584179366 40 10.571909584179366 
	0 40 29.428090415820634 
	30.571909584179366 40 10.571909584179366 
	40 40 20 
	0 
	plane 0 40 0 0 1 0 0 0 -1 reverse_v I I I I 
	spline forward { ref 3 } I I I I 
	nullbs 
	nubs 1 open 2 
	0 1 80 1 
	0 80 
	80 80 
	
	I I 
	0 
	0 
	1 40 
	F 1 F 0 } I I #
coedge $-1 -1 $-1 $411 $345 $403 $412 forward $383 $-1 #
coedge $-1 -1 $-1 $345 $411 $348 $388 reversed $383 $-1 #
loop $-1 -1 $-1 $-1 $381 $359 #
attrib_edge_convexity-kcp-attrib $-1 -1 $413 $-1 $346 1 #
vertex $-1 -1 $-1 $374 $414 #
intcurve-curve $-1 -1 $-1 forward { exactcur full nubs 3 open 3 
	0 3 40 1 80 3 
	-40 -40 20 
	-30.571909584179366 -40 29.428090415820634 
	0 -40 20 
	30.571909584179366 -40 10.571909584179366 
	40 -40 20 
	0 
	spline forward { ref 3 } I I I I 
	plane 0 -40 0 0 -1 0 0 0 1 reverse_v I I I I 
	nubs 1 open 2 
	0 1 80 1 
	0 0 
	80 0 
	
	nullbs 
	I I 
	0 
	0 
	0 
	F 1 F 0 } I I #
coedge $-1 -1 $-1 $349 $348 $398 $415 reversed $350 $-1 #
edge $416 -1 $-1 $351 -20 $417 20 $348 $418 forward @7 unknown #
edge $-1 -1 $-1 $352 -20 $419 20 $349 $420 forward @7 unknown #
face $421 -1 $-1 $-1 $350 $6 $-1 $422 reversed single #
point $-1 -1 $-1 40 -40 20 #
point $-1 -1 $-1 40 40 20 #
straight-curve $-1 -1 $-1 -20 0 0 0 1 0 I I #
point $-1 -1 $-1 -20 -20 0 #
model_id-kcp-attrib $-1 -1 $-1 $-1 $359 1 1021384604 1021384604 -786366463 17 #
face $423 -1 $-1 $409 $404 $6 $-1 $424 reversed single #
plane-surface $-1 -1 $-1 0 -40 0 0 1 0 0 0 1 forward_v I I I I #
coedge $-1 -1 $-1 $425 $426 $387 $415 forward $360 $-1 #
point $-1 -1 $-1 -20 20 0 #
straight-curve $-1 -1 $-1 0 -20 0 -1 0 0 I I #
straight-curve $-1 -1 $-1 0 20 0 1 0 0 I I #
coedge $-1 -1 $-1 $427 $373 $377 $408 forward $404 $-1 #
coedge $-1 -1 $-1 $373 $427 $381 $412 reversed $404 $-1 #
loop $-1 -1 $-1 $-1 $402 $396 #
attrib_edge_convexity-kcp-attrib $-1 -1 $428 $-1 $374 1 #
intcurve-curve $-1 -1 $-1 forward { exactcur full nubs 3 open 3 
	0 3 40 1 80 3 
	-40 -40 20 
	-40 -30.571909584179366 29.428090415820634 
	-40 0 10.571909584179366 
	-40 30.571909584179366 29.428090415820634 
	-40 40 20 
	0 
	plane -40 0 0 -1 0 0 0 0 -1 reverse_v I I I I 
	spline forward { ref 3 } I I I I 
	nullbs 
	nubs 1 open 2 
	0 1 80 1 
	0 0 
	0 80 
	
	I I 
	0 
	0 
	1 40 
	F 1 F 0 } I I #
coedge $-1 -1 $-1 $377 $376 $426 $429 reversed $378 $-1 #
edge $430 -1 $-1 $379 -20 $431 20 $377 $432 forward @7 unknown #
face $433 -1 $-1 $390 $378 $6 $-1 $434 reversed single #
point $-1 -1 $-1 -40 40 20 #
coedge $-1 -1 $-1 $382 $381 $425 $435 reversed $383 $-1 #
edge $436 -1 $-1 $385 -20 $437 20 $403 $438 forward @7 unknown #
convexity-sys-attrib $-1 -1 $-1 $384 $346 #
point $-1 -1 $-1 -40 -40 20 #
edge $439 -1 $-1 $419 -40 $417 40 $387 $440 forward @7 unknown #
attrib_edge_convexity-kcp-attrib $-1 -1 $441 $-1 $388 1 #
vertex $-1 -1 $-1 $388 $442 #
straight-curve $-1 -1 $-1 40 -40 0 0 0 -1 I I #
vertex $-1 -1 $-1 $415 $443 #
straight-curve $-1 -1 $-1 40 40 0 0 0 -1 I I #
model_id-kcp-attrib $-1 -1 $-1 $-1 $390 1 1021384604 1021384604 -786366463 20 #
plane-surface $-1 -1 $-1 40 0 0 -1 0 0 0 0 1 forward_v I I I I #
model_id-kcp-attrib $-1 -1 $-1 $-1 $396 1 1021384604 1021384604 -786366463 18 #
plane-surface $-1 -1 $-1 -40 0 0 1 0 0 0 0 -1 forward_v I I I I #
coedge $-1 -1 $-1 $444 $398 $411 $435 forward $360 $-1 #
coedge $-1 -1 $-1 $398 $444 $407 $429 forward $360 $-1 #
coedge $-1 -1 $-1 $403 $402 $444 $445 reversed $404 $-1 #
convexity-sys-attrib $-1 -1 $-1 $405 $374 #
edge $446 -1 $-1 $431 -40 $419 40 $407 $447 forward @7 unknown #
attrib_edge_convexity-kcp-attrib $-1 -1 $448 $-1 $408 1 #
vertex $-1 -1 $-1 $429 $449 #
straight-curve $-1 -1 $-1 -40 40 0 0 0 -1 I I #
model_id-kcp-attrib $-1 -1 $-1 $-1 $409 1 1021384604 1021384604 -786366463 19 #
plane-surface $-1 -1 $-1 0 40 0 0 -1 0 0 0 -1 forward_v I I I I #
edge $450 -1 $-1 $417 -40 $437 40 $411 $451 forward @7 unknown #
attrib_edge_convexity-kcp-attrib $-1 -1 $452 $-1 $412 1 #
vertex $-1 -1 $-1 $445 $453 #
straight-curve $-1 -1 $-1 -40 -40 0 0 0 -1 I I #
attrib_edge_convexity-kcp-attrib $-1 -1 $454 $-1 $415 1 #
straight-curve $-1 -1 $-1 40 0 -20 0 -1 0 I I #
convexity-sys-attrib $-1 -1 $-1 $416 $388 #
point $-1 -1 $-1 40 -40 -20 #
point $-1 -1 $-1 40 40 -20 #
coedge $-1 -1 $-1 $426 $425 $427 $445 forward $360 $-1 #
edge $455 -1 $-1 $437 -40 $431 40 $427 $456 forward @7 unknown #
attrib_edge_convexity-kcp-attrib $-1 -1 $457 $-1 $429 1 #
straight-curve $-1 -1 $-1 0 40 -20 1 0 0 I I #
convexity-sys-attrib $-1 -1 $-1 $430 $408 #
point $-1 -1 $-1 -40 40 -20 #
attrib_edge_convexity-kcp-attrib $-1 -1 $458 $-1 $435 1 #
straight-curve $-1 -1 $-1 0 -40 -20 -1 0 0 I I #
convexity-sys-attrib $-1 -1 $-1 $436 $412 #
point $-1 -1 $-1 -40 -40 -20 #
convexity-sys-attrib $-1 -1 $-1 $439 $415 #
attrib_edge_convexity-kcp-attrib $-1 -1 $459 $-1 $445 1 #
straight-curve $-1 -1 $-1 -40 0 -20 0 1 0 I I #
convexity-sys-attrib $-1 -1 $-1 $446 $429 #
convexity-sys-attrib $-1 -1 $-1 $450 $435 #
convexity-sys-attrib $-1 -1 $-1 $455 $445 #
End-of-ACIS-data 