600 0 1 0           
81 GICL ACIS Healer - Source: /gicl/data5/repository/Heriot_Watt/ex16/ex16.sat - 6 0 18 ACIS 6.0.3 Solaris 24 Sat Apr 13 23:39:00 2002 
1 9.999999999999999547e-07 1.000000000000000036e-10 
body $-1 $1 $-1 $-1 #
lump $-1 $-1 $2 $0 #
shell $-1 $-1 $-1 $3 $-1 $1 #
face $-1 $4 $5 $2 $-1 $6 forward single #
face $-1 $7 $8 $2 $-1 $9 forward single #
loop $-1 $-1 $10 $3 #
plane-surface $-1 30 0 20 -1 0 0 0 0 1 forward_v I I I I #
face $-1 $11 $12 $2 $-1 $13 forward single #
loop $-1 $-1 $14 $4 #
plane-surface $-1 -30 0 20 1 0 0 0 0 -1 forward_v I I I I #
coedge $-1 $15 $16 $17 $18 reversed $5 $-1 #
face $-1 $19 $20 $2 $-1 $13 forward single #
loop $-1 $-1 $21 $7 #
plane-surface $-1 0 -10 20 0 1 0 0 0 1 forward_v I I I I #
coedge $-1 $22 $23 $24 $25 reversed $8 $-1 #
coedge $-1 $26 $10 $27 $28 forward $5 $-1 #
coedge $-1 $10 $26 $29 $30 reversed $5 $-1 #
coedge $-1 $31 $32 $10 $18 forward $33 $34 #
edge $-1 $35 -20.15882209333701169 $36 0 $17 $37 forward 7 unknown #
face $-1 $38 $39 $2 $-1 $40 forward single #
loop $-1 $-1 $41 $11 #
coedge $-1 $42 $43 $44 $45 reversed $12 $-1 #
coedge $-1 $46 $14 $43 $47 forward $8 $-1 #
coedge $-1 $14 $46 $48 $49 reversed $8 $-1 #
coedge $-1 $50 $44 $14 $25 forward $33 $51 #
edge $-1 $52 -20.35054465725377071 $53 0 $24 $54 forward 7 unknown #
coedge $-1 $16 $15 $55 $56 forward $5 $-1 #
coedge $-1 $57 $58 $15 $28 reversed $59 $-1 #
edge $-1 $35 6.860853761781271487 $60 10 $15 $61 forward 7 unknown #
coedge $-1 $62 $41 $16 $30 forward $20 $-1 #
edge $-1 $36 2.044957043473836222 $63 10 $16 $64 forward 7 unknown #
coedge $-1 $65 $17 $41 $66 forward $33 $67 #
coedge $-1 $17 $68 $57 $69 forward $33 $70 #
loop $-1 $-1 $32 $71 #
pcurve $-1 0 forward { exppc nubs 1 open 2 
	-20.15882209333701169 1 0 1 
	67.90207595425147247 48.77657775782361682 
	67.90207595425147247 31.22342224217636897 
	4.565989403494892832e-05 
	spline forward { exactsur full nubs 3 3 open open none none 3 3 
	0 3 40 1 80 3 
	0 3 40 1 80 3 
	-40 -40 20 
	-30.57190958417936599 -40 29.42809041582063401 
	0 -40 20 
	30.57190958417936599 -40 10.57190958417936599 
	40 -40 20 
	-40 -30.57190958417936599 29.42809041582063401 
	-30.57190958417936599 -30.57190958417936599 35.71348402636772335 
	0 -30.57190958417935889 30.99943881845740634 
	30.57190958417936599 -30.57190958417936599 20 
	40 -30.57190958417936599 29.42809041582063401 
	-40 0 10.57190958417936599 
	-30.57190958417935889 0 12.14325798681613833 
	0 0 20 
	30.57190958417935889 0 9.000561181542593658 
	40 0 20 
	-40 30.57190958417936599 29.42809041582063401 
	-30.57190958417936599 30.57190958417936599 20 
	0 30.57190958417935889 27.85674201318386167 
	30.57190958417936599 30.57190958417936599 4.286515973632276655 
	40 30.57190958417936599 10.57190958417936599 
	-40 40 20 
	-30.57190958417936599 40 10.57190958417936599 
	0 40 29.42809041582063401 
	30.57190958417936599 40 10.57190958417936599 
	40 40 20 
	0 
	0 
	0 
	1 40 
	0 
	0 
	1 40 
	F 1 F 0 F 1 F 0 } I I I I 
	} 0 0 #
vertex $-1 $69 $72 #
vertex $-1 $66 $73 #
intcurve-curve $-1 forward { surfintcur full nubs 3 open 3 
	-20.15882209333701169 3 -10.18378623713290487 2 0 3 
	29.99999999999999645 10.00000000000000178 13.13914623821872851 
	29.99999999999999645 6.663193736522130095 13.77367254097854499 
	29.99999999999999645 3.28578579231330492 14.558616604832606 
	29.99999999999999645 -3.354548355745032406 16.2314202556363405 
	29.99999999999999645 -6.7037644288415148 17.14380373584906891 
	29.99999999999999645 -10 17.95504295652616378 
	4.565989403494892832e-05 
	plane 30 0 20 1 0 0 0 0 1 reverse_v I I I I 
	spline forward { ref 1 } I I I I 
	nullbs 
	nubs 3 open 3 
	-20.15882209333701169 3 -10.18378623713290487 3 0 3 
	67.90207595425147247 48.77657775782361682 
	67.90207595425147247 45.86805931073976694 
	67.90207595425147247 42.90153217083162929 
	67.90207595425147247 39.99999999999999289 
	67.90207595425147247 37.05933661978470184 
	67.90207595425147247 34.10903732059134796 
	67.90207595425147247 31.22342224217636897 
	
	I I 
	0 
	0 
	1 -10.18378623713291375 
	} I I #
face $-1 $74 $75 $2 $-1 $76 forward single #
loop $-1 $-1 $77 $19 #
plane-surface $-1 0 10 20 0 -1 0 0 0 -1 forward_v I I I I #
coedge $-1 $29 $78 $31 $66 reversed $20 $-1 #
coedge $-1 $79 $21 $80 $81 reversed $12 $-1 #
coedge $-1 $21 $79 $22 $47 reversed $12 $-1 #
coedge $-1 $24 $82 $21 $45 forward $33 $83 #
edge $-1 $84 -9.419945063982421374 $52 0 $44 $85 forward 7 unknown #
coedge $-1 $23 $22 $86 $87 forward $8 $-1 #
edge $-1 $52 -2.812320814668765934 $88 10 $22 $89 forward 7 unknown #
coedge $-1 $90 $77 $23 $49 forward $39 $-1 #
edge $-1 $53 0.1055903913193603216 $91 10 $48 $92 forward 7 unknown #
coedge $-1 $93 $24 $77 $94 forward $33 $95 #
pcurve $-1 0 forward { exppc nubs 1 open 2 
	-20.35054465725377071 1 0 1 
	12.09792404574852043 31.22342224217636897 
	12.09792404574852043 48.77657775782361682 
	0.0002058156481042504771 
	spline forward { ref 1 } I I I I 
	} 0 0 #
vertex $-1 $45 $96 #
vertex $-1 $25 $97 #
intcurve-curve $-1 forward { surfintcur full nubs 3 open 3 
	-20.35054465725377071 3 -10.08484541648460109 2 0 3 
	-30 -10.00000000000000355 22.81232081466876949 
	-30 -6.7446203918714005 21.83516229341463344 
	-30 -3.372466955819953593 20.94776786967880255 
	-30 3.313053219655611503 19.96336828584129464 
	-30 6.63870813528941639 19.84779049425999276 
	-30 10.00000000000000355 19.89440960868063968 
	0.0002058156481042504771 
	plane -30 0 20 -1 0 0 0 0 -1 reverse_v I I I I 
	spline forward { ref 1 } I I I I 
	nullbs 
	nubs 3 open 3 
	-20.35054465725377071 3 -10.08484541648460109 3 0 3 
	12.09792404574852043 31.22342224217636897 
	12.09792404574852043 34.12664068719228538 
	12.09792404574852043 37.08827662669048664 
	12.09792404574852043 39.99999999999999289 
	12.09792404574852043 42.93453347850805812 
	12.09792404574852043 45.83079265498956545 
	12.09792404574852043 48.77657775782361682 
	
	I I 
	0 
	0 
	1 -10.08484541648459221 
	} I I #
coedge $-1 $98 $99 $26 $56 reversed $100 $-1 #
edge $-1 $60 -10 $63 10 $26 $101 forward 7 unknown #
coedge $-1 $102 $27 $32 $69 reversed $59 $-1 #
coedge $-1 $27 $102 $98 $103 forward $59 $-1 #
loop $-1 $-1 $57 $104 #
vertex $-1 $56 $105 #
straight-curve $-1 30 10 20 0 0 -1 I I #
coedge $-1 $78 $29 $99 $106 forward $20 $-1 #
vertex $-1 $30 $107 #
straight-curve $-1 30 -10 20 0 0 -1 I I #
coedge $-1 $108 $31 $109 $110 forward $33 $111 #
edge $-1 $36 -52.97801637966981758 $112 -43.45648894794602768 $31 $113 forward 7 unknown #
pcurve $-1 0 forward { exppc nubs 1 open 2 
	-52.97801637966981758 1 -43.45648894794602768 1 
	67.90207595425147247 31.22342224217636897 
	57.90335990089963758 31.22342224217638673 
	0.0001377809341960623034 
	spline forward { ref 1 } I I I I 
	} 0 0 #
coedge $-1 $32 $114 $115 $116 forward $33 $117 #
edge $-1 $118 -9.42503796900755475 $35 0 $32 $119 forward 7 unknown #
pcurve $-1 0 forward { exppc nubs 1 open 2 
	-9.42503796900755475 1 0 1 
	57.90335990089950258 48.77657775782378735 
	67.90207595425147247 48.77657775782361682 
	0.0008777721169754051358 
	spline forward { ref 1 } I I I I 
	} 0 0 #
face $-1 $120 $121 $2 $-1 $122 forward single #
point $-1 30 10 13.13914623821872851 #
point $-1 30 -10 17.95504295652616378 #
face $-1 $104 $100 $2 $-1 $76 forward single #
loop $-1 $-1 $123 $38 #
plane-surface $-1 0 0 10 0 0 1 1 0 0 forward_v I I I I #
coedge $-1 $48 $124 $50 $94 reversed $39 $-1 #
coedge $-1 $41 $62 $125 $126 reversed $20 $-1 #
coedge $-1 $43 $42 $127 $128 forward $12 $-1 #
coedge $-1 $129 $130 $42 $81 forward $131 $-1 #
edge $-1 $132 -10 $84 3.449649577274261247 $80 $133 forward 7 unknown #
coedge $-1 $44 $108 $129 $134 forward $33 $135 #
pcurve $-1 0 forward { exppc nubs 1 open 2 
	-9.419945063982421374 1 0 1 
	22.09664009910036242 31.22342224217638318 
	12.0979240457485222 31.22342224217636897 
	0.0001377809341952236188 
	spline forward { ref 1 } I I I I 
	} 0 0 #
vertex $-1 $134 $136 #
intcurve-curve $-1 forward { surfintcur full nubs 3 open 2 
	-9.419945063982421374 3 0 3 
	-20 -9.999999999999989342 23.44964957727426125 
	-23.51661578868286639 -9.999999999999989342 23.38716032053581628 
	-26.87969197417685052 -10.00000000000000355 23.16326643000281749 
	-30 -10.00000000000000355 22.81232081466877304 
	0.0001377809341881181915 
	plane 0 -10 20 0 -1 0 0 0 1 reverse_v I I I I 
	spline forward { ref 1 } I I I I 
	nullbs 
	nubs 3 open 2 
	-9.419945063982421374 3 0 3 
	22.09664009910036242 31.22342224217638318 
	18.13311341786135245 31.22342224217636897 
	15.01727591803711803 31.22342224217636897 
	12.0979240457485222 31.22342224217636897 
	
	I I 
	0 
	0 
	0 
	} I I #
coedge $-1 $127 $137 $46 $87 reversed $75 $-1 #
edge $-1 $88 -10 $91 10 $46 $138 forward 7 unknown #
vertex $-1 $87 $139 #
straight-curve $-1 -30 -10 20 0 0 -1 I I #
coedge $-1 $124 $48 $137 $140 forward $39 $-1 #
vertex $-1 $140 $141 #
straight-curve $-1 -30 10 20 0 0 -1 I I #
coedge $-1 $114 $50 $142 $143 forward $33 $144 #
edge $-1 $53 -57.66634002181257301 $145 -46.74036959455339968 $50 $146 forward 7 unknown #
pcurve $-1 0 forward { exppc nubs 1 open 2 
	-57.66634002181257301 1 -46.74036959455339968 1 
	12.09792404574852043 48.77657775782361682 
	22.09664009910036597 48.7765777578235884 
	0.0008777721167978794984 
	spline forward { ref 1 } I I I I 
	} 0 0 #
point $-1 -30 -10 22.81232081466876593 #
point $-1 -30 10 19.89440960868063968 #
coedge $-1 $147 $55 $58 $103 reversed $100 $-1 #
coedge $-1 $55 $147 $62 $106 reversed $100 $-1 #
loop $-1 $-1 $147 $74 #
straight-curve $-1 30 0 10 0 -1 0 I I #
coedge $-1 $58 $57 $148 $149 reversed $59 $-1 #
edge $-1 $150 20 $60 30 $58 $151 forward 7 unknown #
face $-1 $71 $59 $2 $-1 $40 forward single #
point $-1 30 10 10 #
edge $-1 $63 -30 $152 -20 $62 $153 forward 7 unknown #
point $-1 30 -10 10 #
coedge $-1 $82 $65 $154 $155 forward $33 $156 #
coedge $-1 $125 $157 $65 $110 reversed $158 $-1 #
edge $-1 $112 -9.739691155957228119 $159 0 $65 $160 forward 7 unknown #
pcurve $-1 0 forward { exppc nubs 1 open 2 
	-9.739691155957228119 1 0 1 
	57.90335990090181895 31.22342224220293616 
	57.90335990089963047 22.09664009910035887 
	0.0003330813295313757565 
	spline forward { ref 1 } I I I I 
	} 0 0 #
vertex $-1 $126 $161 #
intcurve-curve $-1 forward { surfintcur full nubs 3 open 2 
	-52.97801637966981758 3 -43.45648894794602768 3 
	29.99999999999999645 -10 17.95504295652616378 
	26.89148791551648543 -10 17.48652531878933303 
	23.52765691330434095 -9.999999999999985789 17.64505598507483697 
	20 -9.999999999999985789 18.12353876700031208 
	0.0001377809341881181915 
	plane 0 -10 20 0 -1 0 0 0 1 reverse_v I I I I 
	spline forward { ref 1 } I I I I 
	nullbs 
	nubs 3 open 2 
	-52.97801637966981758 3 -43.45648894794602768 3 
	67.90207595425147247 31.22342224217636897 
	65.00461584022036732 31.22342224217636897 
	61.88032428036729016 31.22342224217636897 
	57.90335990089963758 31.22342224217638673 
	
	I I 
	0 
	0 
	0 
	} I I #
coedge $-1 $68 $93 $162 $163 forward $33 $164 #
coedge $-1 $165 $148 $68 $116 reversed $158 $-1 #
edge $-1 $166 -37.23453955131636661 $118 -28.20659484072081113 $68 $167 forward 7 unknown #
pcurve $-1 0 forward { exppc nubs 1 open 2 
	-37.23453955131636661 1 -28.20659484072081113 1 
	57.90335990089963758 57.90335990089963758 
	57.90335990087397278 48.77657775777995397 
	0.0003330813387451265041 
	spline forward { ref 1 } I I I I 
	} 0 0 #
vertex $-1 $116 $168 #
intcurve-curve $-1 forward { surfintcur full nubs 3 open 3 
	-9.42503796900755475 3 -8.866195032382464092 2 0 3 
	20 10.0000000000002025 14.27177662865709351 
	20.20749237995137548 10.0000000000002025 14.22627803813912273 
	20.41420801818096464 9.999999999999992895 14.18178561569206586 
	23.88662361811709545 9.999999999999992895 13.44960307390313403 
	27.04746659612791859 10.00000000000000178 13.00904677053700809 
	29.99999999999999645 10.00000000000000178 13.13914623821872851 
	0.0008777721167889977142 
	plane 0 10 20 0 1 0 0 0 -1 reverse_v I I I I 
	spline forward { ref 1 } I I I I 
	nullbs 
	nubs 3 open 3 
	-9.42503796900755475 3 -8.866195032382464092 3 0 3 
	57.90335990089950258 48.77657775782378735 
	58.11872653149842449 48.77657775782361682 
	58.3052480186606914 48.77657775782361682 
	58.49084607211044329 48.77657775782361682 
	61.82150128775892739 48.77657775782361682 
	64.95348994017820132 48.77657775782361682 
	67.90207595425147247 48.77657775782361682 
	
	I I 
	0 
	0 
	0 
	} I I #
face $-1 $169 $170 $2 $-1 $171 forward single #
loop $-1 $33 $172 $71 #
spline-surface $-1 forward { ref 1 } I I I I #
coedge $-1 $137 $127 $130 $173 reversed $75 $-1 #
coedge $-1 $77 $90 $174 $175 reversed $39 $-1 #
coedge $-1 $176 $109 $78 $126 forward $158 $-1 #
edge $-1 $112 1.876461232999687923 $152 10 $125 $177 forward 7 unknown #
coedge $-1 $123 $86 $79 $128 reversed $75 $-1 #
edge $-1 $132 20 $88 30 $79 $153 forward 7 unknown #
coedge $-1 $178 $80 $82 $134 reversed $131 $-1 #
coedge $-1 $80 $174 $123 $173 forward $131 $-1 #
loop $-1 $-1 $80 $179 #
vertex $-1 $173 $180 #
straight-curve $-1 -20 -10 20 0 0 1 I I #
edge $-1 $181 -38.13426602990504932 $84 -28.40499863723547236 $82 $182 forward 7 unknown #
pcurve $-1 0 forward { exppc nubs 1 open 2 
	-38.13426602990504932 1 -28.40499863723547236 1 
	22.09664009910036242 22.09664009910036242 
	22.09664009910039084 31.22342224217693385 
	0.0003407493781686552446 
	spline forward { ref 1 } I I I I 
	} 0 0 #
point $-1 -20 -9.999999999999989342 23.44964957727426125 #
coedge $-1 $86 $123 $90 $140 reversed $75 $-1 #
straight-curve $-1 -30 0 10 0 1 0 I I #
point $-1 -30 -10 10 #
edge $-1 $91 -30 $183 -20 $90 $151 forward 7 unknown #
point $-1 -30 10 10 #
coedge $-1 $174 $184 $93 $143 reversed $131 $-1 #
edge $-1 $145 -9.694784697748495716 $185 0 $93 $186 forward 7 unknown #
pcurve $-1 0 forward { exppc nubs 1 open 2 
	-9.694784697748495716 1 0 1 
	22.09664009910170179 48.77657775779904625 
	22.09664009910036242 57.90335990089963758 
	0.0003407493786518747203 
	spline forward { ref 1 } I I I I 
	} 0 0 #
vertex $-1 $175 $187 #
intcurve-curve $-1 forward { surfintcur full nubs 3 open 2 
	-57.66634002181257301 3 -46.74036959455339968 3 
	-30 10.00000000000000355 19.89440960868063968 
	-26.89070841951224367 10.00000000000000355 19.84562873052475851 
	-23.52716312078850081 9.99999999999996092 19.94876872829128089 
	-20 9.99999999999996092 20.02062152717052967 
	0.0008777721167889977142 
	plane 0 10 20 0 1 0 0 0 -1 reverse_v I I I I 
	spline forward { ref 1 } I I I I 
	nullbs 
	nubs 3 open 2 
	-57.66634002181257301 3 -46.74036959455339968 3 
	12.09792404574852043 48.77657775782361682 
	15.00287635032214872 48.77657775782361682 
	18.1339364286650806 48.77657775782361682 
	22.09664009910036597 48.7765777578235884 
	
	I I 
	0 
	0 
	0 
	} I I #
coedge $-1 $99 $98 $176 $188 reversed $100 $-1 #
coedge $-1 $115 $176 $102 $149 forward $158 $-1 #
edge $-1 $150 -10 $118 -5.728223371342906489 $148 $189 forward 7 unknown #
vertex $-1 $188 $190 #
straight-curve $-1 0 10 10 1 0 0 I I #
vertex $-1 $188 $191 #
straight-curve $-1 0 -10 10 -1 0 0 I I #
coedge $-1 $192 $193 $108 $155 reversed $194 $-1 #
edge $-1 $159 -40.67839793446002261 $181 0 $108 $195 forward 7 unknown #
pcurve $-1 0 forward { exppc nubs 1 open 2 
	-40.67839793446002261 1 0 1 
	57.90335990089963047 22.09664009910035887 
	22.09664009910035887 22.09664009910036242 
	0.000333081328705141439 
	spline forward { ref 1 } I I I I 
	} 0 0 #
coedge $-1 $109 $196 $192 $197 reversed $158 $-1 #
loop $-1 $-1 $148 $169 #
vertex $-1 $155 $198 #
intcurve-curve $-1 forward { surfintcur full nubs 3 open 2 
	-9.739691155957228119 3 0 3 
	20 -9.999999999999985789 18.12353876700031208 
	20 -13.42329699412079513 18.89104968456276623 
	19.99999999999999645 -16.77968487567027722 19.58799699117193072 
	19.99999999999999645 -20.00000000000000355 20 
	0.0003330813287038069488 
	plane 20 0 20 1 0 0 0 0 1 reverse_v I I I I 
	spline forward { ref 1 } I I I I 
	nullbs 
	nubs 3 open 2 
	-9.739691155957228119 3 0 3 
	57.90335990090181895 31.22342224220293616 
	57.90335990089963047 27.94982170577343794 
	57.90335990089963047 24.94376686094216922 
	57.90335990089963047 22.09664009910035887 
	
	I I 
	0 
	0 
	0 
	} I I #
point $-1 20 -9.999999999999985789 18.12353876700031208 #
coedge $-1 $199 $200 $114 $163 reversed $170 $-1 #
edge $-1 $185 -39.27792367259792172 $166 0 $114 $201 forward 7 unknown #
pcurve $-1 0 forward { exppc nubs 1 open 2 
	-39.27792367259792172 1 0 1 
	22.09664009910036242 57.90335990089963758 
	57.90335990089963758 57.90335990089963758 
	0.0003407493781656265801 
	spline forward { ref 1 } I I I I 
	} 0 0 #
coedge $-1 $196 $115 $200 $202 forward $158 $-1 #
vertex $-1 $163 $203 #
intcurve-curve $-1 forward { surfintcur full nubs 3 open 2 
	-37.23453955131636661 3 -28.20659484072081113 3 
	20 20 13.53727348475873704 
	20 16.71296745791788396 13.60095401821572025 
	20 13.34997733430374289 13.86305031550404543 
	20 10.0000000000002025 14.27177662865709351 
	0.0003330813287038069488 
	plane 20 0 20 1 0 0 0 0 1 reverse_v I I I I 
	spline forward { ref 1 } I I I I 
	nullbs 
	nubs 3 open 2 
	-37.23453955131636661 3 -28.20659484072081113 3 
	57.90335990089963758 57.90335990089963758 
	57.90335990089963047 54.98075489302260621 
	57.90335990089963047 51.98931835115239153 
	57.90335990087397278 48.77657775777995397 
	
	I I 
	0 
	0 
	0 
	} I I #
point $-1 20 10.0000000000002025 14.27177662865709351 #
face $-1 $204 $158 $2 $-1 $205 forward single #
loop $-1 $-1 $162 $120 #
plane-surface $-1 0 20 20 0 -1 0 0 0 -1 forward_v I I I I #
coedge $-1 $206 $207 $208 $209 forward $121 $210 #
edge $-1 $183 -10 $132 10 $130 $211 forward 7 unknown #
coedge $-1 $130 $142 $124 $175 forward $131 $-1 #
edge $-1 $145 -0.02062152717052967432 $183 10 $174 $212 forward 7 unknown #
coedge $-1 $148 $125 $147 $188 forward $158 $-1 #
straight-curve $-1 20 -10 20 0 0 -1 I I #
coedge $-1 $213 $129 $193 $214 forward $131 $-1 #
face $-1 $215 $131 $2 $-1 $216 forward single #
point $-1 -20 -10 10 #
vertex $-1 $155 $217 #
intcurve-curve $-1 forward { surfintcur full nubs 3 open 2 
	-38.13426602990504932 3 -28.40499863723547236 3 
	-19.99999999999999289 -20 26.46272651524126474 
	-19.99999999999999289 -16.77987924435112532 25.5746034882124178 
	-20 -13.4234013760645805 24.47372977881042644 
	-20 -9.999999999999989342 23.44964957727426125 
	0.0003407493781508916762 
	plane -20 0 20 -1 0 0 0 0 -1 reverse_v I I I I 
	spline forward { ref 1 } I I I I 
	nullbs 
	nubs 3 open 2 
	-38.13426602990504932 3 -28.40499863723547236 3 
	22.09664009910036242 22.09664009910036242 
	22.09664009910036242 24.9798963091337427 
	22.09664009910036242 28.01821436020360778 
	22.09664009910039084 31.22342224217693385 
	
	I I 
	0 
	0 
	0 
	} I I #
vertex $-1 $173 $218 #
coedge $-1 $142 $213 $199 $219 reversed $131 $-1 #
vertex $-1 $143 $220 #
intcurve-curve $-1 forward { surfintcur full nubs 3 open 2 
	-9.694784697748495716 3 0 3 
	-20 9.99999999999996092 20.02062152717052967 
	-20 13.41477240199247056 19.91357877110827701 
	-20 16.76852703364894737 19.97192758297372706 
	-20 20.00000000000000355 20 
	0.0003407493781508916762 
	plane -20 0 20 -1 0 0 0 0 -1 reverse_v I I I I 
	spline forward { ref 1 } I I I I 
	nullbs 
	nubs 3 open 2 
	-9.694784697748495716 3 0 3 
	22.09664009910170179 48.77657775779904625 
	22.09664009910036242 52.03373984818757947 
	22.09664009910036242 55.01390668038334297 
	22.09664009910036242 57.90335990089963758 
	
	I I 
	0 
	0 
	0 
	} I I #
point $-1 -20 9.99999999999996092 20.02062152717052967 #
edge $-1 $152 -10 $150 10 $176 $221 forward 7 unknown #
straight-curve $-1 20 10 20 0 0 1 I I #
point $-1 20 10 10 #
point $-1 20 -10 10 #
coedge $-1 $222 $154 $157 $197 forward $194 $-1 #
coedge $-1 $154 $222 $178 $214 reversed $194 $-1 #
loop $-1 $-1 $154 $223 #
intcurve-curve $-1 forward { surfintcur full nubs 3 open 3 
	-40.67839793446002261 3 -19.80554246811560759 2 0 3 
	19.99999999999999645 -20.00000000000000355 20 
	13.68290804057621912 -20.00000000000000355 20.80820068652999311 
	6.842184153724384821 -20 22.71278065189694573 
	-6.49231577585342734 -20 25.40834589666171084 
	-13.39939107516384098 -20 26.33485120762163234 
	-20.00000000000000711 -20 26.46272651524126474 
	0.0003330813287015887253 
	plane 0 -20 20 0 -1 0 0 0 1 reverse_v I I I I 
	spline forward { ref 1 } I I I I 
	nullbs 
	nubs 3 open 3 
	-40.67839793446002261 3 -19.80554246811560759 3 0 3 
	57.90335990089963047 22.09664009910035887 
	52.31832834954341394 22.09664009910035887 
	46.1217378858119389 22.09664009910036242 
	39.99999999999999289 22.09664009910036242 
	34.11181604508158216 22.09664009910036242 
	27.96545108645506161 22.09664009910036242 
	22.09664009910035887 22.09664009910036242 
	
	I I 
	0 
	0 
	1 -19.8055424681156147 
	} I I #
coedge $-1 $157 $165 $224 $225 forward $158 $-1 #
edge $-1 $159 0 $226 20 $157 $227 forward 7 unknown #
point $-1 20 -20 20 #
coedge $-1 $228 $162 $184 $219 forward $170 $-1 #
coedge $-1 $162 $228 $165 $202 reversed $170 $-1 #
intcurve-curve $-1 forward { surfintcur full nubs 3 open 3 
	-39.27792367259792172 3 -19.65754658763829354 2 0 3 
	-20 20.00000000000000355 20 
	-13.65054311788247432 20.00000000000000355 20.05515893319894261 
	-6.829029661480824132 20 20.22583996830906372 
	6.841966805104311433 20 17.84028094145369892 
	13.68332980061905957 20 15.27943804438769781 
	20 20 13.53727348475873704 
	0.000340749378154968439 
	plane 0 20 20 0 1 0 0 0 -1 reverse_v I I I I 
	spline forward { ref 1 } I I I I 
	nullbs 
	nubs 3 open 3 
	-39.27792367259792172 3 -19.65754658763829354 3 0 3 
	22.09664009910036242 57.90335990089963758 
	27.77406919338748637 57.90335990089963758 
	33.80172120458642127 57.90335990089963758 
	40 57.90335990089963758 
	45.99494962550221544 57.90335990089963758 
	52.24749170181157609 57.90335990089963758 
	57.90335990089963758 57.90335990089963758 
	
	I I 
	0 
	0 
	1 -19.65754658763829354 
	} I I #
edge $-1 $166 6.462726515241264735 $229 20 $165 $230 forward 7 unknown #
point $-1 20 20 13.53727348475873526 #
face $-1 $223 $231 $2 $-1 $232 forward single #
plane-surface $-1 20 0 20 -1 0 0 0 0 1 forward_v I I I I #
coedge $-1 $233 $172 $234 $235 forward $121 $236 #
coedge $-1 $172 $233 $237 $238 forward $121 $239 #
coedge $-1 $240 $241 $172 $209 reversed $242 $-1 #
edge $-1 $243 0 $244 80 $208 $245 forward 7 unknown #
pcurve $-1 0 forward { exppc nubs 1 open 2 
	0 1 80 1 
	80 0 
	80 80 
	0 
	spline forward { ref 1 } I I I I 
	} 0 0 #
straight-curve $-1 -20 0 10 0 -1 0 I I #
straight-curve $-1 -20 10 20 0 0 -1 I I #
coedge $-1 $184 $178 $246 $247 forward $131 $-1 #
edge $-1 $181 -6.462726515241264735 $248 20 $178 $249 forward 7 unknown #
face $-1 $250 $251 $2 $-1 $252 reversed single #
plane-surface $-1 -20 0 20 1 0 0 0 0 -1 forward_v I I I I #
point $-1 -20 -20 26.46272651524126474 #
point $-1 -20 10 10 #
edge $-1 $185 0 $253 20 $199 $254 forward 7 unknown #
point $-1 -20 20 20 #
straight-curve $-1 20 0 10 0 1 0 I I #
coedge $-1 $193 $192 $255 $256 forward $194 $-1 #
face $-1 $179 $194 $2 $-1 $257 forward single #
coedge $-1 $258 $255 $196 $225 reversed $231 $-1 #
edge $-1 $229 -20 $226 20 $196 $259 forward 7 unknown #
vertex $-1 $197 $260 #
straight-curve $-1 20 -20 20 0 0 -1 I I #
coedge $-1 $200 $199 $258 $261 forward $170 $-1 #
vertex $-1 $225 $262 #
straight-curve $-1 20 20 20 0 0 -1 I I #
loop $-1 $-1 $224 $204 #
plane-surface $-1 0 0 0 0 0 1 1 0 0 forward_v I I I I #
coedge $-1 $207 $206 $263 $264 forward $121 $265 #
coedge $-1 $266 $267 $206 $235 reversed $268 $-1 #
edge $-1 $244 -80 $269 -0 $234 $270 reversed 7 unknown #
pcurve $-1 0 reversed { exppc nubs 1 open 2 
	0 1 80 1 
	0 80 
	80 80 
	0 
	spline forward { ref 1 } I I I I 
	} 0 0 #
coedge $-1 $271 $272 $207 $238 reversed $273 $-1 #
edge $-1 $274 0 $243 80 $237 $275 forward 7 unknown #
pcurve $-1 0 forward { exppc nubs 1 open 2 
	0 1 80 1 
	0 0 
	80 0 
	0 
	spline forward { ref 1 } I I I I 
	} 0 0 #
coedge $-1 $276 $208 $272 $277 forward $242 $-1 #
coedge $-1 $208 $276 $266 $278 reversed $242 $-1 #
loop $-1 $-1 $240 $279 #
vertex $-1 $209 $280 #
vertex $-1 $209 $281 #
intcurve-curve $-1 forward { exactcur full nubs 3 open 3 
	0 3 40 1 80 3 
	40 -40 20 
	40 -30.57190958417936599 29.42809041582063401 
	40 0 20 
	40 30.57190958417936599 10.57190958417936599 
	40 40 20 
	0 
	spline forward { ref 1 } I I I I 
	plane 40 0 0 1 0 0 0 0 1 reverse_v I I I I 
	nubs 1 open 2 
	0 1 80 1 
	80 0 
	80 80 
	
	nullbs 
	I I 
	0 
	0 
	0 
	F 1 F 0 } I I #
coedge $-1 $255 $258 $213 $247 reversed $231 $-1 #
edge $-1 $248 -20 $253 20 $213 $282 forward 7 unknown #
vertex $-1 $247 $283 #
straight-curve $-1 -20 -20 20 0 0 -1 I I #
face $-1 $284 $273 $2 $-1 $285 reversed single #
loop $-1 $-1 $286 $215 #
plane-surface $-1 0 0 -20 0 0 1 1 0 0 forward_v I I I I #
vertex $-1 $261 $287 #
straight-curve $-1 -20 20 20 0 0 -1 I I #
coedge $-1 $224 $246 $222 $256 reversed $231 $-1 #
edge $-1 $226 -20 $248 20 $222 $288 forward 7 unknown #
plane-surface $-1 0 -20 20 0 1 0 0 0 1 forward_v I I I I #
coedge $-1 $246 $224 $228 $261 reversed $231 $-1 #
straight-curve $-1 20 0 0 0 -1 0 I I #
point $-1 20 -20 0 #
edge $-1 $253 -20 $229 20 $228 $289 forward 7 unknown #
point $-1 20 20 0 #
coedge $-1 $290 $291 $233 $264 reversed $292 $-1 #
edge $-1 $269 -80 $274 -0 $263 $293 reversed 7 unknown #
pcurve $-1 0 reversed { exppc nubs 1 open 2 
	0 1 80 1 
	0 0 
	0 80 
	0 
	spline forward { ref 1 } I I I I 
	} 0 0 #
coedge $-1 $294 $234 $241 $278 forward $268 $-1 #
coedge $-1 $234 $294 $290 $295 reversed $268 $-1 #
loop $-1 $-1 $266 $296 #
vertex $-1 $235 $297 #
intcurve-curve $-1 forward { exactcur full nubs 3 open 3 
	0 3 40 1 80 3 
	-40 40 20 
	-30.57190958417936599 40 10.57190958417936599 
	0 40 29.42809041582063401 
	30.57190958417936599 40 10.57190958417936599 
	40 40 20 
	0 
	plane 0 40 0 0 1 0 0 0 -1 reverse_v I I I I 
	spline forward { ref 1 } I I I I 
	nullbs 
	nubs 1 open 2 
	0 1 80 1 
	0 80 
	80 80 
	
	I I 
	0 
	0 
	1 40 
	F 1 F 0 } I I #
coedge $-1 $298 $237 $291 $299 forward $273 $-1 #
coedge $-1 $237 $298 $240 $277 reversed $273 $-1 #
loop $-1 $-1 $271 $250 #
vertex $-1 $264 $300 #
intcurve-curve $-1 forward { exactcur full nubs 3 open 3 
	0 3 40 1 80 3 
	-40 -40 20 
	-30.57190958417936599 -40 29.42809041582063401 
	0 -40 20 
	30.57190958417936599 -40 10.57190958417936599 
	40 -40 20 
	0 
	spline forward { ref 1 } I I I I 
	plane 0 -40 0 0 -1 0 0 0 1 reverse_v I I I I 
	nubs 1 open 2 
	0 1 80 1 
	0 0 
	80 0 
	
	nullbs 
	I I 
	0 
	0 
	0 
	F 1 F 0 } I I #
coedge $-1 $241 $240 $286 $301 reversed $242 $-1 #
edge $-1 $243 -20 $302 20 $240 $303 forward 7 unknown #
edge $-1 $244 -20 $304 20 $241 $305 forward 7 unknown #
face $-1 $-1 $242 $2 $-1 $306 reversed single #
point $-1 40 -40 20 #
point $-1 40 40 20 #
straight-curve $-1 -20 0 0 0 1 0 I I #
point $-1 -20 -20 0 #
face $-1 $296 $292 $2 $-1 $307 reversed single #
plane-surface $-1 0 -40 0 0 1 0 0 0 1 forward_v I I I I #
coedge $-1 $308 $309 $276 $301 forward $251 $-1 #
point $-1 -20 20 0 #
straight-curve $-1 0 -20 0 -1 0 0 I I #
straight-curve $-1 0 20 0 1 0 0 I I #
coedge $-1 $310 $263 $267 $295 forward $292 $-1 #
coedge $-1 $263 $310 $271 $299 reversed $292 $-1 #
loop $-1 $-1 $290 $284 #
intcurve-curve $-1 forward { exactcur full nubs 3 open 3 
	0 3 40 1 80 3 
	-40 -40 20 
	-40 -30.57190958417936599 29.42809041582063401 
	-40 0 10.57190958417936599 
	-40 30.57190958417936599 29.42809041582063401 
	-40 40 20 
	0 
	plane -40 0 0 -1 0 0 0 0 -1 reverse_v I I I I 
	spline forward { ref 1 } I I I I 
	nullbs 
	nubs 1 open 2 
	0 1 80 1 
	0 0 
	0 80 
	
	I I 
	0 
	0 
	1 40 
	F 1 F 0 } I I #
coedge $-1 $267 $266 $309 $311 reversed $268 $-1 #
edge $-1 $269 -20 $312 20 $267 $313 forward 7 unknown #
face $-1 $279 $268 $2 $-1 $314 reversed single #
point $-1 -40 40 20 #
coedge $-1 $272 $271 $308 $315 reversed $273 $-1 #
edge $-1 $274 -20 $316 20 $291 $317 forward 7 unknown #
point $-1 -40 -40 20 #
edge $-1 $304 -40 $302 40 $276 $318 forward 7 unknown #
vertex $-1 $277 $319 #
straight-curve $-1 40 -40 0 0 0 -1 I I #
vertex $-1 $301 $320 #
straight-curve $-1 40 40 0 0 0 -1 I I #
plane-surface $-1 40 0 0 -1 0 0 0 0 1 forward_v I I I I #
plane-surface $-1 -40 0 0 1 0 0 0 0 -1 forward_v I I I I #
coedge $-1 $321 $286 $298 $315 forward $251 $-1 #
coedge $-1 $286 $321 $294 $311 forward $251 $-1 #
coedge $-1 $291 $290 $321 $322 reversed $292 $-1 #
edge $-1 $312 -40 $304 40 $294 $323 forward 7 unknown #
vertex $-1 $311 $324 #
straight-curve $-1 -40 40 0 0 0 -1 I I #
plane-surface $-1 0 40 0 0 -1 0 0 0 -1 forward_v I I I I #
edge $-1 $302 -40 $316 40 $298 $325 forward 7 unknown #
vertex $-1 $322 $326 #
straight-curve $-1 -40 -40 0 0 0 -1 I I #
straight-curve $-1 40 0 -20 0 -1 0 I I #
point $-1 40 -40 -20 #
point $-1 40 40 -20 #
coedge $-1 $309 $308 $310 $322 forward $251 $-1 #
edge $-1 $316 -40 $312 40 $310 $327 forward 7 unknown #
straight-curve $-1 0 40 -20 1 0 0 I I #
point $-1 -40 40 -20 #
straight-curve $-1 0 -40 -20 -1 0 0 I I #
point $-1 -40 -40 -20 #
straight-curve $-1 -40 0 -20 0 1 0 I I #
End-of-ACIS-data 