106 0 1 0           
body $-1 $1 $-1 $-1 #
lump $-1 $-1 $2 $0 #
shell $-1 $-1 $-1 $3 $1 #
face $-1 $4 $5 $2 $-1 $6 forward single #
face $-1 $7 $8 $2 $-1 $9 forward single #
loop $-1 $-1 $10 $3 #
plane-surface $-1 30 0 20 -1 0 0 0 0 1 0 I I I I #
face $-1 $11 $12 $2 $-1 $13 forward single #
loop $-1 $-1 $14 $4 #
plane-surface $-1 -30 0 20 1 0 0 0 0 -1 0 I I I I #
coedge $-1 $15 $16 $17 $18 1 $5 $-1 #
face $-1 $19 $20 $2 $-1 $13 forward single #
loop $-1 $-1 $21 $7 #
plane-surface $-1 0 -10 20 0 1 0 0 0 1 0 I I I I #
coedge $-1 $22 $23 $24 $25 1 $8 $-1 #
coedge $-1 $26 $10 $27 $28 0 $5 $-1 #
coedge $-1 $10 $26 $29 $30 1 $5 $-1 #
coedge $-1 $31 $32 $10 $18 0 $33 $34 #
edge $-1 $35 $36 $17 $37 0 #
face $-1 $38 $39 $2 $-1 $40 forward single #
loop $-1 $-1 $41 $11 #
coedge $-1 $42 $43 $44 $45 1 $12 $-1 #
coedge $-1 $46 $14 $43 $47 0 $8 $-1 #
coedge $-1 $14 $46 $48 $49 1 $8 $-1 #
coedge $-1 $50 $44 $14 $25 0 $33 $51 #
edge $-1 $52 $53 $24 $54 0 #
coedge $-1 $16 $15 $55 $56 0 $5 $-1 #
coedge $-1 $57 $58 $15 $28 1 $59 $-1 #
edge $-1 $35 $60 $15 $61 0 #
coedge $-1 $62 $41 $16 $30 0 $20 $-1 #
edge $-1 $36 $63 $16 $64 0 #
coedge $-1 $65 $17 $41 $66 0 $33 $67 #
coedge $-1 $17 $68 $57 $69 0 $33 $70 #
loop $-1 $-1 $32 $71 #
pcurve $-1 2 $37 0 0 #
vertex $-1 $69 $72 #
vertex $-1 $66 $73 #
intcurve-curve $-1 0 { surfintcur nubs 3 open 3 
	-20.158822093337012 3 -10.183786237132905 2 0 3 
	29.999999999999996 10.000000000000002 13.139146238218729 
	29.999999999999996 6.6631937365221301 13.773672540978545 
	29.999999999999996 3.2857857923133049 14.558616604832606 
	29.999999999999996 -3.3545483557450324 16.23142025563634 
	29.999999999999996 -6.7037644288415148 17.143803735849069 
	29.999999999999996 -10 17.955042956526164 
	4.5659894034948928e-05 
	plane 30 0 20 1 0 0 0 0 1 1 I I I I 
	spline 0 { exactsur nubs 3 3 open open none none 3 3 
	0 3 40 1 80 3 
	0 3 40 1 80 3 
	-40 -40 20 
	-30.571909584179366 -40 29.428090415820634 
	0 -40 20 
	30.571909584179366 -40 10.571909584179366 
	40 -40 20 
	-40 -30.571909584179366 29.428090415820634 
	-30.571909584179366 -30.571909584179366 35.713484026367723 
	0 -30.571909584179359 30.999438818457406 
	30.571909584179366 -30.571909584179366 20 
	40 -30.571909584179366 29.428090415820634 
	-40 0 10.571909584179366 
	-30.571909584179359 0 12.143257986816138 
	0 0 20 
	30.571909584179359 0 9.0005611815425937 
	40 0 20 
	-40 30.571909584179366 29.428090415820634 
	-30.571909584179366 30.571909584179366 20 
	0 30.571909584179359 27.856742013183862 
	30.571909584179366 30.571909584179366 4.2865159736322767 
	40 30.571909584179366 10.571909584179366 
	-40 40 20 
	-30.571909584179366 40 10.571909584179366 
	0 40 29.428090415820634 
	30.571909584179366 40 10.571909584179366 
	40 40 20 
	0 
	} I I I I 
	nullbs 
	nubs 3 open 3 
	-20.158822093337012 3 -10.183786237132905 3 0 3 
	67.902075954251472 48.776577757823617 
	67.902075954251472 45.868059310739767 
	67.902075954251472 42.901532170831629 
	67.902075954251472 39.999999999999993 
	67.902075954251472 37.059336619784702 
	67.902075954251472 34.109037320591348 
	67.902075954251472 31.223422242176369 
	
	} I I #
face $-1 $74 $75 $2 $-1 $76 forward single #
loop $-1 $-1 $77 $19 #
plane-surface $-1 0 10 20 0 -1 0 0 0 -1 0 I I I I #
coedge $-1 $29 $78 $31 $66 1 $20 $-1 #
coedge $-1 $79 $21 $80 $81 1 $12 $-1 #
coedge $-1 $21 $79 $22 $47 1 $12 $-1 #
coedge $-1 $24 $82 $21 $45 0 $33 $83 #
edge $-1 $84 $52 $44 $85 0 #
coedge $-1 $23 $22 $86 $87 0 $8 $-1 #
edge $-1 $52 $88 $22 $89 0 #
coedge $-1 $90 $77 $23 $49 0 $39 $-1 #
edge $-1 $53 $91 $48 $92 0 #
coedge $-1 $93 $24 $77 $94 0 $33 $95 #
pcurve $-1 2 $54 0 0 #
vertex $-1 $45 $96 #
vertex $-1 $25 $97 #
intcurve-curve $-1 0 { surfintcur nubs 3 open 3 
	-20.350544657253771 3 -10.084845416484601 2 0 3 
	-30 -10.000000000000004 22.812320814668769 
	-30 -6.7446203918714005 21.835162293414633 
	-30 -3.3724669558199536 20.947767869678803 
	-30 3.3130532196556115 19.963368285841295 
	-30 6.6387081352894164 19.847790494259993 
	-30 10.000000000000004 19.89440960868064 
	0.00020581564810425048 
	plane -30 0 20 -1 0 0 0 0 -1 1 I I I I 
	spline 0 { ref 1 } I I I I 
	nullbs 
	nubs 3 open 3 
	-20.350544657253771 3 -10.084845416484601 3 0 3 
	12.09792404574852 31.223422242176369 
	12.09792404574852 34.126640687192285 
	12.09792404574852 37.088276626690487 
	12.09792404574852 39.999999999999993 
	12.09792404574852 42.934533478508058 
	12.09792404574852 45.830792654989565 
	12.09792404574852 48.776577757823617 
	
	} I I #
coedge $-1 $98 $99 $26 $56 1 $100 $-1 #
edge $-1 $60 $63 $26 $101 0 #
coedge $-1 $102 $27 $32 $69 1 $59 $-1 #
coedge $-1 $27 $102 $98 $103 0 $59 $-1 #
loop $-1 $-1 $57 $104 #
vertex $-1 $56 $105 #
straight-curve $-1 30 10 20 0 0 -1 I I #
coedge $-1 $78 $29 $99 $106 0 $20 $-1 #
vertex $-1 $30 $107 #
straight-curve $-1 30 -10 20 0 0 -1 I I #
coedge $-1 $108 $31 $109 $110 0 $33 $111 #
edge $-1 $36 $112 $31 $113 0 #
pcurve $-1 2 $113 0 0 #
coedge $-1 $32 $114 $115 $116 0 $33 $117 #
edge $-1 $118 $35 $32 $119 0 #
pcurve $-1 2 $119 0 0 #
face $-1 $120 $121 $2 $-1 $122 forward single #
point $-1 30 10 13.139146238218729 #
point $-1 30 -10 17.955042956526164 #
face $-1 $104 $100 $2 $-1 $76 forward single #
loop $-1 $-1 $123 $38 #
plane-surface $-1 0 0 10 0 0 1 1 0 0 0 I I I I #
coedge $-1 $48 $124 $50 $94 1 $39 $-1 #
coedge $-1 $41 $62 $125 $126 1 $20 $-1 #
coedge $-1 $43 $42 $127 $128 0 $12 $-1 #
coedge $-1 $129 $130 $42 $81 0 $131 $-1 #
edge $-1 $132 $84 $80 $133 0 #
coedge $-1 $44 $108 $129 $134 0 $33 $135 #
pcurve $-1 2 $85 0 0 #
vertex $-1 $134 $136 #
intcurve-curve $-1 0 { surfintcur nubs 3 open 2 
	-9.4199450639824214 3 0 3 
	-20 -9.9999999999999893 23.449649577274261 
	-23.516615788682866 -9.9999999999999893 23.387160320535816 
	-26.879691974176851 -10.000000000000004 23.163266430002817 
	-30 -10.000000000000004 22.812320814668773 
	0.00013778093418811819 
	plane 0 -10 20 0 -1 0 0 0 1 1 I I I I 
	spline 0 { ref 1 } I I I I 
	nullbs 
	nubs 3 open 2 
	-9.4199450639824214 3 0 3 
	22.096640099100362 31.223422242176383 
	18.133113417861352 31.223422242176369 
	15.017275918037118 31.223422242176369 
	12.097924045748522 31.223422242176369 
	
	} I I #
coedge $-1 $127 $137 $46 $87 1 $75 $-1 #
edge $-1 $88 $91 $46 $138 0 #
vertex $-1 $87 $139 #
straight-curve $-1 -30 -10 20 0 0 -1 I I #
coedge $-1 $124 $48 $137 $140 0 $39 $-1 #
vertex $-1 $140 $141 #
straight-curve $-1 -30 10 20 0 0 -1 I I #
coedge $-1 $114 $50 $142 $143 0 $33 $144 #
edge $-1 $53 $145 $50 $146 0 #
pcurve $-1 2 $146 0 0 #
point $-1 -30 -10 22.812320814668766 #
point $-1 -30 10 19.89440960868064 #
coedge $-1 $147 $55 $58 $103 1 $100 $-1 #
coedge $-1 $55 $147 $62 $106 1 $100 $-1 #
loop $-1 $-1 $147 $74 #
straight-curve $-1 30 0 10 0 -1 0 I I #
coedge $-1 $58 $57 $148 $149 1 $59 $-1 #
edge $-1 $150 $60 $58 $151 0 #
face $-1 $71 $59 $2 $-1 $40 forward single #
point $-1 30 10 10 #
edge $-1 $63 $152 $62 $153 0 #
point $-1 30 -10 10 #
coedge $-1 $82 $65 $154 $155 0 $33 $156 #
coedge $-1 $125 $157 $65 $110 1 $158 $-1 #
edge $-1 $112 $159 $65 $160 0 #
pcurve $-1 2 $160 0 0 #
vertex $-1 $126 $161 #
intcurve-curve $-1 0 { surfintcur nubs 3 open 2 
	-52.978016379669818 3 -43.456488947946028 3 
	29.999999999999996 -10 17.955042956526164 
	26.891487915516485 -10 17.486525318789333 
	23.527656913304341 -9.9999999999999858 17.645055985074837 
	20 -9.9999999999999858 18.123538767000312 
	0.00013778093418811819 
	plane 0 -10 20 0 -1 0 0 0 1 1 I I I I 
	spline 0 { ref 1 } I I I I 
	nullbs 
	nubs 3 open 2 
	-52.978016379669818 3 -43.456488947946028 3 
	67.902075954251472 31.223422242176369 
	65.004615840220367 31.223422242176369 
	61.88032428036729 31.223422242176369 
	57.903359900899638 31.223422242176387 
	
	} I I #
coedge $-1 $68 $93 $162 $163 0 $33 $164 #
coedge $-1 $165 $148 $68 $116 1 $158 $-1 #
edge $-1 $166 $118 $68 $167 0 #
pcurve $-1 2 $167 0 0 #
vertex $-1 $116 $168 #
intcurve-curve $-1 0 { surfintcur nubs 3 open 3 
	-9.4250379690075548 3 -8.8661950323824641 2 0 3 
	20 10.000000000000203 14.271776628657094 
	20.207492379951375 10.000000000000203 14.226278038139123 
	20.414208018180965 9.9999999999999929 14.181785615692066 
	23.886623618117095 9.9999999999999929 13.449603073903134 
	27.047466596127919 10.000000000000002 13.009046770537008 
	29.999999999999996 10.000000000000002 13.139146238218729 
	0.00087777211678899771 
	plane 0 10 20 0 1 0 0 0 -1 1 I I I I 
	spline 0 { ref 1 } I I I I 
	nullbs 
	nubs 3 open 3 
	-9.4250379690075548 3 -8.8661950323824641 3 0 3 
	57.903359900899503 48.776577757823787 
	58.118726531498424 48.776577757823617 
	58.305248018660691 48.776577757823617 
	58.490846072110443 48.776577757823617 
	61.821501287758927 48.776577757823617 
	64.953489940178201 48.776577757823617 
	67.902075954251472 48.776577757823617 
	
	} I I #
face $-1 $169 $170 $2 $-1 $171 forward single #
loop $-1 $33 $172 $71 #
spline-surface $-1 0 { ref 1 } I I I I #
coedge $-1 $137 $127 $130 $173 1 $75 $-1 #
coedge $-1 $77 $90 $174 $175 1 $39 $-1 #
coedge $-1 $176 $109 $78 $126 0 $158 $-1 #
edge $-1 $112 $152 $125 $177 0 #
coedge $-1 $123 $86 $79 $128 1 $75 $-1 #
edge $-1 $132 $88 $79 $153 0 #
coedge $-1 $178 $80 $82 $134 1 $131 $-1 #
coedge $-1 $80 $174 $123 $173 0 $131 $-1 #
loop $-1 $-1 $80 $179 #
vertex $-1 $173 $180 #
straight-curve $-1 -20 -10 20 0 0 1 I I #
edge $-1 $181 $84 $82 $182 0 #
pcurve $-1 2 $182 0 0 #
point $-1 -20 -9.9999999999999893 23.449649577274261 #
coedge $-1 $86 $123 $90 $140 1 $75 $-1 #
straight-curve $-1 -30 0 10 0 1 0 I I #
point $-1 -30 -10 10 #
edge $-1 $91 $183 $90 $151 0 #
point $-1 -30 10 10 #
coedge $-1 $174 $184 $93 $143 1 $131 $-1 #
edge $-1 $145 $185 $93 $186 0 #
pcurve $-1 2 $186 0 0 #
vertex $-1 $175 $187 #
intcurve-curve $-1 0 { surfintcur nubs 3 open 2 
	-57.666340021812573 3 -46.7403695945534 3 
	-30 10.000000000000004 19.89440960868064 
	-26.890708419512244 10.000000000000004 19.845628730524759 
	-23.527163120788501 9.9999999999999609 19.948768728291281 
	-20 9.9999999999999609 20.02062152717053 
	0.00087777211678899771 
	plane 0 10 20 0 1 0 0 0 -1 1 I I I I 
	spline 0 { ref 1 } I I I I 
	nullbs 
	nubs 3 open 2 
	-57.666340021812573 3 -46.7403695945534 3 
	12.09792404574852 48.776577757823617 
	15.002876350322149 48.776577757823617 
	18.133936428665081 48.776577757823617 
	22.096640099100366 48.776577757823588 
	
	} I I #
coedge $-1 $99 $98 $176 $188 1 $100 $-1 #
coedge $-1 $115 $176 $102 $149 0 $158 $-1 #
edge $-1 $150 $118 $148 $189 0 #
vertex $-1 $188 $190 #
straight-curve $-1 0 10 10 1 0 0 I I #
vertex $-1 $188 $191 #
straight-curve $-1 0 -10 10 -1 0 0 I I #
coedge $-1 $192 $193 $108 $155 1 $194 $-1 #
edge $-1 $159 $181 $108 $195 0 #
pcurve $-1 2 $195 0 0 #
coedge $-1 $109 $196 $192 $197 1 $158 $-1 #
loop $-1 $-1 $148 $169 #
vertex $-1 $155 $198 #
intcurve-curve $-1 0 { surfintcur nubs 3 open 2 
	-9.7396911559572281 3 0 3 
	20 -9.9999999999999858 18.123538767000312 
	20 -13.423296994120795 18.891049684562766 
	19.999999999999996 -16.779684875670277 19.587996991171931 
	19.999999999999996 -20.000000000000004 20 
	0.00033308132870380695 
	plane 20 0 20 1 0 0 0 0 1 1 I I I I 
	spline 0 { ref 1 } I I I I 
	nullbs 
	nubs 3 open 2 
	-9.7396911559572281 3 0 3 
	57.903359900901819 31.223422242202936 
	57.90335990089963 27.949821705773438 
	57.90335990089963 24.943766860942169 
	57.90335990089963 22.096640099100359 
	
	} I I #
point $-1 20 -9.9999999999999858 18.123538767000312 #
coedge $-1 $199 $200 $114 $163 1 $170 $-1 #
edge $-1 $185 $166 $114 $201 0 #
pcurve $-1 2 $201 0 0 #
coedge $-1 $196 $115 $200 $202 0 $158 $-1 #
vertex $-1 $163 $203 #
intcurve-curve $-1 0 { surfintcur nubs 3 open 2 
	-37.234539551316367 3 -28.206594840720811 3 
	20 20 13.537273484758737 
	20 16.712967457917884 13.60095401821572 
	20 13.349977334303743 13.863050315504045 
	20 10.000000000000203 14.271776628657094 
	0.00033308132870380695 
	plane 20 0 20 1 0 0 0 0 1 1 I I I I 
	spline 0 { ref 1 } I I I I 
	nullbs 
	nubs 3 open 2 
	-37.234539551316367 3 -28.206594840720811 3 
	57.903359900899638 57.903359900899638 
	57.90335990089963 54.980754893022606 
	57.90335990089963 51.989318351152392 
	57.903359900873973 48.776577757779954 
	
	} I I #
point $-1 20 10.000000000000203 14.271776628657094 #
face $-1 $204 $158 $2 $-1 $205 forward single #
loop $-1 $-1 $162 $120 #
plane-surface $-1 0 20 20 0 -1 0 0 0 -1 0 I I I I #
coedge $-1 $206 $207 $208 $209 0 $121 $210 #
edge $-1 $183 $132 $130 $211 0 #
coedge $-1 $130 $142 $124 $175 0 $131 $-1 #
edge $-1 $145 $183 $174 $212 0 #
coedge $-1 $148 $125 $147 $188 0 $158 $-1 #
straight-curve $-1 20 -10 20 0 0 -1 I I #
coedge $-1 $213 $129 $193 $214 0 $131 $-1 #
face $-1 $215 $131 $2 $-1 $216 forward single #
point $-1 -20 -10 10 #
vertex $-1 $155 $217 #
intcurve-curve $-1 0 { surfintcur nubs 3 open 2 
	-38.134266029905049 3 -28.404998637235472 3 
	-19.999999999999993 -20 26.462726515241265 
	-19.999999999999993 -16.779879244351125 25.574603488212418 
	-20 -13.423401376064581 24.473729778810426 
	-20 -9.9999999999999893 23.449649577274261 
	0.00034074937815089168 
	plane -20 0 20 -1 0 0 0 0 -1 1 I I I I 
	spline 0 { ref 1 } I I I I 
	nullbs 
	nubs 3 open 2 
	-38.134266029905049 3 -28.404998637235472 3 
	22.096640099100362 22.096640099100362 
	22.096640099100362 24.979896309133743 
	22.096640099100362 28.018214360203608 
	22.096640099100391 31.223422242176934 
	
	} I I #
vertex $-1 $173 $218 #
coedge $-1 $142 $213 $199 $219 1 $131 $-1 #
vertex $-1 $143 $220 #
intcurve-curve $-1 0 { surfintcur nubs 3 open 2 
	-9.6947846977484957 3 0 3 
	-20 9.9999999999999609 20.02062152717053 
	-20 13.414772401992471 19.913578771108277 
	-20 16.768527033648947 19.971927582973727 
	-20 20.000000000000004 20 
	0.00034074937815089168 
	plane -20 0 20 -1 0 0 0 0 -1 1 I I I I 
	spline 0 { ref 1 } I I I I 
	nullbs 
	nubs 3 open 2 
	-9.6947846977484957 3 0 3 
	22.096640099101702 48.776577757799046 
	22.096640099100362 52.033739848187579 
	22.096640099100362 55.013906680383343 
	22.096640099100362 57.903359900899638 
	
	} I I #
point $-1 -20 9.9999999999999609 20.02062152717053 #
edge $-1 $152 $150 $176 $221 0 #
straight-curve $-1 20 10 20 0 0 1 I I #
point $-1 20 10 10 #
point $-1 20 -10 10 #
coedge $-1 $222 $154 $157 $197 0 $194 $-1 #
coedge $-1 $154 $222 $178 $214 1 $194 $-1 #
loop $-1 $-1 $154 $223 #
intcurve-curve $-1 0 { surfintcur nubs 3 open 3 
	-40.678397934460023 3 -19.805542468115608 2 0 3 
	19.999999999999996 -20.000000000000004 20 
	13.682908040576219 -20.000000000000004 20.808200686529993 
	6.8421841537243848 -20 22.712780651896946 
	-6.4923157758534273 -20 25.408345896661711 
	-13.399391075163841 -20 26.334851207621632 
	-20.000000000000007 -20 26.462726515241265 
	0.00033308132870158873 
	plane 0 -20 20 0 -1 0 0 0 1 1 I I I I 
	spline 0 { ref 1 } I I I I 
	nullbs 
	nubs 3 open 3 
	-40.678397934460023 3 -19.805542468115608 3 0 3 
	57.90335990089963 22.096640099100359 
	52.318328349543414 22.096640099100359 
	46.121737885811939 22.096640099100362 
	39.999999999999993 22.096640099100362 
	34.111816045081582 22.096640099100362 
	27.965451086455062 22.096640099100362 
	22.096640099100359 22.096640099100362 
	
	} I I #
coedge $-1 $157 $165 $224 $225 0 $158 $-1 #
edge $-1 $159 $226 $157 $227 0 #
point $-1 20 -20 20 #
coedge $-1 $228 $162 $184 $219 0 $170 $-1 #
coedge $-1 $162 $228 $165 $202 1 $170 $-1 #
intcurve-curve $-1 0 { surfintcur nubs 3 open 3 
	-39.277923672597922 3 -19.657546587638294 2 0 3 
	-20 20.000000000000004 20 
	-13.650543117882474 20.000000000000004 20.055158933198943 
	-6.8290296614808241 20 20.225839968309064 
	6.8419668051043114 20 17.840280941453699 
	13.68332980061906 20 15.279438044387698 
	20 20 13.537273484758737 
	0.00034074937815496844 
	plane 0 20 20 0 1 0 0 0 -1 1 I I I I 
	spline 0 { ref 1 } I I I I 
	nullbs 
	nubs 3 open 3 
	-39.277923672597922 3 -19.657546587638294 3 0 3 
	22.096640099100362 57.903359900899638 
	27.774069193387486 57.903359900899638 
	33.801721204586421 57.903359900899638 
	40 57.903359900899638 
	45.994949625502215 57.903359900899638 
	52.247491701811576 57.903359900899638 
	57.903359900899638 57.903359900899638 
	
	} I I #
edge $-1 $166 $229 $165 $230 0 #
point $-1 20 20 13.537273484758735 #
face $-1 $223 $231 $2 $-1 $232 forward single #
plane-surface $-1 20 0 20 -1 0 0 0 0 1 0 I I I I #
coedge $-1 $233 $172 $234 $235 0 $121 $236 #
coedge $-1 $172 $233 $237 $238 0 $121 $239 #
coedge $-1 $240 $241 $172 $209 1 $242 $-1 #
edge $-1 $243 $244 $208 $245 0 #
pcurve $-1 1 $245 0 0 #
straight-curve $-1 -20 0 10 0 -1 0 I I #
straight-curve $-1 -20 10 20 0 0 -1 I I #
coedge $-1 $184 $178 $246 $247 0 $131 $-1 #
edge $-1 $181 $248 $178 $249 0 #
face $-1 $250 $251 $2 $-1 $252 reversed single #
plane-surface $-1 -20 0 20 1 0 0 0 0 -1 0 I I I I #
point $-1 -20 -20 26.462726515241265 #
point $-1 -20 10 10 #
edge $-1 $185 $253 $199 $254 0 #
point $-1 -20 20 20 #
straight-curve $-1 20 0 10 0 1 0 I I #
coedge $-1 $193 $192 $255 $256 0 $194 $-1 #
face $-1 $179 $194 $2 $-1 $257 forward single #
coedge $-1 $258 $255 $196 $225 1 $231 $-1 #
edge $-1 $229 $226 $196 $259 0 #
vertex $-1 $197 $260 #
straight-curve $-1 20 -20 20 0 0 -1 I I #
coedge $-1 $200 $199 $258 $261 0 $170 $-1 #
vertex $-1 $225 $262 #
straight-curve $-1 20 20 20 0 0 -1 I I #
loop $-1 $-1 $224 $204 #
plane-surface $-1 0 0 0 0 0 1 1 0 0 0 I I I I #
coedge $-1 $207 $206 $263 $264 0 $121 $265 #
coedge $-1 $266 $267 $206 $235 1 $268 $-1 #
edge $-1 $244 $269 $234 $270 1 #
pcurve $-1 -2 $270 0 0 #
coedge $-1 $271 $272 $207 $238 1 $273 $-1 #
edge $-1 $274 $243 $237 $275 0 #
pcurve $-1 1 $275 0 0 #
coedge $-1 $276 $208 $272 $277 0 $242 $-1 #
coedge $-1 $208 $276 $266 $278 1 $242 $-1 #
loop $-1 $-1 $240 $279 #
vertex $-1 $209 $280 #
vertex $-1 $209 $281 #
intcurve-curve $-1 0 { exactcur nubs 3 open 3 
	0 3 40 1 80 3 
	40 -40 20 
	40 -30.571909584179366 29.428090415820634 
	40 0 20 
	40 30.571909584179366 10.571909584179366 
	40 40 20 
	0 
	spline 0 { ref 1 } I I I I 
	plane 40 0 0 1 0 0 0 0 1 1 I I I I 
	nubs 1 open 2 
	0 1 80 1 
	80 0 
	80 80 
	
	nullbs 
	} I I #
coedge $-1 $255 $258 $213 $247 1 $231 $-1 #
edge $-1 $248 $253 $213 $282 0 #
vertex $-1 $247 $283 #
straight-curve $-1 -20 -20 20 0 0 -1 I I #
face $-1 $284 $273 $2 $-1 $285 reversed single #
loop $-1 $-1 $286 $215 #
plane-surface $-1 0 0 -20 0 0 1 1 0 0 0 I I I I #
vertex $-1 $261 $287 #
straight-curve $-1 -20 20 20 0 0 -1 I I #
coedge $-1 $224 $246 $222 $256 1 $231 $-1 #
edge $-1 $226 $248 $222 $288 0 #
plane-surface $-1 0 -20 20 0 1 0 0 0 1 0 I I I I #
coedge $-1 $246 $224 $228 $261 1 $231 $-1 #
straight-curve $-1 20 0 0 0 -1 0 I I #
point $-1 20 -20 0 #
edge $-1 $253 $229 $228 $289 0 #
point $-1 20 20 0 #
coedge $-1 $290 $291 $233 $264 1 $292 $-1 #
edge $-1 $269 $274 $263 $293 1 #
pcurve $-1 -2 $293 0 0 #
coedge $-1 $294 $234 $241 $278 0 $268 $-1 #
coedge $-1 $234 $294 $290 $295 1 $268 $-1 #
loop $-1 $-1 $266 $296 #
vertex $-1 $235 $297 #
intcurve-curve $-1 0 { exactcur nubs 3 open 3 
	0 3 40 1 80 3 
	-40 40 20 
	-30.571909584179366 40 10.571909584179366 
	0 40 29.428090415820634 
	30.571909584179366 40 10.571909584179366 
	40 40 20 
	0 
	plane 0 40 0 0 1 0 0 0 -1 1 I I I I 
	spline 0 { ref 1 } I I I I 
	nullbs 
	nubs 1 open 2 
	0 1 80 1 
	0 80 
	80 80 
	
	} I I #
coedge $-1 $298 $237 $291 $299 0 $273 $-1 #
coedge $-1 $237 $298 $240 $277 1 $273 $-1 #
loop $-1 $-1 $271 $250 #
vertex $-1 $264 $300 #
intcurve-curve $-1 0 { exactcur nubs 3 open 3 
	0 3 40 1 80 3 
	-40 -40 20 
	-30.571909584179366 -40 29.428090415820634 
	0 -40 20 
	30.571909584179366 -40 10.571909584179366 
	40 -40 20 
	0 
	spline 0 { ref 1 } I I I I 
	plane 0 -40 0 0 -1 0 0 0 1 1 I I I I 
	nubs 1 open 2 
	0 1 80 1 
	0 0 
	80 0 
	
	nullbs 
	} I I #
coedge $-1 $241 $240 $286 $301 1 $242 $-1 #
edge $-1 $243 $302 $240 $303 0 #
edge $-1 $244 $304 $241 $305 0 #
face $-1 $-1 $242 $2 $-1 $306 reversed single #
point $-1 40 -40 20 #
point $-1 40 40 20 #
straight-curve $-1 -20 0 0 0 1 0 I I #
point $-1 -20 -20 0 #
face $-1 $296 $292 $2 $-1 $307 reversed single #
plane-surface $-1 0 -40 0 0 1 0 0 0 1 0 I I I I #
coedge $-1 $308 $309 $276 $301 0 $251 $-1 #
point $-1 -20 20 0 #
straight-curve $-1 0 -20 0 -1 0 0 I I #
straight-curve $-1 0 20 0 1 0 0 I I #
coedge $-1 $310 $263 $267 $295 0 $292 $-1 #
coedge $-1 $263 $310 $271 $299 1 $292 $-1 #
loop $-1 $-1 $290 $284 #
intcurve-curve $-1 0 { exactcur nubs 3 open 3 
	0 3 40 1 80 3 
	-40 -40 20 
	-40 -30.571909584179366 29.428090415820634 
	-40 0 10.571909584179366 
	-40 30.571909584179366 29.428090415820634 
	-40 40 20 
	0 
	plane -40 0 0 -1 0 0 0 0 -1 1 I I I I 
	spline 0 { ref 1 } I I I I 
	nullbs 
	nubs 1 open 2 
	0 1 80 1 
	0 0 
	0 80 
	
	} I I #
coedge $-1 $267 $266 $309 $311 1 $268 $-1 #
edge $-1 $269 $312 $267 $313 0 #
face $-1 $279 $268 $2 $-1 $314 reversed single #
point $-1 -40 40 20 #
coedge $-1 $272 $271 $308 $315 1 $273 $-1 #
edge $-1 $274 $316 $291 $317 0 #
point $-1 -40 -40 20 #
edge $-1 $304 $302 $276 $318 0 #
vertex $-1 $277 $319 #
straight-curve $-1 40 -40 0 0 0 -1 I I #
vertex $-1 $301 $320 #
straight-curve $-1 40 40 0 0 0 -1 I I #
plane-surface $-1 40 0 0 -1 0 0 0 0 1 0 I I I I #
plane-surface $-1 -40 0 0 1 0 0 0 0 -1 0 I I I I #
coedge $-1 $321 $286 $298 $315 0 $251 $-1 #
coedge $-1 $286 $321 $294 $311 0 $251 $-1 #
coedge $-1 $291 $290 $321 $322 1 $292 $-1 #
edge $-1 $312 $304 $294 $323 0 #
vertex $-1 $311 $324 #
straight-curve $-1 -40 40 0 0 0 -1 I I #
plane-surface $-1 0 40 0 0 -1 0 0 0 -1 0 I I I I #
edge $-1 $302 $316 $298 $325 0 #
vertex $-1 $322 $326 #
straight-curve $-1 -40 -40 0 0 0 -1 I I #
straight-curve $-1 40 0 -20 0 -1 0 I I #
point $-1 40 -40 -20 #
point $-1 40 40 -20 #
coedge $-1 $309 $308 $310 $322 0 $251 $-1 #
edge $-1 $316 $312 $310 $327 0 #
straight-curve $-1 0 40 -20 1 0 0 I I #
point $-1 -40 40 -20 #
straight-curve $-1 0 -40 -20 -1 0 0 I I #
point $-1 -40 -40 -20 #
straight-curve $-1 -40 0 -20 0 1 0 I I #
End-of-ACIS-data 