600 0 1 0           
82 GICL ACIS Healer - Source: /gicl/data5/repository/ICEM-CDC/camax2/camax2.sat - 6 0 18 ACIS 6.0.3 Solaris 24 Sat Apr 13 23:07:42 2002 
1 9.999999999999999547e-07 1.000000000000000036e-10 
body $-1 $1 $-1 $2 #
lump $-1 $-1 $3 $0 #
transform $-1 1 0 0 0 1 0 0 0 1 0 0 0 1 no_rotate no_reflect no_shear #
shell $-1 $-1 $-1 $4 $-1 $1 #
face $5 $6 $7 $3 $-1 $8 reversed single #
face_name-twe-attrib $-1 $-1 $-1 $4 1 #
face $9 $10 $11 $3 $-1 $12 forward single #
loop $13 $-1 $14 $4 #
plane-surface $15 0 0 0 0 0 1 1 0 0 forward_v I I I I #
face_name-twe-attrib $-1 $-1 $-1 $6 2 #
face $16 $17 $18 $3 $-1 $19 forward single #
loop $20 $21 $22 $6 #
plane-surface $23 0 0 2.899999999999999911 0 0 1 1 0 0 forward_v I I I I #
loop_type-twe-attrib $-1 $-1 $-1 $7 0 #
coedge $-1 $24 $25 $26 $27 forward $7 $-1 #
surf-twe-attrib $-1 $-1 $-1 $8 4 #
face_name-twe-attrib $-1 $-1 $-1 $10 3 #
face $28 $29 $30 $3 $-1 $31 forward single #
loop $32 $-1 $26 $10 #
plane-surface $33 0 0 0 -1 0 0 0 0 1 forward_v I I I I #
loop_type-twe-attrib $-1 $-1 $-1 $11 0 #
loop $34 $-1 $35 $6 #
coedge $-1 $36 $37 $38 $39 reversed $11 $-1 #
surf-twe-attrib $-1 $-1 $-1 $12 6 #
coedge $-1 $40 $14 $41 $42 forward $7 $-1 #
coedge $-1 $14 $40 $43 $44 forward $7 $-1 #
coedge $-1 $45 $46 $14 $27 reversed $18 $-1 #
edge $47 $48 -2.899999999999999911 $49 0 $26 $50 forward 7 unknown #
face_name-twe-attrib $-1 $-1 $-1 $17 4 #
face $51 $52 $53 $3 $-1 $54 forward single #
loop $55 $-1 $43 $17 #
plane-surface $56 0 -2.899999999999999911 0 0 -1 0 0 0 -1 forward_v I I I I #
loop_type-twe-attrib $-1 $-1 $-1 $18 0 #
surf-twe-attrib $-1 $-1 $-1 $19 10 #
loop_type-twe-attrib $-1 $-1 $-1 $21 1 #
coedge $-1 $35 $35 $57 $58 reversed $21 $-1 #
coedge $-1 $59 $22 $60 $61 reversed $11 $-1 #
coedge $-1 $22 $59 $62 $63 reversed $11 $-1 #
coedge $-1 $46 $45 $22 $39 forward $18 $-1 #
edge $64 $65 -2.899999999999999911 $66 0 $38 $67 forward 7 unknown #
coedge $-1 $25 $24 $68 $69 forward $7 $-1 #
coedge $-1 $70 $71 $24 $42 reversed $72 $-1 #
edge $73 $49 -2.899999999999999911 $74 0 $41 $75 forward 7 unknown #
coedge $-1 $76 $77 $25 $44 reversed $30 $-1 #
edge $78 $79 -2.899999999999999911 $48 0 $43 $80 forward 7 unknown #
coedge $-1 $38 $26 $77 $81 reversed $18 $-1 #
coedge $-1 $26 $38 $70 $82 forward $18 $-1 #
edge_name-twe-attrib $-1 $-1 $-1 $27 1 8704 #
vertex $-1 $81 $83 #
vertex $-1 $82 $84 #
straight-curve $85 0 0 0 0 1 0 I I #
face_name-twe-attrib $-1 $-1 $-1 $29 5 #
face $86 $87 $72 $3 $-1 $88 forward single #
loop $89 $90 $68 $29 #
plane-surface $91 2.899999999999999911 -2.899999999999999911 0 1 0 0 0 0 -1 forward_v I I I I #
loop_type-twe-attrib $-1 $-1 $-1 $30 0 #
surf-twe-attrib $-1 $-1 $-1 $31 17 #
coedge $-1 $57 $57 $35 $58 forward $92 $-1 #
edge $93 $94 0 $94 6.283185307179586232 $57 $95 forward 7 unknown #
coedge $-1 $37 $36 $96 $97 reversed $11 $-1 #
coedge $-1 $77 $76 $36 $61 forward $30 $-1 #
edge $98 $99 -2.899999999999999911 $65 0 $60 $100 forward 7 unknown #
coedge $-1 $71 $70 $37 $63 forward $72 $-1 #
edge $101 $66 -2.899999999999999911 $102 0 $62 $103 forward 7 unknown #
edge_name-twe-attrib $-1 $-1 $-1 $39 2 8704 #
vertex $-1 $81 $104 #
vertex $-1 $82 $105 #
straight-curve $106 0 0 2.899999999999999911 0 1 0 I I #
coedge $-1 $107 $108 $40 $69 reversed $53 $-1 #
edge $109 $74 -2.899999999999999911 $79 0 $68 $110 forward 7 unknown #
coedge $-1 $62 $41 $46 $82 reversed $72 $-1 #
coedge $-1 $41 $62 $107 $111 forward $72 $-1 #
loop $112 $113 $41 $52 #
edge_name-twe-attrib $-1 $-1 $-1 $42 9 8704 #
vertex $-1 $111 $114 #
straight-curve $115 2.899999999999999911 0 0 1 0 0 I I #
coedge $-1 $60 $43 $108 $116 reversed $30 $-1 #
coedge $-1 $43 $60 $45 $81 forward $30 $-1 #
edge_name-twe-attrib $-1 $-1 $-1 $44 3 8704 #
vertex $-1 $116 $117 #
straight-curve $118 0 -2.899999999999999911 0 -1 0 0 I I #
edge $119 $65 -2.899999999999999911 $48 0 $77 $120 forward 7 unknown #
edge $121 $66 -2.899999999999999911 $49 0 $70 $122 forward 7 unknown #
point $-1 0 -2.899999999999999911 0 #
point $-1 0 0 0 #
cur-twe-attrib $-1 $-1 $-1 $50 27 #
face_name-twe-attrib $-1 $-1 $-1 $52 6 #
face $123 $124 $125 $3 $-1 $126 forward single #
plane-surface $127 2.899999999999999911 0 0 0 1 0 0 0 1 forward_v I I I I #
loop_type-twe-attrib $-1 $-1 $-1 $53 0 #
loop $128 $-1 $129 $29 #
surf-twe-attrib $-1 $-1 $-1 $54 29 #
loop $130 $-1 $57 $131 #
edge_name-twe-attrib $-1 $-1 $-1 $58 42 8704 #
vertex $-1 $58 $132 #
ellipse-curve $133 1.5 -1.399999999999999911 2.899999999999999911 -1.000000000000000078e-15 0 1 0.375 0 3.749999999999999798e-16 1 I I #
coedge $-1 $108 $107 $59 $97 forward $53 $-1 #
edge $134 $102 -2.899999999999999911 $99 0 $96 $135 forward 7 unknown #
edge_name-twe-attrib $-1 $-1 $-1 $61 4 8704 #
vertex $-1 $116 $136 #
straight-curve $137 0 -2.899999999999999911 2.899999999999999911 -1 0 0 I I #
edge_name-twe-attrib $-1 $-1 $-1 $63 11 8704 #
vertex $-1 $111 $138 #
straight-curve $139 2.899999999999999911 0 2.899999999999999911 1 0 0 I I #
point $-1 0 -2.899999999999999911 2.899999999999999911 #
point $-1 0 0 2.899999999999999911 #
cur-twe-attrib $-1 $-1 $-1 $67 39 #
coedge $-1 $96 $68 $71 $111 reversed $53 $-1 #
coedge $-1 $68 $96 $76 $116 forward $53 $-1 #
edge_name-twe-attrib $-1 $-1 $-1 $69 6 8704 #
straight-curve $140 2.899999999999999911 -2.899999999999999911 0 0 -1 0 I I #
edge $141 $102 -2.899999999999999911 $74 0 $71 $142 forward 7 unknown #
loop_type-twe-attrib $-1 $-1 $-1 $72 0 #
loop $143 $-1 $144 $52 #
point $-1 2.899999999999999911 0 0 #
cur-twe-attrib $-1 $-1 $-1 $75 42 #
edge $145 $99 -2.899999999999999911 $79 0 $108 $146 forward 7 unknown #
point $-1 2.899999999999999911 -2.899999999999999911 0 #
cur-twe-attrib $-1 $-1 $-1 $80 44 #
edge_name-twe-attrib $-1 $-1 $-1 $81 5 8704 #
straight-curve $147 0 -2.899999999999999911 0 0 0 -1 I I #
edge_name-twe-attrib $-1 $-1 $-1 $82 10 8704 #
straight-curve $148 0 0 0 0 0 -1 I I #
face_name-twe-attrib $-1 $-1 $-1 $87 7 #
face $149 $150 $151 $3 $-1 $152 reversed single #
loop $153 $-1 $154 $87 #
plane-surface $155 2.899999999999999911 -2 0 0 1 0 0 0 1 forward_v I I I I #
surf-twe-attrib $-1 $-1 $-1 $88 52 #
loop_type-twe-attrib $-1 $-1 $-1 $90 1 #
coedge $-1 $129 $129 $156 $157 reversed $90 $-1 #
loop_type-twe-attrib $-1 $-1 $-1 $92 1 #
face $158 $-1 $159 $3 $-1 $160 reversed single #
point $-1 1.875 -1.399999999999999911 2.899999999999999911 #
cur-twe-attrib $-1 $-1 $-1 $95 58 #
edge_name-twe-attrib $-1 $-1 $-1 $97 7 8704 #
straight-curve $161 2.899999999999999911 -2.899999999999999911 2.899999999999999911 0 -1 0 I I #
point $-1 2.899999999999999911 -2.899999999999999911 2.899999999999999911 #
cur-twe-attrib $-1 $-1 $-1 $100 61 #
point $-1 2.899999999999999911 0 2.899999999999999911 #
cur-twe-attrib $-1 $-1 $-1 $103 63 #
cur-twe-attrib $-1 $-1 $-1 $110 69 #
edge_name-twe-attrib $-1 $-1 $-1 $111 12 8704 #
straight-curve $162 2.899999999999999911 0 0 0 0 -1 I I #
loop_type-twe-attrib $-1 $-1 $-1 $113 1 #
coedge $-1 $163 $164 $165 $166 forward $113 $-1 #
edge_name-twe-attrib $-1 $-1 $-1 $116 8 8704 #
straight-curve $167 2.899999999999999911 -2.899999999999999911 0 0 0 -1 I I #
cur-twe-attrib $-1 $-1 $-1 $120 81 #
cur-twe-attrib $-1 $-1 $-1 $122 82 #
face_name-twe-attrib $-1 $-1 $-1 $124 8 #
face $168 $169 $170 $3 $-1 $171 reversed single #
loop $172 $-1 $165 $124 #
cone-surface $173 0.9060000000000000275 0 0.7810000000000000275 0 1 0 0.4060000000000000275 0 0 1 I I 0 1 0.4060000000000000275 forward I I I I #
loop_type-twe-attrib $-1 $-1 $-1 $125 0 #
coedge $-1 $174 $175 $176 $177 reversed $125 $-1 #
surf-twe-attrib $-1 $-1 $-1 $126 87 #
coedge $-1 $156 $156 $129 $157 forward $178 $-1 #
edge $179 $180 0 $180 6.283185307179586232 $156 $181 forward 7 unknown #
face_name-twe-attrib $-1 $-1 $-1 $131 19 #
loop $182 $92 $183 $131 #
cone-surface $184 1.5 -1.399999999999999911 2.918750000000000178 0 0 -1 0.375 0 0 1 I I 0 1 0.375 forward I I I I #
cur-twe-attrib $-1 $-1 $-1 $135 97 #
cur-twe-attrib $-1 $-1 $-1 $142 111 #
coedge $-1 $185 $144 $186 $187 forward $113 $-1 #
coedge $-1 $144 $188 $189 $190 forward $113 $-1 #
coedge $-1 $191 $192 $144 $166 reversed $151 $-1 #
edge $193 $194 -1.570796326794896558 $195 0 $165 $196 forward 7 unknown #
cur-twe-attrib $-1 $-1 $-1 $146 116 #
face_name-twe-attrib $-1 $-1 $-1 $150 9 #
face $197 $198 $199 $3 $-1 $200 reversed single #
loop $201 $-1 $189 $150 #
plane-surface $202 0.5 0 0.7810000000000000275 -1 0 0 0 0 1 forward_v I I I I #
loop_type-twe-attrib $-1 $-1 $-1 $151 0 #
surf-twe-attrib $-1 $-1 $-1 $152 124 #
coedge $-1 $203 $154 $204 $205 reversed $125 $-1 #
coedge $-1 $154 $206 $207 $208 reversed $125 $-1 #
coedge $-1 $192 $191 $154 $177 forward $151 $-1 #
edge $209 $210 -1.570796326794896558 $211 0 $176 $212 forward 7 unknown #
loop $213 $-1 $156 $214 #
edge_name-twe-attrib $-1 $-1 $-1 $157 39 8704 #
vertex $-1 $157 $215 #
ellipse-curve $216 2.899999999999999911 -1.399999999999999911 1.399999999999999911 1 0 0 0 -0.25 0 1 I I #
loop_type-twe-attrib $-1 $-1 $-1 $159 0 #
coedge $-1 $183 $183 $217 $218 reversed $159 $-1 #
surf-twe-attrib $-1 $-1 $-1 $160 131 #
coedge $-1 $219 $163 $220 $221 forward $113 $-1 #
coedge $-1 $222 $223 $163 $187 reversed $224 $-1 #
edge $225 $195 -1.187999999999999723 $226 0 $186 $227 forward 7 unknown #
coedge $-1 $164 $228 $229 $230 forward $113 $-1 #
coedge $-1 $231 $232 $164 $190 reversed $170 $-1 #
edge $233 $234 -0.938000000000000056 $194 0 $189 $235 forward 7 unknown #
coedge $-1 $176 $165 $232 $236 reversed $151 $-1 #
coedge $-1 $165 $176 $222 $237 forward $151 $-1 #
edge_name-twe-attrib $-1 $-1 $-1 $166 13 8704 #
vertex $-1 $236 $238 #
vertex $-1 $237 $239 #
ellipse-curve $240 0.9060000000000000275 0 0.7810000000000000275 0 -1 0 0 0 -0.4060000000000000275 1 I I #
face_name-twe-attrib $-1 $-1 $-1 $169 10 #
face $241 $242 $243 $3 $-1 $244 reversed single #
loop $245 $-1 $229 $169 #
cone-surface $246 0.9060000000000000275 0 1.719000000000000083 0 1 0 0.4060000000000000275 0 0 1 I I 0 1 0.4060000000000000275 forward I I I I #
loop_type-twe-attrib $-1 $-1 $-1 $170 0 #
surf-twe-attrib $-1 $-1 $-1 $171 150 #
coedge $-1 $247 $174 $248 $249 reversed $125 $-1 #
coedge $-1 $232 $231 $174 $205 forward $170 $-1 #
edge $250 $251 -0.938000000000000056 $210 0 $204 $252 forward 7 unknown #
coedge $-1 $175 $253 $254 $255 reversed $125 $-1 #
coedge $-1 $223 $222 $175 $208 forward $224 $-1 #
edge $256 $211 -1.187999999999999723 $257 0 $207 $258 forward 7 unknown #
edge_name-twe-attrib $-1 $-1 $-1 $177 14 4608 #
vertex $-1 $236 $259 #
vertex $-1 $237 $260 #
ellipse-curve $261 0.9060000000000000275 -2 0.7810000000000000275 0 -1 0 0 0 -0.4060000000000000275 1 I I #
loop_type-twe-attrib $-1 $-1 $-1 $178 1 #
face $262 $263 $264 $3 $-1 $265 reversed single #
point $-1 2.899999999999999911 -1.649999999999999911 1.399999999999999911 #
cur-twe-attrib $-1 $-1 $-1 $181 157 #
coedge $-1 $217 $217 $183 $218 forward $266 $-1 #
edge $267 $268 -3.141592653589793116 $268 3.141592653589793116 $217 $269 forward 7 unknown #
coedge $-1 $270 $185 $271 $272 forward $113 $-1 #
coedge $-1 $273 $274 $185 $221 reversed $275 $-1 #
edge $276 $226 -1.570796326794896558 $277 0 $220 $278 forward 7 unknown #
coedge $-1 $207 $186 $192 $237 reversed $224 $-1 #
coedge $-1 $186 $207 $273 $279 forward $224 $-1 #
loop $280 $-1 $186 $281 #
edge_name-twe-attrib $-1 $-1 $-1 $187 33 8704 #
vertex $-1 $279 $282 #
straight-curve $283 2.093999999999999861 0 0.375 1 0 0 I I #
coedge $-1 $188 $270 $284 $285 forward $113 $-1 #
coedge $-1 $286 $287 $188 $230 reversed $199 $-1 #
edge $288 $289 -1.570796326794896558 $234 0 $229 $290 forward 7 unknown #
coedge $-1 $204 $189 $287 $291 reversed $170 $-1 #
coedge $-1 $189 $204 $191 $236 forward $170 $-1 #
edge_name-twe-attrib $-1 $-1 $-1 $190 15 8704 #
vertex $-1 $291 $292 #
straight-curve $293 0.5 0 0.7810000000000000275 0 0 -1 I I #
edge $294 $210 -2 $194 0 $232 $295 forward 7 unknown #
edge $296 $211 -2 $195 0 $222 $297 forward 7 unknown #
point $-1 0.5 0 0.7810000000000000275 #
point $-1 0.9060000000000000275 0 0.375 #
cur-twe-attrib $-1 $-1 $-1 $196 166 #
face_name-twe-attrib $-1 $-1 $-1 $198 11 #
face $298 $299 $300 $3 $-1 $301 reversed single #
loop $302 $303 $284 $198 #
plane-surface $304 0.9060000000000000275 0 2.125 0 0 1 1 0 0 forward_v I I I I #
loop_type-twe-attrib $-1 $-1 $-1 $199 0 #
surf-twe-attrib $-1 $-1 $-1 $200 169 #
coedge $-1 $305 $203 $306 $307 reversed $125 $-1 #
coedge $-1 $287 $286 $203 $249 forward $199 $-1 #
edge $308 $309 -1.570796326794896558 $251 0 $248 $310 forward 7 unknown #
edge_name-twe-attrib $-1 $-1 $-1 $205 16 4608 #
vertex $-1 $291 $311 #
straight-curve $312 0.5 -2 0.7810000000000000275 0 0 -1 I I #
coedge $-1 $206 $305 $313 $314 reversed $125 $-1 #
coedge $-1 $274 $273 $206 $255 forward $275 $-1 #
edge $315 $257 -1.570796326794896558 $316 0 $254 $317 forward 7 unknown #
edge_name-twe-attrib $-1 $-1 $-1 $208 35 4608 #
vertex $-1 $279 $318 #
straight-curve $319 2.093999999999999861 -2 0.375 1 0 0 I I #
point $-1 0.5 -2 0.7810000000000000275 #
point $-1 0.9060000000000000275 -2 0.375 #
cur-twe-attrib $-1 $-1 $-1 $212 177 #
face_name-twe-attrib $-1 $-1 $-1 $214 17 #
face $320 $131 $266 $3 $-1 $321 reversed single #
loop $322 $178 $323 $214 #
cone-surface $324 2.899999999999999911 -1.399999999999999911 1.399999999999999911 -1 0 0 0 -0.25 0 1 I I 0 1 0.25 forward I I I I #
loop $325 $326 $217 $263 #
edge_name-twe-attrib $-1 $-1 $-1 $218 40 4608 #
vertex $-1 $218 $327 #
ellipse-curve $328 1.5 -1.399999999999999911 2.524999999999999911 0 0 1 0.375 0 0 1 I I #
coedge $-1 $228 $219 $329 $330 forward $113 $-1 #
coedge $-1 $331 $332 $219 $272 reversed $333 $-1 #
edge $334 $277 -0.938000000000000056 $335 0 $271 $336 forward 7 unknown #
coedge $-1 $254 $220 $223 $279 reversed $275 $-1 #
coedge $-1 $220 $254 $331 $337 forward $275 $-1 #
loop $338 $-1 $220 $339 #
edge_name-twe-attrib $-1 $-1 $-1 $221 30 8704 #
vertex $-1 $337 $340 #
ellipse-curve $341 2.093999999999999861 0 0.7810000000000000275 0 -1 0 0.4060000000000000275 0 0 1 I I #
edge $342 $257 -2 $226 0 $223 $343 forward 7 unknown #
loop_type-twe-attrib $-1 $-1 $-1 $224 0 #
face $344 $345 $224 $3 $-1 $346 reversed single #
point $-1 2.093999999999999861 0 0.375 #
cur-twe-attrib $-1 $-1 $-1 $227 187 #
coedge $-1 $347 $348 $228 $285 reversed $243 $-1 #
edge $349 $350 -1.187999999999999723 $289 0 $284 $351 forward 7 unknown #
coedge $-1 $248 $229 $348 $352 reversed $199 $-1 #
coedge $-1 $229 $248 $231 $291 forward $199 $-1 #
edge_name-twe-attrib $-1 $-1 $-1 $230 18 8704 #
vertex $-1 $352 $353 #
ellipse-curve $354 0.9060000000000000275 0 1.719000000000000083 0 -1 0 -0.4060000000000000275 0 0 1 I I #
edge $355 $251 -2 $234 0 $287 $356 forward 7 unknown #
point $-1 0.5 0 1.719000000000000083 #
cur-twe-attrib $-1 $-1 $-1 $235 190 #
edge_name-twe-attrib $-1 $-1 $-1 $236 17 20480 #
straight-curve $357 0.5 0 0.7810000000000000275 0 1 0 I I #
edge_name-twe-attrib $-1 $-1 $-1 $237 34 20480 #
straight-curve $358 0.9060000000000000275 0 0.375 0 1 0 I I #
face_name-twe-attrib $-1 $-1 $-1 $242 12 #
face $359 $339 $333 $3 $-1 $360 reversed single #
loop $361 $-1 $329 $242 #
cone-surface $362 2.093999999999999861 0 1.719000000000000083 0 1 0 0.4060000000000000275 0 0 1 I I 0 1 0.4060000000000000275 forward I I I I #
loop_type-twe-attrib $-1 $-1 $-1 $243 0 #
loop $363 $-1 $364 $198 #
surf-twe-attrib $-1 $-1 $-1 $244 198 #
coedge $-1 $253 $247 $365 $366 reversed $125 $-1 #
coedge $-1 $348 $347 $247 $307 forward $243 $-1 #
edge $367 $368 -1.187999999999999723 $309 0 $306 $369 forward 7 unknown #
edge_name-twe-attrib $-1 $-1 $-1 $249 19 4608 #
vertex $-1 $352 $370 #
ellipse-curve $371 0.9060000000000000275 -2 1.719000000000000083 0 -1 0 -0.4060000000000000275 0 0 1 I I #
point $-1 0.5 -2 1.719000000000000083 #
cur-twe-attrib $-1 $-1 $-1 $252 205 #
coedge $-1 $332 $331 $253 $314 forward $333 $-1 #
edge $372 $316 -0.938000000000000056 $373 0 $313 $374 forward 7 unknown #
edge_name-twe-attrib $-1 $-1 $-1 $255 31 4608 #
vertex $-1 $337 $375 #
ellipse-curve $376 2.093999999999999861 -2 0.7810000000000000275 0 -1 0 0.4060000000000000275 0 0 1 I I #
point $-1 2.093999999999999861 -2 0.375 #
cur-twe-attrib $-1 $-1 $-1 $258 208 #
face_name-twe-attrib $-1 $-1 $-1 $263 18 #
plane-surface $377 1.5 -1.399999999999999911 2.524999999999999911 0 0 -1 -1 0 0 forward_v I I I I #
loop_type-twe-attrib $-1 $-1 $-1 $264 0 #
coedge $-1 $323 $323 $378 $379 reversed $264 $-1 #
surf-twe-attrib $-1 $-1 $-1 $265 214 #
loop_type-twe-attrib $-1 $-1 $-1 $266 0 #
loop $380 $-1 $381 $263 #
point $-1 1.125 -1.399999999999999911 2.524999999999999911 #
cur-twe-attrib $-1 $-1 $-1 $269 218 #
coedge $-1 $382 $383 $270 $330 reversed $300 $-1 #
edge $384 $335 -1.570796326794896558 $350 0 $329 $385 forward 7 unknown #
coedge $-1 $313 $271 $274 $337 reversed $333 $-1 #
coedge $-1 $271 $313 $382 $386 forward $333 $-1 #
loop $387 $388 $271 $299 #
edge_name-twe-attrib $-1 $-1 $-1 $272 27 8704 #
vertex $-1 $386 $389 #
straight-curve $390 2.5 0 1.719000000000000083 0 0 1 I I #
edge $391 $316 -2 $277 0 $274 $392 forward 7 unknown #
loop_type-twe-attrib $-1 $-1 $-1 $275 0 #
face $393 $281 $275 $3 $-1 $394 reversed single #
point $-1 2.5 0 0.7810000000000000275 #
cur-twe-attrib $-1 $-1 $-1 $278 221 #
edge_name-twe-attrib $-1 $-1 $-1 $279 36 20480 #
straight-curve $395 2.093999999999999861 0 0.375 0 1 0 I I #
face_name-twe-attrib $-1 $-1 $-1 $281 15 #
face $396 $214 $397 $3 $-1 $398 reversed single #
plane-surface $399 2.093999999999999861 0 0.375 0 0 -1 -1 0 0 forward_v I I I I #
coedge $-1 $306 $284 $383 $400 reversed $243 $-1 #
coedge $-1 $284 $306 $286 $352 forward $243 $-1 #
edge_name-twe-attrib $-1 $-1 $-1 $285 21 8704 #
vertex $-1 $400 $401 #
straight-curve $402 0.9060000000000000275 0 2.125 -1 0 0 I I #
edge $403 $309 -2 $289 0 $348 $404 forward 7 unknown #
point $-1 0.9060000000000000275 0 2.125 #
cur-twe-attrib $-1 $-1 $-1 $290 230 #
edge_name-twe-attrib $-1 $-1 $-1 $291 20 20480 #
straight-curve $405 0.5 0 1.719000000000000083 0 1 0 I I #
cur-twe-attrib $-1 $-1 $-1 $295 236 #
cur-twe-attrib $-1 $-1 $-1 $297 237 #
face_name-twe-attrib $-1 $-1 $-1 $299 13 #
plane-surface $406 2.5 0 1.719000000000000083 1 0 0 0 0 -1 forward_v I I I I #
loop_type-twe-attrib $-1 $-1 $-1 $300 0 #
surf-twe-attrib $-1 $-1 $-1 $301 242 #
loop_type-twe-attrib $-1 $-1 $-1 $303 1 #
coedge $-1 $364 $364 $407 $408 forward $303 $-1 #
coedge $-1 $383 $382 $305 $366 forward $300 $-1 #
edge $409 $373 -1.570796326794896558 $368 0 $365 $410 forward 7 unknown #
edge_name-twe-attrib $-1 $-1 $-1 $307 22 4608 #
vertex $-1 $400 $411 #
straight-curve $412 0.9060000000000000275 -2 2.125 -1 0 0 I I #
point $-1 0.9060000000000000275 -2 2.125 #
cur-twe-attrib $-1 $-1 $-1 $310 249 #
edge_name-twe-attrib $-1 $-1 $-1 $314 28 4608 #
vertex $-1 $386 $413 #
straight-curve $414 2.5 -2 1.719000000000000083 0 0 1 I I #
point $-1 2.5 -2 0.7810000000000000275 #
cur-twe-attrib $-1 $-1 $-1 $317 255 #
surf-twe-attrib $-1 $-1 $-1 $321 263 #
coedge $-1 $378 $378 $323 $379 forward $388 $-1 #
edge $415 $416 -3.141592653589793116 $416 3.141592653589793116 $323 $417 forward 7 unknown #
loop_type-twe-attrib $-1 $-1 $-1 $326 1 #
coedge $-1 $381 $381 $418 $419 reversed $326 $-1 #
coedge $-1 $365 $329 $332 $386 reversed $300 $-1 #
coedge $-1 $329 $365 $347 $400 forward $300 $-1 #
edge_name-twe-attrib $-1 $-1 $-1 $330 24 8704 #
ellipse-curve $420 2.093999999999999861 0 1.719000000000000083 0 -1 0 0 0 0.4060000000000000275 1 I I #
edge $421 $373 -2 $335 0 $332 $422 forward 7 unknown #
loop_type-twe-attrib $-1 $-1 $-1 $333 0 #
loop $423 $-1 $378 $299 #
point $-1 2.5 0 1.719000000000000083 #
cur-twe-attrib $-1 $-1 $-1 $336 272 #
edge_name-twe-attrib $-1 $-1 $-1 $337 32 20480 #
straight-curve $424 2.5 0 0.7810000000000000275 0 1 0 I I #
face_name-twe-attrib $-1 $-1 $-1 $339 14 #
cone-surface $425 2.093999999999999861 0 0.7810000000000000275 0 1 0 0.4060000000000000275 0 0 1 I I 0 1 0.4060000000000000275 forward I I I I #
cur-twe-attrib $-1 $-1 $-1 $343 279 #
face_name-twe-attrib $-1 $-1 $-1 $345 16 #
loop $426 $427 $407 $345 #
cone-surface $428 1.5 -1.399999999999999911 2.899999999999999911 0 0 -1 -0.25 0 0 1 I I 0 1 0.25 forward I I I I #
surf-twe-attrib $-1 $-1 $-1 $346 281 #
edge $429 $368 -2 $350 0 $383 $430 forward 7 unknown #
point $-1 2.093999999999999861 0 2.125 #
cur-twe-attrib $-1 $-1 $-1 $351 285 #
edge_name-twe-attrib $-1 $-1 $-1 $352 23 20480 #
straight-curve $431 0.9060000000000000275 0 2.125 -1.110223024625159992e-16 1 0 I I #
cur-twe-attrib $-1 $-1 $-1 $356 291 #
surf-twe-attrib $-1 $-1 $-1 $360 299 #
coedge $-1 $407 $407 $364 $408 reversed $397 $-1 #
edge $432 $433 -3.141592653589793116 $433 3.141592653589793116 $407 $434 forward 7 unknown #
edge_name-twe-attrib $-1 $-1 $-1 $366 25 4608 #
ellipse-curve $435 2.093999999999999861 -2 1.719000000000000083 0 -1 0 0 0 0.4060000000000000275 1 I I #
point $-1 2.093999999999999861 -2 2.125 #
cur-twe-attrib $-1 $-1 $-1 $369 307 #
point $-1 2.5 -2 1.719000000000000083 #
cur-twe-attrib $-1 $-1 $-1 $374 314 #
edge_name-twe-attrib $-1 $-1 $-1 $379 38 8704 #
vertex $-1 $379 $436 #
ellipse-curve $437 2.5 -1.399999999999999911 1.399999999999999911 1 0 0 0 0.25 0 1 I I #
coedge $-1 $418 $418 $381 $419 forward $427 $-1 #
edge $438 $439 -3.141592653589793116 $439 3.141592653589793116 $381 $440 forward 7 unknown #
cur-twe-attrib $-1 $-1 $-1 $385 330 #
edge_name-twe-attrib $-1 $-1 $-1 $386 29 20480 #
straight-curve $441 2.5 0 1.719000000000000083 0 1 -1.110223024625159992e-16 I I #
loop_type-twe-attrib $-1 $-1 $-1 $388 1 #
cur-twe-attrib $-1 $-1 $-1 $392 337 #
surf-twe-attrib $-1 $-1 $-1 $394 339 #
loop_type-twe-attrib $-1 $-1 $-1 $397 0 #
loop $442 $-1 $418 $345 #
surf-twe-attrib $-1 $-1 $-1 $398 345 #
edge_name-twe-attrib $-1 $-1 $-1 $400 26 20480 #
straight-curve $443 2.093999999999999861 0 2.125 0 1 0 I I #
cur-twe-attrib $-1 $-1 $-1 $404 352 #
edge_name-twe-attrib $-1 $-1 $-1 $408 37 8704 #
vertex $-1 $408 $444 #
ellipse-curve $445 1.5 -1.399999999999999911 2.125 0 0 1 0.25 0 0 1 I I #
cur-twe-attrib $-1 $-1 $-1 $410 366 #
point $-1 2.5 -1.649999999999999911 1.399999999999999911 #
cur-twe-attrib $-1 $-1 $-1 $417 379 #
edge_name-twe-attrib $-1 $-1 $-1 $419 41 8704 #
vertex $-1 $419 $446 #
ellipse-curve $447 1.5 -1.399999999999999911 2.524999999999999911 0 0 1 0.25 0 0 1 I I #
cur-twe-attrib $-1 $-1 $-1 $422 386 #
loop_type-twe-attrib $-1 $-1 $-1 $427 1 #
cur-twe-attrib $-1 $-1 $-1 $430 400 #
point $-1 1.25 -1.399999999999999911 2.125 #
cur-twe-attrib $-1 $-1 $-1 $434 408 #
point $-1 1.25 -1.399999999999999911 2.524999999999999911 #
cur-twe-attrib $-1 $-1 $-1 $440 419 #
End-of-ACIS-data 