600 0 2 0           
24 FBMach with ACIS - 6.0.3 13 ACIS 6.0.3 NT 24 Wed May 23 21:59:47 2001 
1 9.9999999999999995e-007 1e-010 
body $2 $3 $-1 $4 #
bdycol-kcp $-1 1 5 $5 $6 $7 $8 $9 #
model_id-kcp-attrib $-1 $-1 $-1 $0 1 990669586 70 -1018822655 1 #
lump $-1 $-1 $10 $0 #
transform $-1 1 0 0 0 1 0 0 0 1 0 0 0 1 no_rotate no_reflect no_shear #
body $11 $12 $-1 $13 #
body $14 $15 $-1 $16 #
body $17 $18 $-1 $19 #
body $20 $21 $-1 $22 #
body $23 $24 $-1 $25 #
shell $-1 $-1 $-1 $26 $-1 $3 #
model_id-kcp-attrib $-1 $-1 $-1 $5 1 990669586 70 -1018822654 1 #
lump $-1 $-1 $27 $5 #
transform $-1 1 0 0 0 1 0 0 0 1 1.45 -1.45 1.4500000000000002 1 no_rotate no_reflect no_shear #
rgb_color-st-attrib $-1 $28 $-1 $6 0.5 1 1 #
lump $-1 $-1 $29 $6 #
transform $-1 -1 0 -1.2246063538223773e-016 0 1 0 1.2246063538223773e-016 0 -1 1.5000000000000002 -1.3999999999999999 2.3250000000000002 1 rotate no_reflect no_shear #
rgb_color-st-attrib $-1 $30 $-1 $7 0.5 1 1 #
lump $-1 $-1 $31 $7 #
transform $-1 3.8285889215894375e-016 -4.6885143195523885e-032 -1 -1.2246063538223773e-016 -1 0 -1 1.2246063538223773e-016 -3.8285889215894375e-016 2.6999999999999997 -1.3999999999999997 1.3999999999999999 1 rotate no_reflect no_shear #
rgb_color-st-attrib $-1 $32 $-1 $8 0.5 1 1 #
lump $-1 $-1 $33 $8 #
transform $-1 -1 0 -1.2246063538223773e-016 0 1 0 1.2246063538223773e-016 0 -1 1.5000000000000002 -1.3999999999999999 2.7125000000000004 1 rotate no_reflect no_shear #
rgb_color-st-attrib $-1 $34 $-1 $9 0 0 1 #
lump $-1 $-1 $35 $9 #
transform $-1 1 0 0 0 1 0 0 0 1 1.45 -1.45 1.4500000000000002 1 no_rotate no_reflect no_shear #
face $36 $37 $38 $10 $-1 $39 reversed single #
shell $-1 $-1 $-1 $40 $-1 $12 #
model_id-kcp-attrib $-1 $-1 $14 $6 1 990669586 150 -1013579773 1 #
shell $-1 $-1 $-1 $41 $-1 $15 #
model_id-kcp-attrib $-1 $-1 $17 $7 1 990669586 150 -1013579772 1 #
shell $-1 $-1 $-1 $42 $-1 $18 #
model_id-kcp-attrib $-1 $-1 $20 $8 1 990669586 150 -1013579771 1 #
shell $-1 $-1 $-1 $43 $-1 $21 #
model_id-kcp-attrib $-1 $-1 $23 $9 1 990669586 510 -1006764026 1 #
shell $-1 $-1 $-1 $44 $-1 $24 #
model_id-kcp-attrib $-1 $45 $-1 $26 1 990669586 70 -1018822655 2 #
face $46 $47 $48 $10 $-1 $49 forward single #
loop $50 $-1 $51 $26 #
plane-surface $52 0 0 0 0 0 1 1 0 0 forward_v I I I I #
face $53 $54 $55 $27 $-1 $56 forward single #
face $-1 $57 $58 $29 $-1 $59 forward single #
face $-1 $60 $61 $31 $-1 $62 forward single #
face $-1 $63 $64 $33 $-1 $65 forward single #
face $-1 $66 $67 $35 $-1 $68 forward single #
face_name-twe-attrib $-1 $-1 $36 $26 1 #
model_id-kcp-attrib $-1 $69 $-1 $37 1 990669586 70 -1018822655 21 #
face $70 $71 $72 $10 $-1 $73 forward single #
loop $74 $75 $76 $37 #
plane-surface $77 0 0 2.8999999999999999 0 0 1 1 0 0 forward_v I I I I #
loop_type-twe-attrib $-1 $-1 $-1 $38 0 #
coedge $-1 $78 $79 $80 $81 forward $38 $-1 #
surf-twe-attrib $-1 $-1 $-1 $39 4 #
model_id-kcp-attrib $-1 $-1 $-1 $40 1 990669586 70 -1018822654 3 #
face $82 $83 $84 $27 $-1 $85 reversed single #
loop $-1 $-1 $86 $40 #
plane-surface $-1 0 0 1.4500000000000002 0 0 1 1 0 0 forward_v I I I I #
face $-1 $87 $88 $29 $-1 $89 forward single #
loop $-1 $90 $91 $41 #
cone-surface $-1 0 0 0 0 0 1 0.25 0 0 1 I I 0 1 0.25 forward I I I I #
face $-1 $92 $93 $31 $-1 $94 forward single #
loop $-1 $95 $96 $42 #
cone-surface $-1 0 0 0 0 0 1 0.25 0 0 1 I I 0 1 0.25 forward I I I I #
face $-1 $97 $98 $33 $-1 $99 forward single #
loop $-1 $100 $101 $43 #
cone-surface $-1 0 0 0 0 0 1 0.375 0 0 1 I I 0 1 0.375 forward I I I I #
face $-1 $102 $103 $35 $-1 $104 forward single #
loop $-1 $-1 $105 $44 #
plane-surface $-1 -0.54399999999999993 -0.55000000000000004 -1.0750000000000002 0 0 -1 -1 0 0 forward_v I I I I #
model_id-kcp-attrib $-1 $106 $46 $37 1 990669586 70 -1018822655 3 #
model_id-kcp-attrib $-1 $107 $-1 $47 1 990669586 70 -1018822655 4 #
face $108 $109 $110 $10 $-1 $111 forward single #
loop $112 $-1 $80 $47 #
plane-surface $113 0 0 0 -1 0 0 0 0 1 forward_v I I I I #
loop_type-twe-attrib $-1 $-1 $-1 $48 0 #
loop $114 $-1 $115 $37 #
coedge $-1 $116 $117 $118 $119 reversed $48 $-1 #
surf-twe-attrib $-1 $-1 $-1 $49 6 #
coedge $-1 $120 $51 $121 $122 forward $38 $-1 #
coedge $-1 $51 $120 $123 $124 forward $38 $-1 #
coedge $-1 $125 $126 $51 $81 reversed $72 $-1 #
edge $127 $128 -2.8999999999999999 $129 0 $80 $130 forward 7 unknown #
model_id-kcp-attrib $-1 $-1 $-1 $54 1 990669586 70 -1018822654 2 #
face $131 $132 $133 $27 $-1 $134 reversed single #
loop $-1 $-1 $135 $54 #
plane-surface $-1 0 0 -1.4500000000000002 0 0 1 1 0 0 forward_v I I I I #
coedge $-1 $136 $137 $138 $139 forward $55 $-1 #
face $-1 $-1 $140 $29 $-1 $141 forward single #
loop $-1 $-1 $142 $57 #
plane-surface $-1 0 0 -0.19999999999999996 0 0 -1 -1 0 0 forward_v I I I I #
loop $-1 $-1 $143 $41 #
coedge $-1 $91 $91 $142 $144 reversed $58 $-1 #
face $-1 $-1 $145 $31 $-1 $146 forward single #
loop $-1 $-1 $147 $60 #
plane-surface $-1 0 0 -0.19999999999999996 0 0 -1 -1 0 0 forward_v I I I I #
loop $-1 $-1 $148 $42 #
coedge $-1 $96 $96 $147 $149 reversed $61 $-1 #
face $-1 $-1 $150 $33 $-1 $151 forward single #
loop $-1 $-1 $152 $63 #
plane-surface $-1 0 0 -0.18750000000000022 0 0 -1 -1 0 0 forward_v I I I I #
loop $-1 $-1 $153 $43 #
coedge $-1 $101 $101 $152 $154 reversed $64 $-1 #
face $-1 $155 $156 $35 $-1 $157 forward single #
loop $-1 $-1 $158 $66 #
cone-surface $-1 0.64399999999999991 -0.54999999999999982 -0.66900000000000015 0 1 0 0.40600000000000003 0 0 1 I I 0 1 0.40600000000000003 forward I I I I #
coedge $-1 $159 $160 $161 $162 forward $67 $-1 #
face_name-twe-attrib $-1 $-1 $69 $37 2 #
face_name-twe-attrib $-1 $-1 $70 $47 3 #
model_id-kcp-attrib $-1 $163 $-1 $71 1 990669586 70 -1018822655 5 #
face $164 $165 $166 $10 $-1 $167 forward single #
loop $168 $-1 $123 $71 #
plane-surface $169 0 -2.8999999999999999 0 0 -1 0 0 0 -1 forward_v I I I I #
loop_type-twe-attrib $-1 $-1 $-1 $72 0 #
surf-twe-attrib $-1 $-1 $-1 $73 10 #
loop_type-twe-attrib $-1 $-1 $-1 $75 1 #
coedge $-1 $115 $115 $170 $171 reversed $75 $-1 #
coedge $-1 $172 $76 $173 $174 reversed $48 $-1 #
coedge $-1 $76 $172 $175 $176 reversed $48 $-1 #
coedge $-1 $126 $125 $76 $119 forward $72 $-1 #
edge $177 $178 -2.8999999999999999 $179 0 $118 $180 forward 7 unknown #
coedge $-1 $79 $78 $181 $182 forward $38 $-1 #
coedge $-1 $183 $184 $78 $122 reversed $185 $-1 #
edge $186 $129 -2.8999999999999999 $187 0 $121 $188 forward 7 unknown #
coedge $-1 $189 $190 $79 $124 reversed $110 $-1 #
edge $191 $192 -2.8999999999999999 $128 0 $123 $193 forward 7 unknown #
coedge $-1 $118 $80 $190 $194 reversed $72 $-1 #
coedge $-1 $80 $118 $183 $195 forward $72 $-1 #
attrib_edge_convexity-kcp-attrib $-1 $196 $-1 $81 1 #
vertex $-1 $194 $197 #
vertex $-1 $195 $198 #
straight-curve $199 0 0 0 0 1 0 I I #
model_id-kcp-attrib $-1 $-1 $-1 $83 1 990669586 70 -1018822654 5 #
face $200 $201 $202 $27 $-1 $203 reversed single #
loop $-1 $-1 $204 $83 #
plane-surface $-1 0 -1.45 0 0 1 0 0 0 1 forward_v I I I I #
coedge $-1 $205 $206 $207 $208 forward $84 $-1 #
coedge $-1 $209 $86 $210 $211 forward $55 $-1 #
coedge $-1 $86 $209 $212 $213 forward $55 $-1 #
coedge $-1 $214 $215 $86 $139 reversed $216 $-1 #
edge $-1 $217 -1.45 $218 1.45 $138 $219 forward 7 unknown #
loop $-1 $-1 $220 $87 #
plane-surface $-1 0 0 0.19999999999999996 0 0 1 1 0 0 forward_v I I I I #
coedge $-1 $142 $142 $91 $144 forward $88 $-1 #
coedge $-1 $143 $143 $220 $221 reversed $90 $-1 #
edge $-1 $222 0 $222 6.2831853071795862 $142 $223 forward 7 unknown #
loop $-1 $-1 $224 $92 #
plane-surface $-1 0 0 0.19999999999999996 0 0 1 1 0 0 forward_v I I I I #
coedge $-1 $147 $147 $96 $149 forward $93 $-1 #
coedge $-1 $148 $148 $224 $225 reversed $95 $-1 #
edge $-1 $226 0 $226 6.2831853071795862 $147 $227 forward 7 unknown #
loop $-1 $-1 $228 $97 #
plane-surface $-1 0 0 0.18750000000000022 0 0 1 1 0 0 forward_v I I I I #
coedge $-1 $152 $152 $101 $154 forward $98 $-1 #
coedge $-1 $153 $153 $228 $229 reversed $100 $-1 #
edge $-1 $230 0 $230 6.2831853071795862 $152 $231 forward 7 unknown #
face $-1 $232 $233 $35 $-1 $234 forward single #
loop $-1 $-1 $235 $102 #
plane-surface $-1 1.05 -0.55000000000000004 -0.66900000000000015 1 0 0 0 0 -1 forward_v I I I I #
coedge $-1 $236 $237 $238 $239 forward $103 $-1 #
coedge $-1 $240 $105 $237 $241 reversed $67 $-1 #
coedge $-1 $105 $240 $242 $243 forward $67 $-1 #
coedge $-1 $244 $238 $105 $162 reversed $245 $-1 #
edge $-1 $246 -0.8909999999999999 $247 0.29699999999999993 $105 $248 forward 7 unknown #
face_name-twe-attrib $-1 $-1 $108 $71 4 #
model_id-kcp-attrib $-1 $249 $-1 $109 1 990669586 70 -1018822655 26 #
face $250 $251 $185 $10 $-1 $252 forward single #
loop $253 $254 $181 $109 #
plane-surface $255 2.8999999999999999 -2.8999999999999999 0 1 0 0 0 0 -1 forward_v I I I I #
loop_type-twe-attrib $-1 $-1 $-1 $110 0 #
surf-twe-attrib $-1 $-1 $-1 $111 17 #
coedge $-1 $170 $170 $115 $171 forward $256 $-1 #
edge $257 $258 0 $258 6.2831853071795862 $170 $259 forward 7 unknown #
coedge $-1 $117 $116 $260 $261 reversed $48 $-1 #
coedge $-1 $190 $189 $116 $174 forward $110 $-1 #
edge $262 $263 -2.8999999999999999 $178 0 $173 $264 forward 7 unknown #
coedge $-1 $184 $183 $117 $176 forward $185 $-1 #
edge $265 $179 -2.8999999999999999 $266 0 $175 $267 forward 7 unknown #
attrib_edge_convexity-kcp-attrib $-1 $268 $-1 $119 1 #
vertex $-1 $194 $269 #
vertex $-1 $195 $270 #
straight-curve $271 0 0 2.8999999999999999 0 1 0 I I #
coedge $-1 $272 $273 $120 $182 reversed $166 $-1 #
edge $274 $187 -2.8999999999999999 $192 0 $181 $275 forward 7 unknown #
coedge $-1 $175 $121 $126 $195 reversed $185 $-1 #
coedge $-1 $121 $175 $272 $276 forward $185 $-1 #
loop $277 $278 $121 $165 #
attrib_edge_convexity-kcp-attrib $-1 $279 $-1 $122 1 #
vertex $-1 $276 $280 #
straight-curve $281 2.8999999999999999 0 0 1 0 0 I I #
coedge $-1 $173 $123 $273 $282 reversed $110 $-1 #
coedge $-1 $123 $173 $125 $194 forward $110 $-1 #
attrib_edge_convexity-kcp-attrib $-1 $283 $-1 $124 1 #
vertex $-1 $282 $284 #
straight-curve $285 0 -2.8999999999999999 0 -1 0 0 I I #
edge $286 $178 -2.8999999999999999 $128 0 $190 $287 forward 7 unknown #
edge $288 $179 -2.8999999999999999 $129 0 $183 $289 forward 7 unknown #
convexity-sys-attrib $-1 $290 $127 $81 #
point $-1 0 -2.8999999999999999 0 #
point $-1 0 0 0 #
cur-twe-attrib $-1 $-1 $-1 $130 27 #
model_id-kcp-attrib $-1 $-1 $-1 $132 1 990669586 70 -1018822654 4 #
face $291 $292 $293 $27 $-1 $294 reversed single #
loop $-1 $-1 $295 $132 #
plane-surface $-1 -1.45 0 0 1 0 0 0 0 -1 forward_v I I I I #
coedge $-1 $296 $212 $297 $298 forward $133 $-1 #
coedge $-1 $299 $135 $296 $300 forward $84 $-1 #
coedge $-1 $135 $299 $301 $302 forward $84 $-1 #
coedge $-1 $215 $214 $135 $208 reversed $216 $-1 #
edge $-1 $303 -1.45 $304 1.45 $207 $305 forward 7 unknown #
coedge $-1 $137 $136 $306 $307 forward $55 $-1 #
coedge $-1 $308 $309 $136 $211 reversed $293 $-1 #
edge $-1 $218 -1.45 $310 1.45 $210 $311 forward 7 unknown #
coedge $-1 $204 $312 $137 $213 reversed $133 $-1 #
edge $-1 $313 -1.45 $217 1.45 $212 $314 forward 7 unknown #
coedge $-1 $207 $138 $312 $315 forward $216 $-1 #
coedge $-1 $138 $207 $308 $316 reversed $216 $-1 #
loop $-1 $-1 $214 $292 #
vertex $-1 $139 $317 #
vertex $-1 $139 $318 #
straight-curve $-1 1.45 0 1.4500000000000002 0 1 0 I I #
coedge $-1 $220 $220 $143 $221 forward $140 $-1 #
edge $-1 $319 0 $319 6.2831853071795862 $220 $320 forward 7 unknown #
vertex $-1 $144 $321 #
ellipse-curve $-1 0 0 -0.19999999999999996 0 0 -1 0.25 0 0 1 I I #
coedge $-1 $224 $224 $148 $225 forward $145 $-1 #
edge $-1 $322 0 $322 6.2831853071795862 $224 $323 forward 7 unknown #
vertex $-1 $149 $324 #
ellipse-curve $-1 0 0 -0.19999999999999996 0 0 -1 0.25 0 0 1 I I #
coedge $-1 $228 $228 $153 $229 forward $150 $-1 #
edge $-1 $325 0 $325 6.2831853071795862 $228 $326 forward 7 unknown #
vertex $-1 $154 $327 #
ellipse-curve $-1 0 0 -0.18750000000000022 0 0 -1 0.375 0 0 1 I I #
face $-1 $328 $329 $35 $-1 $330 forward single #
loop $-1 $-1 $331 $155 #
cone-surface $-1 0.64399999999999991 -0.54999999999999982 0.26899999999999991 0 1 0 0.40600000000000003 0 0 1 I I 0 1 0.40600000000000003 forward I I I I #
coedge $-1 $332 $333 $334 $335 forward $156 $-1 #
coedge $-1 $336 $158 $333 $337 reversed $103 $-1 #
coedge $-1 $158 $336 $159 $241 forward $103 $-1 #
coedge $-1 $161 $334 $158 $239 reversed $245 $-1 #
edge $-1 $247 -1.5707963267948966 $338 0 $158 $339 forward 7 unknown #
coedge $-1 $160 $159 $340 $341 reversed $67 $-1 #
edge $342 $343 0 $247 2 $237 $344 forward 7 unknown #
coedge $-1 $345 $346 $160 $243 reversed $347 $-1 #
edge $-1 $348 0 $246 2 $160 $349 forward 7 unknown #
coedge $-1 $350 $161 $346 $351 reversed $245 $-1 #
loop $-1 $-1 $161 $352 #
vertex $-1 $243 $353 #
vertex $-1 $241 $354 #
straight-curve $-1 0.34699999999999998 1.4500000000000002 -1.0750000000000002 1 0 0 I I #
model_id-kcp-attrib $-1 $355 $164 $109 1 990669586 70 -1018822655 6 #
model_id-kcp-attrib $-1 $356 $-1 $165 1 990669586 70 -1018822655 7 #
face $357 $358 $359 $10 $-1 $360 forward single #
plane-surface $361 2.8999999999999999 0 0 0 1 0 0 0 1 forward_v I I I I #
loop_type-twe-attrib $-1 $-1 $-1 $166 0 #
loop $362 $-1 $363 $109 #
surf-twe-attrib $-1 $-1 $-1 $167 29 #
loop $364 $-1 $170 $365 #
attrib_edge_convexity-kcp-attrib $-1 $366 $-1 $171 1 #
vertex $-1 $171 $367 #
ellipse-curve $368 1.5 -1.3999999999999999 2.8999999999999999 -1.0000000000000001e-015 0 1 0.375 0 3.7499999999999998e-016 1 I I #
coedge $-1 $273 $272 $172 $261 forward $166 $-1 #
edge $369 $266 -2.8999999999999999 $263 0 $260 $370 forward 7 unknown #
attrib_edge_convexity-kcp-attrib $-1 $371 $-1 $174 1 #
vertex $-1 $282 $372 #
straight-curve $373 0 -2.8999999999999999 2.8999999999999999 -1 0 0 I I #
edge_name-twe-attrib $-1 $-1 $-1 $176 11 8704 #
vertex $-1 $276 $374 #
straight-curve $375 2.8999999999999999 0 2.8999999999999999 1 0 0 I I #
convexity-sys-attrib $-1 $376 $177 $119 #
point $-1 0 -2.8999999999999999 2.8999999999999999 #
point $-1 0 0 2.8999999999999999 #
cur-twe-attrib $-1 $-1 $-1 $180 39 #
coedge $-1 $260 $181 $184 $276 reversed $166 $-1 #
coedge $-1 $181 $260 $189 $282 forward $166 $-1 #
attrib_edge_convexity-kcp-attrib $-1 $377 $-1 $182 1 #
straight-curve $378 2.8999999999999999 -2.8999999999999999 0 0 -1 0 I I #
edge $379 $266 -2.8999999999999999 $187 0 $184 $380 forward 7 unknown #
loop_type-twe-attrib $-1 $-1 $-1 $185 0 #
loop $381 $-1 $382 $165 #
convexity-sys-attrib $-1 $383 $186 $122 #
point $-1 2.8999999999999999 0 0 #
cur-twe-attrib $-1 $-1 $-1 $188 42 #
edge $384 $263 -2.8999999999999999 $192 0 $273 $385 forward 7 unknown #
convexity-sys-attrib $-1 $386 $191 $124 #
point $-1 2.8999999999999999 -2.8999999999999999 0 #
cur-twe-attrib $-1 $-1 $-1 $193 44 #
attrib_edge_convexity-kcp-attrib $-1 $387 $-1 $194 1 #
straight-curve $388 0 -2.8999999999999999 0 0 0 -1 I I #
attrib_edge_convexity-kcp-attrib $-1 $389 $-1 $195 1 #
straight-curve $390 0 0 0 0 0 -1 I I #
edge_name-twe-attrib $-1 $-1 $196 $81 1 8704 #
model_id-kcp-attrib $-1 $-1 $-1 $201 1 990669586 70 -1018822654 7 #
face $391 $-1 $216 $27 $-1 $392 reversed single #
loop $-1 $-1 $308 $201 #
plane-surface $-1 0 1.45 0 0 -1 0 0 0 -1 forward_v I I I I #
coedge $-1 $393 $306 $309 $394 forward $202 $-1 #
coedge $-1 $312 $204 $205 $300 reversed $133 $-1 #
coedge $-1 $306 $393 $204 $298 reversed $202 $-1 #
edge $-1 $313 -1.4500000000000002 $395 1.4500000000000002 $297 $396 forward 7 unknown #
coedge $-1 $206 $205 $393 $397 forward $84 $-1 #
edge $-1 $304 -1.45 $395 1.45 $296 $398 forward 7 unknown #
coedge $-1 $309 $308 $206 $302 reversed $293 $-1 #
edge $-1 $399 -1.45 $303 1.45 $301 $400 forward 7 unknown #
vertex $-1 $208 $401 #
vertex $-1 $315 $402 #
straight-curve $-1 1.45 0 -1.4500000000000002 0 -1 0 I I #
coedge $-1 $295 $297 $209 $307 reversed $202 $-1 #
edge $-1 $310 -1.45 $313 1.45 $306 $403 forward 7 unknown #
coedge $-1 $301 $210 $215 $316 forward $293 $-1 #
coedge $-1 $210 $301 $295 $394 reversed $293 $-1 #
vertex $-1 $211 $404 #
straight-curve $-1 0 1.45 1.4500000000000002 -1 0 0 I I #
coedge $-1 $212 $296 $214 $315 reversed $133 $-1 #
vertex $-1 $307 $405 #
straight-curve $-1 0 -1.45 1.4500000000000002 1 0 0 I I #
edge $-1 $217 -1.4500000000000002 $304 1.4500000000000002 $214 $406 forward 7 unknown #
edge $-1 $218 -1.4500000000000002 $303 1.4500000000000002 $215 $407 forward 7 unknown #
point $-1 1.45 -1.45 1.4500000000000002 #
point $-1 1.45 1.45 1.4500000000000002 #
vertex $-1 $221 $408 #
ellipse-curve $-1 0 0 0.19999999999999996 0 0 1 0.25 0 0 1 I I #
point $-1 0.25 0 -0.19999999999999996 #
vertex $-1 $225 $409 #
ellipse-curve $-1 0 0 0.19999999999999996 0 0 1 0.25 0 0 1 I I #
point $-1 0.25 0 -0.19999999999999996 #
vertex $-1 $229 $410 #
ellipse-curve $-1 0 0 0.18750000000000022 0 0 1 0.375 0 0 1 I I #
point $-1 0.375 0 -0.18750000000000022 #
face $-1 $411 $412 $35 $-1 $413 forward single #
loop $-1 $-1 $414 $232 #
plane-surface $-1 0.64399999999999991 -0.55000000000000004 0.67499999999999971 0 0 1 1 0 0 forward_v I I I I #
coedge $-1 $415 $416 $417 $418 forward $233 $-1 #
coedge $-1 $419 $235 $416 $420 reversed $156 $-1 #
coedge $-1 $235 $419 $236 $337 forward $156 $-1 #
coedge $-1 $238 $417 $235 $335 reversed $245 $-1 #
edge $-1 $338 -0.70350000000000001 $421 0.23450000000000004 $235 $422 forward 7 unknown #
coedge $-1 $237 $236 $423 $424 reversed $103 $-1 #
edge $-1 $425 0 $338 2 $333 $426 forward 7 unknown #
vertex $-1 $337 $427 #
ellipse-curve $-1 0.64399999999999991 1.4500000000000002 -0.66900000000000015 0 -1 0 0.40600000000000003 0 0 1 I I #
coedge $-1 $423 $428 $240 $341 forward $429 $-1 #
edge $430 $348 -0.8909999999999999 $343 0.29699999999999993 $240 $431 forward 7 unknown #
convexity-sys-attrib $-1 $-1 $-1 $241 #
vertex $-1 $341 $432 #
straight-curve $-1 0.64399999999999991 -0.55000000000000004 -1.0750000000000002 0 1 0 I I #
coedge $-1 $433 $242 $428 $434 reversed $347 $-1 #
coedge $-1 $242 $433 $244 $351 forward $347 $-1 #
loop $-1 $-1 $346 $435 #
vertex $-1 $434 $436 #
straight-curve $-1 -0.54399999999999993 -0.55000000000000004 -1.0750000000000002 0 1 0 I I #
coedge $-1 $437 $244 $438 $439 reversed $245 $-1 #
edge $-1 $440 -3.1415926535897931 $246 -1.5707963267948966 $346 $441 forward 7 unknown #
face $-1 $442 $245 $35 $-1 $443 forward single #
point $-1 -0.54399999999999993 1.45 -1.0750000000000002 #
point $-1 0.64399999999999991 1.45 -1.0750000000000002 #
face_name-twe-attrib $-1 $-1 $249 $109 5 #
face_name-twe-attrib $-1 $-1 $250 $165 6 #
model_id-kcp-attrib $-1 $444 $-1 $251 1 990669586 70 -1018822655 8 #
face $445 $446 $447 $10 $-1 $448 reversed single #
loop $449 $-1 $450 $251 #
plane-surface $451 2.8999999999999999 -2 0 0 1 0 0 0 1 forward_v I I I I #
surf-twe-attrib $-1 $-1 $-1 $252 52 #
model_id-kcp-attrib $-1 $452 $-1 $254 1 990669586 70 -1018822655 30 #
coedge $-1 $363 $363 $453 $454 reversed $254 $-1 #
loop_type-twe-attrib $-1 $-1 $-1 $256 1 #
face $455 $-1 $456 $10 $-1 $457 reversed single #
convexity-sys-attrib $-1 $458 $257 $171 #
point $-1 1.875 -1.3999999999999999 2.8999999999999999 #
cur-twe-attrib $-1 $-1 $-1 $259 58 #
edge_name-twe-attrib $-1 $-1 $-1 $261 7 8704 #
straight-curve $459 2.8999999999999999 -2.8999999999999999 2.8999999999999999 0 -1 0 I I #
convexity-sys-attrib $-1 $460 $262 $174 #
point $-1 2.8999999999999999 -2.8999999999999999 2.8999999999999999 #
cur-twe-attrib $-1 $-1 $-1 $264 61 #
point $-1 2.8999999999999999 0 2.8999999999999999 #
cur-twe-attrib $-1 $-1 $-1 $267 63 #
edge_name-twe-attrib $-1 $-1 $268 $119 2 8704 #
convexity-sys-attrib $-1 $461 $274 $182 #
cur-twe-attrib $-1 $-1 $-1 $275 69 #
edge_name-twe-attrib $-1 $-1 $-1 $276 12 8704 #
straight-curve $462 2.8999999999999999 0 0 0 0 -1 I I #
loop_type-twe-attrib $-1 $-1 $-1 $278 1 #
coedge $-1 $463 $464 $465 $466 forward $278 $-1 #
edge_name-twe-attrib $-1 $-1 $279 $122 9 8704 #
attrib_edge_convexity-kcp-attrib $-1 $467 $-1 $282 1 #
straight-curve $468 2.8999999999999999 -2.8999999999999999 0 0 0 -1 I I #
edge_name-twe-attrib $-1 $-1 $283 $124 3 8704 #
convexity-sys-attrib $-1 $469 $286 $194 #
cur-twe-attrib $-1 $-1 $-1 $287 81 #
convexity-sys-attrib $-1 $470 $288 $195 #
cur-twe-attrib $-1 $-1 $-1 $289 82 #
model_id-kcp-attrib $-1 $-1 $-1 $292 1 990669586 70 -1018822654 6 #
plane-surface $-1 1.45 0 0 -1 0 0 0 0 1 forward_v I I I I #
coedge $-1 $297 $295 $299 $397 reversed $202 $-1 #
edge $-1 $310 -1.4500000000000002 $399 1.4500000000000002 $309 $471 forward 7 unknown #
vertex $-1 $397 $472 #
straight-curve $-1 -1.45 -1.45 0 0 0 -1 I I #
edge $-1 $395 -1.45 $399 1.45 $393 $473 forward 7 unknown #
straight-curve $-1 0 -1.45 -1.4500000000000002 -1 0 0 I I #
vertex $-1 $302 $474 #
straight-curve $-1 0 1.45 -1.4500000000000002 1 0 0 I I #
point $-1 1.45 1.45 -1.4500000000000002 #
point $-1 1.45 -1.45 -1.4500000000000002 #
straight-curve $-1 -1.45 0 1.4500000000000002 0 -1 0 I I #
point $-1 -1.45 1.45 1.4500000000000002 #
point $-1 -1.45 -1.45 1.4500000000000002 #
straight-curve $-1 1.45 -1.45 0 0 0 -1 I I #
straight-curve $-1 1.45 1.45 0 0 0 -1 I I #
point $-1 0.25 0 0.19999999999999996 #
point $-1 0.25 0 0.19999999999999996 #
point $-1 0.375 0 0.18750000000000022 #
face $-1 $435 $475 $35 $-1 $476 forward single #
loop $-1 $-1 $477 $328 #
cone-surface $-1 -0.54399999999999993 -0.54999999999999982 0.26899999999999991 0 1 0 0.40600000000000003 0 0 1 I I 0 1 0.40600000000000003 forward I I I I #
coedge $-1 $478 $479 $480 $481 forward $329 $-1 #
coedge $-1 $482 $331 $479 $483 reversed $233 $-1 #
coedge $-1 $331 $482 $332 $420 forward $233 $-1 #
coedge $-1 $334 $480 $331 $418 reversed $245 $-1 #
edge $-1 $421 0 $484 1.5707963267948966 $331 $485 forward 7 unknown #
coedge $-1 $333 $332 $486 $487 reversed $156 $-1 #
edge $-1 $488 0 $421 2 $416 $489 forward 7 unknown #
vertex $-1 $420 $490 #
straight-curve $-1 1.05 1.4500000000000002 0.034499999999999864 0 0 1 I I #
coedge $-1 $486 $340 $336 $424 forward $429 $-1 #
edge $491 $343 -1.5707963267948966 $425 0 $336 $492 forward 7 unknown #
vertex $-1 $424 $493 #
straight-curve $-1 1.05 -0.55000000000000004 -0.66900000000000015 0 1 0 I I #
point $-1 1.05 1.45 -0.66900000000000015 #
coedge $-1 $340 $494 $345 $434 forward $429 $-1 #
loop $-1 $-1 $428 $442 #
convexity-sys-attrib $-1 $-1 $-1 $341 #
straight-curve $-1 0.34699999999999998 -0.54999999999999982 -1.0750000000000002 1 0 0 I I #
point $-1 0.64399999999999991 -0.55000000000000004 -1.0750000000000002 #
coedge $-1 $346 $345 $495 $496 forward $347 $-1 #
edge $497 $498 -3.1415926535897931 $348 -1.5707963267948966 $345 $499 forward 7 unknown #
face $-1 $352 $347 $35 $-1 $500 forward single #
point $-1 -0.54399999999999993 -0.55000000000000004 -1.0750000000000002 #
coedge $-1 $480 $350 $477 $501 reversed $245 $-1 #
coedge $-1 $495 $502 $350 $439 forward $475 $-1 #
edge $-1 $503 -0.70350000000000001 $440 0.23449999999999999 $438 $504 forward 7 unknown #
vertex $-1 $496 $505 #
ellipse-curve $-1 -0.54399999999999993 1.4500000000000002 -0.66900000000000015 0 -1 0 0.40600000000000003 0 0 1 I I #
face $-1 $-1 $429 $35 $-1 $506 reversed single #
plane-surface $-1 0.050000000000000051 1.4500000000000002 -0.20000000000000012 -4.3085679894199015e-032 1 -4.2171514793268706e-032 0 4.2171514793268706e-032 1 forward_v I I I I #
face_name-twe-attrib $-1 $-1 $357 $251 7 #
model_id-kcp-attrib $-1 $507 $-1 $358 1 990669586 70 -1018822655 9 #
face $508 $509 $510 $10 $-1 $511 reversed single #
loop $512 $-1 $465 $358 #
cone-surface $513 0.90600000000000003 0 0.78100000000000003 0 1 0 0.40600000000000003 0 0 1 I I 0 1 0.40600000000000003 forward I I I I #
loop_type-twe-attrib $-1 $-1 $-1 $359 0 #
coedge $-1 $514 $515 $516 $517 reversed $359 $-1 #
surf-twe-attrib $-1 $-1 $-1 $360 87 #
loop_type-twe-attrib $-1 $-1 $362 $254 1 #
coedge $-1 $453 $453 $363 $454 forward $518 $-1 #
edge $519 $520 0 $520 6.2831853071795862 $453 $521 forward 7 unknown #
model_id-kcp-attrib $-1 $522 $-1 $365 1 990669586 70 -1018822655 20 #
loop $523 $256 $524 $365 #
cone-surface $525 1.5 -1.3999999999999999 2.9187500000000002 0 0 -1 0.375 0 0 1 I I 0 1 0.375 forward I I I I #
edge_name-twe-attrib $-1 $-1 $366 $171 42 8704 #
cur-twe-attrib $-1 $-1 $-1 $370 97 #
edge_name-twe-attrib $-1 $-1 $371 $174 4 8704 #
edge_name-twe-attrib $-1 $-1 $377 $182 6 8704 #
cur-twe-attrib $-1 $-1 $-1 $380 111 #
coedge $-1 $526 $382 $527 $528 forward $278 $-1 #
coedge $-1 $382 $529 $530 $531 forward $278 $-1 #
coedge $-1 $532 $533 $382 $466 reversed $447 $-1 #
edge $534 $535 -1.5707963267948966 $536 0 $465 $537 forward 7 unknown #
convexity-sys-attrib $-1 $538 $384 $282 #
cur-twe-attrib $-1 $-1 $-1 $385 116 #
edge_name-twe-attrib $-1 $-1 $387 $194 5 8704 #
edge_name-twe-attrib $-1 $-1 $389 $195 10 8704 #
straight-curve $-1 -1.45 1.45 0 0 0 -1 I I #
point $-1 -1.45 -1.45 -1.4500000000000002 #
straight-curve $-1 -1.45 0 -1.4500000000000002 0 1 0 I I #
point $-1 -1.45 1.45 -1.4500000000000002 #
loop $-1 $-1 $438 $411 #
plane-surface $-1 -0.94999999999999996 -0.55000000000000004 0.26899999999999991 -1 0 0 0 0 1 forward_v I I I I #
coedge $-1 $539 $540 $437 $501 forward $412 $-1 #
coedge $-1 $541 $414 $540 $542 reversed $329 $-1 #
coedge $-1 $414 $541 $415 $483 forward $329 $-1 #
coedge $-1 $417 $437 $414 $481 reversed $245 $-1 #
edge $-1 $484 -0.89099999999999979 $543 0.29699999999999999 $414 $544 forward 7 unknown #
coedge $-1 $416 $415 $545 $546 reversed $233 $-1 #
edge $-1 $547 0 $484 2 $479 $548 forward 7 unknown #
vertex $-1 $483 $549 #
ellipse-curve $-1 0.64399999999999991 1.4500000000000002 0.26899999999999991 0 -1 0 0.40600000000000003 0 0 1 I I #
coedge $-1 $545 $423 $419 $487 forward $429 $-1 #
edge $550 $425 -0.70350000000000001 $488 0.23450000000000004 $419 $551 forward 7 unknown #
vertex $-1 $487 $552 #
straight-curve $-1 1.05 -0.55000000000000004 0.26899999999999991 0 1 0 I I #
point $-1 1.05 1.45 0.26899999999999991 #
convexity-sys-attrib $-1 $-1 $-1 $424 #
ellipse-curve $-1 0.64399999999999991 -0.54999999999999982 -0.66900000000000015 0 -1 0 0.40600000000000003 0 0 1 I I #
point $-1 1.05 -0.55000000000000004 -0.66900000000000015 #
coedge $-1 $428 $553 $554 $555 forward $429 $-1 #
coedge $-1 $554 $438 $433 $496 reversed $475 $-1 #
edge $-1 $498 0 $440 2 $433 $556 forward 7 unknown #
convexity-sys-attrib $-1 $-1 $-1 $434 #
vertex $-1 $434 $557 #
ellipse-curve $-1 -0.54399999999999993 -0.54999999999999982 -0.66900000000000015 0 -1 0 0.40600000000000003 0 0 1 I I #
cone-surface $-1 -0.54399999999999993 -0.54999999999999982 -0.66900000000000015 0 1 0 0.40600000000000003 0 0 1 I I 0 1 0.40600000000000003 forward I I I I #
edge $-1 $543 1.5707963267948966 $503 3.1415926535897931 $477 $558 forward 7 unknown #
coedge $-1 $438 $554 $539 $559 forward $475 $-1 #
vertex $-1 $559 $560 #
straight-curve $-1 -0.94999999999999996 1.4500000000000002 -0.43450000000000016 0 0 -1 I I #
point $-1 -0.94999999999999996 1.45 -0.66900000000000015 #
plane-surface $-1 0.050000000000000051 -0.54999999999999982 -0.20000000000000012 -4.3085679894199015e-032 1 -4.2171514793268706e-032 0 4.2171514793268706e-032 1 forward_v I I I I #
face_name-twe-attrib $-1 $-1 $445 $358 8 #
model_id-kcp-attrib $-1 $561 $-1 $446 1 990669586 70 -1018822655 10 #
face $562 $563 $564 $10 $-1 $565 reversed single #
loop $566 $-1 $530 $446 #
plane-surface $567 0.5 0 0.78100000000000003 -1 0 0 0 0 1 forward_v I I I I #
loop_type-twe-attrib $-1 $-1 $-1 $447 0 #
surf-twe-attrib $-1 $-1 $-1 $448 124 #
coedge $-1 $568 $450 $569 $570 reversed $359 $-1 #
coedge $-1 $450 $571 $572 $573 reversed $359 $-1 #
coedge $-1 $533 $532 $450 $517 forward $447 $-1 #
edge $574 $575 -1.5707963267948966 $576 0 $516 $577 forward 7 unknown #
loop $578 $-1 $453 $579 #
attrib_edge_convexity-kcp-attrib $-1 $580 $-1 $454 1 #
vertex $-1 $454 $581 #
ellipse-curve $582 2.8999999999999999 -1.3999999999999999 1.3999999999999999 1 0 0 0 -0.25 0 1 I I #
face_name-twe-attrib $-1 $-1 $455 $365 19 #
loop_type-twe-attrib $-1 $-1 $-1 $456 0 #
coedge $-1 $524 $524 $583 $584 reversed $456 $-1 #
surf-twe-attrib $-1 $-1 $-1 $457 131 #
coedge $-1 $585 $463 $586 $587 forward $278 $-1 #
coedge $-1 $588 $589 $463 $528 reversed $590 $-1 #
edge $591 $536 -1.1879999999999997 $592 0 $527 $593 forward 7 unknown #
coedge $-1 $464 $594 $595 $596 forward $278 $-1 #
coedge $-1 $597 $598 $464 $531 reversed $510 $-1 #
edge $599 $600 -0.93800000000000006 $535 0 $530 $601 forward 7 unknown #
coedge $-1 $516 $465 $598 $602 reversed $447 $-1 #
coedge $-1 $465 $516 $588 $603 forward $447 $-1 #
edge_name-twe-attrib $-1 $-1 $-1 $466 13 8704 #
vertex $-1 $602 $604 #
vertex $-1 $603 $605 #
ellipse-curve $606 0.90600000000000003 0 0.78100000000000003 0 -1 0 0 0 -0.40600000000000003 1 I I #
edge_name-twe-attrib $-1 $-1 $467 $282 8 8704 #
coedge $-1 $607 $477 $502 $559 reversed $412 $-1 #
coedge $-1 $477 $607 $478 $542 forward $412 $-1 #
coedge $-1 $479 $478 $608 $609 reversed $329 $-1 #
edge $-1 $610 0 $543 2 $540 $611 forward 7 unknown #
vertex $-1 $542 $612 #
straight-curve $-1 -0.24699999999999994 1.4500000000000002 0.67499999999999982 -1 0 0 I I #
coedge $-1 $608 $486 $482 $546 forward $429 $-1 #
edge $613 $488 0 $547 1.5707963267948966 $482 $614 forward 7 unknown #
vertex $-1 $546 $615 #
straight-curve $-1 0.64399999999999991 -0.55000000000000004 0.67499999999999971 0 1 0 I I #
point $-1 0.64399999999999991 1.45 0.67499999999999971 #
convexity-sys-attrib $-1 $-1 $-1 $487 #
straight-curve $-1 1.05 -0.54999999999999982 0.034499999999999864 0 0 1 I I #
point $-1 1.05 -0.55000000000000004 0.26899999999999991 #
coedge $-1 $494 $608 $607 $616 forward $429 $-1 #
coedge $-1 $502 $495 $494 $555 reversed $475 $-1 #
edge $617 $618 -0.70350000000000001 $498 0.23449999999999999 $554 $619 forward 7 unknown #
straight-curve $-1 -0.94999999999999996 -0.55000000000000004 -0.66900000000000015 0 1 0 I I #
point $-1 -0.94999999999999996 -0.55000000000000004 -0.66900000000000015 #
ellipse-curve $-1 -0.54399999999999993 1.4500000000000002 0.26899999999999991 0 -1 0 0.40600000000000003 0 0 1 I I #
edge $-1 $618 0 $503 2 $502 $620 forward 7 unknown #
point $-1 -0.94999999999999996 1.45 0.26899999999999991 #
face_name-twe-attrib $-1 $-1 $508 $446 9 #
model_id-kcp-attrib $-1 $621 $-1 $509 1 990669586 70 -1018822655 11 #
face $622 $623 $624 $10 $-1 $625 reversed single #
loop $626 $-1 $595 $509 #
cone-surface $627 0.90600000000000003 0 1.7190000000000001 0 1 0 0.40600000000000003 0 0 1 I I 0 1 0.40600000000000003 forward I I I I #
loop_type-twe-attrib $-1 $-1 $-1 $510 0 #
surf-twe-attrib $-1 $-1 $-1 $511 150 #
coedge $-1 $628 $514 $629 $630 reversed $359 $-1 #
coedge $-1 $598 $597 $514 $570 forward $510 $-1 #
edge $631 $632 -0.93800000000000006 $575 0 $569 $633 forward 7 unknown #
coedge $-1 $515 $634 $635 $636 reversed $359 $-1 #
coedge $-1 $589 $588 $515 $573 forward $590 $-1 #
edge $637 $576 -1.1879999999999997 $638 0 $572 $639 forward 7 unknown #
edge_name-twe-attrib $-1 $-1 $-1 $517 14 4608 #
vertex $-1 $602 $640 #
vertex $-1 $603 $641 #
ellipse-curve $642 0.90600000000000003 -2 0.78100000000000003 0 -1 0 0 0 -0.40600000000000003 1 I I #
model_id-kcp-attrib $-1 $643 $-1 $518 1 990669586 70 -1018822655 28 #
face $644 $645 $646 $10 $-1 $647 reversed single #
convexity-sys-attrib $-1 $648 $519 $454 #
point $-1 2.8999999999999999 -1.6499999999999999 1.3999999999999999 #
cur-twe-attrib $-1 $-1 $-1 $521 157 #
coedge $-1 $583 $583 $524 $584 forward $649 $-1 #
edge $650 $651 -3.1415926535897931 $651 3.1415926535897931 $583 $652 forward 7 unknown #
coedge $-1 $653 $526 $654 $655 forward $278 $-1 #
coedge $-1 $656 $657 $526 $587 reversed $658 $-1 #
edge $659 $592 -1.5707963267948966 $660 0 $586 $661 forward 7 unknown #
coedge $-1 $572 $527 $533 $603 reversed $590 $-1 #
coedge $-1 $527 $572 $656 $662 forward $590 $-1 #
loop $663 $-1 $527 $664 #
edge_name-twe-attrib $-1 $-1 $-1 $528 33 8704 #
vertex $-1 $662 $665 #
straight-curve $666 2.0939999999999999 0 0.375 1 0 0 I I #
coedge $-1 $529 $653 $667 $668 forward $278 $-1 #
coedge $-1 $669 $670 $529 $596 reversed $564 $-1 #
edge $671 $672 -1.5707963267948966 $600 0 $595 $673 forward 7 unknown #
coedge $-1 $569 $530 $670 $674 reversed $510 $-1 #
coedge $-1 $530 $569 $532 $602 forward $510 $-1 #
edge_name-twe-attrib $-1 $-1 $-1 $531 15 8704 #
vertex $-1 $674 $675 #
straight-curve $676 0.5 0 0.78100000000000003 0 0 -1 I I #
edge $677 $575 -2 $535 0 $598 $678 forward 7 unknown #
edge $679 $576 -2 $536 0 $588 $680 forward 7 unknown #
point $-1 0.5 0 0.78100000000000003 #
point $-1 0.90600000000000003 0 0.375 #
cur-twe-attrib $-1 $-1 $-1 $537 166 #
coedge $-1 $540 $539 $553 $616 reversed $412 $-1 #
coedge $-1 $553 $545 $541 $609 forward $429 $-1 #
edge $681 $547 -0.89099999999999979 $610 0.29699999999999999 $541 $682 forward 7 unknown #
vertex $-1 $609 $683 #
straight-curve $-1 -0.54399999999999993 -0.55000000000000004 0.67499999999999971 0 1 0 I I #
point $-1 -0.54399999999999993 1.45 0.67499999999999971 #
convexity-sys-attrib $-1 $-1 $-1 $546 #
ellipse-curve $-1 0.64399999999999991 -0.54999999999999982 0.26899999999999991 0 -1 0 0.40600000000000003 0 0 1 I I #
point $-1 0.64399999999999991 -0.55000000000000004 0.67499999999999982 #
edge $684 $610 1.5707963267948966 $618 3.1415926535897931 $607 $685 forward 7 unknown #
convexity-sys-attrib $-1 $-1 $-1 $555 #
vertex $-1 $616 $686 #
straight-curve $-1 -0.94999999999999996 -0.54999999999999982 -0.43450000000000016 0 0 -1 I I #
straight-curve $-1 -0.94999999999999996 -0.55000000000000004 0.26899999999999991 0 1 0 I I #
face_name-twe-attrib $-1 $-1 $562 $509 10 #
model_id-kcp-attrib $-1 $687 $-1 $563 1 990669586 70 -1018822655 12 #
face $688 $689 $690 $10 $-1 $691 reversed single #
loop $692 $693 $667 $563 #
plane-surface $694 0.90600000000000003 0 2.125 0 0 1 1 0 0 forward_v I I I I #
loop_type-twe-attrib $-1 $-1 $-1 $564 0 #
surf-twe-attrib $-1 $-1 $-1 $565 169 #
coedge $-1 $695 $568 $696 $697 reversed $359 $-1 #
coedge $-1 $670 $669 $568 $630 forward $564 $-1 #
edge $698 $699 -1.5707963267948966 $632 0 $629 $700 forward 7 unknown #
edge_name-twe-attrib $-1 $-1 $-1 $570 16 4608 #
vertex $-1 $674 $701 #
straight-curve $702 0.5 -2 0.78100000000000003 0 0 -1 I I #
coedge $-1 $571 $695 $703 $704 reversed $359 $-1 #
coedge $-1 $657 $656 $571 $636 forward $658 $-1 #
edge $705 $638 -1.5707963267948966 $706 0 $635 $707 forward 7 unknown #
edge_name-twe-attrib $-1 $-1 $-1 $573 35 4608 #
vertex $-1 $662 $708 #
straight-curve $709 2.0939999999999999 -2 0.375 1 0 0 I I #
point $-1 0.5 -2 0.78100000000000003 #
point $-1 0.90600000000000003 -2 0.375 #
cur-twe-attrib $-1 $-1 $-1 $577 177 #
loop_type-twe-attrib $-1 $-1 $578 $518 1 #
model_id-kcp-attrib $-1 $710 $-1 $579 1 990669586 70 -1018822655 18 #
face $711 $365 $649 $10 $-1 $712 reversed single #
loop $713 $518 $714 $579 #
cone-surface $715 2.8999999999999999 -1.3999999999999999 1.3999999999999999 -1 0 0 0 -0.25 0 1 I I 0 1 0.25 forward I I I I #
edge_name-twe-attrib $-1 $-1 $580 $454 39 8704 #
loop $716 $717 $583 $645 #
attrib_edge_convexity-kcp-attrib $-1 $718 $-1 $584 2 #
vertex $-1 $584 $719 #
ellipse-curve $720 1.5 -1.3999999999999999 2.5249999999999999 0 0 1 0.375 0 0 1 I I #
coedge $-1 $594 $585 $721 $722 forward $278 $-1 #
coedge $-1 $723 $724 $585 $655 reversed $725 $-1 #
edge $726 $660 -0.93800000000000006 $727 0 $654 $728 forward 7 unknown #
coedge $-1 $635 $586 $589 $662 reversed $658 $-1 #
coedge $-1 $586 $635 $723 $729 forward $658 $-1 #
loop $730 $-1 $586 $731 #
edge_name-twe-attrib $-1 $-1 $-1 $587 30 8704 #
vertex $-1 $729 $732 #
ellipse-curve $733 2.0939999999999999 0 0.78100000000000003 0 -1 0 0.40600000000000003 0 0 1 I I #
edge $734 $638 -2 $592 0 $589 $735 forward 7 unknown #
loop_type-twe-attrib $-1 $-1 $-1 $590 0 #
face $736 $737 $590 $10 $-1 $738 reversed single #
point $-1 2.0939999999999999 0 0.375 #
cur-twe-attrib $-1 $-1 $-1 $593 187 #
coedge $-1 $739 $740 $594 $668 reversed $624 $-1 #
edge $741 $742 -1.1879999999999997 $672 0 $667 $743 forward 7 unknown #
coedge $-1 $629 $595 $740 $744 reversed $564 $-1 #
coedge $-1 $595 $629 $597 $674 forward $564 $-1 #
edge_name-twe-attrib $-1 $-1 $-1 $596 18 8704 #
vertex $-1 $744 $745 #
ellipse-curve $746 0.90600000000000003 0 1.7190000000000001 0 -1 0 -0.40600000000000003 0 0 1 I I #
edge $747 $632 -2 $600 0 $670 $748 forward 7 unknown #
point $-1 0.5 0 1.7190000000000001 #
cur-twe-attrib $-1 $-1 $-1 $601 190 #
edge_name-twe-attrib $-1 $-1 $-1 $602 17 20480 #
straight-curve $749 0.5 0 0.78100000000000003 0 1 0 I I #
edge_name-twe-attrib $-1 $-1 $-1 $603 34 20480 #
straight-curve $750 0.90600000000000003 0 0.375 0 1 0 I I #
convexity-sys-attrib $-1 $-1 $-1 $609 #
straight-curve $-1 -0.24699999999999994 -0.54999999999999982 0.67499999999999982 -1 0 0 I I #
point $-1 -0.54399999999999993 -0.55000000000000004 0.67499999999999982 #
convexity-sys-attrib $-1 $-1 $-1 $616 #
ellipse-curve $-1 -0.54399999999999993 -0.54999999999999982 0.26899999999999991 0 -1 0 0.40600000000000003 0 0 1 I I #
point $-1 -0.94999999999999996 -0.55000000000000004 0.26899999999999991 #
face_name-twe-attrib $-1 $-1 $622 $563 11 #
model_id-kcp-attrib $-1 $751 $-1 $623 1 990669586 70 -1018822655 13 #
face $752 $731 $725 $10 $-1 $753 reversed single #
loop $754 $-1 $721 $623 #
cone-surface $755 2.0939999999999999 0 1.7190000000000001 0 1 0 0.40600000000000003 0 0 1 I I 0 1 0.40600000000000003 forward I I I I #
loop_type-twe-attrib $-1 $-1 $-1 $624 0 #
loop $756 $-1 $757 $563 #
surf-twe-attrib $-1 $-1 $-1 $625 198 #
coedge $-1 $634 $628 $758 $759 reversed $359 $-1 #
coedge $-1 $740 $739 $628 $697 forward $624 $-1 #
edge $760 $761 -1.1879999999999997 $699 0 $696 $762 forward 7 unknown #
edge_name-twe-attrib $-1 $-1 $-1 $630 19 4608 #
vertex $-1 $744 $763 #
ellipse-curve $764 0.90600000000000003 -2 1.7190000000000001 0 -1 0 -0.40600000000000003 0 0 1 I I #
point $-1 0.5 -2 1.7190000000000001 #
cur-twe-attrib $-1 $-1 $-1 $633 205 #
coedge $-1 $724 $723 $634 $704 forward $725 $-1 #
edge $765 $706 -0.93800000000000006 $766 0 $703 $767 forward 7 unknown #
edge_name-twe-attrib $-1 $-1 $-1 $636 31 4608 #
vertex $-1 $729 $768 #
ellipse-curve $769 2.0939999999999999 -2 0.78100000000000003 0 -1 0 0.40600000000000003 0 0 1 I I #
point $-1 2.0939999999999999 -2 0.375 #
cur-twe-attrib $-1 $-1 $-1 $639 208 #
face_name-twe-attrib $-1 $-1 $644 $579 17 #
model_id-kcp-attrib $-1 $770 $-1 $645 1 990669586 70 -1018822655 19 #
plane-surface $771 1.5 -1.3999999999999999 2.5249999999999999 0 0 -1 -1 0 0 forward_v I I I I #
model_id-kcp-attrib $-1 $772 $-1 $646 1 990669586 70 -1018822655 27 #
coedge $-1 $714 $714 $773 $774 reversed $646 $-1 #
surf-twe-attrib $-1 $-1 $-1 $647 214 #
loop_type-twe-attrib $-1 $-1 $-1 $649 0 #
loop $775 $-1 $776 $645 #
convexity-sys-attrib $-1 $777 $650 $584 #
point $-1 1.125 -1.3999999999999999 2.5249999999999999 #
cur-twe-attrib $-1 $-1 $-1 $652 218 #
coedge $-1 $778 $779 $653 $722 reversed $690 $-1 #
edge $780 $727 -1.5707963267948966 $742 0 $721 $781 forward 7 unknown #
coedge $-1 $703 $654 $657 $729 reversed $725 $-1 #
coedge $-1 $654 $703 $778 $782 forward $725 $-1 #
loop $783 $784 $654 $689 #
edge_name-twe-attrib $-1 $-1 $-1 $655 27 8704 #
vertex $-1 $782 $785 #
straight-curve $786 2.5 0 1.7190000000000001 0 0 1 I I #
edge $787 $706 -2 $660 0 $657 $788 forward 7 unknown #
loop_type-twe-attrib $-1 $-1 $-1 $658 0 #
face $789 $664 $658 $10 $-1 $790 reversed single #
point $-1 2.5 0 0.78100000000000003 #
cur-twe-attrib $-1 $-1 $-1 $661 221 #
edge_name-twe-attrib $-1 $-1 $-1 $662 36 20480 #
straight-curve $791 2.0939999999999999 0 0.375 0 1 0 I I #
model_id-kcp-attrib $-1 $792 $-1 $664 1 990669586 70 -1018822655 16 #
face $793 $579 $794 $10 $-1 $795 reversed single #
plane-surface $796 2.0939999999999999 0 0.375 0 0 -1 -1 0 0 forward_v I I I I #
coedge $-1 $696 $667 $779 $797 reversed $624 $-1 #
coedge $-1 $667 $696 $669 $744 forward $624 $-1 #
edge_name-twe-attrib $-1 $-1 $-1 $668 21 8704 #
vertex $-1 $797 $798 #
straight-curve $799 0.90600000000000003 0 2.125 -1 0 0 I I #
edge $800 $699 -2 $672 0 $740 $801 forward 7 unknown #
point $-1 0.90600000000000003 0 2.125 #
cur-twe-attrib $-1 $-1 $-1 $673 230 #
edge_name-twe-attrib $-1 $-1 $-1 $674 20 20480 #
straight-curve $802 0.5 0 1.7190000000000001 0 1 0 I I #
cur-twe-attrib $-1 $-1 $-1 $678 236 #
cur-twe-attrib $-1 $-1 $-1 $680 237 #
face_name-twe-attrib $-1 $-1 $688 $623 12 #
model_id-kcp-attrib $-1 $803 $-1 $689 1 990669586 70 -1018822655 14 #
plane-surface $804 2.5 0 1.7190000000000001 1 0 0 0 0 -1 forward_v I I I I #
loop_type-twe-attrib $-1 $-1 $-1 $690 0 #
surf-twe-attrib $-1 $-1 $-1 $691 242 #
model_id-kcp-attrib $-1 $805 $-1 $693 1 990669586 70 -1018822655 24 #
coedge $-1 $757 $757 $806 $807 forward $693 $-1 #
coedge $-1 $779 $778 $695 $759 forward $690 $-1 #
edge $808 $766 -1.5707963267948966 $761 0 $758 $809 forward 7 unknown #
edge_name-twe-attrib $-1 $-1 $-1 $697 22 4608 #
vertex $-1 $797 $810 #
straight-curve $811 0.90600000000000003 -2 2.125 -1 0 0 I I #
point $-1 0.90600000000000003 -2 2.125 #
cur-twe-attrib $-1 $-1 $-1 $700 249 #
edge_name-twe-attrib $-1 $-1 $-1 $704 28 4608 #
vertex $-1 $782 $812 #
straight-curve $813 2.5 -2 1.7190000000000001 0 0 1 I I #
point $-1 2.5 -2 0.78100000000000003 #
cur-twe-attrib $-1 $-1 $-1 $707 255 #
face_name-twe-attrib $-1 $-1 $711 $645 18 #
surf-twe-attrib $-1 $-1 $-1 $712 263 #
loop_type-twe-attrib $-1 $-1 $713 $646 0 #
coedge $-1 $773 $773 $714 $774 forward $784 $-1 #
edge $814 $815 -3.1415926535897931 $815 3.1415926535897931 $714 $816 forward 7 unknown #
model_id-kcp-attrib $-1 $817 $-1 $717 1 990669586 70 -1018822655 25 #
coedge $-1 $776 $776 $818 $819 reversed $717 $-1 #
edge_name-twe-attrib $-1 $-1 $718 $584 40 4608 #
coedge $-1 $758 $721 $724 $782 reversed $690 $-1 #
coedge $-1 $721 $758 $739 $797 forward $690 $-1 #
edge_name-twe-attrib $-1 $-1 $-1 $722 24 8704 #
ellipse-curve $820 2.0939999999999999 0 1.7190000000000001 0 -1 0 0 0 0.40600000000000003 1 I I #
edge $821 $766 -2 $727 0 $724 $822 forward 7 unknown #
loop_type-twe-attrib $-1 $-1 $-1 $725 0 #
loop $823 $-1 $773 $689 #
point $-1 2.5 0 1.7190000000000001 #
cur-twe-attrib $-1 $-1 $-1 $728 272 #
edge_name-twe-attrib $-1 $-1 $-1 $729 32 20480 #
straight-curve $824 2.5 0 0.78100000000000003 0 1 0 I I #
model_id-kcp-attrib $-1 $825 $-1 $731 1 990669586 70 -1018822655 15 #
cone-surface $826 2.0939999999999999 0 0.78100000000000003 0 1 0 0.40600000000000003 0 0 1 I I 0 1 0.40600000000000003 forward I I I I #
cur-twe-attrib $-1 $-1 $-1 $735 279 #
face_name-twe-attrib $-1 $-1 $736 $664 15 #
model_id-kcp-attrib $-1 $827 $-1 $737 1 990669586 70 -1018822655 17 #
loop $828 $829 $806 $737 #
cone-surface $830 1.5 -1.3999999999999999 2.8999999999999999 0 0 -1 -0.25 0 0 1 I I 0 1 0.25 forward I I I I #
surf-twe-attrib $-1 $-1 $-1 $738 281 #
edge $831 $761 -2 $742 0 $779 $832 forward 7 unknown #
point $-1 2.0939999999999999 0 2.125 #
cur-twe-attrib $-1 $-1 $-1 $743 285 #
edge_name-twe-attrib $-1 $-1 $-1 $744 23 20480 #
straight-curve $833 0.90600000000000003 0 2.125 -1.11022302462516e-016 1 0 I I #
cur-twe-attrib $-1 $-1 $-1 $748 291 #
face_name-twe-attrib $-1 $-1 $752 $689 13 #
surf-twe-attrib $-1 $-1 $-1 $753 299 #
loop_type-twe-attrib $-1 $-1 $756 $693 1 #
coedge $-1 $806 $806 $757 $807 reversed $794 $-1 #
edge $834 $835 -3.1415926535897931 $835 3.1415926535897931 $806 $836 forward 7 unknown #
edge_name-twe-attrib $-1 $-1 $-1 $759 25 4608 #
ellipse-curve $837 2.0939999999999999 -2 1.7190000000000001 0 -1 0 0 0 0.40600000000000003 1 I I #
point $-1 2.0939999999999999 -2 2.125 #
cur-twe-attrib $-1 $-1 $-1 $762 307 #
point $-1 2.5 -2 1.7190000000000001 #
cur-twe-attrib $-1 $-1 $-1 $767 314 #
attrib_edge_convexity-kcp-attrib $-1 $838 $-1 $774 1 #
vertex $-1 $774 $839 #
ellipse-curve $840 2.5 -1.3999999999999999 1.3999999999999999 1 0 0 0 0.25 0 1 I I #
loop_type-twe-attrib $-1 $-1 $775 $717 1 #
coedge $-1 $818 $818 $776 $819 forward $829 $-1 #
edge $841 $842 -3.1415926535897931 $842 3.1415926535897931 $776 $843 forward 7 unknown #
cur-twe-attrib $-1 $-1 $-1 $781 330 #
edge_name-twe-attrib $-1 $-1 $-1 $782 29 20480 #
straight-curve $844 2.5 0 1.7190000000000001 0 1 -1.11022302462516e-016 I I #
model_id-kcp-attrib $-1 $845 $-1 $784 1 990669586 70 -1018822655 29 #
cur-twe-attrib $-1 $-1 $-1 $788 337 #
face_name-twe-attrib $-1 $-1 $789 $731 14 #
surf-twe-attrib $-1 $-1 $-1 $790 339 #
face_name-twe-attrib $-1 $-1 $793 $737 16 #
model_id-kcp-attrib $-1 $846 $-1 $794 1 990669586 70 -1018822655 22 #
loop $847 $-1 $818 $737 #
surf-twe-attrib $-1 $-1 $-1 $795 345 #
edge_name-twe-attrib $-1 $-1 $-1 $797 26 20480 #
straight-curve $848 2.0939999999999999 0 2.125 0 1 0 I I #
cur-twe-attrib $-1 $-1 $-1 $801 352 #
attrib_edge_convexity-kcp-attrib $-1 $849 $-1 $807 1 #
vertex $-1 $807 $850 #
ellipse-curve $851 1.5 -1.3999999999999999 2.125 0 0 1 0.25 0 0 1 I I #
cur-twe-attrib $-1 $-1 $-1 $809 366 #
convexity-sys-attrib $-1 $852 $814 $774 #
point $-1 2.5 -1.6499999999999999 1.3999999999999999 #
cur-twe-attrib $-1 $-1 $-1 $816 379 #
attrib_edge_convexity-kcp-attrib $-1 $853 $-1 $819 1 #
vertex $-1 $819 $854 #
ellipse-curve $855 1.5 -1.3999999999999999 2.5249999999999999 0 0 1 0.25 0 0 1 I I #
cur-twe-attrib $-1 $-1 $-1 $822 386 #
loop_type-twe-attrib $-1 $-1 $823 $784 1 #
loop_type-twe-attrib $-1 $-1 $828 $794 0 #
model_id-kcp-attrib $-1 $856 $-1 $829 1 990669586 70 -1018822655 23 #
cur-twe-attrib $-1 $-1 $-1 $832 400 #
convexity-sys-attrib $-1 $857 $834 $807 #
point $-1 1.25 -1.3999999999999999 2.125 #
cur-twe-attrib $-1 $-1 $-1 $836 408 #
edge_name-twe-attrib $-1 $-1 $838 $774 38 8704 #
convexity-sys-attrib $-1 $858 $841 $819 #
point $-1 1.25 -1.3999999999999999 2.5249999999999999 #
cur-twe-attrib $-1 $-1 $-1 $843 419 #
loop_type-twe-attrib $-1 $-1 $847 $829 1 #
edge_name-twe-attrib $-1 $-1 $849 $807 37 8704 #
edge_name-twe-attrib $-1 $-1 $853 $819 41 8704 #
End-of-ACIS-data 