600 0 1 0           
59 GICL ACIS Healer - Source: bellows_attach_ring_26.sat - 6 0 18 ACIS 6.0.3 Solaris 24 Fri Mar 29 22:30:57 2002 
1 9.999999999999999547e-07 1.000000000000000036e-10 
body $1 $2 $-1 $3 #
aggregate_advspl_attribute-aggregate_geombuild_base_attribute-aggregate_body_attribute-attrib_HH-attrib $-1 $4 $-1 $0 F #
lump $-1 $-1 $5 $0 #
transform $-1 1 0 0 0 1 0 0 0 1 0 0 0 1 no_rotate no_reflect no_shear #
aggregate_secndry_attribute-aggregate_geombuild_base_attribute-aggregate_body_attribute-attrib_HH-attrib $-1 $6 $1 $0 F #
shell $-1 $-1 $-1 $7 $-1 $2 #
aggregate_sharped_attribute-aggregate_geombuild_base_attribute-aggregate_body_attribute-attrib_HH-attrib $-1 $8 $4 $0 F #
face $9 $10 $11 $5 $-1 $12 forward single #
aggregate_reblend_attribute-aggregate_geombuild_base_attribute-aggregate_body_attribute-attrib_HH-attrib $-1 $13 $6 $0 F #
attrib_hh_face_geombuild-attrib_entity_geombuild-individual_entity_attribute-attrib_HH-attrib $-1 $-1 $-1 $7 F #
face $14 $15 $16 $5 $-1 $17 forward single #
loop $-1 $18 $19 $7 #
plane-surface $-1 0 0 0 0 0 1 1 0 0 forward_v I I I I #
aggregate_isospline_attribute-aggregate_geombuild_base_attribute-aggregate_body_attribute-attrib_HH-attrib $-1 $20 $8 $0 F #
attrib_hh_face_geombuild-attrib_entity_geombuild-individual_entity_attribute-attrib_HH-attrib $-1 $-1 $-1 $10 F #
face $21 $22 $23 $5 $-1 $24 reversed single #
loop $-1 $25 $26 $10 #
plane-surface $-1 0 0 -0.4269999999999999907 0 0 1 1 0 0 forward_v I I I I #
loop $-1 $-1 $27 $7 #
coedge $28 $19 $19 $29 $30 forward $11 $-1 #
aggregate_analytic_solver_attribute-aggregate_geombuild_base_attribute-aggregate_body_attribute-attrib_HH-attrib $-1 $31 $13 $0 F #
attrib_hh_face_geombuild-attrib_entity_geombuild-individual_entity_attribute-attrib_HH-attrib $-1 $-1 $-1 $15 F #
face $32 $33 $34 $5 $-1 $35 reversed single #
loop $-1 $36 $37 $15 #
plane-surface $-1 0 0 -0.5620000000000000551 0 0 1 1 0 0 forward_v I I I I #
loop $-1 $-1 $38 $10 #
coedge $39 $26 $26 $40 $41 forward $16 $-1 #
coedge $42 $27 $27 $43 $44 reversed $18 $-1 #
attrib_hh_coedge_geombuild-attrib_entity_geombuild-individual_entity_attribute-attrib_HH-attrib $-1 $-1 $-1 $19 F #
coedge $45 $29 $29 $19 $30 reversed $46 $-1 #
edge $47 $48 0 $48 6.283185307179586232 $29 $49 forward 7 unknown #
aggregate_geombuild_attribute-aggregate_geombuild_base_attribute-aggregate_body_attribute-attrib_HH-attrib $-1 $50 $20 $0 #
attrib_hh_face_geombuild-attrib_entity_geombuild-individual_entity_attribute-attrib_HH-attrib $-1 $-1 $-1 $22 F #
face $51 $52 $53 $5 $-1 $54 forward single #
loop $-1 $55 $56 $22 #
plane-surface $-1 0 0 -0.5420000000000000373 0 0 1 1 0 0 forward_v I I I I #
loop $-1 $-1 $57 $15 #
coedge $58 $37 $37 $59 $60 forward $23 $-1 #
coedge $61 $38 $38 $62 $63 forward $25 $-1 #
attrib_hh_coedge_geombuild-attrib_entity_geombuild-individual_entity_attribute-attrib_HH-attrib $-1 $-1 $-1 $26 F #
coedge $64 $40 $40 $26 $41 reversed $65 $-1 #
edge $66 $67 0 $67 6.283185307179586232 $40 $68 forward 7 unknown #
attrib_hh_coedge_geombuild-attrib_entity_geombuild-individual_entity_attribute-attrib_HH-attrib $-1 $-1 $-1 $27 F #
coedge $69 $43 $43 $27 $44 forward $70 $-1 #
edge $71 $72 0 $72 6.283185307179586232 $43 $73 forward 7 unknown #
attrib_hh_coedge_geombuild-attrib_entity_geombuild-individual_entity_attribute-attrib_HH-attrib $-1 $-1 $-1 $29 F #
loop $-1 $-1 $29 $33 #
attrib_hh_edge_geombuild-attrib_entity_geombuild-individual_entity_attribute-attrib_HH-attrib $-1 $-1 $-1 $30 F #
vertex $74 $30 $75 #
ellipse-curve $-1 0 0 0 0 0 1 1 0 0 1 I I #
aggregate_stitch_attribute-aggregate_stitch_base_attribute-aggregate_body_attribute-attrib_HH-attrib $-1 $76 $31 $0 F #
attrib_hh_face_geombuild-attrib_entity_geombuild-individual_entity_attribute-attrib_HH-attrib $-1 $-1 $-1 $33 F #
face $77 $78 $79 $5 $-1 $80 forward single #
loop $-1 $46 $62 $33 #
cone-surface $-1 0 0 -0.5900999999999999579 0 0 1 -1 0 0 1 I I 0 1 1 forward I I I I #
loop $-1 $-1 $81 $22 #
coedge $82 $56 $56 $83 $84 forward $34 $-1 #
coedge $85 $57 $57 $86 $87 forward $36 $-1 #
attrib_hh_coedge_geombuild-attrib_entity_geombuild-individual_entity_attribute-attrib_HH-attrib $-1 $-1 $-1 $37 F #
coedge $88 $59 $59 $37 $60 reversed $89 $-1 #
edge $90 $91 0 $91 6.283185307179586232 $59 $92 forward 7 unknown #
attrib_hh_coedge_geombuild-attrib_entity_geombuild-individual_entity_attribute-attrib_HH-attrib $-1 $-1 $-1 $38 F #
coedge $93 $62 $62 $38 $63 reversed $53 $-1 #
edge $94 $95 -3.141592653589793116 $95 3.141592653589793116 $38 $96 forward 7 unknown #
attrib_hh_coedge_geombuild-attrib_entity_geombuild-individual_entity_attribute-attrib_HH-attrib $-1 $-1 $-1 $40 F #
loop $-1 $-1 $40 $52 #
attrib_hh_edge_geombuild-attrib_entity_geombuild-individual_entity_attribute-attrib_HH-attrib $-1 $-1 $-1 $41 F #
vertex $97 $41 $98 #
ellipse-curve $-1 0 0 -0.4269999999999999907 0 0 1 1.995000000000000107 0 0 1 I I #
attrib_hh_coedge_geombuild-attrib_entity_geombuild-individual_entity_attribute-attrib_HH-attrib $-1 $-1 $-1 $43 F #
loop $-1 $99 $43 $100 #
attrib_hh_edge_geombuild-attrib_entity_geombuild-individual_entity_attribute-attrib_HH-attrib $-1 $-1 $-1 $44 F #
vertex $101 $44 $102 #
ellipse-curve $-1 0 0 0 0 0 1 0.9375 0 0 1 I I #
attrib_hh_vertex_geombuild-attrib_entity_geombuild-individual_entity_attribute-attrib_HH-attrib $-1 $-1 $-1 $48 F #
point $-1 1 0 0 #
aggregate_simgeom_attribute-aggregate_simgeom_base_attribute-aggregate_body_attribute-attrib_HH-attrib $-1 $-1 $50 $0 F #
attrib_hh_face_geombuild-attrib_entity_geombuild-individual_entity_attribute-attrib_HH-attrib $-1 $-1 $-1 $52 F #
face $103 $104 $105 $5 $-1 $106 reversed single #
loop $-1 $65 $107 $52 #
cone-surface $-1 0 0 -0.5900999999999999579 0 0 1 -1.995000000000000107 0 0 1 I I 0 1 1.995000000000000107 forward I I I I #
coedge $108 $81 $81 $109 $110 forward $55 $-1 #
attrib_hh_coedge_geombuild-attrib_entity_geombuild-individual_entity_attribute-attrib_HH-attrib $-1 $-1 $-1 $56 F #
coedge $111 $83 $83 $56 $84 reversed $99 $-1 #
edge $112 $113 0 $113 6.283185307179586232 $83 $114 forward 7 unknown #
attrib_hh_coedge_geombuild-attrib_entity_geombuild-individual_entity_attribute-attrib_HH-attrib $-1 $-1 $-1 $57 F #
coedge $115 $86 $86 $57 $87 reversed $116 $-1 #
edge $117 $118 -3.141592653589793116 $118 3.141592653589793116 $57 $119 forward 7 unknown #
attrib_hh_coedge_geombuild-attrib_entity_geombuild-individual_entity_attribute-attrib_HH-attrib $-1 $-1 $-1 $59 F #
loop $-1 $-1 $59 $120 #
attrib_hh_edge_geombuild-attrib_entity_geombuild-individual_entity_attribute-attrib_HH-attrib $-1 $-1 $-1 $60 F #
vertex $121 $60 $122 #
ellipse-curve $-1 0 0 -0.5620000000000010543 0 0 1 1.927000000000000046 0 0 1 I I #
attrib_hh_coedge_geombuild-attrib_entity_geombuild-individual_entity_attribute-attrib_HH-attrib $-1 $-1 $-1 $62 F #
attrib_hh_edge_geombuild-attrib_entity_geombuild-individual_entity_attribute-attrib_HH-attrib $-1 $-1 $-1 $63 F #
vertex $123 $63 $124 #
ellipse-curve $-1 0 0 -0.4269999999999999907 0 0 -1 1 0 0 1 I I #
attrib_hh_vertex_geombuild-attrib_entity_geombuild-individual_entity_attribute-attrib_HH-attrib $-1 $-1 $-1 $67 F #
point $-1 1.995000000000000107 0 -0.4269999999999999907 #
loop $-1 $-1 $83 $100 #
face $125 $-1 $70 $5 $-1 $126 reversed single #
attrib_hh_vertex_geombuild-attrib_entity_geombuild-individual_entity_attribute-attrib_HH-attrib $-1 $-1 $-1 $72 F #
point $-1 0.9375 0 0 #
attrib_hh_face_geombuild-attrib_entity_geombuild-individual_entity_attribute-attrib_HH-attrib $-1 $-1 $-1 $78 F #
face $127 $120 $116 $5 $-1 $128 forward single #
loop $-1 $129 $130 $78 #
torus-surface $-1 0 0 -0.527000000000000024 0 0 1 1.995000000000000107 0.02500000000000000139 1 0 0 forward_v I I I I #
coedge $131 $107 $107 $132 $133 forward $79 $-1 #
attrib_hh_coedge_geombuild-attrib_entity_geombuild-individual_entity_attribute-attrib_HH-attrib $-1 $-1 $-1 $81 F #
coedge $134 $109 $109 $81 $110 reversed $135 $-1 #
edge $136 $137 -3.141592653589793116 $137 3.141592653589793116 $81 $138 forward 7 unknown #
attrib_hh_coedge_geombuild-attrib_entity_geombuild-individual_entity_attribute-attrib_HH-attrib $-1 $-1 $-1 $83 F #
attrib_hh_edge_geombuild-attrib_entity_geombuild-individual_entity_attribute-attrib_HH-attrib $-1 $-1 $-1 $84 F #
vertex $139 $84 $140 #
ellipse-curve $-1 0 0 -0.5420000000000000373 0 0 1 0.9375 0 0 1 I I #
attrib_hh_coedge_geombuild-attrib_entity_geombuild-individual_entity_attribute-attrib_HH-attrib $-1 $-1 $-1 $86 F #
loop $-1 $141 $86 $104 #
attrib_hh_edge_geombuild-attrib_entity_geombuild-individual_entity_attribute-attrib_HH-attrib $-1 $-1 $-1 $87 F #
vertex $142 $87 $143 #
ellipse-curve $-1 0 0 -0.5620000000000000551 0 0 -1 1.995000000000000107 0 0 1 I I #
face $144 $100 $135 $5 $-1 $145 reversed single #
attrib_hh_vertex_geombuild-attrib_entity_geombuild-individual_entity_attribute-attrib_HH-attrib $-1 $-1 $-1 $91 F #
point $-1 1.927000000000000046 0 -0.5620000000000010543 #
attrib_hh_vertex_geombuild-attrib_entity_geombuild-individual_entity_attribute-attrib_HH-attrib $-1 $-1 $-1 $95 F #
point $-1 -1 0 -0.4269999999999999907 #
attrib_hh_face_geombuild-attrib_entity_geombuild-individual_entity_attribute-attrib_HH-attrib $-1 $-1 $-1 $100 F #
cone-surface $-1 0 0 -0.5900999999999999579 0 0 1 -0.9375 0 0 1 I I 0 1 0.9375 forward I I I I #
attrib_hh_face_geombuild-attrib_entity_geombuild-individual_entity_attribute-attrib_HH-attrib $-1 $-1 $-1 $104 F #
cone-surface $-1 0 0 -0.5900999999999999579 0 0 1 -1.995000000000000107 0 0 1 I I 0 1 1.995000000000000107 forward I I I I #
loop $-1 $-1 $132 $78 #
coedge $146 $130 $130 $147 $148 forward $105 $-1 #
attrib_hh_coedge_geombuild-attrib_entity_geombuild-individual_entity_attribute-attrib_HH-attrib $-1 $-1 $-1 $107 F #
coedge $149 $132 $132 $107 $133 reversed $129 $-1 #
edge $150 $151 -3.141592653589793116 $151 3.141592653589793116 $132 $152 forward 7 unknown #
attrib_hh_coedge_geombuild-attrib_entity_geombuild-individual_entity_attribute-attrib_HH-attrib $-1 $-1 $-1 $109 F #
loop $-1 $89 $109 $120 #
attrib_hh_edge_geombuild-attrib_entity_geombuild-individual_entity_attribute-attrib_HH-attrib $-1 $-1 $-1 $110 F #
vertex $153 $110 $154 #
ellipse-curve $-1 0 0 -0.5419999999999990381 0 0 -1 1.892358983848619891 0 0 1 I I #
attrib_hh_vertex_geombuild-attrib_entity_geombuild-individual_entity_attribute-attrib_HH-attrib $-1 $-1 $-1 $113 F #
point $-1 0.9375 0 -0.5420000000000000373 #
loop $-1 $-1 $147 $104 #
attrib_hh_vertex_geombuild-attrib_entity_geombuild-individual_entity_attribute-attrib_HH-attrib $-1 $-1 $-1 $118 F #
point $-1 -1.995000000000000107 0 -0.5620000000000000551 #
attrib_hh_face_geombuild-attrib_entity_geombuild-individual_entity_attribute-attrib_HH-attrib $-1 $-1 $-1 $120 F #
cone-surface $-1 0 0 -0.5620000000000010543 0 0 -1 1.927000000000000046 0 0 1 I I 0.8660254037844390407 0.4999999999999990008 1.927000000000000046 forward I I I I #
attrib_hh_coedge_geombuild-attrib_entity_geombuild-individual_entity_attribute-attrib_HH-attrib $-1 $-1 $-1 $130 F #
coedge $155 $147 $147 $130 $148 reversed $141 $-1 #
edge $156 $157 -3.141592653589793116 $157 3.141592653589793116 $147 $158 forward 7 unknown #
attrib_hh_coedge_geombuild-attrib_entity_geombuild-individual_entity_attribute-attrib_HH-attrib $-1 $-1 $-1 $132 F #
attrib_hh_edge_geombuild-attrib_entity_geombuild-individual_entity_attribute-attrib_HH-attrib $-1 $-1 $-1 $133 F #
vertex $159 $133 $160 #
ellipse-curve $-1 0 0 -0.5020000000000000018 0 0 1 1.995000000000000107 0 0 1 I I #
attrib_hh_vertex_geombuild-attrib_entity_geombuild-individual_entity_attribute-attrib_HH-attrib $-1 $-1 $-1 $137 F #
point $-1 -1.892358983848619891 0 -0.5419999999999990381 #
attrib_hh_coedge_geombuild-attrib_entity_geombuild-individual_entity_attribute-attrib_HH-attrib $-1 $-1 $-1 $147 F #
attrib_hh_edge_geombuild-attrib_entity_geombuild-individual_entity_attribute-attrib_HH-attrib $-1 $-1 $-1 $148 F #
vertex $161 $148 $162 #
ellipse-curve $-1 0 0 -0.5520000000000000462 0 0 1 1.995000000000000107 0 0 1 I I #
attrib_hh_vertex_geombuild-attrib_entity_geombuild-individual_entity_attribute-attrib_HH-attrib $-1 $-1 $-1 $151 F #
point $-1 -1.995000000000000107 0 -0.5020000000000000018 #
attrib_hh_vertex_geombuild-attrib_entity_geombuild-individual_entity_attribute-attrib_HH-attrib $-1 $-1 $-1 $157 F #
point $-1 -1.995000000000000107 0 -0.5520000000000000462 #
End-of-ACIS-data 