700 0 2 0           
24 FBMach with ACIS - 7.0.3 13 ACIS 7.0.3 NT 24 Tue May 14 14:31:08 2002 
1 9.9999999999999995e-007 1e-010 
body $2 -1 $-1 $3 $-1 $4 #
bdycol-kcp $-1 -1 1 4 $5 $6 $7 $8 #
model_id-kcp-attrib $-1 -1 $9 $-1 $0 1 1021401067 1021401067 -163184639 1 #
lump $-1 -1 $-1 $-1 $10 $0 #
transform $-1 -1 1 0 0 0 1 0 0 0 1 0 0 0 1 rotate no_reflect no_shear #
body $11 -1 $-1 $12 $-1 $13 #
body $14 -1 $-1 $15 $-1 $16 #
body $17 -1 $-1 $18 $-1 $19 #
body $20 -1 $-1 $21 $-1 $22 #
aggregate_advspl_attribute-aggregate_geombuild_base_attribute-aggregate_body_attribute-attrib_HH-attrib $-1 -1 $23 $2 $0 F #
shell $-1 -1 $-1 $-1 $-1 $24 $-1 $3 #
model_id-kcp-attrib $-1 -1 $-1 $-1 $5 1 1021401067 1021401067 -163184638 1 #
lump $-1 -1 $-1 $-1 $25 $5 #
transform $-1 -1 1 0 0 0 1 0 0 0 1 0 0 -0.28100000000000053 1 no_rotate no_reflect no_shear #
rgb_color-st-attrib $-1 -1 $26 $-1 $6 0.5 1 1 #
lump $-1 -1 $-1 $-1 $27 $6 #
transform $-1 -1 1 0 0 0 1 0 0 0 1 0 0 -0.27100000000000002 1 no_rotate no_reflect no_shear #
rgb_color-st-attrib $-1 -1 $28 $-1 $7 0.5 1 1 #
lump $-1 -1 $-1 $-1 $29 $7 #
transform $-1 -1 1 0 0 0 1 0 0 0 1 0 0 -0.28100000000000053 1 no_rotate no_reflect no_shear #
rgb_color-st-attrib $-1 -1 $30 $-1 $8 1 0.5 1 #
lump $-1 -1 $-1 $-1 $31 $8 #
transform $-1 -1 1 0 0 0 1 0 0 0 1 0 0 -0.28100000000000053 1 no_rotate no_reflect no_shear #
aggregate_secndry_attribute-aggregate_geombuild_base_attribute-aggregate_body_attribute-attrib_HH-attrib $-1 -1 $32 $9 $0 F #
face $33 -1 $-1 $34 $35 $10 $-1 $36 forward single #
shell $-1 -1 $-1 $-1 $-1 $37 $-1 $12 #
model_id-kcp-attrib $-1 -1 $-1 $14 $6 1 1021401067 1021401067 -161873917 1 #
shell $-1 -1 $-1 $-1 $-1 $38 $-1 $15 #
model_id-kcp-attrib $-1 -1 $-1 $17 $7 1 1021401067 1021401067 -154664956 1 #
shell $-1 -1 $-1 $-1 $-1 $39 $-1 $18 #
model_id-kcp-attrib $-1 -1 $-1 $20 $8 1 1021401067 1021401068 -158007291 1 #
shell $-1 -1 $-1 $-1 $-1 $40 $-1 $21 #
aggregate_sharped_attribute-aggregate_geombuild_base_attribute-aggregate_body_attribute-attrib_HH-attrib $-1 -1 $41 $23 $0 F #
model_id-kcp-attrib $-1 -1 $42 $-1 $24 1 1021401067 1021401067 -163184639 2 #
face $43 -1 $-1 $44 $45 $10 $-1 $46 forward single #
loop $-1 -1 $-1 $47 $48 $24 #
plane-surface $-1 -1 $-1 0 0 0 0 0 1 1 0 0 forward_v I I I I #
face $49 -1 $-1 $50 $51 $25 $-1 $52 forward single #
face $-1 -1 $-1 $53 $54 $27 $-1 $55 forward single #
face $-1 -1 $-1 $56 $57 $29 $-1 $58 reversed single #
face $-1 -1 $-1 $59 $60 $31 $-1 $61 forward single #
aggregate_reblend_attribute-aggregate_geombuild_base_attribute-aggregate_body_attribute-attrib_HH-attrib $-1 -1 $62 $32 $0 F #
attrib_hh_face_geombuild-attrib_entity_geombuild-individual_entity_attribute-attrib_HH-attrib $-1 -1 $-1 $33 $24 F #
model_id-kcp-attrib $-1 -1 $63 $-1 $34 1 1021401067 1021401067 -163184639 3 #
face $64 -1 $-1 $65 $66 $10 $-1 $67 reversed single #
loop $-1 -1 $-1 $68 $69 $34 #
plane-surface $-1 -1 $-1 0 0 -0.42699999999999999 0 0 1 1 0 0 forward_v I I I I #
loop $70 -1 $-1 $-1 $71 $24 #
coedge $72 -1 $-1 $48 $48 $73 $74 forward $35 $-1 #
model_id-kcp-attrib $-1 -1 $-1 $-1 $37 1 1021401067 1021401067 -163184638 2 #
face $75 -1 $-1 $76 $77 $25 $-1 $78 reversed single #
loop $-1 -1 $-1 $-1 $79 $37 #
plane-surface $-1 -1 $-1 0 0 0.28100000000000053 0 0 1 1 0 0 forward_v I I I I #
face $-1 -1 $-1 $80 $81 $27 $-1 $82 forward single #
loop $-1 -1 $-1 $83 $84 $38 #
cone-surface $-1 -1 $-1 0 0 0 0 0 1 0.9375 0 0 1 I I 0 1 0.9375 forward I I I I #
face $-1 -1 $-1 $85 $86 $29 $-1 $58 reversed single #
loop $-1 -1 $-1 $-1 $87 $39 #
cone-surface $-1 -1 $-1 -7.479557850087911e-033 0 0.28100000000000053 0 0 1 1.9950000000000001 0 0 1 I I 0 1 1.9950000000000001 forward I I I I #
face $-1 -1 $-1 $88 $89 $31 $-1 $90 forward single #
loop $-1 -1 $-1 $91 $92 $40 #
cone-surface $-1 -1 $-1 0 0 -0.14599999999999902 0 0 1 -1 0 0 1 I I 0 -1 1 forward I I I I #
aggregate_isospline_attribute-aggregate_geombuild_base_attribute-aggregate_body_attribute-attrib_HH-attrib $-1 -1 $93 $41 $0 F #
attrib_hh_face_geombuild-attrib_entity_geombuild-individual_entity_attribute-attrib_HH-attrib $-1 -1 $-1 $43 $34 F #
model_id-kcp-attrib $-1 -1 $94 $-1 $44 1 1021401067 1021401067 -163184639 4 #
face $95 -1 $-1 $96 $97 $10 $-1 $98 reversed single #
loop $-1 -1 $-1 $99 $100 $44 #
plane-surface $-1 -1 $-1 0 0 -0.56200000000000006 0 0 1 1 0 0 forward_v I I I I #
loop $-1 -1 $-1 $-1 $101 $34 #
coedge $102 -1 $-1 $69 $69 $103 $104 forward $45 $-1 #
model_id-kcp-attrib $-1 -1 $-1 $-1 $47 1 1021401067 1021401067 -163184639 15 #
coedge $105 -1 $-1 $71 $71 $106 $107 reversed $47 $-1 #
attrib_hh_coedge_geombuild-attrib_entity_geombuild-individual_entity_attribute-attrib_HH-attrib $-1 -1 $-1 $-1 $48 F #
coedge $108 -1 $-1 $73 $73 $48 $74 reversed $109 $-1 #
edge $110 -1 $-1 $111 0 $111 6.2831853071795862 $73 $112 forward @7 unknown #
model_id-kcp-attrib $-1 -1 $-1 $-1 $50 1 1021401067 1021401067 -163184638 3 #
face $-1 -1 $-1 $113 $114 $25 $-1 $115 reversed single #
loop $-1 -1 $-1 $-1 $116 $50 #
plane-surface $-1 -1 $-1 0 0 -0.28100000000000053 0 0 1 1 0 0 forward_v I I I I #
coedge $-1 -1 $-1 $117 $118 $119 $120 forward $51 $-1 #
face $-1 -1 $-1 $-1 $121 $27 $-1 $122 forward single #
loop $-1 -1 $-1 $-1 $123 $53 #
plane-surface $-1 -1 $-1 0 0 -0.27100000000000002 0 0 -1 -1 0 0 forward_v I I I I #
loop $-1 -1 $-1 $-1 $124 $38 #
coedge $-1 -1 $-1 $84 $84 $123 $125 reversed $54 $-1 #
face $-1 -1 $-1 $126 $127 $29 $-1 $58 reversed single #
loop $-1 -1 $-1 $-1 $128 $56 #
coedge $-1 -1 $-1 $129 $130 $131 $132 reversed $57 $-1 #
face $-1 -1 $-1 $133 $134 $31 $-1 $135 forward single #
loop $-1 -1 $-1 $136 $137 $59 #
cone-surface $-1 -1 $-1 -7.479557850087911e-033 0 -0.14599999999999902 0 0 1 1.9950000000000001 0 0 1 I I 0 1 1.9950000000000001 forward I I I I #
loop $-1 -1 $-1 $-1 $138 $40 #
coedge $-1 -1 $-1 $92 $92 $139 $140 forward $60 $-1 #
aggregate_analytic_solver_attribute-aggregate_geombuild_base_attribute-aggregate_body_attribute-attrib_HH-attrib $-1 -1 $141 $62 $0 F #
attrib_hh_face_geombuild-attrib_entity_geombuild-individual_entity_attribute-attrib_HH-attrib $-1 -1 $-1 $64 $44 F #
model_id-kcp-attrib $-1 -1 $142 $-1 $65 1 1021401067 1021401067 -163184639 5 #
face $143 -1 $-1 $144 $145 $10 $-1 $146 forward single #
loop $147 -1 $-1 $148 $149 $65 #
plane-surface $-1 -1 $-1 0 0 -0.54200000000000004 0 0 1 1 0 0 forward_v I I I I #
loop $-1 -1 $-1 $-1 $150 $44 #
coedge $151 -1 $-1 $100 $100 $152 $153 forward $66 $-1 #
coedge $154 -1 $-1 $101 $101 $155 $156 forward $68 $-1 #
attrib_hh_coedge_geombuild-attrib_entity_geombuild-individual_entity_attribute-attrib_HH-attrib $-1 -1 $-1 $-1 $69 F #
coedge $157 -1 $-1 $103 $103 $69 $104 reversed $158 $-1 #
edge $159 -1 $-1 $160 0 $160 6.2831853071795862 $103 $161 forward @7 unknown #
attrib_hh_coedge_geombuild-attrib_entity_geombuild-individual_entity_attribute-attrib_HH-attrib $-1 -1 $-1 $-1 $71 F #
coedge $162 -1 $-1 $106 $106 $71 $107 forward $163 $-1 #
edge $164 -1 $-1 $165 0 $165 6.2831853071795862 $106 $166 forward @7 unknown #
attrib_hh_coedge_geombuild-attrib_entity_geombuild-individual_entity_attribute-attrib_HH-attrib $-1 -1 $-1 $-1 $73 F #
loop $-1 -1 $-1 $-1 $73 $96 #
attrib_edge_convexity-kcp-attrib $-1 -1 $167 $-1 $74 1 #
vertex $168 -1 $-1 $74 $169 #
ellipse-curve $-1 -1 $-1 0 0 0 0 0 1 1 0 0 1 I I #
face $-1 -1 $-1 $170 $171 $25 $-1 $172 reversed single #
loop $-1 -1 $-1 $-1 $173 $76 #
plane-surface $-1 -1 $-1 0 -1.9950000000000001 0 0 1 0 0 0 1 forward_v I I I I #
coedge $-1 -1 $-1 $174 $175 $176 $177 forward $77 $-1 #
coedge $-1 -1 $-1 $178 $79 $179 $180 forward $51 $-1 #
coedge $-1 -1 $-1 $79 $178 $181 $182 forward $51 $-1 #
coedge $-1 -1 $-1 $183 $184 $79 $120 reversed $185 $-1 #
edge $-1 -1 $-1 $186 -1.9950000000000001 $187 1.9950000000000001 $119 $188 forward @7 unknown #
loop $-1 -1 $-1 $-1 $189 $80 #
plane-surface $-1 -1 $-1 0 0 0.27100000000000002 0 0 1 1 0 0 forward_v I I I I #
coedge $-1 -1 $-1 $123 $123 $84 $125 forward $81 $-1 #
coedge $-1 -1 $-1 $124 $124 $189 $190 reversed $83 $-1 #
edge $-1 -1 $-1 $191 0 $191 6.2831853071795862 $123 $192 forward @7 unknown #
face $-1 -1 $-1 $193 $194 $29 $-1 $58 reversed single #
loop $-1 -1 $-1 $-1 $195 $85 #
coedge $-1 -1 $-1 $196 $197 $198 $199 reversed $86 $-1 #
coedge $-1 -1 $-1 $200 $87 $201 $202 reversed $57 $-1 #
coedge $-1 -1 $-1 $87 $200 $203 $204 reversed $57 $-1 #
coedge $-1 -1 $-1 $205 $206 $207 $132 forward $208 $-1 #
edge $-1 -1 $-1 $209 -0.56200000000000105 $210 0 $131 $211 forward @7 unknown #
face $-1 -1 $-1 $-1 $212 $31 $-1 $213 reversed single #
loop $-1 -1 $-1 $214 $215 $88 #
plane-surface $-1 -1 $-1 -0.15116178479283651 -2.0806013246263556e-017 0.28100000000000092 0 0 1 1 0 0 forward_v I I I I #
loop $-1 -1 $-1 $-1 $216 $59 #
coedge $-1 -1 $-1 $137 $137 $215 $217 forward $89 $-1 #
coedge $-1 -1 $-1 $138 $138 $218 $219 reversed $91 $-1 #
coedge $-1 -1 $-1 $139 $139 $92 $140 reversed $214 $-1 #
edge $-1 -1 $-1 $220 0 $220 6.2831853071795862 $92 $221 forward @7 unknown #
aggregate_geombuild_attribute-aggregate_geombuild_base_attribute-aggregate_body_attribute-attrib_HH-attrib $-1 -1 $222 $93 $0 #
attrib_hh_face_geombuild-attrib_entity_geombuild-individual_entity_attribute-attrib_HH-attrib $-1 -1 $-1 $95 $65 F #
model_id-kcp-attrib $-1 -1 $223 $-1 $96 1 1021401067 1021401067 -163184639 6 #
face $224 -1 $-1 $225 $226 $10 $-1 $227 forward single #
loop $-1 -1 $-1 $109 $155 $96 #
cone-surface $-1 -1 $-1 0 0 -0.59009999999999996 0 0 1 -1 0 0 1 I I 0 1 1 forward I I I I #
model_id-kcp-attrib $-1 -1 $-1 $-1 $97 1 1021401067 1021401067 -163184639 16 #
loop $-1 -1 $-1 $-1 $228 $65 #
coedge $229 -1 $-1 $149 $149 $230 $231 forward $97 $-1 #
coedge $232 -1 $-1 $150 $150 $233 $234 forward $99 $-1 #
attrib_hh_coedge_geombuild-attrib_entity_geombuild-individual_entity_attribute-attrib_HH-attrib $-1 -1 $-1 $-1 $100 F #
coedge $235 -1 $-1 $152 $152 $100 $153 reversed $236 $-1 #
edge $237 -1 $-1 $238 0 $238 6.2831853071795862 $152 $239 forward @7 unknown #
attrib_hh_coedge_geombuild-attrib_entity_geombuild-individual_entity_attribute-attrib_HH-attrib $-1 -1 $-1 $-1 $101 F #
coedge $240 -1 $-1 $155 $155 $101 $156 reversed $145 $-1 #
edge $241 -1 $-1 $242 -3.1415926535897931 $242 3.1415926535897931 $101 $243 forward @7 unknown #
attrib_hh_coedge_geombuild-attrib_entity_geombuild-individual_entity_attribute-attrib_HH-attrib $-1 -1 $-1 $-1 $103 F #
loop $-1 -1 $-1 $-1 $103 $144 #
attrib_edge_convexity-kcp-attrib $-1 -1 $244 $-1 $104 1 #
vertex $245 -1 $-1 $104 $246 #
ellipse-curve $-1 -1 $-1 0 0 -0.42699999999999999 0 0 1 1.9950000000000001 0 0 1 I I #
attrib_hh_coedge_geombuild-attrib_entity_geombuild-individual_entity_attribute-attrib_HH-attrib $-1 -1 $-1 $-1 $106 F #
loop $247 -1 $-1 $248 $106 $249 #
attrib_edge_convexity-kcp-attrib $-1 -1 $250 $-1 $107 1 #
vertex $251 -1 $-1 $107 $252 #
ellipse-curve $-1 -1 $-1 0 0 0 0 0 1 0.9375 0 0 1 I I #
convexity-sys-attrib $-1 -1 $253 $110 $74 #
attrib_hh_vertex_geombuild-attrib_entity_geombuild-individual_entity_attribute-attrib_HH-attrib $-1 -1 $-1 $-1 $111 F #
point $-1 -1 $-1 1 0 0 #
face $-1 -1 $-1 $254 $255 $25 $-1 $256 reversed single #
loop $-1 -1 $-1 $-1 $257 $113 #
plane-surface $-1 -1 $-1 -1.9950000000000001 0 0 1 0 0 0 0 -1 forward_v I I I I #
coedge $-1 -1 $-1 $258 $181 $259 $260 forward $114 $-1 #
coedge $-1 -1 $-1 $261 $116 $258 $262 forward $77 $-1 #
coedge $-1 -1 $-1 $116 $261 $263 $264 forward $77 $-1 #
coedge $-1 -1 $-1 $184 $183 $116 $177 reversed $185 $-1 #
edge $-1 -1 $-1 $265 -1.9950000000000001 $266 1.9950000000000001 $176 $267 forward @7 unknown #
coedge $-1 -1 $-1 $118 $117 $268 $269 forward $51 $-1 #
coedge $-1 -1 $-1 $270 $271 $117 $180 reversed $255 $-1 #
edge $-1 -1 $-1 $187 -1.9950000000000001 $272 1.9950000000000001 $179 $273 forward @7 unknown #
coedge $-1 -1 $-1 $173 $274 $118 $182 reversed $114 $-1 #
edge $-1 -1 $-1 $275 -1.9950000000000001 $186 1.9950000000000001 $181 $276 forward @7 unknown #
coedge $-1 -1 $-1 $176 $119 $274 $277 forward $185 $-1 #
coedge $-1 -1 $-1 $119 $176 $270 $278 reversed $185 $-1 #
loop $-1 -1 $-1 $-1 $183 $254 #
vertex $-1 -1 $-1 $120 $279 #
vertex $-1 -1 $-1 $120 $280 #
straight-curve $-1 -1 $-1 1.9950000000000001 0 0.28100000000000053 0 1 0 I I #
coedge $-1 -1 $-1 $189 $189 $124 $190 forward $121 $-1 #
edge $-1 -1 $-1 $281 0 $281 6.2831853071795862 $189 $282 forward @7 unknown #
vertex $-1 -1 $-1 $125 $283 #
ellipse-curve $-1 -1 $-1 0 0 -0.27100000000000002 0 0 -1 0.9375 0 0 1 I I #
face $-1 -1 $-1 $284 $285 $29 $-1 $286 reversed single #
loop $-1 -1 $-1 $-1 $287 $126 #
coedge $-1 -1 $-1 $288 $289 $290 $291 reversed $127 $-1 #
coedge $-1 -1 $-1 $292 $128 $293 $294 reversed $86 $-1 #
coedge $-1 -1 $-1 $128 $292 $87 $132 forward $86 $-1 #
coedge $-1 -1 $-1 $295 $296 $128 $199 forward $297 $-1 #
edge $-1 -1 $-1 $298 -3.1415926535897931 $210 -1.5707963267948966 $198 $299 forward @7 unknown #
coedge $-1 -1 $-1 $130 $129 $289 $300 forward $57 $-1 #
coedge $-1 -1 $-1 $301 $302 $129 $202 forward $303 $-1 #
edge $-1 -1 $-1 $304 0 $209 1.5707963267948966 $201 $305 forward @7 unknown #
coedge $-1 -1 $-1 $306 $307 $130 $204 forward $308 $-1 #
edge $-1 -1 $-1 $210 -1.5707963267948966 $309 0 $203 $299 forward @7 unknown #
coedge $-1 -1 $-1 $310 $131 $307 $311 reversed $208 $-1 #
coedge $-1 -1 $-1 $131 $310 $301 $312 reversed $208 $-1 #
coedge $-1 -1 $-1 $313 $314 $197 $132 reversed $315 $-1 #
loop $-1 -1 $-1 $-1 $131 $316 #
vertex $-1 -1 $-1 $312 $317 #
vertex $-1 -1 $-1 $318 $319 #
straight-curve $-1 -1 $-1 -7.479557850087911e-033 1.9950000000000001 0.28100000000000053 0 0 1 I I #
loop $-1 -1 $-1 $320 $321 $133 #
plane-surface $-1 -1 $-1 -0.15116178479283651 -2.0806013246263556e-017 -0.14599999999999905 0 0 1 1 0 0 forward_v I I I I #
loop $-1 -1 $-1 $-1 $139 $88 #
coedge $-1 -1 $-1 $215 $215 $137 $217 reversed $134 $-1 #
coedge $-1 -1 $-1 $216 $216 $321 $322 reversed $136 $-1 #
edge $-1 -1 $-1 $323 -3.1415926535897931 $323 3.1415926535897931 $137 $324 forward @7 unknown #
coedge $-1 -1 $-1 $218 $218 $138 $219 forward $320 $-1 #
edge $325 -1 $-1 $326 0 $326 6.2831853071795862 $138 $327 forward @7 unknown #
vertex $-1 -1 $-1 $140 $328 #
ellipse-curve $-1 -1 $-1 0 0 0.28100000000000097 0 0 1 -1 0 0 1 I I #
aggregate_stitch_attribute-aggregate_stitch_base_attribute-aggregate_body_attribute-attrib_HH-attrib $-1 -1 $329 $141 $0 F #
attrib_hh_face_geombuild-attrib_entity_geombuild-individual_entity_attribute-attrib_HH-attrib $-1 -1 $-1 $143 $96 F #
model_id-kcp-attrib $-1 -1 $330 $-1 $144 1 1021401067 1021401067 -163184639 7 #
face $331 -1 $-1 $332 $333 $10 $-1 $334 reversed single #
loop $-1 -1 $-1 $158 $335 $144 #
cone-surface $-1 -1 $-1 0 0 -0.59009999999999996 0 0 1 -1.9950000000000001 0 0 1 I I 0 1 1.9950000000000001 forward I I I I #
coedge $336 -1 $-1 $228 $228 $337 $338 forward $148 $-1 #
attrib_hh_coedge_geombuild-attrib_entity_geombuild-individual_entity_attribute-attrib_HH-attrib $-1 -1 $-1 $-1 $149 F #
coedge $339 -1 $-1 $230 $230 $149 $231 reversed $248 $-1 #
edge $340 -1 $-1 $341 0 $341 6.2831853071795862 $230 $342 forward @7 unknown #
attrib_hh_coedge_geombuild-attrib_entity_geombuild-individual_entity_attribute-attrib_HH-attrib $-1 -1 $-1 $-1 $150 F #
coedge $343 -1 $-1 $233 $233 $150 $234 reversed $344 $-1 #
edge $345 -1 $-1 $346 -3.1415926535897931 $346 3.1415926535897931 $150 $347 forward @7 unknown #
attrib_hh_coedge_geombuild-attrib_entity_geombuild-individual_entity_attribute-attrib_HH-attrib $-1 -1 $-1 $-1 $152 F #
loop $-1 -1 $-1 $-1 $152 $348 #
attrib_hh_edge_geombuild-attrib_entity_geombuild-individual_entity_attribute-attrib_HH-attrib $-1 -1 $-1 $-1 $153 F #
vertex $349 -1 $-1 $153 $350 #
ellipse-curve $-1 -1 $-1 0 0 -0.56200000000000105 0 0 1 1.927 0 0 1 I I #
attrib_hh_coedge_geombuild-attrib_entity_geombuild-individual_entity_attribute-attrib_HH-attrib $-1 -1 $-1 $-1 $155 F #
attrib_edge_convexity-kcp-attrib $-1 -1 $351 $-1 $156 2 #
vertex $352 -1 $-1 $156 $353 #
ellipse-curve $-1 -1 $-1 0 0 -0.42699999999999999 0 0 -1 1 0 0 1 I I #
convexity-sys-attrib $-1 -1 $354 $159 $104 #
attrib_hh_vertex_geombuild-attrib_entity_geombuild-individual_entity_attribute-attrib_HH-attrib $-1 -1 $-1 $-1 $160 F #
point $-1 -1 $-1 1.9950000000000001 0 -0.42699999999999999 #
model_id-kcp-attrib $-1 -1 $-1 $-1 $163 1 1021401067 1021401067 -163184639 13 #
loop $355 -1 $-1 $-1 $230 $249 #
face $356 -1 $-1 $-1 $163 $10 $-1 $357 reversed single #
convexity-sys-attrib $-1 -1 $358 $164 $107 #
model_id-kcp-attrib $-1 -1 $359 $-1 $165 1 1021401067 1021401067 -163184639 17 #
point $-1 -1 $-1 0.9375 0 0 #
attrib_hh_edge_geombuild-attrib_entity_geombuild-individual_entity_attribute-attrib_HH-attrib $-1 -1 $-1 $167 $74 F #
face $-1 -1 $-1 $-1 $185 $25 $-1 $360 reversed single #
loop $-1 -1 $-1 $-1 $270 $170 #
plane-surface $-1 -1 $-1 0 1.9950000000000001 0 0 -1 0 0 0 -1 forward_v I I I I #
coedge $-1 -1 $-1 $361 $268 $271 $362 forward $171 $-1 #
coedge $-1 -1 $-1 $274 $173 $174 $262 reversed $114 $-1 #
coedge $-1 -1 $-1 $268 $361 $173 $260 reversed $171 $-1 #
edge $-1 -1 $-1 $275 -0.28100000000000053 $363 0.28100000000000053 $259 $364 forward @7 unknown #
coedge $-1 -1 $-1 $175 $174 $361 $365 forward $77 $-1 #
edge $-1 -1 $-1 $266 -1.9950000000000001 $363 1.9950000000000001 $258 $366 forward @7 unknown #
coedge $-1 -1 $-1 $271 $270 $175 $264 reversed $255 $-1 #
edge $-1 -1 $-1 $367 -1.9950000000000001 $265 1.9950000000000001 $263 $368 forward @7 unknown #
vertex $-1 -1 $-1 $177 $369 #
vertex $-1 -1 $-1 $277 $370 #
straight-curve $-1 -1 $-1 1.9950000000000001 0 -0.28100000000000053 0 -1 0 I I #
coedge $-1 -1 $-1 $257 $259 $178 $269 reversed $171 $-1 #
edge $-1 -1 $-1 $272 -1.9950000000000001 $275 1.9950000000000001 $268 $371 forward @7 unknown #
coedge $-1 -1 $-1 $263 $179 $184 $278 forward $255 $-1 #
coedge $-1 -1 $-1 $179 $263 $257 $362 reversed $255 $-1 #
vertex $-1 -1 $-1 $180 $372 #
straight-curve $-1 -1 $-1 0 1.9950000000000001 0.28100000000000053 -1 0 0 I I #
coedge $-1 -1 $-1 $181 $258 $183 $277 reversed $114 $-1 #
vertex $-1 -1 $-1 $269 $373 #
straight-curve $-1 -1 $-1 0 -1.9950000000000001 0.28100000000000053 1 0 0 I I #
edge $-1 -1 $-1 $186 -0.28100000000000053 $266 0.28100000000000053 $183 $374 forward @7 unknown #
edge $-1 -1 $-1 $187 -0.28100000000000053 $265 0.28100000000000053 $184 $375 forward @7 unknown #
point $-1 -1 $-1 1.9950000000000001 -1.9950000000000001 0.28100000000000053 #
point $-1 -1 $-1 1.9950000000000001 1.9950000000000001 0.28100000000000053 #
vertex $-1 -1 $-1 $190 $376 #
ellipse-curve $-1 -1 $-1 0 0 0.27100000000000002 0 0 1 0.9375 0 0 1 I I #
point $-1 -1 $-1 0.9375 0 -0.27100000000000002 #
face $-1 -1 $-1 $377 $315 $29 $-1 $378 reversed single #
loop $-1 -1 $-1 $-1 $379 $193 #
plane-surface $-1 -1 $-1 1.9950000000000001 0 0 -1 0 0 0 0 1 forward_v I I I I #
coedge $-1 -1 $-1 $380 $381 $382 $383 reversed $194 $-1 #
coedge $-1 -1 $-1 $384 $195 $381 $385 forward $127 $-1 #
coedge $-1 -1 $-1 $195 $384 $386 $300 reversed $127 $-1 #
coedge $-1 -1 $-1 $387 $388 $195 $291 forward $389 $-1 #
edge $-1 -1 $-1 $390 -1.5707963267948966 $304 0 $290 $305 forward @7 unknown #
coedge $-1 -1 $-1 $197 $196 $391 $392 reversed $86 $-1 #
coedge $-1 -1 $-1 $393 $394 $395 $294 forward $396 $-1 #
edge $-1 -1 $-1 $397 -0.56200000000000105 $298 0 $293 $398 forward @7 unknown #
coedge $-1 -1 $-1 $296 $198 $314 $318 forward $297 $-1 #
coedge $-1 -1 $-1 $198 $295 $393 $399 forward $297 $-1 #
loop $-1 -1 $-1 $-1 $198 $400 #
vertex $-1 -1 $-1 $401 $402 #
ellipse-curve $-1 -1 $-1 -7.479557850087911e-033 0 0.28100000000000053 0 0 -1 1.9950000000000001 0 0 1 I I #
edge $-1 -1 $-1 $304 -0.56200000000000105 $309 0 $386 $403 forward @7 unknown #
coedge $-1 -1 $-1 $302 $201 $206 $312 forward $303 $-1 #
coedge $-1 -1 $-1 $201 $301 $404 $405 forward $303 $-1 #
loop $-1 -1 $-1 $-1 $201 $406 #
vertex $-1 -1 $-1 $407 $408 #
ellipse-curve $-1 -1 $-1 -7.479557850087911e-033 0 -0.28100000000000053 0 0 1 1.9950000000000001 0 0 1 I I #
coedge $-1 -1 $-1 $307 $203 $409 $410 forward $308 $-1 #
coedge $-1 -1 $-1 $203 $306 $205 $311 forward $308 $-1 #
loop $-1 -1 $-1 $-1 $203 $411 #
vertex $-1 -1 $-1 $410 $412 #
coedge $-1 -1 $-1 $206 $205 $413 $414 forward $208 $-1 #
edge $-1 -1 $-1 $415 -1.9950000000000001 $210 7.479557850087911e-033 $205 $416 forward @7 unknown #
edge $-1 -1 $-1 $209 -7.479557850087911e-033 $417 1.9950000000000001 $206 $418 forward @7 unknown #
coedge $-1 -1 $-1 $419 $207 $420 $421 reversed $315 $-1 #
coedge $-1 -1 $-1 $207 $419 $295 $318 reversed $315 $-1 #
loop $-1 -1 $-1 $-1 $207 $284 #
face $-1 -1 $-1 $422 $208 $29 $-1 $378 reversed single #
point $-1 -1 $-1 -7.479557850087911e-033 1.9950000000000001 -0.28100000000000053 #
edge $-1 -1 $-1 $210 7.479557850087911e-033 $423 1.9950000000000001 $314 $416 forward @7 unknown #
point $-1 -1 $-1 -7.479557850087911e-033 1.9950000000000001 0.28100000000000053 #
loop $-1 -1 $-1 $-1 $218 $133 #
coedge $-1 -1 $-1 $321 $321 $216 $322 forward $212 $-1 #
edge $424 -1 $-1 $425 -3.1415926535897931 $425 3.1415926535897931 $216 $426 forward @7 unknown #
vertex $-1 -1 $-1 $217 $427 #
ellipse-curve $-1 -1 $-1 -7.479557850087911e-033 0 0.28100000000000097 0 0 -1 1.9950000000000001 0 0 1 I I #
convexity-sys-attrib $-1 -1 $-1 $-1 $219 #
vertex $-1 -1 $-1 $219 $428 #
ellipse-curve $-1 -1 $-1 0 0 -0.14599999999999902 0 0 1 -1 0 0 1 I I #
point $-1 -1 $-1 -1 0 0.28100000000000053 #
aggregate_simgeom_attribute-aggregate_simgeom_base_attribute-aggregate_body_attribute-attrib_HH-attrib $-1 -1 $-1 $222 $0 F #
attrib_hh_face_geombuild-attrib_entity_geombuild-individual_entity_attribute-attrib_HH-attrib $-1 -1 $-1 $224 $144 F #
model_id-kcp-attrib $-1 -1 $429 $-1 $225 1 1021401067 1021401067 -163184639 8 #
face $430 -1 $-1 $348 $344 $10 $-1 $431 forward single #
loop $-1 -1 $-1 $432 $433 $225 #
torus-surface $-1 -1 $-1 0 0 -0.52700000000000002 0 0 1 1.9950000000000001 0.025000000000000001 1 0 0 forward_v I I I I #
coedge $434 -1 $-1 $335 $335 $435 $436 forward $226 $-1 #
attrib_hh_coedge_geombuild-attrib_entity_geombuild-individual_entity_attribute-attrib_HH-attrib $-1 -1 $-1 $-1 $228 F #
coedge $437 -1 $-1 $337 $337 $228 $338 reversed $438 $-1 #
edge $439 -1 $-1 $440 -3.1415926535897931 $440 3.1415926535897931 $228 $441 forward @7 unknown #
attrib_hh_coedge_geombuild-attrib_entity_geombuild-individual_entity_attribute-attrib_HH-attrib $-1 -1 $-1 $-1 $230 F #
attrib_edge_convexity-kcp-attrib $-1 -1 $442 $-1 $231 1 #
vertex $443 -1 $-1 $231 $444 #
ellipse-curve $-1 -1 $-1 0 0 -0.54200000000000004 0 0 1 0.9375 0 0 1 I I #
attrib_hh_coedge_geombuild-attrib_entity_geombuild-individual_entity_attribute-attrib_HH-attrib $-1 -1 $-1 $-1 $233 F #
loop $-1 -1 $-1 $445 $233 $332 #
attrib_hh_edge_geombuild-attrib_entity_geombuild-individual_entity_attribute-attrib_HH-attrib $-1 -1 $-1 $-1 $234 F #
vertex $446 -1 $-1 $234 $447 #
ellipse-curve $-1 -1 $-1 0 0 -0.56200000000000006 0 0 -1 1.9950000000000001 0 0 1 I I #
face $448 -1 $-1 $249 $438 $10 $-1 $449 reversed single #
attrib_hh_vertex_geombuild-attrib_entity_geombuild-individual_entity_attribute-attrib_HH-attrib $-1 -1 $-1 $-1 $238 F #
point $-1 -1 $-1 1.927 0 -0.56200000000000105 #
convexity-sys-attrib $-1 -1 $450 $241 $156 #
attrib_hh_vertex_geombuild-attrib_entity_geombuild-individual_entity_attribute-attrib_HH-attrib $-1 -1 $-1 $-1 $242 F #
point $-1 -1 $-1 -1 0 -0.42699999999999999 #
attrib_hh_edge_geombuild-attrib_entity_geombuild-individual_entity_attribute-attrib_HH-attrib $-1 -1 $-1 $244 $104 F #
model_id-kcp-attrib $-1 -1 $-1 $-1 $248 1 1021401067 1021401067 -163184639 14 #
model_id-kcp-attrib $-1 -1 $451 $-1 $249 1 1021401067 1021401067 -163184639 11 #
cone-surface $-1 -1 $-1 0 0 -0.59009999999999996 0 0 1 -0.9375 0 0 1 I I 0 1 0.9375 forward I I I I #
attrib_hh_edge_geombuild-attrib_entity_geombuild-individual_entity_attribute-attrib_HH-attrib $-1 -1 $-1 $250 $107 F #
attrib_hh_vertex_geombuild-attrib_entity_geombuild-individual_entity_attribute-attrib_HH-attrib $-1 -1 $-1 $251 $165 F #
plane-surface $-1 -1 $-1 1.9950000000000001 0 0 -1 0 0 0 0 1 forward_v I I I I #
coedge $-1 -1 $-1 $259 $257 $261 $365 reversed $171 $-1 #
edge $-1 -1 $-1 $272 -0.28100000000000053 $367 0.28100000000000053 $271 $452 forward @7 unknown #
vertex $-1 -1 $-1 $365 $453 #
straight-curve $-1 -1 $-1 -1.9950000000000001 -1.9950000000000001 0 0 0 -1 I I #
edge $-1 -1 $-1 $363 -1.9950000000000001 $367 1.9950000000000001 $361 $454 forward @7 unknown #
straight-curve $-1 -1 $-1 0 -1.9950000000000001 -0.28100000000000053 -1 0 0 I I #
vertex $-1 -1 $-1 $264 $455 #
straight-curve $-1 -1 $-1 0 1.9950000000000001 -0.28100000000000053 1 0 0 I I #
point $-1 -1 $-1 1.9950000000000001 1.9950000000000001 -0.28100000000000053 #
point $-1 -1 $-1 1.9950000000000001 -1.9950000000000001 -0.28100000000000053 #
straight-curve $-1 -1 $-1 -1.9950000000000001 0 0.28100000000000053 0 -1 0 I I #
point $-1 -1 $-1 -1.9950000000000001 1.9950000000000001 0.28100000000000053 #
point $-1 -1 $-1 -1.9950000000000001 -1.9950000000000001 0.28100000000000053 #
straight-curve $-1 -1 $-1 1.9950000000000001 -1.9950000000000001 0 0 0 -1 I I #
straight-curve $-1 -1 $-1 1.9950000000000001 1.9950000000000001 0 0 0 -1 I I #
point $-1 -1 $-1 0.9375 0 0.27100000000000002 #
face $-1 -1 $-1 $456 $457 $29 $-1 $458 reversed single #
plane-surface $-1 -1 $-1 0 1.9950000000000001 0 0 -1 0 0 0 -1 forward_v I I I I #
coedge $-1 -1 $-1 $404 $409 $200 $300 reversed $285 $-1 #
coedge $-1 -1 $-1 $459 $287 $196 $294 forward $194 $-1 #
coedge $-1 -1 $-1 $287 $459 $460 $385 reversed $194 $-1 #
coedge $-1 -1 $-1 $461 $462 $287 $383 forward $463 $-1 #
edge $-1 -1 $-1 $397 -3.1415926535897931 $390 -1.5707963267948966 $382 $305 forward @7 unknown #
coedge $-1 -1 $-1 $289 $288 $464 $465 reversed $127 $-1 #
edge $-1 -1 $-1 $390 -0.56200000000000105 $466 0 $460 $467 forward @7 unknown #
coedge $-1 -1 $-1 $468 $469 $379 $300 forward $470 $-1 #
coedge $-1 -1 $-1 $388 $290 $469 $407 forward $389 $-1 #
coedge $-1 -1 $-1 $290 $387 $471 $472 forward $389 $-1 #
loop $-1 -1 $-1 $-1 $290 $473 #
vertex $-1 -1 $-1 $474 $475 #
coedge $-1 -1 $-1 $476 $420 $292 $392 forward $477 $-1 #
edge $-1 -1 $-1 $209 1.5707963267948966 $397 3.1415926535897931 $391 $305 forward @7 unknown #
coedge $-1 -1 $-1 $478 $293 $296 $399 reversed $396 $-1 #
coedge $-1 -1 $-1 $293 $478 $476 $479 reversed $396 $-1 #
coedge $-1 -1 $-1 $480 $481 $380 $294 reversed $457 $-1 #
loop $-1 -1 $-1 $-1 $293 $482 #
vertex $-1 -1 $-1 $479 $483 #
straight-curve $-1 -1 $-1 -1.9950000000000001 0 0.28100000000000053 0 0 1 I I #
edge $-1 -1 $-1 $423 -1.9950000000000001 $298 0 $393 $484 forward @7 unknown #
face $-1 -1 $-1 $411 $297 $29 $-1 $485 forward single #
edge $-1 -1 $-1 $298 0 $486 1.9950000000000001 $481 $484 forward @7 unknown #
point $-1 -1 $-1 -1.9950000000000001 0 0.28100000000000053 #
straight-curve $-1 -1 $-1 1.9950000000000001 0 0.28100000000000053 0 0 1 I I #
coedge $-1 -1 $-1 $413 $379 $302 $405 reversed $285 $-1 #
edge $-1 -1 $-1 $417 -1.9950000000000001 $304 0 $404 $487 forward @7 unknown #
face $-1 -1 $-1 $488 $303 $29 $-1 $489 reversed single #
edge $-1 -1 $-1 $304 0 $490 1.9950000000000001 $469 $487 forward @7 unknown #
point $-1 -1 $-1 1.9950000000000001 0 -0.28100000000000053 #
coedge $-1 -1 $-1 $379 $413 $306 $410 reversed $285 $-1 #
edge $-1 -1 $-1 $309 0 $415 1.9950000000000001 $409 $491 forward @7 unknown #
face $-1 -1 $-1 $492 $308 $29 $-1 $485 forward single #
point $-1 -1 $-1 1.9950000000000001 0 0.28100000000000053 #
coedge $-1 -1 $-1 $409 $404 $310 $414 reversed $285 $-1 #
edge $-1 -1 $-1 $415 -0.28100000000000053 $417 0.28100000000000053 $413 $493 forward @7 unknown #
vertex $-1 -1 $-1 $410 $494 #
straight-curve $-1 -1 $-1 0 1.9950000000000001 0.28100000000000053 -1 0 0 I I #
vertex $-1 -1 $-1 $405 $495 #
straight-curve $-1 -1 $-1 0 1.9950000000000001 -0.28100000000000053 1 0 0 I I #
coedge $-1 -1 $-1 $314 $313 $478 $496 reversed $315 $-1 #
coedge $-1 -1 $-1 $391 $476 $313 $421 forward $477 $-1 #
edge $-1 -1 $-1 $497 -1.9950000000000001 $209 -7.479557850087911e-033 $313 $418 forward @7 unknown #
face $-1 -1 $-1 $-1 $470 $29 $-1 $286 reversed single #
vertex $-1 -1 $-1 $318 $498 #
convexity-sys-attrib $-1 -1 $-1 $-1 $322 #
vertex $-1 -1 $-1 $322 $499 #
ellipse-curve $-1 -1 $-1 -7.479557850087911e-033 0 -0.14599999999999902 0 0 -1 1.9950000000000001 0 0 1 I I #
point $-1 -1 $-1 -1.9950000000000001 2.4430896758756426e-016 0.28100000000000097 #
point $-1 -1 $-1 -1 0 -0.14599999999999946 #
attrib_hh_face_geombuild-attrib_entity_geombuild-individual_entity_attribute-attrib_HH-attrib $-1 -1 $-1 $331 $225 F #
model_id-kcp-attrib $-1 -1 $500 $-1 $332 1 1021401067 1021401067 -163184639 9 #
cone-surface $-1 -1 $-1 0 0 -0.59009999999999996 0 0 1 -1.9950000000000001 0 0 1 I I 0 1 1.9950000000000001 forward I I I I #
loop $-1 -1 $-1 $-1 $435 $225 #
coedge $501 -1 $-1 $433 $433 $502 $503 forward $333 $-1 #
attrib_hh_coedge_geombuild-attrib_entity_geombuild-individual_entity_attribute-attrib_HH-attrib $-1 -1 $-1 $-1 $335 F #
coedge $504 -1 $-1 $435 $435 $335 $436 reversed $432 $-1 #
edge $505 -1 $-1 $506 -3.1415926535897931 $506 3.1415926535897931 $435 $507 forward @7 unknown #
attrib_hh_coedge_geombuild-attrib_entity_geombuild-individual_entity_attribute-attrib_HH-attrib $-1 -1 $-1 $-1 $337 F #
loop $-1 -1 $-1 $236 $337 $348 #
attrib_edge_convexity-kcp-attrib $-1 -1 $508 $-1 $338 2 #
vertex $509 -1 $-1 $338 $510 #
ellipse-curve $-1 -1 $-1 0 0 -0.54199999999999904 0 0 -1 1.8923589838486199 0 0 1 I I #
convexity-sys-attrib $-1 -1 $511 $340 $231 #
model_id-kcp-attrib $-1 -1 $512 $-1 $341 1 1021401067 1021401067 -163184639 18 #
point $-1 -1 $-1 0.9375 0 -0.54200000000000004 #
loop $-1 -1 $-1 $-1 $502 $332 #
attrib_hh_vertex_geombuild-attrib_entity_geombuild-individual_entity_attribute-attrib_HH-attrib $-1 -1 $-1 $-1 $346 F #
point $-1 -1 $-1 -1.9950000000000001 0 -0.56200000000000006 #
model_id-kcp-attrib $-1 -1 $513 $-1 $348 1 1021401067 1021401067 -163184639 10 #
cone-surface $-1 -1 $-1 0 0 -0.56200000000000105 0 0 -1 1.927 0 0 1 I I 0.86602540378443904 0.499999999999999 1.927 forward I I I I #
attrib_hh_edge_geombuild-attrib_entity_geombuild-individual_entity_attribute-attrib_HH-attrib $-1 -1 $-1 $351 $156 F #
attrib_hh_face_geombuild-attrib_entity_geombuild-individual_entity_attribute-attrib_HH-attrib $-1 -1 $-1 $356 $249 F #
straight-curve $-1 -1 $-1 -1.9950000000000001 1.9950000000000001 0 0 0 -1 I I #
point $-1 -1 $-1 -1.9950000000000001 -1.9950000000000001 -0.28100000000000053 #
straight-curve $-1 -1 $-1 -1.9950000000000001 0 -0.28100000000000053 0 1 0 I I #
point $-1 -1 $-1 -1.9950000000000001 1.9950000000000001 -0.28100000000000053 #
face $-1 -1 $-1 $400 $514 $29 $-1 $485 forward single #
loop $-1 -1 $-1 $-1 $395 $377 #
plane-surface $-1 -1 $-1 -1.9950000000000001 0 0 1 0 0 0 0 -1 forward_v I I I I #
coedge $-1 -1 $-1 $381 $380 $515 $516 reversed $194 $-1 #
coedge $-1 -1 $-1 $517 $518 $519 $385 forward $520 $-1 #
coedge $-1 -1 $-1 $462 $382 $518 $474 forward $463 $-1 #
coedge $-1 -1 $-1 $382 $461 $480 $521 forward $463 $-1 #
loop $-1 -1 $-1 $-1 $382 $522 #
coedge $-1 -1 $-1 $523 $524 $384 $465 forward $525 $-1 #
edge $-1 -1 $-1 $309 0 $466 1.5707963267948966 $464 $299 forward @7 unknown #
vertex $-1 -1 $-1 $526 $527 #
straight-curve $-1 -1 $-1 -7.479557850087911e-033 -1.9950000000000001 0.28100000000000053 0 0 1 I I #
coedge $-1 -1 $-1 $528 $386 $524 $529 reversed $470 $-1 #
coedge $-1 -1 $-1 $386 $528 $387 $407 reversed $470 $-1 #
loop $-1 -1 $-1 $-1 $386 $422 #
coedge $-1 -1 $-1 $530 $519 $388 $472 reversed $531 $-1 #
edge $-1 -1 $-1 $490 -1.9950000000000001 $390 7.479557850087911e-033 $471 $532 forward @7 unknown #
face $-1 -1 $-1 $406 $389 $29 $-1 $489 reversed single #
edge $-1 -1 $-1 $390 7.479557850087911e-033 $533 1.9950000000000001 $518 $532 forward @7 unknown #
point $-1 -1 $-1 -7.479557850087911e-033 -1.9950000000000001 -0.28100000000000053 #
coedge $-1 -1 $-1 $420 $391 $394 $479 forward $477 $-1 #
loop $-1 -1 $-1 $-1 $391 $488 #
coedge $-1 -1 $-1 $394 $393 $419 $496 forward $396 $-1 #
edge $-1 -1 $-1 $397 0 $497 1.9950000000000001 $394 $534 forward @7 unknown #
coedge $-1 -1 $-1 $535 $395 $462 $521 reversed $457 $-1 #
coedge $-1 -1 $-1 $395 $535 $536 $401 reversed $457 $-1 #
face $-1 -1 $-1 $316 $396 $29 $-1 $458 reversed single #
point $-1 -1 $-1 -1.9950000000000001 0 -0.28100000000000053 #
straight-curve $-1 -1 $-1 -1.9950000000000001 0 0.28100000000000053 0 -1 0 I I #
plane-surface $-1 -1 $-1 0 0 0.28100000000000053 0 0 1 1 0 0 forward_v I I I I #
vertex $-1 -1 $-1 $401 $537 #
straight-curve $-1 -1 $-1 1.9950000000000001 0 -0.28100000000000053 0 -1 0 I I #
face $-1 -1 $-1 $538 $477 $29 $-1 $489 reversed single #
plane-surface $-1 -1 $-1 0 0 -0.28100000000000053 0 0 1 1 0 0 forward_v I I I I #
vertex $-1 -1 $-1 $539 $540 #
straight-curve $-1 -1 $-1 1.9950000000000001 0 0.28100000000000053 0 1 0 I I #
face $-1 -1 $-1 $541 $525 $29 $-1 $485 forward single #
straight-curve $-1 -1 $-1 1.9950000000000001 1.9950000000000001 0 0 0 -1 I I #
point $-1 -1 $-1 1.9950000000000001 1.9950000000000001 0.28100000000000053 #
point $-1 -1 $-1 1.9950000000000001 1.9950000000000001 -0.28100000000000053 #
edge $-1 -1 $-1 $423 -0.28100000000000053 $497 0.28100000000000053 $419 $542 forward @7 unknown #
vertex $-1 -1 $-1 $421 $543 #
point $-1 -1 $-1 -1.9950000000000001 1.9950000000000001 0.28100000000000053 #
point $-1 -1 $-1 -1.9950000000000001 2.4430896758756426e-016 -0.14599999999999902 #
attrib_hh_face_geombuild-attrib_entity_geombuild-individual_entity_attribute-attrib_HH-attrib $-1 -1 $-1 $430 $332 F #
attrib_hh_coedge_geombuild-attrib_entity_geombuild-individual_entity_attribute-attrib_HH-attrib $-1 -1 $-1 $-1 $433 F #
coedge $544 -1 $-1 $502 $502 $433 $503 reversed $445 $-1 #
edge $545 -1 $-1 $546 -3.1415926535897931 $546 3.1415926535897931 $502 $547 forward @7 unknown #
attrib_hh_coedge_geombuild-attrib_entity_geombuild-individual_entity_attribute-attrib_HH-attrib $-1 -1 $-1 $-1 $435 F #
attrib_hh_edge_geombuild-attrib_entity_geombuild-individual_entity_attribute-attrib_HH-attrib $-1 -1 $-1 $-1 $436 F #
vertex $548 -1 $-1 $436 $549 #
ellipse-curve $-1 -1 $-1 0 0 -0.502 0 0 1 1.9950000000000001 0 0 1 I I #
convexity-sys-attrib $-1 -1 $550 $439 $338 #
attrib_hh_vertex_geombuild-attrib_entity_geombuild-individual_entity_attribute-attrib_HH-attrib $-1 -1 $-1 $-1 $440 F #
point $-1 -1 $-1 -1.8923589838486199 0 -0.54199999999999904 #
attrib_hh_edge_geombuild-attrib_entity_geombuild-individual_entity_attribute-attrib_HH-attrib $-1 -1 $-1 $442 $231 F #
attrib_hh_vertex_geombuild-attrib_entity_geombuild-individual_entity_attribute-attrib_HH-attrib $-1 -1 $-1 $443 $341 F #
attrib_hh_face_geombuild-attrib_entity_geombuild-individual_entity_attribute-attrib_HH-attrib $-1 -1 $-1 $448 $348 F #
loop $-1 -1 $-1 $-1 $515 $456 #
coedge $-1 -1 $-1 $536 $551 $459 $516 forward $514 $-1 #
edge $-1 -1 $-1 $466 1.5707963267948966 $298 3.1415926535897931 $515 $299 forward @7 unknown #
coedge $-1 -1 $-1 $552 $460 $551 $553 reversed $520 $-1 #
coedge $-1 -1 $-1 $460 $552 $461 $474 reversed $520 $-1 #
coedge $-1 -1 $-1 $471 $554 $288 $385 reversed $531 $-1 #
loop $-1 -1 $-1 $-1 $460 $538 #
edge $-1 -1 $-1 $533 -1.9950000000000001 $397 0 $480 $534 forward @7 unknown #
face $-1 -1 $-1 $473 $463 $29 $-1 $489 reversed single #
coedge $-1 -1 $-1 $524 $464 $554 $526 forward $525 $-1 #
coedge $-1 -1 $-1 $464 $523 $468 $529 forward $525 $-1 #
loop $-1 -1 $-1 $-1 $464 $492 #
edge $-1 -1 $-1 $466 -7.479557850087911e-033 $555 1.9950000000000001 $554 $556 forward @7 unknown #
point $-1 -1 $-1 -7.479557850087911e-033 -1.9950000000000001 0.28100000000000053 #
coedge $-1 -1 $-1 $469 $468 $530 $539 forward $470 $-1 #
edge $-1 -1 $-1 $555 -1.9950000000000001 $309 0 $468 $491 forward @7 unknown #
coedge $-1 -1 $-1 $554 $471 $528 $539 reversed $531 $-1 #
loop $-1 -1 $-1 $-1 $519 $541 #
straight-curve $-1 -1 $-1 0 -1.9950000000000001 -0.28100000000000053 -1 0 0 I I #
vertex $-1 -1 $-1 $521 $557 #
straight-curve $-1 -1 $-1 -1.9950000000000001 0 -0.28100000000000053 0 1 0 I I #
coedge $-1 -1 $-1 $481 $480 $552 $558 reversed $457 $-1 #
coedge $-1 -1 $-1 $551 $515 $481 $401 forward $514 $-1 #
point $-1 -1 $-1 -1.9950000000000001 -1.9950000000000001 0.28100000000000053 #
face $-1 -1 $-1 $482 $520 $29 $-1 $559 reversed single #
edge $-1 -1 $-1 $555 -0.28100000000000053 $490 0.28100000000000053 $528 $560 forward @7 unknown #
point $-1 -1 $-1 1.9950000000000001 -1.9950000000000001 -0.28100000000000053 #
face $-1 -1 $-1 $522 $531 $29 $-1 $559 reversed single #
straight-curve $-1 -1 $-1 -1.9950000000000001 1.9950000000000001 0 0 0 -1 I I #
point $-1 -1 $-1 -1.9950000000000001 1.9950000000000001 -0.28100000000000053 #
attrib_hh_coedge_geombuild-attrib_entity_geombuild-individual_entity_attribute-attrib_HH-attrib $-1 -1 $-1 $-1 $502 F #
attrib_hh_edge_geombuild-attrib_entity_geombuild-individual_entity_attribute-attrib_HH-attrib $-1 -1 $-1 $-1 $503 F #
vertex $561 -1 $-1 $503 $562 #
ellipse-curve $-1 -1 $-1 0 0 -0.55200000000000005 0 0 1 1.9950000000000001 0 0 1 I I #
attrib_hh_vertex_geombuild-attrib_entity_geombuild-individual_entity_attribute-attrib_HH-attrib $-1 -1 $-1 $-1 $506 F #
point $-1 -1 $-1 -1.9950000000000001 0 -0.502 #
attrib_hh_edge_geombuild-attrib_entity_geombuild-individual_entity_attribute-attrib_HH-attrib $-1 -1 $-1 $508 $338 F #
coedge $-1 -1 $-1 $515 $536 $517 $553 forward $514 $-1 #
coedge $-1 -1 $-1 $518 $517 $535 $558 forward $520 $-1 #
edge $-1 -1 $-1 $486 -1.9950000000000001 $466 -7.479557850087911e-033 $517 $556 forward @7 unknown #
coedge $-1 -1 $-1 $519 $530 $523 $526 reversed $531 $-1 #
vertex $-1 -1 $-1 $529 $563 #
straight-curve $-1 -1 $-1 0 -1.9950000000000001 0.28100000000000053 1 0 0 I I #
point $-1 -1 $-1 -1.9950000000000001 -1.9950000000000001 -0.28100000000000053 #
edge $-1 -1 $-1 $486 -0.28100000000000053 $533 0.28100000000000053 $535 $564 forward @7 unknown #
plane-surface $-1 -1 $-1 0 -1.9950000000000001 0 0 1 0 0 0 1 forward_v I I I I #
straight-curve $-1 -1 $-1 1.9950000000000001 -1.9950000000000001 0 0 0 -1 I I #
attrib_hh_vertex_geombuild-attrib_entity_geombuild-individual_entity_attribute-attrib_HH-attrib $-1 -1 $-1 $-1 $546 F #
point $-1 -1 $-1 -1.9950000000000001 0 -0.55200000000000005 #
point $-1 -1 $-1 1.9950000000000001 -1.9950000000000001 0.28100000000000053 #
straight-curve $-1 -1 $-1 -1.9950000000000001 -1.9950000000000001 0 0 0 -1 I I #
End-of-ACIS-data 