600 0 1 0           
124 GICL ACIS Healer - Source: /gicl/data5/repository/NIST/Manfred_Osti/spectrometer/linkage_arm_42/linkage_arm_42.prt.sat - 6 0 18 ACIS 6.0.3 Solaris 24 Sun Apr 14 00:37:46 2002 
1 9.999999999999999547e-07 1.000000000000000036e-10 
body $-1 $1 $-1 $-1 #
lump $-1 $-1 $2 $0 #
shell $-1 $-1 $-1 $3 $-1 $1 #
face $-1 $4 $5 $2 $-1 $6 reversed single #
face $-1 $7 $8 $2 $-1 $9 reversed single #
loop $-1 $10 $11 $3 #
plane-surface $-1 0 0 0 0 0 1 25.39999999999999858 0 0 forward_v I I I I #
face $-1 $12 $13 $2 $-1 $14 reversed single #
loop $-1 $-1 $15 $4 #
cone-surface $-1 -107.9499999999999886 0 0 0 0 1 11.11249999999999893 0 0 1 I I 0 1 11.11249999999999893 forward I I I I #
loop $-1 $16 $17 $3 #
coedge $-1 $18 $18 $19 $20 reversed $5 $-1 #
face $-1 $21 $22 $2 $-1 $23 forward single #
loop $-1 $-1 $24 $7 #
cone-surface $-1 -107.9499999999999886 0 0 0 0 1 11.11249999999999893 0 0 1 I I 0 1 11.11249999999999893 forward I I I I #
coedge $-1 $25 $19 $26 $27 forward $8 $-1 #
loop $-1 $28 $29 $3 #
coedge $-1 $30 $30 $31 $32 reversed $10 $-1 #
coedge $-1 $11 $11 $33 $34 reversed $5 $-1 #
coedge $-1 $15 $35 $11 $20 forward $8 $-1 #
edge $-1 $36 0 $37 3.141592653589793116 $11 $38 forward 7 unknown #
face $-1 $39 $40 $2 $-1 $41 reversed single #
loop $-1 $42 $43 $12 #
plane-surface $-1 0 0 12.69999999999999929 0 0 1 25.39999999999999858 0 0 forward_v I I I I #
coedge $-1 $44 $33 $35 $45 forward $13 $-1 #
coedge $-1 $35 $15 $43 $46 reversed $8 $-1 #
coedge $-1 $33 $44 $15 $27 reversed $13 $-1 #
edge $-1 $37 0 $47 0.5 $26 $48 forward 7 unknown #
loop $-1 $49 $50 $3 #
coedge $-1 $51 $51 $52 $53 reversed $16 $-1 #
coedge $-1 $17 $17 $54 $55 reversed $10 $-1 #
coedge $-1 $56 $57 $17 $32 forward $58 $-1 #
edge $-1 $59 0 $60 3.141592653589793116 $17 $61 forward 7 unknown #
coedge $-1 $24 $26 $18 $34 forward $13 $-1 #
edge $-1 $37 0 $36 3.141592653589793116 $18 $62 forward 7 unknown #
coedge $-1 $19 $25 $24 $45 reversed $8 $-1 #
vertex $-1 $34 $63 #
vertex $-1 $34 $64 #
ellipse-curve $-1 -107.9499999999999886 0 0 0 0 -1 -11.11249999999999893 0 0 1 I I #
face $-1 $65 $66 $2 $-1 $67 reversed single #
loop $-1 $-1 $68 $21 #
cone-surface $-1 67.56399999999999295 0 0 0 0 1 3.263900000000000023 0 0 1 I I 0 1 3.263900000000000023 forward I I I I #
loop $-1 $69 $70 $12 #
coedge $-1 $71 $71 $25 $46 forward $22 $-1 #
coedge $-1 $26 $24 $71 $72 reversed $13 $-1 #
edge $-1 $36 0 $73 0.5 $24 $74 forward 7 unknown #
edge $-1 $73 -7.665811426113395882e-32 $47 3.141592653589793116 $43 $75 forward 7 unknown #
vertex $-1 $72 $76 #
straight-curve $-1 -96.83749999999999147 0 0 0 -5.443375242740466282e-15 25.39999999999999858 I I #
loop $-1 $77 $78 $3 #
coedge $-1 $79 $79 $80 $81 reversed $28 $-1 #
coedge $-1 $29 $29 $82 $83 reversed $16 $-1 #
coedge $-1 $84 $85 $29 $53 forward $86 $-1 #
edge $-1 $87 0 $88 3.141592653589793116 $29 $89 forward 7 unknown #
coedge $-1 $90 $91 $30 $55 forward $92 $-1 #
edge $-1 $60 0 $59 3.141592653589793116 $30 $93 forward 7 unknown #
coedge $-1 $94 $31 $91 $95 forward $58 $-1 #
coedge $-1 $31 $94 $90 $96 reversed $58 $-1 #
loop $-1 $-1 $56 $97 #
vertex $-1 $55 $98 #
vertex $-1 $55 $99 #
ellipse-curve $-1 57.14999999999999858 0 0 0 0 -1 -1.587499999999999911 0 0 1 I I #
ellipse-curve $-1 -107.9499999999999886 0 0 0 0 -1 11.11249999999999893 0 0 1 I I #
point $-1 -119.0625 0 0 #
point $-1 -96.83749999999999147 0 0 #
face $-1 $100 $101 $2 $-1 $102 reversed single #
loop $-1 $-1 $103 $39 #
cone-surface $-1 67.56399999999999295 0 0 0 0 1 3.263900000000000023 0 0 1 I I 0 1 3.263900000000000023 forward I I I I #
coedge $-1 $104 $105 $106 $107 forward $40 $-1 #
loop $-1 $108 $109 $12 #
coedge $-1 $110 $110 $104 $111 forward $42 $-1 #
coedge $-1 $43 $43 $44 $72 forward $22 $-1 #
edge $-1 $47 -2.555270475371135245e-32 $73 3.14159265358979356 $71 $112 forward 7 unknown #
vertex $-1 $72 $113 #
straight-curve $-1 -119.0625 1.36084381068511657e-15 0 0 0 25.39999999999999858 I I #
ellipse-curve $-1 -107.9499999999999886 -7.049916206369743637e-16 12.69999999999999929 0 0 -1 -11.11249999999999893 7.049916206369743637e-16 0 1 I I #
point $-1 -96.83749999999999147 0 12.69999999999999929 #
loop $-1 $114 $115 $3 #
coedge $-1 $116 $117 $118 $119 reversed $49 $-1 #
coedge $-1 $50 $50 $120 $121 reversed $28 $-1 #
coedge $-1 $122 $123 $50 $81 forward $124 $-1 #
edge $-1 $125 0 $126 3.141592653589793116 $50 $127 forward 7 unknown #
coedge $-1 $128 $129 $51 $83 forward $130 $-1 #
edge $-1 $88 0 $87 3.141592653589793116 $51 $131 forward 7 unknown #
coedge $-1 $132 $52 $129 $133 forward $86 $-1 #
coedge $-1 $52 $132 $128 $134 reversed $86 $-1 #
loop $-1 $-1 $84 $135 #
vertex $-1 $83 $136 #
vertex $-1 $83 $137 #
ellipse-curve $-1 0 0 0 0 0 -1 -5.549900000000000055 0 0 1 I I #
coedge $-1 $138 $54 $57 $96 forward $92 $-1 #
coedge $-1 $54 $138 $56 $95 reversed $92 $-1 #
loop $-1 $-1 $90 $139 #
ellipse-curve $-1 57.14999999999999858 0 0 0 0 -1 1.587499999999999911 0 0 1 I I #
coedge $-1 $57 $56 $109 $140 reversed $58 $-1 #
edge $-1 $60 0 $141 0.5 $91 $142 forward 7 unknown #
edge $-1 $59 0 $143 0.5 $90 $144 forward 7 unknown #
face $-1 $139 $58 $2 $-1 $145 reversed single #
point $-1 55.5625 0 0 #
point $-1 58.73749999999999716 0 0 #
face $-1 $146 $147 $2 $-1 $148 reversed single #
loop $-1 $149 $150 $65 #
plane-surface $-1 67.56399999999999295 0 6.349999999999999645 0 0 1 25.39999999999999858 0 0 forward_v I I I I #
coedge $-1 $151 $152 $153 $154 forward $66 $-1 #
coedge $-1 $153 $68 $70 $111 reversed $40 $-1 #
coedge $-1 $68 $153 $155 $156 reversed $40 $-1 #
coedge $-1 $152 $151 $68 $107 reversed $66 $-1 #
edge $-1 $157 0 $158 0.25 $106 $159 forward 7 unknown #
loop $-1 $160 $161 $12 #
coedge $-1 $162 $162 $94 $140 forward $69 $-1 #
coedge $-1 $70 $70 $151 $163 forward $42 $-1 #
edge $-1 $164 -1.332905162784772385e-30 $158 3.141592653589795781 $70 $165 forward 7 unknown #
ellipse-curve $-1 -107.9499999999999886 -2.114974861910922894e-15 12.69999999999999929 0 0 -1 11.11249999999999893 2.114974861910922894e-15 0 1 I I #
point $-1 -119.0625 0 12.69999999999999929 #
loop $-1 $166 $167 $3 #
coedge $-1 $168 $169 $170 $171 reversed $77 $-1 #
coedge $-1 $172 $78 $173 $174 reversed $49 $-1 #
coedge $-1 $78 $172 $175 $176 reversed $49 $-1 #
coedge $-1 $177 $178 $78 $119 forward $179 $-1 #
edge $-1 $180 0 $181 7.249999999999999112 $78 $182 forward 7 unknown #
coedge $-1 $183 $184 $79 $121 forward $185 $-1 #
edge $-1 $126 0 $125 3.141592653589793116 $79 $186 forward 7 unknown #
coedge $-1 $187 $80 $184 $188 forward $124 $-1 #
coedge $-1 $80 $187 $183 $189 reversed $124 $-1 #
loop $-1 $-1 $122 $190 #
vertex $-1 $121 $191 #
vertex $-1 $121 $192 #
ellipse-curve $-1 35.81400000000000006 0 0 0 0 -1 -1.587499999999999911 0 0 1 I I #
coedge $-1 $193 $82 $85 $134 forward $130 $-1 #
coedge $-1 $82 $193 $84 $133 reversed $130 $-1 #
loop $-1 $-1 $128 $194 #
ellipse-curve $-1 0 0 0 0 0 -1 5.549900000000000055 0 0 1 I I #
coedge $-1 $85 $84 $161 $195 reversed $86 $-1 #
edge $-1 $88 0 $196 0.5 $129 $197 forward 7 unknown #
edge $-1 $87 0 $198 0.5 $128 $199 forward 7 unknown #
face $-1 $194 $86 $2 $-1 $200 reversed single #
point $-1 -5.549900000000000055 0 0 #
point $-1 5.549900000000000055 0 0 #
coedge $-1 $91 $90 $162 $201 reversed $92 $-1 #
face $-1 $135 $92 $2 $-1 $202 reversed single #
edge $-1 $143 0 $141 3.141592653589793116 $109 $203 forward 7 unknown #
vertex $-1 $201 $204 #
straight-curve $-1 58.73749999999999716 0 0 0 -7.776250346772095392e-16 25.39999999999999858 I I #
vertex $-1 $201 $205 #
straight-curve $-1 55.5625 1.944062586693023848e-16 0 0 0 25.39999999999999858 I I #
cone-surface $-1 57.14999999999999858 0 0 0 0 1 1.587499999999999911 0 0 1 I I 0 1 1.587499999999999911 forward I I I I #
face $-1 $97 $206 $2 $-1 $207 reversed single #
loop $-1 $-1 $208 $100 #
cone-surface $-1 67.56399999999999295 0 0 0 0 1 5.159374999999999822 0 0 1 I I 0 1 5.159374999999999822 forward I I I I #
loop $-1 $-1 $155 $65 #
coedge $-1 $209 $209 $210 $211 reversed $101 $-1 #
coedge $-1 $106 $103 $110 $163 reversed $66 $-1 #
coedge $-1 $103 $106 $212 $213 reversed $66 $-1 #
coedge $-1 $105 $104 $103 $154 reversed $40 $-1 #
edge $-1 $214 0 $164 0.25 $103 $215 forward 7 unknown #
coedge $-1 $212 $212 $105 $156 forward $149 $-1 #
edge $-1 $157 3.998715488354299815e-30 $214 3.141592653589795336 $105 $216 forward 7 unknown #
vertex $-1 $213 $217 #
vertex $-1 $163 $218 #
straight-curve $-1 70.82789999999999964 -7.993985356481714091e-16 6.349999999999999645 0 0 25.39999999999999858 I I #
loop $-1 $219 $220 $12 #
coedge $-1 $221 $221 $132 $195 forward $108 $-1 #
coedge $-1 $109 $109 $138 $201 forward $69 $-1 #
edge $-1 $158 4.294916635639803972e-30 $164 3.141592653589795781 $110 $222 forward 7 unknown #
vertex $-1 $163 $223 #
ellipse-curve $-1 67.56399999999999295 4.229949723821845788e-15 12.69999999999999929 0 0 -1 -3.263899999999995583 -4.229949723821845788e-15 0 1 I I #
loop $-1 $224 $225 $3 #
coedge $-1 $226 $226 $227 $228 forward $114 $-1 #
coedge $-1 $229 $115 $230 $231 reversed $77 $-1 #
coedge $-1 $115 $229 $232 $233 reversed $77 $-1 #
coedge $-1 $234 $235 $115 $171 forward $236 $-1 #
edge $-1 $237 -6.608060658690237196e-17 $238 3.141592653589807327 $115 $239 forward 7 unknown #
coedge $-1 $117 $116 $240 $241 reversed $49 $-1 #
coedge $-1 $242 $243 $116 $174 forward $244 $-1 #
edge $-1 $245 0 $180 1.499999999999999778 $116 $246 forward 7 unknown #
coedge $-1 $247 $248 $117 $176 forward $249 $-1 #
edge $-1 $181 0 $250 3.141592653589793116 $117 $251 forward 7 unknown #
coedge $-1 $252 $118 $248 $253 forward $179 $-1 #
coedge $-1 $118 $252 $242 $254 reversed $179 $-1 #
loop $-1 $-1 $177 $255 #
vertex $-1 $174 $256 #
vertex $-1 $176 $257 #
straight-curve $-1 76.19999999999998863 19.04999999999999716 0 -25.39999999999999858 0 0 I I #
coedge $-1 $258 $120 $123 $189 forward $185 $-1 #
coedge $-1 $120 $258 $122 $188 reversed $185 $-1 #
loop $-1 $-1 $183 $259 #
ellipse-curve $-1 35.81400000000000006 0 0 0 0 -1 1.587499999999999911 0 0 1 I I #
coedge $-1 $123 $122 $220 $260 reversed $124 $-1 #
edge $-1 $126 0 $261 0.5 $184 $262 forward 7 unknown #
edge $-1 $125 0 $263 0.5 $183 $264 forward 7 unknown #
face $-1 $259 $124 $2 $-1 $265 reversed single #
point $-1 34.22650000000000148 0 0 #
point $-1 37.40149999999999864 0 0 #
coedge $-1 $129 $128 $221 $266 reversed $130 $-1 #
face $-1 $190 $130 $2 $-1 $267 reversed single #
edge $-1 $198 0 $196 3.141592653589793116 $161 $268 forward 7 unknown #
vertex $-1 $266 $269 #
straight-curve $-1 5.549900000000000055 0 0 0 -2.718577121231524499e-15 25.39999999999999858 I I #
vertex $-1 $266 $270 #
straight-curve $-1 -5.549900000000000055 6.796442803078811249e-16 0 0 0 25.39999999999999858 I I #
cone-surface $-1 0 0 0 0 0 1 5.549900000000000055 0 0 1 I I 0 1 5.549900000000000055 forward I I I I #
edge $-1 $141 0 $143 3.141592653589793116 $162 $271 forward 7 unknown #
cone-surface $-1 57.14999999999999858 0 0 0 0 1 1.587499999999999911 0 0 1 I I 0 1 1.587499999999999911 forward I I I I #
ellipse-curve $-1 57.14999999999999858 0 12.69999999999999929 0 0 -1 -1.587499999999999911 0 0 1 I I #
point $-1 58.73749999999999716 0 12.69999999999999929 #
point $-1 55.5625 0 12.69999999999999929 #
loop $-1 $-1 $272 $146 #
cone-surface $-1 67.56399999999999295 0 0 0 0 1 5.159374999999999822 0 0 1 I I 0 1 5.159374999999999822 forward I I I I #
coedge $-1 $210 $227 $273 $274 forward $147 $-1 #
coedge $-1 $150 $150 $275 $276 reversed $101 $-1 #
coedge $-1 $277 $208 $150 $211 forward $147 $-1 #
edge $-1 $278 -1.926280819895166423e-31 $279 3.141592653589793116 $150 $280 forward 7 unknown #
coedge $-1 $155 $155 $152 $213 forward $149 $-1 #
edge $-1 $214 -1.036704015499267528e-30 $157 3.141592653589795336 $152 $281 forward 7 unknown #
vertex $-1 $213 $282 #
straight-curve $-1 64.30010000000000048 3.996992678240857046e-16 6.349999999999999645 0 0 25.39999999999999858 I I #
ellipse-curve $-1 67.56399999999999295 3.877453913503358902e-15 6.349999999999999645 0 0 1 3.263899999999995583 -3.877453913503358902e-15 0 1 I I #
point $-1 70.82789999999999964 0 6.349999999999999645 #
point $-1 70.82789999999999964 0 12.69999999999999929 #
loop $-1 $283 $284 $12 #
coedge $-1 $285 $285 $187 $260 forward $160 $-1 #
coedge $-1 $161 $161 $193 $266 forward $108 $-1 #
ellipse-curve $-1 67.56399999999999295 -4.229949723821845788e-15 12.69999999999999929 0 0 -1 3.263899999999995583 4.229949723821845788e-15 0 1 I I #
point $-1 64.30010000000000048 0 12.69999999999999929 #
loop $-1 $-1 $286 $3 #
coedge $-1 $287 $287 $288 $289 forward $166 $-1 #
coedge $-1 $167 $167 $290 $291 forward $114 $-1 #
coedge $-1 $208 $277 $167 $228 reversed $147 $-1 #
edge $-1 $292 0 $293 3.141592653589793116 $167 $294 forward 7 unknown #
coedge $-1 $169 $168 $295 $296 reversed $77 $-1 #
coedge $-1 $297 $298 $168 $231 forward $299 $-1 #
edge $-1 $300 -1.214413889952922006e-17 $237 1.999999999999999112 $168 $301 forward 7 unknown #
coedge $-1 $302 $303 $169 $233 forward $304 $-1 #
edge $-1 $238 1.518017362441148656e-18 $305 2 $169 $306 forward 7 unknown #
coedge $-1 $307 $170 $303 $308 forward $236 $-1 #
coedge $-1 $170 $307 $297 $309 reversed $236 $-1 #
loop $-1 $-1 $234 $310 #
vertex $-1 $231 $311 #
vertex $-1 $233 $312 #
ellipse-curve $-1 -32.32882461023487508 6.615995569110048713 0 0 0 -1 -1.102665928185067923 6.253529231627516616 0 1 I I #
coedge $-1 $313 $314 $172 $241 forward $315 $-1 #
edge $-1 $250 0 $245 7.249999999999999112 $172 $316 forward 7 unknown #
coedge $-1 $317 $173 $178 $254 forward $244 $-1 #
coedge $-1 $173 $317 $313 $318 reversed $244 $-1 #
loop $-1 $-1 $242 $319 #
vertex $-1 $241 $320 #
straight-curve $-1 76.19999999999998863 -19.04999999999999716 0 0 25.39999999999999858 0 I I #
coedge $-1 $321 $175 $314 $322 forward $249 $-1 #
coedge $-1 $175 $321 $177 $253 reversed $249 $-1 #
loop $-1 $-1 $247 $323 #
vertex $-1 $176 $324 #
ellipse-curve $-1 -107.9499999999999886 0 0 0 0 1 0 19.04999999999999716 0 1 I I #
coedge $-1 $178 $177 $325 $326 reversed $179 $-1 #
edge $-1 $181 0 $327 0.5 $248 $328 forward 7 unknown #
edge $-1 $180 0 $329 0.5 $242 $330 forward 7 unknown #
face $-1 $323 $179 $2 $-1 $331 forward single #
point $-1 76.19999999999998863 19.04999999999999716 0 #
point $-1 -107.9499999999999886 19.04999999999999716 0 #
coedge $-1 $184 $183 $285 $332 reversed $185 $-1 #
face $-1 $333 $185 $2 $-1 $334 reversed single #
edge $-1 $263 0 $261 3.141592653589793116 $220 $335 forward 7 unknown #
vertex $-1 $332 $336 #
straight-curve $-1 37.40149999999999864 0 0 0 -7.776250346772095392e-16 25.39999999999999858 I I #
vertex $-1 $332 $337 #
straight-curve $-1 34.22650000000000148 1.944062586693023848e-16 0 0 0 25.39999999999999858 I I #
cone-surface $-1 35.81400000000000006 0 0 0 0 1 1.587499999999999911 0 0 1 I I 0 1 1.587499999999999911 forward I I I I #
edge $-1 $196 0 $198 3.141592653589793116 $221 $338 forward 7 unknown #
cone-surface $-1 0 0 0 0 0 1 5.549900000000000055 0 0 1 I I 0 1 5.549900000000000055 forward I I I I #
ellipse-curve $-1 0 3.524958103184871819e-16 12.69999999999999929 0 0 -1 -5.549900000000000055 -3.524958103184871819e-16 0 1 I I #
point $-1 5.549900000000000055 0 12.69999999999999929 #
point $-1 -5.549900000000000055 0 12.69999999999999929 #
ellipse-curve $-1 57.14999999999999858 0 12.69999999999999929 0 0 -1 1.587499999999999911 0 0 1 I I #
coedge $-1 $275 $290 $277 $339 forward $206 $-1 #
coedge $-1 $290 $275 $208 $274 reversed $206 $-1 #
edge $-1 $292 0 $278 0.25 $273 $340 forward 7 unknown #
coedge $-1 $273 $272 $209 $276 forward $206 $-1 #
edge $-1 $279 2.370807162947887435e-31 $278 3.141592653589793116 $209 $341 forward 7 unknown #
coedge $-1 $227 $210 $272 $339 reversed $147 $-1 #
vertex $-1 $276 $342 #
vertex $-1 $276 $343 #
ellipse-curve $-1 67.56399999999999295 -5.287437154777307235e-16 6.349999999999999645 0 0 1 -5.159374999999999822 5.287437154777307235e-16 0 1 I I #
ellipse-curve $-1 67.56399999999999295 -3.877453913503358902e-15 6.349999999999999645 0 0 1 -3.263899999999995583 3.877453913503358902e-15 0 1 I I #
point $-1 64.30010000000000048 0 6.349999999999999645 #
loop $-1 $344 $345 $12 #
coedge $-1 $346 $346 $347 $348 forward $219 $-1 #
coedge $-1 $220 $220 $258 $332 forward $160 $-1 #
coedge $-1 $349 $349 $350 $351 reversed $224 $-1 #
coedge $-1 $225 $225 $352 $353 forward $166 $-1 #
coedge $-1 $354 $355 $225 $289 reversed $356 $-1 #
edge $-1 $357 0 $358 3.141592653589793116 $225 $359 forward 7 unknown #
coedge $-1 $272 $273 $226 $291 reversed $206 $-1 #
edge $-1 $293 0 $292 3.141592653589793116 $226 $360 forward 7 unknown #
vertex $-1 $291 $361 #
vertex $-1 $291 $362 #
ellipse-curve $-1 67.56399999999999295 0 0 0 0 1 -5.159374999999999822 0 0 1 I I #
coedge $-1 $363 $364 $229 $296 forward $365 $-1 #
edge $-1 $305 -5.947254592821231965e-16 $300 3.141592653589781126 $229 $366 forward 7 unknown #
coedge $-1 $367 $230 $235 $309 forward $299 $-1 #
coedge $-1 $230 $367 $363 $368 reversed $299 $-1 #
loop $-1 $-1 $297 $369 #
vertex $-1 $296 $370 #
straight-curve $-1 -83.45972439144009059 4.048197375257489128 0 25.01411692651008067 4.410663712740038989 0 I I #
coedge $-1 $371 $232 $364 $372 forward $304 $-1 #
coedge $-1 $232 $371 $234 $308 reversed $304 $-1 #
loop $-1 $-1 $302 $373 #
vertex $-1 $233 $374 #
straight-curve $-1 -31.22615868204989553 0.3624663374825176643 0 -25.01411692651008423 -4.41066371274002833 0 I I #
coedge $-1 $235 $234 $375 $376 reversed $236 $-1 #
edge $-1 $238 1.347013600867686848e-31 $377 0.5 $303 $378 forward 7 unknown #
edge $-1 $237 0 $379 0.5 $297 $380 forward 7 unknown #
face $-1 $373 $236 $2 $-1 $381 reversed single #
point $-1 -33.43149053841994345 12.86952480073756533 0 #
point $-1 -31.22615868204989553 0.3624663374825174422 0 #
coedge $-1 $382 $240 $243 $318 forward $315 $-1 #
coedge $-1 $240 $382 $247 $322 reversed $315 $-1 #
loop $-1 $-1 $313 $383 #
straight-curve $-1 -107.9499999999999886 -19.04999999999999716 0 25.39999999999999858 0 0 I I #
coedge $-1 $243 $242 $384 $385 reversed $244 $-1 #
edge $-1 $245 0 $386 0.5 $313 $387 forward 7 unknown #
face $-1 $255 $244 $2 $-1 $388 forward single #
point $-1 76.19999999999998863 -19.04999999999999716 0 #
coedge $-1 $248 $247 $389 $390 reversed $249 $-1 #
edge $-1 $250 0 $391 0.5 $247 $392 forward 7 unknown #
face $-1 $393 $249 $2 $-1 $394 forward single #
point $-1 -107.9499999999999886 -19.04999999999999716 0 #
coedge $-1 $389 $384 $252 $326 forward $344 $-1 #
edge $-1 $329 0 $327 7.249999999999999112 $325 $395 forward 7 unknown #
vertex $-1 $390 $396 #
straight-curve $-1 -107.9499999999999886 19.04999999999999716 0 0 0 25.39999999999999858 I I #
vertex $-1 $326 $397 #
straight-curve $-1 76.19999999999998863 19.04999999999999716 0 0 0 25.39999999999999858 I I #
plane-surface $-1 76.19999999999998863 19.04999999999999716 0 0 1 0 -25.39999999999999858 0 0 forward_v I I I I #
edge $-1 $261 0 $263 3.141592653589793116 $285 $398 forward 7 unknown #
face $-1 $399 $400 $2 $-1 $401 reversed single #
cone-surface $-1 35.81400000000000006 0 0 0 0 1 1.587499999999999911 0 0 1 I I 0 1 1.587499999999999911 forward I I I I #
ellipse-curve $-1 35.81400000000000006 0 12.69999999999999929 0 0 -1 -1.587499999999999911 0 0 1 I I #
point $-1 37.40149999999999864 0 12.69999999999999929 #
point $-1 34.22650000000000148 0 12.69999999999999929 #
ellipse-curve $-1 0 5.287437154777307235e-16 12.69999999999999929 0 0 -1 5.549900000000000055 -5.287437154777307235e-16 0 1 I I #
edge $-1 $293 0 $279 0.25 $272 $402 forward 7 unknown #
straight-curve $-1 62.4046250000000029 6.318203406752327075e-16 0 0 0 25.39999999999999858 I I #
ellipse-curve $-1 67.56399999999999295 5.287437154777307235e-16 6.349999999999999645 0 0 1 5.159374999999999822 -5.287437154777307235e-16 0 1 I I #
point $-1 62.4046250000000029 0 6.349999999999999645 #
point $-1 72.72337500000000432 0 6.349999999999999645 #
loop $-1 $403 $404 $12 #
coedge $-1 $405 $405 $406 $407 forward $283 $-1 #
coedge $-1 $284 $284 $408 $409 forward $219 $-1 #
coedge $-1 $410 $411 $284 $348 reversed $400 $-1 #
edge $-1 $412 0 $413 3.141592653589793116 $284 $414 forward 7 unknown #
coedge $-1 $286 $286 $415 $416 reversed $224 $-1 #
coedge $-1 $417 $418 $286 $351 forward $419 $-1 #
edge $-1 $420 0 $421 3.141592653589793116 $286 $422 forward 7 unknown #
coedge $-1 $423 $424 $287 $353 reversed $425 $-1 #
edge $-1 $358 0 $357 3.141592653589793116 $287 $426 forward 7 unknown #
coedge $-1 $427 $288 $424 $428 forward $356 $-1 #
coedge $-1 $288 $427 $423 $429 reversed $356 $-1 #
loop $-1 $-1 $354 $430 #
vertex $-1 $353 $431 #
vertex $-1 $353 $432 #
ellipse-curve $-1 35.81399999999999295 10.31240000000000023 0 0 0 1 -5.159374999999999822 0 0 1 I I #
ellipse-curve $-1 67.56399999999999295 0 0 0 0 1 5.159374999999999822 0 0 1 I I #
point $-1 62.4046250000000029 0 0 #
point $-1 72.72337500000000432 0 0 #
coedge $-1 $433 $295 $298 $368 forward $365 $-1 #
coedge $-1 $295 $433 $302 $372 reversed $365 $-1 #
loop $-1 $-1 $363 $393 #
ellipse-curve $-1 -82.35705846325504353 -2.205331856370017718 0 0 0 -1 1.102665928184972222 -6.253529231627522833 0 1 I I #
coedge $-1 $298 $297 $434 $435 reversed $299 $-1 #
edge $-1 $300 3.144573490300293229e-31 $436 0.5 $363 $437 forward 7 unknown #
face $-1 $310 $299 $2 $-1 $438 forward single #
point $-1 -83.45972439144009059 4.048197375257487352 0 #
coedge $-1 $303 $302 $439 $440 reversed $304 $-1 #
edge $-1 $305 0 $441 0.5 $302 $442 forward 7 unknown #
face $-1 $-1 $304 $2 $-1 $443 forward single #
point $-1 -81.25439253507006754 -8.458861087997540551 0 #
coedge $-1 $439 $434 $307 $376 forward $403 $-1 #
edge $-1 $379 1.019844028324528074e-14 $377 3.141592653589805106 $375 $444 forward 7 unknown #
vertex $-1 $440 $445 #
straight-curve $-1 -31.22615868204986356 0.3624663374825278228 0 0 -8.371775495064071038e-15 25.39999999999999858 I I #
vertex $-1 $376 $446 #
straight-curve $-1 -33.4314905384198795 12.86952480073757599 0 0 0 25.39999999999999858 I I #
cone-surface $-1 -32.32882461023487508 6.615995569110048713 0 0 0 1 6.349999999999999645 0 0 1 I I 0 1 6.349999999999999645 forward I I I I #
coedge $-1 $314 $313 $404 $447 reversed $315 $-1 #
face $-1 $319 $315 $2 $-1 $448 forward single #
coedge $-1 $325 $404 $317 $385 forward $344 $-1 #
edge $-1 $386 0 $329 1.499999999999999778 $384 $449 forward 7 unknown #
vertex $-1 $385 $450 #
straight-curve $-1 76.19999999999998863 -19.04999999999999716 0 0 0 25.39999999999999858 I I #
plane-surface $-1 76.19999999999998863 -19.04999999999999716 0 1 0 0 0 25.39999999999999858 0 forward_v I I I I #
coedge $-1 $404 $325 $321 $390 forward $344 $-1 #
edge $-1 $327 -3.077153580063426945e-16 $391 3.141592653589795781 $389 $451 forward 7 unknown #
vertex $-1 $390 $452 #
straight-curve $-1 -107.9499999999999886 -19.04999999999999716 0 0 0 25.39999999999999858 I I #
face $-1 $369 $365 $2 $-1 $453 reversed single #
cone-surface $-1 -107.9499999999999886 0 0 0 0 1 19.04999999999999716 0 0 1 I I 0 1 19.04999999999999716 forward I I I I #
straight-curve $-1 76.19999999999998863 19.04999999999999716 12.69999999999999929 -25.39999999999999858 0 0 I I #
point $-1 -107.9499999999999886 19.04999999999999716 12.69999999999999929 #
point $-1 76.19999999999998863 19.04999999999999716 12.69999999999999929 #
ellipse-curve $-1 35.81400000000000006 0 12.69999999999999929 0 0 -1 1.587499999999999911 0 0 1 I I #
face $-1 $454 $455 $2 $-1 $456 reversed single #
loop $-1 $-1 $411 $333 #
cone-surface $-1 35.81400000000000006 10.31240000000000023 0 0 0 1 3.263900000000000023 0 0 1 I I 0 1 3.263900000000000023 forward I I I I #
straight-curve $-1 72.72337500000000432 0 0 0 0 25.39999999999999858 I I #
loop $-1 $-1 $457 $12 #
coedge $-1 $384 $389 $382 $447 forward $344 $-1 #
coedge $-1 $345 $345 $458 $459 forward $283 $-1 #
coedge $-1 $460 $461 $345 $407 reversed $462 $-1 #
edge $-1 $463 -2.245005043820598687e-16 $464 3.141592653589794892 $345 $465 forward 7 unknown #
coedge $-1 $466 $467 $346 $409 reversed $455 $-1 #
edge $-1 $413 -2.245005043820598687e-16 $412 3.141592653589794892 $346 $468 forward 7 unknown #
coedge $-1 $469 $347 $467 $470 reversed $400 $-1 #
coedge $-1 $347 $469 $466 $471 forward $400 $-1 #
vertex $-1 $409 $472 #
vertex $-1 $409 $473 #
ellipse-curve $-1 35.81400000000000006 10.31240000000000023 12.69999999999999929 0 0 -1 -3.263900000000001356 0 0 1 I I #
coedge $-1 $474 $475 $349 $416 forward $476 $-1 #
edge $-1 $421 0 $420 3.141592653589793116 $349 $477 forward 7 unknown #
coedge $-1 $478 $350 $475 $479 forward $419 $-1 #
coedge $-1 $350 $478 $474 $480 reversed $419 $-1 #
loop $-1 $-1 $417 $481 #
vertex $-1 $416 $482 #
vertex $-1 $416 $483 #
ellipse-curve $-1 35.81399999999999295 -10.31240000000000023 0 0 0 -1 -5.159374999999999822 0 0 1 I I #
coedge $-1 $484 $352 $355 $429 forward $425 $-1 #
coedge $-1 $352 $484 $354 $428 reversed $425 $-1 #
loop $-1 $-1 $423 $485 #
ellipse-curve $-1 35.81399999999999295 10.31240000000000023 0 0 0 1 5.159374999999999822 0 0 1 I I #
coedge $-1 $355 $354 $486 $487 forward $356 $-1 #
edge $-1 $357 0 $488 0.25 $424 $489 forward 7 unknown #
edge $-1 $358 0 $490 0.25 $423 $491 forward 7 unknown #
face $-1 $485 $356 $2 $-1 $492 reversed single #
point $-1 30.65462499999999579 10.31240000000000023 0 #
point $-1 40.97337499999999721 10.31240000000000023 0 #
coedge $-1 $364 $363 $457 $493 reversed $365 $-1 #
coedge $-1 $375 $457 $367 $435 forward $403 $-1 #
edge $-1 $436 1.707596644787372593e-15 $379 2.000000000000001776 $434 $494 forward 7 unknown #
vertex $-1 $435 $495 #
straight-curve $-1 -83.45972439144004795 4.048197375257503339 0 0 -1.268984917146553894e-14 25.39999999999999858 I I #
plane-surface $-1 -83.45972439144004795 4.048197375257497121 0 0.1736481776669307198 -0.9848077530122080203 0 25.01411692651008067 4.410663712740039877 0 forward_v I I I I #
coedge $-1 $457 $375 $371 $440 forward $403 $-1 #
edge $-1 $377 1.518017362441148656e-18 $441 2 $439 $496 forward 7 unknown #
vertex $-1 $440 $497 #
straight-curve $-1 -81.25439253507003912 -8.458861087997535222 0 0 0 25.39999999999999858 I I #
plane-surface $-1 -31.22615868204986356 0.3624663374825236595 0 -0.1736481776669303034 0.9848077530122081313 0 -25.01411692651008423 -4.410663712740029219 0 forward_v I I I I #
ellipse-curve $-1 -32.32882461023488219 6.615995569110048713 12.69999999999999929 0 0 -1 -1.102665928185062372 6.253529231627516616 0 1 I I #
point $-1 -31.22615868204989553 0.3624663374825174422 12.69999999999999929 #
point $-1 -33.4314905384198795 12.86952480073756888 12.69999999999999929 #
edge $-1 $391 0 $386 7.249999999999999112 $404 $498 forward 7 unknown #
plane-surface $-1 -107.9499999999999886 -19.04999999999999716 0 0 -1 0 25.39999999999999858 0 0 forward_v I I I I #
straight-curve $-1 76.19999999999998863 -19.04999999999999716 12.69999999999999929 0 25.39999999999999858 0 I I #
point $-1 76.19999999999998863 -19.04999999999999716 12.69999999999999929 #
ellipse-curve $-1 -107.9500000000000171 0 12.69999999999999929 0 0 1 2.255973186038317964e-14 19.04999999999999716 0 1 I I #
point $-1 -107.9499999999999886 -19.04999999999999716 12.69999999999999929 #
cone-surface $-1 -82.35705846325504353 -2.205331856370017718 0 0 0 1 6.349999999999999645 0 0 1 I I 0 1 6.349999999999999645 forward I I I I #
face $-1 $430 $499 $2 $-1 $500 reversed single #
loop $-1 $-1 $467 $399 #
cone-surface $-1 35.81400000000000006 10.31240000000000023 0 0 0 1 3.263900000000000023 0 0 1 I I 0 1 3.263900000000000023 forward I I I I #
coedge $-1 $434 $439 $433 $493 forward $403 $-1 #
coedge $-1 $501 $502 $405 $459 reversed $503 $-1 #
edge $-1 $464 0 $463 3.141592653589793116 $405 $504 forward 7 unknown #
coedge $-1 $505 $406 $502 $506 reversed $462 $-1 #
coedge $-1 $406 $505 $501 $507 forward $462 $-1 #
loop $-1 $-1 $461 $508 #
vertex $-1 $459 $509 #
vertex $-1 $459 $510 #
ellipse-curve $-1 35.81400000000000006 -10.31239999999999668 12.69999999999999929 0 0 -1 -3.263900000000001356 -2.819966482547897455e-15 0 1 I I #
coedge $-1 $511 $408 $411 $471 reversed $455 $-1 #
coedge $-1 $408 $511 $410 $470 forward $455 $-1 #
ellipse-curve $-1 35.81400000000000006 10.31239999999999668 12.69999999999999929 0 0 -1 3.263900000000001356 2.819966482547897455e-15 0 1 I I #
coedge $-1 $411 $410 $512 $513 reversed $400 $-1 #
edge $-1 $514 0 $412 0.25 $467 $515 forward 7 unknown #
edge $-1 $516 0 $413 0.25 $466 $517 forward 7 unknown #
point $-1 32.55010000000000048 10.31240000000000023 12.69999999999999929 #
point $-1 39.07789999999999964 10.31240000000000023 12.69999999999999929 #
coedge $-1 $518 $415 $418 $480 forward $476 $-1 #
coedge $-1 $415 $518 $417 $479 reversed $476 $-1 #
loop $-1 $-1 $474 $519 #
ellipse-curve $-1 35.81399999999999295 -10.31240000000000023 0 0 0 -1 5.159374999999999822 0 0 1 I I #
coedge $-1 $418 $417 $520 $521 reversed $419 $-1 #
edge $-1 $421 0 $522 0.25 $475 $523 forward 7 unknown #
edge $-1 $420 0 $524 0.25 $474 $525 forward 7 unknown #
face $-1 $519 $419 $2 $-1 $526 reversed single #
point $-1 30.65462499999999579 -10.31240000000000023 0 #
point $-1 40.97337499999999721 -10.31240000000000023 0 #
coedge $-1 $424 $423 $527 $528 forward $425 $-1 #
face $-1 $508 $425 $2 $-1 $529 reversed single #
coedge $-1 $527 $527 $427 $487 reversed $499 $-1 #
edge $-1 $488 0 $490 3.141592653589793116 $486 $530 forward 7 unknown #
vertex $-1 $528 $531 #
straight-curve $-1 30.65462499999999579 10.31240000000000023 0 0 0 25.39999999999999858 I I #
vertex $-1 $528 $532 #
straight-curve $-1 40.97337499999999721 10.31240000000000023 0 0 0 25.39999999999999858 I I #
cone-surface $-1 35.81399999999999295 10.31240000000000023 0 0 0 1 5.159374999999999822 0 0 1 I I 0 1 5.159374999999999822 forward I I I I #
edge $-1 $441 -5.947254592821230979e-16 $436 3.141592653589787787 $457 $533 forward 7 unknown #
straight-curve $-1 -83.45972439144009059 4.048197375257489128 12.69999999999999929 25.01411692651008067 4.410663712740038989 0 I I #
point $-1 -83.45972439144004795 4.048197375257497121 12.69999999999999929 #
straight-curve $-1 -31.22615868204989553 0.3624663374825176643 12.69999999999999929 -25.01411692651008423 -4.41066371274002833 0 I I #
point $-1 -81.25439253507006754 -8.458861087997540551 12.69999999999999929 #
straight-curve $-1 -107.9499999999999886 -19.04999999999999716 12.69999999999999929 25.39999999999999858 0 0 I I #
loop $-1 $534 $486 $454 #
plane-surface $-1 35.81399999999999295 10.31240000000000023 6.349999999999999645 0 0 1 25.39999999999999858 0 0 forward_v I I I I #
coedge $-1 $535 $458 $461 $507 reversed $503 $-1 #
coedge $-1 $458 $535 $460 $506 forward $503 $-1 #
loop $-1 $-1 $502 $536 #
ellipse-curve $-1 35.81400000000000006 -10.31240000000000023 12.69999999999999929 0 0 -1 3.263900000000001356 0 0 1 I I #
coedge $-1 $461 $460 $537 $538 reversed $462 $-1 #
edge $-1 $539 0 $463 0.25 $502 $540 forward 7 unknown #
edge $-1 $541 0 $464 0.25 $501 $542 forward 7 unknown #
face $-1 $536 $462 $2 $-1 $543 reversed single #
point $-1 32.55010000000000048 -10.31240000000000023 12.69999999999999929 #
point $-1 39.07789999999999964 -10.31240000000000023 12.69999999999999929 #
coedge $-1 $467 $466 $544 $545 reversed $455 $-1 #
coedge $-1 $544 $544 $469 $513 forward $534 $-1 #
edge $-1 $516 -2.074928904137205103e-16 $514 3.141592653589790896 $469 $546 forward 7 unknown #
vertex $-1 $545 $547 #
straight-curve $-1 32.55010000000000048 10.31240000000000023 6.349999999999999645 0 0 25.39999999999999858 I I #
vertex $-1 $545 $548 #
straight-curve $-1 39.07789999999999964 10.31239999999999846 6.349999999999999645 0 0 25.39999999999999858 I I #
coedge $-1 $475 $474 $549 $550 reversed $476 $-1 #
face $-1 $383 $476 $2 $-1 $551 reversed single #
coedge $-1 $549 $549 $478 $521 forward $552 $-1 #
edge $-1 $524 0 $522 3.141592653589793116 $520 $553 forward 7 unknown #
vertex $-1 $550 $554 #
straight-curve $-1 40.97337499999999721 -10.31240000000000023 0 0 0 25.39999999999999858 I I #
vertex $-1 $550 $555 #
straight-curve $-1 30.65462499999999579 -10.31240000000000023 0 0 0 25.39999999999999858 I I #
cone-surface $-1 35.81399999999999295 -10.31240000000000023 0 0 0 -1 5.159374999999999822 0 0 1 I I 0 1 5.159374999999999822 forward I I I I #
coedge $-1 $486 $486 $484 $528 reversed $499 $-1 #
edge $-1 $490 -1.42022472926004129e-16 $488 3.141592653589794448 $527 $556 forward 7 unknown #
cone-surface $-1 35.81399999999999295 10.31240000000000023 0 0 0 1 5.159374999999999822 0 0 1 I I 0 1 5.159374999999999822 forward I I I I #
ellipse-curve $-1 35.81399999999999295 10.31240000000000023 6.349999999999999645 0 0 1 -5.159374999999994493 0 0 1 I I #
point $-1 30.65462499999999579 10.31240000000000023 6.349999999999999645 #
point $-1 40.97337499999999721 10.31240000000000023 6.349999999999999645 #
ellipse-curve $-1 -82.35705846325504353 -2.20533185637001683 12.69999999999999929 0 0 -1 1.102665928184972222 -6.253529231627523721 0 1 I I #
loop $-1 $-1 $512 $454 #
coedge $-1 $502 $501 $557 $558 reversed $503 $-1 #
face $-1 $559 $503 $2 $-1 $560 reversed single #
coedge $-1 $557 $557 $505 $538 forward $561 $-1 #
edge $-1 $541 -2.074928904137205103e-16 $539 3.141592653589790896 $505 $562 forward 7 unknown #
vertex $-1 $558 $563 #
straight-curve $-1 32.55010000000000048 -10.31240000000000023 6.349999999999999645 0 0 25.39999999999999858 I I #
vertex $-1 $558 $564 #
straight-curve $-1 39.07789999999999964 -10.31240000000000201 6.349999999999999645 0 0 25.39999999999999858 I I #
cone-surface $-1 35.81400000000000006 -10.31240000000000023 0 0 0 1 3.263900000000000023 0 0 1 I I 0 1 3.263900000000000023 forward I I I I #
coedge $-1 $512 $512 $511 $545 forward $534 $-1 #
edge $-1 $514 -2.074928904137205103e-16 $516 3.141592653589790896 $511 $565 forward 7 unknown #
ellipse-curve $-1 35.81400000000000006 10.31239999999999668 6.349999999999999645 0 0 1 3.263900000000001356 4.229949723821845788e-15 0 1 I I #
point $-1 32.55010000000000048 10.31240000000000023 6.349999999999999645 #
point $-1 39.07789999999999964 10.31240000000000023 6.349999999999999645 #
coedge $-1 $520 $520 $518 $550 forward $552 $-1 #
edge $-1 $522 -1.42022472926004129e-16 $524 3.141592653589794448 $549 $566 forward 7 unknown #
cone-surface $-1 35.81399999999999295 -10.31240000000000023 0 0 0 -1 5.159374999999999822 0 0 1 I I 0 1 5.159374999999999822 forward I I I I #
loop $-1 $561 $520 $559 #
ellipse-curve $-1 35.81399999999999295 -10.31240000000000023 6.349999999999999645 0 0 -1 -5.159374999999994493 0 0 1 I I #
point $-1 40.97337499999999721 -10.31240000000000023 6.349999999999999645 #
point $-1 30.65462499999999579 -10.31240000000000023 6.349999999999999645 #
ellipse-curve $-1 35.81400000000000006 10.31240000000000379 6.349999999999999645 0 0 1 5.159374999999994493 -2.819966482547897455e-15 0 1 I I #
coedge $-1 $537 $537 $535 $558 forward $561 $-1 #
edge $-1 $539 -2.074928904137205103e-16 $541 3.141592653589790896 $535 $567 forward 7 unknown #
face $-1 $481 $552 $2 $-1 $568 forward single #
cone-surface $-1 35.81400000000000006 -10.31240000000000023 0 0 0 1 3.263900000000000023 0 0 1 I I 0 1 3.263900000000000023 forward I I I I #
loop $-1 $-1 $537 $559 #
ellipse-curve $-1 35.81400000000000006 -10.31240000000000379 6.349999999999999645 0 0 1 3.263900000000001356 4.229949723821845788e-15 0 1 I I #
point $-1 32.55010000000000048 -10.31240000000000023 6.349999999999999645 #
point $-1 39.07789999999999964 -10.31240000000000023 6.349999999999999645 #
ellipse-curve $-1 35.81400000000000006 10.31240000000000379 6.349999999999999645 0 0 1 -3.263900000000001356 -4.229949723821845788e-15 0 1 I I #
ellipse-curve $-1 35.81400000000000006 -10.31240000000000379 6.349999999999999645 0 0 -1 5.159374999999994493 2.819966482547897455e-15 0 1 I I #
ellipse-curve $-1 35.81400000000000006 -10.31239999999999668 6.349999999999999645 0 0 1 -3.263900000000001356 -4.229949723821845788e-15 0 1 I I #
plane-surface $-1 35.81399999999999295 -10.31240000000000023 6.349999999999999645 0 0 -1 25.39999999999999858 0 0 forward_v I I I I #
End-of-ACIS-data 