**ABCDEFGHIJKLMNOPQRSTUVWXYZabcdefghijklmnopqrstuvwxyz**************************
**PARASOLID !"#$%&'()*+,-./:;<=>?@[\]^_`{|}~0123456789**************************
**PART1;
MC=unknown;
MC_MODEL=unknown;
MC_ID=unknown;
OS=unknown;
OS_RELEASE=unknown;
FRU=sdl_parasolid_customer_support;
APPL=parasolid_acceptance_tests;
SITE=unknown;
USER=unknown;
FORMAT=text;
GUISE=transmit;
KEY=han;
FILE=han.xmt_txt;
DATE=unknown;
**PART2;
SCH=SCH_504068_5059;
USFLD_SIZE=0;
**PART3;
**END_OF_HEADER*****************************************************************
T50 : TRANSMIT FILE created by modeller version 50406815 SCH_504068_50590 12 1 2
469 0 2 0 0 0 1e3 1e-8 3 2 0 4 0 1 5 6 7 8 70 2 0 1 0 0 4 2 20 4 9 9 1 102 3 3 h
an13 5 1770 0 1 0 10 11 12 50 6 2445 0 10 13 0 0 +0 .220726 .0201675999999993 0
 -1 0 0 0 -1 31 7 2449 0 11 14 0 0 -.004699 .220726 .0227075999999993 0 -1 0 0 0
 -1 .0014605 29 8 2389 0 12 15 0 -.003364331460369015 .226335723327149 .02821037
667285045 18 12 2438 0 16 0 17 8 ?29 15 2352 0 17 18 8 -.00603366853962917 .2263
35723327148 .02821037667285135 18 17 2350 0 19 12 20 15 ?29 18 2280 0 20 21 15 -
.00621960956198493 .2320925 .0254761999999993 18 20 2330 0 22 17 23 18 ?29 21 22
84 0 23 24 18 -.003178390438015075 .2320925 .0254761999999993 18 23 2334 0 25 20
 26 21 ?29 24 2285 0 26 27 21 -.002717799999999965 .2308225 .0267461999999993 18
 26 2335 0 28 23 29 24 ?29 27 2219 0 29 30 24 -.0066802 .2308225 .02674619999999
93 18 29 2217 0 31 26 32 27 ?29 30 1683 0 33 34 27 .012188 .220726 .029364 18 33
 2199 0 35 36 37 30 ?29 34 1684 0 37 38 30 .013712 .220726 .029364 18 37 2200 0
 39 33 40 34 ?29 38 1685 0 40 41 34 .013712 .220726 .026316 18 40 2201 0 42 37 4
3 38 ?29 41 1686 0 43 44 38 .012188 .220726 .026316 18 43 2202 0 45 40 46 41 ?29
 44 1687 0 46 47 41 .013712 .22225 .026316 18 46 2203 0 48 43 0 44 ?29 47 1688 0
 49 50 44 .012188 .22225 .029364 18 49 2119 0 51 52 53 47 ?29 50 1689 0 53 54 47
 .013712 .22225 .029364 18 53 2120 0 55 49 56 50 ?29 54 1690 0 56 57 50 .012188
 .22225 .026316 18 56 2121 0 58 53 59 54 ?29 57 1691 0 60 61 54 -.014162 .220726
 .029364 18 60 2194 0 62 63 64 57 ?29 61 1692 0 64 65 57 -.012638 .220726 .02936
4 18 64 2195 0 66 60 67 61 ?29 65 1693 0 67 68 61 -.012638 .220726 .026316 18 67
 2196 0 69 64 70 65 ?29 68 1694 0 70 71 65 -.014162 .220726 .026316 18 70 2197 0
 72 67 36 68 ?29 71 1695 0 36 73 68 -.012638 .22225 .026316 18 36 2198 0 74 70 3
3 71 ?29 73 1696 0 59 75 71 -.014162 .22225 .029364 18 59 2122 0 76 56 77 73 ?29
 75 1697 0 77 78 73 -.012638 .22225 .029364 18 77 2123 0 79 59 80 75 ?29 78 1698
 0 80 81 75 -.014162 .22225 .026316 18 80 2124 0 82 77 83 78 ?29 81 1699 0 83 84
 78 .0084328 .2277999 .031749 18 83 2125 0 85 80 86 81 ?29 84 1700 0 86 87 81 .0
084328 .2308225 .031749 18 86 2126 0 88 83 89 84 ?29 87 1701 0 89 90 84 .0123952
 .2277999 .031749 18 89 2127 0 91 86 92 87 ?29 90 1702 0 92 93 87 -.0123952 .227
7999 .031749 18 92 2128 0 94 89 95 90 ?29 93 1703 0 95 96 90 -.0123952 .2308225
 .031749 18 95 2129 0 97 92 98 93 ?29 96 1704 0 98 99 93 -.0084328 .2277999 .031
749 18 98 2130 0 100 95 101 96 ?29 99 1705 0 101 102 96 -.0066802 .2277999 .0317
49 18 101 2131 0 103 98 104 99 ?29 102 1706 0 104 105 99 -.0066802 .2308225 .031
749 18 104 2132 0 106 101 107 102 ?29 105 1707 0 107 108 102 -.00271779999999996
5 .2277999 .031749 18 107 2133 0 109 104 110 105 ?29 108 1708 0 110 111 105 .002
7178 .2348 .031749 18 110 2134 0 112 107 113 108 ?29 111 1709 0 113 114 108 .002
7178 .2277872 .031749 18 113 2135 0 115 110 116 111 ?29 114 1710 0 116 117 111 -
.0146812 .2348 .031749 18 116 2136 0 118 113 119 114 ?29 117 1711 0 119 120 114
 .0066802 .2277872 .031749 18 119 2137 0 121 116 122 117 ?29 120 1712 0 122 123
 117 -.0146812 .2277618 .031749 18 122 2138 0 124 119 125 120 ?29 123 1713 0 125
 126 120 -.0174498 .2277618 .031749 18 125 2139 0 127 122 128 123 ?29 126 1714 0
 128 129 123 -.0174498 .22225 .031749 18 128 2140 0 130 125 131 126 ?29 129 1715
 0 131 132 126 .0174498 .22225 .031749 18 131 2141 0 133 128 134 129 ?29 132 171
6 0 134 135 129 .0066802 .2348 .031749 18 134 2142 0 136 131 137 132 ?29 135 171
7 0 137 138 132 .0174498 .2277618 .031749 18 137 2143 0 139 134 140 135 ?29 138
 1718 0 140 141 135 .0146812 .2348 .031749 18 140 2144 0 142 137 143 138 ?29 141
 1719 0 143 144 138 .0123952 .2308225 .031749 18 143 2145 0 145 140 146 141 ?29
 144 1720 0 146 147 141 -.0084328 .2308225 .031749 18 146 2146 0 148 143 149 144
 ?29 147 1721 0 149 150 144 -.002717799999999965 .2308225 .031749 18 149 2147 0
 151 146 152 147 ?29 150 1722 0 152 153 147 .0146812 .2277618 .031749 18 152 214
8 0 154 149 155 150 ?29 153 1723 0 155 156 150 .0146812 .2348 .0288035999999993
 18 155 2149 0 157 152 158 153 ?29 156 1724 0 158 159 153 .0060452 .2348 .020167
5999999993 18 158 2150 0 160 155 161 156 ?29 159 1725 0 161 162 156 -.0060452 .2
348 .0201675999999993 18 161 2151 0 163 158 164 159 ?29 162 1726 0 164 165 159 -
.0146812 .2348 .0288035999999993 18 164 2152 0 166 161 167 162 ?29 165 1727 0 16
7 168 162 .0066802 .2348 .0254761999999993 18 167 2153 0 169 164 170 165 ?29 168
 1728 0 170 171 165 .0027178 .2348 .0254761999999993 18 170 2154 0 172 167 173 1
68 ?29 171 1729 0 174 175 168 .0066802 .2277872 .0254761999999993 18 174 2181 0
 176 177 178 171 ?29 175 1730 0 177 179 171 .0027178 .2277872 .0254761999999993
 18 177 2180 0 180 181 174 175 ?29 179 1733 0 173 182 175 .0123952 .2308225 .025
4761999999993 18 173 2157 0 183 170 184 179 ?29 182 1734 0 185 186 179 .0084328
 .2277999 .0254761999999993 18 185 2159 0 187 184 188 182 ?29 186 1735 0 184 189
 182 .0084328 .2308225 .0254761999999993 18 184 2158 0 190 173 185 186 ?29 189 1
736 0 188 191 186 .0123952 .2277999 .0254761999999993 18 188 2160 0 192 185 193
 189 ?29 191 1740 0 193 194 189 -.0084328 .2308225 .0254761999999993 18 193 2164
 0 195 188 196 191 ?29 194 1741 0 197 198 191 -.0123952 .2277999 .02547619999999
93 18 197 2166 0 199 196 200 194 ?29 198 1742 0 196 201 194 -.0123952 .2308225 .
0254761999999993 18 196 2165 0 202 193 197 198 ?29 201 1743 0 200 203 198 -.0084
328 .2277999 .0254761999999993 18 200 2167 0 204 197 205 201 ?29 203 1746 0 205
 206 201 -.003178390438015045 .2265299 .0254761999999993 18 205 2170 0 207 200 2
08 203 ?29 206 1749 0 208 209 203 -.00621960956198489 .2265299 .0254761999999993
 18 208 2173 0 210 205 211 206 ?29 209 1750 0 211 212 206 -.0066802 .2277999 .02
67461999999993 18 211 2174 0 213 208 214 209 ?29 212 1751 0 214 215 209 -.002717
799999999965 .2277999 .0267461999999993 18 214 2175 0 216 211 217 212 ?29 215 17
52 0 217 218 212 -.002717799999999965 .2308225 .0254761999999993 18 217 2176 0 2
19 214 220 215 ?29 218 1753 0 221 222 215 -.0066802 .2277999 .0254761999999993 1
8 221 2178 0 223 220 181 218 ?29 222 1754 0 220 224 218 -.0066802 .2308225 .0254
761999999993 18 220 2177 0 225 217 221 222 ?29 224 1755 0 181 226 222 -.00271779
9999999965 .2277999 .0254761999999993 18 181 2179 0 227 221 177 224 ?29 226 1760
 0 178 228 224 -.0146812 .2277618 .0288035999999993 18 178 2186 0 229 174 230 22
6 ?29 228 1761 0 230 231 226 -.0060452 .2277618 .0201675999999993 18 230 2187 0
 232 178 233 228 ?29 231 1762 0 233 234 228 .0060452 .2277618 .0201675999999993
 18 233 2188 0 235 230 63 231 ?29 234 1763 0 63 236 231 .0146812 .2277618 .02880
35999999993 18 63 2189 0 237 233 60 234 ?29 236 1768 0 238 239 234 .0174498 .227
7618 .0201675999999993 18 238 2117 0 240 241 52 236 ?29 239 1769 0 52 242 236 .0
174498 .22225 .0201675999999993 18 52 2118 0 243 238 49 239 ?29 242 1326 0 32 24
4 239 -.0174498 .22225 .0201675999999993 18 32 1324 0 245 29 241 242 ?29 244 132
3 0 241 0 242 -.0174498 .2277618 .0201675999999993 18 241 1321 0 246 32 238 244
 ?17 246 247 248 232 241 249 250 0 15 247 2205 0 246 251 0 17 248 247 124 246 12
5 252 253 0 17 232 247 246 229 230 254 255 0 17 249 256 257 258 230 246 250 0 16
 250 1430 0 249 253 259 260 ?0 0 16 253 1431 0 252 261 250 262 ?0 0 16 259 1983
 0 263 250 264 265 ?0 0 30 260 1360 0 250 262 266 0 +0 .2277618 .020167599999999
3 1 0 0 30 262 1361 0 253 267 260 0 +-.0174498 .2277618 .0201675999999993 0 0 -1
 30 266 1359 0 268 260 269 0 +-.0174498 .22225 .0201675999999993 0 0 1 16 268 14
29 0 270 271 261 266 ?0 0 30 269 1358 0 271 266 272 0 +0 .22225 .020167599999999
3 -1 0 0 16 271 1428 0 273 274 268 269 ?0 0 30 272 1682 0 264 269 275 0 +.017449
8 .227763 .0201675999999993 0 1 0 16 264 1985 0 276 259 277 272 ?0 0 30 275 1681
 0 277 272 278 0 +0 .2277618 .0201675999999993 1 0 0 16 277 1986 0 279 264 280 2
75 ?0 0 30 278 1680 0 280 275 265 0 +.0174498 .2277618 .0201675999999993 0 0 1 1
6 280 1987 0 281 277 282 278 ?0 0 30 265 1678 0 259 278 283 0 +.0174498 .22225 .
0201675999999993 0 0 -1 31 283 1677 0 284 265 285 0 +-.004699 .22225 .0267461999
999993 0 -1 0 -1 0 0 .003937 16 284 2092 0 286 287 288 283 ?0 0 31 285 1676 0 28
7 283 289 0 +-.004699 .220726 .0267461999999993 0 1 0 1 0 0 .003937 16 287 2091
 0 290 291 284 285 ?0 0 30 289 1669 0 291 285 292 0 +.0146812 .2277618 .02595879
99999993 0 0 -1 16 291 2084 0 293 294 287 289 ?0 0 30 292 1668 0 294 289 295 0 +
.0146812 .2277618 .0288035999999993 0 1 0 16 294 2083 0 296 297 291 292 ?0 0 30
 295 1667 0 297 292 298 0 +-.0060452 .2277618 .0201675999999993 0 1 0 16 297 208
2 0 257 299 294 295 ?0 0 30 298 1666 0 299 295 300 0 +-.0146812 .2277618 .025958
7999999993 0 0 1 16 299 2081 0 301 255 297 298 ?0 0 31 300 1665 0 255 298 302 0
 +-.0060452 .2277618 .0288035999999993 0 -1 0 -1 0 0 .008636 16 255 2080 0 232 3
03 299 300 ?0 0 31 302 1664 0 303 300 304 0 +.0060452 .2277618 .0288035999999993
 0 -1 0 -1 0 0 .008636 16 303 2079 0 237 305 255 302 ?0 0 30 304 1663 0 305 302
 306 0 -.0060452 .2277618 .0201675999999993 0 1 0 16 305 2078 0 235 307 303 304
 ?0 0 30 306 1662 0 307 304 308 0 --.0146812 .2277618 .0288035999999993 0 1 0 16
 307 2077 0 309 310 305 306 ?0 0 30 308 1654 0 311 306 312 0 +.0066802 .2308225
 .0254761999999993 0 1 0 16 311 2066 0 313 314 315 308 ?0 0 30 312 1653 0 314 30
8 316 0 +.0027178 .2308225 .0254761999999993 0 1 0 16 314 2065 0 317 318 311 312
 ?0 0 31 316 1652 0 318 312 319 0 +-.004699 .220726 .0267461999999993 0 -1 0 -1
 0 0 .0019812 16 318 2064 0 320 321 314 316 ?0 0 30 319 1651 0 321 316 322 0 +-.
002717799999999965 .2293112 .0254761999999993 0 1 0 16 321 2063 0 323 324 318 31
9 ?0 0 30 322 1650 0 324 319 325 0 +-.0066802 .2293112 .0254761999999993 0 -1 0
 16 324 2062 0 326 327 321 322 ?0 0 30 325 1649 0 327 322 328 0 +-.0027177999999
99965 .2277999 .0254761999999993 0 0 1 16 327 2061 0 216 329 324 325 ?0 0 30 328
 1648 0 329 325 330 0 +-.002717799999999965 .2308225 .0254761999999993 0 0 1 16
 329 2060 0 331 332 327 328 ?274 274 30 330 1647 0 332 328 333 0 +-.0066802 .230
8225 .0254761999999993 0 0 1 16 332 2059 0 334 335 329 330 ?336 336 30 333 1646
 0 335 330 337 0 +-.0066802 .2277999 .0254761999999993 0 0 1 16 335 2058 0 338 3
39 332 333 ?0 0 31 337 1645 0 339 333 340 0 +-.004699 .2308225 .0254761999999993
 0 0 1 0 -1 0 .0019812 16 339 2057 0 341 342 335 337 ?343 343 31 340 1644 0 342
 337 344 0 +-.004699 .2277999 .0254761999999993 0 0 1 0 -1 0 .0019812 16 342 205
6 0 345 346 339 340 ?0 0 30 344 1643 0 346 340 347 0 +-.002717799999999965 .2277
999 .0254761999999993 0 0 1 16 346 2055 0 348 349 342 344 ?0 0 30 347 1642 0 349
 344 350 0 +-.0066802 .2277999 .0254761999999993 0 0 1 16 349 2054 0 351 352 346
 347 ?0 0 31 350 1641 0 352 347 353 0 +-.004699 .2277999 .0254761999999993 0 0 1
 0 -1 0 .0019812 16 352 2053 0 354 355 349 350 ?0 0 30 353 1640 0 355 350 356 0
 --.003178390438015045 .220726 .0254761999999993 0 1 0 16 355 2052 0 207 357 352
 353 ?0 0 30 356 1638 0 357 353 358 0 +-.00621960956198489 .220726 .025476199999
9993 0 1 0 16 357 2050 0 22 359 355 356 ?0 0 32 358 1637 0 359 356 360 0 --.0046
99 .2277999 .0267461999999993 0 .707106781186548 .707106781186548 0 -.7071067811
86548 .707106781186548 .002801839909773575 .0019812 16 359 2049 0 361 362 357 35
8 ?363 363 32 360 1636 0 362 358 364 0 +-.004699 .2277999 .0267461999999993 0 -.
707106781186548 .707106781186548 0 .707106781186548 .707106781186548 .0028018399
09773575 .0019812 16 362 2048 0 210 365 359 360 ?0 0 32 364 1634 0 365 360 366 0
 +-.004699 .2277999 .0267461999999993 0 -.707106781186548 .707106781186548 0 .70
7106781186548 .707106781186548 .002801839909773575 .0019812 16 365 2046 0 367 36
8 362 364 ?0 0 31 366 1633 0 368 364 369 0 +-.0174498 .2249932 .0290575999999993
 -1 0 0 0 1 0 .0015875 16 368 2045 0 370 371 365 366 ?0 0 30 369 1630 0 371 366
 372 0 +-.0084328 .2293112 .0254761999999993 0 1 0 16 371 2042 0 373 374 368 369
 ?0 0 30 372 1629 0 374 369 375 0 +-.0123952 .2293112 .0254761999999993 0 -1 0 1
6 374 2041 0 376 377 371 372 ?0 0 30 375 1628 0 377 372 378 0 +-.0084328 .227799
9 .0254761999999993 0 0 1 16 377 2040 0 379 380 374 375 ?0 0 30 378 1627 0 380 3
75 381 0 +-.0084328 .2308225 .0254761999999993 0 0 1 16 380 2039 0 382 383 377 3
78 ?0 0 30 381 1626 0 383 378 384 0 +-.0123952 .2308225 .0254761999999993 0 0 1
 16 383 2038 0 385 386 380 381 ?0 0 30 384 1625 0 386 381 387 0 +-.0123952 .2277
999 .0254761999999993 0 0 1 16 386 2037 0 388 389 383 384 ?0 0 31 387 1624 0 389
 384 390 0 +-.010414 .2308225 .0254761999999993 0 0 1 0 -1 0 .0019812 16 389 203
6 0 391 392 386 387 ?0 0 31 390 1623 0 392 387 393 0 +-.010414 .2277999 .0254761
999999993 0 0 1 0 -1 0 .0019812 16 392 2035 0 394 395 389 390 ?0 0 38 393 1622 0
 395 390 396 0 +397 398 399 400 400 16 395 2034 0 401 402 392 393 ?0 0 31 396 16
21 0 402 393 403 0 +.0174498 .2249932 .0290575999999993 1 0 0 0 -1 0 .0015875 51
 397 1514 0 404 405 398 406 +-.010414 .2277999 .0254761999999993 0 0 1 .0019812
 0 -1 0 51 398 1513 0 1 397 407 408 +-.0174498 .2249932 .0290575999999993 1 0 0
 .0015875 0 1 0 40 24 399 0 24 .0001100817885738718 .3996159590366185 ??-.009090
16403920093 .226325921781405 .0299201595071471 -.00938327995393945 .226107927888
336 .0301878822589799 -.00976722065759339 .2259272468227575 .0303412326510707 -.
01023471380006676 .2258268288156495 .0304086067533942 -.010779362168054 .2258526
80462774 .0303923095504672 -.0113007684348029 .2260282354767235 .030261285096661
2 -.01167745407113582 .2262738471666645 .0299957359627014 -.01187869759383908 .2
264658031524655 .02965055548344585 -.01196497725642306 .2265671701066095 .029264
41961584715 -.0119650077632735 .2265672084902275 .02885107270714945 -.0118750945
4384622 .226461858082143 .0284549394921208 -.01168837206901896 .226282952647682
 .0281320221492504 -.01141013135568752 .2260873359100415 .0279073726918736 -.011
0390319013216 .2259198764463365 .0277686364575337 -.01056451246294704 .225824425
5156045 .0277051132561796 -.0100180974851783 .225858659510324 .0277267596316642
 -.00950172281198902 .2260412346616725 .0278652160023144 -.00913531143335636 .22
628658939423 .02813711093168075 -.00894204368952101 .2264738162695965 .028484946
77840125 -.0089010804732217 .2265207487401825 .0286254529227591 -.00885260285669
908 .226580395018095 .0290264836934174 -.00888990865516341 .2265340804976245 .02
943949467401375 -.00902115118692633 .226390955138084 .0298102199731329 -.0090901
6403920093 .226325921781405 .0299201595071471 41 1 400 H-.00909016403920093 .226
325921781405 .0299201595071471 51 407 1511 0 409 398 410 0 +.0174498 .2249932 .0
290575999999993 -1 0 0 .0015875 0 1 0 141 408 393 408 408 398 14 409 1827 0 404
 411 412 5 407 -?0 0 50 410 1509 0 411 407 413 0 +.0123952 .2293112 .02547619999
99993 1 0 0 0 0 -1 14 411 1818 414 409 415 416 5 410 -?0 0 50 413 1508 0 415 410
 417 0 +.0084328 .2293112 .0254761999999993 -1 0 0 0 0 1 14 415 1814 418 411 419
 420 5 413 -?0 0 51 417 1507 0 419 413 421 0 +.010414 .2308225 .0317499999999993
 0 0 -1 .0019812 0 1 0 14 419 1810 422 415 423 424 5 417 -?0 0 50 421 1506 0 423
 417 425 0 +.010414 .2277999 .0254761999999993 0 0 -1 0 1 0 14 423 1806 426 419
 427 428 5 421 -?0 0 51 425 1505 0 427 421 429 430 +.010414 .2277999 .0254761999
999993 0 0 1 .0019812 0 -1 0 14 427 1801 431 423 432 433 5 425 -?0 0 51 429 1504
 0 1 425 434 435 +.0174498 .2249932 .0290575999999993 -1 0 0 .0015875 0 1 0 141
 430 436 430 430 425 38 436 1610 0 437 438 439 0 +425 429 440 441 441 16 437 202
2 0 442 443 444 436 ?0 0 31 438 1611 0 444 445 436 0 +.010414 .2277999 .02547619
99999993 0 0 1 0 -1 0 .0019812 31 439 1609 0 443 436 446 0 +.004699 .22225 .0227
075999999993 0 -1 0 -1 0 0 .0014605 40 24 440 0 24 .0001100817885738718 .3996159
59036621 ??.0090901640392001 .226325921781405 .0281950404928527 .009383279953938
53 .2261079278883365 .02792731774101935 .00976722065759234 .225927246822758 .027
77396734892825 .0102347138000654 .22582682881565 .02770659324660455 .01077936216
805256 .2258526804627735 .0277228904495312 .01130076843480168 .2260282354767225
 .0278539149033369 .01167745407113506 .226273847166664 .02811946403729635 .01187
869759383878 .226465803152465 .0284646445165518 .01196497725642298 .226567170106
6095 .02885078038415035 .01196500776327366 .2265672084902275 .029264127292848 .0
1187509454384666 .2264618580821435 .0296602605078768 .01168837206901964 .2262829
526476825 .0299831778507475 .0114101313556885 .226087335910042 .0302078273081245
 .01103903190132282 .2259198764463365 .03034656354246465 .01056451246294854 .225
8244255156045 .03041008674381895 .01001809748517986 .2258586595103235 .030388440
3683346 .00950172281199033 .2260412346616715 .0302499839976848 .0091353114333571
6 .2262865893942295 .02997808906831875 .0089420436895214 .226473816269596 .02963
02532215984 .00889616082637331 .2265265902643095 .0294685386174606 .008852381431
32151 .22658067857386 .0290658478806434 .00889461398392692 .2265284364440295 .02
865361322927005 .009031232760171 .2263810595577885 .0282868846842984 .0090901640
392001 .226325921781405 .0281950404928527 41 1 441 H.0090901640392001 .226325921
781405 .0281950404928527 16 443 2021 0 447 448 437 439 ?0 0 30 446 1607 0 449 43
9 450 0 +.0027178 .2277872 .0254761999999993 0 0 1 16 449 2068 0 451 315 310 446
 ?0 0 31 450 1606 0 315 446 452 0 -.004699 .2277872 .0254761999999993 0 0 -1 0 1
 0 .0019812 16 315 2067 0 453 311 449 450 ?0 0 30 452 1605 0 310 450 454 0 +.006
6802 .2277872 .0254761999999993 0 0 1 16 310 2069 0 455 449 307 452 ?0 0 30 454
 1604 0 448 452 456 0 +.0027178 .2348 .0286130999999993 0 0 1 16 448 2019 0 457
 458 443 454 ?0 0 30 456 1603 0 458 454 459 0 +.004699 .2348 .0254761999999993 -
1 0 0 16 458 2018 0 172 460 448 456 ?0 0 30 459 1602 0 460 456 461 0 +-.0146812
 .2348 .0259587999999993 0 0 1 16 460 2017 0 462 463 458 459 ?0 0 31 461 1601 0
 463 459 464 0 --.0060452 .2348 .0288035999999993 0 -1 0 0 0 -1 .008636 16 463 2
016 0 465 466 460 461 ?0 0 30 464 1600 0 466 461 467 0 +.0066802 .2348 .02547619
99999993 0 0 -1 16 466 2015 0 169 468 463 464 ?0 0 30 467 1599 0 468 464 469 0 +
277555756156289e-31 .2348 .0201675999999993 -1 0 0 16 468 2014 0 470 471 466 467
 ?0 0 31 469 1598 0 471 467 472 0 -.0060452 .2348 .0288035999999993 0 -1 0 0 0 -
1 .008636 16 471 2013 0 473 474 468 469 ?0 0 30 472 1597 0 474 469 475 0 +.01468
12 .2348 .0259587999999993 0 0 -1 16 474 2012 0 476 477 471 472 ?0 0 30 475 1596
 0 477 472 478 0 +.0146812 .2277618 .031749 0 1 0 16 477 2011 0 479 480 474 475
 ?0 0 30 478 1595 0 480 475 481 0 +.0162433 .2277618 .031749 -1 0 0 16 480 2010
 0 482 483 477 478 ?0 0 30 481 1594 0 483 478 484 0 +0 .2348 .031749 1 0 0 16 48
3 2009 0 142 485 480 481 ?486 486 30 484 1593 0 485 481 487 0 +.0174498 .22225 .
031749 0 1 0 16 485 2008 0 488 489 483 484 ?0 0 30 487 1592 0 489 484 490 0 +.01
477327500000002 .22225 .031749 1 0 0 16 489 2007 0 491 492 485 487 ?0 0 30 490 1
591 0 492 487 493 0 +-.0174498 .22225 .031749 0 -1 0 16 492 2006 0 494 495 489 4
90 ?0 0 30 493 1590 0 495 490 496 0 +-.0162433 .2277618 .031749 -1 0 0 16 495 20
05 0 497 498 492 493 ?0 0 30 496 1589 0 498 493 499 0 +.0066802 .2293112 .031749
 0 1 0 16 498 2004 0 136 500 495 496 ?0 0 30 499 1588 0 500 496 501 0 +-.0146812
 .2277618 .031749 0 -1 0 16 500 2003 0 502 503 498 499 ?0 0 31 501 1587 0 503 49
9 504 0 -.004699 .2277872 .031749 0 0 -1 -1 0 0 .0019812 16 503 2002 0 121 505 5
00 501 ?0 0 30 504 1586 0 505 501 506 0 +.0027178 .2308225 .031749 0 -1 0 16 505
 2001 0 115 486 503 504 ?0 0 30 506 1585 0 507 504 508 0 +-.002717799999999965 .
2293112 .031749 0 1 0 16 507 1999 0 151 509 486 506 ?0 0 31 508 1584 0 509 506 5
10 0 --.004699 .2308225 .031749 0 0 -1 -1 0 0 .0019812 16 509 1998 0 106 511 507
 508 ?0 0 31 510 1583 0 511 508 512 0 --.004699 .2277999 .031749 0 0 -1 -1 0 0 .
0019812 16 511 1997 0 109 513 509 510 ?0 0 30 512 1582 0 513 510 514 0 +-.006680
2 .2293112 .031749 0 -1 0 16 513 1996 0 103 515 511 512 ?0 0 30 514 1581 0 515 5
12 516 0 +-.0084328 .2293112 .031749 0 1 0 16 515 1995 0 148 517 513 514 ?0 0 31
 516 1580 0 517 514 518 0 --.010414 .2308225 .031749 0 0 -1 -1 0 0 .0019812 16 5
17 1994 0 97 519 515 516 ?0 0 31 518 1579 0 519 516 520 0 --.010414 .2277999 .03
1749 0 0 -1 -1 0 0 .0019812 16 519 1993 0 100 521 517 518 ?0 0 30 520 1578 0 521
 518 522 0 +-.0123952 .2293112 .031749 0 -1 0 16 521 1992 0 94 523 519 520 ?0 0
 30 522 1577 0 523 520 524 0 +.0123952 .2293112 .031749 0 1 0 16 523 1991 0 145
 525 521 522 ?0 0 31 524 1576 0 525 522 526 0 -.010414 .2308225 .031749 0 0 -1 -
1 0 0 .0019812 16 525 1990 0 88 527 523 524 ?0 0 31 526 1575 0 527 524 528 0 -.0
10414 .2277999 .031749 0 0 -1 -1 0 0 .0019812 16 527 1989 0 91 282 525 526 ?0 0
 30 528 1574 0 282 526 529 0 +.0084328 .2293112 .031749 0 -1 0 16 282 1988 0 85
 280 527 528 ?0 0 30 529 1573 0 530 528 531 0 +-.014162 .22225 .02784 0 0 -1 16
 530 2103 0 82 532 533 529 ?0 0 30 531 1572 0 533 529 534 0 +-.0134 .22225 .0263
16 1 0 0 16 533 2104 0 74 530 535 531 ?0 0 30 534 1571 0 536 531 537 0 +-.012638
 .22225 .02784 0 0 1 16 536 2101 0 79 538 532 534 ?0 0 30 537 1570 0 532 534 539
 0 +-.0134 .22225 .029364 -1 0 0 16 532 2102 0 76 536 530 537 ?0 0 30 539 1569 0
 538 537 540 0 +-.014162 .22225 .026316 0 -1 0 16 538 2100 0 72 541 536 539 ?0 0
 30 540 1568 0 541 539 542 0 +-.012638 .22225 .026316 0 -1 0 16 541 2099 0 69 54
3 538 540 ?0 0 30 542 1567 0 543 540 544 0 +-.012638 .22225 .029364 0 -1 0 16 54
3 2098 0 66 545 541 542 ?0 0 30 544 1566 0 545 542 546 0 +-.014162 .22225 .02936
4 0 -1 0 16 545 2097 0 62 547 543 544 ?0 0 30 546 1565 0 547 544 548 0 +-.0134 .
220726 .026316 -1 0 0 16 547 2096 0 549 550 545 546 ?0 0 30 548 1564 0 550 546 5
51 0 +-.012638 .220726 .02784 0 0 -1 16 550 2095 0 552 553 547 548 ?0 0 30 551 1
563 0 553 548 554 0 +-.0134 .220726 .029364 1 0 0 16 553 2094 0 555 288 550 551
 ?0 0 30 554 1562 0 288 551 556 0 +-.014162 .220726 .02784 0 0 1 16 288 2093 0 5
57 284 553 554 ?0 0 30 556 1561 0 558 554 559 0 +.012188 .22225 .02784 0 0 -1 16
 558 2115 0 58 560 561 556 ?0 0 30 559 1560 0 561 556 562 0 +.01295 .22225 .0263
16 1 0 0 16 561 2116 0 48 558 0 559 ?0 0 30 562 1559 0 563 559 564 0 +.013712 .2
2225 .02784 0 0 1 16 563 2113 0 55 565 560 562 ?0 0 30 564 1558 0 560 562 566 0
 +.01295 .22225 .029364 -1 0 0 16 560 2114 0 51 563 558 564 ?0 0 30 566 1557 0 5
65 564 567 0 +.012188 .22225 .026316 0 -1 0 16 565 2112 0 45 568 563 566 ?0 0 30
 567 1556 0 568 566 569 0 +.013712 .22225 .026316 0 -1 0 16 568 2111 0 42 570 56
5 567 ?0 0 30 569 1555 0 570 567 571 0 +.013712 .22225 .029364 0 -1 0 16 570 211
0 0 39 572 568 569 ?0 0 30 571 1554 0 572 569 573 0 +.012188 .22225 .029364 0 -1
 0 16 572 2109 0 35 574 570 571 ?0 0 30 573 1553 0 574 571 575 0 +.01295 .220726
 .026316 -1 0 0 16 574 2108 0 576 577 572 573 ?0 0 30 575 1552 0 577 573 578 0 +
.013712 .220726 .02784 0 0 -1 16 577 2107 0 579 580 574 575 ?0 0 30 578 1551 0 5
80 575 581 0 +.01295 .220726 .029364 1 0 0 16 580 2106 0 582 535 577 578 ?0 0 30
 581 1550 0 535 578 583 0 +.012188 .220726 .02784 0 0 1 16 535 2105 0 584 533 58
0 581 ?0 0 32 583 2272 0 585 581 586 0 --.004699 .2308225 .0267461999999993 0 -.
707106781186548 -.707106781186548 0 .707106781186548 -.707106781186548 .00280183
9909773575 .0019812 16 585 2322 0 25 587 343 583 ?587 587 32 586 2267 0 588 583
 589 0 +-.004699 .2308225 .0267461999999993 0 .707106781186548 -.707106781186548
 0 -.707106781186548 -.707106781186548 .002801839909773575 .0019812 16 588 2315
 0 590 591 587 586 ?0 0 31 589 2263 0 591 586 592 0 +-.004699 .2348 .02674619999
99993 0 -1 0 0 0 -1 .0019812 16 591 2310 0 593 363 588 589 ?0 0 38 592 2343 0 59
4 589 595 0 +434 596 597 598 598 16 594 2430 0 599 600 363 592 ?0 0 38 595 2381
 0 600 592 14 0 +601 596 602 603 603 51 434 1501 0 604 429 605 606 +.004699 .227
7872 .0254761999999993 0 0 1 .0019812 0 -1 0 51 596 2371 0 1 607 13 608 +-.17619
98 .2249932 .0290575999999993 1 0 0 .0015875 0 0 -1 40 23 597 0 23 .000110675768
204781 .3924767359566005 ??.00345789130334559 .2262429192294805 .028078642527584
3 .003805571905029785 .2260188845080365 .02784593687025825 .004235104024069915 .
225861075922087 .02772833417486815 .00474510447872268 .2258065365210005 .0276942
8053868195 .00529827358759398 .2258988079307485 .0277537478129143 .0057739858617
666 .226123000842146 .02794238418810975 .00607329768328004 .226360154339297 .028
25038746028145 .00621998384115256 .226517648270076 .0286146398191002 .0062700690
4399192 .226580180737929 .02901699966204135 .00623489161014245 .226535724709835
 .0294327983069639 .00610608802140471 .2263924753891825 .0298073897273413 .00588
12492468878 .226197407510952 .0300920276294479 .00556650519681842 .2260060239352
91 .0302800336080542 .00515321272703245 .225858769488262 .0303883688420563 .0046
3976714646159 .2258068856539775 .03042071111304585 .004086976914487765 .22590290
1408269 .0303585994611039 .003614656756920785 .2261290826425165 .030166620681696
55 .00331973483543663 .2263649549276505 .0298566273264825 .00317582339315597 .22
65202799297655 .02949140080464085 .00312775987916623 .2265804034460265 .02908828
339814315 .003165047603258325 .2265333485396865 .0286727640275359 .0032961726926
18865 .226388189998011 .02829986709491345 .00345789134420599 .2262429193439945 .
0280786424875166 41 1 598 H.00345789130334559 .2262429192294805 .028078642527584
3 50 607 1489 0 609 610 596 0 +.01295 .220726 .02784 0 -1 0 0 0 -1 51 13 2446 0
 611 596 6 0 +.004699 .22225 .0227075999999993 0 1 0 .0014605 1 0 0 141 608 592
 612 613 596 141 612 14 613 608 596 141 613 595 608 612 596 38 14 2380 0 614 595
 7 0 +615 596 616 617 617 16 614 2428 0 618 11 600 14 ?0 0 51 615 1523 0 619 620
 621 622 +-.004699 .220726 .0267461999999993 0 1 0 .0019812 1 0 0 40 26 616 0 26
 .0001291530774878136 .3998884908483735 ??-.00618178012592014 .2237581740195475
 .0280601697630366 -.00582505202666572 .223559338401115 .02837627983646195 -.005
37524969016236 .223470574668045 .028608413681765 -.00481342983402238 .2234411274
876165 .028724092629311 -.004179054593166445 .2234568274025495 .0286579557934815
 -.003596358274342255 .223551878857691 .02839220566974605 -.00325015206929807 .2
237289409120595 .0280974931264899 -.00301697159134818 .2240334518055995 .0277930
686032577 -.00290173312825593 .2244131706295555 .02757985774255995 -.00285693163
274602 .224861883587389 .02747554050371635 -.002871101466648985 .225348452588911
5 .02751035992552095 -.00295758545842652 .2258009959868635 .0276909903653166 -.0
0313831162988448 .2261464134479505 .02796661191873255 -.00341257532447559 .22636
1658367269 .0282529398561795 -.00378427819989307 .2264808944575395 .028503595080
341 -.00428186698289577 .2265358675622345 .02868298947901905 -.00489366093797686
 .226543910003967 .0287178136942168 -.00551823482984278 .226497389696482 .028550
08684056675 -.00602981808655811 .226337926090157 .02821387730121025 -.0063308105
9015938 .226046362234345 .02786974245039615 -.00647315334390806 .225683372923361
 .0276279785165781 -.0065346885397867 .225252695093867 .02749145232297175 -.0065
3696655890039 .224770371687513 .02748581636566725 -.00647257205312576 .224300611
6571945 .0276291471175388 -.00631861588395504 .223920614374777 .0278872511944864
5 -.00618178012592014 .2237581740195475 .0280601697630366 41 1 617 H-.0061817801
2592014 .2237581740195475 .0280601697630366 14 619 1867 0 623 624 625 5 615 -?0
 0 50 620 1525 0 626 627 615 0 +-.004699 .2277999 .0254761999999993 0 0 -1 0 1 0
 50 621 1518 0 624 615 628 0 +-.0084328 .2293112 .0254761999999993 1 0 0 0 0 -1
 141 622 14 622 622 615 14 624 1849 629 619 630 631 5 621 -?0 0 50 628 1517 0 63
0 621 632 0 +-.0123952 .2293112 .0254761999999993 -1 0 0 0 0 1 14 630 1845 633 6
24 634 635 5 628 -?0 0 51 632 1516 0 634 628 405 0 +-.010414 .2308225 .031749999
9999993 0 0 -1 .0019812 0 1 0 14 634 1841 636 630 637 638 5 632 -?0 0 50 405 151
5 0 637 632 397 0 +-.010414 .2277999 .0254761999999993 0 0 -1 0 1 0 14 637 1837
 639 634 404 640 5 405 -?0 0 81 1 639 1838 641 637 642 0 643 636 644 14 404 1832
 643 637 409 645 5 397 -?0 0 15 640 1840 0 394 637 0 17 394 640 373 376 200 646
 392 0 17 373 640 391 394 193 204 371 0 17 376 640 394 391 197 202 374 0 17 646
 647 388 648 197 394 392 0 15 647 1836 0 388 404 0 17 388 647 100 646 92 199 386
 0 17 648 647 646 100 200 379 377 0 17 100 647 648 388 98 649 519 0 17 379 631 1
48 204 98 648 377 0 15 631 1852 0 379 624 0 17 148 631 195 379 146 650 515 0 17
 204 631 379 195 200 373 371 0 17 195 631 204 148 193 382 380 0 17 382 638 97 65
1 146 195 380 0 15 638 1844 0 382 634 0 17 97 638 652 382 95 653 517 0 17 651 63
8 382 652 193 391 389 0 17 652 638 651 97 196 385 383 0 17 391 640 376 373 196 6
51 389 0 17 385 635 94 202 95 652 383 0 15 635 1848 0 385 630 0 17 94 635 199 38
5 92 654 521 0 17 202 635 385 199 196 376 374 0 17 199 635 202 94 197 388 386 0
 17 654 655 653 649 95 94 521 0 15 655 1785 0 653 656 657 17 653 655 650 654 146
 97 517 0 17 649 655 654 650 92 100 519 0 17 650 655 649 653 98 148 515 0 14 656
 1784 0 432 658 655 5 659 -?0 0 15 657 1786 0 502 656 660 17 502 657 497 661 122
 118 500 0 15 660 1787 0 662 656 663 17 662 660 664 665 149 106 509 0 15 663 178
8 0 666 656 0 17 666 663 667 668 143 88 525 0 17 667 663 669 666 89 145 523 0 17
 668 663 666 669 86 85 282 0 17 88 424 670 671 86 666 525 0 15 424 1813 0 671 41
9 0 17 670 424 672 88 184 673 674 0 17 671 424 88 672 143 183 675 0 17 672 424 6
71 670 173 676 677 0 17 183 416 192 145 173 671 675 0 16 675 2027 0 671 674 678
 679 ?0 0 16 674 2026 0 673 680 675 681 ?0 0 16 678 2028 0 682 675 683 684 ?0 0
 30 679 1615 0 675 684 681 0 +.0123952 .2308225 .0254761999999993 0 0 1 30 684 1
616 0 678 685 679 0 +.0123952 .2277999 .0254761999999993 0 0 1 30 681 1614 0 674
 679 686 0 +.0084328 .2308225 .0254761999999993 0 0 1 30 686 1613 0 680 681 445
 0 +.0084328 .2277999 .0254761999999993 0 0 1 16 680 2025 0 687 677 674 686 ?0 0
 31 445 1612 0 677 686 438 0 +.010414 .2308225 .0254761999999993 0 0 1 0 -1 0 .0
019812 16 677 2024 0 676 444 680 445 ?0 0 17 676 428 688 689 184 672 677 0 16 44
4 2023 0 690 437 677 438 ?0 0 17 690 428 689 688 188 691 444 0 15 428 1809 0 690
 423 0 17 689 428 676 690 173 192 692 0 17 688 428 690 676 185 190 683 0 17 691
 693 687 694 185 690 444 0 15 693 1805 0 687 427 0 17 687 693 91 691 83 187 680
 0 17 694 693 691 91 188 682 678 0 17 91 693 694 687 89 669 527 0 17 682 416 145
 192 89 694 678 0 15 416 1821 0 682 411 0 17 145 416 183 682 143 667 523 0 17 19
2 416 682 183 188 689 692 0 16 692 2030 0 689 683 402 403 ?0 0 16 683 2029 0 688
 678 692 685 ?0 0 16 402 2033 0 695 692 395 396 ?0 0 30 403 1618 0 692 396 685 0
 +.0123952 .2293112 .0254761999999993 0 1 0 30 685 1617 0 683 403 684 0 +.008432
8 .2293112 .0254761999999993 0 -1 0 17 695 696 695 695 0 697 402 0 15 696 1831 0
 695 409 0 17 697 698 697 697 0 695 402 0 15 698 1778 0 697 699 700 14 699 1777
 0 658 251 698 5 701 +?0 0 15 700 1779 0 281 699 0 17 281 700 133 276 137 240 28
0 0 17 133 700 263 281 131 488 485 0 17 276 700 281 263 238 702 264 0 17 240 703
 704 139 238 281 280 0 15 703 1783 0 704 658 0 17 704 703 237 240 233 279 277 0
 17 139 703 240 705 137 482 480 0 17 705 703 139 237 152 293 291 0 17 482 657 47
9 488 152 139 480 0 17 479 657 706 482 140 154 477 0 17 488 657 482 491 137 133
 485 0 17 491 657 488 494 131 130 489 0 17 494 657 491 497 128 127 492 0 17 130
 707 245 708 128 491 489 0 15 707 2206 0 243 709 710 17 245 707 243 130 32 270 2
68 0 17 708 707 130 243 131 263 259 0 17 243 707 708 245 52 273 271 0 17 263 700
 276 133 52 708 259 0 17 273 256 258 702 32 243 271 0 15 256 5 0 249 711 0 17 25
8 256 249 273 241 712 261 0 17 702 256 273 279 52 276 264 0 17 279 256 702 235 2
38 704 277 0 17 235 256 279 160 233 713 305 0 17 160 256 235 257 158 470 468 0 1
7 713 714 157 715 158 235 305 0 15 714 1936 0 157 716 0 17 157 714 717 713 155 4
73 471 0 17 715 714 713 717 233 237 303 0 17 717 714 715 157 63 296 294 0 17 237
 703 705 704 63 715 303 0 17 296 718 719 293 155 717 294 0 15 718 1944 0 154 720
 0 17 719 718 154 296 140 476 474 0 17 293 718 296 154 63 705 291 0 17 154 718 2
93 719 152 479 477 0 17 476 721 473 142 155 719 474 0 15 721 1790 0 462 432 0 17
 473 721 470 476 158 157 471 0 17 142 721 476 722 140 706 483 0 17 722 721 142 7
23 134 169 466 0 17 706 657 724 479 134 142 483 0 17 724 657 725 706 119 136 498
 0 17 725 657 726 724 113 121 503 0 17 136 727 169 455 134 724 498 0 15 727 1911
 0 455 728 0 17 169 727 176 136 167 722 466 0 17 455 727 136 176 119 729 310 0 1
7 176 727 455 169 174 313 311 0 17 729 730 731 121 174 455 310 0 15 730 1915 0 4
51 604 0 17 731 730 451 729 177 453 315 0 17 121 730 729 451 119 725 503 0 17 45
1 730 121 731 113 180 449 0 17 180 732 317 115 177 451 449 0 15 732 1903 0 457 7
33 0 17 317 732 457 180 170 734 314 0 17 115 732 180 457 113 726 505 0 17 457 73
2 115 317 110 735 448 0 17 726 657 661 725 110 115 505 0 17 661 657 502 726 116
 112 486 0 17 112 721 735 462 110 661 486 0 16 486 2000 0 112 507 505 481 ?483 4
83 17 735 721 723 112 170 457 448 0 17 462 721 112 465 116 166 460 0 17 465 721
 462 470 164 163 463 0 17 166 736 309 118 164 462 460 0 15 736 1940 0 118 737 0
 17 309 736 301 166 178 738 307 0 17 118 736 166 301 116 502 500 0 17 301 736 11
8 309 122 229 299 0 17 229 247 232 124 178 301 299 0 17 124 247 229 248 122 497
 495 0 17 497 657 494 502 125 124 495 0 17 738 739 163 254 164 309 307 0 15 739
 1932 0 163 740 0 17 163 739 741 738 161 465 463 0 17 254 739 738 741 178 232 25
5 0 17 741 739 254 163 230 257 297 0 17 257 256 160 249 161 741 297 0 14 740 192
9 742 716 604 739 5 743 +?0 0 81 1 742 1930 641 740 744 0 745 746 747 14 716 193
3 746 737 740 714 5 748 +?0 0 14 604 1912 745 740 728 749 5 434 -?0 0 51 743 153
8 0 740 748 750 0 +-.0060452 .2277618 .0288035999999993 0 1 0 .008636 1 0 0 51 7
48 1539 0 716 751 743 0 +.0060452 .2277618 .0288035999999993 0 1 0 .008636 1 0 0
 50 750 1534 0 728 743 752 0 +.0066802 .2293112 .0254761999999993 1 0 0 0 0 -1 1
4 728 1908 753 604 754 727 5 750 -?0 0 50 752 1533 0 754 750 755 0 +.004699 .230
8225 .0254761999999993 0 0 -1 0 1 0 14 754 1904 756 728 733 757 5 752 -?0 0 50 7
55 1532 0 733 752 758 0 +.0027178 .2308225 .0286130999999993 -1 0 0 0 1 0 14 733
 1900 759 754 760 732 5 755 -?0 0 50 758 1531 0 760 755 761 0 +-.002717799999999
965 .2293112 .0254761999999993 1 0 0 0 0 -1 14 760 1896 762 733 763 764 5 758 -?
0 0 50 761 1530 0 763 758 765 0 +-.0066802 .2293112 .0254761999999993 -1 0 0 0 0
 1 14 763 1892 766 760 767 768 5 761 -?0 0 51 765 1529 0 767 761 769 0 +-.004699
 .2308225 .0317499999999993 0 0 -1 .0019812 0 1 0 14 767 1888 770 763 626 771 5
 765 -?772 773 51 769 1528 0 774 765 601 0 +-.004699 .2277999 .0254761999999993
 0 0 1 .0019812 0 -1 0 14 774 1880 775 626 776 777 5 769 -?0 0 51 601 1527 0 776
 769 627 778 +-.004699 .2277999 .0254761999999993 0 0 1 .0019812 0 -1 0 14 776 1
876 779 774 623 780 5 601 -?0 0 51 627 1526 0 623 601 620 0 +-.004699 .2277999 .
0254761999999993 0 0 1 .0019812 0 -1 0 141 778 595 778 778 601 14 623 1872 781 7
76 619 782 5 627 -?0 0 81 1 781 1873 641 623 783 0 629 779 784 15 782 1875 0 210
 623 0 17 210 782 785 338 208 786 362 0 17 785 782 338 210 221 345 342 0 17 338
 782 210 785 211 223 335 0 17 786 787 788 789 211 210 362 0 15 787 1870 0 788 61
9 790 17 788 787 618 786 17 213 363 0 17 789 787 786 791 208 22 357 0 17 791 787
 789 792 20 31 587 0 17 22 793 794 345 20 789 357 0 15 793 2247 0 22 795 0 17 79
4 793 326 22 220 796 343 0 17 345 793 22 326 208 785 342 0 17 326 793 345 794 22
1 225 324 0 17 225 768 797 223 220 326 324 0 15 768 1895 0 798 763 0 17 797 768
 334 225 29 799 336 0 17 223 768 225 798 221 338 335 0 17 798 768 223 103 211 35
1 349 0 17 103 768 798 334 101 665 513 0 17 351 780 109 213 101 798 349 0 15 780
 1879 0 361 776 0 17 109 780 800 351 107 801 511 0 17 213 780 351 19 211 788 363
 0 17 19 780 213 361 17 16 600 0 16 363 2348 0 213 594 591 358 ?359 359 17 361 7
80 19 800 12 802 359 0 17 16 803 804 804 12 19 600 0 16 600 2429 0 19 614 594 59
5 ?0 0 15 803 2400 0 16 409 805 17 804 803 16 16 17 618 614 0 17 618 787 802 788
 12 804 614 0 17 802 787 806 618 214 361 359 0 17 806 787 807 802 205 367 365 0
 17 807 787 28 806 23 207 355 0 17 367 777 808 809 214 806 365 0 15 777 1883 0 3
67 774 0 17 808 777 809 367 181 216 327 0 17 809 777 367 808 205 354 352 0 17 35
4 810 323 207 181 809 352 0 15 810 1887 0 341 626 0 17 323 810 341 354 217 227 3
21 0 17 207 810 354 341 205 807 355 0 17 341 810 207 323 23 811 339 0 17 811 812
 331 25 217 341 339 0 15 812 2237 0 331 772 0 17 331 812 25 811 26 219 329 0 17
 25 812 811 331 23 28 585 0 17 28 787 792 807 26 25 585 0 17 792 787 791 28 29 5
90 588 0 17 590 813 814 815 26 792 588 0 15 813 2232 0 815 773 0 17 814 813 106
 590 149 816 274 0 17 815 813 590 106 29 334 332 0 17 106 813 815 814 104 662 50
9 0 17 334 768 103 797 104 815 332 0 17 816 764 219 151 26 814 274 0 16 274 2210
 0 814 336 271 328 ?329 329 16 336 2218 0 797 343 274 330 ?332 332 16 343 2226 0
 794 585 336 337 ?339 339 15 764 1899 0 216 760 0 17 219 764 227 816 217 331 329
 0 17 151 764 816 348 149 664 507 0 17 348 764 151 216 107 800 346 0 17 664 660
 801 662 107 151 507 0 17 801 660 665 664 101 109 511 0 17 665 660 662 801 104 1
03 513 0 17 216 764 348 227 214 808 327 0 17 800 780 361 109 214 348 346 0 17 22
7 764 216 219 181 323 321 0 14 773 2233 817 709 772 813 5 765 -?767 772 81 1 817
 2235 818 773 819 0 820 821 822 14 709 1414 0 711 773 707 5 823 +?0 0 14 772 223
8 824 773 795 812 5 765 -?773 767 81 1 824 2240 641 772 821 0 819 825 826 14 795
 2248 827 772 611 793 5 620 -?626 626 81 1 827 2250 818 795 825 0 821 0 828 14 6
11 2463 0 795 10 829 5 13 +?0 0 14 626 1884 830 767 774 810 5 620 -?795 795 81 1
 830 1885 641 626 831 0 775 770 832 80 1 641 0 8001 833 0 0 0 0 3 5 0 0 FFFFTFTF
FFFF2 81 1 831 1886 818 626 0 830 834 835 836 81 1 775 1881 641 774 834 0 779 83
0 837 81 1 770 1889 641 767 835 0 830 766 838 83 3 832 0 1 0 81 1 835 1890 818 7
67 0 770 831 839 840 81 1 766 1893 641 763 839 0 770 762 841 83 3 838 0 1 0 81 1
 839 1894 818 763 0 766 835 842 843 81 1 762 1897 641 760 842 0 766 759 844 83 3
 841 0 1 0 81 1 842 1898 818 760 0 762 839 845 846 81 1 759 1901 641 733 845 0 7
62 756 847 83 3 844 0 1 0 81 1 845 1902 818 733 0 759 842 848 849 81 1 756 1905
 641 754 848 0 759 753 850 83 3 847 0 1 0 81 1 848 1906 818 754 0 756 845 851 85
2 81 1 753 1909 641 728 851 0 756 745 853 83 3 850 0 1 0 81 1 851 1910 818 728 0
 753 848 854 855 81 1 745 1913 641 604 854 0 753 742 856 83 3 853 0 1 0 81 1 854
 1914 818 604 0 745 851 744 857 83 3 856 0 1 0 80 1 818 858 8015 859 0 0 0 0 3 5
 0 0 FFFFTFFFFFFF2 81 1 744 1931 818 740 0 742 854 860 861 83 1 857 0 81 1 860 1
935 818 716 0 746 744 862 863 83 1 861 0 81 1 746 1934 641 716 860 0 742 864 865
 81 1 862 1939 818 737 0 864 860 866 867 83 1 863 0 14 737 1937 864 720 716 736
 5 751 +?0 0 81 1 864 1938 641 737 862 0 746 868 869 81 1 866 1943 818 720 0 868
 862 870 871 83 1 867 0 14 720 1941 868 872 737 718 5 873 +?0 0 81 1 868 1942 64
1 720 866 0 864 874 875 81 1 870 1955 818 872 0 874 866 820 876 83 1 871 0 14 87
2 1953 874 877 720 878 5 879 +?0 0 81 1 874 1954 641 872 870 0 868 880 881 81 1
 820 1960 818 877 0 880 870 817 882 83 1 876 0 14 877 1958 880 883 872 884 5 885
 +?0 0 81 1 880 1959 641 877 820 0 874 819 886 83 1 882 0 81 1 819 2234 641 773
 0 817 880 824 887 83 3 886 0 1 0 83 3 887 0 1 0 14 883 1963 0 888 877 889 5 890
 +?0 0 15 884 1961 0 290 877 891 51 885 1544 0 877 879 873 0 +-.004699 .22225 .0
267461999999993 0 -1 0 .003937 -1 0 0 50 879 1545 0 872 892 885 0 +-.004699 .220
726 .0267461999999993 0 -1 0 -1 0 0 50 873 1541 0 720 885 751 0 +.0146812 .22776
18 .0259587999999993 1 0 0 0 -1 0 50 751 1540 0 737 873 748 0 +-.0146812 .227761
8 .0259587999999993 -1 0 0 0 1 0 50 892 1546 0 658 701 879 0 +.1496128562373094
 .2277618 -.1236540562373102 0 1 0 0 0 1 14 658 1782 0 656 699 703 5 892 +?0 0 5
0 701 1548 0 699 893 892 0 +.0174498 .227763 .0201675999999993 1 0 0 0 0 -1 50 8
93 1353 0 251 823 701 0 +-.1496128562373094 .2277618 -.1236540562373102 0 1 0 0
 0 1 14 251 1418 0 699 894 247 5 893 +?0 0 50 823 1355 0 709 895 893 0 +-.149612
8562373094 .22225 -.1236540562373102 0 -1 0 0 0 -1 50 895 426 0 894 896 823 0 +-
.0174498 .227763 .0201675999999993 -1 0 0 0 0 1 14 894 10 0 251 711 897 5 895 +?
0 0 50 896 282 0 711 0 895 0 +0 .227763 .0201675999999993 0 0 -1 -1 0 0 14 711 4
 0 894 709 256 5 896 +?0 0 15 897 1924 0 898 894 899 17 898 897 898 898 0 370 36
8 0 15 899 11 0 270 894 0 17 270 899 127 712 128 245 268 0 17 127 899 252 270 12
5 494 492 0 17 712 899 270 252 32 258 261 0 17 252 899 712 127 241 248 253 0 16
 261 114 0 712 268 253 267 ?0 0 30 267 362 0 261 0 262 0 +-.0174498 .227763 .020
1675999999993 0 -1 0 17 370 412 370 370 0 898 368 0 15 412 1862 0 370 409 900 15
 900 2398 0 901 409 902 17 901 900 901 901 0 401 395 0 15 902 2399 0 903 409 803
 17 903 902 903 903 0 599 594 0 17 599 749 599 599 0 903 594 0 15 749 2341 0 599
 604 730 17 401 645 401 401 0 901 395 0 15 645 1835 0 401 404 647 17 290 884 290
 290 0 904 287 0 15 891 1962 0 286 877 0 17 286 891 286 286 0 905 284 0 17 905 9
06 905 905 0 286 284 0 15 906 1776 0 905 709 0 17 904 907 904 904 0 290 287 0 15
 907 1957 0 904 872 0 14 888 1965 0 908 883 909 5 910 +?0 0 15 889 1964 0 911 88
3 0 50 890 1494 0 883 910 912 0 +-.0134 .220726 .02784 0 -1 0 0 0 -1 50 910 1495
 0 888 913 890 0 +-.014162 .22225 .02784 -1 0 0 0 0 1 50 912 1493 0 914 890 915
 0 +.01295 .22225 .026316 0 0 -1 -1 0 0 14 914 1981 0 0 916 917 5 912 +?0 0 50 9
15 1492 0 916 912 918 0 +.013712 .22225 .02784 1 0 0 0 0 -1 14 916 1979 0 914 91
9 920 5 915 +?0 0 50 918 1491 0 919 915 610 0 +.01295 .22225 .029364 0 0 1 1 0 0
 14 919 1977 0 916 921 922 5 918 +?0 0 50 610 1490 0 921 918 607 0 +.012188 .222
25 .02784 -1 0 0 0 0 1 14 921 1975 0 919 609 923 5 610 +?0 0 14 609 1973 0 921 9
24 925 5 607 +?0 0 15 923 1976 0 45 921 0 17 45 923 584 58 43 926 565 0 17 584 9
23 927 45 33 928 535 0 17 58 923 45 927 56 929 558 0 17 926 917 48 576 56 45 565
 0 15 917 1982 0 48 914 0 17 48 917 42 926 46 930 561 0 17 576 917 926 42 43 931
 574 0 17 42 917 576 48 40 932 568 0 17 931 925 933 928 40 576 574 0 15 925 1974
 0 928 609 0 17 933 925 934 931 37 579 577 0 17 928 925 931 934 43 584 535 0 17
 934 925 928 933 33 582 580 0 17 582 922 935 35 37 934 580 0 15 922 1978 0 35 91
9 0 17 935 922 51 582 53 39 570 0 17 35 922 582 51 33 927 572 0 17 51 922 35 935
 49 936 560 0 17 927 923 58 584 49 35 572 0 17 936 710 937 929 53 51 560 0 15 71
0 1773 0 929 709 938 17 937 710 930 936 46 55 563 0 17 929 710 936 930 49 58 558
 0 17 930 710 929 937 56 48 561 0 17 55 920 39 932 53 937 563 0 15 920 1980 0 39
 916 0 17 39 920 579 55 37 935 570 0 17 932 920 55 579 46 42 568 0 17 579 920 93
2 39 40 933 577 0 15 938 1774 0 939 709 940 17 939 938 941 942 59 82 530 0 15 94
0 1775 0 943 709 906 17 943 940 943 943 0 447 443 0 17 447 829 447 447 0 943 443
 0 15 829 2464 0 447 611 944 15 944 2465 0 945 611 0 17 945 944 945 945 0 946 11
 0 17 946 947 946 946 0 945 11 0 16 11 2467 0 945 0 614 7 ?0 0 15 947 2457 0 946
 10 0 14 10 2456 0 611 0 947 5 6 +?0 0 17 941 938 948 939 77 76 532 0 17 942 938
 939 948 80 74 533 0 17 82 909 72 949 80 939 530 0 15 909 1966 0 72 888 0 17 72
 909 557 82 70 950 538 0 17 949 909 82 557 59 62 545 0 17 557 909 949 72 60 911
 288 0 17 62 951 555 76 60 949 545 0 15 951 1968 0 62 908 0 17 555 951 952 62 64
 953 553 0 17 76 951 62 952 59 941 532 0 17 952 951 76 555 77 66 543 0 17 66 954
 552 79 64 952 543 0 15 954 1970 0 66 955 0 17 552 954 956 66 67 957 550 0 17 79
 954 66 956 77 948 536 0 17 956 954 79 552 36 69 541 0 17 948 938 942 941 36 79
 536 0 17 69 958 549 74 67 956 541 0 15 958 1972 0 74 924 0 17 549 958 950 69 70
 959 547 0 17 74 958 69 950 36 942 533 0 17 950 958 74 549 80 72 538 0 17 959 88
9 957 911 67 549 547 0 17 957 889 953 959 64 552 550 0 17 911 889 959 953 70 557
 288 0 17 953 889 911 957 60 555 553 0 14 924 1971 0 609 955 958 5 960 +?0 0 14
 955 1969 0 924 908 954 5 961 +?0 0 50 960 1498 0 924 659 961 0 +-.0134 .22225 .
026316 0 0 -1 -1 0 0 50 659 1499 0 656 605 960 0 +0 0 .031749 0 0 -1 -1 0 0 50 9
61 1497 0 955 960 913 0 +-.012638 .22225 .02784 1 0 0 0 0 -1 50 913 1496 0 908 9
61 910 0 +-.0134 .22225 .029364 0 0 1 1 0 0 14 908 1967 0 955 888 951 5 913 +?0
 0 50 605 1500 0 432 434 659 0 +0 .2348 0 0 -1 0 0 0 -1 14 432 1789 0 427 656 96
2 5 605 -?0 0 15 962 2257 0 593 432 721 17 593 962 593 593 0 963 591 0 17 963 62
5 963 963 0 593 591 0 15 625 2290 0 963 619 787 83 3 881 0 1 0 15 878 1956 0 964
 872 907 17 964 878 964 964 0 320 318 0 17 320 790 320 320 0 964 318 0 15 790 18
71 0 320 619 0 83 3 875 0 1 0 83 3 869 0 1 0 83 3 865 0 1 0 79 21 859 SDL/TYSA_T
RANSLUCENCY83 1 855 0 83 1 852 0 83 1 849 0 83 1 846 0 83 1 843 0 83 1 840 0 81
 1 834 1882 818 774 0 775 965 831 966 81 1 779 1877 641 776 965 0 781 775 967 83
 3 837 0 1 0 81 1 965 1878 818 776 0 779 783 834 968 83 3 967 0 1 0 81 1 783 187
4 818 623 0 781 969 965 970 83 1 968 0 81 1 969 1851 818 624 0 629 971 783 972 8
3 1 970 0 81 1 629 1850 641 624 969 0 633 781 973 81 1 971 1847 818 630 0 633 97
4 969 975 83 1 972 0 81 1 633 1846 641 630 971 0 636 629 976 81 1 974 1843 818 6
34 0 636 642 971 977 83 1 975 0 81 1 636 1842 641 634 974 0 639 633 978 81 1 642
 1839 818 637 0 639 979 974 980 83 1 977 0 81 1 979 1834 818 404 0 643 981 642 9
82 83 1 980 0 81 1 643 1833 641 404 979 0 414 639 983 81 1 981 1820 818 411 0 41
4 984 979 985 83 1 982 0 81 1 414 1819 641 411 981 0 418 643 986 81 1 984 1816 8
18 415 0 418 987 981 988 83 1 985 0 81 1 418 1815 641 415 984 0 422 414 989 81 1
 987 1812 818 419 0 422 990 984 991 83 1 988 0 81 1 422 1811 641 419 987 0 426 4
18 992 81 1 990 1808 818 423 0 426 993 987 994 83 1 991 0 81 1 426 1807 641 423
 990 0 431 422 995 81 1 993 1803 818 427 0 431 0 990 996 83 1 994 0 81 1 431 180
2 641 427 993 0 0 426 997 83 1 996 0 83 3 997 0 1 0 83 3 995 0 1 0 83 3 992 0 1
 0 83 3 989 0 1 0 83 3 986 0 1 0 83 3 983 0 1 0 83 3 978 0 1 0 83 3 976 0 1 0 83
 3 973 0 1 0 83 1 966 0 83 1 836 0 79 15 833 SDL/TYSA_COLOUR81 1 825 2249 641 79
5 0 827 824 0 998 81 1 821 2239 818 772 0 824 817 827 999 83 1 828 0 83 1 999 0
 83 3 998 0 1 0 83 3 826 0 1 0 83 1 822 0 15 805 1830 0 1000 409 696 17 1000 805
 1000 1000 0 442 437 0 17 442 433 442 442 0 1000 437 0 15 433 1804 0 442 427 693
 17 799 771 796 31 220 797 336 0 15 771 1891 0 796 767 0 17 796 771 31 799 20 79
4 343 0 17 31 771 799 796 29 791 587 0 16 587 2316 0 31 588 585 583 ?585 585 83
 3 784 0 1 0 15 757 1907 0 313 754 0 17 313 757 172 453 167 176 311 0 17 172 757
 734 313 170 723 458 0 17 453 757 313 734 174 731 315 0 17 734 757 453 172 177 3
17 314 0 17 723 721 722 735 167 172 458 0 83 3 747 0 1 0 17 470 721 465 473 161
 160 468 0 17 669 663 668 667 83 91 527 0 17 187 420 190 85 185 687 680 0 15 420
 1817 0 673 415 0 17 190 420 673 187 184 688 683 0 17 85 420 187 673 83 668 282
 0 17 673 420 85 190 86 670 674 0 83 3 644 0 1 0 141 606 592 606 606 434 40 23 6
02 0 23 .0001100817885738794 .391901628877634 ??-.00593224408284154 .22624933143
39795 .0280868839007135 -.0055855480678175 .226028125193923 .0278538200811672 -.
00515738468327843 .2258724568952275 .0277358346796057 -.00464974604089641 .22581
9312337837 .02770198403104875 -.004099785145116975 .2259114892931655 .0277626478
6804285 -.003627665501139445 .2261333479211405 .02795296478060715 -.003331137626
758465 .226366684744754 .0282615498094152 -.0031860804732217 .2265207487401825 .
0286254529227591 -.00313760285669908 .226580395018095 .0290264836934174 -.003174
908655163405 .2265340804976245 .02943949467401375 -.003306151186926335 .22639095
5138084 .0298102199731329 -.003533091813545525 .2261980849230455 .03009123851138
395 -.003849744072019445 .226009950892123 .03027676933744475 -.00426487444277584
5 .2258668484123375 .03038307904608805 -.00477847317154341 .2258202946213945 .03
04126168771122 -.00532747912781003 .2259210260218135 .03034573629839595 -.005791
65103860942 .2261472454239235 .0301477079806705 -.00607812767711015 .22637752160
79295 .02983465208050605 -.00621683917362669 .2265265902643095 .0294685386174606
 -.00626061856867849 .22658067857386 .0290658478806434 -.00621838601607308 .2265
284364440295 .02865361322927005 -.006081767239829 .226381059557788 .028286884684
2984 -.00593224404632866 .2262493315357925 .02808688386497955 41 1 603 H-.005932
24408284154 .2262493314339795 .0280868839007135 141 435 436 435 435 429 141 406
 393 406 406 397 74 20 9 2 0 825 827 0 0 0 0 0 0 0 0 0 0 0 0 0 0 0 0 0 0 1 0 
