600 0 2 0           
24 FBMach with ACIS - 6.0.3 13 ACIS 6.0.3 NT 24 Mon Apr 01 00:09:23 2002 
1 9.9999999999999995e-007 1e-010 
body $2 $3 $-1 $4 #
bdycol-kcp $-1 1 2 $5 $6 #
model_id-kcp-attrib $-1 $7 $-1 $0 1 1017637763 50 691142657 1 #
lump $-1 $-1 $8 $0 #
transform $-1 1 0 0 0 1 0 0 0 1 0 0 0 1 rotate no_reflect no_shear #
body $9 $10 $-1 $11 #
body $12 $13 $-1 $14 #
aggregate_advspl_attribute-aggregate_geombuild_base_attribute-aggregate_body_attribute-attrib_HH-attrib $-1 $15 $2 $0 F #
shell $-1 $-1 $-1 $16 $-1 $3 #
model_id-kcp-attrib $-1 $-1 $-1 $5 1 1017637763 50 691142658 1 #
lump $-1 $-1 $17 $5 #
transform $-1 1 0 0 0 1 0 0 0 1 0 0 0 1 no_rotate no_reflect no_shear #
rgb_color-st-attrib $-1 $18 $-1 $6 0.5 1 1 #
lump $-1 $-1 $19 $6 #
transform $-1 1 0 0 0 1 0 0 0 1 0 0 0 1 no_rotate no_reflect no_shear #
aggregate_secndry_attribute-aggregate_geombuild_base_attribute-aggregate_body_attribute-attrib_HH-attrib $-1 $20 $7 $0 F #
face $21 $22 $23 $8 $-1 $24 forward single #
shell $-1 $-1 $-1 $25 $-1 $10 #
model_id-kcp-attrib $-1 $-1 $12 $6 1 1017637763 70 692453379 1 #
shell $-1 $-1 $-1 $26 $-1 $13 #
aggregate_sharped_attribute-aggregate_geombuild_base_attribute-aggregate_body_attribute-attrib_HH-attrib $-1 $27 $15 $0 F #
model_id-kcp-attrib $-1 $28 $-1 $16 1 1017637763 50 691142657 2 #
face $29 $30 $31 $8 $-1 $32 forward single #
loop $-1 $33 $34 $16 #
cone-surface $-1 0 0 0 0 0 1 100 0 0 1 I I 0 1 100 forward I I I I #
face $35 $36 $37 $17 $-1 $38 forward single #
face $-1 $39 $40 $19 $-1 $41 reversed single #
aggregate_reblend_attribute-aggregate_geombuild_base_attribute-aggregate_body_attribute-attrib_HH-attrib $-1 $42 $20 $0 F #
attrib_hh_face_geombuild-attrib_entity_geombuild-individual_entity_attribute-attrib_HH-attrib $-1 $-1 $21 $16 F #
model_id-kcp-attrib $-1 $43 $-1 $22 1 1017637763 50 691142657 5 #
face $44 $-1 $45 $8 $-1 $46 forward single #
loop $-1 $-1 $47 $22 #
plane-surface $-1 0 0 -75 0 0 -1 -1 0 0 forward_v I I I I #
loop $-1 $-1 $48 $16 #
coedge $49 $34 $34 $47 $50 reversed $23 $-1 #
model_id-kcp-attrib $-1 $-1 $-1 $25 1 1017637763 50 691142658 3 #
face $51 $52 $53 $17 $-1 $54 reversed single #
loop $-1 $-1 $55 $25 #
plane-surface $-1 0 0 75 0 0 1 1 0 0 forward_v I I I I #
face $-1 $56 $57 $19 $-1 $41 reversed single #
loop $-1 $-1 $58 $26 #
cone-surface $-1 -3.7491518045553436e-031 0 -75 0 0 -1 100 0 0 1 I I 0 1 100 forward I I I I #
aggregate_isospline_attribute-aggregate_geombuild_base_attribute-aggregate_body_attribute-attrib_HH-attrib $-1 $59 $27 $0 F #
model_id-kcp-attrib $-1 $60 $29 $22 1 1017637763 50 691142657 3 #
model_id-kcp-attrib $-1 $61 $-1 $30 1 1017637763 50 691142657 4 #
loop $-1 $-1 $62 $30 #
plane-surface $-1 0 0 75 0 0 1 1 0 0 forward_v I I I I #
coedge $63 $47 $47 $34 $50 forward $31 $-1 #
coedge $64 $48 $48 $62 $65 reversed $33 $-1 #
attrib_hh_coedge_geombuild-attrib_entity_geombuild-individual_entity_attribute-attrib_HH-attrib $-1 $-1 $-1 $34 F #
edge $66 $67 0 $67 6.2831853071795862 $47 $68 forward 7 unknown #
model_id-kcp-attrib $-1 $-1 $-1 $36 1 1017637763 50 691142658 2 #
face $-1 $69 $70 $17 $-1 $71 reversed single #
loop $-1 $-1 $72 $36 #
plane-surface $-1 0 0 -75 0 0 1 1 0 0 forward_v I I I I #
coedge $-1 $73 $74 $75 $76 forward $37 $-1 #
face $-1 $77 $78 $19 $-1 $41 reversed single #
loop $-1 $-1 $79 $39 #
coedge $-1 $80 $81 $82 $83 forward $40 $-1 #
aggregate_analytic_solver_attribute-aggregate_geombuild_base_attribute-aggregate_body_attribute-attrib_HH-attrib $-1 $84 $42 $0 F #
attrib_hh_face_geombuild-attrib_entity_geombuild-individual_entity_attribute-attrib_HH-attrib $-1 $-1 $43 $22 F #
attrib_hh_face_geombuild-attrib_entity_geombuild-individual_entity_attribute-attrib_HH-attrib $-1 $-1 $44 $30 F #
coedge $85 $62 $62 $48 $65 forward $45 $-1 #
attrib_hh_coedge_geombuild-attrib_entity_geombuild-individual_entity_attribute-attrib_HH-attrib $-1 $-1 $-1 $47 F #
attrib_hh_coedge_geombuild-attrib_entity_geombuild-individual_entity_attribute-attrib_HH-attrib $-1 $-1 $-1 $48 F #
edge $86 $87 0 $87 6.2831853071795862 $62 $88 forward 7 unknown #
attrib_edge_convexity-kcp-attrib $-1 $89 $-1 $50 1 #
vertex $90 $50 $91 #
ellipse-curve $-1 0 0 -75 0 0 -1 100 0 0 1 I I #
face $-1 $92 $93 $17 $-1 $94 reversed single #
loop $-1 $-1 $95 $52 #
plane-surface $-1 0 -100 0 0 1 0 0 0 1 forward_v I I I I #
coedge $-1 $96 $97 $98 $99 forward $53 $-1 #
coedge $-1 $100 $55 $101 $102 forward $37 $-1 #
coedge $-1 $55 $100 $103 $104 forward $37 $-1 #
coedge $-1 $105 $106 $55 $76 reversed $107 $-1 #
edge $-1 $108 -100 $109 100 $75 $110 forward 7 unknown #
face $-1 $111 $112 $19 $-1 $41 reversed single #
loop $-1 $-1 $113 $56 #
coedge $-1 $114 $82 $115 $116 reversed $57 $-1 #
coedge $-1 $117 $58 $118 $119 reversed $40 $-1 #
coedge $-1 $58 $117 $120 $121 reversed $40 $-1 #
coedge $-1 $79 $122 $123 $83 reversed $57 $-1 #
edge $-1 $124 -150 $125 0 $123 $126 forward 7 unknown #
aggregate_geombuild_attribute-aggregate_geombuild_base_attribute-aggregate_body_attribute-attrib_HH-attrib $-1 $127 $59 $0 #
attrib_hh_coedge_geombuild-attrib_entity_geombuild-individual_entity_attribute-attrib_HH-attrib $-1 $-1 $-1 $62 F #
attrib_hh_edge_geombuild-attrib_entity_geombuild-individual_entity_attribute-attrib_HH-attrib $-1 $-1 $-1 $65 F #
vertex $128 $65 $129 #
ellipse-curve $-1 0 0 75 0 0 1 100 0 0 1 I I #
convexity-sys-attrib $-1 $130 $66 $50 #
attrib_hh_vertex_geombuild-attrib_entity_geombuild-individual_entity_attribute-attrib_HH-attrib $-1 $-1 $-1 $67 F #
point $-1 100 0 -75 #
face $-1 $131 $132 $17 $-1 $133 reversed single #
loop $-1 $-1 $134 $69 #
plane-surface $-1 -100 0 0 1 0 0 0 0 -1 forward_v I I I I #
coedge $-1 $135 $103 $136 $137 forward $70 $-1 #
coedge $-1 $138 $72 $135 $139 forward $53 $-1 #
coedge $-1 $72 $138 $140 $141 forward $53 $-1 #
coedge $-1 $106 $105 $72 $99 reversed $107 $-1 #
edge $-1 $142 -100 $143 100 $98 $144 forward 7 unknown #
coedge $-1 $74 $73 $145 $146 forward $37 $-1 #
coedge $-1 $147 $148 $73 $102 reversed $132 $-1 #
edge $-1 $109 -100 $149 100 $101 $150 forward 7 unknown #
coedge $-1 $95 $151 $74 $104 reversed $70 $-1 #
edge $-1 $152 -100 $108 100 $103 $153 forward 7 unknown #
coedge $-1 $98 $75 $151 $154 forward $107 $-1 #
coedge $-1 $75 $98 $147 $155 reversed $107 $-1 #
loop $-1 $-1 $105 $131 #
vertex $-1 $76 $156 #
vertex $-1 $76 $157 #
straight-curve $-1 100 0 75 0 1 0 I I #
face $-1 $158 $159 $19 $-1 $160 reversed single #
loop $-1 $-1 $161 $77 #
coedge $-1 $162 $163 $164 $165 reversed $78 $-1 #
coedge $-1 $122 $79 $166 $167 forward $57 $-1 #
coedge $-1 $168 $169 $79 $116 forward $170 $-1 #
edge $-1 $171 -3.1415926535897931 $124 -1.5707963267948966 $115 $172 forward 7 unknown #
coedge $-1 $81 $80 $173 $174 reversed $40 $-1 #
coedge $-1 $175 $176 $80 $119 forward $177 $-1 #
edge $-1 $178 0 $125 1.5707963267948966 $118 $179 forward 7 unknown #
coedge $-1 $180 $181 $81 $121 forward $182 $-1 #
edge $-1 $124 -1.5707963267948966 $183 0 $120 $172 forward 7 unknown #
coedge $-1 $82 $114 $184 $185 reversed $57 $-1 #
coedge $-1 $186 $187 $188 $83 forward $189 $-1 #
vertex $-1 $190 $191 #
vertex $-1 $192 $193 #
straight-curve $-1 -3.7491518045553436e-031 100 -75 0 0 -1 I I #
aggregate_stitch_attribute-aggregate_stitch_base_attribute-aggregate_body_attribute-attrib_HH-attrib $-1 $194 $84 $0 F #
attrib_hh_vertex_geombuild-attrib_entity_geombuild-individual_entity_attribute-attrib_HH-attrib $-1 $-1 $-1 $87 F #
point $-1 100 0 75 #
attrib_hh_edge_geombuild-attrib_entity_geombuild-individual_entity_attribute-attrib_HH-attrib $-1 $-1 $89 $50 F #
face $-1 $-1 $107 $17 $-1 $195 reversed single #
loop $-1 $-1 $147 $92 #
plane-surface $-1 0 100 0 0 -1 0 0 0 -1 forward_v I I I I #
coedge $-1 $196 $145 $148 $197 forward $93 $-1 #
coedge $-1 $151 $95 $96 $139 reversed $70 $-1 #
coedge $-1 $145 $196 $95 $137 reversed $93 $-1 #
edge $-1 $152 -75 $198 75 $136 $199 forward 7 unknown #
coedge $-1 $97 $96 $196 $200 forward $53 $-1 #
edge $-1 $143 -100 $198 100 $135 $201 forward 7 unknown #
coedge $-1 $148 $147 $97 $141 reversed $132 $-1 #
edge $-1 $202 -100 $142 100 $140 $203 forward 7 unknown #
vertex $-1 $99 $204 #
vertex $-1 $154 $205 #
straight-curve $-1 100 0 -75 0 -1 0 I I #
coedge $-1 $134 $136 $100 $146 reversed $93 $-1 #
edge $-1 $149 -100 $152 100 $145 $206 forward 7 unknown #
coedge $-1 $140 $101 $106 $155 forward $132 $-1 #
coedge $-1 $101 $140 $134 $197 reversed $132 $-1 #
vertex $-1 $102 $207 #
straight-curve $-1 0 100 75 -1 0 0 I I #
coedge $-1 $103 $135 $105 $154 reversed $70 $-1 #
vertex $-1 $146 $208 #
straight-curve $-1 0 -100 75 1 0 0 I I #
edge $-1 $108 -75 $143 75 $105 $209 forward 7 unknown #
edge $-1 $109 -75 $142 75 $106 $210 forward 7 unknown #
point $-1 100 -100 75 #
point $-1 100 100 75 #
face $-1 $211 $189 $19 $-1 $212 reversed single #
loop $-1 $-1 $173 $111 #
plane-surface $-1 100 0 0 -1 0 0 0 0 1 forward_v I I I I #
coedge $-1 $166 $213 $214 $215 reversed $112 $-1 #
coedge $-1 $216 $113 $217 $218 reversed $78 $-1 #
coedge $-1 $113 $216 $117 $174 forward $78 $-1 #
coedge $-1 $219 $220 $113 $165 forward $221 $-1 #
edge $-1 $222 -1.5707963267948966 $178 0 $164 $179 forward 7 unknown #
coedge $-1 $223 $161 $224 $167 reversed $112 $-1 #
edge $-1 $171 -150 $225 0 $224 $226 forward 7 unknown #
coedge $-1 $169 $115 $187 $190 forward $170 $-1 #
coedge $-1 $115 $168 $227 $228 forward $170 $-1 #
loop $-1 $-1 $115 $229 #
vertex $-1 $230 $231 #
ellipse-curve $-1 -3.7491518045553436e-031 0 75 0 0 -1 100 0 0 1 I I #
coedge $-1 $232 $233 $234 $174 forward $159 $-1 #
edge $-1 $183 -150 $178 0 $173 $235 forward 7 unknown #
coedge $-1 $176 $118 $236 $192 forward $177 $-1 #
coedge $-1 $118 $175 $232 $237 forward $177 $-1 #
loop $-1 $-1 $118 $238 #
vertex $-1 $239 $240 #
ellipse-curve $-1 -3.7491518045553436e-031 0 -75 0 0 1 100 0 0 1 I I #
coedge $-1 $181 $120 $233 $241 forward $182 $-1 #
coedge $-1 $120 $180 $242 $243 forward $182 $-1 #
loop $-1 $-1 $120 $244 #
vertex $-1 $241 $245 #
coedge $-1 $246 $247 $122 $185 forward $248 $-1 #
edge $-1 $125 1.5707963267948966 $225 3.1415926535897931 $184 $179 forward 7 unknown #
coedge $-1 $249 $123 $247 $250 reversed $189 $-1 #
coedge $-1 $123 $249 $168 $190 reversed $189 $-1 #
coedge $-1 $242 $236 $58 $83 reversed $251 $-1 #
loop $-1 $-1 $123 $158 #
edge $-1 $124 3.7491518045553436e-031 $252 100 $187 $253 forward 7 unknown #
point $-1 -3.7491518045553436e-031 100 75 #
edge $-1 $125 -3.7491518045553436e-031 $254 100 $236 $255 forward 7 unknown #
point $-1 -3.7491518045553436e-031 100 -75 #
aggregate_simgeom_attribute-aggregate_simgeom_base_attribute-aggregate_body_attribute-attrib_HH-attrib $-1 $-1 $127 $0 F #
plane-surface $-1 100 0 0 -1 0 0 0 0 1 forward_v I I I I #
coedge $-1 $136 $134 $138 $200 reversed $93 $-1 #
edge $-1 $149 -75 $202 75 $148 $256 forward 7 unknown #
vertex $-1 $200 $257 #
straight-curve $-1 -100 -100 0 0 0 -1 I I #
edge $-1 $198 -100 $202 100 $196 $258 forward 7 unknown #
straight-curve $-1 0 -100 -75 -1 0 0 I I #
vertex $-1 $141 $259 #
straight-curve $-1 0 100 -75 1 0 0 I I #
point $-1 100 100 -75 #
point $-1 100 -100 -75 #
straight-curve $-1 -100 0 75 0 -1 0 I I #
point $-1 -100 100 75 #
point $-1 -100 -100 75 #
straight-curve $-1 100 -100 0 0 0 -1 I I #
straight-curve $-1 100 100 0 0 0 -1 I I #
face $-1 $260 $261 $19 $-1 $262 reversed single #
plane-surface $-1 0 100 0 0 -1 0 0 0 -1 forward_v I I I I #
coedge $-1 $161 $223 $162 $218 forward $112 $-1 #
coedge $-1 $263 $264 $161 $215 forward $265 $-1 #
edge $-1 $225 -3.1415926535897931 $222 -1.5707963267948966 $214 $179 forward 7 unknown #
coedge $-1 $163 $162 $266 $267 reversed $78 $-1 #
coedge $-1 $268 $269 $270 $218 forward $271 $-1 #
edge $-1 $272 -150 $222 0 $217 $273 forward 7 unknown #
coedge $-1 $220 $164 $274 $239 forward $221 $-1 #
coedge $-1 $164 $219 $268 $275 forward $221 $-1 #
loop $-1 $-1 $164 $276 #
vertex $-1 $277 $278 #
coedge $-1 $213 $166 $279 $280 reversed $112 $-1 #
coedge $-1 $281 $282 $283 $167 forward $261 $-1 #
vertex $-1 $284 $285 #
straight-curve $-1 -100 0 -75 0 0 -1 I I #
coedge $-1 $286 $283 $169 $228 reversed $287 $-1 #
edge $-1 $252 -100 $171 0 $227 $288 forward 7 unknown #
face $-1 $244 $170 $19 $-1 $289 forward single #
edge $-1 $171 0 $290 100 $282 $288 forward 7 unknown #
point $-1 -100 0 75 #
coedge $-1 $291 $173 $176 $237 reversed $159 $-1 #
coedge $-1 $173 $291 $180 $241 reversed $159 $-1 #
coedge $-1 $292 $274 $163 $174 reversed $293 $-1 #
straight-curve $-1 100 0 -75 0 0 -1 I I #
coedge $-1 $188 $294 $175 $192 reversed $251 $-1 #
edge $-1 $254 -100 $178 0 $232 $295 forward 7 unknown #
face $-1 $296 $177 $19 $-1 $297 reversed single #
edge $-1 $178 0 $298 100 $274 $295 forward 7 unknown #
point $-1 100 0 -75 #
edge $-1 $183 0 $299 100 $233 $300 forward 7 unknown #
coedge $-1 $294 $188 $181 $243 reversed $251 $-1 #
edge $-1 $299 -100 $124 3.7491518045553436e-031 $242 $253 forward 7 unknown #
face $-1 $301 $182 $19 $-1 $289 forward single #
point $-1 100 0 75 #
coedge $-1 $247 $184 $302 $284 forward $248 $-1 #
coedge $-1 $184 $246 $186 $250 forward $248 $-1 #
loop $-1 $-1 $184 $296 #
coedge $-1 $187 $186 $286 $303 reversed $189 $-1 #
edge $-1 $304 -100 $125 -3.7491518045553436e-031 $186 $255 forward 7 unknown #
loop $-1 $-1 $188 $305 #
vertex $-1 $190 $306 #
straight-curve $-1 0 100 75 -1 0 0 I I #
vertex $-1 $237 $307 #
straight-curve $-1 0 100 -75 1 0 0 I I #
straight-curve $-1 -100 100 0 0 0 -1 I I #
point $-1 -100 -100 -75 #
straight-curve $-1 -100 0 -75 0 1 0 I I #
point $-1 -100 100 -75 #
face $-1 $229 $308 $19 $-1 $289 forward single #
loop $-1 $-1 $224 $211 #
plane-surface $-1 -100 0 0 1 0 0 0 0 -1 forward_v I I I I #
coedge $-1 $264 $214 $309 $277 forward $265 $-1 #
coedge $-1 $214 $263 $281 $310 forward $265 $-1 #
loop $-1 $-1 $214 $311 #
coedge $-1 $312 $313 $216 $267 forward $314 $-1 #
edge $-1 $183 0 $272 1.5707963267948966 $266 $172 forward 7 unknown #
coedge $-1 $315 $217 $220 $275 reversed $271 $-1 #
coedge $-1 $217 $315 $312 $316 reversed $271 $-1 #
coedge $-1 $317 $309 $213 $218 reversed $318 $-1 #
loop $-1 $-1 $217 $319 #
vertex $-1 $316 $320 #
straight-curve $-1 -3.7491518045553436e-031 -100 -75 0 0 -1 I I #
coedge $-1 $234 $321 $219 $239 reversed $293 $-1 #
edge $-1 $298 -100 $222 3.7491518045553436e-031 $268 $322 forward 7 unknown #
face $-1 $238 $221 $19 $-1 $297 reversed single #
edge $-1 $222 3.7491518045553436e-031 $323 100 $309 $322 forward 7 unknown #
point $-1 -3.7491518045553436e-031 -100 -75 #
coedge $-1 $324 $325 $223 $280 forward $308 $-1 #
edge $-1 $272 1.5707963267948966 $171 3.1415926535897931 $279 $172 forward 7 unknown #
coedge $-1 $326 $224 $264 $310 reversed $261 $-1 #
coedge $-1 $224 $326 $324 $230 reversed $261 $-1 #
coedge $-1 $227 $302 $114 $167 reversed $287 $-1 #
edge $-1 $225 0 $304 100 $302 $327 forward 7 unknown #
point $-1 -100 0 -75 #
coedge $-1 $302 $227 $249 $303 forward $287 $-1 #
loop $-1 $-1 $283 $328 #
straight-curve $-1 -100 0 75 0 -1 0 I I #
plane-surface $-1 0 0 75 0 0 1 1 0 0 forward_v I I I I #
vertex $-1 $230 $329 #
coedge $-1 $233 $232 $294 $330 reversed $159 $-1 #
coedge $-1 $321 $234 $313 $331 reversed $293 $-1 #
loop $-1 $-1 $234 $332 #
coedge $-1 $236 $242 $291 $330 forward $251 $-1 #
straight-curve $-1 100 0 -75 0 -1 0 I I #
face $-1 $333 $248 $19 $-1 $297 reversed single #
plane-surface $-1 0 0 -75 0 0 1 1 0 0 forward_v I I I I #
vertex $-1 $334 $335 #
vertex $-1 $241 $336 #
straight-curve $-1 100 0 75 0 1 0 I I #
face $-1 $319 $314 $19 $-1 $289 forward single #
coedge $-1 $283 $286 $246 $284 reversed $287 $-1 #
edge $-1 $252 -75 $304 75 $249 $337 forward 7 unknown #
vertex $-1 $250 $338 #
face $-1 $332 $251 $19 $-1 $212 reversed single #
point $-1 -100 100 75 #
point $-1 100 100 -75 #
loop $-1 $-1 $279 $260 #
coedge $-1 $270 $339 $263 $277 reversed $318 $-1 #
edge $-1 $323 -100 $225 0 $281 $327 forward 7 unknown #
face $-1 $276 $265 $19 $-1 $297 reversed single #
coedge $-1 $313 $266 $269 $316 forward $314 $-1 #
coedge $-1 $266 $312 $292 $331 forward $314 $-1 #
loop $-1 $-1 $266 $301 #
coedge $-1 $269 $268 $321 $334 reversed $271 $-1 #
edge $-1 $272 -3.7491518045553436e-031 $340 100 $269 $341 forward 7 unknown #
coedge $-1 $339 $270 $325 $342 reversed $318 $-1 #
loop $-1 $-1 $270 $333 #
face $-1 $311 $271 $19 $-1 $343 reversed single #
point $-1 -3.7491518045553436e-031 -100 75 #
coedge $-1 $274 $292 $315 $334 forward $293 $-1 #
straight-curve $-1 0 -100 -75 -1 0 0 I I #
vertex $-1 $310 $344 #
coedge $-1 $325 $279 $282 $230 forward $308 $-1 #
coedge $-1 $279 $324 $317 $342 forward $308 $-1 #
coedge $-1 $282 $281 $339 $345 reversed $261 $-1 #
straight-curve $-1 -100 0 -75 0 1 0 I I #
face $-1 $305 $287 $19 $-1 $262 reversed single #
point $-1 -100 -100 75 #
edge $-1 $299 -75 $254 75 $291 $346 forward 7 unknown #
edge $-1 $340 -100 $183 0 $292 $300 forward 7 unknown #
face $-1 $-1 $293 $19 $-1 $160 reversed single #
face $-1 $328 $318 $19 $-1 $343 reversed single #
edge $-1 $340 -75 $298 75 $321 $347 forward 7 unknown #
point $-1 100 -100 -75 #
point $-1 100 100 75 #
straight-curve $-1 -100 100 0 0 0 -1 I I #
point $-1 -100 100 -75 #
coedge $-1 $309 $317 $326 $345 forward $318 $-1 #
vertex $-1 $331 $348 #
straight-curve $-1 0 -100 75 1 0 0 I I #
edge $-1 $290 -100 $272 -3.7491518045553436e-031 $317 $341 forward 7 unknown #
plane-surface $-1 0 -100 0 0 1 0 0 0 1 forward_v I I I I #
point $-1 -100 -100 -75 #
edge $-1 $290 -75 $323 75 $326 $349 forward 7 unknown #
straight-curve $-1 100 100 0 0 0 -1 I I #
straight-curve $-1 100 -100 0 0 0 -1 I I #
point $-1 100 -100 75 #
straight-curve $-1 -100 -100 0 0 0 -1 I I #
End-of-ACIS-data 