600 0 2 0           
24 FBMach with ACIS - 6.0.3 13 ACIS 6.0.3 NT 24 Tue May 22 12:38:20 2001 
1 9.9999999999999995e-007 1e-010 
body $2 $3 $-1 $4 #
bdycol-kcp $-1 1 2 $5 $6 #
model_id-kcp-attrib $-1 $-1 $-1 $0 1 990549499 50 -1892548607 1 #
lump $-1 $-1 $7 $0 #
transform $-1 1 0 0 0 1 0 0 0 1 0 -5 5 1 rotate no_reflect no_shear #
body $8 $9 $-1 $10 #
body $11 $12 $-1 $13 #
shell $-1 $-1 $-1 $14 $-1 $3 #
model_id-kcp-attrib $-1 $-1 $-1 $5 1 990549499 50 -1892548606 1 #
lump $-1 $-1 $15 $5 #
transform $-1 1 0 0 0 1 0 0 0 1 0 0 0 1 no_rotate no_reflect no_shear #
rgb_color-st-attrib $-1 $16 $-1 $6 0.59999999999999998 0.90000000000000002 1 #
lump $-1 $-1 $17 $6 #
transform $-1 1 0 0 0 1 0 0 0 1 0 0 0 1 no_rotate no_reflect no_shear #
face $18 $19 $20 $7 $-1 $21 reversed single #
shell $-1 $-1 $-1 $22 $-1 $9 #
model_id-kcp-attrib $-1 $-1 $11 $6 1 990549499 690 -1884159997 1 #
shell $-1 $-1 $-1 $23 $-1 $12 #
model_id-kcp-attrib $-1 $-1 $-1 $14 1 990549499 50 -1892548607 2 #
face $24 $25 $26 $7 $-1 $27 reversed single #
loop $-1 $-1 $28 $14 #
cone-surface $-1 0 -5 5 1 0 -3.4914833611093801e-015 -3.4914833611093802e-014 0 -10 1 I I 0 1 10 forward I I I I #
face $29 $30 $31 $15 $-1 $32 forward single #
face $-1 $33 $34 $17 $-1 $35 forward single #
model_id-kcp-attrib $-1 $-1 $-1 $19 1 990549499 50 -1892548607 3 #
face $36 $37 $38 $7 $-1 $39 reversed single #
loop $-1 $-1 $40 $19 #
plane-surface $-1 -20 0 0 1 0 0 0 0 -1 forward_v I I I I #
coedge $-1 $41 $42 $43 $44 reversed $20 $-1 #
model_id-kcp-attrib $-1 $-1 $-1 $22 1 990549499 50 -1892548606 3 #
face $45 $46 $47 $15 $-1 $48 reversed single #
loop $-1 $-1 $49 $22 #
plane-surface $-1 0 0 50 0 0 1 1 0 0 forward_v I I I I #
face $-1 $50 $51 $17 $-1 $52 forward single #
loop $-1 $-1 $53 $23 #
plane-surface $-1 0 0 50 0 0 1 1 0 0 forward_v I I I I #
model_id-kcp-attrib $-1 $-1 $-1 $25 1 990549499 50 -1892548607 4 #
face $54 $55 $56 $7 $-1 $57 forward single #
loop $-1 $-1 $58 $25 #
plane-surface $-1 20 0 0 -1 0 0 0 0 1 forward_v I I I I #
coedge $-1 $59 $60 $41 $61 forward $26 $-1 #
coedge $-1 $62 $28 $40 $61 reversed $20 $-1 #
coedge $-1 $28 $62 $58 $63 reversed $20 $-1 #
coedge $-1 $64 $65 $28 $44 forward $56 $-1 #
edge $-1 $66 -20 $67 20 $43 $68 reversed 7 unknown #
model_id-kcp-attrib $-1 $-1 $-1 $30 1 990549499 50 -1892548606 4 #
face $69 $70 $71 $15 $-1 $72 reversed single #
loop $-1 $-1 $73 $30 #
plane-surface $-1 0 0 -50 0 0 1 1 0 0 forward_v I I I I #
coedge $-1 $74 $75 $76 $77 forward $31 $-1 #
face $-1 $78 $79 $17 $-1 $80 forward single #
loop $-1 $-1 $81 $33 #
cone-surface $-1 0 -10 10 1 0 -3.4914833611093801e-015 -3.4914833611093802e-014 0 -10 1 I I 0 1 10 forward I I I I #
coedge $-1 $82 $83 $84 $85 forward $34 $-1 #
model_id-kcp-attrib $-1 $-1 $-1 $37 1 990549499 50 -1892548607 5 #
face $86 $87 $88 $7 $-1 $89 forward single #
loop $-1 $-1 $43 $37 #
plane-surface $-1 0 5 20 0 -1 0 0 0 -1 forward_v I I I I #
coedge $-1 $90 $91 $42 $63 forward $38 $-1 #
coedge $-1 $60 $40 $92 $93 forward $26 $-1 #
coedge $-1 $40 $59 $94 $95 forward $26 $-1 #
edge $-1 $96 0 $66 1.5707963267948897 $40 $97 forward 7 unknown #
coedge $-1 $42 $41 $98 $99 forward $20 $-1 #
edge $-1 $67 -1.5707963267949037 $100 0 $58 $101 forward 7 unknown #
coedge $-1 $102 $43 $103 $104 forward $56 $-1 #
coedge $-1 $43 $102 $105 $106 forward $56 $-1 #
vertex $-1 $44 $107 #
vertex $-1 $44 $108 #
straight-curve $-1 0 5 5 -1 0 0 I I #
model_id-kcp-attrib $-1 $-1 $-1 $46 1 990549499 50 -1892548606 2 #
face $109 $110 $111 $15 $-1 $112 reversed single #
loop $-1 $-1 $113 $46 #
plane-surface $-1 0 -50 0 0 1 0 0 0 1 forward_v I I I I #
coedge $-1 $114 $115 $116 $117 forward $47 $-1 #
coedge $-1 $118 $49 $119 $120 forward $31 $-1 #
coedge $-1 $49 $118 $121 $122 forward $31 $-1 #
coedge $-1 $123 $124 $49 $77 reversed $125 $-1 #
edge $-1 $126 -50 $127 50 $76 $128 forward 7 unknown #
face $-1 $129 $130 $17 $-1 $131 forward single #
loop $-1 $-1 $132 $50 #
plane-surface $-1 -20 -5 5 1 0 0 0 0 -1 forward_v I I I I #
coedge $-1 $133 $134 $135 $136 reversed $51 $-1 #
coedge $-1 $137 $53 $138 $139 forward $34 $-1 #
coedge $-1 $53 $137 $140 $141 reversed $34 $-1 #
coedge $-1 $142 $143 $53 $85 reversed $144 $-1 #
edge $-1 $145 -4.9999999999999982 $146 45 $53 $147 forward 7 unknown #
model_id-kcp-attrib $-1 $-1 $-1 $55 1 990549499 50 -1892548607 6 #
face $148 $149 $150 $7 $-1 $151 reversed single #
loop $-1 $-1 $98 $55 #
plane-surface $-1 0 -20 -5 0 0 1 1 0 0 forward_v I I I I #
coedge $-1 $91 $58 $152 $153 forward $38 $-1 #
coedge $-1 $58 $90 $154 $155 forward $38 $-1 #
coedge $-1 $105 $156 $59 $93 reversed $157 $-1 #
edge $-1 $66 -5 $158 5 $59 $159 forward 7 unknown #
coedge $-1 $160 $161 $60 $95 reversed $162 $-1 #
edge $-1 $158 -5 $96 5 $60 $163 reversed 7 unknown #
vertex $-1 $99 $164 #
ellipse-curve $-1 -20 -5 5.0000000000000702 1 0 0 -3.4914833611093802e-014 0 -10 1 I I #
coedge $-1 $165 $166 $62 $99 reversed $88 $-1 #
edge $-1 $96 -20 $100 20 $98 $167 reversed 7 unknown #
vertex $-1 $99 $168 #
ellipse-curve $-1 20 -5 4.9999999999999298 -1 0 0 -3.4914833611093802e-014 0 -10 1 I I #
coedge $-1 $65 $64 $169 $170 reversed $56 $-1 #
coedge $-1 $154 $171 $64 $104 reversed $172 $-1 #
edge $-1 $67 -15 $173 25 $64 $174 forward 7 unknown #
coedge $-1 $175 $92 $65 $106 reversed $157 $-1 #
edge $-1 $176 -25 $66 15 $65 $177 forward 7 unknown #
point $-1 -20 5 5 #
point $-1 20 5 5 #
model_id-kcp-attrib $-1 $-1 $-1 $70 1 990549499 50 -1892548606 5 #
face $178 $179 $180 $15 $-1 $181 reversed single #
loop $-1 $-1 $182 $70 #
plane-surface $-1 -50 0 0 1 0 0 0 0 -1 forward_v I I I I #
coedge $-1 $183 $121 $184 $185 forward $71 $-1 #
coedge $-1 $186 $73 $183 $187 forward $47 $-1 #
coedge $-1 $73 $186 $188 $189 forward $47 $-1 #
coedge $-1 $124 $123 $73 $117 reversed $125 $-1 #
edge $-1 $190 -50 $191 50 $116 $192 forward 7 unknown #
coedge $-1 $75 $74 $193 $194 forward $31 $-1 #
coedge $-1 $195 $196 $74 $120 reversed $180 $-1 #
edge $-1 $127 -50 $197 50 $119 $198 forward 7 unknown #
coedge $-1 $113 $199 $75 $122 reversed $71 $-1 #
edge $-1 $200 -50 $126 50 $121 $201 forward 7 unknown #
coedge $-1 $116 $76 $199 $202 forward $125 $-1 #
coedge $-1 $76 $116 $195 $203 reversed $125 $-1 #
loop $-1 $-1 $123 $179 #
vertex $-1 $77 $204 #
vertex $-1 $77 $205 #
straight-curve $-1 50 0 50 0 1 0 I I #
face $-1 $206 $207 $17 $-1 $208 reversed single #
loop $-1 $-1 $209 $78 #
plane-surface $-1 20 -5 5 -1 0 0 0 0 1 forward_v I I I I #
coedge $-1 $210 $211 $134 $212 reversed $79 $-1 #
coedge $-1 $213 $81 $209 $214 forward $51 $-1 #
coedge $-1 $81 $213 $132 $212 forward $51 $-1 #
coedge $-1 $215 $216 $81 $136 forward $217 $-1 #
edge $218 $219 -20 $220 20 $135 $221 forward 7 unknown #
coedge $-1 $83 $82 $222 $223 forward $34 $-1 #
coedge $-1 $224 $225 $82 $139 reversed $226 $-1 #
edge $-1 $146 -25 $227 25 $138 $228 forward 7 unknown #
coedge $-1 $229 $230 $83 $141 forward $217 $-1 #
edge $231 $145 -25 $232 25 $83 $233 forward 7 unknown #
coedge $-1 $234 $84 $230 $235 reversed $144 $-1 #
coedge $-1 $84 $234 $224 $236 reversed $144 $-1 #
loop $-1 $-1 $234 $237 #
vertex $-1 $141 $238 #
vertex $-1 $139 $239 #
straight-curve $-1 -25 -5.0000000000000018 50 0 -1 0 I I #
model_id-kcp-attrib $-1 $-1 $-1 $87 1 990549499 50 -1892548607 7 #
face $240 $241 $242 $7 $-1 $243 reversed single #
loop $-1 $-1 $244 $87 #
cone-surface $-1 25 -20 -5.0000000000000897 0 -1 -3.4914833611093801e-015 5 0 0 1 I I 0 1 5 forward I I I I #
coedge $-1 $244 $245 $90 $153 reversed $150 $-1 #
edge $-1 $100 -5 $246 5 $90 $247 reversed 7 unknown #
coedge $-1 $248 $103 $91 $155 reversed $172 $-1 #
edge $-1 $246 -5 $67 5 $91 $249 reversed 7 unknown #
coedge $-1 $92 $250 $251 $252 reversed $157 $-1 #
loop $-1 $-1 $250 $253 #
vertex $-1 $93 $254 #
straight-curve $-1 -20 5 0 0 0 -1 I I #
coedge $-1 $255 $94 $256 $257 reversed $162 $-1 #
coedge $-1 $94 $258 $165 $259 reversed $162 $-1 #
loop $-1 $-1 $94 $260 #
straight-curve $-1 -20 0 -5 0 1 0 I I #
point $-1 -20 -5 -5 #
coedge $-1 $261 $98 $161 $259 forward $88 $-1 #
coedge $-1 $98 $261 $244 $262 forward $88 $-1 #
straight-curve $-1 0 -5 -5 -1 0 0 I I #
point $-1 20 -5 -5 #
coedge $-1 $263 $264 $102 $170 forward $265 $-1 #
edge $266 $176 -20 $173 20 $169 $267 forward 7 unknown #
coedge $-1 $103 $268 $263 $269 reversed $172 $-1 #
loop $-1 $-1 $270 $271 #
vertex $-1 $104 $272 #
straight-curve $-1 20 5 20 0 0 1 I I #
coedge $-1 $273 $105 $264 $274 reversed $157 $-1 #
vertex $-1 $274 $275 #
straight-curve $-1 -20 5 20 0 0 -1 I I #
model_id-kcp-attrib $-1 $-1 $-1 $110 1 990549499 50 -1892548606 6 #
face $276 $-1 $125 $15 $-1 $277 reversed single #
loop $-1 $-1 $195 $110 #
plane-surface $-1 0 50 0 0 -1 0 0 0 -1 forward_v I I I I #
coedge $-1 $278 $193 $196 $279 forward $111 $-1 #
coedge $-1 $199 $113 $114 $187 reversed $71 $-1 #
coedge $-1 $193 $278 $113 $185 reversed $111 $-1 #
edge $-1 $200 -50 $280 50 $184 $281 forward 7 unknown #
coedge $-1 $115 $114 $278 $282 forward $47 $-1 #
edge $-1 $191 -50 $280 50 $183 $283 forward 7 unknown #
coedge $-1 $196 $195 $115 $189 reversed $180 $-1 #
edge $-1 $284 -50 $190 50 $188 $285 forward 7 unknown #
vertex $-1 $117 $286 #
vertex $-1 $202 $287 #
straight-curve $-1 50 0 -50 0 -1 0 I I #
coedge $-1 $182 $184 $118 $194 reversed $111 $-1 #
edge $-1 $197 -50 $200 50 $193 $288 forward 7 unknown #
coedge $-1 $188 $119 $124 $203 forward $180 $-1 #
coedge $-1 $119 $188 $182 $279 reversed $180 $-1 #
vertex $-1 $120 $289 #
straight-curve $-1 0 50 50 -1 0 0 I I #
coedge $-1 $121 $183 $123 $202 reversed $71 $-1 #
vertex $-1 $194 $290 #
straight-curve $-1 0 -50 50 1 0 0 I I #
edge $-1 $126 -50 $191 50 $123 $291 forward 7 unknown #
edge $-1 $127 -50 $190 50 $124 $292 forward 7 unknown #
point $-1 50 -50 50 #
point $-1 50 50 50 #
face $-1 $293 $294 $17 $-1 $295 forward single #
loop $-1 $-1 $296 $129 #
plane-surface $-1 0 -25 0 0 0 1 1 0 0 forward_v I I I I #
coedge $-1 $297 $298 $133 $214 reversed $130 $-1 #
coedge $-1 $211 $132 $299 $300 reversed $79 $-1 #
coedge $-1 $132 $210 $215 $301 reversed $79 $-1 #
edge $302 $303 0 $220 1.5707963267948895 $132 $304 forward 7 unknown #
coedge $-1 $134 $133 $296 $305 reversed $51 $-1 #
edge $306 $219 -1.5707963267949037 $307 0 $209 $308 forward 7 unknown #
coedge $-1 $309 $135 $211 $301 forward $217 $-1 #
coedge $-1 $135 $310 $297 $311 forward $217 $-1 #
loop $-1 $-1 $230 $312 #
convexity-sys-attrib $-1 $-1 $-1 $136 #
vertex $-1 $136 $313 #
vertex $-1 $136 $314 #
straight-curve $-1 0 0 10 -1 0 3.4914833611093801e-015 I I #
coedge $-1 $315 $316 $137 $223 reversed $317 $-1 #
edge $-1 $227 -37.5 $232 12.499999999999996 $137 $318 forward 7 unknown #
coedge $-1 $319 $138 $143 $236 forward $226 $-1 #
coedge $-1 $138 $320 $315 $321 forward $226 $-1 #
loop $-1 $-1 $225 $322 #
vertex $-1 $321 $323 #
straight-curve $-1 0 -50 50 1 0 0 I I #
coedge $-1 $310 $140 $316 $324 forward $217 $-1 #
coedge $-1 $140 $309 $142 $235 forward $217 $-1 #
convexity-sys-attrib $-1 $-1 $-1 $141 #
vertex $-1 $223 $325 #
straight-curve $-1 0 0 50 1 0 0 I I #
coedge $-1 $143 $142 $326 $327 reversed $144 $-1 #
edge $328 $329 -35.000000000000036 $145 10 $230 $330 forward 7 unknown #
edge $-1 $146 -37.5 $331 7.500000000000175 $224 $332 forward 7 unknown #
face $-1 $312 $144 $17 $-1 $333 reversed single #
point $-1 -25 -3.5527136788005009e-015 50 #
point $-1 -25 -50 50 #
model_id-kcp-attrib $-1 $-1 $-1 $149 1 990549499 50 -1892548607 8 #
face $334 $335 $336 $7 $-1 $337 forward single #
loop $-1 $-1 $338 $149 #
plane-surface $-1 0 -45 -5 0 1 0 0 0 1 forward_v I I I I #
coedge $-1 $339 $152 $166 $262 reversed $150 $-1 #
coedge $-1 $152 $340 $341 $342 reversed $150 $-1 #
vertex $-1 $155 $343 #
straight-curve $-1 20 0 -5 0 -1 0 I I #
coedge $-1 $270 $154 $344 $345 reversed $172 $-1 #
straight-curve $-1 20 5 0 0 0 -1 I I #
coedge $-1 $156 $273 $255 $346 forward $157 $-1 #
coedge $-1 $256 $256 $156 $252 forward $347 $-1 #
edge $-1 $158 0 $348 3.1415926535897931 $251 $349 forward 7 unknown #
face $350 $351 $157 $7 $-1 $352 reversed single #
point $-1 -20 5 -5 #
coedge $-1 $353 $160 $250 $346 reversed $162 $-1 #
coedge $-1 $251 $251 $160 $257 forward $347 $-1 #
edge $-1 $348 -3.1415926535897931 $158 0 $256 $354 forward 7 unknown #
coedge $-1 $161 $353 $355 $356 reversed $162 $-1 #
edge $-1 $96 -15 $357 25 $165 $358 forward 7 unknown #
face $359 $360 $162 $7 $-1 $361 reversed single #
coedge $-1 $166 $165 $362 $363 reversed $88 $-1 #
edge $-1 $364 -25 $100 15 $166 $365 forward 7 unknown #
coedge $-1 $366 $169 $171 $269 forward $265 $-1 #
coedge $-1 $169 $367 $175 $274 forward $265 $-1 #
loop $-1 $-1 $263 $351 #
attrib_edge_convexity-kcp-attrib $-1 $368 $-1 $170 1 #
straight-curve $-1 0 5 45 1 0 0 I I #
coedge $-1 $171 $369 $366 $370 reversed $172 $-1 #
edge $371 $173 -3.1415926535897931 $372 0 $263 $373 forward 7 unknown #
coedge $-1 $369 $248 $340 $374 forward $172 $-1 #
face $375 $260 $172 $7 $-1 $376 reversed single #
point $-1 20 5 45 #
coedge $-1 $250 $175 $377 $378 reversed $157 $-1 #
edge $379 $380 1.5707963267948966 $176 6.2831853071795862 $264 $381 forward 7 unknown #
point $-1 -20 5 45 #
model_id-kcp-attrib $-1 $-1 $-1 $179 1 990549499 50 -1892548606 7 #
plane-surface $-1 50 0 0 -1 0 0 0 0 1 forward_v I I I I #
coedge $-1 $184 $182 $186 $282 reversed $111 $-1 #
edge $-1 $197 -50 $284 50 $196 $382 forward 7 unknown #
vertex $-1 $282 $383 #
straight-curve $-1 -50 -50 0 0 0 -1 I I #
edge $-1 $280 -50 $284 50 $278 $384 forward 7 unknown #
straight-curve $-1 0 -50 -50 -1 0 0 I I #
vertex $-1 $189 $385 #
straight-curve $-1 0 50 -50 1 0 0 I I #
point $-1 50 50 -50 #
point $-1 50 -50 -50 #
straight-curve $-1 -50 0 50 0 -1 0 I I #
point $-1 -50 50 50 #
point $-1 -50 -50 50 #
straight-curve $-1 50 -50 0 0 0 -1 I I #
straight-curve $-1 50 50 0 0 0 -1 I I #
face $-1 $386 $317 $17 $-1 $387 reversed single #
loop $-1 $-1 $388 $206 #
cone-surface $-1 25 -25 -8.9706020389712648e-014 0 -1 -3.4914833611093801e-015 5 0 0 1 I I 0 1 5 forward I I I I #
coedge $-1 $389 $390 $213 $305 forward $207 $-1 #
coedge $-1 $298 $209 $216 $311 reversed $130 $-1 #
coedge $-1 $209 $297 $391 $392 reversed $130 $-1 #
coedge $-1 $393 $394 $210 $300 forward $395 $-1 #
edge $396 $397 -5 $303 5 $210 $398 reversed 7 unknown #
edge $399 $220 7.5 $397 17.5 $215 $400 forward 7 unknown #
convexity-sys-attrib $-1 $-1 $-1 $212 #
vertex $-1 $305 $401 #
ellipse-curve $-1 -20 -10 10.000000000000071 1 0 0 -3.4914833611093802e-014 0 -10 1 I I #
edge $402 $303 -20 $307 20 $296 $403 reversed 7 unknown #
convexity-sys-attrib $-1 $-1 $-1 $214 #
vertex $-1 $305 $404 #
ellipse-curve $-1 20 -10 9.9999999999999289 -1 0 0 -3.4914833611093802e-014 0 -10 1 I I #
coedge $-1 $230 $215 $394 $405 forward $217 $-1 #
coedge $-1 $216 $229 $406 $407 forward $217 $-1 #
edge $408 $409 -17.5 $219 -7.5 $216 $410 forward 7 unknown #
face $-1 $322 $217 $17 $-1 $411 reversed single #
point $-1 20 0 10 #
point $-1 -20 0 10 #
coedge $-1 $412 $222 $225 $321 reversed $317 $-1 #
coedge $-1 $222 $412 $229 $324 reversed $317 $-1 #
loop $-1 $-1 $412 $293 #
straight-curve $-1 25 -12.5 50 0 1 0 I I #
coedge $-1 $413 $224 $414 $415 forward $226 $-1 #
coedge $-1 $225 $413 $416 $417 forward $226 $-1 #
edge $-1 $418 -7.5000000000001741 $227 37.5 $225 $419 forward 7 unknown #
face $-1 $-1 $226 $17 $-1 $420 reversed single #
point $-1 25 -50 50 #
edge $421 $232 -32.500000000000014 $422 12.500000000000018 $229 $423 forward 7 unknown #
point $-1 25 -3.5527136788005009e-015 50 #
coedge $-1 $394 $414 $234 $327 forward $395 $-1 #
edge $424 $331 -25 $329 24.999999999999996 $234 $425 forward 7 unknown #
convexity-sys-attrib $-1 $-1 $-1 $235 #
vertex $-1 $235 $426 #
straight-curve $-1 -25 0 40 0 0 1 I I #
vertex $-1 $415 $427 #
straight-curve $-1 -25 -50 12.5 0 0 -1 I I #
plane-surface $-1 -25 -25 25 1 0 0 0 0 -1 forward_v I I I I #
model_id-kcp-attrib $-1 $-1 $-1 $241 1 990549499 50 -1892548607 9 #
face $428 $271 $429 $7 $-1 $430 reversed single #
loop $-1 $-1 $431 $241 #
plane-surface $-1 25 -20 20 -1 0 0 0 0 1 forward_v I I I I #
coedge $-1 $362 $432 $339 $433 forward $242 $-1 #
coedge $-1 $434 $244 $338 $433 reversed $150 $-1 #
coedge $-1 $245 $435 $270 $374 reversed $150 $-1 #
coedge $-1 $344 $344 $245 $342 forward $429 $-1 #
edge $-1 $246 -3.1415926535897931 $436 0 $341 $437 forward 7 unknown #
point $-1 20 5 -5 #
coedge $-1 $341 $341 $248 $345 forward $429 $-1 #
edge $-1 $436 0 $246 3.1415926535897931 $344 $438 forward 7 unknown #
edge $-1 $439 0 $348 1.5707963267948966 $250 $440 forward 7 unknown #
loop $-1 $-1 $256 $360 #
vertex $-1 $252 $441 #
ellipse-curve $-1 -25 5 -5 0 0 1 5 0 0 1 I I #
model_id-kcp-attrib $-1 $-1 $-1 $253 1 990549499 50 -1892548607 15 #
face $442 $443 $265 $7 $-1 $444 forward single #
cone-surface $-1 -25 5 20 0 0 1 5 0 0 1 I I 0 1 5 forward I I I I #
coedge $-1 $258 $255 $445 $446 reversed $162 $-1 #
ellipse-curve $-1 -25 5 -5 0 -1 -3.4914833611093801e-015 5 0 0 1 I I #
coedge $-1 $447 $362 $258 $356 forward $242 $-1 #
edge $448 $357 0 $449 4.7123889803846897 $355 $450 forward 7 unknown #
vertex $-1 $259 $451 #
straight-curve $-1 -20 -20 -5 0 -1 -3.4914833611093801e-015 I I #
model_id-kcp-attrib $-1 $-1 $-1 $260 1 990549499 50 -1892548607 12 #
face $452 $453 $347 $7 $-1 $454 reversed single #
cone-surface $-1 -25 -20 -5.0000000000000897 0 -1 -3.4914833611093801e-015 5 0 0 1 I I 0 1 5 forward I I I I #
coedge $-1 $355 $338 $261 $363 forward $242 $-1 #
edge $455 $364 -20 $357 20 $362 $456 forward 7 unknown #
vertex $-1 $433 $457 #
straight-curve $-1 20 -20 -5 0 1 3.4914833611093801e-015 I I #
coedge $-1 $458 $263 $268 $370 forward $265 $-1 #
coedge $-1 $264 $459 $460 $461 forward $265 $-1 #
convexity-sys-attrib $-1 $-1 $266 $170 #
coedge $-1 $268 $270 $462 $463 reversed $172 $-1 #
edge $464 $372 0 $465 1.5707963267948966 $366 $373 forward 7 unknown #
attrib_edge_convexity-kcp-attrib $-1 $466 $-1 $269 1 #
vertex $-1 $269 $467 #
ellipse-curve $-1 25 5 45 0 0 -1 5 0 0 1 I I #
edge $-1 $436 -1.5707963267948966 $468 0 $270 $469 forward 7 unknown #
model_id-kcp-attrib $-1 $-1 $-1 $271 1 990549499 50 -1892548607 11 #
cone-surface $-1 25 5 20 0 0 1 5 0 0 1 I I 0 1 5 forward I I I I #
coedge $-1 $460 $445 $273 $378 forward $470 $-1 #
edge $-1 $439 -20.000000000000018 $380 25 $377 $471 forward 7 unknown #
attrib_edge_convexity-kcp-attrib $-1 $472 $-1 $274 1 #
vertex $-1 $274 $473 #
ellipse-curve $-1 -25 5 45 0 0 -1 5 0 0 1 I I #
straight-curve $-1 -50 50 0 0 0 -1 I I #
point $-1 -50 -50 -50 #
straight-curve $-1 -50 0 -50 0 1 0 I I #
point $-1 -50 50 -50 #
face $-1 $237 $395 $17 $-1 $474 forward single #
plane-surface $-1 25 -25 25 -1 0 0 0 0 1 forward_v I I I I #
coedge $-1 $391 $416 $389 $475 forward $294 $-1 #
coedge $-1 $476 $296 $388 $475 reversed $207 $-1 #
coedge $-1 $296 $476 $393 $477 reversed $207 $-1 #
coedge $-1 $406 $388 $298 $392 forward $294 $-1 #
edge $478 $307 -5 $409 5 $298 $479 reversed 7 unknown #
coedge $-1 $414 $299 $390 $477 forward $395 $-1 #
coedge $-1 $299 $326 $309 $405 reversed $395 $-1 #
loop $-1 $-1 $299 $386 #
convexity-sys-attrib $-1 $-1 $-1 $300 #
vertex $-1 $301 $480 #
straight-curve $-1 -20 -5 0 0 1 0 I I #
convexity-sys-attrib $-1 $-1 $-1 $301 #
straight-curve $-1 -20 0 17.5 0 0 -1 I I #
point $-1 -20 -10 0 #
convexity-sys-attrib $-1 $-1 $-1 $305 #
straight-curve $-1 0 -10 0 -1 0 0 I I #
point $-1 20 -10 0 #
edge $481 $397 1.5707963267948895 $329 6.2831853071795862 $309 $482 forward 7 unknown #
coedge $-1 $483 $391 $310 $407 reversed $294 $-1 #
edge $484 $422 -1.5707963267948966 $409 3.1415926535897936 $310 $485 forward 7 unknown #
convexity-sys-attrib $-1 $-1 $-1 $311 #
vertex $-1 $311 $486 #
straight-curve $-1 20 0 17.5 0 0 1 I I #
plane-surface $-1 0 0 30 0 -1 0 1 0 0 forward_v I I I I #
coedge $-1 $316 $315 $483 $487 reversed $317 $-1 #
coedge $-1 $320 $319 $476 $488 forward $226 $-1 #
coedge $-1 $326 $393 $319 $415 reversed $395 $-1 #
edge $-1 $331 1.5707963267948966 $489 6.283185307179588 $319 $490 forward 7 unknown #
coedge $-1 $388 $483 $320 $417 reversed $294 $-1 #
edge $-1 $491 -3.1415926535898282 $418 1.5707963267948966 $320 $492 forward 7 unknown #
vertex $-1 $417 $493 #
straight-curve $-1 25 -50 12.5 0 0 1 I I #
plane-surface $-1 0 -50 0 0 1 0 0 0 1 forward_v I I I I #
convexity-sys-attrib $-1 $-1 $-1 $324 #
vertex $-1 $407 $494 #
straight-curve $-1 25 0 17.499999999999982 0 0 -1 I I #
convexity-sys-attrib $-1 $-1 $-1 $327 #
straight-curve $-1 -25 -25 4.999999999999913 0 1 3.4914833611093801e-015 I I #
point $-1 -25 -3.5527136788005009e-015 4.9999999999999645 #
point $-1 -25 -50 4.999999999999825 #
model_id-kcp-attrib $-1 $-1 $-1 $335 1 990549499 50 -1892548607 10 #
loop $-1 $-1 $341 $335 #
sphere-surface $-1 25 5 -5 5 1 0 0 0 0 1 forward_v I I I I #
coedge $-1 $495 $462 $435 $496 forward $336 $-1 #
coedge $-1 $338 $497 $434 $498 forward $242 $-1 #
edge $499 $500 0 $364 3.1415926535898269 $338 $501 forward 7 unknown #
coedge $-1 $435 $339 $432 $498 reversed $150 $-1 #
coedge $-1 $340 $434 $431 $496 reversed $150 $-1 #
vertex $-1 $345 $502 #
ellipse-curve $-1 25 5 -5 0 -1 -3.4914833611093801e-015 5 0 0 1 I I #
ellipse-curve $-1 25 5 -5 0 0 1 5 0 0 1 I I #
vertex $-1 $446 $503 #
ellipse-curve $-1 -25 5 -5 0 -0.70710678118654657 -0.70710678118654857 0 -5 4.9999999999999796 0.70710678118654902 I I #
point $-1 -30 5 -5 #
model_id-kcp-attrib $-1 $-1 $-1 $351 1 990549499 50 -1892548607 16 #
face $504 $505 $506 $7 $-1 $507 reversed single #
plane-surface $-1 0 5 45 0 0 1 1 0 0 forward_v I I I I #
coedge $-1 $377 $508 $353 $446 forward $470 $-1 #
edge $-1 $449 -25 $439 20 $445 $509 forward 7 unknown #
coedge $-1 $510 $355 $508 $511 forward $242 $-1 #
attrib_edge_convexity-kcp-attrib $-1 $512 $-1 $356 1 #
vertex $-1 $356 $513 #
ellipse-curve $-1 -25 -45 -5.0000000000001696 0 1 0 5 0 0 1 I I #
point $-1 -20 -45 -5.0000000000001696 #
model_id-kcp-attrib $-1 $-1 $-1 $360 1 990549499 50 -1892548607 13 #
face $514 $253 $470 $7 $-1 $515 forward single #
sphere-surface $-1 -25 5 -5 5 1 0 0 0 0 1 forward_v I I I I #
attrib_edge_convexity-kcp-attrib $-1 $516 $-1 $363 1 #
straight-curve $-1 0 -45 -5 -1 0 0 I I #
point $-1 20 -45 -5 #
coedge $-1 $517 $366 $518 $519 forward $265 $-1 #
coedge $-1 $367 $520 $510 $521 forward $265 $-1 #
coedge $-1 $508 $377 $367 $461 reversed $470 $-1 #
edge $522 $523 -37.5 $380 7.5 $367 $524 forward 7 unknown #
coedge $-1 $431 $518 $369 $463 forward $336 $-1 #
edge $-1 $465 -25 $468 20.000000000000018 $462 $525 forward 7 unknown #
attrib_edge_convexity-kcp-attrib $-1 $526 $-1 $370 1 #
vertex $-1 $463 $527 #
convexity-sys-attrib $-1 $-1 $371 $269 #
point $-1 30 5 45 #
vertex $-1 $496 $528 #
ellipse-curve $-1 25 5 -5 0 -0.70710678118654657 -0.70710678118654857 0 -5 4.9999999999999796 0.70710678118654902 I I #
loop $-1 $-1 $445 $453 #
straight-curve $-1 -25 0 20 0 0 1 I I #
convexity-sys-attrib $-1 $-1 $379 $274 #
point $-1 -25 0 45 #
cone-surface $-1 -25 -25 -8.9706020389712648e-014 0 -1 -3.4914833611093801e-015 5 0 0 1 I I 0 1 5 forward I I I I #
edge $529 $491 -25 $307 15 $389 $530 forward 7 unknown #
coedge $-1 $390 $389 $413 $488 reversed $207 $-1 #
edge $531 $303 -15 $489 25 $390 $532 forward 7 unknown #
convexity-sys-attrib $-1 $-1 $-1 $392 #
straight-curve $-1 20 -5 0 0 -1 0 I I #
point $-1 -20 0 0 #
convexity-sys-attrib $-1 $-1 $-1 $405 #
ellipse-curve $-1 -25 0 -3.5527136788005009e-014 0 1 0 0 0 5 1 I I #
coedge $-1 $416 $406 $412 $487 forward $294 $-1 #
convexity-sys-attrib $-1 $-1 $-1 $407 #
ellipse-curve $-1 25 1.0302869668521453e-013 -2.4189363619777813e-015 0 1 0 5 0 0 1 I I #
point $-1 20 0 0 #
edge $533 $422 -24.999999999999996 $418 25 $412 $534 forward 7 unknown #
edge $-1 $489 -20 $491 20 $413 $535 forward 7 unknown #
vertex $-1 $488 $536 #
ellipse-curve $-1 -25 -50 -1.7699310441744715e-013 0 -1 0 5 0 0 1 I I #
vertex $-1 $488 $537 #
ellipse-curve $-1 25 -50 -1.7699310441744715e-013 0 -1 0 5 0 0 1 I I #
point $-1 25 -50 4.9999999999998259 #
point $-1 25 -3.5527136788005009e-015 4.9999999999999645 #
coedge $-1 $518 $431 $497 $538 reversed $336 $-1 #
edge $-1 $468 -20 $539 25 $431 $540 forward 7 unknown #
coedge $-1 $432 $541 $495 $538 forward $242 $-1 #
edge $542 $539 -1.5707963267948966 $500 0 $432 $501 forward 7 unknown #
attrib_edge_convexity-kcp-attrib $-1 $543 $-1 $433 1 #
vertex $-1 $433 $544 #
ellipse-curve $-1 25 -45 -5.0000000000001696 0 1 0 5 0 0 1 I I #
point $-1 30 5 -5 #
point $-1 -25 0 -1.6875389974302402e-014 #
model_id-kcp-attrib $-1 $-1 $-1 $443 1 990549499 50 -1892548607 17 #
face $545 $546 $547 $7 $-1 $548 reversed single #
loop $-1 $-1 $549 $443 #
plane-surface $-1 0 5 -55 0 0 1 1 0 0 forward_v I I I I #
coedge $-1 $445 $460 $447 $511 reversed $470 $-1 #
straight-curve $-1 -25 -20 -8.7041485130612298e-014 0 1 3.4914833611093801e-015 I I #
coedge $-1 $550 $447 $459 $521 reversed $242 $-1 #
edge $551 $449 -7.500000000000175 $523 37.5 $447 $552 forward 7 unknown #
convexity-sys-attrib $-1 $-1 $448 $356 #
point $-1 -25 -45 -1.74971148680925e-013 #
model_id-kcp-attrib $-1 $-1 $-1 $453 1 990549499 50 -1892548607 14 #
plane-surface $-1 -25 -20 20 1 0 0 0 0 -1 forward_v I I I I #
convexity-sys-attrib $-1 $-1 $455 $363 #
coedge $-1 $553 $458 $541 $554 forward $265 $-1 #
coedge $-1 $462 $495 $458 $519 reversed $336 $-1 #
edge $555 $465 -7.5 $556 37.5 $458 $557 forward 7 unknown #
coedge $-1 $459 $558 $559 $560 forward $265 $-1 #
edge $561 $562 -50 $523 -25 $510 $563 forward 7 unknown #
attrib_edge_convexity-kcp-attrib $-1 $564 $-1 $461 1 #
vertex $-1 $461 $565 #
straight-curve $-1 -25 -7.5 45 0 1 0 I I #
straight-curve $-1 25 0 20 0 0 -1 I I #
convexity-sys-attrib $-1 $-1 $464 $370 #
point $-1 25 0 45 #
point $-1 25 0 -1.6875389974302402e-014 #
convexity-sys-attrib $-1 $-1 $-1 $475 #
straight-curve $-1 20 -25 0 0 1 3.4914833611093801e-015 I I #
convexity-sys-attrib $-1 $-1 $-1 $477 #
straight-curve $-1 -20 -25 0 0 -1 -3.4914833611093801e-015 I I #
convexity-sys-attrib $-1 $-1 $-1 $487 #
straight-curve $-1 25 -25 4.999999999999913 0 -1 -3.4914833611093801e-015 I I #
straight-curve $-1 0 -50 0 1 0 0 I I #
point $-1 -20 -50 -1.6964207816272392e-013 #
point $-1 20 -50 0 #
edge $566 $556 -37.5 $539 7.5000000000001741 $497 $567 forward 7 unknown #
vertex $-1 $498 $568 #
straight-curve $-1 25 -20 -8.7041485130612298e-014 0 -1 -3.4914833611093801e-015 I I #
coedge $-1 $497 $569 $517 $554 reversed $242 $-1 #
attrib_edge_convexity-kcp-attrib $-1 $570 $-1 $498 1 #
convexity-sys-attrib $-1 $-1 $499 $433 #
point $-1 30 -45 -5.0000000000001696 #
model_id-kcp-attrib $-1 $-1 $-1 $505 1 990549499 50 -1892548607 18 #
face $571 $572 $573 $7 $-1 $574 reversed single #
loop $-1 $-1 $559 $505 #
plane-surface $-1 -50 5 -5 1 0 0 0 0 -1 forward_v I I I I #
coedge $-1 $575 $576 $577 $578 forward $506 $-1 #
coedge $-1 $579 $510 $580 $581 forward $242 $-1 #
attrib_edge_convexity-kcp-attrib $-1 $582 $-1 $511 1 #
straight-curve $-1 -25 -45 7.5 0 0 1 I I #
coedge $-1 $558 $517 $583 $584 forward $265 $-1 #
edge $585 $556 25 $586 50 $541 $563 forward 7 unknown #
attrib_edge_convexity-kcp-attrib $-1 $587 $-1 $519 1 #
vertex $-1 $519 $588 #
straight-curve $-1 25 -7.5 45 0 -1 0 I I #
coedge $-1 $520 $553 $589 $590 forward $265 $-1 #
coedge $-1 $591 $580 $520 $560 reversed $547 $-1 #
edge $592 $593 -50 $562 50 $559 $594 forward 7 unknown #
attrib_edge_convexity-kcp-attrib $-1 $595 $-1 $521 1 #
vertex $-1 $560 $596 #
straight-curve $-1 0 -45 45 1 0 0 I I #
convexity-sys-attrib $-1 $-1 $522 $461 #
point $-1 -25 -45 45 #
attrib_edge_convexity-kcp-attrib $-1 $597 $-1 $538 1 #
straight-curve $-1 25 -45 7.5 0 0 -1 I I #
point $-1 25 -45 -1.74082970261225e-013 #
coedge $-1 $541 $579 $598 $599 reversed $242 $-1 #
convexity-sys-attrib $-1 $-1 $542 $498 #
model_id-kcp-attrib $-1 $-1 $-1 $546 1 990549499 50 -1892548607 19 #
face $600 $-1 $601 $7 $-1 $602 reversed single #
loop $-1 $-1 $589 $546 #
plane-surface $-1 0 55 -5 0 -1 0 0 0 -1 forward_v I I I I #
coedge $-1 $603 $549 $579 $604 forward $506 $-1 #
coedge $-1 $549 $603 $605 $606 forward $506 $-1 #
coedge $-1 $607 $598 $549 $578 reversed $601 $-1 #
edge $-1 $608 -50 $609 50 $577 $610 forward 7 unknown #
coedge $-1 $569 $550 $575 $604 reversed $242 $-1 #
coedge $-1 $559 $611 $550 $581 reversed $547 $-1 #
edge $612 $562 -50 $613 50 $580 $614 forward 7 unknown #
convexity-sys-attrib $-1 $-1 $551 $511 #
coedge $-1 $598 $607 $553 $584 reversed $601 $-1 #
edge $615 $586 -50 $616 50 $583 $617 forward 7 unknown #
attrib_edge_convexity-kcp-attrib $-1 $618 $-1 $554 1 #
vertex $-1 $584 $619 #
convexity-sys-attrib $-1 $-1 $555 $519 #
point $-1 25 -45 45 #
coedge $-1 $620 $621 $558 $590 reversed $573 $-1 #
edge $622 $616 -50 $593 50 $589 $623 forward 7 unknown #
coedge $-1 $611 $559 $621 $624 forward $547 $-1 #
attrib_edge_convexity-kcp-attrib $-1 $625 $-1 $560 1 #
vertex $-1 $590 $626 #
straight-curve $-1 -50 5 45 0 -1 0 I I #
convexity-sys-attrib $-1 $-1 $561 $521 #
point $-1 -50 -45 45 #
convexity-sys-attrib $-1 $-1 $566 $538 #
coedge $-1 $577 $583 $569 $599 forward $601 $-1 #
edge $627 $586 -50 $609 50 $598 $628 forward 7 unknown #
model_id-kcp-attrib $-1 $-1 $-1 $572 1 990549499 50 -1892548607 20 #
loop $-1 $-1 $583 $572 #
plane-surface $-1 50 5 -5 -1 0 0 0 0 1 forward_v I I I I #
coedge $-1 $576 $575 $611 $629 forward $506 $-1 #
edge $630 $609 -50 $613 50 $579 $631 forward 7 unknown #
coedge $-1 $621 $620 $576 $606 reversed $573 $-1 #
edge $-1 $632 -50 $608 50 $605 $633 forward 7 unknown #
coedge $-1 $583 $577 $620 $634 reversed $601 $-1 #
vertex $-1 $578 $635 #
vertex $-1 $599 $636 #
straight-curve $-1 50 5 -55 0 -1 0 I I #
coedge $-1 $580 $591 $603 $629 reversed $547 $-1 #
attrib_edge_convexity-kcp-attrib $-1 $637 $-1 $581 1 #
vertex $-1 $629 $638 #
straight-curve $-1 -50 -45 -5 0 0 -1 I I #
attrib_edge_convexity-kcp-attrib $-1 $639 $-1 $584 1 #
vertex $-1 $584 $640 #
straight-curve $-1 50 5 45 0 1 0 I I #
convexity-sys-attrib $-1 $-1 $585 $554 #
point $-1 50 -45 45 #
coedge $-1 $605 $589 $607 $634 forward $573 $-1 #
coedge $-1 $589 $605 $591 $624 reversed $573 $-1 #
attrib_edge_convexity-kcp-attrib $-1 $641 $-1 $590 1 #
straight-curve $-1 0 55 45 -1 0 0 I I #
edge $642 $593 -50 $632 50 $621 $643 forward 7 unknown #
convexity-sys-attrib $-1 $-1 $592 $560 #
point $-1 -50 55 45 #
attrib_edge_convexity-kcp-attrib $-1 $644 $-1 $599 1 #
straight-curve $-1 50 -45 -5 0 0 -1 I I #
edge $645 $613 -50 $632 50 $611 $646 forward 7 unknown #
attrib_edge_convexity-kcp-attrib $-1 $647 $-1 $604 1 #
straight-curve $-1 0 -45 -55 -1 0 0 I I #
vertex $-1 $606 $648 #
straight-curve $-1 0 55 -55 1 0 0 I I #
edge $-1 $616 -50 $608 50 $607 $649 forward 7 unknown #
point $-1 50 55 -55 #
point $-1 50 -45 -55 #
convexity-sys-attrib $-1 $-1 $612 $581 #
point $-1 -50 -45 -55 #
convexity-sys-attrib $-1 $-1 $615 $584 #
point $-1 50 55 45 #
convexity-sys-attrib $-1 $-1 $622 $590 #
attrib_edge_convexity-kcp-attrib $-1 $650 $-1 $624 1 #
straight-curve $-1 -50 55 -5 0 0 -1 I I #
convexity-sys-attrib $-1 $-1 $627 $599 #
attrib_edge_convexity-kcp-attrib $-1 $651 $-1 $629 1 #
straight-curve $-1 -50 5 -55 0 1 0 I I #
convexity-sys-attrib $-1 $-1 $630 $604 #
point $-1 -50 55 -55 #
straight-curve $-1 50 55 -5 0 0 -1 I I #
convexity-sys-attrib $-1 $-1 $642 $624 #
convexity-sys-attrib $-1 $-1 $645 $629 #
End-of-ACIS-data 