700 0 2 0           
24 FBMach with ACIS - 7.0.3 13 ACIS 7.0.3 NT 24 Wed May 15 10:15:16 2002 
1 9.9999999999999995e-007 1e-010 
body $2 -1 $-1 $3 $-1 $4 #
bdycol-kcp $-1 -1 1 2 $5 $6 #
model_id-kcp-attrib $-1 -1 $-1 $-1 $0 1 1021472115 1021472116 -1396768767 1 #
lump $-1 -1 $-1 $-1 $7 $0 #
transform $-1 -1 1 0 0 0 1 0 0 0 1 0 0 0 1 rotate no_reflect no_shear #
body $8 -1 $-1 $9 $-1 $10 #
body $11 -1 $-1 $12 $-1 $13 #
shell $-1 -1 $-1 $-1 $-1 $14 $-1 $3 #
rgb_color-st-attrib $-1 -1 $15 $-1 $5 1 0 0 #
lump $-1 -1 $-1 $-1 $16 $5 #
transform $-1 -1 -1 0 -1.2246063538223773e-016 0 1 0 1.2246063538223773e-016 0 -1 127.00000000000004 2.5400000000000205 -84.289967793585959 1 rotate no_reflect no_shear #
model_id-kcp-attrib $-1 -1 $-1 $-1 $6 1 1021472115 1021472116 -1396768766 1 #
lump $-1 -1 $-1 $-1 $17 $6 #
transform $-1 -1 1 0 0 0 1 0 0 0 1 126.99999999999999 2.5399999999999996 165.09999999999997 1 no_rotate no_reflect no_shear #
face $18 -1 $-1 $19 $20 $7 $-1 $21 reversed single #
model_id-kcp-attrib $-1 -1 $-1 $8 $5 1 1021472115 1021472116 -1399128061 1 #
shell $-1 -1 $-1 $-1 $-1 $22 $-1 $9 #
shell $-1 -1 $-1 $-1 $-1 $23 $-1 $12 #
model_id-kcp-attrib $-1 -1 $-1 $-1 $14 1 1021472115 1021472116 -1396768767 2 #
face $24 -1 $-1 $25 $26 $7 $-1 $27 forward single #
loop $-1 -1 $-1 $-1 $28 $14 #
plane-surface $-1 -1 $-1 0 5.0799999999999992 0 0 -1 0 25.399999999999999 0 0 forward_v I I I I #
face $-1 -1 $-1 $29 $30 $16 $-1 $31 reversed single #
face $32 -1 $-1 $33 $34 $17 $-1 $35 forward single #
model_id-kcp-attrib $-1 -1 $-1 $-1 $19 1 1021472115 1021472116 -1396768767 3 #
face $36 -1 $-1 $37 $38 $7 $-1 $39 forward single #
loop $-1 -1 $-1 $-1 $40 $19 #
plane-surface $-1 -1 $-1 127 2.5399999999999996 241.29999999999998 0 0 1 25.399999999999999 0 0 forward_v I I I I #
coedge $-1 -1 $-1 $41 $42 $43 $44 forward $20 $-1 #
face $-1 -1 $-1 $45 $46 $16 $-1 $47 reversed single #
loop $-1 -1 $-1 $-1 $48 $22 #
plane-surface $-1 -1 $-1 2.8421709430404007e-014 2.5399999999999787 -249.38996779358592 0 -1 0 1.2246063538223773e-016 0 1 forward_v I I I I #
model_id-kcp-attrib $-1 -1 $-1 $-1 $23 1 1021472115 1021472116 -1396768766 3 #
face $49 -1 $-1 $50 $51 $17 $-1 $52 reversed single #
loop $-1 -1 $-1 $-1 $53 $23 #
plane-surface $-1 -1 $-1 0 0 76.200000000000003 0 0 1 1 0 0 forward_v I I I I #
model_id-kcp-attrib $-1 -1 $-1 $-1 $25 1 1021472115 1021472116 -1396768767 4 #
face $54 -1 $-1 $55 $56 $7 $-1 $57 forward single #
loop $-1 -1 $-1 $-1 $58 $25 #
plane-surface $-1 -1 $-1 12.699999999999999 2.5399999999999996 165.09999999999999 -1 0 0 0 0 25.399999999999999 forward_v I I I I #
coedge $-1 -1 $-1 $59 $43 $60 $61 forward $26 $-1 #
coedge $-1 -1 $-1 $62 $28 $63 $64 forward $20 $-1 #
coedge $-1 -1 $-1 $28 $65 $66 $67 forward $20 $-1 #
coedge $-1 -1 $-1 $40 $68 $28 $44 reversed $26 $-1 #
edge $69 -1 $-1 $70 0 $71 9 $28 $72 forward @7 unknown #
face $-1 -1 $-1 $73 $74 $16 $-1 $75 reversed single #
loop $-1 -1 $-1 $-1 $76 $29 #
plane-surface $-1 -1 $-1 2.8421709430404007e-014 -2.5400000000000205 -249.38996779358592 0 1 0 -1.2246063538223773e-016 0 -1 forward_v I I I I #
coedge $-1 -1 $-1 $77 $78 $79 $80 forward $30 $-1 #
model_id-kcp-attrib $-1 -1 $-1 $-1 $33 1 1021472115 1021472116 -1396768766 5 #
face $81 -1 $-1 $82 $83 $17 $-1 $84 reversed single #
loop $-1 -1 $-1 $-1 $85 $33 #
plane-surface $-1 -1 $-1 0 0 -76.200000000000003 0 0 1 1 0 0 forward_v I I I I #
coedge $-1 -1 $-1 $86 $87 $88 $89 forward $34 $-1 #
model_id-kcp-attrib $-1 -1 $-1 $-1 $37 1 1021472115 1021472116 -1396768767 5 #
face $90 -1 $-1 $91 $92 $7 $-1 $93 forward single #
loop $-1 -1 $-1 $-1 $94 $37 #
plane-surface $-1 -1 $-1 53.974999999999994 2.5399999999999996 88.899999999999991 0 0 -1 -25.399999999999999 0 0 forward_v I I I I #
coedge $-1 -1 $-1 $95 $66 $96 $97 forward $38 $-1 #
coedge $-1 -1 $-1 $68 $40 $98 $99 forward $26 $-1 #
coedge $-1 -1 $-1 $66 $95 $40 $61 reversed $38 $-1 #
edge $100 -1 $-1 $70 0 $101 0.19999999999999998 $60 $102 forward @7 unknown #
coedge $-1 -1 $-1 $103 $41 $104 $105 forward $20 $-1 #
coedge $-1 -1 $-1 $106 $107 $41 $64 reversed $108 $-1 #
edge $109 -1 $-1 $71 0 $110 5.9999999999999991 $41 $111 forward @7 unknown #
coedge $-1 -1 $-1 $42 $112 $113 $114 forward $20 $-1 #
coedge $-1 -1 $-1 $58 $60 $42 $67 reversed $38 $-1 #
edge $115 -1 $-1 $116 0 $70 5.9999999999999991 $42 $117 forward @7 unknown #
coedge $-1 -1 $-1 $43 $59 $106 $118 reversed $26 $-1 #
attrib_edge_convexity-kcp-attrib $-1 -1 $119 $-1 $44 1 #
vertex $-1 -1 $-1 $67 $120 #
vertex $-1 -1 $-1 $64 $121 #
straight-curve $-1 -1 $-1 12.699999999999999 5.0799999999999992 241.29999999999998 25.399999999999999 0 0 I I #
face $-1 -1 $-1 $122 $123 $16 $-1 $124 reversed single #
loop $-1 -1 $-1 $-1 $125 $45 #
plane-surface $-1 -1 $-1 3.7753209846530525e-014 -2.0872192862952943e-014 -173.18996779358594 -1.2246063538223773e-016 0 -1 -1 0 1.2246063538223773e-016 forward_v I I I I #
coedge $-1 -1 $-1 $126 $127 $128 $129 forward $46 $-1 #
coedge $-1 -1 $-1 $130 $48 $131 $132 forward $30 $-1 #
coedge $-1 -1 $-1 $48 $130 $133 $134 reversed $30 $-1 #
coedge $-1 -1 $-1 $135 $136 $48 $80 reversed $137 $-1 #
edge $-1 -1 $-1 $138 48.494983896792974 $139 150.094983896793 $79 $140 forward @7 unknown #
model_id-kcp-attrib $-1 -1 $-1 $-1 $50 1 1021472115 1021472116 -1396768766 8 #
face $141 -1 $-1 $142 $143 $17 $-1 $144 reversed single #
loop $-1 -1 $-1 $-1 $145 $50 #
plane-surface $-1 -1 $-1 0 -2.5399999999999996 0 0 1 0 0 0 1 forward_v I I I I #
coedge $-1 -1 $-1 $146 $147 $148 $149 forward $51 $-1 #
coedge $-1 -1 $-1 $150 $53 $151 $152 forward $34 $-1 #
coedge $-1 -1 $-1 $53 $150 $153 $154 forward $34 $-1 #
coedge $-1 -1 $-1 $155 $156 $53 $89 reversed $157 $-1 #
edge $-1 -1 $-1 $158 -2.5399999999999996 $159 2.5399999999999996 $88 $160 forward @7 unknown #
model_id-kcp-attrib $-1 -1 $-1 $-1 $55 1 1021472115 1021472116 -1396768767 6 #
face $161 -1 $-1 $162 $163 $7 $-1 $164 forward single #
loop $-1 -1 $-1 $-1 $165 $55 #
plane-surface $-1 -1 $-1 95.25 2.5399999999999996 139.69999999999999 1 0 0 0 0 -25.399999999999999 forward_v I I I I #
coedge $-1 -1 $-1 $166 $113 $167 $168 forward $56 $-1 #
coedge $-1 -1 $-1 $60 $58 $169 $170 forward $38 $-1 #
coedge $-1 -1 $-1 $113 $166 $58 $97 reversed $56 $-1 #
edge $171 -1 $-1 $116 0 $172 0.19999999999999998 $58 $173 forward @7 unknown #
coedge $-1 -1 $-1 $169 $174 $59 $99 reversed $175 $-1 #
edge $176 -1 $-1 $101 0 $177 9 $98 $178 forward @7 unknown #
attrib_edge_convexity-kcp-attrib $-1 -1 $179 $-1 $61 1 #
vertex $-1 -1 $-1 $170 $180 #
straight-curve $-1 -1 $-1 12.699999999999999 5.0799999999999992 241.29999999999998 0 -25.399999999999999 0 I I #
coedge $-1 -1 $-1 $181 $62 $182 $183 forward $20 $-1 #
coedge $-1 -1 $-1 $184 $185 $62 $105 reversed $186 $-1 #
edge $187 -1 $-1 $110 0 $188 3.2499999999999996 $62 $189 forward @7 unknown #
coedge $-1 -1 $-1 $190 $63 $68 $118 forward $108 $-1 #
coedge $-1 -1 $-1 $63 $190 $184 $191 reversed $108 $-1 #
loop $-1 -1 $-1 $-1 $106 $192 #
attrib_edge_convexity-kcp-attrib $-1 -1 $193 $-1 $64 1 #
vertex $-1 -1 $-1 $105 $194 #
straight-curve $-1 -1 $-1 241.29999999999998 5.0799999999999992 241.29999999999998 0 0 -25.399999999999999 I I #
coedge $-1 -1 $-1 $65 $181 $195 $196 forward $20 $-1 #
coedge $-1 -1 $-1 $94 $96 $65 $114 reversed $56 $-1 #
edge $197 -1 $-1 $198 0 $116 3.25 $65 $199 forward @7 unknown #
attrib_edge_convexity-kcp-attrib $-1 -1 $200 $-1 $67 1 #
vertex $-1 -1 $-1 $67 $201 #
straight-curve $-1 -1 $-1 12.699999999999999 5.0799999999999992 88.899999999999991 0 0 25.399999999999999 I I #
edge $202 -1 $-1 $71 0 $177 0.19999999999999998 $106 $203 forward @7 unknown #
convexity-sys-attrib $-1 -1 $-1 $69 $44 #
point $-1 -1 $-1 12.699999999999999 5.0799999999999992 241.29999999999998 #
point $-1 -1 $-1 241.29999999999998 5.0799999999999992 241.29999999999998 #
face $-1 -1 $-1 $204 $205 $16 $-1 $206 reversed single #
loop $-1 -1 $-1 $-1 $207 $73 #
plane-surface $-1 -1 $-1 0 0 -274.78996779358596 0 0 1 1 0 0 forward_v I I I I #
coedge $-1 -1 $-1 $133 $208 $135 $209 forward $74 $-1 #
coedge $-1 -1 $-1 $210 $76 $208 $211 reversed $46 $-1 #
coedge $-1 -1 $-1 $76 $210 $207 $212 forward $46 $-1 #
coedge $-1 -1 $-1 $136 $135 $76 $129 reversed $137 $-1 #
edge $-1 -1 $-1 $213 -150.094983896793 $214 -48.494983896792974 $128 $215 forward @7 unknown #
coedge $-1 -1 $-1 $78 $77 $216 $217 forward $30 $-1 #
coedge $-1 -1 $-1 $218 $219 $77 $132 reversed $123 $-1 #
edge $220 -1 $-1 $139 -31.749999999999996 $221 31.750000000000004 $131 $222 forward @7 unknown #
coedge $-1 -1 $-1 $223 $125 $78 $134 forward $74 $-1 #
edge $-1 -1 $-1 $138 -31.749999999999986 $224 31.750000000000014 $78 $225 forward @7 unknown #
coedge $-1 -1 $-1 $128 $79 $125 $209 reversed $137 $-1 #
coedge $-1 -1 $-1 $79 $128 $218 $226 reversed $137 $-1 #
loop $-1 -1 $-1 $-1 $128 $204 #
vertex $-1 -1 $-1 $80 $227 #
vertex $-1 -1 $-1 $226 $228 #
straight-curve $-1 -1 $-1 31.75 2.5399999999999787 -124.69498389679296 0 0 -1 I I #
model_id-kcp-attrib $-1 -1 $-1 $-1 $82 1 1021472115 1021472116 -1396768766 4 #
face $229 -1 $-1 $230 $231 $17 $-1 $232 reversed single #
loop $-1 -1 $-1 $-1 $233 $82 #
plane-surface $-1 -1 $-1 -114.3 0 0 1 0 0 0 0 -1 forward_v I I I I #
coedge $-1 -1 $-1 $234 $153 $235 $236 forward $83 $-1 #
coedge $-1 -1 $-1 $237 $85 $234 $238 forward $51 $-1 #
coedge $-1 -1 $-1 $85 $237 $239 $240 forward $51 $-1 #
coedge $-1 -1 $-1 $156 $155 $85 $149 reversed $157 $-1 #
edge $-1 -1 $-1 $241 -2.5399999999999996 $242 2.5399999999999996 $148 $243 forward @7 unknown #
coedge $-1 -1 $-1 $87 $86 $244 $245 forward $34 $-1 #
coedge $-1 -1 $-1 $246 $247 $86 $152 reversed $231 $-1 #
edge $-1 -1 $-1 $159 -114.3 $248 114.3 $151 $249 forward @7 unknown #
coedge $-1 -1 $-1 $145 $250 $87 $154 reversed $83 $-1 #
edge $-1 -1 $-1 $251 -114.3 $158 114.3 $153 $252 forward @7 unknown #
coedge $-1 -1 $-1 $148 $88 $250 $253 forward $157 $-1 #
coedge $-1 -1 $-1 $88 $148 $246 $254 reversed $157 $-1 #
loop $-1 -1 $-1 $-1 $155 $230 #
vertex $-1 -1 $-1 $89 $255 #
vertex $-1 -1 $-1 $89 $256 #
straight-curve $-1 -1 $-1 114.3 0 76.200000000000003 0 1 0 I I #
model_id-kcp-attrib $-1 -1 $-1 $-1 $91 1 1021472115 1021472116 -1396768767 7 #
face $257 -1 $-1 $258 $259 $7 $-1 $260 forward single #
loop $-1 -1 $-1 $-1 $261 $91 #
plane-surface $-1 -1 $-1 127 2.5399999999999996 190.5 0 0 -1 -25.399999999999999 0 0 forward_v I I I I #
coedge $-1 -1 $-1 $262 $195 $263 $264 forward $92 $-1 #
coedge $-1 -1 $-1 $96 $94 $265 $266 forward $56 $-1 #
coedge $-1 -1 $-1 $195 $262 $94 $168 reversed $92 $-1 #
edge $-1 -1 $-1 $198 0 $267 0.19999999999999998 $94 $268 forward @7 unknown #
coedge $-1 -1 $-1 $265 $98 $95 $170 reversed $175 $-1 #
edge $269 -1 $-1 $172 0 $101 5.9999999999999991 $169 $270 forward @7 unknown #
attrib_edge_convexity-kcp-attrib $-1 -1 $271 $-1 $97 1 #
vertex $-1 -1 $-1 $170 $272 #
straight-curve $-1 -1 $-1 12.699999999999999 5.0799999999999992 88.899999999999991 0 -25.399999999999999 0 I I #
coedge $-1 -1 $-1 $98 $273 $190 $274 reversed $175 $-1 #
loop $-1 -1 $-1 $-1 $265 $275 #
attrib_edge_convexity-kcp-attrib $-1 -1 $276 $-1 $99 1 #
vertex $-1 -1 $-1 $99 $277 #
straight-curve $-1 -1 $-1 12.699999999999999 0 241.29999999999998 25.399999999999999 0 0 I I #
convexity-sys-attrib $-1 -1 $-1 $100 $61 #
point $-1 -1 $-1 12.699999999999999 0 241.29999999999998 #
coedge $-1 -1 $-1 $112 $103 $278 $279 forward $20 $-1 #
coedge $-1 -1 $-1 $280 $281 $103 $183 reversed $259 $-1 #
edge $282 -1 $-1 $188 0 $283 4.0000000000000009 $103 $284 forward @7 unknown #
coedge $-1 -1 $-1 $285 $104 $107 $191 forward $186 $-1 #
coedge $-1 -1 $-1 $104 $285 $280 $286 reversed $186 $-1 #
loop $-1 -1 $-1 $-1 $184 $258 #
attrib_edge_convexity-kcp-attrib $-1 -1 $287 $-1 $105 1 #
vertex $-1 -1 $-1 $183 $288 #
straight-curve $-1 -1 $-1 241.29999999999998 5.0799999999999992 88.899999999999991 -25.399999999999999 0 0 I I #
coedge $-1 -1 $-1 $107 $106 $174 $274 forward $108 $-1 #
edge $-1 -1 $-1 $110 0 $289 0.19999999999999998 $184 $290 forward @7 unknown #
face $291 -1 $-1 $275 $108 $7 $-1 $292 forward single #
convexity-sys-attrib $-1 -1 $-1 $109 $64 #
point $-1 -1 $-1 241.29999999999998 5.0799999999999992 88.899999999999991 #
coedge $-1 -1 $-1 $165 $167 $112 $196 reversed $92 $-1 #
edge $293 -1 $-1 $294 0 $198 4.0000000000000009 $112 $295 forward @7 unknown #
attrib_edge_convexity-kcp-attrib $-1 -1 $296 $-1 $114 1 #
vertex $-1 -1 $-1 $114 $297 #
straight-curve $-1 -1 $-1 95.25 5.0799999999999992 88.899999999999991 -25.399999999999999 0 0 I I #
convexity-sys-attrib $-1 -1 $-1 $115 $67 #
point $-1 -1 $-1 12.699999999999999 5.0799999999999992 88.899999999999991 #
attrib_edge_convexity-kcp-attrib $-1 -1 $298 $-1 $118 1 #
straight-curve $-1 -1 $-1 241.29999999999998 5.0799999999999992 241.29999999999998 0 -25.399999999999999 0 I I #
face $-1 -1 $-1 $-1 $137 $16 $-1 $299 reversed single #
loop $-1 -1 $-1 $-1 $300 $122 #
plane-surface $-1 -1 $-1 -31.75 0 0 1 0 0 0 0 -1 forward_v I I I I #
coedge $-1 -1 $-1 $219 $218 $127 $212 reversed $123 $-1 #
coedge $-1 -1 $-1 $125 $223 $126 $211 forward $74 $-1 #
edge $-1 -1 $-1 $214 -2.5400000000000098 $138 2.5399999999999894 $135 $301 forward @7 unknown #
coedge $-1 -1 $-1 $127 $126 $300 $302 forward $46 $-1 #
edge $-1 -1 $-1 $303 -31.750000000000014 $214 31.749999999999986 $126 $304 forward @7 unknown #
edge $305 -1 $-1 $306 -31.750000000000004 $213 31.749999999999996 $207 $307 forward @7 unknown #
vertex $-1 -1 $-1 $212 $308 #
vertex $-1 -1 $-1 $129 $309 #
straight-curve $-1 -1 $-1 31.75 -2.5400000000000205 -124.69498389679296 0 0 1 I I #
coedge $-1 -1 $-1 $310 $311 $130 $217 reversed $205 $-1 #
edge $-1 -1 $-1 $221 -150.094983896793 $224 -48.494983896792974 $216 $312 forward @7 unknown #
coedge $-1 -1 $-1 $207 $131 $136 $226 forward $123 $-1 #
coedge $-1 -1 $-1 $131 $207 $310 $313 forward $123 $-1 #
convexity-sys-attrib $-1 -1 $-1 $-1 $132 #
vertex $-1 -1 $-1 $132 $314 #
straight-curve $-1 -1 $-1 1.4210854715202004e-014 2.5399999999999787 -274.78996779358596 -1 0 0 I I #
coedge $-1 -1 $-1 $208 $133 $311 $315 forward $74 $-1 #
vertex $-1 -1 $-1 $217 $316 #
straight-curve $-1 -1 $-1 3.7753209846530525e-014 2.5399999999999787 -173.18996779358594 -1 0 1.2246063538223773e-016 I I #
edge $317 -1 $-1 $139 -2.5399999999999787 $213 2.5400000000000205 $136 $318 forward @7 unknown #
point $-1 -1 $-1 31.750000000000025 2.5399999999999787 -173.18996779358594 #
point $-1 -1 $-1 31.750000000000011 2.5399999999999787 -274.78996779358596 #
model_id-kcp-attrib $-1 -1 $-1 $-1 $142 1 1021472115 1021472116 -1396768766 2 #
face $319 -1 $-1 $-1 $157 $17 $-1 $320 reversed single #
loop $-1 -1 $-1 $-1 $246 $142 #
plane-surface $-1 -1 $-1 0 2.5399999999999996 0 0 -1 0 0 0 -1 forward_v I I I I #
coedge $-1 -1 $-1 $321 $244 $247 $322 forward $143 $-1 #
coedge $-1 -1 $-1 $250 $145 $146 $238 reversed $83 $-1 #
coedge $-1 -1 $-1 $244 $321 $145 $236 reversed $143 $-1 #
edge $-1 -1 $-1 $251 -76.200000000000003 $323 76.200000000000003 $235 $324 forward @7 unknown #
coedge $-1 -1 $-1 $147 $146 $321 $325 forward $51 $-1 #
edge $-1 -1 $-1 $242 -114.3 $323 114.3 $234 $326 forward @7 unknown #
coedge $-1 -1 $-1 $247 $246 $147 $240 reversed $231 $-1 #
edge $-1 -1 $-1 $327 -114.3 $241 114.3 $239 $328 forward @7 unknown #
vertex $-1 -1 $-1 $149 $329 #
vertex $-1 -1 $-1 $253 $330 #
straight-curve $-1 -1 $-1 114.3 0 -76.200000000000003 0 -1 0 I I #
coedge $-1 -1 $-1 $233 $235 $150 $245 reversed $143 $-1 #
edge $-1 -1 $-1 $248 -2.5399999999999996 $251 2.5399999999999996 $244 $331 forward @7 unknown #
coedge $-1 -1 $-1 $239 $151 $156 $254 forward $231 $-1 #
coedge $-1 -1 $-1 $151 $239 $233 $322 reversed $231 $-1 #
vertex $-1 -1 $-1 $152 $332 #
straight-curve $-1 -1 $-1 0 2.5399999999999996 76.200000000000003 -1 0 0 I I #
coedge $-1 -1 $-1 $153 $234 $155 $253 reversed $83 $-1 #
vertex $-1 -1 $-1 $245 $333 #
straight-curve $-1 -1 $-1 0 -2.5399999999999996 76.200000000000003 1 0 0 I I #
edge $-1 -1 $-1 $158 -76.200000000000003 $242 76.200000000000003 $155 $334 forward @7 unknown #
edge $-1 -1 $-1 $159 -76.200000000000003 $241 76.200000000000003 $156 $335 forward @7 unknown #
point $-1 -1 $-1 114.3 -2.5399999999999996 76.200000000000003 #
point $-1 -1 $-1 114.3 2.5399999999999996 76.200000000000003 #
model_id-kcp-attrib $-1 -1 $-1 $-1 $162 1 1021472115 1021472116 -1396768767 8 #
face $336 -1 $-1 $192 $186 $7 $-1 $337 forward single #
loop $-1 -1 $-1 $-1 $280 $162 #
plane-surface $-1 -1 $-1 158.75 2.5399999999999996 139.69999999999999 -1 0 0 0 0 25.399999999999999 forward_v I I I I #
coedge $-1 -1 $-1 $338 $278 $281 $339 forward $163 $-1 #
coedge $-1 -1 $-1 $167 $165 $340 $341 forward $92 $-1 #
coedge $-1 -1 $-1 $278 $338 $165 $264 reversed $163 $-1 #
edge $342 -1 $-1 $294 0 $343 0.19999999999999998 $165 $344 forward @7 unknown #
coedge $-1 -1 $-1 $340 $169 $166 $266 reversed $175 $-1 #
edge $-1 -1 $-1 $267 0 $172 3.25 $265 $345 forward @7 unknown #
vertex $-1 -1 $-1 $341 $346 #
straight-curve $-1 -1 $-1 95.25 5.0799999999999992 88.899999999999991 0 -25.399999999999999 0 I I #
attrib_edge_convexity-kcp-attrib $-1 -1 $347 $-1 $170 1 #
straight-curve $-1 -1 $-1 12.699999999999999 0 88.899999999999991 0 0 25.399999999999999 I I #
convexity-sys-attrib $-1 -1 $-1 $171 $97 #
point $-1 -1 $-1 12.699999999999999 0 88.899999999999991 #
coedge $-1 -1 $-1 $174 $348 $285 $349 reversed $175 $-1 #
edge $-1 -1 $-1 $177 0 $289 5.9999999999999991 $174 $350 forward @7 unknown #
face $351 -1 $-1 $-1 $175 $7 $-1 $352 forward single #
convexity-sys-attrib $-1 -1 $-1 $176 $99 #
point $-1 -1 $-1 241.29999999999998 0 241.29999999999998 #
coedge $-1 -1 $-1 $261 $263 $181 $279 reversed $163 $-1 #
edge $353 -1 $-1 $283 0 $294 2.5 $181 $354 forward @7 unknown #
coedge $-1 -1 $-1 $355 $182 $185 $286 forward $259 $-1 #
coedge $-1 -1 $-1 $182 $355 $261 $339 reversed $259 $-1 #
attrib_edge_convexity-kcp-attrib $-1 -1 $356 $-1 $183 1 #
vertex $-1 -1 $-1 $279 $357 #
straight-curve $-1 -1 $-1 158.75 5.0799999999999992 88.899999999999991 0 0 25.399999999999999 I I #
coedge $-1 -1 $-1 $185 $184 $273 $349 forward $186 $-1 #
edge $-1 -1 $-1 $188 0 $358 0.19999999999999998 $280 $359 forward @7 unknown #
convexity-sys-attrib $-1 -1 $-1 $187 $105 #
point $-1 -1 $-1 158.75 5.0799999999999992 88.899999999999991 #
vertex $-1 -1 $-1 $274 $360 #
straight-curve $-1 -1 $-1 241.29999999999998 5.0799999999999992 88.899999999999991 0 -25.399999999999999 0 I I #
model_id-kcp-attrib $-1 -1 $-1 $-1 $192 1 1021472115 1021472116 -1396768767 10 #
plane-surface $-1 -1 $-1 241.29999999999998 2.5399999999999996 165.09999999999999 1 0 0 0 0 -25.399999999999999 forward_v I I I I #
attrib_edge_convexity-kcp-attrib $-1 -1 $361 $-1 $196 1 #
vertex $-1 -1 $-1 $196 $362 #
straight-curve $-1 -1 $-1 95.25 5.0799999999999992 190.5 0 0 -25.399999999999999 I I #
convexity-sys-attrib $-1 -1 $-1 $197 $114 #
point $-1 -1 $-1 95.25 5.0799999999999992 88.899999999999991 #
convexity-sys-attrib $-1 -1 $-1 $202 $118 #
plane-surface $-1 -1 $-1 31.75 0 0 -1 0 0 0 0 1 forward_v I I I I #
coedge $-1 -1 $-1 $311 $310 $210 $302 reversed $205 $-1 #
straight-curve $-1 -1 $-1 31.75 -1.0436096431476471e-014 -173.18996779358594 0 1 0 I I #
edge $-1 -1 $-1 $303 48.494983896792974 $306 150.094983896793 $300 $363 forward @7 unknown #
vertex $-1 -1 $-1 $302 $364 #
straight-curve $-1 -1 $-1 3.7753209846530525e-014 -2.5400000000000205 -173.18996779358594 1 0 -1.2246063538223773e-016 I I #
convexity-sys-attrib $-1 -1 $-1 $-1 $212 #
vertex $-1 -1 $-1 $313 $365 #
straight-curve $-1 -1 $-1 1.4210854715202004e-014 -2.5400000000000205 -274.78996779358596 1 0 0 I I #
point $-1 -1 $-1 31.750000000000011 -2.5400000000000205 -274.78996779358596 #
point $-1 -1 $-1 31.750000000000025 -2.5400000000000205 -173.18996779358594 #
coedge $-1 -1 $-1 $300 $216 $219 $313 reversed $205 $-1 #
coedge $-1 -1 $-1 $216 $300 $223 $315 reversed $205 $-1 #
straight-curve $-1 -1 $-1 -31.75 2.5399999999999787 -124.69498389679296 0 0 1 I I #
edge $366 -1 $-1 $306 -2.5400000000000205 $221 2.5399999999999787 $310 $367 forward @7 unknown #
point $-1 -1 $-1 -31.749999999999989 2.5399999999999787 -274.78996779358596 #
edge $-1 -1 $-1 $224 -2.5399999999999894 $303 2.5400000000000098 $311 $368 forward @7 unknown #
point $-1 -1 $-1 -31.749999999999975 2.5399999999999787 -173.18996779358594 #
convexity-sys-attrib $-1 -1 $-1 $-1 $226 #
straight-curve $-1 -1 $-1 31.75 0 -274.78996779358596 0 -1 0 I I #
model_id-kcp-attrib $-1 -1 $-1 $-1 $230 1 1021472115 1021472116 -1396768766 7 #
plane-surface $-1 -1 $-1 114.3 0 0 -1 0 0 0 0 1 forward_v I I I I #
coedge $-1 -1 $-1 $235 $233 $237 $325 reversed $143 $-1 #
edge $-1 -1 $-1 $248 -76.200000000000003 $327 76.200000000000003 $247 $369 forward @7 unknown #
vertex $-1 -1 $-1 $325 $370 #
straight-curve $-1 -1 $-1 -114.3 -2.5399999999999996 0 0 0 -1 I I #
edge $-1 -1 $-1 $323 -2.5399999999999996 $327 2.5399999999999996 $321 $371 forward @7 unknown #
straight-curve $-1 -1 $-1 0 -2.5399999999999996 -76.200000000000003 -1 0 0 I I #
vertex $-1 -1 $-1 $240 $372 #
straight-curve $-1 -1 $-1 0 2.5399999999999996 -76.200000000000003 1 0 0 I I #
point $-1 -1 $-1 114.3 2.5399999999999996 -76.200000000000003 #
point $-1 -1 $-1 114.3 -2.5399999999999996 -76.200000000000003 #
straight-curve $-1 -1 $-1 -114.3 0 76.200000000000003 0 -1 0 I I #
point $-1 -1 $-1 -114.3 2.5399999999999996 76.200000000000003 #
point $-1 -1 $-1 -114.3 -2.5399999999999996 76.200000000000003 #
straight-curve $-1 -1 $-1 114.3 -2.5399999999999996 0 0 0 -1 I I #
straight-curve $-1 -1 $-1 114.3 2.5399999999999996 0 0 0 -1 I I #
model_id-kcp-attrib $-1 -1 $-1 $-1 $258 1 1021472115 1021472116 -1396768767 9 #
plane-surface $-1 -1 $-1 200.02499999999998 2.5399999999999996 88.899999999999991 0 0 -1 -25.399999999999999 0 0 forward_v I I I I #
coedge $-1 -1 $-1 $263 $261 $373 $374 forward $163 $-1 #
edge $375 -1 $-1 $283 0 $376 0.19999999999999998 $261 $377 forward @7 unknown #
coedge $-1 -1 $-1 $373 $265 $262 $341 reversed $175 $-1 #
edge $-1 -1 $-1 $343 0 $267 4.0000000000000009 $340 $378 forward @7 unknown #
attrib_edge_convexity-kcp-attrib $-1 -1 $379 $-1 $264 2 #
vertex $-1 -1 $-1 $374 $380 #
straight-curve $-1 -1 $-1 95.25 5.0799999999999992 190.5 0 -25.399999999999999 0 I I #
straight-curve $-1 -1 $-1 95.25 0 88.899999999999991 -25.399999999999999 0 0 I I #
point $-1 -1 $-1 95.25 0 88.899999999999991 #
convexity-sys-attrib $-1 -1 $-1 $269 $170 #
coedge $-1 -1 $-1 $273 $373 $355 $381 reversed $175 $-1 #
edge $-1 -1 $-1 $289 0 $358 3.2499999999999996 $273 $382 forward @7 unknown #
straight-curve $-1 -1 $-1 241.29999999999998 0 241.29999999999998 0 0 -25.399999999999999 I I #
model_id-kcp-attrib $-1 -1 $-1 $-1 $275 1 1021472115 1021472116 -1396768767 11 #
plane-surface $-1 -1 $-1 0 0 0 0 -1 0 25.399999999999999 0 0 forward_v I I I I #
attrib_edge_convexity-kcp-attrib $-1 -1 $383 $-1 $279 1 #
straight-curve $-1 -1 $-1 158.75 5.0799999999999992 190.5 -25.399999999999999 0 0 I I #
coedge $-1 -1 $-1 $281 $280 $348 $381 forward $259 $-1 #
convexity-sys-attrib $-1 -1 $-1 $282 $183 #
point $-1 -1 $-1 158.75 5.0799999999999992 190.5 #
vertex $-1 -1 $-1 $349 $384 #
straight-curve $-1 -1 $-1 158.75 5.0799999999999992 88.899999999999991 0 -25.399999999999999 0 I I #
point $-1 -1 $-1 241.29999999999998 0 88.899999999999991 #
convexity-sys-attrib $-1 -1 $-1 $293 $196 #
point $-1 -1 $-1 95.25 5.0799999999999992 190.5 #
straight-curve $-1 -1 $-1 -31.75 -2.5400000000000205 -124.69498389679296 0 0 -1 I I #
point $-1 -1 $-1 -31.749999999999975 -2.5400000000000205 -173.18996779358594 #
point $-1 -1 $-1 -31.749999999999989 -2.5400000000000205 -274.78996779358596 #
convexity-sys-attrib $-1 -1 $-1 $-1 $313 #
straight-curve $-1 -1 $-1 -31.75 0 -274.78996779358596 0 1 0 I I #
straight-curve $-1 -1 $-1 -31.75 -1.0436096431476471e-014 -173.18996779358594 0 -1 0 I I #
straight-curve $-1 -1 $-1 -114.3 2.5399999999999996 0 0 0 -1 I I #
point $-1 -1 $-1 -114.3 -2.5399999999999996 -76.200000000000003 #
straight-curve $-1 -1 $-1 -114.3 0 -76.200000000000003 0 1 0 I I #
point $-1 -1 $-1 -114.3 2.5399999999999996 -76.200000000000003 #
coedge $-1 -1 $-1 $348 $340 $338 $374 reversed $175 $-1 #
edge $385 -1 $-1 $376 0 $343 2.5 $373 $386 forward @7 unknown #
attrib_edge_convexity-kcp-attrib $-1 -1 $387 $-1 $339 2 #
vertex $-1 -1 $-1 $381 $388 #
straight-curve $-1 -1 $-1 158.75 5.0799999999999992 190.5 0 -25.399999999999999 0 I I #
straight-curve $-1 -1 $-1 95.25 0 190.5 0 0 -25.399999999999999 I I #
convexity-sys-attrib $-1 -1 $-1 $342 $264 #
point $-1 -1 $-1 95.25 0 190.5 #
edge $-1 -1 $-1 $358 0 $376 4.0000000000000009 $348 $389 forward @7 unknown #
straight-curve $-1 -1 $-1 241.29999999999998 0 88.899999999999991 -25.399999999999999 0 0 I I #
convexity-sys-attrib $-1 -1 $-1 $353 $279 #
point $-1 -1 $-1 158.75 0 88.899999999999991 #
attrib_edge_convexity-kcp-attrib $-1 -1 $390 $-1 $374 1 #
straight-curve $-1 -1 $-1 158.75 0 190.5 -25.399999999999999 0 0 I I #
convexity-sys-attrib $-1 -1 $-1 $375 $339 #
point $-1 -1 $-1 158.75 0 190.5 #
straight-curve $-1 -1 $-1 158.75 0 88.899999999999991 0 0 25.399999999999999 I I #
convexity-sys-attrib $-1 -1 $-1 $385 $374 #
End-of-ACIS-data 