  0
SECTION
  2
HEADER
  9
$ACADVER
  1
AC1009
  9
$INSBASE
 10
0.0
 20
0.0
 30
0.0
  9
$EXTMIN
 10
0.0
 20
0.0
 30
0.0
  9
$EXTMAX
 10
3.0
 20
4.0
 30
4.0
  9
$LIMMIN
 10
0.0
 20
0.0
  9
$LIMMAX
 10
12.0
 20
9.0
  9
$ORTHOMODE
 70
     0
  9
$REGENMODE
 70
     1
  9
$FILLMODE
 70
     1
  9
$QTEXTMODE
 70
     0
  9
$MIRRTEXT
 70
     1
  9
$DRAGMODE
 70
     2
  9
$LTSCALE
 40
1.0
  9
$OSMODE
 70
     0
  9
$ATTMODE
 70
     1
  9
$TEXTSIZE
 40
0.2
  9
$TRACEWID
 40
0.05
  9
$TEXTSTYLE
  7
STANDARD
  9
$CLAYER
  8
0
  9
$CELTYPE
  6
BYLAYER
  9
$CECOLOR
 62
   256
  9
$DIMSCALE
 40
1.0
  9
$DIMASZ
 40
0.18
  9
$DIMEXO
 40
0.0625
  9
$DIMDLI
 40
0.38
  9
$DIMRND
 40
0.0
  9
$DIMDLE
 40
0.0
  9
$DIMEXE
 40
0.18
  9
$DIMTP
 40
0.0
  9
$DIMTM
 40
0.0
  9
$DIMTXT
 40
0.18
  9
$DIMCEN
 40
0.09
  9
$DIMTSZ
 40
0.0
  9
$DIMTOL
 70
     0
  9
$DIMLIM
 70
     0
  9
$DIMTIH
 70
     1
  9
$DIMTOH
 70
     1
  9
$DIMSE1
 70
     0
  9
$DIMSE2
 70
     0
  9
$DIMTAD
 70
     0
  9
$DIMZIN
 70
     0
  9
$DIMBLK
  1

  9
$DIMASO
 70
     1
  9
$DIMSHO
 70
     1
  9
$DIMPOST
  1

  9
$DIMAPOST
  1

  9
$DIMALT
 70
     0
  9
$DIMALTD
 70
     2
  9
$DIMALTF
 40
25.4
  9
$DIMLFAC
 40
1.0
  9
$DIMTOFL
 70
     0
  9
$DIMTVP
 40
0.0
  9
$DIMTIX
 70
     0
  9
$DIMSOXD
 70
     0
  9
$DIMSAH
 70
     0
  9
$DIMBLK1
  1

  9
$DIMBLK2
  1

  9
$DIMSTYLE
  2
*UNNAMED
  9
$DIMCLRD
 70
     0
  9
$DIMCLRE
 70
     0
  9
$DIMCLRT
 70
     0
  9
$DIMTFAC
 40
1.0
  9
$DIMGAP
 40
0.09
  9
$LUNITS
 70
     2
  9
$LUPREC
 70
     4
  9
$SKETCHINC
 40
0.1
  9
$FILLETRAD
 40
0.0
  9
$AUNITS
 70
     0
  9
$AUPREC
 70
     0
  9
$MENU
  1
acad
  9
$ELEVATION
 40
0.0
  9
$PELEVATION
 40
0.0
  9
$THICKNESS
 40
0.0
  9
$LIMCHECK
 70
     0
  9
$BLIPMODE
 70
     1
  9
$CHAMFERA
 40
0.0
  9
$CHAMFERB
 40
0.0
  9
$SKPOLY
 70
     0
  9
$TDCREATE
 40
2449314.413478136
  9
$TDUPDATE
 40
2449314.416483843
  9
$TDINDWG
 40
0.0030057060
  9
$TDUSRTIMER
 40
0.0030057060
  9
$USRTIMER
 70
     1
  9
$ANGBASE
 50
0.0
  9
$ANGDIR
 70
     0
  9
$PDMODE
 70
     0
  9
$PDSIZE
 40
0.0
  9
$PLINEWID
 40
0.0
  9
$COORDS
 70
     0
  9
$SPLFRAME
 70
     0
  9
$SPLINETYPE
 70
     6
  9
$SPLINESEGS
 70
     8
  9
$ATTDIA
 70
     0
  9
$ATTREQ
 70
     1
  9
$HANDLING
 70
     1
  9
$HANDSEED
  5
8B
  9
$SURFTAB1
 70
     6
  9
$SURFTAB2
 70
     6
  9
$SURFTYPE
 70
     6
  9
$SURFU
 70
     6
  9
$SURFV
 70
     6
  9
$UCSNAME
  2

  9
$UCSORG
 10
0.0
 20
0.0
 30
0.0
  9
$UCSXDIR
 10
1.0
 20
0.0
 30
0.0
  9
$UCSYDIR
 10
0.0
 20
1.0
 30
0.0
  9
$PUCSNAME
  2

  9
$PUCSORG
 10
0.0
 20
0.0
 30
0.0
  9
$PUCSXDIR
 10
1.0
 20
0.0
 30
0.0
  9
$PUCSYDIR
 10
0.0
 20
1.0
 30
0.0
  9
$USERI1
 70
     0
  9
$USERI2
 70
     0
  9
$USERI3
 70
     0
  9
$USERI4
 70
     0
  9
$USERI5
 70
     0
  9
$USERR1
 40
0.0
  9
$USERR2
 40
0.0
  9
$USERR3
 40
0.0
  9
$USERR4
 40
0.0
  9
$USERR5
 40
0.0
  9
$WORLDVIEW
 70
     1
  9
$SHADEDGE
 70
     3
  9
$SHADEDIF
 70
    70
  9
$TILEMODE
 70
     1
  9
$MAXACTVP
 70
    16
  9
$PINSBASE
 10
0.0
 20
0.0
 30
0.0
  9
$PLIMCHECK
 70
     0
  9
$PEXTMIN
 10
1.000000E+20
 20
1.000000E+20
 30
1.000000E+20
  9
$PEXTMAX
 10
-1.000000E+20
 20
-1.000000E+20
 30
-1.000000E+20
  9
$PLIMMIN
 10
0.0
 20
0.0
  9
$PLIMMAX
 10
12.0
 20
9.0
  9
$UNITMODE
 70
     0
  9
$VISRETAIN
 70
     0
  9
$PLINEGEN
 70
     0
  9
$PSLTSCALE
 70
     0
  9
$TREEDEPTH
 70
  3020
  9
$DWGCODEPAGE
  3
undefined
  0
ENDSEC
  0
SECTION
  2
TABLES
  0
TABLE
  2
VPORT
 70
     2
  0
VPORT
  2
*ACTIVE
 70
     0
 10
0.0
 20
0.0
 11
1.0
 21
1.0
 12
2.761991
 22
0.204124
 13
0.0
 23
0.0
 14
1.0
 24
1.0
 15
0.0
 25
0.0
 16
1.0
 26
1.0
 36
1.0
 17
0.0
 27
0.0
 37
0.0
 40
6.123724
 41
1.594883
 42
50.0
 43
0.0
 44
0.0
 50
0.0
 51
0.0
 71
     0
 72
   100
 73
     1
 74
     1
 75
     0
 76
     0
 77
     0
 78
     0
  0
ENDTAB
  0
TABLE
  2
LTYPE
 70
     1
  0
LTYPE
  2
CONTINUOUS
 70
    64
  3
Solid line
 72
    65
 73
     0
 40
0.0
  0
ENDTAB
  0
TABLE
  2
LAYER
 70
     2
  0
LAYER
  2
0
 70
    64
 62
     7
  6
CONTINUOUS
  0
LAYER
  2
AME_FRZ
 70
    65
 62
     7
  6
CONTINUOUS
  0
ENDTAB
  0
TABLE
  2
STYLE
 70
     1
  0
STYLE
  2
STANDARD
 70
     0
 40
0.0
 41
1.0
 50
0.0
 71
     0
 42
0.2
  3
txt
  4

  0
ENDTAB
  0
TABLE
  2
VIEW
 70
     0
  0
ENDTAB
  0
TABLE
  2
UCS
 70
     0
  0
ENDTAB
  0
TABLE
  2
APPID
 70
     2
  0
APPID
  2
ACAD
 70
    64
  0
APPID
  2
AME_SOL
 70
    64
  0
ENDTAB
  0
TABLE
  2
DIMSTYLE
 70
     0
  0
ENDTAB
  0
ENDSEC
  0
SECTION
  2
BLOCKS
  0
BLOCK
  8
0
  5
1
  2
AME_NIL
 70
    64
 10
0.0
 20
0.0
 30
0.0
  1
AME_NIL
  3
AME_NIL
  0
ENDBLK
  8
0
  5
2
  0
BLOCK
  8
0
  5
4
  2
AME_SOL
 70
    64
 10
0.0
 20
0.0
 30
0.0
  1
AME_SOL
  3
AME_SOL
  0
ENDBLK
  8
0
  5
5
  0
BLOCK
  8
0
  5
7
  2
*U2
 70
    65
 10
0.0
 20
0.0
 30
0.0
  1
*U
  3
*U
  0
LINE
  8
0
 62
     0
  5
8
 10
1.0
 20
4.0
 30
0.0
 11
1.0
 21
4.0
 31
4.0
1001
AME_SOL
1070
     1
1071
       18
  0
LINE
  8
0
 62
     0
  5
9
 10
1.0
 20
4.0
 30
4.0
 11
1.0
 21
0.0
 31
4.0
1001
AME_SOL
1070
     1
1071
       17
  0
LINE
  8
0
 62
     0
  5
A
 10
0.0
 20
4.0
 30
4.0
 11
1.0
 21
4.0
 31
4.0
1001
AME_SOL
1070
     1
1071
       16
  0
LINE
  8
0
 62
     0
  5
B
 10
0.0
 20
4.0
 30
0.0
 11
0.0
 21
4.0
 31
4.0
1001
AME_SOL
1070
     1
1071
       15
  0
LINE
  8
0
 62
     0
  5
C
 10
0.0
 20
4.0
 30
4.0
 11
0.0
 21
0.0
 31
4.0
1001
AME_SOL
1070
     1
1071
       14
  0
LINE
  8
0
 62
     0
  5
D
 10
0.0
 20
0.0
 30
0.0
 11
0.0
 21
0.0
 31
4.0
1001
AME_SOL
1070
     1
1071
       13
  0
LINE
  8
0
 62
     0
  5
E
 10
1.0
 20
0.0
 30
4.0
 11
1.0
 21
0.0
 31
0.0
1001
AME_SOL
1070
     1
1071
       12
  0
LINE
  8
0
 62
     0
  5
F
 10
0.0
 20
0.0
 30
4.0
 11
1.0
 21
0.0
 31
4.0
1001
AME_SOL
1070
     1
1071
       11
  0
LINE
  8
0
 62
     0
  5
10
 10
0.0
 20
0.0
 30
0.0
 11
1.0
 21
0.0
 31
0.0
1001
AME_SOL
1070
     1
1071
       10
  0
LINE
  8
0
 62
     0
  5
11
 10
0.0
 20
4.0
 30
0.0
 11
0.0
 21
0.0
 31
0.0
1001
AME_SOL
1070
     1
1071
        9
  0
LINE
  8
0
 62
     0
  5
12
 10
1.0
 20
0.0
 30
0.0
 11
1.0
 21
4.0
 31
0.0
1001
AME_SOL
1070
     1
1071
        8
  0
LINE
  8
0
 62
     0
  5
13
 10
1.0
 20
4.0
 30
0.0
 11
0.0
 21
4.0
 31
0.0
1001
AME_SOL
1070
     1
1071
        7
  0
ENDBLK
  8
0
  5
14
  0
BLOCK
  8
0
  5
18
  2
*U3
 70
    65
 10
0.0
 20
0.0
 30
0.0
  1
*U
  3
*U
  0
LINE
  8
0
 62
     0
  5
19
 10
1.0
 20
2.0
 30
0.0
 11
1.0
 21
2.0
 31
2.0
1001
AME_SOL
1070
     1
1071
       18
  0
LINE
  8
0
 62
     0
  5
1A
 10
1.0
 20
2.0
 30
2.0
 11
1.0
 21
0.0
 31
2.0
1001
AME_SOL
1070
     1
1071
       17
  0
LINE
  8
0
 62
     0
  5
1B
 10
0.0
 20
2.0
 30
2.0
 11
1.0
 21
2.0
 31
2.0
1001
AME_SOL
1070
     1
1071
       16
  0
LINE
  8
0
 62
     0
  5
1C
 10
0.0
 20
2.0
 30
0.0
 11
0.0
 21
2.0
 31
2.0
1001
AME_SOL
1070
     1
1071
       15
  0
LINE
  8
0
 62
     0
  5
1D
 10
0.0
 20
2.0
 30
2.0
 11
0.0
 21
0.0
 31
2.0
1001
AME_SOL
1070
     1
1071
       14
  0
LINE
  8
0
 62
     0
  5
1E
 10
0.0
 20
0.0
 30
0.0
 11
0.0
 21
0.0
 31
2.0
1001
AME_SOL
1070
     1
1071
       13
  0
LINE
  8
0
 62
     0
  5
1F
 10
1.0
 20
0.0
 30
2.0
 11
1.0
 21
0.0
 31
0.0
1001
AME_SOL
1070
     1
1071
       12
  0
LINE
  8
0
 62
     0
  5
20
 10
0.0
 20
0.0
 30
2.0
 11
1.0
 21
0.0
 31
2.0
1001
AME_SOL
1070
     1
1071
       11
  0
LINE
  8
0
 62
     0
  5
21
 10
0.0
 20
0.0
 30
0.0
 11
1.0
 21
0.0
 31
0.0
1001
AME_SOL
1070
     1
1071
       10
  0
LINE
  8
0
 62
     0
  5
22
 10
0.0
 20
2.0
 30
0.0
 11
0.0
 21
0.0
 31
0.0
1001
AME_SOL
1070
     1
1071
        9
  0
LINE
  8
0
 62
     0
  5
23
 10
1.0
 20
0.0
 30
0.0
 11
1.0
 21
2.0
 31
0.0
1001
AME_SOL
1070
     1
1071
        8
  0
LINE
  8
0
 62
     0
  5
24
 10
1.0
 20
2.0
 30
0.0
 11
0.0
 21
2.0
 31
0.0
1001
AME_SOL
1070
     1
1071
        7
  0
ENDBLK
  8
0
  5
25
  0
BLOCK
  8
0
  5
2A
  2
*U4
 70
    65
 10
0.0
 20
0.0
 30
0.0
  1
*U
  3
*U
  0
LINE
  8
0
 62
     7
  5
2B
 10
1.0
 20
4.0
 30
0.0
 11
1.0
 21
4.0
 31
2.0
1001
AME_SOL
1070
     1
1071
       26
  0
LINE
  8
0
 62
     7
  5
2C
 10
1.0
 20
2.0
 30
4.0
 11
1.0
 21
0.0
 31
4.0
1001
AME_SOL
1070
     1
1071
       25
  0
LINE
  8
0
 62
     7
  5
2D
 10
0.0
 20
4.0
 30
0.0
 11
0.0
 21
4.0
 31
2.0
1001
AME_SOL
1070
     1
1071
       24
  0
LINE
  8
0
 62
     7
  5
2E
 10
0.0
 20
2.0
 30
4.0
 11
0.0
 21
0.0
 31
4.0
1001
AME_SOL
1070
     1
1071
       23
  0
LINE
  8
0
 62
     7
  5
2F
 10
0.0
 20
0.0
 30
0.0
 11
0.0
 21
0.0
 31
4.0
1001
AME_SOL
1070
     1
1071
       22
  0
LINE
  8
0
 62
     7
  5
30
 10
1.0
 20
0.0
 30
4.0
 11
1.0
 21
0.0
 31
0.0
1001
AME_SOL
1070
     1
1071
       21
  0
LINE
  8
0
 62
     7
  5
31
 10
0.0
 20
0.0
 30
4.0
 11
1.0
 21
0.0
 31
4.0
1001
AME_SOL
1070
     1
1071
       20
  0
LINE
  8
0
 62
     7
  5
32
 10
0.0
 20
0.0
 30
0.0
 11
1.0
 21
0.0
 31
0.0
1001
AME_SOL
1070
     1
1071
       19
  0
LINE
  8
0
 62
     7
  5
33
 10
0.0
 20
4.0
 30
0.0
 11
0.0
 21
0.0
 31
0.0
1001
AME_SOL
1070
     1
1071
       18
  0
LINE
  8
0
 62
     7
  5
34
 10
1.0
 20
0.0
 30
0.0
 11
1.0
 21
4.0
 31
0.0
1001
AME_SOL
1070
     1
1071
       17
  0
LINE
  8
0
 62
     7
  5
35
 10
1.0
 20
4.0
 30
0.0
 11
0.0
 21
4.0
 31
0.0
1001
AME_SOL
1070
     1
1071
       16
  0
LINE
  8
0
 62
     7
  5
36
 10
0.0
 20
2.0
 30
2.0
 11
0.0
 21
2.0
 31
4.0
1001
AME_SOL
1070
     1
1071
       15
  0
LINE
  8
0
 62
     7
  5
37
 10
1.0
 20
2.0
 30
4.0
 11
1.0
 21
2.0
 31
2.0
1001
AME_SOL
1070
     1
1071
       14
  0
LINE
  8
0
 62
     7
  5
38
 10
0.0
 20
2.0
 30
4.0
 11
1.0
 21
2.0
 31
4.0
1001
AME_SOL
1070
     1
1071
       13
  0
LINE
  8
0
 62
     7
  5
39
 10
0.0
 20
4.0
 30
2.0
 11
0.0
 21
2.0
 31
2.0
1001
AME_SOL
1070
     1
1071
       12
  0
LINE
  8
0
 62
     7
  5
3A
 10
1.0
 20
2.0
 30
2.0
 11
1.0
 21
4.0
 31
2.0
1001
AME_SOL
1070
     1
1071
       11
  0
LINE
  8
0
 62
     7
  5
3B
 10
1.0
 20
4.0
 30
2.0
 11
0.0
 21
4.0
 31
2.0
1001
AME_SOL
1070
     1
1071
       10
  0
LINE
  8
0
 62
     7
  5
3C
 10
0.0
 20
2.0
 30
2.0
 11
1.0
 21
2.0
 31
2.0
1001
AME_SOL
1070
     1
1071
        9
  0
ENDBLK
  8
0
  5
3D
  0
BLOCK
  8
0
  5
41
  2
*U5
 70
    65
 10
0.0
 20
0.0
 30
0.0
  1
*U
  3
*U
  0
LINE
  8
0
 62
     0
  5
42
 10
2.0
 20
1.0
 30
0.0
 11
2.0
 21
1.0
 31
4.0
1001
AME_SOL
1070
     1
1071
       18
  0
LINE
  8
0
 62
     0
  5
43
 10
2.0
 20
1.0
 30
4.0
 11
2.0
 21
0.0
 31
4.0
1001
AME_SOL
1070
     1
1071
       17
  0
LINE
  8
0
 62
     0
  5
44
 10
0.0
 20
1.0
 30
4.0
 11
2.0
 21
1.0
 31
4.0
1001
AME_SOL
1070
     1
1071
       16
  0
LINE
  8
0
 62
     0
  5
45
 10
0.0
 20
1.0
 30
0.0
 11
0.0
 21
1.0
 31
4.0
1001
AME_SOL
1070
     1
1071
       15
  0
LINE
  8
0
 62
     0
  5
46
 10
0.0
 20
1.0
 30
4.0
 11
0.0
 21
0.0
 31
4.0
1001
AME_SOL
1070
     1
1071
       14
  0
LINE
  8
0
 62
     0
  5
47
 10
0.0
 20
0.0
 30
0.0
 11
0.0
 21
0.0
 31
4.0
1001
AME_SOL
1070
     1
1071
       13
  0
LINE
  8
0
 62
     0
  5
48
 10
2.0
 20
0.0
 30
4.0
 11
2.0
 21
0.0
 31
0.0
1001
AME_SOL
1070
     1
1071
       12
  0
LINE
  8
0
 62
     0
  5
49
 10
0.0
 20
0.0
 30
4.0
 11
2.0
 21
0.0
 31
4.0
1001
AME_SOL
1070
     1
1071
       11
  0
LINE
  8
0
 62
     0
  5
4A
 10
0.0
 20
0.0
 30
0.0
 11
2.0
 21
0.0
 31
0.0
1001
AME_SOL
1070
     1
1071
       10
  0
LINE
  8
0
 62
     0
  5
4B
 10
0.0
 20
1.0
 30
0.0
 11
0.0
 21
0.0
 31
0.0
1001
AME_SOL
1070
     1
1071
        9
  0
LINE
  8
0
 62
     0
  5
4C
 10
2.0
 20
0.0
 30
0.0
 11
2.0
 21
1.0
 31
0.0
1001
AME_SOL
1070
     1
1071
        8
  0
LINE
  8
0
 62
     0
  5
4D
 10
2.0
 20
1.0
 30
0.0
 11
0.0
 21
1.0
 31
0.0
1001
AME_SOL
1070
     1
1071
        7
  0
ENDBLK
  8
0
  5
4E
  0
BLOCK
  8
0
  5
52
  2
*U6
 70
    65
 10
0.0
 20
0.0
 30
0.0
  1
*U
  3
*U
  0
LINE
  8
0
 62
     0
  5
53
 10
1.0
 20
2.0
 30
0.0
 11
1.0
 21
2.0
 31
4.0
1001
AME_SOL
1070
     1
1071
       18
  0
LINE
  8
0
 62
     0
  5
54
 10
1.0
 20
2.0
 30
4.0
 11
1.0
 21
0.0
 31
4.0
1001
AME_SOL
1070
     1
1071
       17
  0
LINE
  8
0
 62
     0
  5
55
 10
0.0
 20
2.0
 30
4.0
 11
1.0
 21
2.0
 31
4.0
1001
AME_SOL
1070
     1
1071
       16
  0
LINE
  8
0
 62
     0
  5
56
 10
0.0
 20
2.0
 30
0.0
 11
0.0
 21
2.0
 31
4.0
1001
AME_SOL
1070
     1
1071
       15
  0
LINE
  8
0
 62
     0
  5
57
 10
0.0
 20
2.0
 30
4.0
 11
0.0
 21
0.0
 31
4.0
1001
AME_SOL
1070
     1
1071
       14
  0
LINE
  8
0
 62
     0
  5
58
 10
0.0
 20
0.0
 30
0.0
 11
0.0
 21
0.0
 31
4.0
1001
AME_SOL
1070
     1
1071
       13
  0
LINE
  8
0
 62
     0
  5
59
 10
1.0
 20
0.0
 30
4.0
 11
1.0
 21
0.0
 31
0.0
1001
AME_SOL
1070
     1
1071
       12
  0
LINE
  8
0
 62
     0
  5
5A
 10
0.0
 20
0.0
 30
4.0
 11
1.0
 21
0.0
 31
4.0
1001
AME_SOL
1070
     1
1071
       11
  0
LINE
  8
0
 62
     0
  5
5B
 10
0.0
 20
0.0
 30
0.0
 11
1.0
 21
0.0
 31
0.0
1001
AME_SOL
1070
     1
1071
       10
  0
LINE
  8
0
 62
     0
  5
5C
 10
0.0
 20
2.0
 30
0.0
 11
0.0
 21
0.0
 31
0.0
1001
AME_SOL
1070
     1
1071
        9
  0
LINE
  8
0
 62
     0
  5
5D
 10
1.0
 20
0.0
 30
0.0
 11
1.0
 21
2.0
 31
0.0
1001
AME_SOL
1070
     1
1071
        8
  0
LINE
  8
0
 62
     0
  5
5E
 10
1.0
 20
2.0
 30
0.0
 11
0.0
 21
2.0
 31
0.0
1001
AME_SOL
1070
     1
1071
        7
  0
ENDBLK
  8
0
  5
5F
  0
BLOCK
  8
0
  5
65
  2
*U7
 70
    65
 10
0.0
 20
0.0
 30
0.0
  1
*U
  3
*U
  0
LINE
  8
0
 62
     7
  5
66
 10
3.0
 20
3.0
 30
0.0
 11
3.0
 21
3.0
 31
4.0
1001
AME_SOL
1070
     1
1071
       42
  0
LINE
  8
0
 62
     7
  5
67
 10
2.0
 20
3.0
 30
4.0
 11
3.0
 21
3.0
 31
4.0
1001
AME_SOL
1070
     1
1071
       41
  0
LINE
  8
0
 62
     7
  5
68
 10
3.0
 20
3.0
 30
4.0
 11
3.0
 21
0.0
 31
4.0
1001
AME_SOL
1070
     1
1071
       40
  0
LINE
  8
0
 62
     7
  5
69
 10
2.0
 20
3.0
 30
0.0
 11
2.0
 21
3.0
 31
4.0
1001
AME_SOL
1070
     1
1071
       39
  0
LINE
  8
0
 62
     7
  5
6A
 10
2.0
 20
3.0
 30
4.0
 11
2.0
 21
1.0
 31
4.0
1001
AME_SOL
1070
     1
1071
       38
  0
LINE
  8
0
 62
     7
  5
6B
 10
3.0
 20
3.0
 30
0.0
 11
2.0
 21
3.0
 31
0.0
1001
AME_SOL
1070
     1
1071
       37
  0
LINE
  8
0
 62
     7
  5
6C
 10
2.0
 20
3.0
 30
0.0
 11
2.0
 21
1.0
 31
0.0
1001
AME_SOL
1070
     1
1071
       36
  0
LINE
  8
0
 62
     7
  5
6D
 10
3.0
 20
0.0
 30
0.0
 11
3.0
 21
3.0
 31
0.0
1001
AME_SOL
1070
     1
1071
       35
  0
LINE
  8
0
 62
     7
  5
6E
 10
1.0
 20
1.0
 30
0.0
 11
2.0
 21
1.0
 31
0.0
1001
AME_SOL
1070
     1
1071
       34
  0
LINE
  8
0
 62
     7
  5
6F
 10
2.0
 20
1.0
 30
4.0
 11
2.0
 21
1.0
 31
0.0
1001
AME_SOL
1070
     1
1071
       33
  0
LINE
  8
0
 62
     7
  5
70
 10
2.0
 20
1.0
 30
4.0
 11
1.0
 21
1.0
 31
4.0
1001
AME_SOL
1070
     1
1071
       32
  0
LINE
  8
0
 62
     7
  5
71
 10
3.0
 20
0.0
 30
0.0
 11
0.0
 21
0.0
 31
0.0
1001
AME_SOL
1070
     1
1071
       31
  0
LINE
  8
0
 62
     7
  5
72
 10
3.0
 20
0.0
 30
4.0
 11
3.0
 21
0.0
 31
0.0
1001
AME_SOL
1070
     1
1071
       30
  0
LINE
  8
0
 62
     7
  5
73
 10
0.0
 20
0.0
 30
4.0
 11
3.0
 21
0.0
 31
4.0
1001
AME_SOL
1070
     1
1071
       29
  0
LINE
  8
0
 62
     7
  5
74
 10
1.0
 20
4.0
 30
0.0
 11
1.0
 21
1.0
 31
0.0
1001
AME_SOL
1070
     1
1071
       28
  0
LINE
  8
0
 62
     7
  5
75
 10
1.0
 20
1.0
 30
4.0
 11
1.0
 21
1.0
 31
0.0
1001
AME_SOL
1070
     1
1071
       27
  0
LINE
  8
0
 62
     7
  5
76
 10
1.0
 20
1.0
 30
4.0
 11
1.0
 21
2.0
 31
4.0
1001
AME_SOL
1070
     1
1071
       26
  0
LINE
  8
0
 62
     7
  5
77
 10
0.0
 20
4.0
 30
0.0
 11
1.0
 21
4.0
 31
0.0
1001
AME_SOL
1070
     1
1071
       25
  0
LINE
  8
0
 62
     7
  5
78
 10
1.0
 20
4.0
 30
0.0
 11
1.0
 21
4.0
 31
2.0
1001
AME_SOL
1070
     1
1071
       24
  0
LINE
  8
0
 62
     7
  5
79
 10
0.0
 20
0.0
 30
0.0
 11
0.0
 21
4.0
 31
0.0
1001
AME_SOL
1070
     1
1071
       23
  0
LINE
  8
0
 62
     7
  5
7A
 10
0.0
 20
0.0
 30
4.0
 11
0.0
 21
0.0
 31
0.0
1001
AME_SOL
1070
     1
1071
       22
  0
LINE
  8
0
 62
     7
  5
7B
 10
0.0
 20
4.0
 30
0.0
 11
0.0
 21
4.0
 31
2.0
1001
AME_SOL
1070
     1
1071
       21
  0
LINE
  8
0
 62
     7
  5
7C
 10
0.0
 20
2.0
 30
4.0
 11
0.0
 21
0.0
 31
4.0
1001
AME_SOL
1070
     1
1071
       20
  0
LINE
  8
0
 62
     7
  5
7D
 10
1.0
 20
2.0
 30
4.0
 11
1.0
 21
2.0
 31
2.0
1001
AME_SOL
1070
     1
1071
       19
  0
LINE
  8
0
 62
     7
  5
7E
 10
0.0
 20
2.0
 30
4.0
 11
1.0
 21
2.0
 31
4.0
1001
AME_SOL
1070
     1
1071
       18
  0
LINE
  8
0
 62
     7
  5
7F
 10
0.0
 20
2.0
 30
2.0
 11
0.0
 21
2.0
 31
4.0
1001
AME_SOL
1070
     1
1071
       17
  0
LINE
  8
0
 62
     7
  5
80
 10
1.0
 20
2.0
 30
2.0
 11
1.0
 21
4.0
 31
2.0
1001
AME_SOL
1070
     1
1071
       16
  0
LINE
  8
0
 62
     7
  5
81
 10
1.0
 20
4.0
 30
2.0
 11
0.0
 21
4.0
 31
2.0
1001
AME_SOL
1070
     1
1071
       15
  0
LINE
  8
0
 62
     7
  5
82
 10
0.0
 20
4.0
 30
2.0
 11
0.0
 21
2.0
 31
2.0
1001
AME_SOL
1070
     1
1071
       14
  0
LINE
  8
0
 62
     7
  5
83
 10
0.0
 20
2.0
 30
2.0
 11
1.0
 21
2.0
 31
2.0
1001
AME_SOL
1070
     1
1071
       13
  0
ENDBLK
  8
0
  5
84
  0
BLOCK
  8
0
  5
88
  2
AME_MAT
 70
    64
 10
0.0
 20
0.0
 30
0.0
  1
AME_MAT
  3
AME_MAT
  0
ENDBLK
  8
0
  5
89
  0
ENDSEC
  0
SECTION
  2
ENTITIES
  0
INSERT
  8
AME_FRZ
  5
3
  2
AME_NIL
 10
0.0
 20
0.0
 30
0.0
  0
INSERT
  8
AME_FRZ
  5
6
  2
AME_SOL
 10
0.0
 20
0.0
 30
0.0
1001
AME_SOL
1000
1.0
1000
sq cm
1070
     3
1070
     0
1070
     3
1000
wire
1040
0.0
1000
NONE
1040
1.0
1000
cm
1000
gm
1000
MILD_STEEL
1070
    25
1000
CSG
1070
     3
1070
     2
1070
     3
1000
cu cm
1070
     4
1070
     0
1005
3
  0
INSERT
  8
AME_FRZ
  5
15
  2
*U2
 10
0.0
 20
0.0
 30
0.0
1001
AME_SOL
1002
{
1070
     0
1071
  1858888
1070
  1536
1010
1.0
1020
4.0
1030
4.0
1005
0
1005
0
1005
3E
1040
0.0
1040
1.0
1000
MILD_STEEL
1000
0
1010
0.0
1020
0.0
1030
0.0
1010
0.0
1020
0.0
1030
1.0
1040
0.0
1002
}
  0
INSERT
  8
AME_FRZ
  5
26
  2
*U3
 10
0.0
 20
2.0
 30
2.0
1001
AME_SOL
1002
{
1070
     0
1071
  1923032
1070
  1536
1010
1.0
1020
2.0
1030
2.0
1005
0
1005
0
1005
3E
1040
0.0
1040
1.0
1000
MILD_STEEL
1000
0
1010
0.0
1020
2.0
1030
2.0
1010
0.0
1020
0.0
1030
1.0
1040
0.0
1002
}
  0
INSERT
  8
AME_FRZ
  5
3E
  2
*U4
 10
0.0
 20
0.0
 30
0.0
1001
AME_SOL
1002
{
1070
     0
1071
  1956824
1070
  1543
1070
     0
1005
15
1005
26
1005
0
1005
0
1005
85
1040
0.0
1040
1.0
1000
MILD_STEEL
1000
0
1010
0.0
1020
0.0
1030
0.0
1010
0.0
1020
0.0
1030
1.0
1040
0.0
1002
}
  0
INSERT
  8
AME_FRZ
  5
4F
  2
*U5
 10
1.0
 20
0.0
 30
0.0
1001
AME_SOL
1002
{
1070
     0
1071
  1928856
1070
  1536
1010
2.0
1020
1.0
1030
4.0
1005
0
1005
0
1005
63
1040
0.0
1040
1.0
1000
MILD_STEEL
1000
0
1010
1.0
1020
0.0
1030
0.0
1010
0.0
1020
0.0
1030
1.0
1040
0.0
1002
}
  0
INSERT
  8
AME_FRZ
  5
60
  2
*U6
 10
2.0
 20
1.0
 30
0.0
1001
AME_SOL
1002
{
1070
     0
1071
  1945760
1070
  1536
1010
1.0
1020
2.0
1030
4.0
1005
0
1005
0
1005
63
1040
0.0
1040
1.0
1000
MILD_STEEL
1000
0
1010
2.0
1020
1.0
1030
0.0
1010
0.0
1020
0.0
1030
1.0
1040
0.0
1002
}
  0
INSERT
  8
AME_FRZ
  5
63
  2
AME_NIL
 10
0.0
 20
0.0
 30
0.0
1001
AME_SOL
1002
{
1070
     0
1071
  1984880
1070
   775
1070
     2
1005
60
1005
4F
1005
0
1005
0
1005
85
1040
0.0
1040
1.0
1000
MILD_STEEL
1000
0
1010
0.0
1020
0.0
1030
0.0
1010
0.0
1020
0.0
1030
1.0
1040
0.0
1002
}
  0
INSERT
  8
0
  5
85
  2
*U7
 10
0.0
 20
0.0
 30
0.0
1001
AME_SOL
1002
{
1070
     0
1071
  1997920
1070
  1543
1070
     2
1005
63
1005
3E
1005
0
1005
86
1005
0
1040
0.0
1040
1.0
1000
MILD_STEEL
1000
0
1002
}
  0
INSERT
  8
AME_FRZ
  5
86
  2
AME_NIL
 10
1.0
 20
1.0
 30
1.0
1001
AME_SOL
1004
E903A9FB0100F0FFFFFF000052F70C000100000075D337BA75D337BA75D337BA2A094040BF058040BF05804001000000FBF20400000000BA00F0FF3F00F0FF3F0010803F00048040000800400100844E78301E00FFFF0000010032010000844E0000000000000000803F000000000000803F000000000000
1004
000000000000000000400000004005000000000000000000000000000000000000000000844E0000000000000000803F000000000000803F0000000000000000000000000000004000000040050000000000000000000000000000000000FFFFFFFFFBF20400000000BA00F0FF3F00F0FF3F0010803F0008
1004
0040000480400100844E08311E00FFFF0000010031010000844E00000000803F000000000000000000000000000000000000803F00000000000000400000004005000000000000000000000000000000000000000000844E00000000803F000000000000000000000000000000000000803F000000000000
1004
004000000040050000000000000000000000000000000000FFFFFFFFFBF2060075D337BA75D337BA75D337BA75D3373ABF058040BF0580400100844E50311E0001000000010094010000844E000000000000000000000000803F000000000000803F00000000000000000000000000000000050000000000
1004
00000000000000000000000000000000844E000000000000000000000000803F000000000000803F0000000000000000000000000000000005000000000000000000000000000000000001000000FBF2040075D337BA83F47F4075D337BAFA16803FBF058040BF0580400100844ED8391E00010000000100
1004
92010000844E00000000008000000080000080BF000080BF00000080000000800000803F000080400000804005000000000000000000000000000000000000000000844E00000000008000000080000080BF000080BF00000080000000800000803F00008040000080400500000000000000000000000000
1004
0000000001000000FBF206000BD27F3F75D337BA75D337BAFA16803FBF058040BF0580400100844E203A1E0001000000010091010000844E000000000080000080BF000000800000008000000080000080BF0000803F000080400000804005000000000000000000000000000000000000000000844E0000
1004
0000008000000080000080BF000000000000803F000000000000803F000000000000000005000000000000000000000000000000000001000000FBF2040075D337BA75D337BA75D337BAFA16803F75D3373ABF0580400100844E183C1E0001000000020095010000844E00000000803F0000000000000000
1004
00000000000000000000803F000000000000000000000000050000000000000000000000000000000000000000005D020000844E00000000803F000000000000000000000000000000000000803F0000803F000000000000000005000000000000000000000000000000000000000000844E00000000803F
1004
000000000000000000000000000000000000803F0000803F000000000000000005000000000000000000000000000000000001000000FBF2040057DB7F3F57DB7F3F76A412BA2A0940405512803F950480400100844EE0A01E000100000001005A020000844E00000000008000000080000080BF000080BF
1004
0000008000000080000040400000803F0000804005000000000000000000000000000000000000000000844E0000000080BF000000800000008000000000000000000000803F000000400000803F0000000005000000000000000000000000000000000001000000FBF2080075D337BA75D337BA75D337BA
1004
FA16803FBF05804075D3373A0100844ED03B1E0001000000030096010000844E0000000000000000803F000000000000803F0000000000000000000000000000000000000000050000000000000000000000000000000000000000005E020000844E0000000000000000803F000000000000803F00000000
1004
000000000000803F000000000000000005000000000000000000000000000000000000000000C2020000844E0000000000000000803F000000000000803F0000000000000000000000400000803F0000000005000000000000000000000000000000000000000000844E0000000000000000803F00000000
1004
0000803F0000000000000000000000400000803F0000000005000000000000000000000000000000000001000000FBF20400ABEDFF3F57DB7F3F76A412BA2A0900402A094040950480400100844E403B1E00010000000100C0020000844E000000000000000000000000803F000000000000803F00000000
1004
000000400000803F0000000005000000000000000000000000000000000000000000844E000000000000000000000000803F000000000000803F00000000000000400000803F0000000005000000000000000000000000000000000001000000FBF2080075D337BA75D337BA83F47F40FA16803FBF058040
1004
BF0580400100844E78A21E0001000000030093010000844E0000000080BF000000800000008000000080000080BF000000800000803F0000804000008040050000000000000000000000000000000000000000005B020000844E0000000080BF000000800000008000000080000080BF0000008000004040
1004
0000803F0000804005000000000000000000000000000000000000000000BF020000844E0000000080BF000000800000008000000080000080BF0000008000004040000040400000804005000000000000000000000000000000000000000000844E0000000080BF000000800000008000000080000080BF
1004
0000008000004040000040400000804005000000000000000000000000000000000001000000FBF20400ABEDFF3FD6F63F4076A412BA2A0940402A094040950480400100844E08A31E00010000000100BE020000844E00000000008000000080000080BF000080BF00000080000000800000404000004040
1004
0000804005000000000000000000000000000000000000000000844E00000000008000000080000080BF000080BF000000800000008000004040000040400000804005000000000000000000000000000000000001000000FBF20400D6F63F4076A412BA76A412BA2A0940405512803F950480400100844E
1004
98A31E0001000000020059020000844E000000000080000080BF000000800000008000000080000080BF000040400000803F0000804005000000000000000000000000000000000000000000BD020000844E000000000080000080BF000000800000008000000080000080BF000040400000404000008040
1004
05000000000000000000000000000000000000000000844E000000000080000080BF000000800000008000000080000080BF00004040000040400000804005000000000000000000000000000000000001000000A4EE000000BA00F0FF3F00F0FF3F0010803F0008004000080040000000000000803F0200
1004
967550A31E0000000100FFFF78301E0008311E000000020008311E0078301E00FFFFFFFFFFFFFFFF9675000000000000000080BF000000000000000000000000000080BF0000000000000040000000400200000000000000803FA4EE000000BA00F0FF3F00F0FF3F75D3373A0004804000080040000040C0
1004
000080BF0200967530AF1E0000000100FFFF78301E0050311E000000020050311E0078301E0001000000FFFFFFFF96750000000080BF00000000000000000000000000000000000080BF000000000000803F000000400200000040C0000080BFA4EE000000BA83F47F4000F0FF3F0010803F000480400008
1004
0040000000BF0000003F02009675C0A41E0000000100FFFF78301E00D8391E0000000200D8391E0078301E0001000000FFFFFFFF96750000000000000000803F000000000000000000000000000080BF0000003F00008040000000400200000000BF0000003FA4EE0BD27F3F00F0FF3F00F0FF3F0010803F
1004
0004804000080040000080BF0000803F02009675F02D1E0000000100FFFF78301E00203A1E0000000200203A1E0078301E0001000000FFFFFFFF967500000000803F00000000000000000000000000000000000080BF0000803F00004040000000400200000080BF0000803FA4EE000000BA00F0FF3F00F0
1004
FF3F75D3373A00080040000480400000803F000040400200967508281E0000000100FFFF08311E0050311E000000020050311E0008311E0001000000FFFFFFFF96750000000080BF000000000000000000000000000080BF0000000000000000000000400000803F02000000803F00004040A4EE000000BA
1004
00F0FF3F83F47F400010803F00080040000480400000C0BF000000BF02009675F01D1E0000000100FFFF08311E0078A21E000000020078A21E0008311E0001000000FFFFFFFF9675000000000000000000000000803F00000000000080BF000000000000C03F000000400000804002000000C0BF000000BF
1004
A4EE0BD27F3F00F0FF3F00F0FF3F0010803F0008004000048040000080BF0000803F02009675101B1E0000000100FFFF08311E00203A1E0000000200203A1E0008311E0001000000FFFFFFFF967500000000803F000000000000000000000000000080BF000000000000803F000000400000404002000000
1004
80BF0000803FA4EE75D337BA75D337BA83F47F4075D3373ABF058040BF058040000000BF0000C03F0200967538541D000000FFFF010050311E0078A21E000000020050311E0078A21E0001000000010000009675000000000000000000000000803F000080BF0000000000000000000000000000C03F0000
1004
80400200000000BF0000C03FA4EE75D337BA83F47F4075D337BA75D3373ABF058040BF058040000000C0000000000200967518511D000000FFFF010050311E00D8391E000000020050311E00D8391E00010000000100000096750000000000000000803F00000000000080BF000000000000000000000000
1004
00008040000000400200000000C000000000A4EE75D337BA75D337BA75D337BA75D3373A75D3373ABF058040000080C00000008002009675386D1D000000FFFF010050311E00183C1E000000020050311E00183C1E0001000000010000009675000000000000000080BF00000000000080BF000000000000
1004
00000000000000000000000000000200000080C000000080A4EE75D337BA75D337BA75D337BA75D3373ABF05804075D3373A000000BF000060400200967570621D000000FFFF010050311E00D03B1E000000020050311E00D03B1E000100000001000000967500000000000000000000000080BF000080BF
1004
0000000000000000000000000000003F000000000200000000BF00006040A4EE0BD27F3F83F47F4075D337BAFA16803FBF058040BF058040000080C0000000C00200967528621D000000FFFF0100D8391E00203A1E0000000200D8391E00203A1E000100000001000000967500000000803F000000000000
1004
0000000000000000803F000000000000803F00008040000080400200000080C0000000C0A4EE75D337BA83F47F4075D337BAFA16803FBF05804075D3373A0000C0BF000000BF02009675805A1D000000FFFF0100D8391E00D03B1E0000000200D8391E00D03B1E0001000000010000009675000000000000
1004
00000000000080BF000000000000803F000000000000C03F000080400000000002000000C0BF000000BFA4EE0BD27F3F75D337BA83F47F40FA16803FBF058040BF058040000000BF0000003F0200967510771D000000FFFF0100203A1E0078A21E0000000200203A1E0078A21E0001000000010000009675
1004
000000000000000000000000803F0000803F00000000000000000000803F0000C03F000080400200000000BF0000003FA4EE57DB7F3F57DB7F3F76A412BAFA16803F5512803F95048040000080C00000008002009675787C1D0000000100FFFF203A1E00E0A01E0000000200E0A01E00203A1E0001000000
1004
0100000096750000000000000000803F000000000000803F00000080000000000000803F0000803F000000000200000080C000000080A4EE0BD27F3F75D337BA75D337BAFA16803FBF05804075D3373A000060C0000000BF02009675B0871D000000FFFF0100203A1E00D03B1E0000000200203A1E00D03B
1004
1E000100000001000000967500000000000000000000000080BF0000803F00000000000000000000803F0000003F000000000200000060C0000000BFA4EE75D337BA75D337BA83F47F402A09404075D3373ABF058040000000C00000803F0200967558971D000000FFFF0100183C1E0078A21E0000000200
1004
183C1E0078A21E0001000000010000009675000000000000000000000000803F00000000000080BF000000000000004000000000000080400200000000C00000803FA4EED6F63F4076A412BA76A412BA2A09404076A4123A95048040000000C0000000400200967540921D000000FFFF0100183C1E0098A3
1004
1E0000000200183C1E0098A31E000100000001000000967500000000803F000000000000000000000000000080BF000000000000404000000000000000400200000000C000000040A4EE75D337BA75D337BA75D337BA2A09404075D3373A75D3373A0000C0BF0000C03F02009675F8B21D000000FFFF0100
1004
183C1E00D03B1E0000000200183C1E00D03B1E000100000001000000967500000000000000000000000080BF00000000000080BF000000000000C03F000000000000000002000000C0BF0000C03FA4EE57DB7F3F57DB7F3F83F47F402A0940405512803F950480400000003F0000C03F02009675F0B41D00
1004
0000FFFF0100E0A01E0078A21E0000000200E0A01E0078A21E0001000000010000009675000000000000000000000000803F000000000000803F00000080000020400000803F0000804002000000003F0000C03FA4EEABEDFF3F57DB7F3F76A412BA2A0900405512803F95048040000080C0000000800200
1004
967538B51D0000000100FFFFE0A01E00403B1E0000000200403B1E00E0A01E00010000000100000096750000000080BF0000000000000000000000000000803F00000000000000400000803F000000000200000080C000000080A4EE57DB7F3F57DB7F3F76A412BA2A0940405512803F75D3373A000080BF
1004
0000000002009675D0B31D000000FFFF0100E0A01E00D03B1E0000000200E0A01E00D03B1E000100000001000000967500000000000000000000000080BF000000000000803F00000000000000400000803F000000000200000080BF00000000A4EED6F63F4076A412BA76A412BA2A0940402A09404076A4
1004
123A000000C00000803F02009675B0B21D000000FFFF0100D03B1E0098A31E0000000200D03B1E0098A31E000100000001000000967500000000803F00000000000000000000000000000000000080BF0000404000000040000000000200000000C00000803FA4EEABEDFF3F57DB7F3F76A412BA2A090040
1004
2A09404076A4123A000000C00000000002009675E0B91D000000FFFF0100D03B1E00403B1E0000000200D03B1E00403B1E00010000000100000096750000000080BF00000000000000000000000000000000000080BF000000400000803F000000000200000000C000000000A4EEABEDFF3FD6F63F4076A4
1004
12BA2A0940402A09404076A4123A000000BF0000003F0200967520BC1D000000FFFF0100D03B1E0008A31E0000000200D03B1E0008A31E00010000000100000096750000000000000000803F000000000000000000000000000080BF0000204000004040000000000200000000BF0000003FA4EEABEDFF3F
1004
57DB7F3FD6F67F402A0900402A09404095048040000080BF0000803F0200967518891D000000FFFF0100403B1E0078A21E0000000200403B1E0078A21E0001000000010000009675000000000000000000000000803F000080BF00000000000000000000004000000040000080400200000080BF0000803F
1004
A4EEABEDFF3FD6F63F4076A412BA2A0900402A09404095048040000000C00000004002009675F8DE1D000000FFFF0100403B1E0008A31E0000000200403B1E0008A31E00010000000100000096750000000000000000803F00000000000080BF000000000000000000000040000040400000004002000000
1004
00C000000040A4EED6F63F4076A412BAD6F67F402A0940402A0940409504804000000000000040400200967540DF1D000000FFFF010078A21E0098A31E000000020078A21E0098A31E000100000001000000967500000000803F000000000000000000000080000000000000803F00004040000040400000
1004
804002000000000000004040A4EEABEDFF3FD6F63F40D6F67F402A0940402A09404095048040000080BF0000008002009675F0E01D000000FFFF010078A21E0008A31E000000020078A21E0008A31E00010000000100000096750000000000000000803F0000000000000000000000000000803F00004040
1004
00004040000080400200000080BF00000080A4EED6F63F40D6F63F4076A412BA2A0940402A09404095048040000080C00000008002009675D0DF1D000000FFFF010008A31E0098A31E000000020008A31E0098A31E000100000001000000967500000000803F0000000000000000000000000000803F0000
1004
00000000404000004040000080400200000080C00000008019FC
1005
87
  0
INSERT
  8
AME_FRZ
  5
87
  2
AME_NIL
 10
1.0
 20
1.0
 30
1.0
1001
AME_SOL
1004

1005
0
  0
INSERT
  8
AME_FRZ
  5
8A
  2
AME_MAT
 10
0.0
 20
0.0
 30
0.0
1001
AME_SOL
1000
MILD_STEEL
1040
7860.0
1040
220.0
1040
0.275
1040
207.0
1040
345.0
1040
56.0
1040
12.0
1040
0.46
  0
ENDSEC
  0
EOF
