600 0 2 0           
24 FBMach with ACIS - 6.0.3 13 ACIS 6.0.3 NT 24 Wed May 23 20:18:42 2001 
1 9.9999999999999995e-007 1e-010 
body $2 $3 $-1 $4 #
bdycol-kcp $-1 1 3 $5 $6 $7 #
model_id-kcp-attrib $-1 $-1 $-1 $0 1 990663522 60 1027342337 1 #
lump $-1 $-1 $8 $0 #
transform $-1 1 0 0 0 1 0 0 0 1 0 0 0 1 no_rotate no_reflect no_shear #
body $9 $10 $-1 $11 #
body $12 $13 $-1 $14 #
body $15 $16 $-1 $17 #
shell $-1 $-1 $-1 $18 $-1 $3 #
model_id-kcp-attrib $-1 $-1 $-1 $5 1 990663522 60 1027342338 1 #
lump $-1 $-1 $19 $5 #
transform $-1 1 0 0 0 1 0 0 0 1 0 0 1.7763568394002505e-015 1 no_rotate no_reflect no_shear #
rgb_color-st-attrib $-1 $20 $-1 $6 0 0 1 #
lump $-1 $-1 $21 $6 #
transform $-1 1 0 0 0 1 0 0 0 1 0 0 1.7763568394002505e-015 1 no_rotate no_reflect no_shear #
rgb_color-st-attrib $-1 $22 $-1 $7 0 0 1 #
lump $-1 $-1 $23 $7 #
transform $-1 1 0 0 0 1 0 0 0 1 0 0 1.7763568394002505e-015 1 no_rotate no_reflect no_shear #
face $24 $25 $26 $8 $-1 $27 reversed single #
shell $-1 $-1 $-1 $28 $-1 $10 #
model_id-kcp-attrib $-1 $-1 $12 $6 1 990663522 430 1034813443 1 #
shell $-1 $-1 $-1 $29 $-1 $13 #
model_id-kcp-attrib $-1 $-1 $15 $7 1 990663522 560 1026555908 1 #
shell $-1 $-1 $-1 $30 $-1 $16 #
model_id-kcp-attrib $-1 $-1 $-1 $18 1 990663522 60 1027342337 2 #
face $31 $32 $33 $8 $-1 $34 reversed single #
loop $-1 $-1 $35 $18 #
cone-surface $-1 -20 20 15 0 0 1 10 0 0 1 I I 0 1 10 forward I I I I #
face $36 $37 $38 $19 $-1 $39 forward single #
face $-1 $40 $41 $21 $-1 $42 forward single #
face $-1 $43 $44 $23 $-1 $45 forward single #
model_id-kcp-attrib $-1 $-1 $-1 $25 1 990663522 60 1027342337 3 #
face $46 $47 $48 $8 $-1 $49 reversed single #
loop $-1 $-1 $50 $25 #
plane-surface $-1 -20 20 10 0 0 -1 -1 0 0 forward_v I I I I #
coedge $-1 $51 $52 $53 $54 reversed $26 $-1 #
model_id-kcp-attrib $-1 $-1 $-1 $28 1 990663522 60 1027342338 2 #
face $55 $56 $57 $19 $-1 $58 reversed single #
loop $-1 $-1 $59 $28 #
plane-surface $-1 0 0 20 0 0 1 1 0 0 forward_v I I I I #
face $-1 $60 $61 $21 $-1 $62 forward single #
loop $-1 $-1 $63 $29 #
cone-surface $-1 -20 20 10 0 0 1 10 0 0 1 I I 0 1 10 forward I I I I #
face $-1 $64 $65 $23 $-1 $66 forward single #
loop $-1 $-1 $67 $30 #
plane-surface $-1 -10.596499072040015 -1.068029221234708 10 0 0 1 1 0 0 forward_v I I I I #
model_id-kcp-attrib $-1 $-1 $-1 $32 1 990663522 60 1027342337 4 #
face $68 $69 $70 $8 $-1 $71 reversed single #
loop $-1 $-1 $72 $32 #
cone-surface $-1 0 0 0 0 0 1 30 0 0 1 I I 0 1 30 forward I I I I #
coedge $-1 $73 $73 $74 $75 reversed $33 $-1 #
coedge $-1 $76 $35 $73 $77 forward $26 $-1 #
coedge $-1 $35 $76 $78 $79 reversed $26 $-1 #
coedge $-1 $80 $74 $35 $54 forward $48 $-1 #
edge $-1 $81 -5.0000000000000018 $82 5 $53 $83 forward 7 unknown #
model_id-kcp-attrib $-1 $-1 $-1 $37 1 990663522 60 1027342338 3 #
face $84 $85 $86 $19 $-1 $87 reversed single #
loop $-1 $-1 $88 $37 #
plane-surface $-1 0 0 -20 0 0 1 1 0 0 forward_v I I I I #
coedge $-1 $89 $90 $91 $92 forward $38 $-1 #
face $-1 $93 $94 $21 $-1 $95 forward single #
loop $-1 $-1 $96 $40 #
cone-surface $-1 0 0 10 0 0 1 30 0 0 1 I I 0 1 30 forward I I I I #
coedge $-1 $97 $98 $99 $100 forward $41 $-1 #
face $-1 $101 $102 $23 $-1 $103 forward single #
loop $-1 $-1 $104 $43 #
plane-surface $-1 0 30 -1.7763568394002505e-015 1 0 0 0 0 -1 forward_v I I I I #
coedge $-1 $105 $105 $106 $107 forward $44 $-1 #
model_id-kcp-attrib $-1 $-1 $-1 $47 1 990663522 60 1027342337 5 #
face $108 $109 $110 $8 $-1 $111 reversed single #
loop $-1 $-1 $112 $47 #
cone-surface $-1 0 -25 15 0 0 1 10 0 0 1 I I 0 1 10 forward I I I I #
coedge $-1 $74 $113 $76 $114 forward $48 $-1 #
coedge $-1 $50 $50 $51 $77 reversed $33 $-1 #
coedge $-1 $53 $72 $50 $75 forward $48 $-1 #
edge $-1 $115 2.016357580738223 $81 2.6960313996464671 $74 $116 forward 7 unknown #
coedge $-1 $52 $51 $72 $114 reversed $26 $-1 #
edge $-1 $81 2.3561944901923444 $115 5.497787143782138 $73 $117 forward 7 unknown #
coedge $-1 $118 $119 $52 $79 forward $120 $-1 #
edge $121 $82 2.3561944901923448 $122 5.497787143782138 $78 $123 forward 7 unknown #
coedge $-1 $124 $53 $119 $125 reversed $48 $-1 #
vertex $-1 $54 $126 #
vertex $-1 $125 $127 #
straight-curve $-1 -27.071067811865472 12.928932188134521 15 0 0 1 I I #
model_id-kcp-attrib $-1 $-1 $-1 $56 1 990663522 60 1027342338 6 #
face $128 $129 $130 $19 $-1 $131 reversed single #
loop $-1 $-1 $132 $56 #
plane-surface $-1 0 -40 0 0 1 0 0 0 1 forward_v I I I I #
coedge $-1 $133 $134 $135 $136 forward $57 $-1 #
coedge $-1 $137 $59 $138 $139 forward $38 $-1 #
coedge $-1 $59 $137 $140 $141 forward $38 $-1 #
coedge $-1 $142 $143 $59 $92 reversed $144 $-1 #
edge $-1 $145 -40 $146 40 $91 $147 forward 7 unknown #
face $-1 $148 $149 $21 $-1 $150 forward single #
loop $-1 $-1 $151 $60 #
plane-surface $-1 0 29.999999999999996 9.9999999999999982 1 0 0 0 0 -1 forward_v I I I I #
coedge $-1 $152 $153 $154 $155 forward $61 $-1 #
coedge $-1 $156 $63 $153 $157 reversed $41 $-1 #
coedge $-1 $63 $156 $158 $159 forward $41 $-1 #
coedge $-1 $160 $154 $63 $100 reversed $161 $-1 #
edge $-1 $162 2.3561944901923448 $163 5.497787143782138 $63 $164 forward 7 unknown #
face $-1 $-1 $165 $23 $-1 $166 reversed single #
loop $-1 $-1 $106 $64 #
cone-surface $-1 0 0 0 0 0 1 30 0 0 1 I I 0 1 30 forward I I I I #
coedge $-1 $167 $168 $105 $169 reversed $65 $-1 #
coedge $-1 $67 $67 $104 $169 forward $44 $-1 #
coedge $-1 $170 $171 $67 $107 reversed $102 $-1 #
edge $-1 $172 1.5707963267948966 $173 4.7123889803846897 $106 $174 forward 7 unknown #
model_id-kcp-attrib $-1 $-1 $-1 $69 1 990663522 60 1027342337 6 #
face $175 $176 $120 $8 $-1 $177 forward single #
loop $-1 $-1 $178 $69 #
plane-surface $-1 0 -25 10 0 0 -1 -1 0 0 forward_v I I I I #
coedge $-1 $179 $180 $181 $182 reversed $70 $-1 #
coedge $-1 $72 $183 $118 $184 reversed $48 $-1 #
edge $-1 $122 -5 $115 5.0000000000000018 $72 $185 forward 7 unknown #
vertex $-1 $114 $186 #
ellipse-curve $-1 0 0 10 0 0 1 30 0 0 1 I I #
ellipse-curve $-1 -20 20 10 0 0 -1 10 0 0 1 I I #
coedge $-1 $187 $78 $113 $184 forward $120 $-1 #
coedge $-1 $78 $188 $80 $125 forward $120 $-1 #
loop $-1 $189 $78 $109 #
attrib_edge_convexity-kcp-attrib $-1 $190 $-1 $79 1 #
vertex $-1 $79 $191 #
ellipse-curve $-1 -20 20 20 0 0 -1 10 0 0 1 I I #
coedge $-1 $192 $80 $193 $194 forward $48 $-1 #
edge $195 $196 1.8883567560864178 $82 3.5871539075331196 $119 $197 forward 7 unknown #
point $-1 -27.071067811865472 12.928932188134521 9.9999999999999982 #
point $-1 -27.071067811865472 12.928932188134528 20 #
model_id-kcp-attrib $-1 $-1 $-1 $85 1 990663522 60 1027342338 4 #
face $198 $199 $200 $19 $-1 $201 reversed single #
loop $-1 $-1 $202 $85 #
plane-surface $-1 -40 0 0 1 0 0 0 0 -1 forward_v I I I I #
coedge $-1 $203 $140 $204 $205 forward $86 $-1 #
coedge $-1 $206 $88 $203 $207 forward $57 $-1 #
coedge $-1 $88 $206 $208 $209 forward $57 $-1 #
coedge $-1 $143 $142 $88 $136 reversed $144 $-1 #
edge $-1 $210 -40 $211 40 $135 $212 forward 7 unknown #
coedge $-1 $90 $89 $213 $214 forward $38 $-1 #
coedge $-1 $215 $216 $89 $139 reversed $200 $-1 #
edge $-1 $146 -40 $217 40 $138 $218 forward 7 unknown #
coedge $-1 $132 $219 $90 $141 reversed $86 $-1 #
edge $-1 $220 -40 $145 40 $140 $221 forward 7 unknown #
coedge $-1 $135 $91 $219 $222 forward $144 $-1 #
coedge $-1 $91 $135 $215 $223 reversed $144 $-1 #
loop $-1 $-1 $142 $199 #
vertex $-1 $92 $224 #
vertex $-1 $92 $225 #
straight-curve $-1 40 0 20 0 1 0 I I #
face $-1 $226 $227 $21 $-1 $228 forward single #
loop $-1 $-1 $229 $93 #
cone-surface $-1 0 -25 10 0 0 1 10 0 0 1 I I 0 1 10 forward I I I I #
coedge $-1 $230 $231 $232 $233 forward $94 $-1 #
coedge $-1 $234 $96 $231 $235 reversed $61 $-1 #
coedge $-1 $96 $234 $97 $157 forward $61 $-1 #
coedge $-1 $99 $232 $96 $155 reversed $161 $-1 #
edge $-1 $163 -2.016357580738223 $236 -1.5707963267948966 $96 $237 forward 7 unknown #
coedge $-1 $98 $97 $238 $239 reversed $41 $-1 #
edge $-1 $240 0 $163 10 $153 $241 forward 7 unknown #
coedge $-1 $242 $243 $98 $159 reversed $227 $-1 #
edge $-1 $244 0 $162 10 $98 $245 forward 7 unknown #
coedge $-1 $246 $99 $243 $247 reversed $161 $-1 #
loop $-1 $-1 $99 $226 #
vertex $-1 $159 $248 #
vertex $-1 $157 $249 #
ellipse-curve $-1 -20 20 20 0 0 -1 10 0 0 1 I I #
loop $-1 $-1 $250 $101 #
plane-surface $-1 -10.521272322061801 -1.7760788341175903e-015 0 0 0 1 1 0 0 forward_v I I I I #
coedge $-1 $251 $104 $171 $252 reversed $65 $-1 #
coedge $-1 $104 $251 $170 $253 forward $65 $-1 #
edge $-1 $173 -44.465985389382645 $172 15.534014610617355 $104 $254 forward 7 unknown #
coedge $-1 $255 $106 $168 $253 reversed $102 $-1 #
coedge $-1 $106 $255 $167 $252 forward $102 $-1 #
vertex $-1 $169 $256 #
vertex $-1 $169 $257 #
ellipse-curve $-1 0 0 10 0 0 1 30 0 0 1 I I #
model_id-kcp-attrib $-1 $-1 $-1 $109 1 990663522 60 1027342337 7 #
face $258 $259 $260 $8 $-1 $261 forward single #
plane-surface $-1 0 0 20 0 0 1 1 0 0 forward_v I I I I #
coedge $-1 $262 $263 $264 $265 reversed $110 $-1 #
coedge $-1 $193 $112 $263 $266 forward $70 $-1 #
coedge $-1 $112 $193 $188 $267 reversed $70 $-1 #
coedge $-1 $268 $264 $112 $182 forward $269 $-1 #
edge $-1 $270 -5 $271 5 $181 $272 forward 7 unknown #
coedge $-1 $113 $273 $274 $275 forward $48 $-1 #
edge $276 $122 -2.016357580738223 $277 -1.5707963267948966 $118 $197 forward 7 unknown #
straight-curve $-1 -12.928932188134521 27.071067811865472 15 0 0 -1 I I #
point $-1 -12.928932188134521 27.071067811865472 9.9999999999999982 #
coedge $-1 $188 $118 $268 $278 forward $120 $-1 #
coedge $-1 $119 $187 $180 $267 forward $120 $-1 #
loop $-1 $-1 $279 $109 #
convexity-sys-attrib $-1 $-1 $121 $79 #
point $-1 -12.928932188134528 27.071067811865472 20 #
coedge $-1 $280 $124 $262 $281 forward $48 $-1 #
coedge $-1 $180 $179 $124 $194 reversed $70 $-1 #
edge $-1 $196 -5.0000000000000018 $282 5 $124 $283 forward 7 unknown #
attrib_edge_convexity-kcp-attrib $-1 $284 $-1 $125 1 #
vertex $-1 $194 $285 #
ellipse-curve $-1 0 0 20 0 0 -1 30 0 0 1 I I #
model_id-kcp-attrib $-1 $-1 $-1 $129 1 990663522 60 1027342338 5 #
face $286 $-1 $144 $19 $-1 $287 reversed single #
loop $-1 $-1 $215 $129 #
plane-surface $-1 0 40 0 0 -1 0 0 0 -1 forward_v I I I I #
coedge $-1 $288 $213 $216 $289 forward $130 $-1 #
coedge $-1 $219 $132 $133 $207 reversed $86 $-1 #
coedge $-1 $213 $288 $132 $205 reversed $130 $-1 #
edge $-1 $220 -20 $290 20 $204 $291 forward 7 unknown #
coedge $-1 $134 $133 $288 $292 forward $57 $-1 #
edge $-1 $211 -40 $290 40 $203 $293 forward 7 unknown #
coedge $-1 $216 $215 $134 $209 reversed $200 $-1 #
edge $-1 $294 -40 $210 40 $208 $295 forward 7 unknown #
vertex $-1 $136 $296 #
vertex $-1 $222 $297 #
straight-curve $-1 40 0 -20 0 -1 0 I I #
coedge $-1 $202 $204 $137 $214 reversed $130 $-1 #
edge $-1 $217 -40 $220 40 $213 $298 forward 7 unknown #
coedge $-1 $208 $138 $143 $223 forward $200 $-1 #
coedge $-1 $138 $208 $202 $289 reversed $200 $-1 #
vertex $-1 $139 $299 #
straight-curve $-1 0 40 20 -1 0 0 I I #
coedge $-1 $140 $203 $142 $222 reversed $86 $-1 #
vertex $-1 $214 $300 #
straight-curve $-1 0 -40 20 1 0 0 I I #
edge $-1 $145 -20 $211 20 $142 $301 forward 7 unknown #
edge $-1 $146 -20 $210 20 $143 $302 forward 7 unknown #
point $-1 40 -40 20 #
point $-1 40 40 20 #
face $-1 $303 $161 $21 $-1 $304 forward single #
loop $-1 $-1 $243 $148 #
cone-surface $-1 0 0 10 0 0 1 30 0 0 1 I I 0 1 30 forward I I I I #
coedge $-1 $305 $306 $246 $307 forward $149 $-1 #
coedge $-1 $308 $151 $306 $309 reversed $94 $-1 #
coedge $-1 $151 $308 $152 $235 forward $94 $-1 #
coedge $-1 $154 $246 $151 $233 reversed $161 $-1 #
edge $-1 $236 -42.5 $310 2.5 $151 $311 forward 7 unknown #
coedge $-1 $153 $152 $312 $313 reversed $61 $-1 #
edge $-1 $314 0 $236 10.000000000000002 $231 $315 forward 7 unknown #
vertex $-1 $235 $316 #
ellipse-curve $-1 0 0 20 0 0 -1 30 0 0 1 I I #
coedge $-1 $312 $317 $156 $239 forward $318 $-1 #
edge $319 $244 2.3561944901923444 $240 5.497787143782138 $156 $320 forward 7 unknown #
vertex $-1 $239 $321 #
straight-curve $-1 -12.928932188134521 27.071067811865472 9.9999999999999964 0 0 1 I I #
coedge $-1 $322 $158 $317 $323 reversed $227 $-1 #
coedge $-1 $158 $322 $160 $247 forward $227 $-1 #
vertex $-1 $323 $324 #
straight-curve $-1 -27.071067811865476 12.928932188134521 9.9999999999999964 0 0 1 I I #
coedge $-1 $232 $160 $229 $307 reversed $161 $-1 #
edge $-1 $325 1.8883567560864178 $162 3.5871539075331191 $243 $326 forward 7 unknown #
point $-1 -27.071067811865476 12.928932188134521 19.999999999999996 #
point $-1 -12.928932188134521 27.071067811865472 19.999999999999996 #
coedge $-1 $327 $327 $255 $328 forward $165 $-1 #
coedge $-1 $168 $167 $327 $329 reversed $65 $-1 #
edge $330 $331 0 $173 10 $171 $332 forward 7 unknown #
edge $333 $334 0 $172 10 $168 $335 forward 7 unknown #
straight-curve $-1 0 14.465985389382645 10 0 1 0 I I #
coedge $-1 $171 $170 $250 $328 reversed $102 $-1 #
point $-1 0 30 9.9999999999999982 #
point $-1 0 -30 9.9999999999999982 #
model_id-kcp-attrib $-1 $-1 $-1 $176 1 990663522 60 1027342337 8 #
face $336 $337 $338 $8 $-1 $339 reversed single #
loop $-1 $-1 $340 $176 #
plane-surface $-1 -30 0 0 0 0 1 1 0 0 forward_v I I I I #
coedge $-1 $263 $178 $192 $281 reversed $110 $-1 #
coedge $-1 $178 $262 $179 $266 reversed $110 $-1 #
coedge $-1 $181 $341 $178 $265 forward $269 $-1 #
edge $-1 $342 -17.5 $270 -2.5 $264 $343 forward 7 unknown #
edge $-1 $270 -1.5707963267948966 $282 2.7840215499442826 $263 $344 forward 7 unknown #
edge $345 $271 -1.5707963267948966 $196 2.7840215499442826 $188 $346 forward 7 unknown #
coedge $-1 $274 $181 $187 $278 reversed $269 $-1 #
loop $-1 $-1 $181 $347 #
vertex $-1 $182 $348 #
vertex $-1 $278 $349 #
straight-curve $-1 0 -15 15 0 0 1 I I #
coedge $-1 $183 $350 $351 $352 reversed $48 $-1 #
coedge $-1 $353 $268 $183 $275 reversed $269 $-1 #
edge $-1 $354 -20 $277 20 $183 $355 forward 7 unknown #
attrib_edge_convexity-kcp-attrib $-1 $356 $-1 $184 1 #
vertex $-1 $184 $357 #
edge $358 $277 -30 $271 15 $268 $359 forward 7 unknown #
coedge $-1 $360 $361 $362 $363 forward $189 $-1 #
coedge $-1 $364 $192 $341 $365 forward $48 $-1 #
edge $-1 $282 -1.8883567560864178 $342 -1.5707963267948966 $192 $366 forward 7 unknown #
vertex $-1 $194 $367 #
straight-curve $-1 -9.3674969975975966 -28.500000000000004 15.000000000000002 0 0 -1 I I #
convexity-sys-attrib $-1 $-1 $195 $125 #
point $-1 -9.3674969975975966 -28.500000000000004 20.000000000000004 #
model_id-kcp-attrib $-1 $-1 $-1 $199 1 990663522 60 1027342338 7 #
plane-surface $-1 40 0 0 -1 0 0 0 0 1 forward_v I I I I #
coedge $-1 $204 $202 $206 $292 reversed $130 $-1 #
edge $-1 $217 -20 $294 20 $216 $368 forward 7 unknown #
vertex $-1 $292 $369 #
straight-curve $-1 -40 -40 0 0 0 -1 I I #
edge $-1 $290 -40 $294 40 $288 $370 forward 7 unknown #
straight-curve $-1 0 -40 -20 -1 0 0 I I #
vertex $-1 $209 $371 #
straight-curve $-1 0 40 -20 1 0 0 I I #
point $-1 40 40 -20 #
point $-1 40 -40 -20 #
straight-curve $-1 -40 0 20 0 -1 0 I I #
point $-1 -40 40 20 #
point $-1 -40 -40 20 #
straight-curve $-1 40 -40 0 0 0 -1 I I #
straight-curve $-1 40 40 0 0 0 -1 I I #
face $-1 $-1 $318 $21 $-1 $372 reversed single #
plane-surface $-1 -10.596499072040015 -1.068029221234708 20 0 0 1 1 0 0 forward_v I I I I #
coedge $-1 $373 $229 $322 $374 reversed $149 $-1 #
coedge $-1 $229 $373 $230 $309 forward $149 $-1 #
edge $-1 $310 -1.5707963267948966 $325 2.7840215499442826 $229 $375 forward 7 unknown #
coedge $-1 $231 $230 $376 $377 reversed $94 $-1 #
edge $-1 $378 0 $310 10.000000000000002 $306 $379 forward 7 unknown #
vertex $-1 $309 $380 #
straight-curve $-1 0 -12.5 20 0 -1 0 I I #
coedge $-1 $376 $238 $234 $313 forward $318 $-1 #
edge $381 $240 -2.016357580738223 $314 -1.5707963267948966 $234 $382 forward 7 unknown #
vertex $-1 $313 $383 #
straight-curve $-1 0 29.999999999999996 9.9999999999999982 0 0 1 I I #
point $-1 0 29.999999999999996 20 #
coedge $-1 $238 $384 $242 $323 forward $318 $-1 #
loop $-1 $-1 $317 $303 #
convexity-sys-attrib $-1 $-1 $-1 $239 #
ellipse-curve $-1 -20 20 10 0 0 -1 10 0 0 1 I I #
point $-1 -12.928932188134521 27.071067811865472 9.9999999999999964 #
coedge $-1 $243 $242 $305 $374 forward $227 $-1 #
edge $385 $386 1.8883567560864178 $244 3.5871539075331191 $242 $387 forward 7 unknown #
point $-1 -27.071067811865472 12.928932188134521 9.9999999999999964 #
vertex $-1 $374 $388 #
ellipse-curve $-1 0 0 20 0 0 -1 30 0 0 1 I I #
coedge $-1 $250 $250 $251 $329 forward $165 $-1 #
edge $389 $331 1.5707963267948966 $334 4.7123889803846897 $255 $390 forward 7 unknown #
edge $391 $334 -30 $331 30 $251 $392 forward 7 unknown #
convexity-sys-attrib $-1 $-1 $-1 $252 #
vertex $-1 $328 $393 #
straight-curve $-1 0 -30 -1.7763568394002505e-015 0 0 1 I I #
convexity-sys-attrib $-1 $-1 $-1 $253 #
vertex $-1 $328 $394 #
straight-curve $-1 0 30 -1.7763568394002505e-015 0 0 1 I I #
model_id-kcp-attrib $-1 $-1 $-1 $259 1 990663522 60 1027342337 9 #
face $395 $396 $397 $8 $-1 $398 reversed single #
loop $-1 $-1 $399 $259 #
plane-surface $-1 -30 -20 -10 0 1 0 0 0 1 forward_v I I I I #
coedge $-1 $400 $401 $402 $403 reversed $260 $-1 #
coedge $-1 $264 $353 $280 $365 reversed $269 $-1 #
vertex $-1 $281 $404 #
straight-curve $-1 0 -12.5 10 0 1 0 I I #
ellipse-curve $-1 0 -25 10 0 0 -1 10 0 0 1 I I #
attrib_edge_convexity-kcp-attrib $-1 $405 $-1 $267 1 #
ellipse-curve $-1 0 -25 20 0 0 -1 10 0 0 1 I I #
face $406 $407 $269 $8 $-1 $408 reversed single #
point $-1 0 -15 10 #
point $-1 0 -15 20 #
coedge $-1 $273 $402 $409 $410 forward $48 $-1 #
coedge $-1 $411 $412 $273 $352 forward $413 $-1 #
edge $-1 $354 1.5707963267948966 $414 2.411864997362827 $351 $415 forward 7 unknown #
coedge $-1 $341 $274 $412 $416 reversed $269 $-1 #
vertex $-1 $352 $417 #
straight-curve $-1 0 30 0 0 0 1 I I #
convexity-sys-attrib $-1 $-1 $276 $184 #
point $-1 0 30 20 #
attrib_edge_convexity-kcp-attrib $-1 $418 $-1 $278 1 #
straight-curve $-1 0 0 20 0 -1 0 I I #
coedge $-1 $419 $279 $420 $421 forward $189 $-1 #
coedge $-1 $279 $419 $422 $423 forward $189 $-1 #
coedge $-1 $424 $425 $279 $363 reversed $426 $-1 #
edge $427 $428 -40 $429 40 $362 $430 forward 7 unknown #
coedge $-1 $431 $280 $432 $433 reversed $48 $-1 #
edge $-1 $342 -10 $434 20 $280 $435 forward 7 unknown #
ellipse-curve $-1 0 0 10 0 0 1 30 0 0 1 I I #
point $-1 -9.3674969975975966 -28.500000000000004 10.000000000000002 #
straight-curve $-1 -40 40 0 0 0 -1 I I #
point $-1 -40 -40 -20 #
straight-curve $-1 -40 0 -20 0 1 0 I I #
point $-1 -40 40 -20 #
plane-surface $-1 -10.596499072040015 -1.068029221234708 10 0 0 1 1 0 0 forward_v I I I I #
coedge $-1 $306 $305 $384 $436 reversed $149 $-1 #
edge $-1 $386 0 $325 10 $322 $437 forward 7 unknown #
ellipse-curve $-1 0 -25 20 0 0 -1 10 0 0 1 I I #
coedge $-1 $384 $312 $308 $377 forward $318 $-1 #
edge $438 $314 -42.5 $378 2.5 $308 $439 forward 7 unknown #
vertex $-1 $377 $440 #
straight-curve $-1 0 -15 9.9999999999999982 0 0 1 I I #
point $-1 0 -15 20 #
convexity-sys-attrib $-1 $-1 $-1 $313 #
ellipse-curve $-1 0 0 10 0 0 -1 30 0 0 1 I I #
point $-1 0 30 9.9999999999999982 #
coedge $-1 $317 $376 $373 $436 forward $318 $-1 #
convexity-sys-attrib $-1 $-1 $-1 $323 #
vertex $-1 $323 $441 #
ellipse-curve $-1 0 0 10 0 0 -1 30 0 0 1 I I #
point $-1 -9.3674969975975966 -28.500000000000004 20 #
convexity-sys-attrib $-1 $-1 $-1 $328 #
ellipse-curve $-1 0 0 0 0 0 -1 30 0 0 1 I I #
convexity-sys-attrib $-1 $-1 $-1 $329 #
straight-curve $-1 0 0 0 0 -1 0 I I #
point $-1 0 -30 -1.7763568394002505e-015 #
point $-1 0 30 -1.7763568394002505e-015 #
model_id-kcp-attrib $-1 $-1 $-1 $337 1 990663522 60 1027342337 10 #
face $442 $443 $444 $8 $-1 $445 reversed single #
loop $-1 $-1 $409 $337 #
plane-surface $-1 -30 20 -10 0 -1 0 0 0 -1 forward_v I I I I #
coedge $-1 $446 $447 $431 $448 reversed $338 $-1 #
coedge $-1 $449 $340 $447 $450 forward $260 $-1 #
coedge $-1 $340 $449 $451 $452 forward $260 $-1 #
coedge $-1 $350 $431 $340 $403 forward $48 $-1 #
edge $-1 $453 2.411864997362827 $454 3.8713203098167592 $402 $455 forward 7 unknown #
point $-1 0 -30 10 #
convexity-sys-attrib $-1 $-1 $345 $267 #
model_id-kcp-attrib $-1 $-1 $-1 $347 1 990663522 60 1027342337 14 #
face $456 $457 $458 $8 $-1 $459 reversed single #
plane-surface $-1 0 0 0 1 0 0 0 0 -1 forward_v I I I I #
coedge $-1 $451 $460 $350 $410 reversed $397 $-1 #
edge $-1 $454 0 $414 20 $350 $461 forward 7 unknown #
coedge $-1 $462 $351 $460 $463 forward $413 $-1 #
coedge $-1 $351 $432 $353 $416 forward $413 $-1 #
loop $-1 $-1 $432 $443 #
vertex $-1 $352 $464 #
ellipse-curve $-1 0 0 -20 0 0 1 30 0 0 1 I I #
edge $-1 $434 -30 $354 30 $353 $465 forward 7 unknown #
point $-1 0 30 -20 #
convexity-sys-attrib $-1 $-1 $358 $278 #
coedge $-1 $361 $360 $466 $467 forward $189 $-1 #
coedge $-1 $468 $469 $360 $421 reversed $470 $-1 #
edge $471 $429 -40 $472 40 $420 $473 forward 7 unknown #
coedge $-1 $474 $475 $361 $423 reversed $476 $-1 #
edge $477 $478 -40 $428 40 $422 $479 forward 7 unknown #
coedge $-1 $480 $362 $475 $481 forward $426 $-1 #
coedge $-1 $362 $480 $468 $482 forward $426 $-1 #
loop $-1 $-1 $362 $457 #
attrib_edge_convexity-kcp-attrib $-1 $483 $-1 $363 1 #
vertex $-1 $423 $484 #
vertex $-1 $421 $485 #
straight-curve $-1 0 -40 20 1 0 0 I I #
coedge $-1 $402 $364 $399 $448 forward $48 $-1 #
coedge $-1 $412 $486 $364 $433 forward $413 $-1 #
edge $-1 $487 -2.411864997362827 $434 -1.5707963267948966 $432 $415 forward 7 unknown #
vertex $-1 $433 $488 #
straight-curve $-1 0 -30 0 0 0 -1 I I #
edge $489 $378 -1.5707963267948966 $386 2.7840215499442826 $373 $490 forward 7 unknown #
straight-curve $-1 -9.3674969975975966 -28.500000000000004 10 0 0 1 I I #
convexity-sys-attrib $-1 $-1 $-1 $377 #
straight-curve $-1 0 -12.5 10 0 -1 0 I I #
point $-1 0 -15 9.9999999999999982 #
point $-1 -9.3674969975975966 -28.500000000000004 10 #
model_id-kcp-attrib $-1 $-1 $-1 $396 1 990663522 60 1027342337 11 #
face $491 $492 $493 $8 $-1 $494 reversed single #
loop $-1 $-1 $495 $396 #
plane-surface $-1 -20 0 -10 -1 0 0 0 0 1 forward_v I I I I #
coedge $-1 $496 $399 $486 $497 reversed $338 $-1 #
coedge $-1 $399 $496 $400 $450 reversed $338 $-1 #
edge $-1 $487 -20 $453 0 $431 $498 forward 7 unknown #
coedge $-1 $401 $400 $499 $500 forward $260 $-1 #
edge $-1 $453 7.6393202250021019 $501 10 $447 $502 forward 7 unknown #
coedge $-1 $503 $409 $401 $452 reversed $397 $-1 #
edge $-1 $504 -10 $454 -7.6393202250021019 $451 $505 forward 7 unknown #
vertex $-1 $403 $506 #
vertex $-1 $403 $507 #
ellipse-curve $-1 0 0 0 0 0 -1 30 0 0 1 I I #
model_id-kcp-attrib $-1 $-1 $-1 $407 1 990663522 60 1027342337 15 #
face $508 $509 $426 $8 $-1 $510 reversed single #
loop $-1 $-1 $511 $407 #
plane-surface $-1 0 40 0 0 -1 0 0 0 -1 forward_v I I I I #
coedge $-1 $409 $503 $411 $463 reversed $397 $-1 #
straight-curve $-1 -22.360679774997898 20 0 0 0 -1 I I #
coedge $-1 $486 $411 $512 $513 forward $413 $-1 #
edge $-1 $414 7.6393202250021019 $514 10 $460 $515 forward 7 unknown #
point $-1 -22.360679774997898 20 -20 #
straight-curve $-1 0 0 -20 0 1 0 I I #
coedge $-1 $516 $517 $419 $467 reversed $458 $-1 #
edge $518 $472 -40 $478 40 $466 $519 forward 7 unknown #
coedge $-1 $520 $420 $425 $482 reversed $470 $-1 #
coedge $-1 $420 $520 $516 $521 reversed $470 $-1 #
loop $-1 $-1 $468 $509 #
attrib_edge_convexity-kcp-attrib $-1 $522 $-1 $421 1 #
vertex $-1 $421 $523 #
straight-curve $-1 40 0 20 0 1 0 I I #
coedge $-1 $524 $422 $517 $525 forward $476 $-1 #
coedge $-1 $422 $524 $424 $481 reversed $476 $-1 #
loop $-1 $-1 $524 $492 #
attrib_edge_convexity-kcp-attrib $-1 $526 $-1 $423 1 #
vertex $-1 $467 $527 #
straight-curve $-1 -40 0 20 0 -1 0 I I #
coedge $-1 $425 $424 $528 $529 reversed $426 $-1 #
edge $530 $428 -20 $531 20 $475 $532 forward 7 unknown #
edge $-1 $533 -20 $429 20 $468 $534 reversed 7 unknown #
convexity-sys-attrib $-1 $-1 $427 $363 #
point $-1 -40 -40 20 #
point $-1 40 -40 20 #
coedge $-1 $432 $462 $446 $497 forward $413 $-1 #
vertex $-1 $433 $535 #
point $-1 0 -30 -20 #
convexity-sys-attrib $-1 $-1 $-1 $436 #
ellipse-curve $-1 0 -25 10 0 0 -1 10 0 0 1 I I #
model_id-kcp-attrib $-1 $-1 $-1 $443 1 990663522 60 1027342337 12 #
face $536 $347 $476 $8 $-1 $537 reversed single #
loop $-1 $413 $538 $443 #
plane-surface $-1 0 0 -20 0 0 1 1 0 0 forward_v I I I I #
coedge $-1 $512 $499 $496 $539 forward $444 $-1 #
coedge $-1 $447 $446 $495 $539 reversed $338 $-1 #
edge $-1 $540 -10 $487 -7.6393202250021019 $446 $541 forward 7 unknown #
straight-curve $-1 -22.360679774997898 -20 0 0 0 1 I I #
coedge $-1 $495 $542 $449 $500 reversed $444 $-1 #
edge $-1 $501 -20 $504 20 $499 $543 forward 7 unknown #
vertex $-1 $500 $544 #
straight-curve $-1 -30 -20 0 1 0 0 I I #
coedge $-1 $460 $451 $542 $545 forward $397 $-1 #
vertex $-1 $500 $546 #
straight-curve $-1 -30 20 0 -1 0 0 I I #
point $-1 -22.360679774997898 -20 0 #
point $-1 -22.360679774997898 20 0 #
model_id-kcp-attrib $-1 $-1 $-1 $457 1 990663522 60 1027342337 16 #
face $547 $-1 $470 $8 $-1 $548 reversed single #
plane-surface $-1 0 -40 0 0 1 0 0 0 1 forward_v I I I I #
coedge $-1 $517 $516 $549 $550 reversed $458 $-1 #
coedge $-1 $542 $495 $462 $513 reversed $444 $-1 #
edge $-1 $514 -20 $540 20 $512 $551 forward 7 unknown #
vertex $-1 $513 $552 #
straight-curve $-1 -30 20 -20 1 0 0 I I #
coedge $-1 $511 $466 $469 $521 forward $458 $-1 #
coedge $-1 $466 $511 $474 $525 reversed $458 $-1 #
attrib_edge_convexity-kcp-attrib $-1 $553 $-1 $467 1 #
straight-curve $-1 0 40 20 -1 0 0 I I #
coedge $-1 $469 $468 $554 $555 reversed $470 $-1 #
edge $556 $472 -20 $557 20 $469 $558 forward 7 unknown #
convexity-sys-attrib $-1 $-1 $471 $421 #
point $-1 40 40 20 #
coedge $-1 $475 $474 $538 $559 reversed $476 $-1 #
edge $560 $478 -20 $561 20 $517 $562 forward 7 unknown #
convexity-sys-attrib $-1 $-1 $477 $423 #
point $-1 -40 40 20 #
coedge $-1 $538 $554 $480 $529 forward $493 $-1 #
edge $-1 $533 -40 $531 40 $480 $563 forward 7 unknown #
attrib_edge_convexity-kcp-attrib $-1 $564 $-1 $481 1 #
vertex $-1 $559 $565 #
straight-curve $-1 -40 -40 0 0 0 -1 I I #
vertex $-1 $482 $566 #
straight-curve $-1 40 -40 0 0 0 -1 I I #
point $-1 -22.360679774997898 -20 -20 #
model_id-kcp-attrib $-1 $-1 $-1 $492 1 990663522 60 1027342337 13 #
plane-surface $-1 -40 0 0 1 0 0 0 0 -1 forward_v I I I I #
coedge $-1 $549 $528 $524 $559 forward $493 $-1 #
edge $-1 $501 -10 $540 10 $495 $567 forward 7 unknown #
vertex $-1 $539 $568 #
straight-curve $-1 -30 -20 -20 -1 0 0 I I #
coedge $-1 $499 $512 $503 $545 reversed $444 $-1 #
straight-curve $-1 -20 0 0 0 1 0 I I #
point $-1 -20 -20 0 #
edge $-1 $504 -10 $514 10 $542 $569 forward 7 unknown #
point $-1 -20 20 0 #
model_id-kcp-attrib $-1 $-1 $-1 $509 1 990663522 60 1027342337 17 #
plane-surface $-1 40 0 0 -1 0 0 0 0 1 forward_v I I I I #
coedge $-1 $554 $538 $511 $550 forward $493 $-1 #
edge $570 $561 -40 $557 40 $511 $571 forward 7 unknown #
straight-curve $-1 -20 0 -20 0 -1 0 I I #
point $-1 -20 20 -20 #
convexity-sys-attrib $-1 $-1 $518 $467 #
coedge $-1 $528 $549 $520 $555 forward $493 $-1 #
edge $-1 $557 -40 $533 40 $520 $572 forward 7 unknown #
attrib_edge_convexity-kcp-attrib $-1 $573 $-1 $521 1 #
vertex $-1 $555 $574 #
straight-curve $-1 40 40 0 0 0 -1 I I #
edge $575 $531 -40 $561 40 $524 $576 forward 7 unknown #
attrib_edge_convexity-kcp-attrib $-1 $577 $-1 $525 1 #
vertex $-1 $550 $578 #
straight-curve $-1 -40 40 0 0 0 -1 I I #
straight-curve $-1 0 -40 -20 -1 0 0 I I #
convexity-sys-attrib $-1 $-1 $530 $481 #
point $-1 -40 -40 -20 #
point $-1 40 -40 -20 #
straight-curve $-1 -20 -20 -10 0 0 -1 I I #
point $-1 -20 -20 -20 #
straight-curve $-1 -20 20 -10 0 0 -1 I I #
attrib_edge_convexity-kcp-attrib $-1 $579 $-1 $550 1 #
straight-curve $-1 0 40 -20 1 0 0 I I #
straight-curve $-1 40 0 -20 0 -1 0 I I #
convexity-sys-attrib $-1 $-1 $556 $521 #
point $-1 40 40 -20 #
attrib_edge_convexity-kcp-attrib $-1 $580 $-1 $559 1 #
straight-curve $-1 -40 0 -20 0 1 0 I I #
convexity-sys-attrib $-1 $-1 $560 $525 #
point $-1 -40 40 -20 #
convexity-sys-attrib $-1 $-1 $570 $550 #
convexity-sys-attrib $-1 $-1 $575 $559 #
End-of-ACIS-data 