106 0 1 0           
body $-1 $1 $-1 $-1 #
lump $-1 $-1 $2 $0 #
shell $-1 $-1 $-1 $3 $1 #
face $-1 $4 $5 $2 $-1 $6 reversed single #
face $-1 $7 $8 $2 $-1 $9 reversed single #
loop $-1 $-1 $10 $3 #
cone-surface $-1 -20 20 15 0 0 1 10 0 0 1 I I 0 1 0 I I I I #
face $-1 $11 $12 $2 $-1 $13 reversed single #
loop $-1 $-1 $14 $4 #
plane-surface $-1 -20 20 10 0 0 -1 -1 0 0 0 I I I I #
coedge $-1 $15 $16 $17 $18 1 $5 $-1 #
face $-1 $19 $20 $2 $-1 $21 reversed single #
loop $-1 $-1 $22 $7 #
cone-surface $-1 0 0 0 0 0 1 30 0 0 1 I I 0 1 0 I I I I #
coedge $-1 $23 $23 $24 $25 1 $8 $-1 #
coedge $-1 $26 $10 $23 $27 0 $5 $-1 #
coedge $-1 $10 $26 $28 $29 1 $5 $-1 #
coedge $-1 $30 $24 $10 $18 0 $12 $-1 #
edge $-1 $31 $32 $17 $33 0 #
face $-1 $34 $35 $2 $-1 $36 reversed single #
loop $-1 $-1 $37 $11 #
cone-surface $-1 0 -25 15 0 0 1 10 0 0 1 I I 0 1 0 I I I I #
coedge $-1 $24 $38 $26 $39 0 $12 $-1 #
coedge $-1 $14 $14 $15 $27 1 $8 $-1 #
coedge $-1 $17 $22 $14 $25 0 $12 $-1 #
edge $-1 $40 $31 $24 $41 0 #
coedge $-1 $16 $15 $22 $39 1 $5 $-1 #
edge $-1 $31 $40 $23 $42 0 #
coedge $-1 $43 $44 $16 $29 0 $45 $-1 #
edge $-1 $32 $46 $28 $47 0 #
coedge $-1 $48 $17 $44 $49 1 $12 $-1 #
vertex $-1 $18 $50 #
vertex $-1 $49 $51 #
straight-curve $-1 -27.071067811865472 12.928932188134521 15 0 0 1 I I #
face $-1 $52 $45 $2 $-1 $53 forward single #
loop $-1 $-1 $54 $19 #
plane-surface $-1 0 -25 10 0 0 -1 -1 0 0 0 I I I I #
coedge $-1 $55 $56 $57 $58 1 $20 $-1 #
coedge $-1 $22 $59 $43 $60 1 $12 $-1 #
edge $-1 $46 $40 $22 $61 0 #
vertex $-1 $39 $62 #
ellipse-curve $-1 0 0 10 0 0 1 30 0 0 1 I I #
ellipse-curve $-1 -20 20 10 0 0 -1 10 0 0 1 I I #
coedge $-1 $63 $28 $38 $60 0 $45 $-1 #
coedge $-1 $28 $64 $30 $49 0 $45 $-1 #
loop $-1 $65 $28 $34 #
vertex $-1 $29 $66 #
ellipse-curve $-1 -20 20 20 0 0 -1 10 0 0 1 I I #
coedge $-1 $67 $30 $68 $69 0 $12 $-1 #
edge $-1 $70 $32 $44 $71 0 #
point $-1 -27.071067811865472 12.928932188134521 9.9999999999999982 #
point $-1 -27.071067811865472 12.928932188134528 20 #
face $-1 $72 $73 $2 $-1 $74 forward single #
plane-surface $-1 0 0 20 0 0 1 1 0 0 0 I I I I #
coedge $-1 $75 $76 $77 $78 1 $35 $-1 #
coedge $-1 $68 $37 $76 $79 0 $20 $-1 #
coedge $-1 $37 $68 $64 $80 1 $20 $-1 #
coedge $-1 $81 $77 $37 $58 0 $82 $-1 #
edge $-1 $83 $84 $57 $85 0 #
coedge $-1 $38 $86 $87 $88 0 $12 $-1 #
edge $-1 $46 $89 $43 $71 0 #
straight-curve $-1 -12.928932188134521 27.071067811865472 15 0 0 -1 I I #
point $-1 -12.928932188134521 27.071067811865472 9.9999999999999982 #
coedge $-1 $64 $43 $81 $90 0 $45 $-1 #
coedge $-1 $44 $63 $56 $80 0 $45 $-1 #
loop $-1 $-1 $91 $34 #
point $-1 -12.928932188134528 27.071067811865472 20 #
coedge $-1 $92 $48 $75 $93 0 $12 $-1 #
coedge $-1 $56 $55 $48 $69 1 $20 $-1 #
edge $-1 $70 $94 $48 $95 0 #
vertex $-1 $69 $96 #
ellipse-curve $-1 0 0 20 0 0 -1 30 0 0 1 I I #
face $-1 $97 $98 $2 $-1 $99 reversed single #
loop $-1 $-1 $100 $52 #
plane-surface $-1 -30 0 0 0 0 1 1 0 0 0 I I I I #
coedge $-1 $76 $54 $67 $93 1 $35 $-1 #
coedge $-1 $54 $75 $55 $79 1 $35 $-1 #
coedge $-1 $57 $101 $54 $78 0 $82 $-1 #
edge $-1 $102 $83 $77 $103 0 #
edge $-1 $83 $94 $76 $104 0 #
edge $-1 $84 $70 $64 $105 0 #
coedge $-1 $87 $57 $63 $90 1 $82 $-1 #
loop $-1 $-1 $57 $106 #
vertex $-1 $58 $107 #
vertex $-1 $90 $108 #
straight-curve $-1 0 -15 15 0 0 1 I I #
coedge $-1 $59 $109 $110 $111 1 $12 $-1 #
coedge $-1 $112 $81 $59 $88 1 $82 $-1 #
edge $-1 $113 $89 $59 $114 0 #
vertex $-1 $60 $115 #
edge $-1 $89 $84 $81 $116 0 #
coedge $-1 $117 $118 $119 $120 0 $65 $-1 #
coedge $-1 $121 $67 $101 $122 0 $12 $-1 #
edge $-1 $94 $102 $67 $123 0 #
vertex $-1 $69 $124 #
straight-curve $-1 -9.3674969975975966 -28.500000000000004 15.000000000000002 0 0 -1 I I #
point $-1 -9.3674969975975966 -28.500000000000004 20.000000000000004 #
face $-1 $125 $126 $2 $-1 $127 reversed single #
loop $-1 $-1 $128 $72 #
plane-surface $-1 -30 -20 -10 0 1 0 0 0 1 0 I I I I #
coedge $-1 $129 $130 $131 $132 1 $73 $-1 #
coedge $-1 $77 $112 $92 $122 1 $82 $-1 #
vertex $-1 $93 $133 #
straight-curve $-1 0 -12.5 10 0 1 0 I I #
ellipse-curve $-1 0 -25 10 0 0 -1 10 0 0 1 I I #
ellipse-curve $-1 0 -25 20 0 0 -1 10 0 0 1 I I #
face $-1 $134 $82 $2 $-1 $135 reversed single #
point $-1 0 -15 10 #
point $-1 0 -15 20 #
coedge $-1 $86 $131 $136 $137 0 $12 $-1 #
coedge $-1 $138 $139 $86 $111 0 $140 $-1 #
edge $-1 $113 $141 $110 $142 0 #
coedge $-1 $101 $87 $139 $143 1 $82 $-1 #
vertex $-1 $111 $144 #
straight-curve $-1 0 30 0 0 0 1 I I #
point $-1 0 30 20 #
straight-curve $-1 0 0 20 0 -1 0 I I #
coedge $-1 $145 $91 $146 $147 0 $65 $-1 #
coedge $-1 $91 $145 $148 $149 0 $65 $-1 #
coedge $-1 $150 $151 $91 $120 1 $152 $-1 #
edge $-1 $153 $154 $119 $155 0 #
coedge $-1 $156 $92 $157 $158 1 $12 $-1 #
edge $-1 $102 $159 $92 $160 0 #
ellipse-curve $-1 0 0 10 0 0 1 30 0 0 1 I I #
point $-1 -9.3674969975975966 -28.500000000000004 10.000000000000002 #
face $-1 $161 $162 $2 $-1 $163 reversed single #
loop $-1 $-1 $136 $97 #
plane-surface $-1 -30 20 -10 0 -1 0 0 0 -1 0 I I I I #
coedge $-1 $164 $165 $156 $166 1 $98 $-1 #
coedge $-1 $167 $100 $165 $168 0 $73 $-1 #
coedge $-1 $100 $167 $169 $170 0 $73 $-1 #
coedge $-1 $109 $156 $100 $132 0 $12 $-1 #
edge $-1 $171 $172 $131 $173 0 #
point $-1 0 -30 10 #
face $-1 $174 $175 $2 $-1 $176 reversed single #
plane-surface $-1 0 0 0 1 0 0 0 0 -1 0 I I I I #
coedge $-1 $169 $177 $109 $137 1 $126 $-1 #
edge $-1 $172 $141 $109 $178 0 #
coedge $-1 $179 $110 $177 $180 0 $140 $-1 #
coedge $-1 $110 $157 $112 $143 0 $140 $-1 #
loop $-1 $-1 $157 $161 #
vertex $-1 $111 $181 #
ellipse-curve $-1 0 0 -20 0 0 1 30 0 0 1 I I #
edge $-1 $159 $113 $112 $182 0 #
point $-1 0 30 -20 #
coedge $-1 $118 $117 $183 $184 0 $65 $-1 #
coedge $-1 $185 $186 $117 $147 1 $187 $-1 #
edge $-1 $154 $188 $146 $189 0 #
coedge $-1 $190 $191 $118 $149 1 $192 $-1 #
edge $-1 $193 $153 $148 $194 0 #
coedge $-1 $195 $119 $191 $196 0 $152 $-1 #
coedge $-1 $119 $195 $185 $197 0 $152 $-1 #
loop $-1 $-1 $119 $174 #
vertex $-1 $149 $198 #
vertex $-1 $147 $199 #
straight-curve $-1 0 -40 20 1 0 0 I I #
coedge $-1 $131 $121 $128 $166 0 $12 $-1 #
coedge $-1 $139 $200 $121 $158 0 $140 $-1 #
edge $-1 $201 $159 $157 $142 0 #
vertex $-1 $158 $202 #
straight-curve $-1 0 -30 0 0 0 -1 I I #
face $-1 $203 $204 $2 $-1 $205 reversed single #
loop $-1 $-1 $206 $125 #
plane-surface $-1 -20 0 -10 -1 0 0 0 0 1 0 I I I I #
coedge $-1 $207 $128 $200 $208 1 $98 $-1 #
coedge $-1 $128 $207 $129 $168 1 $98 $-1 #
edge $-1 $201 $171 $156 $209 0 #
coedge $-1 $130 $129 $210 $211 0 $73 $-1 #
edge $-1 $171 $212 $165 $213 0 #
coedge $-1 $214 $136 $130 $170 1 $126 $-1 #
edge $-1 $215 $172 $169 $216 0 #
vertex $-1 $132 $217 #
vertex $-1 $132 $218 #
ellipse-curve $-1 0 0 0 0 0 -1 30 0 0 1 I I #
face $-1 $219 $152 $2 $-1 $220 reversed single #
loop $-1 $-1 $221 $134 #
plane-surface $-1 0 40 0 0 -1 0 0 0 -1 0 I I I I #
coedge $-1 $136 $214 $138 $180 1 $126 $-1 #
straight-curve $-1 -22.360679774997898 20 0 0 0 -1 I I #
coedge $-1 $200 $138 $222 $223 0 $140 $-1 #
edge $-1 $141 $224 $177 $225 0 #
point $-1 -22.360679774997898 20 -20 #
straight-curve $-1 0 0 -20 0 1 0 I I #
coedge $-1 $226 $227 $145 $184 1 $175 $-1 #
edge $-1 $188 $193 $183 $228 0 #
coedge $-1 $229 $146 $151 $197 1 $187 $-1 #
coedge $-1 $146 $229 $226 $230 1 $187 $-1 #
loop $-1 $-1 $185 $219 #
vertex $-1 $147 $231 #
straight-curve $-1 40 0 20 0 1 0 I I #
coedge $-1 $232 $148 $227 $233 0 $192 $-1 #
coedge $-1 $148 $232 $150 $196 1 $192 $-1 #
loop $-1 $-1 $232 $203 #
vertex $-1 $184 $234 #
straight-curve $-1 -40 0 20 0 -1 0 I I #
coedge $-1 $151 $150 $235 $236 1 $152 $-1 #
edge $-1 $153 $237 $191 $238 0 #
edge $-1 $239 $154 $185 $240 1 #
point $-1 -40 -40 20 #
point $-1 40 -40 20 #
coedge $-1 $157 $179 $164 $208 0 $140 $-1 #
vertex $-1 $158 $241 #
point $-1 0 -30 -20 #
face $-1 $106 $192 $2 $-1 $242 reversed single #
loop $-1 $140 $243 $161 #
plane-surface $-1 0 0 -20 0 0 1 1 0 0 0 I I I I #
coedge $-1 $222 $210 $207 $244 0 $162 $-1 #
coedge $-1 $165 $164 $206 $244 1 $98 $-1 #
edge $-1 $245 $201 $164 $246 0 #
straight-curve $-1 -22.360679774997898 -20 0 0 0 1 I I #
coedge $-1 $206 $247 $167 $211 1 $162 $-1 #
edge $-1 $212 $215 $210 $248 0 #
vertex $-1 $211 $249 #
straight-curve $-1 -30 -20 0 1 0 0 I I #
coedge $-1 $177 $169 $247 $250 0 $126 $-1 #
vertex $-1 $211 $251 #
straight-curve $-1 -30 20 0 -1 0 0 I I #
point $-1 -22.360679774997898 -20 0 #
point $-1 -22.360679774997898 20 0 #
face $-1 $-1 $187 $2 $-1 $252 reversed single #
plane-surface $-1 0 -40 0 0 1 0 0 0 1 0 I I I I #
coedge $-1 $227 $226 $253 $254 1 $175 $-1 #
coedge $-1 $247 $206 $179 $223 1 $162 $-1 #
edge $-1 $224 $245 $222 $255 0 #
vertex $-1 $223 $256 #
straight-curve $-1 -30 20 -20 1 0 0 I I #
coedge $-1 $221 $183 $186 $230 0 $175 $-1 #
coedge $-1 $183 $221 $190 $233 1 $175 $-1 #
straight-curve $-1 0 40 20 -1 0 0 I I #
coedge $-1 $186 $185 $257 $258 1 $187 $-1 #
edge $-1 $188 $259 $186 $260 0 #
point $-1 40 40 20 #
coedge $-1 $191 $190 $243 $261 1 $192 $-1 #
edge $-1 $193 $262 $227 $263 0 #
point $-1 -40 40 20 #
coedge $-1 $243 $257 $195 $236 0 $204 $-1 #
edge $-1 $239 $237 $195 $264 0 #
vertex $-1 $261 $265 #
straight-curve $-1 -40 -40 0 0 0 -1 I I #
vertex $-1 $197 $266 #
straight-curve $-1 40 -40 0 0 0 -1 I I #
point $-1 -22.360679774997898 -20 -20 #
plane-surface $-1 -40 0 0 1 0 0 0 0 -1 0 I I I I #
coedge $-1 $253 $235 $232 $261 0 $204 $-1 #
edge $-1 $212 $245 $206 $267 0 #
vertex $-1 $244 $268 #
straight-curve $-1 -30 -20 -20 -1 0 0 I I #
coedge $-1 $210 $222 $214 $250 1 $162 $-1 #
straight-curve $-1 -20 0 0 0 1 0 I I #
point $-1 -20 -20 0 #
edge $-1 $215 $224 $247 $269 0 #
point $-1 -20 20 0 #
plane-surface $-1 40 0 0 -1 0 0 0 0 1 0 I I I I #
coedge $-1 $257 $243 $221 $254 0 $204 $-1 #
edge $-1 $262 $259 $221 $270 0 #
straight-curve $-1 -20 0 -20 0 -1 0 I I #
point $-1 -20 20 -20 #
coedge $-1 $235 $253 $229 $258 0 $204 $-1 #
edge $-1 $259 $239 $229 $271 0 #
vertex $-1 $258 $272 #
straight-curve $-1 40 40 0 0 0 -1 I I #
edge $-1 $237 $262 $232 $273 0 #
vertex $-1 $254 $274 #
straight-curve $-1 -40 40 0 0 0 -1 I I #
straight-curve $-1 0 -40 -20 -1 0 0 I I #
point $-1 -40 -40 -20 #
point $-1 40 -40 -20 #
straight-curve $-1 -20 -20 -10 0 0 -1 I I #
point $-1 -20 -20 -20 #
straight-curve $-1 -20 20 -10 0 0 -1 I I #
straight-curve $-1 0 40 -20 1 0 0 I I #
straight-curve $-1 40 0 -20 0 -1 0 I I #
point $-1 40 40 -20 #
straight-curve $-1 -40 0 -20 0 1 0 I I #
point $-1 -40 40 -20 #
End-of-ACIS-data 