600 0 1 0           
81 GICL ACIS Healer - Source: /gicl/data5/repository/Heriot_Watt/ex32/ex32.sat - 6 0 18 ACIS 6.0.3 Solaris 24 Sat Apr 13 23:38:38 2002 
1 9.999999999999999547e-07 1.000000000000000036e-10 
body $-1 $1 $-1 $-1 #
lump $-1 $-1 $2 $0 #
shell $-1 $-1 $-1 $3 $-1 $1 #
face $-1 $4 $5 $2 $-1 $6 reversed single #
face $-1 $7 $8 $2 $-1 $9 reversed single #
loop $-1 $-1 $10 $3 #
cone-surface $-1 -20 20 15 0 0 1 10 0 0 1 I I 0 1 10 forward I I I I #
face $-1 $11 $12 $2 $-1 $13 reversed single #
loop $-1 $-1 $14 $4 #
plane-surface $-1 -20 20 10 0 0 -1 -1 0 0 forward_v I I I I #
coedge $-1 $15 $16 $17 $18 reversed $5 $-1 #
face $-1 $19 $20 $2 $-1 $21 reversed single #
loop $-1 $-1 $22 $7 #
cone-surface $-1 0 0 0 0 0 1 30 0 0 1 I I 0 1 30 forward I I I I #
coedge $-1 $23 $23 $24 $25 reversed $8 $-1 #
coedge $-1 $26 $10 $23 $27 forward $5 $-1 #
coedge $-1 $10 $26 $28 $29 reversed $5 $-1 #
coedge $-1 $30 $24 $10 $18 forward $12 $-1 #
edge $-1 $31 -5.000000000000001776 $32 5 $17 $33 forward 7 unknown #
face $-1 $34 $35 $2 $-1 $36 reversed single #
loop $-1 $-1 $37 $11 #
cone-surface $-1 0 -25 15 0 0 1 10 0 0 1 I I 0 1 10 forward I I I I #
coedge $-1 $24 $38 $26 $39 forward $12 $-1 #
coedge $-1 $14 $14 $15 $27 reversed $8 $-1 #
coedge $-1 $17 $22 $14 $25 forward $12 $-1 #
edge $-1 $40 2.016357580738223021 $31 2.696031399646467097 $24 $41 forward 7 unknown #
coedge $-1 $16 $15 $22 $39 reversed $5 $-1 #
edge $-1 $31 2.356194490192344393 $40 5.497787143782137953 $23 $42 forward 7 unknown #
coedge $-1 $43 $44 $16 $29 forward $45 $-1 #
edge $-1 $32 2.356194490192344837 $46 5.497787143782137953 $28 $47 forward 7 unknown #
coedge $-1 $48 $17 $44 $49 reversed $12 $-1 #
vertex $-1 $18 $50 #
vertex $-1 $49 $51 #
straight-curve $-1 -27.07106781186547195 12.92893218813452094 15 0 0 1 I I #
face $-1 $52 $45 $2 $-1 $53 forward single #
loop $-1 $-1 $54 $19 #
plane-surface $-1 0 -25 10 0 0 -1 -1 0 0 forward_v I I I I #
coedge $-1 $55 $56 $57 $58 reversed $20 $-1 #
coedge $-1 $22 $59 $43 $60 reversed $12 $-1 #
edge $-1 $46 -5 $40 5.000000000000001776 $22 $61 forward 7 unknown #
vertex $-1 $39 $62 #
ellipse-curve $-1 0 0 10 0 0 1 30 0 0 1 I I #
ellipse-curve $-1 -20 20 10 0 0 -1 10 0 0 1 I I #
coedge $-1 $63 $28 $38 $60 forward $45 $-1 #
coedge $-1 $28 $64 $30 $49 forward $45 $-1 #
loop $-1 $65 $28 $34 #
vertex $-1 $29 $66 #
ellipse-curve $-1 -20 20 20 0 0 -1 10 0 0 1 I I #
coedge $-1 $67 $30 $68 $69 forward $12 $-1 #
edge $-1 $70 1.888356756086418065 $32 3.587153907533119579 $44 $71 forward 7 unknown #
point $-1 -27.07106781186547195 12.92893218813452094 9.999999999999998224 #
point $-1 -27.07106781186547195 12.92893218813452805 20 #
face $-1 $72 $73 $2 $-1 $74 forward single #
plane-surface $-1 0 0 20 0 0 1 1 0 0 forward_v I I I I #
coedge $-1 $75 $76 $77 $78 reversed $35 $-1 #
coedge $-1 $68 $37 $76 $79 forward $20 $-1 #
coedge $-1 $37 $68 $64 $80 reversed $20 $-1 #
coedge $-1 $81 $77 $37 $58 forward $82 $-1 #
edge $-1 $83 -5 $84 5 $57 $85 forward 7 unknown #
coedge $-1 $38 $86 $87 $88 forward $12 $-1 #
edge $-1 $46 -2.016357580738223021 $89 -1.570796326794896558 $43 $71 forward 7 unknown #
straight-curve $-1 -12.92893218813452094 27.07106781186547195 15 0 0 -1 I I #
point $-1 -12.92893218813452094 27.07106781186547195 9.999999999999998224 #
coedge $-1 $64 $43 $81 $90 forward $45 $-1 #
coedge $-1 $44 $63 $56 $80 forward $45 $-1 #
loop $-1 $-1 $91 $34 #
point $-1 -12.92893218813452805 27.07106781186547195 20 #
coedge $-1 $92 $48 $75 $93 forward $12 $-1 #
coedge $-1 $56 $55 $48 $69 reversed $20 $-1 #
edge $-1 $70 -5.000000000000001776 $94 5 $48 $95 forward 7 unknown #
vertex $-1 $69 $96 #
ellipse-curve $-1 0 0 20 0 0 -1 30 0 0 1 I I #
face $-1 $97 $98 $2 $-1 $99 reversed single #
loop $-1 $-1 $100 $52 #
plane-surface $-1 -30 0 0 0 0 1 1 0 0 forward_v I I I I #
coedge $-1 $76 $54 $67 $93 reversed $35 $-1 #
coedge $-1 $54 $75 $55 $79 reversed $35 $-1 #
coedge $-1 $57 $101 $54 $78 forward $82 $-1 #
edge $-1 $102 -17.5 $83 -2.5 $77 $103 forward 7 unknown #
edge $-1 $83 -1.570796326794896558 $94 2.784021549944282636 $76 $104 forward 7 unknown #
edge $-1 $84 -1.570796326794896558 $70 2.784021549944282636 $64 $105 forward 7 unknown #
coedge $-1 $87 $57 $63 $90 reversed $82 $-1 #
loop $-1 $-1 $57 $106 #
vertex $-1 $58 $107 #
vertex $-1 $90 $108 #
straight-curve $-1 0 -15 15 0 0 1 I I #
coedge $-1 $59 $109 $110 $111 reversed $12 $-1 #
coedge $-1 $112 $81 $59 $88 reversed $82 $-1 #
edge $-1 $113 -20 $89 20 $59 $114 forward 7 unknown #
vertex $-1 $60 $115 #
edge $-1 $89 -30 $84 15 $81 $116 forward 7 unknown #
coedge $-1 $117 $118 $119 $120 forward $65 $-1 #
coedge $-1 $121 $67 $101 $122 forward $12 $-1 #
edge $-1 $94 -1.888356756086418065 $102 -1.570796326794896558 $67 $123 forward 7 unknown #
vertex $-1 $69 $124 #
straight-curve $-1 -9.367496997597596575 -28.50000000000000355 15.00000000000000178 0 0 -1 I I #
point $-1 -9.367496997597596575 -28.50000000000000355 20.00000000000000355 #
face $-1 $125 $126 $2 $-1 $127 reversed single #
loop $-1 $-1 $128 $72 #
plane-surface $-1 -30 -20 -10 0 1 0 0 0 1 forward_v I I I I #
coedge $-1 $129 $130 $131 $132 reversed $73 $-1 #
coedge $-1 $77 $112 $92 $122 reversed $82 $-1 #
vertex $-1 $93 $133 #
straight-curve $-1 0 -12.5 10 0 1 0 I I #
ellipse-curve $-1 0 -25 10 0 0 -1 10 0 0 1 I I #
ellipse-curve $-1 0 -25 20 0 0 -1 10 0 0 1 I I #
face $-1 $134 $82 $2 $-1 $135 reversed single #
point $-1 0 -15 10 #
point $-1 0 -15 20 #
coedge $-1 $86 $131 $136 $137 forward $12 $-1 #
coedge $-1 $138 $139 $86 $111 forward $140 $-1 #
edge $-1 $113 1.570796326794896558 $141 2.411864997362827001 $110 $142 forward 7 unknown #
coedge $-1 $101 $87 $139 $143 reversed $82 $-1 #
vertex $-1 $111 $144 #
straight-curve $-1 0 30 0 0 0 1 I I #
point $-1 0 30 20 #
straight-curve $-1 0 0 20 0 -1 0 I I #
coedge $-1 $145 $91 $146 $147 forward $65 $-1 #
coedge $-1 $91 $145 $148 $149 forward $65 $-1 #
coedge $-1 $150 $151 $91 $120 reversed $152 $-1 #
edge $-1 $153 -40 $154 40 $119 $155 forward 7 unknown #
coedge $-1 $156 $92 $157 $158 reversed $12 $-1 #
edge $-1 $102 -10 $159 20 $92 $160 forward 7 unknown #
ellipse-curve $-1 0 0 10 0 0 1 30 0 0 1 I I #
point $-1 -9.367496997597596575 -28.50000000000000355 10.00000000000000178 #
face $-1 $161 $162 $2 $-1 $163 reversed single #
loop $-1 $-1 $136 $97 #
plane-surface $-1 -30 20 -10 0 -1 0 0 0 -1 forward_v I I I I #
coedge $-1 $164 $165 $156 $166 reversed $98 $-1 #
coedge $-1 $167 $100 $165 $168 forward $73 $-1 #
coedge $-1 $100 $167 $169 $170 forward $73 $-1 #
coedge $-1 $109 $156 $100 $132 forward $12 $-1 #
edge $-1 $171 2.411864997362827001 $172 3.871320309816759231 $131 $173 forward 7 unknown #
point $-1 0 -30 10 #
face $-1 $174 $175 $2 $-1 $176 reversed single #
plane-surface $-1 0 0 0 1 0 0 0 0 -1 forward_v I I I I #
coedge $-1 $169 $177 $109 $137 reversed $126 $-1 #
edge $-1 $172 0 $141 20 $109 $178 forward 7 unknown #
coedge $-1 $179 $110 $177 $180 forward $140 $-1 #
coedge $-1 $110 $157 $112 $143 forward $140 $-1 #
loop $-1 $-1 $157 $161 #
vertex $-1 $111 $181 #
ellipse-curve $-1 0 0 -20 0 0 1 30 0 0 1 I I #
edge $-1 $159 -30 $113 30 $112 $182 forward 7 unknown #
point $-1 0 30 -20 #
coedge $-1 $118 $117 $183 $184 forward $65 $-1 #
coedge $-1 $185 $186 $117 $147 reversed $187 $-1 #
edge $-1 $154 -40 $188 40 $146 $189 forward 7 unknown #
coedge $-1 $190 $191 $118 $149 reversed $192 $-1 #
edge $-1 $193 -40 $153 40 $148 $194 forward 7 unknown #
coedge $-1 $195 $119 $191 $196 forward $152 $-1 #
coedge $-1 $119 $195 $185 $197 forward $152 $-1 #
loop $-1 $-1 $119 $174 #
vertex $-1 $149 $198 #
vertex $-1 $147 $199 #
straight-curve $-1 0 -40 20 1 0 0 I I #
coedge $-1 $131 $121 $128 $166 forward $12 $-1 #
coedge $-1 $139 $200 $121 $158 forward $140 $-1 #
edge $-1 $201 -2.411864997362827001 $159 -1.570796326794896558 $157 $142 forward 7 unknown #
vertex $-1 $158 $202 #
straight-curve $-1 0 -30 0 0 0 -1 I I #
face $-1 $203 $204 $2 $-1 $205 reversed single #
loop $-1 $-1 $206 $125 #
plane-surface $-1 -20 0 -10 -1 0 0 0 0 1 forward_v I I I I #
coedge $-1 $207 $128 $200 $208 reversed $98 $-1 #
coedge $-1 $128 $207 $129 $168 reversed $98 $-1 #
edge $-1 $201 -20 $171 0 $156 $209 forward 7 unknown #
coedge $-1 $130 $129 $210 $211 forward $73 $-1 #
edge $-1 $171 7.639320225002101949 $212 10 $165 $213 forward 7 unknown #
coedge $-1 $214 $136 $130 $170 reversed $126 $-1 #
edge $-1 $215 -10 $172 -7.639320225002101949 $169 $216 forward 7 unknown #
vertex $-1 $132 $217 #
vertex $-1 $132 $218 #
ellipse-curve $-1 0 0 0 0 0 -1 30 0 0 1 I I #
face $-1 $219 $152 $2 $-1 $220 reversed single #
loop $-1 $-1 $221 $134 #
plane-surface $-1 0 40 0 0 -1 0 0 0 -1 forward_v I I I I #
coedge $-1 $136 $214 $138 $180 reversed $126 $-1 #
straight-curve $-1 -22.36067977499789805 20 0 0 0 -1 I I #
coedge $-1 $200 $138 $222 $223 forward $140 $-1 #
edge $-1 $141 7.639320225002101949 $224 10 $177 $225 forward 7 unknown #
point $-1 -22.36067977499789805 20 -20 #
straight-curve $-1 0 0 -20 0 1 0 I I #
coedge $-1 $226 $227 $145 $184 reversed $175 $-1 #
edge $-1 $188 -40 $193 40 $183 $228 forward 7 unknown #
coedge $-1 $229 $146 $151 $197 reversed $187 $-1 #
coedge $-1 $146 $229 $226 $230 reversed $187 $-1 #
loop $-1 $-1 $185 $219 #
vertex $-1 $147 $231 #
straight-curve $-1 40 0 20 0 1 0 I I #
coedge $-1 $232 $148 $227 $233 forward $192 $-1 #
coedge $-1 $148 $232 $150 $196 reversed $192 $-1 #
loop $-1 $-1 $232 $203 #
vertex $-1 $184 $234 #
straight-curve $-1 -40 0 20 0 -1 0 I I #
coedge $-1 $151 $150 $235 $236 reversed $152 $-1 #
edge $-1 $153 -20 $237 20 $191 $238 forward 7 unknown #
edge $-1 $239 -20 $154 20 $185 $240 reversed 7 unknown #
point $-1 -40 -40 20 #
point $-1 40 -40 20 #
coedge $-1 $157 $179 $164 $208 forward $140 $-1 #
vertex $-1 $158 $241 #
point $-1 0 -30 -20 #
face $-1 $106 $192 $2 $-1 $242 reversed single #
loop $-1 $140 $243 $161 #
plane-surface $-1 0 0 -20 0 0 1 1 0 0 forward_v I I I I #
coedge $-1 $222 $210 $207 $244 forward $162 $-1 #
coedge $-1 $165 $164 $206 $244 reversed $98 $-1 #
edge $-1 $245 -10 $201 -7.639320225002101949 $164 $246 forward 7 unknown #
straight-curve $-1 -22.36067977499789805 -20 0 0 0 1 I I #
coedge $-1 $206 $247 $167 $211 reversed $162 $-1 #
edge $-1 $212 -20 $215 20 $210 $248 forward 7 unknown #
vertex $-1 $211 $249 #
straight-curve $-1 -30 -20 0 1 0 0 I I #
coedge $-1 $177 $169 $247 $250 forward $126 $-1 #
vertex $-1 $211 $251 #
straight-curve $-1 -30 20 0 -1 0 0 I I #
point $-1 -22.36067977499789805 -20 0 #
point $-1 -22.36067977499789805 20 0 #
face $-1 $-1 $187 $2 $-1 $252 reversed single #
plane-surface $-1 0 -40 0 0 1 0 0 0 1 forward_v I I I I #
coedge $-1 $227 $226 $253 $254 reversed $175 $-1 #
coedge $-1 $247 $206 $179 $223 reversed $162 $-1 #
edge $-1 $224 -20 $245 20 $222 $255 forward 7 unknown #
vertex $-1 $223 $256 #
straight-curve $-1 -30 20 -20 1 0 0 I I #
coedge $-1 $221 $183 $186 $230 forward $175 $-1 #
coedge $-1 $183 $221 $190 $233 reversed $175 $-1 #
straight-curve $-1 0 40 20 -1 0 0 I I #
coedge $-1 $186 $185 $257 $258 reversed $187 $-1 #
edge $-1 $188 -20 $259 20 $186 $260 forward 7 unknown #
point $-1 40 40 20 #
coedge $-1 $191 $190 $243 $261 reversed $192 $-1 #
edge $-1 $193 -20 $262 20 $227 $263 forward 7 unknown #
point $-1 -40 40 20 #
coedge $-1 $243 $257 $195 $236 forward $204 $-1 #
edge $-1 $239 -40 $237 40 $195 $264 forward 7 unknown #
vertex $-1 $261 $265 #
straight-curve $-1 -40 -40 0 0 0 -1 I I #
vertex $-1 $197 $266 #
straight-curve $-1 40 -40 0 0 0 -1 I I #
point $-1 -22.36067977499789805 -20 -20 #
plane-surface $-1 -40 0 0 1 0 0 0 0 -1 forward_v I I I I #
coedge $-1 $253 $235 $232 $261 forward $204 $-1 #
edge $-1 $212 -10 $245 10 $206 $267 forward 7 unknown #
vertex $-1 $244 $268 #
straight-curve $-1 -30 -20 -20 -1 0 0 I I #
coedge $-1 $210 $222 $214 $250 reversed $162 $-1 #
straight-curve $-1 -20 0 0 0 1 0 I I #
point $-1 -20 -20 0 #
edge $-1 $215 -10 $224 10 $247 $269 forward 7 unknown #
point $-1 -20 20 0 #
plane-surface $-1 40 0 0 -1 0 0 0 0 1 forward_v I I I I #
coedge $-1 $257 $243 $221 $254 forward $204 $-1 #
edge $-1 $262 -40 $259 40 $221 $270 forward 7 unknown #
straight-curve $-1 -20 0 -20 0 -1 0 I I #
point $-1 -20 20 -20 #
coedge $-1 $235 $253 $229 $258 forward $204 $-1 #
edge $-1 $259 -40 $239 40 $229 $271 forward 7 unknown #
vertex $-1 $258 $272 #
straight-curve $-1 40 40 0 0 0 -1 I I #
edge $-1 $237 -40 $262 40 $232 $273 forward 7 unknown #
vertex $-1 $254 $274 #
straight-curve $-1 -40 40 0 0 0 -1 I I #
straight-curve $-1 0 -40 -20 -1 0 0 I I #
point $-1 -40 -40 -20 #
point $-1 40 -40 -20 #
straight-curve $-1 -20 -20 -10 0 0 -1 I I #
point $-1 -20 -20 -20 #
straight-curve $-1 -20 20 -10 0 0 -1 I I #
straight-curve $-1 0 40 -20 1 0 0 I I #
straight-curve $-1 40 0 -20 0 -1 0 I I #
point $-1 40 40 -20 #
straight-curve $-1 -40 0 -20 0 1 0 I I #
point $-1 -40 40 -20 #
End-of-ACIS-data 