700 0 2 0           
24 FBMach with ACIS - 7.0.3 13 ACIS 7.0.3 NT 24 Tue May 14 09:19:50 2002 
1 9.9999999999999995e-007 1e-010 
body $2 -1 $-1 $3 $-1 $4 #
bdycol-kcp $-1 -1 1 4 $5 $6 $7 $8 #
model_id-kcp-attrib $-1 -1 $-1 $-1 $0 1 1021382389 1021382390 -1224671231 1 #
lump $-1 -1 $-1 $-1 $9 $0 #
transform $-1 -1 1 0 0 0 1 0 0 0 1 0 0 0 1 rotate no_reflect no_shear #
body $10 -1 $-1 $11 $-1 $12 #
body $13 -1 $-1 $14 $-1 $15 #
body $16 -1 $-1 $17 $-1 $18 #
body $19 -1 $-1 $20 $-1 $21 #
shell $-1 -1 $-1 $-1 $-1 $22 $-1 $3 #
model_id-kcp-attrib $-1 -1 $-1 $-1 $5 1 1021382389 1021382390 -1224671230 1 #
lump $-1 -1 $-1 $-1 $23 $5 #
transform $-1 -1 1 0 0 0 1 0 0 0 1 0 0 1.7763568394002505e-015 1 no_rotate no_reflect no_shear #
rgb_color-st-attrib $-1 -1 $24 $-1 $6 0.59999999999999998 0.90000000000000002 1 #
lump $-1 -1 $-1 $-1 $25 $6 #
transform $-1 -1 1 0 0 0 1 0 0 0 1 0 0 1.7763568394002505e-015 1 no_rotate no_reflect no_shear #
rgb_color-st-attrib $-1 -1 $26 $-1 $7 0.59999999999999998 0.90000000000000002 1 #
lump $-1 -1 $-1 $-1 $27 $7 #
transform $-1 -1 1 0 0 0 1 0 0 0 1 0 0 1.7763568394002505e-015 1 no_rotate no_reflect no_shear #
rgb_color-st-attrib $-1 -1 $28 $-1 $8 0 0 1 #
lump $-1 -1 $-1 $-1 $29 $8 #
transform $-1 -1 1 0 0 0 1 0 0 0 1 0 0 1.7763568394002505e-015 1 no_rotate no_reflect no_shear #
face $30 -1 $-1 $31 $32 $9 $-1 $33 reversed single #
shell $-1 -1 $-1 $-1 $-1 $34 $-1 $11 #
model_id-kcp-attrib $-1 -1 $-1 $13 $6 1 1021382389 1021382390 -1219887099 1 #
shell $-1 -1 $-1 $-1 $-1 $35 $-1 $14 #
model_id-kcp-attrib $-1 -1 $-1 $16 $7 1 1021382389 1021382390 -1217527804 1 #
shell $-1 -1 $-1 $-1 $-1 $36 $-1 $17 #
model_id-kcp-attrib $-1 -1 $-1 $19 $8 1 1021382389 1021382390 -1216544765 1 #
shell $-1 -1 $-1 $-1 $-1 $37 $-1 $20 #
model_id-kcp-attrib $-1 -1 $-1 $-1 $22 1 1021382389 1021382390 -1224671231 2 #
face $38 -1 $-1 $39 $40 $9 $-1 $41 reversed single #
loop $-1 -1 $-1 $-1 $42 $22 #
cone-surface $-1 -1 $-1 -20 20 15 0 0 1 10 0 0 1 I I 0 1 10 forward I I I I #
face $43 -1 $-1 $44 $45 $23 $-1 $46 forward single #
face $-1 -1 $-1 $47 $48 $25 $-1 $49 forward single #
face $-1 -1 $-1 $50 $51 $27 $-1 $52 forward single #
face $-1 -1 $-1 $53 $54 $29 $-1 $55 forward single #
model_id-kcp-attrib $-1 -1 $-1 $-1 $31 1 1021382389 1021382390 -1224671231 3 #
face $56 -1 $-1 $57 $58 $9 $-1 $59 reversed single #
loop $-1 -1 $-1 $-1 $60 $31 #
plane-surface $-1 -1 $-1 -20 20 10 0 0 -1 -1 0 0 forward_v I I I I #
coedge $-1 -1 $-1 $61 $62 $63 $64 reversed $32 $-1 #
model_id-kcp-attrib $-1 -1 $-1 $-1 $34 1 1021382389 1021382390 -1224671230 2 #
face $65 -1 $-1 $66 $67 $23 $-1 $68 reversed single #
loop $-1 -1 $-1 $-1 $69 $34 #
plane-surface $-1 -1 $-1 0 0 20 0 0 1 1 0 0 forward_v I I I I #
face $-1 -1 $-1 $70 $71 $25 $-1 $72 forward single #
loop $-1 -1 $-1 $-1 $73 $35 #
cone-surface $-1 -1 $-1 -20 20 10 0 0 1 10 0 0 1 I I 0 1 10 forward I I I I #
face $-1 -1 $-1 $74 $75 $27 $-1 $76 forward single #
loop $-1 -1 $-1 $-1 $77 $36 #
plane-surface $-1 -1 $-1 0 -30 9.9999999999999982 -1 0 0 0 0 1 forward_v I I I I #
face $-1 -1 $-1 $78 $79 $29 $-1 $80 forward single #
loop $-1 -1 $-1 $-1 $81 $37 #
plane-surface $-1 -1 $-1 0 0 20 0 0 1 1 0 0 forward_v I I I I #
model_id-kcp-attrib $-1 -1 $-1 $-1 $39 1 1021382389 1021382390 -1224671231 4 #
face $82 -1 $-1 $83 $84 $9 $-1 $85 reversed single #
loop $-1 -1 $-1 $-1 $86 $39 #
cone-surface $-1 -1 $-1 0 0 0 0 0 1 30 0 0 1 I I 0 1 30 forward I I I I #
coedge $-1 -1 $-1 $87 $87 $88 $89 reversed $40 $-1 #
coedge $-1 -1 $-1 $90 $42 $87 $91 forward $32 $-1 #
coedge $-1 -1 $-1 $42 $90 $92 $93 reversed $32 $-1 #
coedge $-1 -1 $-1 $94 $88 $42 $64 forward $58 $-1 #
edge $-1 -1 $-1 $95 -5.0000000000000018 $96 5 $63 $97 forward @7 unknown #
model_id-kcp-attrib $-1 -1 $-1 $-1 $44 1 1021382389 1021382390 -1224671230 3 #
face $98 -1 $-1 $99 $100 $23 $-1 $101 reversed single #
loop $-1 -1 $-1 $-1 $102 $44 #
plane-surface $-1 -1 $-1 0 0 -20 0 0 1 1 0 0 forward_v I I I I #
coedge $-1 -1 $-1 $103 $104 $105 $106 forward $45 $-1 #
face $-1 -1 $-1 $107 $108 $25 $-1 $109 forward single #
loop $-1 -1 $-1 $-1 $110 $47 #
cone-surface $-1 -1 $-1 0 0 10 0 0 1 30 0 0 1 I I 0 -1 30 forward I I I I #
coedge $-1 -1 $-1 $111 $112 $113 $114 forward $48 $-1 #
face $-1 -1 $-1 $115 $116 $27 $-1 $117 forward single #
loop $-1 -1 $-1 $-1 $118 $50 #
cone-surface $-1 -1 $-1 0 -25 10 0 0 1 10 0 0 1 I I 0 1 10 forward I I I I #
coedge $-1 -1 $-1 $119 $120 $121 $122 forward $51 $-1 #
face $-1 -1 $-1 $123 $124 $29 $-1 $125 forward single #
loop $-1 -1 $-1 $-1 $126 $53 #
cone-surface $-1 -1 $-1 0 0 0 0 0 1 30 0 0 1 I I 0 1 30 forward I I I I #
coedge $-1 -1 $-1 $127 $127 $126 $128 forward $54 $-1 #
model_id-kcp-attrib $-1 -1 $-1 $-1 $57 1 1021382389 1021382390 -1224671231 5 #
face $129 -1 $-1 $130 $131 $9 $-1 $132 reversed single #
loop $-1 -1 $-1 $-1 $133 $57 #
cone-surface $-1 -1 $-1 0 -25 15 0 0 1 10 0 0 1 I I 0 1 10 forward I I I I #
coedge $-1 -1 $-1 $88 $134 $90 $135 forward $58 $-1 #
coedge $-1 -1 $-1 $60 $60 $61 $91 reversed $40 $-1 #
coedge $-1 -1 $-1 $63 $86 $60 $89 forward $58 $-1 #
edge $136 -1 $-1 $137 2.016357580738223 $95 2.6960313996464671 $88 $138 forward @7 unknown #
coedge $-1 -1 $-1 $62 $61 $86 $135 reversed $32 $-1 #
edge $139 -1 $-1 $95 2.3561944901923444 $137 5.497787143782138 $87 $140 forward @7 unknown #
coedge $-1 -1 $-1 $141 $142 $62 $93 forward $143 $-1 #
edge $144 -1 $-1 $96 2.3561944901923448 $145 5.497787143782138 $92 $146 forward @7 unknown #
coedge $-1 -1 $-1 $147 $63 $142 $148 reversed $58 $-1 #
vertex $-1 -1 $-1 $64 $149 #
vertex $-1 -1 $-1 $148 $150 #
straight-curve $-1 -1 $-1 -27.071067811865472 12.928932188134521 15 0 0 1 I I #
model_id-kcp-attrib $-1 -1 $-1 $-1 $66 1 1021382389 1021382390 -1224671230 6 #
face $151 -1 $-1 $152 $153 $23 $-1 $154 reversed single #
loop $-1 -1 $-1 $-1 $155 $66 #
plane-surface $-1 -1 $-1 0 -40 0 0 1 0 0 0 1 forward_v I I I I #
coedge $-1 -1 $-1 $156 $157 $158 $159 forward $67 $-1 #
coedge $-1 -1 $-1 $160 $69 $161 $162 forward $45 $-1 #
coedge $-1 -1 $-1 $69 $160 $163 $164 forward $45 $-1 #
coedge $-1 -1 $-1 $165 $166 $69 $106 reversed $167 $-1 #
edge $-1 -1 $-1 $168 -40 $169 40 $105 $170 forward @7 unknown #
face $-1 -1 $-1 $-1 $171 $25 $-1 $172 reversed single #
loop $-1 -1 $-1 $-1 $113 $70 #
plane-surface $-1 -1 $-1 -22.747177520792917 22.747177520792917 20.000000000000004 0 0 1 1 0 0 forward_v I I I I #
coedge $-1 -1 $-1 $173 $174 $175 $176 forward $71 $-1 #
coedge $-1 -1 $-1 $177 $73 $174 $178 reversed $48 $-1 #
coedge $-1 -1 $-1 $73 $177 $173 $179 forward $48 $-1 #
coedge $-1 -1 $-1 $175 $175 $73 $114 reversed $108 $-1 #
edge $-1 -1 $-1 $180 2.3561944901923444 $181 5.497787143782138 $73 $182 forward @7 unknown #
face $-1 -1 $-1 $183 $184 $27 $-1 $185 forward single #
loop $-1 -1 $-1 $-1 $186 $74 #
cone-surface $-1 -1 $-1 0 0 10 0 0 1 30 0 0 1 I I 0 -1 30 forward I I I I #
coedge $-1 -1 $-1 $187 $188 $189 $190 forward $75 $-1 #
coedge $-1 -1 $-1 $191 $77 $188 $192 reversed $51 $-1 #
coedge $-1 -1 $-1 $77 $191 $193 $194 forward $51 $-1 #
coedge $-1 -1 $-1 $195 $189 $77 $122 reversed $184 $-1 #
edge $-1 -1 $-1 $196 -32.5 $197 -17.5 $77 $198 forward @7 unknown #
face $-1 -1 $-1 $-1 $199 $29 $-1 $200 reversed single #
loop $-1 -1 $-1 $-1 $201 $78 #
plane-surface $-1 -1 $-1 0 30 -1.7763568394002505e-015 1 0 0 0 0 -1 forward_v I I I I #
coedge $-1 -1 $-1 $202 $203 $81 $128 reversed $79 $-1 #
coedge $-1 -1 $-1 $81 $81 $201 $204 forward $54 $-1 #
edge $-1 -1 $-1 $205 1.5707963267948966 $206 4.7123889803846897 $126 $207 forward @7 unknown #
model_id-kcp-attrib $-1 -1 $-1 $-1 $83 1 1021382389 1021382390 -1224671231 6 #
face $208 -1 $-1 $209 $143 $9 $-1 $210 forward single #
loop $-1 -1 $-1 $-1 $211 $83 #
plane-surface $-1 -1 $-1 0 -25 10 0 0 -1 -1 0 0 forward_v I I I I #
coedge $-1 -1 $-1 $212 $213 $214 $215 reversed $84 $-1 #
coedge $-1 -1 $-1 $86 $216 $141 $217 reversed $58 $-1 #
edge $-1 -1 $-1 $145 -5 $137 5.0000000000000018 $86 $218 forward @7 unknown #
attrib_edge_convexity-kcp-attrib $-1 -1 $219 $-1 $89 1 #
vertex $-1 -1 $-1 $135 $220 #
ellipse-curve $-1 -1 $-1 0 0 10 0 0 1 30 0 0 1 I I #
attrib_edge_convexity-kcp-attrib $-1 -1 $221 $-1 $91 2 #
ellipse-curve $-1 -1 $-1 -20 20 10 0 0 -1 10 0 0 1 I I #
coedge $-1 -1 $-1 $222 $92 $134 $217 forward $143 $-1 #
coedge $-1 -1 $-1 $92 $223 $94 $148 forward $143 $-1 #
loop $-1 -1 $-1 $224 $92 $130 #
attrib_edge_convexity-kcp-attrib $-1 -1 $225 $-1 $93 1 #
vertex $-1 -1 $-1 $93 $226 #
ellipse-curve $-1 -1 $-1 -20 20 20 0 0 -1 10 0 0 1 I I #
coedge $-1 -1 $-1 $227 $94 $228 $229 forward $58 $-1 #
edge $230 -1 $-1 $231 1.8883567560864181 $96 3.5871539075331196 $142 $232 forward @7 unknown #
point $-1 -1 $-1 -27.071067811865472 12.928932188134521 9.9999999999999982 #
point $-1 -1 $-1 -27.071067811865472 12.928932188134528 20 #
model_id-kcp-attrib $-1 -1 $-1 $-1 $99 1 1021382389 1021382390 -1224671230 4 #
face $233 -1 $-1 $234 $235 $23 $-1 $236 reversed single #
loop $-1 -1 $-1 $-1 $237 $99 #
plane-surface $-1 -1 $-1 -40 0 0 1 0 0 0 0 -1 forward_v I I I I #
coedge $-1 -1 $-1 $238 $163 $239 $240 forward $100 $-1 #
coedge $-1 -1 $-1 $241 $102 $238 $242 forward $67 $-1 #
coedge $-1 -1 $-1 $102 $241 $243 $244 forward $67 $-1 #
coedge $-1 -1 $-1 $166 $165 $102 $159 reversed $167 $-1 #
edge $-1 -1 $-1 $245 -40 $246 40 $158 $247 forward @7 unknown #
coedge $-1 -1 $-1 $104 $103 $248 $249 forward $45 $-1 #
coedge $-1 -1 $-1 $250 $251 $103 $162 reversed $235 $-1 #
edge $-1 -1 $-1 $169 -40 $252 40 $161 $253 forward @7 unknown #
coedge $-1 -1 $-1 $155 $254 $104 $164 reversed $100 $-1 #
edge $-1 -1 $-1 $255 -40 $168 40 $163 $256 forward @7 unknown #
coedge $-1 -1 $-1 $158 $105 $254 $257 forward $167 $-1 #
coedge $-1 -1 $-1 $105 $158 $250 $258 reversed $167 $-1 #
loop $-1 -1 $-1 $-1 $165 $234 #
vertex $-1 -1 $-1 $106 $259 #
vertex $-1 -1 $-1 $106 $260 #
straight-curve $-1 -1 $-1 40 0 20 0 1 0 I I #
loop $-1 -1 $-1 $-1 $261 $107 #
plane-surface $-1 -1 $-1 -22.747177520792917 22.747177520792917 10 0 0 1 1 0 0 forward_v I I I I #
coedge $-1 -1 $-1 $262 $110 $112 $179 reversed $71 $-1 #
coedge $-1 -1 $-1 $110 $262 $111 $178 forward $71 $-1 #
coedge $-1 -1 $-1 $113 $113 $110 $176 reversed $108 $-1 #
edge $-1 -1 $-1 $181 2.016357580738223 $180 2.6960313996464671 $110 $263 forward @7 unknown #
coedge $-1 -1 $-1 $112 $111 $264 $265 reversed $48 $-1 #
edge $-1 -1 $-1 $266 0 $181 10.000000000000004 $174 $267 forward @7 unknown #
edge $-1 -1 $-1 $268 0 $180 10.000000000000004 $112 $269 forward @7 unknown #
vertex $-1 -1 $-1 $179 $270 #
vertex $-1 -1 $-1 $178 $271 #
ellipse-curve $-1 -1 $-1 -20 20 20.000000000000004 0 0 -1 10 0 0 1 I I #
face $-1 -1 $-1 $-1 $272 $27 $-1 $273 reversed single #
loop $-1 -1 $-1 $-1 $121 $115 #
plane-surface $-1 -1 $-1 0.8413784907762315 -26.117304806714127 20 0 0 1 1 0 0 forward_v I I I I #
coedge $-1 -1 $-1 $193 $274 $195 $275 forward $116 $-1 #
coedge $-1 -1 $-1 $276 $118 $274 $277 reversed $75 $-1 #
coedge $-1 -1 $-1 $118 $276 $119 $192 forward $75 $-1 #
coedge $-1 -1 $-1 $121 $195 $118 $190 reversed $184 $-1 #
edge $-1 -1 $-1 $197 -1.5707963267948966 $278 2.7840215499442826 $118 $279 forward @7 unknown #
coedge $-1 -1 $-1 $120 $119 $280 $281 reversed $51 $-1 #
edge $-1 -1 $-1 $282 0 $197 10.000000000000002 $188 $283 forward @7 unknown #
coedge $-1 -1 $-1 $284 $186 $120 $194 reversed $116 $-1 #
edge $-1 -1 $-1 $285 0 $196 10.000000000000002 $120 $286 forward @7 unknown #
coedge $-1 -1 $-1 $189 $121 $186 $275 reversed $184 $-1 #
vertex $-1 -1 $-1 $194 $287 #
vertex $-1 -1 $-1 $192 $288 #
straight-curve $-1 -1 $-1 0 2.5 20 0 1 0 I I #
loop $-1 -1 $-1 $-1 $289 $123 #
plane-surface $-1 -1 $-1 -10.521272322061801 -1.7760788341175903e-015 0 0 0 1 1 0 0 forward_v I I I I #
coedge $-1 -1 $-1 $290 $291 $127 $204 reversed $124 $-1 #
coedge $-1 -1 $-1 $292 $126 $291 $293 reversed $79 $-1 #
coedge $-1 -1 $-1 $126 $292 $290 $294 forward $79 $-1 #
edge $-1 -1 $-1 $206 -45 $205 15 $201 $295 forward @7 unknown #
vertex $-1 -1 $-1 $204 $296 #
vertex $-1 -1 $-1 $128 $297 #
ellipse-curve $-1 -1 $-1 0 0 20 0 0 1 30 0 0 1 I I #
model_id-kcp-attrib $-1 -1 $-1 $-1 $130 1 1021382389 1021382390 -1224671231 7 #
face $298 -1 $-1 $299 $300 $9 $-1 $301 forward single #
plane-surface $-1 -1 $-1 0 0 20 0 0 1 1 0 0 forward_v I I I I #
coedge $-1 -1 $-1 $302 $303 $304 $305 reversed $131 $-1 #
coedge $-1 -1 $-1 $228 $133 $303 $306 forward $84 $-1 #
coedge $-1 -1 $-1 $133 $228 $223 $307 reversed $84 $-1 #
coedge $-1 -1 $-1 $308 $304 $133 $215 forward $309 $-1 #
edge $-1 -1 $-1 $310 -5 $311 5 $214 $312 forward @7 unknown #
coedge $-1 -1 $-1 $134 $313 $314 $315 forward $58 $-1 #
edge $316 -1 $-1 $145 -2.016357580738223 $317 -1.5707963267948966 $141 $232 forward @7 unknown #
straight-curve $-1 -1 $-1 -12.928932188134521 27.071067811865472 15 0 0 -1 I I #
convexity-sys-attrib $-1 -1 $-1 $136 $89 #
point $-1 -1 $-1 -12.928932188134521 27.071067811865472 9.9999999999999982 #
convexity-sys-attrib $-1 -1 $-1 $139 $91 #
coedge $-1 -1 $-1 $223 $141 $308 $318 forward $143 $-1 #
coedge $-1 -1 $-1 $142 $222 $213 $307 forward $143 $-1 #
loop $-1 -1 $-1 $-1 $319 $130 #
convexity-sys-attrib $-1 -1 $-1 $144 $93 #
point $-1 -1 $-1 -12.928932188134528 27.071067811865472 20 #
coedge $-1 -1 $-1 $320 $147 $302 $321 forward $58 $-1 #
coedge $-1 -1 $-1 $213 $212 $147 $229 reversed $84 $-1 #
edge $-1 -1 $-1 $231 -5.0000000000000018 $322 5 $147 $323 forward @7 unknown #
attrib_edge_convexity-kcp-attrib $-1 -1 $324 $-1 $148 1 #
vertex $-1 -1 $-1 $229 $325 #
ellipse-curve $-1 -1 $-1 0 0 20 0 0 -1 30 0 0 1 I I #
model_id-kcp-attrib $-1 -1 $-1 $-1 $152 1 1021382389 1021382390 -1224671230 5 #
face $326 -1 $-1 $-1 $167 $23 $-1 $327 reversed single #
loop $-1 -1 $-1 $-1 $250 $152 #
plane-surface $-1 -1 $-1 0 40 0 0 -1 0 0 0 -1 forward_v I I I I #
coedge $-1 -1 $-1 $328 $248 $251 $329 forward $153 $-1 #
coedge $-1 -1 $-1 $254 $155 $156 $242 reversed $100 $-1 #
coedge $-1 -1 $-1 $248 $328 $155 $240 reversed $153 $-1 #
edge $-1 -1 $-1 $255 -20 $330 20 $239 $331 forward @7 unknown #
coedge $-1 -1 $-1 $157 $156 $328 $332 forward $67 $-1 #
edge $-1 -1 $-1 $246 -40 $330 40 $238 $333 forward @7 unknown #
coedge $-1 -1 $-1 $251 $250 $157 $244 reversed $235 $-1 #
edge $-1 -1 $-1 $334 -40 $245 40 $243 $335 forward @7 unknown #
vertex $-1 -1 $-1 $159 $336 #
vertex $-1 -1 $-1 $257 $337 #
straight-curve $-1 -1 $-1 40 0 -20 0 -1 0 I I #
coedge $-1 -1 $-1 $237 $239 $160 $249 reversed $153 $-1 #
edge $-1 -1 $-1 $252 -40 $255 40 $248 $338 forward @7 unknown #
coedge $-1 -1 $-1 $243 $161 $166 $258 forward $235 $-1 #
coedge $-1 -1 $-1 $161 $243 $237 $329 reversed $235 $-1 #
vertex $-1 -1 $-1 $162 $339 #
straight-curve $-1 -1 $-1 0 40 20 -1 0 0 I I #
coedge $-1 -1 $-1 $163 $238 $165 $257 reversed $100 $-1 #
vertex $-1 -1 $-1 $249 $340 #
straight-curve $-1 -1 $-1 0 -40 20 1 0 0 I I #
edge $-1 -1 $-1 $168 -20 $246 20 $165 $341 forward @7 unknown #
edge $-1 -1 $-1 $169 -20 $245 20 $166 $342 forward @7 unknown #
point $-1 -1 $-1 40 -40 20 #
point $-1 -1 $-1 40 40 20 #
coedge $-1 -1 $-1 $264 $264 $262 $343 forward $171 $-1 #
coedge $-1 -1 $-1 $174 $173 $261 $343 reversed $71 $-1 #
ellipse-curve $-1 -1 $-1 0 0 20.000000000000004 0 0 1 30 0 0 1 I I #
coedge $-1 -1 $-1 $261 $261 $177 $265 forward $171 $-1 #
edge $344 -1 $-1 $268 2.3561944901923444 $266 5.497787143782138 $177 $345 forward @7 unknown #
vertex $-1 -1 $-1 $343 $346 #
straight-curve $-1 -1 $-1 -12.928932188134521 27.071067811865472 9.9999999999999964 0 0 1 I I #
vertex $-1 -1 $-1 $343 $347 #
straight-curve $-1 -1 $-1 -27.071067811865472 12.928932188134521 9.9999999999999964 0 0 1 I I #
point $-1 -1 $-1 -27.071067811865472 12.928932188134521 20 #
point $-1 -1 $-1 -12.928932188134521 27.071067811865472 20 #
loop $-1 -1 $-1 $-1 $348 $183 #
plane-surface $-1 -1 $-1 0.8413784907762315 -26.117304806714127 10 0 0 1 1 0 0 forward_v I I I I #
coedge $-1 -1 $-1 $186 $284 $187 $277 forward $116 $-1 #
edge $-1 -1 $-1 $278 -1.8883567560864178 $196 -1.5707963267948966 $186 $349 forward @7 unknown #
coedge $-1 -1 $-1 $188 $187 $350 $351 reversed $75 $-1 #
edge $-1 -1 $-1 $352 0 $278 10 $274 $353 forward @7 unknown #
vertex $-1 -1 $-1 $277 $354 #
ellipse-curve $-1 -1 $-1 0 -25 20 0 0 -1 10 0 0 1 I I #
coedge $-1 -1 $-1 $350 $348 $191 $281 forward $272 $-1 #
edge $355 -1 $-1 $285 -32.5 $282 -17.5 $191 $356 forward @7 unknown #
vertex $-1 -1 $-1 $281 $357 #
straight-curve $-1 -1 $-1 0 -15 9.9999999999999982 0 0 1 I I #
coedge $-1 -1 $-1 $274 $193 $348 $358 reversed $116 $-1 #
vertex $-1 -1 $-1 $358 $359 #
straight-curve $-1 -1 $-1 0 -30 9.9999999999999982 0 0 1 I I #
point $-1 -1 $-1 0 -30 20 #
point $-1 -1 $-1 0 -15 20 #
coedge $-1 -1 $-1 $360 $360 $292 $361 forward $199 $-1 #
coedge $-1 -1 $-1 $362 $201 $203 $294 reversed $124 $-1 #
coedge $-1 -1 $-1 $201 $362 $202 $293 forward $124 $-1 #
coedge $-1 -1 $-1 $203 $202 $289 $361 reversed $79 $-1 #
edge $363 -1 $-1 $364 0 $205 20 $291 $365 forward @7 unknown #
edge $366 -1 $-1 $367 0 $206 20 $203 $368 forward @7 unknown #
straight-curve $-1 -1 $-1 0 15 20 0 1 0 I I #
point $-1 -1 $-1 0 30 20 #
point $-1 -1 $-1 0 -30 20 #
model_id-kcp-attrib $-1 -1 $-1 $-1 $209 1 1021382389 1021382390 -1224671231 8 #
face $369 -1 $-1 $370 $371 $9 $-1 $372 reversed single #
loop $-1 -1 $-1 $-1 $373 $209 #
plane-surface $-1 -1 $-1 -30 0 0 0 0 1 1 0 0 forward_v I I I I #
coedge $-1 -1 $-1 $303 $211 $227 $321 reversed $131 $-1 #
coedge $-1 -1 $-1 $211 $302 $212 $306 reversed $131 $-1 #
coedge $-1 -1 $-1 $214 $374 $211 $305 forward $309 $-1 #
edge $375 -1 $-1 $376 -17.5 $310 -2.5 $304 $377 forward @7 unknown #
edge $378 -1 $-1 $310 -1.5707963267948966 $322 2.7840215499442826 $303 $379 forward @7 unknown #
edge $380 -1 $-1 $311 -1.5707963267948966 $231 2.7840215499442826 $223 $381 forward @7 unknown #
coedge $-1 -1 $-1 $314 $214 $222 $318 reversed $309 $-1 #
loop $-1 -1 $-1 $-1 $214 $382 #
vertex $-1 -1 $-1 $215 $383 #
vertex $-1 -1 $-1 $318 $384 #
straight-curve $-1 -1 $-1 0 -15 15 0 0 1 I I #
coedge $-1 -1 $-1 $216 $385 $386 $387 reversed $58 $-1 #
coedge $-1 -1 $-1 $388 $308 $216 $315 reversed $309 $-1 #
edge $-1 -1 $-1 $389 -20 $317 20 $216 $390 forward @7 unknown #
attrib_edge_convexity-kcp-attrib $-1 -1 $391 $-1 $217 1 #
vertex $-1 -1 $-1 $217 $392 #
edge $393 -1 $-1 $317 -30 $311 15 $308 $394 forward @7 unknown #
coedge $-1 -1 $-1 $395 $396 $397 $398 forward $224 $-1 #
coedge $-1 -1 $-1 $399 $227 $374 $400 forward $58 $-1 #
edge $401 -1 $-1 $322 -1.8883567560864181 $376 -1.5707963267948966 $227 $402 forward @7 unknown #
vertex $-1 -1 $-1 $229 $403 #
straight-curve $-1 -1 $-1 -9.3674969975975966 -28.500000000000004 15.000000000000002 0 0 -1 I I #
convexity-sys-attrib $-1 -1 $-1 $230 $148 #
point $-1 -1 $-1 -9.3674969975975966 -28.500000000000004 20.000000000000004 #
model_id-kcp-attrib $-1 -1 $-1 $-1 $234 1 1021382389 1021382390 -1224671230 7 #
plane-surface $-1 -1 $-1 40 0 0 -1 0 0 0 0 1 forward_v I I I I #
coedge $-1 -1 $-1 $239 $237 $241 $332 reversed $153 $-1 #
edge $-1 -1 $-1 $252 -20 $334 20 $251 $404 forward @7 unknown #
vertex $-1 -1 $-1 $332 $405 #
straight-curve $-1 -1 $-1 -40 -40 0 0 0 -1 I I #
edge $-1 -1 $-1 $330 -40 $334 40 $328 $406 forward @7 unknown #
straight-curve $-1 -1 $-1 0 -40 -20 -1 0 0 I I #
vertex $-1 -1 $-1 $244 $407 #
straight-curve $-1 -1 $-1 0 40 -20 1 0 0 I I #
point $-1 -1 $-1 40 40 -20 #
point $-1 -1 $-1 40 -40 -20 #
straight-curve $-1 -1 $-1 -40 0 20 0 -1 0 I I #
point $-1 -1 $-1 -40 40 20 #
point $-1 -1 $-1 -40 -40 20 #
straight-curve $-1 -1 $-1 40 -40 0 0 0 -1 I I #
straight-curve $-1 -1 $-1 40 40 0 0 0 -1 I I #
edge $408 -1 $-1 $266 2.016357580738223 $268 2.6960313996464671 $262 $409 forward @7 unknown #
convexity-sys-attrib $-1 -1 $-1 $-1 $265 #
ellipse-curve $-1 -1 $-1 -20 20 10 0 0 -1 10 0 0 1 I I #
point $-1 -1 $-1 -12.928932188134521 27.071067811865472 9.9999999999999964 #
point $-1 -1 $-1 -27.071067811865472 12.928932188134521 9.9999999999999964 #
coedge $-1 -1 $-1 $280 $350 $284 $358 forward $272 $-1 #
ellipse-curve $-1 -1 $-1 0 0 20 0 0 1 30 0 0 1 I I #
coedge $-1 -1 $-1 $348 $280 $276 $351 forward $272 $-1 #
edge $410 -1 $-1 $282 -1.5707963267948966 $352 2.7840215499442826 $276 $411 forward @7 unknown #
vertex $-1 -1 $-1 $358 $412 #
straight-curve $-1 -1 $-1 -9.3674969975975966 -28.500000000000004 10 0 0 1 I I #
point $-1 -1 $-1 -9.3674969975975966 -28.500000000000004 20 #
convexity-sys-attrib $-1 -1 $-1 $-1 $281 #
straight-curve $-1 -1 $-1 0 2.5 10 0 1 0 I I #
point $-1 -1 $-1 0 -15 9.9999999999999982 #
edge $413 -1 $-1 $352 -1.8883567560864178 $285 -1.5707963267948966 $284 $414 forward @7 unknown #
point $-1 -1 $-1 0 -30 9.9999999999999982 #
coedge $-1 -1 $-1 $289 $289 $362 $415 forward $199 $-1 #
edge $416 -1 $-1 $367 1.5707963267948966 $364 4.7123889803846897 $292 $417 forward @7 unknown #
coedge $-1 -1 $-1 $291 $290 $360 $415 reversed $124 $-1 #
convexity-sys-attrib $-1 -1 $-1 $-1 $293 #
vertex $-1 -1 $-1 $361 $418 #
straight-curve $-1 -1 $-1 0 30 -1.7763568394002505e-015 0 0 1 I I #
convexity-sys-attrib $-1 -1 $-1 $-1 $294 #
vertex $-1 -1 $-1 $361 $419 #
straight-curve $-1 -1 $-1 0 -30 -1.7763568394002505e-015 0 0 1 I I #
model_id-kcp-attrib $-1 -1 $-1 $-1 $299 1 1021382389 1021382390 -1224671231 9 #
face $420 -1 $-1 $421 $422 $9 $-1 $423 reversed single #
loop $-1 -1 $-1 $-1 $424 $299 #
plane-surface $-1 -1 $-1 -30 -20 -10 0 1 0 0 0 1 forward_v I I I I #
coedge $-1 -1 $-1 $425 $426 $427 $428 reversed $300 $-1 #
coedge $-1 -1 $-1 $304 $388 $320 $400 reversed $309 $-1 #
attrib_edge_convexity-kcp-attrib $-1 -1 $429 $-1 $305 1 #
vertex $-1 -1 $-1 $321 $430 #
straight-curve $-1 -1 $-1 0 -12.5 10 0 1 0 I I #
attrib_edge_convexity-kcp-attrib $-1 -1 $431 $-1 $306 2 #
ellipse-curve $-1 -1 $-1 0 -25 10 0 0 -1 10 0 0 1 I I #
attrib_edge_convexity-kcp-attrib $-1 -1 $432 $-1 $307 1 #
ellipse-curve $-1 -1 $-1 0 -25 20 0 0 -1 10 0 0 1 I I #
face $433 -1 $-1 $434 $309 $9 $-1 $435 reversed single #
point $-1 -1 $-1 0 -15 10 #
point $-1 -1 $-1 0 -15 20 #
coedge $-1 -1 $-1 $313 $427 $436 $437 forward $58 $-1 #
coedge $-1 -1 $-1 $438 $439 $313 $387 forward $440 $-1 #
edge $-1 -1 $-1 $389 1.5707963267948966 $441 2.411864997362827 $386 $442 forward @7 unknown #
coedge $-1 -1 $-1 $374 $314 $439 $443 reversed $309 $-1 #
vertex $-1 -1 $-1 $387 $444 #
straight-curve $-1 -1 $-1 0 30 0 0 0 1 I I #
convexity-sys-attrib $-1 -1 $-1 $316 $217 #
point $-1 -1 $-1 0 30 20 #
attrib_edge_convexity-kcp-attrib $-1 -1 $445 $-1 $318 1 #
straight-curve $-1 -1 $-1 0 0 20 0 -1 0 I I #
coedge $-1 -1 $-1 $446 $319 $447 $448 forward $224 $-1 #
coedge $-1 -1 $-1 $319 $446 $449 $450 forward $224 $-1 #
coedge $-1 -1 $-1 $451 $452 $319 $398 reversed $453 $-1 #
edge $454 -1 $-1 $455 -40 $456 40 $397 $457 forward @7 unknown #
coedge $-1 -1 $-1 $458 $320 $459 $460 reversed $58 $-1 #
edge $-1 -1 $-1 $376 -10 $461 20 $320 $462 forward @7 unknown #
attrib_edge_convexity-kcp-attrib $-1 -1 $463 $-1 $321 1 #
ellipse-curve $-1 -1 $-1 0 0 10 0 0 1 30 0 0 1 I I #
point $-1 -1 $-1 -9.3674969975975966 -28.500000000000004 10.000000000000002 #
straight-curve $-1 -1 $-1 -40 40 0 0 0 -1 I I #
point $-1 -1 $-1 -40 -40 -20 #
straight-curve $-1 -1 $-1 -40 0 -20 0 1 0 I I #
point $-1 -1 $-1 -40 40 -20 #
convexity-sys-attrib $-1 -1 $-1 $-1 $343 #
ellipse-curve $-1 -1 $-1 0 0 10 0 0 1 30 0 0 1 I I #
convexity-sys-attrib $-1 -1 $-1 $-1 $351 #
ellipse-curve $-1 -1 $-1 0 -25 10 0 0 -1 10 0 0 1 I I #
point $-1 -1 $-1 -9.3674969975975966 -28.500000000000004 10 #
convexity-sys-attrib $-1 -1 $-1 $-1 $358 #
ellipse-curve $-1 -1 $-1 0 0 10 0 0 1 30 0 0 1 I I #
edge $464 -1 $-1 $364 -30 $367 30 $362 $465 forward @7 unknown #
convexity-sys-attrib $-1 -1 $-1 $-1 $361 #
ellipse-curve $-1 -1 $-1 0 0 0 0 0 -1 30 0 0 1 I I #
point $-1 -1 $-1 0 30 -1.7763568394002505e-015 #
point $-1 -1 $-1 0 -30 -1.7763568394002505e-015 #
model_id-kcp-attrib $-1 -1 $-1 $-1 $370 1 1021382389 1021382390 -1224671231 10 #
face $466 -1 $-1 $467 $468 $9 $-1 $469 reversed single #
loop $-1 -1 $-1 $-1 $436 $370 #
plane-surface $-1 -1 $-1 -30 20 -10 0 -1 0 0 0 -1 forward_v I I I I #
coedge $-1 -1 $-1 $470 $471 $458 $472 reversed $371 $-1 #
coedge $-1 -1 $-1 $473 $373 $471 $474 forward $300 $-1 #
coedge $-1 -1 $-1 $373 $473 $475 $476 forward $300 $-1 #
coedge $-1 -1 $-1 $385 $458 $373 $428 forward $58 $-1 #
edge $477 -1 $-1 $478 2.411864997362827 $479 3.8713203098167592 $427 $480 forward @7 unknown #
convexity-sys-attrib $-1 -1 $-1 $375 $305 #
point $-1 -1 $-1 0 -30 10 #
convexity-sys-attrib $-1 -1 $-1 $378 $306 #
convexity-sys-attrib $-1 -1 $-1 $380 $307 #
model_id-kcp-attrib $-1 -1 $-1 $-1 $382 1 1021382389 1021382390 -1224671231 14 #
face $481 -1 $-1 $482 $483 $9 $-1 $484 reversed single #
plane-surface $-1 -1 $-1 0 0 0 1 0 0 0 0 -1 forward_v I I I I #
coedge $-1 -1 $-1 $475 $485 $385 $437 reversed $422 $-1 #
edge $-1 -1 $-1 $479 0 $441 20 $385 $486 forward @7 unknown #
coedge $-1 -1 $-1 $487 $386 $485 $488 forward $440 $-1 #
coedge $-1 -1 $-1 $386 $459 $388 $443 forward $440 $-1 #
loop $-1 -1 $-1 $-1 $459 $467 #
vertex $-1 -1 $-1 $387 $489 #
ellipse-curve $-1 -1 $-1 0 0 -20 0 0 1 30 0 0 1 I I #
edge $-1 -1 $-1 $461 -30 $389 30 $388 $490 forward @7 unknown #
point $-1 -1 $-1 0 30 -20 #
convexity-sys-attrib $-1 -1 $-1 $393 $318 #
coedge $-1 -1 $-1 $396 $395 $491 $492 forward $224 $-1 #
coedge $-1 -1 $-1 $493 $494 $395 $448 reversed $495 $-1 #
edge $496 -1 $-1 $456 -40 $497 40 $447 $498 forward @7 unknown #
coedge $-1 -1 $-1 $499 $500 $396 $450 reversed $501 $-1 #
edge $502 -1 $-1 $503 -40 $455 40 $449 $504 forward @7 unknown #
coedge $-1 -1 $-1 $505 $397 $500 $506 forward $453 $-1 #
coedge $-1 -1 $-1 $397 $505 $493 $507 forward $453 $-1 #
loop $-1 -1 $-1 $-1 $397 $482 #
attrib_edge_convexity-kcp-attrib $-1 -1 $508 $-1 $398 1 #
vertex $-1 -1 $-1 $450 $509 #
vertex $-1 -1 $-1 $448 $510 #
straight-curve $-1 -1 $-1 0 -40 20 1 0 0 I I #
coedge $-1 -1 $-1 $427 $399 $424 $472 forward $58 $-1 #
coedge $-1 -1 $-1 $439 $511 $399 $460 forward $440 $-1 #
edge $-1 -1 $-1 $512 -2.411864997362827 $461 -1.5707963267948966 $459 $442 forward @7 unknown #
vertex $-1 -1 $-1 $460 $513 #
straight-curve $-1 -1 $-1 0 -30 0 0 0 -1 I I #
convexity-sys-attrib $-1 -1 $-1 $401 $321 #
convexity-sys-attrib $-1 -1 $-1 $-1 $415 #
straight-curve $-1 -1 $-1 0 0 0 0 -1 0 I I #
model_id-kcp-attrib $-1 -1 $-1 $-1 $421 1 1021382389 1021382390 -1224671231 11 #
face $514 -1 $-1 $515 $516 $9 $-1 $517 reversed single #
loop $-1 -1 $-1 $-1 $518 $421 #
plane-surface $-1 -1 $-1 -20 0 -10 -1 0 0 0 0 1 forward_v I I I I #
coedge $-1 -1 $-1 $519 $424 $511 $520 reversed $371 $-1 #
coedge $-1 -1 $-1 $424 $519 $425 $474 reversed $371 $-1 #
edge $-1 -1 $-1 $512 -20 $478 0 $458 $521 forward @7 unknown #
coedge $-1 -1 $-1 $426 $425 $522 $523 forward $300 $-1 #
edge $524 -1 $-1 $478 7.6393202250021019 $525 10 $471 $526 forward @7 unknown #
coedge $-1 -1 $-1 $527 $436 $426 $476 reversed $422 $-1 #
edge $528 -1 $-1 $529 -10 $479 -7.6393202250021019 $475 $530 forward @7 unknown #
attrib_edge_convexity-kcp-attrib $-1 -1 $531 $-1 $428 2 #
vertex $-1 -1 $-1 $428 $532 #
vertex $-1 -1 $-1 $428 $533 #
ellipse-curve $-1 -1 $-1 0 0 0 0 0 -1 30 0 0 1 I I #
model_id-kcp-attrib $-1 -1 $-1 $-1 $434 1 1021382389 1021382390 -1224671231 15 #
face $534 -1 $-1 $535 $453 $9 $-1 $536 reversed single #
loop $-1 -1 $-1 $-1 $537 $434 #
plane-surface $-1 -1 $-1 0 40 0 0 -1 0 0 0 -1 forward_v I I I I #
coedge $-1 -1 $-1 $436 $527 $438 $488 reversed $422 $-1 #
straight-curve $-1 -1 $-1 -22.360679774997898 20 0 0 0 -1 I I #
coedge $-1 -1 $-1 $511 $438 $538 $539 forward $440 $-1 #
edge $-1 -1 $-1 $441 7.6393202250021019 $540 10 $485 $541 forward @7 unknown #
point $-1 -1 $-1 -22.360679774997898 20 -20 #
straight-curve $-1 -1 $-1 0 0 -20 0 1 0 I I #
coedge $-1 -1 $-1 $542 $543 $446 $492 reversed $483 $-1 #
edge $544 -1 $-1 $497 -40 $503 40 $491 $545 forward @7 unknown #
coedge $-1 -1 $-1 $546 $447 $452 $507 reversed $495 $-1 #
coedge $-1 -1 $-1 $447 $546 $542 $547 reversed $495 $-1 #
loop $-1 -1 $-1 $-1 $493 $535 #
attrib_edge_convexity-kcp-attrib $-1 -1 $548 $-1 $448 1 #
vertex $-1 -1 $-1 $448 $549 #
straight-curve $-1 -1 $-1 40 0 20 0 1 0 I I #
coedge $-1 -1 $-1 $550 $449 $543 $551 forward $501 $-1 #
coedge $-1 -1 $-1 $449 $550 $451 $506 reversed $501 $-1 #
loop $-1 -1 $-1 $-1 $550 $515 #
attrib_edge_convexity-kcp-attrib $-1 -1 $552 $-1 $450 1 #
vertex $-1 -1 $-1 $492 $553 #
straight-curve $-1 -1 $-1 -40 0 20 0 -1 0 I I #
coedge $-1 -1 $-1 $452 $451 $554 $555 reversed $453 $-1 #
edge $556 -1 $-1 $455 -20 $557 20 $500 $558 forward @7 unknown #
edge $-1 -1 $-1 $559 -20 $456 20 $493 $560 reversed @7 unknown #
convexity-sys-attrib $-1 -1 $-1 $454 $398 #
point $-1 -1 $-1 -40 -40 20 #
point $-1 -1 $-1 40 -40 20 #
coedge $-1 -1 $-1 $459 $487 $470 $520 forward $440 $-1 #
vertex $-1 -1 $-1 $460 $561 #
point $-1 -1 $-1 0 -30 -20 #
model_id-kcp-attrib $-1 -1 $-1 $-1 $467 1 1021382389 1021382390 -1224671231 12 #
face $562 -1 $-1 $382 $501 $9 $-1 $563 reversed single #
loop $-1 -1 $-1 $440 $564 $467 #
plane-surface $-1 -1 $-1 0 0 -20 0 0 1 1 0 0 forward_v I I I I #
coedge $-1 -1 $-1 $538 $522 $519 $565 forward $468 $-1 #
coedge $-1 -1 $-1 $471 $470 $518 $565 reversed $371 $-1 #
edge $-1 -1 $-1 $566 -10 $512 -7.6393202250021019 $470 $567 forward @7 unknown #
straight-curve $-1 -1 $-1 -22.360679774997898 -20 0 0 0 1 I I #
coedge $-1 -1 $-1 $518 $568 $473 $523 reversed $468 $-1 #
edge $569 -1 $-1 $525 -20 $529 20 $522 $570 forward @7 unknown #
attrib_edge_convexity-kcp-attrib $-1 -1 $571 $-1 $474 1 #
vertex $-1 -1 $-1 $523 $572 #
straight-curve $-1 -1 $-1 -30 -20 0 1 0 0 I I #
coedge $-1 -1 $-1 $485 $475 $568 $573 forward $422 $-1 #
attrib_edge_convexity-kcp-attrib $-1 -1 $574 $-1 $476 1 #
vertex $-1 -1 $-1 $523 $575 #
straight-curve $-1 -1 $-1 -30 20 0 -1 0 0 I I #
convexity-sys-attrib $-1 -1 $-1 $477 $428 #
point $-1 -1 $-1 -22.360679774997898 -20 0 #
point $-1 -1 $-1 -22.360679774997898 20 0 #
model_id-kcp-attrib $-1 -1 $-1 $-1 $482 1 1021382389 1021382390 -1224671231 16 #
face $576 -1 $-1 $-1 $495 $9 $-1 $577 reversed single #
plane-surface $-1 -1 $-1 0 -40 0 0 1 0 0 0 1 forward_v I I I I #
coedge $-1 -1 $-1 $543 $542 $578 $579 reversed $483 $-1 #
coedge $-1 -1 $-1 $568 $518 $487 $539 reversed $468 $-1 #
edge $-1 -1 $-1 $540 -20 $566 20 $538 $580 forward @7 unknown #
vertex $-1 -1 $-1 $539 $581 #
straight-curve $-1 -1 $-1 -30 20 -20 1 0 0 I I #
coedge $-1 -1 $-1 $537 $491 $494 $547 forward $483 $-1 #
coedge $-1 -1 $-1 $491 $537 $499 $551 reversed $483 $-1 #
attrib_edge_convexity-kcp-attrib $-1 -1 $582 $-1 $492 1 #
straight-curve $-1 -1 $-1 0 40 20 -1 0 0 I I #
coedge $-1 -1 $-1 $494 $493 $583 $584 reversed $495 $-1 #
edge $585 -1 $-1 $497 -20 $586 20 $494 $587 forward @7 unknown #
convexity-sys-attrib $-1 -1 $-1 $496 $448 #
point $-1 -1 $-1 40 40 20 #
coedge $-1 -1 $-1 $500 $499 $564 $588 reversed $501 $-1 #
edge $589 -1 $-1 $503 -20 $590 20 $543 $591 forward @7 unknown #
convexity-sys-attrib $-1 -1 $-1 $502 $450 #
point $-1 -1 $-1 -40 40 20 #
coedge $-1 -1 $-1 $564 $583 $505 $555 forward $516 $-1 #
edge $-1 -1 $-1 $559 -40 $557 40 $505 $592 forward @7 unknown #
attrib_edge_convexity-kcp-attrib $-1 -1 $593 $-1 $506 1 #
vertex $-1 -1 $-1 $588 $594 #
straight-curve $-1 -1 $-1 -40 -40 0 0 0 -1 I I #
vertex $-1 -1 $-1 $507 $595 #
straight-curve $-1 -1 $-1 40 -40 0 0 0 -1 I I #
point $-1 -1 $-1 -22.360679774997898 -20 -20 #
model_id-kcp-attrib $-1 -1 $-1 $-1 $515 1 1021382389 1021382390 -1224671231 13 #
plane-surface $-1 -1 $-1 -40 0 0 1 0 0 0 0 -1 forward_v I I I I #
coedge $-1 -1 $-1 $578 $554 $550 $588 forward $516 $-1 #
edge $-1 -1 $-1 $525 -10 $566 10 $518 $596 forward @7 unknown #
vertex $-1 -1 $-1 $565 $597 #
straight-curve $-1 -1 $-1 -30 -20 -20 -1 0 0 I I #
coedge $-1 -1 $-1 $522 $538 $527 $573 reversed $468 $-1 #
attrib_edge_convexity-kcp-attrib $-1 -1 $598 $-1 $523 1 #
straight-curve $-1 -1 $-1 -20 0 0 0 1 0 I I #
convexity-sys-attrib $-1 -1 $-1 $524 $474 #
point $-1 -1 $-1 -20 -20 0 #
edge $-1 -1 $-1 $529 -10 $540 10 $568 $599 forward @7 unknown #
convexity-sys-attrib $-1 -1 $-1 $528 $476 #
point $-1 -1 $-1 -20 20 0 #
model_id-kcp-attrib $-1 -1 $-1 $-1 $535 1 1021382389 1021382390 -1224671231 17 #
plane-surface $-1 -1 $-1 40 0 0 -1 0 0 0 0 1 forward_v I I I I #
coedge $-1 -1 $-1 $583 $564 $537 $579 forward $516 $-1 #
edge $600 -1 $-1 $590 -40 $586 40 $537 $601 forward @7 unknown #
straight-curve $-1 -1 $-1 -20 0 -20 0 -1 0 I I #
point $-1 -1 $-1 -20 20 -20 #
convexity-sys-attrib $-1 -1 $-1 $544 $492 #
coedge $-1 -1 $-1 $554 $578 $546 $584 forward $516 $-1 #
edge $-1 -1 $-1 $586 -40 $559 40 $546 $602 forward @7 unknown #
attrib_edge_convexity-kcp-attrib $-1 -1 $603 $-1 $547 1 #
vertex $-1 -1 $-1 $584 $604 #
straight-curve $-1 -1 $-1 40 40 0 0 0 -1 I I #
edge $605 -1 $-1 $557 -40 $590 40 $550 $606 forward @7 unknown #
attrib_edge_convexity-kcp-attrib $-1 -1 $607 $-1 $551 1 #
vertex $-1 -1 $-1 $579 $608 #
straight-curve $-1 -1 $-1 -40 40 0 0 0 -1 I I #
straight-curve $-1 -1 $-1 0 -40 -20 -1 0 0 I I #
convexity-sys-attrib $-1 -1 $-1 $556 $506 #
point $-1 -1 $-1 -40 -40 -20 #
point $-1 -1 $-1 40 -40 -20 #
straight-curve $-1 -1 $-1 -20 -20 -10 0 0 -1 I I #
point $-1 -1 $-1 -20 -20 -20 #
convexity-sys-attrib $-1 -1 $-1 $569 $523 #
straight-curve $-1 -1 $-1 -20 20 -10 0 0 -1 I I #
attrib_edge_convexity-kcp-attrib $-1 -1 $609 $-1 $579 1 #
straight-curve $-1 -1 $-1 0 40 -20 1 0 0 I I #
straight-curve $-1 -1 $-1 40 0 -20 0 -1 0 I I #
convexity-sys-attrib $-1 -1 $-1 $585 $547 #
point $-1 -1 $-1 40 40 -20 #
attrib_edge_convexity-kcp-attrib $-1 -1 $610 $-1 $588 1 #
straight-curve $-1 -1 $-1 -40 0 -20 0 1 0 I I #
convexity-sys-attrib $-1 -1 $-1 $589 $551 #
point $-1 -1 $-1 -40 40 -20 #
convexity-sys-attrib $-1 -1 $-1 $600 $579 #
convexity-sys-attrib $-1 -1 $-1 $605 $588 #
End-of-ACIS-data 