106 0 1 0           
body $-1 $1 $-1 $-1 #
lump $-1 $-1 $2 $0 #
shell $-1 $-1 $-1 $3 $1 #
face $-1 $4 $5 $2 $-1 $6 reversed single #
face $-1 $7 $8 $2 $-1 $9 reversed single #
loop $-1 $-1 $10 $3 #
plane-surface $-1 20 0 -5 1 0 0 0 0 -1 0 I I I I #
face $-1 $11 $12 $2 $-1 $13 forward single #
loop $-1 $-1 $14 $4 #
plane-surface $-1 30 -10 -5 0 1 0 0 0 1 0 I I I I #
coedge $-1 $15 $16 $17 $18 1 $5 $-1 #
face $-1 $19 $20 $2 $-1 $21 reversed single #
loop $-1 $-1 $22 $7 #
plane-surface $-1 30 0 10 0 0 1 1 0 0 0 I I I I #
coedge $-1 $23 $24 $25 $26 1 $8 $-1 #
coedge $-1 $27 $10 $24 $28 1 $5 $-1 #
coedge $-1 $10 $27 $29 $30 0 $5 $-1 #
coedge $-1 $31 $25 $10 $18 0 $32 $-1 #
edge $-1 $33 $34 $17 $35 0 #
face $-1 $36 $37 $2 $-1 $38 reversed single #
loop $-1 $-1 $39 $11 #
plane-surface $-1 30 10 -5 0 -1 0 0 0 -1 0 I I I I #
coedge $-1 $40 $41 $42 $43 0 $12 $-1 #
coedge $-1 $44 $14 $45 $46 1 $8 $-1 #
coedge $-1 $14 $44 $15 $28 0 $8 $-1 #
coedge $-1 $17 $47 $14 $26 0 $32 $-1 #
edge $-1 $48 $33 $25 $49 0 #
coedge $-1 $16 $15 $50 $51 1 $5 $-1 #
edge $-1 $52 $33 $15 $53 0 #
coedge $-1 $54 $39 $16 $30 1 $20 $-1 #
edge $-1 $55 $34 $29 $56 0 #
coedge $-1 $57 $17 $39 $58 0 $32 $-1 #
loop $-1 $-1 $31 $36 #
vertex $-1 $26 $59 #
vertex $-1 $18 $60 #
straight-curve $-1 20 0 0 0 1 0 I I #
face $-1 $61 $32 $2 $-1 $62 forward single #
loop $-1 $-1 $63 $19 #
plane-surface $-1 0 0 -20 0 0 1 1 0 0 0 I I I I #
coedge $-1 $29 $64 $31 $58 1 $20 $-1 #
coedge $-1 $50 $22 $54 $65 0 $12 $-1 #
coedge $-1 $22 $50 $44 $66 0 $12 $-1 #
coedge $-1 $45 $67 $22 $43 1 $68 $-1 #
edge $-1 $69 $70 $42 $71 0 #
coedge $-1 $24 $23 $41 $66 1 $8 $-1 #
coedge $-1 $72 $42 $23 $46 0 $68 $-1 #
edge $-1 $69 $48 $45 $73 0 #
coedge $-1 $25 $74 $72 $75 1 $32 $-1 #
vertex $-1 $75 $76 #
straight-curve $-1 25 -10 0 -1 0 0 I I #
coedge $-1 $41 $40 $27 $51 0 $12 $-1 #
edge $-1 $55 $52 $27 $77 0 #
vertex $-1 $51 $78 #
straight-curve $-1 20 -10 -5 0 0 -1 I I #
coedge $-1 $64 $29 $40 $65 1 $20 $-1 #
vertex $-1 $65 $79 #
straight-curve $-1 20 10 -5 0 0 -1 I I #
coedge $-1 $80 $31 $81 $82 1 $32 $-1 #
edge $-1 $34 $83 $31 $84 0 #
point $-1 20 -10 0 #
point $-1 20 10 0 #
face $-1 $85 $86 $2 $-1 $87 forward single #
plane-surface $-1 20 0 0 0 0 1 1 0 0 0 I I I I #
coedge $-1 $88 $89 $90 $91 0 $37 $-1 #
coedge $-1 $39 $54 $67 $92 0 $20 $-1 #
edge $-1 $70 $55 $54 $93 0 #
edge $-1 $52 $69 $44 $94 0 #
coedge $-1 $42 $81 $64 $92 1 $68 $-1 #
loop $-1 $-1 $90 $95 #
vertex $-1 $43 $96 #
vertex $-1 $43 $97 #
straight-curve $-1 40 0 10 0 1 0 I I #
coedge $-1 $98 $45 $47 $75 0 $68 $-1 #
straight-curve $-1 40 -10 -5 0 0 -1 I I #
coedge $-1 $47 $99 $100 $101 1 $32 $-1 #
edge $-1 $48 $102 $72 $103 0 #
point $-1 40 -10 0 #
straight-curve $-1 20 0 10 0 -1 0 I I #
point $-1 20 -10 10 #
point $-1 20 10 10 #
coedge $-1 $99 $57 $104 $105 1 $32 $-1 #
coedge $-1 $67 $106 $57 $82 0 $68 $-1 #
edge $-1 $107 $83 $81 $103 0 #
vertex $-1 $82 $108 #
straight-curve $-1 25 10 0 1 0 0 I I #
face $-1 $109 $110 $2 $-1 $111 forward single #
loop $-1 $-1 $112 $61 #
plane-surface $-1 20 -20 10 0 1 0 0 0 1 0 I I I I #
coedge $-1 $113 $63 $114 $115 0 $37 $-1 #
coedge $-1 $63 $113 $116 $117 0 $37 $-1 #
coedge $-1 $118 $119 $63 $91 1 $68 $-1 #
edge $-1 $120 $121 $90 $122 0 #
edge $-1 $70 $83 $67 $123 0 #
straight-curve $-1 30 10 10 -1 0 0 I I #
straight-curve $-1 30 -10 10 1 0 0 I I #
face $-1 $-1 $68 $2 $-1 $124 reversed single #
point $-1 40 -10 10 #
point $-1 40 10 10 #
coedge $-1 $125 $72 $126 $127 0 $68 $-1 #
coedge $-1 $74 $80 $128 $129 1 $32 $-1 #
coedge $-1 $112 $126 $74 $101 0 $86 $-1 #
edge $-1 $102 $130 $100 $131 0 #
vertex $-1 $75 $132 #
straight-curve $-1 40 0 0 0 -1 0 I I #
coedge $-1 $133 $134 $80 $105 0 $135 $-1 #
edge $-1 $136 $107 $104 $137 0 #
coedge $-1 $81 $138 $133 $139 0 $68 $-1 #
vertex $-1 $82 $140 #
point $-1 40 10 0 #
face $-1 $141 $135 $2 $-1 $142 forward single #
loop $-1 $-1 $143 $85 #
plane-surface $-1 0 0 10 1 0 0 0 0 -1 0 I I I I #
coedge $-1 $144 $100 $145 $146 1 $86 $-1 #
coedge $-1 $89 $88 $147 $148 0 $37 $-1 #
coedge $-1 $149 $150 $88 $115 1 $151 $-1 #
edge $-1 $121 $152 $114 $153 0 #
coedge $-1 $154 $155 $89 $117 1 $156 $-1 #
edge $-1 $157 $120 $116 $158 0 #
coedge $-1 $138 $90 $155 $159 1 $68 $-1 #
coedge $-1 $90 $125 $149 $160 0 $68 $-1 #
vertex $-1 $91 $161 #
vertex $-1 $160 $162 #
straight-curve $-1 40 0 -20 0 -1 0 I I #
straight-curve $-1 40 10 -5 0 0 -1 I I #
plane-surface $-1 40 0 0 -1 0 0 0 0 1 0 I I I I #
coedge $-1 $119 $98 $163 $164 1 $68 $-1 #
coedge $-1 $100 $144 $98 $127 1 $86 $-1 #
edge $-1 $102 $165 $98 $166 0 #
coedge $-1 $143 $145 $99 $129 0 $110 $-1 #
edge $-1 $130 $136 $128 $167 0 #
vertex $-1 $129 $168 #
straight-curve $-1 20 -20 0 -1 0 0 I I #
point $-1 40 -20 0 #
coedge $-1 $169 $104 $106 $139 1 $135 $-1 #
coedge $-1 $104 $169 $143 $170 0 $135 $-1 #
loop $-1 $-1 $133 $109 #
vertex $-1 $105 $171 #
straight-curve $-1 20 20 0 1 0 0 I I #
coedge $-1 $106 $118 $172 $173 1 $68 $-1 #
edge $-1 $174 $107 $106 $175 0 #
point $-1 40 20 0 #
face $-1 $176 $177 $2 $-1 $178 forward single #
plane-surface $-1 20 20 10 0 -1 0 0 0 -1 0 I I I I #
coedge $-1 $179 $128 $134 $170 1 $110 $-1 #
coedge $-1 $126 $112 $180 $181 1 $86 $-1 #
coedge $-1 $128 $179 $112 $146 0 $110 $-1 #
edge $-1 $182 $130 $145 $183 0 #
coedge $-1 $184 $185 $113 $148 1 $186 $-1 #
edge $-1 $152 $157 $147 $187 0 #
coedge $-1 $188 $114 $119 $160 1 $151 $-1 #
coedge $-1 $114 $188 $184 $189 0 $151 $-1 #
loop $-1 $-1 $150 $176 #
vertex $-1 $148 $190 #
straight-curve $-1 0 -40 -20 -1 0 0 I I #
coedge $-1 $191 $116 $185 $192 1 $156 $-1 #
coedge $-1 $116 $191 $118 $159 0 $156 $-1 #
loop $-1 $-1 $155 $193 #
vertex $-1 $117 $194 #
straight-curve $-1 0 40 -20 1 0 0 I I #
edge $-1 $195 $120 $118 $196 0 #
edge $-1 $197 $121 $119 $198 0 #
point $-1 40 40 -20 #
point $-1 40 -40 -20 #
coedge $-1 $180 $199 $125 $164 0 $177 $-1 #
edge $-1 $197 $165 $125 $200 0 #
vertex $-1 $164 $201 #
straight-curve $-1 40 -20 5 0 0 1 I I #
straight-curve $-1 0 0 0 0 1 0 I I #
point $-1 0 -20 0 #
coedge $-1 $134 $133 $202 $203 1 $135 $-1 #
edge $-1 $204 $136 $134 $205 0 #
point $-1 0 20 0 #
coedge $-1 $206 $202 $138 $173 0 $177 $-1 #
edge $-1 $174 $195 $138 $200 0 #
vertex $-1 $139 $207 #
straight-curve $-1 40 20 5 0 0 -1 I I #
face $-1 $208 $151 $2 $-1 $209 reversed single #
loop $-1 $-1 $180 $141 #
plane-surface $-1 0 0 20 0 0 1 1 0 0 0 I I I I #
coedge $-1 $145 $143 $210 $211 1 $110 $-1 #
coedge $-1 $210 $163 $144 $181 0 $177 $-1 #
edge $-1 $165 $182 $180 $212 0 #
vertex $-1 $181 $213 #
straight-curve $-1 0 -20 10 0 0 -1 I I #
coedge $-1 $214 $147 $150 $189 1 $186 $-1 #
coedge $-1 $147 $214 $154 $192 0 $186 $-1 #
loop $-1 $-1 $185 $208 #
straight-curve $-1 -40 0 -20 0 1 0 I I #
coedge $-1 $150 $149 $199 $215 1 $151 $-1 #
edge $-1 $216 $152 $184 $217 0 #
point $-1 -40 -40 -20 #
coedge $-1 $155 $154 $206 $218 1 $156 $-1 #
edge $-1 $219 $157 $154 $220 0 #
face $-1 $95 $156 $2 $-1 $221 reversed single #
point $-1 -40 40 -20 #
vertex $-1 $173 $222 #
straight-curve $-1 40 40 0 0 0 -1 I I #
vertex $-1 $164 $223 #
straight-curve $-1 40 -40 0 0 0 -1 I I #
coedge $-1 $163 $224 $188 $215 0 $177 $-1 #
straight-curve $-1 40 0 20 0 1 0 I I #
point $-1 40 -20 20 #
coedge $-1 $172 $210 $169 $203 0 $177 $-1 #
edge $-1 $204 $174 $202 $225 0 #
vertex $-1 $211 $226 #
straight-curve $-1 0 20 10 0 0 -1 I I #
coedge $-1 $224 $172 $191 $218 0 $177 $-1 #
point $-1 40 20 20 #
face $-1 $193 $186 $2 $-1 $227 reversed single #
plane-surface $-1 0 -40 0 0 1 0 0 0 1 0 I I I I #
coedge $-1 $202 $180 $179 $211 0 $177 $-1 #
edge $-1 $182 $204 $210 $228 0 #
straight-curve $-1 10 -20 20 -1 0 0 I I #
point $-1 0 -20 20 #
coedge $-1 $185 $184 $224 $229 1 $186 $-1 #
edge $-1 $216 $197 $188 $230 0 #
vertex $-1 $229 $231 #
straight-curve $-1 -40 -40 0 0 0 -1 I I #
edge $-1 $195 $219 $191 $232 0 #
vertex $-1 $218 $233 #
straight-curve $-1 -40 40 0 0 0 -1 I I #
plane-surface $-1 0 40 0 0 -1 0 0 0 -1 0 I I I I #
point $-1 40 40 20 #
point $-1 40 -40 20 #
coedge $-1 $199 $206 $214 $229 0 $177 $-1 #
straight-curve $-1 10 20 20 1 0 0 I I #
point $-1 0 20 20 #
plane-surface $-1 -40 0 0 1 0 0 0 0 -1 0 I I I I #
straight-curve $-1 0 0 20 0 1 0 I I #
edge $-1 $219 $216 $214 $234 0 #
straight-curve $-1 0 -40 20 1 0 0 I I #
point $-1 -40 -40 20 #
straight-curve $-1 0 40 20 -1 0 0 I I #
point $-1 -40 40 20 #
straight-curve $-1 -40 0 20 0 -1 0 I I #
End-of-ACIS-data 