600 0 2 0           
24 FBMach with ACIS - 6.0.3 13 ACIS 6.0.3 NT 24 Wed May 23 20:18:39 2001 
1 9.9999999999999995e-007 1e-010 
body $2 $3 $-1 $4 #
bdycol-kcp $-1 1 3 $5 $6 $7 #
model_id-kcp-attrib $-1 $-1 $-1 $0 1 990663519 70 -481951743 1 #
lump $-1 $-1 $8 $0 #
transform $-1 1 0 0 0 1 0 0 0 1 0 0 0 1 no_rotate no_reflect no_shear #
body $9 $10 $-1 $11 #
body $12 $13 $-1 $14 #
body $15 $16 $-1 $17 #
shell $-1 $-1 $-1 $18 $-1 $3 #
model_id-kcp-attrib $-1 $-1 $-1 $5 1 990663519 70 -481951742 1 #
lump $-1 $-1 $19 $5 #
transform $-1 1 0 0 0 1 0 0 0 1 0 0 0 1 no_rotate no_reflect no_shear #
rgb_color-st-attrib $-1 $20 $-1 $6 0.59999999999999998 0.90000000000000002 1 #
lump $-1 $-1 $21 $6 #
transform $-1 1 0 0 0 1 0 0 0 1 0 0 0 1 no_rotate no_reflect no_shear #
rgb_color-st-attrib $-1 $22 $-1 $7 1 0 0 #
lump $-1 $-1 $23 $7 #
transform $-1 1 0 0 0 1 0 0 0 1 0 0 0 1 no_rotate no_reflect no_shear #
face $24 $25 $26 $8 $-1 $27 reversed single #
shell $-1 $-1 $-1 $28 $-1 $10 #
model_id-kcp-attrib $-1 $-1 $12 $6 1 990663519 380 -478412797 1 #
shell $-1 $-1 $-1 $29 $-1 $13 #
model_id-kcp-attrib $-1 $-1 $15 $7 1 990663519 490 -471203836 1 #
shell $-1 $-1 $-1 $30 $-1 $16 #
model_id-kcp-attrib $-1 $-1 $-1 $18 1 990663519 70 -481951743 2 #
face $31 $32 $33 $8 $-1 $34 reversed single #
loop $-1 $-1 $35 $18 #
plane-surface $-1 20 0 -5 1 0 0 0 0 -1 forward_v I I I I #
face $36 $37 $38 $19 $-1 $39 forward single #
face $-1 $40 $41 $21 $-1 $42 forward single #
face $-1 $43 $44 $23 $-1 $45 forward single #
model_id-kcp-attrib $-1 $-1 $-1 $25 1 990663519 70 -481951743 3 #
face $46 $47 $48 $8 $-1 $49 forward single #
loop $-1 $-1 $50 $25 #
plane-surface $-1 30 -10 -5 0 1 0 0 0 1 forward_v I I I I #
coedge $-1 $51 $52 $53 $54 reversed $26 $-1 #
model_id-kcp-attrib $-1 $-1 $-1 $28 1 990663519 70 -481951742 3 #
face $55 $56 $57 $19 $-1 $58 reversed single #
loop $-1 $-1 $59 $28 #
plane-surface $-1 0 0 20 0 0 1 1 0 0 forward_v I I I I #
face $-1 $60 $61 $21 $-1 $62 forward single #
loop $-1 $-1 $63 $29 #
plane-surface $-1 40 -10 0 1 0 0 0 0 -1 forward_v I I I I #
face $-1 $64 $65 $23 $-1 $66 forward single #
loop $-1 $-1 $67 $30 #
plane-surface $-1 0 -20 10 -1 0 0 0 0 1 forward_v I I I I #
model_id-kcp-attrib $-1 $-1 $-1 $32 1 990663519 70 -481951743 4 #
face $68 $69 $70 $8 $-1 $71 reversed single #
loop $-1 $-1 $72 $32 #
plane-surface $-1 30 0 10 0 0 1 1 0 0 forward_v I I I I #
coedge $-1 $73 $74 $75 $76 reversed $33 $-1 #
coedge $-1 $77 $35 $74 $78 reversed $26 $-1 #
coedge $-1 $35 $77 $79 $80 forward $26 $-1 #
coedge $-1 $81 $75 $35 $54 forward $82 $-1 #
edge $-1 $83 -10 $84 10 $53 $85 forward 7 unknown #
model_id-kcp-attrib $-1 $-1 $-1 $37 1 990663519 70 -481951742 2 #
face $86 $87 $88 $19 $-1 $89 reversed single #
loop $-1 $-1 $90 $37 #
plane-surface $-1 0 0 -20 0 0 1 1 0 0 forward_v I I I I #
coedge $-1 $91 $92 $93 $94 forward $38 $-1 #
face $-1 $95 $96 $21 $-1 $97 forward single #
loop $-1 $-1 $98 $40 #
plane-surface $-1 40 -20 0 0 -1 0 0 0 -1 forward_v I I I I #
coedge $-1 $99 $100 $101 $102 forward $41 $-1 #
face $-1 $103 $104 $23 $-1 $105 forward single #
loop $-1 $-1 $106 $43 #
plane-surface $-1 0 20 10 0 1 0 0 0 1 forward_v I I I I #
coedge $-1 $107 $108 $109 $110 forward $44 $-1 #
model_id-kcp-attrib $-1 $-1 $-1 $47 1 990663519 70 -481951743 5 #
face $111 $112 $113 $8 $-1 $114 reversed single #
loop $-1 $-1 $115 $47 #
plane-surface $-1 30 10 -5 0 -1 0 0 0 -1 forward_v I I I I #
coedge $-1 $116 $117 $118 $119 forward $48 $-1 #
coedge $-1 $120 $50 $121 $122 reversed $33 $-1 #
coedge $-1 $50 $120 $51 $78 forward $33 $-1 #
coedge $-1 $53 $123 $50 $76 forward $82 $-1 #
edge $-1 $124 -15 $83 5 $75 $125 forward 7 unknown #
coedge $-1 $52 $51 $126 $127 reversed $26 $-1 #
edge $-1 $128 -15 $83 -5 $51 $129 forward 7 unknown #
coedge $-1 $130 $115 $52 $80 reversed $70 $-1 #
edge $-1 $131 -15 $84 -5 $79 $132 forward 7 unknown #
coedge $-1 $133 $53 $115 $134 forward $82 $-1 #
loop $-1 $-1 $81 $112 #
vertex $-1 $76 $135 #
vertex $-1 $54 $136 #
straight-curve $-1 20 0 0 0 1 0 I I #
model_id-kcp-attrib $-1 $-1 $-1 $56 1 990663519 70 -481951742 4 #
face $137 $138 $139 $19 $-1 $140 reversed single #
loop $-1 $-1 $141 $56 #
plane-surface $-1 0 -40 0 0 1 0 0 0 1 forward_v I I I I #
coedge $-1 $142 $143 $144 $145 forward $57 $-1 #
coedge $-1 $146 $59 $147 $148 forward $38 $-1 #
coedge $-1 $59 $146 $149 $150 forward $38 $-1 #
coedge $-1 $151 $152 $59 $94 reversed $153 $-1 #
edge $-1 $154 -40 $155 40 $93 $156 forward 7 unknown #
face $-1 $157 $158 $21 $-1 $159 forward single #
loop $-1 $-1 $160 $60 #
plane-surface $-1 0 -20 0 -1 0 0 0 0 1 forward_v I I I I #
coedge $-1 $161 $162 $163 $164 forward $61 $-1 #
coedge $-1 $165 $63 $162 $166 reversed $41 $-1 #
coedge $-1 $63 $165 $167 $168 forward $41 $-1 #
coedge $-1 $169 $163 $63 $102 reversed $170 $-1 #
edge $-1 $171 10 $172 20 $63 $173 forward 7 unknown #
face $-1 $174 $175 $23 $-1 $176 forward single #
loop $-1 $-1 $177 $64 #
plane-surface $-1 40 20 10 1 0 0 0 0 -1 forward_v I I I I #
coedge $-1 $178 $179 $180 $181 forward $65 $-1 #
coedge $-1 $182 $67 $179 $183 reversed $44 $-1 #
coedge $-1 $67 $182 $184 $185 forward $44 $-1 #
coedge $-1 $186 $180 $67 $110 reversed $187 $-1 #
edge $-1 $188 -20 $189 20 $67 $190 forward 7 unknown #
model_id-kcp-attrib $-1 $-1 $-1 $69 1 990663519 70 -481951743 6 #
face $191 $192 $82 $8 $-1 $193 forward single #
loop $-1 $-1 $194 $69 #
plane-surface $-1 0 0 -20 0 0 1 1 0 0 forward_v I I I I #
coedge $-1 $79 $195 $81 $134 reversed $70 $-1 #
coedge $-1 $126 $72 $130 $196 forward $48 $-1 #
coedge $-1 $72 $126 $120 $197 forward $48 $-1 #
coedge $-1 $121 $198 $72 $119 reversed $199 $-1 #
edge $-1 $200 -10 $201 10 $118 $202 forward 7 unknown #
coedge $-1 $74 $73 $117 $197 reversed $33 $-1 #
coedge $-1 $203 $118 $73 $122 forward $199 $-1 #
edge $-1 $200 -15 $124 -5 $121 $204 forward 7 unknown #
coedge $-1 $75 $205 $203 $206 reversed $82 $-1 #
vertex $-1 $206 $207 #
straight-curve $-1 25 -10 0 -1 0 0 I I #
coedge $-1 $117 $116 $77 $127 forward $48 $-1 #
edge $-1 $131 -10 $128 10 $77 $208 forward 7 unknown #
vertex $-1 $127 $209 #
straight-curve $-1 20 -10 -5 0 0 -1 I I #
coedge $-1 $195 $79 $116 $196 reversed $70 $-1 #
vertex $-1 $196 $210 #
straight-curve $-1 20 10 -5 0 0 -1 I I #
coedge $-1 $211 $81 $212 $213 reversed $82 $-1 #
edge $-1 $84 -5 $214 15 $81 $215 forward 7 unknown #
point $-1 20 -10 0 #
point $-1 20 10 0 #
model_id-kcp-attrib $-1 $-1 $-1 $87 1 990663519 70 -481951742 5 #
face $216 $217 $218 $19 $-1 $219 reversed single #
loop $-1 $-1 $220 $87 #
plane-surface $-1 -40 0 0 1 0 0 0 0 -1 forward_v I I I I #
coedge $-1 $221 $149 $222 $223 forward $88 $-1 #
coedge $-1 $224 $90 $221 $225 forward $57 $-1 #
coedge $-1 $90 $224 $226 $227 forward $57 $-1 #
coedge $-1 $152 $151 $90 $145 reversed $153 $-1 #
edge $-1 $228 -40 $229 40 $144 $230 forward 7 unknown #
coedge $-1 $92 $91 $231 $232 forward $38 $-1 #
coedge $-1 $233 $234 $91 $148 reversed $218 $-1 #
edge $-1 $155 -40 $235 40 $147 $236 forward 7 unknown #
coedge $-1 $141 $237 $92 $150 reversed $88 $-1 #
edge $-1 $238 -40 $154 40 $149 $239 forward 7 unknown #
coedge $-1 $144 $93 $237 $240 forward $153 $-1 #
coedge $-1 $93 $144 $233 $241 reversed $153 $-1 #
loop $-1 $-1 $151 $217 #
vertex $-1 $94 $242 #
vertex $-1 $94 $243 #
straight-curve $-1 40 0 20 0 1 0 I I #
face $-1 $244 $245 $21 $-1 $246 forward single #
loop $-1 $-1 $247 $95 #
plane-surface $-1 0 20 0 0 1 0 0 0 1 forward_v I I I I #
coedge $-1 $248 $249 $250 $251 forward $96 $-1 #
coedge $-1 $252 $98 $249 $253 reversed $61 $-1 #
coedge $-1 $98 $252 $99 $166 forward $61 $-1 #
coedge $-1 $101 $250 $98 $164 reversed $170 $-1 #
edge $-1 $172 -20 $254 20 $98 $255 forward 7 unknown #
coedge $-1 $100 $99 $256 $257 reversed $41 $-1 #
edge $-1 $258 0 $172 10 $162 $259 forward 7 unknown #
coedge $-1 $260 $261 $100 $168 reversed $262 $-1 #
edge $-1 $263 0 $171 10 $100 $264 forward 7 unknown #
coedge $-1 $265 $101 $261 $266 reversed $170 $-1 #
loop $-1 $-1 $101 $267 #
vertex $-1 $168 $268 #
vertex $-1 $166 $269 #
straight-curve $-1 40 0 10 0 -1 0 I I #
face $-1 $270 $187 $23 $-1 $271 forward single #
loop $-1 $-1 $272 $103 #
plane-surface $-1 40 -20 10 0 -1 0 0 0 -1 forward_v I I I I #
coedge $-1 $273 $274 $275 $276 forward $104 $-1 #
coedge $-1 $277 $106 $274 $278 reversed $65 $-1 #
coedge $-1 $106 $277 $107 $183 forward $65 $-1 #
coedge $-1 $109 $275 $106 $181 reversed $187 $-1 #
edge $-1 $189 -20 $279 20 $106 $280 forward 7 unknown #
coedge $-1 $108 $107 $281 $282 reversed $44 $-1 #
edge $283 $284 0 $189 10 $179 $285 forward 7 unknown #
coedge $-1 $286 $272 $108 $185 reversed $175 $-1 #
edge $287 $288 0 $188 10 $108 $289 forward 7 unknown #
coedge $-1 $275 $109 $272 $290 reversed $187 $-1 #
loop $-1 $-1 $109 $174 #
vertex $-1 $185 $291 #
vertex $-1 $183 $292 #
straight-curve $-1 0 0 20 0 1 0 I I #
model_id-kcp-attrib $-1 $-1 $-1 $112 1 990663519 70 -481951743 7 #
face $293 $294 $295 $8 $-1 $296 forward single #
plane-surface $-1 20 0 0 0 0 1 1 0 0 forward_v I I I I #
coedge $-1 $297 $298 $299 $300 forward $113 $-1 #
coedge $-1 $115 $130 $198 $301 forward $70 $-1 #
edge $-1 $201 -10 $131 10 $130 $302 forward 7 unknown #
edge $-1 $128 -10 $200 10 $120 $303 forward 7 unknown #
coedge $-1 $118 $212 $195 $301 reversed $199 $-1 #
loop $-1 $-1 $299 $304 #
vertex $-1 $119 $305 #
vertex $-1 $119 $306 #
straight-curve $-1 40 0 10 0 1 0 I I #
coedge $-1 $307 $121 $123 $206 forward $199 $-1 #
straight-curve $-1 40 -10 -5 0 0 -1 I I #
coedge $-1 $123 $308 $309 $310 reversed $82 $-1 #
edge $-1 $124 10 $311 20 $203 $312 forward 7 unknown #
point $-1 40 -10 0 #
straight-curve $-1 20 0 10 0 -1 0 I I #
point $-1 20 -10 10 #
point $-1 20 10 10 #
coedge $-1 $308 $133 $313 $314 reversed $82 $-1 #
coedge $-1 $198 $315 $133 $213 forward $199 $-1 #
edge $-1 $316 -20 $214 -10 $212 $312 forward 7 unknown #
vertex $-1 $213 $317 #
straight-curve $-1 25 10 0 1 0 0 I I #
model_id-kcp-attrib $-1 $-1 $-1 $138 1 990663519 70 -481951742 6 #
face $318 $-1 $153 $19 $-1 $319 reversed single #
loop $-1 $-1 $233 $138 #
plane-surface $-1 0 40 0 0 -1 0 0 0 -1 forward_v I I I I #
coedge $-1 $320 $231 $234 $321 forward $139 $-1 #
coedge $-1 $237 $141 $142 $225 reversed $88 $-1 #
coedge $-1 $231 $320 $141 $223 reversed $139 $-1 #
edge $-1 $238 -20 $322 20 $222 $323 forward 7 unknown #
coedge $-1 $143 $142 $320 $324 forward $57 $-1 #
edge $-1 $229 -40 $322 40 $221 $325 forward 7 unknown #
coedge $-1 $234 $233 $143 $227 reversed $218 $-1 #
edge $-1 $326 -40 $228 40 $226 $327 forward 7 unknown #
vertex $-1 $145 $328 #
vertex $-1 $240 $329 #
straight-curve $-1 40 0 -20 0 -1 0 I I #
coedge $-1 $220 $222 $146 $232 reversed $139 $-1 #
edge $-1 $235 -40 $238 40 $231 $330 forward 7 unknown #
coedge $-1 $226 $147 $152 $241 forward $218 $-1 #
coedge $-1 $147 $226 $220 $321 reversed $218 $-1 #
vertex $-1 $148 $331 #
straight-curve $-1 0 40 20 -1 0 0 I I #
coedge $-1 $149 $221 $151 $240 reversed $88 $-1 #
vertex $-1 $232 $332 #
straight-curve $-1 0 -40 20 1 0 0 I I #
edge $-1 $154 -20 $229 20 $151 $333 forward 7 unknown #
edge $-1 $155 -20 $228 20 $152 $334 forward 7 unknown #
point $-1 40 -40 20 #
point $-1 40 40 20 #
face $-1 $335 $336 $21 $-1 $337 forward single #
loop $-1 $-1 $338 $157 #
plane-surface $-1 40 20 0 1 0 0 0 0 -1 forward_v I I I I #
coedge $-1 $339 $340 $341 $342 forward $158 $-1 #
coedge $-1 $343 $160 $340 $344 reversed $96 $-1 #
coedge $-1 $160 $343 $161 $253 forward $96 $-1 #
coedge $-1 $163 $341 $160 $251 reversed $170 $-1 #
edge $-1 $254 -20 $345 20 $160 $346 forward 7 unknown #
coedge $-1 $162 $161 $347 $348 reversed $61 $-1 #
edge $349 $350 0 $254 10 $249 $351 forward 7 unknown #
vertex $-1 $253 $352 #
straight-curve $-1 20 -20 10 -1 0 0 I I #
coedge $-1 $347 $353 $165 $257 forward $354 $-1 #
edge $355 $263 10 $258 20 $165 $356 forward 7 unknown #
vertex $-1 $257 $357 #
straight-curve $-1 40 -20 0 0 0 1 I I #
coedge $-1 $358 $167 $353 $359 reversed $262 $-1 #
coedge $-1 $167 $358 $169 $266 forward $262 $-1 #
loop $-1 $-1 $261 $360 #
vertex $-1 $359 $361 #
straight-curve $-1 40 -10 0 0 0 1 I I #
coedge $-1 $362 $169 $363 $364 reversed $170 $-1 #
edge $-1 $365 -5 $171 15 $261 $366 forward 7 unknown #
face $-1 $367 $170 $21 $-1 $368 forward single #
point $-1 40 -10 10 #
point $-1 40 -20 10 #
face $-1 $-1 $369 $23 $-1 $370 reversed single #
plane-surface $-1 20 0 20 0 0 1 1 0 0 forward_v I I I I #
coedge $-1 $184 $371 $186 $290 forward $175 $-1 #
coedge $-1 $372 $177 $371 $373 reversed $104 $-1 #
coedge $-1 $177 $372 $178 $278 forward $104 $-1 #
coedge $-1 $180 $186 $177 $276 reversed $187 $-1 #
edge $-1 $279 -20 $374 20 $177 $375 forward 7 unknown #
coedge $-1 $179 $178 $376 $377 reversed $65 $-1 #
edge $-1 $378 0 $279 10 $274 $379 forward 7 unknown #
vertex $-1 $278 $380 #
straight-curve $-1 20 20 20 1 0 0 I I #
coedge $-1 $376 $381 $182 $282 forward $369 $-1 #
edge $382 $288 -20 $284 20 $182 $383 forward 7 unknown #
convexity-sys-attrib $-1 $-1 $-1 $183 #
vertex $-1 $282 $384 #
straight-curve $-1 0 20 10 0 0 1 I I #
coedge $-1 $371 $184 $381 $385 reversed $175 $-1 #
convexity-sys-attrib $-1 $-1 $-1 $185 #
vertex $-1 $385 $386 #
straight-curve $-1 0 -20 10 0 0 1 I I #
edge $-1 $374 -20 $188 20 $272 $387 forward 7 unknown #
point $-1 0 -20 20 #
point $-1 0 20 20 #
model_id-kcp-attrib $-1 $-1 $-1 $192 1 990663519 70 -481951743 8 #
face $388 $389 $390 $8 $-1 $391 forward single #
loop $-1 $-1 $392 $192 #
plane-surface $-1 20 -20 10 0 1 0 0 0 1 forward_v I I I I #
coedge $-1 $393 $194 $394 $395 forward $113 $-1 #
coedge $-1 $194 $393 $396 $397 forward $113 $-1 #
coedge $-1 $398 $399 $194 $300 reversed $199 $-1 #
edge $400 $401 -40 $402 40 $299 $403 forward 7 unknown #
edge $-1 $201 -15 $214 -5 $198 $404 forward 7 unknown #
straight-curve $-1 30 10 10 -1 0 0 I I #
straight-curve $-1 30 -10 10 1 0 0 I I #
face $405 $-1 $199 $8 $-1 $406 reversed single #
point $-1 40 -10 10 #
point $-1 40 10 10 #
coedge $-1 $407 $203 $408 $409 forward $199 $-1 #
coedge $-1 $205 $211 $410 $411 reversed $82 $-1 #
coedge $-1 $392 $408 $205 $310 forward $295 $-1 #
edge $-1 $311 -20 $412 20 $309 $413 forward 7 unknown #
vertex $-1 $206 $414 #
straight-curve $-1 40 0 0 0 -1 0 I I #
coedge $-1 $415 $416 $211 $314 forward $417 $-1 #
edge $-1 $418 -20 $316 20 $313 $419 forward 7 unknown #
coedge $-1 $212 $420 $415 $421 forward $199 $-1 #
vertex $-1 $213 $422 #
point $-1 40 10 0 #
model_id-kcp-attrib $-1 $-1 $-1 $217 1 990663519 70 -481951742 7 #
plane-surface $-1 40 0 0 -1 0 0 0 0 1 forward_v I I I I #
coedge $-1 $222 $220 $224 $324 reversed $139 $-1 #
edge $-1 $235 -20 $326 20 $234 $423 forward 7 unknown #
vertex $-1 $324 $424 #
straight-curve $-1 -40 -40 0 0 0 -1 I I #
edge $-1 $322 -40 $326 40 $320 $425 forward 7 unknown #
straight-curve $-1 0 -40 -20 -1 0 0 I I #
vertex $-1 $227 $426 #
straight-curve $-1 0 40 -20 1 0 0 I I #
point $-1 40 40 -20 #
point $-1 40 -40 -20 #
straight-curve $-1 -40 0 20 0 -1 0 I I #
point $-1 -40 40 20 #
point $-1 -40 -40 20 #
straight-curve $-1 40 -40 0 0 0 -1 I I #
straight-curve $-1 40 40 0 0 0 -1 I I #
face $-1 $360 $427 $21 $-1 $428 forward single #
loop $-1 $-1 $429 $244 #
plane-surface $-1 40 10 0 0 -1 0 0 0 -1 forward_v I I I I #
coedge $-1 $430 $431 $432 $433 forward $245 $-1 #
coedge $-1 $434 $247 $431 $435 reversed $158 $-1 #
coedge $-1 $247 $434 $248 $344 forward $158 $-1 #
coedge $-1 $250 $432 $247 $342 reversed $170 $-1 #
edge $-1 $345 -20 $436 20 $247 $437 forward 7 unknown #
coedge $-1 $249 $248 $438 $439 reversed $96 $-1 #
edge $-1 $440 0 $345 10 $340 $441 forward 7 unknown #
vertex $-1 $344 $442 #
straight-curve $-1 0 0 10 0 1 0 I I #
coedge $-1 $438 $256 $252 $348 forward $354 $-1 #
edge $443 $258 -20 $350 20 $252 $444 forward 7 unknown #
convexity-sys-attrib $-1 $-1 $-1 $253 #
vertex $-1 $348 $445 #
straight-curve $-1 0 -20 0 0 0 1 I I #
point $-1 0 -20 10 #
coedge $-1 $256 $446 $260 $359 forward $354 $-1 #
loop $-1 $-1 $353 $367 #
convexity-sys-attrib $-1 $-1 $-1 $257 #
straight-curve $-1 40 0 0 0 -1 0 I I #
point $-1 40 -20 0 #
coedge $-1 $261 $260 $447 $448 forward $262 $-1 #
edge $449 $450 -5 $263 15 $260 $451 forward 7 unknown #
face $-1 $267 $262 $21 $-1 $452 forward single #
point $-1 40 -10 0 #
coedge $-1 $432 $265 $429 $453 reversed $170 $-1 #
coedge $-1 $447 $454 $265 $364 forward $427 $-1 #
edge $-1 $455 -10 $365 10 $363 $456 forward 7 unknown #
vertex $-1 $448 $457 #
straight-curve $-1 25 -10 10 1 0 0 I I #
face $-1 $-1 $354 $21 $-1 $458 reversed single #
plane-surface $-1 20 0 10 0 0 1 1 0 0 forward_v I I I I #
loop $-1 $-1 $381 $270 #
plane-surface $-1 20 0 10 0 0 1 1 0 0 forward_v I I I I #
coedge $-1 $272 $286 $273 $373 forward $175 $-1 #
coedge $-1 $274 $273 $459 $460 reversed $104 $-1 #
edge $-1 $461 0 $374 10 $371 $462 forward 7 unknown #
vertex $-1 $373 $463 #
straight-curve $-1 40 0 20 0 -1 0 I I #
coedge $-1 $459 $281 $277 $377 forward $369 $-1 #
edge $464 $284 -20 $378 20 $277 $465 forward 7 unknown #
vertex $-1 $377 $466 #
straight-curve $-1 40 20 10 0 0 1 I I #
point $-1 40 20 20 #
coedge $-1 $281 $459 $286 $385 forward $369 $-1 #
convexity-sys-attrib $-1 $-1 $-1 $282 #
straight-curve $-1 0 0 10 0 1 0 I I #
point $-1 0 20 10 #
edge $467 $461 -20 $288 20 $286 $468 forward 7 unknown #
point $-1 0 -20 10 #
straight-curve $-1 20 -20 20 -1 0 0 I I #
model_id-kcp-attrib $-1 $-1 $-1 $294 1 990663519 70 -481951743 9 #
face $469 $470 $417 $8 $-1 $471 forward single #
loop $-1 $-1 $472 $294 #
plane-surface $-1 0 0 10 1 0 0 0 0 -1 forward_v I I I I #
coedge $-1 $473 $309 $474 $475 reversed $295 $-1 #
coedge $-1 $298 $297 $476 $477 forward $113 $-1 #
coedge $-1 $478 $479 $297 $395 reversed $480 $-1 #
edge $481 $402 -40 $482 40 $394 $483 forward 7 unknown #
coedge $-1 $484 $485 $298 $397 reversed $486 $-1 #
edge $487 $488 -40 $401 40 $396 $489 forward 7 unknown #
coedge $-1 $420 $299 $485 $490 reversed $199 $-1 #
coedge $-1 $299 $407 $478 $491 forward $199 $-1 #
attrib_edge_convexity-kcp-attrib $-1 $492 $-1 $300 1 #
vertex $-1 $300 $493 #
vertex $-1 $491 $494 #
straight-curve $-1 40 0 -20 0 -1 0 I I #
straight-curve $-1 40 10 -5 0 0 -1 I I #
model_id-kcp-attrib $-1 $-1 $-1 $304 1 990663519 70 -481951743 15 #
plane-surface $-1 40 0 0 -1 0 0 0 0 1 forward_v I I I I #
coedge $-1 $399 $307 $495 $496 reversed $199 $-1 #
coedge $-1 $309 $473 $307 $409 reversed $295 $-1 #
edge $-1 $311 -5 $497 15 $307 $498 forward 7 unknown #
coedge $-1 $472 $474 $308 $411 forward $390 $-1 #
edge $-1 $412 -20 $418 20 $410 $499 forward 7 unknown #
vertex $-1 $411 $500 #
straight-curve $-1 20 -20 0 -1 0 0 I I #
point $-1 40 -20 0 #
coedge $-1 $501 $313 $315 $421 reversed $417 $-1 #
coedge $-1 $313 $501 $472 $502 forward $417 $-1 #
loop $-1 $-1 $415 $389 #
vertex $-1 $314 $503 #
straight-curve $-1 20 20 0 1 0 0 I I #
coedge $-1 $315 $398 $504 $505 reversed $199 $-1 #
edge $-1 $506 -15 $316 5 $315 $507 forward 7 unknown #
point $-1 40 20 0 #
straight-curve $-1 -40 40 0 0 0 -1 I I #
point $-1 -40 -40 -20 #
straight-curve $-1 -40 0 -20 0 1 0 I I #
point $-1 -40 40 -20 #
loop $-1 $-1 $363 $335 #
plane-surface $-1 20 10 0 1 0 0 0 0 -1 forward_v I I I I #
coedge $-1 $508 $509 $362 $453 forward $336 $-1 #
coedge $-1 $510 $338 $509 $511 reversed $245 $-1 #
coedge $-1 $338 $510 $339 $435 forward $245 $-1 #
coedge $-1 $341 $362 $338 $433 reversed $170 $-1 #
edge $-1 $436 -20 $512 -10 $338 $513 forward 7 unknown #
coedge $-1 $340 $339 $514 $515 reversed $158 $-1 #
edge $-1 $516 0 $436 10 $431 $517 forward 7 unknown #
vertex $-1 $435 $518 #
straight-curve $-1 20 20 10 1 0 0 I I #
coedge $-1 $514 $347 $343 $439 forward $354 $-1 #
edge $519 $350 -20 $440 20 $343 $520 forward 7 unknown #
vertex $-1 $439 $521 #
straight-curve $-1 0 20 0 0 0 1 I I #
point $-1 0 20 10 #
convexity-sys-attrib $-1 $-1 $-1 $348 #
straight-curve $-1 20 -20 0 -1 0 0 I I #
point $-1 0 -20 0 #
coedge $-1 $353 $522 $523 $524 forward $354 $-1 #
coedge $-1 $523 $363 $358 $448 reversed $427 $-1 #
edge $-1 $450 0 $365 10 $358 $525 forward 7 unknown #
convexity-sys-attrib $-1 $-1 $-1 $359 #
vertex $-1 $359 $526 #
straight-curve $-1 25 -10 0 1 0 0 I I #
plane-surface $-1 20 -10 0 0 1 0 0 0 1 forward_v I I I I #
edge $-1 $512 -15 $455 5 $429 $527 forward 7 unknown #
coedge $-1 $363 $523 $508 $528 forward $427 $-1 #
vertex $-1 $528 $529 #
straight-curve $-1 20 0 10 0 -1 0 I I #
point $-1 20 -10 10 #
plane-surface $-1 20 0 0 0 0 1 1 0 0 forward_v I I I I #
coedge $-1 $381 $376 $372 $460 forward $369 $-1 #
edge $530 $378 -20 $461 20 $372 $531 forward 7 unknown #
vertex $-1 $385 $532 #
straight-curve $-1 40 -20 10 0 0 1 I I #
point $-1 40 -20 20 #
convexity-sys-attrib $-1 $-1 $-1 $377 #
straight-curve $-1 20 20 10 1 0 0 I I #
point $-1 40 20 10 #
convexity-sys-attrib $-1 $-1 $-1 $385 #
straight-curve $-1 20 -20 10 -1 0 0 I I #
model_id-kcp-attrib $-1 $-1 $-1 $389 1 990663519 70 -481951743 10 #
face $533 $534 $535 $8 $-1 $536 forward single #
plane-surface $-1 20 20 10 0 -1 0 0 0 -1 forward_v I I I I #
coedge $-1 $537 $410 $416 $502 reversed $390 $-1 #
coedge $-1 $408 $392 $538 $539 reversed $295 $-1 #
coedge $-1 $410 $537 $392 $475 forward $390 $-1 #
edge $-1 $540 -10 $412 10 $474 $541 forward 7 unknown #
coedge $-1 $542 $543 $393 $477 reversed $544 $-1 #
edge $545 $482 -40 $488 40 $476 $546 forward 7 unknown #
coedge $-1 $547 $394 $399 $491 reversed $480 $-1 #
coedge $-1 $394 $547 $542 $548 forward $480 $-1 #
loop $-1 $-1 $479 $534 #
attrib_edge_convexity-kcp-attrib $-1 $549 $-1 $395 1 #
vertex $-1 $477 $550 #
straight-curve $-1 0 -40 -20 -1 0 0 I I #
coedge $-1 $551 $396 $543 $552 reversed $486 $-1 #
coedge $-1 $396 $551 $398 $490 forward $486 $-1 #
loop $-1 $-1 $485 $553 #
attrib_edge_convexity-kcp-attrib $-1 $554 $-1 $397 1 #
vertex $-1 $397 $555 #
straight-curve $-1 0 40 -20 1 0 0 I I #
edge $-1 $556 -20 $401 20 $398 $557 forward 7 unknown #
edge $558 $559 -20 $402 20 $399 $560 forward 7 unknown #
convexity-sys-attrib $-1 $-1 $400 $300 #
point $-1 40 40 -20 #
point $-1 40 -40 -20 #
coedge $-1 $538 $561 $407 $496 forward $535 $-1 #
edge $-1 $559 -40 $497 -20 $407 $562 forward 7 unknown #
vertex $-1 $496 $563 #
straight-curve $-1 40 -20 5 0 0 1 I I #
straight-curve $-1 0 0 0 0 1 0 I I #
point $-1 0 -20 0 #
coedge $-1 $416 $415 $564 $565 reversed $417 $-1 #
edge $-1 $566 -10 $418 10 $416 $567 forward 7 unknown #
point $-1 0 20 0 #
coedge $-1 $568 $564 $420 $505 forward $535 $-1 #
edge $-1 $506 20 $556 40 $420 $562 forward 7 unknown #
vertex $-1 $421 $569 #
straight-curve $-1 40 20 5 0 0 -1 I I #
coedge $-1 $570 $429 $454 $528 reversed $336 $-1 #
coedge $-1 $429 $570 $430 $511 forward $336 $-1 #
coedge $-1 $431 $430 $571 $572 reversed $245 $-1 #
edge $-1 $573 0 $512 10 $509 $574 forward 7 unknown #
vertex $-1 $511 $575 #
straight-curve $-1 40 0 10 0 -1 0 I I #
coedge $-1 $571 $438 $434 $515 forward $354 $-1 #
edge $576 $440 -20 $516 20 $434 $577 forward 7 unknown #
vertex $-1 $515 $578 #
straight-curve $-1 40 20 0 0 0 1 I I #
point $-1 40 20 10 #
convexity-sys-attrib $-1 $-1 $-1 $439 #
straight-curve $-1 0 0 0 0 1 0 I I #
point $-1 0 20 0 #
coedge $-1 $446 $571 $570 $579 forward $354 $-1 #
coedge $-1 $454 $447 $446 $524 reversed $427 $-1 #
edge $580 $581 -10 $450 10 $523 $582 forward 7 unknown #
straight-curve $-1 20 -10 0 0 0 1 I I #
point $-1 20 -10 0 #
straight-curve $-1 25 10 10 -1 0 0 I I #
edge $-1 $581 0 $455 10 $454 $583 forward 7 unknown #
point $-1 20 10 10 #
convexity-sys-attrib $-1 $-1 $-1 $460 #
straight-curve $-1 40 0 10 0 -1 0 I I #
point $-1 40 -20 10 #
model_id-kcp-attrib $-1 $-1 $-1 $470 1 990663519 70 -481951743 11 #
face $584 $585 $480 $8 $-1 $586 reversed single #
loop $-1 $-1 $538 $470 #
plane-surface $-1 0 0 20 0 0 1 1 0 0 forward_v I I I I #
coedge $-1 $474 $472 $587 $588 reversed $390 $-1 #
coedge $-1 $587 $495 $473 $539 forward $535 $-1 #
edge $-1 $497 -30 $540 10 $538 $589 forward 7 unknown #
vertex $-1 $539 $590 #
straight-curve $-1 0 -20 10 0 0 -1 I I #
coedge $-1 $591 $476 $479 $548 reversed $544 $-1 #
coedge $-1 $476 $591 $484 $552 forward $544 $-1 #
loop $-1 $-1 $543 $585 #
attrib_edge_convexity-kcp-attrib $-1 $592 $-1 $477 1 #
straight-curve $-1 -40 0 -20 0 1 0 I I #
coedge $-1 $479 $478 $561 $593 reversed $480 $-1 #
edge $594 $595 -20 $482 20 $542 $596 forward 7 unknown #
convexity-sys-attrib $-1 $-1 $481 $395 #
point $-1 -40 -40 -20 #
coedge $-1 $485 $484 $568 $597 reversed $486 $-1 #
edge $598 $599 -20 $488 20 $484 $600 forward 7 unknown #
face $601 $304 $486 $8 $-1 $602 reversed single #
convexity-sys-attrib $-1 $-1 $487 $397 #
point $-1 -40 40 -20 #
vertex $-1 $505 $603 #
straight-curve $-1 40 40 0 0 0 -1 I I #
attrib_edge_convexity-kcp-attrib $-1 $604 $-1 $491 1 #
vertex $-1 $496 $605 #
straight-curve $-1 40 -40 0 0 0 -1 I I #
coedge $-1 $495 $606 $547 $593 forward $535 $-1 #
straight-curve $-1 40 0 20 0 1 0 I I #
point $-1 40 -20 20 #
coedge $-1 $504 $587 $501 $565 forward $535 $-1 #
edge $-1 $566 -10 $506 30 $564 $607 forward 7 unknown #
vertex $-1 $588 $608 #
straight-curve $-1 0 20 10 0 0 -1 I I #
coedge $-1 $606 $504 $551 $597 forward $535 $-1 #
point $-1 40 20 20 #
coedge $-1 $509 $508 $522 $579 reversed $336 $-1 #
coedge $-1 $522 $514 $510 $572 forward $354 $-1 #
edge $609 $516 -20 $573 -10 $510 $610 forward 7 unknown #
vertex $-1 $572 $611 #
straight-curve $-1 40 10 0 0 0 1 I I #
point $-1 40 10 10 #
convexity-sys-attrib $-1 $-1 $-1 $515 #
straight-curve $-1 20 20 0 1 0 0 I I #
point $-1 40 20 0 #
edge $612 $573 -15 $581 5 $570 $613 forward 7 unknown #
convexity-sys-attrib $-1 $-1 $-1 $524 #
vertex $-1 $579 $614 #
straight-curve $-1 20 0 0 0 -1 0 I I #
straight-curve $-1 20 10 0 0 0 1 I I #
model_id-kcp-attrib $-1 $-1 $-1 $534 1 990663519 70 -481951743 12 #
face $615 $553 $544 $8 $-1 $616 reversed single #
plane-surface $-1 0 -40 0 0 1 0 0 0 1 forward_v I I I I #
coedge $-1 $564 $538 $537 $588 forward $535 $-1 #
edge $-1 $540 -20 $566 20 $587 $617 forward 7 unknown #
straight-curve $-1 10 -20 20 -1 0 0 I I #
point $-1 0 -20 20 #
coedge $-1 $543 $542 $606 $618 reversed $544 $-1 #
convexity-sys-attrib $-1 $-1 $545 $477 #
edge $619 $595 -40 $559 40 $547 $620 forward 7 unknown #
attrib_edge_convexity-kcp-attrib $-1 $621 $-1 $548 1 #
vertex $-1 $618 $622 #
straight-curve $-1 -40 -40 0 0 0 -1 I I #
edge $-1 $556 -40 $599 40 $551 $623 forward 7 unknown #
attrib_edge_convexity-kcp-attrib $-1 $624 $-1 $552 1 #
vertex $-1 $597 $625 #
straight-curve $-1 -40 40 0 0 0 -1 I I #
model_id-kcp-attrib $-1 $-1 $-1 $553 1 990663519 70 -481951743 14 #
plane-surface $-1 0 40 0 0 -1 0 0 0 -1 forward_v I I I I #
point $-1 40 40 20 #
convexity-sys-attrib $-1 $-1 $558 $491 #
point $-1 40 -40 20 #
coedge $-1 $561 $568 $591 $618 forward $535 $-1 #
straight-curve $-1 10 20 20 1 0 0 I I #
point $-1 0 20 20 #
convexity-sys-attrib $-1 $-1 $-1 $572 #
straight-curve $-1 40 0 0 0 -1 0 I I #
point $-1 40 10 0 #
convexity-sys-attrib $-1 $-1 $-1 $579 #
straight-curve $-1 25 10 0 -1 0 0 I I #
point $-1 20 10 0 #
model_id-kcp-attrib $-1 $-1 $-1 $585 1 990663519 70 -481951743 13 #
plane-surface $-1 -40 0 0 1 0 0 0 0 -1 forward_v I I I I #
straight-curve $-1 0 0 20 0 1 0 I I #
edge $626 $599 -40 $595 40 $591 $627 forward 7 unknown #
attrib_edge_convexity-kcp-attrib $-1 $628 $-1 $593 1 #
straight-curve $-1 0 -40 20 1 0 0 I I #
convexity-sys-attrib $-1 $-1 $594 $548 #
point $-1 -40 -40 20 #
straight-curve $-1 0 40 20 -1 0 0 I I #
convexity-sys-attrib $-1 $-1 $598 $552 #
point $-1 -40 40 20 #
attrib_edge_convexity-kcp-attrib $-1 $629 $-1 $618 1 #
straight-curve $-1 -40 0 20 0 -1 0 I I #
convexity-sys-attrib $-1 $-1 $619 $593 #
convexity-sys-attrib $-1 $-1 $626 $618 #
End-of-ACIS-data 