700 0 2 0           
24 FBMach with ACIS - 7.0.3 13 ACIS 7.0.3 NT 24 Tue May 14 09:19:47 2002 
1 9.9999999999999995e-007 1e-010 
body $2 -1 $-1 $3 $-1 $4 #
bdycol-kcp $-1 -1 1 3 $5 $6 $7 #
model_id-kcp-attrib $-1 -1 $-1 $-1 $0 1 1021382386 1021382386 239730689 1 #
lump $-1 -1 $-1 $-1 $8 $0 #
transform $-1 -1 1 0 0 0 1 0 0 0 1 0 0 0 1 rotate no_reflect no_shear #
body $9 -1 $-1 $10 $-1 $11 #
body $12 -1 $-1 $13 $-1 $14 #
body $15 -1 $-1 $16 $-1 $17 #
shell $-1 -1 $-1 $-1 $-1 $18 $-1 $3 #
model_id-kcp-attrib $-1 -1 $-1 $-1 $5 1 1021382386 1021382386 239730690 1 #
lump $-1 -1 $-1 $-1 $19 $5 #
transform $-1 -1 1 0 0 0 1 0 0 0 1 0 0 0 1 no_rotate no_reflect no_shear #
rgb_color-st-attrib $-1 -1 $20 $-1 $6 0.59999999999999998 0.90000000000000002 1 #
lump $-1 -1 $-1 $-1 $21 $6 #
transform $-1 -1 1 0 0 0 1 0 0 0 1 0 0 0 1 no_rotate no_reflect no_shear #
rgb_color-st-attrib $-1 -1 $22 $-1 $7 1 0 0 #
lump $-1 -1 $-1 $-1 $23 $7 #
transform $-1 -1 1 0 0 0 1 0 0 0 1 0 0 0 1 no_rotate no_reflect no_shear #
face $24 -1 $-1 $25 $26 $8 $-1 $27 reversed single #
shell $-1 -1 $-1 $-1 $-1 $28 $-1 $10 #
model_id-kcp-attrib $-1 -1 $-1 $12 $6 1 1021382386 1021382386 245891075 1 #
shell $-1 -1 $-1 $-1 $-1 $29 $-1 $13 #
model_id-kcp-attrib $-1 -1 $-1 $15 $7 1 1021382386 1021382387 238616580 1 #
shell $-1 -1 $-1 $-1 $-1 $30 $-1 $16 #
model_id-kcp-attrib $-1 -1 $-1 $-1 $18 1 1021382386 1021382386 239730689 2 #
face $31 -1 $-1 $32 $33 $8 $-1 $34 reversed single #
loop $-1 -1 $-1 $-1 $35 $18 #
plane-surface $-1 -1 $-1 20 0 -5 1 0 0 0 0 -1 forward_v I I I I #
face $36 -1 $-1 $37 $38 $19 $-1 $39 forward single #
face $-1 -1 $-1 $40 $41 $21 $-1 $42 forward single #
face $-1 -1 $-1 $43 $44 $23 $-1 $45 forward single #
model_id-kcp-attrib $-1 -1 $-1 $-1 $25 1 1021382386 1021382386 239730689 3 #
face $46 -1 $-1 $47 $48 $8 $-1 $49 forward single #
loop $-1 -1 $-1 $-1 $50 $25 #
plane-surface $-1 -1 $-1 30 -10 -5 0 1 0 0 0 1 forward_v I I I I #
coedge $-1 -1 $-1 $51 $52 $53 $54 reversed $26 $-1 #
model_id-kcp-attrib $-1 -1 $-1 $-1 $28 1 1021382386 1021382386 239730690 3 #
face $55 -1 $-1 $56 $57 $19 $-1 $58 reversed single #
loop $-1 -1 $-1 $-1 $59 $28 #
plane-surface $-1 -1 $-1 0 0 20 0 0 1 1 0 0 forward_v I I I I #
face $-1 -1 $-1 $60 $61 $21 $-1 $62 forward single #
loop $-1 -1 $-1 $-1 $63 $29 #
plane-surface $-1 -1 $-1 40 -10 0 1 0 0 0 0 -1 forward_v I I I I #
face $-1 -1 $-1 $64 $65 $23 $-1 $66 forward single #
loop $-1 -1 $-1 $-1 $67 $30 #
plane-surface $-1 -1 $-1 0 -20 10 -1 0 0 0 0 1 forward_v I I I I #
model_id-kcp-attrib $-1 -1 $-1 $-1 $32 1 1021382386 1021382386 239730689 4 #
face $68 -1 $-1 $69 $70 $8 $-1 $71 reversed single #
loop $-1 -1 $-1 $-1 $72 $32 #
plane-surface $-1 -1 $-1 30 0 10 0 0 1 1 0 0 forward_v I I I I #
coedge $-1 -1 $-1 $73 $74 $75 $76 reversed $33 $-1 #
coedge $-1 -1 $-1 $77 $35 $74 $78 reversed $26 $-1 #
coedge $-1 -1 $-1 $35 $77 $79 $80 forward $26 $-1 #
coedge $-1 -1 $-1 $81 $75 $35 $54 forward $82 $-1 #
edge $83 -1 $-1 $84 -10 $85 10 $53 $86 forward @7 unknown #
model_id-kcp-attrib $-1 -1 $-1 $-1 $37 1 1021382386 1021382386 239730690 2 #
face $87 -1 $-1 $88 $89 $19 $-1 $90 reversed single #
loop $-1 -1 $-1 $-1 $91 $37 #
plane-surface $-1 -1 $-1 0 0 -20 0 0 1 1 0 0 forward_v I I I I #
coedge $-1 -1 $-1 $92 $93 $94 $95 forward $38 $-1 #
face $-1 -1 $-1 $96 $97 $21 $-1 $98 forward single #
loop $-1 -1 $-1 $-1 $99 $40 #
plane-surface $-1 -1 $-1 40 -20 0 0 -1 0 0 0 -1 forward_v I I I I #
coedge $-1 -1 $-1 $100 $101 $102 $103 forward $41 $-1 #
face $-1 -1 $-1 $104 $105 $23 $-1 $106 forward single #
loop $-1 -1 $-1 $-1 $107 $43 #
plane-surface $-1 -1 $-1 0 20 10 0 1 0 0 0 1 forward_v I I I I #
coedge $-1 -1 $-1 $108 $109 $110 $111 forward $44 $-1 #
model_id-kcp-attrib $-1 -1 $-1 $-1 $47 1 1021382386 1021382386 239730689 5 #
face $112 -1 $-1 $113 $114 $8 $-1 $115 reversed single #
loop $-1 -1 $-1 $-1 $116 $47 #
plane-surface $-1 -1 $-1 30 10 -5 0 -1 0 0 0 -1 forward_v I I I I #
coedge $-1 -1 $-1 $117 $118 $119 $120 forward $48 $-1 #
coedge $-1 -1 $-1 $121 $50 $122 $123 reversed $33 $-1 #
coedge $-1 -1 $-1 $50 $121 $51 $78 forward $33 $-1 #
coedge $-1 -1 $-1 $53 $124 $50 $76 forward $82 $-1 #
edge $125 -1 $-1 $126 -15 $84 5 $75 $127 forward @7 unknown #
coedge $-1 -1 $-1 $52 $51 $128 $129 reversed $26 $-1 #
edge $-1 -1 $-1 $130 -15 $84 -5 $51 $131 forward @7 unknown #
coedge $-1 -1 $-1 $132 $116 $52 $80 reversed $70 $-1 #
edge $-1 -1 $-1 $133 -15 $85 -5 $79 $134 forward @7 unknown #
coedge $-1 -1 $-1 $135 $53 $116 $136 forward $82 $-1 #
loop $-1 -1 $-1 $-1 $81 $113 #
attrib_edge_convexity-kcp-attrib $-1 -1 $137 $-1 $54 2 #
vertex $-1 -1 $-1 $76 $138 #
vertex $-1 -1 $-1 $54 $139 #
straight-curve $-1 -1 $-1 20 0 0 0 1 0 I I #
model_id-kcp-attrib $-1 -1 $-1 $-1 $56 1 1021382386 1021382386 239730690 4 #
face $140 -1 $-1 $141 $142 $19 $-1 $143 reversed single #
loop $-1 -1 $-1 $-1 $144 $56 #
plane-surface $-1 -1 $-1 0 -40 0 0 1 0 0 0 1 forward_v I I I I #
coedge $-1 -1 $-1 $145 $146 $147 $148 forward $57 $-1 #
coedge $-1 -1 $-1 $149 $59 $150 $151 forward $38 $-1 #
coedge $-1 -1 $-1 $59 $149 $152 $153 forward $38 $-1 #
coedge $-1 -1 $-1 $154 $155 $59 $95 reversed $156 $-1 #
edge $-1 -1 $-1 $157 -40 $158 40 $94 $159 forward @7 unknown #
face $-1 -1 $-1 $160 $161 $21 $-1 $162 forward single #
loop $-1 -1 $-1 $-1 $163 $60 #
plane-surface $-1 -1 $-1 0 -20 0 -1 0 0 0 0 1 forward_v I I I I #
coedge $-1 -1 $-1 $164 $165 $166 $167 forward $61 $-1 #
coedge $-1 -1 $-1 $168 $63 $165 $169 reversed $41 $-1 #
coedge $-1 -1 $-1 $63 $168 $170 $171 forward $41 $-1 #
coedge $-1 -1 $-1 $172 $166 $63 $103 reversed $173 $-1 #
edge $-1 -1 $-1 $174 10 $175 20 $63 $176 forward @7 unknown #
face $-1 -1 $-1 $177 $178 $23 $-1 $179 forward single #
loop $-1 -1 $-1 $-1 $180 $64 #
plane-surface $-1 -1 $-1 40 20 10 1 0 0 0 0 -1 forward_v I I I I #
coedge $-1 -1 $-1 $181 $182 $183 $184 forward $65 $-1 #
coedge $-1 -1 $-1 $185 $67 $182 $186 reversed $44 $-1 #
coedge $-1 -1 $-1 $67 $185 $187 $188 forward $44 $-1 #
coedge $-1 -1 $-1 $189 $183 $67 $111 reversed $190 $-1 #
edge $-1 -1 $-1 $191 -20 $192 20 $67 $193 forward @7 unknown #
model_id-kcp-attrib $-1 -1 $-1 $-1 $69 1 1021382386 1021382386 239730689 6 #
face $194 -1 $-1 $195 $82 $8 $-1 $196 forward single #
loop $-1 -1 $-1 $-1 $197 $69 #
plane-surface $-1 -1 $-1 0 0 -20 0 0 1 1 0 0 forward_v I I I I #
coedge $-1 -1 $-1 $79 $198 $81 $136 reversed $70 $-1 #
coedge $-1 -1 $-1 $128 $72 $132 $199 forward $48 $-1 #
coedge $-1 -1 $-1 $72 $128 $121 $200 forward $48 $-1 #
coedge $-1 -1 $-1 $122 $201 $72 $120 reversed $202 $-1 #
edge $203 -1 $-1 $204 -10 $205 10 $119 $206 forward @7 unknown #
coedge $-1 -1 $-1 $74 $73 $118 $200 reversed $33 $-1 #
coedge $-1 -1 $-1 $207 $119 $73 $123 forward $202 $-1 #
edge $-1 -1 $-1 $204 -15 $126 -5 $122 $208 forward @7 unknown #
coedge $-1 -1 $-1 $75 $209 $207 $210 reversed $82 $-1 #
attrib_edge_convexity-kcp-attrib $-1 -1 $211 $-1 $76 2 #
vertex $-1 -1 $-1 $210 $212 #
straight-curve $-1 -1 $-1 25 -10 0 -1 0 0 I I #
coedge $-1 -1 $-1 $118 $117 $77 $129 forward $48 $-1 #
edge $213 -1 $-1 $133 -10 $130 10 $77 $214 forward @7 unknown #
vertex $-1 -1 $-1 $129 $215 #
straight-curve $-1 -1 $-1 20 -10 -5 0 0 -1 I I #
coedge $-1 -1 $-1 $198 $79 $117 $199 reversed $70 $-1 #
vertex $-1 -1 $-1 $199 $216 #
straight-curve $-1 -1 $-1 20 10 -5 0 0 -1 I I #
coedge $-1 -1 $-1 $217 $81 $218 $219 reversed $82 $-1 #
edge $220 -1 $-1 $85 -5 $221 15 $81 $222 forward @7 unknown #
convexity-sys-attrib $-1 -1 $-1 $83 $54 #
point $-1 -1 $-1 20 -10 0 #
point $-1 -1 $-1 20 10 0 #
model_id-kcp-attrib $-1 -1 $-1 $-1 $88 1 1021382386 1021382386 239730690 5 #
face $223 -1 $-1 $224 $225 $19 $-1 $226 reversed single #
loop $-1 -1 $-1 $-1 $227 $88 #
plane-surface $-1 -1 $-1 -40 0 0 1 0 0 0 0 -1 forward_v I I I I #
coedge $-1 -1 $-1 $228 $152 $229 $230 forward $89 $-1 #
coedge $-1 -1 $-1 $231 $91 $228 $232 forward $57 $-1 #
coedge $-1 -1 $-1 $91 $231 $233 $234 forward $57 $-1 #
coedge $-1 -1 $-1 $155 $154 $91 $148 reversed $156 $-1 #
edge $-1 -1 $-1 $235 -40 $236 40 $147 $237 forward @7 unknown #
coedge $-1 -1 $-1 $93 $92 $238 $239 forward $38 $-1 #
coedge $-1 -1 $-1 $240 $241 $92 $151 reversed $225 $-1 #
edge $-1 -1 $-1 $158 -40 $242 40 $150 $243 forward @7 unknown #
coedge $-1 -1 $-1 $144 $244 $93 $153 reversed $89 $-1 #
edge $-1 -1 $-1 $245 -40 $157 40 $152 $246 forward @7 unknown #
coedge $-1 -1 $-1 $147 $94 $244 $247 forward $156 $-1 #
coedge $-1 -1 $-1 $94 $147 $240 $248 reversed $156 $-1 #
loop $-1 -1 $-1 $-1 $154 $224 #
vertex $-1 -1 $-1 $95 $249 #
vertex $-1 -1 $-1 $95 $250 #
straight-curve $-1 -1 $-1 40 0 20 0 1 0 I I #
face $-1 -1 $-1 $251 $252 $21 $-1 $253 forward single #
loop $-1 -1 $-1 $-1 $254 $96 #
plane-surface $-1 -1 $-1 0 20 0 0 1 0 0 0 1 forward_v I I I I #
coedge $-1 -1 $-1 $255 $256 $257 $258 forward $97 $-1 #
coedge $-1 -1 $-1 $259 $99 $256 $260 reversed $61 $-1 #
coedge $-1 -1 $-1 $99 $259 $100 $169 forward $61 $-1 #
coedge $-1 -1 $-1 $102 $257 $99 $167 reversed $173 $-1 #
edge $-1 -1 $-1 $175 -20 $261 20 $99 $262 forward @7 unknown #
coedge $-1 -1 $-1 $101 $100 $263 $264 reversed $41 $-1 #
edge $-1 -1 $-1 $265 0 $175 10 $165 $266 forward @7 unknown #
coedge $-1 -1 $-1 $267 $268 $101 $171 reversed $269 $-1 #
edge $-1 -1 $-1 $270 0 $174 10 $101 $271 forward @7 unknown #
coedge $-1 -1 $-1 $272 $102 $268 $273 reversed $173 $-1 #
loop $-1 -1 $-1 $-1 $102 $274 #
vertex $-1 -1 $-1 $171 $275 #
vertex $-1 -1 $-1 $169 $276 #
straight-curve $-1 -1 $-1 40 0 10 0 -1 0 I I #
face $-1 -1 $-1 $277 $190 $23 $-1 $278 forward single #
loop $-1 -1 $-1 $-1 $279 $104 #
plane-surface $-1 -1 $-1 40 -20 10 0 -1 0 0 0 -1 forward_v I I I I #
coedge $-1 -1 $-1 $280 $281 $282 $283 forward $105 $-1 #
coedge $-1 -1 $-1 $284 $107 $281 $285 reversed $65 $-1 #
coedge $-1 -1 $-1 $107 $284 $108 $186 forward $65 $-1 #
coedge $-1 -1 $-1 $110 $282 $107 $184 reversed $190 $-1 #
edge $-1 -1 $-1 $192 -20 $286 20 $107 $287 forward @7 unknown #
coedge $-1 -1 $-1 $109 $108 $288 $289 reversed $44 $-1 #
edge $290 -1 $-1 $291 0 $192 10 $182 $292 forward @7 unknown #
coedge $-1 -1 $-1 $293 $279 $109 $188 reversed $178 $-1 #
edge $294 -1 $-1 $295 0 $191 10 $109 $296 forward @7 unknown #
coedge $-1 -1 $-1 $282 $110 $279 $297 reversed $190 $-1 #
loop $-1 -1 $-1 $-1 $110 $177 #
vertex $-1 -1 $-1 $188 $298 #
vertex $-1 -1 $-1 $186 $299 #
straight-curve $-1 -1 $-1 0 0 20 0 1 0 I I #
model_id-kcp-attrib $-1 -1 $-1 $-1 $113 1 1021382386 1021382386 239730689 7 #
face $300 -1 $-1 $301 $302 $8 $-1 $303 forward single #
plane-surface $-1 -1 $-1 20 0 0 0 0 1 1 0 0 forward_v I I I I #
coedge $-1 -1 $-1 $304 $305 $306 $307 forward $114 $-1 #
coedge $-1 -1 $-1 $116 $132 $201 $308 forward $70 $-1 #
edge $309 -1 $-1 $205 -10 $133 10 $132 $310 forward @7 unknown #
edge $311 -1 $-1 $130 -10 $204 10 $121 $312 forward @7 unknown #
coedge $-1 -1 $-1 $119 $218 $198 $308 reversed $202 $-1 #
loop $-1 -1 $-1 $-1 $306 $313 #
attrib_edge_convexity-kcp-attrib $-1 -1 $314 $-1 $120 1 #
vertex $-1 -1 $-1 $120 $315 #
vertex $-1 -1 $-1 $120 $316 #
straight-curve $-1 -1 $-1 40 0 10 0 1 0 I I #
coedge $-1 -1 $-1 $317 $122 $124 $210 forward $202 $-1 #
straight-curve $-1 -1 $-1 40 -10 -5 0 0 -1 I I #
coedge $-1 -1 $-1 $124 $318 $319 $320 reversed $82 $-1 #
edge $321 -1 $-1 $126 10 $322 20 $207 $323 forward @7 unknown #
convexity-sys-attrib $-1 -1 $-1 $125 $76 #
point $-1 -1 $-1 40 -10 0 #
attrib_edge_convexity-kcp-attrib $-1 -1 $324 $-1 $129 1 #
straight-curve $-1 -1 $-1 20 0 10 0 -1 0 I I #
point $-1 -1 $-1 20 -10 10 #
point $-1 -1 $-1 20 10 10 #
coedge $-1 -1 $-1 $318 $135 $325 $326 reversed $82 $-1 #
coedge $-1 -1 $-1 $201 $327 $135 $219 forward $202 $-1 #
edge $328 -1 $-1 $329 -20 $221 -10 $218 $323 forward @7 unknown #
attrib_edge_convexity-kcp-attrib $-1 -1 $330 $-1 $136 2 #
vertex $-1 -1 $-1 $219 $331 #
straight-curve $-1 -1 $-1 25 10 0 1 0 0 I I #
model_id-kcp-attrib $-1 -1 $-1 $-1 $141 1 1021382386 1021382386 239730690 6 #
face $332 -1 $-1 $-1 $156 $19 $-1 $333 reversed single #
loop $-1 -1 $-1 $-1 $240 $141 #
plane-surface $-1 -1 $-1 0 40 0 0 -1 0 0 0 -1 forward_v I I I I #
coedge $-1 -1 $-1 $334 $238 $241 $335 forward $142 $-1 #
coedge $-1 -1 $-1 $244 $144 $145 $232 reversed $89 $-1 #
coedge $-1 -1 $-1 $238 $334 $144 $230 reversed $142 $-1 #
edge $-1 -1 $-1 $245 -20 $336 20 $229 $337 forward @7 unknown #
coedge $-1 -1 $-1 $146 $145 $334 $338 forward $57 $-1 #
edge $-1 -1 $-1 $236 -40 $336 40 $228 $339 forward @7 unknown #
coedge $-1 -1 $-1 $241 $240 $146 $234 reversed $225 $-1 #
edge $-1 -1 $-1 $340 -40 $235 40 $233 $341 forward @7 unknown #
vertex $-1 -1 $-1 $148 $342 #
vertex $-1 -1 $-1 $247 $343 #
straight-curve $-1 -1 $-1 40 0 -20 0 -1 0 I I #
coedge $-1 -1 $-1 $227 $229 $149 $239 reversed $142 $-1 #
edge $-1 -1 $-1 $242 -40 $245 40 $238 $344 forward @7 unknown #
coedge $-1 -1 $-1 $233 $150 $155 $248 forward $225 $-1 #
coedge $-1 -1 $-1 $150 $233 $227 $335 reversed $225 $-1 #
vertex $-1 -1 $-1 $151 $345 #
straight-curve $-1 -1 $-1 0 40 20 -1 0 0 I I #
coedge $-1 -1 $-1 $152 $228 $154 $247 reversed $89 $-1 #
vertex $-1 -1 $-1 $239 $346 #
straight-curve $-1 -1 $-1 0 -40 20 1 0 0 I I #
edge $-1 -1 $-1 $157 -20 $236 20 $154 $347 forward @7 unknown #
edge $-1 -1 $-1 $158 -20 $235 20 $155 $348 forward @7 unknown #
point $-1 -1 $-1 40 -40 20 #
point $-1 -1 $-1 40 40 20 #
face $-1 -1 $-1 $349 $350 $21 $-1 $351 forward single #
loop $-1 -1 $-1 $-1 $352 $160 #
plane-surface $-1 -1 $-1 40 20 0 1 0 0 0 0 -1 forward_v I I I I #
coedge $-1 -1 $-1 $353 $354 $355 $356 forward $161 $-1 #
coedge $-1 -1 $-1 $357 $163 $354 $358 reversed $97 $-1 #
coedge $-1 -1 $-1 $163 $357 $164 $260 forward $97 $-1 #
coedge $-1 -1 $-1 $166 $355 $163 $258 reversed $173 $-1 #
edge $-1 -1 $-1 $261 -20 $359 20 $163 $360 forward @7 unknown #
coedge $-1 -1 $-1 $165 $164 $361 $362 reversed $61 $-1 #
edge $363 -1 $-1 $364 0 $261 10 $256 $365 forward @7 unknown #
vertex $-1 -1 $-1 $260 $366 #
straight-curve $-1 -1 $-1 20 -20 10 -1 0 0 I I #
coedge $-1 -1 $-1 $361 $367 $168 $264 forward $368 $-1 #
edge $369 -1 $-1 $270 10 $265 20 $168 $370 forward @7 unknown #
vertex $-1 -1 $-1 $264 $371 #
straight-curve $-1 -1 $-1 40 -20 0 0 0 1 I I #
coedge $-1 -1 $-1 $372 $170 $367 $373 reversed $269 $-1 #
coedge $-1 -1 $-1 $170 $372 $172 $273 forward $269 $-1 #
loop $-1 -1 $-1 $-1 $268 $374 #
vertex $-1 -1 $-1 $373 $375 #
straight-curve $-1 -1 $-1 40 -10 0 0 0 1 I I #
coedge $-1 -1 $-1 $376 $172 $377 $378 reversed $173 $-1 #
edge $-1 -1 $-1 $379 -5 $174 15 $268 $380 forward @7 unknown #
face $-1 -1 $-1 $381 $173 $21 $-1 $382 forward single #
point $-1 -1 $-1 40 -10 10 #
point $-1 -1 $-1 40 -20 10 #
face $-1 -1 $-1 $-1 $383 $23 $-1 $384 reversed single #
plane-surface $-1 -1 $-1 20 0 20 0 0 1 1 0 0 forward_v I I I I #
coedge $-1 -1 $-1 $187 $385 $189 $297 forward $178 $-1 #
coedge $-1 -1 $-1 $386 $180 $385 $387 reversed $105 $-1 #
coedge $-1 -1 $-1 $180 $386 $181 $285 forward $105 $-1 #
coedge $-1 -1 $-1 $183 $189 $180 $283 reversed $190 $-1 #
edge $-1 -1 $-1 $286 -20 $388 20 $180 $389 forward @7 unknown #
coedge $-1 -1 $-1 $182 $181 $390 $391 reversed $65 $-1 #
edge $-1 -1 $-1 $392 0 $286 10 $281 $393 forward @7 unknown #
vertex $-1 -1 $-1 $285 $394 #
straight-curve $-1 -1 $-1 20 20 20 1 0 0 I I #
coedge $-1 -1 $-1 $390 $395 $185 $289 forward $383 $-1 #
edge $396 -1 $-1 $295 -20 $291 20 $185 $397 forward @7 unknown #
convexity-sys-attrib $-1 -1 $-1 $-1 $186 #
vertex $-1 -1 $-1 $289 $398 #
straight-curve $-1 -1 $-1 0 20 10 0 0 1 I I #
coedge $-1 -1 $-1 $385 $187 $395 $399 reversed $178 $-1 #
convexity-sys-attrib $-1 -1 $-1 $-1 $188 #
vertex $-1 -1 $-1 $399 $400 #
straight-curve $-1 -1 $-1 0 -20 10 0 0 1 I I #
edge $-1 -1 $-1 $388 -20 $191 20 $279 $401 forward @7 unknown #
point $-1 -1 $-1 0 -20 20 #
point $-1 -1 $-1 0 20 20 #
model_id-kcp-attrib $-1 -1 $-1 $-1 $195 1 1021382386 1021382386 239730689 8 #
face $402 -1 $-1 $403 $404 $8 $-1 $405 forward single #
loop $-1 -1 $-1 $-1 $406 $195 #
plane-surface $-1 -1 $-1 20 -20 10 0 1 0 0 0 1 forward_v I I I I #
coedge $-1 -1 $-1 $407 $197 $408 $409 forward $114 $-1 #
coedge $-1 -1 $-1 $197 $407 $410 $411 forward $114 $-1 #
coedge $-1 -1 $-1 $412 $413 $197 $307 reversed $202 $-1 #
edge $414 -1 $-1 $415 -40 $416 40 $306 $417 forward @7 unknown #
edge $-1 -1 $-1 $205 -15 $221 -5 $201 $418 forward @7 unknown #
attrib_edge_convexity-kcp-attrib $-1 -1 $419 $-1 $199 1 #
straight-curve $-1 -1 $-1 30 10 10 -1 0 0 I I #
attrib_edge_convexity-kcp-attrib $-1 -1 $420 $-1 $200 1 #
straight-curve $-1 -1 $-1 30 -10 10 1 0 0 I I #
face $421 -1 $-1 $-1 $202 $8 $-1 $422 reversed single #
convexity-sys-attrib $-1 -1 $-1 $203 $120 #
point $-1 -1 $-1 40 -10 10 #
point $-1 -1 $-1 40 10 10 #
coedge $-1 -1 $-1 $423 $207 $424 $425 forward $202 $-1 #
coedge $-1 -1 $-1 $209 $217 $426 $427 reversed $82 $-1 #
coedge $-1 -1 $-1 $406 $424 $209 $320 forward $302 $-1 #
edge $428 -1 $-1 $322 -20 $429 20 $319 $430 forward @7 unknown #
attrib_edge_convexity-kcp-attrib $-1 -1 $431 $-1 $210 1 #
vertex $-1 -1 $-1 $210 $432 #
straight-curve $-1 -1 $-1 40 0 0 0 -1 0 I I #
convexity-sys-attrib $-1 -1 $-1 $213 $129 #
coedge $-1 -1 $-1 $433 $434 $217 $326 forward $435 $-1 #
edge $436 -1 $-1 $437 -20 $329 20 $325 $438 forward @7 unknown #
coedge $-1 -1 $-1 $218 $439 $433 $440 forward $202 $-1 #
attrib_edge_convexity-kcp-attrib $-1 -1 $441 $-1 $219 1 #
vertex $-1 -1 $-1 $219 $442 #
convexity-sys-attrib $-1 -1 $-1 $220 $136 #
point $-1 -1 $-1 40 10 0 #
model_id-kcp-attrib $-1 -1 $-1 $-1 $224 1 1021382386 1021382386 239730690 7 #
plane-surface $-1 -1 $-1 40 0 0 -1 0 0 0 0 1 forward_v I I I I #
coedge $-1 -1 $-1 $229 $227 $231 $338 reversed $142 $-1 #
edge $-1 -1 $-1 $242 -20 $340 20 $241 $443 forward @7 unknown #
vertex $-1 -1 $-1 $338 $444 #
straight-curve $-1 -1 $-1 -40 -40 0 0 0 -1 I I #
edge $-1 -1 $-1 $336 -40 $340 40 $334 $445 forward @7 unknown #
straight-curve $-1 -1 $-1 0 -40 -20 -1 0 0 I I #
vertex $-1 -1 $-1 $234 $446 #
straight-curve $-1 -1 $-1 0 40 -20 1 0 0 I I #
point $-1 -1 $-1 40 40 -20 #
point $-1 -1 $-1 40 -40 -20 #
straight-curve $-1 -1 $-1 -40 0 20 0 -1 0 I I #
point $-1 -1 $-1 -40 40 20 #
point $-1 -1 $-1 -40 -40 20 #
straight-curve $-1 -1 $-1 40 -40 0 0 0 -1 I I #
straight-curve $-1 -1 $-1 40 40 0 0 0 -1 I I #
face $-1 -1 $-1 $374 $447 $21 $-1 $448 forward single #
loop $-1 -1 $-1 $-1 $449 $251 #
plane-surface $-1 -1 $-1 40 10 0 0 -1 0 0 0 -1 forward_v I I I I #
coedge $-1 -1 $-1 $450 $451 $452 $453 forward $252 $-1 #
coedge $-1 -1 $-1 $454 $254 $451 $455 reversed $161 $-1 #
coedge $-1 -1 $-1 $254 $454 $255 $358 forward $161 $-1 #
coedge $-1 -1 $-1 $257 $452 $254 $356 reversed $173 $-1 #
edge $-1 -1 $-1 $359 -20 $456 20 $254 $457 forward @7 unknown #
coedge $-1 -1 $-1 $256 $255 $458 $459 reversed $97 $-1 #
edge $-1 -1 $-1 $460 0 $359 10 $354 $461 forward @7 unknown #
vertex $-1 -1 $-1 $358 $462 #
straight-curve $-1 -1 $-1 0 0 10 0 1 0 I I #
coedge $-1 -1 $-1 $458 $263 $259 $362 forward $368 $-1 #
edge $463 -1 $-1 $265 -20 $364 20 $259 $464 forward @7 unknown #
convexity-sys-attrib $-1 -1 $-1 $-1 $260 #
vertex $-1 -1 $-1 $362 $465 #
straight-curve $-1 -1 $-1 0 -20 0 0 0 1 I I #
point $-1 -1 $-1 0 -20 10 #
coedge $-1 -1 $-1 $263 $466 $267 $373 forward $368 $-1 #
loop $-1 -1 $-1 $-1 $367 $381 #
convexity-sys-attrib $-1 -1 $-1 $-1 $264 #
straight-curve $-1 -1 $-1 40 0 0 0 -1 0 I I #
point $-1 -1 $-1 40 -20 0 #
coedge $-1 -1 $-1 $268 $267 $467 $468 forward $269 $-1 #
edge $469 -1 $-1 $470 -5 $270 15 $267 $471 forward @7 unknown #
face $-1 -1 $-1 $274 $269 $21 $-1 $472 forward single #
point $-1 -1 $-1 40 -10 0 #
coedge $-1 -1 $-1 $452 $272 $449 $473 reversed $173 $-1 #
coedge $-1 -1 $-1 $467 $474 $272 $378 forward $447 $-1 #
edge $-1 -1 $-1 $475 -10 $379 10 $377 $476 forward @7 unknown #
vertex $-1 -1 $-1 $468 $477 #
straight-curve $-1 -1 $-1 25 -10 10 1 0 0 I I #
face $-1 -1 $-1 $-1 $368 $21 $-1 $478 reversed single #
plane-surface $-1 -1 $-1 20 0 10 0 0 1 1 0 0 forward_v I I I I #
loop $-1 -1 $-1 $-1 $395 $277 #
plane-surface $-1 -1 $-1 20 0 10 0 0 1 1 0 0 forward_v I I I I #
coedge $-1 -1 $-1 $279 $293 $280 $387 forward $178 $-1 #
coedge $-1 -1 $-1 $281 $280 $479 $480 reversed $105 $-1 #
edge $-1 -1 $-1 $481 0 $388 10 $385 $482 forward @7 unknown #
vertex $-1 -1 $-1 $387 $483 #
straight-curve $-1 -1 $-1 40 0 20 0 -1 0 I I #
coedge $-1 -1 $-1 $479 $288 $284 $391 forward $383 $-1 #
edge $484 -1 $-1 $291 -20 $392 20 $284 $485 forward @7 unknown #
vertex $-1 -1 $-1 $391 $486 #
straight-curve $-1 -1 $-1 40 20 10 0 0 1 I I #
point $-1 -1 $-1 40 20 20 #
coedge $-1 -1 $-1 $288 $479 $293 $399 forward $383 $-1 #
convexity-sys-attrib $-1 -1 $-1 $-1 $289 #
straight-curve $-1 -1 $-1 0 0 10 0 1 0 I I #
point $-1 -1 $-1 0 20 10 #
edge $487 -1 $-1 $481 -20 $295 20 $293 $488 forward @7 unknown #
point $-1 -1 $-1 0 -20 10 #
straight-curve $-1 -1 $-1 20 -20 20 -1 0 0 I I #
model_id-kcp-attrib $-1 -1 $-1 $-1 $301 1 1021382386 1021382386 239730689 9 #
face $489 -1 $-1 $490 $435 $8 $-1 $491 forward single #
loop $-1 -1 $-1 $-1 $492 $301 #
plane-surface $-1 -1 $-1 0 0 10 1 0 0 0 0 -1 forward_v I I I I #
coedge $-1 -1 $-1 $493 $319 $494 $495 reversed $302 $-1 #
coedge $-1 -1 $-1 $305 $304 $496 $497 forward $114 $-1 #
coedge $-1 -1 $-1 $498 $499 $304 $409 reversed $500 $-1 #
edge $501 -1 $-1 $416 -40 $502 40 $408 $503 forward @7 unknown #
coedge $-1 -1 $-1 $504 $505 $305 $411 reversed $506 $-1 #
edge $507 -1 $-1 $508 -40 $415 40 $410 $509 forward @7 unknown #
coedge $-1 -1 $-1 $439 $306 $505 $510 reversed $202 $-1 #
coedge $-1 -1 $-1 $306 $423 $498 $511 forward $202 $-1 #
attrib_edge_convexity-kcp-attrib $-1 -1 $512 $-1 $307 1 #
vertex $-1 -1 $-1 $307 $513 #
vertex $-1 -1 $-1 $511 $514 #
straight-curve $-1 -1 $-1 40 0 -20 0 -1 0 I I #
straight-curve $-1 -1 $-1 40 10 -5 0 0 -1 I I #
convexity-sys-attrib $-1 -1 $-1 $309 $199 #
convexity-sys-attrib $-1 -1 $-1 $311 $200 #
model_id-kcp-attrib $-1 -1 $-1 $-1 $313 1 1021382386 1021382386 239730689 15 #
plane-surface $-1 -1 $-1 40 0 0 -1 0 0 0 0 1 forward_v I I I I #
coedge $-1 -1 $-1 $413 $317 $515 $516 reversed $202 $-1 #
coedge $-1 -1 $-1 $319 $493 $317 $425 reversed $302 $-1 #
edge $-1 -1 $-1 $322 -5 $517 15 $317 $518 forward @7 unknown #
coedge $-1 -1 $-1 $492 $494 $318 $427 forward $404 $-1 #
edge $519 -1 $-1 $429 -20 $437 20 $426 $520 forward @7 unknown #
attrib_edge_convexity-kcp-attrib $-1 -1 $521 $-1 $320 2 #
vertex $-1 -1 $-1 $427 $522 #
straight-curve $-1 -1 $-1 20 -20 0 -1 0 0 I I #
convexity-sys-attrib $-1 -1 $-1 $321 $210 #
point $-1 -1 $-1 40 -20 0 #
coedge $-1 -1 $-1 $523 $325 $327 $440 reversed $435 $-1 #
coedge $-1 -1 $-1 $325 $523 $492 $524 forward $435 $-1 #
loop $-1 -1 $-1 $-1 $433 $403 #
attrib_edge_convexity-kcp-attrib $-1 -1 $525 $-1 $326 2 #
vertex $-1 -1 $-1 $326 $526 #
straight-curve $-1 -1 $-1 20 20 0 1 0 0 I I #
coedge $-1 -1 $-1 $327 $412 $527 $528 reversed $202 $-1 #
edge $-1 -1 $-1 $529 -15 $329 5 $327 $530 forward @7 unknown #
convexity-sys-attrib $-1 -1 $-1 $328 $219 #
point $-1 -1 $-1 40 20 0 #
straight-curve $-1 -1 $-1 -40 40 0 0 0 -1 I I #
point $-1 -1 $-1 -40 -40 -20 #
straight-curve $-1 -1 $-1 -40 0 -20 0 1 0 I I #
point $-1 -1 $-1 -40 40 -20 #
loop $-1 -1 $-1 $-1 $377 $349 #
plane-surface $-1 -1 $-1 20 10 0 1 0 0 0 0 -1 forward_v I I I I #
coedge $-1 -1 $-1 $531 $532 $376 $473 forward $350 $-1 #
coedge $-1 -1 $-1 $533 $352 $532 $534 reversed $252 $-1 #
coedge $-1 -1 $-1 $352 $533 $353 $455 forward $252 $-1 #
coedge $-1 -1 $-1 $355 $376 $352 $453 reversed $173 $-1 #
edge $-1 -1 $-1 $456 -20 $535 -10 $352 $536 forward @7 unknown #
coedge $-1 -1 $-1 $354 $353 $537 $538 reversed $161 $-1 #
edge $-1 -1 $-1 $539 0 $456 10 $451 $540 forward @7 unknown #
vertex $-1 -1 $-1 $455 $541 #
straight-curve $-1 -1 $-1 20 20 10 1 0 0 I I #
coedge $-1 -1 $-1 $537 $361 $357 $459 forward $368 $-1 #
edge $542 -1 $-1 $364 -20 $460 20 $357 $543 forward @7 unknown #
vertex $-1 -1 $-1 $459 $544 #
straight-curve $-1 -1 $-1 0 20 0 0 0 1 I I #
point $-1 -1 $-1 0 20 10 #
convexity-sys-attrib $-1 -1 $-1 $-1 $362 #
straight-curve $-1 -1 $-1 20 -20 0 -1 0 0 I I #
point $-1 -1 $-1 0 -20 0 #
coedge $-1 -1 $-1 $367 $545 $546 $547 forward $368 $-1 #
coedge $-1 -1 $-1 $546 $377 $372 $468 reversed $447 $-1 #
edge $-1 -1 $-1 $470 0 $379 10 $372 $548 forward @7 unknown #
convexity-sys-attrib $-1 -1 $-1 $-1 $373 #
vertex $-1 -1 $-1 $373 $549 #
straight-curve $-1 -1 $-1 25 -10 0 1 0 0 I I #
plane-surface $-1 -1 $-1 20 -10 0 0 1 0 0 0 1 forward_v I I I I #
edge $-1 -1 $-1 $535 -15 $475 5 $449 $550 forward @7 unknown #
coedge $-1 -1 $-1 $377 $546 $531 $551 forward $447 $-1 #
vertex $-1 -1 $-1 $551 $552 #
straight-curve $-1 -1 $-1 20 0 10 0 -1 0 I I #
point $-1 -1 $-1 20 -10 10 #
plane-surface $-1 -1 $-1 20 0 0 0 0 1 1 0 0 forward_v I I I I #
coedge $-1 -1 $-1 $395 $390 $386 $480 forward $383 $-1 #
edge $553 -1 $-1 $392 -20 $481 20 $386 $554 forward @7 unknown #
vertex $-1 -1 $-1 $399 $555 #
straight-curve $-1 -1 $-1 40 -20 10 0 0 1 I I #
point $-1 -1 $-1 40 -20 20 #
convexity-sys-attrib $-1 -1 $-1 $-1 $391 #
straight-curve $-1 -1 $-1 20 20 10 1 0 0 I I #
point $-1 -1 $-1 40 20 10 #
convexity-sys-attrib $-1 -1 $-1 $-1 $399 #
straight-curve $-1 -1 $-1 20 -20 10 -1 0 0 I I #
model_id-kcp-attrib $-1 -1 $-1 $-1 $403 1 1021382386 1021382386 239730689 10 #
face $556 -1 $-1 $557 $558 $8 $-1 $559 forward single #
plane-surface $-1 -1 $-1 20 20 10 0 -1 0 0 0 -1 forward_v I I I I #
coedge $-1 -1 $-1 $560 $426 $434 $524 reversed $404 $-1 #
coedge $-1 -1 $-1 $424 $406 $561 $562 reversed $302 $-1 #
coedge $-1 -1 $-1 $426 $560 $406 $495 forward $404 $-1 #
edge $-1 -1 $-1 $563 -10 $429 10 $494 $564 forward @7 unknown #
coedge $-1 -1 $-1 $565 $566 $407 $497 reversed $567 $-1 #
edge $568 -1 $-1 $502 -40 $508 40 $496 $569 forward @7 unknown #
coedge $-1 -1 $-1 $570 $408 $413 $511 reversed $500 $-1 #
coedge $-1 -1 $-1 $408 $570 $565 $571 forward $500 $-1 #
loop $-1 -1 $-1 $-1 $499 $557 #
attrib_edge_convexity-kcp-attrib $-1 -1 $572 $-1 $409 1 #
vertex $-1 -1 $-1 $497 $573 #
straight-curve $-1 -1 $-1 0 -40 -20 -1 0 0 I I #
coedge $-1 -1 $-1 $574 $410 $566 $575 reversed $506 $-1 #
coedge $-1 -1 $-1 $410 $574 $412 $510 forward $506 $-1 #
loop $-1 -1 $-1 $-1 $505 $576 #
attrib_edge_convexity-kcp-attrib $-1 -1 $577 $-1 $411 1 #
vertex $-1 -1 $-1 $411 $578 #
straight-curve $-1 -1 $-1 0 40 -20 1 0 0 I I #
edge $-1 -1 $-1 $579 -20 $415 20 $412 $580 forward @7 unknown #
edge $581 -1 $-1 $582 -20 $416 20 $413 $583 forward @7 unknown #
convexity-sys-attrib $-1 -1 $-1 $414 $307 #
point $-1 -1 $-1 40 40 -20 #
point $-1 -1 $-1 40 -40 -20 #
coedge $-1 -1 $-1 $561 $584 $423 $516 forward $558 $-1 #
edge $-1 -1 $-1 $582 -40 $517 -20 $423 $585 forward @7 unknown #
vertex $-1 -1 $-1 $516 $586 #
straight-curve $-1 -1 $-1 40 -20 5 0 0 1 I I #
attrib_edge_convexity-kcp-attrib $-1 -1 $587 $-1 $427 2 #
straight-curve $-1 -1 $-1 0 0 0 0 1 0 I I #
convexity-sys-attrib $-1 -1 $-1 $428 $320 #
point $-1 -1 $-1 0 -20 0 #
coedge $-1 -1 $-1 $434 $433 $588 $589 reversed $435 $-1 #
edge $-1 -1 $-1 $590 -10 $437 10 $434 $591 forward @7 unknown #
convexity-sys-attrib $-1 -1 $-1 $436 $326 #
point $-1 -1 $-1 0 20 0 #
coedge $-1 -1 $-1 $592 $588 $439 $528 forward $558 $-1 #
edge $-1 -1 $-1 $529 20 $579 40 $439 $585 forward @7 unknown #
vertex $-1 -1 $-1 $440 $593 #
straight-curve $-1 -1 $-1 40 20 5 0 0 -1 I I #
coedge $-1 -1 $-1 $594 $449 $474 $551 reversed $350 $-1 #
coedge $-1 -1 $-1 $449 $594 $450 $534 forward $350 $-1 #
coedge $-1 -1 $-1 $451 $450 $595 $596 reversed $252 $-1 #
edge $-1 -1 $-1 $597 0 $535 10 $532 $598 forward @7 unknown #
vertex $-1 -1 $-1 $534 $599 #
straight-curve $-1 -1 $-1 40 0 10 0 -1 0 I I #
coedge $-1 -1 $-1 $595 $458 $454 $538 forward $368 $-1 #
edge $600 -1 $-1 $460 -20 $539 20 $454 $601 forward @7 unknown #
vertex $-1 -1 $-1 $538 $602 #
straight-curve $-1 -1 $-1 40 20 0 0 0 1 I I #
point $-1 -1 $-1 40 20 10 #
convexity-sys-attrib $-1 -1 $-1 $-1 $459 #
straight-curve $-1 -1 $-1 0 0 0 0 1 0 I I #
point $-1 -1 $-1 0 20 0 #
coedge $-1 -1 $-1 $466 $595 $594 $603 forward $368 $-1 #
coedge $-1 -1 $-1 $474 $467 $466 $547 reversed $447 $-1 #
edge $604 -1 $-1 $605 -10 $470 10 $546 $606 forward @7 unknown #
straight-curve $-1 -1 $-1 20 -10 0 0 0 1 I I #
point $-1 -1 $-1 20 -10 0 #
straight-curve $-1 -1 $-1 25 10 10 -1 0 0 I I #
edge $-1 -1 $-1 $605 0 $475 10 $474 $607 forward @7 unknown #
point $-1 -1 $-1 20 10 10 #
convexity-sys-attrib $-1 -1 $-1 $-1 $480 #
straight-curve $-1 -1 $-1 40 0 10 0 -1 0 I I #
point $-1 -1 $-1 40 -20 10 #
model_id-kcp-attrib $-1 -1 $-1 $-1 $490 1 1021382386 1021382386 239730689 11 #
face $608 -1 $-1 $609 $500 $8 $-1 $610 reversed single #
loop $-1 -1 $-1 $-1 $561 $490 #
plane-surface $-1 -1 $-1 0 0 20 0 0 1 1 0 0 forward_v I I I I #
coedge $-1 -1 $-1 $494 $492 $611 $612 reversed $404 $-1 #
coedge $-1 -1 $-1 $611 $515 $493 $562 forward $558 $-1 #
edge $-1 -1 $-1 $517 -30 $563 10 $561 $613 forward @7 unknown #
vertex $-1 -1 $-1 $562 $614 #
straight-curve $-1 -1 $-1 0 -20 10 0 0 -1 I I #
coedge $-1 -1 $-1 $615 $496 $499 $571 reversed $567 $-1 #
coedge $-1 -1 $-1 $496 $615 $504 $575 forward $567 $-1 #
loop $-1 -1 $-1 $-1 $566 $609 #
attrib_edge_convexity-kcp-attrib $-1 -1 $616 $-1 $497 1 #
straight-curve $-1 -1 $-1 -40 0 -20 0 1 0 I I #
coedge $-1 -1 $-1 $499 $498 $584 $617 reversed $500 $-1 #
edge $618 -1 $-1 $619 -20 $502 20 $565 $620 forward @7 unknown #
convexity-sys-attrib $-1 -1 $-1 $501 $409 #
point $-1 -1 $-1 -40 -40 -20 #
coedge $-1 -1 $-1 $505 $504 $592 $621 reversed $506 $-1 #
edge $622 -1 $-1 $623 -20 $508 20 $504 $624 forward @7 unknown #
face $625 -1 $-1 $313 $506 $8 $-1 $626 reversed single #
convexity-sys-attrib $-1 -1 $-1 $507 $411 #
point $-1 -1 $-1 -40 40 -20 #
vertex $-1 -1 $-1 $528 $627 #
straight-curve $-1 -1 $-1 40 40 0 0 0 -1 I I #
attrib_edge_convexity-kcp-attrib $-1 -1 $628 $-1 $511 1 #
vertex $-1 -1 $-1 $516 $629 #
straight-curve $-1 -1 $-1 40 -40 0 0 0 -1 I I #
coedge $-1 -1 $-1 $515 $630 $570 $617 forward $558 $-1 #
straight-curve $-1 -1 $-1 40 0 20 0 1 0 I I #
point $-1 -1 $-1 40 -20 20 #
convexity-sys-attrib $-1 -1 $-1 $519 $427 #
coedge $-1 -1 $-1 $527 $611 $523 $589 forward $558 $-1 #
edge $-1 -1 $-1 $590 -10 $529 30 $588 $631 forward @7 unknown #
vertex $-1 -1 $-1 $612 $632 #
straight-curve $-1 -1 $-1 0 20 10 0 0 -1 I I #
coedge $-1 -1 $-1 $630 $527 $574 $621 forward $558 $-1 #
point $-1 -1 $-1 40 20 20 #
coedge $-1 -1 $-1 $532 $531 $545 $603 reversed $350 $-1 #
coedge $-1 -1 $-1 $545 $537 $533 $596 forward $368 $-1 #
edge $633 -1 $-1 $539 -20 $597 -10 $533 $634 forward @7 unknown #
vertex $-1 -1 $-1 $596 $635 #
straight-curve $-1 -1 $-1 40 10 0 0 0 1 I I #
point $-1 -1 $-1 40 10 10 #
convexity-sys-attrib $-1 -1 $-1 $-1 $538 #
straight-curve $-1 -1 $-1 20 20 0 1 0 0 I I #
point $-1 -1 $-1 40 20 0 #
edge $636 -1 $-1 $597 -15 $605 5 $594 $637 forward @7 unknown #
convexity-sys-attrib $-1 -1 $-1 $-1 $547 #
vertex $-1 -1 $-1 $603 $638 #
straight-curve $-1 -1 $-1 20 0 0 0 -1 0 I I #
straight-curve $-1 -1 $-1 20 10 0 0 0 1 I I #
model_id-kcp-attrib $-1 -1 $-1 $-1 $557 1 1021382386 1021382386 239730689 12 #
face $639 -1 $-1 $576 $567 $8 $-1 $640 reversed single #
plane-surface $-1 -1 $-1 0 -40 0 0 1 0 0 0 1 forward_v I I I I #
coedge $-1 -1 $-1 $588 $561 $560 $612 forward $558 $-1 #
edge $-1 -1 $-1 $563 -20 $590 20 $611 $641 forward @7 unknown #
straight-curve $-1 -1 $-1 10 -20 20 -1 0 0 I I #
point $-1 -1 $-1 0 -20 20 #
coedge $-1 -1 $-1 $566 $565 $630 $642 reversed $567 $-1 #
convexity-sys-attrib $-1 -1 $-1 $568 $497 #
edge $643 -1 $-1 $619 -40 $582 40 $570 $644 forward @7 unknown #
attrib_edge_convexity-kcp-attrib $-1 -1 $645 $-1 $571 1 #
vertex $-1 -1 $-1 $642 $646 #
straight-curve $-1 -1 $-1 -40 -40 0 0 0 -1 I I #
edge $-1 -1 $-1 $579 -40 $623 40 $574 $647 forward @7 unknown #
attrib_edge_convexity-kcp-attrib $-1 -1 $648 $-1 $575 1 #
vertex $-1 -1 $-1 $621 $649 #
straight-curve $-1 -1 $-1 -40 40 0 0 0 -1 I I #
model_id-kcp-attrib $-1 -1 $-1 $-1 $576 1 1021382386 1021382386 239730689 14 #
plane-surface $-1 -1 $-1 0 40 0 0 -1 0 0 0 -1 forward_v I I I I #
point $-1 -1 $-1 40 40 20 #
convexity-sys-attrib $-1 -1 $-1 $581 $511 #
point $-1 -1 $-1 40 -40 20 #
coedge $-1 -1 $-1 $584 $592 $615 $642 forward $558 $-1 #
straight-curve $-1 -1 $-1 10 20 20 1 0 0 I I #
point $-1 -1 $-1 0 20 20 #
convexity-sys-attrib $-1 -1 $-1 $-1 $596 #
straight-curve $-1 -1 $-1 40 0 0 0 -1 0 I I #
point $-1 -1 $-1 40 10 0 #
convexity-sys-attrib $-1 -1 $-1 $-1 $603 #
straight-curve $-1 -1 $-1 25 10 0 -1 0 0 I I #
point $-1 -1 $-1 20 10 0 #
model_id-kcp-attrib $-1 -1 $-1 $-1 $609 1 1021382386 1021382386 239730689 13 #
plane-surface $-1 -1 $-1 -40 0 0 1 0 0 0 0 -1 forward_v I I I I #
straight-curve $-1 -1 $-1 0 0 20 0 1 0 I I #
edge $650 -1 $-1 $623 -40 $619 40 $615 $651 forward @7 unknown #
attrib_edge_convexity-kcp-attrib $-1 -1 $652 $-1 $617 1 #
straight-curve $-1 -1 $-1 0 -40 20 1 0 0 I I #
convexity-sys-attrib $-1 -1 $-1 $618 $571 #
point $-1 -1 $-1 -40 -40 20 #
straight-curve $-1 -1 $-1 0 40 20 -1 0 0 I I #
convexity-sys-attrib $-1 -1 $-1 $622 $575 #
point $-1 -1 $-1 -40 40 20 #
attrib_edge_convexity-kcp-attrib $-1 -1 $653 $-1 $642 1 #
straight-curve $-1 -1 $-1 -40 0 20 0 -1 0 I I #
convexity-sys-attrib $-1 -1 $-1 $643 $617 #
convexity-sys-attrib $-1 -1 $-1 $650 $642 #
End-of-ACIS-data 