  0
SECTION
  2
HEADER
  9
$ACADVER
  1
AC1009
  9
$INSBASE
 10
0.0
 20
0.0
 30
0.0
  9
$EXTMIN
 10
-5.0
 20
-5.0
 30
-2.5
  9
$EXTMAX
 10
10.0
 20
12.5
 30
12.5
  9
$LIMMIN
 10
0.0
 20
0.0
  9
$LIMMAX
 10
12.0
 20
9.0
  9
$ORTHOMODE
 70
     0
  9
$REGENMODE
 70
     1
  9
$FILLMODE
 70
     1
  9
$QTEXTMODE
 70
     0
  9
$MIRRTEXT
 70
     1
  9
$DRAGMODE
 70
     2
  9
$LTSCALE
 40
1.0
  9
$OSMODE
 70
     0
  9
$ATTMODE
 70
     1
  9
$TEXTSIZE
 40
0.2
  9
$TRACEWID
 40
0.05
  9
$TEXTSTYLE
  7
STANDARD
  9
$CLAYER
  8
0
  9
$CELTYPE
  6
BYLAYER
  9
$CECOLOR
 62
   256
  9
$DIMSCALE
 40
1.0
  9
$DIMASZ
 40
0.18
  9
$DIMEXO
 40
0.0625
  9
$DIMDLI
 40
0.38
  9
$DIMRND
 40
0.0
  9
$DIMDLE
 40
0.0
  9
$DIMEXE
 40
0.18
  9
$DIMTP
 40
0.0
  9
$DIMTM
 40
0.0
  9
$DIMTXT
 40
0.18
  9
$DIMCEN
 40
0.09
  9
$DIMTSZ
 40
0.0
  9
$DIMTOL
 70
     0
  9
$DIMLIM
 70
     0
  9
$DIMTIH
 70
     1
  9
$DIMTOH
 70
     1
  9
$DIMSE1
 70
     0
  9
$DIMSE2
 70
     0
  9
$DIMTAD
 70
     0
  9
$DIMZIN
 70
     0
  9
$DIMBLK
  1

  9
$DIMASO
 70
     1
  9
$DIMSHO
 70
     1
  9
$DIMPOST
  1

  9
$DIMAPOST
  1

  9
$DIMALT
 70
     0
  9
$DIMALTD
 70
     2
  9
$DIMALTF
 40
25.4
  9
$DIMLFAC
 40
1.0
  9
$DIMTOFL
 70
     0
  9
$DIMTVP
 40
0.0
  9
$DIMTIX
 70
     0
  9
$DIMSOXD
 70
     0
  9
$DIMSAH
 70
     0
  9
$DIMBLK1
  1

  9
$DIMBLK2
  1

  9
$DIMSTYLE
  2
*UNNAMED
  9
$DIMCLRD
 70
     0
  9
$DIMCLRE
 70
     0
  9
$DIMCLRT
 70
     0
  9
$DIMTFAC
 40
1.0
  9
$DIMGAP
 40
0.09
  9
$LUNITS
 70
     2
  9
$LUPREC
 70
     4
  9
$SKETCHINC
 40
0.1
  9
$FILLETRAD
 40
0.0
  9
$AUNITS
 70
     0
  9
$AUPREC
 70
     0
  9
$MENU
  1
acad
  9
$ELEVATION
 40
0.0
  9
$PELEVATION
 40
0.0
  9
$THICKNESS
 40
0.0
  9
$LIMCHECK
 70
     0
  9
$BLIPMODE
 70
     1
  9
$CHAMFERA
 40
0.0
  9
$CHAMFERB
 40
0.0
  9
$SKPOLY
 70
     0
  9
$TDCREATE
 40
2449183.543403021
  9
$TDUPDATE
 40
2449183.543403021
  9
$TDINDWG
 40
0.0000000000
  9
$TDUSRTIMER
 40
0.0000000000
  9
$USRTIMER
 70
     1
  9
$ANGBASE
 50
0.0
  9
$ANGDIR
 70
     0
  9
$PDMODE
 70
     0
  9
$PDSIZE
 40
0.0
  9
$PLINEWID
 40
0.0
  9
$COORDS
 70
     0
  9
$SPLFRAME
 70
     0
  9
$SPLINETYPE
 70
     6
  9
$SPLINESEGS
 70
     8
  9
$ATTDIA
 70
     0
  9
$ATTREQ
 70
     1
  9
$HANDLING
 70
     1
  9
$HANDSEED
  5
18C
  9
$SURFTAB1
 70
     6
  9
$SURFTAB2
 70
     6
  9
$SURFTYPE
 70
     6
  9
$SURFU
 70
     6
  9
$SURFV
 70
     6
  9
$UCSNAME
  2

  9
$UCSORG
 10
0.0
 20
0.0
 30
0.0
  9
$UCSXDIR
 10
1.0
 20
0.0
 30
0.0
  9
$UCSYDIR
 10
0.0
 20
1.0
 30
0.0
  9
$PUCSNAME
  2

  9
$PUCSORG
 10
0.0
 20
0.0
 30
0.0
  9
$PUCSXDIR
 10
1.0
 20
0.0
 30
0.0
  9
$PUCSYDIR
 10
0.0
 20
1.0
 30
0.0
  9
$USERI1
 70
     0
  9
$USERI2
 70
     0
  9
$USERI3
 70
     0
  9
$USERI4
 70
     0
  9
$USERI5
 70
     0
  9
$USERR1
 40
0.0
  9
$USERR2
 40
0.0
  9
$USERR3
 40
0.0
  9
$USERR4
 40
0.0
  9
$USERR5
 40
0.0
  9
$WORLDVIEW
 70
     1
  9
$SHADEDGE
 70
     3
  9
$SHADEDIF
 70
    70
  9
$TILEMODE
 70
     1
  9
$MAXACTVP
 70
    16
  9
$PINSBASE
 10
0.0
 20
0.0
 30
0.0
  9
$PLIMCHECK
 70
     0
  9
$PEXTMIN
 10
1.000000E+20
 20
1.000000E+20
 30
1.000000E+20
  9
$PEXTMAX
 10
-1.000000E+20
 20
-1.000000E+20
 30
-1.000000E+20
  9
$PLIMMIN
 10
0.0
 20
0.0
  9
$PLIMMAX
 10
12.0
 20
9.0
  9
$UNITMODE
 70
     0
  9
$VISRETAIN
 70
     0
  9
$PLINEGEN
 70
     0
  9
$PSLTSCALE
 70
     0
  9
$TREEDEPTH
 70
  3020
  9
$DWGCODEPAGE
  3
undefined
  0
ENDSEC
  0
SECTION
  2
TABLES
  0
TABLE
  2
VPORT
 70
     2
  0
VPORT
  2
*ACTIVE
 70
     0
 10
0.0
 20
0.0
 11
1.0
 21
1.0
 12
3.638269
 22
0.415227
 13
0.0
 23
0.0
 14
1.0
 24
1.0
 15
0.0
 25
0.0
 16
0.5
 26
1.0
 36
0.75
 17
0.0
 27
0.0
 37
0.0
 40
15.778641
 41
1.594883
 42
50.0
 43
0.0
 44
0.0
 50
0.0
 51
0.0
 71
     0
 72
   100
 73
     1
 74
     1
 75
     0
 76
     0
 77
     0
 78
     0
  0
ENDTAB
  0
TABLE
  2
LTYPE
 70
     1
  0
LTYPE
  2
CONTINUOUS
 70
    64
  3
Solid line
 72
    65
 73
     0
 40
0.0
  0
ENDTAB
  0
TABLE
  2
LAYER
 70
     2
  0
LAYER
  2
0
 70
    64
 62
     7
  6
CONTINUOUS
  0
LAYER
  2
AME_FRZ
 70
    65
 62
     7
  6
CONTINUOUS
  0
ENDTAB
  0
TABLE
  2
STYLE
 70
     1
  0
STYLE
  2
STANDARD
 70
     0
 40
0.0
 41
1.0
 50
0.0
 71
     0
 42
0.2
  3
txt
  4

  0
ENDTAB
  0
TABLE
  2
VIEW
 70
     0
  0
ENDTAB
  0
TABLE
  2
UCS
 70
     0
  0
ENDTAB
  0
TABLE
  2
APPID
 70
     2
  0
APPID
  2
ACAD
 70
    64
  0
APPID
  2
AME_SOL
 70
    64
  0
ENDTAB
  0
TABLE
  2
DIMSTYLE
 70
     0
  0
ENDTAB
  0
ENDSEC
  0
SECTION
  2
BLOCKS
  0
BLOCK
  8
0
  5
1
  2
AME_NIL
 70
    64
 10
0.0
 20
0.0
 30
0.0
  1
AME_NIL
  3
AME_NIL
  0
ENDBLK
  8
0
  5
2
  0
BLOCK
  8
0
  5
4
  2
AME_SOL
 70
    64
 10
0.0
 20
0.0
 30
0.0
  1
AME_SOL
  3
AME_SOL
  0
ENDBLK
  8
0
  5
5
  0
BLOCK
  8
0
  5
7
  2
*U2
 70
    65
 10
0.0
 20
0.0
 30
0.0
  1
*U
  3
*U
  0
LINE
  8
0
 62
     0
  5
8
 10
10.0
 20
10.0
 30
0.0
 11
10.0
 21
10.0
 31
10.0
1001
AME_SOL
1070
     1
1071
       18
  0
LINE
  8
0
 62
     0
  5
9
 10
10.0
 20
10.0
 30
10.0
 11
10.0
 21
0.0
 31
10.0
1001
AME_SOL
1070
     1
1071
       17
  0
LINE
  8
0
 62
     0
  5
A
 10
0.0
 20
10.0
 30
10.0
 11
10.0
 21
10.0
 31
10.0
1001
AME_SOL
1070
     1
1071
       16
  0
LINE
  8
0
 62
     0
  5
B
 10
0.0
 20
10.0
 30
0.0
 11
0.0
 21
10.0
 31
10.0
1001
AME_SOL
1070
     1
1071
       15
  0
LINE
  8
0
 62
     0
  5
C
 10
0.0
 20
10.0
 30
10.0
 11
0.0
 21
0.0
 31
10.0
1001
AME_SOL
1070
     1
1071
       14
  0
LINE
  8
0
 62
     0
  5
D
 10
0.0
 20
0.0
 30
0.0
 11
0.0
 21
0.0
 31
10.0
1001
AME_SOL
1070
     1
1071
       13
  0
LINE
  8
0
 62
     0
  5
E
 10
10.0
 20
0.0
 30
10.0
 11
10.0
 21
0.0
 31
0.0
1001
AME_SOL
1070
     1
1071
       12
  0
LINE
  8
0
 62
     0
  5
F
 10
0.0
 20
0.0
 30
10.0
 11
10.0
 21
0.0
 31
10.0
1001
AME_SOL
1070
     1
1071
       11
  0
LINE
  8
0
 62
     0
  5
10
 10
0.0
 20
0.0
 30
0.0
 11
10.0
 21
0.0
 31
0.0
1001
AME_SOL
1070
     1
1071
       10
  0
LINE
  8
0
 62
     0
  5
11
 10
0.0
 20
10.0
 30
0.0
 11
0.0
 21
0.0
 31
0.0
1001
AME_SOL
1070
     1
1071
        9
  0
LINE
  8
0
 62
     0
  5
12
 10
10.0
 20
0.0
 30
0.0
 11
10.0
 21
10.0
 31
0.0
1001
AME_SOL
1070
     1
1071
        8
  0
LINE
  8
0
 62
     0
  5
13
 10
10.0
 20
10.0
 30
0.0
 11
0.0
 21
10.0
 31
0.0
1001
AME_SOL
1070
     1
1071
        7
  0
ENDBLK
  8
0
  5
14
  0
BLOCK
  8
0
  5
18
  2
AME_MAT
 70
    64
 10
0.0
 20
0.0
 30
0.0
  1
AME_MAT
  3
AME_MAT
  0
ENDBLK
  8
0
  5
19
  0
BLOCK
  8
0
  5
1E
  2
*U4
 70
    65
 10
0.0
 20
0.0
 30
0.0
  1
*U
  3
*U
  0
CIRCLE
  8
0
 62
     0
  5
1F
 10
0.0
 20
0.0
 30
0.0
 40
2.5
1001
AME_SOL
1070
     1
1071
        5
  0
CIRCLE
  8
0
 62
     0
  5
20
 10
0.0
 20
0.0
 30
5.0
 40
2.5
1001
AME_SOL
1070
     1
1071
        4
  0
LINE
  8
0
 62
     0
  5
21
 10
-0.956708
 20
2.309699
 30
0.0
 11
-0.956708
 21
2.309699
 31
5.0
1001
AME_SOL
1070
     0
1071
        1
  0
LINE
  8
0
 62
     0
  5
22
 10
-1.767767
 20
1.767767
 30
0.0
 11
-1.767767
 21
1.767767
 31
5.0
1001
AME_SOL
1070
     0
1071
        1
  0
LINE
  8
0
 62
     0
  5
23
 10
-2.309699
 20
0.956709
 30
0.0
 11
-2.309699
 21
0.956709
 31
5.0
1001
AME_SOL
1070
     0
1071
        1
  0
LINE
  8
0
 62
     0
  5
24
 10
-2.5
 20
0.0
 30
0.0
 11
-2.5
 21
0.0
 31
5.0
1001
AME_SOL
1070
     0
1071
        1
  0
LINE
  8
0
 62
     0
  5
25
 10
-2.309699
 20
-0.956708
 30
0.0
 11
-2.309699
 21
-0.956708
 31
5.0
1001
AME_SOL
1070
     0
1071
        1
  0
LINE
  8
0
 62
     0
  5
26
 10
-1.767767
 20
-1.767767
 30
0.0
 11
-1.767767
 21
-1.767767
 31
5.0
1001
AME_SOL
1070
     0
1071
        1
  0
LINE
  8
0
 62
     0
  5
27
 10
-0.956709
 20
-2.309699
 30
0.0
 11
-0.956709
 21
-2.309699
 31
5.0
1001
AME_SOL
1070
     0
1071
        1
  0
LINE
  8
0
 62
     0
  5
28
 10
0.0
 20
-2.5
 30
0.0
 11
0.0
 21
-2.5
 31
5.0
1001
AME_SOL
1070
     0
1071
        1
  0
LINE
  8
0
 62
     0
  5
29
 10
0.956708
 20
-2.309699
 30
0.0
 11
0.956708
 21
-2.309699
 31
5.0
1001
AME_SOL
1070
     0
1071
        1
  0
LINE
  8
0
 62
     0
  5
2A
 10
1.767767
 20
-1.767767
 30
0.0
 11
1.767767
 21
-1.767767
 31
5.0
1001
AME_SOL
1070
     0
1071
        1
  0
LINE
  8
0
 62
     0
  5
2B
 10
2.309699
 20
-0.956709
 30
0.0
 11
2.309699
 21
-0.956709
 31
5.0
1001
AME_SOL
1070
     0
1071
        1
  0
LINE
  8
0
 62
     0
  5
2C
 10
2.5
 20
0.0
 30
0.0
 11
2.5
 21
0.0
 31
5.0
1001
AME_SOL
1070
     0
1071
        1
  0
LINE
  8
0
 62
     0
  5
2D
 10
2.309699
 20
0.956709
 30
0.0
 11
2.309699
 21
0.956709
 31
5.0
1001
AME_SOL
1070
     0
1071
        1
  0
LINE
  8
0
 62
     0
  5
2E
 10
1.767767
 20
1.767767
 30
0.0
 11
1.767767
 21
1.767767
 31
5.0
1001
AME_SOL
1070
     0
1071
        1
  0
LINE
  8
0
 62
     0
  5
2F
 10
0.956709
 20
2.309699
 30
0.0
 11
0.956709
 21
2.309699
 31
5.0
1001
AME_SOL
1070
     0
1071
        1
  0
LINE
  8
0
 62
     0
  5
30
 10
0.0
 20
2.5
 30
0.0
 11
0.0
 21
2.5
 31
5.0
1001
AME_SOL
1070
     0
1071
        1
  0
ENDBLK
  8
0
  5
31
  0
BLOCK
  8
0
  5
D4
  2
SOLAXES
 70
     0
 10
0.0
 20
0.0
 30
0.0
  1
SOLAXES
  3
SOLAXES
  0
LINE
  8
0
 62
     0
  5
D5
 10
0.0
 20
0.0
 30
0.0
 11
4.733593
 21
0.0
 31
0.0
  0
LINE
  8
0
 62
     0
  5
D6
 10
0.0
 20
0.0
 30
0.0
 11
0.0
 21
4.733593
 31
0.0
  0
LINE
  8
0
 62
     0
  5
D7
 10
0.0
 20
0.0
 30
0.0
 11
0.0
 21
0.0
 31
4.733593
  0
CIRCLE
  8
0
 62
     0
  5
D8
 10
0.0
 20
0.0
 30
4.260233
 40
0.23668
210
1.0
220
0.0
230
0.0
  0
LINE
  8
0
 62
     0
  5
D9
 10
4.260233
 20
0.23668
 30
0.0
 11
4.733593
 21
0.0
 31
0.0
  0
LINE
  8
0
 62
     0
  5
DA
 10
4.260233
 20
0.0
 30
0.23668
 11
4.733593
 21
0.0
 31
0.0
  0
LINE
  8
0
 62
     0
  5
DB
 10
4.260233
 20
-0.23668
 30
0.0
 11
4.733593
 21
0.0
 31
0.0
  0
LINE
  8
0
 62
     0
  5
DC
 10
4.260233
 20
0.0
 30
-0.23668
 11
4.733593
 21
0.0
 31
0.0
  0
CIRCLE
  8
0
 62
     0
  5
DD
 10
0.0
 20
0.0
 30
4.260233
 40
0.23668
210
0.0
220
1.0
230
0.0
  0
LINE
  8
0
 62
     0
  5
DE
 10
0.23668
 20
4.260233
 30
0.0
 11
0.0
 21
4.733593
 31
0.0
  0
LINE
  8
0
 62
     0
  5
DF
 10
0.0
 20
4.260233
 30
0.23668
 11
0.0
 21
4.733593
 31
0.0
  0
LINE
  8
0
 62
     0
  5
E0
 10
-0.23668
 20
4.260233
 30
0.0
 11
0.0
 21
4.733593
 31
0.0
  0
LINE
  8
0
 62
     0
  5
E1
 10
0.0
 20
4.260233
 30
-0.23668
 11
0.0
 21
4.733593
 31
0.0
  0
CIRCLE
  8
0
 62
     0
  5
E2
 10
0.0
 20
0.0
 30
3.786874
 40
0.23668
210
0.0
220
1.0
230
0.0
  0
LINE
  8
0
 62
     0
  5
E3
 10
0.23668
 20
3.786874
 30
0.0
 11
0.0
 21
4.260233
 31
0.0
  0
LINE
  8
0
 62
     0
  5
E4
 10
0.0
 20
3.786874
 30
0.23668
 11
0.0
 21
4.260233
 31
0.0
  0
LINE
  8
0
 62
     0
  5
E5
 10
-0.23668
 20
3.786874
 30
0.0
 11
0.0
 21
4.260233
 31
0.0
  0
LINE
  8
0
 62
     0
  5
E6
 10
0.0
 20
3.786874
 30
-0.23668
 11
0.0
 21
4.260233
 31
0.0
  0
CIRCLE
  8
0
 62
     0
  5
E7
 10
0.0
 20
0.0
 30
4.260233
 40
0.23668
  0
LINE
  8
0
 62
     0
  5
E8
 10
0.23668
 20
0.0
 30
4.260233
 11
0.0
 21
0.0
 31
4.733593
  0
LINE
  8
0
 62
     0
  5
E9
 10
0.0
 20
0.23668
 30
4.260233
 11
0.0
 21
0.0
 31
4.733593
  0
LINE
  8
0
 62
     0
  5
EA
 10
-0.23668
 20
0.0
 30
4.260233
 11
0.0
 21
0.0
 31
4.733593
  0
LINE
  8
0
 62
     0
  5
EB
 10
0.0
 20
-0.23668
 30
4.260233
 11
0.0
 21
0.0
 31
4.733593
  0
CIRCLE
  8
0
 62
     0
  5
EC
 10
0.0
 20
0.0
 30
3.786874
 40
0.23668
  0
LINE
  8
0
 62
     0
  5
ED
 10
0.23668
 20
0.0
 30
3.786874
 11
0.0
 21
0.0
 31
4.260233
  0
LINE
  8
0
 62
     0
  5
EE
 10
0.0
 20
0.23668
 30
3.786874
 11
0.0
 21
0.0
 31
4.260233
  0
LINE
  8
0
 62
     0
  5
EF
 10
-0.23668
 20
0.0
 30
3.786874
 11
0.0
 21
0.0
 31
4.260233
  0
LINE
  8
0
 62
     0
  5
F0
 10
0.0
 20
-0.23668
 30
3.786874
 11
0.0
 21
0.0
 31
4.260233
  0
CIRCLE
  8
0
 62
     0
  5
F1
 10
0.0
 20
0.0
 30
3.313515
 40
0.23668
  0
LINE
  8
0
 62
     0
  5
F2
 10
0.23668
 20
0.0
 30
3.313515
 11
0.0
 21
0.0
 31
3.786874
  0
LINE
  8
0
 62
     0
  5
F3
 10
0.0
 20
0.23668
 30
3.313515
 11
0.0
 21
0.0
 31
3.786874
  0
LINE
  8
0
 62
     0
  5
F4
 10
-0.23668
 20
0.0
 30
3.313515
 11
0.0
 21
0.0
 31
3.786874
  0
LINE
  8
0
 62
     0
  5
F5
 10
0.0
 20
-0.23668
 30
3.313515
 11
0.0
 21
0.0
 31
3.786874
  0
ENDBLK
  8
0
  5
F6
  0
BLOCK
  8
0
  5
5A
  2
*U6
 70
    65
 10
0.0
 20
0.0
 30
0.0
  1
*U
  3
*U
  0
LINE
  8
0
 62
     7
  5
5B
 10
10.0
 20
10.0
 30
0.0
 11
10.0
 21
10.0
 31
10.0
1001
AME_SOL
1070
     1
1071
       26
  0
LINE
  8
0
 62
     7
  5
5C
 10
10.0
 20
10.0
 30
10.0
 11
10.0
 21
0.0
 31
10.0
1001
AME_SOL
1070
     1
1071
       25
  0
LINE
  8
0
 62
     7
  5
5D
 10
7.5
 20
10.0
 30
10.0
 11
10.0
 21
10.0
 31
10.0
1001
AME_SOL
1070
     1
1071
       24
  0
LINE
  8
0
 62
     7
  5
5E
 10
0.0
 20
10.0
 30
10.0
 11
2.5
 21
10.0
 31
10.0
1001
AME_SOL
1070
     1
1071
       23
  0
LINE
  8
0
 62
     7
  5
5F
 10
0.0
 20
10.0
 30
0.0
 11
0.0
 21
10.0
 31
10.0
1001
AME_SOL
1070
     1
1071
       22
  0
LINE
  8
0
 62
     7
  5
60
 10
0.0
 20
10.0
 30
10.0
 11
0.0
 21
0.0
 31
10.0
1001
AME_SOL
1070
     1
1071
       21
  0
LINE
  8
0
 62
     7
  5
61
 10
0.0
 20
0.0
 30
0.0
 11
0.0
 21
0.0
 31
10.0
1001
AME_SOL
1070
     1
1071
       20
  0
LINE
  8
0
 62
     7
  5
62
 10
10.0
 20
0.0
 30
10.0
 11
10.0
 21
0.0
 31
0.0
1001
AME_SOL
1070
     1
1071
       19
  0
LINE
  8
0
 62
     7
  5
63
 10
0.0
 20
0.0
 30
10.0
 11
10.0
 21
0.0
 31
10.0
1001
AME_SOL
1070
     1
1071
       18
  0
LINE
  8
0
 62
     7
  5
64
 10
0.0
 20
0.0
 30
0.0
 11
10.0
 21
0.0
 31
0.0
1001
AME_SOL
1070
     1
1071
       17
  0
LINE
  8
0
 62
     7
  5
65
 10
0.0
 20
10.0
 30
0.0
 11
0.0
 21
0.0
 31
0.0
1001
AME_SOL
1070
     1
1071
       16
  0
LINE
  8
0
 62
     7
  5
66
 10
10.0
 20
0.0
 30
0.0
 11
10.0
 21
10.0
 31
0.0
1001
AME_SOL
1070
     1
1071
       15
  0
LINE
  8
0
 62
     7
  5
67
 10
10.0
 20
10.0
 30
0.0
 11
0.0
 21
10.0
 31
0.0
1001
AME_SOL
1070
     1
1071
       14
  0
LINE
  8
0
 62
     7
  5
68
 10
7.5
 20
10.0
 30
5.0
 11
2.5
 21
10.0
 31
5.0
1001
AME_SOL
1070
     1
1071
       13
  0
LINE
  8
0
 62
     7
  5
69
 10
7.5
 20
10.0
 30
5.0
 11
7.5
 21
10.0
 31
10.0
1001
AME_SOL
1070
     1
1071
       12
  0
LINE
  8
0
 62
     7
  5
6A
 10
2.5
 20
10.0
 30
5.0
 11
2.5
 21
10.0
 31
10.0
1001
AME_SOL
1070
     1
1071
       11
  0
ARC
  8
0
 62
     7
  5
6B
 10
5.0
 20
10.0
 30
10.0
 40
2.5
 50
180.0
 51
0.0
1001
AME_SOL
1070
     1
1071
       10
  0
ARC
  8
0
 62
     7
  5
6C
 10
5.0
 20
10.0
 30
5.0
 40
2.5
 50
180.0
 51
0.0
1001
AME_SOL
1070
     1
1071
        9
  0
LINE
  8
0
 62
     7
  5
6D
 10
7.5
 20
10.0
 30
5.0
 11
7.5
 21
10.0
 31
10.0
1001
AME_SOL
1070
     0
1071
        1
  0
LINE
  8
0
 62
     7
  5
6E
 10
7.309699
 20
9.043291
 30
5.0
 11
7.309699
 21
9.043291
 31
10.0
1001
AME_SOL
1070
     0
1071
        1
  0
LINE
  8
0
 62
     7
  5
6F
 10
6.767766
 20
8.232233
 30
5.0
 11
6.767766
 21
8.232233
 31
10.0
1001
AME_SOL
1070
     0
1071
        1
  0
LINE
  8
0
 62
     7
  5
70
 10
5.956708
 20
7.690301
 30
5.0
 11
5.956708
 21
7.690301
 31
10.0
1001
AME_SOL
1070
     0
1071
        1
  0
LINE
  8
0
 62
     7
  5
71
 10
5.0
 20
7.5
 30
5.0
 11
5.0
 21
7.5
 31
10.0
1001
AME_SOL
1070
     0
1071
        1
  0
LINE
  8
0
 62
     7
  5
72
 10
4.043291
 20
7.690301
 30
5.0
 11
4.043291
 21
7.690301
 31
10.0
1001
AME_SOL
1070
     0
1071
        1
  0
LINE
  8
0
 62
     7
  5
73
 10
3.232233
 20
8.232233
 30
5.0
 11
3.232233
 21
8.232233
 31
10.0
1001
AME_SOL
1070
     0
1071
        1
  0
LINE
  8
0
 62
     7
  5
74
 10
2.690301
 20
9.043292
 30
5.0
 11
2.690301
 21
9.043292
 31
10.0
1001
AME_SOL
1070
     0
1071
        1
  0
LINE
  8
0
 62
     7
  5
75
 10
2.5
 20
10.0
 30
5.0
 11
2.5
 21
10.0
 31
10.0
1001
AME_SOL
1070
     0
1071
        1
  0
ENDBLK
  8
0
  5
76
  0
BLOCK
  8
0
  5
BC
  2
*U8
 70
    65
 10
0.0
 20
0.0
 30
0.0
  1
*U
  3
*U
  0
CIRCLE
  8
0
 62
     0
  5
BD
 10
0.0
 20
0.0
 30
0.0
 40
2.5
1001
AME_SOL
1070
     1
1071
        5
  0
CIRCLE
  8
0
 62
     0
  5
BE
 10
0.0
 20
0.0
 30
10.0
 40
2.5
1001
AME_SOL
1070
     1
1071
        4
  0
LINE
  8
0
 62
     0
  5
BF
 10
-0.956708
 20
2.309699
 30
0.0
 11
-0.956708
 21
2.309699
 31
10.0
1001
AME_SOL
1070
     0
1071
        1
  0
LINE
  8
0
 62
     0
  5
C0
 10
-1.767767
 20
1.767767
 30
0.0
 11
-1.767767
 21
1.767767
 31
10.0
1001
AME_SOL
1070
     0
1071
        1
  0
LINE
  8
0
 62
     0
  5
C1
 10
-2.309699
 20
0.956709
 30
0.0
 11
-2.309699
 21
0.956709
 31
10.0
1001
AME_SOL
1070
     0
1071
        1
  0
LINE
  8
0
 62
     0
  5
C2
 10
-2.5
 20
0.0
 30
0.0
 11
-2.5
 21
0.0
 31
10.0
1001
AME_SOL
1070
     0
1071
        1
  0
LINE
  8
0
 62
     0
  5
C3
 10
-2.309699
 20
-0.956708
 30
0.0
 11
-2.309699
 21
-0.956708
 31
10.0
1001
AME_SOL
1070
     0
1071
        1
  0
LINE
  8
0
 62
     0
  5
C4
 10
-1.767767
 20
-1.767767
 30
0.0
 11
-1.767767
 21
-1.767767
 31
10.0
1001
AME_SOL
1070
     0
1071
        1
  0
LINE
  8
0
 62
     0
  5
C5
 10
-0.956709
 20
-2.309699
 30
0.0
 11
-0.956709
 21
-2.309699
 31
10.0
1001
AME_SOL
1070
     0
1071
        1
  0
LINE
  8
0
 62
     0
  5
C6
 10
0.0
 20
-2.5
 30
0.0
 11
0.0
 21
-2.5
 31
10.0
1001
AME_SOL
1070
     0
1071
        1
  0
LINE
  8
0
 62
     0
  5
C7
 10
0.956708
 20
-2.309699
 30
0.0
 11
0.956708
 21
-2.309699
 31
10.0
1001
AME_SOL
1070
     0
1071
        1
  0
LINE
  8
0
 62
     0
  5
C8
 10
1.767767
 20
-1.767767
 30
0.0
 11
1.767767
 21
-1.767767
 31
10.0
1001
AME_SOL
1070
     0
1071
        1
  0
LINE
  8
0
 62
     0
  5
C9
 10
2.309699
 20
-0.956709
 30
0.0
 11
2.309699
 21
-0.956709
 31
10.0
1001
AME_SOL
1070
     0
1071
        1
  0
LINE
  8
0
 62
     0
  5
CA
 10
2.5
 20
0.0
 30
0.0
 11
2.5
 21
0.0
 31
10.0
1001
AME_SOL
1070
     0
1071
        1
  0
LINE
  8
0
 62
     0
  5
CB
 10
2.309699
 20
0.956709
 30
0.0
 11
2.309699
 21
0.956709
 31
10.0
1001
AME_SOL
1070
     0
1071
        1
  0
LINE
  8
0
 62
     0
  5
CC
 10
1.767767
 20
1.767767
 30
0.0
 11
1.767767
 21
1.767767
 31
10.0
1001
AME_SOL
1070
     0
1071
        1
  0
LINE
  8
0
 62
     0
  5
CD
 10
0.956709
 20
2.309699
 30
0.0
 11
0.956709
 21
2.309699
 31
10.0
1001
AME_SOL
1070
     0
1071
        1
  0
LINE
  8
0
 62
     0
  5
CE
 10
0.0
 20
2.5
 30
0.0
 11
0.0
 21
2.5
 31
10.0
1001
AME_SOL
1070
     0
1071
        1
  0
ENDBLK
  8
0
  5
CF
  0
BLOCK
  8
0
  5
F9
  2
*U9
 70
    65
 10
0.0
 20
0.0
 30
0.0
  1
*U
  3
*U
  0
LINE
  8
0
 62
     7
  5
FA
 10
10.0
 20
10.0
 30
0.0
 11
10.0
 21
10.0
 31
10.0
1001
AME_SOL
1070
     1
1071
       31
  0
LINE
  8
0
 62
     7
  5
FB
 10
10.0
 20
10.0
 30
10.0
 11
10.0
 21
0.0
 31
10.0
1001
AME_SOL
1070
     1
1071
       30
  0
LINE
  8
0
 62
     7
  5
FC
 10
7.5
 20
10.0
 30
10.0
 11
10.0
 21
10.0
 31
10.0
1001
AME_SOL
1070
     1
1071
       29
  0
LINE
  8
0
 62
     7
  5
FD
 10
0.0
 20
10.0
 30
10.0
 11
2.5
 21
10.0
 31
10.0
1001
AME_SOL
1070
     1
1071
       28
  0
LINE
  8
0
 62
     7
  5
FE
 10
0.0
 20
10.0
 30
0.0
 11
0.0
 21
10.0
 31
10.0
1001
AME_SOL
1070
     1
1071
       27
  0
LINE
  8
0
 62
     7
  5
FF
 10
0.0
 20
10.0
 30
10.0
 11
0.0
 21
0.0
 31
10.0
1001
AME_SOL
1070
     1
1071
       26
  0
LINE
  8
0
 62
     7
  5
100
 10
0.0
 20
0.0
 30
0.0
 11
0.0
 21
0.0
 31
10.0
1001
AME_SOL
1070
     1
1071
       25
  0
LINE
  8
0
 62
     7
  5
101
 10
10.0
 20
0.0
 30
10.0
 11
10.0
 21
0.0
 31
0.0
1001
AME_SOL
1070
     1
1071
       24
  0
LINE
  8
0
 62
     7
  5
102
 10
7.5
 20
0.0
 30
10.0
 11
10.0
 21
0.0
 31
10.0
1001
AME_SOL
1070
     1
1071
       23
  0
LINE
  8
0
 62
     7
  5
103
 10
0.0
 20
0.0
 30
10.0
 11
2.5
 21
0.0
 31
10.0
1001
AME_SOL
1070
     1
1071
       22
  0
LINE
  8
0
 62
     7
  5
104
 10
0.0
 20
0.0
 30
0.0
 11
10.0
 21
0.0
 31
0.0
1001
AME_SOL
1070
     1
1071
       21
  0
LINE
  8
0
 62
     7
  5
105
 10
0.0
 20
10.0
 30
0.0
 11
0.0
 21
0.0
 31
0.0
1001
AME_SOL
1070
     1
1071
       20
  0
LINE
  8
0
 62
     7
  5
106
 10
10.0
 20
0.0
 30
0.0
 11
10.0
 21
10.0
 31
0.0
1001
AME_SOL
1070
     1
1071
       19
  0
LINE
  8
0
 62
     7
  5
107
 10
10.0
 20
10.0
 30
0.0
 11
0.0
 21
10.0
 31
0.0
1001
AME_SOL
1070
     1
1071
       18
  0
LINE
  8
0
 62
     7
  5
108
 10
7.5
 20
10.0
 30
5.0
 11
2.5
 21
10.0
 31
5.0
1001
AME_SOL
1070
     1
1071
       17
  0
LINE
  8
0
 62
     7
  5
109
 10
7.5
 20
10.0
 30
5.0
 11
7.5
 21
10.0
 31
10.0
1001
AME_SOL
1070
     1
1071
       16
  0
LINE
  8
0
 62
     7
  5
10A
 10
2.5
 20
10.0
 30
5.0
 11
2.5
 21
10.0
 31
10.0
1001
AME_SOL
1070
     1
1071
       15
  0
ARC
  8
0
 62
     7
  5
10B
 10
5.0
 20
10.0
 30
5.0
 40
2.5
 50
180.0
 51
0.0
1001
AME_SOL
1070
     1
1071
       14
  0
ARC
  8
0
 62
     7
  5
10C
 10
-5.0
 20
10.0
 30
0.0
 40
2.5
 50
180.0
 51
0.0
210
0.0
220
1.0
230
0.0000000000000001
1001
AME_SOL
1070
     1
1071
       13
  0
LINE
  8
0
 62
     7
  5
10D
 10
2.5
 20
0.0
 30
10.0
 11
2.5
 21
10.0
 31
10.0
1001
AME_SOL
1070
     1
1071
       12
  0
LINE
  8
0
 62
     7
  5
10E
 10
7.5
 20
0.0
 30
10.0
 11
7.5
 21
10.0
 31
10.0
1001
AME_SOL
1070
     1
1071
       11
  0
POLYLINE
  8
0
 62
     7
  5
10F
 66
     1
 10
0.0
 20
0.0
 30
0.0
 70
     8
  0
VERTEX
  8
0
 62
     7
  5
110
 10
2.5
 20
10.0
 30
10.0
 70
    32
  0
VERTEX
  8
0
 62
     7
  5
111
 10
2.500349
 20
9.958226
 30
9.958224
 70
    32
  0
VERTEX
  8
0
 62
     7
  5
112
 10
2.501396
 20
9.916463
 30
9.91646
 70
    32
  0
VERTEX
  8
0
 62
     7
  5
113
 10
2.503141
 20
9.874723
 30
9.874725
 70
    32
  0
VERTEX
  8
0
 62
     7
  5
114
 10
2.505583
 20
9.833019
 30
9.833016
 70
    32
  0
VERTEX
  8
0
 62
     7
  5
115
 10
2.508721
 20
9.791361
 30
9.791363
 70
    32
  0
VERTEX
  8
0
 62
     7
  5
116
 10
2.512555
 20
9.749762
 30
9.74976
 70
    32
  0
VERTEX
  8
0
 62
     7
  5
117
 10
2.517084
 20
9.708231
 30
9.708231
 70
    32
  0
VERTEX
  8
0
 62
     7
  5
118
 10
2.522306
 20
9.666783
 30
9.666784
 70
    32
  0
VERTEX
  8
0
 62
     7
  5
119
 10
2.52822
 20
9.625428
 30
9.625427
 70
    32
  0
VERTEX
  8
0
 62
     7
  5
11A
 10
2.534824
 20
9.584177
 30
9.584177
 70
    32
  0
VERTEX
  8
0
 62
     7
  5
11B
 10
2.550096
 20
9.502036
 30
9.502035
 70
    32
  0
VERTEX
  8
0
 62
     7
  5
11C
 10
2.568103
 20
9.420451
 30
9.420452
 70
    32
  0
VERTEX
  8
0
 62
     7
  5
11D
 10
2.588827
 20
9.339513
 30
9.339513
 70
    32
  0
VERTEX
  8
0
 62
     7
  5
11E
 10
2.612243
 20
9.259312
 30
9.259312
 70
    32
  0
VERTEX
  8
0
 62
     7
  5
11F
 10
2.638327
 20
9.179939
 30
9.179939
 70
    32
  0
VERTEX
  8
0
 62
     7
  5
120
 10
2.667048
 20
9.101482
 30
9.101482
 70
    32
  0
VERTEX
  8
0
 62
     7
  5
121
 10
2.698375
 20
9.024028
 30
9.024029
 70
    32
  0
VERTEX
  8
0
 62
     7
  5
122
 10
2.732272
 20
8.947664
 30
8.947664
 70
    32
  0
VERTEX
  8
0
 62
     7
  5
123
 10
2.768702
 20
8.872477
 30
8.872476
 70
    32
  0
VERTEX
  8
0
 62
     7
  5
124
 10
2.807624
 20
8.798548
 30
8.798547
 70
    32
  0
VERTEX
  8
0
 62
     7
  5
125
 10
2.848995
 20
8.72596
 30
8.72596
 70
    32
  0
VERTEX
  8
0
 62
     7
  5
126
 10
2.892768
 20
8.654796
 30
8.654795
 70
    32
  0
VERTEX
  8
0
 62
     7
  5
127
 10
2.938895
 20
8.585134
 30
8.585134
 70
    32
  0
VERTEX
  8
0
 62
     7
  5
128
 10
2.987323
 20
8.517053
 30
8.517053
 70
    32
  0
VERTEX
  8
0
 62
     7
  5
129
 10
3.038
 20
8.450627
 30
8.450627
 70
    32
  0
VERTEX
  8
0
 62
     7
  5
12A
 10
3.090868
 20
8.385932
 30
8.385932
 70
    32
  0
VERTEX
  8
0
 62
     7
  5
12B
 10
3.145868
 20
8.32304
 30
8.32304
 70
    32
  0
VERTEX
  8
0
 62
     7
  5
12C
 10
3.202939
 20
8.262021
 30
8.262021
 70
    32
  0
VERTEX
  8
0
 62
     7
  5
12D
 10
3.262017
 20
8.202943
 30
8.202942
 70
    32
  0
VERTEX
  8
0
 62
     7
  5
12E
 10
3.323036
 20
8.145871
 30
8.145871
 70
    32
  0
VERTEX
  8
0
 62
     7
  5
12F
 10
3.385928
 20
8.090872
 30
8.090872
 70
    32
  0
VERTEX
  8
0
 62
     7
  5
130
 10
3.450623
 20
8.038004
 30
8.038004
 70
    32
  0
VERTEX
  8
0
 62
     7
  5
131
 10
3.517048
 20
7.987327
 30
7.987327
 70
    32
  0
VERTEX
  8
0
 62
     7
  5
132
 10
3.58513
 20
7.938898
 30
7.938898
 70
    32
  0
VERTEX
  8
0
 62
     7
  5
133
 10
3.654791
 20
7.892771
 30
7.892771
 70
    32
  0
VERTEX
  8
0
 62
     7
  5
134
 10
3.725955
 20
7.848998
 30
7.848998
 70
    32
  0
VERTEX
  8
0
 62
     7
  5
135
 10
3.798542
 20
7.807627
 30
7.807627
 70
    32
  0
VERTEX
  8
0
 62
     7
  5
136
 10
3.872472
 20
7.768704
 30
7.768704
 70
    32
  0
VERTEX
  8
0
 62
     7
  5
137
 10
3.94766
 20
7.732274
 30
7.732274
 70
    32
  0
VERTEX
  8
0
 62
     7
  5
138
 10
4.024024
 20
7.698377
 30
7.698377
 70
    32
  0
VERTEX
  8
0
 62
     7
  5
139
 10
4.101477
 20
7.66705
 30
7.667049
 70
    32
  0
VERTEX
  8
0
 62
     7
  5
13A
 10
4.179935
 20
7.638329
 30
7.638329
 70
    32
  0
VERTEX
  8
0
 62
     7
  5
13B
 10
4.259308
 20
7.612245
 30
7.612245
 70
    32
  0
VERTEX
  8
0
 62
     7
  5
13C
 10
4.339509
 20
7.588828
 30
7.588828
 70
    32
  0
VERTEX
  8
0
 62
     7
  5
13D
 10
4.420446
 20
7.568104
 30
7.568104
 70
    32
  0
VERTEX
  8
0
 62
     7
  5
13E
 10
4.502032
 20
7.550097
 30
7.550097
 70
    32
  0
VERTEX
  8
0
 62
     7
  5
13F
 10
4.584174
 20
7.534825
 30
7.534825
 70
    32
  0
VERTEX
  8
0
 62
     7
  5
140
 10
4.66678
 20
7.522306
 30
7.522306
 70
    32
  0
VERTEX
  8
0
 62
     7
  5
141
 10
4.749758
 20
7.512556
 30
7.512556
 70
    32
  0
VERTEX
  8
0
 62
     7
  5
142
 10
4.833015
 20
7.505583
 30
7.505583
 70
    32
  0
VERTEX
  8
0
 62
     7
  5
143
 10
4.91646
 20
7.501396
 30
7.501396
 70
    32
  0
VERTEX
  8
0
 62
     7
  5
144
 10
4.999997
 20
7.5
 30
7.5
 70
    32
  0
VERTEX
  8
0
 62
     7
  5
145
 10
5.083535
 20
7.501396
 30
7.501396
 70
    32
  0
VERTEX
  8
0
 62
     7
  5
146
 10
5.166979
 20
7.505583
 30
7.505583
 70
    32
  0
VERTEX
  8
0
 62
     7
  5
147
 10
5.250237
 20
7.512555
 30
7.512555
 70
    32
  0
VERTEX
  8
0
 62
     7
  5
148
 10
5.333215
 20
7.522306
 30
7.522306
 70
    32
  0
VERTEX
  8
0
 62
     7
  5
149
 10
5.415821
 20
7.534824
 30
7.534824
 70
    32
  0
VERTEX
  8
0
 62
     7
  5
14A
 10
5.497962
 20
7.550095
 30
7.550096
 70
    32
  0
VERTEX
  8
0
 62
     7
  5
14B
 10
5.579548
 20
7.568103
 30
7.568103
 70
    32
  0
VERTEX
  8
0
 62
     7
  5
14C
 10
5.660486
 20
7.588826
 30
7.588826
 70
    32
  0
VERTEX
  8
0
 62
     7
  5
14D
 10
5.740686
 20
7.612243
 30
7.612243
 70
    32
  0
VERTEX
  8
0
 62
     7
  5
14E
 10
5.82006
 20
7.638327
 30
7.638327
 70
    32
  0
VERTEX
  8
0
 62
     7
  5
14F
 10
5.898517
 20
7.667048
 30
7.667048
 70
    32
  0
VERTEX
  8
0
 62
     7
  5
150
 10
5.975971
 20
7.698374
 30
7.698375
 70
    32
  0
VERTEX
  8
0
 62
     7
  5
151
 10
6.052335
 20
7.732272
 30
7.732272
 70
    32
  0
VERTEX
  8
0
 62
     7
  5
152
 10
6.127523
 20
7.768702
 30
7.768702
 70
    32
  0
VERTEX
  8
0
 62
     7
  5
153
 10
6.201452
 20
7.807624
 30
7.807624
 70
    32
  0
VERTEX
  8
0
 62
     7
  5
154
 10
6.27404
 20
7.848995
 30
7.848995
 70
    32
  0
VERTEX
  8
0
 62
     7
  5
155
 10
6.345204
 20
7.892768
 30
7.892768
 70
    32
  0
VERTEX
  8
0
 62
     7
  5
156
 10
6.414866
 20
7.938895
 30
7.938895
 70
    32
  0
VERTEX
  8
0
 62
     7
  5
157
 10
6.482947
 20
7.987324
 30
7.987324
 70
    32
  0
VERTEX
  8
0
 62
     7
  5
158
 10
6.549373
 20
8.038
 30
8.038
 70
    32
  0
VERTEX
  8
0
 62
     7
  5
159
 10
6.614068
 20
8.090868
 30
8.090868
 70
    32
  0
VERTEX
  8
0
 62
     7
  5
15A
 10
6.67696
 20
8.145868
 30
8.145868
 70
    32
  0
VERTEX
  8
0
 62
     7
  5
15B
 10
6.737979
 20
8.202939
 30
8.202939
 70
    32
  0
VERTEX
  8
0
 62
     7
  5
15C
 10
6.797058
 20
8.262017
 30
8.262017
 70
    32
  0
VERTEX
  8
0
 62
     7
  5
15D
 10
6.854129
 20
8.323036
 30
8.323036
 70
    32
  0
VERTEX
  8
0
 62
     7
  5
15E
 10
6.909129
 20
8.385929
 30
8.385929
 70
    32
  0
VERTEX
  8
0
 62
     7
  5
15F
 10
6.961997
 20
8.450624
 30
8.450624
 70
    32
  0
VERTEX
  8
0
 62
     7
  5
160
 10
7.012674
 20
8.517049
 30
8.517049
 70
    32
  0
VERTEX
  8
0
 62
     7
  5
161
 10
7.061103
 20
8.585131
 30
8.585131
 70
    32
  0
VERTEX
  8
0
 62
     7
  5
162
 10
7.107229
 20
8.654792
 30
8.654793
 70
    32
  0
VERTEX
  8
0
 62
     7
  5
163
 10
7.151003
 20
8.725956
 30
8.725956
 70
    32
  0
VERTEX
  8
0
 62
     7
  5
164
 10
7.192374
 20
8.798544
 30
8.798543
 70
    32
  0
VERTEX
  8
0
 62
     7
  5
165
 10
7.231296
 20
8.872473
 30
8.872473
 70
    32
  0
VERTEX
  8
0
 62
     7
  5
166
 10
7.267726
 20
8.94766
 30
8.94766
 70
    32
  0
VERTEX
  8
0
 62
     7
  5
167
 10
7.301624
 20
9.024025
 30
9.024025
 70
    32
  0
VERTEX
  8
0
 62
     7
  5
168
 10
7.332951
 20
9.101479
 30
9.101479
 70
    32
  0
VERTEX
  8
0
 62
     7
  5
169
 10
7.361672
 20
9.179935
 30
9.179935
 70
    32
  0
VERTEX
  8
0
 62
     7
  5
16A
 10
7.387755
 20
9.259309
 30
9.259308
 70
    32
  0
VERTEX
  8
0
 62
     7
  5
16B
 10
7.411172
 20
9.339509
 30
9.339508
 70
    32
  0
VERTEX
  8
0
 62
     7
  5
16C
 10
7.431896
 20
9.420447
 30
9.420446
 70
    32
  0
VERTEX
  8
0
 62
     7
  5
16D
 10
7.449903
 20
9.502033
 30
9.502033
 70
    32
  0
VERTEX
  8
0
 62
     7
  5
16E
 10
7.465175
 20
9.584174
 30
9.584175
 70
    32
  0
VERTEX
  8
0
 62
     7
  5
16F
 10
7.477694
 20
9.66678
 30
9.666782
 70
    32
  0
VERTEX
  8
0
 62
     7
  5
170
 10
7.487444
 20
9.749759
 30
9.74976
 70
    32
  0
VERTEX
  8
0
 62
     7
  5
171
 10
7.494417
 20
9.833016
 30
9.833016
 70
    32
  0
VERTEX
  8
0
 62
     7
  5
172
 10
7.498604
 20
9.916461
 30
9.91646
 70
    32
  0
VERTEX
  8
0
 62
     7
  5
173
 10
7.5
 20
10.0
 30
10.0
 70
    32
  0
SEQEND
  8
0
 62
     7
  5
174
1001
AME_SOL
1070
     1
1071
       10
  0
LINE
  8
0
 62
     7
  5
175
 10
7.5
 20
10.0
 30
5.0
 11
7.5
 21
10.0
 31
10.0
1001
AME_SOL
1070
     0
1071
        2
  0
LINE
  8
0
 62
     7
  5
176
 10
7.309699
 20
9.043291
 30
5.0
 11
7.309699
 21
9.043291
 31
9.043292
1001
AME_SOL
1070
     0
1071
        2
  0
LINE
  8
0
 62
     7
  5
177
 10
6.767766
 20
8.232233
 30
5.0
 11
6.767766
 21
8.232233
 31
8.232233
1001
AME_SOL
1070
     0
1071
        2
  0
LINE
  8
0
 62
     7
  5
178
 10
5.956708
 20
7.690301
 30
5.0
 11
5.956708
 21
7.690301
 31
7.690301
1001
AME_SOL
1070
     0
1071
        2
  0
LINE
  8
0
 62
     7
  5
179
 10
5.0
 20
7.5
 30
5.0
 11
5.0
 21
7.5
 31
7.5
1001
AME_SOL
1070
     0
1071
        2
  0
LINE
  8
0
 62
     7
  5
17A
 10
4.043291
 20
7.690301
 30
5.0
 11
4.043291
 21
7.690301
 31
7.690301
1001
AME_SOL
1070
     0
1071
        2
  0
LINE
  8
0
 62
     7
  5
17B
 10
3.232233
 20
8.232233
 30
5.0
 11
3.232233
 21
8.232233
 31
8.232233
1001
AME_SOL
1070
     0
1071
        2
  0
LINE
  8
0
 62
     7
  5
17C
 10
2.690301
 20
9.043292
 30
5.0
 11
2.690301
 21
9.043292
 31
9.043292
1001
AME_SOL
1070
     0
1071
        2
  0
LINE
  8
0
 62
     7
  5
17D
 10
2.5
 20
10.0
 30
5.0
 11
2.5
 21
10.0
 31
10.0
1001
AME_SOL
1070
     0
1071
        2
  0
LINE
  8
0
 62
     7
  5
17E
 10
5.0
 20
0.0
 30
7.5
 11
5.0
 21
7.5
 31
7.5
1001
AME_SOL
1070
     0
1071
        1
  0
LINE
  8
0
 62
     7
  5
17F
 10
5.956709
 20
0.0
 30
7.690301
 11
5.956709
 21
7.690301
 31
7.690301
1001
AME_SOL
1070
     0
1071
        1
  0
LINE
  8
0
 62
     7
  5
180
 10
6.767767
 20
0.0
 30
8.232233
 11
6.767767
 21
8.232233
 31
8.232233
1001
AME_SOL
1070
     0
1071
        1
  0
LINE
  8
0
 62
     7
  5
181
 10
7.309699
 20
0.0
 30
9.043291
 11
7.309699
 21
9.043292
 31
9.043291
1001
AME_SOL
1070
     0
1071
        1
  0
LINE
  8
0
 62
     7
  5
182
 10
7.5
 20
0.0
 30
10.0
 11
7.5
 21
10.0
 31
10.0
1001
AME_SOL
1070
     0
1071
        1
  0
LINE
  8
0
 62
     7
  5
183
 10
2.5
 20
0.0
 30
10.0
 11
2.5
 21
10.0
 31
10.0
1001
AME_SOL
1070
     0
1071
        1
  0
LINE
  8
0
 62
     7
  5
184
 10
2.690301
 20
0.0
 30
9.04329
 11
2.690301
 21
9.04329
 31
9.04329
1001
AME_SOL
1070
     0
1071
        1
  0
LINE
  8
0
 62
     7
  5
185
 10
3.232234
 20
0.0
 30
8.232233
 11
3.232234
 21
8.232232
 31
8.232233
1001
AME_SOL
1070
     0
1071
        1
  0
LINE
  8
0
 62
     7
  5
186
 10
4.043292
 20
0.0
 30
7.690301
 11
4.043292
 21
7.690301
 31
7.690301
1001
AME_SOL
1070
     0
1071
        1
  0
ENDBLK
  8
0
  5
187
  0
ENDSEC
  0
SECTION
  2
ENTITIES
  0
INSERT
  8
AME_FRZ
  5
15
  2
*U2
 10
0.0
 20
0.0
 30
0.0
1001
AME_SOL
1002
{
1070
     0
1071
  1925096
1070
  1536
1010
10.0
1020
10.0
1030
10.0
1005
0
1005
0
1005
77
1040
0.0
1040
1.0
1000
MILD_STEEL
1000
0
1010
0.0
1020
0.0
1030
0.0
1010
0.0
1020
0.0
1030
1.0
1040
0.0
1002
}
  0
INSERT
  8
AME_FRZ
  5
32
  2
*U4
 10
5.0
 20
10.0
 30
5.0
1001
AME_SOL
1002
{
1070
     0
1071
  1936312
1070
  1538
1010
2.5
1020
2.5
1030
5.0
1005
0
1005
0
1005
77
1040
0.0
1040
1.0
1000
MILD_STEEL
1000
0
1010
5.0
1020
10.0
1030
5.0
1010
0.0
1020
0.0
1030
1.0
1040
0.0
1002
}
  0
INSERT
  8
AME_FRZ
  5
77
  2
*U6
 10
0.0
 20
0.0
 30
0.0
1001
AME_SOL
1002
{
1070
     0
1071
  1859128
1070
  1543
1070
     0
1005
15
1005
32
1005
0
1005
0
1005
188
1040
0.0
1040
1.0
1000
MILD_STEEL
1000
0
1010
0.0
1020
0.0
1030
0.0
1010
0.0
1020
0.0
1030
1.0
1040
0.0
1002
}
  0
INSERT
  8
AME_FRZ
  5
7B
  2
AME_NIL
 10
0.0
 20
0.0
 30
0.0
  0
INSERT
  8
AME_FRZ
  5
7C
  2
AME_SOL
 10
0.0
 20
0.0
 30
0.0
1001
AME_SOL
1000
1.0
1000
sq cm
1070
     3
1070
     0
1070
     3
1000
wire
1040
0.0
1000
NONE
1040
1.0
1000
cm
1000
gm
1000
MILD_STEEL
1070
    25
1000
CSG
1070
     3
1070
     2
1070
     3
1000
cu cm
1070
     4
1070
     0
1005
7B
  0
INSERT
  8
AME_FRZ
 62
     7
  5
D0
  2
*U8
 10
-5.0
 20
10.0
 30
0.0
 50
180.0
210
0.0
220
1.0
230
0.0000000000000001
1001
AME_SOL
1002
{
1070
     0
1071
  1916376
1070
  1538
1010
2.5
1020
2.5
1030
10.0
1005
0
1005
0
1005
188
1040
0.0
1040
1.0
1000
MILD_STEEL
1000
0
1010
-5.0
1020
10.0
1030
0.0
1010
0.0
1020
1.0
1030
0.0
1040
3.141593
1002
}
  0
INSERT
  8
0
  5
188
  2
*U9
 10
0.0
 20
0.0
 30
0.0
1001
AME_SOL
1002
{
1070
     0
1071
  1970136
1070
  1543
1070
     0
1005
77
1005
D0
1005
0
1005
189
1005
0
1040
0.0
1040
1.0
1000
MILD_STEEL
1000
0
1002
}
  0
INSERT
  8
AME_FRZ
  5
189
  2
AME_NIL
 10
1.0
 20
1.0
 30
1.0
1001
AME_SOL
1004
E903A9FB0100F0FFFFFF000052F709000100000066900ABB66900ABB66900ABBA9082041000548411F06484101000000FBF2040081E71F408DF5C3BAC1F3EF403F0CF0401F0620411F0648410100EA4EF0681D00FFFF00000100CB000000EA4E00000000803FD2BB1B8A00300D2500300D2500308D240000
1004
80BF0000A040000000000000204105000000204000002040000000000000000000000000EA4E00000000803FD2BB1B8A00300D2500300D2500308D24000080BF0000A0400000000000002041050000002040000020400000000000000000FFFFFFFF4DEA0F000000967500000000803FD2BB1B8A00300D25
1004
00300D2500308D24000080BFA6628140E20C2325F216F6400200B3A382E0B3A38260000000000000000002000000B3A382E0E20CA3A4F216F640B3A3826001000000E20CA3A4F216F640020035FFFFFF35FFFFFF01000000E20CA3A4F216F6404DEA0E000000967500000000803FD2BB1B8A00300D250030
1004
0D2500308D24000080BFEADC4E402E96F9243AB703410200B3A382E0B3A38260000000000000000002000000B3A382E02E9679A439B70341B3A38260010000002E9679A439B70341020035FFFFFF35FFFFFF010000002E9679A439B703414DEA0D000000967500000000803FD2BB1B8A00300D2500300D25
1004
00308D24000080BFE62D2C404C13872451B110410200B3A382E0B3A38260000000000000000002000000B3A382E04C1307A451B11041B3A38260010000004C1307A451B11041020035FFFFFF35FFFFFF010000004C1307A451B110414DEA0C000000967500000000803FD2BB1B8A00300D2500300D250030
1004
8D24000080BF00002040FF6C8119000020410200B3A382E0B3A38260000000000000000002000000B3A382E0FF6C019900002041B3A3826001000000FF6C019900002041020035FFFFFFF701000001000000FF6C0199000020414DEA0B000000967500000000803FD2BB1B8A00300D2500300D2500308D24
1004
000080BFE42D2C40421387A4AD4E2F410200B3A382E0B3A3826001000000000000004DEA0A000000967500000000803FD2BB1B8A00300D2500300D2500308D24000080BFE7DC4E402B96F9A4C5483C410200B3A382E0B3A3826001000000000000004DEA09000000967500000000803FD2BB1B8A00300D25
1004
00300D2500308D24000080BFA4628140E00C23A587F444410200B3A382E0B3A3826001000000000000004DEA08000000967500000000803FD2BB1B8A00300D2500300D2500308D24000080BF0000A040007C30A5000048410200B3A382E0B3A3826001000000000000004DEA07000000967500000000803F
1004
D2BB1B8A00300D2500300D2500308D24000080BF5A9DBE40E00C23A587F444410200B3A382E0B3A3826001000000000000004DEA06000000967500000000803FD2BB1B8A00300D2500300D2500308D24000080BF8B91D8402D96F9A4C5483C410200B3A382E0B3A3826001000000000000004DEA05000000
1004
967500000000803FD2BB1B8A00300D2500300D2500308D24000080BF0EE9E940471387A4AD4E2F410200B3A382E0B3A3826001000000000000004DEA04000000967500000000803FD2BB1B8A00300D2500300D2500308D24000080BF0000F040FF6C0199000020410200B3A382E0B3A38260000000000000
1004
000002000000B3A382E0FF6C811800002041B3A3826001000000FF6C8118000020410200F701000035FFFFFF01000000FF6C8118000020414DEA03000000967500000000803FD2BB1B8A00300D2500300D2500308D24000080BF0EE9E9404613872452B110410200B3A382E0B3A382600000000000000000
1004
02000000B3A382E0461307A453B11041B3A3826001000000461307A453B11041020035FFFFFF35FFFFFF01000000461307A453B110414DEA02000000967500000000803FD2BB1B8A00300D2500300D2500308D24000080BF8C91D8402B96F9243AB703410200B3A382E0B3A3826000000000000000000200
1004
0000B3A382E02B9679A43AB70341B3A38260010000002B9679A43AB70341020035FFFFFF35FFFFFF010000002B9679A43AB703414DEA01000000967500000000803FD2BB1B8A00300D2500300D2500308D24000080BF5C9DBE40E00C2325F216F6400200B3A382E0B3A38260000000000000000002000000
1004
B3A382E0E00CA3A4F316F640B3A3826001000000E00CA3A4F316F640020035FFFFFF35FFFFFF01000000E00CA3A4F316F6404DEA00000000967500000000803FD2BB1B8A00300D2500300D2500308D24000080BF0000A040007C30250000F0400200B3A382E0B3A38260000000000000000002000000B3A3
1004
82E0007CB0A40000F040B3A3826001000000007CB0A40000F040020035FFFFFF35FFFFFF01000000007CB0A40000F040FBF2040000EC1F4000F6EF4000F69F40000AF04000054841000520410100EA4E60811E00FFFF0000010093010000EA4E00000000803F0000000000000000000000000000803F0000
1004
00000000A040000020410000A04005000000204000002040000000000000000000000000EA4E00000000803F0000000000000000000000000000803F000000000000A040000020410000A040050000002040000020400000000000000000FFFFFFFF4DEA0F000000967500000000803F0000000000000000
1004
000000000000803F00000000A662814087F444410000A0400200B3A302E0B3A3026001000000000000004DEA0E000000967500000000803F0000000000000000000000000000803F00000000EADC4E40C7483C410000A0400200B3A302E0B3A3026001000000000000004DEA0D000000967500000000803F
1004
0000000000000000000000000000803F00000000E62D2C40AE4E2F410000A0400200B3A302E0B3A3026001000000000000004DEA0C000000967500000000803F0000000000000000000000000000803F0000000000002040000020410000A0400200B3A302E0B3A30260000000000000000002000000B3A3
1004
02E00000A0C00000A040B3A30260020000000000A0C0000000000200F6010000F6010000000000000000A0400200F60100006DFEFFFF01000000000000000000A0404DEA0B000000967500000000803F0000000000000000000000000000803F00000000E42D2C4053B110410000A0400200B3A302E0B3A3
1004
026000000000010000000000A0C00000008002000000B3A302E00000A0C0A6628140B3A302600100000000000080A662814002006DFEFFFF6DFEFFFF0100000000000080A66281404DEA0A000000967500000000803F0000000000000000000000000000803F00000000E7DC4E403AB703410000A0400200
1004
B3A302E0B3A3026000000000010000000000A0C00000008002000000B3A302E00000A0C0E9DC4E40B3A302600100000000000080E9DC4E4002006DFEFFFF6DFEFFFF0100000000000080E9DC4E404DEA09000000967500000000803F0000000000000000000000000000803F00000000A4628140F216F640
1004
0000A0400200B3A302E0B3A3026000000000010000000000A0C00000008002000000B3A302E00000A0C0E52D2C40B3A302600100000000000080E52D2C4002006DFEFFFF6DFEFFFF0100000000000080E52D2C404DEA08000000967500000000803F0000000000000000000000000000803F000000000000
1004
A0400000F0400000A0400200B3A302E0B3A3026000000000010000000000A0C00000008002000000B3A302E00000A0C000002040B3A3026001000000000000800000204002006DFEFFFF6DFEFFFF0100000000000080000020404DEA07000000967500000000803F0000000000000000000000000000803F
1004
000000005A9DBE40F216F6400000A0400200B3A302E0B3A3026000000000010000000000A0C00000000002000000B3A302E00000A0C0E42D2C40B3A302600100000000000000E42D2C4002006DFEFFFF6DFEFFFF0100000000000000E42D2C404DEA06000000967500000000803F00000000000000000000
1004
00000000803F000000008B91D8403AB703410000A0400200B3A302E0B3A3026000000000010000000000A0C00000000002000000B3A302E00000A0C0E6DC4E40B3A302600100000000000000E6DC4E4002006DFEFFFF6DFEFFFF0100000000000000E6DC4E404DEA05000000967500000000803F00000000
1004
00000000000000000000803F000000000EE9E94052B110410000A0400200B3A302E0B3A3026000000000010000000000A0C00000000002000000B3A302E00000A0C0A6628140B3A302600100000000000000A662814002006DFEFFFF6DFEFFFF0100000000000000A66281404DEA04000000967500000000
1004
803F0000000000000000000000000000803F000000000000F040000020410000A0400200B3A302E0B3A30260000000000000000002000000B3A302E00000A0C00000A040B3A30260020000000000A0C0000000000200F6010000F6010000000000000000A04002006DFEFFFFF60100000100000000000000
1004
0000A0404DEA03000000967500000000803F0000000000000000000000000000803F000000000EE9E940AD4E2F410000A0400200B3A302E0B3A3026001000000000000004DEA02000000967500000000803F0000000000000000000000000000803F000000008C91D840C5483C410000A0400200B3A302E0
1004
B3A3026001000000000000004DEA01000000967500000000803F0000000000000000000000000000803F000000005C9DBE4087F444410000A0400200B3A302E0B3A3026001000000000000004DEA00000000967500000000803F0000000000000000000000000000803F000000000000A040000048410000
1004
A0400200B3A302E0B3A302600100000000000000FBF2020000EC1F4000F6EF4000F69F40000AF04000054841000AA0400100844ED0A91E00FFFF0000010092010000844E00000000803F000000000000000000000080000080BF000000800000A040000020410000A0400500000000000000000000000000
1004
0000000000000000844E00000000803F000000000000000000000080000080BF000000800000A040000020410000A040050000000000000000000000000000000000FFFFFFFFFBF2040066900ABB66900ABB66900ABBA9082041A908204166900A3B0100844EC0AA1E00010000000100FA010000844E0000
1004
000000000000803F000000000000803F000000000000000000000000000000000000000005000000000000000000000000000000000000000000844E0000000000000000803F000000000000803F000000000000000000000000000000000000000005000000000000000000000000000000000001000000
1004
FBF2060066900ABB66900ABB66900ABBA908204166900A3BA90820410100844EB0AB1E00010000000100F9010000844E00000000803F000000000000000000000000000000000000803F00000000000000000000000005000000000000000000000000000000000000000000844E00000000803F00000000
1004
0000000000000000000000000000803F00000000000000000000000005000000000000000000000000000000000001000000FBF2040066900ABB66900ABB66900ABB66900A3BA9082041A90820410100844EA0AC1E00010000000100F8010000844E000000000000000000000000803F000000000000803F
1004
0000000000000000000000000000000005000000000000000000000000000000000000000000844E000000000000000000000000803F000000000000803F0000000000000000000000000000000005000000000000000000000000000000000001000000FBF2080066900ABB66900ABB57F71F41A9082041
1004
A9082041A90820410100844E90AD1E00010000000100F7010000844E0000000080BF000000800000008000000080000080BF0000008000002041000020410000204105000000000000000000000000000000000000000000844E0000000080BF000000800000008000000080000080BF0000008000002041
1004
000020410000204105000000000000000000000000000000000001000000FBF2080066900ABB57F71F4166900ABBA9082041A9082041A90820410100844E80AE1E00010000000100F6010000844E00000000008000000080000080BF000080BF000000800000008000002041000020410000204105000000
1004
000000000000000000000000000000000000844E00000000008000000080000080BF000080BF000000800000008000002041000020410000204105000000000000000000000000000000000001000000FBF2040057F71F4166900ABB66900ABBA9082041A9082041A90820410100844E80AF1E0001000000
1004
0100F5010000844E000000000080000080BF000000800000008000000080000080BF00002041000020410000204105000000000000000000000000000000000000000000844E000000000080000080BF000000800000008000000080000080BF000020410000204100002041050000000000000000000000
1004
00000000000001000000A4EE00EC1F4000F6EF40C1F3EF40000AF0401F06204100052041DB0F49C00000000002006A7628B01E000000FFFF0100F0681D0060811E0000000200F0681D0060811E00FFFFFFFFFFFFFFFF6A7600000000803F0000000000000000000000000000803F000000000000A0400000
1004
20410000A0400E00000080410000A0C200000000000000000000C84300000080009BDC28000000000000C8C20000204000002040000080BFDB0F49C000000000A4EE81E71F408DF5C3BA57F71F413F0CF0401F062041A9082041000000000000204102009675E0B01E0000000100FFFFF0681D0090AD1E00
1004
0000020090AD1E00F0681D0001000000FFFFFFFF967500000000803FD2BB1B8A00300D2500300D2500308D24000080BF0000F040000000000000204102000000000000002041A4EE81E71F408DF5C3BA57F71F413F0CF0401F062041A9082041FF6C81990000204102009675D0B11E000000FFFF0100F068
1004
1D0090AD1E0000000200F0681D0090AD1E00FFFFFFFF01000000967500000000803FD2BB1B8A00300D2500300D2500308D24000080BF00002040FF6C8119000020410200FF6C819900002041A4EE81E71F408DF5C3BAC1F3EF403F0CF04066900A3BA908204100300D25DB0F49400200FC75C0B21E000000
1004
FFFF0100F0681D00B0AB1E0000000200F0681D00B0AB1E00FFFFFFFF01000000FC7500000000803FD2BB1B8A00300D2500300D2500308D24000080BF0000A04000000000000020410400000020400000204000300D25DB0F4940A4EE00EC1F4000F6EF4000F69F40000AF04000054841000AA040DB0F49C0
1004
000000800200FC75B0B31E000000FFFF010060811E00D0A91E000000020060811E00D0A91E00FFFFFFFFFFFFFFFFFC7500000000803F0000000000000000000000000000803F000000000000A040000020410000A04004000000204000002040DB0F49C000000080A4EE00EC1F4057F71F4100F69F40000A
1004
F040A908204100052041000000000000A04002009675A0B41E0000000100FFFF60811E0080AE1E000000020080AE1E0060811E0001000000FFFFFFFF967500000000803F0000000000000000000000000000803F0000000000002040000020410000A0400200000000000000A040A4EE00EC1F4057F71F41
1004
00F69F40000AF040A908204100052041000000000000A0400200967590B51E000000FFFF010060811E0080AE1E000000020060811E0080AE1E00FFFFFFFF01000000967500000000803F0000000000000000000000000000803F000000000000F040000020410000A0400200000000000000A040A4EE00EC
1004
1F4057F71F4100F69F40000AF040A9082041000AA040000000000000A0400200967580B61E0000000100FFFFD0A91E0080AE1E000000020080AE1E00D0A91E0001000000FFFFFFFF96750000000000000000803F000000000000000000000000000080BF0000F040000020410000A0400200000000000000
1004
A040A4EE66900ABB57F71F4166900ABBA9082041A908204166900A3B0000A0C00000A0400200967570B71E000000FFFF0100C0AA1E0080AE1E0000000200C0AA1E0080AE1E00010000000100000096750000000000000000803F000000000000000000000000000080BF0000A04000002041000000000200
1004
0000A0C00000A040A4EE57F71F4166900ABB66900ABBA9082041A908204166900A3B0000A0C00000A0400200967560B81E000000FFFF0100C0AA1E0080AF1E0000000200C0AA1E0080AF1E000100000001000000967500000000803F00000000000000000000000000000000000080BF000020410000A040
1004
0000000002000000A0C00000A040A4EE66900ABB66900ABB66900ABB66900A3BA908204166900A3B000020C1000000800200967550B91E000000FFFF0100C0AA1E00A0AC1E0000000200C0AA1E00A0AC1E00010000000100000096750000000080BF00000000000000000000000000000000000080BF0000
1004
000000000000000000000200000020C100000080A4EE66900ABB66900ABB66900ABBA908204166900A3B66900A3B00000000000020410200967540BA1E000000FFFF0100C0AA1E00B0AB1E0000000200C0AA1E00B0AB1E0001000000010000009675000000000000000080BF000000000000000000000000
1004
000080BF00000000000000000000000002000000000000002041A4EE66900ABB66900ABB57F71F41A908204166900A3BA90820410000A0C0000020C00200967530BB1E000000FFFF0100B0AB1E0090AD1E0000000200B0AB1E0090AD1E0001000000010000009675000000000000000000000000803F0000
1004
0000000080BF000000000000A040000000000000204102000000A0C0000020C0A4EE66900ABB66900ABB57F71F41A908204166900A3BA9082041000020400000A0400200967520BC1E000000FFFF0100B0AB1E0090AD1E0000000200B0AB1E0090AD1E000100000001000000967500000000000000000000
1004
0000803F00000000000080BF000000000000A04000000000000020410200000020400000A040A4EE57F71F4166900ABB66900ABBA908204166900A3BA90820410000A0C00000A0400200967510BD1E000000FFFF0100B0AB1E0080AF1E0000000200B0AB1E0080AF1E000100000001000000967500000000
1004
803F000000000000000000000000000080BF0000000000002041000000000000A04002000000A0C00000A040A4EE66900ABB66900ABB66900ABB66900A3B66900A3BA908204100000000000020410200967500BE1E000000FFFF0100B0AB1E00A0AC1E0000000200B0AB1E00A0AC1E000100000001000000
1004
96750000000080BF000000000000000000000000000080BF0000000000000000000000000000000002000000000000002041A4EE66900ABB66900ABB57F71F4166900A3BA9082041A90820410000A0C00000A04002009675F0BE1E000000FFFF0100A0AC1E0090AD1E0000000200A0AC1E0090AD1E000100
1004
0000010000009675000000000000000000000000803F000080BF0000000000000000000000000000A0400000204102000000A0C00000A040A4EE66900ABB57F71F4166900ABB66900A3BA9082041A90820410000A0C00000A04002009675D8BF1E000000FFFF0100A0AC1E0080AE1E0000000200A0AC1E00
1004
80AE1E00010000000100000096750000000000000000803F00000000000080BF000000000000000000000000000020410000A04002000000A0C00000A040A4EE66900ABB57F71F4157F71F41A9082041A9082041A9082041000020C10000F0C002009675C8C01E000000FFFF010090AD1E0080AE1E000000
1004
020090AD1E0080AE1E00010000000100000096750000000000000000803F0000000000000000000000000000803F0000204100002041000020410200000020C10000F0C0A4EE66900ABB57F71F4157F71F41A9082041A9082041A9082041000020C00000008002009675B8C11E000000FFFF010090AD1E00
1004
80AE1E000000020090AD1E0080AE1E00010000000100000096750000000000000000803F0000000000000000000000000000803F0000204100002041000020410200000020C000000080A4EE57F71F4166900ABB57F71F41A9082041A9082041A9082041000000000000204102009675A8C21E000000FFFF
1004
010090AD1E0080AF1E000000020090AD1E0080AF1E000100000001000000967500000000803F000000000000000000000000000000000000803F00002041000020410000204102000000000000002041A4EE57F71F4157F71F4166900ABBA9082041A9082041A9082041000020C1000000800200967598C3
1004
1E000000FFFF010080AE1E0080AF1E000000020080AE1E0080AF1E000100000001000000967500000000803F0000000000000000000000000000803F000000000000204100002041000020410200000020C10000008019FC
1005
18A
  0
INSERT
  8
AME_FRZ
  5
18A
  2
AME_NIL
 10
1.0
 20
1.0
 30
1.0
1001
AME_SOL
1004

1005
0
  0
INSERT
  8
AME_FRZ
  5
18B
  2
AME_MAT
 10
0.0
 20
0.0
 30
0.0
1001
AME_SOL
1000
MILD_STEEL
1040
7860.0
1040
220.0
1040
0.275
1040
207.0
1040
345.0
1040
56.0
1040
12.0
1040
0.46
  0
ENDSEC
  0
EOF
