600 0 1 0           
125 GICL ACIS Healer - Source: /gicl/data5/repository/Sandia/Randy_Wilson/discriminator/sh-r44356-000-u/sh-r44356-000-u.sat - 6 0 18 ACIS 6.0.3 Solaris 24 Sat Apr 13 23:38:04 2002 
1 9.999999999999999547e-07 1.000000000000000036e-10 
body $-1 $1 $-1 $2 #
lump $-1 $-1 $3 $0 #
transform $-1 1 0 0 0 1 0 0 0 1 0 0 0 1 no_rotate no_reflect no_shear #
shell $-1 $-1 $-1 $4 $-1 $1 #
face $5 $6 $7 $3 $-1 $8 forward single #
pid_name-sg-attrib $-1 $-1 $-1 $4 7 rwilson 784252905 68 1 #
face $9 $10 $11 $3 $-1 $12 forward single #
loop $-1 $13 $14 $4 #
cone-surface $-1 0 0.01977500000000000091 0 0 -1 0 -0.06232499999999999846 0 0 1 I I 0 1 0.06232499999999999846 forward I I I I #
pid_name-sg-attrib $-1 $-1 $-1 $6 7 rwilson 784252905 69 1 #
face $15 $16 $17 $3 $-1 $18 reversed single #
loop $-1 $-1 $19 $6 #
plane-surface $-1 0 -0.3955000000000000182 0 0 -1 0 0 0 -1 forward_v I I I I #
loop $-1 $-1 $20 $4 #
coedge $-1 $14 $14 $21 $22 forward $7 $-1 #
pid_name-sg-attrib $-1 $-1 $-1 $10 7 rwilson 784252905 70 1 #
face $23 $24 $25 $3 $-1 $26 reversed single #
loop $-1 $27 $28 $10 #
plane-surface $-1 0 -0.3775000000000000022 0 0 -1 0 0 0 -1 forward_v I I I I #
coedge $-1 $19 $19 $20 $29 reversed $11 $-1 #
coedge $-1 $20 $20 $19 $29 forward $13 $-1 #
coedge $-1 $21 $21 $14 $22 reversed $27 $-1 #
edge $-1 $30 -3.141592653589793116 $30 3.141592653589793116 $21 $31 forward 7 unknown #
pid_name-sg-attrib $-1 $-1 $-1 $16 7 rwilson 784252905 71 1 #
face $32 $33 $34 $3 $-1 $35 forward single #
loop $-1 $36 $37 $16 #
torus-surface $-1 0 -0.3744999999999999996 0 0 -1 0 0.06124999999999999889 0.003000000000000000062 0 0 -1 forward_v I I I I #
loop $-1 $-1 $21 $10 #
coedge $-1 $28 $28 $37 $38 reversed $17 $-1 #
edge $-1 $39 0 $39 6.283185307179586232 $19 $40 forward 7 unknown #
vertex $-1 $22 $41 #
ellipse-curve $-1 0 -0.3775000000000000022 0 1.781344604292270115e-15 -1 0 -0.06232499999999999846 -1.110223024625159992e-16 0 1 I I #
pid_name-sg-attrib $-1 $-1 $-1 $24 7 rwilson 784252905 72 1 #
face $42 $43 $44 $3 $-1 $45 reversed single #
loop $-1 $46 $47 $24 #
cone-surface $-1 0 0.01977500000000000091 0 0 -1 0 -0.05825000000000000316 0 0 1 I I 0 1 0.05825000000000000316 forward I I I I #
loop $-1 $-1 $48 $16 #
coedge $-1 $37 $37 $28 $38 forward $25 $-1 #
edge $-1 $49 -6.283185307179586232 $49 -0 $28 $50 reversed 7 unknown #
vertex $-1 $29 $51 #
ellipse-curve $-1 0 -0.3955000000000000182 0 8.906723021461340716e-16 1 0 -0.06232499999999999846 5.551115123125780237e-17 0 1 I I #
point $-1 0.06232499999999999846 -0.3775000000000000022 7.63235910019797013e-18 #
pid_name-sg-attrib $-1 $-1 $-1 $33 7 rwilson 784252905 73 1 #
face $52 $53 $54 $3 $-1 $55 forward single #
loop $-1 $56 $57 $33 #
torus-surface $-1 0 -0.3674999999999999933 0 0 -1 0 0.06124999999999999889 0.003000000000000000062 0 0 -1 forward_v I I I I #
loop $-1 $-1 $58 $24 #
coedge $-1 $47 $47 $57 $59 reversed $34 $-1 #
coedge $-1 $48 $48 $58 $60 forward $36 $-1 #
vertex $-1 $38 $61 #
ellipse-curve $-1 0 -0.3775000000000000022 0 0 -1 0 -0.06124999999999999889 0 0 1 I I #
point $-1 -0.06232499999999999846 -0.3955000000000000182 0 #
pid_name-sg-attrib $-1 $-1 $-1 $43 7 rwilson 784252905 74 1 #
face $62 $63 $64 $3 $-1 $65 forward single #
loop $-1 $66 $67 $43 #
plane-surface $-1 0 -0.3644999999999999907 0 0 -1 0 0 0 -1 forward_v I I I I #
loop $-1 $-1 $68 $33 #
coedge $-1 $57 $57 $47 $59 forward $44 $-1 #
coedge $-1 $58 $58 $48 $60 reversed $46 $-1 #
edge $-1 $69 -6.283185307179586232 $69 -0 $47 $70 reversed 7 unknown #
edge $-1 $71 -3.141592653589793116 $71 3.141592653589793116 $58 $72 forward 7 unknown #
point $-1 -0.06124999999999999889 -0.3775000000000000022 0 #
pid_name-sg-attrib $-1 $-1 $-1 $53 7 rwilson 784252905 75 1 #
face $73 $74 $75 $3 $-1 $76 reversed single #
loop $-1 $77 $78 $53 #
cone-surface $-1 0 0.01977500000000000091 0 0 -1 0 -0.06232499999999999846 0 0 1 I I 0 1 0.06232499999999999846 forward I I I I #
loop $-1 $-1 $79 $43 #
coedge $-1 $67 $67 $80 $81 reversed $54 $-1 #
coedge $-1 $68 $68 $79 $82 forward $56 $-1 #
vertex $-1 $59 $83 #
ellipse-curve $-1 0 -0.3674999999999999933 0 0 -1 0 -0.05825000000000000316 0 0 1 I I #
vertex $-1 $60 $84 #
ellipse-curve $-1 0 -0.3744999999999999996 0 0 -1 0 -0.05825000000000000316 0 0 1 I I #
pid_name-sg-attrib $-1 $-1 $-1 $63 7 rwilson 784252905 76 1 #
face $85 $86 $87 $3 $-1 $88 forward single #
loop $-1 $89 $90 $63 #
torus-surface $-1 0 -0.1285000000000000031 0 0 -1 0 0.06532499999999999418 0.003000000000000000062 0 0 -1 forward_v I I I I #
loop $-1 $-1 $80 $53 #
coedge $-1 $78 $78 $90 $91 reversed $64 $-1 #
coedge $-1 $79 $79 $68 $82 reversed $66 $-1 #
coedge $-1 $80 $80 $67 $81 forward $77 $-1 #
edge $-1 $92 -3.141592653589793116 $92 3.141592653589793116 $67 $93 forward 7 unknown #
edge $-1 $94 -3.141592653589793116 $94 3.141592653589793116 $79 $95 forward 7 unknown #
point $-1 -0.05825000000000000316 -0.3674999999999999933 0 #
point $-1 0.05825000000000000316 -0.3744999999999999996 7.133332011015350339e-18 #
pid_name-sg-attrib $-1 $-1 $-1 $74 7 rwilson 784252905 77 1 #
face $96 $97 $98 $3 $-1 $99 forward single #
loop $-1 $100 $101 $74 #
cone-surface $-1 0 0.01977500000000000091 0 0 -1 0 -0.107124999999999998 0 0 1 I I 0 1 0.107124999999999998 forward I I I I #
loop $-1 $-1 $102 $63 #
coedge $-1 $90 $90 $78 $91 forward $75 $-1 #
edge $-1 $103 -6.283185307179586232 $103 -0 $78 $104 reversed 7 unknown #
vertex $-1 $81 $105 #
ellipse-curve $-1 0 -0.3644999999999999907 0 -8.906723021461340716e-16 1 0 -0.06232499999999999846 -5.551115123125780237e-17 0 1 I I #
vertex $-1 $82 $106 #
ellipse-curve $-1 0 -0.3644999999999999907 0 0 -1 0 -0.06124999999999999889 0 0 1 I I #
pid_name-sg-attrib $-1 $-1 $-1 $86 7 rwilson 784252905 78 1 #
face $107 $108 $109 $3 $-1 $110 forward single #
loop $-1 $111 $112 $86 #
plane-surface $-1 0 -0.1255000000000000004 0 0 -1 0 0 0 -1 forward_v I I I I #
loop $-1 $-1 $113 $74 #
coedge $-1 $101 $101 $114 $115 reversed $87 $-1 #
coedge $-1 $102 $102 $116 $117 forward $89 $-1 #
vertex $-1 $91 $118 #
ellipse-curve $-1 0 -0.1285000000000000031 0 0 -1 0 -0.06232499999999999846 0 0 1 I I #
point $-1 0.06232499999999999846 -0.3644999999999999907 7.63261117568588076e-18 #
point $-1 0.06124999999999999889 -0.3644999999999999907 7.50071391716205972e-18 #
pid_name-sg-attrib $-1 $-1 $-1 $97 7 rwilson 784252905 79 1 #
face $119 $-1 $120 $3 $-1 $121 reversed single #
loop $-1 $122 $123 $97 #
torus-surface $-1 0 -0.003000000000000000062 0 0 -1 0 0.1041249999999999953 0.003000000000000000062 0 0 -1 forward_v I I I I #
loop $-1 $-1 $116 $86 #
coedge $-1 $112 $112 $113 $124 reversed $98 $-1 #
coedge $-1 $113 $113 $112 $124 forward $100 $-1 #
coedge $-1 $114 $114 $101 $115 forward $122 $-1 #
edge $-1 $125 -6.283185307179586232 $125 -0 $101 $126 reversed 7 unknown #
coedge $-1 $116 $116 $102 $117 reversed $111 $-1 #
edge $-1 $127 -3.141592653589793116 $127 3.141592653589793116 $116 $128 forward 7 unknown #
point $-1 -0.06232499999999999846 -0.1285000000000000031 0 #
pid_name-sg-attrib $-1 $-1 $-1 $108 7 rwilson 784252905 80 1 #
loop $-1 $-1 $129 $108 #
plane-surface $-1 0 0 0 0 -1 0 0 0 -1 forward_v I I I I #
loop $-1 $-1 $114 $97 #
coedge $-1 $123 $123 $129 $130 forward $109 $-1 #
edge $-1 $131 0 $131 6.283185307179586232 $112 $132 forward 7 unknown #
vertex $-1 $115 $133 #
ellipse-curve $-1 0 -0.003000000000000000062 0 0 -1 0 -0.107124999999999998 0 0 1 I I #
vertex $-1 $117 $134 #
ellipse-curve $-1 0 -0.1255000000000000004 0 0 -1 0 -0.06532499999999999418 0 0 1 I I #
coedge $-1 $129 $129 $123 $130 reversed $120 $-1 #
edge $-1 $135 -6.283185307179586232 $135 -0 $129 $136 reversed 7 unknown #
vertex $-1 $124 $137 #
ellipse-curve $-1 0 -0.1255000000000000004 0 -2.590952216161390234e-16 1 0 -0.107124999999999998 -2.775557561562890118e-17 0 1 I I #
point $-1 -0.107124999999999998 -0.003000000000000000062 0 #
point $-1 0.06532499999999999418 -0.1255000000000000004 7.999741006344679511e-18 #
vertex $-1 $130 $138 #
ellipse-curve $-1 0 8.673617379884039324e-19 0 -8.330004686563300374e-18 1 0 -0.1041249999999999953 -8.673617379884039324e-19 0 1 I I #
point $-1 -0.107124999999999998 -0.1255000000000000004 0 #
point $-1 -0.1041249999999999953 8.673617379884039324e-19 0 #
End-of-ACIS-data 