600 0 2 0           
24 FBMach with ACIS - 6.0.3 13 ACIS 6.0.3 NT 24 Wed May 23 19:35:31 2001 
1 9.9999999999999995e-007 1e-010 
body $2 $3 $-1 $4 #
bdycol-kcp $-1 1 3 $5 $6 $7 #
model_id-kcp-attrib $-1 $-1 $-1 $0 1 990660930 50 1966211073 1 #
lump $-1 $-1 $8 $0 #
transform $-1 1 0 0 0 1 0 0 0 1 0 0 0 1 no_rotate no_reflect no_shear #
body $9 $10 $-1 $11 #
body $12 $13 $-1 $14 #
body $15 $16 $-1 $17 #
shell $-1 $-1 $-1 $18 $-1 $3 #
model_id-kcp-attrib $-1 $-1 $-1 $5 1 990660930 60 1966866434 1 #
lump $-1 $-1 $19 $5 #
transform $-1 1 0 0 0 1 0 0 0 1 0 -0.19775000000000004 0 1 no_rotate no_reflect no_shear #
rgb_color-st-attrib $-1 $20 $-1 $6 0.5 1 1 #
lump $-1 $-1 $21 $6 #
transform $-1 1 0 0 0 1 0 0 0 1 0 -0.19775000000000004 0 1 no_rotate no_reflect no_shear #
rgb_color-st-attrib $-1 $22 $-1 $7 1 0.5 1 #
lump $-1 $-1 $23 $7 #
transform $-1 1 0 0 0 1 0 0 0 1 0 -0.19775000000000004 0 1 no_rotate no_reflect no_shear #
face $24 $25 $26 $8 $-1 $27 forward single #
shell $-1 $-1 $-1 $28 $-1 $10 #
model_id-kcp-attrib $-1 $-1 $12 $6 1 990660930 150 1972764675 1 #
shell $-1 $-1 $-1 $29 $-1 $13 #
model_id-kcp-attrib $-1 $-1 $15 $7 1 990660930 320 1967128580 1 #
shell $-1 $-1 $-1 $30 $-1 $16 #
model_id-kcp-attrib $-1 $31 $-1 $18 1 990660930 50 1966211073 2 #
face $32 $33 $34 $8 $-1 $35 forward single #
loop $-1 $36 $37 $18 #
cone-surface $-1 0 0.019775000000000001 0 0 -1 0 -0.062324999999999998 0 0 1 I I 0 1 0.062324999999999998 forward I I I I #
face $-1 $38 $39 $19 $-1 $40 forward single #
face $-1 $41 $42 $21 $-1 $43 reversed single #
face $-1 $44 $45 $23 $-1 $46 reversed single #
pid_name-sg-attrib $-1 $-1 $24 $18 7 114 119 105 108 115 111 110 784252905 68 1 #
model_id-kcp-attrib $-1 $47 $-1 $25 1 990660930 50 1966211073 15 #
face $48 $49 $50 $8 $-1 $51 reversed single #
loop $-1 $-1 $52 $25 #
plane-surface $-1 0 -0.39550000000000002 0 0 -1 0 0 0 -1 forward_v I I I I #
loop $-1 $-1 $53 $18 #
coedge $-1 $37 $37 $54 $55 forward $26 $-1 #
face $-1 $56 $57 $19 $-1 $58 reversed single #
loop $-1 $-1 $59 $28 #
plane-surface $-1 0 0 0.107125 0 0 1 1 0 0 forward_v I I I I #
face $-1 $60 $61 $21 $-1 $43 reversed single #
loop $-1 $-1 $62 $29 #
cone-surface $-1 4.0162788706299122e-034 -0.19774999999999998 0 0 -1 0 0.107125 0 -1.3118595565322216e-017 1 I I 0 1 0.107125 forward I I I I #
face $-1 $63 $64 $23 $-1 $65 forward single #
loop $-1 $66 $67 $30 #
plane-surface $-1 -0.008240656267603742 -0.16674999999999995 3.8871363947612184e-019 3.0092319879111807e-032 1 2.0061546586074533e-032 0 -2.0061546586074533e-032 1 forward_v I I I I #
model_id-kcp-attrib $-1 $68 $32 $25 1 990660930 50 1966211073 3 #
model_id-kcp-attrib $-1 $69 $-1 $33 1 990660930 50 1966211073 4 #
face $70 $71 $72 $8 $-1 $73 reversed single #
loop $-1 $74 $75 $33 #
plane-surface $-1 0 -0.3775 0 0 -1 0 0 0 -1 forward_v I I I I #
coedge $-1 $52 $52 $53 $76 reversed $34 $-1 #
coedge $-1 $53 $53 $52 $76 forward $36 $-1 #
coedge $-1 $54 $54 $37 $55 reversed $74 $-1 #
edge $-1 $77 -3.1415926535897931 $77 3.1415926535897931 $54 $78 forward 7 unknown #
face $79 $80 $81 $19 $-1 $82 reversed single #
loop $-1 $-1 $83 $38 #
plane-surface $-1 0 0 -0.107125 0 0 1 1 0 0 forward_v I I I I #
coedge $-1 $84 $85 $86 $87 forward $39 $-1 #
face $-1 $88 $89 $21 $-1 $43 reversed single #
loop $-1 $-1 $90 $41 #
coedge $-1 $91 $92 $93 $94 reversed $42 $-1 #
face $95 $96 $97 $23 $-1 $98 reversed single #
loop $-1 $99 $100 $44 #
cone-surface $-1 4.0162788706299122e-034 -0.19774999999999998 0 0 -1 0 0.107125 0 -1.3118595565322216e-017 1 I I 0 1 0.107125 forward I I I I #
loop $-1 $-1 $101 $30 #
coedge $-1 $67 $67 $102 $103 forward $45 $-1 #
pid_name-sg-attrib $-1 $-1 $47 $25 7 114 119 105 108 115 111 110 784252905 69 1 #
pid_name-sg-attrib $-1 $-1 $48 $33 7 114 119 105 108 115 111 110 784252905 70 1 #
model_id-kcp-attrib $-1 $104 $-1 $49 1 990660930 50 1966211073 5 #
face $105 $106 $107 $8 $-1 $108 forward single #
loop $-1 $109 $110 $49 #
torus-surface $-1 0 -0.3745 0 0 -1 0 0.061249999999999999 0.0030000000000000001 0 0 -1 forward_v I I I I #
loop $-1 $-1 $54 $33 #
coedge $-1 $75 $75 $110 $111 reversed $50 $-1 #
edge $112 $113 0 $113 6.2831853071795862 $52 $114 forward 7 unknown #
vertex $-1 $55 $115 #
ellipse-curve $-1 0 -0.3775 0 1.7813446042922701e-015 -1 0 -0.062324999999999998 -1.11022302462516e-016 0 1 I I #
model_id-kcp-attrib $-1 $-1 $-1 $56 1 990660930 60 1966866434 2 #
face $-1 $116 $117 $19 $-1 $118 reversed single #
loop $-1 $-1 $119 $56 #
plane-surface $-1 0 -0.19775000000000004 0 0 1 0 0 0 1 forward_v I I I I #
coedge $-1 $120 $121 $122 $123 forward $57 $-1 #
coedge $-1 $124 $59 $125 $126 forward $39 $-1 #
coedge $-1 $59 $124 $127 $128 forward $39 $-1 #
coedge $-1 $129 $130 $59 $87 reversed $131 $-1 #
edge $-1 $132 -0.19775000000000004 $133 0.19775000000000004 $86 $134 forward 7 unknown #
face $-1 $135 $136 $21 $-1 $43 reversed single #
loop $-1 $-1 $137 $60 #
coedge $-1 $138 $139 $140 $141 reversed $61 $-1 #
coedge $-1 $142 $62 $143 $144 forward $42 $-1 #
coedge $-1 $62 $142 $145 $146 reversed $42 $-1 #
coedge $-1 $147 $148 $62 $94 forward $149 $-1 #
edge $-1 $150 1.2246063538223773e-016 $151 1.5707963267948968 $93 $152 forward 7 unknown #
pid_name-sg-attrib $-1 $-1 $-1 $63 7 114 119 105 108 115 111 110 784252905 75 1 #
face $153 $154 $155 $23 $-1 $156 forward single #
loop $-1 $157 $158 $63 #
cone-surface $-1 0 0.21752500000000002 0 0 -1 0 -0.062324999999999998 0 0 1 I I 0 1 0.062324999999999998 forward I I I I #
loop $-1 $-1 $159 $44 #
coedge $-1 $100 $100 $160 $161 reversed $64 $-1 #
coedge $-1 $101 $101 $159 $162 forward $66 $-1 #
coedge $-1 $102 $102 $67 $103 reversed $157 $-1 #
edge $-1 $163 -3.1415926535897931 $163 3.1415926535897931 $102 $164 forward 7 unknown #
pid_name-sg-attrib $-1 $-1 $70 $49 7 114 119 105 108 115 111 110 784252905 71 1 #
model_id-kcp-attrib $-1 $165 $-1 $71 1 990660930 50 1966211073 6 #
face $166 $167 $168 $8 $-1 $169 reversed single #
loop $-1 $170 $171 $71 #
cone-surface $-1 0 0.019775000000000001 0 0 -1 0 -0.058250000000000003 0 0 1 I I 0 1 0.058250000000000003 forward I I I I #
loop $-1 $-1 $172 $49 #
coedge $-1 $110 $110 $75 $111 forward $72 $-1 #
edge $-1 $173 -6.2831853071795862 $173 0 $75 $174 reversed 7 unknown #
attrib_edge_convexity-kcp-attrib $-1 $175 $-1 $76 1 #
vertex $-1 $76 $176 #
ellipse-curve $-1 0 -0.39550000000000002 0 8.9067230214613407e-016 1 0 -0.062324999999999998 5.5511151231257802e-017 0 1 I I #
point $-1 0.062324999999999998 -0.3775 7.6323591001979701e-018 #
face $177 $178 $179 $19 $-1 $180 reversed single #
loop $-1 $-1 $181 $80 #
plane-surface $-1 -0.107125 0 0 1 0 0 0 0 -1 forward_v I I I I #
coedge $-1 $182 $127 $183 $184 forward $81 $-1 #
coedge $-1 $185 $83 $182 $186 forward $57 $-1 #
coedge $-1 $83 $185 $187 $188 forward $57 $-1 #
coedge $-1 $130 $129 $83 $123 reversed $131 $-1 #
edge $-1 $189 -0.19775000000000004 $190 0.19775000000000004 $122 $191 forward 7 unknown #
coedge $-1 $85 $84 $192 $193 forward $39 $-1 #
coedge $-1 $194 $195 $84 $126 reversed $179 $-1 #
edge $-1 $133 -0.107125 $196 0.107125 $125 $197 forward 7 unknown #
coedge $-1 $119 $198 $85 $128 reversed $81 $-1 #
edge $-1 $199 -0.107125 $132 0.107125 $127 $200 forward 7 unknown #
coedge $-1 $122 $86 $198 $201 forward $131 $-1 #
coedge $-1 $86 $122 $194 $202 reversed $131 $-1 #
loop $-1 $-1 $129 $178 #
vertex $-1 $87 $203 #
vertex $-1 $87 $204 #
straight-curve $-1 0.107125 0 0.107125 0 1 0 I I #
face $-1 $205 $206 $21 $-1 $207 forward single #
loop $-1 $-1 $208 $88 #
coedge $-1 $209 $210 $208 $211 forward $89 $-1 #
coedge $-1 $212 $90 $213 $214 reversed $61 $-1 #
coedge $-1 $90 $212 $92 $146 forward $61 $-1 #
coedge $-1 $215 $216 $90 $141 forward $217 $-1 #
edge $-1 $218 -3.1415926535897931 $219 -1.5707963267948968 $140 $220 forward 7 unknown #
coedge $-1 $92 $91 $221 $222 reversed $42 $-1 #
coedge $-1 $210 $209 $223 $144 reversed $89 $-1 #
edge $-1 $150 -0.39550000000000002 $224 5.5511151231257827e-017 $223 $225 forward 7 unknown #
coedge $-1 $226 $227 $228 $146 forward $229 $-1 #
edge $-1 $151 -0.39550000000000002 $219 5.5511151231257827e-017 $145 $230 forward 7 unknown #
coedge $-1 $148 $93 $227 $231 reversed $149 $-1 #
coedge $-1 $93 $147 $232 $233 forward $149 $-1 #
loop $-1 $-1 $93 $234 #
vertex $-1 $235 $236 #
vertex $-1 $237 $238 #
ellipse-curve $-1 4.0162788706299122e-034 0.19775000000000004 0 0 -1 0 0.107125 0 -1.3118595565322216e-017 1 I I #
pid_name-sg-attrib $-1 $-1 $-1 $96 7 114 119 105 108 115 111 110 784252905 76 1 #
face $-1 $-1 $239 $23 $-1 $240 reversed single #
loop $-1 $241 $242 $96 #
torus-surface $-1 0 0.069250000000000034 0 0 -1 0 0.065324999999999994 0.0030000000000000001 0 0 -1 forward_v I I I I #
loop $-1 $-1 $102 $63 #
coedge $-1 $158 $158 $242 $243 forward $97 $-1 #
coedge $-1 $159 $159 $101 $162 reversed $99 $-1 #
coedge $-1 $160 $160 $100 $161 forward $239 $-1 #
edge $244 $245 -3.1415926535897931 $245 3.1415926535897931 $100 $246 forward 7 unknown #
edge $-1 $247 -3.1415926535897931 $247 3.1415926535897931 $159 $248 forward 7 unknown #
vertex $-1 $103 $249 #
ellipse-curve $-1 0 -0.16674999999999995 0 -8.9067230214613407e-016 1 0 -0.062324999999999998 -5.5511151231257802e-017 0 1 I I #
pid_name-sg-attrib $-1 $-1 $105 $71 7 114 119 105 108 115 111 110 784252905 72 1 #
model_id-kcp-attrib $-1 $250 $-1 $106 1 990660930 50 1966211073 7 #
face $251 $252 $253 $8 $-1 $254 forward single #
loop $-1 $255 $256 $106 #
torus-surface $-1 0 -0.36749999999999999 0 0 -1 0 0.061249999999999999 0.0030000000000000001 0 0 -1 forward_v I I I I #
loop $-1 $-1 $257 $71 #
coedge $-1 $171 $171 $256 $258 reversed $107 $-1 #
coedge $-1 $172 $172 $257 $259 forward $109 $-1 #
vertex $-1 $111 $260 #
ellipse-curve $-1 0 -0.3775 0 0 -1 0 -0.061249999999999999 0 0 1 I I #
convexity-sys-attrib $-1 $-1 $112 $76 #
point $-1 -0.062324999999999998 -0.39550000000000002 0 #
model_id-kcp-attrib $-1 $-1 $-1 $116 1 990660930 60 1966866434 3 #
face $-1 $-1 $131 $19 $-1 $261 reversed single #
loop $-1 $-1 $194 $116 #
plane-surface $-1 0 0.19775000000000004 0 0 -1 0 0 0 -1 forward_v I I I I #
coedge $-1 $262 $192 $195 $263 forward $117 $-1 #
coedge $-1 $198 $119 $120 $186 reversed $81 $-1 #
coedge $-1 $192 $262 $119 $184 reversed $117 $-1 #
edge $-1 $199 -0.107125 $264 0.107125 $183 $265 forward 7 unknown #
coedge $-1 $121 $120 $262 $266 forward $57 $-1 #
edge $-1 $190 -0.107125 $264 0.107125 $182 $267 forward 7 unknown #
coedge $-1 $195 $194 $121 $188 reversed $179 $-1 #
edge $-1 $268 -0.107125 $189 0.107125 $187 $269 forward 7 unknown #
vertex $-1 $123 $270 #
vertex $-1 $201 $271 #
straight-curve $-1 0.107125 0 -0.107125 0 -1 0 I I #
coedge $-1 $181 $183 $124 $193 reversed $117 $-1 #
edge $-1 $196 -0.19775000000000004 $199 0.19775000000000004 $192 $272 forward 7 unknown #
coedge $-1 $187 $125 $130 $202 forward $179 $-1 #
coedge $-1 $125 $187 $181 $263 reversed $179 $-1 #
vertex $-1 $126 $273 #
straight-curve $-1 0 0.19775000000000004 0.107125 -1 0 0 I I #
coedge $-1 $127 $182 $129 $201 reversed $81 $-1 #
vertex $-1 $193 $274 #
straight-curve $-1 0 -0.19775000000000004 0.107125 1 0 0 I I #
edge $-1 $132 -0.107125 $190 0.107125 $129 $275 forward 7 unknown #
edge $-1 $133 -0.107125 $189 0.107125 $130 $276 forward 7 unknown #
point $-1 0.107125 -0.19775000000000004 0.107125 #
point $-1 0.107125 0.19775000000000004 0.107125 #
face $-1 $277 $278 $21 $-1 $279 reversed single #
loop $-1 $-1 $228 $135 #
plane-surface $-1 0 0 0.107125 0 0 1 1 0 0 forward_v I I I I #
coedge $-1 $280 $281 $282 $211 reversed $136 $-1 #
coedge $-1 $143 $137 $283 $284 reversed $89 $-1 #
coedge $-1 $137 $143 $285 $286 reversed $89 $-1 #
edge $-1 $287 -0.39550000000000002 $288 5.5511151231257827e-017 $282 $289 forward 7 unknown #
coedge $-1 $139 $138 $290 $291 reversed $61 $-1 #
coedge $-1 $292 $293 $294 $214 forward $295 $-1 #
edge $-1 $296 -0.39550000000000002 $218 5.5511151231257827e-017 $213 $297 forward 7 unknown #
coedge $-1 $216 $140 $298 $299 reversed $217 $-1 #
coedge $-1 $140 $215 $292 $300 forward $217 $-1 #
loop $-1 $-1 $140 $301 #
vertex $-1 $302 $303 #
vertex $-1 $304 $305 #
ellipse-curve $-1 4.0162788706299122e-034 -0.19775000000000004 0 0 1 0 0.107125 0 -1.3118595565322216e-017 1 I I #
coedge $-1 $306 $307 $142 $222 forward $308 $-1 #
edge $-1 $219 -1.5707963267948968 $224 -1.2246063538223773e-016 $221 $220 forward 7 unknown #
coedge $-1 $309 $310 $311 $144 forward $278 $-1 #
vertex $-1 $312 $313 #
straight-curve $-1 0.107125 -0.19774999999999998 0 0 -1 0 I I #
coedge $-1 $314 $145 $307 $304 forward $229 $-1 #
coedge $-1 $145 $314 $147 $231 forward $229 $-1 #
coedge $-1 $315 $298 $139 $146 reversed $206 $-1 #
loop $-1 $-1 $145 $316 #
straight-curve $-1 4.0162788706299122e-034 -0.19774999999999998 0.107125 0 -1 0 I I #
edge $-1 $317 -0.107125 $151 -4.0162788706299122e-034 $147 $318 forward 7 unknown #
coedge $-1 $319 $311 $148 $233 reversed $320 $-1 #
edge $-1 $317 -0.107125 $150 0 $232 $321 forward 7 unknown #
face $-1 $322 $149 $21 $-1 $323 reversed single #
edge $-1 $150 0 $324 0.107125 $310 $321 forward 7 unknown #
point $-1 0.107125 0.19775000000000004 0 #
edge $-1 $151 -4.0162788706299122e-034 $325 0.107125 $326 $318 forward 7 unknown #
point $-1 4.0162788706299122e-034 0.19775000000000004 0.107125 #
loop $-1 $327 $160 $154 #
plane-surface $-1 0 0.072250000000000092 0 0 -1 0 1 0 0 forward_v I I I I #
loop $-1 $-1 $328 $96 #
coedge $-1 $242 $242 $158 $243 reversed $155 $-1 #
edge $329 $330 -6.2831853071795862 $330 0 $158 $331 reversed 7 unknown #
convexity-sys-attrib $-1 $-1 $-1 $161 #
vertex $-1 $161 $332 #
ellipse-curve $-1 4.0162788706299122e-034 0.072250000000000092 0 0 1 0 0.107125 0 -1.3118595565322216e-017 1 I I #
vertex $-1 $162 $333 #
ellipse-curve $-1 4.0162788706299122e-034 -0.16674999999999995 0 -3.0092319879111807e-032 -1 -2.0061546586074533e-032 0.107125 0 -1.3118595565322216e-017 1 I I #
point $-1 0.062324999999999998 -0.16674999999999995 7.6326111756858808e-018 #
pid_name-sg-attrib $-1 $-1 $166 $106 7 114 119 105 108 115 111 110 784252905 73 1 #
model_id-kcp-attrib $-1 $334 $-1 $167 1 990660930 50 1966211073 8 #
face $335 $336 $337 $8 $-1 $338 forward single #
loop $-1 $339 $340 $167 #
plane-surface $-1 0 -0.36449999999999999 0 0 -1 0 0 0 -1 forward_v I I I I #
loop $-1 $-1 $341 $106 #
coedge $-1 $256 $256 $171 $258 forward $168 $-1 #
coedge $-1 $257 $257 $172 $259 reversed $170 $-1 #
edge $-1 $342 -6.2831853071795862 $342 0 $171 $343 reversed 7 unknown #
edge $-1 $344 -3.1415926535897931 $344 3.1415926535897931 $257 $345 forward 7 unknown #
point $-1 -0.061249999999999999 -0.3775 0 #
plane-surface $-1 0.107125 0 0 -1 0 0 0 0 1 forward_v I I I I #
coedge $-1 $183 $181 $185 $266 reversed $117 $-1 #
edge $-1 $196 -0.107125 $268 0.107125 $195 $346 forward 7 unknown #
vertex $-1 $266 $347 #
straight-curve $-1 -0.107125 -0.19775000000000004 0 0 0 -1 I I #
edge $-1 $264 -0.19775000000000004 $268 0.19775000000000004 $262 $348 forward 7 unknown #
straight-curve $-1 0 -0.19775000000000004 -0.107125 -1 0 0 I I #
vertex $-1 $188 $349 #
straight-curve $-1 0 0.19775000000000004 -0.107125 1 0 0 I I #
point $-1 0.107125 0.19775000000000004 -0.107125 #
point $-1 0.107125 -0.19775000000000004 -0.107125 #
straight-curve $-1 -0.107125 0 0.107125 0 -1 0 I I #
point $-1 -0.107125 0.19775000000000004 0.107125 #
point $-1 -0.107125 -0.19775000000000004 0.107125 #
straight-curve $-1 0.107125 -0.19775000000000004 0 0 0 -1 I I #
straight-curve $-1 0.107125 0.19775000000000004 0 0 0 -1 I I #
face $-1 $350 $351 $21 $-1 $352 reversed single #
loop $-1 $-1 $223 $205 #
plane-surface $-1 0.107125 0 0 -1 0 0 0 0 1 forward_v I I I I #
coedge $-1 $353 $208 $354 $355 reversed $136 $-1 #
coedge $-1 $208 $353 $356 $357 reversed $136 $-1 #
coedge $-1 $358 $359 $360 $211 forward $361 $-1 #
coedge $-1 $362 $363 $209 $284 forward $364 $-1 #
edge $-1 $224 -1.2246063538223773e-016 $288 1.5707963267948966 $283 $220 forward 7 unknown #
coedge $-1 $365 $366 $210 $286 forward $367 $-1 #
edge $-1 $287 -1.5707963267948966 $150 1.2246063538223773e-016 $285 $152 forward 7 unknown #
vertex $-1 $368 $369 #
vertex $-1 $370 $371 #
straight-curve $-1 4.0162788706299122e-034 -0.19774999999999998 -0.107125 0 -1 0 I I #
coedge $-1 $372 $326 $212 $291 forward $373 $-1 #
edge $-1 $151 1.5707963267948968 $296 3.1415926535897931 $290 $152 forward 7 unknown #
coedge $-1 $374 $213 $216 $300 reversed $295 $-1 #
coedge $-1 $213 $374 $372 $375 forward $295 $-1 #
coedge $-1 $376 $377 $353 $214 reversed $351 $-1 #
loop $-1 $-1 $213 $378 #
vertex $-1 $379 $380 #
straight-curve $-1 -0.107125 -0.19774999999999998 0 0 -1 0 I I #
coedge $-1 $228 $381 $215 $299 forward $206 $-1 #
edge $-1 $382 -0.107125 $219 4.0162788706299122e-034 $215 $383 forward 7 unknown #
edge $-1 $382 -0.107125 $218 0 $292 $384 forward 7 unknown #
face $-1 $385 $217 $21 $-1 $386 reversed single #
edge $-1 $218 0 $387 0.107125 $377 $384 forward 7 unknown #
point $-1 -0.107125 -0.19775000000000004 0 #
edge $-1 $219 4.0162788706299122e-034 $388 0.107125 $307 $383 forward 7 unknown #
point $-1 4.0162788706299122e-034 -0.19775000000000004 0.107125 #
coedge $-1 $307 $221 $389 $390 reversed $308 $-1 #
coedge $-1 $221 $306 $226 $304 reversed $308 $-1 #
loop $-1 $-1 $221 $385 #
coedge $-1 $391 $223 $363 $312 forward $278 $-1 #
coedge $-1 $223 $391 $365 $235 reversed $278 $-1 #
coedge $-1 $232 $389 $91 $144 reversed $320 $-1 #
edge $-1 $224 0 $392 0.107125 $309 $393 forward 7 unknown #
point $-1 0.107125 -0.19775000000000004 0 #
coedge $-1 $227 $226 $319 $394 forward $229 $-1 #
coedge $-1 $381 $228 $326 $237 forward $206 $-1 #
face $-1 $395 $229 $21 $-1 $207 forward single #
vertex $-1 $394 $396 #
straight-curve $-1 0 0.19775000000000004 0.107125 -1 0 0 I I #
coedge $-1 $389 $232 $314 $394 reversed $320 $-1 #
loop $-1 $-1 $311 $397 #
straight-curve $-1 0.107125 0.19775000000000004 0 0 0 -1 I I #
face $-1 $398 $373 $21 $-1 $323 reversed single #
plane-surface $-1 0 0.19775000000000004 0 0 -1 0 0 0 -1 forward_v I I I I #
vertex $-1 $399 $400 #
vertex $-1 $237 $401 #
coedge $-1 $290 $372 $315 $237 reversed $373 $-1 #
loop $-1 $-1 $402 $154 #
coedge $-1 $328 $328 $402 $403 forward $241 $-1 #
convexity-sys-attrib $-1 $-1 $-1 $243 #
vertex $-1 $243 $404 #
ellipse-curve $-1 0 0.069250000000000034 0 0 -1 0 -0.062324999999999998 0 0 1 I I #
point $-1 -0.107125 0.072250000000000092 2.6237191130644432e-017 #
point $-1 -0.107125 -0.16675000000000001 2.6237191130644432e-017 #
pid_name-sg-attrib $-1 $-1 $251 $167 7 114 119 105 108 115 111 110 784252905 74 1 #
model_id-kcp-attrib $-1 $405 $-1 $252 1 990660930 50 1966211073 9 #
face $406 $407 $408 $8 $-1 $409 reversed single #
loop $-1 $410 $411 $252 #
cone-surface $-1 0 0.019775000000000001 0 0 -1 0 -0.062324999999999998 0 0 1 I I 0 1 0.062324999999999998 forward I I I I #
loop $-1 $-1 $412 $167 #
coedge $-1 $340 $340 $413 $414 reversed $253 $-1 #
coedge $-1 $341 $341 $412 $415 forward $255 $-1 #
vertex $-1 $258 $416 #
ellipse-curve $-1 0 -0.36749999999999999 0 0 -1 0 -0.058250000000000003 0 0 1 I I #
vertex $-1 $259 $417 #
ellipse-curve $-1 0 -0.3745 0 0 -1 0 -0.058250000000000003 0 0 1 I I #
straight-curve $-1 -0.107125 0.19775000000000004 0 0 0 -1 I I #
point $-1 -0.107125 -0.19775000000000004 -0.107125 #
straight-curve $-1 -0.107125 0 -0.107125 0 1 0 I I #
point $-1 -0.107125 0.19775000000000004 -0.107125 #
face $-1 $301 $418 $21 $-1 $386 reversed single #
loop $-1 $-1 $294 $277 #
plane-surface $-1 -0.107125 0 0 1 0 0 0 0 -1 forward_v I I I I #
coedge $-1 $281 $280 $138 $214 forward $136 $-1 #
coedge $-1 $419 $420 $280 $355 forward $421 $-1 #
edge $-1 $296 -3.1415926535897931 $287 -1.5707963267948966 $354 $152 forward 7 unknown #
coedge $-1 $422 $423 $281 $357 forward $418 $-1 #
edge $-1 $288 1.5707963267948966 $218 3.1415926535897931 $356 $220 forward 7 unknown #
coedge $-1 $424 $282 $423 $370 forward $361 $-1 #
coedge $-1 $282 $424 $419 $425 forward $361 $-1 #
coedge $-1 $426 $427 $137 $211 reversed $428 $-1 #
loop $-1 $-1 $282 $395 #
coedge $-1 $363 $283 $427 $429 reversed $364 $-1 #
coedge $-1 $283 $362 $309 $312 reversed $364 $-1 #
loop $-1 $-1 $283 $430 #
coedge $-1 $366 $285 $310 $235 forward $367 $-1 #
coedge $-1 $285 $365 $426 $368 reversed $367 $-1 #
loop $-1 $-1 $285 $431 #
edge $-1 $287 4.0162788706299122e-034 $324 0.107125 $366 $432 forward 7 unknown #
point $-1 4.0162788706299122e-034 0.19775000000000004 -0.107125 #
edge $-1 $288 -4.0162788706299122e-034 $387 0.107125 $423 $433 forward 7 unknown #
point $-1 4.0162788706299122e-034 -0.19775000000000004 -0.107125 #
coedge $-1 $326 $290 $293 $375 reversed $373 $-1 #
loop $-1 $-1 $290 $322 #
coedge $-1 $293 $292 $381 $434 reversed $295 $-1 #
edge $-1 $325 -0.107125 $296 0 $372 $435 forward 7 unknown #
coedge $-1 $436 $294 $420 $379 forward $351 $-1 #
coedge $-1 $294 $436 $422 $302 reversed $351 $-1 #
face $-1 $397 $295 $21 $-1 $352 reversed single #
edge $-1 $296 0 $437 0.107125 $420 $435 forward 7 unknown #
point $-1 -0.107125 0.19775000000000004 0 #
coedge $-1 $298 $315 $374 $434 forward $206 $-1 #
vertex $-1 $434 $438 #
straight-curve $-1 0 -0.19775000000000004 0.107125 1 0 0 I I #
straight-curve $-1 -0.107125 -0.19775000000000004 0 0 0 -1 I I #
face $-1 $430 $308 $21 $-1 $386 reversed single #
plane-surface $-1 0 -0.19775000000000004 0 0 1 0 0 0 1 forward_v I I I I #
vertex $-1 $439 $440 #
vertex $-1 $394 $441 #
coedge $-1 $311 $319 $306 $390 forward $320 $-1 #
edge $-1 $388 -0.107125 $224 0 $389 $393 forward 7 unknown #
coedge $-1 $310 $309 $442 $399 reversed $278 $-1 #
vertex $-1 $312 $443 #
straight-curve $-1 0.107125 -0.19775000000000004 0 0 0 -1 I I #
edge $-1 $388 -0.19775000000000004 $317 0.19775000000000004 $319 $444 forward 7 unknown #
face $-1 $378 $361 $21 $-1 $445 reversed single #
point $-1 0.107125 0.19775000000000004 0.107125 #
face $-1 $-1 $320 $21 $-1 $279 reversed single #
face $-1 $446 $421 $21 $-1 $323 reversed single #
edge $-1 $324 -0.19775000000000004 $392 0.19775000000000004 $391 $447 forward 7 unknown #
point $-1 0.107125 0.19775000000000004 -0.107125 #
point $-1 -0.107125 0.19775000000000004 0.107125 #
coedge $-1 $402 $402 $328 $403 reversed $327 $-1 #
edge $448 $449 -1.5707963267948968 $449 4.7123889803846897 $402 $450 forward 7 unknown #
point $-1 -0.062324999999999998 0.069250000000000034 0 #
pid_name-sg-attrib $-1 $-1 $335 $252 7 114 119 105 108 115 111 110 784252905 75 1 #
model_id-kcp-attrib $-1 $451 $-1 $336 1 990660930 50 1966211073 10 #
face $452 $453 $454 $8 $-1 $455 forward single #
loop $-1 $456 $457 $336 #
torus-surface $-1 0 -0.1285 0 0 -1 0 0.065324999999999994 0.0030000000000000001 0 0 -1 forward_v I I I I #
loop $-1 $-1 $413 $252 #
coedge $-1 $411 $411 $457 $458 reversed $337 $-1 #
coedge $-1 $412 $412 $341 $415 reversed $339 $-1 #
coedge $-1 $413 $413 $340 $414 forward $410 $-1 #
edge $-1 $459 -3.1415926535897931 $459 3.1415926535897931 $340 $460 forward 7 unknown #
edge $-1 $461 -3.1415926535897931 $461 3.1415926535897931 $412 $462 forward 7 unknown #
point $-1 -0.058250000000000003 -0.36749999999999999 0 #
point $-1 0.058250000000000003 -0.3745 7.1333320110153503e-018 #
loop $-1 $-1 $356 $350 #
coedge $-1 $420 $354 $359 $425 reversed $421 $-1 #
coedge $-1 $354 $419 $376 $379 reversed $421 $-1 #
loop $-1 $-1 $354 $398 #
coedge $-1 $423 $356 $377 $302 forward $418 $-1 #
coedge $-1 $356 $422 $358 $370 reversed $418 $-1 #
coedge $-1 $359 $358 $436 $439 forward $361 $-1 #
edge $-1 $437 -0.107125 $287 4.0162788706299122e-034 $419 $432 forward 7 unknown #
coedge $-1 $442 $360 $366 $368 forward $428 $-1 #
coedge $-1 $360 $442 $362 $429 forward $428 $-1 #
loop $-1 $-1 $360 $446 #
edge $-1 $392 -0.107125 $288 -4.0162788706299122e-034 $362 $433 forward 7 unknown #
face $-1 $431 $364 $21 $-1 $386 reversed single #
face $-1 $234 $367 $21 $-1 $323 reversed single #
straight-curve $-1 0 0.19775000000000004 -0.107125 1 0 0 I I #
straight-curve $-1 0 -0.19775000000000004 -0.107125 -1 0 0 I I #
edge $-1 $325 -0.19775000000000004 $382 0.19775000000000004 $374 $463 forward 7 unknown #
straight-curve $-1 -0.107125 0.19775000000000004 0 0 0 -1 I I #
coedge $-1 $377 $376 $424 $439 reversed $351 $-1 #
vertex $-1 $425 $464 #
point $-1 -0.107125 -0.19775000000000004 0.107125 #
edge $-1 $387 -0.19775000000000004 $437 0.19775000000000004 $436 $465 forward 7 unknown #
point $-1 -0.107125 -0.19775000000000004 -0.107125 #
point $-1 0.107125 -0.19775000000000004 0.107125 #
coedge $-1 $427 $426 $391 $399 forward $428 $-1 #
point $-1 0.107125 -0.19775000000000004 -0.107125 #
straight-curve $-1 0.107125 0 0.107125 0 1 0 I I #
plane-surface $-1 0 0 -0.107125 0 0 1 1 0 0 forward_v I I I I #
face $-1 $316 $428 $21 $-1 $445 reversed single #
straight-curve $-1 0.107125 0 -0.107125 0 -1 0 I I #
convexity-sys-attrib $-1 $-1 $-1 $403 #
vertex $-1 $403 $466 #
ellipse-curve $-1 0 0.072250000000000092 0 0 1 0 0 0 -0.065324999999999994 1 I I #
pid_name-sg-attrib $-1 $-1 $406 $336 7 114 119 105 108 115 111 110 784252905 76 1 #
model_id-kcp-attrib $-1 $467 $-1 $407 1 990660930 50 1966211073 11 #
face $468 $469 $470 $8 $-1 $471 forward single #
loop $-1 $472 $473 $407 #
cone-surface $-1 0 0.019775000000000001 0 0 -1 0 -0.107125 0 0 1 I I 0 1 0.107125 forward I I I I #
loop $-1 $-1 $474 $336 #
coedge $-1 $457 $457 $411 $458 forward $408 $-1 #
edge $-1 $475 -6.2831853071795862 $475 0 $411 $476 reversed 7 unknown #
vertex $-1 $414 $477 #
ellipse-curve $-1 0 -0.36449999999999999 0 -8.9067230214613407e-016 1 0 -0.062324999999999998 -5.5511151231257802e-017 0 1 I I #
vertex $-1 $415 $478 #
ellipse-curve $-1 0 -0.36449999999999999 0 0 -1 0 -0.061249999999999999 0 0 1 I I #
straight-curve $-1 -0.107125 0 0.107125 0 -1 0 I I #
point $-1 -0.107125 0.19775000000000004 -0.107125 #
straight-curve $-1 -0.107125 0 -0.107125 0 1 0 I I #
point $-1 0.065324999999999994 0.072250000000000036 7.9997410063446795e-018 #
pid_name-sg-attrib $-1 $-1 $452 $407 7 114 119 105 108 115 111 110 784252905 77 1 #
model_id-kcp-attrib $-1 $479 $-1 $453 1 990660930 50 1966211073 12 #
face $480 $481 $482 $8 $-1 $483 forward single #
loop $-1 $484 $485 $453 #
plane-surface $-1 0 -0.1255 0 0 -1 0 0 0 -1 forward_v I I I I #
loop $-1 $-1 $486 $407 #
coedge $-1 $473 $473 $487 $488 reversed $454 $-1 #
coedge $-1 $474 $474 $489 $490 forward $456 $-1 #
vertex $-1 $458 $491 #
ellipse-curve $-1 0 -0.1285 0 0 -1 0 -0.062324999999999998 0 0 1 I I #
point $-1 0.062324999999999998 -0.36449999999999999 7.6326111756858808e-018 #
point $-1 0.061249999999999999 -0.36449999999999999 7.5007139171620597e-018 #
pid_name-sg-attrib $-1 $-1 $468 $453 7 114 119 105 108 115 111 110 784252905 78 1 #
model_id-kcp-attrib $-1 $492 $-1 $469 1 990660930 50 1966211073 13 #
face $493 $-1 $494 $8 $-1 $495 reversed single #
loop $-1 $496 $497 $469 #
torus-surface $-1 0 -0.0030000000000000001 0 0 -1 0 0.104125 0.0030000000000000001 0 0 -1 forward_v I I I I #
loop $-1 $-1 $489 $453 #
coedge $-1 $485 $485 $486 $498 reversed $470 $-1 #
coedge $-1 $486 $486 $485 $498 forward $472 $-1 #
coedge $-1 $487 $487 $473 $488 forward $496 $-1 #
edge $-1 $499 -6.2831853071795862 $499 0 $473 $500 reversed 7 unknown #
coedge $-1 $489 $489 $474 $490 reversed $484 $-1 #
edge $-1 $501 -3.1415926535897931 $501 3.1415926535897931 $489 $502 forward 7 unknown #
point $-1 -0.062324999999999998 -0.1285 0 #
pid_name-sg-attrib $-1 $-1 $480 $469 7 114 119 105 108 115 111 110 784252905 79 1 #
model_id-kcp-attrib $-1 $503 $-1 $481 1 990660930 50 1966211073 14 #
loop $-1 $-1 $504 $481 #
plane-surface $-1 0 0 0 0 -1 0 0 0 -1 forward_v I I I I #
loop $-1 $-1 $487 $469 #
coedge $-1 $497 $497 $504 $505 forward $482 $-1 #
edge $-1 $506 0 $506 6.2831853071795862 $485 $507 forward 7 unknown #
vertex $-1 $488 $508 #
ellipse-curve $-1 0 -0.0030000000000000001 0 0 -1 0 -0.107125 0 0 1 I I #
vertex $-1 $490 $509 #
ellipse-curve $-1 0 -0.1255 0 0 -1 0 -0.065324999999999994 0 0 1 I I #
pid_name-sg-attrib $-1 $-1 $493 $481 7 114 119 105 108 115 111 110 784252905 80 1 #
coedge $-1 $504 $504 $497 $505 reversed $494 $-1 #
edge $-1 $510 -6.2831853071795862 $510 0 $504 $511 reversed 7 unknown #
vertex $-1 $498 $512 #
ellipse-curve $-1 0 -0.1255 0 -2.5909522161613902e-016 1 0 -0.107125 -2.7755575615628901e-017 0 1 I I #
point $-1 -0.107125 -0.0030000000000000001 0 #
point $-1 0.065324999999999994 -0.1255 7.9997410063446795e-018 #
vertex $-1 $505 $513 #
ellipse-curve $-1 0 8.6736173798840393e-019 0 -8.3300046865633004e-018 1 0 -0.104125 -8.6736173798840393e-019 0 1 I I #
point $-1 -0.107125 -0.1255 0 #
point $-1 -0.104125 8.6736173798840393e-019 0 #
End-of-ACIS-data 