105 139 1 0                             
body $-1 $1 $-1 $2 #
lump $-1 $-1 $3 $0 #
transform $-1 1 0 0 0 1 0 0 0 1 0 0 0 1 0 0 0 #
shell $-1 $-1 $-1 $4 $1 #
face $5 $6 $7 $3 $-1 $8 forward single #
pid_name-sg-attrib $-1 $-1 $-1 $4 7 114 119 105 108 115 111 110 784252905 68 1 #
face $9 $10 $11 $3 $-1 $12 forward single #
loop $-1 $13 $14 $4 #
cone-surface $-1 0 0.019775 0 0 -1 0 -0.062325 0 0 1 0 1 0 #
pid_name-sg-attrib $-1 $-1 $-1 $6 7 114 119 105 108 115 111 110 784252905 69 1 #
face $15 $16 $17 $3 $-1 $18 reversed single #
loop $-1 $-1 $19 $6 #
plane-surface $-1 0 -0.3955 0 0 -1 0 0 0 -1 0 #
loop $-1 $-1 $20 $4 #
coedge $-1 $14 $14 $21 $22 0 $7 $-1 #
pid_name-sg-attrib $-1 $-1 $-1 $10 7 114 119 105 108 115 111 110 784252905 70 1 #
face $23 $24 $25 $3 $-1 $26 reversed single #
loop $-1 $27 $28 $10 #
plane-surface $-1 0 -0.3775 0 0 -1 0 0 0 -1 0 #
coedge $-1 $19 $19 $20 $29 1 $11 $-1 #
coedge $-1 $20 $20 $19 $29 0 $13 $-1 #
coedge $-1 $21 $21 $14 $22 1 $27 $-1 #
edge $-1 $30 $30 $21 $31 0 #
pid_name-sg-attrib $-1 $-1 $-1 $16 7 114 119 105 108 115 111 110 784252905 71 1 #
face $32 $33 $34 $3 $-1 $35 forward single #
loop $-1 $36 $37 $16 #
torus-surface $-1 0 -0.3745 0 0 -1 0 0.06125 0.003 0 0 -1 0 #
loop $-1 $-1 $21 $10 #
coedge $-1 $28 $28 $37 $38 1 $17 $-1 #
edge $-1 $39 $39 $19 $40 0 #
vertex $-1 $22 $41 #
ellipse-curve $-1 0 -0.3775 0 1.78134460429227e-15 -1 0 -0.062325 -1.11022302462516e-16 0 1 #
pid_name-sg-attrib $-1 $-1 $-1 $24 7 114 119 105 108 115 111 110 784252905 72 1 #
face $42 $43 $44 $3 $-1 $45 reversed single #
loop $-1 $46 $47 $24 #
cone-surface $-1 0 0.019775 0 0 -1 0 -0.05825 0 0 1 0 1 0 #
loop $-1 $-1 $48 $16 #
coedge $-1 $37 $37 $28 $38 0 $25 $-1 #
edge $-1 $49 $49 $28 $50 1 #
vertex $-1 $29 $51 #
ellipse-curve $-1 0 -0.3955 0 8.90672302146134e-16 1 0 -0.062325 5.55111512312578e-17 0 1 #
point $-1 0.062325 -0.3775 7.63235910019797e-18 #
pid_name-sg-attrib $-1 $-1 $-1 $33 7 114 119 105 108 115 111 110 784252905 73 1 #
face $52 $53 $54 $3 $-1 $55 forward single #
loop $-1 $56 $57 $33 #
torus-surface $-1 0 -0.3675 0 0 -1 0 0.06125 0.003 0 0 -1 0 #
loop $-1 $-1 $58 $24 #
coedge $-1 $47 $47 $57 $59 1 $34 $-1 #
coedge $-1 $48 $48 $58 $60 0 $36 $-1 #
vertex $-1 $38 $61 #
ellipse-curve $-1 0 -0.3775 0 0 -1 0 -0.06125 0 0 1 #
point $-1 -0.062325 -0.3955 0 #
pid_name-sg-attrib $-1 $-1 $-1 $43 7 114 119 105 108 115 111 110 784252905 74 1 #
face $62 $63 $64 $3 $-1 $65 forward single #
loop $-1 $66 $67 $43 #
plane-surface $-1 0 -0.3645 0 0 -1 0 0 0 -1 0 #
loop $-1 $-1 $68 $33 #
coedge $-1 $57 $57 $47 $59 0 $44 $-1 #
coedge $-1 $58 $58 $48 $60 1 $46 $-1 #
edge $-1 $69 $69 $47 $70 1 #
edge $-1 $71 $71 $58 $72 0 #
point $-1 -0.06125 -0.3775 0 #
pid_name-sg-attrib $-1 $-1 $-1 $53 7 114 119 105 108 115 111 110 784252905 75 1 #
face $73 $74 $75 $3 $-1 $76 reversed single #
loop $-1 $77 $78 $53 #
cone-surface $-1 0 0.019775 0 0 -1 0 -0.062325 0 0 1 0 1 0 #
loop $-1 $-1 $79 $43 #
coedge $-1 $67 $67 $80 $81 1 $54 $-1 #
coedge $-1 $68 $68 $79 $82 0 $56 $-1 #
vertex $-1 $59 $83 #
ellipse-curve $-1 0 -0.3675 0 0 -1 0 -0.05825 0 0 1 #
vertex $-1 $60 $84 #
ellipse-curve $-1 0 -0.3745 0 0 -1 0 -0.05825 0 0 1 #
pid_name-sg-attrib $-1 $-1 $-1 $63 7 114 119 105 108 115 111 110 784252905 76 1 #
face $85 $86 $87 $3 $-1 $88 forward single #
loop $-1 $89 $90 $63 #
torus-surface $-1 0 -0.1285 0 0 -1 0 0.065325 0.003 0 0 -1 0 #
loop $-1 $-1 $80 $53 #
coedge $-1 $78 $78 $90 $91 1 $64 $-1 #
coedge $-1 $79 $79 $68 $82 1 $66 $-1 #
coedge $-1 $80 $80 $67 $81 0 $77 $-1 #
edge $-1 $92 $92 $67 $93 0 #
edge $-1 $94 $94 $79 $95 0 #
point $-1 -0.05825 -0.3675 0 #
point $-1 0.05825 -0.3745 7.13333201101535e-18 #
pid_name-sg-attrib $-1 $-1 $-1 $74 7 114 119 105 108 115 111 110 784252905 77 1 #
face $96 $97 $98 $3 $-1 $99 forward single #
loop $-1 $100 $101 $74 #
cone-surface $-1 0 0.019775 0 0 -1 0 -0.107125 0 0 1 0 1 0 #
loop $-1 $-1 $102 $63 #
coedge $-1 $90 $90 $78 $91 0 $75 $-1 #
edge $-1 $103 $103 $78 $104 1 #
vertex $-1 $81 $105 #
ellipse-curve $-1 0 -0.3645 0 -8.90672302146134e-16 1 0 -0.062325 -5.55111512312578e-17 0 1 #
vertex $-1 $82 $106 #
ellipse-curve $-1 0 -0.3645 0 0 -1 0 -0.06125 0 0 1 #
pid_name-sg-attrib $-1 $-1 $-1 $86 7 114 119 105 108 115 111 110 784252905 78 1 #
face $107 $108 $109 $3 $-1 $110 forward single #
loop $-1 $111 $112 $86 #
plane-surface $-1 0 -0.1255 0 0 -1 0 0 0 -1 0 #
loop $-1 $-1 $113 $74 #
coedge $-1 $101 $101 $114 $115 1 $87 $-1 #
coedge $-1 $102 $102 $116 $117 0 $89 $-1 #
vertex $-1 $91 $118 #
ellipse-curve $-1 0 -0.1285 0 0 -1 0 -0.062325 0 0 1 #
point $-1 0.062325 -0.3645 7.63261117568588e-18 #
point $-1 0.06125 -0.3645 7.50071391716206e-18 #
pid_name-sg-attrib $-1 $-1 $-1 $97 7 114 119 105 108 115 111 110 784252905 79 1 #
face $119 $-1 $120 $3 $-1 $121 reversed single #
loop $-1 $122 $123 $97 #
torus-surface $-1 0 -0.003 0 0 -1 0 0.104125 0.003 0 0 -1 0 #
loop $-1 $-1 $116 $86 #
coedge $-1 $112 $112 $113 $124 1 $98 $-1 #
coedge $-1 $113 $113 $112 $124 0 $100 $-1 #
coedge $-1 $114 $114 $101 $115 0 $122 $-1 #
edge $-1 $125 $125 $101 $126 1 #
coedge $-1 $116 $116 $102 $117 1 $111 $-1 #
edge $-1 $127 $127 $116 $128 0 #
point $-1 -0.062325 -0.1285 0 #
pid_name-sg-attrib $-1 $-1 $-1 $108 7 114 119 105 108 115 111 110 784252905 80 1 #
loop $-1 $-1 $129 $108 #
plane-surface $-1 0 0 0 0 -1 0 0 0 -1 0 #
loop $-1 $-1 $114 $97 #
coedge $-1 $123 $123 $129 $130 0 $109 $-1 #
edge $-1 $131 $131 $112 $132 0 #
vertex $-1 $115 $133 #
ellipse-curve $-1 0 -0.003 0 0 -1 0 -0.107125 0 0 1 #
vertex $-1 $117 $134 #
ellipse-curve $-1 0 -0.1255 0 0 -1 0 -0.065325 0 0 1 #
coedge $-1 $129 $129 $123 $130 1 $120 $-1 #
edge $-1 $135 $135 $129 $136 1 #
vertex $-1 $124 $137 #
ellipse-curve $-1 0 -0.1255 0 -2.59095221616139e-16 1 0 -0.107125 -2.77555756156289e-17 0 1 #
point $-1 -0.107125 -0.003 0 #
point $-1 0.065325 -0.1255 7.99974100634468e-18 #
vertex $-1 $130 $138 #
ellipse-curve $-1 0 8.67361737988404e-19 0 -8.3300046865633e-18 1 0 -0.104125 -8.67361737988404e-19 0 1 #
point $-1 -0.107125 -0.1255 0 #
point $-1 -0.104125 8.67361737988404e-19 0 #
