600 0 2 0           
24 FBMach with ACIS - 6.0.3 13 ACIS 6.0.3 NT 24 Mon Apr 01 16:20:37 2002 
1 9.9999999999999995e-007 1e-010 
body $2 $3 $-1 $4 #
bdycol-kcp $-1 1 3 $5 $6 $7 #
model_id-kcp-attrib $-1 $8 $-1 $0 1 1017696036 70 -700055551 1 #
lump $-1 $-1 $9 $0 #
transform $-1 1 0 0 0 1 0 0 0 1 0 0 0 1 rotate no_reflect no_shear #
body $10 $11 $-1 $12 #
body $13 $14 $-1 $15 #
body $16 $17 $-1 $18 #
aggregate_advspl_attribute-aggregate_geombuild_base_attribute-aggregate_body_attribute-attrib_HH-attrib $-1 $19 $2 $0 F #
shell $-1 $-1 $-1 $20 $-1 $3 #
model_id-kcp-attrib $-1 $-1 $-1 $5 1 1017696036 70 -700055550 1 #
lump $-1 $-1 $21 $5 #
transform $-1 1 0 0 0 1 0 0 0 1 0 -0.19775000000000004 0 1 no_rotate no_reflect no_shear #
rgb_color-st-attrib $-1 $22 $-1 $6 0.5 1 1 #
lump $-1 $-1 $23 $6 #
transform $-1 1 0 0 0 1 0 0 0 1 0 -0.19775000000000004 0 1 no_rotate no_reflect no_shear #
rgb_color-st-attrib $-1 $24 $-1 $7 1 0.5 1 #
lump $-1 $-1 $25 $7 #
transform $-1 1 0 0 0 1 0 0 0 1 0 -0.19775000000000004 0 1 no_rotate no_reflect no_shear #
aggregate_secndry_attribute-aggregate_geombuild_base_attribute-aggregate_body_attribute-attrib_HH-attrib $-1 $26 $8 $0 F #
face $27 $28 $29 $9 $-1 $30 forward single #
shell $-1 $-1 $-1 $31 $-1 $11 #
model_id-kcp-attrib $-1 $-1 $13 $6 1 1017696036 150 -694812669 1 #
shell $-1 $-1 $-1 $32 $-1 $14 #
model_id-kcp-attrib $-1 $-1 $16 $7 1 1017696036 320 -700448764 1 #
shell $-1 $-1 $-1 $33 $-1 $17 #
aggregate_sharped_attribute-aggregate_geombuild_base_attribute-aggregate_body_attribute-attrib_HH-attrib $-1 $34 $19 $0 F #
model_id-kcp-attrib $-1 $35 $-1 $20 1 1017696036 70 -700055551 2 #
face $36 $37 $38 $9 $-1 $39 forward single #
loop $-1 $40 $41 $20 #
cone-surface $-1 0 0.019775000000000001 0 0 -1 0 -0.062324999999999998 0 0 1 I I 0 1 0.062324999999999998 forward I I I I #
face $-1 $42 $43 $21 $-1 $44 forward single #
face $-1 $45 $46 $23 $-1 $47 reversed single #
face $-1 $48 $49 $25 $-1 $50 reversed single #
aggregate_reblend_attribute-aggregate_geombuild_base_attribute-aggregate_body_attribute-attrib_HH-attrib $-1 $51 $26 $0 F #
attrib_hh_face_geombuild-attrib_entity_geombuild-individual_entity_attribute-attrib_HH-attrib $-1 $52 $27 $20 F #
model_id-kcp-attrib $-1 $53 $-1 $28 1 1017696036 70 -700055551 15 #
face $54 $55 $56 $9 $-1 $57 reversed single #
loop $-1 $-1 $58 $28 #
plane-surface $-1 0 -0.39550000000000002 0 0 -1 0 0 0 -1 forward_v I I I I #
loop $-1 $-1 $59 $20 #
coedge $60 $41 $41 $61 $62 forward $29 $-1 #
face $-1 $63 $64 $21 $-1 $65 reversed single #
loop $-1 $-1 $66 $31 #
plane-surface $-1 0 0 0.107125 0 0 1 1 0 0 forward_v I I I I #
face $-1 $67 $68 $23 $-1 $47 reversed single #
loop $-1 $-1 $69 $32 #
cone-surface $-1 4.0162788706299122e-034 -0.19774999999999998 0 0 -1 0 0.107125 0 -1.3118595565322216e-017 1 I I 0 1 0.107125 forward I I I I #
face $-1 $70 $71 $25 $-1 $72 forward single #
loop $-1 $73 $74 $33 #
plane-surface $-1 -0.008240656267603742 -0.16674999999999995 3.8871363947612184e-019 3.0092319879111807e-032 1 2.0061546586074533e-032 0 -2.0061546586074533e-032 1 forward_v I I I I #
aggregate_isospline_attribute-aggregate_geombuild_base_attribute-aggregate_body_attribute-attrib_HH-attrib $-1 $75 $34 $0 F #
pid_name-sg-attrib $-1 $-1 $35 $20 7 rwilson 784252905 68 1 #
model_id-kcp-attrib $-1 $76 $36 $28 1 1017696036 70 -700055551 3 #
model_id-kcp-attrib $-1 $77 $-1 $37 1 1017696036 70 -700055551 4 #
face $78 $79 $80 $9 $-1 $81 reversed single #
loop $-1 $82 $83 $37 #
plane-surface $-1 0 -0.3775 0 0 -1 0 0 0 -1 forward_v I I I I #
coedge $84 $58 $58 $59 $85 reversed $38 $-1 #
coedge $86 $59 $59 $58 $85 forward $40 $-1 #
attrib_hh_coedge_geombuild-attrib_entity_geombuild-individual_entity_attribute-attrib_HH-attrib $-1 $-1 $-1 $41 F #
coedge $87 $61 $61 $41 $62 reversed $82 $-1 #
edge $88 $89 -3.1415926535897931 $89 3.1415926535897931 $61 $90 forward 7 unknown #
face $91 $92 $93 $21 $-1 $94 reversed single #
loop $-1 $-1 $95 $42 #
plane-surface $-1 0 0 -0.107125 0 0 1 1 0 0 forward_v I I I I #
coedge $-1 $96 $97 $98 $99 forward $43 $-1 #
face $-1 $100 $101 $23 $-1 $47 reversed single #
loop $-1 $-1 $102 $45 #
coedge $-1 $103 $104 $105 $106 reversed $46 $-1 #
face $107 $108 $109 $25 $-1 $110 reversed single #
loop $-1 $111 $112 $48 #
cone-surface $-1 4.0162788706299122e-034 -0.19774999999999998 0 0 -1 0 0.107125 0 -1.3118595565322216e-017 1 I I 0 1 0.107125 forward I I I I #
loop $-1 $-1 $113 $33 #
coedge $-1 $74 $74 $114 $115 forward $49 $-1 #
aggregate_analytic_solver_attribute-aggregate_geombuild_base_attribute-aggregate_body_attribute-attrib_HH-attrib $-1 $116 $51 $0 F #
attrib_hh_face_geombuild-attrib_entity_geombuild-individual_entity_attribute-attrib_HH-attrib $-1 $117 $53 $28 F #
attrib_hh_face_geombuild-attrib_entity_geombuild-individual_entity_attribute-attrib_HH-attrib $-1 $118 $54 $37 F #
model_id-kcp-attrib $-1 $119 $-1 $55 1 1017696036 70 -700055551 5 #
face $120 $121 $122 $9 $-1 $123 forward single #
loop $-1 $124 $125 $55 #
torus-surface $-1 0 -0.3745 0 0 -1 0 0.061249999999999999 0.0030000000000000001 0 0 -1 forward_v I I I I #
loop $-1 $-1 $61 $37 #
coedge $126 $83 $83 $125 $127 reversed $56 $-1 #
attrib_hh_coedge_geombuild-attrib_entity_geombuild-individual_entity_attribute-attrib_HH-attrib $-1 $-1 $-1 $58 F #
edge $128 $129 0 $129 6.2831853071795862 $58 $130 forward 7 unknown #
attrib_hh_coedge_geombuild-attrib_entity_geombuild-individual_entity_attribute-attrib_HH-attrib $-1 $-1 $-1 $59 F #
attrib_hh_coedge_geombuild-attrib_entity_geombuild-individual_entity_attribute-attrib_HH-attrib $-1 $-1 $-1 $61 F #
attrib_hh_edge_geombuild-attrib_entity_geombuild-individual_entity_attribute-attrib_HH-attrib $-1 $-1 $-1 $62 F #
vertex $131 $62 $132 #
ellipse-curve $-1 0 -0.3775 0 1.7813446042922701e-015 -1 0 -0.062324999999999998 -1.11022302462516e-016 0 1 I I #
model_id-kcp-attrib $-1 $-1 $-1 $63 1 1017696036 70 -700055550 2 #
face $-1 $133 $134 $21 $-1 $135 reversed single #
loop $-1 $-1 $136 $63 #
plane-surface $-1 0 -0.19775000000000004 0 0 1 0 0 0 1 forward_v I I I I #
coedge $-1 $137 $138 $139 $140 forward $64 $-1 #
coedge $-1 $141 $66 $142 $143 forward $43 $-1 #
coedge $-1 $66 $141 $144 $145 forward $43 $-1 #
coedge $-1 $146 $147 $66 $99 reversed $148 $-1 #
edge $-1 $149 -0.19775000000000004 $150 0.19775000000000004 $98 $151 forward 7 unknown #
face $-1 $152 $153 $23 $-1 $47 reversed single #
loop $-1 $-1 $154 $67 #
coedge $-1 $155 $156 $157 $158 reversed $68 $-1 #
coedge $-1 $159 $69 $160 $161 forward $46 $-1 #
coedge $-1 $69 $159 $162 $163 reversed $46 $-1 #
coedge $-1 $164 $165 $69 $106 forward $166 $-1 #
edge $-1 $167 1.2246063538223773e-016 $168 1.5707963267948968 $105 $169 forward 7 unknown #
attrib_hh_face_geombuild-attrib_entity_geombuild-individual_entity_attribute-attrib_HH-attrib $-1 $170 $-1 $70 F #
face $171 $172 $173 $25 $-1 $174 forward single #
loop $-1 $175 $176 $70 #
cone-surface $-1 0 0.21752500000000002 0 0 -1 0 -0.062324999999999998 0 0 1 I I 0 1 0.062324999999999998 forward I I I I #
loop $-1 $-1 $177 $48 #
coedge $-1 $112 $112 $178 $179 reversed $71 $-1 #
coedge $-1 $113 $113 $177 $180 forward $73 $-1 #
coedge $-1 $114 $114 $74 $115 reversed $175 $-1 #
edge $-1 $181 -3.1415926535897931 $181 3.1415926535897931 $114 $182 forward 7 unknown #
aggregate_geombuild_attribute-aggregate_geombuild_base_attribute-aggregate_body_attribute-attrib_HH-attrib $-1 $183 $75 $0 #
pid_name-sg-attrib $-1 $-1 $76 $28 7 rwilson 784252905 69 1 #
pid_name-sg-attrib $-1 $-1 $77 $37 7 rwilson 784252905 70 1 #
attrib_hh_face_geombuild-attrib_entity_geombuild-individual_entity_attribute-attrib_HH-attrib $-1 $184 $78 $55 F #
model_id-kcp-attrib $-1 $185 $-1 $79 1 1017696036 70 -700055551 6 #
face $186 $187 $188 $9 $-1 $189 reversed single #
loop $-1 $190 $191 $79 #
cone-surface $-1 0 0.019775000000000001 0 0 -1 0 -0.058250000000000003 0 0 1 I I 0 1 0.058250000000000003 forward I I I I #
loop $-1 $-1 $192 $55 #
coedge $193 $125 $125 $83 $127 forward $80 $-1 #
attrib_hh_coedge_geombuild-attrib_entity_geombuild-individual_entity_attribute-attrib_HH-attrib $-1 $-1 $-1 $83 F #
edge $194 $195 -6.2831853071795862 $195 0 $83 $196 reversed 7 unknown #
attrib_edge_convexity-kcp-attrib $-1 $197 $-1 $85 1 #
vertex $198 $85 $199 #
ellipse-curve $-1 0 -0.39550000000000002 0 8.9067230214613407e-016 1 0 -0.062324999999999998 5.5511151231257802e-017 0 1 I I #
attrib_hh_vertex_geombuild-attrib_entity_geombuild-individual_entity_attribute-attrib_HH-attrib $-1 $-1 $-1 $89 F #
point $-1 0.062324999999999998 -0.3775 7.6323591001979701e-018 #
face $200 $201 $202 $21 $-1 $203 reversed single #
loop $-1 $-1 $204 $92 #
plane-surface $-1 -0.107125 0 0 1 0 0 0 0 -1 forward_v I I I I #
coedge $-1 $205 $144 $206 $207 forward $93 $-1 #
coedge $-1 $208 $95 $205 $209 forward $64 $-1 #
coedge $-1 $95 $208 $210 $211 forward $64 $-1 #
coedge $-1 $147 $146 $95 $140 reversed $148 $-1 #
edge $-1 $212 -0.19775000000000004 $213 0.19775000000000004 $139 $214 forward 7 unknown #
coedge $-1 $97 $96 $215 $216 forward $43 $-1 #
coedge $-1 $217 $218 $96 $143 reversed $202 $-1 #
edge $-1 $150 -0.107125 $219 0.107125 $142 $220 forward 7 unknown #
coedge $-1 $136 $221 $97 $145 reversed $93 $-1 #
edge $-1 $222 -0.107125 $149 0.107125 $144 $223 forward 7 unknown #
coedge $-1 $139 $98 $221 $224 forward $148 $-1 #
coedge $-1 $98 $139 $217 $225 reversed $148 $-1 #
loop $-1 $-1 $146 $201 #
vertex $-1 $99 $226 #
vertex $-1 $99 $227 #
straight-curve $-1 0.107125 0 0.107125 0 1 0 I I #
face $-1 $228 $229 $23 $-1 $230 forward single #
loop $-1 $-1 $231 $100 #
coedge $-1 $232 $233 $231 $234 forward $101 $-1 #
coedge $-1 $235 $102 $236 $237 reversed $68 $-1 #
coedge $-1 $102 $235 $104 $163 forward $68 $-1 #
coedge $-1 $238 $239 $102 $158 forward $240 $-1 #
edge $-1 $241 -3.1415926535897931 $242 -1.5707963267948968 $157 $243 forward 7 unknown #
coedge $-1 $104 $103 $244 $245 reversed $46 $-1 #
coedge $-1 $233 $232 $246 $161 reversed $101 $-1 #
edge $-1 $167 -0.39550000000000002 $247 5.5511151231257827e-017 $246 $248 forward 7 unknown #
coedge $-1 $249 $250 $251 $163 forward $252 $-1 #
edge $-1 $168 -0.39550000000000002 $242 5.5511151231257827e-017 $162 $253 forward 7 unknown #
coedge $-1 $165 $105 $250 $254 reversed $166 $-1 #
coedge $-1 $105 $164 $255 $256 forward $166 $-1 #
loop $-1 $-1 $105 $257 #
vertex $-1 $258 $259 #
vertex $-1 $260 $261 #
ellipse-curve $-1 4.0162788706299122e-034 0.19775000000000004 0 0 -1 0 0.107125 0 -1.3118595565322216e-017 1 I I #
pid_name-sg-attrib $-1 $-1 $107 $70 7 rwilson 784252905 75 1 #
attrib_hh_face_geombuild-attrib_entity_geombuild-individual_entity_attribute-attrib_HH-attrib $-1 $262 $-1 $108 F #
face $-1 $-1 $263 $25 $-1 $264 reversed single #
loop $-1 $265 $266 $108 #
torus-surface $-1 0 0.069250000000000034 0 0 -1 0 0.065324999999999994 0.0030000000000000001 0 0 -1 forward_v I I I I #
loop $-1 $-1 $114 $70 #
coedge $267 $176 $176 $266 $268 forward $109 $-1 #
coedge $-1 $177 $177 $113 $180 reversed $111 $-1 #
coedge $-1 $178 $178 $112 $179 forward $263 $-1 #
edge $269 $270 -3.1415926535897931 $270 3.1415926535897931 $112 $271 forward 7 unknown #
edge $-1 $272 -3.1415926535897931 $272 3.1415926535897931 $177 $273 forward 7 unknown #
vertex $274 $115 $275 #
ellipse-curve $-1 0 -0.16674999999999995 0 -8.9067230214613407e-016 1 0 -0.062324999999999998 -5.5511151231257802e-017 0 1 I I #
aggregate_stitch_attribute-aggregate_stitch_base_attribute-aggregate_body_attribute-attrib_HH-attrib $-1 $276 $116 $0 F #
pid_name-sg-attrib $-1 $-1 $119 $55 7 rwilson 784252905 71 1 #
attrib_hh_face_geombuild-attrib_entity_geombuild-individual_entity_attribute-attrib_HH-attrib $-1 $277 $120 $79 F #
model_id-kcp-attrib $-1 $278 $-1 $121 1 1017696036 70 -700055551 7 #
face $279 $280 $281 $9 $-1 $282 forward single #
loop $-1 $283 $284 $121 #
torus-surface $-1 0 -0.36749999999999999 0 0 -1 0 0.061249999999999999 0.0030000000000000001 0 0 -1 forward_v I I I I #
loop $-1 $-1 $285 $79 #
coedge $286 $191 $191 $284 $287 reversed $122 $-1 #
coedge $288 $192 $192 $285 $289 forward $124 $-1 #
attrib_hh_coedge_geombuild-attrib_entity_geombuild-individual_entity_attribute-attrib_HH-attrib $-1 $-1 $-1 $125 F #
attrib_hh_edge_geombuild-attrib_entity_geombuild-individual_entity_attribute-attrib_HH-attrib $-1 $-1 $-1 $127 F #
vertex $290 $127 $291 #
ellipse-curve $-1 0 -0.3775 0 0 -1 0 -0.061249999999999999 0 0 1 I I #
convexity-sys-attrib $-1 $292 $128 $85 #
attrib_hh_vertex_geombuild-attrib_entity_geombuild-individual_entity_attribute-attrib_HH-attrib $-1 $-1 $-1 $129 F #
point $-1 -0.062324999999999998 -0.39550000000000002 0 #
model_id-kcp-attrib $-1 $-1 $-1 $133 1 1017696036 70 -700055550 3 #
face $-1 $-1 $148 $21 $-1 $293 reversed single #
loop $-1 $-1 $217 $133 #
plane-surface $-1 0 0.19775000000000004 0 0 -1 0 0 0 -1 forward_v I I I I #
coedge $-1 $294 $215 $218 $295 forward $134 $-1 #
coedge $-1 $221 $136 $137 $209 reversed $93 $-1 #
coedge $-1 $215 $294 $136 $207 reversed $134 $-1 #
edge $-1 $222 -0.107125 $296 0.107125 $206 $297 forward 7 unknown #
coedge $-1 $138 $137 $294 $298 forward $64 $-1 #
edge $-1 $213 -0.107125 $296 0.107125 $205 $299 forward 7 unknown #
coedge $-1 $218 $217 $138 $211 reversed $202 $-1 #
edge $-1 $300 -0.107125 $212 0.107125 $210 $301 forward 7 unknown #
vertex $-1 $140 $302 #
vertex $-1 $224 $303 #
straight-curve $-1 0.107125 0 -0.107125 0 -1 0 I I #
coedge $-1 $204 $206 $141 $216 reversed $134 $-1 #
edge $-1 $219 -0.19775000000000004 $222 0.19775000000000004 $215 $304 forward 7 unknown #
coedge $-1 $210 $142 $147 $225 forward $202 $-1 #
coedge $-1 $142 $210 $204 $295 reversed $202 $-1 #
vertex $-1 $143 $305 #
straight-curve $-1 0 0.19775000000000004 0.107125 -1 0 0 I I #
coedge $-1 $144 $205 $146 $224 reversed $93 $-1 #
vertex $-1 $216 $306 #
straight-curve $-1 0 -0.19775000000000004 0.107125 1 0 0 I I #
edge $-1 $149 -0.107125 $213 0.107125 $146 $307 forward 7 unknown #
edge $-1 $150 -0.107125 $212 0.107125 $147 $308 forward 7 unknown #
point $-1 0.107125 -0.19775000000000004 0.107125 #
point $-1 0.107125 0.19775000000000004 0.107125 #
face $-1 $309 $310 $23 $-1 $311 reversed single #
loop $-1 $-1 $251 $152 #
plane-surface $-1 0 0 0.107125 0 0 1 1 0 0 forward_v I I I I #
coedge $-1 $312 $313 $314 $234 reversed $153 $-1 #
coedge $-1 $160 $154 $315 $316 reversed $101 $-1 #
coedge $-1 $154 $160 $317 $318 reversed $101 $-1 #
edge $-1 $319 -0.39550000000000002 $320 5.5511151231257827e-017 $314 $321 forward 7 unknown #
coedge $-1 $156 $155 $322 $323 reversed $68 $-1 #
coedge $-1 $324 $325 $326 $237 forward $327 $-1 #
edge $-1 $328 -0.39550000000000002 $241 5.5511151231257827e-017 $236 $329 forward 7 unknown #
coedge $-1 $239 $157 $330 $331 reversed $240 $-1 #
coedge $-1 $157 $238 $324 $332 forward $240 $-1 #
loop $-1 $-1 $157 $333 #
vertex $-1 $334 $335 #
vertex $-1 $336 $337 #
ellipse-curve $-1 4.0162788706299122e-034 -0.19775000000000004 0 0 1 0 0.107125 0 -1.3118595565322216e-017 1 I I #
coedge $-1 $338 $339 $159 $245 forward $340 $-1 #
edge $-1 $242 -1.5707963267948968 $247 -1.2246063538223773e-016 $244 $243 forward 7 unknown #
coedge $-1 $341 $342 $343 $161 forward $310 $-1 #
vertex $-1 $344 $345 #
straight-curve $-1 0.107125 -0.19774999999999998 0 0 -1 0 I I #
coedge $-1 $346 $162 $339 $336 forward $252 $-1 #
coedge $-1 $162 $346 $164 $254 forward $252 $-1 #
coedge $-1 $347 $330 $156 $163 reversed $229 $-1 #
loop $-1 $-1 $162 $348 #
straight-curve $-1 4.0162788706299122e-034 -0.19774999999999998 0.107125 0 -1 0 I I #
edge $-1 $349 -0.107125 $168 -4.0162788706299122e-034 $164 $350 forward 7 unknown #
coedge $-1 $351 $343 $165 $256 reversed $352 $-1 #
edge $-1 $349 -0.107125 $167 0 $255 $353 forward 7 unknown #
face $-1 $354 $166 $23 $-1 $355 reversed single #
edge $-1 $167 0 $356 0.107125 $342 $353 forward 7 unknown #
point $-1 0.107125 0.19775000000000004 0 #
edge $-1 $168 -4.0162788706299122e-034 $357 0.107125 $358 $350 forward 7 unknown #
point $-1 4.0162788706299122e-034 0.19775000000000004 0.107125 #
pid_name-sg-attrib $-1 $-1 $171 $108 7 rwilson 784252905 76 1 #
loop $-1 $359 $178 $172 #
plane-surface $-1 0 0.072250000000000092 0 0 -1 0 1 0 0 forward_v I I I I #
loop $-1 $-1 $360 $108 #
coedge $361 $266 $266 $176 $268 reversed $173 $-1 #
attrib_hh_coedge_geombuild-attrib_entity_geombuild-individual_entity_attribute-attrib_HH-attrib $-1 $-1 $-1 $176 F #
edge $362 $363 -6.2831853071795862 $363 0 $176 $364 reversed 7 unknown #
convexity-sys-attrib $-1 $-1 $-1 $179 #
vertex $-1 $179 $365 #
ellipse-curve $-1 4.0162788706299122e-034 0.072250000000000092 0 0 1 0 0.107125 0 -1.3118595565322216e-017 1 I I #
vertex $-1 $180 $366 #
ellipse-curve $-1 4.0162788706299122e-034 -0.16674999999999995 0 -3.0092319879111807e-032 -1 -2.0061546586074533e-032 0.107125 0 -1.3118595565322216e-017 1 I I #
attrib_hh_vertex_geombuild-attrib_entity_geombuild-individual_entity_attribute-attrib_HH-attrib $-1 $-1 $-1 $181 F #
point $-1 0.062324999999999998 -0.16674999999999995 7.6326111756858808e-018 #
aggregate_simgeom_attribute-aggregate_simgeom_base_attribute-aggregate_body_attribute-attrib_HH-attrib $-1 $-1 $183 $0 F #
pid_name-sg-attrib $-1 $-1 $185 $79 7 rwilson 784252905 72 1 #
attrib_hh_face_geombuild-attrib_entity_geombuild-individual_entity_attribute-attrib_HH-attrib $-1 $367 $186 $121 F #
model_id-kcp-attrib $-1 $368 $-1 $187 1 1017696036 70 -700055551 8 #
face $369 $370 $371 $9 $-1 $372 forward single #
loop $-1 $373 $374 $187 #
plane-surface $-1 0 -0.36449999999999999 0 0 -1 0 0 0 -1 forward_v I I I I #
loop $-1 $-1 $375 $121 #
coedge $376 $284 $284 $191 $287 forward $188 $-1 #
coedge $377 $285 $285 $192 $289 reversed $190 $-1 #
attrib_hh_coedge_geombuild-attrib_entity_geombuild-individual_entity_attribute-attrib_HH-attrib $-1 $-1 $-1 $191 F #
edge $378 $379 -6.2831853071795862 $379 0 $191 $380 reversed 7 unknown #
attrib_hh_coedge_geombuild-attrib_entity_geombuild-individual_entity_attribute-attrib_HH-attrib $-1 $-1 $-1 $192 F #
edge $381 $382 -3.1415926535897931 $382 3.1415926535897931 $285 $383 forward 7 unknown #
attrib_hh_vertex_geombuild-attrib_entity_geombuild-individual_entity_attribute-attrib_HH-attrib $-1 $-1 $-1 $195 F #
point $-1 -0.061249999999999999 -0.3775 0 #
attrib_hh_edge_geombuild-attrib_entity_geombuild-individual_entity_attribute-attrib_HH-attrib $-1 $-1 $197 $85 F #
plane-surface $-1 0.107125 0 0 -1 0 0 0 0 1 forward_v I I I I #
coedge $-1 $206 $204 $208 $298 reversed $134 $-1 #
edge $-1 $219 -0.107125 $300 0.107125 $218 $384 forward 7 unknown #
vertex $-1 $298 $385 #
straight-curve $-1 -0.107125 -0.19775000000000004 0 0 0 -1 I I #
edge $-1 $296 -0.19775000000000004 $300 0.19775000000000004 $294 $386 forward 7 unknown #
straight-curve $-1 0 -0.19775000000000004 -0.107125 -1 0 0 I I #
vertex $-1 $211 $387 #
straight-curve $-1 0 0.19775000000000004 -0.107125 1 0 0 I I #
point $-1 0.107125 0.19775000000000004 -0.107125 #
point $-1 0.107125 -0.19775000000000004 -0.107125 #
straight-curve $-1 -0.107125 0 0.107125 0 -1 0 I I #
point $-1 -0.107125 0.19775000000000004 0.107125 #
point $-1 -0.107125 -0.19775000000000004 0.107125 #
straight-curve $-1 0.107125 -0.19775000000000004 0 0 0 -1 I I #
straight-curve $-1 0.107125 0.19775000000000004 0 0 0 -1 I I #
face $-1 $388 $389 $23 $-1 $390 reversed single #
loop $-1 $-1 $246 $228 #
plane-surface $-1 0.107125 0 0 -1 0 0 0 0 1 forward_v I I I I #
coedge $-1 $391 $231 $392 $393 reversed $153 $-1 #
coedge $-1 $231 $391 $394 $395 reversed $153 $-1 #
coedge $-1 $396 $397 $398 $234 forward $399 $-1 #
coedge $-1 $400 $401 $232 $316 forward $402 $-1 #
edge $-1 $247 -1.2246063538223773e-016 $320 1.5707963267948966 $315 $243 forward 7 unknown #
coedge $-1 $403 $404 $233 $318 forward $405 $-1 #
edge $-1 $319 -1.5707963267948966 $167 1.2246063538223773e-016 $317 $169 forward 7 unknown #
vertex $-1 $406 $407 #
vertex $-1 $408 $409 #
straight-curve $-1 4.0162788706299122e-034 -0.19774999999999998 -0.107125 0 -1 0 I I #
coedge $-1 $410 $358 $235 $323 forward $411 $-1 #
edge $-1 $168 1.5707963267948968 $328 3.1415926535897931 $322 $169 forward 7 unknown #
coedge $-1 $412 $236 $239 $332 reversed $327 $-1 #
coedge $-1 $236 $412 $410 $413 forward $327 $-1 #
coedge $-1 $414 $415 $391 $237 reversed $389 $-1 #
loop $-1 $-1 $236 $416 #
vertex $-1 $417 $418 #
straight-curve $-1 -0.107125 -0.19774999999999998 0 0 -1 0 I I #
coedge $-1 $251 $419 $238 $331 forward $229 $-1 #
edge $-1 $420 -0.107125 $242 4.0162788706299122e-034 $238 $421 forward 7 unknown #
edge $-1 $420 -0.107125 $241 0 $324 $422 forward 7 unknown #
face $-1 $423 $240 $23 $-1 $424 reversed single #
edge $-1 $241 0 $425 0.107125 $415 $422 forward 7 unknown #
point $-1 -0.107125 -0.19775000000000004 0 #
edge $-1 $242 4.0162788706299122e-034 $426 0.107125 $339 $421 forward 7 unknown #
point $-1 4.0162788706299122e-034 -0.19775000000000004 0.107125 #
coedge $-1 $339 $244 $427 $428 reversed $340 $-1 #
coedge $-1 $244 $338 $249 $336 reversed $340 $-1 #
loop $-1 $-1 $244 $423 #
coedge $-1 $429 $246 $401 $344 forward $310 $-1 #
coedge $-1 $246 $429 $403 $258 reversed $310 $-1 #
coedge $-1 $255 $427 $103 $161 reversed $352 $-1 #
edge $-1 $247 0 $430 0.107125 $341 $431 forward 7 unknown #
point $-1 0.107125 -0.19775000000000004 0 #
coedge $-1 $250 $249 $351 $432 forward $252 $-1 #
coedge $-1 $419 $251 $358 $260 forward $229 $-1 #
face $-1 $433 $252 $23 $-1 $230 forward single #
vertex $-1 $432 $434 #
straight-curve $-1 0 0.19775000000000004 0.107125 -1 0 0 I I #
coedge $-1 $427 $255 $346 $432 reversed $352 $-1 #
loop $-1 $-1 $343 $435 #
straight-curve $-1 0.107125 0.19775000000000004 0 0 0 -1 I I #
face $-1 $436 $411 $23 $-1 $355 reversed single #
plane-surface $-1 0 0.19775000000000004 0 0 -1 0 0 0 -1 forward_v I I I I #
vertex $-1 $437 $438 #
vertex $-1 $260 $439 #
coedge $-1 $322 $410 $347 $260 reversed $411 $-1 #
loop $-1 $-1 $440 $172 #
coedge $441 $360 $360 $440 $442 forward $265 $-1 #
attrib_hh_coedge_geombuild-attrib_entity_geombuild-individual_entity_attribute-attrib_HH-attrib $-1 $-1 $-1 $266 F #
convexity-sys-attrib $-1 $443 $-1 $268 #
vertex $444 $268 $445 #
ellipse-curve $-1 0 0.069250000000000034 0 0 -1 0 -0.062324999999999998 0 0 1 I I #
point $-1 -0.107125 0.072250000000000092 2.6237191130644432e-017 #
point $-1 -0.107125 -0.16675000000000001 2.6237191130644432e-017 #
pid_name-sg-attrib $-1 $-1 $278 $121 7 rwilson 784252905 73 1 #
attrib_hh_face_geombuild-attrib_entity_geombuild-individual_entity_attribute-attrib_HH-attrib $-1 $446 $279 $187 F #
model_id-kcp-attrib $-1 $447 $-1 $280 1 1017696036 70 -700055551 9 #
face $448 $449 $450 $9 $-1 $451 reversed single #
loop $-1 $452 $453 $280 #
cone-surface $-1 0 0.019775000000000001 0 0 -1 0 -0.062324999999999998 0 0 1 I I 0 1 0.062324999999999998 forward I I I I #
loop $-1 $-1 $454 $187 #
coedge $455 $374 $374 $456 $457 reversed $281 $-1 #
coedge $458 $375 $375 $454 $459 forward $283 $-1 #
attrib_hh_coedge_geombuild-attrib_entity_geombuild-individual_entity_attribute-attrib_HH-attrib $-1 $-1 $-1 $284 F #
attrib_hh_coedge_geombuild-attrib_entity_geombuild-individual_entity_attribute-attrib_HH-attrib $-1 $-1 $-1 $285 F #
attrib_hh_edge_geombuild-attrib_entity_geombuild-individual_entity_attribute-attrib_HH-attrib $-1 $-1 $-1 $287 F #
vertex $460 $287 $461 #
ellipse-curve $-1 0 -0.36749999999999999 0 0 -1 0 -0.058250000000000003 0 0 1 I I #
attrib_hh_edge_geombuild-attrib_entity_geombuild-individual_entity_attribute-attrib_HH-attrib $-1 $-1 $-1 $289 F #
vertex $462 $289 $463 #
ellipse-curve $-1 0 -0.3745 0 0 -1 0 -0.058250000000000003 0 0 1 I I #
straight-curve $-1 -0.107125 0.19775000000000004 0 0 0 -1 I I #
point $-1 -0.107125 -0.19775000000000004 -0.107125 #
straight-curve $-1 -0.107125 0 -0.107125 0 1 0 I I #
point $-1 -0.107125 0.19775000000000004 -0.107125 #
face $-1 $333 $464 $23 $-1 $424 reversed single #
loop $-1 $-1 $326 $309 #
plane-surface $-1 -0.107125 0 0 1 0 0 0 0 -1 forward_v I I I I #
coedge $-1 $313 $312 $155 $237 forward $153 $-1 #
coedge $-1 $465 $466 $312 $393 forward $467 $-1 #
edge $-1 $328 -3.1415926535897931 $319 -1.5707963267948966 $392 $169 forward 7 unknown #
coedge $-1 $468 $469 $313 $395 forward $464 $-1 #
edge $-1 $320 1.5707963267948966 $241 3.1415926535897931 $394 $243 forward 7 unknown #
coedge $-1 $470 $314 $469 $408 forward $399 $-1 #
coedge $-1 $314 $470 $465 $471 forward $399 $-1 #
coedge $-1 $472 $473 $154 $234 reversed $474 $-1 #
loop $-1 $-1 $314 $433 #
coedge $-1 $401 $315 $473 $475 reversed $402 $-1 #
coedge $-1 $315 $400 $341 $344 reversed $402 $-1 #
loop $-1 $-1 $315 $476 #
coedge $-1 $404 $317 $342 $258 forward $405 $-1 #
coedge $-1 $317 $403 $472 $406 reversed $405 $-1 #
loop $-1 $-1 $317 $477 #
edge $-1 $319 4.0162788706299122e-034 $356 0.107125 $404 $478 forward 7 unknown #
point $-1 4.0162788706299122e-034 0.19775000000000004 -0.107125 #
edge $-1 $320 -4.0162788706299122e-034 $425 0.107125 $469 $479 forward 7 unknown #
point $-1 4.0162788706299122e-034 -0.19775000000000004 -0.107125 #
coedge $-1 $358 $322 $325 $413 reversed $411 $-1 #
loop $-1 $-1 $322 $354 #
coedge $-1 $325 $324 $419 $480 reversed $327 $-1 #
edge $-1 $357 -0.107125 $328 0 $410 $481 forward 7 unknown #
coedge $-1 $482 $326 $466 $417 forward $389 $-1 #
coedge $-1 $326 $482 $468 $334 reversed $389 $-1 #
face $-1 $435 $327 $23 $-1 $390 reversed single #
edge $-1 $328 0 $483 0.107125 $466 $481 forward 7 unknown #
point $-1 -0.107125 0.19775000000000004 0 #
coedge $-1 $330 $347 $412 $480 forward $229 $-1 #
vertex $-1 $480 $484 #
straight-curve $-1 0 -0.19775000000000004 0.107125 1 0 0 I I #
straight-curve $-1 -0.107125 -0.19775000000000004 0 0 0 -1 I I #
face $-1 $476 $340 $23 $-1 $424 reversed single #
plane-surface $-1 0 -0.19775000000000004 0 0 1 0 0 0 1 forward_v I I I I #
vertex $-1 $485 $486 #
vertex $-1 $432 $487 #
coedge $-1 $343 $351 $338 $428 forward $352 $-1 #
edge $-1 $426 -0.107125 $247 0 $427 $431 forward 7 unknown #
coedge $-1 $342 $341 $488 $437 reversed $310 $-1 #
vertex $-1 $344 $489 #
straight-curve $-1 0.107125 -0.19775000000000004 0 0 0 -1 I I #
edge $-1 $426 -0.19775000000000004 $349 0.19775000000000004 $351 $490 forward 7 unknown #
face $-1 $416 $399 $23 $-1 $491 reversed single #
point $-1 0.107125 0.19775000000000004 0.107125 #
face $-1 $-1 $352 $23 $-1 $311 reversed single #
face $-1 $492 $467 $23 $-1 $355 reversed single #
edge $-1 $356 -0.19775000000000004 $430 0.19775000000000004 $429 $493 forward 7 unknown #
point $-1 0.107125 0.19775000000000004 -0.107125 #
point $-1 -0.107125 0.19775000000000004 0.107125 #
coedge $-1 $440 $440 $360 $442 reversed $359 $-1 #
attrib_hh_coedge_geombuild-attrib_entity_geombuild-individual_entity_attribute-attrib_HH-attrib $-1 $-1 $-1 $360 F #
edge $494 $495 -1.5707963267948968 $495 4.7123889803846897 $440 $496 forward 7 unknown #
attrib_hh_edge_geombuild-attrib_entity_geombuild-individual_entity_attribute-attrib_HH-attrib $-1 $-1 $362 $268 F #
attrib_hh_vertex_geombuild-attrib_entity_geombuild-individual_entity_attribute-attrib_HH-attrib $-1 $-1 $-1 $363 F #
point $-1 -0.062324999999999998 0.069250000000000034 0 #
pid_name-sg-attrib $-1 $-1 $368 $187 7 rwilson 784252905 74 1 #
attrib_hh_face_geombuild-attrib_entity_geombuild-individual_entity_attribute-attrib_HH-attrib $-1 $497 $369 $280 F #
model_id-kcp-attrib $-1 $498 $-1 $370 1 1017696036 70 -700055551 10 #
face $499 $500 $501 $9 $-1 $502 forward single #
loop $-1 $503 $504 $370 #
torus-surface $-1 0 -0.1285 0 0 -1 0 0.065324999999999994 0.0030000000000000001 0 0 -1 forward_v I I I I #
loop $-1 $-1 $456 $280 #
coedge $505 $453 $453 $504 $506 reversed $371 $-1 #
coedge $507 $454 $454 $375 $459 reversed $373 $-1 #
attrib_hh_coedge_geombuild-attrib_entity_geombuild-individual_entity_attribute-attrib_HH-attrib $-1 $-1 $-1 $374 F #
coedge $508 $456 $456 $374 $457 forward $452 $-1 #
edge $509 $510 -3.1415926535897931 $510 3.1415926535897931 $374 $511 forward 7 unknown #
attrib_hh_coedge_geombuild-attrib_entity_geombuild-individual_entity_attribute-attrib_HH-attrib $-1 $-1 $-1 $375 F #
edge $512 $513 -3.1415926535897931 $513 3.1415926535897931 $454 $514 forward 7 unknown #
attrib_hh_vertex_geombuild-attrib_entity_geombuild-individual_entity_attribute-attrib_HH-attrib $-1 $-1 $-1 $379 F #
point $-1 -0.058250000000000003 -0.36749999999999999 0 #
attrib_hh_vertex_geombuild-attrib_entity_geombuild-individual_entity_attribute-attrib_HH-attrib $-1 $-1 $-1 $382 F #
point $-1 0.058250000000000003 -0.3745 7.1333320110153503e-018 #
loop $-1 $-1 $394 $388 #
coedge $-1 $466 $392 $397 $471 reversed $467 $-1 #
coedge $-1 $392 $465 $414 $417 reversed $467 $-1 #
loop $-1 $-1 $392 $436 #
coedge $-1 $469 $394 $415 $334 forward $464 $-1 #
coedge $-1 $394 $468 $396 $408 reversed $464 $-1 #
coedge $-1 $397 $396 $482 $485 forward $399 $-1 #
edge $-1 $483 -0.107125 $319 4.0162788706299122e-034 $465 $478 forward 7 unknown #
coedge $-1 $488 $398 $404 $406 forward $474 $-1 #
coedge $-1 $398 $488 $400 $475 forward $474 $-1 #
loop $-1 $-1 $398 $492 #
edge $-1 $430 -0.107125 $320 -4.0162788706299122e-034 $400 $479 forward 7 unknown #
face $-1 $477 $402 $23 $-1 $424 reversed single #
face $-1 $257 $405 $23 $-1 $355 reversed single #
straight-curve $-1 0 0.19775000000000004 -0.107125 1 0 0 I I #
straight-curve $-1 0 -0.19775000000000004 -0.107125 -1 0 0 I I #
edge $-1 $357 -0.19775000000000004 $420 0.19775000000000004 $412 $515 forward 7 unknown #
straight-curve $-1 -0.107125 0.19775000000000004 0 0 0 -1 I I #
coedge $-1 $415 $414 $470 $485 reversed $389 $-1 #
vertex $-1 $471 $516 #
point $-1 -0.107125 -0.19775000000000004 0.107125 #
edge $-1 $425 -0.19775000000000004 $483 0.19775000000000004 $482 $517 forward 7 unknown #
point $-1 -0.107125 -0.19775000000000004 -0.107125 #
point $-1 0.107125 -0.19775000000000004 0.107125 #
coedge $-1 $473 $472 $429 $437 forward $474 $-1 #
point $-1 0.107125 -0.19775000000000004 -0.107125 #
straight-curve $-1 0.107125 0 0.107125 0 1 0 I I #
plane-surface $-1 0 0 -0.107125 0 0 1 1 0 0 forward_v I I I I #
face $-1 $348 $474 $23 $-1 $491 reversed single #
straight-curve $-1 0.107125 0 -0.107125 0 -1 0 I I #
convexity-sys-attrib $-1 $-1 $-1 $442 #
vertex $-1 $442 $518 #
ellipse-curve $-1 0 0.072250000000000092 0 0 1 0 0 0 -0.065324999999999994 1 I I #
pid_name-sg-attrib $-1 $-1 $447 $280 7 rwilson 784252905 75 1 #
attrib_hh_face_geombuild-attrib_entity_geombuild-individual_entity_attribute-attrib_HH-attrib $-1 $519 $448 $370 F #
model_id-kcp-attrib $-1 $520 $-1 $449 1 1017696036 70 -700055551 11 #
face $521 $522 $523 $9 $-1 $524 forward single #
loop $-1 $525 $526 $449 #
cone-surface $-1 0 0.019775000000000001 0 0 -1 0 -0.107125 0 0 1 I I 0 1 0.107125 forward I I I I #
loop $-1 $-1 $527 $370 #
coedge $528 $504 $504 $453 $506 forward $450 $-1 #
attrib_hh_coedge_geombuild-attrib_entity_geombuild-individual_entity_attribute-attrib_HH-attrib $-1 $-1 $-1 $453 F #
edge $529 $530 -6.2831853071795862 $530 0 $453 $531 reversed 7 unknown #
attrib_hh_coedge_geombuild-attrib_entity_geombuild-individual_entity_attribute-attrib_HH-attrib $-1 $-1 $-1 $454 F #
attrib_hh_coedge_geombuild-attrib_entity_geombuild-individual_entity_attribute-attrib_HH-attrib $-1 $-1 $-1 $456 F #
attrib_hh_edge_geombuild-attrib_entity_geombuild-individual_entity_attribute-attrib_HH-attrib $-1 $-1 $-1 $457 F #
vertex $532 $457 $533 #
ellipse-curve $-1 0 -0.36449999999999999 0 -8.9067230214613407e-016 1 0 -0.062324999999999998 -5.5511151231257802e-017 0 1 I I #
attrib_hh_edge_geombuild-attrib_entity_geombuild-individual_entity_attribute-attrib_HH-attrib $-1 $-1 $-1 $459 F #
vertex $534 $459 $535 #
ellipse-curve $-1 0 -0.36449999999999999 0 0 -1 0 -0.061249999999999999 0 0 1 I I #
straight-curve $-1 -0.107125 0 0.107125 0 -1 0 I I #
point $-1 -0.107125 0.19775000000000004 -0.107125 #
straight-curve $-1 -0.107125 0 -0.107125 0 1 0 I I #
point $-1 0.065324999999999994 0.072250000000000036 7.9997410063446795e-018 #
pid_name-sg-attrib $-1 $-1 $498 $370 7 rwilson 784252905 76 1 #
attrib_hh_face_geombuild-attrib_entity_geombuild-individual_entity_attribute-attrib_HH-attrib $-1 $536 $499 $449 F #
model_id-kcp-attrib $-1 $537 $-1 $500 1 1017696036 70 -700055551 12 #
face $538 $539 $540 $9 $-1 $541 forward single #
loop $-1 $542 $543 $500 #
plane-surface $-1 0 -0.1255 0 0 -1 0 0 0 -1 forward_v I I I I #
loop $-1 $-1 $544 $449 #
coedge $545 $526 $526 $546 $547 reversed $501 $-1 #
coedge $548 $527 $527 $549 $550 forward $503 $-1 #
attrib_hh_coedge_geombuild-attrib_entity_geombuild-individual_entity_attribute-attrib_HH-attrib $-1 $-1 $-1 $504 F #
attrib_hh_edge_geombuild-attrib_entity_geombuild-individual_entity_attribute-attrib_HH-attrib $-1 $-1 $-1 $506 F #
vertex $551 $506 $552 #
ellipse-curve $-1 0 -0.1285 0 0 -1 0 -0.062324999999999998 0 0 1 I I #
attrib_hh_vertex_geombuild-attrib_entity_geombuild-individual_entity_attribute-attrib_HH-attrib $-1 $-1 $-1 $510 F #
point $-1 0.062324999999999998 -0.36449999999999999 7.6326111756858808e-018 #
attrib_hh_vertex_geombuild-attrib_entity_geombuild-individual_entity_attribute-attrib_HH-attrib $-1 $-1 $-1 $513 F #
point $-1 0.061249999999999999 -0.36449999999999999 7.5007139171620597e-018 #
pid_name-sg-attrib $-1 $-1 $520 $449 7 rwilson 784252905 77 1 #
attrib_hh_face_geombuild-attrib_entity_geombuild-individual_entity_attribute-attrib_HH-attrib $-1 $553 $521 $500 F #
model_id-kcp-attrib $-1 $554 $-1 $522 1 1017696036 70 -700055551 13 #
face $555 $-1 $556 $9 $-1 $557 reversed single #
loop $-1 $558 $559 $522 #
torus-surface $-1 0 -0.0030000000000000001 0 0 -1 0 0.104125 0.0030000000000000001 0 0 -1 forward_v I I I I #
loop $-1 $-1 $549 $500 #
coedge $560 $543 $543 $544 $561 reversed $523 $-1 #
coedge $562 $544 $544 $543 $561 forward $525 $-1 #
attrib_hh_coedge_geombuild-attrib_entity_geombuild-individual_entity_attribute-attrib_HH-attrib $-1 $-1 $-1 $526 F #
coedge $563 $546 $546 $526 $547 forward $558 $-1 #
edge $564 $565 -6.2831853071795862 $565 0 $526 $566 reversed 7 unknown #
attrib_hh_coedge_geombuild-attrib_entity_geombuild-individual_entity_attribute-attrib_HH-attrib $-1 $-1 $-1 $527 F #
coedge $567 $549 $549 $527 $550 reversed $542 $-1 #
edge $568 $569 -3.1415926535897931 $569 3.1415926535897931 $549 $570 forward 7 unknown #
attrib_hh_vertex_geombuild-attrib_entity_geombuild-individual_entity_attribute-attrib_HH-attrib $-1 $-1 $-1 $530 F #
point $-1 -0.062324999999999998 -0.1285 0 #
pid_name-sg-attrib $-1 $-1 $537 $500 7 rwilson 784252905 78 1 #
attrib_hh_face_geombuild-attrib_entity_geombuild-individual_entity_attribute-attrib_HH-attrib $-1 $571 $538 $522 F #
model_id-kcp-attrib $-1 $572 $-1 $539 1 1017696036 70 -700055551 14 #
loop $-1 $-1 $573 $539 #
plane-surface $-1 0 0 0 0 -1 0 0 0 -1 forward_v I I I I #
loop $-1 $-1 $546 $522 #
coedge $574 $559 $559 $573 $575 forward $540 $-1 #
attrib_hh_coedge_geombuild-attrib_entity_geombuild-individual_entity_attribute-attrib_HH-attrib $-1 $-1 $-1 $543 F #
edge $576 $577 0 $577 6.2831853071795862 $543 $578 forward 7 unknown #
attrib_hh_coedge_geombuild-attrib_entity_geombuild-individual_entity_attribute-attrib_HH-attrib $-1 $-1 $-1 $544 F #
attrib_hh_coedge_geombuild-attrib_entity_geombuild-individual_entity_attribute-attrib_HH-attrib $-1 $-1 $-1 $546 F #
attrib_hh_edge_geombuild-attrib_entity_geombuild-individual_entity_attribute-attrib_HH-attrib $-1 $-1 $-1 $547 F #
vertex $579 $547 $580 #
ellipse-curve $-1 0 -0.0030000000000000001 0 0 -1 0 -0.107125 0 0 1 I I #
attrib_hh_coedge_geombuild-attrib_entity_geombuild-individual_entity_attribute-attrib_HH-attrib $-1 $-1 $-1 $549 F #
attrib_hh_edge_geombuild-attrib_entity_geombuild-individual_entity_attribute-attrib_HH-attrib $-1 $-1 $-1 $550 F #
vertex $581 $550 $582 #
ellipse-curve $-1 0 -0.1255 0 0 -1 0 -0.065324999999999994 0 0 1 I I #
pid_name-sg-attrib $-1 $-1 $554 $522 7 rwilson 784252905 79 1 #
attrib_hh_face_geombuild-attrib_entity_geombuild-individual_entity_attribute-attrib_HH-attrib $-1 $583 $555 $539 F #
coedge $584 $573 $573 $559 $575 reversed $556 $-1 #
attrib_hh_coedge_geombuild-attrib_entity_geombuild-individual_entity_attribute-attrib_HH-attrib $-1 $-1 $-1 $559 F #
edge $585 $586 -6.2831853071795862 $586 0 $573 $587 reversed 7 unknown #
attrib_hh_edge_geombuild-attrib_entity_geombuild-individual_entity_attribute-attrib_HH-attrib $-1 $-1 $-1 $561 F #
vertex $588 $561 $589 #
ellipse-curve $-1 0 -0.1255 0 -2.5909522161613902e-016 1 0 -0.107125 -2.7755575615628901e-017 0 1 I I #
attrib_hh_vertex_geombuild-attrib_entity_geombuild-individual_entity_attribute-attrib_HH-attrib $-1 $-1 $-1 $565 F #
point $-1 -0.107125 -0.0030000000000000001 0 #
attrib_hh_vertex_geombuild-attrib_entity_geombuild-individual_entity_attribute-attrib_HH-attrib $-1 $-1 $-1 $569 F #
point $-1 0.065324999999999994 -0.1255 7.9997410063446795e-018 #
pid_name-sg-attrib $-1 $-1 $572 $539 7 rwilson 784252905 80 1 #
attrib_hh_coedge_geombuild-attrib_entity_geombuild-individual_entity_attribute-attrib_HH-attrib $-1 $-1 $-1 $573 F #
attrib_hh_edge_geombuild-attrib_entity_geombuild-individual_entity_attribute-attrib_HH-attrib $-1 $-1 $-1 $575 F #
vertex $590 $575 $591 #
ellipse-curve $-1 0 8.6736173798840393e-019 0 -8.3300046865633004e-018 1 0 -0.104125 -8.6736173798840393e-019 0 1 I I #
attrib_hh_vertex_geombuild-attrib_entity_geombuild-individual_entity_attribute-attrib_HH-attrib $-1 $-1 $-1 $577 F #
point $-1 -0.107125 -0.1255 0 #
attrib_hh_vertex_geombuild-attrib_entity_geombuild-individual_entity_attribute-attrib_HH-attrib $-1 $-1 $-1 $586 F #
point $-1 -0.104125 8.6736173798840393e-019 0 #
End-of-ACIS-data 