600 0 2 0           
24 FBMach with ACIS - 6.0.3 13 ACIS 6.0.3 NT 24 Tue May 22 12:37:15 2001 
1 9.9999999999999995e-007 1e-010 
body $2 $3 $-1 $4 #
bdycol-kcp $-1 1 5 $5 $6 $7 $8 $9 #
model_id-kcp-attrib $-1 $-1 $-1 $0 1 990549434 60 2000420865 1 #
lump $-1 $-1 $10 $0 #
transform $-1 1 0 0 0 1 0 0 0 1 0 0 0 1 no_rotate no_reflect no_shear #
body $11 $12 $-1 $13 #
body $14 $15 $-1 $16 #
body $17 $18 $-1 $19 #
body $20 $21 $-1 $22 #
body $23 $24 $-1 $25 #
shell $-1 $-1 $-1 $26 $-1 $3 #
model_id-kcp-attrib $-1 $-1 $-1 $5 1 990549434 70 2001076226 1 #
lump $-1 $-1 $27 $5 #
transform $-1 1 0 0 0 1 0 0 0 1 5.9507954119908391e-014 0 0 1 no_rotate no_reflect no_shear #
rgb_color-st-attrib $-1 $28 $-1 $6 0.5 1 1 #
lump $-1 $-1 $29 $6 #
transform $-1 -3.8285889215894375e-016 0 -1 0 1 0 1 0 -3.8285889215894375e-016 3.4999999999999467 0 -29.999999999999996 1 rotate no_reflect no_shear #
rgb_color-st-attrib $-1 $30 $-1 $7 0.5 1 1 #
lump $-1 $-1 $31 $7 #
transform $-1 -3.8285889215894375e-016 0 -1 0 1 0 1 0 -3.8285889215894375e-016 3.5000000000000533 0 30.000000000000004 1 rotate no_reflect no_shear #
rgb_color-st-attrib $-1 $32 $-1 $8 0.5 1 1 #
lump $-1 $33 $34 $8 #
transform $-1 1 0 0 0 1 0 0 0 1 5.9507954119908391e-014 0 0 1 no_rotate no_reflect no_shear #
rgb_color-st-attrib $-1 $35 $-1 $9 0.5 1 1 #
lump $-1 $-1 $36 $9 #
transform $-1 1 0 0 0 1 0 0 0 1 0 0 0 1 no_rotate no_reflect no_shear #
face $37 $38 $39 $10 $-1 $40 reversed single #
shell $-1 $-1 $-1 $41 $-1 $12 #
model_id-kcp-attrib $-1 $-1 $14 $6 1 990549434 150 2006319107 1 #
shell $-1 $-1 $-1 $42 $-1 $15 #
model_id-kcp-attrib $-1 $-1 $17 $7 1 990549434 150 2006319108 1 #
shell $-1 $-1 $-1 $43 $-1 $18 #
model_id-kcp-attrib $-1 $-1 $20 $8 1 990549434 350 2002649093 1 #
lump $-1 $44 $45 $8 #
shell $-1 $-1 $-1 $46 $-1 $21 #
model_id-kcp-attrib $-1 $-1 $23 $9 1 990549434 430 2007891974 1 #
shell $-1 $-1 $-1 $47 $-1 $24 #
model_id-kcp-attrib $-1 $-1 $-1 $26 1 990549434 60 2000420865 2 #
face $48 $49 $50 $10 $-1 $51 reversed single #
loop $-1 $52 $53 $26 #
torus-surface $-1 -3 0 -29.999999999999954 -1 0 3.4914813388431334e-015 2 2 3.4914813388431334e-015 0 1 forward_v I I I I #
face $54 $55 $56 $27 $-1 $57 forward single #
face $-1 $58 $59 $29 $-1 $60 forward single #
face $-1 $61 $62 $31 $-1 $63 forward single #
lump $-1 $64 $65 $8 #
shell $-1 $-1 $-1 $66 $-1 $33 #
face $-1 $67 $68 $34 $-1 $69 reversed single #
face $-1 $70 $71 $36 $-1 $72 forward single #
model_id-kcp-attrib $-1 $-1 $-1 $38 1 990549434 60 2000420865 3 #
face $73 $74 $75 $10 $-1 $76 reversed single #
loop $-1 $77 $78 $38 #
cone-surface $-1 10 0 -30 1 0 -3.4914813388431334e-015 -1.3965925355372533e-014 0 -4 1 I I 0 1 4 forward I I I I #
loop $-1 $-1 $79 $26 #
coedge $-1 $53 $53 $80 $81 reversed $39 $-1 #
model_id-kcp-attrib $-1 $-1 $-1 $41 1 990549434 70 2001076226 2 #
face $82 $83 $84 $27 $-1 $85 reversed single #
loop $-1 $-1 $86 $41 #
plane-surface $-1 0 0 45 0 0 1 1 0 0 forward_v I I I I #
face $-1 $87 $88 $29 $-1 $89 forward single #
loop $-1 $90 $91 $42 #
torus-surface $-1 0 0 -6.4999999999999591 0 0 -1 2 2 -1 0 0 forward_v I I I I #
face $-1 $92 $93 $31 $-1 $94 forward single #
loop $-1 $95 $96 $43 #
torus-surface $-1 0 0 -6.5000000000000657 0 0 -1 2 2 -1 0 0 forward_v I I I I #
lump $-1 $-1 $97 $8 #
shell $-1 $-1 $-1 $98 $-1 $44 #
face $-1 $99 $100 $45 $-1 $101 reversed single #
face $-1 $102 $103 $34 $-1 $104 reversed single #
loop $-1 $-1 $105 $46 #
cone-surface $-1 -10.00000000000006 10 35 -1 0 0 0 0 10 1 I I 0 1 10 forward I I I I #
face $-1 $106 $107 $36 $-1 $108 forward single #
loop $-1 $-1 $109 $47 #
cone-surface $-1 -10 -10 -10 1 0 0 0 -3.5355339059327373 -3.5355339059327373 1 I I 0 1 5 forward I I I I #
model_id-kcp-attrib $-1 $-1 $-1 $49 1 990549434 60 2000420865 4 #
face $110 $111 $112 $10 $-1 $113 reversed single #
loop $-1 $-1 $114 $49 #
plane-surface $-1 -5 0 -29.999999999999947 -1 0 3.4914813388431334e-015 3.4914813388431334e-015 0 1 forward_v I I I I #
loop $-1 $-1 $80 $38 #
coedge $-1 $78 $78 $115 $116 reversed $50 $-1 #
coedge $-1 $79 $79 $114 $117 reversed $52 $-1 #
coedge $-1 $80 $80 $53 $81 forward $77 $-1 #
edge $118 $119 -3.1415926535897998 $119 3.1415926535897865 $80 $120 forward 7 unknown #
model_id-kcp-attrib $-1 $-1 $-1 $55 1 990549434 70 2001076226 6 #
face $121 $122 $123 $27 $-1 $124 reversed single #
loop $-1 $-1 $125 $55 #
plane-surface $-1 0 0 -45 0 0 1 1 0 0 forward_v I I I I #
coedge $-1 $126 $127 $128 $129 forward $56 $-1 #
face $-1 $130 $131 $29 $-1 $132 forward single #
loop $-1 $-1 $133 $58 #
plane-surface $-1 0 0 -8.4999999999999591 0 0 -1 -1 0 0 forward_v I I I I #
loop $-1 $-1 $134 $42 #
coedge $-1 $91 $91 $135 $136 forward $59 $-1 #
face $-1 $137 $138 $31 $-1 $139 forward single #
loop $-1 $-1 $140 $61 #
plane-surface $-1 0 0 -8.5000000000000657 0 0 -1 -1 0 0 forward_v I I I I #
loop $-1 $-1 $141 $43 #
coedge $-1 $96 $96 $142 $143 forward $62 $-1 #
shell $-1 $-1 $-1 $144 $-1 $64 #
face $-1 $145 $146 $65 $-1 $147 reversed single #
face $-1 $148 $149 $45 $-1 $150 reversed single #
loop $-1 $-1 $151 $66 #
plane-surface $-1 0 -20 0 0 1 0 0 0 1 forward_v I I I I #
face $-1 $152 $153 $34 $-1 $154 forward single #
loop $-1 $-1 $155 $67 #
plane-surface $-1 0 20 0 0 -1 0 0 0 -1 forward_v I I I I #
coedge $-1 $156 $157 $158 $159 reversed $68 $-1 #
face $-1 $160 $161 $36 $-1 $162 forward single #
loop $-1 $-1 $163 $70 #
plane-surface $-1 -10 -15 -10 0 -1 0 0 0 -1 forward_v I I I I #
coedge $-1 $164 $165 $166 $167 forward $71 $-1 #
model_id-kcp-attrib $-1 $-1 $-1 $74 1 990549434 60 2000420865 5 #
face $168 $169 $170 $10 $-1 $171 reversed single #
loop $-1 $172 $173 $74 #
torus-surface $-1 -3 0 30.000000000000046 -1 0 3.4914813388431334e-015 2 2 3.4914813388431334e-015 0 1 forward_v I I I I #
coedge $-1 $114 $114 $79 $117 forward $75 $-1 #
coedge $-1 $115 $115 $78 $116 forward $174 $-1 #
edge $175 $176 -3.1415926535897998 $176 3.1415926535897865 $115 $177 forward 7 unknown #
edge $-1 $178 -3.1415926535897865 $178 3.1415926535897998 $114 $179 forward 7 unknown #
attrib_edge_convexity-kcp-attrib $-1 $180 $-1 $81 4 #
vertex $-1 $81 $181 #
ellipse-curve $-1 -3 0 -29.999999999999954 -1 0 3.4914813388431334e-015 1.3965925355372533e-014 0 4 1 I I #
model_id-kcp-attrib $-1 $-1 $-1 $83 1 990549434 70 2001076226 4 #
face $182 $183 $184 $27 $-1 $185 reversed single #
loop $-1 $-1 $186 $83 #
plane-surface $-1 0 -20 0 0 1 0 0 0 1 forward_v I I I I #
coedge $-1 $187 $188 $189 $190 forward $84 $-1 #
coedge $-1 $191 $86 $192 $193 forward $56 $-1 #
coedge $-1 $86 $191 $194 $195 forward $56 $-1 #
coedge $-1 $196 $197 $86 $129 reversed $198 $-1 #
edge $-1 $199 -20 $200 20 $128 $201 forward 7 unknown #
face $-1 $-1 $202 $29 $-1 $203 forward single #
loop $-1 $204 $135 $87 #
cone-surface $-1 0 0 0 0 0 1 4 0 0 1 I I 0 1 4 forward I I I I #
coedge $-1 $133 $133 $134 $205 reversed $88 $-1 #
coedge $-1 $134 $134 $133 $205 forward $90 $-1 #
coedge $-1 $135 $135 $91 $136 reversed $131 $-1 #
edge $-1 $206 0 $206 6.2831853071795862 $135 $207 forward 7 unknown #
face $-1 $-1 $208 $31 $-1 $209 forward single #
loop $-1 $210 $142 $92 #
cone-surface $-1 0 0 0 0 0 1 4 0 0 1 I I 0 1 4 forward I I I I #
coedge $-1 $140 $140 $141 $211 reversed $93 $-1 #
coedge $-1 $141 $141 $140 $211 forward $95 $-1 #
coedge $-1 $142 $142 $96 $143 reversed $138 $-1 #
edge $-1 $212 0 $212 6.2831853071795862 $142 $213 forward 7 unknown #
face $-1 $214 $215 $97 $-1 $216 reversed single #
face $-1 $217 $218 $65 $-1 $219 reversed single #
loop $-1 $-1 $220 $98 #
cone-surface $-1 -10.00000000000006 -10 -35 -1 0 0 0 0 -10 1 I I 0 1 10 forward I I I I #
face $-1 $221 $222 $45 $-1 $216 reversed single #
loop $-1 $-1 $223 $99 #
plane-surface $-1 10.00000000000006 0 0 -1 0 0 0 0 1 forward_v I I I I #
coedge $-1 $224 $225 $226 $227 reversed $100 $-1 #
face $-1 $228 $229 $34 $-1 $216 reversed single #
loop $-1 $-1 $230 $102 #
plane-surface $-1 0 0 45 0 0 1 1 0 0 forward_v I I I I #
coedge $-1 $231 $232 $156 $233 forward $103 $-1 #
coedge $-1 $234 $105 $155 $233 reversed $68 $-1 #
coedge $-1 $105 $234 $230 $235 forward $68 $-1 #
coedge $-1 $236 $237 $105 $159 forward $229 $-1 #
edge $-1 $238 -1.5707963267948966 $239 0 $158 $240 forward 7 unknown #
face $-1 $241 $242 $36 $-1 $243 forward single #
loop $-1 $-1 $244 $106 #
cone-surface $-1 -10 -10 10 1 0 0 0 -3.5355339059327373 3.5355339059327373 1 I I 0 1 5 forward I I I I #
coedge $-1 $245 $246 $247 $248 forward $107 $-1 #
coedge $-1 $249 $109 $246 $250 reversed $71 $-1 #
coedge $-1 $109 $249 $251 $252 forward $71 $-1 #
coedge $-1 $253 $247 $109 $167 reversed $254 $-1 #
edge $-1 $255 -0.78539816339744828 $256 0.78539816339744828 $109 $257 forward 7 unknown #
model_id-kcp-attrib $-1 $-1 $-1 $111 1 990549434 60 2000420865 6 #
face $258 $259 $260 $10 $-1 $261 reversed single #
loop $-1 $262 $263 $111 #
cone-surface $-1 10 0 30 1 0 -3.4914813388431334e-015 -1.3965925355372533e-014 0 -4 1 I I 0 1 4 forward I I I I #
loop $-1 $-1 $264 $74 #
coedge $-1 $173 $173 $265 $266 reversed $112 $-1 #
loop $-1 $267 $115 $268 #
attrib_edge_convexity-kcp-attrib $-1 $269 $-1 $116 1 #
vertex $-1 $116 $270 #
ellipse-curve $-1 9.9999999999998952 0 -30 -1 0 0 -1.3965925355372533e-014 0 -4 1 I I #
vertex $-1 $117 $271 #
ellipse-curve $-1 -5 0 -29.999999999999947 1 0 -3.4914813388431334e-015 6.9829626776862667e-015 0 2 1 I I #
convexity-sys-attrib $-1 $-1 $118 $81 #
point $-1 -3.0000000000000142 2.7931850710745067e-014 -33.999999999999957 #
model_id-kcp-attrib $-1 $-1 $-1 $122 1 990549434 70 2001076226 3 #
face $272 $273 $274 $27 $-1 $275 reversed single #
loop $-1 $-1 $276 $122 #
plane-surface $-1 -10.00000000000006 0 0 1 0 0 0 0 -1 forward_v I I I I #
coedge $-1 $277 $194 $278 $279 forward $123 $-1 #
coedge $-1 $280 $125 $277 $281 forward $84 $-1 #
coedge $-1 $125 $280 $282 $283 forward $84 $-1 #
coedge $-1 $197 $196 $125 $190 reversed $198 $-1 #
edge $-1 $284 -20 $285 20 $189 $286 forward 7 unknown #
coedge $-1 $127 $126 $287 $288 forward $56 $-1 #
coedge $-1 $289 $290 $126 $193 reversed $274 $-1 #
edge $-1 $200 -10.00000000000006 $291 10.00000000000006 $192 $292 forward 7 unknown #
coedge $-1 $186 $293 $127 $195 reversed $123 $-1 #
edge $-1 $294 -10.00000000000006 $199 10.00000000000006 $194 $295 forward 7 unknown #
coedge $-1 $189 $128 $293 $296 forward $198 $-1 #
coedge $-1 $128 $189 $289 $297 reversed $198 $-1 #
loop $-1 $-1 $196 $273 #
vertex $-1 $129 $298 #
vertex $-1 $129 $299 #
straight-curve $-1 10.00000000000006 0 45 0 1 0 I I #
loop $-1 $-1 $300 $130 #
plane-surface $-1 0 0 6.4999999999999591 0 0 1 1 0 0 forward_v I I I I #
loop $-1 $-1 $301 $87 #
edge $-1 $302 -3.1415926535897931 $302 3.1415926535897931 $133 $303 forward 7 unknown #
vertex $-1 $136 $304 #
ellipse-curve $-1 0 0 -6.4999999999999591 0 0 -1 4 0 0 1 I I #
loop $-1 $-1 $305 $137 #
plane-surface $-1 0 0 6.5000000000000657 0 0 1 1 0 0 forward_v I I I I #
loop $-1 $-1 $306 $92 #
edge $-1 $307 -3.1415926535897931 $307 3.1415926535897931 $140 $308 forward 7 unknown #
vertex $-1 $143 $309 #
ellipse-curve $-1 0 0 -6.5000000000000657 0 0 -1 4 0 0 1 I I #
face $-1 $310 $311 $97 $-1 $150 reversed single #
loop $-1 $-1 $312 $144 #
plane-surface $-1 -10.00000000000006 0 0 1 0 0 0 0 -1 forward_v I I I I #
face $-1 $313 $314 $65 $-1 $216 reversed single #
loop $-1 $-1 $315 $145 #
plane-surface $-1 0 0 -45 0 0 1 1 0 0 forward_v I I I I #
coedge $-1 $316 $317 $318 $319 reversed $146 $-1 #
face $-1 $320 $321 $45 $-1 $154 forward single #
loop $-1 $-1 $322 $148 #
coedge $-1 $323 $324 $325 $326 forward $149 $-1 #
coedge $-1 $327 $151 $324 $328 reversed $100 $-1 #
coedge $-1 $151 $327 $329 $330 forward $100 $-1 #
coedge $-1 $331 $325 $151 $227 forward $332 $-1 #
edge $-1 $333 -20.000000000000121 $334 0 $151 $335 forward 7 unknown #
face $-1 $-1 $336 $34 $-1 $150 reversed single #
loop $-1 $-1 $158 $152 #
coedge $-1 $337 $338 $157 $235 reversed $153 $-1 #
coedge $-1 $339 $155 $237 $340 reversed $103 $-1 #
coedge $-1 $155 $339 $341 $342 forward $103 $-1 #
edge $-1 $343 -20.000000000000121 $238 0 $155 $344 forward 7 unknown #
coedge $-1 $157 $156 $345 $346 reversed $68 $-1 #
edge $-1 $347 -20.000000000000121 $239 0 $230 $348 forward 7 unknown #
coedge $-1 $237 $158 $338 $349 reversed $229 $-1 #
coedge $-1 $158 $236 $231 $340 forward $229 $-1 #
vertex $-1 $159 $350 #
vertex $-1 $235 $351 #
ellipse-curve $-1 -10.00000000000006 10 35 1 0 0 0 0 10 1 I I #
face $-1 $352 $353 $36 $-1 $354 forward single #
loop $-1 $-1 $355 $160 #
plane-surface $-1 -10 -10 15 0 0 1 1 0 0 forward_v I I I I #
coedge $-1 $356 $357 $358 $359 forward $161 $-1 #
coedge $-1 $360 $163 $357 $361 reversed $107 $-1 #
coedge $-1 $163 $360 $164 $250 forward $107 $-1 #
coedge $-1 $166 $358 $163 $248 reversed $254 $-1 #
edge $-1 $256 -10 $362 10 $163 $363 forward 7 unknown #
coedge $-1 $165 $164 $364 $365 forward $71 $-1 #
edge $-1 $366 0 $256 20 $246 $367 forward 7 unknown #
coedge $-1 $368 $369 $165 $252 reversed $370 $-1 #
edge $-1 $371 0 $255 20 $165 $372 forward 7 unknown #
coedge $-1 $373 $166 $369 $374 reversed $254 $-1 #
loop $-1 $-1 $166 $375 #
vertex $-1 $252 $376 #
vertex $-1 $250 $377 #
ellipse-curve $-1 10 -10 -10 -1 0 0 0 -3.5355339059327373 -3.5355339059327373 1 I I #
model_id-kcp-attrib $-1 $-1 $-1 $169 1 990549434 60 2000420865 7 #
face $378 $379 $380 $10 $-1 $381 forward single #
loop $-1 $-1 $382 $169 #
plane-surface $-1 -5 0 30.000000000000053 -1 0 3.4914813388431334e-015 3.4914813388431334e-015 0 1 forward_v I I I I #
loop $-1 $-1 $265 $111 #
coedge $-1 $263 $263 $383 $384 reversed $170 $-1 #
coedge $-1 $264 $264 $382 $385 reversed $172 $-1 #
coedge $-1 $265 $265 $173 $266 forward $262 $-1 #
edge $386 $387 -3.1415926535897998 $387 3.1415926535897865 $265 $388 forward 7 unknown #
loop $-1 $389 $383 $268 #
face $390 $-1 $174 $10 $-1 $391 reversed single #
convexity-sys-attrib $-1 $-1 $175 $116 #
point $-1 9.9999999999999094 -2.7931850710745067e-014 -26 #
point $-1 -5.0000000000000071 1.3965925355372533e-014 -31.999999999999947 #
model_id-kcp-attrib $-1 $-1 $-1 $183 1 990549434 70 2001076226 5 #
face $392 $-1 $198 $27 $-1 $393 reversed single #
loop $-1 $-1 $289 $183 #
plane-surface $-1 0 20 0 0 -1 0 0 0 -1 forward_v I I I I #
coedge $-1 $394 $287 $290 $395 forward $184 $-1 #
coedge $-1 $293 $186 $187 $281 reversed $123 $-1 #
coedge $-1 $287 $394 $186 $279 reversed $184 $-1 #
edge $-1 $294 -45 $396 45 $278 $397 forward 7 unknown #
coedge $-1 $188 $187 $394 $398 forward $84 $-1 #
edge $-1 $285 -10.00000000000006 $396 10.00000000000006 $277 $399 forward 7 unknown #
coedge $-1 $290 $289 $188 $283 reversed $274 $-1 #
edge $-1 $400 -10.00000000000006 $284 10.00000000000006 $282 $401 forward 7 unknown #
vertex $-1 $190 $402 #
vertex $-1 $296 $403 #
straight-curve $-1 10.00000000000006 0 -45 0 -1 0 I I #
coedge $-1 $276 $278 $191 $288 reversed $184 $-1 #
edge $-1 $291 -20 $294 20 $287 $404 forward 7 unknown #
coedge $-1 $282 $192 $197 $297 forward $274 $-1 #
coedge $-1 $192 $282 $276 $395 reversed $274 $-1 #
vertex $-1 $193 $405 #
straight-curve $-1 0 20 45 -1 0 0 I I #
coedge $-1 $194 $277 $196 $296 reversed $123 $-1 #
vertex $-1 $288 $406 #
straight-curve $-1 0 -20 45 1 0 0 I I #
edge $-1 $199 -45 $285 45 $196 $407 forward 7 unknown #
edge $-1 $200 -45 $284 45 $197 $408 forward 7 unknown #
point $-1 10.00000000000006 -20 45 #
point $-1 10.00000000000006 20 45 #
coedge $-1 $300 $300 $301 $409 forward $202 $-1 #
coedge $-1 $301 $301 $300 $409 reversed $204 $-1 #
vertex $-1 $205 $410 #
ellipse-curve $-1 0 0 -8.4999999999999591 0 0 1 -2 -2.4492127076447545e-016 0 1 I I #
point $-1 4 0 -6.4999999999999591 #
coedge $-1 $305 $305 $306 $411 forward $208 $-1 #
coedge $-1 $306 $306 $305 $411 reversed $210 $-1 #
vertex $-1 $211 $412 #
ellipse-curve $-1 0 0 -8.5000000000000657 0 0 1 -2 -2.4492127076447545e-016 0 1 I I #
point $-1 4 0 -6.5000000000000657 #
face $-1 $413 $414 $97 $-1 $219 reversed single #
loop $-1 $-1 $415 $214 #
coedge $-1 $416 $417 $418 $419 forward $215 $-1 #
face $-1 $420 $421 $65 $-1 $150 reversed single #
loop $-1 $-1 $422 $217 #
coedge $-1 $423 $424 $316 $425 reversed $218 $-1 #
coedge $-1 $426 $220 $315 $425 forward $146 $-1 #
coedge $-1 $220 $426 $427 $428 reversed $146 $-1 #
coedge $-1 $429 $430 $220 $319 forward $421 $-1 #
edge $-1 $431 0 $432 1.5707963267948966 $318 $433 forward 7 unknown #
face $-1 $-1 $332 $45 $-1 $434 reversed single #
loop $-1 $-1 $435 $221 #
coedge $-1 $329 $436 $331 $437 forward $222 $-1 #
coedge $-1 $324 $223 $438 $439 reversed $149 $-1 #
coedge $-1 $223 $323 $224 $328 forward $149 $-1 #
coedge $-1 $226 $440 $223 $326 reversed $332 $-1 #
edge $-1 $333 0 $441 1.5707963267948966 $223 $442 forward 7 unknown #
coedge $-1 $225 $224 $443 $444 reversed $100 $-1 #
edge $-1 $445 -45 $333 -35 $324 $446 forward 7 unknown #
coedge $-1 $436 $322 $225 $330 reversed $222 $-1 #
edge $-1 $447 -45 $334 -35 $329 $448 forward 7 unknown #
coedge $-1 $440 $226 $322 $437 reversed $332 $-1 #
loop $-1 $-1 $331 $320 #
vertex $-1 $227 $449 #
vertex $-1 $227 $450 #
straight-curve $-1 -10.00000000000006 -20 35 -1 0 0 I I #
loop $-1 $-1 $345 $228 #
coedge $-1 $451 $230 $452 $453 forward $153 $-1 #
coedge $-1 $230 $451 $236 $349 forward $153 $-1 #
coedge $-1 $232 $231 $451 $454 reversed $103 $-1 #
edge $-1 $455 -45 $238 -35 $231 $456 forward 7 unknown #
coedge $-1 $452 $345 $232 $342 reversed $336 $-1 #
edge $-1 $457 -45 $343 -35 $341 $458 forward 7 unknown #
vertex $-1 $346 $459 #
straight-curve $-1 -10.00000000000006 20 35 -1 0 0 I I #
coedge $-1 $341 $452 $234 $346 forward $336 $-1 #
edge $-1 $347 0 $343 1.5707963267948966 $345 $460 forward 7 unknown #
vertex $-1 $453 $461 #
straight-curve $-1 -10.00000000000006 10 45 -1 0 0 I I #
edge $-1 $455 -20 $239 -10 $236 $462 forward 7 unknown #
point $-1 -10.00000000000006 20 35 #
point $-1 -10.00000000000006 10 45 #
face $-1 $463 $464 $36 $-1 $465 forward single #
loop $-1 $-1 $466 $241 #
cone-surface $-1 -10 10 10 1 0 0 0 3.5355339059327373 3.5355339059327373 1 I I 0 1 5 forward I I I I #
coedge $-1 $467 $468 $469 $470 forward $242 $-1 #
coedge $-1 $471 $244 $468 $472 reversed $161 $-1 #
coedge $-1 $244 $471 $245 $361 forward $161 $-1 #
coedge $-1 $247 $469 $244 $359 reversed $254 $-1 #
edge $-1 $362 -0.78539816339744828 $473 0.78539816339744828 $244 $474 forward 7 unknown #
coedge $-1 $246 $245 $475 $476 forward $107 $-1 #
edge $-1 $477 0 $362 20 $357 $478 forward 7 unknown #
vertex $-1 $361 $479 #
straight-curve $-1 10 -15 0 0 0 1 I I #
coedge $-1 $475 $480 $249 $365 reversed $481 $-1 #
edge $-1 $366 -0.78539816339744828 $371 0.78539816339744828 $249 $482 forward 7 unknown #
vertex $-1 $476 $483 #
straight-curve $-1 -10 -15 -10 1 0 0 I I #
coedge $-1 $484 $251 $480 $485 forward $370 $-1 #
coedge $-1 $251 $484 $253 $374 forward $370 $-1 #
loop $-1 $-1 $369 $486 #
vertex $-1 $485 $487 #
straight-curve $-1 -10 -10 -15 1 0 0 I I #
coedge $-1 $488 $253 $489 $490 reversed $254 $-1 #
edge $-1 $491 -10 $255 10 $369 $492 forward 7 unknown #
face $-1 $493 $254 $36 $-1 $494 forward single #
point $-1 10 -10 -15 #
point $-1 10 -15 -10 #
model_id-kcp-attrib $-1 $-1 $-1 $259 1 990549434 60 2000420865 8 #
face $495 $496 $497 $10 $-1 $498 forward single #
loop $-1 $-1 $499 $259 #
cone-surface $-1 0 10 35 -1 0 0 0 7.0710678118654746 7.0710678118654746 1 I I 0 1 10 forward I I I I #
coedge $-1 $382 $382 $264 $385 forward $260 $-1 #
coedge $-1 $383 $383 $263 $384 forward $267 $-1 #
edge $500 $501 -3.1415926535897998 $501 3.1415926535897865 $383 $502 forward 7 unknown #
edge $-1 $503 -3.1415926535897865 $503 3.1415926535897998 $382 $504 forward 7 unknown #
attrib_edge_convexity-kcp-attrib $-1 $505 $-1 $266 4 #
vertex $-1 $266 $506 #
ellipse-curve $-1 -3 0 30.000000000000046 -1 0 3.4914813388431334e-015 1.3965925355372533e-014 0 4 1 I I #
loop $-1 $507 $508 $268 #
model_id-kcp-attrib $-1 $509 $-1 $268 1 990549434 60 2000420865 26 #
plane-surface $-1 10 0 0 -1 0 0 0 0 1 forward_v I I I I #
model_id-kcp-attrib $-1 $-1 $-1 $273 1 990549434 70 2001076226 7 #
plane-surface $-1 10.00000000000006 0 0 -1 0 0 0 0 1 forward_v I I I I #
coedge $-1 $278 $276 $280 $398 reversed $184 $-1 #
edge $-1 $291 -45 $400 45 $290 $510 forward 7 unknown #
vertex $-1 $398 $511 #
straight-curve $-1 -10.00000000000006 -20 0 0 0 -1 I I #
edge $-1 $396 -20 $400 20 $394 $512 forward 7 unknown #
straight-curve $-1 0 -20 -45 -1 0 0 I I #
vertex $-1 $283 $513 #
straight-curve $-1 0 20 -45 1 0 0 I I #
point $-1 10.00000000000006 20 -45 #
point $-1 10.00000000000006 -20 -45 #
straight-curve $-1 -10.00000000000006 0 45 0 -1 0 I I #
point $-1 -10.00000000000006 20 45 #
point $-1 -10.00000000000006 -20 45 #
straight-curve $-1 10.00000000000006 -20 0 0 0 -1 I I #
straight-curve $-1 10.00000000000006 20 0 0 0 -1 I I #
edge $-1 $514 0 $514 6.2831853071795862 $300 $515 forward 7 unknown #
point $-1 2 4.898425415289509e-016 -8.4999999999999591 #
edge $-1 $516 0 $516 6.2831853071795862 $305 $517 forward 7 unknown #
point $-1 2 4.898425415289509e-016 -8.5000000000000657 #
face $-1 $518 $519 $97 $-1 $104 reversed single #
loop $-1 $-1 $520 $310 #
coedge $-1 $521 $522 $523 $524 forward $311 $-1 #
coedge $-1 $417 $312 $525 $526 forward $215 $-1 #
coedge $-1 $312 $416 $527 $528 reversed $215 $-1 #
coedge $-1 $529 $530 $312 $419 reversed $531 $-1 #
edge $-1 $532 -1.5707963267948966 $533 0 $312 $534 forward 7 unknown #
face $-1 $-1 $535 $65 $-1 $101 reversed single #
loop $-1 $-1 $318 $313 #
coedge $-1 $536 $537 $426 $538 forward $314 $-1 #
coedge $-1 $539 $315 $430 $540 forward $218 $-1 #
coedge $-1 $315 $539 $536 $541 forward $218 $-1 #
edge $-1 $431 -20.000000000000121 $542 0 $315 $543 forward 7 unknown #
coedge $-1 $317 $316 $422 $538 reversed $146 $-1 #
coedge $-1 $544 $545 $317 $428 forward $535 $-1 #
edge $-1 $432 -20.000000000000121 $546 0 $427 $547 forward 7 unknown #
coedge $-1 $430 $318 $545 $548 forward $421 $-1 #
coedge $-1 $318 $429 $423 $540 reversed $421 $-1 #
vertex $-1 $540 $549 #
vertex $-1 $548 $550 #
ellipse-curve $-1 10.00000000000006 -10 -35 -1 0 0 0 0 -10 1 I I #
cone-surface $-1 -10.00000000000006 -10 35 -1 0 0 0 -10 0 1 I I 0 1 10 forward I I I I #
coedge $-1 $551 $438 $440 $552 forward $321 $-1 #
coedge $-1 $322 $329 $551 $553 reversed $222 $-1 #
edge $-1 $554 -1.5707963267948966 $334 0 $322 $555 forward 7 unknown #
coedge $-1 $435 $443 $323 $439 forward $321 $-1 #
edge $-1 $445 -20 $441 -10 $323 $556 forward 7 unknown #
coedge $-1 $325 $331 $435 $552 reversed $332 $-1 #
vertex $-1 $326 $557 #
ellipse-curve $-1 10.00000000000006 -10 35 -1 0 0 0 -10 0 1 I I #
coedge $-1 $438 $551 $327 $444 forward $321 $-1 #
edge $-1 $447 -10.00000000000006 $445 10.00000000000006 $327 $558 forward 7 unknown #
vertex $-1 $439 $559 #
straight-curve $-1 10.00000000000006 -20 0 0 0 -1 I I #
vertex $-1 $553 $560 #
straight-curve $-1 -10.00000000000006 -20 0 0 0 -1 I I #
point $-1 10.00000000000006 -20 35 #
point $-1 -10.00000000000006 -20 35 #
coedge $-1 $338 $337 $339 $454 forward $153 $-1 #
coedge $-1 $345 $341 $337 $453 reversed $336 $-1 #
edge $-1 $347 10 $457 20 $452 $556 forward 7 unknown #
edge $-1 $457 -10.00000000000006 $455 10.00000000000006 $339 $561 forward 7 unknown #
vertex $-1 $454 $562 #
straight-curve $-1 -10.00000000000006 20 0 0 0 -1 I I #
vertex $-1 $453 $563 #
straight-curve $-1 10.00000000000006 20 0 0 0 -1 I I #
point $-1 10.00000000000006 20 35 #
ellipse-curve $-1 10.00000000000006 10 35 -1 0 0 0 0 10 1 I I #
point $-1 10.00000000000006 10 45 #
straight-curve $-1 -10.00000000000006 0 45 0 -1 0 I I #
face $-1 $486 $564 $36 $-1 $565 forward single #
loop $-1 $-1 $566 $352 #
plane-surface $-1 -10 15 10 0 1 0 0 0 1 forward_v I I I I #
coedge $-1 $567 $568 $569 $570 forward $353 $-1 #
coedge $-1 $571 $355 $568 $572 reversed $242 $-1 #
coedge $-1 $355 $571 $356 $472 forward $242 $-1 #
coedge $-1 $358 $569 $355 $470 reversed $254 $-1 #
edge $-1 $473 -10 $573 10 $355 $574 forward 7 unknown #
coedge $-1 $357 $356 $575 $576 forward $161 $-1 #
edge $-1 $577 0 $473 20 $468 $578 forward 7 unknown #
vertex $-1 $472 $579 #
ellipse-curve $-1 10 -10 10 -1 0 0 0 -3.5355339059327373 3.5355339059327373 1 I I #
coedge $-1 $575 $364 $360 $476 reversed $481 $-1 #
edge $-1 $477 -10 $366 10 $360 $580 forward 7 unknown #
vertex $-1 $576 $581 #
straight-curve $-1 -10 -15 10 1 0 0 I I #
point $-1 10 -15 10 #
coedge $-1 $364 $582 $368 $485 reversed $481 $-1 #
loop $-1 $-1 $480 $493 #
ellipse-curve $-1 -10 -10 -10 1 0 0 0 -3.5355339059327373 -3.5355339059327373 1 I I #
point $-1 -10 -15 -10 #
coedge $-1 $369 $368 $583 $584 forward $370 $-1 #
edge $-1 $371 -10 $585 10 $368 $586 forward 7 unknown #
face $-1 $375 $370 $36 $-1 $587 forward single #
point $-1 -10 -10 -15 #
coedge $-1 $569 $373 $566 $588 reversed $254 $-1 #
coedge $-1 $583 $589 $373 $490 forward $564 $-1 #
edge $-1 $590 -0.78539816339744828 $491 0.78539816339744828 $489 $591 forward 7 unknown #
vertex $-1 $584 $592 #
straight-curve $-1 10 0 -15 0 -1 0 I I #
face $-1 $-1 $481 $36 $-1 $593 reversed single #
plane-surface $-1 10 -2.2204460492503131e-016 -1.1102230246251565e-016 1 0 0 0 0 -1 forward_v I I I I #
model_id-kcp-attrib $-1 $-1 $-1 $379 1 990549434 60 2000420865 9 #
face $594 $595 $596 $10 $-1 $597 reversed single #
loop $-1 $-1 $598 $379 #
plane-surface $-1 0 0 45 0 0 1 1 0 0 forward_v I I I I #
coedge $-1 $599 $600 $598 $601 forward $380 $-1 #
attrib_edge_convexity-kcp-attrib $-1 $602 $-1 $384 1 #
vertex $-1 $384 $603 #
ellipse-curve $-1 10.000000000000105 0 30 -1 0 0 -1.3965925355372533e-014 0 -4 1 I I #
vertex $-1 $385 $604 #
ellipse-curve $-1 -5 0 30.000000000000053 1 0 -3.4914813388431334e-015 6.9829626776862667e-015 0 2 1 I I #
convexity-sys-attrib $-1 $-1 $386 $266 #
point $-1 -3.0000000000000142 2.7931850710745067e-014 26.000000000000046 #
loop $-1 $-1 $605 $268 #
coedge $-1 $606 $607 $599 $608 reversed $389 $-1 #
model_id-kcp-attrib $-1 $-1 $390 $268 1 990549434 60 2000420865 25 #
straight-curve $-1 -10.00000000000006 20 0 0 0 -1 I I #
point $-1 -10.00000000000006 -20 -45 #
straight-curve $-1 -10.00000000000006 0 -45 0 1 0 I I #
point $-1 -10.00000000000006 20 -45 #
vertex $-1 $409 $609 #
ellipse-curve $-1 0 0 6.4999999999999591 0 0 1 4 0 0 1 I I #
vertex $-1 $411 $610 #
ellipse-curve $-1 0 0 6.5000000000000657 0 0 1 4 0 0 1 I I #
face $-1 $-1 $531 $97 $-1 $611 reversed single #
loop $-1 $-1 $612 $413 #
coedge $-1 $527 $613 $529 $614 forward $414 $-1 #
coedge $-1 $522 $415 $613 $615 reversed $311 $-1 #
coedge $-1 $415 $521 $616 $617 reversed $311 $-1 #
coedge $-1 $530 $529 $415 $524 reversed $531 $-1 #
edge $-1 $618 0 $619 1.5707963267948966 $415 $620 forward 7 unknown #
coedge $-1 $612 $621 $416 $526 reversed $519 $-1 #
edge $-1 $533 35 $622 45 $525 $456 forward 7 unknown #
coedge $-1 $623 $520 $417 $528 forward $414 $-1 #
edge $-1 $532 10 $622 20 $417 $624 forward 7 unknown #
coedge $-1 $523 $418 $520 $614 reversed $531 $-1 #
coedge $-1 $418 $523 $612 $625 forward $531 $-1 #
loop $-1 $-1 $418 $518 #
vertex $-1 $528 $626 #
vertex $-1 $526 $627 #
ellipse-curve $-1 -10.00000000000006 10 -35 1 0 0 0 10 0 1 I I #
loop $-1 $-1 $427 $420 #
coedge $-1 $537 $422 $424 $541 reversed $314 $-1 #
coedge $-1 $422 $536 $544 $628 reversed $314 $-1 #
edge $-1 $546 -1.5707963267948966 $542 0 $422 $629 forward 7 unknown #
coedge $-1 $424 $423 $630 $631 forward $218 $-1 #
edge $-1 $431 10 $632 20 $430 $633 forward 7 unknown #
edge $-1 $634 -20 $542 -10 $536 $624 forward 7 unknown #
vertex $-1 $538 $635 #
straight-curve $-1 -10.00000000000006 -10 -45 -1 0 0 I I #
coedge $-1 $630 $427 $537 $628 forward $535 $-1 #
coedge $-1 $427 $630 $429 $548 reversed $535 $-1 #
vertex $-1 $628 $636 #
straight-curve $-1 -10.00000000000006 -20 -35 -1 0 0 I I #
edge $-1 $432 35 $632 45 $429 $446 forward 7 unknown #
point $-1 10.00000000000006 -10 -45 #
point $-1 10.00000000000006 -20 -35 #
coedge $-1 $443 $435 $436 $553 forward $321 $-1 #
edge $-1 $441 -20.000000000000121 $554 0 $435 $637 forward 7 unknown #
edge $-1 $554 10 $447 20 $436 $462 forward 7 unknown #
vertex $-1 $553 $638 #
ellipse-curve $-1 -10.00000000000006 -10 35 1 0 0 0 -10 0 1 I I #
straight-curve $-1 10.00000000000006 0 45 0 1 0 I I #
point $-1 10.00000000000006 -10 45 #
straight-curve $-1 0 -20 45 1 0 0 I I #
point $-1 10.00000000000006 -20 45 #
point $-1 -10.00000000000006 -20 45 #
straight-curve $-1 0 20 45 -1 0 0 I I #
point $-1 -10.00000000000006 20 45 #
point $-1 10.00000000000006 20 45 #
loop $-1 $-1 $489 $463 #
cone-surface $-1 -10 10 -10 1 0 0 0 3.5355339059327373 -3.5355339059327373 1 I I 0 1 5 forward I I I I #
coedge $-1 $639 $640 $488 $588 forward $464 $-1 #
coedge $-1 $641 $466 $640 $642 reversed $353 $-1 #
coedge $-1 $466 $641 $467 $572 forward $353 $-1 #
coedge $-1 $469 $488 $466 $570 reversed $254 $-1 #
edge $-1 $573 -0.78539816339744828 $643 0.78539816339744828 $466 $644 forward 7 unknown #
coedge $-1 $468 $467 $645 $646 forward $242 $-1 #
edge $-1 $647 0 $573 20 $568 $648 forward 7 unknown #
vertex $-1 $572 $649 #
straight-curve $-1 10 0 15 0 1 0 I I #
coedge $-1 $645 $475 $471 $576 reversed $481 $-1 #
edge $-1 $577 -0.78539816339744828 $477 0.78539816339744828 $471 $650 forward 7 unknown #
vertex $-1 $646 $651 #
straight-curve $-1 -10 -10 15 1 0 0 I I #
point $-1 10 -10 15 #
straight-curve $-1 -10 -15 0 0 0 -1 I I #
point $-1 -10 -15 10 #
coedge $-1 $480 $652 $653 $654 reversed $481 $-1 #
coedge $-1 $653 $489 $484 $584 reversed $564 $-1 #
edge $-1 $585 0 $491 20 $484 $655 forward 7 unknown #
vertex $-1 $485 $656 #
straight-curve $-1 -10 0 -15 0 1 0 I I #
plane-surface $-1 -10 10 -15 0 0 -1 -1 0 0 forward_v I I I I #
edge $-1 $643 -10 $590 10 $566 $657 forward 7 unknown #
coedge $-1 $489 $653 $639 $658 forward $564 $-1 #
vertex $-1 $658 $659 #
ellipse-curve $-1 10 10 -10 -1 0 0 0 3.5355339059327373 -3.5355339059327373 1 I I #
point $-1 10 10 -15 #
plane-surface $-1 -10 -2.2204460492503131e-016 -1.1102230246251565e-016 1 0 0 0 0 -1 forward_v I I I I #
model_id-kcp-attrib $-1 $660 $-1 $496 1 990549434 60 2000420865 27 #
face $661 $662 $663 $10 $-1 $664 forward single #
loop $-1 $665 $666 $496 #
plane-surface $-1 -10 0 0 1 0 0 0 0 -1 forward_v I I I I #
coedge $-1 $667 $668 $499 $601 reversed $497 $-1 #
coedge $-1 $669 $499 $508 $608 forward $380 $-1 #
coedge $-1 $499 $669 $670 $671 forward $380 $-1 #
edge $672 $673 -10 $674 10 $598 $675 forward 7 unknown #
convexity-sys-attrib $-1 $-1 $500 $384 #
point $-1 10.000000000000119 -2.7931850710745067e-014 34 #
point $-1 -5.0000000000000071 1.3965925355372533e-014 28.000000000000053 #
coedge $-1 $676 $677 $678 $679 forward $507 $-1 #
coedge $-1 $680 $508 $668 $681 reversed $389 $-1 #
coedge $-1 $508 $682 $683 $684 reversed $389 $-1 #
edge $-1 $674 -0.78539816339744828 $685 0.78539816339744828 $508 $686 forward 7 unknown #
point $-1 4 0 6.4999999999999591 #
point $-1 4 0 6.5000000000000657 #
cone-surface $-1 -10.00000000000006 10 -35 -1 0 0 0 10 0 1 I I 0 1 10 forward I I I I #
coedge $-1 $616 $525 $530 $625 reversed $519 $-1 #
coedge $-1 $520 $623 $521 $615 forward $414 $-1 #
edge $-1 $619 -20.000000000000121 $532 0 $520 $687 forward 7 unknown #
edge $-1 $688 -20 $619 -10 $521 $633 forward 7 unknown #
coedge $-1 $621 $612 $522 $617 forward $519 $-1 #
edge $-1 $618 35 $688 45 $522 $458 forward 7 unknown #
vertex $-1 $617 $689 #
vertex $-1 $614 $690 #
ellipse-curve $-1 10.00000000000006 10 -35 -1 0 0 0 10 0 1 I I #
coedge $-1 $525 $616 $623 $691 reversed $519 $-1 #
vertex $-1 $691 $692 #
coedge $-1 $613 $527 $621 $691 forward $414 $-1 #
straight-curve $-1 -10.00000000000006 0 -45 0 1 0 I I #
edge $-1 $618 -20.000000000000121 $533 0 $612 $693 forward 7 unknown #
point $-1 -10.00000000000006 10 -45 #
point $-1 -10.00000000000006 20 -35 #
edge $-1 $546 35 $634 45 $537 $448 forward 7 unknown #
ellipse-curve $-1 -10.00000000000006 -10 -35 1 0 0 0 0 -10 1 I I #
coedge $-1 $545 $544 $539 $631 reversed $535 $-1 #
edge $-1 $632 -10.00000000000006 $634 10.00000000000006 $630 $694 forward 7 unknown #
vertex $-1 $548 $695 #
straight-curve $-1 10.00000000000006 0 -45 0 -1 0 I I #
vertex $-1 $541 $696 #
point $-1 -10.00000000000006 -10 -45 #
point $-1 -10.00000000000006 -20 -35 #
straight-curve $-1 -10.00000000000006 -10 45 -1 0 0 I I #
point $-1 -10.00000000000006 -10 45 #
coedge $-1 $697 $566 $589 $658 reversed $464 $-1 #
coedge $-1 $566 $697 $567 $642 forward $464 $-1 #
coedge $-1 $568 $567 $698 $699 forward $353 $-1 #
edge $-1 $700 0 $643 20 $640 $701 forward 7 unknown #
vertex $-1 $642 $702 #
ellipse-curve $-1 10 10 10 -1 0 0 0 3.5355339059327373 3.5355339059327373 1 I I #
coedge $-1 $698 $575 $571 $646 reversed $481 $-1 #
edge $-1 $647 -10 $577 10 $571 $703 forward 7 unknown #
vertex $-1 $699 $704 #
straight-curve $-1 -10 10 15 1 0 0 I I #
point $-1 10 10 15 #
ellipse-curve $-1 -10 -10 10 1 0 0 0 -3.5355339059327373 3.5355339059327373 1 I I #
point $-1 -10 -10 15 #
coedge $-1 $582 $698 $697 $705 reversed $481 $-1 #
coedge $-1 $589 $583 $582 $654 forward $564 $-1 #
edge $-1 $585 -0.78539816339744828 $706 0.78539816339744828 $653 $707 forward 7 unknown #
straight-curve $-1 -10 10 -15 1 0 0 I I #
point $-1 -10 10 -15 #
straight-curve $-1 10 15 0 0 0 -1 I I #
edge $-1 $706 0 $590 20 $589 $708 forward 7 unknown #
point $-1 10 15 -10 #
model_id-kcp-attrib $-1 $-1 $594 $496 1 990549434 60 2000420865 10 #
model_id-kcp-attrib $-1 $-1 $-1 $595 1 990549434 60 2000420865 11 #
face $709 $710 $711 $10 $-1 $712 reversed single #
loop $-1 $-1 $713 $595 #
cone-surface $-1 0 -10 35 1 0 0 0 -7.0710678118654746 7.0710678118654746 1 I I 0 1 10 forward I I I I #
loop $-1 $-1 $670 $496 #
coedge $-1 $714 $715 $716 $717 forward $596 $-1 #
coedge $-1 $718 $598 $719 $720 forward $497 $-1 #
coedge $-1 $598 $718 $606 $681 forward $497 $-1 #
coedge $-1 $600 $599 $721 $722 forward $380 $-1 #
coedge $-1 $723 $719 $600 $671 reversed $665 $-1 #
edge $724 $725 -0.78539816339744828 $673 0.78539816339744828 $670 $726 forward 7 unknown #
attrib_edge_convexity-kcp-attrib $-1 $727 $-1 $601 3 #
vertex $-1 $671 $728 #
vertex $-1 $681 $729 #
straight-curve $-1 0 10 45 1 0 0 F -41 F 41 #
coedge $-1 $730 $605 $731 $732 forward $507 $-1 #
coedge $-1 $605 $733 $734 $735 forward $507 $-1 #
coedge $-1 $736 $737 $605 $679 reversed $738 $-1 #
edge $-1 $739 -10 $740 10 $605 $741 forward 7 unknown #
coedge $-1 $742 $606 $743 $744 reversed $389 $-1 #
edge $745 $746 -10 $674 10 $606 $747 forward 7 unknown #
coedge $-1 $607 $748 $749 $750 reversed $389 $-1 #
coedge $-1 $751 $721 $607 $684 forward $752 $-1 #
edge $753 $685 -35 $754 35 $607 $755 forward 7 unknown #
vertex $-1 $722 $756 #
ellipse-curve $-1 10 10 35 -1 0 0 0 7.0710678118654746 7.0710678118654746 1 I I #
straight-curve $-1 -10.00000000000006 10 -45 -1 0 0 I I #
vertex $-1 $615 $757 #
point $-1 10.00000000000006 20 -35 #
point $-1 10.00000000000006 10 -45 #
edge $-1 $622 -10.00000000000006 $688 10.00000000000006 $621 $758 forward 7 unknown #
point $-1 -10.00000000000006 20 -45 #
straight-curve $-1 -10.00000000000006 20 -35 -1 0 0 I I #
straight-curve $-1 0 -20 -45 -1 0 0 I I #
point $-1 10.00000000000006 -20 -45 #
point $-1 -10.00000000000006 -20 -45 #
coedge $-1 $640 $639 $652 $705 forward $464 $-1 #
coedge $-1 $652 $645 $641 $699 reversed $481 $-1 #
edge $-1 $700 -0.78539816339744828 $647 0.78539816339744828 $641 $759 forward 7 unknown #
vertex $-1 $705 $760 #
straight-curve $-1 -10 15 10 1 0 0 I I #
point $-1 10 15 10 #
straight-curve $-1 -10 0 15 0 -1 0 I I #
point $-1 -10 10 15 #
edge $-1 $706 -10 $700 10 $697 $761 forward 7 unknown #
vertex $-1 $654 $762 #
ellipse-curve $-1 -10 10 -10 1 0 0 0 3.5355339059327373 -3.5355339059327373 1 I I #
straight-curve $-1 -10 15 -10 1 0 0 I I #
model_id-kcp-attrib $-1 $-1 $-1 $662 1 990549434 60 2000420865 12 #
face $763 $764 $765 $10 $-1 $766 forward single #
loop $-1 $-1 $767 $662 #
plane-surface $-1 0 -20 0 0 1 0 0 0 1 forward_v I I I I #
coedge $-1 $768 $743 $718 $769 forward $663 $-1 #
coedge $-1 $770 $666 $771 $772 forward $596 $-1 #
coedge $-1 $666 $773 $774 $775 forward $596 $-1 #
coedge $-1 $737 $736 $666 $717 reversed $738 $-1 #
edge $776 $777 -10 $778 10 $666 $779 forward 7 unknown #
coedge $-1 $668 $667 $713 $769 reversed $497 $-1 #
coedge $-1 $670 $780 $667 $720 reversed $665 $-1 #
edge $781 $673 -10 $782 10 $719 $783 forward 7 unknown #
coedge $-1 $683 $784 $669 $722 reversed $752 $-1 #
edge $-1 $685 -10 $725 10 $721 $785 forward 7 unknown #
coedge $-1 $786 $670 $784 $787 forward $665 $-1 #
attrib_edge_convexity-kcp-attrib $-1 $788 $-1 $671 1 #
vertex $-1 $671 $789 #
ellipse-curve $-1 -10 10 35 1 0 0 0 7.0710678118654746 7.0710678118654746 1 I I #
convexity-sys-attrib $-1 $-1 $672 $601 #
point $-1 -10 10 45 #
point $-1 10 10 45 #
coedge $-1 $790 $676 $791 $792 forward $507 $-1 #
coedge $-1 $793 $794 $676 $732 reversed $795 $-1 #
edge $-1 $740 -0.78539816339744828 $796 0.78539816339744828 $676 $797 forward 7 unknown #
coedge $-1 $677 $798 $799 $800 forward $507 $-1 #
coedge $-1 $801 $802 $677 $735 reversed $803 $-1 #
edge $-1 $804 -0.78539816339744828 $739 0.78539816339744828 $677 $805 forward 7 unknown #
coedge $-1 $716 $678 $802 $806 reversed $738 $-1 #
coedge $-1 $678 $716 $793 $807 reversed $738 $-1 #
loop $-1 $-1 $736 $808 #
vertex $-1 $679 $809 #
vertex $-1 $679 $810 #
straight-curve $-1 10 0 -15 0 -1 0 I I #
coedge $-1 $811 $680 $812 $813 forward $389 $-1 #
coedge $-1 $713 $814 $680 $744 forward $663 $-1 #
edge $-1 $815 -0.78539816339744828 $746 0.78539816339744828 $680 $816 forward 7 unknown #
model_id-kcp-attrib $-1 $817 $-1 $681 1 990549434 60 2000420865 29 #
vertex $-1 $769 $818 #
straight-curve $-1 10 0 45 0 1 0 I I #
coedge $-1 $682 $811 $819 $820 reversed $389 $-1 #
coedge $-1 $821 $822 $682 $750 forward $765 $-1 #
edge $-1 $754 -0.78539816339744828 $823 0.78539816339744828 $682 $824 forward 7 unknown #
coedge $-1 $784 $683 $822 $825 reversed $752 $-1 #
loop $-1 $-1 $721 $764 #
model_id-kcp-attrib $-1 $-1 $-1 $684 1 990549434 60 2000420865 30 #
vertex $-1 $684 $826 #
straight-curve $-1 10 20 0 0 0 -1 I I #
point $-1 10 20 35 #
point $-1 10.00000000000006 20 -45 #
straight-curve $-1 0 20 -45 1 0 0 I I #
ellipse-curve $-1 -10 10 10 1 0 0 0 3.5355339059327373 3.5355339059327373 1 I I #
point $-1 -10 15 10 #
straight-curve $-1 -10 15 0 0 0 1 I I #
point $-1 -10 15 -10 #
model_id-kcp-attrib $-1 $-1 $-1 $710 1 990549434 60 2000420865 13 #
face $827 $828 $752 $10 $-1 $829 reversed single #
loop $-1 $-1 $821 $710 #
cone-surface $-1 0 10 -35 1 0 0 0 7.0710678118654746 -7.0710678118654746 1 I I 0 1 10 forward I I I I #
coedge $-1 $830 $812 $814 $831 reversed $711 $-1 #
coedge $-1 $814 $713 $780 $832 forward $663 $-1 #
edge $833 $746 -10 $782 10 $718 $834 forward 7 unknown #
coedge $-1 $835 $714 $836 $837 forward $596 $-1 #
coedge $-1 $802 $801 $714 $772 reversed $803 $-1 #
edge $838 $778 -0.78539816339744828 $839 0.78539816339744828 $714 $840 forward 7 unknown #
coedge $-1 $715 $841 $842 $843 forward $596 $-1 #
coedge $-1 $794 $793 $715 $775 reversed $795 $-1 #
edge $844 $845 -0.78539816339744828 $777 0.78539816339744828 $715 $846 forward 7 unknown #
attrib_edge_convexity-kcp-attrib $-1 $847 $-1 $717 1 #
vertex $-1 $717 $848 #
vertex $-1 $717 $849 #
straight-curve $-1 -10 0 -15 0 1 0 I I #
coedge $-1 $719 $850 $768 $832 reversed $665 $-1 #
attrib_edge_convexity-kcp-attrib $-1 $851 $-1 $720 1 #
vertex $-1 $720 $852 #
straight-curve $-1 -10 0 45 0 -1 0 I I #
coedge $-1 $721 $751 $723 $787 reversed $752 $-1 #
straight-curve $-1 0 20 35 -1 0 0 F -41 F 41 #
coedge $-1 $853 $723 $854 $855 reversed $665 $-1 #
edge $856 $725 -35 $857 35 $784 $858 forward 7 unknown #
convexity-sys-attrib $-1 $-1 $724 $671 #
point $-1 -10 20 35 #
coedge $-1 $859 $730 $860 $861 forward $507 $-1 #
coedge $-1 $862 $863 $730 $792 reversed $864 $-1 #
edge $-1 $796 -10 $865 10 $730 $866 forward 7 unknown #
coedge $-1 $774 $731 $737 $807 forward $795 $-1 #
coedge $-1 $731 $774 $862 $867 forward $795 $-1 #
loop $-1 $-1 $794 $868 #
vertex $-1 $792 $869 #
ellipse-curve $-1 10 -10 -10 -1 0 0 0 -3.5355339059327373 -3.5355339059327373 1 I I #
coedge $-1 $733 $859 $870 $871 forward $507 $-1 #
coedge $-1 $872 $873 $733 $800 reversed $874 $-1 #
edge $-1 $875 -10 $804 10 $733 $876 forward 7 unknown #
coedge $-1 $771 $734 $873 $877 forward $803 $-1 #
coedge $-1 $734 $771 $736 $806 forward $803 $-1 #
loop $-1 $-1 $801 $878 #
vertex $-1 $800 $879 #
ellipse-curve $-1 10 10 -10 -1 0 0 0 3.5355339059327373 -3.5355339059327373 1 I I #
edge $-1 $778 -10 $739 10 $736 $880 forward 7 unknown #
edge $-1 $740 -10 $777 10 $737 $881 forward 7 unknown #
face $882 $868 $738 $10 $-1 $883 forward single #
point $-1 10 10 -15 #
point $-1 10 -10 -15 #
coedge $-1 $748 $742 $884 $885 reversed $389 $-1 #
coedge $-1 $767 $886 $742 $813 reversed $711 $-1 #
edge $887 $815 -35 $888 35 $742 $889 forward 7 unknown #
coedge $-1 $743 $768 $767 $831 forward $663 $-1 #
vertex $-1 $831 $890 #
ellipse-curve $-1 10 -10 35 -1 0 0 0 -7.0710678118654746 7.0710678118654746 1 I I #
attrib_edge_convexity-kcp-attrib $-1 $891 $745 $681 1 #
point $-1 10 -10 45 #
coedge $-1 $892 $893 $748 $820 forward $894 $-1 #
edge $895 $823 -10 $896 10 $748 $897 forward 7 unknown #
coedge $-1 $854 $749 $893 $898 forward $765 $-1 #
coedge $-1 $749 $854 $751 $825 forward $765 $-1 #
vertex $-1 $898 $899 #
ellipse-curve $-1 10 10 -35 -1 0 0 0 7.0710678118654746 -7.0710678118654746 1 I I #
edge $-1 $857 -10 $754 10 $751 $900 forward 7 unknown #
point $-1 10 20 -35 #
model_id-kcp-attrib $-1 $-1 $-1 $764 1 990549434 60 2000420865 14 #
face $901 $902 $903 $10 $-1 $904 forward single #
plane-surface $-1 0 20 0 0 -1 0 0 0 -1 forward_v I I I I #
coedge $-1 $886 $767 $850 $905 forward $711 $-1 #
edge $906 $907 -10 $815 10 $767 $908 forward 7 unknown #
edge $909 $782 -0.78539816339744828 $907 0.78539816339744828 $780 $910 forward 7 unknown #
attrib_edge_convexity-kcp-attrib $-1 $911 $-1 $769 3 #
straight-curve $-1 0 -10 45 -1 0 0 F -41 F 41 #
coedge $-1 $912 $770 $913 $914 forward $596 $-1 #
coedge $-1 $873 $872 $770 $837 reversed $874 $-1 #
edge $915 $839 -10 $916 10 $770 $917 forward 7 unknown #
attrib_edge_convexity-kcp-attrib $-1 $918 $-1 $772 1 #
vertex $-1 $837 $919 #
ellipse-curve $-1 -10 10 -10 1 0 0 0 3.5355339059327373 -3.5355339059327373 1 I I #
coedge $-1 $773 $912 $920 $921 forward $596 $-1 #
coedge $-1 $863 $862 $773 $843 reversed $864 $-1 #
edge $922 $923 -10 $845 10 $773 $924 forward 7 unknown #
attrib_edge_convexity-kcp-attrib $-1 $925 $-1 $775 1 #
vertex $-1 $843 $926 #
ellipse-curve $-1 -10 -10 -10 1 0 0 0 -3.5355339059327373 -3.5355339059327373 1 I I #
convexity-sys-attrib $-1 $-1 $776 $717 #
point $-1 -10 -10 -15 #
point $-1 -10 10 -15 #
coedge $-1 $780 $927 $830 $905 reversed $665 $-1 #
convexity-sys-attrib $-1 $-1 $781 $720 #
point $-1 -10 -10 45 #
coedge $-1 $927 $786 $928 $929 reversed $665 $-1 #
coedge $-1 $822 $821 $786 $855 forward $765 $-1 #
edge $930 $931 -0.78539816339744828 $857 0.78539816339744828 $786 $932 forward 7 unknown #
attrib_edge_convexity-kcp-attrib $-1 $933 $-1 $787 1 #
vertex $-1 $787 $934 #
straight-curve $-1 -10 20 0 0 0 -1 I I #
coedge $-1 $798 $790 $935 $936 forward $507 $-1 #
coedge $-1 $937 $938 $790 $861 reversed $939 $-1 #
edge $-1 $865 -0.78539816339744828 $940 0.78539816339744828 $790 $941 forward 7 unknown #
coedge $-1 $842 $791 $794 $867 reversed $864 $-1 #
coedge $-1 $791 $842 $937 $942 reversed $864 $-1 #
loop $-1 $-1 $862 $943 #
vertex $-1 $792 $944 #
straight-curve $-1 10 -15 0 0 0 1 I I #
edge $-1 $845 -10 $796 10 $862 $945 forward 7 unknown #
face $946 $947 $795 $10 $-1 $948 forward single #
point $-1 10 -15 -10 #
coedge $-1 $949 $950 $798 $871 reversed $951 $-1 #
edge $-1 $952 -0.78539816339744828 $875 0.78539816339744828 $798 $953 forward 7 unknown #
coedge $-1 $836 $799 $950 $954 reversed $874 $-1 #
coedge $-1 $799 $836 $801 $877 reversed $874 $-1 #
loop $-1 $-1 $872 $955 #
vertex $-1 $800 $956 #
straight-curve $-1 10 15 0 0 0 -1 I I #
edge $-1 $804 -10 $839 10 $873 $957 forward 7 unknown #
face $958 $808 $803 $10 $-1 $959 forward single #
point $-1 10 15 -10 #
straight-curve $-1 0 10 -15 1 0 0 F -25.5 F 25.5 #
straight-curve $-1 0 -10 -15 -1 0 0 F -25.5 F 25.5 #
model_id-kcp-attrib $-1 $-1 $-1 $808 1 990549434 60 2000420865 19 #
plane-surface $-1 0 0 -15 0 0 1 1 0 0 forward_v I I I I #
coedge $-1 $960 $961 $811 $885 forward $903 $-1 #
edge $-1 $896 -0.78539816339744828 $888 0.78539816339744828 $811 $962 forward 7 unknown #
coedge $-1 $812 $830 $960 $963 reversed $711 $-1 #
model_id-kcp-attrib $-1 $964 $-1 $813 1 990549434 60 2000420865 28 #
vertex $-1 $813 $965 #
straight-curve $-1 10 -20 0 0 0 -1 I I #
point $-1 10 -20 35 #
convexity-sys-attrib $-1 $-1 $817 $681 #
coedge $-1 $928 $819 $961 $966 reversed $894 $-1 #
coedge $-1 $819 $928 $821 $898 reversed $894 $-1 #
loop $-1 $-1 $893 $967 #
model_id-kcp-attrib $-1 $-1 $-1 $820 1 990549434 60 2000420865 31 #
vertex $-1 $820 $968 #
straight-curve $-1 10 0 -45 0 -1 0 I I #
edge $-1 $823 -10 $931 10 $893 $969 forward 7 unknown #
point $-1 10 10 -45 #
straight-curve $-1 0 20 -35 1 0 0 F -41 F 41 #
model_id-kcp-attrib $-1 $-1 $-1 $828 1 990549434 60 2000420865 15 #
face $970 $971 $951 $10 $-1 $972 forward single #
loop $-1 $-1 $961 $828 #
cone-surface $-1 0 -10 -35 -1 0 0 0 -7.0710678118654746 -7.0710678118654746 1 I I 0 1 10 forward I I I I #
edge $973 $907 -35 $974 35 $850 $975 forward 7 unknown #
attrib_edge_convexity-kcp-attrib $-1 $976 $-1 $831 3 #
vertex $-1 $832 $977 #
straight-curve $-1 0 -20 35 1 0 0 F -41 F 41 #
attrib_edge_convexity-kcp-attrib $-1 $978 $-1 $832 1 #
ellipse-curve $-1 -10 -10 35 1 0 0 0 -7.0710678118654746 7.0710678118654746 1 I I #
convexity-sys-attrib $-1 $-1 $833 $769 #
coedge $-1 $841 $835 $979 $980 forward $596 $-1 #
coedge $-1 $950 $949 $835 $914 reversed $951 $-1 #
edge $981 $916 -0.78539816339744828 $982 0.78539816339744828 $835 $983 forward 7 unknown #
attrib_edge_convexity-kcp-attrib $-1 $984 $-1 $837 1 #
vertex $-1 $837 $985 #
straight-curve $-1 -10 15 0 0 0 1 I I #
convexity-sys-attrib $-1 $-1 $838 $772 #
point $-1 -10 15 -10 #
coedge $-1 $938 $937 $841 $921 reversed $939 $-1 #
edge $986 $987 -0.78539816339744828 $923 0.78539816339744828 $841 $988 forward 7 unknown #
attrib_edge_convexity-kcp-attrib $-1 $989 $-1 $843 1 #
vertex $-1 $843 $990 #
straight-curve $-1 -10 -15 0 0 0 -1 I I #
convexity-sys-attrib $-1 $-1 $844 $775 #
point $-1 -10 -15 -10 #
coedge $-1 $850 $853 $991 $992 reversed $665 $-1 #
coedge $-1 $893 $892 $853 $929 forward $894 $-1 #
edge $993 $994 -10 $931 10 $853 $995 forward 7 unknown #
attrib_edge_convexity-kcp-attrib $-1 $996 $-1 $855 1 #
vertex $-1 $929 $997 #
ellipse-curve $-1 -10 10 -35 1 0 0 0 7.0710678118654746 -7.0710678118654746 1 I I #
convexity-sys-attrib $-1 $-1 $856 $787 #
point $-1 -10 20 -35 #
coedge $-1 $998 $999 $859 $936 reversed $1000 $-1 #
edge $-1 $940 -10 $952 10 $859 $1001 forward 7 unknown #
coedge $-1 $920 $860 $863 $942 forward $939 $-1 #
coedge $-1 $860 $920 $998 $1002 forward $939 $-1 #
loop $-1 $-1 $937 $947 #
vertex $-1 $936 $1003 #
ellipse-curve $-1 10 -10 10 -1 0 0 0 -3.5355339059327373 3.5355339059327373 1 I I #
edge $-1 $865 -10 $923 10 $863 $1004 forward 7 unknown #
face $1005 $955 $864 $10 $-1 $1006 forward single #
point $-1 10 -15 10 #
straight-curve $-1 0 -15 -10 1 0 0 F -25.5 F 25.5 #
model_id-kcp-attrib $-1 $-1 $-1 $868 1 990549434 60 2000420865 20 #
face $1007 $943 $939 $10 $-1 $1008 forward single #
cone-surface $-1 0 -10 -10 -1 0 0 0 -3.5355339059327373 -3.5355339059327373 1 I I 0 -1 5 forward I I I I #
coedge $-1 $913 $870 $999 $1009 forward $951 $-1 #
coedge $-1 $870 $913 $872 $954 forward $951 $-1 #
loop $-1 $-1 $950 $902 #
vertex $-1 $936 $1010 #
ellipse-curve $-1 10 10 10 -1 0 0 0 3.5355339059327373 3.5355339059327373 1 I I #
edge $-1 $916 -10 $875 10 $872 $1011 forward 7 unknown #
face $1012 $967 $874 $10 $-1 $1013 forward single #
point $-1 10 15 10 #
straight-curve $-1 0 15 -10 -1 0 0 F -25.5 F 25.5 #
model_id-kcp-attrib $-1 $-1 $-1 $878 1 990549434 60 2000420865 18 #
cone-surface $-1 0 10 -10 1 0 0 0 3.5355339059327373 -3.5355339059327373 1 I I 0 -1 5 forward I I I I #
coedge $-1 $991 $884 $886 $963 forward $903 $-1 #
coedge $-1 $884 $991 $892 $966 forward $903 $-1 #
ellipse-curve $-1 10 -10 -35 -1 0 0 0 -7.0710678118654746 -7.0710678118654746 1 I I #
edge $1014 $888 -10 $974 10 $886 $1015 forward 7 unknown #
attrib_edge_convexity-kcp-attrib $-1 $1016 $887 $813 1 #
point $-1 10 -20 -35 #
edge $-1 $994 -10 $896 10 $892 $1017 forward 7 unknown #
face $1018 $268 $894 $10 $-1 $1019 reversed single #
point $-1 10 -10 -45 #
straight-curve $-1 0 10 -45 -1 0 0 F -41 F 41 #
model_id-kcp-attrib $-1 $-1 $-1 $902 1 990549434 60 2000420865 16 #
face $1020 $878 $1000 $10 $-1 $1021 reversed single #
cone-surface $-1 0 10 10 -1 0 0 0 3.5355339059327373 3.5355339059327373 1 I I 0 -1 5 forward I I I I #
attrib_edge_convexity-kcp-attrib $-1 $1022 $-1 $905 1 #
vertex $-1 $905 $1023 #
straight-curve $-1 -10 -20 0 0 0 -1 I I #
convexity-sys-attrib $-1 $-1 $906 $831 #
point $-1 -10 -20 35 #
convexity-sys-attrib $-1 $-1 $909 $832 #
coedge $-1 $999 $998 $912 $980 reversed $1000 $-1 #
edge $1024 $982 -10 $987 10 $912 $1025 forward 7 unknown #
attrib_edge_convexity-kcp-attrib $-1 $1026 $-1 $914 1 #
vertex $-1 $980 $1027 #
ellipse-curve $-1 -10 10 10 1 0 0 0 3.5355339059327373 3.5355339059327373 1 I I #
convexity-sys-attrib $-1 $-1 $915 $837 #
point $-1 -10 15 10 #
attrib_edge_convexity-kcp-attrib $-1 $1028 $-1 $921 1 #
vertex $-1 $980 $1029 #
ellipse-curve $-1 -10 -10 10 1 0 0 0 -3.5355339059327373 3.5355339059327373 1 I I #
convexity-sys-attrib $-1 $-1 $922 $843 #
point $-1 -10 -15 10 #
coedge $-1 $961 $960 $927 $992 forward $903 $-1 #
edge $1030 $974 -0.78539816339744828 $994 0.78539816339744828 $927 $1031 forward 7 unknown #
attrib_edge_convexity-kcp-attrib $-1 $1032 $-1 $929 1 #
vertex $-1 $992 $1033 #
straight-curve $-1 -10 0 -45 0 1 0 I I #
convexity-sys-attrib $-1 $-1 $930 $855 #
point $-1 -10 10 -45 #
coedge $-1 $979 $935 $938 $1002 reversed $1000 $-1 #
coedge $-1 $935 $979 $949 $1009 reversed $1000 $-1 #
loop $-1 $-1 $999 $971 #
straight-curve $-1 10 0 15 0 1 0 I I #
edge $-1 $987 -10 $940 10 $998 $1034 forward 7 unknown #
point $-1 10 -10 15 #
straight-curve $-1 0 -15 10 -1 0 0 F -25.5 F 25.5 #
model_id-kcp-attrib $-1 $-1 $-1 $943 1 990549434 60 2000420865 22 #
plane-surface $-1 0 -15 0 0 1 0 0 0 1 forward_v I I I I #
model_id-kcp-attrib $-1 $-1 $-1 $947 1 990549434 60 2000420865 21 #
cone-surface $-1 0 -10 10 1 0 0 0 -3.5355339059327373 3.5355339059327373 1 I I 0 -1 5 forward I I I I #
edge $-1 $952 -10 $982 10 $999 $1035 forward 7 unknown #
point $-1 10 10 15 #
straight-curve $-1 0 15 10 1 0 0 F -25.5 F 25.5 #
model_id-kcp-attrib $-1 $-1 $-1 $955 1 990549434 60 2000420865 23 #
plane-surface $-1 0 15 0 0 -1 0 0 0 -1 forward_v I I I I #
attrib_edge_convexity-kcp-attrib $-1 $1036 $-1 $963 3 #
straight-curve $-1 0 -20 -35 -1 0 0 F -41 F 41 #
convexity-sys-attrib $-1 $-1 $964 $813 #
straight-curve $-1 0 -10 -45 1 0 0 F -41 F 41 #
model_id-kcp-attrib $-1 $-1 $-1 $967 1 990549434 60 2000420865 24 #
plane-surface $-1 0 0 -45 0 0 1 1 0 0 forward_v I I I I #
model_id-kcp-attrib $-1 $-1 $-1 $971 1 990549434 60 2000420865 17 #
plane-surface $-1 0 0 15 0 0 1 1 0 0 forward_v I I I I #
convexity-sys-attrib $-1 $-1 $973 $905 #
point $-1 -10 -20 -35 #
attrib_edge_convexity-kcp-attrib $-1 $1037 $-1 $980 1 #
straight-curve $-1 -10 0 15 0 -1 0 I I #
convexity-sys-attrib $-1 $-1 $981 $914 #
point $-1 -10 10 15 #
convexity-sys-attrib $-1 $-1 $986 $921 #
point $-1 -10 -10 15 #
attrib_edge_convexity-kcp-attrib $-1 $1038 $-1 $992 1 #
ellipse-curve $-1 -10 -10 -35 1 0 0 0 -7.0710678118654746 -7.0710678118654746 1 I I #
convexity-sys-attrib $-1 $-1 $993 $929 #
point $-1 -10 -10 -45 #
straight-curve $-1 0 -10 15 1 0 0 F -25.5 F 25.5 #
straight-curve $-1 0 10 15 -1 0 0 F -25.5 F 25.5 #
convexity-sys-attrib $-1 $-1 $1014 $963 #
convexity-sys-attrib $-1 $-1 $1024 $980 #
convexity-sys-attrib $-1 $-1 $1030 $992 #
End-of-ACIS-data 