600 0 1 0           
89 GICL ACIS Healer - Source: /gicl/data5/repository/UMD/drill-trace4/drill-trace4.sat - 6 0 18 ACIS 6.0.3 Solaris 24 Sun Apr 14 00:35:37 2002 
1 9.999999999999999547e-07 1.000000000000000036e-10 
body $-1 $1 $-1 $-1 #
lump $-1 $-1 $2 $0 #
shell $-1 $-1 $-1 $3 $-1 $1 #
face $-1 $4 $5 $2 $-1 $6 reversed single #
face $-1 $7 $8 $2 $-1 $9 reversed single #
loop $-1 $10 $11 $3 #
torus-surface $-1 -3 0 -29.99999999999995381 -1 0 3.491481338843133355e-15 2 2 3.491481338843133355e-15 0 1 forward_v I I I I #
face $-1 $12 $13 $2 $-1 $14 reversed single #
loop $-1 $15 $16 $4 #
cone-surface $-1 10 0 -30 1 0 -3.491481338843133355e-15 -1.396592535537253342e-14 0 -4 1 I I 0 1 4 forward I I I I #
loop $-1 $-1 $17 $3 #
coedge $-1 $11 $11 $18 $19 reversed $5 $-1 #
face $-1 $20 $21 $2 $-1 $22 reversed single #
loop $-1 $-1 $23 $7 #
plane-surface $-1 -5 0 -29.99999999999994671 -1 0 3.491481338843133355e-15 3.491481338843133355e-15 0 1 forward_v I I I I #
loop $-1 $-1 $18 $4 #
coedge $-1 $16 $16 $24 $25 reversed $8 $-1 #
coedge $-1 $17 $17 $23 $26 reversed $10 $-1 #
coedge $-1 $18 $18 $11 $19 forward $15 $-1 #
edge $-1 $27 -3.141592653589799777 $27 3.141592653589786455 $18 $28 forward 7 unknown #
face $-1 $29 $30 $2 $-1 $31 reversed single #
loop $-1 $32 $33 $12 #
torus-surface $-1 -3 0 30.00000000000004619 -1 0 3.491481338843133355e-15 2 2 3.491481338843133355e-15 0 1 forward_v I I I I #
coedge $-1 $23 $23 $17 $26 forward $13 $-1 #
coedge $-1 $24 $24 $16 $25 forward $34 $-1 #
edge $-1 $35 -3.141592653589799777 $35 3.141592653589786455 $24 $36 forward 7 unknown #
edge $-1 $37 -3.141592653589786455 $37 3.141592653589799777 $23 $38 forward 7 unknown #
vertex $-1 $19 $39 #
ellipse-curve $-1 -3 0 -29.99999999999995381 -1 0 3.491481338843133355e-15 1.396592535537253342e-14 -0 4 1 I I #
face $-1 $40 $41 $2 $-1 $42 reversed single #
loop $-1 $43 $44 $20 #
cone-surface $-1 10 0 30 1 0 -3.491481338843133355e-15 -1.396592535537253342e-14 0 -4 1 I I 0 1 4 forward I I I I #
loop $-1 $-1 $45 $12 #
coedge $-1 $33 $33 $46 $47 reversed $21 $-1 #
loop $-1 $48 $24 $49 #
vertex $-1 $25 $50 #
ellipse-curve $-1 9.999999999999895195 0 -30 -1 0 0 -1.396592535537253342e-14 0 -4 1 I I #
vertex $-1 $26 $51 #
ellipse-curve $-1 -5 0 -29.99999999999994671 1 0 -3.491481338843133355e-15 6.982962677686266711e-15 0 2 1 I I #
point $-1 -3.000000000000014211 2.793185071074506684e-14 -33.99999999999995737 #
face $-1 $52 $53 $2 $-1 $54 forward single #
loop $-1 $-1 $55 $29 #
plane-surface $-1 -5 0 30.00000000000005329 -1 0 3.491481338843133355e-15 3.491481338843133355e-15 0 1 forward_v I I I I #
loop $-1 $-1 $46 $20 #
coedge $-1 $44 $44 $56 $57 reversed $30 $-1 #
coedge $-1 $45 $45 $55 $58 reversed $32 $-1 #
coedge $-1 $46 $46 $33 $47 forward $43 $-1 #
edge $-1 $59 -3.141592653589799777 $59 3.141592653589786455 $46 $60 forward 7 unknown #
loop $-1 $61 $56 $49 #
face $-1 $-1 $34 $2 $-1 $62 reversed single #
point $-1 9.999999999999909406 -2.793185071074506684e-14 -26 #
point $-1 -5.000000000000007105 1.396592535537253342e-14 -31.99999999999994671 #
face $-1 $63 $64 $2 $-1 $65 forward single #
loop $-1 $-1 $66 $40 #
cone-surface $-1 0 10 35 -1 0 0 0 7.071067811865474617 7.071067811865474617 1 I I 0 1 10 forward I I I I #
coedge $-1 $55 $55 $45 $58 forward $41 $-1 #
coedge $-1 $56 $56 $44 $57 forward $48 $-1 #
edge $-1 $67 -3.141592653589799777 $67 3.141592653589786455 $56 $68 forward 7 unknown #
edge $-1 $69 -3.141592653589786455 $69 3.141592653589799777 $55 $70 forward 7 unknown #
vertex $-1 $47 $71 #
ellipse-curve $-1 -3 0 30.00000000000004619 -1 0 3.491481338843133355e-15 1.396592535537253342e-14 -0 4 1 I I #
loop $-1 $72 $73 $49 #
plane-surface $-1 10 0 0 -1 0 0 0 -0 1 forward_v I I I I #
face $-1 $74 $75 $2 $-1 $76 reversed single #
loop $-1 $-1 $77 $52 #
plane-surface $-1 0 0 45 0 0 1 1 0 0 forward_v I I I I #
coedge $-1 $78 $79 $77 $80 forward $53 $-1 #
vertex $-1 $57 $81 #
ellipse-curve $-1 10.00000000000010481 0 30 -1 0 0 -1.396592535537253342e-14 0 -4 1 I I #
vertex $-1 $58 $82 #
ellipse-curve $-1 -5 0 30.00000000000005329 1 0 -3.491481338843133355e-15 6.982962677686266711e-15 0 2 1 I I #
point $-1 -3.000000000000014211 2.793185071074506684e-14 26.00000000000004619 #
loop $-1 $-1 $83 $49 #
coedge $-1 $84 $85 $78 $86 reversed $61 $-1 #
face $-1 $87 $88 $2 $-1 $89 forward single #
loop $-1 $90 $91 $63 #
plane-surface $-1 -10 0 0 1 0 0 0 0 -1 forward_v I I I I #
coedge $-1 $92 $93 $66 $80 reversed $64 $-1 #
coedge $-1 $94 $66 $73 $86 forward $53 $-1 #
coedge $-1 $66 $94 $95 $96 forward $53 $-1 #
edge $-1 $97 -10 $98 10 $77 $99 forward 7 unknown #
point $-1 10.00000000000011902 -2.793185071074506684e-14 34 #
point $-1 -5.000000000000007105 1.396592535537253342e-14 28.00000000000005329 #
coedge $-1 $100 $101 $102 $103 forward $72 $-1 #
coedge $-1 $104 $73 $93 $105 reversed $61 $-1 #
coedge $-1 $73 $106 $107 $108 reversed $61 $-1 #
edge $-1 $98 -0.785398163397448279 $109 0.785398163397448279 $73 $110 forward 7 unknown #
face $-1 $111 $112 $2 $-1 $113 reversed single #
loop $-1 $-1 $114 $74 #
cone-surface $-1 0 -10 35 1 -0 0 0 -7.071067811865474617 7.071067811865474617 1 I I 0 1 10 forward I I I I #
loop $-1 $-1 $95 $63 #
coedge $-1 $115 $116 $117 $118 forward $75 $-1 #
coedge $-1 $119 $77 $120 $121 forward $64 $-1 #
coedge $-1 $77 $119 $84 $105 forward $64 $-1 #
coedge $-1 $79 $78 $122 $123 forward $53 $-1 #
coedge $-1 $124 $120 $79 $96 reversed $90 $-1 #
edge $-1 $125 -0.785398163397448279 $97 0.785398163397448279 $95 $126 forward 7 unknown #
vertex $-1 $96 $127 #
vertex $-1 $105 $128 #
straight-curve $-1 0 10 45 1 -0 -0 F -41 F 41 #
coedge $-1 $129 $83 $130 $131 forward $72 $-1 #
coedge $-1 $83 $132 $133 $134 forward $72 $-1 #
coedge $-1 $135 $136 $83 $103 reversed $137 $-1 #
edge $-1 $138 -10 $139 10 $83 $140 forward 7 unknown #
coedge $-1 $141 $84 $142 $143 reversed $61 $-1 #
edge $-1 $144 -10 $98 10 $84 $145 forward 7 unknown #
coedge $-1 $85 $146 $147 $148 reversed $61 $-1 #
coedge $-1 $149 $122 $85 $108 forward $150 $-1 #
edge $-1 $109 -35 $151 35 $85 $152 forward 7 unknown #
vertex $-1 $123 $153 #
ellipse-curve $-1 10 10 35 -1 0 0 0 7.071067811865474617 7.071067811865474617 1 I I #
face $-1 $154 $155 $2 $-1 $156 forward single #
loop $-1 $-1 $157 $87 #
plane-surface $-1 0 -20 0 0 1 -0 -0 0 1 forward_v I I I I #
coedge $-1 $158 $142 $119 $159 forward $88 $-1 #
coedge $-1 $160 $91 $161 $162 forward $75 $-1 #
coedge $-1 $91 $163 $164 $165 forward $75 $-1 #
coedge $-1 $136 $135 $91 $118 reversed $137 $-1 #
edge $-1 $166 -10 $167 10 $91 $168 forward 7 unknown #
coedge $-1 $93 $92 $114 $159 reversed $64 $-1 #
coedge $-1 $95 $169 $92 $121 reversed $90 $-1 #
edge $-1 $97 -10 $170 10 $120 $171 forward 7 unknown #
coedge $-1 $107 $172 $94 $123 reversed $150 $-1 #
edge $-1 $109 -10 $125 10 $122 $173 forward 7 unknown #
coedge $-1 $174 $95 $172 $175 forward $90 $-1 #
vertex $-1 $96 $176 #
ellipse-curve $-1 -10 10 35 1 0 0 0 7.071067811865474617 7.071067811865474617 1 I I #
point $-1 -10 10 45 #
point $-1 10 10 45 #
coedge $-1 $177 $100 $178 $179 forward $72 $-1 #
coedge $-1 $180 $181 $100 $131 reversed $182 $-1 #
edge $-1 $139 -0.785398163397448279 $183 0.785398163397448279 $100 $184 forward 7 unknown #
coedge $-1 $101 $185 $186 $187 forward $72 $-1 #
coedge $-1 $188 $189 $101 $134 reversed $190 $-1 #
edge $-1 $191 -0.785398163397448279 $138 0.785398163397448279 $101 $192 forward 7 unknown #
coedge $-1 $117 $102 $189 $193 reversed $137 $-1 #
coedge $-1 $102 $117 $180 $194 reversed $137 $-1 #
loop $-1 $-1 $135 $195 #
vertex $-1 $103 $196 #
vertex $-1 $103 $197 #
straight-curve $-1 10 0 -15 0 -1 0 I I #
coedge $-1 $198 $104 $199 $200 forward $61 $-1 #
coedge $-1 $114 $201 $104 $143 forward $88 $-1 #
edge $-1 $202 -0.785398163397448279 $144 0.785398163397448279 $104 $203 forward 7 unknown #
vertex $-1 $159 $204 #
straight-curve $-1 10 0 45 0 1 0 I I #
coedge $-1 $106 $198 $205 $206 reversed $61 $-1 #
coedge $-1 $207 $208 $106 $148 forward $155 $-1 #
edge $-1 $151 -0.785398163397448279 $209 0.785398163397448279 $106 $210 forward 7 unknown #
coedge $-1 $172 $107 $208 $211 reversed $150 $-1 #
loop $-1 $-1 $122 $154 #
vertex $-1 $108 $212 #
straight-curve $-1 10 20 0 0 0 -1 I I #
point $-1 10 20 35 #
face $-1 $213 $150 $2 $-1 $214 reversed single #
loop $-1 $-1 $207 $111 #
cone-surface $-1 0 10 -35 1 0 -0 0 7.071067811865474617 -7.071067811865474617 1 I I 0 1 10 forward I I I I #
coedge $-1 $215 $199 $201 $216 reversed $112 $-1 #
coedge $-1 $201 $114 $169 $217 forward $88 $-1 #
edge $-1 $144 -10 $170 10 $119 $218 forward 7 unknown #
coedge $-1 $219 $115 $220 $221 forward $75 $-1 #
coedge $-1 $189 $188 $115 $162 reversed $190 $-1 #
edge $-1 $167 -0.785398163397448279 $222 0.785398163397448279 $115 $223 forward 7 unknown #
coedge $-1 $116 $224 $225 $226 forward $75 $-1 #
coedge $-1 $181 $180 $116 $165 reversed $182 $-1 #
edge $-1 $227 -0.785398163397448279 $166 0.785398163397448279 $116 $228 forward 7 unknown #
vertex $-1 $118 $229 #
vertex $-1 $118 $230 #
straight-curve $-1 -10 0 -15 0 1 0 I I #
coedge $-1 $120 $231 $158 $217 reversed $90 $-1 #
vertex $-1 $121 $232 #
straight-curve $-1 -10 0 45 0 -1 0 I I #
coedge $-1 $122 $149 $124 $175 reversed $150 $-1 #
straight-curve $-1 0 20 35 -1 0 0 F -41 F 41 #
coedge $-1 $233 $124 $234 $235 reversed $90 $-1 #
edge $-1 $125 -35 $236 35 $172 $237 forward 7 unknown #
point $-1 -10 20 35 #
coedge $-1 $238 $129 $239 $240 forward $72 $-1 #
coedge $-1 $241 $242 $129 $179 reversed $243 $-1 #
edge $-1 $183 -10 $244 10 $129 $245 forward 7 unknown #
coedge $-1 $164 $130 $136 $194 forward $182 $-1 #
coedge $-1 $130 $164 $241 $246 forward $182 $-1 #
loop $-1 $-1 $181 $247 #
vertex $-1 $179 $248 #
ellipse-curve $-1 10 -10 -10 -1 0 0 0 -3.535533905932737309 -3.535533905932737309 1 I I #
coedge $-1 $132 $238 $249 $250 forward $72 $-1 #
coedge $-1 $251 $252 $132 $187 reversed $253 $-1 #
edge $-1 $254 -10 $191 10 $132 $255 forward 7 unknown #
coedge $-1 $161 $133 $252 $256 forward $190 $-1 #
coedge $-1 $133 $161 $135 $193 forward $190 $-1 #
loop $-1 $-1 $188 $257 #
vertex $-1 $187 $258 #
ellipse-curve $-1 10 10 -10 -1 0 0 0 3.535533905932737309 -3.535533905932737309 1 I I #
edge $-1 $167 -10 $138 10 $135 $259 forward 7 unknown #
edge $-1 $139 -10 $166 10 $136 $260 forward 7 unknown #
face $-1 $247 $137 $2 $-1 $261 forward single #
point $-1 10 10 -15 #
point $-1 10 -10 -15 #
coedge $-1 $146 $141 $262 $263 reversed $61 $-1 #
coedge $-1 $157 $264 $141 $200 reversed $112 $-1 #
edge $-1 $202 -35 $265 35 $141 $266 forward 7 unknown #
coedge $-1 $142 $158 $157 $216 forward $88 $-1 #
vertex $-1 $216 $267 #
ellipse-curve $-1 10 -10 35 -1 0 0 0 -7.071067811865474617 7.071067811865474617 1 I I #
point $-1 10 -10 45 #
coedge $-1 $268 $269 $146 $206 forward $270 $-1 #
edge $-1 $209 -10 $271 10 $146 $272 forward 7 unknown #
coedge $-1 $234 $147 $269 $273 forward $155 $-1 #
coedge $-1 $147 $234 $149 $211 forward $155 $-1 #
vertex $-1 $273 $274 #
ellipse-curve $-1 10 10 -35 -1 0 0 0 7.071067811865474617 -7.071067811865474617 1 I I #
edge $-1 $236 -10 $151 10 $149 $275 forward 7 unknown #
point $-1 10 20 -35 #
face $-1 $276 $277 $2 $-1 $278 forward single #
plane-surface $-1 0 20 0 0 -1 0 0 0 -1 forward_v I I I I #
coedge $-1 $264 $157 $231 $279 forward $112 $-1 #
edge $-1 $280 -10 $202 10 $157 $281 forward 7 unknown #
edge $-1 $170 -0.785398163397448279 $280 0.785398163397448279 $169 $282 forward 7 unknown #
straight-curve $-1 0 -10 45 -1 0 -0 F -41 F 41 #
coedge $-1 $283 $160 $284 $285 forward $75 $-1 #
coedge $-1 $252 $251 $160 $221 reversed $253 $-1 #
edge $-1 $222 -10 $286 10 $160 $287 forward 7 unknown #
vertex $-1 $221 $288 #
ellipse-curve $-1 -10 10 -10 1 0 0 0 3.535533905932737309 -3.535533905932737309 1 I I #
coedge $-1 $163 $283 $289 $290 forward $75 $-1 #
coedge $-1 $242 $241 $163 $226 reversed $243 $-1 #
edge $-1 $291 -10 $227 10 $163 $292 forward 7 unknown #
vertex $-1 $226 $293 #
ellipse-curve $-1 -10 -10 -10 1 0 0 0 -3.535533905932737309 -3.535533905932737309 1 I I #
point $-1 -10 -10 -15 #
point $-1 -10 10 -15 #
coedge $-1 $169 $294 $215 $279 reversed $90 $-1 #
point $-1 -10 -10 45 #
coedge $-1 $294 $174 $295 $296 reversed $90 $-1 #
coedge $-1 $208 $207 $174 $235 forward $155 $-1 #
edge $-1 $297 -0.785398163397448279 $236 0.785398163397448279 $174 $298 forward 7 unknown #
vertex $-1 $175 $299 #
straight-curve $-1 -10 20 0 0 0 -1 I I #
coedge $-1 $185 $177 $300 $301 forward $72 $-1 #
coedge $-1 $302 $303 $177 $240 reversed $304 $-1 #
edge $-1 $244 -0.785398163397448279 $305 0.785398163397448279 $177 $306 forward 7 unknown #
coedge $-1 $225 $178 $181 $246 reversed $243 $-1 #
coedge $-1 $178 $225 $302 $307 reversed $243 $-1 #
loop $-1 $-1 $241 $308 #
vertex $-1 $179 $309 #
straight-curve $-1 10 -15 0 0 0 1 I I #
edge $-1 $227 -10 $183 10 $241 $310 forward 7 unknown #
face $-1 $311 $182 $2 $-1 $312 forward single #
point $-1 10 -15 -10 #
coedge $-1 $313 $314 $185 $250 reversed $315 $-1 #
edge $-1 $316 -0.785398163397448279 $254 0.785398163397448279 $185 $317 forward 7 unknown #
coedge $-1 $220 $186 $314 $318 reversed $253 $-1 #
coedge $-1 $186 $220 $188 $256 reversed $253 $-1 #
loop $-1 $-1 $251 $319 #
vertex $-1 $187 $320 #
straight-curve $-1 10 15 0 -0 -0 -1 I I #
edge $-1 $191 -10 $222 10 $252 $321 forward 7 unknown #
face $-1 $195 $190 $2 $-1 $322 forward single #
point $-1 10 15 -10 #
straight-curve $-1 0 10 -15 1 -0 -0 F -25.5 F 25.5 #
straight-curve $-1 0 -10 -15 -1 0 -0 F -25.5 F 25.5 #
plane-surface $-1 0 0 -15 0 0 1 1 0 0 forward_v I I I I #
coedge $-1 $323 $324 $198 $263 forward $277 $-1 #
edge $-1 $271 -0.785398163397448279 $265 0.785398163397448279 $198 $325 forward 7 unknown #
coedge $-1 $199 $215 $323 $326 reversed $112 $-1 #
vertex $-1 $200 $327 #
straight-curve $-1 10 -20 0 0 0 -1 I I #
point $-1 10 -20 35 #
coedge $-1 $295 $205 $324 $328 reversed $270 $-1 #
coedge $-1 $205 $295 $207 $273 reversed $270 $-1 #
loop $-1 $-1 $269 $329 #
vertex $-1 $206 $330 #
straight-curve $-1 10 0 -45 0 -1 0 I I #
edge $-1 $209 -10 $297 10 $269 $331 forward 7 unknown #
point $-1 10 10 -45 #
straight-curve $-1 0 20 -35 1 0 0 F -41 F 41 #
face $-1 $332 $315 $2 $-1 $333 forward single #
loop $-1 $-1 $324 $213 #
cone-surface $-1 0 -10 -35 -1 0 0 0 -7.071067811865474617 -7.071067811865474617 1 I I 0 1 10 forward I I I I #
edge $-1 $280 -35 $334 35 $231 $335 forward 7 unknown #
vertex $-1 $217 $336 #
straight-curve $-1 0 -20 35 1 0 0 F -41 F 41 #
ellipse-curve $-1 -10 -10 35 1 0 0 0 -7.071067811865474617 7.071067811865474617 1 I I #
coedge $-1 $224 $219 $337 $338 forward $75 $-1 #
coedge $-1 $314 $313 $219 $285 reversed $315 $-1 #
edge $-1 $286 -0.785398163397448279 $339 0.785398163397448279 $219 $340 forward 7 unknown #
vertex $-1 $221 $341 #
straight-curve $-1 -10 15 0 -0 0 1 I I #
point $-1 -10 15 -10 #
coedge $-1 $303 $302 $224 $290 reversed $304 $-1 #
edge $-1 $342 -0.785398163397448279 $291 0.785398163397448279 $224 $343 forward 7 unknown #
vertex $-1 $226 $344 #
straight-curve $-1 -10 -15 0 0 -0 -1 I I #
point $-1 -10 -15 -10 #
coedge $-1 $231 $233 $345 $346 reversed $90 $-1 #
coedge $-1 $269 $268 $233 $296 forward $270 $-1 #
edge $-1 $347 -10 $297 10 $233 $348 forward 7 unknown #
vertex $-1 $296 $349 #
ellipse-curve $-1 -10 10 -35 1 0 0 0 7.071067811865474617 -7.071067811865474617 1 I I #
point $-1 -10 20 -35 #
coedge $-1 $350 $351 $238 $301 reversed $352 $-1 #
edge $-1 $305 -10 $316 10 $238 $353 forward 7 unknown #
coedge $-1 $289 $239 $242 $307 forward $304 $-1 #
coedge $-1 $239 $289 $350 $354 forward $304 $-1 #
loop $-1 $-1 $302 $311 #
vertex $-1 $301 $355 #
ellipse-curve $-1 10 -10 10 -1 0 0 0 -3.535533905932737309 3.535533905932737309 1 I I #
edge $-1 $244 -10 $291 10 $242 $356 forward 7 unknown #
face $-1 $319 $243 $2 $-1 $357 forward single #
point $-1 10 -15 10 #
straight-curve $-1 0 -15 -10 1 -0 -0 F -25.5 F 25.5 #
face $-1 $308 $304 $2 $-1 $358 forward single #
cone-surface $-1 0 -10 -10 -1 0 -0 0 -3.535533905932737309 -3.535533905932737309 1 I I 0 -1 5 forward I I I I #
coedge $-1 $284 $249 $351 $359 forward $315 $-1 #
coedge $-1 $249 $284 $251 $318 forward $315 $-1 #
loop $-1 $-1 $314 $276 #
vertex $-1 $301 $360 #
ellipse-curve $-1 10 10 10 -1 0 0 0 3.535533905932737309 3.535533905932737309 1 I I #
edge $-1 $286 -10 $254 10 $251 $361 forward 7 unknown #
face $-1 $329 $253 $2 $-1 $362 forward single #
point $-1 10 15 10 #
straight-curve $-1 0 15 -10 -1 -0 0 F -25.5 F 25.5 #
cone-surface $-1 0 10 -10 1 -0 -0 0 3.535533905932737309 -3.535533905932737309 1 I I 0 -1 5 forward I I I I #
coedge $-1 $345 $262 $264 $326 forward $277 $-1 #
coedge $-1 $262 $345 $268 $328 forward $277 $-1 #
ellipse-curve $-1 10 -10 -35 -1 0 0 0 -7.071067811865474617 -7.071067811865474617 1 I I #
edge $-1 $265 -10 $334 10 $264 $363 forward 7 unknown #
point $-1 10 -20 -35 #
edge $-1 $347 -10 $271 10 $268 $364 forward 7 unknown #
face $-1 $49 $270 $2 $-1 $365 reversed single #
point $-1 10 -10 -45 #
straight-curve $-1 0 10 -45 -1 -0 -0 F -41 F 41 #
face $-1 $257 $352 $2 $-1 $366 reversed single #
cone-surface $-1 0 10 10 -1 -0 0 0 3.535533905932737309 3.535533905932737309 1 I I 0 -1 5 forward I I I I #
vertex $-1 $279 $367 #
straight-curve $-1 -10 -20 0 0 0 -1 I I #
point $-1 -10 -20 35 #
coedge $-1 $351 $350 $283 $338 reversed $352 $-1 #
edge $-1 $339 -10 $342 10 $283 $368 forward 7 unknown #
vertex $-1 $338 $369 #
ellipse-curve $-1 -10 10 10 1 0 0 0 3.535533905932737309 3.535533905932737309 1 I I #
point $-1 -10 15 10 #
vertex $-1 $338 $370 #
ellipse-curve $-1 -10 -10 10 1 0 0 0 -3.535533905932737309 3.535533905932737309 1 I I #
point $-1 -10 -15 10 #
coedge $-1 $324 $323 $294 $346 forward $277 $-1 #
edge $-1 $334 -0.785398163397448279 $347 0.785398163397448279 $294 $371 forward 7 unknown #
vertex $-1 $346 $372 #
straight-curve $-1 -10 0 -45 0 1 0 I I #
point $-1 -10 10 -45 #
coedge $-1 $337 $300 $303 $354 reversed $352 $-1 #
coedge $-1 $300 $337 $313 $359 reversed $352 $-1 #
loop $-1 $-1 $351 $332 #
straight-curve $-1 10 0 15 0 1 -0 I I #
edge $-1 $342 -10 $305 10 $350 $373 forward 7 unknown #
point $-1 10 -10 15 #
straight-curve $-1 0 -15 10 -1 0 -0 F -25.5 F 25.5 #
plane-surface $-1 0 -15 0 0 1 -0 -0 0 1 forward_v I I I I #
cone-surface $-1 0 -10 10 1 -0 -0 0 -3.535533905932737309 3.535533905932737309 1 I I 0 -1 5 forward I I I I #
edge $-1 $316 -10 $339 10 $351 $374 forward 7 unknown #
point $-1 10 10 15 #
straight-curve $-1 0 15 10 1 -0 -0 F -25.5 F 25.5 #
plane-surface $-1 0 15 0 0 -1 0 0 0 -1 forward_v I I I I #
straight-curve $-1 0 -20 -35 -1 0 0 F -41 F 41 #
straight-curve $-1 0 -10 -45 1 -0 -0 F -41 F 41 #
plane-surface $-1 0 0 -45 0 0 1 1 0 0 forward_v I I I I #
plane-surface $-1 0 0 15 0 0 1 1 0 0 forward_v I I I I #
point $-1 -10 -20 -35 #
straight-curve $-1 -10 0 15 0 -1 0 I I #
point $-1 -10 10 15 #
point $-1 -10 -10 15 #
ellipse-curve $-1 -10 -10 -35 1 0 0 0 -7.071067811865474617 -7.071067811865474617 1 I I #
point $-1 -10 -10 -45 #
straight-curve $-1 0 -10 15 1 0 0 F -25.5 F 25.5 #
straight-curve $-1 0 10 15 -1 0 0 F -25.5 F 25.5 #
End-of-ACIS-data 