106 0 1 0           
body $-1 $1 $-1 $-1 #
lump $-1 $-1 $2 $0 #
shell $-1 $-1 $-1 $3 $1 #
face $-1 $4 $5 $2 $-1 $6 reversed single #
face $-1 $7 $8 $2 $-1 $9 reversed single #
loop $-1 $10 $11 $3 #
torus-surface $-1 -3 0 -29.99999999999995381 -1 0 3.491481338843133355e-15 2 2 3.491481338843133355e-15 0 1 0 I I I I #
face $-1 $12 $13 $2 $-1 $14 reversed single #
loop $-1 $15 $16 $4 #
cone-surface $-1 10 0 -30 1 0 -3.491481338843133355e-15 -1.396592535537253342e-14 0 -4 1 I I 0 1 0 I I I I #
loop $-1 $-1 $17 $3 #
coedge $-1 $11 $11 $18 $19 1 $5 $-1 #
face $-1 $20 $21 $2 $-1 $22 reversed single #
loop $-1 $-1 $23 $7 #
plane-surface $-1 -5 0 -29.99999999999994671 -1 0 3.491481338843133355e-15 3.491481338843133355e-15 0 1 0 I I I I #
loop $-1 $-1 $18 $4 #
coedge $-1 $16 $16 $24 $25 1 $8 $-1 #
coedge $-1 $17 $17 $23 $26 1 $10 $-1 #
coedge $-1 $18 $18 $11 $19 0 $15 $-1 #
edge $-1 $27 $27 $18 $28 0 #
face $-1 $29 $30 $2 $-1 $31 reversed single #
loop $-1 $32 $33 $12 #
torus-surface $-1 -3 0 30.00000000000004619 -1 0 3.491481338843133355e-15 2 2 3.491481338843133355e-15 0 1 0 I I I I #
coedge $-1 $23 $23 $17 $26 0 $13 $-1 #
coedge $-1 $24 $24 $16 $25 0 $34 $-1 #
edge $-1 $35 $35 $24 $36 0 #
edge $-1 $37 $37 $23 $38 0 #
vertex $-1 $19 $39 #
ellipse-curve $-1 -3 0 -29.99999999999995381 -1 0 3.491481338843133355e-15 1.396592535537253342e-14 -0 4 1 I I #
face $-1 $40 $41 $2 $-1 $42 reversed single #
loop $-1 $43 $44 $20 #
cone-surface $-1 10 0 30 1 0 -3.491481338843133355e-15 -1.396592535537253342e-14 0 -4 1 I I 0 1 0 I I I I #
loop $-1 $-1 $45 $12 #
coedge $-1 $33 $33 $46 $47 1 $21 $-1 #
loop $-1 $48 $24 $49 #
vertex $-1 $25 $50 #
ellipse-curve $-1 9.999999999999895195 0 -30 -1 0 0 -1.396592535537253342e-14 0 -4 1 I I #
vertex $-1 $26 $51 #
ellipse-curve $-1 -5 0 -29.99999999999994671 1 0 -3.491481338843133355e-15 6.982962677686266711e-15 0 2 1 I I #
point $-1 -3.000000000000014211 2.793185071074506684e-14 -33.99999999999995737 #
face $-1 $52 $53 $2 $-1 $54 forward single #
loop $-1 $-1 $55 $29 #
plane-surface $-1 -5 0 30.00000000000005329 -1 0 3.491481338843133355e-15 3.491481338843133355e-15 0 1 0 I I I I #
loop $-1 $-1 $46 $20 #
coedge $-1 $44 $44 $56 $57 1 $30 $-1 #
coedge $-1 $45 $45 $55 $58 1 $32 $-1 #
coedge $-1 $46 $46 $33 $47 0 $43 $-1 #
edge $-1 $59 $59 $46 $60 0 #
loop $-1 $61 $56 $49 #
face $-1 $-1 $34 $2 $-1 $62 reversed single #
point $-1 9.999999999999909406 -2.793185071074506684e-14 -26 #
point $-1 -5.000000000000007105 1.396592535537253342e-14 -31.99999999999994671 #
face $-1 $63 $64 $2 $-1 $65 forward single #
loop $-1 $-1 $66 $40 #
cone-surface $-1 0 10 35 -1 0 0 0 7.071067811865474617 7.071067811865474617 1 I I 0 1 0 I I I I #
coedge $-1 $55 $55 $45 $58 0 $41 $-1 #
coedge $-1 $56 $56 $44 $57 0 $48 $-1 #
edge $-1 $67 $67 $56 $68 0 #
edge $-1 $69 $69 $55 $70 0 #
vertex $-1 $47 $71 #
ellipse-curve $-1 -3 0 30.00000000000004619 -1 0 3.491481338843133355e-15 1.396592535537253342e-14 -0 4 1 I I #
loop $-1 $72 $73 $49 #
plane-surface $-1 10 0 0 -1 0 0 0 -0 1 0 I I I I #
face $-1 $74 $75 $2 $-1 $76 reversed single #
loop $-1 $-1 $77 $52 #
plane-surface $-1 0 0 45 0 0 1 1 0 0 0 I I I I #
coedge $-1 $78 $79 $77 $80 0 $53 $-1 #
vertex $-1 $57 $81 #
ellipse-curve $-1 10.00000000000010481 0 30 -1 0 0 -1.396592535537253342e-14 0 -4 1 I I #
vertex $-1 $58 $82 #
ellipse-curve $-1 -5 0 30.00000000000005329 1 0 -3.491481338843133355e-15 6.982962677686266711e-15 0 2 1 I I #
point $-1 -3.000000000000014211 2.793185071074506684e-14 26.00000000000004619 #
loop $-1 $-1 $83 $49 #
coedge $-1 $84 $85 $78 $86 1 $61 $-1 #
face $-1 $87 $88 $2 $-1 $89 forward single #
loop $-1 $90 $91 $63 #
plane-surface $-1 -10 0 0 1 0 0 0 0 -1 0 I I I I #
coedge $-1 $92 $93 $66 $80 1 $64 $-1 #
coedge $-1 $94 $66 $73 $86 0 $53 $-1 #
coedge $-1 $66 $94 $95 $96 0 $53 $-1 #
edge $-1 $97 $98 $77 $99 0 #
point $-1 10.00000000000011902 -2.793185071074506684e-14 34 #
point $-1 -5.000000000000007105 1.396592535537253342e-14 28.00000000000005329 #
coedge $-1 $100 $101 $102 $103 0 $72 $-1 #
coedge $-1 $104 $73 $93 $105 1 $61 $-1 #
coedge $-1 $73 $106 $107 $108 1 $61 $-1 #
edge $-1 $98 $109 $73 $110 0 #
face $-1 $111 $112 $2 $-1 $113 reversed single #
loop $-1 $-1 $114 $74 #
cone-surface $-1 0 -10 35 1 -0 0 0 -7.071067811865474617 7.071067811865474617 1 I I 0 1 0 I I I I #
loop $-1 $-1 $95 $63 #
coedge $-1 $115 $116 $117 $118 0 $75 $-1 #
coedge $-1 $119 $77 $120 $121 0 $64 $-1 #
coedge $-1 $77 $119 $84 $105 0 $64 $-1 #
coedge $-1 $79 $78 $122 $123 0 $53 $-1 #
coedge $-1 $124 $120 $79 $96 1 $90 $-1 #
edge $-1 $125 $97 $95 $126 0 #
vertex $-1 $96 $127 #
vertex $-1 $105 $128 #
straight-curve $-1 0 10 45 1 -0 -0 F -41 F 41 #
coedge $-1 $129 $83 $130 $131 0 $72 $-1 #
coedge $-1 $83 $132 $133 $134 0 $72 $-1 #
coedge $-1 $135 $136 $83 $103 1 $137 $-1 #
edge $-1 $138 $139 $83 $140 0 #
coedge $-1 $141 $84 $142 $143 1 $61 $-1 #
edge $-1 $144 $98 $84 $145 0 #
coedge $-1 $85 $146 $147 $148 1 $61 $-1 #
coedge $-1 $149 $122 $85 $108 0 $150 $-1 #
edge $-1 $109 $151 $85 $152 0 #
vertex $-1 $123 $153 #
ellipse-curve $-1 10 10 35 -1 0 0 0 7.071067811865474617 7.071067811865474617 1 I I #
face $-1 $154 $155 $2 $-1 $156 forward single #
loop $-1 $-1 $157 $87 #
plane-surface $-1 0 -20 0 0 1 -0 -0 0 1 0 I I I I #
coedge $-1 $158 $142 $119 $159 0 $88 $-1 #
coedge $-1 $160 $91 $161 $162 0 $75 $-1 #
coedge $-1 $91 $163 $164 $165 0 $75 $-1 #
coedge $-1 $136 $135 $91 $118 1 $137 $-1 #
edge $-1 $166 $167 $91 $168 0 #
coedge $-1 $93 $92 $114 $159 1 $64 $-1 #
coedge $-1 $95 $169 $92 $121 1 $90 $-1 #
edge $-1 $97 $170 $120 $171 0 #
coedge $-1 $107 $172 $94 $123 1 $150 $-1 #
edge $-1 $109 $125 $122 $173 0 #
coedge $-1 $174 $95 $172 $175 0 $90 $-1 #
vertex $-1 $96 $176 #
ellipse-curve $-1 -10 10 35 1 0 0 0 7.071067811865474617 7.071067811865474617 1 I I #
point $-1 -10 10 45 #
point $-1 10 10 45 #
coedge $-1 $177 $100 $178 $179 0 $72 $-1 #
coedge $-1 $180 $181 $100 $131 1 $182 $-1 #
edge $-1 $139 $183 $100 $184 0 #
coedge $-1 $101 $185 $186 $187 0 $72 $-1 #
coedge $-1 $188 $189 $101 $134 1 $190 $-1 #
edge $-1 $191 $138 $101 $192 0 #
coedge $-1 $117 $102 $189 $193 1 $137 $-1 #
coedge $-1 $102 $117 $180 $194 1 $137 $-1 #
loop $-1 $-1 $135 $195 #
vertex $-1 $103 $196 #
vertex $-1 $103 $197 #
straight-curve $-1 10 0 -15 0 -1 0 I I #
coedge $-1 $198 $104 $199 $200 0 $61 $-1 #
coedge $-1 $114 $201 $104 $143 0 $88 $-1 #
edge $-1 $202 $144 $104 $203 0 #
vertex $-1 $159 $204 #
straight-curve $-1 10 0 45 0 1 0 I I #
coedge $-1 $106 $198 $205 $206 1 $61 $-1 #
coedge $-1 $207 $208 $106 $148 0 $155 $-1 #
edge $-1 $151 $209 $106 $210 0 #
coedge $-1 $172 $107 $208 $211 1 $150 $-1 #
loop $-1 $-1 $122 $154 #
vertex $-1 $108 $212 #
straight-curve $-1 10 20 0 0 0 -1 I I #
point $-1 10 20 35 #
face $-1 $213 $150 $2 $-1 $214 reversed single #
loop $-1 $-1 $207 $111 #
cone-surface $-1 0 10 -35 1 0 -0 0 7.071067811865474617 -7.071067811865474617 1 I I 0 1 0 I I I I #
coedge $-1 $215 $199 $201 $216 1 $112 $-1 #
coedge $-1 $201 $114 $169 $217 0 $88 $-1 #
edge $-1 $144 $170 $119 $218 0 #
coedge $-1 $219 $115 $220 $221 0 $75 $-1 #
coedge $-1 $189 $188 $115 $162 1 $190 $-1 #
edge $-1 $167 $222 $115 $223 0 #
coedge $-1 $116 $224 $225 $226 0 $75 $-1 #
coedge $-1 $181 $180 $116 $165 1 $182 $-1 #
edge $-1 $227 $166 $116 $228 0 #
vertex $-1 $118 $229 #
vertex $-1 $118 $230 #
straight-curve $-1 -10 0 -15 0 1 0 I I #
coedge $-1 $120 $231 $158 $217 1 $90 $-1 #
vertex $-1 $121 $232 #
straight-curve $-1 -10 0 45 0 -1 0 I I #
coedge $-1 $122 $149 $124 $175 1 $150 $-1 #
straight-curve $-1 0 20 35 -1 0 0 F -41 F 41 #
coedge $-1 $233 $124 $234 $235 1 $90 $-1 #
edge $-1 $125 $236 $172 $237 0 #
point $-1 -10 20 35 #
coedge $-1 $238 $129 $239 $240 0 $72 $-1 #
coedge $-1 $241 $242 $129 $179 1 $243 $-1 #
edge $-1 $183 $244 $129 $245 0 #
coedge $-1 $164 $130 $136 $194 0 $182 $-1 #
coedge $-1 $130 $164 $241 $246 0 $182 $-1 #
loop $-1 $-1 $181 $247 #
vertex $-1 $179 $248 #
ellipse-curve $-1 10 -10 -10 -1 0 0 0 -3.535533905932737309 -3.535533905932737309 1 I I #
coedge $-1 $132 $238 $249 $250 0 $72 $-1 #
coedge $-1 $251 $252 $132 $187 1 $253 $-1 #
edge $-1 $254 $191 $132 $255 0 #
coedge $-1 $161 $133 $252 $256 0 $190 $-1 #
coedge $-1 $133 $161 $135 $193 0 $190 $-1 #
loop $-1 $-1 $188 $257 #
vertex $-1 $187 $258 #
ellipse-curve $-1 10 10 -10 -1 0 0 0 3.535533905932737309 -3.535533905932737309 1 I I #
edge $-1 $167 $138 $135 $259 0 #
edge $-1 $139 $166 $136 $260 0 #
face $-1 $247 $137 $2 $-1 $261 forward single #
point $-1 10 10 -15 #
point $-1 10 -10 -15 #
coedge $-1 $146 $141 $262 $263 1 $61 $-1 #
coedge $-1 $157 $264 $141 $200 1 $112 $-1 #
edge $-1 $202 $265 $141 $266 0 #
coedge $-1 $142 $158 $157 $216 0 $88 $-1 #
vertex $-1 $216 $267 #
ellipse-curve $-1 10 -10 35 -1 0 0 0 -7.071067811865474617 7.071067811865474617 1 I I #
point $-1 10 -10 45 #
coedge $-1 $268 $269 $146 $206 0 $270 $-1 #
edge $-1 $209 $271 $146 $272 0 #
coedge $-1 $234 $147 $269 $273 0 $155 $-1 #
coedge $-1 $147 $234 $149 $211 0 $155 $-1 #
vertex $-1 $273 $274 #
ellipse-curve $-1 10 10 -35 -1 0 0 0 7.071067811865474617 -7.071067811865474617 1 I I #
edge $-1 $236 $151 $149 $275 0 #
point $-1 10 20 -35 #
face $-1 $276 $277 $2 $-1 $278 forward single #
plane-surface $-1 0 20 0 0 -1 0 0 0 -1 0 I I I I #
coedge $-1 $264 $157 $231 $279 0 $112 $-1 #
edge $-1 $280 $202 $157 $281 0 #
edge $-1 $170 $280 $169 $282 0 #
straight-curve $-1 0 -10 45 -1 0 -0 F -41 F 41 #
coedge $-1 $283 $160 $284 $285 0 $75 $-1 #
coedge $-1 $252 $251 $160 $221 1 $253 $-1 #
edge $-1 $222 $286 $160 $287 0 #
vertex $-1 $221 $288 #
ellipse-curve $-1 -10 10 -10 1 0 0 0 3.535533905932737309 -3.535533905932737309 1 I I #
coedge $-1 $163 $283 $289 $290 0 $75 $-1 #
coedge $-1 $242 $241 $163 $226 1 $243 $-1 #
edge $-1 $291 $227 $163 $292 0 #
vertex $-1 $226 $293 #
ellipse-curve $-1 -10 -10 -10 1 0 0 0 -3.535533905932737309 -3.535533905932737309 1 I I #
point $-1 -10 -10 -15 #
point $-1 -10 10 -15 #
coedge $-1 $169 $294 $215 $279 1 $90 $-1 #
point $-1 -10 -10 45 #
coedge $-1 $294 $174 $295 $296 1 $90 $-1 #
coedge $-1 $208 $207 $174 $235 0 $155 $-1 #
edge $-1 $297 $236 $174 $298 0 #
vertex $-1 $175 $299 #
straight-curve $-1 -10 20 0 0 0 -1 I I #
coedge $-1 $185 $177 $300 $301 0 $72 $-1 #
coedge $-1 $302 $303 $177 $240 1 $304 $-1 #
edge $-1 $244 $305 $177 $306 0 #
coedge $-1 $225 $178 $181 $246 1 $243 $-1 #
coedge $-1 $178 $225 $302 $307 1 $243 $-1 #
loop $-1 $-1 $241 $308 #
vertex $-1 $179 $309 #
straight-curve $-1 10 -15 0 0 0 1 I I #
edge $-1 $227 $183 $241 $310 0 #
face $-1 $311 $182 $2 $-1 $312 forward single #
point $-1 10 -15 -10 #
coedge $-1 $313 $314 $185 $250 1 $315 $-1 #
edge $-1 $316 $254 $185 $317 0 #
coedge $-1 $220 $186 $314 $318 1 $253 $-1 #
coedge $-1 $186 $220 $188 $256 1 $253 $-1 #
loop $-1 $-1 $251 $319 #
vertex $-1 $187 $320 #
straight-curve $-1 10 15 0 -0 -0 -1 I I #
edge $-1 $191 $222 $252 $321 0 #
face $-1 $195 $190 $2 $-1 $322 forward single #
point $-1 10 15 -10 #
straight-curve $-1 0 10 -15 1 -0 -0 F -25.5 F 25.5 #
straight-curve $-1 0 -10 -15 -1 0 -0 F -25.5 F 25.5 #
plane-surface $-1 0 0 -15 0 0 1 1 0 0 0 I I I I #
coedge $-1 $323 $324 $198 $263 0 $277 $-1 #
edge $-1 $271 $265 $198 $325 0 #
coedge $-1 $199 $215 $323 $326 1 $112 $-1 #
vertex $-1 $200 $327 #
straight-curve $-1 10 -20 0 0 0 -1 I I #
point $-1 10 -20 35 #
coedge $-1 $295 $205 $324 $328 1 $270 $-1 #
coedge $-1 $205 $295 $207 $273 1 $270 $-1 #
loop $-1 $-1 $269 $329 #
vertex $-1 $206 $330 #
straight-curve $-1 10 0 -45 0 -1 0 I I #
edge $-1 $209 $297 $269 $331 0 #
point $-1 10 10 -45 #
straight-curve $-1 0 20 -35 1 0 0 F -41 F 41 #
face $-1 $332 $315 $2 $-1 $333 forward single #
loop $-1 $-1 $324 $213 #
cone-surface $-1 0 -10 -35 -1 0 0 0 -7.071067811865474617 -7.071067811865474617 1 I I 0 1 0 I I I I #
edge $-1 $280 $334 $231 $335 0 #
vertex $-1 $217 $336 #
straight-curve $-1 0 -20 35 1 0 0 F -41 F 41 #
ellipse-curve $-1 -10 -10 35 1 0 0 0 -7.071067811865474617 7.071067811865474617 1 I I #
coedge $-1 $224 $219 $337 $338 0 $75 $-1 #
coedge $-1 $314 $313 $219 $285 1 $315 $-1 #
edge $-1 $286 $339 $219 $340 0 #
vertex $-1 $221 $341 #
straight-curve $-1 -10 15 0 -0 0 1 I I #
point $-1 -10 15 -10 #
coedge $-1 $303 $302 $224 $290 1 $304 $-1 #
edge $-1 $342 $291 $224 $343 0 #
vertex $-1 $226 $344 #
straight-curve $-1 -10 -15 0 0 -0 -1 I I #
point $-1 -10 -15 -10 #
coedge $-1 $231 $233 $345 $346 1 $90 $-1 #
coedge $-1 $269 $268 $233 $296 0 $270 $-1 #
edge $-1 $347 $297 $233 $348 0 #
vertex $-1 $296 $349 #
ellipse-curve $-1 -10 10 -35 1 0 0 0 7.071067811865474617 -7.071067811865474617 1 I I #
point $-1 -10 20 -35 #
coedge $-1 $350 $351 $238 $301 1 $352 $-1 #
edge $-1 $305 $316 $238 $353 0 #
coedge $-1 $289 $239 $242 $307 0 $304 $-1 #
coedge $-1 $239 $289 $350 $354 0 $304 $-1 #
loop $-1 $-1 $302 $311 #
vertex $-1 $301 $355 #
ellipse-curve $-1 10 -10 10 -1 0 0 0 -3.535533905932737309 3.535533905932737309 1 I I #
edge $-1 $244 $291 $242 $356 0 #
face $-1 $319 $243 $2 $-1 $357 forward single #
point $-1 10 -15 10 #
straight-curve $-1 0 -15 -10 1 -0 -0 F -25.5 F 25.5 #
face $-1 $308 $304 $2 $-1 $358 forward single #
cone-surface $-1 0 -10 -10 -1 0 -0 0 -3.535533905932737309 -3.535533905932737309 1 I I 0 -1 0 I I I I #
coedge $-1 $284 $249 $351 $359 0 $315 $-1 #
coedge $-1 $249 $284 $251 $318 0 $315 $-1 #
loop $-1 $-1 $314 $276 #
vertex $-1 $301 $360 #
ellipse-curve $-1 10 10 10 -1 0 0 0 3.535533905932737309 3.535533905932737309 1 I I #
edge $-1 $286 $254 $251 $361 0 #
face $-1 $329 $253 $2 $-1 $362 forward single #
point $-1 10 15 10 #
straight-curve $-1 0 15 -10 -1 -0 0 F -25.5 F 25.5 #
cone-surface $-1 0 10 -10 1 -0 -0 0 3.535533905932737309 -3.535533905932737309 1 I I 0 -1 0 I I I I #
coedge $-1 $345 $262 $264 $326 0 $277 $-1 #
coedge $-1 $262 $345 $268 $328 0 $277 $-1 #
ellipse-curve $-1 10 -10 -35 -1 0 0 0 -7.071067811865474617 -7.071067811865474617 1 I I #
edge $-1 $265 $334 $264 $363 0 #
point $-1 10 -20 -35 #
edge $-1 $347 $271 $268 $364 0 #
face $-1 $49 $270 $2 $-1 $365 reversed single #
point $-1 10 -10 -45 #
straight-curve $-1 0 10 -45 -1 -0 -0 F -41 F 41 #
face $-1 $257 $352 $2 $-1 $366 reversed single #
cone-surface $-1 0 10 10 -1 -0 0 0 3.535533905932737309 3.535533905932737309 1 I I 0 -1 0 I I I I #
vertex $-1 $279 $367 #
straight-curve $-1 -10 -20 0 0 0 -1 I I #
point $-1 -10 -20 35 #
coedge $-1 $351 $350 $283 $338 1 $352 $-1 #
edge $-1 $339 $342 $283 $368 0 #
vertex $-1 $338 $369 #
ellipse-curve $-1 -10 10 10 1 0 0 0 3.535533905932737309 3.535533905932737309 1 I I #
point $-1 -10 15 10 #
vertex $-1 $338 $370 #
ellipse-curve $-1 -10 -10 10 1 0 0 0 -3.535533905932737309 3.535533905932737309 1 I I #
point $-1 -10 -15 10 #
coedge $-1 $324 $323 $294 $346 0 $277 $-1 #
edge $-1 $334 $347 $294 $371 0 #
vertex $-1 $346 $372 #
straight-curve $-1 -10 0 -45 0 1 0 I I #
point $-1 -10 10 -45 #
coedge $-1 $337 $300 $303 $354 1 $352 $-1 #
coedge $-1 $300 $337 $313 $359 1 $352 $-1 #
loop $-1 $-1 $351 $332 #
straight-curve $-1 10 0 15 0 1 -0 I I #
edge $-1 $342 $305 $350 $373 0 #
point $-1 10 -10 15 #
straight-curve $-1 0 -15 10 -1 0 -0 F -25.5 F 25.5 #
plane-surface $-1 0 -15 0 0 1 -0 -0 0 1 0 I I I I #
cone-surface $-1 0 -10 10 1 -0 -0 0 -3.535533905932737309 3.535533905932737309 1 I I 0 -1 0 I I I I #
edge $-1 $316 $339 $351 $374 0 #
point $-1 10 10 15 #
straight-curve $-1 0 15 10 1 -0 -0 F -25.5 F 25.5 #
plane-surface $-1 0 15 0 0 -1 0 0 0 -1 0 I I I I #
straight-curve $-1 0 -20 -35 -1 0 0 F -41 F 41 #
straight-curve $-1 0 -10 -45 1 -0 -0 F -41 F 41 #
plane-surface $-1 0 0 -45 0 0 1 1 0 0 0 I I I I #
plane-surface $-1 0 0 15 0 0 1 1 0 0 0 I I I I #
point $-1 -10 -20 -35 #
straight-curve $-1 -10 0 15 0 -1 0 I I #
point $-1 -10 10 15 #
point $-1 -10 -10 15 #
ellipse-curve $-1 -10 -10 -35 1 0 0 0 -7.071067811865474617 -7.071067811865474617 1 I I #
point $-1 -10 -10 -45 #
straight-curve $-1 0 -10 15 1 0 0 F -25.5 F 25.5 #
straight-curve $-1 0 10 15 -1 0 0 F -25.5 F 25.5 #
End-of-ACIS-data 