105 541 1 0                             
body $-1 $1 $-1 $-1 #
lump $-1 $-1 $2 $0 #
shell $-1 $-1 $-1 $3 $1 #
face $-1 $4 $5 $2 $-1 $6 reversed single #
face $-1 $7 $8 $2 $-1 $9 forward single #
loop $-1 $-1 $10 $3 #
plane-surface $-1 -50 0 15 0 0 1 1 0 0 0 #
face $-1 $11 $12 $2 $-1 $13 forward single #
loop $-1 $-1 $14 $4 #
plane-surface $-1 -50 0 -15 0 0 1 1 0 0 0 #
coedge $-1 $15 $16 $17 $18 1 $5 $-1 #
face $-1 $19 $20 $2 $-1 $21 reversed single #
loop $-1 $-1 $22 $7 #
plane-surface $-1 -40 0 0 -1 0 0 0 0 1 0 #
coedge $-1 $23 $24 $25 $26 1 $8 $-1 #
coedge $-1 $27 $10 $28 $29 1 $5 $-1 #
coedge $-1 $10 $27 $30 $31 1 $5 $-1 #
coedge $-1 $32 $22 $10 $18 0 $12 $-1 #
edge $-1 $33 $34 $17 $35 0 #
face $-1 $36 $37 $2 $-1 $21 reversed single #
loop $-1 $-1 $38 $11 #
plane-surface $-1 -60 0 0 1 0 0 0 0 -1 0 #
coedge $-1 $17 $25 $39 $40 1 $12 $-1 #
coedge $-1 $41 $14 $42 $43 1 $8 $-1 #
coedge $-1 $14 $41 $44 $45 1 $8 $-1 #
coedge $-1 $22 $32 $14 $26 0 $12 $-1 #
edge $-1 $46 $47 $25 $48 0 #
coedge $-1 $16 $15 $49 $50 1 $5 $-1 #
coedge $-1 $39 $51 $15 $29 0 $52 $-1 #
edge $-1 $53 $33 $28 $54 0 #
coedge $-1 $55 $56 $16 $31 0 $57 $-1 #
edge $-1 $34 $58 $30 $59 0 #
coedge $-1 $25 $17 $56 $60 1 $12 $-1 #
vertex $-1 $29 $61 #
vertex $-1 $31 $62 #
straight-curve $-1 -40 0 15 0 1 0 #
face $-1 $63 $52 $2 $-1 $64 reversed single #
loop $-1 $-1 $49 $19 #
coedge $-1 $65 $66 $41 $67 0 $20 $-1 #
coedge $-1 $44 $28 $22 $40 0 $52 $-1 #
edge $-1 $33 $47 $39 $68 0 #
coedge $-1 $24 $23 $38 $67 1 $8 $-1 #
coedge $-1 $56 $69 $23 $43 0 $57 $-1 #
edge $-1 $70 $46 $42 $71 0 #
coedge $-1 $72 $39 $24 $45 0 $52 $-1 #
edge $-1 $47 $73 $44 $74 0 #
vertex $-1 $43 $75 #
vertex $-1 $45 $76 #
straight-curve $-1 -40 0 -15 0 -1 0 #
coedge $-1 $77 $78 $27 $50 0 $37 $-1 #
edge $-1 $58 $53 $49 $79 0 #
coedge $-1 $28 $80 $77 $81 0 $52 $-1 #
loop $-1 $-1 $28 $36 #
vertex $-1 $81 $82 #
straight-curve $-1 -25 -25 15 1 -0 0 #
coedge $-1 $83 $30 $78 $84 1 $57 $-1 #
coedge $-1 $30 $42 $32 $60 0 $57 $-1 #
loop $-1 $-1 $30 $85 #
vertex $-1 $84 $86 #
straight-curve $-1 -25 25 15 -1 0 0 #
edge $-1 $46 $34 $56 $87 0 #
point $-1 -40 -25 15 #
point $-1 -40 25 15 #
face $-1 $88 $89 $2 $-1 $90 reversed single #
plane-surface $-1 0 -25 0 0 1 -0 -0 0 1 0 #
coedge $-1 $91 $38 $69 $92 0 $20 $-1 #
coedge $-1 $38 $91 $72 $93 1 $20 $-1 #
edge $-1 $73 $70 $38 $94 0 #
straight-curve $-1 -40 -25 0 -0 0 -1 #
coedge $-1 $42 $95 $65 $92 1 $57 $-1 #
vertex $-1 $67 $96 #
straight-curve $-1 -25 25 -15 1 0 -0 #
coedge $-1 $97 $44 $66 $93 0 $52 $-1 #
vertex $-1 $45 $98 #
straight-curve $-1 -25 -25 -15 -1 0 0 #
point $-1 -40 25 -15 #
point $-1 -40 -25 -15 #
coedge $-1 $99 $49 $51 $81 1 $37 $-1 #
coedge $-1 $49 $99 $55 $84 0 $37 $-1 #
straight-curve $-1 -60 0 15 0 -1 0 #
coedge $-1 $51 $100 $101 $102 0 $52 $-1 #
edge $-1 $103 $53 $77 $104 0 #
point $-1 -60 -25 15 #
coedge $-1 $105 $55 $106 $107 0 $57 $-1 #
edge $-1 $108 $58 $55 $109 0 #
face $-1 $110 $57 $2 $-1 $111 reversed single #
point $-1 -60 25 15 #
straight-curve $-1 -40 25 0 0 0 1 #
face $-1 $112 $113 $2 $-1 $114 forward single #
loop $-1 $-1 $115 $63 #
plane-surface $-1 50 0 15 0 0 1 1 0 0 0 #
coedge $-1 $66 $65 $116 $117 0 $20 $-1 #
edge $-1 $70 $118 $69 $109 0 #
edge $-1 $73 $119 $66 $104 0 #
straight-curve $-1 -60 0 -15 0 1 0 #
coedge $-1 $69 $120 $121 $122 0 $57 $-1 #
point $-1 -60 25 -15 #
coedge $-1 $123 $72 $124 $125 0 $52 $-1 #
point $-1 -60 -25 -15 #
coedge $-1 $78 $77 $126 $127 0 $37 $-1 #
coedge $-1 $80 $128 $129 $130 1 $52 $-1 #
coedge $-1 $131 $126 $80 $102 1 $132 $-1 #
edge $-1 $133 $103 $80 $134 0 #
vertex $-1 $102 $135 #
straight-curve $-1 -60 -25 0 0 0 -1 #
coedge $-1 $136 $83 $137 $138 1 $57 $-1 #
coedge $-1 $126 $131 $83 $107 1 $132 $-1 #
edge $-1 $108 $139 $83 $140 0 #
vertex $-1 $127 $141 #
straight-curve $-1 -60 25 0 0 0 -1 #
face $-1 $142 $143 $2 $-1 $144 reversed single #
plane-surface $-1 0 25 0 0 -1 0 0 0 -1 0 #
face $-1 $85 $145 $2 $-1 $146 forward single #
loop $-1 $-1 $147 $88 #
plane-surface $-1 50 0 -15 0 0 1 1 0 0 0 #
coedge $-1 $148 $149 $150 $151 1 $89 $-1 #
coedge $-1 $121 $124 $91 $117 1 $152 $-1 #
edge $-1 $118 $119 $91 $153 0 #
vertex $-1 $92 $154 #
vertex $-1 $93 $155 #
coedge $-1 $95 $156 $157 $158 1 $57 $-1 #
coedge $-1 $159 $116 $95 $122 1 $152 $-1 #
edge $-1 $160 $118 $95 $161 0 #
coedge $-1 $162 $97 $163 $164 1 $52 $-1 #
coedge $-1 $116 $159 $97 $125 1 $152 $-1 #
edge $-1 $119 $165 $97 $166 0 #
coedge $-1 $101 $106 $99 $127 1 $132 $-1 #
edge $-1 $103 $108 $99 $167 0 #
coedge $-1 $100 $168 $169 $170 0 $52 $-1 #
coedge $-1 $171 $172 $100 $130 0 $173 $-1 #
edge $-1 $133 $174 $100 $175 0 #
coedge $-1 $106 $101 $172 $176 1 $132 $-1 #
loop $-1 $-1 $131 $177 #
vertex $-1 $102 $178 #
ellipse-curve $-1 -60 -25.0000000000002 49.9999999999999 0 1 -0 20 0 0 1 #
point $-1 -60 -25 29.9999999999999 #
coedge $-1 $179 $105 $180 $181 0 $57 $-1 #
coedge $-1 $172 $171 $105 $138 0 $173 $-1 #
edge $-1 $182 $139 $105 $183 0 #
vertex $-1 $138 $184 #
ellipse-curve $-1 -60 24.9999999999998 50.0000000000001 0 -1 0 20 0 0 1 #
point $-1 -60 25.0000000000001 30.0000000000001 #
face $-1 $185 $186 $2 $-1 $187 reversed single #
loop $-1 $-1 $188 $110 #
plane-surface $-1 60 0 0 -1 0 0 0 -0 1 0 #
loop $-1 $-1 $189 $112 #
plane-surface $-1 40 0 0 1 0 0 0 0 -1 0 #
coedge $-1 $190 $191 $188 $192 1 $113 $-1 #
coedge $-1 $193 $115 $194 $195 1 $89 $-1 #
coedge $-1 $115 $193 $196 $197 1 $89 $-1 #
coedge $-1 $198 $199 $115 $151 0 $200 $-1 #
edge $-1 $201 $202 $150 $203 0 #
loop $-1 $-1 $116 $204 #
straight-curve $-1 -60 -6.98296267768627e-14 -30 0 -1 -3.49148133884313e-15 #
point $-1 -60 24.9999999999999 -29.9999999999999 #
point $-1 -60 -25 -30.0000000000001 #
coedge $-1 $120 $205 $206 $207 0 $57 $-1 #
coedge $-1 $208 $209 $120 $158 0 $210 $-1 #
edge $-1 $160 $211 $120 $212 0 #
coedge $-1 $124 $121 $209 $213 1 $152 $-1 #
vertex $-1 $213 $214 #
ellipse-curve $-1 -60 25.0000000000002 -49.9999999999999 0 -1 0 20 0 0 1 #
coedge $-1 $215 $123 $216 $217 0 $52 $-1 #
coedge $-1 $209 $208 $123 $164 0 $210 $-1 #
edge $-1 $218 $165 $123 $219 0 #
vertex $-1 $164 $220 #
ellipse-curve $-1 -60 -24.9999999999998 -50.0000000000001 0 1 -0 20 0 0 1 #
straight-curve $-1 -60 6.98296267768627e-14 30 -0 1 3.49148133884313e-15 #
coedge $-1 $128 $221 $222 $223 0 $52 $-1 #
coedge $-1 $224 $225 $128 $170 1 $226 $-1 #
edge $-1 $227 $174 $128 $228 0 #
coedge $-1 $137 $129 $225 $229 0 $173 $-1 #
coedge $-1 $129 $137 $131 $176 0 $173 $-1 #
loop $-1 $-1 $171 $230 #
vertex $-1 $130 $231 #
straight-curve $-1 0 -25 50 1 0 0 #
edge $-1 $139 $133 $172 $232 0 #
face $-1 $233 $234 $2 $-1 $235 reversed single #
point $-1 -40 -25 49.9999999999999 #
coedge $-1 $236 $136 $237 $238 0 $57 $-1 #
coedge $-1 $225 $224 $136 $181 1 $226 $-1 #
edge $-1 $182 $239 $136 $240 0 #
vertex $-1 $181 $241 #
straight-curve $-1 0 25 50 -1 0 0 #
point $-1 -40 25 50.0000000000001 #
face $-1 $242 $243 $2 $-1 $244 reversed single #
loop $-1 $245 $246 $142 #
cone-surface $-1 0 0 0 0 0 1 5 0 0 1 0 1 0 #
coedge $-1 $247 $248 $147 $192 0 $143 $-1 #
coedge $-1 $249 $250 $251 $252 1 $145 $-1 #
coedge $-1 $253 $147 $254 $255 1 $113 $-1 #
coedge $-1 $147 $253 $256 $257 1 $113 $-1 #
edge $-1 $258 $259 $188 $260 0 #
coedge $-1 $149 $148 $249 $261 1 $89 $-1 #
coedge $-1 $262 $263 $148 $195 0 $52 $-1 #
edge $-1 $264 $201 $194 $265 0 #
coedge $-1 $251 $266 $149 $197 0 $57 $-1 #
edge $-1 $202 $267 $196 $268 0 #
coedge $-1 $269 $150 $266 $270 1 $200 $-1 #
coedge $-1 $150 $269 $262 $271 0 $200 $-1 #
loop $-1 $-1 $150 $272 #
vertex $-1 $271 $273 #
vertex $-1 $270 $274 #
straight-curve $-1 60 0 15 0 1 -0 #
face $-1 $177 $275 $2 $-1 $276 reversed single #
coedge $-1 $156 $277 $278 $279 0 $57 $-1 #
coedge $-1 $280 $281 $156 $207 1 $282 $-1 #
edge $-1 $283 $211 $156 $284 0 #
coedge $-1 $163 $157 $281 $285 0 $210 $-1 #
coedge $-1 $157 $163 $159 $213 0 $210 $-1 #
loop $-1 $-1 $208 $286 #
vertex $-1 $158 $287 #
straight-curve $-1 0 25 -50 1 0 0 #
edge $-1 $165 $160 $209 $288 0 #
point $-1 -40 25 -49.9999999999999 #
coedge $-1 $289 $162 $290 $291 0 $52 $-1 #
coedge $-1 $281 $280 $162 $217 1 $282 $-1 #
edge $-1 $218 $292 $162 $293 0 #
vertex $-1 $285 $294 #
straight-curve $-1 0 -25 -50 -1 0 0 #
point $-1 -40 -25 -50.0000000000001 #
coedge $-1 $168 $295 $296 $297 0 $52 $-1 #
coedge $-1 $298 $299 $168 $223 1 $300 $-1 #
edge $-1 $301 $227 $168 $302 0 #
coedge $-1 $180 $169 $299 $303 0 $226 $-1 #
coedge $-1 $169 $180 $171 $229 1 $226 $-1 #
loop $-1 $-1 $180 $304 #
vertex $-1 $223 $305 #
straight-curve $-1 -20 -25 20 -0 0 1 #
edge $-1 $174 $182 $171 $306 0 #
face $-1 $204 $173 $2 $-1 $307 forward single #
point $-1 -20 -25 50 #
straight-curve $-1 -40 0 50 0 -1 -3.49148133884313e-15 #
face $-1 $308 $309 $2 $-1 $307 forward single #
loop $-1 $132 $310 $177 #
cone-surface $-1 -60 0 50 0 -1 -3.49148133884313e-15 20 0 0 1 0 1 0 #
coedge $-1 $311 $179 $312 $313 0 $57 $-1 #
coedge $-1 $299 $298 $179 $238 1 $300 $-1 #
edge $-1 $239 $314 $179 $315 0 #
vertex $-1 $238 $316 #
straight-curve $-1 -20 25 20 0 0 -1 #
point $-1 -20 25 50 #
face $-1 $317 $318 $2 $-1 $244 reversed single #
loop $-1 $319 $320 $185 #
cone-surface $-1 0 0 -40 1 0 -3.49148133884313e-15 -1.74574066942157e-14 0 -5 1 0 1 0 #
loop $-1 $-1 $321 $142 #
coedge $-1 $246 $246 $322 $323 1 $186 $-1 #
coedge $-1 $324 $188 $325 $326 0 $143 $-1 #
coedge $-1 $188 $324 $327 $328 1 $143 $-1 #
coedge $-1 $329 $189 $193 $261 0 $145 $-1 #
coedge $-1 $189 $329 $253 $330 0 $145 $-1 #
coedge $-1 $254 $196 $189 $252 0 $57 $-1 #
edge $-1 $267 $331 $251 $332 0 #
coedge $-1 $191 $190 $250 $330 1 $113 $-1 #
coedge $-1 $327 $251 $190 $255 0 $57 $-1 #
edge $-1 $331 $258 $254 $333 0 #
coedge $-1 $263 $325 $191 $257 0 $52 $-1 #
edge $-1 $259 $334 $256 $335 0 #
vertex $-1 $192 $336 #
vertex $-1 $257 $337 #
straight-curve $-1 60 0 -15 0 -1 0 #
edge $-1 $267 $264 $249 $338 0 #
coedge $-1 $339 $194 $199 $271 1 $52 $-1 #
coedge $-1 $194 $256 $329 $340 0 $52 $-1 #
vertex $-1 $195 $341 #
straight-curve $-1 25 -25 15 1 -0 0 #
coedge $-1 $196 $342 $198 $270 0 $57 $-1 #
vertex $-1 $197 $343 #
straight-curve $-1 25 25 15 -1 0 0 #
coedge $-1 $199 $198 $344 $345 0 $200 $-1 #
edge $-1 $346 $202 $198 $347 0 #
edge $-1 $348 $201 $199 $349 0 #
face $-1 $-1 $200 $2 $-1 $144 reversed single #
point $-1 60 -25 15 #
point $-1 60 25 15 #
loop $-1 $152 $350 $204 #
cone-surface $-1 -60 0 -50 0 -1 -3.49148133884313e-15 20 0 0 1 0 1 0 #
coedge $-1 $205 $351 $352 $353 0 $57 $-1 #
coedge $-1 $354 $355 $205 $279 1 $356 $-1 #
edge $-1 $357 $283 $205 $358 0 #
coedge $-1 $216 $206 $355 $359 0 $282 $-1 #
coedge $-1 $206 $216 $208 $285 1 $282 $-1 #
loop $-1 $-1 $206 $360 #
vertex $-1 $279 $361 #
straight-curve $-1 -20 25 -20 0 0 -1 #
edge $-1 $211 $218 $208 $362 0 #
face $-1 $363 $210 $2 $-1 $364 reversed single #
point $-1 -20 25 -50 #
straight-curve $-1 -40 0 -50 -0 1 3.49148133884313e-15 #
coedge $-1 $365 $215 $366 $367 0 $52 $-1 #
coedge $-1 $355 $354 $215 $291 1 $356 $-1 #
edge $-1 $292 $368 $215 $369 0 #
vertex $-1 $291 $370 #
straight-curve $-1 -20 -25 -20 -0 0 1 #
point $-1 -20 -25 -50 #
coedge $-1 $221 $339 $371 $372 1 $52 $-1 #
coedge $-1 $373 $374 $221 $297 1 $375 $-1 #
edge $-1 $376 $301 $221 $377 0 #
coedge $-1 $237 $222 $374 $378 1 $300 $-1 #
coedge $-1 $222 $237 $224 $303 1 $300 $-1 #
loop $-1 $-1 $298 $379 #
vertex $-1 $223 $380 #
straight-curve $-1 0 -25 30 -1 0 0 #
edge $-1 $227 $239 $224 $381 0 #
face $-1 $382 $383 $2 $-1 $384 forward single #
point $-1 -20 -25 30 #
straight-curve $-1 -20 0 50 0 1 0 #
plane-surface $-1 0 0 50 0 0 1 1 0 0 0 #
face $-1 $385 $386 $2 $-1 $387 reversed single #
loop $-1 $-1 $388 $233 #
coedge $-1 $310 $310 $389 $390 0 $234 $-1 #
coedge $-1 $342 $236 $391 $392 1 $57 $-1 #
coedge $-1 $374 $373 $236 $313 1 $375 $-1 #
edge $-1 $314 $393 $236 $394 0 #
vertex $-1 $238 $395 #
straight-curve $-1 0 25 30 1 0 -0 #
point $-1 -20 25 30 #
face $-1 $396 $397 $2 $-1 $398 reversed single #
loop $-1 $399 $400 $242 #
loop $-1 $-1 $401 $185 #
coedge $-1 $320 $320 $402 $403 1 $243 $-1 #
coedge $-1 $321 $321 $404 $405 1 $245 $-1 #
coedge $-1 $322 $322 $246 $323 0 $406 $-1 #
edge $-1 $407 $407 $322 $408 0 #
coedge $-1 $248 $247 $409 $410 0 $143 $-1 #
coedge $-1 $256 $411 $247 $326 1 $52 $-1 #
edge $-1 $259 $412 $247 $349 0 #
coedge $-1 $413 $254 $248 $328 0 $57 $-1 #
edge $-1 $258 $414 $248 $347 0 #
coedge $-1 $250 $249 $263 $340 1 $145 $-1 #
edge $-1 $334 $331 $250 $415 0 #
vertex $-1 $255 $416 #
straight-curve $-1 40 25 0 0 0 -1 #
straight-curve $-1 25 25 -15 1 0 -0 #
vertex $-1 $257 $417 #
straight-curve $-1 25 -25 -15 -1 0 0 #
point $-1 60 25 -15 #
point $-1 60 -25 -15 #
straight-curve $-1 40 0 15 0 -1 0 #
coedge $-1 $295 $262 $418 $419 0 $52 $-1 #
edge $-1 $334 $264 $263 $420 0 #
point $-1 40 -25 15 #
coedge $-1 $266 $311 $421 $422 0 $57 $-1 #
point $-1 40 25 15 #
coedge $-1 $421 $418 $269 $345 1 $423 $-1 #
edge $-1 $346 $348 $269 $424 0 #
vertex $-1 $422 $425 #
straight-curve $-1 60 25 0 0 0 -1 #
vertex $-1 $419 $426 #
straight-curve $-1 60 -25 0 0 0 -1 #
coedge $-1 $350 $350 $427 $428 0 $275 $-1 #
coedge $-1 $277 $413 $429 $430 1 $57 $-1 #
coedge $-1 $431 $432 $277 $353 1 $433 $-1 #
edge $-1 $434 $357 $277 $435 0 #
coedge $-1 $290 $278 $432 $436 1 $356 $-1 #
coedge $-1 $278 $290 $280 $359 1 $356 $-1 #
loop $-1 $-1 $354 $437 #
vertex $-1 $279 $438 #
straight-curve $-1 0 25 -30 -1 0 0 #
edge $-1 $283 $292 $280 $439 0 #
face $-1 $440 $441 $2 $-1 $442 forward single #
point $-1 -20 25 -30 #
straight-curve $-1 -20 0 -50 0 -1 0 #
face $-1 $379 $443 $2 $-1 $364 reversed single #
plane-surface $-1 0 0 -50 0 0 1 1 0 0 0 #
coedge $-1 $411 $289 $444 $445 1 $52 $-1 #
coedge $-1 $432 $431 $289 $367 1 $433 $-1 #
edge $-1 $368 $446 $289 $447 0 #
vertex $-1 $291 $448 #
straight-curve $-1 0 -25 -30 1 -0 0 #
point $-1 -20 -25 -30 #
coedge $-1 $449 $388 $295 $372 0 $309 $-1 #
edge $-1 $376 $450 $295 $175 0 #
coedge $-1 $312 $296 $388 $451 1 $375 $-1 #
coedge $-1 $296 $312 $298 $378 0 $375 $-1 #
loop $-1 $-1 $296 $382 #
vertex $-1 $451 $452 #
straight-curve $-1 20 -25 20 -0 0 -1 #
edge $-1 $314 $301 $374 $453 0 #
face $-1 $304 $454 $2 $-1 $455 forward single #
point $-1 20 -25 30 #
straight-curve $-1 -20 0 30 0 1 0 #
face $-1 $230 $456 $2 $-1 $457 forward single #
loop $-1 $226 $458 $304 #
plane-surface $-1 -20 0 40 1 0 0 0 0 -1 0 #
face $-1 $272 $459 $2 $-1 $460 reversed single #
loop $-1 $461 $402 $308 #
cone-surface $-1 60 0 -50 0 -1 -3.49148133884313e-15 20 0 0 1 0 1 0 #
coedge $-1 $371 $391 $373 $451 0 $309 $-1 #
coedge $-1 $389 $389 $310 $390 1 $462 $-1 #
edge $-1 $463 $463 $310 $464 0 #
coedge $-1 $388 $449 $311 $392 0 $309 $-1 #
edge $-1 $465 $393 $311 $183 0 #
vertex $-1 $392 $466 #
straight-curve $-1 20 25 20 0 0 1 #
point $-1 20 25 30 #
face $-1 $437 $467 $2 $-1 $398 reversed single #
loop $-1 $468 $469 $317 #
cone-surface $-1 0 0 40 1 0 -3.49148133884313e-15 -1.74574066942157e-14 0 -5 1 0 1 0 #
loop $-1 $-1 $427 $242 #
coedge $-1 $400 $400 $470 $471 1 $318 $-1 #
coedge $-1 $401 $401 $472 $473 1 $319 $-1 #
coedge $-1 $402 $402 $320 $403 0 $386 $-1 #
edge $-1 $474 $474 $402 $475 0 #
coedge $-1 $404 $404 $321 $405 0 $454 $-1 #
edge $-1 $476 $476 $404 $477 0 #
loop $-1 $356 $322 $437 #
vertex $-1 $323 $478 #
ellipse-curve $-1 0 0 -30 0 0 1 5 0 0 1 #
coedge $-1 $479 $480 $324 $410 1 $461 $-1 #
edge $-1 $412 $414 $324 $481 0 #
coedge $-1 $325 $365 $479 $482 0 $52 $-1 #
vertex $-1 $326 $483 #
coedge $-1 $351 $327 $480 $484 0 $57 $-1 #
vertex $-1 $328 $485 #
straight-curve $-1 40 0 -15 0 1 0 #
point $-1 40 25 -15 #
point $-1 40 -25 -15 #
coedge $-1 $344 $486 $339 $419 1 $423 $-1 #
edge $-1 $348 $450 $339 $487 0 #
straight-curve $-1 40 -25 0 -0 0 1 #
coedge $-1 $486 $344 $342 $422 1 $423 $-1 #
edge $-1 $465 $346 $342 $488 0 #
loop $-1 $-1 $344 $385 #
straight-curve $-1 60 6.98296267768627e-14 30 0 -1 -3.49148133884313e-15 #
point $-1 60 25 30.0000000000001 #
point $-1 60 -25 29.9999999999999 #
coedge $-1 $427 $427 $350 $428 1 $399 $-1 #
edge $-1 $489 $489 $350 $490 0 #
coedge $-1 $491 $492 $351 $430 0 $443 $-1 #
edge $-1 $434 $493 $351 $212 0 #
coedge $-1 $366 $352 $492 $494 1 $433 $-1 #
coedge $-1 $352 $366 $354 $436 0 $433 $-1 #
loop $-1 $-1 $366 $440 #
vertex $-1 $353 $495 #
straight-curve $-1 20 25 -20 0 0 1 #
edge $-1 $368 $357 $432 $496 0 #
face $-1 $360 $406 $2 $-1 $497 reversed single #
point $-1 20 25 -30 #
straight-curve $-1 -20 0 -30 0 -1 0 #
face $-1 $286 $498 $2 $-1 $499 forward single #
loop $-1 $282 $470 $360 #
plane-surface $-1 -20 0 -40 1 0 0 0 0 -1 0 #
loop $-1 $-1 $492 $363 #
coedge $-1 $492 $491 $365 $445 0 $443 $-1 #
edge $-1 $500 $446 $365 $219 0 #
vertex $-1 $445 $501 #
straight-curve $-1 20 -25 -20 -0 0 -1 #
point $-1 20 -25 -30 #
coedge $-1 $391 $371 $486 $502 0 $309 $-1 #
vertex $-1 $372 $503 #
edge $-1 $393 $376 $388 $504 0 #
point $-1 20 -25 50 #
straight-curve $-1 20 0 30 0 -1 0 #
loop $-1 $300 $404 $379 #
plane-surface $-1 0 0 30 0 0 1 1 0 0 0 #
loop $-1 $375 $505 $382 #
plane-surface $-1 20 0 40 -1 0 0 0 0 1 0 #
coedge $-1 $458 $458 $506 $507 0 $383 $-1 #
loop $-1 $423 $508 $385 #
cone-surface $-1 60 0 50 0 -1 -3.49148133884313e-15 20 0 0 1 0 1 0 #
loop $-1 $-1 $509 $308 #
loop $-1 $-1 $389 $396 #
vertex $-1 $390 $510 #
intcurve-curve $-1 0 { surfintcur nubs 3 periodic 33 
	0 3 0.934185494603837 2 1.86837098920767 2 2.80255648381151 2 3.73674197841535 2 
	4.77473062531896 2 5.81271927222257 2 6.85070791912617 2 7.88869656602978 2 9.0807940879772 2 
	10.2728916099246 2 11.464989131872 2 12.6570866538195 2 13.6217005135581 2 14.5863143732968 2 
	15.5509282330354 2 16.5155420927741 2 17.5517577879395 2 18.5879734831049 2 19.6241891782702 2 
	20.6604048734356 2 21.7830447750403 2 22.905684676645 2 24.0283245782496 2 25.1509644798543 2 
	26.1717151695189 2 27.1924658591834 2 28.213216548848 2 29.2339672385126 2 30.1853617668531 2 
	31.1367562951936 2 32.0881508235342 2 33.0395453518747 3 
	-40.6350832689629 -1.74574066942157e-14 45.0000000000001 
	-40.6350832689629 -0.311395164867963 45.0000000000001 
	-40.6426375231891 -0.633162847010251 44.9704240533337 
	-40.6753043969058 -1.27241546382817 44.8463356616266 
	-40.7004260749221 -1.58990437624697 44.7518460942439 
	-40.7697997896435 -2.19773998710477 44.5030850333648 
	-40.8141707235508 -2.48860350182904 44.348599247658 
	-40.9222395711616 -3.0252860129205 43.9938837411853 
	-40.986028421105 -3.27108765131117 43.7936554688912 
	-41.1372455030728 -3.72944451250148 43.3473306890729 
	-41.2318150323129 -3.95160991697997 43.0827246380951 
	-41.4520101937607 -4.33667192042082 42.5123074604558 
	-41.5777205523432 -4.49960275462434 42.2065521559124 
	-41.8564784005785 -4.75661149463122 41.5779554437474 
	-42.0098252527562 -4.85096190353653 41.2545925274751 
	-42.3348266879985 -4.97263332092084 40.6154280248236 
	-42.5064938164939 -5 40.2996415123529 
	-42.8781748446357 -5 39.6558710874018 
	-43.0940869461049 -4.96401726932641 39.3061096820211 
	-43.5480601003565 -4.81858257025496 38.6200676691921 
	-43.7861202255916 -4.70924054223231 38.2837631462084 
	-44.2677071311015 -4.4243267771749 37.6446342182371 
	-44.5114123081535 -4.24869232962149 37.3414984195537 
	-44.9850280092281 -3.84330771213855 36.7831687963265 
	-45.2148759123528 -3.61352836546356 36.5279430390538 
	-45.5992255674839 -3.16418789107869 36.1190529003156 
	-45.7719815983491 -2.93670910998143 35.9424449216858 
	-46.0941844400607 -2.43628986594946 35.6236424628883 
	-46.2435470019709 -2.16332063038061 35.4814080065989 
	-46.4949810961197 -1.58394501773718 35.2472382539268 
	-46.5971032493144 -1.27686844493148 35.1551032716256 
	-46.7353441299103 -0.645695722039192 35.0314494735167 
	-46.7712434446769 -0.3215379532462 35.0000000000002 
	-46.7712434446769 0.345405231721815 35.0000000000002 
	-46.7298762813358 0.691332607238988 35.0362139702068 
	-46.5731339235179 1.36119452294339 35.1766959423433 
	-46.4580208789921 1.68520408923691 35.2808985494988 
	-46.1768803571842 2.29331009290287 35.5446028319096 
	-46.010788984376 2.57809964574296 35.7043483715708 
	-45.6545496937307 3.09681725400954 36.0618603886116 
	-45.4644831428019 3.33075772855968 36.2596899166944 
	-45.0722815915867 3.75738917090286 36.6863213590376 
	-44.8534774362056 3.963432312454 36.934552021692 
	-44.4045707500811 4.32713360784405 37.4738009292544 
	-44.1745237114257 4.48482192261043 37.7648450250013 
	-43.7206925831618 4.74031263045095 38.3755057062295 
	-43.4967419403487 4.83817655284317 38.6954099874207 
	-43.0696948875535 4.96806599014441 39.3456088518483 
	-42.8665985745786 5 39.675921775303 
	-42.509366809367 5 40.2946653427269 
	-42.3403502368817 4.97353717914891 40.6052467895379 
	-42.019807334245 4.85580787213177 41.2343118159067 
	-41.868270070043 4.7644963730369 41.5527813988852 
	-41.5921640236853 4.51563437667405 42.1726948482909 
	-41.4673105351333 4.35782627531425 42.4746351607962 
	-41.2479809179549 3.98472769653028 43.0391469555795 
	-41.1534251958723 3.76940295135742 43.3016648605082 
	-40.9990934213232 3.31755538050212 43.7535124313635 
	-40.9328461437287 3.06994316863265 43.9601063542553 
	-40.820689858868 2.52784822982264 44.3263121398461 
	-40.7746839350947 2.23338473946382 44.4859227896127 
	-40.7027827272345 1.61701076011236 44.743077941607 
	-40.676760014128 1.29455936553597 44.8408518952801 
	-40.6429153938198 0.644621913881189 44.969325267522 
	-40.6350832689629 0.317131509446828 45.0000000000001 
	-40.6350832689629 -1.74574066942157e-14 45.0000000000001 
	0.001 
	cone 0 0 40 1 0 -3.49148133884313e-15 -1.74574066942157e-14 0 -5 1 0 1 0 
	cone -60 0 50 0 -1 -3.49148133884313e-15 20 0 0 1 -0 -1 0 
	nullbs 
	nullbs 
	} #
vertex $-1 $502 $511 #
point $-1 20 25 50 #
loop $-1 $462 $506 $396 #
loop $-1 $-1 $512 $317 #
coedge $-1 $469 $469 $508 $513 1 $397 $-1 #
coedge $-1 $470 $470 $400 $471 0 $441 $-1 #
edge $-1 $514 $514 $470 $515 0 #
coedge $-1 $472 $472 $401 $473 0 $498 $-1 #
edge $-1 $516 $516 $472 $517 0 #
vertex $-1 $403 $518 #
intcurve-curve $-1 0 { surfintcur nubs 3 periodic 33 
	0 3 1.03621569516539 2 2.07243139033078 2 3.10864708549618 2 4.14486278066157 2 
	5.26750268226624 2 6.39014258387092 2 7.51278248547559 2 8.63542238708026 2 9.65617307674482 2 
	10.6769237664094 2 11.6976744560739 2 12.7184251457385 2 13.669819674079 2 14.6212142024196 2 
	15.5726087307601 2 16.5240032591006 2 17.4581887537045 2 18.3923742483084 2 19.3265597429122 2 
	20.2607452375161 2 21.2987338844197 2 22.3367225313233 2 23.3747111782269 2 24.4126998251305 2 
	25.6047973470779 2 26.7968948690253 2 27.9889923909728 2 29.1810899129202 2 30.1457037726588 2 
	31.1103176323974 2 32.0749314921361 2 33.0395453518747 3 
	46.7712434446769 -1.74574066942157e-14 -35.0000000000002 
	46.7712434446769 0.34540523172178 -35.0000000000002 
	46.7298762813358 0.691332607238948 -35.0362139702068 
	46.5731339235179 1.36119452294334 -35.1766959423433 
	46.4580208789921 1.68520408923687 -35.2808985494988 
	46.1768803571842 2.29331009290283 -35.5446028319095 
	46.010788984376 2.57809964574291 -35.7043483715707 
	45.6545496937307 3.09681725400951 -36.0618603886116 
	45.4644831428019 3.33075772855966 -36.2596899166943 
	45.0722815915867 3.75738917090284 -36.6863213590375 
	44.8534774362056 3.96343231245398 -36.934552021692 
	44.4045707500811 4.32713360784403 -37.4738009292544 
	44.1745237114257 4.48482192261041 -37.7648450250013 
	43.7206925831618 4.74031263045094 -38.3755057062295 
	43.4967419403487 4.83817655284317 -38.6954099874206 
	43.0696948875535 4.96806599014441 -39.3456088518482 
	42.8665985745786 5 -39.6759217753029 
	42.509366809367 5 -40.2946653427268 
	42.3403502368817 4.97353717914891 -40.6052467895378 
	42.019807334245 4.85580787213177 -41.2343118159067 
	41.868270070043 4.76449637303691 -41.5527813988852 
	41.5921640236853 4.51563437667406 -42.1726948482909 
	41.4673105351333 4.35782627531427 -42.4746351607962 
	41.2479809179549 3.9847276965303 -43.0391469555794 
	41.1534251958723 3.76940295135744 -43.3016648605082 
	40.9990934213232 3.31755538050215 -43.7535124313635 
	40.9328461437287 3.06994316863268 -43.9601063542552 
	40.820689858868 2.52784822982267 -44.3263121398461 
	40.7746839350947 2.23338473946385 -44.4859227896127 
	40.7027827272345 1.6170107601124 -44.743077941607 
	40.676760014128 1.294559365536 -44.8408518952801 
	40.6429153938198 0.644621913881221 -44.969325267522 
	40.6350832689629 0.317131509446863 -45.0000000000001 
	40.6350832689629 -0.311395164867935 -45.0000000000001 
	40.6426375231891 -0.633162847010229 -44.9704240533337 
	40.6753043969058 -1.27241546382816 -44.8463356616266 
	40.7004260749221 -1.58990437624697 -44.7518460942439 
	40.7697997896435 -2.19773998710477 -44.5030850333648 
	40.8141707235508 -2.48860350182905 -44.348599247658 
	40.9222395711616 -3.02528601292051 -43.9938837411853 
	40.986028421105 -3.2710876513112 -43.7936554688912 
	41.1372455030728 -3.7294445125015 -43.3473306890729 
	41.2318150323129 -3.95160991697998 -43.0827246380951 
	41.4520101937607 -4.33667192042084 -42.5123074604558 
	41.5777205523432 -4.49960275462436 -42.2065521559124 
	41.8564784005785 -4.75661149463124 -41.5779554437473 
	42.0098252527562 -4.85096190353654 -41.2545925274751 
	42.3348266879985 -4.97263332092084 -40.6154280248235 
	42.5064938164939 -5 -40.2996415123529 
	42.8781748446358 -5 -39.6558710874018 
	43.0940869461049 -4.9640172693264 -39.306109682021 
	43.5480601003566 -4.81858257025495 -38.620067669192 
	43.7861202255917 -4.7092405422323 -38.2837631462084 
	44.2677071311015 -4.42432677717489 -37.6446342182371 
	44.5114123081536 -4.24869232962147 -37.3414984195537 
	44.9850280092281 -3.84330771213853 -36.7831687963265 
	45.2148759123528 -3.61352836546354 -36.5279430390538 
	45.5992255674839 -3.16418789107867 -36.1190529003156 
	45.7719815983491 -2.93670910998141 -35.9424449216858 
	46.0941844400607 -2.43628986594946 -35.6236424628883 
	46.2435470019709 -2.16332063038061 -35.4814080065988 
	46.4949810961197 -1.58394501773719 -35.2472382539268 
	46.5971032493144 -1.27686844493149 -35.1551032716256 
	46.7353441299103 -0.645695722039213 -35.0314494735167 
	46.7712434446769 -0.321537953246229 -35.0000000000002 
	46.7712434446769 -1.74574066942157e-14 -35.0000000000002 
	0.001 
	cone 0 0 -40 1 0 -3.49148133884313e-15 -1.74574066942157e-14 0 -5 1 0 1 0 
	cone 60 0 -50 0 -1 -3.49148133884313e-15 20 0 0 1 -0 -1 0 
	nullbs 
	nullbs 
	} #
vertex $-1 $405 $519 #
ellipse-curve $-1 0 0 30 -0 -0 -1 5 0 0 1 #
point $-1 -5 3.49148133884313e-14 -30 #
coedge $-1 $509 $409 $411 $482 1 $461 $-1 #
coedge $-1 $409 $509 $413 $484 1 $461 $-1 #
straight-curve $-1 60 -6.98296267768627e-14 -30 -0 1 3.49148133884313e-15 #
edge $-1 $500 $412 $411 $520 0 #
point $-1 60 -25 -30.0000000000001 #
edge $-1 $414 $493 $413 $521 0 #
point $-1 60 25 -29.9999999999999 #
coedge $-1 $418 $421 $449 $502 1 $423 $-1 #
ellipse-curve $-1 60 -25.0000000000002 49.9999999999999 0 1 -0 20 0 0 1 #
ellipse-curve $-1 60 24.9999999999998 50.0000000000001 0 -1 0 20 0 0 1 #
vertex $-1 $428 $522 #
intcurve-curve $-1 0 { surfintcur nubs 3 periodic 33 
	0 3 0.964613859738655 2 1.92922771947731 2 2.89384157921596 2 3.85845543895462 2 
	5.05055296090207 2 6.24265048284952 2 7.43474800479696 2 8.62684552674441 2 9.66483417364803 2 
	10.7028228205516 2 11.7408114674553 2 12.7788001143589 2 13.7129856089627 2 14.6471711035666 2 
	15.5813565981704 2 16.5155420927742 2 17.4669366211148 2 18.4183311494553 2 19.3697256777959 2 
	20.3211202061365 2 21.341870895801 2 22.3626215854656 2 23.3833722751301 2 24.4041229647947 2 
	25.5267628663994 2 26.6494027680041 2 27.7720426696088 2 28.8946825712135 2 29.9308982663789 2 
	30.9671139615442 2 32.0033296567096 2 33.039545351875 3 
	-46.7712434446772 -1.74574066942157e-14 -34.9999999999998 
	-46.7712434446772 -0.321537953246236 -34.9999999999998 
	-46.7353441299106 -0.645695722039229 -35.0314494735164 
	-46.5971032493148 -1.27686844493152 -35.1551032716253 
	-46.49498109612 -1.58394501773722 -35.2472382539264 
	-46.2435470019712 -2.16332063038064 -35.4814080065985 
	-46.094184440061 -2.43628986594949 -35.623642462888 
	-45.7719815983494 -2.93670910998144 -35.9424449216855 
	-45.5992255674842 -3.1641878910787 -36.1190529003153 
	-45.2148759123531 -3.61352836546357 -36.5279430390535 
	-44.9850280092284 -3.84330771213856 -36.7831687963263 
	-44.5114123081538 -4.2486923296215 -37.3414984195534 
	-44.2677071311017 -4.42432677717492 -37.6446342182369 
	-43.7861202255919 -4.70924054223232 -38.2837631462081 
	-43.5480601003567 -4.81858257025497 -38.6200676691918 
	-43.094086946105 -4.96401726932641 -39.3061096820208 
	-42.8781748446359 -5 -39.6558710874016 
	-42.506493816494 -5 -40.2996415123527 
	-42.3348266879986 -4.97263332092084 -40.6154280248233 
	-42.0098252527564 -4.85096190353652 -41.2545925274748 
	-41.8564784005786 -4.75661149463122 -41.5779554437471 
	-41.5777205523433 -4.49960275462433 -42.2065521559122 
	-41.4520101937608 -4.33667192042081 -42.5123074604556 
	-41.231815032313 -3.95160991697994 -43.0827246380948 
	-41.1372455030729 -3.72944451250145 -43.3473306890727 
	-40.9860284211051 -3.27108765131114 -43.793655468891 
	-40.9222395711617 -3.02528601292047 -43.9938837411851 
	-40.8141707235508 -2.488603501829 -44.3485992476577 
	-40.7697997896436 -2.19773998710473 -44.5030850333645 
	-40.7004260749222 -1.58990437624694 -44.7518460942436 
	-40.6753043969059 -1.27241546382813 -44.8463356616263 
	-40.6426375231892 -0.633162847010214 -44.9704240533334 
	-40.635083268963 -0.311395164867927 -44.9999999999999 
	-40.635083268963 0.31713150944687 -44.9999999999999 
	-40.6429153938199 0.644621913881235 -44.9693252675217 
	-40.676760014128 1.29455936553603 -44.8408518952798 
	-40.7027827272346 1.61701076011243 -44.7430779416067 
	-40.7746839350948 2.23338473946389 -44.4859227896124 
	-40.8206898588681 2.52784822982271 -44.3263121398458 
	-40.9328461437287 3.06994316863273 -43.9601063542549 
	-40.9990934213233 3.3175553805022 -43.7535124313631 
	-41.1534251958724 3.76940295135749 -43.3016648605078 
	-41.247980917955 3.98472769653035 -43.0391469555791 
	-41.4673105351334 4.35782627531431 -42.4746351607958 
	-41.5921640236854 4.5156343766741 -42.1726948482905 
	-41.8682700700432 4.76449637303693 -41.5527813988848 
	-42.0198073342451 4.85580787213179 -41.2343118159063 
	-42.3403502368819 4.97353717914892 -40.6052467895375 
	-42.5093668093672 5 -40.2946653427265 
	-42.8665985745788 5 -39.6759217753026 
	-43.0696948875537 4.9680659901444 -39.3456088518479 
	-43.4967419403489 4.83817655284315 -38.6954099874203 
	-43.7206925831621 4.74031263045092 -38.3755057062291 
	-44.1745237114259 4.48482192261038 -37.7648450250009 
	-44.4045707500814 4.327133607844 -37.473800929254 
	-44.853477436206 3.96343231245394 -36.9345520216916 
	-45.072281591587 3.75738917090279 -36.6863213590372 
	-45.4644831428022 3.33075772855961 -36.259689916694 
	-45.6545496937311 3.09681725400947 -36.0618603886112 
	-46.0107889843764 2.57809964574288 -35.7043483715704 
	-46.1768803571846 2.2933100929028 -35.5446028319092 
	-46.4580208789925 1.68520408923685 -35.2808985494985 
	-46.5731339235183 1.36119452294333 -35.176695942343 
	-46.7298762813361 0.691332607238944 -35.0362139702065 
	-46.7712434446772 0.345405231721776 -34.9999999999998 
	-46.7712434446772 -1.74574066942157e-14 -34.9999999999998 
	0.001 
	cone 0 0 -40 1 0 -3.49148133884313e-15 -1.74574066942157e-14 0 -5 1 0 1 0 
	cone -60 0 -50 0 -1 -3.49148133884313e-15 20 0 0 1 -0 -1 0 
	nullbs 
	nullbs 
	} #
coedge $-1 $444 $429 $509 $523 0 $443 $-1 #
coedge $-1 $429 $444 $431 $494 0 $443 $-1 #
vertex $-1 $430 $524 #
edge $-1 $446 $434 $492 $525 0 #
point $-1 20 25 -50 #
straight-curve $-1 20 0 -30 0 1 0 #
plane-surface $-1 0 0 -30 0 0 1 1 0 0 0 #
loop $-1 $433 $472 $440 #
plane-surface $-1 20 0 -40 -1 0 0 0 0 1 0 #
vertex $-1 $482 $526 #
point $-1 20 -25 -50 #
edge $-1 $450 $465 $449 $527 0 #
point $-1 40 -25 50 #
straight-curve $-1 20 0 50 0 -1 0 #
coedge $-1 $505 $505 $512 $528 0 $456 $-1 #
coedge $-1 $506 $506 $458 $507 1 $467 $-1 #
edge $-1 $529 $529 $458 $530 0 #
coedge $-1 $508 $508 $469 $513 0 $459 $-1 #
coedge $-1 $480 $479 $491 $523 1 $461 $-1 #
point $-1 -40.6350832689629 -1.74574066942157e-14 45.0000000000001 #
point $-1 40 25 50 #
coedge $-1 $512 $512 $505 $528 1 $468 $-1 #
edge $-1 $531 $531 $508 $532 0 #
vertex $-1 $471 $533 #
ellipse-curve $-1 -20 0 -39.9999999999999 -1 -0 -0 -1.74574066942157e-14 0 -5 1 #
vertex $-1 $473 $534 #
ellipse-curve $-1 20 0 -40.0000000000001 1 -0 -0 -1.74574066942157e-14 0 -5 1 #
point $-1 46.7712434446769 -1.74574066942157e-14 -35.0000000000002 #
point $-1 -5 -3.49148133884313e-14 30 #
ellipse-curve $-1 60 -24.9999999999998 -50.0000000000001 0 1 -0 20 0 0 1 #
ellipse-curve $-1 60 25.0000000000002 -49.9999999999999 0 -1 0 20 0 0 1 #
point $-1 -46.7712434446772 -1.74574066942157e-14 -34.9999999999998 #
edge $-1 $493 $500 $491 $535 0 #
point $-1 40 25 -50 #
straight-curve $-1 20 0 -50 0 1 -0 #
point $-1 40 -25 -50 #
straight-curve $-1 40 0 50 -0 1 3.49148133884313e-15 #
edge $-1 $536 $536 $505 $537 0 #
vertex $-1 $507 $538 #
ellipse-curve $-1 -20 0 40.0000000000001 -1 -0 -0 -1.74574066942157e-14 0 -5 1 #
vertex $-1 $513 $539 #
intcurve-curve $-1 0 { surfintcur nubs 3 periodic 33 
	0 3 0.951394528340556 2 1.90278905668111 2 2.85418358502167 2 3.80557811336223 2 
	4.82632880302679 2 5.84707949269136 2 6.86783018235592 2 7.88858087202049 2 9.01122077362519 2 
	10.1338606752299 2 11.2565005768346 2 12.3791404784393 2 13.4153561736046 2 14.45157186877 2 
	15.4877875639354 2 16.5240032591008 2 17.4886171188395 2 18.4532309785781 2 19.4178448383168 2 
	20.3824586980555 2 21.5745562200029 2 22.7666537419504 2 23.9587512638978 2 25.1508487858453 2 
	26.1888374327489 2 27.2268260796525 2 28.2648147265561 2 29.3028033734597 2 30.2369888680636 2 
	31.1711743626674 2 32.1053598572712 2 33.039545351875 3 
	40.635083268963 -1.74574066942157e-14 44.9999999999999 
	40.635083268963 0.317131509446835 44.9999999999999 
	40.6429153938199 0.644621913881201 44.9693252675217 
	40.676760014128 1.29455936553599 44.8408518952798 
	40.7027827272346 1.61701076011239 44.7430779416067 
	40.7746839350948 2.23338473946386 44.4859227896124 
	40.8206898588681 2.52784822982269 44.3263121398458 
	40.9328461437288 3.0699431686327 43.9601063542549 
	40.9990934213233 3.31755538050217 43.7535124313632 
	41.1534251958724 3.76940295135747 43.3016648605079 
	41.247980917955 3.98472769653033 43.0391469555791 
	41.4673105351334 4.3578262753143 42.4746351607959 
	41.5921640236854 4.51563437667408 42.1726948482905 
	41.8682700700432 4.76449637303692 41.5527813988849 
	42.0198073342451 4.85580787213178 41.2343118159064 
	42.3403502368819 4.97353717914891 40.6052467895375 
	42.5093668093672 5 40.2946653427265 
	42.8665985745788 5 39.6759217753026 
	43.0696948875537 4.9680659901444 39.3456088518479 
	43.4967419403489 4.83817655284315 38.6954099874203 
	43.7206925831621 4.74031263045093 38.3755057062291 
	44.174523711426 4.4848219226104 37.7648450250009 
	44.4045707500814 4.32713360784401 37.4738009292541 
	44.853477436206 3.96343231245396 36.9345520216917 
	45.072281591587 3.75738917090282 36.6863213590372 
	45.4644831428022 3.33075772855964 36.259689916694 
	45.6545496937311 3.09681725400949 36.0618603886112 
	46.0107889843764 2.57809964574291 35.7043483715704 
	46.1768803571846 2.29331009290283 35.5446028319092 
	46.4580208789925 1.68520408923688 35.2808985494985 
	46.5731339235183 1.36119452294336 35.176695942343 
	46.7298762813361 0.691332607238978 35.0362139702065 
	46.7712434446772 0.345405231721811 34.9999999999998 
	46.7712434446772 -0.321537953246208 34.9999999999998 
	46.7353441299107 -0.64569572203921 35.0314494735164 
	46.5971032493148 -1.27686844493151 35.1551032716253 
	46.49498109612 -1.58394501773721 35.2472382539264 
	46.2435470019712 -2.16332063038065 35.4814080065985 
	46.094184440061 -2.43628986594951 35.623642462888 
	45.7719815983494 -2.93670910998147 35.9424449216855 
	45.5992255674842 -3.16418789107873 36.1190529003153 
	45.214875912353 -3.6135283654636 36.5279430390535 
	44.9850280092283 -3.84330771213859 36.7831687963263 
	44.5114123081537 -4.24869232962152 37.3414984195535 
	44.2677071311017 -4.42432677717494 37.6446342182369 
	43.7861202255918 -4.70924054223233 38.2837631462081 
	43.5480601003567 -4.81858257025498 38.6200676691918 
	43.094086946105 -4.96401726932642 39.3061096820208 
	42.8781748446359 -5 39.6558710874016 
	42.506493816494 -5 40.2996415123527 
	42.3348266879986 -4.97263332092083 40.6154280248233 
	42.0098252527563 -4.85096190353651 41.2545925274749 
	41.8564784005786 -4.75661149463121 41.5779554437471 
	41.5777205523433 -4.49960275462432 42.2065521559122 
	41.4520101937607 -4.3366719204208 42.5123074604556 
	41.231815032313 -3.95160991697993 43.0827246380949 
	41.1372455030729 -3.72944451250143 43.3473306890727 
	40.9860284211051 -3.27108765131112 43.793655468891 
	40.9222395711617 -3.02528601292045 43.9938837411851 
	40.8141707235509 -2.48860350182899 44.3485992476577 
	40.7697997896436 -2.19773998710473 44.5030850333645 
	40.7004260749222 -1.58990437624694 44.7518460942436 
	40.6753043969059 -1.27241546382814 44.8463356616263 
	40.6426375231892 -0.633162847010242 44.9704240533334 
	40.635083268963 -0.311395164867958 44.9999999999999 
	40.635083268963 -1.74574066942157e-14 44.9999999999999 
	0.001 
	cone 0 0 40 1 0 -3.49148133884313e-15 -1.74574066942157e-14 0 -5 1 0 1 0 
	cone 60 0 50 0 -1 -3.49148133884313e-15 20 0 0 1 -0 -1 0 
	nullbs 
	nullbs 
	} #
point $-1 -20 -3.49148133884313e-14 -34.9999999999999 #
point $-1 20 3.49148133884313e-14 -35.0000000000001 #
straight-curve $-1 40 0 -50 0 -1 -3.49148133884313e-15 #
vertex $-1 $528 $540 #
ellipse-curve $-1 20 0 39.9999999999999 1 -0 -0 -1.74574066942157e-14 0 -5 1 #
point $-1 -20 -3.49148133884313e-14 45.0000000000001 #
point $-1 40.635083268963 -1.74574066942157e-14 44.9999999999999 #
point $-1 20 3.49148133884313e-14 44.9999999999999 #
