600 0 1 0           
79 GICL ACIS Healer - Source: /gicl/data5/repository/UMD/badpart/badpart.sat - 6 0 18 ACIS 6.0.3 Solaris 24 Sun Apr 14 00:34:42 2002 
1 9.999999999999999547e-07 1.000000000000000036e-10 
body $-1 $1 $-1 $-1 #
lump $-1 $-1 $2 $0 #
shell $-1 $-1 $-1 $3 $-1 $1 #
face $-1 $4 $5 $2 $-1 $6 reversed single #
face $-1 $7 $8 $2 $-1 $9 forward single #
loop $-1 $-1 $10 $3 #
plane-surface $-1 -50 0 15 0 0 1 1 0 0 forward_v I I I I #
face $-1 $11 $12 $2 $-1 $13 forward single #
loop $-1 $-1 $14 $4 #
plane-surface $-1 -50 0 -15 0 0 1 1 0 0 forward_v I I I I #
coedge $-1 $15 $16 $17 $18 reversed $5 $-1 #
face $-1 $19 $20 $2 $-1 $21 reversed single #
loop $-1 $-1 $22 $7 #
plane-surface $-1 -40 0 0 -1 0 0 0 0 1 forward_v I I I I #
coedge $-1 $23 $24 $25 $26 reversed $8 $-1 #
coedge $-1 $27 $10 $28 $29 reversed $5 $-1 #
coedge $-1 $10 $27 $30 $31 reversed $5 $-1 #
coedge $-1 $32 $22 $10 $18 forward $12 $-1 #
edge $-1 $33 -25 $34 25 $17 $35 forward 7 unknown #
face $-1 $36 $37 $2 $-1 $21 reversed single #
loop $-1 $-1 $38 $11 #
plane-surface $-1 -60 0 0 1 0 0 0 0 -1 forward_v I I I I #
coedge $-1 $17 $25 $39 $40 reversed $12 $-1 #
coedge $-1 $41 $14 $42 $43 reversed $8 $-1 #
coedge $-1 $14 $41 $44 $45 reversed $8 $-1 #
coedge $-1 $22 $32 $14 $26 forward $12 $-1 #
edge $-1 $46 -25 $47 25 $25 $48 forward 7 unknown #
coedge $-1 $16 $15 $49 $50 reversed $5 $-1 #
coedge $-1 $39 $51 $15 $29 forward $52 $-1 #
edge $-1 $53 -35 $33 -15 $28 $54 forward 7 unknown #
coedge $-1 $55 $56 $16 $31 forward $57 $-1 #
edge $-1 $34 15 $58 35 $30 $59 forward 7 unknown #
coedge $-1 $25 $17 $56 $60 reversed $12 $-1 #
vertex $-1 $29 $61 #
vertex $-1 $31 $62 #
straight-curve $-1 -40 0 15 0 1 0 I I #
face $-1 $63 $52 $2 $-1 $64 reversed single #
loop $-1 $-1 $49 $19 #
coedge $-1 $65 $66 $41 $67 forward $20 $-1 #
coedge $-1 $44 $28 $22 $40 forward $52 $-1 #
edge $-1 $33 -15 $47 15 $39 $68 forward 7 unknown #
coedge $-1 $24 $23 $38 $67 reversed $8 $-1 #
coedge $-1 $56 $69 $23 $43 forward $57 $-1 #
edge $-1 $70 -35 $46 -15 $42 $71 forward 7 unknown #
coedge $-1 $72 $39 $24 $45 forward $52 $-1 #
edge $-1 $47 15 $73 35 $44 $74 forward 7 unknown #
vertex $-1 $43 $75 #
vertex $-1 $45 $76 #
straight-curve $-1 -40 0 -15 0 -1 0 I I #
coedge $-1 $77 $78 $27 $50 forward $37 $-1 #
edge $-1 $58 -25 $53 25 $49 $79 forward 7 unknown #
coedge $-1 $28 $80 $77 $81 forward $52 $-1 #
loop $-1 $-1 $28 $36 #
vertex $-1 $81 $82 #
straight-curve $-1 -25 -25 15 1 -0 0 I I #
coedge $-1 $83 $30 $78 $84 reversed $57 $-1 #
coedge $-1 $30 $42 $32 $60 forward $57 $-1 #
loop $-1 $-1 $30 $85 #
vertex $-1 $84 $86 #
straight-curve $-1 -25 25 15 -1 0 0 I I #
edge $-1 $46 -15 $34 15 $56 $87 forward 7 unknown #
point $-1 -40 -25 15 #
point $-1 -40 25 15 #
face $-1 $88 $89 $2 $-1 $90 reversed single #
plane-surface $-1 0 -25 0 0 1 -0 -0 0 1 forward_v I I I I #
coedge $-1 $91 $38 $69 $92 forward $20 $-1 #
coedge $-1 $38 $91 $72 $93 reversed $20 $-1 #
edge $-1 $73 -25 $70 25 $38 $94 forward 7 unknown #
straight-curve $-1 -40 -25 0 -0 0 -1 I I #
coedge $-1 $42 $95 $65 $92 reversed $57 $-1 #
vertex $-1 $67 $96 #
straight-curve $-1 -25 25 -15 1 0 -0 I I #
coedge $-1 $97 $44 $66 $93 forward $52 $-1 #
vertex $-1 $45 $98 #
straight-curve $-1 -25 -25 -15 -1 0 0 I I #
point $-1 -40 25 -15 #
point $-1 -40 -25 -15 #
coedge $-1 $99 $49 $51 $81 reversed $37 $-1 #
coedge $-1 $49 $99 $55 $84 forward $37 $-1 #
straight-curve $-1 -60 0 15 0 -1 0 I I #
coedge $-1 $51 $100 $101 $102 forward $52 $-1 #
edge $-1 $103 -29.99999999999990052 $53 -15 $77 $104 forward 7 unknown #
point $-1 -60 -25 15 #
coedge $-1 $105 $55 $106 $107 forward $57 $-1 #
edge $-1 $108 -30.00000000000009948 $58 -15 $55 $109 forward 7 unknown #
face $-1 $110 $57 $2 $-1 $111 reversed single #
point $-1 -60 25 15 #
straight-curve $-1 -40 25 0 0 0 1 I I #
face $-1 $112 $113 $2 $-1 $114 forward single #
loop $-1 $-1 $115 $63 #
plane-surface $-1 50 0 15 0 0 1 1 0 0 forward_v I I I I #
coedge $-1 $66 $65 $116 $117 forward $20 $-1 #
edge $-1 $70 15 $118 29.99999999999990052 $69 $109 forward 7 unknown #
edge $-1 $73 15 $119 30.00000000000009948 $66 $104 forward 7 unknown #
straight-curve $-1 -60 0 -15 0 1 0 I I #
coedge $-1 $69 $120 $121 $122 forward $57 $-1 #
point $-1 -60 25 -15 #
coedge $-1 $123 $72 $124 $125 forward $52 $-1 #
point $-1 -60 -25 -15 #
coedge $-1 $78 $77 $126 $127 forward $37 $-1 #
coedge $-1 $80 $128 $129 $130 reversed $52 $-1 #
coedge $-1 $131 $126 $80 $102 reversed $132 $-1 #
edge $-1 $133 0 $103 1.570796326794896558 $80 $134 forward 7 unknown #
vertex $-1 $102 $135 #
straight-curve $-1 -60 -25 0 0 0 -1 I I #
coedge $-1 $136 $83 $137 $138 reversed $57 $-1 #
coedge $-1 $126 $131 $83 $107 reversed $132 $-1 #
edge $-1 $108 -1.570796326794896558 $139 0 $83 $140 forward 7 unknown #
vertex $-1 $127 $141 #
straight-curve $-1 -60 25 0 0 0 -1 I I #
face $-1 $142 $143 $2 $-1 $144 reversed single #
plane-surface $-1 0 25 0 0 -1 0 0 0 -1 forward_v I I I I #
face $-1 $85 $145 $2 $-1 $146 forward single #
loop $-1 $-1 $147 $88 #
plane-surface $-1 50 0 -15 0 0 1 1 0 0 forward_v I I I I #
coedge $-1 $148 $149 $150 $151 reversed $89 $-1 #
coedge $-1 $121 $124 $91 $117 reversed $152 $-1 #
edge $-1 $118 -24.99999999999997158 $119 24.99999999999992895 $91 $153 forward 7 unknown #
vertex $-1 $92 $154 #
vertex $-1 $93 $155 #
coedge $-1 $95 $156 $157 $158 reversed $57 $-1 #
coedge $-1 $159 $116 $95 $122 reversed $152 $-1 #
edge $-1 $160 0 $118 1.570796326794896558 $95 $161 forward 7 unknown #
coedge $-1 $162 $97 $163 $164 reversed $52 $-1 #
coedge $-1 $116 $159 $97 $125 reversed $152 $-1 #
edge $-1 $119 -1.570796326794896558 $165 0 $97 $166 forward 7 unknown #
coedge $-1 $101 $106 $99 $127 reversed $132 $-1 #
edge $-1 $103 -25.00000000000007105 $108 25.00000000000002842 $99 $167 forward 7 unknown #
coedge $-1 $100 $168 $169 $170 forward $52 $-1 #
coedge $-1 $171 $172 $100 $130 forward $173 $-1 #
edge $-1 $133 -40 $174 -20 $100 $175 forward 7 unknown #
coedge $-1 $106 $101 $172 $176 reversed $132 $-1 #
loop $-1 $-1 $131 $177 #
vertex $-1 $102 $178 #
ellipse-curve $-1 -60 -25.00000000000019895 49.99999999999990052 0 1 -0 20 0 0 1 I I #
point $-1 -60 -25 29.99999999999990052 #
coedge $-1 $179 $105 $180 $181 forward $57 $-1 #
coedge $-1 $172 $171 $105 $138 forward $173 $-1 #
edge $-1 $182 20 $139 40 $105 $183 forward 7 unknown #
vertex $-1 $138 $184 #
ellipse-curve $-1 -60 24.99999999999980105 50.00000000000009948 0 -1 0 20 0 0 1 I I #
point $-1 -60 25.00000000000009948 30.00000000000009948 #
face $-1 $185 $186 $2 $-1 $187 reversed single #
loop $-1 $-1 $188 $110 #
plane-surface $-1 60 0 0 -1 0 0 0 -0 1 forward_v I I I I #
loop $-1 $-1 $189 $112 #
plane-surface $-1 40 0 0 1 0 0 0 0 -1 forward_v I I I I #
coedge $-1 $190 $191 $188 $192 reversed $113 $-1 #
coedge $-1 $193 $115 $194 $195 reversed $89 $-1 #
coedge $-1 $115 $193 $196 $197 reversed $89 $-1 #
coedge $-1 $198 $199 $115 $151 forward $200 $-1 #
edge $-1 $201 -25 $202 25 $150 $203 forward 7 unknown #
loop $-1 $-1 $116 $204 #
straight-curve $-1 -60 -6.982962677686270497e-14 -30 0 -1 -3.491481338843129805e-15 I I #
point $-1 -60 24.99999999999990052 -29.99999999999990052 #
point $-1 -60 -25 -30.00000000000009948 #
coedge $-1 $120 $205 $206 $207 forward $57 $-1 #
coedge $-1 $208 $209 $120 $158 forward $210 $-1 #
edge $-1 $160 -40 $211 -20 $120 $212 forward 7 unknown #
coedge $-1 $124 $121 $209 $213 reversed $152 $-1 #
vertex $-1 $213 $214 #
ellipse-curve $-1 -60 25.00000000000019895 -49.99999999999990052 0 -1 0 20 0 0 1 I I #
coedge $-1 $215 $123 $216 $217 forward $52 $-1 #
coedge $-1 $209 $208 $123 $164 forward $210 $-1 #
edge $-1 $218 20 $165 40 $123 $219 forward 7 unknown #
vertex $-1 $164 $220 #
ellipse-curve $-1 -60 -24.99999999999980105 -50.00000000000009948 0 1 -0 20 0 0 1 I I #
straight-curve $-1 -60 6.982962677686270497e-14 30 -0 1 3.491481338843129805e-15 I I #
coedge $-1 $128 $221 $222 $223 forward $52 $-1 #
coedge $-1 $224 $225 $128 $170 reversed $226 $-1 #
edge $-1 $227 10 $174 30 $128 $228 forward 7 unknown #
coedge $-1 $137 $129 $225 $229 forward $173 $-1 #
coedge $-1 $129 $137 $131 $176 forward $173 $-1 #
loop $-1 $-1 $171 $230 #
vertex $-1 $130 $231 #
straight-curve $-1 0 -25 50 1 0 0 I I #
edge $-1 $139 -25 $133 25 $172 $232 forward 7 unknown #
face $-1 $233 $234 $2 $-1 $235 reversed single #
point $-1 -40 -25 49.99999999999990052 #
coedge $-1 $236 $136 $237 $238 forward $57 $-1 #
coedge $-1 $225 $224 $136 $181 reversed $226 $-1 #
edge $-1 $182 -30 $239 -10 $136 $240 forward 7 unknown #
vertex $-1 $181 $241 #
straight-curve $-1 0 25 50 -1 0 0 I I #
point $-1 -40 25 50.00000000000009948 #
face $-1 $242 $243 $2 $-1 $244 reversed single #
loop $-1 $245 $246 $142 #
cone-surface $-1 0 0 0 0 0 1 5 0 0 1 I I 0 1 5 forward I I I I #
coedge $-1 $247 $248 $147 $192 forward $143 $-1 #
coedge $-1 $249 $250 $251 $252 reversed $145 $-1 #
coedge $-1 $253 $147 $254 $255 reversed $113 $-1 #
coedge $-1 $147 $253 $256 $257 reversed $113 $-1 #
edge $-1 $258 -25 $259 25 $188 $260 forward 7 unknown #
coedge $-1 $149 $148 $249 $261 reversed $89 $-1 #
coedge $-1 $262 $263 $148 $195 forward $52 $-1 #
edge $-1 $264 15 $201 35 $194 $265 forward 7 unknown #
coedge $-1 $251 $266 $149 $197 forward $57 $-1 #
edge $-1 $202 -35 $267 -15 $196 $268 forward 7 unknown #
coedge $-1 $269 $150 $266 $270 reversed $200 $-1 #
coedge $-1 $150 $269 $262 $271 forward $200 $-1 #
loop $-1 $-1 $150 $272 #
vertex $-1 $271 $273 #
vertex $-1 $270 $274 #
straight-curve $-1 60 0 15 0 1 -0 I I #
face $-1 $177 $275 $2 $-1 $276 reversed single #
coedge $-1 $156 $277 $278 $279 forward $57 $-1 #
coedge $-1 $280 $281 $156 $207 reversed $282 $-1 #
edge $-1 $283 10 $211 30 $156 $284 forward 7 unknown #
coedge $-1 $163 $157 $281 $285 forward $210 $-1 #
coedge $-1 $157 $163 $159 $213 forward $210 $-1 #
loop $-1 $-1 $208 $286 #
vertex $-1 $158 $287 #
straight-curve $-1 0 25 -50 1 0 0 I I #
edge $-1 $165 -25 $160 25 $209 $288 forward 7 unknown #
point $-1 -40 25 -49.99999999999990052 #
coedge $-1 $289 $162 $290 $291 forward $52 $-1 #
coedge $-1 $281 $280 $162 $217 reversed $282 $-1 #
edge $-1 $218 -30 $292 -10 $162 $293 forward 7 unknown #
vertex $-1 $285 $294 #
straight-curve $-1 0 -25 -50 -1 0 0 I I #
point $-1 -40 -25 -50.00000000000009948 #
coedge $-1 $168 $295 $296 $297 forward $52 $-1 #
coedge $-1 $298 $299 $168 $223 reversed $300 $-1 #
edge $-1 $301 -20 $227 20 $168 $302 forward 7 unknown #
coedge $-1 $180 $169 $299 $303 forward $226 $-1 #
coedge $-1 $169 $180 $171 $229 reversed $226 $-1 #
loop $-1 $-1 $180 $304 #
vertex $-1 $223 $305 #
straight-curve $-1 -20 -25 20 -0 0 1 I I #
edge $-1 $174 -25 $182 25 $171 $306 forward 7 unknown #
face $-1 $204 $173 $2 $-1 $307 forward single #
point $-1 -20 -25 50 #
straight-curve $-1 -40 0 50 0 -1 -3.491481338843129805e-15 I I #
face $-1 $308 $309 $2 $-1 $307 forward single #
loop $-1 $132 $310 $177 #
cone-surface $-1 -60 0 50 0 -1 -3.491481338843129805e-15 20 0 0 1 I I 0 1 20 forward I I I I #
coedge $-1 $311 $179 $312 $313 forward $57 $-1 #
coedge $-1 $299 $298 $179 $238 reversed $300 $-1 #
edge $-1 $239 -20 $314 20 $179 $315 forward 7 unknown #
vertex $-1 $238 $316 #
straight-curve $-1 -20 25 20 0 0 -1 I I #
point $-1 -20 25 50 #
face $-1 $317 $318 $2 $-1 $244 reversed single #
loop $-1 $319 $320 $185 #
cone-surface $-1 0 0 -40 1 0 -3.491481338843129805e-15 -1.745740669421570149e-14 0 -5 1 I I 0 1 5 forward I I I I #
loop $-1 $-1 $321 $142 #
coedge $-1 $246 $246 $322 $323 reversed $186 $-1 #
coedge $-1 $324 $188 $325 $326 forward $143 $-1 #
coedge $-1 $188 $324 $327 $328 reversed $143 $-1 #
coedge $-1 $329 $189 $193 $261 forward $145 $-1 #
coedge $-1 $189 $329 $253 $330 forward $145 $-1 #
coedge $-1 $254 $196 $189 $252 forward $57 $-1 #
edge $-1 $267 -15 $331 15 $251 $332 forward 7 unknown #
coedge $-1 $191 $190 $250 $330 reversed $113 $-1 #
coedge $-1 $327 $251 $190 $255 forward $57 $-1 #
edge $-1 $331 15 $258 35 $254 $333 forward 7 unknown #
coedge $-1 $263 $325 $191 $257 forward $52 $-1 #
edge $-1 $259 -35 $334 -15 $256 $335 forward 7 unknown #
vertex $-1 $192 $336 #
vertex $-1 $257 $337 #
straight-curve $-1 60 0 -15 0 -1 0 I I #
edge $-1 $267 -25 $264 25 $249 $338 forward 7 unknown #
coedge $-1 $339 $194 $199 $271 reversed $52 $-1 #
coedge $-1 $194 $256 $329 $340 forward $52 $-1 #
vertex $-1 $195 $341 #
straight-curve $-1 25 -25 15 1 -0 0 I I #
coedge $-1 $196 $342 $198 $270 forward $57 $-1 #
vertex $-1 $197 $343 #
straight-curve $-1 25 25 15 -1 0 0 I I #
coedge $-1 $199 $198 $344 $345 forward $200 $-1 #
edge $-1 $346 -30.00000000000009948 $202 -15 $198 $347 forward 7 unknown #
edge $-1 $348 -29.99999999999990052 $201 -15 $199 $349 forward 7 unknown #
face $-1 $-1 $200 $2 $-1 $144 reversed single #
point $-1 60 -25 15 #
point $-1 60 25 15 #
loop $-1 $152 $350 $204 #
cone-surface $-1 -60 0 -50 0 -1 -3.491481338843129805e-15 20 0 0 1 I I 0 1 20 forward I I I I #
coedge $-1 $205 $351 $352 $353 forward $57 $-1 #
coedge $-1 $354 $355 $205 $279 reversed $356 $-1 #
edge $-1 $357 -20 $283 20 $205 $358 forward 7 unknown #
coedge $-1 $216 $206 $355 $359 forward $282 $-1 #
coedge $-1 $206 $216 $208 $285 reversed $282 $-1 #
loop $-1 $-1 $206 $360 #
vertex $-1 $279 $361 #
straight-curve $-1 -20 25 -20 0 0 -1 I I #
edge $-1 $211 -25 $218 25 $208 $362 forward 7 unknown #
face $-1 $363 $210 $2 $-1 $364 reversed single #
point $-1 -20 25 -50 #
straight-curve $-1 -40 0 -50 -0 1 3.491481338843129805e-15 I I #
coedge $-1 $365 $215 $366 $367 forward $52 $-1 #
coedge $-1 $355 $354 $215 $291 reversed $356 $-1 #
edge $-1 $292 -20 $368 20 $215 $369 forward 7 unknown #
vertex $-1 $291 $370 #
straight-curve $-1 -20 -25 -20 -0 0 1 I I #
point $-1 -20 -25 -50 #
coedge $-1 $221 $339 $371 $372 reversed $52 $-1 #
coedge $-1 $373 $374 $221 $297 reversed $375 $-1 #
edge $-1 $376 -30 $301 -10 $221 $377 forward 7 unknown #
coedge $-1 $237 $222 $374 $378 reversed $300 $-1 #
coedge $-1 $222 $237 $224 $303 reversed $300 $-1 #
loop $-1 $-1 $298 $379 #
vertex $-1 $223 $380 #
straight-curve $-1 0 -25 30 -1 0 0 I I #
edge $-1 $227 -25 $239 25 $224 $381 forward 7 unknown #
face $-1 $382 $383 $2 $-1 $384 forward single #
point $-1 -20 -25 30 #
straight-curve $-1 -20 0 50 0 1 0 I I #
plane-surface $-1 0 0 50 0 0 1 1 0 0 forward_v I I I I #
face $-1 $385 $386 $2 $-1 $387 reversed single #
loop $-1 $-1 $388 $233 #
coedge $-1 $310 $310 $389 $390 forward $234 $-1 #
coedge $-1 $342 $236 $391 $392 reversed $57 $-1 #
coedge $-1 $374 $373 $236 $313 reversed $375 $-1 #
edge $-1 $314 10 $393 30 $236 $394 forward 7 unknown #
vertex $-1 $238 $395 #
straight-curve $-1 0 25 30 1 0 -0 I I #
point $-1 -20 25 30 #
face $-1 $396 $397 $2 $-1 $398 reversed single #
loop $-1 $399 $400 $242 #
loop $-1 $-1 $401 $185 #
coedge $-1 $320 $320 $402 $403 reversed $243 $-1 #
coedge $-1 $321 $321 $404 $405 reversed $245 $-1 #
coedge $-1 $322 $322 $246 $323 forward $406 $-1 #
edge $-1 $407 -3.141592653589799777 $407 3.141592653589786455 $322 $408 forward 7 unknown #
coedge $-1 $248 $247 $409 $410 forward $143 $-1 #
coedge $-1 $256 $411 $247 $326 reversed $52 $-1 #
edge $-1 $259 15 $412 30.00000000000009948 $247 $349 forward 7 unknown #
coedge $-1 $413 $254 $248 $328 forward $57 $-1 #
edge $-1 $258 15 $414 29.99999999999990052 $248 $347 forward 7 unknown #
coedge $-1 $250 $249 $263 $340 reversed $145 $-1 #
edge $-1 $334 -25 $331 25 $250 $415 forward 7 unknown #
vertex $-1 $255 $416 #
straight-curve $-1 40 25 0 0 0 -1 I I #
straight-curve $-1 25 25 -15 1 0 -0 I I #
vertex $-1 $257 $417 #
straight-curve $-1 25 -25 -15 -1 0 0 I I #
point $-1 60 25 -15 #
point $-1 60 -25 -15 #
straight-curve $-1 40 0 15 0 -1 0 I I #
coedge $-1 $295 $262 $418 $419 forward $52 $-1 #
edge $-1 $334 -15 $264 15 $263 $420 forward 7 unknown #
point $-1 40 -25 15 #
coedge $-1 $266 $311 $421 $422 forward $57 $-1 #
point $-1 40 25 15 #
coedge $-1 $421 $418 $269 $345 reversed $423 $-1 #
edge $-1 $346 -24.99999999999992895 $348 25.00000000000007105 $269 $424 forward 7 unknown #
vertex $-1 $422 $425 #
straight-curve $-1 60 25 0 0 0 -1 I I #
vertex $-1 $419 $426 #
straight-curve $-1 60 -25 0 0 0 -1 I I #
coedge $-1 $350 $350 $427 $428 forward $275 $-1 #
coedge $-1 $277 $413 $429 $430 reversed $57 $-1 #
coedge $-1 $431 $432 $277 $353 reversed $433 $-1 #
edge $-1 $434 -30 $357 -10 $277 $435 forward 7 unknown #
coedge $-1 $290 $278 $432 $436 reversed $356 $-1 #
coedge $-1 $278 $290 $280 $359 reversed $356 $-1 #
loop $-1 $-1 $354 $437 #
vertex $-1 $279 $438 #
straight-curve $-1 0 25 -30 -1 0 0 I I #
edge $-1 $283 -25 $292 25 $280 $439 forward 7 unknown #
face $-1 $440 $441 $2 $-1 $442 forward single #
point $-1 -20 25 -30 #
straight-curve $-1 -20 0 -50 0 -1 0 I I #
face $-1 $379 $443 $2 $-1 $364 reversed single #
plane-surface $-1 0 0 -50 0 0 1 1 0 0 forward_v I I I I #
coedge $-1 $411 $289 $444 $445 reversed $52 $-1 #
coedge $-1 $432 $431 $289 $367 reversed $433 $-1 #
edge $-1 $368 10 $446 30 $289 $447 forward 7 unknown #
vertex $-1 $291 $448 #
straight-curve $-1 0 -25 -30 1 -0 0 I I #
point $-1 -20 -25 -30 #
coedge $-1 $449 $388 $295 $372 forward $309 $-1 #
edge $-1 $376 20 $450 40 $295 $175 forward 7 unknown #
coedge $-1 $312 $296 $388 $451 reversed $375 $-1 #
coedge $-1 $296 $312 $298 $378 forward $375 $-1 #
loop $-1 $-1 $296 $382 #
vertex $-1 $451 $452 #
straight-curve $-1 20 -25 20 -0 0 -1 I I #
edge $-1 $314 -25 $301 25 $374 $453 forward 7 unknown #
face $-1 $304 $454 $2 $-1 $455 forward single #
point $-1 20 -25 30 #
straight-curve $-1 -20 0 30 0 1 0 I I #
face $-1 $230 $456 $2 $-1 $457 forward single #
loop $-1 $226 $458 $304 #
plane-surface $-1 -20 0 40 1 0 0 0 0 -1 forward_v I I I I #
face $-1 $272 $459 $2 $-1 $460 reversed single #
loop $-1 $461 $402 $308 #
cone-surface $-1 60 0 -50 0 -1 -3.491481338843129805e-15 20 0 0 1 I I 0 1 20 forward I I I I #
coedge $-1 $371 $391 $373 $451 forward $309 $-1 #
coedge $-1 $389 $389 $310 $390 reversed $462 $-1 #
edge $-1 $463 0 $463 33.03954535187470043 $310 $464 forward 7 unknown #
coedge $-1 $388 $449 $311 $392 forward $309 $-1 #
edge $-1 $465 -40 $393 -20 $311 $183 forward 7 unknown #
vertex $-1 $392 $466 #
straight-curve $-1 20 25 20 0 0 1 I I #
point $-1 20 25 30 #
face $-1 $437 $467 $2 $-1 $398 reversed single #
loop $-1 $468 $469 $317 #
cone-surface $-1 0 0 40 1 0 -3.491481338843129805e-15 -1.745740669421570149e-14 0 -5 1 I I 0 1 5 forward I I I I #
loop $-1 $-1 $427 $242 #
coedge $-1 $400 $400 $470 $471 reversed $318 $-1 #
coedge $-1 $401 $401 $472 $473 reversed $319 $-1 #
coedge $-1 $402 $402 $320 $403 forward $386 $-1 #
edge $-1 $474 0 $474 33.03954535187470043 $402 $475 forward 7 unknown #
coedge $-1 $404 $404 $321 $405 forward $454 $-1 #
edge $-1 $476 -3.141592653589799777 $476 3.141592653589786455 $404 $477 forward 7 unknown #
loop $-1 $356 $322 $437 #
vertex $-1 $323 $478 #
ellipse-curve $-1 0 0 -30 0 0 1 5 0 0 1 I I #
coedge $-1 $479 $480 $324 $410 reversed $461 $-1 #
edge $-1 $412 -24.99999999999992895 $414 25.00000000000007105 $324 $481 forward 7 unknown #
coedge $-1 $325 $365 $479 $482 forward $52 $-1 #
vertex $-1 $326 $483 #
coedge $-1 $351 $327 $480 $484 forward $57 $-1 #
vertex $-1 $328 $485 #
straight-curve $-1 40 0 -15 0 1 0 I I #
point $-1 40 25 -15 #
point $-1 40 -25 -15 #
coedge $-1 $344 $486 $339 $419 reversed $423 $-1 #
edge $-1 $348 1.570796326794896558 $450 3.141592653589798001 $339 $487 forward 7 unknown #
straight-curve $-1 40 -25 0 -0 0 1 I I #
coedge $-1 $486 $344 $342 $422 reversed $423 $-1 #
edge $-1 $465 -3.141592653589788231 $346 -1.570796326794896558 $342 $488 forward 7 unknown #
loop $-1 $-1 $344 $385 #
straight-curve $-1 60 6.982962677686270497e-14 30 0 -1 -3.491481338843129805e-15 I I #
point $-1 60 25 30.00000000000009948 #
point $-1 60 -25 29.99999999999990052 #
coedge $-1 $427 $427 $350 $428 reversed $399 $-1 #
edge $-1 $489 0 $489 33.03954535187499886 $350 $490 forward 7 unknown #
coedge $-1 $491 $492 $351 $430 forward $443 $-1 #
edge $-1 $434 20 $493 40 $351 $212 forward 7 unknown #
coedge $-1 $366 $352 $492 $494 reversed $433 $-1 #
coedge $-1 $352 $366 $354 $436 forward $433 $-1 #
loop $-1 $-1 $366 $440 #
vertex $-1 $353 $495 #
straight-curve $-1 20 25 -20 0 0 1 I I #
edge $-1 $368 -25 $357 25 $432 $496 forward 7 unknown #
face $-1 $360 $406 $2 $-1 $497 reversed single #
point $-1 20 25 -30 #
straight-curve $-1 -20 0 -30 0 -1 0 I I #
face $-1 $286 $498 $2 $-1 $499 forward single #
loop $-1 $282 $470 $360 #
plane-surface $-1 -20 0 -40 1 0 0 0 0 -1 forward_v I I I I #
loop $-1 $-1 $492 $363 #
coedge $-1 $492 $491 $365 $445 forward $443 $-1 #
edge $-1 $500 -40 $446 -20 $365 $219 forward 7 unknown #
vertex $-1 $445 $501 #
straight-curve $-1 20 -25 -20 -0 0 -1 I I #
point $-1 20 -25 -30 #
coedge $-1 $391 $371 $486 $502 forward $309 $-1 #
vertex $-1 $372 $503 #
edge $-1 $393 -25 $376 25 $388 $504 forward 7 unknown #
point $-1 20 -25 50 #
straight-curve $-1 20 0 30 0 -1 0 I I #
loop $-1 $300 $404 $379 #
plane-surface $-1 0 0 30 0 0 1 1 0 0 forward_v I I I I #
loop $-1 $375 $505 $382 #
plane-surface $-1 20 0 40 -1 0 0 0 0 1 forward_v I I I I #
coedge $-1 $458 $458 $506 $507 forward $383 $-1 #
loop $-1 $423 $508 $385 #
cone-surface $-1 60 0 50 0 -1 -3.491481338843129805e-15 20 0 0 1 I I 0 1 20 forward I I I I #
loop $-1 $-1 $509 $308 #
loop $-1 $-1 $389 $396 #
vertex $-1 $390 $510 #
intcurve-curve $-1 forward { surfintcur full nubs 3 periodic 33 
	0 3 0.9341854946038370411 2 1.868370989207670085 2 2.802556483811510013 2 3.736741978415349941 2 
	4.774730625318960087 2 5.812719272222570233 2 6.85070791912616972 2 7.888696566029779866 2 9.08079408797719978 2 
	10.27289160992459927 2 11.46498913187200053 2 12.65708665381949949 2 13.62170051355809974 2 14.58631437329679947 2 
	15.55092823303539973 2 16.51554209277410123 2 17.55175778793950059 2 18.58797348310489994 2 19.62418917827019982 2 
	20.66040487343559917 2 21.7830447750402989 2 22.90568467664499863 2 24.02832457824959889 2 25.15096447985429862 2 
	26.17171516951890098 2 27.19246585918340031 2 28.21321654884799912 2 29.23396723851260148 2 30.18536176685309869 2 
	31.13675629519359944 2 32.08815082353419967 2 33.03954535187470043 3 
	-40.63508326896290157 -1.745740669421570149e-14 45.00000000000009948 
	-40.63508326896290157 -0.3113951648679629813 45.00000000000009948 
	-40.6426375231891015 -0.6331628470102510509 44.97042405333370141 
	-40.67530439690580124 -1.272415463828169946 44.8463356616265969 
	-40.70042607492209896 -1.589904376246970008 44.75184609424390203 
	-40.76979978964349982 -2.19773998710476981 44.5030850333647976 
	-40.81417072355080222 -2.488603501829039999 44.34859924765800088 
	-40.92223957116159738 -3.025286012920500145 43.9938837411853001 
	-40.98602842110499722 -3.271087651311169964 43.79365546889120253 
	-41.1372455030727977 -3.729444512501479903 43.34733068907289777 
	-41.23181503231290179 -3.951609916979970105 43.082724638095101 
	-41.45201019376069951 -4.336671920420820392 42.51230746045580133 
	-41.57772055234320163 -4.499602754624340228 42.20655215591239795 
	-41.85647840057850289 -4.756611494631219905 41.57795544374739904 
	-42.00982525275620105 -4.850961903536529896 41.25459252747509709 
	-42.33482668799850046 -4.972633320920840205 40.61542802482360059 
	-42.50649381649390079 -5 40.29964151235289904 
	-42.87817484463570139 -5 39.655871087401799 
	-43.09408694610490187 -4.964017269326410187 39.306109682021102 
	-43.54806010035650132 -4.81858257025495984 38.62006766919210321 
	-43.78612022559160266 -4.709240542232310034 38.28376314620840049 
	-44.26770713110150268 -4.424326777174900194 37.64463421823710121 
	-44.51141230815350269 -4.248692329621490238 37.34149841955370164 
	-44.98502800922810252 -3.843307712138550158 36.78316879632649972 
	-45.21487591235280235 -3.613528365463559933 36.52794303905380247 
	-45.59922556748389866 -3.164187891078690029 36.11905290031560156 
	-45.7719815983491003 -2.936709109981430199 35.94244492168579796 
	-46.09418444006070104 -2.436289865949460065 35.62364246288829861 
	-46.24354700197090295 -2.163320630380610066 35.48140800659889749 
	-46.49498109611970165 -1.583945017737180105 35.24723825392680254 
	-46.59710324931440084 -1.276868444931479996 35.15510327162559889 
	-46.73534412991030251 -0.6456957220391920105 35.03144947351670169 
	-46.77124344467689809 -0.3215379532461999923 35.00000000000019895 
	-46.77124344467689809 0.3454052317218149759 35.00000000000019895 
	-46.72987628133579818 0.6913326072389880395 35.03621397020680206 
	-46.57313392351790071 1.36119452294338994 35.17669594234330077 
	-46.45802087899210164 1.685204089236910008 35.28089854949880078 
	-46.17688035718420281 2.293310092902869801 35.54460283190960013 
	-46.01078898437599918 2.578099645742959911 35.7043483715708021 
	-45.65454969373070071 3.096817254009540221 36.06186038861159915 
	-45.46448314280190317 3.330757728559679887 36.25968991669439845 
	-45.07228159158670167 3.757389170902860176 36.68632135903759917 
	-44.85347743620560124 3.963432312454000073 36.93455202169199936 
	-44.40457075008109911 4.327133607844049656 37.47380092925440209 
	-44.17452371142569945 4.484821922610430001 37.76484502500129992 
	-43.7206925831617994 4.740312630450950415 38.37550570622949664 
	-43.49674194034869856 4.838176552843170164 38.69540998742070315 
	-43.06969488755350284 4.968065990144410193 39.34560885184829715 
	-42.86659857457860312 5 39.6759217753030029 
	-42.50936680936700185 5 40.29466534272690126 
	-42.3403502368816973 4.973537179148910248 40.60524678953790101 
	-42.01980733424500158 4.855807872131769898 41.23431181590670036 
	-41.86827007004300327 4.764496373036900323 41.55278139888520172 
	-41.59216402368529941 4.515634376674049655 42.17269484829090231 
	-41.46731053513330068 4.35782627531424982 42.47463516079619694 
	-41.24798091795489796 3.984727696530280028 43.03914695557949699 
	-41.15342519587230186 3.769402951357419873 43.30166486050819685 
	-40.99909342132320234 3.317555380502120066 43.75351243136349666 
	-40.93284614372870323 3.069943168632649932 43.96010635425530211 
	-40.8206898588680005 2.527848229822640125 44.32631213984610241 
	-40.7746839350946999 2.23338473946381999 44.48592278961270097 
	-40.7027827272344993 1.617010760112360002 44.74307794160699814 
	-40.67676001412799991 1.294559365535969953 44.84085189528010318 
	-40.64291539381979845 0.644621913881188946 44.96932526752200232 
	-40.63508326896290157 0.3171315094468279971 45.00000000000009948 
	-40.63508326896290157 -1.745740669421570149e-14 45.00000000000009948 
	0.001000000000000000021 
	cone 0 0 40 1 0 -3.491481338843129805e-15 -1.745740669421570149e-14 0 -5 1 I I 0 1 5 forward I I I I 
	cone -60 0 50 0 -1 -3.491481338843129805e-15 20 0 0 1 I I -0 -1 20 forward I I I I 
	nullbs 
	nullbs 
	I I 
	0 
	0 
	0 
	} I I #
vertex $-1 $502 $511 #
point $-1 20 25 50 #
loop $-1 $462 $506 $396 #
loop $-1 $-1 $512 $317 #
coedge $-1 $469 $469 $508 $513 reversed $397 $-1 #
coedge $-1 $470 $470 $400 $471 forward $441 $-1 #
edge $-1 $514 -3.141592653589799777 $514 3.141592653589786455 $470 $515 forward 7 unknown #
coedge $-1 $472 $472 $401 $473 forward $498 $-1 #
edge $-1 $516 -3.141592653589799777 $516 3.141592653589786455 $472 $517 forward 7 unknown #
vertex $-1 $403 $518 #
intcurve-curve $-1 forward { surfintcur full nubs 3 periodic 33 
	0 3 1.036215695165390027 2 2.072431390330780054 2 3.108647085496179852 2 4.144862780661569879 2 
	5.267502682266240299 2 6.390142583870919601 2 7.512782485475590022 2 8.635422387080259554 2 9.656173076744819284 2 
	10.67692376640940033 2 11.69767445607389966 2 12.71842514573850025 2 13.66981967407899923 2 14.62121420241959946 2 
	15.57260873076010022 2 16.52400325910059919 2 17.45818875370450129 2 18.39237424830839984 2 19.32655974291219891 2 
	20.26074523751610101 2 21.2987338844197005 2 22.33672253132329999 2 23.37471117822689948 2 24.41269982513049897 2 
	25.60479734707789845 2 26.79689486902530149 2 27.98899239097280045 2 29.18108991292019994 2 30.14570377265879841 2 
	31.11031763239740044 2 32.07493149213610195 2 33.03954535187470043 3 
	46.77124344467689809 -1.745740669421570149e-14 -35.00000000000019895 
	46.77124344467689809 0.3454052317217800039 -35.00000000000019895 
	46.72987628133579818 0.6913326072389479604 -35.03621397020680206 
	46.57313392351790071 1.36119452294333998 -35.17669594234330077 
	46.45802087899210164 1.68520408923687004 -35.28089854949880078 
	46.17688035718420281 2.293310092902829833 -35.54460283190950065 
	46.01078898437599918 2.578099645742910173 -35.70434837157070262 
	45.65454969373070071 3.096817254009510023 -36.06186038861159915 
	45.46448314280190317 3.330757728559659903 -36.25968991669429897 
	45.07228159158670167 3.757389170902840192 -36.68632135903749969 
	44.85347743620560124 3.963432312453980089 -36.93455202169199936 
	44.40457075008109911 4.327133607844030116 -37.47380092925440209 
	44.17452371142569945 4.484821922610409572 -37.76484502500129992 
	43.7206925831617994 4.740312630450939757 -38.37550570622949664 
	43.49674194034869856 4.838176552843170164 -38.69540998742059656 
	43.06969488755350284 4.968065990144410193 -39.34560885184819767 
	42.86659857457860312 5 -39.67592177530290343 
	42.50936680936700185 5 -40.29466534272680178 
	42.3403502368816973 4.973537179148910248 -40.60524678953780153 
	42.01980733424500158 4.855807872131769898 -41.23431181590670036 
	41.86827007004300327 4.764496373036910093 -41.55278139888520172 
	41.59216402368529941 4.515634376674060313 -42.17269484829090231 
	41.46731053513330068 4.357826275314270248 -42.47463516079619694 
	41.24798091795489796 3.984727696530300012 -43.03914695557939751 
	41.15342519587230186 3.769402951357439857 -43.30166486050819685 
	40.99909342132320234 3.31755538050214982 -43.75351243136349666 
	40.93284614372870323 3.069943168632680131 -43.96010635425520263 
	40.8206898588680005 2.527848229822669879 -44.32631213984610241 
	40.7746839350946999 2.233384739463850188 -44.48592278961270097 
	40.7027827272344993 1.61701076011239997 -44.74307794160699814 
	40.67676001412799991 1.294559365535999929 -44.84085189528010318 
	40.64291539381979845 0.6446219138812210314 -44.96932526752200232 
	40.63508326896290157 0.3171315094468630247 -45.00000000000009948 
	40.63508326896290157 -0.3113951648679350037 -45.00000000000009948 
	40.6426375231891015 -0.6331628470102289574 -44.97042405333370141 
	40.67530439690580124 -1.272415463828159954 -44.8463356616265969 
	40.70042607492209896 -1.589904376246970008 -44.75184609424390203 
	40.76979978964349982 -2.19773998710476981 -44.5030850333647976 
	40.81417072355080222 -2.488603501829050213 -44.34859924765800088 
	40.92223957116159738 -3.025286012920509915 -43.9938837411853001 
	40.98602842110499722 -3.271087651311200162 -43.79365546889120253 
	41.1372455030727977 -3.729444512501499887 -43.34733068907289777 
	41.23181503231290179 -3.951609916979979875 -43.082724638095101 
	41.45201019376069951 -4.336671920420839932 -42.51230746045580133 
	41.57772055234320163 -4.499602754624359768 -42.20655215591239795 
	41.85647840057850289 -4.756611494631240333 -41.57795544374729957 
	42.00982525275620105 -4.850961903536539666 -41.25459252747509709 
	42.33482668799850046 -4.972633320920840205 -40.61542802482350112 
	42.50649381649390079 -5 -40.29964151235289904 
	42.87817484463580087 -5 -39.655871087401799 
	43.09408694610490187 -4.964017269326400417 -39.30610968202100253 
	43.5480601003566008 -4.81858257025495007 -38.62006766919199663 
	43.78612022559170214 -4.709240542232300264 -38.28376314620840049 
	44.26770713110150268 -4.424326777174890424 -37.64463421823710121 
	44.51141230815360217 -4.24869232962146981 -37.34149841955370164 
	44.98502800922810252 -3.843307712138530174 -36.78316879632649972 
	45.21487591235280235 -3.613528365463539949 -36.52794303905380247 
	45.59922556748389866 -3.164187891078670045 -36.11905290031560156 
	45.7719815983491003 -2.936709109981410215 -35.94244492168579796 
	46.09418444006070104 -2.436289865949460065 -35.62364246288829861 
	46.24354700197090295 -2.163320630380610066 -35.48140800659879801 
	46.49498109611970165 -1.583945017737190097 -35.24723825392680254 
	46.59710324931440084 -1.276868444931489988 -35.15510327162559889 
	46.73534412991030251 -0.6456957220392129937 -35.03144947351670169 
	46.77124344467689809 -0.3215379532462290246 -35.00000000000019895 
	46.77124344467689809 -1.745740669421570149e-14 -35.00000000000019895 
	0.001000000000000000021 
	cone 0 0 -40 1 0 -3.491481338843129805e-15 -1.745740669421570149e-14 0 -5 1 I I 0 1 5 forward I I I I 
	cone 60 0 -50 0 -1 -3.491481338843129805e-15 20 0 0 1 I I -0 -1 20 forward I I I I 
	nullbs 
	nullbs 
	I I 
	0 
	0 
	0 
	} I I #
vertex $-1 $405 $519 #
ellipse-curve $-1 0 0 30 -0 -0 -1 5 0 0 1 I I #
point $-1 -5 3.4914813388431302e-14 -30 #
coedge $-1 $509 $409 $411 $482 reversed $461 $-1 #
coedge $-1 $409 $509 $413 $484 reversed $461 $-1 #
straight-curve $-1 60 -6.982962677686270497e-14 -30 -0 1 3.491481338843129805e-15 I I #
edge $-1 $500 -3.141592653589788231 $412 -1.570796326794896558 $411 $520 forward 7 unknown #
point $-1 60 -25 -30.00000000000009948 #
edge $-1 $414 1.570796326794896558 $493 3.141592653589798001 $413 $521 forward 7 unknown #
point $-1 60 25 -29.99999999999990052 #
coedge $-1 $418 $421 $449 $502 reversed $423 $-1 #
ellipse-curve $-1 60 -25.00000000000019895 49.99999999999990052 0 1 -0 20 0 0 1 I I #
ellipse-curve $-1 60 24.99999999999980105 50.00000000000009948 0 -1 0 20 0 0 1 I I #
vertex $-1 $428 $522 #
intcurve-curve $-1 forward { surfintcur full nubs 3 periodic 33 
	0 3 0.9646138597386549884 2 1.929227719477309977 2 2.893841579215960191 2 3.858455438954619954 2 
	5.050552960902069621 2 6.242650482849519733 2 7.434748004796960075 2 8.626845526744409298 2 9.664834173648030102 2 
	10.70282282055159939 2 11.74081146745530013 2 12.77880011435889962 2 13.71298560896270047 2 14.64717110356660079 2 
	15.58135659817039986 2 16.51554209277420071 2 17.46693662111480094 2 18.4183311494553017 2 19.36972567779589838 2 
	20.32112020613649861 2 21.3418708958010015 2 22.3626215854656003 2 23.38337227513009964 2 24.40412296479469845 2 
	25.52676286639940173 2 26.64940276800410146 2 27.77204266960880119 2 28.89468257121350092 2 29.93089826637890027 2 
	30.96711396154420015 2 32.00332965670960306 2 33.03954535187499886 3 
	-46.77124344467719652 -1.745740669421570149e-14 -34.99999999999980105 
	-46.77124344467719652 -0.321537953246236019 -34.99999999999980105 
	-46.73534412991060094 -0.6456957220392289809 -35.03144947351640326 
	-46.59710324931479875 -1.276868444931519964 -35.15510327162530047 
	-46.49498109612000007 -1.583945017737220073 -35.24723825392639753 
	-46.24354700197120138 -2.16332063038063982 -35.48140800659849958 
	-46.09418444006099946 -2.436289865949489819 -35.62364246288800018 
	-45.77198159834939872 -2.936709109981439969 -35.94244492168549954 
	-45.59922556748419709 -3.164187891078699799 -36.11905290031530313 
	-45.21487591235310077 -3.613528365463570147 -36.52794303905349693 
	-44.98502800922840095 -3.843307712138559928 -36.78316879632630076 
	-44.51141230815380112 -4.248692329621500008 -37.34149841955340321 
	-44.26770713110170163 -4.424326777174919734 -37.64463421823690226 
	-43.78612022559190109 -4.709240542232319804 -38.28376314620810206 
	-43.54806010035670027 -4.81858257025496961 -38.62006766919179768 
	-43.09408694610500135 -4.964017269326410187 -39.30610968202079647 
	-42.87817484463590034 -5 -39.65587108740160005 
	-42.50649381649400027 -5 -40.29964151235270009 
	-42.33482668799859994 -4.972633320920840205 -40.61542802482330217 
	-42.0098252527564 -4.850961903536520126 -41.25459252747479866 
	-41.85647840057860236 -4.756611494631219905 -41.57795544374710062 
	-41.57772055234330111 -4.49960275462432957 -42.206552155912199 
	-41.45201019376079898 -4.336671920420809734 -42.51230746045560238 
	-41.23181503231300127 -3.951609916979939907 -43.08272463809480257 
	-41.13724550307289718 -3.729444512501450149 -43.34733068907269882 
	-40.9860284211050967 -3.27108765131114021 -43.79365546889099647 
	-40.92223957116169686 -3.025286012920469947 -43.99388374118510114 
	-40.81417072355080222 -2.488603501829000031 -44.34859924765770245 
	-40.7697997896435993 -2.197739987104729842 -44.50308503336449917 
	-40.70042607492219844 -1.589904376246940032 -44.7518460942435965 
	-40.67530439690590072 -1.272415463828129978 -44.84633566162629847 
	-40.64263752318920098 -0.6331628470102139694 -44.97042405333340298 
	-40.63508326896300105 -0.3113951648679270101 -44.99999999999990052 
	-40.63508326896300105 0.3171315094468700191 -44.99999999999990052 
	-40.64291539381989793 0.6446219138812350202 -44.96932526752169679 
	-40.67676001412799991 1.294559365536029905 -44.84085189527979765 
	-40.70278272723459878 1.617010760112429946 -44.74307794160669971 
	-40.77468393509479938 2.233384739463890156 -44.48592278961240254 
	-40.82068985886809998 2.527848229822709847 -44.32631213984579688 
	-40.93284614372870323 3.069943168632729869 -43.9601063542548971 
	-40.99909342132330181 3.317555380502200002 -43.75351243136309876 
	-41.15342519587240133 3.769402951357490039 -43.30166486050779895 
	-41.24798091795499744 3.984727696530350194 -43.03914695557909909 
	-41.46731053513340015 4.357826275314310216 -42.47463516079579904 
	-41.59216402368539889 4.515634376674100281 -42.1726948482904973 
	-41.86827007004320222 4.764496373036929633 -41.55278139888479672 
	-42.01980733424510106 4.855807872131790326 -41.23431181590630246 
	-42.34035023688190336 4.973537179148920018 -40.6052467895375031 
	-42.5093668093672008 5 -40.29466534272650335 
	-42.86659857457880207 5 -39.67592177530259789 
	-43.06969488755370179 4.968065990144400423 -39.34560885184789925 
	-43.49674194034889751 4.838176552843149736 -38.69540998742029814 
	-43.72069258316209783 4.740312630450920217 -38.37550570622909873 
	-44.1745237114258984 4.484821922610380263 -37.76484502500090201 
	-44.40457075008139753 4.327133607843999918 -37.47380092925399708 
	-44.85347743620599914 3.963432312453940121 -36.93455202169160145 
	-45.07228159158700009 3.75738917090279001 -36.68632135903720126 
	-45.4644831428022016 3.330757728559610165 -36.25968991669400054 
	-45.65454969373109861 3.096817254009470055 -36.06186038861120124 
	-46.01078898437639708 2.578099645742879975 -35.70434837157039709 
	-46.17688035718460071 2.293310092902800079 -35.54460283190920222 
	-46.45802087899249955 1.685204089236850056 -35.28089854949850235 
	-46.57313392351829862 1.361194522943329988 -35.17669594234300234 
	-46.72987628133609661 0.6913326072389439636 -35.03621397020649653 
	-46.77124344467719652 0.3454052317217760071 -34.99999999999980105 
	-46.77124344467719652 -1.745740669421570149e-14 -34.99999999999980105 
	0.001000000000000000021 
	cone 0 0 -40 1 0 -3.491481338843129805e-15 -1.745740669421570149e-14 0 -5 1 I I 0 1 5 forward I I I I 
	cone -60 0 -50 0 -1 -3.491481338843129805e-15 20 0 0 1 I I -0 -1 20 forward I I I I 
	nullbs 
	nullbs 
	I I 
	0 
	0 
	0 
	} I I #
coedge $-1 $444 $429 $509 $523 forward $443 $-1 #
coedge $-1 $429 $444 $431 $494 forward $443 $-1 #
vertex $-1 $430 $524 #
edge $-1 $446 -25 $434 25 $492 $525 forward 7 unknown #
point $-1 20 25 -50 #
straight-curve $-1 20 0 -30 0 1 0 I I #
plane-surface $-1 0 0 -30 0 0 1 1 0 0 forward_v I I I I #
loop $-1 $433 $472 $440 #
plane-surface $-1 20 0 -40 -1 0 0 0 0 1 forward_v I I I I #
vertex $-1 $482 $526 #
point $-1 20 -25 -50 #
edge $-1 $450 -25 $465 25 $449 $527 forward 7 unknown #
point $-1 40 -25 50 #
straight-curve $-1 20 0 50 0 -1 0 I I #
coedge $-1 $505 $505 $512 $528 forward $456 $-1 #
coedge $-1 $506 $506 $458 $507 reversed $467 $-1 #
edge $-1 $529 -3.141592653589799777 $529 3.141592653589786455 $458 $530 forward 7 unknown #
coedge $-1 $508 $508 $469 $513 forward $459 $-1 #
coedge $-1 $480 $479 $491 $523 reversed $461 $-1 #
point $-1 -40.63508326896290157 -1.745740669421570149e-14 45.00000000000009948 #
point $-1 40 25 50 #
coedge $-1 $512 $512 $505 $528 reversed $468 $-1 #
edge $-1 $531 0 $531 33.03954535187499886 $508 $532 forward 7 unknown #
vertex $-1 $471 $533 #
ellipse-curve $-1 -20 0 -39.99999999999990052 -1 -0 -0 -1.745740669421570149e-14 0 -5 1 I I #
vertex $-1 $473 $534 #
ellipse-curve $-1 20 0 -40.00000000000009948 1 -0 -0 -1.745740669421570149e-14 0 -5 1 I I #
point $-1 46.77124344467689809 -1.745740669421570149e-14 -35.00000000000019895 #
point $-1 -5 -3.4914813388431302e-14 30 #
ellipse-curve $-1 60 -24.99999999999980105 -50.00000000000009948 0 1 -0 20 0 0 1 I I #
ellipse-curve $-1 60 25.00000000000019895 -49.99999999999990052 0 -1 0 20 0 0 1 I I #
point $-1 -46.77124344467719652 -1.745740669421570149e-14 -34.99999999999980105 #
edge $-1 $493 -25 $500 25 $491 $535 forward 7 unknown #
point $-1 40 25 -50 #
straight-curve $-1 20 0 -50 0 1 -0 I I #
point $-1 40 -25 -50 #
straight-curve $-1 40 0 50 -0 1 3.491481338843129805e-15 I I #
edge $-1 $536 -3.141592653589799777 $536 3.141592653589786455 $505 $537 forward 7 unknown #
vertex $-1 $507 $538 #
ellipse-curve $-1 -20 0 40.00000000000009948 -1 -0 -0 -1.745740669421570149e-14 0 -5 1 I I #
vertex $-1 $513 $539 #
intcurve-curve $-1 forward { surfintcur full nubs 3 periodic 33 
	0 3 0.9513945283405560449 2 1.902789056681110091 2 2.854183585021670133 2 3.805578113362229953 2 
	4.826328803026790126 2 5.847079492691359626 2 6.867830182355920243 2 7.888580872020489743 2 9.011220773625190361 2 
	10.13386067522990075 2 11.25650057683460048 2 12.37914047843930021 2 13.41535617360460009 2 14.45157186876999944 2 
	15.48778756393540057 2 16.5240032591008017 2 17.48861711883949965 2 18.45323097857810168 2 19.41784483831679964 2 
	20.38245869805550115 2 21.57455622000290063 2 22.76665374195039959 2 23.95875126389779908 2 25.15084878584530159 2 
	26.18883743274890108 2 27.22682607965250057 2 28.26481472655610006 2 29.30280337345969954 2 30.23698886806360164 2 
	31.17117436266740071 2 32.10535985727120334 2 33.03954535187499886 3 
	40.63508326896300105 -1.745740669421570149e-14 44.99999999999990052 
	40.63508326896300105 0.3171315094468349916 44.99999999999990052 
	40.64291539381989793 0.6446219138812010474 44.96932526752169679 
	40.67676001412799991 1.294559365535989937 44.84085189527979765 
	40.70278272723459878 1.617010760112389978 44.74307794160669971 
	40.77468393509479938 2.233384739463859958 44.48592278961240254 
	40.82068985886809998 2.527848229822689863 44.32631213984579688 
	40.9328461437288027 3.069943168632700115 43.9601063542548971 
	40.99909342132330181 3.317555380502169804 43.75351243136319823 
	41.15342519587240133 3.769402951357470055 43.30166486050789842 
	41.24798091795499744 3.98472769653033021 43.03914695557909909 
	41.46731053513340015 4.357826275314299558 42.47463516079589851 
	41.59216402368539889 4.515634376674079853 42.1726948482904973 
	41.86827007004320222 4.764496373036919863 41.5527813988849033 
	42.01980733424510106 4.855807872131779668 41.23431181590640193 
	42.34035023688190336 4.973537179148910248 40.6052467895375031 
	42.5093668093672008 5 40.29466534272650335 
	42.86659857457880207 5 39.67592177530259789 
	43.06969488755370179 4.968065990144400423 39.34560885184789925 
	43.49674194034889751 4.838176552843149736 38.69540998742029814 
	43.72069258316209783 4.740312630450929987 38.37550570622909873 
	44.17452371142599787 4.484821922610399803 37.76484502500090201 
	44.40457075008139753 4.327133607844009688 37.47380092925409656 
	44.85347743620599914 3.963432312453960105 36.93455202169170093 
	45.07228159158700009 3.757389170902820208 36.68632135903720126 
	45.4644831428022016 3.330757728559639919 36.25968991669400054 
	45.65454969373109861 3.096817254009490039 36.06186038861120124 
	46.01078898437639708 2.578099645742910173 35.70434837157039709 
	46.17688035718460071 2.293310092902829833 35.54460283190920222 
	46.45802087899249955 1.685204089236880032 35.28089854949850235 
	46.57313392351829862 1.361194522943359964 35.17669594234300234 
	46.72987628133609661 0.6913326072389780474 35.03621397020649653 
	46.77124344467719652 0.3454052317218109791 34.99999999999980105 
	46.77124344467719652 -0.3215379532462079859 34.99999999999980105 
	46.73534412991070042 -0.6456957220392099961 35.03144947351640326 
	46.59710324931479875 -1.276868444931509972 35.15510327162530047 
	46.49498109612000007 -1.583945017737210081 35.24723825392639753 
	46.24354700197120138 -2.163320630380650034 35.48140800659849958 
	46.09418444006099946 -2.436289865949509803 35.62364246288800018 
	45.77198159834939872 -2.936709109981470167 35.94244492168549954 
	45.59922556748419709 -3.164187891078729997 36.11905290031530313 
	45.2148759123530013 -3.613528365463599901 36.52794303905349693 
	44.98502800922830147 -3.843307712138590126 36.78316879632630076 
	44.51141230815370164 -4.248692329621520436 37.34149841955350269 
	44.26770713110170163 -4.424326777174940162 37.64463421823690226 
	43.78612022559180161 -4.709240542232329574 38.28376314620810206 
	43.54806010035670027 -4.818582570254980268 38.62006766919179768 
	43.09408694610500135 -4.964017269326419957 39.30610968202079647 
	42.87817484463590034 -5 39.65587108740160005 
	42.50649381649400027 -5 40.29964151235270009 
	42.33482668799859994 -4.972633320920830435 40.61542802482330217 
	42.00982525275630053 -4.850961903536510356 41.25459252747489813 
	41.85647840057860236 -4.756611494631210135 41.57795544374710062 
	41.57772055234330111 -4.4996027546243198 42.206552155912199 
	41.45201019376069951 -4.336671920420799964 42.51230746045560238 
	41.23181503231300127 -3.951609916979930137 43.08272463809490205 
	41.13724550307289718 -3.729444512501430165 43.34733068907269882 
	40.9860284211050967 -3.271087651311119782 43.79365546889099647 
	40.92223957116169686 -3.025286012920449963 43.99388374118510114 
	40.8141707235509017 -2.488603501828989817 44.34859924765770245 
	40.7697997896435993 -2.197739987104729842 44.50308503336449917 
	40.70042607492219844 -1.589904376246940032 44.7518460942435965 
	40.67530439690590072 -1.27241546382813997 44.84633566162629847 
	40.64263752318920098 -0.633162847010241947 44.97042405333340298 
	40.63508326896300105 -0.3113951648679579853 44.99999999999990052 
	40.63508326896300105 -1.745740669421570149e-14 44.99999999999990052 
	0.001000000000000000021 
	cone 0 0 40 1 0 -3.491481338843129805e-15 -1.745740669421570149e-14 0 -5 1 I I 0 1 5 forward I I I I 
	cone 60 0 50 0 -1 -3.491481338843129805e-15 20 0 0 1 I I -0 -1 20 forward I I I I 
	nullbs 
	nullbs 
	I I 
	0 
	0 
	0 
	} I I #
point $-1 -20 -3.4914813388431302e-14 -34.99999999999990052 #
point $-1 20 3.4914813388431302e-14 -35.00000000000009948 #
straight-curve $-1 40 0 -50 0 -1 -3.491481338843129805e-15 I I #
vertex $-1 $528 $540 #
ellipse-curve $-1 20 0 39.99999999999990052 1 -0 -0 -1.745740669421570149e-14 0 -5 1 I I #
point $-1 -20 -3.4914813388431302e-14 45.00000000000009948 #
point $-1 40.63508326896300105 -1.745740669421570149e-14 44.99999999999990052 #
point $-1 20 3.4914813388431302e-14 44.99999999999990052 #
End-of-ACIS-data 