600 0 1 0           
75 GICL ACIS Healer - Source: /gicl/data5/repository/UMD/vand1/vand1.sat - 6 0 18 ACIS 6.0.3 Solaris 24 Sun Apr 14 00:33:43 2002 
1 9.999999999999999547e-07 1.000000000000000036e-10 
body $-1 $1 $-1 $-1 #
lump $-1 $-1 $2 $0 #
shell $-1 $-1 $-1 $3 $-1 $1 #
face $-1 $4 $5 $2 $-1 $6 reversed single #
face $-1 $7 $8 $2 $-1 $9 reversed single #
loop $-1 $-1 $10 $3 #
cone-surface $-1 0 0 4 -0 -0 1 10 0 0 1 I I 0 1 10 forward I I I I #
face $-1 $11 $12 $2 $-1 $9 reversed single #
loop $-1 $-1 $13 $4 #
plane-surface $-1 0 0 -1 0 0 -1 -1 0 0 forward_v I I I I #
coedge $-1 $14 $15 $16 $17 reversed $5 $-1 #
face $-1 $18 $19 $2 $-1 $6 reversed single #
loop $-1 $-1 $20 $7 #
coedge $-1 $21 $22 $23 $24 reversed $8 $-1 #
coedge $-1 $25 $10 $22 $26 forward $5 $-1 #
coedge $-1 $10 $27 $28 $29 reversed $5 $-1 #
coedge $-1 $30 $23 $10 $17 forward $31 $-1 #
edge $-1 $32 -5 $33 -4 $16 $34 forward 7 unknown #
face $-1 $35 $36 $2 $-1 $37 forward single #
loop $-1 $-1 $38 $11 #
coedge $-1 $39 $39 $40 $41 reversed $12 $-1 #
coedge $-1 $22 $13 $25 $42 reversed $8 $-1 #
coedge $-1 $13 $21 $14 $26 reversed $8 $-1 #
coedge $-1 $16 $43 $13 $24 forward $31 $-1 #
edge $-1 $44 -9.921567416492216296 $32 9.921567416492212743 $23 $45 forward 7 unknown #
coedge $-1 $46 $14 $21 $42 forward $5 $-1 #
edge $-1 $32 -0.6600703322293849373 $47 0 $22 $48 forward 7 unknown #
coedge $-1 $15 $49 $50 $51 reversed $5 $-1 #
coedge $-1 $52 $53 $15 $29 forward $36 $-1 #
edge $-1 $33 -0.6600703322293849373 $54 -0.5327179082553710199 $28 $55 forward 7 unknown #
coedge $-1 $56 $16 $53 $57 reversed $31 $-1 #
loop $-1 $-1 $16 $35 #
vertex $-1 $17 $58 #
vertex $-1 $17 $59 #
straight-curve $-1 7.899491076684309832 6.131724123717970265 4 0 0 1 I I #
face $-1 $60 $31 $2 $-1 $61 forward single #
loop $-1 $-1 $28 $18 #
plane-surface $-1 0 0 0 0 0 1 1 0 0 forward_v I I I I #
coedge $-1 $62 $63 $64 $65 reversed $19 $-1 #
coedge $-1 $20 $20 $63 $66 reversed $12 $-1 #
coedge $-1 $67 $64 $20 $41 forward $68 $-1 #
edge $-1 $69 -9.921567416492216296 $70 9.921567416492212743 $40 $71 forward 7 unknown #
edge $-1 $47 0 $44 2.23086665902427761 $21 $48 forward 7 unknown #
coedge $-1 $23 $72 $46 $73 forward $31 $-1 #
vertex $-1 $24 $74 #
straight-curve $-1 0.8838834764831859925 -0.8838834764831829949 -1 0.7071067811865460184 0.707106781186549016 0 I I #
coedge $-1 $75 $25 $43 $73 reversed $5 $-1 #
vertex $-1 $26 $76 #
ellipse-curve $-1 0 0 -1 0 0 -1 10 0 0 1 I I #
coedge $-1 $27 $77 $78 $79 reversed $5 $-1 #
coedge $-1 $80 $81 $27 $51 forward $82 $-1 #
edge $-1 $54 -4 $83 1 $50 $84 forward 7 unknown #
coedge $-1 $85 $28 $81 $86 reversed $36 $-1 #
coedge $-1 $28 $85 $30 $57 forward $36 $-1 #
vertex $-1 $29 $87 #
ellipse-curve $-1 0 0 0 -0 -0 -1 10 0 0 1 I I #
coedge $-1 $88 $30 $89 $90 reversed $31 $-1 #
edge $-1 $91 -34.10533905932742016 $33 -9.921567416492212743 $53 $92 forward 7 unknown #
point $-1 7.899491076684309832 6.131724123717970265 -1 #
point $-1 7.899491076684309832 6.131724123717970265 0 #
face $-1 $93 $82 $2 $-1 $94 forward single #
plane-surface $-1 0.8838834764831859925 -0.8838834764831829949 3.5 -0.707106781186549016 0.7071067811865460184 0 0 -0 1 forward_v I I I I #
coedge $-1 $95 $38 $96 $97 reversed $19 $-1 #
coedge $-1 $38 $98 $39 $66 forward $19 $-1 #
coedge $-1 $40 $99 $38 $65 forward $68 $-1 #
edge $-1 $100 4 $69 5 $64 $101 forward 7 unknown #
edge $-1 $70 2.481522321360408512 $69 5.372459312614070726 $39 $48 forward 7 unknown #
coedge $-1 $102 $40 $98 $103 forward $68 $-1 #
loop $-1 $-1 $64 $104 #
vertex $-1 $41 $105 #
vertex $-1 $41 $106 #
straight-curve $-1 -0.8838834764831859925 0.8838834764831829949 -1 -0.7071067811865460184 -0.707106781186549016 -0 I I #
coedge $-1 $43 $107 $108 $109 reversed $31 $-1 #
edge $-1 $110 4 $44 5 $43 $111 forward 7 unknown #
point $-1 -6.131724123717940067 -7.89949107668434003 -1 #
coedge $-1 $112 $46 $113 $114 reversed $5 $-1 #
point $-1 10 0 -1 #
coedge $-1 $49 $115 $116 $117 reversed $5 $-1 #
coedge $-1 $118 $119 $49 $79 forward $120 $-1 #
edge $-1 $83 -0.5327179082553710199 $121 0.4010013889018110289 $78 $122 forward 7 unknown #
coedge $-1 $123 $50 $119 $124 reversed $82 $-1 #
coedge $-1 $50 $123 $52 $86 forward $82 $-1 #
loop $-1 $-1 $50 $60 #
vertex $-1 $51 $125 #
straight-curve $-1 8.614298921780939366 5.078765015848220266 4 0 0 1 I I #
coedge $-1 $53 $52 $126 $127 reversed $36 $-1 #
edge $-1 $128 -32.85533905932740595 $54 -9.682458365518545662 $81 $129 forward 7 unknown #
point $-1 8.614298921780939366 5.078765015848220266 0 #
coedge $-1 $107 $56 $130 $131 forward $31 $-1 #
coedge $-1 $126 $132 $56 $90 forward $133 $-1 #
edge $-1 $134 -3.25 $91 -1.75 $89 $135 forward 7 unknown #
vertex $-1 $57 $136 #
straight-curve $-1 0.8838834764831859925 -0.8838834764831829949 -2.220446049250310123e-16 -0.7071067811865460184 -0.707106781186549016 0 I I #
face $-1 $137 $138 $2 $-1 $37 forward single #
plane-surface $-1 1.767766952966369987 -1.767766952966369987 5 -0.707106781186549016 0.7071067811865460184 0 0 -0 1 forward_v I I I I #
coedge $-1 $139 $62 $140 $141 reversed $19 $-1 #
coedge $-1 $142 $143 $62 $97 forward $144 $-1 #
edge $-1 $145 -1.038078418539528647 $100 -0.9107259945655158395 $96 $146 forward 7 unknown #
coedge $-1 $63 $147 $67 $103 reversed $19 $-1 #
coedge $-1 $64 $148 $142 $149 reversed $68 $-1 #
vertex $-1 $65 $150 #
straight-curve $-1 6.131724123717940067 7.89949107668434003 4 -0 -0 -1 I I #
coedge $-1 $151 $67 $152 $153 reversed $68 $-1 #
edge $-1 $70 -5 $154 -4 $67 $155 forward 7 unknown #
face $-1 $156 $68 $2 $-1 $157 forward single #
point $-1 6.131724123717940067 7.89949107668434003 -1 #
point $-1 -7.899491076684309832 -6.131724123717970265 -1 #
coedge $-1 $72 $88 $158 $159 reversed $31 $-1 #
coedge $-1 $160 $113 $72 $109 forward $138 $-1 #
edge $-1 $110 9.921567416492216296 $161 34.10533905932727805 $108 $92 forward 7 unknown #
vertex $-1 $73 $162 #
straight-curve $-1 -6.131724123717940067 -7.89949107668434003 4 0 0 -1 I I #
coedge $-1 $163 $75 $164 $165 reversed $5 $-1 #
coedge $-1 $108 $166 $75 $114 forward $138 $-1 #
edge $-1 $167 2.103514235050264691 $110 2.23086665902427761 $113 $55 forward 7 unknown #
coedge $-1 $77 $168 $169 $170 reversed $5 $-1 #
coedge $-1 $171 $172 $77 $117 forward $173 $-1 #
edge $-1 $121 -1 $174 2.5 $116 $175 forward 7 unknown #
coedge $-1 $176 $78 $172 $177 forward $120 $-1 #
coedge $-1 $78 $176 $80 $124 forward $120 $-1 #
loop $-1 $-1 $78 $137 #
vertex $-1 $79 $178 #
ellipse-curve $-1 0 0 5 -0 -0 -1 10 0 0 1 I I #
coedge $-1 $81 $80 $179 $180 reversed $82 $-1 #
edge $-1 $181 -32.85533905932740595 $83 -9.682458365518545662 $119 $182 forward 7 unknown #
point $-1 8.614298921780939366 5.078765015848220266 5 #
coedge $-1 $179 $89 $85 $127 forward $133 $-1 #
edge $-1 $91 -23.23223304703369863 $128 -21.46446609406730133 $126 $183 forward 7 unknown #
vertex $-1 $180 $184 #
straight-curve $-1 1.767766952966369987 -1.767766952966369987 0 -0.7071067811865460184 -0.707106781186549016 0 I I #
coedge $-1 $185 $186 $88 $131 reversed $187 $-1 #
edge $-1 $134 -34.10533905932742016 $188 34.10533905932727805 $88 $189 forward 7 unknown #
coedge $-1 $89 $190 $185 $191 forward $133 $-1 #
loop $-1 $-1 $89 $192 #
vertex $-1 $90 $193 #
straight-curve $-1 25 23.23223304703369863 1.75 0 0 1 I I #
point $-1 25 23.23223304703369863 0 #
face $-1 $194 $120 $2 $-1 $195 forward single #
loop $-1 $-1 $113 $93 #
coedge $-1 $196 $95 $197 $198 reversed $19 $-1 #
coedge $-1 $199 $200 $95 $141 forward $201 $-1 #
edge $-1 $202 -1 $145 4 $140 $203 forward 7 unknown #
coedge $-1 $204 $96 $99 $149 forward $144 $-1 #
coedge $-1 $96 $204 $199 $205 reversed $144 $-1 #
loop $-1 $-1 $96 $206 #
vertex $-1 $97 $207 #
ellipse-curve $-1 0 0 0 -0 -0 -1 10 0 0 1 I I #
coedge $-1 $98 $208 $209 $210 reversed $19 $-1 #
coedge $-1 $99 $211 $212 $213 reversed $68 $-1 #
edge $-1 $100 9.921567416492216296 $214 34.10533905932727805 $142 $215 forward 7 unknown #
point $-1 6.131724123717940067 7.89949107668434003 0 #
coedge $-1 $211 $102 $216 $217 reversed $68 $-1 #
coedge $-1 $209 $218 $102 $153 forward $219 $-1 #
edge $-1 $220 -34.10533905932742016 $154 -9.921567416492212743 $152 $215 forward 7 unknown #
vertex $-1 $103 $221 #
straight-curve $-1 -7.899491076684309832 -6.131724123717970265 4 -0 -0 1 I I #
face $-1 $222 $219 $2 $-1 $37 forward single #
plane-surface $-1 -0.8838834764831859925 0.8838834764831829949 3.5 0.707106781186549016 -0.7071067811865460184 0 0 0 -1 forward_v I I I I #
coedge $-1 $223 $224 $107 $159 forward $225 $-1 #
edge $-1 $161 1.75 $188 3.25 $158 $226 forward 7 unknown #
coedge $-1 $166 $108 $224 $227 reversed $138 $-1 #
vertex $-1 $159 $228 #
point $-1 -6.131724123717940067 -7.89949107668434003 0 #
coedge $-1 $168 $112 $229 $230 reversed $5 $-1 #
coedge $-1 $231 $232 $112 $165 forward $233 $-1 #
edge $-1 $234 -1 $167 4 $164 $235 forward 7 unknown #
coedge $-1 $113 $160 $231 $236 reversed $138 $-1 #
vertex $-1 $114 $237 #
coedge $-1 $115 $163 $238 $239 reversed $5 $-1 #
coedge $-1 $240 $241 $115 $170 forward $242 $-1 #
edge $-1 $174 0.4010013889018110289 $243 1.169794937893088971 $169 $244 forward 7 unknown #
coedge $-1 $245 $116 $241 $246 forward $173 $-1 #
coedge $-1 $116 $245 $118 $177 reversed $173 $-1 #
loop $-1 $-1 $116 $247 #
vertex $-1 $117 $248 #
straight-curve $-1 9.206705730512990016 -3.903404871613910032 4 -0 0 -1 I I #
coedge $-1 $119 $118 $249 $250 forward $120 $-1 #
edge $-1 $121 9.270248108869575177 $251 31.60533905932744148 $118 $252 forward 7 unknown #
point $-1 9.206705730512990016 -3.903404871613910032 5 #
coedge $-1 $249 $126 $123 $180 forward $133 $-1 #
edge $-1 $128 -2.5 $181 2.5 $179 $253 forward 7 unknown #
vertex $-1 $124 $254 #
straight-curve $-1 1.767766952966369987 -1.767766952966369987 5 -0.7071067811865460184 -0.707106781186549016 0 I I #
straight-curve $-1 25 0 0 0 -1 0 I I #
point $-1 25 21.46446609406730133 0 #
coedge $-1 $255 $130 $132 $191 reversed $187 $-1 #
coedge $-1 $130 $256 $223 $257 reversed $187 $-1 #
loop $-1 $-1 $256 $258 #
vertex $-1 $257 $259 #
straight-curve $-1 0.8838834764831859925 -0.8838834764831829949 -1.5 -0.7071067811865460184 -0.707106781186549016 0 I I #
coedge $-1 $132 $260 $261 $262 reversed $133 $-1 #
edge $-1 $263 -25 $134 -23.23223304703369863 $132 $264 forward 7 unknown #
face $-1 $265 $133 $2 $-1 $266 reversed single #
point $-1 25 23.23223304703369863 -1.5 #
face $-1 $247 $233 $2 $-1 $94 forward single #
plane-surface $-1 0 0 5 0 0 1 1 0 0 forward_v I I I I #
coedge $-1 $267 $139 $268 $269 reversed $19 $-1 #
coedge $-1 $270 $271 $139 $198 forward $272 $-1 #
edge $-1 $273 -1.971797715696704367 $202 -1.038078418539528647 $197 $274 forward 7 unknown #
coedge $-1 $275 $140 $143 $205 forward $201 $-1 #
coedge $-1 $140 $275 $270 $276 reversed $201 $-1 #
loop $-1 $-1 $140 $222 #
vertex $-1 $141 $277 #
straight-curve $-1 5.078765015848190068 8.614298921780950025 4 -0 -0 -1 I I #
coedge $-1 $143 $142 $278 $279 reversed $144 $-1 #
edge $-1 $145 9.682458365518533228 $280 32.85533905932733489 $199 $281 forward 7 unknown #
face $-1 $104 $144 $2 $-1 $37 forward single #
point $-1 5.078765015848190068 8.614298921780950025 0 #
coedge $-1 $147 $282 $283 $284 reversed $19 $-1 #
coedge $-1 $285 $152 $147 $210 forward $219 $-1 #
edge $-1 $154 2.481522321360408512 $286 2.608874745334422318 $209 $146 forward 7 unknown #
coedge $-1 $148 $151 $287 $288 forward $68 $-1 #
coedge $-1 $289 $278 $148 $213 forward $290 $-1 #
edge $-1 $214 1.75 $291 3.25 $212 $292 forward 7 unknown #
vertex $-1 $149 $293 #
straight-curve $-1 -0.8838834764831859925 0.8838834764831829949 -2.220446049250310123e-16 0.7071067811865460184 0.707106781186549016 -0 I I #
coedge $-1 $294 $295 $151 $217 forward $296 $-1 #
edge $-1 $297 -3.25 $220 -1.75 $216 $298 forward 7 unknown #
coedge $-1 $152 $285 $294 $299 reversed $219 $-1 #
loop $-1 $-1 $209 $156 #
vertex $-1 $217 $300 #
point $-1 -7.899491076684309832 -6.131724123717970265 0 #
face $-1 $301 $201 $2 $-1 $302 forward single #
coedge $-1 $303 $158 $186 $257 forward $225 $-1 #
coedge $-1 $158 $304 $160 $227 forward $225 $-1 #
loop $-1 $-1 $223 $305 #
straight-curve $-1 -23.23223304703349967 -25 1.75 -0 0 -1 I I #
edge $-1 $306 21.4644660940671983 $161 23.23223304703349967 $224 $307 forward 7 unknown #
point $-1 -23.23223304703349967 -25 0 #
coedge $-1 $308 $309 $163 $230 forward $310 $-1 #
edge $-1 $311 1.169794937893088971 $234 2.103514235050264691 $229 $312 forward 7 unknown #
coedge $-1 $313 $164 $166 $236 forward $233 $-1 #
coedge $-1 $164 $313 $308 $314 reversed $233 $-1 #
loop $-1 $-1 $164 $194 #
vertex $-1 $165 $315 #
straight-curve $-1 -5.078765015848190068 -8.614298921780950025 4 0 0 -1 I I #
edge $-1 $167 9.682458365518533228 $306 32.85533905932733489 $231 $129 forward 7 unknown #
point $-1 -5.078765015848190068 -8.614298921780950025 0 #
coedge $-1 $316 $317 $168 $239 forward $318 $-1 #
edge $-1 $243 -2.5 $311 1 $238 $319 forward 7 unknown #
coedge $-1 $320 $169 $317 $321 reversed $242 $-1 #
coedge $-1 $169 $322 $171 $246 reversed $242 $-1 #
loop $-1 $-1 $169 $323 #
vertex $-1 $170 $324 #
ellipse-curve $-1 0 0 1.5 -0 -0 -1 10 0 0 1 I I #
coedge $-1 $172 $171 $325 $326 reversed $173 $-1 #
edge $-1 $174 9.270248108869575177 $327 31.60533905932744148 $171 $328 forward 7 unknown #
face $-1 $329 $173 $2 $-1 $330 forward single #
point $-1 9.206705730512990016 -3.903404871613910032 1.5 #
coedge $-1 $325 $179 $176 $250 reversed $133 $-1 #
edge $-1 $251 -19.69669914110099995 $181 21.46446609406730133 $249 $331 forward 7 unknown #
vertex $-1 $177 $332 #
straight-curve $-1 2.651650429449559976 2.651650429449550206 5 0.7071067811865460184 -0.707106781186549016 0 I I #
straight-curve $-1 25 21.46446609406730133 2.5 0 0 1 I I #
point $-1 25 21.46446609406730133 5 #
coedge $-1 $287 $185 $289 $333 reversed $187 $-1 #
coedge $-1 $186 $287 $295 $334 reversed $187 $-1 #
edge $-1 $188 23.23223304703349967 $335 25 $223 $336 forward 7 unknown #
face $-1 $337 $187 $2 $-1 $338 forward single #
point $-1 -23.23223304703349967 -25 -1.5 #
coedge $-1 $190 $339 $340 $341 reversed $133 $-1 #
coedge $-1 $342 $289 $190 $262 forward $290 $-1 #
edge $-1 $263 1.5 $343 5 $190 $344 forward 7 unknown #
vertex $-1 $333 $345 #
straight-curve $-1 25 0 -1.5 0 -1 0 I I #
face $-1 $-1 $346 $2 $-1 $347 reversed single #
plane-surface $-1 25 0 0 -1 0 0 0 -0 1 forward_v I I I I #
coedge $-1 $348 $196 $349 $350 reversed $19 $-1 #
coedge $-1 $351 $352 $196 $269 forward $353 $-1 #
edge $-1 $354 -2.5 $273 1 $268 $355 forward 7 unknown #
coedge $-1 $356 $197 $200 $276 forward $272 $-1 #
coedge $-1 $197 $356 $351 $357 forward $272 $-1 #
loop $-1 $-1 $197 $358 #
vertex $-1 $198 $359 #
ellipse-curve $-1 0 0 5 -0 -0 -1 10 0 0 1 I I #
coedge $-1 $200 $199 $360 $361 reversed $201 $-1 #
edge $-1 $202 9.682458365518533228 $362 32.85533905932733489 $270 $363 forward 7 unknown #
point $-1 5.078765015848190068 8.614298921780950025 5 #
coedge $-1 $212 $360 $204 $279 forward $290 $-1 #
edge $-1 $280 21.4644660940671983 $214 23.23223304703349967 $278 $364 forward 7 unknown #
vertex $-1 $279 $365 #
straight-curve $-1 -1.767766952966369987 1.767766952966369987 0 0.7071067811865460184 0.707106781186549016 0 I I #
coedge $-1 $208 $348 $366 $367 reversed $19 $-1 #
coedge $-1 $368 $369 $208 $284 forward $370 $-1 #
edge $-1 $286 -4 $371 1 $283 $372 forward 7 unknown #
coedge $-1 $218 $209 $369 $373 reversed $219 $-1 #
vertex $-1 $210 $374 #
coedge $-1 $256 $255 $211 $288 reversed $187 $-1 #
edge $-1 $297 -34.10533905932742016 $291 34.10533905932727805 $211 $375 forward 7 unknown #
coedge $-1 $261 $212 $255 $333 forward $290 $-1 #
loop $-1 $-1 $212 $376 #
vertex $-1 $213 $377 #
straight-curve $-1 23.23223304703349967 25 1.75 0 0 -1 I I #
point $-1 23.23223304703349967 25 0 #
coedge $-1 $378 $216 $218 $299 forward $296 $-1 #
coedge $-1 $216 $379 $256 $334 forward $296 $-1 #
loop $-1 $-1 $295 $337 #
vertex $-1 $334 $380 #
straight-curve $-1 -25 -23.23223304703369863 1.75 -0 0 1 I I #
edge $-1 $220 -23.23223304703369863 $381 -21.46446609406730133 $294 $382 forward 7 unknown #
point $-1 -25 -23.23223304703369863 0 #
face $-1 $358 $370 $2 $-1 $302 forward single #
plane-surface $-1 -1.767766952966369987 1.767766952966369987 5 0.707106781186549016 -0.7071067811865460184 0 0 0 -1 forward_v I I I I #
coedge $-1 $383 $223 $379 $384 forward $225 $-1 #
coedge $-1 $224 $385 $313 $386 forward $225 $-1 #
face $-1 $376 $225 $2 $-1 $387 reversed single #
vertex $-1 $386 $388 #
straight-curve $-1 0 -25 0 -1 0 0 I I #
coedge $-1 $389 $229 $232 $314 forward $310 $-1 #
coedge $-1 $229 $389 $316 $390 forward $310 $-1 #
loop $-1 $-1 $229 $329 #
vertex $-1 $230 $391 #
ellipse-curve $-1 0 0 5 -0 -0 -1 10 0 0 1 I I #
coedge $-1 $232 $231 $304 $386 reversed $233 $-1 #
edge $-1 $234 9.682458365518533228 $392 32.85533905932733489 $308 $182 forward 7 unknown #
point $-1 -5.078765015848190068 -8.614298921780950025 5 #
coedge $-1 $393 $238 $309 $390 reversed $318 $-1 #
coedge $-1 $238 $393 $240 $321 forward $318 $-1 #
loop $-1 $-1 $238 $394 #
straight-curve $-1 3.903404871613879834 -9.206705730513009556 4 0 -0 1 I I #
coedge $-1 $322 $240 $395 $396 reversed $242 $-1 #
edge $-1 $397 -31.60533905932732068 $243 -9.270248108869582282 $317 $398 forward 7 unknown #
coedge $-1 $241 $320 $399 $400 reversed $242 $-1 #
face $-1 $394 $242 $2 $-1 $401 forward single #
point $-1 3.903404871613879834 -9.206705730513009556 1.5 #
coedge $-1 $399 $249 $245 $326 forward $133 $-1 #
edge $-1 $251 -1.75 $327 1.75 $325 $402 forward 7 unknown #
vertex $-1 $326 $403 #
straight-curve $-1 2.651650429449559976 2.651650429449550206 1.5 0.7071067811865460184 -0.707106781186549016 0 I I #
face $-1 $323 $310 $2 $-1 $195 forward single #
plane-surface $-1 2.651650429449559976 2.651650429449550206 6.5 -0.707106781186549016 -0.7071067811865460184 0 0 -0 1 forward_v I I I I #
straight-curve $-1 25 0 5 0 1 0 I I #
point $-1 25 -19.69669914110099995 5 #
edge $-1 $291 23.23223304703349967 $263 25 $289 $404 forward 7 unknown #
edge $-1 $335 -25 $297 -23.23223304703369863 $295 $405 forward 7 unknown #
vertex $-1 $334 $406 #
straight-curve $-1 0 -25 -1.5 -1 0 0 I I #
face $-1 $305 $296 $2 $-1 $407 reversed single #
plane-surface $-1 0 0 -1.5 0 0 1 1 0 0 forward_v I I I I #
coedge $-1 $260 $399 $408 $409 forward $133 $-1 #
coedge $-1 $410 $411 $260 $341 forward $346 $-1 #
edge $-1 $343 -25 $412 25 $260 $413 forward 7 unknown #
coedge $-1 $414 $261 $411 $415 reversed $290 $-1 #
vertex $-1 $341 $416 #
straight-curve $-1 25 25 0 0 0 -1 I I #
point $-1 25 25 -1.5 #
loop $-1 $-1 $340 $265 #
plane-surface $-1 0 0 -5 0 0 1 1 0 0 forward_v I I I I #
coedge $-1 $282 $267 $417 $418 reversed $19 $-1 #
coedge $-1 $419 $420 $267 $350 forward $421 $-1 #
edge $-1 $422 -2.740591264687981976 $354 -1.971797715696704367 $349 $423 forward 7 unknown #
coedge $-1 $424 $268 $271 $357 reversed $353 $-1 #
coedge $-1 $268 $424 $419 $425 forward $353 $-1 #
loop $-1 $-1 $268 $426 #
vertex $-1 $269 $427 #
straight-curve $-1 -3.903404871613879834 9.206705730513009556 4 -0 0 1 I I #
coedge $-1 $271 $270 $428 $429 forward $272 $-1 #
edge $-1 $430 -31.60533905932732068 $273 -9.270248108869582282 $271 $431 forward 7 unknown #
face $-1 $432 $272 $2 $-1 $195 forward single #
point $-1 -3.903404871613879834 9.206705730513009556 5 #
coedge $-1 $278 $428 $275 $361 forward $290 $-1 #
edge $-1 $362 -2.5 $280 2.5 $360 $433 forward 7 unknown #
vertex $-1 $361 $434 #
straight-curve $-1 -1.767766952966369987 1.767766952966369987 5 0.7071067811865460184 0.707106781186549016 -0 I I #
straight-curve $-1 0 25 0 1 0 -0 I I #
point $-1 21.4644660940671983 25 0 #
coedge $-1 $435 $436 $282 $367 forward $437 $-1 #
edge $-1 $371 2.608874745334422318 $438 3.542594042491604256 $366 $439 forward 7 unknown #
coedge $-1 $440 $283 $436 $441 reversed $370 $-1 #
coedge $-1 $283 $440 $285 $373 forward $370 $-1 #
loop $-1 $-1 $283 $301 #
vertex $-1 $284 $442 #
straight-curve $-1 -8.614298921780939366 -5.078765015848220266 4 -0 -0 1 I I #
edge $-1 $381 -32.85533905932740595 $286 -9.682458365518545662 $369 $281 forward 7 unknown #
point $-1 -8.614298921780939366 -5.078765015848220266 0 #
straight-curve $-1 -0.8838834764831859925 0.8838834764831829949 -1.5 0.7071067811865460184 0.707106781186549016 0 I I #
face $-1 $192 $290 $2 $-1 $443 reversed single #
point $-1 23.23223304703349967 25 -1.5 #
coedge $-1 $444 $294 $440 $445 forward $296 $-1 #
coedge $-1 $295 $446 $303 $384 reversed $296 $-1 #
point $-1 -25 -23.23223304703369863 -1.5 #
vertex $-1 $299 $447 #
straight-curve $-1 -25 0 0 0 1 0 I I #
coedge $-1 $408 $303 $410 $448 reversed $225 $-1 #
edge $-1 $335 1.5 $449 5 $379 $450 forward 7 unknown #
coedge $-1 $304 $451 $389 $452 reversed $225 $-1 #
edge $-1 $392 -2.5 $306 2.5 $304 $453 forward 7 unknown #
plane-surface $-1 0 -25 0 0 1 -0 -0 0 1 forward_v I I I I #
point $-1 -21.4644660940671983 -25 0 #
coedge $-1 $309 $308 $385 $452 forward $310 $-1 #
edge $-1 $454 -31.60533905932732068 $311 -9.270248108869582282 $309 $455 forward 7 unknown #
point $-1 3.903404871613879834 -9.206705730513009556 5 #
vertex $-1 $314 $456 #
coedge $-1 $317 $316 $451 $457 reversed $318 $-1 #
face $-1 $206 $318 $2 $-1 $458 forward single #
coedge $-1 $451 $408 $320 $396 forward $225 $-1 #
edge $-1 $459 -25 $397 -19.696699141100801 $395 $460 forward 7 unknown #
vertex $-1 $457 $461 #
straight-curve $-1 -2.651650429449559976 -2.651650429449550206 1.5 -0.7071067811865460184 0.707106781186549016 0 I I #
coedge $-1 $339 $325 $322 $400 forward $133 $-1 #
edge $-1 $327 19.69669914110099995 $459 25 $399 $462 forward 7 unknown #
plane-surface $-1 0 0 1.5 0 0 1 1 0 0 forward_v I I I I #
straight-curve $-1 25 -19.69669914110099995 3.25 -0 0 -1 I I #
point $-1 25 -19.69669914110099995 1.5 #
straight-curve $-1 0 25 -1.5 1 0 -0 I I #
straight-curve $-1 -25 0 -1.5 0 1 0 I I #
point $-1 -25 -25 -1.5 #
plane-surface $-1 -25 0 0 1 0 0 0 0 -1 forward_v I I I I #
coedge $-1 $395 $383 $339 $409 reversed $225 $-1 #
edge $-1 $459 -1.5 $412 5 $339 $463 forward 7 unknown #
coedge $-1 $464 $340 $383 $448 forward $346 $-1 #
coedge $-1 $340 $464 $342 $415 forward $346 $-1 #
vertex $-1 $409 $465 #
straight-curve $-1 25 0 -5 0 -1 0 I I #
coedge $-1 $466 $342 $467 $468 reversed $290 $-1 #
edge $-1 $469 -25 $343 25 $342 $470 forward 7 unknown #
point $-1 25 25 -5 #
coedge $-1 $471 $472 $348 $418 forward $473 $-1 #
edge $-1 $438 -1 $422 2.5 $417 $474 forward 7 unknown #
coedge $-1 $475 $349 $352 $425 reversed $421 $-1 #
coedge $-1 $349 $476 $471 $477 reversed $421 $-1 #
loop $-1 $-1 $349 $478 #
vertex $-1 $418 $479 #
ellipse-curve $-1 0 0 1.5 -0 -0 -1 10 0 0 1 I I #
coedge $-1 $352 $351 $480 $481 reversed $353 $-1 #
edge $-1 $482 -31.60533905932732068 $354 -9.270248108869582282 $352 $328 forward 7 unknown #
face $-1 $483 $353 $2 $-1 $330 forward single #
point $-1 -3.903404871613879834 9.206705730513009556 1.5 #
coedge $-1 $360 $480 $356 $429 reversed $290 $-1 #
edge $-1 $362 -21.4644660940671983 $430 19.696699141100801 $428 $484 forward 7 unknown #
vertex $-1 $357 $485 #
straight-curve $-1 2.651650429449559976 2.651650429449550206 5 0.7071067811865460184 -0.707106781186549016 0 I I #
face $-1 $426 $437 $2 $-1 $195 forward single #
straight-curve $-1 21.4644660940671983 25 2.5 0 0 -1 I I #
point $-1 21.4644660940671983 25 5 #
coedge $-1 $486 $366 $472 $487 forward $437 $-1 #
coedge $-1 $366 $486 $368 $441 forward $437 $-1 #
loop $-1 $-1 $366 $432 #
vertex $-1 $367 $488 #
ellipse-curve $-1 0 0 5 -0 -0 -1 10 0 0 1 I I #
coedge $-1 $369 $368 $378 $445 reversed $370 $-1 #
edge $-1 $489 -32.85533905932740595 $371 -9.682458365518545662 $436 $363 forward 7 unknown #
point $-1 -8.614298921780939366 -5.078765015848220266 5 #
plane-surface $-1 0 25 0 0 -1 0 0 0 -1 forward_v I I I I #
coedge $-1 $490 $378 $486 $491 reversed $296 $-1 #
edge $-1 $381 -2.5 $489 2.5 $378 $492 forward 7 unknown #
coedge $-1 $379 $467 $464 $493 reversed $296 $-1 #
point $-1 -25 -21.46446609406730133 0 #
edge $-1 $412 -25 $449 25 $383 $494 forward 7 unknown #
vertex $-1 $493 $495 #
straight-curve $-1 -25 -25 0 0 0 -1 I I #
coedge $-1 $385 $395 $393 $457 forward $225 $-1 #
edge $-1 $392 -21.4644660940671983 $454 19.696699141100801 $385 $496 forward 7 unknown #
straight-curve $-1 -21.4644660940671983 -25 2.5 -0 0 -1 I I #
vertex $-1 $390 $497 #
straight-curve $-1 -2.651650429449559976 -2.651650429449550206 5 -0.7071067811865460184 0.707106781186549016 0 I I #
point $-1 -21.4644660940671983 -25 5 #
edge $-1 $397 -1.75 $454 1.75 $451 $498 forward 7 unknown #
plane-surface $-1 -2.651650429449559976 -2.651650429449550206 6.5 0.707106781186549016 0.7071067811865460184 0 0 0 -1 forward_v I I I I #
vertex $-1 $396 $499 #
straight-curve $-1 0 -25 1.5 -1 0 0 I I #
point $-1 19.696699141100801 -25 1.5 #
straight-curve $-1 25 0 1.5 0 -1 0 I I #
straight-curve $-1 25 -25 0 0 0 -1 I I #
coedge $-1 $411 $410 $446 $493 forward $346 $-1 #
point $-1 25 -25 -5 #
coedge $-1 $480 $414 $475 $500 forward $290 $-1 #
coedge $-1 $446 $501 $414 $468 forward $296 $-1 #
edge $-1 $502 -1.5 $469 5 $414 $503 forward 7 unknown #
vertex $-1 $415 $504 #
straight-curve $-1 0 25 -5 1 0 0 I I #
coedge $-1 $505 $417 $420 $477 forward $473 $-1 #
coedge $-1 $417 $505 $435 $487 reversed $473 $-1 #
loop $-1 $-1 $417 $483 #
straight-curve $-1 -9.206705730512990016 3.903404871613910032 4 0 -0 -1 I I #
coedge $-1 $476 $419 $466 $500 reversed $421 $-1 #
coedge $-1 $420 $475 $501 $506 reversed $421 $-1 #
edge $-1 $422 9.270248108869575177 $507 31.60533905932744148 $471 $398 forward 7 unknown #
face $-1 $258 $421 $2 $-1 $401 forward single #
point $-1 -9.206705730512990016 3.903404871613910032 1.5 #
coedge $-1 $428 $466 $424 $481 forward $290 $-1 #
edge $-1 $482 -1.75 $430 1.75 $480 $508 forward 7 unknown #
vertex $-1 $481 $509 #
face $-1 $478 $473 $2 $-1 $458 forward single #
straight-curve $-1 0 25 5 -1 0 0 I I #
point $-1 -19.696699141100801 25 5 #
coedge $-1 $436 $435 $444 $491 forward $437 $-1 #
edge $-1 $438 9.270248108869575177 $510 31.60533905932744148 $435 $511 forward 7 unknown #
point $-1 -9.206705730512990016 3.903404871613910032 5 #
vertex $-1 $445 $512 #
coedge $-1 $501 $444 $505 $513 forward $296 $-1 #
edge $-1 $510 -19.69669914110099995 $489 21.46446609406730133 $444 $514 forward 7 unknown #
straight-curve $-1 -25 -21.46446609406730133 2.5 -0 0 1 I I #
edge $-1 $449 -25 $469 25 $446 $515 forward 7 unknown #
straight-curve $-1 0 -25 -5 -1 0 0 I I #
point $-1 -25 -25 -5 #
straight-curve $-1 0 -25 5 1 0 0 I I #
point $-1 19.696699141100801 -25 5 #
straight-curve $-1 19.696699141100801 -25 3.25 -0 0 1 I I #
point $-1 25 -25 1.5 #
edge $-1 $502 -25 $482 -19.696699141100801 $466 $516 forward 7 unknown #
coedge $-1 $467 $490 $476 $506 forward $296 $-1 #
vertex $-1 $506 $517 #
straight-curve $-1 -25 25 0 0 0 -1 I I #
point $-1 -25 25 -5 #
coedge $-1 $472 $471 $490 $513 reversed $473 $-1 #
edge $-1 $507 19.69669914110099995 $502 25 $501 $518 forward 7 unknown #
vertex $-1 $513 $519 #
straight-curve $-1 -19.696699141100801 25 3.25 0 0 1 I I #
point $-1 -19.696699141100801 25 1.5 #
vertex $-1 $487 $520 #
straight-curve $-1 -2.651650429449559976 -2.651650429449550206 5 -0.7071067811865460184 0.707106781186549016 0 I I #
point $-1 -25 -21.46446609406730133 5 #
edge $-1 $510 -1.75 $507 1.75 $490 $521 forward 7 unknown #
straight-curve $-1 -25 0 5 0 -1 0 I I #
straight-curve $-1 -25 0 -5 0 1 0 I I #
straight-curve $-1 0 25 1.5 1 0 -0 I I #
point $-1 -25 25 1.5 #
straight-curve $-1 -25 0 1.5 0 1 0 I I #
point $-1 -25 19.69669914110099995 1.5 #
point $-1 -25 19.69669914110099995 5 #
straight-curve $-1 -25 19.69669914110099995 3.25 0 0 -1 I I #
End-of-ACIS-data 