104 222 0 0                             
body $1 $2 $-1 $3 #
brep_non_volatile_id-cdc-attrib $-1 $-1 $-1 $0 1 #
lump $-1 $-1 $4 $0 #
transform $-1 1 0 0 0 1 0 0 0 1 0 0 0 1 0 0 0 #
shell $-1 $-1 $-1 $5 $2 #
face $6 $7 $8 $4 $-1 $9 1 #
face_name-twe-attrib $-1 $10 $-1 $5 1 #
face $11 $12 $13 $4 $-1 $14 0 #
loop $15 $16 $17 $5 #
cone-surface $18 80 -2.86666387479815e-14 31 0 -6.12323293943686e-17 -1 4.99999982370942 0 0 1 0 1 0 #
primitive_order-cdc-attrib $-1 $-1 $6 $5 1 3 #
face_name-twe-attrib $-1 $19 $-1 $7 2 #
face $20 $21 $22 $4 $-1 $23 0 #
loop $24 $-1 $25 $7 #
plane-surface $26 88.50000012344 -4.90747748584758 27 0.500000001638709 -0.86602540283833 5.30287527304874e-17 1.0605750511338e-16 0 -1 0 #
loop_type-twe-attrib $-1 $-1 $-1 $8 0 #
loop $27 $-1 $28 $5 #
coedge $-1 $17 $17 $29 $30 1 $8 $-1 #
surf-twe-attrib $-1 $-1 $-1 $9 5 #
primitive_order-cdc-attrib $-1 $-1 $11 $7 0 10 #
face_name-twe-attrib $-1 $31 $-1 $12 3 #
face $32 $33 $34 $4 $-1 $35 0 #
loop $36 $-1 $37 $12 #
plane-surface $38 80.00000012344 -9.81495479540453 27 -0.500000001638707 -0.866025402838331 5.30287527304874e-17 1.0605750511338e-16 0 1 0 #
loop_type-twe-attrib $-1 $-1 $-1 $13 0 #
coedge $-1 $39 $40 $41 $42 0 $13 $-1 #
surf-twe-attrib $-1 $-1 $-1 $14 7 #
loop_type-twe-attrib $-1 $-1 $-1 $16 1 #
coedge $-1 $28 $28 $43 $44 1 $16 $-1 #
coedge $-1 $29 $29 $17 $30 0 $45 $-1 #
edge $46 $47 $47 $29 $48 0 #
primitive_order-cdc-attrib $-1 $-1 $20 $12 0 10 #
face_name-twe-attrib $-1 $49 $-1 $21 4 #
face $50 $51 $52 $4 $-1 $53 0 #
loop $54 $-1 $55 $21 #
plane-surface $56 71.50000012344 -4.90747748584758 27 -1 0 0 0 0 1 0 #
loop_type-twe-attrib $-1 $-1 $-1 $22 0 #
coedge $-1 $57 $58 $59 $60 0 $22 $-1 #
surf-twe-attrib $-1 $-1 $-1 $23 12 #
coedge $-1 $61 $25 $58 $62 1 $13 $-1 #
coedge $-1 $25 $61 $63 $64 0 $13 $-1 #
coedge $-1 $65 $59 $25 $42 1 $66 $-1 #
edge $67 $68 $69 $25 $70 0 #
coedge $-1 $43 $43 $28 $44 0 $71 $-1 #
edge $72 $73 $73 $43 $74 0 #
loop $75 $66 $29 $76 #
edge_name-twe-attrib $-1 $-1 $-1 $30 13 8704 #
vertex $-1 $30 $77 #
ellipse-curve $78 80 -2.8421709430404e-14 35 0 0 -1 4.99999982370942 0 0 1 #
primitive_order-cdc-attrib $-1 $-1 $32 $21 0 10 #
face_name-twe-attrib $-1 $79 $-1 $33 5 #
face $80 $81 $82 $4 $-1 $83 0 #
loop $84 $-1 $85 $33 #
plane-surface $86 71.50000012344 4.90747713326638 27 -0.500000001638707 0.866025402838331 -5.30287527304874e-17 -1.0605750511338e-16 0 1 0 #
loop_type-twe-attrib $-1 $-1 $-1 $34 0 #
coedge $-1 $87 $88 $89 $90 0 $34 $-1 #
surf-twe-attrib $-1 $-1 $-1 $35 21 #
coedge $-1 $91 $37 $88 $92 1 $22 $-1 #
coedge $-1 $37 $91 $39 $62 0 $22 $-1 #
coedge $-1 $41 $89 $37 $60 1 $66 $-1 #
edge $93 $69 $94 $37 $95 0 #
coedge $-1 $40 $39 $96 $97 1 $13 $-1 #
edge $98 $99 $69 $58 $100 0 #
coedge $-1 $101 $102 $40 $64 1 $103 $-1 #
edge $104 $105 $68 $40 $106 0 #
coedge $-1 $107 $41 $102 $108 1 $66 $-1 #
loop $109 $-1 $41 $76 #
edge_name-twe-attrib $-1 $-1 $-1 $42 1 8704 #
vertex $-1 $64 $110 #
vertex $-1 $62 $111 #
straight-curve $112 88.50000012344 -4.90747748584758 35 -0.86602540283833 -0.500000001638709 0 #
loop $113 $114 $43 $115 #
edge_name-twe-attrib $-1 $-1 $-1 $44 14 8704 #
vertex $-1 $44 $116 #
ellipse-curve $117 80 -2.8911568065559e-14 27 0 0 1 4.99999982370942 0 0 1 #
loop_type-twe-attrib $-1 $-1 $-1 $45 1 #
face $118 $115 $45 $4 $-1 $119 0 #
point $-1 84.9999998237094 -2.8421709430404e-14 35 #
cur-twe-attrib $-1 $-1 $-1 $48 30 #
primitive_order-cdc-attrib $-1 $-1 $50 $33 0 10 #
face_name-twe-attrib $-1 $120 $-1 $51 6 #
face $121 $76 $103 $4 $-1 $122 0 #
loop $123 $-1 $124 $51 #
plane-surface $125 80.00000012344 9.81495444282334 27 0.500000001638709 0.86602540283833 -5.30287527304874e-17 -1.0605750511338e-16 0 -1 0 #
loop_type-twe-attrib $-1 $-1 $-1 $52 0 #
coedge $-1 $126 $127 $128 $129 0 $52 $-1 #
surf-twe-attrib $-1 $-1 $-1 $53 33 #
coedge $-1 $130 $55 $127 $131 1 $34 $-1 #
coedge $-1 $55 $130 $57 $92 0 $34 $-1 #
coedge $-1 $59 $128 $55 $90 1 $66 $-1 #
edge $132 $94 $133 $55 $134 0 #
coedge $-1 $58 $57 $135 $136 1 $22 $-1 #
edge $137 $138 $94 $88 $139 0 #
edge_name-twe-attrib $-1 $-1 $-1 $60 3 8704 #
vertex $-1 $92 $140 #
straight-curve $141 80.00000012344 -9.81495479540453 35 -0.866025402838331 0.500000001638707 0 #
coedge $-1 $135 $142 $61 $97 0 $114 $-1 #
edge $143 $105 $99 $96 $144 0 #
edge_name-twe-attrib $-1 $-1 $-1 $62 4 8448 #
vertex $-1 $97 $145 #
straight-curve $146 80.00000012344 -9.81495479540453 27 0 6.12323293943686e-17 1 #
coedge $-1 $147 $63 $142 $148 1 $103 $-1 #
coedge $-1 $63 $147 $65 $108 0 $103 $-1 #
loop $149 $-1 $102 $81 #
edge_name-twe-attrib $-1 $-1 $-1 $64 2 8448 #
vertex $-1 $148 $150 #
straight-curve $151 88.50000012344 -4.90747748584758 27 0 6.12323293943686e-17 1 #
coedge $-1 $128 $65 $124 $152 1 $66 $-1 #
edge $153 $154 $68 $102 $155 0 #
loop_type-twe-attrib $-1 $-1 $-1 $66 0 #
point $-1 88.50000012344 -4.90747748584758 35 #
point $-1 80.00000012344 -9.81495479540453 35 #
cur-twe-attrib $-1 $-1 $-1 $70 42 #
loop_type-twe-attrib $-1 $-1 $-1 $71 1 #
loop $156 $-1 $142 $115 #
face $157 $-1 $71 $4 $-1 $158 0 #
point $-1 84.9999998237094 -2.8911568065559e-14 27 #
cur-twe-attrib $-1 $-1 $-1 $74 44 #
face_name-twe-attrib $-1 $159 $-1 $76 8 #
plane-surface $160 80.00000012344 -1.76290597629663e-07 35 0 0 1 1 0 0 0 #
primitive_order-cdc-attrib $-1 $-1 $80 $51 0 10 #
face_name-twe-attrib $-1 $161 $-1 $81 7 #
plane-surface $162 88.50000012344 4.90747713326638 27 1 0 0 0 0 -1 0 #
loop_type-twe-attrib $-1 $-1 $-1 $82 0 #
coedge $-1 $163 $164 $107 $152 0 $82 $-1 #
surf-twe-attrib $-1 $-1 $-1 $83 51 #
coedge $-1 $165 $85 $164 $166 1 $52 $-1 #
coedge $-1 $85 $165 $87 $131 0 $52 $-1 #
coedge $-1 $89 $107 $85 $129 1 $66 $-1 #
edge $167 $133 $168 $85 $169 0 #
coedge $-1 $88 $87 $170 $171 1 $34 $-1 #
edge $172 $173 $133 $127 $174 0 #
edge_name-twe-attrib $-1 $-1 $-1 $90 5 8704 #
vertex $-1 $131 $175 #
straight-curve $176 71.50000012344 -4.90747748584758 35 0 1 0 #
coedge $-1 $170 $96 $91 $136 0 $114 $-1 #
edge $177 $99 $138 $135 $178 0 #
edge_name-twe-attrib $-1 $-1 $-1 $92 6 8448 #
vertex $-1 $136 $179 #
straight-curve $180 71.50000012344 -4.90747748584758 27 0 6.12323293943686e-17 1 #
point $-1 71.50000012344 -4.90747748584758 35 #
cur-twe-attrib $-1 $-1 $-1 $95 60 #
coedge $-1 $96 $181 $101 $148 0 $114 $-1 #
edge_name-twe-attrib $-1 $-1 $-1 $97 16 8704 #
straight-curve $182 88.50000012344 -4.90747748584758 27 -0.86602540283833 -0.500000001638709 0 #
point $-1 80.00000012344 -9.81495479540453 27 #
cur-twe-attrib $-1 $-1 $-1 $100 62 #
coedge $-1 $102 $101 $163 $183 0 $103 $-1 #
edge $184 $185 $105 $142 $186 0 #
loop_type-twe-attrib $-1 $-1 $-1 $103 0 #
point $-1 88.50000012344 -4.90747748584758 27 #
cur-twe-attrib $-1 $-1 $-1 $106 64 #
edge $187 $168 $154 $124 $188 0 #
edge_name-twe-attrib $-1 $-1 $-1 $108 11 8704 #
vertex $-1 $183 $189 #
straight-curve $190 88.50000012344 4.90747713326638 35 0 -1 0 #
loop_type-twe-attrib $-1 $-1 $-1 $114 0 #
face_name-twe-attrib $-1 $191 $-1 $115 9 #
plane-surface $192 80.00000012344 -1.76290598119522e-07 27 0 0 -1 -1 0 0 0 #
primitive_order-cdc-attrib $-1 $-1 $118 $76 0 10 #
surf-twe-attrib $-1 $-1 $-1 $119 76 #
primitive_order-cdc-attrib $-1 $-1 $121 $81 0 10 #
surf-twe-attrib $-1 $-1 $-1 $122 81 #
coedge $-1 $193 $124 $147 $183 1 $82 $-1 #
coedge $-1 $124 $193 $126 $166 0 $82 $-1 #
coedge $-1 $127 $126 $194 $195 1 $52 $-1 #
edge $196 $197 $168 $164 $198 0 #
edge_name-twe-attrib $-1 $-1 $-1 $129 7 8704 #
vertex $-1 $166 $199 #
straight-curve $200 71.50000012344 4.90747713326638 35 0.866025402838331 0.500000001638707 0 #
coedge $-1 $194 $135 $130 $171 0 $114 $-1 #
edge $201 $138 $173 $170 $202 0 #
edge_name-twe-attrib $-1 $-1 $-1 $131 8 8448 #
vertex $-1 $171 $203 #
straight-curve $204 71.50000012344 4.90747713326638 27 0 6.12323293943686e-17 1 #
point $-1 71.50000012344 4.90747713326638 35 #
cur-twe-attrib $-1 $-1 $-1 $134 90 #
edge_name-twe-attrib $-1 $-1 $-1 $136 17 8704 #
straight-curve $205 80.00000012344 -9.81495479540453 27 -0.866025402838331 0.500000001638707 0 #
point $-1 71.50000012344 -4.90747748584758 27 #
cur-twe-attrib $-1 $-1 $-1 $139 92 #
coedge $-1 $142 $194 $193 $206 0 $114 $-1 #
cur-twe-attrib $-1 $-1 $-1 $144 97 #
edge $207 $185 $154 $147 $208 0 #
edge_name-twe-attrib $-1 $-1 $-1 $148 15 8704 #
vertex $-1 $148 $209 #
straight-curve $210 88.50000012344 4.90747713326638 27 0 -1 0 #
edge_name-twe-attrib $-1 $-1 $-1 $152 9 8704 #
straight-curve $211 80.00000012344 9.81495444282334 35 0.86602540283833 -0.500000001638709 0 #
point $-1 88.50000012344 4.90747713326638 35 #
cur-twe-attrib $-1 $-1 $-1 $155 108 #
primitive_order-cdc-attrib $-1 $-1 $157 $115 0 10 #
surf-twe-attrib $-1 $-1 $-1 $158 115 #
coedge $-1 $164 $163 $181 $206 1 $82 $-1 #
coedge $-1 $181 $170 $165 $195 0 $114 $-1 #
edge $212 $173 $197 $194 $213 0 #
edge_name-twe-attrib $-1 $-1 $-1 $166 10 8448 #
vertex $-1 $195 $214 #
straight-curve $215 80.00000012344 9.81495444282334 27 0 6.12323293943686e-17 1 #
point $-1 80.00000012344 9.81495444282334 35 #
cur-twe-attrib $-1 $-1 $-1 $169 129 #
edge_name-twe-attrib $-1 $-1 $-1 $171 18 8704 #
straight-curve $216 71.50000012344 -4.90747748584758 27 0 1 0 #
point $-1 71.50000012344 4.90747713326638 27 #
cur-twe-attrib $-1 $-1 $-1 $174 131 #
cur-twe-attrib $-1 $-1 $-1 $178 136 #
edge $217 $197 $185 $181 $218 0 #
edge_name-twe-attrib $-1 $-1 $-1 $183 12 8448 #
straight-curve $219 88.50000012344 4.90747713326638 27 0 6.12323293943686e-17 1 #
point $-1 88.50000012344 4.90747713326638 27 #
cur-twe-attrib $-1 $-1 $-1 $186 148 #
cur-twe-attrib $-1 $-1 $-1 $188 152 #
edge_name-twe-attrib $-1 $-1 $-1 $195 19 8704 #
straight-curve $220 71.50000012344 4.90747713326638 27 0.866025402838331 0.500000001638707 0 #
point $-1 80.00000012344 9.81495444282334 27 #
cur-twe-attrib $-1 $-1 $-1 $198 166 #
cur-twe-attrib $-1 $-1 $-1 $202 171 #
edge_name-twe-attrib $-1 $-1 $-1 $206 20 8704 #
straight-curve $221 80.00000012344 9.81495444282334 27 0.86602540283833 -0.500000001638709 0 #
cur-twe-attrib $-1 $-1 $-1 $208 183 #
cur-twe-attrib $-1 $-1 $-1 $213 195 #
cur-twe-attrib $-1 $-1 $-1 $218 206 #
