700 0 2 0           
24 FBMach with ACIS - 7.0.3 13 ACIS 7.0.3 NT 24 Tue May 14 10:17:26 2002 
1 9.9999999999999995e-007 1e-010 
body $2 -1 $-1 $3 $-1 $4 #
bdycol-kcp $-1 -1 1 3 $5 $6 $7 #
model_id-kcp-attrib $-1 -1 $8 $-1 $0 1 1021385846 1021385846 762511361 1 #
lump $-1 -1 $-1 $-1 $9 $0 #
transform $-1 -1 1.0000000000000002 1.2176527717923972e-033 -6.1629758220391547e-033 1.2176527717923972e-033 1.0000000000000002 -1.2325951644078307e-032 -6.1629758220391547e-033 -1.2325951644078309e-032 1 -1.4210854715202004e-014 0 0 1 rotate no_reflect no_shear #
body $10 -1 $-1 $11 $-1 $12 #
body $13 -1 $-1 $14 $-1 $15 #
body $16 -1 $-1 $17 $-1 $18 #
brep_non_volatile_id-cdc-attrib $-1 -1 $-1 $2 $0 1 #
shell $-1 -1 $-1 $-1 $-1 $19 $-1 $3 #
rgb_color-st-attrib $-1 -1 $20 $-1 $5 0.5 1 1 #
lump $-1 -1 $-1 $21 $22 $5 #
transform $-1 -1 1 0 0 0 1 0 0 0 1 80.000000123440003 -1.7629059723134333e-007 31 1 no_rotate no_reflect no_shear #
model_id-kcp-attrib $-1 -1 $-1 $-1 $6 1 1021385846 1021385846 762511362 1 #
lump $-1 -1 $-1 $-1 $23 $6 #
transform $-1 -1 1 0 0 0 1 0 0 0 1 80.000000123440003 -1.7629059723134333e-007 31 1 no_rotate no_reflect no_shear #
rgb_color-st-attrib $-1 -1 $24 $-1 $7 0.5 1 1 #
lump $-1 -1 $-1 $-1 $25 $7 #
transform $-1 -1 -1 0 -1.2246063538223773e-016 0 1 0 1.2246063538223773e-016 0 -1 80 -2.8666638747981501e-014 31.000000000000004 1 rotate no_reflect no_shear #
face $26 -1 $-1 $27 $28 $9 $-1 $29 reversed single #
model_id-kcp-attrib $-1 -1 $-1 $10 $5 1 1021385846 1021385846 758841348 1 #
lump $-1 -1 $-1 $-1 $30 $5 #
shell $-1 -1 $-1 $-1 $-1 $31 $-1 $11 #
shell $-1 -1 $-1 $-1 $-1 $32 $-1 $14 #
model_id-kcp-attrib $-1 -1 $-1 $16 $7 1 1021385846 1021385846 763822083 1 #
shell $-1 -1 $-1 $-1 $-1 $33 $-1 $17 #
model_id-kcp-attrib $-1 -1 $34 $-1 $19 1 1021385846 1021385846 762511361 2 #
face $35 -1 $-1 $36 $37 $9 $-1 $38 forward single #
loop $39 -1 $-1 $40 $41 $19 #
cone-surface $42 -1 $-1 80 -2.8666638747981501e-014 31 0 -6.1232329394368604e-017 -1 4.9999998237094196 0 0 1 I I 0 1 4.9999998237094196 forward I I I I #
shell $-1 -1 $-1 $-1 $-1 $43 $-1 $21 #
face $-1 -1 $-1 $44 $45 $22 $-1 $46 reversed single #
face $47 -1 $-1 $48 $49 $23 $-1 $50 forward single #
face $-1 -1 $-1 $51 $52 $25 $-1 $53 forward single #
face_name-twe-attrib $-1 -1 $54 $26 $19 1 #
model_id-kcp-attrib $-1 -1 $55 $-1 $27 1 1021385846 1021385846 762511361 3 #
face $56 -1 $-1 $57 $58 $9 $-1 $59 forward single #
loop $60 -1 $-1 $-1 $61 $27 #
plane-surface $62 -1 $-1 88.500000123440003 -4.90747748584758 27 0.50000000163870884 -0.86602540283832974 5.3028752730487387e-017 1.0605750511338e-016 0 -1 forward_v I I I I #
model_id-kcp-attrib $-1 -1 $63 $-1 $28 1 1021385846 1021385846 762511361 15 #
loop $64 -1 $-1 $-1 $65 $19 #
coedge $-1 -1 $-1 $41 $41 $66 $67 reversed $28 $-1 #
surf-twe-attrib $-1 -1 $-1 $-1 $29 5 #
face $-1 -1 $-1 $68 $69 $30 $-1 $70 reversed single #
face $-1 -1 $-1 $71 $72 $22 $-1 $73 reversed single #
loop $-1 -1 $-1 $-1 $74 $31 #
plane-surface $-1 -1 $-1 8.5 -4.9074773095569837 4 0.50000000163870872 -0.86602540283832974 -1.0674587237928691e-032 0 1.2325951644078309e-032 -1 forward_v I I I I #
model_id-kcp-attrib $-1 -1 $-1 $-1 $32 1 1021385846 1021385846 762511362 4 #
face $75 -1 $-1 $76 $77 $23 $-1 $78 reversed single #
loop $-1 -1 $-1 $-1 $79 $32 #
plane-surface $-1 -1 $-1 0 0 4 0 0 1 1 0 0 forward_v I I I I #
face $-1 -1 $-1 $80 $81 $25 $-1 $82 forward single #
loop $-1 -1 $-1 $83 $84 $33 #
cone-surface $-1 -1 $-1 0 0 0 0 0 1 4.9999998237094196 0 0 1 I I 0 1 4.9999998237094196 forward I I I I #
primitive_order-cdc-attrib $-1 -1 $-1 $34 $19 1 3 #
face_name-twe-attrib $-1 -1 $85 $35 $27 2 #
model_id-kcp-attrib $-1 -1 $86 $-1 $36 1 1021385846 1021385846 762511361 4 #
face $87 -1 $-1 $88 $89 $9 $-1 $90 forward single #
loop $91 -1 $-1 $-1 $92 $36 #
plane-surface $93 -1 $-1 80.000000123440003 -9.81495479540453 27 -0.50000000163870695 -0.86602540283833085 5.3028752730487393e-017 1.0605750511338e-016 0 1 forward_v I I I I #
loop_type-twe-attrib $-1 -1 $-1 $-1 $37 0 #
coedge $-1 -1 $-1 $94 $95 $96 $97 forward $37 $-1 #
surf-twe-attrib $-1 -1 $-1 $-1 $38 7 #
loop_type-twe-attrib $-1 -1 $-1 $39 $28 0 #
model_id-kcp-attrib $-1 -1 $98 $-1 $40 1 1021385846 1021385846 762511361 16 #
coedge $-1 -1 $-1 $65 $65 $99 $100 reversed $40 $-1 #
coedge $-1 -1 $-1 $66 $66 $41 $67 forward $101 $-1 #
edge $102 -1 $-1 $103 0 $103 6.2831853071795862 $66 $104 forward @7 unknown #
face $-1 -1 $-1 $105 $106 $30 $-1 $107 reversed single #
loop $-1 -1 $-1 $-1 $108 $43 #
plane-surface $-1 -1 $-1 0 9.8149546191139372 0 0 -1 0 0 0 -1 forward_v I I I I #
face $-1 -1 $-1 $109 $110 $22 $-1 $111 reversed single #
loop $-1 -1 $-1 $-1 $112 $44 #
plane-surface $-1 -1 $-1 0 -9.8149546191139372 4 -0.50000000163870684 -0.86602540283833085 -1.0674587237928704e-032 0 -1.2325951644078309e-032 1 forward_v I I I I #
coedge $-1 -1 $-1 $113 $114 $115 $116 reversed $45 $-1 #
model_id-kcp-attrib $-1 -1 $-1 $-1 $48 1 1021385846 1021385846 762511362 5 #
face $-1 -1 $-1 $117 $118 $23 $-1 $119 reversed single #
loop $-1 -1 $-1 $-1 $120 $48 #
plane-surface $-1 -1 $-1 0 0 -4 0 0 1 1 0 0 forward_v I I I I #
coedge $-1 -1 $-1 $121 $122 $123 $124 forward $49 $-1 #
face $-1 -1 $-1 $-1 $125 $25 $-1 $126 forward single #
loop $-1 -1 $-1 $-1 $127 $51 #
plane-surface $-1 -1 $-1 0 0 -4.0000000000000018 0 0 -1 -1 0 0 forward_v I I I I #
loop $-1 -1 $-1 $-1 $128 $33 #
coedge $-1 -1 $-1 $84 $84 $127 $129 reversed $52 $-1 #
primitive_order-cdc-attrib $-1 -1 $-1 $55 $27 0 10 #
face_name-twe-attrib $-1 -1 $130 $56 $36 3 #
model_id-kcp-attrib $-1 -1 $131 $-1 $57 1 1021385846 1021385846 762511361 5 #
face $132 -1 $-1 $133 $134 $9 $-1 $135 forward single #
loop $136 -1 $-1 $-1 $137 $57 #
plane-surface $138 -1 $-1 71.500000123440003 -4.90747748584758 27 -1 0 0 0 0 1 forward_v I I I I #
loop_type-twe-attrib $-1 -1 $-1 $-1 $58 0 #
coedge $-1 -1 $-1 $139 $140 $141 $142 forward $58 $-1 #
surf-twe-attrib $-1 -1 $-1 $-1 $59 12 #
coedge $-1 -1 $-1 $143 $61 $140 $144 reversed $37 $-1 #
coedge $-1 -1 $-1 $61 $143 $145 $146 forward $37 $-1 #
coedge $-1 -1 $-1 $147 $141 $61 $97 reversed $148 $-1 #
edge $149 -1 $-1 $150 0 $151 9.814954586946202 $61 $152 forward @7 unknown #
loop_type-twe-attrib $-1 -1 $-1 $64 $40 1 #
coedge $-1 -1 $-1 $99 $99 $65 $100 forward $153 $-1 #
edge $154 -1 $-1 $155 0 $155 6.2831853071795862 $99 $156 forward @7 unknown #
loop $157 -1 $-1 $148 $66 $158 #
attrib_edge_convexity-kcp-attrib $-1 -1 $159 $-1 $67 1 #
vertex $160 -1 $-1 $67 $161 #
ellipse-curve $162 -1 $-1 80 -2.8421709430404001e-014 35 0 0 -1 4.9999998237094196 0 0 1 I I #
face $-1 -1 $-1 $163 $164 $30 $-1 $165 reversed single #
loop $-1 -1 $-1 $-1 $166 $68 #
plane-surface $-1 -1 $-1 -8.5 0 0 1 0 0 0 0 -1 forward_v I I I I #
coedge $-1 -1 $-1 $167 $168 $169 $170 reversed $69 $-1 #
face $-1 -1 $-1 $171 $172 $22 $-1 $173 reversed single #
loop $-1 -1 $-1 $-1 $174 $71 #
plane-surface $-1 -1 $-1 8.5 0 0 -1 0 0 0 0 1 forward_v I I I I #
coedge $-1 -1 $-1 $175 $176 $177 $178 reversed $72 $-1 #
coedge $-1 -1 $-1 $179 $74 $174 $180 reversed $45 $-1 #
coedge $-1 -1 $-1 $74 $179 $175 $181 forward $45 $-1 #
coedge $-1 -1 $-1 $182 $183 $74 $116 forward $184 $-1 #
edge $-1 -1 $-1 $185 -2.4537386306526927 $186 7.3612159562935133 $115 $187 forward @7 unknown #
face $188 -1 $-1 $189 $190 $23 $-1 $191 reversed single #
loop $-1 -1 $-1 $-1 $192 $76 #
plane-surface $-1 -1 $-1 0 -9.8149546191139372 0 0 1 0 0 0 1 forward_v I I I I #
coedge $-1 -1 $-1 $193 $194 $195 $196 forward $77 $-1 #
coedge $-1 -1 $-1 $197 $79 $198 $199 forward $49 $-1 #
coedge $-1 -1 $-1 $79 $197 $200 $201 forward $49 $-1 #
coedge $-1 -1 $-1 $202 $203 $79 $124 reversed $204 $-1 #
edge $-1 -1 $-1 $205 -9.8149546191139372 $206 9.8149546191139372 $123 $207 forward @7 unknown #
loop $-1 -1 $-1 $-1 $208 $80 #
plane-surface $-1 -1 $-1 0 0 4.0000000000000018 0 0 1 1 0 0 forward_v I I I I #
coedge $-1 -1 $-1 $127 $127 $84 $129 forward $81 $-1 #
coedge $-1 -1 $-1 $128 $128 $208 $209 reversed $83 $-1 #
edge $-1 -1 $-1 $210 0 $210 6.2831853071795862 $127 $211 forward @7 unknown #
primitive_order-cdc-attrib $-1 -1 $-1 $86 $36 0 10 #
face_name-twe-attrib $-1 -1 $212 $87 $57 4 #
model_id-kcp-attrib $-1 -1 $213 $-1 $88 1 1021385846 1021385846 762511361 6 #
face $214 -1 $-1 $215 $216 $9 $-1 $217 forward single #
loop $218 -1 $-1 $-1 $219 $88 #
plane-surface $220 -1 $-1 71.500000123440003 4.9074771332663802 27 -0.50000000163870695 0.86602540283833085 -5.3028752730487393e-017 -1.0605750511338e-016 0 1 forward_v I I I I #
loop_type-twe-attrib $-1 -1 $-1 $-1 $89 0 #
coedge $-1 -1 $-1 $221 $222 $223 $224 forward $89 $-1 #
surf-twe-attrib $-1 -1 $-1 $-1 $90 21 #
coedge $-1 -1 $-1 $225 $92 $222 $226 reversed $58 $-1 #
coedge $-1 -1 $-1 $92 $225 $94 $144 forward $58 $-1 #
coedge $-1 -1 $-1 $96 $223 $92 $142 reversed $148 $-1 #
edge $227 -1 $-1 $151 0 $228 9.8149545869462003 $92 $229 forward @7 unknown #
coedge $-1 -1 $-1 $95 $94 $230 $231 reversed $37 $-1 #
edge $232 -1 $-1 $233 0 $151 8 $140 $234 forward @7 unknown #
coedge $-1 -1 $-1 $235 $236 $95 $146 reversed $237 $-1 #
edge $238 -1 $-1 $239 0 $150 8 $95 $240 forward @7 unknown #
coedge $-1 -1 $-1 $241 $96 $236 $242 reversed $148 $-1 #
loop $243 -1 $-1 $-1 $96 $158 #
attrib_edge_convexity-kcp-attrib $-1 -1 $244 $-1 $97 1 #
vertex $-1 -1 $-1 $146 $245 #
vertex $-1 -1 $-1 $144 $246 #
straight-curve $247 -1 $-1 88.500000123440003 -4.90747748584758 35 -0.86602540283832996 -0.50000000163870895 0 I I #
loop $248 -1 $-1 $249 $99 $250 #
attrib_edge_convexity-kcp-attrib $-1 -1 $251 $-1 $100 1 #
vertex $252 -1 $-1 $100 $253 #
ellipse-curve $254 -1 $-1 80 -2.8911568065559e-014 27 0 0 1 4.9999998237094196 0 0 1 I I #
model_id-kcp-attrib $-1 -1 $255 $-1 $101 1 1021385846 1021385846 762511361 17 #
face $256 -1 $-1 $250 $101 $9 $-1 $257 forward single #
convexity-sys-attrib $-1 -1 $258 $102 $67 #
model_id-kcp-attrib $-1 -1 $-1 $-1 $103 1 1021385846 1021385846 762511361 19 #
point $-1 -1 $-1 84.999999823709402 -2.8421709430404001e-014 35 #
cur-twe-attrib $-1 -1 $-1 $-1 $104 30 #
face $-1 -1 $-1 $259 $260 $30 $-1 $261 forward single #
loop $-1 -1 $-1 $-1 $262 $105 #
plane-surface $-1 -1 $-1 0 0 -4 0 0 1 1 0 0 forward_v I I I I #
coedge $-1 -1 $-1 $263 $264 $265 $266 forward $106 $-1 #
coedge $-1 -1 $-1 $267 $108 $268 $269 reversed $69 $-1 #
coedge $-1 -1 $-1 $108 $267 $270 $271 reversed $69 $-1 #
coedge $-1 -1 $-1 $272 $273 $274 $170 forward $275 $-1 #
edge $-1 -1 $-1 $276 -2 $277 6 $278 $279 forward @7 unknown #
face $-1 -1 $-1 $280 $281 $22 $-1 $261 forward single #
loop $-1 -1 $-1 $-1 $282 $109 #
plane-surface $-1 -1 $-1 0 -9.8149546191139372 0 0 1 0 0 0 1 forward_v I I I I #
coedge $-1 -1 $-1 $283 $284 $113 $180 forward $110 $-1 #
coedge $-1 -1 $-1 $285 $112 $286 $181 reversed $72 $-1 #
coedge $-1 -1 $-1 $112 $285 $287 $288 reversed $72 $-1 #
coedge $-1 -1 $-1 $289 $290 $112 $178 forward $281 $-1 #
edge $-1 -1 $-1 $186 -2.4537386628204003 $291 7.3612159241257977 $177 $292 forward @7 unknown #
coedge $-1 -1 $-1 $114 $113 $293 $294 reversed $45 $-1 #
edge $-1 -1 $-1 $295 -6 $185 2 $174 $296 forward @7 unknown #
edge $-1 -1 $-1 $297 -6 $186 2 $286 $298 forward @7 unknown #
coedge $-1 -1 $-1 $183 $115 $299 $300 forward $184 $-1 #
coedge $-1 -1 $-1 $115 $182 $283 $301 forward $184 $-1 #
loop $-1 -1 $-1 $-1 $115 $280 #
vertex $-1 -1 $-1 $180 $302 #
vertex $-1 -1 $-1 $300 $303 #
straight-curve $-1 -1 $-1 6.3750000139290304 -6.1343466289042929 4 -0.86602540283832974 -0.50000000163870872 0 I I #
model_id-kcp-attrib $-1 -1 $-1 $-1 $117 1 1021385846 1021385846 762511362 2 #
face $-1 -1 $-1 $304 $305 $23 $-1 $306 reversed single #
loop $-1 -1 $-1 $-1 $307 $117 #
plane-surface $-1 -1 $-1 -8.5 0 0 1 0 0 0 0 -1 forward_v I I I I #
coedge $-1 -1 $-1 $308 $200 $309 $310 forward $118 $-1 #
coedge $-1 -1 $-1 $311 $120 $308 $312 forward $77 $-1 #
coedge $-1 -1 $-1 $120 $311 $313 $314 forward $77 $-1 #
coedge $-1 -1 $-1 $203 $202 $120 $196 reversed $204 $-1 #
edge $-1 -1 $-1 $315 -9.8149546191139372 $316 9.8149546191139372 $195 $317 forward @7 unknown #
coedge $-1 -1 $-1 $122 $121 $318 $319 forward $49 $-1 #
coedge $-1 -1 $-1 $320 $321 $121 $199 reversed $305 $-1 #
edge $-1 -1 $-1 $206 -8.5 $322 8.5 $198 $323 forward @7 unknown #
coedge $-1 -1 $-1 $192 $324 $122 $201 reversed $118 $-1 #
edge $-1 -1 $-1 $325 -8.5 $205 8.5 $200 $326 forward @7 unknown #
coedge $-1 -1 $-1 $195 $123 $324 $327 forward $204 $-1 #
coedge $-1 -1 $-1 $123 $195 $320 $328 reversed $204 $-1 #
loop $-1 -1 $-1 $-1 $202 $304 #
vertex $-1 -1 $-1 $124 $329 #
vertex $-1 -1 $-1 $124 $330 #
straight-curve $-1 -1 $-1 8.5 0 4 0 1 0 I I #
coedge $-1 -1 $-1 $208 $208 $128 $209 forward $125 $-1 #
edge $-1 -1 $-1 $331 0 $331 6.2831853071795862 $208 $332 forward @7 unknown #
vertex $-1 -1 $-1 $129 $333 #
ellipse-curve $-1 -1 $-1 0 0 -4.0000000000000018 0 0 -1 4.9999998237094196 0 0 1 I I #
primitive_order-cdc-attrib $-1 -1 $-1 $131 $57 0 10 #
face_name-twe-attrib $-1 -1 $334 $132 $88 5 #
model_id-kcp-attrib $-1 -1 $335 $-1 $133 1 1021385846 1021385846 762511361 7 #
face $336 -1 $-1 $158 $237 $9 $-1 $337 forward single #
loop $338 -1 $-1 $-1 $339 $133 #
plane-surface $340 -1 $-1 80.000000123440003 9.8149544428233408 27 0.50000000163870884 0.86602540283832974 -5.3028752730487387e-017 -1.0605750511338e-016 0 -1 forward_v I I I I #
loop_type-twe-attrib $-1 -1 $-1 $-1 $134 0 #
coedge $-1 -1 $-1 $341 $342 $343 $344 forward $134 $-1 #
surf-twe-attrib $-1 -1 $-1 $-1 $135 33 #
coedge $-1 -1 $-1 $345 $137 $342 $346 reversed $89 $-1 #
coedge $-1 -1 $-1 $137 $345 $139 $226 forward $89 $-1 #
coedge $-1 -1 $-1 $141 $343 $137 $224 reversed $148 $-1 #
edge $347 -1 $-1 $228 0 $348 9.8149546191139603 $137 $349 forward @7 unknown #
coedge $-1 -1 $-1 $140 $139 $350 $351 reversed $58 $-1 #
edge $352 -1 $-1 $353 0 $228 8 $222 $354 forward @7 unknown #
attrib_edge_convexity-kcp-attrib $-1 -1 $355 $-1 $142 1 #
vertex $-1 -1 $-1 $226 $356 #
straight-curve $357 -1 $-1 80.000000123440003 -9.81495479540453 35 -0.86602540283833096 0.50000000163870695 0 I I #
coedge $-1 -1 $-1 $350 $358 $143 $231 forward $249 $-1 #
edge $359 -1 $-1 $239 0 $233 9.814954586946202 $230 $360 forward @7 unknown #
attrib_edge_convexity-kcp-attrib $-1 -1 $361 $-1 $144 1 #
vertex $-1 -1 $-1 $231 $362 #
straight-curve $363 -1 $-1 80.000000123440003 -9.81495479540453 27 0 6.1232329394368604e-017 1 I I #
coedge $-1 -1 $-1 $364 $145 $358 $365 reversed $237 $-1 #
coedge $-1 -1 $-1 $145 $364 $147 $242 forward $237 $-1 #
loop $366 -1 $-1 $-1 $236 $215 #
attrib_edge_convexity-kcp-attrib $-1 -1 $367 $-1 $146 1 #
vertex $-1 -1 $-1 $365 $368 #
straight-curve $369 -1 $-1 88.500000123440003 -4.90747748584758 27 0 6.1232329394368604e-017 1 I I #
coedge $-1 -1 $-1 $343 $147 $339 $370 reversed $148 $-1 #
edge $371 -1 $-1 $372 0 $150 9.8149546191139603 $236 $373 forward @7 unknown #
loop_type-twe-attrib $-1 -1 $-1 $-1 $148 0 #
convexity-sys-attrib $-1 -1 $374 $149 $97 #
point $-1 -1 $-1 88.500000123440003 -4.90747748584758 35 #
point $-1 -1 $-1 80.000000123440003 -9.81495479540453 35 #
cur-twe-attrib $-1 -1 $-1 $-1 $152 42 #
model_id-kcp-attrib $-1 -1 $375 $-1 $153 1 1021385846 1021385846 762511361 18 #
loop $376 -1 $-1 $-1 $358 $250 #
face $377 -1 $-1 $-1 $153 $9 $-1 $378 forward single #
convexity-sys-attrib $-1 -1 $379 $154 $100 #
model_id-kcp-attrib $-1 -1 $-1 $-1 $155 1 1021385846 1021385846 762511361 20 #
point $-1 -1 $-1 84.999999823709402 -2.8911568065559e-014 27 #
cur-twe-attrib $-1 -1 $-1 $-1 $156 44 #
loop_type-twe-attrib $-1 -1 $-1 $157 $101 1 #
model_id-kcp-attrib $-1 -1 $380 $-1 $158 1 1021385846 1021385846 762511361 9 #
plane-surface $381 -1 $-1 80.000000123440003 -1.7629059762966301e-007 35 0 0 1 1 0 0 forward_v I I I I #
edge_name-twe-attrib $-1 -1 $-1 $159 $67 13 8704 #
face $-1 -1 $-1 $382 $383 $30 $-1 $165 reversed single #
loop $-1 -1 $-1 $-1 $384 $163 #
plane-surface $-1 -1 $-1 0 0 4 0 0 1 1 0 0 forward_v I I I I #
coedge $-1 -1 $-1 $270 $385 $272 $386 forward $164 $-1 #
coedge $-1 -1 $-1 $387 $166 $388 $389 reversed $106 $-1 #
coedge $-1 -1 $-1 $166 $387 $390 $391 reversed $106 $-1 #
coedge $-1 -1 $-1 $392 $393 $166 $266 reversed $394 $-1 #
edge $-1 -1 $-1 $395 -6 $396 2 $166 $397 forward @7 unknown #
coedge $-1 -1 $-1 $168 $167 $398 $399 forward $69 $-1 #
coedge $-1 -1 $-1 $384 $400 $167 $269 forward $260 $-1 #
edge $-1 -1 $-1 $401 -8.5 $276 -1.4210854715202004e-014 $167 $402 forward @7 unknown #
coedge $-1 -1 $-1 $385 $262 $168 $271 forward $164 $-1 #
edge $-1 -1 $-1 $277 1.4210854715202004e-014 $403 8.5 $168 $404 forward @7 unknown #
coedge $-1 -1 $-1 $405 $169 $262 $386 reversed $275 $-1 #
coedge $-1 -1 $-1 $169 $405 $384 $406 reversed $275 $-1 #
coedge $-1 -1 $-1 $393 $392 $278 $170 reversed $394 $-1 #
loop $-1 -1 $-1 $-1 $273 $407 #
vertex $-1 -1 $-1 $408 $409 #
vertex $-1 -1 $-1 $271 $410 #
coedge $-1 -1 $-1 $411 $412 $108 $170 forward $413 $-1 #
straight-curve $-1 -1 $-1 5.0626169922907138e-014 9.8149546191139372 2 -2.1349174405887333e-032 0 -1 I I #
face $-1 -1 $-1 $414 $184 $22 $-1 $261 forward single #
loop $-1 -1 $-1 $-1 $177 $171 #
coedge $-1 -1 $-1 $415 $299 $114 $181 reversed $172 $-1 #
coedge $-1 -1 $-1 $416 $174 $183 $301 reversed $110 $-1 #
coedge $-1 -1 $-1 $174 $416 $417 $418 reversed $110 $-1 #
coedge $-1 -1 $-1 $176 $175 $419 $420 reversed $72 $-1 #
coedge $-1 -1 $-1 $421 $422 $282 $181 forward $423 $-1 #
coedge $-1 -1 $-1 $424 $425 $176 $288 forward $426 $-1 #
edge $-1 -1 $-1 $291 -2 $427 6 $287 $428 forward @7 unknown #
coedge $-1 -1 $-1 $290 $177 $425 $429 forward $281 $-1 #
coedge $-1 -1 $-1 $177 $289 $421 $430 forward $281 $-1 #
vertex $-1 -1 $-1 $429 $431 #
straight-curve $-1 -1 $-1 -2.125000013929025 -8.5880852836827799 4 -0.86602540283833085 0.50000000163870684 0 I I #
coedge $-1 -1 $-1 $417 $432 $179 $294 forward $433 $-1 #
edge $-1 -1 $-1 $297 -7.3612159562935133 $295 2.4537386306526927 $293 $434 forward @7 unknown #
vertex $-1 -1 $-1 $418 $435 #
straight-curve $-1 -1 $-1 8.5 -4.9074773095569837 2 0 -1.2325951644078309e-032 1 I I #
vertex $-1 -1 $-1 $436 $437 #
straight-curve $-1 -1 $-1 1.0674587272913742e-032 -9.8149546191139372 2 -2.1349174405887333e-032 0 1 I I #
coedge $-1 -1 $-1 $282 $438 $182 $300 reversed $172 $-1 #
edge $-1 -1 $-1 $186 0 $439 8.5 $299 $440 forward @7 unknown #
edge $-1 -1 $-1 $439 -9.8149546191139372 $185 -4.9074773095569837 $283 $441 forward @7 unknown #
point $-1 -1 $-1 8.5 -4.9074773095569837 4 #
point $-1 -1 $-1 0 -9.8149546191139372 4 #
face $442 -1 $-1 $-1 $204 $23 $-1 $443 reversed single #
loop $-1 -1 $-1 $-1 $320 $189 #
plane-surface $-1 -1 $-1 0 9.8149546191139372 0 0 -1 0 0 0 -1 forward_v I I I I #
coedge $-1 -1 $-1 $444 $318 $321 $445 forward $190 $-1 #
coedge $-1 -1 $-1 $324 $192 $193 $312 reversed $118 $-1 #
coedge $-1 -1 $-1 $318 $444 $192 $310 reversed $190 $-1 #
edge $-1 -1 $-1 $325 -4 $446 4 $309 $447 forward @7 unknown #
coedge $-1 -1 $-1 $194 $193 $444 $448 forward $77 $-1 #
edge $-1 -1 $-1 $316 -8.5 $446 8.5 $308 $449 forward @7 unknown #
coedge $-1 -1 $-1 $321 $320 $194 $314 reversed $305 $-1 #
edge $-1 -1 $-1 $450 -8.5 $315 8.5 $313 $451 forward @7 unknown #
vertex $-1 -1 $-1 $196 $452 #
vertex $-1 -1 $-1 $327 $453 #
straight-curve $-1 -1 $-1 8.5 0 -4 0 -1 0 I I #
coedge $-1 -1 $-1 $307 $309 $197 $319 reversed $190 $-1 #
edge $-1 -1 $-1 $322 -9.8149546191139372 $325 9.8149546191139372 $318 $454 forward @7 unknown #
coedge $-1 -1 $-1 $313 $198 $203 $328 forward $305 $-1 #
coedge $-1 -1 $-1 $198 $313 $307 $445 reversed $305 $-1 #
vertex $-1 -1 $-1 $199 $455 #
straight-curve $-1 -1 $-1 0 9.8149546191139372 4 -1 0 0 I I #
coedge $-1 -1 $-1 $200 $308 $202 $327 reversed $118 $-1 #
vertex $-1 -1 $-1 $319 $456 #
straight-curve $-1 -1 $-1 0 -9.8149546191139372 4 1 0 0 I I #
edge $-1 -1 $-1 $205 -4 $316 4 $202 $457 forward @7 unknown #
edge $-1 -1 $-1 $206 -4 $315 4 $203 $458 forward @7 unknown #
point $-1 -1 $-1 8.5 -9.8149546191139372 4 #
point $-1 -1 $-1 8.5 9.8149546191139372 4 #
vertex $-1 -1 $-1 $209 $459 #
ellipse-curve $-1 -1 $-1 0 0 4.0000000000000018 0 0 1 4.9999998237094196 0 0 1 I I #
point $-1 -1 $-1 4.9999998237094196 0 -4.0000000000000018 #
primitive_order-cdc-attrib $-1 -1 $-1 $213 $88 0 10 #
face_name-twe-attrib $-1 -1 $460 $214 $133 6 #
model_id-kcp-attrib $-1 -1 $461 $-1 $215 1 1021385846 1021385846 762511361 8 #
plane-surface $462 -1 $-1 88.500000123440003 4.9074771332663802 27 1 0 0 0 0 -1 forward_v I I I I #
loop_type-twe-attrib $-1 -1 $-1 $-1 $216 0 #
coedge $-1 -1 $-1 $463 $464 $241 $370 forward $216 $-1 #
surf-twe-attrib $-1 -1 $-1 $-1 $217 51 #
coedge $-1 -1 $-1 $465 $219 $464 $466 reversed $134 $-1 #
coedge $-1 -1 $-1 $219 $465 $221 $346 forward $134 $-1 #
coedge $-1 -1 $-1 $223 $241 $219 $344 reversed $148 $-1 #
edge $467 -1 $-1 $348 0 $468 9.8149545869462056 $219 $469 forward @7 unknown #
coedge $-1 -1 $-1 $222 $221 $470 $471 reversed $89 $-1 #
edge $472 -1 $-1 $473 0 $348 8 $342 $474 forward @7 unknown #
attrib_edge_convexity-kcp-attrib $-1 -1 $475 $-1 $224 1 #
vertex $-1 -1 $-1 $346 $476 #
straight-curve $477 -1 $-1 71.500000123440003 -4.90747748584758 35 0 1 0 I I #
coedge $-1 -1 $-1 $470 $230 $225 $351 forward $249 $-1 #
edge $478 -1 $-1 $233 0 $353 9.8149545869462003 $350 $479 forward @7 unknown #
attrib_edge_convexity-kcp-attrib $-1 -1 $480 $-1 $226 1 #
vertex $-1 -1 $-1 $351 $481 #
straight-curve $482 -1 $-1 71.500000123440003 -4.90747748584758 27 0 6.1232329394368604e-017 1 I I #
convexity-sys-attrib $-1 -1 $483 $227 $142 #
point $-1 -1 $-1 71.500000123440003 -4.90747748584758 35 #
cur-twe-attrib $-1 -1 $-1 $-1 $229 60 #
coedge $-1 -1 $-1 $230 $484 $235 $365 forward $249 $-1 #
attrib_edge_convexity-kcp-attrib $-1 -1 $485 $-1 $231 1 #
straight-curve $486 -1 $-1 88.500000123440003 -4.90747748584758 27 -0.86602540283832996 -0.50000000163870895 0 I I #
convexity-sys-attrib $-1 -1 $487 $232 $144 #
point $-1 -1 $-1 80.000000123440003 -9.81495479540453 27 #
cur-twe-attrib $-1 -1 $-1 $-1 $234 62 #
coedge $-1 -1 $-1 $236 $235 $463 $488 forward $237 $-1 #
edge $489 -1 $-1 $490 0 $239 9.8149546191139603 $358 $491 forward @7 unknown #
loop_type-twe-attrib $-1 -1 $-1 $-1 $237 0 #
convexity-sys-attrib $-1 -1 $492 $238 $146 #
point $-1 -1 $-1 88.500000123440003 -4.90747748584758 27 #
cur-twe-attrib $-1 -1 $-1 $-1 $240 64 #
edge $493 -1 $-1 $468 0 $372 9.8149545869462074 $339 $494 forward @7 unknown #
attrib_edge_convexity-kcp-attrib $-1 -1 $495 $-1 $242 1 #
vertex $-1 -1 $-1 $488 $496 #
straight-curve $497 -1 $-1 88.500000123440003 4.9074771332663802 35 0 -1 0 I I #
edge_name-twe-attrib $-1 -1 $-1 $244 $97 1 8704 #
loop_type-twe-attrib $-1 -1 $-1 $248 $153 1 #
loop_type-twe-attrib $-1 -1 $-1 $-1 $249 0 #
model_id-kcp-attrib $-1 -1 $498 $-1 $250 1 1021385846 1021385846 762511361 10 #
plane-surface $499 -1 $-1 80.000000123440003 -1.7629059811952201e-007 27 0 0 -1 -1 0 0 forward_v I I I I #
edge_name-twe-attrib $-1 -1 $-1 $251 $100 14 8704 #
face_name-twe-attrib $-1 -1 $500 $256 $158 8 #
surf-twe-attrib $-1 -1 $-1 $-1 $257 76 #
face $-1 -1 $-1 $501 $502 $30 $-1 $261 forward single #
loop $-1 -1 $-1 $-1 $503 $259 #
coedge $-1 -1 $-1 $400 $268 $273 $406 forward $260 $-1 #
coedge $-1 -1 $-1 $262 $270 $504 $505 forward $164 $-1 #
edge $-1 -1 $-1 $506 -7.3612159241257853 $277 2.453738662820399 $262 $507 forward @7 unknown #
coedge $-1 -1 $-1 $264 $263 $508 $509 forward $106 $-1 #
coedge $-1 -1 $-1 $510 $511 $263 $389 forward $502 $-1 #
edge $-1 -1 $-1 $512 -9.8149546191139372 $396 -4.9074773095569784 $263 $513 forward @7 unknown #
coedge $-1 -1 $-1 $514 $503 $264 $391 forward $383 $-1 #
edge $-1 -1 $-1 $395 4.9074773095569784 $515 9.8149546191139372 $264 $516 forward @7 unknown #
coedge $-1 -1 $-1 $274 $265 $503 $517 reversed $394 $-1 #
coedge $-1 -1 $-1 $265 $274 $510 $518 reversed $394 $-1 #
loop $-1 -1 $-1 $-1 $393 $519 #
vertex $-1 -1 $-1 $391 $520 #
vertex $-1 -1 $-1 $266 $521 #
straight-curve $-1 -1 $-1 -8.5 4.9074773095569784 2 0 -1.2325951644078309e-032 1 I I #
coedge $-1 -1 $-1 $522 $504 $267 $399 reversed $523 $-1 #
edge $-1 -1 $-1 $401 -4 $403 4 $398 $524 forward @7 unknown #
coedge $-1 -1 $-1 $268 $384 $522 $525 forward $260 $-1 #
vertex $-1 -1 $-1 $525 $526 #
straight-curve $-1 -1 $-1 0 9.8149546191139372 4 -1 0 0 I I #
vertex $-1 -1 $-1 $505 $527 #
straight-curve $-1 -1 $-1 0 9.8149546191139372 -4 1 0 0 I I #
coedge $-1 -1 $-1 $273 $272 $528 $529 reversed $275 $-1 #
edge $-1 -1 $-1 $276 -2.453738662820399 $530 7.3612159241257853 $384 $531 forward @7 unknown #
face $-1 -1 $-1 $519 $275 $30 $-1 $532 reversed single #
edge $-1 -1 $-1 $276 -1.4210854715202004e-014 $512 8.5 $412 $402 forward @7 unknown #
point $-1 -1 $-1 1.4210854715202004e-014 9.8149546191139159 4 #
point $-1 -1 $-1 1.4210854715202004e-014 9.8149546191139159 -4 #
coedge $-1 -1 $-1 $508 $278 $514 $533 reversed $413 $-1 #
coedge $-1 -1 $-1 $278 $508 $511 $408 reversed $413 $-1 #
loop $-1 -1 $-1 $-1 $278 $534 #
face $-1 -1 $-1 $535 $426 $22 $-1 $107 reversed single #
coedge $-1 -1 $-1 $438 $282 $432 $536 reversed $172 $-1 #
coedge $-1 -1 $-1 $284 $283 $438 $537 forward $110 $-1 #
coedge $-1 -1 $-1 $432 $293 $284 $418 forward $433 $-1 #
edge $-1 -1 $-1 $295 4.9074773095569837 $538 9.8149546191139372 $284 $539 forward @7 unknown #
coedge $-1 -1 $-1 $540 $541 $285 $420 forward $542 $-1 #
edge $-1 -1 $-1 $427 -7.3612159241257977 $297 2.4537386628204003 $419 $543 forward @7 unknown #
coedge $-1 -1 $-1 $544 $286 $290 $430 reversed $423 $-1 #
coedge $-1 -1 $-1 $286 $544 $540 $436 reversed $423 $-1 #
loop $-1 -1 $-1 $-1 $286 $545 #
coedge $-1 -1 $-1 $546 $287 $541 $547 reversed $426 $-1 #
coedge $-1 -1 $-1 $287 $546 $289 $429 reversed $426 $-1 #
loop $-1 -1 $-1 $-1 $287 $414 #
vertex $-1 -1 $-1 $420 $548 #
straight-curve $-1 -1 $-1 -8.5 -4.9074773095570086 2 0 1.2325951644078309e-032 -1 I I #
edge $-1 -1 $-1 $291 4.9074773095569988 $549 9.8149546191139372 $425 $513 forward @7 unknown #
edge $-1 -1 $-1 $549 -8.5 $186 0 $421 $440 forward @7 unknown #
point $-1 -1 $-1 -8.5 -4.9074773095569988 4 #
coedge $-1 -1 $-1 $293 $417 $415 $536 forward $433 $-1 #
loop $-1 -1 $-1 $-1 $293 $550 #
straight-curve $-1 -1 $-1 6.3750000139290304 -6.1343466289042929 -4 0.86602540283832974 0.50000000163870872 0 I I #
point $-1 -1 $-1 8.5 -4.9074773095569837 -4 #
edge $-1 -1 $-1 $297 0 $551 8.5 $422 $552 forward @7 unknown #
point $-1 -1 $-1 0 -9.8149546191139372 -4 #
coedge $-1 -1 $-1 $299 $415 $416 $537 reversed $172 $-1 #
vertex $-1 -1 $-1 $301 $553 #
straight-curve $-1 -1 $-1 0 -9.8149546191139372 4 1 0 0 I I #
straight-curve $-1 -1 $-1 8.5 0 4 0 1 0 I I #
model_id-kcp-attrib $-1 -1 $-1 $-1 $304 1 1021385846 1021385846 762511362 3 #
plane-surface $-1 -1 $-1 8.5 0 0 -1 0 0 0 0 1 forward_v I I I I #
coedge $-1 -1 $-1 $309 $307 $311 $448 reversed $190 $-1 #
edge $-1 -1 $-1 $322 -4 $450 4 $321 $554 forward @7 unknown #
vertex $-1 -1 $-1 $448 $555 #
straight-curve $-1 -1 $-1 -8.5 -9.8149546191139372 0 0 0 -1 I I #
edge $-1 -1 $-1 $446 -9.8149546191139372 $450 9.8149546191139372 $444 $556 forward @7 unknown #
straight-curve $-1 -1 $-1 0 -9.8149546191139372 -4 -1 0 0 I I #
vertex $-1 -1 $-1 $314 $557 #
straight-curve $-1 -1 $-1 0 9.8149546191139372 -4 1 0 0 I I #
point $-1 -1 $-1 8.5 9.8149546191139372 -4 #
point $-1 -1 $-1 8.5 -9.8149546191139372 -4 #
straight-curve $-1 -1 $-1 -8.5 0 4 0 -1 0 I I #
point $-1 -1 $-1 -8.5 9.8149546191139372 4 #
point $-1 -1 $-1 -8.5 -9.8149546191139372 4 #
straight-curve $-1 -1 $-1 8.5 -9.8149546191139372 0 0 0 -1 I I #
straight-curve $-1 -1 $-1 8.5 9.8149546191139372 0 0 0 -1 I I #
point $-1 -1 $-1 4.9999998237094196 0 4.0000000000000018 #
primitive_order-cdc-attrib $-1 -1 $-1 $335 $133 0 10 #
face_name-twe-attrib $-1 -1 $558 $336 $215 7 #
surf-twe-attrib $-1 -1 $-1 $-1 $337 81 #
coedge $-1 -1 $-1 $559 $339 $364 $488 reversed $216 $-1 #
coedge $-1 -1 $-1 $339 $559 $341 $466 forward $216 $-1 #
coedge $-1 -1 $-1 $342 $341 $560 $561 reversed $134 $-1 #
edge $562 -1 $-1 $563 0 $468 8 $464 $564 forward @7 unknown #
attrib_edge_convexity-kcp-attrib $-1 -1 $565 $-1 $344 1 #
vertex $-1 -1 $-1 $466 $566 #
straight-curve $567 -1 $-1 71.500000123440003 4.9074771332663802 35 0.86602540283833096 0.50000000163870695 0 I I #
coedge $-1 -1 $-1 $560 $350 $345 $471 forward $249 $-1 #
edge $568 -1 $-1 $353 0 $473 9.8149546191139603 $470 $569 forward @7 unknown #
attrib_edge_convexity-kcp-attrib $-1 -1 $570 $-1 $346 1 #
vertex $-1 -1 $-1 $471 $571 #
straight-curve $572 -1 $-1 71.500000123440003 4.9074771332663802 27 0 6.1232329394368604e-017 1 I I #
convexity-sys-attrib $-1 -1 $573 $347 $224 #
point $-1 -1 $-1 71.500000123440003 4.9074771332663802 35 #
cur-twe-attrib $-1 -1 $-1 $-1 $349 90 #
attrib_edge_convexity-kcp-attrib $-1 -1 $574 $-1 $351 1 #
straight-curve $575 -1 $-1 80.000000123440003 -9.81495479540453 27 -0.86602540283833096 0.50000000163870695 0 I I #
convexity-sys-attrib $-1 -1 $576 $352 $226 #
point $-1 -1 $-1 71.500000123440003 -4.90747748584758 27 #
cur-twe-attrib $-1 -1 $-1 $-1 $354 92 #
edge_name-twe-attrib $-1 -1 $-1 $355 $142 3 8704 #
coedge $-1 -1 $-1 $358 $560 $559 $577 forward $249 $-1 #
convexity-sys-attrib $-1 -1 $578 $359 $231 #
cur-twe-attrib $-1 -1 $-1 $-1 $360 97 #
edge_name-twe-attrib $-1 -1 $-1 $361 $144 4 8448 #
edge $579 -1 $-1 $490 0 $372 8 $364 $580 forward @7 unknown #
model_id-kcp-attrib $-1 -1 $581 $-1 $365 1 1021385846 1021385846 762511361 12 #
vertex $-1 -1 $-1 $365 $582 #
straight-curve $583 -1 $-1 88.500000123440003 4.9074771332663802 27 0 -1 0 I I #
edge_name-twe-attrib $-1 -1 $-1 $367 $146 2 8448 #
attrib_edge_convexity-kcp-attrib $-1 -1 $584 $-1 $370 1 #
straight-curve $585 -1 $-1 80.000000123440003 9.8149544428233408 35 0.86602540283832996 -0.50000000163870895 0 I I #
convexity-sys-attrib $-1 -1 $586 $371 $242 #
point $-1 -1 $-1 88.500000123440003 4.9074771332663802 35 #
cur-twe-attrib $-1 -1 $-1 $-1 $373 108 #
face_name-twe-attrib $-1 -1 $587 $377 $250 9 #
surf-twe-attrib $-1 -1 $-1 $-1 $378 115 #
primitive_order-cdc-attrib $-1 -1 $-1 $380 $158 0 10 #
face $-1 -1 $-1 $534 $523 $30 $-1 $111 reversed single #
loop $-1 -1 $-1 $-1 $510 $382 #
coedge $-1 -1 $-1 $390 $514 $392 $517 forward $383 $-1 #
coedge $-1 -1 $-1 $398 $528 $385 $505 reversed $523 $-1 #
edge $-1 -1 $-1 $403 -9.8149546191139372 $506 -4.9074773095569819 $504 $539 forward @7 unknown #
vertex $-1 -1 $-1 $529 $588 #
straight-curve $-1 -1 $-1 2.1250000139290344 8.5880852836827533 -4 -0.86602540283832974 0.50000000163870884 0 I I #
coedge $-1 -1 $-1 $412 $411 $387 $509 reversed $413 $-1 #
edge $-1 -1 $-1 $512 -4 $515 4 $508 $589 forward @7 unknown #
coedge $-1 -1 $-1 $511 $388 $393 $518 forward $502 $-1 #
coedge $-1 -1 $-1 $388 $510 $412 $408 forward $502 $-1 #
vertex $-1 -1 $-1 $408 $590 #
straight-curve $-1 -1 $-1 -8.5 0 4 0 -1 0 I I #
coedge $-1 -1 $-1 $503 $390 $411 $533 forward $383 $-1 #
vertex $-1 -1 $-1 $533 $591 #
straight-curve $-1 -1 $-1 -8.5 0 -4 0 1 0 I I #
edge $-1 -1 $-1 $277 -7.3612159562935062 $395 2.4537386306527034 $503 $592 forward @7 unknown #
edge $-1 -1 $-1 $396 -2.4537386306527034 $276 7.3612159562935062 $510 $593 forward @7 unknown #
face $-1 -1 $-1 $-1 $394 $30 $-1 $594 reversed single #
point $-1 -1 $-1 -8.5 4.9074773095569784 -4 #
point $-1 -1 $-1 -8.5 4.9074773095569784 4 #
coedge $-1 -1 $-1 $528 $398 $400 $525 reversed $523 $-1 #
loop $-1 -1 $-1 $-1 $528 $501 #
straight-curve $-1 -1 $-1 8.5 9.8149546191139372 0 0 0 -1 I I #
edge $-1 -1 $-1 $530 4.9074773095569819 $401 9.8149546191139372 $522 $441 forward @7 unknown #
point $-1 -1 $-1 8.5 9.8149546191139372 4 #
point $-1 -1 $-1 8.5 9.8149546191139372 -4 #
coedge $-1 -1 $-1 $504 $522 $405 $529 forward $523 $-1 #
edge $-1 -1 $-1 $530 -2 $506 6 $528 $595 forward @7 unknown #
vertex $-1 -1 $-1 $525 $596 #
straight-curve $-1 -1 $-1 2.1250000139290344 8.5880852836827533 4 0.86602540283832974 -0.50000000163870884 0 I I #
plane-surface $-1 -1 $-1 1.4210854715202004e-014 9.8149546191139159 4 0.50000000163870872 0.86602540283832963 1.0674587237928689e-032 0 1.2325951644078309e-032 -1 forward_v I I I I #
edge $-1 -1 $-1 $515 -8.5 $277 1.4210854715202004e-014 $411 $404 forward @7 unknown #
face $-1 -1 $-1 $407 $413 $30 $-1 $70 reversed single #
face $-1 -1 $-1 $550 $542 $22 $-1 $165 reversed single #
edge $-1 -1 $-1 $538 -8.5 $297 0 $415 $552 forward @7 unknown #
edge $-1 -1 $-1 $439 -4 $538 4 $416 $597 forward @7 unknown #
vertex $-1 -1 $-1 $537 $598 #
straight-curve $-1 -1 $-1 8.5 0 -4 0 -1 0 I I #
coedge $-1 -1 $-1 $541 $419 $422 $436 forward $542 $-1 #
coedge $-1 -1 $-1 $419 $540 $424 $547 forward $542 $-1 #
loop $-1 -1 $-1 $-1 $419 $535 #
straight-curve $-1 -1 $-1 -2.125000013929025 -8.5880852836827799 -4 0.86602540283833085 -0.50000000163870684 0 I I #
coedge $-1 -1 $-1 $422 $421 $546 $599 forward $423 $-1 #
face $-1 -1 $-1 $-1 $423 $22 $-1 $173 reversed single #
coedge $-1 -1 $-1 $425 $424 $544 $599 reversed $426 $-1 #
edge $-1 -1 $-1 $551 -9.8149546191139372 $427 -4.9074773095569988 $424 $516 forward @7 unknown #
point $-1 -1 $-1 -8.5 -4.9074773095569988 -4 #
vertex $-1 -1 $-1 $429 $600 #
face $-1 -1 $-1 $545 $433 $22 $-1 $165 reversed single #
vertex $-1 -1 $-1 $547 $601 #
straight-curve $-1 -1 $-1 0 -9.8149546191139372 -4 -1 0 0 I I #
point $-1 -1 $-1 8.5 -9.8149546191139372 4 #
straight-curve $-1 -1 $-1 -8.5 9.8149546191139372 0 0 0 -1 I I #
point $-1 -1 $-1 -8.5 -9.8149546191139372 -4 #
straight-curve $-1 -1 $-1 -8.5 0 -4 0 1 0 I I #
point $-1 -1 $-1 -8.5 9.8149546191139372 -4 #
primitive_order-cdc-attrib $-1 -1 $-1 $461 $215 0 10 #
coedge $-1 -1 $-1 $464 $463 $484 $577 reversed $216 $-1 #
coedge $-1 -1 $-1 $484 $470 $465 $561 forward $249 $-1 #
edge $602 -1 $-1 $473 0 $563 9.8149545869462056 $560 $603 forward @7 unknown #
edge_name-twe-attrib $-1 -1 $-1 $-1 $466 10 8448 #
vertex $-1 -1 $-1 $561 $604 #
straight-curve $605 -1 $-1 80.000000123440003 9.8149544428233408 27 0 6.1232329394368604e-017 1 I I #
convexity-sys-attrib $-1 -1 $606 $467 $344 #
point $-1 -1 $-1 80.000000123440003 9.8149544428233408 35 #
cur-twe-attrib $-1 -1 $-1 $-1 $469 129 #
model_id-kcp-attrib $-1 -1 $607 $-1 $471 1 1021385846 1021385846 762511361 13 #
straight-curve $608 -1 $-1 71.500000123440003 -4.90747748584758 27 0 1 0 I I #
convexity-sys-attrib $-1 -1 $609 $472 $346 #
point $-1 -1 $-1 71.500000123440003 4.9074771332663802 27 #
cur-twe-attrib $-1 -1 $-1 $-1 $474 131 #
edge_name-twe-attrib $-1 -1 $-1 $475 $224 5 8704 #
convexity-sys-attrib $-1 -1 $610 $478 $351 #
cur-twe-attrib $-1 -1 $-1 $-1 $479 136 #
edge_name-twe-attrib $-1 -1 $-1 $480 $226 6 8448 #
edge $611 -1 $-1 $563 0 $490 9.8149545869462074 $484 $612 forward @7 unknown #
edge_name-twe-attrib $-1 -1 $-1 $485 $231 16 8704 #
edge_name-twe-attrib $-1 -1 $-1 $-1 $488 12 8448 #
straight-curve $613 -1 $-1 88.500000123440003 4.9074771332663802 27 0 6.1232329394368604e-017 1 I I #
edge_name-twe-attrib $-1 -1 $-1 $489 $365 15 8704 #
point $-1 -1 $-1 88.500000123440003 4.9074771332663802 27 #
cur-twe-attrib $-1 -1 $-1 $-1 $491 148 #
convexity-sys-attrib $-1 -1 $614 $493 $370 #
cur-twe-attrib $-1 -1 $-1 $-1 $494 152 #
edge_name-twe-attrib $-1 -1 $-1 $495 $242 11 8704 #
primitive_order-cdc-attrib $-1 -1 $-1 $498 $250 0 10 #
point $-1 -1 $-1 8.5 4.9074773095569819 -4 #
straight-curve $-1 -1 $-1 -8.5 9.8149546191139372 0 0 0 -1 I I #
point $-1 -1 $-1 -8.5 9.8149546191139372 4 #
point $-1 -1 $-1 -8.5 9.8149546191139372 -4 #
straight-curve $-1 -1 $-1 -6.3750000139290179 6.1343466289042876 -4 -0.86602540283833085 -0.50000000163870684 0 I I #
straight-curve $-1 -1 $-1 -6.3750000139290179 6.1343466289042876 4 0.86602540283833085 0.50000000163870684 0 I I #
plane-surface $-1 -1 $-1 -8.5 4.9074773095569784 4 -0.50000000163870684 0.86602540283833085 1.0674587237928704e-032 0 -1.2325951644078309e-032 1 forward_v I I I I #
straight-curve $-1 -1 $-1 8.5 4.9074773095569686 2 0 1.2325951644078309e-032 -1 I I #
point $-1 -1 $-1 8.5 4.9074773095569819 4 #
straight-curve $-1 -1 $-1 8.5 -9.8149546191139372 0 0 0 -1 I I #
point $-1 -1 $-1 8.5 -9.8149546191139372 -4 #
edge $-1 -1 $-1 $549 -4 $551 4 $546 $615 forward @7 unknown #
point $-1 -1 $-1 -8.5 -9.8149546191139372 4 #
point $-1 -1 $-1 -8.5 -9.8149546191139372 -4 #
edge_name-twe-attrib $-1 -1 $-1 $-1 $561 19 8704 #
straight-curve $616 -1 $-1 71.500000123440003 4.9074771332663802 27 0.86602540283833096 0.50000000163870695 0 I I #
point $-1 -1 $-1 80.000000123440003 9.8149544428233408 27 #
cur-twe-attrib $-1 -1 $-1 $-1 $564 166 #
edge_name-twe-attrib $-1 -1 $-1 $565 $344 7 8704 #
attrib_edge_convexity-kcp-attrib $-1 -1 $617 $568 $471 1 #
cur-twe-attrib $-1 -1 $-1 $-1 $569 171 #
edge_name-twe-attrib $-1 -1 $-1 $570 $346 8 8448 #
edge_name-twe-attrib $-1 -1 $-1 $574 $351 17 8704 #
edge_name-twe-attrib $-1 -1 $-1 $-1 $577 20 8704 #
straight-curve $618 -1 $-1 80.000000123440003 9.8149544428233408 27 0.86602540283832996 -0.50000000163870895 0 I I #
cur-twe-attrib $-1 -1 $-1 $-1 $580 183 #
edge_name-twe-attrib $-1 -1 $-1 $584 $370 9 8704 #
straight-curve $-1 -1 $-1 -8.5 -9.8149546191139372 0 0 0 -1 I I #
cur-twe-attrib $-1 -1 $-1 $-1 $603 195 #
convexity-sys-attrib $-1 -1 $619 $607 $471 #
cur-twe-attrib $-1 -1 $-1 $-1 $612 206 #
edge_name-twe-attrib $-1 -1 $-1 $617 $471 18 8704 #
End-of-ACIS-data 