600 0 1 0           
117 GICL Pro/E ACIS Translator - Source: f:/data5/repository/PTC/V20/web_demos/models/local_mill/island_stock.prt.3 - 6 0 13 ACIS 6.0.3 NT 24 Thu Apr 04 13:12:39 2002 
1 9.9999999999999995e-007 1e-010 
body $-1 $1 $-1 $2 #
lump $-1 $-1 $3 $0 #
transform $-1 1 0 0 0 1 0 0 0 1 0 0 0 25.399999999999999 no_rotate no_reflect no_shear #
shell $-1 $-1 $-1 $4 $-1 $1 #
face $-1 $5 $6 $3 $-1 $7 reversed single #
face $-1 $8 $9 $3 $-1 $10 forward single #
loop $-1 $-1 $11 $4 #
plane-surface $-1 0 0 0 0 1 0 1 0 0 forward_v I I I I #
face $-1 $12 $13 $3 $-1 $14 forward single #
loop $-1 $-1 $15 $5 #
plane-surface $-1 3 0 -10.771243444677046 -0.34182694011508796 0 -0.93976291851272586 -0.93976291851272575 0 0.34182694011508791 forward_v I I I I #
coedge $-1 $16 $17 $18 $19 reversed $6 $-1 #
face $-1 $20 $21 $3 $-1 $22 forward single #
loop $-1 $-1 $23 $8 #
plane-surface $-1 -4.6188021535170041 0 -8 -0.86602540378443871 0 0.5 0.5 0 0.86602540378443871 forward_v I I I I #
coedge $-1 $24 $18 $25 $26 forward $9 $-1 #
coedge $-1 $27 $11 $28 $29 reversed $6 $-1 #
coedge $-1 $11 $30 $31 $32 reversed $6 $-1 #
coedge $-1 $15 $33 $11 $19 forward $9 $-1 #
edge $-1 $34 0 $35 8.107153414368133 $11 $36 forward 7 unknown #
face $-1 $37 $38 $3 $-1 $39 forward single #
loop $-1 $-1 $40 $12 #
plane-surface $-1 0 0 0 0 0 1 1 0 0 forward_v I I I I #
coedge $-1 $41 $42 $43 $44 forward $13 $-1 #
coedge $-1 $33 $15 $45 $46 reversed $9 $-1 #
coedge $-1 $31 $41 $15 $26 reversed $13 $-1 #
edge $-1 $35 0 $47 4 $15 $48 forward 7 unknown #
coedge $-1 $49 $16 $50 $51 reversed $6 $-1 #
coedge $-1 $52 $53 $16 $29 forward $54 $-1 #
edge $-1 $55 1.7763568394002506e-016 $34 0.848062078981481 $16 $56 forward 7 unknown #
coedge $-1 $17 $57 $58 $59 reversed $6 $-1 #
coedge $-1 $60 $25 $17 $32 forward $13 $-1 #
edge $-1 $35 0 $61 5.1776043070340121 $17 $62 forward 7 unknown #
coedge $-1 $18 $24 $52 $63 reversed $9 $-1 #
vertex $-1 $29 $64 #
vertex $-1 $32 $65 #
straight-curve $-1 3 0 -10.771243444677046 -0.93976291851272575 0 0.34182694011508791 I I #
face $-1 $66 $67 $3 $-1 $68 forward single #
loop $-1 $-1 $69 $20 #
cone-surface $-1 19.5 0 -2 0 1 0 2 0 0 1 I I 0 1 2 forward I I I I #
coedge $-1 $70 $71 $72 $73 reversed $21 $-1 #
coedge $-1 $25 $23 $74 $75 reversed $13 $-1 #
coedge $-1 $23 $60 $76 $77 reversed $13 $-1 #
coedge $-1 $71 $78 $23 $44 reversed $21 $-1 #
edge $-1 $79 0 $80 3 $43 $81 forward 7 unknown #
coedge $-1 $74 $82 $24 $46 forward $83 $-1 #
edge $-1 $84 0 $47 8.107153414368133 $45 $85 forward 7 unknown #
vertex $-1 $75 $86 #
straight-curve $-1 -4.6188021535170058 0 -7.9999999999999991 0 1 0 I I #
coedge $-1 $72 $27 $87 $88 reversed $6 $-1 #
coedge $-1 $89 $90 $27 $51 forward $67 $-1 #
edge $-1 $91 0 $55 1.5000000000000036 $27 $92 forward 7 unknown #
coedge $-1 $93 $28 $33 $63 forward $54 $-1 #
coedge $-1 $28 $94 $89 $95 reversed $54 $-1 #
loop $-1 $-1 $28 $96 #
vertex $-1 $51 $97 #
ellipse-curve $-1 18 0 -24 0 -1 0 0 0 20 1 I I #
coedge $-1 $30 $98 $99 $100 reversed $6 $-1 #
coedge $-1 $101 $102 $30 $59 forward $103 $-1 #
edge $-1 $61 0 $104 1.5 $30 $105 forward 7 unknown #
coedge $-1 $42 $31 $102 $106 forward $13 $-1 #
vertex $-1 $32 $107 #
straight-curve $-1 -4.6188021535170041 0 -8 0.5 0 0.86602540378443871 I I #
edge $-1 $34 7.8886090522101181e-030 $84 4 $52 $108 forward 7 unknown #
point $-1 3 0 -10.771243444677046 #
point $-1 -4.6188021535170041 0 -8 #
face $-1 $109 $110 $3 $-1 $111 forward single #
loop $-1 $-1 $112 $37 #
plane-surface $-1 19.5 0 -4 0 0 -1 -1 0 0 forward_v I I I I #
coedge $-1 $113 $87 $90 $114 forward $38 $-1 #
coedge $-1 $115 $40 $116 $117 forward $21 $-1 #
coedge $-1 $40 $43 $118 $119 reversed $21 $-1 #
coedge $-1 $98 $49 $40 $73 forward $6 $-1 #
edge $-1 $120 0 $121 19.5 $72 $122 forward 7 unknown #
coedge $-1 $123 $45 $41 $75 forward $83 $-1 #
edge $-1 $47 0 $80 9.2376043070340117 $74 $124 forward 7 unknown #
coedge $-1 $125 $126 $42 $77 forward $127 $-1 #
edge $-1 $79 8.8817841970012523e-016 $128 4.0600000000000014 $42 $129 forward 7 unknown #
coedge $-1 $43 $130 $123 $131 reversed $21 $-1 #
vertex $-1 $119 $132 #
vertex $-1 $131 $133 #
straight-curve $-1 1.7763568394002505e-015 1 0 0 1 0 I I #
coedge $-1 $45 $134 $93 $135 forward $83 $-1 #
loop $-1 $-1 $134 $136 #
vertex $-1 $46 $137 #
straight-curve $-1 3 4 -10.771243444677046 -0.93976291851272575 0 0.34182694011508791 I I #
point $-1 -4.6188021535170041 4 -8 #
coedge $-1 $69 $116 $49 $88 forward $38 $-1 #
edge $-1 $120 0 $91 3.1415926535897931 $49 $138 forward 7 unknown #
coedge $-1 $112 $50 $53 $95 forward $67 $-1 #
coedge $-1 $50 $112 $69 $114 reversed $67 $-1 #
vertex $-1 $88 $139 #
straight-curve $-1 19.5 0 -4 -1 0 0 I I #
coedge $-1 $94 $52 $82 $135 reversed $54 $-1 #
coedge $-1 $53 $93 $140 $141 reversed $54 $-1 #
edge $-1 $55 0 $142 1.5 $53 $143 forward 7 unknown #
face $-1 $136 $54 $3 $-1 $144 reversed single #
point $-1 17.999999999999996 0 -4 #
coedge $-1 $57 $72 $145 $146 reversed $6 $-1 #
coedge $-1 $147 $148 $57 $100 forward $149 $-1 #
edge $-1 $104 0 $150 3.1415926535897931 $57 $151 forward 7 unknown #
coedge $-1 $152 $58 $148 $153 forward $103 $-1 #
coedge $-1 $58 $152 $60 $106 reversed $103 $-1 #
loop $-1 $-1 $58 $154 #
vertex $-1 $59 $155 #
straight-curve $-1 -2.0299999999999989 0 -3.516063139364821 -0.86602540378443871 0 0.5 I I #
edge $-1 $61 0 $128 1 $60 $156 forward 7 unknown #
point $-1 -2.0299999999999989 0 -3.516063139364821 #
straight-curve $-1 2.9999999999999982 0 -10.771243444677051 4.4408920985006262e-016 1 1.3322676295501878e-015 I I #
face $-1 $96 $157 $3 $-1 $158 forward single #
loop $-1 $-1 $159 $66 #
plane-surface $-1 0 1.5 0 0 1 0 1 0 0 forward_v I I I I #
coedge $-1 $90 $89 $160 $161 reversed $67 $-1 #
coedge $-1 $116 $69 $162 $163 reversed $38 $-1 #
edge $-1 $91 0 $164 1.5 $69 $165 forward 7 unknown #
coedge $-1 $130 $70 $159 $166 reversed $21 $-1 #
coedge $-1 $87 $113 $70 $117 reversed $38 $-1 #
edge $-1 $120 0 $167 1.5 $70 $168 forward 7 unknown #
coedge $-1 $169 $145 $71 $119 forward $170 $-1 #
edge $-1 $121 0 $79 1 $71 $171 forward 7 unknown #
vertex $-1 $73 $172 #
vertex $-1 $146 $173 #
straight-curve $-1 19.5 0 0 -1 0 0 I I #
coedge $-1 $134 $74 $78 $131 forward $83 $-1 #
straight-curve $-1 -4.6188021535170041 4 -8 0.5 0 0.86602540378443871 I I #
coedge $-1 $174 $76 $152 $175 forward $127 $-1 #
coedge $-1 $76 $174 $169 $176 forward $127 $-1 #
loop $-1 $-1 $125 $177 #
vertex $-1 $77 $178 #
straight-curve $-1 1.7763568394002505e-015 1 0 -0.49999999999999989 0 -0.8660254037844386 I I #
coedge $-1 $78 $115 $179 $180 forward $21 $-1 #
edge $-1 $80 0 $181 18 $123 $182 forward 7 unknown #
point $-1 0 1 0 #
point $-1 0 4 0 #
coedge $-1 $82 $123 $183 $184 forward $83 $-1 #
edge $-1 $185 0 $84 0.84806207898148167 $82 $186 forward 7 unknown #
face $-1 $187 $83 $3 $-1 $188 forward single #
point $-1 3 4 -10.771243444677046 #
ellipse-curve $-1 19.5 0 -2 0 1 0 0 0 2 1 I I #
point $-1 19.5 0 -4 #
coedge $-1 $183 $189 $94 $141 forward $157 $-1 #
edge $-1 $142 0 $185 2.5 $140 $190 forward 7 unknown #
vertex $-1 $191 $192 #
straight-curve $-1 17.999999999999996 0 -4 0 1 0 I I #
cone-surface $-1 18 0 -24 0 1 0 20 0 0 1 I I 0 1 20 forward I I I I #
coedge $-1 $118 $193 $98 $146 forward $170 $-1 #
edge $-1 $150 5.5511151231257827e-017 $121 1.5000000000000002 $98 $194 forward 7 unknown #
coedge $-1 $195 $99 $193 $196 forward $149 $-1 #
coedge $-1 $99 $195 $101 $153 reversed $149 $-1 #
loop $-1 $-1 $147 $197 #
vertex $-1 $100 $198 #
ellipse-curve $-1 -2.3140381056766577 0 -1.0080315696824107 0 1 0 -1.0149999999999992 0 -1.7580315696824103 1 I I #
coedge $-1 $102 $101 $125 $175 reversed $103 $-1 #
edge $-1 $104 0 $199 1 $101 $200 forward 7 unknown #
face $-1 $197 $103 $3 $-1 $201 forward single #
point $-1 -3.3290381056766569 0 -2.766063139364821 #
straight-curve $-1 -2.029999999999998 0 -3.5160631393648214 0 1 0 I I #
loop $-1 $-1 $140 $109 #
plane-surface $-1 18 0 0 1 0 0 0 0 -1 forward_v I I I I #
coedge $-1 $162 $202 $115 $166 forward $110 $-1 #
coedge $-1 $202 $162 $112 $161 forward $110 $-1 #
edge $-1 $164 0 $142 1.5 $160 $203 forward 7 unknown #
coedge $-1 $160 $159 $113 $163 forward $110 $-1 #
edge $-1 $167 0 $164 3.1415926535897931 $162 $204 forward 7 unknown #
vertex $-1 $161 $205 #
straight-curve $-1 19.5 0 -4 0 1 0 I I #
edge $-1 $206 0 $167 1.5 $115 $207 forward 7 unknown #
vertex $-1 $166 $208 #
straight-curve $-1 19.5 0 0 0 1 0 I I #
coedge $-1 $193 $118 $126 $176 reversed $170 $-1 #
loop $-1 $-1 $169 $187 #
straight-curve $-1 0 0 0 0 1 0 I I #
point $-1 19.5 0 0 #
point $-1 0 0 0 #
coedge $-1 $126 $125 $195 $209 forward $127 $-1 #
edge $-1 $128 -1.7604147540318826e-015 $199 1.4999999999999996 $125 $210 forward 7 unknown #
edge $-1 $211 0 $79 1.5 $126 $212 forward 7 unknown #
face $-1 $154 $127 $3 $-1 $213 forward single #
point $-1 -2.029999999999998 1 -3.516063139364821 #
coedge $-1 $189 $183 $130 $180 reversed $157 $-1 #
edge $-1 $206 0 $181 2.5 $130 $214 forward 7 unknown #
vertex $-1 $131 $215 #
straight-curve $-1 0 4 0 1 0 0 I I #
coedge $-1 $179 $140 $134 $184 reversed $157 $-1 #
edge $-1 $181 0 $185 4 $134 $216 forward 7 unknown #
vertex $-1 $135 $217 #
ellipse-curve $-1 17.999999999999993 4 -23.999999999999986 0 -1 0 7.1054273576010019e-015 0 19.999999999999986 1 I I #
face $-1 $177 $170 $3 $-1 $218 forward single #
plane-surface $-1 0 4 0 0 1 0 1 0 0 forward_v I I I I #
coedge $-1 $140 $179 $202 $191 forward $157 $-1 #
straight-curve $-1 18 1.5 -4 0 1 0 I I #
edge $-1 $206 0 $142 4 $189 $219 forward 7 unknown #
point $-1 18 1.5 -4 #
coedge $-1 $145 $169 $147 $196 reversed $170 $-1 #
straight-curve $-1 -1.2990381056766582 0 0.75000000000000011 0.86602540378443871 0 -0.5 I I #
coedge $-1 $148 $147 $174 $209 reversed $149 $-1 #
edge $-1 $150 1.2325951644078309e-032 $211 1 $147 $220 forward 7 unknown #
face $-1 $-1 $149 $3 $-1 $221 forward single #
point $-1 -1.2990381056766582 0 0.75 #
vertex $-1 $209 $222 #
straight-curve $-1 -3.3290381056766574 0 -2.766063139364821 0 1 0 I I #
plane-surface $-1 -2.0299999999999989 0 -3.516063139364821 -0.5 0 -0.86602540378443871 -0.86602540378443871 0 0.5 forward_v I I I I #
coedge $-1 $159 $160 $189 $191 reversed $110 $-1 #
straight-curve $-1 19.5 1.5 -4 -1 0 0 I I #
ellipse-curve $-1 19.5 1.5 -2 0 1 0 0 0 2 1 I I #
point $-1 19.5 1.5 -4 #
vertex $-1 $180 $223 #
straight-curve $-1 18 1.5 0 1 0 0 I I #
point $-1 19.5 1.5 0 #
edge $-1 $199 -1.6164765337064572e-016 $211 3.1415926535897931 $174 $224 forward 7 unknown #
straight-curve $-1 -2.0299999999999998 1 -3.5160631393648205 -0.86602540378443871 0 0.5 I I #
vertex $-1 $176 $225 #
straight-curve $-1 -1.299038105676658 1 0.75 0.86602540378443871 0 -0.5 I I #
plane-surface $-1 0 1 0 0 1 0 -0.5 0 -0.86602540378443871 forward_v I I I I #
straight-curve $-1 18 1.5 0 0 1 0 I I #
point $-1 18 4 0 #
straight-curve $-1 18 4 0 0 0 -1 I I #
point $-1 18 4 -4 #
plane-surface $-1 -1.299038105676658 0 0.75 0.5 0 0.86602540378443871 0.86602540378443871 0 -0.5 forward_v I I I I #
straight-curve $-1 18 1.5 0 0 0 -1 I I #
straight-curve $-1 -1.299038105676658 0 0.74999999999999989 0 1 1.1102230246251565e-016 I I #
cone-surface $-1 -2.3140381056766577 0 -1.0080315696824107 0 1 0 -1.0149999999999999 0 -1.7580315696824105 1 I I 0 1 2.0299999999999998 forward I I I I #
point $-1 -3.3290381056766574 1 -2.766063139364821 #
point $-1 18 1.5 0 #
ellipse-curve $-1 -2.3140381056766577 1 -1.0080315696824105 0 1 0 -1.0150000000000001 0 -1.7580315696824105 1 I I #
point $-1 -1.299038105676658 1 0.75 #
End-of-ACIS-data 