600 0 1 0           
112 GICL Pro/E ACIS Translator - Source: f:/data5/repository/PTC/V20/web_demos/models/local_mill/prt0001.prt.2 - 6 0 13 ACIS 6.0.3 NT 24 Thu Apr 04 13:12:36 2002 
1 9.9999999999999995e-007 1e-010 
body $-1 $1 $-1 $2 #
lump $-1 $-1 $3 $0 #
transform $-1 1 0 0 0 1 0 0 0 1 0 0 0 25.399999999999999 no_rotate no_reflect no_shear #
shell $-1 $-1 $-1 $4 $-1 $1 #
face $-1 $5 $6 $3 $-1 $7 reversed single #
face $-1 $8 $9 $3 $-1 $10 forward single #
loop $-1 $-1 $11 $4 #
plane-surface $-1 0 0 0 0 1 0 1 0 0 forward_v I I I I #
face $-1 $12 $13 $3 $-1 $14 forward single #
loop $-1 $-1 $15 $5 #
plane-surface $-1 -25.763199149489175 0 15.370672385545134 0.51235574618483803 0 0.85877330498297277 0.85877330498297277 0 -0.51235574618483803 forward_v I I I I #
coedge $-1 $16 $17 $18 $19 reversed $6 $-1 #
face $-1 $20 $21 $3 $-1 $22 forward single #
loop $-1 $-1 $23 $8 #
cone-surface $-1 -38.572092804110127 0 -6.0986602390291855 0 1 0 25 0 0 1 I I 0 1 25 forward I I I I #
coedge $-1 $18 $24 $23 $25 reversed $9 $-1 #
coedge $-1 $26 $11 $27 $28 reversed $6 $-1 #
coedge $-1 $11 $29 $30 $31 forward $6 $-1 #
coedge $-1 $32 $15 $11 $19 forward $9 $-1 #
edge $-1 $33 0 $34 29.999999999999993 $11 $35 forward 7 unknown #
face $-1 $36 $37 $3 $-1 $38 forward single #
loop $-1 $-1 $39 $12 #
plane-surface $-1 0 20 0 0 1 0 1 0 0 forward_v I I I I #
coedge $-1 $40 $27 $15 $25 forward $13 $-1 #
coedge $-1 $15 $41 $42 $43 reversed $9 $-1 #
edge $-1 $33 6.3108872417680948e-031 $44 20 $23 $45 forward 7 unknown #
coedge $-1 $46 $16 $47 $48 reversed $6 $-1 #
coedge $-1 $23 $49 $16 $28 forward $13 $-1 #
edge $-1 $50 0 $33 3.1415926535897931 $16 $51 forward 7 unknown #
coedge $-1 $17 $52 $53 $54 reversed $6 $-1 #
coedge $-1 $55 $56 $17 $31 reversed $57 $-1 #
edge $-1 $58 0 $34 336.64238452522494 $17 $59 forward 7 unknown #
coedge $-1 $41 $18 $56 $60 reversed $9 $-1 #
vertex $-1 $28 $61 #
vertex $-1 $31 $62 #
straight-curve $-1 -25.763199149489175 0 15.370672385545134 0.85877330498297277 0 -0.51235574618483803 I I #
face $-1 $63 $64 $3 $-1 $65 reversed single #
loop $-1 $-1 $47 $20 #
plane-surface $-1 -25.617787309241887 0 -42.938665249148642 -0.5123557461848377 0 -0.85877330498297288 -0.85877330498297288 0 0.5123557461848377 forward_v I I I I #
coedge $-1 $66 $67 $68 $69 forward $21 $-1 #
coedge $-1 $49 $23 $66 $70 reversed $13 $-1 #
coedge $-1 $24 $32 $71 $72 forward $9 $-1 #
coedge $-1 $67 $66 $24 $43 forward $21 $-1 #
edge $-1 $44 0 $73 24.999999999999979 $42 $74 forward 7 unknown #
vertex $-1 $43 $75 #
straight-curve $-1 -25.763199149489179 0 15.370672385545134 1.7763568394002506e-016 1 0 I I #
coedge $-1 $76 $26 $77 $78 reversed $6 $-1 #
coedge $-1 $79 $80 $26 $48 forward $37 $-1 #
edge $-1 $81 0 $50 29.999999999999986 $26 $82 forward 7 unknown #
coedge $-1 $27 $40 $79 $83 reversed $13 $-1 #
vertex $-1 $48 $84 #
ellipse-curve $-1 -38.572092804110127 0 -6.0986602390291855 0 1 0 -12.808893654620952 0 -21.469332624574321 1 I I #
coedge $-1 $29 $85 $86 $87 reversed $6 $-1 #
coedge $-1 $88 $89 $29 $54 forward $90 $-1 #
edge $-1 $58 0 $91 3.1415926535897931 $29 $92 forward 7 unknown #
coedge $-1 $93 $30 $89 $94 forward $57 $-1 #
coedge $-1 $30 $95 $32 $60 forward $57 $-1 #
loop $-1 $-1 $96 $97 #
vertex $-1 $31 $98 #
straight-curve $-1 336.64238452522494 0 0 -1 0 0 I I #
edge $-1 $99 -3.8953140801822883e-007 $34 24.999999610468592 $56 $100 forward 7 unknown #
point $-1 -25.763199149489175 0 15.370672385545134 #
point $-1 -2.4020856775456426e-015 0 0 #
face $-1 $97 $101 $3 $-1 $102 forward single #
loop $-1 $-1 $103 $36 #
cone-surface $-1 24.04314596747475 25 50.058210756210912 -0.51235574618483803 0 -0.85877330498297277 0 -5 0 1 I I 0 1 5 forward I I I I #
coedge $-1 $42 $39 $40 $70 forward $21 $-1 #
coedge $-1 $39 $42 $104 $105 forward $21 $-1 #
coedge $-1 $106 $79 $39 $69 reversed $37 $-1 #
edge $-1 $107 -1.7685926044922942e-015 $108 24.999999999999989 $39 $109 forward 7 unknown #
edge $-1 $108 9.0949470177292803e-017 $44 3.1415926535897931 $66 $110 forward 7 unknown #
coedge $-1 $111 $104 $41 $72 reversed $64 $-1 #
edge $-1 $99 0 $73 1.5707963267949006 $41 $112 forward 7 unknown #
vertex $-1 $105 $113 #
straight-curve $-1 -25.763199149489175 20 15.370672385545134 0.85877330498297277 0 -0.51235574618483803 I I #
point $-1 -25.763199149489175 20 15.370672385545134 #
coedge $-1 $85 $46 $114 $115 reversed $6 $-1 #
coedge $-1 $116 $117 $46 $78 forward $101 $-1 #
edge $-1 $118 0 $81 115.83054623833436 $46 $119 forward 7 unknown #
coedge $-1 $68 $47 $49 $83 forward $37 $-1 #
coedge $-1 $47 $106 $116 $120 reversed $37 $-1 #
vertex $-1 $78 $121 #
straight-curve $-1 -25.617787309241905 0 -42.938665249148627 -0.858773304982973 0 0.51235574618483759 I I #
edge $-1 $50 0 $108 20 $79 $122 forward 7 unknown #
point $-1 -51.38098645873108 0 -27.567992863603507 #
coedge $-1 $52 $76 $123 $124 reversed $6 $-1 #
coedge $-1 $125 $126 $52 $87 forward $127 $-1 #
edge $-1 $91 0 $128 34.999999999999773 $52 $129 forward 7 unknown #
coedge $-1 $130 $53 $126 $131 forward $90 $-1 #
coedge $-1 $53 $130 $55 $94 reversed $90 $-1 #
loop $-1 $-1 $88 $132 #
vertex $-1 $54 $133 #
ellipse-curve $-1 336.64238452522494 0 -25 0 1 0 0 0 25 1 I I #
coedge $-1 $134 $55 $135 $136 reversed $57 $-1 #
edge $-1 $58 0 $137 20 $55 $138 forward 7 unknown #
coedge $-1 $56 $96 $139 $140 reversed $57 $-1 #
coedge $-1 $95 $141 $142 $143 reversed $57 $-1 #
face $-1 $144 $57 $3 $-1 $145 forward single #
point $-1 336.64238452522494 0 0 #
vertex $-1 $60 $146 #
straight-curve $-1 7.1054273576010019e-015 24.999999610468592 0 0 -1 0 I I #
loop $-1 $-1 $139 $63 #
plane-surface $-1 -84.964233258181082 0 -142.41084626022607 -0.85877330498297277 0 0.51235574618483803 0.51235574618483803 0 0.85877330498297277 forward_v I I I I #
coedge $-1 $104 $111 $106 $147 reversed $64 $-1 #
coedge $-1 $71 $103 $67 $105 reversed $64 $-1 #
edge $-1 $73 0 $107 50.000000000000014 $67 $148 forward 7 unknown #
coedge $-1 $80 $68 $103 $147 forward $37 $-1 #
vertex $-1 $105 $149 #
vertex $-1 $70 $150 #
straight-curve $-1 -29.911653834156773 20 -40.376886518224438 -0.85877330498297288 0 0.51235574618483759 I I #
ellipse-curve $-1 -38.572092804110127 20 -6.0986602390291855 0 1 0 -12.808893654620952 0 -21.469332624574321 1 I I #
coedge $-1 $103 $71 $151 $152 forward $64 $-1 #
ellipse-curve $-1 -4.2938665249148578 25 2.5617787309241855 -0.51235574618483792 0 -0.85877330498297277 4.2938665249148578 0 -2.5617787309241855 1 I I #
point $-1 -4.2938665249148791 20 2.5617787309241891 #
coedge $-1 $153 $154 $76 $115 forward $155 $-1 #
edge $-1 $156 -3.1775410928018586e-015 $118 125.80861030458698 $76 $157 forward 7 unknown #
coedge $-1 $151 $77 $80 $120 forward $101 $-1 #
coedge $-1 $77 $158 $153 $159 reversed $101 $-1 #
vertex $-1 $115 $160 #
straight-curve $-1 -84.964233258181082 0 -142.41084626022607 0.51235574618483792 0 0.85877330498297277 I I #
edge $-1 $81 0 $161 25 $116 $162 forward 7 unknown #
point $-1 -25.617787309241905 0 -42.938665249148627 #
straight-curve $-1 -51.38098645873108 0 -27.567992863603507 0 1 0 I I #
coedge $-1 $163 $164 $85 $124 forward $165 $-1 #
edge $-1 $128 -5.9150182308897264e-016 $156 0.65672646246207234 $85 $166 forward 7 unknown #
coedge $-1 $167 $86 $164 $168 reversed $127 $-1 #
coedge $-1 $86 $169 $88 $131 reversed $127 $-1 #
loop $-1 $-1 $126 $170 #
vertex $-1 $87 $171 #
straight-curve $-1 336.64238452522494 0 -50 -1 0 0 I I #
coedge $-1 $89 $88 $172 $173 reversed $90 $-1 #
edge $-1 $91 0 $174 20 $88 $175 forward 7 unknown #
face $-1 $176 $90 $3 $-1 $177 forward single #
point $-1 336.64238452522494 0 -50 #
coedge $-1 $141 $93 $178 $179 forward $57 $-1 #
coedge $-1 $172 $180 $93 $136 forward $181 $-1 #
edge $-1 $182 0 $137 30 $93 $183 forward 7 unknown #
vertex $-1 $136 $184 #
straight-curve $-1 336.64238452522494 0 0 0 1 0 I I #
coedge $-1 $158 $151 $95 $140 forward $101 $-1 #
edge $-1 $99 2.921485595663853e-007 $185 15.00000029214856 $95 $186 forward 7 unknown #
coedge $-1 $96 $134 $187 $188 forward $57 $-1 #
coedge $-1 $189 $190 $96 $143 forward $191 $-1 #
edge $-1 $185 0 $192 301.64238452522494 $142 $193 forward 7 unknown #
face $-1 $194 $191 $3 $-1 $195 forward single #
plane-surface $-1 0 0 0 0 0 1 1 0 0 forward_v I I I I #
point $-1 0 25 0 #
edge $-1 $107 -2.5243548967072343e-031 $161 1.5707963267948954 $106 $196 forward 7 unknown #
straight-curve $-1 -4.2938665249148791 20 2.5617787309241891 -0.51235574618483792 0 -0.85877330498297277 I I #
point $-1 -29.911653834156784 20 -40.37688651822446 #
point $-1 -51.38098645873108 20 -27.567992863603504 #
coedge $-1 $139 $116 $111 $152 reversed $101 $-1 #
edge $-1 $99 2.4407805340813774e-014 $161 50.000000000000036 $151 $197 forward 7 unknown #
coedge $-1 $198 $114 $117 $159 forward $155 $-1 #
coedge $-1 $114 $198 $163 $199 reversed $155 $-1 #
loop $-1 $-1 $153 $200 #
vertex $-1 $124 $201 #
straight-curve $-1 27.558774564417135 0 -198.68143482411909 -0.89439830509355556 0 0.44727136264886797 I I #
coedge $-1 $117 $139 $190 $202 reversed $101 $-1 #
edge $-1 $118 0 $203 40 $153 $204 forward 7 unknown #
point $-1 -84.964233258181082 0 -142.41084626022607 #
vertex $-1 $152 $205 #
straight-curve $-1 -25.617787309241898 0 -42.938665249148613 0 1 0 I I #
coedge $-1 $206 $123 $154 $199 forward $165 $-1 #
coedge $-1 $123 $207 $125 $168 forward $165 $-1 #
loop $-1 $-1 $123 $208 #
ellipse-curve $-1 382.80237647683805 0 -526.58015150017263 0 -1 0 -81.159991951613165 0 476.58015150017263 1 I I #
coedge $-1 $169 $125 $209 $210 forward $127 $-1 #
edge $-1 $211 -1.5491327225447549e-006 $128 24.999998450867277 $164 $212 forward 7 unknown #
coedge $-1 $126 $167 $213 $214 reversed $127 $-1 #
face $-1 $132 $127 $3 $-1 $215 forward single #
point $-1 301.64238452522517 0 -50 #
coedge $-1 $213 $135 $130 $173 forward $181 $-1 #
edge $-1 $137 0 $174 3.1415926535897953 $172 $216 forward 7 unknown #
vertex $-1 $214 $217 #
straight-curve $-1 336.64238452522494 0 -50 0 1 0 I I #
face $-1 $218 $181 $3 $-1 $219 forward single #
cone-surface $-1 336.64238452522494 0 -25 0 1 0 25 0 0 1 I I 0 1 25 forward I I I I #
coedge $-1 $220 $221 $134 $179 reversed $222 $-1 #
edge $-1 $182 0 $223 1.5707963267949172 $134 $224 forward 7 unknown #
coedge $-1 $135 $213 $220 $225 forward $181 $-1 #
loop $-1 $-1 $135 $176 #
vertex $-1 $179 $226 #
straight-curve $-1 306.64238452522494 20 0 1 0 0 I I #
point $-1 336.64238452522494 20 0 #
vertex $-1 $143 $227 #
straight-curve $-1 0 24.99999970785144 2.8421709430404007e-014 0 1 0 I I #
coedge $-1 $228 $229 $141 $188 reversed $230 $-1 #
edge $-1 $223 0 $192 15 $141 $231 forward 7 unknown #
coedge $-1 $232 $142 $229 $233 forward $191 $-1 #
coedge $-1 $142 $234 $158 $202 forward $191 $-1 #
loop $-1 $235 $189 $144 #
vertex $-1 $143 $236 #
straight-curve $-1 0 40 0 1 0 0 I I #
face $-1 $208 $230 $3 $-1 $237 forward single #
plane-surface $-1 0 40 0 0 1 0 1 0 0 forward_v I I I I #
ellipse-curve $-1 -29.911653834156773 25.000000000000004 -40.376886518224438 0.5123557461848377 -4.7533227618518099e-015 0.85877330498297288 -1.0658141036401503e-014 -5.0000000000000036 -2.1316282072803006e-014 1 I I #
straight-curve $-1 0 25 2.8421709430404007e-014 -0.51235574618483792 0 -0.85877330498297277 I I #
coedge $-1 $154 $153 $234 $238 reversed $155 $-1 #
edge $-1 $156 1.135959703518257e-028 $239 40 $163 $240 forward 7 unknown #
face $-1 $170 $155 $3 $-1 $241 forward single #
point $-1 27.558774564417138 0 -198.68143482411909 #
edge $-1 $203 0 $185 165.83054623833439 $190 $242 forward 7 unknown #
vertex $-1 $202 $243 #
straight-curve $-1 -84.964233258181082 0 -142.41084626022607 0 1 0 I I #
point $-1 -25.617787309241901 25 -42.938665249148642 #
coedge $-1 $207 $163 $232 $244 reversed $165 $-1 #
coedge $-1 $164 $206 $245 $246 reversed $165 $-1 #
face $-1 $200 $165 $3 $-1 $247 reversed single #
coedge $-1 $221 $220 $167 $210 reversed $222 $-1 #
edge $-1 $211 0 $248 1.570796326794915 $167 $249 forward 7 unknown #
vertex $-1 $250 $251 #
straight-curve $-1 301.64238452522517 24.999998450867277 -50 -2.2737368953251297e-015 -1 0 I I #
coedge $-1 $180 $172 $169 $214 forward $181 $-1 #
edge $-1 $174 0 $248 29.999999999999943 $213 $252 forward 7 unknown #
plane-surface $-1 336.64238452522494 0 -50 0 0 -1 -1 0 0 forward_v I I I I #
ellipse-curve $-1 336.64238452522494 20 -25.000000000000014 0 1 0 0 0 25.000000000000014 1 I I #
point $-1 336.64238452522488 20 -50 #
face $-1 $253 $222 $3 $-1 $254 reversed single #
plane-surface $-1 0 20 0 0 1 0 1 0 0 forward_v I I I I #
coedge $-1 $209 $178 $180 $225 reversed $222 $-1 #
coedge $-1 $178 $209 $228 $250 forward $222 $-1 #
loop $-1 $-1 $178 $218 #
vertex $-1 $188 $255 #
ellipse-curve $-1 306.64238452522488 24.999999999999954 0 0 0 -1 5.6843418860808015e-014 -4.9999999999999538 0 1 I I #
edge $-1 $248 0 $182 49.999999999999993 $180 $256 forward 7 unknown #
point $-1 306.64238452522494 20 0 #
point $-1 0 40 0 #
coedge $-1 $245 $187 $221 $250 reversed $230 $-1 #
coedge $-1 $187 $245 $189 $233 reversed $230 $-1 #
loop $-1 $-1 $245 $194 #
straight-curve $-1 301.64238452522494 25 0 0 1 0 I I #
coedge $-1 $234 $189 $206 $244 forward $191 $-1 #
edge $-1 $192 0 $257 50 $189 $258 forward 7 unknown #
coedge $-1 $190 $232 $198 $238 forward $191 $-1 #
loop $-1 $259 $260 $144 #
point $-1 301.64238452522494 40 0 #
plane-surface $-1 301.64238452522494 0 0 1 0 0 0 0 -1 forward_v I I I I #
edge $-1 $239 1.2710164371207434e-014 $203 125.80861030458698 $234 $261 forward 7 unknown #
vertex $-1 $238 $262 #
straight-curve $-1 27.558774564417092 0 -198.68143482411915 7.1054273576010023e-016 1 1.4210854715202005e-015 I I #
plane-surface $-1 27.558774564417124 0 -198.68143482411909 -0.44727136264886802 0 -0.89439830509355556 -0.89439830509355556 0 0.44727136264886802 forward_v I I I I #
straight-curve $-1 -84.964233258181082 40 -142.41084626022607 0.51235574618483792 0 0.85877330498297266 I I #
point $-1 -84.964233258181082 40 -142.41084626022607 #
edge $-1 $257 0 $239 0.65672646246207289 $232 $263 forward 7 unknown #
coedge $-1 $229 $228 $207 $246 forward $230 $-1 #
edge $-1 $211 1.1618495427967446e-006 $257 15.000001161849543 $245 $264 forward 7 unknown #
cone-surface $-1 382.80237647683805 0 -526.58015150017263 0 1 0 483.44139779037687 0 0 1 I I 0 1 483.44139779037687 forward I I I I #
vertex $-1 $225 $265 #
ellipse-curve $-1 306.64238452522488 24.999999999999964 -50 1.4210854715202166e-015 -1.009741958682918e-029 1 -4.9999999999999432 3.5527136788005009e-014 7.1054273576010019e-015 1 I I #
edge $-1 $211 0 $223 49.999999999999993 $228 $266 forward 7 unknown #
point $-1 301.64238452522494 25 -49.999999999999993 #
straight-curve $-1 336.64238452522488 20 -50 -1 0 0 I I #
face $-1 $267 $268 $3 $-1 $269 reversed single #
cone-surface $-1 306.64238452522494 25 -50.736878779477294 0 0 1 0 -5 0 1 I I 0 1 5 forward I I I I #
point $-1 301.64238452522494 25 0 #
straight-curve $-1 306.64238452522494 20 -49.999999999999993 0 0 1 I I #
vertex $-1 $244 $270 #
straight-curve $-1 301.64238452522494 40 0 0 0 -1 I I #
loop $-1 $271 $272 $144 #
coedge $-1 $273 $274 $275 $276 forward $235 $-1 #
straight-curve $-1 27.558774564417135 40 -198.68143482411909 -0.89439830509355556 0 0.44727136264886797 I I #
point $-1 27.558774564417121 40 -198.68143482411909 #
ellipse-curve $-1 382.80237647683794 40 -526.58015150017241 0 -1 0 -81.159991951612994 0 476.58015150017241 1 I I #
straight-curve $-1 301.64238452522494 24.999998838150457 -50 0 1 -7.5791219277211162e-015 I I #
point $-1 306.64238452522494 20 -49.999999999999993 #
straight-curve $-1 301.64238452522494 25 -49.999999999999993 0 0 1 I I #
face $-1 $277 $278 $3 $-1 $279 forward single #
loop $-1 $-1 $280 $253 #
cone-surface $-1 -47.719891062395611 40.666366639147419 -99.502287113393848 0 -1 0 3.5379026247930536 0 -3.5331635990260093 1 I I 0 1 5 forward I I I I #
point $-1 301.64238452522494 40 -50 #
loop $-1 $281 $282 $144 #
coedge $-1 $283 $284 $285 $286 forward $259 $-1 #
coedge $-1 $287 $260 $288 $289 reversed $235 $-1 #
coedge $-1 $260 $290 $291 $292 reversed $235 $-1 #
coedge $-1 $293 $294 $260 $276 reversed $268 $-1 #
edge $-1 $295 0 $296 2.8947903948929636 $260 $297 forward 7 unknown #
face $-1 $298 $299 $3 $-1 $300 reversed single #
loop $-1 $-1 $301 $267 #
plane-surface $-1 0 20 0 0 1 0 1 0 0 forward_v I I I I #
coedge $-1 $294 $293 $302 $303 reversed $268 $-1 #
loop $-1 $304 $305 $144 #
coedge $-1 $306 $307 $308 $309 forward $271 $-1 #
coedge $-1 $310 $272 $311 $312 reversed $259 $-1 #
coedge $-1 $272 $313 $314 $315 reversed $259 $-1 #
coedge $-1 $316 $317 $272 $286 reversed $318 $-1 #
edge $-1 $319 3.9790393202566127e-015 $320 1.8918120950113315 $272 $321 forward 7 unknown #
coedge $-1 $322 $273 $323 $324 forward $235 $-1 #
coedge $-1 $325 $326 $273 $289 forward $327 $-1 #
edge $-1 $328 -2.5138310098732978e-015 $296 126.49060277433315 $273 $329 forward 7 unknown #
coedge $-1 $274 $322 $330 $331 forward $235 $-1 #
coedge $-1 $332 $333 $274 $292 forward $299 $-1 #
edge $-1 $295 3.6405065357658241e-015 $334 104.22108674555088 $274 $335 forward 7 unknown #
coedge $-1 $280 $275 $333 $336 forward $268 $-1 #
coedge $-1 $275 $280 $325 $337 reversed $268 $-1 #
vertex $-1 $292 $338 #
vertex $-1 $289 $339 #
ellipse-curve $-1 -47.719891062395618 40 -99.502287113393848 1.2203902670406901e-015 -1 -7.2810130715316685e-016 -4.2938665249148542 -7.1054273576010019e-015 2.5617787309241891 1 I I #
face $-1 $340 $341 $3 $-1 $342 reversed single #
loop $-1 $-1 $291 $277 #
plane-surface $-1 -77.911048696509553 40 -140.34765750016444 -0.85877330498297266 0 0.51235574618483803 0.51235574618483803 0 0.85877330498297266 forward_v I I I I #
coedge $-1 $343 $302 $344 $345 forward $278 $-1 #
coedge $-1 $301 $346 $280 $303 forward $278 $-1 #
edge $-1 $347 0 $348 2.8947903948929645 $302 $349 forward 7 unknown #
loop $-1 $-1 $350 $144 #
coedge $-1 $351 $352 $353 $354 forward $281 $-1 #
coedge $-1 $355 $282 $356 $357 reversed $271 $-1 #
coedge $-1 $282 $358 $359 $360 reversed $271 $-1 #
coedge $-1 $361 $362 $282 $309 reversed $363 $-1 #
edge $-1 $364 7.1054273576010565e-016 $365 2.3555242906909655 $282 $366 forward 7 unknown #
coedge $-1 $367 $283 $368 $369 forward $259 $-1 #
coedge $-1 $370 $371 $283 $312 forward $372 $-1 #
edge $-1 $373 6.3550821856037164e-015 $320 103.40004336547196 $283 $374 forward 7 unknown #
coedge $-1 $284 $375 $376 $377 forward $259 $-1 #
coedge $-1 $378 $379 $284 $315 forward $380 $-1 #
edge $-1 $319 1.0041854918159762e-014 $381 175.11837487626352 $284 $382 forward 7 unknown #
coedge $-1 $383 $285 $379 $384 reversed $318 $-1 #
coedge $-1 $285 $383 $370 $385 forward $318 $-1 #
loop $-1 $-1 $285 $386 #
vertex $-1 $315 $387 #
vertex $-1 $312 $388 #
ellipse-curve $-1 -67.118568282905343 40 -140.15441856169403 0 -1 0 -3.5379026247930199 0 3.5331635990260111 1 I I #
coedge $-1 $290 $287 $389 $390 reversed $235 $-1 #
coedge $-1 $391 $392 $287 $324 reversed $393 $-1 #
edge $-1 $328 2.131628207280302e-016 $394 2.3555242906909548 $287 $395 forward 7 unknown #
coedge $-1 $396 $288 $294 $337 forward $327 $-1 #
coedge $-1 $288 $396 $391 $397 forward $327 $-1 #
loop $-1 $-1 $396 $398 #
vertex $-1 $324 $399 #
straight-curve $-1 45.200410230623824 40 -13.533163599026008 -0.70663271980520126 0 -0.70758052495861135 I I #
coedge $-1 $400 $401 $290 $331 reversed $341 $-1 #
edge $-1 $402 0 $334 1.0328706215956807 $290 $403 forward 7 unknown #
coedge $-1 $344 $291 $401 $404 forward $299 $-1 #
coedge $-1 $291 $344 $293 $336 reversed $299 $-1 #
vertex $-1 $292 $405 #
straight-curve $-1 -52.013757587310479 40 -96.940508382469659 0.51235574618483815 0 0.85877330498297266 I I #
edge $-1 $295 -7.1054273576009971e-015 $348 20 $333 $406 forward 7 unknown #
edge $-1 $296 0 $347 19.999999999999996 $325 $407 forward 7 unknown #
point $-1 -52.013757587310472 40 -96.940508382469659 #
point $-1 -44.181988437602548 39.999999999999993 -103.03545071241984 #
face $-1 $408 $409 $3 $-1 $410 reversed single #
loop $-1 $-1 $411 $298 #
cone-surface $-1 5.6783816053158569 40.779879821798815 -10 0 -1 0 -4.293866524914872 0 2.5617787309241766 1 I I 0 1 5 forward I I I I #
coedge $-1 $412 $301 $411 $413 forward $278 $-1 #
coedge $-1 $333 $332 $301 $345 reversed $299 $-1 #
edge $-1 $348 3.1688818412345421e-014 $414 104.22108674555096 $301 $415 forward 7 unknown #
coedge $-1 $302 $416 $396 $417 reversed $278 $-1 #
vertex $-1 $303 $418 #
vertex $-1 $303 $419 #
ellipse-curve $-1 -47.719891062395618 20 -99.502287113393834 5.0276620197465885e-016 1 -5.0209274590798614e-016 3.5379026247930696 -3.5527136788005009e-015 -3.5331635990260111 1 I I #
coedge $-1 $420 $421 $422 $423 forward $304 $-1 #
coedge $-1 $424 $305 $425 $426 reversed $281 $-1 #
coedge $-1 $305 $427 $428 $429 forward $281 $-1 #
coedge $-1 $430 $431 $305 $354 reversed $432 $-1 #
edge $-1 $433 0.00010254321377155872 $434 2.1209699281067809 $305 $435 forward 7 unknown #
coedge $-1 $436 $306 $437 $438 forward $271 $-1 #
coedge $-1 $439 $440 $306 $357 forward $441 $-1 #
edge $-1 $442 0 $365 149.80881092896973 $306 $443 forward 7 unknown #
coedge $-1 $307 $436 $444 $445 forward $271 $-1 #
coedge $-1 $446 $447 $307 $360 forward $448 $-1 #
edge $-1 $364 0 $449 117.9101619204742 $307 $450 forward 7 unknown #
coedge $-1 $451 $308 $447 $452 reversed $363 $-1 #
coedge $-1 $308 $451 $439 $453 forward $363 $-1 #
loop $-1 $-1 $308 $454 #
vertex $-1 $360 $455 #
vertex $-1 $357 $456 #
ellipse-curve $-1 220.63920900328003 40 -9.9999999999999929 0 -1 0 3.5379026247930199 0 -3.5331635990260182 1 I I #
coedge $-1 $457 $310 $458 $459 forward $259 $-1 #
coedge $-1 $460 $461 $310 $369 reversed $462 $-1 #
edge $-1 $373 0 $463 1.2738498945774659 $310 $464 forward 7 unknown #
coedge $-1 $465 $311 $317 $385 reversed $372 $-1 #
coedge $-1 $311 $465 $460 $466 reversed $372 $-1 #
loop $-1 $-1 $465 $467 #
vertex $-1 $369 $468 #
straight-curve $-1 23.125898436528558 40 -190.87428838118848 -0.89439830509355545 0 0.44727136264886819 I I #
coedge $-1 $313 $457 $469 $470 reversed $259 $-1 #
coedge $-1 $471 $472 $313 $377 reversed $473 $-1 #
edge $-1 $474 0 $381 1.6839910412089074 $313 $475 forward 7 unknown #
coedge $-1 $476 $314 $472 $477 forward $380 $-1 #
coedge $-1 $314 $476 $316 $384 forward $380 $-1 #
loop $-1 $-1 $476 $478 #
vertex $-1 $315 $479 #
straight-curve $-1 -70.656470907698377 40 -136.62125496266805 0.70663271980520115 0 0.70758052495861135 I I #
coedge $-1 $317 $316 $480 $481 reversed $318 $-1 #
edge $-1 $482 0 $319 20 $379 $483 forward 7 unknown #
edge $-1 $484 4.0389678347315807e-029 $320 20 $370 $485 forward 7 unknown #
face $-1 $478 $318 $3 $-1 $486 reversed single #
point $-1 -70.656470907698363 40 -136.62125496266805 #
point $-1 -69.354925096149685 40 -144.62641008716179 #
coedge $-1 $487 $488 $322 $390 forward $409 $-1 #
edge $-1 $402 1.7763568394002505e-015 $394 35.984126000514905 $322 $489 forward 7 unknown #
coedge $-1 $490 $323 $326 $397 reversed $393 $-1 #
coedge $-1 $323 $490 $487 $491 forward $393 $-1 #
loop $-1 $-1 $323 $408 #
vertex $-1 $390 $492 #
ellipse-curve $-1 41.662507605830768 40 -10 0 -1 0 3.5379026247930554 0 -3.5331635990260057 1 I I #
coedge $-1 $326 $325 $346 $417 forward $327 $-1 #
edge $-1 $493 0 $328 20 $326 $494 forward 7 unknown #
face $-1 $386 $327 $3 $-1 $495 forward single #
point $-1 45.200410230623824 40 -13.533163599026004 #
coedge $-1 $411 $330 $488 $496 forward $341 $-1 #
coedge $-1 $330 $411 $332 $404 reversed $341 $-1 #
vertex $-1 $331 $497 #
ellipse-curve $-1 5.6783816053158578 40 -10.000000000000002 0 -1 0 1.7763568394002505e-015 0 5.0000000000000018 1 I I #
edge $-1 $334 0 $414 20 $332 $498 forward 7 unknown #
point $-1 1.3845150804009765 40 -7.4382212690758394 #
straight-curve $-1 -52.013757587310479 39.999999999999993 -96.940508382469659 7.1054273576010023e-016 -1 1.4210854715202005e-015 I I #
straight-curve $-1 -44.181988437602584 39.999999999999993 -103.03545071241989 0 -1 0 I I #
face $-1 $398 $393 $3 $-1 $499 reversed single #
loop $-1 $-1 $389 $340 #
plane-surface $-1 2.8391908026579387 40 -5 0 0 1 1 0 0 forward_v I I I I #
coedge $-1 $401 $400 $343 $413 reversed $341 $-1 #
coedge $-1 $416 $343 $500 $501 forward $278 $-1 #
edge $-1 $414 1.1510792319313633e-014 $502 1.0328706215956764 $343 $503 forward 7 unknown #
vertex $-1 $413 $504 #
straight-curve $-1 -52.013757587310479 20 -96.940508382469659 0.51235574618483803 0 0.85877330498297266 I I #
coedge $-1 $346 $412 $490 $505 forward $278 $-1 #
edge $-1 $347 1.1556214628683787e-013 $493 126.4906027743333 $346 $506 forward 7 unknown #
point $-1 -44.181988437602548 19.999999999999996 -103.03545071241984 #
point $-1 -52.013757587310465 19.999999999999993 -96.940508382469631 #
coedge $-1 $507 $350 $508 $509 forward $304 $-1 #
coedge $-1 $350 $510 $511 $512 reversed $304 $-1 #
coedge $-1 $513 $514 $350 $423 reversed $515 $-1 #
edge $-1 $516 9.9475983006415219e-016 $517 0.98455487848411816 $350 $518 forward 7 unknown #
coedge $-1 $519 $351 $520 $521 forward $281 $-1 #
coedge $-1 $522 $523 $351 $426 forward $524 $-1 #
edge $-1 $525 1.1807261001637775e-013 $434 44.149825617041607 $351 $526 forward 7 unknown #
coedge $-1 $352 $519 $527 $528 forward $281 $-1 #
coedge $-1 $529 $530 $352 $429 reversed $531 $-1 #
edge $-1 $532 0 $433 0.99998990213397598 $352 $533 forward 7 unknown #
coedge $-1 $534 $353 $530 $535 reversed $432 $-1 #
coedge $-1 $353 $534 $522 $536 forward $432 $-1 #
loop $-1 $-1 $353 $537 #
tvertex-vertex $-1 $429 $538 0.00051862617144078616 #
vertex $-1 $426 $539 #
ellipse-curve $-1 267.47867714049329 40 -46.804310690424018 0 -1 0 1.1685653033242716 0 -4.8615280655229043 1 I I #
coedge $-1 $358 $355 $540 $541 reversed $271 $-1 #
coedge $-1 $542 $543 $355 $438 reversed $544 $-1 #
edge $-1 $442 0 $545 2.243669975279714 $355 $546 forward 7 unknown #
coedge $-1 $547 $356 $362 $453 reversed $441 $-1 #
coedge $-1 $356 $547 $542 $548 reversed $441 $-1 #
loop $-1 $-1 $356 $549 #
vertex $-1 $438 $550 #
straight-curve $-1 70.830398074310267 40 -5 1 0 0 I I #
coedge $-1 $551 $552 $358 $445 reversed $553 $-1 #
edge $-1 $554 0 $449 1.6839910412089059 $358 $555 forward 7 unknown #
coedge $-1 $556 $359 $552 $557 forward $448 $-1 #
coedge $-1 $359 $556 $361 $452 forward $448 $-1 #
loop $-1 $-1 $556 $558 #
vertex $-1 $360 $559 #
straight-curve $-1 224.17711162807305 40 -13.533163599026006 -0.70663271980520137 0 -0.70758052495861135 I I #
coedge $-1 $362 $361 $560 $561 reversed $363 $-1 #
edge $-1 $562 0 $364 20 $447 $563 forward 7 unknown #
edge $-1 $564 0 $365 20 $439 $565 forward 7 unknown #
face $-1 $558 $363 $3 $-1 $566 reversed single #
point $-1 224.17711162807305 40 -13.533163599026006 #
point $-1 220.63920900328 40 -5 #
coedge $-1 $375 $367 $567 $568 forward $259 $-1 #
coedge $-1 $569 $570 $367 $459 reversed $571 $-1 #
edge $-1 $463 0 $572 0.99999547760409568 $367 $573 forward 7 unknown #
coedge $-1 $574 $368 $371 $466 forward $462 $-1 #
coedge $-1 $368 $574 $569 $575 reversed $462 $-1 #
loop $-1 $-1 $574 $576 #
vertex $-1 $459 $577 #
ellipse-curve $-1 25.362255249772883 40 -186.40229685572069 0 -1 0 -2.2363568132443312 0 -4.4719915254677858 1 I I #
coedge $-1 $371 $370 $578 $579 reversed $372 $-1 #
edge $-1 $373 0 $580 20.000000000000004 $371 $581 forward 7 unknown #
face $-1 $582 $372 $3 $-1 $583 reversed single #
point $-1 23.125898436528551 40 -190.87428838118848 #
coedge $-1 $584 $585 $375 $470 forward $586 $-1 #
edge $-1 $474 2.7176784449606252e-014 $587 112.97919490086431 $375 $588 forward 7 unknown #
coedge $-1 $589 $376 $585 $590 forward $473 $-1 #
coedge $-1 $376 $589 $378 $477 reversed $473 $-1 #
loop $-1 $-1 $589 $582 #
vertex $-1 $377 $591 #
ellipse-curve $-1 56.625805243775545 40 -16.244066936848686 0 -1 0 3.9101696827763845 0 3.1161792393725527 1 I I #
coedge $-1 $379 $378 $592 $593 reversed $380 $-1 #
edge $-1 $381 -7.1054273576010019e-015 $594 20.000000000000004 $378 $595 forward 7 unknown #
face $-1 $596 $380 $3 $-1 $597 forward single #
point $-1 53.087902618982497 40 -12.710903337822657 #
coedge $-1 $592 $578 $383 $481 forward $598 $-1 #
edge $-1 $484 0 $482 1.891812095011312 $480 $599 forward 7 unknown #
vertex $-1 $593 $600 #
straight-curve $-1 -70.656470907698363 20 -136.62125496266802 0 1 0 I I #
vertex $-1 $481 $601 #
straight-curve $-1 -69.354925096149643 20 -144.62641008716182 -2.8421709430404009e-015 1 1.4210854715202005e-015 I I #
cone-surface $-1 -67.118568282905315 19.248408763761834 -140.15441856169403 0 1 0 -3.5379026247930501 0 3.5331635990260128 1 I I 0 1 5 forward I I I I #
coedge $-1 $500 $389 $392 $491 reversed $409 $-1 #
coedge $-1 $389 $500 $400 $496 reversed $409 $-1 #
straight-curve $-1 5.6783816053158578 40 -5 1 0 0 I I #
coedge $-1 $392 $391 $416 $505 reversed $393 $-1 #
edge $-1 $602 0 $394 20 $487 $603 forward 7 unknown #
point $-1 41.662507605830761 40 -5 #
vertex $-1 $417 $604 #
straight-curve $-1 45.200410230623824 20 -13.533163599026008 0 1 0 I I #
plane-surface $-1 57.465145475349701 40 -1.2519776877171156 -0.70758052495861146 0 0.70663271980520126 -0.70663271980520115 0 -0.70758052495861135 forward_v I I I I #
edge $-1 $402 0 $502 19.999999999999996 $488 $605 forward 7 unknown #
point $-1 5.6783816053158596 40 -5 #
straight-curve $-1 1.3845150804009734 40 -7.4382212690758536 0 -1 0 I I #
cone-surface $-1 41.662507605830768 19.248408763761834 -10 0 1 0 3.5379026247930567 0 -3.5331635990260053 1 I I 0 1 4.9999999999999991 forward I I I I #
coedge $-1 $488 $487 $412 $501 reversed $409 $-1 #
edge $-1 $502 -5.3290705182007514e-015 $602 35.984126000514905 $412 $606 forward 7 unknown #
vertex $-1 $501 $607 #
ellipse-curve $-1 5.678381605315856 20 -10 6.1019513352034546e-016 1 -3.6405065357658047e-016 -4.2938665249148711 3.5527136788005009e-015 2.5617787309241766 1 I I #
point $-1 1.3845150804010178 20 -7.4382212690757763 #
edge $-1 $602 0 $493 2.3555242906909535 $416 $608 forward 7 unknown #
straight-curve $-1 -44.181988437602627 20 -103.03545071241993 0.70663271980520115 0 0.70758052495861135 I I #
coedge $-1 $609 $420 $610 $611 forward $304 $-1 #
coedge $-1 $612 $613 $420 $509 reversed $614 $-1 #
edge $-1 $517 3.049721034342784e-017 $615 0.0140161726392796 $420 $616 forward 7 unknown #
coedge $-1 $421 $617 $618 $619 forward $304 $-1 #
coedge $-1 $620 $621 $421 $512 forward $622 $-1 #
edge $-1 $516 0 $623 46.640592588757002 $421 $624 forward 7 unknown #
coedge $-1 $625 $422 $621 $626 forward $515 $-1 #
coedge $-1 $422 $625 $612 $627 reversed $515 $-1 #
loop $-1 $-1 $625 $628 #
vertex $-1 $512 $629 #
vertex $-1 $509 $630 #
ellipse-curve $-1 284.85441070299237 40 -42.957768794319733 0 -1 0 -3.5331635990260111 0 -3.5379026247930057 1 I I #
coedge $-1 $427 $424 $631 $632 reversed $281 $-1 #
coedge $-1 $633 $634 $424 $521 reversed $635 $-1 #
edge $-1 $525 0 $636 1.5707963267948908 $424 $637 forward 7 unknown #
coedge $-1 $638 $425 $431 $536 reversed $524 $-1 #
coedge $-1 $425 $638 $633 $639 reversed $524 $-1 #
loop $-1 $-1 $425 $640 #
vertex $-1 $521 $641 #
straight-curve $-1 239.77228395258189 40 -12.068696710935466 0.70758052495861123 0 -0.70663271980520137 I I #
coedge $-1 $642 $643 $427 $528 reversed $644 $-1 #
edge $-1 $645 0 $532 2.7990600747982741 $427 $646 forward 7 unknown #
coedge $-1 $647 $428 $643 $648 forward $531 $-1 #
coedge $-1 $428 $647 $430 $535 forward $531 $-1 #
loop $-1 $-1 $647 $649 #
vertex $-1 $429 $650 #
intcurve-curve $-1 forward { surfintcur full nurbs 3 open 4 
	0 3 0.33334368429606642 1 0.66668829894234494 1 1 3 
	173.19468528300928 40 -85.400352701757981 1 
	183.39125244734043 40 -80.556917125316062 1 
	204.05880302345713 40 -71.599623359875821 1 
	235.97989801021748 40.000000000000007 -60.319109344791144 1 
	257.67884675840872 39.999999999999993 -54.302876465627428 1 
	268.64868319393008 40 -51.665251391438673 1 
	0.001 
	plane 0 40 0 0 1 0 1 0 0 forward_v I I I I 
	cone 382.80237647683805 40 -526.58015150017263 0 1 0 488.44139779037681 0 0 1 I I 0 1 488.44139779037681 forward I I I I 
	nullbs 
	nullbs 
	I I 
	0 
	0 
	0 
	} I I #
coedge $-1 $431 $430 $651 $652 reversed $432 $-1 #
edge $-1 $653 -6.0584517520973716e-028 $433 20 $530 $654 forward 7 unknown #
edge $-1 $655 -1.2621774483536189e-029 $434 20 $522 $656 forward 7 unknown #
face $-1 $649 $432 $3 $-1 $657 reversed single #
point $-1 268.64772269385503 40 -51.665642967777501 #
point $-1 271.0118407395193 40 -43.266408065630955 #
coedge $-1 $658 $659 $436 $541 forward $660 $-1 #
edge $-1 $554 -1.0870713779842502e-013 $545 106.68454445486447 $436 $661 forward 7 unknown #
coedge $-1 $662 $437 $440 $548 forward $544 $-1 #
coedge $-1 $437 $662 $658 $663 reversed $544 $-1 #
loop $-1 $-1 $662 $664 #
vertex $-1 $541 $665 #
ellipse-curve $-1 70.830398074310281 40 -10.000000000000014 0 -1 0 -1.4210854715202004e-014 0 5.0000000000000142 1 I I #
coedge $-1 $440 $439 $666 $667 reversed $441 $-1 #
edge $-1 $442 0 $668 20 $440 $669 forward 7 unknown #
face $-1 $670 $441 $3 $-1 $671 reversed single #
point $-1 70.830398074310267 40 -5 #
coedge $-1 $672 $444 $659 $673 forward $553 $-1 #
coedge $-1 $444 $672 $446 $557 reversed $553 $-1 #
loop $-1 $-1 $672 $670 #
vertex $-1 $445 $674 #
ellipse-curve $-1 137.32003059274362 40 -93.430934269643984 0 -1 0 -3.9101696827763419 0 -3.1161792393725705 1 I I #
coedge $-1 $447 $446 $675 $676 reversed $448 $-1 #
edge $-1 $449 0 $677 20 $446 $678 forward 7 unknown #
face $-1 $679 $448 $3 $-1 $680 forward single #
point $-1 140.8579332175367 40 -96.964097868669995 #
coedge $-1 $675 $666 $451 $561 forward $681 $-1 #
edge $-1 $564 0 $562 2.3555242906909601 $560 $682 forward 7 unknown #
vertex $-1 $676 $683 #
straight-curve $-1 224.17711162807305 20 -13.533163599026009 0 1 0 I I #
vertex $-1 $561 $684 #
straight-curve $-1 220.63920900327997 20 -5 0 1 0 I I #
cone-surface $-1 220.63920900328 19.248408763761834 -10 0 1 0 3.5379026247930518 0 -3.5331635990260106 1 I I 0 1 5 forward I I I I #
coedge $-1 $685 $686 $457 $568 reversed $687 $-1 #
edge $-1 $572 5.8664705049592174e-005 $587 1.6987767611482016 $457 $688 forward 7 unknown #
coedge $-1 $689 $458 $461 $575 forward $571 $-1 #
coedge $-1 $458 $689 $685 $690 forward $571 $-1 #
loop $-1 $-1 $689 $691 #
tvertex-vertex $-1 $568 $692 0.00029757128848751301 #
intcurve-curve $-1 forward { surfintcur full nurbs 3 open 5 
	0 3 0.24999921210359566 1 0.50000376742011399 1 0.75000727238671183 1 1 3 
	28.984165803160522 40 -189.84929032006892 1 
	36.438201974530315 40 -182.01805253050867 1 
	51.826619415164906 40.000000000000007 -166.88612978013199 0.99999999999999989 
	76.395841814784333 40 -145.73840786561223 1 
	102.31348758454952 40.000000000000007 -126.26698845720065 1 
	120.38687115196814 39.999999999999993 -114.47655040652646 1 
	129.63079802738753 40 -108.87296001707585 1 
	0.001 
	plane 0 40 0 0 1 0 1 0 0 forward_v I I I I 
	cone 382.80237647683805 40 -526.58015150017263 0 1 0 488.44139779037681 0 0 1 I I 0 1 488.44139779037681 forward I I I I 
	nullbs 
	nullbs 
	I I 
	0 
	0 
	0 
	} I I #
coedge $-1 $461 $460 $693 $694 reversed $462 $-1 #
edge $-1 $463 1.9488019802579873e-027 $695 20.000000000000004 $569 $696 forward 7 unknown #
face $-1 $467 $462 $3 $-1 $697 reversed single #
point $-1 28.984165803160508 40 -189.84929032006892 #
coedge $-1 $480 $693 $465 $579 forward $598 $-1 #
edge $-1 $580 -3.1775410928018582e-015 $484 103.4000433654719 $578 $698 forward 7 unknown #
vertex $-1 $579 $699 #
straight-curve $-1 23.125898436528555 40 -190.87428838118848 0 -1 0 I I #
face $-1 $454 $473 $3 $-1 $700 reversed single #
plane-surface $-1 26.447235789248566 40 -192.53522520889442 -0.44727136264886808 0 -0.89439830509355556 -0.89439830509355545 0 0.44727136264886802 forward_v I I I I #
coedge $-1 $701 $469 $686 $702 reversed $586 $-1 #
coedge $-1 $469 $701 $471 $590 reversed $586 $-1 #
loop $-1 $-1 $469 $703 #
vertex $-1 $470 $704 #
straight-curve $-1 60.535974926551908 40 -13.127887697476115 0.62323584787451014 0 -0.78203393655527542 I I #
coedge $-1 $472 $471 $705 $706 reversed $473 $-1 #
edge $-1 $474 0 $707 20.000000000000007 $585 $708 forward 7 unknown #
point $-1 60.53597492655193 40 -13.127887697476133 #
coedge $-1 $705 $480 $476 $593 forward $598 $-1 #
edge $-1 $482 1.0041854918159761e-014 $594 175.11837487626366 $592 $709 forward 7 unknown #
vertex $-1 $706 $710 #
straight-curve $-1 53.087902618982497 39.999999999999993 -12.710903337822629 0 -1 0 I I #
face $-1 $703 $598 $3 $-1 $711 forward single #
plane-surface $-1 -75.554678720132785 40 -141.52603273213526 0.70758052495861135 0 -0.70663271980520126 0.70663271980520126 0 0.70758052495861135 forward_v I I I I #
loop $-1 $-1 $712 $596 #
ellipse-curve $-1 -67.118568282905372 20 -140.15441856169403 0 1 0 -2.2363568132442708 0 -4.4719915254677574 1 I I #
point $-1 -70.656470907698477 20 -136.62125496266816 #
point $-1 -69.354925096149643 20 -144.62641008716179 #
vertex $-1 $505 $713 #
straight-curve $-1 41.662507605830761 20 -5 0 1 0 I I #
point $-1 45.200410230623817 20 -13.533163599026009 #
straight-curve $-1 5.6783816053158596 40 -5 -2.6645352591003761e-016 -1 0 I I #
straight-curve $-1 5.6783816053158596 20 -5 1 0 0 I I #
point $-1 5.6783816053158542 20.000000000000004 -5 #
ellipse-curve $-1 41.662507605830761 20 -10.000000000000002 0 1 0 0 0 5.0000000000000018 1 I I #
coedge $-1 $714 $507 $715 $716 reversed $304 $-1 #
coedge $-1 $717 $718 $507 $611 reversed $719 $-1 #
edge $-1 $615 0 $720 1.3849856673763514 $507 $721 forward 7 unknown #
coedge $-1 $722 $508 $514 $627 forward $614 $-1 #
coedge $-1 $508 $722 $717 $723 reversed $614 $-1 #
loop $-1 $-1 $722 $724 #
vertex $-1 $611 $725 #
ellipse-curve $-1 382.80293750349739 40 -526.58297233828773 0 1 0 -96.956028337541909 0 478.7246987943513 1 I I #
coedge $-1 $510 $714 $726 $727 reversed $304 $-1 #
coedge $-1 $728 $729 $510 $619 reversed $730 $-1 #
edge $-1 $731 0 $623 2.3568646896937415 $510 $732 forward 7 unknown #
coedge $-1 $733 $511 $729 $734 forward $622 $-1 #
coedge $-1 $511 $733 $513 $626 reversed $622 $-1 #
loop $-1 $-1 $733 $735 #
vertex $-1 $512 $736 #
straight-curve $-1 281.32124710396636 40 -46.495671419112746 -0.70758052495861101 0 0.70663271980520148 I I #
coedge $-1 $514 $513 $737 $738 reversed $515 $-1 #
edge $-1 $516 2.0194839173657903e-029 $739 20 $621 $740 forward 7 unknown #
edge $-1 $517 9.0876776281460551e-029 $741 20 $612 $742 forward 7 unknown #
face $-1 $743 $515 $3 $-1 $744 reversed single #
point $-1 281.32124710396636 40 -46.495671419112746 #
point $-1 285.84690916595548 40 -47.858273543936392 #
coedge $-1 $745 $746 $519 $632 forward $747 $-1 #
edge $-1 $645 -1.4069372182490408e-013 $636 92.25459316517501 $519 $748 forward 7 unknown #
coedge $-1 $749 $520 $523 $639 forward $635 $-1 #
coedge $-1 $520 $749 $745 $750 reversed $635 $-1 #
loop $-1 $-1 $749 $751 #
vertex $-1 $632 $752 #
ellipse-curve $-1 236.23912035355596 40 -15.606599335728594 -1.0041854918159788e-015 -1 -1.0055324039493177e-015 3.5331635990260111 -7.1054273576010019e-015 3.5379026247930465 1 I I #
coedge $-1 $523 $522 $753 $754 reversed $524 $-1 #
edge $-1 $525 0 $755 20 $523 $756 forward 7 unknown #
face $-1 $757 $524 $3 $-1 $758 forward single #
point $-1 239.77228395258197 39.999999999999993 -12.068696710935548 #
coedge $-1 $759 $527 $746 $760 forward $644 $-1 #
coedge $-1 $527 $759 $529 $648 reversed $644 $-1 #
loop $-1 $-1 $759 $757 #
vertex $-1 $528 $761 #
ellipse-curve $-1 171.04900627072595 40 -80.884152797386321 0 -1 0 -3.5379026247930483 0 3.5331635990260111 1 I I #
coedge $-1 $530 $529 $762 $763 reversed $531 $-1 #
edge $-1 $532 7.2701421025168448e-027 $764 20 $529 $765 forward 7 unknown #
face $-1 $766 $531 $3 $-1 $767 forward single #
point $-1 173.19468528300928 40 -85.400352701757981 #
coedge $-1 $762 $753 $534 $652 forward $768 $-1 #
edge $-1 $655 0 $653 2.1209699281068595 $651 $769 forward 7 unknown #
vertex $-1 $763 $770 #
straight-curve $-1 268.64724244381756 20 -51.665838755946922 2.8421709430404009e-015 1 2.1316282072803005e-015 I I #
vertex $-1 $652 $771 #
straight-curve $-1 271.01184073951936 20 -43.266408065630927 0 1 3.5527136788005011e-016 I I #
cone-surface $-1 267.47867714049335 19.333633360852577 -46.804310690424025 0 1 0 1.1685653033242778 0 -4.8615280655228803 1 I I 0 1 5 forward I I I I #
coedge $-1 $772 $540 $543 $663 forward $660 $-1 #
coedge $-1 $540 $772 $551 $673 reversed $660 $-1 #
loop $-1 $-1 $540 $773 #
straight-curve $-1 133.40986090996719 40 -96.547113509016484 -0.62323584787450992 0 0.78203393655527542 I I #
coedge $-1 $543 $542 $774 $775 reversed $544 $-1 #
edge $-1 $545 0 $776 20 $658 $777 forward 7 unknown #
face $-1 $549 $544 $3 $-1 $778 reversed single #
point $-1 66.920228391533882 40 -13.116179239372549 #
coedge $-1 $560 $774 $547 $667 forward $681 $-1 #
edge $-1 $668 0 $564 149.80881092896971 $666 $779 forward 7 unknown #
vertex $-1 $667 $780 #
straight-curve $-1 70.830398074310267 40 -5 0 -1 0 I I #
face $-1 $537 $553 $3 $-1 $781 reversed single #
plane-surface $-1 2.8391908026579387 40 -5 0 0 1 1 0 0 forward_v I I I I #
coedge $-1 $552 $551 $782 $783 reversed $553 $-1 #
edge $-1 $554 0 $784 20 $659 $785 forward 7 unknown #
point $-1 133.40986090996728 40 -96.547113509016555 #
coedge $-1 $782 $560 $556 $676 forward $681 $-1 #
edge $-1 $562 6.284577524683246e-015 $677 117.91016192047421 $675 $786 forward 7 unknown #
vertex $-1 $783 $787 #
straight-curve $-1 140.8579332175367 40 -96.964097868669995 0 -1 0 I I #
face $-1 $773 $681 $3 $-1 $788 forward single #
plane-surface $-1 236.22964230202186 40 -1.4644668880904697 -0.70758052495861135 0 0.70663271980520137 -0.70663271980520137 0 -0.70758052495861135 forward_v I I I I #
loop $-1 $-1 $789 $679 #
ellipse-curve $-1 220.63920900328 20 -10.000000000000011 0 1 0 -2.8421709430404007e-014 0 5.0000000000000107 1 I I #
point $-1 224.17711162807305 20 -13.533163599026018 #
point $-1 220.63920900327997 20 -5 #
coedge $-1 $790 $567 $570 $690 reversed $687 $-1 #
coedge $-1 $567 $790 $584 $702 forward $687 $-1 #
loop $-1 $-1 $567 $791 #
ellipse-curve $-1 127.03848956999521 40 -104.59763147401728 0 -1 0 2.5916338601923172 0 -4.2759132281542662 1 I I #
coedge $-1 $570 $569 $792 $793 reversed $571 $-1 #
edge $-1 $794 -3.8269220234081723e-027 $572 20 $570 $795 forward 7 unknown #
face $-1 $576 $571 $3 $-1 $796 forward single #
point $-1 129.63034829592084 40 -108.87334980713966 #
coedge $-1 $578 $792 $574 $694 forward $598 $-1 #
edge $-1 $695 0 $580 1.2738498945774659 $693 $797 forward 7 unknown #
vertex $-1 $694 $798 #
straight-curve $-1 28.984165803160408 40 -189.84929032006909 4.9737991503207002e-015 -1 8.5265128291212003e-015 I I #
cone-surface $-1 25.362255249772897 40.779879821798815 -186.40229685572069 0 -1 0 3.6219105533876226 0 -3.4469934643482225 1 I I 0 1 5 forward I I I I #
straight-curve $-1 23.125898436528548 20 -190.87428838118848 -0.89439830509355545 0 0.44727136264886824 I I #
point $-1 23.125898436528551 19.999999999999996 -190.87428838118848 #
cone-surface $-1 56.625805243775545 40.666366639147419 -16.244066936848675 0 -1 0 -3.5379026247930745 0 3.5331635990259875 1 I I 0 1 5 forward I I I I #
coedge $-1 $585 $584 $712 $799 reversed $586 $-1 #
edge $-1 $800 0 $587 20 $584 $801 forward 7 unknown #
face $-1 $791 $586 $3 $-1 $802 forward single #
point $-1 130.94865925277159 40 -101.48145223464473 #
coedge $-1 $712 $592 $589 $706 forward $598 $-1 #
edge $-1 $594 0 $707 1.6839910412089067 $705 $803 forward 7 unknown #
vertex $-1 $706 $804 #
straight-curve $-1 60.535974926551923 40 -13.127887697476137 0 -1 0 I I #
straight-curve $-1 -70.656470907698491 20 -136.62125496266816 0.70663271980520126 0 0.70758052495861146 I I #
point $-1 53.087902618982504 19.999999999999989 -12.710903337822652 #
plane-surface $-1 0 20 0 0 1 0 1 0 0 forward_v I I I I #
coedge $-1 $805 $705 $701 $799 forward $598 $-1 #
point $-1 41.662507605830761 20 -5 #
coedge $-1 $617 $609 $806 $807 forward $304 $-1 #
coedge $-1 $808 $809 $609 $716 forward $810 $-1 #
edge $-1 $811 0 $720 31.632454402121979 $609 $812 forward 7 unknown #
coedge $-1 $813 $610 $613 $723 forward $719 $-1 #
coedge $-1 $610 $813 $808 $814 reversed $719 $-1 #
loop $-1 $-1 $813 $815 #
vertex $-1 $716 $816 #
ellipse-curve $-1 291.64238452522488 40 -41.63245440212193 0 -1 0 0.92371649764106678 0 -4.9139340483960794 1 I I #
coedge $-1 $613 $612 $817 $818 reversed $614 $-1 #
edge $-1 $615 0 $819 20 $613 $820 forward 7 unknown #
face $-1 $821 $614 $3 $-1 $822 forward single #
point $-1 292.56610102286595 40 -46.546388450518009 #
coedge $-1 $823 $824 $617 $727 forward $825 $-1 #
edge $-1 $731 0 $826 39.789948810565932 $617 $827 forward 7 unknown #
coedge $-1 $828 $618 $824 $829 forward $730 $-1 #
coedge $-1 $618 $828 $620 $734 reversed $730 $-1 #
loop $-1 $-1 $828 $821 #
vertex $-1 $619 $830 #
ellipse-curve $-1 251.85243571465898 40 -10 0 -1 0 2.8421709430404007e-014 0 5 1 I I #
coedge $-1 $621 $620 $831 $832 forward $622 $-1 #
edge $-1 $623 0 $833 20 $620 $834 forward 7 unknown #
face $-1 $-1 $622 $3 $-1 $835 forward single #
point $-1 248.31927211563297 40 -13.537902624793055 #
coedge $-1 $831 $817 $625 $738 forward $836 $-1 #
edge $-1 $741 0 $739 0.98455487848411338 $737 $837 forward 7 unknown #
vertex $-1 $832 $838 #
straight-curve $-1 281.32124710396636 40 -46.495671419112739 2.8421709430404009e-015 -1 -2.8421709430404009e-015 I I #
vertex $-1 $738 $839 #
straight-curve $-1 285.84690916595548 40 -47.858273543936434 0 -1 2.1316282072803005e-015 I I #
face $-1 $840 $836 $3 $-1 $841 forward single #
cone-surface $-1 284.85441070299237 40.751591236238163 -42.957768794319691 0 -1 0 0.99249846296310462 0 -4.9005047496167045 1 I I 0 1 5 forward I I I I #
coedge $-1 $842 $631 $634 $750 forward $747 $-1 #
coedge $-1 $631 $842 $642 $760 reversed $747 $-1 #
loop $-1 $-1 $631 $843 #
straight-curve $-1 167.51110364593299 40 -77.350989198360196 0.70663271980520137 0 0.70758052495861123 I I #
coedge $-1 $634 $633 $844 $845 reversed $635 $-1 #
edge $-1 $636 4.1651855795669421e-029 $846 19.999999999999993 $745 $847 forward 7 unknown #
face $-1 $640 $635 $3 $-1 $848 reversed single #
point $-1 232.70121772876294 39.999999999999993 -12.073435736702569 #
coedge $-1 $651 $844 $638 $754 forward $768 $-1 #
edge $-1 $755 2.5104637295399406e-015 $655 44.1498256170415 $753 $849 forward 7 unknown #
vertex $-1 $754 $850 #
straight-curve $-1 239.77228395258197 39.999999999999993 -12.068696710935548 0 -1 0 I I #
face $-1 $628 $644 $3 $-1 $851 reversed single #
plane-surface $-1 236.2343813277889 40 -8.5355331119095226 -0.70663271980520126 0 -0.70758052495861123 0.70758052495861123 0 -0.70663271980520126 forward_v I I I I #
coedge $-1 $643 $642 $852 $853 reversed $644 $-1 #
edge $-1 $645 1.0097419586828952e-029 $854 20 $746 $855 forward 7 unknown #
point $-1 167.51110364593291 40 -77.35098919836031 #
coedge $-1 $852 $651 $647 $763 forward $768 $-1 #
edge $-1 $653 0 $764 0.2076410225203372 $762 $856 forward 7 unknown #
vertex $-1 $853 $857 #
straight-curve $-1 173.19468528300891 40 -85.400352701758152 1.7053025658242404e-014 -1 5.6843418860808018e-015 I I #
face $-1 $843 $768 $3 $-1 $858 forward single #
cone-surface $-1 382.80237647683805 40 -526.58015150017263 0 1 0 488.44139779037681 0 0 1 I I 0 1 488.44139779037681 forward I I I I #
loop $-1 $-1 $859 $766 #
ellipse-curve $-1 267.4786771404934 20 -46.804310690424082 0 1 0 3.5331635990258974 0 3.5379026247931193 1 I I #
point $-1 268.64724244381739 20 -51.665838755946979 #
point $-1 271.0118407395193 20 -43.266408065630962 #
coedge $-1 $659 $658 $789 $860 forward $660 $-1 #
face $-1 $664 $660 $3 $-1 $861 forward single #
coedge $-1 $666 $789 $662 $775 forward $681 $-1 #
edge $-1 $776 -6.394884621840932e-016 $668 2.243669975279726 $774 $862 forward 7 unknown #
vertex $-1 $775 $863 #
straight-curve $-1 66.920228391533897 40 -13.116179239372556 0 -1 0 I I #
cone-surface $-1 70.830398074310267 40.666366639147419 -10 0 -1 0 -3.9101696827763788 0 -3.1161792393725483 1 I I 0 1 5 forward I I I I #
straight-curve $-1 70.830398074310267 20 -5 1 0 0 I I #
point $-1 70.830398074310267 20 -5 #
cone-surface $-1 137.32003059274362 40.666366639147419 -93.430934269643984 0 -1 0 3.5379026247930638 0 -3.5331635990259986 1 I I 0 1 5 forward I I I I #
coedge $-1 $789 $675 $672 $783 forward $681 $-1 #
edge $-1 $677 0 $784 1.6839910412089201 $782 $864 forward 7 unknown #
vertex $-1 $783 $865 #
straight-curve $-1 133.40986090996728 40 -96.547113509016569 0 -1 0 I I #
straight-curve $-1 224.17711162807305 20 -13.533163599026009 -0.70663271980520115 0 -0.70758052495861135 I I #
point $-1 140.8579332175367 20 -96.964097868669981 #
plane-surface $-1 0 20 0 0 1 0 1 0 0 forward_v I I I I #
coedge $-1 $774 $782 $772 $860 reversed $681 $-1 #
coedge $-1 $686 $685 $805 $866 reversed $687 $-1 #
face $-1 $691 $687 $3 $-1 $867 reversed single #
coedge $-1 $693 $805 $689 $793 forward $598 $-1 #
edge $-1 $794 0 $695 0.26524448476631141 $792 $868 forward 7 unknown #
vertex $-1 $793 $869 #
straight-curve $-1 129.63012343018752 20 -108.87354470217154 -1.8474111129762605e-014 1 -1.2079226507921703e-014 I I #
cone-surface $-1 382.80237647683805 40 -526.58015150017263 0 1 0 488.44139779037681 0 0 1 I I 0 1 488.44139779037681 forward I I I I #
ellipse-curve $-1 25.362255249772883 20 -186.40229685572069 5.147044466564837e-016 1 -4.89847233261034e-016 3.6219105533876252 -3.5527136788005009e-015 -3.4469934643482247 1 I I #
point $-1 28.984165803160508 19.999999999999996 -189.84929032006892 #
edge $-1 $707 1.4413399414822661e-014 $800 112.9791949008643 $712 $870 forward 7 unknown #
vertex $-1 $866 $871 #
straight-curve $-1 130.94865925277159 20 -101.48145223464472 0 1 0 I I #
plane-surface $-1 57.045475359562616 40 -8.7480223122828846 -0.78203393655527542 0 -0.62323584787451003 0.62323584787451003 0 -0.78203393655527542 forward_v I I I I #
ellipse-curve $-1 56.625805243775545 20 -16.244066936848682 -1.5082986059239683e-015 1 1.5062782377239706e-015 -3.5379026247930412 -1.0658141036401503e-014 3.5331635990260306 1 I I #
point $-1 60.53597492655193 19.999999999999993 -13.127887697476133 #
coedge $-1 $792 $712 $790 $866 forward $598 $-1 #
coedge $-1 $872 $873 $714 $807 reversed $874 $-1 #
edge $-1 $811 0 $826 1.5707963267948937 $714 $875 forward 7 unknown #
coedge $-1 $876 $715 $718 $814 forward $810 $-1 #
coedge $-1 $715 $876 $872 $877 reversed $810 $-1 #
loop $-1 $-1 $876 $878 #
vertex $-1 $807 $879 #
straight-curve $-1 296.64238452522494 40 -10 0 0 -1 I I #
coedge $-1 $718 $717 $880 $881 reversed $719 $-1 #
edge $-1 $720 0 $882 20 $808 $883 forward 7 unknown #
face $-1 $724 $719 $3 $-1 $884 reversed single #
point $-1 296.64238452522494 40 -41.632454402121979 #
coedge $-1 $737 $880 $722 $818 forward $836 $-1 #
edge $-1 $819 1.2199027798217095e-016 $741 0.014016255169483269 $817 $885 forward 7 unknown #
vertex $-1 $818 $886 #
straight-curve $-1 292.56610102286595 40 -46.546388450518009 0 -1 0 I I #
face $-1 $735 $730 $3 $-1 $887 reversed single #
cone-surface $-1 382.80237647683805 40 -526.58015150017263 0 1 0 488.44139779037681 0 0 1 I I 0 1 488.44139779037681 forward I I I I #
coedge $-1 $888 $726 $873 $889 forward $825 $-1 #
coedge $-1 $726 $888 $728 $829 reversed $825 $-1 #
loop $-1 $-1 $726 $840 #
vertex $-1 $727 $890 #
straight-curve $-1 251.85243571465901 40 -5 1 0 0 I I #
coedge $-1 $729 $728 $891 $892 reversed $730 $-1 #
edge $-1 $731 0 $893 20 $824 $894 forward 7 unknown #
point $-1 251.85243571465901 40 -5 #
coedge $-1 $891 $737 $733 $832 reversed $836 $-1 #
edge $-1 $833 -1.2552318647699705e-015 $739 46.64059258875708 $831 $895 forward 7 unknown #
vertex $-1 $892 $896 #
straight-curve $-1 248.31927211563297 40 -13.537902624793055 0 -1 0 I I #
plane-surface $-1 283.22491465064587 40 -48.396789000314861 0.70663271980520148 0 0.70758052495861101 -0.70758052495861101 0 0.70663271980520148 forward_v I I I I #
loop $-1 $-1 $897 $743 #
ellipse-curve $-1 284.85441070299237 20 -42.95776879431979 0 1 0 0.99249846296311262 0 -4.9005047496166014 1 I I #
point $-1 281.32124710396641 20 -46.495671419112789 #
point $-1 285.84690916595548 20 -47.858273543936392 #
face $-1 $898 $825 $3 $-1 $899 reversed single #
plane-surface $-1 0 20 0 0 1 0 1 0 0 forward_v I I I I #
coedge $-1 $746 $745 $859 $900 reversed $747 $-1 #
face $-1 $751 $747 $3 $-1 $901 forward single #
coedge $-1 $753 $859 $749 $845 forward $768 $-1 #
edge $-1 $846 -7.7449158197851052e-015 $755 1.5707963267948972 $844 $902 forward 7 unknown #
vertex $-1 $845 $903 #
straight-curve $-1 232.70121772876291 39.999999999999993 -12.07343573670255 0 -1 -2.1316282072803005e-015 I I #
cone-surface $-1 236.23912035355596 40.666366639147419 -15.6065993357286 0 -1 0 -3.5379026247930518 0 3.5331635990260106 1 I I 0 1 5 forward I I I I #
straight-curve $-1 239.77228395258197 20 -12.068696710935544 0.70758052495861123 0 -0.70663271980520137 I I #
point $-1 239.77228395258197 19.999999999999993 -12.068696710935548 #
cone-surface $-1 171.04900627072595 40.751591236238163 -80.884152797386307 -3.9810111116710284e-015 -1 -3.3175092597258569e-015 2.1456790122833298 6.4405630115468491e-015 -4.5161999043716872 1 I I 0 1 5 forward I I I I #
coedge $-1 $859 $762 $759 $853 forward $768 $-1 #
edge $-1 $764 0 $854 2.7990600747982914 $852 $904 forward 7 unknown #
vertex $-1 $853 $905 #
straight-curve $-1 167.51110364593291 40 -77.350989198360296 -1.4210854715202005e-015 -1 -7.1054273576010023e-016 I I #
ellipse-curve $-1 382.80237647683623 20 -526.58015150016809 0 -1 0 -114.15513403301884 0 474.91431274422109 1 I I #
point $-1 173.19468528300925 20 -85.400352701758038 #
plane-surface $-1 0 20 0 0 1 0 1 0 0 forward_v I I I I #
coedge $-1 $844 $852 $842 $900 forward $768 $-1 #
edge $-1 $776 0 $784 106.68454445486455 $789 $906 forward 7 unknown #
plane-surface $-1 136.90036047695654 40 -100.92697889420977 0.78203393655527542 0 0.62323584787451003 -0.62323584787451003 0 0.78203393655527542 forward_v I I I I #
ellipse-curve $-1 70.830398074310253 20 -9.9999999999999964 0 1 0 -3.9101696827763703 0 -3.1161792393725527 1 I I #
point $-1 66.920228391533897 20 -13.116179239372542 #
ellipse-curve $-1 137.32003059274365 20 -93.430934269644027 0 1 0 3.5379026247930483 0 -3.5331635990259542 1 I I #
point $-1 133.40986090996728 20 -96.547113509016555 #
edge $-1 $800 0 $794 1.6987767611481621 $805 $907 forward 7 unknown #
cone-surface $-1 127.03848956999521 19.333633360852577 -104.59763147401729 0 1 0 2.591633860192319 0 -4.2759132281542698 1 I I 0 1 5.0000000000000009 forward I I I I #
ellipse-curve $-1 382.80237647684169 20 -526.58015150017718 0 -1 0 -253.17225304665402 0 417.70660679800574 1 I I #
point $-1 129.63012343018767 20 -108.87354470217144 #
straight-curve $-1 60.535974926551916 20 -13.127887697476126 0.62323584787451003 0 -0.78203393655527553 I I #
point $-1 130.94865925277159 20 -101.48145223464473 #
coedge $-1 $908 $806 $809 $877 forward $874 $-1 #
coedge $-1 $806 $908 $823 $889 reversed $874 $-1 #
loop $-1 $-1 $908 $898 #
ellipse-curve $-1 291.64238452522494 40 -10.000000000000014 0 -1 0 5 0 1.4210854715202004e-014 1 I I #
coedge $-1 $809 $808 $909 $910 reversed $810 $-1 #
edge $-1 $811 0 $911 20 $809 $912 forward 7 unknown #
face $-1 $815 $810 $3 $-1 $913 reversed single #
point $-1 296.64238452522494 40 -10 #
coedge $-1 $817 $909 $813 $881 forward $836 $-1 #
edge $-1 $882 0 $819 1.3849856673763741 $880 $914 forward 7 unknown #
vertex $-1 $881 $915 #
straight-curve $-1 296.64238452522494 40 -41.632454402121979 0 -1 0 I I #
cone-surface $-1 291.64238452522494 40.779879821798815 -41.632454402121979 0 -1 0 5 0 0 1 I I 0 1 5 forward I I I I #
ellipse-curve $-1 382.80237647671902 20 -526.58015149957509 0 -1 0 -90.236275453853011 0 480.03376304905709 1 I I #
point $-1 292.56610102286595 20 -46.546388450518009 #
cone-surface $-1 251.85243571465898 40.666366639147419 -10 0 -1 0 -3.5331635990260093 0 -3.5379026247930536 1 I I 0 1 5 forward I I I I #
coedge $-1 $824 $823 $897 $916 reversed $825 $-1 #
edge $-1 $826 0 $917 20 $823 $918 forward 7 unknown #
point $-1 291.64238452522494 40 -5 #
coedge $-1 $897 $831 $828 $892 forward $836 $-1 #
edge $-1 $833 0 $893 2.3568646896937295 $891 $919 forward 7 unknown #
vertex $-1 $892 $920 #
straight-curve $-1 251.85243571465901 40 -5 -2.8421709430404009e-015 -1 0 I I #
straight-curve $-1 248.31927211563297 20 -13.537902624793055 0.70758052495861101 0 -0.70663271980520148 I I #
point $-1 248.31927211563297 20 -13.537902624793054 #
coedge $-1 $921 $891 $888 $916 forward $836 $-1 #
face $-1 $878 $874 $3 $-1 $922 reversed single #
plane-surface $-1 2.8391908026579387 40 -5 0 0 1 1 0 0 forward_v I I I I #
edge $-1 $854 2.4116614749183543e-013 $846 92.254593165175322 $859 $923 forward 7 unknown #
plane-surface $-1 136.48069036116945 40 -108.42302351877554 0.70758052495861135 0 -0.70663271980520126 0.70663271980520115 0 0.70758052495861123 forward_v I I I I #
ellipse-curve $-1 236.23912035355596 20 -15.606599335728596 -1.0055324039493187e-015 1 1.0041854918159784e-015 -3.5379026247930483 -7.1054273576010019e-015 3.5331635990260075 1 I I #
point $-1 232.70121772876288 20 -12.073435736702615 #
ellipse-curve $-1 171.0490062707259 20 -80.884152797386378 0 1 0 2.1456790122833524 0 -4.5161999043716605 1 I I #
point $-1 167.51110364593288 20 -77.35098919836031 #
straight-curve $-1 66.920228391533897 20 -13.116179239372542 0.62323584787451003 0 -0.78203393655527542 I I #
ellipse-curve $-1 127.03848956999519 20 -104.59763147401726 0 1 0 3.9101696827763988 0 3.1161792393725278 1 I I #
coedge $-1 $873 $872 $921 $924 reversed $874 $-1 #
coedge $-1 $880 $921 $876 $910 forward $836 $-1 #
edge $-1 $911 0 $882 31.632454402121979 $909 $925 forward 7 unknown #
vertex $-1 $910 $926 #
straight-curve $-1 296.64238452522494 40 -10 0 -1 0 I I #
plane-surface $-1 296.64238452522494 40 -5 1 0 0 0 0 -1 forward_v I I I I #
ellipse-curve $-1 291.64238452522494 20 -41.632454402122001 0 1 0 5 0 2.1316282072803006e-014 1 I I #
point $-1 296.64238452522494 20 -41.632454402121979 #
edge $-1 $893 -5.6843418860808015e-014 $917 39.789948810565932 $897 $927 forward 7 unknown #
vertex $-1 $924 $928 #
straight-curve $-1 291.64238452522494 40 -5 0 -1 0 I I #
ellipse-curve $-1 251.85243571465898 20 -10.000000000000004 0 1 0 -3.5331635990260111 0 -3.5379026247930501 1 I I #
point $-1 251.85243571465895 20 -5 #
coedge $-1 $909 $897 $908 $924 forward $836 $-1 #
cone-surface $-1 291.64238452522494 40.779879821798815 -10 0 -1 0 0 0 5 1 I I 0 1 5 forward I I I I #
straight-curve $-1 167.51110364593271 20 -77.35098919836048 0.70663271980520115 0 0.70758052495861146 I I #
edge $-1 $917 0 $911 1.5707963267949185 $921 $929 forward 7 unknown #
straight-curve $-1 296.64238452522494 20 -10 0 0 -1 I I #
point $-1 296.64238452522494 20 -10 #
straight-curve $-1 251.85243571465901 20 -5 1 0 0 I I #
point $-1 291.64238452522494 20 -5 #
ellipse-curve $-1 291.642384525225 20 -9.9999999999999467 0 1 0 -5.6843418860808015e-014 0 4.9999999999999467 1 I I #
End-of-ACIS-data 