600 0 1 0           
109 GICL Pro/E ACIS Translator - Source: f:/data5/repository/PTC/V20/web_demos/models/local_mill/ribs.prt.1 - 6 0 13 ACIS 6.0.3 NT 24 Thu Apr 04 13:12:37 2002 
1 9.9999999999999995e-007 1e-010 
body $-1 $1 $-1 $2 #
lump $-1 $-1 $3 $0 #
transform $-1 1 0 0 0 1 0 0 0 1 0 0 0 25.399999999999999 no_rotate no_reflect no_shear #
shell $-1 $-1 $-1 $4 $-1 $1 #
face $-1 $5 $6 $3 $-1 $7 reversed single #
face $-1 $8 $9 $3 $-1 $10 forward single #
loop $-1 $-1 $11 $4 #
plane-surface $-1 0 0 0 0 1 0 1 0 0 forward_v I I I I #
face $-1 $12 $13 $3 $-1 $14 forward single #
loop $-1 $-1 $15 $5 #
cone-surface $-1 -38.572092804110127 0 -6.0986602390291855 0 1 0 25 0 0 1 I I 0 1 25 forward I I I I #
coedge $-1 $16 $17 $18 $19 reversed $6 $-1 #
face $-1 $20 $21 $3 $-1 $22 reversed single #
loop $-1 $-1 $23 $8 #
plane-surface $-1 -25.763199149489175 0 15.370672385545134 0.51235574618483803 0 0.85877330498297277 0.85877330498297277 0 -0.51235574618483803 forward_v I I I I #
coedge $-1 $24 $18 $25 $26 forward $9 $-1 #
coedge $-1 $27 $11 $28 $29 reversed $6 $-1 #
coedge $-1 $11 $30 $31 $32 reversed $6 $-1 #
coedge $-1 $15 $33 $11 $19 forward $9 $-1 #
edge $-1 $34 0 $35 3.1415926535897931 $11 $36 forward 7 unknown #
face $-1 $37 $38 $3 $-1 $39 forward single #
loop $-1 $-1 $40 $12 #
cone-surface $-1 24.04314596747475 25 50.058210756210912 -0.51235574618483803 0 -0.85877330498297277 0 -5 0 1 I I 0 1 5 forward I I I I #
coedge $-1 $41 $42 $43 $44 forward $13 $-1 #
coedge $-1 $33 $15 $45 $46 reversed $9 $-1 #
coedge $-1 $31 $41 $15 $26 reversed $13 $-1 #
edge $-1 $35 6.3108872417680948e-031 $47 20 $15 $48 forward 7 unknown #
coedge $-1 $49 $16 $50 $51 reversed $6 $-1 #
coedge $-1 $52 $53 $16 $29 forward $38 $-1 #
edge $-1 $54 0 $34 29.999999999999986 $16 $55 forward 7 unknown #
coedge $-1 $17 $56 $57 $58 forward $6 $-1 #
coedge $-1 $42 $25 $17 $32 forward $13 $-1 #
edge $-1 $35 0 $59 27.243581318865921 $17 $60 forward 7 unknown #
coedge $-1 $18 $24 $52 $61 reversed $9 $-1 #
vertex $-1 $29 $62 #
vertex $-1 $32 $63 #
ellipse-curve $-1 -38.572092804110127 0 -6.0986602390291855 0 1 0 -12.808893654620952 0 -21.469332624574321 1 I I #
face $-1 $64 $65 $3 $-1 $66 forward single #
loop $-1 $-1 $28 $20 #
plane-surface $-1 -25.617787309241887 0 -42.938665249148642 -0.5123557461848377 0 -0.85877330498297288 -0.85877330498297288 0 0.5123557461848377 forward_v I I I I #
coedge $-1 $67 $68 $69 $70 reversed $21 $-1 #
coedge $-1 $25 $23 $71 $72 reversed $13 $-1 #
coedge $-1 $23 $31 $73 $74 reversed $13 $-1 #
coedge $-1 $75 $67 $23 $44 reversed $21 $-1 #
edge $-1 $76 6.2243543652585267e-014 $77 0.46532835021806968 $23 $78 forward 7 unknown #
coedge $-1 $71 $79 $24 $46 forward $65 $-1 #
edge $-1 $80 9.0949470177292803e-017 $47 3.1415926535897931 $45 $81 forward 7 unknown #
vertex $-1 $72 $82 #
straight-curve $-1 -25.763199149489179 0 15.370672385545134 1.7763568394002506e-016 1 0 I I #
coedge $-1 $83 $27 $84 $85 reversed $6 $-1 #
coedge $-1 $86 $87 $27 $51 forward $88 $-1 #
edge $-1 $89 0 $54 115.83054623833436 $27 $90 forward 7 unknown #
coedge $-1 $91 $28 $33 $61 forward $38 $-1 #
coedge $-1 $28 $69 $86 $92 reversed $38 $-1 #
vertex $-1 $51 $93 #
straight-curve $-1 -25.617787309241905 0 -42.938665249148627 -0.858773304982973 0 0.51235574618483759 I I #
coedge $-1 $30 $94 $95 $96 forward $6 $-1 #
coedge $-1 $97 $73 $30 $58 reversed $98 $-1 #
edge $-1 $99 0 $59 0.53792570519922411 $30 $100 forward 7 unknown #
vertex $-1 $32 $101 #
straight-curve $-1 -25.763199149489175 0 15.370672385545134 0.85877330498297266 0 -0.51235574618483803 I I #
edge $-1 $34 0 $80 20 $52 $102 forward 7 unknown #
point $-1 -51.38098645873108 0 -27.567992863603507 #
point $-1 -25.763199149489175 0 15.370672385545134 #
face $-1 $103 $88 $3 $-1 $104 forward single #
loop $-1 $-1 $79 $37 #
plane-surface $-1 0 20 0 0 1 0 1 0 0 forward_v I I I I #
coedge $-1 $43 $40 $105 $106 reversed $21 $-1 #
coedge $-1 $40 $75 $107 $108 forward $21 $-1 #
coedge $-1 $53 $91 $40 $70 forward $38 $-1 #
edge $-1 $109 -2.5243548967072343e-031 $110 1.5707963267948954 $69 $111 forward 7 unknown #
coedge $-1 $105 $45 $41 $72 forward $65 $-1 #
edge $-1 $47 0 $77 24.999999999999979 $71 $112 forward 7 unknown #
coedge $-1 $57 $113 $42 $74 forward $98 $-1 #
edge $-1 $76 0 $59 20.531628611492124 $42 $114 forward 7 unknown #
coedge $-1 $68 $43 $113 $115 forward $21 $-1 #
vertex $-1 $74 $116 #
vertex $-1 $106 $117 #
ellipse-curve $-1 -4.2938665249148578 24.999999999999982 2.5617787309241855 -0.51235574618483826 4.9737991503207402e-016 -0.85877330498297266 1.9267277442007824 -4.4683713885077196 -1.1495117807540574 1 I I #
coedge $-1 $45 $105 $91 $118 forward $65 $-1 #
vertex $-1 $46 $119 #
ellipse-curve $-1 -38.572092804110127 20 -6.0986602390291855 0 1 0 -12.808893654620952 0 -21.469332624574321 1 I I #
point $-1 -25.763199149489175 20 15.370672385545134 #
coedge $-1 $120 $49 $121 $122 reversed $6 $-1 #
coedge $-1 $123 $124 $49 $85 forward $125 $-1 #
edge $-1 $126 -3.1775410928018586e-015 $89 125.80861030458698 $49 $127 forward 7 unknown #
coedge $-1 $107 $50 $53 $92 forward $88 $-1 #
coedge $-1 $50 $128 $123 $129 reversed $88 $-1 #
loop $-1 $-1 $87 $64 #
vertex $-1 $85 $130 #
straight-curve $-1 -84.964233258181082 0 -142.41084626022607 0.51235574618483792 0 0.85877330498297277 I I #
coedge $-1 $69 $52 $79 $118 reversed $38 $-1 #
edge $-1 $54 0 $110 25 $86 $131 forward 7 unknown #
point $-1 -25.617787309241905 0 -42.938665249148627 #
coedge $-1 $56 $120 $132 $133 reversed $6 $-1 #
coedge $-1 $134 $135 $56 $96 reversed $136 $-1 #
edge $-1 $137 0 $99 333.88596584409089 $56 $138 forward 7 unknown #
coedge $-1 $139 $57 $135 $140 reversed $98 $-1 #
loop $-1 $-1 $57 $141 #
vertex $-1 $58 $142 #
ellipse-curve $-1 2.756418681134063 0 9.9999999999999805 0 1 0 5.773159728050814e-015 0 -9.9999999999999805 1 I I #
point $-1 -2.3671387807143134 0 1.412266950170272 #
straight-curve $-1 -51.38098645873108 0 -27.567992863603507 0 1 0 I I #
face $-1 $143 $125 $3 $-1 $144 forward single #
plane-surface $-1 -84.964233258181082 0 -142.41084626022607 -0.85877330498297277 0 0.51235574618483803 0.51235574618483803 0 0.85877330498297277 forward_v I I I I #
coedge $-1 $79 $71 $67 $106 forward $65 $-1 #
edge $-1 $77 0 $109 50.000000000000014 $105 $145 forward 7 unknown #
coedge $-1 $146 $86 $68 $108 reversed $88 $-1 #
edge $-1 $147 3.1688818412345421e-014 $110 50.387395979533224 $107 $148 forward 7 unknown #
vertex $-1 $106 $149 #
vertex $-1 $108 $150 #
ellipse-curve $-1 -29.911653834156773 25.000000000000004 -40.376886518224438 0.5123557461848377 -4.7533227618518099e-015 0.85877330498297288 -1.0658141036401503e-014 -5.0000000000000036 -2.1316282072803006e-014 1 I I #
straight-curve $-1 -25.763199149489175 20 15.370672385545134 0.85877330498297277 0 -0.51235574618483803 I I #
coedge $-1 $73 $151 $75 $115 reversed $98 $-1 #
straight-curve $-1 -2.3671387807143134 20.531628611492124 1.412266950170272 0 -1 0 I I #
edge $-1 $76 0 $147 1.0000000000000002 $75 $152 forward 7 unknown #
point $-1 -2.3671387807143129 20.531628611492124 1.4122669501702738 #
point $-1 -4.2938665249148791 20 2.5617787309241891 #
edge $-1 $109 -1.7685926044922942e-015 $80 24.999999999999989 $79 $153 forward 7 unknown #
point $-1 -51.38098645873108 20 -27.567992863603504 #
coedge $-1 $94 $83 $154 $155 reversed $6 $-1 #
coedge $-1 $156 $157 $83 $122 forward $158 $-1 #
edge $-1 $159 -5.9150182308897264e-016 $126 0.65672646246207234 $83 $160 forward 7 unknown #
coedge $-1 $161 $84 $87 $129 forward $125 $-1 #
coedge $-1 $84 $161 $156 $162 reversed $125 $-1 #
loop $-1 $-1 $123 $103 #
vertex $-1 $122 $163 #
straight-curve $-1 27.558774564417135 0 -198.68143482411909 -0.89439830509355556 0 0.44727136264886797 I I #
coedge $-1 $87 $146 $164 $165 forward $88 $-1 #
edge $-1 $89 0 $166 40 $123 $167 forward 7 unknown #
point $-1 -84.964233258181082 0 -142.41084626022607 #
straight-curve $-1 -25.617787309241898 0 -42.938665249148613 0 1 0 I I #
coedge $-1 $168 $169 $94 $133 forward $170 $-1 #
edge $-1 $137 0 $171 3.1415926535897931 $94 $172 forward 7 unknown #
coedge $-1 $173 $95 $169 $174 forward $136 $-1 #
coedge $-1 $95 $175 $97 $140 forward $136 $-1 #
loop $-1 $-1 $95 $176 #
vertex $-1 $96 $177 #
straight-curve $-1 336.64238452522494 0 0 -1 0 0 I I #
coedge $-1 $151 $97 $178 $179 reversed $98 $-1 #
edge $-1 $180 0 $99 40 $135 $181 forward 7 unknown #
face $-1 $182 $98 $3 $-1 $183 reversed single #
point $-1 2.7564186811340687 0 0 #
face $-1 $184 $185 $3 $-1 $186 forward single #
plane-surface $-1 27.558774564417124 0 -198.68143482411909 -0.44727136264886802 0 -0.89439830509355556 -0.89439830509355556 0 0.44727136264886802 forward_v I I I I #
straight-curve $-1 -4.2938665249148791 20 2.5617787309241891 -0.51235574618483792 0 -0.85877330498297277 I I #
coedge $-1 $128 $107 $151 $187 forward $88 $-1 #
vertex $-1 $187 $188 #
straight-curve $-1 0.19848455616275373 25 0.33268532568087039 -0.51235574618483803 0 -0.85877330498297266 I I #
point $-1 -29.911653834156784 20 -40.37688651822446 #
point $-1 -25.617787309241908 25 -42.938665249148627 #
coedge $-1 $113 $139 $146 $187 reversed $98 $-1 #
intcurve-curve $-1 forward { surfintcur full nurbs 3 open 5 
	0 3 0.24914213502256699 1 0.49959940929357544 1 0.75025326385403068 1 1.0000000000000002 3 
	-2.3671387807143129 20.531628611492124 1.4122669501702738 1 
	-2.009230700098918 20.738700090732717 1.2081755634330202 1.0000000000000002 
	-1.3522389592978661 21.247981120208795 0.859978295978576 0.99999999999999989 
	-0.49043199266484022 22.328652031052144 0.53197215033558087 1.0000000000000002 
	0.072347202224731261 23.629050283549336 0.3662542734200242 1 
	0.19544494217449854 24.531524832444578 0.32968434056953361 0.99999999999999978 
	0.19848455616272043 25 0.33268532568081355 1 
	0.001 
	cone 24.04314596747475 25 50.058210756210912 -0.51235574618483803 0 -0.85877330498297277 0 -5 0 1 I I 0 1 5 forward I I I I 
	cone 2.7564186811340687 40.052500447305228 10 0 -1 0 0 0 -10 1 I I 0 1 10 forward I I I I 
	nullbs 
	nullbs 
	I I 
	0 
	0 
	0 
	} I I #
straight-curve $-1 -29.911653834156773 20 -40.376886518224438 -0.85877330498297288 0 0.51235574618483759 I I #
coedge $-1 $189 $190 $120 $155 forward $191 $-1 #
edge $-1 $171 0 $159 34.999999999999773 $120 $192 forward 7 unknown #
coedge $-1 $193 $121 $124 $162 forward $158 $-1 #
coedge $-1 $121 $194 $189 $195 forward $158 $-1 #
loop $-1 $-1 $121 $196 #
vertex $-1 $155 $197 #
ellipse-curve $-1 382.80237647683805 0 -526.58015150017263 0 -1 0 -81.159991951613165 0 476.58015150017263 1 I I #
coedge $-1 $124 $123 $198 $199 reversed $125 $-1 #
edge $-1 $126 1.135959703518257e-028 $200 40 $156 $201 forward 7 unknown #
point $-1 27.558774564417138 0 -198.68143482411909 #
coedge $-1 $178 $198 $128 $165 reversed $202 $-1 #
edge $-1 $203 3.2670523644134226e-014 $166 166.21794221786757 $164 $204 forward 7 unknown #
vertex $-1 $165 $205 #
straight-curve $-1 -84.964233258181082 0 -142.41084626022607 0 1 0 I I #
coedge $-1 $206 $132 $190 $207 forward $170 $-1 #
coedge $-1 $132 $206 $134 $174 reversed $170 $-1 #
loop $-1 $-1 $168 $208 #
vertex $-1 $133 $209 #
ellipse-curve $-1 336.64238452522494 0 -25 0 1 0 0 0 25 1 I I #
coedge $-1 $210 $134 $211 $212 reversed $136 $-1 #
edge $-1 $137 0 $213 20 $134 $214 forward 7 unknown #
coedge $-1 $135 $215 $216 $217 reversed $136 $-1 #
face $-1 $218 $136 $3 $-1 $219 forward single #
point $-1 336.64238452522494 0 0 #
coedge $-1 $216 $164 $139 $179 forward $202 $-1 #
edge $-1 $203 -2.4868995751603469e-016 $180 0.25866833073756257 $178 $220 forward 7 unknown #
vertex $-1 $217 $221 #
straight-curve $-1 2.7564186811340687 40 0 0 -1 0 I I #
face $-1 $222 $223 $3 $-1 $224 forward single #
cone-surface $-1 2.7564186811340687 40.052500447305228 10 0 -1 0 0 0 -10 1 I I 0 1 10 forward I I I I #
face $-1 $225 $226 $3 $-1 $227 reversed single #
loop $-1 $228 $229 $143 #
plane-surface $-1 0 40 0 0 1 0 1 0 0 forward_v I I I I #
edge $-1 $147 0 $203 15 $146 $230 forward 7 unknown #
point $-1 0.19848455616273952 25 0.33268532568084197 #
coedge $-1 $231 $154 $157 $195 reversed $191 $-1 #
coedge $-1 $154 $232 $168 $207 reversed $191 $-1 #
loop $-1 $-1 $190 $233 #
straight-curve $-1 336.64238452522494 0 -50 -1 0 0 I I #
coedge $-1 $194 $156 $234 $235 reversed $158 $-1 #
coedge $-1 $157 $193 $236 $237 reversed $158 $-1 #
edge $-1 $238 -1.5491327225447549e-006 $159 24.999998450867277 $157 $239 forward 7 unknown #
face $-1 $233 $158 $3 $-1 $240 reversed single #
point $-1 301.64238452522517 0 -50 #
coedge $-1 $164 $234 $161 $199 forward $202 $-1 #
edge $-1 $200 1.2710164371207434e-014 $166 125.80861030458698 $198 $241 forward 7 unknown #
vertex $-1 $199 $242 #
straight-curve $-1 27.558774564417092 0 -198.68143482411915 7.1054273576010023e-016 1 1.4210854715202005e-015 I I #
loop $-1 $243 $244 $143 #
vertex $-1 $179 $245 #
straight-curve $-1 0.19848455616273952 40 0.33268532568084197 -0.51235574618483803 0 -0.85877330498297277 I I #
point $-1 -84.964233258181082 40 -142.41084626022607 #
coedge $-1 $169 $168 $246 $247 reversed $170 $-1 #
edge $-1 $171 0 $248 20 $168 $249 forward 7 unknown #
face $-1 $250 $170 $3 $-1 $251 forward single #
point $-1 336.64238452522494 0 -50 #
coedge $-1 $215 $173 $252 $253 forward $136 $-1 #
coedge $-1 $246 $254 $173 $212 forward $255 $-1 #
edge $-1 $256 0 $213 30 $173 $257 forward 7 unknown #
vertex $-1 $212 $258 #
straight-curve $-1 336.64238452522494 0 0 0 1 0 I I #
coedge $-1 $175 $210 $259 $260 forward $136 $-1 #
coedge $-1 $244 $178 $175 $217 forward $202 $-1 #
edge $-1 $180 0 $261 298.88596584409089 $216 $262 forward 7 unknown #
face $-1 $141 $263 $3 $-1 $264 reversed single #
plane-surface $-1 0 0 0 0 0 1 1 0 0 forward_v I I I I #
ellipse-curve $-1 2.7564186811340692 40 10.000000000000007 0 -1 0 -2.5579341249713399 0 -9.6673146743191953 1 I I #
point $-1 2.7564186811340687 40 0 #
face $-1 $265 $266 $3 $-1 $267 reversed single #
loop $-1 $-1 $268 $182 #
cone-surface $-1 382.80237647683805 40 -526.58015150017263 0 1 0 488.44139779037681 0 0 1 I I 0 1 488.44139779037681 forward I I I I #
face $-1 $269 $270 $3 $-1 $271 reversed single #
loop $-1 $-1 $272 $184 #
plane-surface $-1 -77.911048696509553 40 -140.34765750016444 -0.85877330498297266 0 0.51235574618483803 0.51235574618483803 0 0.85877330498297266 forward_v I I I I #
loop $-1 $273 $274 $143 #
coedge $-1 $275 $276 $272 $277 reversed $185 $-1 #
straight-curve $-1 0.19848455616273952 25 0.33268532568084197 0 1 0 I I #
coedge $-1 $232 $189 $278 $279 forward $191 $-1 #
coedge $-1 $190 $231 $280 $281 reversed $191 $-1 #
face $-1 $208 $191 $3 $-1 $282 forward single #
coedge $-1 $198 $244 $193 $235 forward $202 $-1 #
edge $-1 $283 0 $200 0.65672646246207289 $234 $284 forward 7 unknown #
coedge $-1 $285 $286 $194 $237 forward $287 $-1 #
edge $-1 $238 1.1618495427967446e-006 $283 15.000001161849543 $236 $288 forward 7 unknown #
vertex $-1 $289 $290 #
straight-curve $-1 301.64238452522517 24.999998450867277 -50 -2.2737368953251297e-015 -1 0 I I #
cone-surface $-1 382.80237647683805 0 -526.58015150017263 0 1 0 483.44139779037687 0 0 1 I I 0 1 483.44139779037687 forward I I I I #
straight-curve $-1 27.558774564417135 40 -198.68143482411909 -0.89439830509355556 0 0.44727136264886797 I I #
point $-1 27.558774564417121 40 -198.68143482411909 #
loop $-1 $-1 $291 $143 #
coedge $-1 $234 $216 $285 $292 forward $202 $-1 #
point $-1 0.19848455616272684 40 0.33268532568081149 #
coedge $-1 $280 $211 $206 $247 forward $255 $-1 #
edge $-1 $213 0 $248 3.1415926535897953 $246 $293 forward 7 unknown #
vertex $-1 $281 $294 #
straight-curve $-1 336.64238452522494 0 -50 0 1 0 I I #
face $-1 $176 $255 $3 $-1 $295 forward single #
cone-surface $-1 336.64238452522494 0 -25 0 1 0 25 0 0 1 I I 0 1 25 forward I I I I #
coedge $-1 $296 $297 $210 $253 reversed $263 $-1 #
edge $-1 $256 0 $298 1.5707963267949172 $210 $299 forward 7 unknown #
coedge $-1 $211 $280 $296 $300 forward $255 $-1 #
loop $-1 $-1 $211 $250 #
vertex $-1 $253 $301 #
straight-curve $-1 306.64238452522494 20 0 1 0 0 I I #
point $-1 336.64238452522494 20 0 #
coedge $-1 $286 $285 $215 $260 reversed $287 $-1 #
edge $-1 $298 0 $261 15 $215 $302 forward 7 unknown #
vertex $-1 $217 $303 #
straight-curve $-1 2.7564186811340687 40 0 1 0 0 I I #
loop $-1 $-1 $252 $218 #
cone-surface $-1 306.64238452522494 25 -50.736878779477294 0 0 1 0 -5 0 1 I I 0 1 5 forward I I I I #
face $-1 $304 $305 $3 $-1 $306 forward single #
loop $-1 $-1 $307 $222 #
plane-surface $-1 26.447235789248566 40 -192.53522520889442 -0.44727136264886808 0 -0.89439830509355556 -0.89439830509355545 0 0.44727136264886802 forward_v I I I I #
coedge $-1 $308 $309 $291 $310 reversed $223 $-1 #
face $-1 $311 $312 $3 $-1 $313 forward single #
loop $-1 $-1 $314 $225 #
plane-surface $-1 2.8391908026579364 40 -5 0 0 1 1 0 0 forward_v I I I I #
coedge $-1 $315 $316 $229 $277 forward $226 $-1 #
loop $-1 $317 $318 $143 #
coedge $-1 $319 $320 $321 $322 reversed $228 $-1 #
coedge $-1 $276 $229 $323 $324 reversed $185 $-1 #
coedge $-1 $229 $275 $325 $326 reversed $185 $-1 #
edge $-1 $327 -1.0234746830856791e-013 $328 147.3726676568379 $229 $329 forward 7 unknown #
coedge $-1 $297 $296 $231 $279 reversed $263 $-1 #
edge $-1 $238 0 $330 1.570796326794915 $231 $331 forward 7 unknown #
coedge $-1 $254 $246 $232 $281 forward $255 $-1 #
edge $-1 $248 0 $330 29.999999999999943 $280 $332 forward 7 unknown #
plane-surface $-1 336.64238452522494 0 -50 0 0 -1 -1 0 0 forward_v I I I I #
vertex $-1 $235 $333 #
ellipse-curve $-1 382.80237647683794 40 -526.58015150017241 0 -1 0 -81.159991951612994 0 476.58015150017241 1 I I #
coedge $-1 $259 $236 $244 $292 reversed $287 $-1 #
coedge $-1 $236 $259 $297 $289 reversed $287 $-1 #
loop $-1 $-1 $236 $334 #
straight-curve $-1 301.64238452522494 24.999998838150457 -50 0 1 -7.5791219277211162e-015 I I #
edge $-1 $238 0 $298 49.999999999999993 $286 $335 forward 7 unknown #
point $-1 301.64238452522494 25 -49.999999999999993 #
coedge $-1 $336 $337 $268 $310 forward $243 $-1 #
edge $-1 $261 0 $283 50 $244 $338 forward 7 unknown #
ellipse-curve $-1 336.64238452522494 20 -25.000000000000014 0 1 0 0 0 25.000000000000014 1 I I #
point $-1 336.64238452522488 20 -50 #
plane-surface $-1 0 20 0 0 1 0 1 0 0 forward_v I I I I #
coedge $-1 $278 $252 $254 $300 reversed $263 $-1 #
coedge $-1 $252 $278 $286 $289 forward $263 $-1 #
vertex $-1 $260 $339 #
ellipse-curve $-1 306.64238452522488 24.999999999999954 0 0 0 -1 5.6843418860808015e-014 -4.9999999999999538 0 1 I I #
edge $-1 $330 0 $256 49.999999999999993 $254 $340 forward 7 unknown #
point $-1 306.64238452522494 20 0 #
straight-curve $-1 301.64238452522494 25 0 0 1 0 I I #
point $-1 301.64238452522494 40 0 #
face $-1 $341 $342 $3 $-1 $343 forward single #
loop $-1 $-1 $344 $265 #
plane-surface $-1 0 20 0 0 1 0 1 0 0 forward_v I I I I #
coedge $-1 $345 $346 $347 $348 reversed $266 $-1 #
coedge $-1 $349 $268 $345 $350 forward $223 $-1 #
coedge $-1 $268 $349 $351 $352 forward $223 $-1 #
edge $-1 $353 0 $354 0.99999984632052819 $291 $355 forward 7 unknown #
face $-1 $356 $357 $3 $-1 $358 forward single #
loop $-1 $-1 $359 $269 #
plane-surface $-1 0 20 0 0 1 0 1 0 0 forward_v I I I I #
coedge $-1 $360 $361 $362 $363 reversed $270 $-1 #
coedge $-1 $364 $272 $360 $365 forward $226 $-1 #
coedge $-1 $272 $364 $366 $367 forward $226 $-1 #
loop $-1 $202 $368 $143 #
coedge $-1 $369 $370 $371 $372 reversed $273 $-1 #
coedge $-1 $320 $274 $373 $374 reversed $228 $-1 #
coedge $-1 $274 $319 $375 $376 reversed $228 $-1 #
coedge $-1 $377 $378 $274 $322 forward $379 $-1 #
edge $-1 $380 0 $381 122.66344772293586 $274 $382 forward 7 unknown #
coedge $-1 $366 $383 $275 $324 forward $357 $-1 #
edge $-1 $384 -6.2845775246832464e-016 $327 178.86262892159579 $275 $385 forward 7 unknown #
coedge $-1 $361 $360 $276 $326 forward $270 $-1 #
edge $-1 $328 0 $384 50.882952841806222 $276 $386 forward 7 unknown #
vertex $-1 $324 $387 #
vertex $-1 $326 $388 #
straight-curve $-1 -72.668042301911399 40 -131.55971286781994 0.51235574618483803 0 0.85877330498297277 I I #
vertex $-1 $300 $389 #
ellipse-curve $-1 306.64238452522488 24.999999999999964 -50 1.4210854715202166e-015 -1.009741958682918e-029 1 -4.9999999999999432 3.5527136788005009e-014 7.1054273576010019e-015 1 I I #
straight-curve $-1 336.64238452522488 20 -50 -1 0 0 I I #
point $-1 301.64238452522494 40 -50 #
face $-1 $196 $287 $3 $-1 $390 forward single #
straight-curve $-1 301.64238452522494 25 -49.999999999999993 0 0 1 I I #
coedge $-1 $391 $291 $392 $393 reversed $243 $-1 #
coedge $-1 $291 $391 $394 $395 reversed $243 $-1 #
straight-curve $-1 301.64238452522494 40 0 0 0 -1 I I #
point $-1 301.64238452522494 25 0 #
straight-curve $-1 306.64238452522494 20 -49.999999999999993 0 0 1 I I #
face $-1 $-1 $396 $3 $-1 $397 forward single #
loop $-1 $-1 $398 $304 #
plane-surface $-1 57.045475359562616 40 -8.7480223122828846 -0.78203393655527542 0 -0.62323584787451003 0.62323584787451003 0 -0.78203393655527542 forward_v I I I I #
coedge $-1 $399 $400 $401 $402 forward $305 $-1 #
coedge $-1 $394 $307 $308 $350 reversed $266 $-1 #
coedge $-1 $307 $394 $403 $404 reversed $266 $-1 #
coedge $-1 $400 $399 $307 $348 forward $305 $-1 #
edge $-1 $405 7.6263038561784154e-014 $406 114.04529048018698 $347 $407 forward 7 unknown #
coedge $-1 $309 $308 $399 $408 reversed $223 $-1 #
edge $-1 $353 3.3523433028272121e-027 $405 20 $345 $409 forward 7 unknown #
coedge $-1 $401 $392 $309 $352 reversed $342 $-1 #
edge $-1 $410 3.0292258760486852e-029 $354 20 $309 $411 forward 7 unknown #
vertex $-1 $395 $412 #
tvertex-vertex $-1 $393 $413 0.00030748815478755112 #
intcurve-curve $-1 forward { surfintcur full nurbs 3 open 5 
	0 3 0.2500062039175534 1 0.50000493798482082 1 0.75000317703094299 1 1.0000000000000002 3 
	26.447235789248644 40 -192.53522520889445 1 
	34.381272629680296 40 -184.07295448723406 1 
	50.801089697029582 40 -167.75922415379048 0.99999999999999989 
	77.140755764752356 40 -145.07153041832993 1.0000000000000002 
	105.02760977206982 40 -124.31345087870768 1.0000000000000002 
	124.52618310441737 40.000000000000007 -111.8493044760431 1 
	134.5126414150416 40 -105.9535232967926 1 
	0.001 
	plane 0 40 0 0 1 0 1 0 0 forward_v I I I I 
	cone 382.80237647683805 40 -526.58015150017263 0 1 0 488.44139779037681 0 0 1 I I 0 1 488.44139779037681 forward I I I I 
	nullbs 
	nullbs 
	I I 
	0 
	0 
	0 
	} I I #
face $-1 $414 $379 $3 $-1 $415 forward single #
loop $-1 $-1 $383 $311 #
plane-surface $-1 57.465145475349701 40 -1.2519776877171156 -0.70758052495861146 0 0.70663271980520126 -0.70663271980520115 0 -0.70758052495861135 forward_v I I I I #
coedge $-1 $362 $416 $364 $417 forward $312 $-1 #
coedge $-1 $325 $314 $315 $365 reversed $270 $-1 #
coedge $-1 $314 $325 $383 $418 reversed $270 $-1 #
coedge $-1 $416 $359 $314 $363 forward $312 $-1 #
edge $-1 $419 0 $420 50.882952841806222 $362 $421 forward 7 unknown #
coedge $-1 $316 $315 $359 $417 reversed $226 $-1 #
edge $-1 $328 0 $419 20 $315 $422 forward 7 unknown #
coedge $-1 $423 $323 $316 $367 reversed $357 $-1 #
edge $-1 $424 0 $327 20 $316 $425 forward 7 unknown #
coedge $-1 $426 $427 $428 $429 reversed $317 $-1 #
coedge $-1 $430 $318 $431 $432 reversed $273 $-1 #
tcoedge-coedge $-1 $318 $430 $433 $434 forward $273 $435 0 0.027997412600669791 #
coedge $-1 $436 $437 $318 $372 forward $438 $-1 #
edge $-1 $439 0 $440 40.798023231748878 $318 $441 forward 7 unknown #
coedge $-1 $442 $443 $319 $374 forward $444 $-1 #
edge $-1 $445 -6.2845775246832435e-016 $380 135.57040578501062 $319 $446 forward 7 unknown #
coedge $-1 $447 $448 $320 $376 forward $449 $-1 #
edge $-1 $381 0 $445 172.24674240977143 $320 $450 forward 7 unknown #
coedge $-1 $451 $321 $448 $452 reversed $379 $-1 #
coedge $-1 $321 $451 $442 $453 reversed $379 $-1 #
loop $-1 $-1 $378 $356 #
vertex $-1 $374 $454 #
vertex $-1 $376 $455 #
straight-curve $-1 136.90036047695654 40 -100.92697889420977 -0.62323584787451003 0 0.78203393655527542 I I #
coedge $-1 $323 $423 $361 $418 forward $357 $-1 #
vertex $-1 $326 $456 #
straight-curve $-1 53.722143644464161 40 -5.0000000000000009 -0.70663271980520115 0 -0.70758052495861135 I I #
straight-curve $-1 2.8391908026579387 40 -5 1 0 0 I I #
point $-1 -72.668042301911456 40 -131.55971286782002 #
point $-1 2.8391908026579387 40 -5 #
point $-1 306.64238452522494 20 -49.999999999999993 #
plane-surface $-1 301.64238452522494 0 0 1 0 0 0 0 -1 forward_v I I I I #
coedge $-1 $337 $336 $457 $458 reversed $243 $-1 #
coedge $-1 $351 $398 $336 $393 forward $342 $-1 #
edge $-1 $459 -1.3891713318430652e-015 $354 124.29816176468832 $336 $460 forward 7 unknown #
coedge $-1 $346 $345 $337 $395 forward $266 $-1 #
edge $-1 $353 -3.177541092801859e-015 $461 114.04529048018696 $337 $462 forward 7 unknown #
loop $-1 $-1 $403 $341 #
plane-surface $-1 -75.554678720132785 40 -141.52603273213526 0.70758052495861135 0 -0.70663271980520126 0.70663271980520126 0 0.70758052495861135 forward_v I I I I #
coedge $-1 $392 $401 $463 $464 reversed $342 $-1 #
coedge $-1 $347 $344 $349 $408 forward $305 $-1 #
coedge $-1 $344 $347 $465 $466 forward $305 $-1 #
coedge $-1 $398 $351 $344 $402 reversed $342 $-1 #
edge $-1 $467 0 $410 124.2978542765335 $344 $468 forward 7 unknown #
coedge $-1 $457 $465 $346 $404 forward $396 $-1 #
edge $-1 $406 0 $461 20 $346 $469 forward 7 unknown #
vertex $-1 $348 $470 #
vertex $-1 $466 $471 #
straight-curve $-1 26.447235789248637 20 -192.53522520889445 -0.89439830509355556 0 0.44727136264886808 I I #
edge $-1 $410 6.0995138990933755e-017 $405 0.28445594876540548 $399 $472 forward 7 unknown #
straight-curve $-1 26.447235789248452 40 -192.53522520889464 5.6843418860808018e-015 -1 1.1368683772161604e-014 I I #
vertex $-1 $408 $473 #
straight-curve $-1 134.51235395858026 20 -105.95316259753436 0 1 -2.1316282072803005e-015 I I #
point $-1 26.447235789248644 40 -192.53522520889445 #
point $-1 134.51254559622114 40 -105.95340306370652 #
face $-1 $474 $444 $3 $-1 $475 forward single #
plane-surface $-1 136.90036047695654 40 -100.92697889420977 0.78203393655527542 0 0.62323584787451003 -0.62323584787451003 0 0.78203393655527542 forward_v I I I I #
coedge $-1 $359 $362 $423 $476 reversed $312 $-1 #
edge $-1 $424 0 $419 147.37266765683802 $359 $477 forward 7 unknown #
edge $-1 $420 0 $384 20 $361 $478 forward 7 unknown #
vertex $-1 $363 $479 #
vertex $-1 $476 $480 #
straight-curve $-1 2.8391908026579364 20 -5 1 0 0 I I #
straight-curve $-1 2.8391908026579387 40 -5 0 -1 0 I I #
coedge $-1 $383 $366 $416 $476 forward $357 $-1 #
vertex $-1 $476 $481 #
straight-curve $-1 -72.668042301911484 20 -131.55971286782002 0 1 0 I I #
coedge $-1 $427 $368 $482 $483 reversed $317 $-1 #
coedge $-1 $368 $426 $484 $485 forward $317 $-1 #
coedge $-1 $486 $487 $368 $429 forward $488 $-1 #
edge $-1 $489 -1.2552318647699705e-015 $490 58.178795100025269 $368 $491 forward 7 unknown #
coedge $-1 $370 $369 $492 $493 reversed $273 $-1 #
coedge $-1 $494 $495 $369 $432 forward $496 $-1 #
edge $-1 $497 0 $439 56.872466907303277 $369 $498 forward 7 unknown #
tcoedge-coedge $-1 $499 $500 $370 $434 reversed $501 $502 -0.027997412600669808 0 #
tedge-edge $-1 $503 0 $440 0.027997412600669808 $370 $504 forward 7 unknown 5.4937153190659206e-005 #
pcurve $-1 0 forward { exppc nurbs 2 open 2 
	0 2 0.027997412600669791 2 
	283.22496114629109 48.396835433679044 1 
	289.91548164309864 47.00350991310458 0.9999020197110231 
	296.642384525225 45.798023231748893 1 
	0 
	plane 0 40 0 0 1 0 1 0 0 forward_v I I I I 
	} 0 0 #
coedge $-1 $505 $371 $500 $506 forward $438 $-1 #
coedge $-1 $371 $505 $494 $507 reversed $438 $-1 #
loop $-1 $-1 $436 $508 #
vertex $-1 $432 $509 #
tvertex-vertex $-1 $434 $510 6.7032467626806658e-014 #
straight-curve $-1 296.64238452522494 40 -5 0 0 -1 I I #
coedge $-1 $511 $373 $378 $453 forward $444 $-1 #
coedge $-1 $373 $511 $447 $512 forward $444 $-1 #
loop $-1 $-1 $443 $414 #
vertex $-1 $376 $513 #
straight-curve $-1 232.69884504191339 40 -5.0000000000000009 -0.70663271980520126 0 -0.70758052495861123 I I #
coedge $-1 $514 $375 $443 $512 reversed $449 $-1 #
coedge $-1 $375 $514 $377 $452 forward $449 $-1 #
loop $-1 $-1 $514 $474 #
straight-curve $-1 60.452102632141965 40 -5 1 0 0 I I #
coedge $-1 $378 $377 $515 $516 forward $379 $-1 #
edge $-1 $517 0 $381 20 $448 $518 forward 7 unknown #
edge $-1 $380 0 $519 20 $442 $520 forward 7 unknown #
point $-1 136.90036047695654 40 -100.92697889420977 #
point $-1 60.452102632141965 40 -5 #
point $-1 53.722143644464161 40 -5 #
coedge $-1 $463 $403 $391 $458 forward $396 $-1 #
edge $-1 $461 1.0041854918159761e-014 $459 187.65074183976304 $391 $521 forward 7 unknown #
vertex $-1 $458 $522 #
straight-curve $-1 57.045475359562616 40 -8.7480223122828864 0.62323584787450992 0 -0.78203393655527553 I I #
vertex $-1 $395 $523 #
straight-curve $-1 26.447235789248641 40 -192.53522520889445 -0.89439830509355545 0 0.44727136264886791 I I #
coedge $-1 $465 $457 $398 $464 forward $396 $-1 #
edge $-1 $459 0 $467 20 $463 $524 forward 7 unknown #
coedge $-1 $403 $463 $400 $466 reversed $396 $-1 #
edge $-1 $406 -1.0041854918159761e-014 $467 187.65074183976304 $400 $525 forward 7 unknown #
vertex $-1 $466 $526 #
straight-curve $-1 57.04547535956263 20 -8.7480223122829006 0.62323584787451003 0 -0.78203393655527553 I I #
straight-curve $-1 -75.554678720132785 20 -141.52603273213526 0 1 0 I I #
point $-1 26.447235789248566 20 -192.53522520889442 #
point $-1 -75.554678720132799 20 -141.52603273213526 #
ellipse-curve $-1 382.80237647683691 20 -526.58015150017127 0 -1 0 -248.29002251825662 0 420.62698890263687 1 I I #
point $-1 134.51235395858026 20 -105.95316259753437 #
face $-1 $527 $449 $3 $-1 $528 reversed single #
plane-surface $-1 236.22964230202186 40 -1.4644668880904697 -0.70758052495861135 0 0.70663271980520137 -0.70663271980520137 0 -0.70758052495861135 forward_v I I I I #
edge $-1 $424 2.0083709836319521e-014 $420 178.86262892159576 $416 $529 forward 7 unknown #
straight-curve $-1 -72.668042301911456 20 -131.55971286782002 0.51235574618483803 0 0.85877330498297266 I I #
straight-curve $-1 53.722143644464161 20 -5.0000000000000009 0 1 0 I I #
point $-1 2.8391908026579364 20 -5 #
point $-1 53.722143644464161 20 -5 #
point $-1 -72.668042301911456 20 -131.55971286782002 #
coedge $-1 $530 $531 $426 $483 forward $532 $-1 #
edge $-1 $533 0.00011774320258398571 $489 129.25195773234202 $426 $534 forward 7 unknown #
coedge $-1 $535 $536 $427 $485 reversed $537 $-1 #
edge $-1 $533 7.9462285674362737e-007 $490 1.0000000000000002 $427 $538 forward 7 unknown #
coedge $-1 $539 $428 $536 $540 reversed $488 $-1 #
coedge $-1 $428 $539 $530 $541 reversed $488 $-1 #
loop $-1 $-1 $487 $542 #
vertex $-1 $483 $543 #
tvertex-vertex $-1 $485 $544 0.00021993311846908229 #
straight-curve $-1 236.2343813277889 40 -8.5355331119095244 0.70758052495861112 0 -0.70663271980520148 I I #
coedge $-1 $545 $546 $430 $493 forward $547 $-1 #
edge $-1 $503 0 $497 61.413566365342255 $430 $548 forward 7 unknown #
coedge $-1 $549 $431 $437 $507 forward $496 $-1 #
coedge $-1 $431 $549 $545 $550 forward $496 $-1 #
loop $-1 $-1 $431 $551 #
vertex $-1 $493 $552 #
straight-curve $-1 239.76991761792166 40 -5 1 0 0 I I #
coedge $-1 $553 $433 $546 $554 reversed $501 $-1 #
coedge $-1 $433 $553 $436 $506 reversed $501 $-1 #
loop $-1 $-1 $553 $555 #
pcurve $-1 0 forward { exppc nubs 2 open 7 
	-0.027997412600669808 2 -0.02333117716722484 2 -0.018664941733779875 2 -0.013998706300334904 2 -0.0093324708668899373 2 
	-0.0046662354334449669 2 0 2 
	0 -1.7481219911522432 
	0 -1.7504537675662615 
	0 -1.7527855439802971 
	0 -1.7551173203797013 
	0 -1.7574490967791052 
	0 -1.75978087319305 
	0 -1.7621126496069779 
	0 -1.7644444260646184 
	0 -1.7667762025222249 
	0 -1.7691079790527142 
	0 -1.7714397555831536 
	0 -1.7737715322156449 
	0 -1.7761033088480687 
	0.001 
	cone 382.80237647683805 40 -526.58015150017263 0 1 0 488.44139779037681 0 0 1 I I 0 1 488.44139779037681 forward I I I I 
	} 0 0 #
tvertex-vertex $-1 $434 $556 6.5710747587444755e-005 #
ellipse-curve $-1 382.75090845289208 40 -526.30410160107044 0 1 0 -99.52594730660104 0 477.90726616739141 1 F 0 F 0.027997412600669808 #
coedge $-1 $437 $436 $557 $558 reversed $438 $-1 #
edge $-1 $440 -1.0097419586828951e-028 $559 20 $436 $560 forward 7 unknown #
edge $-1 $439 0 $561 20 $494 $562 forward 7 unknown #
face $-1 $555 $438 $3 $-1 $563 reversed single #
point $-1 296.64238452522494 40 -5 #
point $-1 296.64238452522494 40 -45.798023231748878 #
coedge $-1 $443 $442 $564 $565 reversed $444 $-1 #
edge $-1 $566 0 $445 20 $447 $567 forward 7 unknown #
point $-1 232.69884504191339 40 -5 #
coedge $-1 $448 $447 $568 $569 reversed $449 $-1 #
coedge $-1 $568 $564 $451 $516 reversed $570 $-1 #
edge $-1 $517 -1.111337065474452e-014 $519 122.66344772293584 $515 $571 forward 7 unknown #
vertex $-1 $569 $572 #
straight-curve $-1 60.452102632141973 20 -5 0 1 0 I I #
vertex $-1 $565 $573 #
straight-curve $-1 136.90036047695654 40 -100.92697889420977 0 -1 0 I I #
straight-curve $-1 -75.554678720132785 40 -141.52603273213526 0.70663271980520126 0 0.70758052495861135 I I #
point $-1 57.045475359562616 40 -8.7480223122828846 #
point $-1 -75.55467872013277 40 -141.52603273213526 #
straight-curve $-1 57.045475359562658 40 -8.7480223122828704 0 -1 0 I I #
straight-curve $-1 -75.554678720132785 20 -141.52603273213526 0.70663271980520126 0 0.70758052495861135 I I #
point $-1 57.04547535956263 20 -8.7480223122829006 #
face $-1 $508 $570 $3 $-1 $574 forward single #
plane-surface $-1 2.8391908026579364 40 -5 0 0 1 1 0 0 forward_v I I I I #
straight-curve $-1 -72.668042301911484 20 -131.55971286782002 0.70663271980520126 0 0.70758052495861135 I I #
coedge $-1 $575 $482 $487 $541 forward $532 $-1 #
coedge $-1 $482 $575 $535 $576 forward $532 $-1 #
loop $-1 $-1 $531 $577 #
tvertex-vertex $-1 $485 $578 0.00023548640483646896 #
straight-curve $-1 144.90071889523716 40 -99.99170121608833 0.70663271980520126 0 0.70758052495861146 I I #
coedge $-1 $579 $484 $531 $576 reversed $537 $-1 #
coedge $-1 $484 $579 $486 $540 forward $537 $-1 #
loop $-1 $-1 $579 $580 #
intcurve-curve $-1 forward { surfintcur full nurbs 3 open 5 
	0 3 0.25000495363356451 1 0.50000788311895428 1 0.75000978094410198 1 1.0000000000000002 3 
	144.90071889523716 40 -99.991701216088344 1 
	155.27333800844764 39.999999999999993 -94.208340387325379 1 
	176.37440744719541 40.000000000000007 -83.42761346616588 1 
	209.16606419926487 40 -69.581357145665052 1 
	242.87998973369349 40 -58.159213984876686 1 
	265.80926327635115 39.999999999999993 -52.209291718368078 1 
	277.40048589592863 40 -49.646495622461067 1 
	0.001 
	plane 0 40 0 0 1 0 1 0 0 forward_v I I I I 
	cone 382.80237647683805 40 -526.58015150017263 0 1 0 488.44139779037681 0 0 1 I I 0 1 488.44139779037681 forward I I I I 
	nullbs 
	nullbs 
	I I 
	0 
	0 
	0 
	} I I #
coedge $-1 $487 $486 $581 $582 reversed $488 $-1 #
edge $-1 $583 5.5535807727559231e-028 $490 20 $536 $584 forward 7 unknown #
edge $-1 $489 0 $585 20 $530 $586 forward 7 unknown #
face $-1 $577 $488 $3 $-1 $587 forward single #
point $-1 236.2343813277889 40 -8.5355331119095226 #
point $-1 277.40056370612427 40 -49.646573328429874 #
coedge $-1 $588 $492 $495 $550 reversed $547 $-1 #
coedge $-1 $492 $588 $499 $554 forward $547 $-1 #
loop $-1 $-1 $546 $589 #
straight-curve $-1 283.22496114629104 40 -48.396835433679037 -0.70758052495861112 0 0.70663271980520148 I I #
coedge $-1 $495 $494 $590 $591 reversed $496 $-1 #
edge $-1 $592 0 $497 20 $495 $593 forward 7 unknown #
face $-1 $589 $496 $3 $-1 $594 reversed single #
point $-1 239.76991761792166 40 -5 #
coedge $-1 $500 $499 $595 $596 reversed $501 $-1 #
edge $-1 $597 6.8157582211095424e-029 $503 20 $499 $598 forward 7 unknown #
face $-1 $599 $501 $3 $-1 $600 forward single #
point $-1 283.22496114629104 40 -48.396835433679037 #
coedge $-1 $595 $590 $505 $558 forward $601 $-1 #
edge $-1 $561 0 $559 40.798023231748878 $557 $602 forward 7 unknown #
vertex $-1 $596 $603 #
straight-curve $-1 296.64238452522494 40 -45.798023231748914 0 -1 -2.8421709430404009e-015 I I #
vertex $-1 $558 $604 #
straight-curve $-1 296.64238452522494 40 -5 0 -1 0 I I #
plane-surface $-1 296.64238452522494 40 -5 1 0 0 0 0 -1 forward_v I I I I #
coedge $-1 $515 $568 $511 $565 forward $570 $-1 #
edge $-1 $566 -6.2845775246832435e-016 $519 135.57040578501062 $564 $605 forward 7 unknown #
vertex $-1 $565 $606 #
straight-curve $-1 232.69884504191339 20 -5.0000000000000009 0 1 0 I I #
coedge $-1 $564 $515 $514 $569 forward $570 $-1 #
edge $-1 $517 0 $566 172.2467424097714 $568 $607 forward 7 unknown #
loop $-1 $-1 $515 $527 #
straight-curve $-1 60.452102632141973 20 -5.0000000000000142 0.62323584787451003 0 -0.78203393655527542 I I #
point $-1 60.452102632141973 20 -5 #
point $-1 136.90036047695654 20 -100.92697889420977 #
plane-surface $-1 0 20 0 0 1 0 1 0 0 forward_v I I I I #
coedge $-1 $531 $530 $608 $609 reversed $532 $-1 #
edge $-1 $610 1.4903791310159531e-026 $533 20 $535 $611 forward 7 unknown #
face $-1 $580 $532 $3 $-1 $612 forward single #
point $-1 144.90080209643665 40 -99.991617903291242 #
coedge $-1 $536 $535 $613 $614 reversed $537 $-1 #
face $-1 $615 $537 $3 $-1 $616 forward single #
coedge $-1 $613 $608 $539 $582 forward $617 $-1 #
edge $-1 $585 1.2552318647699701e-015 $583 58.179015033143671 $581 $618 forward 7 unknown #
vertex $-1 $614 $619 #
straight-curve $-1 277.40071932651557 20 -49.646728740367479 8.5265128291212019e-015 1 -1.4210854715202005e-015 I I #
vertex $-1 $609 $620 #
straight-curve $-1 236.2343813277889 40 -8.5355331119095297 0 -1 0 I I #
plane-surface $-1 236.2343813277889 40 -8.5355331119095226 -0.70663271980520126 0 -0.70758052495861123 0.70758052495861123 0 -0.70663271980520126 forward_v I I I I #
coedge $-1 $546 $545 $621 $622 forward $547 $-1 #
face $-1 $542 $547 $3 $-1 $623 forward single #
coedge $-1 $557 $621 $549 $591 forward $601 $-1 #
edge $-1 $592 0 $561 56.872466907303277 $590 $624 forward 7 unknown #
vertex $-1 $622 $625 #
straight-curve $-1 239.76991761792166 20 -5 0 1 0 I I #
plane-surface $-1 2.8391908026579364 40 -5 0 0 1 1 0 0 forward_v I I I I #
coedge $-1 $621 $557 $553 $596 forward $601 $-1 #
edge $-1 $559 0 $597 0.027981391507950405 $595 $626 forward 7 unknown #
vertex $-1 $622 $627 #
straight-curve $-1 283.22491465064587 20 -48.396789000314861 -1.4210854715202004e-014 1 -3.1974423109204509e-015 I I #
face $-1 $551 $601 $3 $-1 $628 forward single #
cone-surface $-1 382.80237647683805 40 -526.58015150017263 0 1 0 488.44139779037681 0 0 1 I I 0 1 488.44139779037681 forward I I I I #
loop $-1 $-1 $590 $599 #
straight-curve $-1 296.64238452522494 20 -5 0 0 -1 I I #
point $-1 296.64238452522494 20 -45.798023231748878 #
point $-1 296.64238452522494 20 -5 #
straight-curve $-1 232.69884504191339 20 -5.0000000000000009 -0.70663271980520126 0 -0.70758052495861123 I I #
point $-1 232.69884504191339 20 -5 #
straight-curve $-1 60.452102632141973 20 -5 1 0 0 I I #
coedge $-1 $581 $613 $575 $609 forward $617 $-1 #
edge $-1 $610 0 $585 129.2516045027341 $608 $629 forward 7 unknown #
vertex $-1 $609 $630 #
straight-curve $-1 144.90096849883597 20 -99.991451277696683 -3.4106051316484808e-014 1 -2.5579538487363607e-014 I I #
plane-surface $-1 136.48069036116945 40 -108.42302351877554 0.70758052495861135 0 -0.70663271980520126 0.70663271980520115 0 0.70758052495861123 forward_v I I I I #
coedge $-1 $608 $581 $579 $614 forward $617 $-1 #
edge $-1 $583 0 $610 0.29122029738758026 $613 $631 forward 7 unknown #
face $-1 $334 $617 $3 $-1 $632 forward single #
cone-surface $-1 382.80237647683805 40 -526.58015150017263 0 1 0 488.44139779037681 0 0 1 I I 0 1 488.44139779037681 forward I I I I #
loop $-1 $-1 $581 $615 #
straight-curve $-1 236.2343813277889 20 -8.5355331119095244 0.70758052495861123 0 -0.70663271980520126 I I #
point $-1 277.40071932651563 20 -49.646728740367529 #
point $-1 236.2343813277889 20 -8.5355331119095261 #
coedge $-1 $590 $595 $588 $622 reversed $601 $-1 #
edge $-1 $592 0 $597 61.413500654594841 $621 $633 forward 7 unknown #
plane-surface $-1 283.22491465064587 40 -48.396789000314861 0.70663271980520148 0 0.70758052495861101 -0.70758052495861101 0 0.70663271980520148 forward_v I I I I #
straight-curve $-1 239.76991761792166 20 -5 1 0 0 I I #
point $-1 239.76991761792166 20 -5 #
ellipse-curve $-1 382.80237647686181 20 -526.58015150029826 0 -1 0 -86.159991951636869 0 480.7821282685494 1 I I #
point $-1 283.22491465064587 20 -48.396789000314882 #
plane-surface $-1 0 20 0 0 1 0 1 0 0 forward_v I I I I #
straight-curve $-1 144.90096849883571 20 -99.991451277696925 0.70663271980520126 0 0.70758052495861123 I I #
point $-1 144.90096849883571 20 -99.991451277696925 #
ellipse-curve $-1 382.80237647683816 20 -526.58015150017377 0 -1 0 -105.40165715032254 0 476.93342275980626 1 I I #
plane-surface $-1 0 20 0 0 1 0 1 0 0 forward_v I I I I #
straight-curve $-1 239.76991761792166 20 -5 0.70758052495861101 0 -0.70663271980520159 I I #
End-of-ACIS-data 