600 0 1 0           
111 GICL Pro/E ACIS Translator - Source: f:/data5/repository/PTC/V20/web_demos/models/local_mill/work_.prt.33 - 6 0 13 ACIS 6.0.3 NT 24 Thu Apr 04 13:12:40 2002 
1 9.9999999999999995e-007 1e-010 
body $-1 $1 $-1 $2 #
lump $-1 $-1 $3 $0 #
transform $-1 1 0 0 0 1 0 0 0 1 0 0 0 25.399999999999999 no_rotate no_reflect no_shear #
shell $-1 $-1 $-1 $4 $-1 $1 #
face $-1 $5 $6 $3 $-1 $7 reversed single #
face $-1 $8 $9 $3 $-1 $10 forward single #
loop $-1 $-1 $11 $4 #
plane-surface $-1 0 0 0 0 1 0 1 0 0 forward_v I I I I #
face $-1 $12 $13 $3 $-1 $14 forward single #
loop $-1 $-1 $15 $5 #
plane-surface $-1 3 0 -10.771243444677046 -0.34182694011508796 0 -0.93976291851272586 -0.93976291851272575 0 0.34182694011508791 forward_v I I I I #
coedge $-1 $16 $17 $18 $19 reversed $6 $-1 #
face $-1 $20 $21 $3 $-1 $22 forward single #
loop $-1 $-1 $23 $8 #
plane-surface $-1 -4.6188021535170041 0 -8 -0.86602540378443871 0 0.5 0.5 0 0.86602540378443871 forward_v I I I I #
coedge $-1 $24 $18 $25 $26 forward $9 $-1 #
coedge $-1 $27 $11 $28 $29 reversed $6 $-1 #
coedge $-1 $11 $30 $31 $32 reversed $6 $-1 #
coedge $-1 $15 $33 $11 $19 forward $9 $-1 #
edge $-1 $34 0 $35 8.107153414368133 $11 $36 forward 7 unknown #
face $-1 $37 $38 $3 $-1 $39 forward single #
loop $-1 $-1 $40 $12 #
plane-surface $-1 0 0 0 0 0 1 1 0 0 forward_v I I I I #
coedge $-1 $41 $42 $43 $44 forward $13 $-1 #
coedge $-1 $33 $15 $45 $46 reversed $9 $-1 #
coedge $-1 $31 $41 $15 $26 reversed $13 $-1 #
edge $-1 $35 0 $47 4 $15 $48 forward 7 unknown #
coedge $-1 $49 $16 $50 $51 reversed $6 $-1 #
coedge $-1 $52 $53 $16 $29 forward $54 $-1 #
edge $-1 $55 1.7763568394002506e-016 $34 0.848062078981481 $16 $56 forward 7 unknown #
coedge $-1 $17 $57 $58 $59 reversed $6 $-1 #
coedge $-1 $60 $25 $17 $32 forward $13 $-1 #
edge $-1 $35 0 $61 5.1776043070340103 $17 $62 forward 7 unknown #
coedge $-1 $18 $24 $52 $63 reversed $9 $-1 #
vertex $-1 $29 $64 #
vertex $-1 $32 $65 #
straight-curve $-1 3 0 -10.771243444677046 -0.93976291851272575 0 0.34182694011508791 I I #
face $-1 $66 $67 $3 $-1 $68 forward single #
loop $-1 $-1 $69 $20 #
plane-surface $-1 0 4 0 0 1 0 1 0 0 forward_v I I I I #
coedge $-1 $43 $70 $71 $72 reversed $21 $-1 #
coedge $-1 $25 $23 $69 $73 reversed $13 $-1 #
coedge $-1 $23 $60 $74 $75 reversed $13 $-1 #
coedge $-1 $76 $40 $23 $44 reversed $21 $-1 #
edge $-1 $77 0 $78 2.5 $23 $79 forward 7 unknown #
coedge $-1 $69 $80 $24 $46 forward $38 $-1 #
edge $-1 $81 0 $47 8.107153414368133 $45 $82 forward 7 unknown #
vertex $-1 $46 $83 #
straight-curve $-1 -4.6188021535170058 0 -7.9999999999999991 0 1 0 I I #
coedge $-1 $84 $27 $85 $86 reversed $6 $-1 #
coedge $-1 $87 $88 $27 $51 forward $89 $-1 #
edge $-1 $90 0 $55 1.5000000000000036 $27 $91 forward 7 unknown #
coedge $-1 $92 $28 $33 $63 forward $54 $-1 #
coedge $-1 $28 $93 $87 $94 reversed $54 $-1 #
loop $-1 $-1 $28 $66 #
vertex $-1 $51 $95 #
ellipse-curve $-1 18 0 -24 0 -1 0 0 0 20 1 I I #
coedge $-1 $30 $96 $97 $98 reversed $6 $-1 #
coedge $-1 $99 $100 $30 $59 forward $101 $-1 #
edge $-1 $61 1.030512597783318e-016 $102 1.500000000000002 $30 $103 forward 7 unknown #
coedge $-1 $42 $31 $100 $104 forward $13 $-1 #
vertex $-1 $32 $105 #
straight-curve $-1 -4.6188021535170041 0 -8 0.49999999999999989 0 0.8660254037844386 I I #
edge $-1 $34 7.8886090522101181e-030 $81 4 $33 $106 forward 7 unknown #
point $-1 3 0 -10.771243444677046 #
point $-1 -4.6188021535170041 0 -8 #
face $-1 $107 $54 $3 $-1 $108 reversed single #
loop $-1 $-1 $109 $37 #
plane-surface $-1 18 0 0 1 0 0 0 0 -1 forward_v I I I I #
coedge $-1 $71 $45 $41 $73 forward $38 $-1 #
coedge $-1 $40 $110 $111 $112 forward $21 $-1 #
coedge $-1 $113 $69 $40 $72 forward $38 $-1 #
edge $-1 $78 0 $114 18 $71 $115 forward 7 unknown #
edge $-1 $47 0 $78 9.2376043070340117 $69 $116 forward 7 unknown #
coedge $-1 $117 $118 $42 $75 forward $119 $-1 #
edge $-1 $77 0 $120 4.0600000000000023 $42 $121 forward 7 unknown #
coedge $-1 $122 $43 $123 $124 reversed $21 $-1 #
vertex $-1 $75 $125 #
vertex $-1 $72 $126 #
straight-curve $-1 1.7763568394002505e-015 1.5 0 0 1 0 I I #
coedge $-1 $45 $113 $92 $127 forward $38 $-1 #
vertex $-1 $46 $128 #
straight-curve $-1 3 4 -10.771243444677046 -0.93976291851272575 0 0.34182694011508791 I I #
point $-1 -4.6188021535170041 4 -8 #
coedge $-1 $96 $49 $122 $129 forward $6 $-1 #
coedge $-1 $130 $131 $49 $86 forward $132 $-1 #
edge $-1 $133 0 $90 3.1415926535897931 $49 $134 forward 7 unknown #
coedge $-1 $135 $50 $53 $94 forward $89 $-1 #
coedge $-1 $50 $135 $130 $136 reversed $89 $-1 #
loop $-1 $-1 $135 $107 #
vertex $-1 $86 $137 #
straight-curve $-1 19.5 0 -4 -1 0 0 I I #
coedge $-1 $93 $52 $80 $127 reversed $54 $-1 #
coedge $-1 $53 $92 $109 $138 reversed $54 $-1 #
edge $-1 $55 0 $139 1.5 $53 $140 forward 7 unknown #
point $-1 17.999999999999996 0 -4 #
coedge $-1 $57 $84 $141 $142 reversed $6 $-1 #
coedge $-1 $143 $144 $57 $98 forward $145 $-1 #
edge $-1 $102 0 $146 3.1415926535897927 $57 $147 forward 7 unknown #
coedge $-1 $148 $58 $144 $149 forward $101 $-1 #
coedge $-1 $58 $148 $60 $104 reversed $101 $-1 #
loop $-1 $-1 $58 $150 #
vertex $-1 $59 $151 #
straight-curve $-1 -2.0299999999999985 0 -3.5160631393648223 -0.86602540378443871 0 0.49999999999999994 I I #
edge $-1 $61 0 $120 1.5 $60 $152 forward 7 unknown #
point $-1 -2.0299999999999994 0 -3.5160631393648236 #
straight-curve $-1 2.9999999999999982 0 -10.771243444677051 4.4408920985006262e-016 1 1.3322676295501878e-015 I I #
face $-1 $153 $89 $3 $-1 $154 forward single #
cone-surface $-1 18 0 -24 0 1 0 20 0 0 1 I I 0 1 20 forward I I I I #
coedge $-1 $155 $156 $93 $138 forward $67 $-1 #
coedge $-1 $70 $157 $158 $159 reversed $21 $-1 #
coedge $-1 $156 $155 $70 $112 reversed $67 $-1 #
edge $-1 $160 0 $114 2.5 $70 $161 forward 7 unknown #
coedge $-1 $80 $71 $155 $162 forward $38 $-1 #
vertex $-1 $162 $163 #
straight-curve $-1 0 4 0 1 0 0 I I #
straight-curve $-1 -4.6188021535170041 4 -8 0.5 0 0.86602540378443871 I I #
coedge $-1 $164 $74 $148 $165 forward $119 $-1 #
coedge $-1 $74 $164 $166 $167 forward $119 $-1 #
loop $-1 $-1 $117 $168 #
vertex $-1 $75 $169 #
straight-curve $-1 1.7763568394002505e-015 1.5 0 -0.5 0 -0.8660254037844386 I I #
coedge $-1 $157 $76 $84 $129 reversed $21 $-1 #
coedge $-1 $166 $141 $76 $124 forward $170 $-1 #
edge $-1 $171 0 $77 1.5 $76 $172 forward 7 unknown #
point $-1 1.7763568394002505e-015 1.5 0 #
point $-1 0 4 0 #
edge $-1 $173 0 $81 0.84806207898148023 $80 $174 forward 7 unknown #
point $-1 3 4 -10.771243444677046 #
edge $-1 $133 0 $171 19.5 $84 $175 forward 7 unknown #
coedge $-1 $176 $85 $88 $136 forward $132 $-1 #
coedge $-1 $85 $176 $157 $177 reversed $132 $-1 #
loop $-1 $-1 $130 $178 #
vertex $-1 $129 $179 #
ellipse-curve $-1 19.5 0 -2 0 1 0 0 0 2 1 I I #
coedge $-1 $88 $87 $180 $181 reversed $89 $-1 #
edge $-1 $90 0 $182 1.5 $88 $183 forward 7 unknown #
point $-1 19.5 0 -4 #
edge $-1 $139 0 $173 2.5 $109 $184 forward 7 unknown #
vertex $-1 $185 $186 #
straight-curve $-1 17.999999999999996 0 -4 0 1 0 I I #
coedge $-1 $123 $187 $96 $142 forward $170 $-1 #
edge $-1 $146 5.152562988916585e-017 $171 1.4999999999999987 $96 $188 forward 7 unknown #
coedge $-1 $189 $97 $187 $190 forward $145 $-1 #
coedge $-1 $97 $189 $99 $149 reversed $145 $-1 #
loop $-1 $-1 $143 $191 #
vertex $-1 $98 $192 #
ellipse-curve $-1 -2.3140381056766568 0 -1.0080315696824111 0 1 0 -1.015000000000001 0 -1.7580315696824098 1 I I #
coedge $-1 $100 $99 $117 $165 reversed $101 $-1 #
edge $-1 $102 1.3147681753683529e-031 $193 1.5 $99 $194 forward 7 unknown #
face $-1 $191 $101 $3 $-1 $195 forward single #
point $-1 -3.3290381056766578 0 -2.766063139364821 #
straight-curve $-1 -2.0299999999999989 0 -3.5160631393648223 0 1 0 I I #
face $-1 $178 $196 $3 $-1 $197 forward single #
plane-surface $-1 19.5 0 -4 0 0 -1 -1 0 0 forward_v I I I I #
coedge $-1 $111 $109 $113 $162 reversed $67 $-1 #
coedge $-1 $109 $111 $198 $185 forward $67 $-1 #
coedge $-1 $110 $122 $131 $177 forward $21 $-1 #
coedge $-1 $199 $198 $110 $159 forward $196 $-1 #
edge $-1 $160 0 $200 1.5 $110 $201 forward 7 unknown #
vertex $-1 $112 $202 #
straight-curve $-1 18 1.5 0 0 1 0 I I #
edge $-1 $114 0 $173 4 $113 $203 forward 7 unknown #
point $-1 18 4 0 #
coedge $-1 $118 $117 $189 $204 forward $119 $-1 #
edge $-1 $120 2.2204460492503136e-016 $193 1.5000000000000013 $117 $205 forward 7 unknown #
coedge $-1 $187 $123 $118 $167 reversed $170 $-1 #
edge $-1 $206 -2.9748336286674902e-017 $77 1.5000000000000007 $118 $207 forward 7 unknown #
face $-1 $150 $119 $3 $-1 $208 forward single #
point $-1 -2.0299999999999989 1.5 -3.5160631393648218 #
loop $-1 $-1 $166 $209 #
vertex $-1 $142 $210 #
straight-curve $-1 0 0 0 0 1 0 I I #
vertex $-1 $127 $211 #
ellipse-curve $-1 18.000000000000007 4 -24.000000000000014 0 -1 0 -7.1054273576010019e-015 0 20.000000000000014 1 I I #
straight-curve $-1 19.5 0 0 -1 0 0 I I #
coedge $-1 $131 $130 $199 $212 reversed $132 $-1 #
edge $-1 $133 0 $200 1.5 $157 $213 forward 7 unknown #
face $-1 $209 $132 $3 $-1 $214 forward single #
point $-1 19.5 0 0 #
coedge $-1 $198 $199 $135 $181 forward $196 $-1 #
edge $-1 $182 0 $139 1.5 $180 $215 forward 7 unknown #
vertex $-1 $181 $216 #
straight-curve $-1 19.5 0 -4 0 1 0 I I #
straight-curve $-1 18 1.5 -4 0 1 0 I I #
edge $-1 $160 0 $139 4 $156 $217 forward 7 unknown #
point $-1 18 1.5 -4 #
coedge $-1 $141 $166 $143 $190 reversed $170 $-1 #
straight-curve $-1 -1.2990381056766569 0 0.74999999999999933 0.86602540378443871 0 -0.5 I I #
coedge $-1 $144 $143 $164 $204 reversed $145 $-1 #
edge $-1 $146 1.5777218104420236e-030 $206 1.5 $143 $218 forward 7 unknown #
face $-1 $-1 $145 $3 $-1 $219 forward single #
point $-1 -1.2990381056766565 0 0.75 #
vertex $-1 $204 $220 #
straight-curve $-1 -3.3290381056766583 0 -2.7660631393648214 5.9211894646675012e-016 1 -2.9605947323337506e-016 I I #
plane-surface $-1 -2.0299999999999989 0 -3.5160631393648223 -0.50000000000000011 0 -0.8660254037844386 -0.86602540378443837 0 0.5 forward_v I I I I #
loop $-1 $-1 $158 $153 #
plane-surface $-1 0 1.5 0 0 1 0 1 0 0 forward_v I I I I #
coedge $-1 $158 $180 $156 $185 reversed $196 $-1 #
coedge $-1 $180 $158 $176 $212 forward $196 $-1 #
vertex $-1 $159 $221 #
straight-curve $-1 18 1.5 0 1 0 0 I I #
point $-1 18 1.5 0 #
straight-curve $-1 18 4 0 0 0 -1 I I #
edge $-1 $193 0 $206 3.1415926535897927 $164 $222 forward 7 unknown #
straight-curve $-1 -2.0299999999999989 1.5 -3.5160631393648223 -0.8660254037844386 0 0.50000000000000011 I I #
vertex $-1 $167 $223 #
straight-curve $-1 -1.2990381056766571 1.5 0.74999999999999956 0.86602540378443871 0 -0.5 I I #
plane-surface $-1 0 1.5 0 0 1 0 1 0 0 forward_v I I I I #
face $-1 $168 $170 $3 $-1 $224 forward single #
point $-1 0 0 0 #
point $-1 18 4 -4 #
edge $-1 $200 0 $182 3.1415926535897931 $199 $225 forward 7 unknown #
straight-curve $-1 19.5 0 0 0 1 0 I I #
cone-surface $-1 19.5 0 -2 0 1 0 2 0 0 1 I I 0 1 2 forward I I I I #
straight-curve $-1 19.5 1.5 -4 -1 0 0 I I #
point $-1 19.5 1.5 -4 #
straight-curve $-1 18 1.5 0 0 0 -1 I I #
straight-curve $-1 -1.2990381056766582 0 0.75 8.8817841970012523e-016 1 -4.4408920985006262e-016 I I #
cone-surface $-1 -2.3140381056766568 0 -1.0080315696824111 0 1 0 2.0299999999999998 0 0 1 I I 0 1 2.0299999999999998 forward I I I I #
point $-1 -3.3290381056766574 1.5 -2.766063139364821 #
point $-1 19.5 1.5 0 #
ellipse-curve $-1 -2.3140381056766568 1.5 -1.0080315696824109 0 1 0 -1.0150000000000006 0 -1.75803156968241 1 I I #
point $-1 -1.2990381056766569 1.5 0.75 #
plane-surface $-1 -1.299038105676658 0 0.75 0.5 0 0.86602540378443871 0.86602540378443871 0 -0.5 forward_v I I I I #
ellipse-curve $-1 19.5 1.5 -2 0 1 0 0 0 2 1 I I #
End-of-ACIS-data 