  0
SECTION
  2
HEADER
  9
$ACADVER
  1
AC1009
  9
$INSBASE
 10
0.0
 20
0.0
 30
0.0
  9
$EXTMIN
 10
0.0
 20
0.0
 30
0.0
  9
$EXTMAX
 10
3.0
 20
3.0
 30
3.0
  9
$LIMMIN
 10
0.0
 20
0.0
  9
$LIMMAX
 10
12.0
 20
9.0
  9
$ORTHOMODE
 70
     0
  9
$REGENMODE
 70
     1
  9
$FILLMODE
 70
     1
  9
$QTEXTMODE
 70
     0
  9
$MIRRTEXT
 70
     1
  9
$DRAGMODE
 70
     2
  9
$LTSCALE
 40
1.0
  9
$OSMODE
 70
     0
  9
$ATTMODE
 70
     1
  9
$TEXTSIZE
 40
0.2
  9
$TRACEWID
 40
0.05
  9
$TEXTSTYLE
  7
STANDARD
  9
$CLAYER
  8
0
  9
$CELTYPE
  6
BYLAYER
  9
$CECOLOR
 62
   256
  9
$DIMSCALE
 40
1.0
  9
$DIMASZ
 40
0.18
  9
$DIMEXO
 40
0.0625
  9
$DIMDLI
 40
0.38
  9
$DIMRND
 40
0.0
  9
$DIMDLE
 40
0.0
  9
$DIMEXE
 40
0.18
  9
$DIMTP
 40
0.0
  9
$DIMTM
 40
0.0
  9
$DIMTXT
 40
0.18
  9
$DIMCEN
 40
0.09
  9
$DIMTSZ
 40
0.0
  9
$DIMTOL
 70
     0
  9
$DIMLIM
 70
     0
  9
$DIMTIH
 70
     1
  9
$DIMTOH
 70
     1
  9
$DIMSE1
 70
     0
  9
$DIMSE2
 70
     0
  9
$DIMTAD
 70
     0
  9
$DIMZIN
 70
     0
  9
$DIMBLK
  1

  9
$DIMASO
 70
     1
  9
$DIMSHO
 70
     1
  9
$DIMPOST
  1

  9
$DIMAPOST
  1

  9
$DIMALT
 70
     0
  9
$DIMALTD
 70
     2
  9
$DIMALTF
 40
25.4
  9
$DIMLFAC
 40
1.0
  9
$DIMTOFL
 70
     0
  9
$DIMTVP
 40
0.0
  9
$DIMTIX
 70
     0
  9
$DIMSOXD
 70
     0
  9
$DIMSAH
 70
     0
  9
$DIMBLK1
  1

  9
$DIMBLK2
  1

  9
$DIMSTYLE
  2
*UNNAMED
  9
$DIMCLRD
 70
     0
  9
$DIMCLRE
 70
     0
  9
$DIMCLRT
 70
     0
  9
$DIMTFAC
 40
1.0
  9
$DIMGAP
 40
0.09
  9
$LUNITS
 70
     2
  9
$LUPREC
 70
     4
  9
$SKETCHINC
 40
0.1
  9
$FILLETRAD
 40
0.0
  9
$AUNITS
 70
     0
  9
$AUPREC
 70
     0
  9
$MENU
  1
acad
  9
$ELEVATION
 40
0.0
  9
$PELEVATION
 40
0.0
  9
$THICKNESS
 40
0.0
  9
$LIMCHECK
 70
     0
  9
$BLIPMODE
 70
     1
  9
$CHAMFERA
 40
0.0
  9
$CHAMFERB
 40
0.0
  9
$SKPOLY
 70
     0
  9
$TDCREATE
 40
2448820.942026805
  9
$TDUPDATE
 40
2448820.945770277
  9
$TDINDWG
 40
0.0037434722
  9
$TDUSRTIMER
 40
0.0037434722
  9
$USRTIMER
 70
     1
  9
$ANGBASE
 50
0.0
  9
$ANGDIR
 70
     0
  9
$PDMODE
 70
     0
  9
$PDSIZE
 40
0.0
  9
$PLINEWID
 40
0.0
  9
$COORDS
 70
     0
  9
$SPLFRAME
 70
     0
  9
$SPLINETYPE
 70
     6
  9
$SPLINESEGS
 70
     8
  9
$ATTDIA
 70
     0
  9
$ATTREQ
 70
     1
  9
$HANDLING
 70
     1
  9
$HANDSEED
  5
1C2
  9
$SURFTAB1
 70
     6
  9
$SURFTAB2
 70
     6
  9
$SURFTYPE
 70
     6
  9
$SURFU
 70
     6
  9
$SURFV
 70
     6
  9
$UCSNAME
  2

  9
$UCSORG
 10
0.0
 20
0.0
 30
0.0
  9
$UCSXDIR
 10
1.0
 20
0.0
 30
0.0
  9
$UCSYDIR
 10
0.0
 20
1.0
 30
0.0
  9
$PUCSNAME
  2

  9
$PUCSORG
 10
0.0
 20
0.0
 30
0.0
  9
$PUCSXDIR
 10
1.0
 20
0.0
 30
0.0
  9
$PUCSYDIR
 10
0.0
 20
1.0
 30
0.0
  9
$USERI1
 70
     0
  9
$USERI2
 70
     0
  9
$USERI3
 70
     0
  9
$USERI4
 70
     0
  9
$USERI5
 70
     0
  9
$USERR1
 40
0.0
  9
$USERR2
 40
0.0
  9
$USERR3
 40
0.0
  9
$USERR4
 40
0.0
  9
$USERR5
 40
0.0
  9
$WORLDVIEW
 70
     1
  9
$SHADEDGE
 70
     3
  9
$SHADEDIF
 70
    70
  9
$TILEMODE
 70
     1
  9
$MAXACTVP
 70
    16
  9
$PINSBASE
 10
0.0
 20
0.0
 30
0.0
  9
$PLIMCHECK
 70
     0
  9
$PEXTMIN
 10
1.000000E+20
 20
1.000000E+20
 30
1.000000E+20
  9
$PEXTMAX
 10
-1.000000E+20
 20
-1.000000E+20
 30
-1.000000E+20
  9
$PLIMMIN
 10
0.0
 20
0.0
  9
$PLIMMAX
 10
12.0
 20
9.0
  9
$UNITMODE
 70
     0
  9
$VISRETAIN
 70
     0
  9
$PLINEGEN
 70
     0
  9
$PSLTSCALE
 70
     0
  9
$TREEDEPTH
 70
  3020
  9
$DWGCODEPAGE
  3
undefined
  0
ENDSEC
  0
SECTION
  2
TABLES
  0
TABLE
  2
VPORT
 70
     2
  0
VPORT
  2
*ACTIVE
 70
     0
 10
0.0
 20
0.0
 11
1.0
 21
1.0
 12
1.785329
 22
0.0
 13
0.0
 23
0.0
 14
1.0
 24
1.0
 15
0.0
 25
0.0
 16
1.0
 26
1.0
 36
1.0
 17
0.0
 27
0.0
 37
0.0
 40
4.898979
 41
1.594883
 42
50.0
 43
0.0
 44
0.0
 50
0.0
 51
0.0
 71
     0
 72
   100
 73
     1
 74
     1
 75
     0
 76
     0
 77
     0
 78
     0
  0
ENDTAB
  0
TABLE
  2
LTYPE
 70
     1
  0
LTYPE
  2
CONTINUOUS
 70
    64
  3
Solid line
 72
    65
 73
     0
 40
0.0
  0
ENDTAB
  0
TABLE
  2
LAYER
 70
     2
  0
LAYER
  2
0
 70
    64
 62
     7
  6
CONTINUOUS
  0
LAYER
  2
AME_FRZ
 70
    65
 62
     7
  6
CONTINUOUS
  0
ENDTAB
  0
TABLE
  2
STYLE
 70
     1
  0
STYLE
  2
STANDARD
 70
     0
 40
0.0
 41
1.0
 50
0.0
 71
     0
 42
0.2
  3
txt
  4

  0
ENDTAB
  0
TABLE
  2
VIEW
 70
     0
  0
ENDTAB
  0
TABLE
  2
UCS
 70
     0
  0
ENDTAB
  0
TABLE
  2
APPID
 70
     2
  0
APPID
  2
ACAD
 70
    64
  0
APPID
  2
AME_SOL
 70
    64
  0
ENDTAB
  0
TABLE
  2
DIMSTYLE
 70
     0
  0
ENDTAB
  0
ENDSEC
  0
SECTION
  2
BLOCKS
  0
BLOCK
  8
0
  5
1
  2
AME_NIL
 70
    64
 10
0.0
 20
0.0
 30
0.0
  1
AME_NIL
  3
AME_NIL
  0
ENDBLK
  8
0
  5
2
  0
BLOCK
  8
0
  5
4
  2
AME_SOL
 70
    64
 10
0.0
 20
0.0
 30
0.0
  1
AME_SOL
  3
AME_SOL
  0
ENDBLK
  8
0
  5
5
  0
BLOCK
  8
0
  5
7
  2
*U2
 70
    65
 10
0.0
 20
0.0
 30
0.0
  1
*U
  3
*U
  0
LINE
  8
0
 62
     0
  5
8
 10
1.0
 20
3.0
 30
0.0
 11
1.0
 21
3.0
 31
1.0
1001
AME_SOL
1070
     1
1071
       18
  0
LINE
  8
0
 62
     0
  5
9
 10
1.0
 20
3.0
 30
1.0
 11
1.0
 21
0.0
 31
1.0
1001
AME_SOL
1070
     1
1071
       17
  0
LINE
  8
0
 62
     0
  5
A
 10
0.0
 20
3.0
 30
1.0
 11
1.0
 21
3.0
 31
1.0
1001
AME_SOL
1070
     1
1071
       16
  0
LINE
  8
0
 62
     0
  5
B
 10
0.0
 20
3.0
 30
0.0
 11
0.0
 21
3.0
 31
1.0
1001
AME_SOL
1070
     1
1071
       15
  0
LINE
  8
0
 62
     0
  5
C
 10
0.0
 20
3.0
 30
1.0
 11
0.0
 21
0.0
 31
1.0
1001
AME_SOL
1070
     1
1071
       14
  0
LINE
  8
0
 62
     0
  5
D
 10
0.0
 20
0.0
 30
0.0
 11
0.0
 21
0.0
 31
1.0
1001
AME_SOL
1070
     1
1071
       13
  0
LINE
  8
0
 62
     0
  5
E
 10
1.0
 20
0.0
 30
1.0
 11
1.0
 21
0.0
 31
0.0
1001
AME_SOL
1070
     1
1071
       12
  0
LINE
  8
0
 62
     0
  5
F
 10
0.0
 20
0.0
 30
1.0
 11
1.0
 21
0.0
 31
1.0
1001
AME_SOL
1070
     1
1071
       11
  0
LINE
  8
0
 62
     0
  5
10
 10
0.0
 20
0.0
 30
0.0
 11
1.0
 21
0.0
 31
0.0
1001
AME_SOL
1070
     1
1071
       10
  0
LINE
  8
0
 62
     0
  5
11
 10
0.0
 20
3.0
 30
0.0
 11
0.0
 21
0.0
 31
0.0
1001
AME_SOL
1070
     1
1071
        9
  0
LINE
  8
0
 62
     0
  5
12
 10
1.0
 20
0.0
 30
0.0
 11
1.0
 21
3.0
 31
0.0
1001
AME_SOL
1070
     1
1071
        8
  0
LINE
  8
0
 62
     0
  5
13
 10
1.0
 20
3.0
 30
0.0
 11
0.0
 21
3.0
 31
0.0
1001
AME_SOL
1070
     1
1071
        7
  0
ENDBLK
  8
0
  5
14
  0
BLOCK
  8
0
  5
18
  2
*U3
 70
    65
 10
0.0
 20
0.0
 30
0.0
  1
*U
  3
*U
  0
LINE
  8
0
 62
     0
  5
19
 10
2.0
 20
2.0
 30
0.0
 11
2.0
 21
2.0
 31
1.0
1001
AME_SOL
1070
     1
1071
       18
  0
LINE
  8
0
 62
     0
  5
1A
 10
2.0
 20
2.0
 30
1.0
 11
2.0
 21
0.0
 31
1.0
1001
AME_SOL
1070
     1
1071
       17
  0
LINE
  8
0
 62
     0
  5
1B
 10
0.0
 20
2.0
 30
1.0
 11
2.0
 21
2.0
 31
1.0
1001
AME_SOL
1070
     1
1071
       16
  0
LINE
  8
0
 62
     0
  5
1C
 10
0.0
 20
2.0
 30
0.0
 11
0.0
 21
2.0
 31
1.0
1001
AME_SOL
1070
     1
1071
       15
  0
LINE
  8
0
 62
     0
  5
1D
 10
0.0
 20
2.0
 30
1.0
 11
0.0
 21
0.0
 31
1.0
1001
AME_SOL
1070
     1
1071
       14
  0
LINE
  8
0
 62
     0
  5
1E
 10
0.0
 20
0.0
 30
0.0
 11
0.0
 21
0.0
 31
1.0
1001
AME_SOL
1070
     1
1071
       13
  0
LINE
  8
0
 62
     0
  5
1F
 10
2.0
 20
0.0
 30
1.0
 11
2.0
 21
0.0
 31
0.0
1001
AME_SOL
1070
     1
1071
       12
  0
LINE
  8
0
 62
     0
  5
20
 10
0.0
 20
0.0
 30
1.0
 11
2.0
 21
0.0
 31
1.0
1001
AME_SOL
1070
     1
1071
       11
  0
LINE
  8
0
 62
     0
  5
21
 10
0.0
 20
0.0
 30
0.0
 11
2.0
 21
0.0
 31
0.0
1001
AME_SOL
1070
     1
1071
       10
  0
LINE
  8
0
 62
     0
  5
22
 10
0.0
 20
2.0
 30
0.0
 11
0.0
 21
0.0
 31
0.0
1001
AME_SOL
1070
     1
1071
        9
  0
LINE
  8
0
 62
     0
  5
23
 10
2.0
 20
0.0
 30
0.0
 11
2.0
 21
2.0
 31
0.0
1001
AME_SOL
1070
     1
1071
        8
  0
LINE
  8
0
 62
     0
  5
24
 10
2.0
 20
2.0
 30
0.0
 11
0.0
 21
2.0
 31
0.0
1001
AME_SOL
1070
     1
1071
        7
  0
ENDBLK
  8
0
  5
25
  0
BLOCK
  8
0
  5
29
  2
*U4
 70
    65
 10
0.0
 20
0.0
 30
0.0
  1
*U
  3
*U
  0
LINE
  8
0
 62
     0
  5
2A
 10
3.0
 20
1.0
 30
0.0
 11
3.0
 21
1.0
 31
1.0
1001
AME_SOL
1070
     1
1071
       18
  0
LINE
  8
0
 62
     0
  5
2B
 10
3.0
 20
1.0
 30
1.0
 11
3.0
 21
0.0
 31
1.0
1001
AME_SOL
1070
     1
1071
       17
  0
LINE
  8
0
 62
     0
  5
2C
 10
0.0
 20
1.0
 30
1.0
 11
3.0
 21
1.0
 31
1.0
1001
AME_SOL
1070
     1
1071
       16
  0
LINE
  8
0
 62
     0
  5
2D
 10
0.0
 20
1.0
 30
0.0
 11
0.0
 21
1.0
 31
1.0
1001
AME_SOL
1070
     1
1071
       15
  0
LINE
  8
0
 62
     0
  5
2E
 10
0.0
 20
1.0
 30
1.0
 11
0.0
 21
0.0
 31
1.0
1001
AME_SOL
1070
     1
1071
       14
  0
LINE
  8
0
 62
     0
  5
2F
 10
0.0
 20
0.0
 30
0.0
 11
0.0
 21
0.0
 31
1.0
1001
AME_SOL
1070
     1
1071
       13
  0
LINE
  8
0
 62
     0
  5
30
 10
3.0
 20
0.0
 30
1.0
 11
3.0
 21
0.0
 31
0.0
1001
AME_SOL
1070
     1
1071
       12
  0
LINE
  8
0
 62
     0
  5
31
 10
0.0
 20
0.0
 30
1.0
 11
3.0
 21
0.0
 31
1.0
1001
AME_SOL
1070
     1
1071
       11
  0
LINE
  8
0
 62
     0
  5
32
 10
0.0
 20
0.0
 30
0.0
 11
3.0
 21
0.0
 31
0.0
1001
AME_SOL
1070
     1
1071
       10
  0
LINE
  8
0
 62
     0
  5
33
 10
0.0
 20
1.0
 30
0.0
 11
0.0
 21
0.0
 31
0.0
1001
AME_SOL
1070
     1
1071
        9
  0
LINE
  8
0
 62
     0
  5
34
 10
3.0
 20
0.0
 30
0.0
 11
3.0
 21
1.0
 31
0.0
1001
AME_SOL
1070
     1
1071
        8
  0
LINE
  8
0
 62
     0
  5
35
 10
3.0
 20
1.0
 30
0.0
 11
0.0
 21
1.0
 31
0.0
1001
AME_SOL
1070
     1
1071
        7
  0
ENDBLK
  8
0
  5
36
  0
BLOCK
  8
0
  5
3C
  2
*U5
 70
    65
 10
0.0
 20
0.0
 30
0.0
  1
*U
  3
*U
  0
LINE
  8
0
 62
     7
  5
3D
 10
1.0
 20
3.0
 30
0.0
 11
1.0
 21
3.0
 31
1.0
1001
AME_SOL
1070
     1
1071
       48
  0
LINE
  8
0
 62
     7
  5
3E
 10
1.0
 20
3.0
 30
1.0
 11
1.0
 21
2.0
 31
1.0
1001
AME_SOL
1070
     1
1071
       47
  0
LINE
  8
0
 62
     7
  5
3F
 10
0.0
 20
3.0
 30
1.0
 11
1.0
 21
3.0
 31
1.0
1001
AME_SOL
1070
     1
1071
       46
  0
LINE
  8
0
 62
     7
  5
40
 10
0.0
 20
3.0
 30
0.0
 11
0.0
 21
3.0
 31
1.0
1001
AME_SOL
1070
     1
1071
       45
  0
LINE
  8
0
 62
     7
  5
41
 10
0.0
 20
3.0
 30
1.0
 11
0.0
 21
2.0
 31
1.0
1001
AME_SOL
1070
     1
1071
       44
  0
LINE
  8
0
 62
     7
  5
42
 10
1.0
 20
0.0
 30
1.0
 11
1.0
 21
0.0
 31
0.0
1001
AME_SOL
1070
     1
1071
       43
  0
LINE
  8
0
 62
     7
  5
43
 10
0.0
 20
0.0
 30
0.0
 11
0.0
 21
0.0
 31
3.0
1001
AME_SOL
1070
     1
1071
       42
  0
LINE
  8
0
 62
     7
  5
44
 10
0.0
 20
0.0
 30
0.0
 11
1.0
 21
0.0
 31
0.0
1001
AME_SOL
1070
     1
1071
       41
  0
LINE
  8
0
 62
     7
  5
45
 10
1.0
 20
0.0
 30
0.0
 11
1.0
 21
3.0
 31
0.0
1001
AME_SOL
1070
     1
1071
       40
  0
LINE
  8
0
 62
     7
  5
46
 10
1.0
 20
3.0
 30
0.0
 11
0.0
 21
3.0
 31
0.0
1001
AME_SOL
1070
     1
1071
       39
  0
LINE
  8
0
 62
     7
  5
47
 10
0.0
 20
3.0
 30
0.0
 11
0.0
 21
0.0
 31
0.0
1001
AME_SOL
1070
     1
1071
       38
  0
LINE
  8
0
 62
     7
  5
48
 10
2.0
 20
0.0
 30
1.0
 11
2.0
 21
0.0
 31
2.0
1001
AME_SOL
1070
     1
1071
       37
  0
LINE
  8
0
 62
     7
  5
49
 10
1.0
 20
2.0
 30
1.0
 11
0.0
 21
2.0
 31
1.0
1001
AME_SOL
1070
     1
1071
       36
  0
LINE
  8
0
 62
     7
  5
4A
 10
0.0
 20
2.0
 30
2.0
 11
0.0
 21
2.0
 31
1.0
1001
AME_SOL
1070
     1
1071
       35
  0
LINE
  8
0
 62
     7
  5
4B
 10
2.0
 20
2.0
 30
1.0
 11
2.0
 21
2.0
 31
2.0
1001
AME_SOL
1070
     1
1071
       34
  0
LINE
  8
0
 62
     7
  5
4C
 10
0.0
 20
1.0
 30
2.0
 11
0.0
 21
2.0
 31
2.0
1001
AME_SOL
1070
     1
1071
       33
  0
LINE
  8
0
 62
     7
  5
4D
 10
2.0
 20
2.0
 30
2.0
 11
2.0
 21
1.0
 31
2.0
1001
AME_SOL
1070
     1
1071
       32
  0
LINE
  8
0
 62
     7
  5
4E
 10
0.0
 20
2.0
 30
2.0
 11
2.0
 21
2.0
 31
2.0
1001
AME_SOL
1070
     1
1071
       31
  0
LINE
  8
0
 62
     7
  5
4F
 10
1.0
 20
0.0
 30
1.0
 11
2.0
 21
0.0
 31
1.0
1001
AME_SOL
1070
     1
1071
       30
  0
LINE
  8
0
 62
     7
  5
50
 10
1.0
 20
0.0
 30
1.0
 11
1.0
 21
2.0
 31
1.0
1001
AME_SOL
1070
     1
1071
       29
  0
LINE
  8
0
 62
     7
  5
51
 10
2.0
 20
0.0
 30
1.0
 11
2.0
 21
2.0
 31
1.0
1001
AME_SOL
1070
     1
1071
       28
  0
LINE
  8
0
 62
     7
  5
52
 10
2.0
 20
2.0
 30
1.0
 11
1.0
 21
2.0
 31
1.0
1001
AME_SOL
1070
     1
1071
       27
  0
LINE
  8
0
 62
     7
  5
53
 10
3.0
 20
0.0
 30
2.0
 11
3.0
 21
0.0
 31
3.0
1001
AME_SOL
1070
     1
1071
       26
  0
LINE
  8
0
 62
     7
  5
54
 10
0.0
 20
1.0
 30
3.0
 11
0.0
 21
1.0
 31
2.0
1001
AME_SOL
1070
     1
1071
       25
  0
LINE
  8
0
 62
     7
  5
55
 10
2.0
 20
1.0
 30
2.0
 11
0.0
 21
1.0
 31
2.0
1001
AME_SOL
1070
     1
1071
       24
  0
LINE
  8
0
 62
     7
  5
56
 10
3.0
 20
1.0
 30
2.0
 11
3.0
 21
1.0
 31
3.0
1001
AME_SOL
1070
     1
1071
       23
  0
LINE
  8
0
 62
     7
  5
57
 10
0.0
 20
0.0
 30
3.0
 11
0.0
 21
1.0
 31
3.0
1001
AME_SOL
1070
     1
1071
       22
  0
LINE
  8
0
 62
     7
  5
58
 10
3.0
 20
1.0
 30
3.0
 11
3.0
 21
0.0
 31
3.0
1001
AME_SOL
1070
     1
1071
       21
  0
LINE
  8
0
 62
     7
  5
59
 10
0.0
 20
1.0
 30
3.0
 11
3.0
 21
1.0
 31
3.0
1001
AME_SOL
1070
     1
1071
       20
  0
LINE
  8
0
 62
     7
  5
5A
 10
3.0
 20
0.0
 30
3.0
 11
0.0
 21
0.0
 31
3.0
1001
AME_SOL
1070
     1
1071
       19
  0
LINE
  8
0
 62
     7
  5
5B
 10
2.0
 20
0.0
 30
2.0
 11
2.0
 21
1.0
 31
2.0
1001
AME_SOL
1070
     1
1071
       18
  0
LINE
  8
0
 62
     7
  5
5C
 10
3.0
 20
0.0
 30
2.0
 11
3.0
 21
1.0
 31
2.0
1001
AME_SOL
1070
     1
1071
       17
  0
LINE
  8
0
 62
     7
  5
5D
 10
3.0
 20
1.0
 30
2.0
 11
2.0
 21
1.0
 31
2.0
1001
AME_SOL
1070
     1
1071
       16
  0
LINE
  8
0
 62
     7
  5
5E
 10
2.0
 20
0.0
 30
2.0
 11
3.0
 21
0.0
 31
2.0
1001
AME_SOL
1070
     1
1071
       15
  0
ENDBLK
  8
0
  5
5F
  0
BLOCK
  8
0
  5
EE
  2
*U7
 70
    65
 10
0.0
 20
0.0
 30
0.0
  1
*U
  3
*U
  0
LINE
  8
0
 62
     0
  5
EF
 10
1.0
 20
1.0
 30
0.0
 11
1.0
 21
1.0
 31
3.0
1001
AME_SOL
1070
     1
1071
       18
  0
LINE
  8
0
 62
     0
  5
F0
 10
1.0
 20
1.0
 30
3.0
 11
1.0
 21
0.0
 31
3.0
1001
AME_SOL
1070
     1
1071
       17
  0
LINE
  8
0
 62
     0
  5
F1
 10
0.0
 20
1.0
 30
3.0
 11
1.0
 21
1.0
 31
3.0
1001
AME_SOL
1070
     1
1071
       16
  0
LINE
  8
0
 62
     0
  5
F2
 10
0.0
 20
1.0
 30
0.0
 11
0.0
 21
1.0
 31
3.0
1001
AME_SOL
1070
     1
1071
       15
  0
LINE
  8
0
 62
     0
  5
F3
 10
0.0
 20
1.0
 30
3.0
 11
0.0
 21
0.0
 31
3.0
1001
AME_SOL
1070
     1
1071
       14
  0
LINE
  8
0
 62
     0
  5
F4
 10
0.0
 20
0.0
 30
0.0
 11
0.0
 21
0.0
 31
3.0
1001
AME_SOL
1070
     1
1071
       13
  0
LINE
  8
0
 62
     0
  5
F5
 10
1.0
 20
0.0
 30
3.0
 11
1.0
 21
0.0
 31
0.0
1001
AME_SOL
1070
     1
1071
       12
  0
LINE
  8
0
 62
     0
  5
F6
 10
0.0
 20
0.0
 30
3.0
 11
1.0
 21
0.0
 31
3.0
1001
AME_SOL
1070
     1
1071
       11
  0
LINE
  8
0
 62
     0
  5
F7
 10
0.0
 20
0.0
 30
0.0
 11
1.0
 21
0.0
 31
0.0
1001
AME_SOL
1070
     1
1071
       10
  0
LINE
  8
0
 62
     0
  5
F8
 10
0.0
 20
1.0
 30
0.0
 11
0.0
 21
0.0
 31
0.0
1001
AME_SOL
1070
     1
1071
        9
  0
LINE
  8
0
 62
     0
  5
F9
 10
1.0
 20
0.0
 30
0.0
 11
1.0
 21
1.0
 31
0.0
1001
AME_SOL
1070
     1
1071
        8
  0
LINE
  8
0
 62
     0
  5
FA
 10
1.0
 20
1.0
 30
0.0
 11
0.0
 21
1.0
 31
0.0
1001
AME_SOL
1070
     1
1071
        7
  0
ENDBLK
  8
0
  5
FB
  0
BLOCK
  8
0
  5
100
  2
*U8
 70
    65
 10
0.0
 20
0.0
 30
0.0
  1
*U
  3
*U
  0
LINE
  8
0
 62
     7
  5
101
 10
1.0
 20
3.0
 30
0.0
 11
1.0
 21
3.0
 31
1.0
1001
AME_SOL
1070
     1
1071
       51
  0
LINE
  8
0
 62
     7
  5
102
 10
1.0
 20
3.0
 30
1.0
 11
1.0
 21
2.0
 31
1.0
1001
AME_SOL
1070
     1
1071
       50
  0
LINE
  8
0
 62
     7
  5
103
 10
0.0
 20
3.0
 30
1.0
 11
1.0
 21
3.0
 31
1.0
1001
AME_SOL
1070
     1
1071
       49
  0
LINE
  8
0
 62
     7
  5
104
 10
0.0
 20
3.0
 30
0.0
 11
0.0
 21
3.0
 31
1.0
1001
AME_SOL
1070
     1
1071
       48
  0
LINE
  8
0
 62
     7
  5
105
 10
0.0
 20
3.0
 30
1.0
 11
0.0
 21
2.0
 31
1.0
1001
AME_SOL
1070
     1
1071
       47
  0
LINE
  8
0
 62
     7
  5
106
 10
1.0
 20
0.0
 30
1.0
 11
1.0
 21
0.0
 31
0.0
1001
AME_SOL
1070
     1
1071
       46
  0
LINE
  8
0
 62
     7
  5
107
 10
0.0
 20
0.0
 30
0.0
 11
0.0
 21
0.0
 31
3.0
1001
AME_SOL
1070
     1
1071
       45
  0
LINE
  8
0
 62
     7
  5
108
 10
2.0
 20
0.0
 30
0.0
 11
3.0
 21
0.0
 31
0.0
1001
AME_SOL
1070
     1
1071
       44
  0
LINE
  8
0
 62
     7
  5
109
 10
0.0
 20
0.0
 30
0.0
 11
1.0
 21
0.0
 31
0.0
1001
AME_SOL
1070
     1
1071
       43
  0
LINE
  8
0
 62
     7
  5
10A
 10
1.0
 20
0.0
 30
0.0
 11
1.0
 21
3.0
 31
0.0
1001
AME_SOL
1070
     1
1071
       42
  0
LINE
  8
0
 62
     7
  5
10B
 10
1.0
 20
3.0
 30
0.0
 11
0.0
 21
3.0
 31
0.0
1001
AME_SOL
1070
     1
1071
       41
  0
LINE
  8
0
 62
     7
  5
10C
 10
0.0
 20
3.0
 30
0.0
 11
0.0
 21
0.0
 31
0.0
1001
AME_SOL
1070
     1
1071
       40
  0
LINE
  8
0
 62
     7
  5
10D
 10
1.0
 20
2.0
 30
1.0
 11
0.0
 21
2.0
 31
1.0
1001
AME_SOL
1070
     1
1071
       39
  0
LINE
  8
0
 62
     7
  5
10E
 10
0.0
 20
2.0
 30
2.0
 11
0.0
 21
2.0
 31
1.0
1001
AME_SOL
1070
     1
1071
       38
  0
LINE
  8
0
 62
     7
  5
10F
 10
2.0
 20
2.0
 30
1.0
 11
2.0
 21
2.0
 31
2.0
1001
AME_SOL
1070
     1
1071
       37
  0
LINE
  8
0
 62
     7
  5
110
 10
0.0
 20
1.0
 30
2.0
 11
0.0
 21
2.0
 31
2.0
1001
AME_SOL
1070
     1
1071
       36
  0
LINE
  8
0
 62
     7
  5
111
 10
2.0
 20
2.0
 30
2.0
 11
2.0
 21
1.0
 31
2.0
1001
AME_SOL
1070
     1
1071
       35
  0
LINE
  8
0
 62
     7
  5
112
 10
0.0
 20
2.0
 30
2.0
 11
2.0
 21
2.0
 31
2.0
1001
AME_SOL
1070
     1
1071
       34
  0
LINE
  8
0
 62
     7
  5
113
 10
1.0
 20
0.0
 30
1.0
 11
2.0
 21
0.0
 31
1.0
1001
AME_SOL
1070
     1
1071
       33
  0
LINE
  8
0
 62
     7
  5
114
 10
1.0
 20
0.0
 30
1.0
 11
1.0
 21
2.0
 31
1.0
1001
AME_SOL
1070
     1
1071
       32
  0
LINE
  8
0
 62
     7
  5
115
 10
2.0
 20
1.0
 30
1.0
 11
2.0
 21
2.0
 31
1.0
1001
AME_SOL
1070
     1
1071
       31
  0
LINE
  8
0
 62
     7
  5
116
 10
2.0
 20
2.0
 30
1.0
 11
1.0
 21
2.0
 31
1.0
1001
AME_SOL
1070
     1
1071
       30
  0
LINE
  8
0
 62
     7
  5
117
 10
3.0
 20
1.0
 30
0.0
 11
3.0
 21
0.0
 31
0.0
1001
AME_SOL
1070
     1
1071
       29
  0
LINE
  8
0
 62
     7
  5
118
 10
3.0
 20
0.0
 30
0.0
 11
3.0
 21
0.0
 31
3.0
1001
AME_SOL
1070
     1
1071
       28
  0
LINE
  8
0
 62
     7
  5
119
 10
2.0
 20
1.0
 30
0.0
 11
3.0
 21
1.0
 31
0.0
1001
AME_SOL
1070
     1
1071
       27
  0
LINE
  8
0
 62
     7
  5
11A
 10
0.0
 20
1.0
 30
3.0
 11
0.0
 21
1.0
 31
2.0
1001
AME_SOL
1070
     1
1071
       26
  0
LINE
  8
0
 62
     7
  5
11B
 10
2.0
 20
1.0
 30
1.0
 11
2.0
 21
1.0
 31
2.0
1001
AME_SOL
1070
     1
1071
       25
  0
LINE
  8
0
 62
     7
  5
11C
 10
2.0
 20
1.0
 30
2.0
 11
0.0
 21
1.0
 31
2.0
1001
AME_SOL
1070
     1
1071
       24
  0
LINE
  8
0
 62
     7
  5
11D
 10
3.0
 20
1.0
 30
0.0
 11
3.0
 21
1.0
 31
3.0
1001
AME_SOL
1070
     1
1071
       23
  0
LINE
  8
0
 62
     7
  5
11E
 10
0.0
 20
0.0
 30
3.0
 11
0.0
 21
1.0
 31
3.0
1001
AME_SOL
1070
     1
1071
       22
  0
LINE
  8
0
 62
     7
  5
11F
 10
3.0
 20
1.0
 30
3.0
 11
3.0
 21
0.0
 31
3.0
1001
AME_SOL
1070
     1
1071
       21
  0
LINE
  8
0
 62
     7
  5
120
 10
0.0
 20
1.0
 30
3.0
 11
3.0
 21
1.0
 31
3.0
1001
AME_SOL
1070
     1
1071
       20
  0
LINE
  8
0
 62
     7
  5
121
 10
3.0
 20
0.0
 30
3.0
 11
0.0
 21
0.0
 31
3.0
1001
AME_SOL
1070
     1
1071
       19
  0
LINE
  8
0
 62
     7
  5
122
 10
2.0
 20
0.0
 30
1.0
 11
2.0
 21
1.0
 31
1.0
1001
AME_SOL
1070
     1
1071
       18
  0
LINE
  8
0
 62
     7
  5
123
 10
2.0
 20
0.0
 30
0.0
 11
2.0
 21
1.0
 31
0.0
1001
AME_SOL
1070
     1
1071
       17
  0
LINE
  8
0
 62
     7
  5
124
 10
2.0
 20
1.0
 30
0.0
 11
2.0
 21
1.0
 31
1.0
1001
AME_SOL
1070
     1
1071
       16
  0
LINE
  8
0
 62
     7
  5
125
 10
2.0
 20
0.0
 30
1.0
 11
2.0
 21
0.0
 31
0.0
1001
AME_SOL
1070
     1
1071
       15
  0
ENDBLK
  8
0
  5
126
  0
BLOCK
  8
0
  5
12A
  2
*U9
 70
    65
 10
0.0
 20
0.0
 30
0.0
  1
*U
  3
*U
  0
POLYLINE
  8
0
 62
     7
  5
12B
 66
     1
 10
0.0
 20
0.0
 30
0.0
 70
    64
  0
VERTEX
  8
0
  5
12C
 10
1.0
 20
3.0
 30
0.0
 70
   192
  0
VERTEX
  8
0
  5
12D
 10
1.0
 20
2.0
 30
1.0
 70
   192
  0
VERTEX
  8
0
  5
12E
 10
1.0
 20
0.0
 30
1.0
 70
   192
  0
VERTEX
  8
0
  5
12F
 10
1.0
 20
3.0
 30
1.0
 70
   192
  0
VERTEX
  8
0
  5
130
 10
1.0
 20
0.0
 30
0.0
 70
   192
  0
VERTEX
  8
0
 62
     7
  5
131
 10
0.0
 20
0.0
 30
0.0
 70
   128
 71
    -1
 72
     2
 73
    -3
  0
VERTEX
  8
0
 62
     7
  5
132
 10
0.0
 20
0.0
 30
0.0
 70
   128
 71
     1
 72
     4
 73
    -2
  0
VERTEX
  8
0
 62
     7
  5
133
 10
0.0
 20
0.0
 30
0.0
 70
   128
 71
     3
 72
     5
 73
    -1
  0
SEQEND
  8
0
 62
     7
  5
134
  0
POLYLINE
  8
0
 62
     7
  5
135
 66
     1
 10
0.0
 20
0.0
 30
0.0
 70
    64
  0
VERTEX
  8
0
  5
136
 10
0.0
 20
3.0
 30
0.0
 70
   192
  0
VERTEX
  8
0
  5
137
 10
0.0
 20
3.0
 30
1.0
 70
   192
  0
VERTEX
  8
0
  5
138
 10
1.0
 20
3.0
 30
1.0
 70
   192
  0
VERTEX
  8
0
  5
139
 10
1.0
 20
3.0
 30
0.0
 70
   192
  0
VERTEX
  8
0
 62
     7
  5
13A
 10
0.0
 20
0.0
 30
0.0
 70
   128
 71
     1
 72
     2
 73
    -3
  0
VERTEX
  8
0
 62
     7
  5
13B
 10
0.0
 20
0.0
 30
0.0
 70
   128
 71
     3
 72
     4
 73
    -1
  0
SEQEND
  8
0
 62
     7
  5
13C
  0
POLYLINE
  8
0
 62
     7
  5
13D
 66
     1
 10
0.0
 20
0.0
 30
0.0
 70
    64
  0
VERTEX
  8
0
  5
13E
 10
1.0
 20
2.0
 30
1.0
 70
   192
  0
VERTEX
  8
0
  5
13F
 10
1.0
 20
3.0
 30
1.0
 70
   192
  0
VERTEX
  8
0
  5
140
 10
0.0
 20
2.0
 30
1.0
 70
   192
  0
VERTEX
  8
0
  5
141
 10
0.0
 20
3.0
 30
1.0
 70
   192
  0
VERTEX
  8
0
 62
     7
  5
142
 10
0.0
 20
0.0
 30
0.0
 70
   128
 71
     1
 72
    -2
 73
     3
  0
VERTEX
  8
0
 62
     7
  5
143
 10
0.0
 20
0.0
 30
0.0
 70
   128
 71
     2
 72
     4
 73
    -3
  0
SEQEND
  8
0
 62
     7
  5
144
  0
POLYLINE
  8
0
 62
     7
  5
145
 66
     1
 10
0.0
 20
0.0
 30
0.0
 70
    64
  0
VERTEX
  8
0
  5
146
 10
0.0
 20
1.0
 30
2.0
 70
   192
  0
VERTEX
  8
0
  5
147
 10
0.0
 20
3.0
 30
0.0
 70
   192
  0
VERTEX
  8
0
  5
148
 10
0.0
 20
0.0
 30
0.0
 70
   192
  0
VERTEX
  8
0
  5
149
 10
0.0
 20
2.0
 30
1.0
 70
   192
  0
VERTEX
  8
0
  5
14A
 10
0.0
 20
1.0
 30
3.0
 70
   192
  0
VERTEX
  8
0
  5
14B
 10
0.0
 20
0.0
 30
3.0
 70
   192
  0
VERTEX
  8
0
  5
14C
 10
0.0
 20
3.0
 30
1.0
 70
   192
  0
VERTEX
  8
0
  5
14D
 10
0.0
 20
2.0
 30
2.0
 70
   192
  0
VERTEX
  8
0
 62
     7
  5
14E
 10
0.0
 20
0.0
 30
0.0
 70
   128
 71
    -1
 72
     2
 73
    -3
  0
VERTEX
  8
0
 62
     7
  5
14F
 10
0.0
 20
0.0
 30
0.0
 70
   128
 71
    -1
 72
    -4
 73
    -2
  0
VERTEX
  8
0
 62
     7
  5
150
 10
0.0
 20
0.0
 30
0.0
 70
   128
 71
    -3
 72
     5
 73
    -1
  0
VERTEX
  8
0
 62
     7
  5
151
 10
0.0
 20
0.0
 30
0.0
 70
   128
 71
     3
 72
     6
 73
    -5
  0
VERTEX
  8
0
 62
     7
  5
152
 10
0.0
 20
0.0
 30
0.0
 70
   128
 71
     4
 72
     7
 73
    -2
  0
VERTEX
  8
0
 62
     7
  5
153
 10
0.0
 20
0.0
 30
0.0
 70
   128
 71
     1
 72
     8
 73
    -4
  0
SEQEND
  8
0
 62
     7
  5
154
  0
POLYLINE
  8
0
 62
     7
  5
155
 66
     1
 10
0.0
 20
0.0
 30
0.0
 70
    64
  0
VERTEX
  8
0
  5
156
 10
0.0
 20
0.0
 30
3.0
 70
   192
  0
VERTEX
  8
0
  5
157
 10
1.0
 20
0.0
 30
1.0
 70
   192
  0
VERTEX
  8
0
  5
158
 10
2.0
 20
0.0
 30
1.0
 70
   192
  0
VERTEX
  8
0
  5
159
 10
1.0
 20
0.0
 30
0.0
 70
   192
  0
VERTEX
  8
0
  5
15A
 10
0.0
 20
0.0
 30
0.0
 70
   192
  0
VERTEX
  8
0
  5
15B
 10
3.0
 20
0.0
 30
3.0
 70
   192
  0
VERTEX
  8
0
  5
15C
 10
3.0
 20
0.0
 30
0.0
 70
   192
  0
VERTEX
  8
0
  5
15D
 10
2.0
 20
0.0
 30
0.0
 70
   192
  0
VERTEX
  8
0
 62
     7
  5
15E
 10
0.0
 20
0.0
 30
0.0
 70
   128
 71
    -1
 72
     2
 73
    -3
  0
VERTEX
  8
0
 62
     7
  5
15F
 10
0.0
 20
0.0
 30
0.0
 70
   128
 71
    -1
 72
     4
 73
    -2
  0
VERTEX
  8
0
 62
     7
  5
160
 10
0.0
 20
0.0
 30
0.0
 70
   128
 71
     1
 72
     5
 73
    -4
  0
VERTEX
  8
0
 62
     7
  5
161
 10
0.0
 20
0.0
 30
0.0
 70
   128
 71
    -3
 72
     6
 73
    -1
  0
VERTEX
  8
0
 62
     7
  5
162
 10
0.0
 20
0.0
 30
0.0
 70
   128
 71
    -3
 72
     7
 73
    -6
  0
VERTEX
  8
0
 62
     7
  5
163
 10
0.0
 20
0.0
 30
0.0
 70
   128
 71
     3
 72
     8
 73
    -7
  0
SEQEND
  8
0
 62
     7
  5
164
  0
POLYLINE
  8
0
 62
     7
  5
165
 66
     1
 10
0.0
 20
0.0
 30
0.0
 70
    64
  0
VERTEX
  8
0
  5
166
 10
2.0
 20
1.0
 30
0.0
 70
   192
  0
VERTEX
  8
0
  5
167
 10
3.0
 20
1.0
 30
0.0
 70
   192
  0
VERTEX
  8
0
  5
168
 10
2.0
 20
0.0
 30
0.0
 70
   192
  0
VERTEX
  8
0
  5
169
 10
3.0
 20
0.0
 30
0.0
 70
   192
  0
VERTEX
  8
0
  5
16A
 10
0.0
 20
3.0
 30
0.0
 70
   192
  0
VERTEX
  8
0
  5
16B
 10
1.0
 20
0.0
 30
0.0
 70
   192
  0
VERTEX
  8
0
  5
16C
 10
0.0
 20
0.0
 30
0.0
 70
   192
  0
VERTEX
  8
0
  5
16D
 10
1.0
 20
3.0
 30
0.0
 70
   192
  0
VERTEX
  8
0
 62
     7
  5
16E
 10
0.0
 20
0.0
 30
0.0
 70
   128
 71
     1
 72
    -2
 73
     3
  0
VERTEX
  8
0
 62
     7
  5
16F
 10
0.0
 20
0.0
 30
0.0
 70
   128
 71
     2
 72
     4
 73
    -3
  0
VERTEX
  8
0
 62
     7
  5
170
 10
0.0
 20
0.0
 30
0.0
 70
   128
 71
    -5
 72
     6
 73
     7
  0
VERTEX
  8
0
 62
     7
  5
171
 10
0.0
 20
0.0
 30
0.0
 70
   128
 71
     5
 72
     8
 73
    -6
  0
SEQEND
  8
0
 62
     7
  5
172
  0
POLYLINE
  8
0
 62
     7
  5
173
 66
     1
 10
0.0
 20
0.0
 30
0.0
 70
    64
  0
VERTEX
  8
0
  5
174
 10
2.0
 20
2.0
 30
1.0
 70
   192
  0
VERTEX
  8
0
  5
175
 10
2.0
 20
2.0
 30
2.0
 70
   192
  0
VERTEX
  8
0
  5
176
 10
2.0
 20
1.0
 30
2.0
 70
   192
  0
VERTEX
  8
0
  5
177
 10
2.0
 20
1.0
 30
1.0
 70
   192
  0
VERTEX
  8
0
 62
     7
  5
178
 10
0.0
 20
0.0
 30
0.0
 70
   128
 71
     1
 72
     2
 73
    -3
  0
VERTEX
  8
0
 62
     7
  5
179
 10
0.0
 20
0.0
 30
0.0
 70
   128
 71
     3
 72
     4
 73
    -1
  0
SEQEND
  8
0
 62
     7
  5
17A
  0
POLYLINE
  8
0
 62
     7
  5
17B
 66
     1
 10
0.0
 20
0.0
 30
0.0
 70
    64
  0
VERTEX
  8
0
  5
17C
 10
2.0
 20
2.0
 30
2.0
 70
   192
  0
VERTEX
  8
0
  5
17D
 10
2.0
 20
2.0
 30
1.0
 70
   192
  0
VERTEX
  8
0
  5
17E
 10
1.0
 20
2.0
 30
1.0
 70
   192
  0
VERTEX
  8
0
  5
17F
 10
0.0
 20
2.0
 30
2.0
 70
   192
  0
VERTEX
  8
0
  5
180
 10
0.0
 20
2.0
 30
1.0
 70
   192
  0
VERTEX
  8
0
 62
     7
  5
181
 10
0.0
 20
0.0
 30
0.0
 70
   128
 71
     1
 72
     2
 73
    -3
  0
VERTEX
  8
0
 62
     7
  5
182
 10
0.0
 20
0.0
 30
0.0
 70
   128
 71
    -3
 72
     4
 73
    -1
  0
VERTEX
  8
0
 62
     7
  5
183
 10
0.0
 20
0.0
 30
0.0
 70
   128
 71
     3
 72
     5
 73
    -4
  0
SEQEND
  8
0
 62
     7
  5
184
  0
POLYLINE
  8
0
 62
     7
  5
185
 66
     1
 10
0.0
 20
0.0
 30
0.0
 70
    64
  0
VERTEX
  8
0
  5
186
 10
2.0
 20
1.0
 30
2.0
 70
   192
  0
VERTEX
  8
0
  5
187
 10
0.0
 20
2.0
 30
2.0
 70
   192
  0
VERTEX
  8
0
  5
188
 10
0.0
 20
1.0
 30
2.0
 70
   192
  0
VERTEX
  8
0
  5
189
 10
2.0
 20
2.0
 30
2.0
 70
   192
  0
VERTEX
  8
0
 62
     7
  5
18A
 10
0.0
 20
0.0
 30
0.0
 70
   128
 71
    -1
 72
     2
 73
     3
  0
VERTEX
  8
0
 62
     7
  5
18B
 10
0.0
 20
0.0
 30
0.0
 70
   128
 71
     1
 72
     4
 73
    -2
  0
SEQEND
  8
0
 62
     7
  5
18C
  0
POLYLINE
  8
0
 62
     7
  5
18D
 66
     1
 10
0.0
 20
0.0
 30
0.0
 70
    64
  0
VERTEX
  8
0
  5
18E
 10
2.0
 20
1.0
 30
1.0
 70
   192
  0
VERTEX
  8
0
  5
18F
 10
2.0
 20
0.0
 30
1.0
 70
   192
  0
VERTEX
  8
0
  5
190
 10
1.0
 20
2.0
 30
1.0
 70
   192
  0
VERTEX
  8
0
  5
191
 10
2.0
 20
2.0
 30
1.0
 70
   192
  0
VERTEX
  8
0
  5
192
 10
1.0
 20
0.0
 30
1.0
 70
   192
  0
VERTEX
  8
0
 62
     7
  5
193
 10
0.0
 20
0.0
 30
0.0
 70
   128
 71
     1
 72
    -2
 73
    -3
  0
VERTEX
  8
0
 62
     7
  5
194
 10
0.0
 20
0.0
 30
0.0
 70
   128
 71
     3
 72
     4
 73
    -1
  0
VERTEX
  8
0
 62
     7
  5
195
 10
0.0
 20
0.0
 30
0.0
 70
   128
 71
     2
 72
     5
 73
    -3
  0
SEQEND
  8
0
 62
     7
  5
196
  0
POLYLINE
  8
0
 62
     7
  5
197
 66
     1
 10
0.0
 20
0.0
 30
0.0
 70
    64
  0
VERTEX
  8
0
  5
198
 10
3.0
 20
0.0
 30
3.0
 70
   192
  0
VERTEX
  8
0
  5
199
 10
3.0
 20
0.0
 30
0.0
 70
   192
  0
VERTEX
  8
0
  5
19A
 10
3.0
 20
1.0
 30
3.0
 70
   192
  0
VERTEX
  8
0
  5
19B
 10
3.0
 20
1.0
 30
0.0
 70
   192
  0
VERTEX
  8
0
 62
     7
  5
19C
 10
0.0
 20
0.0
 30
0.0
 70
   128
 71
     1
 72
    -2
 73
     3
  0
VERTEX
  8
0
 62
     7
  5
19D
 10
0.0
 20
0.0
 30
0.0
 70
   128
 71
     2
 72
     4
 73
    -3
  0
SEQEND
  8
0
 62
     7
  5
19E
  0
POLYLINE
  8
0
 62
     7
  5
19F
 66
     1
 10
0.0
 20
0.0
 30
0.0
 70
    64
  0
VERTEX
  8
0
  5
1A0
 10
3.0
 20
1.0
 30
0.0
 70
   192
  0
VERTEX
  8
0
  5
1A1
 10
2.0
 20
1.0
 30
1.0
 70
   192
  0
VERTEX
  8
0
  5
1A2
 10
2.0
 20
1.0
 30
2.0
 70
   192
  0
VERTEX
  8
0
  5
1A3
 10
2.0
 20
1.0
 30
0.0
 70
   192
  0
VERTEX
  8
0
  5
1A4
 10
3.0
 20
1.0
 30
3.0
 70
   192
  0
VERTEX
  8
0
  5
1A5
 10
0.0
 20
1.0
 30
3.0
 70
   192
  0
VERTEX
  8
0
  5
1A6
 10
0.0
 20
1.0
 30
2.0
 70
   192
  0
VERTEX
  8
0
 62
     7
  5
1A7
 10
0.0
 20
0.0
 30
0.0
 70
   128
 71
    -1
 72
     2
 73
    -3
  0
VERTEX
  8
0
 62
     7
  5
1A8
 10
0.0
 20
0.0
 30
0.0
 70
   128
 71
     1
 72
     4
 73
    -2
  0
VERTEX
  8
0
 62
     7
  5
1A9
 10
0.0
 20
0.0
 30
0.0
 70
   128
 71
    -3
 72
     5
 73
    -1
  0
VERTEX
  8
0
 62
     7
  5
1AA
 10
0.0
 20
0.0
 30
0.0
 70
   128
 71
    -3
 72
     6
 73
    -5
  0
VERTEX
  8
0
 62
     7
  5
1AB
 10
0.0
 20
0.0
 30
0.0
 70
   128
 71
     3
 72
     7
 73
    -6
  0
SEQEND
  8
0
 62
     7
  5
1AC
  0
POLYLINE
  8
0
 62
     7
  5
1AD
 66
     1
 10
0.0
 20
0.0
 30
0.0
 70
    64
  0
VERTEX
  8
0
  5
1AE
 10
3.0
 20
0.0
 30
3.0
 70
   192
  0
VERTEX
  8
0
  5
1AF
 10
3.0
 20
1.0
 30
3.0
 70
   192
  0
VERTEX
  8
0
  5
1B0
 10
0.0
 20
0.0
 30
3.0
 70
   192
  0
VERTEX
  8
0
  5
1B1
 10
0.0
 20
1.0
 30
3.0
 70
   192
  0
VERTEX
  8
0
 62
     7
  5
1B2
 10
0.0
 20
0.0
 30
0.0
 70
   128
 71
     1
 72
    -2
 73
     3
  0
VERTEX
  8
0
 62
     7
  5
1B3
 10
0.0
 20
0.0
 30
0.0
 70
   128
 71
     2
 72
     4
 73
    -3
  0
SEQEND
  8
0
 62
     7
  5
1B4
  0
POLYLINE
  8
0
 62
     7
  5
1B5
 66
     1
 10
0.0
 20
0.0
 30
0.0
 70
    64
  0
VERTEX
  8
0
  5
1B6
 10
2.0
 20
1.0
 30
0.0
 70
   192
  0
VERTEX
  8
0
  5
1B7
 10
2.0
 20
0.0
 30
1.0
 70
   192
  0
VERTEX
  8
0
  5
1B8
 10
2.0
 20
1.0
 30
1.0
 70
   192
  0
VERTEX
  8
0
  5
1B9
 10
2.0
 20
0.0
 30
0.0
 70
   192
  0
VERTEX
  8
0
 62
     7
  5
1BA
 10
0.0
 20
0.0
 30
0.0
 70
   128
 71
    -1
 72
     2
 73
     3
  0
VERTEX
  8
0
 62
     7
  5
1BB
 10
0.0
 20
0.0
 30
0.0
 70
   128
 71
     1
 72
     4
 73
    -2
  0
SEQEND
  8
0
 62
     7
  5
1BC
  0
ENDBLK
  8
0
  5
1BD
  0
BLOCK
  8
0
  5
1BF
  2
AME_MAT
 70
    64
 10
0.0
 20
0.0
 30
0.0
  1
AME_MAT
  3
AME_MAT
  0
ENDBLK
  8
0
  5
1C0
  0
ENDSEC
  0
SECTION
  2
ENTITIES
  0
INSERT
  8
AME_FRZ
  5
3
  2
AME_NIL
 10
0.0
 20
0.0
 30
0.0
  0
INSERT
  8
AME_FRZ
  5
6
  2
AME_SOL
 10
0.0
 20
0.0
 30
0.0
1001
AME_SOL
1000
1.0
1000
sq cm
1070
     3
1070
     0
1070
     3
1000
wire
1040
0.0
1000
NONE
1040
1.0
1000
cm
1000
gm
1000
MILD_STEEL
1070
    25
1000
CSG
1070
     3
1070
     2
1070
     3
1000
cu cm
1070
     4
1070
     0
1005
3
  0
INSERT
  8
AME_FRZ
  5
15
  2
*U2
 10
0.0
 20
0.0
 30
0.0
1001
AME_SOL
1002
{
1070
     0
1071
  2016504
1070
  1536
1010
1.0
1020
3.0
1030
1.0
1005
0
1005
0
1005
3A
1040
0.0
1040
1.0
1000
MILD_STEEL
1000
0
1010
0.0
1020
0.0
1030
0.0
1010
0.0
1020
0.0
1030
1.0
1040
0.0
1002
}
  0
INSERT
  8
AME_FRZ
  5
26
  2
*U3
 10
0.0
 20
0.0
 30
1.0
1001
AME_SOL
1002
{
1070
     0
1071
  1859880
1070
  1536
1010
2.0
1020
2.0
1030
1.0
1005
0
1005
0
1005
3A
1040
0.0
1040
1.0
1000
MILD_STEEL
1000
0
1010
0.0
1020
0.0
1030
1.0
1010
0.0
1020
0.0
1030
1.0
1040
0.0
1002
}
  0
INSERT
  8
AME_FRZ
  5
37
  2
*U4
 10
0.0
 20
0.0
 30
2.0
1001
AME_SOL
1002
{
1070
     0
1071
  1990656
1070
  1536
1010
3.0
1020
1.0
1030
1.0
1005
0
1005
0
1005
60
1040
0.0
1040
1.0
1000
MILD_STEEL
1000
0
1010
0.0
1020
0.0
1030
2.0
1010
0.0
1020
0.0
1030
1.0
1040
0.0
1002
}
  0
INSERT
  8
AME_FRZ
  5
3A
  2
AME_NIL
 10
0.0
 20
0.0
 30
0.0
1001
AME_SOL
1002
{
1070
     0
1071
  2010624
1070
   775
1070
     2
1005
15
1005
26
1005
0
1005
0
1005
60
1040
0.0
1040
1.0
1000
MILD_STEEL
1000
0
1010
0.0
1020
0.0
1030
0.0
1010
0.0
1020
0.0
1030
1.0
1040
0.0
1002
}
  0
INSERT
  8
AME_FRZ
  5
60
  2
*U5
 10
0.0
 20
0.0
 30
0.0
1001
AME_SOL
1002
{
1070
     0
1071
  1936680
1070
  9735
1070
     2
1005
3A
1005
37
1005
0
1005
0
1005
127
1040
36.0
1040
1.0
1000
MILD_STEEL
1000
0
1010
0.0
1020
0.0
1030
0.0
1010
0.0
1020
0.0
1030
1.0
1040
0.0
1002
}
  0
INSERT
  8
AME_FRZ
  5
FC
  2
*U7
 10
2.0
 20
0.0
 30
0.0
1001
AME_SOL
1002
{
1070
     0
1071
  1916464
1070
  1536
1010
1.0
1020
1.0
1030
3.0
1005
0
1005
0
1005
127
1040
0.0
1040
1.0
1000
MILD_STEEL
1000
0
1010
2.0
1020
0.0
1030
0.0
1010
0.0
1020
0.0
1030
1.0
1040
0.0
1002
}
  0
INSERT
  8
0
  5
127
  2
*U9
 10
0.0
 20
0.0
 30
0.0
1001
AME_SOL
1002
{
1070
     0
1071
  1968712
1070
  9223
1070
     2
1005
60
1005
FC
1005
1BE
1005
128
1005
0
1040
42.0
1040
1.0
1000
MILD_STEEL
1000
0
1002
}
  0
INSERT
  8
AME_FRZ
  5
128
  2
AME_NIL
 10
1.0
 20
1.0
 30
1.0
1001
AME_SOL
1004
E903A9FB0100F0FFFFFF000052F70E00010000009443D4B99443D4B99443D4B9A2064040A2064040A206404001000000FBF20400BCF2FF3F9443D4B99443D4B9A2060040440D803FA20640400100844E205A1D00010000000100CC000000844E000000000000000000000000803F000000000000803F0000
1004
000000000040000000000000000005000000000000000000000000000000000000000000844E0000000000000000803F000000000000008000000080000080BF00000040000000400000004005000000000000000000000000000000000001000000FBF20400BCF2FF3F9443D4B95EF93F40A2064040440D
1004
803FA20640400100844EB8631D00010000000200CB000000844E0000000080BF000000800000008000000080000080BF00000080000040400000803F000040400500000000000000000000000000000000000000000093010000844E0000000080BF000000800000008000000080000080BF000000800000
1004
40400000803F0000404005000000000000000000000000000000000000000000844E0000000080BF000000800000008000000080000080BF00000080000040400000803F0000404005000000000000000000000000000000000001000000FBF20700BCF2FF3F78E57F3F9443D4B9A2064040440D803FA206
1004
40400100844E08721D00010000000200CA000000844E00000000008000000080000080BF000080BF0000008000000080000040400000803F000040400500000000000000000000000000000000000000000092010000844E00000000008000000080000080BF000080BF0000008000000080000040400000
1004
803F0000404005000000000000000000000000000000000000000000844E00000000008000000080000080BF000080BF0000008000000080000040400000803F0000404005000000000000000000000000000000000001000000FBF204005EF93F409443D4B99443D4B9A2064040440D803FA20640400100
1004
844E28731D00010000000200C9000000844E000000000080000080BF000000800000008000000080000080BF000040400000803F000040400500000000000000000000000000000000000000000091010000844E000000000080000080BF000000800000008000000080000080BF000040400000803F0000
1004
404005000000000000000000000000000000000000000000844E000000000080000080BF000000800000008000000080000080BF000040400000803F0000404005000000000000000000000000000000000001000000FBF205000000C0B90000C0B900E87F3F0006004000060040000C803F0100844EE06E
1004
1D000100000001005E020000844E0000000000000000803F000000000000803F000000000000000000000000000000000000803F05000000000000000000000000000000000000000000844E00000000803F000000000000000000000080000080BF000000800000803F000040400000803F050000000000
1004
00000000000000000000000001000000FBF204000000C0B90000C0B900F4FF3F0006004000060040000600400100844E608B1D000100000001005B020000844E0000000080BF000000800000008000000080000080BF00000080000000400000004000000040050000000000000000000000000000000000
1004
00000000844E0000000080BF000000800000008000000080000080BF0000008000000040000000400000004005000000000000000000000000000000000001000000FBF205000000C0B900F4FF3F00E87F3F0006004000060040000600400100844E90921D000100000001005A020000844E000000000080
1004
00000080000080BF000080BF000000800000008000000040000000400000004005000000000000000000000000000000000000000000844E00000000008000000080000080BF000080BF000000800000008000000040000000400000004005000000000000000000000000000000000001000000FBF20400
1004
00F4FF3F0000C0B900E87F3F0006004000060040000600400100844E70A41D0001000000010059020000844E000000000080000080BF000000800000008000000080000080BF00000040000000400000004005000000000000000000000000000000000000000000844E000000000080000080BF00000080
1004
0000008000000080000080BF00000040000000400000004005000000000000000000000000000000000001000000FBF20800BCF2FF3F9443D4B99443D4B9A2064040440D803F9443D4390100844E88A61D00010000000200CE000000844E0000000000000000803F000000000000803F0000000000000000
1004
00000040000000000000000005000000000000000000000000000000000000000000C2020000844E0000000000000000803F000000000000803F000000000000000000000000000000000000000005000000000000000000000000000000000000000000844E0000000000000000803F000000000000803F
1004
000000000000000000000000000000000000000005000000000000000000000000000000000001000000FBF20800BCF2FF3F9443D4B99443D4B9A20640409443D439A20640400100844EC8A81D00010000000400CD000000844E00000000803F000000000000000000000000000000000000803F00000040
1004
00000000000000000500000000000000000000000000000000000000000095010000844E00000000803F000000000000000000000000000000000000803F000000000000000000000040050000000000000000000000000000000000000000005D020000844E00000000803F000000000000000000000000
1004
000000000000803F00000000000000000000803F05000000000000000000000000000000000000000000C1020000844E00000000803F000000000000000000000000000000000000803F00000000000000000000000005000000000000000000000000000000000000000000844E00000000803F00000000
1004
0000000000000000000000000000803F00000000000000000000000005000000000000000000000000000000000001000000FBF208009443D4B99443D4B9BCF2FF3F9443D439440D803FA20640400100844E209C1D0001000000030094010000844E000000000000000000000000803F000000000000803F
1004
00000000000000000000000000000040050000000000000000000000000000000000000000005C020000844E000000000000000000000000803F000000000000803F0000000000000000000000000000803F05000000000000000000000000000000000000000000C0020000844E00000000000000000000
1004
0000803F000000000000803F0000000000000000000000000000000005000000000000000000000000000000000000000000844E000000000000000000000000803F000000000000803F0000000000000000000000000000000005000000000000000000000000000000000001000000FBF204009443D4B9
1004
9443D4B978E57F3F440D803FA2064040440D803F0100844E80961D00010000000100BF020000844E0000000080BF000000800000008000000080000080BF000000800000803F000040400000803F05000000000000000000000000000000000000000000844E0000000080BF000000800000008000000080
1004
000080BF000000800000803F000040400000803F05000000000000000000000000000000000001000000FBF204009443D4B95EF93F409443D4B9440D803FA2064040440D803F0100844EC0901D00010000000100BE020000844E00000000008000000080000080BF000080BF00000080000000800000803F
1004
000040400000803F05000000000000000000000000000000000000000000844E00000000008000000080000080BF000080BF00000080000000800000803F000040400000803F05000000000000000000000000000000000001000000FBF2050078E57F3F9443D4B99443D4B9440D803FA2064040440D803F
1004
0100844EE88E1E00010000000100BD020000844E000000000080000080BF000000800000008000000080000080BF0000803F000040400000803F05000000000000000000000000000000000000000000844E000000000080000080BF000000800000008000000080000080BF0000803F000040400000803F
1004
05000000000000000000000000000000000001000000A4EEBCF2FF3F9443D4B99443D4B9A20600409443D439A2064040000000800000803F02009675506F1E000000FFFF0100205A1D00C8A81D0000000200205A1D00C8A81D0001000000010000009675000000000000000080BF00000000000080BF0000
1004
00000000000000000040000000000000803F0200000000800000803FA4EEBCF2FF3F78E57F3F9443D4B9A2060040440D803FA2064040000020C00000C0BF0200967540741E000000FFFF0100205A1D0008721D0000000200205A1D0008721D00010000000100000096750000000000000000803F00000000
1004
000080BF0000000000000000000000400000803F000020400200000020C00000C0BFA4EEBCF2FF3F9443D4B99443D4B9A2060040440D803F9443D439000080BF000000800200967500761E000000FFFF0100205A1D0088A61D0000000200205A1D0088A61D00010000000100000096750000000000000000
1004
0000000080BF000080BF0000000000000000000000400000803F000000000200000080BF00000080A4EEBCF2FF3F0000C0B900E87F3F00060040440D803F000C803F000020C00000C0BF0200967548761E0000000100FFFF205A1D00E06E1D0000000200E06E1D00205A1D00010000000100000096750000
1004
0000000000000000000080BF000080BF000000000000000000000040000020400000803F0200000020C00000C0BFA4EE9443D4B99443D4B95EF93F40A20640409443D439A20640400000C0BF0000C03F02009675D8921E000000FFFF0100B8631D00C8A81D0000000200B8631D00C8A81D00010000000100
1004
00009675000000000000000080BF0000000000000000000000000000803F0000C03F000000000000404002000000C0BF0000C03FA4EE9443D4B978E57F3F5EF93F40A2064040440D803FA2064040000040C00000008002009675F8A81E000000FFFF0100B8631D0008721D0000000200B8631D0008721D00
1004
010000000100000096750000000000000000803F0000000000000000000000000000803F000040400000803F000040400200000040C000000080A4EE5EF93F409443D4B95EF93F40A2064040440D803FA2064040000000000000803F0200967538AB1E000000FFFF0100B8631D0028731D0000000200B863
1004
1D0028731D000100000001000000967500000000803F000000000000000000000080000000000000803F000040400000803F000040400200000000000000803FA4EE9443D4B99443D4B95EF93F409443D439440D803FA2064040000000BF0000003F0200967580C31E000000FFFF0100B8631D00209C1D00
1004
00000200B8631D00209C1D00010000000100000096750000000080BF000000000000000000000000000000000000803F000000000000003F000040400200000000BF0000003FA4EE5EF93F4078E57F3F9443D4B9A2064040440D803FA2064040000040C0000000800200967518C61E000000FFFF01000872
1004
1D0028731D000000020008721D0028731D000100000001000000967500000000803F0000000000000000000000000000803F00000000000040400000803F000040400200000040C000000080A4EE0000C0B978E57F3F00F4FF3F00060040440D803F000600400100003F000020400200967530D71E000000
1004
0100FFFF08721D00608B1D0000000200608B1D0008721D0001000000010000009675000000000000000000000000803F000000000000803F00000080000020400000803F0000004002000100003F00002040A4EE00F4FF3F78E57F3F00E87F3F00060040440D803F000600400000C0BF010000BF02009675
1004
C0DE1E0000000100FFFF08721D0070A41D000000020070A41D0008721D000100000001000000967500000000803F0000000000000000000000000000803F00000000000000400000803F0000204002000000C0BF010000BFA4EE9443D4B978E57F3FBCF2FF3F9443D439440D803FA20640400000C0BF0100
1004
00BF0200967590D41E000000FFFF010008721D00209C1D000000020008721D00209C1D00010000000100000096750000000080BF0000000000000000000000000000803F00000000000000000000803F0000C03F02000000C0BF010000BFA4EEBCF2FF3F78E57F3F9443D4B9A2064040440D803F9443D439
1004
0100003F0000C03F02009675E09D1E000000FFFF010008721D0088A61D000000020008721D0088A61D000100000001000000967500000000000000000000000080BF000000000000803F000000000000C03F0000803F0000000002000100003F0000C03FA4EE5EF93F409443D4B99443D4B9A20640409443
1004
D439A20640400000C0BF0000C03F0200967528CD1D000000FFFF010028731D00C8A81D000000020028731D00C8A81D0001000000010000009675000000000000000080BF000000000000803F000000000000000000004040000000000000C03F02000000C0BF0000C03FA4EE5EF93F409443D4B99443D4B9
1004
A2064040440D803F9443D439000000BF0000003F0200967568B41D000000FFFF010028731D0088A61D000000020028731D0088A61D000100000001000000967500000000000000000000000080BF0000803F0000000000000000000040400000003F000000000200000000BF0000003FA4EE0000C0B900F4
1004
FF3F00E87F3F0006004000060040000C803F010000BFFFFFFF3E0200967558B51D000000FFFF0100E06E1D0090921D0000000200E06E1D0090921D00010000000100000096750000000000000000803F000000000000000000000000000080BF0000C03F000000400000803F0200010000BFFFFFFF3EA4EE
1004
00F4FF3F0000C0B900E87F3F0006004000060040000C803FFDFFBFBF010000BF0200967548B61D000000FFFF0100E06E1D0070A41D0000000200E06E1D0070A41D000100000001000000967500000000803F00000000000000000000000000000000000080BF00000040FFFF1F400000803F0200FDFFBFBF
1004
010000BFA4EE78E57F3F0000C0B900E87F3F440D803F00060040000C803F000040C0FFFF7FBF0200967538B71D0000000100FFFFE06E1D00E88E1E0000000200E88E1E00E06E1D000100000001000000967500000000803F00000000000000000000000000000000000080BF0000803F000040400000803F
1004
0200000040C0FFFF7FBFA4EE0000C0B90000C0B900E87F3F000600409443D439000C803F0000003F0000C03F0200967528B81D000000FFFF0100E06E1D00C8A81D0000000200E06E1D00C8A81D0001000000010000009675000000000000000080BF000000000000000000000000000080BF0000003F0000
1004
00000000803F02000000003F0000C03FA4EE0000C0B900F4FF3F00F4FF3F000600400006004000060040000000C0000000800200967518B91D000000FFFF0100608B1D0090921D0000000200608B1D0090921D00010000000100000096750000000000000000803F0000000000000000000000000000803F
1004
0000004000000040000000400200000000C000000080A4EE00F4FF3F0000C0B900F4FF3F000600400006004000060040000000000000803F0200967508BA1D000000FFFF0100608B1D0070A41D0000000200608B1D0070A41D000100000001000000967500000000803F0000000000000000000000000000
1004
00000000803F0000004000000040000000400200000000000000803FA4EE0000C0B90000C0B900F4FF3F9443D4390006004000060040000000800000803F02009675F8BA1D000000FFFF0100608B1D00209C1D0000000200608B1D00209C1D00010000000100000096750000000080BF0000000000000000
1004
00000000000000000000803F000000000000803F000000400200000000800000803FA4EE00F4FF3F00F4FF3F00E87F3F000600400006004000060040000080BF0000008002009675E8BB1D000000FFFF010090921D0070A41D000000020090921D0070A41D000100000001000000967500000000803F0000
1004
000000000000000000000000803F000000000000004000000040000000400200000080BF00000080A4EE0000C0B900F4FF3F00E87F3F9443D4390006004000060040000080BF0000000002009675D8BC1D000000FFFF010090921D00209C1D000000020090921D00209C1D00010000000100000096750000
1004
000080BF0000000000000000000000000000803F0000000000000000000000400000803F0200000080BF00000000A4EE0000C0B900F4FF3F00E87F3F440D803F00060040440D803FFFFFFF3E0000C03F02009675C8BD1D0000000100FFFF90921D0080961D000000020080961D0090921D00010000000100
1004
00009675000000000000000000000000803F000000000000803F000000000000C03F000000400000803F0200FFFFFF3E0000C03FA4EE9443D4B99443D4B99443D4B99443D439A20640409443D439000040C00000008002009675B8BE1D000000FFFF010088A61D00209C1D000000020088A61D00209C1D00
1004
010000000100000096750000000080BF00000000000000000000000000000000000080BF0000000000000000000000000200000040C000000080A4EE9443D4B95EF93F409443D4B9440D803FA20640409443D439000000BF0000003F02009675A8BF1D000000FFFF010088A61D00C0901D000000020088A6
1004
1D00C0901D00010000000100000096750000000000000000803F000000000000000000000000000080BF0000003F00004040000000000200000000BF0000003FA4EE78E57F3F9443D4B99443D4B9440D803FA20640409443D4390000C0BF0000C03F0200967598C01D000000FFFF010088A61D00E88E1E00
1004
0000020088A61D00E88E1E000100000001000000967500000000803F00000000000000000000000000000000000080BF0000803F0000C03F0000000002000000C0BF0000C03FA4EE9443D4B99443D4B99443D4B9A20640409443D4399443D439000000000000803F0200967588C11D000000FFFF010088A6
1004
1D00C8A81D000000020088A61D00C8A81D0001000000010000009675000000000000000080BF000000000000000000000000000080BF0000000000000000000000000200000000000000803FA4EE9443D4B99443D4B99443D4B9A20640409443D4399443D43900000040000040400200967578C21D000000
1004
FFFF010088A61D00C8A81D000000020088A61D00C8A81D0001000000010000009675000000000000000080BF000000000000000000000000000080BF00000000000000000000000002000000004000004040A4EE9443D4B99443D4B99443D4B99443D4399443D439A2064040000000000000404002009675
1004
68C31D000000FFFF0100C8A81D00209C1D0000000200C8A81D00209C1D00010000000100000096750000000080BF000000000000000000000000000080BF0000000000000000000000000000000002000000000000004040A4EE78E57F3F9443D4B99443D4B9440D803F9443D439440D803F000000BF0000
1004
003F0200967558C41D000000FFFF0100C8A81D00E88E1E0000000200C8A81D00E88E1E000100000001000000967500000000803F000000000000000000000000000080BF000000000000803F000000000000003F0200000000BF0000003FA4EE9443D4B99443D4B978E57F3F9443D439A2064040440D803F
1004
0000C0BF010000BF0200967548C51D000000FFFF0100209C1D0080961D0000000200209C1D0080961D0001000000010000009675000000000000000000000000803F000080BF0000000000000000000000000000C03F0000803F02000000C0BF010000BFA4EE9443D4B95EF93F409443D4B99443D439A206
1004
4040440D803F000000BF0000003F0200967538C61D000000FFFF0100209C1D00C0901D0000000200209C1D00C0901D00010000000100000096750000000000000000803F00000000000080BF000000000000000000000000000040400000003F0200000000BF0000003FA4EE9443D4B95EF93F4078E57F3F
1004
440D803FA2064040440D803F000080BF000000800200967528C71D000000FFFF010080961D00C0901D000000020080961D00C0901D00010000000100000096750000000000000000803F0000000000000000000000000000803F0000803F000040400000803F0200000080BF00000080A4EE78E57F3F9443
1004
D4B978E57F3F440D803FA2064040440D803F00000000FFFF7F3F0200967518C81D000000FFFF010080961D00E88E1E000000020080961D00E88E1E000100000001000000967500000000803F000000000000000000000000000000000000803F0000803F000040400000803F020000000000FFFF7F3FA4EE
1004
78E57F3F5EF93F409443D4B9440D803FA2064040440D803F000080BF000000800200967508C91D000000FFFF0100C0901D00E88E1E0000000200C0901D00E88E1E000100000001000000967500000000803F0000000000000000000000000000803F000000000000803F000040400000803F0200000080BF
1004
0000008019FC
1005
129
  0
INSERT
  8
AME_FRZ
  5
129
  2
AME_NIL
 10
1.0
 20
1.0
 30
1.0
1001
AME_SOL
1004

1005
0
  0
INSERT
  8
AME_FRZ
  5
1BE
  2
*U8
 10
0.0
 20
0.0
 30
0.0
  0
INSERT
  8
AME_FRZ
  5
1C1
  2
AME_MAT
 10
0.0
 20
0.0
 30
0.0
1001
AME_SOL
1000
MILD_STEEL
1040
7860.0
1040
220.0
1040
0.275
1040
207.0
1040
345.0
1040
56.0
1040
12.0
1040
0.46
  0
ENDSEC
  0
EOF
