  0
SECTION
  2
HEADER
  9
$ACADVER
  1
AC1009
  9
$INSBASE
 10
0.0
 20
0.0
 30
0.0
  9
$EXTMIN
 10
-5.0
 20
-3.366025
 30
-1.0
  9
$EXTMAX
 10
14.5
 20
15.0
 30
11.0
  9
$LIMMIN
 10
0.0
 20
0.0
  9
$LIMMAX
 10
12.0
 20
9.0
  9
$ORTHOMODE
 70
     0
  9
$REGENMODE
 70
     1
  9
$FILLMODE
 70
     1
  9
$QTEXTMODE
 70
     0
  9
$MIRRTEXT
 70
     1
  9
$DRAGMODE
 70
     2
  9
$LTSCALE
 40
1.0
  9
$OSMODE
 70
     0
  9
$ATTMODE
 70
     1
  9
$TEXTSIZE
 40
0.2
  9
$TRACEWID
 40
0.05
  9
$TEXTSTYLE
  7
STANDARD
  9
$CLAYER
  8
0
  9
$CELTYPE
  6
BYLAYER
  9
$CECOLOR
 62
   256
  9
$DIMSCALE
 40
1.0
  9
$DIMASZ
 40
0.18
  9
$DIMEXO
 40
0.0625
  9
$DIMDLI
 40
0.38
  9
$DIMRND
 40
0.0
  9
$DIMDLE
 40
0.0
  9
$DIMEXE
 40
0.18
  9
$DIMTP
 40
0.0
  9
$DIMTM
 40
0.0
  9
$DIMTXT
 40
0.18
  9
$DIMCEN
 40
0.09
  9
$DIMTSZ
 40
0.0
  9
$DIMTOL
 70
     0
  9
$DIMLIM
 70
     0
  9
$DIMTIH
 70
     1
  9
$DIMTOH
 70
     1
  9
$DIMSE1
 70
     0
  9
$DIMSE2
 70
     0
  9
$DIMTAD
 70
     0
  9
$DIMZIN
 70
     0
  9
$DIMBLK
  1

  9
$DIMASO
 70
     1
  9
$DIMSHO
 70
     1
  9
$DIMPOST
  1

  9
$DIMAPOST
  1

  9
$DIMALT
 70
     0
  9
$DIMALTD
 70
     2
  9
$DIMALTF
 40
25.4
  9
$DIMLFAC
 40
1.0
  9
$DIMTOFL
 70
     0
  9
$DIMTVP
 40
0.0
  9
$DIMTIX
 70
     0
  9
$DIMSOXD
 70
     0
  9
$DIMSAH
 70
     0
  9
$DIMBLK1
  1

  9
$DIMBLK2
  1

  9
$DIMSTYLE
  2
*UNNAMED
  9
$DIMCLRD
 70
     0
  9
$DIMCLRE
 70
     0
  9
$DIMCLRT
 70
     0
  9
$DIMTFAC
 40
1.0
  9
$DIMGAP
 40
0.09
  9
$LUNITS
 70
     2
  9
$LUPREC
 70
     4
  9
$SKETCHINC
 40
0.1
  9
$FILLETRAD
 40
0.0
  9
$AUNITS
 70
     0
  9
$AUPREC
 70
     0
  9
$MENU
  1
acad
  9
$ELEVATION
 40
0.0
  9
$PELEVATION
 40
0.0
  9
$THICKNESS
 40
0.0
  9
$LIMCHECK
 70
     0
  9
$BLIPMODE
 70
     1
  9
$CHAMFERA
 40
0.0
  9
$CHAMFERB
 40
0.0
  9
$SKPOLY
 70
     0
  9
$TDCREATE
 40
2449366.429014212
  9
$TDUPDATE
 40
2449366.440388484
  9
$TDINDWG
 40
0.0111979514
  9
$TDUSRTIMER
 40
0.0111979514
  9
$USRTIMER
 70
     1
  9
$ANGBASE
 50
0.0
  9
$ANGDIR
 70
     0
  9
$PDMODE
 70
     0
  9
$PDSIZE
 40
0.0
  9
$PLINEWID
 40
0.0
  9
$COORDS
 70
     1
  9
$SPLFRAME
 70
     0
  9
$SPLINETYPE
 70
     6
  9
$SPLINESEGS
 70
     8
  9
$ATTDIA
 70
     0
  9
$ATTREQ
 70
     1
  9
$HANDLING
 70
     1
  9
$HANDSEED
  5
63C
  9
$SURFTAB1
 70
     6
  9
$SURFTAB2
 70
     6
  9
$SURFTYPE
 70
     6
  9
$SURFU
 70
     6
  9
$SURFV
 70
     6
  9
$UCSNAME
  2

  9
$UCSORG
 10
0.0
 20
0.0
 30
0.0
  9
$UCSXDIR
 10
1.0
 20
0.0
 30
0.0
  9
$UCSYDIR
 10
0.0
 20
1.0
 30
0.0
  9
$PUCSNAME
  2

  9
$PUCSORG
 10
0.0
 20
0.0
 30
0.0
  9
$PUCSXDIR
 10
1.0
 20
0.0
 30
0.0
  9
$PUCSYDIR
 10
0.0
 20
1.0
 30
0.0
  9
$USERI1
 70
     0
  9
$USERI2
 70
     0
  9
$USERI3
 70
     0
  9
$USERI4
 70
     0
  9
$USERI5
 70
     0
  9
$USERR1
 40
0.0
  9
$USERR2
 40
0.0
  9
$USERR3
 40
0.0
  9
$USERR4
 40
0.0
  9
$USERR5
 40
0.0
  9
$WORLDVIEW
 70
     1
  9
$SHADEDGE
 70
     3
  9
$SHADEDIF
 70
    70
  9
$TILEMODE
 70
     1
  9
$MAXACTVP
 70
    16
  9
$PINSBASE
 10
0.0
 20
0.0
 30
0.0
  9
$PLIMCHECK
 70
     0
  9
$PEXTMIN
 10
1.000000E+20
 20
1.000000E+20
 30
1.000000E+20
  9
$PEXTMAX
 10
-1.000000E+20
 20
-1.000000E+20
 30
-1.000000E+20
  9
$PLIMMIN
 10
0.0
 20
0.0
  9
$PLIMMAX
 10
12.0
 20
9.0
  9
$UNITMODE
 70
     0
  9
$VISRETAIN
 70
     0
  9
$PLINEGEN
 70
     0
  9
$PSLTSCALE
 70
     1
  9
$TREEDEPTH
 70
  3020
  9
$DWGCODEPAGE
  3
ascii
  0
ENDSEC
  0
SECTION
  2
TABLES
  0
TABLE
  2
VPORT
 70
     2
  0
VPORT
  2
*ACTIVE
 70
     0
 10
0.0
 20
0.0
 11
1.0
 21
1.0
 12
9.645828
 22
5.816987
 13
0.0
 23
0.0
 14
1.0
 24
1.0
 15
0.0
 25
0.0
 16
0.0
 26
0.0
 36
1.0
 17
0.0
 27
0.0
 37
0.0
 40
18.366025
 41
1.594883
 42
50.0
 43
0.0
 44
0.0
 50
0.0
 51
0.0
 71
     0
 72
   100
 73
     1
 74
     1
 75
     0
 76
     0
 77
     0
 78
     0
  0
ENDTAB
  0
TABLE
  2
LTYPE
 70
     1
  0
LTYPE
  2
CONTINUOUS
 70
    64
  3
Solid line
 72
    65
 73
     0
 40
0.0
  0
ENDTAB
  0
TABLE
  2
LAYER
 70
     2
  0
LAYER
  2
0
 70
    64
 62
     7
  6
CONTINUOUS
  0
LAYER
  2
AME_FRZ
 70
    65
 62
     7
  6
CONTINUOUS
  0
ENDTAB
  0
TABLE
  2
STYLE
 70
     1
  0
STYLE
  2
STANDARD
 70
     0
 40
0.0
 41
1.0
 50
0.0
 71
     0
 42
0.2
  3
txt
  4

  0
ENDTAB
  0
TABLE
  2
VIEW
 70
     0
  0
ENDTAB
  0
TABLE
  2
UCS
 70
     0
  0
ENDTAB
  0
TABLE
  2
APPID
 70
     3
  0
APPID
  2
ACAD
 70
    64
  0
APPID
  2
AME_SOL
 70
    64
  0
APPID
  2
AVE_INVOKE
 70
    64
  0
ENDTAB
  0
TABLE
  2
DIMSTYLE
 70
     0
  0
ENDTAB
  0
ENDSEC
  0
SECTION
  2
BLOCKS
  0
BLOCK
  8
0
  5
1
  2
AME_NIL
 70
    64
 10
0.0
 20
0.0
 30
0.0
  1
AME_NIL
  3
AME_NIL
  0
ENDBLK
  8
0
  5
2
  0
BLOCK
  8
0
  5
4
  2
AME_SOL
 70
    64
 10
0.0
 20
0.0
 30
0.0
  1
AME_SOL
  3
AME_SOL
  0
ENDBLK
  8
0
  5
5
  0
BLOCK
  8
0
  5
557
  2
SOLAXES
 70
     0
 10
0.0
 20
0.0
 30
0.0
  1
SOLAXES
  3
SOLAXES
  0
LINE
  8
0
 62
     0
  5
558
 10
0.0
 20
0.0
 30
0.0
 11
5.509808
 21
0.0
 31
0.0
  0
LINE
  8
0
 62
     0
  5
559
 10
0.0
 20
0.0
 30
0.0
 11
0.0
 21
5.509808
 31
0.0
  0
LINE
  8
0
 62
     0
  5
55A
 10
0.0
 20
0.0
 30
0.0
 11
0.0
 21
0.0
 31
5.509808
  0
CIRCLE
  8
0
 62
     0
  5
55B
 10
0.0
 20
0.0
 30
4.958827
 40
0.27549
210
1.0
220
0.0
230
0.0
  0
LINE
  8
0
 62
     0
  5
55C
 10
4.958827
 20
0.27549
 30
0.0
 11
5.509808
 21
0.0
 31
0.0
  0
LINE
  8
0
 62
     0
  5
55D
 10
4.958827
 20
0.0
 30
0.27549
 11
5.509808
 21
0.0
 31
0.0
  0
LINE
  8
0
 62
     0
  5
55E
 10
4.958827
 20
-0.27549
 30
0.0
 11
5.509808
 21
0.0
 31
0.0
  0
LINE
  8
0
 62
     0
  5
55F
 10
4.958827
 20
0.0
 30
-0.27549
 11
5.509808
 21
0.0
 31
0.0
  0
CIRCLE
  8
0
 62
     0
  5
560
 10
0.0
 20
0.0
 30
4.958827
 40
0.27549
210
0.0
220
1.0
230
0.0
  0
LINE
  8
0
 62
     0
  5
561
 10
0.27549
 20
4.958827
 30
0.0
 11
0.0
 21
5.509808
 31
0.0
  0
LINE
  8
0
 62
     0
  5
562
 10
0.0
 20
4.958827
 30
0.27549
 11
0.0
 21
5.509808
 31
0.0
  0
LINE
  8
0
 62
     0
  5
563
 10
-0.27549
 20
4.958827
 30
0.0
 11
0.0
 21
5.509808
 31
0.0
  0
LINE
  8
0
 62
     0
  5
564
 10
0.0
 20
4.958827
 30
-0.27549
 11
0.0
 21
5.509808
 31
0.0
  0
CIRCLE
  8
0
 62
     0
  5
565
 10
0.0
 20
0.0
 30
4.407846
 40
0.27549
210
0.0
220
1.0
230
0.0
  0
LINE
  8
0
 62
     0
  5
566
 10
0.27549
 20
4.407846
 30
0.0
 11
0.0
 21
4.958827
 31
0.0
  0
LINE
  8
0
 62
     0
  5
567
 10
0.0
 20
4.407846
 30
0.27549
 11
0.0
 21
4.958827
 31
0.0
  0
LINE
  8
0
 62
     0
  5
568
 10
-0.27549
 20
4.407846
 30
0.0
 11
0.0
 21
4.958827
 31
0.0
  0
LINE
  8
0
 62
     0
  5
569
 10
0.0
 20
4.407846
 30
-0.27549
 11
0.0
 21
4.958827
 31
0.0
  0
CIRCLE
  8
0
 62
     0
  5
56A
 10
0.0
 20
0.0
 30
4.958827
 40
0.27549
  0
LINE
  8
0
 62
     0
  5
56B
 10
0.27549
 20
0.0
 30
4.958827
 11
0.0
 21
0.0
 31
5.509808
  0
LINE
  8
0
 62
     0
  5
56C
 10
0.0
 20
0.27549
 30
4.958827
 11
0.0
 21
0.0
 31
5.509808
  0
LINE
  8
0
 62
     0
  5
56D
 10
-0.27549
 20
0.0
 30
4.958827
 11
0.0
 21
0.0
 31
5.509808
  0
LINE
  8
0
 62
     0
  5
56E
 10
0.0
 20
-0.27549
 30
4.958827
 11
0.0
 21
0.0
 31
5.509808
  0
CIRCLE
  8
0
 62
     0
  5
56F
 10
0.0
 20
0.0
 30
4.407846
 40
0.27549
  0
LINE
  8
0
 62
     0
  5
570
 10
0.27549
 20
0.0
 30
4.407846
 11
0.0
 21
0.0
 31
4.958827
  0
LINE
  8
0
 62
     0
  5
571
 10
0.0
 20
0.27549
 30
4.407846
 11
0.0
 21
0.0
 31
4.958827
  0
LINE
  8
0
 62
     0
  5
572
 10
-0.27549
 20
0.0
 30
4.407846
 11
0.0
 21
0.0
 31
4.958827
  0
LINE
  8
0
 62
     0
  5
573
 10
0.0
 20
-0.27549
 30
4.407846
 11
0.0
 21
0.0
 31
4.958827
  0
CIRCLE
  8
0
 62
     0
  5
574
 10
0.0
 20
0.0
 30
3.856865
 40
0.27549
  0
LINE
  8
0
 62
     0
  5
575
 10
0.27549
 20
0.0
 30
3.856865
 11
0.0
 21
0.0
 31
4.407846
  0
LINE
  8
0
 62
     0
  5
576
 10
0.0
 20
0.27549
 30
3.856865
 11
0.0
 21
0.0
 31
4.407846
  0
LINE
  8
0
 62
     0
  5
577
 10
-0.27549
 20
0.0
 30
3.856865
 11
0.0
 21
0.0
 31
4.407846
  0
LINE
  8
0
 62
     0
  5
578
 10
0.0
 20
-0.27549
 30
3.856865
 11
0.0
 21
0.0
 31
4.407846
  0
ENDBLK
  8
0
  5
579
  0
BLOCK
  8
0
  5
109
  2
AME_JNK
 70
     0
 10
0.0
 20
0.0
 30
0.0
  1
AME_JNK
  3
AME_JNK
  0
ENDBLK
  8
0
  5
10A
  0
BLOCK
  8
0
  5
57C
  2
*U10
 70
    65
 10
0.0
 20
0.0
 30
0.0
  1
*U
  3
*U
  0
LINE
  8
0
 62
     7
  5
57D
 10
3.0
 20
15.0
 30
0.0
 11
3.0
 21
15.0
 31
4.0
1001
AME_SOL
1070
     1
1071
       44
  0
LINE
  8
0
 62
     7
  5
57E
 10
3.0
 20
15.0
 30
4.0
 11
3.0
 21
4.0
 31
4.0
1001
AME_SOL
1070
     1
1071
       43
  0
LINE
  8
0
 62
     7
  5
57F
 10
10.0
 20
15.0
 30
4.0
 11
13.0
 21
15.0
 31
4.0
1001
AME_SOL
1070
     1
1071
       42
  0
LINE
  8
0
 62
     7
  5
580
 10
0.0
 20
15.0
 30
4.0
 11
3.0
 21
15.0
 31
4.0
1001
AME_SOL
1070
     1
1071
       41
  0
LINE
  8
0
 62
     7
  5
581
 10
0.0
 20
15.0
 30
0.0
 11
0.0
 21
15.0
 31
4.0
1001
AME_SOL
1070
     1
1071
       40
  0
LINE
  8
0
 62
     7
  5
582
 10
0.0
 20
15.0
 30
4.0
 11
0.0
 21
0.0
 31
4.0
1001
AME_SOL
1070
     1
1071
       39
  0
LINE
  8
0
 62
     7
  5
583
 10
0.0
 20
15.0
 30
0.0
 11
0.0
 21
0.0
 31
0.0
1001
AME_SOL
1070
     1
1071
       38
  0
LINE
  8
0
 62
     7
  5
584
 10
3.0
 20
4.0
 30
0.0
 11
3.0
 21
15.0
 31
0.0
1001
AME_SOL
1070
     1
1071
       37
  0
LINE
  8
0
 62
     7
  5
585
 10
3.0
 20
15.0
 30
0.0
 11
0.0
 21
15.0
 31
0.0
1001
AME_SOL
1070
     1
1071
       36
  0
LINE
  8
0
 62
     7
  5
586
 10
13.0
 20
15.0
 30
0.0
 11
10.0
 21
15.0
 31
0.0
1001
AME_SOL
1070
     1
1071
       35
  0
LINE
  8
0
 62
     7
  5
587
 10
13.0
 20
15.0
 30
0.0
 11
13.0
 21
0.0
 31
0.0
1001
AME_SOL
1070
     1
1071
       34
  0
LINE
  8
0
 62
     7
  5
588
 10
13.0
 20
15.0
 30
4.0
 11
13.0
 21
15.0
 31
0.0
1001
AME_SOL
1070
     1
1071
       33
  0
LINE
  8
0
 62
     7
  5
589
 10
13.0
 20
0.0
 30
4.0
 11
13.0
 21
15.0
 31
4.0
1001
AME_SOL
1070
     1
1071
       32
  0
LINE
  8
0
 62
     7
  5
58A
 10
13.0
 20
0.0
 30
0.0
 11
0.0
 21
0.0
 31
0.0
1001
AME_SOL
1070
     1
1071
       31
  0
LINE
  8
0
 62
     7
  5
58B
 10
0.0
 20
0.0
 30
0.0
 11
0.0
 21
0.0
 31
4.0
1001
AME_SOL
1070
     1
1071
       30
  0
LINE
  8
0
 62
     7
  5
58C
 10
13.0
 20
0.0
 30
4.0
 11
13.0
 21
0.0
 31
0.0
1001
AME_SOL
1070
     1
1071
       29
  0
LINE
  8
0
 62
     7
  5
58D
 10
0.0
 20
0.0
 30
4.0
 11
13.0
 21
0.0
 31
4.0
1001
AME_SOL
1070
     1
1071
       28
  0
ARC
  8
0
 62
     7
  5
58E
 10
4.0
 20
4.0
 30
0.0
 40
1.0
 50
180.0
 51
270.0
1001
AME_SOL
1070
     1
1071
       27
  0
LINE
  8
0
 62
     7
  5
58F
 10
3.0
 20
4.0
 30
0.0
 11
3.0
 21
4.0
 31
4.0
1001
AME_SOL
1070
     1
1071
       26
  0
ARC
  8
0
 62
     7
  5
590
 10
4.0
 20
4.0
 30
4.0
 40
1.0
 50
180.0
 51
270.0
1001
AME_SOL
1070
     1
1071
       25
  0
ARC
  8
0
 62
     7
  5
591
 10
9.0
 20
4.0
 30
0.0
 40
1.0
 50
270.0
 51
0.0
1001
AME_SOL
1070
     1
1071
       24
  0
ARC
  8
0
 62
     7
  5
592
 10
9.0
 20
4.0
 30
4.0
 40
1.0
 50
270.0
 51
0.0
1001
AME_SOL
1070
     1
1071
       23
  0
LINE
  8
0
 62
     7
  5
593
 10
10.0
 20
15.0
 30
0.0
 11
10.0
 21
4.0
 31
0.0
1001
AME_SOL
1070
     1
1071
       22
  0
LINE
  8
0
 62
     7
  5
594
 10
10.0
 20
4.0
 30
0.0
 11
10.0
 21
4.0
 31
4.0
1001
AME_SOL
1070
     1
1071
       21
  0
LINE
  8
0
 62
     7
  5
595
 10
10.0
 20
15.0
 30
4.0
 11
10.0
 21
15.0
 31
0.0
1001
AME_SOL
1070
     1
1071
       20
  0
LINE
  8
0
 62
     7
  5
596
 10
10.0
 20
4.0
 30
4.0
 11
10.0
 21
15.0
 31
4.0
1001
AME_SOL
1070
     1
1071
       19
  0
LINE
  8
0
 62
     7
  5
597
 10
9.0
 20
3.0
 30
0.0
 11
4.0
 21
3.0
 31
0.0
1001
AME_SOL
1070
     1
1071
       18
  0
LINE
  8
0
 62
     7
  5
598
 10
4.0
 20
3.0
 30
0.0
 11
4.0
 21
3.0
 31
4.0
1001
AME_SOL
1070
     1
1071
       17
  0
LINE
  8
0
 62
     7
  5
599
 10
9.0
 20
3.0
 30
0.0
 11
9.0
 21
3.0
 31
4.0
1001
AME_SOL
1070
     1
1071
       16
  0
LINE
  8
0
 62
     7
  5
59A
 10
4.0
 20
3.0
 30
4.0
 11
9.0
 21
3.0
 31
4.0
1001
AME_SOL
1070
     1
1071
       15
  0
POLYLINE
  8
0
 62
     7
  5
59B
 66
     1
 10
0.0
 20
0.0
 30
0.0
 70
     8
  0
VERTEX
  8
0
 62
     7
  5
59C
 10
13.0
 20
11.721688
 30
1.5
 70
    32
  0
VERTEX
  8
0
 62
     7
  5
59D
 10
13.0
 20
11.719109
 30
1.566793
 70
    32
  0
VERTEX
  8
0
 62
     7
  5
59E
 10
13.0
 20
11.711385
 30
1.633287
 70
    32
  0
VERTEX
  8
0
 62
     7
  5
59F
 10
13.0
 20
11.69855
 30
1.699186
 70
    32
  0
VERTEX
  8
0
 62
     7
  5
5A0
 10
13.0
 20
11.68066
 30
1.764195
 70
    32
  0
VERTEX
  8
0
 62
     7
  5
5A1
 10
13.0
 20
11.657797
 30
1.828025
 70
    32
  0
VERTEX
  8
0
 62
     7
  5
5A2
 10
13.0
 20
11.630062
 30
1.890389
 70
    32
  0
VERTEX
  8
0
 62
     7
  5
5A3
 10
13.0
 20
11.597579
 30
1.95101
 70
    32
  0
VERTEX
  8
0
 62
     7
  5
5A4
 10
13.0
 20
11.560493
 30
2.009617
 70
    32
  0
VERTEX
  8
0
 62
     7
  5
5A5
 10
13.0
 20
11.51897
 30
2.065947
 70
    32
  0
VERTEX
  8
0
 62
     7
  5
5A6
 10
13.0
 20
11.473196
 30
2.11975
 70
    32
  0
VERTEX
  8
0
 62
     7
  5
5A7
 10
13.0
 20
11.423373
 30
2.170785
 70
    32
  0
VERTEX
  8
0
 62
     7
  5
5A8
 10
13.0
 20
11.369726
 30
2.218824
 70
    32
  0
VERTEX
  8
0
 62
     7
  5
5A9
 10
13.0
 20
11.312494
 30
2.263652
 70
    32
  0
VERTEX
  8
0
 62
     7
  5
5AA
 10
13.0
 20
11.251932
 30
2.30507
 70
    32
  0
VERTEX
  8
0
 62
     7
  5
5AB
 10
13.0
 20
11.188311
 30
2.342892
 70
    32
  0
VERTEX
  8
0
 62
     7
  5
5AC
 10
13.0
 20
11.121915
 30
2.37695
 70
    32
  0
VERTEX
  8
0
 62
     7
  5
5AD
 10
13.0
 20
11.053041
 30
2.407091
 70
    32
  0
VERTEX
  8
0
 62
     7
  5
5AE
 10
13.0
 20
10.981996
 30
2.433181
 70
    32
  0
VERTEX
  8
0
 62
     7
  5
5AF
 10
13.0
 20
10.909097
 30
2.455102
 70
    32
  0
VERTEX
  8
0
 62
     7
  5
5B0
 10
13.0
 20
10.83467
 30
2.472759
 70
    32
  0
VERTEX
  8
0
 62
     7
  5
5B1
 10
13.0
 20
10.759048
 30
2.48607
 70
    32
  0
VERTEX
  8
0
 62
     7
  5
5B2
 10
13.0
 20
10.682568
 30
2.494978
 70
    32
  0
VERTEX
  8
0
 62
     7
  5
5B3
 10
13.0
 20
10.605572
 30
2.499442
 70
    32
  0
VERTEX
  8
0
 62
     7
  5
5B4
 10
13.0
 20
10.528403
 30
2.499442
 70
    32
  0
VERTEX
  8
0
 62
     7
  5
5B5
 10
13.0
 20
10.451407
 30
2.494978
 70
    32
  0
VERTEX
  8
0
 62
     7
  5
5B6
 10
13.0
 20
10.374927
 30
2.48607
 70
    32
  0
VERTEX
  8
0
 62
     7
  5
5B7
 10
13.0
 20
10.299304
 30
2.472759
 70
    32
  0
VERTEX
  8
0
 62
     7
  5
5B8
 10
13.0
 20
10.224878
 30
2.455102
 70
    32
  0
VERTEX
  8
0
 62
     7
  5
5B9
 10
13.0
 20
10.151979
 30
2.433181
 70
    32
  0
VERTEX
  8
0
 62
     7
  5
5BA
 10
13.0
 20
10.080934
 30
2.407091
 70
    32
  0
VERTEX
  8
0
 62
     7
  5
5BB
 10
13.0
 20
10.012059
 30
2.37695
 70
    32
  0
VERTEX
  8
0
 62
     7
  5
5BC
 10
13.0
 20
9.945663
 30
2.342892
 70
    32
  0
VERTEX
  8
0
 62
     7
  5
5BD
 10
13.0
 20
9.882042
 30
2.30507
 70
    32
  0
VERTEX
  8
0
 62
     7
  5
5BE
 10
13.0
 20
9.82148
 30
2.263652
 70
    32
  0
VERTEX
  8
0
 62
     7
  5
5BF
 10
13.0
 20
9.764248
 30
2.218824
 70
    32
  0
VERTEX
  8
0
 62
     7
  5
5C0
 10
13.0
 20
9.710601
 30
2.170785
 70
    32
  0
VERTEX
  8
0
 62
     7
  5
5C1
 10
13.0
 20
9.660779
 30
2.11975
 70
    32
  0
VERTEX
  8
0
 62
     7
  5
5C2
 10
13.0
 20
9.615004
 30
2.065947
 70
    32
  0
VERTEX
  8
0
 62
     7
  5
5C3
 10
13.0
 20
9.573481
 30
2.009617
 70
    32
  0
VERTEX
  8
0
 62
     7
  5
5C4
 10
13.0
 20
9.536395
 30
1.95101
 70
    32
  0
VERTEX
  8
0
 62
     7
  5
5C5
 10
13.0
 20
9.503912
 30
1.890389
 70
    32
  0
VERTEX
  8
0
 62
     7
  5
5C6
 10
13.0
 20
9.476177
 30
1.828025
 70
    32
  0
VERTEX
  8
0
 62
     7
  5
5C7
 10
13.0
 20
9.453314
 30
1.764195
 70
    32
  0
VERTEX
  8
0
 62
     7
  5
5C8
 10
13.0
 20
9.435425
 30
1.699186
 70
    32
  0
VERTEX
  8
0
 62
     7
  5
5C9
 10
13.0
 20
9.42259
 30
1.633287
 70
    32
  0
VERTEX
  8
0
 62
     7
  5
5CA
 10
13.0
 20
9.414865
 30
1.566793
 70
    32
  0
VERTEX
  8
0
 62
     7
  5
5CB
 10
13.0
 20
9.412287
 30
1.5
 70
    32
  0
VERTEX
  8
0
 62
     7
  5
5CC
 10
13.0
 20
9.414865
 30
1.433207
 70
    32
  0
VERTEX
  8
0
 62
     7
  5
5CD
 10
13.0
 20
9.42259
 30
1.366713
 70
    32
  0
VERTEX
  8
0
 62
     7
  5
5CE
 10
13.0
 20
9.435425
 30
1.300814
 70
    32
  0
VERTEX
  8
0
 62
     7
  5
5CF
 10
13.0
 20
9.476177
 30
1.171975
 70
    32
  0
VERTEX
  8
0
 62
     7
  5
5D0
 10
13.0
 20
9.536395
 30
1.04899
 70
    32
  0
VERTEX
  8
0
 62
     7
  5
5D1
 10
13.0
 20
9.615004
 30
0.934053
 70
    32
  0
VERTEX
  8
0
 62
     7
  5
5D2
 10
13.0
 20
9.710601
 30
0.829215
 70
    32
  0
VERTEX
  8
0
 62
     7
  5
5D3
 10
13.0
 20
9.82148
 30
0.736348
 70
    32
  0
VERTEX
  8
0
 62
     7
  5
5D4
 10
13.0
 20
9.945663
 30
0.657108
 70
    32
  0
VERTEX
  8
0
 62
     7
  5
5D5
 10
13.0
 20
10.080934
 30
0.592909
 70
    32
  0
VERTEX
  8
0
 62
     7
  5
5D6
 10
13.0
 20
10.224878
 30
0.544898
 70
    32
  0
VERTEX
  8
0
 62
     7
  5
5D7
 10
13.0
 20
10.374927
 30
0.51393
 70
    32
  0
VERTEX
  8
0
 62
     7
  5
5D8
 10
13.0
 20
10.528403
 30
0.500558
 70
    32
  0
VERTEX
  8
0
 62
     7
  5
5D9
 10
13.0
 20
10.682568
 30
0.505022
 70
    32
  0
VERTEX
  8
0
 62
     7
  5
5DA
 10
13.0
 20
10.83467
 30
0.527241
 70
    32
  0
VERTEX
  8
0
 62
     7
  5
5DB
 10
13.0
 20
10.981996
 30
0.566819
 70
    32
  0
VERTEX
  8
0
 62
     7
  5
5DC
 10
13.0
 20
11.121915
 30
0.62305
 70
    32
  0
VERTEX
  8
0
 62
     7
  5
5DD
 10
13.0
 20
11.251932
 30
0.69493
 70
    32
  0
VERTEX
  8
0
 62
     7
  5
5DE
 10
13.0
 20
11.369726
 30
0.781176
 70
    32
  0
VERTEX
  8
0
 62
     7
  5
5DF
 10
13.0
 20
11.473196
 30
0.88025
 70
    32
  0
VERTEX
  8
0
 62
     7
  5
5E0
 10
13.0
 20
11.560493
 30
0.990383
 70
    32
  0
VERTEX
  8
0
 62
     7
  5
5E1
 10
13.0
 20
11.630062
 30
1.109611
 70
    32
  0
VERTEX
  8
0
 62
     7
  5
5E2
 10
13.0
 20
11.68066
 30
1.235805
 70
    32
  0
VERTEX
  8
0
 62
     7
  5
5E3
 10
13.0
 20
11.721688
 30
1.5
 70
    32
  0
SEQEND
  8
0
 62
     7
  5
5E4
1001
AME_SOL
1070
     1
1071
       14
  0
POLYLINE
  8
0
 62
     7
  5
5E5
 66
     1
 10
0.0
 20
0.0
 30
0.0
 70
     8
  0
VERTEX
  8
0
 62
     7
  5
5E6
 10
10.0
 20
9.989637
 30
1.5
 70
    32
  0
VERTEX
  8
0
 62
     7
  5
5E7
 10
10.0
 20
9.987058
 30
1.566793
 70
    32
  0
VERTEX
  8
0
 62
     7
  5
5E8
 10
10.0
 20
9.979334
 30
1.633287
 70
    32
  0
VERTEX
  8
0
 62
     7
  5
5E9
 10
10.0
 20
9.966499
 30
1.699186
 70
    32
  0
VERTEX
  8
0
 62
     7
  5
5EA
 10
10.0
 20
9.94861
 30
1.764195
 70
    32
  0
VERTEX
  8
0
 62
     7
  5
5EB
 10
10.0
 20
9.925746
 30
1.828025
 70
    32
  0
VERTEX
  8
0
 62
     7
  5
5EC
 10
10.0
 20
9.898011
 30
1.890389
 70
    32
  0
VERTEX
  8
0
 62
     7
  5
5ED
 10
10.0
 20
9.865528
 30
1.95101
 70
    32
  0
VERTEX
  8
0
 62
     7
  5
5EE
 10
10.0
 20
9.828443
 30
2.009617
 70
    32
  0
VERTEX
  8
0
 62
     7
  5
5EF
 10
10.0
 20
9.78692
 30
2.065947
 70
    32
  0
VERTEX
  8
0
 62
     7
  5
5F0
 10
10.0
 20
9.741145
 30
2.11975
 70
    32
  0
VERTEX
  8
0
 62
     7
  5
5F1
 10
10.0
 20
9.691323
 30
2.170785
 70
    32
  0
VERTEX
  8
0
 62
     7
  5
5F2
 10
10.0
 20
9.637676
 30
2.218824
 70
    32
  0
VERTEX
  8
0
 62
     7
  5
5F3
 10
10.0
 20
9.580443
 30
2.263652
 70
    32
  0
VERTEX
  8
0
 62
     7
  5
5F4
 10
10.0
 20
9.519881
 30
2.30507
 70
    32
  0
VERTEX
  8
0
 62
     7
  5
5F5
 10
10.0
 20
9.45626
 30
2.342892
 70
    32
  0
VERTEX
  8
0
 62
     7
  5
5F6
 10
10.0
 20
9.389865
 30
2.37695
 70
    32
  0
VERTEX
  8
0
 62
     7
  5
5F7
 10
10.0
 20
9.32099
 30
2.407091
 70
    32
  0
VERTEX
  8
0
 62
     7
  5
5F8
 10
10.0
 20
9.249945
 30
2.433181
 70
    32
  0
VERTEX
  8
0
 62
     7
  5
5F9
 10
10.0
 20
9.177046
 30
2.455102
 70
    32
  0
VERTEX
  8
0
 62
     7
  5
5FA
 10
10.0
 20
9.102619
 30
2.472759
 70
    32
  0
VERTEX
  8
0
 62
     7
  5
5FB
 10
10.0
 20
9.026997
 30
2.48607
 70
    32
  0
VERTEX
  8
0
 62
     7
  5
5FC
 10
10.0
 20
8.950517
 30
2.494978
 70
    32
  0
VERTEX
  8
0
 62
     7
  5
5FD
 10
10.0
 20
8.873521
 30
2.499442
 70
    32
  0
VERTEX
  8
0
 62
     7
  5
5FE
 10
10.0
 20
8.796352
 30
2.499442
 70
    32
  0
VERTEX
  8
0
 62
     7
  5
5FF
 10
10.0
 20
8.719356
 30
2.494978
 70
    32
  0
VERTEX
  8
0
 62
     7
  5
600
 10
10.0
 20
8.642876
 30
2.48607
 70
    32
  0
VERTEX
  8
0
 62
     7
  5
601
 10
10.0
 20
8.567254
 30
2.472759
 70
    32
  0
VERTEX
  8
0
 62
     7
  5
602
 10
10.0
 20
8.492827
 30
2.455102
 70
    32
  0
VERTEX
  8
0
 62
     7
  5
603
 10
10.0
 20
8.419928
 30
2.433181
 70
    32
  0
VERTEX
  8
0
 62
     7
  5
604
 10
10.0
 20
8.348883
 30
2.407091
 70
    32
  0
VERTEX
  8
0
 62
     7
  5
605
 10
10.0
 20
8.280008
 30
2.37695
 70
    32
  0
VERTEX
  8
0
 62
     7
  5
606
 10
10.0
 20
8.213613
 30
2.342892
 70
    32
  0
VERTEX
  8
0
 62
     7
  5
607
 10
10.0
 20
8.149992
 30
2.30507
 70
    32
  0
VERTEX
  8
0
 62
     7
  5
608
 10
10.0
 20
8.08943
 30
2.263652
 70
    32
  0
VERTEX
  8
0
 62
     7
  5
609
 10
10.0
 20
8.032197
 30
2.218824
 70
    32
  0
VERTEX
  8
0
 62
     7
  5
60A
 10
10.0
 20
7.97855
 30
2.170785
 70
    32
  0
VERTEX
  8
0
 62
     7
  5
60B
 10
10.0
 20
7.928728
 30
2.11975
 70
    32
  0
VERTEX
  8
0
 62
     7
  5
60C
 10
10.0
 20
7.882953
 30
2.065947
 70
    32
  0
VERTEX
  8
0
 62
     7
  5
60D
 10
10.0
 20
7.84143
 30
2.009617
 70
    32
  0
VERTEX
  8
0
 62
     7
  5
60E
 10
10.0
 20
7.804345
 30
1.95101
 70
    32
  0
VERTEX
  8
0
 62
     7
  5
60F
 10
10.0
 20
7.771862
 30
1.890389
 70
    32
  0
VERTEX
  8
0
 62
     7
  5
610
 10
10.0
 20
7.744127
 30
1.828025
 70
    32
  0
VERTEX
  8
0
 62
     7
  5
611
 10
10.0
 20
7.721263
 30
1.764195
 70
    32
  0
VERTEX
  8
0
 62
     7
  5
612
 10
10.0
 20
7.703374
 30
1.699186
 70
    32
  0
VERTEX
  8
0
 62
     7
  5
613
 10
10.0
 20
7.690539
 30
1.633287
 70
    32
  0
VERTEX
  8
0
 62
     7
  5
614
 10
10.0
 20
7.682815
 30
1.566793
 70
    32
  0
VERTEX
  8
0
 62
     7
  5
615
 10
10.0
 20
7.680236
 30
1.5
 70
    32
  0
VERTEX
  8
0
 62
     7
  5
616
 10
10.0
 20
7.682815
 30
1.433207
 70
    32
  0
VERTEX
  8
0
 62
     7
  5
617
 10
10.0
 20
7.690539
 30
1.366713
 70
    32
  0
VERTEX
  8
0
 62
     7
  5
618
 10
10.0
 20
7.703374
 30
1.300814
 70
    32
  0
VERTEX
  8
0
 62
     7
  5
619
 10
10.0
 20
7.744127
 30
1.171975
 70
    32
  0
VERTEX
  8
0
 62
     7
  5
61A
 10
10.0
 20
7.804345
 30
1.04899
 70
    32
  0
VERTEX
  8
0
 62
     7
  5
61B
 10
10.0
 20
7.882953
 30
0.934053
 70
    32
  0
VERTEX
  8
0
 62
     7
  5
61C
 10
10.0
 20
7.97855
 30
0.829215
 70
    32
  0
VERTEX
  8
0
 62
     7
  5
61D
 10
10.0
 20
8.08943
 30
0.736348
 70
    32
  0
VERTEX
  8
0
 62
     7
  5
61E
 10
10.0
 20
8.213613
 30
0.657108
 70
    32
  0
VERTEX
  8
0
 62
     7
  5
61F
 10
10.0
 20
8.348883
 30
0.592909
 70
    32
  0
VERTEX
  8
0
 62
     7
  5
620
 10
10.0
 20
8.492827
 30
0.544898
 70
    32
  0
VERTEX
  8
0
 62
     7
  5
621
 10
10.0
 20
8.642876
 30
0.51393
 70
    32
  0
VERTEX
  8
0
 62
     7
  5
622
 10
10.0
 20
8.796352
 30
0.500558
 70
    32
  0
VERTEX
  8
0
 62
     7
  5
623
 10
10.0
 20
8.950517
 30
0.505022
 70
    32
  0
VERTEX
  8
0
 62
     7
  5
624
 10
10.0
 20
9.102619
 30
0.527241
 70
    32
  0
VERTEX
  8
0
 62
     7
  5
625
 10
10.0
 20
9.249945
 30
0.566819
 70
    32
  0
VERTEX
  8
0
 62
     7
  5
626
 10
10.0
 20
9.389865
 30
0.62305
 70
    32
  0
VERTEX
  8
0
 62
     7
  5
627
 10
10.0
 20
9.519881
 30
0.69493
 70
    32
  0
VERTEX
  8
0
 62
     7
  5
628
 10
10.0
 20
9.637676
 30
0.781176
 70
    32
  0
VERTEX
  8
0
 62
     7
  5
629
 10
10.0
 20
9.741145
 30
0.88025
 70
    32
  0
VERTEX
  8
0
 62
     7
  5
62A
 10
10.0
 20
9.828443
 30
0.990383
 70
    32
  0
VERTEX
  8
0
 62
     7
  5
62B
 10
10.0
 20
9.898011
 30
1.109611
 70
    32
  0
VERTEX
  8
0
 62
     7
  5
62C
 10
10.0
 20
9.94861
 30
1.235805
 70
    32
  0
VERTEX
  8
0
 62
     7
  5
62D
 10
10.0
 20
9.989637
 30
1.5
 70
    32
  0
SEQEND
  8
0
 62
     7
  5
62E
1001
AME_SOL
1070
     1
1071
       13
  0
LINE
  8
0
 62
     7
  5
62F
 10
4.0
 20
3.0
 30
0.0
 11
4.0
 21
3.0
 31
4.0
1001
AME_SOL
1070
     0
1071
        5
  0
LINE
  8
0
 62
     7
  5
630
 10
3.0
 20
4.0
 30
0.0
 11
3.0
 21
4.0
 31
4.0
1001
AME_SOL
1070
     0
1071
        5
  0
LINE
  8
0
 62
     7
  5
631
 10
10.0
 20
4.0
 30
0.0
 11
10.0
 21
4.0
 31
4.0
1001
AME_SOL
1070
     0
1071
        4
  0
LINE
  8
0
 62
     7
  5
632
 10
9.0
 20
3.0
 30
0.0
 11
9.0
 21
3.0
 31
4.0
1001
AME_SOL
1070
     0
1071
        4
  0
LINE
  8
0
 62
     7
  5
633
 10
13.0
 20
11.721688
 30
1.5
 11
10.0
 21
9.989637
 31
1.5
1001
AME_SOL
1070
     0
1071
        1
  0
LINE
  8
0
 62
     7
  5
634
 10
13.0
 20
10.566987
 30
2.5
 11
10.0
 21
8.834936
 31
2.5
1001
AME_SOL
1070
     0
1071
        1
  0
LINE
  8
0
 62
     7
  5
635
 10
13.0
 20
9.412287
 30
1.5
 11
10.0
 21
7.680236
 31
1.5
1001
AME_SOL
1070
     0
1071
        1
  0
LINE
  8
0
 62
     7
  5
636
 10
13.0
 20
10.566987
 30
0.5
 11
10.0
 21
8.834936
 31
0.5
1001
AME_SOL
1070
     0
1071
        1
  0
ENDBLK
  8
0
  5
637
  0
ENDSEC
  0
SECTION
  2
ENTITIES
  0
INSERT
  8
AME_FRZ
  5
82
  2
AME_NIL
 10
4.0
 20
4.0
 30
0.0
1001
AME_SOL
1002
{
1070
     1
1071
  2432752
1070
  1538
1070
     0
1010
1.0
1020
1.0
1030
4.0
1005
0
1005
0
1005
EA
1040
0.0
1040
1.0
1070
     0
1000
MILD_STEEL
1000
0
1010
4.0
1020
4.0
1030
0.0
1010
0.0
1020
0.0
1030
1.0
1040
0.0
1002
}
  0
INSERT
  8
AME_FRZ
  5
B2
  2
AME_NIL
 10
9.0
 20
4.0
 30
0.0
1001
AME_SOL
1002
{
1070
     1
1071
  2431696
1070
  1538
1070
     0
1010
1.0
1020
1.0
1030
4.0
1005
0
1005
0
1005
EA
1040
0.0
1040
1.0
1070
     0
1000
MILD_STEEL
1000
0
1010
9.0
1020
4.0
1030
0.0
1010
0.0
1020
0.0
1030
1.0
1040
0.0
1002
}
  0
INSERT
  8
AME_FRZ
  5
E7
  2
AME_NIL
 10
0.0
 20
0.0
 30
0.0
1001
AME_SOL
1002
{
1070
     1
1071
  2434792
1070
  1536
1070
     0
1010
13.0
1020
8.0
1030
4.0
1005
0
1005
0
1005
106
1040
0.0
1040
1.0
1070
     0
1000
MILD_STEEL
1000
0
1010
0.0
1020
0.0
1030
0.0
1010
0.0
1020
0.0
1030
1.0
1040
0.0
1002
}
  0
INSERT
  8
AME_FRZ
  5
EA
  2
AME_NIL
 10
0.0
 20
0.0
 30
0.0
1001
AME_SOL
1002
{
1070
     1
1071
  2435752
1070
   775
1070
     0
1070
     2
1005
82
1005
B2
1005
0
1005
0
1005
106
1040
0.0
1040
1.0
1070
     0
1000
MILD_STEEL
1000
0
1010
0.0
1020
0.0
1030
0.0
1010
0.0
1020
0.0
1030
1.0
1040
0.0
1002
}
  0
INSERT
  8
AME_FRZ
  5
106
  2
AME_NIL
 10
0.0
 20
0.0
 30
0.0
1001
AME_SOL
1002
{
1070
     1
1071
  2425640
1070
  1543
1070
     0
1070
     0
1005
E7
1005
EA
1005
0
1005
0
1005
144
1040
0.0
1040
1.0
1070
     0
1000
MILD_STEEL
1000
0
1010
0.0
1020
0.0
1030
0.0
1010
0.0
1020
0.0
1030
1.0
1040
0.0
1002
}
  0
INSERT
  8
AME_FRZ
  5
11A
  2
AME_NIL
 10
3.0
 20
4.0
 30
0.0
1001
AME_SOL
1002
{
1070
     1
1071
  2424824
1070
  1536
1070
     0
1010
7.0
1020
4.0
1030
4.0
1005
0
1005
0
1005
144
1040
0.0
1040
1.0
1070
     0
1000
MILD_STEEL
1000
0
1010
3.0
1020
4.0
1030
0.0
1010
0.0
1020
0.0
1030
1.0
1040
0.0
1002
}
  0
INSERT
  8
AME_FRZ
  5
144
  2
AME_NIL
 10
0.0
 20
0.0
 30
0.0
1001
AME_SOL
1002
{
1070
     1
1071
  2422128
1070
  1543
1070
     0
1070
     0
1005
106
1005
11A
1005
0
1005
0
1005
17E
1040
0.0
1040
1.0
1070
     0
1000
MILD_STEEL
1000
0
1010
0.0
1020
0.0
1030
0.0
1010
0.0
1020
0.0
1030
1.0
1040
0.0
1002
}
  0
INSERT
  8
AME_FRZ
  5
156
  2
AME_NIL
 10
4.0
 20
3.0
 30
0.0
1001
AME_SOL
1002
{
1070
     1
1071
  2422976
1070
  1536
1070
     0
1010
5.0
1020
5.0
1030
4.0
1005
0
1005
0
1005
17E
1040
0.0
1040
1.0
1070
     0
1000
MILD_STEEL
1000
0
1010
4.0
1020
3.0
1030
0.0
1010
0.0
1020
0.0
1030
1.0
1040
0.0
1002
}
  0
INSERT
  8
AME_FRZ
  5
17E
  2
AME_NIL
 10
0.0
 20
0.0
 30
0.0
1001
AME_SOL
1002
{
1070
     1
1071
  2423952
1070
  1543
1070
     1
1070
     0
1005
144
1005
156
1005
0
1005
0
1005
1A6
1040
0.0
1040
1.0
1070
     0
1000
MILD_STEEL
1000
0
1010
0.0
1020
0.0
1030
0.0
1010
0.0
1020
0.0
1030
1.0
1040
0.0
1002
}
  0
INSERT
  8
AME_FRZ
  5
182
  2
AME_NIL
 10
0.0
 20
0.0
 30
0.0
  0
INSERT
  8
AME_FRZ
  5
183
  2
AME_SOL
 10
0.0
 20
0.0
 30
0.0
1001
AME_SOL
1000
R2.1
1000
AME2
1000
sq cm
1070
     3
1070
     0
1070
     3
1000
wire
1040
45.0
1000
U
1040
1.0
1000
cm
1000
gm
1000
MILD_STEEL
1070
    25
1000
CSG
1070
     1
1070
     3
1070
     3
1070
     3
1070
     0
1000
cu cm
1070
     1
1070
     0
1005
182
  0
INSERT
  8
AME_FRZ
  5
192
  2
AME_NIL
 10
0.0
 20
8.0
 30
0.0
1001
AME_SOL
1002
{
1070
     1
1071
  2558816
1070
  1536
1070
     1
1010
3.0
1020
7.0
1030
4.0
1005
0
1005
0
1005
1A6
1040
0.0
1040
1.0
1070
     0
1000
MILD_STEEL
1000
0
1010
0.0
1020
8.0
1030
0.0
1010
0.0
1020
0.0
1030
1.0
1040
0.0
1002
}
1001
AVE_INVOKE
1000
SOLAVEMESH
  0
INSERT
  8
AME_FRZ
  5
1A3
  2
AME_NIL
 10
10.0
 20
8.0
 30
0.0
1001
AME_SOL
1002
{
1070
     1
1071
  2461816
1070
  1536
1070
     1
1010
3.0
1020
7.0
1030
4.0
1005
0
1005
0
1005
1CC
1040
0.0
1040
1.0
1070
     0
1000
MILD_STEEL
1000
0
1010
10.0
1020
8.0
1030
0.0
1010
0.0
1020
0.0
1030
1.0
1040
0.0
1002
}
1001
AVE_INVOKE
1000
SOLAVEMESH
  0
INSERT
  8
AME_FRZ
  5
1A6
  2
AME_NIL
 10
0.0
 20
0.0
 30
0.0
1001
AME_SOL
1002
{
1070
     1
1071
  2412056
1070
   775
1070
     0
1070
     2
1005
192
1005
17E
1005
0
1005
0
1005
1CC
1040
0.0
1040
1.0
1070
     0
1000
MILD_STEEL
1000
0
1010
0.0
1020
0.0
1030
0.0
1010
0.0
1020
0.0
1030
1.0
1040
0.0
1002
}
  0
INSERT
  8
AME_FRZ
  5
1CC
  2
AME_NIL
 10
0.0
 20
0.0
 30
0.0
1001
AME_SOL
1002
{
1070
     1
1071
  2413656
1070
  1543
1070
     1
1070
     2
1005
1A6
1005
1A3
1005
0
1005
0
1005
638
1040
0.0
1040
1.0
1070
     0
1000
MILD_STEEL
1000
0
1010
0.0
1020
0.0
1030
0.0
1010
0.0
1020
0.0
1030
1.0
1040
0.0
1002
}
1001
AVE_INVOKE
1000
SOLAVEMESH
  0
INSERT
  8
AME_FRZ
  5
1CD
  2
AME_NIL
 10
1.0
 20
1.0
 30
1.0
1001
AME_SOL
1004
C7CF0100130189018801860182017A016C015C014801DB00250049013501500015003601B10044005D014A013701FC005F00EA004E006D0126005E014B016A000A0071007B016E015F0160004C01FB003801F20026011E01430012016700A0001D006001DF004D0183000900FF0083017C016F0161014E01
1004
E800A4009600E200700120004F007D01710162014F010300EE0050013901140027011F002300C800010072015400FE00870184017E017301630151013A012801EF0042002901AB004D003B012A011F011E001301EB006800200114014900D0001501010100010B000201880017002B012101160103011900
1004
1A0004013000F30017010501340081000601F100ED00220118010701EC00A2000801DE004B0019010901A9004C000A01510052007500640152013C01B000C6003D012C0123011A010B01B30055000C01B400B5001B010D01B60058000E01CE00CC000C00040053010500840074013F00650154013E012D01
1004
180022002E01F900E500C00082007F017501020066018000550124003F012F0124011C010F01BD00CB0010016C00CA0028001300300198001C007601BF00670190002A00850180017701680156012E0040013101B800C4003201E000A8002700690157013B005700580141010700E6004201C1002D007801
1004
6A01590143013301250129001D011101C90065001600F8008E004401D8001100080010008101400079016B015A0145017000D5004601F70034019F00FD005B01210047010F00D900F00000000530053041E091B040C63D07EF2416CDE9CA24F2CE5CB272893CB3972C9CA24F2CE5CB361C6C57B55EE69871
1004
B15ED581CF449E59CDB6E3789099175991410CA29ECE5991410CA2998E4E51279672E59B0E362BDAA62E4058579DE661CA6AE7A24F2CE6DB71B4706043C28C79B4C8DD1C1FFBE97FFFFFFFFEFA5FB6EFDABBFD1BFFFFFFFFFE8E0FFDF4BFFFFFFFFF7D2FDB77ED5DFE8DFFFFFFFFFDF58484C8BBED1B49E2
1004
F232DCC309E6A2102400CA7272893CB3972CD871B15ED559CD30E362BDAB039E893CB39B6DC6D1C1ABCAEB18C7A9453F4707FFFFFEFA5FFFBE97FFEACEFCA77FA37FFFFFFFFFD5C0A68E0FFEABF7D6FEABFAAFEABF7D6FD59DF94EFDB7237FFFFFFFFFD1C1FFD57EFADFD57F55FD57EFADFAB3BF29DFB6E4
1004
6FFFFFFFFFEFAC242645D8613CD4420480194E5991410CA2998E4E51279672E59B0E362BDAAB38A24F2CE6CC8E7A24F2CE6DB71B050666056318F36824618283FF7D2FFFFFFFDF4BFFF4C5DFB6EFF46FEFA5FBE97FFFFF8283FF7D2FFFFFFFDF4BFFF4C5DFB6EFF46FEFA5FBE97FFFFEFAC8182F9143FEFA
1004
5FFFFFFFBE97F9E318C637A77E6477FA90D7B8B9806000B0A0D7B8B9806000B024DFE81829BC8A1FF7D2FFFFFFFDF4BFFF5677EDBBFD486BDC5CC0300058506BDC5CC030005813FEA70D7B8B9806000B0AFFFDB706BDC5CC0300058126FFFFDB7290282063138F38C66FFFFDB72060AA72287FDF4BFFFFFF
1004
F7D2FF3C6318C6F4EFDABBFD486BDC5CC0300058506BDC5CC030005813FEA70D7B8B9806000B0AFFFDB706BDC5CC0300058126FFFFDB729661E3181410319BFFFF6DC81829872287FDF4BFFFFFFF7D2FFFCA735FB6EFF521AF717300C0016141AF717300C0016049BFC484C8BACC8A086514CC72CC8A0865
1004
14CC7272893CB3972C5127967366471449E59CD991CF449E59CDB6E360A0D52215A31E6CB45E0A0FFDF4BFFFFFFF7D2FFFDB77EDBBFD1BFBE97EFA5FFFFFE0A0FFDF4BFFFFFFF7D2FFFDB77EDBBFD1BFBE97EFA5FFFFFBEB2060BE450FFBE97FFFFFFEFA5FED08C6318DECEFCC8EFF521AF717300C001614
1004
1AF717300C0016049BFD0305379143FEFA5FFFFFFFBE97FFE6477EDBBFD486BDC5CC0300058506BDC5CC0300058126FF40C154E450FFBE97FFFFFFEFA5FED08C6318DECEFDABBFD486BDC5CC0300058506BDC5CC030005813FEA70D7B8B9806000B0AFFFDB706BDC5CC0300058126FFFFDB72903090C6CC3
1004
C6337FFFEDB9030530E450FFBE97FFFFFFEFA5FFFB5735FB6EFF521AF717300C0016141AF717300C001604FFA9C35EE2E6018002C2BFFF6DC1AF717300C0016049BFFFF6DCA5CF38C6061218CDFFFFB6E121322E9CA24F2CE5CB272893CB3972C9CA24F2CE5CB361C6C57B55EE4E51279672E49E893CB39B
1004
6DC6D1C1C0CAD379B451A2F4707FEFA5FFFFFFFFFBE97FFFFFA37FFFFFFFFFD1C1FFBE97FFFFFFFFEFA5FFFFFE8DFFFFFFFFFDF48484C8BBED1B49E2F2680E6184F351081200653939449E59CB966C38D8AF6ABDCD30E362BDAB039E893CB39B6DC6D1C1880614DEA5A09D1C1FFD57EFADFD57F55FD57EFA
1004
DFAF77EC0EFDB7237FFFFFFFFFC0C8BD1C1FFD57EFADFD57F55FD57EFADFAF77E53BF6DC8DFFFFFFFFFF4707FF55FBEB7F55FD57F55FBEB7EBDDF94EFDB7237FFFFFFFFF7D2121306DF68DA4F179196E6184F351081200653939449E59CB966C38D8AF6ABDCD30E362BDAB03939449E59CB92368E0CCD9C0
1004
33798514DD1C1FFFFBE97FFEFA5FFFFFAB3BF29DFE8DFFFFFFFFFF45222F4707FFFEFA5FFFBE97FFFFFFFFFA37FFFFFFFFFD0628DA383FFFF7D2FFFDF4BFFFFFFF29DFE8DFFFFFFFFFF4707FFFEFA5FFFBE97FFFFFFE53BFD1BFFFFFFFFFBE909099174E51279672E5939449E59CB964E51279672E593944
1004
9E59CB926C38D8AF6A539E893CB39B6DC6D1C19026614DEA51448BD1C1FFFFFFBE97FFEFA5FFFFFFFE8DFFFFFFFFFF4C11B4707FFFFFEFA5FFFBE97FFFFE53BFD1BFFFFFFFFFE8E0FFFFFFDF4BFFF7D2FFFFFCA77FA37FFFFFFFFF7D2121306DF68DA4F179196E6184F3510812006539664504328A7B39B0
1004
E362BDAAF734C38D8AF6AC0E7A24F2CE6DB71B4706F06685379855C3D1C1FFBEB7F55FD57F55FBEB7F55FAF77EC0EFDB7237FFFFFFFFFD1408BD1C1FFBEB7F55FD57F55FBEB7F55FAF77E53BF6DC8DFFFFFFFFFF417A368E0FFDF5BFAAFEABFAAFDF5BFAAFDABBF6077EDB91BFFFFFFFFFE8E0FFDF5BFAAF
1004
EABFAAFDF5BFAAFDABBF6077EDB91BFFFFFFFFFBE909099ADF68DA4F179196E7DA3693C5E4CF7272893CB3972CD871B15ED57B9A61C6C57B56073D12796736DB8DA38320448537A9571F4707FF55FD57EFADFBEB7F55FD57EBDDFB03BF6DC8DFFFFFFFFFF68346D1C1FFD57F55FBEB7EFADFD57F55FB577E
1004
C0EFDB7237FFFFFFFFFD1C1FFD57F55FBEB7EFADFD57F55FB577EC0EFDB7237FFFFFFFFF7D2121322EB322821945331CB3228219453D9C9CA24F2CE5CB202C2BCEF330E5357361C6C57B529CF449E59CDB6E368E0D84050A6F529AA68E0FFFFFFDF4BFFF7D2FFFDABBF6DDFE8DFFFFFFFFFF02A368E0FFEA
1004
BF7D6FEABFAAFEABF7D6FDABBF6077EDB91BFFFFFFFFFE8E0FFEABF7D6FEABFAAFEABF7D6FDABBF6077EDB91BFFFFFFFFFBE91098ACC8A086514F672CC8A086514CC72CC8A086514F67361C6C57B54C5C80B0AF3BCCC394D5CF449E59CDB6EFD864BF6837292285C824173631810F0AF06685D4BC19A1408
1004
785378C6319143FFFFFEFA5FFFBEB7FFE8ABBF6AEFDB729FD864BF68371098B0C279A8840900329CB322821945331C2C51279672E59B0E362BDAA62E138C2BCEF330E53573D12796736DBBFFF6DCA48A17820E029B18CD810F0A660563D4810F0A66056318C6318C632287FDF4BFFFFFFF7D2FFFD3177ED5
1004
DFEA7FFF6DC4262B3228219453D9CB322821945331C2C51279672E58A24F2CE6CC8E138C2BCEF330E53573D12796736DBBFFF6DCA48A113B41B85366C63021E1552215BA9548856810F0A318C6318C6450FFBE97FFFFFFEFA5FFFB6EFDABBFD4FFFEDB884C5664504328A7B39664504328A663939449E59C
1004
B966C38D8AF6A98B901615E77998729AB939449E59CB92FD5F4DFE9AA48A1415310B9B18C08785336700F5266CE01810F0A6F18C632287FFFFFDF5BFFF7D6FFFEEFDABBFD4FEAFA6FF4D21317DA3693C5E465B9664504328A7B39664504328A7B39B0E362BDAAB39A61C6C57B56073D12796736DBBF4109B
1004
FA2AE52450DF0B9B18D5E5758DE0CD0BA9783342ABCAEB19BC6318C8A1FFFFFF7D2FDF4BFFFFF5677EC5DFB6E53FA084DFD1571098BED1B49E2F232DCFB46D278BC99EE4E51279672E59B0E362BDAAB39A61C6C57B56073D12796736DBBFFF6DCA48A141920D82E6C635795D63204485D4902242ABCAEB19
1004
BC6318C8A1FFFF7D2FFFDF4BFAAFFFD59DFB03BF6DCA7FFF6DC4262FB46D278BC8CB72CC8A086514F67272893CB3972CD871B15ED559C5127967366473D12796736DBBFFF6DCA48A110260A6CD8C6AF2BAC6660563D4998158D5E5758C6318C6318C8A1FF7D2FFFFFFFDF4BFFF5677EDBBFD4FFFEDB884C5
1004
F68DA4F179196E5991410CA29ECE4E51279672E59B0E362BDAAB39A61C6C57B5607272893CB39725FABE9BFB6E52450AE41985CD8C6AF2BAC666CE01EA4CD9C035795D63378C6319143FFFFFEFADFBE97FFFFEACEFCA77FA9FD5F4DFDB71098B0C279A8840900329CB322821945331CB3228219453D9CD87
1004
1B15ED559C5127967366473D12796736DB9306781CE127A4C96FF52084253C4079B18CCC0AC6F06685D4BC19A14CC0AC66F18C630421FF7D2FFFFFFFDF4BFFF4C5DFB6EFDB722FFBE97EFA49833C0E7093D264B7F9098B0C279A8840900329CB322821945331C9CA24F2CE5CB361C6C57B55671449E59CD9
1004
91C9CA24F2CE5C9260CF039C24F4992DFEA41085B7995B8C66CCC0AC666CE01EA4CC0AC666CE018C6319BC1087FDF4BFFFFFFF7D2FFFD3177EDBBFD17FDF4BF7D24C19E073849E9325BFC84C5664504328A6639664504328A6639664504328A7B38A24F2CE6CC8E2893CB39B3239E893CB39B6DCAE59E073
1004
849E85D35306781CE127A4C965208420441D00F3631AA442B5E0CD0BA9783342AA442B4DE318C60843FEFA5FFFFFFFBE97FFEDBBF6DDFB6E45FF7D2FDF495CB3C0E7093D0BA6A60CF039C24F4992C4262B322821945331CB3228219453D9C9CA24F2CE5CB202C2BCEF330E53571449E59CD991CF449E59CD
1004
B6EFFFDB72922844ED5D0A6CD8C6A910AD610142EA584050AA910AD378C6319143FEFA5FFFFFFFBE97FFED5DFB6EFF53FFFB6E21315991410CA2998E5991410CA2998E4E51279672E58A24F2CE6CC8E2893CB39B323939449E59CB92572CF039C24F42E9A9833C0E7093D264B2904213341C80F18CDAA442
1004
B4CD9C03D4AA442B4CD9C0318C63378210FFBE97FFFFFFEFA5FFFB6EFDB77FA2FFBE97EFA4AE59E073849E85D35306781CE127A4C9621314E51279672E5939449E59CB965991410CA29ECE6C38D8AF6ABDC9CA24F2CE5C93D12796736DBBF6856FD8B9491428A541A05C6337032B5E0CD0BA98195AF06685
1004
379BC8A1FFFFFF7D2FFFDF5BFFF6852FFFDB729FDA15BF62E21317DA3693C5E4D01C9CA24F2CE5CB272893CB3972CD871B15ED57B939449E59CB927A24F2CE6DB77F4DFEE524508841A85C6337032B44030BA98195A20185379BC8A1FF7D2FFFFFFFDF5BFFF5EEFFFEE53FD37FB884C539449E59CB964E51
1004
279672E5939449E59CB964E51279672E4939449E59CB927A24F2CE6DB77FFEDB949142B9385C6337032B481330BA98195A409985379BC8A1FF7D6FFFFFFFDF5BFFFFFFFD4FFFEDB884C539449E59CB964E51279672E5939449E59CB966C38D8AF6ABDC9CA24F2CE5C9272893CB39725FAF4DFEA949142A85
1004
82E319B8195A66CE01EA6065699B38066F379143FFFFFEFADFFFBEB7FFFFFFFA9FD7A6FF544262FB46D278BC9A03939449E59CB965991410CA29ECE6C38D8AF6ABDCD30E362BDAB039E893CB39B6DDFB14DFD1572922855CA0A05C633620185783342EA44030AF06685379BC8A1FFFFFF7D2FDF4BFFFFF5E
1004
EFD8BBF6DCA7F629BFA2AE21317DA3693C5E4D01CFB46D278BC99EE4E51279672E59B0E362BDAAF734C38D8AF6AC0E7A24F2CE6DB77FFEDB949142408281718CD8806148112175220185204485379BC8A1FFFF7D2FFFDF4BFAAFFFD7BBF6077EDB94FFFEDB884C5F68DA4F1793407272893CB3972C9CA24F
1004
2CE5CB361C6C57B55EE69871B15ED581C9CA24F2CE5C97EAFA6FE53949142C220EC2E319B100C299B3807A9100C299B38066F379143FFFFFEFADFBE97FFFFEBDDF94EFF53FABE9BF94E21314E51279672E59F68DA4F17933DC9CA24F2CE5CB361C6C57B55EE69871B15ED581C9CA24F2CE5C97EC537F7A4D
1004
524509020F42E319B336700C8112175266CE019022429BCDE450FFFFBE97FFFFFFEFADFB4297EC0EFF53FB14DFDE93484C539449E59CB967DA3693C5E4CF7272893CB3972CD871B15ED57B9A61C6C57B5607272893CB39725FB42B7ED0A4A48A141722842E319B336700C8112175266CE019022429BCDE45
1004
0FFFFBE97FFFFFFEFADFB4297EC0EFF53FB42B7ED0A44262B322821945331CB3228219453D9C9CA24F2CE5CB202C2BCEF330E535734C38D8AF6AC0E4E51279672E4BF4109BFA2AE52450A0A8605C633666CE01B080A175266CE01B080A14DE6F2287FDF4BFFFFFFFFF7D6FDABBF62EFF53FA084DFD157109
1004
8A72893CB3972C9CA24F2CE5CB272893CB3972C9CA24F2CE5C934C38D8AF6AC0E4E51279672E4BF57D37F29CA48A1AB882E319B336700C81330BA9336700C81330A6F379143FEFADFFFFFFFFFBEB7FFE53BFD4FEAFA6FE53884C539449E59CB964E51279672E59664504328A7B3939449E59CB9269871B15
1004
ED581CF449E59CDB6EFD154DFD8B949142FB4142E319B204CC2BC19A17524099857833429BCDE450FFFFFFBE97EFADFFFFFFFB177EDB94FE8AA6FEC5C42629CA24F2CE5CB3ED1B49E2F267B939449E59CB964E51279672E49A61C6C57B56073D12796736DBBFA6FF7292284A13A0B8C66C81330A40890BA9
1004
204CC29022429BCDE450FFFFBE97FFEFADFFFFFFFB03BFB94FF4DFEE21314E51279672E59F68DA4F17933DCB3228219453D9CD871B15ED57B9A61C6C57B56073D12796736DBBF6A9BFD5292284088261718CDBC19A1481121752F06685204485379BC8A1FFFF7D2FFFFFFFDF4BF6AEFD81DFB6E53FB54DFE
1004
A884C539449E59CB967DA3693C5E4CF72CC8A086514F67361C6C57B55EE69871B15ED581CF449E59CDB6EFD5F77EACE52450A09961718CDBC19A1481121752F06685204485379BC8A1FFFF7D2FFFFFFFDF4BF6AEFD81DFB6E53FABEEFD59C4262B322821945331CB3228219453D9CB3228219453D9C80B0A
1004
F3BCCC394D5CD30E362BDAB039E893CB39B6DDFFF84E52450ABC040B8C66DE0CD0AC20285D4BC19A1584050A6F379143FEFA5FFFFFD57FFEFA5FB577EC0EFDB729FFFC271098ACC8A086514CC73ED1B49E2F267B939449E59CB964058579DE661CA6AE69871B15ED581CF449E59CDB6EFDB4DFEA94914266
1004
83E0B8C66C81121584050BA92044856101429BCDE450FFBE97FFFFFFEFA5FFFB577EC0EFDB729FDB4DFEA90600841611
1005
1CE
  0
INSERT
  8
AME_FRZ
  5
1CE
  2
AME_NIL
 10
1.0
 20
1.0
 30
1.0
1001
AME_SOL
1004

1005
0
  0
INSERT
  8
AME_FRZ
  5
1DA
  2
AME_NIL
 10
1.0
 20
1.0
 30
1.0
1001
AME_SOL
1004
C7CF0100A10050014F014D01490142013501260113010300060014010D004D0027011501470092001601CF009600360128011701C0000701F9001300180108016D00F4000901EF00EE00290119010A012600BC000B01B80030001A010C01A4000101000152000D010201F800F7000301D800C40043013701
1004
2A01EA004E002B0167001B010E010401C300650005016600A900680038015D0014004A013F0044013901BF002C011C0110000500FF003A0102002D01FB001D01FC0079004E014B0145013B012E011E0184000F010F00F2001F0110013800D00011019000250019003C0140002F0120011201720006013C00
1004
04008000180046013D01FE0032003E011F0048004C014701F0003F01010030016E008C004801400131017100EB003201A300210127002D004101330122012100750023015400DF00340124010900440025015F0028000000100020005B3CD4F8D9B378761E805AEAAEA12C8B0C557509645861CAAEA12C7E
1004
62ABA84B22C255750964584040A6C181004749AE79067555D42591618AAEA12C8B0C3955D4258FCC55750964584AAEA12C8B080814D8302008E93510245CD1DAD76A2B8813FEC2FFFFFFFD85FFFFFFFE6BFD85FB0BFFFFFC409FF617FFFFFFEC2FFFFFFFF35FEC2FD85FFFFFB080C4783BCFFB0BFFFFFFF6
1004
17FB5D0A980B067F617F9D70E464EE9BB67B70E464EE9BB67EFF3BB87232774DDB3DFFFE3A4E1C8C9DD376CFCD7FFFC748E8AE2BB5FFFF1D20310D70779FF617FFFFFFEC2FFFD85FFFE75C39193BA6ED9EDC39193BA6ED9FBFCEEE1C8C9DD376CF7FFF8E9387232774DDB3F35FFFF1D23A2B8AED7FFFC748
1004
0C41DC1DE7FD85FFFFFFFB0BFDAE854C05833FB0CFF3AE1C8C9DD376CF6E1C8C9DD376CFDFE7770E464EE9BB67BFE9BF8E9387232774DDB3F35FFA6FE3A4745715DAFFD37F1D2031001C1DE7FD85FFFFFFFB0BFFF618D742A60DA65FE75C39193BA6ED9EDC39193BA6ED9FBFCEEE1C8C9DD376CF7FFF8E93
1004
87232774DDB3F35FFFF1D23A2B8AED7FFFC748F20DAAABA84B22C3155D4259161872ABA84B1F98AAEA12C8B0955D42591611CAAEA12C7E4D5004A1904ED6BB516BA009FF617FFFFF4DFD867F4DFFFFFF35FFFFFFFFFFA009FF617FFFFF4DFD867F4DFFFFFF35FFFFFFFFFEC23C836AAAEA12C8B0C5575096
1004
4586054290D86824134955D42591612ABA84B22C20205360C08023A4D5004A10643DAED459E8027FD85FFFFFFFB0BFFFFFFF1D235FFFFFFFFFFA009FF617FFFFFFEC2FFFFFFFC748D7FFFFFFFFFB083817557509645862ABA84B22C302A1486C341209A4AAEA12C8B0955D425916101029B0604011D27F77
1004
7D7A3CF0F810FEEEFAF479E1F123A7CF21E07E18E6CDB5173476A10643F3A2E68ED420C87B5DAE7CF3FEC2FFFFFFFD85FFFFFFF8E9267FD85FB09FDDDF5E8F3C3E043FBBBEBD1E787C483817557509645862ABA84B22C30E55750963F3155D42591612ABA84B22C23955D4258FC9FDDDF5E8F3C3E043FBBB
1004
EBD1E787C48E9F3C87C2C063B5366C5CD1DA86413B73A86413B45CD1DAD76B9F3CFFB0BFFFFFFF617FFFFFFFA67FD85FB09FDDDF5E8F3C3E043FBBBEBD1E787C4913E0EB
1005
1DB
  0
INSERT
  8
AME_FRZ
  5
1DB
  2
AME_NIL
 10
1.0
 20
1.0
 30
1.0
1001
AME_SOL
1004

1005
0
  0
INSERT
  8
AME_FRZ
  5
3E8
  2
AME_NIL
 10
-2.651279
 20
1.5
 30
-17.407849
 50
90.0
210
-0.8660254037844387
220
-0.5
230
0.0000000000000001
1001
AME_SOL
1002
{
1070
     1
1071
  2404696
1070
  1538
1070
     1
1010
1.0
1020
1.0
1030
5.0
1005
0
1005
0
1005
638
1040
0.0
1040
1.0
1070
     0
1000
MILD_STEEL
1000
0
1010
-2.651279
1020
1.5
1030
-17.407849
1010
-0.866025
1020
-0.5
1030
0.0
1040
1.570796
1002
}
  0
INSERT
  8
AME_FRZ
  5
3E9
  2
AME_NIL
 10
1.0
 20
1.0
 30
1.0
1001
AME_SOL
1004
C7CF01009F004F014E014C014801410134012401120103004700130106004D00250114019200CF001501C00096003501260116010701F4006D0008011300EF0017010901EE00BC000A01B800A400270118010B0130000101000152000C010201F700DC0003012400250067004201360102002801EA004E00
1004
37011400290119010D010401A900650005019F003C0004001A011000D20049013F0043013801BF002A012700050039012B01FF00FB002C011B01FC0079001C01E80084004D014A0144013A012D011D010E01F200E0000F01D8008B001E011001D0008F001101720006016600F90019003B01400001004501
1004
3C01FE001F003D01320048004B014601F0003E012E011F0180007500A3002F017100180047013F0130015D008C0031016E00EB0040013201200109002D0021012100280033012201440054002301DF005F00000014002800703A9CF0E1C398661A0053EB2EA12A8B0C597509545861B59750953D3165D425
1004
51612CBA84AA2C21E04380A02043249F3A8012B2EA12A8B0C597509545861B59750953D3165D42551612CBA84AA2C21E04380A02043249C50B3E1F354FA70FC50BFF617FFFFFFEC2FFFFFFFF37FD85FB0BFFFFFC50BFF617FFFFFFEC2FFFFFFFF37FD85FB0BFFFFF61018AF0769FF617FFFFFFEC2FF1DE84
1004
4304C2BFB0BFC4B676E1BB572E9F9B3B70DDAB974FFFE276CEDC376AE5D3F7FFE324D9DB86ED5CBA7F4FFFFE324243F0FD3FFFF8C9018A4F83B4FFB0BFFFFFFF617FFEC2FFFF12D9DB86ED5CBA7E6CEDC376AE5D3FFF89DB3B70DDAB974FDFFF8C93676E1BB572E9FD3FFFF8C9090FC3F4FFFFE32406284E
1004
0ED3FEC2FFFFFFFD85FE3BD088609857F619FE25B3B70DDAB974FCD9DB86ED5CBA7FFF13B676E1BB572E9FBFB47E324D9DB86ED5CBA7F4FFF68FC648487E1FA7FFB47E32406280383B4FFB0BFFFFFFF617FFEC3077A110C7073FF12D9DB86ED5CBA7E6CEDC376AE5D3FFF89DB3B70DDAB974FDFFF8C93676
1004
E1BB572E9FD3FFFF8C9090FC3F4FFFFE32475009D65D42551618B2EA12A8B0C36B2EA12A7A62CBA84AA2C2597509545846D65D4254F4939F8B4120CD53E9D0EE7E2FFD85FFFFFDA3F619FDA3FFFFFCDFFFFFFFFFFCFC5FFB0BFFFFFB47EC33FB47FFFFF9BFFFFFFFFFEC23A804EB2EA12A8B0C5975095458
1004
6040230C0590F0924B2EA12A8B0965D42551610F021C0501021924E7E2D0285354FA71C79F8BFF617FFFFFFEC2FFFFFFFC648DFFFFFFFFFFCFC5FFB0BFFFFFFF617FFFFFFE3246FFFFFFFFFFB082E14597509545862CBA84AA2C3020118602C87849259750954584B2EA12A8B087810E0280810C93DBCBE3
1004
E9D7A78067B797C7D3AF4F09093C691E1C836E70E273E1F3540A14D7127C3E6A81429AA7D3E78D3FEC2FFFFFFFD85FFFFFFF8C90EFF617EC27B797C7D3AF4F00CF6F2F8FA75E9E120B85165D42551618B2EA12A8B0C36B2EA12A7A62CBA84AA2C2597509545846D65D4254F49EDE5F1F4EBD3C033DBCBE3E
1004
9D7A784849E349F06A1BF4E70E1F0F9AA09066B894120CD4F87CD53E9F3C69FF617FFFFFFEC2FFFFFFFF1DFEC2FD84F6F2F8FA75E9E019EDE5F1F4EBD3C2489E065F
1005
3EA
  0
INSERT
  8
AME_FRZ
  5
3EA
  2
AME_NIL
 10
1.0
 20
1.0
 30
1.0
1001
AME_SOL
1004

1005
0
  0
INSERT
  8
0
  5
638
  2
*U10
 10
0.0
 20
0.0
 30
0.0
1001
AME_SOL
1002
{
1070
     1
1071
  2640280
1070
  1543
1070
     1
1070
     0
1005
1CC
1005
3E8
1005
0
1005
639
1005
0
1040
0.0
1040
1.0
1070
     0
1000
MILD_STEEL
1000
0
1002
}
1001
AVE_INVOKE
1000
SOLAVEMESH
  0
INSERT
  8
AME_FRZ
  5
639
  2
AME_NIL
 10
1.0
 20
1.0
 30
1.0
1001
AME_SOL
1004
C7CF01009501CA01C901C701C301BB01AD0198017C01260059013B01C1001B000C007D01EE005A016E00A30099017E015B018C00FD005C0179005D007F015D013C011D001E003D011F0022011300C5005E013E012301D30051002401DD008F003F0125010D010B0019000E014200F10026010F016B006D00
1004
10017C00AC00AE019A01960080015F014001270111018500860012018900D400280113019900A20014010101060000010201CE00120041012901150103011500340004013D00460016010501610064000601670068002A01170107016C0070000801BD007700180109017E0092000A0193009400F7009B01
1004
DF0081016001AB00980061011700C400BC01AF0154009C01710082016201FC00F8000900B0019D018301C800FB00840163011400EF0064014201CB00D0004301D600BA009E018501650144012300350045013800D10003007500C401BD01B1019F018601A40066010700A00080000100B201A00187016701
1004
500046012B0119010B019A009B000C01A900B2000A001C008400880168015F00820069014100470122009100A10189016A014801F9002C013000330049012D01360045002E01FA00BB0057002700BE01FF00B3010200A20190008A013B002E00C801C501BF01B401BF00A3018B0160006B01E50011002A00
1004
B501A4018C016C014400B00028008D016D014A012F0188007D00E90016002500A50129008E014E006E014B01520030017F0032000400C001B6013F00A6018F01C0006F01EA00D50090017001E8006A007101DB00D800B701A701910172014C016F00B6004D013C00780073014E0131013700F6003201DC00
1004
DE004F013301D700BC003401A6001A010E002C00920105000F001000C601C101B801A80193017401500135011B014300C3001C01A1004B0036011D015300F5001E01AF00AE0083007501510137011F01D200740020017B00E7002B00D9009401760152012F00E00053019F004C008700F000B901A9019501
1004
77018E00540138012101B400B900B3007A007801180024000800AA01960179015501F2003A005601A8005800210097017A0157014D003901CF00A7002D007B0158013A014700F4004800EB00C2014000BA01AB01E200FE00AC014F0020000000550EAA874A24324C58631B4F02C0727955FBC7AF843C8155
1004
FBC7AF843C8155FBC7AF843C822C518BA34A0B3EE458A31746D4FDCDAF1EBE1175DC4F196C0E8CAC90AAAC0DC829CDAE6031A2C94F1652C60CB82C1D22E59CB32CB511628C5D1A5059F72CA605291B8AF6012EE6000F8258A6C9FA7DC4D549CA8D8A698D931B3AA93B184F69F4A5A280A1D589A6362E40DC
1004
86E052CDFD950C6318C60C80718B6CD58D1AC2DF53EB38AF5889F22C2BBF0077E2D516BFB2A7ECA9FFFFFEAA4EC613DA7D2968A0287562698D8B903721B814B37F654318C63183201C62DB356346B0B7D4FACE2BD6227C8B0AEFC01DF8B545AFECA9FB2A7FFFFECA0DC2A877841F8C27B4FA52D14050EAC4
1004
D31B17206E43702966FECA86318C63064038C5B66AC68D616FA9F59C57AC46318C64F4C2B877E00EFD8950E8A6F82DA4070401830A6F82DA40704018A9E4F07F0F8281BAC60E125CB316603B4F41E0118870EF14DF05B480E08030668316D9AB1A3585BEA309B10B207301A788B703F87C140DD6307092E5
1004
98B301DA7A0F008C438537C16D2038200C5427B418B6CD58D1AC2DF5184D885903980D3C45B8E8E2631871318C4F68316D9AB1A3585BEA309B10B207301A788B7370AA3B841F8C27B4FA52D14050EAC4D31B17206E43702966FECA86318C63064038C5B66AC68D616FA9F59C57AC44F9159F70E2C24D1839
1004
0EA41A6E64C6318C16A1D14DF05B480E08030614DF05B480E0803153C9E0F8B25BC8529620A249705083EB792C1B36112C4E1DE29BE0B6901C10060CAC51BCA5516D20B51F1644A5A24ACC040D9C0F8B25BC8529620A249705083EB792C1B36112C4E14DF05B480E08031509EAC51BCA5516D20B51F1644A
1004
5A24ACC040D9C7471318C3898C627AB146F29545B482D47C591296892B3010367370AA27841F8C27B4FA52D14050EAC4D31B17206E43702966FECA86318C63064038C5B66AC68D616FA9F59C57AC44F91615DF803BF4FB8E8A6F82DA4070401830A6F82DA40704018A9E4F6070F8281BAC60E125CC35980E
1004
D3D07804621C3BC537C16D2038200C19A218B6CD58D1AC2DF51BEC42C81CC069E22DCC0E1F0503758C1C24B986B301DA7A0F008C438537C16D2038200C5427B44316D9AB1A3585BEA37D885903980D3C45B8E8E2631871318C4F68862DB356346B0B7D46FB10B207301A788B7370AAF083F184F69F4A5A28
1004
0A1D589A6362E40DC86E052CDFD950C6318C60C80718B6CD58D1AC2DF53EB38AF5889F228DC36148503038558B397703D98C63182D43A29BE0B6901C10060C29BE0B6901C10062A793D28808FC1CACB0E1773730A32C80F0944290FDC3BC537C16D2038200C19882C678B2B730530828BB021451CD819696
1004
79C944047E0E565870BB9B98519640784A21487EE14DF05B480E08031509EC41633C595B982984145D810A28E6C0CB4B3CE3A3898C61C4C6313D882C678B2B730530828BB021451CD81969679C32D827E81F1C885A196DC81F1C885A1884E2ABF78F5F087905C518BA36A57381E83E09629B27ED5CDAF1EB
1004
E1175DC4CA538726C534C6C980876529DFECA9FFFFFFFFFB2A7EBBBF6AEFF5AFFFFFFFFFF94A77FB2A7FFFFFFFFECA9FAEEFDABBFD6BFFFFFFFFFB280CB60B565A157AAC2C7073120C12910E0D41A7155FBC7AF843C82E28C5D1B569B91628C5D1B53F736BC7AF845D7713294E6F43C9331B3A15F27294EF
1004
FFFFF654FFFD953FFF69BBF7EEFF5AFFFFFFFFFF8500EE529DFF23FB287F23FC8FF23FB287ED377EFDDFAEE5AFFFFFFFFFF94A77FC8FECA1FC8FF23FC8FECA1FB4DDFBF77EBB96BFFFFFFFFFB280CB609FB120C12910E0D41A7207C72216862138AAFDE3D7C21E4171462E8DAB4DCFDE3D7C22E34736BC7A
1004
F845D771355270DAC2A698D9368A9FD549DFECA9FFFFFFFB2A7FFE573BF5DDFEB5FD953F654FFFFFF55277FB2A7FFFFFFECA9FFF95CEFD777FAD7F654FD953FFFFF6506E1543BC20FFF654FFFFFFFD953FFF7EE6BF5DDFE756D862E3AAD5730432DB0C5C755AAE609509FEDC2A8EE107FFB2A7FFFFFFECA9
1004
FEF4C6318CDAEFDABBFCEADB0C5C755AAE60865B618B8EAB55CC12A7F9DD6D862E3AAD5730437FFEBB96D862E3AAD57304A84FFFFD771D501263370326313FFFF5DCDC2A89E107FFB2A7FFFFFFECA9FFFB4DDFAEEFF3AB6C3171D56AB982196D862E3AAD57304A9FE775B618B8EAB55CC10DFFFAEE5B618B
1004
8EAB55CC12A13FFFF5DC75B819319848586313FFFF5DCDC2ABC20FFF654FFFFFFFD953FDE98C6319B5DF8D1DFE756D862E3AAD5730432DB0C5C755AAE609509FE32D827E81F1C885A1884E40F8E442D0C427155FBC7AF843C83F78F5F08B8D1CFDE3D7C22E34736BC7AF845D771355270C002698D930F2D6
1004
AA4EFF654FFFFFFFD953FFF5DDFAEEFF5AFECA9FB2A7FFFFFAA93BFD953FFFFFFF654FFFD777EBBBFD6BFB2A7ECA9FFFFFB28370AA1DE107FFB2A7FFFFFFECA9FFFB5735FAEEFF3AB6C3171D56AB982196D862E3AAD57304A9FE775B618B8EAB55CC10DFFFAEE5B618B8EAB55CC12A13FFFF5DC75631618C
1004
949663189FFFFAEE6E15477083FFD953FFFFFFF654FF1698C63196DDFB577F9D5B618B8EAB55CC10CB6C3171D56AB98254FF3BADB0C5C755AAE6086FFFD772DB0C5C755AAE609509FFFFAEE3A9496631940498C4FFFFD77370AA27841FFECA9FFFFFFFB2A7FFE3477EBBBFCEADB0C5C755AAE60865B618B8
1004
EAB55CC12A13FDB8557841FFECA9FFFFFFFB2A7F8B4C6318CB6EFC68EFF3AB6C3171D56AB982196D862E3AAD57304A84FF196C13F2ABF78F5F087902ABF78F5F087902ABF78F5F087905C518BA36A8DC557EF1EBE10F28DAF1EBE1175DC4CA53886432F27934A2B594A77FB2A7FFFFFFFFECA9FFFFFEB5FF
1004
FFFFFFFF294EFF654FFFFFFFFFD953FFFFFD6BFFFFFFFFFB2A0CB60B565A157AAC2D339890609488706A0D38AAFDE3D7C21E4171462E8DAA3722C518BA36A7EE6D78F5F08BAEE26529C91580024F3A579394A77FC8FECA1FC8FF23FC8FECA1FA377E7EEFD772D7FFFFFFFFFC14B594A77FC8FECA1FC8FF23
1004
FC8FECA1FA377EFDDFAEE5AFFFFFFFFFF94A77FC8FECA1FC8FF23FC8FECA1FA377EFDDFAEE5AFFFFFFFFFECA832D8145B2D0ABD56163839890609488706A0D38AAFDE3D7C21E4171462E8DAA3722C518BA36A7EE2ABF78F5F0879426529CD51497278EC21394A77FFFB2A7FFECA9FFFFFB4DDFBF77FAD7FF
1004
FFFFFFFC2B8B594A77FFFB2A7FFECA9FFFFFFFFFEB5FFFFFFFFFF78B594A77FFFB2A7FFECA9FFFFFFFBF77FAD7FFFFFFFFFCA53BFFFD953FFF654FFFFFFFDFBBFD6BFFFFFFFFFB2A0CB609F955FBC7AF843C8155FBC7AF843C8155FBC7AF843C8155FBC7AF843CA2E28C5D1B57EE6D78F5F08BAEE26529CA
1004
C1AA5C9E741F96B294EFFFFFF654FFFD953FFFFFFFD6BFFFFFFFFFEC4AD6529DFFFFFECA9FFFB2A7FFFFEFDDFEB5FFFFFFFFFF294EFFFFFF654FFFD953FFFFF7EEFF5AFFFFFFFFFECA832D8145B2D0ABD56163839890609488706A0D3903E3910B432DB971462E8DAA3722C518BA36A7EE6D78F5F08BAEE2
1004
6529C30E4D278EC2BC4E529DFECA1FC8FF23FC8FECA1FC8FE8DDF9FBBF5DCB5FFFFFFFFFF6125ACA53BFD943F91FE47F91FD943F91FD1BBF7EEFD772D7FFFFFFFFFC32D6529DFECA1FC8FF23FC8FECA1FC8FED5DF9FBBF5DCB5FFFFFFFFFF294EFF650FE47F91FE47F650FE47F6AEFCFDDFAEE5AFFFFFFFF
1004
FECA832D835B2D0ABD5616383996855EAB0B6EB8AAFDE3D7C21E4171462E8DAA3722C518BA36A7EE6D78F5F08BAEE26529C502B2693CE85749CA53BFE47F91FD943F650FE47F91FD1BBF3F77EBB96BFFFFFFFFFEB2D6B294EFF91FE47F650FD943F91FE47F6AEFCFDDFAEE5AFFFFFFFFFF94A77FC8FF23FB
1004
287ECA1FC8FF23FB577E7EEFD772D7FFFFFFFFF654196C13F40F8E442D0C427207C72216865B7155FBC7AF843C803D07C12C5364FDAB971462E8DABF736BC7AF845D7713294E0E8DE97279D4A03B94A77FFFFFB2A7FFECA9FFFB577EBBBFD6BFFFFFFFFFE0E96B294EFF91FD943F91FE47F91FD943F6AEFC
1004
FDDFAEE5AFFFFFFFFFF94A77FC8FECA1FC8FF23FC8FECA1FB577E7EEFD772D7FFFFFFFFF654200265A157AAC2C7073018D164A78B2963065C160E9172CE59965A8B8A31746D5A6E594C0A523715EC025DCC001F04B14D93F4FB925BA901065B45D5125BA901065B45DC74583CF05512798C4D51B14D6F43C
1004
93CEAA3629ADE879266318C6318C2C1FFF23FB287F23FC8FF23FB287ED3705302A25131B01F838DAE3BE2D513F014B19E2CADCC14D828F4C6318C355125BA901065B45D5125BA901065B45DC4004CB42AF5585A673018D164A78B2963065C160E9172CE59965A8B8A31746D51B965302948DC57B00977300
1004
07C12C5364FD3EE496EA404196D1754496EA404196D1771D160F48855D3726632A3629A91580039D48AC001546C5349E6318C2C1FFF23FB287F23FC8FF23FB287E8DC5110A90569258B2B92DDF8B544FC192C678B2B7305360A13F654496EA404196D1754496EA404196D1771001207C72216865B7207C72
1004
21686213903E3910B432DB971462E8DA95CE6F01F04B14D93F6AE6D78F5F08BAEEFD8953F4AB8E841EDE83DA5F26630E4D8A68C39373A30E4D1C9B14D2798C63041FFFFFFECA9FFFB287FFE0377ED5DFAEE3BFB12A7E95710013120C12910E0D41A7207C72216862139283F78F5F087905C518BA36A5739B
1004
D0F8258A6C9FB5736BC7AF845D777FFEBB8E841EBB08804998C4C726C5346D615373A393629A36B0A9A6318C6318C107FFB2A7FFFFFFECA9FFF95CEFDABBFCEFFFEBB8800903E3910B432DB903E3910B43109C941FBC7AF843C83F78F5F08B8D1CDE87C12C5364FDAB9B5E3D7C22EBBBFFF5DC7420F21944
1004
0024C998C393629A30009B9D18004D1C9B14D318C6318C6083FFD953FFFFFFF654FFFD777ED5DFE77FFF5DC400481F1C885A196DC81F1C885A1884E637EF1EBE10F20B8A31746D4AE73780F8258A6C9FB5731BF78F5F08794FCA354FEA87420F22C100E4CC61C9B14D6A8A4BE75AA292E393629A4F318C60
1004
83FFFFFFD943FFF650FFFEEFDABBFCEFE51AA7F54200265A157AAC2C707207C72216865B7207C72216865B72E28C5D1B569B92A28C5D1B53F736BC7AF845D777E0CAA7E0371D083E15800E4CC66F43C9318726E7461C9ADE879264F318C6083FFFFFFD953F654FFFFFDA6EFCBBBF5DC77F06553F01B88009
1004
96855EAB0B1C1CCB42AF5585B75CC6FDE3D7C21E4171462E8DAB4DC951462E8DA9FB9B5E3D7C22EBBBFFF5DC7420F58DC01C998CDE87926502B26E74A0564D6F43C932798C63041FFFFECA9FFFB2A7FFFFED377E7EEFD771DFFFD77100132D0ABD5616383903E3910B432DB98DFBC7AF843C82E28C5D1B56
1004
9B9FBC7AF845C68E6D78F5F08BAEEFFFD771D083D241297264CC66F43C931B5854DCE8DAC2A6B7A1E4998C6318C63041FFECA9FFFFFFFB2A7FFED377EBBBFCEFFFEBB8800996855EAB0B1C1C81F1C885A196DCC6FDE3D7C21E4171462E8DAB4DC951462E8DA9FB98DFBC7AF843CA7E51AA7EBB8E841E922C
1004
4BE4CC66F43C936A8A4BE75AA292EDE879264F318C6083FFFFFFD943F654FFFFFDA6EFDFBBFCEFE51AA7EBB88009890609488706A0D3903E3910B43109C81F1C885A196DCB8A31746D5A6E7EF1EBE1171A39B5E3D7C22EBB9A4DD480832DA5821FE74583C2B259D2F933186D6153461C9B9D187268DAC2A6
1004
93CC6318583FFD953FFFFFFF654FFFCAE77EBBBF5DC9FFECA9FB2A349BA901065B4B043FC8009890609488706A0D3903E3910B43109CC6FDE3D7C21E4171462E8DAB4DCFDE3D7C22E34731BF78F5F08794693752020CB696087F9D160F16BE49E63131B5854D6A8A4BE746D61535AA292E6318C4F160FFF6
1004
54FFFFFFFD953FFF2B9DFAEEFF4FFF654FD951A4DD480832DA5821FE400481F1C885A1884E40F8E442D0C427207C72216865B73F78F5F08B8D1CFDE3D7C22E34736BC7AF845D7724B752020CB68BAA349BA901065B4B040E8B078B4A093C998C30009A30E4DCE8C39346001349E6318C2C1FFECA9FFFFFFF
1004
B2A7FFEBBBF5DDFAEE4FFF654FD95125BA901065B45D51A4DD480832DA5820400481F1C885A1884E40F8E442D0CB6E637EF1EBE10F20DE03E09629B27ED5CFDE3D7C22E34736BC7AF845D777FFEBB8E841E2D07293264CC618004D0E8DE97CE8746F4B8C002693CC631820FFF654FFFFFFFD953FFF6AEFD7
1004
77F9DFFFD771001207C7221686213903E3910B43109CC6FDE3D7C21E41FBC7AF845C68E7EF1EBE1171A398DFBC7AF843CA24B752020CB68BAA349BA901065B4B040E8B07AC69E24F31898C0026B54525F3A30009AD51497318C6278B07FFB2A7FFFFFFECA9FFFAEEFD777FA7FFB2A7ECA892DD480832DA2E
1004
A8D26EA404196D2C102002637EF1EBE10F20C6FDE3D7C21E4103E3910B432DB971462E8DAA3731BF78F5F087946D78F5F08BAEEFC5A87E5DC7420F58C2A693CC6264321978C39373A4321978C39349E4F083FFFFFFD953FFF650FFFC5AA7FFEBB8EFE2D43F2EE200265A157AAC2D3398DFBC7AF843C831BF
1004
78F5F087905C518BA36A8DCC6FDE3D7C21E51B5E3D7C22EBBBFAA7F71D083DB26F093CC626432197A456000E7486432F48AC0012793C20FFF654FFFFFFFD943FFF46EFFFEE3BFD53FB880098DFBC7AF843C831BF78F5F08790637EF1EBE10F20C6FDE3D7C21E518DFBC7AF843CA36BC7AF845D777FFEBB8E
1004
841E1D6F52798C4C86432F560D52F9D2190CBD58354B93C9E107FFB287FFFFFFECA1FFFFFFFE77FFF5DC4004C6FDE3D7C21E418DFBC7AF843C831BF78F5F087905C518BA36A8DCC6FDE3D7C21E518DFBC7AF843CA7E8D53F913A107AA056D2798C4C86432F6A8A4BE7486432F6A8A4B93C9E107FFFFFFB28
1004
7FFECA1FFFFFFFE77F46A9FC8900132D0ABD561699CC6FDE3D7C21E4103E3910B432DB971462E8DAA37254518BA36A7EE6D78F5F08BAEEFCBAA7E0371D083D958D2798C4D22B000461C9B9D48AC0011872693C9E107FFFFFFB2A7ECA9FFFFFA377E5DDFAEE3BF9754FC06E200265A157AAC2D33996855EAB
1004
0B6EB98DFBC7AF843C82E28C5D1B546E4A8A31746D4FDCDAF1EBE1175DDFFFAEE3A107BF68D2798C4D22B0004A0564DCEA456000940AC9A4F27841FFFFECA9FFFB2A7FFFFE8DDF9FBBF5DC77FFF5DC4004CB42AF5585A6731BF78F5F08790637EF1EBE10F20B8A31746D51B92A28C5D1B53F731BF78F5F08
1004
794FCA354FDFB8E841E5896D373189A456000B54525F3A9158002D514972793C20FFFFFFF650FD953FFFFF46EFDFBBFCEFE51AA7EFDC4004C6FDE3D7C21E4196855EAB0B6EB98DFBC7AF843C82E28C5D1B546E4A8A31746D4FDCC6FDE3D7C21E53F2EA9FB6AA1D083D1174DCC626D5149728159373AD5149
1004
728159349E4F083FFFFD953FFFFFFF650FC5AA7E7EEFF3BF9754FDB55080098DFBC7AF843C832D0ABD5616DD731BF78F5F087905C518BA36A8DC951462E8DA9FB98DFBC7AF843CA7E2D43F16A87420F3C8B4DCC626D5149728159373AD5149728159349E4F083FFFFD953FFFFFFF650FC5AA7E7EEFF3BF8B
1004
50FC5AA1001207C7221686213903E3910B432DB98DFBC7AF843C83780F8258A6C9FB57254518BA36A7EE637EF1EBE10F29F832A9F80DC7420F540A7A6E63136A8A4B8746F4BE75AA292E1D1BD2E4F27841FFECA9FFFFFFFFFB287ED5DF9777F9DFC1954FC06E2002637EF1EBE10F20C6FDE3D7C21E418DFB
1004
C7AF843C831BF78F5F087944A8A31746D4FDCC6FDE3D7C21E53F28D53F7EE3A107B20D9373189B54525D58354BE75AA292EAC1AA5C9E4F083FFD943FFFFFFFFF650FFFDFBBFCEFE51AA7EFDC4004C6FDE3D7C21E418DFBC7AF843C8207C72216865B731BF78F5F087944A8A31746D4FDCDAF1EBE1175DDF8
1004
0D53F2EE3A107BF0A826E6313560D52E30E4DCEAB06A971872693C9E107FFFFFFB2A7ECA1FFFFFFF9777EBB8EFE0354FCBB880098DFBC7AF843C832D0ABD5616DD731BF78F5F08790637EF1EBE10F28951462E8DA9FB9B5E3D7C22EBBBFAA7F71D083CA0954DCC626AC1AA5CA0564DCEAB06A9728159349E
1004
4F083FFFFD953FFF650FFFFFFFCFDDFDC77FAA7F7100131BF78F5F0879065A157AAC2DBAE40F8E442D0CB6E5C518BA36A8DC951462E8DA9FB9B5E3D7C22EBBBF6AA9FC89D083C88793731898C3934A0564DCE8C3934A0564D2793C20FFFFF654FFFFFFFD953F6AEFCFDDFAEE3BFB554FE4480098DFBC7AF8
1004
43C832D0ABD5616DD7207C72216865B72E28C5D1B546E4A8A31746D4FDCDAF1EBE1175DDF946EFDA6E3A107A45A49B98C4C61C9A502B26E7461C9A502B2693C9E107FFFFB2A7FFFFFFECA9FB577E7EEFD771DFCA377ED371001207C7221686213903E3910B432DB903E3910B432DB9BC07C12C5364FDAB92
1004
A28C5D1B53F736BC7AF845D777FFE00E3A107B120F29B98C4C61C9A1D1BD2F9D187268746F4B93C9E107FFB2A7FFFFFFFFECA9FB577E7EEFD771DFFFC01C400481F1C885A1884E65A157AAC2DBAE637EF1EBE10F20DE03E09629B27ED5C951462E8DA9FB9B5E3D7C22EBBBF5D53F913A107AE02A6E631328
1004
159343A37A5F3A502B268746F4B93C9E107FFB2A7FFFFFFECA9FFFB577E7EEFD771DFD754FE441E45814D6
1005
63A
  0
INSERT
  8
AME_FRZ
  5
63A
  2
AME_NIL
 10
1.0
 20
1.0
 30
1.0
1001
AME_SOL
1004

1005
0
  0
ENDSEC
  0
EOF
