700 0 2 0           
24 FBMach with ACIS - 7.0.3 13 ACIS 7.0.3 NT 24 Wed May 15 10:15:05 2002 
1 9.9999999999999995e-007 1e-010 
body $2 -1 $-1 $3 $-1 $4 #
bdycol-kcp $-1 -1 1 2 $5 $6 #
model_id-kcp-attrib $-1 -1 $-1 $-1 $0 1 1021472104 1021472104 -900333567 1 #
lump $-1 -1 $-1 $-1 $7 $0 #
transform $-1 -1 1 0 0 0 1 0 0 0 1 0 0 0 1 rotate no_reflect no_shear #
body $8 -1 $-1 $9 $-1 $10 #
body $11 -1 $-1 $12 $-1 $-1 #
shell $-1 -1 $-1 $-1 $-1 $13 $-1 $3 #
model_id-kcp-attrib $-1 -1 $-1 $-1 $5 1 1021472104 1021472104 -900333566 1 #
lump $-1 -1 $-1 $-1 $14 $5 #
transform $-1 -1 1 0 0 0 1 0 0 0 1 279.39999999999998 2.5399999999987317 266.69999999999999 1 no_rotate no_reflect no_shear #
rgb_color-st-attrib $-1 -1 $15 $-1 $6 0.5 1 1 #
lump $-1 -1 $-1 $-1 $16 $6 #
face $17 -1 $-1 $18 $19 $7 $-1 $20 reversed single #
shell $-1 -1 $-1 $-1 $-1 $21 $-1 $9 #
model_id-kcp-attrib $-1 -1 $-1 $11 $6 1 1021472104 1021472105 -894500861 1 #
shell $-1 -1 $-1 $-1 $-1 $22 $-1 $12 #
model_id-kcp-attrib $-1 -1 $-1 $-1 $13 1 1021472104 1021472104 -900333567 2 #
face $23 -1 $-1 $24 $25 $7 $-1 $26 forward single #
loop $-1 -1 $-1 $-1 $27 $13 #
plane-surface $-1 -1 $-1 0 5.0799999999999992 0 0 -1 0 25.399999999999999 0 0 forward_v I I I I #
face $28 -1 $-1 $29 $30 $14 $-1 $31 forward single #
face $-1 -1 $-1 $32 $33 $16 $-1 $34 forward single #
model_id-kcp-attrib $-1 -1 $-1 $-1 $18 1 1021472104 1021472104 -900333567 3 #
face $35 -1 $-1 $36 $37 $7 $-1 $38 forward single #
loop $-1 -1 $-1 $-1 $39 $18 #
plane-surface $-1 -1 $-1 279.39999999999998 2.5399999999999996 0 0 0 -1 25.399999999999999 0 0 forward_v I I I I #
coedge $-1 -1 $-1 $40 $41 $42 $43 reversed $19 $-1 #
model_id-kcp-attrib $-1 -1 $-1 $-1 $21 1 1021472104 1021472104 -900333566 5 #
face $44 -1 $-1 $45 $46 $14 $-1 $47 reversed single #
loop $-1 -1 $-1 $-1 $48 $21 #
plane-surface $-1 -1 $-1 0 0 266.69999999999999 0 0 1 1 0 0 forward_v I I I I #
face $-1 -1 $-1 $49 $50 $16 $-1 $51 forward single #
loop $-1 -1 $-1 $-1 $52 $22 #
plane-surface $-1 -1 $-1 385.78054735993686 5.0799999999992451 483.21026672777356 -0.1822122299505288 2.0388909662676795e-015 -0.98325922485194905 -0.98325922485194905 0 0.1822122299505288 forward_v I I I I #
model_id-kcp-attrib $-1 -1 $-1 $-1 $24 1 1021472104 1021472104 -900333567 4 #
face $53 -1 $-1 $54 $55 $7 $-1 $56 forward single #
loop $-1 -1 $-1 $-1 $57 $24 #
plane-surface $-1 -1 $-1 0 0 0 0 -1 0 25.399999999999999 0 0 forward_v I I I I #
coedge $-1 -1 $-1 $58 $59 $60 $61 reversed $25 $-1 #
coedge $-1 -1 $-1 $62 $27 $63 $64 forward $19 $-1 #
coedge $-1 -1 $-1 $27 $65 $66 $67 reversed $19 $-1 #
coedge $-1 -1 $-1 $59 $58 $27 $43 forward $25 $-1 #
edge $-1 -1 $-1 $68 0 $69 11.999999999999998 $27 $70 forward @7 unknown #
model_id-kcp-attrib $-1 -1 $-1 $-1 $29 1 1021472104 1021472104 -900333566 3 #
face $71 -1 $-1 $72 $73 $14 $-1 $74 reversed single #
loop $-1 -1 $-1 $-1 $75 $29 #
plane-surface $-1 -1 $-1 0 0 -266.69999999999999 0 0 1 1 0 0 forward_v I I I I #
coedge $-1 -1 $-1 $76 $77 $78 $79 forward $30 $-1 #
face $-1 -1 $-1 $80 $81 $16 $-1 $82 forward single #
loop $-1 -1 $-1 $-1 $83 $32 #
plane-surface $-1 -1 $-1 114.94516904216982 5.0800000000020429 533.39999999999998 0 0 1 1 0 0 forward_v I I I I #
coedge $-1 -1 $-1 $84 $85 $86 $87 forward $33 $-1 #
model_id-kcp-attrib $-1 -1 $-1 $-1 $36 1 1021472104 1021472104 -900333567 5 #
face $88 -1 $-1 $89 $90 $7 $-1 $91 forward single #
loop $-1 -1 $-1 $-1 $92 $36 #
plane-surface $-1 -1 $-1 280.65789494764465 2.5399999999999996 50.871514186456842 0 0 1 25.399999999999999 0 0 forward_v I I I I #
coedge $-1 -1 $-1 $93 $94 $95 $96 reversed $37 $-1 #
coedge $-1 -1 $-1 $42 $39 $97 $98 forward $25 $-1 #
coedge $-1 -1 $-1 $39 $42 $99 $100 forward $25 $-1 #
coedge $-1 -1 $-1 $94 $101 $39 $61 forward $37 $-1 #
edge $-1 -1 $-1 $102 0 $103 11.999999999999998 $39 $104 forward @7 unknown #
coedge $-1 -1 $-1 $105 $40 $106 $107 forward $19 $-1 #
coedge $-1 -1 $-1 $97 $108 $40 $64 reversed $109 $-1 #
edge $110 -1 $-1 $68 0 $111 21 $40 $112 forward @7 unknown #
coedge $-1 -1 $-1 $41 $113 $92 $114 forward $19 $-1 #
coedge $-1 -1 $-1 $115 $116 $41 $67 forward $117 $-1 #
edge $-1 -1 $-1 $69 0 $118 2.0028155191518442 $41 $119 forward @7 unknown #
vertex $-1 -1 $-1 $64 $120 #
vertex $-1 -1 $-1 $67 $121 #
straight-curve $-1 -1 $-1 0 5.0799999999999992 0 25.399999999999999 0 0 I I #
model_id-kcp-attrib $-1 -1 $-1 $-1 $45 1 1021472104 1021472104 -900333566 4 #
face $122 -1 $-1 $123 $124 $14 $-1 $125 reversed single #
loop $-1 -1 $-1 $-1 $126 $45 #
plane-surface $-1 -1 $-1 0 -2.5400000000012675 0 0 1 0 0 0 1 forward_v I I I I #
coedge $-1 -1 $-1 $127 $128 $129 $130 forward $46 $-1 #
coedge $-1 -1 $-1 $131 $48 $132 $133 forward $30 $-1 #
coedge $-1 -1 $-1 $48 $131 $134 $135 forward $30 $-1 #
coedge $-1 -1 $-1 $136 $137 $48 $79 reversed $138 $-1 #
edge $-1 -1 $-1 $139 -2.5400000000012675 $140 2.5400000000012675 $78 $141 forward @7 unknown #
face $-1 -1 $-1 $142 $143 $16 $-1 $144 reversed single #
loop $-1 -1 $-1 $-1 $145 $49 #
cone-surface $-1 -1 $-1 390.43099100135362 5.0799999999991972 508.30513336388674 -1.118964938204886e-014 -1 0 -4.6504436414167927 5.2036833818432468e-014 -25.09486663611321 1 I I 0 -1 25.522126822549524 forward I I I I #
coedge $-1 -1 $-1 $146 $147 $148 $149 forward $50 $-1 #
coedge $-1 -1 $-1 $150 $52 $147 $151 reversed $33 $-1 #
coedge $-1 -1 $-1 $52 $150 $152 $153 forward $33 $-1 #
coedge $-1 -1 $-1 $154 $148 $52 $87 reversed $143 $-1 #
edge $-1 -1 $-1 $155 0 $156 275.44656736736664 $52 $157 forward @7 unknown #
model_id-kcp-attrib $-1 -1 $-1 $-1 $54 1 1021472104 1021472104 -900333567 6 #
face $158 -1 $-1 $159 $160 $7 $-1 $161 forward single #
loop $-1 -1 $-1 $-1 $162 $54 #
plane-surface $-1 -1 $-1 77.457894947644732 2.5399999999999996 63.84089045711525 1 0 0 0 0 -25.399999999999999 forward_v I I I I #
coedge $-1 -1 $-1 $163 $164 $65 $114 reversed $55 $-1 #
coedge $-1 -1 $-1 $165 $57 $166 $167 reversed $37 $-1 #
coedge $-1 -1 $-1 $57 $60 $168 $169 forward $37 $-1 #
coedge $-1 -1 $-1 $164 $163 $57 $96 forward $55 $-1 #
edge $-1 -1 $-1 $170 0 $171 8.9504765768643804 $57 $172 forward @7 unknown #
coedge $-1 -1 $-1 $173 $63 $58 $98 reversed $109 $-1 #
edge $174 -1 $-1 $102 0 $68 0.19999999999999998 $97 $175 forward @7 unknown #
coedge $-1 -1 $-1 $176 $177 $59 $100 reversed $178 $-1 #
edge $-1 -1 $-1 $69 0 $103 0.19999999999999998 $99 $179 forward @7 unknown #
coedge $-1 -1 $-1 $60 $180 $173 $181 reversed $37 $-1 #
vertex $-1 -1 $-1 $181 $182 #
vertex $-1 -1 $-1 $100 $183 #
straight-curve $-1 -1 $-1 0 0 0 25.399999999999999 0 0 I I #
coedge $-1 -1 $-1 $184 $62 $185 $186 reversed $19 $-1 #
coedge $-1 -1 $-1 $187 $188 $62 $107 reversed $189 $-1 #
edge $190 -1 $-1 $111 0 $191 6.1299595507206757 $62 $192 forward @7 unknown #
coedge $-1 -1 $-1 $63 $173 $187 $193 forward $109 $-1 #
loop $-1 -1 $-1 $-1 $108 $194 #
attrib_edge_convexity-kcp-attrib $-1 -1 $195 $-1 $64 1 #
vertex $-1 -1 $-1 $107 $196 #
straight-curve $-1 -1 $-1 0 5.0799999999999992 0 0 0 25.399999999999999 I I #
coedge $-1 -1 $-1 $65 $197 $198 $199 forward $19 $-1 #
edge $-1 -1 $-1 $200 0 $118 8.9504765768643804 $65 $201 forward @7 unknown #
coedge $-1 -1 $-1 $202 $66 $203 $204 forward $117 $-1 #
coedge $-1 -1 $-1 $66 $202 $176 $205 reversed $117 $-1 #
loop $-1 -1 $-1 $-1 $116 $206 #
vertex $-1 -1 $-1 $67 $207 #
straight-curve $-1 -1 $-1 304.79999999999995 5.0799999999999992 0 0 0 25.399999999999999 I I #
point $-1 -1 $-1 0 5.0799999999999992 0 #
point $-1 -1 $-1 304.79999999999995 5.0799999999999992 0 #
model_id-kcp-attrib $-1 -1 $-1 $-1 $72 1 1021472104 1021472104 -900333566 6 #
face $208 -1 $-1 $209 $210 $14 $-1 $211 reversed single #
loop $-1 -1 $-1 $-1 $212 $72 #
plane-surface $-1 -1 $-1 -279.39999999999998 0 0 1 0 0 0 0 -1 forward_v I I I I #
coedge $-1 -1 $-1 $213 $134 $214 $215 forward $73 $-1 #
coedge $-1 -1 $-1 $216 $75 $213 $217 forward $46 $-1 #
coedge $-1 -1 $-1 $75 $216 $218 $219 forward $46 $-1 #
coedge $-1 -1 $-1 $137 $136 $75 $130 reversed $138 $-1 #
edge $-1 -1 $-1 $220 -2.5400000000012675 $221 2.5400000000012675 $129 $222 forward @7 unknown #
coedge $-1 -1 $-1 $77 $76 $223 $224 forward $30 $-1 #
coedge $-1 -1 $-1 $225 $226 $76 $133 reversed $210 $-1 #
edge $-1 -1 $-1 $140 -279.39999999999998 $227 279.39999999999998 $132 $228 forward @7 unknown #
coedge $-1 -1 $-1 $126 $229 $77 $135 reversed $73 $-1 #
edge $-1 -1 $-1 $230 -279.39999999999998 $139 279.39999999999998 $134 $231 forward @7 unknown #
coedge $-1 -1 $-1 $129 $78 $229 $232 forward $138 $-1 #
coedge $-1 -1 $-1 $78 $129 $225 $233 reversed $138 $-1 #
loop $-1 -1 $-1 $-1 $136 $209 #
vertex $-1 -1 $-1 $79 $234 #
vertex $-1 -1 $-1 $79 $235 #
straight-curve $-1 -1 $-1 279.39999999999998 0 266.69999999999999 0 1 0 I I #
face $-1 -1 $-1 $-1 $236 $16 $-1 $237 forward single #
loop $-1 -1 $-1 $-1 $86 $80 #
plane-surface $-1 -1 $-1 264.51537532308203 5.1514348342607263e-013 519.31871189836886 1.0329604841713924e-014 1 -1.7571962690783692e-018 0 1.7571962690783692e-018 1 forward_v I I I I #
coedge $-1 -1 $-1 $152 $238 $154 $239 forward $81 $-1 #
coedge $-1 -1 $-1 $240 $83 $238 $241 reversed $50 $-1 #
coedge $-1 -1 $-1 $83 $240 $84 $151 forward $50 $-1 #
coedge $-1 -1 $-1 $86 $154 $83 $149 reversed $143 $-1 #
edge $-1 -1 $-1 $156 0 $242 270.83537831776692 $83 $243 forward @7 unknown #
coedge $-1 -1 $-1 $85 $84 $244 $245 reversed $33 $-1 #
edge $-1 -1 $-1 $246 0 $156 5.0799999999999823 $147 $247 forward @7 unknown #
coedge $-1 -1 $-1 $248 $145 $85 $153 reversed $81 $-1 #
edge $-1 -1 $-1 $249 0 $155 5.0799999999999823 $85 $250 forward @7 unknown #
coedge $-1 -1 $-1 $148 $86 $145 $239 reversed $143 $-1 #
vertex $-1 -1 $-1 $153 $251 #
vertex $-1 -1 $-1 $151 $252 #
straight-curve $-1 -1 $-1 385.7805473599368 -7.3718808835110394e-013 483.21026672777356 -0.98325922485194905 1.015718601540597e-014 0.1822122299505288 I I #
model_id-kcp-attrib $-1 -1 $-1 $-1 $89 1 1021472104 1021472104 -900333567 7 #
face $253 -1 $-1 $254 $255 $7 $-1 $256 forward single #
loop $-1 -1 $-1 $-1 $257 $89 #
plane-surface $-1 -1 $-1 64.488518676986331 2.5399999999999996 76.810266727773666 0 0 1 25.399999999999999 0 0 forward_v I I I I #
coedge $-1 -1 $-1 $166 $198 $258 $259 forward $90 $-1 #
coedge $-1 -1 $-1 $95 $92 $260 $261 forward $55 $-1 #
coedge $-1 -1 $-1 $92 $95 $262 $263 forward $55 $-1 #
coedge $-1 -1 $-1 $264 $93 $265 $266 reversed $37 $-1 #
coedge $-1 -1 $-1 $260 $162 $93 $167 forward $90 $-1 #
edge $-1 -1 $-1 $267 0 $170 1.0212107299731032 $93 $268 forward @7 unknown #
coedge $-1 -1 $-1 $269 $270 $94 $169 reversed $271 $-1 #
edge $-1 -1 $-1 $103 0 $171 2.0028155191518442 $168 $272 forward @7 unknown #
vertex $-1 -1 $-1 $167 $273 #
vertex $-1 -1 $-1 $274 $275 #
straight-curve $-1 -1 $-1 77.457894947644732 0 50.871514186456842 25.399999999999999 0 0 I I #
coedge $-1 -1 $-1 $108 $97 $101 $181 forward $109 $-1 #
attrib_edge_convexity-kcp-attrib $-1 -1 $276 $-1 $98 1 #
straight-curve $-1 -1 $-1 0 0 0 0 25.399999999999999 0 I I #
coedge $-1 -1 $-1 $277 $99 $116 $205 forward $178 $-1 #
coedge $-1 -1 $-1 $99 $277 $269 $278 reversed $178 $-1 #
loop $-1 -1 $-1 $-1 $177 $279 #
straight-curve $-1 -1 $-1 304.79999999999995 5.0799999999999992 0 0 -25.399999999999999 0 I I #
coedge $-1 -1 $-1 $101 $280 $281 $282 reversed $37 $-1 #
edge $283 -1 $-1 $102 0 $284 21 $173 $285 forward @7 unknown #
point $-1 -1 $-1 0 0 0 #
point $-1 -1 $-1 304.79999999999995 0 0 #
coedge $-1 -1 $-1 $286 $105 $287 $288 forward $19 $-1 #
coedge $-1 -1 $-1 $289 $290 $105 $186 forward $291 $-1 #
edge $-1 -1 $-1 $292 -8.7266280561062284e-017 $191 2.7751208951087007 $105 $293 forward @7 unknown #
coedge $-1 -1 $-1 $281 $106 $108 $193 reversed $189 $-1 #
coedge $-1 -1 $-1 $106 $281 $289 $294 reversed $189 $-1 #
loop $-1 -1 $-1 $-1 $106 $295 #
attrib_edge_convexity-kcp-attrib $-1 -1 $296 $-1 $107 1 #
vertex $-1 -1 $-1 $186 $297 #
straight-curve $-1 -1 $-1 0 5.0799999999999992 533.39999999999998 25.399999999999999 0 0 I I #
edge $298 -1 $-1 $284 0 $111 0.19999999999999998 $108 $299 forward @7 unknown #
face $300 -1 $-1 $301 $109 $7 $-1 $302 reversed single #
convexity-sys-attrib $-1 -1 $-1 $110 $64 #
point $-1 -1 $-1 0 5.0799999999999992 533.39999999999998 #
coedge $-1 -1 $-1 $113 $286 $303 $304 forward $19 $-1 #
coedge $-1 -1 $-1 $162 $260 $113 $199 reversed $90 $-1 #
edge $-1 -1 $-1 $305 0 $200 1.0212107299731032 $113 $306 forward @7 unknown #
vertex $-1 -1 $-1 $114 $307 #
straight-curve $-1 -1 $-1 77.457894947644732 5.0799999999999992 50.871514186456842 25.399999999999999 0 0 I I #
coedge $-1 -1 $-1 $116 $115 $308 $309 reversed $117 $-1 #
coedge $-1 -1 $-1 $262 $310 $115 $204 reversed $311 $-1 #
edge $-1 -1 $-1 $118 0 $312 0.41415926535898157 $203 $313 forward @7 unknown #
edge $-1 -1 $-1 $69 0 $314 0.41415926535897712 $176 $315 forward @7 unknown #
face $316 -1 $-1 $279 $117 $7 $-1 $317 forward single #
point $-1 -1 $-1 304.79999999999995 5.0799999999999992 50.871514186456842 #
model_id-kcp-attrib $-1 -1 $-1 $-1 $123 1 1021472104 1021472104 -900333566 2 #
face $318 -1 $-1 $-1 $138 $14 $-1 $319 reversed single #
loop $-1 -1 $-1 $-1 $225 $123 #
plane-surface $-1 -1 $-1 0 2.5400000000012675 0 0 -1 0 0 0 -1 forward_v I I I I #
coedge $-1 -1 $-1 $320 $223 $226 $321 forward $124 $-1 #
coedge $-1 -1 $-1 $229 $126 $127 $217 reversed $73 $-1 #
coedge $-1 -1 $-1 $223 $320 $126 $215 reversed $124 $-1 #
edge $-1 -1 $-1 $230 -266.69999999999999 $322 266.69999999999999 $214 $323 forward @7 unknown #
coedge $-1 -1 $-1 $128 $127 $320 $324 forward $46 $-1 #
edge $-1 -1 $-1 $221 -279.39999999999998 $322 279.39999999999998 $213 $325 forward @7 unknown #
coedge $-1 -1 $-1 $226 $225 $128 $219 reversed $210 $-1 #
edge $-1 -1 $-1 $326 -279.39999999999998 $220 279.39999999999998 $218 $327 forward @7 unknown #
vertex $-1 -1 $-1 $130 $328 #
vertex $-1 -1 $-1 $232 $329 #
straight-curve $-1 -1 $-1 279.39999999999998 0 -266.69999999999999 0 -1 0 I I #
coedge $-1 -1 $-1 $212 $214 $131 $224 reversed $124 $-1 #
edge $-1 -1 $-1 $227 -2.5400000000012675 $230 2.5400000000012675 $223 $330 forward @7 unknown #
coedge $-1 -1 $-1 $218 $132 $137 $233 forward $210 $-1 #
coedge $-1 -1 $-1 $132 $218 $212 $321 reversed $210 $-1 #
vertex $-1 -1 $-1 $133 $331 #
straight-curve $-1 -1 $-1 0 2.5400000000012675 266.69999999999999 -1 0 0 I I #
coedge $-1 -1 $-1 $134 $213 $136 $232 reversed $73 $-1 #
vertex $-1 -1 $-1 $224 $332 #
straight-curve $-1 -1 $-1 0 -2.5400000000012675 266.69999999999999 1 0 0 I I #
edge $-1 -1 $-1 $139 -266.69999999999999 $221 266.69999999999999 $136 $333 forward @7 unknown #
edge $-1 -1 $-1 $140 -266.69999999999999 $220 266.69999999999999 $137 $334 forward @7 unknown #
point $-1 -1 $-1 279.39999999999998 -2.5400000000012675 266.69999999999999 #
point $-1 -1 $-1 279.39999999999998 2.5400000000012675 266.69999999999999 #
loop $-1 -1 $-1 $-1 $335 $142 #
plane-surface $-1 -1 $-1 264.51537532308208 5.0800000000004975 519.31871189836886 1.0329604841713924e-014 1 -1.7571962690783692e-018 0 1.7571962690783692e-018 1 forward_v I I I I #
coedge $-1 -1 $-1 $145 $248 $146 $241 forward $81 $-1 #
edge $-1 -1 $-1 $242 -2.7751208951087332 $155 1.1780947875743457e-015 $145 $336 forward @7 unknown #
coedge $-1 -1 $-1 $147 $146 $337 $338 reversed $50 $-1 #
edge $-1 -1 $-1 $339 0 $242 5.0799999999999823 $238 $340 forward @7 unknown #
vertex $-1 -1 $-1 $241 $341 #
straight-curve $-1 -1 $-1 114.94516904216977 2.0605739337042905e-012 533.39999999999998 1 -1.0330120235521166e-014 0 I I #
coedge $-1 -1 $-1 $337 $335 $150 $245 forward $236 $-1 #
edge $-1 -1 $-1 $249 0 $246 275.44656736736664 $150 $342 forward @7 unknown #
vertex $-1 -1 $-1 $245 $343 #
straight-curve $-1 -1 $-1 114.94516904216982 5.0800000000020429 533.39999999999998 -1.118964938204886e-014 -1 0 I I #
coedge $-1 -1 $-1 $238 $152 $335 $344 forward $81 $-1 #
vertex $-1 -1 $-1 $344 $345 #
straight-curve $-1 -1 $-1 385.78054735993686 5.0799999999992451 483.21026672777356 -1.118964938204886e-014 -1 0 I I #
point $-1 -1 $-1 385.7805473599368 -7.3718808835110394e-013 483.21026672777356 #
point $-1 -1 $-1 114.94516904216977 2.0605739337042905e-012 533.39999999999998 #
model_id-kcp-attrib $-1 -1 $-1 $-1 $159 1 1021472104 1021472104 -900333567 8 #
face $346 -1 $-1 $347 $348 $7 $-1 $349 forward single #
loop $-1 -1 $-1 $-1 $350 $159 #
plane-surface $-1 -1 $-1 51.519142406327916 2.5399999999999996 280.01026672777363 1 0 0 0 0 -25.399999999999999 forward_v I I I I #
coedge $-1 -1 $-1 $265 $303 $351 $352 forward $160 $-1 #
coedge $-1 -1 $-1 $303 $265 $162 $259 reversed $160 $-1 #
edge $-1 -1 $-1 $305 0 $267 0.19999999999999998 $162 $353 forward @7 unknown #
coedge $-1 -1 $-1 $198 $166 $163 $261 reversed $90 $-1 #
edge $-1 -1 $-1 $200 0 $170 0.19999999999999998 $163 $354 forward @7 unknown #
coedge $-1 -1 $-1 $355 $203 $164 $263 reversed $311 $-1 #
edge $-1 -1 $-1 $171 0 $118 0.19999999999999998 $262 $356 forward @7 unknown #
coedge $-1 -1 $-1 $357 $165 $358 $359 reversed $37 $-1 #
coedge $-1 -1 $-1 $258 $257 $165 $266 forward $160 $-1 #
edge $-1 -1 $-1 $360 0 $267 1.021210729973103 $165 $361 forward @7 unknown #
vertex $-1 -1 $-1 $266 $362 #
straight-curve $-1 -1 $-1 77.457894947644732 0 76.810266727773666 0 0 -25.399999999999999 I I #
coedge $-1 -1 $-1 $363 $168 $177 $278 forward $271 $-1 #
coedge $-1 -1 $-1 $168 $363 $355 $274 reversed $271 $-1 #
loop $-1 -1 $-1 $-1 $270 $364 #
straight-curve $-1 -1 $-1 304.79999999999995 0 0 0 0 25.399999999999999 I I #
point $-1 -1 $-1 77.457894947644732 0 50.871514186456842 #
edge $-1 -1 $-1 $171 0 $365 0.41415926535898384 $355 $366 forward @7 unknown #
point $-1 -1 $-1 304.79999999999995 0 50.871514186456842 #
convexity-sys-attrib $-1 -1 $-1 $174 $98 #
coedge $-1 -1 $-1 $177 $176 $367 $368 forward $178 $-1 #
edge $-1 -1 $-1 $103 0 $369 0.41415926535897934 $177 $370 forward @7 unknown #
face $371 -1 $-1 $364 $178 $7 $-1 $372 forward single #
coedge $-1 -1 $-1 $180 $357 $373 $374 forward $37 $-1 #
coedge $-1 -1 $-1 $188 $187 $180 $282 forward $189 $-1 #
edge $375 -1 $-1 $284 0 $376 6.1299595507206757 $180 $377 forward @7 unknown #
attrib_edge_convexity-kcp-attrib $-1 -1 $378 $-1 $181 1 #
vertex $-1 -1 $-1 $181 $379 #
straight-curve $-1 -1 $-1 0 0 0 0 0 25.399999999999999 I I #
coedge $-1 -1 $-1 $197 $184 $380 $381 forward $19 $-1 #
coedge $-1 -1 $-1 $382 $383 $184 $288 reversed $348 $-1 #
edge $-1 -1 $-1 $292 0 $384 4.1016468575581415 $184 $385 forward @7 unknown #
coedge $-1 -1 $-1 $373 $185 $188 $294 forward $291 $-1 #
coedge $-1 -1 $-1 $185 $373 $382 $386 reversed $291 $-1 #
loop $-1 -1 $-1 $-1 $289 $347 #
vertex $-1 -1 $-1 $288 $387 #
ellipse-curve $-1 -1 $-1 160.35141622972216 5.0799999999999992 508.30513336388674 0 1 0 -4.6504436414174695 0 -25.094866636113121 1 I I #
edge $388 -1 $-1 $191 0 $376 0.19999999999999998 $188 $389 forward @7 unknown #
face $390 -1 $-1 $194 $189 $7 $-1 $391 reversed single #
convexity-sys-attrib $-1 -1 $-1 $190 $107 #
point $-1 -1 $-1 155.70097258830515 5.0799999999999992 533.39999999999998 #
attrib_edge_convexity-kcp-attrib $-1 -1 $392 $-1 $193 1 #
straight-curve $-1 -1 $-1 0 0 533.39999999999998 0 25.399999999999999 0 I I #
model_id-kcp-attrib $-1 -1 $-1 $-1 $194 1 1021472104 1021472104 -900333567 12 #
face $393 -1 $-1 $206 $311 $7 $-1 $394 forward single #
plane-surface $-1 -1 $-1 0 2.5399999999999996 266.69999999999999 1 0 0 0 0 25.399999999999999 forward_v I I I I #
coedge $-1 -1 $-1 $257 $258 $197 $304 reversed $160 $-1 #
edge $-1 -1 $-1 $395 0 $305 1.021210729973103 $197 $396 forward @7 unknown #
vertex $-1 -1 $-1 $199 $397 #
straight-curve $-1 -1 $-1 77.457894947644732 5.0799999999999992 76.810266727773666 0 0 -25.399999999999999 I I #
point $-1 -1 $-1 77.457894947644732 5.0799999999999992 50.871514186456842 #
coedge $-1 -1 $-1 $398 $399 $202 $309 forward $400 $-1 #
edge $-1 -1 $-1 $314 0 $312 2.0028155191518442 $308 $401 forward @7 unknown #
coedge $-1 -1 $-1 $203 $355 $402 $403 forward $311 $-1 #
loop $-1 -1 $-1 $-1 $203 $301 #
vertex $-1 -1 $-1 $403 $404 #
straight-curve $-1 -1 $-1 304.79999999999995 5.0799999999999992 50.871514186456842 25.399999999999999 -9.3622290693955613e-014 0 I I #
vertex $-1 -1 $-1 $368 $405 #
straight-curve $-1 -1 $-1 304.79999999999995 5.0799999999999992 0 25.399999999999999 -9.3622290693956812e-014 0 I I #
model_id-kcp-attrib $-1 -1 $-1 $-1 $206 1 1021472104 1021472104 -900333567 14 #
plane-surface $-1 -1 $-1 304.79999999999995 5.0799999999999992 0 3.6751783587152361e-015 1 0 25.399999999999999 -9.3349530311366994e-014 0 forward_v I I I I #
model_id-kcp-attrib $-1 -1 $-1 $-1 $209 1 1021472104 1021472104 -900333566 14 #
plane-surface $-1 -1 $-1 279.39999999999998 0 0 -1 0 0 0 0 1 forward_v I I I I #
coedge $-1 -1 $-1 $214 $212 $216 $324 reversed $124 $-1 #
edge $-1 -1 $-1 $227 -266.69999999999999 $326 266.69999999999999 $226 $406 forward @7 unknown #
vertex $-1 -1 $-1 $324 $407 #
straight-curve $-1 -1 $-1 -279.39999999999998 -2.5400000000012675 0 0 0 -1 I I #
edge $-1 -1 $-1 $322 -2.5400000000012675 $326 2.5400000000012675 $320 $408 forward @7 unknown #
straight-curve $-1 -1 $-1 0 -2.5400000000012675 -266.69999999999999 -1 0 0 I I #
vertex $-1 -1 $-1 $219 $409 #
straight-curve $-1 -1 $-1 0 2.5400000000012675 -266.69999999999999 1 0 0 I I #
point $-1 -1 $-1 279.39999999999998 2.5400000000012675 -266.69999999999999 #
point $-1 -1 $-1 279.39999999999998 -2.5400000000012675 -266.69999999999999 #
straight-curve $-1 -1 $-1 -279.39999999999998 0 266.69999999999999 0 -1 0 I I #
point $-1 -1 $-1 -279.39999999999998 2.5400000000012675 266.69999999999999 #
point $-1 -1 $-1 -279.39999999999998 -2.5400000000012675 266.69999999999999 #
straight-curve $-1 -1 $-1 279.39999999999998 -2.5400000000012675 0 0 0 -1 I I #
straight-curve $-1 -1 $-1 279.39999999999998 2.5400000000012675 0 0 0 -1 I I #
coedge $-1 -1 $-1 $244 $337 $248 $344 reversed $236 $-1 #
ellipse-curve $-1 -1 $-1 390.43099100135356 -7.8514972301491071e-013 508.30513336388674 -1.033005745402476e-014 -1 3.9816828148250044e-018 -4.6504436414167927 4.7939430203314254e-014 -25.09486663611321 1 I I #
coedge $-1 -1 $-1 $335 $244 $240 $338 forward $236 $-1 #
edge $-1 -1 $-1 $246 0 $339 270.83537831776692 $240 $410 forward @7 unknown #
vertex $-1 -1 $-1 $344 $411 #
straight-curve $-1 -1 $-1 385.78054735993675 5.0799999999992451 533.39999999999998 -1.118964938204886e-014 -1 0 I I #
point $-1 -1 $-1 385.78054735993669 -7.3718808835110394e-013 533.39999999999998 #
straight-curve $-1 -1 $-1 385.78054735993686 5.0799999999992451 483.21026672777356 -0.98325922485194905 1.015718601540597e-014 0.1822122299505288 I I #
point $-1 -1 $-1 114.94516904216982 5.0800000000020429 533.39999999999998 #
edge $-1 -1 $-1 $249 -1.1780947875743457e-015 $339 2.7751208951087332 $248 $412 forward @7 unknown #
point $-1 -1 $-1 385.78054735993686 5.0799999999992451 483.21026672777356 #
model_id-kcp-attrib $-1 -1 $-1 $-1 $254 1 1021472104 1021472104 -900333567 9 #
face $413 -1 $-1 $295 $291 $7 $-1 $414 reversed single #
loop $-1 -1 $-1 $-1 $382 $254 #
plane-surface $-1 -1 $-1 103.61005749731632 2.5399999999999996 483.21026672777361 0 0 -1 -25.399999999999999 0 0 forward_v I I I I #
coedge $-1 -1 $-1 $358 $380 $383 $415 forward $255 $-1 #
coedge $-1 -1 $-1 $380 $358 $257 $352 reversed $255 $-1 #
edge $416 -1 $-1 $395 0 $360 0.19999999999999998 $257 $417 forward @7 unknown #
straight-curve $-1 -1 $-1 77.457894947644732 5.0799999999999992 76.810266727773666 0 -25.399999999999999 0 I I #
straight-curve $-1 -1 $-1 77.457894947644732 5.0799999999999992 50.871514186456842 0 -25.399999999999999 0 I I #
coedge $-1 -1 $-1 $310 $262 $270 $274 forward $311 $-1 #
straight-curve $-1 -1 $-1 304.79999999999995 0 50.871514186456842 0 25.399999999999999 0 I I #
coedge $-1 -1 $-1 $280 $264 $418 $419 reversed $37 $-1 #
coedge $-1 -1 $-1 $351 $350 $264 $359 forward $255 $-1 #
edge $420 -1 $-1 $421 0 $360 16 $264 $422 forward @7 unknown #
vertex $-1 -1 $-1 $359 $423 #
straight-curve $-1 -1 $-1 51.519142406327916 0 76.810266727773666 25.399999999999999 0 0 I I #
point $-1 -1 $-1 77.457894947644732 0 76.810266727773666 #
coedge $-1 -1 $-1 $270 $269 $424 $425 forward $271 $-1 #
face $426 -1 $-1 $427 $271 $7 $-1 $428 reversed single #
vertex $-1 -1 $-1 $403 $429 #
straight-curve $-1 -1 $-1 304.79999999999995 0 50.871514186456842 25.399999999999999 -9.3622290693955209e-014 0 I I #
coedge $-1 -1 $-1 $430 $431 $277 $368 reversed $432 $-1 #
edge $-1 -1 $-1 $314 4.1961185182683086e-016 $369 0.2000000000000004 $367 $433 forward @7 unknown #
vertex $-1 -1 $-1 $368 $434 #
straight-curve $-1 -1 $-1 304.79999999999995 0 0 25.399999999999999 -9.3349530311366994e-014 0 I I #
model_id-kcp-attrib $-1 -1 $-1 $-1 $279 1 1021472104 1021472104 -900333567 15 #
plane-surface $-1 -1 $-1 279.39999999999998 2.5399999999999996 0 0 0 -1 25.399999999999999 0 0 forward_v I I I I #
coedge $-1 -1 $-1 $290 $289 $280 $374 reversed $291 $-1 #
edge $-1 -1 $-1 $435 -8.7266280561062284e-017 $376 2.7751208951087007 $280 $436 forward @7 unknown #
attrib_edge_convexity-kcp-attrib $-1 -1 $437 $-1 $282 1 #
vertex $-1 -1 $-1 $282 $438 #
straight-curve $-1 -1 $-1 0 0 533.39999999999998 25.399999999999999 0 0 I I #
convexity-sys-attrib $-1 -1 $-1 $283 $181 #
point $-1 -1 $-1 0 0 533.39999999999998 #
coedge $-1 -1 $-1 $350 $351 $286 $381 reversed $255 $-1 #
edge $439 -1 $-1 $384 0 $395 16 $286 $440 forward @7 unknown #
coedge $-1 -1 $-1 $418 $287 $290 $386 forward $348 $-1 #
coedge $-1 -1 $-1 $287 $418 $350 $415 reversed $348 $-1 #
vertex $-1 -1 $-1 $381 $441 #
straight-curve $-1 -1 $-1 155.70097258830469 5.0799999999999992 483.21026672777361 -25.399999999999999 0 0 I I #
edge $-1 -1 $-1 $292 3.4967654318902568e-017 $435 0.20000000000000004 $290 $442 forward @7 unknown #
point $-1 -1 $-1 155.70097258830469 5.0799999999999992 483.21026672777361 #
attrib_edge_convexity-kcp-attrib $-1 -1 $443 $-1 $294 1 #
straight-curve $-1 -1 $-1 155.70097258830515 5.0799999999999992 533.39999999999998 0 -25.399999999999999 0 I I #
model_id-kcp-attrib $-1 -1 $-1 $-1 $295 1 1021472104 1021472104 -900333567 11 #
plane-surface $-1 -1 $-1 279.39999999999998 2.5399999999999996 533.39999999999998 0 0 -1 25.399999999999999 0 0 forward_v I I I I #
convexity-sys-attrib $-1 -1 $-1 $298 $193 #
model_id-kcp-attrib $-1 -1 $-1 $-1 $301 1 1021472104 1021472104 -900333567 13 #
plane-surface $-1 -1 $-1 280.65789494764465 2.5399999999999996 50.871514186456842 0 0 1 25.399999999999999 0 0 forward_v I I I I #
vertex $-1 -1 $-1 $304 $444 #
straight-curve $-1 -1 $-1 51.519142406327916 5.0799999999999992 76.810266727773666 25.399999999999999 0 0 I I #
point $-1 -1 $-1 77.457894947644732 5.0799999999999992 76.810266727773666 #
coedge $-1 -1 $-1 $445 $308 $446 $447 forward $400 $-1 #
coedge $-1 -1 $-1 $308 $448 $430 $449 reversed $400 $-1 #
loop $-1 -1 $-1 $-1 $398 $450 #
straight-curve $-1 -1 $-1 315.31964534011797 5.0799999999999725 0 6.7584053482679663e-014 0 25.399999999999999 I I #
coedge $-1 -1 $-1 $451 $446 $310 $403 reversed $452 $-1 #
edge $-1 -1 $-1 $365 7.3997024356502329e-016 $312 0.2000000000000007 $402 $453 forward @7 unknown #
point $-1 -1 $-1 315.31964534011809 5.0799999999999601 50.871514186456842 #
point $-1 -1 $-1 315.31964534011797 5.0799999999999601 0 #
straight-curve $-1 -1 $-1 -279.39999999999998 2.5400000000012675 0 0 0 -1 I I #
point $-1 -1 $-1 -279.39999999999998 -2.5400000000012675 -266.69999999999999 #
straight-curve $-1 -1 $-1 -279.39999999999998 0 -266.69999999999999 0 1 0 I I #
point $-1 -1 $-1 -279.39999999999998 2.5400000000012675 -266.69999999999999 #
straight-curve $-1 -1 $-1 114.94516904216982 5.0800000000020429 533.39999999999998 1 -1.0330120235521166e-014 0 I I #
point $-1 -1 $-1 385.78054735993675 5.0799999999992451 533.39999999999998 #
ellipse-curve $-1 -1 $-1 390.43099100135362 5.0799999999991972 508.30513336388674 1.033005745402476e-014 1 -3.9816828148250044e-018 -4.6504436414167927 4.7939430203314254e-014 -25.09486663611321 1 I I #
model_id-kcp-attrib $-1 -1 $-1 $-1 $347 1 1021472104 1021472104 -900333567 10 #
cone-surface $-1 -1 $-1 160.35141622972213 2.5399999999999996 508.30513336388674 0 1 0 -4.6504436414174259 0 -25.094866636113128 1 I I 0 1 25.522126822549559 forward I I I I #
edge $454 -1 $-1 $384 0 $421 0.19999999999999998 $350 $455 forward @7 unknown #
attrib_edge_convexity-kcp-attrib $-1 -1 $456 $-1 $352 2 #
straight-curve $-1 -1 $-1 51.519142406327916 5.0799999999999992 76.810266727773666 0 -25.399999999999999 0 I I #
coedge $-1 -1 $-1 $383 $382 $357 $419 forward $348 $-1 #
edge $-1 -1 $-1 $435 0 $421 4.1016468575581415 $357 $457 forward @7 unknown #
attrib_edge_convexity-kcp-attrib $-1 -1 $458 $-1 $359 1 #
vertex $-1 -1 $-1 $419 $459 #
straight-curve $-1 -1 $-1 51.519142406327916 0 483.21026672777361 0 0 -25.399999999999999 I I #
point $-1 -1 $-1 51.519142406327916 0 76.810266727773666 #
coedge $-1 -1 $-1 $460 $461 $363 $425 reversed $462 $-1 #
edge $-1 -1 $-1 $369 4.4303037778121825e-044 $365 2.0028155191518442 $424 $463 forward @7 unknown #
model_id-kcp-attrib $-1 -1 $-1 $-1 $364 1 1021472104 1021472104 -900333567 16 #
face $464 -1 $-1 $465 $462 $7 $-1 $466 forward single #
plane-surface $-1 -1 $-1 304.79999999999995 0 0 3.6751783587152361e-015 1 0 25.399999999999999 -9.3349530311366994e-014 0 forward_v I I I I #
point $-1 -1 $-1 315.31964534011814 -3.866157289536182e-014 50.871514186456842 #
coedge $-1 -1 $-1 $467 $367 $399 $449 forward $432 $-1 #
coedge $-1 -1 $-1 $367 $467 $460 $468 reversed $432 $-1 #
loop $-1 -1 $-1 $-1 $430 $465 #
straight-curve $-1 -1 $-1 315.31964534011797 5.0799999999999708 0 0 -25.399999999999999 0 I I #
point $-1 -1 $-1 315.31964534011803 -3.8661572895361296e-014 0 #
vertex $-1 -1 $-1 $374 $469 #
ellipse-curve $-1 -1 $-1 160.35141622972216 0 508.30513336388674 0 1 0 -4.6504436414174695 0 -25.094866636113121 1 I I #
convexity-sys-attrib $-1 -1 $-1 $375 $282 #
point $-1 -1 $-1 155.70097258830515 0 533.39999999999998 #
attrib_edge_convexity-kcp-attrib $-1 -1 $470 $-1 $381 1 #
straight-curve $-1 -1 $-1 51.519142406327916 5.0799999999999992 483.21026672777361 0 0 -25.399999999999999 I I #
point $-1 -1 $-1 51.519142406327916 5.0799999999999992 483.21026672777361 #
straight-curve $-1 -1 $-1 155.70097258830469 5.0800000000000001 483.21026672777361 0 -25.399999999999999 0 I I #
convexity-sys-attrib $-1 -1 $-1 $388 $294 #
point $-1 -1 $-1 51.519142406327916 5.0799999999999992 76.810266727773666 #
coedge $-1 -1 $-1 $471 $398 $472 $473 forward $400 $-1 #
coedge $-1 -1 $-1 $402 $474 $398 $447 reversed $452 $-1 #
edge $-1 -1 $-1 $312 2.2379298764097695e-015 $475 6.6353641577766389 $446 $476 forward @7 unknown #
coedge $-1 -1 $-1 $399 $477 $478 $479 reversed $400 $-1 #
edge $-1 -1 $-1 $314 -2.2379298764097596e-015 $480 9.585840734641021 $430 $481 forward @7 unknown #
face $482 -1 $-1 $483 $400 $7 $-1 $484 reversed single #
coedge $-1 -1 $-1 $474 $402 $461 $485 forward $452 $-1 #
loop $-1 -1 $-1 $-1 $451 $483 #
straight-curve $-1 -1 $-1 315.31964534011809 -5.7456817081913411e-014 50.871514186456842 0 25.399999999999999 0 I I #
attrib_edge_convexity-kcp-attrib $-1 -1 $486 $-1 $415 2 #
straight-curve $-1 -1 $-1 51.519142406327916 5.0799999999999992 483.21026672777361 0 -25.399999999999999 0 I I #
convexity-sys-attrib $-1 -1 $-1 $416 $352 #
straight-curve $-1 -1 $-1 155.70097258830469 0 483.21026672777361 -25.399999999999999 0 0 I I #
convexity-sys-attrib $-1 -1 $-1 $420 $359 #
point $-1 -1 $-1 51.519142406327916 0 483.21026672777361 #
coedge $-1 -1 $-1 $487 $424 $431 $468 forward $462 $-1 #
coedge $-1 -1 $-1 $424 $488 $451 $485 reversed $462 $-1 #
loop $-1 -1 $-1 $-1 $460 $427 #
straight-curve $-1 -1 $-1 315.31964534011803 -8.9013277759361288e-015 0 6.7584053482679663e-014 -9.6042716510680268e-028 25.399999999999999 I I #
model_id-kcp-attrib $-1 -1 $-1 $-1 $427 1 1021472104 1021472104 -900333567 17 #
face $489 -1 $-1 $450 $432 $7 $-1 $490 forward single #
plane-surface $-1 -1 $-1 -9.0238927441532719e-014 3.248601387895178e-012 0 -1.0330795317739952e-014 -1 0 25.399999999999999 -2.6240220107059474e-013 0 forward_v I I I I #
coedge $-1 -1 $-1 $431 $430 $491 $492 reversed $432 $-1 #
edge $-1 -1 $-1 $369 4.4758597528195413e-015 $493 9.5858407346410264 $431 $494 forward @7 unknown #
point $-1 -1 $-1 155.70097258830469 -7.0499162063697436e-016 483.21026672777361 #
convexity-sys-attrib $-1 -1 $-1 $439 $381 #
coedge $-1 -1 $-1 $495 $445 $496 $497 forward $400 $-1 #
coedge $-1 -1 $-1 $498 $499 $445 $473 reversed $500 $-1 #
edge $-1 -1 $-1 $475 0 $501 1.0212107299731032 $445 $502 forward @7 unknown #
coedge $-1 -1 $-1 $446 $451 $498 $503 reversed $452 $-1 #
vertex $-1 -1 $-1 $447 $504 #
straight-curve $-1 -1 $-1 315.31964534011803 5.0799999999999725 50.871514186456842 25.399999999999999 -2.6232536300403047e-013 0 I I #
coedge $-1 -1 $-1 $448 $505 $506 $507 forward $400 $-1 #
coedge $-1 -1 $-1 $508 $491 $448 $479 forward $509 $-1 #
edge $-1 -1 $-1 $480 0 $510 21 $448 $511 forward @7 unknown #
vertex $-1 -1 $-1 $492 $512 #
straight-curve $-1 -1 $-1 315.31964534011803 5.0799999999999725 0 25.399999999999999 -2.6240891874435294e-013 0 I I #
model_id-kcp-attrib $-1 -1 $-1 $-1 $450 1 1021472104 1021472104 -900333567 19 #
face $513 -1 $-1 $514 $452 $7 $-1 $515 forward single #
plane-surface $-1 -1 $-1 -4.5119463720766359e-014 5.0800000000032304 0 -1.0330795317739952e-014 -1 0 25.399999999999999 -2.6240220107059474e-013 0 forward_v I I I I #
edge $-1 -1 $-1 $365 4.4758597528195413e-015 $516 6.6353641577766362 $451 $517 forward @7 unknown #
convexity-sys-attrib $-1 -1 $-1 $454 $415 #
coedge $-1 -1 $-1 $518 $460 $519 $520 forward $462 $-1 #
coedge $-1 -1 $-1 $461 $521 $522 $523 reversed $462 $-1 #
model_id-kcp-attrib $-1 -1 $-1 $-1 $465 1 1021472104 1021472104 -900333567 18 #
plane-surface $-1 -1 $-1 279.39999999999998 2.5400000000003518 0 0 0 -1 25.399999999999999 -2.6240220107059474e-013 0 forward_v I I I I #
coedge $-1 -1 $-1 $478 $519 $467 $492 forward $509 $-1 #
edge $-1 -1 $-1 $493 -4.163336342343383e-017 $480 0.19999999999999996 $467 $524 forward @7 unknown #
vertex $-1 -1 $-1 $468 $525 #
straight-curve $-1 -1 $-1 315.31964534011792 -8.9013277759354883e-015 0 25.399999999999999 -2.6240220107059474e-013 0 I I #
coedge $-1 -1 $-1 $526 $471 $527 $528 forward $400 $-1 #
coedge $-1 -1 $-1 $529 $530 $471 $497 reversed $531 $-1 #
edge $-1 -1 $-1 $501 0 $532 1.0212107299730993 $471 $533 forward @7 unknown #
coedge $-1 -1 $-1 $522 $472 $474 $503 forward $500 $-1 #
coedge $-1 -1 $-1 $472 $522 $529 $534 reversed $500 $-1 #
loop $-1 -1 $-1 $-1 $498 $514 #
vertex $-1 -1 $-1 $497 $535 #
straight-curve $-1 -1 $-1 483.85789494764464 5.0799999999982317 50.871514186456842 0 0 25.399999999999999 I I #
edge $-1 -1 $-1 $475 8.0425604933475912e-016 $516 0.20000000000000009 $474 $536 forward @7 unknown #
point $-1 -1 $-1 483.85789494764464 5.0799999999982317 50.871514186456842 #
coedge $-1 -1 $-1 $477 $537 $538 $539 forward $400 $-1 #
coedge $-1 -1 $-1 $540 $541 $477 $507 reversed $542 $-1 #
edge $-1 -1 $-1 $543 -6.7137896292292938e-015 $510 6.8117894740182301 $477 $544 forward @7 unknown #
coedge $-1 -1 $-1 $519 $478 $541 $545 reversed $509 $-1 #
loop $-1 -1 $-1 $-1 $491 $546 #
vertex $-1 -1 $-1 $479 $547 #
straight-curve $-1 -1 $-1 558.79999999999995 5.0799999999974572 0 0 0 25.399999999999999 I I #
point $-1 -1 $-1 558.79999999999995 5.0799999999974634 0 #
model_id-kcp-attrib $-1 -1 $-1 $-1 $483 1 1021472104 1021472104 -900333567 20 #
face $548 -1 $-1 $549 $500 $7 $-1 $550 forward single #
plane-surface $-1 -1 $-1 280.65789494764459 2.5400000000003518 50.871514186456842 0 0 1 25.399999999999999 -2.6240220107059474e-013 0 forward_v I I I I #
vertex $-1 -1 $-1 $503 $551 #
straight-curve $-1 -1 $-1 315.31964534011803 -8.81239525796218e-015 50.871514186456842 25.399999999999999 -2.6243161061966589e-013 0 I I #
coedge $-1 -1 $-1 $552 $487 $553 $554 reversed $462 $-1 #
coedge $-1 -1 $-1 $491 $508 $487 $520 reversed $509 $-1 #
edge $-1 -1 $-1 $493 0 $555 21 $487 $556 forward @7 unknown #
coedge $-1 -1 $-1 $488 $557 $558 $559 reversed $462 $-1 #
coedge $-1 -1 $-1 $499 $498 $488 $523 forward $500 $-1 #
edge $-1 -1 $-1 $516 0 $560 1.0212107299731032 $488 $561 forward @7 unknown #
straight-curve $-1 -1 $-1 558.79999999999995 -2.534444876189923e-012 0 0 25.399999999999999 0 I I #
point $-1 -1 $-1 558.79999999999995 -2.5355023636208782e-012 0 #
coedge $-1 -1 $-1 $562 $495 $563 $564 reversed $400 $-1 #
coedge $-1 -1 $-1 $565 $566 $495 $528 reversed $567 $-1 #
edge $-1 -1 $-1 $532 0 $568 2.9487478663716327 $495 $569 forward @7 unknown #
coedge $-1 -1 $-1 $558 $496 $499 $534 forward $531 $-1 #
coedge $-1 -1 $-1 $496 $558 $565 $570 reversed $531 $-1 #
loop $-1 -1 $-1 $-1 $529 $549 #
vertex $-1 -1 $-1 $528 $571 #
straight-curve $-1 -1 $-1 483.85789494764464 5.0799999999982317 76.810266727773666 25.399999999999999 -2.6233255094088888e-013 0 I I #
edge $-1 -1 $-1 $501 1.713415061626226e-015 $560 0.19999999999999996 $529 $572 forward @7 unknown #
point $-1 -1 $-1 483.85789494764464 5.0799999999982317 76.810266727773666 #
straight-curve $-1 -1 $-1 483.85789494764464 5.0799999999982521 50.871514186456842 0 -25.399999999999999 0 I I #
coedge $-1 -1 $-1 $505 $562 $573 $574 forward $400 $-1 #
coedge $-1 -1 $-1 $575 $576 $505 $539 reversed $577 $-1 #
edge $-1 -1 $-1 $578 -1.1780947875743457e-015 $543 2.7751208951087332 $505 $579 forward @7 unknown #
coedge $-1 -1 $-1 $553 $506 $576 $580 forward $542 $-1 #
coedge $-1 -1 $-1 $506 $553 $508 $545 forward $542 $-1 #
loop $-1 -1 $-1 $-1 $553 $581 #
vertex $-1 -1 $-1 $507 $582 #
straight-curve $-1 -1 $-1 385.78054735993692 5.0799999999992451 533.39999999999998 25.399999999999999 -2.6246535609397229e-013 0 I I #
edge $-1 -1 $-1 $555 0 $510 0.19999999999999998 $541 $583 forward @7 unknown #
face $584 -1 $-1 $-1 $509 $7 $-1 $585 forward single #
point $-1 -1 $-1 558.79999999999995 5.0799999999974634 533.39999999999998 #
model_id-kcp-attrib $-1 -1 $-1 $-1 $514 1 1021472104 1021472104 -900333567 21 #
face $586 -1 $-1 $587 $531 $7 $-1 $588 forward single #
plane-surface $-1 -1 $-1 483.85789494764464 2.5399999999982761 63.84089045711525 -1 1.0330795317739952e-014 0 0 0 25.399999999999999 forward_v I I I I #
point $-1 -1 $-1 483.85789494764458 -1.7500354876814594e-012 50.871514186456842 #
coedge $-1 -1 $-1 $589 $518 $590 $591 reversed $462 $-1 #
coedge $-1 -1 $-1 $541 $540 $518 $554 forward $542 $-1 #
edge $-1 -1 $-1 $592 -6.7137896292292977e-015 $555 6.8117894740182328 $518 $593 forward @7 unknown #
vertex $-1 -1 $-1 $554 $594 #
straight-curve $-1 -1 $-1 558.79999999999995 -2.5242470356579077e-012 0 0 0 25.399999999999999 I I #
coedge $-1 -1 $-1 $521 $595 $596 $597 reversed $462 $-1 #
coedge $-1 -1 $-1 $530 $529 $521 $559 forward $531 $-1 #
edge $-1 -1 $-1 $560 2.2379298764097537e-015 $598 1.0212107299731059 $521 $599 forward @7 unknown #
vertex $-1 -1 $-1 $523 $600 #
straight-curve $-1 -1 $-1 483.85789494764464 -1.750141698231289e-012 50.871514186456842 0 0 25.399999999999999 I I #
coedge $-1 -1 $-1 $537 $526 $601 $602 forward $400 $-1 #
coedge $-1 -1 $-1 $603 $604 $526 $564 forward $605 $-1 #
edge $-1 -1 $-1 $606 1.398641462048926e-016 $568 1.8331206077060835 $526 $607 forward @7 unknown #
coedge $-1 -1 $-1 $596 $527 $530 $570 forward $567 $-1 #
coedge $-1 -1 $-1 $527 $596 $603 $608 reversed $567 $-1 #
loop $-1 -1 $-1 $-1 $565 $587 #
vertex $-1 -1 $-1 $564 $609 #
straight-curve $-1 -1 $-1 509.79664748896147 5.0799999999979644 76.810266727773666 0 0 25.399999999999999 I I #
edge $-1 -1 $-1 $532 -1.3987061727561027e-016 $598 0.19999999999999996 $565 $610 forward @7 unknown #
point $-1 -1 $-1 509.79664748896136 5.0799999999979644 76.810266727773666 #
straight-curve $-1 -1 $-1 483.85789494764464 5.0799999999982752 76.810266727773666 0 -25.399999999999999 0 I I #
coedge $-1 -1 $-1 $611 $612 $537 $574 reversed $613 $-1 #
edge $-1 -1 $-1 $614 0 $578 3.60712938714371 $537 $615 forward @7 unknown #
coedge $-1 -1 $-1 $590 $538 $612 $616 forward $577 $-1 #
coedge $-1 -1 $-1 $538 $590 $540 $580 reversed $577 $-1 #
loop $-1 -1 $-1 $-1 $575 $617 #
vertex $-1 -1 $-1 $539 $618 #
ellipse-curve $-1 -1 $-1 390.43099100135362 5.0799999999991972 508.30513336388674 1.033005745402476e-014 1 -3.9816828148250044e-018 -4.6504436414167927 4.7939430203314254e-014 -25.09486663611321 1 I I #
edge $-1 -1 $-1 $543 1.0490296295671566e-015 $592 0.19999999999999998 $540 $619 forward @7 unknown #
face $620 -1 $-1 $546 $542 $7 $-1 $621 reversed single #
point $-1 -1 $-1 385.78054735993675 5.0799999999992451 533.39999999999998 #
straight-curve $-1 -1 $-1 558.79999999999995 -2.5355023636208782e-012 533.39999999999998 0 25.399999999999999 0 I I #
model_id-kcp-attrib $-1 -1 $-1 $-1 $546 1 1021472104 1021472104 -900333567 29 #
plane-surface $-1 -1 $-1 558.79999999999995 2.5399999999974643 266.69999999999999 1 -1.0330795317739952e-014 0 0 0 25.399999999999999 forward_v I I I I #
model_id-kcp-attrib $-1 -1 $-1 $-1 $549 1 1021472104 1021472104 -900333567 22 #
face $622 -1 $-1 $623 $567 $7 $-1 $624 forward single #
plane-surface $-1 -1 $-1 496.82727121830311 2.5399999999980958 76.810266727773666 0 0 1 25.399999999999999 -2.6240220107059474e-013 0 forward_v I I I I #
coedge $-1 -1 $-1 $625 $552 $626 $627 reversed $462 $-1 #
coedge $-1 -1 $-1 $576 $575 $552 $591 forward $577 $-1 #
edge $-1 -1 $-1 $628 5.388692824645612e-015 $592 2.7751208951087309 $552 $629 forward @7 unknown #
vertex $-1 -1 $-1 $591 $630 #
straight-curve $-1 -1 $-1 385.78054735993686 -7.3681848444601467e-013 533.39999999999998 25.399999999999999 -2.6240220107059469e-013 0 I I #
point $-1 -1 $-1 558.79999999999995 -2.5355023636208782e-012 533.39999999999998 #
coedge $-1 -1 $-1 $557 $625 $631 $632 forward $462 $-1 #
coedge $-1 -1 $-1 $566 $565 $557 $597 forward $567 $-1 #
edge $-1 -1 $-1 $598 0 $633 2.9487478663716327 $557 $634 forward @7 unknown #
vertex $-1 -1 $-1 $559 $635 #
straight-curve $-1 -1 $-1 483.85789494764458 -1.750141698231289e-012 76.810266727773666 25.399999999999999 -2.6233255094088797e-013 0 I I #
point $-1 -1 $-1 483.85789494764464 -1.7233520166470838e-012 76.810266727773666 #
coedge $-1 -1 $-1 $636 $637 $562 $602 reversed $638 $-1 #
edge $-1 -1 $-1 $606 7.9974479565664592e-016 $614 7.4758418970593619 $562 $639 forward @7 unknown #
coedge $-1 -1 $-1 $631 $563 $566 $608 forward $605 $-1 #
coedge $-1 -1 $-1 $563 $631 $636 $640 reversed $605 $-1 #
loop $-1 -1 $-1 $-1 $603 $623 #
vertex $-1 -1 $-1 $602 $641 #
ellipse-curve $-1 -1 $-1 460.72332819069874 5.0799999999984706 215.69682224448647 1.0330210893542719e-014 1 -7.6205046430804898e-019 49.073319298262611 -5.0688897523798456e-013 63.988359710873326 1 I I #
edge $-1 -1 $-1 $568 -1.7483827159451285e-016 $633 0.19999999999999998 $603 $642 forward @7 unknown #
point $-1 -1 $-1 509.79664748896136 5.0799999999979644 151.70846253361313 #
straight-curve $-1 -1 $-1 509.79664748896147 5.0799999999979608 76.810266727773666 0 -25.399999999999999 0 I I #
coedge $-1 -1 $-1 $626 $573 $637 $643 forward $613 $-1 #
coedge $-1 -1 $-1 $573 $626 $575 $616 reversed $613 $-1 #
loop $-1 -1 $-1 $-1 $611 $644 #
vertex $-1 -1 $-1 $574 $645 #
straight-curve $-1 -1 $-1 475.86782578658455 5.0799999999983143 466.51578425824437 -24.974784311239503 2.5798601584893226e-013 4.628190640743421 I I #
edge $-1 -1 $-1 $578 1.4686414813939477e-015 $628 0.19999999999999998 $575 $646 forward @7 unknown #
face $647 -1 $-1 $581 $577 $7 $-1 $648 forward single #
point $-1 -1 $-1 385.78054735993686 5.0799999999992451 483.21026672777356 #
straight-curve $-1 -1 $-1 385.7805473599368 5.0799999999992718 533.39999999999998 -9.0238927441532724e-013 -25.399999999999999 0 I I #
model_id-kcp-attrib $-1 -1 $-1 $-1 $581 1 1021472104 1021472104 -900333567 28 #
plane-surface $-1 -1 $-1 279.39999999999998 2.5400000000003518 533.39999999999998 0 0 -1 25.399999999999999 -2.6240220107059474e-013 0 forward_v I I I I #
model_id-kcp-attrib $-1 -1 $-1 $-1 $587 1 1021472104 1021472104 -900333567 23 #
face $649 -1 $-1 $650 $605 $7 $-1 $651 reversed single #
plane-surface $-1 -1 $-1 509.79664748896147 2.5399999999979603 114.2593646306934 -1 1.0330795317739952e-014 0 0 0 25.399999999999999 forward_v I I I I #
coedge $-1 -1 $-1 $595 $589 $652 $653 reversed $462 $-1 #
coedge $-1 -1 $-1 $612 $611 $589 $627 forward $613 $-1 #
edge $-1 -1 $-1 $654 -2.2004651955516722e-015 $628 3.6071293871437171 $589 $655 forward @7 unknown #
vertex $-1 -1 $-1 $627 $656 #
ellipse-curve $-1 -1 $-1 390.43099100135362 -7.8486126584217588e-013 508.30513336388674 1.0330795317739949e-014 1 -1.1329275666469556e-029 -4.6504436414167927 4.8042781396161845e-014 -25.09486663611321 1 I I #
point $-1 -1 $-1 385.78054735993669 -7.2755135249735756e-013 533.39999999999998 #
coedge $-1 -1 $-1 $604 $603 $595 $632 reversed $605 $-1 #
edge $-1 -1 $-1 $657 4.1959243861467583e-016 $633 1.8331206077060755 $595 $658 forward @7 unknown #
vertex $-1 -1 $-1 $597 $659 #
straight-curve $-1 -1 $-1 509.79664748896147 -2.0180385140733392e-012 76.810266727773666 0 0 25.399999999999999 I I #
point $-1 -1 $-1 509.79664748896147 -2.0377782794511744e-012 76.810266727773666 #
coedge $-1 -1 $-1 $652 $601 $604 $640 forward $638 $-1 #
coedge $-1 -1 $-1 $601 $652 $611 $643 reversed $638 $-1 #
loop $-1 -1 $-1 $-1 $636 $650 #
straight-curve $-1 -1 $-1 509.79664748896147 5.0799999999979644 279.68518195535978 -4.5384616434602272 4.6868411649315282e-014 24.991245785491373 I I #
edge $-1 -1 $-1 $606 -5.59482469102461e-016 $657 0.20000000000000001 $636 $660 forward @7 unknown #
point $-1 -1 $-1 509.79664748896136 5.0799999999979644 279.68518195535978 #
straight-curve $-1 -1 $-1 509.79664748896147 5.0799999999979599 151.70846253361313 0 -25.399999999999999 0 I I #
edge $-1 -1 $-1 $614 1.8183180245829335e-015 $654 0.19999999999999998 $611 $661 forward @7 unknown #
face $662 -1 $-1 $617 $613 $7 $-1 $663 forward single #
point $-1 -1 $-1 475.86782578658455 5.0799999999983143 466.51578425824437 #
straight-curve $-1 -1 $-1 385.7805473599368 5.0799999999992824 483.21026672777344 -4.5119463720766367e-013 -25.399999999999999 4.5119463720766367e-013 I I #
model_id-kcp-attrib $-1 -1 $-1 $-1 $617 1 1021472104 1021472104 -900333567 27 #
cone-surface $-1 -1 $-1 390.43099100135362 2.5399999999992238 508.30513336388674 1.0330795317739952e-014 1 3.9066467815412184e-031 -4.650443641416885 4.8042781396163082e-014 -25.094866636113224 1 I I 0 1 25.522126822549556 forward I I I I #
model_id-kcp-attrib $-1 -1 $-1 $-1 $623 1 1021472104 1021472104 -900333567 24 #
face $664 -1 $-1 $644 $638 $7 $-1 $665 forward single #
cone-surface $-1 -1 $-1 460.72332819069857 2.5399999999984568 215.69682224448627 1.0330795317739954e-014 1 6.2612937449765904e-031 49.073319298262781 -5.069664172324509e-013 63.988359710873404 1 I I 0 1 80.639325675735762 forward I I I I #
coedge $-1 -1 $-1 $637 $636 $625 $653 forward $638 $-1 #
edge $-1 -1 $-1 $657 -1.4021707788335436e-015 $654 7.4758418970593619 $625 $666 forward @7 unknown #
vertex $-1 -1 $-1 $653 $667 #
straight-curve $-1 -1 $-1 475.86782578658455 -1.6676576786167629e-012 466.51578425824437 -24.974784311239503 2.5808373782463233e-013 4.6281906407434166 I I #
point $-1 -1 $-1 385.78054735993669 -7.1662398237748444e-013 483.21026672777356 #
vertex $-1 -1 $-1 $632 $668 #
ellipse-curve $-1 -1 $-1 460.7233281906984 -1.5110370137508575e-012 215.69682224448647 1.0330795317739954e-014 1 6.2612937449765817e-031 49.073319298262973 -5.0696641723245281e-013 63.988359710873326 1 I I #
point $-1 -1 $-1 509.79664748896147 -2.0391882626924485e-012 151.70846253361313 #
straight-curve $-1 -1 $-1 509.79664748896147 5.0799999999979502 279.68518195535972 0 -25.399999999999999 -2.2559731860383181e-013 I I #
straight-curve $-1 -1 $-1 475.8678257865846 5.0799999999983605 466.51578425824437 0 -25.399999999999999 -4.5119463720766362e-013 I I #
model_id-kcp-attrib $-1 -1 $-1 $-1 $644 1 1021472104 1021472104 -900333567 26 #
plane-surface $-1 -1 $-1 430.8241865732607 2.5399999999988179 474.86302549300893 -0.18221222995052899 1.8823972520078802e-015 -0.98325922485194905 -24.974784311239503 2.5800938482411831e-013 4.6281906407434361 forward_v I I I I #
model_id-kcp-attrib $-1 -1 $-1 $-1 $650 1 1021472104 1021472104 -900333567 25 #
plane-surface $-1 -1 $-1 492.83223663777306 2.5399999999981859 373.10048310680207 -0.98390731438942414 1.0164545076584354e-014 -0.17867959226221367 -4.5384616434602263 4.6885918296001266e-014 24.991245785491369 forward_v I I I I #
straight-curve $-1 -1 $-1 509.79664748896147 -2.0180385140733392e-012 279.68518195535978 -4.5384616434602272 4.6868411649315282e-014 24.991245785491373 I I #
point $-1 -1 $-1 475.8678257865846 -1.6384005263603285e-012 466.51578425824437 #
point $-1 -1 $-1 509.79664748896136 -2.0497631370020031e-012 279.68518195535972 #
End-of-ACIS-data 