600 0 1 0           
114 GICL Pro/E ACIS Translator - Source: f:/data5/repository/PTC/V20/NC_Training_Rel20/exercise_3/part_ark_1.prt - 6 0 13 ACIS 6.0.3 NT 24 Thu Apr 04 13:14:02 2002 
1 9.9999999999999995e-007 1e-010 
body $-1 $1 $-1 $2 #
lump $-1 $-1 $3 $0 #
transform $-1 1 0 0 0 1 0 0 0 1 0 0 0 25.399999999999999 no_rotate no_reflect no_shear #
shell $-1 $-1 $-1 $4 $-1 $1 #
face $-1 $5 $6 $3 $-1 $7 reversed single #
face $-1 $8 $9 $3 $-1 $10 forward single #
loop $-1 $-1 $11 $4 #
plane-surface $-1 0 0.19999999999999998 0 0 -1 0 1 0 0 forward_v I I I I #
face $-1 $12 $13 $3 $-1 $14 forward single #
loop $-1 $-1 $15 $5 #
plane-surface $-1 11 0.099999999999999992 0 0 0 -1 1 0 0 forward_v I I I I #
coedge $-1 $16 $17 $18 $19 reversed $6 $-1 #
face $-1 $20 $21 $3 $-1 $22 forward single #
loop $-1 $-1 $23 $8 #
plane-surface $-1 0 0 0 0 -1 0 1 0 0 forward_v I I I I #
coedge $-1 $24 $25 $26 $27 reversed $9 $-1 #
coedge $-1 $28 $11 $29 $30 forward $6 $-1 #
coedge $-1 $11 $31 $32 $33 reversed $6 $-1 #
coedge $-1 $25 $24 $11 $19 forward $9 $-1 #
edge $-1 $34 0 $35 12 $11 $36 forward 7 unknown #
face $-1 $37 $38 $3 $-1 $39 forward single #
loop $-1 $-1 $40 $12 #
plane-surface $-1 11.049523423135618 0.099999999999999992 2.0028155191518442 0 0 1 1 0 0 forward_v I I I I #
coedge $-1 $41 $42 $43 $44 reversed $13 $-1 #
coedge $-1 $18 $15 $45 $46 forward $9 $-1 #
coedge $-1 $15 $18 $47 $48 forward $9 $-1 #
coedge $-1 $42 $49 $15 $27 forward $13 $-1 #
edge $-1 $50 0 $51 12 $15 $52 forward 7 unknown #
coedge $-1 $53 $16 $54 $55 forward $6 $-1 #
coedge $-1 $45 $56 $16 $30 reversed $57 $-1 #
edge $-1 $34 0 $58 21 $16 $59 forward 7 unknown #
coedge $-1 $17 $60 $40 $61 forward $6 $-1 #
coedge $-1 $62 $63 $17 $33 forward $64 $-1 #
edge $-1 $35 0 $65 2.0028155191518442 $17 $66 forward 7 unknown #
vertex $-1 $30 $67 #
vertex $-1 $33 $68 #
straight-curve $-1 0 0.19999999999999998 0 1 0 0 I I #
face $-1 $69 $70 $3 $-1 $71 forward single #
loop $-1 $-1 $72 $20 #
plane-surface $-1 3.0495234231356196 0.099999999999999992 2.5134208841383958 1 0 0 0 0 -1 forward_v I I I I #
coedge $-1 $73 $74 $31 $61 reversed $21 $-1 #
coedge $-1 $75 $23 $76 $77 reversed $13 $-1 #
coedge $-1 $23 $26 $78 $79 forward $13 $-1 #
coedge $-1 $74 $73 $23 $44 forward $21 $-1 #
edge $-1 $80 0 $81 8.9504765768643804 $23 $82 forward 7 unknown #
coedge $-1 $83 $29 $24 $46 reversed $57 $-1 #
edge $-1 $50 0 $34 0.19999999999999998 $45 $84 forward 7 unknown #
coedge $-1 $85 $86 $25 $48 reversed $87 $-1 #
edge $-1 $35 0 $51 0.19999999999999998 $47 $88 forward 7 unknown #
coedge $-1 $26 $89 $83 $90 reversed $13 $-1 #
vertex $-1 $90 $91 #
vertex $-1 $48 $92 #
straight-curve $-1 0 0 0 1 0 0 I I #
coedge $-1 $93 $28 $94 $95 reversed $6 $-1 #
coedge $-1 $96 $97 $28 $55 reversed $98 $-1 #
edge $-1 $58 0 $99 6.1299595507206757 $28 $100 forward 7 unknown #
coedge $-1 $29 $83 $96 $101 forward $57 $-1 #
loop $-1 $-1 $56 $102 #
vertex $-1 $55 $103 #
straight-curve $-1 0 0.19999999999999998 0 0 0 1 I I #
coedge $-1 $31 $104 $105 $106 forward $6 $-1 #
edge $-1 $107 0 $65 8.9504765768643804 $31 $108 forward 7 unknown #
coedge $-1 $109 $32 $110 $111 forward $64 $-1 #
coedge $-1 $32 $109 $85 $112 reversed $64 $-1 #
loop $-1 $-1 $63 $113 #
vertex $-1 $33 $114 #
straight-curve $-1 12 0.19999999999999998 0 0 0 1 I I #
point $-1 0 0.19999999999999998 0 #
point $-1 12 0.19999999999999998 0 #
face $-1 $115 $116 $3 $-1 $117 forward single #
loop $-1 $-1 $118 $37 #
plane-surface $-1 2.538918058149068 0.099999999999999992 3.0240262491249474 0 0 1 1 0 0 forward_v I I I I #
coedge $-1 $76 $105 $119 $120 forward $38 $-1 #
coedge $-1 $43 $40 $121 $122 forward $21 $-1 #
coedge $-1 $40 $43 $123 $124 forward $21 $-1 #
coedge $-1 $125 $41 $126 $127 reversed $13 $-1 #
coedge $-1 $121 $72 $41 $77 forward $38 $-1 #
edge $-1 $128 0 $80 1.0212107299731032 $41 $129 forward 7 unknown #
coedge $-1 $130 $131 $42 $79 reversed $132 $-1 #
edge $-1 $51 0 $81 2.0028155191518442 $78 $133 forward 7 unknown #
vertex $-1 $77 $134 #
vertex $-1 $135 $136 #
straight-curve $-1 3.0495234231356196 0 2.0028155191518442 1 0 0 I I #
coedge $-1 $56 $45 $49 $90 forward $57 $-1 #
straight-curve $-1 0 0 0 0 1 0 I I #
coedge $-1 $137 $47 $63 $112 forward $87 $-1 #
coedge $-1 $47 $137 $130 $138 reversed $87 $-1 #
loop $-1 $-1 $86 $139 #
straight-curve $-1 12 0.19999999999999998 0 0 -1 0 I I #
coedge $-1 $49 $140 $141 $142 reversed $13 $-1 #
edge $-1 $50 0 $143 21 $83 $144 forward 7 unknown #
point $-1 0 0 0 #
point $-1 12 0 0 #
coedge $-1 $145 $53 $146 $147 forward $6 $-1 #
coedge $-1 $148 $149 $53 $95 forward $150 $-1 #
edge $-1 $151 0 $99 2.7751208951087003 $53 $152 forward 7 unknown #
coedge $-1 $141 $54 $56 $101 reversed $98 $-1 #
coedge $-1 $54 $141 $148 $153 reversed $98 $-1 #
loop $-1 $-1 $54 $154 #
vertex $-1 $95 $155 #
straight-curve $-1 0 0.19999999999999998 21 1 0 0 I I #
edge $-1 $143 0 $58 0.19999999999999998 $56 $156 forward 7 unknown #
face $-1 $157 $57 $3 $-1 $158 reversed single #
point $-1 0 0.19999999999999998 21 #
coedge $-1 $60 $145 $159 $160 forward $6 $-1 #
coedge $-1 $72 $121 $60 $106 reversed $38 $-1 #
edge $-1 $161 0 $107 1.0212107299731032 $60 $162 forward 7 unknown #
vertex $-1 $61 $163 #
straight-curve $-1 3.0495234231356196 0.19999999999999998 2.0028155191518442 1 0 0 I I #
coedge $-1 $63 $62 $164 $165 reversed $64 $-1 #
coedge $-1 $123 $166 $62 $111 reversed $167 $-1 #
edge $-1 $65 0 $168 0.41415926535898073 $110 $169 forward 7 unknown #
edge $-1 $35 0 $170 0.4141592653589754 $85 $171 forward 7 unknown #
face $-1 $139 $64 $3 $-1 $172 forward single #
point $-1 12 0.19999999999999998 2.0028155191518442 #
face $-1 $173 $174 $3 $-1 $175 forward single #
loop $-1 $-1 $176 $69 #
plane-surface $-1 2.0283126931625164 0.099999999999999992 11.024026249124947 1 0 0 0 0 -1 forward_v I I I I #
coedge $-1 $126 $159 $177 $178 forward $70 $-1 #
coedge $-1 $159 $126 $72 $120 reversed $70 $-1 #
edge $-1 $161 0 $128 0.19999999999999998 $72 $179 forward 7 unknown #
coedge $-1 $105 $76 $73 $122 reversed $38 $-1 #
edge $-1 $107 0 $80 0.19999999999999998 $73 $180 forward 7 unknown #
coedge $-1 $181 $110 $74 $124 reversed $167 $-1 #
edge $-1 $81 0 $65 0.19999999999999998 $123 $182 forward 7 unknown #
coedge $-1 $183 $75 $184 $185 reversed $13 $-1 #
coedge $-1 $119 $118 $75 $127 forward $70 $-1 #
edge $-1 $186 0 $128 1.0212107299731032 $75 $187 forward 7 unknown #
vertex $-1 $127 $188 #
straight-curve $-1 3.0495234231356196 0 3.0240262491249474 0 0 -1 I I #
coedge $-1 $189 $78 $86 $138 forward $132 $-1 #
coedge $-1 $78 $189 $181 $135 reversed $132 $-1 #
loop $-1 $-1 $131 $190 #
straight-curve $-1 12 0 0 0 0 1 I I #
point $-1 3.0495234231356196 0 2.0028155191518442 #
edge $-1 $81 0 $191 0.41415926535898251 $181 $192 forward 7 unknown #
point $-1 12 0 2.0028155191518442 #
coedge $-1 $86 $85 $193 $194 forward $87 $-1 #
edge $-1 $51 0 $195 0.41415926535897718 $86 $196 forward 7 unknown #
face $-1 $190 $87 $3 $-1 $197 forward single #
coedge $-1 $89 $183 $198 $199 forward $13 $-1 #
coedge $-1 $97 $96 $89 $142 forward $98 $-1 #
edge $-1 $143 0 $200 6.1299595507206757 $89 $201 forward 7 unknown #
vertex $-1 $90 $202 #
straight-curve $-1 0 0 0 0 0 1 I I #
coedge $-1 $104 $93 $203 $204 forward $6 $-1 #
coedge $-1 $205 $206 $93 $147 reversed $174 $-1 #
edge $-1 $151 0 $207 4.1016468575581415 $93 $208 forward 7 unknown #
coedge $-1 $198 $94 $97 $153 forward $150 $-1 #
coedge $-1 $94 $198 $205 $209 reversed $150 $-1 #
loop $-1 $-1 $148 $173 #
vertex $-1 $147 $210 #
ellipse-curve $-1 6.3130478830599284 0.19999999999999998 20.012013124562472 0 1 0 -0.18308833233927047 0 -0.9879868754375245 1 I I #
edge $-1 $99 0 $200 0.19999999999999998 $97 $211 forward 7 unknown #
face $-1 $102 $98 $3 $-1 $212 reversed single #
point $-1 6.1299595507206757 0.19999999999999998 21 #
straight-curve $-1 0 0 21 0 1 0 I I #
face $-1 $113 $167 $3 $-1 $213 forward single #
plane-surface $-1 0 0.099999999999999992 10.5 1 0 0 0 0 1 forward_v I I I I #
coedge $-1 $118 $119 $104 $160 reversed $70 $-1 #
edge $-1 $214 0 $161 1.0212107299731032 $104 $215 forward 7 unknown #
vertex $-1 $106 $216 #
straight-curve $-1 3.0495234231356196 0.19999999999999998 3.0240262491249474 0 0 -1 I I #
point $-1 3.0495234231356196 0.19999999999999998 2.0028155191518442 #
coedge $-1 $217 $218 $109 $165 forward $219 $-1 #
edge $-1 $170 0 $168 2.0028155191518442 $164 $220 forward 7 unknown #
coedge $-1 $110 $181 $221 $222 forward $167 $-1 #
loop $-1 $-1 $110 $157 #
vertex $-1 $222 $223 #
straight-curve $-1 12 0.19999999999999998 2.0028155191518442 1 -3.6859169564549454e-015 0 I I #
vertex $-1 $194 $224 #
straight-curve $-1 12 0.19999999999999998 0 1 -3.6859169564549927e-015 0 I I #
plane-surface $-1 12 0.19999999999999998 0 3.6751783587152361e-015 1 0 1 -3.6751783587152361e-015 0 forward_v I I I I #
face $-1 $154 $150 $3 $-1 $225 reversed single #
loop $-1 $-1 $205 $115 #
plane-surface $-1 4.0791361219415876 0.099999999999999992 19.024026249124947 0 0 -1 -1 0 0 forward_v I I I I #
coedge $-1 $184 $203 $206 $226 forward $116 $-1 #
coedge $-1 $203 $184 $118 $178 reversed $116 $-1 #
edge $-1 $214 0 $186 0.19999999999999998 $118 $227 forward 7 unknown #
straight-curve $-1 3.0495234231356196 0.19999999999999998 3.0240262491249474 0 -1 0 I I #
straight-curve $-1 3.0495234231356196 0.19999999999999998 2.0028155191518442 0 -1 0 I I #
coedge $-1 $166 $123 $131 $135 forward $167 $-1 #
straight-curve $-1 12 0 2.0028155191518442 0 1 0 I I #
coedge $-1 $140 $125 $228 $229 reversed $13 $-1 #
coedge $-1 $177 $176 $125 $185 forward $116 $-1 #
edge $-1 $230 0 $186 16 $125 $231 forward 7 unknown #
vertex $-1 $185 $232 #
straight-curve $-1 2.0283126931625164 0 3.0240262491249474 1 0 0 I I #
point $-1 3.0495234231356196 0 3.0240262491249474 #
coedge $-1 $131 $130 $233 $234 forward $132 $-1 #
face $-1 $235 $132 $3 $-1 $236 reversed single #
vertex $-1 $222 $237 #
straight-curve $-1 12 0 2.0028155191518442 1 -3.6859169564549296e-015 0 I I #
coedge $-1 $238 $239 $137 $194 reversed $240 $-1 #
edge $-1 $170 3.8857805861880479e-016 $195 0.20000000000000037 $193 $241 forward 7 unknown #
vertex $-1 $194 $242 #
straight-curve $-1 12 0 0 1 -3.6751783587152361e-015 0 I I #
plane-surface $-1 11 0.099999999999999992 0 0 0 -1 1 0 0 forward_v I I I I #
coedge $-1 $149 $148 $140 $199 reversed $150 $-1 #
edge $-1 $243 0 $200 2.7751208951087003 $140 $244 forward 7 unknown #
vertex $-1 $142 $245 #
straight-curve $-1 0 0 21 1 0 0 I I #
point $-1 0 0 21 #
coedge $-1 $176 $177 $145 $204 reversed $116 $-1 #
edge $-1 $207 0 $214 16 $145 $246 forward 7 unknown #
coedge $-1 $228 $146 $149 $209 forward $174 $-1 #
coedge $-1 $146 $228 $176 $226 reversed $174 $-1 #
vertex $-1 $204 $247 #
straight-curve $-1 6.1299595507206579 0.19999999999999998 19.024026249124947 -1 0 0 I I #
edge $-1 $151 2.7755575615628914e-017 $243 0.20000000000000004 $149 $248 forward 7 unknown #
point $-1 6.1299595507206579 0.19999999999999998 19.024026249124947 #
straight-curve $-1 6.1299595507206757 0.19999999999999998 21 0 -1 0 I I #
plane-surface $-1 11 0.099999999999999992 21 0 0 -1 1 0 0 forward_v I I I I #
plane-surface $-1 11.049523423135618 0.099999999999999992 2.0028155191518442 0 0 1 1 0 0 forward_v I I I I #
vertex $-1 $160 $249 #
straight-curve $-1 2.0283126931625164 0.19999999999999998 3.0240262491249474 1 0 0 I I #
point $-1 3.0495234231356196 0.19999999999999998 3.0240262491249474 #
coedge $-1 $250 $164 $251 $252 forward $219 $-1 #
coedge $-1 $164 $253 $238 $254 reversed $219 $-1 #
loop $-1 $-1 $217 $255 #
straight-curve $-1 12.414159265358975 0.19999999999999893 0 2.6607895071921128e-015 0 1 I I #
coedge $-1 $256 $251 $166 $222 reversed $257 $-1 #
edge $-1 $191 7.3997024356502319e-016 $168 0.20000000000000073 $221 $258 forward 7 unknown #
point $-1 12.414159265358981 0.19999999999999846 2.0028155191518442 #
point $-1 12.414159265358975 0.19999999999999846 0 #
cone-surface $-1 6.3130478830599266 0.099999999999999992 20.012013124562472 0 1 0 -0.18308833233926874 0 -0.98798687543752473 1 I I 0 1 1.0048081426200615 forward I I I I #
edge $-1 $207 0 $230 0.19999999999999998 $176 $259 forward 7 unknown #
straight-curve $-1 2.0283126931625164 0.19999999999999998 3.0240262491249474 0 -1 0 I I #
coedge $-1 $206 $205 $183 $229 forward $174 $-1 #
edge $-1 $243 0 $230 4.1016468575581415 $183 $260 forward 7 unknown #
vertex $-1 $229 $261 #
straight-curve $-1 2.0283126931625164 0 19.024026249124947 0 0 -1 I I #
point $-1 2.0283126931625164 0 3.0240262491249474 #
coedge $-1 $262 $263 $189 $234 reversed $264 $-1 #
edge $-1 $195 4.4303037778121825e-044 $191 2.0028155191518442 $233 $265 forward 7 unknown #
face $-1 $266 $264 $3 $-1 $267 forward single #
plane-surface $-1 12 0 0 3.6751783587152361e-015 1 0 1 -3.6751783587152361e-015 0 forward_v I I I I #
point $-1 12.414159265358983 -1.5221091691087333e-015 2.0028155191518442 #
coedge $-1 $268 $193 $218 $254 forward $240 $-1 #
coedge $-1 $193 $268 $262 $269 reversed $240 $-1 #
loop $-1 $-1 $238 $266 #
straight-curve $-1 12.414159265358975 0.19999999999999885 0 0 -1 0 I I #
point $-1 12.414159265358977 -1.5221091691087126e-015 0 #
vertex $-1 $199 $270 #
ellipse-curve $-1 6.3130478830599284 0 20.012013124562472 0 1 0 -0.18308833233927047 0 -0.9879868754375245 1 I I #
point $-1 6.1299595507206757 0 21 #
straight-curve $-1 2.0283126931625164 0.19999999999999998 19.024026249124947 0 0 -1 I I #
point $-1 2.0283126931625164 0.19999999999999998 19.024026249124947 #
straight-curve $-1 6.1299595507206579 0.20000000000000001 19.024026249124947 0 -1 0 I I #
point $-1 2.0283126931625164 0.19999999999999998 3.0240262491249474 #
coedge $-1 $271 $217 $272 $273 forward $219 $-1 #
coedge $-1 $221 $274 $217 $252 reversed $257 $-1 #
edge $-1 $168 1.7763568394002552e-015 $275 6.6353641577766389 $251 $276 forward 7 unknown #
coedge $-1 $218 $277 $278 $279 reversed $219 $-1 #
edge $-1 $170 -1.7763568394002455e-015 $280 9.5858407346410228 $238 $281 forward 7 unknown #
face $-1 $282 $219 $3 $-1 $283 reversed single #
coedge $-1 $274 $221 $263 $284 forward $257 $-1 #
loop $-1 $-1 $256 $282 #
straight-curve $-1 12.414159265358981 -2.2620794126737565e-015 2.0028155191518442 0 1 0 I I #
straight-curve $-1 2.0283126931625164 0.19999999999999998 19.024026249124947 0 -1 0 I I #
straight-curve $-1 6.1299595507206579 0 19.024026249124947 -1 0 0 I I #
point $-1 2.0283126931625164 0 19.024026249124947 #
coedge $-1 $285 $233 $239 $269 forward $264 $-1 #
coedge $-1 $233 $286 $256 $284 reversed $264 $-1 #
loop $-1 $-1 $262 $235 #
straight-curve $-1 12.414159265358977 -3.5044597543055628e-016 0 2.6607895071921128e-015 -3.7812093114441052e-029 1 I I #
face $-1 $255 $240 $3 $-1 $287 forward single #
plane-surface $-1 -3.5527136788005009e-015 1.2789769243681803e-013 0 -1.0330795317739952e-014 -1 0 1 -1.0330795317739952e-014 0 forward_v I I I I #
coedge $-1 $239 $238 $288 $289 reversed $240 $-1 #
edge $-1 $195 3.5527136788005128e-015 $290 9.5858407346410264 $239 $291 forward 7 unknown #
point $-1 6.1299595507206579 -2.7755575615628914e-017 19.024026249124947 #
coedge $-1 $292 $250 $293 $294 forward $219 $-1 #
coedge $-1 $295 $296 $250 $273 reversed $297 $-1 #
edge $-1 $275 0 $298 1.0212107299731032 $250 $299 forward 7 unknown #
coedge $-1 $251 $256 $295 $300 reversed $257 $-1 #
vertex $-1 $252 $301 #
straight-curve $-1 12.414159265358979 0.19999999999999893 2.0028155191518442 1 -1.0327770197009074e-014 0 I I #
coedge $-1 $253 $302 $303 $304 forward $219 $-1 #
coedge $-1 $305 $288 $253 $279 forward $306 $-1 #
edge $-1 $280 0 $307 21 $253 $308 forward 7 unknown #
vertex $-1 $289 $309 #
straight-curve $-1 12.414159265358977 0.19999999999999893 0 1 -1.0331059793084762e-014 0 I I #
face $-1 $310 $257 $3 $-1 $311 forward single #
plane-surface $-1 -1.7763568394002505e-015 0.20000000000012719 0 -1.0330795317739952e-014 -1 0 1 -1.0330795317739952e-014 0 forward_v I I I I #
edge $-1 $191 5.3290705182007632e-015 $312 6.6353641577766371 $256 $313 forward 7 unknown #
coedge $-1 $314 $262 $315 $316 forward $264 $-1 #
coedge $-1 $263 $317 $318 $319 reversed $264 $-1 #
plane-surface $-1 11 0.10000000000001386 0 0 0 -1 1 -1.0330795317739952e-014 0 forward_v I I I I #
coedge $-1 $278 $315 $268 $289 forward $306 $-1 #
edge $-1 $290 -4.163336342344337e-017 $280 0.19999999999999993 $268 $320 forward 7 unknown #
vertex $-1 $269 $321 #
straight-curve $-1 12.414159265358974 -3.5044597543053103e-016 0 1 -1.033079531773995e-014 0 I I #
coedge $-1 $322 $271 $323 $324 forward $219 $-1 #
coedge $-1 $325 $326 $271 $294 reversed $327 $-1 #
edge $-1 $298 0 $328 1.0212107299730988 $271 $329 forward 7 unknown #
coedge $-1 $318 $272 $274 $300 forward $297 $-1 #
coedge $-1 $272 $318 $325 $330 reversed $297 $-1 #
loop $-1 $-1 $295 $310 #
vertex $-1 $294 $331 #
straight-curve $-1 19.049523423135618 0.1999999999999304 2.0028155191518442 0 0 1 I I #
edge $-1 $275 8.0491169285323849e-016 $312 0.20000000000000009 $274 $332 forward 7 unknown #
point $-1 19.049523423135618 0.1999999999999304 2.0028155191518442 #
coedge $-1 $277 $333 $334 $335 forward $219 $-1 #
coedge $-1 $336 $337 $277 $304 reversed $338 $-1 #
edge $-1 $339 -7.1054273576010019e-015 $307 6.8117894740182301 $277 $340 forward 7 unknown #
coedge $-1 $315 $278 $337 $341 reversed $306 $-1 #
loop $-1 $-1 $288 $342 #
vertex $-1 $279 $343 #
straight-curve $-1 22 0.1999999999998999 0 0 0 1 I I #
point $-1 22 0.19999999999990015 0 #
face $-1 $344 $297 $3 $-1 $345 forward single #
plane-surface $-1 11.049523423135614 0.10000000000001386 2.0028155191518442 0 0 1 1 -1.0330795317739952e-014 0 forward_v I I I I #
vertex $-1 $300 $346 #
straight-curve $-1 12.414159265358977 -3.4694469519536142e-016 2.0028155191518442 1 -1.0331953174002595e-014 0 I I #
coedge $-1 $347 $285 $348 $349 reversed $264 $-1 #
coedge $-1 $288 $305 $285 $316 reversed $306 $-1 #
edge $-1 $290 0 $350 21 $285 $351 forward 7 unknown #
coedge $-1 $286 $352 $353 $354 reversed $264 $-1 #
coedge $-1 $296 $295 $286 $319 forward $297 $-1 #
edge $-1 $312 0 $355 1.0212107299731032 $286 $356 forward 7 unknown #
straight-curve $-1 22 -9.9781294338185944e-014 0 0 1 0 I I #
point $-1 22 -9.9822927701609387e-014 0 #
coedge $-1 $357 $292 $358 $359 reversed $219 $-1 #
coedge $-1 $360 $361 $292 $324 reversed $362 $-1 #
edge $-1 $328 0 $363 2.9487478663716331 $292 $364 forward 7 unknown #
coedge $-1 $353 $293 $296 $330 forward $327 $-1 #
coedge $-1 $293 $353 $360 $365 reversed $327 $-1 #
loop $-1 $-1 $325 $344 #
vertex $-1 $324 $366 #
straight-curve $-1 19.049523423135618 0.1999999999999304 3.0240262491249474 1 -1.0328053186649169e-014 0 I I #
edge $-1 $298 1.7208456881689926e-015 $355 0.19999999999999996 $325 $367 forward 7 unknown #
point $-1 19.049523423135618 0.1999999999999304 3.0240262491249474 #
straight-curve $-1 19.049523423135618 0.19999999999993121 2.0028155191518442 0 -1 0 I I #
coedge $-1 $302 $357 $368 $369 forward $219 $-1 #
coedge $-1 $370 $371 $302 $335 reversed $372 $-1 #
edge $-1 $373 0 $339 2.7751208951087323 $302 $374 forward 7 unknown #
coedge $-1 $348 $303 $371 $375 forward $338 $-1 #
coedge $-1 $303 $348 $305 $341 forward $338 $-1 #
loop $-1 $-1 $348 $376 #
vertex $-1 $304 $377 #
straight-curve $-1 15.18821052598177 0.19999999999997028 21 1 -1.0333281735983162e-014 0 I I #
edge $-1 $350 0 $307 0.19999999999999996 $337 $378 forward 7 unknown #
face $-1 $-1 $306 $3 $-1 $379 forward single #
point $-1 22 0.19999999999990015 21 #
face $-1 $380 $327 $3 $-1 $381 forward single #
plane-surface $-1 19.049523423135618 0.099999999999932143 2.5134208841383958 -1 1.0330795317739952e-014 0 0 0 1 forward_v I I I I #
point $-1 19.049523423135614 -6.8899034948088956e-014 2.0028155191518442 #
coedge $-1 $382 $314 $383 $384 reversed $264 $-1 #
coedge $-1 $337 $336 $314 $349 forward $338 $-1 #
edge $-1 $385 -7.105427357601005e-015 $350 6.8117894740182336 $314 $386 forward 7 unknown #
vertex $-1 $349 $387 #
straight-curve $-1 22 -9.9379804553460935e-014 0 0 0 1 I I #
coedge $-1 $317 $388 $389 $390 reversed $264 $-1 #
coedge $-1 $326 $325 $317 $354 forward $327 $-1 #
edge $-1 $355 3.5527136788004899e-015 $391 1.0212107299731059 $317 $392 forward 7 unknown #
vertex $-1 $319 $393 #
straight-curve $-1 19.049523423135618 -6.8903216465798778e-014 2.0028155191518442 0 0 1 I I #
coedge $-1 $333 $322 $394 $395 forward $219 $-1 #
coedge $-1 $396 $397 $322 $359 forward $398 $-1 #
edge $-1 $399 0 $363 1.8331206077060835 $322 $400 forward 7 unknown #
coedge $-1 $389 $323 $326 $365 forward $362 $-1 #
coedge $-1 $323 $389 $396 $401 reversed $362 $-1 #
loop $-1 $-1 $360 $380 #
vertex $-1 $359 $402 #
straight-curve $-1 20.07073415310872 0.19999999999991985 3.0240262491249474 0 0 1 I I #
edge $-1 $328 -1.1102230246251565e-016 $391 0.19999999999999996 $360 $403 forward 7 unknown #
point $-1 20.070734153108717 0.19999999999991985 3.0240262491249474 #
straight-curve $-1 19.049523423135618 0.19999999999993212 3.0240262491249474 0 -1 0 I I #
coedge $-1 $404 $405 $333 $369 reversed $406 $-1 #
edge $-1 $407 0 $373 3.6071293871437105 $333 $408 forward 7 unknown #
coedge $-1 $383 $334 $405 $409 forward $372 $-1 #
coedge $-1 $334 $383 $336 $375 reversed $372 $-1 #
loop $-1 $-1 $370 $410 #
vertex $-1 $335 $411 #
ellipse-curve $-1 15.37129885832101 0.1999999999999684 20.012013124562472 1.033005745402476e-014 1 -3.9816828148250044e-018 -0.18308833233924382 1.8873791418627661e-015 -0.98798687543752806 1 I I #
edge $-1 $339 1.0547118733939618e-015 $385 0.19999999999999998 $336 $412 forward 7 unknown #
face $-1 $342 $338 $3 $-1 $413 reversed single #
point $-1 15.188210525981763 0.19999999999997028 21 #
straight-curve $-1 22 -9.9822927701609387e-014 21 0 1 0 I I #
plane-surface $-1 22 0.099999999999900169 10.5 1 -1.0330795317739952e-014 0 0 0 1 forward_v I I I I #
face $-1 $414 $362 $3 $-1 $415 forward single #
plane-surface $-1 19.560128788122171 0.099999999999925038 3.0240262491249474 0 0 1 1 -1.0330795317739952e-014 0 forward_v I I I I #
coedge $-1 $416 $347 $417 $418 reversed $264 $-1 #
coedge $-1 $371 $370 $347 $384 forward $372 $-1 #
edge $-1 $419 3.4638134323308875e-015 $385 2.7751208951087305 $347 $420 forward 7 unknown #
vertex $-1 $384 $421 #
straight-curve $-1 15.188210525981766 -2.90086017498431e-014 21 1 -1.0330795317739949e-014 0 I I #
point $-1 22 -9.9822927701609387e-014 21 #
coedge $-1 $352 $416 $422 $423 forward $264 $-1 #
coedge $-1 $361 $360 $352 $390 forward $362 $-1 #
edge $-1 $391 0 $424 2.9487478663716331 $352 $425 forward 7 unknown #
vertex $-1 $354 $426 #
straight-curve $-1 19.049523423135614 -6.8903216465798778e-014 3.0240262491249474 1 -1.0328053186649132e-014 0 I I #
point $-1 19.049523423135618 -6.7848504592404879e-014 3.0240262491249474 #
coedge $-1 $427 $428 $357 $395 reversed $429 $-1 #
edge $-1 $399 6.3479743155246263e-016 $407 7.4758418970593628 $357 $430 forward 7 unknown #
coedge $-1 $422 $358 $361 $401 forward $398 $-1 #
coedge $-1 $358 $422 $427 $431 reversed $398 $-1 #
loop $-1 $-1 $396 $414 #
vertex $-1 $395 $432 #
ellipse-curve $-1 18.138713708295228 0.19999999999993981 8.4920008757671841 1.0330210893542719e-014 1 -7.6205046430804898e-019 1.9320204448134888 -1.9956258867637189e-014 2.5192267602706035 1 I I #
edge $-1 $363 -1.6653345369377348e-016 $424 0.19999999999999996 $396 $433 forward 7 unknown #
point $-1 20.070734153108717 0.19999999999991985 5.9727741154965805 #
straight-curve $-1 20.07073415310872 0.19999999999991974 3.0240262491249474 0 -1 0 I I #
coedge $-1 $417 $368 $428 $434 forward $406 $-1 #
coedge $-1 $368 $417 $370 $409 reversed $406 $-1 #
loop $-1 $-1 $404 $435 #
vertex $-1 $369 $436 #
straight-curve $-1 18.734953771125376 0.19999999999993365 18.366763159773402 -0.98325922485194905 1.0156929757831978e-014 0.18221222995052841 I I #
edge $-1 $373 1.471045507628364e-015 $419 0.19999999999999996 $370 $437 forward 7 unknown #
face $-1 $376 $372 $3 $-1 $438 forward single #
point $-1 15.188210525981766 0.19999999999997028 19.024026249124944 #
straight-curve $-1 15.188210525981765 0.19999999999997134 21 -3.5527136788005009e-014 -1 0 I I #
plane-surface $-1 11 0.10000000000001386 21 0 0 -1 1 -1.0330795317739952e-014 0 forward_v I I I I #
face $-1 $439 $398 $3 $-1 $440 reversed single #
plane-surface $-1 20.07073415310872 0.099999999999919709 4.498400182310764 -1 1.0330795317739952e-014 0 0 0 1 forward_v I I I I #
coedge $-1 $388 $382 $441 $442 reversed $264 $-1 #
coedge $-1 $405 $404 $382 $418 forward $406 $-1 #
edge $-1 $443 -3.4932384979382858e-015 $419 3.6071293871437158 $382 $444 forward 7 unknown #
vertex $-1 $418 $445 #
ellipse-curve $-1 15.371298858321008 -3.090004983630614e-014 20.012013124562472 1.0330795317739949e-014 1 -1.1329275666469556e-029 -0.18308833233924382 1.8914480864630648e-015 -0.98798687543752806 1 I I #
point $-1 15.188210525981759 -2.8643754035329039e-014 21 #
coedge $-1 $397 $396 $388 $423 reversed $398 $-1 #
edge $-1 $446 7.0495900441834436e-016 $424 1.8331206077060755 $388 $447 forward 7 unknown #
vertex $-1 $390 $448 #
straight-curve $-1 20.07073415310872 -7.9450335199737765e-014 3.0240262491249474 0 0 1 I I #
point $-1 20.07073415310872 -8.0227491316975375e-014 3.0240262491249474 #
coedge $-1 $441 $394 $397 $431 forward $429 $-1 #
coedge $-1 $394 $441 $404 $434 reversed $429 $-1 #
loop $-1 $-1 $427 $439 #
straight-curve $-1 20.07073415310872 0.19999999999991985 11.011227636037788 -0.17867959226221367 1.8452130570596568e-015 0.98390731438942414 I I #
edge $-1 $399 -5.5511151231259405e-016 $446 0.20000000000000001 $427 $449 forward 7 unknown #
point $-1 20.070734153108717 0.19999999999991985 11.011227636037788 #
straight-curve $-1 20.07073415310872 0.19999999999991969 5.9727741154965805 0 -1 0 I I #
edge $-1 $407 1.8318679906315083e-015 $443 0.19999999999999998 $404 $450 forward 7 unknown #
face $-1 $410 $406 $3 $-1 $451 forward single #
point $-1 18.734953771125376 0.19999999999993365 18.366763159773402 #
straight-curve $-1 15.188210525981765 0.19999999999997176 19.02402624912494 -1.7763568394002508e-014 -1 1.7763568394002508e-014 I I #
cone-surface $-1 15.371298858321008 0.099999999999969447 20.012013124562472 1.0330795317739952e-014 1 3.9066467815412184e-031 -0.18308833233924746 1.8914480864631137e-015 -0.9879868754375285 1 I I 0 1 1.0048081426200612 forward I I I I #
face $-1 $435 $429 $3 $-1 $452 forward single #
cone-surface $-1 18.138713708295221 0.099999999999939249 8.492000875767177 1.0330795317739954e-014 1 6.2612937449765904e-031 1.9320204448134954 -1.9959307765057122e-014 2.5192267602706067 1 I I 0 1 3.1747766014069199 forward I I I I #
coedge $-1 $428 $427 $416 $442 forward $429 $-1 #
edge $-1 $446 -2.8607435429507119e-015 $443 7.4758418970593619 $416 $453 forward 7 unknown #
vertex $-1 $442 $454 #
straight-curve $-1 18.734953771125376 -6.5655814118770195e-014 18.366763159773402 -0.98325922485194905 1.0160777079709934e-014 0.18221222995052822 I I #
point $-1 15.188210525981761 -2.8213542613286791e-014 19.024026249124944 #
vertex $-1 $423 $455 #
ellipse-curve $-1 18.138713708295214 -5.9489646210663684e-014 8.4920008757671841 1.0330795317739954e-014 1 6.2612937449765817e-031 1.932020444813503 -1.99593077650572e-014 2.5192267602706035 1 I I #
point $-1 20.07073415310872 -8.0283002468206632e-014 5.9727741154965805 #
straight-curve $-1 20.07073415310872 0.1999999999999193 11.011227636037786 0 -1 -8.8817841970012523e-015 I I #
straight-curve $-1 18.73495377112538 0.19999999999993548 18.366763159773402 0 -1 -1.7763568394002505e-014 I I #
plane-surface $-1 16.961582148553571 0.099999999999953459 18.695394704449171 -0.18221222995052899 1.8823972520078802e-015 -0.98325922485194905 -0.98325922485194905 1.015784979622513e-014 0.18221222995052899 forward_v I I I I #
plane-surface $-1 19.40284396211705 0.09999999999992859 14.688995397905595 -0.98390731438942414 1.0164545076584354e-014 -0.17867959226221367 -0.17867959226221364 1.8459022951181602e-015 0.98390731438942403 forward_v I I I I #
straight-curve $-1 20.07073415310872 -7.9450335199737765e-014 11.011227636037788 -0.17867959226221367 1.8452130570596568e-015 0.98390731438942414 I I #
point $-1 18.73495377112538 -6.4503957730721595e-014 18.366763159773402 #
point $-1 20.070734153108717 -8.0699336102441066e-014 11.011227636037784 #
End-of-ACIS-data 