600 0 1 0           
81 GICL ACIS Healer - Source: /gicl/data5/repository/UMD/tmp/cbhole/cbhole.sat - 6 0 18 ACIS 6.0.3 Solaris 24 Sun Apr 14 00:33:56 2002 
1 9.999999999999999547e-07 1.000000000000000036e-10 
body $-1 $1 $-1 $-1 #
lump $-1 $-1 $2 $0 #
shell $-1 $-1 $-1 $3 $-1 $1 #
face $-1 $4 $5 $2 $-1 $6 forward single #
face $-1 $7 $8 $2 $-1 $9 forward single #
loop $-1 $10 $11 $3 #
cone-surface $-1 0 0 -21.5 0 0 -1 -3.5 2.444036937190189878e-14 0 1 I I -0.7071067811865480168 0.7071067811865480168 3.5 forward I I I I #
face $-1 $-1 $12 $2 $-1 $13 forward single #
loop $-1 $14 $15 $4 #
cone-surface $-1 0 0 0 0 0 1 7 0 0 1 I I 0 1 7 forward I I I I #
loop $-1 $-1 $16 $3 #
coedge $-1 $11 $11 $-1 $17 forward $5 $-1 #
loop $-1 $-1 $18 $7 #
plane-surface $-1 0 0 25 0 0 1 1 0 0 forward_v I I I I #
loop $-1 $-1 $19 $4 #
coedge $-1 $15 $15 $18 $20 reversed $8 $-1 #
coedge $-1 $16 $16 $19 $21 forward $10 $-1 #
edge $-1 $22 1 $22 0 $11 $-1 forward 7 unknown #
coedge $-1 $18 $18 $15 $20 forward $12 $-1 #
coedge $-1 $19 $19 $16 $21 reversed $14 $-1 #
edge $-1 $23 0 $23 6.283185307179586232 $18 $24 forward 7 unknown #
edge $-1 $25 0 $25 6.283185307179586232 $19 $26 forward 7 unknown #
vertex $-1 $17 $27 #
vertex $-1 $20 $28 #
ellipse-curve $-1 0 0 25 0 0 1 7 0 0 1 I I #
vertex $-1 $21 $29 #
ellipse-curve $-1 0 0 -18 0 0 -1 7 0 0 1 I I #
point $-1 0 0 -25 #
point $-1 7 0 25 #
point $-1 7 0 -18 #
End-of-ACIS-data 