600 0 2 0           
24 FBMach with ACIS - 6.0.3 13 ACIS 6.0.3 NT 24 Tue May 22 12:24:23 2001 
1 9.9999999999999995e-007 1e-010 
body $2 $3 $-1 $4 #
bdycol-kcp $-1 1 2 $5 $6 #
model_id-kcp-attrib $-1 $-1 $-1 $0 1 990548662 50 -701366271 1 #
lump $-1 $-1 $7 $0 #
transform $-1 1 0 0 0 1 0 0 0 1 0 0 0 1 no_rotate no_reflect no_shear #
body $8 $9 $-1 $10 #
body $11 $12 $-1 $13 #
shell $-1 $-1 $-1 $14 $-1 $3 #
model_id-kcp-attrib $-1 $-1 $-1 $5 1 990548662 50 -701366270 1 #
lump $-1 $-1 $15 $5 #
transform $-1 1 0 0 0 1 0 0 0 1 0 0 0 1 no_rotate no_reflect no_shear #
rgb_color-st-attrib $-1 $16 $-1 $6 0.5 1 1 #
lump $-1 $-1 $17 $6 #
transform $-1 1 0 0 0 1 0 0 0 1 0 0 0 1 no_rotate no_reflect no_shear #
face $18 $19 $20 $7 $-1 $21 forward single #
shell $-1 $-1 $-1 $22 $-1 $9 #
model_id-kcp-attrib $-1 $-1 $11 $6 1 990548662 80 -699400189 1 #
shell $-1 $-1 $-1 $23 $-1 $12 #
model_id-kcp-attrib $-1 $-1 $-1 $14 1 990548662 50 -701366271 2 #
face $24 $25 $26 $7 $-1 $27 forward single #
loop $-1 $28 $29 $14 #
cone-surface $-1 0 0 -21.5 0 0 -1 -3.5 2.4440369371901899e-014 0 1 I I -0.70710678118654802 0.70710678118654802 3.5 forward I I I I #
face $30 $31 $32 $15 $-1 $33 forward single #
face $-1 $34 $35 $17 $-1 $36 reversed single #
model_id-kcp-attrib $-1 $-1 $-1 $19 1 990548662 50 -701366271 3 #
face $37 $-1 $38 $7 $-1 $39 forward single #
loop $-1 $40 $41 $19 #
cone-surface $-1 0 0 0 0 0 1 7 0 0 1 I I 0 1 7 forward I I I I #
loop $-1 $-1 $42 $14 #
coedge $-1 $29 $29 $-1 $43 forward $20 $-1 #
model_id-kcp-attrib $-1 $-1 $-1 $22 1 990548662 50 -701366270 2 #
face $-1 $44 $45 $15 $-1 $46 reversed single #
loop $-1 $-1 $47 $22 #
plane-surface $-1 0 0 25 0 0 1 1 0 0 forward_v I I I I #
face $-1 $48 $49 $17 $-1 $36 reversed single #
loop $-1 $-1 $50 $23 #
cone-surface $-1 -2.6244062631887405e-032 0 25 0 0 1 7 0 0 1 I I 0 1 7 forward I I I I #
model_id-kcp-attrib $-1 $51 $-1 $25 1 990548662 50 -701366271 5 #
loop $-1 $-1 $52 $25 #
plane-surface $-1 0 0 25 0 0 1 1 0 0 forward_v I I I I #
loop $-1 $-1 $53 $19 #
coedge $-1 $41 $41 $52 $54 reversed $26 $-1 #
coedge $-1 $42 $42 $53 $55 forward $28 $-1 #
edge $-1 $56 1 $56 0 $29 $-1 forward 7 unknown #
face $-1 $57 $58 $15 $-1 $59 reversed single #
loop $-1 $-1 $60 $31 #
plane-surface $-1 0 0 -25 0 0 1 1 0 0 forward_v I I I I #
coedge $-1 $61 $62 $63 $64 forward $32 $-1 #
face $-1 $65 $66 $17 $-1 $36 reversed single #
loop $-1 $-1 $67 $34 #
coedge $-1 $68 $69 $70 $71 reversed $35 $-1 #
model_id-kcp-attrib $-1 $-1 $37 $25 1 990548662 50 -701366271 4 #
coedge $-1 $52 $52 $41 $54 forward $38 $-1 #
coedge $-1 $53 $53 $42 $55 reversed $40 $-1 #
edge $72 $73 0 $73 6.2831853071795862 $52 $74 forward 7 unknown #
edge $-1 $75 0 $75 6.2831853071795862 $53 $76 forward 7 unknown #
vertex $-1 $43 $77 #
face $-1 $78 $79 $15 $-1 $80 reversed single #
loop $-1 $-1 $81 $44 #
plane-surface $-1 0 -7 0 0 1 0 0 0 1 forward_v I I I I #
coedge $-1 $82 $83 $84 $85 forward $45 $-1 #
coedge $-1 $86 $47 $87 $88 forward $32 $-1 #
coedge $-1 $47 $86 $89 $90 forward $32 $-1 #
coedge $-1 $91 $92 $47 $64 reversed $93 $-1 #
edge $-1 $94 -7 $95 7 $63 $96 forward 7 unknown #
face $-1 $97 $98 $17 $-1 $36 reversed single #
loop $-1 $-1 $99 $48 #
coedge $-1 $100 $101 $102 $103 reversed $49 $-1 #
coedge $-1 $104 $50 $105 $106 reversed $35 $-1 #
coedge $-1 $50 $104 $107 $108 reversed $35 $-1 #
coedge $-1 $109 $110 $111 $71 forward $112 $-1 #
edge $-1 $113 -50 $114 0 $70 $115 forward 7 unknown #
attrib_edge_convexity-kcp-attrib $-1 $116 $-1 $54 1 #
vertex $-1 $54 $117 #
ellipse-curve $-1 0 0 25 0 0 1 7 0 0 1 I I #
vertex $-1 $55 $118 #
ellipse-curve $-1 0 0 -18 0 0 -1 7 0 0 1 I I #
point $-1 0 0 -25 #
face $-1 $119 $120 $15 $-1 $121 reversed single #
loop $-1 $-1 $122 $57 #
plane-surface $-1 -7 0 0 1 0 0 0 0 -1 forward_v I I I I #
coedge $-1 $123 $89 $124 $125 forward $58 $-1 #
coedge $-1 $126 $60 $123 $127 forward $45 $-1 #
coedge $-1 $60 $126 $128 $129 forward $45 $-1 #
coedge $-1 $92 $91 $60 $85 reversed $93 $-1 #
edge $-1 $130 -7 $131 7 $84 $132 forward 7 unknown #
coedge $-1 $62 $61 $133 $134 forward $32 $-1 #
coedge $-1 $135 $136 $61 $88 reversed $120 $-1 #
edge $-1 $95 -7 $137 7 $87 $138 forward 7 unknown #
coedge $-1 $81 $139 $62 $90 reversed $58 $-1 #
edge $-1 $140 -7 $94 7 $89 $141 forward 7 unknown #
coedge $-1 $84 $63 $139 $142 forward $93 $-1 #
coedge $-1 $63 $84 $135 $143 reversed $93 $-1 #
loop $-1 $-1 $91 $119 #
vertex $-1 $64 $144 #
vertex $-1 $64 $145 #
straight-curve $-1 7 0 25 0 1 0 I I #
face $-1 $146 $147 $17 $-1 $148 reversed single #
loop $-1 $-1 $149 $65 #
coedge $-1 $150 $151 $152 $153 reversed $66 $-1 #
coedge $-1 $154 $67 $155 $156 reversed $49 $-1 #
coedge $-1 $67 $154 $50 $71 forward $49 $-1 #
coedge $-1 $157 $158 $67 $103 forward $159 $-1 #
edge $-1 $160 -3.1415926535897931 $114 -1.5707963267948966 $102 $161 forward 7 unknown #
coedge $-1 $69 $68 $151 $162 forward $35 $-1 #
coedge $-1 $163 $164 $68 $106 forward $165 $-1 #
edge $-1 $166 0 $113 1.5707963267948966 $105 $167 forward 7 unknown #
coedge $-1 $168 $169 $69 $108 forward $170 $-1 #
edge $-1 $114 -1.5707963267948966 $171 0 $107 $161 forward 7 unknown #
coedge $-1 $172 $70 $169 $173 reversed $112 $-1 #
coedge $-1 $70 $172 $163 $174 reversed $112 $-1 #
coedge $-1 $175 $176 $101 $71 reversed $177 $-1 #
loop $-1 $-1 $70 $178 #
vertex $-1 $174 $179 #
vertex $-1 $180 $181 #
straight-curve $-1 -2.6244062631887405e-032 7 25 0 0 1 I I #
convexity-sys-attrib $-1 $-1 $72 $54 #
point $-1 7 0 25 #
point $-1 7 0 -18 #
face $-1 $-1 $93 $15 $-1 $182 reversed single #
loop $-1 $-1 $135 $78 #
plane-surface $-1 0 7 0 0 -1 0 0 0 -1 forward_v I I I I #
coedge $-1 $183 $133 $136 $184 forward $79 $-1 #
coedge $-1 $139 $81 $82 $127 reversed $58 $-1 #
coedge $-1 $133 $183 $81 $125 reversed $79 $-1 #
edge $-1 $140 -25 $185 25 $124 $186 forward 7 unknown #
coedge $-1 $83 $82 $183 $187 forward $45 $-1 #
edge $-1 $131 -7 $185 7 $123 $188 forward 7 unknown #
coedge $-1 $136 $135 $83 $129 reversed $120 $-1 #
edge $-1 $189 -7 $130 7 $128 $190 forward 7 unknown #
vertex $-1 $85 $191 #
vertex $-1 $142 $192 #
straight-curve $-1 7 0 -25 0 -1 0 I I #
coedge $-1 $122 $124 $86 $134 reversed $79 $-1 #
edge $-1 $137 -7 $140 7 $133 $193 forward 7 unknown #
coedge $-1 $128 $87 $92 $143 forward $120 $-1 #
coedge $-1 $87 $128 $122 $184 reversed $120 $-1 #
vertex $-1 $88 $194 #
straight-curve $-1 0 7 25 -1 0 0 I I #
coedge $-1 $89 $123 $91 $142 reversed $58 $-1 #
vertex $-1 $134 $195 #
straight-curve $-1 0 -7 25 1 0 0 I I #
edge $-1 $94 -25 $131 25 $91 $196 forward 7 unknown #
edge $-1 $95 -25 $130 25 $92 $197 forward 7 unknown #
point $-1 7 -7 25 #
point $-1 7 7 25 #
face $-1 $198 $177 $17 $-1 $199 reversed single #
loop $-1 $-1 $200 $97 #
plane-surface $-1 7 0 0 -1 0 0 0 0 1 forward_v I I I I #
coedge $-1 $201 $202 $203 $204 reversed $98 $-1 #
coedge $-1 $205 $99 $202 $206 forward $66 $-1 #
coedge $-1 $99 $205 $207 $162 reversed $66 $-1 #
coedge $-1 $208 $209 $99 $153 forward $210 $-1 #
edge $-1 $211 -1.5707963267948966 $166 0 $152 $167 forward 7 unknown #
coedge $-1 $101 $100 $212 $213 reversed $49 $-1 #
coedge $-1 $214 $215 $216 $156 forward $217 $-1 #
edge $-1 $218 -50 $160 0 $155 $219 forward 7 unknown #
coedge $-1 $158 $102 $176 $180 forward $159 $-1 #
coedge $-1 $102 $157 $214 $220 forward $159 $-1 #
loop $-1 $-1 $102 $221 #
vertex $-1 $222 $223 #
ellipse-curve $-1 -2.6244062631887405e-032 0 25 0 0 -1 7 0 0 1 I I #
edge $-1 $166 -50 $171 0 $207 $224 forward 7 unknown #
coedge $-1 $164 $105 $110 $174 forward $165 $-1 #
coedge $-1 $105 $163 $225 $226 forward $165 $-1 #
loop $-1 $-1 $105 $227 #
vertex $-1 $228 $229 #
ellipse-curve $-1 -2.6244062631887405e-032 0 -25 0 0 1 7 0 0 1 I I #
coedge $-1 $169 $107 $230 $231 forward $170 $-1 #
coedge $-1 $107 $168 $109 $173 forward $170 $-1 #
loop $-1 $-1 $107 $232 #
vertex $-1 $231 $233 #
coedge $-1 $110 $109 $234 $235 forward $112 $-1 #
edge $-1 $236 -7 $114 2.6244062631887405e-032 $109 $237 forward 7 unknown #
edge $-1 $113 -2.6244062631887405e-032 $238 7 $110 $239 forward 7 unknown #
coedge $-1 $240 $111 $241 $242 reversed $177 $-1 #
coedge $-1 $111 $240 $157 $180 reversed $177 $-1 #
loop $-1 $-1 $111 $146 #
face $-1 $243 $112 $17 $-1 $199 reversed single #
point $-1 -2.6244062631887405e-032 7 -25 #
edge $-1 $114 2.6244062631887405e-032 $244 7 $176 $237 forward 7 unknown #
point $-1 -2.6244062631887405e-032 7 25 #
plane-surface $-1 7 0 0 -1 0 0 0 0 1 forward_v I I I I #
coedge $-1 $124 $122 $126 $187 reversed $79 $-1 #
edge $-1 $137 -25 $189 25 $136 $245 forward 7 unknown #
vertex $-1 $187 $246 #
straight-curve $-1 -7 -7 0 0 0 -1 I I #
edge $-1 $185 -7 $189 7 $183 $247 forward 7 unknown #
straight-curve $-1 0 -7 -25 -1 0 0 I I #
vertex $-1 $129 $248 #
straight-curve $-1 0 7 -25 1 0 0 I I #
point $-1 7 7 -25 #
point $-1 7 -7 -25 #
straight-curve $-1 -7 0 25 0 -1 0 I I #
point $-1 -7 7 25 #
point $-1 -7 -7 25 #
straight-curve $-1 7 -7 0 0 0 -1 I I #
straight-curve $-1 7 7 0 0 0 -1 I I #
face $-1 $249 $250 $17 $-1 $251 reversed single #
plane-surface $-1 0 7 0 0 -1 0 0 0 -1 forward_v I I I I #
coedge $-1 $225 $230 $104 $162 reversed $147 $-1 #
coedge $-1 $252 $149 $100 $156 forward $98 $-1 #
coedge $-1 $149 $252 $253 $206 reversed $98 $-1 #
coedge $-1 $254 $255 $149 $204 forward $256 $-1 #
edge $-1 $218 -3.1415926535897931 $211 -1.5707963267948966 $203 $167 forward 7 unknown #
coedge $-1 $151 $150 $257 $258 reversed $66 $-1 #
edge $-1 $211 -50 $259 0 $253 $260 forward 7 unknown #
coedge $-1 $261 $262 $200 $162 forward $263 $-1 #
coedge $-1 $209 $152 $262 $228 forward $210 $-1 #
coedge $-1 $152 $208 $264 $265 forward $210 $-1 #
loop $-1 $-1 $152 $266 #
vertex $-1 $267 $268 #
coedge $-1 $269 $241 $154 $213 forward $270 $-1 #
edge $-1 $113 1.5707963267948966 $218 3.1415926535897931 $212 $167 forward 7 unknown #
coedge $-1 $271 $155 $158 $220 reversed $217 $-1 #
coedge $-1 $155 $271 $269 $272 reversed $217 $-1 #
coedge $-1 $273 $274 $201 $156 reversed $250 $-1 #
loop $-1 $-1 $155 $275 #
vertex $-1 $272 $276 #
straight-curve $-1 -7 0 25 0 0 1 I I #
edge $-1 $244 -7 $160 0 $214 $277 forward 7 unknown #
face $-1 $232 $159 $17 $-1 $278 forward single #
edge $-1 $160 0 $279 7 $274 $277 forward 7 unknown #
point $-1 -7 0 25 #
straight-curve $-1 7 0 25 0 0 1 I I #
coedge $-1 $234 $200 $164 $226 reversed $147 $-1 #
edge $-1 $238 -7 $166 0 $225 $280 forward 7 unknown #
face $-1 $281 $165 $17 $-1 $282 reversed single #
edge $-1 $166 0 $283 7 $262 $280 forward 7 unknown #
point $-1 7 0 -25 #
coedge $-1 $200 $234 $168 $231 reversed $147 $-1 #
edge $-1 $171 0 $236 7 $230 $284 forward 7 unknown #
face $-1 $285 $170 $17 $-1 $278 forward single #
point $-1 7 0 25 #
coedge $-1 $230 $225 $172 $235 reversed $147 $-1 #
edge $-1 $236 -25 $238 25 $234 $286 forward 7 unknown #
vertex $-1 $231 $287 #
straight-curve $-1 0 7 25 -1 0 0 I I #
vertex $-1 $226 $288 #
straight-curve $-1 0 7 -25 1 0 0 I I #
coedge $-1 $176 $175 $271 $289 reversed $177 $-1 #
coedge $-1 $212 $269 $175 $242 forward $270 $-1 #
edge $-1 $290 -7 $113 -2.6244062631887405e-032 $175 $239 forward 7 unknown #
face $-1 $-1 $263 $17 $-1 $148 reversed single #
vertex $-1 $180 $291 #
straight-curve $-1 -7 7 0 0 0 -1 I I #
point $-1 -7 -7 -25 #
straight-curve $-1 -7 0 -25 0 1 0 I I #
point $-1 -7 7 -25 #
face $-1 $221 $292 $17 $-1 $278 forward single #
loop $-1 $-1 $216 $198 #
plane-surface $-1 -7 0 0 1 0 0 0 0 -1 forward_v I I I I #
coedge $-1 $202 $201 $293 $294 reversed $98 $-1 #
coedge $-1 $295 $296 $297 $206 forward $298 $-1 #
coedge $-1 $255 $203 $296 $267 forward $256 $-1 #
coedge $-1 $203 $254 $273 $299 forward $256 $-1 #
loop $-1 $-1 $203 $300 #
coedge $-1 $301 $302 $205 $258 forward $303 $-1 #
edge $-1 $171 0 $259 1.5707963267948966 $257 $161 forward 7 unknown #
vertex $-1 $304 $305 #
straight-curve $-1 -2.6244062631887405e-032 -7 25 0 0 1 I I #
coedge $-1 $306 $207 $302 $307 reversed $263 $-1 #
coedge $-1 $207 $306 $208 $228 reversed $263 $-1 #
loop $-1 $-1 $207 $243 #
coedge $-1 $308 $297 $209 $265 reversed $309 $-1 #
edge $-1 $283 -7 $211 2.6244062631887405e-032 $264 $310 forward 7 unknown #
face $-1 $227 $210 $17 $-1 $282 reversed single #
edge $-1 $211 2.6244062631887405e-032 $311 7 $296 $310 forward 7 unknown #
point $-1 -2.6244062631887405e-032 -7 -25 #
coedge $-1 $241 $212 $215 $272 forward $270 $-1 #
loop $-1 $-1 $212 $281 #
coedge $-1 $215 $214 $240 $289 forward $217 $-1 #
edge $-1 $218 0 $290 7 $215 $312 forward 7 unknown #
coedge $-1 $313 $216 $255 $299 reversed $250 $-1 #
coedge $-1 $216 $313 $314 $222 reversed $250 $-1 #
face $-1 $178 $217 $17 $-1 $251 reversed single #
point $-1 -7 0 -25 #
straight-curve $-1 -7 0 25 0 -1 0 I I #
plane-surface $-1 0 0 25 0 0 1 1 0 0 forward_v I I I I #
vertex $-1 $222 $315 #
straight-curve $-1 7 0 -25 0 -1 0 I I #
face $-1 $316 $270 $17 $-1 $282 reversed single #
plane-surface $-1 0 0 -25 0 0 1 1 0 0 forward_v I I I I #
vertex $-1 $317 $318 #
straight-curve $-1 7 0 25 0 1 0 I I #
face $-1 $319 $303 $17 $-1 $278 forward single #
straight-curve $-1 7 7 0 0 0 -1 I I #
point $-1 7 7 25 #
point $-1 7 7 -25 #
edge $-1 $244 -25 $290 25 $240 $320 forward 7 unknown #
vertex $-1 $242 $321 #
point $-1 -7 7 25 #
loop $-1 $-1 $293 $249 #
coedge $-1 $314 $322 $252 $294 forward $292 $-1 #
edge $-1 $259 1.5707963267948966 $160 3.1415926535897931 $293 $161 forward 7 unknown #
coedge $-1 $323 $253 $322 $324 reversed $298 $-1 #
coedge $-1 $253 $323 $254 $267 reversed $298 $-1 #
coedge $-1 $264 $325 $150 $206 reversed $309 $-1 #
loop $-1 $-1 $253 $316 #
edge $-1 $311 -7 $218 0 $273 $312 forward 7 unknown #
face $-1 $266 $256 $17 $-1 $282 reversed single #
coedge $-1 $302 $257 $325 $304 forward $303 $-1 #
coedge $-1 $257 $301 $261 $307 forward $303 $-1 #
loop $-1 $-1 $257 $285 #
edge $-1 $259 -2.6244062631887405e-032 $326 7 $325 $327 forward 7 unknown #
point $-1 -2.6244062631887405e-032 -7 25 #
coedge $-1 $262 $261 $308 $317 forward $263 $-1 #
edge $-1 $326 -7 $171 0 $261 $284 forward 7 unknown #
coedge $-1 $325 $264 $306 $317 reversed $309 $-1 #
loop $-1 $-1 $297 $319 #
straight-curve $-1 0 -7 -25 -1 0 0 I I #
vertex $-1 $299 $328 #
straight-curve $-1 -7 0 -25 0 1 0 I I #
coedge $-1 $274 $273 $323 $329 reversed $250 $-1 #
coedge $-1 $322 $293 $274 $222 forward $292 $-1 #
point $-1 -7 -7 25 #
face $-1 $275 $298 $17 $-1 $330 reversed single #
edge $-1 $326 -25 $283 25 $306 $331 forward 7 unknown #
point $-1 7 -7 -25 #
face $-1 $300 $309 $17 $-1 $330 reversed single #
straight-curve $-1 -7 7 0 0 0 -1 I I #
point $-1 -7 7 -25 #
coedge $-1 $293 $314 $295 $324 forward $292 $-1 #
coedge $-1 $296 $295 $313 $329 forward $298 $-1 #
edge $-1 $279 -7 $259 -2.6244062631887405e-032 $295 $327 forward 7 unknown #
coedge $-1 $297 $308 $301 $304 reversed $309 $-1 #
vertex $-1 $307 $332 #
straight-curve $-1 0 -7 25 1 0 0 I I #
point $-1 -7 -7 -25 #
edge $-1 $279 -25 $311 25 $313 $333 forward 7 unknown #
plane-surface $-1 0 -7 0 0 1 0 0 0 1 forward_v I I I I #
straight-curve $-1 7 -7 0 0 0 -1 I I #
point $-1 7 -7 25 #
straight-curve $-1 -7 -7 0 0 0 -1 I I #
End-of-ACIS-data 