105 30 1 0                              
body $-1 $1 $-1 $-1 #
lump $-1 $-1 $2 $0 #
shell $-1 $-1 $-1 $3 $1 #
face $-1 $4 $5 $2 $-1 $6 forward single #
face $-1 $7 $8 $2 $-1 $9 forward single #
loop $-1 $10 $11 $3 #
cone-surface $-1 0 0 -21.5 0 0 -1 -3.5 2.44403693719019e-14 0 1 -0.707106781186548 0.707106781186548 0 #
face $-1 $-1 $12 $2 $-1 $13 forward single #
loop $-1 $14 $15 $4 #
cone-surface $-1 0 0 0 0 0 1 7 0 0 1 0 1 0 #
loop $-1 $-1 $16 $3 #
coedge $-1 $11 $11 $-1 $17 0 $5 $-1 #
loop $-1 $-1 $18 $7 #
plane-surface $-1 0 0 25 0 0 1 1 0 0 0 #
loop $-1 $-1 $19 $4 #
coedge $-1 $15 $15 $18 $20 1 $8 $-1 #
coedge $-1 $16 $16 $19 $21 0 $10 $-1 #
edge $-1 $22 $22 $11 $-1 0 #
coedge $-1 $18 $18 $15 $20 0 $12 $-1 #
coedge $-1 $19 $19 $16 $21 1 $14 $-1 #
edge $-1 $23 $23 $18 $24 0 #
edge $-1 $25 $25 $19 $26 0 #
vertex $-1 $17 $27 #
vertex $-1 $20 $28 #
ellipse-curve $-1 0 0 25 0 0 1 7 0 0 1 #
vertex $-1 $21 $29 #
ellipse-curve $-1 0 0 -18 0 0 -1 7 0 0 1 #
point $-1 0 0 -25 #
point $-1 7 0 25 #
point $-1 7 0 -18 #
