600 0 2 0           
24 FBMach with ACIS - 6.0.3 13 ACIS 6.0.3 NT 24 Sun Mar 31 23:25:07 2002 
1 9.9999999999999995e-007 1e-010 
body $2 $3 $-1 $4 #
bdycol-kcp $-1 1 2 $5 $6 #
model_id-kcp-attrib $-1 $7 $-1 $0 1 1017635107 50 271712257 1 #
lump $-1 $-1 $8 $0 #
transform $-1 1 0 0 0 1 0 0 0 1 0 0 0 1 rotate no_reflect no_shear #
body $9 $10 $-1 $11 #
body $12 $13 $-1 $14 #
aggregate_advspl_attribute-aggregate_geombuild_base_attribute-aggregate_body_attribute-attrib_HH-attrib $-1 $15 $2 $0 F #
shell $-1 $-1 $-1 $16 $-1 $3 #
model_id-kcp-attrib $-1 $-1 $-1 $5 1 1017635107 50 271712258 1 #
lump $-1 $-1 $17 $5 #
transform $-1 1 0 0 0 1 0 0 0 1 0 0 0 1 no_rotate no_reflect no_shear #
rgb_color-st-attrib $-1 $18 $-1 $6 0.5 1 1 #
lump $-1 $-1 $19 $6 #
transform $-1 1 0 0 0 1 0 0 0 1 0 0 0 1 no_rotate no_reflect no_shear #
aggregate_secndry_attribute-aggregate_geombuild_base_attribute-aggregate_body_attribute-attrib_HH-attrib $-1 $20 $7 $0 F #
face $21 $22 $23 $8 $-1 $24 forward single #
shell $-1 $-1 $-1 $25 $-1 $10 #
model_id-kcp-attrib $-1 $-1 $12 $6 1 1017635107 80 273678339 1 #
shell $-1 $-1 $-1 $26 $-1 $13 #
aggregate_sharped_attribute-aggregate_geombuild_base_attribute-aggregate_body_attribute-attrib_HH-attrib $-1 $27 $15 $0 F #
model_id-kcp-attrib $-1 $28 $-1 $16 1 1017635107 50 271712257 2 #
face $29 $30 $31 $8 $-1 $32 forward single #
loop $-1 $33 $34 $16 #
cone-surface $-1 0 0 -21.5 0 0 -1 -3.5 2.4440369371901899e-014 0 1 I I -0.70710678118654802 0.70710678118654802 3.5 forward I I I I #
face $35 $36 $37 $17 $-1 $38 forward single #
face $-1 $39 $40 $19 $-1 $41 reversed single #
aggregate_reblend_attribute-aggregate_geombuild_base_attribute-aggregate_body_attribute-attrib_HH-attrib $-1 $42 $20 $0 F #
attrib_hh_face_geombuild-attrib_entity_geombuild-individual_entity_attribute-attrib_HH-attrib $-1 $-1 $21 $16 F #
model_id-kcp-attrib $-1 $43 $-1 $22 1 1017635107 50 271712257 3 #
face $44 $-1 $45 $8 $-1 $46 forward single #
loop $-1 $47 $48 $22 #
cone-surface $-1 0 0 0 0 0 1 7 0 0 1 I I 0 1 7 forward I I I I #
loop $-1 $-1 $49 $16 #
coedge $50 $34 $34 $-1 $51 forward $23 $-1 #
model_id-kcp-attrib $-1 $-1 $-1 $25 1 1017635107 50 271712258 2 #
face $-1 $52 $53 $17 $-1 $54 reversed single #
loop $-1 $-1 $55 $25 #
plane-surface $-1 0 0 25 0 0 1 1 0 0 forward_v I I I I #
face $-1 $56 $57 $19 $-1 $41 reversed single #
loop $-1 $-1 $58 $26 #
cone-surface $-1 -2.6244062631887405e-032 0 25 0 0 1 7 0 0 1 I I 0 1 7 forward I I I I #
aggregate_isospline_attribute-aggregate_geombuild_base_attribute-aggregate_body_attribute-attrib_HH-attrib $-1 $59 $27 $0 F #
attrib_hh_face_geombuild-attrib_entity_geombuild-individual_entity_attribute-attrib_HH-attrib $-1 $-1 $29 $22 F #
model_id-kcp-attrib $-1 $60 $-1 $30 1 1017635107 50 271712257 5 #
loop $-1 $-1 $61 $30 #
plane-surface $-1 0 0 25 0 0 1 1 0 0 forward_v I I I I #
loop $-1 $-1 $62 $22 #
coedge $63 $48 $48 $61 $64 reversed $31 $-1 #
coedge $65 $49 $49 $62 $66 forward $33 $-1 #
attrib_hh_coedge_geombuild-attrib_entity_geombuild-individual_entity_attribute-attrib_HH-attrib $-1 $-1 $-1 $34 F #
edge $67 $68 1 $68 0 $34 $-1 forward 7 unknown #
face $-1 $69 $70 $17 $-1 $71 reversed single #
loop $-1 $-1 $72 $36 #
plane-surface $-1 0 0 -25 0 0 1 1 0 0 forward_v I I I I #
coedge $-1 $73 $74 $75 $76 forward $37 $-1 #
face $-1 $77 $78 $19 $-1 $41 reversed single #
loop $-1 $-1 $79 $39 #
coedge $-1 $80 $81 $82 $83 reversed $40 $-1 #
aggregate_analytic_solver_attribute-aggregate_geombuild_base_attribute-aggregate_body_attribute-attrib_HH-attrib $-1 $84 $42 $0 F #
model_id-kcp-attrib $-1 $85 $44 $30 1 1017635107 50 271712257 4 #
coedge $86 $61 $61 $48 $64 forward $45 $-1 #
coedge $87 $62 $62 $49 $66 reversed $47 $-1 #
attrib_hh_coedge_geombuild-attrib_entity_geombuild-individual_entity_attribute-attrib_HH-attrib $-1 $-1 $-1 $48 F #
edge $88 $89 0 $89 6.2831853071795862 $61 $90 forward 7 unknown #
attrib_hh_coedge_geombuild-attrib_entity_geombuild-individual_entity_attribute-attrib_HH-attrib $-1 $-1 $-1 $49 F #
edge $91 $92 0 $92 6.2831853071795862 $62 $93 forward 7 unknown #
individual_stitch_attribute-stitch_base_entity_attribute-individual_entity_attribute-attrib_HH-attrib $-1 $94 $-1 $51 F #
vertex $95 $51 $96 #
face $-1 $97 $98 $17 $-1 $99 reversed single #
loop $-1 $-1 $100 $52 #
plane-surface $-1 0 -7 0 0 1 0 0 0 1 forward_v I I I I #
coedge $-1 $101 $102 $103 $104 forward $53 $-1 #
coedge $-1 $105 $55 $106 $107 forward $37 $-1 #
coedge $-1 $55 $105 $108 $109 forward $37 $-1 #
coedge $-1 $110 $111 $55 $76 reversed $112 $-1 #
edge $-1 $113 -7 $114 7 $75 $115 forward 7 unknown #
face $-1 $116 $117 $19 $-1 $41 reversed single #
loop $-1 $-1 $118 $56 #
coedge $-1 $119 $120 $121 $122 reversed $57 $-1 #
coedge $-1 $123 $58 $124 $125 reversed $40 $-1 #
coedge $-1 $58 $123 $126 $127 reversed $40 $-1 #
coedge $-1 $128 $129 $130 $83 forward $131 $-1 #
edge $-1 $132 -50 $133 0 $82 $134 forward 7 unknown #
aggregate_geombuild_attribute-aggregate_geombuild_base_attribute-aggregate_body_attribute-attrib_HH-attrib $-1 $135 $59 $0 #
attrib_hh_face_geombuild-attrib_entity_geombuild-individual_entity_attribute-attrib_HH-attrib $-1 $-1 $60 $30 F #
attrib_hh_coedge_geombuild-attrib_entity_geombuild-individual_entity_attribute-attrib_HH-attrib $-1 $-1 $-1 $61 F #
attrib_hh_coedge_geombuild-attrib_entity_geombuild-individual_entity_attribute-attrib_HH-attrib $-1 $-1 $-1 $62 F #
attrib_edge_convexity-kcp-attrib $-1 $136 $-1 $64 1 #
vertex $137 $64 $138 #
ellipse-curve $-1 0 0 25 0 0 1 7 0 0 1 I I #
attrib_hh_edge_geombuild-attrib_entity_geombuild-individual_entity_attribute-attrib_HH-attrib $-1 $-1 $-1 $66 F #
vertex $139 $66 $140 #
ellipse-curve $-1 0 0 -18 0 0 -1 7 0 0 1 I I #
attrib_hh_edge_geombuild-attrib_entity_geombuild-individual_entity_attribute-attrib_HH-attrib $-1 $-1 $67 $51 F #
attrib_hh_vertex_geombuild-attrib_entity_geombuild-individual_entity_attribute-attrib_HH-attrib $-1 $-1 $-1 $68 F #
point $-1 0 0 -25 #
face $-1 $141 $142 $17 $-1 $143 reversed single #
loop $-1 $-1 $144 $69 #
plane-surface $-1 -7 0 0 1 0 0 0 0 -1 forward_v I I I I #
coedge $-1 $145 $108 $146 $147 forward $70 $-1 #
coedge $-1 $148 $72 $145 $149 forward $53 $-1 #
coedge $-1 $72 $148 $150 $151 forward $53 $-1 #
coedge $-1 $111 $110 $72 $104 reversed $112 $-1 #
edge $-1 $152 -7 $153 7 $103 $154 forward 7 unknown #
coedge $-1 $74 $73 $155 $156 forward $37 $-1 #
coedge $-1 $157 $158 $73 $107 reversed $142 $-1 #
edge $-1 $114 -7 $159 7 $106 $160 forward 7 unknown #
coedge $-1 $100 $161 $74 $109 reversed $70 $-1 #
edge $-1 $162 -7 $113 7 $108 $163 forward 7 unknown #
coedge $-1 $103 $75 $161 $164 forward $112 $-1 #
coedge $-1 $75 $103 $157 $165 reversed $112 $-1 #
loop $-1 $-1 $110 $141 #
vertex $-1 $76 $166 #
vertex $-1 $76 $167 #
straight-curve $-1 7 0 25 0 1 0 I I #
face $-1 $168 $169 $19 $-1 $170 reversed single #
loop $-1 $-1 $171 $77 #
coedge $-1 $172 $173 $174 $175 reversed $78 $-1 #
coedge $-1 $176 $79 $177 $178 reversed $57 $-1 #
coedge $-1 $79 $176 $58 $83 forward $57 $-1 #
coedge $-1 $179 $180 $79 $122 forward $181 $-1 #
edge $-1 $182 -3.1415926535897931 $133 -1.5707963267948966 $121 $183 forward 7 unknown #
coedge $-1 $81 $80 $173 $184 forward $40 $-1 #
coedge $-1 $185 $186 $80 $125 forward $187 $-1 #
edge $-1 $188 0 $132 1.5707963267948966 $124 $189 forward 7 unknown #
coedge $-1 $190 $191 $81 $127 forward $192 $-1 #
edge $-1 $133 -1.5707963267948966 $193 0 $126 $183 forward 7 unknown #
coedge $-1 $194 $82 $191 $195 reversed $131 $-1 #
coedge $-1 $82 $194 $185 $196 reversed $131 $-1 #
coedge $-1 $197 $198 $120 $83 reversed $199 $-1 #
loop $-1 $-1 $82 $200 #
vertex $-1 $196 $201 #
vertex $-1 $202 $203 #
straight-curve $-1 -2.6244062631887405e-032 7 25 0 0 1 I I #
aggregate_stitch_attribute-aggregate_stitch_base_attribute-aggregate_body_attribute-attrib_HH-attrib $-1 $204 $84 $0 F #
convexity-sys-attrib $-1 $205 $88 $64 #
attrib_hh_vertex_geombuild-attrib_entity_geombuild-individual_entity_attribute-attrib_HH-attrib $-1 $-1 $-1 $89 F #
point $-1 7 0 25 #
attrib_hh_vertex_geombuild-attrib_entity_geombuild-individual_entity_attribute-attrib_HH-attrib $-1 $-1 $-1 $92 F #
point $-1 7 0 -18 #
face $-1 $-1 $112 $17 $-1 $206 reversed single #
loop $-1 $-1 $157 $97 #
plane-surface $-1 0 7 0 0 -1 0 0 0 -1 forward_v I I I I #
coedge $-1 $207 $155 $158 $208 forward $98 $-1 #
coedge $-1 $161 $100 $101 $149 reversed $70 $-1 #
coedge $-1 $155 $207 $100 $147 reversed $98 $-1 #
edge $-1 $162 -25 $209 25 $146 $210 forward 7 unknown #
coedge $-1 $102 $101 $207 $211 forward $53 $-1 #
edge $-1 $153 -7 $209 7 $145 $212 forward 7 unknown #
coedge $-1 $158 $157 $102 $151 reversed $142 $-1 #
edge $-1 $213 -7 $152 7 $150 $214 forward 7 unknown #
vertex $-1 $104 $215 #
vertex $-1 $164 $216 #
straight-curve $-1 7 0 -25 0 -1 0 I I #
coedge $-1 $144 $146 $105 $156 reversed $98 $-1 #
edge $-1 $159 -7 $162 7 $155 $217 forward 7 unknown #
coedge $-1 $150 $106 $111 $165 forward $142 $-1 #
coedge $-1 $106 $150 $144 $208 reversed $142 $-1 #
vertex $-1 $107 $218 #
straight-curve $-1 0 7 25 -1 0 0 I I #
coedge $-1 $108 $145 $110 $164 reversed $70 $-1 #
vertex $-1 $156 $219 #
straight-curve $-1 0 -7 25 1 0 0 I I #
edge $-1 $113 -25 $153 25 $110 $220 forward 7 unknown #
edge $-1 $114 -25 $152 25 $111 $221 forward 7 unknown #
point $-1 7 -7 25 #
point $-1 7 7 25 #
face $-1 $222 $199 $19 $-1 $223 reversed single #
loop $-1 $-1 $224 $116 #
plane-surface $-1 7 0 0 -1 0 0 0 0 1 forward_v I I I I #
coedge $-1 $225 $226 $227 $228 reversed $117 $-1 #
coedge $-1 $229 $118 $226 $230 forward $78 $-1 #
coedge $-1 $118 $229 $231 $184 reversed $78 $-1 #
coedge $-1 $232 $233 $118 $175 forward $234 $-1 #
edge $-1 $235 -1.5707963267948966 $188 0 $174 $189 forward 7 unknown #
coedge $-1 $120 $119 $236 $237 reversed $57 $-1 #
coedge $-1 $238 $239 $240 $178 forward $241 $-1 #
edge $-1 $242 -50 $182 0 $177 $243 forward 7 unknown #
coedge $-1 $180 $121 $198 $202 forward $181 $-1 #
coedge $-1 $121 $179 $238 $244 forward $181 $-1 #
loop $-1 $-1 $121 $245 #
vertex $-1 $246 $247 #
ellipse-curve $-1 -2.6244062631887405e-032 0 25 0 0 -1 7 0 0 1 I I #
edge $-1 $188 -50 $193 0 $231 $248 forward 7 unknown #
coedge $-1 $186 $124 $129 $196 forward $187 $-1 #
coedge $-1 $124 $185 $249 $250 forward $187 $-1 #
loop $-1 $-1 $124 $251 #
vertex $-1 $252 $253 #
ellipse-curve $-1 -2.6244062631887405e-032 0 -25 0 0 1 7 0 0 1 I I #
coedge $-1 $191 $126 $254 $255 forward $192 $-1 #
coedge $-1 $126 $190 $128 $195 forward $192 $-1 #
loop $-1 $-1 $126 $256 #
vertex $-1 $255 $257 #
coedge $-1 $129 $128 $258 $259 forward $131 $-1 #
edge $-1 $260 -7 $133 2.6244062631887405e-032 $128 $261 forward 7 unknown #
edge $-1 $132 -2.6244062631887405e-032 $262 7 $129 $263 forward 7 unknown #
coedge $-1 $264 $130 $265 $266 reversed $199 $-1 #
coedge $-1 $130 $264 $179 $202 reversed $199 $-1 #
loop $-1 $-1 $130 $168 #
face $-1 $267 $131 $19 $-1 $223 reversed single #
point $-1 -2.6244062631887405e-032 7 -25 #
edge $-1 $133 2.6244062631887405e-032 $268 7 $198 $261 forward 7 unknown #
point $-1 -2.6244062631887405e-032 7 25 #
aggregate_simgeom_attribute-aggregate_simgeom_base_attribute-aggregate_body_attribute-attrib_HH-attrib $-1 $-1 $135 $0 F #
attrib_hh_edge_geombuild-attrib_entity_geombuild-individual_entity_attribute-attrib_HH-attrib $-1 $-1 $136 $64 F #
plane-surface $-1 7 0 0 -1 0 0 0 0 1 forward_v I I I I #
coedge $-1 $146 $144 $148 $211 reversed $98 $-1 #
edge $-1 $159 -25 $213 25 $158 $269 forward 7 unknown #
vertex $-1 $211 $270 #
straight-curve $-1 -7 -7 0 0 0 -1 I I #
edge $-1 $209 -7 $213 7 $207 $271 forward 7 unknown #
straight-curve $-1 0 -7 -25 -1 0 0 I I #
vertex $-1 $151 $272 #
straight-curve $-1 0 7 -25 1 0 0 I I #
point $-1 7 7 -25 #
point $-1 7 -7 -25 #
straight-curve $-1 -7 0 25 0 -1 0 I I #
point $-1 -7 7 25 #
point $-1 -7 -7 25 #
straight-curve $-1 7 -7 0 0 0 -1 I I #
straight-curve $-1 7 7 0 0 0 -1 I I #
face $-1 $273 $274 $19 $-1 $275 reversed single #
plane-surface $-1 0 7 0 0 -1 0 0 0 -1 forward_v I I I I #
coedge $-1 $249 $254 $123 $184 reversed $169 $-1 #
coedge $-1 $276 $171 $119 $178 forward $117 $-1 #
coedge $-1 $171 $276 $277 $230 reversed $117 $-1 #
coedge $-1 $278 $279 $171 $228 forward $280 $-1 #
edge $-1 $242 -3.1415926535897931 $235 -1.5707963267948966 $227 $189 forward 7 unknown #
coedge $-1 $173 $172 $281 $282 reversed $78 $-1 #
edge $-1 $235 -50 $283 0 $277 $284 forward 7 unknown #
coedge $-1 $285 $286 $224 $184 forward $287 $-1 #
coedge $-1 $233 $174 $286 $252 forward $234 $-1 #
coedge $-1 $174 $232 $288 $289 forward $234 $-1 #
loop $-1 $-1 $174 $290 #
vertex $-1 $291 $292 #
coedge $-1 $293 $265 $176 $237 forward $294 $-1 #
edge $-1 $132 1.5707963267948966 $242 3.1415926535897931 $236 $189 forward 7 unknown #
coedge $-1 $295 $177 $180 $244 reversed $241 $-1 #
coedge $-1 $177 $295 $293 $296 reversed $241 $-1 #
coedge $-1 $297 $298 $225 $178 reversed $274 $-1 #
loop $-1 $-1 $177 $299 #
vertex $-1 $296 $300 #
straight-curve $-1 -7 0 25 0 0 1 I I #
edge $-1 $268 -7 $182 0 $238 $301 forward 7 unknown #
face $-1 $256 $181 $19 $-1 $302 forward single #
edge $-1 $182 0 $303 7 $298 $301 forward 7 unknown #
point $-1 -7 0 25 #
straight-curve $-1 7 0 25 0 0 1 I I #
coedge $-1 $258 $224 $186 $250 reversed $169 $-1 #
edge $-1 $262 -7 $188 0 $249 $304 forward 7 unknown #
face $-1 $305 $187 $19 $-1 $306 reversed single #
edge $-1 $188 0 $307 7 $286 $304 forward 7 unknown #
point $-1 7 0 -25 #
coedge $-1 $224 $258 $190 $255 reversed $169 $-1 #
edge $-1 $193 0 $260 7 $254 $308 forward 7 unknown #
face $-1 $309 $192 $19 $-1 $302 forward single #
point $-1 7 0 25 #
coedge $-1 $254 $249 $194 $259 reversed $169 $-1 #
edge $-1 $260 -25 $262 25 $258 $310 forward 7 unknown #
vertex $-1 $255 $311 #
straight-curve $-1 0 7 25 -1 0 0 I I #
vertex $-1 $250 $312 #
straight-curve $-1 0 7 -25 1 0 0 I I #
coedge $-1 $198 $197 $295 $313 reversed $199 $-1 #
coedge $-1 $236 $293 $197 $266 forward $294 $-1 #
edge $-1 $314 -7 $132 -2.6244062631887405e-032 $197 $263 forward 7 unknown #
face $-1 $-1 $287 $19 $-1 $170 reversed single #
vertex $-1 $202 $315 #
straight-curve $-1 -7 7 0 0 0 -1 I I #
point $-1 -7 -7 -25 #
straight-curve $-1 -7 0 -25 0 1 0 I I #
point $-1 -7 7 -25 #
face $-1 $245 $316 $19 $-1 $302 forward single #
loop $-1 $-1 $240 $222 #
plane-surface $-1 -7 0 0 1 0 0 0 0 -1 forward_v I I I I #
coedge $-1 $226 $225 $317 $318 reversed $117 $-1 #
coedge $-1 $319 $320 $321 $230 forward $322 $-1 #
coedge $-1 $279 $227 $320 $291 forward $280 $-1 #
coedge $-1 $227 $278 $297 $323 forward $280 $-1 #
loop $-1 $-1 $227 $324 #
coedge $-1 $325 $326 $229 $282 forward $327 $-1 #
edge $-1 $193 0 $283 1.5707963267948966 $281 $183 forward 7 unknown #
vertex $-1 $328 $329 #
straight-curve $-1 -2.6244062631887405e-032 -7 25 0 0 1 I I #
coedge $-1 $330 $231 $326 $331 reversed $287 $-1 #
coedge $-1 $231 $330 $232 $252 reversed $287 $-1 #
loop $-1 $-1 $231 $267 #
coedge $-1 $332 $321 $233 $289 reversed $333 $-1 #
edge $-1 $307 -7 $235 2.6244062631887405e-032 $288 $334 forward 7 unknown #
face $-1 $251 $234 $19 $-1 $306 reversed single #
edge $-1 $235 2.6244062631887405e-032 $335 7 $320 $334 forward 7 unknown #
point $-1 -2.6244062631887405e-032 -7 -25 #
coedge $-1 $265 $236 $239 $296 forward $294 $-1 #
loop $-1 $-1 $236 $305 #
coedge $-1 $239 $238 $264 $313 forward $241 $-1 #
edge $-1 $242 0 $314 7 $239 $336 forward 7 unknown #
coedge $-1 $337 $240 $279 $323 reversed $274 $-1 #
coedge $-1 $240 $337 $338 $246 reversed $274 $-1 #
face $-1 $200 $241 $19 $-1 $275 reversed single #
point $-1 -7 0 -25 #
straight-curve $-1 -7 0 25 0 -1 0 I I #
plane-surface $-1 0 0 25 0 0 1 1 0 0 forward_v I I I I #
vertex $-1 $246 $339 #
straight-curve $-1 7 0 -25 0 -1 0 I I #
face $-1 $340 $294 $19 $-1 $306 reversed single #
plane-surface $-1 0 0 -25 0 0 1 1 0 0 forward_v I I I I #
vertex $-1 $341 $342 #
straight-curve $-1 7 0 25 0 1 0 I I #
face $-1 $343 $327 $19 $-1 $302 forward single #
straight-curve $-1 7 7 0 0 0 -1 I I #
point $-1 7 7 25 #
point $-1 7 7 -25 #
edge $-1 $268 -25 $314 25 $264 $344 forward 7 unknown #
vertex $-1 $266 $345 #
point $-1 -7 7 25 #
loop $-1 $-1 $317 $273 #
coedge $-1 $338 $346 $276 $318 forward $316 $-1 #
edge $-1 $283 1.5707963267948966 $182 3.1415926535897931 $317 $183 forward 7 unknown #
coedge $-1 $347 $277 $346 $348 reversed $322 $-1 #
coedge $-1 $277 $347 $278 $291 reversed $322 $-1 #
coedge $-1 $288 $349 $172 $230 reversed $333 $-1 #
loop $-1 $-1 $277 $340 #
edge $-1 $335 -7 $242 0 $297 $336 forward 7 unknown #
face $-1 $290 $280 $19 $-1 $306 reversed single #
coedge $-1 $326 $281 $349 $328 forward $327 $-1 #
coedge $-1 $281 $325 $285 $331 forward $327 $-1 #
loop $-1 $-1 $281 $309 #
edge $-1 $283 -2.6244062631887405e-032 $350 7 $349 $351 forward 7 unknown #
point $-1 -2.6244062631887405e-032 -7 25 #
coedge $-1 $286 $285 $332 $341 forward $287 $-1 #
edge $-1 $350 -7 $193 0 $285 $308 forward 7 unknown #
coedge $-1 $349 $288 $330 $341 reversed $333 $-1 #
loop $-1 $-1 $321 $343 #
straight-curve $-1 0 -7 -25 -1 0 0 I I #
vertex $-1 $323 $352 #
straight-curve $-1 -7 0 -25 0 1 0 I I #
coedge $-1 $298 $297 $347 $353 reversed $274 $-1 #
coedge $-1 $346 $317 $298 $246 forward $316 $-1 #
point $-1 -7 -7 25 #
face $-1 $299 $322 $19 $-1 $354 reversed single #
edge $-1 $350 -25 $307 25 $330 $355 forward 7 unknown #
point $-1 7 -7 -25 #
face $-1 $324 $333 $19 $-1 $354 reversed single #
straight-curve $-1 -7 7 0 0 0 -1 I I #
point $-1 -7 7 -25 #
coedge $-1 $317 $338 $319 $348 forward $316 $-1 #
coedge $-1 $320 $319 $337 $353 forward $322 $-1 #
edge $-1 $303 -7 $283 -2.6244062631887405e-032 $319 $351 forward 7 unknown #
coedge $-1 $321 $332 $325 $328 reversed $333 $-1 #
vertex $-1 $331 $356 #
straight-curve $-1 0 -7 25 1 0 0 I I #
point $-1 -7 -7 -25 #
edge $-1 $303 -25 $335 25 $337 $357 forward 7 unknown #
plane-surface $-1 0 -7 0 0 1 0 0 0 1 forward_v I I I I #
straight-curve $-1 7 -7 0 0 0 -1 I I #
point $-1 7 -7 25 #
straight-curve $-1 -7 -7 0 0 0 -1 I I #
End-of-ACIS-data 