  0
SECTION
  2
HEADER
  9
$ACADVER
  1
AC1009
  9
$INSBASE
 10
0.0
 20
0.0
 30
0.0
  9
$EXTMIN
 10
-1.0
 20
-1.0
 30
0.0
  9
$EXTMAX
 10
8.0
 20
8.0
 30
3.0
  9
$LIMMIN
 10
0.0
 20
0.0
  9
$LIMMAX
 10
12.0
 20
9.0
  9
$ORTHOMODE
 70
     0
  9
$REGENMODE
 70
     1
  9
$FILLMODE
 70
     1
  9
$QTEXTMODE
 70
     0
  9
$MIRRTEXT
 70
     1
  9
$DRAGMODE
 70
     2
  9
$LTSCALE
 40
1.0
  9
$OSMODE
 70
     0
  9
$ATTMODE
 70
     1
  9
$TEXTSIZE
 40
0.2
  9
$TRACEWID
 40
0.05
  9
$TEXTSTYLE
  7
STANDARD
  9
$CLAYER
  8
0
  9
$CELTYPE
  6
BYLAYER
  9
$CECOLOR
 62
   256
  9
$DIMSCALE
 40
1.0
  9
$DIMASZ
 40
0.18
  9
$DIMEXO
 40
0.0625
  9
$DIMDLI
 40
0.38
  9
$DIMRND
 40
0.0
  9
$DIMDLE
 40
0.0
  9
$DIMEXE
 40
0.18
  9
$DIMTP
 40
0.0
  9
$DIMTM
 40
0.0
  9
$DIMTXT
 40
0.18
  9
$DIMCEN
 40
0.09
  9
$DIMTSZ
 40
0.0
  9
$DIMTOL
 70
     0
  9
$DIMLIM
 70
     0
  9
$DIMTIH
 70
     1
  9
$DIMTOH
 70
     1
  9
$DIMSE1
 70
     0
  9
$DIMSE2
 70
     0
  9
$DIMTAD
 70
     0
  9
$DIMZIN
 70
     0
  9
$DIMBLK
  1

  9
$DIMASO
 70
     1
  9
$DIMSHO
 70
     1
  9
$DIMPOST
  1

  9
$DIMAPOST
  1

  9
$DIMALT
 70
     0
  9
$DIMALTD
 70
     2
  9
$DIMALTF
 40
25.4
  9
$DIMLFAC
 40
1.0
  9
$DIMTOFL
 70
     0
  9
$DIMTVP
 40
0.0
  9
$DIMTIX
 70
     0
  9
$DIMSOXD
 70
     0
  9
$DIMSAH
 70
     0
  9
$DIMBLK1
  1

  9
$DIMBLK2
  1

  9
$DIMSTYLE
  2
*UNNAMED
  9
$DIMCLRD
 70
     0
  9
$DIMCLRE
 70
     0
  9
$DIMCLRT
 70
     0
  9
$DIMTFAC
 40
1.0
  9
$DIMGAP
 40
0.09
  9
$LUNITS
 70
     2
  9
$LUPREC
 70
     4
  9
$SKETCHINC
 40
0.1
  9
$FILLETRAD
 40
0.0
  9
$AUNITS
 70
     0
  9
$AUPREC
 70
     0
  9
$MENU
  1
acad
  9
$ELEVATION
 40
0.0
  9
$PELEVATION
 40
0.0
  9
$THICKNESS
 40
0.0
  9
$LIMCHECK
 70
     0
  9
$BLIPMODE
 70
     1
  9
$CHAMFERA
 40
0.0
  9
$CHAMFERB
 40
0.0
  9
$SKPOLY
 70
     0
  9
$TDCREATE
 40
2449411.117827095
  9
$TDUPDATE
 40
2449411.118978854
  9
$TDINDWG
 40
0.0011517593
  9
$TDUSRTIMER
 40
0.0011517593
  9
$USRTIMER
 70
     1
  9
$ANGBASE
 50
0.0
  9
$ANGDIR
 70
     0
  9
$PDMODE
 70
     0
  9
$PDSIZE
 40
0.0
  9
$PLINEWID
 40
0.0
  9
$COORDS
 70
     1
  9
$SPLFRAME
 70
     0
  9
$SPLINETYPE
 70
     6
  9
$SPLINESEGS
 70
     8
  9
$ATTDIA
 70
     0
  9
$ATTREQ
 70
     1
  9
$HANDLING
 70
     1
  9
$HANDSEED
  5
47
  9
$SURFTAB1
 70
     6
  9
$SURFTAB2
 70
     6
  9
$SURFTYPE
 70
     6
  9
$SURFU
 70
     6
  9
$SURFV
 70
     6
  9
$UCSNAME
  2

  9
$UCSORG
 10
0.0
 20
0.0
 30
0.0
  9
$UCSXDIR
 10
1.0
 20
0.0
 30
0.0
  9
$UCSYDIR
 10
0.0
 20
1.0
 30
0.0
  9
$PUCSNAME
  2

  9
$PUCSORG
 10
0.0
 20
0.0
 30
0.0
  9
$PUCSXDIR
 10
1.0
 20
0.0
 30
0.0
  9
$PUCSYDIR
 10
0.0
 20
1.0
 30
0.0
  9
$USERI1
 70
     0
  9
$USERI2
 70
     0
  9
$USERI3
 70
     0
  9
$USERI4
 70
     0
  9
$USERI5
 70
     0
  9
$USERR1
 40
0.0
  9
$USERR2
 40
0.0
  9
$USERR3
 40
0.0
  9
$USERR4
 40
0.0
  9
$USERR5
 40
0.0
  9
$WORLDVIEW
 70
     1
  9
$SHADEDGE
 70
     3
  9
$SHADEDIF
 70
    70
  9
$TILEMODE
 70
     1
  9
$MAXACTVP
 70
    16
  9
$PINSBASE
 10
0.0
 20
0.0
 30
0.0
  9
$PLIMCHECK
 70
     0
  9
$PEXTMIN
 10
1.000000E+20
 20
1.000000E+20
 30
1.000000E+20
  9
$PEXTMAX
 10
-1.000000E+20
 20
-1.000000E+20
 30
-1.000000E+20
  9
$PLIMMIN
 10
0.0
 20
0.0
  9
$PLIMMAX
 10
12.0
 20
9.0
  9
$UNITMODE
 70
     0
  9
$VISRETAIN
 70
     0
  9
$PLINEGEN
 70
     0
  9
$PSLTSCALE
 70
     1
  9
$TREEDEPTH
 70
  3020
  9
$DWGCODEPAGE
  3
ascii
  0
ENDSEC
  0
SECTION
  2
TABLES
  0
TABLE
  2
VPORT
 70
     2
  0
VPORT
  2
*ACTIVE
 70
     0
 10
0.0
 20
0.0
 11
1.0
 21
1.0
 12
-1.487758
 22
-0.547723
 13
0.0
 23
0.0
 14
1.0
 24
1.0
 15
0.0
 25
0.0
 16
1.0
 26
2.0
 36
1.0
 17
0.0
 27
0.0
 37
0.0
 40
7.668116
 41
1.594883
 42
50.0
 43
0.0
 44
0.0
 50
0.0
 51
0.0
 71
     0
 72
   100
 73
     1
 74
     1
 75
     0
 76
     0
 77
     0
 78
     0
  0
ENDTAB
  0
TABLE
  2
LTYPE
 70
     1
  0
LTYPE
  2
CONTINUOUS
 70
    64
  3
Solid line
 72
    65
 73
     0
 40
0.0
  0
ENDTAB
  0
TABLE
  2
LAYER
 70
     2
  0
LAYER
  2
0
 70
    64
 62
     7
  6
CONTINUOUS
  0
LAYER
  2
AME_FRZ
 70
    65
 62
     7
  6
CONTINUOUS
  0
ENDTAB
  0
TABLE
  2
STYLE
 70
     1
  0
STYLE
  2
STANDARD
 70
     0
 40
0.0
 41
1.0
 50
0.0
 71
     0
 42
0.2
  3
txt
  4

  0
ENDTAB
  0
TABLE
  2
VIEW
 70
     0
  0
ENDTAB
  0
TABLE
  2
UCS
 70
     0
  0
ENDTAB
  0
TABLE
  2
APPID
 70
     3
  0
APPID
  2
ACAD
 70
    64
  0
APPID
  2
AME_SOL
 70
    64
  0
APPID
  2
AVE_INVOKE
 70
    64
  0
ENDTAB
  0
TABLE
  2
DIMSTYLE
 70
     0
  0
ENDTAB
  0
ENDSEC
  0
SECTION
  2
BLOCKS
  0
BLOCK
  8
0
  5
1
  2
AME_NIL
 70
    64
 10
0.0
 20
0.0
 30
0.0
  1
AME_NIL
  3
AME_NIL
  0
ENDBLK
  8
0
  5
2
  0
BLOCK
  8
0
  5
4
  2
AME_SOL
 70
    64
 10
0.0
 20
0.0
 30
0.0
  1
AME_SOL
  3
AME_SOL
  0
ENDBLK
  8
0
  5
5
  0
BLOCK
  8
0
  5
25
  2
*U4
 70
    65
 10
0.0
 20
0.0
 30
0.0
  1
*U
  3
*U
  0
LINE
  8
0
 62
     7
  5
26
 10
8.0
 20
8.0
 30
0.0
 11
8.0
 21
8.0
 31
3.0
1001
AME_SOL
1070
     1
1071
       32
  0
LINE
  8
0
 62
     7
  5
27
 10
8.0
 20
8.0
 30
3.0
 11
8.0
 21
0.0
 31
3.0
1001
AME_SOL
1070
     1
1071
       31
  0
LINE
  8
0
 62
     7
  5
28
 10
0.0
 20
8.0
 30
3.0
 11
8.0
 21
8.0
 31
3.0
1001
AME_SOL
1070
     1
1071
       30
  0
LINE
  8
0
 62
     7
  5
29
 10
0.0
 20
8.0
 30
0.0
 11
0.0
 21
8.0
 31
3.0
1001
AME_SOL
1070
     1
1071
       29
  0
LINE
  8
0
 62
     7
  5
2A
 10
0.0
 20
0.354249
 30
3.0
 11
0.0
 21
0.0
 31
3.0
1001
AME_SOL
1070
     1
1071
       28
  0
LINE
  8
0
 62
     7
  5
2B
 10
0.0
 20
8.0
 30
3.0
 11
0.0
 21
5.645751
 31
3.0
1001
AME_SOL
1070
     1
1071
       27
  0
LINE
  8
0
 62
     7
  5
2C
 10
0.0
 20
0.0
 30
0.0
 11
0.0
 21
0.0
 31
3.0
1001
AME_SOL
1070
     1
1071
       26
  0
LINE
  8
0
 62
     7
  5
2D
 10
8.0
 20
0.0
 30
3.0
 11
8.0
 21
0.0
 31
0.0
1001
AME_SOL
1070
     1
1071
       25
  0
LINE
  8
0
 62
     7
  5
2E
 10
5.645751
 20
0.0
 30
3.0
 11
8.0
 21
0.0
 31
3.0
1001
AME_SOL
1070
     1
1071
       24
  0
LINE
  8
0
 62
     7
  5
2F
 10
0.0
 20
0.0
 30
3.0
 11
0.354249
 21
0.0
 31
3.0
1001
AME_SOL
1070
     1
1071
       23
  0
LINE
  8
0
 62
     7
  5
30
 10
0.0
 20
0.0
 30
0.0
 11
8.0
 21
0.0
 31
0.0
1001
AME_SOL
1070
     1
1071
       22
  0
LINE
  8
0
 62
     7
  5
31
 10
0.0
 20
8.0
 30
0.0
 11
0.0
 21
0.0
 31
0.0
1001
AME_SOL
1070
     1
1071
       21
  0
LINE
  8
0
 62
     7
  5
32
 10
8.0
 20
0.0
 30
0.0
 11
8.0
 21
8.0
 31
0.0
1001
AME_SOL
1070
     1
1071
       20
  0
LINE
  8
0
 62
     7
  5
33
 10
8.0
 20
8.0
 30
0.0
 11
0.0
 21
8.0
 31
0.0
1001
AME_SOL
1070
     1
1071
       19
  0
LINE
  8
0
 62
     7
  5
34
 10
0.354249
 20
0.0
 30
1.0
 11
5.645751
 21
0.0
 31
1.0
1001
AME_SOL
1070
     1
1071
       18
  0
LINE
  8
0
 62
     7
  5
35
 10
0.0
 20
5.645751
 30
1.0
 11
0.0
 21
0.354249
 31
1.0
1001
AME_SOL
1070
     1
1071
       17
  0
ARC
  8
0
 62
     7
  5
36
 10
3.0
 20
3.0
 30
1.0
 40
4.0
 50
311.409622
 51
138.590378
1001
AME_SOL
1070
     1
1071
       16
  0
ARC
  8
0
 62
     7
  5
37
 10
3.0
 20
3.0
 30
1.0
 40
4.0
 50
221.409622
 51
228.590378
1001
AME_SOL
1070
     1
1071
       15
  0
LINE
  8
0
 62
     7
  5
38
 10
0.354249
 20
0.0
 30
1.0
 11
0.354249
 21
0.0
 31
3.0
1001
AME_SOL
1070
     1
1071
       14
  0
LINE
  8
0
 62
     7
  5
39
 10
5.645751
 20
0.0
 30
1.0
 11
5.645751
 21
0.0
 31
3.0
1001
AME_SOL
1070
     1
1071
       13
  0
LINE
  8
0
 62
     7
  5
3A
 10
0.0
 20
0.354249
 30
1.0
 11
0.0
 21
0.354249
 31
3.0
1001
AME_SOL
1070
     1
1071
       12
  0
LINE
  8
0
 62
     7
  5
3B
 10
0.0
 20
5.645751
 30
1.0
 11
0.0
 21
5.645751
 31
3.0
1001
AME_SOL
1070
     1
1071
       11
  0
ARC
  8
0
 62
     7
  5
3C
 10
3.0
 20
3.0
 30
3.0
 40
4.0
 50
311.409622
 51
138.590378
1001
AME_SOL
1070
     1
1071
       10
  0
ARC
  8
0
 62
     7
  5
3D
 10
3.0
 20
3.0
 30
3.0
 40
4.0
 50
221.409622
 51
228.590378
1001
AME_SOL
1070
     1
1071
        9
  0
LINE
  8
0
 62
     7
  5
3E
 10
3.0
 20
7.0
 30
1.0
 11
3.0
 21
7.0
 31
3.0
1001
AME_SOL
1070
     0
1071
        1
  0
LINE
  8
0
 62
     7
  5
3F
 10
7.0
 20
3.0
 30
1.0
 11
7.0
 21
3.0
 31
3.0
1001
AME_SOL
1070
     0
1071
        1
  0
ENDBLK
  8
0
  5
40
  0
BLOCK
  8
0
  5
44
  2
AME_JNK
 70
     0
 10
0.0
 20
0.0
 30
0.0
  1
AME_JNK
  3
AME_JNK
  0
ENDBLK
  8
0
  5
45
  0
ENDSEC
  0
SECTION
  2
ENTITIES
  0
INSERT
  8
AME_FRZ
  5
3
  2
AME_NIL
 10
0.0
 20
0.0
 30
0.0
  0
INSERT
  8
AME_FRZ
  5
6
  2
AME_SOL
 10
0.0
 20
0.0
 30
0.0
1001
AME_SOL
1000
R2.1
1000
AME2
1000
sq cm
1070
     3
1070
     0
1070
     3
1000
wire
1040
45.0
1000
U
1040
1.0
1000
cm
1000
gm
1000
MILD_STEEL
1070
    25
1000
CSG
1070
     1
1070
     3
1070
     3
1070
     3
1070
     0
1000
cu cm
1070
     1
1070
     0
1005
3
  0
INSERT
  8
AME_FRZ
  5
15
  2
AME_NIL
 10
0.0
 20
0.0
 30
0.0
1001
AME_SOL
1002
{
1070
     1
1071
  2434336
1070
  1536
1070
     1
1010
8.0
1020
8.0
1030
3.0
1005
0
1005
0
1005
41
1040
0.0
1040
1.0
1070
     0
1000
MILD_STEEL
1000
0
1010
0.0
1020
0.0
1030
0.0
1010
0.0
1020
0.0
1030
1.0
1040
0.0
1002
}
1001
AVE_INVOKE
1000
SOLAVEMESH
  0
INSERT
  8
AME_FRZ
  5
21
  2
AME_NIL
 10
3.0
 20
3.0
 30
1.0
1001
AME_SOL
1002
{
1070
     1
1071
  2427616
1070
  1538
1070
     1
1010
4.0
1020
4.0
1030
2.0
1005
0
1005
0
1005
41
1040
0.0
1040
1.0
1070
     0
1000
MILD_STEEL
1000
0
1010
3.0
1020
3.0
1030
1.0
1010
0.0
1020
0.0
1030
1.0
1040
0.0
1002
}
1001
AVE_INVOKE
1000
SOLAVEMESH
  0
INSERT
  8
0
  5
41
  2
*U4
 10
0.0
 20
0.0
 30
0.0
1001
AME_SOL
1002
{
1070
     1
1071
  2394600
1070
  1543
1070
     1
1070
     0
1005
15
1005
21
1005
0
1005
42
1005
0
1040
0.0
1040
1.0
1070
     0
1000
MILD_STEEL
1000
0
1002
}
1001
AVE_INVOKE
1000
SOLAVEMESH
  0
INSERT
  8
AME_FRZ
  5
42
  2
AME_NIL
 10
1.0
 20
1.0
 30
1.0
1001
AME_SOL
1004
C7CF0100010180017F017D017901710102003F00720101006601580146012E011F0060002F012E001D0115008E001400590147010D0030010300070096007A01730167015A01C00048013101F500F3003201ED00FC005B010A00100068015C0149014E00EE004A0150003301700053005D014B0134015900
1004
820035015C00E4004C013601F200EF00370179001E017C00DF007401690124005E0180004D01A40038011F01D6009500200112013800E800E9006A018400A0007E017B0175016B011800FE00400076016C015F014E019C00D400050060014F013901A900EA003A01EB00680075006D016101200050010600
1004
2500BF007C0177016E01620151013B01FD005F003C01BC0021011301090164001600FA00040052017F003D013100D200630153013E0122016F00A5002301C300B6003F012401F10093002501540014012300260054014001260115012A00B80016018C00350027011701E100DD0018014D00C60041012801
1004
19010A01E200D8000B01CA00C8001A010C01C40098000D01B100AC0029011B010E0101010001170002011900F7000F010301F4002D0004012F0030001C011001050132008F0006019000EC0011010701CB0052000801BB00B9006F01280064015501A800F800080078017001F000650156014201A7000C00
1004
43012A01FB00CE002B01D000E700570144012C01DA00A200AF0045011C002D0148004F00FF000000548E9523A543A8291DEF7ECFD679B78BBBE9603D8CD38BBBE9603D8CD38B81A3D17A072E49B1E15A52B1249B1E15A52B12D1E8BD01ADD22EEA171BDDF4B01EC669C5DDF4B01EC669C5C62C4A6A0ED2E8
1004
46953D89D249DC91A54F6274927725A3D17A035BA455494101C5BBDF8ACFCEA928FF703FFFFFFFB81FF17DBA45F6E9FDC0A9FE4D3F934FFFFFFAA4A3FDC0FFFFFFFEE07FC5F6E917DBA7F702A7F934FE4D3FFFFFB8BB36548EB8F57FEE07FFFFFFF703FE8BDEF7BCBABA7EDD3FB8104B4C22D978B2565597
1004
E5A6116CBC592B2AD822FECD9520E3D5FFB81FFFFFFFDC0FFB383DEF7BC76945EF7BDE5D5FF7020969845B2F164ACAB2FCB4C22D978B25655B045FD9B2A45C7ABFF703FFFFFFFB81FF17DDC917DBA7F7020969845B2F164ACAB2FCB4C22D978B25655B07C5FF717FF072D308B65E2C959565FFEE2FFD25A6
1004
116CBC592B2AD822FFFFD20B337BDECCDEF78BFFFF4B3654F8F57FEE07FFFFFFF703FECE0F7BDEF1DA45F7727F7020969845B2F164ACAB2FCB4C22D978B25655B07C5FF717FF072D308B65E2C959565FFEE2FFD25A6116CBC592B2AD822FFFFD20B337BDECCDEF78BFFFF4BA85C61EEFA580F6334E2EEFA5
1004
80F6334E2E3162535076974234A9EC4E924EE48D2A7B13A493B92549603D8CD38114E2875864B77BF159CB9C51FEE07FFFFF9AFDC5FF9A17DBA45F6E9FDC0A9FFFFFFFFFF9C51FEE07FFFFF9AFDC5FF9A17DBA45F6E9FDC0A9FFFFFFFFFEE2EEA1718781A3D17A072E068F45E81CB81A3D17A072E49B1E15
1004
A52B1249B1E15A52B12068F45E81C114E28779D5322E2B3E059C51FFFEE07FFF703FFFFFFFFFEA7FFFFFFFFFE7147FFFB81FFFDC0FFFFFFFFFFA9FFFFFFFFFEE05D42E3781A3D17A072E068F45E81CB81A3D17A072E49B1E15A52B12068F45E81C168F45E80D6E914E28A89917158C2CE28FF703FFFFFFFF
1004
FB81FFFFFF53FFFFFFFFFF38A3FDC0FFFFFFFFFEE07FFFFFD4FFFFFFFFFF702EA171BC0D1E8BD03970347A2F40E5C0D1E8BD03970347A2F40E0926C785694AC4B47A2F406B748A71438A0645C567B8B38A3FFFFFDC0FFFEE07FFFFFFFD4FFFFFFFFFFCE28FFFFFF703FFFB81FFFFFFFF53FFFFFFFFFDC0BA
1004
85C6F0347A2F40E5C0D1E8BD0397761822BAEAA1DA49363C2B4A56249363C2B4A5625A3D17A035BA4538A1B5D0645C567B0B38A3FDC5FF9AFE6BF9AFDC5FF9AFD627F58917DBA54FFFFFFFFFFCE28FF717FE6BF9AFE6BF717FE6BF589FD6245F6E953FFFFFFFFFDC0BA85C61E068F45E81CB919DB3445220
1004
C12068F45E81CB926C785694AC4926C785694AC4B47A2F406B748A7141354191714642CE28FF9AFE6BF717FDC5FF9AFE6BF589FD6245F6E953FFFFFFFFFF38A3FE6BF9AFDC5FF717FE6BF9AFD627F58917DBA54FFFFFFFFFF702EA17187919DB3445220C12068F45E81CB81A3D17A072E49B1E15A52B1249
1004
B1E15A52B12D1E8BD01ADD229C50D3B2645C567A8B38A3FE6BF717FE6BF9AFE6BF717FD627F58917DBA54FFFFFFFFFFCE28FF9AFDC5FF9AFE6BF9AFDC5FF589FD6245F6E953FFFFFFFFFDC09B1481A3D17A072E068F45E81CBBB0C115D7550ED234A9EC4E924EE48D2A7B13A493B92D1E8BD01ADD2C9326C
1004
AB20C72C0E88334664C719D97960040123AB6756185BE2BDE40716EDAE83382DAE83240716E2EF7BDE4757FEE07FFFFFFF703FE2FB748BEDD22FB74B0FFC9A7F26964993655906396074419A332638CECBCB00206C52068F45E81CB81A3D17A072EEC304575D543B48D2A7B13A493B9234A9EC4E924EE4B4
1004
7A2F406B74B3534CDC662BB2E552EC9326CAB20C72C0E92091D5B482DF15EF2038B76D7419C16D74192038B7177BDEF23ABFF703FFFFFFFB81FF17DBA45F6E917DBA587FE4D3F934B3534CDC662BB2E552EC9326CAB20C72C0E926C52068F45E81CB81A3D17A072E31625350769742068F45E81C11A54F62
1004
74927725A3D17A035BA7FC5FA411EACA8D8CEF78A40716EE2819C12038B77140CBDEF78B8F57FEE07FFFFFFF703FFFB3A309597C6FA884DD6194FEE041FF17E936290347A2F40E5C0D1E8BD039718B129A83B4BA10347A2F40E08D2A7B13A493B92D1E8BD01ADD3FE2FD208F56E33FCCE2BDE40716EE2819
1004
C17140C901C5B8BBDEF78F57FEE07FFFFFFF703FFFB3A3099C8DE2AD9D80CEE6E07F7020FF8BF49B1481A3D17A072E068F45E81CB8C5894D41DA5D08D2A7B13A493B92068F45E81C168F45E80D6E9FF17E9047ABB3F8CE2BDE40716F513383513240716E2EF7BDE3D5FFB81FFFFFFFDC0FFAB2F8DF5109BA
1004
C329FFFDC083FE2FD26C52068F45E81CB81A3D17A072E3162535076974234A9EC4E924EE481A3D17A0705A3D17A035BA7FC5FA411EAC9B08CEF78A40716F51338240716F5132F7BDE2E3D5FFB81FFFFFFFDC0FF90378AB676033B9B81FFFDC083FE2FD26C52EFA580F6334E2EEFA580F6334E2E316253507
1004
6974234A9EC4E924EE48D2A7B13A493B92549603D8CD38164993655906396074419A332638CECBCB0020091D5B7678ADF7BC52038B775864B7C12038B775864B77BDEF7BDEF23ABFF703FFFFFFFB81FF17DBA45F6E9FDC0B0FFC9A7F26964993655906396074419A332638CECBCB00206C52EFA580F6334E
1004
2EEFA580F6334E2E3162535076974234A9EC4E924EE48D2A7B13A493B92549603D8CD38166A699B8CC5765CAA5D9264D956418E581D24123AB37A332DF7BC52038B775864B7C12038B775864B77BDEF7BDEF23ABFF703FFFFFFFB81FF17DBA45F6E9FDC0B0FFC9A7F26966A699B8CC5765CAA5D9264D9564
1004
18E581D24D8A40D1E8BD03970347A2F40E5C62C4A6A0ED2E840D1E8BD038234A9EC4E924EE4952580F6334E05597C6FA884DD26414594644AEF658B81047AB6C19CCE2BDEEB0C96EE2819C17140CBAC325B8BBDEF78F57FEE2FFFFFFFFFFB8BFF8BEDA1FDC082ACBE37D4426E9320A2CA322577B2C5C09B1
1004
481A3D17A072E068F45E81CB8C5894D41DA5D08D2A7B13A493B92068F45E81C12A4B01EC669C0A8B28C895DECB1717565F1BEA213749A411EAD98B3E4CE2BDEEB0C96F5133835132EB0C96E2EF7BDE3D5FFFFB8BFFFFFFFEE2E2FB687FFF7020A8B28C895DECB1717565F1BEA213749A4D8A40D1E8BD0397
1004
233B6688A4418240D1E8BD039724D8F0AD2958924D8F0AD295890347A2F40E0FE4C87E4D208F56CE6CFA33BDE2BBCEA9926A83382EF3AA649AA0C8B8B8F57FFFEE07FFFFFFF717FC9A7F589FF07F2643F2693629233B6688A4418240D1E8BD03970347A2F40E5C9363C2B4A56249363C2B4A56240D1E8BD0
1004
383F9321F934823D5BBC4733BDE2BBCEA9969D93382EF3AA65A764C8B8B8F57FEE07FFFFFFFFF717FD627F269FF07F2643F26936290347A2F40E5C0D1E8BD03970347A2F40E5C0D1E8BD038249B1E15A52B12068F45E81C1FD610FE6811EAD9D48A677BC5779D532E2819C1779D532E281917171EAFFDC5F
1004
FFFFFFFFF717FFFFFF07F5843F9A36290347A2F40E5C0D1E8BD03970347A2F40E5C9363C2B4A56240D1E8BD0382068F45E81C1FFFD62411EADB19E8677BC5779D533513382EF3AA66A2645C5C7ABFFFF717FFFFFFFDC5FFFFFFC1FFFD624D8A40D1E8BD03970347A2F40E5DD8608AEBAA876924D8F0AD295
1004
890347A2F40E0B47A2F406B74FE4C82A5B58EA862660384011EAD98910CEF78B5132DAE833835132DAE8322E2E3D5FFFFFFB81FFFDC5FFFF269FF17DBA41FC99054B6B1D50C4CC07081B1481A3D17A072E068F45E81CBBB0C115D7550ED249B1E15A52B12068F45E81C168F45E80D6E937194644AEF65986
1004
87F269047AB6626F4CEF78B5132DAE833835132DAE8322E2E3D5FFFFFFB81FFFDC5FFFF269FF17DBA4137194644AEF6598687F2693629233B6688A4418240D1E8BD03970347A2F40E5C9363C2B4A56240D1E8BD0382D1E8BD01ADD22FB6AE2FB68411EADB0DF33BDE2D44CB4EC99C1A89969D9322E2E3D5F
1004
FB81FFFFFFFDC5FFFF589FF17DB4208BEDAB8BEDA136290347A2F40E5C0D1E8BD03970347A2F40E5C0D1E8BD0382068F45E81C168F45E80D6E9FF17DBA411EAD98AA4CEF78B5132E2819C1A8997140C8B8B8F57FEE2FFFFFFFFB8BFFFFFFFF83FE2FB749B1481A3D17A072E068F45E81CBBB0C115D7550ED
1004
2068F45E81C124D8F0AD2958968F45E80D6E9FC99037194644AEF65986AE08F56CE6AA33BDE2B8A065B5D06705C5032DAE8322E2E3D5FFFFFFB81FDC5FFFFFFFF26917DBA41FC99037194644AEF65986AE6C52068F45E81CB81A3D17A072EEC304575D543B481A3D17A07049363C2B4A5625A3D17A035BA5
1004
52DAC754313301C4FE4D208F56CE2CFB33BDE2B8A065B5D06705C5032DAE8322E2E3D5FFFFFFB81FDC5FFFFFFFF26917DBA4154B6B1D50C4CC0713F9349B1481A3D17A072E4676CD1148830481A3D17A072E068F45E81C124D8F0AD2958968F45E80D6E917DB5717DB4208F566F48C677BC57140C935419C
1004
17140C93541917171EAFFFFDC0FFFEE2FFFFFFFFAC48BEDA1045F6D5C5F6D09B1481A3D17A072E4676CD11488304BB0C115D7550ED249B1E15A52B1249B1E15A52B12D1E8BD01ADD3FAC21FCD023D5B3891CCEF78ADAE8324D506705B5D0649AA0C8B8B8F57FFFEE07FFFFFFF703FAC4FEB122FB7483FAC2
1004
1FCD1B14919DB3445220C12068F45E81CBBB0C115D7550ED249B1E15A52B1249B1E15A52B12D1E8BD01ADD3FFFAC4823D5B744CEF78ADAE832D3B26705B5D065A764C8B8B8F57FEE07FFFFF9AFFFDC0FEB13FAC48BEDD20FFFEB126C524676CD11488304919DB3445220C12068F45E81CB926C785694AC49
1004
26C785694AC4B47A2F406B748BEDC87F3408F566F1E677BC526A832D3B267049AA0CB4EC9917171EAFFDC0FFFFFFFEE07FFF589FD6245F6E9045F6E43F9A67911D9E0A
1005
43
  0
INSERT
  8
AME_FRZ
  5
43
  2
AME_NIL
 10
1.0
 20
1.0
 30
1.0
1001
AME_SOL
1004

1005
0
  0
ENDSEC
  0
EOF
