  0
SECTION
  2
HEADER
  9
$ACADVER
  1
AC1009
  9
$INSBASE
 10
0.0
 20
0.0
 30
0.0
  9
$EXTMIN
 10
-1.286421
 20
0.0
 30
0.0
  9
$EXTMAX
 10
3.0
 20
3.0
 30
3.0
  9
$LIMMIN
 10
0.0
 20
0.0
  9
$LIMMAX
 10
12.0
 20
9.0
  9
$ORTHOMODE
 70
     0
  9
$REGENMODE
 70
     1
  9
$FILLMODE
 70
     1
  9
$QTEXTMODE
 70
     0
  9
$MIRRTEXT
 70
     1
  9
$DRAGMODE
 70
     2
  9
$LTSCALE
 40
1.0
  9
$OSMODE
 70
     0
  9
$ATTMODE
 70
     1
  9
$TEXTSIZE
 40
0.2
  9
$TRACEWID
 40
0.05
  9
$TEXTSTYLE
  7
STANDARD
  9
$CLAYER
  8
0
  9
$CELTYPE
  6
BYLAYER
  9
$CECOLOR
 62
   256
  9
$DIMSCALE
 40
1.0
  9
$DIMASZ
 40
0.18
  9
$DIMEXO
 40
0.0625
  9
$DIMDLI
 40
0.38
  9
$DIMRND
 40
0.0
  9
$DIMDLE
 40
0.0
  9
$DIMEXE
 40
0.18
  9
$DIMTP
 40
0.0
  9
$DIMTM
 40
0.0
  9
$DIMTXT
 40
0.18
  9
$DIMCEN
 40
0.09
  9
$DIMTSZ
 40
0.0
  9
$DIMTOL
 70
     0
  9
$DIMLIM
 70
     0
  9
$DIMTIH
 70
     1
  9
$DIMTOH
 70
     1
  9
$DIMSE1
 70
     0
  9
$DIMSE2
 70
     0
  9
$DIMTAD
 70
     0
  9
$DIMZIN
 70
     0
  9
$DIMBLK
  1

  9
$DIMASO
 70
     1
  9
$DIMSHO
 70
     1
  9
$DIMPOST
  1

  9
$DIMAPOST
  1

  9
$DIMALT
 70
     0
  9
$DIMALTD
 70
     2
  9
$DIMALTF
 40
25.4
  9
$DIMLFAC
 40
1.0
  9
$DIMTOFL
 70
     0
  9
$DIMTVP
 40
0.0
  9
$DIMTIX
 70
     0
  9
$DIMSOXD
 70
     0
  9
$DIMSAH
 70
     0
  9
$DIMBLK1
  1

  9
$DIMBLK2
  1

  9
$DIMSTYLE
  2
*UNNAMED
  9
$DIMCLRD
 70
     0
  9
$DIMCLRE
 70
     0
  9
$DIMCLRT
 70
     0
  9
$DIMTFAC
 40
1.0
  9
$DIMGAP
 40
0.09
  9
$LUNITS
 70
     2
  9
$LUPREC
 70
     4
  9
$SKETCHINC
 40
0.1
  9
$FILLETRAD
 40
0.0
  9
$AUNITS
 70
     0
  9
$AUPREC
 70
     0
  9
$MENU
  1
acad
  9
$ELEVATION
 40
0.0
  9
$PELEVATION
 40
0.0
  9
$THICKNESS
 40
0.0
  9
$LIMCHECK
 70
     0
  9
$BLIPMODE
 70
     1
  9
$CHAMFERA
 40
0.0
  9
$CHAMFERB
 40
0.0
  9
$SKPOLY
 70
     0
  9
$TDCREATE
 40
2448820.905733727
  9
$TDUPDATE
 40
2448820.908845382
  9
$TDINDWG
 40
0.0031116551
  9
$TDUSRTIMER
 40
0.0031116551
  9
$USRTIMER
 70
     1
  9
$ANGBASE
 50
0.0
  9
$ANGDIR
 70
     0
  9
$PDMODE
 70
     0
  9
$PDSIZE
 40
0.0
  9
$PLINEWID
 40
0.0
  9
$COORDS
 70
     0
  9
$SPLFRAME
 70
     0
  9
$SPLINETYPE
 70
     6
  9
$SPLINESEGS
 70
     8
  9
$ATTDIA
 70
     0
  9
$ATTREQ
 70
     1
  9
$HANDLING
 70
     1
  9
$HANDSEED
  5
DF
  9
$SURFTAB1
 70
     6
  9
$SURFTAB2
 70
     6
  9
$SURFTYPE
 70
     6
  9
$SURFU
 70
     6
  9
$SURFV
 70
     6
  9
$UCSNAME
  2

  9
$UCSORG
 10
0.0
 20
0.0
 30
0.0
  9
$UCSXDIR
 10
1.0
 20
0.0
 30
0.0
  9
$UCSYDIR
 10
0.0
 20
1.0
 30
0.0
  9
$PUCSNAME
  2

  9
$PUCSORG
 10
0.0
 20
0.0
 30
0.0
  9
$PUCSXDIR
 10
1.0
 20
0.0
 30
0.0
  9
$PUCSYDIR
 10
0.0
 20
1.0
 30
0.0
  9
$USERI1
 70
     0
  9
$USERI2
 70
     0
  9
$USERI3
 70
     0
  9
$USERI4
 70
     0
  9
$USERI5
 70
     0
  9
$USERR1
 40
0.0
  9
$USERR2
 40
0.0
  9
$USERR3
 40
0.0
  9
$USERR4
 40
0.0
  9
$USERR5
 40
0.0
  9
$WORLDVIEW
 70
     1
  9
$SHADEDGE
 70
     3
  9
$SHADEDIF
 70
    70
  9
$TILEMODE
 70
     1
  9
$MAXACTVP
 70
    16
  9
$PINSBASE
 10
0.0
 20
0.0
 30
0.0
  9
$PLIMCHECK
 70
     0
  9
$PEXTMIN
 10
1.000000E+20
 20
1.000000E+20
 30
1.000000E+20
  9
$PEXTMAX
 10
-1.000000E+20
 20
-1.000000E+20
 30
-1.000000E+20
  9
$PLIMMIN
 10
0.0
 20
0.0
  9
$PLIMMAX
 10
12.0
 20
9.0
  9
$UNITMODE
 70
     0
  9
$VISRETAIN
 70
     0
  9
$PLINEGEN
 70
     0
  9
$PSLTSCALE
 70
     0
  9
$TREEDEPTH
 70
  3020
  9
$DWGCODEPAGE
  3
undefined
  0
ENDSEC
  0
SECTION
  2
TABLES
  0
TABLE
  2
VPORT
 70
     2
  0
VPORT
  2
*ACTIVE
 70
     0
 10
0.0
 20
0.0
 11
1.0
 21
1.0
 12
0.998224
 22
0.665156
 13
0.0
 23
0.0
 14
1.0
 24
1.0
 15
0.0
 25
0.0
 16
1.0
 26
2.0
 36
1.0
 17
0.0
 27
0.0
 37
0.0
 40
4.616648
 41
1.594883
 42
50.0
 43
0.0
 44
0.0
 50
0.0
 51
0.0
 71
     0
 72
   100
 73
     1
 74
     1
 75
     0
 76
     0
 77
     0
 78
     0
  0
ENDTAB
  0
TABLE
  2
LTYPE
 70
     1
  0
LTYPE
  2
CONTINUOUS
 70
    64
  3
Solid line
 72
    65
 73
     0
 40
0.0
  0
ENDTAB
  0
TABLE
  2
LAYER
 70
     2
  0
LAYER
  2
0
 70
    64
 62
     7
  6
CONTINUOUS
  0
LAYER
  2
AME_FRZ
 70
    65
 62
     7
  6
CONTINUOUS
  0
ENDTAB
  0
TABLE
  2
STYLE
 70
     1
  0
STYLE
  2
STANDARD
 70
     0
 40
0.0
 41
1.0
 50
0.0
 71
     0
 42
0.2
  3
txt
  4

  0
ENDTAB
  0
TABLE
  2
VIEW
 70
     0
  0
ENDTAB
  0
TABLE
  2
UCS
 70
     0
  0
ENDTAB
  0
TABLE
  2
APPID
 70
     2
  0
APPID
  2
ACAD
 70
    64
  0
APPID
  2
AME_SOL
 70
    64
  0
ENDTAB
  0
TABLE
  2
DIMSTYLE
 70
     0
  0
ENDTAB
  0
ENDSEC
  0
SECTION
  2
BLOCKS
  0
BLOCK
  8
0
  5
31
  2
AME_NIL
 70
    64
 10
0.0
 20
0.0
 30
0.0
  1
AME_NIL
  3
AME_NIL
  0
ENDBLK
  8
0
  5
32
  0
BLOCK
  8
0
  5
34
  2
AME_SOL
 70
    64
 10
0.0
 20
0.0
 30
0.0
  1
AME_SOL
  3
AME_SOL
  0
ENDBLK
  8
0
  5
35
  0
BLOCK
  8
0
  5
37
  2
*U2
 70
    65
 10
0.0
 20
0.0
 30
0.0
  1
*U
  3
*U
  0
LINE
  8
0
 62
     0
  5
38
 10
3.0
 20
1.0
 30
0.0
 11
3.0
 21
1.0
 31
3.0
1001
AME_SOL
1070
     1
1071
       18
  0
LINE
  8
0
 62
     0
  5
39
 10
3.0
 20
1.0
 30
3.0
 11
3.0
 21
0.0
 31
3.0
1001
AME_SOL
1070
     1
1071
       17
  0
LINE
  8
0
 62
     0
  5
3A
 10
0.0
 20
1.0
 30
3.0
 11
3.0
 21
1.0
 31
3.0
1001
AME_SOL
1070
     1
1071
       16
  0
LINE
  8
0
 62
     0
  5
3B
 10
0.0
 20
1.0
 30
0.0
 11
0.0
 21
1.0
 31
3.0
1001
AME_SOL
1070
     1
1071
       15
  0
LINE
  8
0
 62
     0
  5
3C
 10
0.0
 20
1.0
 30
3.0
 11
0.0
 21
0.0
 31
3.0
1001
AME_SOL
1070
     1
1071
       14
  0
LINE
  8
0
 62
     0
  5
3D
 10
0.0
 20
0.0
 30
0.0
 11
0.0
 21
0.0
 31
3.0
1001
AME_SOL
1070
     1
1071
       13
  0
LINE
  8
0
 62
     0
  5
3E
 10
3.0
 20
0.0
 30
3.0
 11
3.0
 21
0.0
 31
0.0
1001
AME_SOL
1070
     1
1071
       12
  0
LINE
  8
0
 62
     0
  5
3F
 10
0.0
 20
0.0
 30
3.0
 11
3.0
 21
0.0
 31
3.0
1001
AME_SOL
1070
     1
1071
       11
  0
LINE
  8
0
 62
     0
  5
40
 10
0.0
 20
0.0
 30
0.0
 11
3.0
 21
0.0
 31
0.0
1001
AME_SOL
1070
     1
1071
       10
  0
LINE
  8
0
 62
     0
  5
41
 10
0.0
 20
1.0
 30
0.0
 11
0.0
 21
0.0
 31
0.0
1001
AME_SOL
1070
     1
1071
        9
  0
LINE
  8
0
 62
     0
  5
42
 10
3.0
 20
0.0
 30
0.0
 11
3.0
 21
1.0
 31
0.0
1001
AME_SOL
1070
     1
1071
        8
  0
LINE
  8
0
 62
     0
  5
43
 10
3.0
 20
1.0
 30
0.0
 11
0.0
 21
1.0
 31
0.0
1001
AME_SOL
1070
     1
1071
        7
  0
ENDBLK
  8
0
  5
44
  0
BLOCK
  8
0
  5
48
  2
*U3
 70
    65
 10
0.0
 20
0.0
 30
0.0
  1
*U
  3
*U
  0
LINE
  8
0
 62
     0
  5
49
 10
1.0
 20
1.0
 30
0.0
 11
1.0
 21
1.0
 31
1.0
1001
AME_SOL
1070
     1
1071
       18
  0
LINE
  8
0
 62
     0
  5
4A
 10
1.0
 20
1.0
 30
1.0
 11
1.0
 21
0.0
 31
1.0
1001
AME_SOL
1070
     1
1071
       17
  0
LINE
  8
0
 62
     0
  5
4B
 10
0.0
 20
1.0
 30
1.0
 11
1.0
 21
1.0
 31
1.0
1001
AME_SOL
1070
     1
1071
       16
  0
LINE
  8
0
 62
     0
  5
4C
 10
0.0
 20
1.0
 30
0.0
 11
0.0
 21
1.0
 31
1.0
1001
AME_SOL
1070
     1
1071
       15
  0
LINE
  8
0
 62
     0
  5
4D
 10
0.0
 20
1.0
 30
1.0
 11
0.0
 21
0.0
 31
1.0
1001
AME_SOL
1070
     1
1071
       14
  0
LINE
  8
0
 62
     0
  5
4E
 10
0.0
 20
0.0
 30
0.0
 11
0.0
 21
0.0
 31
1.0
1001
AME_SOL
1070
     1
1071
       13
  0
LINE
  8
0
 62
     0
  5
4F
 10
1.0
 20
0.0
 30
1.0
 11
1.0
 21
0.0
 31
0.0
1001
AME_SOL
1070
     1
1071
       12
  0
LINE
  8
0
 62
     0
  5
50
 10
0.0
 20
0.0
 30
1.0
 11
1.0
 21
0.0
 31
1.0
1001
AME_SOL
1070
     1
1071
       11
  0
LINE
  8
0
 62
     0
  5
51
 10
0.0
 20
0.0
 30
0.0
 11
1.0
 21
0.0
 31
0.0
1001
AME_SOL
1070
     1
1071
       10
  0
LINE
  8
0
 62
     0
  5
52
 10
0.0
 20
1.0
 30
0.0
 11
0.0
 21
0.0
 31
0.0
1001
AME_SOL
1070
     1
1071
        9
  0
LINE
  8
0
 62
     0
  5
53
 10
1.0
 20
0.0
 30
0.0
 11
1.0
 21
1.0
 31
0.0
1001
AME_SOL
1070
     1
1071
        8
  0
LINE
  8
0
 62
     0
  5
54
 10
1.0
 20
1.0
 30
0.0
 11
0.0
 21
1.0
 31
0.0
1001
AME_SOL
1070
     1
1071
        7
  0
ENDBLK
  8
0
  5
55
  0
BLOCK
  8
0
  5
5A
  2
*U4
 70
    65
 10
0.0
 20
0.0
 30
0.0
  1
*U
  3
*U
  0
LINE
  8
0
 62
     7
  5
5B
 10
3.0
 20
1.0
 30
0.0
 11
3.0
 21
1.0
 31
3.0
1001
AME_SOL
1070
     1
1071
       35
  0
LINE
  8
0
 62
     7
  5
5C
 10
3.0
 20
1.0
 30
3.0
 11
3.0
 21
0.0
 31
3.0
1001
AME_SOL
1070
     1
1071
       34
  0
LINE
  8
0
 62
     7
  5
5D
 10
0.0
 20
1.0
 30
3.0
 11
3.0
 21
1.0
 31
3.0
1001
AME_SOL
1070
     1
1071
       33
  0
LINE
  8
0
 62
     7
  5
5E
 10
0.0
 20
1.0
 30
0.0
 11
0.0
 21
1.0
 31
3.0
1001
AME_SOL
1070
     1
1071
       32
  0
LINE
  8
0
 62
     7
  5
5F
 10
0.0
 20
1.0
 30
3.0
 11
0.0
 21
0.0
 31
3.0
1001
AME_SOL
1070
     1
1071
       31
  0
LINE
  8
0
 62
     7
  5
60
 10
0.0
 20
0.0
 30
0.0
 11
0.0
 21
0.0
 31
3.0
1001
AME_SOL
1070
     1
1071
       30
  0
LINE
  8
0
 62
     7
  5
61
 10
3.0
 20
0.0
 30
3.0
 11
3.0
 21
0.0
 31
0.0
1001
AME_SOL
1070
     1
1071
       29
  0
LINE
  8
0
 62
     7
  5
62
 10
0.0
 20
0.0
 30
3.0
 11
3.0
 21
0.0
 31
3.0
1001
AME_SOL
1070
     1
1071
       28
  0
LINE
  8
0
 62
     7
  5
63
 10
0.0
 20
0.0
 30
0.0
 11
3.0
 21
0.0
 31
0.0
1001
AME_SOL
1070
     1
1071
       27
  0
LINE
  8
0
 62
     7
  5
64
 10
0.0
 20
1.0
 30
0.0
 11
0.0
 21
0.0
 31
0.0
1001
AME_SOL
1070
     1
1071
       26
  0
LINE
  8
0
 62
     7
  5
65
 10
3.0
 20
0.0
 30
0.0
 11
3.0
 21
1.0
 31
0.0
1001
AME_SOL
1070
     1
1071
       25
  0
LINE
  8
0
 62
     7
  5
66
 10
3.0
 20
1.0
 30
0.0
 11
0.0
 21
1.0
 31
0.0
1001
AME_SOL
1070
     1
1071
       24
  0
LINE
  8
0
 62
     7
  5
67
 10
2.0
 20
1.0
 30
2.0
 11
2.0
 21
1.0
 31
1.0
1001
AME_SOL
1070
     1
1071
       23
  0
LINE
  8
0
 62
     7
  5
68
 10
2.0
 20
2.0
 30
1.0
 11
2.0
 21
2.0
 31
2.0
1001
AME_SOL
1070
     1
1071
       22
  0
LINE
  8
0
 62
     7
  5
69
 10
1.0
 20
1.0
 30
2.0
 11
2.0
 21
1.0
 31
2.0
1001
AME_SOL
1070
     1
1071
       21
  0
LINE
  8
0
 62
     7
  5
6A
 10
2.0
 20
2.0
 30
2.0
 11
2.0
 21
1.0
 31
2.0
1001
AME_SOL
1070
     1
1071
       20
  0
LINE
  8
0
 62
     7
  5
6B
 10
1.0
 20
2.0
 30
2.0
 11
2.0
 21
2.0
 31
2.0
1001
AME_SOL
1070
     1
1071
       19
  0
LINE
  8
0
 62
     7
  5
6C
 10
1.0
 20
1.0
 30
1.0
 11
1.0
 21
1.0
 31
2.0
1001
AME_SOL
1070
     1
1071
       18
  0
LINE
  8
0
 62
     7
  5
6D
 10
1.0
 20
2.0
 30
1.0
 11
1.0
 21
2.0
 31
2.0
1001
AME_SOL
1070
     1
1071
       17
  0
LINE
  8
0
 62
     7
  5
6E
 10
1.0
 20
2.0
 30
2.0
 11
1.0
 21
1.0
 31
2.0
1001
AME_SOL
1070
     1
1071
       16
  0
LINE
  8
0
 62
     7
  5
6F
 10
1.0
 20
2.0
 30
1.0
 11
1.0
 21
1.0
 31
1.0
1001
AME_SOL
1070
     1
1071
       15
  0
LINE
  8
0
 62
     7
  5
70
 10
2.0
 20
1.0
 30
1.0
 11
1.0
 21
1.0
 31
1.0
1001
AME_SOL
1070
     1
1071
       14
  0
LINE
  8
0
 62
     7
  5
71
 10
2.0
 20
1.0
 30
1.0
 11
2.0
 21
2.0
 31
1.0
1001
AME_SOL
1070
     1
1071
       13
  0
LINE
  8
0
 62
     7
  5
72
 10
2.0
 20
2.0
 30
1.0
 11
1.0
 21
2.0
 31
1.0
1001
AME_SOL
1070
     1
1071
       12
  0
ENDBLK
  8
0
  5
73
  0
BLOCK
  8
0
  5
77
  2
*U5
 70
    65
 10
0.0
 20
0.0
 30
0.0
  1
*U
  3
*U
  0
POLYLINE
  8
0
 62
     7
  5
78
 66
     1
 10
0.0
 20
0.0
 30
0.0
 70
    64
  0
VERTEX
  8
0
  5
79
 10
3.0
 20
1.0
 30
0.0
 70
   192
  0
VERTEX
  8
0
  5
7A
 10
3.0
 20
1.0
 30
3.0
 70
   192
  0
VERTEX
  8
0
  5
7B
 10
3.0
 20
0.0
 30
3.0
 70
   192
  0
VERTEX
  8
0
  5
7C
 10
3.0
 20
0.0
 30
0.0
 70
   192
  0
VERTEX
  8
0
 62
     7
  5
7D
 10
0.0
 20
0.0
 30
0.0
 70
   128
 71
     1
 72
     2
 73
    -3
  0
VERTEX
  8
0
 62
     7
  5
7E
 10
0.0
 20
0.0
 30
0.0
 70
   128
 71
     3
 72
     4
 73
    -1
  0
SEQEND
  8
0
 62
     7
  5
7F
  0
POLYLINE
  8
0
 62
     7
  5
80
 66
     1
 10
0.0
 20
0.0
 30
0.0
 70
    64
  0
VERTEX
  8
0
  5
81
 10
2.0
 20
1.0
 30
1.0
 70
   192
  0
VERTEX
  8
0
  5
82
 10
2.0
 20
1.0
 30
2.0
 70
   192
  0
VERTEX
  8
0
  5
83
 10
3.0
 20
1.0
 30
0.0
 70
   192
  0
VERTEX
  8
0
  5
84
 10
3.0
 20
1.0
 30
3.0
 70
   192
  0
VERTEX
  8
0
  5
85
 10
1.0
 20
1.0
 30
2.0
 70
   192
  0
VERTEX
  8
0
  5
86
 10
1.0
 20
1.0
 30
1.0
 70
   192
  0
VERTEX
  8
0
  5
87
 10
0.0
 20
1.0
 30
0.0
 70
   192
  0
VERTEX
  8
0
  5
88
 10
0.0
 20
1.0
 30
3.0
 70
   192
  0
VERTEX
  8
0
 62
     7
  5
89
 10
0.0
 20
0.0
 30
0.0
 70
   128
 71
     1
 72
    -2
 73
    -3
  0
VERTEX
  8
0
 62
     7
  5
8A
 10
0.0
 20
0.0
 30
0.0
 70
   128
 71
    -2
 72
     4
 73
    -3
  0
VERTEX
  8
0
 62
     7
  5
8B
 10
0.0
 20
0.0
 30
0.0
 70
   128
 71
     2
 72
    -5
 73
    -4
  0
VERTEX
  8
0
 62
     7
  5
8C
 10
0.0
 20
0.0
 30
0.0
 70
   128
 71
    -3
 72
     6
 73
    -1
  0
VERTEX
  8
0
 62
     7
  5
8D
 10
0.0
 20
0.0
 30
0.0
 70
   128
 71
     3
 72
    -7
 73
    -6
  0
VERTEX
  8
0
 62
     7
  5
8E
 10
0.0
 20
0.0
 30
0.0
 70
   128
 71
    -5
 72
     8
 73
    -4
  0
VERTEX
  8
0
 62
     7
  5
8F
 10
0.0
 20
0.0
 30
0.0
 70
   128
 71
    -5
 72
     7
 73
    -8
  0
VERTEX
  8
0
 62
     7
  5
90
 10
0.0
 20
0.0
 30
0.0
 70
   128
 71
     5
 72
    -6
 73
    -7
  0
SEQEND
  8
0
 62
     7
  5
91
  0
POLYLINE
  8
0
 62
     7
  5
92
 66
     1
 10
0.0
 20
0.0
 30
0.0
 70
    64
  0
VERTEX
  8
0
  5
93
 10
3.0
 20
0.0
 30
3.0
 70
   192
  0
VERTEX
  8
0
  5
94
 10
3.0
 20
1.0
 30
3.0
 70
   192
  0
VERTEX
  8
0
  5
95
 10
0.0
 20
0.0
 30
3.0
 70
   192
  0
VERTEX
  8
0
  5
96
 10
0.0
 20
1.0
 30
3.0
 70
   192
  0
VERTEX
  8
0
 62
     7
  5
97
 10
0.0
 20
0.0
 30
0.0
 70
   128
 71
     1
 72
    -2
 73
     3
  0
VERTEX
  8
0
 62
     7
  5
98
 10
0.0
 20
0.0
 30
0.0
 70
   128
 71
     2
 72
     4
 73
    -3
  0
SEQEND
  8
0
 62
     7
  5
99
  0
POLYLINE
  8
0
 62
     7
  5
9A
 66
     1
 10
0.0
 20
0.0
 30
0.0
 70
    64
  0
VERTEX
  8
0
  5
9B
 10
0.0
 20
0.0
 30
0.0
 70
   192
  0
VERTEX
  8
0
  5
9C
 10
0.0
 20
1.0
 30
3.0
 70
   192
  0
VERTEX
  8
0
  5
9D
 10
0.0
 20
1.0
 30
0.0
 70
   192
  0
VERTEX
  8
0
  5
9E
 10
0.0
 20
0.0
 30
3.0
 70
   192
  0
VERTEX
  8
0
 62
     7
  5
9F
 10
0.0
 20
0.0
 30
0.0
 70
   128
 71
    -1
 72
     2
 73
     3
  0
VERTEX
  8
0
 62
     7
  5
A0
 10
0.0
 20
0.0
 30
0.0
 70
   128
 71
     1
 72
     4
 73
    -2
  0
SEQEND
  8
0
 62
     7
  5
A1
  0
POLYLINE
  8
0
 62
     7
  5
A2
 66
     1
 10
0.0
 20
0.0
 30
0.0
 70
    64
  0
VERTEX
  8
0
  5
A3
 10
3.0
 20
0.0
 30
3.0
 70
   192
  0
VERTEX
  8
0
  5
A4
 10
0.0
 20
0.0
 30
3.0
 70
   192
  0
VERTEX
  8
0
  5
A5
 10
0.0
 20
0.0
 30
0.0
 70
   192
  0
VERTEX
  8
0
  5
A6
 10
3.0
 20
0.0
 30
0.0
 70
   192
  0
VERTEX
  8
0
 62
     7
  5
A7
 10
0.0
 20
0.0
 30
0.0
 70
   128
 71
     1
 72
     2
 73
    -3
  0
VERTEX
  8
0
 62
     7
  5
A8
 10
0.0
 20
0.0
 30
0.0
 70
   128
 71
     3
 72
     4
 73
    -1
  0
SEQEND
  8
0
 62
     7
  5
A9
  0
POLYLINE
  8
0
 62
     7
  5
AA
 66
     1
 10
0.0
 20
0.0
 30
0.0
 70
    64
  0
VERTEX
  8
0
  5
AB
 10
3.0
 20
1.0
 30
0.0
 70
   192
  0
VERTEX
  8
0
  5
AC
 10
3.0
 20
0.0
 30
0.0
 70
   192
  0
VERTEX
  8
0
  5
AD
 10
0.0
 20
0.0
 30
0.0
 70
   192
  0
VERTEX
  8
0
  5
AE
 10
0.0
 20
1.0
 30
0.0
 70
   192
  0
VERTEX
  8
0
 62
     7
  5
AF
 10
0.0
 20
0.0
 30
0.0
 70
   128
 71
     1
 72
     2
 73
    -3
  0
VERTEX
  8
0
 62
     7
  5
B0
 10
0.0
 20
0.0
 30
0.0
 70
   128
 71
     3
 72
     4
 73
    -1
  0
SEQEND
  8
0
 62
     7
  5
B1
  0
POLYLINE
  8
0
 62
     7
  5
B2
 66
     1
 10
0.0
 20
0.0
 30
0.0
 70
    64
  0
VERTEX
  8
0
  5
B3
 10
2.0
 20
1.0
 30
2.0
 70
   192
  0
VERTEX
  8
0
  5
B4
 10
2.0
 20
1.0
 30
1.0
 70
   192
  0
VERTEX
  8
0
  5
B5
 10
2.0
 20
2.0
 30
2.0
 70
   192
  0
VERTEX
  8
0
  5
B6
 10
2.0
 20
2.0
 30
1.0
 70
   192
  0
VERTEX
  8
0
 62
     7
  5
B7
 10
0.0
 20
0.0
 30
0.0
 70
   128
 71
     1
 72
    -2
 73
     3
  0
VERTEX
  8
0
 62
     7
  5
B8
 10
0.0
 20
0.0
 30
0.0
 70
   128
 71
     2
 72
     4
 73
    -3
  0
SEQEND
  8
0
 62
     7
  5
B9
  0
POLYLINE
  8
0
 62
     7
  5
BA
 66
     1
 10
0.0
 20
0.0
 30
0.0
 70
    64
  0
VERTEX
  8
0
  5
BB
 10
1.0
 20
2.0
 30
1.0
 70
   192
  0
VERTEX
  8
0
  5
BC
 10
2.0
 20
2.0
 30
2.0
 70
   192
  0
VERTEX
  8
0
  5
BD
 10
2.0
 20
2.0
 30
1.0
 70
   192
  0
VERTEX
  8
0
  5
BE
 10
1.0
 20
2.0
 30
2.0
 70
   192
  0
VERTEX
  8
0
 62
     7
  5
BF
 10
0.0
 20
0.0
 30
0.0
 70
   128
 71
    -1
 72
     2
 73
     3
  0
VERTEX
  8
0
 62
     7
  5
C0
 10
0.0
 20
0.0
 30
0.0
 70
   128
 71
     1
 72
     4
 73
    -2
  0
SEQEND
  8
0
 62
     7
  5
C1
  0
POLYLINE
  8
0
 62
     7
  5
C2
 66
     1
 10
0.0
 20
0.0
 30
0.0
 70
    64
  0
VERTEX
  8
0
  5
C3
 10
2.0
 20
1.0
 30
2.0
 70
   192
  0
VERTEX
  8
0
  5
C4
 10
2.0
 20
2.0
 30
2.0
 70
   192
  0
VERTEX
  8
0
  5
C5
 10
1.0
 20
2.0
 30
2.0
 70
   192
  0
VERTEX
  8
0
  5
C6
 10
1.0
 20
1.0
 30
2.0
 70
   192
  0
VERTEX
  8
0
 62
     7
  5
C7
 10
0.0
 20
0.0
 30
0.0
 70
   128
 71
     1
 72
     2
 73
    -3
  0
VERTEX
  8
0
 62
     7
  5
C8
 10
0.0
 20
0.0
 30
0.0
 70
   128
 71
     3
 72
     4
 73
    -1
  0
SEQEND
  8
0
 62
     7
  5
C9
  0
POLYLINE
  8
0
 62
     7
  5
CA
 66
     1
 10
0.0
 20
0.0
 30
0.0
 70
    64
  0
VERTEX
  8
0
  5
CB
 10
1.0
 20
2.0
 30
2.0
 70
   192
  0
VERTEX
  8
0
  5
CC
 10
1.0
 20
2.0
 30
1.0
 70
   192
  0
VERTEX
  8
0
  5
CD
 10
1.0
 20
1.0
 30
1.0
 70
   192
  0
VERTEX
  8
0
  5
CE
 10
1.0
 20
1.0
 30
2.0
 70
   192
  0
VERTEX
  8
0
 62
     7
  5
CF
 10
0.0
 20
0.0
 30
0.0
 70
   128
 71
     1
 72
     2
 73
    -3
  0
VERTEX
  8
0
 62
     7
  5
D0
 10
0.0
 20
0.0
 30
0.0
 70
   128
 71
     3
 72
     4
 73
    -1
  0
SEQEND
  8
0
 62
     7
  5
D1
  0
POLYLINE
  8
0
 62
     7
  5
D2
 66
     1
 10
0.0
 20
0.0
 30
0.0
 70
    64
  0
VERTEX
  8
0
  5
D3
 10
2.0
 20
2.0
 30
1.0
 70
   192
  0
VERTEX
  8
0
  5
D4
 10
2.0
 20
1.0
 30
1.0
 70
   192
  0
VERTEX
  8
0
  5
D5
 10
1.0
 20
2.0
 30
1.0
 70
   192
  0
VERTEX
  8
0
  5
D6
 10
1.0
 20
1.0
 30
1.0
 70
   192
  0
VERTEX
  8
0
 62
     7
  5
D7
 10
0.0
 20
0.0
 30
0.0
 70
   128
 71
     1
 72
    -2
 73
     3
  0
VERTEX
  8
0
 62
     7
  5
D8
 10
0.0
 20
0.0
 30
0.0
 70
   128
 71
     2
 72
     4
 73
    -3
  0
SEQEND
  8
0
 62
     7
  5
D9
  0
ENDBLK
  8
0
  5
DA
  0
BLOCK
  8
0
  5
DC
  2
AME_MAT
 70
    64
 10
0.0
 20
0.0
 30
0.0
  1
AME_MAT
  3
AME_MAT
  0
ENDBLK
  8
0
  5
DD
  0
ENDSEC
  0
SECTION
  2
ENTITIES
  0
INSERT
  8
AME_FRZ
  5
33
  2
AME_NIL
 10
0.0
 20
0.0
 30
0.0
  0
INSERT
  8
AME_FRZ
  5
36
  2
AME_SOL
 10
0.0
 20
0.0
 30
0.0
1001
AME_SOL
1000
1.0
1000
sq cm
1070
     3
1070
     0
1070
     3
1000
wire
1040
0.0
1000
NONE
1040
1.0
1000
cm
1000
gm
1000
MILD_STEEL
1070
    25
1000
CSG
1070
     3
1070
     2
1070
     3
1000
cu cm
1070
     4
1070
     0
1005
33
  0
INSERT
  8
AME_FRZ
  5
45
  2
*U2
 10
0.0
 20
0.0
 30
0.0
1001
AME_SOL
1002
{
1070
     0
1071
  1976568
1070
  1536
1010
3.0
1020
1.0
1030
3.0
1005
0
1005
0
1005
74
1040
0.0
1040
1.0
1000
MILD_STEEL
1000
0
1010
0.0
1020
0.0
1030
0.0
1010
0.0
1020
0.0
1030
1.0
1040
0.0
1002
}
  0
INSERT
  8
AME_FRZ
  5
56
  2
*U3
 10
1.0
 20
1.0
 30
1.0
1001
AME_SOL
1002
{
1070
     0
1071
  1923248
1070
  1536
1010
1.0
1020
1.0
1030
1.0
1005
0
1005
0
1005
74
1040
0.0
1040
1.0
1000
MILD_STEEL
1000
0
1010
1.0
1020
1.0
1030
1.0
1010
0.0
1020
0.0
1030
1.0
1040
0.0
1002
}
  0
INSERT
  8
0
  5
74
  2
*U5
 10
0.0
 20
0.0
 30
0.0
1001
AME_SOL
1002
{
1070
     0
1071
  1993536
1070
  9223
1070
     2
1005
45
1005
56
1005
DB
1005
75
1005
0
1040
34.0
1040
1.0
1000
MILD_STEEL
1000
0
1002
}
  0
INSERT
  8
AME_FRZ
  5
75
  2
AME_NIL
 10
1.0
 20
1.0
 30
1.0
1001
AME_SOL
1004
E903A9FB0100F0FFFFFF000052F70B0001000000197C0BBA197C0BBA197C0BBAB808404000060040B808404001000000FBF2040000E87F3F00E87F3F00E87F3F0006004000060040000C803F0100844E102D1E00010000000100CE000000844E0000000000000000803F000000000000803F000000000000
1004
00000000803F0000803F0000803F05000000000000000000000000000000000000000000844E0000000000000000803F000000000000803F00000000000000000000803F0000803F0000803F05000000000000000000000000000000000001000000FBF2040000E87F3F00E87F3F00E87F3F000C803F0006
1004
0040000600400100844E48301E00010000000100CC000000844E000000000000000000000000803F000000000000803F000000000000803F0000803F0000803F05000000000000000000000000000000000000000000844E000000000000000000000000803F000000000000803F000000000000803F0000
1004
803F0000803F05000000000000000000000000000000000001000000FBF2040000E87F3F00E87F3F00F4FF3F0006004000060040000600400100844E60571E00010000000100CB000000844E0000000080BF000000800000008000000080000080BF00000080000000400000004000000040050000000000
1004
00000000000000000000000000000000844E0000000080BF000000800000008000000080000080BF0000008000000040000000400000004005000000000000000000000000000000000001000000FBF2040000E87F3F00F4FF3F00E87F3F0006004000060040000600400100844E10591E00010000000100
1004
CA000000844E00000000008000000080000080BF000080BF000000800000008000000040000000400000004005000000000000000000000000000000000000000000844E00000000008000000080000080BF000080BF00000080000000800000004000000040000000400500000000000000000000000000
1004
0000000001000000FBF2040000F4FF3F00E87F3F00E87F3F0006004000060040000600400100844EF0571E00010000000100C9000000844E000000000080000080BF000000800000008000000080000080BF00000040000000400000004005000000000000000000000000000000000000000000844E0000
1004
00000080000080BF000000800000008000000080000080BF00000040000000400000004005000000000000000000000000000000000001000000FBF20400197C0BBA197C0BBA197C0BBAB80840406F11803F197C0B3A0100844EE05B1E0001000000010032010000844E0000000000000000803F00000000
1004
0000803F000000000000000000000000000000000000000005000000000000000000000000000000000000000000844E0000000000000000803F000000000000803F000000000000000000000000000000000000000005000000000000000000000000000000000001000000FBF20400197C0BBA197C0BBA
1004
197C0BBAB8084040197C0B3AB80840400100844E908C1E0001000000010031010000844E00000000803F000000000000000000000000000000000000803F00000000000000000000000005000000000000000000000000000000000000000000844E00000000803F00000000000000000000000000000000
1004
0000803F00000000000000000000000005000000000000000000000000000000000001000000FBF20400197C0BBA197C0BBA197C0BBA197C0B3A6F11803FB80840400100844E188A1E0001000000010030010000844E000000000000000000000000803F000000000000803F000000000000000000000000
1004
0000000005000000000000000000000000000000000000000000844E000000000000000000000000803F000000000000803F0000000000000000000000000000000005000000000000000000000000000000000001000000FBF20400197C0BBA197C0BBA48F73F40B80840406F11803FB80840400100844E
1004
D08E1E000100000001002F010000844E0000000080BF000000800000008000000080000080BF00000080000040400000803F0000404005000000000000000000000000000000000000000000844E0000000080BF000000800000008000000080000080BF00000080000040400000803F0000404005000000
1004
000000000000000000000000000001000000FBF20800197C0BBA22DD7F3F197C0BBAB80840406F11803FB80840400100844EA06A1E000100000001002E010000844E00000000008000000080000080BF000080BF0000008000000080000040400000803F0000404005000000000000000000000000000000
1004
000000000000844E00000000008000000080000080BF000080BF0000008000000080000040400000803F0000404005000000000000000000000000000000000001000000FBF2040048F73F40197C0BBA197C0BBAB80840406F11803FB80840400100844E505B1E000100000001002D010000844E00000000
1004
0080000080BF000000800000008000000080000080BF000040400000803F0000404005000000000000000000000000000000000000000000844E000000000080000080BF000000800000008000000080000080BF000040400000803F0000404005000000000000000000000000000000000001000000A4EE
1004
00E87F3F00F4FF3F00E87F3F0006004000060040000C803F010000BFFFFFFF3E0200967518711E000000FFFF0100102D1E0010591E0000000200102D1E0010591E00010000000100000096750000000000000000803F000000000000000000000000000080BF0000C03F000000400000803F0200010000BF
1004
FFFFFF3EA4EE00F4FF3F00E87F3F00E87F3F0006004000060040000C803FFFFFFFBE0100003F02009675D86E1E000000FFFF0100102D1E00F0571E0000000200102D1E00F0571E000100000001000000967500000000803F00000000000000000000000000000000000080BF000000400000C03F0000803F
1004
0200FFFFFFBE0100003FA4EE00E87F3F00E87F3F00E87F3F000600406F11803F000C803F000040B4FDFF7F3F02009675286D1E0000000100FFFF102D1E00A06A1E0000000200A06A1E00102D1E00010000000100000096750000000000000000803F000000000000000000000000000080BFFFFFFF3F0000
1004
803F0000803F0200000040B4FDFF7F3FA4EE00E87F3F00E87F3F00E87F3F000C803F00060040000C803F000080BF0000000002009675506C1E000000FFFF0100102D1E0048301E0000000200102D1E0048301E00010000000100000096750000000080BF00000000000000000000000000000000000080BF
1004
0000803F0000803F0000803F0200000080BF00000000A4EE00E87F3F00E87F3F00F4FF3F000C803F0006004000060040010000BFFFFFFF3E02009675B0321E000000FFFF010048301E0060571E000000020048301E0060571E0001000000010000009675000000000000000000000000803F000080BF0000
1004
0000000000000000803F0000C03F000000400200010000BFFFFFFF3EA4EE00E87F3F00F4FF3F00E87F3F000C803F0006004000060040FFFFFFBE0100003F0200967580C81D000000FFFF010048301E0010591E000000020048301E0010591E00010000000100000096750000000000000000803F00000000
1004
000080BF00000000000000000000803F000000400000C03F0200FFFFFFBE0100003FA4EE00E87F3F00E87F3F00E87F3F000C803F6F11803F00060040FDFF7FBF0000403402009675405C1C0000000100FFFF48301E00A06A1E0000000200A06A1E0048301E00010000000100000096750000000000000000
1004
803F00000000000080BF00000000000000000000803F0000803FFFFFFF3F0200FDFF7FBF00004034A4EE00E87F3F00F4FF3F00F4FF3F000600400006004000060040000080BF0000008002009675005D1C000000FFFF010060571E0010591E000000020060571E0010591E00010000000100000096750000
1004
000000000000803F0000000000000000000000000000803F0000004000000040000000400200000080BF00000080A4EE00F4FF3F00E87F3F00F4FF3F000600400006004000060040000000000000803F0200967570451D000000FFFF010060571E00F0571E000000020060571E00F0571E00010000000100
1004
0000967500000000803F000000000000000000000080000000000000803F0000004000000040000000400200000000000000803FA4EE00E87F3F00E87F3F00F4FF3F000600406F11803F000600400000C0BF010000BF0200967520471D0000000100FFFF60571E00A06A1E0000000200A06A1E0060571E00
1004
010000000100000096750000000000000000803F0000000000000000000000000000803F000020400000803F0000004002000000C0BF010000BFA4EE00F4FF3F00F4FF3F00E87F3F000600400006004000060040000080BF000000800200967560491D000000FFFF010010591E00F0571E00000002001059
1004
1E00F0571E000100000001000000967500000000803F0000000000000000000000000000803F000000000000004000000040000000400200000080BF00000080A4EE00F4FF3F00E87F3F00E87F3F000600406F11803F000600400100003F0000C03F02009675084D1D0000000100FFFFF0571E00A06A1E00
1004
00000200A06A1E00F0571E00010000000100000096750000000000000000803F000000000000803F0000008000000000000000400000803F0000204002000100003F0000C03FA4EE197C0BBA22DD7F3F197C0BBAB80840406F11803F197C0B3A0000C0BF0000C03F0200967568501D000000FFFF0100E05B
1004
1E00A06A1E0000000200E05B1E00A06A1E00010000000100000096750000000000000000803F000000000000000000000000000080BF0000C03F0000803F0000000002000000C0BF0000C03FA4EE48F73F40197C0BBA197C0BBAB80840406F11803F197C0B3A000000BF0000003F02009675D0511D000000
1004
FFFF0100E05B1E00505B1E0000000200E05B1E00505B1E000100000001000000967500000000803F00000000000000000000000000000000000080BF000040400000003F000000000200000000BF0000003FA4EE197C0BBA197C0BBA197C0BBA197C0B3A6F11803F197C0B3A000080BF0000008002009675
1004
08561D000000FFFF0100E05B1E00188A1E0000000200E05B1E00188A1E00010000000100000096750000000080BF00000000000000000000000000000000000080BF0000000000000000000000000200000080BF00000080A4EE197C0BBA197C0BBA197C0BBAB8084040197C0B3A197C0B3A000000000000
1004
40400200967588511D000000FFFF0100E05B1E00908C1E0000000200E05B1E00908C1E0001000000010000009675000000000000000080BF000000000000000000000000000080BF00000000000000000000000002000000000000004040A4EE197C0BBA197C0BBA48F73F40B8084040197C0B3AB8084040
1004
0000C0BF0000C03F02009675B0471D000000FFFF0100908C1E00D08E1E0000000200908C1E00D08E1E0001000000010000009675000000000000000000000000803F00000000000080BF000000000000C03F000000000000404002000000C0BF0000C03FA4EE48F73F40197C0BBA197C0BBAB8084040197C
1004
0B3AB80840400000C0BF0000C03F02009675A0421D000000FFFF0100908C1E00505B1E0000000200908C1E00505B1E000100000001000000967500000000803F000000000000000000000000000080BF0000000000004040000000000000C03F02000000C0BF0000C03FA4EE197C0BBA197C0BBA197C0BBA
1004
197C0B3A197C0B3AB808404000000000000040400200967560401D000000FFFF0100908C1E00188A1E0000000200908C1E00188A1E00010000000100000096750000000080BF000000000000000000000000000080BF0000000000000000000000000000000002000000000000004040A4EE197C0BBA197C
1004
0BBA48F73F40197C0B3A6F11803FB8084040000000BF0000003F02009675685B1D000000FFFF0100188A1E00D08E1E0000000200188A1E00D08E1E0001000000010000009675000000000000000000000000803F000080BF0000000000000000000000000000003F000040400200000000BF0000003FA4EE
1004
197C0BBA22DD7F3F197C0BBA197C0B3A6F11803FB80840400000C0BF0000C03F0200967510631C000000FFFF0100188A1E00A06A1E0000000200188A1E00A06A1E00010000000100000096750000000000000000803F00000000000080BF0000000000000000000000000000803F0000C03F02000000C0BF
1004
0000C03FA4EE197C0BBA22DD7F3F48F73F40B80840406F11803FB8084040000040C00000008002009675705D1C000000FFFF0100D08E1E00A06A1E0000000200D08E1E00A06A1E00010000000100000096750000000000000000803F0000000000000000000000000000803F000040400000803F00004040
1004
0200000040C000000080A4EE48F73F40197C0BBA48F73F40B80840406F11803FB8084040000000000000803F02009675286D1D000000FFFF0100D08E1E00505B1E0000000200D08E1E00505B1E000100000001000000967500000000803F000000000000000000000080000000000000803F000040400000
1004
803F000040400200000000000000803FA4EE48F73F4022DD7F3F197C0BBAB80840406F11803FB8084040000040C00000008002009675A8691D000000FFFF0100A06A1E00505B1E0000000200A06A1E00505B1E000100000001000000967500000000803F0000000000000000000000000000803F00000000
1004
000040400000803F000040400200000040C00000008019FC
1005
76
  0
INSERT
  8
AME_FRZ
  5
76
  2
AME_NIL
 10
1.0
 20
1.0
 30
1.0
1001
AME_SOL
1004

1005
0
  0
INSERT
  8
AME_FRZ
  5
DB
  2
*U4
 10
0.0
 20
0.0
 30
0.0
  0
INSERT
  8
AME_FRZ
  5
DE
  2
AME_MAT
 10
0.0
 20
0.0
 30
0.0
1001
AME_SOL
1000
MILD_STEEL
1040
7860.0
1040
220.0
1040
0.275
1040
207.0
1040
345.0
1040
56.0
1040
12.0
1040
0.46
  0
ENDSEC
  0
EOF
