600 0 1 0           
83 GICL ACIS Healer - Source: /gicl/data5/repository/UMD/goodpart3/goodpart3.sat - 6 0 18 ACIS 6.0.3 Solaris 24 Sun Apr 14 00:34:37 2002 
1 9.999999999999999547e-07 1.000000000000000036e-10 
body $-1 $1 $-1 $-1 #
lump $-1 $-1 $2 $0 #
shell $-1 $-1 $-1 $3 $-1 $1 #
face $-1 $4 $5 $2 $-1 $6 forward single #
face $-1 $7 $8 $2 $-1 $9 reversed single #
loop $-1 $-1 $10 $3 #
cone-surface $-1 -45 0 10 -0 1 -0 3.535533905932739973 0 3.535533905932739973 1 I I 0 -1 5.000000000000003553 forward I I I I #
face $-1 $11 $12 $2 $-1 $13 forward single #
loop $-1 $-1 $14 $4 #
plane-surface $-1 -50 0 15 0 0 1 1 0 0 forward_v I I I I #
coedge $-1 $15 $16 $17 $18 forward $5 $-1 #
face $-1 $19 $20 $2 $-1 $21 forward single #
loop $-1 $-1 $22 $7 #
cone-surface $-1 -45 0 -10 0 -1 -0 3.535533905932739973 0 -3.535533905932739973 1 I I 0 -1 5.000000000000003553 forward I I I I #
coedge $-1 $23 $24 $25 $26 reversed $8 $-1 #
coedge $-1 $25 $10 $27 $28 reversed $5 $-1 #
coedge $-1 $10 $25 $29 $30 reversed $5 $-1 #
coedge $-1 $31 $32 $10 $18 reversed $33 $-1 #
edge $-1 $34 -25 $35 25 $17 $36 forward 7 unknown #
face $-1 $37 $38 $2 $-1 $39 forward single #
loop $-1 $-1 $40 $11 #
plane-surface $-1 -50 0 -15 0 0 1 1 0 0 forward_v I I I I #
coedge $-1 $41 $42 $43 $44 forward $12 $-1 #
coedge $-1 $45 $14 $46 $47 reversed $8 $-1 #
coedge $-1 $14 $45 $48 $49 reversed $8 $-1 #
coedge $-1 $16 $15 $14 $26 forward $5 $-1 #
edge $-1 $50 -25 $51 25 $14 $52 forward 7 unknown #
coedge $-1 $53 $46 $15 $28 forward $54 $-1 #
edge $-1 $50 -0.785398163397448279 $35 0.785398163397448279 $27 $55 forward 7 unknown #
coedge $-1 $48 $56 $16 $30 forward $57 $-1 #
edge $-1 $34 -0.785398163397448279 $51 0.785398163397448279 $29 $58 forward 7 unknown #
coedge $-1 $43 $17 $56 $59 reversed $33 $-1 #
coedge $-1 $17 $43 $53 $60 reversed $33 $-1 #
loop $-1 $-1 $17 $61 #
vertex $-1 $59 $62 #
vertex $-1 $60 $63 #
straight-curve $-1 -40 0 10 -0 -1 -0 I I #
face $-1 $64 $65 $2 $-1 $66 reversed single #
loop $-1 $-1 $67 $19 #
cone-surface $-1 -15 0 -35 -0 -1 0 -3.535533905932739973 0 3.535533905932739973 1 I I 0 -1 5.000000000000003553 forward I I I I #
coedge $-1 $68 $69 $70 $71 reversed $20 $-1 #
coedge $-1 $70 $22 $72 $73 reversed $12 $-1 #
coedge $-1 $22 $70 $74 $75 reversed $12 $-1 #
coedge $-1 $32 $31 $22 $44 reversed $33 $-1 #
edge $-1 $76 -25 $77 25 $43 $78 forward 7 unknown #
coedge $-1 $24 $23 $79 $80 reversed $8 $-1 #
coedge $-1 $27 $81 $23 $47 forward $54 $-1 #
edge $-1 $82 -35 $50 -20 $46 $83 forward 7 unknown #
coedge $-1 $84 $29 $24 $49 forward $57 $-1 #
edge $-1 $51 20 $85 35 $48 $86 forward 7 unknown #
vertex $-1 $47 $87 #
vertex $-1 $49 $88 #
straight-curve $-1 -45 0 15 0 1 0 I I #
coedge $-1 $74 $27 $32 $60 forward $54 $-1 #
loop $-1 $-1 $46 $89 #
ellipse-curve $-1 -45 -25 10 0 1 -0 3.535533905932739973 0 3.535533905932739973 1 I I #
coedge $-1 $29 $72 $31 $59 forward $57 $-1 #
loop $-1 $-1 $48 $90 #
ellipse-curve $-1 -45 25 10 0 -1 0 3.535533905932739973 0 3.535533905932739973 1 I I #
edge $-1 $77 -10 $34 10 $56 $91 forward 7 unknown #
edge $-1 $35 -10 $76 10 $53 $92 forward 7 unknown #
face $-1 $93 $33 $2 $-1 $94 forward single #
point $-1 -40 25 10 #
point $-1 -40 -25 10 #
face $-1 $95 $96 $2 $-1 $97 forward single #
loop $-1 $98 $99 $37 #
plane-surface $-1 0 0 -30 0 0 1 1 0 0 forward_v I I I I #
coedge $-1 $100 $101 $102 $103 forward $38 $-1 #
coedge $-1 $104 $40 $105 $106 reversed $20 $-1 #
coedge $-1 $40 $104 $107 $108 reversed $20 $-1 #
coedge $-1 $42 $41 $40 $71 forward $12 $-1 #
edge $-1 $109 -25 $110 25 $40 $111 forward 7 unknown #
coedge $-1 $56 $105 $41 $73 forward $57 $-1 #
edge $-1 $109 -0.785398163397448279 $77 0.785398163397448279 $72 $112 forward 7 unknown #
coedge $-1 $107 $53 $42 $75 forward $54 $-1 #
edge $-1 $76 -0.785398163397448279 $110 0.785398163397448279 $74 $113 forward 7 unknown #
vertex $-1 $60 $114 #
vertex $-1 $59 $115 #
straight-curve $-1 -40 0 -10 0 1 0 I I #
coedge $-1 $116 $117 $45 $80 forward $118 $-1 #
edge $-1 $85 -25 $82 25 $79 $119 forward 7 unknown #
coedge $-1 $46 $120 $116 $121 forward $54 $-1 #
vertex $-1 $121 $122 #
straight-curve $-1 -25 -25 15 1 -0 0 I I #
coedge $-1 $123 $48 $117 $124 reversed $57 $-1 #
vertex $-1 $124 $125 #
straight-curve $-1 -25 25 15 -1 0 0 I I #
point $-1 -45 -25 15 #
point $-1 -45 25 15 #
face $-1 $126 $54 $2 $-1 $127 reversed single #
face $-1 $128 $57 $2 $-1 $129 reversed single #
straight-curve $-1 -40 25 0 0 0 1 I I #
straight-curve $-1 -40 -25 0 -0 0 -1 I I #
face $-1 $130 $131 $2 $-1 $132 reversed single #
plane-surface $-1 -40 0 0 -1 0 0 0 0 1 forward_v I I I I #
face $-1 $133 $134 $2 $-1 $135 forward single #
loop $-1 $-1 $136 $64 #
cone-surface $-1 15 0 -35 -0 1 -0 3.535533905932739973 0 3.535533905932739973 1 I I 0 -1 5.000000000000003553 forward I I I I #
loop $-1 $-1 $137 $37 #
coedge $-1 $99 $99 $138 $139 forward $65 $-1 #
coedge $-1 $140 $67 $141 $142 forward $38 $-1 #
coedge $-1 $67 $143 $144 $145 reversed $38 $-1 #
coedge $-1 $146 $147 $67 $103 reversed $148 $-1 #
edge $-1 $149 -25 $150 -3.4914813388431302e-14 $102 $151 forward 7 unknown #
coedge $-1 $69 $68 $152 $153 reversed $20 $-1 #
coedge $-1 $72 $154 $68 $106 forward $57 $-1 #
edge $-1 $155 -35 $109 -20 $105 $156 forward 7 unknown #
coedge $-1 $157 $74 $69 $108 forward $54 $-1 #
edge $-1 $110 20 $158 35 $107 $159 forward 7 unknown #
vertex $-1 $106 $160 #
vertex $-1 $108 $161 #
straight-curve $-1 -45 0 -15 0 -1 0 I I #
ellipse-curve $-1 -45 25 -10 0 -1 0 3.535533905932739973 0 -3.535533905932739973 1 I I #
ellipse-curve $-1 -45 -25 -10 0 1 -0 3.535533905932739973 0 -3.535533905932739973 1 I I #
point $-1 -40 -25 -10 #
point $-1 -40 25 -10 #
coedge $-1 $162 $79 $81 $121 reversed $118 $-1 #
coedge $-1 $79 $162 $84 $124 forward $118 $-1 #
loop $-1 $-1 $79 $130 #
straight-curve $-1 -60 0 15 0 -1 0 I I #
coedge $-1 $81 $163 $164 $165 forward $54 $-1 #
edge $-1 $166 -30 $82 -15 $116 $167 forward 7 unknown #
point $-1 -60 -25 15 #
coedge $-1 $168 $84 $169 $170 forward $57 $-1 #
edge $-1 $171 -30 $85 -15 $84 $172 forward 7 unknown #
point $-1 -60 25 15 #
face $-1 $90 $173 $2 $-1 $174 forward single #
plane-surface $-1 0 -25 0 0 1 -0 -0 0 1 forward_v I I I I #
face $-1 $175 $176 $2 $-1 $177 reversed single #
plane-surface $-1 0 25 0 0 -1 0 0 0 -1 forward_v I I I I #
face $-1 $89 $118 $2 $-1 $132 reversed single #
loop $-1 $-1 $152 $93 #
plane-surface $-1 -60 0 0 1 0 0 0 0 -1 forward_v I I I I #
face $-1 $178 $179 $2 $-1 $180 forward single #
loop $-1 $-1 $181 $95 #
cone-surface $-1 45 0 -10 0 1 0 -3.535533905932739973 0 -3.535533905932739973 1 I I 0 -1 5.000000000000003553 forward I I I I #
coedge $-1 $182 $183 $184 $185 forward $96 $-1 #
coedge $-1 $186 $187 $143 $188 reversed $98 $-1 #
coedge $-1 $138 $138 $99 $139 reversed $189 $-1 #
edge $-1 $190 -3.141592653589799777 $190 3.141592653589786455 $99 $191 forward 7 unknown #
coedge $-1 $143 $100 $192 $193 reversed $38 $-1 #
coedge $-1 $147 $194 $100 $142 reversed $148 $-1 #
edge $-1 $150 -3.4914813388431302e-14 $195 25 $141 $151 forward 7 unknown #
coedge $-1 $101 $140 $137 $188 forward $38 $-1 #
coedge $-1 $196 $197 $101 $145 forward $54 $-1 #
edge $-1 $149 -0.785398163397448279 $198 0.785398163397448279 $144 $199 forward 7 unknown #
coedge $-1 $200 $102 $197 $201 reversed $148 $-1 #
coedge $-1 $102 $141 $202 $203 forward $148 $-1 #
loop $-1 $-1 $102 $204 #
vertex $-1 $201 $205 #
vertex $-1 $203 $206 #
straight-curve $-1 -20 0 -35 0 1 0 I I #
coedge $-1 $207 $208 $104 $153 forward $131 $-1 #
edge $-1 $158 -25 $155 25 $152 $209 forward 7 unknown #
coedge $-1 $105 $210 $207 $211 reversed $57 $-1 #
vertex $-1 $153 $212 #
straight-curve $-1 -25 25 -15 1 0 -0 I I #
coedge $-1 $213 $107 $208 $214 forward $54 $-1 #
vertex $-1 $108 $215 #
straight-curve $-1 -25 -25 -15 -1 0 0 I I #
point $-1 -45 25 -15 #
point $-1 -45 -25 -15 #
coedge $-1 $117 $116 $216 $217 forward $118 $-1 #
coedge $-1 $120 $218 $219 $220 forward $54 $-1 #
coedge $-1 $221 $216 $120 $165 reversed $222 $-1 #
edge $-1 $223 12.5 $166 30 $120 $224 forward 7 unknown #
vertex $-1 $165 $225 #
straight-curve $-1 -60 -25 0 0 0 -1 I I #
coedge $-1 $226 $123 $227 $228 forward $57 $-1 #
coedge $-1 $216 $221 $123 $170 reversed $222 $-1 #
edge $-1 $171 -30 $229 -12.5 $123 $230 forward 7 unknown #
vertex $-1 $217 $231 #
straight-curve $-1 -60 25 0 0 0 -1 I I #
loop $-1 $-1 $232 $126 #
plane-surface $-1 40 0 0 1 0 0 0 0 -1 forward_v I I I I #
face $-1 $233 $189 $2 $-1 $234 reversed single #
loop $-1 $-1 $235 $128 #
plane-surface $-1 60 0 0 -1 0 0 0 -0 1 forward_v I I I I #
face $-1 $236 $237 $2 $-1 $238 forward single #
loop $-1 $-1 $239 $133 #
plane-surface $-1 50 0 -15 0 0 1 1 0 0 forward_v I I I I #
coedge $-1 $240 $241 $232 $242 forward $134 $-1 #
coedge $-1 $243 $136 $244 $245 forward $96 $-1 #
coedge $-1 $136 $246 $247 $248 reversed $96 $-1 #
coedge $-1 $249 $250 $136 $185 reversed $251 $-1 #
edge $-1 $252 -25 $253 -3.4914813388431302e-14 $184 $254 forward 7 unknown #
coedge $-1 $255 $137 $256 $257 reversed $98 $-1 #
coedge $-1 $137 $255 $196 $258 reversed $98 $-1 #
edge $-1 $259 -25 $198 25 $137 $260 forward 7 unknown #
loop $-1 $261 $138 $175 #
vertex $-1 $139 $262 #
ellipse-curve $-1 0 0 -30 0 0 1 7.5 0 0 1 I I #
coedge $-1 $263 $256 $140 $193 forward $57 $-1 #
edge $-1 $259 -0.785398163397448279 $195 0.785398163397448279 $192 $264 forward 7 unknown #
coedge $-1 $141 $200 $263 $265 reversed $148 $-1 #
vertex $-1 $265 $266 #
coedge $-1 $267 $144 $187 $258 forward $54 $-1 #
coedge $-1 $144 $268 $146 $201 forward $54 $-1 #
vertex $-1 $258 $269 #
ellipse-curve $-1 -15 -25 -35 0 1 -0 -3.535533905932739973 0 3.535533905932739973 1 I I #
coedge $-1 $194 $146 $270 $271 reversed $148 $-1 #
edge $-1 $272 -30 $149 -15 $197 $273 forward 7 unknown #
coedge $-1 $202 $202 $147 $203 reversed $274 $-1 #
edge $-1 $150 -3.141592653589799777 $150 3.141592653589786455 $147 $275 forward 7 unknown #
face $-1 $276 $148 $2 $-1 $277 forward single #
point $-1 -20 -25 -35 #
point $-1 -20 -3.4914813388431302e-14 -34.99999999999990052 #
coedge $-1 $278 $152 $154 $211 forward $131 $-1 #
coedge $-1 $152 $278 $157 $214 reversed $131 $-1 #
straight-curve $-1 -60 0 -15 0 1 0 I I #
coedge $-1 $154 $279 $280 $281 forward $57 $-1 #
edge $-1 $155 15 $282 30 $154 $172 forward 7 unknown #
point $-1 -60 25 -15 #
coedge $-1 $283 $157 $284 $285 forward $54 $-1 #
edge $-1 $158 15 $286 30 $208 $167 forward 7 unknown #
point $-1 -60 -25 -15 #
coedge $-1 $164 $169 $162 $217 reversed $222 $-1 #
edge $-1 $166 -25 $171 25 $162 $287 forward 7 unknown #
coedge $-1 $163 $288 $289 $290 forward $54 $-1 #
coedge $-1 $291 $292 $163 $220 reversed $293 $-1 #
edge $-1 $294 -0.785398163397448279 $223 0.785398163397448279 $163 $295 forward 7 unknown #
coedge $-1 $169 $164 $292 $296 forward $222 $-1 #
loop $-1 $-1 $169 $297 #
vertex $-1 $165 $298 #
straight-curve $-1 -30 -25 30 -1 0 0 I I #
point $-1 -60 -25 30 #
coedge $-1 $299 $168 $300 $301 forward $57 $-1 #
coedge $-1 $292 $291 $168 $228 reversed $293 $-1 #
edge $-1 $229 -0.785398163397448279 $302 0.785398163397448279 $168 $303 forward 7 unknown #
vertex $-1 $170 $304 #
straight-curve $-1 -30 25 30 1 0 -0 I I #
point $-1 -60 25 30 #
coedge $-1 $305 $306 $181 $242 reversed $173 $-1 #
face $-1 $307 $308 $2 $-1 $309 reversed single #
cone-surface $-1 0 0 0 0 0 1 7.5 0 0 1 I I 0 1 7.5 forward I I I I #
coedge $-1 $310 $311 $312 $313 forward $176 $-1 #
face $-1 $314 $315 $2 $-1 $316 reversed single #
loop $-1 $-1 $317 $178 #
cone-surface $-1 45 0 10 -0 -1 0 -3.535533905932739973 0 3.535533905932739973 1 I I 0 -1 5.000000000000003553 forward I I I I #
coedge $-1 $318 $319 $320 $321 reversed $179 $-1 #
coedge $-1 $320 $181 $322 $323 reversed $134 $-1 #
coedge $-1 $181 $320 $324 $325 reversed $134 $-1 #
edge $-1 $326 -25 $327 25 $232 $328 forward 7 unknown #
coedge $-1 $246 $182 $267 $329 reversed $96 $-1 #
coedge $-1 $250 $330 $182 $245 reversed $251 $-1 #
edge $-1 $253 -3.4914813388431302e-14 $331 25 $244 $254 forward 7 unknown #
coedge $-1 $183 $243 $255 $332 forward $96 $-1 #
coedge $-1 $256 $333 $183 $248 forward $57 $-1 #
edge $-1 $252 -0.785398163397448279 $334 0.785398163397448279 $247 $335 forward 7 unknown #
coedge $-1 $336 $184 $333 $337 reversed $251 $-1 #
coedge $-1 $184 $244 $338 $339 forward $251 $-1 #
loop $-1 $-1 $184 $276 #
vertex $-1 $337 $340 #
vertex $-1 $339 $341 #
straight-curve $-1 20 0 -35 -0 -1 -0 I I #
coedge $-1 $187 $186 $246 $332 reversed $98 $-1 #
coedge $-1 $192 $247 $186 $257 forward $57 $-1 #
edge $-1 $334 -15 $259 15 $256 $342 forward 7 unknown #
edge $-1 $198 -15 $343 15 $196 $344 forward 7 unknown #
vertex $-1 $257 $345 #
straight-curve $-1 -15 0 -30 0 -1 0 I I #
loop $-1 $-1 $346 $175 #
point $-1 -7.5 5.237222008264700033e-14 -30 #
coedge $-1 $347 $192 $194 $265 forward $57 $-1 #
ellipse-curve $-1 -15 25 -35 0 -1 0 -3.535533905932739973 0 3.535533905932739973 1 I I #
edge $-1 $195 15 $348 30 $263 $349 forward 7 unknown #
point $-1 -20 25 -35 #
coedge $-1 $350 $196 $243 $329 forward $54 $-1 #
coedge $-1 $197 $351 $352 $353 reversed $54 $-1 #
point $-1 -15 -25 -30 #
coedge $-1 $352 $354 $200 $271 forward $355 $-1 #
edge $-1 $348 -25 $272 25 $270 $356 forward 7 unknown #
vertex $-1 $271 $357 #
straight-curve $-1 -20 -25 -20 -0 0 1 I I #
loop $-1 $358 $202 $307 #
ellipse-curve $-1 -20 0 -39.99999999999990052 -1 -0 -0 -1.745740669421570149e-14 0 -5 1 I I #
face $-1 $359 $251 $2 $-1 $360 forward single #
plane-surface $-1 -20 0 -40 1 0 0 0 0 -1 forward_v I I I I #
coedge $-1 $208 $207 $361 $362 forward $131 $-1 #
coedge $-1 $210 $363 $364 $365 forward $57 $-1 #
coedge $-1 $366 $361 $210 $281 reversed $367 $-1 #
edge $-1 $368 12.5 $282 30 $210 $369 forward 7 unknown #
vertex $-1 $211 $370 #
coedge $-1 $351 $213 $371 $372 forward $54 $-1 #
coedge $-1 $361 $366 $213 $285 reversed $367 $-1 #
edge $-1 $286 -30 $373 -12.5 $213 $374 forward 7 unknown #
vertex $-1 $214 $375 #
straight-curve $-1 -60 0 30 0 1 0 I I #
coedge $-1 $218 $376 $377 $378 reversed $54 $-1 #
coedge $-1 $379 $380 $218 $290 reversed $381 $-1 #
edge $-1 $382 -25 $294 -7.5 $218 $383 forward 7 unknown #
coedge $-1 $227 $219 $380 $384 reversed $293 $-1 #
coedge $-1 $219 $227 $221 $296 reversed $293 $-1 #
loop $-1 $-1 $227 $385 #
vertex $-1 $220 $386 #
ellipse-curve $-1 -42.5 -25 32.5 0 1 -0 1.767766952966369987 0 -1.767766952966369987 1 I I #
edge $-1 $223 -25 $229 25 $221 $387 forward 7 unknown #
face $-1 $385 $222 $2 $-1 $388 forward single #
point $-1 -42.5 -25 30 #
coedge $-1 $389 $226 $390 $391 reversed $57 $-1 #
coedge $-1 $380 $379 $226 $301 reversed $381 $-1 #
edge $-1 $302 7.5 $392 25 $226 $393 forward 7 unknown #
vertex $-1 $228 $394 #
ellipse-curve $-1 -42.5 25 32.5 0 -1 0 1.767766952966369987 0 -1.767766952966369987 1 I I #
point $-1 -42.5 25 30 #
coedge $-1 $395 $232 $396 $397 reversed $173 $-1 #
coedge $-1 $232 $395 $398 $399 reversed $173 $-1 #
face $-1 $400 $274 $2 $-1 $309 reversed single #
loop $-1 $401 $402 $233 #
cone-surface $-1 0 0 -40 1 0 -3.491481338843129805e-15 -1.745740669421570149e-14 0 -5 1 I I 0 1 5 forward I I I I #
coedge $-1 $403 $235 $404 $405 forward $176 $-1 #
coedge $-1 $235 $403 $406 $407 reversed $176 $-1 #
coedge $-1 $319 $318 $235 $313 reversed $179 $-1 #
edge $-1 $408 -25 $409 25 $235 $410 forward 7 unknown #
face $-1 $411 $412 $2 $-1 $413 forward single #
loop $-1 $-1 $414 $236 #
plane-surface $-1 50 0 15 0 0 1 1 0 0 forward_v I I I I #
coedge $-1 $415 $416 $395 $417 forward $237 $-1 #
coedge $-1 $312 $239 $418 $419 reversed $179 $-1 #
coedge $-1 $239 $312 $420 $421 reversed $179 $-1 #
coedge $-1 $241 $240 $239 $321 forward $134 $-1 #
edge $-1 $422 -25 $423 25 $239 $424 forward 7 unknown #
coedge $-1 $398 $418 $240 $323 forward $54 $-1 #
edge $-1 $422 -0.785398163397448279 $327 0.785398163397448279 $322 $425 forward 7 unknown #
coedge $-1 $420 $396 $241 $325 forward $57 $-1 #
edge $-1 $326 -0.785398163397448279 $423 0.785398163397448279 $324 $426 forward 7 unknown #
vertex $-1 $397 $427 #
vertex $-1 $399 $428 #
straight-curve $-1 40 0 -10 -0 -1 -0 I I #
edge $-1 $343 -0.785398163397448279 $331 0.785398163397448279 $267 $429 forward 7 unknown #
coedge $-1 $244 $336 $350 $430 reversed $251 $-1 #
vertex $-1 $430 $431 #
edge $-1 $343 -25 $334 25 $255 $432 forward 7 unknown #
coedge $-1 $247 $433 $249 $337 forward $57 $-1 #
vertex $-1 $257 $434 #
ellipse-curve $-1 15 25 -35 0 -1 0 3.535533905932739973 0 3.535533905932739973 1 I I #
coedge $-1 $330 $249 $435 $436 reversed $251 $-1 #
edge $-1 $437 -30 $252 -15 $333 $438 forward 7 unknown #
coedge $-1 $338 $338 $250 $339 reversed $401 $-1 #
edge $-1 $253 -3.141592653589799777 $253 3.141592653589786455 $250 $439 forward 7 unknown #
point $-1 20 25 -35 #
point $-1 20 3.4914813388431302e-14 -35.00000000000009948 #
straight-curve $-1 0 25 -30 -1 0 0 I I #
vertex $-1 $258 $440 #
straight-curve $-1 0 -25 -30 1 -0 0 I I #
point $-1 -15 25 -30 #
coedge $-1 $346 $346 $441 $442 reversed $261 $-1 #
coedge $-1 $363 $263 $354 $443 reversed $57 $-1 #
vertex $-1 $443 $444 #
straight-curve $-1 -20 25 -20 0 0 -1 I I #
coedge $-1 $445 $267 $330 $430 forward $54 $-1 #
coedge $-1 $268 $283 $446 $447 forward $54 $-1 #
coedge $-1 $448 $270 $268 $353 forward $355 $-1 #
edge $-1 $272 20 $449 40 $268 $450 forward 7 unknown #
coedge $-1 $270 $448 $347 $443 forward $355 $-1 #
loop $-1 $-1 $270 $359 #
straight-curve $-1 -20 0 -50 0 -1 0 I I #
point $-1 -20 -25 -50 #
loop $-1 $-1 $451 $307 #
face $-1 $452 $355 $2 $-1 $453 reversed single #
plane-surface $-1 20 0 -40 -1 0 0 0 0 1 forward_v I I I I #
coedge $-1 $280 $284 $278 $362 reversed $367 $-1 #
edge $-1 $282 -25 $286 25 $278 $454 forward 7 unknown #
coedge $-1 $279 $347 $455 $456 forward $57 $-1 #
coedge $-1 $457 $458 $279 $365 reversed $459 $-1 #
edge $-1 $460 -0.785398163397448279 $368 0.785398163397448279 $279 $461 forward 7 unknown #
coedge $-1 $284 $280 $458 $462 forward $367 $-1 #
loop $-1 $-1 $280 $463 #
vertex $-1 $281 $464 #
straight-curve $-1 -30 25 -30 -1 0 0 I I #
point $-1 -60 25 -30 #
coedge $-1 $458 $457 $283 $372 reversed $459 $-1 #
edge $-1 $373 -0.785398163397448279 $465 0.785398163397448279 $283 $466 forward 7 unknown #
vertex $-1 $285 $467 #
straight-curve $-1 -30 -25 -30 1 -0 0 I I #
point $-1 -60 -25 -30 #
coedge $-1 $288 $468 $469 $470 forward $54 $-1 #
coedge $-1 $471 $472 $288 $378 forward $473 $-1 #
edge $-1 $382 -40 $474 -20 $288 $475 forward 7 unknown #
coedge $-1 $300 $289 $472 $476 reversed $381 $-1 #
coedge $-1 $289 $300 $291 $384 forward $381 $-1 #
loop $-1 $-1 $300 $477 #
vertex $-1 $290 $478 #
straight-curve $-1 -40 -25 25 -0 0 -1 I I #
edge $-1 $302 -25 $294 25 $380 $479 forward 7 unknown #
face $-1 $480 $293 $2 $-1 $481 reversed single #
point $-1 -40 -25 32.5 #
straight-curve $-1 -42.5 0 30 0 1 0 I I #
plane-surface $-1 -60 0 30 0 0 1 1 0 0 forward_v I I I I #
coedge $-1 $482 $299 $483 $484 forward $57 $-1 #
coedge $-1 $472 $471 $299 $391 forward $473 $-1 #
edge $-1 $485 20 $392 40 $299 $486 forward 7 unknown #
vertex $-1 $391 $487 #
straight-curve $-1 -40 25 25 0 0 1 I I #
point $-1 -40 25 32.5 #
coedge $-1 $306 $305 $317 $417 reversed $173 $-1 #
coedge $-1 $324 $488 $305 $397 forward $57 $-1 #
edge $-1 $489 -10 $326 10 $396 $490 forward 7 unknown #
coedge $-1 $491 $322 $306 $399 forward $54 $-1 #
edge $-1 $327 -10 $492 10 $398 $493 forward 7 unknown #
face $-1 $494 $495 $2 $-1 $496 reversed single #
loop $-1 $-1 $338 $233 #
coedge $-1 $402 $402 $497 $498 reversed $308 $-1 #
coedge $-1 $311 $310 $499 $500 forward $176 $-1 #
coedge $-1 $418 $501 $310 $405 reversed $54 $-1 #
edge $-1 $409 15 $502 30 $310 $503 forward 7 unknown #
coedge $-1 $504 $420 $311 $407 forward $57 $-1 #
edge $-1 $408 15 $505 30 $311 $506 forward 7 unknown #
vertex $-1 $313 $507 #
vertex $-1 $419 $508 #
straight-curve $-1 60 0 -15 0 -1 0 I I #
face $-1 $509 $510 $2 $-1 $511 forward single #
loop $-1 $-1 $512 $314 #
cone-surface $-1 15 0 35 0 -1 -0 3.535533905932739973 0 -3.535533905932739973 1 I I 0 -1 5.000000000000003553 forward I I I I #
coedge $-1 $513 $514 $515 $516 reversed $315 $-1 #
coedge $-1 $515 $317 $488 $517 reversed $237 $-1 #
coedge $-1 $317 $515 $491 $518 reversed $237 $-1 #
edge $-1 $492 -25 $489 25 $395 $519 forward 7 unknown #
coedge $-1 $322 $404 $318 $419 forward $54 $-1 #
edge $-1 $409 -35 $422 -20 $418 $520 forward 7 unknown #
coedge $-1 $406 $324 $319 $421 forward $57 $-1 #
edge $-1 $423 20 $408 35 $420 $521 forward 7 unknown #
vertex $-1 $419 $522 #
vertex $-1 $421 $523 #
straight-curve $-1 45 0 -15 0 1 0 I I #
ellipse-curve $-1 45 -25 -10 0 1 -0 -3.535533905932739973 0 -3.535533905932739973 1 I I #
ellipse-curve $-1 45 25 -10 0 -1 0 -3.535533905932739973 0 -3.535533905932739973 1 I I #
point $-1 40 25 -10 #
point $-1 40 -25 -10 #
ellipse-curve $-1 15 -25 -35 0 1 -0 3.535533905932739973 0 3.535533905932739973 1 I I #
edge $-1 $331 15 $524 30 $350 $525 forward 7 unknown #
point $-1 20 -25 -35 #
straight-curve $-1 15 0 -30 0 1 0 I I #
coedge $-1 $333 $526 $527 $528 reversed $57 $-1 #
point $-1 15 25 -30 #
coedge $-1 $527 $529 $336 $436 forward $530 $-1 #
edge $-1 $524 -25 $437 25 $435 $531 forward 7 unknown #
vertex $-1 $436 $532 #
straight-curve $-1 20 25 -20 0 0 1 I I #
ellipse-curve $-1 20 0 -40.00000000000009948 1 -0 -0 -1.745740669421570149e-14 0 -5 1 I I #
point $-1 15 -25 -30 #
coedge $-1 $441 $441 $346 $442 forward $510 $-1 #
edge $-1 $533 -3.141592653589799777 $533 3.141592653589786455 $441 $534 forward 7 unknown #
edge $-1 $535 -40 $348 -20 $347 $536 forward 7 unknown #
point $-1 -20 25 -50 #
coedge $-1 $537 $350 $529 $538 reversed $54 $-1 #
coedge $-1 $539 $540 $351 $447 reversed $541 $-1 #
edge $-1 $465 7.5 $449 25 $351 $542 forward 7 unknown #
coedge $-1 $354 $352 $540 $543 forward $355 $-1 #
vertex $-1 $353 $544 #
straight-curve $-1 0 -25 -50 -1 0 0 I I #
coedge $-1 $451 $451 $545 $546 reversed $358 $-1 #
face $-1 $547 $548 $2 $-1 $549 forward single #
plane-surface $-1 0 0 -50 0 0 1 1 0 0 forward_v I I I I #
straight-curve $-1 -60 0 -30 0 -1 0 I I #
coedge $-1 $540 $539 $363 $456 reversed $541 $-1 #
edge $-1 $535 -25 $460 -7.5 $363 $550 forward 7 unknown #
coedge $-1 $371 $364 $539 $551 reversed $459 $-1 #
coedge $-1 $364 $371 $366 $462 reversed $459 $-1 #
loop $-1 $-1 $364 $552 #
vertex $-1 $365 $553 #
ellipse-curve $-1 -42.5 25 -32.5 0 -1 0 1.767766952966369987 0 1.767766952966369987 1 I I #
edge $-1 $368 -25 $373 25 $366 $554 forward 7 unknown #
face $-1 $552 $367 $2 $-1 $555 reversed single #
point $-1 -42.5 25 -30 #
vertex $-1 $372 $556 #
ellipse-curve $-1 -42.5 -25 -32.5 0 1 -0 1.767766952966369987 0 1.767766952966369987 1 I I #
point $-1 -42.5 -25 -30 #
coedge $-1 $376 $557 $558 $559 forward $54 $-1 #
coedge $-1 $560 $561 $376 $470 reversed $548 $-1 #
edge $-1 $562 15 $474 30 $376 $563 forward 7 unknown #
coedge $-1 $390 $377 $561 $564 forward $473 $-1 #
coedge $-1 $377 $390 $379 $476 forward $473 $-1 #
loop $-1 $-1 $471 $480 #
vertex $-1 $378 $565 #
straight-curve $-1 0 -25 50 1 0 0 I I #
edge $-1 $392 -25 $382 25 $472 $566 forward 7 unknown #
face $-1 $297 $567 $2 $-1 $568 forward single #
point $-1 -40 -25 50 #
straight-curve $-1 -40 0 32.5 0 -1 0 I I #
face $-1 $569 $473 $2 $-1 $570 forward single #
cone-surface $-1 -42.5 0 32.5 0 -1 0 1.767766952966369987 0 -1.767766952966369987 1 I I 0 1 2.500000000000001776 forward I I I I #
coedge $-1 $571 $389 $572 $573 forward $57 $-1 #
coedge $-1 $561 $574 $389 $484 reversed $548 $-1 #
edge $-1 $485 -30 $575 -15 $389 $576 forward 7 unknown #
vertex $-1 $564 $577 #
straight-curve $-1 0 25 50 -1 0 0 I I #
point $-1 -40 25 50 #
coedge $-1 $396 $578 $415 $517 forward $57 $-1 #
vertex $-1 $397 $579 #
straight-curve $-1 40 25 0 0 0 -1 I I #
coedge $-1 $580 $398 $416 $518 forward $54 $-1 #
vertex $-1 $399 $581 #
straight-curve $-1 40 -25 0 -0 0 1 I I #
face $-1 $204 $582 $2 $-1 $496 reversed single #
loop $-1 $583 $584 $400 #
cone-surface $-1 0 0 40 1 0 -3.491481338843129805e-15 -1.745740669421570149e-14 0 -5 1 I I 0 1 5 forward I I I I #
coedge $-1 $497 $497 $402 $498 forward $585 $-1 #
edge $-1 $586 -3.141592653589799777 $586 3.141592653589786455 $497 $587 forward 7 unknown #
coedge $-1 $588 $589 $403 $500 reversed $590 $-1 #
edge $-1 $502 -25 $505 25 $403 $591 forward 7 unknown #
coedge $-1 $404 $592 $588 $593 forward $54 $-1 #
vertex $-1 $405 $594 #
straight-curve $-1 60 -25 0 0 0 -1 I I #
coedge $-1 $595 $406 $589 $596 forward $57 $-1 #
vertex $-1 $407 $597 #
straight-curve $-1 60 25 0 0 0 -1 I I #
point $-1 60 25 -15 #
point $-1 60 -25 -15 #
face $-1 $61 $598 $2 $-1 $599 forward single #
loop $-1 $600 $441 $411 #
plane-surface $-1 0 0 30 0 0 1 1 0 0 forward_v I I I I #
coedge $-1 $601 $602 $603 $604 forward $412 $-1 #
coedge $-1 $605 $414 $578 $606 reversed $315 $-1 #
coedge $-1 $414 $605 $580 $607 reversed $315 $-1 #
coedge $-1 $416 $415 $414 $516 forward $237 $-1 #
edge $-1 $608 -25 $609 25 $414 $610 forward 7 unknown #
edge $-1 $608 -0.785398163397448279 $489 0.785398163397448279 $488 $611 forward 7 unknown #
edge $-1 $492 -0.785398163397448279 $609 0.785398163397448279 $491 $612 forward 7 unknown #
straight-curve $-1 40 0 10 0 1 0 I I #
straight-curve $-1 25 -25 -15 -1 0 0 I I #
straight-curve $-1 25 25 -15 1 0 -0 I I #
point $-1 45 -25 -15 #
point $-1 45 25 -15 #
vertex $-1 $538 $613 #
straight-curve $-1 20 -25 -20 -0 0 -1 I I #
coedge $-1 $433 $595 $614 $615 forward $57 $-1 #
coedge $-1 $616 $435 $433 $528 forward $530 $-1 #
edge $-1 $437 20 $617 40 $433 $536 forward 7 unknown #
coedge $-1 $435 $616 $445 $538 forward $530 $-1 #
loop $-1 $-1 $435 $618 #
straight-curve $-1 20 0 -50 0 1 -0 I I #
point $-1 20 25 -50 #
vertex $-1 $442 $619 #
ellipse-curve $-1 0 0 30 -0 -0 -1 7.5 0 0 1 I I #
vertex $-1 $543 $620 #
straight-curve $-1 0 25 -50 1 0 0 I I #
coedge $-1 $592 $445 $621 $622 forward $54 $-1 #
edge $-1 $623 -40 $524 -20 $445 $450 forward 7 unknown #
coedge $-1 $455 $446 $457 $551 forward $541 $-1 #
coedge $-1 $446 $455 $448 $543 reversed $541 $-1 #
loop $-1 $-1 $455 $624 #
straight-curve $-1 -40 -25 -25 -0 0 -1 I I #
edge $-1 $449 -25 $535 25 $448 $625 forward 7 unknown #
point $-1 -40 -25 -50 #
coedge $-1 $545 $545 $451 $546 forward $626 $-1 #
edge $-1 $627 -3.141592653589799777 $627 3.141592653589786455 $545 $628 forward 7 unknown #
face $-1 $629 $630 $2 $-1 $631 forward single #
loop $-1 $-1 $574 $452 #
plane-surface $-1 -20 0 40 1 0 0 0 0 -1 forward_v I I I I #
straight-curve $-1 -40 25 -25 0 0 1 I I #
edge $-1 $465 -25 $460 25 $539 $632 forward 7 unknown #
face $-1 $624 $459 $2 $-1 $633 reversed single #
point $-1 -40 25 -32.5 #
straight-curve $-1 -42.5 0 -30 -0 -1 -0 I I #
plane-surface $-1 -60 0 -30 0 0 1 1 0 0 forward_v I I I I #
point $-1 -40 -25 -32.5 #
coedge $-1 $468 $634 $635 $636 forward $54 $-1 #
coedge $-1 $637 $638 $468 $559 reversed $598 $-1 #
edge $-1 $639 -0.785398163397448279 $562 0.785398163397448279 $468 $640 forward 7 unknown #
coedge $-1 $641 $469 $638 $642 reversed $548 $-1 #
coedge $-1 $469 $483 $471 $564 reversed $548 $-1 #
vertex $-1 $470 $643 #
straight-curve $-1 -20 -25 20 -0 0 1 I I #
edge $-1 $474 -25 $485 25 $471 $644 forward 7 unknown #
point $-1 -20 -25 50 #
straight-curve $-1 -40 0 50 0 -1 0 I I #
loop $-1 $381 $645 $477 #
plane-surface $-1 -40 0 50 -1 0 0 0 0 1 forward_v I I I I #
face $-1 $646 $585 $2 $-1 $647 forward single #
plane-surface $-1 0 0 50 0 0 1 1 0 0 forward_v I I I I #
coedge $-1 $648 $482 $649 $650 forward $57 $-1 #
coedge $-1 $651 $637 $482 $573 reversed $598 $-1 #
edge $-1 $575 -0.785398163397448279 $652 0.785398163397448279 $482 $653 forward 7 unknown #
coedge $-1 $483 $654 $651 $655 reversed $548 $-1 #
vertex $-1 $484 $656 #
straight-curve $-1 -20 25 20 0 0 -1 I I #
point $-1 -20 25 50 #
coedge $-1 $488 $657 $513 $606 forward $57 $-1 #
point $-1 40 25 10 #
coedge $-1 $658 $491 $514 $607 forward $54 $-1 #
point $-1 40 -25 10 #
loop $-1 $659 $660 $494 #
loop $-1 $-1 $661 $400 #
coedge $-1 $584 $584 $662 $663 reversed $495 $-1 #
loop $-1 $664 $497 $569 #
vertex $-1 $498 $665 #
ellipse-curve $-1 40 0 -40.00000000000009948 -1 -0 -0 -1.745740669421570149e-14 0 -5 1 I I #
coedge $-1 $666 $499 $501 $593 reversed $590 $-1 #
coedge $-1 $499 $666 $504 $596 reversed $590 $-1 #
loop $-1 $-1 $589 $667 #
straight-curve $-1 60 0 -30 0 1 -0 I I #
coedge $-1 $501 $537 $668 $669 forward $54 $-1 #
edge $-1 $670 12.5 $502 30 $501 $671 forward 7 unknown #
point $-1 60 -25 -30 #
coedge $-1 $526 $504 $672 $673 forward $57 $-1 #
edge $-1 $505 -30 $674 -12.5 $504 $675 forward 7 unknown #
point $-1 60 25 -30 #
loop $-1 $-1 $651 $509 #
cone-surface $-1 -15 0 35 0 1 0 -3.535533905932739973 0 -3.535533905932739973 1 I I 0 -1 5.000000000000003553 forward I I I I #
loop $-1 $-1 $676 $411 #
coedge $-1 $677 $512 $678 $679 forward $412 $-1 #
coedge $-1 $512 $680 $634 $681 reversed $412 $-1 #
coedge $-1 $682 $683 $512 $604 reversed $630 $-1 #
edge $-1 $684 -25 $685 0 $603 $686 forward 7 unknown #
coedge $-1 $514 $513 $687 $688 reversed $315 $-1 #
edge $-1 $689 -35 $608 -20 $578 $690 forward 7 unknown #
edge $-1 $609 20 $691 35 $580 $692 forward 7 unknown #
vertex $-1 $606 $693 #
vertex $-1 $607 $694 #
straight-curve $-1 45 0 15 0 -1 0 I I #
ellipse-curve $-1 45 25 10 0 -1 0 -3.535533905932739973 0 3.535533905932739973 1 I I #
ellipse-curve $-1 45 -25 10 0 1 -0 -3.535533905932739973 0 3.535533905932739973 1 I I #
point $-1 20 -25 -50 #
coedge $-1 $695 $696 $526 $615 reversed $664 $-1 #
edge $-1 $697 7.5 $617 25 $526 $698 forward 7 unknown #
coedge $-1 $529 $527 $696 $699 forward $530 $-1 #
vertex $-1 $528 $700 #
face $-1 $701 $530 $2 $-1 $453 reversed single #
point $-1 -7.5 -5.237222008264700033e-14 30 #
point $-1 -40 25 -50 #
coedge $-1 $696 $695 $537 $622 reversed $664 $-1 #
edge $-1 $623 -25 $702 -7.5 $537 $703 forward 7 unknown #
vertex $-1 $622 $704 #
face $-1 $477 $626 $2 $-1 $705 forward single #
straight-curve $-1 -40 0 -50 0 1 -0 I I #
loop $-1 $541 $545 $624 #
vertex $-1 $546 $706 #
ellipse-curve $-1 -40 0 -39.99999999999990052 1 -0 -0 -1.745740669421570149e-14 0 -5 1 I I #
face $-1 $463 $707 $2 $-1 $570 forward single #
loop $-1 $-1 $603 $547 #
plane-surface $-1 20 0 40 -1 0 0 0 0 1 forward_v I I I I #
straight-curve $-1 -40 0 -32.5 0 1 0 I I #
cone-surface $-1 -42.5 0 -32.5 0 1 0 1.767766952966369987 0 1.767766952966369987 1 I I 0 1 2.500000000000001776 forward I I I I #
coedge $-1 $557 $708 $602 $681 forward $54 $-1 #
coedge $-1 $676 $709 $557 $636 reversed $600 $-1 #
edge $-1 $710 -15 $639 15 $557 $711 forward 7 unknown #
coedge $-1 $572 $558 $709 $712 forward $598 $-1 #
coedge $-1 $558 $651 $560 $642 forward $598 $-1 #
vertex $-1 $636 $713 #
ellipse-curve $-1 -15 -25 35 0 1 -0 -3.535533905932739973 0 -3.535533905932739973 1 I I #
coedge $-1 $654 $560 $714 $715 forward $548 $-1 #
edge $-1 $716 -0 $562 25 $560 $717 forward 7 unknown #
point $-1 -20 -25 35 #
straight-curve $-1 -20 0 50 0 1 0 I I #
coedge $-1 $645 $645 $718 $719 forward $567 $-1 #
face $-1 $667 $720 $2 $-1 $721 reversed single #
plane-surface $-1 40 0 -50 1 0 0 0 0 -1 forward_v I I I I #
coedge $-1 $722 $571 $677 $723 forward $57 $-1 #
coedge $-1 $709 $676 $571 $650 reversed $600 $-1 #
edge $-1 $652 -15 $724 15 $571 $725 forward 7 unknown #
coedge $-1 $638 $572 $574 $655 forward $598 $-1 #
vertex $-1 $650 $726 #
ellipse-curve $-1 -15 25 35 0 -1 0 -3.535533905932739973 0 -3.535533905932739973 1 I I #
coedge $-1 $574 $641 $660 $727 forward $548 $-1 #
edge $-1 $575 -25 $716 -0 $574 $717 forward 7 unknown #
point $-1 -20 25 35 #
coedge $-1 $578 $728 $729 $730 forward $57 $-1 #
coedge $-1 $731 $580 $732 $733 reversed $54 $-1 #
loop $-1 $-1 $718 $494 #
coedge $-1 $714 $714 $654 $727 reversed $582 $-1 #
coedge $-1 $734 $734 $683 $735 reversed $583 $-1 #
coedge $-1 $662 $662 $584 $663 forward $736 $-1 #
edge $-1 $737 -3.141592653589799777 $737 3.141592653589786455 $662 $738 forward 7 unknown #
loop $-1 $-1 $614 $569 #
point $-1 40 -3.4914813388431302e-14 -35.00000000000009948 #
coedge $-1 $589 $588 $739 $740 forward $590 $-1 #
face $-1 $618 $590 $2 $-1 $741 reversed single #
coedge $-1 $742 $739 $592 $669 reversed $720 $-1 #
edge $-1 $702 -0.785398163397448279 $670 0.785398163397448279 $592 $743 forward 7 unknown #
vertex $-1 $669 $744 #
straight-curve $-1 30 -25 -30 1 -0 0 I I #
coedge $-1 $739 $742 $595 $673 reversed $720 $-1 #
edge $-1 $674 -0.785398163397448279 $697 0.785398163397448279 $595 $745 forward 7 unknown #
vertex $-1 $673 $746 #
straight-curve $-1 30 25 -30 -1 0 0 I I #
coedge $-1 $649 $635 $680 $747 reversed $600 $-1 #
coedge $-1 $680 $601 $648 $723 reversed $412 $-1 #
coedge $-1 $748 $749 $601 $679 reversed $630 $-1 #
edge $-1 $685 0 $750 25 $678 $686 forward 7 unknown #
coedge $-1 $602 $677 $676 $747 forward $412 $-1 #
edge $-1 $684 -0.785398163397448279 $710 0.785398163397448279 $634 $751 forward 7 unknown #
coedge $-1 $752 $603 $708 $753 reversed $630 $-1 #
coedge $-1 $603 $748 $661 $735 forward $630 $-1 #
vertex $-1 $753 $754 #
vertex $-1 $735 $755 #
straight-curve $-1 20 0 35 0 1 0 I I #
coedge $-1 $729 $732 $605 $688 forward $756 $-1 #
edge $-1 $691 -25 $689 25 $687 $757 forward 7 unknown #
vertex $-1 $730 $758 #
straight-curve $-1 25 25 15 -1 0 0 I I #
vertex $-1 $733 $759 #
straight-curve $-1 25 -25 15 1 -0 0 I I #
point $-1 45 25 15 #
point $-1 45 -25 15 #
coedge $-1 $621 $614 $742 $760 forward $664 $-1 #
coedge $-1 $614 $621 $616 $699 reversed $664 $-1 #
vertex $-1 $673 $761 #
straight-curve $-1 40 25 -25 0 0 -1 I I #
edge $-1 $617 -25 $623 25 $616 $762 forward 7 unknown #
point $-1 40 25 -50 #
face $-1 $763 $764 $2 $-1 $765 forward single #
vertex $-1 $669 $766 #
straight-curve $-1 40 -25 -25 -0 0 1 I I #
point $-1 40 -25 -50 #
plane-surface $-1 -40 0 -50 -1 0 0 0 0 1 forward_v I I I I #
point $-1 -40 3.4914813388431302e-14 -34.99999999999990052 #
loop $-1 $-1 $767 $629 #
coedge $-1 $634 $768 $682 $753 forward $54 $-1 #
coedge $-1 $635 $649 $637 $712 reversed $600 $-1 #
vertex $-1 $636 $769 #
straight-curve $-1 0 -25 30 -1 0 0 I I #
edge $-1 $639 -25 $652 25 $709 $770 forward 7 unknown #
point $-1 -15 -25 30 #
coedge $-1 $660 $660 $641 $715 reversed $582 $-1 #
edge $-1 $716 0 $771 3.141592653589786455 $641 $772 forward 7 unknown #
vertex $-1 $727 $773 #
straight-curve $-1 -20 0 35 -0 -1 -0 I I #
coedge $-1 $718 $718 $645 $719 reversed $659 $-1 #
edge $-1 $774 -3.141592653589799777 $774 3.141592653589786455 $645 $775 forward 7 unknown #
loop $-1 $-1 $672 $646 #
cone-surface $-1 42.5 0 -32.5 0 -1 0 -1.767766952966369987 0 1.767766952966369987 1 I I 0 1 2.500000000000001776 forward I I I I #
coedge $-1 $776 $648 $749 $777 forward $57 $-1 #
edge $-1 $724 -0.785398163397448279 $750 0.785398163397448279 $648 $778 forward 7 unknown #
vertex $-1 $650 $779 #
straight-curve $-1 0 25 30 1 0 -0 I I #
point $-1 -15 25 30 #
edge $-1 $771 -3.141592653589799777 $716 0 $654 $772 forward 7 unknown #
coedge $-1 $657 $780 $781 $782 forward $57 $-1 #
coedge $-1 $783 $687 $657 $730 reversed $756 $-1 #
edge $-1 $784 -30 $689 -15 $729 $506 forward 7 unknown #
coedge $-1 $785 $658 $786 $787 forward $54 $-1 #
coedge $-1 $687 $783 $658 $733 forward $756 $-1 #
edge $-1 $788 -30 $691 -15 $732 $503 forward 7 unknown #
coedge $-1 $661 $661 $748 $789 reversed $583 $-1 #
edge $-1 $790 -3.141592653589799777 $685 0 $683 $791 forward 7 unknown #
loop $-1 $792 $662 $793 #
vertex $-1 $663 $794 #
ellipse-curve $-1 40 0 39.99999999999990052 -1 -0 -0 -1.745740669421570149e-14 0 -5 1 I I #
coedge $-1 $668 $672 $666 $740 reversed $720 $-1 #
edge $-1 $670 -25 $674 25 $666 $795 forward 7 unknown #
plane-surface $-1 60 0 -30 0 0 1 1 0 0 forward_v I I I I #
coedge $-1 $672 $668 $695 $760 reversed $720 $-1 #
ellipse-curve $-1 42.5 -25 -32.5 0 1 -0 -1.767766952966369987 0 1.767766952966369987 1 I I #
point $-1 42.5 -25 -30 #
ellipse-curve $-1 42.5 25 -32.5 0 -1 0 -1.767766952966369987 0 1.767766952966369987 1 I I #
point $-1 42.5 25 -30 #
edge $-1 $724 -25 $710 25 $676 $796 forward 7 unknown #
coedge $-1 $683 $678 $734 $789 forward $630 $-1 #
coedge $-1 $678 $752 $722 $777 reversed $630 $-1 #
vertex $-1 $777 $797 #
ellipse-curve $-1 15 -25 35 0 1 -0 3.535533905932739973 0 -3.535533905932739973 1 I I #
coedge $-1 $749 $682 $767 $798 reversed $630 $-1 #
edge $-1 $799 -30 $684 -15 $708 $800 forward 7 unknown #
point $-1 20 -25 35 #
point $-1 20 0 35 #
loop $-1 $-1 $687 $801 #
straight-curve $-1 60 0 15 0 1 -0 I I #
point $-1 60 25 15 #
point $-1 60 -25 15 #
edge $-1 $697 -25 $702 25 $695 $802 forward 7 unknown #
point $-1 40 25 -32.5 #
straight-curve $-1 40 0 -50 0 -1 0 I I #
face $-1 $793 $803 $2 $-1 $804 reversed single #
loop $-1 $-1 $781 $701 #
plane-surface $-1 60 0 30 0 0 1 1 0 0 forward_v I I I I #
point $-1 40 -25 -32.5 #
coedge $-1 $805 $806 $752 $798 forward $707 $-1 #
coedge $-1 $708 $807 $805 $808 reversed $54 $-1 #
point $-1 15 -25 30 #
straight-curve $-1 -15 0 30 0 1 0 I I #
vertex $-1 $715 $809 #
ellipse-curve $-1 -20 0 40.00000000000009948 -1 -0 -0 -1.745740669421570149e-14 0 -5 1 I I #
point $-1 -20 0 35 #
vertex $-1 $719 $810 #
ellipse-curve $-1 -40 0 40.00000000000009948 1 -0 -0 -1.745740669421570149e-14 0 -5 1 I I #
coedge $-1 $811 $722 $806 $812 reversed $57 $-1 #
edge $-1 $750 15 $813 30 $722 $814 forward 7 unknown #
ellipse-curve $-1 15 25 35 0 -1 0 3.535533905932739973 0 -3.535533905932739973 1 I I #
point $-1 15 25 30 #
coedge $-1 $728 $811 $815 $816 forward $57 $-1 #
coedge $-1 $817 $818 $728 $782 reversed $764 $-1 #
edge $-1 $819 12.5 $784 30 $728 $820 forward 7 unknown #
coedge $-1 $732 $729 $818 $821 forward $756 $-1 #
vertex $-1 $782 $822 #
coedge $-1 $807 $731 $823 $824 forward $54 $-1 #
coedge $-1 $818 $817 $731 $787 reversed $764 $-1 #
edge $-1 $788 -30 $825 -12.5 $731 $826 forward 7 unknown #
vertex $-1 $787 $827 #
edge $-1 $685 0 $790 3.141592653589786455 $748 $791 forward 7 unknown #
vertex $-1 $789 $828 #
ellipse-curve $-1 20 0 39.99999999999990052 1 -0 -0 -1.745740669421570149e-14 0 -5 1 I I #
loop $-1 $-1 $829 $793 #
face $-1 $801 $736 $2 $-1 $830 forward single #
point $-1 40 -3.4914813388431302e-14 44.99999999999990052 #
straight-curve $-1 42.5 0 -30 0 1 0 I I #
straight-curve $-1 15 0 30 0 -1 0 I I #
point $-1 20 25 35 #
edge $-1 $813 -25 $799 25 $767 $831 forward 7 unknown #
vertex $-1 $753 $832 #
straight-curve $-1 20 -25 20 -0 0 -1 I I #
face $-1 $-1 $756 $2 $-1 $177 reversed single #
straight-curve $-1 40 0 -32.5 0 -1 0 I I #
loop $-1 $-1 $815 $763 #
cone-surface $-1 42.5 0 32.5 0 1 0 -1.767766952966369987 0 -1.767766952966369987 1 I I 0 1 2.500000000000001776 forward I I I I #
coedge $-1 $833 $767 $768 $808 forward $707 $-1 #
coedge $-1 $767 $833 $776 $812 forward $707 $-1 #
coedge $-1 $768 $785 $834 $835 forward $54 $-1 #
edge $-1 $799 20 $836 40 $768 $475 forward 7 unknown #
point $-1 -20 -3.4914813388431302e-14 45.00000000000009948 #
point $-1 -40 3.4914813388431302e-14 45.00000000000009948 #
coedge $-1 $780 $776 $829 $837 forward $57 $-1 #
edge $-1 $838 -40 $813 -20 $776 $486 forward 7 unknown #
vertex $-1 $812 $839 #
straight-curve $-1 20 25 20 0 0 1 I I #
coedge $-1 $840 $841 $780 $816 reversed $803 $-1 #
edge $-1 $842 -0.785398163397448279 $819 0.785398163397448279 $780 $843 forward 7 unknown #
coedge $-1 $786 $781 $841 $844 forward $764 $-1 #
coedge $-1 $781 $786 $783 $821 reversed $764 $-1 #
vertex $-1 $816 $845 #
straight-curve $-1 30 25 30 1 0 -0 I I #
edge $-1 $784 -25 $788 25 $783 $846 forward 7 unknown #
point $-1 60 25 30 #
coedge $-1 $841 $840 $785 $824 reversed $803 $-1 #
edge $-1 $825 -0.785398163397448279 $847 0.785398163397448279 $785 $848 forward 7 unknown #
vertex $-1 $824 $849 #
straight-curve $-1 30 -25 30 -1 0 0 I I #
point $-1 60 -25 30 #
point $-1 20 3.4914813388431302e-14 44.99999999999990052 #
coedge $-1 $850 $851 $811 $837 reversed $792 $-1 #
plane-surface $-1 40 0 50 1 0 0 0 0 -1 forward_v I I I I #
straight-curve $-1 20 0 50 0 -1 0 I I #
point $-1 20 -25 50 #
coedge $-1 $806 $805 $850 $852 forward $707 $-1 #
coedge $-1 $851 $850 $807 $835 reversed $792 $-1 #
edge $-1 $847 7.5 $836 25 $807 $853 forward 7 unknown #
vertex $-1 $808 $854 #
edge $-1 $838 -25 $842 -7.5 $811 $855 forward 7 unknown #
vertex $-1 $852 $856 #
point $-1 20 25 50 #
coedge $-1 $823 $815 $851 $857 reversed $803 $-1 #
coedge $-1 $815 $823 $817 $844 reversed $803 $-1 #
vertex $-1 $816 $858 #
ellipse-curve $-1 42.5 25 32.5 0 -1 0 -1.767766952966369987 0 -1.767766952966369987 1 I I #
edge $-1 $819 -25 $825 25 $817 $859 forward 7 unknown #
point $-1 42.5 25 30 #
straight-curve $-1 60 0 30 0 -1 0 I I #
vertex $-1 $824 $860 #
ellipse-curve $-1 42.5 -25 32.5 0 1 -0 -1.767766952966369987 0 -1.767766952966369987 1 I I #
point $-1 42.5 -25 30 #
coedge $-1 $834 $829 $833 $852 reversed $792 $-1 #
coedge $-1 $829 $834 $840 $857 forward $792 $-1 #
edge $-1 $836 -25 $838 25 $833 $861 forward 7 unknown #
straight-curve $-1 40 -25 25 -0 0 1 I I #
point $-1 40 -25 50 #
straight-curve $-1 40 25 25 0 0 -1 I I #
point $-1 40 25 50 #
edge $-1 $847 -25 $842 25 $851 $862 forward 7 unknown #
point $-1 40 25 32.5 #
straight-curve $-1 42.5 0 30 -0 -1 -0 I I #
point $-1 40 -25 32.5 #
straight-curve $-1 40 0 50 0 1 0 I I #
straight-curve $-1 40 0 32.5 0 1 0 I I #
End-of-ACIS-data 