105 863 1 0                             
body $-1 $1 $-1 $-1 #
lump $-1 $-1 $2 $0 #
shell $-1 $-1 $-1 $3 $1 #
face $-1 $4 $5 $2 $-1 $6 forward single #
face $-1 $7 $8 $2 $-1 $9 reversed single #
loop $-1 $-1 $10 $3 #
cone-surface $-1 -45 0 10 -0 1 -0 3.53553390593274 0 3.53553390593274 1 0 -1 0 #
face $-1 $11 $12 $2 $-1 $13 forward single #
loop $-1 $-1 $14 $4 #
plane-surface $-1 -50 0 15 0 0 1 1 0 0 0 #
coedge $-1 $15 $16 $17 $18 0 $5 $-1 #
face $-1 $19 $20 $2 $-1 $21 forward single #
loop $-1 $-1 $22 $7 #
cone-surface $-1 -45 0 -10 0 -1 -0 3.53553390593274 0 -3.53553390593274 1 0 -1 0 #
coedge $-1 $23 $24 $25 $26 1 $8 $-1 #
coedge $-1 $25 $10 $27 $28 1 $5 $-1 #
coedge $-1 $10 $25 $29 $30 1 $5 $-1 #
coedge $-1 $31 $32 $10 $18 1 $33 $-1 #
edge $-1 $34 $35 $17 $36 0 #
face $-1 $37 $38 $2 $-1 $39 forward single #
loop $-1 $-1 $40 $11 #
plane-surface $-1 -50 0 -15 0 0 1 1 0 0 0 #
coedge $-1 $41 $42 $43 $44 0 $12 $-1 #
coedge $-1 $45 $14 $46 $47 1 $8 $-1 #
coedge $-1 $14 $45 $48 $49 1 $8 $-1 #
coedge $-1 $16 $15 $14 $26 0 $5 $-1 #
edge $-1 $50 $51 $14 $52 0 #
coedge $-1 $53 $46 $15 $28 0 $54 $-1 #
edge $-1 $50 $35 $27 $55 0 #
coedge $-1 $48 $56 $16 $30 0 $57 $-1 #
edge $-1 $34 $51 $29 $58 0 #
coedge $-1 $43 $17 $56 $59 1 $33 $-1 #
coedge $-1 $17 $43 $53 $60 1 $33 $-1 #
loop $-1 $-1 $17 $61 #
vertex $-1 $59 $62 #
vertex $-1 $60 $63 #
straight-curve $-1 -40 0 10 -0 -1 -0 #
face $-1 $64 $65 $2 $-1 $66 reversed single #
loop $-1 $-1 $67 $19 #
cone-surface $-1 -15 0 -35 -0 -1 0 -3.53553390593274 0 3.53553390593274 1 0 -1 0 #
coedge $-1 $68 $69 $70 $71 1 $20 $-1 #
coedge $-1 $70 $22 $72 $73 1 $12 $-1 #
coedge $-1 $22 $70 $74 $75 1 $12 $-1 #
coedge $-1 $32 $31 $22 $44 1 $33 $-1 #
edge $-1 $76 $77 $43 $78 0 #
coedge $-1 $24 $23 $79 $80 1 $8 $-1 #
coedge $-1 $27 $81 $23 $47 0 $54 $-1 #
edge $-1 $82 $50 $46 $83 0 #
coedge $-1 $84 $29 $24 $49 0 $57 $-1 #
edge $-1 $51 $85 $48 $86 0 #
vertex $-1 $47 $87 #
vertex $-1 $49 $88 #
straight-curve $-1 -45 0 15 0 1 0 #
coedge $-1 $74 $27 $32 $60 0 $54 $-1 #
loop $-1 $-1 $46 $89 #
ellipse-curve $-1 -45 -25 10 0 1 -0 3.53553390593274 0 3.53553390593274 1 #
coedge $-1 $29 $72 $31 $59 0 $57 $-1 #
loop $-1 $-1 $48 $90 #
ellipse-curve $-1 -45 25 10 0 -1 0 3.53553390593274 0 3.53553390593274 1 #
edge $-1 $77 $34 $56 $91 0 #
edge $-1 $35 $76 $53 $92 0 #
face $-1 $93 $33 $2 $-1 $94 forward single #
point $-1 -40 25 10 #
point $-1 -40 -25 10 #
face $-1 $95 $96 $2 $-1 $97 forward single #
loop $-1 $98 $99 $37 #
plane-surface $-1 0 0 -30 0 0 1 1 0 0 0 #
coedge $-1 $100 $101 $102 $103 0 $38 $-1 #
coedge $-1 $104 $40 $105 $106 1 $20 $-1 #
coedge $-1 $40 $104 $107 $108 1 $20 $-1 #
coedge $-1 $42 $41 $40 $71 0 $12 $-1 #
edge $-1 $109 $110 $40 $111 0 #
coedge $-1 $56 $105 $41 $73 0 $57 $-1 #
edge $-1 $109 $77 $72 $112 0 #
coedge $-1 $107 $53 $42 $75 0 $54 $-1 #
edge $-1 $76 $110 $74 $113 0 #
vertex $-1 $60 $114 #
vertex $-1 $59 $115 #
straight-curve $-1 -40 0 -10 0 1 0 #
coedge $-1 $116 $117 $45 $80 0 $118 $-1 #
edge $-1 $85 $82 $79 $119 0 #
coedge $-1 $46 $120 $116 $121 0 $54 $-1 #
vertex $-1 $121 $122 #
straight-curve $-1 -25 -25 15 1 -0 0 #
coedge $-1 $123 $48 $117 $124 1 $57 $-1 #
vertex $-1 $124 $125 #
straight-curve $-1 -25 25 15 -1 0 0 #
point $-1 -45 -25 15 #
point $-1 -45 25 15 #
face $-1 $126 $54 $2 $-1 $127 reversed single #
face $-1 $128 $57 $2 $-1 $129 reversed single #
straight-curve $-1 -40 25 0 0 0 1 #
straight-curve $-1 -40 -25 0 -0 0 -1 #
face $-1 $130 $131 $2 $-1 $132 reversed single #
plane-surface $-1 -40 0 0 -1 0 0 0 0 1 0 #
face $-1 $133 $134 $2 $-1 $135 forward single #
loop $-1 $-1 $136 $64 #
cone-surface $-1 15 0 -35 -0 1 -0 3.53553390593274 0 3.53553390593274 1 0 -1 0 #
loop $-1 $-1 $137 $37 #
coedge $-1 $99 $99 $138 $139 0 $65 $-1 #
coedge $-1 $140 $67 $141 $142 0 $38 $-1 #
coedge $-1 $67 $143 $144 $145 1 $38 $-1 #
coedge $-1 $146 $147 $67 $103 1 $148 $-1 #
edge $-1 $149 $150 $102 $151 0 #
coedge $-1 $69 $68 $152 $153 1 $20 $-1 #
coedge $-1 $72 $154 $68 $106 0 $57 $-1 #
edge $-1 $155 $109 $105 $156 0 #
coedge $-1 $157 $74 $69 $108 0 $54 $-1 #
edge $-1 $110 $158 $107 $159 0 #
vertex $-1 $106 $160 #
vertex $-1 $108 $161 #
straight-curve $-1 -45 0 -15 0 -1 0 #
ellipse-curve $-1 -45 25 -10 0 -1 0 3.53553390593274 0 -3.53553390593274 1 #
ellipse-curve $-1 -45 -25 -10 0 1 -0 3.53553390593274 0 -3.53553390593274 1 #
point $-1 -40 -25 -10 #
point $-1 -40 25 -10 #
coedge $-1 $162 $79 $81 $121 1 $118 $-1 #
coedge $-1 $79 $162 $84 $124 0 $118 $-1 #
loop $-1 $-1 $79 $130 #
straight-curve $-1 -60 0 15 0 -1 0 #
coedge $-1 $81 $163 $164 $165 0 $54 $-1 #
edge $-1 $166 $82 $116 $167 0 #
point $-1 -60 -25 15 #
coedge $-1 $168 $84 $169 $170 0 $57 $-1 #
edge $-1 $171 $85 $84 $172 0 #
point $-1 -60 25 15 #
face $-1 $90 $173 $2 $-1 $174 forward single #
plane-surface $-1 0 -25 0 0 1 -0 -0 0 1 0 #
face $-1 $175 $176 $2 $-1 $177 reversed single #
plane-surface $-1 0 25 0 0 -1 0 0 0 -1 0 #
face $-1 $89 $118 $2 $-1 $132 reversed single #
loop $-1 $-1 $152 $93 #
plane-surface $-1 -60 0 0 1 0 0 0 0 -1 0 #
face $-1 $178 $179 $2 $-1 $180 forward single #
loop $-1 $-1 $181 $95 #
cone-surface $-1 45 0 -10 0 1 0 -3.53553390593274 0 -3.53553390593274 1 0 -1 0 #
coedge $-1 $182 $183 $184 $185 0 $96 $-1 #
coedge $-1 $186 $187 $143 $188 1 $98 $-1 #
coedge $-1 $138 $138 $99 $139 1 $189 $-1 #
edge $-1 $190 $190 $99 $191 0 #
coedge $-1 $143 $100 $192 $193 1 $38 $-1 #
coedge $-1 $147 $194 $100 $142 1 $148 $-1 #
edge $-1 $150 $195 $141 $151 0 #
coedge $-1 $101 $140 $137 $188 0 $38 $-1 #
coedge $-1 $196 $197 $101 $145 0 $54 $-1 #
edge $-1 $149 $198 $144 $199 0 #
coedge $-1 $200 $102 $197 $201 1 $148 $-1 #
coedge $-1 $102 $141 $202 $203 0 $148 $-1 #
loop $-1 $-1 $102 $204 #
vertex $-1 $201 $205 #
vertex $-1 $203 $206 #
straight-curve $-1 -20 0 -35 0 1 0 #
coedge $-1 $207 $208 $104 $153 0 $131 $-1 #
edge $-1 $158 $155 $152 $209 0 #
coedge $-1 $105 $210 $207 $211 1 $57 $-1 #
vertex $-1 $153 $212 #
straight-curve $-1 -25 25 -15 1 0 -0 #
coedge $-1 $213 $107 $208 $214 0 $54 $-1 #
vertex $-1 $108 $215 #
straight-curve $-1 -25 -25 -15 -1 0 0 #
point $-1 -45 25 -15 #
point $-1 -45 -25 -15 #
coedge $-1 $117 $116 $216 $217 0 $118 $-1 #
coedge $-1 $120 $218 $219 $220 0 $54 $-1 #
coedge $-1 $221 $216 $120 $165 1 $222 $-1 #
edge $-1 $223 $166 $120 $224 0 #
vertex $-1 $165 $225 #
straight-curve $-1 -60 -25 0 0 0 -1 #
coedge $-1 $226 $123 $227 $228 0 $57 $-1 #
coedge $-1 $216 $221 $123 $170 1 $222 $-1 #
edge $-1 $171 $229 $123 $230 0 #
vertex $-1 $217 $231 #
straight-curve $-1 -60 25 0 0 0 -1 #
loop $-1 $-1 $232 $126 #
plane-surface $-1 40 0 0 1 0 0 0 0 -1 0 #
face $-1 $233 $189 $2 $-1 $234 reversed single #
loop $-1 $-1 $235 $128 #
plane-surface $-1 60 0 0 -1 0 0 0 -0 1 0 #
face $-1 $236 $237 $2 $-1 $238 forward single #
loop $-1 $-1 $239 $133 #
plane-surface $-1 50 0 -15 0 0 1 1 0 0 0 #
coedge $-1 $240 $241 $232 $242 0 $134 $-1 #
coedge $-1 $243 $136 $244 $245 0 $96 $-1 #
coedge $-1 $136 $246 $247 $248 1 $96 $-1 #
coedge $-1 $249 $250 $136 $185 1 $251 $-1 #
edge $-1 $252 $253 $184 $254 0 #
coedge $-1 $255 $137 $256 $257 1 $98 $-1 #
coedge $-1 $137 $255 $196 $258 1 $98 $-1 #
edge $-1 $259 $198 $137 $260 0 #
loop $-1 $261 $138 $175 #
vertex $-1 $139 $262 #
ellipse-curve $-1 0 0 -30 0 0 1 7.5 0 0 1 #
coedge $-1 $263 $256 $140 $193 0 $57 $-1 #
edge $-1 $259 $195 $192 $264 0 #
coedge $-1 $141 $200 $263 $265 1 $148 $-1 #
vertex $-1 $265 $266 #
coedge $-1 $267 $144 $187 $258 0 $54 $-1 #
coedge $-1 $144 $268 $146 $201 0 $54 $-1 #
vertex $-1 $258 $269 #
ellipse-curve $-1 -15 -25 -35 0 1 -0 -3.53553390593274 0 3.53553390593274 1 #
coedge $-1 $194 $146 $270 $271 1 $148 $-1 #
edge $-1 $272 $149 $197 $273 0 #
coedge $-1 $202 $202 $147 $203 1 $274 $-1 #
edge $-1 $150 $150 $147 $275 0 #
face $-1 $276 $148 $2 $-1 $277 forward single #
point $-1 -20 -25 -35 #
point $-1 -20 -3.49148133884313e-14 -34.9999999999999 #
coedge $-1 $278 $152 $154 $211 0 $131 $-1 #
coedge $-1 $152 $278 $157 $214 1 $131 $-1 #
straight-curve $-1 -60 0 -15 0 1 0 #
coedge $-1 $154 $279 $280 $281 0 $57 $-1 #
edge $-1 $155 $282 $154 $172 0 #
point $-1 -60 25 -15 #
coedge $-1 $283 $157 $284 $285 0 $54 $-1 #
edge $-1 $158 $286 $208 $167 0 #
point $-1 -60 -25 -15 #
coedge $-1 $164 $169 $162 $217 1 $222 $-1 #
edge $-1 $166 $171 $162 $287 0 #
coedge $-1 $163 $288 $289 $290 0 $54 $-1 #
coedge $-1 $291 $292 $163 $220 1 $293 $-1 #
edge $-1 $294 $223 $163 $295 0 #
coedge $-1 $169 $164 $292 $296 0 $222 $-1 #
loop $-1 $-1 $169 $297 #
vertex $-1 $165 $298 #
straight-curve $-1 -30 -25 30 -1 0 0 #
point $-1 -60 -25 30 #
coedge $-1 $299 $168 $300 $301 0 $57 $-1 #
coedge $-1 $292 $291 $168 $228 1 $293 $-1 #
edge $-1 $229 $302 $168 $303 0 #
vertex $-1 $170 $304 #
straight-curve $-1 -30 25 30 1 0 -0 #
point $-1 -60 25 30 #
coedge $-1 $305 $306 $181 $242 1 $173 $-1 #
face $-1 $307 $308 $2 $-1 $309 reversed single #
cone-surface $-1 0 0 0 0 0 1 7.5 0 0 1 0 1 0 #
coedge $-1 $310 $311 $312 $313 0 $176 $-1 #
face $-1 $314 $315 $2 $-1 $316 reversed single #
loop $-1 $-1 $317 $178 #
cone-surface $-1 45 0 10 -0 -1 0 -3.53553390593274 0 3.53553390593274 1 0 -1 0 #
coedge $-1 $318 $319 $320 $321 1 $179 $-1 #
coedge $-1 $320 $181 $322 $323 1 $134 $-1 #
coedge $-1 $181 $320 $324 $325 1 $134 $-1 #
edge $-1 $326 $327 $232 $328 0 #
coedge $-1 $246 $182 $267 $329 1 $96 $-1 #
coedge $-1 $250 $330 $182 $245 1 $251 $-1 #
edge $-1 $253 $331 $244 $254 0 #
coedge $-1 $183 $243 $255 $332 0 $96 $-1 #
coedge $-1 $256 $333 $183 $248 0 $57 $-1 #
edge $-1 $252 $334 $247 $335 0 #
coedge $-1 $336 $184 $333 $337 1 $251 $-1 #
coedge $-1 $184 $244 $338 $339 0 $251 $-1 #
loop $-1 $-1 $184 $276 #
vertex $-1 $337 $340 #
vertex $-1 $339 $341 #
straight-curve $-1 20 0 -35 -0 -1 -0 #
coedge $-1 $187 $186 $246 $332 1 $98 $-1 #
coedge $-1 $192 $247 $186 $257 0 $57 $-1 #
edge $-1 $334 $259 $256 $342 0 #
edge $-1 $198 $343 $196 $344 0 #
vertex $-1 $257 $345 #
straight-curve $-1 -15 0 -30 0 -1 0 #
loop $-1 $-1 $346 $175 #
point $-1 -7.5 5.2372220082647e-14 -30 #
coedge $-1 $347 $192 $194 $265 0 $57 $-1 #
ellipse-curve $-1 -15 25 -35 0 -1 0 -3.53553390593274 0 3.53553390593274 1 #
edge $-1 $195 $348 $263 $349 0 #
point $-1 -20 25 -35 #
coedge $-1 $350 $196 $243 $329 0 $54 $-1 #
coedge $-1 $197 $351 $352 $353 1 $54 $-1 #
point $-1 -15 -25 -30 #
coedge $-1 $352 $354 $200 $271 0 $355 $-1 #
edge $-1 $348 $272 $270 $356 0 #
vertex $-1 $271 $357 #
straight-curve $-1 -20 -25 -20 -0 0 1 #
loop $-1 $358 $202 $307 #
ellipse-curve $-1 -20 0 -39.9999999999999 -1 -0 -0 -1.74574066942157e-14 0 -5 1 #
face $-1 $359 $251 $2 $-1 $360 forward single #
plane-surface $-1 -20 0 -40 1 0 0 0 0 -1 0 #
coedge $-1 $208 $207 $361 $362 0 $131 $-1 #
coedge $-1 $210 $363 $364 $365 0 $57 $-1 #
coedge $-1 $366 $361 $210 $281 1 $367 $-1 #
edge $-1 $368 $282 $210 $369 0 #
vertex $-1 $211 $370 #
coedge $-1 $351 $213 $371 $372 0 $54 $-1 #
coedge $-1 $361 $366 $213 $285 1 $367 $-1 #
edge $-1 $286 $373 $213 $374 0 #
vertex $-1 $214 $375 #
straight-curve $-1 -60 0 30 0 1 0 #
coedge $-1 $218 $376 $377 $378 1 $54 $-1 #
coedge $-1 $379 $380 $218 $290 1 $381 $-1 #
edge $-1 $382 $294 $218 $383 0 #
coedge $-1 $227 $219 $380 $384 1 $293 $-1 #
coedge $-1 $219 $227 $221 $296 1 $293 $-1 #
loop $-1 $-1 $227 $385 #
vertex $-1 $220 $386 #
ellipse-curve $-1 -42.5 -25 32.5 0 1 -0 1.76776695296637 0 -1.76776695296637 1 #
edge $-1 $223 $229 $221 $387 0 #
face $-1 $385 $222 $2 $-1 $388 forward single #
point $-1 -42.5 -25 30 #
coedge $-1 $389 $226 $390 $391 1 $57 $-1 #
coedge $-1 $380 $379 $226 $301 1 $381 $-1 #
edge $-1 $302 $392 $226 $393 0 #
vertex $-1 $228 $394 #
ellipse-curve $-1 -42.5 25 32.5 0 -1 0 1.76776695296637 0 -1.76776695296637 1 #
point $-1 -42.5 25 30 #
coedge $-1 $395 $232 $396 $397 1 $173 $-1 #
coedge $-1 $232 $395 $398 $399 1 $173 $-1 #
face $-1 $400 $274 $2 $-1 $309 reversed single #
loop $-1 $401 $402 $233 #
cone-surface $-1 0 0 -40 1 0 -3.49148133884313e-15 -1.74574066942157e-14 0 -5 1 0 1 0 #
coedge $-1 $403 $235 $404 $405 0 $176 $-1 #
coedge $-1 $235 $403 $406 $407 1 $176 $-1 #
coedge $-1 $319 $318 $235 $313 1 $179 $-1 #
edge $-1 $408 $409 $235 $410 0 #
face $-1 $411 $412 $2 $-1 $413 forward single #
loop $-1 $-1 $414 $236 #
plane-surface $-1 50 0 15 0 0 1 1 0 0 0 #
coedge $-1 $415 $416 $395 $417 0 $237 $-1 #
coedge $-1 $312 $239 $418 $419 1 $179 $-1 #
coedge $-1 $239 $312 $420 $421 1 $179 $-1 #
coedge $-1 $241 $240 $239 $321 0 $134 $-1 #
edge $-1 $422 $423 $239 $424 0 #
coedge $-1 $398 $418 $240 $323 0 $54 $-1 #
edge $-1 $422 $327 $322 $425 0 #
coedge $-1 $420 $396 $241 $325 0 $57 $-1 #
edge $-1 $326 $423 $324 $426 0 #
vertex $-1 $397 $427 #
vertex $-1 $399 $428 #
straight-curve $-1 40 0 -10 -0 -1 -0 #
edge $-1 $343 $331 $267 $429 0 #
coedge $-1 $244 $336 $350 $430 1 $251 $-1 #
vertex $-1 $430 $431 #
edge $-1 $343 $334 $255 $432 0 #
coedge $-1 $247 $433 $249 $337 0 $57 $-1 #
vertex $-1 $257 $434 #
ellipse-curve $-1 15 25 -35 0 -1 0 3.53553390593274 0 3.53553390593274 1 #
coedge $-1 $330 $249 $435 $436 1 $251 $-1 #
edge $-1 $437 $252 $333 $438 0 #
coedge $-1 $338 $338 $250 $339 1 $401 $-1 #
edge $-1 $253 $253 $250 $439 0 #
point $-1 20 25 -35 #
point $-1 20 3.49148133884313e-14 -35.0000000000001 #
straight-curve $-1 0 25 -30 -1 0 0 #
vertex $-1 $258 $440 #
straight-curve $-1 0 -25 -30 1 -0 0 #
point $-1 -15 25 -30 #
coedge $-1 $346 $346 $441 $442 1 $261 $-1 #
coedge $-1 $363 $263 $354 $443 1 $57 $-1 #
vertex $-1 $443 $444 #
straight-curve $-1 -20 25 -20 0 0 -1 #
coedge $-1 $445 $267 $330 $430 0 $54 $-1 #
coedge $-1 $268 $283 $446 $447 0 $54 $-1 #
coedge $-1 $448 $270 $268 $353 0 $355 $-1 #
edge $-1 $272 $449 $268 $450 0 #
coedge $-1 $270 $448 $347 $443 0 $355 $-1 #
loop $-1 $-1 $270 $359 #
straight-curve $-1 -20 0 -50 0 -1 0 #
point $-1 -20 -25 -50 #
loop $-1 $-1 $451 $307 #
face $-1 $452 $355 $2 $-1 $453 reversed single #
plane-surface $-1 20 0 -40 -1 0 0 0 0 1 0 #
coedge $-1 $280 $284 $278 $362 1 $367 $-1 #
edge $-1 $282 $286 $278 $454 0 #
coedge $-1 $279 $347 $455 $456 0 $57 $-1 #
coedge $-1 $457 $458 $279 $365 1 $459 $-1 #
edge $-1 $460 $368 $279 $461 0 #
coedge $-1 $284 $280 $458 $462 0 $367 $-1 #
loop $-1 $-1 $280 $463 #
vertex $-1 $281 $464 #
straight-curve $-1 -30 25 -30 -1 0 0 #
point $-1 -60 25 -30 #
coedge $-1 $458 $457 $283 $372 1 $459 $-1 #
edge $-1 $373 $465 $283 $466 0 #
vertex $-1 $285 $467 #
straight-curve $-1 -30 -25 -30 1 -0 0 #
point $-1 -60 -25 -30 #
coedge $-1 $288 $468 $469 $470 0 $54 $-1 #
coedge $-1 $471 $472 $288 $378 0 $473 $-1 #
edge $-1 $382 $474 $288 $475 0 #
coedge $-1 $300 $289 $472 $476 1 $381 $-1 #
coedge $-1 $289 $300 $291 $384 0 $381 $-1 #
loop $-1 $-1 $300 $477 #
vertex $-1 $290 $478 #
straight-curve $-1 -40 -25 25 -0 0 -1 #
edge $-1 $302 $294 $380 $479 0 #
face $-1 $480 $293 $2 $-1 $481 reversed single #
point $-1 -40 -25 32.5 #
straight-curve $-1 -42.5 0 30 0 1 0 #
plane-surface $-1 -60 0 30 0 0 1 1 0 0 0 #
coedge $-1 $482 $299 $483 $484 0 $57 $-1 #
coedge $-1 $472 $471 $299 $391 0 $473 $-1 #
edge $-1 $485 $392 $299 $486 0 #
vertex $-1 $391 $487 #
straight-curve $-1 -40 25 25 0 0 1 #
point $-1 -40 25 32.5 #
coedge $-1 $306 $305 $317 $417 1 $173 $-1 #
coedge $-1 $324 $488 $305 $397 0 $57 $-1 #
edge $-1 $489 $326 $396 $490 0 #
coedge $-1 $491 $322 $306 $399 0 $54 $-1 #
edge $-1 $327 $492 $398 $493 0 #
face $-1 $494 $495 $2 $-1 $496 reversed single #
loop $-1 $-1 $338 $233 #
coedge $-1 $402 $402 $497 $498 1 $308 $-1 #
coedge $-1 $311 $310 $499 $500 0 $176 $-1 #
coedge $-1 $418 $501 $310 $405 1 $54 $-1 #
edge $-1 $409 $502 $310 $503 0 #
coedge $-1 $504 $420 $311 $407 0 $57 $-1 #
edge $-1 $408 $505 $311 $506 0 #
vertex $-1 $313 $507 #
vertex $-1 $419 $508 #
straight-curve $-1 60 0 -15 0 -1 0 #
face $-1 $509 $510 $2 $-1 $511 forward single #
loop $-1 $-1 $512 $314 #
cone-surface $-1 15 0 35 0 -1 -0 3.53553390593274 0 -3.53553390593274 1 0 -1 0 #
coedge $-1 $513 $514 $515 $516 1 $315 $-1 #
coedge $-1 $515 $317 $488 $517 1 $237 $-1 #
coedge $-1 $317 $515 $491 $518 1 $237 $-1 #
edge $-1 $492 $489 $395 $519 0 #
coedge $-1 $322 $404 $318 $419 0 $54 $-1 #
edge $-1 $409 $422 $418 $520 0 #
coedge $-1 $406 $324 $319 $421 0 $57 $-1 #
edge $-1 $423 $408 $420 $521 0 #
vertex $-1 $419 $522 #
vertex $-1 $421 $523 #
straight-curve $-1 45 0 -15 0 1 0 #
ellipse-curve $-1 45 -25 -10 0 1 -0 -3.53553390593274 0 -3.53553390593274 1 #
ellipse-curve $-1 45 25 -10 0 -1 0 -3.53553390593274 0 -3.53553390593274 1 #
point $-1 40 25 -10 #
point $-1 40 -25 -10 #
ellipse-curve $-1 15 -25 -35 0 1 -0 3.53553390593274 0 3.53553390593274 1 #
edge $-1 $331 $524 $350 $525 0 #
point $-1 20 -25 -35 #
straight-curve $-1 15 0 -30 0 1 0 #
coedge $-1 $333 $526 $527 $528 1 $57 $-1 #
point $-1 15 25 -30 #
coedge $-1 $527 $529 $336 $436 0 $530 $-1 #
edge $-1 $524 $437 $435 $531 0 #
vertex $-1 $436 $532 #
straight-curve $-1 20 25 -20 0 0 1 #
ellipse-curve $-1 20 0 -40.0000000000001 1 -0 -0 -1.74574066942157e-14 0 -5 1 #
point $-1 15 -25 -30 #
coedge $-1 $441 $441 $346 $442 0 $510 $-1 #
edge $-1 $533 $533 $441 $534 0 #
edge $-1 $535 $348 $347 $536 0 #
point $-1 -20 25 -50 #
coedge $-1 $537 $350 $529 $538 1 $54 $-1 #
coedge $-1 $539 $540 $351 $447 1 $541 $-1 #
edge $-1 $465 $449 $351 $542 0 #
coedge $-1 $354 $352 $540 $543 0 $355 $-1 #
vertex $-1 $353 $544 #
straight-curve $-1 0 -25 -50 -1 0 0 #
coedge $-1 $451 $451 $545 $546 1 $358 $-1 #
face $-1 $547 $548 $2 $-1 $549 forward single #
plane-surface $-1 0 0 -50 0 0 1 1 0 0 0 #
straight-curve $-1 -60 0 -30 0 -1 0 #
coedge $-1 $540 $539 $363 $456 1 $541 $-1 #
edge $-1 $535 $460 $363 $550 0 #
coedge $-1 $371 $364 $539 $551 1 $459 $-1 #
coedge $-1 $364 $371 $366 $462 1 $459 $-1 #
loop $-1 $-1 $364 $552 #
vertex $-1 $365 $553 #
ellipse-curve $-1 -42.5 25 -32.5 0 -1 0 1.76776695296637 0 1.76776695296637 1 #
edge $-1 $368 $373 $366 $554 0 #
face $-1 $552 $367 $2 $-1 $555 reversed single #
point $-1 -42.5 25 -30 #
vertex $-1 $372 $556 #
ellipse-curve $-1 -42.5 -25 -32.5 0 1 -0 1.76776695296637 0 1.76776695296637 1 #
point $-1 -42.5 -25 -30 #
coedge $-1 $376 $557 $558 $559 0 $54 $-1 #
coedge $-1 $560 $561 $376 $470 1 $548 $-1 #
edge $-1 $562 $474 $376 $563 0 #
coedge $-1 $390 $377 $561 $564 0 $473 $-1 #
coedge $-1 $377 $390 $379 $476 0 $473 $-1 #
loop $-1 $-1 $471 $480 #
vertex $-1 $378 $565 #
straight-curve $-1 0 -25 50 1 0 0 #
edge $-1 $392 $382 $472 $566 0 #
face $-1 $297 $567 $2 $-1 $568 forward single #
point $-1 -40 -25 50 #
straight-curve $-1 -40 0 32.5 0 -1 0 #
face $-1 $569 $473 $2 $-1 $570 forward single #
cone-surface $-1 -42.5 0 32.5 0 -1 0 1.76776695296637 0 -1.76776695296637 1 0 1 0 #
coedge $-1 $571 $389 $572 $573 0 $57 $-1 #
coedge $-1 $561 $574 $389 $484 1 $548 $-1 #
edge $-1 $485 $575 $389 $576 0 #
vertex $-1 $564 $577 #
straight-curve $-1 0 25 50 -1 0 0 #
point $-1 -40 25 50 #
coedge $-1 $396 $578 $415 $517 0 $57 $-1 #
vertex $-1 $397 $579 #
straight-curve $-1 40 25 0 0 0 -1 #
coedge $-1 $580 $398 $416 $518 0 $54 $-1 #
vertex $-1 $399 $581 #
straight-curve $-1 40 -25 0 -0 0 1 #
face $-1 $204 $582 $2 $-1 $496 reversed single #
loop $-1 $583 $584 $400 #
cone-surface $-1 0 0 40 1 0 -3.49148133884313e-15 -1.74574066942157e-14 0 -5 1 0 1 0 #
coedge $-1 $497 $497 $402 $498 0 $585 $-1 #
edge $-1 $586 $586 $497 $587 0 #
coedge $-1 $588 $589 $403 $500 1 $590 $-1 #
edge $-1 $502 $505 $403 $591 0 #
coedge $-1 $404 $592 $588 $593 0 $54 $-1 #
vertex $-1 $405 $594 #
straight-curve $-1 60 -25 0 0 0 -1 #
coedge $-1 $595 $406 $589 $596 0 $57 $-1 #
vertex $-1 $407 $597 #
straight-curve $-1 60 25 0 0 0 -1 #
point $-1 60 25 -15 #
point $-1 60 -25 -15 #
face $-1 $61 $598 $2 $-1 $599 forward single #
loop $-1 $600 $441 $411 #
plane-surface $-1 0 0 30 0 0 1 1 0 0 0 #
coedge $-1 $601 $602 $603 $604 0 $412 $-1 #
coedge $-1 $605 $414 $578 $606 1 $315 $-1 #
coedge $-1 $414 $605 $580 $607 1 $315 $-1 #
coedge $-1 $416 $415 $414 $516 0 $237 $-1 #
edge $-1 $608 $609 $414 $610 0 #
edge $-1 $608 $489 $488 $611 0 #
edge $-1 $492 $609 $491 $612 0 #
straight-curve $-1 40 0 10 0 1 0 #
straight-curve $-1 25 -25 -15 -1 0 0 #
straight-curve $-1 25 25 -15 1 0 -0 #
point $-1 45 -25 -15 #
point $-1 45 25 -15 #
vertex $-1 $538 $613 #
straight-curve $-1 20 -25 -20 -0 0 -1 #
coedge $-1 $433 $595 $614 $615 0 $57 $-1 #
coedge $-1 $616 $435 $433 $528 0 $530 $-1 #
edge $-1 $437 $617 $433 $536 0 #
coedge $-1 $435 $616 $445 $538 0 $530 $-1 #
loop $-1 $-1 $435 $618 #
straight-curve $-1 20 0 -50 0 1 -0 #
point $-1 20 25 -50 #
vertex $-1 $442 $619 #
ellipse-curve $-1 0 0 30 -0 -0 -1 7.5 0 0 1 #
vertex $-1 $543 $620 #
straight-curve $-1 0 25 -50 1 0 0 #
coedge $-1 $592 $445 $621 $622 0 $54 $-1 #
edge $-1 $623 $524 $445 $450 0 #
coedge $-1 $455 $446 $457 $551 0 $541 $-1 #
coedge $-1 $446 $455 $448 $543 1 $541 $-1 #
loop $-1 $-1 $455 $624 #
straight-curve $-1 -40 -25 -25 -0 0 -1 #
edge $-1 $449 $535 $448 $625 0 #
point $-1 -40 -25 -50 #
coedge $-1 $545 $545 $451 $546 0 $626 $-1 #
edge $-1 $627 $627 $545 $628 0 #
face $-1 $629 $630 $2 $-1 $631 forward single #
loop $-1 $-1 $574 $452 #
plane-surface $-1 -20 0 40 1 0 0 0 0 -1 0 #
straight-curve $-1 -40 25 -25 0 0 1 #
edge $-1 $465 $460 $539 $632 0 #
face $-1 $624 $459 $2 $-1 $633 reversed single #
point $-1 -40 25 -32.5 #
straight-curve $-1 -42.5 0 -30 -0 -1 -0 #
plane-surface $-1 -60 0 -30 0 0 1 1 0 0 0 #
point $-1 -40 -25 -32.5 #
coedge $-1 $468 $634 $635 $636 0 $54 $-1 #
coedge $-1 $637 $638 $468 $559 1 $598 $-1 #
edge $-1 $639 $562 $468 $640 0 #
coedge $-1 $641 $469 $638 $642 1 $548 $-1 #
coedge $-1 $469 $483 $471 $564 1 $548 $-1 #
vertex $-1 $470 $643 #
straight-curve $-1 -20 -25 20 -0 0 1 #
edge $-1 $474 $485 $471 $644 0 #
point $-1 -20 -25 50 #
straight-curve $-1 -40 0 50 0 -1 0 #
loop $-1 $381 $645 $477 #
plane-surface $-1 -40 0 50 -1 0 0 0 0 1 0 #
face $-1 $646 $585 $2 $-1 $647 forward single #
plane-surface $-1 0 0 50 0 0 1 1 0 0 0 #
coedge $-1 $648 $482 $649 $650 0 $57 $-1 #
coedge $-1 $651 $637 $482 $573 1 $598 $-1 #
edge $-1 $575 $652 $482 $653 0 #
coedge $-1 $483 $654 $651 $655 1 $548 $-1 #
vertex $-1 $484 $656 #
straight-curve $-1 -20 25 20 0 0 -1 #
point $-1 -20 25 50 #
coedge $-1 $488 $657 $513 $606 0 $57 $-1 #
point $-1 40 25 10 #
coedge $-1 $658 $491 $514 $607 0 $54 $-1 #
point $-1 40 -25 10 #
loop $-1 $659 $660 $494 #
loop $-1 $-1 $661 $400 #
coedge $-1 $584 $584 $662 $663 1 $495 $-1 #
loop $-1 $664 $497 $569 #
vertex $-1 $498 $665 #
ellipse-curve $-1 40 0 -40.0000000000001 -1 -0 -0 -1.74574066942157e-14 0 -5 1 #
coedge $-1 $666 $499 $501 $593 1 $590 $-1 #
coedge $-1 $499 $666 $504 $596 1 $590 $-1 #
loop $-1 $-1 $589 $667 #
straight-curve $-1 60 0 -30 0 1 -0 #
coedge $-1 $501 $537 $668 $669 0 $54 $-1 #
edge $-1 $670 $502 $501 $671 0 #
point $-1 60 -25 -30 #
coedge $-1 $526 $504 $672 $673 0 $57 $-1 #
edge $-1 $505 $674 $504 $675 0 #
point $-1 60 25 -30 #
loop $-1 $-1 $651 $509 #
cone-surface $-1 -15 0 35 0 1 0 -3.53553390593274 0 -3.53553390593274 1 0 -1 0 #
loop $-1 $-1 $676 $411 #
coedge $-1 $677 $512 $678 $679 0 $412 $-1 #
coedge $-1 $512 $680 $634 $681 1 $412 $-1 #
coedge $-1 $682 $683 $512 $604 1 $630 $-1 #
edge $-1 $684 $685 $603 $686 0 #
coedge $-1 $514 $513 $687 $688 1 $315 $-1 #
edge $-1 $689 $608 $578 $690 0 #
edge $-1 $609 $691 $580 $692 0 #
vertex $-1 $606 $693 #
vertex $-1 $607 $694 #
straight-curve $-1 45 0 15 0 -1 0 #
ellipse-curve $-1 45 25 10 0 -1 0 -3.53553390593274 0 3.53553390593274 1 #
ellipse-curve $-1 45 -25 10 0 1 -0 -3.53553390593274 0 3.53553390593274 1 #
point $-1 20 -25 -50 #
coedge $-1 $695 $696 $526 $615 1 $664 $-1 #
edge $-1 $697 $617 $526 $698 0 #
coedge $-1 $529 $527 $696 $699 0 $530 $-1 #
vertex $-1 $528 $700 #
face $-1 $701 $530 $2 $-1 $453 reversed single #
point $-1 -7.5 -5.2372220082647e-14 30 #
point $-1 -40 25 -50 #
coedge $-1 $696 $695 $537 $622 1 $664 $-1 #
edge $-1 $623 $702 $537 $703 0 #
vertex $-1 $622 $704 #
face $-1 $477 $626 $2 $-1 $705 forward single #
straight-curve $-1 -40 0 -50 0 1 -0 #
loop $-1 $541 $545 $624 #
vertex $-1 $546 $706 #
ellipse-curve $-1 -40 0 -39.9999999999999 1 -0 -0 -1.74574066942157e-14 0 -5 1 #
face $-1 $463 $707 $2 $-1 $570 forward single #
loop $-1 $-1 $603 $547 #
plane-surface $-1 20 0 40 -1 0 0 0 0 1 0 #
straight-curve $-1 -40 0 -32.5 0 1 0 #
cone-surface $-1 -42.5 0 -32.5 0 1 0 1.76776695296637 0 1.76776695296637 1 0 1 0 #
coedge $-1 $557 $708 $602 $681 0 $54 $-1 #
coedge $-1 $676 $709 $557 $636 1 $600 $-1 #
edge $-1 $710 $639 $557 $711 0 #
coedge $-1 $572 $558 $709 $712 0 $598 $-1 #
coedge $-1 $558 $651 $560 $642 0 $598 $-1 #
vertex $-1 $636 $713 #
ellipse-curve $-1 -15 -25 35 0 1 -0 -3.53553390593274 0 -3.53553390593274 1 #
coedge $-1 $654 $560 $714 $715 0 $548 $-1 #
edge $-1 $716 $562 $560 $717 0 #
point $-1 -20 -25 35 #
straight-curve $-1 -20 0 50 0 1 0 #
coedge $-1 $645 $645 $718 $719 0 $567 $-1 #
face $-1 $667 $720 $2 $-1 $721 reversed single #
plane-surface $-1 40 0 -50 1 0 0 0 0 -1 0 #
coedge $-1 $722 $571 $677 $723 0 $57 $-1 #
coedge $-1 $709 $676 $571 $650 1 $600 $-1 #
edge $-1 $652 $724 $571 $725 0 #
coedge $-1 $638 $572 $574 $655 0 $598 $-1 #
vertex $-1 $650 $726 #
ellipse-curve $-1 -15 25 35 0 -1 0 -3.53553390593274 0 -3.53553390593274 1 #
coedge $-1 $574 $641 $660 $727 0 $548 $-1 #
edge $-1 $575 $716 $574 $717 0 #
point $-1 -20 25 35 #
coedge $-1 $578 $728 $729 $730 0 $57 $-1 #
coedge $-1 $731 $580 $732 $733 1 $54 $-1 #
loop $-1 $-1 $718 $494 #
coedge $-1 $714 $714 $654 $727 1 $582 $-1 #
coedge $-1 $734 $734 $683 $735 1 $583 $-1 #
coedge $-1 $662 $662 $584 $663 0 $736 $-1 #
edge $-1 $737 $737 $662 $738 0 #
loop $-1 $-1 $614 $569 #
point $-1 40 -3.49148133884313e-14 -35.0000000000001 #
coedge $-1 $589 $588 $739 $740 0 $590 $-1 #
face $-1 $618 $590 $2 $-1 $741 reversed single #
coedge $-1 $742 $739 $592 $669 1 $720 $-1 #
edge $-1 $702 $670 $592 $743 0 #
vertex $-1 $669 $744 #
straight-curve $-1 30 -25 -30 1 -0 0 #
coedge $-1 $739 $742 $595 $673 1 $720 $-1 #
edge $-1 $674 $697 $595 $745 0 #
vertex $-1 $673 $746 #
straight-curve $-1 30 25 -30 -1 0 0 #
coedge $-1 $649 $635 $680 $747 1 $600 $-1 #
coedge $-1 $680 $601 $648 $723 1 $412 $-1 #
coedge $-1 $748 $749 $601 $679 1 $630 $-1 #
edge $-1 $685 $750 $678 $686 0 #
coedge $-1 $602 $677 $676 $747 0 $412 $-1 #
edge $-1 $684 $710 $634 $751 0 #
coedge $-1 $752 $603 $708 $753 1 $630 $-1 #
coedge $-1 $603 $748 $661 $735 0 $630 $-1 #
vertex $-1 $753 $754 #
vertex $-1 $735 $755 #
straight-curve $-1 20 0 35 0 1 0 #
coedge $-1 $729 $732 $605 $688 0 $756 $-1 #
edge $-1 $691 $689 $687 $757 0 #
vertex $-1 $730 $758 #
straight-curve $-1 25 25 15 -1 0 0 #
vertex $-1 $733 $759 #
straight-curve $-1 25 -25 15 1 -0 0 #
point $-1 45 25 15 #
point $-1 45 -25 15 #
coedge $-1 $621 $614 $742 $760 0 $664 $-1 #
coedge $-1 $614 $621 $616 $699 1 $664 $-1 #
vertex $-1 $673 $761 #
straight-curve $-1 40 25 -25 0 0 -1 #
edge $-1 $617 $623 $616 $762 0 #
point $-1 40 25 -50 #
face $-1 $763 $764 $2 $-1 $765 forward single #
vertex $-1 $669 $766 #
straight-curve $-1 40 -25 -25 -0 0 1 #
point $-1 40 -25 -50 #
plane-surface $-1 -40 0 -50 -1 0 0 0 0 1 0 #
point $-1 -40 3.49148133884313e-14 -34.9999999999999 #
loop $-1 $-1 $767 $629 #
coedge $-1 $634 $768 $682 $753 0 $54 $-1 #
coedge $-1 $635 $649 $637 $712 1 $600 $-1 #
vertex $-1 $636 $769 #
straight-curve $-1 0 -25 30 -1 0 0 #
edge $-1 $639 $652 $709 $770 0 #
point $-1 -15 -25 30 #
coedge $-1 $660 $660 $641 $715 1 $582 $-1 #
edge $-1 $716 $771 $641 $772 0 #
vertex $-1 $727 $773 #
straight-curve $-1 -20 0 35 -0 -1 -0 #
coedge $-1 $718 $718 $645 $719 1 $659 $-1 #
edge $-1 $774 $774 $645 $775 0 #
loop $-1 $-1 $672 $646 #
cone-surface $-1 42.5 0 -32.5 0 -1 0 -1.76776695296637 0 1.76776695296637 1 0 1 0 #
coedge $-1 $776 $648 $749 $777 0 $57 $-1 #
edge $-1 $724 $750 $648 $778 0 #
vertex $-1 $650 $779 #
straight-curve $-1 0 25 30 1 0 -0 #
point $-1 -15 25 30 #
edge $-1 $771 $716 $654 $772 0 #
coedge $-1 $657 $780 $781 $782 0 $57 $-1 #
coedge $-1 $783 $687 $657 $730 1 $756 $-1 #
edge $-1 $784 $689 $729 $506 0 #
coedge $-1 $785 $658 $786 $787 0 $54 $-1 #
coedge $-1 $687 $783 $658 $733 0 $756 $-1 #
edge $-1 $788 $691 $732 $503 0 #
coedge $-1 $661 $661 $748 $789 1 $583 $-1 #
edge $-1 $790 $685 $683 $791 0 #
loop $-1 $792 $662 $793 #
vertex $-1 $663 $794 #
ellipse-curve $-1 40 0 39.9999999999999 -1 -0 -0 -1.74574066942157e-14 0 -5 1 #
coedge $-1 $668 $672 $666 $740 1 $720 $-1 #
edge $-1 $670 $674 $666 $795 0 #
plane-surface $-1 60 0 -30 0 0 1 1 0 0 0 #
coedge $-1 $672 $668 $695 $760 1 $720 $-1 #
ellipse-curve $-1 42.5 -25 -32.5 0 1 -0 -1.76776695296637 0 1.76776695296637 1 #
point $-1 42.5 -25 -30 #
ellipse-curve $-1 42.5 25 -32.5 0 -1 0 -1.76776695296637 0 1.76776695296637 1 #
point $-1 42.5 25 -30 #
edge $-1 $724 $710 $676 $796 0 #
coedge $-1 $683 $678 $734 $789 0 $630 $-1 #
coedge $-1 $678 $752 $722 $777 1 $630 $-1 #
vertex $-1 $777 $797 #
ellipse-curve $-1 15 -25 35 0 1 -0 3.53553390593274 0 -3.53553390593274 1 #
coedge $-1 $749 $682 $767 $798 1 $630 $-1 #
edge $-1 $799 $684 $708 $800 0 #
point $-1 20 -25 35 #
point $-1 20 0 35 #
loop $-1 $-1 $687 $801 #
straight-curve $-1 60 0 15 0 1 -0 #
point $-1 60 25 15 #
point $-1 60 -25 15 #
edge $-1 $697 $702 $695 $802 0 #
point $-1 40 25 -32.5 #
straight-curve $-1 40 0 -50 0 -1 0 #
face $-1 $793 $803 $2 $-1 $804 reversed single #
loop $-1 $-1 $781 $701 #
plane-surface $-1 60 0 30 0 0 1 1 0 0 0 #
point $-1 40 -25 -32.5 #
coedge $-1 $805 $806 $752 $798 0 $707 $-1 #
coedge $-1 $708 $807 $805 $808 1 $54 $-1 #
point $-1 15 -25 30 #
straight-curve $-1 -15 0 30 0 1 0 #
vertex $-1 $715 $809 #
ellipse-curve $-1 -20 0 40.0000000000001 -1 -0 -0 -1.74574066942157e-14 0 -5 1 #
point $-1 -20 0 35 #
vertex $-1 $719 $810 #
ellipse-curve $-1 -40 0 40.0000000000001 1 -0 -0 -1.74574066942157e-14 0 -5 1 #
coedge $-1 $811 $722 $806 $812 1 $57 $-1 #
edge $-1 $750 $813 $722 $814 0 #
ellipse-curve $-1 15 25 35 0 -1 0 3.53553390593274 0 -3.53553390593274 1 #
point $-1 15 25 30 #
coedge $-1 $728 $811 $815 $816 0 $57 $-1 #
coedge $-1 $817 $818 $728 $782 1 $764 $-1 #
edge $-1 $819 $784 $728 $820 0 #
coedge $-1 $732 $729 $818 $821 0 $756 $-1 #
vertex $-1 $782 $822 #
coedge $-1 $807 $731 $823 $824 0 $54 $-1 #
coedge $-1 $818 $817 $731 $787 1 $764 $-1 #
edge $-1 $788 $825 $731 $826 0 #
vertex $-1 $787 $827 #
edge $-1 $685 $790 $748 $791 0 #
vertex $-1 $789 $828 #
ellipse-curve $-1 20 0 39.9999999999999 1 -0 -0 -1.74574066942157e-14 0 -5 1 #
loop $-1 $-1 $829 $793 #
face $-1 $801 $736 $2 $-1 $830 forward single #
point $-1 40 -3.49148133884313e-14 44.9999999999999 #
straight-curve $-1 42.5 0 -30 0 1 0 #
straight-curve $-1 15 0 30 0 -1 0 #
point $-1 20 25 35 #
edge $-1 $813 $799 $767 $831 0 #
vertex $-1 $753 $832 #
straight-curve $-1 20 -25 20 -0 0 -1 #
face $-1 $-1 $756 $2 $-1 $177 reversed single #
straight-curve $-1 40 0 -32.5 0 -1 0 #
loop $-1 $-1 $815 $763 #
cone-surface $-1 42.5 0 32.5 0 1 0 -1.76776695296637 0 -1.76776695296637 1 0 1 0 #
coedge $-1 $833 $767 $768 $808 0 $707 $-1 #
coedge $-1 $767 $833 $776 $812 0 $707 $-1 #
coedge $-1 $768 $785 $834 $835 0 $54 $-1 #
edge $-1 $799 $836 $768 $475 0 #
point $-1 -20 -3.49148133884313e-14 45.0000000000001 #
point $-1 -40 3.49148133884313e-14 45.0000000000001 #
coedge $-1 $780 $776 $829 $837 0 $57 $-1 #
edge $-1 $838 $813 $776 $486 0 #
vertex $-1 $812 $839 #
straight-curve $-1 20 25 20 0 0 1 #
coedge $-1 $840 $841 $780 $816 1 $803 $-1 #
edge $-1 $842 $819 $780 $843 0 #
coedge $-1 $786 $781 $841 $844 0 $764 $-1 #
coedge $-1 $781 $786 $783 $821 1 $764 $-1 #
vertex $-1 $816 $845 #
straight-curve $-1 30 25 30 1 0 -0 #
edge $-1 $784 $788 $783 $846 0 #
point $-1 60 25 30 #
coedge $-1 $841 $840 $785 $824 1 $803 $-1 #
edge $-1 $825 $847 $785 $848 0 #
vertex $-1 $824 $849 #
straight-curve $-1 30 -25 30 -1 0 0 #
point $-1 60 -25 30 #
point $-1 20 3.49148133884313e-14 44.9999999999999 #
coedge $-1 $850 $851 $811 $837 1 $792 $-1 #
plane-surface $-1 40 0 50 1 0 0 0 0 -1 0 #
straight-curve $-1 20 0 50 0 -1 0 #
point $-1 20 -25 50 #
coedge $-1 $806 $805 $850 $852 0 $707 $-1 #
coedge $-1 $851 $850 $807 $835 1 $792 $-1 #
edge $-1 $847 $836 $807 $853 0 #
vertex $-1 $808 $854 #
edge $-1 $838 $842 $811 $855 0 #
vertex $-1 $852 $856 #
point $-1 20 25 50 #
coedge $-1 $823 $815 $851 $857 1 $803 $-1 #
coedge $-1 $815 $823 $817 $844 1 $803 $-1 #
vertex $-1 $816 $858 #
ellipse-curve $-1 42.5 25 32.5 0 -1 0 -1.76776695296637 0 -1.76776695296637 1 #
edge $-1 $819 $825 $817 $859 0 #
point $-1 42.5 25 30 #
straight-curve $-1 60 0 30 0 -1 0 #
vertex $-1 $824 $860 #
ellipse-curve $-1 42.5 -25 32.5 0 1 -0 -1.76776695296637 0 -1.76776695296637 1 #
point $-1 42.5 -25 30 #
coedge $-1 $834 $829 $833 $852 1 $792 $-1 #
coedge $-1 $829 $834 $840 $857 0 $792 $-1 #
edge $-1 $836 $838 $833 $861 0 #
straight-curve $-1 40 -25 25 -0 0 1 #
point $-1 40 -25 50 #
straight-curve $-1 40 25 25 0 0 -1 #
point $-1 40 25 50 #
edge $-1 $847 $842 $851 $862 0 #
point $-1 40 25 32.5 #
straight-curve $-1 42.5 0 30 -0 -1 -0 #
point $-1 40 -25 32.5 #
straight-curve $-1 40 0 50 0 1 0 #
straight-curve $-1 40 0 32.5 0 1 0 #
