  0
SECTION
  2
HEADER
  9
$ACADVER
  1
AC1009
  9
$INSBASE
 10
0.0
 20
0.0
 30
0.0
  9
$EXTMIN
 10
0.0
 20
0.0
 30
0.0
  9
$EXTMAX
 10
6.0
 20
3.0
 30
3.0
  9
$LIMMIN
 10
0.0
 20
0.0
  9
$LIMMAX
 10
12.0
 20
9.0
  9
$ORTHOMODE
 70
     0
  9
$REGENMODE
 70
     1
  9
$FILLMODE
 70
     1
  9
$QTEXTMODE
 70
     0
  9
$MIRRTEXT
 70
     1
  9
$DRAGMODE
 70
     2
  9
$LTSCALE
 40
1.0
  9
$OSMODE
 70
     0
  9
$ATTMODE
 70
     1
  9
$TEXTSIZE
 40
0.2
  9
$TRACEWID
 40
0.05
  9
$TEXTSTYLE
  7
STANDARD
  9
$CLAYER
  8
0
  9
$CELTYPE
  6
BYLAYER
  9
$CECOLOR
 62
   256
  9
$DIMSCALE
 40
1.0
  9
$DIMASZ
 40
0.18
  9
$DIMEXO
 40
0.0625
  9
$DIMDLI
 40
0.38
  9
$DIMRND
 40
0.0
  9
$DIMDLE
 40
0.0
  9
$DIMEXE
 40
0.18
  9
$DIMTP
 40
0.0
  9
$DIMTM
 40
0.0
  9
$DIMTXT
 40
0.18
  9
$DIMCEN
 40
0.09
  9
$DIMTSZ
 40
0.0
  9
$DIMTOL
 70
     0
  9
$DIMLIM
 70
     0
  9
$DIMTIH
 70
     1
  9
$DIMTOH
 70
     1
  9
$DIMSE1
 70
     0
  9
$DIMSE2
 70
     0
  9
$DIMTAD
 70
     0
  9
$DIMZIN
 70
     0
  9
$DIMBLK
  1

  9
$DIMASO
 70
     1
  9
$DIMSHO
 70
     1
  9
$DIMPOST
  1

  9
$DIMAPOST
  1

  9
$DIMALT
 70
     0
  9
$DIMALTD
 70
     2
  9
$DIMALTF
 40
25.4
  9
$DIMLFAC
 40
1.0
  9
$DIMTOFL
 70
     0
  9
$DIMTVP
 40
0.0
  9
$DIMTIX
 70
     0
  9
$DIMSOXD
 70
     0
  9
$DIMSAH
 70
     0
  9
$DIMBLK1
  1

  9
$DIMBLK2
  1

  9
$DIMSTYLE
  2
*UNNAMED
  9
$DIMCLRD
 70
     0
  9
$DIMCLRE
 70
     0
  9
$DIMCLRT
 70
     0
  9
$DIMTFAC
 40
1.0
  9
$DIMGAP
 40
0.09
  9
$LUNITS
 70
     2
  9
$LUPREC
 70
     4
  9
$SKETCHINC
 40
0.1
  9
$FILLETRAD
 40
0.0
  9
$AUNITS
 70
     0
  9
$AUPREC
 70
     0
  9
$MENU
  1
acad
  9
$ELEVATION
 40
0.0
  9
$PELEVATION
 40
0.0
  9
$THICKNESS
 40
0.0
  9
$LIMCHECK
 70
     0
  9
$BLIPMODE
 70
     1
  9
$CHAMFERA
 40
0.0
  9
$CHAMFERB
 40
0.0
  9
$SKPOLY
 70
     0
  9
$TDCREATE
 40
2448999.688721539
  9
$TDUPDATE
 40
2448999.724020590
  9
$TDINDWG
 40
0.0352990509
  9
$TDUSRTIMER
 40
0.0352990509
  9
$USRTIMER
 70
     1
  9
$ANGBASE
 50
0.0
  9
$ANGDIR
 70
     0
  9
$PDMODE
 70
     0
  9
$PDSIZE
 40
0.0
  9
$PLINEWID
 40
0.0
  9
$COORDS
 70
     0
  9
$SPLFRAME
 70
     0
  9
$SPLINETYPE
 70
     6
  9
$SPLINESEGS
 70
     8
  9
$ATTDIA
 70
     0
  9
$ATTREQ
 70
     1
  9
$HANDLING
 70
     1
  9
$HANDSEED
  5
3A6
  9
$SURFTAB1
 70
     6
  9
$SURFTAB2
 70
     6
  9
$SURFTYPE
 70
     6
  9
$SURFU
 70
     6
  9
$SURFV
 70
     6
  9
$UCSNAME
  2

  9
$UCSORG
 10
0.0
 20
0.0
 30
0.0
  9
$UCSXDIR
 10
1.0
 20
0.0
 30
0.0
  9
$UCSYDIR
 10
0.0
 20
1.0
 30
0.0
  9
$PUCSNAME
  2

  9
$PUCSORG
 10
0.0
 20
0.0
 30
0.0
  9
$PUCSXDIR
 10
1.0
 20
0.0
 30
0.0
  9
$PUCSYDIR
 10
0.0
 20
1.0
 30
0.0
  9
$USERI1
 70
     0
  9
$USERI2
 70
     0
  9
$USERI3
 70
     0
  9
$USERI4
 70
     0
  9
$USERI5
 70
     0
  9
$USERR1
 40
0.0
  9
$USERR2
 40
0.0
  9
$USERR3
 40
0.0
  9
$USERR4
 40
0.0
  9
$USERR5
 40
0.0
  9
$WORLDVIEW
 70
     1
  9
$SHADEDGE
 70
     3
  9
$SHADEDIF
 70
    70
  9
$TILEMODE
 70
     1
  9
$MAXACTVP
 70
    16
  9
$PINSBASE
 10
0.0
 20
0.0
 30
0.0
  9
$PLIMCHECK
 70
     0
  9
$PEXTMIN
 10
1.000000E+20
 20
1.000000E+20
 30
1.000000E+20
  9
$PEXTMAX
 10
-1.000000E+20
 20
-1.000000E+20
 30
-1.000000E+20
  9
$PLIMMIN
 10
0.0
 20
0.0
  9
$PLIMMAX
 10
12.0
 20
9.0
  9
$UNITMODE
 70
     0
  9
$VISRETAIN
 70
     0
  9
$PLINEGEN
 70
     0
  9
$PSLTSCALE
 70
     0
  9
$TREEDEPTH
 70
  3020
  9
$DWGCODEPAGE
  3
undefined
  0
ENDSEC
  0
SECTION
  2
TABLES
  0
TABLE
  2
VPORT
 70
     2
  0
VPORT
  2
*ACTIVE
 70
     0
 10
0.0
 20
0.0
 11
1.0
 21
1.0
 12
0.981244
 22
-0.497037
 13
0.0
 23
0.0
 14
1.0
 24
1.0
 15
0.0
 25
0.0
 16
1.2
 26
1.0
 36
1.0
 17
0.0
 27
0.0
 37
0.0
 40
6.047278
 41
1.594883
 42
50.0
 43
0.0
 44
0.0
 50
0.0
 51
0.0
 71
     0
 72
   100
 73
     1
 74
     1
 75
     0
 76
     0
 77
     0
 78
     0
  0
ENDTAB
  0
TABLE
  2
LTYPE
 70
     1
  0
LTYPE
  2
CONTINUOUS
 70
    64
  3
Solid line
 72
    65
 73
     0
 40
0.0
  0
ENDTAB
  0
TABLE
  2
LAYER
 70
     2
  0
LAYER
  2
0
 70
    64
 62
     7
  6
CONTINUOUS
  0
LAYER
  2
AME_FRZ
 70
    65
 62
     7
  6
CONTINUOUS
  0
ENDTAB
  0
TABLE
  2
STYLE
 70
     1
  0
STYLE
  2
STANDARD
 70
     0
 40
0.0
 41
1.0
 50
0.0
 71
     0
 42
0.2
  3
txt
  4

  0
ENDTAB
  0
TABLE
  2
VIEW
 70
     0
  0
ENDTAB
  0
TABLE
  2
UCS
 70
     0
  0
ENDTAB
  0
TABLE
  2
APPID
 70
     2
  0
APPID
  2
ACAD
 70
    64
  0
APPID
  2
AME_SOL
 70
    64
  0
ENDTAB
  0
TABLE
  2
DIMSTYLE
 70
     0
  0
ENDTAB
  0
ENDSEC
  0
SECTION
  2
BLOCKS
  0
BLOCK
  8
0
  5
1
  2
AME_NIL
 70
    64
 10
0.0
 20
0.0
 30
0.0
  1
AME_NIL
  3
AME_NIL
  0
ENDBLK
  8
0
  5
2
  0
BLOCK
  8
0
  5
4
  2
AME_SOL
 70
    64
 10
0.0
 20
0.0
 30
0.0
  1
AME_SOL
  3
AME_SOL
  0
ENDBLK
  8
0
  5
5
  0
BLOCK
  8
0
  5
7
  2
*U2
 70
    65
 10
0.0
 20
0.0
 30
0.0
  1
*U
  3
*U
  0
LINE
  8
0
 62
     0
  5
8
 10
6.0
 20
1.0
 30
0.0
 11
6.0
 21
1.0
 31
3.0
1001
AME_SOL
1070
     1
1071
       18
  0
LINE
  8
0
 62
     0
  5
9
 10
6.0
 20
1.0
 30
3.0
 11
6.0
 21
0.0
 31
3.0
1001
AME_SOL
1070
     1
1071
       17
  0
LINE
  8
0
 62
     0
  5
A
 10
0.0
 20
1.0
 30
3.0
 11
6.0
 21
1.0
 31
3.0
1001
AME_SOL
1070
     1
1071
       16
  0
LINE
  8
0
 62
     0
  5
B
 10
0.0
 20
1.0
 30
0.0
 11
0.0
 21
1.0
 31
3.0
1001
AME_SOL
1070
     1
1071
       15
  0
LINE
  8
0
 62
     0
  5
C
 10
0.0
 20
1.0
 30
3.0
 11
0.0
 21
0.0
 31
3.0
1001
AME_SOL
1070
     1
1071
       14
  0
LINE
  8
0
 62
     0
  5
D
 10
0.0
 20
0.0
 30
0.0
 11
0.0
 21
0.0
 31
3.0
1001
AME_SOL
1070
     1
1071
       13
  0
LINE
  8
0
 62
     0
  5
E
 10
6.0
 20
0.0
 30
3.0
 11
6.0
 21
0.0
 31
0.0
1001
AME_SOL
1070
     1
1071
       12
  0
LINE
  8
0
 62
     0
  5
F
 10
0.0
 20
0.0
 30
3.0
 11
6.0
 21
0.0
 31
3.0
1001
AME_SOL
1070
     1
1071
       11
  0
LINE
  8
0
 62
     0
  5
10
 10
0.0
 20
0.0
 30
0.0
 11
6.0
 21
0.0
 31
0.0
1001
AME_SOL
1070
     1
1071
       10
  0
LINE
  8
0
 62
     0
  5
11
 10
0.0
 20
1.0
 30
0.0
 11
0.0
 21
0.0
 31
0.0
1001
AME_SOL
1070
     1
1071
        9
  0
LINE
  8
0
 62
     0
  5
12
 10
6.0
 20
0.0
 30
0.0
 11
6.0
 21
1.0
 31
0.0
1001
AME_SOL
1070
     1
1071
        8
  0
LINE
  8
0
 62
     0
  5
13
 10
6.0
 20
1.0
 30
0.0
 11
0.0
 21
1.0
 31
0.0
1001
AME_SOL
1070
     1
1071
        7
  0
ENDBLK
  8
0
  5
14
  0
BLOCK
  8
0
  5
18
  2
*U3
 70
    65
 10
0.0
 20
0.0
 30
0.0
  1
*U
  3
*U
  0
LINE
  8
0
 62
     0
  5
19
 10
1.0
 20
2.0
 30
0.0
 11
1.0
 21
2.0
 31
1.0
1001
AME_SOL
1070
     1
1071
       18
  0
LINE
  8
0
 62
     0
  5
1A
 10
1.0
 20
2.0
 30
1.0
 11
1.0
 21
0.0
 31
1.0
1001
AME_SOL
1070
     1
1071
       17
  0
LINE
  8
0
 62
     0
  5
1B
 10
0.0
 20
2.0
 30
1.0
 11
1.0
 21
2.0
 31
1.0
1001
AME_SOL
1070
     1
1071
       16
  0
LINE
  8
0
 62
     0
  5
1C
 10
0.0
 20
2.0
 30
0.0
 11
0.0
 21
2.0
 31
1.0
1001
AME_SOL
1070
     1
1071
       15
  0
LINE
  8
0
 62
     0
  5
1D
 10
0.0
 20
2.0
 30
1.0
 11
0.0
 21
0.0
 31
1.0
1001
AME_SOL
1070
     1
1071
       14
  0
LINE
  8
0
 62
     0
  5
1E
 10
0.0
 20
0.0
 30
0.0
 11
0.0
 21
0.0
 31
1.0
1001
AME_SOL
1070
     1
1071
       13
  0
LINE
  8
0
 62
     0
  5
1F
 10
1.0
 20
0.0
 30
1.0
 11
1.0
 21
0.0
 31
0.0
1001
AME_SOL
1070
     1
1071
       12
  0
LINE
  8
0
 62
     0
  5
20
 10
0.0
 20
0.0
 30
1.0
 11
1.0
 21
0.0
 31
1.0
1001
AME_SOL
1070
     1
1071
       11
  0
LINE
  8
0
 62
     0
  5
21
 10
0.0
 20
0.0
 30
0.0
 11
1.0
 21
0.0
 31
0.0
1001
AME_SOL
1070
     1
1071
       10
  0
LINE
  8
0
 62
     0
  5
22
 10
0.0
 20
2.0
 30
0.0
 11
0.0
 21
0.0
 31
0.0
1001
AME_SOL
1070
     1
1071
        9
  0
LINE
  8
0
 62
     0
  5
23
 10
1.0
 20
0.0
 30
0.0
 11
1.0
 21
2.0
 31
0.0
1001
AME_SOL
1070
     1
1071
        8
  0
LINE
  8
0
 62
     0
  5
24
 10
1.0
 20
2.0
 30
0.0
 11
0.0
 21
2.0
 31
0.0
1001
AME_SOL
1070
     1
1071
        7
  0
ENDBLK
  8
0
  5
25
  0
BLOCK
  8
0
  5
29
  2
*U4
 70
    65
 10
0.0
 20
0.0
 30
0.0
  1
*U
  3
*U
  0
LINE
  8
0
 62
     0
  5
2A
 10
1.0
 20
2.0
 30
0.0
 11
1.0
 21
2.0
 31
1.0
1001
AME_SOL
1070
     1
1071
       18
  0
LINE
  8
0
 62
     0
  5
2B
 10
1.0
 20
2.0
 30
1.0
 11
1.0
 21
0.0
 31
1.0
1001
AME_SOL
1070
     1
1071
       17
  0
LINE
  8
0
 62
     0
  5
2C
 10
0.0
 20
2.0
 30
1.0
 11
1.0
 21
2.0
 31
1.0
1001
AME_SOL
1070
     1
1071
       16
  0
LINE
  8
0
 62
     0
  5
2D
 10
0.0
 20
2.0
 30
0.0
 11
0.0
 21
2.0
 31
1.0
1001
AME_SOL
1070
     1
1071
       15
  0
LINE
  8
0
 62
     0
  5
2E
 10
0.0
 20
2.0
 30
1.0
 11
0.0
 21
0.0
 31
1.0
1001
AME_SOL
1070
     1
1071
       14
  0
LINE
  8
0
 62
     0
  5
2F
 10
0.0
 20
0.0
 30
0.0
 11
0.0
 21
0.0
 31
1.0
1001
AME_SOL
1070
     1
1071
       13
  0
LINE
  8
0
 62
     0
  5
30
 10
1.0
 20
0.0
 30
1.0
 11
1.0
 21
0.0
 31
0.0
1001
AME_SOL
1070
     1
1071
       12
  0
LINE
  8
0
 62
     0
  5
31
 10
0.0
 20
0.0
 30
1.0
 11
1.0
 21
0.0
 31
1.0
1001
AME_SOL
1070
     1
1071
       11
  0
LINE
  8
0
 62
     0
  5
32
 10
0.0
 20
0.0
 30
0.0
 11
1.0
 21
0.0
 31
0.0
1001
AME_SOL
1070
     1
1071
       10
  0
LINE
  8
0
 62
     0
  5
33
 10
0.0
 20
2.0
 30
0.0
 11
0.0
 21
0.0
 31
0.0
1001
AME_SOL
1070
     1
1071
        9
  0
LINE
  8
0
 62
     0
  5
34
 10
1.0
 20
0.0
 30
0.0
 11
1.0
 21
2.0
 31
0.0
1001
AME_SOL
1070
     1
1071
        8
  0
LINE
  8
0
 62
     0
  5
35
 10
1.0
 20
2.0
 30
0.0
 11
0.0
 21
2.0
 31
0.0
1001
AME_SOL
1070
     1
1071
        7
  0
ENDBLK
  8
0
  5
36
  0
BLOCK
  8
0
  5
3A
  2
*U5
 70
    65
 10
0.0
 20
0.0
 30
0.0
  1
*U
  3
*U
  0
LINE
  8
0
 62
     0
  5
3B
 10
1.0
 20
1.0
 30
0.0
 11
1.0
 21
1.0
 31
3.0
1001
AME_SOL
1070
     1
1071
       18
  0
LINE
  8
0
 62
     0
  5
3C
 10
1.0
 20
1.0
 30
3.0
 11
1.0
 21
0.0
 31
3.0
1001
AME_SOL
1070
     1
1071
       17
  0
LINE
  8
0
 62
     0
  5
3D
 10
0.0
 20
1.0
 30
3.0
 11
1.0
 21
1.0
 31
3.0
1001
AME_SOL
1070
     1
1071
       16
  0
LINE
  8
0
 62
     0
  5
3E
 10
0.0
 20
1.0
 30
0.0
 11
0.0
 21
1.0
 31
3.0
1001
AME_SOL
1070
     1
1071
       15
  0
LINE
  8
0
 62
     0
  5
3F
 10
0.0
 20
1.0
 30
3.0
 11
0.0
 21
0.0
 31
3.0
1001
AME_SOL
1070
     1
1071
       14
  0
LINE
  8
0
 62
     0
  5
40
 10
0.0
 20
0.0
 30
0.0
 11
0.0
 21
0.0
 31
3.0
1001
AME_SOL
1070
     1
1071
       13
  0
LINE
  8
0
 62
     0
  5
41
 10
1.0
 20
0.0
 30
3.0
 11
1.0
 21
0.0
 31
0.0
1001
AME_SOL
1070
     1
1071
       12
  0
LINE
  8
0
 62
     0
  5
42
 10
0.0
 20
0.0
 30
3.0
 11
1.0
 21
0.0
 31
3.0
1001
AME_SOL
1070
     1
1071
       11
  0
LINE
  8
0
 62
     0
  5
43
 10
0.0
 20
0.0
 30
0.0
 11
1.0
 21
0.0
 31
0.0
1001
AME_SOL
1070
     1
1071
       10
  0
LINE
  8
0
 62
     0
  5
44
 10
0.0
 20
1.0
 30
0.0
 11
0.0
 21
0.0
 31
0.0
1001
AME_SOL
1070
     1
1071
        9
  0
LINE
  8
0
 62
     0
  5
45
 10
1.0
 20
0.0
 30
0.0
 11
1.0
 21
1.0
 31
0.0
1001
AME_SOL
1070
     1
1071
        8
  0
LINE
  8
0
 62
     0
  5
46
 10
1.0
 20
1.0
 30
0.0
 11
0.0
 21
1.0
 31
0.0
1001
AME_SOL
1070
     1
1071
        7
  0
ENDBLK
  8
0
  5
47
  0
BLOCK
  8
0
  5
152
  2
*U6
 70
    65
 10
0.0
 20
0.0
 30
0.0
  1
*U
  3
*U
  0
LINE
  8
0
 62
     0
  5
153
 10
1.0
 20
1.0
 30
0.0
 11
1.0
 21
1.0
 31
2.0
1001
AME_SOL
1070
     1
1071
       18
  0
LINE
  8
0
 62
     0
  5
154
 10
1.0
 20
1.0
 30
2.0
 11
1.0
 21
0.0
 31
2.0
1001
AME_SOL
1070
     1
1071
       17
  0
LINE
  8
0
 62
     0
  5
155
 10
0.0
 20
1.0
 30
2.0
 11
1.0
 21
1.0
 31
2.0
1001
AME_SOL
1070
     1
1071
       16
  0
LINE
  8
0
 62
     0
  5
156
 10
0.0
 20
1.0
 30
0.0
 11
0.0
 21
1.0
 31
2.0
1001
AME_SOL
1070
     1
1071
       15
  0
LINE
  8
0
 62
     0
  5
157
 10
0.0
 20
1.0
 30
2.0
 11
0.0
 21
0.0
 31
2.0
1001
AME_SOL
1070
     1
1071
       14
  0
LINE
  8
0
 62
     0
  5
158
 10
0.0
 20
0.0
 30
0.0
 11
0.0
 21
0.0
 31
2.0
1001
AME_SOL
1070
     1
1071
       13
  0
LINE
  8
0
 62
     0
  5
159
 10
1.0
 20
0.0
 30
2.0
 11
1.0
 21
0.0
 31
0.0
1001
AME_SOL
1070
     1
1071
       12
  0
LINE
  8
0
 62
     0
  5
15A
 10
0.0
 20
0.0
 30
2.0
 11
1.0
 21
0.0
 31
2.0
1001
AME_SOL
1070
     1
1071
       11
  0
LINE
  8
0
 62
     0
  5
15B
 10
0.0
 20
0.0
 30
0.0
 11
1.0
 21
0.0
 31
0.0
1001
AME_SOL
1070
     1
1071
       10
  0
LINE
  8
0
 62
     0
  5
15C
 10
0.0
 20
1.0
 30
0.0
 11
0.0
 21
0.0
 31
0.0
1001
AME_SOL
1070
     1
1071
        9
  0
LINE
  8
0
 62
     0
  5
15D
 10
1.0
 20
0.0
 30
0.0
 11
1.0
 21
1.0
 31
0.0
1001
AME_SOL
1070
     1
1071
        8
  0
LINE
  8
0
 62
     0
  5
15E
 10
1.0
 20
1.0
 30
0.0
 11
0.0
 21
1.0
 31
0.0
1001
AME_SOL
1070
     1
1071
        7
  0
ENDBLK
  8
0
  5
15F
  0
BLOCK
  8
0
  5
163
  2
*U7
 70
    65
 10
0.0
 20
0.0
 30
0.0
  1
*U
  3
*U
  0
LINE
  8
0
 62
     0
  5
164
 10
1.0
 20
2.0
 30
0.0
 11
1.0
 21
2.0
 31
1.0
1001
AME_SOL
1070
     1
1071
       18
  0
LINE
  8
0
 62
     0
  5
165
 10
1.0
 20
2.0
 30
1.0
 11
1.0
 21
0.0
 31
1.0
1001
AME_SOL
1070
     1
1071
       17
  0
LINE
  8
0
 62
     0
  5
166
 10
0.0
 20
2.0
 30
1.0
 11
1.0
 21
2.0
 31
1.0
1001
AME_SOL
1070
     1
1071
       16
  0
LINE
  8
0
 62
     0
  5
167
 10
0.0
 20
2.0
 30
0.0
 11
0.0
 21
2.0
 31
1.0
1001
AME_SOL
1070
     1
1071
       15
  0
LINE
  8
0
 62
     0
  5
168
 10
0.0
 20
2.0
 30
1.0
 11
0.0
 21
0.0
 31
1.0
1001
AME_SOL
1070
     1
1071
       14
  0
LINE
  8
0
 62
     0
  5
169
 10
0.0
 20
0.0
 30
0.0
 11
0.0
 21
0.0
 31
1.0
1001
AME_SOL
1070
     1
1071
       13
  0
LINE
  8
0
 62
     0
  5
16A
 10
1.0
 20
0.0
 30
1.0
 11
1.0
 21
0.0
 31
0.0
1001
AME_SOL
1070
     1
1071
       12
  0
LINE
  8
0
 62
     0
  5
16B
 10
0.0
 20
0.0
 30
1.0
 11
1.0
 21
0.0
 31
1.0
1001
AME_SOL
1070
     1
1071
       11
  0
LINE
  8
0
 62
     0
  5
16C
 10
0.0
 20
0.0
 30
0.0
 11
1.0
 21
0.0
 31
0.0
1001
AME_SOL
1070
     1
1071
       10
  0
LINE
  8
0
 62
     0
  5
16D
 10
0.0
 20
2.0
 30
0.0
 11
0.0
 21
0.0
 31
0.0
1001
AME_SOL
1070
     1
1071
        9
  0
LINE
  8
0
 62
     0
  5
16E
 10
1.0
 20
0.0
 30
0.0
 11
1.0
 21
2.0
 31
0.0
1001
AME_SOL
1070
     1
1071
        8
  0
LINE
  8
0
 62
     0
  5
16F
 10
1.0
 20
2.0
 30
0.0
 11
0.0
 21
2.0
 31
0.0
1001
AME_SOL
1070
     1
1071
        7
  0
ENDBLK
  8
0
  5
170
  0
BLOCK
  8
0
  5
174
  2
*U8
 70
    65
 10
0.0
 20
0.0
 30
0.0
  1
*U
  3
*U
  0
LINE
  8
0
 62
     0
  5
175
 10
1.0
 20
2.0
 30
0.0
 11
1.0
 21
2.0
 31
1.0
1001
AME_SOL
1070
     1
1071
       18
  0
LINE
  8
0
 62
     0
  5
176
 10
1.0
 20
2.0
 30
1.0
 11
1.0
 21
0.0
 31
1.0
1001
AME_SOL
1070
     1
1071
       17
  0
LINE
  8
0
 62
     0
  5
177
 10
0.0
 20
2.0
 30
1.0
 11
1.0
 21
2.0
 31
1.0
1001
AME_SOL
1070
     1
1071
       16
  0
LINE
  8
0
 62
     0
  5
178
 10
0.0
 20
2.0
 30
0.0
 11
0.0
 21
2.0
 31
1.0
1001
AME_SOL
1070
     1
1071
       15
  0
LINE
  8
0
 62
     0
  5
179
 10
0.0
 20
2.0
 30
1.0
 11
0.0
 21
0.0
 31
1.0
1001
AME_SOL
1070
     1
1071
       14
  0
LINE
  8
0
 62
     0
  5
17A
 10
0.0
 20
0.0
 30
0.0
 11
0.0
 21
0.0
 31
1.0
1001
AME_SOL
1070
     1
1071
       13
  0
LINE
  8
0
 62
     0
  5
17B
 10
1.0
 20
0.0
 30
1.0
 11
1.0
 21
0.0
 31
0.0
1001
AME_SOL
1070
     1
1071
       12
  0
LINE
  8
0
 62
     0
  5
17C
 10
0.0
 20
0.0
 30
1.0
 11
1.0
 21
0.0
 31
1.0
1001
AME_SOL
1070
     1
1071
       11
  0
LINE
  8
0
 62
     0
  5
17D
 10
0.0
 20
0.0
 30
0.0
 11
1.0
 21
0.0
 31
0.0
1001
AME_SOL
1070
     1
1071
       10
  0
LINE
  8
0
 62
     0
  5
17E
 10
0.0
 20
2.0
 30
0.0
 11
0.0
 21
0.0
 31
0.0
1001
AME_SOL
1070
     1
1071
        9
  0
LINE
  8
0
 62
     0
  5
17F
 10
1.0
 20
0.0
 30
0.0
 11
1.0
 21
2.0
 31
0.0
1001
AME_SOL
1070
     1
1071
        8
  0
LINE
  8
0
 62
     0
  5
180
 10
1.0
 20
2.0
 30
0.0
 11
0.0
 21
2.0
 31
0.0
1001
AME_SOL
1070
     1
1071
        7
  0
ENDBLK
  8
0
  5
181
  0
BLOCK
  8
0
  5
189
  2
*U9
 70
    65
 10
0.0
 20
0.0
 30
0.0
  1
*U
  3
*U
  0
LINE
  8
0
 62
     7
  5
18A
 10
0.0
 20
1.0
 30
3.0
 11
5.0
 21
1.0
 31
3.0
1001
AME_SOL
1070
     1
1071
       63
  0
LINE
  8
0
 62
     7
  5
18B
 10
6.0
 20
2.0
 30
3.0
 11
6.0
 21
0.0
 31
3.0
1001
AME_SOL
1070
     1
1071
       62
  0
LINE
  8
0
 62
     7
  5
18C
 10
0.0
 20
1.0
 30
0.0
 11
0.0
 21
1.0
 31
3.0
1001
AME_SOL
1070
     1
1071
       61
  0
LINE
  8
0
 62
     7
  5
18D
 10
0.0
 20
1.0
 30
3.0
 11
0.0
 21
0.0
 31
3.0
1001
AME_SOL
1070
     1
1071
       60
  0
LINE
  8
0
 62
     7
  5
18E
 10
0.0
 20
0.0
 30
0.0
 11
0.0
 21
0.0
 31
3.0
1001
AME_SOL
1070
     1
1071
       59
  0
LINE
  8
0
 62
     7
  5
18F
 10
6.0
 20
0.0
 30
3.0
 11
6.0
 21
0.0
 31
0.0
1001
AME_SOL
1070
     1
1071
       58
  0
LINE
  8
0
 62
     7
  5
190
 10
0.0
 20
0.0
 30
3.0
 11
6.0
 21
0.0
 31
3.0
1001
AME_SOL
1070
     1
1071
       57
  0
LINE
  8
0
 62
     7
  5
191
 10
0.0
 20
0.0
 30
0.0
 11
6.0
 21
0.0
 31
0.0
1001
AME_SOL
1070
     1
1071
       56
  0
LINE
  8
0
 62
     7
  5
192
 10
0.0
 20
1.0
 30
0.0
 11
0.0
 21
0.0
 31
0.0
1001
AME_SOL
1070
     1
1071
       55
  0
LINE
  8
0
 62
     7
  5
193
 10
1.0
 20
1.0
 30
0.0
 11
0.0
 21
1.0
 31
0.0
1001
AME_SOL
1070
     1
1071
       54
  0
LINE
  8
0
 62
     7
  5
194
 10
3.0
 20
1.0
 30
0.0
 11
2.0
 21
1.0
 31
0.0
1001
AME_SOL
1070
     1
1071
       53
  0
LINE
  8
0
 62
     7
  5
195
 10
5.0
 20
1.0
 30
0.0
 11
4.0
 21
1.0
 31
0.0
1001
AME_SOL
1070
     1
1071
       52
  0
LINE
  8
0
 62
     7
  5
196
 10
6.0
 20
0.0
 30
0.0
 11
6.0
 21
3.0
 31
0.0
1001
AME_SOL
1070
     1
1071
       51
  0
LINE
  8
0
 62
     7
  5
197
 10
2.0
 20
3.0
 30
0.0
 11
2.0
 21
1.0
 31
0.0
1001
AME_SOL
1070
     1
1071
       50
  0
LINE
  8
0
 62
     7
  5
198
 10
2.0
 20
1.0
 30
1.0
 11
2.0
 21
1.0
 31
0.0
1001
AME_SOL
1070
     1
1071
       49
  0
LINE
  8
0
 62
     7
  5
199
 10
5.0
 20
3.0
 30
0.0
 11
6.0
 21
3.0
 31
0.0
1001
AME_SOL
1070
     1
1071
       48
  0
LINE
  8
0
 62
     7
  5
19A
 10
3.0
 20
3.0
 30
0.0
 11
4.0
 21
3.0
 31
0.0
1001
AME_SOL
1070
     1
1071
       47
  0
LINE
  8
0
 62
     7
  5
19B
 10
1.0
 20
3.0
 30
0.0
 11
2.0
 21
3.0
 31
0.0
1001
AME_SOL
1070
     1
1071
       46
  0
LINE
  8
0
 62
     7
  5
19C
 10
2.0
 20
3.0
 30
0.0
 11
2.0
 21
3.0
 31
1.0
1001
AME_SOL
1070
     1
1071
       45
  0
LINE
  8
0
 62
     7
  5
19D
 10
6.0
 20
3.0
 30
0.0
 11
6.0
 21
3.0
 31
2.0
1001
AME_SOL
1070
     1
1071
       44
  0
LINE
  8
0
 62
     7
  5
19E
 10
3.0
 20
1.0
 30
1.0
 11
4.0
 21
1.0
 31
1.0
1001
AME_SOL
1070
     1
1071
       43
  0
LINE
  8
0
 62
     7
  5
19F
 10
1.0
 20
1.0
 30
1.0
 11
2.0
 21
1.0
 31
1.0
1001
AME_SOL
1070
     1
1071
       42
  0
LINE
  8
0
 62
     7
  5
1A0
 10
2.0
 20
3.0
 30
1.0
 11
2.0
 21
1.0
 31
1.0
1001
AME_SOL
1070
     1
1071
       41
  0
LINE
  8
0
 62
     7
  5
1A1
 10
3.0
 20
3.0
 30
1.0
 11
4.0
 21
3.0
 31
1.0
1001
AME_SOL
1070
     1
1071
       40
  0
LINE
  8
0
 62
     7
  5
1A2
 10
1.0
 20
3.0
 30
1.0
 11
2.0
 21
3.0
 31
1.0
1001
AME_SOL
1070
     1
1071
       39
  0
LINE
  8
0
 62
     7
  5
1A3
 10
1.0
 20
1.0
 30
0.0
 11
1.0
 21
3.0
 31
0.0
1001
AME_SOL
1070
     1
1071
       38
  0
LINE
  8
0
 62
     7
  5
1A4
 10
1.0
 20
1.0
 30
0.0
 11
1.0
 21
1.0
 31
1.0
1001
AME_SOL
1070
     1
1071
       37
  0
LINE
  8
0
 62
     7
  5
1A5
 10
1.0
 20
3.0
 30
1.0
 11
1.0
 21
1.0
 31
1.0
1001
AME_SOL
1070
     1
1071
       36
  0
LINE
  8
0
 62
     7
  5
1A6
 10
1.0
 20
3.0
 30
0.0
 11
1.0
 21
3.0
 31
1.0
1001
AME_SOL
1070
     1
1071
       35
  0
LINE
  8
0
 62
     7
  5
1A7
 10
4.0
 20
3.0
 30
0.0
 11
4.0
 21
1.0
 31
0.0
1001
AME_SOL
1070
     1
1071
       34
  0
LINE
  8
0
 62
     7
  5
1A8
 10
4.0
 20
1.0
 30
1.0
 11
4.0
 21
1.0
 31
0.0
1001
AME_SOL
1070
     1
1071
       33
  0
LINE
  8
0
 62
     7
  5
1A9
 10
4.0
 20
1.0
 30
1.0
 11
4.0
 21
3.0
 31
1.0
1001
AME_SOL
1070
     1
1071
       32
  0
LINE
  8
0
 62
     7
  5
1AA
 10
4.0
 20
3.0
 30
1.0
 11
4.0
 21
3.0
 31
0.0
1001
AME_SOL
1070
     1
1071
       31
  0
LINE
  8
0
 62
     7
  5
1AB
 10
3.0
 20
1.0
 30
0.0
 11
3.0
 21
3.0
 31
0.0
1001
AME_SOL
1070
     1
1071
       30
  0
LINE
  8
0
 62
     7
  5
1AC
 10
3.0
 20
1.0
 30
0.0
 11
3.0
 21
1.0
 31
1.0
1001
AME_SOL
1070
     1
1071
       29
  0
LINE
  8
0
 62
     7
  5
1AD
 10
3.0
 20
3.0
 30
1.0
 11
3.0
 21
1.0
 31
1.0
1001
AME_SOL
1070
     1
1071
       28
  0
LINE
  8
0
 62
     7
  5
1AE
 10
3.0
 20
3.0
 30
0.0
 11
3.0
 21
3.0
 31
1.0
1001
AME_SOL
1070
     1
1071
       27
  0
LINE
  8
0
 62
     7
  5
1AF
 10
5.0
 20
3.0
 30
2.0
 11
6.0
 21
3.0
 31
2.0
1001
AME_SOL
1070
     1
1071
       26
  0
LINE
  8
0
 62
     7
  5
1B0
 10
6.0
 20
3.0
 30
2.0
 11
6.0
 21
2.0
 31
2.0
1001
AME_SOL
1070
     1
1071
       25
  0
LINE
  8
0
 62
     7
  5
1B1
 10
5.0
 20
1.0
 30
0.0
 11
5.0
 21
3.0
 31
0.0
1001
AME_SOL
1070
     1
1071
       24
  0
LINE
  8
0
 62
     7
  5
1B2
 10
5.0
 20
1.0
 30
0.0
 11
5.0
 21
1.0
 31
3.0
1001
AME_SOL
1070
     1
1071
       23
  0
LINE
  8
0
 62
     7
  5
1B3
 10
5.0
 20
3.0
 30
0.0
 11
5.0
 21
3.0
 31
2.0
1001
AME_SOL
1070
     1
1071
       22
  0
LINE
  8
0
 62
     7
  5
1B4
 10
5.0
 20
3.0
 30
2.0
 11
5.0
 21
2.0
 31
2.0
1001
AME_SOL
1070
     1
1071
       21
  0
LINE
  8
0
 62
     7
  5
1B5
 10
5.0
 20
2.0
 30
3.0
 11
5.0
 21
1.0
 31
3.0
1001
AME_SOL
1070
     1
1071
       20
  0
LINE
  8
0
 62
     7
  5
1B6
 10
6.0
 20
2.0
 30
2.0
 11
5.0
 21
2.0
 31
2.0
1001
AME_SOL
1070
     1
1071
       19
  0
LINE
  8
0
 62
     7
  5
1B7
 10
6.0
 20
2.0
 30
2.0
 11
6.0
 21
2.0
 31
3.0
1001
AME_SOL
1070
     1
1071
       18
  0
LINE
  8
0
 62
     7
  5
1B8
 10
6.0
 20
2.0
 30
3.0
 11
5.0
 21
2.0
 31
3.0
1001
AME_SOL
1070
     1
1071
       17
  0
LINE
  8
0
 62
     7
  5
1B9
 10
5.0
 20
2.0
 30
3.0
 11
5.0
 21
2.0
 31
2.0
1001
AME_SOL
1070
     1
1071
       16
  0
ENDBLK
  8
0
  5
1BA
  0
BLOCK
  8
0
  5
1C0
  2
*U10
 70
    65
 10
0.0
 20
0.0
 30
0.0
  1
*U
  3
*U
  0
LINE
  8
0
 62
     7
  5
1C1
 10
0.0
 20
1.0
 30
3.0
 11
5.0
 21
1.0
 31
3.0
1001
AME_SOL
1070
     1
1071
       62
  0
LINE
  8
0
 62
     7
  5
1C2
 10
6.0
 20
2.0
 30
3.0
 11
6.0
 21
0.0
 31
3.0
1001
AME_SOL
1070
     1
1071
       61
  0
LINE
  8
0
 62
     7
  5
1C3
 10
0.0
 20
1.0
 30
0.0
 11
0.0
 21
1.0
 31
3.0
1001
AME_SOL
1070
     1
1071
       60
  0
LINE
  8
0
 62
     7
  5
1C4
 10
0.0
 20
1.0
 30
3.0
 11
0.0
 21
0.0
 31
3.0
1001
AME_SOL
1070
     1
1071
       59
  0
LINE
  8
0
 62
     7
  5
1C5
 10
0.0
 20
0.0
 30
0.0
 11
0.0
 21
0.0
 31
3.0
1001
AME_SOL
1070
     1
1071
       58
  0
LINE
  8
0
 62
     7
  5
1C6
 10
6.0
 20
0.0
 30
3.0
 11
6.0
 21
0.0
 31
0.0
1001
AME_SOL
1070
     1
1071
       57
  0
LINE
  8
0
 62
     7
  5
1C7
 10
0.0
 20
0.0
 30
3.0
 11
6.0
 21
0.0
 31
3.0
1001
AME_SOL
1070
     1
1071
       56
  0
LINE
  8
0
 62
     7
  5
1C8
 10
0.0
 20
0.0
 30
0.0
 11
6.0
 21
0.0
 31
0.0
1001
AME_SOL
1070
     1
1071
       55
  0
LINE
  8
0
 62
     7
  5
1C9
 10
0.0
 20
1.0
 30
0.0
 11
0.0
 21
0.0
 31
0.0
1001
AME_SOL
1070
     1
1071
       54
  0
LINE
  8
0
 62
     7
  5
1CA
 10
1.0
 20
1.0
 30
0.0
 11
0.0
 21
1.0
 31
0.0
1001
AME_SOL
1070
     1
1071
       53
  0
LINE
  8
0
 62
     7
  5
1CB
 10
3.0
 20
1.0
 30
0.0
 11
2.0
 21
1.0
 31
0.0
1001
AME_SOL
1070
     1
1071
       52
  0
LINE
  8
0
 62
     7
  5
1CC
 10
5.0
 20
1.0
 30
0.0
 11
4.0
 21
1.0
 31
0.0
1001
AME_SOL
1070
     1
1071
       51
  0
LINE
  8
0
 62
     7
  5
1CD
 10
6.0
 20
0.0
 30
0.0
 11
6.0
 21
3.0
 31
0.0
1001
AME_SOL
1070
     1
1071
       50
  0
LINE
  8
0
 62
     7
  5
1CE
 10
2.0
 20
3.0
 30
0.0
 11
2.0
 21
1.0
 31
0.0
1001
AME_SOL
1070
     1
1071
       49
  0
LINE
  8
0
 62
     7
  5
1CF
 10
2.0
 20
1.0
 30
2.0
 11
2.0
 21
1.0
 31
0.0
1001
AME_SOL
1070
     1
1071
       48
  0
LINE
  8
0
 62
     7
  5
1D0
 10
4.999999
 20
3.0
 30
0.0
 11
6.0
 21
3.0
 31
0.0
1001
AME_SOL
1070
     1
1071
       47
  0
LINE
  8
0
 62
     7
  5
1D1
 10
3.0
 20
3.0
 30
0.0
 11
4.0
 21
3.0
 31
0.0
1001
AME_SOL
1070
     1
1071
       46
  0
LINE
  8
0
 62
     7
  5
1D2
 10
1.0
 20
3.0
 30
0.0
 11
2.0
 21
3.0
 31
0.0
1001
AME_SOL
1070
     1
1071
       45
  0
LINE
  8
0
 62
     7
  5
1D3
 10
2.0
 20
3.0
 30
0.0
 11
2.0
 21
3.0
 31
2.0
1001
AME_SOL
1070
     1
1071
       44
  0
LINE
  8
0
 62
     7
  5
1D4
 10
6.0
 20
3.0
 30
0.0
 11
6.0
 21
3.0
 31
2.0
1001
AME_SOL
1070
     1
1071
       43
  0
LINE
  8
0
 62
     7
  5
1D5
 10
1.0
 20
1.0
 30
0.0
 11
1.0
 21
3.0
 31
0.0
1001
AME_SOL
1070
     1
1071
       42
  0
LINE
  8
0
 62
     7
  5
1D6
 10
1.0
 20
1.0
 30
0.0
 11
1.0
 21
1.0
 31
2.0
1001
AME_SOL
1070
     1
1071
       41
  0
LINE
  8
0
 62
     7
  5
1D7
 10
1.0
 20
3.0
 30
0.0
 11
1.0
 21
3.0
 31
2.0
1001
AME_SOL
1070
     1
1071
       40
  0
LINE
  8
0
 62
     7
  5
1D8
 10
4.0
 20
3.0
 30
0.0
 11
4.0
 21
1.0
 31
0.0
1001
AME_SOL
1070
     1
1071
       39
  0
LINE
  8
0
 62
     7
  5
1D9
 10
4.0
 20
1.0
 30
2.0
 11
4.0
 21
1.0
 31
0.0
1001
AME_SOL
1070
     1
1071
       38
  0
LINE
  8
0
 62
     7
  5
1DA
 10
4.0
 20
3.0
 30
2.0
 11
4.0
 21
3.0
 31
0.0
1001
AME_SOL
1070
     1
1071
       37
  0
LINE
  8
0
 62
     7
  5
1DB
 10
3.0
 20
1.0
 30
0.0
 11
3.0
 21
3.0
 31
0.0
1001
AME_SOL
1070
     1
1071
       36
  0
LINE
  8
0
 62
     7
  5
1DC
 10
3.0
 20
1.0
 30
0.0
 11
3.0
 21
1.0
 31
2.0
1001
AME_SOL
1070
     1
1071
       35
  0
LINE
  8
0
 62
     7
  5
1DD
 10
3.0
 20
3.0
 30
0.0
 11
3.0
 21
3.0
 31
2.0
1001
AME_SOL
1070
     1
1071
       34
  0
LINE
  8
0
 62
     7
  5
1DE
 10
3.0
 20
1.0
 30
2.0
 11
4.0
 21
1.0
 31
2.0
1001
AME_SOL
1070
     1
1071
       33
  0
LINE
  8
0
 62
     7
  5
1DF
 10
1.0
 20
1.0
 30
2.0
 11
2.0
 21
1.0
 31
2.0
1001
AME_SOL
1070
     1
1071
       32
  0
LINE
  8
0
 62
     7
  5
1E0
 10
1.0
 20
1.0
 30
2.0
 11
1.0
 21
3.0
 31
2.0
1001
AME_SOL
1070
     1
1071
       31
  0
LINE
  8
0
 62
     7
  5
1E1
 10
2.0
 20
3.0
 30
2.0
 11
2.0
 21
1.0
 31
2.0
1001
AME_SOL
1070
     1
1071
       30
  0
LINE
  8
0
 62
     7
  5
1E2
 10
3.0
 20
1.0
 30
2.0
 11
3.0
 21
3.0
 31
2.0
1001
AME_SOL
1070
     1
1071
       29
  0
LINE
  8
0
 62
     7
  5
1E3
 10
6.0
 20
3.0
 30
2.0
 11
6.0
 21
2.0
 31
2.0
1001
AME_SOL
1070
     1
1071
       28
  0
LINE
  8
0
 62
     7
  5
1E4
 10
4.0
 20
3.0
 30
2.0
 11
4.0
 21
1.0
 31
2.0
1001
AME_SOL
1070
     1
1071
       27
  0
LINE
  8
0
 62
     7
  5
1E5
 10
5.0
 20
3.0
 30
2.0
 11
6.0
 21
3.0
 31
2.0
1001
AME_SOL
1070
     1
1071
       26
  0
LINE
  8
0
 62
     7
  5
1E6
 10
3.0
 20
3.0
 30
2.0
 11
4.0
 21
3.0
 31
2.0
1001
AME_SOL
1070
     1
1071
       25
  0
LINE
  8
0
 62
     7
  5
1E7
 10
1.0
 20
3.0
 30
2.0
 11
2.0
 21
3.0
 31
2.0
1001
AME_SOL
1070
     1
1071
       24
  0
LINE
  8
0
 62
     7
  5
1E8
 10
5.0
 20
1.0
 30
0.0
 11
5.0
 21
3.0
 31
0.0
1001
AME_SOL
1070
     1
1071
       23
  0
LINE
  8
0
 62
     7
  5
1E9
 10
5.0
 20
1.0
 30
0.0
 11
5.0
 21
1.0
 31
3.0
1001
AME_SOL
1070
     1
1071
       22
  0
LINE
  8
0
 62
     7
  5
1EA
 10
5.0
 20
2.0
 30
3.0
 11
5.0
 21
1.0
 31
3.0
1001
AME_SOL
1070
     1
1071
       21
  0
LINE
  8
0
 62
     7
  5
1EB
 10
5.0
 20
3.0
 30
0.0
 11
5.0
 21
3.0
 31
2.0
1001
AME_SOL
1070
     1
1071
       20
  0
LINE
  8
0
 62
     7
  5
1EC
 10
5.0
 20
3.0
 30
2.0
 11
5.0
 21
2.0
 31
2.0
1001
AME_SOL
1070
     1
1071
       19
  0
LINE
  8
0
 62
     7
  5
1ED
 10
6.0
 20
2.0
 30
2.0
 11
6.0
 21
2.0
 31
3.0
1001
AME_SOL
1070
     1
1071
       18
  0
LINE
  8
0
 62
     7
  5
1EE
 10
5.999999
 20
2.0
 30
3.0
 11
4.999999
 21
2.0
 31
3.0
1001
AME_SOL
1070
     1
1071
       17
  0
LINE
  8
0
 62
     7
  5
1EF
 10
5.0
 20
2.0
 30
3.0
 11
5.0
 21
2.0
 31
2.0
1001
AME_SOL
1070
     1
1071
       16
  0
LINE
  8
0
 62
     7
  5
1F0
 10
6.0
 20
2.0
 30
2.0
 11
4.999999
 21
2.0
 31
2.0
1001
AME_SOL
1070
     1
1071
       15
  0
ENDBLK
  8
0
  5
1F1
  0
BLOCK
  8
0
  5
2B0
  2
*U12
 70
    65
 10
0.0
 20
0.0
 30
0.0
  1
*U
  3
*U
  0
LINE
  8
0
 62
     0
  5
2B1
 10
1.0
 20
2.0
 30
0.0
 11
1.0
 21
2.0
 31
2.0
1001
AME_SOL
1070
     1
1071
       18
  0
LINE
  8
0
 62
     0
  5
2B2
 10
1.0
 20
2.0
 30
2.0
 11
1.0
 21
0.0
 31
2.0
1001
AME_SOL
1070
     1
1071
       17
  0
LINE
  8
0
 62
     0
  5
2B3
 10
0.0
 20
2.0
 30
2.0
 11
1.0
 21
2.0
 31
2.0
1001
AME_SOL
1070
     1
1071
       16
  0
LINE
  8
0
 62
     0
  5
2B4
 10
0.0
 20
2.0
 30
0.0
 11
0.0
 21
2.0
 31
2.0
1001
AME_SOL
1070
     1
1071
       15
  0
LINE
  8
0
 62
     0
  5
2B5
 10
0.0
 20
2.0
 30
2.0
 11
0.0
 21
0.0
 31
2.0
1001
AME_SOL
1070
     1
1071
       14
  0
LINE
  8
0
 62
     0
  5
2B6
 10
0.0
 20
0.0
 30
0.0
 11
0.0
 21
0.0
 31
2.0
1001
AME_SOL
1070
     1
1071
       13
  0
LINE
  8
0
 62
     0
  5
2B7
 10
1.0
 20
0.0
 30
2.0
 11
1.0
 21
0.0
 31
0.0
1001
AME_SOL
1070
     1
1071
       12
  0
LINE
  8
0
 62
     0
  5
2B8
 10
0.0
 20
0.0
 30
2.0
 11
1.0
 21
0.0
 31
2.0
1001
AME_SOL
1070
     1
1071
       11
  0
LINE
  8
0
 62
     0
  5
2B9
 10
0.0
 20
0.0
 30
0.0
 11
1.0
 21
0.0
 31
0.0
1001
AME_SOL
1070
     1
1071
       10
  0
LINE
  8
0
 62
     0
  5
2BA
 10
0.0
 20
2.0
 30
0.0
 11
0.0
 21
0.0
 31
0.0
1001
AME_SOL
1070
     1
1071
        9
  0
LINE
  8
0
 62
     0
  5
2BB
 10
1.0
 20
0.0
 30
0.0
 11
1.0
 21
2.0
 31
0.0
1001
AME_SOL
1070
     1
1071
        8
  0
LINE
  8
0
 62
     0
  5
2BC
 10
1.0
 20
2.0
 30
0.0
 11
0.0
 21
2.0
 31
0.0
1001
AME_SOL
1070
     1
1071
        7
  0
ENDBLK
  8
0
  5
2BD
  0
BLOCK
  8
0
  5
2C2
  2
*U13
 70
    65
 10
0.0
 20
0.0
 30
0.0
  1
*U
  3
*U
  0
LINE
  8
0
 62
     7
  5
2C3
 10
0.0
 20
1.0
 30
3.0
 11
5.0
 21
1.0
 31
3.0
1001
AME_SOL
1070
     1
1071
       58
  0
LINE
  8
0
 62
     7
  5
2C4
 10
6.0
 20
2.0
 30
3.0
 11
6.0
 21
0.0
 31
3.0
1001
AME_SOL
1070
     1
1071
       57
  0
LINE
  8
0
 62
     7
  5
2C5
 10
0.0
 20
1.0
 30
2.0
 11
0.0
 21
1.0
 31
3.0
1001
AME_SOL
1070
     1
1071
       56
  0
LINE
  8
0
 62
     7
  5
2C6
 10
0.0
 20
1.0
 30
3.0
 11
0.0
 21
0.0
 31
3.0
1001
AME_SOL
1070
     1
1071
       55
  0
LINE
  8
0
 62
     7
  5
2C7
 10
0.0
 20
0.0
 30
0.0
 11
0.0
 21
0.0
 31
3.0
1001
AME_SOL
1070
     1
1071
       54
  0
LINE
  8
0
 62
     7
  5
2C8
 10
6.0
 20
0.0
 30
3.0
 11
6.0
 21
0.0
 31
0.0
1001
AME_SOL
1070
     1
1071
       53
  0
LINE
  8
0
 62
     7
  5
2C9
 10
0.0
 20
0.0
 30
3.0
 11
6.0
 21
0.0
 31
3.0
1001
AME_SOL
1070
     1
1071
       52
  0
LINE
  8
0
 62
     7
  5
2CA
 10
0.0
 20
0.0
 30
0.0
 11
6.0
 21
0.0
 31
0.0
1001
AME_SOL
1070
     1
1071
       51
  0
LINE
  8
0
 62
     7
  5
2CB
 10
3.0
 20
1.0
 30
0.0
 11
2.0
 21
1.0
 31
0.0
1001
AME_SOL
1070
     1
1071
       50
  0
LINE
  8
0
 62
     7
  5
2CC
 10
5.0
 20
1.0
 30
0.0
 11
4.0
 21
1.0
 31
0.0
1001
AME_SOL
1070
     1
1071
       49
  0
LINE
  8
0
 62
     7
  5
2CD
 10
0.0
 20
3.0
 30
0.0
 11
0.0
 21
0.0
 31
0.0
1001
AME_SOL
1070
     1
1071
       48
  0
LINE
  8
0
 62
     7
  5
2CE
 10
6.0
 20
0.0
 30
0.0
 11
6.0
 21
3.0
 31
0.0
1001
AME_SOL
1070
     1
1071
       47
  0
LINE
  8
0
 62
     7
  5
2CF
 10
2.0
 20
3.0
 30
0.0
 11
2.0
 21
1.0
 31
0.0
1001
AME_SOL
1070
     1
1071
       46
  0
LINE
  8
0
 62
     7
  5
2D0
 10
2.0
 20
1.0
 30
2.0
 11
2.0
 21
1.0
 31
0.0
1001
AME_SOL
1070
     1
1071
       45
  0
LINE
  8
0
 62
     7
  5
2D1
 10
4.999999
 20
3.0
 30
0.0
 11
6.0
 21
3.0
 31
0.0
1001
AME_SOL
1070
     1
1071
       44
  0
LINE
  8
0
 62
     7
  5
2D2
 10
3.0
 20
3.0
 30
0.0
 11
4.0
 21
3.0
 31
0.0
1001
AME_SOL
1070
     1
1071
       43
  0
LINE
  8
0
 62
     7
  5
2D3
 10
0.0
 20
3.0
 30
0.0
 11
2.0
 21
3.0
 31
0.0
1001
AME_SOL
1070
     1
1071
       42
  0
LINE
  8
0
 62
     7
  5
2D4
 10
0.0
 20
3.0
 30
2.0
 11
0.0
 21
3.0
 31
0.0
1001
AME_SOL
1070
     1
1071
       41
  0
LINE
  8
0
 62
     7
  5
2D5
 10
2.0
 20
3.0
 30
0.0
 11
2.0
 21
3.0
 31
2.0
1001
AME_SOL
1070
     1
1071
       40
  0
LINE
  8
0
 62
     7
  5
2D6
 10
6.0
 20
3.0
 30
0.0
 11
6.0
 21
3.0
 31
2.0
1001
AME_SOL
1070
     1
1071
       39
  0
LINE
  8
0
 62
     7
  5
2D7
 10
4.0
 20
3.0
 30
0.0
 11
4.0
 21
1.0
 31
0.0
1001
AME_SOL
1070
     1
1071
       38
  0
LINE
  8
0
 62
     7
  5
2D8
 10
4.0
 20
1.0
 30
2.0
 11
4.0
 21
1.0
 31
0.0
1001
AME_SOL
1070
     1
1071
       37
  0
LINE
  8
0
 62
     7
  5
2D9
 10
4.0
 20
3.0
 30
2.0
 11
4.0
 21
3.0
 31
0.0
1001
AME_SOL
1070
     1
1071
       36
  0
LINE
  8
0
 62
     7
  5
2DA
 10
3.0
 20
1.0
 30
0.0
 11
3.0
 21
3.0
 31
0.0
1001
AME_SOL
1070
     1
1071
       35
  0
LINE
  8
0
 62
     7
  5
2DB
 10
3.0
 20
1.0
 30
0.0
 11
3.0
 21
1.0
 31
2.0
1001
AME_SOL
1070
     1
1071
       34
  0
LINE
  8
0
 62
     7
  5
2DC
 10
3.0
 20
3.0
 30
0.0
 11
3.0
 21
3.0
 31
2.0
1001
AME_SOL
1070
     1
1071
       33
  0
LINE
  8
0
 62
     7
  5
2DD
 10
3.0
 20
1.0
 30
2.0
 11
4.0
 21
1.0
 31
2.0
1001
AME_SOL
1070
     1
1071
       32
  0
LINE
  8
0
 62
     7
  5
2DE
 10
0.0
 20
1.0
 30
2.0
 11
2.0
 21
1.0
 31
2.0
1001
AME_SOL
1070
     1
1071
       31
  0
LINE
  8
0
 62
     7
  5
2DF
 10
0.0
 20
1.0
 30
2.0
 11
0.0
 21
3.0
 31
2.0
1001
AME_SOL
1070
     1
1071
       30
  0
LINE
  8
0
 62
     7
  5
2E0
 10
2.0
 20
3.0
 30
2.0
 11
2.0
 21
1.0
 31
2.0
1001
AME_SOL
1070
     1
1071
       29
  0
LINE
  8
0
 62
     7
  5
2E1
 10
3.0
 20
1.0
 30
2.0
 11
3.0
 21
3.0
 31
2.0
1001
AME_SOL
1070
     1
1071
       28
  0
LINE
  8
0
 62
     7
  5
2E2
 10
6.0
 20
3.0
 30
2.0
 11
6.0
 21
2.0
 31
2.0
1001
AME_SOL
1070
     1
1071
       27
  0
LINE
  8
0
 62
     7
  5
2E3
 10
4.0
 20
3.0
 30
2.0
 11
4.0
 21
1.0
 31
2.0
1001
AME_SOL
1070
     1
1071
       26
  0
LINE
  8
0
 62
     7
  5
2E4
 10
5.0
 20
3.0
 30
2.0
 11
6.0
 21
3.0
 31
2.0
1001
AME_SOL
1070
     1
1071
       25
  0
LINE
  8
0
 62
     7
  5
2E5
 10
3.0
 20
3.0
 30
2.0
 11
4.0
 21
3.0
 31
2.0
1001
AME_SOL
1070
     1
1071
       24
  0
LINE
  8
0
 62
     7
  5
2E6
 10
0.0
 20
3.0
 30
2.0
 11
2.0
 21
3.0
 31
2.0
1001
AME_SOL
1070
     1
1071
       23
  0
LINE
  8
0
 62
     7
  5
2E7
 10
5.0
 20
1.0
 30
0.0
 11
5.0
 21
3.0
 31
0.0
1001
AME_SOL
1070
     1
1071
       22
  0
LINE
  8
0
 62
     7
  5
2E8
 10
5.0
 20
1.0
 30
0.0
 11
5.0
 21
1.0
 31
3.0
1001
AME_SOL
1070
     1
1071
       21
  0
LINE
  8
0
 62
     7
  5
2E9
 10
5.0
 20
2.0
 30
3.0
 11
5.0
 21
1.0
 31
3.0
1001
AME_SOL
1070
     1
1071
       20
  0
LINE
  8
0
 62
     7
  5
2EA
 10
5.0
 20
3.0
 30
0.0
 11
5.0
 21
3.0
 31
2.0
1001
AME_SOL
1070
     1
1071
       19
  0
LINE
  8
0
 62
     7
  5
2EB
 10
5.0
 20
3.0
 30
2.0
 11
5.0
 21
2.0
 31
2.0
1001
AME_SOL
1070
     1
1071
       18
  0
LINE
  8
0
 62
     7
  5
2EC
 10
6.0
 20
2.0
 30
2.0
 11
6.0
 21
2.0
 31
3.0
1001
AME_SOL
1070
     1
1071
       17
  0
LINE
  8
0
 62
     7
  5
2ED
 10
5.999999
 20
2.0
 30
3.0
 11
4.999999
 21
2.0
 31
3.0
1001
AME_SOL
1070
     1
1071
       16
  0
LINE
  8
0
 62
     7
  5
2EE
 10
5.0
 20
2.0
 30
3.0
 11
5.0
 21
2.0
 31
2.0
1001
AME_SOL
1070
     1
1071
       15
  0
LINE
  8
0
 62
     7
  5
2EF
 10
6.0
 20
2.0
 30
2.0
 11
4.999999
 21
2.0
 31
2.0
1001
AME_SOL
1070
     1
1071
       14
  0
ENDBLK
  8
0
  5
2F0
  0
BLOCK
  8
0
  5
2F4
  2
*U14
 70
    65
 10
0.0
 20
0.0
 30
0.0
  1
*U
  3
*U
  0
POLYLINE
  8
0
 62
     7
  5
2F5
 66
     1
 10
0.0
 20
0.0
 30
0.0
 70
    64
  0
VERTEX
  8
0
  5
2F6
 10
6.0
 20
0.0
 30
0.0
 70
   192
  0
VERTEX
  8
0
  5
2F7
 10
6.0
 20
3.0
 30
2.0
 70
   192
  0
VERTEX
  8
0
  5
2F8
 10
6.0
 20
2.0
 30
2.0
 70
   192
  0
VERTEX
  8
0
  5
2F9
 10
6.0
 20
0.0
 30
3.0
 70
   192
  0
VERTEX
  8
0
  5
2FA
 10
6.0
 20
2.0
 30
3.0
 70
   192
  0
VERTEX
  8
0
  5
2FB
 10
6.0
 20
3.0
 30
0.0
 70
   192
  0
VERTEX
  8
0
 62
     7
  5
2FC
 10
0.0
 20
0.0
 30
0.0
 70
   128
 71
    -1
 72
     2
 73
    -3
  0
VERTEX
  8
0
 62
     7
  5
2FD
 10
0.0
 20
0.0
 30
0.0
 70
   128
 71
    -3
 72
     4
 73
    -1
  0
VERTEX
  8
0
 62
     7
  5
2FE
 10
0.0
 20
0.0
 30
0.0
 70
   128
 71
     3
 72
     5
 73
    -4
  0
VERTEX
  8
0
 62
     7
  5
2FF
 10
0.0
 20
0.0
 30
0.0
 70
   128
 71
     1
 72
     6
 73
    -2
  0
SEQEND
  8
0
 62
     7
  5
300
  0
POLYLINE
  8
0
 62
     7
  5
301
 66
     1
 10
0.0
 20
0.0
 30
0.0
 70
    64
  0
VERTEX
  8
0
  5
302
 10
3.0
 20
1.0
 30
2.0
 70
   192
  0
VERTEX
  8
0
  5
303
 10
0.0
 20
1.0
 30
3.0
 70
   192
  0
VERTEX
  8
0
  5
304
 10
4.0
 20
1.0
 30
2.0
 70
   192
  0
VERTEX
  8
0
  5
305
 10
5.0
 20
1.0
 30
3.0
 70
   192
  0
VERTEX
  8
0
  5
306
 10
2.0
 20
1.0
 30
2.0
 70
   192
  0
VERTEX
  8
0
  5
307
 10
3.0
 20
1.0
 30
0.0
 70
   192
  0
VERTEX
  8
0
  5
308
 10
4.0
 20
1.0
 30
0.0
 70
   192
  0
VERTEX
  8
0
  5
309
 10
5.0
 20
1.0
 30
0.0
 70
   192
  0
VERTEX
  8
0
  5
30A
 10
0.0
 20
1.0
 30
2.0
 70
   192
  0
VERTEX
  8
0
  5
30B
 10
2.0
 20
1.0
 30
0.0
 70
   192
  0
VERTEX
  8
0
 62
     7
  5
30C
 10
0.0
 20
0.0
 30
0.0
 70
   128
 71
    -1
 72
    -2
 73
     3
  0
VERTEX
  8
0
 62
     7
  5
30D
 10
0.0
 20
0.0
 30
0.0
 70
   128
 71
     2
 72
    -4
 73
    -3
  0
VERTEX
  8
0
 62
     7
  5
30E
 10
0.0
 20
0.0
 30
0.0
 70
   128
 71
    -1
 72
    -5
 73
    -2
  0
VERTEX
  8
0
 62
     7
  5
30F
 10
0.0
 20
0.0
 30
0.0
 70
   128
 71
     1
 72
    -6
 73
    -5
  0
VERTEX
  8
0
 62
     7
  5
310
 10
0.0
 20
0.0
 30
0.0
 70
   128
 71
    -4
 72
     7
 73
    -3
  0
VERTEX
  8
0
 62
     7
  5
311
 10
0.0
 20
0.0
 30
0.0
 70
   128
 71
     4
 72
     8
 73
    -7
  0
VERTEX
  8
0
 62
     7
  5
312
 10
0.0
 20
0.0
 30
0.0
 70
   128
 71
     5
 72
     9
 73
    -2
  0
VERTEX
  8
0
 62
     7
  5
313
 10
0.0
 20
0.0
 30
0.0
 70
   128
 71
     6
 72
    10
 73
    -5
  0
SEQEND
  8
0
 62
     7
  5
314
  0
POLYLINE
  8
0
 62
     7
  5
315
 66
     1
 10
0.0
 20
0.0
 30
0.0
 70
    64
  0
VERTEX
  8
0
  5
316
 10
5.0
 20
1.0
 30
3.0
 70
   192
  0
VERTEX
  8
0
  5
317
 10
0.0
 20
0.0
 30
3.0
 70
   192
  0
VERTEX
  8
0
  5
318
 10
6.0
 20
0.0
 30
3.0
 70
   192
  0
VERTEX
  8
0
  5
319
 10
0.0
 20
1.0
 30
3.0
 70
   192
  0
VERTEX
  8
0
  5
31A
 10
5.0
 20
2.0
 30
3.0
 70
   192
  0
VERTEX
  8
0
  5
31B
 10
6.0
 20
2.0
 30
3.0
 70
   192
  0
VERTEX
  8
0
 62
     7
  5
31C
 10
0.0
 20
0.0
 30
0.0
 70
   128
 71
    -1
 72
     2
 73
    -3
  0
VERTEX
  8
0
 62
     7
  5
31D
 10
0.0
 20
0.0
 30
0.0
 70
   128
 71
     1
 72
     4
 73
    -2
  0
VERTEX
  8
0
 62
     7
  5
31E
 10
0.0
 20
0.0
 30
0.0
 70
   128
 71
    -3
 72
     5
 73
    -1
  0
VERTEX
  8
0
 62
     7
  5
31F
 10
0.0
 20
0.0
 30
0.0
 70
   128
 71
     3
 72
     6
 73
    -5
  0
SEQEND
  8
0
 62
     7
  5
320
  0
POLYLINE
  8
0
 62
     7
  5
321
 66
     1
 10
0.0
 20
0.0
 30
0.0
 70
    64
  0
VERTEX
  8
0
  5
322
 10
0.0
 20
0.0
 30
0.0
 70
   192
  0
VERTEX
  8
0
  5
323
 10
0.0
 20
1.0
 30
3.0
 70
   192
  0
VERTEX
  8
0
  5
324
 10
0.0
 20
1.0
 30
2.0
 70
   192
  0
VERTEX
  8
0
  5
325
 10
0.0
 20
3.0
 30
2.0
 70
   192
  0
VERTEX
  8
0
  5
326
 10
0.0
 20
0.0
 30
3.0
 70
   192
  0
VERTEX
  8
0
  5
327
 10
0.0
 20
3.0
 30
0.0
 70
   192
  0
VERTEX
  8
0
 62
     7
  5
328
 10
0.0
 20
0.0
 30
0.0
 70
   128
 71
    -1
 72
     2
 73
    -3
  0
VERTEX
  8
0
 62
     7
  5
329
 10
0.0
 20
0.0
 30
0.0
 70
   128
 71
     3
 72
    -4
 73
    -1
  0
VERTEX
  8
0
 62
     7
  5
32A
 10
0.0
 20
0.0
 30
0.0
 70
   128
 71
     1
 72
     5
 73
    -2
  0
VERTEX
  8
0
 62
     7
  5
32B
 10
0.0
 20
0.0
 30
0.0
 70
   128
 71
     4
 72
     6
 73
    -1
  0
SEQEND
  8
0
 62
     7
  5
32C
  0
POLYLINE
  8
0
 62
     7
  5
32D
 66
     1
 10
0.0
 20
0.0
 30
0.0
 70
    64
  0
VERTEX
  8
0
  5
32E
 10
6.0
 20
0.0
 30
3.0
 70
   192
  0
VERTEX
  8
0
  5
32F
 10
0.0
 20
0.0
 30
3.0
 70
   192
  0
VERTEX
  8
0
  5
330
 10
0.0
 20
0.0
 30
0.0
 70
   192
  0
VERTEX
  8
0
  5
331
 10
6.0
 20
0.0
 30
0.0
 70
   192
  0
VERTEX
  8
0
 62
     7
  5
332
 10
0.0
 20
0.0
 30
0.0
 70
   128
 71
     1
 72
     2
 73
    -3
  0
VERTEX
  8
0
 62
     7
  5
333
 10
0.0
 20
0.0
 30
0.0
 70
   128
 71
     3
 72
     4
 73
    -1
  0
SEQEND
  8
0
 62
     7
  5
334
  0
POLYLINE
  8
0
 62
     7
  5
335
 66
     1
 10
0.0
 20
0.0
 30
0.0
 70
    64
  0
VERTEX
  8
0
  5
336
 10
4.0
 20
1.0
 30
0.0
 70
   192
  0
VERTEX
  8
0
  5
337
 10
6.0
 20
0.0
 30
0.0
 70
   192
  0
VERTEX
  8
0
  5
338
 10
3.0
 20
1.0
 30
0.0
 70
   192
  0
VERTEX
  8
0
  5
339
 10
4.0
 20
3.0
 30
0.0
 70
   192
  0
VERTEX
  8
0
  5
33A
 10
0.0
 20
0.0
 30
0.0
 70
   192
  0
VERTEX
  8
0
  5
33B
 10
5.0
 20
1.0
 30
0.0
 70
   192
  0
VERTEX
  8
0
  5
33C
 10
6.0
 20
3.0
 30
0.0
 70
   192
  0
VERTEX
  8
0
  5
33D
 10
3.0
 20
3.0
 30
0.0
 70
   192
  0
VERTEX
  8
0
  5
33E
 10
2.0
 20
1.0
 30
0.0
 70
   192
  0
VERTEX
  8
0
  5
33F
 10
2.0
 20
3.0
 30
0.0
 70
   192
  0
VERTEX
  8
0
  5
340
 10
0.0
 20
3.0
 30
0.0
 70
   192
  0
VERTEX
  8
0
  5
341
 10
5.0
 20
3.0
 30
0.0
 70
   192
  0
VERTEX
  8
0
 62
     7
  5
342
 10
0.0
 20
0.0
 30
0.0
 70
   128
 71
    -1
 72
    -2
 73
    -3
  0
VERTEX
  8
0
 62
     7
  5
343
 10
0.0
 20
0.0
 30
0.0
 70
   128
 71
    -3
 72
     4
 73
    -1
  0
VERTEX
  8
0
 62
     7
  5
344
 10
0.0
 20
0.0
 30
0.0
 70
   128
 71
     2
 72
    -5
 73
    -3
  0
VERTEX
  8
0
 62
     7
  5
345
 10
0.0
 20
0.0
 30
0.0
 70
   128
 71
     1
 72
    -6
 73
    -2
  0
VERTEX
  8
0
 62
     7
  5
346
 10
0.0
 20
0.0
 30
0.0
 70
   128
 71
    -6
 72
     7
 73
    -2
  0
VERTEX
  8
0
 62
     7
  5
347
 10
0.0
 20
0.0
 30
0.0
 70
   128
 71
     3
 72
     8
 73
    -4
  0
VERTEX
  8
0
 62
     7
  5
348
 10
0.0
 20
0.0
 30
0.0
 70
   128
 71
    -5
 72
     9
 73
    -3
  0
VERTEX
  8
0
 62
     7
  5
349
 10
0.0
 20
0.0
 30
0.0
 70
   128
 71
    -5
 72
    10
 73
    -9
  0
VERTEX
  8
0
 62
     7
  5
34A
 10
0.0
 20
0.0
 30
0.0
 70
   128
 71
     5
 72
    11
 73
   -10
  0
VERTEX
  8
0
 62
     7
  5
34B
 10
0.0
 20
0.0
 30
0.0
 70
   128
 71
     6
 72
    12
 73
    -7
  0
SEQEND
  8
0
 62
     7
  5
34C
  0
POLYLINE
  8
0
 62
     7
  5
34D
 66
     1
 10
0.0
 20
0.0
 30
0.0
 70
    64
  0
VERTEX
  8
0
  5
34E
 10
2.0
 20
1.0
 30
2.0
 70
   192
  0
VERTEX
  8
0
  5
34F
 10
2.0
 20
3.0
 30
0.0
 70
   192
  0
VERTEX
  8
0
  5
350
 10
2.0
 20
3.0
 30
2.0
 70
   192
  0
VERTEX
  8
0
  5
351
 10
2.0
 20
1.0
 30
0.0
 70
   192
  0
VERTEX
  8
0
 62
     7
  5
352
 10
0.0
 20
0.0
 30
0.0
 70
   128
 71
    -1
 72
     2
 73
     3
  0
VERTEX
  8
0
 62
     7
  5
353
 10
0.0
 20
0.0
 30
0.0
 70
   128
 71
     1
 72
     4
 73
    -2
  0
SEQEND
  8
0
 62
     7
  5
354
  0
POLYLINE
  8
0
 62
     7
  5
355
 66
     1
 10
0.0
 20
0.0
 30
0.0
 70
    64
  0
VERTEX
  8
0
  5
356
 10
6.0
 20
3.0
 30
2.0
 70
   192
  0
VERTEX
  8
0
  5
357
 10
6.0
 20
3.0
 30
0.0
 70
   192
  0
VERTEX
  8
0
  5
358
 10
5.0
 20
3.0
 30
0.0
 70
   192
  0
VERTEX
  8
0
  5
359
 10
5.0
 20
3.0
 30
2.0
 70
   192
  0
VERTEX
  8
0
  5
35A
 10
2.0
 20
3.0
 30
2.0
 70
   192
  0
VERTEX
  8
0
  5
35B
 10
2.0
 20
3.0
 30
0.0
 70
   192
  0
VERTEX
  8
0
  5
35C
 10
0.0
 20
3.0
 30
0.0
 70
   192
  0
VERTEX
  8
0
  5
35D
 10
0.0
 20
3.0
 30
2.0
 70
   192
  0
VERTEX
  8
0
  5
35E
 10
4.0
 20
3.0
 30
2.0
 70
   192
  0
VERTEX
  8
0
  5
35F
 10
4.0
 20
3.0
 30
0.0
 70
   192
  0
VERTEX
  8
0
  5
360
 10
3.0
 20
3.0
 30
2.0
 70
   192
  0
VERTEX
  8
0
  5
361
 10
3.0
 20
3.0
 30
0.0
 70
   192
  0
VERTEX
  8
0
 62
     7
  5
362
 10
0.0
 20
0.0
 30
0.0
 70
   128
 71
     1
 72
     2
 73
    -3
  0
VERTEX
  8
0
 62
     7
  5
363
 10
0.0
 20
0.0
 30
0.0
 70
   128
 71
     3
 72
     4
 73
    -1
  0
VERTEX
  8
0
 62
     7
  5
364
 10
0.0
 20
0.0
 30
0.0
 70
   128
 71
     5
 72
     6
 73
    -7
  0
VERTEX
  8
0
 62
     7
  5
365
 10
0.0
 20
0.0
 30
0.0
 70
   128
 71
     7
 72
     8
 73
    -5
  0
VERTEX
  8
0
 62
     7
  5
366
 10
0.0
 20
0.0
 30
0.0
 70
   128
 71
     9
 72
   -10
 73
    11
  0
VERTEX
  8
0
 62
     7
  5
367
 10
0.0
 20
0.0
 30
0.0
 70
   128
 71
    10
 72
    12
 73
   -11
  0
SEQEND
  8
0
 62
     7
  5
368
  0
POLYLINE
  8
0
 62
     7
  5
369
 66
     1
 10
0.0
 20
0.0
 30
0.0
 70
    64
  0
VERTEX
  8
0
  5
36A
 10
4.0
 20
1.0
 30
2.0
 70
   192
  0
VERTEX
  8
0
  5
36B
 10
4.0
 20
3.0
 30
0.0
 70
   192
  0
VERTEX
  8
0
  5
36C
 10
4.0
 20
3.0
 30
2.0
 70
   192
  0
VERTEX
  8
0
  5
36D
 10
4.0
 20
1.0
 30
0.0
 70
   192
  0
VERTEX
  8
0
 62
     7
  5
36E
 10
0.0
 20
0.0
 30
0.0
 70
   128
 71
    -1
 72
     2
 73
     3
  0
VERTEX
  8
0
 62
     7
  5
36F
 10
0.0
 20
0.0
 30
0.0
 70
   128
 71
     1
 72
     4
 73
    -2
  0
SEQEND
  8
0
 62
     7
  5
370
  0
POLYLINE
  8
0
 62
     7
  5
371
 66
     1
 10
0.0
 20
0.0
 30
0.0
 70
    64
  0
VERTEX
  8
0
  5
372
 10
3.0
 20
3.0
 30
0.0
 70
   192
  0
VERTEX
  8
0
  5
373
 10
3.0
 20
1.0
 30
0.0
 70
   192
  0
VERTEX
  8
0
  5
374
 10
3.0
 20
1.0
 30
2.0
 70
   192
  0
VERTEX
  8
0
  5
375
 10
3.0
 20
3.0
 30
2.0
 70
   192
  0
VERTEX
  8
0
 62
     7
  5
376
 10
0.0
 20
0.0
 30
0.0
 70
   128
 71
     1
 72
     2
 73
    -3
  0
VERTEX
  8
0
 62
     7
  5
377
 10
0.0
 20
0.0
 30
0.0
 70
   128
 71
     3
 72
     4
 73
    -1
  0
SEQEND
  8
0
 62
     7
  5
378
  0
POLYLINE
  8
0
 62
     7
  5
379
 66
     1
 10
0.0
 20
0.0
 30
0.0
 70
    64
  0
VERTEX
  8
0
  5
37A
 10
6.0
 20
2.0
 30
2.0
 70
   192
  0
VERTEX
  8
0
  5
37B
 10
6.0
 20
3.0
 30
2.0
 70
   192
  0
VERTEX
  8
0
  5
37C
 10
5.0
 20
3.0
 30
2.0
 70
   192
  0
VERTEX
  8
0
  5
37D
 10
5.0
 20
2.0
 30
2.0
 70
   192
  0
VERTEX
  8
0
  5
37E
 10
0.0
 20
3.0
 30
2.0
 70
   192
  0
VERTEX
  8
0
  5
37F
 10
0.0
 20
1.0
 30
2.0
 70
   192
  0
VERTEX
  8
0
  5
380
 10
2.0
 20
3.0
 30
2.0
 70
   192
  0
VERTEX
  8
0
  5
381
 10
2.0
 20
1.0
 30
2.0
 70
   192
  0
VERTEX
  8
0
  5
382
 10
3.0
 20
3.0
 30
2.0
 70
   192
  0
VERTEX
  8
0
  5
383
 10
4.0
 20
1.0
 30
2.0
 70
   192
  0
VERTEX
  8
0
  5
384
 10
4.0
 20
3.0
 30
2.0
 70
   192
  0
VERTEX
  8
0
  5
385
 10
3.0
 20
1.0
 30
2.0
 70
   192
  0
VERTEX
  8
0
 62
     7
  5
386
 10
0.0
 20
0.0
 30
0.0
 70
   128
 71
     1
 72
     2
 73
    -3
  0
VERTEX
  8
0
 62
     7
  5
387
 10
0.0
 20
0.0
 30
0.0
 70
   128
 71
     3
 72
     4
 73
    -1
  0
VERTEX
  8
0
 62
     7
  5
388
 10
0.0
 20
0.0
 30
0.0
 70
   128
 71
     5
 72
    -6
 73
     7
  0
VERTEX
  8
0
 62
     7
  5
389
 10
0.0
 20
0.0
 30
0.0
 70
   128
 71
     6
 72
     8
 73
    -7
  0
VERTEX
  8
0
 62
     7
  5
38A
 10
0.0
 20
0.0
 30
0.0
 70
   128
 71
    -9
 72
    10
 73
    11
  0
VERTEX
  8
0
 62
     7
  5
38B
 10
0.0
 20
0.0
 30
0.0
 70
   128
 71
     9
 72
    12
 73
   -10
  0
SEQEND
  8
0
 62
     7
  5
38C
  0
POLYLINE
  8
0
 62
     7
  5
38D
 66
     1
 10
0.0
 20
0.0
 30
0.0
 70
    64
  0
VERTEX
  8
0
  5
38E
 10
5.0
 20
2.0
 30
2.0
 70
   192
  0
VERTEX
  8
0
  5
38F
 10
5.0
 20
1.0
 30
0.0
 70
   192
  0
VERTEX
  8
0
  5
390
 10
5.0
 20
2.0
 30
3.0
 70
   192
  0
VERTEX
  8
0
  5
391
 10
5.0
 20
3.0
 30
2.0
 70
   192
  0
VERTEX
  8
0
  5
392
 10
5.0
 20
1.0
 30
3.0
 70
   192
  0
VERTEX
  8
0
  5
393
 10
5.0
 20
3.0
 30
0.0
 70
   192
  0
VERTEX
  8
0
 62
     7
  5
394
 10
0.0
 20
0.0
 30
0.0
 70
   128
 71
    -1
 72
    -2
 73
     3
  0
VERTEX
  8
0
 62
     7
  5
395
 10
0.0
 20
0.0
 30
0.0
 70
   128
 71
     1
 72
    -4
 73
    -2
  0
VERTEX
  8
0
 62
     7
  5
396
 10
0.0
 20
0.0
 30
0.0
 70
   128
 71
     2
 72
     5
 73
    -3
  0
VERTEX
  8
0
 62
     7
  5
397
 10
0.0
 20
0.0
 30
0.0
 70
   128
 71
     4
 72
     6
 73
    -2
  0
SEQEND
  8
0
 62
     7
  5
398
  0
POLYLINE
  8
0
 62
     7
  5
399
 66
     1
 10
0.0
 20
0.0
 30
0.0
 70
    64
  0
VERTEX
  8
0
  5
39A
 10
5.0
 20
2.0
 30
2.0
 70
   192
  0
VERTEX
  8
0
  5
39B
 10
6.0
 20
2.0
 30
3.0
 70
   192
  0
VERTEX
  8
0
  5
39C
 10
6.0
 20
2.0
 30
2.0
 70
   192
  0
VERTEX
  8
0
  5
39D
 10
5.0
 20
2.0
 30
3.0
 70
   192
  0
VERTEX
  8
0
 62
     7
  5
39E
 10
0.0
 20
0.0
 30
0.0
 70
   128
 71
    -1
 72
     2
 73
     3
  0
VERTEX
  8
0
 62
     7
  5
39F
 10
0.0
 20
0.0
 30
0.0
 70
   128
 71
     1
 72
     4
 73
    -2
  0
SEQEND
  8
0
 62
     7
  5
3A0
  0
ENDBLK
  8
0
  5
3A1
  0
BLOCK
  8
0
  5
3A3
  2
AME_MAT
 70
    64
 10
0.0
 20
0.0
 30
0.0
  1
AME_MAT
  3
AME_MAT
  0
ENDBLK
  8
0
  5
3A4
  0
ENDSEC
  0
SECTION
  2
ENTITIES
  0
INSERT
  8
AME_FRZ
  5
3
  2
AME_NIL
 10
0.0
 20
0.0
 30
0.0
  0
INSERT
  8
AME_FRZ
  5
6
  2
AME_SOL
 10
0.0
 20
0.0
 30
0.0
1001
AME_SOL
1000
1.0
1000
sq cm
1070
     3
1070
     0
1070
     3
1000
wire
1040
0.0
1000
NONE
1040
1.0
1000
cm
1000
gm
1000
MILD_STEEL
1070
    25
1000
CSG
1070
     3
1070
     2
1070
     3
1000
cu cm
1070
     4
1070
     0
1005
3
  0
INSERT
  8
AME_FRZ
  5
15
  2
*U2
 10
0.0
 20
0.0
 30
0.0
1001
AME_SOL
1002
{
1070
     0
1071
  1858928
1070
  1536
1010
6.0
1020
1.0
1030
3.0
1005
0
1005
0
1005
185
1040
0.0
1040
1.0
1000
MILD_STEEL
1000
0
1010
0.0
1020
0.0
1030
0.0
1010
0.0
1020
0.0
1030
1.0
1040
0.0
1002
}
  0
INSERT
  8
AME_FRZ
  5
16
  2
AME_NIL
 10
1.0
 20
1.0
 30
1.0
1001
AME_SOL
1004
E903A9FB0100F0FFFFFF000052F7060001000000D90859BAD90859BAD90859BAC906C040211B803F900D404001000000FBF20400D90859BAD90859BAD90859BAC906C040211B803FD908593A0100844E80661C000100000001006A000000844E0000000000000000803F000000000000803F000000000000
1004
000000000000000000000000000005000000000000000000000000000000000000000000844E0000000000000000803F000000000000803F000000000000000000000000000000000000000005000000000000000000000000000000000001000000FBF20400D90859BAD90859BAD90859BAC906C040D908
1004
593A900D40400100844EF8911D0001000000010069000000844E00000000803F000000000000000000000000000000000000803F00000000000000000000000005000000000000000000000000000000000000000000844E00000000803F000000000000000000000000000000000000803F000000000000
1004
00000000000005000000000000000000000000000000000001000000FBF20400D90859BAD90859BAD90859BAD908593A211B803F900D40400100844EE8851D0001000000010068000000844E000000000000000000000000803F000000000000803F00000000000000000000000000000000050000000000
1004
00000000000000000000000000000000844E000000000000000000000000803F000000000000803F0000000000000000000000000000000005000000000000000000000000000000000001000000FBF20400D90859BAD90859BA6FF23F40C906C040211B803F900D40400100844EE8841D00010000000100
1004
67000000844E0000000080BF000000800000008000000080000080BF000000800000C0400000803F0000404005000000000000000000000000000000000000000000844E0000000080BF000000800000008000000080000080BF000000800000C0400000803F000040400500000000000000000000000000
1004
0000000001000000FBF20400D90859BABEC97F3FD90859BAC906C040211B803F900D40400100844ED8881D0001000000010066000000844E00000000008000000080000080BF000080BF00000080000000800000C0400000803F0000404005000000000000000000000000000000000000000000844E0000
1004
0000008000000080000080BF000080BF00000080000000800000C0400000803F0000404005000000000000000000000000000000000001000000FBF2040037F9BF40D90859BAD90859BAC906C040211B803F900D40400100844E40901D0001000000010065000000844E000000000080000080BF00000080
1004
0000008000000080000080BF0000C0400000803F0000404005000000000000000000000000000000000000000000844E000000000080000080BF000000800000008000000080000080BF0000C0400000803F0000404005000000000000000000000000000000000001000000A4EED90859BABEC97F3FD908
1004
59BAC906C040211B803FD908593A000040C0000040400200967500521D000000FFFF010080661C00D8881D000000020080661C00D8881D00010000000100000096750000000000000000803F000000000000000000000000000080BF000040400000803F000000000200000040C000004040A4EE37F9BF40
1004
D90859BAD90859BAC906C040211B803FD908593A000000BF0000003F0200967518551D000000FFFF010080661C0040901D000000020080661C0040901D000100000001000000967500000000803F00000000000000000000000000000000000080BF0000C0400000003F000000000200000000BF0000003F
1004
A4EED90859BAD90859BAD90859BAD908593A211B803FD908593A000080BF000000800200967538561D000000FFFF010080661C00E8851D000000020080661C00E8851D00010000000100000096750000000080BF00000000000000000000000000000000000080BF00000000000000000000000002000000
1004
80BF00000080A4EED90859BAD90859BAD90859BAC906C040D908593AD908593A000000000000C04002009675C8561D000000FFFF010080661C00F8911D000000020080661C00F8911D0001000000010000009675000000000000000080BF000000000000000000000000000080BF00000000000000000000
1004
00000200000000000000C040A4EED90859BAD90859BA6FF23F40C906C040D908593A900D4040000040C0000040400200967540541D000000FFFF0100F8911D00E8841D0000000200F8911D00E8841D0001000000010000009675000000000000000000000000803F00000000000080BF0000000000004040
1004
00000000000040400200000040C000004040A4EE37F9BF40D90859BAD90859BAC906C040D908593A900D40400000C0BF0000C03F0200967548521D000000FFFF0100F8911D0040901D0000000200F8911D0040901D000100000001000000967500000000803F000000000000000000000000000080BF0000
1004
00000000C040000000000000C03F02000000C0BF0000C03FA4EED90859BAD90859BAD90859BAD908593AD908593A900D4040000000000000404002009675E84E1D000000FFFF0100F8911D00E8851D0000000200F8911D00E8851D00010000000100000096750000000080BF000000000000000000000000
1004
000080BF0000000000000000000000000000000002000000000000004040A4EED90859BAD90859BA6FF23F40D908593A211B803F900D4040000000BF0000003F0200967598471D000000FFFF0100E8851D00E8841D0000000200E8851D00E8841D0001000000010000009675000000000000000000000000
1004
803F000080BF0000000000000000000000000000003F000040400200000000BF0000003FA4EED90859BABEC97F3FD90859BAD908593A211B803F900D40400000C0BF0000C03F0200967558451D000000FFFF0100E8851D00D8881D0000000200E8851D00D8881D0001000000010000009675000000000000
1004
0000803F00000000000080BF0000000000000000000000000000803F0000C03F02000000C0BF0000C03FA4EED90859BABEC97F3F6FF23F40C906C040211B803F900D40400000C0C00000008002009675A8431D000000FFFF0100E8841D00D8881D0000000200E8841D00D8881D0001000000010000009675
1004
0000000000000000803F0000000000000000000000000000803F0000C0400000803F0000404002000000C0C000000080A4EE37F9BF40D90859BA6FF23F40C906C040211B803F900D4040000000000000803F02009675F8411D000000FFFF0100E8841D0040901D0000000200E8841D0040901D0001000000
1004
01000000967500000000803F000000000000000000000080000000000000803F0000C0400000803F000040400200000000000000803FA4EE37F9BF40BEC97F3FD90859BAC906C040211B803F900D4040000040C00000008002009675B83F1D000000FFFF0100D8881D0040901D0000000200D8881D004090
1004
1D000100000001000000967500000000803F0000000000000000000000000000803F000000000000C0400000803F000040400200000040C00000008019FC
1005
17
  0
INSERT
  8
AME_FRZ
  5
17
  2
AME_NIL
 10
1.0
 20
1.0
 30
1.0
1001
AME_SOL
1004

1005
0
  0
INSERT
  8
AME_FRZ
  5
26
  2
*U3
 10
1.0
 20
1.0
 30
1.0
1001
AME_SOL
1002
{
1070
     0
1071
  1859824
1070
  1536
1010
1.0
1020
2.0
1030
1.0
1005
0
1005
0
1005
1BE
1040
0.0
1040
1.0
1000
MILD_STEEL
1000
0
1010
1.0
1020
1.0
1030
1.0
1010
0.0
1020
0.0
1030
1.0
1040
0.0
1002
}
  0
INSERT
  8
AME_FRZ
  5
27
  2
AME_NIL
 10
1.0
 20
1.0
 30
1.0
1001
AME_SOL
1004
E903A9FB0100F0FFFFFF000052F706000100000071C49CB971C49CB971C49CB9CC09803FE6040040CC09803F01000000FBF2040071C49CB971C49CB971C49CB9CC09803FE604004071C49C390100844E906F1D000100000001006A000000844E0000000000000000803F000000000000803F000000000000
1004
000000000000000000000000000005000000000000000000000000000000000000000000844E0000000000000000803F000000000000803F000000000000000000000000000000000000000005000000000000000000000000000000000001000000FBF2040071C49CB971C49CB971C49CB9CC09803F71C4
1004
9C39CC09803F0100844ED86F1D0001000000010069000000844E00000000803F000000000000000000000000000000000000803F00000000000000000000000005000000000000000000000000000000000000000000844E00000000803F000000000000000000000000000000000000803F000000000000
1004
00000000000005000000000000000000000000000000000001000000FBF2040071C49CB971C49CB971C49CB971C49C39E6040040CC09803F0100844E68701D0001000000010068000000844E000000000000000000000000803F000000000000803F00000000000000000000000000000000050000000000
1004
00000000000000000000000000000000844E000000000000000000000000803F000000000000803F0000000000000000000000000000000005000000000000000000000000000000000001000000FBF2040071C49CB971C49CB967EC7F3FCC09803FE6040040CC09803F0100844EF8701D00010000000100
1004
67000000844E0000000080BF000000800000008000000080000080BF000000800000803F000000400000803F05000000000000000000000000000000000000000000844E0000000080BF000000800000008000000080000080BF000000800000803F000000400000803F0500000000000000000000000000
1004
0000000001000000FBF2040071C49CB934F6FF3F71C49CB9CC09803FE6040040CC09803F0100844E88711D0001000000010066000000844E00000000008000000080000080BF000080BF00000080000000800000803F000000400000803F05000000000000000000000000000000000000000000844E0000
1004
0000008000000080000080BF000080BF00000080000000800000803F000000400000803F05000000000000000000000000000000000001000000FBF2040067EC7F3F71C49CB971C49CB9CC09803FE6040040CC09803F0100844E18721D0001000000010065000000844E000000000080000080BF00000080
1004
0000008000000080000080BF0000803F000000400000803F05000000000000000000000000000000000000000000844E000000000080000080BF000000800000008000000080000080BF0000803F000000400000803F05000000000000000000000000000000000001000000A4EE71C49CB934F6FF3F71C4
1004
9CB9CC09803FE604004071C49C39000000BF0000003F02009675404B1D000000FFFF0100906F1D0088711D0000000200906F1D0088711D00010000000100000096750000000000000000803F000000000000000000000000000080BF0000003F00000040000000000200000000BF0000003FA4EE67EC7F3F
1004
71C49CB971C49CB9CC09803FE604004071C49C39000080BF0000803F0200967530461D000000FFFF0100906F1D0018721D0000000200906F1D0018721D000100000001000000967500000000803F00000000000000000000000000000000000080BF0000803F0000803F000000000200000080BF0000803F
1004
A4EE71C49CB971C49CB971C49CB971C49C39E604004071C49C39000000C00000008002009675785A1D000000FFFF0100906F1D0068701D0000000200906F1D0068701D00010000000100000096750000000080BF00000000000000000000000000000000000080BF00000000000000000000000002000000
1004
00C000000080A4EE71C49CB971C49CB971C49CB9CC09803F71C49C3971C49C39000000000000803F02009675F0721D000000FFFF0100906F1D00D86F1D0000000200906F1D00D86F1D0001000000010000009675000000000000000080BF000000000000000000000000000080BF00000000000000000000
1004
00000200000000000000803FA4EE71C49CB971C49CB967EC7F3FCC09803F71C49C39CC09803F000000BF0000003F0200967598761D000000FFFF0100D86F1D00F8701D0000000200D86F1D00F8701D0001000000010000009675000000000000000000000000803F00000000000080BF000000000000003F
1004
000000000000803F0200000000BF0000003FA4EE67EC7F3F71C49CB971C49CB9CC09803F71C49C39CC09803F000000BF0000003F02009675C0751D000000FFFF0100D86F1D0018721D0000000200D86F1D0018721D000100000001000000967500000000803F000000000000000000000000000080BF0000
1004
00000000803F000000000000003F0200000000BF0000003FA4EE71C49CB971C49CB971C49CB971C49C3971C49C39CC09803F000000000000803F0200967548781D000000FFFF0100D86F1D0068701D0000000200D86F1D0068701D00010000000100000096750000000080BF000000000000000000000000
1004
000080BF000000000000000000000000000000000200000000000000803FA4EE71C49CB971C49CB967EC7F3F71C49C39E6040040CC09803F000080BF0000803F02009675B0791D000000FFFF010068701D00F8701D000000020068701D00F8701D0001000000010000009675000000000000000000000000
1004
803F000080BF0000000000000000000000000000803F0000803F0200000080BF0000803FA4EE71C49CB934F6FF3F71C49CB971C49C39E6040040CC09803F000000BF0000003F0200967500781D000000FFFF010068701D0088711D000000020068701D0088711D0001000000010000009675000000000000
1004
0000803F00000000000080BF000000000000000000000000000000400000003F0200000000BF0000003FA4EE71C49CB934F6FF3F67EC7F3FCC09803FE6040040CC09803F000080BF0000008002009675F8921D000000FFFF0100F8701D0088711D0000000200F8701D0088711D0001000000010000009675
1004
0000000000000000803F0000000000000000000000000000803F0000803F000000400000803F0200000080BF00000080A4EE67EC7F3F71C49CB967EC7F3FCC09803FE6040040CC09803F00000000000000400200967518421D000000FFFF0100F8701D0018721D0000000200F8701D0018721D0001000000
1004
01000000967500000000803F000000000000000000000080000000000000803F0000803F000000400000803F02000000000000000040A4EE67EC7F3F34F6FF3F71C49CB9CC09803FE6040040CC09803F000080BF000000800200967548D41D000000FFFF010088711D0018721D000000020088711D001872
1004
1D000100000001000000967500000000803F0000000000000000000000000000803F000000000000803F000000400000803F0200000080BF0000008019FC
1005
28
  0
INSERT
  8
AME_FRZ
  5
28
  2
AME_NIL
 10
1.0
 20
1.0
 30
1.0
1001
AME_SOL
1004

1005
0
  0
INSERT
  8
AME_FRZ
  5
37
  2
*U4
 10
3.0
 20
1.0
 30
1.0
1001
AME_SOL
1002
{
1070
     0
1071
  1928792
1070
  1536
1010
1.0
1020
2.0
1030
1.0
1005
0
1005
0
1005
1F2
1040
0.0
1040
1.0
1000
MILD_STEEL
1000
0
1010
3.0
1020
1.0
1030
1.0
1010
0.0
1020
0.0
1030
1.0
1040
0.0
1002
}
  0
INSERT
  8
AME_FRZ
  5
38
  2
AME_NIL
 10
1.0
 20
1.0
 30
1.0
1001
AME_SOL
1004
E903A9FB0100F0FFFFFF000052F706000100000071C49CB971C49CB971C49CB9CC09803FE6040040CC09803F01000000FBF2040071C49CB971C49CB971C49CB9CC09803FE604004071C49C390100844E08751D000100000001006A000000844E0000000000000000803F000000000000803F000000000000
1004
000000000000000000000000000005000000000000000000000000000000000000000000844E0000000000000000803F000000000000803F000000000000000000000000000000000000000005000000000000000000000000000000000001000000FBF2040071C49CB971C49CB971C49CB9CC09803F71C4
1004
9C39CC09803F0100844E285B1D0001000000010069000000844E00000000803F000000000000000000000000000000000000803F00000000000000000000000005000000000000000000000000000000000000000000844E00000000803F000000000000000000000000000000000000803F000000000000
1004
00000000000005000000000000000000000000000000000001000000FBF2040071C49CB971C49CB971C49CB971C49C39E6040040CC09803F0100844E807A1D0001000000010068000000844E000000000000000000000000803F000000000000803F00000000000000000000000000000000050000000000
1004
00000000000000000000000000000000844E000000000000000000000000803F000000000000803F0000000000000000000000000000000005000000000000000000000000000000000001000000FBF2040071C49CB971C49CB967EC7F3FCC09803FE6040040CC09803F0100844E48771D00010000000100
1004
67000000844E0000000080BF000000800000008000000080000080BF000000800000803F000000400000803F05000000000000000000000000000000000000000000844E0000000080BF000000800000008000000080000080BF000000800000803F000000400000803F0500000000000000000000000000
1004
0000000001000000FBF2040071C49CB934F6FF3F71C49CB9CC09803FE6040040CC09803F0100844EE8731D0001000000010066000000844E00000000008000000080000080BF000080BF00000080000000800000803F000000400000803F05000000000000000000000000000000000000000000844E0000
1004
0000008000000080000080BF000080BF00000080000000800000803F000000400000803F05000000000000000000000000000000000001000000FBF2040067EC7F3F71C49CB971C49CB9CC09803FE6040040CC09803F0100844EE87B1D0001000000010065000000844E000000000080000080BF00000080
1004
0000008000000080000080BF0000803F000000400000803F05000000000000000000000000000000000000000000844E000000000080000080BF000000800000008000000080000080BF0000803F000000400000803F05000000000000000000000000000000000001000000A4EE71C49CB934F6FF3F71C4
1004
9CB9CC09803FE604004071C49C39000000BF0000003F02009675405F1D000000FFFF010008751D00E8731D000000020008751D00E8731D00010000000100000096750000000000000000803F000000000000000000000000000080BF0000003F00000040000000000200000000BF0000003FA4EE67EC7F3F
1004
71C49CB971C49CB9CC09803FE604004071C49C39000080BF0000803F02009675005D1D000000FFFF010008751D00E87B1D000000020008751D00E87B1D000100000001000000967500000000803F00000000000000000000000000000000000080BF0000803F0000803F000000000200000080BF0000803F
1004
A4EE71C49CB971C49CB971C49CB971C49C39E604004071C49C39000000C00000008002009675487F1D000000FFFF010008751D00807A1D000000020008751D00807A1D00010000000100000096750000000080BF00000000000000000000000000000000000080BF00000000000000000000000002000000
1004
00C000000080A4EE71C49CB971C49CB971C49CB9CC09803F71C49C3971C49C39000000000000803F02009675D8831D000000FFFF010008751D00285B1D000000020008751D00285B1D0001000000010000009675000000000000000080BF000000000000000000000000000080BF00000000000000000000
1004
00000200000000000000803FA4EE71C49CB971C49CB967EC7F3FCC09803F71C49C39CC09803F000000BF0000003F0200967510861D000000FFFF0100285B1D0048771D0000000200285B1D0048771D0001000000010000009675000000000000000000000000803F00000000000080BF000000000000003F
1004
000000000000803F0200000000BF0000003FA4EE67EC7F3F71C49CB971C49CB9CC09803F71C49C39CC09803F000000BF0000003F0200967598881D000000FFFF0100285B1D00E87B1D0000000200285B1D00E87B1D000100000001000000967500000000803F000000000000000000000000000080BF0000
1004
00000000803F000000000000003F0200000000BF0000003FA4EE71C49CB971C49CB971C49CB971C49C3971C49C39CC09803F000000000000803F0200967540931D000000FFFF0100285B1D00807A1D0000000200285B1D00807A1D00010000000100000096750000000080BF000000000000000000000000
1004
000080BF000000000000000000000000000000000200000000000000803FA4EE71C49CB971C49CB967EC7F3F71C49C39E6040040CC09803F000080BF0000803F02009675A0951D000000FFFF0100807A1D0048771D0000000200807A1D0048771D0001000000010000009675000000000000000000000000
1004
803F000080BF0000000000000000000000000000803F0000803F0200000080BF0000803FA4EE71C49CB934F6FF3F71C49CB971C49C39E6040040CC09803F000000BF0000003F02009675808C1D000000FFFF0100807A1D00E8731D0000000200807A1D00E8731D0001000000010000009675000000000000
1004
0000803F00000000000080BF000000000000000000000000000000400000003F0200000000BF0000003FA4EE71C49CB934F6FF3F67EC7F3FCC09803FE6040040CC09803F000080BF0000008002009675E8861D000000FFFF010048771D00E8731D000000020048771D00E8731D0001000000010000009675
1004
0000000000000000803F0000000000000000000000000000803F0000803F000000400000803F0200000080BF00000080A4EE67EC7F3F71C49CB967EC7F3FCC09803FE6040040CC09803F00000000000000400200967588811D000000FFFF010048771D00E87B1D000000020048771D00E87B1D0001000000
1004
01000000967500000000803F000000000000000000000080000000000000803F0000803F000000400000803F02000000000000000040A4EE67EC7F3F34F6FF3F71C49CB9CC09803FE6040040CC09803F000080BF0000008002009675307C1D000000FFFF0100E8731D00E87B1D0000000200E8731D00E87B
1004
1D000100000001000000967500000000803F0000000000000000000000000000803F000000000000803F000000400000803F0200000080BF0000008019FC
1005
39
  0
INSERT
  8
AME_FRZ
  5
39
  2
AME_NIL
 10
1.0
 20
1.0
 30
1.0
1001
AME_SOL
1004

1005
0
  0
INSERT
  8
AME_FRZ
  5
48
  2
*U5
 10
5.0
 20
1.0
 30
0.0
1001
AME_SOL
1002
{
1070
     0
1071
  1965832
1070
  1536
1010
1.0
1020
1.0
1030
3.0
1005
0
1005
0
1005
187
1040
0.0
1040
1.0
1000
MILD_STEEL
1000
0
1010
5.0
1020
1.0
1030
0.0
1010
0.0
1020
0.0
1030
1.0
1040
0.0
1002
}
  0
INSERT
  8
AME_FRZ
  5
49
  2
AME_NIL
 10
1.0
 20
1.0
 30
1.0
1001
AME_SOL
1004
E903A9FB0100F0FFFFFF000052F70600010000009443D4B99443D4B99443D4B9440D803F440D803FA206404001000000FBF204009443D4B99443D4B99443D4B9440D803F440D803F9443D4390100844E58A91D000100000001006A000000844E0000000000000000803F000000000000803F000000000000
1004
000000000000000000000000000005000000000000000000000000000000000000000000844E0000000000000000803F000000000000803F000000000000000000000000000000000000000005000000000000000000000000000000000001000000FBF204009443D4B99443D4B99443D4B9440D803F9443
1004
D439A20640400100844E28AD1D0001000000010069000000844E00000000803F000000000000000000000000000000000000803F00000000000000000000000005000000000000000000000000000000000000000000844E00000000803F000000000000000000000000000000000000803F000000000000
1004
00000000000005000000000000000000000000000000000001000000FBF204009443D4B99443D4B99443D4B99443D439440D803FA20640400100844E58AA1D0001000000010068000000844E000000000000000000000000803F000000000000803F00000000000000000000000000000000050000000000
1004
00000000000000000000000000000000844E000000000000000000000000803F000000000000803F0000000000000000000000000000000005000000000000000000000000000000000001000000FBF204009443D4B99443D4B95EF93F40440D803F440D803FA20640400100844E90A61D00010000000100
1004
67000000844E0000000080BF000000800000008000000080000080BF000000800000803F0000803F0000404005000000000000000000000000000000000000000000844E0000000080BF000000800000008000000080000080BF000000800000803F0000803F000040400500000000000000000000000000
1004
0000000001000000FBF204009443D4B978E57F3F9443D4B9440D803F440D803FA20640400100844E08881D0001000000010066000000844E00000000008000000080000080BF000080BF00000080000000800000803F0000803F0000404005000000000000000000000000000000000000000000844E0000
1004
0000008000000080000080BF000080BF00000080000000800000803F0000803F0000404005000000000000000000000000000000000001000000FBF2040078E57F3F9443D4B99443D4B9440D803F440D803FA20640400100844E787C1D0001000000010065000000844E000000000080000080BF00000080
1004
0000008000000080000080BF0000803F0000803F0000404005000000000000000000000000000000000000000000844E000000000080000080BF000000800000008000000080000080BF0000803F0000803F0000404005000000000000000000000000000000000001000000A4EE9443D4B978E57F3F9443
1004
D4B9440D803F440D803F9443D439000000BF0000003F0200967598751D000000FFFF010058A91D0008881D000000020058A91D0008881D00010000000100000096750000000000000000803F000000000000000000000000000080BF0000003F0000803F000000000200000000BF0000003FA4EE78E57F3F
1004
9443D4B99443D4B9440D803F440D803F9443D439000000BF0000003F0200967510C31D000000FFFF010058A91D00787C1D000000020058A91D00787C1D000100000001000000967500000000803F00000000000000000000000000000000000080BF0000803F0000003F000000000200000000BF0000003F
1004
A4EE9443D4B99443D4B99443D4B99443D439440D803F9443D439000080BF0000008002009675C8C91D000000FFFF010058A91D0058AA1D000000020058A91D0058AA1D00010000000100000096750000000080BF00000000000000000000000000000000000080BF00000000000000000000000002000000
1004
80BF00000080A4EE9443D4B99443D4B99443D4B9440D803F9443D4399443D439000000000000803F0200967590D01D000000FFFF010058A91D0028AD1D000000020058A91D0028AD1D0001000000010000009675000000000000000080BF000000000000000000000000000080BF00000000000000000000
1004
00000200000000000000803FA4EE9443D4B99443D4B95EF93F40440D803F9443D439A2064040000000BF0000003F0200967558C31D000000FFFF010028AD1D0090A61D000000020028AD1D0090A61D0001000000010000009675000000000000000000000000803F00000000000080BF000000000000003F
1004
00000000000040400200000000BF0000003FA4EE78E57F3F9443D4B99443D4B9440D803F9443D439A20640400000C0BF0000C03F0200967548C01D000000FFFF010028AD1D00787C1D000000020028AD1D00787C1D000100000001000000967500000000803F000000000000000000000000000080BF0000
1004
00000000803F000000000000C03F02000000C0BF0000C03FA4EE9443D4B99443D4B99443D4B99443D4399443D439A206404000000000000040400200967500AE1D000000FFFF010028AD1D0058AA1D000000020028AD1D0058AA1D00010000000100000096750000000080BF000000000000000000000000
1004
000080BF0000000000000000000000000000000002000000000000004040A4EE9443D4B99443D4B95EF93F409443D439440D803FA2064040000000BF0000003F02009675E0FD1D000000FFFF010058AA1D0090A61D000000020058AA1D0090A61D0001000000010000009675000000000000000000000000
1004
803F000080BF0000000000000000000000000000003F000040400200000000BF0000003FA4EE9443D4B978E57F3F9443D4B99443D439440D803FA20640400000C0BF0000C03F0200967530FC1D000000FFFF010058AA1D0008881D000000020058AA1D0008881D0001000000010000009675000000000000
1004
0000803F00000000000080BF0000000000000000000000000000803F0000C03F02000000C0BF0000C03FA4EE9443D4B978E57F3F5EF93F40440D803F440D803FA2064040000080BF000000800200967588011E000000FFFF010090A61D0008881D000000020090A61D0008881D0001000000010000009675
1004
0000000000000000803F0000000000000000000000000000803F0000803F0000803F000040400200000080BF00000080A4EE78E57F3F9443D4B95EF93F40440D803F440D803FA2064040000000000000803F02009675B0001E000000FFFF010090A61D00787C1D000000020090A61D00787C1D0001000000
1004
01000000967500000000803F000000000000000000000080000000000000803F0000803F0000803F000040400200000000000000803FA4EE78E57F3F78E57F3F9443D4B9440D803F440D803FA2064040000040C0000000800200967538031E000000FFFF010008881D00787C1D000000020008881D00787C
1004
1D000100000001000000967500000000803F0000000000000000000000000000803F000000000000803F0000803F000040400200000040C00000008019FC
1005
4A
  0
INSERT
  8
AME_FRZ
  5
4A
  2
AME_NIL
 10
1.0
 20
1.0
 30
1.0
1001
AME_SOL
1004

1005
0
  0
INSERT
  8
AME_FRZ
  5
160
  2
*U6
 10
5.0
 20
2.0
 30
0.0
1001
AME_SOL
1002
{
1070
     0
1071
  2200416
1070
  1536
1010
1.0
1020
1.0
1030
2.0
1005
0
1005
0
1005
187
1040
0.0
1040
1.0
1000
MILD_STEEL
1000
0
1010
5.0
1020
2.0
1030
0.0
1010
0.0
1020
0.0
1030
1.0
1040
0.0
1002
}
  0
INSERT
  8
AME_FRZ
  5
171
  2
*U7
 10
1.0
 20
1.0
 30
0.0
1001
AME_SOL
1002
{
1070
     0
1071
  2199696
1070
  1536
1010
1.0
1020
2.0
1030
1.0
1005
0
1005
0
1005
185
1040
0.0
1040
1.0
1000
MILD_STEEL
1000
0
1010
1.0
1020
1.0
1030
0.0
1010
0.0
1020
0.0
1030
1.0
1040
0.0
1002
}
  0
INSERT
  8
AME_FRZ
  5
182
  2
*U8
 10
3.0
 20
1.0
 30
0.0
1001
AME_SOL
1002
{
1070
     0
1071
  2033448
1070
  1536
1010
1.0
1020
2.0
1030
1.0
1005
0
1005
0
1005
186
1040
0.0
1040
1.0
1000
MILD_STEEL
1000
0
1010
3.0
1020
1.0
1030
0.0
1010
0.0
1020
0.0
1030
1.0
1040
0.0
1002
}
  0
INSERT
  8
AME_FRZ
  5
185
  2
AME_NIL
 10
0.0
 20
0.0
 30
0.0
1001
AME_SOL
1002
{
1070
     0
1071
  1977976
1070
   775
1070
     2
1005
15
1005
171
1005
0
1005
0
1005
186
1040
0.0
1040
1.0
1000
MILD_STEEL
1000
0
1010
0.0
1020
0.0
1030
0.0
1010
0.0
1020
0.0
1030
1.0
1040
0.0
1002
}
  0
INSERT
  8
AME_FRZ
  5
186
  2
AME_NIL
 10
0.0
 20
0.0
 30
0.0
1001
AME_SOL
1002
{
1070
     0
1071
  1991536
1070
   775
1070
     2
1005
185
1005
182
1005
0
1005
0
1005
1BB
1040
0.0
1040
1.0
1000
MILD_STEEL
1000
0
1010
0.0
1020
0.0
1030
0.0
1010
0.0
1020
0.0
1030
1.0
1040
0.0
1002
}
  0
INSERT
  8
AME_FRZ
  5
187
  2
AME_NIL
 10
0.0
 20
0.0
 30
0.0
1001
AME_SOL
1002
{
1070
     0
1071
  2007648
1070
   775
1070
     2
1005
160
1005
48
1005
0
1005
0
1005
1BB
1040
0.0
1040
1.0
1000
MILD_STEEL
1000
0
1010
0.0
1020
0.0
1030
0.0
1010
0.0
1020
0.0
1030
1.0
1040
0.0
1002
}
  0
INSERT
  8
AME_FRZ
  5
1BB
  2
*U9
 10
0.0
 20
0.0
 30
0.0
1001
AME_SOL
1002
{
1070
     0
1071
  2000680
1070
  1543
1070
     2
1005
186
1005
187
1005
0
1005
0
1005
1BE
1040
0.0
1040
1.0
1000
MILD_STEEL
1000
0
1010
0.0
1020
0.0
1030
0.0
1010
0.0
1020
0.0
1030
1.0
1040
0.0
1002
}
  0
INSERT
  8
AME_FRZ
  5
1BE
  2
AME_NIL
 10
0.0
 20
0.0
 30
0.0
1001
AME_SOL
1002
{
1070
     0
1071
  2058408
1070
   775
1070
     2
1005
1BB
1005
26
1005
0
1005
0
1005
1F2
1040
0.0
1040
1.0
1000
MILD_STEEL
1000
0
1010
0.0
1020
0.0
1030
0.0
1010
0.0
1020
0.0
1030
1.0
1040
0.0
1002
}
  0
INSERT
  8
AME_FRZ
  5
1F2
  2
*U10
 10
0.0
 20
0.0
 30
0.0
1001
AME_SOL
1002
{
1070
     0
1071
  2063640
1070
  9735
1070
     2
1005
1BE
1005
37
1005
0
1005
0
1005
2F1
1040
92.0
1040
1.0
1000
MILD_STEEL
1000
0
1010
0.0
1020
0.0
1030
0.0
1010
0.0
1020
0.0
1030
1.0
1040
0.0
1002
}
  0
INSERT
  8
AME_FRZ
  5
2BE
  2
*U12
 10
0.0
 20
1.0
 30
0.0
1001
AME_SOL
1002
{
1070
     0
1071
  1918304
1070
  1536
1010
1.0
1020
2.0
1030
2.0
1005
0
1005
0
1005
2F1
1040
0.0
1040
1.0
1000
MILD_STEEL
1000
0
1010
0.0
1020
1.0
1030
0.0
1010
0.0
1020
0.0
1030
1.0
1040
0.0
1002
}
  0
INSERT
  8
0
  5
2F1
  2
*U14
 10
0.0
 20
0.0
 30
0.0
1001
AME_SOL
1002
{
1070
     0
1071
  2042560
1070
  9223
1070
     2
1005
1F2
1005
2BE
1005
3A2
1005
2F2
1005
0
1040
96.0
1040
1.0
1000
MILD_STEEL
1000
0
1002
}
  0
INSERT
  8
AME_FRZ
  5
2F2
  2
AME_NIL
 10
1.0
 20
1.0
 30
1.0
1001
AME_SOL
1004
E903A9FB0100F0FFFFFF000052F70D0001000000D90859BAD90859BAD90859BAC906C040000C4040900D404001000000FBF20400FFF99F4000E8FF3F000040BAFE05C040000C0040000C40400100844E20CD1D0001000000010086030000844E00000000008000000080000080BF000080BF000000800000
1004
0080FFFFBF40000000400000404005000000000000000000000000000000000000000000844E0000000080BF000000800000008000000000000000000000803FFFFF9F40000000400000000005000000000000000000000000000000000001000000FBF20600FFF99F4000D07F3F000040BAFF05A040000C
1004
0040000C40400100844E88D21D0001000000020088030000844E000000000000000000000000803F000000000000803F00000000FFFF9F400000803F0000000005000000000000000000000000000000000000000000EC030000844E000000000000000000000000803F000000000000803F00000000FFFF
1004
9F40000000400000000005000000000000000000000000000000000000000000844E000000000000000000000000803F000000000000803F00000000FFFF9F40000000400000000005000000000000000000000000000000000001000000FBF20C00000040BA00D07F3F00E8FF3F0018803F000C4040000C
1004
00400100844E90CC1D00010000000400CB000000844E0000000080BF000000800000008000000080000080BF000000800000803F00004040000000400500000000000000000000000000000000000000000093010000844E0000000080BF000000800000008000000080000080BF00000080000080400000
1004
404000000040050000000000000000000000000000000000000000005B020000844E0000000080BF000000800000008000000080000080BF0000008000000040000040400000004005000000000000000000000000000000000000000000EB030000844E0000000080BF0000008000000080000000800000
1004
80BF00000080FFFFBF40000040400000004005000000000000000000000000000000000000000000844E0000000080BF000000800000008000000080000080BF00000080FFFFBF40000040400000004005000000000000000000000000000000000001000000FBF2040000F43F4000D07F3F00D07F3F000C
1004
4040000C4040000C00400100844ED09E1F0001000000020094010000844E000000000000000000000000803F000000000000803F00000000000040400000803F0000803F05000000000000000000000000000000000000000000B4040000844E000000000000000000000000803F000000000000803F0000
1004
0000000040400000803F0000000005000000000000000000000000000000000000000000844E000000000000000000000000803F000000000000803F00000000000040400000803F0000000005000000000000000000000000000000000001000000FBF2040000F47F4000D07F3F00D07F3F00068040000C
1004
4040000C00400100844E00CC1D0001000000020091010000844E000000000080000080BF000000800000008000000080000080BF00008040000040400000004005000000000000000000000000000000000000000000B1040000844E000000000080000080BF000000800000008000000080000080BF0000
1004
8040000040400000803F05000000000000000000000000000000000000000000844E000000000080000080BF000000800000008000000080000080BF00008040000040400000803F05000000000000000000000000000000000001000000FBF20C00000040BA00F43F40000040BA0018803F000C4040000C
1004
00400100844E18931D00010000000600CA000000844E00000000008000000080000080BF000080BF00000080000000800000803F00004040000000400500000000000000000000000000000000000000000092010000844E00000000008000000080000080BF000080BF0000008000000080000080400000
1004
404000000040050000000000000000000000000000000000000000005A020000844E00000000008000000080000080BF000080BF000000800000008000000040000040400000004005000000000000000000000000000000000000000000EA030000844E00000000008000000080000080BF000080BF0000
1004
008000000080FFFFBF40000040400000004005000000000000000000000000000000000000000000B2040000844E00000000008000000080000080BF000080BF000000800000008000008040000040400000803F050000000000000000000000000000000000000000007A050000844E0000000000800000
1004
0080000080BF000080BF000000800000008000000040000040400000803F05000000000000000000000000000000000000000000844E00000000008000000080000080BF000080BF000000800000008000000040000040400000803F05000000000000000000000000000000000001000000FBF2040000E8
1004
FF3F00D07F3F00D07F3F000C0040000C4040000C00400100844E20811D0001000000020059020000844E000000000080000080BF000000800000008000000080000080BF0000004000004040000000400500000000000000000000000000000000000000000079050000844E000000000080000080BF0000
1004
00800000008000000080000080BF00000040000040400000803F05000000000000000000000000000000000000000000844E000000000080000080BF000000800000008000000080000080BF00000040000040400000803F05000000000000000000000000000000000001000000FBF20C00000040BA00D0
1004
7F3F000040BA0018803F000C40400000403A0100844ED8202000010000000600CE000000844E0000000000000000803F000000000000803F0000000000000000000000000000803F00000000050000000000000000000000000000000000000000008A030000844E0000000000000000803F000000000000
1004
803F0000000000000000FFFF9F400000803F0000000005000000000000000000000000000000000000000000EE030000844E0000000000000000803F000000000000803F0000000000000000FFFF9F40000000400000000005000000000000000000000000000000000000000000B6040000844E00000000
1004
00000000803F000000000000803F0000000000000000000040400000803F00000000050000000000000000000000000000000000000000007E050000844E0000000000000000803F000000000000803F00000000000000000000803F0000803F000000000500000000000000000000000000000000000000
1004
0000E2050000844E0000000000000000803F000000000000803F000000000000000000000000000000000000000005000000000000000000000000000000000000000000844E0000000000000000803F000000000000803F0000000000000000000000000000000000000000050000000000000000000000
1004
00000000000001000000FBF20400D90859BAD90859BAD90859BAC906C040D908593A900D40400100844EC8212000010000000100E1050000844E00000000803F000000000000000000000000000000000000803F00000000000000000000000005000000000000000000000000000000000000000000844E
1004
00000000803F000000000000000000000000000000000000803F00000000000000000000000005000000000000000000000000000000000001000000FBF20600000040BA00D07F3F000040BA0000403A000C4040000C00400100844E38152000010000000200CC000000844E000000000000000000000000
1004
803F000000000000803F00000000000000000000803F0000000005000000000000000000000000000000000000000000E0050000844E000000000000000000000000803F000000000000803F0000000000000000000000000000000005000000000000000000000000000000000000000000844E00000000
1004
0000000000000000803F000000000000803F0000000000000000000000000000000005000000000000000000000000000000000001000000FBF20600FFF99F4000D07F3F00F43F40FE05C040000C0040000C40400100844E5016200001000000020087030000844E0000000080BF00000080000000800000
1004
0080000080BF00000080FFFFBF40000000400000404005000000000000000000000000000000000000000000DF050000844E0000000080BF000000800000008000000080000080BF000000800000C0400000803F0000404005000000000000000000000000000000000000000000844E0000000080BF0000
1004
00800000008000000080000080BF000000800000C0400000803F0000404005000000000000000000000000000000000001000000FBF20A00D90859BABEC97F3FD90859BAC906C040211B803F900D40400100844E40172000010000000100DE050000844E00000000008000000080000080BF000080BF0000
1004
0080000000800000C0400000803F0000404005000000000000000000000000000000000000000000844E00000000008000000080000080BF000080BF00000080000000800000C0400000803F0000404005000000000000000000000000000000000001000000FBF20600FFF9BF4000D07F3F000040BAFE05
1004
C040000C0040000C40400100844E2011200001000000030085030000844E000000000080000080BF000000800000008000000080000080BFFFFFBF40000000400000404005000000000000000000000000000000000000000000E9030000844E000000000080000080BF0000008000000080000000800000
1004
80BFFFFFBF40000040400000004005000000000000000000000000000000000000000000DD050000844E000000000080000080BF000000800000008000000080000080BF0000C0400000803F0000404005000000000000000000000000000000000000000000844E000000000080000080BF000000800000
1004
008000000080000080BF0000C0400000803F0000404005000000000000000000000000000000000001000000A4EEFFF99F4000E8FF3F00E8FF3FFE05C040000C0040000C0040040000BF0400003F020096754811200000000100FFFF20CD1D0090CC1D000000020090CC1D0020CD1D000100000001000000
1004
9675000000000000000000000000803F000000000000803F00000080FFFFAF4000000040000000400200040000BF0400003FA4EEFFF99F4000E8FF3F000040BAFF05A040000C0040000C4040000040C0000000C002009675900D20000000FFFF010020CD1D0088D21D000000020020CD1D0088D21D000100
1004
00000100000096750000000080BF0000000000000000000000000000803F00000000FFFF9F4000000040000000000200000040C0000000C0A4EEFFF99F4000E8FF3F00F43F400006C040000C0040000C4040040000BFFCFFFF3E02009675D80E20000000FFFF010020CD1D00501620000000020020CD1D00
1004
5016200001000000010000009675000000000000000000000000803F000000000000803F00000000FEFFAF4000000040000040400200040000BFFCFFFF3EA4EE00FABF4000E8FF3F000040BA0006C040000C0040000C40400100003F0000C03F02009675C80F20000000FFFF010020CD1D00201120000000
1004
020020CD1D00201120000100000001000000967500000000803F0000000000000000000000000000803F000000000000C040000000400000C03F02000100003F0000C03FA4EEFFF99F4000E8FF3F00E8FF3FFF05A040000C4040000C0040FCFFFFBE0100003F02009675381220000000FFFF010088D21D00
1004
90CC1D000000020088D21D0090CC1D0001000000010000009675000000000000000000000000803F000080BF0000000000000000FFFF9F4000002040000000400200FCFFFFBE0100003FA4EEFFF99F4000F43F40000040BAFF05A040000C4040000C0040000000BF0000C03F02009675281320000000FFFF
1004
010088D21D0018931D000000020088D21D0018931D00010000000100000096750000000000000000803F00000000000080BF0000000000000000FFFF9F40000040400000003F0200000000BF0000C03FA4EEFFF99F4000D07F3F6EF23F40FF05A040000C0040000C4040010000BFFFFFFF3E020096750019
1004
20000000FFFF010088D21D00501620000000020088D21D005016200001000000010000009675000000000000000000000000803F000080BF0000000000000000FFFF9F400000C03F000040400200010000BFFFFFFF3EA4EEFFF99F4000D07F3F000040BAFF05A040211B803F000C40400000C0BF0000C03F
1004
02009675D019200000000100FFFF88D21D0040172000000002004017200088D21D00010000000100000096750000000000000000803F00000000000080BF0000000000000000FFFF9F400000803F0000C03F02000000C0BF0000C03FA4EEFFF99F4000D07F3F000040BAFF05A040000C4040D908593A0000
1004
0000FFFFFF3F02009675C01A20000000FFFF010088D21D00D82020000000020088D21D00D82020000100000001000000967500000000000000000000000080BF000080BF0000000000000000FFFF9F400000803F00000000020000000000FFFFFF3FA4EE000040BA00F43F4000E8FF3FFE05C040000C4040
1004
000C0040FFFF7FC0FDFFFFBF02009675500620000000FFFF010090CC1D0018931D000000020090CC1D0018931D00010000000100000096750000000000000000803F0000000000000000000000000000803FFFFF7F4000004040000000400200FFFF7FC0FDFFFFBFA4EE000040BA00F43F4000E8FF3FFE05
1004
C040000C4040000C0040FCFF7FBF0000C03402009675200720000000FFFF010090CC1D0018931D000000020090CC1D0018931D00010000000100000096750000000000000000803F0000000000000000000000000000803FFFFF7F4000004040000000400200FCFF7FBF0000C034A4EE000040BA00F43F40
1004
00E8FF3FFE05C040000C4040000C0040FCFF7F3F0100004002009675100820000000FFFF010090CC1D0018931D000000020090CC1D0018931D00010000000100000096750000000000000000803F0000000000000000000000000000803FFFFF7F4000004040000000400200FCFF7F3F01000040A4EE00F4
1004
7F4000D07F3F00E8FF3F00068040000C4040000C004000000000FFFFFF3F02009675000920000000FFFF010090CC1D0000CC1D000000020090CC1D0000CC1D000100000001000000967500000000803F000000000000000000000080000000000000803F000080400000404000000040020000000000FFFF
1004
FF3FA4EEFFF9BF4000E8FF3F00E8FF3FFE05C040000C4040000C0040FFFF7FBF0000000002009675F00920000000FFFF010090CC1D00201120000000020090CC1D00201120000100000001000000967500000000803F000000000000000000000080000000000000803F0000C04000000040000000400200
1004
FFFF7FBF00000000A4EE00F43F4000D07F3F00E8FF3F000C4040000C4040000C0040FDFF7FBF0100803F02009675E00A20000000FFFF010090CC1D00D09E1F000000020090CC1D00D09E1F00010000000100000096750000000080BF000000000000000000000000000000000000803F00004040FFFFFF3F
1004
000000400200FDFF7FBF0100803FA4EE00E8FF3F00D07F3F00E8FF3F000C0040000C4040000C004000000000FFFFFF3F02009675382320000000FFFF010090CC1D0020811D000000020090CC1D0020811D000100000001000000967500000000803F000000000000000000000080000000000000803F0000
1004
00400000404000000040020000000000FFFFFF3FA4EE000040BA00D07F3F00E8FF3FD908593A000C4040000C0040FFFFFFBE0000C03F02009675282420000000FFFF010090CC1D00381520000000020090CC1D0038152000010000000100000096750000000080BF00000000000000000000000000000000
1004
0000803F000000000000C03F000000400200FFFFFFBE0000C03FA4EE000040BA00D07F3F00E8FF3F00068040211B803F000C00400000C0C0FFFF7FC0020096751825200000000100FFFF90CC1D0040172000000002004017200090CC1D00010000000100000096750000000000000000803F000000000000
1004
0000000000000000803F0000C0400000803F0000004002000000C0C0FFFF7FC0A4EE000040BA00D07F3F00E8FF3F00068040211B803F000C0040000040C0FFFFFFBF020096750826200000000100FFFF90CC1D0040172000000002004017200090CC1D00010000000100000096750000000000000000803F
1004
0000000000000000000000000000803F0000C0400000803F000000400200000040C0FFFFFFBFA4EE00F43F4000F43F40000040BA000C4040000C4040000C0040000000BF0000C03F02009675F82620000000FFFF0100D09E1F0018931D0000000200D09E1F0018931D000100000001000000967500000000
1004
00000000803F00000000000080BF000000000000000000004040000040400000003F0200000000BF0000C03FA4EE00F43F4000D07F3F000040BA000C4040211B803F000C00400000C0BF0100003F02009675E827200000000100FFFFD09E1F00401720000000020040172000D09E1F000100000001000000
1004
96750000000000000000803F00000000000080BF0000000000000000000040400000803F0000C03F02000000C0BF0100003FA4EE00F43F4000D07F3F000040BA000C4040000C4040D908593A0000003FFFFF1F4002009675D82820000000FFFF0100D09E1F00D820200000000200D09E1F00D82020000100
1004
000001000000967500000000000000000000000080BF000080BF0000000000000000000040400000003F0000000002000000003FFFFF1F40A4EE00F47F4000F43F40000040BA00068040000C4040000C0040000080BF0000803F02009675C82920000000FFFF010000CC1D0018931D000000020000CC1D00
1004
18931D00010000000100000096750000000000000000803F000000000000803F000000800000000000008040000040400000803F0200000080BF0000803FA4EE00F47F4000D07F3F000040BA00068040211B803F000C0040000000000000004002009675B82A200000000100FFFF00CC1D00401720000000
1004
02004017200000CC1D00010000000100000096750000000000000000803F000000000000803F0000000000000000000080400000803F0000004002000000000000000040A4EE00F47F4000D07F3F000040BA00068040000C4040D908593A0000C0BFFFFFFF3E02009675A82B20000000FFFF010000CC1D00
1004
D82020000000020000CC1D00D82020000100000001000000967500000000000000000000000080BF0000803F0000000000000000000080400000C03F0000000002000000C0BFFFFFFF3EA4EEFFF9BF4000F43F40000040BAFE05C040000C4040000C0040000000C00000008002009675982C20000000FFFF
1004
010018931D00201120000000020018931D00201120000100000001000000967500000000803F0000000000000000000000000000803F000000000000C04000004040000000400200000000C000000080A4EE00E8FF3F00F43F40000040BA000C0040000C4040000C0040000080BF0000803F02009675882D
1004
20000000FFFF010018931D0020811D000000020018931D0020811D000100000001000000967500000000803F0000000000000000000000000000803F0000000000000040000040400000803F0200000080BF0000803FA4EE000040BA00F43F40000040BA0000403A000C4040000C00400000C0BF0000003F
1004
02009675782E20000000FFFF010018931D00381520000000020018931D0038152000010000000100000096750000000080BF0000000000000000000000000000803F0000000000000000000040400000003F02000000C0BF0000003FA4EE000040BA00F43F40000040BAFE05C040000C40400000403A0000
1004
80BF0000803F02009675682F20000000FFFF010018931D00D82020000000020018931D00D82020000100000001000000967500000000000000000000000080BF000000000000803F000000000000803F00004040000000000200000080BF0000803FA4EE000040BA00F43F40000040BAFE05C040000C4040
1004
0000403AFFFFFF3F0000404002009675583020000000FFFF010018931D00D82020000000020018931D00D82020000100000001000000967500000000000000000000000080BF000000000000803F000000000000803F00004040000000000200FFFFFF3F00004040A4EE000040BA00F43F40000040BAFE05
1004
C040000C40400000403AFDFF7F40FFFF9F4002009675981D22000000FFFF010018931D00D82020000000020018931D00D82020000100000001000000967500000000000000000000000080BF000000000000803F000000000000803F00004040000000000200FDFF7F40FFFF9F40A4EE00E8FF3F00D07F3F
1004
000040BA000C0040211B803F000C0040000040B4FFFFFF3F020096759002220000000100FFFF20811D0040172000000002004017200020811D00010000000100000096750000000000000000803F000000000000803F0000000000000000000000400100803FFFFFFF3F0200000040B4FFFFFF3FA4EE00E8
1004
FF3F00D07F3F000040BA000C0040000C4040D908593A0000C0BFFFFFFF3E02009675A81322000000FFFF010020811D00D82020000000020020811D00D82020000100000001000000967500000000000000000000000080BF0000803F0000000000000000000000400000C03F0000000002000000C0BFFFFF
1004
FF3EA4EE37F9BF40D90859BAD90859BAC906C040000C4040D908593A000000BFFFFF1F4002009675100822000000FFFF0100D82020002011200000000200D8202000201120000100000001000000967500000000803F00000000000000000000000000000000000080BF0000C0400000003F000000000200
1004
000000BFFFFF1F40A4EED90859BAD90859BAD90859BAD908593A000C4040D908593A000040C0000000800200967520EE21000000FFFF0100D82020003815200000000200D820200038152000010000000100000096750000000080BF00000000000000000000000000000000000080BF0000000000000000
1004
000000000200000040C000000080A4EED90859BABEC97F3FD90859BAC906C040211B803FD908593AFCFFFFBF010080BF0200967510EF21000000FFFF0100D82020004017200000000200D820200040172000010000000100000096750000000000000000803F000000000000000000000000000080BF0000
1004
40400000803F000000000200FCFFFFBF010080BFA4EED90859BABEC97F3FD90859BAC906C040211B803FD908593A00000080FFFF7F3F0200967500F021000000FFFF0100D82020004017200000000200D820200040172000010000000100000096750000000000000000803F000000000000000000000000
1004
000080BF000040400000803F00000000020000000080FFFF7F3FA4EED90859BAD90859BAD90859BAC906C040D908593AD908593A000000000000C04002009675301722000000FFFF0100D8202000C821200000000200D8202000C821200001000000010000009675000000000000000080BF000000000000
1004
000000000000000080BF0000000000000000000000000200000000000000C040A4EED90859BAD90859BA6EF23F40C906C040D908593A900D4040000040C00000404002009675201822000000FFFF0100C82120005016200000000200C8212000501620000100000001000000967500000000000000000000
1004
0000803F00000000000080BF000000000000404000000000000040400200000040C000004040A4EE37F9BF40D90859BAD90859BAC906C040D908593A900D40400000C0BF0000C03F02009675101922000000FFFF0100C82120002011200000000200C8212000201120000100000001000000967500000000
1004
803F000000000000000000000000000080BF000000000000C040000000000000C03F02000000C0BF0000C03FA4EED90859BAD90859BAD90859BAD908593AD908593A900D4040000000000000404002009675001A22000000FFFF0100C82120003815200000000200C8212000381520000100000001000000
1004
96750000000080BF000000000000000000000000000080BF0000000000000000000000000000000002000000000000004040A4EED90859BAD90859BA6FF23F40D908593A211B803F900D4040000000BF0000003F02009675F01A22000000FFFF010038152000501620000000020038152000501620000100
1004
0000010000009675000000000000000000000000803F000080BF0000000000000000000000000000003F000040400200000000BF0000003FA4EED90859BABEC97F3FD90859BAD908593A211B803F900D40400100003F0000C03F02009675E01B22000000FFFF010038152000401720000000020038152000
1004
40172000010000000100000096750000000000000000803F00000000000080BF0000000000000000000000000000803F0000C03F02000100003F0000C03FA4EE37F9BF40D90859BA6EF23F40C906C040000C0040900D4040000080BF0000803F02009675B09621000000FFFF010050162000201120000000
1004
020050162000201120000100000001000000967500000000803F000000000000000000000000000000000000803F0000C0400000803F000040400200000080BF0000803FA4EED90859BABEC97F3F6EF23F40C906C040211B803F900D40400000C0C0010080BF02009675D09621000000FFFF010050162000
1004
40172000000002005016200040172000010000000100000096750000000000000000803F0000000000000000000000000000803F0000C0400000803F0000404002000000C0C0010080BF19FC
1005
2F3
  0
INSERT
  8
AME_FRZ
  5
2F3
  2
AME_NIL
 10
1.0
 20
1.0
 30
1.0
1001
AME_SOL
1004

1005
0
  0
INSERT
  8
AME_FRZ
  5
3A2
  2
*U13
 10
0.0
 20
0.0
 30
0.0
  0
INSERT
  8
AME_FRZ
  5
3A5
  2
AME_MAT
 10
0.0
 20
0.0
 30
0.0
1001
AME_SOL
1000
MILD_STEEL
1040
7860.0
1040
220.0
1040
0.275
1040
207.0
1040
345.0
1040
56.0
1040
12.0
1040
0.46
  0
ENDSEC
  0
EOF
