**ABCDEFGHIJKLMNOPQRSTUVWXYZabcdefghijklmnopqrstuvwxyz**************************
**PARASOLID !"#$%&'()*+,-./:;<=>?@[\]^_`{|}~0123456789**************************
**PART1;MC=sun;MC_MODEL=sun3;MC_ID=graceland;OS=SunOS;OS_RELEASE=4.1;FRU=sdl_par
asolid_test_sun;APPL=unknown;SITE=sdl-cambridge-u.k.;USER=kramer;FORMAT=text;GUI
SE=transmit;KEY=olps_workpiece_out;FILE=olps_workpiece_out.xmt_txt;DATE=22-apr-1
991;
**PART2;SCH=SCH_301017_3000;USFLD_SIZE=0;
**PART3;
**END_OF_HEADER*****************************************************************
T50 : TRANSMIT FILE created by modeller version 30101715 SCH_301017_30000 12 1 2
003 0 0 0 0 0 1e3 1e-8 2 2 0 0 0 1 3 102 18 2 olps_workpiece_out13 3 2 0 1 0 4 5
 6 7 8 9 14 4 1827 0 10 0 11 3 7 -16 5 1858 0 12 0 13 8 18 6 1895 0 14 0 15 9 51
 7 1920 0 4 16 0 0 +2.66 2.13 1.2 0 0 -1 .2 -1 0 0 31 8 1936 0 5 17 0 0 +2.66 2.
13 1.24 0 0 1 1 0 0 .2 29 9 1973 0 6 18 0 2.46 2.13 1.24 29 18 1974 0 15 19 9 2.
46 2.86 1.24 18 15 1896 0 20 6 21 18 29 19 1975 0 21 22 18 2.76 3.06 1.24 18 21
 1897 0 23 15 24 19 29 22 1976 0 24 25 19 2.66 3.06 1.24 18 24 1898 0 26 21 27 2
2 29 25 1977 0 27 28 22 2.76 3.06 1.5 18 27 1899 0 29 24 30 25 29 28 1978 0 30 3
1 25 2.76 1.93 1.24 18 30 1900 0 32 27 33 28 29 31 1979 0 33 34 28 2.66 1.93 1.2
4 18 33 1901 0 12 30 35 31 29 34 1980 0 35 36 31 2.76 1.93 1.5 18 35 1902 0 37 3
3 38 34 29 36 1987 0 38 39 34 2.46 2.86 1.5 18 38 1909 0 40 35 41 36 29 39 1988
 0 41 42 36 2.46 2.13 1.5 18 41 1910 0 43 38 44 39 29 42 1990 0 44 45 39 2.66 3.
06 1.5 18 44 1912 0 46 41 47 42 29 45 1766 0 47 48 42 2.66 1.93 1.5 18 47 1764 0
 49 44 50 45 29 48 1720 0 50 51 45 2.77114930704764 1.435 .48 18 50 1642 0 52 47
 53 48 29 51 1724 0 53 54 48 2.77114930704764 3.555 .48 18 53 1646 0 55 50 56 51
 29 54 1728 0 56 57 51 2.76 1.435 1.24 18 56 1650 0 58 53 59 54 29 57 1729 0 59
 60 54 2.76 3.555 1.24 18 59 1651 0 61 56 62 57 29 60 1730 0 62 63 57 2.76 1.175
 .48 18 62 1652 0 64 59 65 60 29 63 1731 0 65 66 60 2.76 1.435 .48 18 65 1653 0
 67 62 68 63 29 66 1732 0 68 69 63 2.76 3.555 .48 18 68 1654 0 70 65 71 66 29 69
 1733 0 71 72 66 2.76 3.815 .48 18 71 1655 0 73 68 74 69 29 72 1735 0 74 75 69 2
.76 1.175 1.5 18 74 1657 0 76 71 77 72 29 75 1469 0 77 78 72 2.76 3.815 1.5 18 7
7 1467 0 79 74 80 75 29 78 1433 0 80 81 75 3.06 3.908257569495585 .48 18 80 1345
 0 82 77 83 78 29 81 1434 0 83 84 78 0 4.99 .48 18 83 1346 0 85 80 86 81 29 84 1
437 0 86 87 81 0 3.815 .48 18 86 1349 0 88 83 89 84 29 87 1440 0 89 90 84 0 3.81
5 1.5 18 89 1352 0 91 86 92 87 29 90 1194 0 92 93 87 3.06 4.99 .48 18 92 1192 0
 94 89 95 90 29 93 1158 0 95 96 90 3.06 1.081742430504416 .48 18 95 1070 0 97 92
 98 93 29 96 1162 0 98 99 93 0 1.175 1.5 18 98 1074 0 100 95 101 96 29 99 1165 0
 101 102 96 3.06 0 .48 18 101 1077 0 103 98 104 99 29 102 1166 0 104 105 99 0 0
 .48 18 104 1078 0 106 101 107 102 29 105 927 0 107 108 102 0 1.175 .48 18 107 9
25 0 109 104 110 105 29 108 876 0 110 111 105 3.26 3.95 .4 18 110 758 0 112 107
 113 108 29 111 877 0 113 114 108 3.26 1.04 .4 18 113 759 0 115 110 116 111 29 1
14 878 0 116 117 111 3.06 0 .4 18 116 760 0 118 113 119 114 29 117 879 0 119 120
 114 3.06 1.081742430504416 .4 18 119 761 0 121 116 122 117 29 120 880 0 122 123
 117 3.06 3.908257569495585 .4 18 122 762 0 124 119 125 120 29 123 881 0 125 126
 120 3.06 4.99 .4 18 125 763 0 127 122 128 123 29 126 882 0 128 129 123 5.26 4.9
9 .4 18 128 764 0 130 125 131 126 29 129 884 0 131 132 126 5.26 1.04 .4 18 131 7
66 0 133 128 134 129 29 132 885 0 134 135 129 5.26 0 .4 18 134 767 0 136 131 137
 132 29 135 507 0 137 138 132 5.26 3.95 .4 18 137 505 0 139 134 140 135 29 138 4
81 0 140 141 135 2.77114930704764 3.555 0 18 140 399 0 142 137 143 138 29 141 48
6 0 143 144 138 .56 3.555 0 18 143 404 0 145 140 146 141 29 144 488 0 146 147 14
1 .26 1.735 0 18 146 406 0 148 143 149 144 29 147 489 0 149 150 144 .26 3.255 0
 18 149 407 0 151 146 152 147 29 150 492 0 152 153 147 .26 3.255 1.24 18 152 410
 0 154 149 155 150 29 153 493 0 155 156 150 .26 1.735 1.24 18 155 411 0 157 152
 158 153 29 156 495 0 158 159 153 .56 3.555 1.24 18 158 413 0 160 155 161 156 29
 159 499 0 161 162 156 .56 1.435 0 18 161 417 0 163 158 164 159 29 162 500 0 164
 165 159 .56 1.435 1.24 18 164 418 0 166 161 167 162 29 165 259 0 167 168 162 2.
77114930704764 1.435 0 18 167 257 0 169 164 170 165 29 168 229 0 170 171 165 5.2
6 3.95 0 18 170 163 0 172 167 173 168 29 171 232 0 173 174 168 5.26 1.04 0 18 17
3 166 0 175 170 176 171 29 174 233 0 176 177 171 3.26 3.95 0 18 176 167 0 178 17
3 179 174 29 177 246 0 179 180 174 3.26 1.04 0 18 179 180 0 181 176 182 177 29 1
80 38 0 183 184 177 0 0 0 18 183 8 0 185 186 187 180 29 184 37 0 186 188 180 0 4
.99 0 18 186 10 0 189 182 183 184 29 188 36 0 182 190 184 5.26 4.99 0 18 182 12
 0 191 179 186 188 29 190 35 0 187 0 188 5.26 0 0 18 187 7 0 192 183 0 190 17 19
2 193 194 195 187 196 197 15 193 939 0 106 198 0 17 194 193 118 192 134 199 200
 17 195 193 192 106 183 201 202 17 196 203 204 205 183 192 197 16 197 9 0 192 20
6 207 208 16 206 11 0 185 209 197 210 16 207 3 0 211 197 0 212 30 208 39 0 197 0
 212 0 +2.63 0 0 1 0 0 30 212 40 0 207 208 213 0 +5.26 2.495 0 0 1 0 30 213 41 0
 209 212 210 0 +2.63 4.99 0 -1 0 0 16 209 13 0 189 200 206 213 30 210 42 0 206 2
13 214 0 +0 2.495 0 0 -1 0 30 214 47 0 200 210 215 0 +5.26 0 0 0 0 1 16 200 15 0
 194 216 209 214 30 215 48 0 216 214 217 0 +5.26 4.99 0 0 0 1 16 216 17 0 218 21
9 200 215 30 217 49 0 219 215 220 0 +0 4.99 0 0 0 1 16 219 19 0 221 202 216 217
 30 220 50 0 202 217 222 0 +0 0 0 0 0 1 16 202 21 0 201 223 219 220 30 222 67 0
 223 220 224 0 +5.26 2.495 0 0 1 0 16 223 65 0 191 225 202 222 30 224 227 0 225
 222 226 0 +4.51 1.04 0 1 0 0 16 225 161 0 175 227 223 224 31 226 212 0 227 224
 228 0 +3.26 1.54 0 0 0 -1 -1 0 0 .5 16 227 146 0 229 230 225 226 30 228 208 0 2
30 226 231 0 +3.26 3.95 0 0 0 1 16 230 142 0 232 233 227 228 30 231 199 0 233 22
8 234 0 +4.51 3.95 0 -1 0 0 16 233 133 0 178 235 230 231 30 234 197 0 235 231 23
6 0 +5.26 3.95 0 0 0 1 16 235 131 0 237 238 233 234 31 236 256 0 238 234 239 0 +
3.26 3.45 0 0 0 -1 -1 0 0 .5 16 238 254 0 240 241 235 236 30 239 318 0 241 236 2
42 0 -2.77114930704764 1.435 0 0 0 -1 16 241 316 0 243 244 238 239 30 242 474 0
 244 239 245 0 +1.76 1.435 0 1 0 0 16 244 392 0 169 246 241 242 30 245 473 0 246
 242 247 0 +.56 1.435 0 0 0 -1 16 246 391 0 248 249 244 245 30 247 470 0 249 245
 250 0 +1.76 3.555 1.24 1 0 0 16 249 388 0 251 252 246 247 30 250 469 0 252 247
 253 0 +.26 2.495 1.24 0 1 0 16 252 387 0 254 255 249 250 31 253 468 0 255 250 2
56 0 +.56 1.735 1.24 0 0 1 1 0 0 .3 16 255 386 0 257 258 252 253 31 256 467 0 25
8 253 259 0 +.56 3.255 1.24 0 0 1 1 0 0 .3 16 258 385 0 260 261 255 256 30 259 4
61 0 261 256 262 0 +.26 2.495 0 0 -1 0 16 261 379 0 148 263 258 259 31 262 459 0
 263 259 264 0 +.56 1.735 0 0 0 -1 -1 0 0 .3 16 263 377 0 265 266 261 262 31 264
 458 0 266 262 267 0 +.56 3.255 0 0 0 -1 -1 0 0 .3 16 266 376 0 268 269 263 264
 30 267 455 0 269 264 270 0 +.56 3.555 0 0 0 1 16 269 373 0 271 272 266 267 30 2
70 453 0 272 267 273 0 -.26 1.735 0 0 0 -1 16 272 371 0 274 275 269 270 30 273 4
52 0 275 270 276 0 -.26 3.255 0 0 0 1 16 275 370 0 277 278 272 273 30 276 446 0
 278 273 279 0 +1.76 3.555 0 -1 0 0 16 278 364 0 145 280 275 276 30 279 520 0 28
0 276 281 0 +5.26 1.04 0 0 0 -1 16 280 518 0 282 283 278 279 30 281 565 0 283 27
9 284 0 +3.26 1.04 0 0 0 -1 16 283 563 0 285 286 280 281 30 284 603 0 286 281 28
7 0 +4.51 3.95 .4 -1 0 0 16 286 601 0 112 288 283 284 30 287 837 0 288 284 289 0
 +5.26 2.495 .4 0 1 0 16 288 719 0 290 291 286 287 30 289 835 0 291 287 292 0 +5
.26 2.495 .4 0 1 0 16 291 717 0 293 294 288 289 30 292 833 0 294 289 295 0 +3.06
 2.495 .4 0 -1 0 16 294 715 0 296 297 291 292 30 295 831 0 297 292 298 0 +3.06 2
.495 .4 0 -1 0 16 297 713 0 299 300 294 295 30 298 829 0 300 295 301 0 +2.63 4.9
9 .4 -1 0 0 16 300 711 0 302 303 297 298 30 301 828 0 303 298 304 0 +2.63 0 .4 1
 0 0 16 303 710 0 305 306 300 301 30 304 827 0 306 301 307 0 +4.51 1.04 .4 1 0 0
 16 306 709 0 133 308 303 304 31 307 826 0 308 304 309 0 -3.26 1.54 .4 0 0 -1 -1
 0 0 .5 16 308 708 0 115 310 306 307 31 309 824 0 310 307 311 0 -3.26 3.45 .4 0
 0 -1 -1 0 0 .5 16 310 706 0 124 312 308 309 30 311 818 0 312 309 313 0 +3.06 4.
99 0 0 0 1 16 312 700 0 314 315 310 311 30 313 810 0 315 311 316 0 +3.06 3.90825
7569495585 0 0 0 1 16 315 692 0 317 318 312 313 30 316 924 0 318 313 319 0 +0 2.
495 1.5 0 1 0 16 318 922 0 320 321 315 316 30 319 931 0 321 316 322 0 +0 1.175 0
 0 0 -1 16 321 929 0 323 324 318 319 30 322 937 0 324 319 325 0 +3.06 0 0 0 0 -1
 16 324 935 0 326 327 321 322 30 325 968 0 327 322 328 0 +3.06 1.081742430504416
 0 0 0 -1 16 327 966 0 121 329 324 325 30 328 1131 0 329 325 330 0 +1.53 0 .48 1
 0 0 16 329 1043 0 331 332 327 328 30 330 1125 0 332 328 333 0 +1.53 1.175 1.5 1
 0 0 16 332 1037 0 334 335 329 330 30 333 1119 0 335 330 336 0 +0 2.495 .48 0 -1
 0 16 335 1031 0 337 338 332 333 31 336 1118 0 338 333 339 0 -3.26 1.54 .48 0 0
 -1 -1 0 0 .5 16 338 1030 0 97 340 335 336 30 339 1400 0 340 336 341 0 +1.53 3.8
15 .48 1 0 0 16 340 1312 0 73 342 338 339 30 341 1398 0 342 339 343 0 +1.53 4.99
 .48 -1 0 0 16 342 1310 0 344 345 340 341 30 343 1396 0 345 341 346 0 +0 2.495 .
48 0 -1 0 16 345 1308 0 347 348 342 343 31 346 1395 0 348 343 349 0 -3.26 3.45 .
48 0 0 -1 -1 0 0 .5 16 348 1307 0 55 350 345 346 30 349 1393 0 350 346 351 0 +0
 3.815 0 0 0 1 16 350 1305 0 352 353 348 349 30 351 1470 0 353 349 354 0 +1.53 3
.815 1.5 -1 0 0 16 353 1468 0 91 355 350 351 30 354 1483 0 355 351 356 0 -2.7711
4930704764 3.555 0 0 0 1 16 355 1481 0 142 357 353 354 30 356 1501 0 357 354 358
 0 +1.76 1.435 1.24 -1 0 0 16 357 1499 0 359 360 355 356 30 358 1532 0 360 356 3
61 0 +3.06 2.495 .48 0 -1 0 16 360 1530 0 103 362 357 358 30 361 1536 0 362 358
 363 0 +1.53 1.175 .48 -1 0 0 16 362 1534 0 364 365 360 361 30 363 1554 0 365 36
1 366 0 +3.06 2.495 .48 0 -1 0 16 365 1552 0 367 368 362 363 30 366 1570 0 368 3
63 369 0 +2.76 3.815 .48 0 0 -1 16 368 1568 0 370 371 365 366 30 369 1705 0 371
 366 372 0 +2.76 2.495 1.5 0 1 0 16 371 1627 0 373 374 368 369 30 372 1703 0 374
 369 375 0 +2.76 2.495 .48 0 -1 0 16 374 1625 0 376 377 371 372 30 375 1701 0 37
7 372 378 0 +2.76 2.495 .48 0 -1 0 16 377 1623 0 64 379 374 375 30 378 1699 0 37
9 375 380 0 +2.76 2.495 1.24 0 -1 0 16 379 1621 0 381 382 377 378 30 380 1698 0
 382 378 383 0 +2.76 1.435 0 0 0 -1 16 382 1620 0 67 384 379 380 30 383 1697 0 3
84 380 385 0 +2.76 3.555 0 0 0 1 16 384 1619 0 61 386 382 383 30 385 1696 0 386
 383 387 0 +2.76 1.175 .48 0 0 1 16 386 1618 0 76 388 384 385 30 387 1690 0 388
 385 389 0 +1.76 3.555 .48 -1 0 0 16 388 1612 0 70 390 386 387 30 389 1686 0 390
 387 391 0 +1.76 1.435 .48 1 0 0 16 390 1608 0 52 392 388 389 30 391 1763 0 392
 389 393 0 +2.76 2.495 1.5 0 1 0 16 392 1761 0 79 394 390 391 31 393 1771 0 394
 391 395 0 +2.66 2.13 1.5 0 0 1 1 0 0 .2 16 394 1769 0 396 397 392 393 30 395 17
92 0 397 393 398 0 +2.76 2.495 1.24 0 -1 0 16 397 1790 0 58 399 394 395 30 398 1
970 0 399 395 400 0 +2.66 1.93 1.2 0 0 -1 16 399 1892 0 401 402 397 398 30 400 1
967 0 402 398 403 0 +2.76 3.06 1.5 1 0 0 16 402 1889 0 29 404 399 400 30 403 196
6 0 404 400 405 0 +2.46 2.495 1.5 0 1 0 16 404 1888 0 40 406 402 403 31 405 1964
 0 406 403 407 0 +2.66 2.86 1.5 0 0 1 1 0 0 .2 16 406 1886 0 408 409 404 405 30
 407 1949 0 409 405 410 0 -2.46 2.86 1.2 0 0 1 16 409 1871 0 411 412 406 407 30
 410 1948 0 412 407 413 0 +2.76 1.93 1.5 -1 0 0 16 412 1870 0 49 414 409 410 30
 413 1946 0 414 410 415 0 +1.76 1.93 1.24 1 0 0 16 414 1868 0 32 416 412 413 30
 415 1945 0 416 413 417 0 +2.76 1.93 .48 0 0 1 16 416 1867 0 37 418 414 415 30 4
17 1943 0 418 415 419 0 +2.66 3.06 1.2 0 0 1 16 418 1865 0 420 421 416 417 30 41
9 1942 0 421 417 422 0 +1.76 3.06 1.24 -1 0 0 16 421 1864 0 26 423 418 419 30 42
2 1941 0 423 419 424 0 +2.76 3.06 .48 0 0 -1 16 423 1863 0 23 425 421 422 30 424
 1939 0 425 422 426 0 -2.46 2.13 1.2 0 0 -1 16 425 1861 0 427 428 423 424 30 426
 1938 0 428 424 17 0 +2.46 2.495 1.24 0 -1 0 16 428 1860 0 14 13 425 426 31 17 1
937 0 13 426 8 0 +2.66 2.86 1.24 0 0 1 1 0 0 .2 16 13 1859 0 20 5 428 17 17 20 4
29 14 26 15 430 13 15 429 351 0 381 431 0 17 14 429 12 20 6 432 428 17 26 429 20
 381 24 433 421 17 430 434 420 411 24 20 13 15 434 1830 0 420 10 0 17 420 434 40
8 430 44 435 418 17 411 434 430 408 15 436 409 17 408 434 411 420 38 46 406 17 4
36 437 438 432 38 411 409 15 437 1832 0 436 439 0 17 438 437 440 436 41 40 404 1
7 432 437 436 440 15 14 428 17 440 437 432 438 6 427 425 17 427 11 396 441 41 44
0 425 15 11 1828 0 427 4 0 17 396 11 401 427 47 43 394 17 441 11 427 401 6 12 5
 17 401 11 441 396 33 442 399 17 12 429 32 14 33 441 5 17 32 429 58 12 30 443 41
4 17 58 429 359 32 56 444 397 17 443 445 442 446 33 32 414 15 445 1836 0 443 447
 0 17 442 445 448 443 47 401 399 17 446 445 443 448 30 37 416 17 448 445 446 442
 35 49 412 17 37 449 450 444 35 446 416 15 449 1585 0 444 451 0 17 450 449 452 3
7 74 373 371 17 444 449 37 453 30 58 397 17 453 449 444 454 56 67 382 17 454 449
 453 452 65 64 377 17 67 455 52 456 65 453 382 15 455 333 0 456 457 0 17 52 455
 458 67 50 459 390 17 456 455 67 166 56 359 357 17 166 455 456 460 164 248 246 1
7 359 429 157 58 164 456 357 17 157 429 254 359 155 257 255 17 254 429 160 157 1
52 461 252 17 257 462 248 274 164 157 255 15 462 335 0 265 463 0 17 248 462 265
 257 161 166 246 17 274 462 257 265 155 464 272 17 265 462 274 248 146 163 263 1
7 464 465 466 461 146 274 272 15 465 343 0 461 467 0 17 466 465 154 464 149 148
 261 17 461 465 464 154 155 254 252 17 154 465 461 466 152 277 275 17 277 468 26
8 260 149 154 275 15 468 337 0 268 469 0 17 268 468 271 277 143 151 266 17 260 4
68 277 271 152 160 258 17 271 468 260 268 158 470 269 17 160 429 251 254 158 260
 258 17 251 429 381 160 59 471 249 17 381 429 26 251 21 472 379 17 471 473 470 6
1 158 251 249 15 473 331 0 70 474 0 17 470 473 475 471 143 271 269 17 61 473 471
 70 59 476 384 17 70 473 61 477 68 478 388 17 476 479 480 472 68 61 384 15 479 1
815 0 481 482 0 17 480 479 483 476 71 376 374 17 472 479 476 23 59 381 379 17 23
 479 472 481 21 484 423 17 481 479 23 483 27 79 392 17 484 485 486 433 27 23 423
 15 485 1834 0 486 487 0 17 486 485 435 484 44 29 402 17 433 485 484 435 21 26 4
21 17 435 485 433 486 24 420 418 17 29 488 79 46 27 486 402 15 488 1781 0 29 489
 0 17 79 488 91 29 77 481 392 17 46 488 29 40 44 408 406 17 40 488 46 43 38 438
 404 17 43 488 40 49 41 396 394 17 49 488 43 373 47 448 412 17 373 488 49 334 35
 450 371 17 334 488 373 490 74 100 332 17 490 488 334 91 98 320 318 17 100 491 3
23 76 98 334 332 15 491 990 0 492 493 0 17 323 491 492 100 107 494 321 17 76 491
 100 492 74 452 386 17 492 491 76 323 62 364 362 17 452 449 454 450 62 76 386 17
 364 495 337 64 107 492 362 15 495 2003 0 64 496 0 17 337 495 331 364 104 109 33
5 17 64 495 364 459 62 454 377 17 459 495 64 497 65 52 390 17 497 495 459 498 50
 97 338 17 498 495 497 331 95 103 360 17 97 499 121 243 95 497 338 15 499 112 0
 243 500 0 17 121 499 115 97 119 501 327 17 243 499 97 229 50 458 241 17 229 499
 243 285 167 181 227 17 458 455 460 52 167 243 241 17 460 455 166 458 161 169 24
4 17 169 203 181 163 167 460 244 15 203 278 0 145 502 0 17 181 203 175 169 179 2
29 227 17 163 203 169 148 161 265 263 17 148 203 163 151 146 466 261 17 151 203
 148 145 149 268 266 17 145 203 151 503 143 475 278 17 503 203 145 178 140 240 2
38 17 475 473 477 470 140 145 278 17 477 473 70 475 53 142 355 17 142 504 240 55
 140 477 355 15 504 114 0 55 505 0 17 240 504 232 142 176 503 238 17 55 504 142
 317 53 82 348 17 317 504 55 124 80 506 315 17 82 507 508 478 80 55 348 15 507 1
273 0 73 509 0 17 508 507 344 82 92 367 365 17 478 507 82 376 53 70 388 17 376 5
07 478 73 68 480 374 17 73 507 376 347 71 510 340 17 347 507 73 344 86 85 345 17
 510 511 352 370 86 73 340 15 511 1269 0 512 513 0 17 352 511 512 510 89 88 350
 17 370 511 510 512 71 483 368 17 512 511 370 352 77 91 353 17 483 479 481 480 7
7 370 368 17 91 488 490 79 89 512 353 17 88 514 85 320 86 352 350 15 514 1214 0
 85 515 0 17 85 514 516 88 83 347 345 17 320 514 88 494 89 490 318 17 494 514 32
0 109 98 323 321 17 109 514 494 201 107 337 335 17 201 514 109 185 104 195 202 1
7 185 514 201 516 183 204 206 17 516 514 185 85 186 221 219 17 204 203 517 196 1
86 185 206 17 517 203 518 204 182 189 209 17 518 203 178 517 170 191 223 17 189
 519 221 520 186 517 209 15 519 1201 0 94 521 0 17 221 519 94 189 83 516 219 17
 520 519 189 130 182 218 216 17 130 519 520 127 128 302 300 17 218 522 139 191 1
28 520 216 15 522 522 0 139 523 0 17 139 522 172 218 137 293 291 17 191 522 218
 172 182 518 223 17 172 522 191 139 170 237 235 17 237 524 112 525 137 172 235 1
5 524 122 0 237 526 0 17 112 524 527 237 110 528 286 17 525 524 237 527 170 178
 233 17 527 524 525 112 176 232 230 17 178 203 503 518 176 525 233 17 232 504 12
4 240 110 527 230 17 124 504 317 232 122 529 310 17 529 530 528 296 110 124 310
 15 530 661 0 528 531 0 17 528 530 293 529 137 112 286 17 296 530 529 302 122 53
2 294 17 302 530 296 293 125 130 300 17 532 533 314 506 125 296 294 15 533 1254
 0 314 534 0 17 314 533 367 532 92 127 312 17 506 533 532 367 122 317 315 17 367
 533 506 314 80 508 365 17 127 519 130 94 125 314 312 17 94 519 127 221 92 344 3
42 17 344 507 347 508 83 94 342 14 534 1256 0 493 509 533 3 535 -14 493 989 0 49
6 534 491 3 536 -14 509 1272 0 534 513 507 3 537 -50 535 1257 0 534 536 537 0 +3
.06 2.495 .4 -1 0 0 0 0 1 50 536 1095 0 493 538 535 0 +1.53 1.175 .48 0 1 0 0 0
 1 50 537 1374 0 509 535 539 0 +1.53 4.4025 .48 0 0 -1 -1 0 0 50 539 1372 0 513
 537 540 0 +1.53 3.815 .48 0 -1 0 0 0 -1 14 513 1268 0 509 451 511 3 539 -50 540
 1671 0 451 539 541 0 +2.76 2.495 .48 -1 0 0 0 0 1 14 451 1584 0 513 482 449 3 5
40 -50 541 1818 0 482 540 542 0 +2.76 2.495 .48 -1 0 0 0 0 1 14 482 1817 0 451 4
47 479 3 541 -50 542 1924 0 447 541 543 0 +2.76 1.93 1.2 0 -1 0 0 0 -1 14 447 18
35 0 482 487 445 3 542 -50 543 1923 0 487 542 544 0 +2.76 3.06 1.2 0 1 0 0 0 1 1
4 487 1833 0 447 439 485 3 543 -50 544 1922 0 439 543 16 0 +2.46 2.495 1.2 -1 0
 0 0 0 1 14 439 1831 0 487 10 437 3 544 -51 16 1921 0 10 544 7 0 +2.66 2.86 1.2
 0 0 1 .2 1 0 0 14 10 1829 0 439 4 434 3 16 -50 538 1097 0 496 545 536 0 +1.53 .
5875 .48 0 0 -1 -1 0 0 14 496 993 0 546 493 495 3 538 -50 545 788 0 546 547 538
 0 +3.06 2.495 .4 -1 0 0 0 0 1 14 546 648 0 531 496 548 3 545 -50 547 794 0 531
 549 545 0 +4.16 2.495 .4 0 0 -1 -1 0 0 14 531 660 0 550 546 530 3 547 -50 549 7
95 0 550 551 547 0 +4.16 2.495 .4 0 0 -1 -1 0 0 14 550 662 0 552 531 553 3 549 -
50 551 525 0 552 554 549 0 +5.26 2.495 0 1 0 0 0 0 -1 14 552 524 0 474 550 555 3
 551 +50 554 424 0 474 556 551 0 +1.76 3.555 0 0 1 0 0 0 1 14 474 330 0 457 552
 473 3 554 -50 556 425 0 457 557 554 0 +1.76 1.435 0 0 -1 0 0 0 -1 14 457 332 0
 463 474 455 3 556 -51 557 426 0 463 558 556 0 +.56 1.735 0 0 0 -1 .3 -1 0 0 14
 463 334 0 469 457 462 3 557 -51 558 427 0 469 559 557 0 +.56 3.255 0 0 0 1 .3 1
 0 0 14 469 336 0 467 463 468 3 558 -50 559 430 0 467 560 558 0 +.26 2.495 0 -1
 0 0 0 0 1 14 467 342 0 431 469 465 3 559 -50 560 434 0 431 561 559 0 +1.76 2.49
5 1.24 0 0 1 1 0 0 14 431 350 0 500 467 429 3 560 -51 561 187 0 500 562 560 0 +3
.26 1.54 0 0 0 -1 .5 -1 0 0 14 500 111 0 505 431 499 3 561 -51 562 188 0 505 563
 561 0 +3.26 3.45 0 0 0 1 .5 1 0 0 14 505 113 0 526 500 504 3 562 -50 563 192 0
 526 564 562 0 +4.51 3.95 0 0 1 0 0 0 1 14 526 121 0 565 505 524 3 563 -50 564 1
96 0 565 566 563 0 +4.51 1.04 0 0 -1 0 0 0 -1 14 565 129 0 489 526 567 3 564 -50
 566 51 0 489 568 564 0 +2.63 2.495 1.5 0 0 1 1 0 0 14 489 33 0 198 565 488 3 56
6 +50 568 46 0 198 569 566 0 +2.63 0 0 0 -1 0 0 0 -1 14 198 30 0 515 489 193 3 5
68 +50 569 45 0 515 570 568 0 +0 2.495 0 -1 0 0 0 0 1 14 515 27 0 521 198 514 3
 569 +50 570 44 0 521 571 569 0 +2.63 4.99 0 0 1 0 0 0 1 14 521 24 0 502 515 519
 3 570 +50 571 43 0 523 572 570 0 +5.26 2.495 0 1 0 0 0 0 -1 14 523 1 0 0 502 52
2 3 571 +50 572 34 0 502 0 571 0 +2.63 2.495 0 0 0 -1 -1 0 0 14 502 6 0 523 521
 203 3 572 +15 567 130 0 573 565 0 17 573 567 133 574 113 285 283 17 133 567 282
 573 131 575 306 17 574 567 573 282 179 175 225 17 285 499 229 115 179 573 283 1
7 115 499 285 121 113 576 308 17 576 553 299 575 119 115 308 15 553 663 0 299 55
0 0 17 299 553 305 576 116 577 297 17 575 553 576 290 113 133 306 17 290 553 575
 305 131 136 288 17 305 553 290 299 134 118 303 17 136 555 199 578 134 290 288 1
5 555 527 0 136 552 0 17 199 555 211 136 187 194 200 17 578 555 136 211 131 282
 280 17 211 555 578 199 173 205 207 17 282 567 574 133 173 578 280 17 205 203 19
6 175 187 211 207 17 175 203 205 181 173 574 225 17 118 193 579 194 116 305 303
 17 579 193 106 118 101 326 324 17 106 193 195 579 104 331 329 17 326 548 577 10
3 116 579 324 15 548 649 0 501 546 0 17 577 548 501 326 119 299 297 17 103 548 3
26 501 101 498 360 17 501 548 103 577 95 121 327 17 331 495 498 337 101 106 329
 17 293 530 302 528 128 139 291 1 0 
