**ABCDEFGHIJKLMNOPQRSTUVWXYZabcdefghijklmnopqrstuvwxyz**************************
**PARASOLID !"#$%&'()*+,-./:;<=>?@[\]^_`{|}~0123456789**************************
**PART1;MC=sun;MC_MODEL=Sun-3;MC_ID=unknown;OS=SunOS;OS_RELEASE=unknown;FRU=sdl_
parasolid_test_sun;APPL=unknown;SITE=sdl-cambridge-u.k.;USER=kramer;FORMAT=text;
GUISE=transmit;KEY=olps_workpiece_out;FILE=olps_workpiece_out.xmt_txt;DATE=21-au
g-1990;
**PART2;SCH=SCH_210_1012;USFLD_SIZE=0;
**PART3;
**END_OF_HEADER*****************************************************************
T47 : TRANSMIT FILE created by modeller version 22012 SCH_210_10120 12 1 862 0 0
 0 0 0 1e3 1e-8 2 2 0 0 0 1 3 102 18 2 olps_workpiece_out13 3 2 0 1 0 4 5 6 7 8
 9 14 4 324 0 10 0 11 3 7 -16 5 357 0 12 0 13 8 18 6 396 0 12 0 14 9 51 7 421 0
 4 15 0 0 +2.96 1.735 1.24 0 0 -1 .3 31 8 439 0 5 16 0 0 +2.96 1.735 .5 0 0 1 .3
 29 9 478 0 6 17 0 3.26 1.735 .5 29 17 479 0 14 18 9 3.26 3.255 .5 18 14 397 0 1
9 6 20 17 29 18 480 0 20 21 17 2.771149307047645 1.435 .5 18 20 398 0 22 14 23 1
8 29 21 481 0 23 24 18 2.96 1.435 .5 18 23 399 0 25 20 26 21 29 24 482 0 26 27 2
1 2.771149307047645 1.435 0 18 26 400 0 28 23 29 24 29 27 483 0 29 30 24 2.77114
9307047645 3.555 .5 18 29 401 0 31 26 32 27 29 30 484 0 32 33 27 2.7711493070476
45 3.555 0 18 32 402 0 34 29 35 30 29 33 485 0 35 36 30 2.96 3.555 .5 18 35 403
 0 37 32 38 33 29 36 486 0 38 39 33 .56 1.435 1.24 18 38 404 0 40 35 41 36 29 39
 487 0 41 42 36 2.96 1.435 1.24 18 41 405 0 43 38 44 39 29 42 488 0 44 45 39 .26
 3.255 1.24 18 44 406 0 46 41 47 42 29 45 489 0 47 48 42 .26 1.735 1.24 18 47 40
7 0 49 44 50 45 29 48 490 0 50 51 45 3.26 1.735 1.24 18 50 408 0 52 47 53 48 29
 51 491 0 53 54 48 3.26 3.255 1.24 18 53 409 0 55 50 56 51 29 54 492 0 56 57 51
 .26 1.735 0 18 56 410 0 58 53 59 54 29 57 493 0 59 60 54 .26 3.255 0 18 59 411
 0 61 56 62 57 29 60 495 0 62 63 57 .56 1.435 0 18 62 413 0 64 59 65 60 29 63 49
8 0 65 66 60 2.96 3.555 1.24 18 65 416 0 67 62 68 63 29 66 499 0 68 69 63 .56 3.
555 1.24 18 68 417 0 70 65 71 66 29 69 263 0 71 72 66 .56 3.555 0 18 71 261 0 73
 68 74 69 29 72 229 0 74 75 69 5.26 1.04 .5 18 74 163 0 76 71 77 72 29 75 230 0
 77 78 72 5.26 1.04 0 18 77 164 0 79 74 80 75 29 78 232 0 80 81 75 5.26 3.95 .5
 18 80 166 0 82 77 83 78 29 81 233 0 83 84 78 3.26 1.04 .5 18 83 167 0 85 80 86
 81 29 84 242 0 86 87 81 3.26 1.04 0 18 86 176 0 88 83 89 84 29 87 246 0 89 90 8
4 3.26 3.95 .5 18 89 180 0 91 86 92 87 29 90 247 0 92 93 87 3.26 3.95 0 18 92 18
1 0 94 89 95 90 29 93 66 0 95 96 90 5.26 3.95 0 18 95 64 0 97 92 98 93 29 96 55
 0 98 99 93 0 0 1.5 18 98 20 0 100 95 101 96 29 99 54 0 101 102 96 0 4.99 1.5 18
 101 18 0 103 98 104 99 29 102 53 0 104 105 99 5.26 4.99 1.5 18 104 16 0 106 101
 107 102 29 105 52 0 107 108 102 5.26 0 1.5 18 107 14 0 109 104 110 105 29 108 3
8 0 111 112 105 0 0 0 18 111 8 0 113 114 115 108 29 112 37 0 114 116 108 0 4.99
 0 18 114 10 0 117 110 111 112 29 116 36 0 110 118 112 5.26 4.99 0 18 110 12 0 1
19 107 114 116 29 118 35 0 115 0 116 5.26 0 0 18 115 7 0 120 111 0 118 17 120 12
1 109 122 115 123 124 15 121 29 0 109 125 0 17 109 121 126 120 107 127 128 17 12
2 121 120 126 111 100 129 17 123 130 131 132 111 120 124 16 124 9 0 120 133 134
 135 16 133 11 0 113 136 124 137 16 134 3 0 138 124 0 139 30 135 39 0 124 0 139
 0 +2.63 0 0 1 0 0 30 139 40 0 134 135 140 0 +5.26 2.495 0 0 1 0 30 140 41 0 136
 139 137 0 +2.63 4.99 0 -1 0 0 16 136 13 0 117 128 133 140 30 137 42 0 133 140 1
41 0 +0 2.495 0 0 -1 0 30 141 47 0 128 137 142 0 +5.26 0 0 0 0 1 16 128 15 0 109
 143 136 141 30 142 48 0 143 141 144 0 +5.26 4.99 0 0 0 1 16 143 17 0 106 145 12
8 142 30 144 49 0 145 142 146 0 +0 4.99 0 0 0 1 16 145 19 0 103 129 143 144 30 1
46 50 0 129 144 147 0 +0 0 0 0 0 1 16 129 21 0 100 148 145 146 30 147 56 0 148 1
46 149 0 +5.26 2.495 1.5 0 -1 0 16 148 22 0 150 151 129 147 30 149 57 0 151 147
 152 0 +2.63 4.99 1.5 1 0 0 16 151 25 0 153 154 148 149 30 152 58 0 154 149 155
 0 +0 2.495 1.5 0 1 0 16 154 28 0 156 157 151 152 30 155 59 0 157 152 158 0 +2.6
3 0 1.5 -1 0 0 16 157 31 0 126 159 154 155 30 158 67 0 159 155 160 0 +5.26 2.495
 0 0 1 0 16 159 65 0 119 161 157 158 30 160 84 0 161 158 162 0 +2.63 3.95 0 1 0
 0 16 161 82 0 163 164 159 160 30 162 227 0 164 160 165 0 +4.51 3.95 .5 1 0 0 16
 164 161 0 166 167 161 162 30 165 226 0 167 162 168 0 +3.26 3.95 .5 0 0 1 16 167
 160 0 169 170 164 165 30 168 223 0 170 165 171 0 +4.51 1.04 0 1 0 0 16 170 157
 0 79 172 167 168 31 171 220 0 172 168 173 0 +3.26 1.54 0 0 0 -1 .5 16 172 154 0
 174 175 170 171 31 173 212 0 175 171 176 0 +3.26 3.45 .5 0 0 1 .5 16 175 146 0
 177 178 172 173 30 176 208 0 178 173 179 0 +3.26 1.04 .5 0 0 -1 16 178 142 0 18
0 181 175 176 30 179 202 0 181 176 182 0 +5.26 3.95 0 0 0 1 16 181 136 0 183 184
 178 179 30 182 199 0 184 179 185 0 +4.51 1.04 .5 -1 0 0 16 184 133 0 186 187 18
1 182 30 185 198 0 187 182 188 0 +5.26 2.495 .5 0 -1 0 16 187 132 0 189 190 184
 185 30 188 197 0 190 185 191 0 +5.26 1.04 0 0 0 -1 16 190 131 0 192 193 187 188
 31 191 256 0 193 188 194 0 +3.26 3.45 0 0 0 -1 .5 16 193 254 0 195 196 190 191
 31 194 268 0 196 191 197 0 +.56 3.255 0 0 0 -1 .3 16 196 266 0 198 199 193 194
 31 197 285 0 199 194 200 0 +3.26 1.54 .5 0 0 1 .5 16 199 283 0 201 202 196 197
 30 200 474 0 202 197 203 0 +1.76 3.555 1.24 1 0 0 16 202 392 0 204 205 199 200
 30 203 473 0 205 200 206 0 +.56 3.555 1.24 0 0 1 16 205 391 0 207 208 202 203 3
0 206 472 0 208 203 209 0 +2.96 3.555 1.24 0 0 -1 16 208 390 0 210 211 205 206 3
0 209 470 0 211 206 212 0 +1.76 1.435 0 1 0 0 16 211 388 0 28 213 208 209 30 212
 469 0 213 209 214 0 +.26 2.495 0 0 -1 0 16 213 387 0 58 215 211 212 31 214 467
 0 215 212 216 0 +.56 1.735 0 0 0 -1 .3 16 215 385 0 217 218 213 214 30 216 464
 0 218 214 219 0 +3.26 2.495 1.24 0 -1 0 16 218 382 0 220 221 215 216 30 219 463
 0 221 216 222 0 +3.26 1.735 1.24 0 0 -1 16 221 381 0 223 224 218 219 30 222 461
 0 224 219 225 0 +.26 2.495 1.24 0 1 0 16 224 379 0 226 227 221 222 30 225 460 0
 227 222 228 0 +1.76 1.435 1.24 -1 0 0 16 227 378 0 229 230 224 225 31 228 459 0
 230 225 231 0 +.56 3.255 1.24 0 0 1 .3 16 230 377 0 232 233 227 228 31 231 458
 0 233 228 234 0 +.56 1.735 1.24 0 0 1 .3 16 233 376 0 235 236 230 231 31 234 45
7 0 236 231 237 0 +2.96 1.735 1.24 0 0 1 .3 16 236 375 0 238 239 233 234 31 237
 456 0 239 234 240 0 +2.96 3.255 1.24 0 0 1 .3 16 239 374 0 241 242 236 237 30 2
40 455 0 242 237 243 0 +.56 1.435 1.24 0 0 -1 16 242 373 0 244 245 239 240 30 24
3 453 0 245 240 246 0 +.26 3.255 1.24 0 0 -1 16 245 371 0 247 248 242 243 30 246
 452 0 248 243 249 0 +.26 1.735 1.24 0 0 1 16 248 370 0 250 251 245 246 30 249 4
50 0 251 246 252 0 +1.76 3.555 0 -1 0 0 16 251 368 0 73 253 248 249 30 252 449 0
 253 249 254 0 +4.51 3.555 .5 -1 0 0 16 253 367 0 31 255 251 252 30 254 448 0 25
5 252 256 0 +2.771149307047645 3.555 .5 0 0 -1 16 255 366 0 34 257 253 254 30 25
6 446 0 257 254 258 0 +2.96 1.435 1.24 0 0 1 16 257 364 0 259 260 255 256 30 258
 445 0 260 256 261 0 +4.51 1.435 .5 1 0 0 16 260 363 0 25 262 257 258 30 261 444
 0 262 258 263 0 -2.771149307047645 1.435 .5 0 0 -1 16 262 362 0 22 264 260 261
 30 263 443 0 264 261 265 0 +3.26 3.255 1.24 0 0 1 16 264 361 0 266 267 262 263
 30 265 441 0 267 263 16 0 +3.26 2.495 .5 0 1 0 16 267 359 0 19 13 264 265 31 16
 440 0 13 265 8 0 +2.96 3.255 .5 0 0 1 .3 16 13 358 0 37 5 267 16 17 37 268 31 1
9 35 269 13 15 268 124 0 270 271 0 17 31 268 91 37 29 272 253 17 19 268 37 12 14
 273 267 17 269 274 266 210 14 37 13 15 274 327 0 266 10 0 17 266 274 241 269 53
 275 264 17 210 274 269 241 35 67 208 17 241 274 210 266 65 55 239 17 67 276 277
 272 65 210 208 15 276 333 0 272 278 0 17 277 276 279 67 68 204 202 17 272 276 6
7 280 35 31 253 17 280 276 272 281 29 34 255 17 281 276 280 279 32 73 251 17 34
 282 195 177 32 280 255 15 282 112 0 177 283 0 17 195 282 169 34 92 284 193 17 1
77 282 34 169 29 91 175 17 169 282 177 195 89 94 167 17 91 268 166 31 89 177 175
 17 166 268 189 91 80 285 164 17 189 268 186 166 74 82 187 17 285 286 94 183 89
 166 164 15 286 130 0 183 287 0 17 94 286 163 285 92 169 167 17 183 286 285 163
 80 97 181 17 163 286 183 94 95 288 161 17 97 289 119 82 95 183 181 15 289 77 0
 76 290 0 17 119 289 106 97 110 291 159 17 82 289 97 76 80 189 187 17 76 289 82
 138 74 192 190 17 138 289 76 127 77 132 134 17 192 292 293 294 77 76 190 15 292
 122 0 192 295 0 17 293 292 85 192 86 79 170 17 294 292 192 85 74 186 184 17 85
 292 294 293 83 180 178 17 186 268 270 189 83 294 184 17 270 268 25 186 20 201 1
99 17 25 268 12 270 23 296 260 17 201 297 180 22 83 270 199 15 297 114 0 174 298
 0 17 180 297 174 201 86 85 178 17 22 297 201 174 20 299 262 17 174 297 22 180 2
6 88 172 17 299 300 301 296 26 22 262 15 300 331 0 301 302 0 17 301 300 40 299 6
2 28 211 17 296 300 299 303 20 25 260 17 303 300 296 304 23 259 257 17 304 300 3
03 40 41 229 227 17 259 11 238 305 41 303 257 15 11 325 0 259 4 0 17 238 11 223
 259 50 43 236 17 305 11 259 223 23 12 5 17 223 11 305 238 6 52 221 17 12 268 19
 25 6 305 5 17 52 306 307 273 50 223 221 15 306 329 0 52 308 0 17 307 306 275 52
 53 220 218 17 273 306 52 275 6 19 267 17 275 306 273 307 14 266 264 17 220 309
 43 55 50 307 218 15 309 347 0 220 310 0 17 43 309 229 220 41 238 236 17 55 309
 220 204 53 241 239 17 204 309 55 70 65 277 202 17 70 309 204 226 68 232 230 17
 226 309 70 49 44 311 224 17 232 312 247 207 44 70 230 15 312 335 0 232 313 0 17
 247 312 198 232 59 46 245 17 207 312 232 198 68 279 205 17 198 312 207 247 71 6
1 196 17 279 276 281 277 71 207 205 17 61 130 58 73 59 198 196 15 130 278 0 28 3
14 0 17 58 130 64 61 56 315 213 17 73 130 61 284 71 281 251 17 284 130 73 288 32
 195 193 17 288 130 284 291 92 163 161 17 291 130 288 316 95 119 159 17 316 130
 291 131 110 117 136 17 131 130 316 123 114 113 133 17 117 317 103 318 114 316 1
36 15 317 23 0 103 319 0 17 103 317 153 117 101 320 145 17 318 317 117 153 110 1
06 143 17 153 317 318 103 104 321 151 17 106 289 150 119 104 318 143 17 150 289
 127 106 107 322 148 17 127 289 138 150 115 109 128 17 322 323 321 324 104 150 1
48 15 323 32 0 324 325 0 17 321 323 326 322 101 153 151 17 324 323 322 326 107 1
26 157 17 326 323 324 321 98 156 154 17 126 121 122 109 98 324 157 17 156 327 32
0 100 101 326 154 15 327 26 0 100 328 0 17 320 327 113 156 114 103 145 17 100 32
7 156 113 98 122 129 17 113 327 100 320 111 131 133 14 328 27 0 319 125 327 3 32
9 +14 319 24 0 314 328 317 3 330 +14 125 30 0 328 325 121 3 331 +50 329 45 0 328
 330 331 0 +0 2.495 0 -1 0 0 50 330 44 0 319 332 329 0 +2.63 4.99 0 0 1 0 50 331
 46 0 125 329 333 0 +2.63 0 0 0 -1 0 50 333 51 0 325 331 334 0 +2.63 2.495 1.5 0
 0 1 14 325 33 0 125 287 323 3 333 +50 334 196 0 287 333 335 0 +4.51 3.95 .5 0 1
 0 14 287 129 0 325 271 286 3 334 -50 335 193 0 271 334 336 0 +4.51 2.495 .5 0 0
 1 14 271 123 0 287 295 268 3 335 -50 336 192 0 295 335 337 0 +4.51 1.04 .5 0 -1
 0 14 295 121 0 271 298 292 3 336 -51 337 188 0 298 336 338 0 +3.26 1.54 .5 0 0
 -1 .5 14 298 113 0 295 283 297 3 337 -51 338 187 0 283 337 339 0 +3.26 3.45 .5
 0 0 -1 .5 14 283 111 0 298 310 282 3 338 -50 339 432 0 310 338 340 0 +1.76 2.49
5 1.24 0 0 1 14 310 346 0 283 341 309 3 339 -50 340 430 0 341 339 342 0 +.26 2.4
95 1.24 -1 0 0 14 341 342 0 310 343 344 3 340 -51 342 427 0 343 340 345 0 +.56 1
.735 1.24 0 0 -1 .3 14 343 336 0 341 313 346 3 342 -51 345 426 0 313 342 347 0 +
.56 3.255 1.24 0 0 -1 .3 14 313 334 0 343 278 312 3 345 -50 347 425 0 278 345 34
8 0 +1.76 3.555 1.24 0 1 0 14 278 332 0 313 302 276 3 347 -50 348 424 0 302 347
 349 0 +1.76 1.435 1.24 0 -1 0 14 302 330 0 278 308 300 3 348 -50 349 423 0 308
 348 15 0 +3.26 2.495 1.24 1 0 0 14 308 328 0 302 10 306 3 349 -51 15 422 0 10 3
49 7 0 +2.96 3.255 1.24 0 0 -1 .3 14 10 326 0 308 4 274 3 15 -15 346 337 0 235 3
43 0 17 235 346 244 250 38 49 233 17 244 346 217 235 62 40 242 17 250 346 235 21
7 47 350 248 17 49 309 226 229 47 235 233 17 229 309 49 43 38 304 227 17 217 346
 250 244 56 64 215 17 350 344 315 311 56 250 248 15 344 343 0 315 341 0 17 315 3
44 46 350 59 58 213 17 311 344 350 46 47 226 224 17 46 344 311 315 44 247 245 17
 64 130 28 58 62 217 215 17 28 130 88 64 26 301 211 17 88 130 79 28 86 174 172 1
7 79 130 132 88 77 293 170 17 132 130 123 79 115 138 134 17 40 300 304 301 38 24
4 242 50 332 43 0 290 351 330 0 +5.26 2.495 0 1 0 0 14 290 1 0 0 314 289 3 332 +
50 351 34 0 314 0 332 0 +2.63 2.495 0 0 0 -1 14 314 6 0 290 319 130 3 351 +1 0 
