**ABCDEFGHIJKLMNOPQRSTUVWXYZabcdefghijklmnopqrstuvwxyz**************************
**PARASOLID !"#$%&'()*+,-./:;<=>?@[\]^_`{|}~0123456789**************************
**PART1;MC=sun;MC_MODEL=Sun-3;MC_ID=unknown;OS=SunOS;OS_RELEASE=unknown;FRU=sdl_
parasolid_test_sun;APPL=unknown;SITE=sdl-cambridge-u.k.;USER=kramer;FORMAT=text;
GUISE=transmit;KEY=intermediate_2;FILE=intermediate_2.xmt_txt;DATE=16-oct-1990;
**PART2;SCH=SCH_210_1012;USFLD_SIZE=0;
**PART3;
**END_OF_HEADER*****************************************************************
T47 : TRANSMIT FILE created by modeller version 22012 SCH_210_10120 12 1 504 0 0
 0 0 0 1e3 1e-8 2 2 0 0 3 1 4 102 14 2 intermediate_213 4 2 0 1 0 5 6 7 8 9 10 1
4 5 324 0 11 0 12 4 8 -16 6 357 0 13 0 14 9 18 7 396 0 15 0 16 10 51 8 421 0 5 1
7 0 0 +2.96 3.255 0 0 0 1 .3 31 9 439 0 6 18 0 0 +2.96 3.255 .5 0 0 1 .3 29 10 4
78 0 7 19 0 3.26 3.255 .5 29 19 479 0 16 20 10 3.26 1.735 .5 18 16 397 0 21 7 22
 19 29 20 480 0 22 23 19 2.771149307047645 3.555 .5 18 22 398 0 24 16 25 20 29 2
3 481 0 25 26 20 2.771149307047645 3.555 0 18 25 399 0 27 22 28 23 29 26 482 0 2
8 29 23 2.96 3.555 .5 18 28 400 0 13 25 30 26 29 29 483 0 30 31 26 2.77114930704
7645 1.435 .5 18 30 401 0 32 28 33 29 29 31 484 0 33 34 29 2.96 1.435 .5 18 33 4
02 0 35 30 36 31 29 34 486 0 36 37 31 .56 3.555 0 18 36 404 0 38 33 39 34 29 37
 488 0 39 40 34 .26 1.735 0 18 39 406 0 41 36 42 37 29 40 489 0 42 43 37 .26 3.2
55 0 18 42 407 0 44 39 45 40 29 43 492 0 45 46 40 .26 3.255 1.24 18 45 410 0 47
 42 48 43 29 46 493 0 48 49 43 .26 1.735 1.24 18 48 411 0 50 45 51 46 29 49 494
 0 51 52 46 2.96 3.555 1.24 18 51 412 0 53 48 54 49 29 52 495 0 54 55 49 .56 3.5
55 1.24 18 54 413 0 56 51 57 52 29 55 496 0 57 58 52 3.26 1.735 1.24 18 57 414 0
 59 54 60 55 29 58 497 0 60 61 55 3.26 3.255 1.24 18 60 415 0 62 57 63 58 29 61
 499 0 63 64 58 .56 1.435 0 18 63 417 0 65 60 66 61 29 64 500 0 66 67 61 .56 1.4
35 1.24 18 66 418 0 68 63 69 64 29 67 501 0 69 70 64 2.96 1.435 1.24 18 69 419 0
 71 66 72 67 29 70 259 0 72 73 67 2.771149307047645 1.435 0 18 72 257 0 74 69 75
 70 29 73 229 0 75 76 70 5.26 3.95 0 18 75 163 0 77 72 78 73 29 76 230 0 78 79 7
3 5.26 3.95 .5 18 78 164 0 80 75 81 76 29 79 232 0 81 82 76 5.26 1.04 0 18 81 16
6 0 83 78 84 79 29 82 233 0 84 85 79 3.26 3.95 0 18 84 167 0 86 81 87 82 29 85 2
42 0 87 88 82 3.26 3.95 .5 18 87 176 0 89 84 90 85 29 88 246 0 90 91 85 3.26 1.0
4 0 18 90 180 0 92 87 93 88 29 91 247 0 93 94 88 3.26 1.04 .5 18 93 181 0 95 90
 96 91 29 94 70 0 96 97 91 5.26 1.04 .5 18 96 68 0 98 93 99 94 29 97 55 0 99 100
 94 0 0 1.5 18 99 20 0 101 96 102 97 29 100 54 0 102 103 97 0 4.99 1.5 18 102 18
 0 104 99 105 100 29 103 53 0 105 106 100 5.26 4.99 1.5 18 105 16 0 107 102 108
 103 29 106 52 0 108 109 103 5.26 0 1.5 18 108 14 0 110 105 111 106 29 109 38 0
 112 113 106 0 0 0 18 112 8 0 114 115 116 109 29 113 37 0 115 117 109 0 4.99 0 1
8 115 10 0 118 111 112 113 29 117 36 0 111 119 113 5.26 4.99 0 18 111 12 0 120 1
08 115 117 29 119 35 0 116 0 117 5.26 0 0 18 116 7 0 121 112 0 119 17 121 122 11
0 123 116 124 125 15 122 29 0 110 126 0 17 110 122 127 121 108 128 129 17 123 12
2 121 127 112 101 130 17 124 131 132 133 112 121 125 16 125 9 0 121 134 135 136
 16 134 11 0 114 137 125 138 16 135 3 0 139 125 0 140 30 136 39 0 125 0 140 0 +2
.63 0 0 1 0 0 30 140 40 0 135 136 141 0 +5.26 2.495 0 0 1 0 30 141 41 0 137 140
 138 0 +2.63 4.99 0 -1 0 0 16 137 13 0 118 129 134 141 30 138 42 0 134 141 142 0
 +0 2.495 0 0 -1 0 30 142 47 0 129 138 143 0 +5.26 0 0 0 0 1 16 129 15 0 110 144
 137 142 30 143 48 0 144 142 145 0 +5.26 4.99 0 0 0 1 16 144 17 0 107 146 129 14
3 30 145 49 0 146 143 147 0 +0 4.99 0 0 0 1 16 146 19 0 104 130 144 145 30 147 5
0 0 130 145 148 0 +0 0 0 0 0 1 16 130 21 0 101 149 146 147 30 148 56 0 149 147 1
50 0 +5.26 2.495 1.5 0 -1 0 16 149 22 0 151 152 130 148 30 150 57 0 152 148 153
 0 +2.63 4.99 1.5 1 0 0 16 152 25 0 154 155 149 150 30 153 58 0 155 150 156 0 +0
 2.495 1.5 0 1 0 16 155 28 0 157 158 152 153 30 156 59 0 158 153 159 0 +2.63 0 1
.5 -1 0 0 16 158 31 0 127 160 155 156 30 159 67 0 160 156 161 0 +5.26 2.495 0 0
 1 0 16 160 65 0 120 162 158 159 30 161 75 0 162 159 163 0 +5.26 2.495 .5 0 -1 0
 16 162 73 0 164 165 160 161 30 163 227 0 165 161 166 0 +4.51 1.04 0 1 0 0 16 16
5 161 0 83 167 162 163 30 166 226 0 167 163 168 0 +3.26 1.04 0 0 0 -1 16 167 160
 0 169 170 165 166 30 168 223 0 170 166 171 0 +4.51 3.95 .5 1 0 0 16 170 157 0 8
0 172 167 168 31 171 220 0 172 168 173 0 +3.26 3.45 .5 0 0 1 .5 16 172 154 0 174
 175 170 171 31 173 212 0 175 171 176 0 +3.26 1.54 0 0 0 -1 .5 16 175 146 0 177
 178 172 173 30 176 208 0 178 173 179 0 +3.26 3.95 0 0 0 1 16 178 142 0 180 181
 175 176 30 179 203 0 181 176 182 0 +4.51 1.04 .5 -1 0 0 16 181 137 0 183 184 17
8 179 30 182 202 0 184 179 185 0 +5.26 1.04 0 0 0 -1 16 184 136 0 186 187 181 18
2 30 185 199 0 187 182 188 0 +4.51 3.95 0 -1 0 0 16 187 133 0 86 189 184 185 30
 188 197 0 189 185 190 0 +5.26 3.95 0 0 0 1 16 189 131 0 191 192 187 188 31 190
 256 0 192 188 193 0 +3.26 3.45 0 0 0 -1 .5 16 192 254 0 194 195 189 190 31 193
 285 0 195 190 196 0 +3.26 1.54 .5 0 0 1 .5 16 195 283 0 197 198 192 193 30 196
 318 0 198 193 199 0 +2.771149307047645 1.435 0 0 0 1 16 198 316 0 200 201 195 1
96 30 199 475 0 201 196 202 0 +1.76 1.435 1.24 -1 0 0 16 201 393 0 203 204 198 1
99 30 202 474 0 204 199 205 0 +1.76 1.435 0 1 0 0 16 204 392 0 74 206 201 202 30
 205 473 0 206 202 207 0 +.56 1.435 0 0 0 -1 16 206 391 0 208 209 204 205 30 207
 471 0 209 205 210 0 +3.26 2.495 1.24 0 -1 0 16 209 389 0 211 212 206 207 30 210
 470 0 212 207 213 0 +1.76 3.555 1.24 1 0 0 16 212 388 0 214 215 209 210 30 213
 469 0 215 210 216 0 +.26 2.495 1.24 0 1 0 16 215 387 0 217 218 212 213 31 216 4
68 0 218 213 219 0 +.56 1.735 1.24 0 0 1 .3 16 218 386 0 220 221 215 216 31 219
 467 0 221 216 222 0 +.56 3.255 1.24 0 0 1 .3 16 221 385 0 223 224 218 219 31 22
2 466 0 224 219 225 0 +2.96 3.255 1.24 0 0 1 .3 16 224 384 0 226 227 221 222 31
 225 465 0 227 222 228 0 +2.96 1.735 1.24 0 0 1 .3 16 227 383 0 229 230 224 225
 30 228 462 0 230 225 231 0 +3.26 1.735 0 0 0 -1 16 230 380 0 232 233 227 228 30
 231 461 0 233 228 234 0 +.26 2.495 0 0 -1 0 16 233 379 0 41 235 230 231 31 234
 459 0 235 231 236 0 +.56 1.735 0 0 0 -1 .3 16 235 377 0 237 238 233 234 31 236
 458 0 238 234 239 0 +.56 3.255 0 0 0 -1 .3 16 238 376 0 240 241 235 236 30 239
 455 0 241 236 242 0 +.56 3.555 0 0 0 1 16 241 373 0 243 244 238 239 30 242 454
 0 244 239 245 0 +2.96 3.555 0 0 0 -1 16 244 372 0 246 247 241 242 30 245 453 0
 247 242 248 0 +.26 1.735 0 0 0 1 16 247 371 0 249 250 244 245 30 248 452 0 250
 245 251 0 +.26 3.255 0 0 0 -1 16 250 370 0 252 253 247 248 30 251 450 0 253 248
 254 0 +2.96 1.435 0 0 0 1 16 253 368 0 255 256 250 251 30 254 449 0 256 251 257
 0 +4.51 1.435 .5 1 0 0 16 256 367 0 35 258 253 254 30 257 446 0 258 254 259 0 +
1.76 3.555 0 -1 0 0 16 258 364 0 38 260 256 257 30 259 445 0 260 257 261 0 +4.51
 3.555 .5 -1 0 0 16 260 363 0 24 262 258 259 30 261 444 0 262 259 263 0 -2.77114
9307047645 3.555 0 0 0 1 16 262 362 0 27 264 260 261 30 263 442 0 264 261 265 0
 +3.26 3.255 0 0 0 1 16 264 360 0 266 267 262 263 30 265 441 0 267 263 18 0 +3.2
6 2.495 .5 0 1 0 16 267 359 0 15 14 264 265 31 18 440 0 14 265 9 0 +2.96 1.735 .
5 0 0 1 .3 16 14 358 0 21 6 267 18 17 21 268 15 35 16 269 14 15 268 128 0 13 270
 0 17 15 268 13 21 7 271 267 17 35 268 21 272 33 32 256 17 269 273 255 232 33 21
 14 15 273 327 0 255 11 0 17 255 273 229 269 69 274 253 17 232 273 269 229 16 59
 230 17 229 273 232 255 57 71 227 17 59 275 276 271 57 232 230 15 275 329 0 59 2
77 0 17 276 275 278 59 60 211 209 17 271 275 59 278 16 15 267 17 278 275 271 276
 7 266 264 17 266 12 226 279 60 278 264 15 12 325 0 266 5 0 17 226 12 246 266 51
 62 224 17 279 12 266 246 7 13 6 17 246 12 279 226 28 53 244 17 13 268 24 15 28
 279 6 17 24 268 89 13 22 280 260 17 89 268 80 24 87 174 172 17 280 281 53 282 2
8 24 260 15 281 331 0 280 283 0 17 53 281 284 280 51 246 244 17 282 281 280 285
 22 27 262 17 285 281 282 286 25 38 258 17 27 287 194 174 25 282 262 15 287 114
 0 174 288 0 17 194 287 180 27 84 289 192 17 174 287 27 180 22 89 172 17 180 287
 174 194 87 290 178 17 290 291 292 293 84 180 178 15 291 122 0 191 294 0 17 292
 291 191 290 75 86 187 17 293 291 290 191 87 80 170 17 191 291 293 292 78 77 189
 17 80 268 164 89 78 293 170 17 164 268 183 80 96 295 162 17 183 268 272 164 93
 296 181 17 295 297 77 98 78 164 162 15 297 77 0 77 298 0 17 77 297 120 295 75 1
91 189 17 98 297 295 139 96 186 184 17 139 297 98 128 81 133 135 17 186 299 300
 296 81 98 184 15 299 130 0 186 301 0 17 300 299 95 186 90 83 165 17 296 299 186
 95 96 183 181 17 95 299 296 300 93 169 167 17 169 302 177 197 90 95 167 15 302
 112 0 177 303 0 17 177 302 200 169 72 92 175 17 197 302 169 200 93 272 195 17 2
00 302 197 177 30 304 198 17 272 268 35 183 30 197 195 17 304 305 306 32 72 200
 198 15 305 333 0 306 307 0 17 306 305 68 304 63 74 204 17 32 305 304 274 30 35
 256 17 274 305 32 308 33 255 253 17 308 305 274 68 69 203 201 17 68 305 308 306
 66 208 206 17 203 309 50 71 66 308 201 15 309 351 0 203 310 0 17 50 309 217 203
 48 220 218 17 71 309 203 211 69 229 227 17 211 309 71 62 57 276 209 17 62 309 2
11 214 60 226 224 17 214 309 62 56 51 284 212 17 56 309 214 217 54 223 221 17 28
4 281 286 53 54 214 212 17 286 281 285 284 36 243 241 17 243 311 223 240 54 286
 241 15 311 337 0 240 312 0 17 223 311 252 243 45 56 221 17 240 311 243 252 36 4
4 238 17 252 311 240 223 42 47 250 17 44 131 41 38 42 240 238 15 131 278 0 38 31
3 0 17 41 131 65 44 39 314 233 17 38 131 44 289 36 285 258 17 289 131 38 86 25 1
94 192 17 86 131 289 315 84 292 187 17 315 131 86 316 75 120 160 17 316 131 315
 132 111 118 137 17 120 297 107 77 111 315 160 17 107 297 151 120 105 317 144 17
 151 297 128 107 108 318 149 17 317 319 118 154 111 107 144 15 319 23 0 104 320
 0 17 118 319 104 317 115 316 137 17 154 319 317 104 105 321 152 17 104 319 154
 118 102 322 146 17 321 323 324 318 102 154 152 15 323 32 0 325 326 0 17 324 323
 325 321 99 157 155 17 318 323 321 325 105 151 149 17 325 323 318 324 108 127 15
8 17 127 122 123 110 99 325 158 17 157 327 322 101 102 324 155 15 327 26 0 101 3
28 0 17 322 327 114 157 115 104 146 17 101 327 157 114 99 123 130 17 114 327 101
 322 112 132 134 17 132 131 316 124 115 114 134 14 328 27 0 320 126 327 4 329 +1
4 320 24 0 313 328 319 4 330 +14 126 30 0 328 326 122 4 331 +50 329 45 0 328 330
 331 0 +0 2.495 0 -1 0 0 50 330 44 0 320 332 329 0 +2.63 4.99 0 0 1 0 50 331 46
 0 126 329 333 0 +2.63 0 0 0 -1 0 50 333 51 0 326 331 334 0 +2.63 2.495 1.5 0 0
 1 14 326 33 0 126 301 323 4 333 +50 334 196 0 301 333 335 0 +4.51 1.04 0 0 -1 0
 14 301 129 0 326 270 299 4 334 -50 335 195 0 270 334 336 0 +4.51 2.495 .5 0 0 1
 14 270 127 0 301 294 268 4 335 -50 336 192 0 294 335 337 0 +4.51 3.95 0 0 1 0 1
4 294 121 0 270 288 291 4 336 -51 337 188 0 288 336 338 0 +3.26 3.45 0 0 0 1 .5
 14 288 113 0 294 303 287 4 337 -51 338 187 0 303 337 339 0 +3.26 1.54 0 0 0 1 .
5 14 303 111 0 288 310 302 4 338 -50 339 434 0 310 338 340 0 +1.76 2.495 1.24 0
 0 1 14 310 350 0 303 341 309 4 339 -50 340 430 0 341 339 342 0 +.26 2.495 0 -1
 0 0 14 341 342 0 310 312 343 4 340 -51 342 427 0 312 340 344 0 +.56 3.255 0 0 0
 1 .3 14 312 336 0 341 345 311 4 342 -51 344 426 0 345 342 346 0 +.56 1.735 0 0
 0 1 .3 14 345 334 0 312 307 347 4 344 -50 346 425 0 307 344 348 0 +1.76 1.435 0
 0 -1 0 14 307 332 0 345 283 305 4 346 -50 348 424 0 283 346 349 0 +1.76 3.555 0
 0 1 0 14 283 330 0 307 277 281 4 348 -50 349 423 0 277 348 17 0 +3.26 2.495 0 1
 0 0 14 277 328 0 283 11 275 4 349 -51 17 422 0 11 349 8 0 +2.96 1.735 0 0 0 1 .
3 14 11 326 0 277 5 273 4 17 -15 347 335 0 237 345 0 17 237 347 249 208 39 65 23
5 17 249 347 220 237 48 350 247 17 208 347 237 220 63 68 206 17 65 131 74 41 63
 237 235 17 74 131 92 65 72 306 204 17 92 131 83 74 90 177 175 17 83 131 133 92
 81 300 165 17 133 131 124 83 116 139 135 17 220 347 208 249 66 50 218 17 350 34
3 314 351 39 249 247 15 343 343 0 351 341 0 17 314 343 47 350 42 41 233 17 351 3
43 350 47 48 217 215 17 47 343 351 314 45 252 250 17 217 309 56 50 45 351 215 50
 332 43 0 298 352 330 0 +5.26 2.495 0 1 0 0 14 298 1 0 0 313 297 4 332 +50 352 3
4 0 313 0 332 0 +2.63 2.495 0 0 0 -1 14 313 6 0 298 320 131 4 352 +17 128 297 13
9 151 116 110 129 1 0 
