**ABCDEFGHIJKLMNOPQRSTUVWXYZabcdefghijklmnopqrstuvwxyz**************************
**PARASOLID !"#$%&'()*+,-./:;<=>?@[\]^_`{|}~0123456789**************************
**PART1;MC=sun;MC_MODEL=Sun-3;MC_ID=unknown;OS=SunOS;OS_RELEASE=unknown;FRU=sdl_
parasolid_test_sun;APPL=unknown;SITE=sdl-cambridge-u.k.;USER=kramer;FORMAT=text;
GUISE=transmit;KEY=rectangular_pocket6;FILE=rectangular_pocket6.xmt_txt;DATE=16-
oct-1990;
**PART2;SCH=SCH_210_1012;USFLD_SIZE=0;
**PART3;
**END_OF_HEADER*****************************************************************
T47 : TRANSMIT FILE created by modeller version 22012 SCH_210_10120 12 1 222 0 0
 0 0 0 1e3 1e-8 2 2 0 3 0 1 4 102 19 2 rectangular_pocket613 4 2 0 1 0 5 6 7 8 9
 10 14 5 203 0 11 0 12 4 8 +16 6 167 0 13 0 14 9 18 7 134 0 15 0 16 10 51 8 219
 0 5 17 0 0 +3.26 3.895 .48 0 0 1 .5 30 9 169 0 6 18 0 0 +2.76 3.895 .48 0 0 -1
 29 10 136 0 7 19 0 2.76 1.095 .48 29 19 132 0 16 20 10 2.76 3.895 .48 18 16 130
 0 21 7 22 19 29 20 114 0 22 23 19 3.76 3.895 .48 18 22 112 0 24 16 25 20 29 23
 110 0 25 26 20 3.76 1.095 .48 18 25 108 0 27 22 28 23 29 26 86 0 28 29 23 2.76
 3.895 1.5 18 28 84 0 30 25 31 26 29 29 82 0 31 32 26 2.76 1.095 1.5 18 31 80 0
 33 28 34 29 29 32 74 0 34 35 29 3.76 1.095 1.5 18 34 72 0 36 31 37 32 29 35 70
 0 37 0 32 3.76 3.895 1.5 18 37 68 0 38 34 0 35 17 38 12 24 30 37 39 40 15 12 20
4 0 21 5 0 17 24 12 21 38 22 41 42 17 30 12 38 21 28 13 6 17 39 43 44 45 28 38 4
0 16 40 103 0 39 46 47 48 16 46 109 0 49 42 40 50 16 47 88 0 51 40 52 53 31 48 1
05 0 40 53 50 0 +3.26 3.895 1.5 0 0 1 .5 31 53 90 0 47 54 48 0 +3.26 1.095 1.5 0
 0 1 .5 30 50 111 0 46 48 55 0 +3.76 2.495 .48 0 1 0 30 55 118 0 42 50 56 0 +3.7
6 3.895 .48 0 0 1 16 42 116 0 41 57 46 55 30 56 123 0 57 55 58 0 +3.76 1.095 .48
 0 0 -1 16 57 121 0 59 60 42 56 30 58 133 0 60 56 61 0 +2.76 2.495 .48 0 -1 0 16
 60 131 0 62 63 57 58 31 61 149 0 63 58 64 0 +3.26 1.095 .48 0 0 -1 .5 16 63 147
 0 65 66 60 61 31 64 154 0 66 61 18 0 +3.26 3.895 .48 0 0 -1 .5 16 66 152 0 67 1
4 63 64 30 18 164 0 14 64 9 0 +2.76 1.095 .48 0 0 1 16 14 162 0 68 6 66 18 17 68
 69 70 62 31 15 14 15 69 26 0 70 71 0 17 70 69 13 68 28 44 52 17 62 69 68 13 7 7
2 60 17 15 73 27 33 7 68 14 15 73 179 0 27 11 0 17 27 73 36 15 25 65 63 17 33 73
 15 36 31 51 47 17 36 73 33 27 34 59 57 17 51 43 45 44 34 33 47 15 43 32 0 45 74
 0 17 45 43 39 51 37 75 76 17 44 43 51 39 31 70 52 16 52 81 0 70 47 76 54 16 76
 69 0 75 52 0 77 30 54 83 0 52 77 53 0 +2.76 2.495 1.5 0 1 0 30 77 71 0 76 0 54
 0 +3.76 2.495 1.5 0 -1 0 17 75 78 59 41 34 45 76 15 78 4 0 75 79 0 17 59 78 49
 75 25 36 57 17 41 78 75 49 37 24 42 17 49 78 41 59 22 80 46 17 80 81 65 67 25 4
9 46 15 81 5 0 67 82 0 17 65 81 72 80 7 27 63 17 67 81 80 72 22 21 66 17 72 81 6
7 65 16 62 60 17 21 12 30 24 16 67 66 14 82 160 0 79 71 81 4 83 +14 79 124 0 74
 82 78 4 84 +14 71 170 0 82 11 69 4 85 +50 83 161 0 82 84 85 0 +3.26 2.495 .48 0
 0 -1 50 84 125 0 79 86 83 0 +3.76 2.495 .48 1 0 0 50 85 171 0 71 83 17 0 +2.76
 2.495 .48 -1 0 0 51 17 194 0 11 85 8 0 +3.26 1.095 .48 0 0 1 .5 14 11 178 0 71
 5 73 4 17 +50 86 107 0 74 0 84 0 +3.26 2.495 1.5 0 0 1 14 74 106 0 0 79 43 4 86
 +17 13 69 62 70 16 30 6 1 0 
