**ABCDEFGHIJKLMNOPQRSTUVWXYZabcdefghijklmnopqrstuvwxyz**************************
**PARASOLID !"#$%&'()*+,-./:;<=>?@[\]^_`{|}~0123456789**************************
**PART1;MC=sun;MC_MODEL=Sun-3;MC_ID=unknown;OS=SunOS;OS_RELEASE=unknown;FRU=sdl_
parasolid_test_sun;APPL=unknown;SITE=sdl-cambridge-u.k.;USER=kramer;FORMAT=text;
GUISE=transmit;KEY=removed_2;FILE=removed_2.xmt_txt;DATE=16-oct-1990;
**PART2;SCH=SCH_210_1012;USFLD_SIZE=0;
**PART3;
**END_OF_HEADER*****************************************************************
T47 : TRANSMIT FILE created by modeller version 22012 SCH_210_10120 12 1 551 0 0
 0 0 0 1e3 1e-8 2 2 0 3 0 1 4 102 9 2 removed_213 4 2 0 1 0 5 6 7 8 9 10 14 5 34
8 0 11 0 12 4 8 -16 6 373 0 13 0 14 9 18 7 423 0 15 0 16 10 51 8 454 0 5 17 0 0
 +3.26 1.54 0 0 0 1 .5 30 9 467 0 6 18 0 0 -2.771149307047645 1.435 0 0 0 1 29 1
0 517 0 7 19 0 2.771149307047645 1.435 .5 29 19 530 0 16 20 10 2.76 3.45 .5 18 1
6 436 0 21 7 22 19 29 20 531 0 22 23 19 2.76 1.54 .5 18 22 437 0 24 16 25 20 29
 23 322 0 25 26 20 2.771149307047645 3.555 .5 18 25 320 0 27 22 28 23 29 26 318
 0 28 29 23 2.96 3.555 .5 18 28 316 0 30 25 31 26 29 29 307 0 31 32 26 2.76 3.45
 0 18 31 305 0 33 28 34 29 29 32 304 0 34 35 29 2.76 1.54 0 18 34 302 0 36 31 37
 32 29 35 300 0 37 38 32 2.771149307047645 3.555 0 18 37 298 0 39 34 40 35 29 38
 291 0 40 41 35 3.26 3.255 .5 18 40 289 0 42 37 43 38 29 41 287 0 43 44 38 3.26
 1.735 .5 18 43 285 0 45 40 46 41 29 44 274 0 46 47 41 2.96 1.435 .5 18 46 272 0
 48 43 49 44 29 47 270 0 49 50 44 2.771149307047645 1.435 0 18 49 268 0 51 46 52
 47 29 50 166 0 52 53 47 .56 3.555 0 18 52 164 0 54 49 55 50 29 53 158 0 55 56 5
0 .26 1.735 0 18 55 156 0 57 52 58 53 29 56 154 0 58 59 53 .26 3.255 0 18 58 152
 0 60 55 61 56 29 59 112 0 61 62 56 .26 3.255 1.24 18 61 110 0 63 58 64 59 29 62
 108 0 64 65 59 .26 1.735 1.24 18 64 106 0 66 61 67 62 29 65 104 0 67 68 62 2.96
 3.555 1.24 18 67 102 0 69 64 70 65 29 68 100 0 70 71 65 .56 3.555 1.24 18 70 98
 0 72 67 73 68 29 71 96 0 73 74 68 3.26 1.735 1.24 18 73 94 0 75 70 76 71 29 74
 92 0 76 77 71 3.26 3.255 1.24 18 76 90 0 78 73 79 74 29 77 74 0 79 80 74 .56 1.
435 0 18 79 72 0 81 76 82 77 29 80 70 0 82 83 77 .56 1.435 1.24 18 82 68 0 84 79
 85 80 29 83 66 0 85 0 80 2.96 1.435 1.24 18 85 64 0 86 82 0 83 17 86 87 88 75 8
5 89 90 15 87 330 0 91 92 0 17 88 87 91 86 46 93 94 17 75 87 86 91 73 95 96 17 8
9 97 98 99 73 86 90 16 90 129 0 89 96 100 101 16 96 147 0 95 102 90 103 16 100 1
24 0 104 90 105 106 31 101 131 0 90 106 103 0 +2.96 1.735 1.24 0 0 1 .3 31 106 1
26 0 100 107 101 0 +2.96 3.255 1.24 0 0 1 .3 30 103 149 0 96 101 108 0 +3.26 1.7
35 0 0 0 -1 30 108 155 0 102 103 109 0 +.26 2.495 0 0 -1 0 16 102 153 0 110 111
 96 108 31 109 170 0 111 108 112 0 +.56 1.735 0 0 0 -1 .3 16 111 168 0 113 114 1
02 109 31 112 175 0 114 109 115 0 +.56 3.255 0 0 0 -1 .3 16 114 173 0 116 117 11
1 112 30 115 190 0 117 112 118 0 +.56 3.555 0 0 0 1 16 117 188 0 119 120 114 115
 30 118 195 0 120 115 121 0 +2.96 3.555 0 0 0 -1 16 120 193 0 122 123 117 118 30
 121 200 0 123 118 124 0 +.26 1.735 0 0 0 1 16 123 198 0 125 126 120 121 30 124
 205 0 126 121 127 0 +.26 3.255 0 0 0 -1 16 126 203 0 128 94 123 124 30 127 275
 0 94 124 129 0 +2.96 1.435 0 0 0 1 16 94 273 0 93 130 126 127 30 129 279 0 130
 127 131 0 +1.76 1.435 .5 -1 0 0 16 130 277 0 15 132 94 129 30 131 292 0 132 129
 133 0 +3.26 3.255 0 0 0 1 16 132 290 0 134 135 130 131 30 133 295 0 135 131 136
 0 +3.26 2.495 .5 0 -1 0 16 135 293 0 45 137 132 133 30 136 301 0 137 133 138 0
 +1.76 3.555 0 -1 0 0 16 137 299 0 139 140 135 136 30 138 308 0 140 136 141 0 +2
.76 2.495 0 0 1 0 16 140 306 0 33 142 137 138 31 141 310 0 142 138 143 0 +3.26 3
.45 0 0 0 -1 .5 16 142 309 0 39 144 140 141 31 143 313 0 144 141 145 0 +3.26 1.5
4 0 0 0 -1 .5 16 144 311 0 36 146 142 143 30 145 323 0 146 143 147 0 +1.76 3.555
 .5 1 0 0 16 146 321 0 30 148 144 145 30 147 326 0 148 145 149 0 +2.771149307047
645 3.555 0 0 0 1 16 148 324 0 27 150 146 147 31 149 331 0 150 147 151 0 -2.96 1
.735 .5 0 0 1 .3 16 150 329 0 48 152 148 149 31 151 336 0 152 149 153 0 -2.96 3.
255 .5 0 0 1 .3 16 152 334 0 42 154 150 151 30 153 494 0 154 151 155 0 +2.76 2.4
95 .5 0 1 0 16 154 400 0 156 157 152 153 31 155 493 0 157 153 158 0 +3.26 1.54 .
5 0 0 1 .5 16 157 399 0 159 160 154 155 30 158 487 0 160 155 161 0 +2.76 1.54 0
 0 0 1 16 160 393 0 162 163 157 158 30 161 486 0 163 158 18 0 +2.76 3.45 0 0 0 -
1 16 163 392 0 164 14 160 161 31 18 473 0 14 161 9 0 +3.26 3.45 .5 0 0 1 .5 16 1
4 379 0 165 6 163 18 17 165 166 164 27 16 167 14 15 166 351 0 39 11 0 17 164 166
 39 165 31 21 163 17 27 166 165 39 25 168 148 17 167 169 30 156 25 165 14 15 169
 357 0 167 170 0 17 30 169 42 167 28 171 146 17 156 169 167 24 16 172 154 17 24
 169 156 15 22 159 157 17 172 173 174 21 22 156 154 15 173 353 0 172 175 0 17 17
4 173 33 172 34 162 160 17 21 173 172 33 16 164 163 17 33 173 21 174 31 176 140
 17 176 177 178 179 34 33 140 15 177 312 0 178 180 0 17 178 177 181 176 49 36 14
4 17 179 177 176 182 31 39 142 17 182 177 179 116 37 139 137 17 39 166 27 164 37
 179 142 17 116 177 182 183 52 60 114 17 139 184 119 168 52 182 137 15 184 325 0
 168 185 0 17 119 184 186 139 70 54 117 17 168 184 139 171 37 27 148 17 171 184
 168 122 25 30 146 17 122 184 171 186 28 69 120 17 186 184 122 119 67 187 188 17
 69 189 78 190 67 122 120 15 189 335 0 190 191 0 17 78 189 192 69 76 104 100 17
 190 189 69 192 28 42 152 17 192 189 190 78 40 134 132 17 42 169 45 30 40 190 15
2 17 45 169 48 42 43 193 135 17 48 169 15 45 46 91 150 17 193 194 134 95 40 45 1
35 15 194 294 0 193 195 0 17 134 194 196 193 76 192 132 17 95 194 193 196 43 75
 96 17 196 194 95 134 73 98 197 17 98 97 104 89 76 196 197 16 197 91 0 196 188 1
98 199 16 188 99 0 186 200 197 201 16 198 80 0 202 197 203 204 30 199 93 0 197 2
04 201 0 +3.26 2.495 1.24 0 -1 0 30 204 82 0 198 205 199 0 +.56 1.435 0 0 0 -1 3
0 201 101 0 188 199 206 0 +1.76 3.555 1.24 1 0 0 30 206 109 0 200 201 207 0 +.26
 2.495 1.24 0 1 0 16 200 107 0 208 209 188 206 31 207 116 0 209 206 107 0 +.56 1
.735 1.24 0 0 1 .3 16 209 114 0 210 105 200 207 31 107 121 0 105 207 106 0 +.56
 3.255 1.24 0 0 1 .3 16 105 119 0 211 100 209 107 17 211 97 212 187 61 72 105 15
 97 32 0 99 213 0 17 212 97 210 211 64 208 200 17 187 97 211 104 70 186 188 17 7
2 214 54 63 70 211 105 15 214 242 0 60 215 0 17 54 214 60 72 52 119 117 17 63 21
4 72 60 61 128 126 17 60 214 63 54 58 116 114 17 128 216 110 208 58 63 126 15 21
6 26 0 208 217 0 17 110 216 125 128 55 183 102 17 208 216 128 125 61 212 200 17
 125 216 208 110 64 57 123 17 57 218 81 66 55 125 123 15 218 257 0 81 219 0 17 8
1 218 84 57 79 113 111 17 66 218 57 84 64 210 209 17 84 218 66 81 82 202 198 17
 210 97 99 212 82 66 209 17 99 97 89 210 85 220 221 17 220 222 202 93 82 99 221
 16 221 65 0 220 203 0 223 16 203 73 0 51 198 221 205 30 223 67 0 221 0 205 0 +1
.76 1.435 1.24 -1 0 0 30 205 75 0 203 223 204 0 +1.76 1.435 0 1 0 0 17 51 222 22
4 202 49 181 203 15 222 281 0 224 225 0 17 224 222 226 51 7 13 6 17 202 222 51 2
20 79 84 198 17 181 177 113 178 79 51 203 17 113 177 183 181 55 81 111 17 183 17
7 116 113 58 110 102 17 226 222 93 224 46 15 130 17 13 12 36 159 49 224 6 15 12
 349 0 159 5 0 17 36 12 162 13 34 178 144 17 159 12 13 162 7 24 157 17 162 12 15
9 36 22 174 160 17 93 222 220 226 85 88 94 17 15 169 24 48 7 226 130 14 225 88 0
 0 213 222 4 227 +14 213 132 0 225 195 97 4 228 +50 227 89 0 225 0 228 0 +1.76 1
.435 0 0 -1 0 50 228 133 0 213 227 229 0 +1.76 2.495 1.24 0 0 1 50 229 151 0 195
 228 230 0 +3.26 2.495 0 1 0 0 14 195 150 0 213 180 194 4 229 +50 230 187 0 180
 229 231 0 +1.76 2.495 0 0 0 -1 14 180 186 0 195 185 177 4 230 +50 231 197 0 185
 230 232 0 +1.76 3.555 0 0 1 0 14 185 196 0 180 217 184 4 231 +50 232 207 0 217
 231 233 0 +.26 2.495 0 -1 0 0 14 217 206 0 185 92 216 4 232 +51 233 221 0 92 23
2 234 0 +2.96 1.735 0 0 0 1 .3 14 92 211 0 217 191 87 4 233 +51 234 236 0 191 23
3 235 0 +2.96 3.255 0 0 0 1 .3 14 191 226 0 92 215 189 4 234 +51 235 251 0 215 2
34 236 0 +.56 3.255 0 0 0 1 .3 14 215 241 0 191 219 214 4 235 +51 236 266 0 219
 235 237 0 +.56 1.735 0 0 0 1 .3 14 219 256 0 215 170 218 4 236 +50 237 458 0 17
0 236 238 0 +4.51 2.495 .5 0 0 1 14 170 356 0 219 175 169 4 237 -50 238 456 0 17
5 237 17 0 +2.76 2.495 0 -1 0 0 14 175 352 0 170 11 173 4 238 -51 17 455 0 11 23
8 8 0 +3.26 3.45 0 0 0 1 .5 14 11 350 0 175 5 166 4 17 -17 104 97 187 98 67 78 1
00 17 91 87 75 88 43 48 150 1 0 
