**ABCDEFGHIJKLMNOPQRSTUVWXYZabcdefghijklmnopqrstuvwxyz**************************
**PARASOLID !"#$%&'()*+,-./:;<=>?@[\]^_`{|}~0123456789**************************
**PART1;MC=sun;MC_MODEL=Sun-3;MC_ID=unknown;OS=SunOS;OS_RELEASE=unknown;FRU=sdl_
parasolid_test_sun;APPL=unknown;SITE=sdl-cambridge-u.k.;USER=kramer;FORMAT=text;
GUISE=transmit;KEY=removed_3;FILE=removed_3.xmt_txt;DATE=16-oct-1990;
**PART2;SCH=SCH_210_1012;USFLD_SIZE=0;
**PART3;
**END_OF_HEADER*****************************************************************
T47 : TRANSMIT FILE created by modeller version 22012 SCH_210_10120 12 1 825 0 0
 0 0 0 1e3 1e-8 2 2 0 3 0 1 4 102 9 2 removed_313 4 2 0 1 0 5 6 7 8 9 10 14 5 44
6 0 11 0 12 4 8 -16 6 489 0 13 0 14 9 18 7 586 0 15 0 16 17 51 8 640 0 5 18 0 0
 +2.96 3.255 0 0 0 1 .3 31 9 663 0 6 19 0 0 +2.96 1.735 1.24 0 0 1 .3 29 10 756
 0 20 21 0 3.06 0 .4 18 20 582 0 22 23 24 10 29 21 757 0 25 26 10 3.06 0 1.5 18
 25 583 0 27 28 23 21 29 26 758 0 24 17 21 3.06 4.99 .4 18 24 584 0 29 20 30 26
 29 17 760 0 7 31 26 5.26 1.04 .4 29 31 761 0 23 32 17 5.26 0 .4 18 23 587 0 33
 25 20 31 29 32 762 0 30 34 31 5.26 4.99 .4 18 30 588 0 35 24 36 32 29 34 764 0
 16 37 32 3.26 3.255 .5 18 16 590 0 38 7 39 34 29 37 765 0 39 40 34 3.26 1.735 .
5 18 39 591 0 41 16 42 37 29 40 778 0 42 43 37 3.26 1.735 1.24 18 42 604 0 44 39
 45 40 29 43 779 0 45 46 40 3.26 3.255 1.24 18 45 605 0 47 42 48 43 29 46 788 0
 48 49 43 3.26 3.95 .5 18 48 614 0 50 45 28 46 29 49 790 0 28 51 46 3.26 1.04 .5
 18 28 616 0 52 48 25 49 29 51 794 0 36 53 49 5.26 4.99 1.5 18 36 620 0 54 30 55
 51 29 53 410 0 55 56 51 3.06 1.081742430504416 .5 18 55 408 0 57 36 58 53 29 56
 406 0 58 59 53 3.06 1.45215728752538 .5 18 58 404 0 60 55 61 56 29 59 402 0 61
 62 56 3.06 1.45215728752538 1.24 18 61 400 0 63 58 64 59 29 62 398 0 64 65 59 3
.06 3.53784271247462 1.24 18 64 396 0 66 61 67 62 29 65 392 0 67 68 62 3.06 3.90
8257569495585 .5 18 67 390 0 69 64 70 65 29 68 389 0 70 71 65 3.06 3.53784271247
462 .5 18 70 387 0 72 67 73 68 29 71 370 0 73 74 68 3.26 3.95 .4 18 73 368 0 75
 70 76 71 29 74 361 0 76 77 71 3.26 1.04 .4 18 76 359 0 78 73 79 74 29 77 343 0
 79 80 74 3.06 1.081742430504416 .4 18 79 341 0 81 76 82 77 29 80 339 0 82 83 77
 3.06 3.908257569495585 .4 18 82 337 0 84 79 85 80 29 83 326 0 85 86 80 5.26 3.9
5 .5 18 85 324 0 87 82 88 83 29 86 322 0 88 89 83 5.26 1.04 .5 18 88 320 0 90 85
 91 86 29 89 304 0 91 92 86 5.26 3.95 .4 18 91 302 0 93 88 94 89 29 92 282 0 94
 95 89 3.06 4.99 1.5 18 94 280 0 96 91 97 92 29 95 274 0 97 0 92 5.26 0 1.5 18 9
7 272 0 98 94 0 95 17 98 99 100 101 97 102 103 15 99 32 0 101 104 0 17 100 99 96
 98 36 105 106 17 101 99 98 96 25 107 108 17 102 109 110 111 25 98 103 16 103 56
0 0 102 112 113 114 16 112 556 0 115 116 103 117 16 113 507 0 22 103 118 119 30
 114 734 0 103 120 117 0 +2.63 0 1.5 -1 0 0 30 120 414 0 121 122 114 0 +3.06 1.0
81742430504416 0 0 0 1 30 117 730 0 112 114 123 0 +3.26 1.04 0 0 0 -1 30 123 729
 0 116 117 124 0 +4.51 3.95 .5 1 0 0 16 116 555 0 125 126 112 123 31 124 728 0 1
26 123 127 0 +3.26 3.45 .5 0 0 1 .5 16 126 554 0 128 129 116 124 30 127 725 0 12
9 124 130 0 +4.51 1.04 .5 -1 0 0 16 129 551 0 131 132 126 127 30 130 715 0 132 1
27 133 0 +3.26 2.495 1.24 0 -1 0 16 132 541 0 134 135 129 130 31 133 710 0 135 1
30 136 0 +2.96 3.255 1.24 0 0 1 .3 16 135 536 0 137 138 132 133 30 136 708 0 138
 133 139 0 +3.26 1.735 0 0 0 -1 16 138 534 0 140 141 135 136 30 139 695 0 141 13
6 142 0 +3.26 3.255 0 0 0 1 16 141 521 0 143 144 138 139 30 142 694 0 144 139 14
5 0 +3.26 2.495 .5 0 1 0 16 144 520 0 38 146 141 142 31 145 692 0 146 142 147 0
 +2.96 3.255 .5 0 0 1 .3 16 146 518 0 148 149 144 145 30 147 690 0 150 145 151 0
 +5.26 4.99 0 0 0 1 16 150 516 0 54 152 153 147 30 151 685 0 153 147 154 0 +2.63
 4.99 1.5 1 0 0 16 153 511 0 155 150 121 151 30 154 684 0 152 151 119 0 +4.16 4.
99 .4 1 0 0 16 152 510 0 35 118 150 154 30 119 681 0 113 154 156 0 +4.16 0 .4 -1
 0 0 30 156 680 0 118 119 157 0 +3.06 0 .4 0 0 1 16 118 506 0 27 113 152 156 30
 157 677 0 149 156 158 0 +4.16 1.04 .4 -1 0 0 16 149 503 0 78 159 146 157 31 158
 674 0 159 157 160 0 +3.26 1.54 .5 0 0 1 .5 16 159 500 0 161 162 149 158 31 160
 673 0 162 158 19 0 +2.96 1.735 .5 0 0 1 .3 16 162 499 0 41 14 159 160 30 19 670
 0 14 160 9 0 +3.26 3.95 0 0 0 1 16 14 496 0 163 6 162 19 17 163 164 128 75 48 1
65 14 15 164 467 0 128 166 0 17 128 164 84 163 67 50 126 17 75 164 163 84 73 167
 168 17 165 169 93 170 73 163 14 15 169 469 0 165 171 0 17 93 169 87 165 91 172
 173 17 170 169 165 87 48 125 116 17 87 169 170 93 85 174 175 17 125 176 90 50 8
5 170 116 15 176 471 0 177 178 0 17 90 176 131 125 88 179 180 17 50 176 125 69 4
8 128 126 17 69 176 50 148 67 181 182 17 148 176 69 38 70 183 146 17 181 184 185
 186 70 69 182 16 182 391 0 69 187 188 189 16 187 394 0 84 190 182 191 16 188 37
7 0 192 182 168 193 30 189 393 0 182 193 191 0 +3.06 2.495 .5 0 1 0 30 193 379 0
 188 194 189 0 +3.06 4.99 .4 0 0 -1 30 191 395 0 187 189 195 0 -3.06 3.908257569
495585 0 0 0 1 30 195 399 0 190 191 196 0 -3.06 3.53784271247462 0 0 0 1 16 190
 397 0 72 197 187 195 30 196 403 0 197 195 198 0 +3.06 2.495 1.24 0 1 0 16 197 4
01 0 66 199 190 196 30 198 407 0 199 196 122 0 +3.06 1.45215728752538 0 0 0 1 16
 199 405 0 63 200 197 198 30 122 411 0 200 198 120 0 +3.06 2.495 .5 0 1 0 16 200
 409 0 60 121 199 122 17 60 176 41 177 58 201 200 16 121 412 0 57 153 200 120 17
 57 202 161 81 55 203 121 15 202 465 0 81 204 0 17 161 202 115 57 28 177 159 17
 81 202 57 115 79 205 206 17 203 184 207 201 79 57 121 15 184 413 0 203 208 0 17
 207 184 27 203 20 209 210 17 201 184 203 211 55 60 200 17 211 184 201 212 58 63
 199 17 212 184 211 185 61 66 197 17 63 213 13 214 61 211 199 15 213 449 0 214 1
1 0 17 13 213 140 63 42 215 6 17 214 213 63 140 58 41 162 17 140 213 214 13 39 4
4 138 17 41 176 38 60 39 214 162 17 38 176 148 41 16 216 144 17 216 217 44 218 3
9 38 144 15 217 451 0 44 219 0 17 44 217 220 216 42 140 138 17 218 217 216 220 1
6 143 141 17 220 217 218 44 45 134 132 17 143 12 137 183 45 218 141 15 12 447 0
 137 5 0 17 137 12 72 143 64 47 135 17 183 12 143 72 16 148 146 17 72 12 183 137
 70 185 190 17 185 184 212 181 64 72 190 17 47 221 134 66 45 137 135 15 221 463
 0 215 222 0 17 134 221 215 47 42 220 132 17 66 221 47 215 64 212 197 17 215 221
 66 134 61 13 6 14 222 462 0 204 219 221 4 223 -14 204 464 0 166 222 202 4 224 -
14 219 450 0 222 11 217 4 225 -50 223 648 0 222 224 225 0 +1.76 2.495 1.24 0 0 1
 51 224 649 0 204 226 223 0 +3.26 1.54 0 0 0 1 .5 50 225 642 0 219 223 18 0 +3.2
6 2.495 0 1 0 0 51 18 641 0 11 225 8 0 +2.96 1.735 0 0 0 1 .3 14 11 448 0 219 5
 213 4 18 -51 226 650 0 166 227 224 0 +3.26 3.45 0 0 0 1 .5 14 166 466 0 171 204
 164 4 226 -50 227 651 0 171 228 226 0 +4.51 3.95 0 0 1 0 14 171 468 0 178 166 1
69 4 227 -50 228 652 0 178 229 227 0 +4.51 2.495 .5 0 0 1 14 178 470 0 230 171 1
76 4 228 -50 229 653 0 230 231 228 0 +4.51 1.04 0 0 -1 0 14 230 472 0 232 178 23
3 4 229 -50 231 655 0 232 234 229 0 +2.63 0 0 0 -1 0 14 232 476 0 235 230 109 4
 231 +50 234 657 0 235 236 231 0 +2.63 4.99 0 0 1 0 14 235 480 0 208 232 237 4 2
34 +50 236 386 0 208 238 234 0 +3.06 2.495 .4 -1 0 0 14 208 385 0 239 235 184 4
 236 +50 238 367 0 239 240 236 0 +4.16 2.495 .4 0 0 -1 14 239 366 0 241 208 242
 4 238 +50 240 358 0 241 243 238 0 +4.16 2.495 .4 0 0 -1 14 241 357 0 244 239 24
5 4 240 +50 243 319 0 244 246 240 0 +5.26 2.495 .4 1 0 0 14 244 318 0 104 241 24
7 4 243 +50 246 293 0 104 0 243 0 +4.16 2.495 1.5 0 0 1 14 104 292 0 0 244 99 4
 246 +15 247 329 0 174 244 0 17 174 247 248 179 91 87 175 17 248 247 54 174 30 2
49 250 17 179 247 174 251 85 90 180 16 175 328 0 87 252 180 253 16 252 334 0 254
 210 175 255 16 180 325 0 90 175 256 257 30 253 330 0 175 257 255 0 +5.26 3.95 .
4 0 0 1 30 257 327 0 180 258 253 0 +5.26 2.495 .5 0 -1 0 30 255 336 0 252 253 25
9 0 +3.06 2.495 .4 0 -1 0 30 259 344 0 210 255 260 0 +3.06 2.495 .4 0 -1 0 16 21
0 342 0 207 206 252 259 31 260 365 0 206 259 261 0 +3.26 1.54 .4 0 0 -1 .5 16 20
6 363 0 81 173 210 260 30 261 371 0 173 260 194 0 +4.16 3.95 .4 1 0 0 16 173 369
 0 93 168 206 261 31 194 374 0 168 261 193 0 +3.26 3.45 .4 0 0 -1 .5 16 168 372
 0 75 188 173 194 30 258 323 0 256 262 257 0 +5.26 1.04 .4 0 0 -1 16 256 321 0 1
5 180 263 258 30 262 317 0 263 264 258 0 +5.26 0 .4 0 0 -1 16 263 315 0 33 256 2
50 262 30 264 305 0 250 265 262 0 +5.26 2.495 .4 0 1 0 16 250 303 0 248 263 266
 264 30 265 297 0 266 267 264 0 +5.26 2.495 .4 0 1 0 16 266 295 0 268 250 108 26
5 30 267 279 0 108 269 265 0 +3.06 2.495 1.5 0 1 0 16 108 277 0 107 266 106 267
 30 269 271 0 106 0 267 0 +5.26 2.495 1.5 0 -1 0 16 106 269 0 105 108 0 269 17 1
05 247 33 54 97 100 106 17 33 247 268 105 23 111 263 17 54 247 105 248 36 270 15
0 17 270 237 29 155 30 54 150 15 237 481 0 271 235 0 17 29 237 271 270 24 35 152
 17 155 237 270 271 36 96 153 17 271 237 155 29 94 192 188 17 96 99 101 100 94 1
55 153 17 192 184 254 107 24 271 188 17 254 184 186 192 82 272 252 17 107 184 19
2 27 94 101 108 17 27 184 107 207 25 110 118 17 110 109 273 102 20 27 118 15 109
 477 0 110 232 0 17 273 109 111 110 23 22 113 17 111 109 102 273 97 33 263 17 22
 245 209 274 20 273 113 15 245 364 0 205 241 0 17 209 245 205 22 79 207 210 17 2
74 245 22 275 23 268 266 17 275 245 274 205 7 78 149 17 268 247 251 33 7 274 266
 17 251 247 179 268 88 15 256 17 15 233 78 276 7 251 256 15 233 473 0 15 230 0 1
7 78 233 52 15 76 275 149 17 276 233 15 52 88 131 129 17 52 233 276 78 28 115 11
2 17 131 176 177 90 28 276 129 17 177 176 60 131 55 161 159 17 115 202 81 161 76
 52 112 17 205 245 275 209 76 81 206 17 186 184 181 254 67 84 187 17 272 242 35
 167 24 254 252 15 242 373 0 167 239 0 17 35 242 249 272 30 29 152 17 167 242 27
2 172 82 75 168 17 172 242 167 249 73 93 173 17 249 242 172 35 91 248 250 17 84
 164 75 128 82 186 187 1 0 
