**ABCDEFGHIJKLMNOPQRSTUVWXYZabcdefghijklmnopqrstuvwxyz**************************
**PARASOLID !"#$%&'()*+,-./:;<=>?@[\]^_`{|}~0123456789**************************
**PART1;MC=sun;MC_MODEL=Sun-3;MC_ID=unknown;OS=SunOS;OS_RELEASE=unknown;FRU=sdl_
parasolid_test_sun;APPL=unknown;SITE=sdl-cambridge-u.k.;USER=kramer;FORMAT=text;
GUISE=transmit;KEY=removed_4;FILE=removed_4.xmt_txt;DATE=16-oct-1990;
**PART2;SCH=SCH_210_1012;USFLD_SIZE=0;
**PART3;
**END_OF_HEADER*****************************************************************
T47 : TRANSMIT FILE created by modeller version 22012 SCH_210_10120 12 1 741 0 0
 0 0 0 1e3 1e-8 2 2 0 3 0 1 4 102 9 2 removed_413 4 2 0 1 0 5 6 7 8 9 10 14 5 36
8 0 11 0 12 4 8 -16 6 419 0 13 0 14 9 18 7 502 0 15 0 16 10 50 8 558 0 5 17 0 0
 +3.06 2.495 .4 -1 0 0 31 9 585 0 6 18 0 0 +3.26 1.54 .5 0 0 1 .5 29 10 668 0 7
 19 0 3.06 0 .48 29 19 670 0 20 21 10 0 1.175 .48 18 20 504 0 22 23 24 19 29 21
 671 0 25 26 19 0 1.175 1.5 18 25 505 0 27 16 23 21 29 26 677 0 16 28 21 3.06 1.
081742430504416 .5 18 16 511 0 29 7 25 26 29 28 711 0 23 30 26 0 0 1.5 18 23 545
 0 31 25 20 28 29 30 344 0 24 32 28 3.06 1.175 .5 18 24 342 0 33 20 34 30 29 32
 341 0 34 35 30 2.918276427503165 1.175 .5 18 34 339 0 36 24 37 32 29 35 327 0 3
7 38 32 3.06 1.081742430504416 .48 18 37 325 0 39 34 40 35 29 38 314 0 40 41 35
 2.918276427503165 1.175 .48 18 40 312 0 42 37 43 38 29 41 300 0 43 44 38 3.06 1
.175 1.5 18 43 298 0 45 40 46 41 29 44 278 0 46 47 41 3.06 0 1.5 18 46 276 0 48
 43 49 44 29 47 270 0 49 0 44 0 0 .48 18 49 268 0 50 46 0 47 17 50 51 52 53 49 5
4 55 15 51 290 0 56 57 0 17 52 51 56 50 7 58 59 17 53 51 50 56 23 60 61 17 54 62
 63 64 23 50 55 16 55 431 0 54 65 66 67 16 65 488 0 63 68 55 69 16 66 428 0 27 5
5 70 71 30 67 597 0 55 72 71 0 +0 0 0 0 0 1 30 72 603 0 68 69 67 0 -3.06 1.08174
2430504416 0 0 0 1 30 71 594 0 66 67 73 0 +0 1.175 .48 0 0 1 30 73 589 0 74 71 1
8 0 +3.06 2.495 .5 0 -1 0 16 74 423 0 29 14 68 73 30 18 588 0 14 73 9 0 +3.06 .5
875 .48 0 1 0 16 14 422 0 75 6 74 18 17 75 12 76 15 37 77 14 15 12 369 0 78 5 0
 17 76 12 78 75 16 79 68 17 15 12 75 48 7 56 80 17 77 81 58 39 7 75 14 15 81 330
 0 77 82 0 17 58 81 22 77 49 52 59 17 39 81 77 83 37 42 84 17 83 81 39 22 40 85
 86 17 42 87 36 79 40 39 84 16 84 326 0 42 88 89 90 16 88 343 0 33 91 84 92 16 8
9 320 0 22 84 86 93 31 90 328 0 84 93 92 0 +3.26 1.54 .48 0 0 -1 .5 30 93 322 0
 89 94 90 0 +0 .5875 .48 0 1 0 30 92 345 0 88 90 95 0 +1.53 1.175 .5 1 0 0 30 95
 347 0 91 92 96 0 +2.918276427503165 1.175 0 0 0 1 16 91 346 0 36 70 88 95 30 96
 350 0 70 95 69 0 +3.06 1.175 .48 0 0 1 16 70 348 0 45 66 91 96 30 69 654 0 65 9
6 72 0 +0 2.495 1.5 0 1 0 17 45 12 48 78 43 97 70 17 48 12 15 45 46 98 99 17 78
 12 45 76 24 29 74 17 97 100 101 102 24 45 70 15 100 349 0 97 103 0 17 101 100 1
04 97 34 33 88 17 102 100 97 27 43 105 106 17 27 100 102 85 25 107 66 17 105 108
 31 98 25 102 106 16 106 295 0 102 99 80 109 16 99 307 0 48 86 106 110 16 80 289
 0 15 106 61 111 30 109 297 0 106 111 110 0 +1.53 1.175 1.5 1 0 0 30 111 291 0 8
0 112 109 0 +3.06 0 .48 0 0 -1 30 110 309 0 99 109 94 0 +3.06 .5875 1.5 0 -1 0 3
0 94 315 0 86 110 93 0 +1.53 1.175 .48 -1 0 0 16 86 313 0 85 89 99 94 17 85 100
 27 104 20 83 86 17 104 100 85 101 40 36 91 17 36 87 13 42 34 104 91 15 87 395 0
 42 11 0 17 13 87 79 36 16 113 6 17 79 87 42 13 37 76 68 17 113 114 33 29 34 13
 6 15 114 401 0 113 115 0 17 33 114 29 113 24 101 88 17 29 114 113 33 16 78 74 1
4 115 400 0 116 11 114 4 117 -14 116 408 0 103 115 62 4 118 +14 11 394 0 115 5 8
7 4 17 -50 117 574 0 115 118 17 0 +4.51 2.495 .5 0 0 1 50 118 578 0 116 119 117
 0 +0 2.495 0 -1 0 0 51 17 571 0 11 117 8 0 +3.26 1.54 0 0 0 1 .5 50 119 338 0 1
03 120 118 0 +1.53 1.175 .48 0 1 0 14 103 337 0 82 116 100 4 119 +50 120 324 0 8
2 121 119 0 +1.53 .5875 .48 0 0 -1 14 82 323 0 122 103 81 4 120 +50 121 306 0 12
2 123 120 0 +1.53 .5875 1.5 0 0 1 14 122 305 0 57 82 108 4 121 +50 123 288 0 57
 0 121 0 +1.53 0 .48 0 -1 0 14 57 287 0 0 122 51 4 123 +15 108 308 0 98 122 0 17
 98 108 105 60 43 48 99 17 60 108 98 31 46 53 61 17 31 108 60 105 23 63 65 16 61
 277 0 53 80 59 112 16 59 269 0 52 61 0 124 30 112 279 0 61 124 111 0 +1.53 0 1.
5 -1 0 0 30 124 271 0 59 0 112 0 +1.53 0 .48 1 0 0 17 63 62 107 54 25 31 65 15 6
2 409 0 107 116 0 17 107 62 64 63 20 27 66 17 64 62 54 107 49 22 89 17 22 81 83
 58 20 64 89 16 68 437 0 79 74 65 72 17 56 51 53 52 46 15 80 1 0 
