**ABCDEFGHIJKLMNOPQRSTUVWXYZabcdefghijklmnopqrstuvwxyz**************************
**PARASOLID !"#$%&'()*+,-./:;<=>?@[\]^_`{|}~0123456789**************************
**PART1;MC=sun;MC_MODEL=Sun-3;MC_ID=unknown;OS=SunOS;OS_RELEASE=unknown;FRU=sdl_
parasolid_test_sun;APPL=unknown;SITE=sdl-cambridge-u.k.;USER=kramer;FORMAT=text;
GUISE=transmit;KEY=block;FILE=block.xmt_txt;DATE=21-aug-1990;
**PART2;SCH=SCH_210_1012;USFLD_SIZE=0;
**PART3;
**END_OF_HEADER*****************************************************************
T47 : TRANSMIT FILE created by modeller version 22012 SCH_210_10120 12 1 59 0 0
 0 0 0 1e3 1e-8 2 2 0 0 0 1 3 102 5 2 block13 3 2 0 1 0 4 5 6 7 8 9 14 4 33 0 10
 0 11 3 7 +16 5 31 0 12 0 13 8 18 6 20 0 14 0 15 9 50 7 51 0 4 16 0 0 +2.63 2.49
5 1.5 0 0 1 30 8 59 0 5 17 0 0 +2.63 0 1.5 -1 0 0 29 9 55 0 6 18 0 0 0 1.5 29 18
 54 0 15 19 9 0 4.99 1.5 18 15 18 0 20 6 21 18 29 19 53 0 21 22 18 5.26 4.99 1.5
 18 21 16 0 23 15 24 19 29 22 52 0 24 25 19 5.26 0 1.5 18 24 14 0 26 21 27 22 29
 25 38 0 28 29 22 0 0 0 18 28 8 0 30 31 32 25 29 29 37 0 31 33 25 0 4.99 0 18 31
 10 0 34 27 28 29 29 33 36 0 27 35 29 5.26 4.99 0 18 27 12 0 36 24 31 33 29 35 3
5 0 32 0 33 5.26 0 0 18 32 7 0 37 28 0 35 17 37 38 26 39 32 40 41 15 38 29 0 26
 10 0 17 26 38 12 37 24 42 43 17 39 38 37 12 28 14 44 17 40 45 46 47 28 37 41 16
 41 9 0 37 48 49 50 16 48 11 0 30 51 41 52 16 49 3 0 36 41 0 53 30 50 39 0 41 0
 53 0 +2.63 0 0 1 0 0 30 53 40 0 49 50 54 0 +5.26 2.495 0 0 1 0 30 54 41 0 51 53
 52 0 +2.63 4.99 0 -1 0 0 16 51 13 0 34 43 48 54 30 52 42 0 48 54 55 0 +0 2.495
 0 0 -1 0 30 55 47 0 43 52 56 0 +5.26 0 0 0 0 1 16 43 15 0 26 57 51 55 30 56 48
 0 57 55 58 0 +5.26 4.99 0 0 0 1 16 57 17 0 23 59 43 56 30 58 49 0 59 56 60 0 +0
 4.99 0 0 0 1 16 59 19 0 20 44 57 58 30 60 50 0 44 58 61 0 +0 0 0 0 0 1 16 44 21
 0 14 62 59 60 30 61 56 0 62 60 63 0 +5.26 2.495 1.5 0 -1 0 16 62 22 0 64 65 44
 61 30 63 57 0 65 61 17 0 +2.63 4.99 1.5 1 0 0 16 65 25 0 66 13 62 63 30 17 58 0
 13 63 8 0 +0 2.495 1.5 0 1 0 16 13 28 0 67 5 65 17 17 67 68 69 14 15 70 13 15 6
8 26 0 14 71 0 17 69 68 30 67 31 20 59 17 14 68 67 30 6 39 44 17 70 11 72 73 6 6
7 13 15 11 32 0 72 4 0 17 72 11 74 70 24 12 5 17 73 11 70 74 15 66 65 17 74 11 7
3 72 21 64 62 17 66 75 76 20 21 73 65 15 75 23 0 20 77 0 17 76 75 34 66 27 23 57
 17 20 75 66 34 15 69 59 17 34 75 20 76 31 78 51 17 78 45 47 46 27 34 51 15 45 5
 0 47 79 0 17 47 45 40 78 32 36 49 17 46 45 78 40 31 30 48 17 30 68 14 69 28 46
 48 17 36 80 23 42 27 47 49 15 80 4 0 36 81 0 17 23 80 64 36 21 76 57 17 42 80 3
6 64 32 26 43 17 64 80 42 23 24 74 62 14 81 1 0 0 79 80 3 82 +14 79 6 0 81 77 45
 3 83 +50 82 43 0 81 83 84 0 +5.26 2.495 0 1 0 0 50 83 34 0 79 0 82 0 +2.63 2.49
5 0 0 0 -1 50 84 44 0 77 82 85 0 +2.63 4.99 0 0 1 0 14 77 24 0 79 71 75 3 84 +50
 85 45 0 71 84 16 0 +0 2.495 0 -1 0 0 14 71 27 0 77 10 68 3 85 +50 16 46 0 10 85
 7 0 +2.63 0 0 0 -1 0 14 10 30 0 71 4 38 3 16 +17 12 38 39 26 6 72 5 1 0 
