105 859 1 0                             
body $-1 $1 $-1 $-1 #
lump $-1 $-1 $2 $0 #
shell $-1 $-1 $-1 $3 $1 #
face $-1 $4 $5 $2 $-1 $6 reversed single #
face $-1 $7 $8 $2 $-1 $9 reversed single #
loop $-1 $-1 $10 $3 #
cone-surface $-1 -45 0 20 0 0 1 5 0 0 1 0 1 0 #
face $-1 $11 $12 $2 $-1 $13 forward single #
loop $-1 $-1 $14 $4 #
cone-surface $-1 45 0 20 0 0 1 5 0 0 1 0 1 0 #
coedge $-1 $15 $16 $17 $18 1 $5 $-1 #
face $-1 $19 $20 $2 $-1 $21 forward single #
loop $-1 $22 $23 $7 #
plane-surface $-1 0 0 25 0 0 1 1 0 0 0 #
coedge $-1 $24 $25 $26 $27 1 $8 $-1 #
coedge $-1 $28 $10 $29 $30 0 $5 $-1 #
coedge $-1 $10 $28 $23 $31 1 $5 $-1 #
coedge $-1 $32 $33 $10 $18 0 $34 $-1 #
edge $-1 $35 $36 $17 $37 1 #
face $-1 $38 $34 $2 $-1 $39 forward single #
loop $-1 $-1 $40 $11 #
plane-surface $-1 0 0 15 0 0 1 1 0 0 0 #
loop $-1 $-1 $41 $7 #
coedge $-1 $42 $43 $16 $31 0 $12 $-1 #
coedge $-1 $44 $14 $45 $46 0 $8 $-1 #
coedge $-1 $14 $47 $48 $49 1 $8 $-1 #
coedge $-1 $50 $51 $14 $27 0 $52 $-1 #
edge $-1 $53 $54 $26 $55 1 #
coedge $-1 $16 $15 $56 $57 0 $5 $-1 #
coedge $-1 $58 $59 $15 $30 1 $60 $-1 #
edge $-1 $35 $61 $29 $62 0 #
edge $-1 $36 $63 $23 $64 0 #
coedge $-1 $65 $17 $43 $66 1 $34 $-1 #
coedge $-1 $17 $65 $58 $67 0 $34 $-1 #
loop $-1 $-1 $65 $19 #
vertex $-1 $67 $68 #
vertex $-1 $66 $69 #
straight-curve $-1 -45 -5 20 0 0 -1 #
face $-1 $70 $71 $2 $-1 $39 forward single #
plane-surface $-1 0 -5 20 0 1 0 0 0 1 0 #
coedge $-1 $72 $45 $51 $73 1 $20 $-1 #
coedge $-1 $74 $75 $76 $77 0 $22 $-1 #
coedge $-1 $78 $23 $79 $80 0 $12 $-1 #
coedge $-1 $23 $81 $32 $66 0 $12 $-1 #
coedge $-1 $82 $24 $83 $84 0 $8 $-1 #
coedge $-1 $40 $83 $24 $46 1 $20 $-1 #
edge $-1 $53 $85 $45 $86 0 #
coedge $-1 $25 $82 $87 $88 1 $8 $-1 #
coedge $-1 $87 $89 $25 $49 0 $12 $-1 #
edge $-1 $54 $90 $48 $91 0 #
coedge $-1 $92 $26 $89 $93 1 $52 $-1 #
coedge $-1 $26 $92 $40 $73 0 $52 $-1 #
loop $-1 $-1 $92 $94 #
vertex $-1 $73 $95 #
vertex $-1 $93 $96 #
straight-curve $-1 45 5 20 0 0 -1 #
coedge $-1 $97 $79 $28 $57 1 $98 $-1 #
edge $-1 $61 $63 $56 $99 1 #
coedge $-1 $100 $29 $33 $67 1 $60 $-1 #
coedge $-1 $29 $100 $97 $101 1 $60 $-1 #
loop $-1 $-1 $58 $102 #
vertex $-1 $101 $103 #
ellipse-curve $-1 -45 0 15 0 0 -1 5 0 0 1 #
vertex $-1 $31 $104 #
ellipse-curve $-1 -45 0 25 -0 -0 -1 5 0 0 1 #
coedge $-1 $33 $32 $105 $106 1 $34 $-1 #
edge $-1 $107 $36 $43 $108 0 #
edge $-1 $109 $35 $33 $110 0 #
point $-1 -45 -5 15 #
point $-1 -45 -5 25 #
face $-1 $102 $98 $2 $-1 $111 forward single #
loop $-1 $-1 $112 $38 #
coedge $-1 $113 $40 $114 $115 1 $20 $-1 #
edge $-1 $116 $53 $51 $117 0 #
coedge $-1 $118 $41 $119 $120 0 $22 $-1 #
coedge $-1 $41 $121 $122 $123 0 $22 $-1 #
coedge $-1 $124 $125 $41 $77 1 $126 $-1 #
edge $-1 $127 $128 $41 $129 0 #
coedge $-1 $89 $42 $130 $131 0 $12 $-1 #
coedge $-1 $56 $132 $42 $80 1 $98 $-1 #
edge $-1 $63 $133 $42 $134 0 #
coedge $-1 $43 $135 $136 $137 0 $12 $-1 #
coedge $-1 $47 $44 $138 $139 0 $8 $-1 #
coedge $-1 $45 $113 $44 $84 1 $20 $-1 #
edge $-1 $85 $140 $83 $86 0 #
vertex $-1 $46 $141 #
ellipse-curve $-1 45 0 15 0 0 -1 5 0 0 1 #
coedge $-1 $135 $48 $47 $88 0 $12 $-1 #
edge $-1 $90 $142 $87 $91 0 #
coedge $-1 $48 $78 $50 $93 0 $12 $-1 #
vertex $-1 $49 $143 #
ellipse-curve $-1 45 0 25 -0 -0 -1 5 0 0 1 #
coedge $-1 $51 $50 $144 $145 1 $52 $-1 #
edge $-1 $146 $54 $89 $134 0 #
face $-1 $147 $52 $2 $-1 $111 forward single #
point $-1 45 5 15 #
point $-1 45 5 25 #
coedge $-1 $132 $56 $59 $101 0 $98 $-1 #
loop $-1 $-1 $132 $70 #
straight-curve $-1 -45 5 20 0 0 -1 #
coedge $-1 $59 $58 $148 $149 1 $60 $-1 #
edge $-1 $61 $150 $97 $117 0 #
face $-1 $94 $60 $2 $-1 $21 forward single #
point $-1 -45 5 15 #
point $-1 -45 5 25 #
coedge $-1 $136 $148 $65 $106 0 $151 $-1 #
edge $-1 $109 $107 $105 $152 0 #
vertex $-1 $137 $153 #
straight-curve $-1 0 -5 25 -1 0 0 #
vertex $-1 $149 $154 #
straight-curve $-1 0 -5 15 -1 0 0 #
plane-surface $-1 0 5 20 0 -1 0 0 0 -1 0 #
coedge $-1 $155 $156 $157 $158 1 $71 $-1 #
coedge $-1 $83 $72 $156 $159 1 $20 $-1 #
coedge $-1 $144 $157 $72 $115 0 $151 $-1 #
edge $-1 $160 $116 $114 $161 0 #
vertex $-1 $115 $162 #
straight-curve $-1 0 5 15 1 0 0 #
coedge $-1 $163 $74 $164 $165 0 $22 $-1 #
coedge $-1 $166 $167 $74 $120 1 $168 $-1 #
edge $-1 $128 $169 $74 $170 0 #
coedge $-1 $75 $171 $172 $173 0 $22 $-1 #
coedge $-1 $174 $175 $75 $123 1 $176 $-1 #
edge $-1 $177 $127 $75 $178 0 #
coedge $-1 $179 $76 $175 $180 1 $126 $-1 #
coedge $-1 $76 $179 $166 $181 1 $126 $-1 #
loop $-1 $-1 $125 $182 #
vertex $-1 $123 $183 #
vertex $-1 $77 $184 #
ellipse-curve $-1 -25 25 25 -0 -0 -1 5 0 0 1 #
coedge $-1 $185 $144 $78 $131 1 $151 $-1 #
edge $-1 $133 $146 $78 $186 0 #
coedge $-1 $79 $97 $185 $187 1 $98 $-1 #
vertex $-1 $187 $188 #
straight-curve $-1 0 5 25 1 0 -0 #
coedge $-1 $81 $87 $155 $189 0 $12 $-1 #
coedge $-1 $157 $105 $81 $137 1 $151 $-1 #
edge $-1 $190 $107 $81 $186 0 #
coedge $-1 $156 $155 $82 $139 1 $71 $-1 #
edge $-1 $140 $142 $138 $191 1 #
vertex $-1 $139 $192 #
point $-1 50 0 15 #
vertex $-1 $189 $193 #
point $-1 50 0 25 #
coedge $-1 $130 $114 $92 $145 0 $151 $-1 #
edge $-1 $116 $146 $144 $194 0 #
vertex $-1 $131 $195 #
face $-1 $196 $151 $2 $-1 $197 reversed single #
coedge $-1 $105 $185 $100 $149 0 $151 $-1 #
edge $-1 $150 $109 $148 $198 0 #
vertex $-1 $149 $199 #
loop $-1 $200 $144 $147 #
straight-curve $-1 -8.66025403784439 -5 0 -0 -0 1 #
point $-1 -8.66025403784439 -5 25 #
point $-1 -8.66025403784439 -5 15 #
coedge $-1 $138 $112 $135 $189 1 $71 $-1 #
coedge $-1 $112 $138 $113 $159 0 $71 $-1 #
coedge $-1 $114 $136 $112 $158 0 $151 $-1 #
edge $-1 $190 $160 $157 $201 0 #
edge $-1 $140 $160 $156 $110 0 #
vertex $-1 $115 $202 #
ellipse-curve $-1 0 0 15 0 0 1 10 0 0 1 #
point $-1 8.66025403784439 5 15 #
coedge $-1 $203 $118 $204 $205 0 $22 $-1 #
coedge $-1 $206 $207 $118 $165 1 $208 $-1 #
edge $-1 $169 $209 $164 $210 0 #
coedge $-1 $211 $119 $125 $181 0 $168 $-1 #
coedge $-1 $119 $211 $206 $212 1 $168 $-1 #
loop $-1 $-1 $166 $213 #
vertex $-1 $212 $214 #
straight-curve $-1 -25 18.75 25 0 1 0 #
coedge $-1 $121 $215 $216 $217 0 $22 $-1 #
coedge $-1 $216 $218 $121 $173 1 $219 $-1 #
edge $-1 $220 $177 $121 $221 0 #
coedge $-1 $222 $122 $218 $223 0 $176 $-1 #
coedge $-1 $122 $222 $124 $180 0 $176 $-1 #
loop $-1 $224 $175 $225 #
vertex $-1 $173 $226 #
straight-curve $-1 0 25 25 -1 0 0 #
coedge $-1 $125 $124 $227 $228 1 $126 $-1 #
edge $-1 $229 $127 $175 $230 0 #
edge $-1 $128 $231 $166 $232 0 #
face $-1 $233 $126 $2 $-1 $234 reversed single #
point $-1 -20 25 25 #
point $-1 -25 30 25 #
coedge $-1 $148 $130 $132 $187 0 $151 $-1 #
ellipse-curve $-1 0 0 25 -0 -0 -1 10 0 0 1 #
edge $-1 $133 $150 $185 $235 0 #
point $-1 -8.66025403784439 5 25 #
edge $-1 $142 $190 $135 $108 0 #
vertex $-1 $158 $236 #
straight-curve $-1 45 -5 20 0 0 -1 #
point $-1 45 -5 15 #
point $-1 45 -5 25 #
straight-curve $-1 8.66025403784439 5 0 0 0 1 #
point $-1 8.66025403784439 5 25 #
face $-1 $182 $237 $2 $-1 $238 reversed single #
cone-surface $-1 0 0 0 0 0 1 10 0 0 1 0 1 0 #
ellipse-curve $-1 0 0 15 0 0 1 10 0 0 1 #
point $-1 -8.66025403784439 5 15 #
loop $-1 $239 $240 $147 #
straight-curve $-1 8.66025403784439 -5 0 -0 0 -1 #
point $-1 8.66025403784439 -5 15 #
coedge $-1 $241 $163 $242 $243 0 $22 $-1 #
coedge $-1 $244 $245 $163 $205 1 $246 $-1 #
edge $-1 $209 $247 $163 $248 0 #
coedge $-1 $249 $164 $167 $212 0 $208 $-1 #
coedge $-1 $164 $250 $244 $251 0 $208 $-1 #
loop $-1 $-1 $250 $252 #
vertex $-1 $165 $253 #
straight-curve $-1 0 50 25 -1 0 0 #
coedge $-1 $167 $166 $254 $255 1 $168 $-1 #
edge $-1 $169 $256 $206 $257 0 #
face $-1 $258 $168 $2 $-1 $259 forward single #
point $-1 -25 50 25 #
coedge $-1 $171 $260 $261 $262 0 $22 $-1 #
coedge $-1 $263 $172 $171 $217 1 $219 $-1 #
edge $-1 $264 $220 $171 $221 0 #
coedge $-1 $172 $265 $174 $223 1 $219 $-1 #
loop $-1 $-1 $218 $266 #
vertex $-1 $217 $267 #
ellipse-curve $-1 25 25 25 -0 -0 -1 5 0 0 1 #
coedge $-1 $175 $174 $268 $269 1 $176 $-1 #
edge $-1 $177 $270 $174 $271 0 #
loop $-1 $-1 $272 $225 #
face $-1 $273 $176 $2 $-1 $274 forward single #
point $-1 20 25 25 #
coedge $-1 $268 $254 $179 $228 0 $275 $-1 #
edge $-1 $231 $229 $227 $276 0 #
vertex $-1 $180 $277 #
straight-curve $-1 -20 25 0 0 0 1 #
vertex $-1 $255 $278 #
straight-curve $-1 -25 30 0 -0 -0 -1 #
face $-1 $266 $279 $2 $-1 $280 reversed single #
cone-surface $-1 -25 25 0 0 0 1 5 0 0 1 0 1 0 #
straight-curve $-1 -8.66025403784439 5 0 0 -0 -1 #
point $-1 8.66025403784439 -5 25 #
loop $-1 $281 $282 $196 #
cone-surface $-1 0 0 0 0 -1 -3.49148133884313e-15 5 0 0 1 0 1 0 #
loop $-1 $283 $284 $147 #
coedge $-1 $240 $240 $285 $286 1 $200 $-1 #
coedge $-1 $287 $203 $288 $289 0 $22 $-1 #
coedge $-1 $290 $291 $203 $243 1 $292 $-1 #
edge $-1 $247 $293 $203 $294 0 #
coedge $-1 $295 $204 $207 $251 1 $246 $-1 #
coedge $-1 $204 $295 $290 $296 1 $246 $-1 #
loop $-1 $-1 $295 $297 #
vertex $-1 $205 $298 #
straight-curve $-1 -80 12.5 25 0 -1 0 #
coedge $-1 $299 $206 $300 $301 1 $208 $-1 #
coedge $-1 $207 $302 $303 $304 0 $208 $-1 #
edge $-1 $305 $209 $207 $306 0 #
face $-1 $297 $208 $2 $-1 $307 reversed single #
point $-1 -80 50 25 #
coedge $-1 $227 $300 $211 $255 0 $275 $-1 #
edge $-1 $256 $231 $254 $308 0 #
vertex $-1 $301 $309 #
straight-curve $-1 -25 50 0 0 0 -1 #
face $-1 $252 $310 $2 $-1 $311 forward single #
plane-surface $-1 -25 37.5 0 1 0 0 0 0 -1 0 #
coedge $-1 $215 $312 $313 $314 0 $22 $-1 #
coedge $-1 $315 $316 $215 $262 1 $310 $-1 #
edge $-1 $317 $264 $215 $318 0 #
coedge $-1 $319 $216 $316 $320 1 $219 $-1 #
vertex $-1 $262 $321 #
coedge $-1 $218 $319 $322 $323 1 $219 $-1 #
face $-1 $225 $219 $2 $-1 $324 reversed single #
point $-1 30 25 25 #
coedge $-1 $322 $227 $222 $269 0 $275 $-1 #
edge $-1 $229 $270 $268 $325 0 #
vertex $-1 $269 $326 #
straight-curve $-1 20 25 0 -0 -0 -1 #
coedge $-1 $272 $272 $282 $327 0 $224 $-1 #
face $-1 $328 $329 $2 $-1 $238 reversed single #
plane-surface $-1 0 25 0 0 1 0 0 0 1 0 #
loop $-1 $-1 $227 $233 #
ellipse-curve $-1 -25 25 -25 0 0 1 5 0 0 1 #
point $-1 -20 25 -25 #
point $-1 -25 30 -25 #
loop $-1 $275 $330 $233 #
plane-surface $-1 0 0 -25 0 0 1 1 0 0 0 #
loop $-1 $-1 $331 $196 #
coedge $-1 $282 $282 $272 $327 1 $237 $-1 #
loop $-1 $-1 $332 $147 #
coedge $-1 $284 $284 $331 $333 1 $239 $-1 #
coedge $-1 $285 $285 $240 $286 0 $329 $-1 #
edge $-1 $334 $334 $285 $335 0 #
coedge $-1 $336 $241 $337 $338 0 $22 $-1 #
coedge $-1 $339 $340 $241 $289 1 $341 $-1 #
edge $-1 $293 $342 $241 $343 0 #
coedge $-1 $344 $242 $245 $296 0 $292 $-1 #
coedge $-1 $242 $345 $339 $346 1 $292 $-1 #
loop $-1 $-1 $344 $347 #
vertex $-1 $243 $348 #
straight-curve $-1 -47.5 0 25 1 0 -0 #
coedge $-1 $245 $244 $349 $350 0 $246 $-1 #
edge $-1 $247 $351 $290 $352 0 #
face $-1 $353 $246 $2 $-1 $354 forward single #
point $-1 -80 0 25 #
coedge $-1 $355 $249 $356 $357 1 $208 $-1 #
coedge $-1 $254 $358 $249 $301 0 $275 $-1 #
edge $-1 $359 $256 $249 $360 0 #
coedge $-1 $250 $361 $362 $363 0 $208 $-1 #
coedge $-1 $362 $349 $250 $304 1 $364 $-1 #
edge $-1 $365 $305 $250 $366 0 #
vertex $-1 $304 $367 #
straight-curve $-1 -80 50 6.25 0 0 1 #
plane-surface $-1 0 50 0 0 -1 0 0 0 -1 0 #
straight-curve $-1 -25 18.75 -25 0 -1 0 #
point $-1 -25 50 -25 #
loop $-1 $-1 $316 $258 #
plane-surface $-1 25 37.5 0 -1 0 0 0 0 1 0 #
coedge $-1 $260 $368 $369 $370 0 $22 $-1 #
coedge $-1 $371 $372 $260 $314 1 $373 $-1 #
edge $-1 $374 $317 $313 $210 0 #
coedge $-1 $375 $261 $372 $376 1 $310 $-1 #
coedge $-1 $261 $375 $263 $320 0 $310 $-1 #
vertex $-1 $314 $377 #
straight-curve $-1 25 18.75 25 0 -1 0 #
coedge $-1 $265 $263 $378 $379 1 $219 $-1 #
edge $-1 $380 $264 $316 $381 0 #
point $-1 25 30 25 #
coedge $-1 $378 $268 $265 $323 0 $275 $-1 #
edge $-1 $270 $382 $322 $383 0 #
cone-surface $-1 25 25 0 0 0 1 5 0 0 1 0 1 0 #
straight-curve $-1 0 25 -25 1 0 0 #
point $-1 20 25 -25 #
edge $-1 $384 $384 $272 $385 0 #
face $-1 $347 $364 $2 $-1 $386 reversed single #
loop $-1 $387 $285 $273 #
coedge $-1 $330 $330 $332 $388 0 $279 $-1 #
coedge $-1 $331 $331 $284 $333 0 $281 $-1 #
coedge $-1 $332 $332 $330 $388 1 $283 $-1 #
edge $-1 $389 $389 $331 $390 0 #
vertex $-1 $286 $391 #
intcurve-curve $-1 0 { surfintcur nubs 3 periodic 33 
	0 3 0.96228800220367 2 1.92457600440734 2 2.88686400661101 2 3.84915200881468 2 
	4.80881676712985 2 5.76848152544502 2 6.72814628376019 2 7.68781104207537 2 8.64747580039054 2 
	9.60714055870571 2 10.5668053170209 2 11.5264700753361 2 12.4887580775397 2 13.4510460797434 2 
	14.4133340819471 2 15.3756220841508 2 16.3379100863545 2 17.3001980885582 2 18.2624860907619 2 
	19.2247740929655 2 20.1844388512807 2 21.1441036095959 2 22.103768367911 2 23.0634331262262 2 
	24.0230978845414 2 24.9827626428565 2 25.9424274011717 2 26.9020921594869 2 27.8643801616905 2 
	28.8266681638942 2 29.7889561660979 2 30.7512441683016 3 
	5 -8.66025403784439 -3.02371153627746e-14 
	5 -8.66025403784439 -0.320762667401253 
	4.96864854426525 -8.67859720315358 -0.650096645636317 
	4.83917532188399 -8.75145130540179 -1.30095204944887 
	4.74110682895814 -8.80584040039935 -1.62249770412211 
	4.48446464210681 -8.93926684166871 -2.23610709973344 
	4.3256865922814 -9.01823803973319 -2.5287662655354 
	3.96080843577998 -9.18434419878215 -3.06891183792096 
	3.75465652329399 -9.27132290233951 -3.31641128857152 
	3.31700862748206 -9.43673825864366 -3.75405918438345 
	3.06980522655168 -9.5213168215394 -3.96012572048754 
	2.5295385049244 -9.67887457794356 -4.32524390173094 
	2.23645918729002 -9.75173311433635 -4.4843239320536 
	1.62196998072622 -9.87255093261429 -4.74132099691498 
	1.29997425238193 -9.92053649112008 -4.83944336205583 
	0.648939666865737 -9.98428037654697 -4.96880492881467 
	0.319888252771759 -10 -5.00000000000003 
	-0.319888252771689 -10 -5.00000000000004 
	-0.648939666865667 -9.98428037654697 -4.96880492881468 
	-1.29997425238186 -9.92053649112009 -4.83944336205585 
	-1.62196998072615 -9.8725509326143 -4.741320996915 
	-2.23645918728995 -9.75173311433636 -4.48432393205363 
	-2.52953850492434 -9.67887457794358 -4.32524390173097 
	-3.06980522655163 -9.52131682153942 -3.96012572048758 
	-3.31700862748201 -9.43673825864368 -3.75405918438349 
	-3.75465652329394 -9.27132290233952 -3.31641128857156 
	-3.96080843577995 -9.18434419878217 -3.068911837921 
	-4.32568659228138 -9.0182380397332 -2.52876626553544 
	-4.48446464210679 -8.93926684166872 -2.23610709973348 
	-4.74110682895813 -8.80584040039936 -1.62249770412213 
	-4.83917532188398 -8.7514513054018 -1.30095204944889 
	-4.96864854426525 -8.67859720315358 -0.650096645636329 
	-5 -8.66025403784439 -0.320762667401259 
	-5 -8.66025403784439 0.320762667401197 
	-4.96864854426525 -8.67859720315358 0.650096645636265 
	-4.83917532188398 -8.7514513054018 1.30095204944883 
	-4.74110682895813 -8.80584040039936 1.62249770412207 
	-4.4844646421068 -8.93926684166872 2.23610709973341 
	-4.32568659228138 -9.01823803973319 2.52876626553537 
	-3.96080843577995 -9.18434419878216 3.06891183792093 
	-3.75465652329395 -9.27132290233952 3.31641128857149 
	-3.31700862748202 -9.43673825864367 3.75405918438342 
	-3.06980522655164 -9.52131682153941 3.9601257204875 
	-2.52953850492436 -9.67887457794357 4.32524390173089 
	-2.23645918728997 -9.75173311433636 4.48432393205355 
	-1.62196998072617 -9.8725509326143 4.74132099691492 
	-1.29997425238189 -9.92053649112009 4.83944336205577 
	-0.648939666865699 -9.98428037654698 4.9688049288146 
	-0.319888252771722 -10 4.99999999999996 
	0.319888252771723 -10 4.99999999999997 
	0.648939666865699 -9.98428037654697 4.9688049288146 
	1.29997425238189 -9.92053649112009 4.83944336205577 
	1.62196998072617 -9.8725509326143 4.74132099691492 
	2.23645918728997 -9.75173311433636 4.48432393205355 
	2.52953850492436 -9.67887457794357 4.32524390173089 
	3.06980522655164 -9.52131682153941 3.9601257204875 
	3.31700862748202 -9.43673825864367 3.75405918438342 
	3.75465652329395 -9.27132290233952 3.31641128857149 
	3.96080843577995 -9.18434419878216 3.06891183792093 
	4.32568659228138 -9.01823803973319 2.52876626553537 
	4.4844646421068 -8.93926684166872 2.23610709973341 
	4.74110682895813 -8.80584040039936 1.62249770412207 
	4.83917532188398 -8.7514513054018 1.30095204944883 
	4.96864854426525 -8.67859720315358 0.650096645636265 
	5 -8.66025403784439 0.320762667401197 
	5 -8.66025403784439 -3.02371153627746e-14 
	0.001 
	cone 0 0 0 0 -1 -3.49148133884313e-15 5 0 0 1 -0 -1 0 
	cone 0 0 0 0 0 1 10 0 0 1 -0 -1 0 
	nullbs 
	nullbs 
	} #
coedge $-1 $392 $287 $393 $394 0 $22 $-1 #
coedge $-1 $395 $396 $287 $338 1 $397 $-1 #
edge $-1 $342 $398 $337 $399 0 #
coedge $-1 $400 $288 $291 $346 0 $341 $-1 #
coedge $-1 $288 $401 $395 $402 1 $341 $-1 #
loop $-1 $-1 $401 $403 #
vertex $-1 $402 $404 #
straight-curve $-1 -65 -12.5 25 0 -1 0 #
coedge $-1 $405 $290 $406 $407 0 $292 $-1 #
coedge $-1 $291 $408 $409 $410 1 $292 $-1 #
edge $-1 $293 $411 $339 $412 0 #
face $-1 $413 $292 $2 $-1 $414 forward single #
point $-1 -65 0 25 #
coedge $-1 $303 $406 $295 $350 1 $364 $-1 #
edge $-1 $305 $351 $295 $415 0 #
vertex $-1 $296 $416 #
straight-curve $-1 -80 0 6.25 -0 -0 -1 #
face $-1 $417 $418 $2 $-1 $13 forward single #
plane-surface $-1 -80 25 12.5 -1 0 0 0 0 1 0 #
coedge $-1 $419 $299 $420 $421 1 $208 $-1 #
coedge $-1 $422 $423 $299 $357 0 $424 $-1 #
edge $-1 $425 $359 $299 $426 0 #
coedge $-1 $300 $409 $422 $427 0 $275 $-1 #
vertex $-1 $301 $428 #
straight-curve $-1 0 50 -25 1 0 0 #
coedge $-1 $302 $429 $430 $431 0 $208 $-1 #
coedge $-1 $432 $303 $302 $363 1 $364 $-1 #
edge $-1 $433 $365 $302 $366 0 #
loop $-1 $-1 $349 $328 #
vertex $-1 $363 $434 #
ellipse-curve $-1 -80 50 1.74574066942157e-13 0 -1 0 5 0 0 1 #
point $-1 -80 50 5.00000000000017 #
coedge $-1 $312 $435 $436 $437 0 $22 $-1 #
coedge $-1 $438 $439 $312 $370 1 $440 $-1 #
edge $-1 $441 $374 $312 $442 0 #
coedge $-1 $443 $313 $439 $444 0 $373 $-1 #
coedge $-1 $313 $445 $315 $376 0 $373 $-1 #
loop $-1 $-1 $443 $446 #
vertex $-1 $444 $447 #
coedge $-1 $316 $315 $448 $449 1 $310 $-1 #
edge $-1 $450 $317 $372 $451 0 #
point $-1 25 50 25 #
coedge $-1 $448 $322 $319 $379 0 $275 $-1 #
edge $-1 $382 $380 $378 $383 0 #
vertex $-1 $320 $452 #
straight-curve $-1 25 30 0 0 0 1 #
vertex $-1 $379 $453 #
ellipse-curve $-1 25 25 -25 0 0 1 5 0 0 1 #
vertex $-1 $327 $454 #
ellipse-curve $-1 0 25 8.72870334710783e-14 -0 -1 -0 5 0 0 1 #
cone-surface $-1 -80 0 0 0 -1 -3.49148133884313e-15 5 0 0 1 0 1 0 #
loop $-1 $-1 $455 $273 #
edge $-1 $456 $456 $330 $457 0 #
vertex $-1 $333 $458 #
intcurve-curve $-1 0 { surfintcur nubs 3 periodic 33 
	0 3 0.962288002203684 2 1.92457600440737 2 2.88686400661105 2 3.84915200881474 2 
	4.8088167671299 2 5.76848152544507 2 6.72814628376024 2 7.6878110420754 2 8.64747580039057 2 
	9.60714055870574 2 10.5668053170209 2 11.5264700753361 2 12.4887580775398 2 13.4510460797434 2 
	14.4133340819471 2 15.3756220841508 2 16.3379100863545 2 17.3001980885582 2 18.2624860907619 2 
	19.2247740929656 2 20.1844388512807 2 21.1441036095959 2 22.1037683679111 2 23.0634331262262 2 
	24.0230978845414 2 24.9827626428566 2 25.9424274011717 2 26.9020921594869 2 27.8643801616906 2 
	28.8266681638943 2 29.7889561660979 2 30.7512441683016 3 
	5 8.66025403784439 3.02371153627746e-14 
	5 8.66025403784439 0.320762667401258 
	4.96864854426525 8.67859720315358 0.650096645636327 
	4.83917532188398 8.7514513054018 1.30095204944889 
	4.74110682895813 8.80584040039936 1.62249770412213 
	4.4844646421068 8.93926684166872 2.23610709973347 
	4.32568659228138 9.01823803973319 2.52876626553543 
	3.96080843577995 9.18434419878216 3.06891183792099 
	3.75465652329395 9.27132290233952 3.31641128857155 
	3.31700862748202 9.43673825864367 3.75405918438348 
	3.06980522655164 9.52131682153941 3.96012572048757 
	2.52953850492436 9.67887457794357 4.32524390173096 
	2.23645918728997 9.75173311433636 4.48432393205362 
	1.62196998072618 9.8725509326143 4.74132099691499 
	1.29997425238189 9.92053649112009 4.83944336205584 
	0.648939666865699 9.98428037654697 4.96880492881467 
	0.319888252771723 10 5.00000000000003 
	-0.319888252771722 10 5.00000000000003 
	-0.648939666865699 9.98428037654697 4.96880492881467 
	-1.29997425238189 9.92053649112009 4.83944336205584 
	-1.62196998072618 9.8725509326143 4.74132099691499 
	-2.23645918728997 9.75173311433636 4.48432393205362 
	-2.52953850492436 9.67887457794357 4.32524390173096 
	-3.06980522655164 9.52131682153941 3.96012572048757 
	-3.31700862748203 9.43673825864367 3.75405918438348 
	-3.75465652329395 9.27132290233952 3.31641128857155 
	-3.96080843577995 9.18434419878217 3.06891183792099 
	-4.32568659228138 9.0182380397332 2.52876626553543 
	-4.4844646421068 8.93926684166872 2.23610709973347 
	-4.74110682895813 8.80584040039936 1.62249770412213 
	-4.83917532188398 8.7514513054018 1.30095204944889 
	-4.96864854426525 8.67859720315358 0.650096645636327 
	-5 8.66025403784439 0.320762667401258 
	-5 8.66025403784439 -0.320762667401198 
	-4.96864854426525 8.67859720315358 -0.650096645636267 
	-4.83917532188398 8.7514513054018 -1.30095204944883 
	-4.74110682895813 8.80584040039936 -1.62249770412207 
	-4.48446464210679 8.93926684166872 -2.23610709973341 
	-4.32568659228138 9.01823803973319 -2.52876626553537 
	-3.96080843577994 9.18434419878217 -3.06891183792094 
	-3.75465652329394 9.27132290233952 -3.3164112885715 
	-3.31700862748201 9.43673825864368 -3.75405918438343 
	-3.06980522655163 9.52131682153942 -3.96012572048751 
	-2.52953850492434 9.67887457794358 -4.3252439017309 
	-2.23645918728995 9.75173311433636 -4.48432393205356 
	-1.62196998072615 9.8725509326143 -4.74132099691493 
	-1.29997425238186 9.92053649112009 -4.83944336205578 
	-0.648939666865667 9.98428037654697 -4.96880492881461 
	-0.319888252771689 10 -4.99999999999997 
	0.319888252771758 10 -4.99999999999996 
	0.648939666865736 9.98428037654697 -4.9688049288146 
	1.29997425238193 9.92053649112008 -4.83944336205576 
	1.62196998072622 9.87255093261429 -4.74132099691491 
	2.23645918729001 9.75173311433635 -4.48432393205353 
	2.5295385049244 9.67887457794356 -4.32524390173087 
	3.06980522655168 9.5213168215394 -3.96012572048747 
	3.31700862748206 9.43673825864366 -3.75405918438338 
	3.75465652329399 9.27132290233951 -3.31641128857145 
	3.96080843577998 9.18434419878215 -3.0689118379209 
	4.3256865922814 9.01823803973318 -2.52876626553533 
	4.48446464210681 8.93926684166871 -2.23610709973338 
	4.74110682895814 8.80584040039935 -1.62249770412205 
	4.83917532188399 8.75145130540179 -1.30095204944881 
	4.96864854426525 8.67859720315358 -0.650096645636255 
	5 8.66025403784439 -0.320762667401192 
	5 8.66025403784439 3.02371153627746e-14 
	0.001 
	cone 0 0 0 0 -1 -3.49148133884313e-15 5 0 0 1 -0 -1 0 
	cone 0 0 0 0 0 1 10 0 0 1 -0 -1 0 
	nullbs 
	nullbs 
	} #
point $-1 5 -8.66025403784439 -3.02371153627746e-14 #
coedge $-1 $459 $336 $460 $461 0 $22 $-1 #
coedge $-1 $462 $463 $336 $394 1 $464 $-1 #
edge $-1 $398 $465 $336 $466 0 #
coedge $-1 $467 $337 $340 $402 0 $397 $-1 #
coedge $-1 $337 $467 $462 $468 0 $397 $-1 #
loop $-1 $-1 $396 $469 #
vertex $-1 $338 $470 #
straight-curve $-1 0 -50 25 1 0 0 #
coedge $-1 $471 $339 $472 $473 1 $341 $-1 #
coedge $-1 $340 $474 $475 $476 0 $341 $-1 #
edge $-1 $342 $477 $395 $478 0 #
face $-1 $479 $341 $2 $-1 $480 forward single #
point $-1 -65 -50 25 #
coedge $-1 $481 $344 $482 $483 0 $292 $-1 #
coedge $-1 $349 $432 $344 $407 1 $364 $-1 #
edge $-1 $351 $484 $344 $485 0 #
coedge $-1 $345 $486 $487 $488 1 $292 $-1 #
coedge $-1 $358 $472 $345 $410 0 $275 $-1 #
edge $-1 $411 $489 $409 $490 0 #
vertex $-1 $410 $491 #
straight-curve $-1 -65 0 0 0 0 -1 #
face $-1 $492 $493 $2 $-1 $494 forward single #
plane-surface $-1 -95 0 0 0 -1 0 0 0 -1 0 #
straight-curve $-1 -80 -1.69519303992492e-14 5 0 -1 -3.49148133884313e-15 #
point $-1 -80 0 5 #
face $-1 $495 $496 $2 $-1 $497 forward single #
loop $-1 $-1 $498 $353 #
coedge $-1 $429 $355 $499 $500 0 $208 $-1 #
coedge $-1 $501 $498 $355 $421 0 $418 $-1 #
edge $-1 $502 $425 $355 $210 0 #
coedge $-1 $487 $356 $358 $427 1 $424 $-1 #
coedge $-1 $356 $487 $501 $503 1 $424 $-1 #
loop $-1 $-1 $487 $504 #
vertex $-1 $421 $505 #
straight-curve $-1 -125 50 0 0 0 -1 #
edge $-1 $489 $359 $422 $506 0 #
point $-1 -125 50 -25 #
coedge $-1 $361 $419 $507 $508 0 $208 $-1 #
coedge $-1 $509 $510 $361 $431 1 $493 $-1 #
edge $-1 $511 $433 $361 $512 0 #
coedge $-1 $406 $362 $510 $513 1 $364 $-1 #
vertex $-1 $431 $514 #
point $-1 -75 50 1.74574066942157e-13 #
coedge $-1 $368 $515 $516 $517 0 $22 $-1 #
coedge $-1 $518 $519 $368 $437 1 $520 $-1 #
edge $-1 $521 $441 $368 $522 0 #
coedge $-1 $523 $369 $519 $524 1 $440 $-1 #
coedge $-1 $369 $523 $371 $444 1 $440 $-1 #
loop $-1 $-1 $523 $525 #
vertex $-1 $437 $526 #
straight-curve $-1 80 12.5 25 0 1 0 #
coedge $-1 $527 $371 $528 $529 0 $373 $-1 #
edge $-1 $374 $530 $371 $531 0 #
coedge $-1 $372 $532 $533 $534 1 $373 $-1 #
face $-1 $535 $373 $2 $-1 $307 reversed single #
point $-1 80 50 25 #
coedge $-1 $533 $378 $375 $449 0 $275 $-1 #
edge $-1 $380 $450 $448 $536 0 #
vertex $-1 $449 $537 #
straight-curve $-1 25 50 0 0 0 1 #
point $-1 25 30 -25 #
point $-1 30 25 -25 #
point $-1 -5 25 1.2220184685951e-13 #
coedge $-1 $455 $455 $538 $539 1 $387 $-1 #
vertex $-1 $388 $540 #
ellipse-curve $-1 0 0 -25 0 0 1 10 0 0 1 #
point $-1 5 8.66025403784439 3.02371153627746e-14 #
coedge $-1 $515 $392 $541 $542 0 $22 $-1 #
coedge $-1 $543 $544 $392 $461 1 $545 $-1 #
edge $-1 $465 $546 $392 $547 0 #
coedge $-1 $548 $393 $396 $468 1 $464 $-1 #
coedge $-1 $393 $548 $543 $549 1 $464 $-1 #
loop $-1 $-1 $463 $535 #
vertex $-1 $394 $550 #
straight-curve $-1 -50 -18.75 25 0 1 0 #
coedge $-1 $396 $395 $551 $552 0 $397 $-1 #
edge $-1 $553 $398 $396 $554 0 #
face $-1 $555 $397 $2 $-1 $556 reversed single #
point $-1 -50 -50 25 #
coedge $-1 $557 $400 $558 $559 1 $341 $-1 #
coedge $-1 $409 $560 $400 $473 0 $275 $-1 #
edge $-1 $561 $411 $472 $562 0 #
coedge $-1 $401 $557 $563 $564 0 $341 $-1 #
coedge $-1 $565 $551 $401 $476 1 $566 $-1 #
edge $-1 $567 $477 $401 $568 0 #
vertex $-1 $402 $569 #
straight-curve $-1 -65 -50 0 -0 0 -1 #
face $-1 $570 $571 $2 $-1 $13 forward single #
plane-surface $-1 -65 -25 0 -1 0 0 0 0 1 0 #
coedge $-1 $572 $405 $573 $574 0 $292 $-1 #
coedge $-1 $510 $509 $405 $483 1 $493 $-1 #
edge $-1 $484 $575 $405 $576 0 #
vertex $-1 $513 $577 #
ellipse-curve $-1 -80 0 0 -0 1 -0 5 0 0 1 #
coedge $-1 $408 $572 $578 $579 1 $292 $-1 #
coedge $-1 $423 $422 $408 $488 0 $424 $-1 #
edge $-1 $489 $580 $487 $581 0 #
vertex $-1 $410 $582 #
straight-curve $-1 -47.5 0 -25 -1 0 0 #
point $-1 -65 0 -25 #
face $-1 $525 $583 $2 $-1 $584 reversed single #
loop $-1 $-1 $510 $413 #
plane-surface $-1 -95 25 0 0 0 1 1 0 0 0 #
face $-1 $585 $586 $2 $-1 $587 forward single #
loop $-1 $-1 $588 $417 #
plane-surface $-1 95 25 0 0 0 1 1 0 0 0 #
coedge $-1 $420 $578 $589 $590 0 $418 $-1 #
coedge $-1 $589 $591 $419 $500 1 $592 $-1 #
edge $-1 $502 $593 $419 $594 0 #
coedge $-1 $578 $420 $423 $503 0 $418 $-1 #
vertex $-1 $500 $595 #
edge $-1 $425 $580 $423 $596 0 #
face $-1 $-1 $424 $2 $-1 $597 reversed single #
point $-1 -125 50 25 #
straight-curve $-1 -125 0 -25 0 1 0 #
coedge $-1 $598 $599 $429 $508 1 $600 $-1 #
edge $-1 $593 $511 $429 $601 0 #
coedge $-1 $482 $430 $599 $602 0 $493 $-1 #
coedge $-1 $430 $482 $432 $513 0 $493 $-1 #
vertex $-1 $508 $603 #
straight-curve $-1 -47.5 50 0 1 0 -0 #
edge $-1 $484 $433 $510 $604 0 #
point $-1 -85 50 0 #
coedge $-1 $435 $459 $605 $606 0 $22 $-1 #
coedge $-1 $607 $608 $435 $517 1 $609 $-1 #
edge $-1 $610 $521 $435 $611 0 #
coedge $-1 $612 $436 $608 $613 0 $520 $-1 #
coedge $-1 $436 $614 $438 $524 0 $520 $-1 #
loop $-1 $-1 $614 $585 #
vertex $-1 $517 $615 #
straight-curve $-1 47.5 0 25 1 0 -0 #
coedge $-1 $439 $438 $616 $617 0 $440 $-1 #
edge $-1 $618 $441 $519 $619 0 #
face $-1 $620 $440 $2 $-1 $621 forward single #
point $-1 80 0 25 #
coedge $-1 $622 $443 $623 $624 0 $373 $-1 #
coedge $-1 $616 $625 $443 $529 1 $583 $-1 #
edge $-1 $530 $626 $443 $627 0 #
vertex $-1 $444 $628 #
straight-curve $-1 80 50 6.25 0 0 -1 #
coedge $-1 $445 $629 $630 $631 0 $373 $-1 #
coedge $-1 $632 $448 $445 $534 0 $275 $-1 #
edge $-1 $450 $633 $445 $360 0 #
face $-1 $634 $464 $2 $-1 $635 forward single #
straight-curve $-1 25 18.75 -25 0 1 -0 #
point $-1 25 50 -25 #
coedge $-1 $538 $538 $455 $539 0 $636 $-1 #
edge $-1 $637 $637 $538 $638 0 #
point $-1 10 0 -25 #
coedge $-1 $639 $640 $459 $542 1 $641 $-1 #
edge $-1 $546 $642 $459 $643 0 #
coedge $-1 $644 $460 $463 $549 0 $545 $-1 #
coedge $-1 $460 $645 $639 $646 1 $545 $-1 #
loop $-1 $-1 $647 $648 #
vertex $-1 $461 $649 #
straight-curve $-1 0 -25 25 1 0 -0 #
coedge $-1 $463 $462 $650 $651 1 $464 $-1 #
edge $-1 $465 $652 $543 $653 0 #
point $-1 -50 -25 25 #
coedge $-1 $475 $650 $467 $552 1 $566 $-1 #
edge $-1 $477 $553 $467 $654 0 #
vertex $-1 $552 $655 #
straight-curve $-1 -50 -50 8.75 -0 0 1 #
face $-1 $648 $656 $2 $-1 $556 reversed single #
plane-surface $-1 0 -50 0 0 1 -0 -0 0 1 0 #
coedge $-1 $474 $471 $657 $658 0 $341 $-1 #
coedge $-1 $659 $660 $471 $559 0 $661 $-1 #
edge $-1 $662 $561 $558 $478 0 #
coedge $-1 $472 $663 $659 $664 0 $275 $-1 #
vertex $-1 $664 $665 #
straight-curve $-1 -65 -12.5 -25 0 1 -0 #
coedge $-1 $666 $644 $474 $564 1 $545 $-1 #
edge $-1 $667 $567 $474 $668 0 #
coedge $-1 $650 $475 $644 $669 1 $566 $-1 #
loop $-1 $-1 $650 $670 #
vertex $-1 $476 $671 #
straight-curve $-1 -65 -31.25 10 0 -1 0 #
point $-1 -65 -50 10 #
face $-1 $504 $672 $2 $-1 $673 reversed single #
loop $-1 $-1 $674 $479 #
coedge $-1 $486 $481 $675 $676 0 $292 $-1 #
coedge $-1 $599 $598 $481 $574 1 $600 $-1 #
edge $-1 $575 $677 $481 $678 0 #
vertex $-1 $483 $679 #
straight-curve $-1 -95 0 0 -1 0 0 #
point $-1 -85 0 0 #
coedge $-1 $498 $501 $486 $579 0 $418 $-1 #
edge $-1 $580 $680 $578 $294 0 #
vertex $-1 $503 $681 #
straight-curve $-1 -125 0 0 -0 0 1 #
point $-1 -125 0 -25 #
loop $-1 $-1 $625 $492 #
cone-surface $-1 80 0 0 0 -1 -3.49148133884313e-15 5 0 0 1 0 1 0 #
face $-1 $403 $520 $2 $-1 $682 forward single #
loop $-1 $-1 $683 $495 #
plane-surface $-1 110 25 12.5 -1 0 0 0 0 1 0 #
coedge $-1 $684 $623 $625 $685 0 $496 $-1 #
coedge $-1 $675 $499 $498 $590 1 $592 $-1 #
edge $-1 $680 $502 $498 $686 0 #
coedge $-1 $499 $675 $598 $687 0 $592 $-1 #
loop $-1 $-1 $591 $688 #
vertex $-1 $500 $689 #
straight-curve $-1 -110 50 6.25 0 0 -1 #
point $-1 -110 50 25 #
straight-curve $-1 -125 0 25 0 -1 0 #
plane-surface $-1 -125 0 0 1 0 0 0 0 -1 0 #
coedge $-1 $573 $507 $591 $687 1 $600 $-1 #
coedge $-1 $507 $573 $509 $602 1 $600 $-1 #
loop $-1 $-1 $599 $620 #
ellipse-curve $-1 -110 50 1.74574066942157e-13 0 -1 0 5 0 0 1 #
edge $-1 $511 $575 $509 $690 0 #
point $-1 -105 50 1.74574066942157e-13 #
straight-curve $-1 -85 -1.52380524243623e-28 0 -0 1 3.49148133884313e-15 #
coedge $-1 $691 $692 $515 $606 1 $656 $-1 #
edge $-1 $642 $610 $605 $399 0 #
coedge $-1 $693 $516 $692 $694 1 $609 $-1 #
coedge $-1 $516 $695 $518 $613 1 $609 $-1 #
loop $-1 $-1 $693 $696 #
vertex $-1 $606 $697 #
straight-curve $-1 65 -12.5 25 0 1 0 #
coedge $-1 $698 $518 $699 $700 1 $520 $-1 #
edge $-1 $521 $701 $518 $702 0 #
coedge $-1 $519 $703 $704 $705 0 $520 $-1 #
point $-1 65 0 25 #
coedge $-1 $704 $528 $523 $617 1 $583 $-1 #
edge $-1 $618 $530 $523 $706 0 #
vertex $-1 $617 $707 #
straight-curve $-1 80 0 6.25 -0 0 1 #
face $-1 $688 $600 $2 $-1 $708 reversed single #
plane-surface $-1 80 25 12.5 1 0 0 0 0 -1 0 #
coedge $-1 $709 $527 $710 $711 0 $373 $-1 #
coedge $-1 $588 $712 $527 $624 1 $496 $-1 #
edge $-1 $626 $713 $527 $714 0 #
coedge $-1 $528 $704 $588 $685 1 $583 $-1 #
vertex $-1 $529 $715 #
ellipse-curve $-1 80 50 1.74574066942157e-13 0 -1 0 5 0 0 1 #
point $-1 80 50 5.00000000000017 #
coedge $-1 $532 $716 $717 $718 1 $373 $-1 #
coedge $-1 $719 $720 $532 $631 1 $672 $-1 #
edge $-1 $721 $633 $630 $722 0 #
coedge $-1 $699 $533 $720 $723 0 $275 $-1 #
vertex $-1 $723 $724 #
face $-1 $725 $641 $2 $-1 $726 forward single #
plane-surface $-1 -50 -37.5 17.5 1 0 0 0 0 -1 0 #
loop $-1 $545 $538 $648 #
vertex $-1 $539 $727 #
ellipse-curve $-1 0 -25 -8.72870334710783e-14 -0 1 -0 5 0 0 1 #
coedge $-1 $728 $541 $544 $646 0 $641 $-1 #
coedge $-1 $541 $728 $691 $729 1 $641 $-1 #
loop $-1 $-1 $640 $634 #
vertex $-1 $729 $730 #
straight-curve $-1 50 -18.75 25 0 -1 0 #
coedge $-1 $563 $543 $565 $669 0 $545 $-1 #
coedge $-1 $544 $647 $731 $732 0 $545 $-1 #
edge $-1 $546 $733 $639 $734 0 #
coedge $-1 $645 $666 $735 $736 1 $545 $-1 #
face $-1 $737 $636 $2 $-1 $738 forward single #
point $-1 50 -25 25 #
coedge $-1 $551 $565 $548 $651 0 $566 $-1 #
edge $-1 $652 $553 $650 $739 0 #
vertex $-1 $669 $740 #
straight-curve $-1 -50 -25 17.5 0 0 -1 #
straight-curve $-1 0 -50 10 1 -0 0 #
point $-1 -50 -50 10 #
loop $-1 $-1 $691 $555 #
coedge $-1 $741 $742 $557 $658 1 $743 $-1 #
edge $-1 $662 $667 $557 $744 0 #
coedge $-1 $745 $558 $560 $664 1 $661 $-1 #
coedge $-1 $558 $745 $741 $746 0 $661 $-1 #
loop $-1 $-1 $660 $747 #
vertex $-1 $658 $748 #
coedge $-1 $560 $699 $695 $749 0 $275 $-1 #
edge $-1 $750 $561 $659 $751 0 #
point $-1 -65 -50 -25 #
coedge $-1 $647 $563 $742 $752 0 $545 $-1 #
vertex $-1 $658 $753 #
straight-curve $-1 -65 -25 0 0 0 1 #
edge $-1 $652 $567 $644 $754 0 #
face $-1 $469 $566 $2 $-1 $755 reversed single #
point $-1 -65 -25 10 #
loop $-1 $-1 $756 $570 #
plane-surface $-1 125 0 0 -1 0 0 0 -0 1 0 #
coedge $-1 $757 $717 $758 $759 0 $571 $-1 #
coedge $-1 $591 $589 $572 $676 1 $592 $-1 #
edge $-1 $677 $680 $572 $760 0 #
vertex $-1 $687 $761 #
ellipse-curve $-1 -110 0 0 -0 1 -0 5 0 0 1 #
point $-1 -105 0 0 #
vertex $-1 $579 $762 #
point $-1 -125 0 25 #
plane-surface $-1 95 0 0 0 -1 0 0 0 -1 0 #
coedge $-1 $763 $764 $765 $766 0 $586 $-1 #
coedge $-1 $712 $588 $703 $767 1 $496 $-1 #
edge $-1 $626 $768 $588 $769 0 #
straight-curve $-1 -110 12.5 25 0 1 0 #
edge $-1 $677 $593 $591 $770 0 #
face $-1 $771 $592 $2 $-1 $772 forward single #
point $-1 -110 50 5.00000000000017 #
straight-curve $-1 -105 -1.52380524243623e-28 0 0 -1 -3.49148133884313e-15 #
coedge $-1 $773 $605 $640 $729 0 $656 $-1 #
coedge $-1 $605 $773 $607 $694 0 $656 $-1 #
coedge $-1 $735 $607 $774 $775 0 $609 $-1 #
edge $-1 $776 $610 $692 $777 0 #
coedge $-1 $608 $778 $663 $749 1 $609 $-1 #
face $-1 $747 $609 $2 $-1 $779 forward single #
point $-1 65 -50 25 #
coedge $-1 $780 $612 $756 $781 1 $520 $-1 #
coedge $-1 $663 $632 $612 $700 0 $275 $-1 #
edge $-1 $782 $701 $699 $783 0 #
vertex $-1 $749 $784 #
straight-curve $-1 65 0 0 0 0 -1 #
coedge $-1 $614 $785 $684 $767 0 $520 $-1 #
coedge $-1 $625 $616 $614 $705 1 $583 $-1 #
edge $-1 $768 $618 $614 $786 0 #
straight-curve $-1 80 -1.69519303992492e-14 5 -0 1 3.49148133884313e-15 #
point $-1 80 0 5 #
cone-surface $-1 -110 0 0 0 -1 -3.49148133884313e-15 5 0 0 1 0 1 0 #
coedge $-1 $716 $622 $787 $788 0 $373 $-1 #
coedge $-1 $789 $787 $622 $711 1 $790 $-1 #
edge $-1 $713 $791 $622 $792 0 #
coedge $-1 $623 $684 $789 $793 0 $496 $-1 #
vertex $-1 $624 $794 #
straight-curve $-1 47.5 50 0 1 0 -0 #
point $-1 85 50 1.74574066942157e-13 #
coedge $-1 $629 $709 $764 $795 0 $373 $-1 #
coedge $-1 $674 $796 $629 $718 0 $571 $-1 #
edge $-1 $721 $797 $629 $210 0 #
coedge $-1 $756 $630 $796 $798 1 $672 $-1 #
coedge $-1 $630 $756 $632 $723 1 $672 $-1 #
vertex $-1 $798 $799 #
straight-curve $-1 125 50 0 0 0 -1 #
edge $-1 $633 $782 $720 $800 0 #
point $-1 125 50 -25 #
face $-1 $670 $801 $2 $-1 $755 reversed single #
plane-surface $-1 50 -37.5 17.5 -1 0 0 0 0 1 0 #
point $-1 -5 -25 -1.2220184685951e-13 #
coedge $-1 $640 $639 $802 $803 1 $641 $-1 #
edge $-1 $642 $804 $691 $805 0 #
point $-1 50 -50 25 #
coedge $-1 $774 $802 $645 $732 1 $801 $-1 #
edge $-1 $806 $733 $645 $754 0 #
vertex $-1 $732 $807 #
straight-curve $-1 50 -25 17.5 0 0 -1 #
coedge $-1 $808 $693 $647 $736 0 $609 $-1 #
edge $-1 $806 $809 $735 $810 0 #
face $-1 $696 $743 $2 $-1 $811 forward single #
plane-surface $-1 0 -25 0 0 -1 0 0 0 -1 0 #
straight-curve $-1 -50 -37.5 10 0 -1 0 #
point $-1 -50 -25 10 #
coedge $-1 $812 $657 $660 $746 1 $743 $-1 #
coedge $-1 $657 $812 $666 $752 1 $743 $-1 #
loop $-1 $-1 $812 $737 #
straight-curve $-1 -65 -31.25 -10 0 1 -0 #
coedge $-1 $660 $659 $778 $813 0 $661 $-1 #
edge $-1 $814 $662 $660 $815 0 #
face $-1 $213 $661 $2 $-1 $556 reversed single #
point $-1 -65 -50 -10 #
edge $-1 $701 $750 $663 $816 0 #
vertex $-1 $813 $817 #
straight-curve $-1 0 -50 -25 -1 0 0 #
edge $-1 $667 $809 $666 $818 0 #
point $-1 -65 -25 -10 #
straight-curve $-1 0 -25 10 -1 0 0 #
plane-surface $-1 0 -37.5 10 0 0 1 1 0 0 0 #
coedge $-1 $720 $719 $698 $781 0 $672 $-1 #
coedge $-1 $796 $674 $780 $819 0 $571 $-1 #
coedge $-1 $764 $763 $674 $759 1 $586 $-1 #
edge $-1 $797 $820 $674 $821 0 #
straight-curve $-1 -110 0 6.25 -0 0 1 #
point $-1 -110 0 5 #
point $-1 -110 0 25 #
coedge $-1 $758 $683 $822 $823 1 $586 $-1 #
coedge $-1 $683 $758 $716 $795 1 $586 $-1 #
coedge $-1 $787 $824 $683 $766 1 $790 $-1 #
edge $-1 $825 $826 $683 $827 0 #
edge $-1 $828 $768 $703 $829 0 #
vertex $-1 $767 $830 #
straight-curve $-1 85 -1.52380524243623e-28 0 0 -1 -3.49148133884313e-15 #
straight-curve $-1 -110 -1.69519303992492e-14 5 -0 1 3.49148133884313e-15 #
face $-1 $446 $790 $2 $-1 $831 reversed single #
plane-surface $-1 -110 25 12.5 1 0 0 0 0 -1 0 #
coedge $-1 $692 $691 $832 $833 0 $656 $-1 #
coedge $-1 $832 $731 $693 $775 1 $801 $-1 #
edge $-1 $776 $806 $693 $834 0 #
vertex $-1 $833 $835 #
straight-curve $-1 65 -50 0 -0 0 1 #
coedge $-1 $695 $808 $745 $813 1 $609 $-1 #
plane-surface $-1 65 -25 0 1 0 0 0 0 -1 0 #
coedge $-1 $822 $698 $757 $819 1 $520 $-1 #
edge $-1 $836 $782 $756 $837 0 #
vertex $-1 $723 $838 #
straight-curve $-1 47.5 0 -25 -1 0 0 #
point $-1 65 0 -25 #
coedge $-1 $703 $822 $824 $839 0 $520 $-1 #
ellipse-curve $-1 80 0 0 -0 1 -0 5 0 0 1 #
coedge $-1 $710 $765 $709 $788 1 $790 $-1 #
edge $-1 $791 $825 $709 $792 0 #
coedge $-1 $824 $710 $712 $793 1 $790 $-1 #
loop $-1 $-1 $789 $771 #
vertex $-1 $711 $840 #
ellipse-curve $-1 110 50 1.74574066942157e-13 0 -1 0 5 0 0 1 #
edge $-1 $828 $713 $712 $841 0 #
point $-1 105 50 0 #
edge $-1 $825 $797 $716 $842 0 #
coedge $-1 $717 $757 $719 $798 0 $571 $-1 #
vertex $-1 $718 $843 #
edge $-1 $836 $721 $719 $844 0 #
point $-1 125 50 25 #
straight-curve $-1 125 0 -25 0 -1 0 #
loop $-1 $-1 $802 $725 #
coedge $-1 $731 $832 $728 $803 0 $801 $-1 #
edge $-1 $804 $733 $802 $845 0 #
vertex $-1 $729 $846 #
straight-curve $-1 50 -50 8.75 -0 0 -1 #
vertex $-1 $775 $847 #
point $-1 50 -25 10 #
coedge $-1 $778 $735 $812 $848 0 $609 $-1 #
vertex $-1 $848 $849 #
straight-curve $-1 65 -25 0 0 0 -1 #
plane-surface $-1 0 -37.5 -10 0 0 1 1 0 0 0 #
coedge $-1 $742 $741 $808 $848 1 $743 $-1 #
edge $-1 $750 $814 $745 $777 0 #
vertex $-1 $813 $850 #
straight-curve $-1 0 -50 -10 -1 0 0 #
straight-curve $-1 65 -12.5 -25 0 -1 0 #
point $-1 65 -50 -25 #
straight-curve $-1 0 -25 -10 1 0 0 #
edge $-1 $820 $836 $757 $522 0 #
vertex $-1 $759 $851 #
straight-curve $-1 110 12.5 25 0 -1 0 #
coedge $-1 $785 $780 $763 $823 0 $520 $-1 #
edge $-1 $820 $826 $822 $852 0 #
coedge $-1 $765 $789 $785 $839 1 $790 $-1 #
vertex $-1 $766 $853 #
vertex $-1 $823 $854 #
straight-curve $-1 110 -1.69519303992492e-14 5 0 -1 -3.49148133884313e-15 #
vertex $-1 $839 $855 #
straight-curve $-1 95 0 0 -1 0 0 #
point $-1 85 0 0 #
cone-surface $-1 110 0 0 0 -1 -3.49148133884313e-15 5 0 0 1 0 1 0 #
coedge $-1 $802 $774 $773 $833 1 $801 $-1 #
edge $-1 $804 $776 $773 $654 0 #
straight-curve $-1 65 -31.25 10 0 1 0 #
point $-1 65 -50 10 #
vertex $-1 $781 $856 #
straight-curve $-1 125 0 0 -0 -0 -1 #
point $-1 125 0 -25 #
edge $-1 $826 $828 $785 $857 0 #
point $-1 115 50 1.74574066942157e-13 #
straight-curve $-1 105 -1.52380524243623e-28 0 -0 1 3.49148133884313e-15 #
straight-curve $-1 110 50 6.25 0 0 1 #
point $-1 110 50 25 #
straight-curve $-1 125 0 25 0 1 0 #
straight-curve $-1 50 -37.5 10 0 1 -0 #
point $-1 50 -50 10 #
point $-1 65 -25 10 #
edge $-1 $809 $814 $808 $858 0 #
point $-1 65 -25 -10 #
point $-1 65 -50 -10 #
point $-1 110 0 25 #
straight-curve $-1 110 0 6.25 -0 -0 -1 #
point $-1 110 50 5.00000000000017 #
point $-1 110 0 5 #
point $-1 105 0 0 #
point $-1 125 0 25 #
ellipse-curve $-1 110 0 0 -0 1 -0 5 0 0 1 #
straight-curve $-1 65 -31.25 -10 0 -1 0 #
