**ABCDEFGHIJKLMNOPQRSTUVWXYZabcdefghijklmnopqrstuvwxyz**************************
**PARASOLID !"#$%&'()*+,-./:;<=>?@[\]^_`{|}~0123456789**************************
**PART1;
MC=unknown;
MC_MODEL=unknown;
MC_ID=unknown;
OS=WindowsNT;
OS_RELEASE=4.0;
FRU=unknown;
APPL=IronCAD;
SITE=Visionary Design Systems Inc, Atlanta, GA;
USER=market;
FORMAT=text;
GUISE=transmit;
KEY=V:\ZData\nativeICS\ICS3\vise_guide;
FILE=V:\ZData\nativeICS\ICS3\vise_guide.X_T;
DATE=unknown;
**PART2;
SCH=SCH_1100129_11004;
USFLD_SIZE=0;
**PART3;
**END_OF_HEADER*****************************************************************
T51 : TRANSMIT FILE created by modeller version 110012917 SCH_1100129_110040 12
 1 1550 0 0 0 0 0 0 1e3 1e-8 0 2 0 1 0 1 1 3 4 5 6 7 8 9 13 3 138 0 1 0 10 0 0 1
1 0 51 4 137 0 10 12 0 13 -.00265873305531345 -.0686892413582361 .02488250830292
26 0 0 -1 .0635 -1 0 0 32 5 1158 0 8 14 0 0 +.00265873305531345 -.06868924135823
61 .0562302075503251 -.866025403784439 -1784766006522375e-30 -.5 .5 103043513430
6188e-30 -.866025403784439 .127 .0635 29 6 1135 0 9 15 0 .0171121393567227 -.006
85600558420927 .0205523966998977 19 7 1 0 1 11 0 16 V16 8 1156 0 ?17 0 18 5 0 0
 1 18 9 1133 0 19 0 20 6 ?1 17 19 0 21 22 23 9 24 25 0 26 -18 20 923 0 27 9 28 1
5 ?1 17 27 0 29 30 31 20 32 33 0 34 -18 28 802 0 35 20 36 37 ?1 29 15 925 0 20 3
7 6 -.01793986064327725 -.00862304506081448 .0205523966998977 29 37 804 0 28 38
 15 .00723073305531345 -.02423924135823605 .00710250830292261 29 38 667 0 36 39
 37 -.00572326694468655 -.01077724135823604 .02183450830292255 18 36 665 0 40 28
 41 38 ?1 29 39 249 0 41 42 38 .03123373305531345 -.01198192811734972 .009399509
71207952 18 41 247 0 43 36 44 39 ?1 29 42 38 0 44 45 39 .03123373305531345 -.011
98192811734972 .0248825083029226 18 44 35 0 46 41 47 42 ?1 29 45 33 0 47 48 42 .
03123373305531345 -.01407924135823604 .0248825083029226 18 47 30 0 49 44 50 45 ?
1 29 48 28 0 50 51 45 .02729673305531345 -.01407924135823604 .0248825083029226 1
8 50 25 0 52 47 53 48 ?1 29 51 23 0 53 54 48 .02729673305531345 -.02423924135823
605 .0248825083029226 18 53 20 0 55 50 56 51 ?1 29 54 18 0 56 57 51 -.0219792669
4468655 -.02423924135823605 .0248825083029226 18 56 15 0 58 53 59 54 ?1 29 57 13
 0 59 60 54 -.02197926694468655 -.01407924135823604 .0248825083029226 18 59 10 0
 61 56 62 57 ?1 29 60 8 0 62 63 57 -.02591626694468655 -.01407924135823604 .0248
825083029226 18 62 5 0 64 59 65 60 ?1 29 63 4 0 65 66 60 -.02591626694468655 -.0
1198192811734972 .0248825083029226 18 65 2 0 67 62 68 63 ?1 29 66 421 0 68 69 63
 -.02197926694468655 -.014079241358237 .00751871091922581 18 68 346 0 70 65 71 6
6 ?1 29 69 422 0 71 72 66 -.0259162669446843 -.014079241358237 .0093311432870888
9 18 71 347 0 73 68 74 69 ?1 29 72 423 0 74 75 69 -.02591626694468655 -.01198192
811734972 .00933114328709001 18 74 348 0 76 71 77 72 ?1 29 75 424 0 77 78 72 .02
729673305531345 -.014079241358237 .00757582681557099 18 77 343 0 79 74 80 75 ?1
 29 78 425 0 80 81 75 .0312337330553157 -.014079241358237 .00939950971207952 18
 80 344 0 82 77 83 78 ?1 29 81 429 0 83 84 78 .02729673305531345 -.0242392413582
3605 .007575826815571 18 83 350 0 85 80 86 81 ?1 29 84 430 0 86 87 81 -.02197926
694468655 -.02423924135823605 .00751871091922583 18 86 342 0 88 83 89 84 ?1 29 8
7 543 0 89 90 84 -.00800926694468655 -.01077724135823608 .01116650830292256 18 8
9 501 0 91 86 92 87 ?1 29 90 544 0 92 93 87 .01332673305531344 -.010777241358236
08 .01116650830292256 18 92 499 0 94 89 95 90 ?1 29 93 545 0 95 96 90 .013326733
05531344 -.01077724135823604 .02183450830292255 18 95 497 0 97 92 98 93 ?1 29 96
 546 0 98 99 93 -.00800926694468655 -.01077724135823604 .02183450830292255 18 98
 491 0 100 95 101 96 ?1 29 99 549 0 101 102 96 .01332673305531344 -.024239241358
23605 .0218345083029226 18 101 489 0 103 98 104 99 ?1 29 102 550 0 104 105 99 -.
00800926694468655 -.02423924135823605 .0218345083029226 18 104 503 0 106 101 107
 102 ?1 29 105 656 0 107 108 102 -.00800926694468655 -.02423924135823605 .007102
50830292261 18 107 614 0 109 104 110 105 ?1 29 108 657 0 110 111 105 .0133267330
5531344 -.02423924135823605 .00710250830292261 18 110 612 0 112 107 113 108 ?1 2
9 111 658 0 113 114 108 .01332673305531344 -.01382524135823604 .0071025083029225
8 18 113 610 0 115 110 116 111 ?1 29 114 659 0 116 117 111 -.00800926694468655 -
.01382524135823604 .00710250830292258 18 116 604 0 118 113 119 114 ?1 29 117 662
 0 119 120 114 .01332673305531344 -.01382524135823604 .01116650830292258 18 119
 602 0 121 116 122 117 ?1 29 120 663 0 122 123 117 -.00800926694468655 -.0138252
4135823604 .01116650830292258 18 122 616 0 124 119 125 120 ?1 29 123 794 0 125 1
26 120 .01104073305531344 -.01077724135823604 .02183450830292255 18 125 749 0 12
7 122 128 123 ?1 29 126 795 0 128 129 123 .01104073305531344 -.01077724135823604
 .02488250830292255 18 128 747 0 130 125 131 126 ?1 29 129 796 0 131 132 126 -.0
0572326694468655 -.01077724135823604 .02488250830292255 18 131 741 0 133 128 134
 129 ?1 29 132 797 0 134 135 129 -.00572326694468655 -.02423924135823605 .021834
5083029226 18 134 745 0 136 131 137 132 ?1 29 135 798 0 137 138 132 .01104073305
531344 -.02423924135823605 .0218345083029226 18 137 743 0 139 134 140 135 ?1 29
 138 799 0 140 141 135 .01104073305531344 -.02423924135823605 .0248825083029226
 18 140 739 0 142 137 143 138 ?1 29 141 800 0 143 144 138 -.00572326694468655 -.
02423924135823605 .0248825083029226 18 143 753 0 145 140 146 141 ?1 29 144 872 0
 146 147 141 -.001913266944686555 -.02423924135823605 .002732547467446925 18 146
 843 0 148 143 149 144 ?1 29 147 873 0 149 150 144 .00723073305531345 -.02423924
135823625 .002742341394619055 18 149 842 0 151 146 152 147 ?1 29 150 874 0 152 1
53 147 -.001913266944686555 -.02423924135823605 .00710250830292262 18 152 844 0
 154 149 155 150 ?1 29 153 1105 0 155 156 150 -.00872207954750512 -.006217430879
43268 .0152305083029226 18 155 1014 0 157 152 158 153 ?1 29 156 1106 0 158 159 1
53 -.01179467324609584 -.00685600558420927 .00990861990594749 18 158 1015 0 160
 155 161 156 ?1 29 159 1107 0 161 162 156 -.01793986064327725 -.0086230450608144
6 .0099086199059475 18 161 1018 0 163 158 164 159 ?1 29 162 1108 0 164 165 159 -
.021012454341868 -.00976619928463364 .0152305083029226 18 164 1019 0 166 161 167
 162 ?1 29 165 1110 0 167 168 162 -.01179467324609584 -.00685600558420927 .02055
23966998977 18 167 1001 0 30 164 169 165 ?1 29 168 1117 0 169 170 165 -.01179467
324609584 -.01331039479140238 .0205523966998977 18 169 1002 0 171 167 172 168 ?1
 29 170 1118 0 172 173 168 -.01793986064327725 -.01331039479140238 .020552396699
8977 18 172 1012 0 32 169 174 170 ?1 29 173 1119 0 174 175 170 -.021012454341868
 -.0133103947914024 .0152305083029226 18 174 1010 0 176 172 177 173 ?1 29 175 11
20 0 177 178 173 -.01793986064327725 -.01331039479140242 .00990861990594752 18 1
77 1008 0 179 174 180 175 ?1 29 178 1121 0 180 181 175 -.01179467324609584 -.013
31039479140242 .00990861990594752 18 180 1006 0 182 177 183 178 ?1 29 181 1122 0
 183 184 178 -.00872207954750512 -.0133103947914024 .0152305083029226 18 183 100
4 0 185 180 186 181 ?1 29 184 1315 0 186 187 181 .0263299204524949 -.00976619928
463366 .0152305083029226 18 186 1224 0 17 183 188 184 ?1 29 187 1316 0 188 189 1
84 .02325732675390415 -.00862304506081447 .0099086199059475 18 188 1225 0 190 18
6 191 187 ?1 29 189 1317 0 191 192 187 .01711213935672275 -.00685600558420927 .0
0990861990594749 18 191 1228 0 193 188 194 189 ?1 29 192 1318 0 194 195 189 .014
039545658132 -.00621743087943269 .0152305083029226 18 194 1229 0 196 191 197 192
 ?1 29 195 1320 0 197 198 192 .02325732675390415 -.00862304506081447 .0205523966
998977 18 197 1211 0 22 194 199 195 ?1 29 198 1327 0 199 200 195 .02325732675390
415 -.01331039479140238 .0205523966998977 18 199 1212 0 201 197 202 198 ?1 29 20
0 1328 0 202 203 198 .0171121393567227 -.01331039479140238 .0205523966998977 18
 202 1222 0 24 199 204 200 ?1 29 203 1329 0 204 205 200 .014039545658132 -.01331
03947914024 .0152305083029226 18 204 1220 0 206 202 207 203 ?1 29 205 1330 0 207
 208 203 .01711213935672275 -.01331039479140242 .00990861990594752 18 207 1218 0
 209 204 210 205 ?1 29 208 1331 0 210 211 205 .02325732675390415 -.0133103947914
0242 .00990861990594752 18 210 1216 0 212 207 213 208 ?1 29 211 1332 0 213 0 208
 .0263299204524949 -.0133103947914024 .0152305083029226 18 213 1214 0 214 210 0
 211 ?1 17 214 0 215 216 17 213 217 218 0 219 +15 215 1243 0 17 220 0 17 216 0 2
15 221 214 199 222 223 0 0 -17 17 0 215 214 221 186 224 8 0 217 +17 217 0 225 19
0 219 186 214 218 0 226 -16 218 1165 0 ?214 227 228 229 0 0 1 17 219 0 225 217 2
12 213 230 231 0 222 -15 225 1246 0 190 232 0 17 212 0 225 219 190 210 233 228 0
 230 +17 230 0 234 235 222 210 219 231 0 236 +16 231 1166 0 ?230 237 223 238 0 0
 1 17 222 0 234 230 239 213 216 223 0 0 +15 234 1286 0 222 240 0 17 239 0 234 22
2 241 199 23 242 0 216 +16 223 1163 0 ?222 231 0 243 0 0 1 30 243 1309 0 223 244
 245 0 +.02325732675390415 -.01331039479140238 .0205523966998977 .5 -30011825825
09015e-30 -.866025403784438 30 244 1310 0 242 246 243 0 +.0171121393567227 -.013
31039479140238 .0205523966998977 1 45061410204773e-30 476363970129459e-30 30 245
 1302 0 247 243 248 0 +.02325732675390415 -.00543639479140238 .0205523966998977
 450614102047714e-31 -1 349148336110938e-29 16 247 1162 0 ?201 25 242 245 0 0 1
 30 248 1301 0 25 245 249 0 +.0171121393567227 -.00543639479140238 .020552396699
8977 450614102047714e-31 -1 349148336110938e-29 16 25 1177 0 ?24 250 247 248 0 0
 1 30 249 1300 0 250 248 251 0 +.014039545658132 -.0054363947914024 .01523050830
29226 450614102047714e-31 -1 349148336110938e-29 16 250 1174 0 ?206 252 25 249 0
 0 1 30 251 1299 0 252 249 253 0 +.01711213935672275 -.00543639479140242 .009908
61990594749 450614102047714e-31 -1 349148336110938e-29 16 252 1171 0 ?209 228 25
0 251 0 0 1 30 253 1298 0 228 251 229 0 +.02325732675390415 -.00543639479140242
 .00990861990594749 450614102047714e-31 -1 349148336110938e-29 16 228 1168 0 ?21
2 218 252 253 0 0 1 30 229 1297 0 218 253 254 0 +.0263299204524949 -.00543639479
14024 .0152305083029226 450614102047714e-31 -1 349148336110938e-29 30 254 1104 0
 255 229 256 0 +-.00872207954750512 -.0133103947914024 .0152305083029226 -.5 -30
4624399271379e-29 -.866025403784439 16 255 956 0 ?257 258 259 254 0 0 1 30 256 1
103 0 258 254 260 0 +-.01179467324609584 -.01331039479140242 .00990861990594752
 -1 -450614102047714e-31 308148791101958e-47 16 258 959 0 ?261 262 255 256 0 0 1
 30 260 1102 0 262 256 263 0 +-.01793986064327725 -.01331039479140242 .009908619
90594752 -.5 3001182582509015e-30 .866025403784439 16 262 962 0 ?264 265 258 260
 0 0 1 30 263 1101 0 265 260 266 0 +-.021012454341868 -.0133103947914024 .015230
5083029226 .5 304624399271379e-29 .866025403784439 16 265 965 0 ?267 268 262 263
 0 0 1 30 266 1100 0 268 263 269 0 +-.01793986064327725 -.01331039479140238 .020
5523966998977 1 45061410204773e-30 476363970129459e-30 16 268 968 0 ?270 271 265
 266 0 0 1 30 269 1099 0 259 266 272 0 +-.01179467324609584 -.01331039479140238
 .0205523966998977 .5 -3001182582509015e-30 -.866025403784438 16 259 953 0 ?273
 255 227 269 0 0 1 30 272 1092 0 271 269 274 0 +-.01179467324609584 -.0054363947
9140238 .0205523966998977 450614102047714e-31 -1 349148336110938e-29 16 271 952
 0 ?171 33 268 272 0 0 1 30 274 1091 0 33 272 275 0 +-.01793986064327725 -.00543
639479140238 .0205523966998977 450614102047714e-31 -1 349148336110938e-29 16 33
 967 0 ?32 276 271 274 0 0 1 30 275 1090 0 276 274 277 0 +-.021012454341868 -.00
54363947914024 .0152305083029226 450614102047714e-31 -1 349148336110938e-29 16 2
76 964 0 ?176 278 33 275 0 0 1 30 277 1089 0 278 275 279 0 +-.01793986064327725
 -.00543639479140242 .00990861990594749 450614102047714e-31 -1 349148336110938e-
29 16 278 961 0 ?179 280 276 277 0 0 1 30 279 1088 0 280 277 281 0 +-.0117946732
4609584 -.00543639479140242 .00990861990594749 450614102047714e-31 -1 3491483361
10938e-29 16 280 958 0 ?182 282 278 279 0 0 1 30 281 1087 0 282 279 283 0 +-.008
72207954750512 -.0054363947914024 .0152305083029226 450614102047714e-31 -1 34914
8336110938e-29 16 282 955 0 ?185 284 280 281 0 0 1 31 283 915 0 285 281 286 0 +-
.01486726694468656 -.02423924135823605 .0152305083029226 -450614102047714e-31 1
 -3292315422023795e-30 1 450614102047714e-31 -308148791101958e-47 .0041656 16 28
5 890 0 ?287 288 284 283 0 0 1 38 286 869 0 288 283 289 0 +290 291 292 293 293 1
6 288 833 0 ?294 295 285 286 0 0 1 30 289 868 0 295 286 296 0 +.0072307330553134
5 -.02423924135823605 .001495235208933596 0 3231085104332675e-30 1 51 290 396 0
 297 298 299 300 +.002590896110220945 49.9757607586418 .0660727148494721 4506141
02047714e-31 -1 -612303176911189e-31 .0635001125101979 -1 -450614102047714e-31 3
08148791101958e-47 51 291 863 0 301 302 303 304 -.002658733055313445 -.024239241
35823605 .001495235208933596 0 3231085104332675e-30 1 .004572 -1 0 0 40 20 292 0
 1 20 .0002586626706325655 .3381751817188075 ??-.001913266944686555 -.0242392413
5823605 .002732547467446925 -.001656290768091375 -.02575045061027525 .0027147974
8763916 -.000914668838857026 -.027091255191081 .00266943967227041 .0002301842470
820125 -.02811291334822665 .00261649901282294 .001650565918870335 -.028698701305
91985 .002579565077710015 .00318249709137252 -.02878114131690215 .00257535823451
306 .00465268561794465 -.0283535258863134 .002606083358317395 .00589993301713062
 -.02746380439956685 .002658879107128735 .00678475869753113 -.02620878353848055
 .002711245442529215 .00720421446299776 -.02473095547476745 .002740404118028445
 .00711125748872315 -.023200872363182 .002733701423180515 .00651893586002479 -.0
2178933966500455 .002694210666017605 .00549203316845828 -.02065098349837515 .002
6389092520029 .004143494270013125 -.01991504569484115 .002591585938886425 .00262
8166000962655 -.01966734354056905 .00257261327661298 .00111961983914855 -.019934
0915922202 .00258964911582662 -.0002155692060273375 -.02068374272788175 .0026346
5024125078 -.001230013638347658 -.0218349050355599 .002687661899257925 -.0018069
2964890712 -.0232589145697959 .00272507545067123 -.001913266944686555 -.02423924
135823605 .00273254746744692 41 1 293 H-.001913266944686555 -.02423924135823605
 .002732547467446925 14 301 848 0 ?305 306 307 3 291 +0 0 305 306 16 51 302 912
 0 308 309 291 0 --.01486726694468746 20.025760758643 .0152305083028566 45061410
2047714e-31 -1 3292315422023795e-30 .0041656 -1 -450614102047714e-31 30814879110
1958e-47 50 303 777 0 306 291 310 0 +.01104073305531344 -.01077724135823604 .024
88250830292255 -1 -450614102047714e-31 308148791101958e-47 -450614102047714e-31
 1 -3292315422023795e-30 141 304 286 304 304 291 14 306 761 0 ?301 311 312 3 303
 +0 0 301 311 16 50 310 775 0 311 303 313 0 +-.00572326694468655 -.0107772413582
3604 .02183450830292255 1 450614102047714e-31 -308148791101958e-47 4506141020477
14e-31 -1 3292315422023795e-30 14 311 755 0 ?306 314 315 3 310 +0 0 306 314 16 5
0 313 642 0 316 310 317 0 +-.00800926694468655 -.01382524135823604 .007102508302
92258 0 -3430253043418265e-30 -1 1 0 0 14 316 811 0 ?318 297 319 3 313 -0 0 318
 297 16 50 317 639 0 314 313 320 0 +-.00800926694468655 -.01382524135823604 .007
10250830292258 0 -1 3430253043418265e-30 0 -3430253043418265e-30 -1 14 314 621 0
 ?311 321 322 3 317 +0 0 311 321 16 50 320 529 0 321 317 323 0 +-.00800926694468
655 -.01077724135823604 .02183450830292255 -450614102047714e-31 1 -3292315422023
795e-30 1 450614102047714e-31 -308148791101958e-47 14 321 517 0 ?314 324 325 3 3
20 -0 0 314 324 16 50 323 528 0 326 320 327 0 +.01332673305531344 -.010777241358
23608 .01116650830292256 -1486787392038808e-46 3292315422023795e-30 1 4506141020
47714e-31 -1 3292315422023795e-30 14 326 561 0 ?328 329 330 3 323 +0 0 328 329 1
6 50 327 527 0 324 323 331 0 +.01332673305531344 -.01077724135823604 .0218345083
0292255 -1 -450614102047714e-31 3081487911019575e-48 -450614102047714e-31 1 -329
2315422023795e-30 14 324 511 0 ?321 332 333 3 327 +0 0 321 332 16 50 331 526 0 3
34 327 298 0 +-.00800926694468655 -.01077724135823604 .02183450830292255 1486787
392038808e-46 -3292315422023795e-30 -1 -450614102047714e-31 1 -3292315422023795e
-30 14 334 685 0 ?329 318 335 3 331 +329 329 329 318 16 50 298 525 0 332 331 290
 0 +-.00800926694468655 -.01077724135823608 .01116650830292256 1 450614102047714
e-31 -3081487911019575e-48 450614102047714e-31 -1 3292315422023795e-30 14 332 50
5 0 ?324 336 337 3 298 +0 0 324 336 16 14 336 256 0 ?332 338 339 3 340 -0 0 332
 338 16 15 337 507 0 341 332 0 13 16 3 0 0 0 0 0 0 7 10 14 10 1159 0 ?342 0 343
 3 4 -0 0 342 0 16 14 342 1131 0 ?308 10 344 3 299 +0 0 308 10 16 15 343 947 0 3
45 10 346 17 345 0 343 347 348 167 157 349 0 0 -15 346 302 0 350 10 351 17 350 0
 346 352 353 74 43 354 0 355 -15 351 1157 0 224 10 0 17 224 0 351 356 226 197 17
 8 0 0 -17 356 0 351 357 224 9 22 358 0 0 -17 226 0 351 224 359 186 190 18 0 0 -
17 359 0 351 226 360 188 193 361 0 0 -17 190 0 225 212 217 188 226 18 0 233 +16
 18 1153 0 ?190 8 361 14 0 0 1 16 361 1149 0 ?193 18 362 363 0 0 1 32 14 1155 0
 18 363 5 0 +.00265873305531345 -.0686892413582361 -.02576919094447955 -.8660254
03784439 170671735458701e-29 .5 -.5 985373724101415e-30 -.866025403784439 .127 .
0635 31 363 1151 0 361 364 14 0 +.00265873305531345 -.0686892413582361 .00990861
990594771 -1576535274066555e-46 349148336110938e-29 1 0 -1 349148336110938e-29 .
0635 32 364 1147 0 362 365 363 0 +.00265873305531345 -.0686892413582361 .0349426
5396242475 .866025403784439 1784766006522375e-30 .5 .5 1030435134306186e-30 -.86
6025403784439 .127 .0635 16 362 1145 0 ?196 361 366 364 0 0 1 32 365 1143 0 366
 367 364 0 +.00265873305531345 -.0686892413582361 -.00448163735657917 .866025403
784439 -1706717354587005e-30 -.5 -.5 985373724101413e-30 -.866025403784439 .127
 .0635 16 366 1141 0 ?26 362 358 365 0 0 1 31 367 1139 0 358 368 365 0 +.0026587
3305531345 -.0686892413582361 .0205523966998979 476363970129459e-30 -34914833611
0938e-29 -1 0 1 -349148336110938e-29 .0635 16 358 1137 0 ?22 366 349 367 0 0 1 3
1 368 1130 0 227 369 367 0 +.02018473305531345 -.0133103947914018 .0152305083029
2255 -450614102047714e-31 1 -349148336110938e-29 0 349148336110938e-29 1 .004165
6 16 227 1210 0 ?370 259 218 368 0 0 1 32 369 948 0 349 371 368 0 +.002658733055
31345 -.0686892413582361 -.004481637356579135 -.866025403784439 -178476600652237
5e-30 -.5 .5 1030435134306188e-30 -.866025403784439 .127 .0635 16 349 946 0 ?157
 358 372 369 0 0 1 32 371 945 0 372 373 369 0 +.00265873305531345 -.068689241358
2361 .03494265396242475 -.866025403784439 170671735458701e-29 .5 -.5 98537372410
1415e-30 -.866025403784439 .127 .0635 16 372 943 0 ?160 349 374 371 0 0 1 31 373
 941 0 374 375 371 0 +.00265873305531345 -.0686892413582361 .00990861990594771 -
1576535274066555e-46 349148336110938e-29 1 0 -1 349148336110938e-29 .0635 16 374
 939 0 ?163 372 376 373 0 0 1 32 375 937 0 376 377 373 0 +.00265873305531345 -.0
686892413582361 -.0257691909444795 .866025403784439 1784766006522375e-30 .5 .5 1
030435134306186e-30 -.866025403784439 .127 .0635 16 376 935 0 ?166 374 378 375 0
 0 1 32 377 933 0 378 379 375 0 +.00265873305531345 -.0686892413582361 .05623020
75503252 .866025403784439 -1706717354587005e-30 -.5 -.5 985373724101413e-30 -.86
6025403784439 .127 .0635 16 378 931 0 ?34 376 380 377 0 0 1 31 379 929 0 380 381
 377 0 +.00265873305531345 -.0686892413582361 .0205523966998979 476363970129459e
-30 -349148336110938e-29 -1 0 1 -349148336110938e-29 .0635 16 380 927 0 ?30 378
 382 379 0 0 1 31 381 920 0 284 383 379 0 +-.01486726694468656 -.013310394791401
8 .01523050830292255 -450614102047714e-31 1 -349148336110938e-29 0 3491483361109
38e-29 1 .0041656 16 284 1000 0 ?384 285 282 381 0 0 1 31 383 810 0 382 385 381
 0 -.002658733055313445 -.02423924135823605 .00710250830292261 0 -34302530434182
65e-30 -1 0 1 -3430253043418265e-30 .004572 16 382 808 0 ?154 380 386 383 0 0 1
 30 385 255 0 386 387 383 0 +.03123373305531345 49.9757607586418 .00939950971208
258 450614102047714e-31 -1 -612303176911189e-31 16 386 253 0 ?82 382 388 385 0 0
 1 30 387 129 0 388 389 385 0 +-.02591626694468655 -.01198192811734972 .02488250
83029226 0 0 -1 16 388 105 0 ?355 386 390 387 0 0 1 30 389 128 0 390 391 387 0 +
-.02591626694468655 -.01407924135823604 .0248825083029226 0 0 -1 16 390 104 0 ?3
92 388 393 389 0 0 1 30 391 127 0 393 394 389 0 +-.02197926694468655 -.014079241
35823604 .0248825083029226 0 0 -1 16 393 103 0 ?395 390 396 391 0 0 1 30 394 126
 0 396 397 391 0 +-.02197926694468655 -.02423924135823605 .0248825083029226 0 0
 -1 16 396 102 0 ?398 393 399 394 0 0 1 30 397 125 0 399 400 394 0 +.02729673305
531345 -.02423924135823605 .0248825083029226 0 0 -1 16 399 101 0 ?401 396 402 39
7 0 0 1 30 400 124 0 402 403 397 0 +.02729673305531345 -.01407924135823604 .0248
825083029226 0 0 -1 16 402 100 0 ?404 399 405 400 0 0 1 30 403 123 0 405 406 400
 0 +.03123373305531345 -.01407924135823604 .0248825083029226 0 0 -1 16 405 99 0
 ?407 402 408 403 0 0 1 30 406 122 0 408 409 403 0 +.03123373305531345 -.0119819
2811734972 .0248825083029226 0 0 -1 16 408 98 0 ?353 405 410 406 0 0 1 31 409 41
 0 411 412 406 0 +.00265873305531345 -.0686892413582361 .0248825083029226 0 0 1
 1 0 0 .0635 16 411 40 0 ?413 414 415 409 0 0 1 30 412 37 0 410 416 409 0 +.0312
3373305531345 -.01407924135823604 .0248825083029226 0 1 0 16 410 36 0 ?46 408 41
7 412 0 0 1 30 416 32 0 417 418 412 0 +.02729673305531345 -.01407924135823604 .0
248825083029226 1 0 0 16 417 31 0 ?49 410 419 416 0 0 1 30 418 27 0 419 420 416
 0 +.02729673305531345 -.02423924135823605 .0248825083029226 0 1 0 16 419 26 0 ?
52 417 421 418 0 0 1 30 420 22 0 421 422 418 0 +-.02197926694468655 -.0242392413
5823605 .0248825083029226 1 0 0 16 421 21 0 ?423 419 424 420 424 424 1 30 422 17
 0 425 426 420 0 +-.02197926694468655 -.01407924135823604 .0248825083029226 0 -1
 0 16 425 16 0 ?58 424 427 422 0 0 1 30 426 12 0 427 428 422 0 +-.02591626694468
655 -.01407924135823604 .0248825083029226 1 0 0 16 427 11 0 ?61 425 414 426 0 0
 1 30 428 7 0 414 429 426 0 +-.02591626694468655 -.01198192811734972 .0248825083
029226 0 -1 0 16 414 6 0 ?64 427 411 428 0 0 1 31 429 245 0 415 430 428 0 +.0201
8473305531345 -.02423924135823605 .0152305083029226 -450614102047714e-31 1 -3292
315422023795e-30 1 450614102047714e-31 -308148791101958e-47 .0041656 16 415 219
 0 ?431 411 432 429 0 0 1 30 430 400 0 432 433 429 0 --.02197926694468655 49.975
7607586418 .00751871091922794 450614102047714e-31 -1 -612303176911189e-31 16 432
 316 0 ?70 415 434 430 0 0 1 31 433 401 0 434 435 430 0 +.0025908961102232 -.014
079241358237 .066072714849469 0 1 0 0 0 1 .0635001125101979 16 434 317 0 ?73 432
 436 433 0 0 1 30 435 402 0 436 437 433 0 --.02591626694468655 49.9757607586418
 .00933114328709195 450614102047714e-31 -1 -612303176911189e-31 16 436 318 0 ?76
 434 354 435 0 0 1 38 437 403 0 354 438 435 0 +4 290 439 440 441 16 354 319 0 ?4
3 436 442 437 0 0 1 30 438 404 0 442 443 437 0 +.02729673305531345 49.9757607586
418 .00757582681557501 450614102047714e-31 -1 -612303176911189e-31 40 6 439 0 1
 6 .00335094797166038 .375707826915816 ??-.03084463810100105 -.01474691918758332
 .01208818613227226 -.01616106254280885 -.00804218624716821 .00540453261625251 .
000958280835304163 -.00521201345525127 .00259359343012444 .01663960893334505 -.0
067474532852148 .00414616192730774 .0303938863626605 -.01156646769467908 .008982
80311516463 .0362461193837218 -.01479919144523032 .0122248714830096 41 1 440 L-.
03084463810100105 -.01474691918758332 .01208818613227226 41 1 441 L.036246119383
7218 -.01479919144523032 .0122248714830096 16 442 322 0 ?444 354 445 438 0 0 1 3
1 443 405 0 445 446 438 0 +.0025908961102232 -.014079241358237 .066072714849469
 0 1 0 0 0 1 .0635001125101979 16 445 321 0 ?79 442 447 443 0 0 1 31 446 420 0 4
47 448 443 0 +.0025908961102232 -.02423924135823605 .066072714849469 45061410204
7714e-31 -1 -612303176911189e-31 -1 -450614102047714e-31 308148791101958e-47 .06
35001125101979 16 447 306 0 ?449 445 450 446 450 450 1 30 448 531 0 451 452 446
 0 +-.00800926694468655 -.01077724135823604 .02183450830292255 450614102047714e-
31 -1 3292315422023795e-30 16 451 471 0 ?453 450 454 448 0 0 1 30 452 532 0 454
 455 448 0 +.01332673305531344 -.01077724135823604 .02183450830292255 4506141020
47714e-31 -1 3292315422023795e-30 16 454 475 0 ?456 451 457 452 0 0 1 30 455 533
 0 457 458 452 0 +.01332673305531344 -.01077724135823608 .01116650830292256 4506
14102047714e-31 -1 3292315422023795e-30 16 457 479 0 ?459 454 460 455 0 0 1 30 4
58 534 0 460 461 455 0 +-.00800926694468655 -.01077724135823608 .011166508302922
56 450614102047714e-31 -1 3292315422023795e-30 16 460 467 0 ?462 457 463 458 0 0
 1 30 461 535 0 464 465 458 0 +-.00800926694468655 -.01077724135823608 .01116650
830292256 -1486787392038808e-46 3292315422023795e-30 1 16 464 481 0 ?466 467 468
 461 0 0 1 30 465 536 0 463 469 461 0 +.01332673305531344 -.01077724135823608 .0
1116650830292256 -1 -450614102047714e-31 308148791101958e-47 16 463 487 0 ?91 46
0 470 465 0 0 1 30 469 537 0 470 471 465 0 +.01332673305531344 -.010777241358236
04 .02183450830292255 1486787392038808e-46 -3292315422023795e-30 -1 16 470 485 0
 ?94 463 472 469 0 0 1 30 471 538 0 472 473 469 0 +-.00800926694468655 -.0107772
4135823604 .02183450830292255 1 450614102047714e-31 -308148791101958e-47 16 472
 483 0 ?474 470 467 471 467 467 1 30 473 539 0 475 476 471 0 +-.0080092669446865
5 -.0242392413582361 .0111665083029226 -1486787392038808e-46 3292315422023795e-3
0 1 16 475 465 0 ?477 478 479 473 0 0 1 30 476 541 0 468 480 473 0 +.01332673305
531344 -.02423924135823605 .0218345083029226 1486787392038808e-46 -3292315422023
795e-30 -1 16 468 473 0 ?112 464 481 476 0 0 1 30 480 542 0 481 482 476 0 +-.008
00926694468655 -.02423924135823605 .0218345083029226 1 450614102047714e-31 -3081
48791101958e-47 16 481 469 0 ?483 468 478 480 478 478 1 30 482 644 0 479 484 480
 0 +-.00800926694468655 -.01382524135823604 .00710250830292258 0 343025304341826
5e-30 1 16 479 584 0 ?485 475 486 482 0 0 1 30 484 645 0 486 487 482 0 +.0133267
3305531344 -.01382524135823604 .00710250830292258 0 3430253043418265e-30 1 16 48
6 588 0 ?121 479 488 484 0 0 1 30 487 648 0 489 490 484 0 +-.00800926694468655 -
.02423924135823605 .00710250830292261 0 1 -3430253043418265e-30 16 489 594 0 ?49
1 492 493 487 0 0 1 30 490 649 0 488 494 487 0 +.01332673305531344 -.02423924135
823605 .00710250830292261 -1 0 0 16 488 600 0 ?495 486 496 490 496 496 1 30 494
 650 0 497 498 490 0 +.01332673305531344 -.01382524135823604 .00710250830292258
 0 -1 3430253043418265e-30 16 497 598 0 ?499 496 492 494 0 0 1 30 498 651 0 492
 500 494 0 +-.00800926694468655 -.01382524135823604 .00710250830292258 1 0 0 16
 492 596 0 ?115 497 489 498 0 0 1 30 500 655 0 493 501 498 0 +-.0080092669446865
5 -.01382524135823604 .01116650830292258 1 0 0 16 493 582 0 ?502 489 503 500 0 0
 1 30 501 781 0 503 504 500 0 +-.00572326694468655 -.01077724135823604 .02488250
830292255 450614102047714e-31 -1 3292315422023795e-30 16 503 721 0 ?145 493 505
 501 0 0 1 30 504 782 0 505 506 501 0 +.01104073305531344 -.01077724135823604 .0
2488250830292255 450614102047714e-31 -1 3292315422023795e-30 16 505 725 0 ?507 5
03 508 504 0 0 1 30 506 783 0 508 509 504 0 +.01104073305531344 -.01077724135823
604 .02183450830292255 450614102047714e-31 -1 3292315422023795e-30 16 508 729 0
 ?139 505 510 506 0 0 1 30 509 784 0 510 511 506 0 +-.00572326694468655 -.010777
24135823604 .02183450830292255 450614102047714e-31 -1 3292315422023795e-30 16 51
0 717 0 ?512 508 513 509 0 0 1 30 511 785 0 514 515 509 0 +-.00572326694468655 -
.01077724135823604 .02183450830292255 -1486787392038808e-46 3292315422023795e-30
 1 16 514 731 0 ?516 517 518 511 0 0 1 30 515 787 0 513 519 511 0 +.011040733055
31344 -.01077724135823604 .02488250830292255 1486787392038808e-46 -3292315422023
795e-30 -1 16 513 735 0 ?127 510 517 515 0 0 1 30 519 788 0 517 520 515 0 +-.005
72326694468655 -.01077724135823604 .02488250830292255 1 450614102047714e-31 -308
148791101958e-47 16 517 733 0 ?521 513 514 519 0 0 1 30 520 789 0 522 523 519 0
 +-.00572326694468655 -.02423924135823605 .0218345083029226 -1486787392038808e-4
6 3292315422023795e-30 1 16 522 715 0 ?524 518 525 520 0 0 1 30 523 791 0 518 29
6 520 0 +.01104073305531344 -.02423924135823605 .0248825083029226 14867873920388
08e-46 -3292315422023795e-30 -1 16 518 723 0 ?526 514 522 523 0 0 1 30 296 867 0
 525 289 523 0 --.001913266944686555 -.02423924135823605 .001495235208933596 0 3
231085104332675e-30 1 16 525 836 0 ?148 522 295 296 0 0 1 17 148 0 307 151 154 1
46 527 525 0 294 +16 295 837 0 ?35 525 288 289 0 0 1 17 35 0 307 154 151 28 528
 295 0 529 +15 307 850 0 148 301 0 17 154 0 307 148 35 152 529 382 0 527 +17 151
 0 307 35 148 149 294 288 0 528 -17 528 0 530 85 495 149 35 295 0 531 -17 529 0
 319 532 533 28 154 382 0 495 -15 319 809 0 529 316 0 17 532 0 319 534 529 110 4
95 488 0 0 -17 533 0 319 529 535 152 109 496 0 0 -17 495 0 530 528 112 28 532 48
8 0 0 +15 530 824 0 528 536 0 17 112 0 530 495 103 110 537 468 0 499 +17 103 0 5
30 112 526 101 538 478 0 456 +17 537 0 333 539 499 101 112 468 0 0 -17 499 0 333
 537 540 110 534 497 0 532 +15 333 513 0 537 324 0 17 540 0 333 499 459 113 121
 486 0 534 -17 534 0 319 118 532 113 499 497 0 0 -17 118 0 319 535 534 116 115 4
92 0 491 -17 535 0 319 533 118 107 491 489 0 0 -17 115 0 322 121 541 113 118 492
 0 540 +17 491 0 337 485 341 116 535 489 0 541 +17 485 0 337 542 491 122 541 479
 0 462 +17 341 0 337 491 453 107 477 475 0 535 -17 541 0 322 115 124 116 485 479
 0 0 -15 322 623 0 124 314 0 17 124 0 322 541 121 122 502 493 0 485 -17 121 0 32
2 124 115 119 540 486 0 502 +17 502 0 330 543 462 119 124 493 0 459 +15 330 516
 0 462 326 0 17 543 0 330 91 502 92 459 457 0 544 -17 462 0 330 502 91 122 542 4
60 0 0 +17 459 0 333 540 94 119 543 457 0 0 +17 94 0 333 459 539 92 545 470 0 54
3 +17 539 0 333 94 537 95 456 454 0 545 -17 545 0 325 546 544 95 94 470 0 0 -15
 325 519 0 547 321 0 17 546 0 325 548 545 125 97 467 0 0 -17 544 0 325 545 547 9
2 91 463 0 0 -17 547 0 325 544 100 89 466 464 0 0 -17 91 0 330 462 543 89 544 46
3 0 542 +17 542 0 337 466 485 89 462 460 0 547 -17 466 0 337 453 542 98 547 464
 0 549 +17 453 0 337 341 466 104 549 451 0 477 +17 549 0 335 474 106 98 453 451
 0 0 -15 335 678 0 474 334 0 17 474 0 335 512 549 36 100 472 0 0 +17 106 0 335 5
49 512 104 483 481 0 453 -17 512 0 335 106 474 134 550 510 0 483 +17 483 0 551 5
24 477 134 106 481 0 0 +15 551 828 0 527 552 553 17 524 0 551 554 483 143 136 52
2 0 423 +17 477 0 551 483 109 104 341 475 0 0 +17 109 0 551 477 527 107 533 496
 0 341 +17 527 0 551 109 449 152 148 525 0 533 -16 496 806 0 ?109 488 497 490 48
8 488 1 17 449 0 551 527 398 146 88 447 0 0 +17 398 0 551 449 554 86 555 396 0 0
 +17 88 0 556 70 294 86 449 447 0 557 -15 556 370 0 531 297 0 17 70 0 556 73 88
 68 557 432 0 558 +17 294 0 556 88 531 146 151 288 0 449 +17 557 0 559 555 395 8
6 70 432 0 398 -15 559 279 0 557 560 0 17 555 0 559 561 557 56 398 396 0 554 -17
 395 0 559 557 561 68 562 393 0 0 +17 561 0 559 395 555 59 58 425 0 0 -17 562 0
 563 564 558 59 395 393 0 561 -15 563 286 0 558 565 0 17 564 0 563 392 562 62 61
 427 0 0 -17 558 0 563 562 392 68 73 434 0 395 -17 392 0 563 558 564 71 566 390
 0 0 +17 73 0 556 76 70 71 558 434 0 567 +17 76 0 556 43 73 74 567 436 0 350 +17
 567 0 568 566 355 71 76 436 0 392 -15 568 293 0 567 328 0 17 566 0 568 67 567 6
2 392 390 0 564 -17 355 0 568 567 67 74 352 388 0 0 +17 67 0 568 355 566 65 64 4
14 0 413 -17 352 0 346 569 350 65 355 388 0 0 -17 569 0 346 353 352 44 413 411 0
 0 -17 353 0 346 350 569 41 570 408 0 0 +17 413 0 571 64 46 65 569 411 0 352 +15
 571 694 0 423 318 0 17 64 0 571 61 413 62 67 414 0 566 +17 46 0 571 413 49 44 5
72 410 0 570 +17 49 0 571 46 52 47 573 417 0 574 +17 572 0 339 407 570 47 46 410
 0 0 -17 570 0 339 572 575 44 353 408 0 569 -15 339 254 0 575 336 0 17 575 0 339
 570 407 41 82 386 0 353 -17 407 0 339 575 572 80 574 405 0 0 +17 82 0 556 79 43
 80 575 386 0 576 +17 79 0 556 444 82 77 576 445 0 577 +17 43 0 556 82 76 41 350
 354 0 575 +17 576 0 578 574 404 80 79 445 0 407 -15 578 262 0 576 338 0 17 574
 0 578 573 576 47 407 405 0 572 -17 404 0 578 576 573 77 579 402 0 0 +17 573 0 5
78 404 574 50 49 417 0 0 -17 579 0 580 581 577 50 404 402 0 573 -15 580 269 0 57
7 582 0 17 581 0 580 401 579 53 52 419 0 0 -17 577 0 580 579 401 77 444 442 0 40
4 -17 401 0 580 577 581 83 583 399 0 0 +17 444 0 556 531 79 83 577 442 0 401 +17
 531 0 556 294 444 149 85 450 0 0 -17 85 0 530 583 528 83 531 450 0 444 +16 450
 817 0 ?85 447 451 446 447 447 1 17 583 0 530 584 85 53 401 399 0 581 -17 584 0
 530 526 583 140 55 424 0 0 -17 526 0 530 103 584 137 142 518 0 538 +17 55 0 571
 52 507 53 584 424 0 583 +16 424 691 0 ?55 421 425 420 421 421 1 17 52 0 571 49
 55 50 581 419 0 579 +17 507 0 571 55 521 140 130 505 0 584 +17 521 0 571 507 58
5 128 133 517 0 0 +17 130 0 312 127 142 128 507 505 0 548 -15 312 763 0 142 306
 0 17 127 0 312 139 130 125 548 513 0 586 +17 142 0 312 130 139 140 526 518 0 50
7 -17 548 0 325 133 546 128 127 513 0 521 -17 133 0 325 40 548 131 521 517 0 516
 -17 40 0 325 100 133 36 516 514 0 550 -17 516 0 315 145 550 131 40 514 0 585 +1
5 315 757 0 136 311 0 17 145 0 315 136 516 143 585 503 0 524 +17 550 0 315 516 1
36 36 512 510 0 474 -17 585 0 571 521 423 131 145 503 0 0 -17 423 0 571 585 58 1
43 554 421 0 0 +17 58 0 571 423 61 56 561 425 0 555 +17 554 0 551 398 524 56 423
 421 0 0 -17 61 0 571 58 64 59 564 427 0 562 +17 136 0 315 550 145 134 524 522 0
 512 -17 100 0 325 547 40 98 474 472 0 466 -17 139 0 312 142 127 137 586 508 0 5
26 +17 586 0 587 97 538 125 139 508 0 546 -15 587 510 0 538 329 0 17 97 0 587 45
6 586 95 546 467 0 539 +17 538 0 587 586 456 137 103 478 0 0 -17 456 0 587 538 9
7 101 539 454 0 537 +16 478 675 0 ?103 481 475 480 481 481 1 16 467 669 0 ?97 47
2 464 471 472 472 1 14 329 680 0 ?326 334 587 3 331 +334 334 326 334 16 14 582 2
70 0 ?338 560 580 3 588 -0 0 338 560 16 14 338 263 0 ?336 582 578 3 589 -0 0 336
 582 16 14 560 280 0 ?582 565 559 3 590 -0 0 582 565 16 50 588 132 0 582 589 591
 0 +.02729673305531345 -.02423924135823605 .0248825083029226 -1 0 0 0 0 1 50 589
 131 0 338 340 588 0 +.02729673305531345 -.01407924135823604 .0248825083029226 0
 1 0 0 0 1 50 591 133 0 552 588 590 0 +-.02197926694468655 -.02423924135823605 .
0248825083029226 0 1 0 0 0 1 14 552 887 0 ?536 308 551 3 591 -536 536 536 308 16
 50 590 134 0 560 591 592 0 +-.02197926694468655 -.01407924135823604 .0248825083
029226 1 0 0 0 0 -1 50 592 135 0 565 590 12 0 +-.02591626694468655 -.01407924135
823604 .0248825083029226 0 1 0 0 0 1 14 565 287 0 ?560 328 563 3 592 -0 0 560 32
8 16 50 12 136 0 328 592 4 0 +-.02591626694468655 -.01198192811734972 .024882508
3029226 1 0 0 0 0 -1 14 328 294 0 ?565 326 568 3 12 -0 0 565 326 16 14 536 825 0
 ?297 552 593 3 591 -552 552 297 552 16 14 308 921 0 ?552 342 594 3 302 +0 0 552
 342 16 15 594 897 0 595 308 596 17 595 0 594 595 595 0 287 285 0 0 -15 596 918
 0 384 308 0 17 384 0 596 384 384 0 597 284 0 0 +17 597 0 598 597 597 0 384 284
 0 0 -15 598 1075 0 597 599 600 14 599 1073 0 ?220 601 598 3 602 +0 0 220 601 16
 15 600 1076 0 273 599 0 17 273 0 600 257 270 183 603 259 0 0 +17 257 0 600 261
 273 180 604 255 0 605 +17 270 0 600 273 267 169 31 268 0 603 +17 603 0 606 607
 185 169 273 259 0 0 -15 606 1033 0 157 305 0 17 607 0 606 157 603 167 171 271 0
 345 -17 185 0 606 603 157 183 608 282 0 604 +17 157 0 606 185 607 155 345 349 0
 608 +17 608 0 609 160 604 155 185 282 0 348 -17 604 0 609 608 182 183 257 255 0
 273 -15 609 1036 0 160 610 0 17 182 0 609 604 160 180 611 280 0 257 +17 160 0 6
09 182 608 158 348 372 0 611 +17 611 0 612 163 605 158 182 280 0 613 -15 612 103
9 0 163 614 0 17 163 0 612 179 611 161 613 374 0 615 +17 605 0 612 611 179 180 2
61 258 0 0 -17 613 0 343 348 616 158 163 374 0 0 -17 348 0 343 345 613 155 160 3
72 0 0 -17 616 0 343 613 617 161 166 376 0 0 -17 617 0 343 616 347 164 34 378 0
 0 -17 166 0 618 176 615 164 616 376 0 619 +15 618 1042 0 166 620 0 17 176 0 618
 621 166 174 619 276 0 264 +17 615 0 618 166 621 161 179 278 0 616 -17 619 0 622
 34 623 164 176 276 0 617 -15 622 1045 0 34 624 0 17 34 0 622 32 619 20 617 378
 0 347 +17 623 0 622 619 32 174 267 265 0 0 -17 32 0 622 623 34 172 27 33 0 267
 +17 267 0 600 270 264 172 623 265 0 31 +17 264 0 600 267 261 174 621 262 0 623
 +17 31 0 29 27 171 172 270 268 0 0 -15 29 1048 0 30 601 0 17 171 0 29 31 30 169
 607 271 0 270 +17 30 0 29 171 27 167 347 380 0 607 +17 347 0 343 617 345 20 30
 380 0 0 -14 601 1046 0 ?599 624 29 3 625 +0 0 599 624 16 14 624 1043 0 ?601 620
 622 3 626 +0 0 601 620 16 50 625 1084 0 601 602 626 0 +-.01793986064327725 -.00
543639479140238 .0205523966998977 476363970129459e-30 -349148336110938e-29 -1 -1
 -45061410204773e-30 -476363970129459e-30 50 602 1086 0 599 627 625 0 +-.0087220
7954750512 -.0133103947914024 .0152305083029226 -450614102047714e-31 1 -34914833
6110938e-29 1 450614102047714e-31 -308148791101958e-47 50 626 1083 0 624 625 628
 0 +-.021012454341868 -.0054363947914024 .0152305083029226 .866025403784439 -170
6717354587005e-30 -.5 -.5 -304624399271379e-29 -.866025403784439 50 628 1082 0 6
20 626 629 0 +-.01793986064327725 -.00543639479140242 .00990861990594749 .866025
403784439 1784766006522375e-30 .5 .5 -3001182582509015e-30 -.866025403784439 14
 620 1040 0 ?624 614 618 3 628 +0 0 624 614 16 50 629 1081 0 614 628 630 0 +-.01
179467324609584 -.00543639479140242 .00990861990594749 -1576535274066555e-46 349
148336110938e-29 1 450614102047714e-31 -1 349148336110938e-29 14 614 1037 0 ?620
 610 612 3 629 +0 0 620 610 16 50 630 1080 0 610 629 309 0 +-.00872207954750512
 -.0054363947914024 .0152305083029226 -.866025403784439 170671735458701e-29 .5 .
5 304624399271379e-29 .866025403784439 14 610 1034 0 ?614 305 609 3 630 +0 0 614
 305 16 50 309 1079 0 305 630 302 0 +-.01179467324609584 -.00543639479140238 .02
05523966998977 -.866025403784439 -1784766006522375e-30 -.5 -.5 3001182582509015e
-30 .866025403784439 14 305 1031 0 ?610 301 606 3 309 +0 0 610 301 16 50 627 128
9 0 220 631 602 0 +.02325732675390415 -.00543639479140238 .0205523966998977 -.86
6025403784439 -1784766006522375e-30 -.5 -.5 3001182582509015e-30 .86602540378443
9 14 220 1241 0 ?232 599 215 3 627 +0 0 232 599 16 50 631 1290 0 232 632 627 0 +
.0263299204524949 -.0054363947914024 .0152305083029226 -.866025403784439 1706717
35458701e-29 .5 .5 304624399271379e-29 .866025403784439 14 232 1244 0 ?633 220 2
25 3 631 +0 0 633 220 16 50 632 1291 0 633 634 631 0 +.02325732675390415 -.00543
639479140242 .00990861990594749 -1576535274066555e-46 349148336110938e-29 1 4506
14102047714e-31 -1 349148336110938e-29 14 633 1247 0 ?635 232 636 3 632 +0 0 635
 232 16 50 634 1292 0 635 637 632 0 +.01711213935672275 -.00543639479140242 .009
90861990594749 .866025403784439 1784766006522375e-30 .5 .5 -3001182582509015e-30
 -.866025403784439 14 635 1250 0 ?638 633 639 3 634 +0 0 638 633 16 50 637 1293
 0 638 640 634 0 +.014039545658132 -.0054363947914024 .0152305083029226 .8660254
03784439 -1706717354587005e-30 -.5 -.5 -304624399271379e-29 -.866025403784439 14
 638 1253 0 ?641 635 642 3 637 +0 0 641 635 16 50 640 1294 0 641 643 637 0 +.017
1121393567227 -.00543639479140238 .0205523966998977 476363970129459e-30 -3491483
36110938e-29 -1 -1 -45061410204773e-30 -476363970129459e-30 14 641 1256 0 ?240 6
38 21 3 640 +0 0 240 638 16 50 643 1296 0 240 0 640 0 +.0263299204524949 -.01331
03947914024 .0152305083029226 -450614102047714e-31 1 -349148336110938e-29 1 4506
14102047714e-31 -308148791101958e-47 14 240 1283 0 ?0 641 644 3 643 +0 0 0 641 1
6 15 644 1285 0 645 240 234 17 645 0 644 645 645 0 370 227 0 0 -17 370 0 646 370
 370 0 645 227 0 0 +15 646 1128 0 370 342 0 15 21 1258 0 22 641 0 17 22 0 21 201
 19 197 356 358 0 221 +17 201 0 21 23 22 199 221 247 0 239 +17 221 0 215 17 216
 197 201 247 0 224 -17 23 0 21 19 201 202 239 242 0 0 -16 242 1178 0 ?239 247 64
7 244 0 0 1 16 647 1175 0 ?241 242 648 246 0 0 1 17 241 0 234 239 649 202 650 64
7 0 23 +16 648 1172 0 ?649 647 237 651 0 0 1 30 246 1311 0 647 651 244 0 +.01403
9545658132 -.0133103947914024 .0152305083029226 .5 304624399271379e-29 .86602540
3784439 30 651 1312 0 648 652 246 0 +.01711213935672275 -.01331039479140242 .009
90861990594752 -.5 3001182582509015e-30 .866025403784439 30 652 1313 0 237 238 6
51 0 +.02325732675390415 -.01331039479140242 .00990861990594752 -1 -450614102047
714e-31 308148791101958e-47 16 237 1169 0 ?235 648 231 652 0 0 1 30 238 1314 0 2
31 0 652 0 +.0263299204524949 -.0133103947914024 .0152305083029226 -.5 -30462439
9271379e-29 -.866025403784439 17 235 0 234 649 230 207 236 237 0 653 +17 649 0 2
34 241 235 204 653 648 0 650 +17 236 0 636 233 209 210 235 237 0 0 -17 653 0 639
 654 206 207 649 648 0 0 -15 639 1252 0 196 635 0 17 654 0 639 196 653 191 209 2
52 0 360 -17 206 0 639 653 196 204 655 250 0 649 +17 196 0 639 206 654 194 360 3
62 0 655 +17 655 0 642 26 650 194 206 250 0 357 -15 642 1255 0 26 638 0 17 26 0
 642 24 655 9 357 366 0 356 +17 650 0 642 655 24 204 241 647 0 0 -17 357 0 351 3
60 356 194 26 366 0 0 -17 360 0 351 359 357 191 196 362 0 0 -17 24 0 642 650 26
 202 19 25 0 241 +17 209 0 636 236 193 207 654 252 0 235 +15 636 1249 0 193 633
 0 17 193 0 636 209 233 191 359 361 0 654 +17 233 0 636 193 236 188 212 228 0 35
9 -17 261 0 600 264 257 177 605 258 0 621 +17 621 0 618 615 176 177 264 262 0 0
 -17 179 0 612 605 163 177 615 278 0 261 +17 287 0 553 287 287 0 595 285 0 0 +15
 553 885 0 287 552 0 14 297 821 0 ?316 536 556 3 290 +0 0 316 536 16 15 593 209
 0 431 536 530 17 431 0 593 431 431 0 656 415 0 0 +17 656 0 344 656 656 0 431 41
5 0 0 -15 344 226 0 656 342 646 50 340 130 0 336 657 589 0 +.03123373305531345 -
.01407924135823604 .0248825083029226 -1 0 0 0 0 1 50 657 44 0 318 299 340 0 +.00
265873305531345 -.0686892413582361 .0248825083029226 0 0 1 1 0 0 14 318 705 0 ?3
34 316 571 3 657 +0 0 334 316 16 51 299 241 0 342 290 657 0 -.02018473305531255
 20.025760758643 .0152305083028566 450614102047714e-31 -1 3292315422023795e-30 .
0041656 -1 -450614102047714e-31 308148791101958e-47 141 300 437 658 658 290 141
 658 286 300 300 290 19 11 139 0 1 0 7 3 S141 13 437 13 13 4 1 0 
