500 0 1 0           
7 Unknown 13 ACIS 5.0.1 NT 24 Thu Jun 17 09:33:20 1999 
25.400000000000002 9.9999999999999995e-007 1e-010 
body $-1 $1 $-1 $2 #
lump $-1 $-1 $3 $0 #
transform $-1 1 0 0 0 1 0 0 0 1 0.10467452973675004 -0.20430084087543429 0.099626311138684961 39.370078740157474 no_rotate no_reflect no_shear #
shell $-1 $-1 $-1 $4 $-1 $1 #
face $-1 $5 $6 $3 $-1 $7 reversed single #
face $-1 $8 $9 $3 $-1 $10 reversed single #
loop $-1 $-1 $11 $4 #
plane-surface $-1 0.01138081260281856 -0.0081211534331663646 0.01270000000000001 -0.8660254037844386 -1.7847660065223757e-015 -0.50000000000000033 -4.5061410204771359e-017 1 -3.4914833611093821e-015 forward_v I I I I #
face $-1 $12 $13 $3 $-1 $14 reversed single #
loop $-1 $-1 $15 $5 #
plane-surface $-1 0.014453406301409278 -0.0081211534331663837 0.0073781116030249162 1.576535274066553e-031 -3.4914833611093821e-015 -1 -4.5061410204771359e-017 1 -3.4914833611093821e-015 forward_v I I I I #
coedge $-1 $16 $17 $18 $19 reversed $6 $-1 #
face $-1 $20 $21 $3 $-1 $22 reversed single #
loop $-1 $-1 $23 $8 #
plane-surface $-1 0.020598593698590711 -0.0081211534331663837 0.0073781116030249162 0.86602540378443871 -1.7067173545870082e-015 -0.50000000000000011 4.5061410204771359e-017 -1 3.4914833611093821e-015 forward_v I I I I #
coedge $-1 $24 $25 $26 $27 reversed $9 $-1 #
coedge $-1 $28 $11 $29 $30 reversed $6 $-1 #
coedge $-1 $11 $28 $24 $31 forward $6 $-1 #
coedge $-1 $26 $32 $11 $19 forward $33 $-1 #
edge $34 $35 -1.3905972855821243 $36 -1.3411710032586051 $18 $37 forward 7 unknown #
face $-1 $38 $39 $3 $-1 $40 reversed single #
loop $-1 $-1 $41 $12 #
plane-surface $-1 0.023671187397181426 -0.0081211534331663646 0.01270000000000001 0.86602540378443837 1.7847660065223761e-015 0.50000000000000044 4.5061410204771359e-017 -1 3.4914833611093821e-015 forward_v I I I I #
coedge $-1 $42 $43 $44 $45 reversed $13 $-1 #
coedge $-1 $46 $15 $17 $31 reversed $9 $-1 #
coedge $-1 $15 $46 $42 $47 forward $9 $-1 #
coedge $-1 $44 $18 $15 $27 forward $33 $-1 #
edge $48 $36 -1.3411710032586064 $49 -1.2404323944462852 $26 $50 forward 7 unknown #
coedge $-1 $17 $16 $51 $52 reversed $6 $-1 #
coedge $-1 $53 $54 $16 $30 forward $55 $-1 #
edge $56 $57 0 $35 0.0070929639119697314 $16 $58 forward 7 unknown #
edge $59 $60 0 $36 0.0064543892071931425 $24 $61 forward 7 unknown #
coedge $-1 $18 $62 $53 $63 forward $33 $-1 #
loop $-1 $64 $65 $66 #
ptlist-eye-attrib $-1 $-1 $-1 $19 #
vertex $-1 $63 $67 #
vertex $-1 $19 $68 #
ellipse-curve $-1 0 -0.063500000000000043 0.032412145659502137 -0.8660254037844386 -1.7847660065223757e-015 -0.50000000000000033 0.063500000000000043 0 -0.10998522628062371 0.50000000000000022 I I #
face $-1 $69 $55 $3 $-1 $70 reversed single #
loop $-1 $-1 $71 $20 #
plane-surface $-1 0.020598593698590704 -0.0081211534331663456 0.018021888396975105 -4.7636397012945887e-016 3.4914833611093821e-015 1 4.5061410204771359e-017 -1 3.4914833611093821e-015 forward_v I I I I #
coedge $-1 $72 $73 $65 $74 reversed $21 $-1 #
coedge $-1 $75 $23 $25 $47 reversed $13 $-1 #
coedge $-1 $23 $75 $72 $76 forward $13 $-1 #
coedge $-1 $65 $26 $23 $45 forward $33 $-1 #
edge $77 $49 -1.2404323944462865 $78 -1.188798968101719 $44 $79 forward 7 unknown #
coedge $-1 $25 $24 $80 $81 reversed $9 $-1 #
edge $82 $83 0 $49 0.0046873497305879447 $42 $84 forward 7 unknown #
ptlist-eye-attrib $-1 $-1 $-1 $27 #
vertex $-1 $27 $85 #
ellipse-curve $-1 0 -0.063500000000000043 0.0073781116030249162 1.576535274066553e-031 -3.4914833611093821e-015 -1 0.063500000000000043 0 0 1 I I #
coedge $-1 $86 $80 $28 $52 forward $87 $-1 #
edge $88 $60 0 $57 0.0061451873971814352 $28 $89 forward 7 unknown #
coedge $-1 $90 $29 $32 $63 reversed $55 $-1 #
coedge $-1 $29 $90 $86 $91 reversed $55 $-1 #
loop $-1 $-1 $53 $38 #
ptlist-eye-attrib $-1 $-1 $-1 $30 #
vertex $-1 $52 $92 #
straight-curve $-1 0.01138081260281856 -0.0081211534331663646 0.01270000000000001 -4.5061410204771359e-017 1 -3.4914833611093821e-015 I I #
ptlist-eye-attrib $-1 $-1 $-1 $31 #
vertex $-1 $81 $93 #
straight-curve $-1 0.014453406301409278 -0.0081211534331663837 0.0073781116030249162 -4.5061410204771359e-017 1 -3.4914833611093821e-015 I I #
coedge $-1 $32 $65 $71 $94 forward $33 $-1 #
edge $95 $96 1.3411710032586079 $35 1.3905972855821271 $32 $97 forward 7 unknown #
loop $-1 $98 $99 $66 #
coedge $-1 $62 $44 $41 $74 forward $33 $-1 #
face $-1 $100 $33 $3 $-1 $101 forward single #
point $-1 0.011380812602818558 -0.0010281895211966333 0.012699999999999986 #
point $-1 0.014453406301409276 -0.0016667642259732413 0.0073781116030248936 #
face $-1 $102 $103 $3 $-1 $104 forward single #
plane-surface $-1 0.014453406301409273 -0.0081211534331663473 0.018021888396975105 -0.86602540378443893 1.7067173545870064e-015 0.49999999999999967 -4.5061410204771359e-017 1 -3.4914833611093821e-015 forward_v I I I I #
coedge $-1 $105 $106 $62 $94 reversed $39 $-1 #
coedge $-1 $107 $41 $43 $76 reversed $21 $-1 #
coedge $-1 $41 $107 $105 $108 forward $21 $-1 #
edge $109 $78 1.1887989681017164 $110 1.2404323944462838 $65 $111 forward 7 unknown #
coedge $-1 $43 $42 $112 $113 reversed $13 $-1 #
edge $114 $115 0 $78 0.0035441955067687745 $72 $116 forward 7 unknown #
ptlist-eye-attrib $-1 $-1 $-1 $45 #
vertex $-1 $74 $117 #
ellipse-curve $-1 0 -0.063500000000000043 -0.028299699247402117 0.86602540378443871 -1.7067173545870082e-015 -0.50000000000000011 0.063500000000000043 0 0.10998522628062377 0.5 I I #
coedge $-1 $51 $112 $46 $81 forward $87 $-1 #
edge $118 $83 0 $60 0.0061451873971814334 $46 $119 forward 7 unknown #
ptlist-eye-attrib $-1 $-1 $-1 $47 #
vertex $-1 $113 $120 #
straight-curve $-1 0.020598593698590711 -0.0081211534331663837 0.0073781116030249162 -4.5061410204771359e-017 1 -3.4914833611093821e-015 I I #
point $-1 0.020598593698590708 -0.003433803702578439 0.0073781116030248997 #
coedge $-1 $121 $51 $54 $91 forward $87 $-1 #
loop $-1 $-1 $112 $69 #
ptlist-eye-attrib $-1 $-1 $-1 $52 #
straight-curve $-1 0.014453406301409278 -0.0081211534331663837 0.0073781116030249162 -0.50000000000000022 3.0011825825090154e-015 0.86602540378443849 I I #
coedge $-1 $54 $53 $106 $122 reversed $55 $-1 #
edge $123 $57 0 $124 0.0061451873971814334 $54 $125 forward 7 unknown #
point $-1 0.01138081260281856 -0.0081211534331663646 0.01270000000000001 #
point $-1 0.014453406301409278 -0.0081211534331663837 0.0073781116030249162 #
edge $126 $110 1.2404323944462854 $96 1.3411710032586064 $62 $127 forward 7 unknown #
ptlist-eye-attrib $-1 $-1 $-1 $63 #
vertex $-1 $94 $128 #
ellipse-curve $-1 0 -0.063500000000000043 -0.0070121456595017605 -0.86602540378443893 1.7067173545870064e-015 0.49999999999999967 0.063500000000000043 0 0.10998522628062389 0.49999999999999967 I I #
loop $-1 $-1 $129 $66 #
coedge $-1 $130 $131 $132 $133 forward $64 $-1 #
face $-1 $134 $135 $3 $-1 $136 forward single #
cone-surface $-1 0 -0.063500000000000043 0 0 0 1 0.063500000000000043 0 0 1 I I 0 1 0.063500000000000043 forward I I I I #
face $-1 $137 $138 $3 $-1 $139 reversed single #
loop $-1 $87 $140 $69 #
plane-surface $-1 0.017525999999999993 -0.0081211534331663646 0.01270000000000001 -4.5061410204771359e-017 1 -3.4914833611093821e-015 1 4.5061410204771359e-017 -3.0814879110195774e-033 forward_v I I I I #
coedge $-1 $141 $71 $73 $108 reversed $39 $-1 #
coedge $-1 $71 $141 $90 $122 forward $39 $-1 #
coedge $-1 $73 $72 $142 $143 reversed $21 $-1 #
edge $144 $145 0 $110 0.0046873497305879065 $105 $146 forward 7 unknown #
ptlist-eye-attrib $-1 $-1 $-1 $74 #
vertex $-1 $74 $147 #
ellipse-curve $-1 0 -0.063500000000000043 0.053699699247402477 0.86602540378443837 1.7847660065223761e-015 0.50000000000000044 0.063500000000000043 0 -0.10998522628062365 0.50000000000000044 I I #
coedge $-1 $80 $142 $75 $113 forward $87 $-1 #
edge $148 $115 0 $83 0.0061451873971814334 $75 $149 forward 7 unknown #
ptlist-eye-attrib $-1 $-1 $-1 $76 #
vertex $-1 $113 $150 #
straight-curve $-1 0.023671187397181426 -0.0081211534331663646 0.01270000000000001 -4.5061410204771359e-017 1 -3.4914833611093821e-015 I I #
point $-1 0.023671187397181426 -0.0045769579263975901 0.012699999999999996 #
ptlist-eye-attrib $-1 $-1 $-1 $81 #
straight-curve $-1 0.020598593698590711 -0.0081211534331663837 0.0073781116030249162 -1 -4.5061410204771359e-017 3.0814879110195774e-033 I I #
point $-1 0.020598593698590711 -0.0081211534331663837 0.0073781116030249162 #
coedge $-1 $142 $86 $141 $151 forward $87 $-1 #
edge $152 $124 0 $96 0.006454389207193106 $90 $153 forward 7 unknown #
ptlist-eye-attrib $-1 $-1 $-1 $91 #
vertex $-1 $91 $154 #
straight-curve $-1 0.01138081260281856 -0.0081211534331663646 0.01270000000000001 0.49999999999999967 3.0462439927137884e-015 0.86602540378443893 I I #
ptlist-eye-attrib $-1 $-1 $-1 $94 #
ellipse-curve $-1 0 -0.063500000000000043 0.018021888396975105 -4.7636397012945887e-016 3.4914833611093821e-015 1 0.063500000000000043 0 0 1 I I #
point $-1 0.014453406301409273 -0.0016667642259732413 0.018021888396975085 #
coedge $-1 $155 $156 $157 $158 forward $98 $-1 #
coedge $-1 $159 $99 $160 $161 forward $64 $-1 #
coedge $-1 $99 $162 $163 $164 forward $64 $-1 #
coedge $-1 $165 $166 $99 $133 reversed $167 $-1 #
edge $168 $169 1.7509953680076662 $170 1.8004216503311856 $99 $171 forward 7 unknown #
face $-1 $172 $173 $3 $-1 $174 forward single #
loop $-1 $-1 $175 $100 #
plane-surface $-1 -0.024637999999999997 -0.019050000000000004 0 -1 0 0 0 0 1 forward_v I I I I #
face $-1 $176 $177 $3 $-1 $178 reversed single #
loop $-1 $-1 $179 $102 #
plane-surface $-1 -0.02367118739718144 -0.0081211534331663664 0.01270000000000001 -0.8660254037844386 -1.7847660065223757e-015 -0.50000000000000033 -4.5061410204771359e-017 1 -3.4914833611093821e-015 forward_v I I I I #
coedge $-1 $140 $140 $180 $181 reversed $103 $-1 #
coedge $-1 $106 $105 $121 $151 reversed $39 $-1 #
coedge $-1 $112 $121 $107 $143 forward $87 $-1 #
edge $182 $145 0 $115 0.0061451873971814369 $107 $183 forward 7 unknown #
ptlist-eye-attrib $-1 $-1 $-1 $108 #
vertex $-1 $151 $184 #
straight-curve $-1 0.020598593698590704 -0.0081211534331663456 0.018021888396975105 -4.5061410204771359e-017 1 -3.4914833611093821e-015 I I #
point $-1 0.020598593698590701 -0.003433803702578439 0.018021888396975088 #
ptlist-eye-attrib $-1 $-1 $-1 $113 #
straight-curve $-1 0.023671187397181426 -0.0081211534331663646 0.01270000000000001 -0.50000000000000011 -3.0462439927137877e-015 -0.86602540378443871 I I #
point $-1 0.023671187397181426 -0.0081211534331663646 0.01270000000000001 #
edge $185 $124 0 $145 0.0061451873971814317 $141 $186 forward 7 unknown #
ptlist-eye-attrib $-1 $-1 $-1 $122 #
straight-curve $-1 0.014453406301409273 -0.0081211534331663473 0.018021888396975105 -4.5061410204771359e-017 1 -3.4914833611093821e-015 I I #
point $-1 0.014453406301409273 -0.0081211534331663473 0.018021888396975105 #
coedge $-1 $187 $129 $188 $189 forward $98 $-1 #
coedge $-1 $129 $187 $190 $191 reversed $98 $-1 #
coedge $-1 $192 $193 $129 $158 reversed $194 $-1 #
edge $195 $196 0.84835949775090747 $197 0.90811519197244039 $129 $198 forward 7 unknown #
coedge $-1 $199 $130 $200 $201 forward $64 $-1 #
coedge $-1 $202 $203 $130 $161 reversed $204 $-1 #
edge $205 $170 1.8004216503311872 $206 1.9011602591435084 $130 $207 forward 7 unknown #
coedge $-1 $131 $199 $208 $209 forward $64 $-1 #
coedge $-1 $210 $211 $131 $164 reversed $212 $-1 #
edge $213 $214 -1.8004216503311885 $169 -1.7509953680076691 $131 $215 forward 7 unknown #
coedge $-1 $216 $132 $211 $217 reversed $167 $-1 #
coedge $-1 $132 $216 $202 $218 forward $167 $-1 #
loop $-1 $-1 $132 $219 #
ptlist-eye-attrib $-1 $-1 $-1 $133 #
vertex $-1 $133 $220 #
vertex $-1 $133 $221 #
ellipse-curve $-1 0 -0.063500000000000043 -0.0070121456595017345 0.86602540378443837 1.7847660065223761e-015 0.50000000000000044 0.063500000000000043 0 -0.10998522628062365 0.50000000000000044 I I #
face $-1 $222 $223 $3 $-1 $224 forward single #
loop $-1 $-1 $225 $134 #
plane-surface $-1 -0.024637999999999997 -0.0088900000000000038 0 0 -1 0 0 0 -1 forward_v I I I I #
coedge $-1 $226 $227 $228 $229 forward $135 $-1 #
face $-1 $219 $212 $3 $-1 $230 reversed single #
loop $-1 $-1 $208 $137 #
plane-surface $-1 -0.020598593698590722 -0.0081211534331663855 0.0073781116030249162 1.576535274066553e-031 -3.4914833611093821e-015 -1 -4.5061410204771359e-017 1 -3.4914833611093821e-015 forward_v I I I I #
coedge $-1 $231 $232 $199 $233 reversed $138 $-1 #
coedge $-1 $180 $180 $140 $181 forward $234 $-1 #
edge $235 $236 -3.1415926535898144 $236 3.141592653589786 $180 $237 forward 7 unknown #
ptlist-eye-attrib $-1 $-1 $-1 $143 #
straight-curve $-1 0.020598593698590704 -0.0081211534331663456 0.018021888396975105 0.50000000000000044 -3.001182582509015e-015 -0.86602540378443837 I I #
point $-1 0.020598593698590704 -0.0081211534331663456 0.018021888396975105 #
ptlist-eye-attrib $-1 $-1 $-1 $151 #
straight-curve $-1 0.014453406301409273 -0.0081211534331663473 0.018021888396975105 1 4.5061410204773023e-017 4.7636397012945867e-016 I I #
coedge $-1 $156 $155 $238 $239 forward $98 $-1 #
coedge $-1 $240 $241 $155 $189 reversed $223 $-1 #
edge $242 $197 0.0068006349841674358 $243 0.022352 $155 $244 forward 7 unknown #
coedge $-1 $245 $246 $156 $191 forward $247 $-1 #
edge $248 $196 0.0068690014091557861 $249 0.022352 $190 $250 forward 7 unknown #
coedge $-1 $251 $157 $246 $252 reversed $194 $-1 #
coedge $-1 $157 $253 $240 $254 reversed $194 $-1 #
loop $-1 $-1 $255 $256 #
ptlist-eye-attrib $-1 $-1 $-1 $158 #
vertex $-1 $191 $257 #
vertex $-1 $189 $258 #
intcurve-curve $-1 forward { surfintcur full nubs 3 open 7 
	0.84835949775090747 3 0.85082003770306303 2 0.86386504283680998 2 0.87691004797055694 2 0.88968906605121545 2 
	0.90246808413187396 2 0.90811519197244039 3 
	0.028575 -0.0067926867591136912 0.0068690014091557861 
	0.027876069568850751 -0.0064404934364420416 0.0065157595142102398 
	0.027167132640094637 -0.0060994677000451528 0.0061736995256015141 
	0.022640726794104352 -0.0040256915979576171 0.0040934873373403673 
	0.018559665807191653 -0.0026180086883408372 0.0026807415558857406 
	0.010112786946417311 -0.00066097243688128214 0.0007139425687842137 
	0.0057470858316834659 -0.00011136607726925242 0.00015963969335992665 
	-0.0028565252355737124 7.8497714747938573e-005 -3.9422014774723155e-005 
	-0.0071794498555706795 -0.00026185181101791722 0.00029633943083033328 
	-0.015616170038674651 -0.0018007248183408392 0.0018257431473370921 
	-0.019729916979058217 -0.0029993805786604935 0.0030195205340118412 
	-0.025304973625239445 -0.0052308377029282819 0.0052435352769193231 
	-0.026967589911867484 -0.0059827075757714352 0.0059930665609325392 
	-0.028575 -0.0067926867591136912 0.0068006349841674358 
	0.0001150099426499747 
	cone -6.7836945090250789e-005 -0.019050000000000015 0.063542206546546423 -4.5061410204771359e-017 1 6.1230317691118863e-017 -0.063500112510197868 -2.8614046178711598e-018 1.9567482904855776e-034 1 I I 0 -1 0.063500112510197868 forward I I I I 
	cone 0 -0.063500000000000043 0 0 0 1 0.063500000000000043 0 0 1 I I 0 1 0.063500000000000043 forward I I I I 
	nullbs 
	nullbs 
	I I 
	0 
	0 
	0 
	} I I #
coedge $-1 $162 $159 $179 $233 forward $64 $-1 #
coedge $-1 $259 $260 $159 $201 reversed $261 $-1 #
edge $262 $206 1.9011602591435097 $263 1.9527936854880772 $159 $264 forward 7 unknown #
coedge $-1 $265 $160 $166 $218 reversed $204 $-1 #
coedge $-1 $160 $265 $259 $266 forward $204 $-1 #
loop $-1 $-1 $160 $267 #
ptlist-eye-attrib $-1 $-1 $-1 $161 #
vertex $-1 $161 $268 #
ellipse-curve $-1 0 -0.063500000000000043 0.018021888396975105 -4.7636397012945887e-016 3.4914833611093821e-015 1 0.063500000000000043 0 0 1 I I #
coedge $-1 $269 $270 $162 $209 reversed $177 $-1 #
edge $271 $272 -1.9011602591435084 $214 -1.800421650331187 $162 $273 forward 7 unknown #
coedge $-1 $274 $163 $270 $275 reversed $212 $-1 #
coedge $-1 $163 $274 $165 $217 forward $212 $-1 #
loop $-1 $-1 $163 $176 #
ptlist-eye-attrib $-1 $-1 $-1 $164 #
vertex $-1 $209 $276 #
ellipse-curve $-1 0 -0.063500000000000043 0.032412145659502165 0.86602540378443871 -1.7067173545870082e-015 -0.50000000000000011 0.063500000000000043 0 0.10998522628062377 0.5 I I #
coedge $-1 $166 $165 $277 $278 reversed $167 $-1 #
edge $279 $280 0 $169 0.0070929639119697331 $165 $281 forward 7 unknown #
edge $282 $283 0 $170 0.006454389207193106 $202 $284 forward 7 unknown #
face $-1 $267 $167 $3 $-1 $285 reversed single #
point $-1 -0.011380812602818575 -0.0010281895211966333 0.012699999999999986 #
point $-1 -0.014453406301409294 -0.0016667642259732413 0.018021888396975085 #
face $-1 $-1 $286 $3 $-1 $287 reversed single #
loop $-1 $-1 $240 $172 #
plane-surface $-1 -0.028575 -0.0088900000000000038 0 -1 0 0 0 0 1 forward_v I I I I #
coedge $-1 $288 $289 $253 $290 forward $173 $-1 #
coedge $-1 $291 $175 $292 $293 forward $135 $-1 #
coedge $-1 $175 $291 $288 $294 reversed $135 $-1 #
coedge $-1 $253 $295 $175 $229 reversed $194 $-1 #
edge $296 $297 -0.010160000000000011 $298 -1.0408340855860843e-017 $175 $299 forward 7 unknown #
plane-surface $-1 -0.01445340630140929 -0.0081211534331663855 0.0073781116030249162 0.86602540378443871 -1.7067173545870082e-015 -0.50000000000000011 4.5061410204771359e-017 -1 3.4914833611093821e-015 forward_v I I I I #
coedge $-1 $300 $179 $260 $301 reversed $138 $-1 #
coedge $-1 $179 $300 $269 $302 forward $138 $-1 #
edge $303 $263 -1.9527936854880743 $272 -1.9011602591435068 $199 $304 forward 7 unknown #
loop $-1 $305 $180 $306 #
ptlist-eye-attrib $-1 $-1 $-1 $181 #
vertex $-1 $181 $307 #
ellipse-curve $-1 0.017525999999999996 -0.0081211534331663646 0.012699999999999972 -4.5061410204771359e-017 1 -3.4914833611093821e-015 0.0041656000000000002 1.8770781034899559e-019 -1.2836246042143152e-035 1 I I #
coedge $-1 $308 $309 $187 $239 reversed $286 $-1 #
edge $310 $243 -2.0375616658421927 $249 -1.1040309877476004 $187 $311 forward 7 unknown #
coedge $-1 $312 $188 $193 $254 forward $223 $-1 #
coedge $-1 $188 $312 $308 $313 forward $223 $-1 #
ptlist-eye-attrib $-1 $-1 $-1 $189 #
vertex $-1 $189 $314 #
straight-curve $-1 -0.028575 -0.0067926867591136912 0 0 0 1 I I #
coedge $-1 $315 $190 $309 $316 forward $247 $-1 #
coedge $-1 $190 $315 $192 $252 forward $247 $-1 #
loop $-1 $-1 $246 $317 #
ptlist-eye-attrib $-1 $-1 $-1 $191 #
vertex $-1 $191 $318 #
straight-curve $-1 0.028575 -0.0067926867591136912 0 0 0 1 I I #
coedge $-1 $319 $192 $320 $321 reversed $194 $-1 #
edge $322 $323 0.010160000000000008 $196 0.01225731324088632 $246 $324 forward 7 unknown #
coedge $-1 $193 $228 $225 $290 reversed $194 $-1 #
edge $325 $197 -0.012257313240886324 $326 -0.010160000000000011 $240 $327 forward 7 unknown #
coedge $-1 $295 $328 $329 $330 forward $194 $-1 #
face $-1 $331 $194 $3 $-1 $332 reversed single #
point $-1 0.028575 -0.0067926867591136912 0.0068690014091557861 #
point $-1 -0.028575 -0.0067926867591136912 0.0068006349841674358 #
coedge $-1 $333 $200 $203 $266 reversed $261 $-1 #
coedge $-1 $200 $333 $231 $301 forward $261 $-1 #
loop $-1 $-1 $200 $334 #
ptlist-eye-attrib $-1 $-1 $-1 $201 #
vertex $-1 $201 $335 #
ellipse-curve $-1 0 -0.063500000000000043 0.053699699247402581 -0.86602540378443893 1.7067173545870064e-015 0.49999999999999967 0.063500000000000043 0 0.10998522628062389 0.49999999999999967 I I #
coedge $-1 $203 $202 $336 $337 reversed $204 $-1 #
edge $338 $339 0 $206 0.0046873497305879031 $259 $340 forward 7 unknown #
face $-1 $334 $204 $3 $-1 $341 reversed single #
point $-1 -0.020598593698590729 -0.003433803702578446 0.018021888396975088 #
coedge $-1 $342 $208 $232 $302 reversed $177 $-1 #
coedge $-1 $208 $342 $210 $275 forward $177 $-1 #
ptlist-eye-attrib $-1 $-1 $-1 $209 #
vertex $-1 $233 $343 #
ellipse-curve $-1 0 -0.063500000000000043 0.0073781116030249162 1.576535274066553e-031 -3.4914833611093821e-015 -1 0.063500000000000043 0 0 1 I I #
coedge $-1 $211 $210 $344 $345 reversed $212 $-1 #
edge $346 $347 0 $214 0.0064543892071931442 $210 $348 forward 7 unknown #
point $-1 -0.01445340630140929 -0.0016667642259732413 0.0073781116030248936 #
coedge $-1 $344 $336 $216 $278 forward $349 $-1 #
edge $350 $283 0 $280 0.0061451873971814352 $216 $351 forward 7 unknown #
ptlist-eye-attrib $-1 $-1 $-1 $217 #
vertex $-1 $345 $352 #
straight-curve $-1 -0.011380812602818573 -0.0081211534331663664 0.01270000000000001 -4.5061410204771359e-017 1 -3.4914833611093821e-015 I I #
ptlist-eye-attrib $-1 $-1 $-1 $218 #
vertex $-1 $337 $353 #
straight-curve $-1 -0.014453406301409294 -0.0081211534331663473 0.018021888396975105 -4.5061410204771359e-017 1 -3.4914833611093821e-015 I I #
plane-surface $-1 -0.011380812602818573 -0.0081211534331663664 0.01270000000000001 0.86602540378443837 1.7847660065223761e-015 0.50000000000000044 4.5061410204771359e-017 -1 3.4914833611093821e-015 forward_v I I I I #
loop $-1 $-1 $354 $222 #
plane-surface $-1 -0.028575 -0.0067926867591136912 0.022352 0 0 -1 -1 0 0 forward_v I I I I #
coedge $-1 $355 $225 $227 $294 forward $173 $-1 #
coedge $-1 $225 $355 $312 $356 reversed $173 $-1 #
edge $357 $326 1.1052277823493297 $297 1.1734952912719485 $225 $358 forward 7 unknown #
coedge $-1 $227 $226 $359 $360 forward $135 $-1 #
coedge $-1 $361 $362 $226 $293 reversed $363 $-1 #
edge $364 $298 0.0049882026163032278 $365 0.022352 $226 $366 forward 7 unknown #
edge $367 $297 0.0049882026163032287 $368 0.022352 $288 $369 forward 7 unknown #
coedge $-1 $228 $255 $361 $370 reversed $194 $-1 #
ptlist-eye-attrib $-1 $-1 $-1 $229 #
vertex $-1 $294 $371 #
vertex $-1 $293 $372 #
straight-curve $-1 -0.024637999999999997 -0.019050000000000015 0.0049882026163032278 4.5061410204771359e-017 -1 -6.1230317691118863e-017 I I #
coedge $-1 $232 $231 $373 $374 reversed $138 $-1 #
edge $375 $376 0 $263 0.0035441955067687693 $231 $377 forward 7 unknown #
edge $378 $379 0 $272 0.0046873497305879395 $269 $380 forward 7 unknown #
ptlist-eye-attrib $-1 $-1 $-1 $233 #
ellipse-curve $-1 0 -0.063500000000000043 -0.028299699247402107 -0.8660254037844386 -1.7847660065223757e-015 -0.50000000000000033 0.063500000000000043 0 -0.10998522628062371 0.50000000000000022 I I #
loop $-1 $-1 $381 $306 #
face $-1 $66 $234 $3 $-1 $382 reversed single #
point $-1 0.013360399999999996 -0.0081211534331663646 0.012699999999999942 #
coedge $-1 $383 $238 $241 $313 reversed $286 $-1 #
coedge $-1 $238 $384 $245 $316 reversed $286 $-1 #
ptlist-eye-attrib $-1 $-1 $-1 $239 #
ellipse-curve $-1 0 -0.063500000000000043 0.022352 0 0 -1 0.063500000000000043 0 0 1 F -2.0375616658421927 F -1.1040309877476007 #
coedge $-1 $241 $240 $289 $356 forward $223 $-1 #
edge $385 $386 -0.0020973132408863126 $243 0 $241 $387 forward 7 unknown #
point $-1 -0.028575 -0.0067926867591136912 0.022352 #
coedge $-1 $246 $245 $388 $389 reversed $247 $-1 #
edge $390 $249 -0.0020973132408863126 $391 0 $245 $392 forward 7 unknown #
face $-1 $306 $247 $3 $-1 $393 forward single #
point $-1 0.028575 -0.0067926867591136912 0.022352 #
coedge $-1 $328 $251 $394 $395 reversed $194 $-1 #
coedge $-1 $388 $396 $251 $321 forward $397 $-1 #
edge $398 $399 1.9704155647192763 $323 2.03875739590806 $320 $400 forward 7 unknown #
ptlist-eye-attrib $-1 $-1 $-1 $252 #
vertex $-1 $389 $401 #
straight-curve $-1 0.028575 -0.019050000000000011 0.0068690014091557852 -4.5061410204771359e-017 1 6.1230317691118863e-017 I I #
ptlist-eye-attrib $-1 $-1 $-1 $254 #
vertex $-1 $356 $402 #
straight-curve $-1 -0.028575 -0.019050000000000015 0.0068006349841674349 4.5061410204771359e-017 -1 -6.1230317691118863e-017 I I #
coedge $-1 $255 $319 $403 $404 reversed $194 $-1 #
coedge $-1 $405 $406 $255 $330 reversed $407 $-1 #
edge $408 $409 -0.013782813296723245 $410 0 $255 $411 forward 7 unknown #
face $-1 $412 $413 $3 $-1 $414 forward single #
cone-surface $-1 -6.7836945090250789e-005 -0.019050000000000015 0.063542206546546423 -4.5061410204771359e-017 1 6.1230317691118863e-017 -0.063500112510197868 -2.8614046178711598e-018 1.9567482904855776e-034 1 I I 0 -1 0.063500112510197868 forward I I I I #
coedge $-1 $260 $259 $415 $416 reversed $261 $-1 #
face $-1 $417 $261 $3 $-1 $418 reversed single #
point $-1 -0.02367118739718144 -0.0045769579263975971 0.012699999999999996 #
coedge $-1 $277 $415 $265 $337 forward $349 $-1 #
edge $419 $339 0 $283 0.0061451873971814317 $265 $420 forward 7 unknown #
ptlist-eye-attrib $-1 $-1 $-1 $266 #
vertex $-1 $416 $421 #
straight-curve $-1 -0.020598593698590725 -0.008121153433166349 0.018021888396975105 -4.5061410204771359e-017 1 -3.4914833611093821e-015 I I #
plane-surface $-1 -0.014453406301409294 -0.0081211534331663473 0.018021888396975105 -4.7636397012945887e-016 3.4914833611093821e-015 1 4.5061410204771359e-017 -1 3.4914833611093821e-015 forward_v I I I I #
coedge $-1 $270 $269 $422 $423 reversed $177 $-1 #
point $-1 -0.020598593698590722 -0.003433803702578446 0.0073781116030248997 #
coedge $-1 $422 $277 $274 $345 forward $349 $-1 #
edge $424 $280 0 $347 0.0061451873971814334 $274 $425 forward 7 unknown #
ptlist-eye-attrib $-1 $-1 $-1 $275 #
vertex $-1 $345 $426 #
straight-curve $-1 -0.01445340630140929 -0.0081211534331663855 0.0073781116030249162 -4.5061410204771359e-017 1 -3.4914833611093821e-015 I I #
loop $-1 $-1 $344 $417 #
ptlist-eye-attrib $-1 $-1 $-1 $278 #
straight-curve $-1 -0.014453406301409294 -0.0081211534331663473 0.018021888396975105 0.50000000000000044 -3.001182582509015e-015 -0.86602540378443837 I I #
point $-1 -0.011380812602818573 -0.0081211534331663664 0.01270000000000001 #
point $-1 -0.014453406301409294 -0.0081211534331663473 0.018021888396975105 #
coedge $-1 $427 $428 $429 $430 forward $286 $-1 #
coedge $-1 $289 $288 $383 $431 forward $173 $-1 #
edge $432 $326 0.0068006349841674358 $386 0.022352 $312 $433 forward 7 unknown #
ptlist-eye-attrib $-1 $-1 $-1 $290 #
ellipse-curve $-1 -6.7836945090251249e-005 -0.0088900000000000055 0.063542206546546423 0 -1 0 -0.063500112510197868 -2.8614046178711598e-018 1.9567482904855776e-034 1 I I #
coedge $-1 $434 $383 $291 $360 reversed $286 $-1 #
edge $435 $365 -0.010160000000000001 $368 0 $291 $436 forward 7 unknown #
coedge $-1 $437 $292 $295 $370 forward $363 $-1 #
coedge $-1 $292 $438 $434 $439 forward $363 $-1 #
loop $-1 $-1 $437 $331 #
ptlist-eye-attrib $-1 $-1 $-1 $293 #
vertex $-1 $293 $440 #
straight-curve $-1 -0.024637999999999997 -0.019050000000000004 0 0 0 1 I I #
ptlist-eye-attrib $-1 $-1 $-1 $294 #
vertex $-1 $294 $441 #
straight-curve $-1 -0.024637999999999997 -0.0088900000000000038 0 0 0 1 I I #
edge $442 $298 1.1734952912719485 $410 1.4998051362125091 $361 $443 forward 7 unknown #
point $-1 -0.024637999999999997 -0.0088900000000000038 0.0049882026163032287 #
point $-1 -0.024637999999999997 -0.019050000000000004 0.0049882026163032278 #
coedge $-1 $415 $422 $300 $374 forward $349 $-1 #
edge $444 $379 0 $376 0.0061451873971814352 $300 $445 forward 7 unknown #
ptlist-eye-attrib $-1 $-1 $-1 $301 #
vertex $-1 $374 $446 #
straight-curve $-1 -0.02367118739718144 -0.0081211534331663664 0.01270000000000001 -4.5061410204771359e-017 1 -3.4914833611093821e-015 I I #
ptlist-eye-attrib $-1 $-1 $-1 $302 #
vertex $-1 $423 $447 #
straight-curve $-1 -0.020598593698590722 -0.0081211534331663855 0.0073781116030249162 -4.5061410204771359e-017 1 -3.4914833611093821e-015 I I #
coedge $-1 $381 $381 $448 $449 reversed $305 $-1 #
cone-surface $-1 0.017525999999999996 -0.019050000000000011 0.012700000000000008 -4.5061410204771359e-017 1 -3.2923154220237949e-015 0.0041656000000000002 1.8770781034899559e-019 -1.2836246042143152e-035 1 I I 0 1 0.0041656000000000002 forward I I I I #
coedge $-1 $359 $308 $355 $431 reversed $286 $-1 #
coedge $-1 $309 $450 $451 $452 reversed $286 $-1 #
ptlist-eye-attrib $-1 $-1 $-1 $313 #
vertex $-1 $356 $453 #
straight-curve $-1 -0.028575 -0.0067926867591136912 0.022352 0 1 0 I I #
coedge $-1 $451 $320 $315 $389 forward $397 $-1 #
edge $454 $323 0.0068690014091557861 $391 0.022352 $388 $455 forward 7 unknown #
ptlist-eye-attrib $-1 $-1 $-1 $316 #
vertex $-1 $389 $456 #
straight-curve $-1 0.028575 -0.0088900000000000038 0.022352 0 -1 0 I I #
plane-surface $-1 0.028575 -0.0067926867591136912 0 1 0 0 0 0 -1 forward_v I I I I #
coedge $-1 $457 $458 $319 $395 forward $459 $-1 #
edge $460 $461 0 $399 0.010160000000000008 $394 $462 forward 7 unknown #
coedge $-1 $320 $451 $457 $463 reversed $397 $-1 #
loop $-1 $-1 $320 $464 #
ptlist-eye-attrib $-1 $-1 $-1 $321 #
vertex $-1 $463 $465 #
ellipse-curve $-1 -6.7836945090251249e-005 -0.008890000000000009 0.063542206546546423 0 -1 0 -0.063500112510197868 -2.8614046178711598e-018 1.9567482904855776e-034 1 I I #
point $-1 0.028575 -0.0088900000000000038 0.0068690014091557861 #
point $-1 -0.028575 -0.0088900000000000038 0.0068006349841674358 #
coedge $-1 $466 $467 $328 $404 forward $468 $-1 #
edge $469 $409 1.6439296703577992 $461 1.9704155647192763 $403 $443 forward 7 unknown #
coedge $-1 $470 $329 $467 $471 reversed $407 $-1 #
coedge $-1 $329 $470 $437 $472 reversed $407 $-1 #
loop $-1 $-1 $405 $473 #
ptlist-eye-attrib $-1 $-1 $-1 $330 #
vertex $-1 $404 $474 #
vertex $-1 $472 $475 #
intcurve-curve $-1 forward { surfintcur full nubs 3 open 9 
	-0.013782813296723245 3 -0.012059956155163717 2 -0.01033709901360419 2 -0.0086141960582079916 2 -0.0068912931028117901 2 
	-0.0051684932149524548 2 -0.0034456933270931231 2 -0.0017228466635465615 2 0 3 
	0.0045719999999999945 -0.019050000000000008 0.00021183309169647192 
	0.0045719999999999919 -0.018475714286146833 0.00021183309169647176 
	0.0044571834272737788 -0.01786329287135258 0.00020302858459685964 
	0.0039905467061934815 -0.016736908334632303 0.00017154470508222574 
	0.0036387204503610261 -0.016222942269377719 0.00014906146229834948 
	0.0028271027655070217 -0.015411312132365742 0.0001068162328403765 
	0.0023131315882779567 -0.015059474863369176 8.4183119324884395e-005 
	0.0011867320094016882 -0.014592821850873888 5.2050696231398114e-005 
	0.00057430065741936854 -0.014478000000000029 4.2743795049431584e-005 
	-0.00057426630159336045 -0.014478000000000029 4.151678433855717e-005 
	-0.0011866820413223515 -0.014592809285801558 4.9514252771273409e-005 
	-0.0023130724595898607 -0.015059442230782264 7.9236042386195653e-005 
	-0.0028270498772763101 -0.015411271513890001 0.00010076794830350761 
	-0.0036386974022191826 -0.016222906951460371 0.00014127317817416975 
	-0.0039905368030119844 -0.016736888873841782 0.00016300116315484401 
	-0.0044571852476116437 -0.017863292822131518 0.00019348216420737502 
	-0.0045720000000000031 -0.018475717778817818 0.00020203916452434366 
	-0.0045720000000000057 -0.019050000000000008 0.00020203916452434382 
	9.6548132204382097e-005 
	cone -5.2041704279304213e-018 -0.019050000000000015 0.0045720000000000162 0 -3.231085104332676e-015 -1 0.0045719999999999997 0 0 1 I I 0 1 0.0045719999999999997 forward I I I I 
	cone -6.7836945090250789e-005 -0.019050000000000015 0.063542206546546423 -4.5061410204771359e-017 1 6.1230317691118863e-017 -0.063500112510197868 -2.8614046178711598e-018 1.9567482904855776e-034 1 I I 0 1 0.063500112510197868 forward I I I I 
	nullbs 
	nullbs 
	I I 
	0 
	0 
	0 
	} I I #
face $-1 $476 $477 $3 $-1 $478 reversed single #
loop $-1 $363 $479 $331 #
plane-surface $-1 0.024637999999999997 -0.019050000000000004 0 0 -1 0 0 0 -1 forward_v I I I I #
coedge $-1 $336 $373 $333 $416 forward $349 $-1 #
edge $480 $376 0 $339 0.0061451873971814343 $333 $481 forward 7 unknown #
face $-1 $482 $483 $3 $-1 $484 forward single #
plane-surface $-1 -0.020598593698590725 -0.008121153433166349 0.018021888396975105 -0.86602540378443893 1.7067173545870064e-015 0.49999999999999967 -4.5061410204771359e-017 1 -3.4914833611093821e-015 forward_v I I I I #
ptlist-eye-attrib $-1 $-1 $-1 $337 #
straight-curve $-1 -0.020598593698590725 -0.008121153433166349 0.018021888396975105 1 4.5061410204773023e-017 4.7636397012945867e-016 I I #
point $-1 -0.020598593698590725 -0.008121153433166349 0.018021888396975105 #
coedge $-1 $373 $344 $342 $423 forward $349 $-1 #
edge $485 $347 0 $379 0.0061451873971814317 $342 $486 forward 7 unknown #
ptlist-eye-attrib $-1 $-1 $-1 $345 #
straight-curve $-1 -0.011380812602818573 -0.0081211534331663664 0.01270000000000001 -0.50000000000000011 -3.0462439927137877e-015 -0.86602540378443871 I I #
point $-1 -0.01445340630140929 -0.0081211534331663855 0.0073781116030249162 #
coedge $-1 $450 $354 $487 $488 reversed $286 $-1 #
coedge $-1 $354 $489 $490 $491 forward $286 $-1 #
coedge $-1 $492 $493 $354 $430 reversed $494 $-1 #
edge $495 $496 -0.0073333433795568521 $497 0.0061286566204431549 $354 $498 forward 7 unknown #
edge $499 $368 -0.003937000000000003 $386 0 $355 $500 forward 7 unknown #
ptlist-eye-attrib $-1 $-1 $-1 $356 #
straight-curve $-1 -0.028575 -0.0088900000000000038 0 0 0 1 I I #
coedge $-1 $489 $359 $362 $439 reversed $286 $-1 #
ptlist-eye-attrib $-1 $-1 $-1 $360 #
straight-curve $-1 -0.024637999999999997 -0.0088900000000000038 0.022352 0 1 0 I I #
coedge $-1 $501 $361 $406 $472 forward $363 $-1 #
coedge $-1 $362 $502 $503 $504 forward $363 $-1 #
edge $505 $506 -0.016255999999999993 $365 0 $362 $507 forward 7 unknown #
point $-1 -0.024637999999999997 -0.019050000000000004 0.022352 #
point $-1 -0.024637999999999997 -0.0088900000000000038 0.022352 #
ptlist-eye-attrib $-1 $-1 $-1 $370 #
ellipse-curve $-1 -6.7836945090250789e-005 -0.019050000000000008 0.063542206546546423 0 -1 0 -0.063500112510197868 -2.8614046178711598e-018 1.9567482904855776e-034 1 I I #
ptlist-eye-attrib $-1 $-1 $-1 $374 #
straight-curve $-1 -0.020598593698590722 -0.0081211534331663855 0.0073781116030249162 -0.50000000000000022 3.0011825825090154e-015 0.86602540378443849 I I #
point $-1 -0.02367118739718144 -0.0081211534331663664 0.01270000000000001 #
point $-1 -0.020598593698590722 -0.0081211534331663855 0.0073781116030249162 #
coedge $-1 $448 $448 $381 $449 forward $508 $-1 #
edge $509 $510 -3.0814879110195774e-033 $510 6.2831853071796004 $448 $511 forward 7 unknown #
coedge $-1 $384 $427 $512 $513 reversed $286 $-1 #
coedge $-1 $396 $388 $384 $452 forward $397 $-1 #
edge $514 $391 -0.003937000000000003 $515 0 $451 $516 forward 7 unknown #
point $-1 -0.028575 -0.0088900000000000038 0.022352 #
ptlist-eye-attrib $-1 $-1 $-1 $389 #
straight-curve $-1 0.028575 -0.0088900000000000038 0 0 0 1 I I #
point $-1 0.028575 -0.0088900000000000038 0.022352 #
coedge $-1 $512 $394 $396 $463 forward $459 $-1 #
coedge $-1 $394 $512 $466 $517 reversed $459 $-1 #
loop $-1 $-1 $394 $518 #
ptlist-eye-attrib $-1 $-1 $-1 $395 #
vertex $-1 $517 $519 #
straight-curve $-1 0.024637999999999997 -0.019050000000000011 0.0050453185126484029 -4.5061410204771359e-017 1 6.1230317691118863e-017 I I #
edge $520 $399 0.0050453185126484038 $515 0.022352 $457 $521 forward 7 unknown #
face $-1 $317 $397 $3 $-1 $522 forward single #
point $-1 0.024637999999999997 -0.0088900000000000038 0.0050453185126484038 #
coedge $-1 $487 $403 $458 $517 forward $468 $-1 #
coedge $-1 $403 $523 $405 $471 forward $468 $-1 #
loop $-1 $508 $467 $524 #
ptlist-eye-attrib $-1 $-1 $-1 $404 #
coedge $-1 $406 $405 $525 $526 reversed $407 $-1 #
edge $527 $528 3.3630235100189185e-032 $409 0.0043601669083035439 $467 $529 forward 7 unknown #
edge $530 $410 -0.0043699608354756721 $531 -1.7347234759768071e-018 $437 $532 forward 7 unknown #
face $-1 $256 $407 $3 $-1 $533 reversed single #
point $-1 0.0045719999999999945 -0.019050000000000008 0.00021183309169647192 #
point $-1 -0.0045720000000000057 -0.019050000000000008 0.00020203916452434382 #
face $-1 $534 $494 $3 $-1 $535 reversed single #
loop $-1 $-1 $536 $412 #
plane-surface $-1 -0.0083820000000000058 -0.019050000000000011 0.022352000000000007 -1 -4.5061410204771359e-017 3.0814879110195774e-033 -4.5061410204771359e-017 1 -3.2923154220237949e-015 forward_v I I I I #
coedge $-1 $479 $479 $537 $538 forward $413 $-1 #
ptlist-eye-attrib $-1 $-1 $-1 $416 #
straight-curve $-1 -0.02367118739718144 -0.0081211534331663664 0.01270000000000001 0.49999999999999967 3.0462439927137884e-015 0.86602540378443893 I I #
face $-1 $473 $539 $3 $-1 $540 reversed single #
loop $-1 $349 $541 $417 #
plane-surface $-1 -0.017526000000000007 -0.0081211534331663664 0.01270000000000001 -4.5061410204771359e-017 1 -3.4914833611093821e-015 1 4.5061410204771359e-017 -3.0814879110195774e-033 forward_v I I I I #
ptlist-eye-attrib $-1 $-1 $-1 $423 #
straight-curve $-1 -0.01445340630140929 -0.0081211534331663855 0.0073781116030249162 -1 -4.5061410204771359e-017 3.0814879110195774e-033 I I #
coedge $-1 $542 $466 $427 $488 forward $468 $-1 #
edge $543 $544 -0.049275999999999993 $497 -0.033019999999999994 $487 $507 forward 7 unknown #
coedge $-1 $428 $434 $545 $546 forward $286 $-1 #
coedge $-1 $547 $548 $428 $491 reversed $549 $-1 #
edge $550 $551 0.010096499999999996 $496 0.026860499999999995 $428 $552 forward 7 unknown #
coedge $-1 $553 $429 $548 $554 reversed $494 $-1 #
coedge $-1 $429 $553 $542 $555 reversed $494 $-1 #
loop $-1 $-1 $492 $476 #
ptlist-eye-attrib $-1 $-1 $-1 $430 #
vertex $-1 $430 $556 #
vertex $-1 $555 $557 #
straight-curve $-1 0.0083819999999999971 -0.012921343379556856 0.022352 4.5061410204771359e-017 -1 0 I I #
ptlist-eye-attrib $-1 $-1 $-1 $431 #
straight-curve $-1 -0.028575 -0.0088900000000000038 0.022352 -1 0 0 I I #
coedge $-1 $558 $437 $559 $560 forward $363 $-1 #
coedge $-1 $438 $558 $561 $562 forward $363 $-1 #
coedge $-1 $563 $545 $438 $504 reversed $477 $-1 #
edge $564 $565 0.008128000000000005 $506 0.011176000000000004 $438 $566 forward 7 unknown #
ptlist-eye-attrib $-1 $-1 $-1 $439 #
vertex $-1 $439 $567 #
straight-curve $-1 -0.024637999999999997 -0.019050000000000004 0.022352 -1 0 0 I I #
loop $-1 $-1 $448 $524 #
ptlist-eye-attrib $-1 $-1 $-1 $449 #
vertex $-1 $449 $568 #
ellipse-curve $-1 0.017525999999999996 -0.019049999999999963 0.012700000000000008 0 1 0 0.0041656000000000002 1.8770781034899559e-019 -1.2836246042143152e-035 1 I I #
coedge $-1 $458 $457 $450 $513 forward $459 $-1 #
edge $569 $515 -0.010160000000000001 $544 0 $512 $570 forward 7 unknown #
ptlist-eye-attrib $-1 $-1 $-1 $452 #
vertex $-1 $463 $571 #
straight-curve $-1 0.024637999999999997 -0.0088900000000000038 0.022352 -1 0 0 I I #
edge $572 $461 0.0050453185126484029 $544 0.022352 $466 $573 forward 7 unknown #
face $-1 $464 $459 $3 $-1 $574 forward single #
point $-1 0.024637999999999997 -0.019050000000000011 0.0050453185126484029 #
ptlist-eye-attrib $-1 $-1 $-1 $463 #
straight-curve $-1 0.024637999999999997 -0.0088900000000000038 0 0 0 1 I I #
plane-surface $-1 0.028575 -0.0088900000000000038 0 0 -1 0 0 0 -1 forward_v I I I I #
coedge $-1 $467 $575 $576 $577 forward $468 $-1 #
face $-1 $578 $468 $3 $-1 $414 forward single #
coedge $-1 $576 $559 $470 $526 forward $579 $-1 #
edge $580 $531 -3.1415926535897909 $528 3.2537951022301791e-030 $525 $581 forward 7 unknown #
ptlist-eye-attrib $-1 $-1 $-1 $471 #
vertex $-1 $526 $582 #
straight-curve $-1 0.0045719999999999945 -0.019050000000000004 0.0045720000000000162 0 -3.231085104332676e-015 -1 I I #
ptlist-eye-attrib $-1 $-1 $-1 $472 #
vertex $-1 $560 $583 #
straight-curve $-1 -0.0045720000000000049 -0.019050000000000004 0.0045720000000000162 0 3.231085104332676e-015 1 I I #
cone-surface $-1 -5.2041704279304213e-018 -0.019050000000000015 0.0045720000000000162 0 -3.231085104332676e-015 -1 0.0045719999999999997 0 0 1 I I 0 1 0.0045719999999999997 forward I I I I #
face $-1 $584 $585 $3 $-1 $586 reversed single #
plane-surface $-1 0.0083819999999999954 -0.019050000000000022 0.019304000000000009 1 4.5061410204771359e-017 -3.0814879110195774e-033 4.5061410204771359e-017 -1 3.2923154220237949e-015 forward_v I I I I #
coedge $-1 $545 $563 $547 $587 reversed $477 $-1 #
coedge $-1 $537 $537 $479 $538 reversed $588 $-1 #
edge $589 $590 -3.0814879110195774e-033 $590 6.2831853071796004 $479 $591 forward 7 unknown #
loop $-1 $588 $592 $482 #
cone-surface $-1 -0.017526000000000007 -0.019050000000000015 0.012700000000000008 -4.5061410204771359e-017 1 -3.2923154220237949e-015 0.0041656000000000002 1.8770781034899559e-019 -1.2836246042143152e-035 1 I I 0 1 0.0041656000000000002 forward I I I I #
coedge $-1 $541 $541 $592 $593 reversed $483 $-1 #
coedge $-1 $594 $487 $493 $555 forward $468 $-1 #
ptlist-eye-attrib $-1 $-1 $-1 $488 #
vertex $-1 $517 $595 #
coedge $-1 $503 $536 $489 $546 reversed $477 $-1 #
edge $596 $506 -0.0061286566204431601 $551 0.0073333433795568469 $489 $597 forward 7 unknown #
coedge $-1 $598 $490 $536 $587 forward $549 $-1 #
coedge $-1 $490 $599 $492 $554 forward $549 $-1 #
loop $-1 $-1 $600 $601 #
ptlist-eye-attrib $-1 $-1 $-1 $491 #
vertex $-1 $546 $602 #
straight-curve $-1 -0.018478500000000002 -0.0055880000000000044 0.022352 1 4.5061410204771359e-017 0 I I #
coedge $-1 $493 $492 $603 $604 reversed $494 $-1 #
edge $605 $606 -0.0030479999999999986 $496 0 $492 $607 forward 7 unknown #
edge $608 $497 -0.012700000000000003 $609 -0.0096520000000000043 $542 $610 forward 7 unknown #
point $-1 0.0083819999999999954 -0.0055880000000000044 0.022351999999999962 #
point $-1 0.0083819999999999954 -0.019050000000000011 0.022352000000000007 #
coedge $-1 $502 $501 $611 $612 forward $363 $-1 #
coedge $-1 $525 $613 $501 $560 reversed $579 $-1 #
edge $614 $531 0.011557000000000001 $615 0.017653000000000002 $501 $616 forward 7 unknown #
coedge $-1 $617 $618 $502 $562 reversed $585 $-1 #
edge $619 $620 -0.028320999999999999 $565 -0.026035000000000003 $502 $621 forward 7 unknown #
coedge $-1 $536 $503 $618 $622 reversed $477 $-1 #
ptlist-eye-attrib $-1 $-1 $-1 $504 #
vertex $-1 $504 $623 #
straight-curve $-1 -0.008382000000000004 -0.019050000000000004 0.011176000000000004 3.0814879110195774e-033 0 1 I I #
point $-1 -0.0083820000000000058 -0.019050000000000011 0.022352000000000007 #
point $-1 0.021691599999999998 -0.019050000000000011 0.012700000000000008 #
ptlist-eye-attrib $-1 $-1 $-1 $513 #
straight-curve $-1 0.024637999999999997 -0.019050000000000004 0.022352 0 -1 0 I I #
point $-1 0.024637999999999997 -0.0088900000000000038 0.022352 #
ptlist-eye-attrib $-1 $-1 $-1 $517 #
straight-curve $-1 0.024637999999999997 -0.019050000000000004 0 0 0 1 I I #
plane-surface $-1 0.024637999999999997 -0.0088900000000000038 0 1 0 0 0 0 -1 forward_v I I I I #
coedge $-1 $523 $594 $624 $625 forward $468 $-1 #
coedge $-1 $626 $525 $523 $577 reversed $579 $-1 #
edge $627 $628 -0.0036829999999999996 $528 0.0024130000000000011 $523 $616 forward 7 unknown #
face $-1 $629 $630 $3 $-1 $631 reversed single #
loop $-1 $-1 $525 $632 #
ptlist-eye-attrib $-1 $-1 $-1 $526 #
ellipse-curve $-1 -5.2041704279304213e-018 -0.019050000000000015 0.0045720000000000118 0 -3.4302530434182632e-015 -1 0.0045719999999999997 0 0 1 I I #
point $-1 0.0045719999999999945 -0.019050000000000015 0.0045720000000000162 #
point $-1 -0.0045720000000000049 -0.019050000000000004 0.0045720000000000144 #
face $-1 $632 $633 $3 $-1 $634 reversed single #
loop $-1 $-1 $618 $534 #
plane-surface $-1 0.010667999999999995 -0.019050000000000015 0.019304000000000009 -1.4867873920388077e-031 3.2923154220237949e-015 1 4.5061410204771359e-017 -1 3.2923154220237949e-015 forward_v I I I I #
edge $635 $551 -0.0030479999999999986 $636 0 $536 $637 forward 7 unknown #
loop $-1 $-1 $537 $482 #
ptlist-eye-attrib $-1 $-1 $-1 $538 #
vertex $-1 $538 $638 #
ellipse-curve $-1 -0.017526000000000007 -0.019049999999999963 0.012700000000000008 0 1 0 0.0041656000000000002 1.8770781034899559e-019 -1.2836246042143152e-035 1 I I #
coedge $-1 $592 $592 $541 $593 forward $539 $-1 #
edge $639 $640 -3.1415926535898144 $640 3.141592653589786 $592 $641 forward 7 unknown #
coedge $-1 $575 $542 $642 $643 forward $468 $-1 #
point $-1 0.024637999999999997 -0.019050000000000004 0.022352 #
ptlist-eye-attrib $-1 $-1 $-1 $546 #
straight-curve $-1 -0.008382000000000004 -0.012921343379556851 0.022352 -4.5061410204771359e-017 1 0 I I #
coedge $-1 $600 $547 $644 $645 forward $549 $-1 #
coedge $-1 $548 $646 $647 $648 forward $549 $-1 #
coedge $-1 $649 $598 $650 $651 forward $549 $-1 #
face $-1 $518 $549 $3 $-1 $652 forward single #
point $-1 -0.0083820000000000058 -0.0055880000000000044 0.022351999999999962 #
coedge $-1 $647 $642 $553 $604 forward $653 $-1 #
edge $654 $609 -3.4694469519536142e-018 $606 0.013462000000000003 $603 $655 forward 7 unknown #
ptlist-eye-attrib $-1 $-1 $-1 $554 #
vertex $-1 $554 $656 #
straight-curve $-1 0.0083819999999999954 -0.0055880000000000044 0.022351999999999962 -1.4867873920388077e-031 3.2923154220237949e-015 1 I I #
ptlist-eye-attrib $-1 $-1 $-1 $555 #
vertex $-1 $643 $657 #
straight-curve $-1 0.0083819999999999971 -0.019050000000000004 0.0096520000000000043 -3.0814879110195774e-033 0 -1 I I #
coedge $-1 $658 $659 $558 $612 reversed $630 $-1 #
edge $660 $615 -0.0050799999999999908 $620 0.0096520000000000043 $558 $661 forward 7 unknown #
coedge $-1 $559 $662 $658 $663 forward $579 $-1 #
ptlist-eye-attrib $-1 $-1 $-1 $560 #
vertex $-1 $612 $664 #
straight-curve $-1 0.0069849999999999956 -0.019050000000000004 0.0045720000000000144 -1 0 0 I I #
coedge $-1 $644 $561 $659 $665 forward $585 $-1 #
coedge $-1 $561 $644 $563 $622 forward $585 $-1 #
ptlist-eye-attrib $-1 $-1 $-1 $562 #
vertex $-1 $612 $666 #
straight-curve $-1 0.017652999999999995 -0.019050000000000004 0.019304000000000009 1 0 1.4867873920388077e-031 I I #
edge $667 $636 -0.013462 $565 6.9388939039072284e-018 $618 $668 forward 7 unknown #
point $-1 -0.0083820000000000058 -0.019050000000000022 0.019304000000000009 #
coedge $-1 $669 $670 $575 $625 reversed $671 $-1 #
edge $672 $673 -0.014986000000000001 $628 -0.00025400000000000596 $575 $674 forward 7 unknown #
coedge $-1 $662 $576 $670 $675 forward $579 $-1 #
ptlist-eye-attrib $-1 $-1 $-1 $577 #
vertex $-1 $625 $676 #
face $-1 $677 $678 $3 $-1 $679 reversed single #
loop $-1 $-1 $650 $578 #
plane-surface $-1 -0.010668000000000006 -0.019050000000000015 0.019304000000000009 -1 -4.5061410204771359e-017 3.0814879110195774e-033 -4.5061410204771359e-017 1 -3.2923154220237949e-015 forward_v I I I I #
face $-1 $524 $579 $3 $-1 $680 forward single #
loop $-1 $-1 $681 $584 #
plane-surface $-1 0.010667999999999995 -0.008636000000000003 0.0086359999999999788 0 1 -3.4302530434182632e-015 0 3.4302530434182632e-015 1 forward_v I I I I #
ptlist-eye-attrib $-1 $-1 $-1 $587 #
vertex $-1 $645 $682 #
straight-curve $-1 -0.0083820000000000058 -0.0055880000000000148 0.019303999999999964 1.4867873920388077e-031 -3.2923154220237949e-015 -1 I I #
point $-1 -0.013360400000000005 -0.019050000000000015 0.012700000000000008 #
ptlist-eye-attrib $-1 $-1 $-1 $593 #
vertex $-1 $593 $683 #
ellipse-curve $-1 -0.017526000000000007 -0.0081211534331663664 0.012699999999999972 -4.5061410204771359e-017 1 -3.4914833611093821e-015 0.0041656000000000002 1.8770781034899559e-019 -1.2836246042143152e-035 1 I I #
coedge $-1 $603 $684 $594 $643 reversed $653 $-1 #
edge $685 $609 -0.0092709999999999997 $673 -0.0069849999999999999 $594 $621 forward 7 unknown #
coedge $-1 $618 $617 $598 $645 reversed $585 $-1 #
edge $686 $636 -0.0022859999999999998 $687 0 $644 $688 forward 7 unknown #
coedge $-1 $599 $649 $689 $690 forward $549 $-1 #
coedge $-1 $684 $603 $599 $648 reversed $653 $-1 #
edge $691 $692 -0.021336000000000001 $606 -0.019050000000000001 $647 $688 forward 7 unknown #
coedge $-1 $646 $600 $693 $694 forward $549 $-1 #
coedge $-1 $659 $695 $600 $651 reversed $630 $-1 #
edge $696 $687 -0.010667999999999997 $697 0 $650 $698 forward 7 unknown #
plane-surface $-1 -0.010668000000000006 -0.0055880000000000131 0.019303999999999964 4.5061410204771359e-017 -1 3.2923154220237949e-015 -1 -4.5061410204771359e-017 3.0814879110195774e-033 forward_v I I I I #
loop $-1 $-1 $603 $699 #
ptlist-eye-attrib $-1 $-1 $-1 $604 #
straight-curve $-1 0.0083819999999999954 -0.019050000000000018 0.019304000000000009 -4.5061410204771359e-017 1 -3.2923154220237949e-015 I I #
point $-1 0.0083819999999999954 -0.0055880000000000148 0.019303999999999964 #
point $-1 0.0083819999999999954 -0.019050000000000022 0.019304000000000009 #
coedge $-1 $700 $611 $613 $663 reversed $630 $-1 #
coedge $-1 $611 $650 $617 $665 reversed $630 $-1 #
ptlist-eye-attrib $-1 $-1 $-1 $612 #
straight-curve $-1 -0.010668000000000007 -0.019050000000000004 0.0096520000000000043 3.0814879110195774e-033 0 1 I I #
coedge $-1 $613 $626 $681 $701 forward $579 $-1 #
edge $702 $703 -0.010414000000000001 $615 0 $658 $704 forward 7 unknown #
point $-1 -0.010668000000000006 -0.019050000000000018 0.0045720000000000136 #
edge $705 $620 0 $687 0.013462000000000002 $659 $706 forward 7 unknown #
point $-1 -0.010668000000000006 -0.019050000000000015 0.019304000000000009 #
ptlist-eye-attrib $-1 $-1 $-1 $622 #
straight-curve $-1 -0.0083820000000000058 -0.019050000000000015 0.019304000000000009 4.5061410204771359e-017 -1 3.2923154220237949e-015 I I #
coedge $-1 $689 $624 $684 $707 forward $671 $-1 #
coedge $-1 $624 $708 $626 $675 reversed $671 $-1 #
loop $-1 $-1 $689 $677 #
ptlist-eye-attrib $-1 $-1 $-1 $625 #
vertex $-1 $625 $709 #
straight-curve $-1 0.010667999999999993 -0.019050000000000004 0.0043180000000000076 0 0 -1 I I #
edge $710 $628 -0.010414000000000001 $711 0 $670 $712 forward 7 unknown #
point $-1 0.010667999999999995 -0.019050000000000018 0.0045720000000000136 #
face $-1 $699 $671 $3 $-1 $713 reversed single #
loop $-1 $-1 $714 $629 #
plane-surface $-1 -0.010668000000000006 -0.01905000000000005 0.0086360000000000117 1.4867873920388077e-031 -3.2923154220237949e-015 -1 -4.5061410204771359e-017 1 -3.2923154220237949e-015 forward_v I I I I #
plane-surface $-1 -0.010668000000000006 -0.0086360000000000169 0.004571999999999978 0 3.4302530434182632e-015 1 -1 0 0 forward_v I I I I #
coedge $-1 $715 $716 $662 $701 reversed $633 $-1 #
point $-1 -0.0083820000000000058 -0.0055880000000000148 0.019303999999999964 #
point $-1 -0.021691600000000005 -0.0081211534331663664 0.012699999999999942 #
coedge $-1 $642 $647 $669 $707 reversed $653 $-1 #
ptlist-eye-attrib $-1 $-1 $-1 $643 #
ptlist-eye-attrib $-1 $-1 $-1 $645 #
vertex $-1 $665 $717 #
straight-curve $-1 -0.010668000000000006 -0.0055880000000000131 0.019303999999999964 -1 -4.5061410204771359e-017 3.0814879110195774e-033 I I #
coedge $-1 $718 $669 $646 $690 reversed $671 $-1 #
edge $719 $720 -0.010667999999999997 $692 0 $689 $721 forward 7 unknown #
ptlist-eye-attrib $-1 $-1 $-1 $648 #
vertex $-1 $707 $722 #
coedge $-1 $723 $724 $649 $694 reversed $678 $-1 #
edge $725 $697 -0.021336000000000001 $720 0 $693 $726 forward 7 unknown #
coedge $-1 $650 $700 $723 $727 forward $630 $-1 #
ptlist-eye-attrib $-1 $-1 $-1 $651 #
vertex $-1 $727 $728 #
straight-curve $-1 -0.010668000000000006 -0.0055880000000000478 0.0086359999999999666 1.4867873920388077e-031 -3.2923154220237949e-015 -1 I I #
face $-1 $601 $653 $3 $-1 $586 reversed single #
coedge $-1 $695 $658 $716 $729 reversed $630 $-1 #
edge $730 $711 -0.021336000000000001 $703 0 $681 $731 forward 7 unknown #
ptlist-eye-attrib $-1 $-1 $-1 $663 #
vertex $-1 $729 $732 #
straight-curve $-1 -0.010668000000000006 -0.019050000000000018 0.0045720000000000136 0 -1 3.4302530434182632e-015 I I #
ptlist-eye-attrib $-1 $-1 $-1 $665 #
straight-curve $-1 -0.010668000000000006 -0.019050000000000015 0.019304000000000009 -4.5061410204771359e-017 1 -3.2923154220237949e-015 I I #
edge $733 $673 0 $692 0.013462000000000003 $684 $734 forward 7 unknown #
coedge $-1 $670 $718 $715 $735 forward $671 $-1 #
point $-1 0.010667999999999995 -0.019050000000000015 0.019304000000000009 #
ptlist-eye-attrib $-1 $-1 $-1 $675 #
vertex $-1 $735 $736 #
straight-curve $-1 0.010667999999999995 -0.0086360000000000169 0.004571999999999978 0 1 -3.4302530434182632e-015 I I #
plane-surface $-1 0.010667999999999995 -0.01905000000000005 0.0086360000000000117 1 4.5061410204771359e-017 -3.0814879110195774e-033 4.5061410204771359e-017 -1 3.2923154220237949e-015 forward_v I I I I #
coedge $-1 $724 $723 $737 $738 forward $678 $-1 #
coedge $-1 $737 $681 $708 $735 reversed $633 $-1 #
coedge $-1 $681 $737 $700 $729 forward $633 $-1 #
point $-1 -0.010668000000000006 -0.0055880000000000131 0.019303999999999964 #
coedge $-1 $708 $689 $724 $739 reversed $671 $-1 #
ptlist-eye-attrib $-1 $-1 $-1 $690 #
vertex $-1 $739 $740 #
straight-curve $-1 0.010667999999999995 -0.0055880000000000114 0.019303999999999964 -1.4867873920388077e-031 3.2923154220237949e-015 1 I I #
point $-1 0.010667999999999995 -0.0055880000000000114 0.019303999999999964 #
coedge $-1 $714 $693 $695 $727 reversed $678 $-1 #
coedge $-1 $693 $714 $718 $739 forward $678 $-1 #
ptlist-eye-attrib $-1 $-1 $-1 $694 #
straight-curve $-1 0.010667999999999995 -0.0055880000000000461 0.0086359999999999666 1 4.5061410204771359e-017 -3.0814879110195774e-033 I I #
edge $741 $742 0.010414000000000046 $697 0.013462000000000002 $723 $743 forward 7 unknown #
point $-1 -0.010668000000000006 -0.0055880000000000478 0.0086359999999999666 #
edge $744 $742 0 $703 0.0040640000000000008 $700 $745 forward 7 unknown #
ptlist-eye-attrib $-1 $-1 $-1 $701 #
straight-curve $-1 -0.010668000000000006 -0.0086360000000000169 0.004571999999999978 -1 0 0 I I #
point $-1 -0.010668000000000006 -0.0086360000000000169 0.004571999999999978 #
ptlist-eye-attrib $-1 $-1 $-1 $707 #
straight-curve $-1 0.010667999999999995 -0.019050000000000015 0.019304000000000009 -4.5061410204771359e-017 1 -3.2923154220237949e-015 I I #
edge $746 $747 0 $711 0.0040640000000000008 $715 $748 forward 7 unknown #
point $-1 0.010667999999999995 -0.0086360000000000169 0.004571999999999978 #
coedge $-1 $716 $715 $714 $738 reversed $633 $-1 #
edge $749 $742 -0.010668 $747 0.010668 $714 $750 forward 7 unknown #
edge $751 $747 0.010414000000000046 $720 0.013462000000000003 $718 $752 forward 7 unknown #
point $-1 0.010667999999999995 -0.0055880000000000461 0.0086359999999999666 #
ptlist-eye-attrib $-1 $-1 $-1 $727 #
vertex $-1 $727 $753 #
straight-curve $-1 -0.010668000000000006 -0.01905000000000005 0.0086360000000000117 -4.5061410204771359e-017 1 -3.2923154220237949e-015 I I #
ptlist-eye-attrib $-1 $-1 $-1 $729 #
straight-curve $-1 -0.010668000000000006 -0.008636000000000003 0.0086359999999999788 0 -3.4302530434182632e-015 -1 I I #
ptlist-eye-attrib $-1 $-1 $-1 $735 #
vertex $-1 $739 $754 #
straight-curve $-1 0.010667999999999995 -0.008636000000000003 0.0086359999999999788 0 -3.4302530434182632e-015 -1 I I #
ptlist-eye-attrib $-1 $-1 $-1 $738 #
straight-curve $-1 -5.2041704279304213e-018 -0.0086360000000000013 0.008635999999999977 1 5.1000569764570228e-046 1.4867873920388077e-031 I I #
ptlist-eye-attrib $-1 $-1 $-1 $739 #
straight-curve $-1 0.010667999999999995 -0.01905000000000005 0.0086360000000000117 -4.5061410204771359e-017 1 -3.2923154220237949e-015 I I #
point $-1 -0.010668000000000006 -0.008636000000000003 0.0086359999999999788 #
point $-1 0.010667999999999995 -0.008636000000000003 0.0086359999999999788 #
End-of-ACIS-data 