600 0 1 0           
85 GICL ACIS Healer - Source: /gicl/data5/repository/VDS/vise_guide/vise_guide.sat - 6 0 18 ACIS 6.0.3 Solaris 24 Sat Apr 13 20:03:32 2002 
1 9.999999999999999547e-07 1.000000000000000036e-10 
body $-1 $1 $-1 $-1 #
lump $-1 $-1 $2 $0 #
shell $-1 $-1 $-1 $3 $-1 $1 #
face $-1 $4 $5 $2 $-1 $6 reversed single #
face $-1 $7 $8 $2 $-1 $9 reversed single #
loop $-1 $-1 $10 $3 #
plane-surface $-1 0.5527380180366933127 -0.5240312910000942681 0.5996263111386852529 -0.8660254037844385966 -1.784766006522375663e-15 -0.5000000000000003331 -1.774071267904383926e-15 39.37007874015747433 -1.374599748468260451e-13 forward_v I I I I #
face $-1 $11 $12 $2 $-1 $13 reversed single #
loop $-1 $-1 $14 $4 #
plane-surface $-1 0.6737062738867215517 -0.5240312910000950453 0.3901031459034454141 1.576535274066553042e-31 -3.491483361109382066e-15 -1 -1.774071267904383926e-15 39.37007874015747433 -1.374599748468260451e-13 forward_v I I I I #
coedge $-1 $15 $16 $17 $18 reversed $5 $-1 #
face $-1 $19 $20 $2 $-1 $21 reversed single #
loop $-1 $-1 $22 $7 #
plane-surface $-1 0.9156427855867779186 -0.5240312910000950453 0.3901031459034454141 0.8660254037844387076 -1.706717354587008178e-15 -0.500000000000000111 1.774071267904383926e-15 -39.37007874015747433 1.374599748468260451e-13 forward_v I I I I #
coedge $-1 $23 $24 $25 $26 reversed $8 $-1 #
coedge $-1 $27 $10 $28 $29 reversed $5 $-1 #
coedge $-1 $10 $27 $23 $30 forward $5 $-1 #
coedge $-1 $25 $31 $10 $18 forward $32 $-1 #
edge $-1 $33 -1.390597285582124254 $34 -1.341171003258605054 $17 $35 forward 7 unknown #
face $-1 $36 $37 $2 $-1 $38 reversed single #
loop $-1 $-1 $39 $11 #
plane-surface $-1 1.036611041436805936 -0.5240312910000942681 0.5996263111386852529 0.8660254037844383745 1.784766006522376057e-15 0.5000000000000004441 1.774071267904383926e-15 -39.37007874015747433 1.374599748468260451e-13 forward_v I I I I #
coedge $-1 $40 $41 $42 $43 reversed $12 $-1 #
coedge $-1 $44 $14 $16 $30 reversed $8 $-1 #
coedge $-1 $14 $44 $40 $45 forward $8 $-1 #
coedge $-1 $42 $17 $14 $26 forward $32 $-1 #
edge $-1 $34 -1.341171003258606387 $46 -1.240432394446285169 $25 $47 forward 7 unknown #
coedge $-1 $16 $15 $48 $49 reversed $5 $-1 #
coedge $-1 $50 $51 $15 $29 forward $52 $-1 #
edge $-1 $53 0 $33 0.007092963911969732242 $15 $54 forward 7 unknown #
edge $-1 $55 0 $34 0.006454389207193144198 $23 $56 forward 7 unknown #
coedge $-1 $17 $57 $50 $58 forward $32 $-1 #
loop $-1 $59 $60 $61 #
vertex $-1 $58 $62 #
vertex $-1 $18 $63 #
ellipse-curve $-1 0.1046745297367500382 -2.70430084087543543 1.375695037890737549 -0.8660254037844385966 -1.784766006522375663e-15 -0.5000000000000003331 2.500000000000001332 0 -4.330127018922192761 0.500000000000000222 I I #
face $-1 $64 $52 $2 $-1 $65 reversed single #
loop $-1 $-1 $66 $19 #
plane-surface $-1 0.9156427855867776966 -0.524031291000093491 0.8091494763739252027 -4.763639701294588676e-16 3.491483361109382066e-15 1 1.774071267904383926e-15 -39.37007874015747433 1.374599748468260451e-13 forward_v I I I I #
coedge $-1 $67 $68 $60 $69 reversed $20 $-1 #
coedge $-1 $70 $22 $24 $45 reversed $12 $-1 #
coedge $-1 $22 $70 $67 $71 forward $12 $-1 #
coedge $-1 $60 $25 $22 $43 forward $32 $-1 #
edge $-1 $46 -1.240432394446286501 $72 -1.188798968101719034 $42 $73 forward 7 unknown #
coedge $-1 $24 $23 $74 $75 reversed $8 $-1 #
edge $-1 $76 0 $46 0.004687349730587945552 $40 $77 forward 7 unknown #
vertex $-1 $26 $78 #
ellipse-curve $-1 0.1046745297367500382 -2.70430084087543543 0.3901031459034454141 1.576535274066553042e-31 -3.491483361109382066e-15 -1 2.500000000000001332 0 0 1 I I #
coedge $-1 $79 $74 $27 $49 forward $80 $-1 #
edge $-1 $55 0 $53 0.006145187397181433447 $27 $81 forward 7 unknown #
coedge $-1 $82 $28 $31 $58 reversed $52 $-1 #
coedge $-1 $28 $82 $79 $83 reversed $52 $-1 #
loop $-1 $-1 $50 $36 #
vertex $-1 $49 $84 #
straight-curve $-1 0.5527380180366933127 -0.5240312910000942681 0.5996263111386852529 -1.774071267904383926e-15 39.37007874015747433 -1.374599748468260451e-13 I I #
vertex $-1 $75 $85 #
straight-curve $-1 0.6737062738867215517 -0.5240312910000950453 0.3901031459034454141 -1.774071267904383926e-15 39.37007874015747433 -1.374599748468260451e-13 I I #
coedge $-1 $31 $60 $66 $86 forward $32 $-1 #
edge $-1 $87 1.341171003258607941 $33 1.390597285582127141 $31 $88 forward 7 unknown #
loop $-1 $89 $90 $61 #
coedge $-1 $57 $42 $39 $69 forward $32 $-1 #
face $-1 $91 $32 $2 $-1 $92 forward single #
point $-1 0.5527380180366932017 -0.2447807432847505515 0.5996263111386842537 #
point $-1 0.6737062738867214406 -0.2699214796932783988 0.3901031459034445259 #
face $-1 $93 $94 $2 $-1 $95 forward single #
plane-surface $-1 0.6737062738867213296 -0.524031291000093602 0.8091494763739252027 -0.8660254037844389297 1.706717354587006404e-15 0.4999999999999996669 -1.774071267904383926e-15 39.37007874015747433 -1.374599748468260451e-13 forward_v I I I I #
coedge $-1 $96 $97 $57 $86 reversed $37 $-1 #
coedge $-1 $98 $39 $41 $71 reversed $20 $-1 #
coedge $-1 $39 $98 $96 $99 forward $20 $-1 #
edge $-1 $72 1.188798968101716147 $100 1.240432394446283837 $60 $101 forward 7 unknown #
coedge $-1 $41 $40 $102 $103 reversed $12 $-1 #
edge $-1 $104 0 $72 0.003544195506768774498 $67 $105 forward 7 unknown #
vertex $-1 $69 $106 #
ellipse-curve $-1 0.1046745297367500382 -2.70430084087543543 -1.014535076554311521 0.8660254037844387076 -1.706717354587008178e-15 -0.500000000000000111 2.500000000000001332 0 4.330127018922194537 0.5 I I #
coedge $-1 $48 $102 $44 $75 forward $80 $-1 #
edge $-1 $76 0 $55 0.00614518739718143258 $44 $107 forward 7 unknown #
vertex $-1 $103 $108 #
straight-curve $-1 0.9156427855867779186 -0.5240312910000950453 0.3901031459034454141 -1.774071267904383926e-15 39.37007874015747433 -1.374599748468260451e-13 I I #
point $-1 0.9156427855867778076 -0.3394899630241917099 0.3901031459034447479 #
coedge $-1 $109 $48 $51 $83 forward $80 $-1 #
loop $-1 $-1 $102 $64 #
straight-curve $-1 0.6737062738867215517 -0.5240312910000950453 0.3901031459034454141 -19.68503937007874072 1.181567945869690919e-13 34.09548833797001066 I I #
coedge $-1 $51 $50 $97 $110 reversed $52 $-1 #
edge $-1 $53 0 $111 0.006145187397181431713 $51 $112 forward 7 unknown #
point $-1 0.5527380180366933127 -0.5240312910000942681 0.5996263111386852529 #
point $-1 0.6737062738867215517 -0.5240312910000950453 0.3901031459034454141 #
edge $-1 $100 1.240432394446285169 $87 1.341171003258606387 $57 $113 forward 7 unknown #
vertex $-1 $86 $114 #
ellipse-curve $-1 0.1046745297367500382 -2.70430084087543543 -0.1764424156133527766 -0.8660254037844389297 1.706717354587006404e-15 0.4999999999999996669 2.500000000000001332 0 4.330127018922199866 0.4999999999999996669 I I #
loop $-1 $-1 $115 $61 #
coedge $-1 $116 $117 $118 $119 forward $59 $-1 #
face $-1 $120 $121 $2 $-1 $122 forward single #
cone-surface $-1 0.1046745297367500382 -2.70430084087543543 0.09962631113868496147 0 0 1 2.500000000000001332 0 0 1 I I 0 1 2.500000000000001332 forward I I I I #
face $-1 $123 $124 $2 $-1 $125 reversed single #
loop $-1 $80 $126 $64 #
plane-surface $-1 0.7946745297367496796 -0.5240312910000942681 0.5996263111386852529 -4.506141020477135917e-17 1 -3.491483361109382066e-15 39.37007874015747433 1.774071267904383926e-15 -1.213184216936841298e-31 forward_v I I I I #
coedge $-1 $127 $66 $68 $99 reversed $37 $-1 #
coedge $-1 $66 $127 $82 $110 forward $37 $-1 #
coedge $-1 $68 $67 $128 $129 reversed $20 $-1 #
edge $-1 $130 0 $100 0.004687349730587905654 $96 $131 forward 7 unknown #
vertex $-1 $69 $132 #
ellipse-curve $-1 0.1046745297367500382 -2.70430084087543543 2.213787698831695572 0.8660254037844383745 1.784766006522376057e-15 0.5000000000000004441 2.500000000000001332 0 -4.330127018922190096 0.5000000000000004441 I I #
coedge $-1 $74 $128 $70 $103 forward $80 $-1 #
edge $-1 $104 -0 $76 0.006145187397181428243 $70 $133 forward 7 unknown #
vertex $-1 $103 $134 #
straight-curve $-1 1.036611041436805936 -0.5240312910000942681 0.5996263111386852529 -1.774071267904383926e-15 39.37007874015747433 -1.374599748468260451e-13 I I #
point $-1 1.036611041436805936 -0.3844960348280953011 0.5996263111386846978 #
straight-curve $-1 0.9156427855867779186 -0.5240312910000950453 0.3901031459034454141 -39.37007874015747433 -1.774071267904383926e-15 1.213184216936841298e-31 I I #
point $-1 0.9156427855867779186 -0.5240312910000950453 0.3901031459034454141 #
coedge $-1 $128 $79 $127 $135 forward $80 $-1 #
edge $-1 $111 0 $87 0.006454389207193106902 $82 $136 forward 7 unknown #
vertex $-1 $83 $137 #
straight-curve $-1 0.5527380180366933127 -0.5240312910000942681 0.5996263111386852529 19.68503937007872295 1.199308658548735324e-13 34.09548833797003198 I I #
ellipse-curve $-1 0.1046745297367500382 -2.70430084087543543 0.8091494763739252027 -4.763639701294588676e-16 3.491483361109382066e-15 1 2.500000000000001332 0 0 1 I I #
point $-1 0.6737062738867213296 -0.2699214796932783988 0.8091494763739243146 #
coedge $-1 $138 $139 $140 $141 forward $89 $-1 #
coedge $-1 $142 $90 $143 $144 forward $59 $-1 #
coedge $-1 $90 $145 $146 $147 forward $59 $-1 #
coedge $-1 $148 $149 $90 $119 reversed $150 $-1 #
edge $-1 $151 1.75099536800766642 $152 1.800421650331185841 $90 $153 forward 7 unknown #
face $-1 $154 $155 $2 $-1 $156 forward single #
loop $-1 $-1 $157 $91 #
plane-surface $-1 -0.8653254702632496853 -0.9543008408754344307 0.09962631113868496147 -1 0 0 0 0 39.37007874015747433 forward_v I I I I #
face $-1 $158 $159 $2 $-1 $160 reversed single #
loop $-1 $-1 $161 $93 #
plane-surface $-1 -0.8272619819633064697 -0.5240312910000943791 0.5996263111386852529 -0.8660254037844385966 -1.784766006522375663e-15 -0.5000000000000003331 -1.774071267904383926e-15 39.37007874015747433 -1.374599748468260451e-13 forward_v I I I I #
coedge $-1 $126 $126 $162 $163 reversed $94 $-1 #
coedge $-1 $97 $96 $109 $135 reversed $37 $-1 #
coedge $-1 $102 $109 $98 $129 forward $80 $-1 #
edge $-1 $130 0 $104 0.006145187397181435182 $98 $164 forward 7 unknown #
vertex $-1 $135 $165 #
straight-curve $-1 0.9156427855867776966 -0.524031291000093491 0.8091494763739252027 -1.774071267904383926e-15 39.37007874015747433 -1.374599748468260451e-13 I I #
point $-1 0.9156427855867775856 -0.3394899630241917099 0.8091494763739245366 #
straight-curve $-1 1.036611041436805936 -0.5240312910000942681 0.5996263111386852529 -19.68503937007874072 -1.199308658548735072e-13 -34.09548833797002487 I I #
point $-1 1.036611041436805936 -0.5240312910000942681 0.5996263111386852529 #
edge $-1 $111 0 $130 0.00614518739718143258 $127 $166 forward 7 unknown #
straight-curve $-1 0.6737062738867213296 -0.524031291000093602 0.8091494763739252027 -1.774071267904383926e-15 39.37007874015747433 -1.374599748468260451e-13 I I #
point $-1 0.6737062738867213296 -0.524031291000093602 0.8091494763739252027 #
coedge $-1 $167 $115 $168 $169 forward $89 $-1 #
coedge $-1 $115 $167 $170 $171 reversed $89 $-1 #
coedge $-1 $172 $173 $115 $141 reversed $174 $-1 #
edge $-1 $175 0.8483594977509074653 $176 0.9081151919724403943 $115 $177 forward 7 unknown #
coedge $-1 $178 $116 $179 $180 forward $59 $-1 #
coedge $-1 $181 $182 $116 $144 reversed $183 $-1 #
edge $-1 $152 1.800421650331187173 $184 1.901160259143508391 $116 $185 forward 7 unknown #
coedge $-1 $117 $178 $186 $187 forward $59 $-1 #
coedge $-1 $188 $189 $117 $147 reversed $190 $-1 #
edge $-1 $191 -1.800421650331188506 $151 -1.750995368007669306 $117 $192 forward 7 unknown #
coedge $-1 $193 $118 $189 $194 reversed $150 $-1 #
coedge $-1 $118 $193 $181 $195 forward $150 $-1 #
loop $-1 $-1 $118 $196 #
vertex $-1 $119 $197 #
vertex $-1 $119 $198 #
ellipse-curve $-1 0.1046745297367500382 -2.70430084087543543 -0.1764424156133517774 0.8660254037844383745 1.784766006522376057e-15 0.5000000000000004441 2.500000000000001332 0 -4.330127018922190096 0.5000000000000004441 I I #
face $-1 $199 $200 $2 $-1 $201 forward single #
loop $-1 $-1 $202 $120 #
plane-surface $-1 -0.8653254702632496853 -0.5543008408754344085 0.09962631113868496147 0 -1 0 0 0 -39.37007874015747433 forward_v I I I I #
coedge $-1 $203 $204 $205 $206 forward $121 $-1 #
face $-1 $196 $190 $2 $-1 $207 reversed single #
loop $-1 $-1 $186 $123 #
plane-surface $-1 -0.7062937261132782307 -0.5240312910000950453 0.3901031459034454141 1.576535274066553042e-31 -3.491483361109382066e-15 -1 -1.774071267904383926e-15 39.37007874015747433 -1.374599748468260451e-13 forward_v I I I I #
coedge $-1 $208 $209 $178 $210 reversed $124 $-1 #
coedge $-1 $162 $162 $126 $163 forward $211 $-1 #
edge $-1 $212 -3.141592653589800221 $212 3.141592653589786011 $162 $213 forward 7 unknown #
straight-curve $-1 0.9156427855867776966 -0.524031291000093491 0.8091494763739252027 19.68503937007875493 -1.181567945869690666e-13 -34.09548833797001066 I I #
point $-1 0.9156427855867776966 -0.524031291000093491 0.8091494763739252027 #
straight-curve $-1 0.6737062738867213296 -0.524031291000093602 0.8091494763739252027 39.37007874015747433 1.774071267904449401e-15 1.875448701297080966e-14 I I #
coedge $-1 $139 $138 $214 $215 forward $89 $-1 #
coedge $-1 $216 $217 $138 $169 reversed $200 $-1 #
edge $-1 $176 0.006800634984167434893 $218 0.02235200000000000034 $138 $219 forward 7 unknown #
coedge $-1 $220 $221 $139 $171 forward $222 $-1 #
edge $-1 $175 0.006869001409155786088 $223 0.02235200000000000034 $170 $224 forward 7 unknown #
coedge $-1 $225 $140 $221 $226 reversed $174 $-1 #
coedge $-1 $140 $227 $216 $228 reversed $174 $-1 #
loop $-1 $-1 $229 $230 #
vertex $-1 $171 $231 #
vertex $-1 $169 $232 #
intcurve-curve $-1 forward { surfintcur full nubs 3 open 7 
	0.8483594977509074653 3 0.8508200377030630257 2 0.8638650428368099821 2 0.8769100479705569384 2 0.8896890660512154492 2 
	0.9024680841318739599 2 0.9081151919724403943 3 
	1.229674529736749733 -0.4717294534389654403 0.3700594374834009215 
	1.202157583628511661 -0.4578635745936249224 0.3561522762650723428 
	1.174246680921578134 -0.444437364499259191 0.3426853475796894366 
	0.9960417263550315203 -0.3627926360706160702 0.2607872299316127962 
	0.8353700339568937983 -0.3073720490778294456 0.2051673172759188313 
	0.5028157480996362505 -0.2303233777605241395 0.1277342862876697516 
	0.330937751456571505 -0.2086853321065072209 0.1059113384363198629 
	-0.007787093711033893362 -0.2012103796648855303 0.09807426331290845789 
	-0.1779809763880798312 -0.2146099672934625169 0.1112932178642886266 
	-0.5101353143055589179 -0.275195518762868907 0.1715059626086491984 
	-0.672093855265541773 -0.3223866904289970359 0.2185050723202535128 
	-0.8915842744065349823 -0.4102393331167052404 0.3060647078677921629 
	-0.9570416085257492655 -0.4398405092128923055 0.3355738135376037934 
	-1.020325470263249823 -0.4717294534389654403 0.3673678459484264747 
	0.004527950498030498989 
	cone 0.1020037838670551228 -0.9543008408754347638 2.601287986199567026 -4.506141020477135917e-17 1 6.123031769111886291e-17 -2.500004429535348738 -1.126537251130377637e-16 7.703733427108571982e-33 1 I I 0 -1 2.500004429535348738 forward I I I I 
	cone 0.1046745297367500382 -2.70430084087543543 0.09962631113868496147 0 0 1 2.500000000000001332 0 0 1 I I 0 1 2.500000000000001332 forward I I I I 
	nullbs 
	nullbs 
	I I 
	0 
	0 
	0 
	} I I #
coedge $-1 $145 $142 $161 $210 forward $59 $-1 #
coedge $-1 $233 $234 $142 $180 reversed $235 $-1 #
edge $-1 $184 1.901160259143509723 $236 1.952793685488077191 $142 $237 forward 7 unknown #
coedge $-1 $238 $143 $149 $195 reversed $183 $-1 #
coedge $-1 $143 $238 $233 $239 forward $183 $-1 #
loop $-1 $-1 $143 $240 #
vertex $-1 $144 $241 #
ellipse-curve $-1 0.1046745297367500382 -2.70430084087543543 0.8091494763739252027 -4.763639701294588676e-16 3.491483361109382066e-15 1 2.500000000000001332 0 0 1 I I #
coedge $-1 $242 $243 $145 $187 reversed $159 $-1 #
edge $-1 $244 -1.901160259143508391 $191 -1.800421650331187173 $145 $245 forward 7 unknown #
coedge $-1 $246 $146 $243 $247 reversed $190 $-1 #
coedge $-1 $146 $246 $148 $194 forward $190 $-1 #
loop $-1 $-1 $146 $158 #
vertex $-1 $187 $248 #
ellipse-curve $-1 0.1046745297367500382 -2.70430084087543543 1.375695037890738659 0.8660254037844387076 -1.706717354587008178e-15 -0.500000000000000111 2.500000000000001332 0 4.330127018922194537 0.5 I I #
coedge $-1 $149 $148 $249 $250 reversed $150 $-1 #
edge $-1 $251 0 $151 0.007092963911969734844 $148 $252 forward 7 unknown #
edge $-1 $253 0 $152 0.006454389207193106902 $181 $254 forward 7 unknown #
face $-1 $240 $150 $2 $-1 $255 reversed single #
point $-1 -0.3433889585631938468 -0.2447807432847505515 0.5996263111386842537 #
point $-1 -0.4643572144132220858 -0.2699214796932783988 0.8091494763739243146 #
face $-1 $-1 $256 $2 $-1 $257 reversed single #
loop $-1 $-1 $216 $154 #
plane-surface $-1 -1.020325470263249823 -0.5543008408754344085 0.09962631113868496147 -1 0 0 0 0 39.37007874015747433 forward_v I I I I #
coedge $-1 $258 $259 $227 $260 forward $155 $-1 #
coedge $-1 $261 $157 $262 $263 forward $121 $-1 #
coedge $-1 $157 $261 $258 $264 reversed $121 $-1 #
coedge $-1 $227 $265 $157 $206 reversed $174 $-1 #
edge $-1 $266 -0.01016000000000001104 $267 -8.459899447643694805e-18 $157 $268 forward 7 unknown #
plane-surface $-1 -0.4643572144132218638 -0.5240312910000950453 0.3901031459034454141 0.8660254037844387076 -1.706717354587008178e-15 -0.500000000000000111 1.774071267904383926e-15 -39.37007874015747433 1.374599748468260451e-13 forward_v I I I I #
coedge $-1 $269 $161 $234 $270 reversed $124 $-1 #
coedge $-1 $161 $269 $242 $271 forward $124 $-1 #
edge $-1 $236 -1.952793685488074527 $244 -1.901160259143506837 $178 $272 forward 7 unknown #
loop $-1 $273 $162 $274 #
vertex $-1 $163 $275 #
ellipse-curve $-1 0.7946745297367497907 -0.5240312910000942681 0.5996263111386838096 -4.506141020477135917e-17 1 -3.491483361109382066e-15 0.1639999999999999791 7.390071273582501647e-18 -5.053640174072106235e-34 1 I I #
coedge $-1 $276 $277 $167 $215 reversed $256 $-1 #
edge $-1 $218 -2.037561665842193115 $223 -1.104030987747600445 $167 $278 forward 7 unknown #
coedge $-1 $279 $168 $173 $228 forward $200 $-1 #
coedge $-1 $168 $279 $276 $280 forward $200 $-1 #
vertex $-1 $169 $281 #
straight-curve $-1 -1.020325470263249823 -0.4717294534389654403 0.09962631113868496147 0 0 39.37007874015747433 I I #
coedge $-1 $282 $170 $277 $283 forward $222 $-1 #
coedge $-1 $170 $282 $172 $226 forward $222 $-1 #
loop $-1 $-1 $221 $284 #
vertex $-1 $171 $285 #
straight-curve $-1 1.229674529736749733 -0.4717294534389654403 0.09962631113868496147 0 0 39.37007874015747433 I I #
coedge $-1 $286 $172 $287 $288 reversed $174 $-1 #
edge $-1 $289 0.01016000000000000757 $175 0.01225731324088632015 $221 $290 forward 7 unknown #
coedge $-1 $173 $205 $202 $260 reversed $174 $-1 #
edge $-1 $176 -0.01225731324088632189 $291 -0.01016000000000001104 $216 $292 forward 7 unknown #
coedge $-1 $265 $293 $294 $295 forward $174 $-1 #
face $-1 $296 $174 $2 $-1 $297 reversed single #
point $-1 1.229674529736749733 -0.4717294534389654403 0.3700594374834009215 #
point $-1 -1.020325470263249823 -0.4717294534389654403 0.3673678459484264747 #
coedge $-1 $298 $179 $182 $239 reversed $235 $-1 #
coedge $-1 $179 $298 $208 $270 forward $235 $-1 #
loop $-1 $-1 $179 $299 #
vertex $-1 $180 $300 #
ellipse-curve $-1 0.1046745297367500382 -2.70430084087543543 2.213787698831699569 -0.8660254037844389297 1.706717354587006404e-15 0.4999999999999996669 2.500000000000001332 0 4.330127018922199866 0.4999999999999996669 I I #
coedge $-1 $182 $181 $301 $302 reversed $183 $-1 #
edge $-1 $303 0 $184 0.004687349730587901317 $233 $304 forward 7 unknown #
face $-1 $299 $183 $2 $-1 $305 reversed single #
point $-1 -0.7062937261132784528 -0.3394899630241919875 0.8091494763739245366 #
coedge $-1 $306 $186 $209 $271 reversed $159 $-1 #
coedge $-1 $186 $306 $188 $247 forward $159 $-1 #
vertex $-1 $210 $307 #
ellipse-curve $-1 0.1046745297367500382 -2.70430084087543543 0.3901031459034454141 1.576535274066553042e-31 -3.491483361109382066e-15 -1 2.500000000000001332 0 0 1 I I #
coedge $-1 $189 $188 $308 $309 reversed $190 $-1 #
edge $-1 $310 0 $191 0.006454389207193144198 $188 $311 forward 7 unknown #
point $-1 -0.4643572144132218638 -0.2699214796932783988 0.3901031459034445259 #
coedge $-1 $308 $301 $193 $250 forward $312 $-1 #
edge $-1 $253 0 $251 0.006145187397181436049 $193 $313 forward 7 unknown #
vertex $-1 $309 $314 #
straight-curve $-1 -0.3433889585631937358 -0.5240312910000943791 0.5996263111386852529 -1.774071267904383926e-15 39.37007874015747433 -1.374599748468260451e-13 I I #
vertex $-1 $302 $315 #
straight-curve $-1 -0.4643572144132220858 -0.524031291000093602 0.8091494763739252027 -1.774071267904383926e-15 39.37007874015747433 -1.374599748468260451e-13 I I #
plane-surface $-1 -0.3433889585631937358 -0.5240312910000943791 0.5996263111386852529 0.8660254037844383745 1.784766006522376057e-15 0.5000000000000004441 1.774071267904383926e-15 -39.37007874015747433 1.374599748468260451e-13 forward_v I I I I #
loop $-1 $-1 $316 $199 #
plane-surface $-1 -1.020325470263249823 -0.4717294534389654403 0.9796263111386848133 0 0 -1 -39.37007874015747433 0 0 forward_v I I I I #
coedge $-1 $317 $202 $204 $264 forward $155 $-1 #
coedge $-1 $202 $317 $279 $318 reversed $155 $-1 #
edge $-1 $291 1.105227782349329502 $266 1.173495291271948515 $202 $319 forward 7 unknown #
coedge $-1 $204 $203 $320 $321 forward $121 $-1 #
coedge $-1 $322 $323 $203 $263 reversed $324 $-1 #
edge $-1 $267 0.004988202616303226943 $325 0.02235200000000000034 $203 $326 forward 7 unknown #
edge $-1 $266 0.00498820261630322781 $327 0.02235200000000000034 $258 $328 forward 7 unknown #
coedge $-1 $205 $229 $322 $329 reversed $174 $-1 #
vertex $-1 $264 $330 #
vertex $-1 $263 $331 #
straight-curve $-1 -0.8653254702632496853 -0.9543008408754347638 0.2960122409144025357 1.774071267904383926e-15 -39.37007874015747433 -2.410642428784206801e-15 I I #
coedge $-1 $209 $208 $332 $333 reversed $124 $-1 #
edge $-1 $334 0 $236 0.003544195506768770161 $208 $335 forward 7 unknown #
edge $-1 $336 0 $244 0.004687349730587938614 $242 $337 forward 7 unknown #
ellipse-curve $-1 0.1046745297367500382 -2.70430084087543543 -1.014535076554311077 -0.8660254037844385966 -1.784766006522375663e-15 -0.5000000000000003331 2.500000000000001332 0 -4.330127018922192761 0.500000000000000222 I I #
loop $-1 $-1 $338 $274 #
face $-1 $61 $211 $2 $-1 $339 reversed single #
point $-1 0.630674529736749867 -0.5240312910000942681 0.5996263111386825884 #
coedge $-1 $340 $214 $217 $280 reversed $256 $-1 #
coedge $-1 $214 $341 $220 $283 reversed $256 $-1 #
ellipse-curve $-1 0.1046745297367500382 -2.70430084087543543 0.9796263111386848133 0 0 -1 2.500000000000001332 0 0 1 F -2.037561665842192671 F -1.104030987747600667 #
coedge $-1 $217 $216 $259 $318 forward $200 $-1 #
edge $-1 $342 -0.002097313240886312154 $218 0 $217 $343 forward 7 unknown #
point $-1 -1.020325470263249823 -0.4717294534389654403 0.9796263111386848133 #
coedge $-1 $221 $220 $344 $345 reversed $222 $-1 #
edge $-1 $223 -0.002097313240886312154 $346 0 $220 $347 forward 7 unknown #
face $-1 $274 $222 $2 $-1 $348 forward single #
point $-1 1.229674529736749733 -0.4717294534389654403 0.9796263111386848133 #
coedge $-1 $293 $225 $349 $350 reversed $174 $-1 #
coedge $-1 $344 $351 $225 $288 forward $352 $-1 #
edge $-1 $353 1.97041556471927648 $289 2.038757395908060488 $287 $354 forward 7 unknown #
vertex $-1 $345 $355 #
straight-curve $-1 1.229674529736749733 -0.9543008408754346528 0.370059437483400866 -1.774071267904383926e-15 39.37007874015747433 2.410642428784206801e-15 I I #
vertex $-1 $318 $356 #
straight-curve $-1 -1.020325470263249823 -0.9543008408754347638 0.3673678459484264747 1.774071267904383926e-15 -39.37007874015747433 -2.410642428784206801e-15 I I #
coedge $-1 $229 $286 $357 $358 reversed $174 $-1 #
coedge $-1 $359 $360 $229 $295 reversed $361 $-1 #
edge $-1 $362 -0.01378281329672324459 $363 0 $229 $364 forward 7 unknown #
face $-1 $365 $366 $2 $-1 $367 forward single #
cone-surface $-1 0.1020037838670551228 -0.9543008408754347638 2.601287986199567026 -4.506141020477135917e-17 1 6.123031769111886291e-17 -2.500004429535348738 -1.126537251130377637e-16 7.703733427108571982e-33 1 I I 0 -1 2.500004429535348738 forward I I I I #
coedge $-1 $234 $233 $368 $369 reversed $235 $-1 #
face $-1 $370 $235 $2 $-1 $371 reversed single #
point $-1 -0.8272619819633064697 -0.3844960348280955786 0.5996263111386846978 #
coedge $-1 $249 $368 $238 $302 forward $312 $-1 #
edge $-1 $303 0 $253 0.006145187397181429978 $238 $372 forward 7 unknown #
vertex $-1 $369 $373 #
straight-curve $-1 -0.7062937261132783417 -0.524031291000093602 0.8091494763739252027 -1.774071267904383926e-15 39.37007874015747433 -1.374599748468260451e-13 I I #
plane-surface $-1 -0.4643572144132220858 -0.524031291000093602 0.8091494763739252027 -4.763639701294588676e-16 3.491483361109382066e-15 1 1.774071267904383926e-15 -39.37007874015747433 1.374599748468260451e-13 forward_v I I I I #
coedge $-1 $243 $242 $374 $375 reversed $159 $-1 #
point $-1 -0.7062937261132782307 -0.3394899630241919875 0.3901031459034447479 #
coedge $-1 $374 $249 $246 $309 forward $312 $-1 #
edge $-1 $251 -0 $310 0.006145187397181429111 $246 $376 forward 7 unknown #
vertex $-1 $309 $377 #
straight-curve $-1 -0.4643572144132218638 -0.5240312910000950453 0.3901031459034454141 -1.774071267904383926e-15 39.37007874015747433 -1.374599748468260451e-13 I I #
loop $-1 $-1 $308 $370 #
straight-curve $-1 -0.4643572144132220858 -0.524031291000093602 0.8091494763739252027 19.68503937007875493 -1.181567945869690666e-13 -34.09548833797001066 I I #
point $-1 -0.3433889585631937358 -0.5240312910000943791 0.5996263111386852529 #
point $-1 -0.4643572144132220858 -0.524031291000093602 0.8091494763739252027 #
coedge $-1 $378 $379 $380 $381 forward $256 $-1 #
coedge $-1 $259 $258 $340 $382 forward $155 $-1 #
edge $-1 $291 0.006800634984167434893 $342 0.02235200000000000034 $279 $383 forward 7 unknown #
ellipse-curve $-1 0.1020037838670551089 -0.5543008408754344085 2.601287986199567026 0 -1 0 -2.500004429535348738 -1.126537251130377637e-16 7.703733427108571982e-33 1 I I #
coedge $-1 $384 $340 $261 $321 reversed $256 $-1 #
edge $-1 $325 -0.01016000000000000236 $327 0 $261 $385 forward 7 unknown #
coedge $-1 $386 $262 $265 $329 forward $324 $-1 #
coedge $-1 $262 $387 $384 $388 forward $324 $-1 #
loop $-1 $-1 $386 $296 #
vertex $-1 $263 $389 #
straight-curve $-1 -0.8653254702632496853 -0.9543008408754344307 0.09962631113868496147 0 0 39.37007874015747433 I I #
vertex $-1 $264 $390 #
straight-curve $-1 -0.8653254702632496853 -0.5543008408754344085 0.09962631113868496147 0 0 39.37007874015747433 I I #
edge $-1 $267 1.173495291271948515 $363 1.499805136212509105 $322 $391 forward 7 unknown #
point $-1 -0.8653254702632496853 -0.5543008408754344085 0.2960122409144025912 #
point $-1 -0.8653254702632496853 -0.9543008408754344307 0.2960122409144025357 #
coedge $-1 $368 $374 $269 $333 forward $312 $-1 #
edge $-1 $336 0 $334 0.006145187397181433447 $269 $392 forward 7 unknown #
vertex $-1 $333 $393 #
straight-curve $-1 -0.8272619819633064697 -0.5240312910000943791 0.5996263111386852529 -1.774071267904383926e-15 39.37007874015747433 -1.374599748468260451e-13 I I #
vertex $-1 $375 $394 #
straight-curve $-1 -0.7062937261132782307 -0.5240312910000950453 0.3901031459034454141 -1.774071267904383926e-15 39.37007874015747433 -1.374599748468260451e-13 I I #
coedge $-1 $338 $338 $395 $396 reversed $273 $-1 #
cone-surface $-1 0.7946745297367497907 -0.9543008408754346528 0.5996263111386851419 -4.506141020477135917e-17 1 -3.292315422023794902e-15 0.1639999999999999791 7.390071273582501647e-18 -5.053640174072106235e-34 1 I I 0 1 0.1639999999999999791 forward I I I I #
coedge $-1 $320 $276 $317 $382 reversed $256 $-1 #
coedge $-1 $277 $397 $398 $399 reversed $256 $-1 #
vertex $-1 $318 $400 #
straight-curve $-1 -1.020325470263249823 -0.4717294534389654403 0.9796263111386848133 0 39.37007874015747433 0 I I #
coedge $-1 $398 $287 $282 $345 forward $352 $-1 #
edge $-1 $289 0.006869001409155786088 $346 0.02235200000000000034 $344 $401 forward 7 unknown #
vertex $-1 $345 $402 #
straight-curve $-1 1.229674529736749733 -0.5543008408754344085 0.9796263111386848133 0 -39.37007874015747433 0 I I #
plane-surface $-1 1.229674529736749733 -0.4717294534389654403 0.09962631113868496147 1 0 0 0 0 -39.37007874015747433 forward_v I I I I #
coedge $-1 $403 $404 $286 $350 forward $405 $-1 #
edge $-1 $406 0 $353 0.01016000000000000757 $349 $407 forward 7 unknown #
coedge $-1 $287 $398 $403 $408 reversed $352 $-1 #
loop $-1 $-1 $287 $409 #
vertex $-1 $408 $410 #
ellipse-curve $-1 0.1020037838670551089 -0.5543008408754346306 2.601287986199567026 0 -1 0 -2.500004429535348738 -1.126537251130377637e-16 7.703733427108571982e-33 1 I I #
point $-1 1.229674529736749733 -0.5543008408754344085 0.3700594374834009215 #
point $-1 -1.020325470263249823 -0.5543008408754344085 0.3673678459484264747 #
coedge $-1 $411 $412 $293 $358 forward $413 $-1 #
edge $-1 $362 1.643929670357799244 $406 1.97041556471927648 $357 $391 forward 7 unknown #
coedge $-1 $414 $294 $412 $415 reversed $361 $-1 #
coedge $-1 $294 $414 $386 $416 reversed $361 $-1 #
loop $-1 $-1 $359 $417 #
vertex $-1 $358 $418 #
vertex $-1 $416 $419 #
intcurve-curve $-1 forward { surfintcur full nubs 3 open 9 
	-0.01378281329672324459 3 -0.01205995615516371709 2 -0.01033709901360418959 2 -0.008614196058207991558 2 -0.006891293102811790056 2 
	-0.005168493214952454839 2 -0.003445693327093123093 2 -0.001722846663546561546 2 0 3 
	0.2846745297367497818 -0.9543008408754345417 0.1079661966385460636 
	0.2846745297367496708 -0.931691167101687423 0.1079661966385460498 
	0.2801541922278436569 -0.9075800877790790588 0.1076195625007660417 
	0.2617826677758634535 -0.8632342398767059999 0.1063800396852292857 
	0.2479312403808849041 -0.8429993554178640824 0.1054948726464940006 
	0.2159777882212784439 -0.8110454130158177843 0.1038316746363375787 
	0.1957427025035987089 -0.7971935520317010582 0.1029406071750977314 
	0.1513962623903598037 -0.7788213861854298425 0.1016755511477951263 
	0.1272847918398747891 -0.7743008408754353811 0.1013091377154342332 
	0.08206562022520041966 -0.7743008408754353811 0.1012608302071320993 
	0.05795476433035825353 -0.7788208914975428554 0.1015756911690500613 
	0.01360868487100749813 -0.7971922672841847968 0.1027458403664879422 
	-0.006626646533970811936 -0.8110438138632295457 0.1035935531978781771 
	-0.03858127350022563795 -0.8429979649486771809 0.1051882472872743279 
	-0.05243321841332806987 -0.8632334737038508399 0.106043679766828422 
	-0.07080520442118864999 -0.9075800858412420569 0.1072437191783453952 
	-0.07532547026325006612 -0.9316913046084192018 0.1075806089546040012 
	-0.07532547026325014938 -0.9543008408754345417 0.1075806089546040012 
	0.003801107567101656617 
	cone 0.1046745297367498301 -0.9543008408754347638 0.2796263111386855793 0 -3.231085104332676039e-15 -1 0.1799999999999999656 0 0 1 I I 0 1 0.1799999999999999656 forward I I I I 
	cone 0.1020037838670551228 -0.9543008408754347638 2.601287986199567026 -4.506141020477135917e-17 1 6.123031769111886291e-17 -2.500004429535348738 -1.126537251130377637e-16 7.703733427108571982e-33 1 I I 0 1 2.500004429535348738 forward I I I I 
	nullbs 
	nullbs 
	I I 
	0 
	0 
	0 
	} I I #
face $-1 $420 $421 $2 $-1 $422 reversed single #
loop $-1 $324 $423 $296 #
plane-surface $-1 1.074674529736749706 -0.9543008408754344307 0.09962631113868496147 0 -1 0 0 0 -39.37007874015747433 forward_v I I I I #
coedge $-1 $301 $332 $298 $369 forward $312 $-1 #
edge $-1 $334 0 $303 0.006145187397181433447 $298 $424 forward 7 unknown #
face $-1 $425 $426 $2 $-1 $427 forward single #
plane-surface $-1 -0.7062937261132783417 -0.524031291000093602 0.8091494763739252027 -0.8660254037844389297 1.706717354587006404e-15 0.4999999999999996669 -1.774071267904383926e-15 39.37007874015747433 -1.374599748468260451e-13 forward_v I I I I #
straight-curve $-1 -0.7062937261132783417 -0.524031291000093602 0.8091494763739252027 39.37007874015747433 1.774071267904449401e-15 1.875448701297080966e-14 I I #
point $-1 -0.7062937261132783417 -0.524031291000093602 0.8091494763739252027 #
coedge $-1 $332 $308 $306 $375 forward $312 $-1 #
edge $-1 $310 0 $336 0.00614518739718143258 $306 $428 forward 7 unknown #
straight-curve $-1 -0.3433889585631937358 -0.5240312910000943791 0.5996263111386852529 -19.68503937007874072 -1.199308658548735072e-13 -34.09548833797002487 I I #
point $-1 -0.4643572144132218638 -0.5240312910000950453 0.3901031459034454141 #
coedge $-1 $397 $316 $429 $430 reversed $256 $-1 #
coedge $-1 $316 $431 $432 $433 forward $256 $-1 #
coedge $-1 $434 $435 $316 $381 reversed $436 $-1 #
edge $-1 $437 -0.007333343379556853808 $438 0.006128656620443154006 $316 $439 forward 7 unknown #
edge $-1 $327 -0.003937000000000003865 $342 0 $317 $440 forward 7 unknown #
straight-curve $-1 -1.020325470263249823 -0.5543008408754344085 0.09962631113868496147 0 0 39.37007874015747433 I I #
coedge $-1 $431 $320 $323 $388 reversed $256 $-1 #
straight-curve $-1 -0.8653254702632496853 -0.5543008408754344085 0.9796263111386848133 0 39.37007874015747433 0 I I #
coedge $-1 $441 $322 $360 $416 forward $324 $-1 #
coedge $-1 $323 $442 $443 $444 forward $324 $-1 #
edge $-1 $445 -0.01625599999999999268 $325 0 $323 $446 forward 7 unknown #
point $-1 -0.8653254702632496853 -0.9543008408754344307 0.9796263111386848133 #
point $-1 -0.8653254702632496853 -0.5543008408754344085 0.9796263111386848133 #
ellipse-curve $-1 0.1020037838670551228 -0.9543008408754345417 2.601287986199567026 0 -1 0 -2.500004429535348738 -1.126537251130377637e-16 7.703733427108571982e-33 1 I I #
straight-curve $-1 -0.7062937261132782307 -0.5240312910000950453 0.3901031459034454141 -19.68503937007874072 1.181567945869690919e-13 34.09548833797001066 I I #
point $-1 -0.8272619819633064697 -0.5240312910000943791 0.5996263111386852529 #
point $-1 -0.7062937261132782307 -0.5240312910000950453 0.3901031459034454141 #
coedge $-1 $395 $395 $338 $396 forward $447 $-1 #
edge $-1 $448 -3.081487911019577365e-33 $448 6.283185307179586232 $395 $449 forward 7 unknown #
coedge $-1 $341 $378 $450 $451 reversed $256 $-1 #
coedge $-1 $351 $344 $341 $399 forward $352 $-1 #
edge $-1 $346 -0.003937000000000001262 $452 0 $398 $453 forward 7 unknown #
point $-1 -1.020325470263249823 -0.5543008408754344085 0.9796263111386848133 #
straight-curve $-1 1.229674529736749733 -0.5543008408754344085 0.09962631113868496147 0 0 39.37007874015747433 I I #
point $-1 1.229674529736749733 -0.5543008408754344085 0.9796263111386848133 #
coedge $-1 $450 $349 $351 $408 forward $405 $-1 #
coedge $-1 $349 $450 $411 $454 reversed $405 $-1 #
loop $-1 $-1 $349 $455 #
vertex $-1 $454 $456 #
straight-curve $-1 1.074674529736749706 -0.9543008408754346528 0.2982608982508268003 -1.774071267904383926e-15 39.37007874015747433 2.410642428784206801e-15 I I #
edge $-1 $353 0.00504531851264840292 $452 0.02235200000000000034 $403 $457 forward 7 unknown #
face $-1 $284 $352 $2 $-1 $458 forward single #
point $-1 1.074674529736749706 -0.5543008408754344085 0.2982608982508268003 #
coedge $-1 $429 $357 $404 $454 forward $413 $-1 #
coedge $-1 $357 $459 $359 $415 forward $413 $-1 #
loop $-1 $447 $412 $460 #
coedge $-1 $360 $359 $461 $462 reversed $361 $-1 #
edge $-1 $463 2.733465508943377999e-32 $362 0.004360166908303544746 $412 $464 forward 7 unknown #
edge $-1 $363 -0.00436996083547567301 $465 -1.409983241273948942e-18 $386 $466 forward 7 unknown #
face $-1 $230 $361 $2 $-1 $467 reversed single #
point $-1 0.2846745297367497818 -0.9543008408754345417 0.1079661966385460636 #
point $-1 -0.07532547026325014938 -0.9543008408754345417 0.1075806089546040012 #
face $-1 $468 $436 $2 $-1 $469 reversed single #
loop $-1 $-1 $470 $365 #
plane-surface $-1 -0.2253254702632501438 -0.9543008408754346528 0.9796263111386850353 -1 -4.506141020477135917e-17 3.081487911019577365e-33 -1.774071267904383926e-15 39.37007874015747433 -1.296187174025115988e-13 forward_v I I I I #
coedge $-1 $423 $423 $471 $472 forward $366 $-1 #
straight-curve $-1 -0.8272619819633064697 -0.5240312910000943791 0.5996263111386852529 19.68503937007872295 1.199308658548735324e-13 34.09548833797003198 I I #
face $-1 $417 $473 $2 $-1 $474 reversed single #
loop $-1 $312 $475 $370 #
plane-surface $-1 -0.5853254702632501028 -0.5240312910000943791 0.5996263111386852529 -4.506141020477135917e-17 1 -3.491483361109382066e-15 39.37007874015747433 1.774071267904383926e-15 -1.213184216936841298e-31 forward_v I I I I #
straight-curve $-1 -0.4643572144132218638 -0.5240312910000950453 0.3901031459034454141 -39.37007874015747433 -1.774071267904383926e-15 1.213184216936841298e-31 I I #
coedge $-1 $476 $411 $378 $430 forward $413 $-1 #
edge $-1 $477 -0.04927599999999999342 $438 -0.03301999999999998686 $429 $446 forward 7 unknown #
coedge $-1 $379 $384 $478 $479 forward $256 $-1 #
coedge $-1 $480 $481 $379 $433 reversed $482 $-1 #
edge $-1 $483 0.01009649999999999437 $437 0.02686049999999999549 $379 $484 forward 7 unknown #
coedge $-1 $485 $380 $481 $486 reversed $436 $-1 #
coedge $-1 $380 $485 $476 $487 reversed $436 $-1 #
loop $-1 $-1 $434 $420 #
vertex $-1 $381 $488 #
vertex $-1 $487 $489 #
straight-curve $-1 0.434674529736749915 -0.7130151471572002686 0.9796263111386848133 1.774071267904383926e-15 -39.37007874015747433 0 I I #
straight-curve $-1 -1.020325470263249823 -0.5543008408754344085 0.9796263111386848133 -39.37007874015747433 0 0 I I #
coedge $-1 $490 $386 $491 $492 forward $324 $-1 #
coedge $-1 $387 $490 $493 $494 forward $324 $-1 #
coedge $-1 $495 $478 $387 $444 reversed $421 $-1 #
edge $-1 $496 0.008128000000000005013 $445 0.01117600000000000364 $387 $497 forward 7 unknown #
vertex $-1 $388 $498 #
straight-curve $-1 -0.8653254702632496853 -0.9543008408754344307 0.9796263111386848133 -39.37007874015747433 0 0 I I #
loop $-1 $-1 $395 $460 #
vertex $-1 $396 $499 #
ellipse-curve $-1 0.7946745297367497907 -0.9543008408754327654 0.5996263111386851419 0 1 0 0.1639999999999999791 7.390071273582501647e-18 -5.053640174072106235e-34 1 I I #
coedge $-1 $404 $403 $397 $451 forward $405 $-1 #
edge $-1 $452 -0.01016000000000000236 $477 0 $450 $500 forward 7 unknown #
vertex $-1 $408 $501 #
straight-curve $-1 1.074674529736749706 -0.5543008408754344085 0.9796263111386848133 -39.37007874015747433 0 0 I I #
edge $-1 $406 0.00504531851264840292 $477 0.02235200000000000034 $411 $502 forward 7 unknown #
face $-1 $409 $405 $2 $-1 $503 forward single #
point $-1 1.074674529736749706 -0.9543008408754346528 0.2982608982508268003 #
straight-curve $-1 1.074674529736749706 -0.5543008408754344085 0.09962631113868496147 0 0 39.37007874015747433 I I #
plane-surface $-1 1.229674529736749733 -0.5543008408754344085 0.09962631113868496147 0 -1 0 0 0 -39.37007874015747433 forward_v I I I I #
coedge $-1 $412 $504 $505 $506 forward $413 $-1 #
face $-1 $507 $413 $2 $-1 $367 forward single #
coedge $-1 $505 $491 $414 $462 forward $508 $-1 #
edge $-1 $465 -3.14159265358979134 $463 3.173621590911228098e-30 $461 $509 forward 7 unknown #
vertex $-1 $462 $510 #
straight-curve $-1 0.2846745297367497818 -0.9543008408754344307 0.2796263111386855793 0 -1.272080749737273924e-13 -39.37007874015747433 I I #
vertex $-1 $492 $511 #
straight-curve $-1 -0.07532547026325012163 -0.9543008408754344307 0.2796263111386855793 0 1.272080749737273924e-13 39.37007874015747433 I I #
cone-surface $-1 0.1046745297367498301 -0.9543008408754347638 0.2796263111386855793 0 -3.231085104332676039e-15 -1 0.1799999999999999656 0 0 1 I I 0 1 0.1799999999999999656 forward I I I I #
face $-1 $512 $513 $2 $-1 $514 reversed single #
plane-surface $-1 0.434674529736749804 -0.9543008408754350969 0.8596263111386851508 1 4.506141020477135917e-17 -3.081487911019577365e-33 1.774071267904383926e-15 -39.37007874015747433 1.296187174025115988e-13 forward_v I I I I #
coedge $-1 $478 $495 $480 $515 reversed $421 $-1 #
coedge $-1 $471 $471 $423 $472 reversed $516 $-1 #
edge $-1 $517 -3.081487911019577365e-33 $517 6.283185307179586232 $423 $518 forward 7 unknown #
loop $-1 $516 $519 $425 #
cone-surface $-1 -0.5853254702632501028 -0.9543008408754347638 0.5996263111386851419 -4.506141020477135917e-17 1 -3.292315422023794902e-15 0.1639999999999999791 7.390071273582501647e-18 -5.053640174072106235e-34 1 I I 0 1 0.1639999999999999791 forward I I I I #
coedge $-1 $475 $475 $519 $520 reversed $426 $-1 #
coedge $-1 $521 $429 $435 $487 forward $413 $-1 #
vertex $-1 $454 $522 #
coedge $-1 $443 $470 $431 $479 reversed $421 $-1 #
edge $-1 $445 -0.006128656620443160077 $483 0.007333343379556848604 $431 $523 forward 7 unknown #
coedge $-1 $524 $432 $470 $515 forward $482 $-1 #
coedge $-1 $432 $525 $434 $486 forward $482 $-1 #
loop $-1 $-1 $526 $527 #
vertex $-1 $479 $528 #
straight-curve $-1 -0.6228254702632498585 -0.4243008408754344041 0.9796263111386848133 39.37007874015747433 1.774071267904383926e-15 0 I I #
coedge $-1 $435 $434 $529 $530 reversed $436 $-1 #
edge $-1 $531 -0.003047999999999997326 $437 0 $434 $532 forward 7 unknown #
edge $-1 $438 -0.01270000000000000122 $533 -0.009652000000000002591 $476 $534 forward 7 unknown #
point $-1 0.434674529736749804 -0.4243008408754344041 0.9796263111386832589 #
point $-1 0.434674529736749804 -0.9543008408754346528 0.9796263111386850353 #
coedge $-1 $442 $441 $535 $536 forward $324 $-1 #
coedge $-1 $461 $537 $441 $492 reversed $508 $-1 #
edge $-1 $465 0.0115570000000000013 $538 0.01765300000000000202 $441 $539 forward 7 unknown #
coedge $-1 $540 $541 $442 $494 reversed $513 $-1 #
edge $-1 $542 -0.02832099999999999895 $496 -0.02603500000000000258 $442 $543 forward 7 unknown #
coedge $-1 $470 $443 $541 $544 reversed $421 $-1 #
vertex $-1 $444 $545 #
straight-curve $-1 -0.2253254702632500883 -0.9543008408754344307 0.5396263111386849776 1.213184216936841298e-31 0 39.37007874015747433 I I #
point $-1 -0.2253254702632501438 -0.9543008408754346528 0.9796263111386850353 #
point $-1 0.9586745297367498253 -0.9543008408754346528 0.5996263111386851419 #
straight-curve $-1 1.074674529736749706 -0.9543008408754344307 0.9796263111386848133 0 -39.37007874015747433 0 I I #
point $-1 1.074674529736749706 -0.5543008408754344085 0.9796263111386848133 #
straight-curve $-1 1.074674529736749706 -0.9543008408754344307 0.09962631113868496147 0 0 39.37007874015747433 I I #
plane-surface $-1 1.074674529736749706 -0.5543008408754344085 0.09962631113868496147 1 0 0 0 0 -39.37007874015747433 forward_v I I I I #
coedge $-1 $459 $521 $546 $547 forward $413 $-1 #
coedge $-1 $548 $461 $459 $506 reversed $508 $-1 #
edge $-1 $549 -0.003682999999999998341 $463 0.002413000000000002383 $459 $539 forward 7 unknown #
face $-1 $550 $551 $2 $-1 $552 reversed single #
loop $-1 $-1 $461 $553 #
ellipse-curve $-1 0.1046745297367498301 -0.9543008408754347638 0.2796263111386854128 0 -3.430253043418263204e-15 -1 0.1799999999999999656 0 0 1 I I #
point $-1 0.2846745297367497818 -0.9543008408754347638 0.2796263111386855793 #
point $-1 -0.07532547026325012163 -0.9543008408754344307 0.2796263111386855238 #
face $-1 $553 $554 $2 $-1 $555 reversed single #
loop $-1 $-1 $541 $468 #
plane-surface $-1 0.5246745297367497729 -0.9543008408754347638 0.8596263111386851508 -1.486787392038807681e-31 3.292315422023794902e-15 1 1.774071267904383926e-15 -39.37007874015747433 1.296187174025115988e-13 forward_v I I I I #
edge $-1 $483 -0.003047999999999997326 $556 0 $470 $557 forward 7 unknown #
loop $-1 $-1 $471 $425 #
vertex $-1 $472 $558 #
ellipse-curve $-1 -0.5853254702632501028 -0.9543008408754327654 0.5996263111386851419 0 1 0 0.1639999999999999791 7.390071273582501647e-18 -5.053640174072106235e-34 1 I I #
coedge $-1 $519 $519 $475 $520 forward $473 $-1 #
edge $-1 $559 -3.141592653589800221 $559 3.141592653589786011 $519 $560 forward 7 unknown #
coedge $-1 $504 $476 $561 $562 forward $413 $-1 #
point $-1 1.074674529736749706 -0.9543008408754344307 0.9796263111386848133 #
straight-curve $-1 -0.2253254702632500883 -0.7130151471572000466 0.9796263111386848133 -1.774071267904383926e-15 39.37007874015747433 0 I I #
coedge $-1 $526 $480 $563 $564 forward $482 $-1 #
coedge $-1 $481 $565 $566 $567 forward $482 $-1 #
coedge $-1 $568 $524 $569 $570 forward $482 $-1 #
face $-1 $455 $482 $2 $-1 $571 forward single #
point $-1 -0.2253254702632501438 -0.4243008408754344041 0.9796263111386832589 #
coedge $-1 $566 $561 $485 $530 forward $572 $-1 #
edge $-1 $533 -5.639932965095795766e-18 $531 0.01346200000000000348 $529 $573 forward 7 unknown #
vertex $-1 $486 $574 #
straight-curve $-1 0.434674529736749804 -0.4243008408754344041 0.9796263111386832589 -5.853493669444123582e-30 1.296187174025115988e-13 39.37007874015747433 I I #
vertex $-1 $562 $575 #
straight-curve $-1 0.434674529736749915 -0.9543008408754344307 0.4796263111386850908 -1.213184216936841298e-31 0 -39.37007874015747433 I I #
coedge $-1 $576 $577 $490 $536 reversed $551 $-1 #
edge $-1 $538 -0.005079999999999990773 $542 0.009652000000000002591 $490 $578 forward 7 unknown #
coedge $-1 $491 $579 $576 $580 forward $508 $-1 #
vertex $-1 $536 $581 #
straight-curve $-1 0.3796745297367498662 -0.9543008408754344307 0.2796263111386855238 -39.37007874015747433 0 0 I I #
coedge $-1 $563 $493 $577 $582 forward $513 $-1 #
coedge $-1 $493 $563 $495 $544 forward $513 $-1 #
vertex $-1 $536 $583 #
straight-curve $-1 0.7996745297367497951 -0.9543008408754344307 0.8596263111386851508 39.37007874015747433 0 5.853493669444123582e-30 I I #
edge $-1 $556 -0.01346200000000000001 $496 8.459899447643694805e-18 $541 $584 forward 7 unknown #
point $-1 -0.2253254702632501438 -0.9543008408754350969 0.8596263111386851508 #
coedge $-1 $585 $586 $504 $547 reversed $587 $-1 #
edge $-1 $588 -0.01498599999999999932 $549 -0.0002540000000000059029 $504 $589 forward 7 unknown #
coedge $-1 $579 $505 $586 $590 forward $508 $-1 #
vertex $-1 $547 $591 #
face $-1 $592 $593 $2 $-1 $594 reversed single #
loop $-1 $-1 $569 $507 #
plane-surface $-1 -0.315325470263250085 -0.9543008408754347638 0.8596263111386851508 -1 -4.506141020477135917e-17 3.081487911019577365e-33 -1.774071267904383926e-15 39.37007874015747433 -1.296187174025115988e-13 forward_v I I I I #
face $-1 $460 $508 $2 $-1 $595 forward single #
loop $-1 $-1 $596 $512 #
plane-surface $-1 0.5246745297367497729 -0.5443008408754343996 0.4396263111386841116 0 1 -3.430253043418263204e-15 0 1.350493324180418387e-13 39.37007874015747433 forward_v I I I I #
vertex $-1 $564 $597 #
straight-curve $-1 -0.2253254702632501438 -0.4243008408754348482 0.8596263111386833744 5.853493669444123582e-30 -1.296187174025115988e-13 -39.37007874015747433 I I #
point $-1 -0.4213254702632500681 -0.9543008408754347638 0.5996263111386851419 #
vertex $-1 $520 $598 #
ellipse-curve $-1 -0.5853254702632501028 -0.5240312910000943791 0.5996263111386838096 -4.506141020477135917e-17 1 -3.491483361109382066e-15 0.1639999999999999791 7.390071273582501647e-18 -5.053640174072106235e-34 1 I I #
coedge $-1 $529 $599 $521 $562 reversed $572 $-1 #
edge $-1 $533 -0.009271000000000001462 $588 -0.006985000000000001624 $521 $543 forward 7 unknown #
coedge $-1 $541 $540 $524 $564 reversed $513 $-1 #
edge $-1 $556 -0.00228599999999999897 $600 0 $563 $601 forward 7 unknown #
coedge $-1 $525 $568 $602 $603 forward $482 $-1 #
coedge $-1 $599 $529 $525 $567 reversed $572 $-1 #
edge $-1 $604 -0.0213360000000000008 $531 -0.01905000000000000096 $566 $601 forward 7 unknown #
coedge $-1 $565 $526 $605 $606 forward $482 $-1 #
coedge $-1 $577 $607 $526 $570 reversed $551 $-1 #
edge $-1 $600 -0.01066799999999999519 $608 0 $569 $609 forward 7 unknown #
plane-surface $-1 -0.315325470263250085 -0.4243008408754347371 0.8596263111386833744 4.506141020477135917e-17 -1 3.292315422023794902e-15 -39.37007874015747433 -1.774071267904383926e-15 1.213184216936841298e-31 forward_v I I I I #
loop $-1 $-1 $529 $610 #
straight-curve $-1 0.434674529736749804 -0.9543008408754348748 0.8596263111386851508 -1.774071267904383926e-15 39.37007874015747433 -1.296187174025115988e-13 I I #
point $-1 0.434674529736749804 -0.4243008408754348482 0.8596263111386833744 #
point $-1 0.434674529736749804 -0.9543008408754350969 0.8596263111386851508 #
coedge $-1 $611 $535 $537 $580 reversed $551 $-1 #
coedge $-1 $535 $569 $540 $582 reversed $551 $-1 #
straight-curve $-1 -0.315325470263250196 -0.9543008408754344307 0.4796263111386850908 1.213184216936841298e-31 0 39.37007874015747433 I I #
coedge $-1 $537 $548 $596 $612 forward $508 $-1 #
edge $-1 $613 -0.01041399999999999965 $538 0 $576 $614 forward 7 unknown #
point $-1 -0.315325470263250085 -0.9543008408754348748 0.2796263111386854683 #
edge $-1 $542 0 $600 0.01346200000000000348 $577 $615 forward 7 unknown #
point $-1 -0.315325470263250085 -0.9543008408754347638 0.8596263111386851508 #
straight-curve $-1 -0.2253254702632501438 -0.9543008408754347638 0.8596263111386851508 1.774071267904383926e-15 -39.37007874015747433 1.296187174025115988e-13 I I #
coedge $-1 $602 $546 $599 $616 forward $587 $-1 #
coedge $-1 $546 $617 $548 $590 reversed $587 $-1 #
loop $-1 $-1 $602 $592 #
vertex $-1 $547 $618 #
straight-curve $-1 0.5246745297367496619 -0.9543008408754344307 0.2696263111386852374 0 0 -39.37007874015747433 I I #
edge $-1 $549 -0.01041399999999999965 $619 0 $586 $620 forward 7 unknown #
point $-1 0.5246745297367497729 -0.9543008408754348748 0.2796263111386854683 #
face $-1 $610 $587 $2 $-1 $621 reversed single #
loop $-1 $-1 $622 $550 #
plane-surface $-1 -0.315325470263250085 -0.9543008408754362071 0.4396263111386853883 1.486787392038807681e-31 -3.292315422023794902e-15 -1 -1.774071267904383926e-15 39.37007874015747433 -1.296187174025115988e-13 forward_v I I I I #
plane-surface $-1 -0.315325470263250085 -0.5443008408754349547 0.2796263111386840805 0 3.430253043418263204e-15 1 -39.37007874015747433 0 0 forward_v I I I I #
coedge $-1 $623 $624 $579 $612 reversed $554 $-1 #
point $-1 -0.2253254702632501438 -0.4243008408754348482 0.8596263111386833744 #
point $-1 -0.7493254702632500264 -0.5240312910000943791 0.5996263111386825884 #
coedge $-1 $561 $566 $585 $616 reversed $572 $-1 #
vertex $-1 $582 $625 #
straight-curve $-1 -0.315325470263250085 -0.4243008408754347371 0.8596263111386833744 -39.37007874015747433 -1.774071267904383926e-15 1.213184216936841298e-31 I I #
coedge $-1 $626 $585 $565 $603 reversed $587 $-1 #
edge $-1 $627 -0.01066799999999999519 $604 0 $602 $628 forward 7 unknown #
vertex $-1 $616 $629 #
coedge $-1 $630 $631 $568 $606 reversed $593 $-1 #
edge $-1 $608 -0.0213360000000000008 $627 0 $605 $632 forward 7 unknown #
coedge $-1 $569 $611 $630 $633 forward $551 $-1 #
vertex $-1 $633 $634 #
straight-curve $-1 -0.315325470263250085 -0.4243008408754361804 0.439626311138683612 5.853493669444123582e-30 -1.296187174025115988e-13 -39.37007874015747433 I I #
face $-1 $527 $572 $2 $-1 $514 reversed single #
coedge $-1 $607 $576 $624 $635 reversed $551 $-1 #
edge $-1 $619 -0.0213360000000000008 $613 0 $596 $636 forward 7 unknown #
vertex $-1 $635 $637 #
straight-curve $-1 -0.315325470263250085 -0.9543008408754348748 0.2796263111386854683 0 -39.37007874015747433 1.350493324180418387e-13 I I #
straight-curve $-1 -0.315325470263250085 -0.9543008408754347638 0.8596263111386851508 -1.774071267904383926e-15 39.37007874015747433 -1.296187174025115988e-13 I I #
edge $-1 $588 0 $604 0.01346200000000000348 $599 $638 forward 7 unknown #
coedge $-1 $586 $626 $623 $639 forward $587 $-1 #
point $-1 0.5246745297367497729 -0.9543008408754347638 0.8596263111386851508 #
vertex $-1 $639 $640 #
straight-curve $-1 0.5246745297367497729 -0.5443008408754349547 0.2796263111386840805 0 39.37007874015747433 -1.350493324180418387e-13 I I #
plane-surface $-1 0.5246745297367497729 -0.9543008408754362071 0.4396263111386853883 1 4.506141020477135917e-17 -3.081487911019577365e-33 1.774071267904383926e-15 -39.37007874015747433 1.296187174025115988e-13 forward_v I I I I #
coedge $-1 $631 $630 $641 $642 forward $593 $-1 #
coedge $-1 $641 $596 $617 $639 reversed $554 $-1 #
coedge $-1 $596 $641 $611 $635 forward $554 $-1 #
point $-1 -0.315325470263250085 -0.4243008408754347371 0.8596263111386833744 #
coedge $-1 $617 $602 $631 $643 reversed $587 $-1 #
vertex $-1 $643 $644 #
straight-curve $-1 0.5246745297367497729 -0.4243008408754347371 0.8596263111386833744 -5.853493669444123582e-30 1.296187174025115988e-13 39.37007874015747433 I I #
point $-1 0.5246745297367497729 -0.4243008408754347371 0.8596263111386833744 #
coedge $-1 $622 $605 $607 $633 reversed $593 $-1 #
coedge $-1 $605 $622 $626 $643 forward $593 $-1 #
straight-curve $-1 0.5246745297367497729 -0.4243008408754360694 0.439626311138683612 39.37007874015747433 1.774071267904383926e-15 -1.213184216936841298e-31 I I #
edge $-1 $645 0.01041400000000004822 $608 0.01346200000000000348 $630 $646 forward 7 unknown #
point $-1 -0.315325470263250085 -0.4243008408754361804 0.439626311138683612 #
edge $-1 $645 0 $613 0.004064000000000001639 $611 $647 forward 7 unknown #
straight-curve $-1 -0.315325470263250085 -0.5443008408754349547 0.2796263111386840805 -39.37007874015747433 0 0 I I #
point $-1 -0.315325470263250085 -0.5443008408754349547 0.2796263111386840805 #
straight-curve $-1 0.5246745297367497729 -0.9543008408754347638 0.8596263111386851508 -1.774071267904383926e-15 39.37007874015747433 -1.296187174025115988e-13 I I #
edge $-1 $648 0 $619 0.004064000000000001639 $623 $649 forward 7 unknown #
point $-1 0.5246745297367497729 -0.5443008408754349547 0.2796263111386840805 #
coedge $-1 $624 $623 $622 $642 reversed $554 $-1 #
edge $-1 $645 -0.0106680000000000004 $648 0.0106680000000000004 $622 $650 forward 7 unknown #
edge $-1 $648 0.01041400000000004822 $627 0.01346200000000000521 $626 $651 forward 7 unknown #
point $-1 0.5246745297367497729 -0.4243008408754360694 0.439626311138683612 #
vertex $-1 $633 $652 #
straight-curve $-1 -0.315325470263250085 -0.9543008408754362071 0.4396263111386853883 -1.774071267904383926e-15 39.37007874015747433 -1.296187174025115988e-13 I I #
straight-curve $-1 -0.315325470263250085 -0.5443008408754343996 0.4396263111386841116 0 -1.350493324180418387e-13 -39.37007874015747433 I I #
vertex $-1 $643 $653 #
straight-curve $-1 0.5246745297367497729 -0.5443008408754343996 0.4396263111386841116 0 -1.350493324180418387e-13 -39.37007874015747433 I I #
straight-curve $-1 0.1046745297367498301 -0.5443008408754342886 0.4396263111386840006 39.37007874015747433 2.007896447424024486e-44 5.853493669444123582e-30 I I #
straight-curve $-1 0.5246745297367497729 -0.9543008408754362071 0.4396263111386853883 -1.774071267904383926e-15 39.37007874015747433 -1.296187174025115988e-13 I I #
point $-1 -0.315325470263250085 -0.5443008408754343996 0.4396263111386841116 #
point $-1 0.5246745297367497729 -0.5443008408754343996 0.4396263111386841116 #
End-of-ACIS-data 