  0
SECTION
  2
HEADER
  9
$ACADVER
  1
AC1009
  9
$INSBASE
 10
0.0
 20
0.0
 30
0.0
  9
$EXTMIN
 10
-6.0
 20
-2.0
 30
-12.071068
  9
$EXTMAX
 10
14.0
 20
18.0
 30
10.0
  9
$LIMMIN
 10
0.0
 20
0.0
  9
$LIMMAX
 10
12.0
 20
9.0
  9
$ORTHOMODE
 70
     0
  9
$REGENMODE
 70
     1
  9
$FILLMODE
 70
     1
  9
$QTEXTMODE
 70
     0
  9
$MIRRTEXT
 70
     1
  9
$DRAGMODE
 70
     2
  9
$LTSCALE
 40
1.0
  9
$OSMODE
 70
     0
  9
$ATTMODE
 70
     1
  9
$TEXTSIZE
 40
0.2
  9
$TRACEWID
 40
0.05
  9
$TEXTSTYLE
  7
STANDARD
  9
$CLAYER
  8
0
  9
$CELTYPE
  6
BYLAYER
  9
$CECOLOR
 62
   256
  9
$DIMSCALE
 40
1.0
  9
$DIMASZ
 40
0.18
  9
$DIMEXO
 40
0.0625
  9
$DIMDLI
 40
0.38
  9
$DIMRND
 40
0.0
  9
$DIMDLE
 40
0.0
  9
$DIMEXE
 40
0.18
  9
$DIMTP
 40
0.0
  9
$DIMTM
 40
0.0
  9
$DIMTXT
 40
0.18
  9
$DIMCEN
 40
0.09
  9
$DIMTSZ
 40
0.0
  9
$DIMTOL
 70
     0
  9
$DIMLIM
 70
     0
  9
$DIMTIH
 70
     1
  9
$DIMTOH
 70
     1
  9
$DIMSE1
 70
     0
  9
$DIMSE2
 70
     0
  9
$DIMTAD
 70
     0
  9
$DIMZIN
 70
     0
  9
$DIMBLK
  1

  9
$DIMASO
 70
     1
  9
$DIMSHO
 70
     1
  9
$DIMPOST
  1

  9
$DIMAPOST
  1

  9
$DIMALT
 70
     0
  9
$DIMALTD
 70
     2
  9
$DIMALTF
 40
25.4
  9
$DIMLFAC
 40
1.0
  9
$DIMTOFL
 70
     0
  9
$DIMTVP
 40
0.0
  9
$DIMTIX
 70
     0
  9
$DIMSOXD
 70
     0
  9
$DIMSAH
 70
     0
  9
$DIMBLK1
  1

  9
$DIMBLK2
  1

  9
$DIMSTYLE
  2
*UNNAMED
  9
$DIMCLRD
 70
     0
  9
$DIMCLRE
 70
     0
  9
$DIMCLRT
 70
     0
  9
$DIMTFAC
 40
1.0
  9
$DIMGAP
 40
0.09
  9
$LUNITS
 70
     2
  9
$LUPREC
 70
     4
  9
$SKETCHINC
 40
0.1
  9
$FILLETRAD
 40
0.0
  9
$AUNITS
 70
     0
  9
$AUPREC
 70
     0
  9
$MENU
  1
acad
  9
$ELEVATION
 40
0.0
  9
$PELEVATION
 40
0.0
  9
$THICKNESS
 40
0.0
  9
$LIMCHECK
 70
     0
  9
$BLIPMODE
 70
     1
  9
$CHAMFERA
 40
0.0
  9
$CHAMFERB
 40
0.0
  9
$SKPOLY
 70
     0
  9
$TDCREATE
 40
2449411.005029132
  9
$TDUPDATE
 40
2449411.009917407
  9
$TDINDWG
 40
0.0048882755
  9
$TDUSRTIMER
 40
0.0048882755
  9
$USRTIMER
 70
     1
  9
$ANGBASE
 50
0.0
  9
$ANGDIR
 70
     0
  9
$PDMODE
 70
     0
  9
$PDSIZE
 40
0.0
  9
$PLINEWID
 40
0.0
  9
$COORDS
 70
     1
  9
$SPLFRAME
 70
     0
  9
$SPLINETYPE
 70
     6
  9
$SPLINESEGS
 70
     8
  9
$ATTDIA
 70
     0
  9
$ATTREQ
 70
     1
  9
$HANDLING
 70
     1
  9
$HANDSEED
  5
DE
  9
$SURFTAB1
 70
     6
  9
$SURFTAB2
 70
     6
  9
$SURFTYPE
 70
     6
  9
$SURFU
 70
     6
  9
$SURFV
 70
     6
  9
$UCSNAME
  2

  9
$UCSORG
 10
0.0
 20
0.0
 30
0.0
  9
$UCSXDIR
 10
1.0
 20
0.0
 30
0.0
  9
$UCSYDIR
 10
0.0
 20
1.0
 30
0.0
  9
$PUCSNAME
  2

  9
$PUCSORG
 10
0.0
 20
0.0
 30
0.0
  9
$PUCSXDIR
 10
1.0
 20
0.0
 30
0.0
  9
$PUCSYDIR
 10
0.0
 20
1.0
 30
0.0
  9
$USERI1
 70
     0
  9
$USERI2
 70
     0
  9
$USERI3
 70
     0
  9
$USERI4
 70
     0
  9
$USERI5
 70
     0
  9
$USERR1
 40
0.0
  9
$USERR2
 40
0.0
  9
$USERR3
 40
0.0
  9
$USERR4
 40
0.0
  9
$USERR5
 40
0.0
  9
$WORLDVIEW
 70
     1
  9
$SHADEDGE
 70
     3
  9
$SHADEDIF
 70
    70
  9
$TILEMODE
 70
     1
  9
$MAXACTVP
 70
    16
  9
$PINSBASE
 10
0.0
 20
0.0
 30
0.0
  9
$PLIMCHECK
 70
     0
  9
$PEXTMIN
 10
1.000000E+20
 20
1.000000E+20
 30
1.000000E+20
  9
$PEXTMAX
 10
-1.000000E+20
 20
-1.000000E+20
 30
-1.000000E+20
  9
$PLIMMIN
 10
0.0
 20
0.0
  9
$PLIMMAX
 10
12.0
 20
9.0
  9
$UNITMODE
 70
     0
  9
$VISRETAIN
 70
     0
  9
$PLINEGEN
 70
     0
  9
$PSLTSCALE
 70
     1
  9
$TREEDEPTH
 70
  3020
  9
$DWGCODEPAGE
  3
ascii
  0
ENDSEC
  0
SECTION
  2
TABLES
  0
TABLE
  2
VPORT
 70
     2
  0
VPORT
  2
*ACTIVE
 70
     0
 10
0.0
 20
0.0
 11
1.0
 21
1.0
 12
11.386002
 22
-4.596793
 13
0.0
 23
0.0
 14
1.0
 24
1.0
 15
0.0
 25
0.0
 16
1.0
 26
2.0
 36
1.0
 17
0.0
 27
0.0
 37
0.0
 40
31.102487
 41
1.594883
 42
50.0
 43
0.0
 44
0.0
 50
0.0
 51
0.0
 71
     0
 72
   100
 73
     1
 74
     1
 75
     0
 76
     0
 77
     0
 78
     0
  0
ENDTAB
  0
TABLE
  2
LTYPE
 70
     1
  0
LTYPE
  2
CONTINUOUS
 70
    64
  3
Solid line
 72
    65
 73
     0
 40
0.0
  0
ENDTAB
  0
TABLE
  2
LAYER
 70
     3
  0
LAYER
  2
0
 70
    64
 62
     7
  6
CONTINUOUS
  0
LAYER
  2
ASHADE
 70
    64
 62
     7
  6
CONTINUOUS
  0
LAYER
  2
AME_FRZ
 70
    65
 62
     7
  6
CONTINUOUS
  0
ENDTAB
  0
TABLE
  2
STYLE
 70
     2
  0
STYLE
  2
STANDARD
 70
     0
 40
0.0
 41
1.0
 50
0.0
 71
     0
 42
0.2
  3
txt
  4

  0
STYLE
  2
ASHADE
 70
     0
 40
0.2
 41
1.0
 50
0.0
 71
     0
 42
0.2
  3
simplex
  4

  0
ENDTAB
  0
TABLE
  2
VIEW
 70
     0
  0
ENDTAB
  0
TABLE
  2
UCS
 70
     0
  0
ENDTAB
  0
TABLE
  2
APPID
 70
     5
  0
APPID
  2
ACAD
 70
    64
  0
APPID
  2
AVE_RENDER
 70
    64
  0
APPID
  2
AME_SOL
 70
    64
  0
APPID
  2
AVE_INVOKE
 70
    64
  0
ENDTAB
  0
TABLE
  2
DIMSTYLE
 70
     0
  0
ENDTAB
  0
ENDSEC
  0
SECTION
  2
BLOCKS
  0
BLOCK
  8
0
  5
1
  2
AVE_RENDER
 70
    64
 10
0.0
 20
0.0
 30
0.0
  1
AVE_RENDER
  3
AVE_RENDER
  0
ENDBLK
  8
0
  5
2
  0
BLOCK
  8
0
  5
6
  2
AME_NIL
 70
    64
 10
0.0
 20
0.0
 30
0.0
  1
AME_NIL
  3
AME_NIL
  0
ENDBLK
  8
0
  5
7
  0
BLOCK
  8
0
  5
9
  2
AME_SOL
 70
    64
 10
0.0
 20
0.0
 30
0.0
  1
AME_SOL
  3
AME_SOL
  0
ENDBLK
  8
0
  5
A
  0
BLOCK
  8
0
  5
2A
  2
*U5
 70
    65
 10
0.0
 20
0.0
 30
0.0
  1
*U
  3
*U
  0
LINE
  8
0
 62
     7
  5
2B
 10
12.0
 20
12.0
 30
7.0
 11
12.0
 21
12.0
 31
10.0
1001
AME_SOL
1070
     1
1071
       36
  0
LINE
  8
0
 62
     7
  5
2C
 10
12.0
 20
12.0
 30
0.0
 11
12.0
 21
12.0
 31
3.0
1001
AME_SOL
1070
     1
1071
       35
  0
LINE
  8
0
 62
     7
  5
2D
 10
12.0
 20
12.0
 30
10.0
 11
12.0
 21
0.0
 31
10.0
1001
AME_SOL
1070
     1
1071
       34
  0
LINE
  8
0
 62
     7
  5
2E
 10
0.0
 20
12.0
 30
10.0
 11
12.0
 21
12.0
 31
10.0
1001
AME_SOL
1070
     1
1071
       33
  0
LINE
  8
0
 62
     7
  5
2F
 10
0.0
 20
12.0
 30
7.0
 11
0.0
 21
12.0
 31
10.0
1001
AME_SOL
1070
     1
1071
       32
  0
LINE
  8
0
 62
     7
  5
30
 10
0.0
 20
12.0
 30
0.0
 11
0.0
 21
12.0
 31
3.0
1001
AME_SOL
1070
     1
1071
       31
  0
LINE
  8
0
 62
     7
  5
31
 10
0.0
 20
12.0
 30
10.0
 11
0.0
 21
0.0
 31
10.0
1001
AME_SOL
1070
     1
1071
       30
  0
LINE
  8
0
 62
     7
  5
32
 10
0.0
 20
0.0
 30
7.0
 11
0.0
 21
0.0
 31
10.0
1001
AME_SOL
1070
     1
1071
       29
  0
LINE
  8
0
 62
     7
  5
33
 10
0.0
 20
0.0
 30
0.0
 11
0.0
 21
0.0
 31
3.0
1001
AME_SOL
1070
     1
1071
       28
  0
LINE
  8
0
 62
     7
  5
34
 10
12.0
 20
0.0
 30
10.0
 11
12.0
 21
0.0
 31
0.0
1001
AME_SOL
1070
     1
1071
       27
  0
LINE
  8
0
 62
     7
  5
35
 10
0.0
 20
0.0
 30
10.0
 11
12.0
 21
0.0
 31
10.0
1001
AME_SOL
1070
     1
1071
       26
  0
LINE
  8
0
 62
     7
  5
36
 10
0.0
 20
0.0
 30
0.0
 11
12.0
 21
0.0
 31
0.0
1001
AME_SOL
1070
     1
1071
       25
  0
LINE
  8
0
 62
     7
  5
37
 10
0.0
 20
12.0
 30
0.0
 11
0.0
 21
0.0
 31
0.0
1001
AME_SOL
1070
     1
1071
       24
  0
LINE
  8
0
 62
     7
  5
38
 10
12.0
 20
0.0
 30
0.0
 11
12.0
 21
12.0
 31
0.0
1001
AME_SOL
1070
     1
1071
       23
  0
LINE
  8
0
 62
     7
  5
39
 10
12.0
 20
12.0
 30
0.0
 11
0.0
 21
12.0
 31
0.0
1001
AME_SOL
1070
     1
1071
       22
  0
LINE
  8
0
 62
     7
  5
3A
 10
10.0
 20
0.0
 30
7.0
 11
0.0
 21
0.0
 31
7.0
1001
AME_SOL
1070
     1
1071
       21
  0
LINE
  8
0
 62
     7
  5
3B
 10
0.0
 20
0.0
 30
7.0
 11
0.0
 21
12.0
 31
7.0
1001
AME_SOL
1070
     1
1071
       20
  0
LINE
  8
0
 62
     7
  5
3C
 10
12.0
 20
12.0
 30
7.0
 11
12.0
 21
2.0
 31
7.0
1001
AME_SOL
1070
     1
1071
       19
  0
LINE
  8
0
 62
     7
  5
3D
 10
0.0
 20
12.0
 30
7.0
 11
12.0
 21
12.0
 31
7.0
1001
AME_SOL
1070
     1
1071
       18
  0
LINE
  8
0
 62
     7
  5
3E
 10
0.0
 20
0.0
 30
3.0
 11
10.0
 21
0.0
 31
3.0
1001
AME_SOL
1070
     1
1071
       17
  0
LINE
  8
0
 62
     7
  5
3F
 10
0.0
 20
12.0
 30
3.0
 11
0.0
 21
0.0
 31
3.0
1001
AME_SOL
1070
     1
1071
       16
  0
LINE
  8
0
 62
     7
  5
40
 10
12.0
 20
2.0
 30
3.0
 11
12.0
 21
12.0
 31
3.0
1001
AME_SOL
1070
     1
1071
       15
  0
LINE
  8
0
 62
     7
  5
41
 10
12.0
 20
12.0
 30
3.0
 11
0.0
 21
12.0
 31
3.0
1001
AME_SOL
1070
     1
1071
       14
  0
ARC
  8
0
 62
     7
  5
42
 10
4.0
 20
8.0
 30
3.0
 40
10.0
 50
306.869898
 51
323.130102
1001
AME_SOL
1070
     1
1071
       13
  0
LINE
  8
0
 62
     7
  5
43
 10
10.0
 20
0.0
 30
3.0
 11
10.0
 21
0.0
 31
7.0
1001
AME_SOL
1070
     1
1071
       12
  0
LINE
  8
0
 62
     7
  5
44
 10
12.0
 20
2.0
 30
3.0
 11
12.0
 21
2.0
 31
7.0
1001
AME_SOL
1070
     1
1071
       11
  0
ARC
  8
0
 62
     7
  5
45
 10
4.0
 20
8.0
 30
7.0
 40
10.0
 50
306.869898
 51
323.130102
1001
AME_SOL
1070
     1
1071
       10
  0
ENDBLK
  8
0
  5
46
  0
BLOCK
  8
0
  5
4A
  2
AME_JNK
 70
     0
 10
0.0
 20
0.0
 30
0.0
  1
AME_JNK
  3
AME_JNK
  0
ENDBLK
  8
0
  5
4B
  0
BLOCK
  8
0
  5
4D
  2
SOLAXES
 70
     0
 10
0.0
 20
0.0
 30
0.0
  1
SOLAXES
  3
SOLAXES
  0
LINE
  8
0
 62
     0
  5
4E
 10
0.0
 20
0.0
 30
0.0
 11
5.905112
 21
0.0
 31
0.0
  0
LINE
  8
0
 62
     0
  5
4F
 10
0.0
 20
0.0
 30
0.0
 11
0.0
 21
5.905112
 31
0.0
  0
LINE
  8
0
 62
     0
  5
50
 10
0.0
 20
0.0
 30
0.0
 11
0.0
 21
0.0
 31
5.905112
  0
CIRCLE
  8
0
 62
     0
  5
51
 10
0.0
 20
0.0
 30
5.314601
 40
0.295256
210
1.0
220
0.0
230
0.0
  0
LINE
  8
0
 62
     0
  5
52
 10
5.314601
 20
0.295256
 30
0.0
 11
5.905112
 21
0.0
 31
0.0
  0
LINE
  8
0
 62
     0
  5
53
 10
5.314601
 20
0.0
 30
0.295256
 11
5.905112
 21
0.0
 31
0.0
  0
LINE
  8
0
 62
     0
  5
54
 10
5.314601
 20
-0.295256
 30
0.0
 11
5.905112
 21
0.0
 31
0.0
  0
LINE
  8
0
 62
     0
  5
55
 10
5.314601
 20
0.0
 30
-0.295256
 11
5.905112
 21
0.0
 31
0.0
  0
CIRCLE
  8
0
 62
     0
  5
56
 10
0.0
 20
0.0
 30
5.314601
 40
0.295256
210
0.0
220
1.0
230
0.0
  0
LINE
  8
0
 62
     0
  5
57
 10
0.295256
 20
5.314601
 30
0.0
 11
0.0
 21
5.905112
 31
0.0
  0
LINE
  8
0
 62
     0
  5
58
 10
0.0
 20
5.314601
 30
0.295256
 11
0.0
 21
5.905112
 31
0.0
  0
LINE
  8
0
 62
     0
  5
59
 10
-0.295256
 20
5.314601
 30
0.0
 11
0.0
 21
5.905112
 31
0.0
  0
LINE
  8
0
 62
     0
  5
5A
 10
0.0
 20
5.314601
 30
-0.295256
 11
0.0
 21
5.905112
 31
0.0
  0
CIRCLE
  8
0
 62
     0
  5
5B
 10
0.0
 20
0.0
 30
4.724089
 40
0.295256
210
0.0
220
1.0
230
0.0
  0
LINE
  8
0
 62
     0
  5
5C
 10
0.295256
 20
4.724089
 30
0.0
 11
0.0
 21
5.314601
 31
0.0
  0
LINE
  8
0
 62
     0
  5
5D
 10
0.0
 20
4.724089
 30
0.295256
 11
0.0
 21
5.314601
 31
0.0
  0
LINE
  8
0
 62
     0
  5
5E
 10
-0.295256
 20
4.724089
 30
0.0
 11
0.0
 21
5.314601
 31
0.0
  0
LINE
  8
0
 62
     0
  5
5F
 10
0.0
 20
4.724089
 30
-0.295256
 11
0.0
 21
5.314601
 31
0.0
  0
CIRCLE
  8
0
 62
     0
  5
60
 10
0.0
 20
0.0
 30
5.314601
 40
0.295256
  0
LINE
  8
0
 62
     0
  5
61
 10
0.295256
 20
0.0
 30
5.314601
 11
0.0
 21
0.0
 31
5.905112
  0
LINE
  8
0
 62
     0
  5
62
 10
0.0
 20
0.295256
 30
5.314601
 11
0.0
 21
0.0
 31
5.905112
  0
LINE
  8
0
 62
     0
  5
63
 10
-0.295256
 20
0.0
 30
5.314601
 11
0.0
 21
0.0
 31
5.905112
  0
LINE
  8
0
 62
     0
  5
64
 10
0.0
 20
-0.295256
 30
5.314601
 11
0.0
 21
0.0
 31
5.905112
  0
CIRCLE
  8
0
 62
     0
  5
65
 10
0.0
 20
0.0
 30
4.724089
 40
0.295256
  0
LINE
  8
0
 62
     0
  5
66
 10
0.295256
 20
0.0
 30
4.724089
 11
0.0
 21
0.0
 31
5.314601
  0
LINE
  8
0
 62
     0
  5
67
 10
0.0
 20
0.295256
 30
4.724089
 11
0.0
 21
0.0
 31
5.314601
  0
LINE
  8
0
 62
     0
  5
68
 10
-0.295256
 20
0.0
 30
4.724089
 11
0.0
 21
0.0
 31
5.314601
  0
LINE
  8
0
 62
     0
  5
69
 10
0.0
 20
-0.295256
 30
4.724089
 11
0.0
 21
0.0
 31
5.314601
  0
CIRCLE
  8
0
 62
     0
  5
6A
 10
0.0
 20
0.0
 30
4.133578
 40
0.295256
  0
LINE
  8
0
 62
     0
  5
6B
 10
0.295256
 20
0.0
 30
4.133578
 11
0.0
 21
0.0
 31
4.724089
  0
LINE
  8
0
 62
     0
  5
6C
 10
0.0
 20
0.295256
 30
4.133578
 11
0.0
 21
0.0
 31
4.724089
  0
LINE
  8
0
 62
     0
  5
6D
 10
-0.295256
 20
0.0
 30
4.133578
 11
0.0
 21
0.0
 31
4.724089
  0
LINE
  8
0
 62
     0
  5
6E
 10
0.0
 20
-0.295256
 30
4.133578
 11
0.0
 21
0.0
 31
4.724089
  0
ENDBLK
  8
0
  5
6F
  0
BLOCK
  8
0
  5
71
  2
*U8
 70
    65
 10
0.0
 20
0.0
 30
0.0
  1
*U
  3
*U
  0
POLYLINE
  8
0
 62
     7
  5
72
 66
     1
 10
0.0
 20
0.0
 30
0.0
 70
    64
  0
VERTEX
  8
0
  5
73
 10
12.0
 20
2.0
 30
7.0
 70
   192
  0
VERTEX
  8
0
  5
74
 10
12.0
 20
0.0
 30
10.0
 70
   192
  0
VERTEX
  8
0
  5
75
 10
12.0
 20
0.0
 30
0.0
 70
   192
  0
VERTEX
  8
0
  5
76
 10
12.0
 20
12.0
 30
10.0
 70
   192
  0
VERTEX
  8
0
  5
77
 10
12.0
 20
2.0
 30
3.0
 70
   192
  0
VERTEX
  8
0
  5
78
 10
12.0
 20
12.0
 30
3.0
 70
   192
  0
VERTEX
  8
0
  5
79
 10
12.0
 20
12.0
 30
0.0
 70
   192
  0
VERTEX
  8
0
  5
7A
 10
12.0
 20
12.0
 30
7.0
 70
   192
  0
VERTEX
  8
0
 62
     7
  5
7B
 10
0.0
 20
0.0
 30
0.0
 70
   128
 71
    -1
 72
     2
 73
    -3
  0
VERTEX
  8
0
 62
     7
  5
7C
 10
0.0
 20
0.0
 30
0.0
 70
   128
 71
    -1
 72
     4
 73
    -2
  0
VERTEX
  8
0
 62
     7
  5
7D
 10
0.0
 20
0.0
 30
0.0
 70
   128
 71
    -3
 72
     5
 73
    -1
  0
VERTEX
  8
0
 62
     7
  5
7E
 10
0.0
 20
0.0
 30
0.0
 70
   128
 71
    -3
 72
     6
 73
    -5
  0
VERTEX
  8
0
 62
     7
  5
7F
 10
0.0
 20
0.0
 30
0.0
 70
   128
 71
     3
 72
     7
 73
    -6
  0
VERTEX
  8
0
 62
     7
  5
80
 10
0.0
 20
0.0
 30
0.0
 70
   128
 71
     1
 72
     8
 73
    -4
  0
SEQEND
  8
0
 62
     7
  5
81
  0
POLYLINE
  8
0
 62
     7
  5
82
 66
     1
 10
0.0
 20
0.0
 30
0.0
 70
    64
  0
VERTEX
  8
0
  5
83
 10
0.0
 20
12.0
 30
10.0
 70
   192
  0
VERTEX
  8
0
  5
84
 10
12.0
 20
12.0
 30
10.0
 70
   192
  0
VERTEX
  8
0
  5
85
 10
0.0
 20
12.0
 30
7.0
 70
   192
  0
VERTEX
  8
0
  5
86
 10
12.0
 20
12.0
 30
7.0
 70
   192
  0
VERTEX
  8
0
  5
87
 10
0.0
 20
12.0
 30
3.0
 70
   192
  0
VERTEX
  8
0
  5
88
 10
12.0
 20
12.0
 30
0.0
 70
   192
  0
VERTEX
  8
0
  5
89
 10
0.0
 20
12.0
 30
0.0
 70
   192
  0
VERTEX
  8
0
  5
8A
 10
12.0
 20
12.0
 30
3.0
 70
   192
  0
VERTEX
  8
0
 62
     7
  5
8B
 10
0.0
 20
0.0
 30
0.0
 70
   128
 71
     1
 72
    -2
 73
     3
  0
VERTEX
  8
0
 62
     7
  5
8C
 10
0.0
 20
0.0
 30
0.0
 70
   128
 71
     2
 72
     4
 73
    -3
  0
VERTEX
  8
0
 62
     7
  5
8D
 10
0.0
 20
0.0
 30
0.0
 70
   128
 71
    -5
 72
     6
 73
     7
  0
VERTEX
  8
0
 62
     7
  5
8E
 10
0.0
 20
0.0
 30
0.0
 70
   128
 71
     5
 72
     8
 73
    -6
  0
SEQEND
  8
0
 62
     7
  5
8F
  0
POLYLINE
  8
0
 62
     7
  5
90
 66
     1
 10
0.0
 20
0.0
 30
0.0
 70
    64
  0
VERTEX
  8
0
  5
91
 10
12.0
 20
12.0
 30
10.0
 70
   192
  0
VERTEX
  8
0
  5
92
 10
0.0
 20
12.0
 30
10.0
 70
   192
  0
VERTEX
  8
0
  5
93
 10
0.0
 20
0.0
 30
10.0
 70
   192
  0
VERTEX
  8
0
  5
94
 10
12.0
 20
0.0
 30
10.0
 70
   192
  0
VERTEX
  8
0
 62
     7
  5
95
 10
0.0
 20
0.0
 30
0.0
 70
   128
 71
     1
 72
     2
 73
    -3
  0
VERTEX
  8
0
 62
     7
  5
96
 10
0.0
 20
0.0
 30
0.0
 70
   128
 71
     3
 72
     4
 73
    -1
  0
SEQEND
  8
0
 62
     7
  5
97
  0
POLYLINE
  8
0
 62
     7
  5
98
 66
     1
 10
0.0
 20
0.0
 30
0.0
 70
    64
  0
VERTEX
  8
0
  5
99
 10
0.0
 20
0.0
 30
0.0
 70
   192
  0
VERTEX
  8
0
  5
9A
 10
0.0
 20
0.0
 30
3.0
 70
   192
  0
VERTEX
  8
0
  5
9B
 10
0.0
 20
12.0
 30
3.0
 70
   192
  0
VERTEX
  8
0
  5
9C
 10
0.0
 20
12.0
 30
0.0
 70
   192
  0
VERTEX
  8
0
  5
9D
 10
0.0
 20
0.0
 30
7.0
 70
   192
  0
VERTEX
  8
0
  5
9E
 10
0.0
 20
0.0
 30
10.0
 70
   192
  0
VERTEX
  8
0
  5
9F
 10
0.0
 20
12.0
 30
7.0
 70
   192
  0
VERTEX
  8
0
  5
A0
 10
0.0
 20
12.0
 30
10.0
 70
   192
  0
VERTEX
  8
0
 62
     7
  5
A1
 10
0.0
 20
0.0
 30
0.0
 70
   128
 71
     1
 72
     2
 73
    -3
  0
VERTEX
  8
0
 62
     7
  5
A2
 10
0.0
 20
0.0
 30
0.0
 70
   128
 71
     3
 72
     4
 73
    -1
  0
VERTEX
  8
0
 62
     7
  5
A3
 10
0.0
 20
0.0
 30
0.0
 70
   128
 71
     5
 72
    -6
 73
     7
  0
VERTEX
  8
0
 62
     7
  5
A4
 10
0.0
 20
0.0
 30
0.0
 70
   128
 71
     6
 72
     8
 73
    -7
  0
SEQEND
  8
0
 62
     7
  5
A5
  0
POLYLINE
  8
0
 62
     7
  5
A6
 66
     1
 10
0.0
 20
0.0
 30
0.0
 70
    64
  0
VERTEX
  8
0
  5
A7
 10
0.0
 20
0.0
 30
0.0
 70
   192
  0
VERTEX
  8
0
  5
A8
 10
12.0
 20
0.0
 30
0.0
 70
   192
  0
VERTEX
  8
0
  5
A9
 10
10.0
 20
0.0
 30
3.0
 70
   192
  0
VERTEX
  8
0
  5
AA
 10
12.0
 20
0.0
 30
10.0
 70
   192
  0
VERTEX
  8
0
  5
AB
 10
0.0
 20
0.0
 30
3.0
 70
   192
  0
VERTEX
  8
0
  5
AC
 10
10.0
 20
0.0
 30
7.0
 70
   192
  0
VERTEX
  8
0
  5
AD
 10
0.0
 20
0.0
 30
7.0
 70
   192
  0
VERTEX
  8
0
  5
AE
 10
0.0
 20
0.0
 30
10.0
 70
   192
  0
VERTEX
  8
0
 62
     7
  5
AF
 10
0.0
 20
0.0
 30
0.0
 70
   128
 71
     1
 72
    -2
 73
    -3
  0
VERTEX
  8
0
 62
     7
  5
B0
 10
0.0
 20
0.0
 30
0.0
 70
   128
 71
     2
 72
    -4
 73
    -3
  0
VERTEX
  8
0
 62
     7
  5
B1
 10
0.0
 20
0.0
 30
0.0
 70
   128
 71
     3
 72
     5
 73
    -1
  0
VERTEX
  8
0
 62
     7
  5
B2
 10
0.0
 20
0.0
 30
0.0
 70
   128
 71
    -4
 72
     6
 73
    -3
  0
VERTEX
  8
0
 62
     7
  5
B3
 10
0.0
 20
0.0
 30
0.0
 70
   128
 71
    -4
 72
     7
 73
    -6
  0
VERTEX
  8
0
 62
     7
  5
B4
 10
0.0
 20
0.0
 30
0.0
 70
   128
 71
     4
 72
     8
 73
    -7
  0
SEQEND
  8
0
 62
     7
  5
B5
  0
POLYLINE
  8
0
 62
     7
  5
B6
 66
     1
 10
0.0
 20
0.0
 30
0.0
 70
    64
  0
VERTEX
  8
0
  5
B7
 10
12.0
 20
0.0
 30
0.0
 70
   192
  0
VERTEX
  8
0
  5
B8
 10
0.0
 20
12.0
 30
0.0
 70
   192
  0
VERTEX
  8
0
  5
B9
 10
12.0
 20
12.0
 30
0.0
 70
   192
  0
VERTEX
  8
0
  5
BA
 10
0.0
 20
0.0
 30
0.0
 70
   192
  0
VERTEX
  8
0
 62
     7
  5
BB
 10
0.0
 20
0.0
 30
0.0
 70
   128
 71
    -1
 72
     2
 73
     3
  0
VERTEX
  8
0
 62
     7
  5
BC
 10
0.0
 20
0.0
 30
0.0
 70
   128
 71
     1
 72
     4
 73
    -2
  0
SEQEND
  8
0
 62
     7
  5
BD
  0
POLYLINE
  8
0
 62
     7
  5
BE
 66
     1
 10
0.0
 20
0.0
 30
0.0
 70
    64
  0
VERTEX
  8
0
  5
BF
 10
0.0
 20
0.0
 30
7.0
 70
   192
  0
VERTEX
  8
0
  5
C0
 10
10.0
 20
0.0
 30
7.0
 70
   192
  0
VERTEX
  8
0
  5
C1
 10
12.0
 20
12.0
 30
7.0
 70
   192
  0
VERTEX
  8
0
  5
C2
 10
0.0
 20
12.0
 30
7.0
 70
   192
  0
VERTEX
  8
0
  5
C3
 10
12.0
 20
2.0
 30
7.0
 70
   192
  0
VERTEX
  8
0
 62
     7
  5
C4
 10
0.0
 20
0.0
 30
0.0
 70
   128
 71
    -1
 72
    -3
 73
     2
  0
VERTEX
  8
0
 62
     7
  5
C5
 10
0.0
 20
0.0
 30
0.0
 70
   128
 71
    -3
 72
     1
 73
     4
  0
VERTEX
  8
0
 62
     7
  5
C6
 10
0.0
 20
0.0
 30
0.0
 70
   128
 71
    -2
 72
     3
 73
     5
  0
SEQEND
  8
0
 62
     7
  5
C7
  0
POLYLINE
  8
0
 62
     7
  5
C8
 66
     1
 10
0.0
 20
0.0
 30
0.0
 70
    64
  0
VERTEX
  8
0
  5
C9
 10
0.0
 20
12.0
 30
3.0
 70
   192
  0
VERTEX
  8
0
  5
CA
 10
12.0
 20
2.0
 30
3.0
 70
   192
  0
VERTEX
  8
0
  5
CB
 10
0.0
 20
0.0
 30
3.0
 70
   192
  0
VERTEX
  8
0
  5
CC
 10
10.0
 20
0.0
 30
3.0
 70
   192
  0
VERTEX
  8
0
  5
CD
 10
12.0
 20
12.0
 30
3.0
 70
   192
  0
VERTEX
  8
0
 62
     7
  5
CE
 10
0.0
 20
0.0
 30
0.0
 70
   128
 71
     1
 72
    -3
 73
    -2
  0
VERTEX
  8
0
 62
     7
  5
CF
 10
0.0
 20
0.0
 30
0.0
 70
   128
 71
    -2
 72
     3
 73
     4
  0
VERTEX
  8
0
 62
     7
  5
D0
 10
0.0
 20
0.0
 30
0.0
 70
   128
 71
    -1
 72
     2
 73
     5
  0
SEQEND
  8
0
 62
     7
  5
D1
  0
POLYLINE
  8
0
 62
     7
  5
D2
 66
     1
 10
0.0
 20
0.0
 30
0.0
 70
    64
  0
VERTEX
  8
0
  5
D3
 10
10.0
 20
0.0
 30
3.0
 70
   192
  0
VERTEX
  8
0
  5
D4
 10
12.0
 20
2.0
 30
3.0
 70
   192
  0
VERTEX
  8
0
  5
D5
 10
12.0
 20
2.0
 30
7.0
 70
   192
  0
VERTEX
  8
0
  5
D6
 10
10.0
 20
0.0
 30
7.0
 70
   192
  0
VERTEX
  8
0
 62
     7
  5
D7
 10
0.0
 20
0.0
 30
0.0
 70
   128
 71
    -1
 72
     3
 73
     2
  0
VERTEX
  8
0
 62
     7
  5
D8
 10
0.0
 20
0.0
 30
0.0
 70
   128
 71
    -3
 72
     1
 73
     4
  0
SEQEND
  8
0
 62
     7
  5
D9
  0
ENDBLK
  8
0
  5
DA
  0
ENDSEC
  0
SECTION
  2
ENTITIES
  0
INSERT
  8
ASHADE
 62
     1
  5
3
  2
AVE_RENDER
 10
0.0
 20
0.0
 30
0.0
1001
AVE_RENDER
1002
{
1070
     2
1000
Pref
1070
    30
1070
    20
1070
     0
1070
     0
1000

1070
    10
1070
     0
1070
    30
1040
1.0
1070
     1
1040
0.3
1040
0.7
1040
0.0
1040
10.0
1010
-1.0
1020
-1.0
1030
-1.0
1040
0.3
1070
    49
1002
}
  0
INSERT
  8
ASHADE
 62
     3
  5
4
  2
AVE_RENDER
 10
0.0
 20
0.0
 30
0.0
1001
AVE_RENDER
1002
{
1070
     0
1000
Full Opt
1070
     0
1070
     1
1070
     1
1070
     1
1070
     0
1070
     0
1070
     0
1070
     1
1070
     1
1040
0.0001
1040
0.0001
1002
}
  0
INSERT
  8
ASHADE
 62
     4
  5
5
  2
AVE_RENDER
 10
0.0
 20
0.0
 30
0.0
1001
AVE_RENDER
1002
{
1070
     0
1000
Quick Opt
1070
     0
1070
     1
1070
     1
1070
     1
1070
     0
1070
     0
1070
     1
1002
}
  0
INSERT
  8
AME_FRZ
  5
8
  2
AME_NIL
 10
0.0
 20
0.0
 30
0.0
  0
INSERT
  8
AME_FRZ
  5
1A
  2
AME_NIL
 10
0.0
 20
0.0
 30
0.0
1001
AME_SOL
1002
{
1070
     1
1071
  2443616
1070
  1536
1070
     1
1010
12.0
1020
12.0
1030
10.0
1005
0
1005
0
1005
47
1040
0.0
1040
1.0
1070
     0
1000
MILD_STEEL
1000
0
1010
0.0
1020
0.0
1030
0.0
1010
0.0
1020
0.0
1030
1.0
1040
0.0
1002
}
1001
AVE_INVOKE
1000
SOLAVEMESH
  0
INSERT
  8
AME_FRZ
  5
26
  2
AME_NIL
 10
4.0
 20
8.0
 30
3.0
1001
AME_SOL
1002
{
1070
     1
1071
  2444272
1070
  1538
1070
     1
1010
10.0
1020
10.0
1030
4.0
1005
0
1005
0
1005
47
1040
0.0
1040
1.0
1070
     0
1000
MILD_STEEL
1000
0
1010
4.0
1020
8.0
1030
3.0
1010
0.0
1020
0.0
1030
1.0
1040
0.0
1002
}
1001
AVE_INVOKE
1000
SOLAVEMESH
  0
INSERT
  8
0
  5
47
  2
*U5
 10
0.0
 20
0.0
 30
0.0
 50
270.0
210
1.0
220
0.0
230
0.0000000000000001
1001
AME_SOL
1002
{
1070
     1
1071
  2416112
1070
  9735
1070
    11
1070
     0
1005
1A
1005
26
1005
DB
1005
48
1005
0
1040
887.313708
1040
1.0
1070
     0
1000
MILD_STEEL
1000
0
1002
}
1001
AVE_INVOKE
1000
SOLAVEMESH
  0
INSERT
  8
AME_FRZ
  5
48
  2
AME_NIL
 10
1.0
 20
1.0
 30
1.0
1001
AME_SOL
1004
C7CF0100010180017F017D017901710164015701F800470197001E00070065018E003C007201660158014801100038011400B00080003F0067015901180049018300A00002007A017301680103005A014A0176003901260119010F01A90064004800FC0019004B0105003A01780027011D00230069017F00
1004
FD0074016A015B01C0004C01FE003B0128013B003D004F002800F0007E017B0175016B015C0196004D014E00EE005D014E01F2003C0129011A015800B100AF002A01BE00E2004F01A400A3006C015E01750050013D01C40012003E012B011B0110016000F70061007E002C011B007200010076016D01BF00
1004
5F0151013F012D018C002C002E013200EB0040012F015D001C0126008F0030011D01AC00E4001E01BB0067005201410131011F01DF009E0020014D001101380068003201210112010101000109000201F600170013010301F500F400040129002A002201140105012B002D0006012E002F00150107013100
1004
D8000801D400D30008006E01600189007C0025007C017701FF00400078016F016101530142010E00AD00430133012301160109019300D2000A01D1009D0017010B01CB00CA000C01C900520091001C005F00620154013000440150003401E100DA00550145013501AB00EA00270020007001240063010F00
1004
560146013601240118010D01A600BC000E01B800A8000400FB003701ED002501F100DE0084000000764876482507E5392AC633713A58AB469F27801928957C30C19872CA5C0E6080CE594B84A3E5AC72B01545AAE8B31154A10A935C0B58E5602F353EFCA23F193C00C944ABE1860CC39652E0730947C389
1004
75DD605AF96B1CAC05516ABA2CC4552842A4D030064A255F38DA9DD94299D7B19A771277650BFCE2FFFFFFFE717FFF106FEEEDFD5DA4DFDE6FEF37FFFFFDD942FF38BFFFFFFF9C5FFFC41BFBBB7F576937F79BFBCDFFFFFCEA2B27648E8127F9C5FFFFFFFCE2FFB18C6318AD330EDFBBB7F5768F4BD53550
1004
623AA096AB04BD53550623AA096B94FFAB27647E8127F9C5FFFFFFFCE2FFA296318C63E699318C6318A7EAED1E97AA6AA0C475412D56097AA6AA0C475412D729FF564ECA7D024FF38BFFFFFFF9C5FFFD516FEEEDFD5DA3D2F54D54188EA825AAC12F54D54188EA825AE53FEAC9D9F4093FCE2FFFFFFFE717
1004
FD14B18C631F37F549BFABB47A5EA9AA8311D504B55825EA9AA8311D504B5CA7FDF9442693C00C944ABE1860CC39652E0730947C38975DD605AF96B1CAC05516ABA2CC4552842A4D334E594B81ABB53BFA113862F6334EE25EFE85FE717FFFFF89FCEA7F13F8837F776FEAED26FFFFFFFFFFBFA17F9C5FFF
1004
FFE27F3A9FC4FE20DFDDDBFABB49BFFFFFFFFF9D47E5109A4F0032512AF8618330E594B81CC22E0A6D7E8E9735F2D639580AA2D5745988AA508549A0600C944ABE71B53BFA108C96BD8CD3B89BBFA17F9C5FFFFFFFCE2FFFE20DFDDDBFB8DA4DFFFFFFFFFF7F42FF38BFFFFFFF9C5FFFC41BFBBB7F71B49B
1004
FFFFFFFFF9D47E511F8C80CE594B84A1019CB29709420339652E128F96B1CAC04D6BE5AC72B0135A40672CA5C2153BFA13BB8AF53E9D524F7F42FFFF38BFFF9C5FFFFFFFFFF26FFFFFFFFFFBFA17FFF9C5FFFCE2FFFFFFFFFF937FFFFFFFFF38AFCA22BC80CE594B84A1019CB29709420339652E128F96B1
1004
CAC04D69019CB297085702D639580BCD4EFE84E8FEF53E9D5B89EFE85FE717FFFFFFFFF38BFFFFFE4DFFFFFFFFFF7F42FF38BFFFFFFFFF9C5FFFFFF26FFFFFFFFFE715F944579019CB29709420339652E12840672CA5C25080CE594B842BE5AC72B0135AE05AC72B0179A9DFD09D009EA7D3BA27BFA17FFF
1004
FF9C5FFFCE2FFFFFFFF937FFFFFFFFFDFD0BFFFFFCE2FFFE717FFFFFFFC9BFFFFFFFFF9C57E511F8C80CE594B84A1019CB2970947EC351B24004FB5F2D6395809AD7CB58E56026B5C0B58E5602F353BFA15D87A9F4EADB4F7F42FF3A9FC4FF13FC4FE753F89FCD6FE6B7F79A4DFFFFFFFFFF7F42FF3A9FC4
1004
FF13FC4FE753F89FCD6FE6B7F79A4DFFFFFFFFFCE2BF288AF20339652E12888351B2400ED69019CB2970947CB58E56026B5F2D6395809AD702D639580BCD4EFE84EA70BD4FA756D27BFA17FC4FF13F9D4FCEA7F13FC4FE6B7F35BFBCD26FFFFFFFFFFBFA17FC4FF13F9D4FCEA7F13FC4FE6B7F35BFBCD26F
1004
FFFFFFFFE715F94457A20D46C9003B5A40672CA5C25080CE594B84A3E5AC72B0135AF96B1CAC04D6B816B1CAC05E6A77F42351DEA7D3AB653DFD0BFE27F3A9FC4FF13FC4FE753F35BF9ADFDE6937FFFFFFFFFDFD0BFE27F3A9FC4FF13FC4FE753F35BF9ADFDE6937FFFFFFFFF38A8C864F0032512AF86183
1004
30E594B81CC22E0A6D7E8E9735F2D639580AA2D5745988AA508549A0600C944ABE71B4CEAB92C932AF558FD28FDD58AAA4755604AB541E4AA4004A2BF4EC64CEBC464B5F8F1192D7CCEBD8C6318C6309549FE717FFFFFFF38BFFF8837F776FEE36BF1FEF37F79A6755C9649957AAC7E947EEAC55523AAB02
1004
55AA2321A20D46C9003B5A40672CA5C25128F8712EBBAC0B5F2D6395809AD7CB58E56026B40C01928957CE36FFFE20D1E8120C711BDD8C4F33AF351DEE3E675E6A3BD6318C4FA049FE717FFFFFFF38BFFF9AD23F6FEAED1FFFF8835190C80CE594B84A1019CB2970944A3E1C4BAEEB02D7CB58E56026B480
1004
CE594B842818032512AF9C6DFFFC41A3D02456EA2AF74EC64CEBDD1FDEE3DD1FDECCEBD3EC63188127F9C5FFFFFFFCE2FFB18C63184FB7F7EEFC1FD5DA3FFFF106A32193C00C944ABE1860CC39652E0730947C38975DD605AF96B1CAC05516ABA2CC4552842A4D334E594B81ABB4CEAB92C932AF558FD28F
1004
DD58AAA4755604AB541E4AA47E1A2CBF6313CCEBC9C317E3E675E4E18BD8C6318C6309549FE717FFFFFFF38BFFF8837F776FEAED7E3FDE6FEF34CEAB92C932AF558FD28FDD58AAA4755604AB54464320339652E12888351B2400ED6A51F0E25D775816BE5AC72B0135AF96B1CAC04D699A72CA5C0D5DA9FC
1004
40C7EEED1E8123514BDD3B184E18BDD4E17B8F75385E93862F4FB18C62049FFFE717FFFFFFF3A9FBBB7F35BFABB47A7F1031FBBB5190D106A364801DAD20339652E128947C38975DD605AF96B1CAC04D6BE5AC72B0135A669CB29703576FEEE60C98C6318C147A048960FC07BA76309C3179A8EF71E6A3BD
1004
270C5E9F6318C4093FCE2FFFFFFFFFE753F35A9FDE6FEAED1FFBB98326318C6305464320339652E12840672CA5C25128F8712EBBAC0B480CE594B842BE5AC72B0135A669CB29703576A7F7731F88347A049467BA76309C317BA013DC7BA013D270C5E9F6318C4093FCEA7FFFFFFFFE753FFF106FEAED1E9F
1004
DDCC7E20D464320339652E12840672CA5C25128F8712EBBAC0B5F2D6395809AD20339652E10A669CB29703576FF309FDDDA3D0247E13881EE9D8C270C5EE8FEF71EE8FEF49C317A7D8C631024FFFF3A9FFFFFFF9D4FEDFFFD5DA3FF984FEEED464320339652E12888351B2400ED6A2E0A6D7E8E9735F2D63
1004
95809AD7CB58E56026B40C01928957CE36FEEE613F88347A04825177BA7630464B5EEA70BDC7BA9C2F4464B5E9F6318C4093FFFCE2FFFFFFFE717F776FE6B7F71B47FEEE613F8835190D106A364801DAD20339652E1288B829B5FA3A5CD7CB58E56026B5F2D6395809AD030064A255F38DA64C6318C629FB
1004
BB47A048EA7113DD3B182325AF351DEE3CD477A2325AF4FB18C62049FE717FFFFF89FFFCE2FE6B53FBCDFDC6D1E64C6318C629FBBB5190C80CE594B84A1019CB29709445C14DAFD1D2E69019CB2970857CB58E56026B40C01928957CE36FE20613FBBB47A048D710BDD3B182325AF74027B8F74027A2325A
1004
F4FB18C62049FE753FFFFFFFFF38BFFF8837F71B47FE20613FBBB5190C80CE594B84A1019CB29709445C14DAFD1D2E6BE5AC72B0135A40672CA5C2140C01928957CE36A7F7731FDA3D0247456FBDD3B182325AF747F7B8F747F7A2325AF4FB18C62049FFFE753FFFFFFF38BFDBFFFB8DA3D3FBB98FED4643
1004
20339652E12888351B2400ED69019CB2970947CB58E56026B5F2D6395809AD20339652E10BF8C31F8C68F4091DD5BCF76313BBB8AF5D4E17B8F77715EBA9C2F53E9F4093FFFCE2FFFFFFFE753F18DFCD6FF8FFC618FC635190D106A364801DAD20339652E12840672CA5C251F2D6395809AD7CB58E56026B
1004
480CE594B842FE30C7E31A3D024355AAF76313BBB8AF4D477B8F77715E9A8EF53E9F4093FCE2FFFFFFFFFE753F35BF8C6FF8FFC618FC635190C80CE594B84A1019CB29709420339652E12840672CA5C215F2D6395809AD20339652E10BF9A63F891E8122B32B51EEC62777715EBA013DC7BBB8AF5D009EA7
1004
D3E8127F9D4FFFFFFFFFCEA7FFFFF8FFCD31FC4A3219019CB29709420339652E12840672CA5C251F2D6395809AD20339652E10A40672CA5C217FFF35A3D024252AD27BB189DDDC57AE8FEF71EEEE2BD747F7A9F4FA049FFFE753FFFFFFF3A9FFFFFE3FFFF35A8C8640672CA5C25080CE594B84A3F61A8D92
1004
0027DAF96B1CAC04D69019CB297085702D639580BCDFC618FC6347A0488A12C5EEC627747F7B761EE3DD1FDEDD87A9F4FA049FFFFFE717FFF3A9FFF8C6FFFEF347FE30C7E31A8C8688351B2400ED69019CB29709420339652E128F96B1CAC04D69019CB297085702D639580BCDFC4463F11347A048ACE01E
1004
EC627747F7A6A3BDC7BA3FBD351DEA7D3E8127F9C5FFFFFFFCEA7FFE6B7FFF11347FE2231F889A8C8640672CA5C25080CE594B84A1019CB29709420339652E10A40672CA5C215C0B58E5602F37FFF5768F4090D2DEEC627747F7AE804F71EE8FEF5D009EA7D3E8127F9D4FFFFFFFCEA7FFFFFFF8FFFFD5DA
1004
8C8640672CA5C25080CE594B84A1019CB29709420339652E10A40672CA5C215C0B58E5602F37F71B7F79A3D024566327BB189DD1FDEBA013DC7BA3FBD74027A9F4FA049FE753FFFFFFF3A9FFFFFFFE3FF71B7F79A8C8640672CA5C25080CE594B84A3F61A8D920027DA40672CA5C215F2D6395809AD702D6
1004
39580BCDFC618FC6347A0484A58F76313BA013DBB0F71EE804F6EC3D4FA7D024FFFFFF38BF9D4FFFFFFFC637F79A3FF1863F18D464320339652E12888351B2400ED69019CB29709420339652E10AF96B1CAC04D6B816B1CAC05E6FE223064C6318C6283D0244515FB189DD009EBA9C2F71EE804F5D4E17A9
1004
F4FA049FFFE717FFF3A9FFFFFFF9ADFC44D1FF888C19318C6318A23219019CB297094441A8D920076B480CE594B84A1019CB2970857CB58E56026B5C0B58E5602F353FDBF889A3D024015FB189DD009EBA9C2F71EE804F5D4E17A9F4FA049FFFE717FFF3A9FFFFFFF9ADFC44D1E9FEDFC44D464320339652
1004
E12888351B2400ED6BF61A8D920027DAF96B1CAC04D6BE5AC72B0135AE05AC72B0179BF9A63F891E81212956B2FD8C4F761EBA9C2F71F761EBA9C2F53E9F4093FFFCE2FFFFFFFE717F35BF9ADFDE68FFCD31FC4A321A20D46C9003B5A40672CA5C251FB0D46C90013ED7CB58E56026B5F2D6395809AD702D
1004
639580BCDFFFCD68F4091142B5D7EC627BB0F4D477B8FBB0F4D477A9F4FA049FE717FFFFF89FFFCE2FE6B7F35BFBCD1FFFF9AD4643441A8D920076B5106A364801DAD20339652E128F96B1CAC04D6BE5AC72B0135AE05AC72B0179BFBC618C6318C4B8C0F409159D5B0BF6313BA9C2F4D477B8F75385E9A8
1004
EF53E9F4093FCE2FFFFFFFE717FFF35BF9ADFDE68FFDE30C6318C625C61190D106A364801DAD441A8D920076B480CE594B84A3E5AC72B0135AF96B1CAC04D6B816B1CAC05E699318C630131FC48F40909CA8AFD8C4EEA70BD351DEE3DD4E17A6A3BD4FA7D024FF38BFFFFFFF9C5FFFCD6FE6B7F79A3CC98C
1004
6318098FE24964AAB406
1005
49
  0
INSERT
  8
AME_FRZ
  5
49
  2
AME_NIL
 10
1.0
 20
1.0
 30
1.0
1001
AME_SOL
1004

1005
0
  0
INSERT
  8
AME_FRZ
  5
DB
  2
*U8
 10
0.0
 20
0.0
 30
0.0
  0
INSERT
  8
AME_FRZ
  5
DD
  2
AME_SOL
 10
0.0
 20
0.0
 30
0.0
1001
AME_SOL
1000
R2.1
1000
AME2
1000
sq cm
1070
     3
1070
     0
1070
     3
1000
wire
1040
45.0
1000
U
1040
1.0
1000
cm
1000
gm
1000
MILD_STEEL
1070
    25
1000
CSG
1070
     1
1070
     3
1070
     3
1070
     3
1070
     0
1000
cu cm
1070
    12
1070
     0
1005
8
  0
ENDSEC
  0
EOF
