600 0 1 0           
108 GICL ACIS STEP Translator - Source: f:/data5/repository/Parasolid/NIST/Bill_Regli/bendix1/bendix1.step - 6 0 13 ACIS 6.0.3 NT 24 Mon Apr 08 10:51:55 2002 
1 9.9999999999999995e-007 1e-010 
body $-1 $1 $-1 $-1 #
lump $-1 $-1 $2 $0 #
shell $-1 $-1 $-1 $3 $-1 $1 #
face $-1 $4 $5 $2 $-1 $6 reversed single #
face $-1 $7 $8 $2 $-1 $9 reversed single #
loop $-1 $-1 $10 $3 #
cone-surface $-1 8000.0000000000045 2000.0000000000011 2999.9999999999886 0 1 6.12303176911189e-017 1000.0000000000006 0 0 1 I I 0 1 1000.0000000000006 forward I I I I #
face $-1 $11 $12 $2 $-1 $13 reversed single #
loop $-1 $-1 $14 $4 #
cone-surface $-1 6000.0000000000027 2000.0000000000011 2999.9999999999886 0 1 6.12303176911189e-017 1000.0000000000006 0 0 1 I I 0 1 1000.0000000000006 forward I I I I #
coedge $-1 $15 $16 $17 $18 reversed $5 $-1 #
face $-1 $19 $20 $2 $-1 $21 reversed single #
loop $-1 $-1 $22 $7 #
cone-surface $-1 10999.999999999991 1000.0000000000006 14000.000000000007 0 1 6.12303176911189e-017 1000.0000000000006 0 0 1 I I 0 1 1000.0000000000006 forward I I I I #
coedge $-1 $23 $24 $25 $26 reversed $8 $-1 #
coedge $-1 $27 $10 $28 $29 forward $5 $-1 #
coedge $-1 $10 $27 $30 $31 reversed $5 $-1 #
coedge $-1 $32 $33 $10 $18 forward $34 $-1 #
edge $-1 $35 0 $36 1.5707963267948966 $10 $37 forward 7 unknown #
face $-1 $38 $39 $2 $-1 $40 reversed single #
loop $-1 $-1 $41 $11 #
cone-surface $-1 10999.999999999991 1000.0000000000006 6000.0000000000027 0 1 6.12303176911189e-017 1000.0000000000006 0 0 1 I I 0 1 1000.0000000000006 forward I I I I #
coedge $-1 $42 $43 $44 $45 reversed $12 $-1 #
coedge $-1 $46 $14 $47 $48 forward $8 $-1 #
coedge $-1 $14 $46 $49 $50 reversed $8 $-1 #
coedge $-1 $51 $52 $14 $26 forward $53 $-1 #
edge $-1 $54 -19.6850393700783 $55 19.685039370078698 $14 $56 forward 7 unknown #
coedge $-1 $16 $15 $57 $58 forward $5 $-1 #
coedge $-1 $59 $60 $15 $29 reversed $61 $-1 #
edge $-1 $35 -19.685039370078698 $62 19.6850393700783 $15 $63 forward 7 unknown #
coedge $-1 $52 $51 $16 $31 forward $53 $-1 #
edge $-1 $36 -19.685039370078698 $64 19.6850393700783 $16 $65 forward 7 unknown #
coedge $-1 $49 $17 $51 $66 reversed $34 $-1 #
coedge $-1 $17 $67 $59 $68 reversed $34 $-1 #
loop $-1 $-1 $33 $69 #
vertex $-1 $18 $70 #
vertex $-1 $18 $71 #
ellipse-curve $-1 8000.0000000000045 2000.0000000000011 2999.9999999999886 0 1 6.12303176911189e-017 1000.0000000000006 0 0 1 I I #
face $-1 $72 $73 $2 $-1 $74 reversed single #
loop $-1 $-1 $75 $19 #
cone-surface $-1 2999.9999999999886 1000.0000000000006 14000.000000000007 0 1 6.12303176911189e-017 1000.0000000000006 0 0 1 I I 0 1 1000.0000000000006 forward I I I I #
coedge $-1 $76 $77 $78 $79 forward $20 $-1 #
coedge $-1 $80 $22 $81 $82 reversed $12 $-1 #
coedge $-1 $22 $80 $83 $84 forward $12 $-1 #
coedge $-1 $85 $86 $22 $45 forward $87 $-1 #
edge $-1 $88 -1.5707963267948966 $89 0 $22 $90 forward 7 unknown #
coedge $-1 $24 $23 $91 $92 forward $8 $-1 #
coedge $-1 $93 $94 $23 $48 reversed $95 $-1 #
edge $-1 $54 -3.1415926535897931 $96 -1.5707963267948966 $23 $97 forward 7 unknown #
coedge $-1 $98 $32 $24 $50 forward $34 $-1 #
edge $-1 $55 1.5707963267948966 $99 3.1415926535897931 $24 $100 forward 7 unknown #
coedge $-1 $30 $25 $32 $66 forward $53 $-1 #
coedge $-1 $25 $30 $93 $101 forward $53 $-1 #
loop $-1 $-1 $30 $102 #
vertex $-1 $26 $103 #
vertex $-1 $26 $104 #
straight-curve $-1 6000.0000000000027 2500 2000.0000000000011 0 -25.399999999999999 0 I I #
coedge $-1 $105 $93 $27 $58 reversed $95 $-1 #
edge $-1 $62 1.5707963267948966 $64 3.1415926535897931 $27 $106 forward 7 unknown #
coedge $-1 $107 $28 $33 $68 forward $61 $-1 #
coedge $-1 $28 $107 $105 $108 reversed $61 $-1 #
loop $-1 $-1 $60 $109 #
vertex $-1 $29 $110 #
straight-curve $-1 8999.9999999999909 2500 2999.9999999999886 0 25.399999999999999 0 I I #
vertex $-1 $58 $111 #
straight-curve $-1 8000.0000000000045 2500 2000.0000000000011 0 25.399999999999999 0 I I #
edge $-1 $55 -39.370078740156998 $36 39.370078740158021 $51 $112 forward 7 unknown #
coedge $-1 $33 $98 $113 $114 reversed $34 $-1 #
edge $-1 $35 0 $115 78.740157480315006 $33 $116 forward 7 unknown #
face $-1 $117 $34 $2 $-1 $118 reversed single #
point $-1 8999.9999999999909 2000.0000000000011 2999.9999999999886 #
point $-1 8000.0000000000045 2000.0000000000011 2000.0000000000011 #
face $-1 $119 $120 $2 $-1 $121 reversed single #
loop $-1 $-1 $122 $38 #
cone-surface $-1 2999.9999999999886 1000.0000000000006 6000.0000000000027 0 1 6.12303176911189e-017 1000.0000000000006 0 0 1 I I 0 1 1000.0000000000006 forward I I I I #
coedge $-1 $123 $124 $125 $126 forward $39 $-1 #
coedge $-1 $127 $41 $128 $129 reversed $20 $-1 #
coedge $-1 $41 $127 $130 $131 reversed $20 $-1 #
coedge $-1 $132 $133 $41 $79 reversed $134 $-1 #
edge $-1 $135 -39.370078740157503 $136 39.370078740156998 $41 $137 forward 7 unknown #
coedge $-1 $43 $42 $138 $139 reversed $12 $-1 #
coedge $-1 $140 $141 $42 $82 forward $142 $-1 #
edge $-1 $143 -39.370078740156998 $88 39.370078740157503 $42 $144 forward 7 unknown #
coedge $-1 $133 $132 $43 $84 reversed $134 $-1 #
edge $-1 $145 -39.370078740156998 $89 39.370078740157503 $43 $146 forward 7 unknown #
coedge $-1 $130 $44 $132 $147 reversed $87 $-1 #
coedge $-1 $44 $148 $140 $149 reversed $87 $-1 #
loop $-1 $-1 $86 $150 #
vertex $-1 $45 $151 #
vertex $-1 $45 $152 #
ellipse-curve $-1 10999.999999999991 1000.0000000000006 14000.000000000007 0 1 6.12303176911189e-017 1000.0000000000006 0 0 1 I I #
coedge $-1 $153 $154 $46 $92 reversed $155 $-1 #
edge $-1 $96 -19.6850393700783 $99 19.685039370078698 $46 $156 forward 7 unknown #
coedge $-1 $57 $47 $52 $101 reversed $95 $-1 #
coedge $-1 $47 $157 $153 $158 reversed $95 $-1 #
loop $-1 $159 $57 $160 #
vertex $-1 $48 $161 #
ellipse-curve $-1 6000.0000000000027 2999.9999999999886 2999.9999999999886 0 1 0 0 0 1000.0000000000006 1 I I #
coedge $-1 $67 $49 $154 $162 forward $34 $-1 #
vertex $-1 $92 $163 #
ellipse-curve $-1 6000.0000000000027 2000.0000000000011 2999.9999999999886 0 1 6.12303176911189e-017 1000.0000000000006 0 0 1 I I #
edge $-1 $64 -39.370078740158021 $54 39.370078740156998 $52 $164 forward 7 unknown #
face $-1 $69 $53 $2 $-1 $165 reversed single #
point $-1 6000.0000000000027 2999.9999999999886 2000.0000000000011 #
point $-1 6000.0000000000027 2000.0000000000011 2000.0000000000011 #
coedge $-1 $166 $57 $60 $108 forward $95 $-1 #
ellipse-curve $-1 8000.0000000000045 2999.9999999999886 2999.9999999999886 0 1 0 0 0 1000.0000000000006 1 I I #
coedge $-1 $60 $59 $167 $168 reversed $61 $-1 #
edge $-1 $62 0 $169 78.740157480315006 $60 $170 forward 7 unknown #
face $-1 $171 $61 $2 $-1 $172 reversed single #
point $-1 8999.9999999999909 2999.9999999999886 2999.9999999999886 #
point $-1 8000.0000000000045 2999.9999999999886 2000.0000000000011 #
straight-curve $-1 6999.99999999999 2000.0000000000011 2000.0000000000011 25.399999999999999 0 0 I I #
coedge $-1 $173 $167 $67 $114 forward $174 $-1 #
edge $-1 $115 -78.74015748031502 $175 78.740157480314991 $67 $176 forward 7 unknown #
vertex $-1 $68 $177 #
straight-curve $-1 8999.9999999999909 2000.0000000000011 2999.9999999999886 0 0 25.399999999999999 I I #
face $-1 $109 $155 $2 $-1 $178 reversed single #
plane-surface $-1 6999.99999999999 2000.0000000000011 2999.9999999999886 0 -1 0 0 0 -25.399999999999999 forward_v I I I I #
face $-1 $102 $179 $2 $-1 $180 reversed single #
loop $-1 $-1 $181 $72 #
plane-surface $-1 6999.99999999999 1000.0000000000006 18999.999999999996 0 -1 0 0 0 -25.399999999999999 forward_v I I I I #
coedge $-1 $182 $183 $184 $185 reversed $73 $-1 #
coedge $-1 $186 $75 $187 $188 reversed $39 $-1 #
coedge $-1 $75 $186 $148 $189 reversed $39 $-1 #
coedge $-1 $190 $191 $75 $126 reversed $192 $-1 #
edge $-1 $193 -39.370078740157503 $194 39.370078740156998 $75 $195 forward 7 unknown #
coedge $-1 $77 $76 $196 $197 reversed $20 $-1 #
coedge $-1 $198 $166 $76 $129 forward $95 $-1 #
edge $-1 $199 1.5707963267948966 $136 3.1415926535897931 $76 $200 forward 7 unknown #
coedge $-1 $201 $85 $77 $131 forward $87 $-1 #
edge $-1 $135 0 $202 1.5707963267948966 $77 $203 forward 7 unknown #
coedge $-1 $83 $78 $85 $147 forward $134 $-1 #
coedge $-1 $78 $83 $198 $204 reversed $134 $-1 #
loop $-1 $-1 $78 $205 #
vertex $-1 $79 $206 #
vertex $-1 $79 $207 #
straight-curve $-1 12000.000000000005 2000.0000000000011 6000.0000000000027 0 25.399999999999999 0 I I #
coedge $-1 $208 $198 $80 $139 forward $95 $-1 #
edge $-1 $145 -3.1415926535897931 $143 -1.5707963267948966 $80 $209 forward 7 unknown #
coedge $-1 $210 $81 $86 $149 forward $142 $-1 #
coedge $-1 $81 $210 $208 $211 forward $142 $-1 #
loop $-1 $-1 $140 $212 #
vertex $-1 $82 $213 #
straight-curve $-1 10999.999999999991 2000.0000000000011 14999.999999999993 0 -25.399999999999999 0 I I #
vertex $-1 $139 $214 #
straight-curve $-1 12000.000000000005 2000.0000000000011 14000.000000000007 0 -25.399999999999999 0 I I #
edge $-1 $135 0 $89 314.96062992126002 $132 $215 forward 7 unknown #
coedge $-1 $86 $216 $124 $189 forward $87 $-1 #
edge $-1 $88 -157.48031496062998 $217 157.48031496062998 $140 $218 forward 7 unknown #
face $-1 $219 $87 $2 $-1 $220 reversed single #
point $-1 10999.999999999991 1000.0000000000006 14999.999999999993 #
point $-1 12000.000000000005 1000.0000000000006 14000.000000000007 #
coedge $-1 $221 $91 $94 $158 forward $155 $-1 #
coedge $-1 $91 $221 $98 $162 reversed $155 $-1 #
loop $-1 $-1 $154 $117 #
straight-curve $-1 4999.99999999999 2500 2999.9999999999886 0 -25.399999999999999 0 I I #
coedge $-1 $94 $222 $223 $224 reversed $95 $-1 #
edge $-1 $96 0 $225 78.740157480315006 $153 $226 forward 7 unknown #
loop $-1 $-1 $227 $160 #
face $-1 $228 $95 $2 $-1 $229 forward single #
point $-1 4999.99999999999 2999.9999999999886 2999.9999999999886 #
edge $-1 $99 0 $175 78.740157480315006 $98 $230 forward 7 unknown #
point $-1 4999.99999999999 2000.0000000000011 2999.9999999999886 #
straight-curve $-1 6999.99999999999 2999.9999999999886 2000.0000000000011 -25.399999999999999 0 0 I I #
plane-surface $-1 6999.99999999999 2500 2000.0000000000011 0 0 -1 -25.399999999999999 0 0 forward_v I I I I #
coedge $-1 $128 $105 $231 $232 reversed $95 $-1 #
coedge $-1 $113 $231 $107 $168 forward $174 $-1 #
edge $-1 $169 -39.370078740156998 $115 0 $107 $233 forward 7 unknown #
vertex $-1 $108 $234 #
straight-curve $-1 8999.9999999999909 2999.9999999999886 2999.9999999999886 0 0 25.399999999999999 I I #
face $-1 $205 $192 $2 $-1 $235 reversed single #
plane-surface $-1 8999.9999999999909 2500 2999.9999999999886 1 0 0 0 0 -25.399999999999999 forward_v I I I I #
coedge $-1 $223 $113 $221 $236 forward $174 $-1 #
loop $-1 $-1 $113 $219 #
vertex $-1 $162 $237 #
straight-curve $-1 6999.99999999999 2000.0000000000011 4999.99999999999 -25.399999999999999 0 0 I I #
point $-1 8999.9999999999909 2000.0000000000011 4999.99999999999 #
plane-surface $-1 4999.99999999999 2500 2999.9999999999886 -1 0 0 0 0 25.399999999999999 forward_v I I I I #
loop $-1 $-1 $238 $119 #
plane-surface $-1 6999.99999999999 2000.0000000000011 18999.999999999996 0 0 -1 -25.399999999999999 0 0 forward_v I I I I #
coedge $-1 $239 $240 $241 $242 reversed $120 $-1 #
coedge $-1 $243 $122 $244 $245 reversed $73 $-1 #
coedge $-1 $122 $243 $246 $247 forward $73 $-1 #
coedge $-1 $216 $201 $122 $185 forward $87 $-1 #
edge $-1 $248 1.5707963267948966 $249 3.1415926535897931 $122 $250 forward 7 unknown #
coedge $-1 $124 $123 $210 $251 reversed $39 $-1 #
coedge $-1 $252 $208 $123 $188 forward $95 $-1 #
edge $-1 $253 -1.5707963267948966 $194 0 $123 $254 forward 7 unknown #
edge $-1 $193 -3.1415926535897931 $217 -1.5707963267948966 $124 $255 forward 7 unknown #
coedge $-1 $246 $125 $216 $256 reversed $192 $-1 #
coedge $-1 $125 $246 $252 $257 forward $192 $-1 #
loop $-1 $-1 $190 $171 #
vertex $-1 $126 $258 #
vertex $-1 $126 $259 #
straight-curve $-1 2000.0000000000011 2000.0000000000011 14000.000000000007 0 25.399999999999999 0 I I #
coedge $-1 $231 $260 $127 $197 forward $174 $-1 #
edge $-1 $202 -39.370078740157503 $199 39.370078740156998 $127 $261 forward 7 unknown #
coedge $-1 $138 $128 $133 $204 forward $95 $-1 #
vertex $-1 $129 $262 #
ellipse-curve $-1 10999.999999999991 2999.9999999999886 6000.0000000000027 0 -1 -6.12303176911189e-017 -1000.0000000000006 0 0 1 I I #
coedge $-1 $184 $130 $260 $263 reversed $87 $-1 #
vertex $-1 $197 $264 #
ellipse-curve $-1 10999.999999999991 1000.0000000000006 6000.0000000000027 0 1 6.12303176911189e-017 1000.0000000000006 0 0 1 I I #
edge $-1 $136 0 $145 314.96062992126002 $133 $265 forward 7 unknown #
face $-1 $266 $134 $2 $-1 $267 reversed single #
point $-1 12000.000000000005 1000.0000000000006 6000.0000000000027 #
point $-1 12000.000000000005 2999.9999999999886 6000.0000000000027 #
coedge $-1 $187 $138 $141 $211 reversed $95 $-1 #
ellipse-curve $-1 10999.999999999991 2999.9999999999886 14000.000000000007 0 -1 -6.12303176911189e-017 -1000.0000000000006 0 0 1 I I #
coedge $-1 $141 $140 $186 $251 forward $142 $-1 #
edge $-1 $253 -157.48031496062998 $143 157.48031496062998 $208 $268 forward 7 unknown #
face $-1 $150 $142 $2 $-1 $269 reversed single #
point $-1 10999.999999999991 2999.9999999999886 14999.999999999993 #
point $-1 12000.000000000005 2999.9999999999886 14000.000000000007 #
straight-curve $-1 12000.000000000005 1000.0000000000006 6000.0000000000027 0 0 25.399999999999999 I I #
coedge $-1 $148 $184 $190 $256 forward $87 $-1 #
vertex $-1 $251 $270 #
straight-curve $-1 6999.99999999999 1000.0000000000006 14999.999999999993 -25.399999999999999 0 0 I I #
face $-1 $-1 $174 $2 $-1 $271 reversed single #
plane-surface $-1 6999.99999999999 1000.0000000000006 4999.99999999999 0 -1 0 0 0 -25.399999999999999 forward_v I I I I #
coedge $-1 $154 $153 $173 $236 reversed $155 $-1 #
coedge $-1 $157 $252 $243 $272 forward $95 $-1 #
coedge $-1 $244 $173 $157 $224 forward $174 $-1 #
edge $-1 $225 78.740157480314991 $273 157.48031496062998 $157 $274 forward 7 unknown #
vertex $-1 $158 $275 #
straight-curve $-1 4999.99999999999 2999.9999999999886 2999.9999999999886 0 0 25.399999999999999 I I #
coedge $-1 $276 $277 $278 $279 reversed $159 $-1 #
face $-1 $280 $281 $2 $-1 $282 forward single #
plane-surface $-1 6999.99999999999 2999.9999999999886 0 0 1 0 0 0 25.399999999999999 forward_v I I I I #
straight-curve $-1 4999.99999999999 2000.0000000000011 2999.9999999999886 0 0 25.399999999999999 I I #
coedge $-1 $167 $196 $166 $232 forward $174 $-1 #
edge $-1 $199 -157.48031496062998 $169 -78.74015748031502 $166 $283 forward 7 unknown #
straight-curve $-1 8999.9999999999909 2000.0000000000011 4999.99999999999 0 -25.399999999999999 0 I I #
point $-1 8999.9999999999909 2999.9999999999886 4999.99999999999 #
plane-surface $-1 2000.0000000000011 2000.0000000000011 6000.0000000000027 -1 0 0 0 0 25.399999999999999 forward_v I I I I #
edge $-1 $175 0 $225 39.370078740156998 $221 $284 forward 7 unknown #
point $-1 4999.99999999999 2000.0000000000011 4999.99999999999 #
coedge $-1 $278 $285 $286 $287 forward $179 $-1 #
coedge $-1 $288 $181 $285 $289 reversed $120 $-1 #
coedge $-1 $181 $288 $290 $291 reversed $120 $-1 #
coedge $-1 $292 $286 $181 $242 forward $293 $-1 #
edge $-1 $294 0 $295 78.74015748031502 $181 $296 forward 7 unknown #
coedge $-1 $183 $182 $222 $272 reversed $73 $-1 #
coedge $-1 $260 $223 $182 $245 forward $174 $-1 #
edge $-1 $273 -39.370078740156998 $248 39.370078740157503 $182 $297 forward 7 unknown #
coedge $-1 $191 $190 $183 $247 reversed $192 $-1 #
edge $-1 $298 -39.370078740156998 $249 39.370078740157503 $183 $299 forward 7 unknown #
vertex $-1 $185 $300 #
vertex $-1 $185 $301 #
ellipse-curve $-1 2999.9999999999886 1000.0000000000006 6000.0000000000027 0 1 6.12303176911189e-017 1000.0000000000006 0 0 1 I I #
edge $-1 $217 -39.370078740157503 $253 39.370078740156998 $186 $302 forward 7 unknown #
coedge $-1 $222 $187 $191 $257 reversed $95 $-1 #
vertex $-1 $188 $303 #
ellipse-curve $-1 2999.9999999999886 2999.9999999999886 14000.000000000007 0 -1 -6.12303176911189e-017 -1000.0000000000006 0 0 1 I I #
ellipse-curve $-1 2999.9999999999886 1000.0000000000006 14000.000000000007 0 1 6.12303176911189e-017 1000.0000000000006 0 0 1 I I #
edge $-1 $249 0 $193 314.96062992126002 $190 $304 forward 7 unknown #
edge $-1 $298 0 $194 314.96062992126002 $191 $305 forward 7 unknown #
point $-1 2000.0000000000011 1000.0000000000006 14000.000000000007 #
point $-1 2000.0000000000011 2999.9999999999886 14000.000000000007 #
coedge $-1 $196 $244 $201 $263 forward $174 $-1 #
straight-curve $-1 10999.999999999991 2000.0000000000011 4999.99999999999 0 25.399999999999999 0 I I #
point $-1 10999.999999999991 2999.9999999999886 4999.99999999999 #
edge $-1 $248 -157.48031496062998 $202 157.48031496062998 $201 $306 forward 7 unknown #
point $-1 10999.999999999991 1000.0000000000006 4999.99999999999 #
straight-curve $-1 12000.000000000005 2999.9999999999886 6000.0000000000027 0 0 25.399999999999999 I I #
face $-1 $307 $308 $2 $-1 $309 forward single #
plane-surface $-1 12000.000000000005 2000.0000000000011 6000.0000000000027 1 0 0 0 0 -25.399999999999999 forward_v I I I I #
straight-curve $-1 6999.99999999999 2999.9999999999886 14999.999999999993 25.399999999999999 0 0 I I #
plane-surface $-1 6999.99999999999 2000.0000000000011 14999.999999999993 0 0 1 25.399999999999999 0 0 forward_v I I I I #
point $-1 2999.9999999999886 1000.0000000000006 14999.999999999993 #
plane-surface $-1 6999.99999999999 2000.0000000000011 4999.99999999999 0 0 -1 -25.399999999999999 0 0 forward_v I I I I #
edge $-1 $298 0 $273 1.5707963267948966 $243 $310 forward 7 unknown #
vertex $-1 $245 $311 #
straight-curve $-1 6999.99999999999 2999.9999999999886 4999.99999999999 -25.399999999999999 0 0 I I #
point $-1 4999.99999999999 2999.9999999999886 4999.99999999999 #
coedge $-1 $312 $227 $313 $314 reversed $159 $-1 #
coedge $-1 $227 $312 $315 $316 forward $159 $-1 #
coedge $-1 $317 $238 $227 $279 forward $179 $-1 #
edge $-1 $318 -275.59055118110302 $319 275.590551181102 $278 $320 forward 7 unknown #
face $-1 $212 $293 $2 $-1 $321 forward single #
loop $-1 $-1 $322 $228 #
plane-surface $-1 6999.99999999999 1499.9999999999993 0 0 0 -1 -25.399999999999999 0 0 forward_v I I I I #
straight-curve $-1 6999.99999999999 2999.9999999999886 4999.99999999999 -25.399999999999999 0 0 I I #
straight-curve $-1 4999.99999999999 2000.0000000000011 4999.99999999999 0 25.399999999999999 0 I I #
coedge $-1 $238 $317 $239 $289 forward $179 $-1 #
coedge $-1 $241 $313 $238 $287 reversed $293 $-1 #
edge $-1 $294 -39.370078740157503 $318 39.370078740156998 $238 $323 forward 7 unknown #
coedge $-1 $240 $239 $324 $325 forward $120 $-1 #
edge $-1 $326 -275.590551181102 $294 275.59055118110302 $239 $327 forward 7 unknown #
coedge $-1 $328 $329 $240 $291 forward $308 $-1 #
edge $-1 $295 -275.59055118110302 $330 275.590551181102 $240 $331 forward 7 unknown #
coedge $-1 $332 $241 $329 $333 forward $293 $-1 #
loop $-1 $-1 $241 $280 #
vertex $-1 $242 $334 #
vertex $-1 $242 $335 #
straight-curve $-1 14000.000000000007 1000.0000000000006 18999.999999999996 0 0 25.399999999999999 I I #
straight-curve $-1 2999.9999999999886 2000.0000000000011 4999.99999999999 0 -25.399999999999999 0 I I #
vertex $-1 $272 $336 #
straight-curve $-1 2000.0000000000011 2000.0000000000011 6000.0000000000027 0 -25.399999999999999 0 I I #
point $-1 2999.9999999999886 1000.0000000000006 4999.99999999999 #
point $-1 2000.0000000000011 1000.0000000000006 6000.0000000000027 #
straight-curve $-1 2999.9999999999886 2000.0000000000011 14999.999999999993 0 25.399999999999999 0 I I #
point $-1 2999.9999999999886 2999.9999999999886 14999.999999999993 #
straight-curve $-1 2000.0000000000011 1000.0000000000006 6000.0000000000027 0 0 25.399999999999999 I I #
straight-curve $-1 2000.0000000000011 2999.9999999999886 6000.0000000000027 0 0 25.399999999999999 I I #
straight-curve $-1 6999.99999999999 1000.0000000000006 4999.99999999999 25.399999999999999 0 0 I I #
face $-1 $337 $338 $2 $-1 $339 forward single #
loop $-1 $-1 $290 $266 #
plane-surface $-1 6999.99999999999 1499.9999999999993 20999.999999999996 0 0 1 25.399999999999999 0 0 forward_v I I I I #
ellipse-curve $-1 2999.9999999999886 2999.9999999999886 6000.0000000000027 0 -1 -6.12303176911189e-017 -1000.0000000000006 0 0 1 I I #
point $-1 2999.9999999999886 2999.9999999999886 4999.99999999999 #
coedge $-1 $277 $276 $340 $341 forward $159 $-1 #
coedge $-1 $286 $342 $276 $314 forward $293 $-1 #
edge $-1 $343 0 $318 748.03149606299201 $276 $344 forward 7 unknown #
coedge $-1 $345 $346 $277 $316 reversed $347 $-1 #
edge $-1 $348 0 $319 748.03149606299201 $315 $349 forward 7 unknown #
coedge $-1 $285 $278 $346 $350 forward $179 $-1 #
vertex $-1 $287 $351 #
vertex $-1 $279 $352 #
straight-curve $-1 6999.99999999999 2999.9999999999886 18999.999999999996 -25.399999999999999 0 0 I I #
plane-surface $-1 14000.000000000007 1499.9999999999993 0 1 0 0 0 0 -25.399999999999999 forward_v I I I I #
coedge $-1 $353 $340 $342 $354 reversed $281 $-1 #
straight-curve $-1 14000.000000000007 2000.0000000000011 18999.999999999996 0 25.399999999999999 0 I I #
coedge $-1 $346 $355 $288 $325 reversed $347 $-1 #
edge $-1 $326 0 $330 78.74015748031502 $288 $356 forward 7 unknown #
vertex $-1 $289 $357 #
straight-curve $-1 6999.99999999999 1000.0000000000006 18999.999999999996 25.399999999999999 0 0 I I #
coedge $-1 $358 $290 $355 $359 reversed $308 $-1 #
coedge $-1 $290 $358 $292 $333 reversed $308 $-1 #
vertex $-1 $325 $360 #
straight-curve $-1 6999.99999999999 1000.0000000000006 20999.999999999996 -25.399999999999999 0 0 I I #
coedge $-1 $342 $292 $361 $362 reversed $293 $-1 #
edge $-1 $295 19.685039370078698 $363 59.055118110236201 $329 $364 forward 7 unknown #
point $-1 14000.000000000007 1000.0000000000006 18999.999999999996 #
point $-1 14000.000000000007 1000.0000000000006 20999.999999999996 #
point $-1 2000.0000000000011 2999.9999999999886 6000.0000000000027 #
face $-1 $160 $347 $2 $-1 $365 forward single #
loop $-1 $-1 $361 $307 #
plane-surface $-1 6999.99999999999 0 0 0 -1 0 0 0 -25.399999999999999 forward_v I I I I #
coedge $-1 $322 $366 $312 $341 reversed $281 $-1 #
edge $-1 $343 -275.59055118110302 $348 275.590551181102 $312 $367 forward 7 unknown #
coedge $-1 $313 $332 $322 $354 forward $293 $-1 #
vertex $-1 $314 $368 #
straight-curve $-1 14000.000000000007 2999.9999999999886 0 0 0 25.399999999999999 I I #
coedge $-1 $369 $315 $366 $370 forward $347 $-1 #
coedge $-1 $315 $324 $317 $350 reversed $347 $-1 #
loop $-1 $-1 $324 $337 #
vertex $-1 $316 $371 #
straight-curve $-1 0 2999.9999999999886 0 0 0 25.399999999999999 I I #
edge $-1 $319 -39.370078740156998 $326 39.370078740157503 $317 $372 forward 7 unknown #
point $-1 14000.000000000007 2999.9999999999886 18999.999999999996 #
point $-1 0 2999.9999999999886 18999.999999999996 #
coedge $-1 $366 $322 $373 $374 reversed $281 $-1 #
edge $-1 $375 -59.055118110236201 $343 59.055118110235803 $322 $376 forward 7 unknown #
coedge $-1 $324 $369 $328 $359 forward $347 $-1 #
straight-curve $-1 0 1000.0000000000006 18999.999999999996 0 0 25.399999999999999 I I #
point $-1 0 1000.0000000000006 18999.999999999996 #
coedge $-1 $329 $328 $377 $378 reversed $308 $-1 #
edge $-1 $379 -59.055118110236201 $330 -19.685039370078698 $328 $380 forward 7 unknown #
point $-1 0 1000.0000000000006 20999.999999999996 #
coedge $-1 $377 $373 $332 $362 forward $338 $-1 #
edge $-1 $375 0 $363 826.77165354330702 $361 $381 forward 7 unknown #
vertex $-1 $378 $382 #
straight-curve $-1 14000.000000000007 1499.9999999999993 20999.999999999996 0 -25.399999999999999 0 I I #
plane-surface $-1 0 1499.9999999999993 0 -1 0 0 0 0 25.399999999999999 forward_v I I I I #
coedge $-1 $340 $353 $345 $370 reversed $281 $-1 #
straight-curve $-1 6999.99999999999 2999.9999999999886 0 -25.399999999999999 0 0 I I #
point $-1 14000.000000000007 2999.9999999999886 0 #
coedge $-1 $355 $345 $383 $384 forward $347 $-1 #
edge $-1 $348 -59.055118110235803 $385 59.055118110236201 $345 $386 forward 7 unknown #
point $-1 0 2999.9999999999886 0 #
straight-curve $-1 0 2000.0000000000011 18999.999999999996 0 -25.399999999999999 0 I I #
coedge $-1 $361 $383 $353 $374 forward $338 $-1 #
edge $-1 $385 -275.590551181102 $375 275.59055118110302 $373 $387 forward 7 unknown #
vertex $-1 $362 $388 #
straight-curve $-1 14000.000000000007 1499.9999999999993 0 0 25.399999999999999 0 I I #
coedge $-1 $383 $361 $358 $378 forward $338 $-1 #
edge $-1 $363 -275.59055118110302 $379 275.590551181102 $358 $389 forward 7 unknown #
vertex $-1 $359 $390 #
straight-curve $-1 0 1499.9999999999993 20999.999999999996 0 25.399999999999999 0 I I #
straight-curve $-1 14000.000000000007 0 0 0 0 25.399999999999999 I I #
point $-1 14000.000000000007 0 20999.999999999996 #
coedge $-1 $373 $377 $369 $384 reversed $338 $-1 #
edge $-1 $385 0 $379 826.77165354330702 $383 $391 forward 7 unknown #
vertex $-1 $384 $392 #
straight-curve $-1 0 1499.9999999999993 0 0 -25.399999999999999 0 I I #
straight-curve $-1 6999.99999999999 0 0 25.399999999999999 0 0 I I #
point $-1 14000.000000000007 0 0 #
straight-curve $-1 6999.99999999999 0 20999.999999999996 -25.399999999999999 0 0 I I #
point $-1 0 0 20999.999999999996 #
straight-curve $-1 0 0 0 0 0 25.399999999999999 I I #
point $-1 0 0 0 #
End-of-ACIS-data 