105 393 1 0                             
body $-1 $1 $-1 $-1 #
lump $-1 $-1 $2 $0 #
shell $-1 $-1 $-1 $3 $1 #
face $-1 $4 $5 $2 $-1 $6 reversed single #
face $-1 $7 $8 $2 $-1 $9 reversed single #
loop $-1 $-1 $10 $3 #
cone-surface $-1 314.96062992126 78.740157480315 118.110236220472 0 1 6.12303176911189e-17 39.3700787401575 -0 0 1 0 1 0 #
face $-1 $11 $12 $2 $-1 $13 reversed single #
loop $-1 $-1 $14 $4 #
cone-surface $-1 236.220472440945 78.740157480315 118.110236220472 0 1 6.12303176911189e-17 39.3700787401575 -0 0 1 0 1 0 #
coedge $-1 $15 $16 $17 $18 1 $5 $-1 #
face $-1 $19 $20 $2 $-1 $21 reversed single #
loop $-1 $-1 $22 $7 #
cone-surface $-1 433.070866141732 39.3700787401575 551.181102362205 0 1 6.12303176911189e-17 39.3700787401575 -0 0 1 0 1 0 #
coedge $-1 $23 $24 $25 $26 1 $8 $-1 #
coedge $-1 $27 $10 $28 $29 0 $5 $-1 #
coedge $-1 $10 $27 $30 $31 1 $5 $-1 #
coedge $-1 $32 $33 $10 $18 0 $34 $-1 #
edge $-1 $35 $36 $10 $37 0 #
face $-1 $38 $39 $2 $-1 $40 reversed single #
loop $-1 $-1 $41 $11 #
cone-surface $-1 433.070866141732 39.3700787401575 236.220472440945 0 1 6.12303176911189e-17 39.3700787401575 -0 0 1 0 1 0 #
coedge $-1 $42 $43 $44 $45 1 $12 $-1 #
coedge $-1 $46 $14 $47 $48 0 $8 $-1 #
coedge $-1 $14 $46 $49 $50 1 $8 $-1 #
coedge $-1 $51 $52 $14 $26 0 $53 $-1 #
edge $-1 $54 $55 $14 $56 0 #
coedge $-1 $16 $15 $57 $58 0 $5 $-1 #
coedge $-1 $59 $60 $15 $29 1 $61 $-1 #
edge $-1 $35 $62 $15 $63 0 #
coedge $-1 $52 $51 $16 $31 0 $53 $-1 #
edge $-1 $36 $64 $16 $65 0 #
coedge $-1 $49 $17 $51 $66 1 $34 $-1 #
coedge $-1 $17 $67 $59 $68 1 $34 $-1 #
loop $-1 $-1 $33 $69 #
vertex $-1 $18 $70 #
vertex $-1 $18 $71 #
ellipse-curve $-1 314.96062992126 78.740157480315 118.110236220472 0 1 6.12303176911189e-17 27.8388496530137 1.70458160840932e-15 -27.8388496530137 1 #
face $-1 $72 $73 $2 $-1 $74 reversed single #
loop $-1 $-1 $75 $19 #
cone-surface $-1 118.110236220472 39.3700787401575 551.181102362205 0 1 6.12303176911189e-17 39.3700787401575 -0 0 1 0 1 0 #
coedge $-1 $76 $77 $78 $79 0 $20 $-1 #
coedge $-1 $80 $22 $81 $82 1 $12 $-1 #
coedge $-1 $22 $80 $83 $84 0 $12 $-1 #
coedge $-1 $85 $86 $22 $45 0 $87 $-1 #
edge $-1 $88 $89 $22 $90 0 #
coedge $-1 $24 $23 $91 $92 0 $8 $-1 #
coedge $-1 $93 $94 $23 $48 1 $95 $-1 #
edge $-1 $54 $96 $23 $97 0 #
coedge $-1 $98 $32 $24 $50 0 $34 $-1 #
edge $-1 $55 $99 $24 $100 0 #
coedge $-1 $30 $25 $32 $66 0 $53 $-1 #
coedge $-1 $25 $30 $93 $101 0 $53 $-1 #
loop $-1 $-1 $30 $102 #
vertex $-1 $26 $103 #
vertex $-1 $26 $104 #
straight-curve $-1 236.220472440945 98.4251968503937 78.740157480315 0 -1 0 #
coedge $-1 $105 $93 $27 $58 1 $95 $-1 #
edge $-1 $62 $64 $27 $106 0 #
coedge $-1 $107 $28 $33 $68 0 $61 $-1 #
coedge $-1 $28 $107 $105 $108 1 $61 $-1 #
loop $-1 $-1 $60 $109 #
vertex $-1 $29 $110 #
straight-curve $-1 354.330708661417 98.4251968503937 118.110236220472 0 1 0 #
vertex $-1 $58 $111 #
straight-curve $-1 314.96062992126 98.4251968503937 78.740157480315 0 1 0 #
edge $-1 $55 $36 $51 $112 0 #
coedge $-1 $33 $98 $113 $114 1 $34 $-1 #
edge $-1 $35 $115 $33 $116 0 #
face $-1 $117 $34 $2 $-1 $118 reversed single #
point $-1 354.330708661417 78.740157480315 118.110236220472 #
point $-1 314.96062992126 78.740157480315 78.740157480315 #
face $-1 $119 $120 $2 $-1 $121 reversed single #
loop $-1 $-1 $122 $38 #
cone-surface $-1 118.110236220472 39.3700787401575 236.220472440945 0 1 6.12303176911189e-17 39.3700787401575 -0 0 1 0 1 0 #
coedge $-1 $123 $124 $125 $126 0 $39 $-1 #
coedge $-1 $127 $41 $128 $129 1 $20 $-1 #
coedge $-1 $41 $127 $130 $131 1 $20 $-1 #
coedge $-1 $132 $133 $41 $79 1 $134 $-1 #
edge $-1 $135 $136 $41 $137 0 #
coedge $-1 $43 $42 $138 $139 1 $12 $-1 #
coedge $-1 $140 $141 $42 $82 0 $142 $-1 #
edge $-1 $143 $88 $42 $144 0 #
coedge $-1 $133 $132 $43 $84 1 $134 $-1 #
edge $-1 $145 $89 $43 $146 0 #
coedge $-1 $130 $44 $132 $147 1 $87 $-1 #
coedge $-1 $44 $148 $140 $149 1 $87 $-1 #
loop $-1 $-1 $86 $150 #
vertex $-1 $45 $151 #
vertex $-1 $45 $152 #
ellipse-curve $-1 433.070866141732 39.3700787401575 551.181102362205 0 1 6.12303176911189e-17 27.8388496530137 -1.70458160840932e-15 27.8388496530137 1 #
coedge $-1 $153 $154 $46 $92 1 $155 $-1 #
edge $-1 $96 $99 $46 $156 0 #
coedge $-1 $57 $47 $52 $101 1 $95 $-1 #
coedge $-1 $47 $157 $153 $158 1 $95 $-1 #
loop $-1 $159 $57 $160 #
vertex $-1 $48 $161 #
ellipse-curve $-1 236.220472440945 118.110236220472 118.110236220472 0 1 0 -27.8388496530137 0 -27.8388496530137 1 #
coedge $-1 $67 $49 $154 $162 0 $34 $-1 #
vertex $-1 $92 $163 #
ellipse-curve $-1 236.220472440945 78.740157480315 118.110236220472 0 1 6.12303176911189e-17 -27.8388496530137 1.70458160840932e-15 -27.8388496530137 1 #
edge $-1 $64 $54 $52 $164 0 #
face $-1 $69 $53 $2 $-1 $165 reversed single #
point $-1 236.220472440945 118.110236220472 78.740157480315 #
point $-1 236.220472440945 78.740157480315 78.740157480315 #
coedge $-1 $166 $57 $60 $108 0 $95 $-1 #
ellipse-curve $-1 314.96062992126 118.110236220472 118.110236220472 0 1 0 27.8388496530137 0 -27.8388496530137 1 #
coedge $-1 $60 $59 $167 $168 1 $61 $-1 #
edge $-1 $62 $169 $60 $170 0 #
face $-1 $171 $61 $2 $-1 $172 reversed single #
point $-1 354.330708661417 118.110236220472 118.110236220472 #
point $-1 314.96062992126 118.110236220472 78.740157480315 #
straight-curve $-1 275.590551181102 78.740157480315 78.740157480315 1 0 0 #
coedge $-1 $173 $167 $67 $114 0 $174 $-1 #
edge $-1 $115 $175 $67 $176 0 #
vertex $-1 $68 $177 #
straight-curve $-1 354.330708661417 78.740157480315 118.110236220472 0 0 1 #
face $-1 $109 $155 $2 $-1 $178 reversed single #
plane-surface $-1 275.590551181102 78.740157480315 118.110236220472 0 -1 0 0 0 -1 0 #
face $-1 $102 $179 $2 $-1 $180 reversed single #
loop $-1 $-1 $181 $72 #
plane-surface $-1 275.590551181102 39.3700787401575 748.031496062992 0 -1 0 0 0 -1 0 #
coedge $-1 $182 $183 $184 $185 1 $73 $-1 #
coedge $-1 $186 $75 $187 $188 1 $39 $-1 #
coedge $-1 $75 $186 $148 $189 1 $39 $-1 #
coedge $-1 $190 $191 $75 $126 1 $192 $-1 #
edge $-1 $193 $194 $75 $195 0 #
coedge $-1 $77 $76 $196 $197 1 $20 $-1 #
coedge $-1 $198 $166 $76 $129 0 $95 $-1 #
edge $-1 $199 $136 $76 $200 0 #
coedge $-1 $201 $85 $77 $131 0 $87 $-1 #
edge $-1 $135 $202 $77 $203 0 #
coedge $-1 $83 $78 $85 $147 0 $134 $-1 #
coedge $-1 $78 $83 $198 $204 1 $134 $-1 #
loop $-1 $-1 $78 $205 #
vertex $-1 $79 $206 #
vertex $-1 $79 $207 #
straight-curve $-1 472.44094488189 78.740157480315 236.220472440945 0 1 0 #
coedge $-1 $208 $198 $80 $139 0 $95 $-1 #
edge $-1 $145 $143 $80 $209 0 #
coedge $-1 $210 $81 $86 $149 0 $142 $-1 #
coedge $-1 $81 $210 $208 $211 0 $142 $-1 #
loop $-1 $-1 $140 $212 #
vertex $-1 $82 $213 #
straight-curve $-1 433.070866141732 78.740157480315 590.551181102362 0 -1 0 #
vertex $-1 $139 $214 #
straight-curve $-1 472.44094488189 78.740157480315 551.181102362205 0 -1 0 #
edge $-1 $135 $89 $132 $215 0 #
coedge $-1 $86 $216 $124 $189 0 $87 $-1 #
edge $-1 $88 $217 $140 $218 0 #
face $-1 $219 $87 $2 $-1 $220 reversed single #
point $-1 433.070866141732 39.3700787401575 590.551181102362 #
point $-1 472.44094488189 39.3700787401575 551.181102362205 #
coedge $-1 $221 $91 $94 $158 0 $155 $-1 #
coedge $-1 $91 $221 $98 $162 1 $155 $-1 #
loop $-1 $-1 $154 $117 #
straight-curve $-1 196.850393700787 98.4251968503937 118.110236220472 0 -1 0 #
coedge $-1 $94 $222 $223 $224 1 $95 $-1 #
edge $-1 $96 $225 $153 $226 0 #
loop $-1 $-1 $227 $160 #
face $-1 $228 $95 $2 $-1 $229 forward single #
point $-1 196.850393700787 118.110236220472 118.110236220472 #
edge $-1 $99 $175 $98 $230 0 #
point $-1 196.850393700787 78.740157480315 118.110236220472 #
straight-curve $-1 275.590551181102 118.110236220472 78.740157480315 -1 0 0 #
plane-surface $-1 275.590551181102 98.4251968503937 78.740157480315 0 0 -1 -1 0 0 0 #
coedge $-1 $128 $105 $231 $232 1 $95 $-1 #
coedge $-1 $113 $231 $107 $168 0 $174 $-1 #
edge $-1 $169 $115 $107 $233 0 #
vertex $-1 $108 $234 #
straight-curve $-1 354.330708661417 118.110236220472 118.110236220472 0 0 1 #
face $-1 $205 $192 $2 $-1 $235 reversed single #
plane-surface $-1 354.330708661417 98.4251968503937 118.110236220472 1 0 0 0 0 -1 0 #
coedge $-1 $223 $113 $221 $236 0 $174 $-1 #
loop $-1 $-1 $113 $219 #
vertex $-1 $162 $237 #
straight-curve $-1 275.590551181102 78.740157480315 196.850393700787 -1 0 0 #
point $-1 354.330708661417 78.740157480315 196.850393700787 #
plane-surface $-1 196.850393700787 98.4251968503937 118.110236220472 -1 0 0 0 -0 1 0 #
loop $-1 $-1 $238 $119 #
plane-surface $-1 275.590551181102 78.740157480315 748.031496062992 0 0 -1 -1 0 0 0 #
coedge $-1 $239 $240 $241 $242 1 $120 $-1 #
coedge $-1 $243 $122 $244 $245 1 $73 $-1 #
coedge $-1 $122 $243 $246 $247 0 $73 $-1 #
coedge $-1 $216 $201 $122 $185 0 $87 $-1 #
edge $-1 $248 $249 $122 $250 0 #
coedge $-1 $124 $123 $210 $251 1 $39 $-1 #
coedge $-1 $252 $208 $123 $188 0 $95 $-1 #
edge $-1 $253 $194 $123 $254 0 #
edge $-1 $193 $217 $124 $255 0 #
coedge $-1 $246 $125 $216 $256 1 $192 $-1 #
coedge $-1 $125 $246 $252 $257 0 $192 $-1 #
loop $-1 $-1 $190 $171 #
vertex $-1 $126 $258 #
vertex $-1 $126 $259 #
straight-curve $-1 78.740157480315 78.740157480315 551.181102362205 0 1 0 #
coedge $-1 $231 $260 $127 $197 0 $174 $-1 #
edge $-1 $202 $199 $127 $261 0 #
coedge $-1 $138 $128 $133 $204 0 $95 $-1 #
vertex $-1 $129 $262 #
ellipse-curve $-1 433.070866141732 118.110236220472 236.220472440945 0 -1 -6.12303176911189e-17 27.8388496530137 1.70458160840932e-15 -27.8388496530137 1 #
coedge $-1 $184 $130 $260 $263 1 $87 $-1 #
vertex $-1 $197 $264 #
ellipse-curve $-1 433.070866141732 39.3700787401575 236.220472440945 0 1 6.12303176911189e-17 27.8388496530137 1.70458160840932e-15 -27.8388496530137 1 #
edge $-1 $136 $145 $133 $265 0 #
face $-1 $266 $134 $2 $-1 $267 reversed single #
point $-1 472.44094488189 39.3700787401575 236.220472440945 #
point $-1 472.44094488189 118.110236220472 236.220472440945 #
coedge $-1 $187 $138 $141 $211 1 $95 $-1 #
ellipse-curve $-1 433.070866141732 118.110236220472 551.181102362205 0 -1 -6.12303176911189e-17 27.8388496530137 -1.70458160840932e-15 27.8388496530137 1 #
coedge $-1 $141 $140 $186 $251 0 $142 $-1 #
edge $-1 $253 $143 $208 $268 0 #
face $-1 $150 $142 $2 $-1 $269 reversed single #
point $-1 433.070866141732 118.110236220472 590.551181102362 #
point $-1 472.44094488189 118.110236220472 551.181102362205 #
straight-curve $-1 472.44094488189 39.3700787401575 236.220472440945 0 0 1 #
coedge $-1 $148 $184 $190 $256 0 $87 $-1 #
vertex $-1 $251 $270 #
straight-curve $-1 275.590551181102 39.3700787401575 590.551181102362 -1 0 0 #
face $-1 $-1 $174 $2 $-1 $271 reversed single #
plane-surface $-1 275.590551181102 39.3700787401575 196.850393700787 0 -1 0 0 0 -1 0 #
coedge $-1 $154 $153 $173 $236 1 $155 $-1 #
coedge $-1 $157 $252 $243 $272 0 $95 $-1 #
coedge $-1 $244 $173 $157 $224 0 $174 $-1 #
edge $-1 $225 $273 $157 $274 0 #
vertex $-1 $158 $275 #
straight-curve $-1 196.850393700787 118.110236220472 118.110236220472 0 0 1 #
coedge $-1 $276 $277 $278 $279 1 $159 $-1 #
face $-1 $280 $281 $2 $-1 $282 forward single #
plane-surface $-1 275.590551181102 118.110236220472 0 0 1 0 0 0 1 0 #
straight-curve $-1 196.850393700787 78.740157480315 118.110236220472 0 0 1 #
coedge $-1 $167 $196 $166 $232 0 $174 $-1 #
edge $-1 $199 $169 $166 $283 0 #
straight-curve $-1 354.330708661417 78.740157480315 196.850393700787 0 -1 0 #
point $-1 354.330708661417 118.110236220472 196.850393700787 #
plane-surface $-1 78.740157480315 78.740157480315 236.220472440945 -1 0 0 0 -0 1 0 #
edge $-1 $175 $225 $221 $284 0 #
point $-1 196.850393700787 78.740157480315 196.850393700787 #
coedge $-1 $278 $285 $286 $287 0 $179 $-1 #
coedge $-1 $288 $181 $285 $289 1 $120 $-1 #
coedge $-1 $181 $288 $290 $291 1 $120 $-1 #
coedge $-1 $292 $286 $181 $242 0 $293 $-1 #
edge $-1 $294 $295 $181 $296 0 #
coedge $-1 $183 $182 $222 $272 1 $73 $-1 #
coedge $-1 $260 $223 $182 $245 0 $174 $-1 #
edge $-1 $273 $248 $182 $297 0 #
coedge $-1 $191 $190 $183 $247 1 $192 $-1 #
edge $-1 $298 $249 $183 $299 0 #
vertex $-1 $185 $300 #
vertex $-1 $185 $301 #
ellipse-curve $-1 118.110236220472 39.3700787401575 236.220472440945 0 1 6.12303176911189e-17 -27.8388496530137 1.70458160840932e-15 -27.8388496530137 1 #
edge $-1 $217 $253 $186 $302 0 #
coedge $-1 $222 $187 $191 $257 1 $95 $-1 #
vertex $-1 $188 $303 #
ellipse-curve $-1 118.110236220472 118.110236220472 551.181102362205 0 -1 -6.12303176911189e-17 -27.8388496530137 -1.70458160840932e-15 27.8388496530137 1 #
ellipse-curve $-1 118.110236220472 39.3700787401575 551.181102362205 0 1 6.12303176911189e-17 -27.8388496530137 -1.70458160840932e-15 27.8388496530137 1 #
edge $-1 $249 $193 $190 $304 0 #
edge $-1 $298 $194 $191 $305 0 #
point $-1 78.740157480315 39.3700787401575 551.181102362205 #
point $-1 78.740157480315 118.110236220472 551.181102362205 #
coedge $-1 $196 $244 $201 $263 0 $174 $-1 #
straight-curve $-1 433.070866141732 78.740157480315 196.850393700787 0 1 0 #
point $-1 433.070866141732 118.110236220472 196.850393700787 #
edge $-1 $248 $202 $201 $306 0 #
point $-1 433.070866141732 39.3700787401575 196.850393700787 #
straight-curve $-1 472.44094488189 118.110236220472 236.220472440945 0 0 1 #
face $-1 $307 $308 $2 $-1 $309 forward single #
plane-surface $-1 472.44094488189 78.740157480315 236.220472440945 1 0 0 0 0 -1 0 #
straight-curve $-1 275.590551181102 118.110236220472 590.551181102362 1 0 0 #
plane-surface $-1 275.590551181102 78.740157480315 590.551181102362 0 0 1 1 0 0 0 #
point $-1 118.110236220472 39.3700787401575 590.551181102362 #
plane-surface $-1 275.590551181102 78.740157480315 196.850393700787 0 0 -1 -1 0 0 0 #
edge $-1 $298 $273 $243 $310 0 #
vertex $-1 $245 $311 #
straight-curve $-1 275.590551181102 118.110236220472 196.850393700787 -1 0 0 #
point $-1 196.850393700787 118.110236220472 196.850393700787 #
coedge $-1 $312 $227 $313 $314 1 $159 $-1 #
coedge $-1 $227 $312 $315 $316 0 $159 $-1 #
coedge $-1 $317 $238 $227 $279 0 $179 $-1 #
edge $-1 $318 $319 $278 $320 0 #
face $-1 $212 $293 $2 $-1 $321 forward single #
loop $-1 $-1 $322 $228 #
plane-surface $-1 275.590551181102 59.0551181102362 0 0 0 -1 -1 0 0 0 #
straight-curve $-1 275.590551181102 118.110236220472 196.850393700787 -1 0 0 #
straight-curve $-1 196.850393700787 78.740157480315 196.850393700787 0 1 0 #
coedge $-1 $238 $317 $239 $289 0 $179 $-1 #
coedge $-1 $241 $313 $238 $287 1 $293 $-1 #
edge $-1 $294 $318 $238 $323 0 #
coedge $-1 $240 $239 $324 $325 0 $120 $-1 #
edge $-1 $326 $294 $239 $327 0 #
coedge $-1 $328 $329 $240 $291 0 $308 $-1 #
edge $-1 $295 $330 $240 $331 0 #
coedge $-1 $332 $241 $329 $333 0 $293 $-1 #
loop $-1 $-1 $241 $280 #
vertex $-1 $242 $334 #
vertex $-1 $242 $335 #
straight-curve $-1 551.181102362205 39.3700787401575 748.031496062992 0 0 1 #
straight-curve $-1 118.110236220472 78.740157480315 196.850393700787 0 -1 0 #
vertex $-1 $272 $336 #
straight-curve $-1 78.740157480315 78.740157480315 236.220472440945 0 -1 0 #
point $-1 118.110236220472 39.3700787401575 196.850393700787 #
point $-1 78.740157480315 39.3700787401575 236.220472440945 #
straight-curve $-1 118.110236220472 78.740157480315 590.551181102362 0 1 0 #
point $-1 118.110236220472 118.110236220472 590.551181102362 #
straight-curve $-1 78.740157480315 39.3700787401575 236.220472440945 0 0 1 #
straight-curve $-1 78.740157480315 118.110236220472 236.220472440945 0 0 1 #
straight-curve $-1 275.590551181102 39.3700787401575 196.850393700787 1 0 0 #
face $-1 $337 $338 $2 $-1 $339 forward single #
loop $-1 $-1 $290 $266 #
plane-surface $-1 275.590551181102 59.0551181102362 826.771653543307 0 0 1 1 0 0 0 #
ellipse-curve $-1 118.110236220472 118.110236220472 236.220472440945 0 -1 -6.12303176911189e-17 -27.8388496530137 1.70458160840932e-15 -27.8388496530137 1 #
point $-1 118.110236220472 118.110236220472 196.850393700787 #
coedge $-1 $277 $276 $340 $341 0 $159 $-1 #
coedge $-1 $286 $342 $276 $314 0 $293 $-1 #
edge $-1 $343 $318 $276 $344 0 #
coedge $-1 $345 $346 $277 $316 1 $347 $-1 #
edge $-1 $348 $319 $315 $349 0 #
coedge $-1 $285 $278 $346 $350 0 $179 $-1 #
vertex $-1 $287 $351 #
vertex $-1 $279 $352 #
straight-curve $-1 275.590551181102 118.110236220472 748.031496062992 -1 0 0 #
plane-surface $-1 551.181102362205 59.0551181102362 0 1 0 0 0 0 -1 0 #
coedge $-1 $353 $340 $342 $354 1 $281 $-1 #
straight-curve $-1 551.181102362205 78.740157480315 748.031496062992 0 1 0 #
coedge $-1 $346 $355 $288 $325 1 $347 $-1 #
edge $-1 $326 $330 $288 $356 0 #
vertex $-1 $289 $357 #
straight-curve $-1 275.590551181102 39.3700787401575 748.031496062992 1 0 0 #
coedge $-1 $358 $290 $355 $359 1 $308 $-1 #
coedge $-1 $290 $358 $292 $333 1 $308 $-1 #
vertex $-1 $325 $360 #
straight-curve $-1 275.590551181102 39.3700787401575 826.771653543307 -1 0 0 #
coedge $-1 $342 $292 $361 $362 1 $293 $-1 #
edge $-1 $295 $363 $329 $364 0 #
point $-1 551.181102362205 39.3700787401575 748.031496062992 #
point $-1 551.181102362205 39.3700787401575 826.771653543307 #
point $-1 78.740157480315 118.110236220472 236.220472440945 #
face $-1 $160 $347 $2 $-1 $365 forward single #
loop $-1 $-1 $361 $307 #
plane-surface $-1 275.590551181102 0 0 0 -1 0 0 0 -1 0 #
coedge $-1 $322 $366 $312 $341 1 $281 $-1 #
edge $-1 $343 $348 $312 $367 0 #
coedge $-1 $313 $332 $322 $354 0 $293 $-1 #
vertex $-1 $314 $368 #
straight-curve $-1 551.181102362205 118.110236220472 0 0 0 1 #
coedge $-1 $369 $315 $366 $370 0 $347 $-1 #
coedge $-1 $315 $324 $317 $350 1 $347 $-1 #
loop $-1 $-1 $324 $337 #
vertex $-1 $316 $371 #
straight-curve $-1 0 118.110236220472 0 0 0 1 #
edge $-1 $319 $326 $317 $372 0 #
point $-1 551.181102362205 118.110236220472 748.031496062992 #
point $-1 0 118.110236220472 748.031496062992 #
coedge $-1 $366 $322 $373 $374 1 $281 $-1 #
edge $-1 $375 $343 $322 $376 0 #
coedge $-1 $324 $369 $328 $359 0 $347 $-1 #
straight-curve $-1 0 39.3700787401575 748.031496062992 0 0 1 #
point $-1 0 39.3700787401575 748.031496062992 #
coedge $-1 $329 $328 $377 $378 1 $308 $-1 #
edge $-1 $379 $330 $328 $380 0 #
point $-1 0 39.3700787401575 826.771653543307 #
coedge $-1 $377 $373 $332 $362 0 $338 $-1 #
edge $-1 $375 $363 $361 $381 0 #
vertex $-1 $378 $382 #
straight-curve $-1 551.181102362205 59.0551181102362 826.771653543307 0 -1 0 #
plane-surface $-1 0 59.0551181102362 0 -1 0 0 0 -0 1 0 #
coedge $-1 $340 $353 $345 $370 1 $281 $-1 #
straight-curve $-1 275.590551181102 118.110236220472 0 -1 0 0 #
point $-1 551.181102362205 118.110236220472 0 #
coedge $-1 $355 $345 $383 $384 0 $347 $-1 #
edge $-1 $348 $385 $345 $386 0 #
point $-1 0 118.110236220472 0 #
straight-curve $-1 0 78.740157480315 748.031496062992 0 -1 0 #
coedge $-1 $361 $383 $353 $374 0 $338 $-1 #
edge $-1 $385 $375 $373 $387 0 #
vertex $-1 $362 $388 #
straight-curve $-1 551.181102362205 59.0551181102362 0 0 1 0 #
coedge $-1 $383 $361 $358 $378 0 $338 $-1 #
edge $-1 $363 $379 $358 $389 0 #
vertex $-1 $359 $390 #
straight-curve $-1 0 59.0551181102362 826.771653543307 0 1 0 #
straight-curve $-1 551.181102362205 0 0 0 0 1 #
point $-1 551.181102362205 0 826.771653543307 #
coedge $-1 $373 $377 $369 $384 1 $338 $-1 #
edge $-1 $385 $379 $383 $391 0 #
vertex $-1 $384 $392 #
straight-curve $-1 0 59.0551181102362 0 0 -1 0 #
straight-curve $-1 275.590551181102 0 0 1 0 0 #
point $-1 551.181102362205 0 0 #
straight-curve $-1 275.590551181102 0 826.771653543307 -1 0 0 #
point $-1 0 0 826.771653543307 #
straight-curve $-1 0 0 0 0 0 1 #
point $-1 0 0 0 #
