600 0 2 0           
34 FBMach with ACIS3D/Toolkit - 6.0.3 13 ACIS 6.0.3 NT 24 Mon Apr 16 11:18:34 2001 
1 9.9999999999999995e-007 1e-010 
body $2 $3 $-1 $4 #
bdycol-kcp $-1 1 4 $5 $6 $7 $8 #
model_id-kcp-attrib $-1 $-1 $-1 $0 1 987434303 203 2060124161 1 #
lump $-1 $-1 $9 $0 #
transform $-1 1 0 0 0 1 0 0 0 1 0 0 0 1 no_rotate no_reflect no_shear #
body $10 $11 $-1 $12 #
body $13 $14 $-1 $15 #
body $16 $17 $-1 $18 #
body $19 $20 $-1 $21 #
shell $-1 $-1 $-1 $22 $-1 $3 #
model_id-kcp-attrib $-1 $-1 $-1 $5 1 987434303 218 2061107202 1 #
lump $-1 $-1 $23 $5 #
transform $-1 1 0 0 0 1 0 0 0 1 275.59055118110251 59.055118110236002 413.38582677165351 1 no_rotate no_reflect no_shear #
rgb_color-st-attrib $-1 $24 $-1 $6 0 0 1 #
lump $-1 $-1 $25 $6 #
transform $-1 1 0 0 0 1 0 0 0 1 275.59055118110251 59.055118110236002 413.38582677165351 1 no_rotate no_reflect no_shear #
rgb_color-st-attrib $-1 $26 $-1 $7 0.59999999999999998 0.90000000000000002 1 #
lump $-1 $-1 $27 $7 #
transform $-1 1 0 0 0 1 0 0 0 1 275.59055118110251 59.055118110236002 413.38582677165351 1 no_rotate no_reflect no_shear #
rgb_color-st-attrib $-1 $28 $-1 $8 1 0.5 1 #
lump $-1 $-1 $29 $8 #
transform $-1 1 0 0 0 1 0 0 0 1 275.59055118110251 59.055118110236002 413.38582677165351 1 no_rotate no_reflect no_shear #
face $30 $31 $32 $9 $-1 $33 reversed single #
shell $-1 $-1 $-1 $34 $-1 $11 #
model_id-kcp-attrib $-1 $-1 $13 $6 1 987434303 4937 2051604483 1 #
shell $-1 $-1 $-1 $35 $-1 $14 #
model_id-kcp-attrib $-1 $-1 $16 $7 1 987434303 8796 2052849668 1 #
shell $-1 $-1 $-1 $36 $-1 $17 #
model_id-kcp-attrib $-1 $-1 $19 $8 1 987434303 10593 2053177349 1 #
shell $-1 $-1 $-1 $37 $-1 $20 #
model_id-kcp-attrib $-1 $-1 $-1 $22 1 987434303 203 2060124161 2 #
face $38 $39 $40 $9 $-1 $41 reversed single #
loop $-1 $-1 $42 $22 #
cone-surface $-1 314.96062992126002 78.740157480315006 118.110236220472 0 1 6.12303176911189e-017 39.370078740157503 0 0 1 I I 0 1 39.370078740157503 forward I I I I #
face $43 $44 $45 $23 $-1 $46 forward single #
face $-1 $47 $48 $25 $-1 $49 forward single #
face $-1 $50 $51 $27 $-1 $52 forward single #
face $-1 $53 $54 $29 $-1 $55 forward single #
model_id-kcp-attrib $-1 $-1 $-1 $31 1 987434303 203 2060124161 3 #
face $56 $57 $58 $9 $-1 $59 reversed single #
loop $-1 $-1 $60 $31 #
cone-surface $-1 236.220472440945 78.740157480315006 118.110236220472 0 1 6.12303176911189e-017 39.370078740157503 0 0 1 I I 0 1 39.370078740157503 forward I I I I #
coedge $-1 $61 $62 $63 $64 reversed $32 $-1 #
model_id-kcp-attrib $-1 $-1 $-1 $34 1 987434303 218 2061107202 2 #
face $65 $66 $67 $23 $-1 $68 reversed single #
loop $-1 $-1 $69 $34 #
plane-surface $-1 0 0 413.38582677165351 0 0 1 1 0 0 forward_v I I I I #
face $-1 $70 $71 $25 $-1 $72 forward single #
loop $-1 $-1 $73 $35 #
plane-surface $-1 -157.48031496063049 -19.685039370078499 -216.5354330708665 0 0 -1 -1 0 0 forward_v I I I I #
face $-1 $74 $75 $27 $-1 $76 forward single #
loop $-1 $-1 $77 $36 #
plane-surface $-1 -39.37007874015751 19.685039370079004 -334.64566929133849 0 0 -1 -1 0 0 forward_v I I I I #
face $-1 $78 $79 $29 $-1 $80 forward single #
loop $-1 $-1 $81 $37 #
plane-surface $-1 275.59055118110251 -19.685039370078499 334.64566929133849 1 0 0 0 0 -1 forward_v I I I I #
model_id-kcp-attrib $-1 $-1 $-1 $39 1 987434303 203 2060124161 4 #
face $82 $83 $84 $9 $-1 $85 reversed single #
loop $-1 $-1 $86 $39 #
cone-surface $-1 433.07086614173198 39.370078740157503 551.18110236220502 0 1 6.12303176911189e-017 39.370078740157503 0 0 1 I I 0 1 39.370078740157503 forward I I I I #
coedge $-1 $87 $88 $89 $90 reversed $40 $-1 #
coedge $-1 $91 $42 $92 $93 forward $32 $-1 #
coedge $-1 $42 $91 $94 $95 reversed $32 $-1 #
coedge $-1 $96 $97 $42 $64 forward $98 $-1 #
edge $-1 $99 -0.78539816339744828 $100 0.78539816339744828 $42 $101 forward 7 unknown #
model_id-kcp-attrib $-1 $-1 $-1 $44 1 987434303 218 2061107202 6 #
face $102 $103 $104 $23 $-1 $105 reversed single #
loop $-1 $-1 $106 $44 #
plane-surface $-1 0 0 -413.38582677165351 0 0 1 1 0 0 forward_v I I I I #
coedge $-1 $107 $108 $109 $110 forward $45 $-1 #
face $-1 $111 $112 $25 $-1 $113 forward single #
loop $-1 $-1 $114 $47 #
cone-surface $-1 157.48031496062947 -19.685039370078574 -177.16535433070851 0 1 0 39.370078740157503 0 0 1 I I 0 1 39.370078740157503 forward I I I I #
coedge $-1 $115 $116 $117 $118 forward $48 $-1 #
face $-1 $119 $120 $27 $-1 $121 forward single #
loop $-1 $-1 $122 $50 #
cone-surface $-1 39.37007874015751 19.685039370079039 -295.27559055118149 0 1 0 39.370078740157503 0 0 1 I I 0 1 39.370078740157503 forward I I I I #
coedge $-1 $123 $124 $125 $126 forward $51 $-1 #
face $-1 $127 $128 $29 $-1 $129 forward single #
loop $-1 $-1 $130 $53 #
plane-surface $-1 275.59055118110251 -19.685039370078584 413.38582677165351 0 0 1 1 0 0 forward_v I I I I #
coedge $-1 $131 $132 $133 $134 forward $54 $-1 #
model_id-kcp-attrib $-1 $-1 $-1 $57 1 987434303 203 2060124161 5 #
face $135 $136 $137 $9 $-1 $138 reversed single #
loop $-1 $-1 $139 $57 #
cone-surface $-1 433.07086614173198 39.370078740157503 236.220472440945 0 1 6.12303176911189e-017 39.370078740157503 0 0 1 I I 0 1 39.370078740157503 forward I I I I #
coedge $-1 $140 $141 $142 $143 reversed $58 $-1 #
coedge $-1 $144 $60 $145 $146 forward $40 $-1 #
coedge $-1 $60 $144 $147 $148 reversed $40 $-1 #
coedge $-1 $149 $150 $60 $90 forward $151 $-1 #
edge $-1 $152 -19.6850393700783 $153 19.685039370078698 $60 $154 forward 7 unknown #
coedge $-1 $62 $61 $155 $156 forward $32 $-1 #
coedge $-1 $157 $158 $61 $93 reversed $159 $-1 #
edge $-1 $99 -19.685039370078698 $160 19.6850393700783 $61 $161 forward 7 unknown #
coedge $-1 $150 $149 $62 $95 forward $151 $-1 #
edge $-1 $100 -19.685039370078698 $162 19.6850393700783 $62 $163 forward 7 unknown #
coedge $-1 $147 $63 $149 $164 reversed $98 $-1 #
coedge $-1 $63 $165 $157 $166 reversed $98 $-1 #
loop $-1 $-1 $97 $167 #
vertex $-1 $64 $168 #
vertex $-1 $64 $169 #
ellipse-curve $-1 314.96062992126002 78.740157480315006 118.110236220472 0 1 6.12303176911189e-017 27.8388496530137 1.7045816084093201e-015 -27.8388496530137 1 I I #
model_id-kcp-attrib $-1 $-1 $-1 $66 1 987434303 218 2061107202 3 #
face $170 $171 $172 $23 $-1 $173 reversed single #
loop $-1 $-1 $174 $66 #
plane-surface $-1 0 -59.055118110236002 0 0 1 0 0 0 1 forward_v I I I I #
coedge $-1 $175 $176 $177 $178 forward $67 $-1 #
coedge $-1 $179 $69 $180 $181 forward $45 $-1 #
coedge $-1 $69 $179 $182 $183 forward $45 $-1 #
coedge $-1 $184 $185 $69 $110 reversed $186 $-1 #
edge $-1 $187 -59.055118110236002 $188 59.055118110236002 $109 $189 forward 7 unknown #
face $-1 $190 $191 $25 $-1 $192 forward single #
loop $-1 $-1 $193 $70 #
plane-surface $-1 196.85039370078749 -19.685039370078499 -177.16535433070851 1 0 0 0 0 -1 forward_v I I I I #
coedge $-1 $194 $195 $196 $197 forward $71 $-1 #
coedge $-1 $198 $73 $195 $199 reversed $48 $-1 #
coedge $-1 $73 $198 $200 $201 forward $48 $-1 #
coedge $-1 $202 $196 $73 $118 reversed $203 $-1 #
edge $-1 $204 -157.4803149606301 $205 157.48031496062987 $73 $206 forward 7 unknown #
face $-1 $207 $208 $27 $-1 $209 forward single #
loop $-1 $-1 $210 $74 #
plane-surface $-1 78.740157480314508 19.685039370079004 -295.27559055118149 1 0 0 0 0 -1 forward_v I I I I #
coedge $-1 $211 $212 $213 $214 forward $75 $-1 #
coedge $-1 $215 $77 $212 $216 reversed $51 $-1 #
coedge $-1 $77 $215 $217 $218 forward $51 $-1 #
coedge $-1 $219 $213 $77 $126 reversed $220 $-1 #
edge $-1 $221 -39.37007874015714 $222 39.370078740157879 $77 $223 forward 7 unknown #
face $-1 $224 $225 $29 $-1 $226 forward single #
loop $-1 $-1 $227 $78 #
plane-surface $-1 -275.59055118110251 -19.685039370078584 413.38582677165351 -1 0 0 0 0 1 forward_v I I I I #
coedge $-1 $228 $229 $230 $231 forward $79 $-1 #
coedge $-1 $232 $81 $229 $233 reversed $54 $-1 #
coedge $-1 $81 $232 $234 $235 forward $54 $-1 #
coedge $-1 $236 $230 $81 $134 reversed $237 $-1 #
edge $-1 $238 147.63779527559049 $239 226.37795275590551 $81 $240 forward 7 unknown #
model_id-kcp-attrib $-1 $-1 $-1 $83 1 987434303 203 2060124161 6 #
face $241 $242 $243 $9 $-1 $244 reversed single #
loop $-1 $-1 $245 $83 #
cone-surface $-1 118.110236220472 39.370078740157503 551.18110236220502 0 1 6.12303176911189e-017 39.370078740157503 0 0 1 I I 0 1 39.370078740157503 forward I I I I #
coedge $-1 $246 $247 $248 $249 forward $84 $-1 #
coedge $-1 $250 $86 $251 $252 reversed $58 $-1 #
coedge $-1 $86 $250 $253 $254 forward $58 $-1 #
coedge $-1 $255 $256 $86 $143 forward $257 $-1 #
edge $-1 $258 -0.78539816339744828 $259 0.78539816339744828 $86 $260 forward 7 unknown #
coedge $-1 $88 $87 $261 $262 forward $40 $-1 #
coedge $-1 $263 $264 $87 $146 reversed $265 $-1 #
edge $-1 $152 -0.78539816339744828 $266 0.78539816339744828 $87 $267 forward 7 unknown #
coedge $-1 $268 $96 $88 $148 forward $98 $-1 #
edge $-1 $153 -0.78539816339744828 $269 0.78539816339744828 $88 $270 forward 7 unknown #
coedge $-1 $94 $89 $96 $164 forward $151 $-1 #
coedge $-1 $89 $94 $263 $271 forward $151 $-1 #
loop $-1 $-1 $94 $272 #
vertex $-1 $90 $273 #
vertex $-1 $90 $274 #
straight-curve $-1 236.220472440945 98.425196850393704 78.740157480315006 0 -1 0 I I #
coedge $-1 $275 $263 $91 $156 reversed $265 $-1 #
edge $-1 $160 -0.78539816339744828 $162 0.78539816339744828 $91 $276 forward 7 unknown #
coedge $-1 $277 $92 $97 $166 forward $159 $-1 #
coedge $-1 $92 $277 $275 $278 reversed $159 $-1 #
loop $-1 $-1 $158 $279 #
vertex $-1 $93 $280 #
straight-curve $-1 354.33070866141702 98.425196850393704 118.110236220472 0 1 0 I I #
vertex $-1 $156 $281 #
straight-curve $-1 314.96062992126002 98.425196850393704 78.740157480315006 0 1 0 I I #
edge $-1 $153 -39.370078740156998 $100 39.370078740158021 $149 $282 forward 7 unknown #
coedge $-1 $97 $268 $283 $284 reversed $98 $-1 #
edge $-1 $99 0 $285 78.740157480315006 $97 $286 forward 7 unknown #
face $287 $288 $98 $9 $-1 $289 reversed single #
point $-1 354.33070866141702 78.740157480315006 118.110236220472 #
point $-1 314.96062992126002 78.740157480315006 78.740157480315006 #
model_id-kcp-attrib $-1 $-1 $-1 $103 1 987434303 218 2061107202 4 #
face $290 $291 $292 $23 $-1 $293 reversed single #
loop $-1 $-1 $294 $103 #
plane-surface $-1 -275.59055118110251 0 0 1 0 0 0 0 -1 forward_v I I I I #
coedge $-1 $295 $182 $296 $297 forward $104 $-1 #
coedge $-1 $298 $106 $295 $299 forward $67 $-1 #
coedge $-1 $106 $298 $300 $301 forward $67 $-1 #
coedge $-1 $185 $184 $106 $178 reversed $186 $-1 #
edge $-1 $302 -59.055118110236002 $303 59.055118110236002 $177 $304 forward 7 unknown #
coedge $-1 $108 $107 $305 $306 forward $45 $-1 #
coedge $-1 $307 $308 $107 $181 reversed $292 $-1 #
edge $-1 $188 -275.59055118110251 $309 275.59055118110251 $180 $310 forward 7 unknown #
coedge $-1 $174 $311 $108 $183 reversed $104 $-1 #
edge $-1 $312 -275.59055118110251 $187 275.59055118110251 $182 $313 forward 7 unknown #
coedge $-1 $177 $109 $311 $314 forward $186 $-1 #
coedge $-1 $109 $177 $307 $315 reversed $186 $-1 #
loop $-1 $-1 $184 $291 #
vertex $-1 $110 $316 #
vertex $-1 $110 $317 #
straight-curve $-1 275.59055118110251 0 413.38582677165351 0 1 0 I I #
face $-1 $318 $319 $25 $-1 $320 forward single #
loop $-1 $-1 $321 $111 #
cone-surface $-1 157.48031496062947 -19.685039370078595 137.79527559055151 0 1 0 39.370078740157503 0 0 1 I I 0 1 39.370078740157503 forward I I I I #
coedge $-1 $322 $323 $324 $325 forward $112 $-1 #
coedge $-1 $326 $114 $323 $327 reversed $71 $-1 #
coedge $-1 $114 $326 $115 $199 forward $71 $-1 #
coedge $-1 $117 $324 $114 $197 reversed $203 $-1 #
edge $-1 $205 -1.5707963267948966 $328 0 $114 $329 forward 7 unknown #
coedge $-1 $116 $115 $330 $331 reversed $48 $-1 #
edge $332 $333 0 $205 78.740157480314508 $195 $334 forward 7 unknown #
coedge $-1 $335 $336 $116 $201 reversed $337 $-1 #
edge $-1 $338 0 $204 78.740157480314508 $116 $339 forward 7 unknown #
coedge $-1 $340 $117 $336 $341 reversed $203 $-1 #
loop $-1 $-1 $117 $342 #
vertex $-1 $201 $343 #
vertex $-1 $199 $344 #
straight-curve $-1 -3.979039320256561e-013 59.055118110235924 -216.5354330708665 1 0 0 I I #
face $-1 $345 $346 $27 $-1 $347 forward single #
loop $-1 $-1 $348 $119 #
plane-surface $-1 78.740157480314508 19.685039370079004 -216.5354330708665 0 0 1 1 0 0 forward_v I I I I #
coedge $-1 $349 $350 $351 $352 forward $120 $-1 #
coedge $-1 $353 $122 $350 $354 reversed $75 $-1 #
coedge $-1 $122 $353 $123 $216 forward $75 $-1 #
coedge $-1 $125 $351 $122 $214 reversed $220 $-1 #
edge $-1 $222 -1.5707963267948966 $355 0 $122 $356 forward 7 unknown #
coedge $-1 $124 $123 $357 $358 reversed $51 $-1 #
edge $359 $360 0 $222 39.370078740156998 $212 $361 forward 7 unknown #
coedge $-1 $362 $363 $124 $218 reversed $364 $-1 #
edge $-1 $365 0 $221 39.370078740156998 $124 $366 forward 7 unknown #
coedge $-1 $367 $125 $363 $368 reversed $220 $-1 #
loop $-1 $-1 $125 $369 #
vertex $-1 $218 $370 #
vertex $-1 $216 $371 #
straight-curve $-1 -3.694822225952521e-013 59.055118110236037 -334.64566929133855 1 0 0 I I #
face $-1 $372 $237 $29 $-1 $373 forward single #
loop $-1 $-1 $374 $127 #
plane-surface $-1 -275.59055118110251 -19.685039370078499 334.64566929133849 0 0 -1 -1 0 0 forward_v I I I I #
coedge $-1 $375 $376 $377 $378 forward $128 $-1 #
coedge $-1 $379 $130 $376 $380 reversed $79 $-1 #
coedge $-1 $130 $379 $131 $233 forward $79 $-1 #
coedge $-1 $133 $377 $130 $231 reversed $237 $-1 #
edge $-1 $239 -275.59055118110251 $381 275.59055118110251 $130 $382 forward 7 unknown #
coedge $-1 $132 $131 $383 $384 reversed $54 $-1 #
edge $-1 $385 0 $239 78.740157480314508 $229 $386 forward 7 unknown #
coedge $-1 $387 $374 $132 $235 reversed $225 $-1 #
edge $-1 $388 0 $238 78.740157480314508 $132 $389 forward 7 unknown #
coedge $-1 $377 $133 $374 $390 reversed $237 $-1 #
loop $-1 $-1 $133 $224 #
vertex $-1 $235 $391 #
vertex $-1 $233 $392 #
straight-curve $-1 275.59055118110251 59.055118110235924 187.007874015748 0 0 1 I I #
model_id-kcp-attrib $-1 $-1 $-1 $136 1 987434303 203 2060124161 7 #
face $393 $394 $395 $9 $-1 $396 reversed single #
loop $-1 $-1 $397 $136 #
cone-surface $-1 118.110236220472 39.370078740157503 236.220472440945 0 1 6.12303176911189e-017 39.370078740157503 0 0 1 I I 0 1 39.370078740157503 forward I I I I #
coedge $-1 $398 $399 $400 $401 forward $137 $-1 #
coedge $-1 $402 $139 $403 $404 reversed $84 $-1 #
coedge $-1 $139 $402 $405 $406 reversed $84 $-1 #
coedge $-1 $407 $408 $139 $249 reversed $409 $-1 #
edge $-1 $410 -39.370078740157503 $411 39.370078740156998 $139 $412 forward 7 unknown #
coedge $-1 $141 $140 $413 $414 reversed $58 $-1 #
coedge $-1 $415 $416 $140 $252 forward $417 $-1 #
edge $-1 $418 -39.370078740156998 $258 39.370078740157503 $140 $419 forward 7 unknown #
coedge $-1 $408 $407 $141 $254 reversed $409 $-1 #
edge $-1 $420 -39.370078740156998 $259 39.370078740157503 $141 $421 forward 7 unknown #
coedge $-1 $405 $142 $407 $422 reversed $257 $-1 #
coedge $-1 $142 $423 $415 $424 reversed $257 $-1 #
loop $-1 $-1 $256 $425 #
vertex $-1 $143 $426 #
vertex $-1 $143 $427 #
ellipse-curve $-1 433.07086614173198 39.370078740157503 551.18110236220502 0 1 6.12303176911189e-017 27.8388496530137 -1.7045816084093201e-015 27.8388496530137 1 I I #
coedge $-1 $428 $429 $144 $262 reversed $430 $-1 #
edge $-1 $266 -19.6850393700783 $269 19.685039370078698 $144 $431 forward 7 unknown #
coedge $-1 $155 $145 $150 $271 reversed $265 $-1 #
coedge $-1 $145 $432 $428 $433 reversed $265 $-1 #
loop $-1 $434 $155 $435 #
vertex $-1 $146 $436 #
ellipse-curve $-1 236.220472440945 118.110236220472 118.110236220472 0 1 0 -27.8388496530137 0 -27.8388496530137 1 I I #
coedge $-1 $165 $147 $429 $437 forward $98 $-1 #
vertex $-1 $262 $438 #
ellipse-curve $-1 236.220472440945 78.740157480315006 118.110236220472 0 1 6.12303176911189e-017 -27.8388496530137 1.7045816084093201e-015 -27.8388496530137 1 I I #
edge $-1 $162 -39.370078740158021 $152 39.370078740156998 $150 $439 forward 7 unknown #
face $440 $167 $151 $9 $-1 $441 reversed single #
point $-1 236.220472440945 118.110236220472 78.740157480315006 #
point $-1 236.220472440945 78.740157480315006 78.740157480315006 #
coedge $-1 $442 $155 $158 $278 forward $265 $-1 #
ellipse-curve $-1 314.96062992126002 118.110236220472 118.110236220472 0 1 0 27.8388496530137 0 -27.8388496530137 1 I I #
coedge $-1 $158 $157 $443 $444 reversed $159 $-1 #
edge $-1 $160 0 $445 78.740157480315006 $158 $446 forward 7 unknown #
face $447 $448 $159 $9 $-1 $449 reversed single #
point $-1 354.33070866141702 118.110236220472 118.110236220472 #
point $-1 314.96062992126002 118.110236220472 78.740157480315006 #
straight-curve $-1 275.590551181102 78.740157480315006 78.740157480315006 1 0 0 I I #
coedge $-1 $450 $443 $165 $284 forward $451 $-1 #
edge $-1 $285 -78.74015748031502 $452 78.740157480314991 $165 $453 forward 7 unknown #
vertex $-1 $166 $454 #
straight-curve $-1 354.33070866141702 78.740157480315006 118.110236220472 0 0 1 I I #
model_id-kcp-attrib $-1 $-1 $-1 $167 1 987434303 203 2060124161 11 #
face $455 $279 $430 $9 $-1 $456 reversed single #
plane-surface $-1 275.590551181102 78.740157480315006 118.110236220472 0 -1 0 0 0 -1 forward_v I I I I #
model_id-kcp-attrib $-1 $-1 $-1 $171 1 987434303 218 2061107202 5 #
face $457 $-1 $186 $23 $-1 $458 reversed single #
loop $-1 $-1 $307 $171 #
plane-surface $-1 0 59.055118110236002 0 0 -1 0 0 0 -1 forward_v I I I I #
coedge $-1 $459 $305 $308 $460 forward $172 $-1 #
coedge $-1 $311 $174 $175 $299 reversed $104 $-1 #
coedge $-1 $305 $459 $174 $297 reversed $172 $-1 #
edge $-1 $312 -413.38582677165351 $461 413.38582677165351 $296 $462 forward 7 unknown #
coedge $-1 $176 $175 $459 $463 forward $67 $-1 #
edge $-1 $303 -275.59055118110251 $461 275.59055118110251 $295 $464 forward 7 unknown #
coedge $-1 $308 $307 $176 $301 reversed $292 $-1 #
edge $-1 $465 -275.59055118110251 $302 275.59055118110251 $300 $466 forward 7 unknown #
vertex $-1 $178 $467 #
vertex $-1 $314 $468 #
straight-curve $-1 275.59055118110251 0 -413.38582677165351 0 -1 0 I I #
coedge $-1 $294 $296 $179 $306 reversed $172 $-1 #
edge $-1 $309 -59.055118110236002 $312 59.055118110236002 $305 $469 forward 7 unknown #
coedge $-1 $300 $180 $185 $315 forward $292 $-1 #
coedge $-1 $180 $300 $294 $460 reversed $292 $-1 #
vertex $-1 $181 $470 #
straight-curve $-1 0 59.055118110236002 413.38582677165351 -1 0 0 I I #
coedge $-1 $182 $295 $184 $314 reversed $104 $-1 #
vertex $-1 $306 $471 #
straight-curve $-1 0 -59.055118110236002 413.38582677165351 1 0 0 I I #
edge $-1 $187 -413.38582677165351 $303 413.38582677165351 $184 $472 forward 7 unknown #
edge $-1 $188 -413.38582677165351 $302 413.38582677165351 $185 $473 forward 7 unknown #
point $-1 275.59055118110251 -59.055118110236002 413.38582677165351 #
point $-1 275.59055118110251 59.055118110236002 413.38582677165351 #
face $-1 $474 $475 $25 $-1 $476 forward single #
loop $-1 $-1 $477 $190 #
plane-surface $-1 157.48031496062947 -19.685039370078499 177.16535433070845 0 0 1 1 0 0 forward_v I I I I #
coedge $-1 $478 $479 $480 $481 forward $191 $-1 #
coedge $-1 $482 $193 $479 $483 reversed $112 $-1 #
coedge $-1 $193 $482 $194 $327 forward $112 $-1 #
coedge $-1 $196 $480 $193 $325 reversed $203 $-1 #
edge $-1 $328 -78.740157480314849 $484 236.22047244094517 $193 $485 forward 7 unknown #
coedge $-1 $195 $194 $486 $487 reversed $71 $-1 #
edge $-1 $488 0 $328 78.740157480314508 $323 $489 forward 7 unknown #
vertex $-1 $327 $490 #
ellipse-curve $-1 157.48031496062947 59.055118110235938 -177.16535433070851 0 -1 0 39.370078740157503 0 0 1 I I #
coedge $-1 $486 $491 $198 $331 forward $492 $-1 #
edge $493 $338 -157.4803149606301 $333 157.48031496062987 $198 $494 forward 7 unknown #
convexity-sys-attrib $-1 $-1 $-1 $199 #
vertex $-1 $331 $495 #
straight-curve $-1 157.48031496062947 -19.685039370078499 -216.5354330708665 0 1 0 I I #
coedge $-1 $496 $200 $491 $497 reversed $337 $-1 #
coedge $-1 $200 $496 $202 $341 forward $337 $-1 #
loop $-1 $-1 $336 $498 #
vertex $-1 $497 $499 #
straight-curve $-1 -157.48031496063049 -19.685039370078499 -216.5354330708665 0 1 0 I I #
coedge $-1 $500 $202 $501 $502 reversed $203 $-1 #
edge $-1 $503 -3.1415926535897931 $204 -1.5707963267948966 $336 $504 forward 7 unknown #
face $-1 $505 $203 $25 $-1 $506 forward single #
point $-1 -157.48031496063049 59.055118110236016 -216.5354330708665 #
point $-1 157.48031496062947 59.055118110236016 -216.5354330708665 #
face $-1 $369 $364 $27 $-1 $507 forward single #
loop $-1 $-1 $508 $207 #
plane-surface $-1 -78.740157480315503 19.685039370079004 -216.5354330708665 -1 0 0 0 0 1 forward_v I I I I #
coedge $-1 $509 $510 $511 $512 forward $208 $-1 #
coedge $-1 $513 $210 $510 $514 reversed $120 $-1 #
coedge $-1 $210 $513 $211 $354 forward $120 $-1 #
coedge $-1 $213 $511 $210 $352 reversed $220 $-1 #
edge $-1 $355 -9.842519685039349 $515 68.897637795275642 $210 $516 forward 7 unknown #
coedge $-1 $212 $211 $517 $518 reversed $75 $-1 #
edge $-1 $519 0 $355 39.370078740156998 $350 $520 forward 7 unknown #
vertex $-1 $354 $521 #
ellipse-curve $-1 39.37007874015751 59.055118110236037 -295.27559055118149 0 -1 0 39.370078740157503 0 0 1 I I #
coedge $-1 $517 $522 $215 $358 forward $523 $-1 #
edge $524 $365 -39.37007874015714 $360 39.370078740157879 $215 $525 forward 7 unknown #
convexity-sys-attrib $-1 $-1 $-1 $216 #
vertex $-1 $358 $526 #
straight-curve $-1 39.37007874015751 19.685039370079004 -334.64566929133849 0 1 0 I I #
coedge $-1 $527 $217 $522 $528 reversed $364 $-1 #
coedge $-1 $217 $527 $219 $368 forward $364 $-1 #
loop $-1 $-1 $363 $345 #
vertex $-1 $528 $529 #
straight-curve $-1 -39.37007874015751 19.685039370079004 -334.64566929133849 0 1 0 I I #
coedge $-1 $511 $219 $508 $530 reversed $220 $-1 #
edge $-1 $531 -3.1415926535897931 $221 -1.5707963267948966 $363 $532 forward 7 unknown #
face $-1 $533 $220 $27 $-1 $534 forward single #
point $-1 -39.37007874015751 59.055118110236002 -334.64566929133849 #
point $-1 39.37007874015751 59.055118110236002 -334.64566929133849 #
face $-1 $-1 $535 $29 $-1 $536 reversed single #
plane-surface $-1 1.7763568394002505e-014 59.055118110235924 374.01574803149606 0 1 0 0 0 1 forward_v I I I I #
coedge $-1 $234 $537 $236 $390 forward $225 $-1 #
coedge $-1 $538 $227 $537 $539 reversed $128 $-1 #
coedge $-1 $227 $538 $228 $380 forward $128 $-1 #
coedge $-1 $230 $236 $227 $378 reversed $237 $-1 #
edge $-1 $381 -226.37795275590551 $540 -147.63779527559049 $227 $541 forward 7 unknown #
coedge $-1 $229 $228 $542 $543 reversed $79 $-1 #
edge $-1 $544 0 $381 78.740157480314508 $376 $545 forward 7 unknown #
vertex $-1 $380 $546 #
straight-curve $-1 0 59.055118110235924 413.38582677165351 -1 0 0 I I #
coedge $-1 $542 $547 $232 $384 forward $535 $-1 #
edge $548 $388 147.63779527559049 $385 226.37795275590551 $232 $549 forward 7 unknown #
vertex $-1 $384 $550 #
straight-curve $-1 275.59055118110251 -19.685039370078584 413.38582677165351 0 1 0 I I #
coedge $-1 $537 $234 $547 $551 reversed $225 $-1 #
vertex $-1 $551 $552 #
straight-curve $-1 275.59055118110251 -19.685039370078499 334.64566929133849 0 1 0 I I #
edge $-1 $540 -275.59055118110223 $238 275.5905511811028 $374 $553 forward 7 unknown #
point $-1 275.59055118110251 59.055118110236016 334.64566929133849 #
point $-1 275.59055118110251 59.055118110235931 413.38582677165351 #
model_id-kcp-attrib $-1 $-1 $-1 $242 1 987434303 203 2060124161 8 #
face $554 $272 $555 $9 $-1 $556 reversed single #
loop $-1 $-1 $557 $242 #
plane-surface $-1 275.590551181102 39.370078740157503 748.03149606299201 0 -1 0 0 0 -1 forward_v I I I I #
coedge $-1 $558 $559 $560 $561 reversed $243 $-1 #
coedge $-1 $562 $245 $563 $564 reversed $137 $-1 #
coedge $-1 $245 $562 $423 $565 reversed $137 $-1 #
coedge $-1 $566 $567 $245 $401 reversed $568 $-1 #
edge $-1 $569 -39.370078740157503 $570 39.370078740156998 $245 $571 forward 7 unknown #
coedge $-1 $247 $246 $572 $573 reversed $84 $-1 #
coedge $-1 $574 $442 $246 $404 forward $265 $-1 #
edge $-1 $575 -0.78539816339744828 $411 0.78539816339744828 $246 $576 forward 7 unknown #
coedge $-1 $577 $255 $247 $406 forward $257 $-1 #
edge $-1 $410 -0.78539816339744828 $578 0.78539816339744828 $247 $579 forward 7 unknown #
coedge $-1 $253 $248 $255 $422 forward $409 $-1 #
coedge $-1 $248 $253 $574 $580 reversed $409 $-1 #
loop $-1 $-1 $248 $581 #
vertex $-1 $249 $582 #
vertex $-1 $249 $583 #
straight-curve $-1 472.44094488189 78.740157480315006 236.220472440945 0 1 0 I I #
coedge $-1 $584 $574 $250 $414 forward $265 $-1 #
edge $-1 $420 -0.78539816339744828 $418 0.78539816339744828 $250 $585 forward 7 unknown #
coedge $-1 $586 $251 $256 $424 forward $417 $-1 #
coedge $-1 $251 $586 $584 $587 forward $417 $-1 #
loop $-1 $-1 $415 $588 #
vertex $-1 $252 $589 #
straight-curve $-1 433.07086614173198 78.740157480315006 590.55118110236197 0 -1 0 I I #
vertex $-1 $414 $590 #
straight-curve $-1 472.44094488189 78.740157480315006 551.18110236220502 0 -1 0 I I #
edge $-1 $410 0 $259 314.96062992126002 $407 $591 forward 7 unknown #
coedge $-1 $256 $592 $399 $565 forward $257 $-1 #
edge $-1 $258 -157.48031496062998 $593 157.48031496062998 $415 $594 forward 7 unknown #
face $595 $596 $257 $9 $-1 $597 reversed single #
point $-1 433.07086614173198 39.370078740157503 590.55118110236197 #
point $-1 472.44094488189 39.370078740157503 551.18110236220502 #
coedge $-1 $598 $261 $264 $433 forward $430 $-1 #
coedge $-1 $261 $598 $268 $437 reversed $430 $-1 #
loop $-1 $-1 $429 $288 #
straight-curve $-1 196.85039370078701 98.425196850393704 118.110236220472 0 -1 0 I I #
coedge $-1 $264 $599 $600 $601 reversed $265 $-1 #
edge $-1 $266 0 $602 78.740157480315006 $428 $603 forward 7 unknown #
loop $-1 $-1 $604 $435 #
face $605 $606 $265 $9 $-1 $607 forward single #
point $-1 196.85039370078701 118.110236220472 118.110236220472 #
edge $-1 $269 0 $452 78.740157480315006 $268 $608 forward 7 unknown #
point $-1 196.85039370078701 78.740157480315006 118.110236220472 #
straight-curve $-1 275.590551181102 118.110236220472 78.740157480315006 -1 0 0 I I #
model_id-kcp-attrib $-1 $-1 $-1 $272 1 987434303 203 2060124161 10 #
plane-surface $-1 275.590551181102 98.425196850393704 78.740157480315006 0 0 -1 -1 0 0 forward_v I I I I #
coedge $-1 $403 $275 $609 $610 reversed $265 $-1 #
coedge $-1 $283 $609 $277 $444 forward $451 $-1 #
edge $-1 $445 -39.370078740156998 $285 0 $277 $611 forward 7 unknown #
vertex $-1 $278 $612 #
straight-curve $-1 354.33070866141702 118.110236220472 118.110236220472 0 0 1 I I #
model_id-kcp-attrib $-1 $-1 $-1 $279 1 987434303 203 2060124161 13 #
face $613 $581 $568 $9 $-1 $614 reversed single #
plane-surface $-1 354.33070866141702 98.425196850393704 118.110236220472 1 0 0 0 0 -1 forward_v I I I I #
coedge $-1 $600 $283 $598 $615 forward $451 $-1 #
loop $-1 $-1 $283 $596 #
vertex $-1 $437 $616 #
straight-curve $-1 275.590551181102 78.740157480315006 196.85039370078701 -1 0 0 I I #
point $-1 354.33070866141702 78.740157480315006 196.85039370078701 #
model_id-kcp-attrib $-1 $-1 $-1 $288 1 987434303 203 2060124161 12 #
plane-surface $-1 196.85039370078701 98.425196850393704 118.110236220472 -1 0 0 0 0 1 forward_v I I I I #
model_id-kcp-attrib $-1 $-1 $-1 $291 1 987434303 218 2061107202 7 #
plane-surface $-1 275.59055118110251 0 0 -1 0 0 0 0 1 forward_v I I I I #
coedge $-1 $296 $294 $298 $463 reversed $172 $-1 #
edge $-1 $309 -413.38582677165351 $465 413.38582677165351 $308 $617 forward 7 unknown #
vertex $-1 $463 $618 #
straight-curve $-1 -275.59055118110251 -59.055118110236002 0 0 0 -1 I I #
edge $-1 $461 -59.055118110236002 $465 59.055118110236002 $459 $619 forward 7 unknown #
straight-curve $-1 0 -59.055118110236002 -413.38582677165351 -1 0 0 I I #
vertex $-1 $301 $620 #
straight-curve $-1 0 59.055118110236002 -413.38582677165351 1 0 0 I I #
point $-1 275.59055118110251 59.055118110236002 -413.38582677165351 #
point $-1 275.59055118110251 -59.055118110236002 -413.38582677165351 #
straight-curve $-1 -275.59055118110251 0 413.38582677165351 0 -1 0 I I #
point $-1 -275.59055118110251 59.055118110236002 413.38582677165351 #
point $-1 -275.59055118110251 -59.055118110236002 413.38582677165351 #
straight-curve $-1 275.59055118110251 -59.055118110236002 0 0 0 -1 I I #
straight-curve $-1 275.59055118110251 59.055118110236002 0 0 0 -1 I I #
face $-1 $498 $621 $25 $-1 $622 forward single #
loop $-1 $-1 $623 $318 #
cone-surface $-1 -157.48031496063049 -19.685039370078595 137.79527559055151 0 1 0 39.370078740157503 0 0 1 I I 0 1 39.370078740157503 forward I I I I #
coedge $-1 $624 $625 $626 $627 forward $319 $-1 #
coedge $-1 $628 $321 $625 $629 reversed $191 $-1 #
coedge $-1 $321 $628 $322 $483 forward $191 $-1 #
coedge $-1 $324 $626 $321 $481 reversed $203 $-1 #
edge $-1 $484 0 $630 1.5707963267948966 $321 $631 forward 7 unknown #
coedge $-1 $323 $322 $632 $633 reversed $112 $-1 #
edge $-1 $634 0 $484 78.740157480314508 $479 $635 forward 7 unknown #
vertex $-1 $483 $636 #
straight-curve $-1 196.85039370078749 59.055118110235924 -98.425196850393661 0 0 1 I I #
coedge $-1 $632 $330 $326 $487 forward $492 $-1 #
edge $637 $333 -1.5707963267948966 $488 0 $326 $638 forward 7 unknown #
vertex $-1 $487 $639 #
straight-curve $-1 196.85039370078749 -19.685039370078499 -177.16535433070851 0 1 0 I I #
point $-1 196.85039370078749 59.055118110236016 -177.16535433070851 #
coedge $-1 $330 $640 $335 $497 forward $492 $-1 #
loop $-1 $-1 $491 $505 #
convexity-sys-attrib $-1 $-1 $-1 $331 #
straight-curve $-1 -3.979039320256561e-013 -19.685039370078584 -216.5354330708665 1 0 0 I I #
point $-1 157.48031496062947 -19.685039370078499 -216.5354330708665 #
coedge $-1 $336 $335 $641 $642 forward $337 $-1 #
edge $643 $644 -3.1415926535897931 $338 -1.5707963267948966 $335 $645 forward 7 unknown #
face $-1 $342 $337 $25 $-1 $646 forward single #
point $-1 -157.48031496063049 -19.685039370078499 -216.5354330708665 #
coedge $-1 $626 $340 $623 $647 reversed $203 $-1 #
coedge $-1 $641 $648 $340 $502 forward $621 $-1 #
edge $-1 $649 -236.22047244094517 $503 78.740157480314849 $501 $650 forward 7 unknown #
vertex $-1 $642 $651 #
ellipse-curve $-1 -157.48031496063049 59.055118110235938 -177.16535433070851 0 -1 0 39.370078740157503 0 0 1 I I #
face $-1 $-1 $492 $25 $-1 $652 reversed single #
plane-surface $-1 -3.0072120756858218e-013 59.055118110235924 -19.685039370078727 1.1033907296016233e-018 1 3.5016547902149807e-017 0 -3.5016547902149807e-017 1 forward_v I I I I #
cone-surface $-1 -39.37007874015751 19.685039370079039 -295.27559055118149 0 1 0 39.370078740157503 0 0 1 I I 0 1 39.370078740157503 forward I I I I #
coedge $-1 $653 $654 $367 $530 forward $346 $-1 #
coedge $-1 $655 $348 $654 $656 reversed $208 $-1 #
coedge $-1 $348 $655 $349 $514 forward $208 $-1 #
coedge $-1 $351 $367 $348 $512 reversed $220 $-1 #
edge $-1 $515 -157.48031496062987 $657 1.4210854715202004e-013 $348 $658 forward 7 unknown #
coedge $-1 $350 $349 $659 $660 reversed $120 $-1 #
edge $-1 $661 0 $515 39.370078740156998 $510 $662 forward 7 unknown #
vertex $-1 $514 $663 #
straight-curve $-1 78.740157480314508 59.055118110236037 -285.43307086614215 0 0 1 I I #
coedge $-1 $659 $357 $353 $518 forward $523 $-1 #
edge $664 $360 -1.5707963267948966 $519 0 $353 $665 forward 7 unknown #
vertex $-1 $518 $666 #
straight-curve $-1 78.740157480314508 19.685039370079004 -295.27559055118149 0 1 0 I I #
point $-1 78.740157480314508 59.055118110236002 -295.27559055118149 #
coedge $-1 $357 $667 $362 $528 forward $523 $-1 #
loop $-1 $-1 $522 $533 #
convexity-sys-attrib $-1 $-1 $-1 $358 #
straight-curve $-1 -3.694822225952521e-013 19.685039370079039 -334.64566929133855 1 0 0 I I #
point $-1 39.37007874015751 19.685039370079004 -334.64566929133849 #
coedge $-1 $363 $362 $653 $668 forward $364 $-1 #
edge $669 $670 -3.1415926535897931 $365 -1.5707963267948966 $362 $671 forward 7 unknown #
point $-1 -39.37007874015751 19.685039370079004 -334.64566929133849 #
edge $-1 $657 -68.897637795275642 $531 9.842519685039349 $508 $672 forward 7 unknown #
vertex $-1 $668 $673 #
ellipse-curve $-1 -39.37007874015751 59.055118110236037 -295.27559055118149 0 -1 0 39.370078740157503 0 0 1 I I #
face $-1 $-1 $523 $27 $-1 $674 reversed single #
plane-surface $-1 -3.0237388623410991e-013 59.055118110236037 -271.18079128472601 0 1 0 0 0 1 forward_v I I I I #
loop $-1 $-1 $547 $372 #
plane-surface $-1 1.7763568394002505e-014 -19.685039370078584 374.01574803149606 0 1 0 0 0 1 forward_v I I I I #
coedge $-1 $374 $387 $375 $539 forward $225 $-1 #
coedge $-1 $376 $375 $675 $676 reversed $128 $-1 #
edge $-1 $677 0 $540 78.740157480314508 $537 $678 forward 7 unknown #
vertex $-1 $539 $679 #
straight-curve $-1 -275.59055118110251 59.055118110235924 187.007874015748 0 0 -1 I I #
coedge $-1 $675 $383 $379 $543 forward $535 $-1 #
edge $680 $385 -275.59055118110251 $544 275.59055118110251 $379 $681 forward 7 unknown #
vertex $-1 $543 $682 #
straight-curve $-1 -275.59055118110251 -19.685039370078584 413.38582677165351 0 1 0 I I #
point $-1 -275.59055118110251 59.055118110235931 413.38582677165351 #
coedge $-1 $383 $675 $387 $551 forward $535 $-1 #
convexity-sys-attrib $-1 $-1 $-1 $384 #
straight-curve $-1 275.59055118110251 -19.685039370078584 187.007874015748 0 0 1 I I #
point $-1 275.59055118110251 -19.685039370078584 413.38582677165351 #
edge $683 $677 -275.59055118110223 $388 275.5905511811028 $387 $684 forward 7 unknown #
point $-1 275.59055118110251 -19.685039370078499 334.64566929133849 #
straight-curve $-1 -2.5579538487363607e-013 59.055118110235924 334.64566929133849 1 0 0 I I #
model_id-kcp-attrib $-1 $-1 $-1 $394 1 987434303 203 2060124161 9 #
loop $-1 $-1 $685 $394 #
plane-surface $-1 275.590551181102 78.740157480315006 748.03149606299201 0 0 -1 -1 0 0 forward_v I I I I #
coedge $-1 $686 $687 $688 $689 reversed $395 $-1 #
coedge $-1 $690 $397 $691 $692 reversed $243 $-1 #
coedge $-1 $397 $690 $693 $694 forward $243 $-1 #
coedge $-1 $592 $577 $397 $561 forward $257 $-1 #
edge $-1 $695 -0.78539816339744828 $696 0.78539816339744828 $397 $697 forward 7 unknown #
coedge $-1 $399 $398 $586 $698 reversed $137 $-1 #
coedge $-1 $699 $584 $398 $564 forward $265 $-1 #
edge $-1 $700 -0.78539816339744828 $570 0.78539816339744828 $398 $701 forward 7 unknown #
edge $-1 $569 -0.78539816339744828 $593 0.78539816339744828 $399 $702 forward 7 unknown #
coedge $-1 $693 $400 $592 $703 reversed $568 $-1 #
coedge $-1 $400 $693 $699 $704 forward $568 $-1 #
loop $-1 $-1 $566 $448 #
vertex $-1 $401 $705 #
vertex $-1 $401 $706 #
straight-curve $-1 78.740157480315006 78.740157480315006 551.18110236220502 0 1 0 I I #
coedge $-1 $609 $707 $402 $573 forward $451 $-1 #
edge $-1 $578 -39.370078740157503 $575 39.370078740156998 $402 $708 forward 7 unknown #
coedge $-1 $413 $403 $408 $580 forward $265 $-1 #
vertex $-1 $404 $709 #
ellipse-curve $-1 433.07086614173198 118.110236220472 236.220472440945 0 -1 -6.12303176911189e-017 27.8388496530137 1.7045816084093201e-015 -27.8388496530137 1 I I #
coedge $-1 $560 $405 $707 $710 reversed $257 $-1 #
vertex $-1 $573 $711 #
ellipse-curve $-1 433.07086614173198 39.370078740157503 236.220472440945 0 1 6.12303176911189e-017 27.8388496530137 1.7045816084093201e-015 -27.8388496530137 1 I I #
edge $-1 $411 0 $420 314.96062992126002 $408 $712 forward 7 unknown #
face $713 $714 $409 $9 $-1 $715 reversed single #
point $-1 472.44094488189 39.370078740157503 236.220472440945 #
point $-1 472.44094488189 118.110236220472 236.220472440945 #
coedge $-1 $563 $413 $416 $587 reversed $265 $-1 #
ellipse-curve $-1 433.07086614173198 118.110236220472 551.18110236220502 0 -1 -6.12303176911189e-017 27.8388496530137 -1.7045816084093201e-015 27.8388496530137 1 I I #
coedge $-1 $416 $415 $562 $698 forward $417 $-1 #
edge $-1 $700 -157.48031496062998 $418 157.48031496062998 $584 $716 forward 7 unknown #
face $717 $425 $417 $9 $-1 $718 reversed single #
point $-1 433.07086614173198 118.110236220472 590.55118110236197 #
point $-1 472.44094488189 118.110236220472 551.18110236220502 #
straight-curve $-1 472.44094488189 39.370078740157503 236.220472440945 0 0 1 I I #
coedge $-1 $423 $560 $566 $703 forward $257 $-1 #
vertex $-1 $698 $719 #
straight-curve $-1 275.590551181102 39.370078740157503 590.55118110236197 -1 0 0 I I #
model_id-kcp-attrib $-1 $-1 $-1 $425 1 987434303 203 2060124161 23 #
face $720 $-1 $451 $9 $-1 $721 reversed single #
plane-surface $-1 275.590551181102 39.370078740157503 196.85039370078701 0 -1 0 0 0 -1 forward_v I I I I #
coedge $-1 $429 $428 $450 $615 reversed $430 $-1 #
coedge $-1 $432 $699 $690 $722 forward $265 $-1 #
coedge $-1 $691 $450 $432 $601 forward $451 $-1 #
edge $-1 $602 78.740157480314991 $723 157.48031496062998 $432 $724 forward 7 unknown #
vertex $-1 $433 $725 #
straight-curve $-1 196.85039370078701 118.110236220472 118.110236220472 0 0 1 I I #
coedge $-1 $726 $727 $728 $729 reversed $434 $-1 #
model_id-kcp-attrib $-1 $-1 $-1 $435 1 987434303 203 2060124161 19 #
face $730 $731 $732 $9 $-1 $733 forward single #
plane-surface $-1 275.590551181102 118.110236220472 0 0 1 0 0 0 1 forward_v I I I I #
straight-curve $-1 196.85039370078701 78.740157480315006 118.110236220472 0 0 1 I I #
coedge $-1 $443 $572 $442 $610 forward $451 $-1 #
edge $-1 $575 -157.48031496062998 $445 -78.74015748031502 $442 $734 forward 7 unknown #
straight-curve $-1 354.33070866141702 78.740157480315006 196.85039370078701 0 -1 0 I I #
point $-1 354.33070866141702 118.110236220472 196.85039370078701 #
model_id-kcp-attrib $-1 $-1 $-1 $448 1 987434303 203 2060124161 14 #
plane-surface $-1 78.740157480315006 78.740157480315006 236.220472440945 -1 0 0 0 0 1 forward_v I I I I #
edge $-1 $452 0 $602 39.370078740156998 $598 $735 forward 7 unknown #
point $-1 196.85039370078701 78.740157480315006 196.85039370078701 #
straight-curve $-1 -275.59055118110251 59.055118110236002 0 0 0 -1 I I #
point $-1 -275.59055118110251 -59.055118110236002 -413.38582677165351 #
straight-curve $-1 -275.59055118110251 0 -413.38582677165351 0 1 0 I I #
point $-1 -275.59055118110251 59.055118110236002 -413.38582677165351 #
loop $-1 $-1 $501 $474 #
plane-surface $-1 -196.85039370078749 -19.685039370078499 137.79527559055151 -1 0 0 0 0 1 forward_v I I I I #
coedge $-1 $736 $737 $500 $647 forward $475 $-1 #
coedge $-1 $738 $477 $737 $739 reversed $319 $-1 #
coedge $-1 $477 $738 $478 $629 forward $319 $-1 #
coedge $-1 $480 $500 $477 $627 reversed $203 $-1 #
edge $-1 $630 -157.48031496062987 $740 157.4803149606301 $477 $741 forward 7 unknown #
coedge $-1 $479 $478 $742 $743 reversed $191 $-1 #
edge $-1 $744 0 $630 78.740157480314508 $625 $745 forward 7 unknown #
vertex $-1 $629 $746 #
ellipse-curve $-1 157.48031496062947 59.05511811023591 137.79527559055151 0 -1 0 39.370078740157503 0 0 1 I I #
coedge $-1 $742 $486 $482 $633 forward $492 $-1 #
edge $747 $488 -78.740157480314849 $634 236.22047244094517 $482 $748 forward 7 unknown #
vertex $-1 $633 $749 #
straight-curve $-1 196.85039370078749 -19.685039370078499 137.79527559055151 0 1 0 I I #
point $-1 196.85039370078749 59.055118110236016 137.79527559055151 #
convexity-sys-attrib $-1 $-1 $-1 $487 #
ellipse-curve $-1 157.48031496062947 -19.685039370078574 -177.16535433070851 0 -1 0 39.370078740157503 0 0 1 I I #
point $-1 196.85039370078749 -19.685039370078499 -177.16535433070851 #
coedge $-1 $491 $750 $751 $752 forward $492 $-1 #
coedge $-1 $751 $501 $496 $642 reversed $621 $-1 #
edge $-1 $644 0 $503 78.740157480314508 $496 $753 forward 7 unknown #
convexity-sys-attrib $-1 $-1 $-1 $497 #
vertex $-1 $497 $754 #
ellipse-curve $-1 -157.48031496063049 -19.685039370078574 -177.16535433070851 0 -1 0 39.370078740157503 0 0 1 I I #
cone-surface $-1 -157.48031496063049 -19.685039370078574 -177.16535433070851 0 1 0 39.370078740157503 0 0 1 I I 0 1 39.370078740157503 forward I I I I #
edge $-1 $740 1.5707963267948966 $649 3.1415926535897931 $623 $755 forward 7 unknown #
coedge $-1 $501 $751 $736 $756 forward $621 $-1 #
vertex $-1 $756 $757 #
straight-curve $-1 -196.85039370078749 59.055118110235924 -98.425196850393661 0 0 -1 I I #
point $-1 -196.85039370078749 59.055118110236016 -177.16535433070851 #
plane-surface $-1 -3.0072120756858218e-013 -19.685039370078584 -19.685039370078727 1.1033907296016233e-018 1 3.5016547902149807e-017 0 -3.5016547902149807e-017 1 forward_v I I I I #
coedge $-1 $758 $508 $527 $668 reversed $346 $-1 #
coedge $-1 $508 $758 $509 $656 forward $346 $-1 #
coedge $-1 $510 $509 $759 $760 reversed $208 $-1 #
edge $-1 $761 0 $657 39.370078740156998 $654 $762 forward 7 unknown #
vertex $-1 $656 $763 #
straight-curve $-1 -78.740157480315361 59.055118110236037 -216.53543307086647 -1 0 0 I I #
coedge $-1 $759 $517 $513 $660 forward $523 $-1 #
edge $764 $519 -9.842519685039349 $661 68.897637795275642 $513 $765 forward 7 unknown #
vertex $-1 $660 $766 #
straight-curve $-1 78.740157480314508 19.685039370079004 -216.5354330708665 0 1 0 I I #
point $-1 78.740157480314508 59.055118110236002 -216.5354330708665 #
convexity-sys-attrib $-1 $-1 $-1 $518 #
ellipse-curve $-1 39.37007874015751 19.685039370079039 -295.27559055118149 0 -1 0 39.370078740157503 0 0 1 I I #
point $-1 78.740157480314508 19.685039370079004 -295.27559055118149 #
coedge $-1 $522 $759 $758 $767 forward $523 $-1 #
edge $-1 $670 0 $531 39.370078740156998 $527 $768 forward 7 unknown #
convexity-sys-attrib $-1 $-1 $-1 $528 #
vertex $-1 $528 $769 #
ellipse-curve $-1 -39.37007874015751 19.685039370079039 -295.27559055118149 0 -1 0 39.370078740157503 0 0 1 I I #
straight-curve $-1 -78.740157480315503 59.055118110236037 -285.43307086614215 0 0 -1 I I #
point $-1 -78.740157480315503 59.055118110236002 -295.27559055118149 #
plane-surface $-1 -3.0237388623410991e-013 19.685039370079039 -271.18079128472601 0 1 0 0 0 1 forward_v I I I I #
coedge $-1 $547 $542 $538 $676 forward $535 $-1 #
edge $770 $544 -226.37795275590551 $677 -147.63779527559049 $538 $771 forward 7 unknown #
vertex $-1 $551 $772 #
straight-curve $-1 -275.59055118110251 -19.685039370078499 334.64566929133849 0 1 0 I I #
point $-1 -275.59055118110251 59.055118110236016 334.64566929133849 #
convexity-sys-attrib $-1 $-1 $-1 $543 #
straight-curve $-1 0 -19.685039370078584 413.38582677165351 -1 0 0 I I #
point $-1 -275.59055118110251 -19.685039370078584 413.38582677165351 #
convexity-sys-attrib $-1 $-1 $-1 $551 #
straight-curve $-1 -2.5579538487363607e-013 -19.685039370078584 334.64566929133849 1 0 0 I I #
coedge $-1 $728 $773 $774 $775 forward $555 $-1 #
coedge $-1 $776 $557 $773 $777 reversed $395 $-1 #
coedge $-1 $557 $776 $778 $779 reversed $395 $-1 #
coedge $-1 $780 $774 $557 $689 forward $781 $-1 #
edge $-1 $782 0 $783 78.74015748031502 $557 $784 forward 7 unknown #
coedge $-1 $559 $558 $599 $722 reversed $243 $-1 #
coedge $-1 $707 $600 $558 $692 forward $451 $-1 #
edge $-1 $723 -39.370078740156998 $695 39.370078740157503 $558 $785 forward 7 unknown #
coedge $-1 $567 $566 $559 $694 reversed $568 $-1 #
edge $-1 $786 -39.370078740156998 $696 39.370078740157503 $559 $787 forward 7 unknown #
vertex $-1 $561 $788 #
vertex $-1 $561 $789 #
ellipse-curve $-1 118.110236220472 39.370078740157503 236.220472440945 0 1 6.12303176911189e-017 -27.8388496530137 1.7045816084093201e-015 -27.8388496530137 1 I I #
edge $-1 $593 -39.370078740157503 $700 39.370078740156998 $562 $790 forward 7 unknown #
coedge $-1 $599 $563 $567 $704 reversed $265 $-1 #
vertex $-1 $564 $791 #
ellipse-curve $-1 118.110236220472 118.110236220472 551.18110236220502 0 -1 -6.12303176911189e-017 -27.8388496530137 -1.7045816084093201e-015 27.8388496530137 1 I I #
ellipse-curve $-1 118.110236220472 39.370078740157503 551.18110236220502 0 1 6.12303176911189e-017 -27.8388496530137 -1.7045816084093201e-015 27.8388496530137 1 I I #
edge $-1 $696 0 $569 314.96062992126002 $566 $792 forward 7 unknown #
edge $-1 $786 0 $570 314.96062992126002 $567 $793 forward 7 unknown #
point $-1 78.740157480315006 39.370078740157503 551.18110236220502 #
point $-1 78.740157480315006 118.110236220472 551.18110236220502 #
coedge $-1 $572 $691 $577 $710 forward $451 $-1 #
straight-curve $-1 433.07086614173198 78.740157480315006 196.85039370078701 0 1 0 I I #
point $-1 433.07086614173198 118.110236220472 196.85039370078701 #
edge $-1 $695 -157.48031496062998 $578 157.48031496062998 $577 $794 forward 7 unknown #
point $-1 433.07086614173198 39.370078740157503 196.85039370078701 #
straight-curve $-1 472.44094488189 118.110236220472 236.220472440945 0 0 1 I I #
model_id-kcp-attrib $-1 $-1 $-1 $581 1 987434303 203 2060124161 15 #
face $795 $796 $797 $9 $-1 $798 forward single #
plane-surface $-1 472.44094488189 78.740157480315006 236.220472440945 1 0 0 0 0 -1 forward_v I I I I #
straight-curve $-1 275.590551181102 118.110236220472 590.55118110236197 1 0 0 I I #
model_id-kcp-attrib $-1 $-1 $-1 $588 1 987434303 203 2060124161 22 #
plane-surface $-1 275.590551181102 78.740157480315006 590.55118110236197 0 0 1 1 0 0 forward_v I I I I #
point $-1 118.110236220472 39.370078740157503 590.55118110236197 #
model_id-kcp-attrib $-1 $-1 $-1 $596 1 987434303 203 2060124161 24 #
plane-surface $-1 275.590551181102 78.740157480315006 196.85039370078701 0 0 -1 -1 0 0 forward_v I I I I #
edge $-1 $786 -0.78539816339744828 $723 0.78539816339744828 $690 $799 forward 7 unknown #
vertex $-1 $692 $800 #
straight-curve $-1 275.590551181102 118.110236220472 196.85039370078701 -1 0 0 I I #
point $-1 196.85039370078701 118.110236220472 196.85039370078701 #
coedge $-1 $801 $604 $802 $803 reversed $434 $-1 #
coedge $-1 $604 $801 $804 $805 forward $434 $-1 #
coedge $-1 $806 $685 $604 $729 forward $555 $-1 #
edge $-1 $807 -275.59055118110302 $808 275.590551181102 $728 $809 forward 7 unknown #
model_id-kcp-attrib $-1 $-1 $-1 $606 1 987434303 203 2060124161 20 #
face $810 $588 $781 $9 $-1 $811 forward single #
loop $-1 $-1 $812 $606 #
plane-surface $-1 275.590551181102 59.055118110236201 0 0 0 -1 -1 0 0 forward_v I I I I #
straight-curve $-1 275.590551181102 118.110236220472 196.85039370078701 -1 0 0 I I #
straight-curve $-1 196.85039370078701 78.740157480315006 196.85039370078701 0 1 0 I I #
coedge $-1 $813 $623 $648 $756 reversed $475 $-1 #
coedge $-1 $623 $813 $624 $739 forward $475 $-1 #
coedge $-1 $625 $624 $814 $815 reversed $319 $-1 #
edge $-1 $816 0 $740 78.740157480314508 $737 $817 forward 7 unknown #
vertex $-1 $739 $818 #
straight-curve $-1 -3.979039320256561e-013 59.055118110235924 177.16535433070845 -1 0 0 I I #
coedge $-1 $814 $632 $628 $743 forward $492 $-1 #
edge $819 $634 0 $744 1.5707963267948966 $628 $820 forward 7 unknown #
vertex $-1 $743 $821 #
straight-curve $-1 157.48031496062947 -19.685039370078499 177.16535433070845 0 1 0 I I #
point $-1 157.48031496062947 59.055118110236016 177.16535433070845 #
convexity-sys-attrib $-1 $-1 $-1 $633 #
straight-curve $-1 196.85039370078749 -19.685039370078584 -98.425196850393661 0 0 1 I I #
point $-1 196.85039370078749 -19.685039370078499 137.79527559055151 #
coedge $-1 $640 $814 $813 $822 forward $492 $-1 #
coedge $-1 $648 $641 $640 $752 reversed $621 $-1 #
edge $823 $824 -236.22047244094517 $644 78.740157480314849 $751 $825 forward 7 unknown #
straight-curve $-1 -196.85039370078749 -19.685039370078499 -177.16535433070851 0 1 0 I I #
point $-1 -196.85039370078749 -19.685039370078499 -177.16535433070851 #
ellipse-curve $-1 -157.48031496063049 59.05511811023591 137.79527559055151 0 -1 0 39.370078740157503 0 0 1 I I #
edge $-1 $824 0 $649 78.740157480314508 $648 $826 forward 7 unknown #
point $-1 -196.85039370078749 59.055118110236016 137.79527559055151 #
coedge $-1 $654 $653 $667 $767 reversed $346 $-1 #
coedge $-1 $667 $659 $655 $760 forward $523 $-1 #
edge $827 $661 -157.48031496062987 $761 1.4210854715202004e-013 $655 $828 forward 7 unknown #
vertex $-1 $760 $829 #
straight-curve $-1 -78.740157480315503 19.685039370079004 -216.5354330708665 0 1 0 I I #
point $-1 -78.740157480315503 59.055118110236002 -216.5354330708665 #
convexity-sys-attrib $-1 $-1 $-1 $660 #
straight-curve $-1 78.740157480314508 19.685039370079039 -285.43307086614215 0 0 1 I I #
point $-1 78.740157480314508 19.685039370079004 -216.5354330708665 #
edge $830 $761 -68.897637795275642 $670 9.842519685039349 $758 $831 forward 7 unknown #
straight-curve $-1 -78.740157480315503 19.685039370079004 -295.27559055118149 0 1 0 I I #
point $-1 -78.740157480315503 19.685039370079004 -295.27559055118149 #
convexity-sys-attrib $-1 $-1 $-1 $676 #
straight-curve $-1 -275.59055118110251 -19.685039370078584 187.007874015748 0 0 -1 I I #
point $-1 -275.59055118110251 -19.685039370078499 334.64566929133849 #
coedge $-1 $685 $806 $686 $777 forward $555 $-1 #
coedge $-1 $688 $802 $685 $775 reversed $781 $-1 #
edge $-1 $782 -39.370078740157503 $807 39.370078740156998 $685 $832 forward 7 unknown #
coedge $-1 $687 $686 $833 $834 forward $395 $-1 #
edge $-1 $835 -275.590551181102 $782 275.59055118110302 $686 $836 forward 7 unknown #
coedge $-1 $837 $838 $687 $779 forward $797 $-1 #
edge $839 $783 -275.59055118110302 $840 275.590551181102 $687 $841 forward 7 unknown #
coedge $-1 $842 $688 $838 $843 forward $781 $-1 #
loop $-1 $-1 $688 $731 #
vertex $-1 $689 $844 #
vertex $-1 $689 $845 #
straight-curve $-1 551.18110236220502 39.370078740157503 748.03149606299201 0 0 1 I I #
straight-curve $-1 118.110236220472 78.740157480315006 196.85039370078701 0 -1 0 I I #
vertex $-1 $722 $846 #
straight-curve $-1 78.740157480315006 78.740157480315006 236.220472440945 0 -1 0 I I #
point $-1 118.110236220472 39.370078740157503 196.85039370078701 #
point $-1 78.740157480315006 39.370078740157503 236.220472440945 #
straight-curve $-1 118.110236220472 78.740157480315006 590.55118110236197 0 1 0 I I #
point $-1 118.110236220472 118.110236220472 590.55118110236197 #
straight-curve $-1 78.740157480315006 39.370078740157503 236.220472440945 0 0 1 I I #
straight-curve $-1 78.740157480315006 118.110236220472 236.220472440945 0 0 1 I I #
straight-curve $-1 275.590551181102 39.370078740157503 196.85039370078701 1 0 0 I I #
model_id-kcp-attrib $-1 $-1 $-1 $714 1 987434303 203 2060124161 16 #
face $847 $848 $849 $9 $-1 $850 forward single #
loop $-1 $-1 $778 $714 #
plane-surface $-1 275.590551181102 59.055118110236201 826.77165354330702 0 0 1 1 0 0 forward_v I I I I #
ellipse-curve $-1 118.110236220472 118.110236220472 236.220472440945 0 -1 -6.12303176911189e-017 -27.8388496530137 1.7045816084093201e-015 -27.8388496530137 1 I I #
point $-1 118.110236220472 118.110236220472 196.85039370078701 #
coedge $-1 $727 $726 $851 $852 forward $434 $-1 #
coedge $-1 $774 $853 $726 $803 forward $781 $-1 #
edge $-1 $854 0 $807 748.03149606299201 $726 $855 forward 7 unknown #
coedge $-1 $856 $857 $727 $805 reversed $858 $-1 #
edge $859 $860 0 $808 748.03149606299201 $804 $861 forward 7 unknown #
coedge $-1 $773 $728 $857 $862 forward $555 $-1 #
vertex $-1 $775 $863 #
vertex $-1 $729 $864 #
straight-curve $-1 275.590551181102 118.110236220472 748.03149606299201 -1 0 0 I I #
model_id-kcp-attrib $-1 $-1 $-1 $731 1 987434303 203 2060124161 21 #
plane-surface $-1 551.18110236220502 59.055118110236201 0 1 0 0 0 0 -1 forward_v I I I I #
coedge $-1 $865 $851 $853 $866 reversed $732 $-1 #
coedge $-1 $737 $736 $750 $822 reversed $475 $-1 #
coedge $-1 $750 $742 $738 $815 forward $492 $-1 #
edge $867 $744 -157.48031496062987 $816 157.4803149606301 $738 $868 forward 7 unknown #
vertex $-1 $815 $869 #
straight-curve $-1 -157.48031496063049 -19.685039370078499 177.16535433070845 0 1 0 I I #
point $-1 -157.48031496063049 59.055118110236016 177.16535433070845 #
convexity-sys-attrib $-1 $-1 $-1 $743 #
ellipse-curve $-1 157.48031496062947 -19.685039370078595 137.79527559055151 0 -1 0 39.370078740157503 0 0 1 I I #
point $-1 157.48031496062947 -19.685039370078499 177.16535433070845 #
edge $870 $816 1.5707963267948966 $824 3.1415926535897931 $813 $871 forward 7 unknown #
convexity-sys-attrib $-1 $-1 $-1 $752 #
vertex $-1 $822 $872 #
straight-curve $-1 -196.85039370078749 -19.685039370078584 -98.425196850393661 0 0 -1 I I #
straight-curve $-1 -196.85039370078749 -19.685039370078499 137.79527559055151 0 1 0 I I #
convexity-sys-attrib $-1 $-1 $-1 $760 #
straight-curve $-1 -78.740157480315361 19.685039370079039 -216.53543307086647 -1 0 0 I I #
point $-1 -78.740157480315503 19.685039370079004 -216.5354330708665 #
convexity-sys-attrib $-1 $-1 $-1 $767 #
straight-curve $-1 -78.740157480315503 19.685039370079039 -285.43307086614215 0 0 -1 I I #
straight-curve $-1 551.18110236220502 78.740157480315006 748.03149606299201 0 1 0 I I #
coedge $-1 $857 $873 $776 $834 reversed $858 $-1 #
edge $874 $835 0 $840 78.74015748031502 $776 $875 forward 7 unknown #
vertex $-1 $777 $876 #
straight-curve $-1 275.590551181102 39.370078740157503 748.03149606299201 1 0 0 I I #
coedge $-1 $877 $778 $873 $878 reversed $797 $-1 #
coedge $-1 $778 $877 $780 $843 reversed $797 $-1 #
attrib_edge_convexity-kcp-attrib $-1 $879 $-1 $779 1 #
vertex $-1 $834 $880 #
straight-curve $-1 275.590551181102 39.370078740157503 826.77165354330702 -1 0 0 I I #
coedge $-1 $853 $780 $881 $882 reversed $781 $-1 #
edge $883 $783 19.685039370078698 $884 59.055118110236201 $838 $885 forward 7 unknown #
point $-1 551.18110236220502 39.370078740157503 748.03149606299201 #
point $-1 551.18110236220502 39.370078740157503 826.77165354330702 #
point $-1 78.740157480315006 118.110236220472 236.220472440945 #
model_id-kcp-attrib $-1 $-1 $-1 $796 1 987434303 203 2060124161 17 #
face $886 $435 $858 $9 $-1 $887 forward single #
loop $-1 $-1 $881 $796 #
plane-surface $-1 275.590551181102 0 0 0 -1 0 0 0 -1 forward_v I I I I #
coedge $-1 $812 $888 $801 $852 reversed $732 $-1 #
edge $-1 $854 -275.59055118110302 $860 275.590551181102 $801 $889 forward 7 unknown #
coedge $-1 $802 $842 $812 $866 forward $781 $-1 #
vertex $-1 $803 $890 #
straight-curve $-1 551.18110236220502 118.110236220472 0 0 0 1 I I #
coedge $-1 $891 $804 $888 $892 forward $858 $-1 #
coedge $-1 $804 $833 $806 $862 reversed $858 $-1 #
loop $-1 $-1 $833 $848 #
attrib_edge_convexity-kcp-attrib $-1 $893 $-1 $805 1 #
vertex $-1 $805 $894 #
straight-curve $-1 0 118.110236220472 0 0 0 1 I I #
edge $895 $808 -39.370078740156998 $835 39.370078740157503 $806 $896 forward 7 unknown #
point $-1 551.18110236220502 118.110236220472 748.03149606299201 #
point $-1 0 118.110236220472 748.03149606299201 #
coedge $-1 $888 $812 $897 $898 reversed $732 $-1 #
edge $-1 $899 -59.055118110236201 $854 59.055118110235803 $812 $900 forward 7 unknown #
convexity-sys-attrib $-1 $-1 $-1 $815 #
straight-curve $-1 -3.979039320256561e-013 -19.685039370078584 177.16535433070845 -1 0 0 I I #
point $-1 -157.48031496063049 -19.685039370078499 177.16535433070845 #
convexity-sys-attrib $-1 $-1 $-1 $822 #
ellipse-curve $-1 -157.48031496063049 -19.685039370078595 137.79527559055151 0 -1 0 39.370078740157503 0 0 1 I I #
point $-1 -196.85039370078749 -19.685039370078499 137.79527559055151 #
coedge $-1 $833 $891 $837 $878 forward $858 $-1 #
attrib_edge_convexity-kcp-attrib $-1 $901 $-1 $834 1 #
straight-curve $-1 0 39.370078740157503 748.03149606299201 0 0 1 I I #
point $-1 0 39.370078740157503 748.03149606299201 #
coedge $-1 $838 $837 $902 $903 reversed $797 $-1 #
edge $904 $905 -59.055118110236201 $840 -19.685039370078698 $837 $906 forward 7 unknown #
convexity-sys-attrib $-1 $-1 $839 $779 #
point $-1 0 39.370078740157503 826.77165354330702 #
coedge $-1 $902 $897 $842 $882 forward $849 $-1 #
edge $907 $899 0 $884 826.77165354330702 $881 $908 forward 7 unknown #
attrib_edge_convexity-kcp-attrib $-1 $909 $-1 $843 1 #
vertex $-1 $903 $910 #
straight-curve $-1 551.18110236220502 59.055118110236201 826.77165354330702 0 -1 0 I I #
model_id-kcp-attrib $-1 $-1 $-1 $848 1 987434303 203 2060124161 18 #
plane-surface $-1 0 59.055118110236201 0 -1 0 0 0 0 1 forward_v I I I I #
coedge $-1 $851 $865 $856 $892 reversed $732 $-1 #
straight-curve $-1 275.590551181102 118.110236220472 0 -1 0 0 I I #
point $-1 551.18110236220502 118.110236220472 0 #
coedge $-1 $873 $856 $911 $912 forward $858 $-1 #
edge $913 $860 -59.055118110235803 $914 59.055118110236201 $856 $915 forward 7 unknown #
convexity-sys-attrib $-1 $-1 $859 $805 #
point $-1 0 118.110236220472 0 #
attrib_edge_convexity-kcp-attrib $-1 $916 $-1 $862 1 #
straight-curve $-1 0 78.740157480315006 748.03149606299201 0 -1 0 I I #
coedge $-1 $881 $911 $865 $898 forward $849 $-1 #
edge $917 $914 -275.590551181102 $899 275.59055118110302 $897 $918 forward 7 unknown #
vertex $-1 $882 $919 #
straight-curve $-1 551.18110236220502 59.055118110236201 0 0 1 0 I I #
convexity-sys-attrib $-1 $-1 $874 $834 #
coedge $-1 $911 $881 $877 $903 forward $849 $-1 #
edge $920 $884 -275.59055118110302 $905 275.590551181102 $877 $921 forward 7 unknown #
attrib_edge_convexity-kcp-attrib $-1 $922 $-1 $878 1 #
vertex $-1 $878 $923 #
straight-curve $-1 0 59.055118110236201 826.77165354330702 0 1 0 I I #
attrib_edge_convexity-kcp-attrib $-1 $924 $-1 $882 1 #
straight-curve $-1 551.18110236220502 0 0 0 0 1 I I #
convexity-sys-attrib $-1 $-1 $883 $843 #
point $-1 551.18110236220502 0 826.77165354330702 #
coedge $-1 $897 $902 $891 $912 reversed $849 $-1 #
edge $925 $914 0 $905 826.77165354330702 $911 $926 forward 7 unknown #
attrib_edge_convexity-kcp-attrib $-1 $927 $-1 $892 1 #
vertex $-1 $912 $928 #
straight-curve $-1 0 59.055118110236201 0 0 -1 0 I I #
convexity-sys-attrib $-1 $-1 $895 $862 #
attrib_edge_convexity-kcp-attrib $-1 $929 $-1 $898 1 #
straight-curve $-1 275.590551181102 0 0 1 0 0 I I #
point $-1 551.18110236220502 0 0 #
attrib_edge_convexity-kcp-attrib $-1 $930 $-1 $903 1 #
straight-curve $-1 275.590551181102 0 826.77165354330702 -1 0 0 I I #
convexity-sys-attrib $-1 $-1 $904 $878 #
point $-1 0 0 826.77165354330702 #
convexity-sys-attrib $-1 $-1 $907 $882 #
attrib_edge_convexity-kcp-attrib $-1 $931 $-1 $912 1 #
straight-curve $-1 0 0 0 0 0 1 I I #
convexity-sys-attrib $-1 $-1 $913 $892 #
point $-1 0 0 0 #
convexity-sys-attrib $-1 $-1 $917 $898 #
convexity-sys-attrib $-1 $-1 $920 $903 #
convexity-sys-attrib $-1 $-1 $925 $912 #
End-of-ACIS-data 