**ABCDEFGHIJKLMNOPQRSTUVWXYZabcdefghijklmnopqrstuvwxyz**************************
**PARASOLID !"#$%&'()*+,-./:;<=>?@[\]^_`{|}~0123456789**************************
**PART1;
MC=unknown;
MC_MODEL=unknown;
MC_ID=unknown;
OS=unknown;
OS_RELEASE=unknown;
FRU=sdl_parasolid_customer_support;
APPL=parasolid_acceptance_tests;
SITE=unknown;
USER=unknown;
FORMAT=text;
GUISE=transmit;
KEY=part;
FILE=part.xmt_txt;
DATE=unknown;
**PART2;
SCH=SCH_501046_5054;
USFLD_SIZE=0;
**PART3;
**END_OF_HEADER*****************************************************************
T50 : TRANSMIT FILE created by modeller version 50104615 SCH_501046_50540 12 1 1
005 0 0 0 0 0 1e3 1e-8 2 2 0 3 4 1 5 6 7 8 102 4 2 part13 5 105 0 1 0 9 10 11 51
 6 965 0 9 12 0 0 +8 2 3 0 1 612303176911189e-31 1 1 0 0 31 7 973 0 10 13 0 0 +8
 2 3 0 1 612303176911189e-31 1 0 0 1 29 8 975 0 11 14 0 8 3 2 18 11 1000 0 15 0
 16 8 ?29 14 977 0 16 17 8 8 2 2 18 16 1002 0 18 11 19 14 ?29 17 978 0 19 20 14
 9 2 3 18 19 1003 0 21 16 22 17 ?29 20 926 0 22 23 17 5 3 3 18 22 951 0 24 19 25
 20 ?29 23 928 0 25 26 20 5 2 3 18 25 953 0 27 22 28 23 ?29 26 929 0 28 29 23 6
 2 2 18 28 954 0 30 25 31 26 ?29 29 874 0 31 32 26 12 1 14 18 31 903 0 33 28 34
 29 ?29 32 875 0 34 35 29 11 3 15 18 34 904 0 36 31 37 32 ?29 35 876 0 37 38 32
 12 3 14 18 37 905 0 39 34 40 35 ?29 38 817 0 40 41 35 11 1 5 18 40 846 0 42 37
 43 38 ?29 41 818 0 43 44 38 12 1 6 18 43 847 0 45 40 46 41 ?29 44 819 0 46 47 4
1 12 3 6 18 46 848 0 48 43 49 44 ?29 47 761 0 49 50 44 3 1 15 18 49 790 0 51 46
 52 47 ?29 50 762 0 52 53 47 2 1 14 18 52 791 0 54 49 55 50 ?29 53 764 0 55 56 5
0 2 3 14 18 55 793 0 57 52 58 53 ?29 56 705 0 58 59 53 2 1 6 18 58 734 0 60 55 6
1 56 ?29 59 707 0 61 62 56 3 3 5 18 61 736 0 63 58 64 59 ?29 62 708 0 64 65 59 2
 3 6 18 64 737 0 66 61 67 62 ?29 65 642 0 67 68 62 0 1 21 18 67 675 0 69 64 70 6
5 ?29 68 645 0 70 71 65 14 1 21 18 70 678 0 72 67 73 68 ?29 71 646 0 74 75 68 0
 1 19 18 74 681 0 76 77 78 71 ?29 75 647 0 77 79 71 0 3 19 18 77 680 0 80 73 74
 75 ?29 79 648 0 73 81 75 14 3 19 18 73 679 0 82 70 77 79 ?29 81 596 0 78 83 79
 14 1 19 18 78 594 0 84 74 85 81 ?29 83 522 0 85 86 81 6 3 2 18 85 582 0 87 78 8
8 83 ?29 86 376 0 88 89 83 5 2 5 18 88 429 0 90 85 91 86 ?29 89 377 0 91 92 86 5
 3 5 18 91 430 0 93 88 94 89 ?29 92 379 0 94 95 89 9 3 5 18 94 432 0 96 91 97 92
 ?29 95 386 0 97 98 92 9 3 3 18 97 437 0 99 94 100 95 ?29 98 335 0 100 101 95 9
 2 5 18 100 333 0 102 97 103 98 ?29 101 98 0 104 105 98 3 3 15 18 104 131 0 106
 107 108 101 ?29 105 100 0 108 109 101 11 1 15 18 108 133 0 110 104 111 105 ?29
 109 101 0 112 113 105 3 1 5 18 112 136 0 114 111 0 109 ?29 113 103 0 111 115 10
9 11 3 5 18 111 134 0 116 108 112 113 ?29 115 55 0 103 117 113 0 0 21 18 103 20
 0 118 100 119 115 ?29 117 52 0 119 120 115 14 0 21 18 119 14 0 121 103 122 117
 ?29 120 38 0 123 124 117 0 0 0 18 123 8 0 125 126 107 120 ?29 124 37 0 126 127
 120 0 3 0 18 126 10 0 128 122 123 124 ?29 127 36 0 122 129 124 14 3 0 18 122 12
 0 130 119 126 127 ?29 129 35 0 107 0 127 14 0 0 18 107 7 0 131 123 104 129 ?17
 131 132 121 133 107 134 135 0 15 132 29 0 121 136 0 17 121 132 137 131 119 138
 139 0 17 133 132 131 137 123 118 140 0 17 134 141 142 143 123 131 135 0 16 135
 9 0 131 144 145 146 ?0 0 16 144 11 0 125 147 135 148 ?0 0 16 145 3 0 130 135 14
9 150 ?0 0 30 146 39 0 135 0 150 0 +7 0 0 1 0 0 30 150 40 0 145 146 151 0 +14 1.
5 0 0 1 0 30 151 41 0 147 150 148 0 +7 3 0 -1 0 0 16 147 13 0 128 139 144 151 ?0
 0 30 148 42 0 144 151 152 0 +0 1.5 0 0 -1 0 30 152 47 0 139 148 153 0 +14 0 0 0
 0 1 16 139 15 0 121 154 147 152 ?0 0 30 153 48 0 154 152 155 0 +14 3 0 0 0 1 16
 154 17 0 156 157 139 153 ?0 0 30 155 49 0 157 153 158 0 +0 3 0 0 0 1 16 157 19
 0 159 140 154 155 ?0 0 30 158 50 0 140 155 160 0 +0 0 0 0 0 1 16 140 21 0 118 1
61 157 158 ?0 0 30 160 56 0 161 158 162 0 +14 1.5 21 0 -1 0 16 161 22 0 163 164
 140 160 ?0 0 30 162 58 0 164 160 165 0 +0 1.5 21 0 1 0 16 164 28 0 166 167 161
 162 ?0 0 30 165 59 0 167 162 168 0 +7 0 21 -1 0 0 16 167 31 0 137 169 164 165 ?
0 0 30 168 96 0 170 165 171 0 +7 1 5 1 0 0 16 170 128 0 172 173 174 168 ?0 0 30
 171 95 0 174 168 175 0 +11 2 5 0 1 0 16 174 129 0 116 170 0 171 ?0 0 30 175 94
 0 176 171 177 0 +7 3 5 -1 0 0 16 176 126 0 178 179 173 175 ?180 180 30 177 93 0
 173 175 181 0 +3 2 5 0 -1 0 16 173 127 0 114 176 170 177 ?0 0 30 181 88 0 179 1
77 182 0 +11 2 15 0 -1 0 16 179 121 0 110 183 176 181 ?0 0 30 182 87 0 183 181 1
84 0 +7 3 15 1 0 0 16 183 120 0 185 186 179 182 ?0 0 30 184 86 0 186 182 187 0 +
3 2 15 0 1 0 16 186 119 0 106 149 183 184 ?0 0 30 187 85 0 149 184 188 0 +7 1 15
 -1 0 0 16 149 118 0 189 145 186 187 ?0 0 30 188 230 0 169 187 190 0 +12 2 6 0 1
 0 16 169 304 0 48 191 167 188 ?0 0 30 190 228 0 192 188 193 0 +2 2 6 0 -1 0 16
 192 302 0 194 195 196 190 ?0 0 30 193 227 0 196 190 197 0 +12 1 6 0 0 1 16 196
 300 0 198 192 199 193 ?0 0 30 197 226 0 191 193 200 0 +12 3 6 0 0 1 16 191 299
 0 201 199 169 197 ?0 0 30 200 225 0 195 197 202 0 +2 3 6 0 0 1 16 195 298 0 203
 204 192 200 ?0 0 30 202 224 0 204 200 205 0 +2 1 6 0 0 1 16 204 297 0 206 207 1
95 202 ?0 0 30 205 223 0 199 202 208 0 +12 2 14 0 -1 0 16 199 296 0 209 196 191
 205 ?0 0 30 208 221 0 207 205 210 0 +2 2 14 0 1 0 16 207 294 0 211 180 204 208
 ?0 0 30 210 336 0 212 208 213 0 +9 2 5 0 -1 0 16 212 334 0 102 214 180 210 ?0 0
 30 213 340 0 214 210 215 0 +7 2 5 -1 0 0 16 214 338 0 216 217 212 213 ?0 0 30 2
15 343 0 217 213 218 0 +5 2 5 0 1 0 16 217 341 0 93 219 214 215 ?0 0 30 218 374
 0 219 215 220 0 +9 2.5 3 0 1 0 16 219 428 0 221 222 217 218 ?0 0 30 220 372 0 2
22 218 223 0 +5 2.5 3 0 -1 0 16 222 426 0 224 225 219 220 ?0 0 30 223 371 0 226
 220 227 0 +9 2 3 0 0 1 16 226 424 0 228 229 225 223 ?0 0 30 227 370 0 225 223 2
30 0 +9 3 3 0 0 1 16 225 423 0 96 226 222 227 ?0 0 30 230 369 0 229 227 231 0 +5
 3 3 0 0 1 16 229 422 0 232 233 226 230 ?0 0 30 231 368 0 233 230 234 0 +5 2 3 0
 0 1 16 233 421 0 235 236 229 231 ?0 0 30 234 510 0 237 231 238 0 +7 2 2 1 0 0 1
6 237 569 0 239 240 236 234 ?0 0 30 238 509 0 236 234 241 0 +8 2.5 2 0 1 0 16 23
6 570 0 15 237 233 238 ?0 0 30 241 508 0 242 238 243 0 +7 3 2 -1 0 0 16 242 567
 0 244 245 240 241 ?0 0 30 243 507 0 240 241 246 0 +6 2.5 2 0 -1 0 16 240 568 0
 247 242 237 243 ?0 0 30 246 641 0 248 243 249 0 +7 1 19 1 0 0 16 248 673 0 250
 251 245 246 ?0 0 30 249 640 0 245 246 252 0 +14 2 19 0 1 0 16 245 674 0 253 248
 242 249 ?0 0 30 252 639 0 254 249 255 0 +7 3 19 -1 0 0 16 254 671 0 256 257 251
 252 ?0 0 30 255 638 0 251 252 258 0 +0 2 19 0 -1 0 16 251 672 0 259 254 248 255
 ?0 0 30 258 637 0 257 255 260 0 +14 1 19 0 0 1 16 257 670 0 72 261 254 258 ?0 0
 30 260 634 0 261 258 262 0 +0 1 19 0 0 1 16 261 667 0 263 264 257 260 ?0 0 30 2
62 630 0 264 260 265 0 +7 1 21 -1 0 0 16 264 663 0 69 266 261 262 ?0 0 31 265 70
2 0 267 262 268 0 +3 1 6 0 1 612303176911189e-31 1 0 0 1 16 267 731 0 60 269 266
 265 ?0 0 31 268 701 0 266 265 270 0 +3 3 6 0 -1 -612303176911189e-31 -1 0 0 1 1
6 266 730 0 63 267 264 268 ?0 0 31 270 758 0 271 268 272 0 +3 1 14 0 1 612303176
911189e-31 1 0 0 1 16 271 787 0 51 273 269 270 ?0 0 31 272 757 0 269 270 274 0 +
3 3 14 0 -1 -612303176911189e-31 -1 0 0 1 16 269 786 0 57 271 267 272 ?0 0 31 27
4 814 0 275 272 276 0 +11 1 6 0 1 612303176911189e-31 1 0 0 1 16 275 843 0 42 27
7 273 274 ?0 0 31 276 813 0 273 274 278 0 +11 3 6 0 -1 -612303176911189e-31 -1 0
 0 1 16 273 842 0 279 275 271 276 ?0 0 31 278 870 0 280 276 281 0 +11 1 14 0 1 6
12303176911189e-31 1 0 0 1 16 280 899 0 33 282 277 278 ?0 0 31 281 869 0 277 278
 283 0 +11 3 14 0 -1 -612303176911189e-31 -1 0 0 1 16 277 898 0 36 280 275 281 ?
0 0 31 283 910 0 282 281 284 0 +6 3 3 0 1 0 0 0 1 1 16 282 908 0 285 286 280 283
 ?0 0 31 284 924 0 286 283 13 0 +6 2 3 0 1 612303176911189e-31 1 0 0 1 16 286 94
9 0 27 287 282 284 ?0 0 31 13 959 0 287 284 7 0 +8 3 3 0 1 0 0 0 1 1 16 287 957
 0 288 10 286 13 ?0 0 17 288 289 290 221 11 99 287 0 16 10 998 0 18 0 287 7 ?0 0
 17 18 291 30 21 16 292 10 0 15 291 1005 0 21 293 0 17 30 291 27 18 28 239 237 0
 17 21 291 18 294 19 228 226 0 17 292 289 221 290 19 18 10 0 15 289 983 0 292 9
 0 17 221 289 288 292 97 295 219 0 17 290 289 292 288 16 15 236 0 17 15 296 244
 239 11 290 236 0 15 296 545 0 15 297 0 17 244 296 247 15 85 298 242 0 17 239 29
6 15 247 16 30 237 0 17 247 296 239 244 28 299 240 0 17 299 300 285 301 85 247 2
40 0 15 300 941 0 299 302 0 17 285 300 224 299 22 87 282 0 17 301 300 299 224 28
 27 286 0 17 224 300 301 285 25 24 222 0 17 27 291 235 30 25 301 286 0 17 235 29
1 294 27 88 303 233 0 17 294 291 21 235 100 216 214 0 17 303 304 24 90 25 235 23
3 0 15 304 392 0 303 305 0 17 24 304 232 303 22 224 222 0 17 90 304 303 232 88 9
3 217 0 17 232 304 90 24 91 306 229 0 17 93 307 308 216 91 90 217 0 15 307 115 0
 216 309 0 17 308 307 114 93 61 310 180 0 17 216 307 93 102 88 294 214 0 17 102
 307 216 178 100 311 212 0 17 178 307 102 116 94 312 176 0 17 311 313 314 228 94
 102 212 0 15 313 396 0 314 315 0 17 314 313 295 311 97 96 225 0 17 228 313 311
 295 100 21 226 0 17 295 313 228 314 19 221 219 0 17 96 316 312 99 94 314 225 0
 15 316 958 0 99 317 318 17 312 316 279 96 111 178 176 0 17 99 316 96 298 97 288
 287 0 17 298 316 99 87 11 244 242 0 17 87 316 298 306 85 285 282 0 17 306 316 8
7 310 22 232 229 0 17 310 316 306 63 91 308 180 0 17 63 316 310 319 61 320 266 0
 16 180 331 0 308 212 207 175 ?176 176 17 319 316 63 57 64 203 195 0 17 320 321
 194 322 64 63 266 0 15 321 715 0 323 324 0 17 194 321 323 320 58 66 192 0 17 32
2 321 320 323 61 114 173 0 17 323 321 322 194 112 60 267 0 17 114 307 172 308 11
2 322 173 0 17 172 307 116 114 40 325 170 0 17 116 307 178 172 111 326 174 0 17
 325 327 60 42 112 172 170 0 15 327 907 0 328 329 0 17 60 327 206 325 58 323 267
 0 17 42 327 325 330 40 331 275 0 17 330 327 42 33 43 198 196 0 17 331 332 48 32
6 43 42 275 0 15 332 833 0 48 333 0 17 48 332 334 331 46 45 169 0 17 326 332 331
 334 40 116 174 0 17 334 332 326 48 111 279 273 0 17 279 316 201 312 46 334 273
 0 17 201 316 36 279 37 335 191 0 17 36 316 336 201 34 337 277 0 17 335 338 45 3
9 46 201 191 0 15 338 276 0 45 339 0 17 45 338 198 335 43 48 169 0 17 39 338 335
 198 37 209 199 0 17 198 338 39 45 31 330 196 0 17 209 340 341 337 31 39 199 0 1
5 340 883 0 341 342 0 17 341 340 343 209 108 33 280 0 17 337 340 209 343 37 36 2
77 0 17 343 340 337 341 34 110 179 0 17 110 344 189 185 108 343 179 0 15 344 107
 0 189 345 0 17 189 344 106 110 49 328 149 0 17 185 344 110 106 34 336 183 0 17
 106 344 185 189 104 346 186 0 17 336 316 57 36 104 185 183 0 17 57 316 319 336
 55 347 269 0 17 347 348 346 211 104 57 269 0 15 348 777 0 211 349 0 17 346 348
 350 347 49 106 186 0 17 211 348 347 350 55 54 207 0 17 350 348 211 346 52 51 27
1 0 17 54 351 352 203 52 211 207 0 15 351 270 0 352 353 0 17 352 351 66 54 58 20
6 204 0 17 203 351 54 66 55 319 195 0 17 66 351 203 352 64 194 192 0 17 206 327
 51 60 52 352 204 0 17 51 327 328 206 49 350 271 0 17 328 327 33 51 108 189 149
 0 17 33 327 330 328 31 341 280 0 14 353 269 0 339 315 351 5 354 -?0 0 14 339 27
5 0 355 353 338 5 356 -?0 0 14 315 407 0 353 305 313 5 357 -?0 0 50 354 210 0 35
3 356 357 0 +2 2 6 -1 0 0 0 0 1 50 356 212 0 339 358 354 0 +12 2 6 1 0 0 0 0 -1
 50 357 361 0 315 354 359 0 +9 2.5 3 1 0 0 0 0 -1 50 359 359 0 305 357 360 0 +5
 2.5 3 -1 0 0 0 0 1 14 305 401 0 315 293 304 5 359 -?0 0 50 360 358 0 293 359 36
1 0 +7 2 3 0 -1 0 0 0 -1 14 293 399 0 305 297 291 5 360 -?0 0 50 361 493 0 297 3
60 362 0 +7 2.5 2 0 0 -1 -1 0 0 14 297 544 0 293 363 296 5 361 -?0 0 50 362 629
 0 363 361 364 0 +7 2 19 0 0 -1 -1 0 0 14 363 659 0 297 365 366 5 362 -?0 0 50 3
64 625 0 365 362 367 0 +7 1 19 0 -1 0 0 0 -1 14 365 653 0 363 324 368 5 364 -?0
 0 51 367 692 0 324 364 369 0 +3 1 6 0 1 612303176911189e-31 1 1 0 0 14 324 720
 0 365 349 321 5 367 -?0 0 51 369 748 0 349 367 370 0 +3 1 14 0 1 61230317691118
9e-31 1 1 0 0 14 349 776 0 324 333 348 5 369 -?0 0 51 370 804 0 333 369 371 0 +1
1 1 6 0 1 612303176911189e-31 1 1 0 0 14 333 832 0 349 342 332 5 370 -?0 0 51 37
1 860 0 342 370 12 0 +11 1 14 0 1 612303176911189e-31 1 1 0 0 14 342 888 0 333 3
02 340 5 371 -?0 0 51 12 916 0 302 371 6 0 +6 2 3 0 1 612303176911189e-31 1 1 0
 0 14 302 940 0 342 9 300 5 12 -?0 0 14 9 988 0 302 0 289 5 6 -?0 0 15 368 654 0
 372 365 0 17 372 368 373 374 78 72 257 0 17 373 368 263 372 74 250 248 0 17 374
 368 372 263 70 69 264 0 17 72 375 163 84 70 372 257 0 15 375 599 0 72 376 0 17
 163 375 138 72 119 377 161 0 17 84 375 72 156 78 253 245 0 17 156 375 84 130 73
 378 154 0 17 253 366 256 250 73 84 245 0 15 366 660 0 253 363 0 17 256 366 259
 253 77 82 254 0 17 250 366 253 259 78 373 248 0 17 259 366 250 256 74 80 251 0
 17 80 379 380 76 77 259 251 0 15 379 617 0 76 381 0 17 380 379 125 80 126 159 1
57 0 17 76 379 80 166 74 263 261 0 17 166 379 76 118 67 382 164 0 17 263 368 374
 373 67 76 261 0 17 118 379 166 125 103 133 140 0 17 382 383 384 69 103 166 164
 0 15 383 621 0 69 355 0 17 384 383 377 382 119 137 167 0 17 69 383 382 377 67 3
74 264 0 17 377 383 69 384 70 163 161 0 17 137 132 133 121 103 384 167 0 14 355
 33 0 136 339 383 5 385 +?0 0 14 136 30 0 381 355 132 5 386 +?0 0 50 385 51 0 35
5 386 387 0 +7 1.5 21 0 0 1 1 0 0 50 386 46 0 136 388 385 0 +7 0 0 0 -1 0 0 0 -1
 50 387 84 0 309 385 389 0 +7 2 5 0 0 -1 -1 0 0 14 309 114 0 0 329 307 5 387 -?0
 0 50 389 80 0 329 387 358 0 +7 1 5 0 -1 0 0 0 -1 14 329 108 0 309 345 327 5 389
 -?0 0 50 358 79 0 345 389 356 0 +7 2 15 0 0 1 1 0 0 14 345 106 0 329 376 344 5
 358 -?0 0 14 376 1 0 345 390 375 5 391 +?0 0 14 390 6 0 376 317 141 5 392 +?0 0
 50 391 43 0 376 392 393 0 +14 1.5 0 1 0 0 0 0 -1 50 392 34 0 390 0 391 0 +7 1.5
 0 0 0 -1 -1 0 0 50 393 44 0 317 391 388 0 +7 3 0 0 1 0 0 0 1 14 317 24 0 390 38
1 316 5 393 +?0 0 50 388 45 0 381 393 386 0 +0 1.5 0 -1 0 0 0 0 1 14 381 27 0 31
7 136 379 5 388 +?0 0 15 141 5 0 143 390 0 17 143 141 134 394 107 130 145 0 17 3
94 141 143 142 122 128 147 0 17 130 375 156 138 122 143 145 0 17 138 375 130 163
 107 121 139 0 17 142 141 394 134 126 125 144 0 17 128 318 159 378 126 394 147 0
 15 318 606 0 82 317 0 17 159 318 82 128 77 380 157 0 17 378 318 128 82 122 156
 154 0 17 82 318 378 159 73 256 254 0 17 125 379 118 380 123 142 144 0 1 0 


