700 0 2 0           
24 FBMach with ACIS - 7.0.3 13 ACIS 7.0.3 NT 24 Tue May 14 12:05:18 2002 
1 9.9999999999999995e-007 1e-010 
body $2 -1 $-1 $3 $-1 $4 #
bdycol-kcp $-1 -1 1 2 $5 $6 #
model_id-kcp-attrib $-1 -1 $-1 $-1 $0 1 1021392317 1021392317 -2133786623 1 #
lump $-1 -1 $-1 $-1 $7 $0 #
transform $-1 -1 1 0 0 0 1 0 0 0 1 0 0 0 1 rotate no_reflect no_shear #
body $8 -1 $-1 $9 $-1 $10 #
body $11 -1 $-1 $12 $-1 $13 #
shell $-1 -1 $-1 $-1 $-1 $14 $-1 $3 #
model_id-kcp-attrib $-1 -1 $-1 $-1 $5 1 1021392317 1021392317 -2133786622 1 #
lump $-1 -1 $-1 $-1 $15 $5 #
transform $-1 -1 1 0 0 0 1 0 0 0 1 -1.2434497875801753e-014 0 -2.4999999999999982 1 no_rotate no_reflect no_shear #
rgb_color-st-attrib $-1 -1 $16 $-1 $6 0.5 1 1 #
lump $-1 -1 $-1 $-1 $17 $6 #
transform $-1 -1 1 0 0 0 1 0 0 0 1 0 0 -2.4999999999999996 1 no_rotate no_reflect no_shear #
face $18 -1 $-1 $19 $20 $7 $-1 $21 reversed single #
shell $-1 -1 $-1 $-1 $-1 $22 $-1 $9 #
model_id-kcp-attrib $-1 -1 $-1 $11 $6 1 1021392317 1021392318 -2147024893 1 #
shell $-1 -1 $-1 $-1 $-1 $23 $-1 $12 #
model_id-kcp-attrib $-1 -1 $24 $-1 $14 1 1021392317 1021392317 -2133786623 2 #
face $25 -1 $-1 $26 $27 $7 $-1 $28 reversed single #
loop $29 -1 $-1 $30 $31 $14 #
cone-surface $32 -1 $-1 0 0 0 0 0 1 5 0 0 1 I I 0 1 5 forward I I I I #
face $-1 -1 $-1 $33 $34 $15 $-1 $35 forward single #
face $-1 -1 $-1 $36 $37 $17 $-1 $38 forward single #
face_name-twe-attrib $-1 -1 $-1 $18 $14 1 #
model_id-kcp-attrib $-1 -1 $39 $-1 $19 1 1021392317 1021392317 -2133786623 3 #
face $40 -1 $-1 $41 $42 $7 $-1 $43 reversed single #
loop $44 -1 $-1 $-1 $45 $19 #
plane-surface $46 -1 $-1 -4.7552825814757798 1.5450849718747099 0 0.58622749982823896 -0.42591920971146602 -0.68915175777465199 -0.76169464242271101 0 -0.64793616329430004 forward_v I I I I #
model_id-kcp-attrib $-1 -1 $47 $-1 $20 1 1021392317 1021392317 -2133786623 16 #
loop $48 -1 $-1 $-1 $49 $14 #
coedge $-1 -1 $-1 $31 $31 $50 $51 reversed $20 $-1 #
surf-twe-attrib $-1 -1 $-1 $-1 $21 4 #
face $52 -1 $-1 $53 $54 $15 $-1 $55 reversed single #
loop $-1 -1 $-1 $-1 $56 $22 #
plane-surface $-1 -1 $-1 0 0 2.5000000000000027 0 0 1 1 0 0 forward_v I I I I #
face $-1 -1 $-1 $57 $58 $17 $-1 $59 forward single #
loop $-1 -1 $-1 $60 $61 $23 #
cone-surface $-1 -1 $-1 0 0 0 0 0 1 5 0 0 1 I I 0 1 5 forward I I I I #
face_name-twe-attrib $-1 -1 $-1 $25 $19 2 #
model_id-kcp-attrib $-1 -1 $62 $-1 $26 1 1021392317 1021392317 -2133786623 4 #
face $63 -1 $-1 $64 $65 $7 $-1 $66 reversed single #
loop $67 -1 $-1 $-1 $68 $26 #
plane-surface $69 -1 $-1 -2.9389262614623899 4.0450849718747204 0 0.22391897979451589 -0.68915175777465076 -0.68915175777465176 -0.95105651629515198 0 -0.309016994374951 forward_v I I I I #
model_id-kcp-attrib $-1 -1 $70 $-1 $27 1 1021392317 1021392317 -2133786623 24 #
coedge $-1 -1 $-1 $71 $72 $73 $74 forward $27 $-1 #
surf-twe-attrib $-1 -1 $-1 $-1 $28 6 #
loop_type-twe-attrib $-1 -1 $-1 $29 $20 0 #
model_id-kcp-attrib $-1 -1 $75 $-1 $30 1 1021392317 1021392317 -2133786623 17 #
coedge $-1 -1 $-1 $76 $77 $78 $79 reversed $30 $-1 #
coedge $-1 -1 $-1 $50 $50 $31 $51 forward $80 $-1 #
edge $81 -1 $-1 $82 -3.1415926535897998 $82 3.1415926535897865 $50 $83 forward @7 unknown #
model_id-kcp-attrib $-1 -1 $-1 $-1 $33 1 1021392317 1021392317 -2133786622 2 #
face $-1 -1 $-1 $84 $85 $15 $-1 $86 reversed single #
loop $-1 -1 $-1 $-1 $87 $33 #
plane-surface $-1 -1 $-1 0 0 -2.5000000000000027 0 0 1 1 0 0 forward_v I I I I #
coedge $-1 -1 $-1 $88 $89 $90 $91 forward $34 $-1 #
face $-1 -1 $-1 $-1 $92 $17 $-1 $93 forward single #
loop $-1 -1 $-1 $-1 $94 $36 #
plane-surface $-1 -1 $-1 0 0 -2.5000000000000004 0 0 -1 -1 0 0 forward_v I I I I #
loop $-1 -1 $-1 $-1 $95 $23 #
coedge $-1 -1 $-1 $61 $61 $94 $96 reversed $37 $-1 #
face_name-twe-attrib $-1 -1 $-1 $40 $26 3 #
model_id-kcp-attrib $-1 -1 $97 $-1 $41 1 1021392317 1021392317 -2133786623 5 #
face $98 -1 $-1 $99 $100 $7 $-1 $101 reversed single #
loop $102 -1 $-1 $-1 $103 $41 #
plane-surface $104 -1 $-1 -1.7319479184152401e-014 5 0 -0.22391897979451103 -0.6891517577746521 -0.6891517577746521 -0.95105651629515398 0 0.30901699437494501 forward_v I I I I #
model_id-kcp-attrib $-1 -1 $105 $-1 $42 1 1021392317 1021392317 -2133786623 23 #
coedge $-1 -1 $-1 $106 $107 $108 $109 forward $42 $-1 #
surf-twe-attrib $-1 -1 $-1 $-1 $43 10 #
loop_type-twe-attrib $-1 -1 $-1 $44 $27 0 #
coedge $-1 -1 $-1 $110 $45 $107 $111 forward $27 $-1 #
coedge $-1 -1 $-1 $45 $110 $112 $113 reversed $27 $-1 #
coedge $-1 -1 $-1 $114 $108 $45 $74 reversed $30 $-1 #
edge $115 -1 $-1 $116 2.8274333882308138 $117 3.455751918948772 $45 $118 forward @7 unknown #
loop_type-twe-attrib $-1 -1 $-1 $48 $30 1 #
coedge $-1 -1 $-1 $119 $49 $120 $121 reversed $30 $-1 #
coedge $-1 -1 $-1 $49 $122 $123 $124 reversed $30 $-1 #
coedge $-1 -1 $-1 $125 $126 $49 $79 forward $127 $-1 #
edge $128 -1 $-1 $129 -0.31415926535897343 $130 0.31415926535897354 $78 $131 forward @7 unknown #
loop $132 -1 $-1 $133 $50 $134 #
attrib_edge_convexity-kcp-attrib $-1 -1 $135 $-1 $51 1 #
vertex $-1 -1 $-1 $51 $136 #
ellipse-curve $137 -1 $-1 0 0 -5 0 0 1 5 0 0 1 I I #
face $-1 -1 $-1 $138 $139 $15 $-1 $140 reversed single #
loop $-1 -1 $-1 $-1 $141 $53 #
plane-surface $-1 -1 $-1 0 -10 0 0 1 0 0 0 1 forward_v I I I I #
coedge $-1 -1 $-1 $142 $143 $144 $145 forward $54 $-1 #
coedge $-1 -1 $-1 $146 $56 $147 $148 forward $34 $-1 #
coedge $-1 -1 $-1 $56 $146 $149 $150 forward $34 $-1 #
coedge $-1 -1 $-1 $151 $152 $56 $91 reversed $153 $-1 #
edge $-1 -1 $-1 $154 -10 $155 10 $90 $156 forward @7 unknown #
loop $-1 -1 $-1 $-1 $157 $57 #
plane-surface $-1 -1 $-1 0 0 2.5000000000000004 0 0 1 1 0 0 forward_v I I I I #
coedge $-1 -1 $-1 $94 $94 $61 $96 forward $58 $-1 #
coedge $-1 -1 $-1 $95 $95 $157 $158 reversed $60 $-1 #
edge $-1 -1 $-1 $159 0 $159 6.2831853071795862 $94 $160 forward @7 unknown #
face_name-twe-attrib $-1 -1 $-1 $63 $41 4 #
model_id-kcp-attrib $-1 -1 $161 $-1 $64 1 1021392317 1021392317 -2133786623 6 #
face $162 -1 $-1 $134 $163 $7 $-1 $164 reversed single #
loop $165 -1 $-1 $-1 $166 $64 #
plane-surface $167 -1 $-1 2.9389262614623601 4.0450849718747399 0 -0.58622749982823597 -0.42591920971147001 -0.68915175777465199 -0.76169464242271301 0 0.64793616329429804 forward_v I I I I #
model_id-kcp-attrib $-1 -1 $168 $-1 $65 1 1021392317 1021392317 -2133786623 22 #
coedge $-1 -1 $-1 $169 $170 $171 $172 forward $65 $-1 #
surf-twe-attrib $-1 -1 $-1 $-1 $66 18 #
loop_type-twe-attrib $-1 -1 $-1 $67 $42 0 #
coedge $-1 -1 $-1 $173 $68 $170 $174 forward $42 $-1 #
coedge $-1 -1 $-1 $68 $173 $71 $111 reversed $42 $-1 #
coedge $-1 -1 $-1 $73 $171 $68 $109 reversed $30 $-1 #
edge $175 -1 $-1 $117 2.8274333882308129 $176 3.4557519189487733 $68 $177 forward @7 unknown #
coedge $-1 -1 $-1 $72 $71 $178 $179 reversed $27 $-1 #
edge $180 -1 $-1 $117 1.8457543838999188e-016 $181 7.0710678118654808 $107 $182 forward @7 unknown #
coedge $-1 -1 $-1 $183 $184 $72 $113 forward $185 $-1 #
edge $186 -1 $-1 $116 0 $187 7.0710678118654764 $72 $188 forward @7 unknown #
coedge $-1 -1 $-1 $189 $73 $184 $190 reversed $30 $-1 #
attrib_edge_convexity-kcp-attrib $-1 -1 $191 $-1 $74 1 #
vertex $-1 -1 $-1 $190 $192 #
vertex $-1 -1 $-1 $109 $193 #
ellipse-curve $194 -1 $-1 0 0 5 0.58622749982823896 -0.42591920971146602 -0.68915175777465199 4.0450849718747497 -2.9389262614623402 5.2573111211913401 0.68915175777465199 I I #
coedge $-1 -1 $-1 $171 $76 $166 $195 reversed $30 $-1 #
coedge $-1 -1 $-1 $196 $197 $76 $121 forward $163 $-1 #
edge $198 -1 $-1 $199 -0.31415926535897976 $129 0.31415926535897976 $120 $200 forward @7 unknown #
coedge $-1 -1 $-1 $77 $189 $201 $202 reversed $30 $-1 #
coedge $-1 -1 $-1 $203 $204 $77 $124 forward $205 $-1 #
edge $206 -1 $-1 $130 -0.31415926535897942 $207 0.31415926535897987 $123 $208 forward @7 unknown #
coedge $-1 -1 $-1 $209 $78 $204 $210 forward $127 $-1 #
coedge $-1 -1 $-1 $78 $209 $196 $211 reversed $127 $-1 #
loop $212 -1 $-1 $-1 $78 $213 #
attrib_edge_convexity-kcp-attrib $-1 -1 $214 $-1 $79 1 #
vertex $-1 -1 $-1 $79 $215 #
vertex $-1 -1 $-1 $79 $216 #
ellipse-curve $217 -1 $-1 0 0 5 -0.58622749982823819 0.42591920971146618 -0.68915175777465232 4.0450849718747497 -2.9389262614623402 -5.2573111211913304 0.68915175777465199 I I #
model_id-kcp-attrib $-1 -1 $218 $-1 $80 1 1021392317 1021392317 -2133786623 18 #
loop $219 -1 $-1 $-1 $220 $134 #
face $221 -1 $-1 $213 $80 $7 $-1 $222 reversed single #
convexity-sys-attrib $-1 -1 $223 $81 $51 #
point $-1 -1 $-1 -5 3.4914813494061298e-014 -5 #
cur-twe-attrib $-1 -1 $-1 $-1 $83 27 #
face $-1 -1 $-1 $224 $225 $15 $-1 $226 reversed single #
loop $-1 -1 $-1 $-1 $227 $84 #
plane-surface $-1 -1 $-1 -9.5105651629515489 0 0 1 0 0 0 0 -1 forward_v I I I I #
coedge $-1 -1 $-1 $228 $149 $229 $230 forward $85 $-1 #
coedge $-1 -1 $-1 $231 $87 $228 $232 forward $54 $-1 #
coedge $-1 -1 $-1 $87 $231 $233 $234 forward $54 $-1 #
coedge $-1 -1 $-1 $152 $151 $87 $145 reversed $153 $-1 #
edge $-1 -1 $-1 $235 -10 $236 10 $144 $237 forward @7 unknown #
coedge $-1 -1 $-1 $89 $88 $238 $239 forward $34 $-1 #
coedge $-1 -1 $-1 $240 $241 $88 $148 reversed $225 $-1 #
edge $-1 -1 $-1 $155 -9.5105651629515489 $242 9.5105651629515489 $147 $243 forward @7 unknown #
coedge $-1 -1 $-1 $141 $244 $89 $150 reversed $85 $-1 #
edge $-1 -1 $-1 $245 -9.5105651629515489 $154 9.5105651629515489 $149 $246 forward @7 unknown #
coedge $-1 -1 $-1 $144 $90 $244 $247 forward $153 $-1 #
coedge $-1 -1 $-1 $90 $144 $240 $248 reversed $153 $-1 #
loop $-1 -1 $-1 $-1 $151 $224 #
vertex $-1 -1 $-1 $91 $249 #
vertex $-1 -1 $-1 $91 $250 #
straight-curve $-1 -1 $-1 9.5105651629515489 0 2.5000000000000027 0 1 0 I I #
coedge $-1 -1 $-1 $157 $157 $95 $158 forward $92 $-1 #
edge $-1 -1 $-1 $251 0 $251 6.2831853071795862 $157 $252 forward @7 unknown #
vertex $-1 -1 $-1 $96 $253 #
ellipse-curve $-1 -1 $-1 0 0 -2.5000000000000004 0 0 -1 5 0 0 1 I I #
face_name-twe-attrib $-1 -1 $-1 $98 $64 5 #
model_id-kcp-attrib $-1 -1 $254 $-1 $99 1 1021392317 1021392317 -2133786623 7 #
loop $255 -1 $-1 $-1 $120 $99 #
plane-surface $256 -1 $-1 4.75528258147577 1.5450849718747399 0 -0.72461704006744676 0 -0.68915175777465176 -0.68915175777465199 0 0.72461704006744698 forward_v I I I I #
model_id-kcp-attrib $-1 -1 $257 $-1 $100 1 1021392317 1021392317 -2133786623 21 #
coedge $-1 -1 $-1 $258 $259 $119 $195 forward $100 $-1 #
surf-twe-attrib $-1 -1 $-1 $-1 $101 29 #
loop_type-twe-attrib $-1 -1 $-1 $102 $65 0 #
coedge $-1 -1 $-1 $260 $103 $259 $261 forward $65 $-1 #
coedge $-1 -1 $-1 $103 $260 $106 $174 reversed $65 $-1 #
coedge $-1 -1 $-1 $108 $119 $103 $172 reversed $30 $-1 #
edge $262 -1 $-1 $176 -0.31415926535897931 $263 0.31415926535898125 $103 $264 forward @7 unknown #
coedge $-1 -1 $-1 $107 $106 $265 $266 reversed $42 $-1 #
edge $267 -1 $-1 $176 0 $268 7.0710678118654808 $170 $269 forward @7 unknown #
attrib_edge_convexity-kcp-attrib $-1 -1 $270 $-1 $109 1 #
vertex $-1 -1 $-1 $172 $271 #
ellipse-curve $272 -1 $-1 0 0 5 0.22391897979451589 -0.68915175777465076 -0.68915175777465176 1.5450849718747599 -4.7552825814757602 5.2573111211913401 0.68915175777465199 I I #
coedge $-1 -1 $-1 $265 $273 $110 $179 forward $133 $-1 #
edge $274 -1 $-1 $187 -3.0901699437494883 $181 3.0901699437494821 $110 $275 forward @7 unknown #
attrib_edge_convexity-kcp-attrib $-1 -1 $276 $-1 $111 1 #
vertex $-1 -1 $-1 $266 $277 #
straight-curve $278 -1 $-1 -2.9389262614623899 4.0450849718747204 0 -0.41562693777745602 0.57206140281768203 -0.70710678118654702 I I #
coedge $-1 -1 $-1 $279 $112 $273 $280 reversed $185 $-1 #
coedge $-1 -1 $-1 $112 $279 $114 $190 forward $185 $-1 #
loop $281 -1 $-1 $-1 $184 $282 #
attrib_edge_convexity-kcp-attrib $-1 -1 $283 $-1 $113 1 #
vertex $-1 -1 $-1 $179 $284 #
straight-curve $285 -1 $-1 -4.7552825814757798 1.5450849718747099 0 -0.67249851196395904 0.218508012224406 -0.70710678118654702 I I #
coedge $-1 -1 $-1 $122 $114 $286 $287 reversed $30 $-1 #
edge $288 -1 $-1 $289 2.8274333882308076 $116 3.4557519189487667 $184 $290 forward @7 unknown #
convexity-sys-attrib $-1 -1 $291 $115 $74 #
point $-1 -1 $-1 -4.7552825814757798 1.5450849718747099 0 #
point $-1 -1 $-1 -2.9389262614623899 4.0450849718747204 -2.6102908825208602e-016 #
cur-twe-attrib $-1 -1 $-1 $-1 $118 38 #
edge $292 -1 $-1 $263 -0.31415926535897887 $199 0.31415926535898037 $166 $293 forward @7 unknown #
coedge $-1 -1 $-1 $294 $120 $126 $211 forward $163 $-1 #
coedge $-1 -1 $-1 $120 $294 $258 $295 reversed $163 $-1 #
attrib_edge_convexity-kcp-attrib $-1 -1 $296 $-1 $121 1 #
vertex $-1 -1 $-1 $121 $297 #
ellipse-curve $298 -1 $-1 0 0 5 -0.72461704006744676 0 -0.68915175777465176 5 0 -5.2573111211913401 0.68915175777465199 I I #
coedge $-1 -1 $-1 $299 $300 $122 $202 forward $301 $-1 #
edge $302 -1 $-1 $207 2.8274333882308134 $303 3.4557519189487733 $201 $304 forward @7 unknown #
coedge $-1 -1 $-1 $305 $123 $300 $306 forward $205 $-1 #
coedge $-1 -1 $-1 $123 $305 $125 $210 reversed $205 $-1 #
loop $307 -1 $-1 $-1 $123 $308 #
attrib_edge_convexity-kcp-attrib $-1 -1 $309 $-1 $124 1 #
vertex $-1 -1 $-1 $124 $310 #
ellipse-curve $311 -1 $-1 0 0 5 -0.22391897979452099 0.68915175777464899 -0.68915175777465199 1.5450849718747901 -4.7552825814757496 -5.2573111211913401 0.68915175777465199 I I #
coedge $-1 -1 $-1 $126 $125 $312 $313 reversed $127 $-1 #
edge $314 -1 $-1 $130 0 $315 7.0710678118654799 $204 $316 forward @7 unknown #
edge $317 -1 $-1 $129 4.8518525247323281e-017 $318 7.0710678118654737 $196 $319 forward @7 unknown #
model_id-kcp-attrib $-1 -1 $320 $-1 $127 1 1021392317 1021392317 -2133786623 19 #
face $321 -1 $-1 $308 $127 $7 $-1 $322 reversed single #
convexity-sys-attrib $-1 -1 $323 $128 $79 #
point $-1 -1 $-1 4.75528258147577 -1.5450849718747399 -6.8615556431106001e-017 #
point $-1 -1 $-1 2.9389262614624099 -4.0450849718747 0 #
cur-twe-attrib $-1 -1 $-1 $-1 $131 42 #
loop_type-twe-attrib $-1 -1 $-1 $132 $80 1 #
loop_type-twe-attrib $-1 -1 $-1 $-1 $133 0 #
coedge $-1 -1 $-1 $312 $324 $294 $325 forward $133 $-1 #
model_id-kcp-attrib $-1 -1 $326 $-1 $134 1 1021392317 1021392317 -2133786623 8 #
plane-surface $327 -1 $-1 0 0 -5 0 0 1 1 0 0 forward_v I I I I #
edge_name-twe-attrib $-1 -1 $-1 $135 $51 17 8704 #
face $-1 -1 $-1 $-1 $153 $15 $-1 $328 reversed single #
loop $-1 -1 $-1 $-1 $240 $138 #
plane-surface $-1 -1 $-1 0 10 0 0 -1 0 0 0 -1 forward_v I I I I #
coedge $-1 -1 $-1 $329 $238 $241 $330 forward $139 $-1 #
coedge $-1 -1 $-1 $244 $141 $142 $232 reversed $85 $-1 #
coedge $-1 -1 $-1 $238 $329 $141 $230 reversed $139 $-1 #
edge $-1 -1 $-1 $245 -2.5000000000000027 $331 2.5000000000000027 $229 $332 forward @7 unknown #
coedge $-1 -1 $-1 $143 $142 $329 $333 forward $54 $-1 #
edge $-1 -1 $-1 $236 -9.5105651629515489 $331 9.5105651629515489 $228 $334 forward @7 unknown #
coedge $-1 -1 $-1 $241 $240 $143 $234 reversed $225 $-1 #
edge $-1 -1 $-1 $335 -9.5105651629515489 $235 9.5105651629515489 $233 $336 forward @7 unknown #
vertex $-1 -1 $-1 $145 $337 #
vertex $-1 -1 $-1 $247 $338 #
straight-curve $-1 -1 $-1 9.5105651629515489 0 -2.5000000000000027 0 -1 0 I I #
coedge $-1 -1 $-1 $227 $229 $146 $239 reversed $139 $-1 #
edge $-1 -1 $-1 $242 -10 $245 10 $238 $339 forward @7 unknown #
coedge $-1 -1 $-1 $233 $147 $152 $248 forward $225 $-1 #
coedge $-1 -1 $-1 $147 $233 $227 $330 reversed $225 $-1 #
vertex $-1 -1 $-1 $148 $340 #
straight-curve $-1 -1 $-1 0 10 2.5000000000000027 -1 0 0 I I #
coedge $-1 -1 $-1 $149 $228 $151 $247 reversed $85 $-1 #
vertex $-1 -1 $-1 $239 $341 #
straight-curve $-1 -1 $-1 0 -10 2.5000000000000027 1 0 0 I I #
edge $-1 -1 $-1 $154 -2.5000000000000027 $236 2.5000000000000027 $151 $342 forward @7 unknown #
edge $-1 -1 $-1 $155 -2.5000000000000027 $235 2.5000000000000027 $152 $343 forward @7 unknown #
point $-1 -1 $-1 9.5105651629515489 -10 2.5000000000000027 #
point $-1 -1 $-1 9.5105651629515489 10 2.5000000000000027 #
vertex $-1 -1 $-1 $158 $344 #
ellipse-curve $-1 -1 $-1 0 0 2.5000000000000004 0 0 1 5 0 0 1 I I #
point $-1 -1 $-1 5 0 -2.5000000000000004 #
face_name-twe-attrib $-1 -1 $-1 $162 $99 6 #
model_id-kcp-attrib $-1 -1 $345 $-1 $163 1 1021392317 1021392317 -2133786623 20 #
surf-twe-attrib $-1 -1 $-1 $-1 $164 48 #
loop_type-twe-attrib $-1 -1 $-1 $165 $100 0 #
coedge $-1 -1 $-1 $346 $166 $197 $295 forward $100 $-1 #
coedge $-1 -1 $-1 $166 $346 $169 $261 reversed $100 $-1 #
coedge $-1 -1 $-1 $170 $169 $347 $348 reversed $65 $-1 #
edge $349 -1 $-1 $263 -1.8457543838998976e-016 $350 7.0710678118654808 $259 $351 forward @7 unknown #
attrib_edge_convexity-kcp-attrib $-1 -1 $352 $-1 $172 1 #
vertex $-1 -1 $-1 $195 $353 #
ellipse-curve $354 -1 $-1 0 0 5 -0.22391897979451103 -0.6891517577746521 -0.6891517577746521 1.5450849718747199 4.75528258147577 -5.2573111211913401 0.68915175777465199 I I #
coedge $-1 -1 $-1 $347 $178 $173 $266 forward $133 $-1 #
edge $355 -1 $-1 $181 -3.0901699437494821 $268 3.0901699437494803 $173 $356 forward @7 unknown #
attrib_edge_convexity-kcp-attrib $-1 -1 $357 $-1 $174 1 #
vertex $-1 -1 $-1 $348 $358 #
straight-curve $359 -1 $-1 -1.74574067470307e-014 5 0 -2.46885013855143e-015 0.70710678118654702 -0.70710678118654702 I I #
convexity-sys-attrib $-1 -1 $360 $175 $109 #
point $-1 -1 $-1 -1.74574067470307e-014 5 0 #
cur-twe-attrib $-1 -1 $-1 $-1 $177 57 #
coedge $-1 -1 $-1 $178 $361 $183 $280 forward $133 $-1 #
attrib_edge_convexity-kcp-attrib $-1 -1 $362 $-1 $179 1 #
straight-curve $363 -1 $-1 -7.6942088429381599 5.5901699437494301 -5 0.58778525229246903 0.809016994374951 0 I I #
convexity-sys-attrib $-1 -1 $364 $180 $111 #
point $-1 -1 $-1 -5.87785252292477 8.0901699437494496 -5 #
cur-twe-attrib $-1 -1 $-1 $-1 $182 59 #
coedge $-1 -1 $-1 $184 $183 $365 $366 reversed $185 $-1 #
edge $367 -1 $-1 $368 -3.0901699437494812 $187 3.090169943749479 $183 $369 forward @7 unknown #
model_id-kcp-attrib $-1 -1 $370 $-1 $185 1 1021392317 1021392317 -2133786623 25 #
face $371 -1 $-1 $-1 $185 $7 $-1 $372 reversed single #
convexity-sys-attrib $-1 -1 $373 $186 $113 #
point $-1 -1 $-1 -9.5105651629515595 3.0901699437494101 -5 #
cur-twe-attrib $-1 -1 $-1 $-1 $188 61 #
coedge $-1 -1 $-1 $365 $374 $189 $287 forward $375 $-1 #
edge $376 -1 $-1 $303 2.8274333882308142 $289 3.4557519189487742 $286 $377 forward @7 unknown #
attrib_edge_convexity-kcp-attrib $-1 -1 $378 $-1 $190 1 #
vertex $-1 -1 $-1 $287 $379 #
ellipse-curve $380 -1 $-1 0 0 5 0.72461704006744676 5.2067461438219786e-015 -0.68915175777465176 5 0 5.2573111211913401 0.68915175777465199 I I #
edge_name-twe-attrib $-1 -1 $-1 $191 $74 1 9216 #
attrib_edge_convexity-kcp-attrib $-1 -1 $381 $-1 $195 1 #
ellipse-curve $382 -1 $-1 0 0 5 -0.58622749982823597 -0.42591920971147001 -0.68915175777465199 4.0450849718747302 2.9389262614623699 -5.2573111211913401 0.68915175777465199 I I #
coedge $-1 -1 $-1 $197 $196 $220 $325 reversed $163 $-1 #
edge $383 -1 $-1 $199 4.8518525247323281e-017 $384 7.0710678118654737 $197 $385 forward @7 unknown #
convexity-sys-attrib $-1 -1 $386 $198 $121 #
point $-1 -1 $-1 4.75528258147577 1.5450849718747399 -6.8615556431106001e-017 #
cur-twe-attrib $-1 -1 $-1 $-1 $200 69 #
coedge $-1 -1 $-1 $387 $201 $374 $388 forward $301 $-1 #
coedge $-1 -1 $-1 $201 $387 $203 $306 reversed $301 $-1 #
loop $389 -1 $-1 $-1 $201 $390 #
attrib_edge_convexity-kcp-attrib $-1 -1 $391 $-1 $202 1 #
vertex $-1 -1 $-1 $202 $392 #
ellipse-curve $393 -1 $-1 0 0 5 0.22391897979450595 0.68915175777465387 -0.68915175777465187 1.54508497187469 4.7552825814757798 5.2573111211913401 0.68915175777465199 I I #
coedge $-1 -1 $-1 $204 $203 $394 $395 reversed $205 $-1 #
edge $396 -1 $-1 $207 0 $397 7.0710678118654808 $300 $398 forward @7 unknown #
model_id-kcp-attrib $-1 -1 $399 $-1 $205 1 1021392317 1021392317 -2133786623 28 #
face $400 -1 $-1 $390 $205 $7 $-1 $401 reversed single #
convexity-sys-attrib $-1 -1 $402 $206 $124 #
point $-1 -1 $-1 5.2372220241091998e-014 -5 0 #
cur-twe-attrib $-1 -1 $-1 $-1 $208 72 #
coedge $-1 -1 $-1 $394 $220 $209 $313 forward $133 $-1 #
edge $403 -1 $-1 $318 -3.0901699437494172 $315 3.0901699437494172 $209 $404 forward @7 unknown #
attrib_edge_convexity-kcp-attrib $-1 -1 $405 $-1 $210 1 #
vertex $-1 -1 $-1 $395 $406 #
straight-curve $407 -1 $-1 2.9389262614624099 -4.0450849718747 0 0.41562693777746001 -0.57206140281768003 -0.70710678118654702 I I #
attrib_edge_convexity-kcp-attrib $-1 -1 $408 $-1 $211 1 #
vertex $-1 -1 $-1 $211 $409 #
straight-curve $410 -1 $-1 4.75528258147577 -1.5450849718747399 0 0.67249851196395705 -0.21850801222441099 -0.70710678118654702 I I #
loop_type-twe-attrib $-1 -1 $-1 $212 $127 0 #
model_id-kcp-attrib $-1 -1 $411 $-1 $213 1 1021392317 1021392317 -2133786623 9 #
plane-surface $412 -1 $-1 4.75528258147577 -1.5450849718747399 0 -0.58622749982823819 0.42591920971146618 -0.68915175777465232 -0.76169464242271201 0 0.64793616329429904 forward_v I I I I #
edge_name-twe-attrib $-1 -1 $-1 $214 $79 18 9216 #
coedge $-1 -1 $-1 $220 $347 $346 $413 forward $133 $-1 #
edge $414 -1 $-1 $384 -3.0901699437494798 $318 3.0901699437494798 $294 $415 forward @7 unknown #
face_name-twe-attrib $-1 -1 $-1 $221 $134 7 #
surf-twe-attrib $-1 -1 $-1 $-1 $222 82 #
plane-surface $-1 -1 $-1 9.5105651629515489 0 0 -1 0 0 0 0 1 forward_v I I I I #
coedge $-1 -1 $-1 $229 $227 $231 $333 reversed $139 $-1 #
edge $-1 -1 $-1 $242 -2.5000000000000027 $335 2.5000000000000027 $241 $416 forward @7 unknown #
vertex $-1 -1 $-1 $333 $417 #
straight-curve $-1 -1 $-1 -9.5105651629515489 -10 0 0 0 -1 I I #
edge $-1 -1 $-1 $331 -10 $335 10 $329 $418 forward @7 unknown #
straight-curve $-1 -1 $-1 0 -10 -2.5000000000000027 -1 0 0 I I #
vertex $-1 -1 $-1 $234 $419 #
straight-curve $-1 -1 $-1 0 10 -2.5000000000000027 1 0 0 I I #
point $-1 -1 $-1 9.5105651629515489 10 -2.5000000000000027 #
point $-1 -1 $-1 9.5105651629515489 -10 -2.5000000000000027 #
straight-curve $-1 -1 $-1 -9.5105651629515489 0 2.5000000000000027 0 -1 0 I I #
point $-1 -1 $-1 -9.5105651629515489 10 2.5000000000000027 #
point $-1 -1 $-1 -9.5105651629515489 -10 2.5000000000000027 #
straight-curve $-1 -1 $-1 9.5105651629515489 -10 0 0 0 -1 I I #
straight-curve $-1 -1 $-1 9.5105651629515489 10 0 0 0 -1 I I #
point $-1 -1 $-1 5 0 2.5000000000000004 #
loop_type-twe-attrib $-1 -1 $-1 $255 $163 0 #
coedge $-1 -1 $-1 $259 $258 $324 $413 reversed $100 $-1 #
coedge $-1 -1 $-1 $324 $265 $260 $348 forward $133 $-1 #
edge $420 -1 $-1 $268 -3.0901699437494816 $350 3.0901699437494727 $260 $421 forward @7 unknown #
attrib_edge_convexity-kcp-attrib $-1 -1 $422 $-1 $261 1 #
vertex $-1 -1 $-1 $413 $423 #
straight-curve $424 -1 $-1 2.9389262614623601 4.0450849718747399 0 0.41562693777745202 0.57206140281768503 -0.70710678118654702 I I #
convexity-sys-attrib $-1 -1 $425 $262 $172 #
point $-1 -1 $-1 2.9389262614623601 4.0450849718747399 2.6102908825208302e-016 #
cur-twe-attrib $-1 -1 $-1 $-1 $264 94 #
attrib_edge_convexity-kcp-attrib $-1 -1 $426 $-1 $266 1 #
straight-curve $427 -1 $-1 -2.9389262614624001 9.0450849718747204 -5 0.95105651629515198 0.309016994374951 0 I I #
convexity-sys-attrib $-1 -1 $428 $267 $174 #
point $-1 -1 $-1 -3.4914813494061298e-014 10 -5 #
cur-twe-attrib $-1 -1 $-1 $-1 $269 96 #
edge_name-twe-attrib $-1 -1 $-1 $270 $109 4 9216 #
coedge $-1 -1 $-1 $273 $429 $430 $431 forward $133 $-1 #
convexity-sys-attrib $-1 -1 $432 $274 $179 #
cur-twe-attrib $-1 -1 $-1 $-1 $275 101 #
edge_name-twe-attrib $-1 -1 $-1 $276 $111 6 8448 #
coedge $-1 -1 $-1 $430 $286 $279 $366 forward $375 $-1 #
edge $433 -1 $-1 $289 0 $368 7.071067811865472 $279 $434 forward @7 unknown #
attrib_edge_convexity-kcp-attrib $-1 -1 $435 $-1 $280 1 #
vertex $-1 -1 $-1 $280 $436 #
straight-curve $437 -1 $-1 -9.5105651629515293 -6.8611782921834699e-014 -5 -7.1855143557448404e-015 1 0 I I #
loop_type-twe-attrib $-1 -1 $-1 $281 $185 0 #
model_id-kcp-attrib $-1 -1 $438 $-1 $282 1 1021392317 1021392317 -2133786623 13 #
plane-surface $439 -1 $-1 -4.7552825814757496 -1.5450849718747699 0 0.72461704006744676 5.2067461438219786e-015 -0.68915175777465176 -0.68915175777465199 0 -0.72461704006744698 forward_v I I I I #
edge_name-twe-attrib $-1 -1 $-1 $283 $113 3 8448 #
coedge $-1 -1 $-1 $286 $430 $299 $388 reversed $375 $-1 #
loop $440 -1 $-1 $-1 $286 $441 #
attrib_edge_convexity-kcp-attrib $-1 -1 $442 $-1 $287 1 #
ellipse-curve $443 -1 $-1 0 0 5 0.58622749982823297 0.42591920971147401 -0.68915175777465199 4.0450849718747097 2.9389262614624001 5.2573111211913401 0.68915175777465199 I I #
convexity-sys-attrib $-1 -1 $444 $288 $190 #
point $-1 -1 $-1 -4.7552825814757602 -1.5450849718747699 0 #
cur-twe-attrib $-1 -1 $-1 $-1 $290 112 #
convexity-sys-attrib $-1 -1 $445 $292 $195 #
cur-twe-attrib $-1 -1 $-1 $-1 $293 116 #
attrib_edge_convexity-kcp-attrib $-1 -1 $446 $-1 $295 1 #
vertex $-1 -1 $-1 $325 $447 #
straight-curve $448 -1 $-1 4.75528258147577 1.5450849718747399 0 0.67249851196395705 0.21850801222441099 -0.70710678118654702 I I #
edge_name-twe-attrib $-1 -1 $-1 $296 $121 13 9216 #
coedge $-1 -1 $-1 $300 $299 $429 $449 reversed $301 $-1 #
edge $450 -1 $-1 $303 -6.0971111127126157e-015 $451 7.071067811865472 $374 $452 forward @7 unknown #
model_id-kcp-attrib $-1 -1 $453 $-1 $301 1 1021392317 1021392317 -2133786623 27 #
face $454 -1 $-1 $441 $301 $7 $-1 $455 reversed single #
convexity-sys-attrib $-1 -1 $456 $302 $202 #
point $-1 -1 $-1 -2.9389262614623299 -4.0450849718747603 7.1855143557449096e-016 #
cur-twe-attrib $-1 -1 $-1 $-1 $304 123 #
coedge $-1 -1 $-1 $429 $312 $305 $395 forward $133 $-1 #
edge $457 -1 $-1 $315 -3.0901699437494785 $397 3.0901699437494767 $305 $458 forward @7 unknown #
attrib_edge_convexity-kcp-attrib $-1 -1 $459 $-1 $306 1 #
vertex $-1 -1 $-1 $449 $460 #
straight-curve $461 -1 $-1 5.2372220241091998e-014 -5 0 7.4065504156543005e-015 -0.70710678118654702 -0.70710678118654702 I I #
loop_type-twe-attrib $-1 -1 $-1 $307 $205 0 #
model_id-kcp-attrib $-1 -1 $462 $-1 $308 1 1021392317 1021392317 -2133786623 10 #
plane-surface $463 -1 $-1 2.9389262614624099 -4.0450849718747 0 -0.22391897979452099 0.68915175777464899 -0.68915175777465199 -0.95105651629515098 0 0.309016994374957 forward_v I I I I #
edge_name-twe-attrib $-1 -1 $-1 $309 $124 20 9216 #
attrib_edge_convexity-kcp-attrib $-1 -1 $464 $-1 $313 1 #
straight-curve $465 -1 $-1 7.6942088429381803 -5.5901699437494496 -5 -0.58778525229246903 -0.809016994374951 0 I I #
convexity-sys-attrib $-1 -1 $466 $314 $210 #
point $-1 -1 $-1 5.8778525229248197 -8.0901699437494106 -5 #
cur-twe-attrib $-1 -1 $-1 $-1 $316 131 #
convexity-sys-attrib $-1 -1 $467 $317 $211 #
point $-1 -1 $-1 9.5105651629515293 -3.0901699437494798 -5 #
cur-twe-attrib $-1 -1 $-1 $-1 $319 132 #
face_name-twe-attrib $-1 -1 $-1 $321 $213 8 #
surf-twe-attrib $-1 -1 $-1 $-1 $322 134 #
edge $468 -1 $-1 $350 -3.0901699437494869 $384 3.0901699437494772 $346 $469 forward @7 unknown #
attrib_edge_convexity-kcp-attrib $-1 -1 $470 $-1 $325 1 #
straight-curve $471 -1 $-1 9.5105651629515293 0 -5 0 -1 0 I I #
straight-curve $-1 -1 $-1 -9.5105651629515489 10 0 0 0 -1 I I #
point $-1 -1 $-1 -9.5105651629515489 -10 -2.5000000000000027 #
straight-curve $-1 -1 $-1 -9.5105651629515489 0 -2.5000000000000027 0 1 0 I I #
point $-1 -1 $-1 -9.5105651629515489 10 -2.5000000000000027 #
attrib_edge_convexity-kcp-attrib $-1 -1 $472 $-1 $348 1 #
straight-curve $473 -1 $-1 2.9389262614623402 9.0450849718747399 -5 0.95105651629515497 -0.30901699437494501 0 I I #
convexity-sys-attrib $-1 -1 $474 $349 $261 #
point $-1 -1 $-1 5.8778525229247096 8.0901699437494905 -5 #
cur-twe-attrib $-1 -1 $-1 $-1 $351 147 #
edge_name-twe-attrib $-1 -1 $-1 $352 $172 7 9216 #
convexity-sys-attrib $-1 -1 $475 $355 $266 #
cur-twe-attrib $-1 -1 $-1 $-1 $356 152 #
edge_name-twe-attrib $-1 -1 $-1 $357 $174 9 8448 #
coedge $-1 -1 $-1 $361 $394 $387 $449 forward $133 $-1 #
coedge $-1 -1 $-1 $374 $365 $361 $431 reversed $375 $-1 #
edge $476 -1 $-1 $451 -3.0901699437494825 $368 3.0901699437494834 $430 $477 forward @7 unknown #
edge_name-twe-attrib $-1 -1 $-1 $362 $179 2 9216 #
attrib_edge_convexity-kcp-attrib $-1 -1 $478 $-1 $366 1 #
straight-curve $479 -1 $-1 -4.7552825814757602 -1.5450849718747699 0 -0.67249851196395605 -0.21850801222441599 -0.70710678118654702 I I #
convexity-sys-attrib $-1 -1 $480 $367 $280 #
point $-1 -1 $-1 -9.5105651629515098 -3.09016994374955 -5 #
cur-twe-attrib $-1 -1 $-1 $-1 $369 164 #
face_name-twe-attrib $-1 -1 $-1 $371 $282 12 #
surf-twe-attrib $-1 -1 $-1 $-1 $372 166 #
model_id-kcp-attrib $-1 -1 $481 $-1 $375 1 1021392317 1021392317 -2133786623 26 #
face $482 -1 $-1 $282 $375 $7 $-1 $483 reversed single #
convexity-sys-attrib $-1 -1 $484 $376 $287 #
cur-twe-attrib $-1 -1 $-1 $-1 $377 170 #
edge_name-twe-attrib $-1 -1 $-1 $378 $190 29 9216 #
edge_name-twe-attrib $-1 -1 $-1 $381 $195 10 9216 #
convexity-sys-attrib $-1 -1 $485 $383 $295 #
point $-1 -1 $-1 9.5105651629515293 3.0901699437494798 -5 #
cur-twe-attrib $-1 -1 $-1 $-1 $385 177 #
edge $486 -1 $-1 $397 -3.0901699437494754 $451 3.0901699437494772 $387 $487 forward @7 unknown #
attrib_edge_convexity-kcp-attrib $-1 -1 $488 $-1 $388 1 #
vertex $-1 -1 $-1 $431 $489 #
straight-curve $490 -1 $-1 -2.9389262614623299 -4.0450849718747701 0 -0.41562693777744802 -0.57206140281768803 -0.70710678118654702 I I #
loop_type-twe-attrib $-1 -1 $-1 $389 $301 0 #
model_id-kcp-attrib $-1 -1 $491 $-1 $390 1 1021392317 1021392317 -2133786623 11 #
plane-surface $492 -1 $-1 5.2402526762307401e-014 -5 0 0.22391897979450595 0.68915175777465387 -0.68915175777465187 -0.95105651629515597 0 -0.30901699437493901 forward_v I I I I #
edge_name-twe-attrib $-1 -1 $-1 $391 $202 23 9216 #
attrib_edge_convexity-kcp-attrib $-1 -1 $493 $-1 $395 1 #
straight-curve $494 -1 $-1 2.9389262614624601 -9.0450849718747008 -5 -0.95105651629514998 -0.309016994374958 0 I I #
convexity-sys-attrib $-1 -1 $495 $396 $306 #
point $-1 -1 $-1 1.04744440482184e-013 -10 -5 #
cur-twe-attrib $-1 -1 $-1 $-1 $398 187 #
face_name-twe-attrib $-1 -1 $-1 $400 $308 9 #
surf-twe-attrib $-1 -1 $-1 $-1 $401 189 #
convexity-sys-attrib $-1 -1 $496 $403 $313 #
cur-twe-attrib $-1 -1 $-1 $-1 $404 193 #
edge_name-twe-attrib $-1 -1 $-1 $405 $210 22 8448 #
edge_name-twe-attrib $-1 -1 $-1 $408 $211 14 8448 #
attrib_edge_convexity-kcp-attrib $-1 -1 $497 $-1 $413 1 #
straight-curve $498 -1 $-1 7.6942088429381199 5.5901699437494798 -5 0.58778525229247403 -0.80901699437494701 0 I I #
convexity-sys-attrib $-1 -1 $499 $414 $325 #
cur-twe-attrib $-1 -1 $-1 $-1 $415 203 #
convexity-sys-attrib $-1 -1 $500 $420 $348 #
cur-twe-attrib $-1 -1 $-1 $-1 $421 207 #
edge_name-twe-attrib $-1 -1 $-1 $422 $261 12 8448 #
edge_name-twe-attrib $-1 -1 $-1 $426 $266 5 9216 #
attrib_edge_convexity-kcp-attrib $-1 -1 $501 $-1 $431 1 #
straight-curve $502 -1 $-1 -7.6942088429380799 -5.5901699437495402 -5 -0.58778525229248002 0.80901699437494201 0 I I #
convexity-sys-attrib $-1 -1 $503 $433 $366 #
cur-twe-attrib $-1 -1 $-1 $-1 $434 220 #
edge_name-twe-attrib $-1 -1 $-1 $435 $280 30 9216 #
loop_type-twe-attrib $-1 -1 $-1 $440 $375 0 #
model_id-kcp-attrib $-1 -1 $504 $-1 $441 1 1021392317 1021392317 -2133786623 12 #
plane-surface $505 -1 $-1 -2.9389262614623299 -4.0450849718747701 0 0.58622749982823297 0.42591920971147401 -0.68915175777465199 -0.76169464242271501 0 -0.64793616329429604 forward_v I I I I #
edge_name-twe-attrib $-1 -1 $-1 $442 $287 26 9216 #
edge_name-twe-attrib $-1 -1 $-1 $446 $295 16 8448 #
attrib_edge_convexity-kcp-attrib $-1 -1 $506 $-1 $449 1 #
straight-curve $507 -1 $-1 -2.93892626146227 -9.0450849718747595 -5 -0.95105651629515697 0.30901699437493801 0 I I #
convexity-sys-attrib $-1 -1 $508 $450 $388 #
point $-1 -1 $-1 -5.8778525229246501 -8.0901699437495296 -5 #
cur-twe-attrib $-1 -1 $-1 $-1 $452 237 #
face_name-twe-attrib $-1 -1 $-1 $454 $390 10 #
surf-twe-attrib $-1 -1 $-1 $-1 $455 239 #
convexity-sys-attrib $-1 -1 $509 $457 $395 #
cur-twe-attrib $-1 -1 $-1 $-1 $458 243 #
edge_name-twe-attrib $-1 -1 $-1 $459 $306 25 8448 #
edge_name-twe-attrib $-1 -1 $-1 $464 $313 19 9216 #
convexity-sys-attrib $-1 -1 $510 $468 $413 #
cur-twe-attrib $-1 -1 $-1 $-1 $469 256 #
edge_name-twe-attrib $-1 -1 $-1 $470 $325 15 9216 #
edge_name-twe-attrib $-1 -1 $-1 $472 $348 8 9216 #
convexity-sys-attrib $-1 -1 $511 $476 $431 #
cur-twe-attrib $-1 -1 $-1 $-1 $477 266 #
edge_name-twe-attrib $-1 -1 $-1 $478 $366 31 8448 #
face_name-twe-attrib $-1 -1 $-1 $482 $441 11 #
surf-twe-attrib $-1 -1 $-1 $-1 $483 273 #
convexity-sys-attrib $-1 -1 $512 $486 $449 #
cur-twe-attrib $-1 -1 $-1 $-1 $487 277 #
edge_name-twe-attrib $-1 -1 $-1 $488 $388 28 8448 #
edge_name-twe-attrib $-1 -1 $-1 $493 $395 21 9216 #
edge_name-twe-attrib $-1 -1 $-1 $497 $413 11 9216 #
edge_name-twe-attrib $-1 -1 $-1 $501 $431 27 9216 #
edge_name-twe-attrib $-1 -1 $-1 $506 $449 24 9216 #
End-of-ACIS-data 