600 0 1 0           
77 GICL ACIS Healer - Source: /gicl/data5/repository/UMD/castle/castle.sat - 6 0 18 ACIS 6.0.3 Solaris 24 Sun Apr 14 00:36:13 2002 
1 9.999999999999999547e-07 1.000000000000000036e-10 
body $-1 $1 $-1 $-1 #
lump $-1 $-1 $2 $0 #
shell $-1 $-1 $-1 $3 $-1 $1 #
face $-1 $4 $5 $2 $-1 $6 forward single #
face $-1 $7 $8 $2 $-1 $9 forward single #
loop $-1 $-1 $10 $3 #
cone-surface $-1 -35 13.49999999999990052 28 1 2.368475785867000094e-15 0 -1.004859173557620051e-14 2.121320343559640165 -2.121320343559640165 1 I I 0 -1 2.999999999999996447 forward I I I I #
face $-1 $11 $12 $2 $-1 $13 forward single #
loop $-1 $-1 $14 $4 #
plane-surface $-1 0 0 25 0 0 1 1 0 0 forward_v I I I I #
coedge $-1 $15 $16 $17 $18 forward $5 $-1 #
face $-1 $19 $20 $2 $-1 $21 forward single #
loop $-1 $-1 $22 $7 #
cone-surface $-1 -35 -13.50000000000009948 28 -1 -2.368475785867000094e-15 -0 1.004859173557620051e-14 -2.121320343559640165 -2.121320343559640165 1 I I 0 -1 2.999999999999996447 forward I I I I #
coedge $-1 $23 $24 $25 $26 reversed $8 $-1 #
coedge $-1 $25 $10 $27 $28 reversed $5 $-1 #
coedge $-1 $10 $25 $29 $30 reversed $5 $-1 #
coedge $-1 $31 $32 $10 $18 reversed $33 $-1 #
edge $-1 $34 19.99999999999994316 $35 49.99999999999994316 $17 $36 forward 7 unknown #
face $-1 $37 $38 $2 $-1 $9 forward single #
loop $-1 $-1 $39 $11 #
cone-surface $-1 -13.5 33.25 28 0 1 0 -2.121320343559640165 0 -2.121320343559640165 1 I I 0 -1 2.999999999999996447 forward I I I I #
coedge $-1 $40 $41 $42 $43 forward $12 $-1 #
coedge $-1 $44 $14 $45 $46 reversed $8 $-1 #
coedge $-1 $14 $47 $48 $49 forward $8 $-1 #
coedge $-1 $16 $15 $14 $26 forward $5 $-1 #
edge $-1 $50 -49.99999999999995026 $51 -24.58257569495575012 $14 $52 forward 7 unknown #
coedge $-1 $53 $45 $15 $28 forward $54 $-1 #
edge $-1 $50 -0.785398163397448279 $35 0.785398163397448279 $27 $55 forward 7 unknown #
coedge $-1 $48 $56 $16 $30 forward $57 $-1 #
edge $-1 $34 -21.82470684112890069 $51 -15.50490099830400048 $29 $58 forward 7 unknown #
coedge $-1 $59 $17 $56 $60 forward $33 $-1 #
coedge $-1 $17 $61 $53 $62 reversed $33 $-1 #
loop $-1 $-1 $31 $63 #
vertex $-1 $60 $64 #
vertex $-1 $62 $65 #
straight-curve $-1 -5.760944209091169405e-14 16.5 28 -1 -3.491481338843129805e-15 -0 I I #
face $-1 $66 $67 $2 $-1 $68 forward single #
loop $-1 $-1 $69 $19 #
coedge $-1 $70 $71 $72 $73 forward $20 $-1 #
coedge $-1 $74 $22 $75 $76 reversed $12 $-1 #
coedge $-1 $22 $74 $77 $78 reversed $12 $-1 #
coedge $-1 $79 $80 $22 $43 reversed $81 $-1 #
edge $-1 $82 -50.00000000000005684 $83 -20.00000000000005684 $42 $84 forward 7 unknown #
coedge $-1 $85 $23 $74 $86 reversed $8 $-1 #
coedge $-1 $27 $77 $23 $46 forward $54 $-1 #
edge $-1 $87 -13.50000000000020073 $50 13.49999999999979927 $45 $88 forward 7 unknown #
coedge $-1 $24 $85 $89 $90 forward $8 $-1 #
coedge $-1 $91 $29 $24 $49 reversed $57 $-1 #
edge $-1 $92 -0.7853981633974469467 $51 -0.3738813173299557202 $24 $93 forward 7 unknown #
vertex $-1 $46 $94 #
vertex $-1 $49 $95 #
straight-curve $-1 -5.05040147333106985e-14 13.5 25 1 3.491481338843129805e-15 0 I I #
coedge $-1 $96 $27 $32 $62 forward $54 $-1 #
loop $-1 $-1 $97 $98 #
ellipse-curve $-1 -50 13.49999999999979927 28 1 0 0 -1.004859173557620051e-14 2.121320343559640165 -2.121320343559640165 1 I I #
coedge $-1 $29 $99 $31 $60 reversed $57 $-1 #
loop $-1 $-1 $91 $100 #
intcurve-curve $-1 reversed { surfintcur full nubs 3 open 9 
	15.50490099830400048 3 16.14346876489230098 2 16.78203653148059971 2 17.42060429806889843 2 18.05917206465730018 2 
	19.00055575877519942 2 19.94193945289309866 2 20.88332314701100145 2 21.82470684112890069 3 
	-24.58257569495579986 13.49999999999990052 25 
	-24.49743332607739887 13.69508567511659969 25 
	-24.39728229035009832 13.89000703988370056 25.01928475525840057 
	-24.17081390560679921 14.26632184575069928 25.09319424620180072 
	-24.04450613645279944 14.44773257299740088 25.14776030937679963 
	-23.77371154036070067 14.78728726321510045 25.28405449868349919 
	-23.62908583183060074 14.94564856002310016 25.36581918551209824 
	-23.33218334517039949 15.23353882054679964 25.54568716712790177 
	-23.17991542364309865 15.36309193214099977 25.64376642928079875 
	-22.80994468993380053 15.64499917957729913 25.89076986123210133 
	-22.57309416986679906 15.79619151415390021 26.05672152719689905 
	-22.0783920696953011 16.05613449448150121 26.41412385647929995 
	-21.82053945765699865 16.16491839929890162 26.60554890048549836 
	-21.29725757682099996 16.3366257726661992 27.00008025857869853 
	-21.03167115168719903 16.39960414302629843 27.20329113858030112 
	-20.50708505252449854 16.48129811051299853 27.60717589242920056 
	-20.24807638546300126 16.49999999999990052 27.80784085810289952 
	-20 16.49999999999990052 28 
	0.001000000000000000021 
	cone -35 13.49999999999990052 28 1 2.368475785867000094e-15 0 -1.004859173557620051e-14 2.121320343559640165 -2.121320343559640165 1 I I 0 -1 2.999999999999996447 forward I I I I 
	cone -20 11.50000000000009948 -12.5 -0 -3.55271367880050014e-15 1 -3.535533905932739973 3.535533905932730203 1.256073966947019936e-14 1 I I 0 -1 4.999999999999996447 forward I I I I 
	nullbs 
	nullbs 
	I F 21.82470584112889966 
	0 
	1 21.82470584112889966 
	0 
	} I I #
coedge $-1 $101 $31 $102 $103 reversed $33 $-1 #
edge $-1 $34 -40.5 $104 37.5 $31 $105 forward 7 unknown #
coedge $-1 $32 $106 $107 $108 reversed $33 $-1 #
edge $-1 $35 9.25 $109 31.25 $53 $110 forward 7 unknown #
face $-1 $111 $33 $2 $-1 $112 forward single #
point $-1 -20 16.49999999999990052 28 #
point $-1 -50 16.49999999999980105 28 #
face $-1 $113 $114 $2 $-1 $115 forward single #
loop $-1 $-1 $116 $37 #
cone-surface $-1 13.5 33.25 28 0 -1 -0 2.121320343559640165 0 -2.121320343559640165 1 I I 0 -1 2.999999999999996447 forward I I I I #
coedge $-1 $117 $118 $119 $120 reversed $38 $-1 #
coedge $-1 $119 $39 $121 $122 reversed $20 $-1 #
coedge $-1 $39 $119 $123 $124 reversed $20 $-1 #
coedge $-1 $125 $126 $39 $73 reversed $127 $-1 #
edge $-1 $128 -50 $129 -16.49999999999990052 $72 $130 forward 7 unknown #
coedge $-1 $41 $40 $44 $86 forward $12 $-1 #
coedge $-1 $131 $132 $40 $76 forward $133 $-1 #
edge $-1 $134 -6.319805842824839814 $83 -0 $75 $135 forward 7 unknown #
coedge $-1 $45 $97 $41 $78 forward $54 $-1 #
edge $-1 $82 -0.785398163397448279 $87 0.785398163397448279 $77 $136 forward 7 unknown #
coedge $-1 $137 $42 $97 $138 reversed $81 $-1 #
coedge $-1 $42 $139 $131 $140 forward $81 $-1 #
loop $-1 $-1 $42 $141 #
vertex $-1 $138 $142 #
vertex $-1 $140 $143 #
straight-curve $-1 5.760944209091169405e-14 -16.5 28 1 3.491481338843129805e-15 0 I I #
coedge $-1 $47 $44 $132 $144 forward $8 $-1 #
edge $-1 $134 24.5825756949558496 $87 50.00000000000004974 $44 $145 forward 7 unknown #
vertex $-1 $46 $146 #
straight-curve $-1 -50 0 25 0 1 0 I I #
coedge $-1 $147 $148 $47 $90 reversed $149 $-1 #
edge $-1 $150 -11.50000000000009948 $92 11.49999999999990052 $47 $151 forward 7 unknown #
coedge $-1 $99 $48 $148 $152 forward $57 $-1 #
vertex $-1 $90 $153 #
ellipse-curve $-1 -20 11.49999999999990052 25 -0 -0 -1 -3.535533905932739973 3.535533905932730203 1.256073966947019936e-14 1 I I #
point $-1 -50 13.49999999999979927 25 #
point $-1 -24.58257569495579986 13.49999999999990052 25 #
coedge $-1 $154 $53 $155 $156 reversed $54 $-1 #
coedge $-1 $77 $157 $79 $138 forward $54 $-1 #
face $-1 $158 $54 $2 $-1 $159 reversed single #
coedge $-1 $56 $91 $160 $161 reversed $57 $-1 #
face $-1 $63 $57 $2 $-1 $162 forward single #
coedge $-1 $163 $59 $164 $165 forward $33 $-1 #
coedge $-1 $160 $166 $59 $103 forward $167 $-1 #
edge $-1 $168 -20 $104 20 $102 $169 forward 7 unknown #
vertex $-1 $103 $170 #
straight-curve $-1 -20 16.49999999999990052 -12.5 0 3.55271367880050014e-15 -1 I I #
coedge $-1 $61 $121 $126 $171 reversed $33 $-1 #
coedge $-1 $172 $155 $61 $108 forward $173 $-1 #
edge $-1 $109 -50.00000000000004263 $174 -16.49999999999994316 $107 $175 forward 7 unknown #
vertex $-1 $156 $176 #
straight-curve $-1 -50 16.49999999999980105 18.75 -0 0 1 I I #
face $-1 $177 $178 $2 $-1 $179 forward single #
plane-surface $-1 -5.760944209091169405e-14 16.5 37.5 3.491481338843129805e-15 -1 0 0 0 1 forward_v I I I I #
face $-1 $180 $181 $2 $-1 $9 forward single #
loop $-1 $-1 $182 $66 #
cone-surface $-1 35 13.50000000000009948 28 1 2.368475785867000094e-15 0 -1.004859173557620051e-14 2.121320343559640165 -2.121320343559640165 1 I I 0 -1 2.999999999999996447 forward I I I I #
coedge $-1 $183 $184 $185 $186 forward $67 $-1 #
coedge $-1 $187 $69 $188 $189 forward $38 $-1 #
coedge $-1 $69 $187 $190 $191 reversed $38 $-1 #
coedge $-1 $71 $70 $69 $120 forward $20 $-1 #
edge $-1 $192 16.49999999999990052 $193 50 $69 $194 forward 7 unknown #
coedge $-1 $106 $188 $70 $122 forward $33 $-1 #
edge $-1 $192 -0.785398163397448279 $129 0.785398163397448279 $121 $195 forward 7 unknown #
coedge $-1 $190 $196 $71 $124 forward $197 $-1 #
edge $-1 $128 -0.785398163397448279 $193 0.785398163397448279 $123 $198 forward 7 unknown #
coedge $-1 $199 $72 $196 $200 reversed $127 $-1 #
coedge $-1 $72 $199 $106 $171 forward $127 $-1 #
loop $-1 $-1 $72 $201 #
vertex $-1 $200 $202 #
vertex $-1 $171 $203 #
straight-curve $-1 -16.5 0 28 -0 -1 -0 I I #
coedge $-1 $204 $75 $80 $140 reversed $133 $-1 #
coedge $-1 $75 $205 $85 $144 reversed $133 $-1 #
loop $-1 $-1 $205 $206 #
vertex $-1 $76 $207 #
intcurve-curve $-1 reversed { surfintcur full nubs 3 open 9 
	0 3 0.9413836941179050122 2 1.882767388235810024 2 2.824151082353710152 2 3.765534776471620049 2 
	4.404102543059919661 2 5.042670309648229932 2 5.681238076236530432 2 6.319805842824839814 3 
	-20 -16.50000000000009948 28 
	-20.24807638546300126 -16.50000000000009948 27.80784085810289952 
	-20.50708505252449854 -16.48129811051310156 27.60717589242920056 
	-21.03167115168719903 -16.39960414302640146 27.20329113858030112 
	-21.29725757682099996 -16.3366257726664017 27.00008025857859906 
	-21.82053945765689917 -16.16491839929910057 26.60554890048549836 
	-22.0783920696953011 -16.05613449448170016 26.41412385647929995 
	-22.57309416986679906 -15.79619151415399969 26.05672152719689905 
	-22.80994468993380053 -15.64499917957740038 25.89076986123210133 
	-23.17991542364299917 -15.3630919321412005 25.64376642928069927 
	-23.33218334517039949 -15.23353882054689912 25.54568716712779874 
	-23.62908583183060074 -14.94564856002330089 25.36581918551199877 
	-23.77371154036070067 -14.7872872632152994 25.28405449868349919 
	-24.04450613645269996 -14.44773257299759983 25.14776030937679963 
	-24.17081390560679921 -14.26632184575090001 25.09319424620180072 
	-24.39728229035009832 -13.89000703988380003 25.01928475525840057 
	-24.49743332607739887 -13.69508567511669916 25 
	-24.58257569495579986 -13.50000000000009948 25 
	0.001000000000000000021 
	cone -35 -13.50000000000009948 28 -1 -2.368475785867000094e-15 -0 1.004859173557620051e-14 -2.121320343559640165 -2.121320343559640165 1 I I 0 -1 2.999999999999996447 forward I I I I 
	cone -20 -11.49999999999990052 -12.5 -0 3.55271367880050014e-15 -1 -3.535533905932730203 -3.535533905932739973 -1.256073966947019936e-14 1 I I 0 -1 4.999999999999996447 forward I I I I 
	nullbs 
	nullbs 
	F 9.999999999999520974e-07 I 
	0 
	1 9.999999999999520974e-07 
	0 
	} I I #
ellipse-curve $-1 -50 -13.50000000000020073 28 1 0 0 1.004859173557620051e-14 -2.121320343559640165 -2.121320343559640165 1 I I #
coedge $-1 $208 $79 $209 $210 reversed $81 $-1 #
edge $-1 $211 -31.25 $82 -9.25 $97 $212 forward 7 unknown #
coedge $-1 $80 $213 $214 $215 reversed $81 $-1 #
edge $-1 $216 -37.5 $83 40.5 $80 $217 forward 7 unknown #
face $-1 $206 $81 $2 $-1 $218 forward single #
point $-1 -50 -16.50000000000019895 28 #
point $-1 -20 -16.50000000000009948 28 #
edge $-1 $134 0.3738813173299583847 $150 0.7853981633974497223 $85 $219 forward 7 unknown #
straight-curve $-1 5.05040147333106985e-14 -13.5 25 -1 -3.491481338843129805e-15 0 I I #
point $-1 -50 -13.50000000000020073 25 #
coedge $-1 $220 $89 $205 $221 reversed $149 $-1 #
coedge $-1 $89 $220 $91 $152 reversed $149 $-1 #
loop $-1 $-1 $148 $222 #
vertex $-1 $90 $223 #
straight-curve $-1 -25 0 25 0 1 0 I I #
edge $-1 $92 -24.99999999999996092 $224 50.00000000000004263 $148 $225 forward 7 unknown #
point $-1 -25 11.49999999999990052 25 #
coedge $-1 $226 $96 $227 $228 forward $54 $-1 #
coedge $-1 $107 $229 $96 $156 forward $173 $-1 #
edge $-1 $230 -50 $109 -16.49999999999980105 $96 $231 forward 7 unknown #
coedge $-1 $97 $232 $233 $234 reversed $54 $-1 #
face $-1 $201 $173 $2 $-1 $235 forward single #
plane-surface $-1 -50 0 0 1 0 0 0 0 -1 forward_v I I I I #
coedge $-1 $236 $102 $99 $161 forward $167 $-1 #
edge $-1 $104 -0.7853981633974496113 $224 0.7853981633974469467 $160 $237 forward 7 unknown #
cone-surface $-1 -20 11.50000000000009948 -12.5 -0 -3.55271367880050014e-15 1 -3.535533905932739973 3.535533905932730203 1.256073966947019936e-14 1 I I 0 -1 4.999999999999996447 forward I I I I #
coedge $-1 $238 $101 $182 $239 reversed $33 $-1 #
coedge $-1 $240 $241 $101 $165 reversed $178 $-1 #
edge $-1 $168 -37.5 $242 40.5 $101 $243 forward 7 unknown #
coedge $-1 $102 $244 $240 $245 forward $167 $-1 #
loop $-1 $246 $102 $247 #
vertex $-1 $103 $248 #
straight-curve $-1 0 16.50000000000019895 -50 -1 -0 0 I I #
point $-1 -20 16.50000000000019895 -50 #
edge $-1 $174 -12.5 $129 9.5 $126 $249 forward 7 unknown #
coedge $-1 $229 $107 $199 $250 forward $173 $-1 #
loop $-1 $-1 $107 $158 #
vertex $-1 $171 $251 #
straight-curve $-1 -5.760944209091169405e-14 16.5 50 1 3.491481338843129805e-15 -0 I I #
point $-1 -50.00000000000009948 16.49999999999980105 50 #
face $-1 $141 $252 $2 $-1 $253 forward single #
loop $-1 $-1 $254 $111 #
cone-surface $-1 20 11.5 -12.5 -0 3.55271367880050014e-15 -1 3.535533905932730203 3.535533905932739973 1.256073966947019936e-14 1 I I 0 -1 4.999999999999996447 forward I I I I #
face $-1 $255 $256 $2 $-1 $257 forward single #
loop $-1 $-1 $258 $113 #
coedge $-1 $259 $260 $163 $239 forward $114 $-1 #
coedge $-1 $261 $116 $262 $263 reversed $67 $-1 #
coedge $-1 $116 $261 $264 $265 reversed $67 $-1 #
coedge $-1 $266 $267 $116 $186 reversed $268 $-1 #
edge $-1 $269 16.50000000000009948 $270 50 $185 $271 forward 7 unknown #
coedge $-1 $118 $117 $261 $272 reversed $38 $-1 #
coedge $-1 $121 $264 $117 $189 reversed $33 $-1 #
edge $-1 $192 -13.5 $273 13.5 $117 $274 forward 7 unknown #
coedge $-1 $262 $123 $118 $191 forward $197 $-1 #
edge $-1 $193 -13.5 $275 13.5 $190 $276 forward 7 unknown #
vertex $-1 $122 $277 #
vertex $-1 $191 $278 #
straight-curve $-1 -13.5 0 25 0 1 0 I I #
ellipse-curve $-1 -13.5 16.5 28 -3.491481338843129805e-15 1 -0 -2.121320343559640165 0 -2.121320343559640165 1 I I #
coedge $-1 $123 $279 $125 $200 forward $197 $-1 #
loop $-1 $-1 $280 $281 #
ellipse-curve $-1 -13.5 50 28 0 -1 0 -2.121320343559640165 0 -2.121320343559640165 1 I I #
coedge $-1 $126 $125 $172 $250 reversed $127 $-1 #
edge $-1 $282 -31.25 $128 -9.25 $196 $283 forward 7 unknown #
face $-1 $284 $127 $2 $-1 $285 forward single #
point $-1 -16.5 50 28 #
point $-1 -16.5 16.49999999999990052 28 #
coedge $-1 $205 $131 $286 $287 reversed $133 $-1 #
coedge $-1 $132 $204 $147 $221 forward $133 $-1 #
face $-1 $222 $133 $2 $-1 $288 forward single #
point $-1 -24.58257569495579986 -13.50000000000009948 25 #
coedge $-1 $289 $137 $290 $291 reversed $81 $-1 #
coedge $-1 $233 $292 $137 $210 forward $293 $-1 #
edge $-1 $294 16.50000000000005684 $211 49.99999999999995737 $209 $295 forward 7 unknown #
vertex $-1 $210 $296 #
straight-curve $-1 -50 -16.50000000000019895 18.75 0 0 -1 I I #
coedge $-1 $139 $297 $298 $299 forward $81 $-1 #
coedge $-1 $300 $286 $139 $215 forward $167 $-1 #
edge $-1 $216 -20 $301 20 $214 $302 forward 7 unknown #
vertex $-1 $215 $303 #
straight-curve $-1 -20 -16.50000000000009948 -12.5 0 -3.55271367880050014e-15 1 I I #
plane-surface $-1 5.760944209091169405e-14 -16.5 37.5 -3.491481338843129805e-15 1 0 -0 0 -1 forward_v I I I I #
ellipse-curve $-1 -20 -11.50000000000009948 25 -0 -0 -1 -3.535533905932730203 -3.535533905932739973 -1.256073966947019936e-14 1 I I #
coedge $-1 $148 $147 $236 $304 reversed $149 $-1 #
edge $-1 $305 -49.99999999999995737 $150 25.00000000000003908 $147 $306 forward 7 unknown #
face $-1 $307 $149 $2 $-1 $308 forward single #
point $-1 -25 -11.50000000000009948 25 #
vertex $-1 $304 $309 #
straight-curve $-1 -25 11.5 3.984587369690920203e-14 0 3.491481338843129805e-15 -1 I I #
coedge $-1 $232 $154 $310 $311 reversed $54 $-1 #
coedge $-1 $279 $312 $154 $228 reversed $197 $-1 #
edge $-1 $230 -50 $313 50 $227 $314 forward 7 unknown #
coedge $-1 $155 $172 $279 $315 forward $173 $-1 #
vertex $-1 $315 $316 #
straight-curve $-1 -50 0 50 0 -1 0 I I #
coedge $-1 $157 $226 $317 $318 reversed $54 $-1 #
coedge $-1 $319 $209 $157 $234 forward $293 $-1 #
edge $-1 $211 16.50000000000019895 $320 50 $157 $231 forward 7 unknown #
plane-surface $-1 0 0 50 0 0 1 1 0 0 forward_v I I I I #
coedge $-1 $286 $160 $220 $304 forward $167 $-1 #
ellipse-curve $-1 -20 11.50000000000020073 -50 0 0 1 -3.535533905932739973 3.535533905932730203 1.256073966947019936e-14 1 I I #
coedge $-1 $321 $163 $322 $323 reversed $33 $-1 #
edge $-1 $324 -50.00000000000005684 $242 -20.00000000000005684 $163 $325 forward 7 unknown #
coedge $-1 $254 $164 $166 $245 reversed $178 $-1 #
coedge $-1 $164 $326 $259 $327 forward $178 $-1 #
vertex $-1 $165 $328 #
straight-curve $-1 20 16.50000000000009948 -12.5 0 -3.55271367880050014e-15 1 I I #
coedge $-1 $166 $300 $329 $330 forward $167 $-1 #
edge $-1 $331 -0.7853981633974497223 $168 0.7853981633974469467 $166 $332 forward 7 unknown #
loop $-1 $-1 $333 $247 #
face $-1 $281 $167 $2 $-1 $334 reversed single #
point $-1 20 16.50000000000019895 -50 #
straight-curve $-1 -16.5 16.49999999999990052 37.5 0 0 -1 I I #
edge $-1 $174 16.49999999999990052 $282 50 $172 $335 forward 7 unknown #
point $-1 -16.5 16.49999999999990052 50 #
loop $-1 $-1 $336 $177 #
cone-surface $-1 20 -11.5 -12.5 -0 -3.55271367880050014e-15 1 3.535533905932739973 -3.535533905932730203 -1.256073966947019936e-14 1 I I 0 -1 4.999999999999996447 forward I I I I #
coedge $-1 $326 $240 $337 $338 forward $178 $-1 #
face $-1 $339 $340 $2 $-1 $341 forward single #
loop $-1 $-1 $342 $180 #
cone-surface $-1 35 -13.49999999999990052 28 -1 -2.368475785867000094e-15 -0 1.004859173557620051e-14 -2.121320343559640165 -2.121320343559640165 1 I I 0 -1 2.999999999999996447 forward I I I I #
coedge $-1 $343 $344 $345 $346 reversed $181 $-1 #
coedge $-1 $345 $182 $241 $327 reversed $114 $-1 #
coedge $-1 $182 $345 $347 $348 reversed $114 $-1 #
coedge $-1 $184 $183 $187 $272 forward $67 $-1 #
coedge $-1 $280 $190 $183 $263 forward $197 $-1 #
edge $-1 $275 -0.785398163397448279 $270 0.785398163397448279 $262 $349 forward 7 unknown #
coedge $-1 $188 $350 $184 $265 forward $33 $-1 #
edge $-1 $269 -0.785398163397448279 $273 0.785398163397448279 $264 $351 forward 7 unknown #
coedge $-1 $352 $185 $350 $353 forward $268 $-1 #
coedge $-1 $185 $352 $280 $354 reversed $268 $-1 #
loop $-1 $-1 $185 $284 #
vertex $-1 $265 $355 #
vertex $-1 $354 $356 #
straight-curve $-1 16.5 0 28 0 1 0 I I #
edge $-1 $275 -50 $273 -16.49999999999990052 $187 $357 forward 7 unknown #
vertex $-1 $189 $358 #
straight-curve $-1 0 16.49999999999990052 25 1 0 -0 I I #
vertex $-1 $191 $359 #
straight-curve $-1 0 50 25 1 0 -0 I I #
point $-1 -13.5 16.49999999999990052 25 #
point $-1 -13.5 50 25 #
coedge $-1 $196 $227 $229 $315 reversed $197 $-1 #
coedge $-1 $360 $262 $267 $354 forward $197 $-1 #
face $-1 $361 $197 $2 $-1 $362 reversed single #
vertex $-1 $200 $363 #
straight-curve $-1 -16.5 50 18.75 0 0 -1 I I #
face $-1 $364 $268 $2 $-1 $365 forward single #
plane-surface $-1 -16.5 0 37.5 1 0 0 0 0 -1 forward_v I I I I #
coedge $-1 $214 $236 $204 $287 forward $167 $-1 #
edge $-1 $305 -0.7853981633974497223 $216 0.7853981633974469467 $286 $366 forward 7 unknown #
cone-surface $-1 -20 -11.49999999999990052 -12.5 -0 3.55271367880050014e-15 -1 -3.535533905932730203 -3.535533905932739973 -1.256073966947019936e-14 1 I I 0 -1 4.999999999999996447 forward I I I I #
coedge $-1 $367 $208 $368 $369 forward $81 $-1 #
coedge $-1 $370 $371 $208 $291 forward $372 $-1 #
edge $-1 $373 -9.5 $294 12.5 $290 $374 forward 7 unknown #
coedge $-1 $209 $319 $370 $375 forward $293 $-1 #
loop $-1 $-1 $209 $376 #
vertex $-1 $375 $377 #
straight-curve $-1 5.760944209091169405e-14 -16.5 50 -1 -3.491481338843129805e-15 0 I I #
point $-1 -49.99999999999990052 -16.50000000000019895 50 #
coedge $-1 $213 $378 $342 $379 reversed $81 $-1 #
coedge $-1 $380 $381 $213 $299 reversed $252 $-1 #
edge $-1 $382 -40.5 $301 37.5 $213 $383 forward 7 unknown #
coedge $-1 $244 $214 $381 $384 forward $167 $-1 #
vertex $-1 $215 $385 #
straight-curve $-1 0 -16.49999999999980105 -50 1 0 -0 I I #
point $-1 -20 -16.49999999999980105 -50 #
edge $-1 $224 -11.50000000000020073 $305 11.49999999999979927 $236 $386 forward 7 unknown #
vertex $-1 $304 $387 #
straight-curve $-1 -25 -11.5 -3.984587369690920203e-14 0 -3.491481338843129805e-15 1 I I #
face $-1 $98 $388 $2 $-1 $389 forward single #
plane-surface $-1 -25 0 0 1 0 0 0 1 3.491481338843129805e-15 forward_v I I I I #
point $-1 -25 11.50000000000020073 -50 #
coedge $-1 $390 $391 $226 $311 forward $246 $-1 #
edge $-1 $392 -50 $313 50 $226 $393 forward 7 unknown #
coedge $-1 $227 $394 $390 $395 reversed $197 $-1 #
vertex $-1 $395 $396 #
straight-curve $-1 -50 50 0 0 0 -1 I I #
edge $-1 $282 16.5 $230 50 $279 $397 forward 7 unknown #
point $-1 -50 50 50 #
coedge $-1 $398 $399 $232 $318 forward $400 $-1 #
edge $-1 $320 -50 $392 50 $232 $401 forward 7 unknown #
coedge $-1 $292 $233 $399 $402 forward $293 $-1 #
vertex $-1 $234 $403 #
coedge $-1 $350 $238 $404 $405 reversed $33 $-1 #
coedge $-1 $347 $406 $238 $323 forward $407 $-1 #
edge $-1 $408 -31.25 $324 -9.25 $322 $409 forward 7 unknown #
vertex $-1 $323 $410 #
straight-curve $-1 -5.760944209091169405e-14 16.5 28 -1 -3.491481338843129805e-15 -0 I I #
coedge $-1 $241 $254 $343 $411 reversed $178 $-1 #
edge $-1 $412 -6.31980584282472968 $242 -0 $241 $413 forward 7 unknown #
point $-1 20 16.49999999999990052 28 #
coedge $-1 $414 $337 $244 $330 reversed $388 $-1 #
edge $-1 $415 -11.49999999999979927 $331 11.50000000000020073 $244 $416 forward 7 unknown #
vertex $-1 $330 $417 #
ellipse-curve $-1 20 11.50000000000020073 -50 0 0 1 3.535533905932730203 3.535533905932739973 1.256073966947019936e-14 1 I I #
coedge $-1 $391 $390 $418 $419 forward $246 $-1 #
plane-surface $-1 0 0 -50 0 0 1 1 0 0 forward_v I I I I #
straight-curve $-1 -16.5 0 50 0 1 0 I I #
coedge $-1 $381 $420 $414 $421 forward $252 $-1 #
coedge $-1 $329 $422 $254 $338 reversed $388 $-1 #
edge $-1 $331 -50.00000000000004263 $423 24.99999999999996092 $337 $424 forward 7 unknown #
face $-1 $425 $426 $2 $-1 $9 forward single #
loop $-1 $-1 $427 $255 #
cone-surface $-1 13.5 -33.25 28 0 -1 -0 2.121320343559640165 0 -2.121320343559640165 1 I I 0 -1 2.999999999999996447 forward I I I I #
coedge $-1 $428 $429 $297 $379 forward $256 $-1 #
coedge $-1 $430 $258 $326 $411 forward $181 $-1 #
coedge $-1 $258 $431 $432 $433 reversed $181 $-1 #
coedge $-1 $260 $259 $258 $346 forward $114 $-1 #
edge $-1 $412 24.5825756949558496 $434 50.00000000000004974 $258 $435 forward 7 unknown #
coedge $-1 $432 $322 $260 $348 forward $407 $-1 #
edge $-1 $324 -0.785398163397448279 $434 0.785398163397448279 $347 $436 forward 7 unknown #
ellipse-curve $-1 13.5 50 28 0 -1 0 2.121320343559640165 0 -2.121320343559640165 1 I I #
coedge $-1 $264 $321 $266 $353 reversed $33 $-1 #
ellipse-curve $-1 13.5 16.5 28 -3.491481338843129805e-15 1 -0 2.121320343559640165 0 -2.121320343559640165 1 I I #
coedge $-1 $267 $266 $437 $438 reversed $268 $-1 #
edge $-1 $269 -9.5 $439 12.5 $266 $440 forward 7 unknown #
edge $-1 $270 9.25 $441 31.25 $280 $442 forward 7 unknown #
point $-1 16.5 16.50000000000009948 28 #
point $-1 16.5 50 28 #
straight-curve $-1 13.5 0 25 0 -1 0 I I #
point $-1 13.5 16.49999999999990052 25 #
point $-1 13.5 50 25 #
coedge $-1 $394 $280 $443 $444 reversed $197 $-1 #
face $-1 $-1 $407 $2 $-1 $445 reversed single #
plane-surface $-1 0 50 0 0 -1 0 0 0 -1 forward_v I I I I #
point $-1 -16.5 50 50 #
face $-1 $446 $447 $2 $-1 $235 forward single #
plane-surface $-1 16.5 0 37.5 -1 0 0 0 0 1 forward_v I I I I #
ellipse-curve $-1 -20 -11.49999999999979927 -50 0 0 1 -3.535533905932730203 -3.535533905932739973 -1.256073966947019936e-14 1 I I #
coedge $-1 $448 $289 $449 $450 reversed $81 $-1 #
coedge $-1 $451 $452 $289 $369 reversed $453 $-1 #
edge $-1 $373 -0.785398163397448279 $454 0.785398163397448279 $289 $455 forward 7 unknown #
coedge $-1 $456 $290 $292 $375 reversed $372 $-1 #
coedge $-1 $290 $456 $451 $457 reversed $372 $-1 #
loop $-1 $-1 $371 $446 #
vertex $-1 $369 $458 #
straight-curve $-1 -16.5 -16.50000000000009948 37.5 0 -0 1 I I #
edge $-1 $459 -50 $294 -16.50000000000009948 $292 $335 forward 7 unknown #
face $-1 $460 $293 $2 $-1 $235 forward single #
point $-1 -16.5 -16.50000000000009948 50 #
coedge $-1 $297 $461 $462 $463 reversed $81 $-1 #
edge $-1 $382 19.99999999999994316 $464 49.99999999999994316 $297 $465 forward 7 unknown #
coedge $-1 $420 $298 $429 $466 forward $252 $-1 #
coedge $-1 $298 $336 $300 $384 reversed $252 $-1 #
vertex $-1 $299 $467 #
straight-curve $-1 20 -16.49999999999990052 -12.5 0 3.55271367880050014e-15 -1 I I #
edge $-1 $301 -0.7853981633974497223 $415 0.7853981633974469467 $300 $468 forward 7 unknown #
point $-1 20 -16.49999999999980105 -50 #
straight-curve $-1 -25 0 -50 0 -1 0 I I #
point $-1 -25 -11.49999999999979927 -50 #
loop $-1 $-1 $337 $307 #
plane-surface $-1 25 0 0 -1 -0 0 0 -1 -3.491481338843129805e-15 forward_v I I I I #
coedge $-1 $333 $310 $312 $395 forward $246 $-1 #
coedge $-1 $310 $333 $398 $469 forward $246 $-1 #
vertex $-1 $311 $470 #
straight-curve $-1 -50 0 -50 0 1 0 I I #
coedge $-1 $312 $360 $471 $472 forward $197 $-1 #
edge $-1 $313 -50 $473 50 $312 $474 forward 7 unknown #
point $-1 -50 50 -50 #
straight-curve $-1 0 50 50 -1 0 0 I I #
coedge $-1 $475 $317 $391 $469 reversed $400 $-1 #
coedge $-1 $317 $476 $319 $402 reversed $400 $-1 #
loop $-1 $-1 $477 $478 #
straight-curve $-1 -50 -50 0 0 0 -1 I I #
edge $-1 $320 -50 $459 -16.5 $399 $479 forward 7 unknown #
point $-1 -50 -50 50 #
coedge $-1 $480 $437 $321 $405 forward $447 $-1 #
edge $-1 $439 16.50000000000005684 $408 49.99999999999995737 $404 $481 forward 7 unknown #
coedge $-1 $322 $471 $480 $482 reversed $407 $-1 #
loop $-1 $-1 $462 $361 #
vertex $-1 $323 $483 #
straight-curve $-1 50 16.50000000000019895 18.75 -0 -0 -1 I I #
point $-1 50 16.50000000000019895 28 #
edge $-1 $412 0.3738813173299219139 $423 0.7853981633974497223 $343 $484 forward 7 unknown #
vertex $-1 $327 $485 #
intcurve-curve $-1 reversed { surfintcur full nubs 3 open 9 
	0 3 0.9413836941178429507 2 1.882767388235689898 2 2.824151082353529851 2 3.765534776471370026 2 
	4.404102543059710051 2 5.042670309648049631 2 5.6812380762363901 2 6.31980584282472968 3 
	20 16.50000000000009948 28 
	20.24807638546300126 16.50000000000009948 27.80784085810289952 
	20.50708505252379865 16.48129811051299853 27.6071758924284012 
	21.03167115168680112 16.39960414302629843 27.20329113857999914 
	21.2972575768205985 16.33662577266629867 27.00008025857840011 
	21.82053945765660075 16.16491839929900109 26.60554890048529941 
	22.07839206969489965 16.05613449448160068 26.41412385647920047 
	22.57309416986650064 15.79619151415399969 26.05672152719689905 
	22.80994468993349855 15.64499917957740038 25.89076986123210133 
	23.17991542364280022 15.3630919321412005 25.64376642928079875 
	23.33218334517010106 15.23353882054700037 25.54568716712790177 
	23.62908583183039823 14.94564856002330089 25.36581918551209824 
	23.77371154036050171 14.7872872632152994 25.28405449868349919 
	24.04450613645260049 14.44773257299769931 25.14776030937679963 
	24.17081390560660026 14.26632184575090001 25.09319424620180072 
	24.39728229034999885 13.89000703988389951 25.01928475525840057 
	24.4974333260772994 13.69508567511680042 25 
	24.58257569495579986 13.50000000000009948 25 
	0.001000000000000000021 
	cone 35 13.50000000000009948 28 1 2.368475785867000094e-15 0 -1.004859173557620051e-14 2.121320343559640165 -2.121320343559640165 1 I I 0 -1 2.999999999999996447 forward I I I I 
	cone 20 11.5 -12.5 -0 3.55271367880050014e-15 -1 3.535533905932730203 3.535533905932739973 1.256073966947019936e-14 1 I I 0 -1 4.999999999999996447 forward I I I I 
	nullbs 
	nullbs 
	F 9.999999999998860288e-07 I 
	0 
	1 9.999999999998860288e-07 
	0 
	} I I #
coedge $-1 $422 $329 $336 $421 reversed $388 $-1 #
vertex $-1 $330 $486 #
straight-curve $-1 25 0 -50 -0 1 0 I I #
point $-1 25 11.50000000000020073 -50 #
coedge $-1 $471 $487 $333 $419 reversed $407 $-1 #
edge $-1 $473 -50 $488 50 $418 $489 forward 7 unknown #
coedge $-1 $336 $380 $490 $491 reversed $252 $-1 #
edge $-1 $492 -25.00000000000003908 $415 49.99999999999995737 $414 $493 forward 7 unknown #
coedge $-1 $337 $414 $430 $494 reversed $388 $-1 #
vertex $-1 $494 $495 #
straight-curve $-1 25 11.5 3.984587369690920203e-14 0 -3.491481338843129805e-15 1 I I #
face $-1 $100 $453 $2 $-1 $496 forward single #
loop $-1 $-1 $497 $339 #
coedge $-1 $498 $499 $500 $501 forward $340 $-1 #
coedge $-1 $502 $342 $503 $504 reversed $256 $-1 #
coedge $-1 $342 $502 $380 $466 reversed $256 $-1 #
coedge $-1 $490 $343 $422 $494 forward $181 $-1 #
coedge $-1 $344 $490 $502 $505 reversed $181 $-1 #
coedge $-1 $503 $347 $344 $433 forward $407 $-1 #
edge $-1 $434 -13.50000000000020073 $506 13.49999999999979927 $432 $507 forward 7 unknown #
vertex $-1 $433 $508 #
straight-curve $-1 -5.05040147333106985e-14 13.5 25 1 3.491481338843129805e-15 0 I I #
ellipse-curve $-1 50 13.50000000000020073 28 -1 0 0 -1.004859173557620051e-14 2.121320343559640165 -2.121320343559640165 1 I I #
coedge $-1 $404 $443 $352 $438 forward $447 $-1 #
edge $-1 $441 -50 $439 -16.50000000000009948 $437 $509 forward 7 unknown #
vertex $-1 $438 $510 #
straight-curve $-1 16.5 16.50000000000009948 37.5 0 0 1 I I #
vertex $-1 $444 $511 #
straight-curve $-1 16.5 50 18.75 0 0 1 I I #
coedge $-1 $437 $480 $360 $444 forward $447 $-1 #
edge $-1 $512 -50 $441 -16.5 $360 $397 forward 7 unknown #
plane-surface $-1 50 0 0 -1 0 0 0 -0 1 forward_v I I I I #
face $-1 $513 $372 $2 $-1 $285 forward single #
loop $-1 $-1 $404 $364 #
coedge $-1 $514 $367 $498 $515 forward $81 $-1 #
coedge $-1 $516 $497 $367 $450 forward $426 $-1 #
edge $-1 $517 -13.5 $454 13.5 $449 $518 forward 7 unknown #
coedge $-1 $519 $368 $371 $457 forward $453 $-1 #
coedge $-1 $368 $519 $516 $520 forward $453 $-1 #
loop $-1 $-1 $451 $425 #
vertex $-1 $450 $521 #
ellipse-curve $-1 -13.5 -16.5 28 3.491481338843129805e-15 -1 -0 -2.121320343559640165 0 -2.121320343559640165 1 I I #
coedge $-1 $371 $370 $476 $522 reversed $372 $-1 #
edge $-1 $373 16.50000000000009948 $523 50 $371 $524 forward 7 unknown #
point $-1 -16.5 -16.50000000000009948 28 #
vertex $-1 $402 $525 #
face $-1 $247 $526 $2 $-1 $235 forward single #
coedge $-1 $378 $514 $527 $528 reversed $81 $-1 #
coedge $-1 $529 $503 $378 $463 forward $407 $-1 #
edge $-1 $464 9.25 $530 31.25 $462 $531 forward 7 unknown #
vertex $-1 $463 $532 #
straight-curve $-1 5.760944209091169405e-14 -16.5 28 1 3.491481338843129805e-15 0 I I #
edge $-1 $382 -21.82470684112909964 $533 -15.50490099830409996 $380 $534 forward 7 unknown #
point $-1 20 -16.50000000000009948 28 #
ellipse-curve $-1 20 -11.49999999999979927 -50 0 0 1 3.535533905932739973 -3.535533905932730203 -1.256073966947019936e-14 1 I I #
edge $-1 $488 -50 $392 50 $398 $535 forward 7 unknown #
point $-1 -50 -50 -50 #
coedge $-1 $406 $418 $394 $472 reversed $407 $-1 #
edge $-1 $512 -50 $473 50 $471 $536 forward 7 unknown #
vertex $-1 $419 $537 #
straight-curve $-1 0 50 -50 1 0 0 I I #
coedge $-1 $538 $398 $487 $539 reversed $400 $-1 #
coedge $-1 $399 $540 $456 $522 forward $400 $-1 #
coedge $-1 $541 $538 $542 $543 forward $400 $-1 #
face $-1 $376 $400 $2 $-1 $544 reversed single #
straight-curve $-1 0 -50 50 1 0 0 I I #
coedge $-1 $443 $404 $406 $482 forward $447 $-1 #
straight-curve $-1 -5.760944209091169405e-14 16.5 50 1 3.491481338843129805e-15 -0 I I #
edge $-1 $408 16.50000000000019895 $512 50 $406 $545 forward 7 unknown #
point $-1 49.99999999999990052 16.50000000000019895 50 #
ellipse-curve $-1 20 11.49999999999990052 25 -0 -0 -1 3.535533905932730203 3.535533905932739973 1.256073966947019936e-14 1 I I #
point $-1 24.58257569495579986 13.50000000000009948 25 #
point $-1 25 -11.49999999999979927 -50 #
coedge $-1 $418 $529 $475 $539 forward $407 $-1 #
vertex $-1 $539 $546 #
straight-curve $-1 50 0 -50 0 -1 0 I I #
coedge $-1 $431 $430 $420 $491 forward $181 $-1 #
edge $-1 $492 -0.7853981633974469467 $533 -0.3738813173300001846 $490 $547 forward 7 unknown #
vertex $-1 $494 $548 #
straight-curve $-1 25 -11.5 -3.984587369690920203e-14 0 3.491481338843129805e-15 -1 I I #
edge $-1 $423 -11.49999999999990052 $492 11.50000000000009948 $430 $549 forward 7 unknown #
point $-1 25 11.49999999999990052 25 #
cone-surface $-1 -13.5 -33.25 28 0 1 0 -2.121320343559640165 0 -2.121320343559640165 1 I I 0 -1 2.999999999999996447 forward I I I I #
coedge $-1 $449 $550 $551 $552 reversed $426 $-1 #
coedge $-1 $551 $427 $448 $515 reversed $340 $-1 #
coedge $-1 $427 $551 $541 $553 reversed $340 $-1 #
coedge $-1 $542 $554 $427 $501 reversed $555 $-1 #
edge $-1 $556 -50 $557 -16.49999999999990052 $500 $558 forward 7 unknown #
coedge $-1 $429 $428 $431 $505 forward $256 $-1 #
coedge $-1 $462 $432 $428 $504 forward $407 $-1 #
edge $-1 $506 -0.785398163397448279 $464 0.785398163397448279 $503 $559 forward 7 unknown #
edge $-1 $506 -49.99999999999995026 $533 -24.5825756949558496 $431 $560 forward 7 unknown #
vertex $-1 $433 $561 #
straight-curve $-1 50 0 25 0 -1 0 I I #
point $-1 50 13.50000000000020073 25 #
straight-curve $-1 16.5 0 50 0 -1 0 I I #
point $-1 16.5 16.50000000000009948 50 #
point $-1 16.5 50 50 #
vertex $-1 $482 $562 #
face $-1 $478 $555 $2 $-1 $365 forward single #
coedge $-1 $461 $448 $554 $563 reversed $81 $-1 #
edge $-1 $517 -0.785398163397448279 $557 0.785398163397448279 $448 $564 forward 7 unknown #
coedge $-1 $550 $449 $452 $520 reversed $426 $-1 #
vertex $-1 $515 $565 #
straight-curve $-1 0 -16.50000000000009948 25 -1 -0 0 I I #
coedge $-1 $452 $451 $540 $566 reversed $453 $-1 #
edge $-1 $567 -50 $454 -16.50000000000009948 $516 $568 forward 7 unknown #
point $-1 -13.5 -16.50000000000009948 25 #
edge $-1 $523 9.25 $459 31.25 $476 $569 forward 7 unknown #
vertex $-1 $522 $570 #
straight-curve $-1 -16.5 0 28 -0 -1 -0 I I #
point $-1 -16.5 -50 50 #
loop $-1 $-1 $527 $460 #
coedge $-1 $571 $572 $461 $528 forward $526 $-1 #
edge $-1 $530 -50.00000000000004263 $573 -16.49999999999994316 $527 $574 forward 7 unknown #
coedge $-1 $487 $462 $572 $575 reversed $407 $-1 #
vertex $-1 $575 $576 #
straight-curve $-1 50 -16.49999999999980105 18.75 0 0 1 I I #
point $-1 50 -16.49999999999980105 28 #
vertex $-1 $491 $577 #
intcurve-curve $-1 reversed { surfintcur full nubs 3 open 9 
	15.50490099830409996 3 16.14346876489240046 2 16.78203653148069918 2 17.42060429806889843 2 18.05917206465720071 2 
	19.00055575877519942 2 19.94193945289309866 2 20.88332314701110093 2 21.82470684112909964 3 
	24.58257569495589934 -13.49999999999990052 25 
	24.49743332607749835 -13.69508567511650021 25 
	24.39728229035020135 -13.8900070398835993 25.01928475525840057 
	24.17081390560689869 -14.26632184575069928 25.09319424620180072 
	24.04450613645289891 -14.44773257299740088 25.14776030937679963 
	23.77371154036089962 -14.78728726321510045 25.28405449868349919 
	23.62908583183079969 -14.94564856002310016 25.36581918551199877 
	23.33218334517070147 -15.23353882054670017 25.54568716712779874 
	23.17991542364330115 -15.36309193214099977 25.64376642928069927 
	22.80994468993409896 -15.64499917957719966 25.89076986123210133 
	22.57309416986710104 -15.79619151415390021 26.05672152719689905 
	22.07839206969559953 -16.05613449448160068 26.41412385647939942 
	21.82053945765730063 -16.16491839929900109 26.60554890048560139 
	21.29725757682140141 -16.33662577266629867 27.00008025857890104 
	21.03167115168760049 -16.39960414302640146 27.20329113858069903 
	20.50708505252519842 -16.48129811051310156 27.60717589242999992 
	20.24807638546300126 -16.49999999999990052 27.80784085810289952 
	20 -16.49999999999990052 28 
	0.001000000000000000021 
	cone 35 -13.49999999999990052 28 -1 -2.368475785867000094e-15 -0 1.004859173557620051e-14 -2.121320343559640165 -2.121320343559640165 1 I I 0 -1 2.999999999999996447 forward I I I I 
	cone 20 -11.5 -12.5 -0 -3.55271367880050014e-15 1 3.535533905932739973 -3.535533905932730203 -1.256073966947019936e-14 1 I I 0 -1 4.999999999999996447 forward I I I I 
	nullbs 
	nullbs 
	I F 21.82470584112909862 
	0 
	1 21.82470584112909862 
	0 
	} I I #
straight-curve $-1 0 -50 -50 -1 0 0 I I #
straight-curve $-1 50 50 0 0 0 -1 I I #
point $-1 50 50 -50 #
coedge $-1 $477 $475 $578 $579 reversed $400 $-1 #
edge $-1 $580 -50 $488 50 $487 $581 forward 7 unknown #
coedge $-1 $476 $582 $519 $566 forward $400 $-1 #
coedge $-1 $582 $477 $499 $553 forward $400 $-1 #
coedge $-1 $583 $500 $477 $543 reversed $555 $-1 #
edge $-1 $584 -31.25 $556 -9.25 $477 $585 forward 7 unknown #
plane-surface $-1 0 -50 0 0 1 -0 -0 0 1 forward_v I I I I #
straight-curve $-1 50 0 50 0 1 0 I I #
point $-1 50 -50 -50 #
ellipse-curve $-1 20 -11.50000000000009948 25 -0 -0 -1 3.535533905932739973 -3.535533905932730203 -1.256073966947019936e-14 1 I I #
point $-1 25 -11.50000000000009948 25 #
straight-curve $-1 25 0 25 0 -1 0 I I #
coedge $-1 $497 $516 $582 $586 reversed $426 $-1 #
coedge $-1 $499 $498 $497 $552 forward $340 $-1 #
edge $-1 $517 16.50000000000009948 $587 50 $497 $588 forward 7 unknown #
edge $-1 $556 -0.785398163397448279 $587 0.785398163397448279 $541 $589 forward 7 unknown #
coedge $-1 $500 $583 $514 $563 forward $555 $-1 #
loop $-1 $-1 $500 $513 #
vertex $-1 $543 $590 #
vertex $-1 $563 $591 #
straight-curve $-1 16.5 0 28 0 1 0 I I #
ellipse-curve $-1 50 -13.49999999999979927 28 -1 0 0 1.004859173557620051e-14 -2.121320343559640165 -2.121320343559640165 1 I I #
straight-curve $-1 5.05040147333106985e-14 -13.5 25 -1 -3.491481338843129805e-15 0 I I #
point $-1 50 -13.49999999999979927 25 #
point $-1 50 50 50 #
edge $-1 $573 -12.5 $557 9.5 $554 $592 forward 7 unknown #
ellipse-curve $-1 13.5 -16.5 28 3.491481338843129805e-15 -1 -0 2.121320343559640165 0 -2.121320343559640165 1 I I #
point $-1 13.5 -16.50000000000009948 25 #
edge $-1 $567 -0.785398163397448279 $523 0.785398163397448279 $540 $593 forward 7 unknown #
vertex $-1 $586 $594 #
straight-curve $-1 -13.5 0 25 0 1 0 I I #
straight-curve $-1 -16.5 -50 18.75 -0 0 1 I I #
point $-1 -16.5 -50 28 #
coedge $-1 $578 $527 $583 $595 forward $526 $-1 #
coedge $-1 $527 $578 $529 $575 forward $526 $-1 #
vertex $-1 $528 $596 #
straight-curve $-1 5.760944209091169405e-14 -16.5 50 -1 -3.491481338843129805e-15 0 I I #
edge $-1 $580 -50 $530 -16.49999999999980105 $529 $545 forward 7 unknown #
point $-1 50.00000000000009948 -16.49999999999980105 50 #
point $-1 24.58257569495589934 -13.49999999999990052 25 #
coedge $-1 $572 $571 $538 $579 forward $526 $-1 #
edge $-1 $584 16.5 $580 50 $538 $479 forward 7 unknown #
vertex $-1 $575 $597 #
straight-curve $-1 50 -50 0 0 0 -1 I I #
coedge $-1 $540 $541 $550 $586 forward $400 $-1 #
coedge $-1 $554 $542 $571 $595 reversed $555 $-1 #
vertex $-1 $595 $598 #
straight-curve $-1 16.5 -50 18.75 -0 0 -1 I I #
edge $-1 $587 -13.5 $567 13.5 $582 $599 forward 7 unknown #
vertex $-1 $586 $600 #
straight-curve $-1 13.5 0 25 0 -1 0 I I #
ellipse-curve $-1 13.5 -50 28 0 1 -0 2.121320343559640165 0 -2.121320343559640165 1 I I #
point $-1 16.5 -50 28 #
point $-1 16.5 -16.49999999999990052 28 #
straight-curve $-1 16.5 -16.49999999999990052 37.5 0 0 -1 I I #
ellipse-curve $-1 -13.5 -50 28 0 1 -0 -2.121320343559640165 0 -2.121320343559640165 1 I I #
point $-1 -13.5 -50 25 #
edge $-1 $573 16.49999999999990052 $584 50 $571 $509 forward 7 unknown #
point $-1 16.5 -16.49999999999990052 50 #
point $-1 50 -50 50 #
point $-1 16.5 -50 50 #
straight-curve $-1 0 -50 25 -1 0 0 I I #
point $-1 13.5 -50 25 #
End-of-ACIS-data 