600 0 1 0           
63 GICL ACIS Healer - Source: spacer_223_v2_shorts_front.sat - 6 0 18 ACIS 6.0.3 Solaris 24 Fri Mar 29 22:11:16 2002 
1 9.999999999999999547e-07 1.000000000000000036e-10 
body $1 $2 $-1 $-1 #
aggregate_advspl_attribute-aggregate_geombuild_base_attribute-aggregate_body_attribute-attrib_HH-attrib $-1 $3 $-1 $0 F #
lump $-1 $-1 $4 $0 #
aggregate_secndry_attribute-aggregate_geombuild_base_attribute-aggregate_body_attribute-attrib_HH-attrib $-1 $5 $1 $0 F #
shell $-1 $-1 $-1 $6 $-1 $2 #
aggregate_sharped_attribute-aggregate_geombuild_base_attribute-aggregate_body_attribute-attrib_HH-attrib $-1 $7 $3 $0 F #
face $8 $9 $10 $4 $-1 $11 reversed single #
aggregate_reblend_attribute-aggregate_geombuild_base_attribute-aggregate_body_attribute-attrib_HH-attrib $-1 $12 $5 $0 F #
attrib_hh_face_geombuild-attrib_entity_geombuild-individual_entity_attribute-attrib_HH-attrib $-1 $-1 $-1 $6 F #
face $13 $14 $15 $4 $-1 $16 forward single #
loop $-1 $17 $18 $6 #
cone-surface $-1 2.752198469124779027e-11 0.01649999999999999384 -2.752198469124779027e-11 0 1 0 -0.1875000000000000555 0 0 1 I I 0 1 0.1875000000000000555 forward I I I I #
aggregate_isospline_attribute-aggregate_geombuild_base_attribute-aggregate_body_attribute-attrib_HH-attrib $-1 $19 $7 $0 F #
attrib_hh_face_geombuild-attrib_entity_geombuild-individual_entity_attribute-attrib_HH-attrib $-1 $-1 $-1 $9 F #
face $20 $21 $22 $4 $-1 $23 forward single #
loop $-1 $24 $25 $9 #
cone-surface $-1 0 0.01649999999999999731 0 0 1 0 0 0 0.280999999999999972 1 I I 0 1 0.280999999999999972 forward I I I I #
loop $-1 $-1 $26 $6 #
coedge $27 $18 $18 $28 $29 reversed $10 $-1 #
aggregate_analytic_solver_attribute-aggregate_geombuild_base_attribute-aggregate_body_attribute-attrib_HH-attrib $-1 $30 $12 $0 F #
attrib_hh_face_geombuild-attrib_entity_geombuild-individual_entity_attribute-attrib_HH-attrib $-1 $-1 $-1 $14 F #
face $31 $-1 $32 $4 $-1 $33 forward single #
loop $-1 $34 $28 $14 #
plane-surface $-1 0 0 0 0 -1 0 0 0 -0.999999999999999889 forward_v I I I I #
loop $-1 $-1 $35 $9 #
coedge $36 $25 $25 $37 $38 reversed $15 $-1 #
coedge $39 $26 $26 $40 $41 reversed $17 $-1 #
attrib_hh_coedge_geombuild-attrib_entity_geombuild-individual_entity_attribute-attrib_HH-attrib $-1 $-1 $-1 $18 F #
coedge $42 $28 $28 $18 $29 forward $22 $-1 #
edge $43 $44 -3.141592653589799777 $44 3.141592653589786455 $28 $45 forward 7 unknown #
aggregate_geombuild_attribute-aggregate_geombuild_base_attribute-aggregate_body_attribute-attrib_HH-attrib $-1 $46 $19 $0 #
attrib_hh_face_geombuild-attrib_entity_geombuild-individual_entity_attribute-attrib_HH-attrib $-1 $-1 $-1 $21 F #
loop $-1 $47 $40 $21 #
plane-surface $-1 0 0.03299999999999999462 0 0 1 0 0 0 0.999999999999999889 forward_v I I I I #
loop $-1 $-1 $37 $14 #
coedge $48 $35 $35 $49 $50 reversed $24 $-1 #
attrib_hh_coedge_geombuild-attrib_entity_geombuild-individual_entity_attribute-attrib_HH-attrib $-1 $-1 $-1 $25 F #
coedge $51 $37 $37 $25 $38 forward $34 $-1 #
edge $52 $53 0 $53 6.283185307179586232 $37 $54 forward 7 unknown #
attrib_hh_coedge_geombuild-attrib_entity_geombuild-individual_entity_attribute-attrib_HH-attrib $-1 $-1 $-1 $26 F #
coedge $55 $40 $40 $26 $41 forward $32 $-1 #
edge $56 $57 -3.141592653589799777 $57 3.141592653589786455 $40 $58 forward 7 unknown #
attrib_hh_coedge_geombuild-attrib_entity_geombuild-individual_entity_attribute-attrib_HH-attrib $-1 $-1 $-1 $28 F #
attrib_hh_edge_geombuild-attrib_entity_geombuild-individual_entity_attribute-attrib_HH-attrib $-1 $-1 $-1 $29 F #
vertex $59 $29 $60 #
ellipse-curve $-1 2.752198469124779027e-11 0 -2.752198469124779027e-11 0 1 0 -0.1875000000000000555 0 0 1 I I #
aggregate_stitch_attribute-aggregate_stitch_base_attribute-aggregate_body_attribute-attrib_HH-attrib $-1 $61 $30 $0 F #
loop $-1 $-1 $49 $21 #
attrib_hh_coedge_geombuild-attrib_entity_geombuild-individual_entity_attribute-attrib_HH-attrib $-1 $-1 $-1 $35 F #
coedge $62 $49 $49 $35 $50 forward $47 $-1 #
edge $63 $64 0 $64 6.283185307179586232 $49 $65 forward 7 unknown #
attrib_hh_coedge_geombuild-attrib_entity_geombuild-individual_entity_attribute-attrib_HH-attrib $-1 $-1 $-1 $37 F #
attrib_hh_edge_geombuild-attrib_entity_geombuild-individual_entity_attribute-attrib_HH-attrib $-1 $-1 $-1 $38 F #
vertex $66 $38 $67 #
ellipse-curve $-1 0 0 0 0 -1 0 0 0 0.280999999999999972 1 I I #
attrib_hh_coedge_geombuild-attrib_entity_geombuild-individual_entity_attribute-attrib_HH-attrib $-1 $-1 $-1 $40 F #
attrib_hh_edge_geombuild-attrib_entity_geombuild-individual_entity_attribute-attrib_HH-attrib $-1 $-1 $-1 $41 F #
vertex $68 $41 $69 #
ellipse-curve $-1 2.752198469124779027e-11 0.03299999999999999462 -2.752198469124779027e-11 0 -1 0 -0.1875000000000000555 0 0 1 I I #
attrib_hh_vertex_geombuild-attrib_entity_geombuild-individual_entity_attribute-attrib_HH-attrib $-1 $-1 $-1 $44 F #
point $-1 0.1875000000275220402 0 -2.752067538498737425e-11 #
aggregate_simgeom_attribute-aggregate_simgeom_base_attribute-aggregate_body_attribute-attrib_HH-attrib $-1 $-1 $46 $0 F #
attrib_hh_coedge_geombuild-attrib_entity_geombuild-individual_entity_attribute-attrib_HH-attrib $-1 $-1 $-1 $49 F #
attrib_hh_edge_geombuild-attrib_entity_geombuild-individual_entity_attribute-attrib_HH-attrib $-1 $-1 $-1 $50 F #
vertex $70 $50 $71 #
ellipse-curve $-1 0 0.03299999999999999462 0 0 1 0 0 0 0.280999999999999972 1 I I #
attrib_hh_vertex_geombuild-attrib_entity_geombuild-individual_entity_attribute-attrib_HH-attrib $-1 $-1 $-1 $53 F #
point $-1 0 0 0.280999999999999972 #
attrib_hh_vertex_geombuild-attrib_entity_geombuild-individual_entity_attribute-attrib_HH-attrib $-1 $-1 $-1 $57 F #
point $-1 0.1875000000275220402 0.03299999999999999462 -2.752329399750820629e-11 #
attrib_hh_vertex_geombuild-attrib_entity_geombuild-individual_entity_attribute-attrib_HH-attrib $-1 $-1 $-1 $64 F #
point $-1 0 0.03299999999999999462 0.280999999999999972 #
End-of-ACIS-data 