106 0 1 0           
body $-1 $1 $-1 $-1 #
lump $-1 $-1 $2 $0 #
shell $-1 $-1 $-1 $3 $1 #
face $-1 $4 $5 $2 $-1 $6 forward single #
face $-1 $7 $8 $2 $-1 $9 forward single #
loop $-1 $-1 $10 $3 #
plane-surface $-1 0 5 15 0 -1 0 0 0 -1 0 I I I I #
face $-1 $11 $12 $2 $-1 $13 forward single #
loop $-1 $-1 $14 $4 #
plane-surface $-1 0 0 10 0 0 1 1 0 0 0 I I I I #
coedge $-1 $15 $16 $17 $18 1 $5 $-1 #
face $-1 $19 $20 $2 $-1 $21 reversed single #
loop $-1 $-1 $22 $7 #
plane-surface $-1 0 -5 15 0 1 0 0 0 1 0 I I I I #
coedge $-1 $23 $24 $25 $26 1 $8 $-1 #
coedge $-1 $27 $10 $24 $28 0 $5 $-1 #
coedge $-1 $10 $27 $29 $30 1 $5 $-1 #
coedge $-1 $31 $25 $10 $18 0 $20 $-1 #
edge $-1 $32 $33 $17 $34 0 #
face $-1 $35 $36 $2 $-1 $37 reversed single #
loop $-1 $-1 $38 $11 #
cone-surface $-1 -20 0 0 0 0 1 15 0 0 1 I I 0 1 0 I I I I #
coedge $-1 $39 $40 $38 $41 1 $12 $-1 #
coedge $-1 $42 $14 $40 $43 1 $8 $-1 #
coedge $-1 $14 $42 $15 $28 1 $8 $-1 #
coedge $-1 $17 $38 $14 $26 0 $20 $-1 #
edge $-1 $44 $32 $25 $45 0 #
coedge $-1 $16 $15 $46 $47 1 $5 $-1 #
edge $-1 $32 $48 $15 $49 0 #
coedge $-1 $50 $51 $16 $30 0 $52 $-1 #
edge $-1 $33 $53 $29 $54 0 #
coedge $-1 $55 $17 $51 $56 1 $20 $-1 #
vertex $-1 $26 $57 #
vertex $-1 $56 $58 #
straight-curve $-1 -5.857864376269049 5 0 0 0 1 I I #
face $-1 $59 $52 $2 $-1 $60 forward single #
loop $-1 $-1 $61 $19 #
cone-surface $-1 -40 0 0 0 0 1 15 0 0 1 I I 0 1 0 I I I I #
coedge $-1 $25 $62 $22 $41 0 $20 $-1 #
coedge $-1 $63 $22 $64 $65 1 $12 $-1 #
coedge $-1 $22 $63 $23 $43 0 $12 $-1 #
edge $-1 $66 $44 $38 $67 0 #
coedge $-1 $24 $23 $68 $69 1 $8 $-1 #
edge $-1 $70 $44 $40 $71 0 #
vertex $-1 $26 $72 #
ellipse-curve $-1 -20 0 10 0 0 1 15 0 0 1 I I #
coedge $-1 $68 $73 $27 $47 0 $74 $-1 #
edge $-1 $53 $48 $46 $75 0 #
vertex $-1 $69 $76 #
straight-curve $-1 0 5 10 1 0 0 I I #
coedge $-1 $77 $29 $73 $78 0 $52 $-1 #
coedge $-1 $29 $79 $31 $56 0 $52 $-1 #
loop $-1 $80 $64 $35 #
vertex $-1 $47 $81 #
straight-curve $-1 0 5 20 1 0 0 I I #
coedge $-1 $82 $31 $83 $84 0 $20 $-1 #
edge $-1 $85 $33 $51 $86 0 #
point $-1 -5.857864376269049 5 10 #
point $-1 -5.857864376269049 5 20 #
face $-1 $87 $88 $2 $-1 $89 forward single #
plane-surface $-1 0 0 20 0 0 1 1 0 0 0 I I I I #
coedge $-1 $90 $91 $92 $93 1 $36 $-1 #
coedge $-1 $38 $94 $95 $96 1 $20 $-1 #
coedge $-1 $40 $39 $97 $98 1 $12 $-1 #
coedge $-1 $95 $99 $39 $65 0 $52 $-1 #
edge $-1 $100 $66 $64 $101 0 #
vertex $-1 $65 $102 #
straight-curve $-1 -5.857864376269049 -5 0 0 0 -1 I I #
coedge $-1 $97 $46 $42 $69 0 $74 $-1 #
edge $-1 $48 $70 $68 $103 0 #
vertex $-1 $69 $104 #
straight-curve $-1 0 -5 10 -1 0 0 I I #
point $-1 -5.857864376269049 -5 10 #
coedge $-1 $46 $105 $50 $78 1 $74 $-1 #
loop $-1 $-1 $97 $106 #
straight-curve $-1 5.857864376269049 5 0 0 0 -1 I I #
point $-1 5.857864376269049 5 10 #
coedge $-1 $107 $50 $108 $109 0 $52 $-1 #
edge $-1 $53 $110 $50 $111 0 #
coedge $-1 $51 $112 $113 $114 0 $52 $-1 #
loop $-1 $-1 $115 $35 #
point $-1 5.857864376269049 5 20 #
coedge $-1 $94 $55 $116 $117 1 $20 $-1 #
coedge $-1 $113 $118 $55 $84 1 $119 $-1 #
edge $-1 $85 $120 $55 $121 0 #
vertex $-1 $84 $122 #
ellipse-curve $-1 -20 0 20 0 0 -1 15 0 0 1 I I #
face $-1 $123 $119 $2 $-1 $124 forward single #
loop $-1 $-1 $92 $59 #
plane-surface $-1 -30 -15 0 0 1 0 0 0 1 0 I I I I #
coedge $-1 $125 $61 $126 $127 1 $36 $-1 #
coedge $-1 $61 $125 $112 $128 1 $36 $-1 #
coedge $-1 $129 $130 $61 $93 0 $88 $-1 #
edge $-1 $131 $132 $92 $133 1 #
coedge $-1 $62 $82 $134 $135 1 $20 $-1 #
coedge $-1 $136 $64 $62 $96 0 $52 $-1 #
edge $-1 $66 $137 $95 $86 0 #
coedge $-1 $138 $68 $63 $98 0 $74 $-1 #
edge $-1 $70 $100 $97 $139 0 #
coedge $-1 $64 $140 $138 $141 0 $52 $-1 #
vertex $-1 $141 $142 #
straight-curve $-1 0 -5 20 -1 0 0 I I #
point $-1 -5.857864376269049 -5 20 #
ellipse-curve $-1 20 0 10 0 0 1 15 0 0 1 I I #
point $-1 5.857864376269049 -5 10 #
coedge $-1 $73 $143 $144 $145 0 $74 $-1 #
face $-1 $146 $74 $2 $-1 $147 reversed single #
coedge $-1 $140 $77 $148 $149 0 $52 $-1 #
coedge $-1 $144 $150 $77 $109 1 $151 $-1 #
edge $-1 $110 $152 $77 $153 0 #
vertex $-1 $78 $154 #
ellipse-curve $-1 20 0 20 0 0 -1 15 0 0 1 I I #
coedge $-1 $79 $136 $91 $128 0 $52 $-1 #
coedge $-1 $155 $83 $79 $114 1 $119 $-1 #
edge $-1 $156 $85 $79 $157 0 #
coedge $-1 $158 $159 $160 $161 0 $80 $-1 #
coedge $-1 $162 $163 $82 $117 0 $164 $-1 #
edge $-1 $165 $120 $116 $166 0 #
coedge $-1 $83 $155 $162 $167 1 $119 $-1 #
loop $-1 $-1 $83 $87 #
vertex $-1 $117 $168 #
straight-curve $-1 -20 15 0 0 0 -1 I I #
point $-1 -20 15 20 #
face $-1 $169 $170 $2 $-1 $171 forward single #
plane-surface $-1 -30 15 0 0 -1 0 0 0 -1 0 I I I I #
coedge $-1 $91 $90 $155 $172 1 $36 $-1 #
coedge $-1 $163 $162 $90 $127 0 $164 $-1 #
edge $-1 $173 $131 $126 $174 0 #
edge $-1 $132 $156 $112 $175 0 #
coedge $-1 $134 $92 $136 $176 1 $88 $-1 #
coedge $-1 $92 $134 $163 $177 1 $88 $-1 #
vertex $-1 $177 $178 #
vertex $-1 $176 $179 #
straight-curve $-1 -40 -15 0 0 0 -1 I I #
coedge $-1 $130 $129 $94 $135 0 $88 $-1 #
edge $-1 $137 $165 $94 $180 0 #
coedge $-1 $112 $95 $129 $176 0 $52 $-1 #
vertex $-1 $96 $181 #
coedge $-1 $182 $97 $99 $141 1 $74 $-1 #
straight-curve $-1 5.857864376269049 -5 0 0 0 1 I I #
coedge $-1 $99 $107 $183 $184 0 $52 $-1 #
edge $-1 $185 $100 $99 $111 0 #
point $-1 5.857864376269049 -5 20 #
coedge $-1 $105 $182 $186 $187 1 $74 $-1 #
coedge $-1 $188 $108 $105 $145 1 $151 $-1 #
edge $-1 $189 $110 $105 $190 0 #
face $-1 $191 $192 $2 $-1 $193 forward single #
cone-surface $-1 20 0 0 0 0 1 15 0 0 1 I I 0 1 0 I I I I #
coedge $-1 $194 $195 $107 $149 1 $196 $-1 #
edge $-1 $152 $197 $107 $198 0 #
coedge $-1 $108 $188 $194 $199 1 $151 $-1 #
loop $-1 $-1 $150 $169 #
vertex $-1 $199 $200 #
straight-curve $-1 15 15 20 1 0 0 I I #
point $-1 20 15 20 #
coedge $-1 $118 $113 $125 $172 0 $119 $-1 #
vertex $-1 $128 $201 #
straight-curve $-1 -15 15 20 1 0 0 I I #
coedge $-1 $202 $115 $203 $204 0 $80 $-1 #
coedge $-1 $115 $202 $205 $206 0 $80 $-1 #
coedge $-1 $207 $208 $115 $161 1 $209 $-1 #
edge $-1 $210 $211 $160 $212 0 #
coedge $-1 $126 $116 $118 $167 0 $164 $-1 #
coedge $-1 $116 $126 $130 $177 0 $164 $-1 #
loop $-1 $213 $126 $214 #
vertex $-1 $177 $215 #
ellipse-curve $-1 -20 0 -20 0 0 1 15 0 0 1 I I #
edge $-1 $120 $173 $162 $216 0 #
point $-1 -20 15 -20 #
face $-1 $217 $151 $2 $-1 $218 forward single #
loop $-1 $-1 $219 $123 #
plane-surface $-1 30 -15 0 0 1 0 0 0 1 0 I I I I #
edge $-1 $156 $173 $155 $220 0 #
vertex $-1 $127 $221 #
ellipse-curve $-1 -40 0 -20 0 0 1 15 0 0 1 I I #
ellipse-curve $-1 -40 0 20 0 0 -1 15 0 0 1 I I #
edge $-1 $137 $132 $136 $222 0 #
edge $-1 $131 $165 $163 $223 0 #
point $-1 -40 -15 -20 #
point $-1 -40 -15 20 #
straight-curve $-1 -20 -15 0 0 0 -1 I I #
point $-1 -20 -15 20 #
coedge $-1 $143 $138 $219 $224 0 $74 $-1 #
coedge $-1 $225 $219 $140 $184 1 $170 $-1 #
edge $-1 $197 $185 $140 $226 0 #
vertex $-1 $224 $227 #
coedge $-1 $228 $229 $143 $187 0 $230 $-1 #
edge $-1 $189 $231 $186 $232 0 #
coedge $-1 $150 $144 $229 $233 1 $151 $-1 #
vertex $-1 $233 $234 #
straight-curve $-1 20 15 0 0 0 1 I I #
face $-1 $235 $236 $2 $-1 $237 forward single #
loop $-1 $-1 $238 $146 #
cone-surface $-1 -40 0 0 0 0 1 20 0 0 1 I I 0 1 0 I I I I #
coedge $-1 $239 $148 $150 $199 0 $196 $-1 #
coedge $-1 $148 $239 $225 $240 1 $196 $-1 #
loop $-1 $-1 $194 $217 #
vertex $-1 $149 $241 #
ellipse-curve $-1 40 0 20 0 0 -1 15 0 0 1 I I #
edge $-1 $152 $242 $194 $243 0 #
point $-1 40 15 20 #
point $-1 -40 15 20 #
coedge $-1 $159 $158 $244 $245 0 $80 $-1 #
coedge $-1 $246 $247 $158 $204 1 $236 $-1 #
edge $-1 $211 $248 $158 $249 0 #
coedge $-1 $238 $250 $159 $206 1 $192 $-1 #
edge $-1 $251 $210 $159 $252 0 #
coedge $-1 $253 $160 $250 $254 1 $209 $-1 #
coedge $-1 $160 $253 $246 $255 0 $209 $-1 #
loop $-1 $-1 $207 $235 #
vertex $-1 $161 $256 #
vertex $-1 $204 $257 #
straight-curve $-1 0 -20 20 1 0 0 I I #
loop $-1 $230 $258 $214 #
face $-1 $106 $164 $2 $-1 $259 reversed single #
point $-1 -20 -15 -20 #
straight-curve $-1 -15 15 -20 -1 0 0 I I #
face $-1 $214 $196 $2 $-1 $260 reversed single #
plane-surface $-1 30 15 0 0 -1 0 0 0 -1 0 I I I I #
coedge $-1 $183 $261 $182 $224 1 $170 $-1 #
straight-curve $-1 -40 15 0 0 0 -1 I I #
point $-1 -40 15 -20 #
straight-curve $-1 -15 -15 20 -1 0 0 I I #
straight-curve $-1 -15 -15 -20 1 0 0 I I #
edge $-1 $185 $231 $182 $262 0 #
coedge $-1 $261 $183 $195 $240 0 $170 $-1 #
straight-curve $-1 15 -15 20 -1 0 0 I I #
point $-1 20 -15 20 #
coedge $-1 $263 $186 $261 $264 0 $230 $-1 #
coedge $-1 $186 $263 $188 $233 0 $230 $-1 #
loop $-1 $-1 $229 $214 #
vertex $-1 $187 $265 #
ellipse-curve $-1 20 0 -20 0 0 1 15 0 0 1 I I #
edge $-1 $242 $189 $229 $266 0 #
point $-1 20 15 -20 #
face $-1 $267 $209 $2 $-1 $268 reversed single #
loop $-1 $-1 $247 $191 #
cone-surface $-1 40 0 0 0 0 1 20 0 0 1 I I 0 1 0 I I I I #
coedge $-1 $269 $205 $270 $271 1 $192 $-1 #
coedge $-1 $195 $194 $263 $272 1 $196 $-1 #
edge $-1 $197 $273 $195 $274 0 #
point $-1 40 -15 20 #
vertex $-1 $272 $275 #
straight-curve $-1 40 15 0 0 0 -1 I I #
coedge $-1 $276 $270 $202 $245 1 $277 $-1 #
edge $-1 $248 $251 $244 $278 0 #
coedge $-1 $279 $203 $208 $255 1 $236 $-1 #
coedge $-1 $203 $279 $276 $280 0 $236 $-1 #
vertex $-1 $245 $281 #
ellipse-curve $-1 40 0 20 0 0 1 20 0 0 1 I I #
coedge $-1 $205 $269 $207 $254 0 $192 $-1 #
vertex $-1 $245 $282 #
ellipse-curve $-1 -40 0 20 0 0 1 20 0 0 1 I I #
coedge $-1 $208 $207 $283 $284 1 $209 $-1 #
edge $-1 $285 $210 $207 $286 1 #
edge $-1 $287 $211 $208 $288 1 #
point $-1 -40 -20 20 #
point $-1 40 -20 20 #
coedge $-1 $289 $290 $291 $292 0 $213 $-1 #
plane-surface $-1 0 0 -20 0 0 1 1 0 0 0 I I I I #
cone-surface $-1 40 0 0 0 0 1 15 0 0 1 I I 0 1 0 I I I I #
coedge $-1 $219 $225 $228 $264 1 $170 $-1 #
straight-curve $-1 20 -15 0 0 0 -1 I I #
coedge $-1 $229 $228 $239 $272 0 $230 $-1 #
edge $-1 $231 $273 $228 $293 0 #
point $-1 20 -15 -20 #
straight-curve $-1 15 15 -20 -1 0 0 I I #
face $-1 $-1 $277 $2 $-1 $294 reversed single #
plane-surface $-1 0 -20 0 0 1 0 0 0 1 0 I I I I #
coedge $-1 $250 $238 $290 $295 1 $192 $-1 #
coedge $-1 $244 $291 $238 $271 0 $277 $-1 #
edge $-1 $296 $251 $270 $297 1 #
edge $-1 $273 $242 $263 $298 0 #
vertex $-1 $264 $299 #
straight-curve $-1 40 -15 0 0 0 -1 I I #
point $-1 40 15 -20 #
coedge $-1 $291 $244 $247 $280 1 $277 $-1 #
loop $-1 $-1 $276 $267 #
straight-curve $-1 0 20 20 -1 0 0 I I #
coedge $-1 $247 $246 $289 $300 1 $236 $-1 #
edge $-1 $301 $248 $276 $302 1 #
point $-1 40 20 20 #
point $-1 -40 20 20 #
coedge $-1 $290 $289 $253 $284 0 $213 $-1 #
edge $-1 $287 $285 $253 $303 0 #
vertex $-1 $295 $304 #
straight-curve $-1 -40 -20 0 0 0 -1 I I #
vertex $-1 $255 $305 #
straight-curve $-1 40 -20 0 0 0 -1 I I #
coedge $-1 $283 $258 $279 $300 0 $213 $-1 #
coedge $-1 $258 $283 $269 $295 0 $213 $-1 #
coedge $-1 $270 $276 $258 $292 1 $277 $-1 #
edge $-1 $296 $301 $291 $306 0 #
straight-curve $-1 15 -15 -20 1 0 0 I I #
plane-surface $-1 0 20 0 0 -1 0 0 0 -1 0 I I I I #
edge $-1 $285 $296 $290 $307 0 #
vertex $-1 $292 $308 #
straight-curve $-1 -40 20 0 0 0 -1 I I #
ellipse-curve $-1 40 0 -20 0 0 1 15 0 0 1 I I #
point $-1 40 -15 -20 #
edge $-1 $301 $287 $289 $309 0 #
vertex $-1 $300 $310 #
straight-curve $-1 40 20 0 0 0 -1 I I #
straight-curve $-1 0 -20 -20 -1 0 0 I I #
point $-1 -40 -20 -20 #
point $-1 40 -20 -20 #
straight-curve $-1 0 20 -20 1 0 0 I I #
ellipse-curve $-1 -40 0 -20 0 0 -1 20 0 0 1 I I #
point $-1 -40 20 -20 #
ellipse-curve $-1 40 0 -20 0 0 -1 20 0 0 1 I I #
point $-1 40 20 -20 #
End-of-ACIS-data 