600 0 1 0           
81 GICL ACIS Healer - Source: /gicl/data5/repository/Heriot_Watt/ex25/ex25.sat - 6 0 18 ACIS 6.0.3 Solaris 24 Sat Apr 13 23:38:46 2002 
1 9.999999999999999547e-07 1.000000000000000036e-10 
body $-1 $1 $-1 $-1 #
lump $-1 $-1 $2 $0 #
shell $-1 $-1 $-1 $3 $-1 $1 #
face $-1 $4 $5 $2 $-1 $6 forward single #
face $-1 $7 $8 $2 $-1 $9 forward single #
loop $-1 $-1 $10 $3 #
plane-surface $-1 0 5 15 0 -1 0 0 0 -1 forward_v I I I I #
face $-1 $11 $12 $2 $-1 $13 forward single #
loop $-1 $-1 $14 $4 #
plane-surface $-1 0 0 10 0 0 1 1 0 0 forward_v I I I I #
coedge $-1 $15 $16 $17 $18 reversed $5 $-1 #
face $-1 $19 $20 $2 $-1 $21 reversed single #
loop $-1 $-1 $22 $7 #
plane-surface $-1 0 -5 15 0 1 0 0 0 1 forward_v I I I I #
coedge $-1 $23 $24 $25 $26 reversed $8 $-1 #
coedge $-1 $27 $10 $24 $28 forward $5 $-1 #
coedge $-1 $10 $27 $29 $30 reversed $5 $-1 #
coedge $-1 $31 $25 $10 $18 forward $20 $-1 #
edge $-1 $32 10 $33 20 $17 $34 forward 7 unknown #
face $-1 $35 $36 $2 $-1 $37 reversed single #
loop $-1 $-1 $38 $11 #
cone-surface $-1 -20 0 0 0 0 1 15 0 0 1 I I 0 1 15 forward I I I I #
coedge $-1 $39 $40 $38 $41 reversed $12 $-1 #
coedge $-1 $42 $14 $40 $43 reversed $8 $-1 #
coedge $-1 $14 $42 $15 $28 reversed $8 $-1 #
coedge $-1 $17 $38 $14 $26 forward $20 $-1 #
edge $-1 $44 -0.3398369094541219271 $32 0.3398369094541219271 $25 $45 forward 7 unknown #
coedge $-1 $16 $15 $46 $47 reversed $5 $-1 #
edge $-1 $32 -5.857864376269048989 $48 5.857864376269048989 $15 $49 forward 7 unknown #
coedge $-1 $50 $51 $16 $30 forward $52 $-1 #
edge $-1 $33 -5.857864376269048989 $53 5.857864376269048989 $29 $54 forward 7 unknown #
coedge $-1 $55 $17 $51 $56 reversed $20 $-1 #
vertex $-1 $26 $57 #
vertex $-1 $56 $58 #
straight-curve $-1 -5.857864376269048989 5 0 0 0 1 I I #
face $-1 $59 $52 $2 $-1 $60 forward single #
loop $-1 $-1 $61 $19 #
cone-surface $-1 -40 0 0 0 0 1 15 0 0 1 I I 0 1 15 forward I I I I #
coedge $-1 $25 $62 $22 $41 forward $20 $-1 #
coedge $-1 $63 $22 $64 $65 reversed $12 $-1 #
coedge $-1 $22 $63 $23 $43 forward $12 $-1 #
edge $-1 $66 -20 $44 -10 $38 $67 forward 7 unknown #
coedge $-1 $24 $23 $68 $69 reversed $8 $-1 #
edge $-1 $70 -5.857864376269048989 $44 5.857864376269048989 $40 $71 forward 7 unknown #
vertex $-1 $26 $72 #
ellipse-curve $-1 -20 0 10 0 0 1 15 0 0 1 I I #
coedge $-1 $68 $73 $27 $47 forward $74 $-1 #
edge $-1 $53 -20 $48 -10 $46 $75 forward 7 unknown #
vertex $-1 $69 $76 #
straight-curve $-1 0 5 10 1 0 0 I I #
coedge $-1 $77 $29 $73 $78 forward $52 $-1 #
coedge $-1 $29 $79 $31 $56 forward $52 $-1 #
loop $-1 $80 $64 $35 #
vertex $-1 $47 $81 #
straight-curve $-1 0 5 20 1 0 0 I I #
coedge $-1 $82 $31 $83 $84 forward $20 $-1 #
edge $-1 $85 -1.570796326794896558 $33 -0.3398369094541219271 $51 $86 forward 7 unknown #
point $-1 -5.857864376269048989 5 10 #
point $-1 -5.857864376269048989 5 20 #
face $-1 $87 $88 $2 $-1 $89 forward single #
plane-surface $-1 0 0 20 0 0 1 1 0 0 forward_v I I I I #
coedge $-1 $90 $91 $92 $93 reversed $36 $-1 #
coedge $-1 $38 $94 $95 $96 reversed $20 $-1 #
coedge $-1 $40 $39 $97 $98 reversed $12 $-1 #
coedge $-1 $95 $99 $39 $65 forward $52 $-1 #
edge $-1 $100 -5.857864376269048989 $66 5.857864376269048989 $64 $101 forward 7 unknown #
vertex $-1 $65 $102 #
straight-curve $-1 -5.857864376269048989 -5 0 0 0 -1 I I #
coedge $-1 $97 $46 $42 $69 forward $74 $-1 #
edge $-1 $48 2.8017557441356713 $70 3.481429563043914932 $68 $103 forward 7 unknown #
vertex $-1 $69 $104 #
straight-curve $-1 0 -5 10 -1 0 0 I I #
point $-1 -5.857864376269048989 -5 10 #
coedge $-1 $46 $105 $50 $78 reversed $74 $-1 #
loop $-1 $-1 $97 $106 #
straight-curve $-1 5.857864376269048989 5 0 0 0 -1 I I #
point $-1 5.857864376269048989 5 10 #
coedge $-1 $107 $50 $108 $109 forward $52 $-1 #
edge $-1 $53 -2.8017557441356713 $110 -1.570796326794896558 $50 $111 forward 7 unknown #
coedge $-1 $51 $112 $113 $114 forward $52 $-1 #
loop $-1 $-1 $115 $35 #
point $-1 5.857864376269048989 5 20 #
coedge $-1 $94 $55 $116 $117 reversed $20 $-1 #
coedge $-1 $113 $118 $55 $84 reversed $119 $-1 #
edge $-1 $85 -20 $120 20 $55 $121 forward 7 unknown #
vertex $-1 $84 $122 #
ellipse-curve $-1 -20 0 20 0 0 -1 15 0 0 1 I I #
face $-1 $123 $119 $2 $-1 $124 forward single #
loop $-1 $-1 $92 $59 #
plane-surface $-1 -30 -15 0 0 1 0 0 0 1 forward_v I I I I #
coedge $-1 $125 $61 $126 $127 reversed $36 $-1 #
coedge $-1 $61 $125 $112 $128 reversed $36 $-1 #
coedge $-1 $129 $130 $61 $93 forward $88 $-1 #
edge $-1 $131 -20 $132 20 $92 $133 reversed 7 unknown #
coedge $-1 $62 $82 $134 $135 reversed $20 $-1 #
coedge $-1 $136 $64 $62 $96 forward $52 $-1 #
edge $-1 $66 0.3398369094541219271 $137 1.570796326794896558 $95 $86 forward 7 unknown #
coedge $-1 $138 $68 $63 $98 forward $74 $-1 #
edge $-1 $70 10 $100 20 $97 $139 forward 7 unknown #
coedge $-1 $64 $140 $138 $141 forward $52 $-1 #
vertex $-1 $141 $142 #
straight-curve $-1 0 -5 20 -1 0 0 I I #
point $-1 -5.857864376269048989 -5 20 #
ellipse-curve $-1 20 0 10 0 0 1 15 0 0 1 I I #
point $-1 5.857864376269048989 -5 10 #
coedge $-1 $73 $143 $144 $145 forward $74 $-1 #
face $-1 $146 $74 $2 $-1 $147 reversed single #
coedge $-1 $140 $77 $148 $149 forward $52 $-1 #
coedge $-1 $144 $150 $77 $109 reversed $151 $-1 #
edge $-1 $110 5 $152 25 $77 $153 forward 7 unknown #
vertex $-1 $78 $154 #
ellipse-curve $-1 20 0 20 0 0 -1 15 0 0 1 I I #
coedge $-1 $79 $136 $91 $128 forward $52 $-1 #
coedge $-1 $155 $83 $79 $114 reversed $119 $-1 #
edge $-1 $156 -25 $85 -5 $79 $157 forward 7 unknown #
coedge $-1 $158 $159 $160 $161 forward $80 $-1 #
coedge $-1 $162 $163 $82 $117 forward $164 $-1 #
edge $-1 $165 -1.570796326794896558 $120 1.570796326794896558 $116 $166 forward 7 unknown #
coedge $-1 $83 $155 $162 $167 reversed $119 $-1 #
loop $-1 $-1 $83 $87 #
vertex $-1 $117 $168 #
straight-curve $-1 -20 15 0 0 0 -1 I I #
point $-1 -20 15 20 #
face $-1 $169 $170 $2 $-1 $171 forward single #
plane-surface $-1 -30 15 0 0 -1 0 0 0 -1 forward_v I I I I #
coedge $-1 $91 $90 $155 $172 reversed $36 $-1 #
coedge $-1 $163 $162 $90 $127 forward $164 $-1 #
edge $-1 $173 1.570796326794896558 $131 4.712388980384689674 $126 $174 forward 7 unknown #
edge $-1 $132 1.570796326794896558 $156 4.712388980384689674 $112 $175 forward 7 unknown #
coedge $-1 $134 $92 $136 $176 reversed $88 $-1 #
coedge $-1 $92 $134 $163 $177 reversed $88 $-1 #
vertex $-1 $177 $178 #
vertex $-1 $176 $179 #
straight-curve $-1 -40 -15 0 0 0 -1 I I #
coedge $-1 $130 $129 $94 $135 forward $88 $-1 #
edge $-1 $137 -20 $165 20 $94 $180 forward 7 unknown #
coedge $-1 $112 $95 $129 $176 forward $52 $-1 #
vertex $-1 $96 $181 #
coedge $-1 $182 $97 $99 $141 reversed $74 $-1 #
straight-curve $-1 5.857864376269048989 -5 0 0 0 1 I I #
coedge $-1 $99 $107 $183 $184 forward $52 $-1 #
edge $-1 $185 1.570796326794896558 $100 2.8017557441356713 $99 $111 forward 7 unknown #
point $-1 5.857864376269048989 -5 20 #
coedge $-1 $105 $182 $186 $187 reversed $74 $-1 #
coedge $-1 $188 $108 $105 $145 reversed $151 $-1 #
edge $-1 $189 -20 $110 20 $105 $190 forward 7 unknown #
face $-1 $191 $192 $2 $-1 $193 forward single #
cone-surface $-1 20 0 0 0 0 1 15 0 0 1 I I 0 1 15 forward I I I I #
coedge $-1 $194 $195 $107 $149 reversed $196 $-1 #
edge $-1 $152 -1.570796326794896558 $197 1.570796326794896558 $107 $198 forward 7 unknown #
coedge $-1 $108 $188 $194 $199 reversed $151 $-1 #
loop $-1 $-1 $150 $169 #
vertex $-1 $199 $200 #
straight-curve $-1 15 15 20 1 0 0 I I #
point $-1 20 15 20 #
coedge $-1 $118 $113 $125 $172 forward $119 $-1 #
vertex $-1 $128 $201 #
straight-curve $-1 -15 15 20 1 0 0 I I #
coedge $-1 $202 $115 $203 $204 forward $80 $-1 #
coedge $-1 $115 $202 $205 $206 forward $80 $-1 #
coedge $-1 $207 $208 $115 $161 reversed $209 $-1 #
edge $-1 $210 -40 $211 40 $160 $212 forward 7 unknown #
coedge $-1 $126 $116 $118 $167 forward $164 $-1 #
coedge $-1 $116 $126 $130 $177 forward $164 $-1 #
loop $-1 $213 $126 $214 #
vertex $-1 $177 $215 #
ellipse-curve $-1 -20 0 -20 0 0 1 15 0 0 1 I I #
edge $-1 $120 5 $173 25 $162 $216 forward 7 unknown #
point $-1 -20 15 -20 #
face $-1 $217 $151 $2 $-1 $218 forward single #
loop $-1 $-1 $219 $123 #
plane-surface $-1 30 -15 0 0 1 0 0 0 1 forward_v I I I I #
edge $-1 $156 -20 $173 20 $155 $220 forward 7 unknown #
vertex $-1 $127 $221 #
ellipse-curve $-1 -40 0 -20 0 0 1 15 0 0 1 I I #
ellipse-curve $-1 -40 0 20 0 0 -1 15 0 0 1 I I #
edge $-1 $137 5 $132 25 $136 $222 forward 7 unknown #
edge $-1 $131 -25 $165 -5 $163 $223 forward 7 unknown #
point $-1 -40 -15 -20 #
point $-1 -40 -15 20 #
straight-curve $-1 -20 -15 0 0 0 -1 I I #
point $-1 -20 -15 20 #
coedge $-1 $143 $138 $219 $224 forward $74 $-1 #
coedge $-1 $225 $219 $140 $184 reversed $170 $-1 #
edge $-1 $197 -25 $185 -5 $140 $226 forward 7 unknown #
vertex $-1 $224 $227 #
coedge $-1 $228 $229 $143 $187 forward $230 $-1 #
edge $-1 $189 1.570796326794896558 $231 4.712388980384689674 $186 $232 forward 7 unknown #
coedge $-1 $150 $144 $229 $233 reversed $151 $-1 #
vertex $-1 $233 $234 #
straight-curve $-1 20 15 0 0 0 1 I I #
face $-1 $235 $236 $2 $-1 $237 forward single #
loop $-1 $-1 $238 $146 #
cone-surface $-1 -40 0 0 0 0 1 20 0 0 1 I I 0 1 20 forward I I I I #
coedge $-1 $239 $148 $150 $199 forward $196 $-1 #
coedge $-1 $148 $239 $225 $240 reversed $196 $-1 #
loop $-1 $-1 $194 $217 #
vertex $-1 $149 $241 #
ellipse-curve $-1 40 0 20 0 0 -1 15 0 0 1 I I #
edge $-1 $152 -20 $242 20 $194 $243 forward 7 unknown #
point $-1 40 15 20 #
point $-1 -40 15 20 #
coedge $-1 $159 $158 $244 $245 forward $80 $-1 #
coedge $-1 $246 $247 $158 $204 reversed $236 $-1 #
edge $-1 $211 -1.570796326794896558 $248 1.570796326794896558 $158 $249 forward 7 unknown #
coedge $-1 $238 $250 $159 $206 reversed $192 $-1 #
edge $-1 $251 1.570796326794896558 $210 4.712388980384689674 $159 $252 forward 7 unknown #
coedge $-1 $253 $160 $250 $254 reversed $209 $-1 #
coedge $-1 $160 $253 $246 $255 forward $209 $-1 #
loop $-1 $-1 $207 $235 #
vertex $-1 $161 $256 #
vertex $-1 $204 $257 #
straight-curve $-1 0 -20 20 1 0 0 I I #
loop $-1 $230 $258 $214 #
face $-1 $106 $164 $2 $-1 $259 reversed single #
point $-1 -20 -15 -20 #
straight-curve $-1 -15 15 -20 -1 0 0 I I #
face $-1 $214 $196 $2 $-1 $260 reversed single #
plane-surface $-1 30 15 0 0 -1 0 0 0 -1 forward_v I I I I #
coedge $-1 $183 $261 $182 $224 reversed $170 $-1 #
straight-curve $-1 -40 15 0 0 0 -1 I I #
point $-1 -40 15 -20 #
straight-curve $-1 -15 -15 20 -1 0 0 I I #
straight-curve $-1 -15 -15 -20 1 0 0 I I #
edge $-1 $185 -20 $231 20 $182 $262 forward 7 unknown #
coedge $-1 $261 $183 $195 $240 forward $170 $-1 #
straight-curve $-1 15 -15 20 -1 0 0 I I #
point $-1 20 -15 20 #
coedge $-1 $263 $186 $261 $264 forward $230 $-1 #
coedge $-1 $186 $263 $188 $233 forward $230 $-1 #
loop $-1 $-1 $229 $214 #
vertex $-1 $187 $265 #
ellipse-curve $-1 20 0 -20 0 0 1 15 0 0 1 I I #
edge $-1 $242 -25 $189 -5 $229 $266 forward 7 unknown #
point $-1 20 15 -20 #
face $-1 $267 $209 $2 $-1 $268 reversed single #
loop $-1 $-1 $247 $191 #
cone-surface $-1 40 0 0 0 0 1 20 0 0 1 I I 0 1 20 forward I I I I #
coedge $-1 $269 $205 $270 $271 reversed $192 $-1 #
coedge $-1 $195 $194 $263 $272 reversed $196 $-1 #
edge $-1 $197 -20 $273 20 $195 $274 forward 7 unknown #
point $-1 40 -15 20 #
vertex $-1 $272 $275 #
straight-curve $-1 40 15 0 0 0 -1 I I #
coedge $-1 $276 $270 $202 $245 reversed $277 $-1 #
edge $-1 $248 -40 $251 40 $244 $278 forward 7 unknown #
coedge $-1 $279 $203 $208 $255 reversed $236 $-1 #
coedge $-1 $203 $279 $276 $280 forward $236 $-1 #
vertex $-1 $245 $281 #
ellipse-curve $-1 40 0 20 0 0 1 20 0 0 1 I I #
coedge $-1 $205 $269 $207 $254 forward $192 $-1 #
vertex $-1 $245 $282 #
ellipse-curve $-1 -40 0 20 0 0 1 20 0 0 1 I I #
coedge $-1 $208 $207 $283 $284 reversed $209 $-1 #
edge $-1 $285 -20 $210 20 $207 $286 reversed 7 unknown #
edge $-1 $287 -20 $211 20 $208 $288 reversed 7 unknown #
point $-1 -40 -20 20 #
point $-1 40 -20 20 #
coedge $-1 $289 $290 $291 $292 forward $213 $-1 #
plane-surface $-1 0 0 -20 0 0 1 1 0 0 forward_v I I I I #
cone-surface $-1 40 0 0 0 0 1 15 0 0 1 I I 0 1 15 forward I I I I #
coedge $-1 $219 $225 $228 $264 reversed $170 $-1 #
straight-curve $-1 20 -15 0 0 0 -1 I I #
coedge $-1 $229 $228 $239 $272 forward $230 $-1 #
edge $-1 $231 5 $273 25 $228 $293 forward 7 unknown #
point $-1 20 -15 -20 #
straight-curve $-1 15 15 -20 -1 0 0 I I #
face $-1 $-1 $277 $2 $-1 $294 reversed single #
plane-surface $-1 0 -20 0 0 1 0 0 0 1 forward_v I I I I #
coedge $-1 $250 $238 $290 $295 reversed $192 $-1 #
coedge $-1 $244 $291 $238 $271 forward $277 $-1 #
edge $-1 $296 -20 $251 20 $270 $297 reversed 7 unknown #
edge $-1 $273 -1.570796326794896558 $242 1.570796326794896558 $263 $298 forward 7 unknown #
vertex $-1 $264 $299 #
straight-curve $-1 40 -15 0 0 0 -1 I I #
point $-1 40 15 -20 #
coedge $-1 $291 $244 $247 $280 reversed $277 $-1 #
loop $-1 $-1 $276 $267 #
straight-curve $-1 0 20 20 -1 0 0 I I #
coedge $-1 $247 $246 $289 $300 reversed $236 $-1 #
edge $-1 $301 -20 $248 20 $276 $302 reversed 7 unknown #
point $-1 40 20 20 #
point $-1 -40 20 20 #
coedge $-1 $290 $289 $253 $284 forward $213 $-1 #
edge $-1 $287 -40 $285 40 $253 $303 forward 7 unknown #
vertex $-1 $295 $304 #
straight-curve $-1 -40 -20 0 0 0 -1 I I #
vertex $-1 $255 $305 #
straight-curve $-1 40 -20 0 0 0 -1 I I #
coedge $-1 $283 $258 $279 $300 forward $213 $-1 #
coedge $-1 $258 $283 $269 $295 forward $213 $-1 #
coedge $-1 $270 $276 $258 $292 reversed $277 $-1 #
edge $-1 $296 -40 $301 40 $291 $306 forward 7 unknown #
straight-curve $-1 15 -15 -20 1 0 0 I I #
plane-surface $-1 0 20 0 0 -1 0 0 0 -1 forward_v I I I I #
edge $-1 $285 1.570796326794896558 $296 4.712388980384689674 $290 $307 forward 7 unknown #
vertex $-1 $292 $308 #
straight-curve $-1 -40 20 0 0 0 -1 I I #
ellipse-curve $-1 40 0 -20 0 0 1 15 0 0 1 I I #
point $-1 40 -15 -20 #
edge $-1 $301 -1.570796326794896558 $287 1.570796326794896558 $289 $309 forward 7 unknown #
vertex $-1 $300 $310 #
straight-curve $-1 40 20 0 0 0 -1 I I #
straight-curve $-1 0 -20 -20 -1 0 0 I I #
point $-1 -40 -20 -20 #
point $-1 40 -20 -20 #
straight-curve $-1 0 20 -20 1 0 0 I I #
ellipse-curve $-1 -40 0 -20 0 0 -1 20 0 0 1 I I #
point $-1 -40 20 -20 #
ellipse-curve $-1 40 0 -20 0 0 -1 20 0 0 1 I I #
point $-1 40 20 -20 #
End-of-ACIS-data 