700 0 2 0           
24 FBMach with ACIS - 7.0.3 13 ACIS 7.0.3 NT 24 Tue May 14 09:20:00 2002 
1 9.9999999999999995e-007 1e-010 
body $2 -1 $-1 $3 $-1 $4 #
bdycol-kcp $-1 -1 1 5 $5 $6 $7 $8 $9 #
model_id-kcp-attrib $-1 -1 $-1 $-1 $0 1 1021382400 1021382400 255918081 1 #
lump $-1 -1 $-1 $-1 $10 $0 #
transform $-1 -1 1 0 0 0 1 0 0 0 1 0 0 0 1 rotate no_reflect no_shear #
body $11 -1 $-1 $12 $-1 $13 #
body $14 -1 $-1 $15 $-1 $16 #
body $17 -1 $-1 $18 $-1 $19 #
body $20 -1 $-1 $21 $-1 $22 #
body $23 -1 $-1 $24 $-1 $25 #
shell $-1 -1 $-1 $-1 $-1 $26 $-1 $3 #
rgb_color-st-attrib $-1 -1 $27 $-1 $5 0.5 1 1 #
lump $-1 -1 $-1 $-1 $28 $5 #
transform $-1 -1 1 0 0 0 1 0 0 0 1 0 0 0 1 no_rotate no_reflect no_shear #
rgb_color-st-attrib $-1 -1 $29 $-1 $6 0.5 1 1 #
lump $-1 -1 $-1 $-1 $30 $6 #
transform $-1 -1 1 0 0 0 1 0 0 0 1 0 0 0 1 no_rotate no_reflect no_shear #
rgb_color-st-attrib $-1 -1 $31 $-1 $7 1 0 0 #
lump $-1 -1 $-1 $-1 $32 $7 #
transform $-1 -1 1 0 0 0 1 0 0 0 1 0 0 0 1 no_rotate no_reflect no_shear #
model_id-kcp-attrib $-1 -1 $-1 $-1 $8 1 1021382400 1021382400 256573442 1 #
lump $-1 -1 $-1 $-1 $33 $8 #
transform $-1 -1 1 0 0 0 1 0 0 0 1 0 0 0 1 no_rotate no_reflect no_shear #
rgb_color-st-attrib $-1 -1 $34 $-1 $9 0.5 1 1 #
lump $-1 -1 $-1 $35 $36 $9 #
transform $-1 -1 1 0 0 0 1 0 0 0 1 0 0 0 1 no_rotate no_reflect no_shear #
face $37 -1 $-1 $38 $39 $10 $-1 $40 forward single #
model_id-kcp-attrib $-1 -1 $-1 $11 $5 1 1021382400 1021382400 251658244 1 #
shell $-1 -1 $-1 $-1 $-1 $41 $-1 $12 #
model_id-kcp-attrib $-1 -1 $-1 $14 $6 1 1021382400 1021382400 254279685 1 #
shell $-1 -1 $-1 $-1 $-1 $42 $-1 $15 #
model_id-kcp-attrib $-1 -1 $-1 $17 $7 1 1021382400 1021382400 255852550 1 #
shell $-1 -1 $-1 $-1 $-1 $43 $-1 $18 #
shell $-1 -1 $-1 $-1 $-1 $44 $-1 $21 #
model_id-kcp-attrib $-1 -1 $-1 $23 $9 1 1021382400 1021382400 263782403 1 #
lump $-1 -1 $-1 $-1 $45 $9 #
shell $-1 -1 $-1 $-1 $-1 $46 $-1 $24 #
model_id-kcp-attrib $-1 -1 $-1 $-1 $26 1 1021382400 1021382400 255918081 2 #
face $47 -1 $-1 $48 $49 $10 $-1 $50 forward single #
loop $-1 -1 $-1 $-1 $51 $26 #
plane-surface $-1 -1 $-1 0 5 15 0 -1 0 0 0 -1 forward_v I I I I #
face $-1 -1 $-1 $52 $53 $28 $-1 $54 forward single #
face $-1 -1 $-1 $55 $56 $30 $-1 $57 forward single #
face $-1 -1 $-1 $58 $59 $32 $-1 $60 forward single #
face $61 -1 $-1 $62 $63 $33 $-1 $64 forward single #
shell $-1 -1 $-1 $-1 $-1 $65 $-1 $35 #
face $-1 -1 $-1 $66 $67 $36 $-1 $68 reversed single #
model_id-kcp-attrib $-1 -1 $-1 $-1 $38 1 1021382400 1021382400 255918081 3 #
face $69 -1 $-1 $70 $71 $10 $-1 $72 forward single #
loop $-1 -1 $-1 $-1 $73 $38 #
plane-surface $-1 -1 $-1 0 0 10 0 0 1 1 0 0 forward_v I I I I #
coedge $-1 -1 $-1 $74 $75 $76 $77 reversed $39 $-1 #
face $-1 -1 $-1 $78 $79 $28 $-1 $80 forward single #
loop $-1 -1 $-1 $-1 $81 $41 #
plane-surface $-1 -1 $-1 -40 15 -20 0 1 0 0 0 1 forward_v I I I I #
face $-1 -1 $-1 $82 $83 $30 $-1 $84 forward single #
loop $-1 -1 $-1 $-1 $85 $42 #
cone-surface $-1 -1 $-1 40 0 -20 0 0 1 15 0 0 1 I I 0 1 15 forward I I I I #
face $-1 -1 $-1 $86 $87 $32 $-1 $88 forward single #
loop $-1 -1 $-1 $-1 $89 $43 #
plane-surface $-1 -1 $-1 -5.857864376269049 5 10 0 1 0 0 0 1 forward_v I I I I #
model_id-kcp-attrib $-1 -1 $-1 $-1 $44 1 1021382400 1021382400 256573442 2 #
face $90 -1 $-1 $91 $92 $33 $-1 $93 reversed single #
loop $-1 -1 $-1 $-1 $94 $44 #
plane-surface $-1 -1 $-1 0 0 20 0 0 1 1 0 0 forward_v I I I I #
face $-1 -1 $-1 $95 $96 $45 $-1 $97 reversed single #
face $-1 -1 $-1 $98 $99 $36 $-1 $68 reversed single #
loop $-1 -1 $-1 $-1 $100 $46 #
cone-surface $-1 -1 $-1 -40 0 20 0 0 1 0 -20 0 1 I I 0 1 20 forward I I I I #
model_id-kcp-attrib $-1 -1 $-1 $-1 $48 1 1021382400 1021382400 255918081 4 #
face $101 -1 $-1 $102 $103 $10 $-1 $104 reversed single #
loop $-1 -1 $-1 $-1 $105 $48 #
plane-surface $-1 -1 $-1 0 -5 15 0 1 0 0 0 1 forward_v I I I I #
coedge $-1 -1 $-1 $106 $107 $108 $109 reversed $49 $-1 #
coedge $-1 -1 $-1 $110 $51 $107 $111 forward $39 $-1 #
coedge $-1 -1 $-1 $51 $110 $112 $113 reversed $39 $-1 #
coedge $-1 -1 $-1 $114 $108 $51 $77 forward $103 $-1 #
edge $-1 -1 $-1 $115 10 $116 20 $76 $117 forward @7 unknown #
face $-1 -1 $-1 $118 $119 $28 $-1 $120 forward single #
loop $-1 -1 $-1 $-1 $121 $52 #
cone-surface $-1 -1 $-1 -20 0 -20 0 0 1 15 0 0 1 I I 0 1 15 forward I I I I #
coedge $-1 -1 $-1 $122 $123 $124 $125 forward $53 $-1 #
face $-1 -1 $-1 $126 $127 $30 $-1 $128 forward single #
loop $-1 -1 $-1 $-1 $129 $55 #
plane-surface $-1 -1 $-1 40 -15 -20 0 -1 0 0 0 -1 forward_v I I I I #
coedge $-1 -1 $-1 $130 $131 $132 $133 forward $56 $-1 #
face $-1 -1 $-1 $134 $135 $32 $-1 $136 forward single #
loop $-1 -1 $-1 $-1 $137 $58 #
cone-surface $-1 -1 $-1 20 0 10 0 0 1 15 0 0 1 I I 0 -1 15 forward I I I I #
coedge $-1 -1 $-1 $138 $139 $140 $141 forward $59 $-1 #
model_id-kcp-attrib $-1 -1 $-1 $-1 $62 1 1021382400 1021382400 256573442 3 #
face $142 -1 $-1 $143 $144 $33 $-1 $145 reversed single #
loop $-1 -1 $-1 $-1 $146 $62 #
plane-surface $-1 -1 $-1 0 0 -20 0 0 1 1 0 0 forward_v I I I I #
coedge $-1 -1 $-1 $147 $148 $149 $150 forward $63 $-1 #
face $-1 -1 $-1 $151 $152 $45 $-1 $153 reversed single #
loop $-1 -1 $-1 $-1 $154 $65 #
plane-surface $-1 -1 $-1 60 0 0 -1 0 0 0 0 1 forward_v I I I I #
face $-1 -1 $-1 $155 $156 $36 $-1 $157 reversed single #
loop $-1 -1 $-1 $-1 $158 $66 #
coedge $-1 -1 $-1 $159 $160 $161 $162 reversed $67 $-1 #
model_id-kcp-attrib $-1 -1 $-1 $-1 $70 1 1021382400 1021382400 255918081 5 #
face $163 -1 $-1 $164 $165 $10 $-1 $166 reversed single #
loop $-1 -1 $-1 $-1 $167 $70 #
cone-surface $-1 -1 $-1 -20 0 0 0 0 1 15 0 0 1 I I 0 1 15 forward I I I I #
coedge $-1 -1 $-1 $168 $169 $167 $170 reversed $71 $-1 #
coedge $-1 -1 $-1 $171 $73 $169 $172 reversed $49 $-1 #
coedge $-1 -1 $-1 $73 $171 $74 $111 reversed $49 $-1 #
coedge $-1 -1 $-1 $76 $167 $73 $109 forward $103 $-1 #
edge $173 -1 $-1 $174 -0.33983690945412193 $115 0.33983690945412193 $108 $175 forward @7 unknown #
coedge $-1 -1 $-1 $75 $74 $176 $177 reversed $39 $-1 #
edge $178 -1 $-1 $115 -5.857864376269049 $179 5.857864376269049 $74 $180 forward @7 unknown #
coedge $-1 -1 $-1 $181 $182 $75 $113 forward $183 $-1 #
edge $184 -1 $-1 $116 -5.857864376269049 $185 5.857864376269049 $112 $186 forward @7 unknown #
coedge $-1 -1 $-1 $187 $76 $182 $188 reversed $103 $-1 #
vertex $-1 -1 $-1 $109 $189 #
vertex $-1 -1 $-1 $188 $190 #
straight-curve $-1 -1 $-1 -5.857864376269049 5 0 0 0 1 I I #
face $-1 -1 $-1 $191 $192 $28 $-1 $193 forward single #
loop $-1 -1 $-1 $-1 $194 $78 #
plane-surface $-1 -1 $-1 -20 -15 -20 0 -1 0 0 0 -1 forward_v I I I I #
coedge $-1 -1 $-1 $195 $196 $197 $198 forward $79 $-1 #
coedge $-1 -1 $-1 $199 $81 $196 $200 reversed $53 $-1 #
coedge $-1 -1 $-1 $81 $199 $201 $202 forward $53 $-1 #
coedge $-1 -1 $-1 $203 $197 $81 $125 reversed $204 $-1 #
edge $-1 -1 $-1 $205 -25 $206 -5 $81 $207 forward @7 unknown #
face $-1 -1 $-1 $208 $209 $30 $-1 $210 forward single #
loop $-1 -1 $-1 $-1 $211 $82 #
cone-surface $-1 -1 $-1 20 0 -20 0 0 1 15 0 0 1 I I 0 1 15 forward I I I I #
coedge $-1 -1 $-1 $212 $213 $214 $215 forward $83 $-1 #
coedge $-1 -1 $-1 $216 $85 $213 $217 reversed $56 $-1 #
coedge $-1 -1 $-1 $85 $216 $218 $219 forward $56 $-1 #
coedge $-1 -1 $-1 $220 $214 $85 $133 reversed $221 $-1 #
edge $-1 -1 $-1 $222 -1.5707963267948966 $223 1.5707963267948966 $85 $224 forward @7 unknown #
face $-1 -1 $-1 $225 $226 $32 $-1 $227 forward single #
loop $-1 -1 $-1 $-1 $228 $86 #
plane-surface $-1 -1 $-1 5.857864376269049 -5 10 0 -1 0 0 0 -1 forward_v I I I I #
coedge $-1 -1 $-1 $229 $230 $231 $232 forward $87 $-1 #
coedge $-1 -1 $-1 $233 $89 $230 $234 reversed $59 $-1 #
coedge $-1 -1 $-1 $89 $233 $235 $236 forward $59 $-1 #
coedge $-1 -1 $-1 $237 $231 $89 $141 reversed $238 $-1 #
edge $-1 -1 $-1 $239 -5.857864376269049 $240 5.857864376269049 $89 $241 forward @7 unknown #
model_id-kcp-attrib $-1 -1 $-1 $-1 $91 1 1021382400 1021382400 256573442 4 #
face $-1 -1 $-1 $242 $243 $33 $-1 $244 reversed single #
loop $-1 -1 $-1 $-1 $245 $91 #
plane-surface $-1 -1 $-1 0 -20 0 0 1 0 0 0 1 forward_v I I I I #
coedge $-1 -1 $-1 $246 $247 $248 $249 forward $92 $-1 #
coedge $-1 -1 $-1 $250 $94 $251 $252 forward $63 $-1 #
coedge $-1 -1 $-1 $94 $250 $253 $254 forward $63 $-1 #
coedge $-1 -1 $-1 $255 $256 $94 $150 reversed $257 $-1 #
edge $-1 -1 $-1 $258 -20 $259 20 $149 $260 forward @7 unknown #
face $-1 -1 $-1 $261 $262 $45 $-1 $153 reversed single #
loop $-1 -1 $-1 $-1 $263 $95 #
plane-surface $-1 -1 $-1 0 0 -20 0 0 1 1 0 0 forward_v I I I I #
coedge $-1 -1 $-1 $264 $265 $266 $267 forward $96 $-1 #
face $-1 -1 $-1 $268 $269 $36 $-1 $270 reversed single #
loop $-1 -1 $-1 $-1 $271 $98 #
plane-surface $-1 -1 $-1 -60 0 0 1 0 0 0 0 -1 forward_v I I I I #
coedge $-1 -1 $-1 $272 $273 $274 $275 reversed $99 $-1 #
coedge $-1 -1 $-1 $276 $100 $277 $278 reversed $67 $-1 #
coedge $-1 -1 $-1 $100 $276 $272 $279 forward $67 $-1 #
coedge $-1 -1 $-1 $280 $281 $100 $162 forward $282 $-1 #
edge $-1 -1 $-1 $283 0 $284 1.5707963267948966 $161 $285 forward @7 unknown #
model_id-kcp-attrib $-1 -1 $-1 $-1 $102 1 1021382400 1021382400 255918081 6 #
face $286 -1 $-1 $287 $183 $10 $-1 $288 forward single #
loop $-1 -1 $-1 $-1 $289 $102 #
cone-surface $-1 -1 $-1 -40 0 0 0 0 1 15 0 0 1 I I 0 1 15 forward I I I I #
coedge $-1 -1 $-1 $108 $290 $105 $170 forward $103 $-1 #
coedge $-1 -1 $-1 $291 $105 $292 $293 reversed $71 $-1 #
coedge $-1 -1 $-1 $105 $291 $106 $172 forward $71 $-1 #
edge $-1 -1 $-1 $294 -20 $174 -10 $167 $295 forward @7 unknown #
coedge $-1 -1 $-1 $107 $106 $296 $297 reversed $49 $-1 #
edge $298 -1 $-1 $299 -5.857864376269049 $174 5.857864376269049 $169 $300 forward @7 unknown #
attrib_edge_convexity-kcp-attrib $-1 -1 $301 $-1 $109 1 #
vertex $-1 -1 $-1 $109 $302 #
ellipse-curve $-1 -1 $-1 -20 0 10 0 0 1 15 0 0 1 I I #
coedge $-1 -1 $-1 $296 $303 $110 $177 forward $304 $-1 #
edge $-1 -1 $-1 $185 -20 $179 -10 $176 $305 forward @7 unknown #
attrib_edge_convexity-kcp-attrib $-1 -1 $306 $-1 $111 2 #
vertex $-1 -1 $-1 $297 $307 #
straight-curve $-1 -1 $-1 0 5 10 1 0 0 I I #
coedge $-1 -1 $-1 $308 $112 $303 $309 forward $183 $-1 #
coedge $-1 -1 $-1 $112 $310 $114 $188 forward $183 $-1 #
loop $-1 -1 $-1 $311 $292 $164 #
attrib_edge_convexity-kcp-attrib $-1 -1 $312 $-1 $113 1 #
vertex $-1 -1 $-1 $177 $313 #
straight-curve $-1 -1 $-1 0 5 20 1 0 0 I I #
coedge $-1 -1 $-1 $314 $114 $315 $316 forward $103 $-1 #
edge $317 -1 $-1 $318 -1.5707963267948966 $116 -0.33983690945412193 $182 $319 forward @7 unknown #
point $-1 -1 $-1 -5.857864376269049 5 10 #
point $-1 -1 $-1 -5.857864376269049 5 20 #
face $-1 -1 $-1 $320 $204 $28 $-1 $321 forward single #
loop $-1 -1 $-1 $-1 $322 $118 #
cone-surface $-1 -1 $-1 -40 0 -20 0 0 1 15 0 0 1 I I 0 1 15 forward I I I I #
coedge $-1 -1 $-1 $323 $324 $325 $326 forward $119 $-1 #
coedge $-1 -1 $-1 $327 $121 $324 $328 reversed $79 $-1 #
coedge $-1 -1 $-1 $121 $327 $122 $200 forward $79 $-1 #
coedge $-1 -1 $-1 $124 $325 $121 $198 reversed $204 $-1 #
edge $-1 -1 $-1 $206 -1.5707963267948966 $329 1.5707963267948966 $121 $330 forward @7 unknown #
coedge $-1 -1 $-1 $123 $122 $331 $332 forward $53 $-1 #
edge $-1 -1 $-1 $333 0 $206 40 $196 $334 forward @7 unknown #
coedge $-1 -1 $-1 $335 $322 $123 $202 reversed $192 $-1 #
edge $-1 -1 $-1 $336 0 $205 40 $123 $337 forward @7 unknown #
coedge $-1 -1 $-1 $325 $124 $322 $338 reversed $204 $-1 #
loop $-1 -1 $-1 $-1 $124 $191 #
vertex $-1 -1 $-1 $202 $339 #
vertex $-1 -1 $-1 $200 $340 #
straight-curve $-1 -1 $-1 -15 15 20 1 0 0 I I #
face $-1 -1 $-1 $341 $221 $30 $-1 $342 forward single #
loop $-1 -1 $-1 $-1 $343 $126 #
plane-surface $-1 -1 $-1 20 15 -20 0 1 0 0 0 1 forward_v I I I I #
coedge $-1 -1 $-1 $344 $345 $346 $347 forward $127 $-1 #
coedge $-1 -1 $-1 $348 $129 $345 $349 reversed $83 $-1 #
coedge $-1 -1 $-1 $129 $348 $130 $217 forward $83 $-1 #
coedge $-1 -1 $-1 $132 $346 $129 $215 reversed $221 $-1 #
edge $-1 -1 $-1 $223 -25 $350 -5 $129 $351 forward @7 unknown #
coedge $-1 -1 $-1 $131 $130 $352 $353 forward $56 $-1 #
edge $-1 -1 $-1 $354 0 $223 40 $213 $355 forward @7 unknown #
coedge $-1 -1 $-1 $356 $343 $131 $219 reversed $209 $-1 #
edge $-1 -1 $-1 $357 0 $222 40 $131 $358 forward @7 unknown #
coedge $-1 -1 $-1 $346 $132 $343 $359 reversed $221 $-1 #
loop $-1 -1 $-1 $-1 $132 $208 #
vertex $-1 -1 $-1 $219 $360 #
vertex $-1 -1 $-1 $217 $361 #
ellipse-curve $-1 -1 $-1 40 0 20 0 0 -1 15 0 0 1 I I #
face $-1 -1 $-1 $362 $238 $32 $-1 $363 forward single #
loop $-1 -1 $-1 $-1 $364 $134 #
cone-surface $-1 -1 $-1 -20 0 10 0 0 1 15 0 0 1 I I 0 -1 15 forward I I I I #
coedge $-1 -1 $-1 $365 $366 $367 $368 forward $135 $-1 #
coedge $-1 -1 $-1 $369 $137 $366 $370 reversed $87 $-1 #
coedge $-1 -1 $-1 $137 $369 $138 $234 forward $87 $-1 #
coedge $-1 -1 $-1 $140 $367 $137 $232 reversed $238 $-1 #
edge $-1 -1 $-1 $240 2.8017557441356713 $371 3.4814295630439149 $137 $372 forward @7 unknown #
coedge $-1 -1 $-1 $139 $138 $373 $374 reversed $59 $-1 #
edge $-1 -1 $-1 $375 0 $240 10 $230 $376 forward @7 unknown #
coedge $-1 -1 $-1 $377 $364 $139 $236 reversed $226 $-1 #
edge $-1 -1 $-1 $378 0 $239 10 $139 $379 forward @7 unknown #
coedge $-1 -1 $-1 $367 $140 $364 $380 reversed $238 $-1 #
loop $-1 -1 $-1 $-1 $140 $225 #
vertex $-1 -1 $-1 $236 $381 #
vertex $-1 -1 $-1 $234 $382 #
straight-curve $-1 -1 $-1 0 5 20 1 0 0 I I #
face $383 -1 $-1 $384 $385 $33 $-1 $386 reversed single #
loop $-1 -1 $-1 $-1 $387 $143 #
plane-surface $-1 -1 $-1 -60 0 0 1 0 0 0 0 -1 forward_v I I I I #
coedge $-1 -1 $-1 $388 $253 $389 $390 forward $144 $-1 #
coedge $-1 -1 $-1 $391 $146 $388 $392 forward $92 $-1 #
coedge $-1 -1 $-1 $146 $391 $393 $394 forward $92 $-1 #
coedge $-1 -1 $-1 $256 $255 $146 $249 reversed $257 $-1 #
edge $-1 -1 $-1 $395 -20 $396 20 $248 $397 forward @7 unknown #
coedge $-1 -1 $-1 $148 $147 $398 $399 forward $63 $-1 #
coedge $-1 -1 $-1 $400 $401 $147 $252 reversed $385 $-1 #
edge $-1 -1 $-1 $259 -60 $402 60 $251 $403 forward @7 unknown #
coedge $-1 -1 $-1 $245 $404 $148 $254 reversed $144 $-1 #
edge $-1 -1 $-1 $405 -60 $258 60 $253 $406 forward @7 unknown #
coedge $-1 -1 $-1 $248 $149 $404 $407 forward $257 $-1 #
coedge $-1 -1 $-1 $149 $248 $400 $408 reversed $257 $-1 #
loop $-1 -1 $-1 $-1 $255 $384 #
vertex $-1 -1 $-1 $150 $409 #
vertex $-1 -1 $-1 $150 $410 #
straight-curve $-1 -1 $-1 60 0 20 0 1 0 I I #
face $-1 -1 $-1 $411 $412 $45 $-1 $413 reversed single #
loop $-1 -1 $-1 $-1 $414 $151 #
coedge $-1 -1 $-1 $415 $416 $417 $418 forward $152 $-1 #
coedge $-1 -1 $-1 $419 $154 $420 $421 reversed $96 $-1 #
coedge $-1 -1 $-1 $154 $419 $422 $423 reversed $96 $-1 #
coedge $-1 -1 $-1 $424 $425 $426 $267 reversed $427 $-1 #
edge $-1 -1 $-1 $428 -40 $429 0 $154 $430 forward @7 unknown #
face $-1 -1 $-1 $431 $282 $36 $-1 $432 forward single #
loop $-1 -1 $-1 $-1 $433 $155 #
plane-surface $-1 -1 $-1 0 20 0 0 -1 0 0 0 -1 forward_v I I I I #
coedge $-1 -1 $-1 $434 $435 $160 $279 reversed $156 $-1 #
coedge $-1 -1 $-1 $436 $158 $437 $279 reversed $99 $-1 #
coedge $-1 -1 $-1 $158 $436 $433 $438 forward $99 $-1 #
coedge $-1 -1 $-1 $439 $440 $158 $275 forward $441 $-1 #
edge $-1 -1 $-1 $284 1.5707963267948966 $442 3.1415926535897927 $274 $285 forward @7 unknown #
coedge $-1 -1 $-1 $160 $159 $443 $444 reversed $67 $-1 #
coedge $-1 -1 $-1 $445 $446 $159 $278 forward $447 $-1 #
edge $-1 -1 $-1 $448 -40 $283 0 $277 $449 forward @7 unknown #
edge $-1 -1 $-1 $450 -40 $284 0 $437 $451 forward @7 unknown #
coedge $-1 -1 $-1 $281 $161 $435 $452 forward $282 $-1 #
coedge $-1 -1 $-1 $161 $280 $445 $453 forward $282 $-1 #
loop $-1 -1 $-1 $-1 $161 $268 #
vertex $-1 -1 $-1 $278 $454 #
vertex $-1 -1 $-1 $452 $455 #
ellipse-curve $-1 -1 $-1 -40 0 20 0 0 -1 0 -20 0 1 I I #
model_id-kcp-attrib $-1 -1 $-1 $-1 $164 1 1021382400 1021382400 255918081 7 #
face $456 -1 $-1 $457 $458 $10 $-1 $459 forward single #
plane-surface $-1 -1 $-1 0 0 20 0 0 1 1 0 0 forward_v I I I I #
coedge $-1 -1 $-1 $460 $461 $462 $463 reversed $165 $-1 #
coedge $-1 -1 $-1 $167 $464 $465 $466 reversed $103 $-1 #
coedge $-1 -1 $-1 $169 $168 $467 $468 reversed $71 $-1 #
coedge $-1 -1 $-1 $465 $469 $168 $293 forward $183 $-1 #
edge $470 -1 $-1 $471 -5.857864376269049 $294 5.857864376269049 $292 $472 forward @7 unknown #
vertex $-1 -1 $-1 $293 $473 #
straight-curve $-1 -1 $-1 -5.857864376269049 -5 0 0 0 -1 I I #
coedge $-1 -1 $-1 $467 $176 $171 $297 forward $304 $-1 #
edge $474 -1 $-1 $179 2.8017557441356713 $299 3.4814295630439149 $296 $475 forward @7 unknown #
attrib_edge_convexity-kcp-attrib $-1 -1 $476 $-1 $172 2 #
vertex $-1 -1 $-1 $297 $477 #
straight-curve $-1 -1 $-1 0 -5 10 -1 0 0 I I #
convexity-sys-attrib $-1 -1 $-1 $173 $109 #
point $-1 -1 $-1 -5.857864376269049 -5 10 #
coedge $-1 -1 $-1 $176 $478 $181 $309 reversed $304 $-1 #
loop $-1 -1 $-1 $-1 $467 $479 #
straight-curve $-1 -1 $-1 5.857864376269049 5 0 0 0 -1 I I #
convexity-sys-attrib $-1 -1 $-1 $178 $111 #
point $-1 -1 $-1 5.857864376269049 5 10 #
coedge $-1 -1 $-1 $480 $181 $481 $482 forward $183 $-1 #
edge $483 -1 $-1 $185 -2.8017557441356713 $484 -1.5707963267948966 $181 $485 forward @7 unknown #
coedge $-1 -1 $-1 $182 $486 $487 $488 forward $183 $-1 #
loop $-1 -1 $-1 $-1 $489 $164 #
convexity-sys-attrib $-1 -1 $-1 $184 $113 #
point $-1 -1 $-1 5.857864376269049 5 20 #
coedge $-1 -1 $-1 $464 $187 $490 $491 reversed $103 $-1 #
coedge $-1 -1 $-1 $487 $492 $187 $316 reversed $493 $-1 #
edge $-1 -1 $-1 $318 -20 $494 20 $187 $495 forward @7 unknown #
attrib_edge_convexity-kcp-attrib $-1 -1 $496 $-1 $188 1 #
vertex $-1 -1 $-1 $316 $497 #
ellipse-curve $-1 -1 $-1 -20 0 20 0 0 -1 15 0 0 1 I I #
face $-1 -1 $-1 $-1 $498 $28 $-1 $499 reversed single #
plane-surface $-1 -1 $-1 -30.000000000000004 4.4408920985006262e-016 20 0 0 1 1 0 0 forward_v I I I I #
coedge $-1 -1 $-1 $201 $500 $203 $338 forward $192 $-1 #
coedge $-1 -1 $-1 $501 $194 $500 $502 reversed $119 $-1 #
coedge $-1 -1 $-1 $194 $501 $195 $328 forward $119 $-1 #
coedge $-1 -1 $-1 $197 $203 $194 $326 reversed $204 $-1 #
edge $-1 -1 $-1 $329 5 $503 25 $194 $504 forward @7 unknown #
coedge $-1 -1 $-1 $196 $195 $505 $506 forward $79 $-1 #
edge $-1 -1 $-1 $507 0 $329 40 $324 $508 forward @7 unknown #
vertex $-1 -1 $-1 $328 $509 #
ellipse-curve $-1 -1 $-1 -20 0 20 0 0 -1 15 0 0 1 I I #
coedge $-1 -1 $-1 $505 $510 $199 $332 reversed $498 $-1 #
edge $-1 -1 $-1 $333 5 $336 25 $199 $511 forward @7 unknown #
vertex $-1 -1 $-1 $506 $512 #
straight-curve $-1 -1 $-1 -20 15 -20 0 0 1 I I #
coedge $-1 -1 $-1 $500 $201 $510 $513 forward $192 $-1 #
vertex $-1 -1 $-1 $513 $514 #
straight-curve $-1 -1 $-1 -40 15 -20 0 0 1 I I #
edge $-1 -1 $-1 $503 1.5707963267948966 $205 4.7123889803846897 $322 $515 forward @7 unknown #
point $-1 -1 $-1 -40 15 20 #
point $-1 -1 $-1 -20 15 20 #
face $-1 -1 $-1 $-1 $516 $30 $-1 $517 reversed single #
plane-surface $-1 -1 $-1 30.000000000000004 2.7403287982395367e-016 20 0 0 1 1 0 0 forward_v I I I I #
coedge $-1 -1 $-1 $218 $518 $220 $359 forward $209 $-1 #
coedge $-1 -1 $-1 $519 $211 $518 $520 reversed $127 $-1 #
coedge $-1 -1 $-1 $211 $519 $212 $349 forward $127 $-1 #
coedge $-1 -1 $-1 $214 $220 $211 $347 reversed $221 $-1 #
edge $-1 -1 $-1 $350 1.5707963267948966 $521 4.7123889803846897 $211 $522 forward @7 unknown #
coedge $-1 -1 $-1 $213 $212 $523 $524 forward $83 $-1 #
edge $-1 -1 $-1 $525 0 $350 40 $345 $526 forward @7 unknown #
vertex $-1 -1 $-1 $349 $527 #
straight-curve $-1 -1 $-1 15 -15 20 -1 0 0 I I #
coedge $-1 -1 $-1 $523 $528 $216 $353 reversed $516 $-1 #
edge $-1 -1 $-1 $354 -1.5707963267948966 $357 1.5707963267948966 $216 $529 forward @7 unknown #
vertex $-1 -1 $-1 $524 $530 #
straight-curve $-1 -1 $-1 40 -15 -20 0 0 1 I I #
coedge $-1 -1 $-1 $518 $218 $528 $531 forward $209 $-1 #
vertex $-1 -1 $-1 $531 $532 #
straight-curve $-1 -1 $-1 40 15 -20 0 0 1 I I #
edge $-1 -1 $-1 $521 5 $222 25 $343 $533 forward @7 unknown #
point $-1 -1 $-1 40 15 20 #
point $-1 -1 $-1 40 -15 20 #
face $-1 -1 $-1 $-1 $534 $32 $-1 $535 reversed single #
plane-surface $-1 -1 $-1 -5.3043633576024169e-016 4.4408920985006262e-016 20 0 0 1 1 0 0 forward_v I I I I #
coedge $-1 -1 $-1 $235 $536 $237 $380 forward $226 $-1 #
coedge $-1 -1 $-1 $537 $228 $536 $538 reversed $135 $-1 #
coedge $-1 -1 $-1 $228 $537 $229 $370 forward $135 $-1 #
coedge $-1 -1 $-1 $231 $237 $228 $368 reversed $238 $-1 #
edge $-1 -1 $-1 $371 -5.857864376269049 $539 5.857864376269049 $228 $540 forward @7 unknown #
coedge $-1 -1 $-1 $230 $229 $541 $542 reversed $87 $-1 #
edge $-1 -1 $-1 $543 0 $371 10 $366 $544 forward @7 unknown #
vertex $-1 -1 $-1 $370 $545 #
ellipse-curve $-1 -1 $-1 20 0 20 0 0 1 15 0 0 1 I I #
coedge $-1 -1 $-1 $541 $546 $233 $374 forward $534 $-1 #
edge $547 -1 $-1 $378 -5.857864376269049 $375 5.857864376269049 $233 $548 forward @7 unknown #
vertex $-1 -1 $-1 $374 $549 #
straight-curve $-1 -1 $-1 5.857864376269049 5 10 0 0 1 I I #
coedge $-1 -1 $-1 $536 $235 $546 $550 reversed $226 $-1 #
vertex $-1 -1 $-1 $550 $551 #
straight-curve $-1 -1 $-1 -5.857864376269049 5 10 0 0 1 I I #
edge $-1 -1 $-1 $539 -0.33983690945412193 $239 0.33983690945412193 $364 $552 forward @7 unknown #
point $-1 -1 $-1 -5.857864376269049 5 20 #
point $-1 -1 $-1 5.857864376269049 5 20 #
model_id-kcp-attrib $-1 -1 $-1 $-1 $242 1 1021382400 1021382400 256573442 5 #
face $-1 -1 $-1 $-1 $257 $33 $-1 $553 reversed single #
loop $-1 -1 $-1 $-1 $400 $242 #
plane-surface $-1 -1 $-1 0 20 0 0 -1 0 0 0 -1 forward_v I I I I #
coedge $-1 -1 $-1 $554 $398 $401 $555 forward $243 $-1 #
coedge $-1 -1 $-1 $404 $245 $246 $392 reversed $144 $-1 #
coedge $-1 -1 $-1 $398 $554 $245 $390 reversed $243 $-1 #
edge $-1 -1 $-1 $405 -20 $556 20 $389 $557 forward @7 unknown #
coedge $-1 -1 $-1 $247 $246 $554 $558 forward $92 $-1 #
edge $-1 -1 $-1 $396 -60 $556 60 $388 $559 forward @7 unknown #
coedge $-1 -1 $-1 $401 $400 $247 $394 reversed $385 $-1 #
edge $-1 -1 $-1 $560 -60 $395 60 $393 $561 forward @7 unknown #
vertex $-1 -1 $-1 $249 $562 #
vertex $-1 -1 $-1 $407 $563 #
straight-curve $-1 -1 $-1 60 0 -20 0 -1 0 I I #
coedge $-1 -1 $-1 $387 $389 $250 $399 reversed $243 $-1 #
edge $-1 -1 $-1 $402 -20 $405 20 $398 $564 forward @7 unknown #
coedge $-1 -1 $-1 $393 $251 $256 $408 forward $385 $-1 #
coedge $-1 -1 $-1 $251 $393 $387 $555 reversed $385 $-1 #
vertex $-1 -1 $-1 $252 $565 #
straight-curve $-1 -1 $-1 0 20 20 -1 0 0 I I #
coedge $-1 -1 $-1 $253 $388 $255 $407 reversed $144 $-1 #
vertex $-1 -1 $-1 $399 $566 #
straight-curve $-1 -1 $-1 0 -20 20 1 0 0 I I #
edge $-1 -1 $-1 $258 -20 $396 20 $255 $567 forward @7 unknown #
edge $-1 -1 $-1 $259 -20 $395 20 $256 $568 forward @7 unknown #
point $-1 -1 $-1 60 -20 20 #
point $-1 -1 $-1 60 20 20 #
face $-1 -1 $-1 $569 $570 $45 $-1 $432 forward single #
loop $-1 -1 $-1 $-1 $571 $261 #
plane-surface $-1 -1 $-1 0 -20 0 0 1 0 0 0 1 forward_v I I I I #
coedge $-1 -1 $-1 $422 $572 $573 $574 forward $262 $-1 #
coedge $-1 -1 $-1 $416 $263 $575 $576 forward $152 $-1 #
coedge $-1 -1 $-1 $263 $415 $424 $577 forward $152 $-1 #
coedge $-1 -1 $-1 $426 $578 $263 $418 reversed $579 $-1 #
edge $-1 -1 $-1 $428 -1.5707963267948966 $580 0 $263 $581 forward @7 unknown #
coedge $-1 -1 $-1 $265 $264 $582 $583 forward $96 $-1 #
coedge $-1 -1 $-1 $584 $585 $264 $421 forward $586 $-1 #
edge $-1 -1 $-1 $587 -20 $429 0 $264 $588 forward @7 unknown #
coedge $-1 -1 $-1 $572 $414 $265 $423 forward $262 $-1 #
edge $-1 -1 $-1 $428 0 $589 20 $265 $590 forward @7 unknown #
coedge $-1 -1 $-1 $591 $266 $416 $577 reversed $427 $-1 #
coedge $-1 -1 $-1 $266 $591 $592 $593 reversed $427 $-1 #
coedge $-1 -1 $-1 $594 $417 $595 $267 forward $579 $-1 #
loop $-1 -1 $-1 $-1 $266 $596 #
vertex $-1 -1 $-1 $423 $597 #
vertex $-1 -1 $-1 $593 $598 #
straight-curve $-1 -1 $-1 60 0 20 0 0 1 I I #
face $-1 -1 $-1 $599 $600 $36 $-1 $153 reversed single #
plane-surface $-1 -1 $-1 0 0 20 0 0 1 1 0 0 forward_v I I I I #
coedge $-1 -1 $-1 $601 $602 $273 $438 reversed $269 $-1 #
coedge $-1 -1 $-1 $603 $271 $604 $605 reversed $156 $-1 #
coedge $-1 -1 $-1 $271 $603 $280 $452 reversed $156 $-1 #
coedge $-1 -1 $-1 $273 $272 $606 $607 reversed $99 $-1 #
coedge $-1 -1 $-1 $608 $609 $271 $279 forward $610 $-1 #
edge $-1 -1 $-1 $611 -40 $442 0 $433 $612 forward @7 unknown #
coedge $-1 -1 $-1 $440 $274 $602 $613 forward $441 $-1 #
coedge $-1 -1 $-1 $274 $439 $608 $614 forward $441 $-1 #
loop $-1 -1 $-1 $-1 $274 $599 #
vertex $-1 -1 $-1 $613 $615 #
coedge $-1 -1 $-1 $616 $604 $276 $444 forward $600 $-1 #
edge $-1 -1 $-1 $450 -1.5707963267948966 $448 0 $443 $617 forward @7 unknown #
coedge $-1 -1 $-1 $618 $277 $281 $453 reversed $447 $-1 #
coedge $-1 -1 $-1 $277 $618 $616 $619 reversed $447 $-1 #
loop $-1 -1 $-1 $-1 $277 $620 #
vertex $-1 -1 $-1 $619 $621 #
straight-curve $-1 -1 $-1 -40 -20 20 0 0 1 I I #
vertex $-1 -1 $-1 $622 $623 #
straight-curve $-1 -1 $-1 -60 0 20 0 0 1 I I #
edge $-1 -1 $-1 $284 0 $624 20 $435 $625 forward @7 unknown #
edge $-1 -1 $-1 $624 -60 $283 -40 $445 $626 forward @7 unknown #
point $-1 -1 $-1 -40 -20 20 #
point $-1 -1 $-1 -60 0 20 #
model_id-kcp-attrib $-1 -1 $-1 $-1 $287 1 1021382400 1021382400 255918081 8 #
face $627 -1 $-1 $628 $493 $10 $-1 $629 forward single #
loop $-1 -1 $-1 $-1 $462 $287 #
plane-surface $-1 -1 $-1 -30 -15 0 0 1 0 0 0 1 forward_v I I I I #
coedge $-1 -1 $-1 $630 $289 $631 $632 reversed $165 $-1 #
coedge $-1 -1 $-1 $289 $630 $486 $633 reversed $165 $-1 #
coedge $-1 -1 $-1 $634 $635 $289 $463 forward $458 $-1 #
edge $-1 -1 $-1 $636 -20 $637 20 $462 $638 reversed @7 unknown #
coedge $-1 -1 $-1 $290 $314 $639 $640 reversed $103 $-1 #
coedge $-1 -1 $-1 $641 $292 $290 $466 forward $183 $-1 #
edge $642 -1 $-1 $294 0.33983690945412193 $643 1.5707963267948966 $465 $319 forward @7 unknown #
coedge $-1 -1 $-1 $644 $296 $291 $468 forward $304 $-1 #
edge $-1 -1 $-1 $299 10 $471 20 $467 $645 forward @7 unknown #
coedge $-1 -1 $-1 $292 $646 $644 $647 forward $183 $-1 #
attrib_edge_convexity-kcp-attrib $-1 -1 $648 $-1 $293 1 #
vertex $-1 -1 $-1 $647 $649 #
straight-curve $-1 -1 $-1 0 -5 20 -1 0 0 I I #
point $-1 -1 $-1 -5.857864376269049 -5 20 #
attrib_edge_convexity-kcp-attrib $-1 -1 $650 $-1 $297 1 #
ellipse-curve $-1 -1 $-1 20 0 10 0 0 1 15 0 0 1 I I #
convexity-sys-attrib $-1 -1 $-1 $298 $172 #
point $-1 -1 $-1 5.857864376269049 -5 10 #
coedge $-1 -1 $-1 $303 $651 $652 $653 forward $304 $-1 #
face $654 -1 $-1 $655 $304 $10 $-1 $656 reversed single #
coedge $-1 -1 $-1 $646 $308 $657 $658 forward $183 $-1 #
coedge $-1 -1 $-1 $652 $659 $308 $482 reversed $660 $-1 #
edge $661 -1 $-1 $484 5 $662 25 $308 $663 forward @7 unknown #
attrib_edge_convexity-kcp-attrib $-1 -1 $664 $-1 $309 1 #
vertex $-1 -1 $-1 $309 $665 #
ellipse-curve $-1 -1 $-1 20 0 20 0 0 -1 15 0 0 1 I I #
coedge $-1 -1 $-1 $310 $641 $461 $633 forward $183 $-1 #
coedge $-1 -1 $-1 $666 $315 $310 $488 reversed $493 $-1 #
edge $667 -1 $-1 $668 -25 $318 -5 $310 $669 forward @7 unknown #
coedge $-1 -1 $-1 $670 $671 $672 $673 forward $311 $-1 #
coedge $-1 -1 $-1 $674 $675 $314 $491 forward $676 $-1 #
edge $-1 -1 $-1 $677 -1.5707963267948966 $494 1.5707963267948966 $490 $678 forward @7 unknown #
coedge $-1 -1 $-1 $315 $666 $674 $679 reversed $493 $-1 #
loop $-1 -1 $-1 $-1 $315 $457 #
vertex $-1 -1 $-1 $491 $680 #
straight-curve $-1 -1 $-1 -20 15 0 0 0 -1 I I #
convexity-sys-attrib $-1 -1 $-1 $317 $188 #
point $-1 -1 $-1 -20 15 20 #
loop $-1 -1 $-1 $-1 $510 $320 #
plane-surface $-1 -1 $-1 -30.000000000000004 4.4408920985006262e-016 -20 0 0 1 1 0 0 forward_v I I I I #
coedge $-1 -1 $-1 $322 $335 $323 $502 forward $192 $-1 #
coedge $-1 -1 $-1 $324 $323 $681 $682 forward $119 $-1 #
edge $-1 -1 $-1 $683 0 $503 40 $500 $684 forward @7 unknown #
vertex $-1 -1 $-1 $502 $685 #
straight-curve $-1 -1 $-1 -15 -15 20 -1 0 0 I I #
coedge $-1 -1 $-1 $681 $331 $327 $506 reversed $498 $-1 #
edge $-1 -1 $-1 $507 -1.5707963267948966 $333 1.5707963267948966 $327 $686 forward @7 unknown #
vertex $-1 -1 $-1 $682 $687 #
straight-curve $-1 -1 $-1 -20 -15 -20 0 0 1 I I #
point $-1 -1 $-1 -20 -15 20 #
coedge $-1 -1 $-1 $331 $681 $335 $513 reversed $498 $-1 #
straight-curve $-1 -1 $-1 -15 15 -20 -1 0 0 I I #
point $-1 -1 $-1 -20 15 -20 #
edge $-1 -1 $-1 $336 1.5707963267948966 $683 4.7123889803846897 $335 $688 forward @7 unknown #
point $-1 -1 $-1 -40 15 -20 #
ellipse-curve $-1 -1 $-1 -40 0 20 0 0 -1 15 0 0 1 I I #
loop $-1 -1 $-1 $-1 $528 $341 #
plane-surface $-1 -1 $-1 30.000000000000004 2.7403287982395367e-016 -20 0 0 1 1 0 0 forward_v I I I I #
coedge $-1 -1 $-1 $343 $356 $344 $520 forward $209 $-1 #
coedge $-1 -1 $-1 $345 $344 $689 $690 forward $127 $-1 #
edge $-1 -1 $-1 $691 0 $521 40 $518 $692 forward @7 unknown #
vertex $-1 -1 $-1 $520 $693 #
ellipse-curve $-1 -1 $-1 20 0 20 0 0 -1 15 0 0 1 I I #
coedge $-1 -1 $-1 $689 $352 $348 $524 reversed $516 $-1 #
edge $-1 -1 $-1 $525 5 $354 25 $348 $694 forward @7 unknown #
vertex $-1 -1 $-1 $690 $695 #
straight-curve $-1 -1 $-1 20 -15 -20 0 0 1 I I #
point $-1 -1 $-1 20 -15 20 #
coedge $-1 -1 $-1 $352 $689 $356 $531 reversed $516 $-1 #
ellipse-curve $-1 -1 $-1 40 0 -20 0 0 1 15 0 0 1 I I #
point $-1 -1 $-1 40 -15 -20 #
edge $-1 -1 $-1 $357 -25 $691 -5 $356 $696 forward @7 unknown #
point $-1 -1 $-1 40 15 -20 #
straight-curve $-1 -1 $-1 15 15 20 1 0 0 I I #
loop $-1 -1 $-1 $-1 $546 $362 #
plane-surface $-1 -1 $-1 -5.3043633576024169e-016 4.4408920985006262e-016 10 0 0 1 1 0 0 forward_v I I I I #
coedge $-1 -1 $-1 $364 $377 $365 $538 forward $226 $-1 #
coedge $-1 -1 $-1 $366 $365 $697 $698 reversed $135 $-1 #
edge $-1 -1 $-1 $699 0 $539 10 $536 $700 forward @7 unknown #
vertex $-1 -1 $-1 $538 $701 #
straight-curve $-1 -1 $-1 0 -5 20 -1 0 0 I I #
coedge $-1 -1 $-1 $697 $373 $369 $542 forward $534 $-1 #
edge $702 -1 $-1 $375 2.8017557441356713 $543 3.4814295630439149 $369 $703 forward @7 unknown #
vertex $-1 -1 $-1 $542 $704 #
straight-curve $-1 -1 $-1 5.857864376269049 -5 10 0 0 1 I I #
point $-1 -1 $-1 5.857864376269049 -5 20 #
coedge $-1 -1 $-1 $373 $697 $377 $550 forward $534 $-1 #
convexity-sys-attrib $-1 -1 $-1 $-1 $374 #
straight-curve $-1 -1 $-1 0 5 10 1 0 0 I I #
point $-1 -1 $-1 5.857864376269049 5 10 #
edge $705 -1 $-1 $699 -0.33983690945412193 $378 0.33983690945412193 $377 $706 forward @7 unknown #
point $-1 -1 $-1 -5.857864376269049 5 10 #
ellipse-curve $-1 -1 $-1 -20 0 20 0 0 1 15 0 0 1 I I #
plane-surface $-1 -1 $-1 60 0 0 -1 0 0 0 0 1 forward_v I I I I #
coedge $-1 -1 $-1 $389 $387 $391 $558 reversed $243 $-1 #
edge $-1 -1 $-1 $402 -20 $560 20 $401 $707 forward @7 unknown #
vertex $-1 -1 $-1 $558 $708 #
straight-curve $-1 -1 $-1 -60 -20 0 0 0 -1 I I #
edge $-1 -1 $-1 $556 -20 $560 20 $554 $709 forward @7 unknown #
straight-curve $-1 -1 $-1 0 -20 -20 -1 0 0 I I #
vertex $-1 -1 $-1 $394 $710 #
straight-curve $-1 -1 $-1 0 20 -20 1 0 0 I I #
point $-1 -1 $-1 60 20 -20 #
point $-1 -1 $-1 60 -20 -20 #
straight-curve $-1 -1 $-1 -60 0 20 0 -1 0 I I #
point $-1 -1 $-1 -60 20 20 #
point $-1 -1 $-1 -60 -20 20 #
straight-curve $-1 -1 $-1 60 -20 0 0 0 -1 I I #
straight-curve $-1 -1 $-1 60 20 0 0 0 -1 I I #
face $-1 -1 $-1 $596 $586 $45 $-1 $432 forward single #
loop $-1 -1 $-1 $-1 $711 $411 #
coedge $-1 -1 $-1 $712 $713 $714 $715 reversed $412 $-1 #
coedge $-1 -1 $-1 $414 $422 $712 $716 forward $262 $-1 #
coedge $-1 -1 $-1 $714 $595 $414 $574 reversed $717 $-1 #
edge $-1 -1 $-1 $718 -3.1415926535897931 $428 -1.5707963267948966 $414 $581 forward @7 unknown #
coedge $-1 -1 $-1 $719 $720 $415 $576 reversed $721 $-1 #
edge $-1 -1 $-1 $580 40 $722 60 $575 $723 forward @7 unknown #
edge $-1 -1 $-1 $722 -20 $428 0 $424 $590 forward @7 unknown #
coedge $-1 -1 $-1 $417 $594 $719 $724 reversed $579 $-1 #
loop $-1 -1 $-1 $-1 $594 $725 #
vertex $-1 -1 $-1 $576 $726 #
ellipse-curve $-1 -1 $-1 40 0 -20 0 0 1 0 20 0 1 I I #
coedge $-1 -1 $-1 $713 $712 $419 $583 reversed $412 $-1 #
edge $-1 -1 $-1 $587 -20 $589 20 $419 $727 forward @7 unknown #
coedge $-1 -1 $-1 $585 $420 $728 $729 forward $586 $-1 #
coedge $-1 -1 $-1 $420 $584 $713 $730 forward $586 $-1 #
loop $-1 -1 $-1 $-1 $584 $569 #
vertex $-1 -1 $-1 $421 $731 #
straight-curve $-1 -1 $-1 60 0 20 0 1 0 I I #
vertex $-1 -1 $-1 $583 $732 #
straight-curve $-1 -1 $-1 60 0 -20 0 -1 0 I I #
coedge $-1 -1 $-1 $425 $424 $720 $733 reversed $427 $-1 #
coedge $-1 -1 $-1 $734 $711 $425 $593 forward $570 $-1 #
edge $-1 -1 $-1 $429 0 $735 20 $425 $588 forward @7 unknown #
coedge $-1 -1 $-1 $578 $426 $711 $736 reversed $579 $-1 #
coedge $-1 -1 $-1 $573 $728 $154 $267 reversed $717 $-1 #
face $-1 -1 $-1 $737 $427 $45 $-1 $97 reversed single #
point $-1 -1 $-1 60 0 -20 #
point $-1 -1 $-1 60 0 20 #
face $-1 -1 $-1 $738 $441 $36 $-1 $432 forward single #
loop $-1 -1 $-1 $-1 $443 $431 #
coedge $-1 -1 $-1 $739 $433 $740 $741 reversed $269 $-1 #
coedge $-1 -1 $-1 $433 $739 $439 $613 reversed $269 $-1 #
coedge $-1 -1 $-1 $435 $434 $618 $742 reversed $156 $-1 #
coedge $-1 -1 $-1 $443 $616 $434 $605 forward $600 $-1 #
edge $-1 -1 $-1 $743 -20 $450 0 $434 $744 forward @7 unknown #
coedge $-1 -1 $-1 $745 $740 $436 $607 forward $746 $-1 #
edge $-1 -1 $-1 $611 -3.1415926535897927 $450 -1.5707963267948966 $606 $617 forward @7 unknown #
coedge $-1 -1 $-1 $747 $437 $440 $614 reversed $610 $-1 #
coedge $-1 -1 $-1 $437 $747 $745 $622 reversed $610 $-1 #
loop $-1 -1 $-1 $-1 $437 $748 #
vertex $-1 -1 $-1 $438 $749 #
straight-curve $-1 -1 $-1 -40 20 20 0 0 1 I I #
edge $-1 -1 $-1 $442 40.000000000000014 $750 60 $602 $751 forward @7 unknown #
edge $-1 -1 $-1 $750 -20 $284 0 $608 $625 forward @7 unknown #
point $-1 -1 $-1 -40.000000000000014 20 20 #
coedge $-1 -1 $-1 $604 $443 $446 $619 forward $600 $-1 #
ellipse-curve $-1 -1 $-1 -40 0 -20 0 0 1 0 -20 0 1 I I #
coedge $-1 -1 $-1 $446 $445 $603 $742 forward $447 $-1 #
edge $-1 -1 $-1 $448 40 $743 60 $446 $752 forward @7 unknown #
face $-1 -1 $-1 $748 $447 $36 $-1 $413 reversed single #
point $-1 -1 $-1 -40 -20 -20 #
edge $-1 -1 $-1 $450 0 $753 20 $609 $744 forward @7 unknown #
point $-1 -1 $-1 -60 0 -20 #
vertex $-1 -1 $-1 $452 $754 #
straight-curve $-1 -1 $-1 -60 0 20 0 -1 0 I I #
straight-curve $-1 -1 $-1 0 -20 20 1 0 0 I I #
model_id-kcp-attrib $-1 -1 $-1 $-1 $457 1 1021382400 1021382400 255918081 9 #
face $755 -1 $-1 $756 $757 $10 $-1 $758 forward single #
plane-surface $-1 -1 $-1 -30 15 0 0 -1 0 0 0 -1 forward_v I I I I #
coedge $-1 -1 $-1 $461 $460 $666 $759 reversed $165 $-1 #
coedge $-1 -1 $-1 $675 $674 $460 $632 forward $676 $-1 #
edge $-1 -1 $-1 $760 1.5707963267948966 $636 4.7123889803846897 $631 $761 forward @7 unknown #
edge $762 -1 $-1 $637 1.5707963267948966 $668 4.7123889803846897 $486 $763 forward @7 unknown #
coedge $-1 -1 $-1 $639 $462 $641 $764 reversed $458 $-1 #
coedge $-1 -1 $-1 $462 $639 $675 $765 reversed $458 $-1 #
vertex $-1 -1 $-1 $765 $766 #
vertex $-1 -1 $-1 $764 $767 #
straight-curve $-1 -1 $-1 -40 -15 0 0 0 -1 I I #
coedge $-1 -1 $-1 $635 $634 $464 $640 forward $458 $-1 #
edge $-1 -1 $-1 $643 -20 $677 20 $464 $768 forward @7 unknown #
coedge $-1 -1 $-1 $486 $465 $634 $764 forward $183 $-1 #
attrib_edge_convexity-kcp-attrib $-1 -1 $769 $-1 $466 1 #
vertex $-1 -1 $-1 $466 $770 #
coedge $-1 -1 $-1 $771 $467 $469 $647 reversed $304 $-1 #
straight-curve $-1 -1 $-1 5.857864376269049 -5 0 0 0 1 I I #
coedge $-1 -1 $-1 $469 $480 $772 $773 forward $183 $-1 #
edge $774 -1 $-1 $775 1.5707963267948966 $471 2.8017557441356713 $469 $485 forward @7 unknown #
convexity-sys-attrib $-1 -1 $-1 $470 $293 #
point $-1 -1 $-1 5.857864376269049 -5 20 #
convexity-sys-attrib $-1 -1 $-1 $474 $297 #
coedge $-1 -1 $-1 $478 $771 $776 $777 reversed $304 $-1 #
coedge $-1 -1 $-1 $778 $481 $478 $653 reversed $660 $-1 #
edge $-1 -1 $-1 $779 -20 $484 20 $478 $780 forward @7 unknown #
model_id-kcp-attrib $-1 -1 $-1 $-1 $479 1 1021382400 1021382400 255918081 14 #
face $781 -1 $-1 $782 $783 $10 $-1 $784 forward single #
cone-surface $-1 -1 $-1 20 0 0 0 0 1 15 0 0 1 I I 0 1 15 forward I I I I #
coedge $-1 -1 $-1 $785 $786 $480 $658 reversed $787 $-1 #
edge $788 -1 $-1 $662 -1.5707963267948966 $789 1.5707963267948966 $480 $790 forward @7 unknown #
coedge $-1 -1 $-1 $481 $778 $785 $791 reversed $660 $-1 #
loop $-1 -1 $-1 $-1 $659 $756 #
attrib_edge_convexity-kcp-attrib $-1 -1 $792 $-1 $482 1 #
vertex $-1 -1 $-1 $791 $793 #
straight-curve $-1 -1 $-1 15 15 20 1 0 0 I I #
convexity-sys-attrib $-1 -1 $-1 $483 $309 #
point $-1 -1 $-1 20 15 20 #
coedge $-1 -1 $-1 $492 $487 $630 $759 forward $493 $-1 #
attrib_edge_convexity-kcp-attrib $-1 -1 $794 $-1 $488 1 #
vertex $-1 -1 $-1 $633 $795 #
straight-curve $-1 -1 $-1 -15 15 20 1 0 0 I I #
coedge $-1 -1 $-1 $796 $489 $797 $798 forward $311 $-1 #
coedge $-1 -1 $-1 $489 $796 $799 $800 forward $311 $-1 #
coedge $-1 -1 $-1 $801 $802 $489 $673 reversed $803 $-1 #
edge $804 -1 $-1 $805 -40 $806 40 $672 $807 forward @7 unknown #
coedge $-1 -1 $-1 $631 $490 $492 $679 forward $676 $-1 #
coedge $-1 -1 $-1 $490 $631 $635 $765 forward $676 $-1 #
loop $-1 -1 $-1 $808 $631 $809 #
vertex $-1 -1 $-1 $765 $810 #
ellipse-curve $-1 -1 $-1 -20 0 -20 0 0 1 15 0 0 1 I I #
edge $-1 -1 $-1 $494 5 $760 25 $674 $811 forward @7 unknown #
point $-1 -1 $-1 -20 15 -20 #
coedge $-1 -1 $-1 $510 $505 $501 $682 reversed $498 $-1 #
edge $-1 -1 $-1 $683 -25 $507 -5 $501 $812 forward @7 unknown #
vertex $-1 -1 $-1 $513 $813 #
straight-curve $-1 -1 $-1 -40 -15 -20 0 0 1 I I #
point $-1 -1 $-1 -40 -15 20 #
ellipse-curve $-1 -1 $-1 -20 0 -20 0 0 1 15 0 0 1 I I #
point $-1 -1 $-1 -20 -15 -20 #
ellipse-curve $-1 -1 $-1 -40 0 -20 0 0 1 15 0 0 1 I I #
coedge $-1 -1 $-1 $528 $523 $519 $690 reversed $516 $-1 #
edge $-1 -1 $-1 $691 1.5707963267948966 $525 4.7123889803846897 $519 $814 forward @7 unknown #
vertex $-1 -1 $-1 $531 $815 #
straight-curve $-1 -1 $-1 20 15 -20 0 0 1 I I #
point $-1 -1 $-1 20 15 20 #
straight-curve $-1 -1 $-1 15 -15 -20 1 0 0 I I #
point $-1 -1 $-1 20 -15 -20 #
straight-curve $-1 -1 $-1 15 15 -20 -1 0 0 I I #
coedge $-1 -1 $-1 $546 $541 $537 $698 forward $534 $-1 #
edge $816 -1 $-1 $543 -5.857864376269049 $699 5.857864376269049 $537 $817 forward @7 unknown #
vertex $-1 -1 $-1 $550 $818 #
straight-curve $-1 -1 $-1 -5.857864376269049 -5 10 0 0 1 I I #
point $-1 -1 $-1 -5.857864376269049 -5 20 #
convexity-sys-attrib $-1 -1 $-1 $-1 $542 #
ellipse-curve $-1 -1 $-1 20 0 10 0 0 1 15 0 0 1 I I #
point $-1 -1 $-1 5.857864376269049 -5 10 #
convexity-sys-attrib $-1 -1 $-1 $-1 $550 #
ellipse-curve $-1 -1 $-1 -20 0 10 0 0 1 15 0 0 1 I I #
straight-curve $-1 -1 $-1 -60 20 0 0 0 -1 I I #
point $-1 -1 $-1 -60 -20 -20 #
straight-curve $-1 -1 $-1 -60 0 -20 0 1 0 I I #
point $-1 -1 $-1 -60 20 -20 #
coedge $-1 -1 $-1 $592 $734 $594 $736 forward $570 $-1 #
coedge $-1 -1 $-1 $582 $571 $572 $716 reversed $412 $-1 #
coedge $-1 -1 $-1 $571 $582 $585 $730 reversed $412 $-1 #
coedge $-1 -1 $-1 $728 $573 $571 $715 forward $717 $-1 #
edge $-1 -1 $-1 $718 -40 $819 0 $571 $820 forward @7 unknown #
edge $-1 -1 $-1 $589 -60 $718 -40 $712 $752 forward @7 unknown #
loop $-1 -1 $-1 $-1 $728 $821 #
vertex $-1 -1 $-1 $574 $822 #
coedge $-1 -1 $-1 $823 $575 $578 $724 forward $721 $-1 #
coedge $-1 -1 $-1 $575 $823 $591 $733 forward $721 $-1 #
loop $-1 -1 $-1 $-1 $719 $737 #
vertex $-1 -1 $-1 $577 $824 #
straight-curve $-1 -1 $-1 0 20 -20 1 0 0 I I #
edge $-1 -1 $-1 $580 -40 $825 0 $719 $826 forward @7 unknown #
face $-1 -1 $-1 $821 $579 $45 $-1 $827 reversed single #
point $-1 -1 $-1 40 20 -20 #
straight-curve $-1 -1 $-1 60 -20 0 0 0 -1 I I #
coedge $-1 -1 $-1 $595 $714 $584 $729 reversed $717 $-1 #
edge $-1 -1 $-1 $429 1.5707963267948966 $819 3.1415926535897931 $584 $828 forward @7 unknown #
edge $-1 -1 $-1 $819 40 $587 60 $713 $626 forward @7 unknown #
point $-1 -1 $-1 60 -20 20 #
point $-1 -1 $-1 60 -20 -20 #
edge $-1 -1 $-1 $735 -20 $722 20 $591 $829 forward @7 unknown #
coedge $-1 -1 $-1 $711 $592 $823 $830 forward $570 $-1 #
vertex $-1 -1 $-1 $593 $831 #
edge $-1 -1 $-1 $825 0 $429 1.5707963267948966 $711 $828 forward @7 unknown #
face $-1 -1 $-1 $725 $721 $45 $-1 $270 reversed single #
face $-1 -1 $-1 $620 $746 $36 $-1 $153 reversed single #
coedge $-1 -1 $-1 $602 $601 $747 $832 reversed $269 $-1 #
coedge $-1 -1 $-1 $606 $745 $601 $741 forward $746 $-1 #
edge $-1 -1 $-1 $753 -60 $611 -40.000000000000014 $601 $723 forward @7 unknown #
edge $-1 -1 $-1 $624 -20 $743 20 $603 $833 forward @7 unknown #
vertex $-1 -1 $-1 $605 $834 #
straight-curve $-1 -1 $-1 -60 0 -20 0 1 0 I I #
coedge $-1 -1 $-1 $740 $606 $609 $622 forward $746 $-1 #
loop $-1 -1 $-1 $-1 $606 $738 #
coedge $-1 -1 $-1 $609 $608 $739 $832 forward $610 $-1 #
face $-1 -1 $-1 $-1 $610 $36 $-1 $157 reversed single #
point $-1 -1 $-1 -40.000000000000014 20 -20 #
vertex $-1 -1 $-1 $613 $835 #
straight-curve $-1 -1 $-1 0 20 20 -1 0 0 I I #
straight-curve $-1 -1 $-1 0 -20 -20 -1 0 0 I I #
vertex $-1 -1 $-1 $741 $836 #
point $-1 -1 $-1 -60 -20 20 #
model_id-kcp-attrib $-1 -1 $-1 $-1 $628 1 1021382400 1021382400 255918081 10 #
face $837 -1 $-1 $838 $660 $10 $-1 $839 forward single #
loop $-1 -1 $-1 $-1 $840 $628 #
plane-surface $-1 -1 $-1 30 -15 0 0 1 0 0 0 1 forward_v I I I I #
edge $-1 -1 $-1 $668 -20 $760 20 $666 $841 forward @7 unknown #
vertex $-1 -1 $-1 $632 $842 #
ellipse-curve $-1 -1 $-1 -40 0 -20 0 0 1 15 0 0 1 I I #
attrib_edge_convexity-kcp-attrib $-1 -1 $843 $-1 $633 1 #
ellipse-curve $-1 -1 $-1 -40 0 20 0 0 -1 15 0 0 1 I I #
edge $844 -1 $-1 $643 5 $637 25 $641 $845 forward @7 unknown #
edge $-1 -1 $-1 $636 -25 $677 -5 $675 $846 forward @7 unknown #
point $-1 -1 $-1 -40 -15 -20 #
point $-1 -1 $-1 -40 -15 20 #
straight-curve $-1 -1 $-1 -20 -15 0 0 0 -1 I I #
convexity-sys-attrib $-1 -1 $-1 $642 $466 #
point $-1 -1 $-1 -20 -15 20 #
coedge $-1 -1 $-1 $651 $644 $840 $847 forward $304 $-1 #
coedge $-1 -1 $-1 $848 $840 $646 $773 reversed $757 $-1 #
edge $849 -1 $-1 $789 -25 $775 -5 $646 $850 forward @7 unknown #
attrib_edge_convexity-kcp-attrib $-1 -1 $851 $-1 $647 1 #
vertex $-1 -1 $-1 $847 $852 #
coedge $-1 -1 $-1 $853 $854 $651 $777 forward $855 $-1 #
edge $-1 -1 $-1 $779 1.5707963267948966 $856 4.7123889803846897 $776 $857 forward @7 unknown #
coedge $-1 -1 $-1 $659 $652 $854 $858 reversed $660 $-1 #
vertex $-1 -1 $-1 $858 $859 #
straight-curve $-1 -1 $-1 20 15 0 0 0 1 I I #
model_id-kcp-attrib $-1 -1 $-1 $-1 $655 1 1021382400 1021382400 255918081 15 #
face $860 -1 $-1 $861 $862 $10 $-1 $863 forward single #
loop $-1 -1 $-1 $-1 $864 $655 #
cone-surface $-1 -1 $-1 -40 0 0 0 0 1 20 0 0 1 I I 0 1 20 forward I I I I #
coedge $-1 -1 $-1 $865 $657 $659 $791 forward $787 $-1 #
coedge $-1 -1 $-1 $657 $865 $848 $866 reversed $787 $-1 #
loop $-1 -1 $-1 $-1 $785 $838 #
attrib_edge_convexity-kcp-attrib $-1 -1 $867 $-1 $658 1 #
vertex $-1 -1 $-1 $658 $868 #
ellipse-curve $-1 -1 $-1 40 0 20 0 0 -1 15 0 0 1 I I #
edge $-1 -1 $-1 $662 -20 $869 20 $785 $870 forward @7 unknown #
convexity-sys-attrib $-1 -1 $-1 $661 $482 #
point $-1 -1 $-1 40 15 20 #
convexity-sys-attrib $-1 -1 $-1 $667 $488 #
point $-1 -1 $-1 -40 15 20 #
coedge $-1 -1 $-1 $671 $670 $871 $872 forward $311 $-1 #
coedge $-1 -1 $-1 $873 $874 $670 $798 reversed $862 $-1 #
edge $875 -1 $-1 $806 -1.5707963267948966 $876 1.5707963267948966 $670 $877 forward @7 unknown #
coedge $-1 -1 $-1 $864 $878 $671 $800 reversed $783 $-1 #
edge $879 -1 $-1 $880 1.5707963267948966 $805 4.7123889803846897 $671 $881 forward @7 unknown #
coedge $-1 -1 $-1 $882 $672 $878 $883 reversed $803 $-1 #
coedge $-1 -1 $-1 $672 $882 $873 $884 forward $803 $-1 #
loop $-1 -1 $-1 $-1 $801 $861 #
attrib_edge_convexity-kcp-attrib $-1 -1 $885 $-1 $673 1 #
vertex $-1 -1 $-1 $673 $886 #
vertex $-1 -1 $-1 $798 $887 #
straight-curve $-1 -1 $-1 0 -20 20 1 0 0 I I #
loop $-1 -1 $-1 $855 $888 $809 #
face $889 -1 $-1 $479 $676 $10 $-1 $890 reversed single #
point $-1 -1 $-1 -20 -15 -20 #
straight-curve $-1 -1 $-1 -15 15 -20 -1 0 0 I I #
straight-curve $-1 -1 $-1 -15 -15 -20 1 0 0 I I #
point $-1 -1 $-1 -40 -15 -20 #
ellipse-curve $-1 -1 $-1 20 0 -20 0 0 1 15 0 0 1 I I #
point $-1 -1 $-1 20 15 -20 #
convexity-sys-attrib $-1 -1 $-1 $-1 $698 #
straight-curve $-1 -1 $-1 0 -5 10 -1 0 0 I I #
point $-1 -1 $-1 -5.857864376269049 -5 10 #
vertex $-1 -1 $-1 $730 $891 #
straight-curve $-1 -1 $-1 40 -20 20 0 0 1 I I #
face $-1 -1 $-1 $-1 $717 $45 $-1 $827 reversed single #
point $-1 -1 $-1 40 -20 -20 #
coedge $-1 -1 $-1 $720 $719 $734 $830 reversed $721 $-1 #
point $-1 -1 $-1 60 20 -20 #
vertex $-1 -1 $-1 $736 $892 #
straight-curve $-1 -1 $-1 40 20 20 0 0 1 I I #
cone-surface $-1 -1 $-1 40 0 20 0 0 1 0 20 0 1 I I 0 1 20 forward I I I I #
ellipse-curve $-1 -1 $-1 40 0 20 0 0 -1 0 20 0 1 I I #
straight-curve $-1 -1 $-1 60 20 0 0 0 -1 I I #
edge $-1 -1 $-1 $735 -60 $825 -40 $823 $751 forward @7 unknown #
point $-1 -1 $-1 60 20 20 #
edge $-1 -1 $-1 $750 -20 $753 20 $739 $893 forward @7 unknown #
straight-curve $-1 -1 $-1 -60 -20 0 0 0 -1 I I #
point $-1 -1 $-1 -60 -20 -20 #
point $-1 -1 $-1 -60 20 20 #
point $-1 -1 $-1 -60 20 -20 #
model_id-kcp-attrib $-1 -1 $-1 $-1 $756 1 1021382400 1021382400 255918081 11 #
face $894 -1 $-1 $809 $787 $10 $-1 $895 reversed single #
plane-surface $-1 -1 $-1 30 15 0 0 -1 0 0 0 -1 forward_v I I I I #
coedge $-1 -1 $-1 $772 $896 $771 $847 reversed $757 $-1 #
straight-curve $-1 -1 $-1 -40 15 0 0 0 -1 I I #
point $-1 -1 $-1 -40 15 -20 #
convexity-sys-attrib $-1 -1 $-1 $762 $633 #
attrib_edge_convexity-kcp-attrib $-1 -1 $897 $-1 $764 1 #
straight-curve $-1 -1 $-1 -15 -15 20 -1 0 0 I I #
straight-curve $-1 -1 $-1 -15 -15 -20 1 0 0 I I #
edge $-1 -1 $-1 $775 -20 $856 20 $771 $898 forward @7 unknown #
coedge $-1 -1 $-1 $896 $772 $786 $866 forward $757 $-1 #
attrib_edge_convexity-kcp-attrib $-1 -1 $899 $-1 $773 1 #
straight-curve $-1 -1 $-1 15 -15 20 -1 0 0 I I #
convexity-sys-attrib $-1 -1 $-1 $774 $647 #
point $-1 -1 $-1 20 -15 20 #
coedge $-1 -1 $-1 $900 $776 $896 $901 forward $855 $-1 #
coedge $-1 -1 $-1 $776 $900 $778 $858 forward $855 $-1 #
loop $-1 -1 $-1 $-1 $854 $809 #
vertex $-1 -1 $-1 $777 $902 #
ellipse-curve $-1 -1 $-1 20 0 -20 0 0 1 15 0 0 1 I I #
edge $-1 -1 $-1 $869 -25 $779 -5 $854 $903 forward @7 unknown #
point $-1 -1 $-1 20 15 -20 #
model_id-kcp-attrib $-1 -1 $-1 $-1 $782 1 1021382400 1021382400 255918081 16 #
face $904 -1 $-1 $905 $803 $10 $-1 $906 reversed single #
loop $-1 -1 $-1 $-1 $874 $782 #
cone-surface $-1 -1 $-1 40 0 0 0 0 1 20 0 0 1 I I 0 1 20 forward I I I I #
coedge $-1 -1 $-1 $907 $799 $908 $909 reversed $783 $-1 #
coedge $-1 -1 $-1 $786 $785 $900 $910 reversed $787 $-1 #
edge $-1 -1 $-1 $789 -20 $911 20 $786 $912 forward @7 unknown #
convexity-sys-attrib $-1 -1 $-1 $788 $658 #
point $-1 -1 $-1 40 -15 20 #
vertex $-1 -1 $-1 $910 $913 #
straight-curve $-1 -1 $-1 40 15 0 0 0 -1 I I #
coedge $-1 -1 $-1 $914 $908 $796 $872 reversed $915 $-1 #
edge $916 -1 $-1 $876 -40 $880 40 $871 $917 forward @7 unknown #
coedge $-1 -1 $-1 $918 $797 $802 $884 reversed $862 $-1 #
coedge $-1 -1 $-1 $797 $918 $914 $919 forward $862 $-1 #
attrib_edge_convexity-kcp-attrib $-1 -1 $920 $-1 $798 1 #
vertex $-1 -1 $-1 $872 $921 #
ellipse-curve $-1 -1 $-1 40 0 20 0 0 1 20 0 0 1 I I #
coedge $-1 -1 $-1 $799 $907 $801 $883 forward $783 $-1 #
attrib_edge_convexity-kcp-attrib $-1 -1 $922 $-1 $800 1 #
vertex $-1 -1 $-1 $872 $923 #
ellipse-curve $-1 -1 $-1 -40 0 20 0 0 1 20 0 0 1 I I #
coedge $-1 -1 $-1 $802 $801 $924 $925 reversed $803 $-1 #
edge $926 -1 $-1 $927 -20 $805 20 $801 $928 reversed @7 unknown #
edge $929 -1 $-1 $930 -20 $806 20 $802 $931 reversed @7 unknown #
convexity-sys-attrib $-1 -1 $-1 $804 $673 #
point $-1 -1 $-1 -40 -20 20 #
point $-1 -1 $-1 40 -20 20 #
coedge $-1 -1 $-1 $932 $933 $934 $935 forward $808 $-1 #
model_id-kcp-attrib $-1 -1 $-1 $-1 $809 1 1021382400 1021382400 255918081 13 #
plane-surface $-1 -1 $-1 0 0 -20 0 0 1 1 0 0 forward_v I I I I #
point $-1 -1 $-1 40 -20 20 #
point $-1 -1 $-1 40 20 20 #
straight-curve $-1 -1 $-1 -60 20 0 0 0 -1 I I #
model_id-kcp-attrib $-1 -1 $-1 $-1 $838 1 1021382400 1021382400 255918081 12 #
cone-surface $-1 -1 $-1 40 0 0 0 0 1 15 0 0 1 I I 0 1 15 forward I I I I #
coedge $-1 -1 $-1 $840 $848 $853 $901 reversed $757 $-1 #
convexity-sys-attrib $-1 -1 $-1 $844 $764 #
straight-curve $-1 -1 $-1 20 -15 0 0 0 -1 I I #
convexity-sys-attrib $-1 -1 $-1 $849 $773 #
coedge $-1 -1 $-1 $854 $853 $865 $910 forward $855 $-1 #
edge $-1 -1 $-1 $856 5 $911 25 $853 $936 forward @7 unknown #
point $-1 -1 $-1 20 -15 -20 #
straight-curve $-1 -1 $-1 15 15 -20 -1 0 0 I I #
model_id-kcp-attrib $-1 -1 $-1 $-1 $861 1 1021382400 1021382400 255918081 17 #
face $937 -1 $-1 $-1 $915 $10 $-1 $938 reversed single #
plane-surface $-1 -1 $-1 0 -20 0 0 1 0 0 0 1 forward_v I I I I #
coedge $-1 -1 $-1 $878 $864 $933 $939 reversed $783 $-1 #
coedge $-1 -1 $-1 $871 $934 $864 $909 forward $915 $-1 #
edge $-1 -1 $-1 $940 -20 $880 20 $908 $941 reversed @7 unknown #
edge $-1 -1 $-1 $911 -1.5707963267948966 $869 1.5707963267948966 $900 $942 forward @7 unknown #
vertex $-1 -1 $-1 $901 $943 #
straight-curve $-1 -1 $-1 40 -15 0 0 0 -1 I I #
point $-1 -1 $-1 40 15 -20 #
coedge $-1 -1 $-1 $934 $871 $874 $919 reversed $915 $-1 #
loop $-1 -1 $-1 $-1 $914 $905 #
attrib_edge_convexity-kcp-attrib $-1 -1 $944 $-1 $872 1 #
straight-curve $-1 -1 $-1 0 20 20 -1 0 0 I I #
coedge $-1 -1 $-1 $874 $873 $932 $945 reversed $862 $-1 #
edge $-1 -1 $-1 $946 -20 $876 20 $914 $947 reversed @7 unknown #
convexity-sys-attrib $-1 -1 $-1 $875 $798 #
point $-1 -1 $-1 40 20 20 #
convexity-sys-attrib $-1 -1 $-1 $879 $800 #
point $-1 -1 $-1 -40 20 20 #
coedge $-1 -1 $-1 $933 $932 $882 $925 forward $808 $-1 #
edge $948 -1 $-1 $930 -40 $927 40 $882 $949 forward @7 unknown #
attrib_edge_convexity-kcp-attrib $-1 -1 $950 $-1 $883 3 #
vertex $-1 -1 $-1 $939 $951 #
straight-curve $-1 -1 $-1 -40 -20 0 0 0 -1 I I #
attrib_edge_convexity-kcp-attrib $-1 -1 $952 $-1 $884 3 #
vertex $-1 -1 $-1 $884 $953 #
straight-curve $-1 -1 $-1 40 -20 0 0 0 -1 I I #
coedge $-1 -1 $-1 $924 $888 $918 $945 forward $808 $-1 #
coedge $-1 -1 $-1 $888 $924 $907 $939 forward $808 $-1 #
coedge $-1 -1 $-1 $908 $914 $888 $935 reversed $915 $-1 #
edge $954 -1 $-1 $940 -40 $946 40 $934 $955 forward @7 unknown #
straight-curve $-1 -1 $-1 15 -15 -20 1 0 0 I I #
model_id-kcp-attrib $-1 -1 $-1 $-1 $905 1 1021382400 1021382400 255918081 18 #
plane-surface $-1 -1 $-1 0 20 0 0 -1 0 0 0 -1 forward_v I I I I #
edge $-1 -1 $-1 $927 1.5707963267948966 $940 4.7123889803846897 $933 $956 forward @7 unknown #
vertex $-1 -1 $-1 $935 $957 #
straight-curve $-1 -1 $-1 -40 20 0 0 0 -1 I I #
ellipse-curve $-1 -1 $-1 40 0 -20 0 0 1 15 0 0 1 I I #
point $-1 -1 $-1 40 -15 -20 #
convexity-sys-attrib $-1 -1 $-1 $916 $872 #
edge $-1 -1 $-1 $946 -1.5707963267948966 $930 1.5707963267948966 $932 $958 forward @7 unknown #
vertex $-1 -1 $-1 $945 $959 #
straight-curve $-1 -1 $-1 40 20 0 0 0 -1 I I #
model_id-kcp-attrib $-1 -1 $960 $-1 $925 1 1021382400 1021382400 255918081 21 #
straight-curve $-1 -1 $-1 0 -20 -20 -1 0 0 I I #
convexity-sys-attrib $-1 -1 $-1 $926 $883 #
point $-1 -1 $-1 -40 -20 -20 #
convexity-sys-attrib $-1 -1 $-1 $929 $884 #
point $-1 -1 $-1 40 -20 -20 #
model_id-kcp-attrib $-1 -1 $-1 $-1 $935 1 1021382400 1021382400 255918081 20 #
straight-curve $-1 -1 $-1 0 20 -20 1 0 0 I I #
ellipse-curve $-1 -1 $-1 -40 0 -20 0 0 -1 20 0 0 1 I I #
point $-1 -1 $-1 -40 20 -20 #
ellipse-curve $-1 -1 $-1 40 0 -20 0 0 -1 20 0 0 1 I I #
point $-1 -1 $-1 40 20 -20 #
attrib_edge_convexity-kcp-attrib $-1 -1 $961 $948 $925 1 #
convexity-sys-attrib $-1 -1 $-1 $960 $925 #
End-of-ACIS-data 