600 0 2 0           
24 FBMach with ACIS - 6.0.3 13 ACIS 6.0.3 NT 24 Wed May 23 20:18:50 2001 
1 9.9999999999999995e-007 1e-010 
body $2 $3 $-1 $4 #
bdycol-kcp $-1 1 5 $5 $6 $7 $8 $9 #
model_id-kcp-attrib $-1 $-1 $-1 $0 1 990663530 70 457572353 1 #
lump $-1 $-1 $10 $0 #
transform $-1 1 0 0 0 1 0 0 0 1 0 0 0 1 no_rotate no_reflect no_shear #
body $11 $12 $-1 $13 #
body $14 $15 $-1 $16 #
body $17 $18 $-1 $19 #
body $20 $21 $-1 $22 #
body $23 $24 $-1 $25 #
shell $-1 $-1 $-1 $26 $-1 $3 #
model_id-kcp-attrib $-1 $-1 $-1 $5 1 990663530 70 457572354 1 #
lump $-1 $-1 $27 $5 #
transform $-1 1 0 0 0 1 0 0 0 1 0 0 0 1 no_rotate no_reflect no_shear #
rgb_color-st-attrib $-1 $28 $-1 $6 0.5 1 1 #
lump $-1 $29 $30 $6 #
transform $-1 1 0 0 0 1 0 0 0 1 0 0 0 1 no_rotate no_reflect no_shear #
rgb_color-st-attrib $-1 $31 $-1 $7 0.5 1 1 #
lump $-1 $-1 $32 $7 #
transform $-1 1 0 0 0 1 0 0 0 1 0 0 0 1 no_rotate no_reflect no_shear #
rgb_color-st-attrib $-1 $33 $-1 $8 0.5 1 1 #
lump $-1 $-1 $34 $8 #
transform $-1 1 0 0 0 1 0 0 0 1 0 0 0 1 no_rotate no_reflect no_shear #
rgb_color-st-attrib $-1 $35 $-1 $9 1 0 0 #
lump $-1 $-1 $36 $9 #
transform $-1 1 0 0 0 1 0 0 0 1 0 0 142.66499161421601 1 no_rotate no_reflect no_shear #
face $37 $38 $39 $10 $-1 $40 forward single #
shell $-1 $-1 $-1 $41 $-1 $12 #
model_id-kcp-attrib $-1 $-1 $14 $6 1 990663530 180 464781315 1 #
lump $-1 $-1 $42 $6 #
shell $-1 $-1 $-1 $43 $-1 $15 #
model_id-kcp-attrib $-1 $-1 $17 $7 1 990663530 240 468713476 1 #
shell $-1 $-1 $-1 $44 $-1 $18 #
model_id-kcp-attrib $-1 $-1 $20 $8 1 990663530 280 454557701 1 #
shell $-1 $-1 $-1 $45 $-1 $21 #
model_id-kcp-attrib $-1 $-1 $23 $9 1 990663530 480 467664902 1 #
shell $-1 $-1 $-1 $46 $-1 $24 #
model_id-kcp-attrib $-1 $-1 $-1 $26 1 990663530 70 457572353 2 #
face $47 $48 $49 $10 $-1 $50 forward single #
loop $-1 $-1 $51 $26 #
plane-surface $-1 0 5 15 0 -1 0 0 0 -1 forward_v I I I I #
face $52 $53 $54 $27 $-1 $55 forward single #
shell $-1 $-1 $-1 $56 $-1 $29 #
face $-1 $57 $58 $30 $-1 $59 reversed single #
face $-1 $60 $61 $32 $-1 $62 forward single #
face $-1 $63 $64 $34 $-1 $65 forward single #
face $-1 $66 $67 $36 $-1 $68 reversed single #
model_id-kcp-attrib $-1 $-1 $-1 $38 1 990663530 70 457572353 3 #
face $69 $70 $71 $10 $-1 $72 forward single #
loop $-1 $-1 $73 $38 #
plane-surface $-1 0 0 10 0 0 1 1 0 0 forward_v I I I I #
coedge $-1 $74 $75 $76 $77 reversed $39 $-1 #
model_id-kcp-attrib $-1 $-1 $-1 $41 1 990663530 70 457572354 2 #
face $78 $79 $80 $27 $-1 $81 reversed single #
loop $-1 $-1 $82 $41 #
plane-surface $-1 0 0 20 0 0 1 1 0 0 forward_v I I I I #
face $-1 $83 $84 $42 $-1 $85 reversed single #
face $-1 $86 $87 $30 $-1 $59 reversed single #
loop $-1 $-1 $88 $43 #
cone-surface $-1 -40 0 20 0 0 1 0 -20 0 1 I I 0 1 20 forward I I I I #
face $-1 $89 $90 $32 $-1 $91 forward single #
loop $-1 $-1 $92 $44 #
plane-surface $-1 -40 15 -20 0 1 0 0 0 1 forward_v I I I I #
face $-1 $93 $94 $34 $-1 $95 forward single #
loop $-1 $-1 $96 $45 #
cone-surface $-1 40 0 -20 0 0 1 15 0 0 1 I I 0 1 15 forward I I I I #
face $-1 $97 $98 $36 $-1 $99 reversed single #
loop $-1 $-1 $100 $46 #
cone-surface $-1 20 0 -162.66499161421601 0 0 1 15 0 0 1 I I 0 1 15 forward I I I I #
model_id-kcp-attrib $-1 $-1 $-1 $48 1 990663530 70 457572353 4 #
face $101 $102 $103 $10 $-1 $104 reversed single #
loop $-1 $-1 $105 $48 #
plane-surface $-1 0 -5 15 0 1 0 0 0 1 forward_v I I I I #
coedge $-1 $106 $107 $108 $109 reversed $49 $-1 #
coedge $-1 $110 $51 $107 $111 forward $39 $-1 #
coedge $-1 $51 $110 $112 $113 reversed $39 $-1 #
coedge $-1 $114 $108 $51 $77 forward $103 $-1 #
edge $-1 $115 10 $116 20 $76 $117 forward 7 unknown #
model_id-kcp-attrib $-1 $-1 $-1 $53 1 990663530 70 457572354 3 #
face $118 $119 $120 $27 $-1 $121 reversed single #
loop $-1 $-1 $122 $53 #
plane-surface $-1 0 0 -20 0 0 1 1 0 0 forward_v I I I I #
coedge $-1 $123 $124 $125 $126 forward $54 $-1 #
face $-1 $127 $128 $42 $-1 $129 reversed single #
loop $-1 $-1 $130 $56 #
plane-surface $-1 60 0 0 -1 0 0 0 0 1 forward_v I I I I #
face $-1 $131 $132 $30 $-1 $133 reversed single #
loop $-1 $-1 $134 $57 #
coedge $-1 $135 $136 $137 $138 reversed $58 $-1 #
face $-1 $139 $140 $32 $-1 $141 forward single #
loop $-1 $-1 $142 $60 #
cone-surface $-1 -20 0 -20 0 0 1 15 0 0 1 I I 0 1 15 forward I I I I #
coedge $-1 $143 $144 $145 $146 forward $61 $-1 #
face $-1 $147 $148 $34 $-1 $149 forward single #
loop $-1 $-1 $150 $63 #
plane-surface $-1 40 -15 -20 0 -1 0 0 0 -1 forward_v I I I I #
coedge $-1 $151 $152 $153 $154 forward $64 $-1 #
face $-1 $155 $156 $36 $-1 $157 forward single #
loop $-1 $-1 $158 $66 #
cone-surface $-1 -20 0 -162.66499161421601 0 0 1 15 0 0 1 I I 0 1 15 forward I I I I #
coedge $-1 $159 $160 $161 $162 forward $67 $-1 #
model_id-kcp-attrib $-1 $-1 $-1 $70 1 990663530 70 457572353 5 #
face $163 $164 $165 $10 $-1 $166 reversed single #
loop $-1 $-1 $167 $70 #
cone-surface $-1 -20 0 0 0 0 1 15 0 0 1 I I 0 1 15 forward I I I I #
coedge $-1 $168 $169 $167 $170 reversed $71 $-1 #
coedge $-1 $171 $73 $169 $172 reversed $49 $-1 #
coedge $-1 $73 $171 $74 $111 reversed $49 $-1 #
coedge $-1 $76 $167 $73 $109 forward $103 $-1 #
edge $-1 $173 -0.33983690945412193 $115 0.33983690945412193 $108 $174 forward 7 unknown #
coedge $-1 $75 $74 $175 $176 reversed $39 $-1 #
edge $-1 $115 -5.857864376269049 $177 5.857864376269049 $74 $178 forward 7 unknown #
coedge $-1 $179 $180 $75 $113 forward $181 $-1 #
edge $182 $116 -5.857864376269049 $183 5.857864376269049 $112 $184 forward 7 unknown #
coedge $-1 $185 $76 $180 $186 reversed $103 $-1 #
vertex $-1 $109 $187 #
vertex $-1 $186 $188 #
straight-curve $-1 -5.857864376269049 5 0 0 0 1 I I #
model_id-kcp-attrib $-1 $-1 $-1 $79 1 990663530 70 457572354 4 #
face $-1 $189 $190 $27 $-1 $191 reversed single #
loop $-1 $-1 $192 $79 #
plane-surface $-1 0 -20 0 0 1 0 0 0 1 forward_v I I I I #
coedge $-1 $193 $194 $195 $196 forward $80 $-1 #
coedge $-1 $197 $82 $198 $199 forward $54 $-1 #
coedge $-1 $82 $197 $200 $201 forward $54 $-1 #
coedge $-1 $202 $203 $82 $126 reversed $204 $-1 #
edge $-1 $205 -20 $206 20 $125 $207 forward 7 unknown #
face $-1 $208 $209 $42 $-1 $129 reversed single #
loop $-1 $-1 $210 $83 #
plane-surface $-1 0 0 -20 0 0 1 1 0 0 forward_v I I I I #
coedge $-1 $211 $212 $213 $214 forward $84 $-1 #
face $-1 $215 $216 $30 $-1 $217 reversed single #
loop $-1 $-1 $218 $86 #
plane-surface $-1 -60 0 0 1 0 0 0 0 -1 forward_v I I I I #
coedge $-1 $219 $220 $221 $222 reversed $87 $-1 #
coedge $-1 $223 $88 $224 $225 reversed $58 $-1 #
coedge $-1 $88 $223 $219 $226 forward $58 $-1 #
coedge $-1 $227 $228 $88 $138 forward $229 $-1 #
edge $-1 $230 0 $231 1.5707963267948966 $137 $232 forward 7 unknown #
face $-1 $233 $234 $32 $-1 $235 forward single #
loop $-1 $-1 $236 $89 #
plane-surface $-1 -20 -15 -20 0 -1 0 0 0 -1 forward_v I I I I #
coedge $-1 $237 $238 $239 $240 forward $90 $-1 #
coedge $-1 $241 $92 $238 $242 reversed $61 $-1 #
coedge $-1 $92 $241 $243 $244 forward $61 $-1 #
coedge $-1 $245 $239 $92 $146 reversed $246 $-1 #
edge $-1 $247 -25 $248 -5 $92 $249 forward 7 unknown #
face $-1 $250 $251 $34 $-1 $252 forward single #
loop $-1 $-1 $253 $93 #
cone-surface $-1 20 0 -20 0 0 1 15 0 0 1 I I 0 1 15 forward I I I I #
coedge $-1 $254 $255 $256 $257 forward $94 $-1 #
coedge $-1 $258 $96 $255 $259 reversed $64 $-1 #
coedge $-1 $96 $258 $260 $261 forward $64 $-1 #
coedge $-1 $262 $256 $96 $154 reversed $263 $-1 #
edge $-1 $264 -1.5707963267948966 $265 1.5707963267948966 $96 $266 forward 7 unknown #
face $-1 $267 $268 $36 $-1 $269 reversed single #
loop $-1 $-1 $270 $97 #
plane-surface $-1 0 0 -122.66499161421601 0 0 1 1 0 0 forward_v I I I I #
coedge $-1 $271 $272 $273 $274 forward $98 $-1 #
coedge $-1 $275 $100 $276 $277 forward $67 $-1 #
coedge $-1 $100 $275 $278 $279 reversed $67 $-1 #
coedge $-1 $280 $281 $100 $162 reversed $268 $-1 #
edge $-1 $282 -40 $283 -30 $161 $284 forward 7 unknown #
model_id-kcp-attrib $-1 $-1 $-1 $102 1 990663530 70 457572353 6 #
face $285 $286 $181 $10 $-1 $287 forward single #
loop $-1 $-1 $288 $102 #
cone-surface $-1 -40 0 0 0 0 1 15 0 0 1 I I 0 1 15 forward I I I I #
coedge $-1 $108 $289 $105 $170 forward $103 $-1 #
coedge $-1 $290 $105 $291 $292 reversed $71 $-1 #
coedge $-1 $105 $290 $106 $172 forward $71 $-1 #
edge $-1 $293 -20 $173 -10 $167 $294 forward 7 unknown #
coedge $-1 $107 $106 $295 $296 reversed $49 $-1 #
edge $-1 $297 -5.857864376269049 $173 5.857864376269049 $169 $298 forward 7 unknown #
vertex $-1 $109 $299 #
ellipse-curve $-1 -20 0 10 0 0 1 15 0 0 1 I I #
coedge $-1 $295 $300 $110 $176 forward $301 $-1 #
edge $-1 $183 -20 $177 -10 $175 $302 forward 7 unknown #
vertex $-1 $296 $303 #
straight-curve $-1 0 5 10 1 0 0 I I #
coedge $-1 $304 $112 $300 $305 forward $181 $-1 #
coedge $-1 $112 $306 $114 $186 forward $181 $-1 #
loop $-1 $307 $291 $164 #
attrib_edge_convexity-kcp-attrib $-1 $308 $-1 $113 1 #
vertex $-1 $176 $309 #
straight-curve $-1 0 5 20 1 0 0 I I #
coedge $-1 $310 $114 $311 $312 forward $103 $-1 #
edge $313 $314 -1.5707963267948966 $116 -0.33983690945412193 $180 $315 forward 7 unknown #
point $-1 -5.857864376269049 5 10 #
point $-1 -5.857864376269049 5 20 #
face $316 $317 $318 $27 $-1 $319 reversed single #
loop $-1 $-1 $320 $119 #
plane-surface $-1 -60 0 0 1 0 0 0 0 -1 forward_v I I I I #
coedge $-1 $321 $200 $322 $323 forward $120 $-1 #
coedge $-1 $324 $122 $321 $325 forward $80 $-1 #
coedge $-1 $122 $324 $326 $327 forward $80 $-1 #
coedge $-1 $203 $202 $122 $196 reversed $204 $-1 #
edge $-1 $328 -20 $329 20 $195 $330 forward 7 unknown #
coedge $-1 $124 $123 $331 $332 forward $54 $-1 #
coedge $-1 $333 $334 $123 $199 reversed $318 $-1 #
edge $-1 $206 -60 $335 60 $198 $336 forward 7 unknown #
coedge $-1 $192 $337 $124 $201 reversed $120 $-1 #
edge $-1 $338 -60 $205 60 $200 $339 forward 7 unknown #
coedge $-1 $195 $125 $337 $340 forward $204 $-1 #
coedge $-1 $125 $195 $333 $341 reversed $204 $-1 #
loop $-1 $-1 $202 $317 #
vertex $-1 $126 $342 #
vertex $-1 $126 $343 #
straight-curve $-1 60 0 20 0 1 0 I I #
face $-1 $344 $345 $42 $-1 $346 reversed single #
loop $-1 $-1 $347 $127 #
coedge $-1 $348 $349 $350 $351 forward $128 $-1 #
coedge $-1 $352 $130 $353 $354 reversed $84 $-1 #
coedge $-1 $130 $352 $355 $356 reversed $84 $-1 #
coedge $-1 $357 $358 $359 $214 reversed $360 $-1 #
edge $-1 $361 -40 $362 0 $130 $363 forward 7 unknown #
face $-1 $364 $229 $30 $-1 $365 forward single #
loop $-1 $-1 $366 $131 #
plane-surface $-1 0 20 0 0 -1 0 0 0 -1 forward_v I I I I #
coedge $-1 $367 $368 $136 $226 reversed $132 $-1 #
coedge $-1 $369 $134 $370 $226 reversed $87 $-1 #
coedge $-1 $134 $369 $366 $371 forward $87 $-1 #
coedge $-1 $372 $373 $134 $222 forward $374 $-1 #
edge $-1 $231 1.5707963267948966 $375 3.1415926535897927 $221 $232 forward 7 unknown #
coedge $-1 $136 $135 $376 $377 reversed $58 $-1 #
coedge $-1 $378 $379 $135 $225 forward $380 $-1 #
edge $-1 $381 -40 $230 0 $224 $382 forward 7 unknown #
edge $-1 $383 -40 $231 0 $370 $384 forward 7 unknown #
coedge $-1 $228 $137 $368 $385 forward $229 $-1 #
coedge $-1 $137 $227 $378 $386 forward $229 $-1 #
loop $-1 $-1 $137 $215 #
vertex $-1 $225 $387 #
vertex $-1 $385 $388 #
ellipse-curve $-1 -40 0 20 0 0 -1 0 -20 0 1 I I #
face $-1 $389 $246 $32 $-1 $390 forward single #
loop $-1 $-1 $391 $139 #
cone-surface $-1 -40 0 -20 0 0 1 15 0 0 1 I I 0 1 15 forward I I I I #
coedge $-1 $392 $393 $394 $395 forward $140 $-1 #
coedge $-1 $396 $142 $393 $397 reversed $90 $-1 #
coedge $-1 $142 $396 $143 $242 forward $90 $-1 #
coedge $-1 $145 $394 $142 $240 reversed $246 $-1 #
edge $-1 $248 -1.5707963267948966 $398 1.5707963267948966 $142 $399 forward 7 unknown #
coedge $-1 $144 $143 $400 $401 forward $61 $-1 #
edge $-1 $402 0 $248 40 $238 $403 forward 7 unknown #
coedge $-1 $404 $391 $144 $244 reversed $234 $-1 #
edge $-1 $405 0 $247 40 $144 $406 forward 7 unknown #
coedge $-1 $394 $145 $391 $407 reversed $246 $-1 #
loop $-1 $-1 $145 $233 #
vertex $-1 $244 $408 #
vertex $-1 $242 $409 #
straight-curve $-1 -15 15 20 1 0 0 I I #
face $-1 $410 $263 $34 $-1 $411 forward single #
loop $-1 $-1 $412 $147 #
plane-surface $-1 20 15 -20 0 1 0 0 0 1 forward_v I I I I #
coedge $-1 $413 $414 $415 $416 forward $148 $-1 #
coedge $-1 $417 $150 $414 $418 reversed $94 $-1 #
coedge $-1 $150 $417 $151 $259 forward $94 $-1 #
coedge $-1 $153 $415 $150 $257 reversed $263 $-1 #
edge $-1 $265 -25 $419 -5 $150 $420 forward 7 unknown #
coedge $-1 $152 $151 $421 $422 forward $64 $-1 #
edge $-1 $423 0 $265 40 $255 $424 forward 7 unknown #
coedge $-1 $425 $412 $152 $261 reversed $251 $-1 #
edge $-1 $426 0 $264 40 $152 $427 forward 7 unknown #
coedge $-1 $415 $153 $412 $428 reversed $263 $-1 #
loop $-1 $-1 $153 $250 #
vertex $-1 $261 $429 #
vertex $-1 $259 $430 #
ellipse-curve $-1 40 0 20 0 0 -1 15 0 0 1 I I #
face $-1 $431 $432 $36 $-1 $433 reversed single #
loop $-1 $-1 $161 $155 #
plane-surface $-1 0 -5 0 0 1 0 0 0 1 forward_v I I I I #
coedge $-1 $434 $435 $272 $436 forward $156 $-1 #
coedge $-1 $437 $158 $438 $439 forward $98 $-1 #
coedge $-1 $158 $437 $270 $436 reversed $98 $-1 #
coedge $-1 $440 $441 $158 $274 reversed $442 $-1 #
edge $-1 $443 -40 $444 -30 $273 $445 forward 7 unknown #
coedge $-1 $160 $159 $446 $447 forward $67 $-1 #
coedge $-1 $448 $449 $159 $277 reversed $432 $-1 #
edge $450 $283 2.8017557441356713 $451 3.4814295630439149 $276 $452 forward 7 unknown #
coedge $-1 $435 $434 $160 $279 forward $156 $-1 #
edge $-1 $282 2.8017557441356713 $453 3.4814295630439149 $278 $454 forward 7 unknown #
coedge $-1 $455 $161 $434 $456 reversed $268 $-1 #
coedge $-1 $161 $455 $448 $457 reversed $268 $-1 #
vertex $-1 $162 $458 #
vertex $-1 $457 $459 #
straight-curve $-1 5.857864376269049 -5 -162.66499161421601 0 0 -1 I I #
model_id-kcp-attrib $-1 $460 $-1 $164 1 990663530 70 457572353 19 #
face $461 $462 $463 $10 $-1 $464 forward single #
plane-surface $-1 0 0 20 0 0 1 1 0 0 forward_v I I I I #
coedge $-1 $465 $466 $467 $468 reversed $165 $-1 #
coedge $-1 $167 $469 $470 $471 reversed $103 $-1 #
coedge $-1 $169 $168 $472 $473 reversed $71 $-1 #
coedge $-1 $470 $474 $168 $292 forward $181 $-1 #
edge $475 $476 -5.857864376269049 $293 5.857864376269049 $291 $477 forward 7 unknown #
vertex $-1 $292 $478 #
straight-curve $-1 -5.857864376269049 -5 0 0 0 -1 I I #
coedge $-1 $472 $175 $171 $296 forward $301 $-1 #
edge $-1 $177 2.8017557441356713 $297 3.4814295630439149 $295 $479 forward 7 unknown #
vertex $-1 $296 $480 #
straight-curve $-1 0 -5 10 -1 0 0 I I #
point $-1 -5.857864376269049 -5 10 #
coedge $-1 $175 $481 $179 $305 reversed $301 $-1 #
loop $-1 $-1 $472 $482 #
straight-curve $-1 5.857864376269049 5 0 0 0 -1 I I #
point $-1 5.857864376269049 5 10 #
coedge $-1 $483 $179 $484 $485 forward $181 $-1 #
edge $486 $183 -2.8017557441356713 $487 -1.5707963267948966 $179 $488 forward 7 unknown #
coedge $-1 $180 $489 $490 $491 forward $181 $-1 #
loop $-1 $-1 $492 $164 #
convexity-sys-attrib $-1 $-1 $182 $113 #
point $-1 5.857864376269049 5 20 #
coedge $-1 $469 $185 $493 $494 reversed $103 $-1 #
coedge $-1 $490 $495 $185 $312 reversed $496 $-1 #
edge $-1 $314 -20 $497 20 $185 $498 forward 7 unknown #
attrib_edge_convexity-kcp-attrib $-1 $499 $-1 $186 1 #
vertex $-1 $312 $500 #
ellipse-curve $-1 -20 0 20 0 0 -1 15 0 0 1 I I #
model_id-kcp-attrib $-1 $-1 $-1 $189 1 990663530 70 457572354 5 #
face $-1 $-1 $204 $27 $-1 $501 reversed single #
loop $-1 $-1 $333 $189 #
plane-surface $-1 0 20 0 0 -1 0 0 0 -1 forward_v I I I I #
coedge $-1 $502 $331 $334 $503 forward $190 $-1 #
coedge $-1 $337 $192 $193 $325 reversed $120 $-1 #
coedge $-1 $331 $502 $192 $323 reversed $190 $-1 #
edge $-1 $338 -20 $504 20 $322 $505 forward 7 unknown #
coedge $-1 $194 $193 $502 $506 forward $80 $-1 #
edge $-1 $329 -60 $504 60 $321 $507 forward 7 unknown #
coedge $-1 $334 $333 $194 $327 reversed $318 $-1 #
edge $-1 $508 -60 $328 60 $326 $509 forward 7 unknown #
vertex $-1 $196 $510 #
vertex $-1 $340 $511 #
straight-curve $-1 60 0 -20 0 -1 0 I I #
coedge $-1 $320 $322 $197 $332 reversed $190 $-1 #
edge $-1 $335 -20 $338 20 $331 $512 forward 7 unknown #
coedge $-1 $326 $198 $203 $341 forward $318 $-1 #
coedge $-1 $198 $326 $320 $503 reversed $318 $-1 #
vertex $-1 $199 $513 #
straight-curve $-1 0 20 20 -1 0 0 I I #
coedge $-1 $200 $321 $202 $340 reversed $120 $-1 #
vertex $-1 $332 $514 #
straight-curve $-1 0 -20 20 1 0 0 I I #
edge $-1 $205 -20 $329 20 $202 $515 forward 7 unknown #
edge $-1 $206 -20 $328 20 $203 $516 forward 7 unknown #
point $-1 60 -20 20 #
point $-1 60 20 20 #
face $-1 $517 $518 $42 $-1 $365 forward single #
loop $-1 $-1 $519 $208 #
plane-surface $-1 0 -20 0 0 1 0 0 0 1 forward_v I I I I #
coedge $-1 $355 $520 $521 $522 forward $209 $-1 #
coedge $-1 $349 $210 $523 $524 forward $128 $-1 #
coedge $-1 $210 $348 $357 $525 forward $128 $-1 #
coedge $-1 $359 $526 $210 $351 reversed $527 $-1 #
edge $-1 $361 -1.5707963267948966 $528 0 $210 $529 forward 7 unknown #
coedge $-1 $212 $211 $530 $531 forward $84 $-1 #
coedge $-1 $532 $533 $211 $354 forward $534 $-1 #
edge $-1 $535 -20 $362 0 $211 $536 forward 7 unknown #
coedge $-1 $520 $347 $212 $356 forward $209 $-1 #
edge $-1 $361 0 $537 20 $212 $538 forward 7 unknown #
coedge $-1 $539 $213 $349 $525 reversed $360 $-1 #
coedge $-1 $213 $539 $540 $541 reversed $360 $-1 #
coedge $-1 $542 $350 $543 $214 forward $527 $-1 #
loop $-1 $-1 $213 $544 #
vertex $-1 $356 $545 #
vertex $-1 $541 $546 #
straight-curve $-1 60 0 20 0 0 1 I I #
face $-1 $547 $548 $30 $-1 $129 reversed single #
plane-surface $-1 0 0 20 0 0 1 1 0 0 forward_v I I I I #
coedge $-1 $549 $550 $220 $371 reversed $216 $-1 #
coedge $-1 $551 $218 $552 $553 reversed $132 $-1 #
coedge $-1 $218 $551 $227 $385 reversed $132 $-1 #
coedge $-1 $220 $219 $554 $555 reversed $87 $-1 #
coedge $-1 $556 $557 $218 $226 forward $558 $-1 #
edge $-1 $559 -40 $375 0 $366 $560 forward 7 unknown #
coedge $-1 $373 $221 $550 $561 forward $374 $-1 #
coedge $-1 $221 $372 $556 $562 forward $374 $-1 #
loop $-1 $-1 $221 $547 #
vertex $-1 $561 $563 #
coedge $-1 $564 $552 $223 $377 forward $548 $-1 #
edge $-1 $383 -1.5707963267948966 $381 0 $376 $565 forward 7 unknown #
coedge $-1 $566 $224 $228 $386 reversed $380 $-1 #
coedge $-1 $224 $566 $564 $567 reversed $380 $-1 #
loop $-1 $-1 $224 $568 #
vertex $-1 $567 $569 #
straight-curve $-1 -40 -20 20 0 0 1 I I #
vertex $-1 $570 $571 #
straight-curve $-1 -60 0 20 0 0 1 I I #
edge $-1 $231 0 $572 20 $368 $573 forward 7 unknown #
edge $-1 $572 -60 $230 -40 $378 $574 forward 7 unknown #
point $-1 -40 -20 20 #
point $-1 -60 0 20 #
face $-1 $-1 $575 $32 $-1 $576 reversed single #
plane-surface $-1 -30.000000000000004 4.4408920985006262e-016 20 0 0 1 1 0 0 forward_v I I I I #
coedge $-1 $243 $577 $245 $407 forward $234 $-1 #
coedge $-1 $578 $236 $577 $579 reversed $140 $-1 #
coedge $-1 $236 $578 $237 $397 forward $140 $-1 #
coedge $-1 $239 $245 $236 $395 reversed $246 $-1 #
edge $-1 $398 5 $580 25 $236 $581 forward 7 unknown #
coedge $-1 $238 $237 $582 $583 forward $90 $-1 #
edge $-1 $584 0 $398 40 $393 $585 forward 7 unknown #
vertex $-1 $397 $586 #
ellipse-curve $-1 -20 0 20 0 0 -1 15 0 0 1 I I #
coedge $-1 $582 $587 $241 $401 reversed $575 $-1 #
edge $-1 $402 5 $405 25 $241 $588 forward 7 unknown #
vertex $-1 $583 $589 #
straight-curve $-1 -20 15 -20 0 0 1 I I #
coedge $-1 $577 $243 $587 $590 forward $234 $-1 #
vertex $-1 $590 $591 #
straight-curve $-1 -40 15 -20 0 0 1 I I #
edge $-1 $580 1.5707963267948966 $247 4.7123889803846897 $391 $592 forward 7 unknown #
point $-1 -40 15 20 #
point $-1 -20 15 20 #
face $-1 $-1 $593 $34 $-1 $594 reversed single #
plane-surface $-1 30.000000000000004 2.7403287982395367e-016 20 0 0 1 1 0 0 forward_v I I I I #
coedge $-1 $260 $595 $262 $428 forward $251 $-1 #
coedge $-1 $596 $253 $595 $597 reversed $148 $-1 #
coedge $-1 $253 $596 $254 $418 forward $148 $-1 #
coedge $-1 $256 $262 $253 $416 reversed $263 $-1 #
edge $-1 $419 1.5707963267948966 $598 4.7123889803846897 $253 $599 forward 7 unknown #
coedge $-1 $255 $254 $600 $601 forward $94 $-1 #
edge $-1 $602 0 $419 40 $414 $603 forward 7 unknown #
vertex $-1 $418 $604 #
straight-curve $-1 15 -15 20 -1 0 0 I I #
coedge $-1 $600 $605 $258 $422 reversed $593 $-1 #
edge $-1 $423 -1.5707963267948966 $426 1.5707963267948966 $258 $606 forward 7 unknown #
vertex $-1 $601 $607 #
straight-curve $-1 40 -15 -20 0 0 1 I I #
coedge $-1 $595 $260 $605 $608 forward $251 $-1 #
vertex $-1 $608 $609 #
straight-curve $-1 40 15 -20 0 0 1 I I #
edge $-1 $598 5 $264 25 $412 $610 forward 7 unknown #
point $-1 40 15 20 #
point $-1 40 -15 20 #
face $-1 $-1 $442 $36 $-1 $611 reversed single #
loop $-1 $-1 $276 $267 #
plane-surface $-1 0 0 -132.66499161421601 0 0 1 1 0 0 forward_v I I I I #
coedge $-1 $278 $270 $280 $456 forward $156 $-1 #
coedge $-1 $270 $278 $440 $612 forward $156 $-1 #
edge $-1 $443 -0.33983690945412193 $613 0.33983690945412193 $270 $614 forward 7 unknown #
coedge $-1 $272 $271 $455 $615 forward $98 $-1 #
coedge $-1 $449 $448 $271 $439 reversed $432 $-1 #
edge $616 $444 -0.33983690945412193 $617 0.33983690945412193 $438 $618 forward 7 unknown #
coedge $-1 $446 $273 $435 $612 reversed $442 $-1 #
coedge $-1 $273 $446 $449 $619 reversed $442 $-1 #
loop $-1 $-1 $446 $431 #
vertex $-1 $274 $620 #
vertex $-1 $619 $621 #
straight-curve $-1 -5.857864376269049 5 -162.66499161421601 0 0 -1 I I #
coedge $-1 $441 $440 $275 $447 reversed $442 $-1 #
edge $-1 $451 30 $453 40 $446 $622 forward 7 unknown #
coedge $-1 $438 $276 $281 $457 forward $432 $-1 #
coedge $-1 $276 $438 $441 $619 forward $432 $-1 #
convexity-sys-attrib $-1 $-1 $-1 $277 #
vertex $-1 $277 $623 #
ellipse-curve $-1 20 0 -132.66499161421601 0 0 -1 15 0 0 1 I I #
vertex $-1 $447 $624 #
ellipse-curve $-1 20 0 -122.66499161421601 0 0 -1 15 0 0 1 I I #
coedge $-1 $281 $280 $437 $615 reversed $268 $-1 #
edge $-1 $613 -5.857864376269049 $282 5.857864376269049 $280 $625 forward 7 unknown #
edge $626 $283 -5.857864376269049 $617 5.857864376269049 $281 $627 forward 7 unknown #
point $-1 5.857864376269049 -5 -122.66499161421601 #
point $-1 5.857864376269049 -5 -132.66499161421601 #
model_id-kcp-attrib $-1 $-1 $285 $164 1 990663530 70 457572353 7 #
model_id-kcp-attrib $-1 $-1 $-1 $286 1 990663530 70 457572353 8 #
face $628 $629 $496 $10 $-1 $630 forward single #
loop $-1 $-1 $467 $286 #
plane-surface $-1 -30 -15 0 0 1 0 0 0 1 forward_v I I I I #
coedge $-1 $631 $288 $632 $633 reversed $165 $-1 #
coedge $-1 $288 $631 $489 $634 reversed $165 $-1 #
coedge $-1 $635 $636 $288 $468 forward $463 $-1 #
edge $-1 $637 -20 $638 20 $467 $639 reversed 7 unknown #
coedge $-1 $289 $310 $640 $641 reversed $103 $-1 #
coedge $-1 $642 $291 $289 $471 forward $181 $-1 #
edge $643 $293 0.33983690945412193 $644 1.5707963267948966 $470 $315 forward 7 unknown #
coedge $-1 $645 $295 $290 $473 forward $301 $-1 #
edge $-1 $297 10 $476 20 $472 $646 forward 7 unknown #
coedge $-1 $291 $647 $645 $648 forward $181 $-1 #
attrib_edge_convexity-kcp-attrib $-1 $649 $-1 $292 1 #
vertex $-1 $648 $650 #
straight-curve $-1 0 -5 20 -1 0 0 I I #
point $-1 -5.857864376269049 -5 20 #
ellipse-curve $-1 20 0 10 0 0 1 15 0 0 1 I I #
point $-1 5.857864376269049 -5 10 #
coedge $-1 $300 $651 $652 $653 forward $301 $-1 #
face $654 $655 $301 $10 $-1 $656 reversed single #
coedge $-1 $647 $304 $657 $658 forward $181 $-1 #
coedge $-1 $652 $659 $304 $485 reversed $660 $-1 #
edge $661 $487 5 $662 25 $304 $663 forward 7 unknown #
attrib_edge_convexity-kcp-attrib $-1 $664 $-1 $305 1 #
vertex $-1 $305 $665 #
ellipse-curve $-1 20 0 20 0 0 -1 15 0 0 1 I I #
coedge $-1 $306 $642 $466 $634 forward $181 $-1 #
coedge $-1 $666 $311 $306 $491 reversed $496 $-1 #
edge $667 $668 -25 $314 -5 $306 $669 forward 7 unknown #
coedge $-1 $670 $671 $672 $673 forward $307 $-1 #
coedge $-1 $674 $675 $310 $494 forward $676 $-1 #
edge $-1 $677 -1.5707963267948966 $497 1.5707963267948966 $493 $678 forward 7 unknown #
coedge $-1 $311 $666 $674 $679 reversed $496 $-1 #
loop $-1 $-1 $311 $462 #
vertex $-1 $494 $680 #
straight-curve $-1 -20 15 0 0 0 -1 I I #
convexity-sys-attrib $-1 $-1 $313 $186 #
point $-1 -20 15 20 #
plane-surface $-1 60 0 0 -1 0 0 0 0 1 forward_v I I I I #
coedge $-1 $322 $320 $324 $506 reversed $190 $-1 #
edge $-1 $335 -20 $508 20 $334 $681 forward 7 unknown #
vertex $-1 $506 $682 #
straight-curve $-1 -60 -20 0 0 0 -1 I I #
edge $-1 $504 -20 $508 20 $502 $683 forward 7 unknown #
straight-curve $-1 0 -20 -20 -1 0 0 I I #
vertex $-1 $327 $684 #
straight-curve $-1 0 20 -20 1 0 0 I I #
point $-1 60 20 -20 #
point $-1 60 -20 -20 #
straight-curve $-1 -60 0 20 0 -1 0 I I #
point $-1 -60 20 20 #
point $-1 -60 -20 20 #
straight-curve $-1 60 -20 0 0 0 -1 I I #
straight-curve $-1 60 20 0 0 0 -1 I I #
face $-1 $544 $534 $42 $-1 $365 forward single #
loop $-1 $-1 $685 $344 #
coedge $-1 $686 $687 $688 $689 reversed $345 $-1 #
coedge $-1 $347 $355 $686 $690 forward $209 $-1 #
coedge $-1 $688 $543 $347 $522 reversed $691 $-1 #
edge $-1 $692 -3.1415926535897931 $361 -1.5707963267948966 $347 $529 forward 7 unknown #
coedge $-1 $693 $694 $348 $524 reversed $695 $-1 #
edge $-1 $528 40 $696 60 $523 $697 forward 7 unknown #
edge $-1 $696 -20 $361 0 $357 $538 forward 7 unknown #
coedge $-1 $350 $542 $693 $698 reversed $527 $-1 #
loop $-1 $-1 $542 $699 #
vertex $-1 $524 $700 #
ellipse-curve $-1 40 0 -20 0 0 1 0 20 0 1 I I #
coedge $-1 $687 $686 $352 $531 reversed $345 $-1 #
edge $-1 $535 -20 $537 20 $352 $701 forward 7 unknown #
coedge $-1 $533 $353 $702 $703 forward $534 $-1 #
coedge $-1 $353 $532 $687 $704 forward $534 $-1 #
loop $-1 $-1 $532 $517 #
vertex $-1 $354 $705 #
straight-curve $-1 60 0 20 0 1 0 I I #
vertex $-1 $531 $706 #
straight-curve $-1 60 0 -20 0 -1 0 I I #
coedge $-1 $358 $357 $694 $707 reversed $360 $-1 #
coedge $-1 $708 $685 $358 $541 forward $518 $-1 #
edge $-1 $362 0 $709 20 $358 $536 forward 7 unknown #
coedge $-1 $526 $359 $685 $710 reversed $527 $-1 #
coedge $-1 $521 $702 $130 $214 reversed $691 $-1 #
face $-1 $711 $360 $42 $-1 $85 reversed single #
point $-1 60 0 -20 #
point $-1 60 0 20 #
face $-1 $712 $374 $30 $-1 $365 forward single #
loop $-1 $-1 $376 $364 #
coedge $-1 $713 $366 $714 $715 reversed $216 $-1 #
coedge $-1 $366 $713 $372 $561 reversed $216 $-1 #
coedge $-1 $368 $367 $566 $716 reversed $132 $-1 #
coedge $-1 $376 $564 $367 $553 forward $548 $-1 #
edge $-1 $717 -20 $383 0 $367 $718 forward 7 unknown #
coedge $-1 $719 $714 $369 $555 forward $720 $-1 #
edge $-1 $559 -3.1415926535897927 $383 -1.5707963267948966 $554 $565 forward 7 unknown #
coedge $-1 $721 $370 $373 $562 reversed $558 $-1 #
coedge $-1 $370 $721 $719 $570 reversed $558 $-1 #
loop $-1 $-1 $370 $722 #
vertex $-1 $371 $723 #
straight-curve $-1 -40 20 20 0 0 1 I I #
edge $-1 $375 40.000000000000014 $724 60 $550 $725 forward 7 unknown #
edge $-1 $724 -20 $231 0 $556 $573 forward 7 unknown #
point $-1 -40.000000000000014 20 20 #
coedge $-1 $552 $376 $379 $567 forward $548 $-1 #
ellipse-curve $-1 -40 0 -20 0 0 1 0 -20 0 1 I I #
coedge $-1 $379 $378 $551 $716 forward $380 $-1 #
edge $-1 $381 40 $717 60 $379 $726 forward 7 unknown #
face $-1 $722 $380 $30 $-1 $346 reversed single #
point $-1 -40 -20 -20 #
edge $-1 $383 0 $727 20 $557 $718 forward 7 unknown #
point $-1 -60 0 -20 #
vertex $-1 $385 $728 #
straight-curve $-1 -60 0 20 0 -1 0 I I #
straight-curve $-1 0 -20 20 1 0 0 I I #
loop $-1 $-1 $587 $389 #
plane-surface $-1 -30.000000000000004 4.4408920985006262e-016 -20 0 0 1 1 0 0 forward_v I I I I #
coedge $-1 $391 $404 $392 $579 forward $234 $-1 #
coedge $-1 $393 $392 $729 $730 forward $140 $-1 #
edge $-1 $731 0 $580 40 $577 $732 forward 7 unknown #
vertex $-1 $579 $733 #
straight-curve $-1 -15 -15 20 -1 0 0 I I #
coedge $-1 $729 $400 $396 $583 reversed $575 $-1 #
edge $-1 $584 -1.5707963267948966 $402 1.5707963267948966 $396 $734 forward 7 unknown #
vertex $-1 $730 $735 #
straight-curve $-1 -20 -15 -20 0 0 1 I I #
point $-1 -20 -15 20 #
coedge $-1 $400 $729 $404 $590 reversed $575 $-1 #
straight-curve $-1 -15 15 -20 -1 0 0 I I #
point $-1 -20 15 -20 #
edge $-1 $405 1.5707963267948966 $731 4.7123889803846897 $404 $736 forward 7 unknown #
point $-1 -40 15 -20 #
ellipse-curve $-1 -40 0 20 0 0 -1 15 0 0 1 I I #
loop $-1 $-1 $605 $410 #
plane-surface $-1 30.000000000000004 2.7403287982395367e-016 -20 0 0 1 1 0 0 forward_v I I I I #
coedge $-1 $412 $425 $413 $597 forward $251 $-1 #
coedge $-1 $414 $413 $737 $738 forward $148 $-1 #
edge $-1 $739 0 $598 40 $595 $740 forward 7 unknown #
vertex $-1 $597 $741 #
ellipse-curve $-1 20 0 20 0 0 -1 15 0 0 1 I I #
coedge $-1 $737 $421 $417 $601 reversed $593 $-1 #
edge $-1 $602 5 $423 25 $417 $742 forward 7 unknown #
vertex $-1 $738 $743 #
straight-curve $-1 20 -15 -20 0 0 1 I I #
point $-1 20 -15 20 #
coedge $-1 $421 $737 $425 $608 reversed $593 $-1 #
ellipse-curve $-1 40 0 -20 0 0 1 15 0 0 1 I I #
point $-1 40 -15 -20 #
edge $-1 $426 -25 $739 -5 $425 $744 forward 7 unknown #
point $-1 40 15 -20 #
straight-curve $-1 15 15 20 1 0 0 I I #
plane-surface $-1 0 5 0 0 -1 0 0 0 -1 forward_v I I I I #
edge $-1 $453 -5.857864376269049 $443 5.857864376269049 $440 $745 forward 7 unknown #
vertex $-1 $615 $746 #
ellipse-curve $-1 -20 0 -122.66499161421601 0 0 -1 15 0 0 1 I I #
edge $-1 $617 30 $613 40 $455 $747 forward 7 unknown #
convexity-sys-attrib $-1 $-1 $-1 $439 #
vertex $-1 $439 $748 #
ellipse-curve $-1 -20 0 -132.66499161421601 0 0 -1 15 0 0 1 I I #
edge $749 $444 -5.857864376269049 $451 5.857864376269049 $441 $750 forward 7 unknown #
point $-1 -5.857864376269049 5 -122.66499161421601 #
point $-1 -5.857864376269049 5 -132.66499161421601 #
straight-curve $-1 5.857864376269049 5 -162.66499161421601 0 0 1 I I #
point $-1 5.857864376269049 5 -132.66499161421601 #
point $-1 5.857864376269049 5 -122.66499161421601 #
straight-curve $-1 0 -5 -122.66499161421601 1 0 0 I I #
convexity-sys-attrib $-1 $-1 $-1 $457 #
straight-curve $-1 0 -5 -132.66499161421601 -1 0 0 I I #
model_id-kcp-attrib $-1 $-1 $-1 $462 1 990663530 70 457572353 9 #
face $751 $752 $753 $10 $-1 $754 forward single #
plane-surface $-1 -30 15 0 0 -1 0 0 0 -1 forward_v I I I I #
coedge $-1 $466 $465 $666 $755 reversed $165 $-1 #
coedge $-1 $675 $674 $465 $633 forward $676 $-1 #
edge $-1 $756 1.5707963267948966 $637 4.7123889803846897 $632 $757 forward 7 unknown #
edge $758 $638 1.5707963267948966 $668 4.7123889803846897 $489 $759 forward 7 unknown #
coedge $-1 $640 $467 $642 $760 reversed $463 $-1 #
coedge $-1 $467 $640 $675 $761 reversed $463 $-1 #
vertex $-1 $761 $762 #
vertex $-1 $760 $763 #
straight-curve $-1 -40 -15 0 0 0 -1 I I #
coedge $-1 $636 $635 $469 $641 forward $463 $-1 #
edge $-1 $644 -20 $677 20 $469 $764 forward 7 unknown #
coedge $-1 $489 $470 $635 $760 forward $181 $-1 #
attrib_edge_convexity-kcp-attrib $-1 $765 $-1 $471 1 #
vertex $-1 $471 $766 #
coedge $-1 $767 $472 $474 $648 reversed $301 $-1 #
straight-curve $-1 5.857864376269049 -5 0 0 0 1 I I #
coedge $-1 $474 $483 $768 $769 forward $181 $-1 #
edge $770 $771 1.5707963267948966 $476 2.8017557441356713 $474 $488 forward 7 unknown #
convexity-sys-attrib $-1 $-1 $475 $292 #
point $-1 5.857864376269049 -5 20 #
coedge $-1 $481 $767 $772 $773 reversed $301 $-1 #
coedge $-1 $774 $484 $481 $653 reversed $660 $-1 #
edge $-1 $775 -20 $487 20 $481 $776 forward 7 unknown #
model_id-kcp-attrib $-1 $-1 $-1 $482 1 990663530 70 457572353 14 #
face $777 $778 $779 $10 $-1 $780 forward single #
cone-surface $-1 20 0 0 0 0 1 15 0 0 1 I I 0 1 15 forward I I I I #
coedge $-1 $781 $782 $483 $658 reversed $783 $-1 #
edge $784 $662 -1.5707963267948966 $785 1.5707963267948966 $483 $786 forward 7 unknown #
coedge $-1 $484 $774 $781 $787 reversed $660 $-1 #
loop $-1 $-1 $659 $752 #
attrib_edge_convexity-kcp-attrib $-1 $788 $-1 $485 1 #
vertex $-1 $787 $789 #
straight-curve $-1 15 15 20 1 0 0 I I #
convexity-sys-attrib $-1 $-1 $486 $305 #
point $-1 20 15 20 #
coedge $-1 $495 $490 $631 $755 forward $496 $-1 #
attrib_edge_convexity-kcp-attrib $-1 $790 $-1 $491 1 #
vertex $-1 $634 $791 #
straight-curve $-1 -15 15 20 1 0 0 I I #
coedge $-1 $792 $492 $793 $794 forward $307 $-1 #
coedge $-1 $492 $792 $795 $796 forward $307 $-1 #
coedge $-1 $797 $798 $492 $673 reversed $799 $-1 #
edge $800 $801 -40 $802 40 $672 $803 forward 7 unknown #
coedge $-1 $632 $493 $495 $679 forward $676 $-1 #
coedge $-1 $493 $632 $636 $761 forward $676 $-1 #
loop $-1 $804 $632 $805 #
vertex $-1 $761 $806 #
ellipse-curve $-1 -20 0 -20 0 0 1 15 0 0 1 I I #
edge $-1 $497 5 $756 25 $674 $807 forward 7 unknown #
point $-1 -20 15 -20 #
straight-curve $-1 -60 20 0 0 0 -1 I I #
point $-1 -60 -20 -20 #
straight-curve $-1 -60 0 -20 0 1 0 I I #
point $-1 -60 20 -20 #
coedge $-1 $540 $708 $542 $710 forward $518 $-1 #
coedge $-1 $530 $519 $520 $690 reversed $345 $-1 #
coedge $-1 $519 $530 $533 $704 reversed $345 $-1 #
coedge $-1 $702 $521 $519 $689 forward $691 $-1 #
edge $-1 $692 -40 $808 0 $519 $809 forward 7 unknown #
edge $-1 $537 -60 $692 -40 $686 $726 forward 7 unknown #
loop $-1 $-1 $702 $810 #
vertex $-1 $522 $811 #
coedge $-1 $812 $523 $526 $698 forward $695 $-1 #
coedge $-1 $523 $812 $539 $707 forward $695 $-1 #
loop $-1 $-1 $693 $711 #
vertex $-1 $525 $813 #
straight-curve $-1 0 20 -20 1 0 0 I I #
edge $-1 $528 -40 $814 0 $693 $815 forward 7 unknown #
face $-1 $810 $527 $42 $-1 $816 reversed single #
point $-1 40 20 -20 #
straight-curve $-1 60 -20 0 0 0 -1 I I #
coedge $-1 $543 $688 $532 $703 reversed $691 $-1 #
edge $-1 $362 1.5707963267948966 $808 3.1415926535897931 $532 $817 forward 7 unknown #
edge $-1 $808 40 $535 60 $687 $574 forward 7 unknown #
point $-1 60 -20 20 #
point $-1 60 -20 -20 #
edge $-1 $709 -20 $696 20 $539 $818 forward 7 unknown #
coedge $-1 $685 $540 $812 $819 forward $518 $-1 #
vertex $-1 $541 $820 #
edge $-1 $814 0 $362 1.5707963267948966 $685 $817 forward 7 unknown #
face $-1 $699 $695 $42 $-1 $217 reversed single #
face $-1 $568 $720 $30 $-1 $129 reversed single #
coedge $-1 $550 $549 $721 $821 reversed $216 $-1 #
coedge $-1 $554 $719 $549 $715 forward $720 $-1 #
edge $-1 $727 -60 $559 -40.000000000000014 $549 $697 forward 7 unknown #
edge $-1 $572 -20 $717 20 $551 $822 forward 7 unknown #
vertex $-1 $553 $823 #
straight-curve $-1 -60 0 -20 0 1 0 I I #
coedge $-1 $714 $554 $557 $570 forward $720 $-1 #
loop $-1 $-1 $554 $712 #
coedge $-1 $557 $556 $713 $821 forward $558 $-1 #
face $-1 $-1 $558 $30 $-1 $133 reversed single #
point $-1 -40.000000000000014 20 -20 #
vertex $-1 $561 $824 #
straight-curve $-1 0 20 20 -1 0 0 I I #
straight-curve $-1 0 -20 -20 -1 0 0 I I #
vertex $-1 $715 $825 #
point $-1 -60 -20 20 #
coedge $-1 $587 $582 $578 $730 reversed $575 $-1 #
edge $-1 $731 -25 $584 -5 $578 $826 forward 7 unknown #
vertex $-1 $590 $827 #
straight-curve $-1 -40 -15 -20 0 0 1 I I #
point $-1 -40 -15 20 #
ellipse-curve $-1 -20 0 -20 0 0 1 15 0 0 1 I I #
point $-1 -20 -15 -20 #
ellipse-curve $-1 -40 0 -20 0 0 1 15 0 0 1 I I #
coedge $-1 $605 $600 $596 $738 reversed $593 $-1 #
edge $-1 $739 1.5707963267948966 $602 4.7123889803846897 $596 $828 forward 7 unknown #
vertex $-1 $608 $829 #
straight-curve $-1 20 15 -20 0 0 1 I I #
point $-1 20 15 20 #
straight-curve $-1 15 -15 -20 1 0 0 I I #
point $-1 20 -15 -20 #
straight-curve $-1 15 15 -20 -1 0 0 I I #
straight-curve $-1 0 5 -122.66499161421601 -1 0 0 I I #
point $-1 -5.857864376269049 -5 -122.66499161421601 #
straight-curve $-1 -5.857864376269049 -5 -162.66499161421601 0 0 1 I I #
point $-1 -5.857864376269049 -5 -132.66499161421601 #
convexity-sys-attrib $-1 $-1 $-1 $619 #
straight-curve $-1 0 5 -132.66499161421601 1 0 0 I I #
model_id-kcp-attrib $-1 $-1 $-1 $629 1 990663530 70 457572353 10 #
face $830 $831 $660 $10 $-1 $832 forward single #
loop $-1 $-1 $833 $629 #
plane-surface $-1 30 -15 0 0 1 0 0 0 1 forward_v I I I I #
edge $-1 $668 -20 $756 20 $666 $834 forward 7 unknown #
vertex $-1 $633 $835 #
ellipse-curve $-1 -40 0 -20 0 0 1 15 0 0 1 I I #
attrib_edge_convexity-kcp-attrib $-1 $836 $-1 $634 1 #
ellipse-curve $-1 -40 0 20 0 0 -1 15 0 0 1 I I #
edge $837 $644 5 $638 25 $642 $838 forward 7 unknown #
edge $-1 $637 -25 $677 -5 $675 $839 forward 7 unknown #
point $-1 -40 -15 -20 #
point $-1 -40 -15 20 #
straight-curve $-1 -20 -15 0 0 0 -1 I I #
convexity-sys-attrib $-1 $-1 $643 $471 #
point $-1 -20 -15 20 #
coedge $-1 $651 $645 $833 $840 forward $301 $-1 #
coedge $-1 $841 $833 $647 $769 reversed $753 $-1 #
edge $842 $785 -25 $771 -5 $647 $843 forward 7 unknown #
attrib_edge_convexity-kcp-attrib $-1 $844 $-1 $648 1 #
vertex $-1 $840 $845 #
coedge $-1 $846 $847 $651 $773 forward $848 $-1 #
edge $-1 $775 1.5707963267948966 $849 4.7123889803846897 $772 $850 forward 7 unknown #
coedge $-1 $659 $652 $847 $851 reversed $660 $-1 #
vertex $-1 $851 $852 #
straight-curve $-1 20 15 0 0 0 1 I I #
model_id-kcp-attrib $-1 $-1 $-1 $655 1 990663530 70 457572353 15 #
face $853 $854 $855 $10 $-1 $856 forward single #
loop $-1 $-1 $857 $655 #
cone-surface $-1 -40 0 0 0 0 1 20 0 0 1 I I 0 1 20 forward I I I I #
coedge $-1 $858 $657 $659 $787 forward $783 $-1 #
coedge $-1 $657 $858 $841 $859 reversed $783 $-1 #
loop $-1 $-1 $781 $831 #
attrib_edge_convexity-kcp-attrib $-1 $860 $-1 $658 1 #
vertex $-1 $658 $861 #
ellipse-curve $-1 40 0 20 0 0 -1 15 0 0 1 I I #
edge $-1 $662 -20 $862 20 $781 $863 forward 7 unknown #
convexity-sys-attrib $-1 $-1 $661 $485 #
point $-1 40 15 20 #
convexity-sys-attrib $-1 $-1 $667 $491 #
point $-1 -40 15 20 #
coedge $-1 $671 $670 $864 $865 forward $307 $-1 #
coedge $-1 $866 $867 $670 $794 reversed $855 $-1 #
edge $868 $802 -1.5707963267948966 $869 1.5707963267948966 $670 $870 forward 7 unknown #
coedge $-1 $857 $871 $671 $796 reversed $779 $-1 #
edge $872 $873 1.5707963267948966 $801 4.7123889803846897 $671 $874 forward 7 unknown #
coedge $-1 $875 $672 $871 $876 reversed $799 $-1 #
coedge $-1 $672 $875 $866 $877 forward $799 $-1 #
loop $-1 $-1 $797 $854 #
attrib_edge_convexity-kcp-attrib $-1 $878 $-1 $673 1 #
vertex $-1 $673 $879 #
vertex $-1 $794 $880 #
straight-curve $-1 0 -20 20 1 0 0 I I #
loop $-1 $848 $881 $805 #
face $882 $482 $676 $10 $-1 $883 reversed single #
point $-1 -20 -15 -20 #
straight-curve $-1 -15 15 -20 -1 0 0 I I #
vertex $-1 $704 $884 #
straight-curve $-1 40 -20 20 0 0 1 I I #
face $-1 $-1 $691 $42 $-1 $816 reversed single #
point $-1 40 -20 -20 #
coedge $-1 $694 $693 $708 $819 reversed $695 $-1 #
point $-1 60 20 -20 #
vertex $-1 $710 $885 #
straight-curve $-1 40 20 20 0 0 1 I I #
cone-surface $-1 40 0 20 0 0 1 0 20 0 1 I I 0 1 20 forward I I I I #
ellipse-curve $-1 40 0 20 0 0 -1 0 20 0 1 I I #
straight-curve $-1 60 20 0 0 0 -1 I I #
edge $-1 $709 -60 $814 -40 $812 $725 forward 7 unknown #
point $-1 60 20 20 #
edge $-1 $724 -20 $727 20 $713 $886 forward 7 unknown #
straight-curve $-1 -60 -20 0 0 0 -1 I I #
point $-1 -60 -20 -20 #
point $-1 -60 20 20 #
point $-1 -60 20 -20 #
straight-curve $-1 -15 -15 -20 1 0 0 I I #
point $-1 -40 -15 -20 #
ellipse-curve $-1 20 0 -20 0 0 1 15 0 0 1 I I #
point $-1 20 15 -20 #
model_id-kcp-attrib $-1 $-1 $-1 $752 1 990663530 70 457572353 11 #
face $887 $805 $783 $10 $-1 $888 reversed single #
plane-surface $-1 30 15 0 0 -1 0 0 0 -1 forward_v I I I I #
coedge $-1 $768 $889 $767 $840 reversed $753 $-1 #
straight-curve $-1 -40 15 0 0 0 -1 I I #
point $-1 -40 15 -20 #
convexity-sys-attrib $-1 $-1 $758 $634 #
attrib_edge_convexity-kcp-attrib $-1 $890 $-1 $760 1 #
straight-curve $-1 -15 -15 20 -1 0 0 I I #
straight-curve $-1 -15 -15 -20 1 0 0 I I #
edge $-1 $771 -20 $849 20 $767 $891 forward 7 unknown #
coedge $-1 $889 $768 $782 $859 forward $753 $-1 #
attrib_edge_convexity-kcp-attrib $-1 $892 $-1 $769 1 #
straight-curve $-1 15 -15 20 -1 0 0 I I #
convexity-sys-attrib $-1 $-1 $770 $648 #
point $-1 20 -15 20 #
coedge $-1 $893 $772 $889 $894 forward $848 $-1 #
coedge $-1 $772 $893 $774 $851 forward $848 $-1 #
loop $-1 $-1 $847 $805 #
vertex $-1 $773 $895 #
ellipse-curve $-1 20 0 -20 0 0 1 15 0 0 1 I I #
edge $-1 $862 -25 $775 -5 $847 $896 forward 7 unknown #
point $-1 20 15 -20 #
model_id-kcp-attrib $-1 $-1 $-1 $778 1 990663530 70 457572353 16 #
face $897 $898 $799 $10 $-1 $899 reversed single #
loop $-1 $-1 $867 $778 #
cone-surface $-1 40 0 0 0 0 1 20 0 0 1 I I 0 1 20 forward I I I I #
coedge $-1 $900 $795 $901 $902 reversed $779 $-1 #
coedge $-1 $782 $781 $893 $903 reversed $783 $-1 #
edge $-1 $785 -20 $904 20 $782 $905 forward 7 unknown #
convexity-sys-attrib $-1 $-1 $784 $658 #
point $-1 40 -15 20 #
vertex $-1 $903 $906 #
straight-curve $-1 40 15 0 0 0 -1 I I #
coedge $-1 $907 $901 $792 $865 reversed $908 $-1 #
edge $909 $869 -40 $873 40 $864 $910 forward 7 unknown #
coedge $-1 $911 $793 $798 $877 reversed $855 $-1 #
coedge $-1 $793 $911 $907 $912 forward $855 $-1 #
attrib_edge_convexity-kcp-attrib $-1 $913 $-1 $794 1 #
vertex $-1 $865 $914 #
ellipse-curve $-1 40 0 20 0 0 1 20 0 0 1 I I #
coedge $-1 $795 $900 $797 $876 forward $779 $-1 #
attrib_edge_convexity-kcp-attrib $-1 $915 $-1 $796 1 #
vertex $-1 $865 $916 #
ellipse-curve $-1 -40 0 20 0 0 1 20 0 0 1 I I #
coedge $-1 $798 $797 $917 $918 reversed $799 $-1 #
edge $919 $920 -20 $801 20 $797 $921 reversed 7 unknown #
edge $922 $923 -20 $802 20 $798 $924 reversed 7 unknown #
convexity-sys-attrib $-1 $-1 $800 $673 #
point $-1 -40 -20 20 #
point $-1 40 -20 20 #
coedge $-1 $925 $926 $927 $928 forward $804 $-1 #
model_id-kcp-attrib $-1 $-1 $-1 $805 1 990663530 70 457572353 13 #
plane-surface $-1 0 0 -20 0 0 1 1 0 0 forward_v I I I I #
point $-1 40 -20 20 #
point $-1 40 20 20 #
straight-curve $-1 -60 20 0 0 0 -1 I I #
model_id-kcp-attrib $-1 $-1 $-1 $831 1 990663530 70 457572353 12 #
cone-surface $-1 40 0 0 0 0 1 15 0 0 1 I I 0 1 15 forward I I I I #
coedge $-1 $833 $841 $846 $894 reversed $753 $-1 #
convexity-sys-attrib $-1 $-1 $837 $760 #
straight-curve $-1 20 -15 0 0 0 -1 I I #
convexity-sys-attrib $-1 $-1 $842 $769 #
coedge $-1 $847 $846 $858 $903 forward $848 $-1 #
edge $-1 $849 5 $904 25 $846 $929 forward 7 unknown #
point $-1 20 -15 -20 #
straight-curve $-1 15 15 -20 -1 0 0 I I #
model_id-kcp-attrib $-1 $-1 $-1 $854 1 990663530 70 457572353 17 #
face $930 $-1 $908 $10 $-1 $931 reversed single #
plane-surface $-1 0 -20 0 0 1 0 0 0 1 forward_v I I I I #
coedge $-1 $871 $857 $926 $932 reversed $779 $-1 #
coedge $-1 $864 $927 $857 $902 forward $908 $-1 #
edge $-1 $933 -20 $873 20 $901 $934 reversed 7 unknown #
edge $-1 $904 -1.5707963267948966 $862 1.5707963267948966 $893 $935 forward 7 unknown #
vertex $-1 $894 $936 #
straight-curve $-1 40 -15 0 0 0 -1 I I #
point $-1 40 15 -20 #
coedge $-1 $927 $864 $867 $912 reversed $908 $-1 #
loop $-1 $-1 $907 $898 #
attrib_edge_convexity-kcp-attrib $-1 $937 $-1 $865 1 #
straight-curve $-1 0 20 20 -1 0 0 I I #
coedge $-1 $867 $866 $925 $938 reversed $855 $-1 #
edge $-1 $939 -20 $869 20 $907 $940 reversed 7 unknown #
convexity-sys-attrib $-1 $-1 $868 $794 #
point $-1 40 20 20 #
convexity-sys-attrib $-1 $-1 $872 $796 #
point $-1 -40 20 20 #
coedge $-1 $926 $925 $875 $918 forward $804 $-1 #
edge $941 $923 -40 $920 40 $875 $942 forward 7 unknown #
attrib_edge_convexity-kcp-attrib $-1 $943 $-1 $876 3 #
vertex $-1 $932 $944 #
straight-curve $-1 -40 -20 0 0 0 -1 I I #
attrib_edge_convexity-kcp-attrib $-1 $945 $-1 $877 3 #
vertex $-1 $877 $946 #
straight-curve $-1 40 -20 0 0 0 -1 I I #
coedge $-1 $917 $881 $911 $938 forward $804 $-1 #
coedge $-1 $881 $917 $900 $932 forward $804 $-1 #
coedge $-1 $901 $907 $881 $928 reversed $908 $-1 #
edge $947 $933 -40 $939 40 $927 $948 forward 7 unknown #
straight-curve $-1 15 -15 -20 1 0 0 I I #
model_id-kcp-attrib $-1 $-1 $-1 $898 1 990663530 70 457572353 18 #
plane-surface $-1 0 20 0 0 -1 0 0 0 -1 forward_v I I I I #
edge $-1 $920 1.5707963267948966 $933 4.7123889803846897 $926 $949 forward 7 unknown #
vertex $-1 $928 $950 #
straight-curve $-1 -40 20 0 0 0 -1 I I #
ellipse-curve $-1 40 0 -20 0 0 1 15 0 0 1 I I #
point $-1 40 -15 -20 #
convexity-sys-attrib $-1 $-1 $909 $865 #
edge $-1 $939 -1.5707963267948966 $923 1.5707963267948966 $925 $951 forward 7 unknown #
vertex $-1 $938 $952 #
straight-curve $-1 40 20 0 0 0 -1 I I #
model_id-kcp-attrib $-1 $953 $-1 $918 1 990663530 70 457572353 21 #
straight-curve $-1 0 -20 -20 -1 0 0 I I #
convexity-sys-attrib $-1 $-1 $919 $876 #
point $-1 -40 -20 -20 #
convexity-sys-attrib $-1 $-1 $922 $877 #
point $-1 40 -20 -20 #
model_id-kcp-attrib $-1 $-1 $-1 $928 1 990663530 70 457572353 20 #
straight-curve $-1 0 20 -20 1 0 0 I I #
ellipse-curve $-1 -40 0 -20 0 0 -1 20 0 0 1 I I #
point $-1 -40 20 -20 #
ellipse-curve $-1 40 0 -20 0 0 -1 20 0 0 1 I I #
point $-1 40 20 -20 #
attrib_edge_convexity-kcp-attrib $-1 $954 $941 $918 1 #
convexity-sys-attrib $-1 $-1 $953 $918 #
End-of-ACIS-data 