600 0 1 0           
110 GICL Pro/E ACIS Translator - Source: f:/data5/repository/PTC/V20/NC_Training_Rel20/exercise_1/part_3.prt - 6 0 13 ACIS 6.0.3 NT 24 Thu Apr 04 13:14:10 2002 
1 9.9999999999999995e-007 1e-010 
body $-1 $1 $-1 $2 #
lump $-1 $-1 $3 $0 #
transform $-1 1 0 0 0 1 0 0 0 1 0 0 0 25.399999999999999 no_rotate no_reflect no_shear #
shell $-1 $-1 $-1 $4 $-1 $1 #
face $-1 $5 $6 $3 $-1 $7 reversed single #
face $-1 $8 $9 $3 $-1 $10 forward single #
loop $-1 $-1 $11 $4 #
plane-surface $-1 0 0.19999999999999998 0 0 -1 0 1 0 0 forward_v I I I I #
face $-1 $12 $13 $3 $-1 $14 forward single #
loop $-1 $-1 $15 $5 #
cone-surface $-1 1.0809999999999997 0.099999999999999992 0.39019994874423058 0 1 0 0.33742185973194705 0 0.19755376122725249 1 I I 0 1 0.39100000000000007 forward I I I I #
coedge $-1 $16 $17 $18 $19 forward $6 $-1 #
face $-1 $20 $21 $3 $-1 $22 reversed single #
loop $-1 $-1 $23 $8 #
plane-surface $-1 0.70921092986597367 0.099999999999999992 1.2938768549857409 0.70556243193471313 0 0.70864776486091685 0.70864776486091685 0 -0.70556243193471313 forward_v I I I I #
coedge $-1 $24 $18 $25 $26 forward $9 $-1 #
coedge $-1 $27 $11 $28 $29 reversed $6 $-1 #
coedge $-1 $11 $27 $30 $31 forward $6 $-1 #
coedge $-1 $15 $32 $11 $19 reversed $9 $-1 #
edge $-1 $33 0 $34 2.0364886963256739 $11 $35 forward 7 unknown #
face $-1 $36 $37 $3 $-1 $38 forward single #
loop $-1 $-1 $39 $12 #
plane-surface $-1 0 0.099999999999999992 1 1 0 0 0 0 1 forward_v I I I I #
coedge $-1 $40 $30 $41 $42 forward $13 $-1 #
coedge $-1 $32 $15 $43 $44 forward $9 $-1 #
coedge $-1 $30 $40 $15 $26 reversed $13 $-1 #
edge $-1 $33 0 $45 0.19999999999999998 $25 $46 forward 7 unknown #
coedge $-1 $17 $16 $39 $47 forward $6 $-1 #
coedge $-1 $48 $49 $16 $29 forward $37 $-1 #
edge $-1 $50 0 $34 1.1059999999999999 $16 $51 forward 7 unknown #
coedge $-1 $23 $25 $17 $31 reversed $13 $-1 #
edge $-1 $52 0 $33 2.0015894074122071 $17 $53 forward 7 unknown #
coedge $-1 $18 $24 $48 $54 reversed $9 $-1 #
vertex $-1 $31 $55 #
vertex $-1 $29 $56 #
ellipse-curve $-1 1.0809999999999997 0.19999999999999998 0.39019994874423042 0 1 0 0.33742185973194783 0 0.19755376122725149 1 I I #
face $-1 $-1 $57 $3 $-1 $58 forward single #
loop $-1 $-1 $59 $20 #
plane-surface $-1 1 0.099999999999999992 0 0 0 -1 1 0 0 forward_v I I I I #
coedge $-1 $60 $41 $27 $47 reversed $21 $-1 #
coedge $-1 $25 $23 $61 $62 forward $13 $-1 #
coedge $-1 $39 $63 $23 $42 reversed $21 $-1 #
edge $-1 $52 0 $64 0.19999999999999998 $41 $65 forward 7 unknown #
coedge $-1 $61 $66 $24 $44 reversed $57 $-1 #
edge $-1 $45 0 $67 2.0364886963256739 $43 $68 forward 7 unknown #
vertex $-1 $62 $69 #
straight-curve $-1 1.4184218597319473 0.19999999999999998 0.58775370997148213 0 -1 0 I I #
edge $-1 $50 0 $52 2 $27 $70 forward 7 unknown #
coedge $-1 $59 $28 $32 $54 forward $37 $-1 #
coedge $-1 $28 $59 $60 $71 forward $37 $-1 #
vertex $-1 $47 $72 #
straight-curve $-1 0 0.19999999999999998 0 1 0 0 I I #
vertex $-1 $31 $73 #
straight-curve $-1 0 0.19999999999999998 2 0.70864776486091685 0 -0.70556243193471324 I I #
edge $-1 $34 0 $67 0.20000000000000004 $48 $74 forward 7 unknown #
point $-1 1.4184218597319476 0.19999999999999998 0.58775370997148191 #
point $-1 1.1059999999999999 0.20000000000000001 2.2204460492503131e-016 #
loop $-1 $-1 $75 $36 #
plane-surface $-1 0 0 0 0 -1 0 1 0 0 forward_v I I I I #
coedge $-1 $49 $48 $66 $76 reversed $37 $-1 #
coedge $-1 $63 $39 $49 $71 reversed $21 $-1 #
coedge $-1 $75 $43 $40 $62 reversed $57 $-1 #
edge $-1 $64 0 $45 2.0015894074122071 $61 $77 forward 7 unknown #
coedge $-1 $41 $60 $75 $78 forward $21 $-1 #
vertex $-1 $62 $79 #
straight-curve $-1 0 0.19999999999999998 2 0 -1 0 I I #
coedge $-1 $43 $75 $59 $76 forward $57 $-1 #
vertex $-1 $44 $80 #
ellipse-curve $-1 1.0809999999999997 0 0.39019994874423042 0 1 0 0.33742185973194783 0 0.19755376122725149 1 I I #
point $-1 1.4184218597319476 0 0.58775370997148191 #
straight-curve $-1 0 0.19999999999999998 0 0 0 1 I I #
edge $-1 $81 0 $50 0.19999999999999998 $60 $82 forward 7 unknown #
point $-1 0 0.19999999999999998 0 #
point $-1 0 0.19999999999999998 2 #
straight-curve $-1 1.1059999999999999 0.20000000000000001 0 0 -1 0 I I #
coedge $-1 $66 $61 $63 $78 reversed $57 $-1 #
edge $-1 $81 0 $67 1.1059999999999999 $66 $83 forward 7 unknown #
straight-curve $-1 0 0 2 0.70864776486091685 0 -0.70556243193471324 I I #
edge $-1 $81 0 $64 2 $75 $84 forward 7 unknown #
point $-1 0 0 2 #
point $-1 1.1059999999999999 -2.7755575615628914e-017 2.2204460492503131e-016 #
vertex $-1 $76 $85 #
straight-curve $-1 0 0 0 0 1 0 I I #
straight-curve $-1 0 0 0 1 0 0 I I #
straight-curve $-1 0 0 0 0 0 1 I I #
point $-1 0 0 0 #
End-of-ACIS-data 