700 0 2 0           
24 FBMach with ACIS - 7.0.3 13 ACIS 7.0.3 NT 24 Wed May 15 10:15:19 2002 
1 9.9999999999999995e-007 1e-010 
body $2 -1 $-1 $3 $-1 $4 #
bdycol-kcp $-1 -1 1 2 $5 $6 #
model_id-kcp-attrib $-1 -1 $-1 $-1 $0 1 1021472118 1021472118 -2064515071 1 #
lump $-1 -1 $-1 $-1 $7 $0 #
transform $-1 -1 1 0 0 0 1 0 0 0 1 0 0 0 1 rotate no_reflect no_shear #
body $8 -1 $-1 $9 $-1 $10 #
body $11 -1 $-1 $12 $-1 $13 #
shell $-1 -1 $-1 $-1 $-1 $14 $-1 $3 #
rgb_color-st-attrib $-1 -1 $15 $-1 $5 0.5 1 1 #
lump $-1 -1 $-1 $-1 $16 $5 #
transform $-1 -1 1 0 0 0 1 0 0 0 1 18.694399999999998 2.5399999999999996 25.399999999999999 1 no_rotate no_reflect no_shear #
model_id-kcp-attrib $-1 -1 $-1 $-1 $6 1 1021472118 1021472118 -2063859710 1 #
lump $-1 -1 $-1 $-1 $17 $6 #
transform $-1 -1 1 0 0 0 1 0 0 0 1 18.694399999999998 2.5399999999999996 25.399999999999999 1 no_rotate no_reflect no_shear #
face $18 -1 $-1 $19 $20 $7 $-1 $21 reversed single #
model_id-kcp-attrib $-1 -1 $-1 $8 $5 1 1021472118 1021472118 -2072707069 1 #
shell $-1 -1 $-1 $-1 $-1 $22 $-1 $9 #
shell $-1 -1 $-1 $-1 $-1 $23 $-1 $12 #
model_id-kcp-attrib $-1 -1 $-1 $-1 $14 1 1021472118 1021472118 -2064515071 2 #
face $24 -1 $-1 $25 $26 $7 $-1 $27 forward single #
loop $-1 -1 $-1 $-1 $28 $14 #
plane-surface $-1 -1 $-1 0 5.0799999999999992 0 0 -1 0 25.399999999999999 0 0 forward_v I I I I #
face $-1 -1 $-1 $29 $30 $16 $-1 $31 reversed single #
face $-1 -1 $-1 $32 $33 $17 $-1 $34 forward single #
model_id-kcp-attrib $-1 -1 $-1 $-1 $19 1 1021472118 1021472118 -2064515071 3 #
face $35 -1 $-1 $36 $37 $7 $-1 $38 forward single #
loop $-1 -1 $-1 $-1 $39 $19 #
cone-surface $-1 -1 $-1 27.457399999999993 2.5399999999999996 9.9110786981034558 0 1 0 8.5705152371914544 0 5.0178655351722128 1 I I 0 1 9.9314000000000018 forward I I I I #
coedge $-1 -1 $-1 $40 $41 $42 $43 forward $20 $-1 #
face $-1 -1 $-1 $44 $45 $16 $-1 $31 reversed single #
loop $-1 -1 $-1 $-1 $46 $22 #
cone-surface $-1 -1 $-1 8.7629999999999946 2.5399999999999996 -15.488921301896545 0 1 0 8.5705152371914757 0 5.0178655351721861 1 I I 0 1 9.9314000000000053 forward I I I I #
face $47 -1 $-1 $48 $49 $17 $-1 $50 reversed single #
loop $-1 -1 $-1 $-1 $51 $23 #
plane-surface $-1 -1 $-1 0 0 25.399999999999999 0 0 1 1 0 0 forward_v I I I I #
model_id-kcp-attrib $-1 -1 $-1 $-1 $25 1 1021472118 1021472118 -2064515071 4 #
face $52 -1 $-1 $53 $54 $7 $-1 $55 reversed single #
loop $-1 -1 $-1 $-1 $56 $25 #
plane-surface $-1 -1 $-1 18.013957618595729 2.5399999999999996 32.86447211663782 0.70556243193471313 0 0.70864776486091685 17.999653227467288 0 -17.921285771141712 forward_v I I I I #
coedge $-1 -1 $-1 $57 $42 $58 $59 forward $26 $-1 #
coedge $-1 -1 $-1 $60 $28 $61 $62 reversed $20 $-1 #
coedge $-1 -1 $-1 $28 $60 $63 $64 forward $20 $-1 #
coedge $-1 -1 $-1 $39 $65 $28 $43 reversed $26 $-1 #
edge $66 -1 $-1 $67 -7.2039262113345712e-017 $68 2.0364886963256739 $28 $69 forward @7 unknown #
face $-1 -1 $-1 $70 $71 $16 $-1 $72 reversed single #
loop $-1 -1 $-1 $-1 $73 $29 #
coedge $-1 -1 $-1 $74 $75 $76 $77 reversed $30 $-1 #
model_id-kcp-attrib $-1 -1 $-1 $-1 $32 1 1021472118 1021472118 -2063859710 4 #
face $78 -1 $-1 $79 $80 $17 $-1 $81 reversed single #
loop $-1 -1 $-1 $-1 $82 $32 #
plane-surface $-1 -1 $-1 0 0 -25.399999999999999 0 0 1 1 0 0 forward_v I I I I #
coedge $-1 -1 $-1 $83 $84 $85 $86 forward $33 $-1 #
model_id-kcp-attrib $-1 -1 $-1 $-1 $36 1 1021472118 1021472118 -2064515071 5 #
face $87 -1 $-1 $88 $89 $7 $-1 $90 forward single #
loop $-1 -1 $-1 $-1 $91 $36 #
plane-surface $-1 -1 $-1 0 2.5399999999999996 25.399999999999999 1 0 0 0 0 25.399999999999999 forward_v I I I I #
coedge $-1 -1 $-1 $92 $63 $93 $94 forward $37 $-1 #
coedge $-1 -1 $-1 $65 $39 $95 $96 forward $26 $-1 #
coedge $-1 -1 $-1 $63 $92 $39 $59 reversed $37 $-1 #
edge $97 -1 $-1 $67 0 $98 0.19999999999999998 $58 $99 forward @7 unknown #
coedge $-1 -1 $-1 $41 $40 $91 $100 forward $20 $-1 #
coedge $-1 -1 $-1 $101 $102 $40 $62 forward $89 $-1 #
edge $103 -1 $-1 $104 0 $68 1.1059999999999999 $40 $105 forward @7 unknown #
coedge $-1 -1 $-1 $56 $58 $41 $64 reversed $37 $-1 #
edge $106 -1 $-1 $107 0 $67 2.0015894074122067 $41 $108 forward @7 unknown #
coedge $-1 -1 $-1 $42 $57 $101 $109 reversed $26 $-1 #
attrib_edge_convexity-kcp-attrib $-1 -1 $110 $-1 $43 1 #
vertex $-1 -1 $-1 $64 $111 #
vertex $-1 -1 $-1 $62 $112 #
ellipse-curve $-1 -1 $-1 27.457399999999993 5.0799999999999992 9.9110786981034522 0 1 0 8.5705152371914739 0 5.0178655351721879 1 I I #
face $-1 -1 $-1 $113 $114 $16 $-1 $115 reversed single #
loop $-1 -1 $-1 $-1 $116 $44 #
plane-surface $-1 -1 $-1 17.333515237191467 2.5399999999999996 -10.471055766724358 0.70556243193471313 0 0.70864776486091685 0 1 0 forward_v I I I I #
coedge $-1 -1 $-1 $117 $118 $119 $120 reversed $45 $-1 #
coedge $-1 -1 $-1 $121 $46 $122 $123 reversed $30 $-1 #
coedge $-1 -1 $-1 $46 $121 $118 $124 forward $30 $-1 #
coedge $-1 -1 $-1 $125 $126 $46 $77 forward $127 $-1 #
edge $-1 -1 $-1 $128 -2.0364886963256699 $129 -0.52967463387613289 $76 $130 forward @7 unknown #
model_id-kcp-attrib $-1 -1 $-1 $-1 $48 1 1021472118 1021472118 -2063859710 5 #
face $131 -1 $-1 $132 $133 $17 $-1 $134 reversed single #
loop $-1 -1 $-1 $-1 $135 $48 #
plane-surface $-1 -1 $-1 0 -2.5400000000000005 0 0 1 0 0 0 1 forward_v I I I I #
coedge $-1 -1 $-1 $136 $137 $138 $139 forward $49 $-1 #
coedge $-1 -1 $-1 $140 $51 $141 $142 forward $33 $-1 #
coedge $-1 -1 $-1 $51 $140 $143 $144 forward $33 $-1 #
coedge $-1 -1 $-1 $145 $146 $51 $86 reversed $147 $-1 #
edge $-1 -1 $-1 $148 -2.5400000000000005 $149 2.5400000000000005 $85 $150 forward @7 unknown #
model_id-kcp-attrib $-1 -1 $-1 $-1 $53 1 1021472118 1021472118 -2064515071 6 #
face $151 -1 $-1 $-1 $152 $7 $-1 $153 forward single #
loop $-1 -1 $-1 $-1 $154 $53 #
plane-surface $-1 -1 $-1 25.399999999999999 2.5399999999999996 0 0 0 -1 25.399999999999999 0 0 forward_v I I I I #
coedge $-1 -1 $-1 $155 $93 $60 $100 reversed $54 $-1 #
coedge $-1 -1 $-1 $58 $56 $156 $157 forward $37 $-1 #
coedge $-1 -1 $-1 $91 $158 $56 $94 reversed $54 $-1 #
edge $159 -1 $-1 $107 0 $160 0.19999999999999998 $93 $161 forward @7 unknown #
coedge $-1 -1 $-1 $156 $162 $57 $96 reversed $152 $-1 #
edge $-1 -1 $-1 $98 -7.2039262113345712e-017 $163 2.0364886963256739 $95 $164 forward @7 unknown #
attrib_edge_convexity-kcp-attrib $-1 -1 $165 $-1 $59 1 #
vertex $-1 -1 $-1 $157 $166 #
straight-curve $-1 -1 $-1 36.027915237191458 5.0799999999999992 14.928944233275645 0 -25.399999999999999 0 I I #
edge $167 -1 $-1 $104 0 $107 2 $60 $168 forward @7 unknown #
coedge $-1 -1 $-1 $154 $61 $65 $109 forward $89 $-1 #
coedge $-1 -1 $-1 $61 $154 $155 $169 forward $89 $-1 #
attrib_edge_convexity-kcp-attrib $-1 -1 $170 $-1 $62 1 #
vertex $-1 -1 $-1 $100 $171 #
straight-curve $-1 -1 $-1 0 5.0799999999999992 0 25.399999999999999 0 0 I I #
attrib_edge_convexity-kcp-attrib $-1 -1 $172 $-1 $64 1 #
vertex $-1 -1 $-1 $64 $173 #
straight-curve $-1 -1 $-1 0 5.0799999999999992 50.799999999999997 17.999653227467288 0 -17.921285771141715 I I #
edge $174 -1 $-1 $68 0 $163 0.20000000000000004 $101 $175 forward @7 unknown #
convexity-sys-attrib $-1 -1 $-1 $66 $43 #
point $-1 -1 $-1 36.027915237191465 5.0799999999999992 14.92894423327564 #
point $-1 -1 $-1 28.092399999999994 5.0800000000000001 5.6399329650957949e-015 #
face $-1 -1 $-1 $176 $177 $16 $-1 $178 reversed single #
loop $-1 -1 $-1 $-1 $179 $70 #
plane-surface $-1 -1 $-1 18.694399999999998 0 0 -1 0 0 0 0 1 forward_v I I I I #
coedge $-1 -1 $-1 $180 $181 $182 $183 reversed $71 $-1 #
coedge $-1 -1 $-1 $184 $73 $181 $185 reversed $45 $-1 #
coedge $-1 -1 $-1 $73 $184 $186 $124 reversed $45 $-1 #
coedge $-1 -1 $-1 $187 $182 $73 $120 forward $188 $-1 #
edge $-1 -1 $-1 $189 -2.1611778634003714e-016 $190 0.52967463387613289 $119 $191 forward @7 unknown #
coedge $-1 -1 $-1 $75 $74 $192 $193 reversed $30 $-1 #
coedge $-1 -1 $-1 $194 $195 $74 $123 forward $196 $-1 #
edge $-1 -1 $-1 $197 -5.0800000000000001 $128 8.8817841970012523e-016 $122 $198 forward @7 unknown #
edge $-1 -1 $-1 $190 -5.0800000000000001 $129 8.8817841970012523e-016 $186 $199 forward @7 unknown #
coedge $-1 -1 $-1 $126 $76 $200 $201 forward $127 $-1 #
coedge $-1 -1 $-1 $76 $125 $194 $202 reversed $127 $-1 #
loop $-1 -1 $-1 $-1 $76 $203 #
vertex $-1 -1 $-1 $202 $204 #
vertex $-1 -1 $-1 $201 $205 #
ellipse-curve $-1 -1 $-1 8.7629999999999946 2.5400000000000005 -15.488921301896545 0 -1 0 8.5705152371914757 0 5.0178655351721861 1 I I #
model_id-kcp-attrib $-1 -1 $-1 $-1 $79 1 1021472118 1021472118 -2063859710 3 #
face $206 -1 $-1 $207 $208 $17 $-1 $209 reversed single #
loop $-1 -1 $-1 $-1 $210 $79 #
plane-surface $-1 -1 $-1 -18.694399999999998 0 0 1 0 0 0 0 -1 forward_v I I I I #
coedge $-1 -1 $-1 $211 $143 $212 $213 forward $80 $-1 #
coedge $-1 -1 $-1 $214 $82 $211 $215 forward $49 $-1 #
coedge $-1 -1 $-1 $82 $214 $216 $217 forward $49 $-1 #
coedge $-1 -1 $-1 $146 $145 $82 $139 reversed $147 $-1 #
edge $-1 -1 $-1 $218 -2.5400000000000005 $219 2.5400000000000005 $138 $220 forward @7 unknown #
coedge $-1 -1 $-1 $84 $83 $221 $222 forward $33 $-1 #
coedge $-1 -1 $-1 $223 $224 $83 $142 reversed $208 $-1 #
edge $-1 -1 $-1 $149 -18.694399999999998 $225 18.694399999999998 $141 $226 forward @7 unknown #
coedge $-1 -1 $-1 $135 $227 $84 $144 reversed $80 $-1 #
edge $-1 -1 $-1 $228 -18.694399999999998 $148 18.694399999999998 $143 $229 forward @7 unknown #
coedge $-1 -1 $-1 $138 $85 $227 $230 forward $147 $-1 #
coedge $-1 -1 $-1 $85 $138 $223 $231 reversed $147 $-1 #
loop $-1 -1 $-1 $-1 $145 $207 #
vertex $-1 -1 $-1 $86 $232 #
vertex $-1 -1 $-1 $86 $233 #
straight-curve $-1 -1 $-1 18.694399999999998 0 25.399999999999999 0 1 0 I I #
model_id-kcp-attrib $-1 -1 $-1 $-1 $88 1 1021472118 1021472118 -2064515071 7 #
loop $-1 -1 $-1 $-1 $234 $88 #
plane-surface $-1 -1 $-1 0 0 0 0 -1 0 25.399999999999999 0 0 forward_v I I I I #
coedge $-1 -1 $-1 $102 $101 $162 $235 reversed $89 $-1 #
coedge $-1 -1 $-1 $158 $91 $102 $169 reversed $54 $-1 #
coedge $-1 -1 $-1 $234 $95 $92 $157 reversed $152 $-1 #
edge $236 -1 $-1 $160 0 $98 2.0015894074122067 $156 $237 forward @7 unknown #
coedge $-1 -1 $-1 $93 $155 $234 $238 forward $54 $-1 #
attrib_edge_convexity-kcp-attrib $-1 -1 $239 $-1 $94 1 #
vertex $-1 -1 $-1 $157 $240 #
straight-curve $-1 -1 $-1 0 5.0799999999999992 50.799999999999997 0 -25.399999999999999 0 I I #
coedge $-1 -1 $-1 $95 $234 $154 $235 forward $152 $-1 #
vertex $-1 -1 $-1 $96 $241 #
ellipse-curve $-1 -1 $-1 27.457399999999993 0 9.9110786981034522 0 1 0 8.5705152371914739 0 5.0178655351721879 1 I I #
convexity-sys-attrib $-1 -1 $-1 $97 $59 #
point $-1 -1 $-1 36.027915237191465 0 14.92894423327564 #
attrib_edge_convexity-kcp-attrib $-1 -1 $242 $-1 $100 1 #
straight-curve $-1 -1 $-1 0 5.0799999999999992 0 0 0 25.399999999999999 I I #
edge $243 -1 $-1 $244 0 $104 0.19999999999999998 $155 $245 forward @7 unknown #
convexity-sys-attrib $-1 -1 $-1 $103 $62 #
point $-1 -1 $-1 0 5.0799999999999992 0 #
convexity-sys-attrib $-1 -1 $-1 $106 $64 #
point $-1 -1 $-1 0 5.0799999999999992 50.799999999999997 #
attrib_edge_convexity-kcp-attrib $-1 -1 $246 $-1 $109 1 #
straight-curve $-1 -1 $-1 28.092399999999994 5.0800000000000001 0 0 -25.399999999999999 0 I I #
face $-1 -1 $-1 $247 $248 $16 $-1 $249 reversed single #
loop $-1 -1 $-1 $-1 $250 $113 #
plane-surface $-1 -1 $-1 0 2.5400000000000005 0 0 -1 0 0 0 -1 forward_v I I I I #
coedge $-1 -1 $-1 $251 $200 $75 $124 reversed $114 $-1 #
coedge $-1 -1 $-1 $252 $116 $253 $254 reversed $71 $-1 #
coedge $-1 -1 $-1 $116 $252 $117 $185 forward $71 $-1 #
coedge $-1 -1 $-1 $119 $255 $116 $183 forward $188 $-1 #
edge $-1 -1 $-1 $256 -41.004700747413843 $189 9.8356702008562085 $182 $257 forward @7 unknown #
coedge $-1 -1 $-1 $118 $117 $250 $258 reversed $45 $-1 #
edge $-1 -1 $-1 $259 -8.8817841970012523e-016 $189 5.0800000000000001 $117 $260 forward @7 unknown #
coedge $-1 -1 $-1 $261 $262 $179 $124 forward $263 $-1 #
coedge $-1 -1 $-1 $255 $119 $262 $264 reversed $188 $-1 #
loop $-1 -1 $-1 $-1 $119 $265 #
vertex $-1 -1 $-1 $120 $266 #
vertex $-1 -1 $-1 $267 $268 #
ellipse-curve $-1 -1 $-1 8.7629999999999946 -2.5400000000000005 -15.488921301896545 0 1 0 8.5705152371914757 0 5.0178655351721861 1 I I #
coedge $-1 -1 $-1 $269 $270 $121 $193 forward $248 $-1 #
edge $-1 -1 $-1 $190 0.52967463387613289 $197 2.0364886963256699 $192 $191 forward @7 unknown #
coedge $-1 -1 $-1 $271 $122 $126 $202 forward $196 $-1 #
coedge $-1 -1 $-1 $122 $271 $269 $272 forward $196 $-1 #
loop $-1 -1 $-1 $-1 $122 $273 #
vertex $-1 -1 $-1 $193 $274 #
straight-curve $-1 -1 $-1 9.3980000000000334 2.5399999999999996 -25.399999999999999 0 1 0 I I #
straight-curve $-1 -1 $-1 18.694399999999998 2.5399999999999996 -15.488921301896545 0 1 0 I I #
coedge $-1 -1 $-1 $179 $275 $125 $201 reversed $114 $-1 #
edge $-1 -1 $-1 $129 15.488921301896545 $276 25.399999999999999 $200 $277 forward @7 unknown #
edge $-1 -1 $-1 $128 9.3980000000000334 $276 18.694399999999998 $126 $278 forward @7 unknown #
face $-1 -1 $-1 $279 $127 $16 $-1 $178 reversed single #
point $-1 -1 $-1 9.3980000000000334 2.5400000000000005 -25.399999999999999 #
point $-1 -1 $-1 18.694399999999998 2.5400000000000005 -15.488921301896545 #
model_id-kcp-attrib $-1 -1 $-1 $-1 $132 1 1021472118 1021472118 -2063859710 2 #
face $-1 -1 $-1 $-1 $147 $17 $-1 $280 reversed single #
loop $-1 -1 $-1 $-1 $223 $132 #
plane-surface $-1 -1 $-1 0 2.5400000000000005 0 0 -1 0 0 0 -1 forward_v I I I I #
coedge $-1 -1 $-1 $281 $221 $224 $282 forward $133 $-1 #
coedge $-1 -1 $-1 $227 $135 $136 $215 reversed $80 $-1 #
coedge $-1 -1 $-1 $221 $281 $135 $213 reversed $133 $-1 #
edge $-1 -1 $-1 $228 -25.399999999999999 $283 25.399999999999999 $212 $284 forward @7 unknown #
coedge $-1 -1 $-1 $137 $136 $281 $285 forward $49 $-1 #
edge $-1 -1 $-1 $219 -18.694399999999998 $283 18.694399999999998 $211 $286 forward @7 unknown #
coedge $-1 -1 $-1 $224 $223 $137 $217 reversed $208 $-1 #
edge $-1 -1 $-1 $287 -18.694399999999998 $218 18.694399999999998 $216 $288 forward @7 unknown #
vertex $-1 -1 $-1 $139 $289 #
vertex $-1 -1 $-1 $230 $290 #
straight-curve $-1 -1 $-1 18.694399999999998 0 -25.399999999999999 0 -1 0 I I #
coedge $-1 -1 $-1 $210 $212 $140 $222 reversed $133 $-1 #
edge $-1 -1 $-1 $225 -2.5400000000000005 $228 2.5400000000000005 $221 $291 forward @7 unknown #
coedge $-1 -1 $-1 $216 $141 $146 $231 forward $208 $-1 #
coedge $-1 -1 $-1 $141 $216 $210 $282 reversed $208 $-1 #
vertex $-1 -1 $-1 $142 $292 #
straight-curve $-1 -1 $-1 0 2.5400000000000005 25.399999999999999 -1 0 0 I I #
coedge $-1 -1 $-1 $143 $211 $145 $230 reversed $80 $-1 #
vertex $-1 -1 $-1 $222 $293 #
straight-curve $-1 -1 $-1 0 -2.5400000000000005 25.399999999999999 1 0 0 I I #
edge $-1 -1 $-1 $148 -25.399999999999999 $219 25.399999999999999 $145 $294 forward @7 unknown #
edge $-1 -1 $-1 $149 -25.399999999999999 $218 25.399999999999999 $146 $295 forward @7 unknown #
point $-1 -1 $-1 18.694399999999998 -2.5400000000000005 25.399999999999999 #
point $-1 -1 $-1 18.694399999999998 2.5400000000000005 25.399999999999999 #
coedge $-1 -1 $-1 $162 $156 $158 $238 reversed $152 $-1 #
edge $296 -1 $-1 $244 0 $163 1.1059999999999999 $162 $297 forward @7 unknown #
attrib_edge_convexity-kcp-attrib $-1 -1 $298 $-1 $157 1 #
straight-curve $-1 -1 $-1 0 0 50.799999999999997 17.999653227467288 0 -17.921285771141715 I I #
edge $299 -1 $-1 $244 0 $160 2 $234 $300 forward @7 unknown #
convexity-sys-attrib $-1 -1 $-1 $159 $94 #
point $-1 -1 $-1 0 0 50.799999999999997 #
point $-1 -1 $-1 28.092399999999994 -7.0499162063697436e-016 5.6399329650957949e-015 #
convexity-sys-attrib $-1 -1 $-1 $167 $100 #
attrib_edge_convexity-kcp-attrib $-1 -1 $301 $-1 $169 1 #
vertex $-1 -1 $-1 $235 $302 #
straight-curve $-1 -1 $-1 0 0 0 0 25.399999999999999 0 I I #
convexity-sys-attrib $-1 -1 $-1 $174 $109 #
face $-1 -1 $-1 $273 $303 $16 $-1 $304 forward single #
loop $-1 -1 $-1 $-1 $192 $176 #
plane-surface $-1 -1 $-1 0 -2.5400000000000005 0 0 1 0 0 0 1 forward_v I I I I #
coedge $-1 -1 $-1 $305 $306 $184 $258 forward $177 $-1 #
coedge $-1 -1 $-1 $275 $179 $270 $267 forward $114 $-1 #
coedge $-1 -1 $-1 $181 $180 $305 $307 reversed $71 $-1 #
coedge $-1 -1 $-1 $308 $309 $180 $254 forward $303 $-1 #
edge $-1 -1 $-1 $310 -2.5400000000000005 $256 2.5400000000000005 $253 $311 forward @7 unknown #
coedge $-1 -1 $-1 $182 $187 $308 $312 reversed $188 $-1 #
vertex $-1 -1 $-1 $254 $313 #
straight-curve $-1 -1 $-1 10.363489533445589 -2.5400000000000005 -3.531376380100463 0.70864776486091685 0 -0.70556243193471313 I I #
edge $-1 -1 $-1 $129 -0.52967463387613289 $259 2.1611778634003714e-016 $250 $130 forward @7 unknown #
vertex $-1 -1 $-1 $258 $314 #
straight-curve $-1 -1 $-1 17.333515237191467 2.5399999999999996 -10.471055766724358 0 -1 0 I I #
coedge $-1 -1 $-1 $315 $186 $306 $316 reversed $263 $-1 #
coedge $-1 -1 $-1 $186 $315 $187 $264 forward $263 $-1 #
loop $-1 -1 $-1 $-1 $186 $279 #
edge $-1 -1 $-1 $317 -25.399999999999999 $190 15.488921301896545 $262 $318 forward @7 unknown #
face $-1 -1 $-1 $203 $188 $16 $-1 $249 reversed single #
point $-1 -1 $-1 17.333515237191467 -2.5400000000000005 -10.471055766724358 #
edge $-1 -1 $-1 $190 15.488921301896545 $319 25.399999999999999 $251 $318 forward @7 unknown #
point $-1 -1 $-1 18.694399999999998 -2.5400000000000005 -15.488921301896545 #
coedge $-1 -1 $-1 $270 $192 $195 $272 reversed $248 $-1 #
coedge $-1 -1 $-1 $192 $269 $251 $267 reversed $248 $-1 #
coedge $-1 -1 $-1 $195 $194 $275 $320 forward $196 $-1 #
edge $-1 -1 $-1 $319 -18.694399999999998 $197 -9.3980000000000334 $269 $321 forward @7 unknown #
face $-1 -1 $-1 $265 $196 $16 $-1 $322 reversed single #
point $-1 -1 $-1 9.3980000000000334 -2.5400000000000005 -25.399999999999999 #
coedge $-1 -1 $-1 $200 $251 $271 $320 reversed $114 $-1 #
vertex $-1 -1 $-1 $320 $323 #
straight-curve $-1 -1 $-1 18.694399999999998 2.5400000000000005 0 0 0 -1 I I #
straight-curve $-1 -1 $-1 0 2.5400000000000005 -25.399999999999999 1 0 0 I I #
face $-1 -1 $-1 $-1 $263 $16 $-1 $115 reversed single #
plane-surface $-1 -1 $-1 18.694399999999998 0 0 -1 0 0 0 0 1 forward_v I I I I #
coedge $-1 -1 $-1 $212 $210 $214 $285 reversed $133 $-1 #
edge $-1 -1 $-1 $225 -25.399999999999999 $287 25.399999999999999 $224 $324 forward @7 unknown #
vertex $-1 -1 $-1 $285 $325 #
straight-curve $-1 -1 $-1 -18.694399999999998 -2.5400000000000005 0 0 0 -1 I I #
edge $-1 -1 $-1 $283 -2.5400000000000005 $287 2.5400000000000005 $281 $326 forward @7 unknown #
straight-curve $-1 -1 $-1 0 -2.5400000000000005 -25.399999999999999 -1 0 0 I I #
vertex $-1 -1 $-1 $217 $327 #
straight-curve $-1 -1 $-1 0 2.5400000000000005 -25.399999999999999 1 0 0 I I #
point $-1 -1 $-1 18.694399999999998 2.5400000000000005 -25.399999999999999 #
point $-1 -1 $-1 18.694399999999998 -2.5400000000000005 -25.399999999999999 #
straight-curve $-1 -1 $-1 -18.694399999999998 0 25.399999999999999 0 -1 0 I I #
point $-1 -1 $-1 -18.694399999999998 2.5400000000000005 25.399999999999999 #
point $-1 -1 $-1 -18.694399999999998 -2.5400000000000005 25.399999999999999 #
straight-curve $-1 -1 $-1 18.694399999999998 -2.5400000000000005 0 0 0 -1 I I #
straight-curve $-1 -1 $-1 18.694399999999998 2.5400000000000005 0 0 0 -1 I I #
model_id-kcp-attrib $-1 -1 $328 $-1 $235 1 1021472118 1021472118 -2064515071 10 #
straight-curve $-1 -1 $-1 0 0 0 25.399999999999999 0 0 I I #
convexity-sys-attrib $-1 -1 $-1 $236 $157 #
model_id-kcp-attrib $-1 -1 $329 $-1 $238 1 1021472118 1021472118 -2064515071 9 #
straight-curve $-1 -1 $-1 0 0 0 0 0 25.399999999999999 I I #
convexity-sys-attrib $-1 -1 $-1 $243 $169 #
point $-1 -1 $-1 0 0 0 #
loop $-1 -1 $-1 $-1 $330 $247 #
plane-surface $-1 -1 $-1 0 0 25.399999999999999 0 0 1 1 0 0 forward_v I I I I #
coedge $-1 -1 $-1 $331 $250 $252 $307 forward $177 $-1 #
coedge $-1 -1 $-1 $250 $331 $261 $316 forward $177 $-1 #
edge $-1 -1 $-1 $259 -9.8356702008562085 $310 41.004700747413843 $305 $332 forward @7 unknown #
coedge $-1 -1 $-1 $330 $253 $255 $312 forward $303 $-1 #
coedge $-1 -1 $-1 $253 $330 $331 $333 forward $303 $-1 #
vertex $-1 -1 $-1 $333 $334 #
straight-curve $-1 -1 $-1 -18.694399999999998 0 25.399999999999999 0 -1 0 I I #
edge $-1 -1 $-1 $256 -18.694399999999998 $317 18.694399999999998 $255 $335 forward @7 unknown #
point $-1 -1 $-1 -18.694399999999998 -2.5400000000000005 25.399999999999999 #
point $-1 -1 $-1 17.333515237191467 2.5400000000000005 -10.471055766724358 #
coedge $-1 -1 $-1 $262 $261 $330 $336 reversed $263 $-1 #
edge $-1 -1 $-1 $337 -25.399999999999999 $129 15.488921301896545 $261 $277 forward @7 unknown #
vertex $-1 -1 $-1 $336 $338 #
straight-curve $-1 -1 $-1 18.694399999999998 -2.5400000000000005 0 0 0 -1 I I #
vertex $-1 -1 $-1 $267 $339 #
edge $-1 -1 $-1 $276 -2.5400000000000005 $319 2.5400000000000005 $275 $340 forward @7 unknown #
straight-curve $-1 -1 $-1 0 -2.5400000000000005 -25.399999999999999 -1 0 0 I I #
plane-surface $-1 -1 $-1 0 0 -25.399999999999999 0 0 1 1 0 0 forward_v I I I I #
point $-1 -1 $-1 18.694399999999998 2.5400000000000005 -25.399999999999999 #
straight-curve $-1 -1 $-1 -18.694399999999998 2.5400000000000005 0 0 0 -1 I I #
point $-1 -1 $-1 -18.694399999999998 -2.5400000000000005 -25.399999999999999 #
straight-curve $-1 -1 $-1 -18.694399999999998 0 -25.399999999999999 0 1 0 I I #
point $-1 -1 $-1 -18.694399999999998 2.5400000000000005 -25.399999999999999 #
attrib_edge_convexity-kcp-attrib $-1 -1 $341 $296 $235 1 #
attrib_edge_convexity-kcp-attrib $-1 -1 $342 $299 $238 1 #
coedge $-1 -1 $-1 $309 $308 $315 $336 forward $303 $-1 #
coedge $-1 -1 $-1 $306 $305 $309 $333 reversed $177 $-1 #
straight-curve $-1 -1 $-1 10.363489533445589 2.5400000000000005 -3.531376380100463 -0.70864776486091685 0 0.70556243193471313 I I #
edge $-1 -1 $-1 $337 -18.694399999999998 $310 18.694399999999998 $331 $343 forward @7 unknown #
point $-1 -1 $-1 -18.694399999999998 2.5400000000000005 25.399999999999999 #
straight-curve $-1 -1 $-1 0 -2.5400000000000005 25.399999999999999 1 0 0 I I #
edge $-1 -1 $-1 $317 -2.5400000000000005 $337 2.5400000000000005 $315 $344 forward @7 unknown #
vertex $-1 -1 $-1 $336 $345 #
point $-1 -1 $-1 18.694399999999998 -2.5400000000000005 25.399999999999999 #
point $-1 -1 $-1 18.694399999999998 -2.5400000000000005 -25.399999999999999 #
straight-curve $-1 -1 $-1 18.694399999999998 0 -25.399999999999999 0 -1 0 I I #
convexity-sys-attrib $-1 -1 $-1 $328 $235 #
convexity-sys-attrib $-1 -1 $-1 $329 $238 #
straight-curve $-1 -1 $-1 0 2.5400000000000005 25.399999999999999 -1 0 0 I I #
straight-curve $-1 -1 $-1 18.694399999999998 0 25.399999999999999 0 1 0 I I #
point $-1 -1 $-1 18.694399999999998 2.5400000000000005 25.399999999999999 #
End-of-ACIS-data 