600 0 1 0           
109 GICL ACIS Healer - Source: /gicl/data5/repository/ICEM-CDC/Fixture_Models/LocatingKey6/LocatingKey6.sat - 6 0 18 ACIS 6.0.3 Solaris 24 Sat Apr 13 23:06:39 2002 
1 9.999999999999999547e-07 1.000000000000000036e-10 
body $-1 $1 $-1 $2 #
lump $-1 $-1 $3 $0 #
transform $-1 1 0 0 0 1 0 0 0 1 0 0 0 1 no_rotate no_reflect no_shear #
shell $-1 $-1 $-1 $4 $-1 $1 #
face $5 $6 $7 $3 $-1 $8 forward single #
face_name-twe-attrib $-1 $-1 $-1 $4 1 #
face $9 $10 $11 $3 $-1 $12 reversed single #
loop $13 $14 $15 $4 #
plane-surface $16 0 1.875 0 0 1 0 0 0 1 forward_v I I I I #
face_name-twe-attrib $-1 $-1 $-1 $6 2 #
face $17 $18 $19 $3 $-1 $20 forward single #
loop $21 $22 $23 $6 #
plane-surface $24 0 0 0 0 1 0 0 0 1 forward_v I I I I #
loop_type-twe-attrib $-1 $-1 $-1 $7 0 #
loop $25 $-1 $26 $4 #
coedge $-1 $15 $15 $27 $28 forward $7 $-1 #
surf-twe-attrib $-1 $-1 $-1 $8 4 #
face_name-twe-attrib $-1 $-1 $-1 $10 3 #
face $29 $30 $31 $3 $-1 $32 reversed single #
loop $33 $34 $35 $10 #
cone-surface $36 0 -0.75 0 0 1 0 0.5625 0 0 1 I I 0 1 0.5625 forward I I I I #
loop_type-twe-attrib $-1 $-1 $-1 $11 0 #
loop $37 $-1 $38 $6 #
coedge $-1 $23 $23 $39 $40 forward $11 $-1 #
surf-twe-attrib $-1 $-1 $-1 $12 6 #
loop_type-twe-attrib $-1 $-1 $-1 $14 1 #
coedge $-1 $26 $26 $41 $42 reversed $14 $-1 #
coedge $-1 $27 $27 $15 $28 reversed $43 $-1 #
edge $44 $45 -3.141592653589793116 $45 3.141592653589793116 $27 $46 reversed 7 unknown #
face_name-twe-attrib $-1 $-1 $-1 $18 4 #
face $47 $48 $49 $3 $-1 $50 forward single #
loop $51 $-1 $52 $18 #
plane-surface $53 0 -0.625 0 0 1 0 0 0 1 forward_v I I I I #
loop_type-twe-attrib $-1 $-1 $-1 $19 0 #
loop $54 $-1 $55 $10 #
coedge $-1 $56 $57 $58 $59 forward $19 $-1 #
surf-twe-attrib $-1 $-1 $-1 $20 10 #
loop_type-twe-attrib $-1 $-1 $-1 $22 1 #
coedge $-1 $60 $61 $62 $63 reversed $22 $-1 #
coedge $-1 $39 $39 $23 $40 reversed $64 $-1 #
edge $65 $66 -6.283185307179586232 $66 -1.224646587887371837e-16 $23 $67 reversed 7 unknown #
coedge $-1 $41 $41 $26 $42 forward $68 $-1 #
edge $69 $70 -3.141592653589793116 $70 3.141592653589793116 $41 $71 reversed 7 unknown #
loop $72 $64 $27 $48 #
edge_name-twe-attrib $-1 $-1 $-1 $28 6 8704 #
vertex $-1 $28 $73 #
ellipse-curve $-1 0 1.875 0 -0 -1 -0 0.59375 0 0 1 I I #
face_name-twe-attrib $-1 $-1 $-1 $30 5 #
face $74 $75 $43 $3 $-1 $76 forward single #
loop $77 $-1 $78 $30 #
plane-surface $79 0 0.375 0 0 1 0 0 0 1 forward_v I I I I #
loop_type-twe-attrib $-1 $-1 $-1 $31 0 #
coedge $-1 $58 $80 $81 $82 forward $31 $-1 #
surf-twe-attrib $-1 $-1 $-1 $32 18 #
loop_type-twe-attrib $-1 $-1 $-1 $34 1 #
coedge $-1 $83 $84 $85 $86 forward $34 $-1 #
coedge $-1 $62 $35 $87 $88 reversed $19 $-1 #
coedge $-1 $35 $62 $89 $90 forward $19 $-1 #
coedge $-1 $91 $52 $35 $59 reversed $31 $-1 #
edge $92 $93 2.629553884553666343 $94 3.653631422625919889 $58 $95 forward 7 unknown #
coedge $-1 $85 $38 $96 $97 reversed $22 $-1 #
coedge $-1 $38 $85 $98 $99 forward $22 $-1 #
coedge $-1 $57 $56 $38 $63 forward $19 $-1 #
edge $100 $101 2.629553884553666343 $102 3.653631422625919889 $62 $103 forward 7 unknown #
loop $104 $-1 $39 $48 #
edge_name-twe-attrib $-1 $-1 $-1 $40 1 8704 #
vertex $-1 $40 $105 #
ellipse-curve $-1 0 0 0 0 1 0 0.59375 0 0 1 I I #
loop $106 $-1 $41 $75 #
edge_name-twe-attrib $-1 $-1 $-1 $42 8 8704 #
vertex $-1 $42 $107 #
ellipse-curve $-1 0 1.875 0 -0 -1 -0 0.125 0 0 1 I I #
loop_type-twe-attrib $-1 $-1 $-1 $43 0 #
point $-1 -0.59375 1.875 0 #
face_name-twe-attrib $-1 $-1 $-1 $48 6 #
face $108 $109 $110 $3 $-1 $111 reversed single #
cone-surface $112 0 -0.75 0 0 1 0 0.59375 0 0 1 I I 0 1 0.59375 forward I I I I #
loop_type-twe-attrib $-1 $-1 $-1 $49 0 #
coedge $-1 $78 $78 $113 $114 forward $49 $-1 #
surf-twe-attrib $-1 $-1 $-1 $50 30 #
coedge $-1 $52 $91 $115 $116 reversed $31 $-1 #
coedge $-1 $117 $87 $52 $82 reversed $118 $-1 #
edge $119 $120 -0.8466079202990404173 $94 0.1341079202990403396 $81 $121 reversed 7 unknown #
coedge $-1 $115 $55 $117 $122 forward $34 $-1 #
coedge $-1 $55 $115 $123 $124 reversed $34 $-1 #
coedge $-1 $61 $60 $55 $86 reversed $22 $-1 #
edge $125 $126 -0.512038769036126773 $127 0.5120387690361266619 $55 $128 forward 7 unknown #
coedge $-1 $81 $96 $56 $88 forward $118 $-1 #
edge $129 $101 -0.75 $94 -0.125 $87 $130 reversed 7 unknown #
coedge $-1 $98 $131 $57 $90 reversed $132 $-1 #
edge $133 $102 -0.75 $93 -0.125 $89 $134 forward 7 unknown #
coedge $-1 $80 $58 $131 $135 reversed $31 $-1 #
edge_name-twe-attrib $-1 $-1 $-1 $59 4 8704 #
vertex $-1 $90 $136 #
vertex $-1 $88 $137 #
ellipse-curve $-1 0 -0.625 0 0 1 0 0.5625 0 0 1 I I #
coedge $-1 $87 $117 $60 $97 forward $118 $-1 #
edge $138 $127 -0.8466079202990404173 $101 0.1341079202990403396 $96 $139 reversed 7 unknown #
coedge $-1 $123 $89 $61 $99 reversed $132 $-1 #
edge $140 $126 -0.8466079202990404173 $102 0.1341079202990403396 $98 $141 forward 7 unknown #
edge_name-twe-attrib $-1 $-1 $-1 $63 2 4608 #
vertex $-1 $88 $142 #
vertex $-1 $90 $143 #
ellipse-curve $-1 0 0 0 -0 -1 -0 0.5625 0 0 1 I I #
loop_type-twe-attrib $-1 $-1 $-1 $64 1 #
point $-1 0.59375 0 -7.271339115581270285e-17 #
loop_type-twe-attrib $-1 $-1 $-1 $68 1 #
point $-1 -0.125 1.875 0 #
face_name-twe-attrib $-1 $-1 $-1 $75 7 #
face $144 $145 $132 $3 $-1 $146 reversed single #
loop $147 $68 $113 $75 #
cone-surface $148 0 -0.75 0 0 1 0 0.125 0 0 1 I I 0 1 0.125 forward I I I I #
surf-twe-attrib $-1 $-1 $-1 $76 48 #
coedge $-1 $113 $113 $78 $114 reversed $110 $-1 #
edge $149 $150 -3.141592653589793116 $150 3.141592653589793116 $113 $151 reversed 7 unknown #
coedge $-1 $84 $83 $80 $116 forward $34 $-1 #
edge $152 $120 -0.5120387690361266619 $153 0.5120387690361266619 $80 $154 forward 7 unknown #
coedge $-1 $96 $81 $83 $122 reversed $118 $-1 #
loop $155 $-1 $87 $145 #
edge_name-twe-attrib $-1 $-1 $-1 $82 14 8704 #
vertex $-1 $122 $156 #
straight-curve $-1 -0.3562500000000000111 -0.625 0.2756000000000000116 1 -0 0 I I #
edge $157 $127 -0.75 $120 -0.125 $117 $158 forward 7 unknown #
coedge $-1 $131 $98 $84 $124 forward $132 $-1 #
edge $159 $126 -0.75 $153 -0.125 $123 $160 reversed 7 unknown #
edge_name-twe-attrib $-1 $-1 $-1 $86 3 4608 #
vertex $-1 $99 $161 #
vertex $-1 $122 $162 #
ellipse-curve $-1 0 0 0 -0 -1 -0 0.5625 0 0 1 I I #
edge_name-twe-attrib $-1 $-1 $-1 $88 13 8448 #
straight-curve $-1 -0.4903579202990403507 -0.75 0.2756000000000000116 0 1 0 I I #
coedge $-1 $89 $123 $91 $135 forward $132 $-1 #
loop $163 $-1 $123 $109 #
edge_name-twe-attrib $-1 $-1 $-1 $90 11 8448 #
straight-curve $-1 -0.4903579202990403507 -0.75 -0.2756000000000000116 -0 -1 -0 I I #
edge $164 $153 -0.8466079202990404173 $93 0.1341079202990403396 $131 $165 forward 7 unknown #
point $-1 -0.4903579202990403507 -0.625 -0.2756000000000000116 #
point $-1 -0.4903579202990403507 -0.625 0.2756000000000000116 #
edge_name-twe-attrib $-1 $-1 $-1 $97 16 4608 #
straight-curve $-1 -0.3562500000000000111 0 0.2756000000000000116 1 -0 0 I I #
edge_name-twe-attrib $-1 $-1 $-1 $99 12 4608 #
straight-curve $-1 -0.3562500000000000111 0 -0.2756000000000000116 -1 0 0 I I #
point $-1 -0.4903579202990403507 0 0.2756000000000000116 #
point $-1 -0.4903579202990403507 0 -0.2756000000000000116 #
face_name-twe-attrib $-1 $-1 $-1 $109 8 #
face $166 $-1 $118 $3 $-1 $167 reversed single #
plane-surface $168 -0.7125000000000000222 0 -0.2756000000000000116 0 0 1 1 0 0 forward_v I I I I #
loop_type-twe-attrib $-1 $-1 $-1 $110 0 #
surf-twe-attrib $-1 $-1 $-1 $111 76 #
edge_name-twe-attrib $-1 $-1 $-1 $114 7 4608 #
vertex $-1 $114 $169 #
ellipse-curve $-1 0 0.375 0 -0 -1 -0 0.125 0 0 1 I I #
edge_name-twe-attrib $-1 $-1 $-1 $116 5 8704 #
vertex $-1 $124 $170 #
ellipse-curve $-1 0 -0.625 0 0 1 0 0.5625 0 0 1 I I #
loop_type-twe-attrib $-1 $-1 $-1 $118 0 #
point $-1 0.4903579202990404062 -0.625 0.2756000000000000116 #
edge_name-twe-attrib $-1 $-1 $-1 $122 15 8448 #
straight-curve $-1 0.4903579202990403507 -0.75 0.2756000000000000116 -0 -1 -0 I I #
edge_name-twe-attrib $-1 $-1 $-1 $124 9 8448 #
straight-curve $-1 0.4903579202990403507 -0.75 -0.2756000000000000116 0 1 0 I I #
point $-1 0.4903579202990403507 0 -0.2756000000000000116 #
point $-1 0.4903579202990404062 0 0.2756000000000000116 #
loop_type-twe-attrib $-1 $-1 $-1 $132 0 #
edge_name-twe-attrib $-1 $-1 $-1 $135 10 8704 #
straight-curve $-1 -0.3562500000000000111 -0.625 -0.2756000000000000116 -1 0 0 I I #
face_name-twe-attrib $-1 $-1 $-1 $145 9 #
plane-surface $171 -0.7125000000000000222 -0.7249999999999999778 0.2756000000000000116 0 0 -1 -1 0 0 forward_v I I I I #
surf-twe-attrib $-1 $-1 $-1 $146 112 #
point $-1 -0.125 0.375 0 #
point $-1 0.4903579202990404062 -0.625 -0.2756000000000000116 #
surf-twe-attrib $-1 $-1 $-1 $167 150 #
End-of-ACIS-data 