104 190 0 0                             
body $-1 $1 $-1 $2 #
lump $-1 $-1 $3 $0 #
transform $-1 1 0 0 0 1 0 0 0 1 0 0 0 1 0 0 0 #
shell $-1 $-1 $-1 $4 $1 #
face $5 $6 $7 $3 $-1 $8 0 #
face_name-twe-attrib $-1 $-1 $-1 $4 1 #
face $9 $10 $11 $3 $-1 $12 1 #
loop $13 $14 $15 $4 #
plane-surface $16 0 1.875 0 0 1 0 0 0 1 0 #
face_name-twe-attrib $-1 $-1 $-1 $6 2 #
face $17 $18 $19 $3 $-1 $20 0 #
loop $21 $22 $23 $6 #
plane-surface $24 0 0 0 0 1 0 0 0 1 0 #
loop_type-twe-attrib $-1 $-1 $-1 $7 0 #
loop $25 $-1 $26 $4 #
coedge $-1 $15 $15 $27 $28 0 $7 $-1 #
surf-twe-attrib $-1 $-1 $-1 $8 4 #
face_name-twe-attrib $-1 $-1 $-1 $10 3 #
face $29 $30 $31 $3 $-1 $32 1 #
loop $33 $34 $35 $10 #
cone-surface $36 0 -0.75 0 0 1 0 0.5625 0 0 1 0 1 0 #
loop_type-twe-attrib $-1 $-1 $-1 $11 0 #
loop $37 $-1 $38 $6 #
coedge $-1 $23 $23 $39 $40 0 $11 $-1 #
surf-twe-attrib $-1 $-1 $-1 $12 6 #
loop_type-twe-attrib $-1 $-1 $-1 $14 1 #
coedge $-1 $26 $26 $41 $42 1 $14 $-1 #
coedge $-1 $27 $27 $15 $28 1 $43 $-1 #
edge $44 $45 $45 $27 $46 0 #
face_name-twe-attrib $-1 $-1 $-1 $18 4 #
face $47 $48 $49 $3 $-1 $50 0 #
loop $51 $-1 $52 $18 #
plane-surface $53 0 -0.625 0 0 1 0 0 0 1 0 #
loop_type-twe-attrib $-1 $-1 $-1 $19 0 #
loop $54 $-1 $55 $10 #
coedge $-1 $56 $57 $58 $59 0 $19 $-1 #
surf-twe-attrib $-1 $-1 $-1 $20 10 #
loop_type-twe-attrib $-1 $-1 $-1 $22 1 #
coedge $-1 $60 $61 $62 $63 1 $22 $-1 #
coedge $-1 $39 $39 $23 $40 1 $64 $-1 #
edge $65 $66 $66 $23 $67 0 #
coedge $-1 $41 $41 $26 $42 0 $68 $-1 #
edge $69 $70 $70 $41 $71 0 #
loop $72 $64 $27 $48 #
edge_name-twe-attrib $-1 $-1 $-1 $28 6 8704 #
vertex $-1 $28 $73 #
ellipse-curve $74 0 1.875 0 0 1 0 -0.59375 0 0 1 #
face_name-twe-attrib $-1 $-1 $-1 $30 5 #
face $75 $76 $43 $3 $-1 $77 0 #
loop $78 $-1 $79 $30 #
plane-surface $80 0 0.375 0 0 1 0 0 0 1 0 #
loop_type-twe-attrib $-1 $-1 $-1 $31 0 #
coedge $-1 $58 $81 $82 $83 0 $31 $-1 #
surf-twe-attrib $-1 $-1 $-1 $32 18 #
loop_type-twe-attrib $-1 $-1 $-1 $34 1 #
coedge $-1 $84 $85 $86 $87 0 $34 $-1 #
coedge $-1 $62 $35 $88 $89 1 $19 $-1 #
coedge $-1 $35 $62 $90 $91 0 $19 $-1 #
coedge $-1 $92 $52 $35 $59 1 $31 $-1 #
edge $93 $94 $95 $58 $96 0 #
coedge $-1 $86 $38 $97 $98 1 $22 $-1 #
coedge $-1 $38 $86 $99 $100 0 $22 $-1 #
coedge $-1 $57 $56 $38 $63 0 $19 $-1 #
edge $101 $102 $103 $62 $104 0 #
loop $105 $-1 $39 $48 #
edge_name-twe-attrib $-1 $-1 $-1 $40 1 8704 #
vertex $-1 $40 $106 #
ellipse-curve $107 0 0 0 0 -1 0 -0.59375 0 0 1 #
loop $108 $-1 $41 $76 #
edge_name-twe-attrib $-1 $-1 $-1 $42 8 8704 #
vertex $-1 $42 $109 #
ellipse-curve $110 0 1.875 0 0 1 0 -0.125 0 0 1 #
loop_type-twe-attrib $-1 $-1 $-1 $43 0 #
point $-1 -0.59375 1.875 0 #
cur-twe-attrib $-1 $-1 $-1 $46 28 #
face_name-twe-attrib $-1 $-1 $-1 $48 6 #
face $111 $112 $113 $3 $-1 $114 1 #
cone-surface $115 0 -0.75 0 0 1 0 0.59375 0 0 1 0 1 0 #
loop_type-twe-attrib $-1 $-1 $-1 $49 0 #
coedge $-1 $79 $79 $116 $117 0 $49 $-1 #
surf-twe-attrib $-1 $-1 $-1 $50 30 #
coedge $-1 $52 $92 $118 $119 1 $31 $-1 #
coedge $-1 $120 $88 $52 $83 1 $121 $-1 #
edge $122 $123 $95 $82 $124 0 #
coedge $-1 $118 $55 $120 $125 0 $34 $-1 #
coedge $-1 $55 $118 $126 $127 1 $34 $-1 #
coedge $-1 $61 $60 $55 $87 1 $22 $-1 #
edge $128 $129 $130 $55 $131 0 #
coedge $-1 $82 $97 $56 $89 0 $121 $-1 #
edge $132 $102 $95 $88 $133 0 #
coedge $-1 $99 $134 $57 $91 1 $135 $-1 #
edge $136 $103 $94 $90 $137 0 #
coedge $-1 $81 $58 $134 $138 1 $31 $-1 #
edge_name-twe-attrib $-1 $-1 $-1 $59 4 8704 #
vertex $-1 $91 $139 #
vertex $-1 $89 $140 #
ellipse-curve $141 0 -0.625 0 0 1 0 -0.490357920299041 0 0.2756 1 #
coedge $-1 $88 $120 $60 $98 0 $121 $-1 #
edge $142 $130 $102 $97 $143 0 #
coedge $-1 $126 $90 $61 $100 1 $135 $-1 #
edge $144 $129 $103 $99 $145 0 #
edge_name-twe-attrib $-1 $-1 $-1 $63 2 4608 #
vertex $-1 $89 $146 #
vertex $-1 $91 $147 #
ellipse-curve $148 0 0 0 0 -1 0 -0.490357760703924 0 -0.27560028395746 1 #
loop_type-twe-attrib $-1 $-1 $-1 $64 1 #
point $-1 0.59375 0 -7.27133911558127e-17 #
cur-twe-attrib $-1 $-1 $-1 $67 40 #
loop_type-twe-attrib $-1 $-1 $-1 $68 1 #
point $-1 -0.125 1.875 0 #
cur-twe-attrib $-1 $-1 $-1 $71 42 #
face_name-twe-attrib $-1 $-1 $-1 $76 7 #
face $149 $150 $135 $3 $-1 $151 1 #
loop $152 $68 $116 $76 #
cone-surface $153 0 -0.75 0 0 1 0 0.125 0 0 1 0 1 0 #
surf-twe-attrib $-1 $-1 $-1 $77 48 #
coedge $-1 $116 $116 $79 $117 1 $113 $-1 #
edge $154 $155 $155 $116 $156 0 #
coedge $-1 $85 $84 $81 $119 0 $34 $-1 #
edge $157 $123 $158 $81 $159 0 #
coedge $-1 $97 $82 $84 $125 1 $121 $-1 #
loop $160 $-1 $88 $150 #
edge_name-twe-attrib $-1 $-1 $-1 $83 14 8704 #
vertex $-1 $125 $161 #
straight-curve $162 -0.490357920299041 -0.625 0.2756 -1 0 2.830134322976e-16 #
edge $163 $130 $123 $120 $164 0 #
coedge $-1 $134 $99 $85 $127 0 $135 $-1 #
edge $165 $129 $158 $126 $166 0 #
edge_name-twe-attrib $-1 $-1 $-1 $87 3 4608 #
vertex $-1 $100 $167 #
vertex $-1 $125 $168 #
ellipse-curve $169 0 0 0 0 -1 0 0.490357601106426 0 0.275600567918775 1 #
edge_name-twe-attrib $-1 $-1 $-1 $89 13 8448 #
straight-curve $170 -0.490357920299041 -0.625 0.2756 -2.12744382483494e-06 -0.999999999997737 2.66453525909435e-16 #
coedge $-1 $90 $126 $92 $138 0 $135 $-1 #
loop $171 $-1 $126 $112 #
edge_name-twe-attrib $-1 $-1 $-1 $91 11 8448 #
straight-curve $172 -0.490357920299041 -0.625 -0.2756 -2.55352186329071e-07 -0.999999999999864 4.54331936339197e-07 #
edge $173 $158 $94 $134 $174 0 #
point $-1 -0.490357920299041 -0.625 -0.2756 #
point $-1 -0.490357920299041 -0.625 0.2756 #
cur-twe-attrib $-1 $175 $-1 $96 119 #
edge_name-twe-attrib $-1 $-1 $-1 $98 16 4608 #
straight-curve $176 -0.49035659064665 0 0.2756 -1 0 0 #
edge_name-twe-attrib $-1 $-1 $-1 $100 12 4608 #
straight-curve $177 -0.490357760703924 0 -0.27560028395746 -1 0 1.69808114645427e-16 #
point $-1 -0.49035659064665 0 0.2756 #
point $-1 -0.490357760703924 0 -0.27560028395746 #
cur-twe-attrib $-1 $-1 $-1 $104 63 #
face_name-twe-attrib $-1 $-1 $-1 $112 8 #
face $178 $-1 $121 $3 $-1 $179 1 #
plane-surface $180 -0.7125 0 -0.2756 0 0 1 1 0 0 0 #
loop_type-twe-attrib $-1 $-1 $-1 $113 0 #
surf-twe-attrib $-1 $-1 $-1 $114 76 #
edge_name-twe-attrib $-1 $-1 $-1 $117 7 4608 #
vertex $-1 $117 $181 #
ellipse-curve $182 0 0.375 0 0 1 0 -0.125 0 0 1 #
edge_name-twe-attrib $-1 $-1 $-1 $119 5 8704 #
vertex $-1 $127 $183 #
ellipse-curve $184 0 -0.625 0 0 1 0 0.490357920299041 0 -0.2756 1 #
loop_type-twe-attrib $-1 $-1 $-1 $121 0 #
point $-1 0.490357920299041 -0.625 0.2756 #
cur-twe-attrib $-1 $-1 $-1 $124 83 #
edge_name-twe-attrib $-1 $-1 $-1 $125 15 8448 #
straight-curve $185 0.490357920299041 -0.625 0.2756 2.12744382527903e-06 -0.999999999997737 -1.77635683939623e-16 #
edge_name-twe-attrib $-1 $-1 $-1 $127 9 8448 #
straight-curve $186 0.490357920299041 -0.625 -0.2756 2.55352185707346e-07 -0.999999999999864 4.54331936161561e-07 #
point $-1 0.490357760703924 0 -0.27560028395746 #
point $-1 0.49035659064665 0 0.2756 #
cur-twe-attrib $-1 $-1 $-1 $131 87 #
cur-twe-attrib $-1 $-1 $-1 $133 89 #
loop_type-twe-attrib $-1 $-1 $-1 $135 0 #
cur-twe-attrib $-1 $-1 $-1 $137 91 #
edge_name-twe-attrib $-1 $-1 $-1 $138 10 8704 #
straight-curve $187 -0.490357920299041 -0.625 -0.2756 -1 0 2.830134322976e-16 #
cur-twe-attrib $-1 $-1 $141 $96 59 #
cur-twe-attrib $-1 $-1 $-1 $143 98 #
cur-twe-attrib $-1 $-1 $-1 $145 100 #
face_name-twe-attrib $-1 $-1 $-1 $150 9 #
plane-surface $188 -0.7125 -0.725 0.2756 0 0 -1 -1 0 0 0 #
surf-twe-attrib $-1 $-1 $-1 $151 112 #
point $-1 -0.125 0.375 0 #
cur-twe-attrib $-1 $-1 $-1 $156 117 #
point $-1 0.490357920299041 -0.625 -0.2756 #
cur-twe-attrib $-1 $189 $-1 $159 119 #
cur-twe-attrib $-1 $-1 $-1 $164 125 #
cur-twe-attrib $-1 $-1 $-1 $166 127 #
cur-twe-attrib $-1 $-1 $-1 $174 138 #
surf-twe-attrib $-1 $-1 $-1 $179 150 #
cur-twe-attrib $-1 $-1 $184 $159 59 #
