600 0 2 0           
24 FBMach with ACIS - 6.0.3 13 ACIS 6.0.3 NT 24 Wed May 23 21:58:26 2001 
1 9.9999999999999995e-007 1e-010 
body $2 $3 $-1 $4 #
bdycol-kcp $-1 1 6 $5 $6 $7 $8 $9 $10 #
model_id-kcp-attrib $-1 $-1 $-1 $0 1 990669505 60 456916993 1 #
lump $-1 $-1 $11 $0 #
transform $-1 1 0 0 0 1 0 0 0 1 0 0 0 1 no_rotate no_reflect no_shear #
body $12 $13 $-1 $14 #
body $15 $16 $-1 $17 #
body $18 $19 $-1 $20 #
body $21 $22 $-1 $23 #
body $24 $25 $-1 $26 #
body $27 $28 $-1 $29 #
shell $-1 $-1 $-1 $30 $-1 $3 #
model_id-kcp-attrib $-1 $-1 $-1 $5 1 990669505 60 456916994 1 #
lump $-1 $-1 $31 $5 #
transform $-1 1 0 0 0 1 0 0 0 1 0 0.625 0 1 no_rotate no_reflect no_shear #
rgb_color-st-attrib $-1 $32 $-1 $6 0.5 1 1 #
lump $-1 $-1 $33 $6 #
transform $-1 1 0 0 0 -3.8285889215894375e-016 -1 0 1 -3.8285889215894375e-016 0 1.125 -7.1786042279801954e-016 1 rotate no_reflect no_shear #
rgb_color-st-attrib $-1 $34 $-1 $7 0.5 1 1 #
lump $-1 $-1 $35 $7 #
transform $-1 1 0 0 0 1 0 0 0 1 0 0.625 0 1 no_rotate no_reflect no_shear #
rgb_color-st-attrib $-1 $36 $-1 $8 1 0.5 1 #
lump $-1 $-1 $37 $8 #
transform $-1 1 0 0 0 1 0 0 0 1 0 0.625 0 1 no_rotate no_reflect no_shear #
rgb_color-st-attrib $-1 $38 $-1 $9 1 0.5 1 #
lump $-1 $-1 $39 $9 #
transform $-1 1 0 0 0 1 0 0 0 1 0 0.625 0 1 no_rotate no_reflect no_shear #
rgb_color-st-attrib $-1 $40 $-1 $10 1 0.5 1 #
lump $-1 $-1 $41 $10 #
transform $-1 1 0 0 0 1 0 0 0 1 0 0.625 0 1 no_rotate no_reflect no_shear #
face $42 $43 $44 $11 $-1 $45 forward single #
shell $-1 $-1 $-1 $46 $-1 $13 #
model_id-kcp-attrib $-1 $-1 $15 $6 1 990669505 80 458227715 1 #
shell $-1 $-1 $-1 $47 $-1 $16 #
model_id-kcp-attrib $-1 $-1 $18 $7 1 990669505 130 461504516 1 #
shell $-1 $-1 $-1 $48 $-1 $19 #
model_id-kcp-attrib $-1 $-1 $21 $8 1 990669505 270 453902341 1 #
shell $-1 $-1 $-1 $49 $-1 $22 #
model_id-kcp-attrib $-1 $-1 $24 $9 1 990669505 370 460455942 1 #
shell $-1 $-1 $-1 $50 $-1 $25 #
model_id-kcp-attrib $-1 $-1 $27 $10 1 990669505 771 453181447 1 #
shell $-1 $-1 $-1 $51 $-1 $28 #
model_id-kcp-attrib $-1 $52 $-1 $30 1 990669505 60 456916993 11 #
face $53 $54 $55 $11 $-1 $56 reversed single #
loop $57 $58 $59 $30 #
plane-surface $60 0 1.875 0 0 1 0 0 0 1 forward_v I I I I #
face $-1 $61 $62 $31 $-1 $63 forward single #
face $-1 $64 $65 $33 $-1 $66 forward single #
face $-1 $67 $68 $35 $-1 $69 reversed single #
face $-1 $70 $71 $37 $-1 $72 forward single #
face $-1 $73 $74 $39 $-1 $75 forward single #
face $-1 $76 $77 $41 $-1 $78 forward single #
model_id-kcp-attrib $-1 $79 $42 $30 1 990669505 60 456916993 2 #
model_id-kcp-attrib $-1 $80 $-1 $43 1 990669505 60 456916993 3 #
face $81 $82 $83 $11 $-1 $84 forward single #
loop $85 $86 $87 $43 #
plane-surface $88 0 0 0 0 1 0 0 0 1 forward_v I I I I #
loop_type-twe-attrib $-1 $-1 $-1 $44 0 #
loop $89 $-1 $90 $30 #
coedge $-1 $59 $59 $91 $92 forward $44 $-1 #
surf-twe-attrib $-1 $-1 $-1 $45 4 #
face $-1 $93 $94 $31 $-1 $95 reversed single #
loop $-1 $-1 $96 $46 #
plane-surface $-1 0 0 0.59375 0 0 1 1 0 0 forward_v I I I I #
face $-1 $97 $98 $33 $-1 $99 forward single #
loop $-1 $100 $101 $47 #
cone-surface $-1 0 0 0 0 0 1 0.125 0 0 1 I I 0 1 0.125 forward I I I I #
face $-1 $102 $103 $35 $-1 $69 reversed single #
loop $-1 $-1 $104 $48 #
cone-surface $-1 2.2260588839547353e-033 1.25 0 0 1 0 -0.59375 0 0 1 I I 0 1 0.59375 forward I I I I #
face $-1 $105 $106 $37 $-1 $107 forward single #
loop $-1 $-1 $108 $49 #
cone-surface $-1 2.2260588839547353e-033 1.25 0 0 1 0 -0.59375 0 0 1 I I 0 1 0.59375 forward I I I I #
face $-1 $109 $110 $39 $-1 $111 forward single #
loop $-1 $-1 $112 $50 #
cone-surface $-1 2.2260588839547353e-033 1.25 0 0 1 0 -0.59375 0 0 1 I I 0 1 0.59375 forward I I I I #
face $-1 $113 $114 $41 $-1 $115 forward single #
loop $-1 $-1 $116 $51 #
cone-surface $-1 2.2260588839547353e-033 -0.625 0 0 -1 0 -0.59375 0 0 1 I I 0 1 0.59375 forward I I I I #
face_name-twe-attrib $-1 $-1 $52 $30 1 #
face_name-twe-attrib $-1 $-1 $53 $43 2 #
model_id-kcp-attrib $-1 $117 $-1 $54 1 990669505 60 456916993 4 #
face $118 $119 $120 $11 $-1 $121 reversed single #
loop $122 $123 $124 $54 #
cone-surface $125 0 -0.75 0 0 1 0 0.5625 0 0 1 I I 0 1 0.5625 forward I I I I #
loop_type-twe-attrib $-1 $-1 $-1 $55 0 #
loop $126 $-1 $127 $43 #
coedge $-1 $87 $87 $128 $129 forward $55 $-1 #
surf-twe-attrib $-1 $-1 $-1 $56 6 #
loop_type-twe-attrib $-1 $-1 $-1 $58 1 #
coedge $-1 $90 $90 $130 $131 reversed $58 $-1 #
coedge $-1 $91 $91 $59 $92 reversed $132 $-1 #
edge $133 $134 0 $134 6.2831853071795862 $91 $135 forward 7 unknown #
face $136 $137 $138 $31 $-1 $139 reversed single #
loop $-1 $-1 $140 $61 #
plane-surface $-1 0 0 -0.59375 0 0 1 1 0 0 forward_v I I I I #
coedge $-1 $141 $142 $143 $144 forward $62 $-1 #
face $-1 $-1 $145 $33 $-1 $146 forward single #
loop $-1 $-1 $147 $64 #
plane-surface $-1 0 0 -0.75 0 0 -1 -1 0 0 forward_v I I I I #
loop $-1 $-1 $148 $47 #
coedge $-1 $101 $101 $147 $149 reversed $65 $-1 #
face $-1 $150 $151 $35 $-1 $69 reversed single #
loop $-1 $-1 $152 $67 #
coedge $-1 $153 $154 $155 $156 reversed $68 $-1 #
face $-1 $157 $158 $37 $-1 $159 forward single #
loop $-1 $-1 $160 $70 #
plane-surface $-1 0.52591225741562642 -0.625 -0.27559999999999985 0 1 0 0 0 1 forward_v I I I I #
coedge $-1 $161 $162 $160 $163 forward $71 $-1 #
face $-1 $164 $165 $39 $-1 $166 forward single #
loop $-1 $-1 $167 $73 #
plane-surface $-1 -0.52591225741562642 -0.625 0.27559999999999985 0 1 0 0 0 1 forward_v I I I I #
coedge $-1 $168 $169 $167 $170 forward $74 $-1 #
face $-1 $171 $172 $41 $-1 $173 forward single #
loop $-1 $-1 $174 $76 #
plane-surface $-1 0.52591225741562642 -0.625 -0.2755999999999999 9.9772379497065721e-033 0 -1 -1 0 -9.9772379497065721e-033 forward_v I I I I #
coedge $-1 $175 $176 $177 $178 forward $77 $-1 #
face_name-twe-attrib $-1 $-1 $81 $54 3 #
model_id-kcp-attrib $-1 $179 $-1 $82 1 990669505 60 456916993 5 #
face $180 $181 $182 $11 $-1 $183 forward single #
loop $184 $-1 $185 $82 #
plane-surface $186 0 -0.625 0 0 1 0 0 0 1 forward_v I I I I #
loop_type-twe-attrib $-1 $-1 $-1 $83 0 #
loop $187 $-1 $188 $54 #
coedge $-1 $189 $190 $191 $192 forward $83 $-1 #
surf-twe-attrib $-1 $-1 $-1 $84 10 #
loop_type-twe-attrib $-1 $-1 $-1 $86 1 #
coedge $-1 $193 $194 $195 $196 reversed $86 $-1 #
coedge $-1 $128 $128 $87 $129 reversed $197 $-1 #
edge $198 $199 -3.1415926535897931 $199 3.1415926535897931 $87 $200 forward 7 unknown #
coedge $-1 $130 $130 $90 $131 forward $201 $-1 #
edge $202 $203 0 $203 6.2831853071795862 $130 $204 forward 7 unknown #
loop $205 $197 $91 $181 #
attrib_edge_convexity-kcp-attrib $-1 $206 $-1 $92 1 #
vertex $-1 $92 $207 #
ellipse-curve $208 0 1.875 0 0 1 0 -0.59375 0 0 1 I I #
model_id-kcp-attrib $-1 $-1 $-1 $93 1 990669505 60 456916994 3 #
face $-1 $209 $210 $31 $-1 $211 reversed single #
loop $-1 $-1 $212 $93 #
plane-surface $-1 0 -1.25 0 0 1 0 0 0 1 forward_v I I I I #
coedge $-1 $213 $214 $215 $216 forward $94 $-1 #
coedge $-1 $217 $96 $218 $219 forward $62 $-1 #
coedge $-1 $96 $217 $220 $221 forward $62 $-1 #
coedge $-1 $222 $223 $96 $144 reversed $224 $-1 #
edge $-1 $225 -1.25 $226 1.25 $143 $227 forward 7 unknown #
loop $-1 $-1 $228 $97 #
plane-surface $-1 0 0 0.75 0 0 1 1 0 0 forward_v I I I I #
coedge $-1 $147 $147 $101 $149 forward $98 $-1 #
coedge $-1 $148 $148 $228 $229 reversed $100 $-1 #
edge $-1 $230 0 $230 6.2831853071795862 $147 $231 forward 7 unknown #
face $-1 $232 $233 $35 $-1 $69 reversed single #
loop $-1 $-1 $234 $102 #
coedge $-1 $235 $236 $237 $238 reversed $103 $-1 #
coedge $-1 $239 $104 $240 $241 forward $68 $-1 #
coedge $-1 $104 $239 $242 $243 reversed $68 $-1 #
coedge $-1 $244 $245 $104 $156 forward $246 $-1 #
edge $-1 $247 0 $248 1.5707963267948966 $155 $249 forward 7 unknown #
face $-1 $-1 $250 $37 $-1 $251 forward single #
loop $-1 $-1 $252 $105 #
plane-surface $-1 -0.52591225741562642 -1.25 -0.27559999999999985 0 -1 0 0 0 -1 forward_v I I I I #
coedge $-1 $253 $253 $108 $163 reversed $106 $-1 #
coedge $-1 $254 $108 $255 $256 reversed $71 $-1 #
coedge $-1 $108 $254 $257 $258 reversed $71 $-1 #
edge $-1 $259 0.48269553519085778 $260 2.6588971183989356 $160 $261 forward 7 unknown #
face $-1 $-1 $262 $39 $-1 $263 reversed single #
loop $-1 $-1 $264 $109 #
plane-surface $-1 0.52591225741562642 -1.25 0.27559999999999985 0 -1 0 0 0 -1 forward_v I I I I #
coedge $-1 $265 $265 $112 $170 reversed $110 $-1 #
coedge $-1 $266 $112 $267 $268 reversed $74 $-1 #
coedge $-1 $112 $266 $269 $270 reversed $74 $-1 #
edge $-1 $271 -2.6588971183989356 $272 -0.48269553519085778 $167 $273 forward 7 unknown #
face $-1 $274 $275 $41 $-1 $276 forward single #
loop $-1 $-1 $277 $113 #
cone-surface $-1 0 -0.625 0 0 -1 0 0.5625 0 0 1 I I 0 -1 0.5625 forward I I I I #
coedge $-1 $278 $279 $280 $281 forward $114 $-1 #
coedge $-1 $282 $116 $279 $283 reversed $77 $-1 #
coedge $-1 $116 $282 $284 $285 forward $77 $-1 #
coedge $-1 $286 $280 $116 $178 reversed $287 $-1 #
edge $-1 $288 2.6588971183989356 $289 3.6242881887806511 $116 $290 forward 7 unknown #
face_name-twe-attrib $-1 $-1 $118 $82 4 #
model_id-kcp-attrib $-1 $291 $-1 $119 1 990669505 60 456916993 6 #
face $292 $293 $132 $11 $-1 $294 forward single #
loop $295 $-1 $296 $119 #
plane-surface $297 0 0.375 0 0 1 0 0 0 1 forward_v I I I I #
loop_type-twe-attrib $-1 $-1 $-1 $120 0 #
coedge $-1 $191 $298 $299 $300 forward $120 $-1 #
surf-twe-attrib $-1 $-1 $-1 $121 18 #
loop_type-twe-attrib $-1 $-1 $-1 $123 1 #
coedge $-1 $301 $302 $303 $304 forward $123 $-1 #
coedge $-1 $195 $124 $305 $306 reversed $83 $-1 #
coedge $-1 $124 $195 $307 $308 forward $83 $-1 #
coedge $-1 $309 $185 $124 $192 reversed $120 $-1 #
edge $310 $311 -1.0240775380722522 $312 0 $191 $313 forward 7 unknown #
coedge $-1 $303 $127 $314 $315 reversed $86 $-1 #
coedge $-1 $127 $303 $316 $317 forward $86 $-1 #
coedge $-1 $190 $189 $127 $196 forward $83 $-1 #
edge $318 $319 -1.0240792753266772 $320 0 $195 $321 forward 7 unknown #
loop $322 $-1 $128 $181 #
edge_name-twe-attrib $-1 $-1 $-1 $129 1 8704 #
vertex $-1 $129 $323 #
ellipse-curve $324 0 0 0 0 -1 0 -0.59375 0 0 1 I I #
loop $325 $-1 $130 $293 #
attrib_edge_convexity-kcp-attrib $-1 $326 $-1 $131 1 #
vertex $-1 $131 $327 #
ellipse-curve $328 0 1.875 0 0 1 0 -0.125 0 0 1 I I #
loop_type-twe-attrib $-1 $-1 $-1 $132 0 #
convexity-sys-attrib $-1 $329 $133 $92 #
point $-1 -0.59375 1.875 0 #
cur-twe-attrib $-1 $-1 $-1 $135 28 #
face $330 $331 $332 $31 $-1 $333 reversed single #
loop $-1 $-1 $334 $137 #
plane-surface $-1 -0.59375 0 0 1 0 0 0 0 -1 forward_v I I I I #
coedge $-1 $335 $220 $336 $337 forward $138 $-1 #
coedge $-1 $338 $140 $335 $339 forward $94 $-1 #
coedge $-1 $140 $338 $340 $341 forward $94 $-1 #
coedge $-1 $223 $222 $140 $216 reversed $224 $-1 #
edge $-1 $342 -1.25 $343 1.25 $215 $344 forward 7 unknown #
coedge $-1 $142 $141 $345 $346 forward $62 $-1 #
coedge $-1 $347 $348 $141 $219 reversed $332 $-1 #
edge $-1 $226 -0.59375 $349 0.59375 $218 $350 forward 7 unknown #
coedge $-1 $212 $351 $142 $221 reversed $138 $-1 #
edge $-1 $352 -0.59375 $225 0.59375 $220 $353 forward 7 unknown #
coedge $-1 $215 $143 $351 $354 forward $224 $-1 #
coedge $-1 $143 $215 $347 $355 reversed $224 $-1 #
loop $-1 $-1 $222 $331 #
vertex $-1 $144 $356 #
vertex $-1 $144 $357 #
straight-curve $-1 0.59375 0 0.59375 0 1 0 I I #
coedge $-1 $228 $228 $148 $229 forward $145 $-1 #
edge $-1 $358 0 $358 6.2831853071795862 $228 $359 forward 7 unknown #
vertex $-1 $149 $360 #
ellipse-curve $-1 0 0 -0.75 0 0 -1 0.125 0 0 1 I I #
face $-1 $361 $362 $35 $-1 $363 forward single #
loop $-1 $-1 $364 $150 #
coedge $-1 $365 $366 $364 $367 forward $151 $-1 #
coedge $-1 $368 $152 $369 $370 reversed $103 $-1 #
coedge $-1 $152 $368 $154 $243 forward $103 $-1 #
coedge $-1 $371 $372 $152 $238 forward $373 $-1 #
edge $-1 $374 -3.1415926535897931 $375 -1.5707963267948966 $237 $376 forward 7 unknown #
coedge $-1 $154 $153 $377 $378 reversed $68 $-1 #
coedge $-1 $366 $365 $379 $241 reversed $151 $-1 #
edge $-1 $247 -2.5 $380 0 $379 $381 forward 7 unknown #
coedge $-1 $382 $383 $384 $243 forward $385 $-1 #
edge $-1 $248 -2.5 $375 0 $242 $386 forward 7 unknown #
coedge $-1 $245 $155 $383 $387 reversed $246 $-1 #
coedge $-1 $155 $244 $388 $389 forward $246 $-1 #
loop $-1 $-1 $155 $390 #
vertex $-1 $391 $392 #
vertex $-1 $393 $394 #
ellipse-curve $-1 2.2260588839547353e-033 -1.25 0 0 1 0 -0.59375 0 0 1 I I #
loop $-1 $-1 $395 $157 #
plane-surface $-1 0 -0.9375 -0.27559999999999985 -9.9772379497065721e-033 0 1 1 0 9.9772379497065721e-033 forward_v I I I I #
coedge $-1 $396 $396 $254 $397 reversed $158 $-1 #
coedge $-1 $160 $160 $395 $398 reversed $106 $-1 #
coedge $-1 $162 $161 $252 $397 forward $71 $-1 #
coedge $-1 $395 $399 $161 $256 forward $250 $-1 #
edge $400 $401 -2.5 $260 -1.875 $255 $402 forward 7 unknown #
coedge $-1 $399 $395 $162 $258 forward $250 $-1 #
edge $403 $259 1.875 $404 2.5 $257 $405 forward 7 unknown #
vertex $-1 $398 $406 #
vertex $-1 $398 $407 #
ellipse-curve $-1 2.2260588839547353e-033 -0.625 0 0 -1 0 -0.59375 0 0 1 I I #
loop $-1 $-1 $408 $164 #
plane-surface $-1 0 -0.9375 0.27559999999999985 -9.9772379497065721e-033 0 1 1 0 9.9772379497065721e-033 forward_v I I I I #
coedge $-1 $409 $409 $266 $410 reversed $165 $-1 #
coedge $-1 $167 $167 $408 $411 reversed $110 $-1 #
coedge $-1 $169 $168 $264 $410 forward $74 $-1 #
coedge $-1 $408 $412 $168 $268 forward $262 $-1 #
edge $413 $414 -2.5 $272 -1.875 $267 $415 forward 7 unknown #
coedge $-1 $412 $408 $169 $270 forward $262 $-1 #
edge $416 $271 1.875 $417 2.5 $269 $418 forward 7 unknown #
vertex $-1 $411 $419 #
vertex $-1 $411 $420 #
ellipse-curve $-1 2.2260588839547353e-033 -0.625 0 0 -1 0 -0.59375 0 0 1 I I #
face $-1 $421 $287 $41 $-1 $422 reversed single #
loop $-1 $-1 $423 $171 #
plane-surface $-1 0.49035659064664999 -0.625 0.27560000000000001 -9.9772379497065721e-033 0 1 1 0 9.9772379497065721e-033 forward_v I I I I #
coedge $-1 $424 $425 $426 $427 forward $172 $-1 #
coedge $-1 $428 $174 $425 $429 reversed $114 $-1 #
coedge $-1 $174 $428 $175 $283 forward $114 $-1 #
coedge $-1 $177 $426 $174 $281 reversed $287 $-1 #
edge $-1 $289 -0.2548856097539639 $430 -0.21933111304226149 $174 $431 forward 7 unknown #
coedge $-1 $176 $175 $432 $433 reversed $77 $-1 #
edge $-1 $434 0 $289 0.625 $279 $435 forward 7 unknown #
coedge $-1 $436 $423 $176 $285 reversed $275 $-1 #
edge $-1 $437 0 $288 0.625 $176 $438 forward 7 unknown #
coedge $-1 $426 $177 $423 $439 reversed $287 $-1 #
loop $-1 $-1 $177 $274 #
vertex $-1 $285 $440 #
vertex $-1 $283 $441 #
ellipse-curve $-1 2.2260588839547353e-033 -1.25 0 0 1 0 -0.59375 0 0 1 I I #
face_name-twe-attrib $-1 $-1 $180 $119 5 #
model_id-kcp-attrib $-1 $442 $-1 $181 1 990669505 60 456916993 7 #
face $443 $444 $445 $11 $-1 $446 reversed single #
cone-surface $447 0 -0.75 0 0 1 0 0.59375 0 0 1 I I 0 1 0.59375 forward I I I I #
loop_type-twe-attrib $-1 $-1 $-1 $182 0 #
coedge $-1 $296 $296 $448 $449 forward $182 $-1 #
surf-twe-attrib $-1 $-1 $-1 $183 30 #
coedge $-1 $185 $309 $450 $451 reversed $120 $-1 #
coedge $-1 $452 $305 $185 $300 reversed $453 $-1 #
edge $454 $455 -0.98071584059808203 $312 0 $299 $456 forward 7 unknown #
coedge $-1 $450 $188 $452 $457 forward $123 $-1 #
coedge $-1 $188 $450 $458 $459 reversed $123 $-1 #
coedge $-1 $194 $193 $188 $304 reversed $86 $-1 #
edge $460 $461 -1.0240792753266772 $462 0 $188 $463 forward 7 unknown #
coedge $-1 $299 $314 $189 $306 forward $453 $-1 #
edge $464 $319 -0.62500000000141442 $312 0 $305 $465 forward 7 unknown #
coedge $-1 $316 $466 $190 $308 reversed $467 $-1 #
edge $468 $320 -0.62500000000008504 $311 0 $307 $469 forward 7 unknown #
coedge $-1 $298 $191 $466 $470 reversed $120 $-1 #
edge_name-twe-attrib $-1 $-1 $-1 $192 4 8704 #
vertex $-1 $308 $471 #
vertex $-1 $306 $472 #
ellipse-curve $473 0 -0.625 0 0 1 0 -0.49035792029904102 0 0.27560000000000001 1 I I #
coedge $-1 $305 $452 $193 $315 forward $453 $-1 #
edge $474 $462 -0.98071318129329998 $319 0 $314 $475 forward 7 unknown #
coedge $-1 $458 $307 $194 $317 reversed $467 $-1 #
edge $476 $461 -0.98071552140784801 $320 0 $316 $477 forward 7 unknown #
edge_name-twe-attrib $-1 $-1 $-1 $196 2 4608 #
vertex $-1 $306 $478 #
vertex $-1 $308 $479 #
ellipse-curve $480 0 0 0 0 -1 0 -0.49035776070392401 0 -0.27560028395746 1 I I #
loop_type-twe-attrib $-1 $-1 $-1 $197 1 #
point $-1 0.59375 0 -7.2713391155812703e-017 #
cur-twe-attrib $-1 $-1 $-1 $200 40 #
loop_type-twe-attrib $-1 $-1 $-1 $201 1 #
convexity-sys-attrib $-1 $481 $202 $131 #
point $-1 -0.125 1.875 0 #
cur-twe-attrib $-1 $-1 $-1 $204 42 #
edge_name-twe-attrib $-1 $-1 $206 $92 6 8704 #
model_id-kcp-attrib $-1 $-1 $-1 $209 1 990669505 60 456916994 2 #
face $-1 $-1 $224 $31 $-1 $482 reversed single #
loop $-1 $-1 $347 $209 #
plane-surface $-1 0 1.25 0 0 -1 0 0 0 -1 forward_v I I I I #
coedge $-1 $483 $345 $348 $484 forward $210 $-1 #
coedge $-1 $351 $212 $213 $339 reversed $138 $-1 #
coedge $-1 $345 $483 $212 $337 reversed $210 $-1 #
edge $-1 $352 -0.59375 $485 0.59375 $336 $486 forward 7 unknown #
coedge $-1 $214 $213 $483 $487 forward $94 $-1 #
edge $-1 $343 -0.59375 $485 0.59375 $335 $488 forward 7 unknown #
coedge $-1 $348 $347 $214 $341 reversed $332 $-1 #
edge $-1 $489 -0.59375 $342 0.59375 $340 $490 forward 7 unknown #
vertex $-1 $216 $491 #
vertex $-1 $354 $492 #
straight-curve $-1 0.59375 0 -0.59375 0 -1 0 I I #
coedge $-1 $334 $336 $217 $346 reversed $210 $-1 #
edge $-1 $349 -1.25 $352 1.25 $345 $493 forward 7 unknown #
coedge $-1 $340 $218 $223 $355 forward $332 $-1 #
coedge $-1 $218 $340 $334 $484 reversed $332 $-1 #
vertex $-1 $219 $494 #
straight-curve $-1 0 1.25 0.59375 -1 0 0 I I #
coedge $-1 $220 $335 $222 $354 reversed $138 $-1 #
vertex $-1 $346 $495 #
straight-curve $-1 0 -1.25 0.59375 1 0 0 I I #
edge $-1 $225 -0.59375 $343 0.59375 $222 $496 forward 7 unknown #
edge $-1 $226 -0.59375 $342 0.59375 $223 $497 forward 7 unknown #
point $-1 0.59375 -1.25 0.59375 #
point $-1 0.59375 1.25 0.59375 #
vertex $-1 $229 $498 #
ellipse-curve $-1 0 0 0.75 0 0 1 0.125 0 0 1 I I #
point $-1 0.125 0 -0.75 #
face $-1 $499 $500 $35 $-1 $501 reversed single #
loop $-1 $-1 $384 $232 #
plane-surface $-1 0 0 0.59375 0 0 1 1 0 0 forward_v I I I I #
coedge $-1 $502 $503 $504 $367 reversed $233 $-1 #
coedge $-1 $240 $234 $505 $506 reversed $151 $-1 #
coedge $-1 $234 $240 $507 $508 reversed $151 $-1 #
edge $-1 $509 -2.5 $510 0 $504 $511 forward 7 unknown #
coedge $-1 $236 $235 $512 $513 reversed $103 $-1 #
coedge $-1 $514 $515 $516 $370 forward $517 $-1 #
edge $-1 $518 -2.5 $374 0 $369 $519 forward 7 unknown #
coedge $-1 $372 $237 $520 $521 reversed $373 $-1 #
coedge $-1 $237 $371 $514 $522 forward $373 $-1 #
loop $-1 $-1 $237 $523 #
vertex $-1 $524 $525 #
vertex $-1 $526 $527 #
ellipse-curve $-1 2.2260588839547353e-033 1.25 0 0 -1 0 -0.59375 0 0 1 I I #
coedge $-1 $528 $529 $239 $378 forward $530 $-1 #
edge $-1 $375 -1.5707963267948966 $380 0 $377 $376 forward 7 unknown #
coedge $-1 $531 $532 $533 $241 forward $500 $-1 #
vertex $-1 $534 $535 #
straight-curve $-1 -0.59375 1.25 0 0 1 0 I I #
coedge $-1 $536 $242 $529 $526 forward $385 $-1 #
coedge $-1 $242 $536 $244 $387 forward $385 $-1 #
coedge $-1 $537 $520 $236 $243 reversed $362 $-1 #
loop $-1 $-1 $242 $538 #
straight-curve $-1 2.2260588839547353e-033 1.25 0.59375 0 1 0 I I #
edge $-1 $539 -0.59375 $248 2.2260588839547353e-033 $244 $540 forward 7 unknown #
coedge $-1 $541 $533 $245 $389 reversed $542 $-1 #
edge $-1 $539 -0.59375 $247 0 $388 $543 forward 7 unknown #
face $-1 $544 $246 $35 $-1 $545 reversed single #
edge $-1 $247 0 $546 0.59375 $532 $543 forward 7 unknown #
point $-1 -0.59375 -1.25 0 #
edge $-1 $248 2.2260588839547353e-033 $547 0.59375 $548 $540 forward 7 unknown #
point $-1 2.2260588839547353e-033 -1.25 0.59375 #
coedge $-1 $257 $255 $253 $398 forward $250 $-1 #
coedge $-1 $252 $252 $399 $549 reversed $158 $-1 #
edge $-1 $401 -2.6588971183989356 $404 -0.48269553519085778 $252 $550 forward 7 unknown #
edge $551 $260 -0.52591225741562642 $259 0.52591225741562642 $253 $552 forward 7 unknown #
coedge $-1 $255 $257 $396 $549 forward $250 $-1 #
convexity-sys-attrib $-1 $-1 $-1 $256 #
vertex $-1 $549 $553 #
straight-curve $-1 0.52591225741562642 1.25 -0.27559999999999985 0 1 0 I I #
convexity-sys-attrib $-1 $-1 $-1 $258 #
vertex $-1 $258 $554 #
straight-curve $-1 -0.52591225741562642 1.25 -0.27559999999999985 0 -1 0 I I #
point $-1 -0.52591225741562642 -0.625 -0.27559999999999985 #
point $-1 0.52591225741562642 -0.625 -0.27559999999999985 #
coedge $-1 $269 $267 $265 $411 forward $262 $-1 #
coedge $-1 $264 $264 $412 $555 reversed $165 $-1 #
edge $-1 $414 0.48269553519085778 $417 2.6588971183989356 $264 $556 forward 7 unknown #
edge $557 $272 -0.52591225741562642 $271 0.52591225741562642 $265 $558 forward 7 unknown #
coedge $-1 $267 $269 $409 $555 forward $262 $-1 #
convexity-sys-attrib $-1 $-1 $-1 $268 #
vertex $-1 $555 $559 #
straight-curve $-1 -0.52591225741562642 1.25 0.27559999999999985 0 1 0 I I #
convexity-sys-attrib $-1 $-1 $-1 $270 #
vertex $-1 $270 $560 #
straight-curve $-1 0.52591225741562642 1.25 0.27559999999999985 0 -1 0 I I #
point $-1 0.52591225741562642 -0.625 0.27559999999999985 #
point $-1 -0.52591225741562642 -0.625 0.27559999999999985 #
face $-1 $-1 $561 $41 $-1 $562 forward single #
plane-surface $-1 0.54748513837361923 -1.25 3.3715088335640462e-007 0 1 0 0 0 1 forward_v I I I I #
coedge $-1 $284 $563 $286 $439 forward $275 $-1 #
tcoedge-coedge $-1 $564 $277 $563 $565 reversed $172 $566 -0.625 0 #
coedge $-1 $277 $564 $278 $429 forward $172 $-1 #
coedge $-1 $280 $286 $277 $427 reversed $287 $-1 #
edge $-1 $430 -0.51203934811825169 $567 0.5120399272084255 $277 $568 forward 7 unknown #
coedge $-1 $279 $278 $569 $570 reversed $114 $-1 #
edge $-1 $571 0 $430 0.625 $425 $572 forward 7 unknown #
vertex $-1 $429 $573 #
straight-curve $-1 0.27102664766166251 -1.25 -0.27559999999999985 -1 0 -9.9772379497065721e-033 I I #
coedge $-1 $569 $574 $282 $433 forward $561 $-1 #
edge $575 $437 2.6588971183989356 $434 3.6242881887806506 $282 $576 forward 7 unknown #
vertex $-1 $433 $577 #
straight-curve $-1 0.52591225741562642 -0.625 -0.2755999999999999 0 -1 0 I I #
coedge $-1 $563 $284 $574 $578 reversed $275 $-1 #
vertex $-1 $578 $579 #
straight-curve $-1 0.52591225741562642 -0.625 0.27559999999999985 0 -1 0 I I #
edge $-1 $567 0.21932994298498748 $288 0.2548856097539639 $423 $580 forward 7 unknown #
point $-1 0.52591225741562642 -1.25 0.27559999999999985 #
point $-1 0.52591225741562642 -1.25 -0.2755999999999999 #
face_name-twe-attrib $-1 $-1 $292 $181 6 #
model_id-kcp-attrib $-1 $581 $-1 $293 1 990669505 60 456916993 8 #
face $582 $583 $467 $11 $-1 $584 reversed single #
loop $585 $201 $448 $293 #
cone-surface $586 0 -0.75 0 0 1 0 0.125 0 0 1 I I 0 1 0.125 forward I I I I #
surf-twe-attrib $-1 $-1 $-1 $294 48 #
coedge $-1 $448 $448 $296 $449 reversed $445 $-1 #
edge $587 $588 0 $588 6.2831853071795862 $448 $589 forward 7 unknown #
coedge $-1 $302 $301 $298 $451 forward $123 $-1 #
edge $590 $455 -1.0240775380722522 $591 0 $298 $592 forward 7 unknown #
coedge $-1 $314 $299 $301 $457 reversed $453 $-1 #
loop $593 $-1 $305 $583 #
edge_name-twe-attrib $-1 $-1 $-1 $300 14 8704 #
vertex $-1 $457 $594 #
straight-curve $595 -0.49035792029904102 -0.625 0.27560000000000001 -1 0 2.830134322976e-016 I I #
edge $596 $462 -0.62500000000141442 $455 0 $452 $597 forward 7 unknown #
coedge $-1 $466 $316 $302 $459 forward $467 $-1 #
edge $598 $461 -0.62500000000008504 $591 0 $458 $599 forward 7 unknown #
edge_name-twe-attrib $-1 $-1 $-1 $304 3 4608 #
vertex $-1 $317 $600 #
vertex $-1 $457 $601 #
ellipse-curve $602 0 0 0 0 -1 0 0.49035760110642601 0 0.27560056791877502 1 I I #
edge_name-twe-attrib $-1 $-1 $-1 $306 13 8448 #
straight-curve $603 -0.49035792029904102 -0.625 0.27560000000000001 -2.1274438248349402e-006 -0.99999999999773703 2.6645352590943502e-016 I I #
coedge $-1 $307 $458 $309 $470 forward $467 $-1 #
loop $604 $-1 $458 $444 #
edge_name-twe-attrib $-1 $-1 $-1 $308 11 8448 #
straight-curve $605 -0.49035792029904102 -0.625 -0.27560000000000001 -2.5535218632907099e-007 -0.999999999999864 4.5433193633919699e-007 I I #
edge $606 $591 -0.98071584059808203 $311 0 $466 $607 forward 7 unknown #
point $-1 -0.49035792029904102 -0.625 -0.27560000000000001 #
point $-1 -0.49035792029904102 -0.625 0.27560000000000001 #
cur-twe-attrib $-1 $608 $-1 $313 119 #
edge_name-twe-attrib $-1 $-1 $-1 $315 16 4608 #
straight-curve $609 -0.49035659064664999 0 0.27560000000000001 -1 0 0 I I #
edge_name-twe-attrib $-1 $-1 $-1 $317 12 4608 #
straight-curve $610 -0.49035776070392401 0 -0.27560028395746 -1 0 1.69808114645427e-016 I I #
point $-1 -0.49035659064664999 0 0.27560000000000001 #
point $-1 -0.49035776070392401 0 -0.27560028395746 #
cur-twe-attrib $-1 $-1 $-1 $321 63 #
edge_name-twe-attrib $-1 $-1 $326 $131 8 8704 #
plane-surface $-1 0.59375 0 0 -1 0 0 0 0 1 forward_v I I I I #
coedge $-1 $336 $334 $338 $487 reversed $210 $-1 #
edge $-1 $349 -0.59375 $489 0.59375 $348 $611 forward 7 unknown #
vertex $-1 $487 $612 #
straight-curve $-1 -0.59375 -1.25 0 0 0 -1 I I #
edge $-1 $485 -1.25 $489 1.25 $483 $613 forward 7 unknown #
straight-curve $-1 0 -1.25 -0.59375 -1 0 0 I I #
vertex $-1 $341 $614 #
straight-curve $-1 0 1.25 -0.59375 1 0 0 I I #
point $-1 0.59375 1.25 -0.59375 #
point $-1 0.59375 -1.25 -0.59375 #
straight-curve $-1 -0.59375 0 0.59375 0 -1 0 I I #
point $-1 -0.59375 1.25 0.59375 #
point $-1 -0.59375 -1.25 0.59375 #
straight-curve $-1 0.59375 -1.25 0 0 0 -1 I I #
straight-curve $-1 0.59375 1.25 0 0 0 -1 I I #
point $-1 0.125 0 0.75 #
face $-1 $615 $616 $35 $-1 $617 reversed single #
loop $-1 $-1 $379 $361 #
plane-surface $-1 -0.59375 0 0 1 0 0 0 0 -1 forward_v I I I I #
coedge $-1 $618 $364 $619 $620 reversed $233 $-1 #
coedge $-1 $364 $618 $621 $622 reversed $233 $-1 #
coedge $-1 $623 $624 $625 $367 forward $626 $-1 #
coedge $-1 $627 $628 $365 $506 forward $629 $-1 #
edge $-1 $380 0 $510 1.5707963267948966 $505 $376 forward 7 unknown #
coedge $-1 $630 $631 $366 $508 forward $632 $-1 #
edge $-1 $509 -1.5707963267948966 $247 0 $507 $249 forward 7 unknown #
vertex $-1 $633 $634 #
vertex $-1 $635 $636 #
straight-curve $-1 2.2260588839547353e-033 1.25 -0.59375 0 1 0 I I #
coedge $-1 $637 $548 $368 $513 forward $638 $-1 #
edge $-1 $248 1.5707963267948966 $518 3.1415926535897931 $512 $249 forward 7 unknown #
coedge $-1 $639 $369 $372 $522 reversed $517 $-1 #
coedge $-1 $369 $639 $637 $640 forward $517 $-1 #
coedge $-1 $641 $642 $618 $370 reversed $616 $-1 #
loop $-1 $-1 $369 $643 #
vertex $-1 $644 $645 #
straight-curve $-1 0.59375 1.25 0 0 1 0 I I #
coedge $-1 $384 $646 $371 $521 forward $362 $-1 #
edge $-1 $647 -0.59375 $375 -2.2260588839547353e-033 $371 $648 forward 7 unknown #
edge $-1 $647 -0.59375 $374 0 $514 $649 forward 7 unknown #
face $-1 $650 $373 $35 $-1 $651 reversed single #
edge $-1 $374 0 $652 0.59375 $642 $649 forward 7 unknown #
point $-1 0.59375 1.25 0 #
edge $-1 $375 -2.2260588839547353e-033 $653 0.59375 $529 $648 forward 7 unknown #
point $-1 2.2260588839547353e-033 1.25 0.59375 #
coedge $-1 $529 $377 $654 $655 reversed $530 $-1 #
coedge $-1 $377 $528 $382 $526 reversed $530 $-1 #
loop $-1 $-1 $377 $650 #
coedge $-1 $656 $379 $628 $534 forward $500 $-1 #
coedge $-1 $379 $656 $630 $391 reversed $500 $-1 #
coedge $-1 $388 $654 $153 $241 reversed $542 $-1 #
edge $-1 $380 0 $657 0.59375 $628 $658 forward 7 unknown #
point $-1 -0.59375 1.25 0 #
coedge $-1 $383 $382 $541 $659 forward $385 $-1 #
coedge $-1 $646 $384 $548 $393 forward $362 $-1 #
face $-1 $660 $385 $35 $-1 $363 forward single #
vertex $-1 $659 $661 #
straight-curve $-1 0 -1.25 0.59375 1 0 0 I I #
coedge $-1 $654 $388 $536 $659 reversed $542 $-1 #
loop $-1 $-1 $533 $662 #
straight-curve $-1 -0.59375 -1.25 0 0 0 -1 I I #
face $-1 $663 $638 $35 $-1 $545 reversed single #
plane-surface $-1 0 -1.25 0 0 1 0 0 0 1 forward_v I I I I #
vertex $-1 $664 $665 #
vertex $-1 $666 $667 #
coedge $-1 $512 $637 $537 $393 reversed $638 $-1 #
edge $668 $404 -0.52591225741562642 $401 0.52591225741562642 $396 $669 forward 7 unknown #
ellipse-curve $-1 2.2260588839547353e-033 -1.25 0 0 1 0 -0.59375 0 0 1 I I #
convexity-sys-attrib $-1 $-1 $-1 $398 #
straight-curve $-1 0 -0.625 -0.27559999999999985 -1 0 0 I I #
point $-1 0.52591225741562642 -1.25 -0.27559999999999985 #
point $-1 -0.52591225741562642 -1.25 -0.27559999999999985 #
edge $670 $417 -0.52591225741562642 $414 0.52591225741562642 $409 $671 forward 7 unknown #
ellipse-curve $-1 2.2260588839547353e-033 -1.25 0 0 1 0 -0.59375 0 0 1 I I #
convexity-sys-attrib $-1 $-1 $-1 $411 #
straight-curve $-1 0 -0.625 0.27559999999999985 1 0 0 I I #
point $-1 -0.52591225741562642 -1.25 0.27559999999999985 #
point $-1 0.52591225741562642 -1.25 0.27559999999999985 #
loop $-1 $-1 $574 $421 #
plane-surface $-1 0.54748513837361923 -0.625 3.3715088335640462e-007 0 1 0 0 0 1 forward_v I I I I #
tcoedge-coedge $-1 $423 $436 $424 $565 forward $275 $672 0 0.625 #
coedge $-1 $425 $424 $673 $674 reversed $172 $-1 #
tedge-edge $-1 $675 0 $567 0.625 $563 $676 forward 7 unknown 1.1591206553970957e-006 #
pcurve $-1 0 forward { exppc nubs 2 open 7 
	-0.625 2 -0.52083333333333337 2 -0.41666666666666674 2 -0.3125 2 -0.20833333333333337 2 
	-0.10416666666666664 2 0 2 
	1.1111111111111112 0.5120399272084255 
	1.0185185185185186 0.5120399272084255 
	0.92592592592592615 0.5120399272084255 
	0.83333333333333348 0.5120399272084255 
	0.74074074074074092 0.5120399272084255 
	0.64814814814814825 0.5120399272084255 
	0.55555555555555558 0.5120399272084255 
	0.46296296296296302 0.5120399272084255 
	0.37037037037037046 0.5120399272084255 
	0.27777777777777779 0.5120399272084255 
	0.18518518518518512 0.5120399272084255 
	0.09259259259259256 0.5120399272084255 
	0 0.5120399272084255 
	0.001 
	cone 0 -0.625 0 0 -1 0 0.5625 0 0 1 I I 0 -1 0.5625 forward I I I I 
	} 0 0 #
tvertex-vertex $-1 $565 $677 1.1591206553275105e-006 #
ellipse-curve $-1 0 -1.25 0 0 -1 0 0.5625 0 0 1 I I #
coedge $-1 $673 $432 $428 $570 forward $561 $-1 #
edge $678 $434 -0.2548856097539639 $571 -0.21933111304226149 $428 $679 forward 7 unknown #
vertex $-1 $570 $680 #
straight-curve $-1 0.49035776070392401 -0.625 -0.27560028395746 0 -1 0 I I #
point $-1 0.49035776070392401 -1.25 -0.27560028395746 #
coedge $-1 $432 $673 $436 $578 forward $561 $-1 #
convexity-sys-attrib $-1 $-1 $-1 $433 #
ellipse-curve $-1 2.2260588839547353e-033 -0.625 0 0 1 0 -0.59375 0 0 1 I I #
point $-1 0.52591225741562642 -0.625 -0.27559999999999985 #
edge $681 $675 0.21932994298498748 $437 0.2548856097539639 $436 $682 forward 7 unknown #
point $-1 0.52591225741562642 -0.625 0.27559999999999985 #
straight-curve $-1 0.27102664766166251 -1.25 0.27559999999999985 1 0 9.9772379497065721e-033 I I #
face_name-twe-attrib $-1 $-1 $443 $293 7 #
model_id-kcp-attrib $-1 $683 $-1 $444 1 990669505 60 456916993 9 #
face $684 $-1 $453 $11 $-1 $685 reversed single #
plane-surface $686 -0.71250000000000002 0 -0.27560000000000001 0 0 1 1 0 0 forward_v I I I I #
loop_type-twe-attrib $-1 $-1 $-1 $445 0 #
surf-twe-attrib $-1 $-1 $-1 $446 76 #
attrib_edge_convexity-kcp-attrib $-1 $687 $-1 $449 2 #
vertex $-1 $449 $688 #
ellipse-curve $689 0 0.375 0 0 1 0 -0.125 0 0 1 I I #
edge_name-twe-attrib $-1 $-1 $-1 $451 5 8704 #
vertex $-1 $459 $690 #
ellipse-curve $691 0 -0.625 0 0 1 0 0.49035792029904102 0 -0.27560000000000001 1 I I #
loop_type-twe-attrib $-1 $-1 $-1 $453 0 #
point $-1 0.49035792029904102 -0.625 0.27560000000000001 #
cur-twe-attrib $-1 $-1 $-1 $456 83 #
edge_name-twe-attrib $-1 $-1 $-1 $457 15 8448 #
straight-curve $692 0.49035792029904102 -0.625 0.27560000000000001 2.1274438252790298e-006 -0.99999999999773703 -1.7763568393962301e-016 I I #
edge_name-twe-attrib $-1 $-1 $-1 $459 9 8448 #
straight-curve $693 0.49035792029904102 -0.625 -0.27560000000000001 2.55352185707346e-007 -0.999999999999864 4.54331936161561e-007 I I #
point $-1 0.49035776070392401 0 -0.27560028395746 #
point $-1 0.49035659064664999 0 0.27560000000000001 #
cur-twe-attrib $-1 $-1 $-1 $463 87 #
cur-twe-attrib $-1 $-1 $-1 $465 89 #
loop_type-twe-attrib $-1 $-1 $-1 $467 0 #
cur-twe-attrib $-1 $-1 $-1 $469 91 #
edge_name-twe-attrib $-1 $-1 $-1 $470 10 8704 #
straight-curve $694 -0.49035792029904102 -0.625 -0.27560000000000001 -1 0 2.830134322976e-016 I I #
cur-twe-attrib $-1 $-1 $473 $313 59 #
cur-twe-attrib $-1 $-1 $-1 $475 98 #
cur-twe-attrib $-1 $-1 $-1 $477 100 #
straight-curve $-1 -0.59375 1.25 0 0 0 -1 I I #
point $-1 -0.59375 -1.25 -0.59375 #
straight-curve $-1 -0.59375 0 -0.59375 0 1 0 I I #
point $-1 -0.59375 1.25 -0.59375 #
face $-1 $523 $695 $35 $-1 $651 reversed single #
loop $-1 $-1 $516 $499 #
plane-surface $-1 0.59375 0 0 -1 0 0 0 0 1 forward_v I I I I #
coedge $-1 $503 $502 $235 $370 forward $233 $-1 #
coedge $-1 $696 $697 $502 $620 forward $698 $-1 #
edge $-1 $518 -3.1415926535897931 $509 -1.5707963267948966 $619 $249 forward 7 unknown #
coedge $-1 $699 $700 $503 $622 forward $695 $-1 #
edge $-1 $510 1.5707963267948966 $374 3.1415926535897931 $621 $376 forward 7 unknown #
coedge $-1 $701 $504 $700 $635 forward $626 $-1 #
coedge $-1 $504 $701 $696 $702 forward $626 $-1 #
coedge $-1 $703 $704 $234 $367 reversed $705 $-1 #
loop $-1 $-1 $504 $660 #
coedge $-1 $628 $505 $704 $706 reversed $629 $-1 #
coedge $-1 $505 $627 $531 $534 reversed $629 $-1 #
loop $-1 $-1 $505 $707 #
coedge $-1 $631 $507 $532 $391 forward $632 $-1 #
coedge $-1 $507 $630 $703 $633 reversed $632 $-1 #
loop $-1 $-1 $507 $708 #
edge $-1 $509 -2.2260588839547353e-033 $546 0.59375 $631 $709 forward 7 unknown #
point $-1 2.2260588839547353e-033 -1.25 -0.59375 #
edge $-1 $510 2.2260588839547353e-033 $652 0.59375 $700 $710 forward 7 unknown #
point $-1 2.2260588839547353e-033 1.25 -0.59375 #
coedge $-1 $548 $512 $515 $640 reversed $638 $-1 #
loop $-1 $-1 $512 $544 #
coedge $-1 $515 $514 $646 $666 reversed $517 $-1 #
edge $-1 $547 -0.59375 $518 0 $515 $711 forward 7 unknown #
coedge $-1 $712 $516 $697 $644 forward $616 $-1 #
coedge $-1 $516 $712 $699 $524 reversed $616 $-1 #
face $-1 $-1 $517 $35 $-1 $617 reversed single #
edge $-1 $518 0 $713 0.59375 $641 $711 forward 7 unknown #
point $-1 0.59375 -1.25 0 #
coedge $-1 $520 $537 $639 $666 forward $362 $-1 #
vertex $-1 $666 $714 #
straight-curve $-1 0 1.25 0.59375 -1 0 0 I I #
straight-curve $-1 0.59375 1.25 0 0 0 -1 I I #
face $-1 $707 $530 $35 $-1 $651 reversed single #
plane-surface $-1 0 1.25 0 0 -1 0 0 0 -1 forward_v I I I I #
vertex $-1 $715 $716 #
vertex $-1 $526 $717 #
coedge $-1 $533 $541 $528 $655 forward $542 $-1 #
edge $-1 $653 -0.59375 $380 0 $528 $658 forward 7 unknown #
coedge $-1 $532 $531 $718 $664 reversed $500 $-1 #
vertex $-1 $706 $719 #
straight-curve $-1 -0.59375 1.25 0 0 0 -1 I I #
edge $-1 $653 -1.25 $539 1.25 $541 $720 forward 7 unknown #
face $-1 $662 $626 $35 $-1 $721 reversed single #
point $-1 -0.59375 -1.25 0.59375 #
face $-1 $643 $542 $35 $-1 $501 reversed single #
face $-1 $722 $698 $35 $-1 $545 reversed single #
edge $-1 $546 -1.25 $657 1.25 $656 $723 forward 7 unknown #
point $-1 -0.59375 -1.25 -0.59375 #
edge $-1 $547 -1.25 $647 1.25 $639 $724 forward 7 unknown #
point $-1 0.59375 -1.25 0.59375 #
convexity-sys-attrib $-1 $-1 $-1 $549 #
straight-curve $-1 0 -1.25 -0.27559999999999985 1 0 0 I I #
convexity-sys-attrib $-1 $-1 $-1 $555 #
straight-curve $-1 0 -1.25 0.27559999999999985 -1 0 0 I I #
pcurve $-1 0 forward { exppc nubs 1 open 2 
	0 1 0.625 1 
	0 0 
	0 -0.625 
	0 
	plane 0.49035659064664999 -0.625 0.27560000000000001 -9.9772379497065721e-033 0 1 1 0 9.9772379497065721e-033 forward_v I I I I 
	} 0 0 #
coedge $-1 $574 $569 $564 $674 forward $561 $-1 #
edge $725 $571 -0.51203934811825169 $675 0.5120399272084255 $564 $726 forward 7 unknown #
tvertex-vertex $-1 $578 $727 1.1591206553275105e-006 #
straight-curve $-1 0.49035659064664999 -0.625 0.27560000000000001 0 -1 0 F 0 F 0.625 #
point $-1 0.49035659064664999 -1.25 0.27560000000000001 #
convexity-sys-attrib $-1 $-1 $-1 $570 #
straight-curve $-1 0.27102664766166251 -0.625 -0.27559999999999985 -1 0 -9.9772379497065721e-033 I I #
point $-1 0.49035776070392401 -0.625 -0.27560028395746 #
convexity-sys-attrib $-1 $-1 $-1 $578 #
straight-curve $-1 0.27102664766166251 -0.625 0.27559999999999985 1 0 9.9772379497065721e-033 I I #
face_name-twe-attrib $-1 $-1 $582 $444 8 #
model_id-kcp-attrib $-1 $728 $-1 $583 1 990669505 60 456916993 10 #
plane-surface $729 -0.71250000000000002 -0.72499999999999998 0.27560000000000001 0 0 -1 -1 0 0 forward_v I I I I #
surf-twe-attrib $-1 $-1 $-1 $584 112 #
convexity-sys-attrib $-1 $730 $587 $449 #
point $-1 -0.125 0.375 0 #
cur-twe-attrib $-1 $-1 $-1 $589 117 #
point $-1 0.49035792029904102 -0.625 -0.27560000000000001 #
cur-twe-attrib $-1 $731 $-1 $592 119 #
cur-twe-attrib $-1 $-1 $-1 $597 125 #
cur-twe-attrib $-1 $-1 $-1 $599 127 #
cur-twe-attrib $-1 $-1 $-1 $607 138 #
loop $-1 $-1 $621 $615 #
coedge $-1 $697 $619 $624 $702 reversed $698 $-1 #
coedge $-1 $619 $696 $641 $644 reversed $698 $-1 #
loop $-1 $-1 $619 $663 #
coedge $-1 $700 $621 $642 $524 forward $695 $-1 #
coedge $-1 $621 $699 $623 $635 reversed $695 $-1 #
coedge $-1 $624 $623 $712 $715 forward $626 $-1 #
edge $-1 $713 -0.59375 $509 -2.2260588839547353e-033 $696 $709 forward 7 unknown #
coedge $-1 $718 $625 $631 $633 forward $705 $-1 #
coedge $-1 $625 $718 $627 $706 forward $705 $-1 #
loop $-1 $-1 $625 $722 #
edge $-1 $657 -0.59375 $510 2.2260588839547353e-033 $627 $710 forward 7 unknown #
face $-1 $708 $629 $35 $-1 $651 reversed single #
face $-1 $390 $632 $35 $-1 $545 reversed single #
straight-curve $-1 0 -1.25 -0.59375 -1 0 0 I I #
straight-curve $-1 0 1.25 -0.59375 1 0 0 I I #
straight-curve $-1 0.59375 -1.25 0 0 0 -1 I I #
coedge $-1 $642 $641 $701 $715 reversed $616 $-1 #
vertex $-1 $644 $732 #
point $-1 0.59375 1.25 0.59375 #
edge $-1 $652 -1.25 $713 1.25 $712 $733 forward 7 unknown #
point $-1 0.59375 1.25 -0.59375 #
point $-1 -0.59375 1.25 0.59375 #
coedge $-1 $704 $703 $656 $664 forward $705 $-1 #
point $-1 -0.59375 1.25 -0.59375 #
straight-curve $-1 -0.59375 0 0.59375 0 -1 0 I I #
plane-surface $-1 0 0 -0.59375 0 0 1 1 0 0 forward_v I I I I #
face $-1 $538 $705 $35 $-1 $721 reversed single #
straight-curve $-1 -0.59375 0 -0.59375 0 1 0 I I #
straight-curve $-1 0.59375 0 0.59375 0 1 0 I I #
convexity-sys-attrib $-1 $-1 $-1 $674 #
ellipse-curve $-1 0 -0.625 0 0 -1 0 0.5625 0 0 1 I I #
point $-1 0.49035659064664999 -0.625 0.27560000000000001 #
face_name-twe-attrib $-1 $-1 $684 $583 9 #
surf-twe-attrib $-1 $-1 $-1 $685 150 #
edge_name-twe-attrib $-1 $-1 $687 $449 7 4608 #
cur-twe-attrib $-1 $-1 $691 $592 59 #
point $-1 0.59375 -1.25 -0.59375 #
straight-curve $-1 0.59375 0 -0.59375 0 -1 0 I I #
End-of-ACIS-data 