700 0 2 0           
24 FBMach with ACIS - 7.0.3 13 ACIS 7.0.3 NT 24 Tue May 14 10:17:28 2002 
1 9.9999999999999995e-007 1e-010 
body $2 -1 $-1 $3 $-1 $4 #
bdycol-kcp $-1 -1 1 6 $5 $6 $7 $8 $9 $10 #
model_id-kcp-attrib $-1 -1 $-1 $-1 $0 1 1021385847 1021385847 -586219519 1 #
lump $-1 -1 $-1 $-1 $11 $0 #
transform $-1 -1 1 0 0 0 1 0 0 0 1 0 0 0 1 rotate no_reflect no_shear #
body $12 -1 $-1 $13 $-1 $14 #
body $15 -1 $-1 $16 $-1 $17 #
body $18 -1 $-1 $19 $-1 $20 #
body $21 -1 $-1 $22 $-1 $23 #
body $24 -1 $-1 $25 $-1 $26 #
body $27 -1 $-1 $28 $-1 $29 #
shell $-1 -1 $-1 $-1 $-1 $30 $-1 $3 #
model_id-kcp-attrib $-1 -1 $-1 $-1 $5 1 1021385847 1021385847 -586219518 1 #
lump $-1 -1 $-1 $-1 $31 $5 #
transform $-1 -1 1 0 0 0 1 0 0 0 1 0 0.625 0 1 no_rotate no_reflect no_shear #
rgb_color-st-attrib $-1 -1 $32 $-1 $6 0.5 1 1 #
lump $-1 -1 $-1 $-1 $33 $6 #
transform $-1 -1 1 0 0 0 -3.8285889215894375e-016 -1 0 1 -3.8285889215894375e-016 0 1.125 -7.1786042279801954e-016 1 rotate no_reflect no_shear #
rgb_color-st-attrib $-1 -1 $34 $-1 $7 0.5 1 1 #
lump $-1 -1 $-1 $-1 $35 $7 #
transform $-1 -1 1 0 0 0 1 0 0 0 1 0 0.625 0 1 no_rotate no_reflect no_shear #
rgb_color-st-attrib $-1 -1 $36 $-1 $8 1 0.5 1 #
lump $-1 -1 $-1 $-1 $37 $8 #
transform $-1 -1 1 0 0 0 1 0 0 0 1 0 0.625 0 1 no_rotate no_reflect no_shear #
rgb_color-st-attrib $-1 -1 $38 $-1 $9 1 0.5 1 #
lump $-1 -1 $-1 $-1 $39 $9 #
transform $-1 -1 1 0 0 0 1 0 0 0 1 0 0.625 0 1 no_rotate no_reflect no_shear #
rgb_color-st-attrib $-1 -1 $40 $-1 $10 1 0.5 1 #
lump $-1 -1 $-1 $-1 $41 $10 #
transform $-1 -1 1 0 0 0 1 0 0 0 1 0 0.625 0 1 no_rotate no_reflect no_shear #
face $42 -1 $-1 $43 $44 $11 $-1 $45 forward single #
shell $-1 -1 $-1 $-1 $-1 $46 $-1 $13 #
model_id-kcp-attrib $-1 -1 $-1 $15 $6 1 1021385847 1021385847 -584253437 1 #
shell $-1 -1 $-1 $-1 $-1 $47 $-1 $16 #
model_id-kcp-attrib $-1 -1 $-1 $18 $7 1 1021385847 1021385847 -580976636 1 #
shell $-1 -1 $-1 $-1 $-1 $48 $-1 $19 #
model_id-kcp-attrib $-1 -1 $-1 $21 $8 1 1021385847 1021385848 -585695227 1 #
shell $-1 -1 $-1 $-1 $-1 $49 $-1 $22 #
model_id-kcp-attrib $-1 -1 $-1 $24 $9 1 1021385847 1021385848 -584056825 1 #
shell $-1 -1 $-1 $-1 $-1 $50 $-1 $25 #
model_id-kcp-attrib $-1 -1 $-1 $27 $10 1 1021385847 1021385848 -578486266 1 #
shell $-1 -1 $-1 $-1 $-1 $51 $-1 $28 #
model_id-kcp-attrib $-1 -1 $52 $-1 $30 1 1021385847 1021385847 -586219519 2 #
face $53 -1 $-1 $54 $55 $11 $-1 $56 reversed single #
loop $57 -1 $-1 $58 $59 $30 #
plane-surface $60 -1 $-1 0 1.875 0 0 1 0 0 0 1 forward_v I I I I #
face $-1 -1 $-1 $61 $62 $31 $-1 $63 forward single #
face $-1 -1 $-1 $64 $65 $33 $-1 $66 forward single #
face $-1 -1 $-1 $67 $68 $35 $-1 $69 reversed single #
face $-1 -1 $-1 $70 $71 $37 $-1 $72 forward single #
face $-1 -1 $-1 $73 $74 $39 $-1 $75 forward single #
face $-1 -1 $-1 $76 $77 $41 $-1 $78 forward single #
face_name-twe-attrib $-1 -1 $-1 $42 $30 1 #
model_id-kcp-attrib $-1 -1 $79 $-1 $43 1 1021385847 1021385847 -586219519 3 #
face $80 -1 $-1 $81 $82 $11 $-1 $83 forward single #
loop $84 -1 $-1 $85 $86 $43 #
plane-surface $87 -1 $-1 0 0 0 0 1 0 0 0 1 forward_v I I I I #
loop_type-twe-attrib $-1 -1 $-1 $-1 $44 0 #
loop $88 -1 $-1 $-1 $89 $30 #
coedge $-1 -1 $-1 $59 $59 $90 $91 forward $44 $-1 #
surf-twe-attrib $-1 -1 $-1 $-1 $45 4 #
face $-1 -1 $-1 $92 $93 $31 $-1 $94 reversed single #
loop $-1 -1 $-1 $-1 $95 $46 #
plane-surface $-1 -1 $-1 0 0 0.59375 0 0 1 1 0 0 forward_v I I I I #
face $-1 -1 $-1 $96 $97 $33 $-1 $98 forward single #
loop $-1 -1 $-1 $99 $100 $47 #
cone-surface $-1 -1 $-1 0 0 0 0 0 1 0.125 0 0 1 I I 0 1 0.125 forward I I I I #
face $-1 -1 $-1 $101 $102 $35 $-1 $69 reversed single #
loop $-1 -1 $-1 $-1 $103 $48 #
cone-surface $-1 -1 $-1 -2.2260588839547353e-033 1.25 0 0 1 0 -0.59375 0 -7.271100225820365e-017 1 I I 0 1 0.59375 forward I I I I #
face $-1 -1 $-1 $104 $105 $37 $-1 $106 forward single #
loop $-1 -1 $-1 $-1 $107 $49 #
cone-surface $-1 -1 $-1 -2.2260588839547353e-033 1.25 0 0 1 0 -0.59375 0 -7.271100225820365e-017 1 I I 0 1 0.59375 forward I I I I #
face $-1 -1 $-1 $108 $109 $39 $-1 $110 forward single #
loop $-1 -1 $-1 $-1 $111 $50 #
cone-surface $-1 -1 $-1 0 -0.625 0 0 -1 0 0.5625 0 0 1 I I 0 -1 0.5625 forward I I I I #
face $-1 -1 $-1 $112 $113 $41 $-1 $114 forward single #
loop $-1 -1 $-1 $-1 $115 $51 #
cone-surface $-1 -1 $-1 -2.2260588839547353e-033 1.25 0 0 1 0 -0.59375 0 -7.271100225820365e-017 1 I I 0 1 0.59375 forward I I I I #
face_name-twe-attrib $-1 -1 $-1 $53 $43 2 #
model_id-kcp-attrib $-1 -1 $116 $-1 $54 1 1021385847 1021385847 -586219519 4 #
face $117 -1 $-1 $118 $119 $11 $-1 $120 reversed single #
loop $121 -1 $-1 $122 $123 $54 #
cone-surface $124 -1 $-1 0 -0.75 0 0 1 0 0.5625 0 0 1 I I 0 1 0.5625 forward I I I I #
loop_type-twe-attrib $-1 -1 $-1 $-1 $55 0 #
loop $125 -1 $-1 $-1 $126 $43 #
coedge $-1 -1 $-1 $86 $86 $127 $128 forward $55 $-1 #
surf-twe-attrib $-1 -1 $-1 $-1 $56 6 #
loop_type-twe-attrib $-1 -1 $-1 $-1 $58 1 #
coedge $-1 -1 $-1 $89 $89 $129 $130 reversed $58 $-1 #
coedge $-1 -1 $-1 $90 $90 $59 $91 reversed $131 $-1 #
edge $132 -1 $-1 $133 -3.1415926535897931 $133 3.1415926535897931 $90 $134 reversed @7 unknown #
face $135 -1 $-1 $136 $137 $31 $-1 $138 reversed single #
loop $-1 -1 $-1 $-1 $139 $61 #
plane-surface $-1 -1 $-1 0 0 -0.59375 0 0 1 1 0 0 forward_v I I I I #
coedge $-1 -1 $-1 $140 $141 $142 $143 forward $62 $-1 #
face $-1 -1 $-1 $-1 $144 $33 $-1 $145 forward single #
loop $-1 -1 $-1 $-1 $146 $64 #
plane-surface $-1 -1 $-1 0 0 -0.75 0 0 -1 -1 0 0 forward_v I I I I #
loop $-1 -1 $-1 $-1 $147 $47 #
coedge $-1 -1 $-1 $100 $100 $146 $148 reversed $65 $-1 #
face $-1 -1 $-1 $149 $150 $35 $-1 $69 reversed single #
loop $-1 -1 $-1 $-1 $151 $67 #
coedge $-1 -1 $-1 $152 $153 $154 $155 reversed $68 $-1 #
face $-1 -1 $-1 $156 $157 $37 $-1 $158 forward single #
loop $-1 -1 $-1 $-1 $159 $70 #
plane-surface $-1 -1 $-1 0.52591225741562642 -0.625 -0.27559999999999985 0 1 0 0 0 1 forward_v I I I I #
coedge $-1 -1 $-1 $160 $161 $159 $162 forward $71 $-1 #
face $-1 -1 $-1 $163 $164 $39 $-1 $165 forward single #
loop $-1 -1 $-1 $-1 $166 $73 #
plane-surface $-1 -1 $-1 0.49035792029904041 -0.625 0.27560000000000007 -9.9772379497065721e-033 0 1 1 0 9.9772379497065721e-033 forward_v I I I I #
coedge $-1 -1 $-1 $167 $168 $169 $170 forward $74 $-1 #
face $-1 -1 $-1 $171 $172 $41 $-1 $173 forward single #
loop $-1 -1 $-1 $-1 $174 $76 #
plane-surface $-1 -1 $-1 -0.52591225741562642 -0.625 0.27559999999999985 0 1 0 0 0 1 forward_v I I I I #
coedge $-1 -1 $-1 $175 $176 $174 $177 forward $77 $-1 #
face_name-twe-attrib $-1 -1 $-1 $80 $54 3 #
model_id-kcp-attrib $-1 -1 $178 $-1 $81 1 1021385847 1021385847 -586219519 5 #
face $179 -1 $-1 $180 $181 $11 $-1 $182 forward single #
loop $183 -1 $-1 $-1 $184 $81 #
plane-surface $185 -1 $-1 0 -0.625 0 0 1 0 0 0 1 forward_v I I I I #
loop_type-twe-attrib $-1 -1 $-1 $-1 $82 0 #
loop $186 -1 $-1 $-1 $187 $54 #
coedge $-1 -1 $-1 $188 $189 $190 $191 forward $82 $-1 #
surf-twe-attrib $-1 -1 $-1 $-1 $83 10 #
loop_type-twe-attrib $-1 -1 $-1 $-1 $85 1 #
coedge $-1 -1 $-1 $192 $193 $194 $195 reversed $85 $-1 #
coedge $-1 -1 $-1 $127 $127 $86 $128 reversed $196 $-1 #
edge $197 -1 $-1 $198 -6.2831853071795862 $198 -1.2246465878873718e-016 $86 $199 reversed @7 unknown #
coedge $-1 -1 $-1 $129 $129 $89 $130 forward $200 $-1 #
edge $201 -1 $-1 $202 -3.1415926535897931 $202 3.1415926535897931 $129 $203 reversed @7 unknown #
loop $204 -1 $-1 $196 $90 $180 #
attrib_edge_convexity-kcp-attrib $-1 -1 $205 $-1 $91 1 #
vertex $-1 -1 $-1 $91 $206 #
ellipse-curve $-1 -1 $-1 0 1.875 0 0 -1 0 0.59375 0 0 1 I I #
model_id-kcp-attrib $-1 -1 $-1 $-1 $92 1 1021385847 1021385847 -586219518 3 #
face $-1 -1 $-1 $207 $208 $31 $-1 $209 reversed single #
loop $-1 -1 $-1 $-1 $210 $92 #
plane-surface $-1 -1 $-1 0 -1.25 0 0 1 0 0 0 1 forward_v I I I I #
coedge $-1 -1 $-1 $211 $212 $213 $214 forward $93 $-1 #
coedge $-1 -1 $-1 $215 $95 $216 $217 forward $62 $-1 #
coedge $-1 -1 $-1 $95 $215 $218 $219 forward $62 $-1 #
coedge $-1 -1 $-1 $220 $221 $95 $143 reversed $222 $-1 #
edge $-1 -1 $-1 $223 -1.25 $224 1.25 $142 $225 forward @7 unknown #
loop $-1 -1 $-1 $-1 $226 $96 #
plane-surface $-1 -1 $-1 0 0 0.75 0 0 1 1 0 0 forward_v I I I I #
coedge $-1 -1 $-1 $146 $146 $100 $148 forward $97 $-1 #
coedge $-1 -1 $-1 $147 $147 $226 $227 reversed $99 $-1 #
edge $-1 -1 $-1 $228 0 $228 6.2831853071795862 $146 $229 forward @7 unknown #
face $-1 -1 $-1 $230 $231 $35 $-1 $69 reversed single #
loop $-1 -1 $-1 $-1 $232 $101 #
coedge $-1 -1 $-1 $233 $234 $235 $236 reversed $102 $-1 #
coedge $-1 -1 $-1 $237 $103 $238 $239 forward $68 $-1 #
coedge $-1 -1 $-1 $103 $237 $240 $241 reversed $68 $-1 #
coedge $-1 -1 $-1 $242 $243 $103 $155 forward $244 $-1 #
edge $-1 -1 $-1 $245 1.2246063538223773e-016 $246 1.5707963267948968 $154 $247 forward @7 unknown #
face $-1 -1 $-1 $-1 $248 $37 $-1 $249 forward single #
loop $-1 -1 $-1 $-1 $250 $104 #
plane-surface $-1 -1 $-1 -0.52591225741562642 -1.25 -0.27559999999999985 0 -1 0 0 0 -1 forward_v I I I I #
coedge $-1 -1 $-1 $251 $251 $107 $162 reversed $105 $-1 #
coedge $-1 -1 $-1 $252 $107 $253 $254 reversed $71 $-1 #
coedge $-1 -1 $-1 $107 $252 $255 $256 reversed $71 $-1 #
edge $-1 -1 $-1 $257 0.48269553519085773 $258 2.6588971183989352 $159 $259 forward @7 unknown #
face $-1 -1 $-1 $260 $261 $39 $-1 $262 forward single #
loop $-1 -1 $-1 $-1 $263 $108 #
cone-surface $-1 -1 $-1 -2.2260588839547353e-033 -0.625 0 0 -1 0 -0.59375 0 -7.271100225820365e-017 1 I I 0 1 0.59375 forward I I I I #
coedge $-1 -1 $-1 $264 $265 $266 $267 forward $109 $-1 #
coedge $-1 -1 $-1 $268 $111 $265 $269 reversed $74 $-1 #
coedge $-1 -1 $-1 $111 $268 $270 $271 forward $74 $-1 #
coedge $-1 -1 $-1 $272 $266 $111 $170 reversed $273 $-1 #
edge $-1 -1 $-1 $274 -0.51203876903612677 $275 0.51203876903612677 $111 $276 forward @7 unknown #
face $-1 -1 $-1 $-1 $277 $41 $-1 $278 reversed single #
loop $-1 -1 $-1 $-1 $279 $112 #
plane-surface $-1 -1 $-1 0.52591225741562642 -1.25 0.27559999999999985 0 -1 0 0 0 -1 forward_v I I I I #
coedge $-1 -1 $-1 $280 $280 $115 $177 reversed $113 $-1 #
coedge $-1 -1 $-1 $281 $115 $282 $283 reversed $77 $-1 #
coedge $-1 -1 $-1 $115 $281 $284 $285 reversed $77 $-1 #
edge $-1 -1 $-1 $286 -2.6588971183989356 $287 -0.48269553519085784 $174 $288 forward @7 unknown #
face_name-twe-attrib $-1 -1 $-1 $117 $81 4 #
model_id-kcp-attrib $-1 -1 $289 $-1 $118 1 1021385847 1021385847 -586219519 6 #
face $290 -1 $-1 $291 $131 $11 $-1 $292 forward single #
loop $293 -1 $-1 $-1 $294 $118 #
plane-surface $295 -1 $-1 0 0.375 0 0 1 0 0 0 1 forward_v I I I I #
loop_type-twe-attrib $-1 -1 $-1 $-1 $119 0 #
coedge $-1 -1 $-1 $190 $296 $297 $298 forward $119 $-1 #
surf-twe-attrib $-1 -1 $-1 $-1 $120 18 #
loop_type-twe-attrib $-1 -1 $-1 $-1 $122 1 #
coedge $-1 -1 $-1 $299 $300 $301 $302 forward $122 $-1 #
coedge $-1 -1 $-1 $194 $123 $303 $304 reversed $82 $-1 #
coedge $-1 -1 $-1 $123 $194 $305 $306 forward $82 $-1 #
coedge $-1 -1 $-1 $307 $184 $123 $191 reversed $119 $-1 #
edge $308 -1 $-1 $309 2.6295538845536663 $310 3.6536314226259199 $190 $311 forward @7 unknown #
coedge $-1 -1 $-1 $301 $126 $312 $313 reversed $85 $-1 #
coedge $-1 -1 $-1 $126 $301 $314 $315 forward $85 $-1 #
coedge $-1 -1 $-1 $189 $188 $126 $195 forward $82 $-1 #
edge $316 -1 $-1 $317 2.6295538845536663 $318 3.6536314226259199 $194 $319 forward @7 unknown #
loop $320 -1 $-1 $-1 $127 $180 #
attrib_edge_convexity-kcp-attrib $-1 -1 $321 $-1 $128 1 #
vertex $-1 -1 $-1 $128 $322 #
ellipse-curve $-1 -1 $-1 0 0 0 0 1 0 0.59375 0 0 1 I I #
loop $323 -1 $-1 $-1 $129 $291 #
attrib_edge_convexity-kcp-attrib $-1 -1 $324 $-1 $130 1 #
vertex $-1 -1 $-1 $130 $325 #
ellipse-curve $-1 -1 $-1 0 1.875 0 0 -1 0 0.125 0 0 1 I I #
loop_type-twe-attrib $-1 -1 $-1 $-1 $131 0 #
convexity-sys-attrib $-1 -1 $326 $132 $91 #
point $-1 -1 $-1 -0.59375 1.875 0 #
face $327 -1 $-1 $328 $329 $31 $-1 $330 reversed single #
loop $-1 -1 $-1 $-1 $331 $136 #
plane-surface $-1 -1 $-1 -0.59375 0 0 1 0 0 0 0 -1 forward_v I I I I #
coedge $-1 -1 $-1 $332 $218 $333 $334 forward $137 $-1 #
coedge $-1 -1 $-1 $335 $139 $332 $336 forward $93 $-1 #
coedge $-1 -1 $-1 $139 $335 $337 $338 forward $93 $-1 #
coedge $-1 -1 $-1 $221 $220 $139 $214 reversed $222 $-1 #
edge $-1 -1 $-1 $339 -1.25 $340 1.25 $213 $341 forward @7 unknown #
coedge $-1 -1 $-1 $141 $140 $342 $343 forward $62 $-1 #
coedge $-1 -1 $-1 $344 $345 $140 $217 reversed $329 $-1 #
edge $-1 -1 $-1 $224 -0.59375 $346 0.59375 $216 $347 forward @7 unknown #
coedge $-1 -1 $-1 $210 $348 $141 $219 reversed $137 $-1 #
edge $-1 -1 $-1 $349 -0.59375 $223 0.59375 $218 $350 forward @7 unknown #
coedge $-1 -1 $-1 $213 $142 $348 $351 forward $222 $-1 #
coedge $-1 -1 $-1 $142 $213 $344 $352 reversed $222 $-1 #
loop $-1 -1 $-1 $-1 $220 $328 #
vertex $-1 -1 $-1 $143 $353 #
vertex $-1 -1 $-1 $143 $354 #
straight-curve $-1 -1 $-1 0.59375 0 0.59375 0 1 0 I I #
coedge $-1 -1 $-1 $226 $226 $147 $227 forward $144 $-1 #
edge $-1 -1 $-1 $355 0 $355 6.2831853071795862 $226 $356 forward @7 unknown #
vertex $-1 -1 $-1 $148 $357 #
ellipse-curve $-1 -1 $-1 0 0 -0.75 0 0 -1 0.125 0 0 1 I I #
face $-1 -1 $-1 $358 $359 $35 $-1 $360 forward single #
loop $-1 -1 $-1 $-1 $361 $149 #
coedge $-1 -1 $-1 $362 $363 $361 $364 forward $150 $-1 #
coedge $-1 -1 $-1 $365 $151 $366 $367 reversed $102 $-1 #
coedge $-1 -1 $-1 $151 $365 $153 $241 forward $102 $-1 #
coedge $-1 -1 $-1 $368 $369 $151 $236 forward $370 $-1 #
edge $-1 -1 $-1 $371 -3.1415926535897931 $372 -1.5707963267948968 $235 $373 forward @7 unknown #
coedge $-1 -1 $-1 $153 $152 $374 $375 reversed $68 $-1 #
coedge $-1 -1 $-1 $363 $362 $376 $239 reversed $150 $-1 #
edge $-1 -1 $-1 $245 -2.5 $377 0 $376 $378 forward @7 unknown #
coedge $-1 -1 $-1 $379 $380 $381 $241 forward $382 $-1 #
edge $-1 -1 $-1 $246 -2.5 $372 0 $240 $383 forward @7 unknown #
coedge $-1 -1 $-1 $243 $154 $380 $384 reversed $244 $-1 #
coedge $-1 -1 $-1 $154 $242 $385 $386 forward $244 $-1 #
loop $-1 -1 $-1 $-1 $154 $387 #
vertex $-1 -1 $-1 $388 $389 #
vertex $-1 -1 $-1 $390 $391 #
ellipse-curve $-1 -1 $-1 -2.2260588839547353e-033 -1.25 0 0 1 0 -0.59375 0 -7.271100225820365e-017 1 I I #
loop $-1 -1 $-1 $-1 $392 $156 #
plane-surface $-1 -1 $-1 1.3877787807814457e-017 -0.9375 -0.27559999999999985 -9.9772379497065721e-033 0 1 1 0 9.9772379497065721e-033 forward_v I I I I #
coedge $-1 -1 $-1 $393 $393 $252 $394 reversed $157 $-1 #
coedge $-1 -1 $-1 $159 $159 $392 $395 reversed $105 $-1 #
coedge $-1 -1 $-1 $161 $160 $250 $394 forward $71 $-1 #
coedge $-1 -1 $-1 $392 $396 $160 $254 forward $248 $-1 #
edge $397 -1 $-1 $398 -2.5 $258 -1.875 $253 $399 forward @7 unknown #
coedge $-1 -1 $-1 $396 $392 $161 $256 forward $248 $-1 #
edge $400 -1 $-1 $257 1.875 $401 2.5 $255 $402 forward @7 unknown #
vertex $-1 -1 $-1 $395 $403 #
vertex $-1 -1 $-1 $395 $404 #
ellipse-curve $-1 -1 $-1 -2.2260588839547353e-033 -0.625 0 0 -1 0 -0.59375 0 -7.271100225820365e-017 1 I I #
face $-1 -1 $-1 $405 $273 $39 $-1 $406 reversed single #
loop $-1 -1 $-1 $-1 $407 $163 #
plane-surface $-1 -1 $-1 0.52591225741562642 -0.625 -0.27559999999999985 9.9772379497065721e-033 0 -1 -1 0 -9.9772379497065721e-033 forward_v I I I I #
coedge $-1 -1 $-1 $408 $409 $410 $411 forward $164 $-1 #
coedge $-1 -1 $-1 $412 $166 $409 $413 reversed $109 $-1 #
coedge $-1 -1 $-1 $166 $412 $167 $269 forward $109 $-1 #
coedge $-1 -1 $-1 $169 $410 $166 $267 reversed $273 $-1 #
edge $-1 -1 $-1 $275 0.21933094022428029 $414 0.2548852773408663 $166 $415 forward @7 unknown #
coedge $-1 -1 $-1 $168 $167 $416 $417 reversed $74 $-1 #
edge $-1 -1 $-1 $418 0 $275 0.625 $265 $419 forward @7 unknown #
coedge $-1 -1 $-1 $420 $407 $168 $271 reversed $261 $-1 #
edge $-1 -1 $-1 $421 0 $274 0.625 $168 $422 forward @7 unknown #
coedge $-1 -1 $-1 $410 $169 $407 $423 reversed $273 $-1 #
loop $-1 -1 $-1 $-1 $169 $260 #
vertex $-1 -1 $-1 $271 $424 #
vertex $-1 -1 $-1 $269 $425 #
ellipse-curve $-1 -1 $-1 0 -1.25 0 0 -1 0 0.5625 0 0 1 I I #
loop $-1 -1 $-1 $-1 $426 $171 #
plane-surface $-1 -1 $-1 1.3877787807814457e-017 -0.9375 0.27559999999999985 -9.9772379497065721e-033 0 1 1 0 9.9772379497065721e-033 forward_v I I I I #
coedge $-1 -1 $-1 $427 $427 $281 $428 reversed $172 $-1 #
coedge $-1 -1 $-1 $174 $174 $426 $429 reversed $113 $-1 #
coedge $-1 -1 $-1 $176 $175 $279 $428 forward $77 $-1 #
coedge $-1 -1 $-1 $426 $430 $175 $283 forward $277 $-1 #
edge $431 -1 $-1 $432 -2.5 $287 -1.875 $282 $433 forward @7 unknown #
coedge $-1 -1 $-1 $430 $426 $176 $285 forward $277 $-1 #
edge $434 -1 $-1 $286 1.875 $435 2.5 $284 $436 forward @7 unknown #
vertex $-1 -1 $-1 $429 $437 #
vertex $-1 -1 $-1 $429 $438 #
ellipse-curve $-1 -1 $-1 -2.2260588839547353e-033 -0.625 0 0 -1 0 -0.59375 0 -7.271100225820365e-017 1 I I #
face_name-twe-attrib $-1 -1 $-1 $179 $118 5 #
model_id-kcp-attrib $-1 -1 $439 $-1 $180 1 1021385847 1021385847 -586219519 7 #
face $440 -1 $-1 $441 $442 $11 $-1 $443 reversed single #
cone-surface $444 -1 $-1 0 -0.75 0 0 1 0 0.59375 0 0 1 I I 0 1 0.59375 forward I I I I #
loop_type-twe-attrib $-1 -1 $-1 $-1 $181 0 #
coedge $-1 -1 $-1 $294 $294 $445 $446 forward $181 $-1 #
surf-twe-attrib $-1 -1 $-1 $-1 $182 30 #
coedge $-1 -1 $-1 $184 $307 $447 $448 reversed $119 $-1 #
coedge $-1 -1 $-1 $449 $303 $184 $298 reversed $450 $-1 #
edge $451 -1 $-1 $452 -0.84660792029904042 $310 0.13410792029904034 $297 $453 reversed @7 unknown #
coedge $-1 -1 $-1 $447 $187 $449 $454 forward $122 $-1 #
coedge $-1 -1 $-1 $187 $447 $455 $456 reversed $122 $-1 #
coedge $-1 -1 $-1 $193 $192 $187 $302 reversed $85 $-1 #
edge $457 -1 $-1 $458 -0.51203876903612677 $459 0.51203876903612666 $187 $460 forward @7 unknown #
coedge $-1 -1 $-1 $297 $312 $188 $304 forward $450 $-1 #
edge $461 -1 $-1 $317 -0.75 $310 -0.125 $303 $462 reversed @7 unknown #
coedge $-1 -1 $-1 $314 $463 $189 $306 reversed $464 $-1 #
edge $465 -1 $-1 $318 -0.75 $309 -0.125 $305 $466 forward @7 unknown #
coedge $-1 -1 $-1 $296 $190 $463 $467 reversed $119 $-1 #
edge_name-twe-attrib $-1 -1 $-1 $-1 $191 4 8704 #
vertex $-1 -1 $-1 $306 $468 #
vertex $-1 -1 $-1 $304 $469 #
ellipse-curve $-1 -1 $-1 0 -0.625 0 0 1 0 0.5625 0 0 1 I I #
coedge $-1 -1 $-1 $303 $449 $192 $313 forward $450 $-1 #
edge $470 -1 $-1 $459 -0.84660792029904042 $317 0.13410792029904034 $312 $471 reversed @7 unknown #
coedge $-1 -1 $-1 $455 $305 $193 $315 reversed $464 $-1 #
edge $472 -1 $-1 $458 -0.84660792029904042 $318 0.13410792029904034 $314 $473 forward @7 unknown #
attrib_edge_convexity-kcp-attrib $-1 -1 $474 $-1 $195 2 #
vertex $-1 -1 $-1 $304 $475 #
vertex $-1 -1 $-1 $306 $476 #
ellipse-curve $-1 -1 $-1 0 0 0 0 -1 0 0.5625 0 0 1 I I #
loop_type-twe-attrib $-1 -1 $-1 $-1 $196 1 #
convexity-sys-attrib $-1 -1 $477 $197 $128 #
point $-1 -1 $-1 0.59375 0 -7.2713391155812703e-017 #
loop_type-twe-attrib $-1 -1 $-1 $-1 $200 1 #
convexity-sys-attrib $-1 -1 $478 $201 $130 #
point $-1 -1 $-1 -0.125 1.875 0 #
edge_name-twe-attrib $-1 -1 $-1 $205 $91 6 8704 #
model_id-kcp-attrib $-1 -1 $-1 $-1 $207 1 1021385847 1021385847 -586219518 2 #
face $-1 -1 $-1 $-1 $222 $31 $-1 $479 reversed single #
loop $-1 -1 $-1 $-1 $344 $207 #
plane-surface $-1 -1 $-1 0 1.25 0 0 -1 0 0 0 -1 forward_v I I I I #
coedge $-1 -1 $-1 $480 $342 $345 $481 forward $208 $-1 #
coedge $-1 -1 $-1 $348 $210 $211 $336 reversed $137 $-1 #
coedge $-1 -1 $-1 $342 $480 $210 $334 reversed $208 $-1 #
edge $-1 -1 $-1 $349 -0.59375 $482 0.59375 $333 $483 forward @7 unknown #
coedge $-1 -1 $-1 $212 $211 $480 $484 forward $93 $-1 #
edge $-1 -1 $-1 $340 -0.59375 $482 0.59375 $332 $485 forward @7 unknown #
coedge $-1 -1 $-1 $345 $344 $212 $338 reversed $329 $-1 #
edge $-1 -1 $-1 $486 -0.59375 $339 0.59375 $337 $487 forward @7 unknown #
vertex $-1 -1 $-1 $214 $488 #
vertex $-1 -1 $-1 $351 $489 #
straight-curve $-1 -1 $-1 0.59375 0 -0.59375 0 -1 0 I I #
coedge $-1 -1 $-1 $331 $333 $215 $343 reversed $208 $-1 #
edge $-1 -1 $-1 $346 -1.25 $349 1.25 $342 $490 forward @7 unknown #
coedge $-1 -1 $-1 $337 $216 $221 $352 forward $329 $-1 #
coedge $-1 -1 $-1 $216 $337 $331 $481 reversed $329 $-1 #
vertex $-1 -1 $-1 $217 $491 #
straight-curve $-1 -1 $-1 0 1.25 0.59375 -1 0 0 I I #
coedge $-1 -1 $-1 $218 $332 $220 $351 reversed $137 $-1 #
vertex $-1 -1 $-1 $343 $492 #
straight-curve $-1 -1 $-1 0 -1.25 0.59375 1 0 0 I I #
edge $-1 -1 $-1 $223 -0.59375 $340 0.59375 $220 $493 forward @7 unknown #
edge $-1 -1 $-1 $224 -0.59375 $339 0.59375 $221 $494 forward @7 unknown #
point $-1 -1 $-1 0.59375 -1.25 0.59375 #
point $-1 -1 $-1 0.59375 1.25 0.59375 #
vertex $-1 -1 $-1 $227 $495 #
ellipse-curve $-1 -1 $-1 0 0 0.75 0 0 1 0.125 0 0 1 I I #
point $-1 -1 $-1 0.125 0 -0.75 #
face $-1 -1 $-1 $496 $497 $35 $-1 $498 reversed single #
loop $-1 -1 $-1 $-1 $381 $230 #
plane-surface $-1 -1 $-1 0 0 0.59375 0 0 1 1 0 0 forward_v I I I I #
coedge $-1 -1 $-1 $499 $500 $501 $364 reversed $231 $-1 #
coedge $-1 -1 $-1 $238 $232 $502 $503 reversed $150 $-1 #
coedge $-1 -1 $-1 $232 $238 $504 $505 reversed $150 $-1 #
edge $-1 -1 $-1 $506 -2.5 $507 0 $501 $508 forward @7 unknown #
coedge $-1 -1 $-1 $234 $233 $509 $510 reversed $102 $-1 #
coedge $-1 -1 $-1 $511 $512 $513 $367 forward $514 $-1 #
edge $-1 -1 $-1 $515 -2.5 $371 0 $366 $516 forward @7 unknown #
coedge $-1 -1 $-1 $369 $235 $517 $518 reversed $370 $-1 #
coedge $-1 -1 $-1 $235 $368 $511 $519 forward $370 $-1 #
loop $-1 -1 $-1 $-1 $235 $520 #
vertex $-1 -1 $-1 $521 $522 #
vertex $-1 -1 $-1 $523 $524 #
ellipse-curve $-1 -1 $-1 -2.2260588839547353e-033 1.25 0 0 -1 0 -0.59375 0 -7.271100225820365e-017 1 I I #
coedge $-1 -1 $-1 $525 $526 $237 $375 forward $527 $-1 #
edge $-1 -1 $-1 $372 -1.5707963267948968 $377 -1.2246063538223773e-016 $374 $373 forward @7 unknown #
coedge $-1 -1 $-1 $528 $529 $530 $239 forward $497 $-1 #
vertex $-1 -1 $-1 $531 $532 #
straight-curve $-1 -1 $-1 -0.59375 1.25 0 0 1 0 I I #
coedge $-1 -1 $-1 $533 $240 $526 $523 forward $382 $-1 #
coedge $-1 -1 $-1 $240 $533 $242 $384 forward $382 $-1 #
coedge $-1 -1 $-1 $534 $517 $234 $241 reversed $359 $-1 #
loop $-1 -1 $-1 $-1 $240 $535 #
straight-curve $-1 -1 $-1 -2.2260588839547353e-033 1.25 0.59375 0 1 0 I I #
edge $-1 -1 $-1 $536 -0.59375 $246 -2.2260588839547353e-033 $242 $537 forward @7 unknown #
coedge $-1 -1 $-1 $538 $530 $243 $386 reversed $539 $-1 #
edge $-1 -1 $-1 $536 -0.59375 $245 0 $385 $540 forward @7 unknown #
face $-1 -1 $-1 $541 $244 $35 $-1 $542 reversed single #
edge $-1 -1 $-1 $245 0 $543 0.59375 $529 $540 forward @7 unknown #
point $-1 -1 $-1 -0.59375 -1.25 0 #
edge $-1 -1 $-1 $246 -2.2260588839547353e-033 $544 0.59375 $545 $537 forward @7 unknown #
point $-1 -1 $-1 -2.2260588839547353e-033 -1.25 0.59375 #
coedge $-1 -1 $-1 $255 $253 $251 $395 forward $248 $-1 #
coedge $-1 -1 $-1 $250 $250 $396 $546 reversed $157 $-1 #
edge $-1 -1 $-1 $398 -2.6588971183989352 $401 -0.48269553519085773 $250 $547 forward @7 unknown #
edge $548 -1 $-1 $258 -0.52591225741562642 $257 0.52591225741562642 $251 $549 forward @7 unknown #
coedge $-1 -1 $-1 $253 $255 $393 $546 forward $248 $-1 #
convexity-sys-attrib $-1 -1 $-1 $-1 $254 #
vertex $-1 -1 $-1 $546 $550 #
straight-curve $-1 -1 $-1 0.52591225741562642 1.25 -0.27559999999999985 0 1 0 I I #
convexity-sys-attrib $-1 -1 $-1 $-1 $256 #
vertex $-1 -1 $-1 $256 $551 #
straight-curve $-1 -1 $-1 -0.52591225741562642 1.25 -0.27559999999999985 0 -1 0 I I #
point $-1 -1 $-1 -0.52591225741562642 -0.625 -0.27559999999999985 #
point $-1 -1 $-1 0.52591225741562642 -0.625 -0.27559999999999985 #
face $-1 -1 $-1 $-1 $552 $39 $-1 $553 forward single #
plane-surface $-1 -1 $-1 0.54748526510410311 -1.25 -1.6699872663657608e-017 0 1 0 0 0 1 forward_v I I I I #
coedge $-1 -1 $-1 $270 $554 $272 $423 forward $261 $-1 #
coedge $-1 -1 $-1 $555 $263 $554 $556 reversed $164 $-1 #
coedge $-1 -1 $-1 $263 $555 $264 $413 forward $164 $-1 #
coedge $-1 -1 $-1 $266 $272 $263 $411 reversed $273 $-1 #
edge $-1 -1 $-1 $414 2.6588971183989356 $557 3.6242881887806511 $263 $558 forward @7 unknown #
coedge $-1 -1 $-1 $265 $264 $559 $560 reversed $109 $-1 #
edge $-1 -1 $-1 $561 0 $414 0.625 $409 $562 forward @7 unknown #
vertex $-1 -1 $-1 $413 $563 #
straight-curve $-1 -1 $-1 0.27102698007476012 -1.25 0.27559999999999985 1 0 9.9772379497065721e-033 I I #
coedge $-1 -1 $-1 $559 $564 $268 $417 forward $552 $-1 #
edge $565 -1 $-1 $421 -0.51203876903612677 $418 0.51203876903612666 $268 $566 forward @7 unknown #
vertex $-1 -1 $-1 $417 $567 #
straight-curve $-1 -1 $-1 0.49035792029904041 -0.625 0.27560000000000007 0 -1 0 I I #
coedge $-1 -1 $-1 $554 $270 $564 $568 reversed $261 $-1 #
vertex $-1 -1 $-1 $568 $569 #
straight-curve $-1 -1 $-1 0.49035792029904035 -0.625 -0.27560000000000001 0 -1 0 I I #
edge $-1 -1 $-1 $557 -0.2548852773408663 $274 -0.21933094022428024 $407 $570 forward @7 unknown #
point $-1 -1 $-1 0.49035792029904035 -1.25 -0.27560000000000001 #
point $-1 -1 $-1 0.49035792029904041 -1.25 0.27560000000000007 #
coedge $-1 -1 $-1 $284 $282 $280 $429 forward $277 $-1 #
coedge $-1 -1 $-1 $279 $279 $430 $571 reversed $172 $-1 #
edge $-1 -1 $-1 $432 0.48269553519085784 $435 2.6588971183989356 $279 $572 forward @7 unknown #
edge $573 -1 $-1 $287 -0.52591225741562642 $286 0.52591225741562642 $280 $574 forward @7 unknown #
coedge $-1 -1 $-1 $282 $284 $427 $571 forward $277 $-1 #
convexity-sys-attrib $-1 -1 $-1 $-1 $283 #
vertex $-1 -1 $-1 $571 $575 #
straight-curve $-1 -1 $-1 -0.52591225741562642 1.25 0.27559999999999985 0 1 0 I I #
convexity-sys-attrib $-1 -1 $-1 $-1 $285 #
vertex $-1 -1 $-1 $285 $576 #
straight-curve $-1 -1 $-1 0.52591225741562642 1.25 0.27559999999999985 0 -1 0 I I #
point $-1 -1 $-1 0.52591225741562642 -0.625 0.27559999999999985 #
point $-1 -1 $-1 -0.52591225741562642 -0.625 0.27559999999999985 #
face_name-twe-attrib $-1 -1 $-1 $290 $180 6 #
model_id-kcp-attrib $-1 -1 $577 $-1 $291 1 1021385847 1021385847 -586219519 8 #
face $578 -1 $-1 $579 $464 $11 $-1 $580 reversed single #
loop $581 -1 $-1 $200 $445 $291 #
cone-surface $582 -1 $-1 0 -0.75 0 0 1 0 0.125 0 0 1 I I 0 1 0.125 forward I I I I #
surf-twe-attrib $-1 -1 $-1 $-1 $292 48 #
coedge $-1 -1 $-1 $445 $445 $294 $446 reversed $442 $-1 #
edge $583 -1 $-1 $584 -3.1415926535897931 $584 3.1415926535897931 $445 $585 reversed @7 unknown #
coedge $-1 -1 $-1 $300 $299 $296 $448 forward $122 $-1 #
edge $586 -1 $-1 $452 -0.51203876903612666 $587 0.51203876903612666 $296 $588 forward @7 unknown #
coedge $-1 -1 $-1 $312 $297 $299 $454 reversed $450 $-1 #
loop $589 -1 $-1 $-1 $303 $579 #
attrib_edge_convexity-kcp-attrib $-1 -1 $590 $-1 $298 1 #
vertex $-1 -1 $-1 $454 $591 #
straight-curve $-1 -1 $-1 -0.35625000000000001 -0.625 0.27560000000000001 1 0 0 I I #
edge $592 -1 $-1 $459 -0.75 $452 -0.125 $449 $593 forward @7 unknown #
coedge $-1 -1 $-1 $463 $314 $300 $456 forward $464 $-1 #
edge $594 -1 $-1 $458 -0.75 $587 -0.125 $455 $595 reversed @7 unknown #
attrib_edge_convexity-kcp-attrib $-1 -1 $596 $-1 $302 2 #
vertex $-1 -1 $-1 $315 $597 #
vertex $-1 -1 $-1 $454 $598 #
ellipse-curve $-1 -1 $-1 0 0 0 0 -1 0 0.5625 0 0 1 I I #
attrib_edge_convexity-kcp-attrib $-1 -1 $599 $-1 $304 1 #
straight-curve $-1 -1 $-1 -0.49035792029904035 -0.75 0.27560000000000001 0 1 0 I I #
coedge $-1 -1 $-1 $305 $455 $307 $467 forward $464 $-1 #
loop $600 -1 $-1 $-1 $455 $441 #
attrib_edge_convexity-kcp-attrib $-1 -1 $601 $-1 $306 1 #
straight-curve $-1 -1 $-1 -0.49035792029904035 -0.75 -0.27560000000000001 0 -1 0 I I #
edge $602 -1 $-1 $587 -0.84660792029904042 $309 0.13410792029904034 $463 $603 forward @7 unknown #
point $-1 -1 $-1 -0.49035792029904035 -0.625 -0.27560000000000001 #
point $-1 -1 $-1 -0.49035792029904035 -0.625 0.27560000000000001 #
attrib_edge_convexity-kcp-attrib $-1 -1 $604 $-1 $313 2 #
straight-curve $-1 -1 $-1 -0.35625000000000001 0 0.27560000000000001 1 0 0 I I #
attrib_edge_convexity-kcp-attrib $-1 -1 $605 $-1 $315 2 #
straight-curve $-1 -1 $-1 -0.35625000000000001 0 -0.27560000000000001 -1 0 0 I I #
convexity-sys-attrib $-1 -1 $606 $316 $195 #
point $-1 -1 $-1 -0.49035792029904035 0 0.27560000000000001 #
point $-1 -1 $-1 -0.49035792029904035 0 -0.27560000000000001 #
edge_name-twe-attrib $-1 -1 $-1 $321 $128 1 8704 #
edge_name-twe-attrib $-1 -1 $-1 $324 $130 8 8704 #
plane-surface $-1 -1 $-1 0.59375 0 0 -1 0 0 0 0 1 forward_v I I I I #
coedge $-1 -1 $-1 $333 $331 $335 $484 reversed $208 $-1 #
edge $-1 -1 $-1 $346 -0.59375 $486 0.59375 $345 $607 forward @7 unknown #
vertex $-1 -1 $-1 $484 $608 #
straight-curve $-1 -1 $-1 -0.59375 -1.25 0 0 0 -1 I I #
edge $-1 -1 $-1 $482 -1.25 $486 1.25 $480 $609 forward @7 unknown #
straight-curve $-1 -1 $-1 0 -1.25 -0.59375 -1 0 0 I I #
vertex $-1 -1 $-1 $338 $610 #
straight-curve $-1 -1 $-1 0 1.25 -0.59375 1 0 0 I I #
point $-1 -1 $-1 0.59375 1.25 -0.59375 #
point $-1 -1 $-1 0.59375 -1.25 -0.59375 #
straight-curve $-1 -1 $-1 -0.59375 0 0.59375 0 -1 0 I I #
point $-1 -1 $-1 -0.59375 1.25 0.59375 #
point $-1 -1 $-1 -0.59375 -1.25 0.59375 #
straight-curve $-1 -1 $-1 0.59375 -1.25 0 0 0 -1 I I #
straight-curve $-1 -1 $-1 0.59375 1.25 0 0 0 -1 I I #
point $-1 -1 $-1 0.125 0 0.75 #
face $-1 -1 $-1 $611 $612 $35 $-1 $613 reversed single #
loop $-1 -1 $-1 $-1 $376 $358 #
plane-surface $-1 -1 $-1 -0.59375 0 0 1 0 0 0 0 -1 forward_v I I I I #
coedge $-1 -1 $-1 $614 $361 $615 $616 reversed $231 $-1 #
coedge $-1 -1 $-1 $361 $614 $617 $618 reversed $231 $-1 #
coedge $-1 -1 $-1 $619 $620 $621 $364 forward $622 $-1 #
coedge $-1 -1 $-1 $623 $624 $362 $503 forward $625 $-1 #
edge $-1 -1 $-1 $377 -1.2246063538223773e-016 $507 1.5707963267948966 $502 $373 forward @7 unknown #
coedge $-1 -1 $-1 $626 $627 $363 $505 forward $628 $-1 #
edge $-1 -1 $-1 $506 -1.5707963267948966 $245 1.2246063538223773e-016 $504 $247 forward @7 unknown #
vertex $-1 -1 $-1 $629 $630 #
vertex $-1 -1 $-1 $631 $632 #
straight-curve $-1 -1 $-1 -2.2260588839547353e-033 1.25 -0.59375 0 1 0 I I #
coedge $-1 -1 $-1 $633 $545 $365 $510 forward $634 $-1 #
edge $-1 -1 $-1 $246 1.5707963267948968 $515 3.1415926535897931 $509 $247 forward @7 unknown #
coedge $-1 -1 $-1 $635 $366 $369 $519 reversed $514 $-1 #
coedge $-1 -1 $-1 $366 $635 $633 $636 forward $514 $-1 #
coedge $-1 -1 $-1 $637 $638 $614 $367 reversed $612 $-1 #
loop $-1 -1 $-1 $-1 $366 $639 #
vertex $-1 -1 $-1 $640 $641 #
straight-curve $-1 -1 $-1 0.59375 1.25 0 0 1 0 I I #
coedge $-1 -1 $-1 $381 $642 $368 $518 forward $359 $-1 #
edge $-1 -1 $-1 $643 -0.59375 $372 2.2260588839547353e-033 $368 $644 forward @7 unknown #
edge $-1 -1 $-1 $643 -0.59375 $371 0 $511 $645 forward @7 unknown #
face $-1 -1 $-1 $646 $370 $35 $-1 $647 reversed single #
edge $-1 -1 $-1 $371 0 $648 0.59375 $638 $645 forward @7 unknown #
point $-1 -1 $-1 0.59375 1.25 0 #
edge $-1 -1 $-1 $372 2.2260588839547353e-033 $649 0.59375 $526 $644 forward @7 unknown #
point $-1 -1 $-1 -2.2260588839547353e-033 1.25 0.59375 #
coedge $-1 -1 $-1 $526 $374 $650 $651 reversed $527 $-1 #
coedge $-1 -1 $-1 $374 $525 $379 $523 reversed $527 $-1 #
loop $-1 -1 $-1 $-1 $374 $646 #
coedge $-1 -1 $-1 $652 $376 $624 $531 forward $497 $-1 #
coedge $-1 -1 $-1 $376 $652 $626 $388 reversed $497 $-1 #
coedge $-1 -1 $-1 $385 $650 $152 $239 reversed $539 $-1 #
edge $-1 -1 $-1 $377 0 $653 0.59375 $624 $654 forward @7 unknown #
point $-1 -1 $-1 -0.59375 1.25 0 #
coedge $-1 -1 $-1 $380 $379 $538 $655 forward $382 $-1 #
coedge $-1 -1 $-1 $642 $381 $545 $390 forward $359 $-1 #
face $-1 -1 $-1 $656 $382 $35 $-1 $360 forward single #
vertex $-1 -1 $-1 $655 $657 #
straight-curve $-1 -1 $-1 0 -1.25 0.59375 1 0 0 I I #
coedge $-1 -1 $-1 $650 $385 $533 $655 reversed $539 $-1 #
loop $-1 -1 $-1 $-1 $530 $658 #
straight-curve $-1 -1 $-1 -0.59375 -1.25 0 0 0 -1 I I #
face $-1 -1 $-1 $659 $634 $35 $-1 $542 reversed single #
plane-surface $-1 -1 $-1 0 -1.25 0 0 1 0 0 0 1 forward_v I I I I #
vertex $-1 -1 $-1 $660 $661 #
vertex $-1 -1 $-1 $662 $663 #
coedge $-1 -1 $-1 $509 $633 $534 $390 reversed $634 $-1 #
edge $664 -1 $-1 $401 -0.52591225741562642 $398 0.52591225741562642 $393 $665 forward @7 unknown #
ellipse-curve $-1 -1 $-1 -2.2260588839547353e-033 -1.25 0 0 1 0 -0.59375 0 -7.271100225820365e-017 1 I I #
convexity-sys-attrib $-1 -1 $-1 $-1 $395 #
straight-curve $-1 -1 $-1 1.3877787807814457e-017 -0.625 -0.27559999999999985 -1 0 0 I I #
point $-1 -1 $-1 0.52591225741562642 -1.25 -0.27559999999999985 #
point $-1 -1 $-1 -0.52591225741562642 -1.25 -0.27559999999999985 #
loop $-1 -1 $-1 $-1 $564 $405 #
plane-surface $-1 -1 $-1 0.54748526510410311 -0.62499999999999989 -1.6699872663657608e-017 0 1 0 0 0 1 forward_v I I I I #
coedge $-1 -1 $-1 $407 $420 $408 $556 forward $261 $-1 #
coedge $-1 -1 $-1 $409 $408 $666 $667 reversed $164 $-1 #
edge $-1 -1 $-1 $668 0 $557 0.625 $554 $669 forward @7 unknown #
vertex $-1 -1 $-1 $556 $670 #
ellipse-curve $-1 -1 $-1 -2.2260588839547353e-033 -1.25 0 0 1 0 -0.59375 0 -7.271100225820365e-017 1 I I #
coedge $-1 -1 $-1 $666 $416 $412 $560 forward $552 $-1 #
edge $671 -1 $-1 $418 0.21933094022428029 $561 0.2548852773408663 $412 $672 forward @7 unknown #
vertex $-1 -1 $-1 $560 $673 #
straight-curve $-1 -1 $-1 0.52591225741562642 -0.625 0.27559999999999985 0 -1 0 I I #
point $-1 -1 $-1 0.52591225741562642 -1.25 0.27559999999999985 #
coedge $-1 -1 $-1 $416 $666 $420 $568 forward $552 $-1 #
convexity-sys-attrib $-1 -1 $-1 $-1 $417 #
ellipse-curve $-1 -1 $-1 0 -0.625 0 0 -1 0 0.5625 0 0 1 I I #
point $-1 -1 $-1 0.49035792029904041 -0.625 0.27560000000000001 #
edge $674 -1 $-1 $668 -0.2548852773408663 $421 -0.21933094022428024 $420 $675 forward @7 unknown #
point $-1 -1 $-1 0.49035792029904035 -0.625 -0.27560000000000001 #
straight-curve $-1 -1 $-1 0.27102698007476012 -1.25 -0.27559999999999985 -1 0 -9.9772379497065721e-033 I I #
edge $676 -1 $-1 $435 -0.52591225741562642 $432 0.52591225741562642 $427 $677 forward @7 unknown #
ellipse-curve $-1 -1 $-1 -2.2260588839547353e-033 -1.25 0 0 1 0 -0.59375 0 -7.271100225820365e-017 1 I I #
convexity-sys-attrib $-1 -1 $-1 $-1 $429 #
straight-curve $-1 -1 $-1 1.3877787807814457e-017 -0.625 0.27559999999999985 1 0 0 I I #
point $-1 -1 $-1 -0.52591225741562642 -1.25 0.27559999999999985 #
point $-1 -1 $-1 0.52591225741562642 -1.25 0.27559999999999985 #
face_name-twe-attrib $-1 -1 $-1 $440 $291 7 #
model_id-kcp-attrib $-1 -1 $678 $-1 $441 1 1021385847 1021385847 -586219519 9 #
face $679 -1 $-1 $-1 $450 $11 $-1 $680 reversed single #
plane-surface $681 -1 $-1 -0.71250000000000002 0 -0.27560000000000001 0 0 1 1 0 0 forward_v I I I I #
loop_type-twe-attrib $-1 -1 $-1 $-1 $442 0 #
surf-twe-attrib $-1 -1 $-1 $-1 $443 76 #
attrib_edge_convexity-kcp-attrib $-1 -1 $682 $-1 $446 2 #
vertex $-1 -1 $-1 $446 $683 #
ellipse-curve $-1 -1 $-1 0 0.375 0 0 -1 0 0.125 0 0 1 I I #
edge_name-twe-attrib $-1 -1 $-1 $-1 $448 5 8704 #
vertex $-1 -1 $-1 $456 $684 #
ellipse-curve $-1 -1 $-1 0 -0.625 0 0 1 0 0.5625 0 0 1 I I #
loop_type-twe-attrib $-1 -1 $-1 $-1 $450 0 #
convexity-sys-attrib $-1 -1 $685 $451 $298 #
point $-1 -1 $-1 0.49035792029904041 -0.625 0.27560000000000001 #
attrib_edge_convexity-kcp-attrib $-1 -1 $686 $-1 $454 1 #
straight-curve $-1 -1 $-1 0.49035792029904035 -0.75 0.27560000000000001 0 -1 0 I I #
attrib_edge_convexity-kcp-attrib $-1 -1 $687 $-1 $456 1 #
straight-curve $-1 -1 $-1 0.49035792029904035 -0.75 -0.27560000000000001 0 1 0 I I #
convexity-sys-attrib $-1 -1 $688 $457 $302 #
point $-1 -1 $-1 0.49035792029904035 0 -0.27560000000000001 #
point $-1 -1 $-1 0.49035792029904041 0 0.27560000000000001 #
convexity-sys-attrib $-1 -1 $689 $461 $304 #
loop_type-twe-attrib $-1 -1 $-1 $-1 $464 0 #
convexity-sys-attrib $-1 -1 $690 $465 $306 #
attrib_edge_convexity-kcp-attrib $-1 -1 $691 $-1 $467 1 #
straight-curve $-1 -1 $-1 -0.35625000000000001 -0.625 -0.27560000000000001 -1 0 0 I I #
convexity-sys-attrib $-1 -1 $692 $470 $313 #
convexity-sys-attrib $-1 -1 $693 $472 $315 #
edge_name-twe-attrib $-1 -1 $-1 $474 $195 2 4608 #
straight-curve $-1 -1 $-1 -0.59375 1.25 0 0 0 -1 I I #
point $-1 -1 $-1 -0.59375 -1.25 -0.59375 #
straight-curve $-1 -1 $-1 -0.59375 0 -0.59375 0 1 0 I I #
point $-1 -1 $-1 -0.59375 1.25 -0.59375 #
face $-1 -1 $-1 $520 $694 $35 $-1 $647 reversed single #
loop $-1 -1 $-1 $-1 $513 $496 #
plane-surface $-1 -1 $-1 0.59375 0 0 -1 0 0 0 0 1 forward_v I I I I #
coedge $-1 -1 $-1 $500 $499 $233 $367 forward $231 $-1 #
coedge $-1 -1 $-1 $695 $696 $499 $616 forward $697 $-1 #
edge $-1 -1 $-1 $515 -3.1415926535897931 $506 -1.5707963267948966 $615 $247 forward @7 unknown #
coedge $-1 -1 $-1 $698 $699 $500 $618 forward $694 $-1 #
edge $-1 -1 $-1 $507 1.5707963267948966 $371 3.1415926535897931 $617 $373 forward @7 unknown #
coedge $-1 -1 $-1 $700 $501 $699 $631 forward $622 $-1 #
coedge $-1 -1 $-1 $501 $700 $695 $701 forward $622 $-1 #
coedge $-1 -1 $-1 $702 $703 $232 $364 reversed $704 $-1 #
loop $-1 -1 $-1 $-1 $501 $656 #
coedge $-1 -1 $-1 $624 $502 $703 $705 reversed $625 $-1 #
coedge $-1 -1 $-1 $502 $623 $528 $531 reversed $625 $-1 #
loop $-1 -1 $-1 $-1 $502 $706 #
coedge $-1 -1 $-1 $627 $504 $529 $388 forward $628 $-1 #
coedge $-1 -1 $-1 $504 $626 $702 $629 reversed $628 $-1 #
loop $-1 -1 $-1 $-1 $504 $707 #
edge $-1 -1 $-1 $506 2.2260588839547353e-033 $543 0.59375 $627 $708 forward @7 unknown #
point $-1 -1 $-1 -2.2260588839547353e-033 -1.25 -0.59375 #
edge $-1 -1 $-1 $507 -2.2260588839547353e-033 $648 0.59375 $699 $709 forward @7 unknown #
point $-1 -1 $-1 -2.2260588839547353e-033 1.25 -0.59375 #
coedge $-1 -1 $-1 $545 $509 $512 $636 reversed $634 $-1 #
loop $-1 -1 $-1 $-1 $509 $541 #
coedge $-1 -1 $-1 $512 $511 $642 $662 reversed $514 $-1 #
edge $-1 -1 $-1 $544 -0.59375 $515 0 $512 $710 forward @7 unknown #
coedge $-1 -1 $-1 $711 $513 $696 $640 forward $612 $-1 #
coedge $-1 -1 $-1 $513 $711 $698 $521 reversed $612 $-1 #
face $-1 -1 $-1 $-1 $514 $35 $-1 $613 reversed single #
edge $-1 -1 $-1 $515 0 $712 0.59375 $637 $710 forward @7 unknown #
point $-1 -1 $-1 0.59375 -1.25 0 #
coedge $-1 -1 $-1 $517 $534 $635 $662 forward $359 $-1 #
vertex $-1 -1 $-1 $662 $713 #
straight-curve $-1 -1 $-1 0 1.25 0.59375 -1 0 0 I I #
straight-curve $-1 -1 $-1 0.59375 1.25 0 0 0 -1 I I #
face $-1 -1 $-1 $706 $527 $35 $-1 $647 reversed single #
plane-surface $-1 -1 $-1 0 1.25 0 0 -1 0 0 0 -1 forward_v I I I I #
vertex $-1 -1 $-1 $714 $715 #
vertex $-1 -1 $-1 $523 $716 #
coedge $-1 -1 $-1 $530 $538 $525 $651 forward $539 $-1 #
edge $-1 -1 $-1 $649 -0.59375 $377 0 $525 $654 forward @7 unknown #
coedge $-1 -1 $-1 $529 $528 $717 $660 reversed $497 $-1 #
vertex $-1 -1 $-1 $705 $718 #
straight-curve $-1 -1 $-1 -0.59375 1.25 0 0 0 -1 I I #
edge $-1 -1 $-1 $649 -1.25 $536 1.25 $538 $719 forward @7 unknown #
face $-1 -1 $-1 $658 $622 $35 $-1 $720 reversed single #
point $-1 -1 $-1 -0.59375 -1.25 0.59375 #
face $-1 -1 $-1 $639 $539 $35 $-1 $498 reversed single #
face $-1 -1 $-1 $721 $697 $35 $-1 $542 reversed single #
edge $-1 -1 $-1 $543 -1.25 $653 1.25 $652 $722 forward @7 unknown #
point $-1 -1 $-1 -0.59375 -1.25 -0.59375 #
edge $-1 -1 $-1 $544 -1.25 $643 1.25 $635 $723 forward @7 unknown #
point $-1 -1 $-1 0.59375 -1.25 0.59375 #
convexity-sys-attrib $-1 -1 $-1 $-1 $546 #
straight-curve $-1 -1 $-1 1.3877787807814457e-017 -1.25 -0.27559999999999985 1 0 0 I I #
coedge $-1 -1 $-1 $564 $559 $555 $667 forward $552 $-1 #
edge $724 -1 $-1 $561 2.6588971183989356 $668 3.6242881887806511 $555 $725 forward @7 unknown #
vertex $-1 -1 $-1 $568 $726 #
straight-curve $-1 -1 $-1 0.52591225741562642 -0.625 -0.27559999999999985 0 -1 0 I I #
point $-1 -1 $-1 0.52591225741562642 -1.25 -0.27559999999999985 #
convexity-sys-attrib $-1 -1 $-1 $-1 $560 #
straight-curve $-1 -1 $-1 0.27102698007476012 -0.625 0.27559999999999985 1 0 9.9772379497065721e-033 I I #
point $-1 -1 $-1 0.52591225741562642 -0.625 0.27559999999999985 #
convexity-sys-attrib $-1 -1 $-1 $-1 $568 #
straight-curve $-1 -1 $-1 0.27102698007476012 -0.625 -0.27559999999999985 -1 0 -9.9772379497065721e-033 I I #
convexity-sys-attrib $-1 -1 $-1 $-1 $571 #
straight-curve $-1 -1 $-1 1.3877787807814457e-017 -1.25 0.27559999999999985 -1 0 0 I I #
face_name-twe-attrib $-1 -1 $-1 $578 $441 8 #
model_id-kcp-attrib $-1 -1 $727 $-1 $579 1 1021385847 1021385847 -586219519 10 #
plane-surface $728 -1 $-1 -0.71250000000000002 -0.72499999999999998 0.27560000000000001 0 0 -1 -1 0 0 forward_v I I I I #
surf-twe-attrib $-1 -1 $-1 $-1 $580 112 #
convexity-sys-attrib $-1 -1 $729 $583 $446 #
point $-1 -1 $-1 -0.125 0.375 0 #
point $-1 -1 $-1 0.49035792029904041 -0.625 -0.27560000000000001 #
edge_name-twe-attrib $-1 -1 $-1 $590 $298 14 8704 #
convexity-sys-attrib $-1 -1 $730 $592 $454 #
convexity-sys-attrib $-1 -1 $731 $594 $456 #
edge_name-twe-attrib $-1 -1 $-1 $596 $302 3 4608 #
edge_name-twe-attrib $-1 -1 $-1 $599 $304 13 8448 #
edge_name-twe-attrib $-1 -1 $-1 $601 $306 11 8448 #
convexity-sys-attrib $-1 -1 $732 $602 $467 #
edge_name-twe-attrib $-1 -1 $-1 $604 $313 16 4608 #
edge_name-twe-attrib $-1 -1 $-1 $605 $315 12 4608 #
loop $-1 -1 $-1 $-1 $617 $611 #
coedge $-1 -1 $-1 $696 $615 $620 $701 reversed $697 $-1 #
coedge $-1 -1 $-1 $615 $695 $637 $640 reversed $697 $-1 #
loop $-1 -1 $-1 $-1 $615 $659 #
coedge $-1 -1 $-1 $699 $617 $638 $521 forward $694 $-1 #
coedge $-1 -1 $-1 $617 $698 $619 $631 reversed $694 $-1 #
coedge $-1 -1 $-1 $620 $619 $711 $714 forward $622 $-1 #
edge $-1 -1 $-1 $712 -0.59375 $506 2.2260588839547353e-033 $695 $708 forward @7 unknown #
coedge $-1 -1 $-1 $717 $621 $627 $629 forward $704 $-1 #
coedge $-1 -1 $-1 $621 $717 $623 $705 forward $704 $-1 #
loop $-1 -1 $-1 $-1 $621 $721 #
edge $-1 -1 $-1 $653 -0.59375 $507 -2.2260588839547353e-033 $623 $709 forward @7 unknown #
face $-1 -1 $-1 $707 $625 $35 $-1 $647 reversed single #
face $-1 -1 $-1 $387 $628 $35 $-1 $542 reversed single #
straight-curve $-1 -1 $-1 0 -1.25 -0.59375 -1 0 0 I I #
straight-curve $-1 -1 $-1 0 1.25 -0.59375 1 0 0 I I #
straight-curve $-1 -1 $-1 0.59375 -1.25 0 0 0 -1 I I #
coedge $-1 -1 $-1 $638 $637 $700 $714 reversed $612 $-1 #
vertex $-1 -1 $-1 $640 $733 #
point $-1 -1 $-1 0.59375 1.25 0.59375 #
edge $-1 -1 $-1 $648 -1.25 $712 1.25 $711 $734 forward @7 unknown #
point $-1 -1 $-1 0.59375 1.25 -0.59375 #
point $-1 -1 $-1 -0.59375 1.25 0.59375 #
coedge $-1 -1 $-1 $703 $702 $652 $660 forward $704 $-1 #
point $-1 -1 $-1 -0.59375 1.25 -0.59375 #
straight-curve $-1 -1 $-1 -0.59375 0 0.59375 0 -1 0 I I #
plane-surface $-1 -1 $-1 0 0 -0.59375 0 0 1 1 0 0 forward_v I I I I #
face $-1 -1 $-1 $535 $704 $35 $-1 $720 reversed single #
straight-curve $-1 -1 $-1 -0.59375 0 -0.59375 0 1 0 I I #
straight-curve $-1 -1 $-1 0.59375 0 0.59375 0 1 0 I I #
convexity-sys-attrib $-1 -1 $-1 $-1 $667 #
ellipse-curve $-1 -1 $-1 -2.2260588839547353e-033 -0.625 0 0 1 0 -0.59375 0 -7.271100225820365e-017 1 I I #
point $-1 -1 $-1 0.52591225741562642 -0.625 -0.27559999999999985 #
face_name-twe-attrib $-1 -1 $-1 $679 $579 9 #
surf-twe-attrib $-1 -1 $-1 $-1 $680 150 #
edge_name-twe-attrib $-1 -1 $-1 $682 $446 7 4608 #
edge_name-twe-attrib $-1 -1 $-1 $686 $454 15 8448 #
edge_name-twe-attrib $-1 -1 $-1 $687 $456 9 8448 #
edge_name-twe-attrib $-1 -1 $-1 $691 $467 10 8704 #
point $-1 -1 $-1 0.59375 -1.25 -0.59375 #
straight-curve $-1 -1 $-1 0.59375 0 -0.59375 0 -1 0 I I #
End-of-ACIS-data 