700 0 2 0           
24 FBMach with ACIS - 7.0.3 13 ACIS 7.0.3 NT 24 Wed May 15 14:33:45 2002 
1 9.9999999999999995e-007 1e-010 
body $2 -1 $-1 $3 $-1 $4 #
bdycol-kcp $-1 -1 1 4 $5 $6 $7 $8 #
model_id-kcp-attrib $-1 -1 $-1 $-1 $0 1 1021487624 1021487624 -1948581887 1 #
lump $-1 -1 $-1 $-1 $9 $0 #
transform $-1 -1 1 0 0 0 1 0 0 0 1 0 0 0 1 rotate no_reflect no_shear #
body $10 -1 $-1 $11 $-1 $12 #
body $13 -1 $-1 $14 $-1 $15 #
body $16 -1 $-1 $17 $-1 $18 #
body $19 -1 $-1 $20 $-1 $21 #
shell $-1 -1 $-1 $-1 $-1 $22 $-1 $3 #
rgb_color-st-attrib $-1 -1 $23 $-1 $5 0.5 1 1 #
lump $-1 -1 $-1 $-1 $24 $5 #
transform $-1 -1 1 0 0 0 1 0 0 0 1 0 -12.700000000000003 0 1 no_rotate no_reflect no_shear #
model_id-kcp-attrib $-1 -1 $-1 $-1 $6 1 1021487624 1021487624 -1948581886 1 #
lump $-1 -1 $-1 $-1 $25 $6 #
transform $-1 -1 1 0 0 0 1 0 0 0 1 0 -12.700000000000003 0 1 no_rotate no_reflect no_shear #
rgb_color-st-attrib $-1 -1 $26 $-1 $7 0 0 1 #
lump $-1 -1 $-1 $-1 $27 $7 #
transform $-1 -1 1 0 0 0 1 0 0 0 1 0 -12.700000000000003 0 1 no_rotate no_reflect no_shear #
rgb_color-st-attrib $-1 -1 $28 $-1 $8 1 0.5 1 #
lump $-1 -1 $-1 $-1 $29 $8 #
transform $-1 -1 1 0 0 0 1 0 0 0 1 0 -12.700000000000003 0 1 no_rotate no_reflect no_shear #
face $30 -1 $-1 $31 $32 $9 $-1 $33 reversed single #
model_id-kcp-attrib $-1 -1 $-1 $10 $5 1 1021487624 1021487624 -1956184061 1 #
shell $-1 -1 $-1 $-1 $-1 $34 $-1 $11 #
shell $-1 -1 $-1 $-1 $-1 $35 $-1 $14 #
model_id-kcp-attrib $-1 -1 $-1 $16 $7 1 1021487624 1021487625 -1960247292 1 #
shell $-1 -1 $-1 $-1 $-1 $36 $-1 $17 #
model_id-kcp-attrib $-1 -1 $-1 $19 $8 1 1021487624 1021487625 -1951006715 1 #
shell $-1 -1 $-1 $-1 $-1 $37 $-1 $20 #
model_id-kcp-attrib $-1 -1 $-1 $-1 $22 1 1021487624 1021487624 -1948581887 2 #
face $38 -1 $-1 $39 $40 $9 $-1 $41 forward single #
loop $-1 -1 $-1 $-1 $42 $22 #
plane-surface $-1 -1 $-1 0 -25.399999999999999 0 0 1 0 25.399999999999999 0 0 forward_v I I I I #
face $-1 -1 $-1 $43 $44 $24 $-1 $45 reversed single #
face $-1 -1 $-1 $46 $47 $25 $-1 $48 forward single #
face $-1 -1 $-1 $49 $50 $27 $-1 $51 forward single #
face $-1 -1 $-1 $52 $53 $29 $-1 $54 forward single #
model_id-kcp-attrib $-1 -1 $-1 $-1 $31 1 1021487624 1021487624 -1948581887 3 #
face $55 -1 $-1 $56 $57 $9 $-1 $58 forward single #
loop $-1 -1 $-1 $-1 $59 $31 #
cone-surface $-1 -1 $-1 0 -26.669999999999995 0 0 1 0 3.1749999999999998 0 0 1 I I 0 1 3.1749999999999998 forward I I I I #
coedge $-1 -1 $-1 $60 $60 $59 $61 reversed $32 $-1 #
face $-1 -1 $-1 $62 $63 $24 $-1 $45 reversed single #
loop $-1 -1 $-1 $-1 $64 $34 #
cone-surface $-1 -1 $-1 -2.952082130906877e-032 -12.699999999999996 0 0 -1 0 7.8739999999999997 0 0 1 I I 0 1 7.8739999999999997 forward I I I I #
face $-1 -1 $-1 $65 $66 $25 $-1 $67 reversed single #
loop $-1 -1 $-1 $-1 $68 $35 #
plane-surface $-1 -1 $-1 0 0 7.8739999999999997 0 0 1 1 0 0 forward_v I I I I #
face $-1 -1 $-1 $69 $70 $27 $-1 $71 forward single #
loop $-1 -1 $-1 $-1 $72 $36 #
plane-surface $-1 -1 $-1 -4.8259999999999996 8.1280000000000037 -2.7862923991091528 -0.5 0 -0.86602540378443871 -0.86602540378443871 0 0.5 forward_v I I I I #
face $-1 -1 $-1 $73 $74 $29 $-1 $75 forward single #
loop $-1 -1 $-1 $76 $77 $37 #
cone-surface $-1 -1 $-1 0 6.3500000000000014 0 0 -1 0 3.1749999999999998 0 0 1 I I 0 -1 3.1749999999999998 forward I I I I #
model_id-kcp-attrib $-1 -1 $-1 $-1 $39 1 1021487624 1021487624 -1948581887 4 #
face $78 -1 $-1 $79 $80 $9 $-1 $81 reversed single #
loop $-1 -1 $-1 $-1 $82 $39 #
cone-surface $-1 -1 $-1 0 -26.669999999999995 0 0 1 0 3.1749999999999998 0 0 1 I I 0 1 3.1749999999999998 forward I I I I #
coedge $-1 -1 $-1 $83 $84 $42 $61 forward $40 $-1 #
coedge $-1 -1 $-1 $42 $42 $85 $86 forward $32 $-1 #
edge $87 -1 $-1 $88 0 $89 3.1415926535897931 $42 $90 forward @7 unknown #
face $-1 -1 $-1 $91 $92 $24 $-1 $45 reversed single #
loop $-1 -1 $-1 $-1 $93 $43 #
coedge $-1 -1 $-1 $94 $95 $96 $97 reversed $44 $-1 #
face $98 -1 $-1 $99 $100 $25 $-1 $101 reversed single #
loop $-1 -1 $-1 $-1 $102 $46 #
plane-surface $-1 -1 $-1 0 0 -7.8739999999999997 0 0 1 1 0 0 forward_v I I I I #
coedge $-1 -1 $-1 $103 $104 $105 $106 forward $47 $-1 #
face $-1 -1 $-1 $107 $108 $27 $-1 $109 forward single #
loop $-1 -1 $-1 $-1 $110 $49 #
plane-surface $-1 -1 $-1 0 8.1280000000000037 -5.572584798218287 0.50000000000000799 0 -0.86602540378443416 -0.86602540378443416 0 -0.50000000000000799 forward_v I I I I #
coedge $-1 -1 $-1 $111 $112 $113 $114 forward $50 $-1 #
face $-1 -1 $-1 $115 $116 $29 $-1 $117 reversed single #
loop $-1 -1 $-1 $118 $119 $52 #
cone-surface $-1 -1 $-1 -2.952082130906877e-032 6.3500000000000014 0 0 -1 0 7.8739999999999997 0 0 1 I I 0 1 7.8739999999999997 forward I I I I #
loop $-1 -1 $-1 $-1 $120 $37 #
coedge $-1 -1 $-1 $77 $77 $121 $122 forward $53 $-1 #
model_id-kcp-attrib $-1 -1 $-1 $-1 $56 1 1021487624 1021487624 -1948581887 5 #
face $123 -1 $-1 $124 $125 $9 $-1 $126 forward single #
loop $-1 -1 $-1 $127 $128 $56 #
plane-surface $-1 -1 $-1 0 -6.3499999999999996 0 0 1 0 25.399999999999999 0 0 forward_v I I I I #
coedge $-1 -1 $-1 $129 $130 $131 $132 forward $57 $-1 #
coedge $-1 -1 $-1 $133 $59 $129 $134 forward $40 $-1 #
coedge $-1 -1 $-1 $59 $133 $130 $135 reversed $40 $-1 #
coedge $-1 -1 $-1 $130 $129 $60 $86 reversed $57 $-1 #
edge $136 -1 $-1 $88 0 $89 3.1415926535897931 $60 $137 forward @7 unknown #
attrib_edge_convexity-kcp-attrib $-1 -1 $138 $-1 $61 1 #
vertex $-1 -1 $-1 $86 $139 #
vertex $-1 -1 $-1 $86 $140 #
ellipse-curve $-1 -1 $-1 -1.7624790515924359e-016 -25.399999999999999 0 -1.7763568394002505e-015 1 0 3.1749999999999998 5.6399329650957949e-015 0 1 I I #
face $-1 -1 $-1 $141 $142 $24 $-1 $45 reversed single #
loop $-1 -1 $-1 $-1 $143 $62 #
coedge $-1 -1 $-1 $144 $145 $146 $147 reversed $63 $-1 #
coedge $-1 -1 $-1 $148 $64 $149 $150 forward $44 $-1 #
coedge $-1 -1 $-1 $64 $148 $151 $152 reversed $44 $-1 #
coedge $-1 -1 $-1 $153 $154 $64 $97 forward $155 $-1 #
edge $-1 -1 $-1 $156 0 $157 1.5707963267948966 $96 $158 forward @7 unknown #
model_id-kcp-attrib $-1 -1 $-1 $-1 $65 1 1021487624 1021487624 -1948581886 2 #
face $-1 -1 $-1 $159 $160 $25 $-1 $161 reversed single #
loop $-1 -1 $-1 $-1 $162 $65 #
plane-surface $-1 -1 $-1 0 -12.700000000000003 0 0 1 0 0 0 1 forward_v I I I I #
coedge $-1 -1 $-1 $163 $164 $165 $166 forward $66 $-1 #
coedge $-1 -1 $-1 $167 $68 $168 $169 forward $47 $-1 #
coedge $-1 -1 $-1 $68 $167 $170 $171 forward $47 $-1 #
coedge $-1 -1 $-1 $172 $173 $68 $106 reversed $174 $-1 #
edge $-1 -1 $-1 $175 -12.700000000000003 $176 12.700000000000003 $105 $177 forward @7 unknown #
face $-1 -1 $-1 $178 $179 $27 $-1 $180 forward single #
loop $-1 -1 $-1 $-1 $181 $69 #
plane-surface $-1 -1 $-1 4.8259999999999659 8.1280000000000037 -2.7862923991091129 1 0 0 0 0 -1 forward_v I I I I #
coedge $-1 -1 $-1 $182 $183 $184 $185 forward $70 $-1 #
coedge $-1 -1 $-1 $186 $72 $183 $187 reversed $50 $-1 #
coedge $-1 -1 $-1 $72 $186 $188 $189 forward $50 $-1 #
coedge $-1 -1 $-1 $190 $184 $72 $114 reversed $191 $-1 #
edge $-1 -1 $-1 $192 -4.1794385986636886 $193 1.3931461995545791 $72 $194 forward @7 unknown #
face $-1 -1 $-1 $-1 $195 $29 $-1 $196 forward single #
loop $-1 -1 $-1 $197 $198 $73 #
plane-surface $-1 -1 $-1 -0.51012330198537059 -12.699999999999989 5.5511151231257827e-017 4.6086665670342156e-032 1 -3.8405554725285128e-033 0 3.8405554725285128e-033 1 forward_v I I I I #
loop $-1 -1 $-1 $-1 $199 $52 #
coedge $-1 -1 $-1 $119 $119 $198 $200 forward $74 $-1 #
coedge $-1 -1 $-1 $120 $120 $201 $202 reversed $76 $-1 #
coedge $-1 -1 $-1 $121 $121 $77 $122 reversed $197 $-1 #
edge $-1 -1 $-1 $203 -3.1415926535897931 $203 3.1415926535897931 $77 $204 forward @7 unknown #
model_id-kcp-attrib $-1 -1 $-1 $-1 $79 1 1021487624 1021487624 -1948581887 6 #
face $205 -1 $-1 $206 $207 $9 $-1 $208 forward single #
loop $-1 -1 $-1 $-1 $209 $79 #
cone-surface $-1 -1 $-1 0 -26.669999999999995 0 0 1 0 7.8739999999999997 0 0 1 I I 0 1 7.8739999999999997 forward I I I I #
loop $-1 -1 $-1 $-1 $210 $56 #
coedge $-1 -1 $-1 $211 $211 $212 $213 forward $80 $-1 #
coedge $-1 -1 $-1 $85 $82 $83 $134 reversed $57 $-1 #
coedge $-1 -1 $-1 $82 $85 $84 $135 forward $57 $-1 #
coedge $-1 -1 $-1 $210 $210 $82 $132 reversed $127 $-1 #
edge $214 -1 $-1 $215 0 $216 3.1415926535897931 $131 $217 forward @7 unknown #
coedge $-1 -1 $-1 $84 $83 $210 $218 reversed $40 $-1 #
edge $-1 -1 $-1 $89 0 $216 0.74999999999999967 $83 $219 forward @7 unknown #
edge $-1 -1 $-1 $88 0 $215 0.74999999999999978 $84 $220 forward @7 unknown #
attrib_edge_convexity-kcp-attrib $-1 -1 $221 $-1 $86 1 #
ellipse-curve $-1 -1 $-1 -1.7624790515924359e-016 -25.399999999999999 0 1.7763568394002505e-015 -1 0 3.1749999999999998 5.6399329650957949e-015 0 1 I I #
convexity-sys-attrib $-1 -1 $-1 $87 $61 #
point $-1 -1 $-1 3.1749999999999998 -25.399999999999991 0 #
point $-1 -1 $-1 -3.1749999999999998 -25.399999999999991 3.8881251733860477e-016 #
face $-1 -1 $-1 $222 $223 $24 $-1 $224 forward single #
loop $-1 -1 $-1 $-1 $225 $91 #
coedge $-1 -1 $-1 $226 $227 $225 $228 forward $92 $-1 #
coedge $-1 -1 $-1 $229 $93 $230 $231 reversed $63 $-1 #
coedge $-1 -1 $-1 $93 $229 $95 $152 forward $63 $-1 #
coedge $-1 -1 $-1 $232 $233 $93 $147 forward $234 $-1 #
edge $-1 -1 $-1 $235 -3.1415926535897931 $236 -1.5707963267948966 $146 $237 forward @7 unknown #
coedge $-1 -1 $-1 $95 $94 $238 $239 reversed $44 $-1 #
coedge $-1 -1 $-1 $227 $226 $240 $150 reversed $92 $-1 #
edge $-1 -1 $-1 $156 -25.399999999999999 $241 7.1054273576010019e-015 $240 $242 forward @7 unknown #
coedge $-1 -1 $-1 $243 $244 $245 $152 forward $246 $-1 #
edge $-1 -1 $-1 $157 -25.399999999999999 $236 7.1054273576010019e-015 $151 $247 forward @7 unknown #
coedge $-1 -1 $-1 $154 $96 $244 $248 reversed $155 $-1 #
coedge $-1 -1 $-1 $96 $153 $249 $250 forward $155 $-1 #
loop $-1 -1 $-1 $-1 $96 $251 #
vertex $-1 -1 $-1 $252 $253 #
vertex $-1 -1 $-1 $254 $255 #
ellipse-curve $-1 -1 $-1 -2.952082130906877e-032 12.700000000000003 0 0 -1 0 7.8739999999999997 0 0 1 I I #
face $256 -1 $-1 $257 $258 $25 $-1 $259 reversed single #
loop $-1 -1 $-1 $-1 $260 $99 #
plane-surface $-1 -1 $-1 -7.8739999999999997 0 0 1 0 0 0 0 -1 forward_v I I I I #
coedge $-1 -1 $-1 $261 $170 $262 $263 forward $100 $-1 #
coedge $-1 -1 $-1 $264 $102 $261 $265 forward $66 $-1 #
coedge $-1 -1 $-1 $102 $264 $266 $267 forward $66 $-1 #
coedge $-1 -1 $-1 $173 $172 $102 $166 reversed $174 $-1 #
edge $-1 -1 $-1 $268 -12.700000000000003 $269 12.700000000000003 $165 $270 forward @7 unknown #
coedge $-1 -1 $-1 $104 $103 $271 $272 forward $47 $-1 #
coedge $-1 -1 $-1 $273 $274 $103 $169 reversed $258 $-1 #
edge $-1 -1 $-1 $176 -7.8739999999999997 $275 7.8739999999999997 $168 $276 forward @7 unknown #
coedge $-1 -1 $-1 $162 $277 $104 $171 reversed $100 $-1 #
edge $-1 -1 $-1 $278 -7.8739999999999997 $175 7.8739999999999997 $170 $279 forward @7 unknown #
coedge $-1 -1 $-1 $165 $105 $277 $280 forward $174 $-1 #
coedge $-1 -1 $-1 $105 $165 $273 $281 reversed $174 $-1 #
loop $-1 -1 $-1 $-1 $172 $257 #
vertex $-1 -1 $-1 $106 $282 #
vertex $-1 -1 $-1 $106 $283 #
straight-curve $-1 -1 $-1 7.8739999999999997 0 7.8739999999999997 0 1 0 I I #
face $-1 -1 $-1 $284 $285 $27 $-1 $286 forward single #
loop $-1 -1 $-1 $-1 $287 $107 #
plane-surface $-1 -1 $-1 4.8259999999999659 8.1280000000000037 2.7862923991091333 0.50000000000000533 0 0.86602540378443571 0.86602540378443571 0 -0.50000000000000533 forward_v I I I I #
coedge $-1 -1 $-1 $288 $289 $290 $291 forward $108 $-1 #
coedge $-1 -1 $-1 $292 $110 $289 $293 reversed $70 $-1 #
coedge $-1 -1 $-1 $110 $292 $111 $187 forward $70 $-1 #
coedge $-1 -1 $-1 $113 $290 $110 $185 reversed $191 $-1 #
edge $-1 -1 $-1 $193 -4.1794385986637161 $294 1.3931461995545429 $110 $295 forward @7 unknown #
coedge $-1 -1 $-1 $112 $111 $296 $297 reversed $50 $-1 #
edge $298 -1 $-1 $299 0 $193 4.5719999999999992 $183 $300 forward @7 unknown #
coedge $-1 -1 $-1 $301 $302 $112 $189 reversed $303 $-1 #
edge $-1 -1 $-1 $304 0 $192 4.5719999999999992 $112 $305 forward @7 unknown #
coedge $-1 -1 $-1 $306 $113 $302 $307 reversed $191 $-1 #
loop $-1 -1 $-1 $-1 $113 $308 #
vertex $-1 -1 $-1 $189 $309 #
vertex $-1 -1 $-1 $187 $310 #
straight-curve $-1 -1 $-1 -1.2065000000000103 12.700000000000006 -4.8760116984409976 0.86602540378443871 0 -0.5 I I #
loop $-1 -1 $-1 $311 $312 $115 #
plane-surface $-1 -1 $-1 -0.51012330198537059 6.3500000000000014 5.5511151231257827e-017 4.6086665670342156e-032 1 -3.8405554725285128e-033 0 3.8405554725285128e-033 1 forward_v I I I I #
loop $-1 -1 $-1 $-1 $121 $73 #
coedge $-1 -1 $-1 $198 $198 $119 $200 reversed $116 $-1 #
coedge $-1 -1 $-1 $199 $199 $312 $313 reversed $118 $-1 #
edge $-1 -1 $-1 $314 -3.1415926535897931 $314 3.1415926535897931 $119 $315 forward @7 unknown #
coedge $-1 -1 $-1 $201 $201 $120 $202 forward $311 $-1 #
edge $316 -1 $-1 $317 0 $317 6.2831853071795862 $120 $318 forward @7 unknown #
vertex $-1 -1 $-1 $122 $319 #
ellipse-curve $-1 -1 $-1 0 -12.699999999999989 0 0 -1 0 3.1749999999999998 0 0 1 I I #
model_id-kcp-attrib $-1 -1 $-1 $-1 $124 1 1021487624 1021487624 -1948581887 7 #
face $320 -1 $-1 $321 $322 $9 $-1 $323 forward single #
loop $-1 -1 $-1 $324 $325 $124 #
plane-surface $-1 -1 $-1 0 0 0 0 1 0 25.399999999999999 0 0 forward_v I I I I #
coedge $-1 -1 $-1 $326 $327 $328 $329 forward $125 $-1 #
coedge $-1 -1 $-1 $131 $131 $133 $218 forward $127 $-1 #
coedge $-1 -1 $-1 $128 $128 $330 $331 reversed $80 $-1 #
coedge $-1 -1 $-1 $327 $326 $128 $213 reversed $125 $-1 #
edge $332 -1 $-1 $333 0 $334 3.1415926535897931 $128 $335 forward @7 unknown #
attrib_edge_convexity-kcp-attrib $-1 -1 $336 $-1 $132 2 #
vertex $-1 -1 $-1 $135 $337 #
vertex $-1 -1 $-1 $218 $338 #
ellipse-curve $-1 -1 $-1 0 -6.3499999999999996 0 0 -1 0 3.1749999999999998 0 0 1 I I #
edge $339 -1 $-1 $215 0 $216 3.1415926535897931 $133 $340 forward @7 unknown #
straight-curve $-1 -1 $-1 -3.1749999999999998 -25.399999999999991 3.8881251733860477e-016 0 25.399999999999999 0 I I #
straight-curve $-1 -1 $-1 3.1749999999999998 -25.399999999999991 0 0 25.399999999999999 0 I I #
convexity-sys-attrib $-1 -1 $-1 $136 $86 #
face $-1 -1 $-1 $341 $342 $24 $-1 $343 reversed single #
loop $-1 -1 $-1 $-1 $245 $141 #
plane-surface $-1 -1 $-1 0 0 7.8739999999999997 0 0 1 1 0 0 forward_v I I I I #
coedge $-1 -1 $-1 $344 $345 $346 $228 reversed $142 $-1 #
coedge $-1 -1 $-1 $149 $143 $347 $348 reversed $92 $-1 #
coedge $-1 -1 $-1 $143 $149 $349 $350 reversed $92 $-1 #
edge $-1 -1 $-1 $351 -25.399999999999999 $352 7.1054273576010019e-015 $346 $353 forward @7 unknown #
coedge $-1 -1 $-1 $145 $144 $354 $355 reversed $63 $-1 #
coedge $-1 -1 $-1 $356 $357 $358 $231 forward $359 $-1 #
edge $-1 -1 $-1 $360 -25.399999999999999 $235 7.1054273576010019e-015 $230 $361 forward @7 unknown #
coedge $-1 -1 $-1 $233 $146 $362 $363 reversed $234 $-1 #
coedge $-1 -1 $-1 $146 $232 $356 $364 forward $234 $-1 #
loop $-1 -1 $-1 $-1 $146 $365 #
vertex $-1 -1 $-1 $366 $367 #
vertex $-1 -1 $-1 $368 $369 #
ellipse-curve $-1 -1 $-1 -2.952082130906877e-032 -12.700000000000003 0 0 1 0 7.8739999999999997 0 0 1 I I #
coedge $-1 -1 $-1 $370 $371 $148 $239 forward $372 $-1 #
edge $-1 -1 $-1 $236 -1.5707963267948966 $241 0 $238 $237 forward @7 unknown #
coedge $-1 -1 $-1 $373 $374 $375 $150 forward $342 $-1 #
vertex $-1 -1 $-1 $376 $377 #
straight-curve $-1 -1 $-1 7.8739999999999997 -12.699999999999996 0 0 -1 0 I I #
coedge $-1 -1 $-1 $378 $151 $371 $368 forward $246 $-1 #
coedge $-1 -1 $-1 $151 $378 $153 $248 forward $246 $-1 #
coedge $-1 -1 $-1 $379 $362 $145 $152 reversed $223 $-1 #
loop $-1 -1 $-1 $-1 $151 $380 #
straight-curve $-1 -1 $-1 -2.952082130906877e-032 -12.699999999999996 7.8739999999999997 0 -1 0 I I #
edge $-1 -1 $-1 $381 -7.8739999999999997 $157 2.952082130906877e-032 $153 $382 forward @7 unknown #
coedge $-1 -1 $-1 $383 $375 $154 $250 reversed $384 $-1 #
edge $-1 -1 $-1 $381 -7.8739999999999997 $156 0 $249 $385 forward @7 unknown #
face $-1 -1 $-1 $386 $155 $24 $-1 $387 reversed single #
edge $-1 -1 $-1 $156 0 $388 7.8739999999999997 $374 $385 forward @7 unknown #
point $-1 -1 $-1 7.8739999999999997 12.700000000000003 0 #
edge $-1 -1 $-1 $157 2.952082130906877e-032 $389 7.8739999999999997 $390 $382 forward @7 unknown #
point $-1 -1 $-1 -2.952082130906877e-032 12.700000000000003 7.8739999999999997 #
model_id-kcp-attrib $-1 -1 $-1 $-1 $159 1 1021487624 1021487624 -1948581886 3 #
face $-1 -1 $-1 $-1 $174 $25 $-1 $391 reversed single #
loop $-1 -1 $-1 $-1 $273 $159 #
plane-surface $-1 -1 $-1 0 12.700000000000003 0 0 -1 0 0 0 -1 forward_v I I I I #
coedge $-1 -1 $-1 $392 $271 $274 $393 forward $160 $-1 #
coedge $-1 -1 $-1 $277 $162 $163 $265 reversed $100 $-1 #
coedge $-1 -1 $-1 $271 $392 $162 $263 reversed $160 $-1 #
edge $-1 -1 $-1 $278 -7.8739999999999997 $394 7.8739999999999997 $262 $395 forward @7 unknown #
coedge $-1 -1 $-1 $164 $163 $392 $396 forward $66 $-1 #
edge $-1 -1 $-1 $269 -7.8739999999999997 $394 7.8739999999999997 $261 $397 forward @7 unknown #
coedge $-1 -1 $-1 $274 $273 $164 $267 reversed $258 $-1 #
edge $-1 -1 $-1 $398 -7.8739999999999997 $268 7.8739999999999997 $266 $399 forward @7 unknown #
vertex $-1 -1 $-1 $166 $400 #
vertex $-1 -1 $-1 $280 $401 #
straight-curve $-1 -1 $-1 7.8739999999999997 0 -7.8739999999999997 0 -1 0 I I #
coedge $-1 -1 $-1 $260 $262 $167 $272 reversed $160 $-1 #
edge $-1 -1 $-1 $275 -12.700000000000003 $278 12.700000000000003 $271 $402 forward @7 unknown #
coedge $-1 -1 $-1 $266 $168 $173 $281 forward $258 $-1 #
coedge $-1 -1 $-1 $168 $266 $260 $393 reversed $258 $-1 #
vertex $-1 -1 $-1 $169 $403 #
straight-curve $-1 -1 $-1 0 12.700000000000003 7.8739999999999997 -1 0 0 I I #
coedge $-1 -1 $-1 $170 $261 $172 $280 reversed $100 $-1 #
vertex $-1 -1 $-1 $272 $404 #
straight-curve $-1 -1 $-1 0 -12.700000000000003 7.8739999999999997 1 0 0 I I #
edge $-1 -1 $-1 $175 -7.8739999999999997 $269 7.8739999999999997 $172 $405 forward @7 unknown #
edge $-1 -1 $-1 $176 -7.8739999999999997 $268 7.8739999999999997 $173 $406 forward @7 unknown #
point $-1 -1 $-1 7.8739999999999997 -12.700000000000003 7.8739999999999997 #
point $-1 -1 $-1 7.8739999999999997 12.700000000000003 7.8739999999999997 #
face $-1 -1 $-1 $308 $303 $27 $-1 $407 forward single #
loop $-1 -1 $-1 $-1 $408 $178 #
plane-surface $-1 -1 $-1 0 8.1280000000000037 5.5725847982182861 -0.50000000000000255 0 0.86602540378443715 0.86602540378443715 0 0.50000000000000255 forward_v I I I I #
coedge $-1 -1 $-1 $409 $410 $411 $412 forward $179 $-1 #
coedge $-1 -1 $-1 $413 $181 $410 $414 reversed $108 $-1 #
coedge $-1 -1 $-1 $181 $413 $182 $293 forward $108 $-1 #
coedge $-1 -1 $-1 $184 $411 $181 $291 reversed $191 $-1 #
edge $-1 -1 $-1 $294 -4.1794385986636797 $415 1.3931461995545666 $181 $416 forward @7 unknown #
coedge $-1 -1 $-1 $183 $182 $417 $418 reversed $70 $-1 #
edge $-1 -1 $-1 $419 0 $294 4.5719999999999992 $289 $420 forward @7 unknown #
vertex $-1 -1 $-1 $293 $421 #
straight-curve $-1 -1 $-1 3.6194999999999937 12.700000000000006 -3.4828654988863961 0.86602540378443416 0 0.50000000000000799 I I #
coedge $-1 -1 $-1 $417 $422 $186 $297 forward $423 $-1 #
edge $424 -1 $-1 $304 -4.1794385986636886 $299 1.3931461995545786 $186 $425 forward @7 unknown #
convexity-sys-attrib $-1 -1 $-1 $-1 $187 #
vertex $-1 -1 $-1 $297 $426 #
straight-curve $-1 -1 $-1 0 8.1280000000000037 -5.572584798218287 0 1 0 I I #
coedge $-1 -1 $-1 $427 $188 $422 $428 reversed $303 $-1 #
coedge $-1 -1 $-1 $188 $427 $190 $307 forward $303 $-1 #
loop $-1 -1 $-1 $-1 $302 $284 #
vertex $-1 -1 $-1 $428 $429 #
straight-curve $-1 -1 $-1 -4.8259999999999996 8.1280000000000037 -2.7862923991091528 0 1 0 I I #
coedge $-1 -1 $-1 $411 $190 $408 $430 reversed $191 $-1 #
edge $-1 -1 $-1 $431 -4.1794385986637099 $192 1.3931461995545764 $302 $432 forward @7 unknown #
face $-1 -1 $-1 $433 $191 $27 $-1 $434 forward single #
point $-1 -1 $-1 -4.8259999999999996 12.700000000000003 -2.7862923991091528 #
point $-1 -1 $-1 0 12.700000000000003 -5.572584798218287 #
loop $-1 -1 $-1 $-1 $201 $115 #
coedge $-1 -1 $-1 $312 $312 $199 $313 forward $195 $-1 #
edge $435 -1 $-1 $436 -3.1415926535897931 $436 3.1415926535897931 $199 $437 forward @7 unknown #
vertex $-1 -1 $-1 $200 $438 #
ellipse-curve $-1 -1 $-1 -2.952082130906877e-032 -12.699999999999989 0 0 1 0 7.8739999999999997 0 0 1 I I #
convexity-sys-attrib $-1 -1 $-1 $-1 $202 #
vertex $-1 -1 $-1 $202 $439 #
ellipse-curve $-1 -1 $-1 0 6.3500000000000014 0 0 -1 0 3.1749999999999998 0 0 1 I I #
point $-1 -1 $-1 -3.1749999999999998 -12.699999999999987 0 #
model_id-kcp-attrib $-1 -1 $-1 $-1 $206 1 1021487624 1021487624 -1948581887 8 #
face $440 -1 $-1 $441 $442 $9 $-1 $443 reversed single #
loop $-1 -1 $-1 $-1 $330 $206 #
cone-surface $-1 -1 $-1 0 -26.669999999999995 0 0 1 0 7.8739999999999997 0 0 1 I I 0 1 7.8739999999999997 forward I I I I #
loop $-1 -1 $-1 $-1 $444 $124 #
coedge $-1 -1 $-1 $328 $328 $445 $446 forward $207 $-1 #
coedge $-1 -1 $-1 $212 $209 $447 $448 reversed $125 $-1 #
coedge $-1 -1 $-1 $209 $212 $449 $450 forward $125 $-1 #
coedge $-1 -1 $-1 $325 $325 $209 $329 reversed $207 $-1 #
edge $-1 -1 $-1 $451 0 $452 3.1415926535897931 $328 $453 forward @7 unknown #
coedge $-1 -1 $-1 $447 $449 $211 $331 forward $322 $-1 #
edge $454 -1 $-1 $333 0 $334 3.1415926535897927 $211 $455 forward @7 unknown #
attrib_edge_convexity-kcp-attrib $-1 -1 $456 $-1 $213 1 #
vertex $-1 -1 $-1 $331 $457 #
vertex $-1 -1 $-1 $331 $458 #
ellipse-curve $-1 -1 $-1 3.5249581031848718e-016 -6.3499999999999996 -1.0574874309554614e-015 3.5813645955650209e-016 -1 4.8098146373874776e-032 7.8739999999999997 2.8199664825478975e-015 1.0574874309554614e-015 1 I I #
convexity-sys-attrib $-1 -1 $-1 $214 $132 #
point $-1 -1 $-1 3.1749999999999998 -6.349999999999997 0 #
point $-1 -1 $-1 -3.1749999999999998 -6.3499999999999996 0 #
attrib_edge_convexity-kcp-attrib $-1 -1 $459 $-1 $218 2 #
ellipse-curve $-1 -1 $-1 0 -6.3499999999999996 0 0 1 0 3.1749999999999998 0 0 1 I I #
face $-1 -1 $-1 $460 $461 $24 $-1 $462 reversed single #
loop $-1 -1 $-1 $-1 $240 $222 #
plane-surface $-1 -1 $-1 7.8739999999999997 0 0 -1 0 0 0 0 1 forward_v I I I I #
coedge $-1 -1 $-1 $463 $225 $464 $465 reversed $142 $-1 #
coedge $-1 -1 $-1 $225 $463 $466 $467 reversed $142 $-1 #
coedge $-1 -1 $-1 $468 $469 $470 $228 forward $471 $-1 #
coedge $-1 -1 $-1 $472 $473 $226 $348 forward $474 $-1 #
edge $-1 -1 $-1 $241 0 $352 1.5707963267948966 $347 $237 forward @7 unknown #
coedge $-1 -1 $-1 $475 $476 $227 $350 forward $477 $-1 #
edge $-1 -1 $-1 $351 -1.5707963267948966 $156 0 $349 $158 forward @7 unknown #
vertex $-1 -1 $-1 $478 $479 #
vertex $-1 -1 $-1 $480 $481 #
straight-curve $-1 -1 $-1 -2.952082130906877e-032 -12.699999999999996 -7.8739999999999997 0 -1 0 I I #
coedge $-1 -1 $-1 $482 $390 $229 $355 forward $483 $-1 #
edge $-1 -1 $-1 $157 1.5707963267948966 $360 3.1415926535897931 $354 $158 forward @7 unknown #
coedge $-1 -1 $-1 $484 $230 $233 $364 reversed $359 $-1 #
coedge $-1 -1 $-1 $230 $484 $482 $485 forward $359 $-1 #
coedge $-1 -1 $-1 $486 $487 $463 $231 reversed $461 $-1 #
loop $-1 -1 $-1 $-1 $230 $488 #
vertex $-1 -1 $-1 $489 $490 #
straight-curve $-1 -1 $-1 -7.8739999999999997 -12.699999999999996 0 0 -1 0 I I #
coedge $-1 -1 $-1 $245 $491 $232 $363 forward $223 $-1 #
edge $-1 -1 $-1 $492 -7.8739999999999997 $236 -2.952082130906877e-032 $232 $493 forward @7 unknown #
edge $-1 -1 $-1 $492 -7.8739999999999997 $235 0 $356 $494 forward @7 unknown #
face $-1 -1 $-1 $495 $234 $24 $-1 $496 reversed single #
edge $-1 -1 $-1 $235 0 $497 7.8739999999999997 $487 $494 forward @7 unknown #
point $-1 -1 $-1 -7.8739999999999997 -12.700000000000003 0 #
edge $-1 -1 $-1 $236 -2.952082130906877e-032 $498 7.8739999999999997 $371 $493 forward @7 unknown #
point $-1 -1 $-1 -2.952082130906877e-032 -12.700000000000003 7.8739999999999997 #
coedge $-1 -1 $-1 $371 $238 $499 $500 reversed $372 $-1 #
coedge $-1 -1 $-1 $238 $370 $243 $368 reversed $372 $-1 #
loop $-1 -1 $-1 $-1 $238 $495 #
coedge $-1 -1 $-1 $501 $240 $473 $376 forward $342 $-1 #
coedge $-1 -1 $-1 $240 $501 $475 $252 reversed $342 $-1 #
coedge $-1 -1 $-1 $249 $499 $94 $150 reversed $384 $-1 #
edge $-1 -1 $-1 $241 0 $502 7.8739999999999997 $373 $503 forward @7 unknown #
point $-1 -1 $-1 7.8739999999999997 -12.700000000000003 0 #
coedge $-1 -1 $-1 $244 $243 $383 $504 forward $246 $-1 #
coedge $-1 -1 $-1 $491 $245 $390 $254 forward $223 $-1 #
face $-1 -1 $-1 $505 $246 $24 $-1 $224 forward single #
vertex $-1 -1 $-1 $504 $506 #
straight-curve $-1 -1 $-1 0 12.700000000000003 7.8739999999999997 -1 0 0 I I #
coedge $-1 -1 $-1 $499 $249 $378 $504 reversed $384 $-1 #
loop $-1 -1 $-1 $-1 $375 $507 #
straight-curve $-1 -1 $-1 7.8739999999999997 12.700000000000003 0 0 0 -1 I I #
face $-1 -1 $-1 $508 $483 $24 $-1 $387 reversed single #
plane-surface $-1 -1 $-1 0 12.700000000000003 0 0 -1 0 0 0 -1 forward_v I I I I #
vertex $-1 -1 $-1 $509 $510 #
vertex $-1 -1 $-1 $254 $511 #
coedge $-1 -1 $-1 $354 $482 $379 $254 reversed $483 $-1 #
plane-surface $-1 -1 $-1 7.8739999999999997 0 0 -1 0 0 0 0 1 forward_v I I I I #
coedge $-1 -1 $-1 $262 $260 $264 $396 reversed $160 $-1 #
edge $-1 -1 $-1 $275 -7.8739999999999997 $398 7.8739999999999997 $274 $512 forward @7 unknown #
vertex $-1 -1 $-1 $396 $513 #
straight-curve $-1 -1 $-1 -7.8739999999999997 -12.700000000000003 0 0 0 -1 I I #
edge $-1 -1 $-1 $394 -12.700000000000003 $398 12.700000000000003 $392 $514 forward @7 unknown #
straight-curve $-1 -1 $-1 0 -12.700000000000003 -7.8739999999999997 -1 0 0 I I #
vertex $-1 -1 $-1 $267 $515 #
straight-curve $-1 -1 $-1 0 12.700000000000003 -7.8739999999999997 1 0 0 I I #
point $-1 -1 $-1 7.8739999999999997 12.700000000000003 -7.8739999999999997 #
point $-1 -1 $-1 7.8739999999999997 -12.700000000000003 -7.8739999999999997 #
straight-curve $-1 -1 $-1 -7.8739999999999997 0 7.8739999999999997 0 -1 0 I I #
point $-1 -1 $-1 -7.8739999999999997 12.700000000000003 7.8739999999999997 #
point $-1 -1 $-1 -7.8739999999999997 -12.700000000000003 7.8739999999999997 #
straight-curve $-1 -1 $-1 7.8739999999999997 -12.700000000000003 0 0 0 -1 I I #
straight-curve $-1 -1 $-1 7.8739999999999997 12.700000000000003 0 0 0 -1 I I #
plane-surface $-1 -1 $-1 -4.8259999999999996 8.1280000000000037 2.7862923991091333 -1 0 0 0 0 1 forward_v I I I I #
coedge $-1 -1 $-1 $516 $517 $306 $430 forward $285 $-1 #
coedge $-1 -1 $-1 $518 $287 $517 $519 reversed $179 $-1 #
coedge $-1 -1 $-1 $287 $518 $288 $414 forward $179 $-1 #
coedge $-1 -1 $-1 $290 $306 $287 $412 reversed $191 $-1 #
edge $-1 -1 $-1 $415 -4.1794385986636691 $520 1.3931461995545795 $287 $521 forward @7 unknown #
coedge $-1 -1 $-1 $289 $288 $522 $523 reversed $108 $-1 #
edge $-1 -1 $-1 $524 0 $415 4.5719999999999992 $410 $525 forward @7 unknown #
vertex $-1 -1 $-1 $414 $526 #
straight-curve $-1 -1 $-1 4.8259999999999659 12.700000000000006 1.3931461995545666 0 0 1 I I #
coedge $-1 -1 $-1 $522 $296 $292 $418 forward $423 $-1 #
edge $527 -1 $-1 $299 -4.1794385986637153 $419 1.3931461995545427 $292 $528 forward @7 unknown #
vertex $-1 -1 $-1 $418 $529 #
straight-curve $-1 -1 $-1 4.8259999999999659 8.1280000000000037 -2.7862923991091129 0 1 0 I I #
point $-1 -1 $-1 4.8259999999999659 12.700000000000003 -2.7862923991091129 #
coedge $-1 -1 $-1 $296 $530 $301 $428 forward $423 $-1 #
loop $-1 -1 $-1 $-1 $422 $433 #
convexity-sys-attrib $-1 -1 $-1 $-1 $297 #
straight-curve $-1 -1 $-1 -1.2065000000000103 8.1280000000000072 -4.8760116984409976 0.86602540378443871 0 -0.5 I I #
point $-1 -1 $-1 0 8.1280000000000037 -5.5725847982182861 #
coedge $-1 -1 $-1 $302 $301 $516 $531 forward $303 $-1 #
edge $532 -1 $-1 $533 -4.1794385986637099 $304 1.3931461995545764 $301 $534 forward @7 unknown #
point $-1 -1 $-1 -4.8259999999999996 8.1280000000000037 -2.7862923991091528 #
edge $-1 -1 $-1 $520 -4.1794385986637241 $431 1.3931461995545527 $408 $535 forward @7 unknown #
vertex $-1 -1 $-1 $531 $536 #
straight-curve $-1 -1 $-1 -4.8259999999999996 12.700000000000006 -1.3931461995545764 0 0 -1 I I #
face $-1 -1 $-1 $-1 $423 $27 $-1 $537 reversed single #
plane-surface $-1 -1 $-1 -1.9595436384634013e-014 12.700000000000008 0 -3.518915242527383e-031 1 -1.0546604761465176e-031 0 1.0546604761465176e-031 1 forward_v I I I I #
convexity-sys-attrib $-1 -1 $-1 $-1 $313 #
vertex $-1 -1 $-1 $313 $538 #
ellipse-curve $-1 -1 $-1 -2.952082130906877e-032 6.3500000000000014 0 0 1 0 7.8739999999999997 0 0 1 I I #
point $-1 -1 $-1 -7.8739999999999997 -12.699999999999989 9.6425504299973975e-016 #
point $-1 -1 $-1 3.1749999999999998 6.3500000000000059 0 #
model_id-kcp-attrib $-1 -1 $-1 $-1 $321 1 1021487624 1021487624 -1948581887 9 #
face $539 -1 $-1 $540 $541 $9 $-1 $542 reversed single #
loop $-1 -1 $-1 $-1 $543 $321 #
plane-surface $-1 -1 $-1 -4.8259999999999996 0 -2.7862923991091528 -1 0 0 0 0 25.399999999999999 forward_v I I I I #
coedge $-1 -1 $-1 $544 $545 $546 $547 reversed $324 $-1 #
coedge $-1 -1 $-1 $449 $447 $325 $446 reversed $322 $-1 #
edge $-1 -1 $-1 $451 0 $452 3.1415926535897931 $445 $548 forward @7 unknown #
coedge $-1 -1 $-1 $445 $330 $326 $448 forward $322 $-1 #
edge $-1 -1 $-1 $334 0 $452 0.24999999999999989 $447 $549 forward @7 unknown #
coedge $-1 -1 $-1 $330 $445 $327 $450 reversed $322 $-1 #
edge $-1 -1 $-1 $333 0 $451 0.24999999999999989 $449 $550 forward @7 unknown #
vertex $-1 -1 $-1 $450 $551 #
vertex $-1 -1 $-1 $446 $552 #
ellipse-curve $-1 -1 $-1 0 0 0 0 -1 0 7.8739999999999997 0 0 1 I I #
attrib_edge_convexity-kcp-attrib $-1 -1 $553 $-1 $331 1 #
ellipse-curve $-1 -1 $-1 3.5249581031848718e-016 -6.3499999999999996 1.0574874309554614e-015 -3.5813645955650209e-016 1 4.8098146373874776e-032 7.8739999999999997 2.8199664825478975e-015 -1.0574874309554614e-015 1 I I #
convexity-sys-attrib $-1 -1 $-1 $332 $213 #
point $-1 -1 $-1 7.8739999999999997 -6.349999999999997 0 #
point $-1 -1 $-1 -7.8739999999999997 -6.349999999999997 -9.6425504299973975e-016 #
convexity-sys-attrib $-1 -1 $-1 $339 $218 #
face $-1 -1 $-1 $365 $554 $24 $-1 $496 reversed single #
loop $-1 -1 $-1 $-1 $358 $341 #
plane-surface $-1 -1 $-1 -7.8739999999999997 0 0 1 0 0 0 0 -1 forward_v I I I I #
coedge $-1 -1 $-1 $345 $344 $144 $231 forward $142 $-1 #
coedge $-1 -1 $-1 $555 $556 $344 $465 forward $557 $-1 #
edge $-1 -1 $-1 $360 -3.1415926535897931 $351 -1.5707963267948966 $464 $158 forward @7 unknown #
coedge $-1 -1 $-1 $558 $559 $345 $467 forward $554 $-1 #
edge $-1 -1 $-1 $352 1.5707963267948966 $235 3.1415926535897931 $466 $237 forward @7 unknown #
coedge $-1 -1 $-1 $560 $346 $559 $480 forward $471 $-1 #
coedge $-1 -1 $-1 $346 $560 $555 $561 forward $471 $-1 #
coedge $-1 -1 $-1 $562 $563 $143 $228 reversed $564 $-1 #
loop $-1 -1 $-1 $-1 $346 $505 #
coedge $-1 -1 $-1 $473 $347 $563 $565 reversed $474 $-1 #
coedge $-1 -1 $-1 $347 $472 $373 $376 reversed $474 $-1 #
loop $-1 -1 $-1 $-1 $347 $566 #
coedge $-1 -1 $-1 $476 $349 $374 $252 forward $477 $-1 #
coedge $-1 -1 $-1 $349 $475 $562 $478 reversed $477 $-1 #
loop $-1 -1 $-1 $-1 $349 $567 #
edge $-1 -1 $-1 $351 -2.952082130906877e-032 $388 7.8739999999999997 $476 $568 forward @7 unknown #
point $-1 -1 $-1 -2.952082130906877e-032 12.700000000000003 -7.8739999999999997 #
edge $-1 -1 $-1 $352 2.952082130906877e-032 $497 7.8739999999999997 $559 $569 forward @7 unknown #
point $-1 -1 $-1 -2.952082130906877e-032 -12.700000000000003 -7.8739999999999997 #
coedge $-1 -1 $-1 $390 $354 $357 $485 reversed $483 $-1 #
loop $-1 -1 $-1 $-1 $354 $386 #
coedge $-1 -1 $-1 $357 $356 $491 $570 reversed $359 $-1 #
edge $-1 -1 $-1 $389 -7.8739999999999997 $360 0 $482 $571 forward @7 unknown #
coedge $-1 -1 $-1 $572 $358 $556 $489 forward $461 $-1 #
coedge $-1 -1 $-1 $358 $572 $558 $366 reversed $461 $-1 #
face $-1 -1 $-1 $507 $359 $24 $-1 $462 reversed single #
edge $-1 -1 $-1 $360 0 $573 7.8739999999999997 $556 $571 forward @7 unknown #
point $-1 -1 $-1 -7.8739999999999997 12.700000000000003 0 #
coedge $-1 -1 $-1 $362 $379 $484 $570 forward $223 $-1 #
vertex $-1 -1 $-1 $570 $574 #
straight-curve $-1 -1 $-1 0 -12.700000000000003 7.8739999999999997 1 0 0 I I #
straight-curve $-1 -1 $-1 -7.8739999999999997 -12.700000000000003 0 0 0 -1 I I #
face $-1 -1 $-1 $566 $372 $24 $-1 $496 reversed single #
plane-surface $-1 -1 $-1 0 -12.700000000000003 0 0 1 0 0 0 1 forward_v I I I I #
vertex $-1 -1 $-1 $575 $576 #
vertex $-1 -1 $-1 $504 $577 #
coedge $-1 -1 $-1 $375 $383 $370 $500 forward $384 $-1 #
edge $-1 -1 $-1 $498 -7.8739999999999997 $241 0 $499 $503 forward @7 unknown #
coedge $-1 -1 $-1 $374 $373 $578 $509 reversed $342 $-1 #
vertex $-1 -1 $-1 $376 $579 #
straight-curve $-1 -1 $-1 7.8739999999999997 -12.700000000000003 0 0 0 -1 I I #
edge $-1 -1 $-1 $498 -12.700000000000003 $381 12.700000000000003 $383 $580 forward @7 unknown #
face $-1 -1 $-1 $488 $471 $24 $-1 $581 reversed single #
point $-1 -1 $-1 7.8739999999999997 12.700000000000003 7.8739999999999997 #
face $-1 -1 $-1 $-1 $384 $24 $-1 $343 reversed single #
face $-1 -1 $-1 $582 $557 $24 $-1 $387 reversed single #
edge $-1 -1 $-1 $388 -12.700000000000003 $502 12.700000000000003 $501 $583 forward @7 unknown #
point $-1 -1 $-1 7.8739999999999997 12.700000000000003 -7.8739999999999997 #
point $-1 -1 $-1 -7.8739999999999997 12.700000000000003 7.8739999999999997 #
straight-curve $-1 -1 $-1 -7.8739999999999997 12.700000000000003 0 0 0 -1 I I #
point $-1 -1 $-1 -7.8739999999999997 -12.700000000000003 -7.8739999999999997 #
straight-curve $-1 -1 $-1 -7.8739999999999997 0 -7.8739999999999997 0 1 0 I I #
point $-1 -1 $-1 -7.8739999999999997 12.700000000000003 -7.8739999999999997 #
coedge $-1 -1 $-1 $584 $408 $427 $531 reversed $285 $-1 #
coedge $-1 -1 $-1 $408 $584 $409 $519 forward $285 $-1 #
coedge $-1 -1 $-1 $410 $409 $585 $586 reversed $179 $-1 #
edge $-1 -1 $-1 $587 0 $520 4.5719999999999992 $517 $588 forward @7 unknown #
vertex $-1 -1 $-1 $519 $589 #
straight-curve $-1 -1 $-1 1.2065000000000066 12.700000000000006 4.8760116984409896 -0.86602540378443571 0 0.50000000000000533 I I #
coedge $-1 -1 $-1 $585 $417 $413 $523 forward $423 $-1 #
edge $590 -1 $-1 $419 -4.1794385986636797 $524 1.3931461995545666 $413 $591 forward @7 unknown #
vertex $-1 -1 $-1 $523 $592 #
straight-curve $-1 -1 $-1 4.8259999999999659 8.1280000000000037 2.7862923991091333 0 1 0 I I #
point $-1 -1 $-1 4.8259999999999659 12.700000000000003 2.7862923991091333 #
convexity-sys-attrib $-1 -1 $-1 $-1 $418 #
straight-curve $-1 -1 $-1 3.6194999999999937 8.1280000000000072 -3.4828654988863961 0.86602540378443416 0 0.50000000000000799 I I #
point $-1 -1 $-1 4.8259999999999659 8.1280000000000037 -2.7862923991091133 #
coedge $-1 -1 $-1 $422 $585 $584 $593 forward $423 $-1 #
edge $-1 -1 $-1 $533 0 $431 4.5719999999999992 $427 $594 forward @7 unknown #
convexity-sys-attrib $-1 -1 $-1 $-1 $428 #
vertex $-1 -1 $-1 $428 $595 #
straight-curve $-1 -1 $-1 -4.8259999999999996 8.1280000000000072 -1.3931461995545764 0 0 -1 I I #
straight-curve $-1 -1 $-1 -3.6195000000000142 12.700000000000006 3.4828654988864134 -0.86602540378443715 0 -0.50000000000000255 I I #
point $-1 -1 $-1 -4.8259999999999996 12.700000000000003 2.7862923991091333 #
plane-surface $-1 -1 $-1 -1.9595436384634013e-014 8.128000000000009 0 -3.518915242527383e-031 1 -1.0546604761465176e-031 0 1.0546604761465176e-031 1 forward_v I I I I #
point $-1 -1 $-1 -7.8739999999999997 6.3500000000000014 9.6425504299973975e-016 #
model_id-kcp-attrib $-1 -1 $-1 $-1 $441 1 1021487624 1021487624 -1948581887 10 #
face $596 -1 $-1 $597 $598 $9 $-1 $599 reversed single #
loop $-1 -1 $-1 $-1 $600 $441 #
plane-surface $-1 -1 $-1 -4.8259999999999996 0 2.7862923991091333 -0.50000000000000255 0 0.86602540378443715 21.997045256124704 0 12.700000000000065 forward_v I I I I #
coedge $-1 -1 $-1 $601 $546 $602 $603 forward $442 $-1 #
coedge $-1 -1 $-1 $604 $444 $605 $606 reversed $324 $-1 #
coedge $-1 -1 $-1 $444 $607 $608 $609 reversed $324 $-1 #
coedge $-1 -1 $-1 $543 $610 $444 $547 forward $442 $-1 #
edge $-1 -1 $-1 $611 0 $612 0.21939310229205852 $444 $613 forward @7 unknown #
ellipse-curve $-1 -1 $-1 0 0 0 0 1 0 7.8739999999999997 0 0 1 I I #
straight-curve $-1 -1 $-1 -7.8739999999999997 -6.349999999999997 9.6425504299973975e-016 0 25.399999999999999 0 I I #
straight-curve $-1 -1 $-1 7.8739999999999997 -6.349999999999997 0 0 25.399999999999999 0 I I #
point $-1 -1 $-1 7.8739999999999997 0 0 #
point $-1 -1 $-1 -7.8739999999999997 0 0 #
convexity-sys-attrib $-1 -1 $-1 $454 $331 #
loop $-1 -1 $-1 $-1 $466 $460 #
coedge $-1 -1 $-1 $556 $464 $469 $561 reversed $557 $-1 #
coedge $-1 -1 $-1 $464 $555 $486 $489 reversed $557 $-1 #
loop $-1 -1 $-1 $-1 $464 $508 #
coedge $-1 -1 $-1 $559 $466 $487 $366 forward $554 $-1 #
coedge $-1 -1 $-1 $466 $558 $468 $480 reversed $554 $-1 #
coedge $-1 -1 $-1 $469 $468 $572 $575 forward $471 $-1 #
edge $-1 -1 $-1 $573 -7.8739999999999997 $351 -2.952082130906877e-032 $555 $568 forward @7 unknown #
coedge $-1 -1 $-1 $578 $470 $476 $478 forward $564 $-1 #
coedge $-1 -1 $-1 $470 $578 $472 $565 forward $564 $-1 #
loop $-1 -1 $-1 $-1 $470 $582 #
edge $-1 -1 $-1 $502 -7.8739999999999997 $352 2.952082130906877e-032 $472 $569 forward @7 unknown #
face $-1 -1 $-1 $567 $474 $24 $-1 $496 reversed single #
face $-1 -1 $-1 $251 $477 $24 $-1 $387 reversed single #
straight-curve $-1 -1 $-1 0 12.700000000000003 -7.8739999999999997 1 0 0 I I #
straight-curve $-1 -1 $-1 0 -12.700000000000003 -7.8739999999999997 -1 0 0 I I #
edge $-1 -1 $-1 $389 -12.700000000000003 $492 12.700000000000003 $484 $614 forward @7 unknown #
straight-curve $-1 -1 $-1 -7.8739999999999997 12.700000000000003 0 0 0 -1 I I #
coedge $-1 -1 $-1 $487 $486 $560 $575 reversed $461 $-1 #
vertex $-1 -1 $-1 $561 $615 #
point $-1 -1 $-1 -7.8739999999999997 -12.700000000000003 7.8739999999999997 #
edge $-1 -1 $-1 $497 -12.700000000000003 $573 12.700000000000003 $572 $616 forward @7 unknown #
point $-1 -1 $-1 -7.8739999999999997 -12.700000000000003 -7.8739999999999997 #
point $-1 -1 $-1 7.8739999999999997 -12.700000000000003 7.8739999999999997 #
coedge $-1 -1 $-1 $563 $562 $501 $509 forward $564 $-1 #
point $-1 -1 $-1 7.8739999999999997 -12.700000000000003 -7.8739999999999997 #
straight-curve $-1 -1 $-1 7.8739999999999997 0 7.8739999999999997 0 1 0 I I #
plane-surface $-1 -1 $-1 0 0 -7.8739999999999997 0 0 1 1 0 0 forward_v I I I I #
face $-1 -1 $-1 $380 $564 $24 $-1 $581 reversed single #
straight-curve $-1 -1 $-1 7.8739999999999997 0 -7.8739999999999997 0 -1 0 I I #
coedge $-1 -1 $-1 $517 $516 $530 $593 reversed $285 $-1 #
coedge $-1 -1 $-1 $530 $522 $518 $586 forward $423 $-1 #
edge $617 -1 $-1 $524 -4.1794385986636691 $587 1.3931461995545795 $518 $618 forward @7 unknown #
vertex $-1 -1 $-1 $586 $619 #
straight-curve $-1 -1 $-1 0 8.1280000000000037 5.5725847982182861 0 1 0 I I #
point $-1 -1 $-1 0 12.700000000000003 5.5725847982182861 #
convexity-sys-attrib $-1 -1 $-1 $-1 $523 #
straight-curve $-1 -1 $-1 4.8259999999999659 8.1280000000000072 1.3931461995545666 0 0 1 I I #
point $-1 -1 $-1 4.8259999999999659 8.1280000000000037 2.7862923991091333 #
edge $620 -1 $-1 $587 -4.1794385986637241 $533 1.3931461995545527 $584 $621 forward @7 unknown #
straight-curve $-1 -1 $-1 -4.8259999999999996 8.1280000000000037 2.7862923991091333 0 1 0 I I #
point $-1 -1 $-1 -4.8259999999999996 8.1280000000000037 2.7862923991091333 #
model_id-kcp-attrib $-1 -1 $-1 $-1 $540 1 1021487624 1021487624 -1948581887 11 #
face $622 -1 $-1 $623 $624 $9 $-1 $625 reversed single #
loop $-1 -1 $-1 $-1 $626 $540 #
plane-surface $-1 -1 $-1 0 0 5.5725847982182861 0.50000000000000533 0 0.86602540378443571 21.997045256124665 0 -12.700000000000133 forward_v I I I I #
coedge $-1 -1 $-1 $627 $608 $628 $629 forward $541 $-1 #
coedge $-1 -1 $-1 $610 $543 $630 $631 reversed $442 $-1 #
coedge $-1 -1 $-1 $608 $627 $543 $603 reversed $541 $-1 #
edge $-1 -1 $-1 $612 0 $632 0.17999999999999997 $602 $633 forward @7 unknown #
coedge $-1 -1 $-1 $634 $544 $635 $636 reversed $324 $-1 #
coedge $-1 -1 $-1 $637 $638 $544 $606 forward $639 $-1 #
edge $-1 -1 $-1 $640 0 $611 0.21939310229205775 $544 $641 forward @7 unknown #
coedge $-1 -1 $-1 $545 $634 $642 $643 reversed $324 $-1 #
coedge $-1 -1 $-1 $600 $602 $545 $609 forward $541 $-1 #
edge $-1 -1 $-1 $612 0 $644 0.21939310229205813 $545 $645 forward @7 unknown #
coedge $-1 -1 $-1 $546 $601 $637 $646 reversed $442 $-1 #
vertex $-1 -1 $-1 $606 $647 #
vertex $-1 -1 $-1 $609 $648 #
straight-curve $-1 -1 $-1 -4.8259999999999996 0 -2.7862923991091528 0 0 25.399999999999999 I I #
straight-curve $-1 -1 $-1 -7.8739999999999997 0 7.8739999999999997 0 -1 0 I I #
point $-1 -1 $-1 -7.8739999999999997 12.700000000000003 -7.8739999999999997 #
straight-curve $-1 -1 $-1 -7.8739999999999997 0 -7.8739999999999997 0 1 0 I I #
convexity-sys-attrib $-1 -1 $-1 $-1 $586 #
straight-curve $-1 -1 $-1 1.2065000000000066 8.1280000000000072 4.8760116984409896 -0.86602540378443571 0 0.50000000000000533 I I #
point $-1 -1 $-1 0 8.1280000000000037 5.5725847982182861 #
convexity-sys-attrib $-1 -1 $-1 $-1 $593 #
straight-curve $-1 -1 $-1 -3.6195000000000142 8.1280000000000072 3.4828654988864134 -0.86602540378443715 0 -0.50000000000000255 I I #
model_id-kcp-attrib $-1 -1 $-1 $-1 $597 1 1021487624 1021487624 -1948581887 12 #
face $649 -1 $-1 $650 $651 $9 $-1 $652 reversed single #
loop $-1 -1 $-1 $-1 $653 $597 #
plane-surface $-1 -1 $-1 4.8259999999999659 0 2.7862923991091333 1 0 0 0 0 -25.399999999999999 forward_v I I I I #
coedge $-1 -1 $-1 $654 $642 $655 $656 forward $598 $-1 #
coedge $-1 -1 $-1 $602 $600 $657 $658 reversed $541 $-1 #
coedge $-1 -1 $-1 $642 $654 $600 $629 reversed $598 $-1 #
edge $-1 -1 $-1 $644 0 $659 0.17999999999999997 $600 $660 forward @7 unknown #
coedge $-1 -1 $-1 $657 $661 $601 $631 forward $662 $-1 #
edge $663 -1 $-1 $664 0 $632 0.21939310229205852 $630 $665 forward @7 unknown #
vertex $-1 -1 $-1 $658 $666 #
straight-curve $-1 -1 $-1 -4.8259999999999996 0 2.7862923991091333 0 -25.399999999999999 0 I I #
coedge $-1 -1 $-1 $607 $604 $667 $668 reversed $324 $-1 #
coedge $-1 -1 $-1 $669 $670 $604 $636 forward $651 $-1 #
edge $-1 -1 $-1 $671 0 $640 0.21939310229205736 $604 $672 forward @7 unknown #
coedge $-1 -1 $-1 $673 $605 $610 $646 forward $639 $-1 #
coedge $-1 -1 $-1 $605 $673 $669 $674 reversed $639 $-1 #
loop $-1 -1 $-1 $-1 $637 $650 #
vertex $-1 -1 $-1 $636 $675 #
straight-curve $-1 -1 $-1 0 0 -5.5725847982182861 -21.997045256124739 0 12.699999999999998 I I #
coedge $-1 -1 $-1 $626 $628 $607 $643 forward $598 $-1 #
edge $-1 -1 $-1 $644 0 $676 0.21939310229205702 $607 $677 forward @7 unknown #
vertex $-1 -1 $-1 $609 $678 #
straight-curve $-1 -1 $-1 -4.8259999999999996 0 2.7862923991091333 21.997045256124704 0 12.700000000000061 I I #
edge $-1 -1 $-1 $611 0 $664 0.17999999999999997 $637 $679 forward @7 unknown #
point $-1 -1 $-1 -4.8259999999999996 0 -2.7862923991091528 #
point $-1 -1 $-1 -4.8259999999999996 0 2.7862923991091333 #
model_id-kcp-attrib $-1 -1 $-1 $-1 $623 1 1021487624 1021487624 -1948581887 13 #
face $680 -1 $-1 $681 $639 $9 $-1 $682 reversed single #
loop $-1 -1 $-1 $-1 $669 $623 #
plane-surface $-1 -1 $-1 4.8259999999999659 0 -2.7862923991091133 0.50000000000000799 0 -0.86602540378443416 -21.997045256124622 0 -12.7000000000002 forward_v I I I I #
coedge $-1 -1 $-1 $683 $667 $670 $684 forward $624 $-1 #
coedge $-1 -1 $-1 $628 $626 $685 $686 reversed $598 $-1 #
coedge $-1 -1 $-1 $667 $683 $626 $656 reversed $624 $-1 #
edge $-1 -1 $-1 $676 0 $687 0.17999999999999997 $626 $688 forward @7 unknown #
coedge $-1 -1 $-1 $685 $630 $627 $658 forward $662 $-1 #
edge $689 -1 $-1 $632 0 $659 0.21939310229205813 $657 $690 forward @7 unknown #
vertex $-1 -1 $-1 $658 $691 #
straight-curve $-1 -1 $-1 0 0 5.5725847982182852 0 -25.399999999999999 0 I I #
coedge $-1 -1 $-1 $630 $692 $673 $693 forward $662 $-1 #
loop $-1 -1 $-1 $-1 $685 $681 #
attrib_edge_convexity-kcp-attrib $-1 -1 $694 $-1 $631 2 #
vertex $-1 -1 $-1 $631 $695 #
straight-curve $-1 -1 $-1 -4.8259999999999996 -4.5719999999999992 -2.7862923991091528 0 0 25.399999999999999 I I #
point $-1 -1 $-1 -4.8259999999999996 -4.5719999999999992 2.7862923991091333 #
coedge $-1 -1 $-1 $653 $655 $634 $668 forward $624 $-1 #
edge $-1 -1 $-1 $676 0 $671 0.21939310229205694 $634 $696 forward @7 unknown #
coedge $-1 -1 $-1 $697 $635 $638 $674 forward $651 $-1 #
coedge $-1 -1 $-1 $635 $697 $653 $684 reversed $651 $-1 #
vertex $-1 -1 $-1 $668 $698 #
straight-curve $-1 -1 $-1 4.8259999999999659 0 -2.7862923991091133 -21.997045256124622 0 -12.700000000000202 I I #
coedge $-1 -1 $-1 $638 $637 $661 $693 reversed $639 $-1 #
edge $-1 -1 $-1 $640 0 $699 0.17999999999999997 $669 $700 forward @7 unknown #
point $-1 -1 $-1 0 0 -5.5725847982182861 #
vertex $-1 -1 $-1 $643 $701 #
straight-curve $-1 -1 $-1 0 0 5.5725847982182861 21.997045256124665 0 -12.700000000000133 I I #
point $-1 -1 $-1 0 0 5.5725847982182861 #
straight-curve $-1 -1 $-1 -4.8260000000000005 0 -2.7862923991091524 0 -25.399999999999999 0 I I #
model_id-kcp-attrib $-1 -1 $-1 $-1 $650 1 1021487624 1021487624 -1948581887 14 #
face $702 -1 $-1 $-1 $662 $9 $-1 $703 forward single #
plane-surface $-1 -1 $-1 0 0 -5.5725847982182861 -0.5 0 -0.86602540378443871 -21.997045256124743 0 12.699999999999999 forward_v I I I I #
coedge $-1 -1 $-1 $655 $653 $704 $705 reversed $624 $-1 #
edge $-1 -1 $-1 $671 0 $706 0.17999999999999997 $653 $707 forward @7 unknown #
coedge $-1 -1 $-1 $704 $657 $654 $686 forward $662 $-1 #
edge $708 -1 $-1 $659 0 $687 0.21939310229205702 $685 $709 forward @7 unknown #
vertex $-1 -1 $-1 $705 $710 #
straight-curve $-1 -1 $-1 4.8259999999999659 0 2.7862923991091333 0 -25.399999999999999 0 I I #
attrib_edge_convexity-kcp-attrib $-1 -1 $711 $-1 $658 2 #
straight-curve $-1 -1 $-1 -4.8259999999999996 -4.5719999999999992 2.7862923991091333 21.997045256124704 0 12.700000000000061 I I #
point $-1 -1 $-1 0 -4.5719999999999992 5.5725847982182861 #
coedge $-1 -1 $-1 $661 $704 $697 $712 forward $662 $-1 #
edge $713 -1 $-1 $699 0 $664 0.21939310229205775 $661 $714 forward @7 unknown #
convexity-sys-attrib $-1 -1 $-1 $663 $631 #
point $-1 -1 $-1 -4.8259999999999996 -4.5719999999999992 -2.7862923991091528 #
straight-curve $-1 -1 $-1 4.8259999999999659 0 2.7862923991091333 0 0 -25.399999999999999 I I #
coedge $-1 -1 $-1 $670 $669 $692 $712 reversed $651 $-1 #
point $-1 -1 $-1 4.8259999999999659 0 -2.7862923991091133 #
vertex $-1 -1 $-1 $693 $715 #
straight-curve $-1 -1 $-1 0 0 -5.572584798218287 0 -25.399999999999999 0 I I #
point $-1 -1 $-1 4.8259999999999659 0 2.7862923991091333 #
model_id-kcp-attrib $-1 -1 $-1 $-1 $681 1 1021487624 1021487624 -1948581887 15 #
plane-surface $-1 -1 $-1 0 -4.5719999999999992 0 0 1 0 -25.399999999999999 0 0 forward_v I I I I #
coedge $-1 -1 $-1 $692 $685 $683 $705 forward $662 $-1 #
edge $716 -1 $-1 $687 0 $706 0.21939310229205694 $704 $717 forward @7 unknown #
vertex $-1 -1 $-1 $712 $718 #
straight-curve $-1 -1 $-1 4.8259999999999659 0 -2.7862923991091133 0 -25.399999999999999 0 I I #
attrib_edge_convexity-kcp-attrib $-1 -1 $719 $-1 $686 2 #
straight-curve $-1 -1 $-1 0 -4.5719999999999992 5.5725847982182861 21.997045256124665 0 -12.700000000000133 I I #
point $-1 -1 $-1 4.8259999999999659 -4.5719999999999992 2.7862923991091333 #
convexity-sys-attrib $-1 -1 $-1 $689 $658 #
edge $720 -1 $-1 $706 0 $699 0.21939310229205736 $692 $721 forward @7 unknown #
attrib_edge_convexity-kcp-attrib $-1 -1 $722 $-1 $693 2 #
straight-curve $-1 -1 $-1 0 -4.5719999999999992 -5.5725847982182861 -21.997045256124739 0 12.699999999999998 I I #
point $-1 -1 $-1 0 -4.5719999999999992 -5.5725847982182861 #
attrib_edge_convexity-kcp-attrib $-1 -1 $723 $-1 $705 2 #
straight-curve $-1 -1 $-1 4.8259999999999659 -4.5719999999999992 2.7862923991091333 0 0 -25.399999999999999 I I #
point $-1 -1 $-1 4.8259999999999659 -4.5719999999999992 -2.7862923991091133 #
convexity-sys-attrib $-1 -1 $-1 $708 $686 #
attrib_edge_convexity-kcp-attrib $-1 -1 $724 $-1 $712 2 #
straight-curve $-1 -1 $-1 4.8259999999999659 -4.5719999999999992 -2.7862923991091133 -21.997045256124622 0 -12.700000000000202 I I #
convexity-sys-attrib $-1 -1 $-1 $713 $693 #
convexity-sys-attrib $-1 -1 $-1 $716 $705 #
convexity-sys-attrib $-1 -1 $-1 $720 $712 #
End-of-ACIS-data 