700 0 2 0           
24 FBMach with ACIS - 7.0.3 13 ACIS 7.0.3 NT 24 Wed May 15 14:31:59 2002 
1 9.9999999999999995e-007 1e-010 
body $2 -1 $-1 $3 $-1 $4 #
bdycol-kcp $-1 -1 1 4 $5 $6 $7 $8 #
model_id-kcp-attrib $-1 -1 $-1 $-1 $0 1 1021487519 1021487519 830537729 1 #
lump $-1 -1 $-1 $-1 $9 $0 #
transform $-1 -1 1 0 0 0 1 0 0 0 1 0 0 0 1 rotate no_reflect no_shear #
body $10 -1 $-1 $11 $-1 $12 #
body $13 -1 $-1 $14 $-1 $15 #
body $16 -1 $-1 $17 $-1 $18 #
body $19 -1 $-1 $20 $-1 $21 #
shell $-1 -1 $-1 $-1 $-1 $22 $-1 $3 #
rgb_color-st-attrib $-1 -1 $23 $-1 $5 0.5 1 1 #
lump $-1 -1 $-1 $-1 $24 $5 #
transform $-1 -1 1 0 0 0 1 0 0 0 1 0 -12.700000000000003 0 1 no_rotate no_reflect no_shear #
rgb_color-st-attrib $-1 -1 $25 $-1 $6 1 0.5 1 #
lump $-1 -1 $-1 $-1 $26 $6 #
transform $-1 -1 1 0 0 0 1 0 0 0 1 0 -12.700000000000003 0 1 no_rotate no_reflect no_shear #
model_id-kcp-attrib $-1 -1 $-1 $-1 $7 1 1021487519 1021487519 830537730 1 #
lump $-1 -1 $-1 $-1 $27 $7 #
transform $-1 -1 1 0 0 0 1 0 0 0 1 0 -12.700000000000003 0 1 no_rotate no_reflect no_shear #
rgb_color-st-attrib $-1 -1 $28 $-1 $8 0 0 1 #
lump $-1 -1 $-1 $-1 $29 $8 #
transform $-1 -1 1 0 0 0 1 0 0 0 1 0 -12.700000000000003 0 1 no_rotate no_reflect no_shear #
face $30 -1 $-1 $31 $32 $9 $-1 $33 reversed single #
model_id-kcp-attrib $-1 -1 $-1 $10 $5 1 1021487519 1021487519 822935555 1 #
shell $-1 -1 $-1 $-1 $-1 $34 $-1 $11 #
model_id-kcp-attrib $-1 -1 $-1 $13 $6 1 1021487519 1021487519 827195397 1 #
shell $-1 -1 $-1 $-1 $-1 $35 $-1 $14 #
shell $-1 -1 $-1 $-1 $-1 $36 $-1 $17 #
model_id-kcp-attrib $-1 -1 $-1 $19 $8 1 1021487519 1021487519 834797572 1 #
shell $-1 -1 $-1 $-1 $-1 $37 $-1 $20 #
model_id-kcp-attrib $-1 -1 $-1 $-1 $22 1 1021487519 1021487519 830537729 2 #
face $38 -1 $-1 $39 $40 $9 $-1 $41 forward single #
loop $-1 -1 $-1 $-1 $42 $22 #
plane-surface $-1 -1 $-1 0 -25.399999999999999 0 0 1 0 25.399999999999999 0 0 forward_v I I I I #
face $-1 -1 $-1 $43 $44 $24 $-1 $45 reversed single #
face $-1 -1 $-1 $46 $47 $26 $-1 $48 forward single #
face $-1 -1 $-1 $49 $50 $27 $-1 $51 forward single #
face $-1 -1 $-1 $52 $53 $29 $-1 $54 forward single #
model_id-kcp-attrib $-1 -1 $-1 $-1 $31 1 1021487519 1021487519 830537729 3 #
face $55 -1 $-1 $56 $57 $9 $-1 $58 forward single #
loop $-1 -1 $-1 $-1 $59 $31 #
cone-surface $-1 -1 $-1 0 -26.669999999999995 0 0 1 0 3.1749999999999998 0 0 1 I I 0 1 3.1749999999999998 forward I I I I #
coedge $-1 -1 $-1 $60 $60 $59 $61 reversed $32 $-1 #
face $-1 -1 $-1 $62 $63 $24 $-1 $45 reversed single #
loop $-1 -1 $-1 $-1 $64 $34 #
cone-surface $-1 -1 $-1 -2.952082130906877e-032 -12.699999999999996 0 0 -1 0 7.8739999999999997 0 0 1 I I 0 1 7.8739999999999997 forward I I I I #
face $-1 -1 $-1 $65 $66 $26 $-1 $67 forward single #
loop $-1 -1 $-1 $68 $69 $35 #
cone-surface $-1 -1 $-1 0 6.3500000000000014 0 0 -1 0 3.1749999999999998 0 0 1 I I 0 -1 3.1749999999999998 forward I I I I #
face $-1 -1 $-1 $70 $71 $27 $-1 $72 reversed single #
loop $-1 -1 $-1 $-1 $73 $36 #
plane-surface $-1 -1 $-1 0 0 7.8739999999999997 0 0 1 1 0 0 forward_v I I I I #
face $-1 -1 $-1 $74 $75 $29 $-1 $76 forward single #
loop $-1 -1 $-1 $-1 $77 $37 #
plane-surface $-1 -1 $-1 -4.8259999999999996 8.1280000000000037 -2.7862923991091528 -0.5 0 -0.86602540378443871 -0.86602540378443871 0 0.5 forward_v I I I I #
model_id-kcp-attrib $-1 -1 $-1 $-1 $39 1 1021487519 1021487519 830537729 4 #
face $78 -1 $-1 $79 $80 $9 $-1 $81 reversed single #
loop $-1 -1 $-1 $-1 $82 $39 #
cone-surface $-1 -1 $-1 0 -26.669999999999995 0 0 1 0 3.1749999999999998 0 0 1 I I 0 1 3.1749999999999998 forward I I I I #
coedge $-1 -1 $-1 $83 $84 $42 $61 forward $40 $-1 #
coedge $-1 -1 $-1 $42 $42 $85 $86 forward $32 $-1 #
edge $87 -1 $-1 $88 0 $89 3.1415926535897931 $42 $90 forward @7 unknown #
face $-1 -1 $-1 $91 $92 $24 $-1 $45 reversed single #
loop $-1 -1 $-1 $-1 $93 $43 #
coedge $-1 -1 $-1 $94 $95 $96 $97 reversed $44 $-1 #
face $-1 -1 $-1 $98 $99 $26 $-1 $100 reversed single #
loop $-1 -1 $-1 $101 $102 $46 #
cone-surface $-1 -1 $-1 -2.952082130906877e-032 6.3500000000000014 0 0 -1 0 7.8739999999999997 0 0 1 I I 0 1 7.8739999999999997 forward I I I I #
loop $-1 -1 $-1 $-1 $103 $35 #
coedge $-1 -1 $-1 $69 $69 $104 $105 forward $47 $-1 #
face $106 -1 $-1 $107 $108 $27 $-1 $109 reversed single #
loop $-1 -1 $-1 $-1 $110 $49 #
plane-surface $-1 -1 $-1 0 0 -7.8739999999999997 0 0 1 1 0 0 forward_v I I I I #
coedge $-1 -1 $-1 $111 $112 $113 $114 forward $50 $-1 #
face $-1 -1 $-1 $115 $116 $29 $-1 $117 forward single #
loop $-1 -1 $-1 $-1 $118 $52 #
plane-surface $-1 -1 $-1 0 8.1280000000000037 -5.572584798218287 0.50000000000000799 0 -0.86602540378443416 -0.86602540378443416 0 -0.50000000000000799 forward_v I I I I #
coedge $-1 -1 $-1 $119 $120 $121 $122 forward $53 $-1 #
model_id-kcp-attrib $-1 -1 $-1 $-1 $56 1 1021487519 1021487519 830537729 5 #
face $123 -1 $-1 $124 $125 $9 $-1 $126 forward single #
loop $-1 -1 $-1 $127 $128 $56 #
plane-surface $-1 -1 $-1 0 -6.3499999999999996 0 0 1 0 25.399999999999999 0 0 forward_v I I I I #
coedge $-1 -1 $-1 $129 $130 $131 $132 forward $57 $-1 #
coedge $-1 -1 $-1 $133 $59 $129 $134 forward $40 $-1 #
coedge $-1 -1 $-1 $59 $133 $130 $135 reversed $40 $-1 #
coedge $-1 -1 $-1 $130 $129 $60 $86 reversed $57 $-1 #
edge $136 -1 $-1 $88 0 $89 3.1415926535897931 $60 $137 forward @7 unknown #
attrib_edge_convexity-kcp-attrib $-1 -1 $138 $-1 $61 1 #
vertex $-1 -1 $-1 $86 $139 #
vertex $-1 -1 $-1 $86 $140 #
ellipse-curve $-1 -1 $-1 -1.7624790515924359e-016 -25.399999999999999 0 -1.7763568394002505e-015 1 0 3.1749999999999998 5.6399329650957949e-015 0 1 I I #
face $-1 -1 $-1 $141 $142 $24 $-1 $45 reversed single #
loop $-1 -1 $-1 $-1 $143 $62 #
coedge $-1 -1 $-1 $144 $145 $146 $147 reversed $63 $-1 #
coedge $-1 -1 $-1 $148 $64 $149 $150 forward $44 $-1 #
coedge $-1 -1 $-1 $64 $148 $151 $152 reversed $44 $-1 #
coedge $-1 -1 $-1 $153 $154 $64 $97 forward $155 $-1 #
edge $-1 -1 $-1 $156 0 $157 1.5707963267948966 $96 $158 forward @7 unknown #
face $-1 -1 $-1 $-1 $159 $26 $-1 $160 forward single #
loop $-1 -1 $-1 $161 $162 $65 #
plane-surface $-1 -1 $-1 -0.51012330198537059 -12.699999999999989 5.5511151231257827e-017 4.6086665670342156e-032 1 -3.8405554725285128e-033 0 3.8405554725285128e-033 1 forward_v I I I I #
loop $-1 -1 $-1 $-1 $163 $46 #
coedge $-1 -1 $-1 $102 $102 $162 $164 forward $66 $-1 #
coedge $-1 -1 $-1 $103 $103 $165 $166 reversed $68 $-1 #
coedge $-1 -1 $-1 $104 $104 $69 $105 reversed $161 $-1 #
edge $-1 -1 $-1 $167 -3.1415926535897931 $167 3.1415926535897931 $69 $168 forward @7 unknown #
model_id-kcp-attrib $-1 -1 $-1 $-1 $70 1 1021487519 1021487519 830537730 2 #
face $-1 -1 $-1 $169 $170 $27 $-1 $171 reversed single #
loop $-1 -1 $-1 $-1 $172 $70 #
plane-surface $-1 -1 $-1 0 -12.700000000000003 0 0 1 0 0 0 1 forward_v I I I I #
coedge $-1 -1 $-1 $173 $174 $175 $176 forward $71 $-1 #
coedge $-1 -1 $-1 $177 $73 $178 $179 forward $50 $-1 #
coedge $-1 -1 $-1 $73 $177 $180 $181 forward $50 $-1 #
coedge $-1 -1 $-1 $182 $183 $73 $114 reversed $184 $-1 #
edge $-1 -1 $-1 $185 -12.700000000000003 $186 12.700000000000003 $113 $187 forward @7 unknown #
face $-1 -1 $-1 $188 $189 $29 $-1 $190 forward single #
loop $-1 -1 $-1 $-1 $191 $74 #
plane-surface $-1 -1 $-1 4.8259999999999659 8.1280000000000037 -2.7862923991091129 1 0 0 0 0 -1 forward_v I I I I #
coedge $-1 -1 $-1 $192 $193 $194 $195 forward $75 $-1 #
coedge $-1 -1 $-1 $196 $77 $193 $197 reversed $53 $-1 #
coedge $-1 -1 $-1 $77 $196 $198 $199 forward $53 $-1 #
coedge $-1 -1 $-1 $200 $194 $77 $122 reversed $201 $-1 #
edge $-1 -1 $-1 $202 -4.1794385986636886 $203 1.3931461995545791 $77 $204 forward @7 unknown #
model_id-kcp-attrib $-1 -1 $-1 $-1 $79 1 1021487519 1021487519 830537729 6 #
face $205 -1 $-1 $206 $207 $9 $-1 $208 forward single #
loop $-1 -1 $-1 $-1 $209 $79 #
cone-surface $-1 -1 $-1 0 -26.669999999999995 0 0 1 0 7.8739999999999997 0 0 1 I I 0 1 7.8739999999999997 forward I I I I #
loop $-1 -1 $-1 $-1 $210 $56 #
coedge $-1 -1 $-1 $211 $211 $212 $213 forward $80 $-1 #
coedge $-1 -1 $-1 $85 $82 $83 $134 reversed $57 $-1 #
coedge $-1 -1 $-1 $82 $85 $84 $135 forward $57 $-1 #
coedge $-1 -1 $-1 $210 $210 $82 $132 reversed $127 $-1 #
edge $214 -1 $-1 $215 0 $216 3.1415926535897931 $131 $217 forward @7 unknown #
coedge $-1 -1 $-1 $84 $83 $210 $218 reversed $40 $-1 #
edge $-1 -1 $-1 $89 0 $216 0.74999999999999967 $83 $219 forward @7 unknown #
edge $-1 -1 $-1 $88 0 $215 0.74999999999999978 $84 $220 forward @7 unknown #
attrib_edge_convexity-kcp-attrib $-1 -1 $221 $-1 $86 1 #
ellipse-curve $-1 -1 $-1 -1.7624790515924359e-016 -25.399999999999999 0 1.7763568394002505e-015 -1 0 3.1749999999999998 5.6399329650957949e-015 0 1 I I #
convexity-sys-attrib $-1 -1 $-1 $87 $61 #
point $-1 -1 $-1 3.1749999999999998 -25.399999999999991 0 #
point $-1 -1 $-1 -3.1749999999999998 -25.399999999999991 3.8881251733860477e-016 #
face $-1 -1 $-1 $222 $223 $24 $-1 $224 forward single #
loop $-1 -1 $-1 $-1 $225 $91 #
coedge $-1 -1 $-1 $226 $227 $225 $228 forward $92 $-1 #
coedge $-1 -1 $-1 $229 $93 $230 $231 reversed $63 $-1 #
coedge $-1 -1 $-1 $93 $229 $95 $152 forward $63 $-1 #
coedge $-1 -1 $-1 $232 $233 $93 $147 forward $234 $-1 #
edge $-1 -1 $-1 $235 -3.1415926535897931 $236 -1.5707963267948966 $146 $237 forward @7 unknown #
coedge $-1 -1 $-1 $95 $94 $238 $239 reversed $44 $-1 #
coedge $-1 -1 $-1 $227 $226 $240 $150 reversed $92 $-1 #
edge $-1 -1 $-1 $156 -25.399999999999999 $241 7.1054273576010019e-015 $240 $242 forward @7 unknown #
coedge $-1 -1 $-1 $243 $244 $245 $152 forward $246 $-1 #
edge $-1 -1 $-1 $157 -25.399999999999999 $236 7.1054273576010019e-015 $151 $247 forward @7 unknown #
coedge $-1 -1 $-1 $154 $96 $244 $248 reversed $155 $-1 #
coedge $-1 -1 $-1 $96 $153 $249 $250 forward $155 $-1 #
loop $-1 -1 $-1 $-1 $96 $251 #
vertex $-1 -1 $-1 $252 $253 #
vertex $-1 -1 $-1 $254 $255 #
ellipse-curve $-1 -1 $-1 -2.952082130906877e-032 12.700000000000003 0 0 -1 0 7.8739999999999997 0 0 1 I I #
loop $-1 -1 $-1 $256 $257 $98 #
plane-surface $-1 -1 $-1 -0.51012330198537059 6.3500000000000014 5.5511151231257827e-017 4.6086665670342156e-032 1 -3.8405554725285128e-033 0 3.8405554725285128e-033 1 forward_v I I I I #
loop $-1 -1 $-1 $-1 $104 $65 #
coedge $-1 -1 $-1 $162 $162 $102 $164 reversed $99 $-1 #
coedge $-1 -1 $-1 $163 $163 $257 $258 reversed $101 $-1 #
edge $-1 -1 $-1 $259 -3.1415926535897931 $259 3.1415926535897931 $102 $260 forward @7 unknown #
coedge $-1 -1 $-1 $165 $165 $103 $166 forward $256 $-1 #
edge $261 -1 $-1 $262 0 $262 6.2831853071795862 $103 $263 forward @7 unknown #
vertex $-1 -1 $-1 $105 $264 #
ellipse-curve $-1 -1 $-1 0 -12.699999999999989 0 0 -1 0 3.1749999999999998 0 0 1 I I #
face $265 -1 $-1 $266 $267 $27 $-1 $268 reversed single #
loop $-1 -1 $-1 $-1 $269 $107 #
plane-surface $-1 -1 $-1 -7.8739999999999997 0 0 1 0 0 0 0 -1 forward_v I I I I #
coedge $-1 -1 $-1 $270 $180 $271 $272 forward $108 $-1 #
coedge $-1 -1 $-1 $273 $110 $270 $274 forward $71 $-1 #
coedge $-1 -1 $-1 $110 $273 $275 $276 forward $71 $-1 #
coedge $-1 -1 $-1 $183 $182 $110 $176 reversed $184 $-1 #
edge $-1 -1 $-1 $277 -12.700000000000003 $278 12.700000000000003 $175 $279 forward @7 unknown #
coedge $-1 -1 $-1 $112 $111 $280 $281 forward $50 $-1 #
coedge $-1 -1 $-1 $282 $283 $111 $179 reversed $267 $-1 #
edge $-1 -1 $-1 $186 -7.8739999999999997 $284 7.8739999999999997 $178 $285 forward @7 unknown #
coedge $-1 -1 $-1 $172 $286 $112 $181 reversed $108 $-1 #
edge $-1 -1 $-1 $287 -7.8739999999999997 $185 7.8739999999999997 $180 $288 forward @7 unknown #
coedge $-1 -1 $-1 $175 $113 $286 $289 forward $184 $-1 #
coedge $-1 -1 $-1 $113 $175 $282 $290 reversed $184 $-1 #
loop $-1 -1 $-1 $-1 $182 $266 #
vertex $-1 -1 $-1 $114 $291 #
vertex $-1 -1 $-1 $114 $292 #
straight-curve $-1 -1 $-1 7.8739999999999997 0 7.8739999999999997 0 1 0 I I #
face $-1 -1 $-1 $293 $294 $29 $-1 $295 forward single #
loop $-1 -1 $-1 $-1 $296 $115 #
plane-surface $-1 -1 $-1 4.8259999999999659 8.1280000000000037 2.7862923991091333 0.50000000000000533 0 0.86602540378443571 0.86602540378443571 0 -0.50000000000000533 forward_v I I I I #
coedge $-1 -1 $-1 $297 $298 $299 $300 forward $116 $-1 #
coedge $-1 -1 $-1 $301 $118 $298 $302 reversed $75 $-1 #
coedge $-1 -1 $-1 $118 $301 $119 $197 forward $75 $-1 #
coedge $-1 -1 $-1 $121 $299 $118 $195 reversed $201 $-1 #
edge $-1 -1 $-1 $203 -4.1794385986637161 $303 1.3931461995545429 $118 $304 forward @7 unknown #
coedge $-1 -1 $-1 $120 $119 $305 $306 reversed $53 $-1 #
edge $307 -1 $-1 $308 0 $203 4.5719999999999992 $193 $309 forward @7 unknown #
coedge $-1 -1 $-1 $310 $311 $120 $199 reversed $312 $-1 #
edge $-1 -1 $-1 $313 0 $202 4.5719999999999992 $120 $314 forward @7 unknown #
coedge $-1 -1 $-1 $315 $121 $311 $316 reversed $201 $-1 #
loop $-1 -1 $-1 $-1 $121 $317 #
vertex $-1 -1 $-1 $199 $318 #
vertex $-1 -1 $-1 $197 $319 #
straight-curve $-1 -1 $-1 -1.2065000000000103 12.700000000000006 -4.8760116984409976 0.86602540378443871 0 -0.5 I I #
model_id-kcp-attrib $-1 -1 $-1 $-1 $124 1 1021487519 1021487519 830537729 7 #
face $320 -1 $-1 $321 $322 $9 $-1 $323 forward single #
loop $-1 -1 $-1 $324 $325 $124 #
plane-surface $-1 -1 $-1 0 0 0 0 1 0 25.399999999999999 0 0 forward_v I I I I #
coedge $-1 -1 $-1 $326 $327 $328 $329 forward $125 $-1 #
coedge $-1 -1 $-1 $131 $131 $133 $218 forward $127 $-1 #
coedge $-1 -1 $-1 $128 $128 $330 $331 reversed $80 $-1 #
coedge $-1 -1 $-1 $327 $326 $128 $213 reversed $125 $-1 #
edge $332 -1 $-1 $333 0 $334 3.1415926535897931 $128 $335 forward @7 unknown #
attrib_edge_convexity-kcp-attrib $-1 -1 $336 $-1 $132 2 #
vertex $-1 -1 $-1 $135 $337 #
vertex $-1 -1 $-1 $218 $338 #
ellipse-curve $-1 -1 $-1 0 -6.3499999999999996 0 0 -1 0 3.1749999999999998 0 0 1 I I #
edge $339 -1 $-1 $215 0 $216 3.1415926535897931 $133 $340 forward @7 unknown #
straight-curve $-1 -1 $-1 -3.1749999999999998 -25.399999999999991 3.8881251733860477e-016 0 25.399999999999999 0 I I #
straight-curve $-1 -1 $-1 3.1749999999999998 -25.399999999999991 0 0 25.399999999999999 0 I I #
convexity-sys-attrib $-1 -1 $-1 $136 $86 #
face $-1 -1 $-1 $341 $342 $24 $-1 $343 reversed single #
loop $-1 -1 $-1 $-1 $245 $141 #
plane-surface $-1 -1 $-1 0 0 7.8739999999999997 0 0 1 1 0 0 forward_v I I I I #
coedge $-1 -1 $-1 $344 $345 $346 $228 reversed $142 $-1 #
coedge $-1 -1 $-1 $149 $143 $347 $348 reversed $92 $-1 #
coedge $-1 -1 $-1 $143 $149 $349 $350 reversed $92 $-1 #
edge $-1 -1 $-1 $351 -25.399999999999999 $352 7.1054273576010019e-015 $346 $353 forward @7 unknown #
coedge $-1 -1 $-1 $145 $144 $354 $355 reversed $63 $-1 #
coedge $-1 -1 $-1 $356 $357 $358 $231 forward $359 $-1 #
edge $-1 -1 $-1 $360 -25.399999999999999 $235 7.1054273576010019e-015 $230 $361 forward @7 unknown #
coedge $-1 -1 $-1 $233 $146 $362 $363 reversed $234 $-1 #
coedge $-1 -1 $-1 $146 $232 $356 $364 forward $234 $-1 #
loop $-1 -1 $-1 $-1 $146 $365 #
vertex $-1 -1 $-1 $366 $367 #
vertex $-1 -1 $-1 $368 $369 #
ellipse-curve $-1 -1 $-1 -2.952082130906877e-032 -12.700000000000003 0 0 1 0 7.8739999999999997 0 0 1 I I #
coedge $-1 -1 $-1 $370 $371 $148 $239 forward $372 $-1 #
edge $-1 -1 $-1 $236 -1.5707963267948966 $241 0 $238 $237 forward @7 unknown #
coedge $-1 -1 $-1 $373 $374 $375 $150 forward $342 $-1 #
vertex $-1 -1 $-1 $376 $377 #
straight-curve $-1 -1 $-1 7.8739999999999997 -12.699999999999996 0 0 -1 0 I I #
coedge $-1 -1 $-1 $378 $151 $371 $368 forward $246 $-1 #
coedge $-1 -1 $-1 $151 $378 $153 $248 forward $246 $-1 #
coedge $-1 -1 $-1 $379 $362 $145 $152 reversed $223 $-1 #
loop $-1 -1 $-1 $-1 $151 $380 #
straight-curve $-1 -1 $-1 -2.952082130906877e-032 -12.699999999999996 7.8739999999999997 0 -1 0 I I #
edge $-1 -1 $-1 $381 -7.8739999999999997 $157 2.952082130906877e-032 $153 $382 forward @7 unknown #
coedge $-1 -1 $-1 $383 $375 $154 $250 reversed $384 $-1 #
edge $-1 -1 $-1 $381 -7.8739999999999997 $156 0 $249 $385 forward @7 unknown #
face $-1 -1 $-1 $386 $155 $24 $-1 $387 reversed single #
edge $-1 -1 $-1 $156 0 $388 7.8739999999999997 $374 $385 forward @7 unknown #
point $-1 -1 $-1 7.8739999999999997 12.700000000000003 0 #
edge $-1 -1 $-1 $157 2.952082130906877e-032 $389 7.8739999999999997 $390 $382 forward @7 unknown #
point $-1 -1 $-1 -2.952082130906877e-032 12.700000000000003 7.8739999999999997 #
loop $-1 -1 $-1 $-1 $165 $98 #
coedge $-1 -1 $-1 $257 $257 $163 $258 forward $159 $-1 #
edge $391 -1 $-1 $392 -3.1415926535897931 $392 3.1415926535897931 $163 $393 forward @7 unknown #
vertex $-1 -1 $-1 $164 $394 #
ellipse-curve $-1 -1 $-1 -2.952082130906877e-032 -12.699999999999989 0 0 1 0 7.8739999999999997 0 0 1 I I #
convexity-sys-attrib $-1 -1 $-1 $-1 $166 #
vertex $-1 -1 $-1 $166 $395 #
ellipse-curve $-1 -1 $-1 0 6.3500000000000014 0 0 -1 0 3.1749999999999998 0 0 1 I I #
point $-1 -1 $-1 -3.1749999999999998 -12.699999999999987 0 #
model_id-kcp-attrib $-1 -1 $-1 $-1 $169 1 1021487519 1021487519 830537730 3 #
face $-1 -1 $-1 $-1 $184 $27 $-1 $396 reversed single #
loop $-1 -1 $-1 $-1 $282 $169 #
plane-surface $-1 -1 $-1 0 12.700000000000003 0 0 -1 0 0 0 -1 forward_v I I I I #
coedge $-1 -1 $-1 $397 $280 $283 $398 forward $170 $-1 #
coedge $-1 -1 $-1 $286 $172 $173 $274 reversed $108 $-1 #
coedge $-1 -1 $-1 $280 $397 $172 $272 reversed $170 $-1 #
edge $-1 -1 $-1 $287 -7.8739999999999997 $399 7.8739999999999997 $271 $400 forward @7 unknown #
coedge $-1 -1 $-1 $174 $173 $397 $401 forward $71 $-1 #
edge $-1 -1 $-1 $278 -7.8739999999999997 $399 7.8739999999999997 $270 $402 forward @7 unknown #
coedge $-1 -1 $-1 $283 $282 $174 $276 reversed $267 $-1 #
edge $-1 -1 $-1 $403 -7.8739999999999997 $277 7.8739999999999997 $275 $404 forward @7 unknown #
vertex $-1 -1 $-1 $176 $405 #
vertex $-1 -1 $-1 $289 $406 #
straight-curve $-1 -1 $-1 7.8739999999999997 0 -7.8739999999999997 0 -1 0 I I #
coedge $-1 -1 $-1 $269 $271 $177 $281 reversed $170 $-1 #
edge $-1 -1 $-1 $284 -12.700000000000003 $287 12.700000000000003 $280 $407 forward @7 unknown #
coedge $-1 -1 $-1 $275 $178 $183 $290 forward $267 $-1 #
coedge $-1 -1 $-1 $178 $275 $269 $398 reversed $267 $-1 #
vertex $-1 -1 $-1 $179 $408 #
straight-curve $-1 -1 $-1 0 12.700000000000003 7.8739999999999997 -1 0 0 I I #
coedge $-1 -1 $-1 $180 $270 $182 $289 reversed $108 $-1 #
vertex $-1 -1 $-1 $281 $409 #
straight-curve $-1 -1 $-1 0 -12.700000000000003 7.8739999999999997 1 0 0 I I #
edge $-1 -1 $-1 $185 -7.8739999999999997 $278 7.8739999999999997 $182 $410 forward @7 unknown #
edge $-1 -1 $-1 $186 -7.8739999999999997 $277 7.8739999999999997 $183 $411 forward @7 unknown #
point $-1 -1 $-1 7.8739999999999997 -12.700000000000003 7.8739999999999997 #
point $-1 -1 $-1 7.8739999999999997 12.700000000000003 7.8739999999999997 #
face $-1 -1 $-1 $317 $312 $29 $-1 $412 forward single #
loop $-1 -1 $-1 $-1 $413 $188 #
plane-surface $-1 -1 $-1 0 8.1280000000000037 5.5725847982182861 -0.50000000000000255 0 0.86602540378443715 0.86602540378443715 0 0.50000000000000255 forward_v I I I I #
coedge $-1 -1 $-1 $414 $415 $416 $417 forward $189 $-1 #
coedge $-1 -1 $-1 $418 $191 $415 $419 reversed $116 $-1 #
coedge $-1 -1 $-1 $191 $418 $192 $302 forward $116 $-1 #
coedge $-1 -1 $-1 $194 $416 $191 $300 reversed $201 $-1 #
edge $-1 -1 $-1 $303 -4.1794385986636797 $420 1.3931461995545666 $191 $421 forward @7 unknown #
coedge $-1 -1 $-1 $193 $192 $422 $423 reversed $75 $-1 #
edge $-1 -1 $-1 $424 0 $303 4.5719999999999992 $298 $425 forward @7 unknown #
vertex $-1 -1 $-1 $302 $426 #
straight-curve $-1 -1 $-1 3.6194999999999937 12.700000000000006 -3.4828654988863961 0.86602540378443416 0 0.50000000000000799 I I #
coedge $-1 -1 $-1 $422 $427 $196 $306 forward $428 $-1 #
edge $429 -1 $-1 $313 -4.1794385986636886 $308 1.3931461995545786 $196 $430 forward @7 unknown #
convexity-sys-attrib $-1 -1 $-1 $-1 $197 #
vertex $-1 -1 $-1 $306 $431 #
straight-curve $-1 -1 $-1 0 8.1280000000000037 -5.572584798218287 0 1 0 I I #
coedge $-1 -1 $-1 $432 $198 $427 $433 reversed $312 $-1 #
coedge $-1 -1 $-1 $198 $432 $200 $316 forward $312 $-1 #
loop $-1 -1 $-1 $-1 $311 $293 #
vertex $-1 -1 $-1 $433 $434 #
straight-curve $-1 -1 $-1 -4.8259999999999996 8.1280000000000037 -2.7862923991091528 0 1 0 I I #
coedge $-1 -1 $-1 $416 $200 $413 $435 reversed $201 $-1 #
edge $-1 -1 $-1 $436 -4.1794385986637099 $202 1.3931461995545764 $311 $437 forward @7 unknown #
face $-1 -1 $-1 $438 $201 $29 $-1 $439 forward single #
point $-1 -1 $-1 -4.8259999999999996 12.700000000000003 -2.7862923991091528 #
point $-1 -1 $-1 0 12.700000000000003 -5.572584798218287 #
model_id-kcp-attrib $-1 -1 $-1 $-1 $206 1 1021487519 1021487519 830537729 8 #
face $440 -1 $-1 $441 $442 $9 $-1 $443 reversed single #
loop $-1 -1 $-1 $-1 $330 $206 #
cone-surface $-1 -1 $-1 0 -26.669999999999995 0 0 1 0 7.8739999999999997 0 0 1 I I 0 1 7.8739999999999997 forward I I I I #
loop $-1 -1 $-1 $-1 $444 $124 #
coedge $-1 -1 $-1 $328 $328 $445 $446 forward $207 $-1 #
coedge $-1 -1 $-1 $212 $209 $447 $448 reversed $125 $-1 #
coedge $-1 -1 $-1 $209 $212 $449 $450 forward $125 $-1 #
coedge $-1 -1 $-1 $325 $325 $209 $329 reversed $207 $-1 #
edge $-1 -1 $-1 $451 0 $452 3.1415926535897931 $328 $453 forward @7 unknown #
coedge $-1 -1 $-1 $447 $449 $211 $331 forward $322 $-1 #
edge $454 -1 $-1 $333 0 $334 3.1415926535897927 $211 $455 forward @7 unknown #
attrib_edge_convexity-kcp-attrib $-1 -1 $456 $-1 $213 1 #
vertex $-1 -1 $-1 $331 $457 #
vertex $-1 -1 $-1 $331 $458 #
ellipse-curve $-1 -1 $-1 3.5249581031848718e-016 -6.3499999999999996 -1.0574874309554614e-015 3.5813645955650209e-016 -1 4.8098146373874776e-032 7.8739999999999997 2.8199664825478975e-015 1.0574874309554614e-015 1 I I #
convexity-sys-attrib $-1 -1 $-1 $214 $132 #
point $-1 -1 $-1 3.1749999999999998 -6.349999999999997 0 #
point $-1 -1 $-1 -3.1749999999999998 -6.3499999999999996 0 #
attrib_edge_convexity-kcp-attrib $-1 -1 $459 $-1 $218 2 #
ellipse-curve $-1 -1 $-1 0 -6.3499999999999996 0 0 1 0 3.1749999999999998 0 0 1 I I #
face $-1 -1 $-1 $460 $461 $24 $-1 $462 reversed single #
loop $-1 -1 $-1 $-1 $240 $222 #
plane-surface $-1 -1 $-1 7.8739999999999997 0 0 -1 0 0 0 0 1 forward_v I I I I #
coedge $-1 -1 $-1 $463 $225 $464 $465 reversed $142 $-1 #
coedge $-1 -1 $-1 $225 $463 $466 $467 reversed $142 $-1 #
coedge $-1 -1 $-1 $468 $469 $470 $228 forward $471 $-1 #
coedge $-1 -1 $-1 $472 $473 $226 $348 forward $474 $-1 #
edge $-1 -1 $-1 $241 0 $352 1.5707963267948966 $347 $237 forward @7 unknown #
coedge $-1 -1 $-1 $475 $476 $227 $350 forward $477 $-1 #
edge $-1 -1 $-1 $351 -1.5707963267948966 $156 0 $349 $158 forward @7 unknown #
vertex $-1 -1 $-1 $478 $479 #
vertex $-1 -1 $-1 $480 $481 #
straight-curve $-1 -1 $-1 -2.952082130906877e-032 -12.699999999999996 -7.8739999999999997 0 -1 0 I I #
coedge $-1 -1 $-1 $482 $390 $229 $355 forward $483 $-1 #
edge $-1 -1 $-1 $157 1.5707963267948966 $360 3.1415926535897931 $354 $158 forward @7 unknown #
coedge $-1 -1 $-1 $484 $230 $233 $364 reversed $359 $-1 #
coedge $-1 -1 $-1 $230 $484 $482 $485 forward $359 $-1 #
coedge $-1 -1 $-1 $486 $487 $463 $231 reversed $461 $-1 #
loop $-1 -1 $-1 $-1 $230 $488 #
vertex $-1 -1 $-1 $489 $490 #
straight-curve $-1 -1 $-1 -7.8739999999999997 -12.699999999999996 0 0 -1 0 I I #
coedge $-1 -1 $-1 $245 $491 $232 $363 forward $223 $-1 #
edge $-1 -1 $-1 $492 -7.8739999999999997 $236 -2.952082130906877e-032 $232 $493 forward @7 unknown #
edge $-1 -1 $-1 $492 -7.8739999999999997 $235 0 $356 $494 forward @7 unknown #
face $-1 -1 $-1 $495 $234 $24 $-1 $496 reversed single #
edge $-1 -1 $-1 $235 0 $497 7.8739999999999997 $487 $494 forward @7 unknown #
point $-1 -1 $-1 -7.8739999999999997 -12.700000000000003 0 #
edge $-1 -1 $-1 $236 -2.952082130906877e-032 $498 7.8739999999999997 $371 $493 forward @7 unknown #
point $-1 -1 $-1 -2.952082130906877e-032 -12.700000000000003 7.8739999999999997 #
coedge $-1 -1 $-1 $371 $238 $499 $500 reversed $372 $-1 #
coedge $-1 -1 $-1 $238 $370 $243 $368 reversed $372 $-1 #
loop $-1 -1 $-1 $-1 $238 $495 #
coedge $-1 -1 $-1 $501 $240 $473 $376 forward $342 $-1 #
coedge $-1 -1 $-1 $240 $501 $475 $252 reversed $342 $-1 #
coedge $-1 -1 $-1 $249 $499 $94 $150 reversed $384 $-1 #
edge $-1 -1 $-1 $241 0 $502 7.8739999999999997 $373 $503 forward @7 unknown #
point $-1 -1 $-1 7.8739999999999997 -12.700000000000003 0 #
coedge $-1 -1 $-1 $244 $243 $383 $504 forward $246 $-1 #
coedge $-1 -1 $-1 $491 $245 $390 $254 forward $223 $-1 #
face $-1 -1 $-1 $505 $246 $24 $-1 $224 forward single #
vertex $-1 -1 $-1 $504 $506 #
straight-curve $-1 -1 $-1 0 12.700000000000003 7.8739999999999997 -1 0 0 I I #
coedge $-1 -1 $-1 $499 $249 $378 $504 reversed $384 $-1 #
loop $-1 -1 $-1 $-1 $375 $507 #
straight-curve $-1 -1 $-1 7.8739999999999997 12.700000000000003 0 0 0 -1 I I #
face $-1 -1 $-1 $508 $483 $24 $-1 $387 reversed single #
plane-surface $-1 -1 $-1 0 12.700000000000003 0 0 -1 0 0 0 -1 forward_v I I I I #
vertex $-1 -1 $-1 $509 $510 #
vertex $-1 -1 $-1 $254 $511 #
coedge $-1 -1 $-1 $354 $482 $379 $254 reversed $483 $-1 #
convexity-sys-attrib $-1 -1 $-1 $-1 $258 #
vertex $-1 -1 $-1 $258 $512 #
ellipse-curve $-1 -1 $-1 -2.952082130906877e-032 6.3500000000000014 0 0 1 0 7.8739999999999997 0 0 1 I I #
point $-1 -1 $-1 -7.8739999999999997 -12.699999999999989 9.6425504299973975e-016 #
point $-1 -1 $-1 3.1749999999999998 6.3500000000000059 0 #
plane-surface $-1 -1 $-1 7.8739999999999997 0 0 -1 0 0 0 0 1 forward_v I I I I #
coedge $-1 -1 $-1 $271 $269 $273 $401 reversed $170 $-1 #
edge $-1 -1 $-1 $284 -7.8739999999999997 $403 7.8739999999999997 $283 $513 forward @7 unknown #
vertex $-1 -1 $-1 $401 $514 #
straight-curve $-1 -1 $-1 -7.8739999999999997 -12.700000000000003 0 0 0 -1 I I #
edge $-1 -1 $-1 $399 -12.700000000000003 $403 12.700000000000003 $397 $515 forward @7 unknown #
straight-curve $-1 -1 $-1 0 -12.700000000000003 -7.8739999999999997 -1 0 0 I I #
vertex $-1 -1 $-1 $276 $516 #
straight-curve $-1 -1 $-1 0 12.700000000000003 -7.8739999999999997 1 0 0 I I #
point $-1 -1 $-1 7.8739999999999997 12.700000000000003 -7.8739999999999997 #
point $-1 -1 $-1 7.8739999999999997 -12.700000000000003 -7.8739999999999997 #
straight-curve $-1 -1 $-1 -7.8739999999999997 0 7.8739999999999997 0 -1 0 I I #
point $-1 -1 $-1 -7.8739999999999997 12.700000000000003 7.8739999999999997 #
point $-1 -1 $-1 -7.8739999999999997 -12.700000000000003 7.8739999999999997 #
straight-curve $-1 -1 $-1 7.8739999999999997 -12.700000000000003 0 0 0 -1 I I #
straight-curve $-1 -1 $-1 7.8739999999999997 12.700000000000003 0 0 0 -1 I I #
plane-surface $-1 -1 $-1 -4.8259999999999996 8.1280000000000037 2.7862923991091333 -1 0 0 0 0 1 forward_v I I I I #
coedge $-1 -1 $-1 $517 $518 $315 $435 forward $294 $-1 #
coedge $-1 -1 $-1 $519 $296 $518 $520 reversed $189 $-1 #
coedge $-1 -1 $-1 $296 $519 $297 $419 forward $189 $-1 #
coedge $-1 -1 $-1 $299 $315 $296 $417 reversed $201 $-1 #
edge $-1 -1 $-1 $420 -4.1794385986636691 $521 1.3931461995545795 $296 $522 forward @7 unknown #
coedge $-1 -1 $-1 $298 $297 $523 $524 reversed $116 $-1 #
edge $-1 -1 $-1 $525 0 $420 4.5719999999999992 $415 $526 forward @7 unknown #
vertex $-1 -1 $-1 $419 $527 #
straight-curve $-1 -1 $-1 4.8259999999999659 12.700000000000006 1.3931461995545666 0 0 1 I I #
coedge $-1 -1 $-1 $523 $305 $301 $423 forward $428 $-1 #
edge $528 -1 $-1 $308 -4.1794385986637153 $424 1.3931461995545427 $301 $529 forward @7 unknown #
vertex $-1 -1 $-1 $423 $530 #
straight-curve $-1 -1 $-1 4.8259999999999659 8.1280000000000037 -2.7862923991091129 0 1 0 I I #
point $-1 -1 $-1 4.8259999999999659 12.700000000000003 -2.7862923991091129 #
coedge $-1 -1 $-1 $305 $531 $310 $433 forward $428 $-1 #
loop $-1 -1 $-1 $-1 $427 $438 #
convexity-sys-attrib $-1 -1 $-1 $-1 $306 #
straight-curve $-1 -1 $-1 -1.2065000000000103 8.1280000000000072 -4.8760116984409976 0.86602540378443871 0 -0.5 I I #
point $-1 -1 $-1 0 8.1280000000000037 -5.5725847982182861 #
coedge $-1 -1 $-1 $311 $310 $517 $532 forward $312 $-1 #
edge $533 -1 $-1 $534 -4.1794385986637099 $313 1.3931461995545764 $310 $535 forward @7 unknown #
point $-1 -1 $-1 -4.8259999999999996 8.1280000000000037 -2.7862923991091528 #
edge $-1 -1 $-1 $521 -4.1794385986637241 $436 1.3931461995545527 $413 $536 forward @7 unknown #
vertex $-1 -1 $-1 $532 $537 #
straight-curve $-1 -1 $-1 -4.8259999999999996 12.700000000000006 -1.3931461995545764 0 0 -1 I I #
face $-1 -1 $-1 $-1 $428 $29 $-1 $538 reversed single #
plane-surface $-1 -1 $-1 -1.9595436384634013e-014 12.700000000000008 0 -3.518915242527383e-031 1 -1.0546604761465176e-031 0 1.0546604761465176e-031 1 forward_v I I I I #
model_id-kcp-attrib $-1 -1 $-1 $-1 $321 1 1021487519 1021487519 830537729 9 #
face $539 -1 $-1 $540 $541 $9 $-1 $542 reversed single #
loop $-1 -1 $-1 $-1 $543 $321 #
plane-surface $-1 -1 $-1 -4.8259999999999996 0 -2.7862923991091528 -1 0 0 0 0 25.399999999999999 forward_v I I I I #
coedge $-1 -1 $-1 $544 $545 $546 $547 reversed $324 $-1 #
coedge $-1 -1 $-1 $449 $447 $325 $446 reversed $322 $-1 #
edge $-1 -1 $-1 $451 0 $452 3.1415926535897931 $445 $548 forward @7 unknown #
coedge $-1 -1 $-1 $445 $330 $326 $448 forward $322 $-1 #
edge $-1 -1 $-1 $334 0 $452 0.24999999999999989 $447 $549 forward @7 unknown #
coedge $-1 -1 $-1 $330 $445 $327 $450 reversed $322 $-1 #
edge $-1 -1 $-1 $333 0 $451 0.24999999999999989 $449 $550 forward @7 unknown #
vertex $-1 -1 $-1 $450 $551 #
vertex $-1 -1 $-1 $446 $552 #
ellipse-curve $-1 -1 $-1 0 0 0 0 -1 0 7.8739999999999997 0 0 1 I I #
attrib_edge_convexity-kcp-attrib $-1 -1 $553 $-1 $331 1 #
ellipse-curve $-1 -1 $-1 3.5249581031848718e-016 -6.3499999999999996 1.0574874309554614e-015 -3.5813645955650209e-016 1 4.8098146373874776e-032 7.8739999999999997 2.8199664825478975e-015 -1.0574874309554614e-015 1 I I #
convexity-sys-attrib $-1 -1 $-1 $332 $213 #
point $-1 -1 $-1 7.8739999999999997 -6.349999999999997 0 #
point $-1 -1 $-1 -7.8739999999999997 -6.349999999999997 -9.6425504299973975e-016 #
convexity-sys-attrib $-1 -1 $-1 $339 $218 #
face $-1 -1 $-1 $365 $554 $24 $-1 $496 reversed single #
loop $-1 -1 $-1 $-1 $358 $341 #
plane-surface $-1 -1 $-1 -7.8739999999999997 0 0 1 0 0 0 0 -1 forward_v I I I I #
coedge $-1 -1 $-1 $345 $344 $144 $231 forward $142 $-1 #
coedge $-1 -1 $-1 $555 $556 $344 $465 forward $557 $-1 #
edge $-1 -1 $-1 $360 -3.1415926535897931 $351 -1.5707963267948966 $464 $158 forward @7 unknown #
coedge $-1 -1 $-1 $558 $559 $345 $467 forward $554 $-1 #
edge $-1 -1 $-1 $352 1.5707963267948966 $235 3.1415926535897931 $466 $237 forward @7 unknown #
coedge $-1 -1 $-1 $560 $346 $559 $480 forward $471 $-1 #
coedge $-1 -1 $-1 $346 $560 $555 $561 forward $471 $-1 #
coedge $-1 -1 $-1 $562 $563 $143 $228 reversed $564 $-1 #
loop $-1 -1 $-1 $-1 $346 $505 #
coedge $-1 -1 $-1 $473 $347 $563 $565 reversed $474 $-1 #
coedge $-1 -1 $-1 $347 $472 $373 $376 reversed $474 $-1 #
loop $-1 -1 $-1 $-1 $347 $566 #
coedge $-1 -1 $-1 $476 $349 $374 $252 forward $477 $-1 #
coedge $-1 -1 $-1 $349 $475 $562 $478 reversed $477 $-1 #
loop $-1 -1 $-1 $-1 $349 $567 #
edge $-1 -1 $-1 $351 -2.952082130906877e-032 $388 7.8739999999999997 $476 $568 forward @7 unknown #
point $-1 -1 $-1 -2.952082130906877e-032 12.700000000000003 -7.8739999999999997 #
edge $-1 -1 $-1 $352 2.952082130906877e-032 $497 7.8739999999999997 $559 $569 forward @7 unknown #
point $-1 -1 $-1 -2.952082130906877e-032 -12.700000000000003 -7.8739999999999997 #
coedge $-1 -1 $-1 $390 $354 $357 $485 reversed $483 $-1 #
loop $-1 -1 $-1 $-1 $354 $386 #
coedge $-1 -1 $-1 $357 $356 $491 $570 reversed $359 $-1 #
edge $-1 -1 $-1 $389 -7.8739999999999997 $360 0 $482 $571 forward @7 unknown #
coedge $-1 -1 $-1 $572 $358 $556 $489 forward $461 $-1 #
coedge $-1 -1 $-1 $358 $572 $558 $366 reversed $461 $-1 #
face $-1 -1 $-1 $507 $359 $24 $-1 $462 reversed single #
edge $-1 -1 $-1 $360 0 $573 7.8739999999999997 $556 $571 forward @7 unknown #
point $-1 -1 $-1 -7.8739999999999997 12.700000000000003 0 #
coedge $-1 -1 $-1 $362 $379 $484 $570 forward $223 $-1 #
vertex $-1 -1 $-1 $570 $574 #
straight-curve $-1 -1 $-1 0 -12.700000000000003 7.8739999999999997 1 0 0 I I #
straight-curve $-1 -1 $-1 -7.8739999999999997 -12.700000000000003 0 0 0 -1 I I #
face $-1 -1 $-1 $566 $372 $24 $-1 $496 reversed single #
plane-surface $-1 -1 $-1 0 -12.700000000000003 0 0 1 0 0 0 1 forward_v I I I I #
vertex $-1 -1 $-1 $575 $576 #
vertex $-1 -1 $-1 $504 $577 #
coedge $-1 -1 $-1 $375 $383 $370 $500 forward $384 $-1 #
edge $-1 -1 $-1 $498 -7.8739999999999997 $241 0 $499 $503 forward @7 unknown #
coedge $-1 -1 $-1 $374 $373 $578 $509 reversed $342 $-1 #
vertex $-1 -1 $-1 $376 $579 #
straight-curve $-1 -1 $-1 7.8739999999999997 -12.700000000000003 0 0 0 -1 I I #
edge $-1 -1 $-1 $498 -12.700000000000003 $381 12.700000000000003 $383 $580 forward @7 unknown #
face $-1 -1 $-1 $488 $471 $24 $-1 $581 reversed single #
point $-1 -1 $-1 7.8739999999999997 12.700000000000003 7.8739999999999997 #
face $-1 -1 $-1 $-1 $384 $24 $-1 $343 reversed single #
face $-1 -1 $-1 $582 $557 $24 $-1 $387 reversed single #
edge $-1 -1 $-1 $388 -12.700000000000003 $502 12.700000000000003 $501 $583 forward @7 unknown #
point $-1 -1 $-1 7.8739999999999997 12.700000000000003 -7.8739999999999997 #
point $-1 -1 $-1 -7.8739999999999997 12.700000000000003 7.8739999999999997 #
point $-1 -1 $-1 -7.8739999999999997 6.3500000000000014 9.6425504299973975e-016 #
straight-curve $-1 -1 $-1 -7.8739999999999997 12.700000000000003 0 0 0 -1 I I #
point $-1 -1 $-1 -7.8739999999999997 -12.700000000000003 -7.8739999999999997 #
straight-curve $-1 -1 $-1 -7.8739999999999997 0 -7.8739999999999997 0 1 0 I I #
point $-1 -1 $-1 -7.8739999999999997 12.700000000000003 -7.8739999999999997 #
coedge $-1 -1 $-1 $584 $413 $432 $532 reversed $294 $-1 #
coedge $-1 -1 $-1 $413 $584 $414 $520 forward $294 $-1 #
coedge $-1 -1 $-1 $415 $414 $585 $586 reversed $189 $-1 #
edge $-1 -1 $-1 $587 0 $521 4.5719999999999992 $518 $588 forward @7 unknown #
vertex $-1 -1 $-1 $520 $589 #
straight-curve $-1 -1 $-1 1.2065000000000066 12.700000000000006 4.8760116984409896 -0.86602540378443571 0 0.50000000000000533 I I #
coedge $-1 -1 $-1 $585 $422 $418 $524 forward $428 $-1 #
edge $590 -1 $-1 $424 -4.1794385986636797 $525 1.3931461995545666 $418 $591 forward @7 unknown #
vertex $-1 -1 $-1 $524 $592 #
straight-curve $-1 -1 $-1 4.8259999999999659 8.1280000000000037 2.7862923991091333 0 1 0 I I #
point $-1 -1 $-1 4.8259999999999659 12.700000000000003 2.7862923991091333 #
convexity-sys-attrib $-1 -1 $-1 $-1 $423 #
straight-curve $-1 -1 $-1 3.6194999999999937 8.1280000000000072 -3.4828654988863961 0.86602540378443416 0 0.50000000000000799 I I #
point $-1 -1 $-1 4.8259999999999659 8.1280000000000037 -2.7862923991091133 #
coedge $-1 -1 $-1 $427 $585 $584 $593 forward $428 $-1 #
edge $-1 -1 $-1 $534 0 $436 4.5719999999999992 $432 $594 forward @7 unknown #
convexity-sys-attrib $-1 -1 $-1 $-1 $433 #
vertex $-1 -1 $-1 $433 $595 #
straight-curve $-1 -1 $-1 -4.8259999999999996 8.1280000000000072 -1.3931461995545764 0 0 -1 I I #
straight-curve $-1 -1 $-1 -3.6195000000000142 12.700000000000006 3.4828654988864134 -0.86602540378443715 0 -0.50000000000000255 I I #
point $-1 -1 $-1 -4.8259999999999996 12.700000000000003 2.7862923991091333 #
plane-surface $-1 -1 $-1 -1.9595436384634013e-014 8.128000000000009 0 -3.518915242527383e-031 1 -1.0546604761465176e-031 0 1.0546604761465176e-031 1 forward_v I I I I #
model_id-kcp-attrib $-1 -1 $-1 $-1 $441 1 1021487519 1021487519 830537729 10 #
face $596 -1 $-1 $597 $598 $9 $-1 $599 reversed single #
loop $-1 -1 $-1 $-1 $600 $441 #
plane-surface $-1 -1 $-1 -4.8259999999999996 0 2.7862923991091333 -0.50000000000000255 0 0.86602540378443715 21.997045256124704 0 12.700000000000065 forward_v I I I I #
coedge $-1 -1 $-1 $601 $546 $602 $603 forward $442 $-1 #
coedge $-1 -1 $-1 $604 $444 $605 $606 reversed $324 $-1 #
coedge $-1 -1 $-1 $444 $607 $608 $609 reversed $324 $-1 #
coedge $-1 -1 $-1 $543 $610 $444 $547 forward $442 $-1 #
edge $-1 -1 $-1 $611 0 $612 0.21939310229205852 $444 $613 forward @7 unknown #
ellipse-curve $-1 -1 $-1 0 0 0 0 1 0 7.8739999999999997 0 0 1 I I #
straight-curve $-1 -1 $-1 -7.8739999999999997 -6.349999999999997 9.6425504299973975e-016 0 25.399999999999999 0 I I #
straight-curve $-1 -1 $-1 7.8739999999999997 -6.349999999999997 0 0 25.399999999999999 0 I I #
point $-1 -1 $-1 7.8739999999999997 0 0 #
point $-1 -1 $-1 -7.8739999999999997 0 0 #
convexity-sys-attrib $-1 -1 $-1 $454 $331 #
loop $-1 -1 $-1 $-1 $466 $460 #
coedge $-1 -1 $-1 $556 $464 $469 $561 reversed $557 $-1 #
coedge $-1 -1 $-1 $464 $555 $486 $489 reversed $557 $-1 #
loop $-1 -1 $-1 $-1 $464 $508 #
coedge $-1 -1 $-1 $559 $466 $487 $366 forward $554 $-1 #
coedge $-1 -1 $-1 $466 $558 $468 $480 reversed $554 $-1 #
coedge $-1 -1 $-1 $469 $468 $572 $575 forward $471 $-1 #
edge $-1 -1 $-1 $573 -7.8739999999999997 $351 -2.952082130906877e-032 $555 $568 forward @7 unknown #
coedge $-1 -1 $-1 $578 $470 $476 $478 forward $564 $-1 #
coedge $-1 -1 $-1 $470 $578 $472 $565 forward $564 $-1 #
loop $-1 -1 $-1 $-1 $470 $582 #
edge $-1 -1 $-1 $502 -7.8739999999999997 $352 2.952082130906877e-032 $472 $569 forward @7 unknown #
face $-1 -1 $-1 $567 $474 $24 $-1 $496 reversed single #
face $-1 -1 $-1 $251 $477 $24 $-1 $387 reversed single #
straight-curve $-1 -1 $-1 0 12.700000000000003 -7.8739999999999997 1 0 0 I I #
straight-curve $-1 -1 $-1 0 -12.700000000000003 -7.8739999999999997 -1 0 0 I I #
edge $-1 -1 $-1 $389 -12.700000000000003 $492 12.700000000000003 $484 $614 forward @7 unknown #
straight-curve $-1 -1 $-1 -7.8739999999999997 12.700000000000003 0 0 0 -1 I I #
coedge $-1 -1 $-1 $487 $486 $560 $575 reversed $461 $-1 #
vertex $-1 -1 $-1 $561 $615 #
point $-1 -1 $-1 -7.8739999999999997 -12.700000000000003 7.8739999999999997 #
edge $-1 -1 $-1 $497 -12.700000000000003 $573 12.700000000000003 $572 $616 forward @7 unknown #
point $-1 -1 $-1 -7.8739999999999997 -12.700000000000003 -7.8739999999999997 #
point $-1 -1 $-1 7.8739999999999997 -12.700000000000003 7.8739999999999997 #
coedge $-1 -1 $-1 $563 $562 $501 $509 forward $564 $-1 #
point $-1 -1 $-1 7.8739999999999997 -12.700000000000003 -7.8739999999999997 #
straight-curve $-1 -1 $-1 7.8739999999999997 0 7.8739999999999997 0 1 0 I I #
plane-surface $-1 -1 $-1 0 0 -7.8739999999999997 0 0 1 1 0 0 forward_v I I I I #
face $-1 -1 $-1 $380 $564 $24 $-1 $581 reversed single #
straight-curve $-1 -1 $-1 7.8739999999999997 0 -7.8739999999999997 0 -1 0 I I #
coedge $-1 -1 $-1 $518 $517 $531 $593 reversed $294 $-1 #
coedge $-1 -1 $-1 $531 $523 $519 $586 forward $428 $-1 #
edge $617 -1 $-1 $525 -4.1794385986636691 $587 1.3931461995545795 $519 $618 forward @7 unknown #
vertex $-1 -1 $-1 $586 $619 #
straight-curve $-1 -1 $-1 0 8.1280000000000037 5.5725847982182861 0 1 0 I I #
point $-1 -1 $-1 0 12.700000000000003 5.5725847982182861 #
convexity-sys-attrib $-1 -1 $-1 $-1 $524 #
straight-curve $-1 -1 $-1 4.8259999999999659 8.1280000000000072 1.3931461995545666 0 0 1 I I #
point $-1 -1 $-1 4.8259999999999659 8.1280000000000037 2.7862923991091333 #
edge $620 -1 $-1 $587 -4.1794385986637241 $534 1.3931461995545527 $584 $621 forward @7 unknown #
straight-curve $-1 -1 $-1 -4.8259999999999996 8.1280000000000037 2.7862923991091333 0 1 0 I I #
point $-1 -1 $-1 -4.8259999999999996 8.1280000000000037 2.7862923991091333 #
model_id-kcp-attrib $-1 -1 $-1 $-1 $540 1 1021487519 1021487519 830537729 11 #
face $622 -1 $-1 $623 $624 $9 $-1 $625 reversed single #
loop $-1 -1 $-1 $-1 $626 $540 #
plane-surface $-1 -1 $-1 0 0 5.5725847982182861 0.50000000000000533 0 0.86602540378443571 21.997045256124665 0 -12.700000000000133 forward_v I I I I #
coedge $-1 -1 $-1 $627 $608 $628 $629 forward $541 $-1 #
coedge $-1 -1 $-1 $610 $543 $630 $631 reversed $442 $-1 #
coedge $-1 -1 $-1 $608 $627 $543 $603 reversed $541 $-1 #
edge $-1 -1 $-1 $612 0 $632 0.17999999999999997 $602 $633 forward @7 unknown #
coedge $-1 -1 $-1 $634 $544 $635 $636 reversed $324 $-1 #
coedge $-1 -1 $-1 $637 $638 $544 $606 forward $639 $-1 #
edge $-1 -1 $-1 $640 0 $611 0.21939310229205775 $544 $641 forward @7 unknown #
coedge $-1 -1 $-1 $545 $634 $642 $643 reversed $324 $-1 #
coedge $-1 -1 $-1 $600 $602 $545 $609 forward $541 $-1 #
edge $-1 -1 $-1 $612 0 $644 0.21939310229205813 $545 $645 forward @7 unknown #
coedge $-1 -1 $-1 $546 $601 $637 $646 reversed $442 $-1 #
vertex $-1 -1 $-1 $606 $647 #
vertex $-1 -1 $-1 $609 $648 #
straight-curve $-1 -1 $-1 -4.8259999999999996 0 -2.7862923991091528 0 0 25.399999999999999 I I #
straight-curve $-1 -1 $-1 -7.8739999999999997 0 7.8739999999999997 0 -1 0 I I #
point $-1 -1 $-1 -7.8739999999999997 12.700000000000003 -7.8739999999999997 #
straight-curve $-1 -1 $-1 -7.8739999999999997 0 -7.8739999999999997 0 1 0 I I #
convexity-sys-attrib $-1 -1 $-1 $-1 $586 #
straight-curve $-1 -1 $-1 1.2065000000000066 8.1280000000000072 4.8760116984409896 -0.86602540378443571 0 0.50000000000000533 I I #
point $-1 -1 $-1 0 8.1280000000000037 5.5725847982182861 #
convexity-sys-attrib $-1 -1 $-1 $-1 $593 #
straight-curve $-1 -1 $-1 -3.6195000000000142 8.1280000000000072 3.4828654988864134 -0.86602540378443715 0 -0.50000000000000255 I I #
model_id-kcp-attrib $-1 -1 $-1 $-1 $597 1 1021487519 1021487519 830537729 12 #
face $649 -1 $-1 $650 $651 $9 $-1 $652 reversed single #
loop $-1 -1 $-1 $-1 $653 $597 #
plane-surface $-1 -1 $-1 4.8259999999999659 0 2.7862923991091333 1 0 0 0 0 -25.399999999999999 forward_v I I I I #
coedge $-1 -1 $-1 $654 $642 $655 $656 forward $598 $-1 #
coedge $-1 -1 $-1 $602 $600 $657 $658 reversed $541 $-1 #
coedge $-1 -1 $-1 $642 $654 $600 $629 reversed $598 $-1 #
edge $-1 -1 $-1 $644 0 $659 0.17999999999999997 $600 $660 forward @7 unknown #
coedge $-1 -1 $-1 $657 $661 $601 $631 forward $662 $-1 #
edge $663 -1 $-1 $664 0 $632 0.21939310229205852 $630 $665 forward @7 unknown #
vertex $-1 -1 $-1 $658 $666 #
straight-curve $-1 -1 $-1 -4.8259999999999996 0 2.7862923991091333 0 -25.399999999999999 0 I I #
coedge $-1 -1 $-1 $607 $604 $667 $668 reversed $324 $-1 #
coedge $-1 -1 $-1 $669 $670 $604 $636 forward $651 $-1 #
edge $-1 -1 $-1 $671 0 $640 0.21939310229205736 $604 $672 forward @7 unknown #
coedge $-1 -1 $-1 $673 $605 $610 $646 forward $639 $-1 #
coedge $-1 -1 $-1 $605 $673 $669 $674 reversed $639 $-1 #
loop $-1 -1 $-1 $-1 $637 $650 #
vertex $-1 -1 $-1 $636 $675 #
straight-curve $-1 -1 $-1 0 0 -5.5725847982182861 -21.997045256124739 0 12.699999999999998 I I #
coedge $-1 -1 $-1 $626 $628 $607 $643 forward $598 $-1 #
edge $-1 -1 $-1 $644 0 $676 0.21939310229205702 $607 $677 forward @7 unknown #
vertex $-1 -1 $-1 $609 $678 #
straight-curve $-1 -1 $-1 -4.8259999999999996 0 2.7862923991091333 21.997045256124704 0 12.700000000000061 I I #
edge $-1 -1 $-1 $611 0 $664 0.17999999999999997 $637 $679 forward @7 unknown #
point $-1 -1 $-1 -4.8259999999999996 0 -2.7862923991091528 #
point $-1 -1 $-1 -4.8259999999999996 0 2.7862923991091333 #
model_id-kcp-attrib $-1 -1 $-1 $-1 $623 1 1021487519 1021487519 830537729 13 #
face $680 -1 $-1 $681 $639 $9 $-1 $682 reversed single #
loop $-1 -1 $-1 $-1 $669 $623 #
plane-surface $-1 -1 $-1 4.8259999999999659 0 -2.7862923991091133 0.50000000000000799 0 -0.86602540378443416 -21.997045256124622 0 -12.7000000000002 forward_v I I I I #
coedge $-1 -1 $-1 $683 $667 $670 $684 forward $624 $-1 #
coedge $-1 -1 $-1 $628 $626 $685 $686 reversed $598 $-1 #
coedge $-1 -1 $-1 $667 $683 $626 $656 reversed $624 $-1 #
edge $-1 -1 $-1 $676 0 $687 0.17999999999999997 $626 $688 forward @7 unknown #
coedge $-1 -1 $-1 $685 $630 $627 $658 forward $662 $-1 #
edge $689 -1 $-1 $632 0 $659 0.21939310229205813 $657 $690 forward @7 unknown #
vertex $-1 -1 $-1 $658 $691 #
straight-curve $-1 -1 $-1 0 0 5.5725847982182852 0 -25.399999999999999 0 I I #
coedge $-1 -1 $-1 $630 $692 $673 $693 forward $662 $-1 #
loop $-1 -1 $-1 $-1 $685 $681 #
attrib_edge_convexity-kcp-attrib $-1 -1 $694 $-1 $631 2 #
vertex $-1 -1 $-1 $631 $695 #
straight-curve $-1 -1 $-1 -4.8259999999999996 -4.5719999999999992 -2.7862923991091528 0 0 25.399999999999999 I I #
point $-1 -1 $-1 -4.8259999999999996 -4.5719999999999992 2.7862923991091333 #
coedge $-1 -1 $-1 $653 $655 $634 $668 forward $624 $-1 #
edge $-1 -1 $-1 $676 0 $671 0.21939310229205694 $634 $696 forward @7 unknown #
coedge $-1 -1 $-1 $697 $635 $638 $674 forward $651 $-1 #
coedge $-1 -1 $-1 $635 $697 $653 $684 reversed $651 $-1 #
vertex $-1 -1 $-1 $668 $698 #
straight-curve $-1 -1 $-1 4.8259999999999659 0 -2.7862923991091133 -21.997045256124622 0 -12.700000000000202 I I #
coedge $-1 -1 $-1 $638 $637 $661 $693 reversed $639 $-1 #
edge $-1 -1 $-1 $640 0 $699 0.17999999999999997 $669 $700 forward @7 unknown #
point $-1 -1 $-1 0 0 -5.5725847982182861 #
vertex $-1 -1 $-1 $643 $701 #
straight-curve $-1 -1 $-1 0 0 5.5725847982182861 21.997045256124665 0 -12.700000000000133 I I #
point $-1 -1 $-1 0 0 5.5725847982182861 #
straight-curve $-1 -1 $-1 -4.8260000000000005 0 -2.7862923991091524 0 -25.399999999999999 0 I I #
model_id-kcp-attrib $-1 -1 $-1 $-1 $650 1 1021487519 1021487519 830537729 14 #
face $702 -1 $-1 $-1 $662 $9 $-1 $703 forward single #
plane-surface $-1 -1 $-1 0 0 -5.5725847982182861 -0.5 0 -0.86602540378443871 -21.997045256124743 0 12.699999999999999 forward_v I I I I #
coedge $-1 -1 $-1 $655 $653 $704 $705 reversed $624 $-1 #
edge $-1 -1 $-1 $671 0 $706 0.17999999999999997 $653 $707 forward @7 unknown #
coedge $-1 -1 $-1 $704 $657 $654 $686 forward $662 $-1 #
edge $708 -1 $-1 $659 0 $687 0.21939310229205702 $685 $709 forward @7 unknown #
vertex $-1 -1 $-1 $705 $710 #
straight-curve $-1 -1 $-1 4.8259999999999659 0 2.7862923991091333 0 -25.399999999999999 0 I I #
attrib_edge_convexity-kcp-attrib $-1 -1 $711 $-1 $658 2 #
straight-curve $-1 -1 $-1 -4.8259999999999996 -4.5719999999999992 2.7862923991091333 21.997045256124704 0 12.700000000000061 I I #
point $-1 -1 $-1 0 -4.5719999999999992 5.5725847982182861 #
coedge $-1 -1 $-1 $661 $704 $697 $712 forward $662 $-1 #
edge $713 -1 $-1 $699 0 $664 0.21939310229205775 $661 $714 forward @7 unknown #
convexity-sys-attrib $-1 -1 $-1 $663 $631 #
point $-1 -1 $-1 -4.8259999999999996 -4.5719999999999992 -2.7862923991091528 #
straight-curve $-1 -1 $-1 4.8259999999999659 0 2.7862923991091333 0 0 -25.399999999999999 I I #
coedge $-1 -1 $-1 $670 $669 $692 $712 reversed $651 $-1 #
point $-1 -1 $-1 4.8259999999999659 0 -2.7862923991091133 #
vertex $-1 -1 $-1 $693 $715 #
straight-curve $-1 -1 $-1 0 0 -5.572584798218287 0 -25.399999999999999 0 I I #
point $-1 -1 $-1 4.8259999999999659 0 2.7862923991091333 #
model_id-kcp-attrib $-1 -1 $-1 $-1 $681 1 1021487519 1021487519 830537729 15 #
plane-surface $-1 -1 $-1 0 -4.5719999999999992 0 0 1 0 -25.399999999999999 0 0 forward_v I I I I #
coedge $-1 -1 $-1 $692 $685 $683 $705 forward $662 $-1 #
edge $716 -1 $-1 $687 0 $706 0.21939310229205694 $704 $717 forward @7 unknown #
vertex $-1 -1 $-1 $712 $718 #
straight-curve $-1 -1 $-1 4.8259999999999659 0 -2.7862923991091133 0 -25.399999999999999 0 I I #
attrib_edge_convexity-kcp-attrib $-1 -1 $719 $-1 $686 2 #
straight-curve $-1 -1 $-1 0 -4.5719999999999992 5.5725847982182861 21.997045256124665 0 -12.700000000000133 I I #
point $-1 -1 $-1 4.8259999999999659 -4.5719999999999992 2.7862923991091333 #
convexity-sys-attrib $-1 -1 $-1 $689 $658 #
edge $720 -1 $-1 $706 0 $699 0.21939310229205736 $692 $721 forward @7 unknown #
attrib_edge_convexity-kcp-attrib $-1 -1 $722 $-1 $693 2 #
straight-curve $-1 -1 $-1 0 -4.5719999999999992 -5.5725847982182861 -21.997045256124739 0 12.699999999999998 I I #
point $-1 -1 $-1 0 -4.5719999999999992 -5.5725847982182861 #
attrib_edge_convexity-kcp-attrib $-1 -1 $723 $-1 $705 2 #
straight-curve $-1 -1 $-1 4.8259999999999659 -4.5719999999999992 2.7862923991091333 0 0 -25.399999999999999 I I #
point $-1 -1 $-1 4.8259999999999659 -4.5719999999999992 -2.7862923991091133 #
convexity-sys-attrib $-1 -1 $-1 $708 $686 #
attrib_edge_convexity-kcp-attrib $-1 -1 $724 $-1 $712 2 #
straight-curve $-1 -1 $-1 4.8259999999999659 -4.5719999999999992 -2.7862923991091133 -21.997045256124622 0 -12.700000000000202 I I #
convexity-sys-attrib $-1 -1 $-1 $713 $693 #
convexity-sys-attrib $-1 -1 $-1 $716 $705 #
convexity-sys-attrib $-1 -1 $-1 $720 $712 #
End-of-ACIS-data 