600 0 1 0           
125 GICL ACIS Healer - Source: /gicl/data5/repository/Sandia/Randy_Wilson/discriminator/sh-r44366-000-u/sh-r44366-000-u.sat - 6 0 18 ACIS 6.0.3 Solaris 24 Sat Apr 13 23:37:46 2002 
1 9.999999999999999547e-07 1.000000000000000036e-10 
body $-1 $1 $-1 $2 #
lump $-1 $-1 $3 $0 #
transform $-1 1 0 0 0 1 0 0 0 1 0 0 0 1 no_rotate no_reflect no_shear #
shell $-1 $-1 $-1 $4 $-1 $1 #
face $5 $6 $7 $3 $-1 $8 forward single #
pid_name-sg-attrib $-1 $-1 $-1 $4 7 rwilson 784252905 1022 1 #
face $9 $10 $11 $3 $-1 $12 forward single #
loop $-1 $-1 $13 $4 #
plane-surface $-1 0 0 0.1595000000000000029 0 0 1 1 0 0 forward_v I I I I #
pid_name-sg-attrib $-1 $-1 $-1 $6 7 rwilson 784252905 1023 1 #
face $14 $15 $16 $3 $-1 $17 forward single #
loop $-1 $18 $19 $6 #
cone-surface $-1 0 0 -0.823574999999999946 0 0 -1 0.9999999999999980016 0 0 1 I I 0.7071067811865470176 0.7071067811865480168 0.9999999999999980016 forward I I I I #
coedge $-1 $13 $13 $19 $20 reversed $7 $-1 #
pid_name-sg-attrib $-1 $-1 $-1 $10 7 rwilson 784252905 1024 1 #
face $21 $22 $23 $3 $-1 $24 forward single #
loop $-1 $25 $26 $10 #
cone-surface $-1 0 0 0 0 0 1 0.01992499999999999827 0 0 1 I I 0 1 0.01992499999999999827 forward I I I I #
loop $-1 $-1 $27 $6 #
coedge $-1 $19 $19 $13 $20 forward $11 $-1 #
edge $-1 $28 -6.283185307179586232 $28 1.224606353822375286e-16 $13 $29 reversed 7 unknown #
pid_name-sg-attrib $-1 $-1 $-1 $15 7 rwilson 784252905 1025 1 #
face $30 $-1 $31 $3 $-1 $32 reversed single #
loop $-1 $33 $34 $15 #
cone-surface $-1 0 0 0.9830750000000000322 0 0 1 1 0 0 1 I I 0.7071067811865470176 0.7071067811865480168 1 forward I I I I #
loop $-1 $-1 $35 $10 #
coedge $-1 $26 $26 $27 $36 reversed $16 $-1 #
coedge $-1 $27 $27 $26 $36 forward $18 $-1 #
vertex $-1 $20 $37 #
ellipse-curve $-1 0 0 0.1595000000000000029 0 0 1 -0.01692499999999999907 0 0 1 I I #
pid_name-sg-attrib $-1 $-1 $-1 $22 7 rwilson 784252905 1026 1 #
loop $-1 $-1 $38 $22 #
plane-surface $-1 0 0 0 0 0 1 1 0 0 forward_v I I I I #
loop $-1 $-1 $39 $15 #
coedge $-1 $34 $34 $38 $40 forward $23 $-1 #
coedge $-1 $35 $35 $39 $41 reversed $25 $-1 #
edge $-1 $42 -3.141592653589793116 $42 3.141592653589793116 $26 $43 forward 7 unknown #
point $-1 -0.01692499999999999907 2.072646253844370144e-18 0.1595000000000000029 #
coedge $-1 $38 $38 $34 $40 reversed $31 $-1 #
coedge $-1 $39 $39 $35 $41 forward $33 $-1 #
edge $-1 $44 -3.141592653589790007 $44 3.141592653589796225 $38 $45 forward 7 unknown #
edge $-1 $46 -6.283185307179586232 $46 -0 $35 $47 reversed 7 unknown #
vertex $-1 $36 $48 #
ellipse-curve $-1 0 0 0.1565000000000000002 0 0 1 0.01992499999999999827 0 0 1 I I #
vertex $-1 $40 $49 #
ellipse-curve $-1 0 0 -3.469446951953609952e-18 2.049894801745120056e-16 0 1 -0.01692499999999999907 0 3.469446951953609952e-18 1 I I #
vertex $-1 $41 $50 #
ellipse-curve $-1 0 0 0.003000000000000000062 0 0 1 -0.01992499999999999827 2.440028159991089925e-18 0 1 I I #
point $-1 -0.01992499999999999827 2.440028159991089925e-18 0.1565000000000000002 #
point $-1 0.01692499999999999907 5.598438650600970614e-17 0 #
point $-1 -0.01992499999999999827 2.440028159991089925e-18 0.003000000000000000062 #
End-of-ACIS-data 