600 0 2 0           
24 FBMach with ACIS - 6.0.3 13 ACIS 6.0.3 NT 24 Mon Apr 01 16:19:54 2002 
1 9.9999999999999995e-007 1e-010 
body $2 $3 $-1 $4 #
bdycol-kcp $-1 1 4 $5 $6 $7 $8 #
model_id-kcp-attrib $-1 $9 $-1 $0 1 1017695994 110 -2123497471 1 #
lump $-1 $-1 $10 $0 #
transform $-1 1 0 0 0 1 0 0 0 1 0 0 0 1 rotate no_reflect no_shear #
body $11 $12 $-1 $13 #
body $14 $15 $-1 $16 #
body $17 $18 $-1 $19 #
body $20 $21 $-1 $22 #
aggregate_advspl_attribute-aggregate_geombuild_base_attribute-aggregate_body_attribute-attrib_HH-attrib $-1 $23 $2 $0 F #
shell $-1 $-1 $-1 $24 $-1 $3 #
model_id-kcp-attrib $-1 $-1 $-1 $5 1 1017695994 110 -2123497470 1 #
lump $-1 $-1 $25 $5 #
transform $-1 1 0 0 0 1 0 0 0 1 0 0 0.079750000000000001 1 no_rotate no_reflect no_shear #
rgb_color-st-attrib $-1 $26 $-1 $6 1 1 0.5 #
lump $-1 $-1 $27 $6 #
transform $-1 1 0 0 0 1 0 0 0 1 0 0 0.158 1 rotate no_reflect no_shear #
rgb_color-st-attrib $-1 $28 $-1 $7 1 1 0.5 #
lump $-1 $-1 $29 $7 #
transform $-1 1 0 0 0 -1 0 0 0 -1 0 0 0.0014999999999999983 1 rotate no_reflect no_shear #
rgb_color-st-attrib $-1 $30 $-1 $8 0.5 1 1 #
lump $-1 $-1 $31 $8 #
transform $-1 1 0 0 0 1 0 0 0 1 0 0 0.079750000000000001 1 no_rotate no_reflect no_shear #
aggregate_secndry_attribute-aggregate_geombuild_base_attribute-aggregate_body_attribute-attrib_HH-attrib $-1 $32 $9 $0 F #
face $33 $34 $35 $10 $-1 $36 forward single #
shell $-1 $-1 $-1 $37 $-1 $12 #
model_id-kcp-attrib $-1 $-1 $14 $6 1 1017695994 140 -2121531389 1 #
shell $-1 $-1 $-1 $38 $-1 $15 #
model_id-kcp-attrib $-1 $-1 $17 $7 1 1017695994 140 -2121531388 1 #
shell $-1 $-1 $-1 $39 $-1 $18 #
model_id-kcp-attrib $-1 $-1 $20 $8 1 1017695994 220 -2116288507 1 #
shell $-1 $-1 $-1 $40 $-1 $21 #
aggregate_sharped_attribute-aggregate_geombuild_base_attribute-aggregate_body_attribute-attrib_HH-attrib $-1 $41 $23 $0 F #
model_id-kcp-attrib $-1 $42 $-1 $24 1 1017695994 110 -2123497471 7 #
face $43 $44 $45 $10 $-1 $46 forward single #
loop $-1 $-1 $47 $24 #
plane-surface $-1 0 0 0.1595 0 0 1 1 0 0 forward_v I I I I #
face $48 $49 $50 $25 $-1 $51 forward single #
face $-1 $52 $53 $27 $-1 $54 reversed single #
face $-1 $55 $56 $29 $-1 $57 reversed single #
face $-1 $58 $59 $31 $-1 $60 reversed single #
aggregate_reblend_attribute-aggregate_geombuild_base_attribute-aggregate_body_attribute-attrib_HH-attrib $-1 $61 $32 $0 F #
model_id-kcp-attrib $-1 $62 $33 $24 1 1017695994 110 -2123497471 2 #
model_id-kcp-attrib $-1 $63 $-1 $34 1 1017695994 110 -2123497471 3 #
face $64 $65 $66 $10 $-1 $67 forward single #
loop $-1 $68 $69 $34 #
cone-surface $-1 0 0 -0.82357499999999995 0 0 -1 0.999999999999998 0 0 1 I I 0.70710678118654702 0.70710678118654802 0.999999999999998 forward I I I I #
coedge $70 $47 $47 $69 $71 reversed $35 $-1 #
model_id-kcp-attrib $-1 $-1 $-1 $37 1 1017695994 110 -2123497470 2 #
face $72 $73 $74 $25 $-1 $75 reversed single #
loop $-1 $-1 $76 $37 #
plane-surface $-1 0 0 0.079750000000000001 0 0 1 1 0 0 forward_v I I I I #
face $-1 $77 $78 $27 $-1 $79 forward single #
loop $-1 $80 $81 $38 #
cone-surface $-1 0 0 0.0084624999999996786 0 0 1 0.0099624999999999991 0 0 1 I I -0.70710678118655834 0.70710678118653669 0.0099624999999999991 forward I I I I #
face $-1 $82 $83 $29 $-1 $84 forward single #
loop $-1 $85 $86 $39 #
cone-surface $-1 0 0 0.0084625000000006483 0 0 1 0.0099624999999999991 0 0 1 I I -0.70710678118652437 0.70710678118657055 0.0099624999999999991 forward I I I I #
face $-1 $87 $88 $31 $-1 $60 reversed single #
loop $-1 $-1 $89 $40 #
cone-surface $-1 2.2410554911729587e-034 0 0.079750000000000001 0 0 1 0.019924999999999998 -4.8800563199821768e-018 0 1 I I 0 1 0.019924999999999998 forward I I I I #
aggregate_isospline_attribute-aggregate_geombuild_base_attribute-aggregate_body_attribute-attrib_HH-attrib $-1 $90 $41 $0 F #
attrib_hh_face_geombuild-attrib_entity_geombuild-individual_entity_attribute-attrib_HH-attrib $-1 $91 $42 $24 F #
attrib_hh_face_geombuild-attrib_entity_geombuild-individual_entity_attribute-attrib_HH-attrib $-1 $92 $43 $34 F #
model_id-kcp-attrib $-1 $93 $-1 $44 1 1017695994 110 -2123497471 4 #
face $94 $95 $96 $10 $-1 $97 forward single #
loop $-1 $98 $99 $44 #
cone-surface $-1 0 0 0 0 0 1 0.019924999999999998 0 0 1 I I 0 1 0.019924999999999998 forward I I I I #
loop $-1 $-1 $100 $34 #
coedge $101 $69 $69 $47 $71 forward $45 $-1 #
attrib_hh_coedge_geombuild-attrib_entity_geombuild-individual_entity_attribute-attrib_HH-attrib $-1 $-1 $-1 $47 F #
edge $102 $103 -6.2831853071795862 $103 1.2246063538223753e-016 $47 $104 reversed 7 unknown #
model_id-kcp-attrib $-1 $-1 $-1 $49 1 1017695994 110 -2123497470 3 #
face $-1 $105 $106 $25 $-1 $107 reversed single #
loop $-1 $-1 $108 $49 #
plane-surface $-1 0 0 -0.079750000000000001 0 0 1 1 0 0 forward_v I I I I #
coedge $-1 $109 $110 $111 $112 forward $50 $-1 #
face $-1 $-1 $113 $27 $-1 $114 forward single #
loop $-1 $115 $116 $52 #
cone-surface $-1 0 0 0 0 0 1 0.019924999999999998 0 0 1 I I 0 1 0.019924999999999998 forward I I I I #
loop $-1 $-1 $117 $38 #
coedge $-1 $81 $81 $118 $119 reversed $53 $-1 #
face $-1 $-1 $120 $29 $-1 $121 forward single #
loop $-1 $122 $123 $55 #
cone-surface $-1 0 0 0 0 0 1 0.019924999999999998 0 0 1 I I 0 1 0.019924999999999998 forward I I I I #
loop $-1 $-1 $124 $39 #
coedge $-1 $86 $86 $125 $126 reversed $56 $-1 #
face $-1 $127 $128 $31 $-1 $60 reversed single #
loop $-1 $-1 $129 $58 #
coedge $-1 $130 $131 $132 $133 reversed $59 $-1 #
aggregate_analytic_solver_attribute-aggregate_geombuild_base_attribute-aggregate_body_attribute-attrib_HH-attrib $-1 $134 $61 $0 F #
pid_name-sg-attrib $-1 $-1 $62 $24 7 rwilson 784252905 1022 1 #
pid_name-sg-attrib $-1 $-1 $63 $34 7 rwilson 784252905 1023 1 #
attrib_hh_face_geombuild-attrib_entity_geombuild-individual_entity_attribute-attrib_HH-attrib $-1 $135 $64 $44 F #
model_id-kcp-attrib $-1 $136 $-1 $65 1 1017695994 110 -2123497471 5 #
face $137 $-1 $138 $10 $-1 $139 reversed single #
loop $-1 $140 $141 $65 #
cone-surface $-1 0 0 0.98307500000000003 0 0 1 1 0 0 1 I I 0.70710678118654702 0.70710678118654802 1 forward I I I I #
loop $-1 $-1 $142 $44 #
coedge $143 $99 $99 $100 $144 reversed $66 $-1 #
coedge $145 $100 $100 $99 $144 forward $68 $-1 #
attrib_hh_coedge_geombuild-attrib_entity_geombuild-individual_entity_attribute-attrib_HH-attrib $-1 $-1 $-1 $69 F #
attrib_edge_convexity-kcp-attrib $-1 $146 $-1 $71 1 #
vertex $147 $71 $148 #
ellipse-curve $-1 0 0 0.1595 0 0 1 -0.016924999999999999 0 0 1 I I #
face $-1 $149 $150 $25 $-1 $151 reversed single #
loop $-1 $-1 $152 $73 #
plane-surface $-1 0 -0.019924999999999998 0 0 1 0 0 0 1 forward_v I I I I #
coedge $-1 $153 $154 $155 $156 forward $74 $-1 #
coedge $-1 $157 $76 $158 $159 forward $50 $-1 #
coedge $-1 $76 $157 $160 $161 forward $50 $-1 #
coedge $-1 $162 $163 $76 $112 reversed $164 $-1 #
edge $-1 $165 -0.019924999999999998 $166 0.019924999999999998 $111 $167 forward 7 unknown #
loop $-1 $168 $118 $77 #
plane-surface $-1 0 0 0.0015000000000000013 0 0 1 1 0 0 forward_v I I I I #
loop $-1 $-1 $169 $52 #
coedge $-1 $116 $116 $117 $170 reversed $78 $-1 #
coedge $-1 $117 $117 $116 $170 forward $80 $-1 #
coedge $-1 $118 $118 $81 $119 forward $113 $-1 #
edge $-1 $171 -3.1415926535897931 $171 3.1415926535897931 $118 $172 forward 7 unknown #
loop $-1 $173 $125 $82 #
plane-surface $-1 0 0 0.0015000000000000018 0 0 1 1 0 0 forward_v I I I I #
loop $-1 $-1 $174 $55 #
coedge $-1 $123 $123 $124 $175 reversed $83 $-1 #
coedge $-1 $124 $124 $123 $175 forward $85 $-1 #
coedge $-1 $125 $125 $86 $126 forward $120 $-1 #
edge $-1 $176 -3.1415926535897931 $176 3.1415926535897931 $125 $177 forward 7 unknown #
face $-1 $178 $179 $31 $-1 $60 reversed single #
loop $-1 $-1 $180 $87 #
coedge $-1 $181 $182 $183 $184 reversed $88 $-1 #
coedge $-1 $185 $89 $186 $187 reversed $59 $-1 #
coedge $-1 $89 $185 $188 $189 reversed $59 $-1 #
coedge $-1 $190 $191 $192 $133 forward $193 $-1 #
edge $-1 $194 -0.1595 $195 0 $132 $196 forward 7 unknown #
aggregate_geombuild_attribute-aggregate_geombuild_base_attribute-aggregate_body_attribute-attrib_HH-attrib $-1 $197 $90 $0 #
pid_name-sg-attrib $-1 $-1 $93 $44 7 rwilson 784252905 1024 1 #
attrib_hh_face_geombuild-attrib_entity_geombuild-individual_entity_attribute-attrib_HH-attrib $-1 $198 $94 $65 F #
model_id-kcp-attrib $-1 $199 $-1 $95 1 1017695994 110 -2123497471 8 #
loop $-1 $-1 $200 $95 #
plane-surface $-1 0 0 0 0 0 1 1 0 0 forward_v I I I I #
loop $-1 $-1 $201 $65 #
coedge $202 $141 $141 $200 $203 forward $96 $-1 #
coedge $204 $142 $142 $201 $205 reversed $98 $-1 #
attrib_hh_coedge_geombuild-attrib_entity_geombuild-individual_entity_attribute-attrib_HH-attrib $-1 $-1 $-1 $99 F #
edge $206 $207 -3.1415926535897931 $207 3.1415926535897931 $99 $208 forward 7 unknown #
attrib_hh_coedge_geombuild-attrib_entity_geombuild-individual_entity_attribute-attrib_HH-attrib $-1 $-1 $-1 $100 F #
convexity-sys-attrib $-1 $209 $102 $71 #
attrib_hh_vertex_geombuild-attrib_entity_geombuild-individual_entity_attribute-attrib_HH-attrib $-1 $-1 $-1 $103 F #
point $-1 -0.016924999999999999 2.0726462538443701e-018 0.1595 #
face $-1 $210 $211 $25 $-1 $212 reversed single #
loop $-1 $-1 $213 $105 #
plane-surface $-1 -0.019924999999999998 0 0 1 0 0 0 0 -1 forward_v I I I I #
coedge $-1 $214 $160 $215 $216 forward $106 $-1 #
coedge $-1 $217 $108 $214 $218 forward $74 $-1 #
coedge $-1 $108 $217 $219 $220 forward $74 $-1 #
coedge $-1 $163 $162 $108 $156 reversed $164 $-1 #
edge $-1 $221 -0.019924999999999998 $222 0.019924999999999998 $155 $223 forward 7 unknown #
coedge $-1 $110 $109 $224 $225 forward $50 $-1 #
coedge $-1 $226 $227 $109 $159 reversed $211 $-1 #
edge $-1 $166 -0.019924999999999998 $228 0.019924999999999998 $158 $229 forward 7 unknown #
coedge $-1 $152 $230 $110 $161 reversed $106 $-1 #
edge $-1 $231 -0.019924999999999998 $165 0.019924999999999998 $160 $232 forward 7 unknown #
coedge $-1 $155 $111 $230 $233 forward $164 $-1 #
coedge $-1 $111 $155 $226 $234 reversed $164 $-1 #
loop $-1 $-1 $162 $210 #
vertex $-1 $112 $235 #
vertex $-1 $112 $236 #
straight-curve $-1 0.019924999999999998 0 0.079750000000000001 0 1 0 I I #
loop $-1 $-1 $237 $77 #
coedge $-1 $169 $169 $237 $238 reversed $115 $-1 #
edge $-1 $239 0 $239 6.2831853071795862 $116 $240 forward 7 unknown #
vertex $-1 $119 $241 #
ellipse-curve $-1 0 0 0.0015000000000000013 0 0 -1 0.016924999999999888 0 0 1 I I #
loop $-1 $-1 $242 $82 #
coedge $-1 $174 $174 $242 $243 reversed $122 $-1 #
edge $-1 $244 0 $244 6.2831853071795862 $123 $245 forward 7 unknown #
vertex $-1 $126 $246 #
ellipse-curve $-1 0 0 0.0015000000000000013 0 0 -1 0.01692500000000019 0 0 1 I I #
face $-1 $247 $248 $31 $-1 $249 reversed single #
loop $-1 $-1 $250 $127 #
coedge $-1 $251 $252 $253 $254 reversed $128 $-1 #
coedge $-1 $255 $129 $256 $257 reversed $88 $-1 #
coedge $-1 $129 $255 $89 $133 forward $88 $-1 #
coedge $-1 $258 $259 $129 $184 forward $260 $-1 #
edge $-1 $261 -3.1415926535897931 $195 -1.5707963267948968 $183 $262 forward 7 unknown #
coedge $-1 $131 $130 $252 $263 forward $59 $-1 #
coedge $-1 $264 $265 $130 $187 forward $266 $-1 #
edge $-1 $267 2.4492127076447565e-016 $194 1.5707963267948968 $186 $268 forward 7 unknown #
coedge $-1 $269 $270 $131 $189 forward $271 $-1 #
edge $-1 $195 -1.5707963267948968 $272 -2.4492127076447565e-016 $188 $262 forward 7 unknown #
coedge $-1 $273 $132 $270 $274 reversed $193 $-1 #
coedge $-1 $132 $273 $264 $275 reversed $193 $-1 #
coedge $-1 $276 $277 $182 $133 reversed $278 $-1 #
loop $-1 $-1 $132 $279 #
vertex $-1 $275 $280 #
vertex $-1 $281 $282 #
straight-curve $-1 2.2410554911729587e-034 0.019924999999999998 0.079750000000000001 0 0 1 I I #
aggregate_stitch_attribute-aggregate_stitch_base_attribute-aggregate_body_attribute-attrib_HH-attrib $-1 $283 $134 $0 F #
pid_name-sg-attrib $-1 $-1 $136 $65 7 rwilson 784252905 1025 1 #
model_id-kcp-attrib $-1 $284 $137 $95 1 1017695994 110 -2123497471 6 #
coedge $285 $200 $200 $141 $203 reversed $138 $-1 #
coedge $286 $201 $201 $142 $205 forward $140 $-1 #
attrib_hh_coedge_geombuild-attrib_entity_geombuild-individual_entity_attribute-attrib_HH-attrib $-1 $-1 $-1 $141 F #
edge $287 $288 -3.14159265358979 $288 3.1415926535897962 $200 $289 forward 7 unknown #
attrib_hh_coedge_geombuild-attrib_entity_geombuild-individual_entity_attribute-attrib_HH-attrib $-1 $-1 $-1 $142 F #
edge $290 $291 -6.2831853071795862 $291 0 $142 $292 reversed 7 unknown #
attrib_edge_convexity-kcp-attrib $-1 $293 $-1 $144 1 #
vertex $294 $144 $295 #
ellipse-curve $-1 0 0 0.1565 0 0 1 0.019924999999999998 0 0 1 I I #
attrib_hh_edge_geombuild-attrib_entity_geombuild-individual_entity_attribute-attrib_HH-attrib $-1 $-1 $146 $71 F #
face $-1 $-1 $164 $25 $-1 $296 reversed single #
loop $-1 $-1 $226 $149 #
plane-surface $-1 0 0.019924999999999998 0 0 -1 0 0 0 -1 forward_v I I I I #
coedge $-1 $297 $224 $227 $298 forward $150 $-1 #
coedge $-1 $230 $152 $153 $218 reversed $106 $-1 #
coedge $-1 $224 $297 $152 $216 reversed $150 $-1 #
edge $-1 $231 -0.079750000000000001 $299 0.079750000000000001 $215 $300 forward 7 unknown #
coedge $-1 $154 $153 $297 $301 forward $74 $-1 #
edge $-1 $222 -0.019924999999999998 $299 0.019924999999999998 $214 $302 forward 7 unknown #
coedge $-1 $227 $226 $154 $220 reversed $211 $-1 #
edge $-1 $303 -0.019924999999999998 $221 0.019924999999999998 $219 $304 forward 7 unknown #
vertex $-1 $156 $305 #
vertex $-1 $233 $306 #
straight-curve $-1 0.019924999999999998 0 -0.079750000000000001 0 -1 0 I I #
coedge $-1 $213 $215 $157 $225 reversed $150 $-1 #
edge $-1 $228 -0.019924999999999998 $231 0.019924999999999998 $224 $307 forward 7 unknown #
coedge $-1 $219 $158 $163 $234 forward $211 $-1 #
coedge $-1 $158 $219 $213 $298 reversed $211 $-1 #
vertex $-1 $159 $308 #
straight-curve $-1 0 0.019924999999999998 0.079750000000000001 -1 0 0 I I #
coedge $-1 $160 $214 $162 $233 reversed $106 $-1 #
vertex $-1 $225 $309 #
straight-curve $-1 0 -0.019924999999999998 0.079750000000000001 1 0 0 I I #
edge $-1 $165 -0.079750000000000001 $222 0.079750000000000001 $162 $310 forward 7 unknown #
edge $-1 $166 -0.079750000000000001 $221 0.079750000000000001 $163 $311 forward 7 unknown #
point $-1 0.019924999999999998 -0.019924999999999998 0.079750000000000001 #
point $-1 0.019924999999999998 0.019924999999999998 0.079750000000000001 #
coedge $-1 $237 $237 $169 $238 forward $168 $-1 #
edge $-1 $312 0 $312 6.2831853071795862 $237 $313 forward 7 unknown #
vertex $-1 $170 $314 #
ellipse-curve $-1 0 0 -0.0015000000000000013 0 0 -1 0.019924999999999998 0 0 1 I I #
point $-1 -0.016924999999999888 2.0726462538443597e-018 0.0015000000000000013 #
coedge $-1 $242 $242 $174 $243 forward $173 $-1 #
edge $-1 $315 0 $315 6.2831853071795862 $242 $316 forward 7 unknown #
vertex $-1 $175 $317 #
ellipse-curve $-1 0 0 -0.0015000000000000018 0 0 -1 0.019924999999999998 0 0 1 I I #
point $-1 -0.01692500000000019 2.0726462538443967e-018 0.0015000000000000013 #
face $-1 $318 $278 $31 $-1 $319 reversed single #
loop $-1 $-1 $320 $178 #
plane-surface $-1 0.019924999999999998 0 0 -1 0 0 0 0 1 forward_v I I I I #
coedge $-1 $321 $322 $323 $324 reversed $179 $-1 #
coedge $-1 $325 $180 $322 $326 forward $128 $-1 #
coedge $-1 $180 $325 $327 $263 reversed $128 $-1 #
coedge $-1 $328 $329 $180 $254 forward $330 $-1 #
edge $-1 $331 -1.5707963267948963 $267 2.4492127076447565e-016 $253 $268 forward 7 unknown #
coedge $-1 $182 $181 $332 $333 reversed $88 $-1 #
coedge $-1 $334 $335 $336 $257 forward $337 $-1 #
edge $-1 $338 -0.1595 $261 0 $256 $339 forward 7 unknown #
coedge $-1 $259 $183 $277 $281 forward $260 $-1 #
coedge $-1 $183 $258 $334 $340 forward $260 $-1 #
loop $-1 $-1 $183 $341 #
vertex $-1 $342 $343 #
ellipse-curve $-1 2.2410554911729587e-034 0 0.079750000000000001 0 0 -1 0.019924999999999998 -4.8800563199821768e-018 0 1 I I #
edge $-1 $267 -0.1595 $272 0 $327 $344 forward 7 unknown #
coedge $-1 $265 $186 $191 $275 forward $266 $-1 #
coedge $-1 $186 $264 $345 $346 forward $266 $-1 #
loop $-1 $-1 $186 $347 #
vertex $-1 $348 $349 #
ellipse-curve $-1 2.2410554911729587e-034 0 -0.079750000000000001 0 0 1 0.019924999999999998 -4.8800563199821768e-018 0 1 I I #
coedge $-1 $270 $188 $350 $351 forward $271 $-1 #
coedge $-1 $188 $269 $190 $274 forward $271 $-1 #
loop $-1 $-1 $188 $352 #
vertex $-1 $351 $353 #
coedge $-1 $191 $190 $354 $355 forward $193 $-1 #
edge $-1 $356 -0.019924999999999998 $195 -2.2410554911729587e-034 $190 $357 forward 7 unknown #
edge $-1 $194 2.2410554911729587e-034 $358 0.019924999999999998 $191 $359 forward 7 unknown #
coedge $-1 $360 $192 $361 $362 reversed $278 $-1 #
coedge $-1 $192 $360 $258 $281 reversed $278 $-1 #
loop $-1 $-1 $192 $247 #
face $-1 $363 $193 $31 $-1 $319 reversed single #
point $-1 2.2410554911729587e-034 0.019924999999999998 -0.079750000000000001 #
edge $-1 $195 -2.2410554911729587e-034 $364 0.019924999999999998 $277 $357 forward 7 unknown #
point $-1 2.2410554911729587e-034 0.019924999999999998 0.079750000000000001 #
aggregate_simgeom_attribute-aggregate_simgeom_base_attribute-aggregate_body_attribute-attrib_HH-attrib $-1 $-1 $197 $0 F #
attrib_hh_face_geombuild-attrib_entity_geombuild-individual_entity_attribute-attrib_HH-attrib $-1 $365 $199 $95 F #
attrib_hh_coedge_geombuild-attrib_entity_geombuild-individual_entity_attribute-attrib_HH-attrib $-1 $-1 $-1 $200 F #
attrib_hh_coedge_geombuild-attrib_entity_geombuild-individual_entity_attribute-attrib_HH-attrib $-1 $-1 $-1 $201 F #
attrib_edge_convexity-kcp-attrib $-1 $366 $-1 $203 1 #
vertex $367 $203 $368 #
ellipse-curve $-1 0 0 -3.46944695195361e-018 2.0498948017451201e-016 0 1 -0.016924999999999999 0 3.46944695195361e-018 1 I I #
attrib_edge_convexity-kcp-attrib $-1 $369 $-1 $205 1 #
vertex $370 $205 $371 #
ellipse-curve $-1 0 0 0.0030000000000000001 0 0 1 -0.019924999999999998 2.4400281599910899e-018 0 1 I I #
convexity-sys-attrib $-1 $372 $206 $144 #
attrib_hh_vertex_geombuild-attrib_entity_geombuild-individual_entity_attribute-attrib_HH-attrib $-1 $-1 $-1 $207 F #
point $-1 -0.019924999999999998 2.4400281599910899e-018 0.1565 #
plane-surface $-1 0.019924999999999998 0 0 -1 0 0 0 0 1 forward_v I I I I #
coedge $-1 $215 $213 $217 $301 reversed $150 $-1 #
edge $-1 $228 -0.079750000000000001 $303 0.079750000000000001 $227 $373 forward 7 unknown #
vertex $-1 $301 $374 #
straight-curve $-1 -0.019924999999999998 -0.019924999999999998 0 0 0 -1 I I #
edge $-1 $299 -0.019924999999999998 $303 0.019924999999999998 $297 $375 forward 7 unknown #
straight-curve $-1 0 -0.019924999999999998 -0.079750000000000001 -1 0 0 I I #
vertex $-1 $220 $376 #
straight-curve $-1 0 0.019924999999999998 -0.079750000000000001 1 0 0 I I #
point $-1 0.019924999999999998 0.019924999999999998 -0.079750000000000001 #
point $-1 0.019924999999999998 -0.019924999999999998 -0.079750000000000001 #
straight-curve $-1 -0.019924999999999998 0 0.079750000000000001 0 -1 0 I I #
point $-1 -0.019924999999999998 0.019924999999999998 0.079750000000000001 #
point $-1 -0.019924999999999998 -0.019924999999999998 0.079750000000000001 #
straight-curve $-1 0.019924999999999998 -0.019924999999999998 0 0 0 -1 I I #
straight-curve $-1 0.019924999999999998 0.019924999999999998 0 0 0 -1 I I #
vertex $-1 $238 $377 #
ellipse-curve $-1 0 0 0.0015000000000000013 0 0 1 0.019924999999999998 0 0 1 I I #
point $-1 0.019924999999999998 0 -0.0015000000000000013 #
vertex $-1 $243 $378 #
ellipse-curve $-1 0 0 0.0015000000000000018 0 0 1 0.019924999999999998 0 0 1 I I #
point $-1 0.019924999999999998 0 -0.0015000000000000018 #
face $-1 $379 $380 $31 $-1 $381 reversed single #
plane-surface $-1 0 0.019924999999999998 0 0 -1 0 0 0 -1 forward_v I I I I #
coedge $-1 $345 $350 $185 $263 reversed $248 $-1 #
coedge $-1 $382 $250 $181 $257 forward $179 $-1 #
coedge $-1 $250 $382 $383 $326 reversed $179 $-1 #
coedge $-1 $384 $385 $250 $324 forward $386 $-1 #
edge $-1 $338 -3.1415926535897931 $331 -1.5707963267948963 $323 $268 forward 7 unknown #
coedge $-1 $252 $251 $387 $388 reversed $128 $-1 #
edge $-1 $331 -0.1595 $389 0 $383 $390 forward 7 unknown #
coedge $-1 $391 $392 $320 $263 forward $393 $-1 #
coedge $-1 $329 $253 $392 $348 forward $330 $-1 #
coedge $-1 $253 $328 $394 $395 forward $330 $-1 #
loop $-1 $-1 $253 $396 #
vertex $-1 $397 $398 #
coedge $-1 $399 $361 $255 $333 forward $400 $-1 #
edge $-1 $194 1.5707963267948968 $338 3.1415926535897931 $332 $268 forward 7 unknown #
coedge $-1 $401 $256 $259 $340 reversed $337 $-1 #
coedge $-1 $256 $401 $399 $402 reversed $337 $-1 #
coedge $-1 $403 $404 $321 $257 reversed $380 $-1 #
loop $-1 $-1 $256 $405 #
vertex $-1 $402 $406 #
straight-curve $-1 -0.019924999999999998 0 0.079750000000000001 0 0 1 I I #
edge $-1 $364 -0.019924999999999998 $261 0 $334 $407 forward 7 unknown #
face $-1 $352 $260 $31 $-1 $408 forward single #
edge $-1 $261 0 $409 0.019924999999999998 $404 $407 forward 7 unknown #
point $-1 -0.019924999999999998 0 0.079750000000000001 #
straight-curve $-1 0.019924999999999998 0 0.079750000000000001 0 0 1 I I #
coedge $-1 $354 $320 $265 $346 reversed $248 $-1 #
edge $-1 $358 -0.019924999999999998 $267 0 $345 $410 forward 7 unknown #
face $-1 $411 $266 $31 $-1 $412 reversed single #
edge $-1 $267 0 $413 0.019924999999999998 $392 $410 forward 7 unknown #
point $-1 0.019924999999999998 0 -0.079750000000000001 #
coedge $-1 $320 $354 $269 $351 reversed $248 $-1 #
edge $-1 $272 0 $356 0.019924999999999998 $350 $414 forward 7 unknown #
face $-1 $415 $271 $31 $-1 $408 forward single #
point $-1 0.019924999999999998 0 0.079750000000000001 #
coedge $-1 $350 $345 $273 $355 reversed $248 $-1 #
edge $-1 $356 -0.079750000000000001 $358 0.079750000000000001 $354 $416 forward 7 unknown #
vertex $-1 $351 $417 #
straight-curve $-1 0 0.019924999999999998 0.079750000000000001 -1 0 0 I I #
vertex $-1 $346 $418 #
straight-curve $-1 0 0.019924999999999998 -0.079750000000000001 1 0 0 I I #
coedge $-1 $277 $276 $401 $419 reversed $278 $-1 #
coedge $-1 $332 $399 $276 $362 forward $400 $-1 #
edge $-1 $420 -0.019924999999999998 $194 2.2410554911729587e-034 $276 $359 forward 7 unknown #
face $-1 $-1 $393 $31 $-1 $249 reversed single #
vertex $-1 $281 $421 #
pid_name-sg-attrib $-1 $-1 $284 $95 7 rwilson 784252905 1026 1 #
convexity-sys-attrib $-1 $422 $287 $203 #
attrib_hh_vertex_geombuild-attrib_entity_geombuild-individual_entity_attribute-attrib_HH-attrib $-1 $-1 $-1 $288 F #
point $-1 0.016924999999999999 5.5984386506009706e-017 0 #
convexity-sys-attrib $-1 $423 $290 $205 #
attrib_hh_vertex_geombuild-attrib_entity_geombuild-individual_entity_attribute-attrib_HH-attrib $-1 $-1 $-1 $291 F #
point $-1 -0.019924999999999998 2.4400281599910899e-018 0.0030000000000000001 #
attrib_hh_edge_geombuild-attrib_entity_geombuild-individual_entity_attribute-attrib_HH-attrib $-1 $-1 $293 $144 F #
straight-curve $-1 -0.019924999999999998 0.019924999999999998 0 0 0 -1 I I #
point $-1 -0.019924999999999998 -0.019924999999999998 -0.079750000000000001 #
straight-curve $-1 -0.019924999999999998 0 -0.079750000000000001 0 1 0 I I #
point $-1 -0.019924999999999998 0.019924999999999998 -0.079750000000000001 #
point $-1 0.019924999999999998 0 0.0015000000000000013 #
point $-1 0.019924999999999998 0 0.0015000000000000018 #
face $-1 $341 $424 $31 $-1 $408 forward single #
loop $-1 $-1 $336 $318 #
plane-surface $-1 -0.019924999999999998 0 0 1 0 0 0 0 -1 forward_v I I I I #
coedge $-1 $322 $321 $425 $426 reversed $179 $-1 #
coedge $-1 $427 $428 $429 $326 forward $430 $-1 #
coedge $-1 $385 $323 $428 $397 forward $386 $-1 #
coedge $-1 $323 $384 $403 $431 forward $386 $-1 #
loop $-1 $-1 $323 $432 #
coedge $-1 $433 $434 $325 $388 forward $435 $-1 #
edge $-1 $272 -2.4492127076447565e-016 $389 1.5707963267948963 $387 $262 forward 7 unknown #
vertex $-1 $436 $437 #
straight-curve $-1 2.2410554911729587e-034 -0.019924999999999998 0.079750000000000001 0 0 1 I I #
coedge $-1 $438 $327 $434 $439 reversed $393 $-1 #
coedge $-1 $327 $438 $328 $348 reversed $393 $-1 #
loop $-1 $-1 $327 $363 #
coedge $-1 $440 $429 $329 $395 reversed $441 $-1 #
edge $-1 $413 -0.019924999999999998 $331 -2.2410554911729587e-034 $394 $442 forward 7 unknown #
face $-1 $347 $330 $31 $-1 $412 reversed single #
edge $-1 $331 -2.2410554911729587e-034 $443 0.019924999999999998 $428 $442 forward 7 unknown #
point $-1 2.2410554911729587e-034 -0.019924999999999998 -0.079750000000000001 #
coedge $-1 $361 $332 $335 $402 forward $400 $-1 #
loop $-1 $-1 $332 $411 #
coedge $-1 $335 $334 $360 $419 forward $337 $-1 #
edge $-1 $338 0 $420 0.019924999999999998 $335 $444 forward 7 unknown #
coedge $-1 $445 $336 $385 $431 reversed $380 $-1 #
coedge $-1 $336 $445 $446 $342 reversed $380 $-1 #
face $-1 $279 $337 $31 $-1 $381 reversed single #
point $-1 -0.019924999999999998 0 -0.079750000000000001 #
straight-curve $-1 -0.019924999999999998 0 0.079750000000000001 0 -1 0 I I #
plane-surface $-1 0 0 0.079750000000000001 0 0 1 1 0 0 forward_v I I I I #
vertex $-1 $342 $447 #
straight-curve $-1 0.019924999999999998 0 -0.079750000000000001 0 -1 0 I I #
face $-1 $448 $400 $31 $-1 $412 reversed single #
plane-surface $-1 0 0 -0.079750000000000001 0 0 1 1 0 0 forward_v I I I I #
vertex $-1 $449 $450 #
straight-curve $-1 0.019924999999999998 0 0.079750000000000001 0 1 0 I I #
face $-1 $451 $435 $31 $-1 $408 forward single #
straight-curve $-1 0.019924999999999998 0.019924999999999998 0 0 0 -1 I I #
point $-1 0.019924999999999998 0.019924999999999998 0.079750000000000001 #
point $-1 0.019924999999999998 0.019924999999999998 -0.079750000000000001 #
edge $-1 $364 -0.079750000000000001 $420 0.079750000000000001 $360 $452 forward 7 unknown #
vertex $-1 $362 $453 #
point $-1 -0.019924999999999998 0.019924999999999998 0.079750000000000001 #
attrib_hh_edge_geombuild-attrib_entity_geombuild-individual_entity_attribute-attrib_HH-attrib $-1 $-1 $366 $203 F #
attrib_hh_edge_geombuild-attrib_entity_geombuild-individual_entity_attribute-attrib_HH-attrib $-1 $-1 $369 $205 F #
loop $-1 $-1 $425 $379 #
coedge $-1 $446 $454 $382 $426 forward $424 $-1 #
edge $-1 $389 1.5707963267948963 $261 3.1415926535897931 $425 $262 forward 7 unknown #
coedge $-1 $455 $383 $454 $456 reversed $430 $-1 #
coedge $-1 $383 $455 $384 $397 reversed $430 $-1 #
coedge $-1 $394 $457 $251 $326 reversed $441 $-1 #
loop $-1 $-1 $383 $448 #
edge $-1 $443 -0.019924999999999998 $338 0 $403 $444 forward 7 unknown #
face $-1 $396 $386 $31 $-1 $412 reversed single #
coedge $-1 $434 $387 $457 $436 forward $435 $-1 #
coedge $-1 $387 $433 $391 $439 forward $435 $-1 #
loop $-1 $-1 $387 $415 #
edge $-1 $389 2.2410554911729587e-034 $458 0.019924999999999998 $457 $459 forward 7 unknown #
point $-1 2.2410554911729587e-034 -0.019924999999999998 0.079750000000000001 #
coedge $-1 $392 $391 $440 $449 forward $393 $-1 #
edge $-1 $458 -0.019924999999999998 $272 0 $391 $414 forward 7 unknown #
coedge $-1 $457 $394 $438 $449 reversed $441 $-1 #
loop $-1 $-1 $429 $451 #
straight-curve $-1 0 -0.019924999999999998 -0.079750000000000001 -1 0 0 I I #
vertex $-1 $431 $460 #
straight-curve $-1 -0.019924999999999998 0 -0.079750000000000001 0 1 0 I I #
coedge $-1 $404 $403 $455 $461 reversed $380 $-1 #
coedge $-1 $454 $425 $404 $342 forward $424 $-1 #
point $-1 -0.019924999999999998 -0.019924999999999998 0.079750000000000001 #
face $-1 $405 $430 $31 $-1 $462 reversed single #
edge $-1 $458 -0.079750000000000001 $413 0.079750000000000001 $438 $463 forward 7 unknown #
point $-1 0.019924999999999998 -0.019924999999999998 -0.079750000000000001 #
face $-1 $432 $441 $31 $-1 $462 reversed single #
straight-curve $-1 -0.019924999999999998 0.019924999999999998 0 0 0 -1 I I #
point $-1 -0.019924999999999998 0.019924999999999998 -0.079750000000000001 #
coedge $-1 $425 $446 $427 $456 forward $424 $-1 #
coedge $-1 $428 $427 $445 $461 forward $430 $-1 #
edge $-1 $409 -0.019924999999999998 $389 2.2410554911729587e-034 $427 $459 forward 7 unknown #
coedge $-1 $429 $440 $433 $436 reversed $441 $-1 #
vertex $-1 $439 $464 #
straight-curve $-1 0 -0.019924999999999998 0.079750000000000001 1 0 0 I I #
point $-1 -0.019924999999999998 -0.019924999999999998 -0.079750000000000001 #
edge $-1 $409 -0.079750000000000001 $443 0.079750000000000001 $445 $465 forward 7 unknown #
plane-surface $-1 0 -0.019924999999999998 0 0 1 0 0 0 1 forward_v I I I I #
straight-curve $-1 0.019924999999999998 -0.019924999999999998 0 0 0 -1 I I #
point $-1 0.019924999999999998 -0.019924999999999998 0.079750000000000001 #
straight-curve $-1 -0.019924999999999998 -0.019924999999999998 0 0 0 -1 I I #
End-of-ACIS-data 