105 51 1 0                              
body $-1 $1 $-1 $2 #
lump $-1 $-1 $3 $0 #
transform $-1 1 0 0 0 1 0 0 0 1 0 0 0 1 0 0 0 #
shell $-1 $-1 $-1 $4 $1 #
face $5 $6 $7 $3 $-1 $8 forward single #
pid_name-sg-attrib $-1 $-1 $-1 $4 7 114 119 105 108 115 111 110 784252905 1022 1 #
face $9 $10 $11 $3 $-1 $12 forward single #
loop $-1 $-1 $13 $4 #
plane-surface $-1 0 0 0.1595 0 0 1 1 0 0 0 #
pid_name-sg-attrib $-1 $-1 $-1 $6 7 114 119 105 108 115 111 110 784252905 1023 1 #
face $14 $15 $16 $3 $-1 $17 forward single #
loop $-1 $18 $19 $6 #
cone-surface $-1 0 0 -0.823575 0 0 -1 0.999999999999998 0 0 1 0.707106781186547 0.707106781186548 0 #
coedge $-1 $13 $13 $19 $20 1 $7 $-1 #
pid_name-sg-attrib $-1 $-1 $-1 $10 7 114 119 105 108 115 111 110 784252905 1024 1 #
face $21 $22 $23 $3 $-1 $24 forward single #
loop $-1 $25 $26 $10 #
cone-surface $-1 0 0 0 0 0 1 0.019925 0 0 1 0 1 0 #
loop $-1 $-1 $27 $6 #
coedge $-1 $19 $19 $13 $20 0 $11 $-1 #
edge $-1 $28 $28 $13 $29 1 #
pid_name-sg-attrib $-1 $-1 $-1 $15 7 114 119 105 108 115 111 110 784252905 1025 1 #
face $30 $-1 $31 $3 $-1 $32 reversed single #
loop $-1 $33 $34 $15 #
cone-surface $-1 0 0 0.983075 0 0 1 1 0 0 1 0.707106781186547 0.707106781186548 0 #
loop $-1 $-1 $35 $10 #
coedge $-1 $26 $26 $27 $36 1 $16 $-1 #
coedge $-1 $27 $27 $26 $36 0 $18 $-1 #
vertex $-1 $20 $37 #
ellipse-curve $-1 0 0 0.1595 0 0 1 -0.016925 0 0 1 #
pid_name-sg-attrib $-1 $-1 $-1 $22 7 114 119 105 108 115 111 110 784252905 1026 1 #
loop $-1 $-1 $38 $22 #
plane-surface $-1 0 0 0 0 0 1 1 0 0 0 #
loop $-1 $-1 $39 $15 #
coedge $-1 $34 $34 $38 $40 0 $23 $-1 #
coedge $-1 $35 $35 $39 $41 1 $25 $-1 #
edge $-1 $42 $42 $26 $43 0 #
point $-1 -0.016925 2.07264625384437e-18 0.1595 #
coedge $-1 $38 $38 $34 $40 1 $31 $-1 #
coedge $-1 $39 $39 $35 $41 0 $33 $-1 #
edge $-1 $44 $44 $38 $45 0 #
edge $-1 $46 $46 $35 $47 1 #
vertex $-1 $36 $48 #
ellipse-curve $-1 0 0 0.1565 0 0 1 0.019925 0 0 1 #
vertex $-1 $40 $49 #
ellipse-curve $-1 0 0 -3.46944695195361e-18 2.04989480174512e-16 0 1 -0.016925 0 3.46944695195361e-18 1 #
vertex $-1 $41 $50 #
ellipse-curve $-1 0 0 0.003 0 0 1 -0.019925 2.44002815999109e-18 0 1 #
point $-1 -0.019925 2.44002815999109e-18 0.1565 #
point $-1 0.016925 5.59843865060097e-17 0 #
point $-1 -0.019925 2.44002815999109e-18 0.003 #
