  0
SECTION
  2
HEADER
  9
$ACADVER
  1
AC1009
  9
$INSBASE
 10
0.0
 20
0.0
 30
0.0
  9
$EXTMIN
 10
0.0
 20
-1.0
 30
0.0
  9
$EXTMAX
 10
8.0
 20
7.0
 30
4.0
  9
$LIMMIN
 10
0.0
 20
0.0
  9
$LIMMAX
 10
12.0
 20
9.0
  9
$ORTHOMODE
 70
     0
  9
$REGENMODE
 70
     1
  9
$FILLMODE
 70
     1
  9
$QTEXTMODE
 70
     0
  9
$MIRRTEXT
 70
     1
  9
$DRAGMODE
 70
     2
  9
$LTSCALE
 40
1.0
  9
$OSMODE
 70
     0
  9
$ATTMODE
 70
     1
  9
$TEXTSIZE
 40
0.2
  9
$TRACEWID
 40
0.05
  9
$TEXTSTYLE
  7
STANDARD
  9
$CLAYER
  8
0
  9
$CELTYPE
  6
BYLAYER
  9
$CECOLOR
 62
   256
  9
$DIMSCALE
 40
1.0
  9
$DIMASZ
 40
0.18
  9
$DIMEXO
 40
0.0625
  9
$DIMDLI
 40
0.38
  9
$DIMRND
 40
0.0
  9
$DIMDLE
 40
0.0
  9
$DIMEXE
 40
0.18
  9
$DIMTP
 40
0.0
  9
$DIMTM
 40
0.0
  9
$DIMTXT
 40
0.18
  9
$DIMCEN
 40
0.09
  9
$DIMTSZ
 40
0.0
  9
$DIMTOL
 70
     0
  9
$DIMLIM
 70
     0
  9
$DIMTIH
 70
     1
  9
$DIMTOH
 70
     1
  9
$DIMSE1
 70
     0
  9
$DIMSE2
 70
     0
  9
$DIMTAD
 70
     0
  9
$DIMZIN
 70
     0
  9
$DIMBLK
  1

  9
$DIMASO
 70
     1
  9
$DIMSHO
 70
     1
  9
$DIMPOST
  1

  9
$DIMAPOST
  1

  9
$DIMALT
 70
     0
  9
$DIMALTD
 70
     2
  9
$DIMALTF
 40
25.4
  9
$DIMLFAC
 40
1.0
  9
$DIMTOFL
 70
     0
  9
$DIMTVP
 40
0.0
  9
$DIMTIX
 70
     0
  9
$DIMSOXD
 70
     0
  9
$DIMSAH
 70
     0
  9
$DIMBLK1
  1

  9
$DIMBLK2
  1

  9
$DIMSTYLE
  2
*UNNAMED
  9
$DIMCLRD
 70
     0
  9
$DIMCLRE
 70
     0
  9
$DIMCLRT
 70
     0
  9
$DIMTFAC
 40
1.0
  9
$DIMGAP
 40
0.09
  9
$LUNITS
 70
     2
  9
$LUPREC
 70
     4
  9
$SKETCHINC
 40
0.1
  9
$FILLETRAD
 40
0.0
  9
$AUNITS
 70
     0
  9
$AUPREC
 70
     0
  9
$MENU
  1
acad
  9
$ELEVATION
 40
0.0
  9
$PELEVATION
 40
0.0
  9
$THICKNESS
 40
0.0
  9
$LIMCHECK
 70
     0
  9
$BLIPMODE
 70
     1
  9
$CHAMFERA
 40
0.0
  9
$CHAMFERB
 40
0.0
  9
$SKPOLY
 70
     0
  9
$TDCREATE
 40
2449378.640999861
  9
$TDUPDATE
 40
2449378.642828379
  9
$TDINDWG
 40
0.0018285185
  9
$TDUSRTIMER
 40
0.0018285185
  9
$USRTIMER
 70
     1
  9
$ANGBASE
 50
0.0
  9
$ANGDIR
 70
     0
  9
$PDMODE
 70
     0
  9
$PDSIZE
 40
0.0
  9
$PLINEWID
 40
0.0
  9
$COORDS
 70
     1
  9
$SPLFRAME
 70
     0
  9
$SPLINETYPE
 70
     6
  9
$SPLINESEGS
 70
     8
  9
$ATTDIA
 70
     0
  9
$ATTREQ
 70
     1
  9
$HANDLING
 70
     1
  9
$HANDSEED
  5
D8
  9
$SURFTAB1
 70
     6
  9
$SURFTAB2
 70
     6
  9
$SURFTYPE
 70
     6
  9
$SURFU
 70
     6
  9
$SURFV
 70
     6
  9
$UCSNAME
  2

  9
$UCSORG
 10
0.0
 20
0.0
 30
0.0
  9
$UCSXDIR
 10
1.0
 20
0.0
 30
0.0
  9
$UCSYDIR
 10
0.0
 20
1.0
 30
0.0
  9
$PUCSNAME
  2

  9
$PUCSORG
 10
0.0
 20
0.0
 30
0.0
  9
$PUCSXDIR
 10
1.0
 20
0.0
 30
0.0
  9
$PUCSYDIR
 10
0.0
 20
1.0
 30
0.0
  9
$USERI1
 70
     0
  9
$USERI2
 70
     0
  9
$USERI3
 70
     0
  9
$USERI4
 70
     0
  9
$USERI5
 70
     0
  9
$USERR1
 40
0.0
  9
$USERR2
 40
0.0
  9
$USERR3
 40
0.0
  9
$USERR4
 40
0.0
  9
$USERR5
 40
0.0
  9
$WORLDVIEW
 70
     1
  9
$SHADEDGE
 70
     3
  9
$SHADEDIF
 70
    70
  9
$TILEMODE
 70
     1
  9
$MAXACTVP
 70
    16
  9
$PINSBASE
 10
0.0
 20
0.0
 30
0.0
  9
$PLIMCHECK
 70
     0
  9
$PEXTMIN
 10
1.000000E+20
 20
1.000000E+20
 30
1.000000E+20
  9
$PEXTMAX
 10
-1.000000E+20
 20
-1.000000E+20
 30
-1.000000E+20
  9
$PLIMMIN
 10
0.0
 20
0.0
  9
$PLIMMAX
 10
12.0
 20
9.0
  9
$UNITMODE
 70
     0
  9
$VISRETAIN
 70
     0
  9
$PLINEGEN
 70
     0
  9
$PSLTSCALE
 70
     1
  9
$TREEDEPTH
 70
  3020
  9
$DWGCODEPAGE
  3
ascii
  0
ENDSEC
  0
SECTION
  2
TABLES
  0
TABLE
  2
VPORT
 70
     2
  0
VPORT
  2
*ACTIVE
 70
     0
 10
0.0
 20
0.0
 11
1.0
 21
1.0
 12
7.896686
 22
4.951264
 13
0.0
 23
0.0
 14
1.0
 24
1.0
 15
0.0
 25
0.0
 16
0.0
 26
0.0
 36
1.0
 17
0.0
 27
0.0
 37
0.0
 40
9.902529
 41
1.594883
 42
50.0
 43
0.0
 44
0.0
 50
0.0
 51
0.0
 71
     0
 72
   100
 73
     1
 74
     1
 75
     0
 76
     0
 77
     0
 78
     0
  0
ENDTAB
  0
TABLE
  2
LTYPE
 70
     1
  0
LTYPE
  2
CONTINUOUS
 70
    64
  3
Solid line
 72
    65
 73
     0
 40
0.0
  0
ENDTAB
  0
TABLE
  2
LAYER
 70
     2
  0
LAYER
  2
0
 70
    64
 62
     7
  6
CONTINUOUS
  0
LAYER
  2
AME_FRZ
 70
    65
 62
     7
  6
CONTINUOUS
  0
ENDTAB
  0
TABLE
  2
STYLE
 70
     1
  0
STYLE
  2
STANDARD
 70
     0
 40
0.0
 41
1.0
 50
0.0
 71
     0
 42
0.2
  3
txt
  4

  0
ENDTAB
  0
TABLE
  2
VIEW
 70
     0
  0
ENDTAB
  0
TABLE
  2
UCS
 70
     0
  0
ENDTAB
  0
TABLE
  2
APPID
 70
     3
  0
APPID
  2
ACAD
 70
    64
  0
APPID
  2
AME_SOL
 70
    64
  0
APPID
  2
AVE_INVOKE
 70
    64
  0
ENDTAB
  0
TABLE
  2
DIMSTYLE
 70
     0
  0
ENDTAB
  0
ENDSEC
  0
SECTION
  2
BLOCKS
  0
BLOCK
  8
0
  5
1
  2
AME_NIL
 70
    64
 10
0.0
 20
0.0
 30
0.0
  1
AME_NIL
  3
AME_NIL
  0
ENDBLK
  8
0
  5
2
  0
BLOCK
  8
0
  5
4
  2
AME_SOL
 70
    64
 10
0.0
 20
0.0
 30
0.0
  1
AME_SOL
  3
AME_SOL
  0
ENDBLK
  8
0
  5
5
  0
BLOCK
  8
0
  5
77
  2
AME_JNK
 70
     0
 10
0.0
 20
0.0
 30
0.0
  1
AME_JNK
  3
AME_JNK
  0
ENDBLK
  8
0
  5
78
  0
BLOCK
  8
0
  5
A1
  2
*U11
 70
    65
 10
0.0
 20
0.0
 30
0.0
  1
*U
  3
*U
  0
LINE
  8
0
 62
     7
  5
A2
 10
8.0
 20
2.0
 30
0.0
 11
8.0
 21
2.0
 31
4.0
1001
AME_SOL
1070
     1
1071
       56
  0
LINE
  8
0
 62
     7
  5
A3
 10
8.0
 20
2.0
 30
4.0
 11
8.0
 21
0.0
 31
4.0
1001
AME_SOL
1070
     1
1071
       55
  0
LINE
  8
0
 62
     7
  5
A4
 10
6.0
 20
2.0
 30
4.0
 11
8.0
 21
2.0
 31
4.0
1001
AME_SOL
1070
     1
1071
       54
  0
LINE
  8
0
 62
     7
  5
A5
 10
0.0
 20
2.0
 30
4.0
 11
2.0
 21
2.0
 31
4.0
1001
AME_SOL
1070
     1
1071
       53
  0
LINE
  8
0
 62
     7
  5
A6
 10
0.0
 20
2.0
 30
0.0
 11
0.0
 21
2.0
 31
4.0
1001
AME_SOL
1070
     1
1071
       52
  0
LINE
  8
0
 62
     7
  5
A7
 10
0.0
 20
2.0
 30
4.0
 11
0.0
 21
0.0
 31
4.0
1001
AME_SOL
1070
     1
1071
       51
  0
LINE
  8
0
 62
     7
  5
A8
 10
0.0
 20
0.0
 30
0.0
 11
0.0
 21
0.0
 31
4.0
1001
AME_SOL
1070
     1
1071
       50
  0
LINE
  8
0
 62
     7
  5
A9
 10
8.0
 20
0.0
 30
4.0
 11
8.0
 21
0.0
 31
0.0
1001
AME_SOL
1070
     1
1071
       49
  0
LINE
  8
0
 62
     7
  5
AA
 10
5.0
 20
0.0
 30
4.0
 11
8.0
 21
0.0
 31
4.0
1001
AME_SOL
1070
     1
1071
       48
  0
LINE
  8
0
 62
     7
  5
AB
 10
0.0
 20
0.0
 30
4.0
 11
3.0
 21
0.0
 31
4.0
1001
AME_SOL
1070
     1
1071
       47
  0
LINE
  8
0
 62
     7
  5
AC
 10
0.0
 20
2.0
 30
0.0
 11
0.0
 21
0.0
 31
0.0
1001
AME_SOL
1070
     1
1071
       46
  0
LINE
  8
0
 62
     7
  5
AD
 10
8.0
 20
0.0
 30
0.0
 11
8.0
 21
2.0
 31
0.0
1001
AME_SOL
1070
     1
1071
       45
  0
LINE
  8
0
 62
     7
  5
AE
 10
2.0
 20
2.0
 30
0.0
 11
0.0
 21
2.0
 31
0.0
1001
AME_SOL
1070
     1
1071
       44
  0
LINE
  8
0
 62
     7
  5
AF
 10
8.0
 20
2.0
 30
0.0
 11
6.0
 21
2.0
 31
0.0
1001
AME_SOL
1070
     1
1071
       43
  0
LINE
  8
0
 62
     7
  5
B0
 10
5.0
 20
0.0
 30
0.0
 11
8.0
 21
0.0
 31
0.0
1001
AME_SOL
1070
     1
1071
       42
  0
LINE
  8
0
 62
     7
  5
B1
 10
0.0
 20
0.0
 30
0.0
 11
3.0
 21
0.0
 31
0.0
1001
AME_SOL
1070
     1
1071
       41
  0
LINE
  8
0
 62
     7
  5
B2
 10
6.0
 20
3.0
 30
0.0
 11
6.0
 21
2.0
 31
0.0
1001
AME_SOL
1070
     1
1071
       40
  0
LINE
  8
0
 62
     7
  5
B3
 10
6.0
 20
2.0
 30
4.0
 11
6.0
 21
2.0
 31
0.0
1001
AME_SOL
1070
     1
1071
       39
  0
LINE
  8
0
 62
     7
  5
B4
 10
6.0
 20
2.0
 30
4.0
 11
6.0
 21
3.0
 31
4.0
1001
AME_SOL
1070
     1
1071
       38
  0
LINE
  8
0
 62
     7
  5
B5
 10
3.0
 20
7.0
 30
0.0
 11
5.0
 21
7.0
 31
0.0
1001
AME_SOL
1070
     1
1071
       37
  0
LINE
  8
0
 62
     7
  5
B6
 10
5.0
 20
7.0
 30
4.0
 11
3.0
 21
7.0
 31
4.0
1001
AME_SOL
1070
     1
1071
       36
  0
LINE
  8
0
 62
     7
  5
B7
 10
2.0
 20
2.0
 30
0.0
 11
2.0
 21
3.0
 31
0.0
1001
AME_SOL
1070
     1
1071
       35
  0
LINE
  8
0
 62
     7
  5
B8
 10
2.0
 20
2.0
 30
0.0
 11
2.0
 21
2.0
 31
4.0
1001
AME_SOL
1070
     1
1071
       34
  0
LINE
  8
0
 62
     7
  5
B9
 10
2.0
 20
3.0
 30
4.0
 11
2.0
 21
2.0
 31
4.0
1001
AME_SOL
1070
     1
1071
       33
  0
LINE
  8
0
 62
     7
  5
BA
 10
3.0
 20
7.0
 30
0.0
 11
3.0
 21
4.0
 31
0.0
1001
AME_SOL
1070
     1
1071
       32
  0
LINE
  8
0
 62
     7
  5
BB
 10
3.0
 20
7.0
 30
4.0
 11
3.0
 21
7.0
 31
0.0
1001
AME_SOL
1070
     1
1071
       31
  0
LINE
  8
0
 62
     7
  5
BC
 10
3.0
 20
4.0
 30
4.0
 11
3.0
 21
7.0
 31
4.0
1001
AME_SOL
1070
     1
1071
       30
  0
LINE
  8
0
 62
     7
  5
BD
 10
5.0
 20
4.0
 30
0.0
 11
5.0
 21
7.0
 31
0.0
1001
AME_SOL
1070
     1
1071
       29
  0
LINE
  8
0
 62
     7
  5
BE
 10
5.0
 20
7.0
 30
0.0
 11
5.0
 21
7.0
 31
4.0
1001
AME_SOL
1070
     1
1071
       28
  0
LINE
  8
0
 62
     7
  5
BF
 10
5.0
 20
7.0
 30
4.0
 11
5.0
 21
4.0
 31
4.0
1001
AME_SOL
1070
     1
1071
       27
  0
ARC
  8
0
 62
     7
  5
C0
 10
2.0
 20
4.0
 30
0.0
 40
1.0
 50
270.0
 51
0.0
1001
AME_SOL
1070
     1
1071
       26
  0
LINE
  8
0
 62
     7
  5
C1
 10
2.0
 20
3.0
 30
0.0
 11
2.0
 21
3.0
 31
4.0
1001
AME_SOL
1070
     1
1071
       25
  0
ARC
  8
0
 62
     7
  5
C2
 10
2.0
 20
4.0
 30
4.0
 40
1.0
 50
270.0
 51
0.0
1001
AME_SOL
1070
     1
1071
       24
  0
LINE
  8
0
 62
     7
  5
C3
 10
3.0
 20
4.0
 30
0.0
 11
3.0
 21
4.0
 31
4.0
1001
AME_SOL
1070
     1
1071
       23
  0
ARC
  8
0
 62
     7
  5
C4
 10
6.0
 20
4.0
 30
0.0
 40
1.0
 50
180.0
 51
270.0
1001
AME_SOL
1070
     1
1071
       22
  0
LINE
  8
0
 62
     7
  5
C5
 10
5.0
 20
4.0
 30
0.0
 11
5.0
 21
4.0
 31
4.0
1001
AME_SOL
1070
     1
1071
       21
  0
LINE
  8
0
 62
     7
  5
C6
 10
6.0
 20
3.0
 30
0.0
 11
6.0
 21
3.0
 31
4.0
1001
AME_SOL
1070
     1
1071
       20
  0
ARC
  8
0
 62
     7
  5
C7
 10
6.0
 20
4.0
 30
4.0
 40
1.0
 50
180.0
 51
270.0
1001
AME_SOL
1070
     1
1071
       19
  0
ARC
  8
0
 62
     7
  5
C8
 10
4.0
 20
0.0
 30
0.0
 40
1.0
 50
0.0
 51
180.0
1001
AME_SOL
1070
     1
1071
       18
  0
LINE
  8
0
 62
     7
  5
C9
 10
5.0
 20
0.0
 30
0.0
 11
5.0
 21
0.0
 31
4.0
1001
AME_SOL
1070
     1
1071
       17
  0
LINE
  8
0
 62
     7
  5
CA
 10
3.0
 20
0.0
 30
0.0
 11
3.0
 21
0.0
 31
4.0
1001
AME_SOL
1070
     1
1071
       16
  0
ARC
  8
0
 62
     7
  5
CB
 10
4.0
 20
0.0
 30
4.0
 40
1.0
 50
0.0
 51
180.0
1001
AME_SOL
1070
     1
1071
       15
  0
LINE
  8
0
 62
     7
  5
CC
 10
2.0
 20
3.0
 30
0.0
 11
2.0
 21
3.0
 31
4.0
1001
AME_SOL
1070
     0
1071
        3
  0
LINE
  8
0
 62
     7
  5
CD
 10
3.0
 20
4.0
 30
0.0
 11
3.0
 21
4.0
 31
4.0
1001
AME_SOL
1070
     0
1071
        3
  0
LINE
  8
0
 62
     7
  5
CE
 10
5.0
 20
4.0
 30
0.0
 11
5.0
 21
4.0
 31
4.0
1001
AME_SOL
1070
     0
1071
        2
  0
LINE
  8
0
 62
     7
  5
CF
 10
6.0
 20
3.0
 30
0.0
 11
6.0
 21
3.0
 31
4.0
1001
AME_SOL
1070
     0
1071
        2
  0
LINE
  8
0
 62
     7
  5
D0
 10
3.0
 20
0.0
 30
0.0
 11
3.0
 21
0.0
 31
4.0
1001
AME_SOL
1070
     0
1071
        1
  0
LINE
  8
0
 62
     7
  5
D1
 10
5.0
 20
0.0
 30
0.0
 11
5.0
 21
0.0
 31
4.0
1001
AME_SOL
1070
     0
1071
        1
  0
LINE
  8
0
 62
     7
  5
D2
 10
4.0
 20
1.0
 30
0.0
 11
4.0
 21
1.0
 31
4.0
1001
AME_SOL
1070
     0
1071
        1
  0
ENDBLK
  8
0
  5
D3
  0
ENDSEC
  0
SECTION
  2
ENTITIES
  0
INSERT
  8
AME_FRZ
  5
3
  2
AME_NIL
 10
0.0
 20
0.0
 30
0.0
  0
INSERT
  8
AME_FRZ
  5
6
  2
AME_SOL
 10
0.0
 20
0.0
 30
0.0
1001
AME_SOL
1000
R2.1
1000
AME2
1000
sq cm
1070
     3
1070
     0
1070
     3
1000
wire
1040
45.0
1000
U
1040
1.0
1000
cm
1000
gm
1000
MILD_STEEL
1070
    25
1000
CSG
1070
     1
1070
     3
1070
     3
1070
     3
1070
     0
1000
cu cm
1070
     1
1070
     0
1005
3
  0
INSERT
  8
AME_FRZ
  5
15
  2
AME_NIL
 10
0.0
 20
0.0
 30
0.0
1001
AME_SOL
1002
{
1070
     1
1071
  2419512
1070
  1536
1070
     1
1010
8.0
1020
2.0
1030
4.0
1005
0
1005
0
1005
4B
1040
0.0
1040
1.0
1070
     0
1000
MILD_STEEL
1000
0
1010
0.0
1020
0.0
1030
0.0
1010
0.0
1020
0.0
1030
1.0
1040
0.0
1002
}
1001
AVE_INVOKE
1000
SOLAVEMESH
  0
INSERT
  8
AME_FRZ
  5
26
  2
AME_NIL
 10
2.0
 20
2.0
 30
0.0
1001
AME_SOL
1002
{
1070
     1
1071
  2407832
1070
  1536
1070
     1
1010
4.0
1020
5.0
1030
4.0
1005
0
1005
0
1005
4B
1040
0.0
1040
1.0
1070
     0
1000
MILD_STEEL
1000
0
1010
2.0
1020
2.0
1030
0.0
1010
0.0
1020
0.0
1030
1.0
1040
0.0
1002
}
1001
AVE_INVOKE
1000
SOLAVEMESH
  0
INSERT
  8
AME_FRZ
  5
37
  2
AME_NIL
 10
2.0
 20
4.0
 30
0.0
1001
AME_SOL
1002
{
1070
     1
1071
  2415024
1070
  1536
1070
     1
1010
1.0
1020
3.0
1030
4.0
1005
0
1005
0
1005
4C
1040
0.0
1040
1.0
1070
     0
1000
MILD_STEEL
1000
0
1010
2.0
1020
4.0
1030
0.0
1010
0.0
1020
0.0
1030
1.0
1040
0.0
1002
}
1001
AVE_INVOKE
1000
SOLAVEMESH
  0
INSERT
  8
AME_FRZ
  5
48
  2
AME_NIL
 10
5.0
 20
4.0
 30
0.0
1001
AME_SOL
1002
{
1070
     1
1071
  2404944
1070
  1536
1070
     1
1010
1.0
1020
3.0
1030
4.0
1005
0
1005
0
1005
4C
1040
0.0
1040
1.0
1070
     0
1000
MILD_STEEL
1000
0
1010
5.0
1020
4.0
1030
0.0
1010
0.0
1020
0.0
1030
1.0
1040
0.0
1002
}
1001
AVE_INVOKE
1000
SOLAVEMESH
  0
INSERT
  8
AME_FRZ
  5
4B
  2
AME_NIL
 10
0.0
 20
0.0
 30
0.0
1001
AME_SOL
1002
{
1070
     1
1071
  2468872
1070
   775
1070
     0
1070
     2
1005
15
1005
26
1005
0
1005
0
1005
74
1040
0.0
1040
1.0
1070
     0
1000
MILD_STEEL
1000
0
1010
0.0
1020
0.0
1030
0.0
1010
0.0
1020
0.0
1030
1.0
1040
0.0
1002
}
  0
INSERT
  8
AME_FRZ
  5
4C
  2
AME_NIL
 10
0.0
 20
0.0
 30
0.0
1001
AME_SOL
1002
{
1070
     1
1071
  2475120
1070
   775
1070
     0
1070
     2
1005
37
1005
48
1005
0
1005
0
1005
74
1040
0.0
1040
1.0
1070
     0
1000
MILD_STEEL
1000
0
1010
0.0
1020
0.0
1030
0.0
1010
0.0
1020
0.0
1030
1.0
1040
0.0
1002
}
  0
INSERT
  8
AME_FRZ
  5
74
  2
AME_NIL
 10
0.0
 20
0.0
 30
0.0
1001
AME_SOL
1002
{
1070
     1
1071
  2447736
1070
  1543
1070
     1
1070
     0
1005
4B
1005
4C
1005
0
1005
0
1005
D4
1040
0.0
1040
1.0
1070
     0
1000
MILD_STEEL
1000
0
1010
0.0
1020
0.0
1030
0.0
1010
0.0
1020
0.0
1030
1.0
1040
0.0
1002
}
1001
AVE_INVOKE
1000
SOLAVEMESH
  0
INSERT
  8
AME_FRZ
  5
83
  2
AME_NIL
 10
4.0
 20
0.0
 30
0.0
1001
AME_SOL
1002
{
1070
     1
1071
  2446184
1070
  1538
1070
     1
1010
1.0
1020
1.0
1030
4.0
1005
0
1005
0
1005
9F
1040
0.0
1040
1.0
1070
     0
1000
MILD_STEEL
1000
0
1010
4.0
1020
0.0
1030
0.0
1010
0.0
1020
0.0
1030
1.0
1040
0.0
1002
}
1001
AVE_INVOKE
1000
SOLAVEMESH
  0
INSERT
  8
AME_FRZ
  5
8F
  2
AME_NIL
 10
2.0
 20
4.0
 30
0.0
1001
AME_SOL
1002
{
1070
     1
1071
  2394352
1070
  1538
1070
     1
1010
1.0
1020
1.0
1030
4.0
1005
0
1005
0
1005
9E
1040
0.0
1040
1.0
1070
     0
1000
MILD_STEEL
1000
0
1010
2.0
1020
4.0
1030
0.0
1010
0.0
1020
0.0
1030
1.0
1040
0.0
1002
}
1001
AVE_INVOKE
1000
SOLAVEMESH
  0
INSERT
  8
AME_FRZ
  5
9B
  2
AME_NIL
 10
6.0
 20
4.0
 30
0.0
1001
AME_SOL
1002
{
1070
     1
1071
  2481160
1070
  1538
1070
     1
1010
1.0
1020
1.0
1030
4.0
1005
0
1005
0
1005
9E
1040
0.0
1040
1.0
1070
     0
1000
MILD_STEEL
1000
0
1010
6.0
1020
4.0
1030
0.0
1010
0.0
1020
0.0
1030
1.0
1040
0.0
1002
}
1001
AVE_INVOKE
1000
SOLAVEMESH
  0
INSERT
  8
AME_FRZ
  5
9E
  2
AME_NIL
 10
0.0
 20
0.0
 30
0.0
1001
AME_SOL
1002
{
1070
     1
1071
  2613848
1070
   775
1070
     0
1070
     2
1005
8F
1005
9B
1005
0
1005
0
1005
9F
1040
0.0
1040
1.0
1070
     0
1000
MILD_STEEL
1000
0
1010
0.0
1020
0.0
1030
0.0
1010
0.0
1020
0.0
1030
1.0
1040
0.0
1002
}
  0
INSERT
  8
AME_FRZ
  5
9F
  2
AME_NIL
 10
0.0
 20
0.0
 30
0.0
1001
AME_SOL
1002
{
1070
     1
1071
  2616280
1070
   775
1070
     0
1070
     2
1005
9E
1005
83
1005
0
1005
0
1005
D4
1040
0.0
1040
1.0
1070
     0
1000
MILD_STEEL
1000
0
1010
0.0
1020
0.0
1030
0.0
1010
0.0
1020
0.0
1030
1.0
1040
0.0
1002
}
  0
INSERT
  8
0
  5
D4
  2
*U11
 10
0.0
 20
0.0
 30
0.0
1001
AME_SOL
1002
{
1070
     1
1071
  2619456
1070
  1543
1070
     1
1070
     0
1005
74
1005
9F
1005
0
1005
D5
1005
0
1040
0.0
1040
1.0
1070
     0
1000
MILD_STEEL
1000
0
1002
}
1001
AVE_INVOKE
1000
SOLAVEMESH
  0
INSERT
  8
AME_FRZ
  5
D5
  2
AME_NIL
 10
1.0
 20
1.0
 30
1.0
1001
AME_SOL
1004
C7CF01001F018F018E018C0188018101750166015301C0001C005401400144002D00410190002500840002008201760110006701550142013201170059003301FD00CC00820056017900BC00770168015701E4004301070012002600FE008901FF0083017801690158014401580034014C0009005B005901
1004
7000450148003501ED00F9006A015A01C800E7005B01EB004601360129011B001F002A01F700EC00DF00790118006B0196005C010400A4008D018A0184017A016C0180005D014E00470137010300600038013C002B011E010F016100D8000B0031006D0127005E014801EA00F3004901D900F5007B01BF00
1004
6E0175007F0085017C016F010C005F014A01AF0039014D00F8007800700150006001EE004B010F00A80040008B0186017D0171010A0061014C013A012C011F010E00DB001600F20013008800F0007E012800720162014D01D700C4004E01CE00B00063015F004F013B01DA002D012001100172001A00E000
1004
1500080087017F013F00010080017301140064015001FB00200005007401650151013C01060054003D012100FC0052013E012E0121011900D1002201EF00110198002F002F0123011201A50038001301B100D00024011401B40046001501680047003F013001250116014900B800170101010D0000010201
1004
2A002B002601180103019C002C000401A100300019010501320034000601A6003600310127011A0107013700A900080139003A001B0109013D003E000A014200430028011C010B01B200B3000C0145004A001D010D015200B6000E01E900E800A0000000462188C431F717A3B7CC88B7DF0DD3105DE169F8
1004
E470292A58A4487DA6520B4FC723814982BC9C7C1EDEAB78A893A86002B78A893A86022DDEF4624FADE373B3536192D52C52243ED32905A7E391C0A4F1512750C1E2D52C52243ED32E3C5449D430116ED1884663022916EDF4EEE8C42FF65CFFFFFFFD973FFF117FFFEF7FD973F65CFFFFFF46217FB2E7FF
1004
FFFFECB9FFF88BFFFF7BFECB9FB2E7FFFFECA4A5233CF26FF65CFFFFFFFD973FCCF22222572FF65CFF0CC45C605854C94CDE622E302C2A64A6DDFE1E622E302C2A64A66FFFFC45988B8C0B0A9929B73BFFFF1161BE88E44FA23913BFFFF116A5231DE7937FB2E7FFFFFFECB9FFFBC5FFFF86622E302C2A64
1004
A66F311718161532536EFF0F3117181615325337FFFE22CC45C605854C94DB9DFFFF88B0DF41EF7D11C89DFFFF88B529181E7937FB2E7FFFFFFECB9FE67911112B97FB297F86622E302C2A64A66F311718161532536E77FA948C4339E4DFECB9FFFFFFFB2E7FBBF6FADDEFAB6F4121DFE1988B8C0B0A9929
1004
9BCC45C605854C94DBBFC3CC45C605854C94CDFFFF88B311718161532536E77FFFE22C37D11C89F41EF77FFFE22DE8C49F55949408D47B156DE373B3536192C2D3F1C8E05278A893A86002B78A893A860F16F1512750C045BB4621180C24522DD9BA7746217FB2E7FFFFFFECB9FEEFCE5FE22FFDEFFB2E7E
1004
CB9FFFFFE8C42FF65CFFFFFFFD973FDDF9CBFC45FFBDFF65CFD973FFFFF65252919E7937FB2E7FFFFFFECB9FE29111110A0BFDE2FFC33117181615325337988B8C0B0A9929B73BFD4A463BCF26FF65CFFFFFFFD973FDDF80AFF117FE1988B8C0B0A99299BCC45C605854C94DB9DFEA52303CF26FF65CFFFF
1004
FFFD973FC52222221416EFDBEBFF0CC45C605854C94CDE622E302C2A64A6DDFE1E622E302C2A64A66FFFFC45988B8C0B0A9929B73BFFFF11619863913EA8FB77FFFE22D4A46219CF26FF65CFFFFFFFD973FDDFBC5B7FE22FFC33117181615325337988B8C0B0A9929B77F87988B8C0B0A99299BFFFF11662
1004
2E302C2A64A6DCEFFFFC4586A6F9911863913BFFFF116F4624FA86A77BBED0A47D271BC6E766A6C32585A7E391C0A4D3F1C8E78DF5BC5449D43078B78A893A86022DDA3109A03A2916ECC43A310BFD973FFFFFFF65CFFFEBFC45FFBDFF65CFD973FFFFFD1885FECB9FFFFFFFB2E7FFF5FE22FFDEFFB2E7EC
1004
B9FFFFFB292948CF3C9BFD973FFFFFFF65CFF64888889CFDE2FFC33117181615325337988B8C0B0A9929B73BFD4A463BCF26FF65CFFFFFFFD973FDDFB7D7F88BFF0CC45C605854C94CDE622E302C2A64A6DDFE1E622E302C2A64A66FFFFC45988B8C0B0A9929B73BFFFF1161BEA05222141F32277FFFE22D
1004
4A46079E4DFECB9FFFFFFFB2E7FB2444444E3BF6FAFFC33117181615325337988B8C0B0A9929B77F87988B8C0B0A99299BFFFF116622E302C2A64A6DCEFFFFC4586FAC3EDF5029113BFFFF116A52310CE7937FB2E7FFFFFFECB9FFFB2E37FE22FFC33117181615325337988B8C0B0A9929B73BFDE8C49F4D
1004
DA92811A8F62AD1CDCECD4D95CB0B4FC7238149E2A24EA183C5BC5449D430015BC5449D430116EC14253145148B76C68660A17FFFFFB2E7FFECB9FFFBC5FE22FFDEFFFFFFFFFFE0A17FFFFFB2E7FFECB9FFFBC5FE22FFDEFFFFFFFFFFB293D1893EB78DCECD4D864B47373B3536572C2D3F1C8E05269F8E4
1004
73C6FADE2A24EA1800ADE2A24EA1808B760A131999A916EDF7E433050BFE83F652FE83FA0FE83F652FDBEBFC057F88B7BFFFFFFFFFF8285FF41FB297F41FD07F41FB293BF6FADDF80AFF116F7FFFFFFFFFD949E8C49F5B6906DA6C138DB4836D3609C0B4FC7238149A7E391CF2B62AA24EA1800ADE2A24EA
1004
1808B760A12968681EEF76FAC3EC142FFFFFF65CFFFD973FFFAFFAFFDEFFFFFFFFFFE0A17FFFFFB2E7FFECB9FFFD7FD7FEF7FFFFFFFFFD971E8C49F5B6906DA6C1386ED49408D479B8585A7E391C0A4DED512750C0E5B15512750C0056F1512750C045BB050A873577BB7DE0FB050BFE83FA0FD94BF652FE
1004
83FA0FCE5FE02BFC45BDFFFFFFFFFFC142FFA0FE83F652FD94BFA0FE81DF9CBFC057F88B7BFFFFFFFFFECB8F4624FA67292811A8F1416DB4836D3609C0B4FC7238149BDAA24EA181CB62AA24EA1800ADE2A24EA1808B760A14D06DDEEDF547D8285FF41FB297F41FD07F41FB297E72FF015FE22DEFFFFFFF
1004
FFFE0A17FD07ECA5FD07F41FD07ECA4EFCE5FE02BFC45BDFFFFFFFFFF65C7A312C416DA41B69B04E36D20DB4D82702D3F1C8E0526F6A893A86072D8AA893A86002B0B4FC7238171D8284C66836EF0DF7D3EC142FFFF65CFFFD973FFFFFAFFAFFDEFFFFFFFFFFEDE97BC142FFFF65CFFFD973FFFFFFFFFDEF
1004
FFFFFFFFFE0A17FFFB2E7FFECB9FFFFFFFFFEF7FFFFFFFFFD971E8C4B7E169F8E4702905A7E391C0A4169F8E470293057938F83DBD56169F8E4702E3C5449D430116EC1426319A2BBDDBE83DE0A17FB2E7FFFFFFFFECB9FFFFFEF7FFFFFFFFFF050BFD973FFFFFFFFF65CFFFFFF7BFFFFFFFFFECB8F4624F
1004
A169F8E4702905A7E391C0A4169F8E4702905A7E391C0B8D3F1C8E795BC5449D430116EC1428A636EF7673DE0A17FFFFFB2E7FFECB9FFFFFFFEF7FFFFFFFFFF050BFFFFFD973FFF65CFFFFFFFF7BFFFFFFFFFECB8F4625882DB4836D3609C6DA41B69B04E239B9D9A9B2B96DED512750C0E5B15512750C00
1004
56F1512750C045BB0509A6C8DBBC37DE4FB050BFD94BFA0FE83FA0FD94BFA0FCE5FE02BFC45BDFFFFFFFFFFC507BC142FF652FE83FA0FE83F652FE83F7AAFFAFF116F7FFFFFFFFFF050BFD94BFA0FE83FA0FD94BFA0FDEABFEBFC45BDFFFFFFFFFF65C7A312DF85A7E391C0A4DB4836D3609C0B4FC723814
1004
982BC9C7C1EDEAB69F8E473CADE2A24EA1808B760A1018F915DEED88BDE0A17FD07F41FB297ECA5FD07F41FBD57FD7F88B7BFFFFFFFFFF8285FF41FD07ECA5FB297F41FD07EF55FF5FE22DEFFFFFFFFFFB2E3D1893E99CA4A046A3CDCAC2D3F1C8E0520B4FC723814982BC9C7C1EDEAB69F8E473CADE2A24
1004
EA1808B760A12BDED15DEEDBDBDE0A17FD07ECA5FD07F41FD07ECA5FBD57FD7F88B7BFFFFFFFFFF8285FF41FB297F41FD07F41FB297EF55FF5FE22DEFFFFFFFFFFB2E1FAB378DCECD4D864B0B4FC72381491CDCECD4D95CB78A893A860F16A9629121F69971E2A24EA1808BFF680A047C5E8F9186B0DF34C
1004
00DE96BBB223318115A6C8DE1B4D91B3318115DE4444F9A6FF65CFFFFFFFD973FFF117FFF88B3EFECB9FB2E7FB405023E2F47C8C359FAB378DCECD4D864B0B4FC72381482D3F1C8E05278A893A860F16169F8E4702E3C5449D430117FFF88B0CF2658C9172276663022B18CD170CCC60456319A291113BCF
1004
26FF65CFFFFFFFD973FDDFB7D7F7DB9F6A43BFC3FFFC459FAB378DCECD4D864B0B4FC72381482D3F1C8E05278A893A860F16169F8E4702E3C5449D430117FFF88B0CF26326FA2EEC88CC60456319A2E1B18CD14CC60457791111E4DFECB9FFFFFFFB2E7FFEF17FFFE1FFFE22CFD59BC6E766A6C32585A7E3
1004
91C0A4169F8E470293C5449D43078B54B14890FB4CB8169F8E4702E7FB405023E2F47C8C3586F9A600622D72276663022B19A0DE1998C08AC668364444EF7CD37FB2E7FFFFFFECB9FFF88BFFFF3EFECB9FB2E7FB405023E2F47C8C359FAB2B292811A8F62ADBC6E766A6C325A39B9D9A9B2B96DED512750C
1004
0E5BC5449D43078B78A893A86022DA02811F17A3E461801C05023E2F47C8CF4837CD31990F51776446030915A6C8DE1B4D91B301848AEF22227CD37FB2E7FFFFFFECB9FEEFCE5FE22FF1167DFD973F65C680A047C5E8F918600701408F8BD1F233D23F5633949408D478A0B6F1B9D9A9B0C96169F8E47029
1004
37B5449D430396F1512750C1E2DE2A24EA1808BFFFC4586793199422E44ECC06122CD06F0CC06122CD06C8889DE7937FB2E7FFFFFFECB9FEEFCE5BBF6FAFFC3FFFC459FAB2B292811A8F62AD1CDCECD4D95CB0B4FC7238149E2A24EA183C5BC5449D43078B78A893A86022FFFF11619E4CA6FB222BB76446
1004
0309154C5145C35314514C06122911111111E4DFECB9FFFFFFFB2E7FBBF78BFC45FF87FFF88B3F565652502351EC55B78DCECD4D864B0B4FC7238149BDAA24EA181CB78A893A860F16169F8E4702E3405023E2F47C8C300380A047C5E8F919E906F9A657BEB517227660309158CD06F0CC06122B19A0D911
1004
13BDF34DFECB9FFFFFFFB2E7FBBF397F88BFF3EFECB9FB2E3405023E2F47C8C300380A047C5E8F919E91FAB378DCECD4D864B47373B3536572C2D3F1C8E05269F8E473C6FADE2A24EA183C5BC5449D430117FFF88B0CF267DFDF5E8AEC89DB40745633335C3680E8AC6666A444444447937FB2E7FFFFFFEC
1004
B9FEEFDBEBFC45FF87FFF88B3F566DA41B69B04E378DCECD4D864B47373B3536572DA7E391CF1BEB78A893A860F16F1512750C0459C05023E2F47C8CF4BFC37CD334FB045DD9134074569B23786D3646DA03A2BBC8889F34DFECB9FFFFFFFB2E7FFF5FE22FF1167DFD973F65C380A047C5E8F919E97F9FAB
1004
36D20DB4D8271BC6E766A6C32585A7E391C0A4D3F1C8E795BC5449D43078B78A893A86022FFFF11619E4CD3EF68BBB22680E8AA5A1A07E1A968681ED01D15DE44447937FB2E7FFFFFFECB9FFFD6EFDBEBFF0FFFF1167EACDB4836D3609C6F1B9D9A9B0C96169F8E4702934FC7239E37D6F1512750C1E2C2D
1004
3F1C8E05C380A047C5E8F919E97F86F9A611F60D72276D01D158CD06F0DA03A2B19A0D91113BDF34DFECB9FFFFFFFB2E7FFF5FE22FFCFBFB2E7ECB8701408F8BD1F233D2FF3F56376A4A046A3D8AB47373B3536572D1CDCECD4D95CB78A893A860F16C55449D430015BC5449D4301163911112B800722222
1004
7D24833C980CFB6B5DD91298A28AD3646F0DA6C8DA98A28AEF22223C9BFFFFFD973F652FFFFFDE2DDFB7D7F88B0C72222257000E44444FA491FAB1BB52502351EC5599CA4A046A3CDC2C2D3F1C8E05278A893A860F16C55449D430015BC5449D430117FC03FAC33C9953EDED77644A628A2D0E6B87439AA9
1004
8A28AEF22223C9BFFFD973FFF652FFFFFDE2DDF80AFFAC3FE01FD67EAC6ED49408D47B1568E6E766A6CAE585A7E391C0A4F1512750C1E2D8AA893A86002B0B4FC7238173FAC8888898AB0CF2640FB835DD91298A28AC6683786C66836A628A2BBC8888F26FFFFFF652FD94BFFFFF78BFEBFF0FFAC8888898
1004
AB3F566216E766A6C325A39B9D9A9B2B968E6E766A6CAE5B4FC7239E37D6C55449D430015BC5449D4301167DF6F548722222431619E4C64FA96BBB2263333569B23786D3646D8CCCD5DE44447937FFFFFB2E7ECB9FFFEEFDBEB77E335FE22C33EFB7AA4391111218B3F566216E766A6C32599CA4A046A3CD
1004
C2C2D3F1C8E05269F8E473C6FAD8AA893A86002B78A893A86022FFFF11619E4CFDF726BBB22633335A1CD70E87356333357791111E4DFFFECB9FFFB2E7FFFBBF6FADDF80AFF1161FFFE22CFD59885B9D9A9B0C968E6E766A6CAE585A7E391C0A4D3F1C8E78DF5B15512750C0056169F8E4702E0E4444487A
1004
003911111BD20CF267D5BEE6D77644C6666AC6683786C66836C6666AEF22223C9BFFFFFD94BF65CFFFF77EDF587EA17FE18E4444487A003911111BD23F566DA41B69B04E36D20DB4D82711CDCECD4D95CB69F8E473CAD8AA893A86002B78A893A86022C3F652FF0CF26434DD22E44ED4B4340F69B23786A5
1004
A1A07B4D91B77BBCF26FFFFFF65CFD94BFFFFFAFFAFF116187ECA5FE7EACDB4836D3609C6DA41B69B04E05A7E391C0A4D3F1C8E795B4FC7239E56F1512750C045FF00FEB0CF26347D245DD912968681E063E45C3031F22A968681EEF779E4DFFFECB9FFFB297FFFFF5FF5FF587FC03FACFD59B6906DA6C13
1004
8DB4836D3609C0B4FC7238149A7E391CF2B62AA24EA1800AC2D3F1C8E05CFD971DFD619E4C806B5C89DA968681EC6683786A5A1A07B19A0DBBDDE7937FFFFFB297ECA5FFFFFD7FB2E7F87FB2E3BFACFD59B6906DA6C13867292811A8F370B47373B3536572D88AA24EA181CB62AA24EA1800ADE2A24EA180
1004
8B0FEBFC458679336D135C89DD0E6AD3646F0E873569B236EF779E4DFFFFFECB9FFFB2E7F87E02B77E02BFC45861FD7F88B3F566DA41B69B04E19CA4A046A3CDC2C2D3F1C8E052622A893A86072D8AA893A86002B0B4FC7238173FA01C888889C0CF267ED35C89DD0E6AC6683787439AB19A0DBBDDE7937F
1004
FFFFB297FFECB9FEEFDBEB77E02BFF0FFA01C888889C3F5633949408D478A0B6DA41B69B04E239B9D9A9B2B96C45512750C0E5B15512750C0056F1512750C04591111121801FA969067933EB9F666B913B9A0DB4D91BC39A0DB4D91B77BBCF26FFFFFF65CFD973FFFDDF9CBFC66BFC458644444486007EA5
1004
A47EAC67292811A8F1416DB4836D3609C0B4FC723814988AA24EA181CB69F8E473CADE2A24EA1808BFFFC45867933E99F676BBB229A0D818F9170C0C7C8B341B77BBCF26FFFF65CFFFD973FFFDDF9CBFEBFC4587FFF88B3F5633949408D478A0B6DA41B69B04E05A7E391C0A4C45512750C0E5B15512750C
1004
0056169F8E4702E07EDEAE0E444446E9C0CF26347DA5AE44EE6836C6683787341B63341B77BBCF26FFFFFF652FD973FFFDDF9CB77EA17FE187EDEAE0E444446E9C3F560B4FC72381482D3F1C8E0520B4FC723814982BC9C7C1EDEAB0B4FC72381702D3F1C8E05CFF0FDBEB0CF2652C0AD72276C66836C633
1004
45C363341B6319A2BBDDE7937FFFB297FFFFFFECA5FFFFFE1FF87EDF59FAB05A7E391C0A4169F8E4702905A7E391C0A4C15E4E3E0F6F5585A7E391C0B8169F8E4702E1111113157FBD5619E4CD3E9DAE44ED8CD06D8C668B86C66836C6334577BBCF26FFFF652FFFFFFFD94BFFFFFC322222262AFF7AACFD
1004
582D3F1C8E0526DA41B69B04E05A7E391C0A4C15E4E3E0F6F55B4FC7239E56169F8E4702E7E20007F000CF26303ED6D72276C66836063E45C363341B031F22BBDDE7937FFFB2E7FFFFFFECA5F88BFEBFF0FF10003F801FAB05A7E391C0A4DB4836D3609C0B4FC723814982BC9C7C1EDEAB69F8E473CAC2D3
1004
F1C8E05CFEBFC458679331A1F6B913B63341B031F22E1B19A0D818F915DEEF3C9BFFFD973FFFFFFF652FC45FF5FF87FD7F88B3F565652502351E6E56169F8E4702905A7E391C0A4C15E4E3E0F6F55B4FC7239E56169F8E4702E7ECA5FB2E067933EC5F6C6B913B63341B57BDA2E1B19A0DABDED15DEEF3C9
1004
BFD973FFFFFFFFF652FDEABFD973FC3FD94BF65C3F560B4FC72381482D3F1C8E0520B4FC72381482D3F1C8E05C69F8E473CAC2D3F1C8E05CFE01FD00679331BEE8D72276C6683714C6F0D8CD06E298DBBDDE7937FB297FFFFFFFFECA5FFFFFE1FF00FE80FD582D3F1C8E0520B4FC72381491CDCECD4D95CB
1004
60AF271F07B7AAC2D3F1C8E05C78A893A86022FF1003F6520CF26537DD5AE44ED8C668AD3646F0D8C668AD3646DDEEF3C9BFFFFFD973FFF652FFFC45FFFE22C3FC400FD948FD582D3F1C8E0520B4FC72381491CDCECD4D95CB60AF271F07B7AAC2D3F1C8E05C78A893A86022FF65CFC45867932BDC6B913B
1004
6319A2B4D91BC36319A2B4D91B77BBCF26FFFFFF65CFFFD94BFFF117FFF88B0FF65CFC459FAB2B292811A8F372B0B4FC72381482D3F1C8E05260AF271F07B7AAC2D3F1C8E05C78A893A86022FF807F58679321E56D72276C6334557BDA2E1B18CD155EF68AEF779E4DFECB9FFFFFFFB297FFEF55FFFF587F
1004
C03FACFD582D3F1C8E0520B4FC72381482D3F1C8E0520B4FC72381702D3F1C8E05C78A893A86022FFFF11619E4CDF7DD9AE44ED8C668B14C6F0D8C668B14C6DDEEF3C9BFD94BFFFFFFF652FFFFFFFF0FFFF1167EAC169F8E4702905A7E391C0A48E6E766A6CAE585A7E391C0B8D3F1C8E795BC5449D43011
1004
7FB297ECB819E4CFA97DDDAE44EE298DB4D91BC38A636D3646DDEEF3C9BFFFFFD973F652FFFFFFFD973F1161FECA5FB2E1FAB05A7E391C0A4DB4836D3609C0B4FC72381482D3F1C8E05C69F8E473CADE2A24EA1808BFE01FD619E4CFAE0235C89DC531B031F22E1C531B031F22BBDDE7937FFFB2E7FFECA5
1004
FFFFFFFD7FD61FF00FEB3F560B4FC7238149B6906DA6C1388E6E766A6CAE5B057938F83DBD56D3F1C8E795BC5449D430117FBD401DF9C0019E4CFA67DE9AE44EDA6C8D818F9170DA6C8D818F915DEEF3C9BFFFD973FFFFFFF65CFDEABFEBFC4587FBD401DF9C007EAC169F8E4702936D20DB4D82711CDCEC
1004
D4D95CB60AF271F07B7AADA7E391CF2B78A893A86022C72222224BFA00CF26347D6B5C89DB4D91B031F22E1B4D91B031F22BBDDE7937FFFB2E7FFFFFFECB9FBD57FD7F88B0C72222224BFA03F565652502351E6E56169F8E47029239B9D9A9B2B96C15E4E3E0F6F55B4FC7239E56F1512750C045FFFF5867
1004
93296FAF6B913B69B236AF7B45C369B236AF7B4577BBCF26FF65CFFFFFFFFFD973F7AAFFAFF1161FFFF59FAB2B292811A8F372B6DA41B69B04E05A7E391C0A4C15E4E3E0F6F55B4FC7239E56F1512750C045FE2007F4019E4CFB143C22E44EC0C7C8AAF7B45C3031F22ABDED15DEEF3C9BFD973FFFFFFF65
1004
CFFFDEABFEBFC4587F8801FD03E83E6FB2E3
1005
D6
  0
INSERT
  8
AME_FRZ
  5
D6
  2
AME_NIL
 10
1.0
 20
1.0
 30
1.0
1001
AME_SOL
1004

1005
0
  0
ENDSEC
  0
EOF
