**ABCDEFGHIJKLMNOPQRSTUVWXYZabcdefghijklmnopqrstuvwxyz**************************
**PARASOLID !"#$%&'()*+,-./:;<=>?@[\]^_`{|}~0123456789**************************
**PART1;MC=sun;MC_MODEL=sun3;MC_ID=cosmos;OS=SunOS;OS_RELEASE=4.1;FRU=sdl_paraso
lid_test_sun;APPL=unknown;SITE=sdl-cambridge-u.k.;USER=kramer;FORMAT=text;GUISE=
transmit;KEY=plain_rotor;FILE=plain_rotor.xmt_txt;DATE=3-oct-1991;
**PART2;SCH=SCH_301017_3000;USFLD_SIZE=0;
**PART3;
**END_OF_HEADER*****************************************************************
T50 : TRANSMIT FILE created by modeller version 30101715 SCH_301017_30000 12 1 8
49 0 0 0 0 0 1e3 1e-8 2 2 0 3 0 1 4 102 11 2 plain_rotor13 4 2 0 1 0 5 6 0 7 8 0
 14 5 829 0 9 0 10 4 7 -16 6 790 0 11 0 12 8 54 7 841 0 5 13 0 0 +-5.3 0 .8 0 0
 1 6.18283224233 .75 1 0 0 31 8 793 0 6 14 0 0 +-5.3 0 .05 0 0 1 1 0 0 7.5122035
5269939 31 14 787 0 12 15 8 0 --5.3 0 .02887114363177875 0 0 1 1 0 0 7.605901699
43784 16 12 784 0 16 6 17 14 31 15 765 0 17 18 14 0 --5.3 0 -.02887114363177875
 0 0 -1 -1 0 0 7.60590169943784 16 17 762 0 19 12 20 15 31 18 759 0 20 21 15 0 +
-5.3 0 -.05 0 0 -1 -1 0 0 7.51220355269939 16 20 756 0 22 17 23 18 31 21 621 0 2
3 24 18 0 --5.3 0 -.05 0 0 1 1 0 0 6.65 16 23 618 0 25 20 26 21 31 24 615 0 26 2
7 21 0 +-5.3 0 -.43 0 0 -1 -1 0 0 6.75 16 26 612 0 28 23 29 24 31 27 609 0 29 30
 24 0 +-5.3 0 -.15 0 0 1 1 0 0 6.75 16 29 606 0 31 26 32 27 31 30 603 0 32 33 27
 0 --5.3 0 -.45 0 0 -1 -1 0 0 6.73 16 32 600 0 34 29 35 30 31 33 597 0 35 36 30
 0 --5.3 0 -.5 0 0 1 1 0 0 6.77 16 35 594 0 37 32 38 33 31 36 591 0 38 39 33 0 -
-5.3 0 -.08 0 0 1 1 0 0 6.8 16 38 588 0 40 35 41 36 31 39 585 0 41 42 36 0 +-5.3
 0 -.47 0 0 1 1 0 0 6.8 16 41 582 0 43 38 44 39 31 42 579 0 44 45 39 0 +-5.3 0 -
.05 0 0 1 1 0 0 6.83 16 44 576 0 46 41 47 42 31 45 573 0 47 48 42 0 --5.3 0 -.02
5 0 0 1 1 0 0 8.6 16 47 570 0 49 44 50 45 31 48 567 0 50 51 45 0 --5.3 0 -.325 0
 0 1 1 0 0 8.93386528748337 16 50 564 0 52 47 53 48 31 51 561 0 53 54 48 0 +-5.3
 0 -.481436180271695 0 0 -1 -1 0 0 9.30650762235082 16 53 558 0 55 50 56 51 31 5
4 555 0 56 57 51 0 --5.3 0 -.32740827463546 0 0 -1 -1 0 0 8.94564224343165 16 56
 552 0 58 53 59 54 31 57 549 0 59 60 54 0 --5.3 0 -.547053817055457 0 0 -1 -1 0
 0 9.35470538170555 16 59 546 0 61 56 62 57 31 60 543 0 62 63 57 0 +-5.3 0 .405
 0 0 -1 -1 0 0 9.3 16 62 540 0 64 59 65 60 31 63 537 0 65 66 60 0 --5.3 0 .325 0
 0 -1 -1 0 0 9.22 16 65 534 0 67 62 68 63 31 66 531 0 68 69 63 0 --5.3 0 .025 0
 0 -1 -1 0 0 8.6 16 68 528 0 70 65 71 66 31 69 525 0 71 72 66 0 +-5.3 0 .05 0 0
 -1 -1 0 0 6.67 16 71 522 0 73 68 74 69 31 72 519 0 74 75 69 0 --5.3 0 .07 0 0 -
1 -1 0 0 6.65 16 74 516 0 76 71 77 72 31 75 474 0 77 78 72 0 +-5.3 0 .1875 0 0 1
 1 0 0 5.3 16 77 405 0 79 74 80 75 31 78 473 0 80 81 75 0 +-5.3 0 .1875 0 0 1 1
 0 0 5.75 16 80 400 0 82 77 83 78 31 81 472 0 83 84 78 0 +-5.3 0 .05 0 0 1 1 0 0
 6.18283224233 16 83 395 0 85 80 86 81 31 84 471 0 86 87 81 0 +-5.3 0 .05 0 0 1
 1 0 0 6.35 16 86 390 0 88 83 89 84 31 87 470 0 89 90 84 0 +-5.3 0 .15 0 0 1 1 0
 0 6.55 16 89 385 0 91 86 92 87 31 90 469 0 92 93 87 0 +-5.3 0 .15 0 0 1 1 0 0 6
.65 16 92 380 0 94 89 95 90 31 93 466 0 95 96 90 0 +-5.3 0 .025 0 0 1 1 0 0 7.61
6143782777 16 95 365 0 97 92 98 93 31 96 464 0 98 99 93 0 +-5.3 0 .325 0 0 1 1 0
 0 8.9 16 98 355 0 100 95 101 96 31 99 462 0 101 102 96 0 +-5.3 0 .55 0 0 1 1 0
 0 9.3 16 101 345 0 103 98 104 99 31 102 461 0 104 105 99 0 +-5.3 0 .55 0 0 1 1
 0 0 9.35 16 104 340 0 106 101 107 102 31 105 460 0 107 108 102 0 +-5.3 0 -.6 0
 0 1 1 0 0 9.41 16 107 335 0 109 104 110 105 31 108 459 0 110 111 105 0 +-5.3 0
 -.6 0 0 1 1 0 0 9.36 16 110 330 0 112 107 113 108 31 111 456 0 113 114 108 0 +-
5.3 0 -.325 0 0 1 1 0 0 8.9 16 113 315 0 115 110 116 111 31 114 454 0 116 117 11
1 0 +-5.3 0 -.025 0 0 1 1 0 0 7.616143782777 16 116 305 0 118 113 119 114 31 117
 450 0 119 120 114 0 +-5.3 0 -.5 0 0 1 1 0 0 6.45 16 119 285 0 121 116 122 117 3
1 120 449 0 122 123 117 0 +-5.3 0 -.45 0 0 1 1 0 0 6.45 16 122 280 0 124 119 125
 120 31 123 446 0 125 126 120 0 +-5.3 0 -.05 0 0 1 1 0 0 6.18283224233 16 125 26
5 0 127 122 128 123 31 126 445 0 128 129 123 0 +-5.3 0 -.1875 0 0 1 1 0 0 5.75 1
6 128 260 0 130 125 131 126 31 129 444 0 131 0 126 0 +-5.3 0 -.1875 0 0 1 1 0 0
 5.3 16 131 258 0 132 128 0 129 17 132 133 132 132 0 134 131 15 133 262 0 132 13
5 0 17 134 136 134 134 0 132 131 15 136 505 0 134 137 138 14 137 411 0 139 140 1
36 4 141 -15 138 410 0 79 137 0 17 79 138 79 79 0 142 77 17 142 143 142 142 0 79
 77 15 143 504 0 142 139 144 14 139 408 0 145 137 143 4 146 -15 144 407 0 82 139
 0 17 82 144 82 82 0 147 80 17 147 148 147 147 0 82 80 15 148 831 0 147 5 0 14 1
45 398 0 149 139 150 4 151 -50 146 442 0 139 151 141 0 +.225 0 .1875 0 0 -1 -1 0
 0 50 151 440 0 145 152 146 0 +.966416121165 0 .05 0 0 -1 -1 0 0 51 141 443 0 13
7 146 153 0 +-5.3 0 0 0 0 -1 5.3 -1 0 0 54 153 634 0 140 141 154 0 +-5.3 0 .07 0
 0 -1 6.67 .02 -1 0 0 14 140 629 0 137 155 156 4 153 -54 154 645 0 155 153 157 0
 +-5.3 0 .325 0 0 -1 8.6 .3 -1 0 0 14 155 640 0 140 158 159 4 154 -54 157 656 0
 158 154 160 0 +-5.3 0 .405 0 0 -1 9.22 .08 -1 0 0 14 158 651 0 155 161 162 4 15
7 -54 160 667 0 161 157 163 0 +-5.3 0 -.555014114577137 0 0 -1 9.27510240648874
 .08 -1 0 0 14 161 662 0 158 164 165 4 160 -54 163 678 0 164 160 166 0 +-5.3 0 -
.355 0 0 1 8.93386528748337 .03 1 0 0 14 164 673 0 161 167 168 4 163 -54 166 689
 0 167 163 169 0 +-5.3 0 -.325 0 0 1 8.6 .3 1 0 0 14 167 684 0 164 170 171 4 166
 -54 169 700 0 170 166 172 0 +-5.3 0 -.08 0 0 1 6.83 .03 1 0 0 14 170 695 0 167
 173 174 4 169 -54 172 711 0 173 169 175 0 +-5.3 0 -.47 0 0 1 6.77 .03 1 0 0 14
 173 706 0 170 176 177 4 172 +54 175 722 0 176 172 178 0 +-5.3 0 -.43 0 0 -1 6.7
3 .02 -1 0 0 14 176 717 0 173 179 180 4 175 -54 178 733 0 179 175 181 0 +-5.3 0
 -.15 0 0 1 6.65 .1 1 0 0 14 179 728 0 176 182 183 4 178 -54 181 747 0 182 178 1
84 0 +-5.3 0 -.8 0 0 1 6.18283224233 .75 1 0 0 14 182 735 0 179 185 186 4 181 -5
4 184 777 0 185 181 187 0 +-5.3 0 -.125 0 0 1 7.578347335476 .1 1 0 0 14 185 769
 0 182 188 189 4 184 -54 187 805 0 188 184 13 0 +-5.3 0 .125 0 0 1 7.57834733547
6 .1 1 0 0 14 188 797 0 185 9 190 4 187 -54 13 821 0 9 187 7 0 +-5.3 0 .3 0 0 1
 6.35 .25 1 0 0 14 9 813 0 188 5 191 4 13 -15 191 814 0 91 9 192 17 91 191 91 91
 0 193 89 15 192 815 0 194 9 0 17 194 192 194 194 0 88 86 17 88 195 88 88 0 194
 86 15 195 397 0 88 145 0 17 193 196 193 193 0 91 89 15 196 500 0 193 149 197 14
 149 388 0 198 145 196 4 152 -15 197 387 0 94 149 0 17 94 197 94 94 0 199 92 17
 199 200 199 199 0 94 92 15 200 499 0 199 198 0 14 198 383 0 201 149 202 4 203 -
14 201 378 0 204 198 205 4 206 -15 202 517 0 76 198 200 51 203 437 0 198 206 152
 0 --5.3 0 .1 0 0 1 6.65 1 0 0 50 206 436 0 201 207 203 0 +1.8 0 .05 0 0 -1 -1 0
 0 50 152 438 0 149 203 151 0 +1.3 0 .15 0 0 -1 -1 0 0 52 207 435 0 204 208 206
 0 --5.3 0 .0375 0 0 -1 7.5830718913885 .935414346694166 .353553390591472 -1 0 0
 14 204 373 0 209 201 210 4 207 -50 208 434 0 209 211 207 0 +2.9580718913885 0 .
025 0 0 -1 -1 0 0 14 209 368 0 212 204 213 4 208 -50 211 432 0 212 214 208 0 +3.
8 0 .325 0 0 -1 -1 0 0 14 212 358 0 215 209 216 4 211 -51 214 431 0 215 217 211
 0 +-5.3 0 .4375 0 0 -1 9.3 -1 0 0 14 215 353 0 218 212 219 4 214 -50 217 430 0
 218 220 214 0 +4.025 0 .55 0 0 -1 -1 0 0 14 218 348 0 221 215 222 4 217 -52 220
 429 0 221 223 217 0 --5.3 0 -.025 0 0 -1 9.38 .0521030459390237 .99864171383128
 -1 0 0 14 221 343 0 224 218 225 4 220 -50 223 428 0 224 226 220 0 +4.085 0 -.6
 0 0 1 1 0 0 14 224 338 0 227 221 228 4 223 -52 226 427 0 227 229 223 0 +-5.3 0
 -.55 0 0 -1 9.355 .0995037190209968 .995037190209989 -1 0 0 14 227 333 0 230 22
4 231 4 226 -52 229 426 0 230 232 226 0 +-5.3 0 -.4125 0 0 -1 9.145 .91972417881
8046 .3925651982759955 -1 0 0 14 230 328 0 233 227 234 4 229 -50 232 425 0 233 2
35 229 0 +3.62 0 -.325 0 0 1 1 0 0 14 233 323 0 236 230 237 4 232 -50 235 423 0
 236 238 232 0 +2.9580718913885 0 -.025 0 0 1 1 0 0 14 236 313 0 239 233 240 4 2
35 -52 238 422 0 239 241 235 0 --5.3 0 -.0375 0 0 1 7.5830718913885 .93541434669
4166 .353553390591472 1 0 0 14 239 308 0 242 236 243 4 238 -50 241 421 0 242 244
 238 0 +1.875 0 -.05 0 0 1 1 0 0 14 242 303 0 245 239 246 4 241 -51 244 420 0 24
5 247 241 0 --5.3 0 -.275 0 0 1 6.8 1 0 0 14 245 298 0 248 242 249 4 244 -50 247
 419 0 248 250 244 0 +1.325 0 -.5 0 0 1 1 0 0 14 248 293 0 251 245 252 4 247 -51
 250 418 0 251 253 247 0 +-5.3 0 -.475 0 0 -1 6.45 -1 0 0 14 251 288 0 254 248 2
55 4 250 -50 253 417 0 254 256 250 0 +1.3 0 -.45 0 0 -1 -1 0 0 14 254 283 0 257
 251 258 4 253 -51 256 416 0 257 259 253 0 +-5.3 0 -.25 0 0 -1 6.75 -1 0 0 14 25
7 278 0 260 254 261 4 256 -50 259 415 0 260 262 256 0 +1.166416121165 0 -.05 0 0
 1 1 0 0 14 260 273 0 135 257 263 4 259 -50 262 413 0 135 0 259 0 +.225 0 -.1875
 0 0 1 1 0 0 14 135 263 0 0 260 264 4 262 -15 264 475 0 265 135 133 17 265 264 2
65 265 0 130 128 17 130 266 130 130 0 265 128 15 266 737 0 130 182 0 15 263 619
 0 25 260 267 17 25 263 25 25 0 268 23 15 267 272 0 127 260 0 17 127 267 127 127
 0 269 125 17 269 186 269 269 0 127 125 15 186 736 0 269 182 266 17 268 183 268
 268 0 25 23 15 183 729 0 268 179 270 15 270 730 0 271 179 0 17 271 270 271 271
 0 31 29 17 31 272 31 31 0 271 29 15 272 607 0 31 257 0 15 261 613 0 28 257 272
 17 28 261 28 28 0 273 26 17 273 180 273 273 0 28 26 15 180 718 0 273 176 274 15
 274 719 0 275 176 0 17 275 274 275 275 0 34 32 17 34 258 34 34 0 275 32 15 258
 601 0 34 254 276 15 276 479 0 277 254 0 17 277 276 277 277 0 124 122 17 124 278
 124 124 0 277 122 15 278 287 0 124 251 0 15 255 480 0 279 251 278 17 279 255 27
9 279 0 121 119 17 121 280 121 121 0 279 119 15 280 292 0 121 248 0 15 252 595 0
 37 248 280 17 37 252 37 37 0 281 35 17 281 177 281 281 0 37 35 15 177 707 0 281
 173 282 15 282 708 0 283 173 0 17 283 282 283 283 0 43 41 17 43 284 43 43 0 283
 41 15 284 583 0 43 245 0 15 249 589 0 40 245 284 17 40 249 40 40 0 285 38 17 28
5 174 285 285 0 40 38 15 174 696 0 285 170 286 15 286 697 0 287 170 0 17 287 286
 287 287 0 46 44 17 46 288 46 46 0 287 44 15 288 577 0 46 242 0 15 246 757 0 22
 242 288 17 22 246 22 22 0 289 20 17 289 189 289 289 0 22 20 15 189 770 0 289 18
5 290 15 290 771 0 291 185 0 17 291 290 291 291 0 19 17 17 19 243 19 19 0 291 17
 15 243 763 0 19 239 292 15 292 484 0 293 239 0 17 293 292 293 293 0 118 116 17
 118 294 118 118 0 293 116 15 294 312 0 118 236 0 15 240 571 0 49 236 294 17 49
 240 49 49 0 295 47 17 295 171 295 295 0 49 47 15 171 685 0 295 167 296 15 296 6
86 0 297 167 0 17 297 296 297 297 0 115 113 17 115 298 115 115 0 297 113 15 298
 322 0 115 233 0 15 237 565 0 52 233 298 17 52 237 52 52 0 299 50 17 299 168 299
 299 0 52 50 15 168 674 0 299 164 300 15 300 675 0 301 164 0 17 301 300 301 301
 0 58 56 17 58 302 58 58 0 301 56 15 302 553 0 58 230 0 15 234 559 0 55 230 302
 17 55 234 55 55 0 303 53 17 303 165 303 303 0 55 53 15 165 663 0 303 161 304 15
 304 664 0 305 161 0 17 305 304 305 305 0 61 59 17 61 231 61 61 0 305 59 15 231
 547 0 61 227 306 15 306 489 0 307 227 0 17 307 306 307 307 0 112 110 17 112 308
 112 112 0 307 110 15 308 337 0 112 224 0 15 228 490 0 309 224 308 17 309 228 30
9 309 0 109 107 17 109 310 109 109 0 309 107 15 310 342 0 109 221 0 15 225 491 0
 311 221 310 17 311 225 311 311 0 106 104 17 106 312 106 106 0 311 104 15 312 34
7 0 106 218 0 15 222 492 0 313 218 312 17 313 222 313 313 0 103 101 17 103 314 1
03 103 0 313 101 15 314 352 0 103 215 0 15 219 541 0 64 215 314 17 64 219 64 64
 0 315 62 17 315 162 315 315 0 64 62 15 162 652 0 315 158 316 15 316 653 0 317 1
58 0 17 317 316 317 317 0 67 65 17 67 216 67 67 0 317 65 15 216 535 0 67 212 318
 15 318 494 0 319 212 0 17 319 318 319 319 0 100 98 17 100 159 100 100 0 319 98
 15 159 641 0 100 155 320 15 320 642 0 321 155 0 17 321 320 321 321 0 70 68 17 7
0 213 70 70 0 321 68 15 213 529 0 70 209 322 15 322 496 0 323 209 0 17 323 322 3
23 323 0 97 95 17 97 324 97 97 0 323 95 15 324 372 0 97 204 0 15 210 785 0 16 20
4 324 17 16 210 16 16 0 325 12 17 325 190 325 325 0 16 12 15 190 798 0 325 188 3
26 15 326 799 0 327 188 0 17 327 326 327 327 0 11 6 17 11 205 11 11 0 327 6 15 2
05 791 0 11 201 328 15 328 523 0 73 201 0 17 73 328 73 73 0 329 71 17 329 156 32
9 329 0 73 71 15 156 630 0 329 140 330 15 330 631 0 331 140 0 17 331 330 331 331
 0 76 74 17 76 202 76 76 0 331 74 15 150 502 0 332 145 195 17 332 150 332 332 0
 85 83 17 85 10 85 85 0 332 83 15 10 830 0 85 5 148 1 0 
