105 413 1 0                             
body $-1 $1 $-1 $-1 #
lump $-1 $-1 $2 $0 #
shell $-1 $-1 $-1 $3 $1 #
face $-1 $4 $5 $2 $-1 $6 reversed single #
face $-1 $7 $8 $2 $-1 $9 reversed single #
loop $-1 $10 $11 $3 #
torus-surface $-1 -208.661417322835 0 31.496062992126 0 0 1 243.418592217717 29.5275590551181 1 0 0 0 #
face $-1 $12 $13 $2 $-1 $14 reversed single #
loop $-1 $15 $16 $4 #
torus-surface $-1 -208.661417322835 0 11.8110236220472 0 0 1 250 9.84251968503937 1 0 0 0 #
loop $-1 $-1 $17 $3 #
coedge $-1 $11 $11 $18 $19 0 $5 $-1 #
face $-1 $20 $21 $2 $-1 $22 reversed single #
loop $-1 $23 $24 $7 #
torus-surface $-1 -208.661417322835 0 4.92125984251969 0 0 1 298.360131317953 3.93700787401575 1 0 0 0 #
loop $-1 $-1 $25 $4 #
coedge $-1 $16 $16 $26 $27 0 $8 $-1 #
coedge $-1 $17 $17 $28 $29 1 $10 $-1 #
coedge $-1 $18 $18 $11 $19 1 $30 $-1 #
edge $-1 $31 $31 $11 $32 0 #
face $-1 $33 $34 $2 $-1 $35 reversed single #
loop $-1 $36 $37 $12 #
torus-surface $-1 -208.661417322835 0 -4.92125984251969 0 0 1 298.360131317953 3.93700787401575 1 0 0 0 #
loop $-1 $-1 $38 $7 #
coedge $-1 $24 $24 $39 $40 1 $13 $-1 #
coedge $-1 $25 $25 $41 $42 1 $15 $-1 #
coedge $-1 $26 $26 $16 $27 1 $43 $-1 #
edge $-1 $44 $44 $16 $45 0 #
coedge $-1 $28 $28 $17 $29 0 $46 $-1 #
edge $-1 $47 $47 $17 $48 0 #
loop $-1 $49 $18 $50 #
vertex $-1 $19 $51 #
ellipse-curve $-1 -208.661417322835 0 1.96850393700787 0 0 1 243.418592217717 0 0 1 #
face $-1 $52 $53 $2 $-1 $54 reversed single #
loop $-1 $55 $56 $20 #
torus-surface $-1 -208.661417322835 0 -31.496062992126 0 0 1 243.418592217717 29.5275590551181 1 0 0 0 #
loop $-1 $-1 $57 $12 #
coedge $-1 $37 $37 $58 $59 1 $21 $-1 #
coedge $-1 $38 $38 $60 $61 1 $23 $-1 #
coedge $-1 $39 $39 $24 $40 0 $62 $-1 #
edge $-1 $63 $63 $24 $64 0 #
coedge $-1 $41 $41 $25 $42 0 $49 $-1 #
edge $-1 $65 $65 $25 $66 0 #
loop $-1 $67 $26 $68 #
vertex $-1 $27 $69 #
ellipse-curve $-1 -208.661417322835 0 5.90551181102362 0 0 1 257.874015748032 0 0 1 #
loop $-1 $-1 $28 $70 #
vertex $-1 $29 $71 #
ellipse-curve $-1 -208.661417322835 0 7.38188976377953 0 0 1 226.377952755906 0 0 1 #
loop $-1 $-1 $41 $50 #
face $-1 $68 $30 $2 $-1 $72 reversed single #
point $-1 34.7571748948819 0 1.96850393700787 #
face $-1 $73 $74 $2 $-1 $75 reversed single #
loop $-1 $76 $77 $33 #
torus-surface $-1 -208.661417322835 0 -5.90551181102362 0 0 1 261.811023622047 3.93700787401575 1 0 0 0 #
loop $-1 $-1 $78 $20 #
coedge $-1 $56 $56 $79 $80 1 $34 $-1 #
coedge $-1 $57 $57 $81 $82 1 $36 $-1 #
coedge $-1 $58 $58 $37 $59 0 $83 $-1 #
edge $-1 $84 $84 $37 $85 0 #
coedge $-1 $60 $60 $38 $61 0 $86 $-1 #
edge $-1 $87 $87 $38 $88 0 #
loop $-1 $89 $39 $90 #
vertex $-1 $40 $91 #
ellipse-curve $-1 -208.661417322835 0 1.13665919810153 0 0 -1 299.444948796765 0 0 1 #
vertex $-1 $42 $92 #
ellipse-curve $-1 -208.661417322835 0 1.96850393700787 0 0 1 250 0 0 1 #
loop $-1 $-1 $93 $68 #
face $-1 $94 $43 $2 $-1 $95 reversed single #
point $-1 49.2125984251969 0 5.90551181102362 #
face $-1 $50 $96 $2 $-1 $97 reversed single #
point $-1 17.7165354330709 0 7.38188976377953 #
plane-surface $-1 38.0478787860236 0 1.96850393700787 0 0 -1 -1 0 0 0 #
face $-1 $98 $99 $2 $-1 $100 forward single #
loop $-1 $101 $102 $52 #
torus-surface $-1 -208.661417322835 0 -16.9291338582677 0 0 -1 264.96062992126 0.78740157480315 -1 0 0 0 #
loop $-1 $-1 $103 $33 #
coedge $-1 $77 $77 $104 $105 1 $53 $-1 #
coedge $-1 $78 $78 $106 $107 0 $55 $-1 #
coedge $-1 $79 $79 $56 $80 0 $108 $-1 #
edge $-1 $109 $109 $56 $110 0 #
coedge $-1 $81 $81 $57 $82 0 $111 $-1 #
edge $-1 $112 $112 $57 $113 0 #
loop $-1 $114 $58 $115 #
vertex $-1 $59 $116 #
ellipse-curve $-1 -208.661417322835 0 -1.96850393700787 0 0 -1 -295.756045381866 0 0 1 #
loop $-1 $117 $60 $118 #
vertex $-1 $61 $119 #
ellipse-curve $-1 -208.661417322835 0 1.96850393700787 0 0 1 295.756045381866 0 0 1 #
loop $-1 $-1 $120 $90 #
face $-1 $121 $62 $2 $-1 $122 forward single #
point $-1 90.7835314739307 0 1.13665919810153 #
point $-1 41.3385826771653 0 1.96850393700787 #
coedge $-1 $93 $93 $123 $124 0 $67 $-1 #
face $-1 $118 $125 $2 $-1 $126 forward single #
plane-surface $-1 51.1811023622047 0 5.90551181102362 0 0 -1 -1 0 0 0 #
loop $-1 $46 $127 $70 #
plane-surface $-1 8.85826771653543 0 7.38188976377953 0 0 -1 -1 0 0 0 #
face $-1 $128 $129 $2 $-1 $130 reversed single #
loop $-1 $131 $132 $73 #
torus-surface $-1 -208.661417322835 0 -18.503937007874 0 0 1 266.535433070866 1.18110236220472 1 0 0 0 #
loop $-1 $-1 $133 $52 #
coedge $-1 $102 $102 $134 $135 1 $74 $-1 #
coedge $-1 $103 $103 $136 $137 1 $76 $-1 #
coedge $-1 $104 $104 $77 $105 0 $138 $-1 #
edge $-1 $139 $139 $77 $140 0 #
coedge $-1 $106 $106 $78 $107 1 $141 $-1 #
edge $-1 $142 $142 $78 $143 0 #
loop $-1 $-1 $79 $144 #
vertex $-1 $80 $145 #
ellipse-curve $-1 -208.661417322835 0 -1.96850393700787 0 0 1 243.418592217717 0 0 1 #
loop $-1 $146 $81 $147 #
vertex $-1 $82 $148 #
ellipse-curve $-1 -208.661417322835 0 -1.13665919810153 0 0 1 -299.444948796765 0 0 1 #
loop $-1 $-1 $149 $115 #
face $-1 $150 $83 $2 $-1 $151 reversed single #
point $-1 -504.4174627047 0 -1.96850393700787 #
loop $-1 $-1 $152 $118 #
face $-1 $90 $86 $2 $-1 $153 reversed single #
point $-1 87.0946280590311 0 1.96850393700787 #
coedge $-1 $120 $120 $154 $155 0 $89 $-1 #
face $-1 $156 $157 $2 $-1 $158 reversed single #
cone-surface $-1 -208.661417322835 0 1.47637795275591 0 0 -1 -298.54613745624 0 0 1 0.935414346694166 0.353553390591472 0 #
coedge $-1 $123 $123 $93 $124 1 $159 $-1 #
edge $-1 $160 $160 $93 $161 0 #
loop $-1 $159 $162 $94 #
cone-surface $-1 -208.661417322835 0 3.93700787401575 0 0 1 261.811023622047 0 0 1 0 1 0 #
coedge $-1 $127 $127 $163 $164 1 $96 $-1 #
face $-1 $165 $166 $2 $-1 $167 reversed single #
loop $-1 $168 $169 $98 #
torus-surface $-1 -208.661417322835 0 -3.1496062992126 0 0 1 268.897637795276 1.18110236220472 1 0 0 0 #
loop $-1 $-1 $170 $73 #
coedge $-1 $132 $132 $171 $172 1 $99 $-1 #
coedge $-1 $133 $133 $173 $174 1 $101 $-1 #
coedge $-1 $134 $134 $102 $135 0 $175 $-1 #
edge $-1 $176 $176 $102 $177 0 #
coedge $-1 $136 $136 $103 $137 0 $178 $-1 #
edge $-1 $179 $179 $103 $180 0 #
loop $-1 $108 $104 $144 #
vertex $-1 $105 $181 #
ellipse-curve $-1 -208.661417322835 0 -1.96850393700787 0 0 -1 261.811023622047 0 0 1 #
loop $-1 $182 $106 $183 #
vertex $-1 $107 $184 #
ellipse-curve $-1 -208.661417322835 0 -7.38188976377953 0 0 1 226.377952755906 0 0 1 #
face $-1 $183 $138 $2 $-1 $185 reversed single #
point $-1 34.7571748948819 0 -1.96850393700787 #
loop $-1 $-1 $186 $147 #
face $-1 $115 $111 $2 $-1 $187 forward single #
point $-1 -508.1063661196 0 -1.13665919810153 #
coedge $-1 $149 $149 $188 $189 0 $114 $-1 #
face $-1 $190 $191 $2 $-1 $192 forward single #
plane-surface $-1 73.8188976377953 0 -1.96850393700787 0 0 1 1 0 0 0 #
coedge $-1 $152 $152 $193 $194 0 $117 $-1 #
plane-surface $-1 70.8661417322835 0 1.96850393700787 0 0 -1 -1 0 0 0 #
coedge $-1 $154 $154 $120 $155 1 $195 $-1 #
edge $-1 $196 $196 $120 $197 0 #
face $-1 $198 $199 $2 $-1 $200 reversed single #
loop $-1 $195 $201 $121 #
plane-surface $-1 116.459523283012 0 0.984251968503937 0 0 -1 -1 0 0 0 #
loop $-1 $-1 $123 $94 #
vertex $-1 $124 $202 #
ellipse-curve $-1 -208.661417322835 0 5.90551181102362 0 0 1 261.811023622047 0 0 1 #
coedge $-1 $162 $162 $203 $204 0 $125 $-1 #
coedge $-1 $163 $163 $127 $164 0 $205 $-1 #
edge $-1 $206 $206 $163 $207 0 #
face $-1 $208 $209 $2 $-1 $210 reversed single #
loop $-1 $211 $212 $128 #
torus-surface $-1 -208.661417322835 0 -12.7952755905512 0 0 1 338.582677165354 11.8110236220472 1 0 0 0 #
loop $-1 $-1 $188 $98 #
coedge $-1 $169 $169 $213 $214 1 $129 $-1 #
coedge $-1 $170 $170 $215 $216 1 $131 $-1 #
coedge $-1 $171 $171 $132 $172 0 $217 $-1 #
edge $-1 $218 $218 $132 $219 0 #
coedge $-1 $173 $173 $133 $174 0 $220 $-1 #
edge $-1 $221 $221 $133 $222 0 #
loop $-1 $178 $134 $223 #
vertex $-1 $135 $224 #
ellipse-curve $-1 -208.661417322835 0 -16.9291338582677 0 0 -1 -265.748031496063 0 0 1 #
loop $-1 $-1 $136 $223 #
vertex $-1 $137 $225 #
ellipse-curve $-1 -208.661417322835 0 -5.90551181102362 0 0 1 265.748031496063 0 0 1 #
point $-1 53.1496062992126 0 -1.96850393700787 #
loop $-1 $-1 $226 $183 #
face $-1 $-1 $141 $2 $-1 $227 reversed single #
point $-1 17.7165354330709 0 -7.38188976377953 #
plane-surface $-1 45.9218945340551 0 -1.96850393700787 0 0 1 1 0 0 0 #
coedge $-1 $186 $186 $228 $229 1 $146 $-1 #
cone-surface $-1 -208.661417322835 0 -1.47637795275591 0 0 1 298.54613745624 0 0 1 0.935414346694166 0.353553390591472 0 #
coedge $-1 $188 $188 $149 $189 1 $168 $-1 #
edge $-1 $230 $230 $188 $231 0 #
face $-1 $232 $217 $2 $-1 $233 reversed single #
loop $-1 $234 $213 $150 #
cone-surface $-1 -208.661417322835 0 -10.8267716535433 0 0 1 267.716535433071 0 0 1 0 1 0 #
coedge $-1 $193 $193 $152 $194 1 $235 $-1 #
edge $-1 $236 $236 $193 $237 0 #
loop $-1 $-1 $154 $121 #
vertex $-1 $155 $238 #
ellipse-curve $-1 -208.661417322835 0 0.984251968503937 0 0 1 299.848180424291 0 0 1 #
face $-1 $239 $240 $2 $-1 $241 reversed single #
loop $-1 $242 $243 $156 #
plane-surface $-1 149.606299212598 0 12.7952755905512 0 0 -1 -1 0 0 0 #
coedge $-1 $201 $201 $244 $245 0 $157 $-1 #
point $-1 53.1496062992126 0 5.90551181102362 #
coedge $-1 $203 $203 $162 $204 1 $246 $-1 #
edge $-1 $247 $247 $203 $248 0 #
loop $-1 $-1 $163 $249 #
vertex $-1 $164 $250 #
ellipse-curve $-1 -208.661417322835 0 7.38188976377953 0 0 1 208.661417322835 0 0 1 #
face $-1 $251 $252 $2 $-1 $253 reversed single #
loop $-1 $254 $255 $165 #
torus-surface $-1 -208.661417322835 0 -13.9763779527559 0 0 1 351.72697982218 1.18110236220472 1 0 0 0 #
loop $-1 $-1 $256 $128 #
coedge $-1 $212 $212 $257 $258 1 $166 $-1 #
coedge $-1 $213 $213 $169 $214 0 $191 $-1 #
edge $-1 $259 $259 $169 $260 0 #
coedge $-1 $215 $215 $170 $216 0 $234 $-1 #
edge $-1 $261 $261 $170 $262 0 #
loop $-1 $263 $171 $190 #
vertex $-1 $172 $264 #
ellipse-curve $-1 -208.661417322835 0 -19.6850393700787 0 0 -1 266.535433070866 0 0 1 #
loop $-1 $265 $173 $266 #
vertex $-1 $174 $267 #
ellipse-curve $-1 -208.661417322835 0 -17.7165354330709 0 0 1 -264.96062992126 0 0 1 #
face $-1 $144 $175 $2 $-1 $268 reversed single #
point $-1 -474.409448818898 0 -16.9291338582677 #
point $-1 57.0866141732284 0 -5.90551181102362 #
coedge $-1 $226 $226 $269 $270 0 $182 $-1 #
plane-surface $-1 8.85826771653543 0 -7.38188976377953 0 0 1 1 0 0 0 #
coedge $-1 $228 $228 $186 $229 0 $271 $-1 #
edge $-1 $272 $272 $228 $273 0 #
vertex $-1 $189 $274 #
ellipse-curve $-1 -208.661417322835 0 -1.96850393700787 0 0 1 268.897637795276 0 0 1 #
face $-1 $266 $275 $2 $-1 $276 reversed single #
plane-surface $-1 52.1653543307087 0 -19.6850393700787 0 0 1 1 0 0 0 #
loop $-1 $-1 $215 $150 #
loop $-1 $246 $193 $277 #
vertex $-1 $194 $278 #
ellipse-curve $-1 -208.661417322835 0 1.96850393700787 0 0 -1 -262.59842519685 0 0 1 #
point $-1 91.1867631014567 0 0.984251968503937 #
face $-1 $279 $280 $2 $-1 $281 reversed single #
loop $-1 $282 $283 $198 #
cone-surface $-1 -208.661417322835 0 17.2244094488189 0 0 -1 -366.141732283465 0 0 1 0 1 0 #
loop $-1 $-1 $284 $156 #
coedge $-1 $243 $243 $285 $286 0 $199 $-1 #
coedge $-1 $244 $244 $201 $245 1 $287 $-1 #
edge $-1 $288 $288 $244 $289 0 #
loop $-1 $-1 $203 $277 #
vertex $-1 $204 $290 #
ellipse-curve $-1 -208.661417322835 0 2.75590551181102 0 0 1 -261.811023622047 0 0 1 #
face $-1 $70 $291 $2 $-1 $292 reversed single #
point $-1 0 0 7.38188976377953 #
face $-1 $293 $294 $2 $-1 $295 reversed single #
loop $-1 $296 $297 $208 #
torus-surface $-1 -208.661417322835 0 -21.8509493928007 0 0 -1 365.161512066486 3.1496062992126 -1 0 0 0 #
loop $-1 $-1 $298 $165 #
coedge $-1 $255 $255 $299 $300 1 $209 $-1 #
coedge $-1 $256 $256 $301 $302 1 $211 $-1 #
coedge $-1 $257 $257 $212 $258 0 $303 $-1 #
edge $-1 $304 $304 $212 $305 0 #
vertex $-1 $214 $306 #
ellipse-curve $-1 -208.661417322835 0 -3.1496062992126 0 0 -1 267.716535433071 0 0 1 #
vertex $-1 $216 $307 #
ellipse-curve $-1 -208.661417322835 0 -18.503937007874 0 0 1 267.716535433071 0 0 1 #
loop $-1 $-1 $308 $190 #
point $-1 57.8740157480315 0 -19.6850393700787 #
loop $-1 $-1 $309 $266 #
face $-1 $223 $220 $2 $-1 $310 reversed single #
point $-1 -473.622047244095 0 -17.7165354330709 #
cone-surface $-1 -208.661417322835 0 -9.84251968503937 0 0 -1 -265.748031496063 0 0 1 0 1 0 #
coedge $-1 $269 $269 $226 $270 1 $291 $-1 #
edge $-1 $311 $311 $269 $312 0 #
loop $-1 $-1 $228 $313 #
vertex $-1 $229 $314 #
ellipse-curve $-1 -208.661417322835 0 -0.984251968503937 0 0 1 299.848180424291 0 0 1 #
point $-1 60.236220472441 0 -1.96850393700787 #
loop $-1 $315 $316 $232 #
cone-surface $-1 -208.661417322835 0 -18.7007874015748 0 0 -1 -253.937007874016 0 0 1 0 1 0 #
face $-1 $249 $235 $2 $-1 $317 reversed single #
point $-1 -471.259842519685 0 1.96850393700787 #
face $-1 $318 $319 $2 $-1 $320 forward single #
loop $-1 $321 $322 $239 #
plane-surface $-1 158.464566929134 0 21.6535433070866 0 0 -1 -1 0 0 0 #
loop $-1 $-1 $323 $198 #
coedge $-1 $283 $283 $324 $325 0 $240 $-1 #
coedge $-1 $284 $284 $326 $327 1 $242 $-1 #
coedge $-1 $285 $285 $243 $286 1 $328 $-1 #
edge $-1 $329 $329 $285 $330 0 #
loop $-1 $-1 $244 $293 #
vertex $-1 $245 $331 #
ellipse-curve $-1 -208.661417322835 0 0.984251968503937 0 0 1 -338.582677165354 0 0 1 #
point $-1 -470.472440944882 0 2.75590551181102 #
loop $-1 $205 $269 $249 #
cone-surface $-1 -208.661417322835 0 0 0 0 -1 -208.661417322835 0 0 1 0 1 0 #
face $-1 $277 $332 $2 $-1 $333 reversed single #
loop $-1 $328 $324 $251 #
torus-surface $-1 -208.661417322835 0 15.9448818897638 0 0 -1 362.992125984252 3.1496062992126 -1 0 0 0 #
loop $-1 $-1 $334 $208 #
coedge $-1 $297 $297 $335 $336 1 $252 $-1 #
coedge $-1 $298 $298 $337 $338 1 $254 $-1 #
coedge $-1 $299 $299 $255 $300 0 $339 $-1 #
edge $-1 $340 $340 $255 $341 0 #
coedge $-1 $301 $301 $256 $302 0 $342 $-1 #
edge $-1 $343 $343 $256 $344 0 #
loop $-1 $271 $257 $313 #
vertex $-1 $258 $345 #
ellipse-curve $-1 -208.661417322835 0 -0.984251968503937 0 0 -1 338.582677165354 0 0 1 #
point $-1 59.0551181102362 0 -3.1496062992126 #
point $-1 59.0551181102362 0 -18.503937007874 #
coedge $-1 $308 $308 $316 $346 0 $263 $-1 #
coedge $-1 $309 $309 $347 $348 1 $265 $-1 #
plane-surface $-1 51.1811023622047 0 -17.7165354330709 0 0 -1 -1 0 0 0 #
vertex $-1 $270 $349 #
ellipse-curve $-1 -208.661417322835 0 -7.38188976377953 0 0 1 208.661417322835 0 0 1 #
face $-1 $147 $303 $2 $-1 $350 reversed single #
point $-1 91.1867631014567 0 -0.984251968503937 #
loop $-1 $-1 $347 $232 #
coedge $-1 $316 $316 $308 $346 1 $275 $-1 #
torus-surface $-1 -208.661417322835 0 2.75590551181102 0 0 -1 262.59842519685 0.78740157480315 -1 0 0 0 #
face $-1 $351 $352 $2 $-1 $353 reversed single #
loop $-1 $354 $355 $279 #
cone-surface $-1 -208.661417322835 0 -0.984251968503937 0 0 -1 -369.291338582677 0 0 1 0.0521030459390237 0.99864171383128 0 #
loop $-1 $-1 $356 $239 #
coedge $-1 $322 $322 $323 $357 1 $280 $-1 #
coedge $-1 $323 $323 $322 $357 0 $282 $-1 #
coedge $-1 $324 $324 $283 $325 1 $294 $-1 #
edge $-1 $358 $358 $324 $359 0 #
coedge $-1 $326 $326 $284 $327 0 $332 $-1 #
edge $-1 $360 $360 $326 $361 0 #
loop $-1 $-1 $285 $251 #
vertex $-1 $286 $362 #
ellipse-curve $-1 -208.661417322835 0 12.7952755905512 0 0 1 -362.992125984252 0 0 1 #
point $-1 -547.244094488189 0 0.984251968503937 #
loop $-1 $287 $326 $293 #
torus-surface $-1 -208.661417322835 0 12.7952755905512 0 0 -1 338.582677165354 11.8110236220472 -1 0 0 0 #
coedge $-1 $334 $334 $363 $364 1 $296 $-1 #
coedge $-1 $335 $335 $297 $336 0 $365 $-1 #
edge $-1 $366 $366 $297 $367 0 #
coedge $-1 $337 $337 $298 $338 0 $368 $-1 #
edge $-1 $369 $369 $298 $370 0 #
loop $-1 $342 $299 $371 #
vertex $-1 $300 $372 #
ellipse-curve $-1 -208.661417322835 0 -12.7952755905512 0 0 -1 351.72697982218 0 0 1 #
loop $-1 $-1 $301 $371 #
vertex $-1 $302 $373 #
ellipse-curve $-1 -208.661417322835 0 -12.7952755905512 0 0 1 350.393700787402 0 0 1 #
point $-1 129.92125984252 0 -0.984251968503937 #
edge $-1 $374 $374 $308 $375 0 #
coedge $-1 $347 $347 $309 $348 0 $315 $-1 #
edge $-1 $376 $376 $347 $377 0 #
point $-1 0 0 -7.38188976377953 #
plane-surface $-1 116.459523283012 0 -0.984251968503937 0 0 1 1 0 0 0 #
face $-1 $378 $379 $2 $-1 $380 reversed single #
loop $-1 $381 $382 $318 #
plane-surface $-1 160.826771653543 0 -23.6220472440945 0 0 1 1 0 0 0 #
loop $-1 $-1 $383 $279 #
coedge $-1 $355 $355 $356 $384 1 $319 $-1 #
coedge $-1 $356 $356 $355 $384 0 $321 $-1 #
edge $-1 $385 $385 $323 $386 0 #
vertex $-1 $325 $387 #
ellipse-curve $-1 -208.661417322835 0 15.9448818897638 0 0 -1 -366.141732283465 0 0 1 #
vertex $-1 $327 $388 #
ellipse-curve $-1 -208.661417322835 0 12.7952755905512 0 0 1 350.393700787402 0 0 1 #
point $-1 -571.653543307087 0 12.7952755905512 #
coedge $-1 $363 $363 $334 $364 0 $379 $-1 #
edge $-1 $389 $389 $334 $390 0 #
loop $-1 $368 $335 $378 #
vertex $-1 $336 $391 #
ellipse-curve $-1 -208.661417322835 0 -18.9541803256573 0 0 -1 -366.397937887828 0 0 1 #
loop $-1 $-1 $337 $378 #
vertex $-1 $338 $392 #
ellipse-curve $-1 -208.661417322835 0 -12.8900895525772 0 0 1 -352.190639505183 0 0 1 #
face $-1 $313 $339 $2 $-1 $393 reversed single #
point $-1 143.065562499345 0 -12.7952755905512 #
point $-1 141.732283464567 0 -12.7952755905512 #
vertex $-1 $346 $394 #
ellipse-curve $-1 -208.661417322835 0 -19.6850393700787 0 0 1 253.937007874016 0 0 1 #
vertex $-1 $348 $395 #
ellipse-curve $-1 -208.661417322835 0 -17.7165354330709 0 0 1 253.937007874016 0 0 1 #
face $-1 $371 $365 $2 $-1 $396 reversed single #
loop $-1 $397 $363 $351 #
cone-surface $-1 -208.661417322835 0 -21.6535433070866 0 0 -1 -368.307086614173 0 0 1 0.0995037190209968 0.995037190209989 0 #
loop $-1 $-1 $398 $318 #
coedge $-1 $382 $382 $383 $399 1 $352 $-1 #
coedge $-1 $383 $383 $382 $399 0 $354 $-1 #
edge $-1 $400 $400 $356 $401 0 #
vertex $-1 $357 $402 #
ellipse-curve $-1 -208.661417322835 0 21.6535433070866 0 0 1 366.141732283465 0 0 1 #
point $-1 -574.803149606299 0 15.9448818897638 #
point $-1 141.732283464567 0 12.7952755905512 #
vertex $-1 $364 $403 #
ellipse-curve $-1 -208.661417322835 0 -21.537551852577 0 0 1 -368.295487468722 0 0 1 #
point $-1 -575.059355210662 0 -18.9541803256573 #
point $-1 -560.852056828018 0 -12.8900895525772 #
plane-surface $-1 142.51968503937 0 -12.7952755905512 0 0 1 1 0 0 0 #
point $-1 45.2755905511811 0 -19.6850393700787 #
point $-1 45.2755905511811 0 -17.7165354330709 #
cone-surface $-1 -208.661417322835 0 -16.240157480315 0 0 -1 -360.03937007874 0 0 1 0.919724178818046 0.392565198275995 0 #
loop $-1 $-1 $404 $351 #
coedge $-1 $398 $398 $404 $405 0 $381 $-1 #
edge $-1 $406 $406 $383 $407 0 #
vertex $-1 $384 $408 #
ellipse-curve $-1 -208.661417322835 0 21.6535433070866 0 0 1 368.110236220472 0 0 1 #
point $-1 157.48031496063 0 21.6535433070866 #
point $-1 -576.956904791557 0 -21.537551852577 #
coedge $-1 $404 $404 $398 $405 1 $397 $-1 #
edge $-1 $409 $409 $398 $410 0 #
vertex $-1 $399 $411 #
ellipse-curve $-1 -208.661417322835 0 -23.6220472440945 0 0 1 370.472440944882 0 0 1 #
point $-1 159.448818897638 0 21.6535433070866 #
vertex $-1 $405 $412 #
ellipse-curve $-1 -208.661417322835 0 -23.6220472440945 0 0 1 368.503937007874 0 0 1 #
point $-1 161.811023622047 0 -23.6220472440945 #
point $-1 159.842519685039 0 -23.6220472440945 #
