600 0 1 0           
103 GICL ACIS Healer - Source: /gicl/data5/repository/Parasolid/NIST/misc/plain_rotor/plain_rotor.sat - 6 0 18 ACIS 6.0.3 Solaris 24 Sun Apr 14 00:19:00 2002 
1 9.999999999999999547e-07 1.000000000000000036e-10 
body $-1 $1 $-1 $-1 #
lump $-1 $-1 $2 $0 #
shell $-1 $-1 $-1 $3 $-1 $1 #
face $-1 $4 $5 $2 $-1 $6 reversed single #
face $-1 $7 $8 $2 $-1 $9 reversed single #
loop $-1 $10 $11 $3 #
torus-surface $-1 -208.6614173228350069 0 31.49606299212599936 0 0 1 243.4185922177169914 29.52755905511810042 1 0 0 forward_v I I I I #
face $-1 $12 $13 $2 $-1 $14 reversed single #
loop $-1 $15 $16 $4 #
torus-surface $-1 -208.6614173228350069 0 11.81102362204720002 0 0 1 250 9.842519685039370358 1 0 0 forward_v I I I I #
loop $-1 $-1 $17 $3 #
coedge $-1 $11 $11 $18 $19 forward $5 $-1 #
face $-1 $20 $21 $2 $-1 $22 reversed single #
loop $-1 $23 $24 $7 #
torus-surface $-1 -208.6614173228350069 0 4.92125984251968962 0 0 1 298.3601313179530052 3.93700787401574992 1 0 0 forward_v I I I I #
loop $-1 $-1 $25 $4 #
coedge $-1 $16 $16 $26 $27 forward $8 $-1 #
coedge $-1 $17 $17 $28 $29 reversed $10 $-1 #
coedge $-1 $18 $18 $11 $19 reversed $30 $-1 #
edge $-1 $31 0 $31 6.283185307179586232 $11 $32 forward 7 unknown #
face $-1 $33 $34 $2 $-1 $35 reversed single #
loop $-1 $36 $37 $12 #
torus-surface $-1 -208.6614173228350069 0 -4.92125984251968962 0 0 1 298.3601313179530052 3.93700787401574992 1 0 0 forward_v I I I I #
loop $-1 $-1 $38 $7 #
coedge $-1 $24 $24 $39 $40 reversed $13 $-1 #
coedge $-1 $25 $25 $41 $42 reversed $15 $-1 #
coedge $-1 $26 $26 $16 $27 reversed $43 $-1 #
edge $-1 $44 0 $44 6.283185307179586232 $16 $45 forward 7 unknown #
coedge $-1 $28 $28 $17 $29 forward $46 $-1 #
edge $-1 $47 0 $47 6.283185307179586232 $17 $48 forward 7 unknown #
loop $-1 $49 $18 $50 #
vertex $-1 $19 $51 #
ellipse-curve $-1 -208.6614173228350069 0 1.968503937007870075 0 0 1 243.4185922177169914 0 0 1 I I #
face $-1 $52 $53 $2 $-1 $54 reversed single #
loop $-1 $55 $56 $20 #
torus-surface $-1 -208.6614173228350069 0 -31.49606299212599936 0 0 1 243.4185922177169914 29.52755905511810042 1 0 0 forward_v I I I I #
loop $-1 $-1 $57 $12 #
coedge $-1 $37 $37 $58 $59 reversed $21 $-1 #
coedge $-1 $38 $38 $60 $61 reversed $23 $-1 #
coedge $-1 $39 $39 $24 $40 forward $62 $-1 #
edge $-1 $63 0 $63 6.283185307179586232 $24 $64 forward 7 unknown #
coedge $-1 $41 $41 $25 $42 forward $49 $-1 #
edge $-1 $65 0 $65 6.283185307179586232 $25 $66 forward 7 unknown #
loop $-1 $67 $26 $68 #
vertex $-1 $27 $69 #
ellipse-curve $-1 -208.6614173228350069 0 5.905511811023620439 0 0 1 257.8740157480319795 0 0 1 I I #
loop $-1 $-1 $28 $70 #
vertex $-1 $29 $71 #
ellipse-curve $-1 -208.6614173228350069 0 7.381889763779530433 0 0 1 226.3779527559059943 0 0 1 I I #
loop $-1 $-1 $41 $50 #
face $-1 $68 $30 $2 $-1 $72 reversed single #
point $-1 34.75717489488189926 0 1.968503937007870075 #
face $-1 $73 $74 $2 $-1 $75 reversed single #
loop $-1 $76 $77 $33 #
torus-surface $-1 -208.6614173228350069 0 -5.905511811023620439 0 0 1 261.8110236220470028 3.93700787401574992 1 0 0 forward_v I I I I #
loop $-1 $-1 $78 $20 #
coedge $-1 $56 $56 $79 $80 reversed $34 $-1 #
coedge $-1 $57 $57 $81 $82 reversed $36 $-1 #
coedge $-1 $58 $58 $37 $59 forward $83 $-1 #
edge $-1 $84 0 $84 6.283185307179586232 $37 $85 forward 7 unknown #
coedge $-1 $60 $60 $38 $61 forward $86 $-1 #
edge $-1 $87 0 $87 6.283185307179586232 $38 $88 forward 7 unknown #
loop $-1 $89 $39 $90 #
vertex $-1 $40 $91 #
ellipse-curve $-1 -208.6614173228350069 0 1.136659198101529933 0 0 -1 299.4449487967650043 0 0 1 I I #
vertex $-1 $42 $92 #
ellipse-curve $-1 -208.6614173228350069 0 1.968503937007870075 0 0 1 250 0 0 1 I I #
loop $-1 $-1 $93 $68 #
face $-1 $94 $43 $2 $-1 $95 reversed single #
point $-1 49.21259842519690153 0 5.905511811023620439 #
face $-1 $50 $96 $2 $-1 $97 reversed single #
point $-1 17.71653543307089862 0 7.381889763779530433 #
plane-surface $-1 38.04787878602360252 0 1.968503937007870075 0 0 -1 -1 0 0 forward_v I I I I #
face $-1 $98 $99 $2 $-1 $100 forward single #
loop $-1 $101 $102 $52 #
torus-surface $-1 -208.6614173228350069 0 -16.92913385826770067 0 0 -1 264.960629921260022 0.7874015748031499839 -1 0 0 forward_v I I I I #
loop $-1 $-1 $103 $33 #
coedge $-1 $77 $77 $104 $105 reversed $53 $-1 #
coedge $-1 $78 $78 $106 $107 forward $55 $-1 #
coedge $-1 $79 $79 $56 $80 forward $108 $-1 #
edge $-1 $109 0 $109 6.283185307179586232 $56 $110 forward 7 unknown #
coedge $-1 $81 $81 $57 $82 forward $111 $-1 #
edge $-1 $112 0 $112 6.283185307179586232 $57 $113 forward 7 unknown #
loop $-1 $114 $58 $115 #
vertex $-1 $59 $116 #
ellipse-curve $-1 -208.6614173228350069 0 -1.968503937007870075 0 0 -1 -295.756045381865988 0 0 1 I I #
loop $-1 $117 $60 $118 #
vertex $-1 $61 $119 #
ellipse-curve $-1 -208.6614173228350069 0 1.968503937007870075 0 0 1 295.756045381865988 0 0 1 I I #
loop $-1 $-1 $120 $90 #
face $-1 $121 $62 $2 $-1 $122 forward single #
point $-1 90.78353147393069378 0 1.136659198101529933 #
point $-1 41.33858267716529866 0 1.968503937007870075 #
coedge $-1 $93 $93 $123 $124 forward $67 $-1 #
face $-1 $118 $125 $2 $-1 $126 forward single #
plane-surface $-1 51.18110236220469744 0 5.905511811023620439 0 0 -1 -1 0 0 forward_v I I I I #
loop $-1 $46 $127 $70 #
plane-surface $-1 8.85826771653542977 0 7.381889763779530433 0 0 -1 -1 0 0 forward_v I I I I #
face $-1 $128 $129 $2 $-1 $130 reversed single #
loop $-1 $131 $132 $73 #
torus-surface $-1 -208.6614173228350069 0 -18.50393700787400064 0 0 1 266.53543307086602 1.181102362204720091 1 0 0 forward_v I I I I #
loop $-1 $-1 $133 $52 #
coedge $-1 $102 $102 $134 $135 reversed $74 $-1 #
coedge $-1 $103 $103 $136 $137 reversed $76 $-1 #
coedge $-1 $104 $104 $77 $105 forward $138 $-1 #
edge $-1 $139 0 $139 6.283185307179586232 $77 $140 forward 7 unknown #
coedge $-1 $106 $106 $78 $107 reversed $141 $-1 #
edge $-1 $142 0 $142 6.283185307179586232 $78 $143 forward 7 unknown #
loop $-1 $-1 $79 $144 #
vertex $-1 $80 $145 #
ellipse-curve $-1 -208.6614173228350069 0 -1.968503937007870075 0 0 1 243.4185922177169914 0 0 1 I I #
loop $-1 $146 $81 $147 #
vertex $-1 $82 $148 #
ellipse-curve $-1 -208.6614173228350069 0 -1.136659198101529933 0 0 1 -299.4449487967650043 0 0 1 I I #
loop $-1 $-1 $149 $115 #
face $-1 $150 $83 $2 $-1 $151 reversed single #
point $-1 -504.4174627046999717 0 -1.968503937007870075 #
loop $-1 $-1 $152 $118 #
face $-1 $90 $86 $2 $-1 $153 reversed single #
point $-1 87.09462805903109484 0 1.968503937007870075 #
coedge $-1 $120 $120 $154 $155 forward $89 $-1 #
face $-1 $156 $157 $2 $-1 $158 reversed single #
cone-surface $-1 -208.6614173228350069 0 1.476377952755909995 0 0 -1 -298.5461374562399897 0 0 1 I I 0.9354143466941660101 0.3535533905914720054 298.5461374562399897 forward I I I I #
coedge $-1 $123 $123 $93 $124 reversed $159 $-1 #
edge $-1 $160 0 $160 6.283185307179586232 $93 $161 forward 7 unknown #
loop $-1 $159 $162 $94 #
cone-surface $-1 -208.6614173228350069 0 3.93700787401574992 0 0 1 261.8110236220470028 0 0 1 I I 0 1 261.8110236220470028 forward I I I I #
coedge $-1 $127 $127 $163 $164 reversed $96 $-1 #
face $-1 $165 $166 $2 $-1 $167 reversed single #
loop $-1 $168 $169 $98 #
torus-surface $-1 -208.6614173228350069 0 -3.149606299212599936 0 0 1 268.8976377952760117 1.181102362204720091 1 0 0 forward_v I I I I #
loop $-1 $-1 $170 $73 #
coedge $-1 $132 $132 $171 $172 reversed $99 $-1 #
coedge $-1 $133 $133 $173 $174 reversed $101 $-1 #
coedge $-1 $134 $134 $102 $135 forward $175 $-1 #
edge $-1 $176 0 $176 6.283185307179586232 $102 $177 forward 7 unknown #
coedge $-1 $136 $136 $103 $137 forward $178 $-1 #
edge $-1 $179 0 $179 6.283185307179586232 $103 $180 forward 7 unknown #
loop $-1 $108 $104 $144 #
vertex $-1 $105 $181 #
ellipse-curve $-1 -208.6614173228350069 0 -1.968503937007870075 0 0 -1 261.8110236220470028 0 0 1 I I #
loop $-1 $182 $106 $183 #
vertex $-1 $107 $184 #
ellipse-curve $-1 -208.6614173228350069 0 -7.381889763779530433 0 0 1 226.3779527559059943 0 0 1 I I #
face $-1 $183 $138 $2 $-1 $185 reversed single #
point $-1 34.75717489488189926 0 -1.968503937007870075 #
loop $-1 $-1 $186 $147 #
face $-1 $115 $111 $2 $-1 $187 forward single #
point $-1 -508.1063661196000112 0 -1.136659198101529933 #
coedge $-1 $149 $149 $188 $189 forward $114 $-1 #
face $-1 $190 $191 $2 $-1 $192 forward single #
plane-surface $-1 73.81889763779530256 0 -1.968503937007870075 0 0 1 1 0 0 forward_v I I I I #
coedge $-1 $152 $152 $193 $194 forward $117 $-1 #
plane-surface $-1 70.866141732283495 0 1.968503937007870075 0 0 -1 -1 0 0 forward_v I I I I #
coedge $-1 $154 $154 $120 $155 reversed $195 $-1 #
edge $-1 $196 0 $196 6.283185307179586232 $120 $197 forward 7 unknown #
face $-1 $198 $199 $2 $-1 $200 reversed single #
loop $-1 $195 $201 $121 #
plane-surface $-1 116.459523283012004 0 0.9842519685039370358 0 0 -1 -1 0 0 forward_v I I I I #
loop $-1 $-1 $123 $94 #
vertex $-1 $124 $202 #
ellipse-curve $-1 -208.6614173228350069 0 5.905511811023620439 0 0 1 261.8110236220470028 0 0 1 I I #
coedge $-1 $162 $162 $203 $204 forward $125 $-1 #
coedge $-1 $163 $163 $127 $164 forward $205 $-1 #
edge $-1 $206 0 $206 6.283185307179586232 $163 $207 forward 7 unknown #
face $-1 $208 $209 $2 $-1 $210 reversed single #
loop $-1 $211 $212 $128 #
torus-surface $-1 -208.6614173228350069 0 -12.79527559055119923 0 0 1 338.5826771653540277 11.81102362204720002 1 0 0 forward_v I I I I #
loop $-1 $-1 $188 $98 #
coedge $-1 $169 $169 $213 $214 reversed $129 $-1 #
coedge $-1 $170 $170 $215 $216 reversed $131 $-1 #
coedge $-1 $171 $171 $132 $172 forward $217 $-1 #
edge $-1 $218 0 $218 6.283185307179586232 $132 $219 forward 7 unknown #
coedge $-1 $173 $173 $133 $174 forward $220 $-1 #
edge $-1 $221 0 $221 6.283185307179586232 $133 $222 forward 7 unknown #
loop $-1 $178 $134 $223 #
vertex $-1 $135 $224 #
ellipse-curve $-1 -208.6614173228350069 0 -16.92913385826770067 0 0 -1 -265.7480314960629926 0 0 1 I I #
loop $-1 $-1 $136 $223 #
vertex $-1 $137 $225 #
ellipse-curve $-1 -208.6614173228350069 0 -5.905511811023620439 0 0 1 265.7480314960629926 0 0 1 I I #
point $-1 53.14960629921259994 0 -1.968503937007870075 #
loop $-1 $-1 $226 $183 #
face $-1 $-1 $141 $2 $-1 $227 reversed single #
point $-1 17.71653543307089862 0 -7.381889763779530433 #
plane-surface $-1 45.9218945340550988 0 -1.968503937007870075 0 0 1 1 0 0 forward_v I I I I #
coedge $-1 $186 $186 $228 $229 reversed $146 $-1 #
cone-surface $-1 -208.6614173228350069 0 -1.476377952755909995 0 0 1 298.5461374562399897 0 0 1 I I 0.9354143466941660101 0.3535533905914720054 298.5461374562399897 forward I I I I #
coedge $-1 $188 $188 $149 $189 reversed $168 $-1 #
edge $-1 $230 0 $230 6.283185307179586232 $188 $231 forward 7 unknown #
face $-1 $232 $217 $2 $-1 $233 reversed single #
loop $-1 $234 $213 $150 #
cone-surface $-1 -208.6614173228350069 0 -10.82677165354330029 0 0 1 267.7165354330709874 0 0 1 I I 0 1 267.7165354330709874 forward I I I I #
coedge $-1 $193 $193 $152 $194 reversed $235 $-1 #
edge $-1 $236 0 $236 6.283185307179586232 $193 $237 forward 7 unknown #
loop $-1 $-1 $154 $121 #
vertex $-1 $155 $238 #
ellipse-curve $-1 -208.6614173228350069 0 0.9842519685039370358 0 0 1 299.8481804242910016 0 0 1 I I #
face $-1 $239 $240 $2 $-1 $241 reversed single #
loop $-1 $242 $243 $156 #
plane-surface $-1 149.6062992125980031 0 12.79527559055119923 0 0 -1 -1 0 0 forward_v I I I I #
coedge $-1 $201 $201 $244 $245 forward $157 $-1 #
point $-1 53.14960629921259994 0 5.905511811023620439 #
coedge $-1 $203 $203 $162 $204 reversed $246 $-1 #
edge $-1 $247 0 $247 6.283185307179586232 $203 $248 forward 7 unknown #
loop $-1 $-1 $163 $249 #
vertex $-1 $164 $250 #
ellipse-curve $-1 -208.6614173228350069 0 7.381889763779530433 0 0 1 208.6614173228350069 0 0 1 I I #
face $-1 $251 $252 $2 $-1 $253 reversed single #
loop $-1 $254 $255 $165 #
torus-surface $-1 -208.6614173228350069 0 -13.97637795275590022 0 0 1 351.7269798221799988 1.181102362204720091 1 0 0 forward_v I I I I #
loop $-1 $-1 $256 $128 #
coedge $-1 $212 $212 $257 $258 reversed $166 $-1 #
coedge $-1 $213 $213 $169 $214 forward $191 $-1 #
edge $-1 $259 0 $259 6.283185307179586232 $169 $260 forward 7 unknown #
coedge $-1 $215 $215 $170 $216 forward $234 $-1 #
edge $-1 $261 0 $261 6.283185307179586232 $170 $262 forward 7 unknown #
loop $-1 $263 $171 $190 #
vertex $-1 $172 $264 #
ellipse-curve $-1 -208.6614173228350069 0 -19.68503937007870164 0 0 -1 266.53543307086602 0 0 1 I I #
loop $-1 $265 $173 $266 #
vertex $-1 $174 $267 #
ellipse-curve $-1 -208.6614173228350069 0 -17.71653543307089862 0 0 1 -264.960629921260022 0 0 1 I I #
face $-1 $144 $175 $2 $-1 $268 reversed single #
point $-1 -474.4094488188979994 0 -16.92913385826770067 #
point $-1 57.08661417322839782 0 -5.905511811023620439 #
coedge $-1 $226 $226 $269 $270 forward $182 $-1 #
plane-surface $-1 8.85826771653542977 0 -7.381889763779530433 0 0 1 1 0 0 forward_v I I I I #
coedge $-1 $228 $228 $186 $229 forward $271 $-1 #
edge $-1 $272 0 $272 6.283185307179586232 $228 $273 forward 7 unknown #
vertex $-1 $189 $274 #
ellipse-curve $-1 -208.6614173228350069 0 -1.968503937007870075 0 0 1 268.8976377952760117 0 0 1 I I #
face $-1 $266 $275 $2 $-1 $276 reversed single #
plane-surface $-1 52.16535433070870198 0 -19.68503937007870164 0 0 1 1 0 0 forward_v I I I I #
loop $-1 $-1 $215 $150 #
loop $-1 $246 $193 $277 #
vertex $-1 $194 $278 #
ellipse-curve $-1 -208.6614173228350069 0 1.968503937007870075 0 0 -1 -262.5984251968499734 0 0 1 I I #
point $-1 91.18676310145670527 0 0.9842519685039370358 #
face $-1 $279 $280 $2 $-1 $281 reversed single #
loop $-1 $282 $283 $198 #
cone-surface $-1 -208.6614173228350069 0 17.2244094488188999 0 0 -1 -366.1417322834649895 0 0 1 I I 0 1 366.1417322834649895 forward I I I I #
loop $-1 $-1 $284 $156 #
coedge $-1 $243 $243 $285 $286 forward $199 $-1 #
coedge $-1 $244 $244 $201 $245 reversed $287 $-1 #
edge $-1 $288 0 $288 6.283185307179586232 $244 $289 forward 7 unknown #
loop $-1 $-1 $203 $277 #
vertex $-1 $204 $290 #
ellipse-curve $-1 -208.6614173228350069 0 2.755905511811020059 0 0 1 -261.8110236220470028 0 0 1 I I #
face $-1 $70 $291 $2 $-1 $292 reversed single #
point $-1 0 0 7.381889763779530433 #
face $-1 $293 $294 $2 $-1 $295 reversed single #
loop $-1 $296 $297 $208 #
torus-surface $-1 -208.6614173228350069 0 -21.85094939280070037 0 0 -1 365.1615120664860115 3.149606299212599936 -1 0 0 forward_v I I I I #
loop $-1 $-1 $298 $165 #
coedge $-1 $255 $255 $299 $300 reversed $209 $-1 #
coedge $-1 $256 $256 $301 $302 reversed $211 $-1 #
coedge $-1 $257 $257 $212 $258 forward $303 $-1 #
edge $-1 $304 0 $304 6.283185307179586232 $212 $305 forward 7 unknown #
vertex $-1 $214 $306 #
ellipse-curve $-1 -208.6614173228350069 0 -3.149606299212599936 0 0 -1 267.7165354330709874 0 0 1 I I #
vertex $-1 $216 $307 #
ellipse-curve $-1 -208.6614173228350069 0 -18.50393700787400064 0 0 1 267.7165354330709874 0 0 1 I I #
loop $-1 $-1 $308 $190 #
point $-1 57.87401574803150339 0 -19.68503937007870164 #
loop $-1 $-1 $309 $266 #
face $-1 $223 $220 $2 $-1 $310 reversed single #
point $-1 -473.622047244094972 0 -17.71653543307089862 #
cone-surface $-1 -208.6614173228350069 0 -9.842519685039370358 0 0 -1 -265.7480314960629926 0 0 1 I I 0 1 265.7480314960629926 forward I I I I #
coedge $-1 $269 $269 $226 $270 reversed $291 $-1 #
edge $-1 $311 0 $311 6.283185307179586232 $269 $312 forward 7 unknown #
loop $-1 $-1 $228 $313 #
vertex $-1 $229 $314 #
ellipse-curve $-1 -208.6614173228350069 0 -0.9842519685039370358 0 0 1 299.8481804242910016 0 0 1 I I #
point $-1 60.23622047244099775 0 -1.968503937007870075 #
loop $-1 $315 $316 $232 #
cone-surface $-1 -208.6614173228350069 0 -18.70078740157480013 0 0 -1 -253.9370078740159897 0 0 1 I I 0 1 253.9370078740159897 forward I I I I #
face $-1 $249 $235 $2 $-1 $317 reversed single #
point $-1 -471.2598425196849803 0 1.968503937007870075 #
face $-1 $318 $319 $2 $-1 $320 forward single #
loop $-1 $321 $322 $239 #
plane-surface $-1 158.4645669291340084 0 21.65354330708660058 0 0 -1 -1 0 0 forward_v I I I I #
loop $-1 $-1 $323 $198 #
coedge $-1 $283 $283 $324 $325 forward $240 $-1 #
coedge $-1 $284 $284 $326 $327 reversed $242 $-1 #
coedge $-1 $285 $285 $243 $286 reversed $328 $-1 #
edge $-1 $329 0 $329 6.283185307179586232 $285 $330 forward 7 unknown #
loop $-1 $-1 $244 $293 #
vertex $-1 $245 $331 #
ellipse-curve $-1 -208.6614173228350069 0 0.9842519685039370358 0 0 1 -338.5826771653540277 0 0 1 I I #
point $-1 -470.4724409448820097 0 2.755905511811020059 #
loop $-1 $205 $269 $249 #
cone-surface $-1 -208.6614173228350069 0 0 0 0 -1 -208.6614173228350069 0 0 1 I I 0 1 208.6614173228350069 forward I I I I #
face $-1 $277 $332 $2 $-1 $333 reversed single #
loop $-1 $328 $324 $251 #
torus-surface $-1 -208.6614173228350069 0 15.94488188976379917 0 0 -1 362.9921259842520271 3.149606299212599936 -1 0 0 forward_v I I I I #
loop $-1 $-1 $334 $208 #
coedge $-1 $297 $297 $335 $336 reversed $252 $-1 #
coedge $-1 $298 $298 $337 $338 reversed $254 $-1 #
coedge $-1 $299 $299 $255 $300 forward $339 $-1 #
edge $-1 $340 0 $340 6.283185307179586232 $255 $341 forward 7 unknown #
coedge $-1 $301 $301 $256 $302 forward $342 $-1 #
edge $-1 $343 0 $343 6.283185307179586232 $256 $344 forward 7 unknown #
loop $-1 $271 $257 $313 #
vertex $-1 $258 $345 #
ellipse-curve $-1 -208.6614173228350069 0 -0.9842519685039370358 0 0 -1 338.5826771653540277 0 0 1 I I #
point $-1 59.05511811023620083 0 -3.149606299212599936 #
point $-1 59.05511811023620083 0 -18.50393700787400064 #
coedge $-1 $308 $308 $316 $346 forward $263 $-1 #
coedge $-1 $309 $309 $347 $348 reversed $265 $-1 #
plane-surface $-1 51.18110236220469744 0 -17.71653543307089862 0 0 -1 -1 0 0 forward_v I I I I #
vertex $-1 $270 $349 #
ellipse-curve $-1 -208.6614173228350069 0 -7.381889763779530433 0 0 1 208.6614173228350069 0 0 1 I I #
face $-1 $147 $303 $2 $-1 $350 reversed single #
point $-1 91.18676310145670527 0 -0.9842519685039370358 #
loop $-1 $-1 $347 $232 #
coedge $-1 $316 $316 $308 $346 reversed $275 $-1 #
torus-surface $-1 -208.6614173228350069 0 2.755905511811020059 0 0 -1 262.5984251968499734 0.7874015748031499839 -1 0 0 forward_v I I I I #
face $-1 $351 $352 $2 $-1 $353 reversed single #
loop $-1 $354 $355 $279 #
cone-surface $-1 -208.6614173228350069 0 -0.9842519685039370358 0 0 -1 -369.2913385826769854 0 0 1 I I 0.05210304593902369968 0.9986417138312799757 369.2913385826769854 forward I I I I #
loop $-1 $-1 $356 $239 #
coedge $-1 $322 $322 $323 $357 reversed $280 $-1 #
coedge $-1 $323 $323 $322 $357 forward $282 $-1 #
coedge $-1 $324 $324 $283 $325 reversed $294 $-1 #
edge $-1 $358 0 $358 6.283185307179586232 $324 $359 forward 7 unknown #
coedge $-1 $326 $326 $284 $327 forward $332 $-1 #
edge $-1 $360 0 $360 6.283185307179586232 $326 $361 forward 7 unknown #
loop $-1 $-1 $285 $251 #
vertex $-1 $286 $362 #
ellipse-curve $-1 -208.6614173228350069 0 12.79527559055119923 0 0 1 -362.9921259842520271 0 0 1 I I #
point $-1 -547.2440944881890346 0 0.9842519685039370358 #
loop $-1 $287 $326 $293 #
torus-surface $-1 -208.6614173228350069 0 12.79527559055119923 0 0 -1 338.5826771653540277 11.81102362204720002 -1 0 0 forward_v I I I I #
coedge $-1 $334 $334 $363 $364 reversed $296 $-1 #
coedge $-1 $335 $335 $297 $336 forward $365 $-1 #
edge $-1 $366 0 $366 6.283185307179586232 $297 $367 forward 7 unknown #
coedge $-1 $337 $337 $298 $338 forward $368 $-1 #
edge $-1 $369 0 $369 6.283185307179586232 $298 $370 forward 7 unknown #
loop $-1 $342 $299 $371 #
vertex $-1 $300 $372 #
ellipse-curve $-1 -208.6614173228350069 0 -12.79527559055119923 0 0 -1 351.7269798221799988 0 0 1 I I #
loop $-1 $-1 $301 $371 #
vertex $-1 $302 $373 #
ellipse-curve $-1 -208.6614173228350069 0 -12.79527559055119923 0 0 1 350.3937007874019969 0 0 1 I I #
point $-1 129.9212598425199872 0 -0.9842519685039370358 #
edge $-1 $374 0 $374 6.283185307179586232 $308 $375 forward 7 unknown #
coedge $-1 $347 $347 $309 $348 forward $315 $-1 #
edge $-1 $376 0 $376 6.283185307179586232 $347 $377 forward 7 unknown #
point $-1 0 0 -7.381889763779530433 #
plane-surface $-1 116.459523283012004 0 -0.9842519685039370358 0 0 1 1 0 0 forward_v I I I I #
face $-1 $378 $379 $2 $-1 $380 reversed single #
loop $-1 $381 $382 $318 #
plane-surface $-1 160.8267716535430054 0 -23.62204724409449952 0 0 1 1 0 0 forward_v I I I I #
loop $-1 $-1 $383 $279 #
coedge $-1 $355 $355 $356 $384 reversed $319 $-1 #
coedge $-1 $356 $356 $355 $384 forward $321 $-1 #
edge $-1 $385 0 $385 6.283185307179586232 $323 $386 forward 7 unknown #
vertex $-1 $325 $387 #
ellipse-curve $-1 -208.6614173228350069 0 15.94488188976379917 0 0 -1 -366.1417322834649895 0 0 1 I I #
vertex $-1 $327 $388 #
ellipse-curve $-1 -208.6614173228350069 0 12.79527559055119923 0 0 1 350.3937007874019969 0 0 1 I I #
point $-1 -571.653543307087034 0 12.79527559055119923 #
coedge $-1 $363 $363 $334 $364 forward $379 $-1 #
edge $-1 $389 0 $389 6.283185307179586232 $334 $390 forward 7 unknown #
loop $-1 $368 $335 $378 #
vertex $-1 $336 $391 #
ellipse-curve $-1 -208.6614173228350069 0 -18.95418032565730115 0 0 -1 -366.3979378878279931 0 0 1 I I #
loop $-1 $-1 $337 $378 #
vertex $-1 $338 $392 #
ellipse-curve $-1 -208.6614173228350069 0 -12.89008955257719968 0 0 1 -352.1906395051830145 0 0 1 I I #
face $-1 $313 $339 $2 $-1 $393 reversed single #
point $-1 143.0655624993449919 0 -12.79527559055119923 #
point $-1 141.73228346456699 0 -12.79527559055119923 #
vertex $-1 $346 $394 #
ellipse-curve $-1 -208.6614173228350069 0 -19.68503937007870164 0 0 1 253.9370078740159897 0 0 1 I I #
vertex $-1 $348 $395 #
ellipse-curve $-1 -208.6614173228350069 0 -17.71653543307089862 0 0 1 253.9370078740159897 0 0 1 I I #
face $-1 $371 $365 $2 $-1 $396 reversed single #
loop $-1 $397 $363 $351 #
cone-surface $-1 -208.6614173228350069 0 -21.65354330708660058 0 0 -1 -368.307086614172988 0 0 1 I I 0.09950371902099680588 0.995037190209989042 368.307086614172988 forward I I I I #
loop $-1 $-1 $398 $318 #
coedge $-1 $382 $382 $383 $399 reversed $352 $-1 #
coedge $-1 $383 $383 $382 $399 forward $354 $-1 #
edge $-1 $400 0 $400 6.283185307179586232 $356 $401 forward 7 unknown #
vertex $-1 $357 $402 #
ellipse-curve $-1 -208.6614173228350069 0 21.65354330708660058 0 0 1 366.1417322834649895 0 0 1 I I #
point $-1 -574.80314960629903 0 15.94488188976379917 #
point $-1 141.73228346456699 0 12.79527559055119923 #
vertex $-1 $364 $403 #
ellipse-curve $-1 -208.6614173228350069 0 -21.53755185257699978 0 0 1 -368.2954874687220013 0 0 1 I I #
point $-1 -575.0593552106620336 0 -18.95418032565730115 #
point $-1 -560.8520568280180214 0 -12.89008955257719968 #
plane-surface $-1 142.519685039369989 0 -12.79527559055119923 0 0 1 1 0 0 forward_v I I I I #
point $-1 45.27559055118109654 0 -19.68503937007870164 #
point $-1 45.27559055118109654 0 -17.71653543307089862 #
cone-surface $-1 -208.6614173228350069 0 -16.24015748031499839 0 0 -1 -360.039370078739978 0 0 1 I I 0.9197241788180460231 0.3925651982759950087 360.039370078739978 forward I I I I #
loop $-1 $-1 $404 $351 #
coedge $-1 $398 $398 $404 $405 forward $381 $-1 #
edge $-1 $406 0 $406 6.283185307179586232 $383 $407 forward 7 unknown #
vertex $-1 $384 $408 #
ellipse-curve $-1 -208.6614173228350069 0 21.65354330708660058 0 0 1 368.110236220472018 0 0 1 I I #
point $-1 157.480314960630011 0 21.65354330708660058 #
point $-1 -576.9569047915570081 0 -21.53755185257699978 #
coedge $-1 $404 $404 $398 $405 reversed $397 $-1 #
edge $-1 $409 0 $409 6.283185307179586232 $398 $410 forward 7 unknown #
vertex $-1 $399 $411 #
ellipse-curve $-1 -208.6614173228350069 0 -23.62204724409449952 0 0 1 370.4724409448820097 0 0 1 I I #
point $-1 159.4488188976380059 0 21.65354330708660058 #
vertex $-1 $405 $412 #
ellipse-curve $-1 -208.6614173228350069 0 -23.62204724409449952 0 0 1 368.5039370078740149 0 0 1 I I #
point $-1 161.8110236220470028 0 -23.62204724409449952 #
point $-1 159.842519685039008 0 -23.62204724409449952 #
End-of-ACIS-data 