600 0 1 0           
110 GICL ACIS STEP Translator - Source: f:/data5/repository/Parasolid/NIST/misc/plain_rotor/plain_rotor.step - 6 0 13 ACIS 6.0.3 NT 24 Mon Apr 08 10:51:50 2002 
1 9.9999999999999995e-007 1e-010 
body $-1 $1 $-1 $-1 #
lump $-1 $-1 $2 $0 #
shell $-1 $-1 $-1 $3 $-1 $1 #
face $-1 $4 $5 $2 $-1 $6 reversed single #
face $-1 $7 $8 $2 $-1 $9 reversed single #
loop $-1 $10 $11 $3 #
torus-surface $-1 -5300.0000000000091 0 800.00000000000034 0 0 1 6182.8322423300115 749.99999999999966 1 0 0 forward_v I I I I #
face $-1 $12 $13 $2 $-1 $14 reversed single #
loop $-1 $15 $16 $4 #
torus-surface $-1 -5300.0000000000091 0 299.99999999999886 0 0 1 6350 250 1 0 0 forward_v I I I I #
loop $-1 $-1 $17 $3 #
coedge $-1 $11 $11 $18 $19 forward $5 $-1 #
face $-1 $20 $21 $2 $-1 $22 reversed single #
loop $-1 $23 $24 $7 #
torus-surface $-1 -5300.0000000000091 0 125.00000000000011 0 0 1 7578.3473354760063 100.00000000000004 1 0 0 forward_v I I I I #
loop $-1 $-1 $25 $4 #
coedge $-1 $16 $16 $26 $27 forward $8 $-1 #
coedge $-1 $17 $17 $28 $29 reversed $10 $-1 #
coedge $-1 $18 $18 $11 $19 reversed $30 $-1 #
edge $-1 $31 0 $31 6.2831853071795862 $11 $32 forward 7 unknown #
face $-1 $33 $34 $2 $-1 $35 reversed single #
loop $-1 $36 $37 $12 #
torus-surface $-1 -5300.0000000000091 0 -125.00000000000011 0 0 1 7578.3473354760063 100.00000000000004 1 0 0 forward_v I I I I #
loop $-1 $-1 $38 $7 #
coedge $-1 $24 $24 $39 $40 reversed $13 $-1 #
coedge $-1 $25 $25 $41 $42 reversed $15 $-1 #
coedge $-1 $26 $26 $16 $27 reversed $43 $-1 #
edge $-1 $44 0 $44 6.2831853071795862 $16 $45 forward 7 unknown #
coedge $-1 $28 $28 $17 $29 forward $46 $-1 #
edge $-1 $47 0 $47 6.2831853071795862 $17 $48 forward 7 unknown #
loop $-1 $49 $18 $50 #
vertex $-1 $19 $51 #
ellipse-curve $-1 -5300.0000000000091 0 49.999999999999901 0 0 1 6182.8322423300115 0 0 1 I I #
face $-1 $52 $53 $2 $-1 $54 reversed single #
loop $-1 $55 $56 $20 #
torus-surface $-1 -5300.0000000000091 0 -800.00000000000034 0 0 1 6182.8322423300115 749.99999999999966 1 0 0 forward_v I I I I #
loop $-1 $-1 $57 $12 #
coedge $-1 $37 $37 $58 $59 reversed $21 $-1 #
coedge $-1 $38 $38 $60 $61 reversed $23 $-1 #
coedge $-1 $39 $39 $24 $40 forward $62 $-1 #
edge $-1 $63 0 $63 6.2831853071795862 $24 $64 forward 7 unknown #
coedge $-1 $41 $41 $25 $42 forward $49 $-1 #
edge $-1 $65 0 $65 6.2831853071795862 $25 $66 forward 7 unknown #
loop $-1 $67 $26 $68 #
vertex $-1 $27 $69 #
ellipse-curve $-1 -5300.0000000000091 0 149.99999999999994 0 0 1 6550.0000000000118 0 0 1 I I #
loop $-1 $-1 $28 $70 #
vertex $-1 $29 $71 #
ellipse-curve $-1 -5300.0000000000091 0 187.50000000000006 0 0 1 5750.0000000000118 0 0 1 I I #
loop $-1 $-1 $41 $50 #
face $-1 $68 $30 $2 $-1 $72 reversed single #
point $-1 882.83224233000021 0 49.999999999999901 #
face $-1 $73 $74 $2 $-1 $75 reversed single #
loop $-1 $76 $77 $33 #
torus-surface $-1 -5300.0000000000091 0 -149.99999999999994 0 0 1 6649.9999999999936 100.00000000000004 1 0 0 forward_v I I I I #
loop $-1 $-1 $78 $20 #
coedge $-1 $56 $56 $79 $80 reversed $34 $-1 #
coedge $-1 $57 $57 $81 $82 reversed $36 $-1 #
coedge $-1 $58 $58 $37 $59 forward $83 $-1 #
edge $-1 $84 0 $84 6.2831853071795862 $37 $85 forward 7 unknown #
coedge $-1 $60 $60 $38 $61 forward $86 $-1 #
edge $-1 $87 0 $87 6.2831853071795862 $38 $88 forward 7 unknown #
loop $-1 $89 $39 $90 #
vertex $-1 $40 $91 #
ellipse-curve $-1 -5300.0000000000091 0 28.87114363177886 0 0 -1 7605.9016994378308 0 0 1 I I #
vertex $-1 $42 $92 #
ellipse-curve $-1 -5300.0000000000091 0 49.999999999999901 0 0 1 6350 0 0 1 I I #
loop $-1 $-1 $93 $68 #
face $-1 $94 $43 $2 $-1 $95 reversed single #
point $-1 1250.0000000000011 0 149.99999999999994 #
face $-1 $50 $96 $2 $-1 $97 reversed single #
point $-1 450.0000000000008 0 187.50000000000006 #
plane-surface $-1 966.41612116499948 0 49.999999999999901 0 0 -1 -25.399999999999999 0 0 forward_v I I I I #
face $-1 $98 $99 $2 $-1 $100 forward single #
loop $-1 $101 $102 $52 #
torus-surface $-1 -5300.0000000000091 0 -429.99999999999955 0 0 -1 6730.0000000000045 20.000000000000007 -1 0 0 forward_v I I I I #
loop $-1 $-1 $103 $33 #
coedge $-1 $77 $77 $104 $105 reversed $53 $-1 #
coedge $-1 $78 $78 $106 $107 forward $55 $-1 #
coedge $-1 $79 $79 $56 $80 forward $108 $-1 #
edge $-1 $109 0 $109 6.2831853071795862 $56 $110 forward 7 unknown #
coedge $-1 $81 $81 $57 $82 forward $111 $-1 #
edge $-1 $112 0 $112 6.2831853071795862 $57 $113 forward 7 unknown #
loop $-1 $114 $58 $115 #
vertex $-1 $59 $116 #
ellipse-curve $-1 -5300.0000000000091 0 -49.999999999999901 0 0 -1 -7512.2035526993959 0 0 1 I I #
loop $-1 $117 $60 $118 #
vertex $-1 $61 $119 #
ellipse-curve $-1 -5300.0000000000091 0 49.999999999999901 0 0 1 7512.2035526993959 0 0 1 I I #
loop $-1 $-1 $120 $90 #
face $-1 $121 $62 $2 $-1 $122 forward single #
point $-1 2305.9016994378394 0 28.87114363177886 #
point $-1 1049.9999999999986 0 49.999999999999901 #
coedge $-1 $93 $93 $123 $124 forward $67 $-1 #
face $-1 $118 $125 $2 $-1 $126 forward single #
plane-surface $-1 1299.9999999999993 0 149.99999999999994 0 0 -1 -25.399999999999999 0 0 forward_v I I I I #
loop $-1 $46 $127 $70 #
plane-surface $-1 224.99999999999991 0 187.50000000000006 0 0 -1 -25.399999999999999 0 0 forward_v I I I I #
face $-1 $128 $129 $2 $-1 $130 reversed single #
loop $-1 $131 $132 $73 #
torus-surface $-1 -5300.0000000000091 0 -469.9999999999996 0 0 1 6769.9999999999964 29.99999999999989 1 0 0 forward_v I I I I #
loop $-1 $-1 $133 $52 #
coedge $-1 $102 $102 $134 $135 reversed $74 $-1 #
coedge $-1 $103 $103 $136 $137 reversed $76 $-1 #
coedge $-1 $104 $104 $77 $105 forward $138 $-1 #
edge $-1 $139 0 $139 6.2831853071795862 $77 $140 forward 7 unknown #
coedge $-1 $106 $106 $78 $107 reversed $141 $-1 #
edge $-1 $142 0 $142 6.2831853071795862 $78 $143 forward 7 unknown #
loop $-1 $-1 $79 $144 #
vertex $-1 $80 $145 #
ellipse-curve $-1 -5300.0000000000091 0 -49.999999999999901 0 0 1 6182.8322423300115 0 0 1 I I #
loop $-1 $146 $81 $147 #
vertex $-1 $82 $148 #
ellipse-curve $-1 -5300.0000000000091 0 -28.87114363177886 0 0 1 -7605.9016994378308 0 0 1 I I #
loop $-1 $-1 $149 $115 #
face $-1 $150 $83 $2 $-1 $151 reversed single #
point $-1 -12812.203552699379 0 -49.999999999999901 #
loop $-1 $-1 $152 $118 #
face $-1 $90 $86 $2 $-1 $153 reversed single #
point $-1 2212.2035526993895 0 49.999999999999901 #
coedge $-1 $120 $120 $154 $155 forward $89 $-1 #
face $-1 $156 $157 $2 $-1 $158 reversed single #
cone-surface $-1 -5300.0000000000091 0 37.500000000000114 0 0 -1 -7583.0718913884957 0 0 1 I I 0.93541434620556441 0.35355339188419116 7583.0718913884957 forward I I I I #
coedge $-1 $123 $123 $93 $124 reversed $159 $-1 #
edge $-1 $160 0 $160 6.2831853071795862 $93 $161 forward 7 unknown #
loop $-1 $159 $162 $94 #
cone-surface $-1 -5300.0000000000091 0 100.00000000000004 0 0 1 6649.9999999999936 0 0 1 I I 0 1 6649.9999999999936 forward I I I I #
coedge $-1 $127 $127 $163 $164 reversed $96 $-1 #
face $-1 $165 $166 $2 $-1 $167 reversed single #
loop $-1 $168 $169 $98 #
torus-surface $-1 -5300.0000000000091 0 -80.000000000000028 0 0 1 6830.00000000001 29.99999999999989 1 0 0 forward_v I I I I #
loop $-1 $-1 $170 $73 #
coedge $-1 $132 $132 $171 $172 reversed $99 $-1 #
coedge $-1 $133 $133 $173 $174 reversed $101 $-1 #
coedge $-1 $134 $134 $102 $135 forward $175 $-1 #
edge $-1 $176 0 $176 6.2831853071795862 $102 $177 forward 7 unknown #
coedge $-1 $136 $136 $103 $137 forward $178 $-1 #
edge $-1 $179 0 $179 6.2831853071795862 $103 $180 forward 7 unknown #
loop $-1 $108 $104 $144 #
vertex $-1 $105 $181 #
ellipse-curve $-1 -5300.0000000000091 0 -49.999999999999901 0 0 -1 6649.9999999999936 0 0 1 I I #
loop $-1 $182 $106 $183 #
vertex $-1 $107 $184 #
ellipse-curve $-1 -5300.0000000000091 0 -187.50000000000006 0 0 1 5750.0000000000118 0 0 1 I I #
face $-1 $183 $138 $2 $-1 $185 reversed single #
point $-1 882.83224233000021 0 -49.999999999999901 #
loop $-1 $-1 $186 $147 #
face $-1 $115 $111 $2 $-1 $187 forward single #
point $-1 -12905.90169943784 0 -28.87114363177886 #
coedge $-1 $149 $149 $188 $189 forward $114 $-1 #
face $-1 $190 $191 $2 $-1 $192 forward single #
plane-surface $-1 1875.0000000000007 0 -49.999999999999901 0 0 1 25.399999999999999 0 0 forward_v I I I I #
coedge $-1 $152 $152 $193 $194 forward $117 $-1 #
plane-surface $-1 1800.0000000000007 0 49.999999999999901 0 0 -1 -25.399999999999999 0 0 forward_v I I I I #
coedge $-1 $154 $154 $120 $155 reversed $195 $-1 #
edge $-1 $196 0 $196 6.2831853071795862 $120 $197 forward 7 unknown #
face $-1 $198 $199 $2 $-1 $200 reversed single #
loop $-1 $195 $201 $121 #
plane-surface $-1 2958.0718913885048 0 25 0 0 -1 -25.399999999999999 0 0 forward_v I I I I #
loop $-1 $-1 $123 $94 #
vertex $-1 $124 $202 #
ellipse-curve $-1 -5300.0000000000091 0 149.99999999999994 0 0 1 6649.9999999999936 0 0 1 I I #
coedge $-1 $162 $162 $203 $204 forward $125 $-1 #
coedge $-1 $163 $163 $127 $164 forward $205 $-1 #
edge $-1 $206 0 $206 6.2831853071795862 $163 $207 forward 7 unknown #
face $-1 $208 $209 $2 $-1 $210 reversed single #
loop $-1 $211 $212 $128 #
torus-surface $-1 -5300.0000000000091 0 -325.00000000000045 0 0 1 8599.9999999999927 299.99999999999886 1 0 0 forward_v I I I I #
loop $-1 $-1 $188 $98 #
coedge $-1 $169 $169 $213 $214 reversed $129 $-1 #
coedge $-1 $170 $170 $215 $216 reversed $131 $-1 #
coedge $-1 $171 $171 $132 $172 forward $217 $-1 #
edge $-1 $218 0 $218 6.2831853071795862 $132 $219 forward 7 unknown #
coedge $-1 $173 $173 $133 $174 forward $220 $-1 #
edge $-1 $221 0 $221 6.2831853071795862 $133 $222 forward 7 unknown #
loop $-1 $178 $134 $223 #
vertex $-1 $135 $224 #
ellipse-curve $-1 -5300.0000000000091 0 -429.99999999999955 0 0 -1 -6750 0 0 1 I I #
loop $-1 $-1 $136 $223 #
vertex $-1 $137 $225 #
ellipse-curve $-1 -5300.0000000000091 0 -149.99999999999994 0 0 1 6750 0 0 1 I I #
point $-1 1350 0 -49.999999999999901 #
loop $-1 $-1 $226 $183 #
face $-1 $-1 $141 $2 $-1 $227 reversed single #
point $-1 450.0000000000008 0 -187.50000000000006 #
plane-surface $-1 1166.4161211649994 0 -49.999999999999901 0 0 1 25.399999999999999 0 0 forward_v I I I I #
coedge $-1 $186 $186 $228 $229 reversed $146 $-1 #
cone-surface $-1 -5300.0000000000091 0 -37.500000000000114 0 0 1 7583.0718913884957 0 0 1 I I 0.93541434620556441 0.35355339188419116 7583.0718913884957 forward I I I I #
coedge $-1 $188 $188 $149 $189 reversed $168 $-1 #
edge $-1 $230 0 $230 6.2831853071795862 $188 $231 forward 7 unknown #
face $-1 $232 $217 $2 $-1 $233 reversed single #
loop $-1 $234 $213 $150 #
cone-surface $-1 -5300.0000000000091 0 -274.99999999999983 0 0 1 6800.0000000000027 0 0 1 I I 0 1 6800.0000000000027 forward I I I I #
coedge $-1 $193 $193 $152 $194 reversed $235 $-1 #
edge $-1 $236 0 $236 6.2831853071795862 $193 $237 forward 7 unknown #
loop $-1 $-1 $154 $121 #
vertex $-1 $155 $238 #
ellipse-curve $-1 -5300.0000000000091 0 25 0 0 1 7616.1437827769914 0 0 1 I I #
face $-1 $239 $240 $2 $-1 $241 reversed single #
loop $-1 $242 $243 $156 #
plane-surface $-1 3799.9999999999891 0 325.00000000000045 0 0 -1 -25.399999999999999 0 0 forward_v I I I I #
coedge $-1 $201 $201 $244 $245 forward $157 $-1 #
point $-1 1350 0 149.99999999999994 #
coedge $-1 $203 $203 $162 $204 reversed $246 $-1 #
edge $-1 $247 0 $247 6.2831853071795862 $203 $248 forward 7 unknown #
loop $-1 $-1 $163 $249 #
vertex $-1 $164 $250 #
ellipse-curve $-1 -5300.0000000000091 0 187.50000000000006 0 0 1 5300.0000000000091 0 0 1 I I #
face $-1 $251 $252 $2 $-1 $253 reversed single #
loop $-1 $254 $255 $165 #
torus-surface $-1 -5300.0000000000091 0 -354.99999999999983 0 0 1 8933.8652874833715 29.99999999999989 1 0 0 forward_v I I I I #
loop $-1 $-1 $256 $128 #
coedge $-1 $212 $212 $257 $258 reversed $166 $-1 #
coedge $-1 $213 $213 $169 $214 forward $191 $-1 #
edge $-1 $259 0 $259 6.2831853071795862 $169 $260 forward 7 unknown #
coedge $-1 $215 $215 $170 $216 forward $234 $-1 #
edge $-1 $261 0 $261 6.2831853071795862 $170 $262 forward 7 unknown #
loop $-1 $263 $171 $190 #
vertex $-1 $172 $264 #
ellipse-curve $-1 -5300.0000000000091 0 -499.99999999999898 0 0 -1 6769.9999999999964 0 0 1 I I #
loop $-1 $265 $173 $266 #
vertex $-1 $174 $267 #
ellipse-curve $-1 -5300.0000000000091 0 -450.0000000000008 0 0 1 -6730.0000000000045 0 0 1 I I #
face $-1 $144 $175 $2 $-1 $268 reversed single #
point $-1 -12050.000000000009 0 -429.99999999999955 #
point $-1 1450.0000000000011 0 -149.99999999999994 #
coedge $-1 $226 $226 $269 $270 forward $182 $-1 #
plane-surface $-1 224.99999999999991 0 -187.50000000000006 0 0 1 25.399999999999999 0 0 forward_v I I I I #
coedge $-1 $228 $228 $186 $229 forward $271 $-1 #
edge $-1 $272 0 $272 6.2831853071795862 $228 $273 forward 7 unknown #
vertex $-1 $189 $274 #
ellipse-curve $-1 -5300.0000000000091 0 -49.999999999999901 0 0 1 6830.00000000001 0 0 1 I I #
face $-1 $266 $275 $2 $-1 $276 reversed single #
plane-surface $-1 1325.0000000000009 0 -499.99999999999898 0 0 1 25.399999999999999 0 0 forward_v I I I I #
loop $-1 $-1 $215 $150 #
loop $-1 $246 $193 $277 #
vertex $-1 $194 $278 #
ellipse-curve $-1 -5300.0000000000091 0 49.999999999999901 0 0 -1 -6669.9999999999891 0 0 1 I I #
point $-1 2316.1437827770001 0 25 #
face $-1 $279 $280 $2 $-1 $281 reversed single #
loop $-1 $282 $283 $198 #
cone-surface $-1 -5300.0000000000091 0 437.50000000000006 0 0 -1 -9300.0000000000109 0 0 1 I I 0 1 9300.0000000000109 forward I I I I #
loop $-1 $-1 $284 $156 #
coedge $-1 $243 $243 $285 $286 forward $199 $-1 #
coedge $-1 $244 $244 $201 $245 reversed $287 $-1 #
edge $-1 $288 0 $288 6.2831853071795862 $244 $289 forward 7 unknown #
loop $-1 $-1 $203 $277 #
vertex $-1 $204 $290 #
ellipse-curve $-1 -5300.0000000000091 0 69.999999999999901 0 0 1 -6649.9999999999936 0 0 1 I I #
face $-1 $70 $291 $2 $-1 $292 reversed single #
point $-1 0 0 187.50000000000006 #
face $-1 $293 $294 $2 $-1 $295 reversed single #
loop $-1 $296 $297 $208 #
torus-surface $-1 -5300.0000000000091 0 -555.01411457713778 0 0 -1 9275.1024064887442 80.000000000000028 -1 0 0 forward_v I I I I #
loop $-1 $-1 $298 $165 #
coedge $-1 $255 $255 $299 $300 reversed $209 $-1 #
coedge $-1 $256 $256 $301 $302 reversed $211 $-1 #
coedge $-1 $257 $257 $212 $258 forward $303 $-1 #
edge $-1 $304 0 $304 6.2831853071795862 $212 $305 forward 7 unknown #
vertex $-1 $214 $306 #
ellipse-curve $-1 -5300.0000000000091 0 -80.000000000000028 0 0 -1 6800.0000000000027 0 0 1 I I #
vertex $-1 $216 $307 #
ellipse-curve $-1 -5300.0000000000091 0 -469.9999999999996 0 0 1 6800.0000000000027 0 0 1 I I #
loop $-1 $-1 $308 $190 #
point $-1 1470 0 -499.99999999999898 #
loop $-1 $-1 $309 $266 #
face $-1 $223 $220 $2 $-1 $310 reversed single #
point $-1 -12030.000000000011 0 -450.0000000000008 #
cone-surface $-1 -5300.0000000000091 0 -250 0 0 -1 -6750 0 0 1 I I 0 1 6750 forward I I I I #
coedge $-1 $269 $269 $226 $270 reversed $291 $-1 #
edge $-1 $311 0 $311 6.2831853071795862 $269 $312 forward 7 unknown #
loop $-1 $-1 $228 $313 #
vertex $-1 $229 $314 #
ellipse-curve $-1 -5300.0000000000091 0 -25 0 0 1 7616.1437827769914 0 0 1 I I #
point $-1 1530.0000000000014 0 -49.999999999999901 #
loop $-1 $315 $316 $232 #
cone-surface $-1 -5300.0000000000091 0 -474.99999999999989 0 0 -1 -6450.0000000000055 0 0 1 I I 0 1 6450.0000000000055 forward I I I I #
face $-1 $249 $235 $2 $-1 $317 reversed single #
point $-1 -11969.999999999998 0 49.999999999999901 #
face $-1 $318 $319 $2 $-1 $320 forward single #
loop $-1 $321 $322 $239 #
plane-surface $-1 4025.0000000000036 0 549.99999999999966 0 0 -1 -25.399999999999999 0 0 forward_v I I I I #
loop $-1 $-1 $323 $198 #
coedge $-1 $283 $283 $324 $325 forward $240 $-1 #
coedge $-1 $284 $284 $326 $327 reversed $242 $-1 #
coedge $-1 $285 $285 $243 $286 reversed $328 $-1 #
edge $-1 $329 0 $329 6.2831853071795862 $285 $330 forward 7 unknown #
loop $-1 $-1 $244 $293 #
vertex $-1 $245 $331 #
ellipse-curve $-1 -5300.0000000000091 0 25 0 0 1 -8599.9999999999927 0 0 1 I I #
point $-1 -11950.000000000002 0 69.999999999999901 #
loop $-1 $205 $269 $249 #
cone-surface $-1 -5300.0000000000091 0 0 0 0 -1 -5300.0000000000091 0 0 1 I I 0 1 5300.0000000000091 forward I I I I #
face $-1 $277 $332 $2 $-1 $333 reversed single #
loop $-1 $328 $324 $251 #
torus-surface $-1 -5300.0000000000091 0 405.00000000000045 0 0 -1 9220.0000000000018 80.000000000000028 -1 0 0 forward_v I I I I #
loop $-1 $-1 $334 $208 #
coedge $-1 $297 $297 $335 $336 reversed $252 $-1 #
coedge $-1 $298 $298 $337 $338 reversed $254 $-1 #
coedge $-1 $299 $299 $255 $300 forward $339 $-1 #
edge $-1 $340 0 $340 6.2831853071795862 $255 $341 forward 7 unknown #
coedge $-1 $301 $301 $256 $302 forward $342 $-1 #
edge $-1 $343 0 $343 6.2831853071795862 $256 $344 forward 7 unknown #
loop $-1 $271 $257 $313 #
vertex $-1 $258 $345 #
ellipse-curve $-1 -5300.0000000000091 0 -25 0 0 -1 8599.9999999999927 0 0 1 I I #
point $-1 1499.9999999999993 0 -80.000000000000028 #
point $-1 1499.9999999999993 0 -469.9999999999996 #
coedge $-1 $308 $308 $316 $346 forward $263 $-1 #
coedge $-1 $309 $309 $347 $348 reversed $265 $-1 #
plane-surface $-1 1299.9999999999993 0 -450.0000000000008 0 0 -1 -25.399999999999999 0 0 forward_v I I I I #
vertex $-1 $270 $349 #
ellipse-curve $-1 -5300.0000000000091 0 -187.50000000000006 0 0 1 5300.0000000000091 0 0 1 I I #
face $-1 $147 $303 $2 $-1 $350 reversed single #
point $-1 2316.1437827770001 0 -25 #
loop $-1 $-1 $347 $232 #
coedge $-1 $316 $316 $308 $346 reversed $275 $-1 #
torus-surface $-1 -5300.0000000000091 0 69.999999999999901 0 0 -1 6669.9999999999891 20.000000000000007 -1 0 0 forward_v I I I I #
face $-1 $351 $352 $2 $-1 $353 reversed single #
loop $-1 $354 $355 $279 #
cone-surface $-1 -5300.0000000000091 0 -25 0 0 -1 -9379.9999999999945 0 0 1 I I 0.052103045879541232 0.99864171383438338 9379.9999999999945 forward I I I I #
loop $-1 $-1 $356 $239 #
coedge $-1 $322 $322 $323 $357 reversed $280 $-1 #
coedge $-1 $323 $323 $322 $357 forward $282 $-1 #
coedge $-1 $324 $324 $283 $325 reversed $294 $-1 #
edge $-1 $358 0 $358 6.2831853071795862 $324 $359 forward 7 unknown #
coedge $-1 $326 $326 $284 $327 forward $332 $-1 #
edge $-1 $360 0 $360 6.2831853071795862 $326 $361 forward 7 unknown #
loop $-1 $-1 $285 $251 #
vertex $-1 $286 $362 #
ellipse-curve $-1 -5300.0000000000091 0 325.00000000000045 0 0 1 -9220.0000000000018 0 0 1 I I #
point $-1 -13900 0 25 #
loop $-1 $287 $326 $293 #
torus-surface $-1 -5300.0000000000091 0 325.00000000000045 0 0 -1 8599.9999999999927 299.99999999999886 -1 0 0 forward_v I I I I #
coedge $-1 $334 $334 $363 $364 reversed $296 $-1 #
coedge $-1 $335 $335 $297 $336 forward $365 $-1 #
edge $-1 $366 0 $366 6.2831853071795862 $297 $367 forward 7 unknown #
coedge $-1 $337 $337 $298 $338 forward $368 $-1 #
edge $-1 $369 0 $369 6.2831853071795862 $298 $370 forward 7 unknown #
loop $-1 $342 $299 $371 #
vertex $-1 $300 $372 #
ellipse-curve $-1 -5300.0000000000091 0 -325.00000000000045 0 0 -1 8933.8652874833715 0 0 1 I I #
loop $-1 $-1 $301 $371 #
vertex $-1 $302 $373 #
ellipse-curve $-1 -5300.0000000000091 0 -325.00000000000045 0 0 1 8900.0000000000109 0 0 1 I I #
point $-1 3300.0000000000073 0 -25 #
edge $-1 $374 0 $374 6.2831853071795862 $308 $375 forward 7 unknown #
coedge $-1 $347 $347 $309 $348 forward $315 $-1 #
edge $-1 $376 0 $376 6.2831853071795862 $347 $377 forward 7 unknown #
point $-1 0 0 -187.50000000000006 #
plane-surface $-1 2958.0718913885048 0 -25 0 0 1 25.399999999999999 0 0 forward_v I I I I #
face $-1 $378 $379 $2 $-1 $380 reversed single #
loop $-1 $381 $382 $318 #
plane-surface $-1 4084.9999999999923 0 -600.00000000000023 0 0 1 25.399999999999999 0 0 forward_v I I I I #
loop $-1 $-1 $383 $279 #
coedge $-1 $355 $355 $356 $384 reversed $319 $-1 #
coedge $-1 $356 $356 $355 $384 forward $321 $-1 #
edge $-1 $385 0 $385 6.2831853071795862 $323 $386 forward 7 unknown #
vertex $-1 $325 $387 #
ellipse-curve $-1 -5300.0000000000091 0 405.00000000000045 0 0 -1 -9300.0000000000109 0 0 1 I I #
vertex $-1 $327 $388 #
ellipse-curve $-1 -5300.0000000000091 0 325.00000000000045 0 0 1 8900.0000000000109 0 0 1 I I #
point $-1 -14520.000000000009 0 325.00000000000045 #
coedge $-1 $363 $363 $334 $364 forward $379 $-1 #
edge $-1 $389 0 $389 6.2831853071795862 $334 $390 forward 7 unknown #
loop $-1 $368 $335 $378 #
vertex $-1 $336 $391 #
ellipse-curve $-1 -5300.0000000000091 0 -481.43618027169543 0 0 -1 -9306.5076223508313 0 0 1 I I #
loop $-1 $-1 $337 $378 #
vertex $-1 $338 $392 #
ellipse-curve $-1 -5300.0000000000091 0 -327.40827463546083 0 0 1 -8945.6422434316482 0 0 1 I I #
face $-1 $313 $339 $2 $-1 $393 reversed single #
point $-1 3633.8652874833624 0 -325.00000000000045 #
point $-1 3600.0000000000014 0 -325.00000000000045 #
vertex $-1 $346 $394 #
ellipse-curve $-1 -5300.0000000000091 0 -499.99999999999898 0 0 1 6450.0000000000055 0 0 1 I I #
vertex $-1 $348 $395 #
ellipse-curve $-1 -5300.0000000000091 0 -450.0000000000008 0 0 1 6450.0000000000055 0 0 1 I I #
face $-1 $371 $365 $2 $-1 $396 reversed single #
loop $-1 $397 $363 $351 #
cone-surface $-1 -5300.0000000000091 0 -549.99999999999966 0 0 -1 -9354.9999999999927 0 0 1 I I 0.099503718907673927 0.99503719022132164 9354.9999999999927 forward I I I I #
loop $-1 $-1 $398 $318 #
coedge $-1 $382 $382 $383 $399 reversed $352 $-1 #
coedge $-1 $383 $383 $382 $399 forward $354 $-1 #
edge $-1 $400 0 $400 6.2831853071795862 $356 $401 forward 7 unknown #
vertex $-1 $357 $402 #
ellipse-curve $-1 -5300.0000000000091 0 549.99999999999966 0 0 1 9300.0000000000109 0 0 1 I I #
point $-1 -14599.999999999995 0 405.00000000000045 #
point $-1 3600.0000000000014 0 325.00000000000045 #
vertex $-1 $364 $403 #
ellipse-curve $-1 -5300.0000000000091 0 -547.05381705545574 0 0 1 -9354.7053817055385 0 0 1 I I #
point $-1 -14606.507622350815 0 -481.43618027169543 #
point $-1 -14245.642243431657 0 -327.40827463546083 #
plane-surface $-1 3619.9999999999977 0 -325.00000000000045 0 0 1 25.399999999999999 0 0 forward_v I I I I #
point $-1 1149.9999999999998 0 -499.99999999999898 #
point $-1 1149.9999999999998 0 -450.0000000000008 #
cone-surface $-1 -5300.0000000000091 0 -412.50000000000091 0 0 -1 -9144.9999999999945 0 0 1 I I 0.91972417829439412 0.39256519950283619 9144.9999999999945 forward I I I I #
loop $-1 $-1 $404 $351 #
coedge $-1 $398 $398 $404 $405 forward $381 $-1 #
edge $-1 $406 0 $406 6.2831853071795862 $383 $407 forward 7 unknown #
vertex $-1 $384 $408 #
ellipse-curve $-1 -5300.0000000000091 0 549.99999999999966 0 0 1 9349.9999999999891 0 0 1 I I #
point $-1 4000.0000000000023 0 549.99999999999966 #
point $-1 -14654.705381705548 0 -547.05381705545574 #
coedge $-1 $404 $404 $398 $405 reversed $397 $-1 #
edge $-1 $409 0 $409 6.2831853071795862 $398 $410 forward 7 unknown #
vertex $-1 $399 $411 #
ellipse-curve $-1 -5300.0000000000091 0 -600.00000000000023 0 0 1 9410.0000000000018 0 0 1 I I #
point $-1 4050.000000000005 0 549.99999999999966 #
vertex $-1 $405 $412 #
ellipse-curve $-1 -5300.0000000000091 0 -600.00000000000023 0 0 1 9360 0 0 1 I I #
point $-1 4109.9999999999936 0 -600.00000000000023 #
point $-1 4059.9999999999905 0 -600.00000000000023 #
End-of-ACIS-data 