600 0 2 0           
34 FBMach with ACIS3D/Toolkit - 6.0.3 13 ACIS 6.0.3 NT 24 Mon Apr 16 11:11:55 2001 
1 9.9999999999999995e-007 1e-010 
body $2 $3 $-1 $4 #
bdycol-kcp $-1 1 7 $5 $6 $7 $8 $9 $10 $11 #
model_id-kcp-attrib $-1 $-1 $-1 $0 1 987433870 187 -1715798015 1 #
lump $-1 $-1 $12 $0 #
transform $-1 1 0 0 0 1 0 0 0 1 0 0 0 1 no_rotate no_reflect no_shear #
body $13 $14 $-1 $15 #
body $16 $17 $-1 $18 #
body $19 $20 $-1 $21 #
body $22 $23 $-1 $24 #
body $25 $26 $-1 $27 #
body $28 $29 $-1 $30 #
body $31 $32 $-1 $33 #
shell $-1 $-1 $-1 $34 $-1 $3 #
model_id-kcp-attrib $-1 $-1 $-1 $5 1 987433870 281 -1726414846 1 #
lump $-1 $-1 $35 $5 #
transform $-1 1 0 0 0 1 0 0 0 1 -208.66141732283498 0 -0.98425196850394947 1 no_rotate no_reflect no_shear #
rgb_color-st-attrib $-1 $36 $-1 $6 0.5 1 1 #
lump $-1 $-1 $37 $6 #
transform $-1 -1 0 -1.2246063538223773e-016 0 1 0 1.2246063538223773e-016 0 -1 -208.66141732283501 0 2.0436442619099145e-016 1 rotate no_reflect no_shear #
rgb_color-st-attrib $-1 $38 $-1 $7 0.5 1 1 #
lump $-1 $-1 $39 $7 #
transform $-1 -1 0 -1.2246063538223773e-016 0 1 0 1.2246063538223773e-016 0 -1 -208.66141732283501 0 -18.7007874015748 1 rotate no_reflect no_shear #
rgb_color-st-attrib $-1 $40 $-1 $8 1 0.5 1 #
lump $-1 $-1 $41 $8 #
transform $-1 1 0 0 0 1 0 0 0 1 -208.66141732283498 0 -0.98425196850394947 1 no_rotate no_reflect no_shear #
rgb_color-st-attrib $-1 $42 $-1 $9 0 0 1 #
lump $-1 $-1 $43 $9 #
transform $-1 1 0 0 0 1 0 0 0 1 -208.66141732283498 0 -0.98425196850394947 1 no_rotate no_reflect no_shear #
rgb_color-st-attrib $-1 $44 $-1 $10 1 0.5 1 #
lump $-1 $-1 $45 $10 #
transform $-1 1 0 0 0 1 0 0 0 1 -208.66141732283498 0 -0.98425196850394947 1 no_rotate no_reflect no_shear #
rgb_color-st-attrib $-1 $46 $-1 $11 0.5 0.5 1 #
lump $-1 $-1 $47 $11 #
transform $-1 1 0 0 0 1 0 0 0 1 -208.66141732283498 0 -0.98425196850394947 1 no_rotate no_reflect no_shear #
face $48 $49 $50 $12 $-1 $51 reversed single #
shell $-1 $-1 $-1 $52 $-1 $14 #
model_id-kcp-attrib $-1 $-1 $16 $6 1 987433870 2703 -1718681597 1 #
shell $-1 $-1 $-1 $53 $-1 $17 #
model_id-kcp-attrib $-1 $-1 $19 $7 1 987433870 2734 -1716649980 1 #
shell $-1 $-1 $-1 $54 $-1 $20 #
model_id-kcp-attrib $-1 $-1 $22 $8 1 987433870 17906 -1712193531 1 #
shell $-1 $-1 $-1 $55 $-1 $23 #
model_id-kcp-attrib $-1 $-1 $25 $9 1 987433870 30609 -1718550522 1 #
shell $-1 $-1 $-1 $56 $-1 $26 #
model_id-kcp-attrib $-1 $-1 $28 $10 1 987433870 39609 -1715929081 1 #
shell $-1 $-1 $-1 $57 $-1 $29 #
model_id-kcp-attrib $-1 $-1 $31 $11 1 987433870 43406 -1718747128 1 #
shell $-1 $-1 $-1 $58 $-1 $32 #
model_id-kcp-attrib $-1 $-1 $-1 $34 1 987433870 187 -1715798015 2 #
face $59 $60 $61 $12 $-1 $62 reversed single #
loop $-1 $63 $64 $34 #
torus-surface $-1 -208.66141732283501 0 31.496062992125999 0 0 1 243.41859221771699 29.5275590551181 1 0 0 forward_v I I I I #
face $65 $66 $67 $35 $-1 $68 forward single #
face $-1 $69 $70 $37 $-1 $71 forward single #
face $-1 $72 $73 $39 $-1 $74 forward single #
face $-1 $75 $76 $41 $-1 $77 forward single #
face $-1 $78 $79 $43 $-1 $80 reversed single #
face $-1 $81 $82 $45 $-1 $83 reversed single #
face $-1 $84 $85 $47 $-1 $86 forward single #
model_id-kcp-attrib $-1 $-1 $-1 $49 1 987433870 187 -1715798015 3 #
face $87 $88 $89 $12 $-1 $90 reversed single #
loop $-1 $91 $92 $49 #
torus-surface $-1 -208.66141732283501 0 11.8110236220472 0 0 1 250 9.8425196850393704 1 0 0 forward_v I I I I #
loop $-1 $-1 $93 $34 #
coedge $-1 $64 $64 $94 $95 forward $50 $-1 #
model_id-kcp-attrib $-1 $-1 $-1 $52 1 987433870 281 -1726414846 2 #
face $96 $97 $98 $35 $-1 $99 reversed single #
loop $-1 $-1 $100 $52 #
plane-surface $-1 0 0 22.637795275590548 0 0 1 1 0 0 forward_v I I I I #
face $-1 $101 $102 $37 $-1 $103 forward single #
loop $-1 $104 $105 $53 #
cone-surface $-1 0 0 0 0 0 1 208.66141732283501 0 0 1 I I 0 1 208.66141732283501 forward I I I I #
face $-1 $106 $107 $39 $-1 $108 forward single #
loop $-1 $109 $110 $54 #
cone-surface $-1 0 0 0 0 0 1 253.93700787401599 0 0 1 I I 0 1 253.93700787401599 forward I I I I #
face $-1 $111 $112 $41 $-1 $113 forward single #
loop $-1 $114 $115 $55 #
cone-surface $-1 -2.8421709430404007e-014 0 3.7401574803150197 0 0 1 -344.80451993278672 0 0 1 I I 0 1 344.80451993278672 forward I I I I #
face $-1 $116 $117 $43 $-1 $118 forward single #
loop $-1 $119 $120 $56 #
cone-surface $-1 -2.8421709430404007e-014 0 2.9527559055118218 0 0 1 250 0 0 1 I I 0 1 250 forward I I I I #
face $-1 $121 $122 $45 $-1 $123 reversed single #
loop $-1 $124 $125 $57 #
plane-surface $-1 28.316268761064652 1.9823601692639664e-015 -17.519685039370071 -1.4804626340657267e-033 -4.2298932401877886e-034 1 1 0 1.4804626340657267e-033 forward_v I I I I #
face $-1 $126 $127 $47 $-1 $128 forward single #
loop $-1 $129 $130 $58 #
cone-surface $-1 -2.8421709430404007e-014 0 -6.3976377952756138 0 0 -1 208.66141732283501 0 0 1 I I 0 -1 208.66141732283501 forward I I I I #
model_id-kcp-attrib $-1 $-1 $-1 $60 1 987433870 187 -1715798015 4 #
face $131 $132 $133 $12 $-1 $134 reversed single #
loop $-1 $135 $136 $60 #
torus-surface $-1 -208.66141732283501 0 4.9212598425196896 0 0 1 298.36013131795301 3.9370078740157499 1 0 0 forward_v I I I I #
loop $-1 $-1 $137 $49 #
coedge $-1 $92 $92 $138 $139 forward $61 $-1 #
coedge $-1 $93 $93 $140 $141 reversed $63 $-1 #
coedge $-1 $94 $94 $64 $95 reversed $142 $-1 #
edge $143 $144 0 $144 6.2831853071795862 $64 $145 forward 7 unknown #
model_id-kcp-attrib $-1 $-1 $-1 $66 1 987433870 281 -1726414846 3 #
face $-1 $146 $147 $35 $-1 $148 reversed single #
loop $-1 $-1 $149 $66 #
plane-surface $-1 0 0 -22.637795275590548 0 0 1 1 0 0 forward_v I I I I #
coedge $-1 $150 $151 $152 $153 forward $67 $-1 #
face $-1 $-1 $154 $37 $-1 $155 forward single #
loop $-1 $-1 $156 $69 #
plane-surface $-1 0 0 -7.3818897637795562 0 0 -1 -1 0 0 forward_v I I I I #
loop $-1 $-1 $157 $53 #
coedge $-1 $105 $105 $156 $158 reversed $70 $-1 #
face $-1 $-1 $159 $39 $-1 $160 forward single #
loop $-1 $-1 $161 $72 #
plane-surface $-1 0 0 -0.98425196850393348 0 0 -1 -1 0 0 forward_v I I I I #
loop $-1 $-1 $162 $54 #
coedge $-1 $110 $110 $161 $163 reversed $73 $-1 #
face $-1 $164 $165 $41 $-1 $166 reversed single #
loop $-1 $167 $168 $75 #
plane-surface $-1 7.5448633009762975 1.4616830997728356e-015 6.8897637795275983 3.4477780067177271e-033 6.8955560134354529e-033 1 1 0 -3.4477780067177271e-033 forward_v I I I I #
loop $-1 $-1 $169 $55 #
coedge $-1 $115 $115 $170 $171 forward $76 $-1 #
face $-1 $172 $173 $43 $-1 $174 forward single #
loop $-1 $175 $176 $78 #
cone-surface $-1 -2.8421709430404007e-014 0 18.208661417322851 0 0 -1 -366.14173228346499 0 0 1 I I 0 1 366.14173228346499 forward I I I I #
loop $-1 $-1 $177 $56 #
coedge $-1 $120 $120 $178 $179 reversed $79 $-1 #
face $-1 $180 $181 $45 $-1 $182 reversed single #
loop $-1 $183 $184 $81 #
cone-surface $-1 -2.8421709430404007e-014 0 -9.8425196850393508 0 0 1 267.71653543307099 0 0 1 I I 0 1 267.71653543307099 forward I I I I #
loop $-1 $-1 $185 $57 #
coedge $-1 $125 $125 $186 $187 forward $82 $-1 #
face $-1 $188 $189 $47 $-1 $190 reversed single #
loop $-1 $191 $192 $84 #
cone-surface $-1 -2.8421709430404007e-014 0 -6.3976377952756138 0 0 -1 -228.68765762411886 -2.8005235856725238e-014 0 1 I I 0 1 228.68765762411886 forward I I I I #
loop $-1 $-1 $193 $58 #
coedge $-1 $130 $130 $194 $195 forward $85 $-1 #
model_id-kcp-attrib $-1 $-1 $-1 $88 1 987433870 187 -1715798015 5 #
face $196 $197 $198 $12 $-1 $199 reversed single #
loop $-1 $200 $201 $88 #
torus-surface $-1 -208.66141732283501 0 -4.9212598425196896 0 0 1 298.36013131795301 3.9370078740157499 1 0 0 forward_v I I I I #
loop $-1 $-1 $202 $60 #
coedge $-1 $136 $136 $203 $204 reversed $89 $-1 #
coedge $-1 $137 $137 $205 $206 reversed $91 $-1 #
coedge $-1 $138 $138 $92 $139 reversed $207 $-1 #
edge $-1 $208 0 $208 6.2831853071795862 $92 $209 forward 7 unknown #
coedge $-1 $140 $140 $93 $141 forward $210 $-1 #
edge $-1 $211 0 $211 6.2831853071795862 $93 $212 forward 7 unknown #
loop $-1 $213 $94 $214 #
attrib_edge_convexity-kcp-attrib $-1 $215 $-1 $95 4 #
vertex $-1 $95 $216 #
ellipse-curve $-1 -208.66141732283501 0 1.9685039370078701 0 0 1 243.41859221771699 0 0 1 I I #
face $-1 $217 $218 $35 $-1 $219 reversed single #
loop $-1 $-1 $220 $97 #
plane-surface $-1 0 -370.47244094488201 0 0 1 0 0 0 1 forward_v I I I I #
coedge $-1 $221 $222 $223 $224 forward $98 $-1 #
coedge $-1 $225 $100 $226 $227 forward $67 $-1 #
coedge $-1 $100 $225 $228 $229 forward $67 $-1 #
coedge $-1 $230 $231 $100 $153 reversed $232 $-1 #
edge $-1 $233 -370.47244094488201 $234 370.47244094488201 $152 $235 forward 7 unknown #
loop $-1 $-1 $236 $101 #
plane-surface $-1 0 0 7.3818897637795562 0 0 1 1 0 0 forward_v I I I I #
coedge $-1 $156 $156 $105 $158 forward $102 $-1 #
coedge $-1 $157 $157 $236 $237 reversed $104 $-1 #
edge $-1 $238 0 $238 6.2831853071795862 $156 $239 forward 7 unknown #
loop $-1 $-1 $240 $106 #
plane-surface $-1 0 0 0.98425196850393348 0 0 1 1 0 0 forward_v I I I I #
coedge $-1 $161 $161 $110 $163 forward $107 $-1 #
coedge $-1 $162 $162 $240 $241 reversed $109 $-1 #
edge $-1 $242 0 $242 6.2831853071795862 $161 $243 forward 7 unknown #
face $-1 $244 $245 $41 $-1 $246 reversed single #
loop $-1 $247 $248 $111 #
plane-surface $-1 -2.8421709430404007e-014 0 2.9527559055118218 0 0 1 1 0 0 forward_v I I I I #
loop $-1 $-1 $249 $75 #
coedge $-1 $168 $168 $250 $251 reversed $112 $-1 #
coedge $-1 $169 $169 $249 $252 forward $114 $-1 #
coedge $-1 $170 $170 $115 $171 reversed $253 $-1 #
edge $-1 $254 -3.1415926535897931 $254 3.1415926535897931 $170 $255 forward 7 unknown #
face $-1 $256 $257 $43 $-1 $258 reversed single #
loop $-1 $259 $260 $116 #
torus-surface $-1 -2.8421709430404007e-014 0 16.929133858267747 0 0 -1 362.99212598425203 3.1496062992125999 -1 0 0 forward_v I I I I #
loop $-1 $-1 $261 $78 #
coedge $-1 $176 $176 $260 $262 reversed $117 $-1 #
coedge $-1 $177 $177 $263 $264 reversed $119 $-1 #
coedge $-1 $178 $178 $120 $179 forward $265 $-1 #
edge $-1 $266 -3.1415926535897931 $266 3.1415926535897931 $178 $267 forward 7 unknown #
face $-1 $268 $269 $45 $-1 $270 reversed single #
loop $-1 $271 $272 $121 #
cone-surface $-1 -2.8421709430404007e-014 0 -2.1653543307086416 0 0 -1 -345.39893295007079 4.2297772789412594e-014 0 1 I I 0 -1 345.39893295007079 forward I I I I #
loop $-1 $-1 $273 $81 #
coedge $-1 $184 $184 $274 $275 reversed $122 $-1 #
coedge $-1 $185 $185 $273 $276 forward $124 $-1 #
coedge $-1 $186 $186 $125 $187 reversed $271 $-1 #
edge $-1 $277 -3.1415926535897931 $277 3.1415926535897931 $186 $278 forward 7 unknown #
face $-1 $-1 $279 $47 $-1 $280 forward single #
loop $-1 $281 $282 $126 #
plane-surface $-1 1.820567300116684 1.107597031218744e-014 -16.732283464566976 0 0 1 1 0 0 forward_v I I I I #
loop $-1 $-1 $283 $84 #
coedge $-1 $192 $192 $282 $284 forward $127 $-1 #
coedge $-1 $193 $193 $285 $286 reversed $129 $-1 #
coedge $-1 $194 $194 $130 $195 reversed $281 $-1 #
edge $-1 $287 -3.1415926535897931 $287 3.1415926535897931 $130 $288 forward 7 unknown #
model_id-kcp-attrib $-1 $-1 $-1 $132 1 987433870 187 -1715798015 6 #
face $289 $290 $291 $12 $-1 $292 reversed single #
loop $-1 $293 $294 $132 #
torus-surface $-1 -208.66141732283501 0 -31.496062992125999 0 0 1 243.41859221771699 29.5275590551181 1 0 0 forward_v I I I I #
loop $-1 $-1 $295 $88 #
coedge $-1 $201 $201 $296 $297 reversed $133 $-1 #
coedge $-1 $202 $202 $298 $299 reversed $135 $-1 #
coedge $-1 $203 $203 $136 $204 forward $300 $-1 #
edge $-1 $301 0 $301 6.2831853071795862 $136 $302 forward 7 unknown #
coedge $-1 $205 $205 $137 $206 forward $213 $-1 #
edge $303 $304 0 $304 6.2831853071795862 $137 $305 forward 7 unknown #
loop $-1 $306 $138 $307 #
vertex $-1 $139 $308 #
ellipse-curve $-1 -208.66141732283501 0 5.9055118110236204 0 0 1 257.87401574803198 0 0 1 I I #
loop $-1 $-1 $140 $309 #
vertex $-1 $141 $310 #
ellipse-curve $-1 -208.66141732283501 0 7.3818897637795304 0 0 1 226.37795275590599 0 0 1 I I #
loop $-1 $-1 $205 $214 #
face $311 $307 $142 $12 $-1 $312 reversed single #
convexity-sys-attrib $-1 $-1 $143 $95 #
point $-1 34.757174894881899 0 1.9685039370078701 #
face $-1 $313 $314 $35 $-1 $315 reversed single #
loop $-1 $-1 $316 $146 #
plane-surface $-1 -370.47244094488201 0 0 1 0 0 0 0 -1 forward_v I I I I #
coedge $-1 $317 $228 $318 $319 forward $147 $-1 #
coedge $-1 $320 $149 $317 $321 forward $98 $-1 #
coedge $-1 $149 $320 $322 $323 forward $98 $-1 #
coedge $-1 $231 $230 $149 $224 reversed $232 $-1 #
edge $-1 $324 -370.47244094488201 $325 370.47244094488201 $223 $326 forward 7 unknown #
coedge $-1 $151 $150 $327 $328 forward $67 $-1 #
coedge $-1 $329 $330 $150 $227 reversed $314 $-1 #
edge $-1 $234 -370.47244094488201 $331 370.47244094488201 $226 $332 forward 7 unknown #
coedge $-1 $220 $333 $151 $229 reversed $147 $-1 #
edge $-1 $334 -370.47244094488201 $233 370.47244094488201 $228 $335 forward 7 unknown #
coedge $-1 $223 $152 $333 $336 forward $232 $-1 #
coedge $-1 $152 $223 $329 $337 reversed $232 $-1 #
loop $-1 $-1 $230 $313 #
vertex $-1 $153 $338 #
vertex $-1 $153 $339 #
straight-curve $-1 370.47244094488201 0 22.637795275590548 0 1 0 I I #
coedge $-1 $236 $236 $157 $237 forward $154 $-1 #
edge $-1 $340 0 $340 6.2831853071795862 $236 $341 forward 7 unknown #
vertex $-1 $158 $342 #
ellipse-curve $-1 0 0 -7.3818897637795562 0 0 -1 208.66141732283501 0 0 1 I I #
coedge $-1 $240 $240 $162 $241 forward $159 $-1 #
edge $-1 $343 0 $343 6.2831853071795862 $240 $344 forward 7 unknown #
vertex $-1 $163 $345 #
ellipse-curve $-1 0 0 -0.98425196850393348 0 0 -1 253.93700787401599 0 0 1 I I #
face $-1 $346 $347 $41 $-1 $348 forward single #
loop $-1 $349 $350 $164 #
cone-surface $-1 -2.8421709430404007e-014 0 4.9212598425196994 0 0 1 261.811023622047 0 0 1 I I 0 1 261.811023622047 forward I I I I #
loop $-1 $-1 $351 $111 #
coedge $-1 $248 $248 $352 $353 forward $165 $-1 #
coedge $-1 $249 $249 $169 $252 reversed $167 $-1 #
coedge $-1 $250 $250 $168 $251 forward $349 $-1 #
edge $-1 $354 0 $354 6.2831853071795862 $250 $355 forward 7 unknown #
edge $-1 $356 -3.1415926535897931 $356 3.1415926535897931 $169 $357 forward 7 unknown #
loop $-1 $358 $170 $346 #
vertex $-1 $171 $359 #
ellipse-curve $-1 -2.8421709430404007e-014 0 3.740157480315025 0 0 1 -344.80451993278672 0 0 1 I I #
face $-1 $-1 $265 $43 $-1 $360 forward single #
loop $-1 $361 $263 $172 #
plane-surface $-1 -2.8421709430404007e-014 0 13.779527559055168 0 0 1 1 0 0 forward_v I I I I #
loop $-1 $-1 $362 $116 #
coedge $-1 $260 $260 $176 $262 forward $173 $-1 #
coedge $-1 $261 $261 $363 $364 reversed $175 $-1 #
edge $365 $366 0 $366 6.2831853071795862 $260 $367 forward 7 unknown #
coedge $-1 $263 $263 $177 $264 forward $257 $-1 #
edge $368 $369 -3.1415926535897931 $369 3.1415926535897931 $263 $370 forward 7 unknown #
loop $-1 $371 $178 $256 #
vertex $-1 $179 $372 #
ellipse-curve $-1 -2.8421709430404007e-014 0 22.637795275590548 0 0 -1 250 0 0 1 I I #
face $-1 $373 $374 $45 $-1 $375 forward single #
loop $-1 $376 $377 $180 #
plane-surface $-1 -2.8421709430404007e-014 0 -0.98425196850394059 0 0 -1 1 0 0 forward_v I I I I #
loop $-1 $-1 $186 $121 #
coedge $-1 $272 $272 $378 $379 reversed $181 $-1 #
coedge $-1 $273 $273 $185 $276 reversed $183 $-1 #
coedge $-1 $274 $274 $184 $275 forward $380 $-1 #
edge $381 $382 0 $382 6.2831853071795862 $274 $383 forward 7 unknown #
edge $-1 $384 1.1226500858433387e-050 $384 6.2831853071795862 $273 $385 forward 7 unknown #
vertex $-1 $187 $386 #
ellipse-curve $-1 -2.8421709430404007e-014 0 -17.519685039370071 1.4804626340657267e-033 4.2298932401877886e-034 -1 -345.39893295007079 4.2297772789412594e-014 0 1 I I #
loop $-1 $387 $388 $188 #
plane-surface $-1 1.820567300116684 1.107597031218744e-014 -6.3976377952756138 0 0 1 1 0 0 forward_v I I I I #
loop $-1 $-1 $194 $126 #
coedge $-1 $282 $282 $192 $284 reversed $189 $-1 #
coedge $-1 $283 $283 $388 $389 reversed $191 $-1 #
edge $-1 $390 -3.1415926535897931 $390 3.1415926535897931 $192 $391 forward 7 unknown #
coedge $-1 $285 $285 $193 $286 forward $387 $-1 #
edge $-1 $392 -3.1415926535897931 $392 3.1415926535897931 $193 $393 forward 7 unknown #
vertex $-1 $195 $394 #
ellipse-curve $-1 -2.8421709430404007e-014 0 -16.732283464566976 0 0 -1 208.66141732283501 0 0 1 I I #
model_id-kcp-attrib $-1 $-1 $-1 $197 1 987433870 187 -1715798015 7 #
face $395 $396 $397 $12 $-1 $398 reversed single #
loop $-1 $399 $400 $197 #
torus-surface $-1 -208.66141732283501 0 -5.9055118110236204 0 0 1 261.811023622047 3.9370078740157499 1 0 0 forward_v I I I I #
loop $-1 $-1 $401 $132 #
coedge $-1 $294 $294 $402 $403 reversed $198 $-1 #
coedge $-1 $295 $295 $404 $405 reversed $200 $-1 #
coedge $-1 $296 $296 $201 $297 forward $406 $-1 #
edge $-1 $407 0 $407 6.2831853071795862 $201 $408 forward 7 unknown #
coedge $-1 $298 $298 $202 $299 forward $409 $-1 #
edge $-1 $410 0 $410 6.2831853071795862 $202 $411 forward 7 unknown #
loop $-1 $412 $203 $413 #
vertex $-1 $204 $414 #
ellipse-curve $-1 -208.66141732283501 0 1.1366591981015299 0 0 -1 299.444948796765 0 0 1 I I #
attrib_edge_convexity-kcp-attrib $-1 $415 $-1 $206 4 #
vertex $-1 $206 $416 #
ellipse-curve $-1 -208.66141732283501 0 1.9685039370078701 0 0 1 250 0 0 1 I I #
loop $-1 $-1 $417 $307 #
face $418 $419 $207 $12 $-1 $420 reversed single #
point $-1 49.212598425196902 0 5.9055118110236204 #
face $421 $214 $422 $12 $-1 $423 reversed single #
point $-1 17.716535433070899 0 7.3818897637795304 #
model_id-kcp-attrib $-1 $-1 $-1 $214 1 987433870 187 -1715798015 19 #
plane-surface $-1 38.047878786023603 0 1.9685039370078701 0 0 -1 -1 0 0 forward_v I I I I #
face $-1 $-1 $232 $35 $-1 $424 reversed single #
loop $-1 $-1 $329 $217 #
plane-surface $-1 0 370.47244094488201 0 0 -1 0 0 0 -1 forward_v I I I I #
coedge $-1 $425 $327 $330 $426 forward $218 $-1 #
coedge $-1 $333 $220 $221 $321 reversed $147 $-1 #
coedge $-1 $327 $425 $220 $319 reversed $218 $-1 #
edge $-1 $334 -22.637795275590548 $427 22.637795275590548 $318 $428 forward 7 unknown #
coedge $-1 $222 $221 $425 $429 forward $98 $-1 #
edge $-1 $325 -370.47244094488201 $427 370.47244094488201 $317 $430 forward 7 unknown #
coedge $-1 $330 $329 $222 $323 reversed $314 $-1 #
edge $-1 $431 -370.47244094488201 $324 370.47244094488201 $322 $432 forward 7 unknown #
vertex $-1 $224 $433 #
vertex $-1 $336 $434 #
straight-curve $-1 370.47244094488201 0 -22.637795275590548 0 -1 0 I I #
coedge $-1 $316 $318 $225 $328 reversed $218 $-1 #
edge $-1 $331 -370.47244094488201 $334 370.47244094488201 $327 $435 forward 7 unknown #
coedge $-1 $322 $226 $231 $337 forward $314 $-1 #
coedge $-1 $226 $322 $316 $426 reversed $314 $-1 #
vertex $-1 $227 $436 #
straight-curve $-1 0 370.47244094488201 22.637795275590548 -1 0 0 I I #
coedge $-1 $228 $317 $230 $336 reversed $147 $-1 #
vertex $-1 $328 $437 #
straight-curve $-1 0 -370.47244094488201 22.637795275590548 1 0 0 I I #
edge $-1 $233 -22.637795275590548 $325 22.637795275590548 $230 $438 forward 7 unknown #
edge $-1 $234 -22.637795275590548 $324 22.637795275590548 $231 $439 forward 7 unknown #
point $-1 370.47244094488201 -370.47244094488201 22.637795275590548 #
point $-1 370.47244094488201 370.47244094488201 22.637795275590548 #
vertex $-1 $237 $440 #
ellipse-curve $-1 0 0 7.3818897637795562 0 0 1 208.66141732283501 0 0 1 I I #
point $-1 208.66141732283501 0 -7.3818897637795562 #
vertex $-1 $241 $441 #
ellipse-curve $-1 0 0 0.98425196850393348 0 0 1 253.93700787401599 0 0 1 I I #
point $-1 253.93700787401599 0 -0.98425196850393348 #
face $-1 $-1 $253 $41 $-1 $442 forward single #
loop $-1 $443 $444 $244 #
torus-surface $-1 -2.8421709430404007e-014 0 3.7401574803149695 0 0 -1 262.59842519684997 0.78740157480314998 -1 0 0 forward_v I I I I #
loop $-1 $-1 $250 $164 #
coedge $-1 $350 $350 $445 $446 reversed $245 $-1 #
coedge $-1 $351 $351 $444 $447 reversed $247 $-1 #
coedge $-1 $352 $352 $248 $353 reversed $358 $-1 #
edge $448 $449 -3.1415926535897931 $449 3.1415926535897931 $248 $450 forward 7 unknown #
vertex $-1 $251 $451 #
ellipse-curve $-1 -2.8421709430404007e-014 0 6.8897637795275699 0 0 1 261.811023622047 0 0 1 I I #
vertex $-1 $252 $452 #
ellipse-curve $-1 -2.8421709430404007e-014 0 6.8897637795276196 0 0 -1 -344.80451993278672 0 0 1 I I #
loop $-1 $-1 $352 $346 #
point $-1 344.80451993278666 4.2224980593636513e-014 3.740157480315025 #
plane-surface $-1 0 0 22.637795275590548 0 0 1 1 0 0 forward_v I I I I #
loop $-1 $-1 $453 $172 #
coedge $-1 $362 $362 $453 $454 reversed $259 $-1 #
coedge $-1 $363 $363 $261 $364 forward $371 $-1 #
edge $-1 $455 -3.1415926535897931 $455 3.1415926535897931 $363 $456 forward 7 unknown #
convexity-sys-attrib $-1 $-1 $-1 $262 #
vertex $-1 $262 $457 #
ellipse-curve $-1 -2.8421709430404007e-014 0 16.929133858267747 0 0 -1 -366.14173228346499 0 0 1 I I #
convexity-sys-attrib $-1 $-1 $-1 $264 #
vertex $-1 $264 $458 #
ellipse-curve $-1 -2.8421709430404007e-014 0 13.779527559055168 0 0 1 250 0 0 1 I I #
loop $-1 $-1 $363 $256 #
point $-1 -250.00000000000003 -3.0615158845559431e-014 22.637795275590548 #
face $-1 $-1 $380 $45 $-1 $459 forward single #
loop $-1 $460 $378 $268 #
torus-surface $-1 -2.8421709430404007e-014 0 -11.81102362204725 0 0 1 338.58267716535403 11.8110236220472 1 0 0 forward_v I I I I #
loop $-1 $-1 $461 $180 #
coedge $-1 $377 $377 $462 $463 forward $269 $-1 #
coedge $-1 $378 $378 $272 $379 forward $374 $-1 #
edge $-1 $464 -3.1415926535897931 $464 3.1415926535897931 $378 $465 forward 7 unknown #
loop $-1 $466 $274 $373 #
convexity-sys-attrib $-1 $-1 $-1 $275 #
vertex $-1 $275 $467 #
ellipse-curve $-1 -2.8421709430404007e-014 0 -2.1653543307086505 0 0 -1 267.71653543307099 0 0 1 I I #
vertex $-1 $276 $468 #
ellipse-curve $-1 -2.8421709430404007e-014 0 -17.519685039370071 -1.4804626340657267e-033 -4.2298932401877886e-034 1 267.71653543307099 0 0 1 I I #
point $-1 345.39893295007073 -8.4595545578825188e-014 -17.519685039370074 #
loop $-1 $-1 $285 $188 #
coedge $-1 $388 $388 $283 $389 forward $279 $-1 #
edge $469 $470 -3.1415926535897931 $470 3.1415926535897931 $283 $471 forward 7 unknown #
vertex $-1 $284 $472 #
ellipse-curve $-1 -2.8421709430404007e-014 0 -16.732283464566976 0 0 1 -228.68765762411886 -2.8005235856725238e-014 0 1 I I #
vertex $-1 $286 $473 #
ellipse-curve $-1 -2.8421709430404007e-014 0 -6.3976377952756138 0 0 -1 208.66141732283501 0 0 1 I I #
point $-1 -208.66141732283504 -2.555280974511264e-014 -16.732283464566947 #
model_id-kcp-attrib $-1 $-1 $-1 $290 1 987433870 187 -1715798015 8 #
face $474 $475 $476 $12 $-1 $477 forward single #
loop $-1 $478 $479 $290 #
torus-surface $-1 -208.66141732283501 0 -16.929133858267701 0 0 -1 264.96062992126002 0.78740157480314998 -1 0 0 forward_v I I I I #
loop $-1 $-1 $480 $197 #
coedge $-1 $400 $400 $481 $482 reversed $291 $-1 #
coedge $-1 $401 $401 $483 $484 forward $293 $-1 #
coedge $-1 $402 $402 $294 $403 forward $485 $-1 #
edge $-1 $486 0 $486 6.2831853071795862 $294 $487 forward 7 unknown #
coedge $-1 $404 $404 $295 $405 forward $488 $-1 #
edge $-1 $489 0 $489 6.2831853071795862 $295 $490 forward 7 unknown #
loop $-1 $491 $296 $492 #
vertex $-1 $297 $493 #
ellipse-curve $-1 -208.66141732283501 0 -1.9685039370078701 0 0 -1 -295.75604538186599 0 0 1 I I #
loop $-1 $494 $298 $495 #
vertex $-1 $299 $496 #
ellipse-curve $-1 -208.66141732283501 0 1.9685039370078701 0 0 1 295.75604538186599 0 0 1 I I #
loop $-1 $-1 $497 $413 #
face $498 $499 $300 $12 $-1 $500 forward single #
point $-1 90.783531473930694 0 1.1366591981015299 #
convexity-sys-attrib $-1 $-1 $303 $206 #
point $-1 41.338582677165299 0 1.9685039370078701 #
coedge $-1 $417 $417 $501 $502 forward $306 $-1 #
model_id-kcp-attrib $-1 $-1 $-1 $307 1 987433870 187 -1715798015 20 #
face $503 $495 $504 $12 $-1 $505 forward single #
plane-surface $-1 51.181102362204697 0 5.9055118110236204 0 0 -1 -1 0 0 forward_v I I I I #
model_id-kcp-attrib $-1 $-1 $-1 $309 1 987433870 187 -1715798015 18 #
loop $506 $210 $507 $309 #
plane-surface $-1 8.8582677165354298 0 7.3818897637795304 0 0 -1 -1 0 0 forward_v I I I I #
plane-surface $-1 370.47244094488201 0 0 -1 0 0 0 0 1 forward_v I I I I #
coedge $-1 $318 $316 $320 $429 reversed $218 $-1 #
edge $-1 $331 -22.637795275590548 $431 22.637795275590548 $330 $508 forward 7 unknown #
vertex $-1 $429 $509 #
straight-curve $-1 -370.47244094488201 -370.47244094488201 0 0 0 -1 I I #
edge $-1 $427 -370.47244094488201 $431 370.47244094488201 $425 $510 forward 7 unknown #
straight-curve $-1 0 -370.47244094488201 -22.637795275590548 -1 0 0 I I #
vertex $-1 $323 $511 #
straight-curve $-1 0 370.47244094488201 -22.637795275590548 1 0 0 I I #
point $-1 370.47244094488201 370.47244094488201 -22.637795275590548 #
point $-1 370.47244094488201 -370.47244094488201 -22.637795275590548 #
straight-curve $-1 -370.47244094488201 0 22.637795275590548 0 -1 0 I I #
point $-1 -370.47244094488201 370.47244094488201 22.637795275590548 #
point $-1 -370.47244094488201 -370.47244094488201 22.637795275590548 #
straight-curve $-1 370.47244094488201 -370.47244094488201 0 0 0 -1 I I #
straight-curve $-1 370.47244094488201 370.47244094488201 0 0 0 -1 I I #
point $-1 208.66141732283501 0 7.3818897637795562 #
point $-1 253.93700787401599 0 0.98425196850393348 #
torus-surface $-1 -2.8421709430404007e-014 0 13.779527559055149 0 0 -1 338.58267716535403 11.8110236220472 -1 0 0 forward_v I I I I #
loop $-1 $-1 $445 $244 #
coedge $-1 $444 $444 $351 $447 forward $347 $-1 #
coedge $-1 $445 $445 $350 $446 forward $443 $-1 #
edge $512 $513 0 $513 6.2831853071795862 $445 $514 forward 7 unknown #
edge $515 $516 0 $516 6.2831853071795862 $351 $517 forward 7 unknown #
convexity-sys-attrib $-1 $-1 $-1 $353 #
vertex $-1 $353 $518 #
ellipse-curve $-1 -2.8421709430404007e-014 0 2.9527559055118218 0 0 -1 -343.30298378278763 0 0 1 I I #
point $-1 261.81102362204757 0 6.8897637795275699 #
point $-1 344.80451993278666 -4.2224980593636513e-014 6.8897637795276196 #
coedge $-1 $453 $453 $362 $454 forward $361 $-1 #
edge $519 $520 0 $520 6.2831853071795862 $453 $521 forward 7 unknown #
vertex $-1 $364 $522 #
ellipse-curve $-1 -2.8421709430404007e-014 0 22.637795275590548 0 0 1 -366.14173228346499 0 0 1 I I #
point $-1 -366.14173228346408 0 16.929133858267747 #
point $-1 -250.00000000000003 3.0615158845559431e-014 13.779527559055177 #
torus-surface $-1 -2.8421709430404007e-014 0 -2.1653543307086505 0 0 1 268.89763779527601 1.1811023622047201 1 0 0 forward_v I I I I #
loop $-1 $-1 $462 $268 #
coedge $-1 $461 $461 $523 $524 reversed $376 $-1 #
coedge $-1 $462 $462 $377 $463 reversed $460 $-1 #
edge $525 $526 -3.1415926535897931 $526 3.1415926535897931 $377 $527 forward 7 unknown #
vertex $-1 $379 $528 #
ellipse-curve $-1 -2.8421709430404007e-014 0 -2.1653543307086611 0 0 1 -345.39893295007079 4.2297772789412594e-014 0 1 I I #
loop $-1 $-1 $523 $373 #
point $-1 267.71653543307116 0 -2.1653543307086505 #
point $-1 267.71653543307116 0 -17.519685039370064 #
convexity-sys-attrib $-1 $-1 $-1 $389 #
vertex $-1 $389 $529 #
ellipse-curve $-1 -2.8421709430404007e-014 0 -6.3976377952756138 0 0 1 -228.68765762411886 -2.8005235856725238e-014 0 1 I I #
point $-1 228.68765762411883 0 -16.732283464566969 #
point $-1 -208.66141732283504 -2.555280974511264e-014 -6.3976377952755819 #
model_id-kcp-attrib $-1 $-1 $-1 $396 1 987433870 187 -1715798015 9 #
face $530 $531 $532 $12 $-1 $533 reversed single #
loop $-1 $534 $535 $396 #
torus-surface $-1 -208.66141732283501 0 -18.503937007874001 0 0 1 266.53543307086602 1.1811023622047201 1 0 0 forward_v I I I I #
loop $-1 $-1 $536 $290 #
coedge $-1 $479 $479 $537 $538 reversed $397 $-1 #
coedge $-1 $480 $480 $539 $540 reversed $399 $-1 #
coedge $-1 $481 $481 $400 $482 forward $541 $-1 #
edge $-1 $542 0 $542 6.2831853071795862 $400 $543 forward 7 unknown #
coedge $-1 $483 $483 $401 $484 reversed $544 $-1 #
edge $545 $546 0 $546 6.2831853071795862 $401 $547 forward 7 unknown #
loop $-1 $-1 $402 $548 #
vertex $-1 $403 $549 #
ellipse-curve $-1 -208.66141732283501 0 -1.9685039370078701 0 0 1 243.41859221771699 0 0 1 I I #
loop $-1 $550 $404 $551 #
vertex $-1 $405 $552 #
ellipse-curve $-1 -208.66141732283501 0 -1.1366591981015299 0 0 1 -299.444948796765 0 0 1 I I #
loop $-1 $-1 $553 $492 #
face $554 $555 $406 $12 $-1 $556 reversed single #
point $-1 -504.41746270469997 0 -1.9685039370078701 #
loop $-1 $-1 $557 $495 #
face $558 $413 $409 $12 $-1 $559 reversed single #
point $-1 87.094628059031095 0 1.9685039370078701 #
coedge $-1 $497 $497 $560 $561 forward $412 $-1 #
model_id-kcp-attrib $-1 $-1 $-1 $413 1 987433870 187 -1715798015 23 #
face $562 $563 $564 $12 $-1 $565 reversed single #
cone-surface $-1 -208.66141732283501 0 1.47637795275591 0 0 -1 -298.54613745623999 0 0 1 I I 0.93541434669416601 0.35355339059147201 298.54613745623999 forward I I I I #
coedge $-1 $501 $501 $417 $502 reversed $566 $-1 #
edge $-1 $567 0 $567 6.2831853071795862 $417 $568 forward 7 unknown #
model_id-kcp-attrib $-1 $-1 $-1 $419 1 987433870 187 -1715798015 21 #
loop $-1 $566 $569 $419 #
cone-surface $-1 -208.66141732283501 0 3.9370078740157499 0 0 1 261.811023622047 0 0 1 I I 0 1 261.811023622047 forward I I I I #
model_id-kcp-attrib $-1 $-1 $-1 $422 1 987433870 187 -1715798015 47 #
coedge $-1 $507 $507 $570 $571 reversed $422 $-1 #
straight-curve $-1 -370.47244094488201 370.47244094488201 0 0 0 -1 I I #
point $-1 -370.47244094488201 -370.47244094488201 -22.637795275590548 #
straight-curve $-1 -370.47244094488201 0 -22.637795275590548 0 1 0 I I #
point $-1 -370.47244094488201 370.47244094488201 -22.637795275590548 #
convexity-sys-attrib $-1 $-1 $-1 $446 #
vertex $-1 $446 $572 #
ellipse-curve $-1 -2.8421709430404007e-014 0 3.7401574803149695 0 0 1 -261.811023622047 0 0 1 I I #
convexity-sys-attrib $-1 $-1 $-1 $447 #
vertex $-1 $447 $573 #
ellipse-curve $-1 -2.8421709430404007e-014 0 2.9527559055118218 0 0 -1 -262.59842519684997 0 0 1 I I #
point $-1 343.30298378278769 4.2041101522658235e-014 2.9527559055118306 #
convexity-sys-attrib $-1 $-1 $-1 $454 #
vertex $-1 $454 $574 #
ellipse-curve $-1 -2.8421709430404007e-014 0 13.779527559055168 0 0 -1 -362.99212598425203 0 0 1 I I #
point $-1 366.14173228346499 0 22.637795275590548 #
coedge $-1 $523 $523 $461 $524 forward $466 $-1 #
edge $575 $576 0 $576 6.2831853071795862 $461 $577 forward 7 unknown #
convexity-sys-attrib $-1 $-1 $-1 $463 #
vertex $-1 $463 $578 #
ellipse-curve $-1 -2.8421709430404007e-014 0 -0.98425196850394059 0 0 1 343.30298378278769 0 0 1 I I #
point $-1 345.39893295007073 -8.4595545578825188e-014 -2.1653543307086611 #
point $-1 228.68765762411883 0 -6.3976377952756049 #
model_id-kcp-attrib $-1 $-1 $-1 $475 1 987433870 187 -1715798015 10 #
face $579 $580 $581 $12 $-1 $582 reversed single #
loop $-1 $583 $584 $475 #
torus-surface $-1 -208.66141732283501 0 -3.1496062992125999 0 0 1 268.89763779527601 1.1811023622047201 1 0 0 forward_v I I I I #
loop $-1 $-1 $585 $396 #
coedge $-1 $535 $535 $586 $587 reversed $476 $-1 #
coedge $-1 $536 $536 $588 $589 reversed $478 $-1 #
coedge $-1 $537 $537 $479 $538 forward $590 $-1 #
edge $-1 $591 0 $591 6.2831853071795862 $479 $592 forward 7 unknown #
coedge $-1 $539 $539 $480 $540 forward $593 $-1 #
edge $-1 $594 0 $594 6.2831853071795862 $480 $595 forward 7 unknown #
loop $-1 $485 $481 $548 #
vertex $-1 $482 $596 #
ellipse-curve $-1 -208.66141732283501 0 -1.9685039370078701 0 0 -1 261.811023622047 0 0 1 I I #
loop $-1 $597 $483 $598 #
attrib_edge_convexity-kcp-attrib $-1 $599 $-1 $484 1 #
vertex $-1 $484 $600 #
ellipse-curve $-1 -208.66141732283501 0 -7.3818897637795304 0 0 1 226.37795275590599 0 0 1 I I #
face $601 $598 $541 $12 $-1 $602 reversed single #
point $-1 34.757174894881899 0 -1.9685039370078701 #
loop $-1 $-1 $603 $551 #
face $604 $492 $488 $12 $-1 $605 forward single #
point $-1 -508.10636611960001 0 -1.1366591981015299 #
coedge $-1 $553 $553 $606 $607 forward $491 $-1 #
model_id-kcp-attrib $-1 $-1 $-1 $492 1 987433870 187 -1715798015 35 #
face $608 $609 $610 $12 $-1 $611 forward single #
plane-surface $-1 73.818897637795303 0 -1.9685039370078701 0 0 1 1 0 0 forward_v I I I I #
coedge $-1 $557 $557 $612 $613 forward $494 $-1 #
model_id-kcp-attrib $-1 $-1 $-1 $495 1 987433870 187 -1715798015 22 #
plane-surface $-1 70.866141732283495 0 1.9685039370078701 0 0 -1 -1 0 0 forward_v I I I I #
coedge $-1 $560 $560 $497 $561 reversed $614 $-1 #
edge $615 $616 0 $616 6.2831853071795862 $497 $617 forward 7 unknown #
model_id-kcp-attrib $-1 $-1 $-1 $499 1 987433870 187 -1715798015 24 #
face $618 $619 $620 $12 $-1 $621 reversed single #
loop $-1 $614 $622 $499 #
plane-surface $-1 116.459523283012 0 0.98425196850393704 0 0 -1 -1 0 0 forward_v I I I I #
loop $-1 $-1 $501 $419 #
vertex $-1 $502 $623 #
ellipse-curve $-1 -208.66141732283501 0 5.9055118110236204 0 0 1 261.811023622047 0 0 1 I I #
coedge $-1 $569 $569 $624 $625 forward $504 $-1 #
coedge $-1 $570 $570 $507 $571 forward $626 $-1 #
edge $627 $628 0 $628 6.2831853071795862 $570 $629 forward 7 unknown #
point $-1 -261.81102362204706 0 3.7401574803149695 #
point $-1 -262.59842519685003 0 2.9527559055118195 #
point $-1 -362.99212598425208 0 13.779527559055149 #
convexity-sys-attrib $-1 $-1 $-1 $524 #
vertex $-1 $524 $630 #
ellipse-curve $-1 -2.8421709430404007e-014 0 -0.98425196850394059 0 0 1 268.89763779527601 0 0 1 I I #
point $-1 -343.30298378278781 4.2041101522658235e-014 -0.98425196850393171 #
model_id-kcp-attrib $-1 $-1 $-1 $531 1 987433870 187 -1715798015 11 #
face $631 $632 $633 $12 $-1 $634 reversed single #
loop $-1 $635 $636 $531 #
torus-surface $-1 -208.66141732283501 0 -12.795275590551199 0 0 1 338.58267716535403 11.8110236220472 1 0 0 forward_v I I I I #
loop $-1 $-1 $606 $475 #
coedge $-1 $584 $584 $637 $638 reversed $532 $-1 #
coedge $-1 $585 $585 $639 $640 reversed $534 $-1 #
coedge $-1 $586 $586 $535 $587 forward $641 $-1 #
edge $-1 $642 0 $642 6.2831853071795862 $535 $643 forward 7 unknown #
coedge $-1 $588 $588 $536 $589 forward $644 $-1 #
edge $-1 $645 0 $645 6.2831853071795862 $536 $646 forward 7 unknown #
loop $-1 $593 $537 $647 #
vertex $-1 $538 $648 #
ellipse-curve $-1 -208.66141732283501 0 -16.929133858267701 0 0 -1 -265.74803149606299 0 0 1 I I #
loop $-1 $-1 $539 $647 #
vertex $-1 $540 $649 #
ellipse-curve $-1 -208.66141732283501 0 -5.9055118110236204 0 0 1 265.74803149606299 0 0 1 I I #
point $-1 53.1496062992126 0 -1.9685039370078701 #
loop $650 $-1 $651 $598 #
face $652 $-1 $544 $12 $-1 $653 reversed single #
convexity-sys-attrib $-1 $-1 $545 $484 #
point $-1 17.716535433070899 0 -7.3818897637795304 #
model_id-kcp-attrib $-1 $-1 $-1 $548 1 987433870 187 -1715798015 41 #
plane-surface $-1 45.921894534055099 0 -1.9685039370078701 0 0 1 1 0 0 forward_v I I I I #
coedge $-1 $603 $603 $654 $655 reversed $550 $-1 #
model_id-kcp-attrib $-1 $-1 $-1 $551 1 987433870 187 -1715798015 34 #
cone-surface $-1 -208.66141732283501 0 -1.47637795275591 0 0 1 298.54613745623999 0 0 1 I I 0.93541434669416601 0.35355339059147201 298.54613745623999 forward I I I I #
coedge $-1 $606 $606 $553 $607 reversed $583 $-1 #
edge $-1 $656 0 $656 6.2831853071795862 $606 $657 forward 7 unknown #
model_id-kcp-attrib $-1 $-1 $-1 $555 1 987433870 187 -1715798015 36 #
face $658 $659 $641 $12 $-1 $660 reversed single #
loop $-1 $661 $637 $555 #
cone-surface $-1 -208.66141732283501 0 -10.8267716535433 0 0 1 267.71653543307099 0 0 1 I I 0 1 267.71653543307099 forward I I I I #
coedge $-1 $612 $612 $557 $613 reversed $662 $-1 #
edge $-1 $663 0 $663 6.2831853071795862 $612 $664 forward 7 unknown #
loop $-1 $-1 $560 $499 #
attrib_edge_convexity-kcp-attrib $-1 $665 $-1 $561 2 #
vertex $-1 $561 $666 #
ellipse-curve $-1 -208.66141732283501 0 0.98425196850393704 0 0 1 299.848180424291 0 0 1 I I #
model_id-kcp-attrib $-1 $-1 $-1 $563 1 987433870 187 -1715798015 25 #
face $667 $668 $669 $12 $-1 $670 reversed single #
loop $-1 $671 $672 $563 #
plane-surface $-1 149.606299212598 0 12.795275590551199 0 0 -1 -1 0 0 forward_v I I I I #
coedge $-1 $622 $622 $673 $674 forward $564 $-1 #
point $-1 53.1496062992126 0 5.9055118110236204 #
coedge $-1 $624 $624 $569 $625 reversed $675 $-1 #
edge $-1 $676 0 $676 6.2831853071795862 $624 $677 forward 7 unknown #
loop $678 $-1 $570 $679 #
attrib_edge_convexity-kcp-attrib $-1 $680 $-1 $571 1 #
vertex $681 $571 $682 #
ellipse-curve $-1 -208.66141732283501 0 7.3818897637795304 0 0 1 208.66141732283501 0 0 1 I I #
point $-1 268.89763779527595 0 -0.9842519685039206 #
model_id-kcp-attrib $-1 $-1 $-1 $580 1 987433870 187 -1715798015 12 #
face $683 $684 $685 $12 $-1 $686 reversed single #
loop $-1 $687 $688 $580 #
torus-surface $-1 -208.66141732283501 0 -13.9763779527559 0 0 1 351.72697982218 1.1811023622047201 1 0 0 forward_v I I I I #
loop $-1 $-1 $689 $531 #
coedge $-1 $636 $636 $690 $691 reversed $581 $-1 #
coedge $-1 $637 $637 $584 $638 forward $610 $-1 #
edge $-1 $692 0 $692 6.2831853071795862 $584 $693 forward 7 unknown #
coedge $-1 $639 $639 $585 $640 forward $661 $-1 #
edge $-1 $694 0 $694 6.2831853071795862 $585 $695 forward 7 unknown #
loop $-1 $696 $586 $609 #
vertex $-1 $587 $697 #
ellipse-curve $-1 -208.66141732283501 0 -19.685039370078702 0 0 -1 266.53543307086602 0 0 1 I I #
loop $-1 $698 $588 $699 #
vertex $-1 $589 $700 #
ellipse-curve $-1 -208.66141732283501 0 -17.716535433070899 0 0 1 -264.96062992126002 0 0 1 I I #
face $701 $548 $590 $12 $-1 $702 reversed single #
point $-1 -474.409448818898 0 -16.929133858267701 #
point $-1 57.086614173228398 0 -5.9055118110236204 #
model_id-kcp-attrib $-1 $-1 $-1 $597 1 987433870 187 -1715798015 46 #
coedge $-1 $651 $651 $703 $704 forward $597 $-1 #
model_id-kcp-attrib $-1 $-1 $-1 $598 1 987433870 187 -1715798015 42 #
plane-surface $-1 8.8582677165354298 0 -7.3818897637795304 0 0 1 1 0 0 forward_v I I I I #
coedge $-1 $654 $654 $603 $655 forward $705 $-1 #
edge $706 $707 0 $707 6.2831853071795862 $654 $708 forward 7 unknown #
vertex $-1 $607 $709 #
ellipse-curve $-1 -208.66141732283501 0 -1.9685039370078701 0 0 1 268.89763779527601 0 0 1 I I #
model_id-kcp-attrib $-1 $-1 $-1 $609 1 987433870 187 -1715798015 37 #
face $710 $699 $711 $12 $-1 $712 reversed single #
plane-surface $-1 52.165354330708702 0 -19.685039370078702 0 0 1 1 0 0 forward_v I I I I #
loop $-1 $-1 $639 $555 #
loop $-1 $675 $612 $713 #
vertex $-1 $613 $714 #
ellipse-curve $-1 -208.66141732283501 0 1.9685039370078701 0 0 -1 -262.59842519684997 0 0 1 I I #
convexity-sys-attrib $-1 $-1 $615 $561 #
point $-1 91.186763101456705 0 0.98425196850393704 #
model_id-kcp-attrib $-1 $-1 $-1 $619 1 987433870 187 -1715798015 26 #
face $715 $716 $717 $12 $-1 $718 reversed single #
loop $-1 $719 $720 $619 #
cone-surface $-1 -208.66141732283501 0 17.2244094488189 0 0 -1 -366.14173228346499 0 0 1 I I 0 1 366.14173228346499 forward I I I I #
loop $-1 $-1 $721 $563 #
coedge $-1 $672 $672 $722 $723 forward $620 $-1 #
coedge $-1 $673 $673 $622 $674 reversed $724 $-1 #
edge $725 $726 0 $726 6.2831853071795862 $673 $727 forward 7 unknown #
loop $-1 $-1 $624 $713 #
vertex $-1 $625 $728 #
ellipse-curve $-1 -208.66141732283501 0 2.7559055118110201 0 0 1 -261.811023622047 0 0 1 I I #
model_id-kcp-attrib $-1 $-1 $-1 $626 1 987433870 187 -1715798015 45 #
face $729 $309 $730 $12 $-1 $731 reversed single #
convexity-sys-attrib $-1 $-1 $627 $571 #
model_id-kcp-attrib $-1 $-1 $-1 $628 1 987433870 187 -1715798015 49 #
point $-1 0 0 7.3818897637795304 #
model_id-kcp-attrib $-1 $-1 $-1 $632 1 987433870 187 -1715798015 13 #
face $732 $733 $734 $12 $-1 $735 reversed single #
loop $-1 $736 $737 $632 #
torus-surface $-1 -208.66141732283501 0 -21.8509493928007 0 0 -1 365.16151206648601 3.1496062992125999 -1 0 0 forward_v I I I I #
loop $-1 $-1 $738 $580 #
coedge $-1 $688 $688 $739 $740 reversed $633 $-1 #
coedge $-1 $689 $689 $741 $742 reversed $635 $-1 #
coedge $-1 $690 $690 $636 $691 forward $743 $-1 #
edge $744 $745 0 $745 6.2831853071795862 $636 $746 forward 7 unknown #
vertex $-1 $638 $747 #
ellipse-curve $-1 -208.66141732283501 0 -3.1496062992125999 0 0 -1 267.71653543307099 0 0 1 I I #
vertex $-1 $640 $748 #
ellipse-curve $-1 -208.66141732283501 0 -18.503937007874001 0 0 1 267.71653543307099 0 0 1 I I #
loop $749 $-1 $750 $609 #
point $-1 57.874015748031503 0 -19.685039370078702 #
loop $751 $-1 $752 $699 #
face $753 $647 $644 $12 $-1 $754 reversed single #
point $-1 -473.62204724409497 0 -17.716535433070899 #
model_id-kcp-attrib $-1 $-1 $-1 $647 1 987433870 187 -1715798015 40 #
cone-surface $-1 -208.66141732283501 0 -9.8425196850393704 0 0 -1 -265.74803149606299 0 0 1 I I 0 1 265.74803149606299 forward I I I I #
coedge $-1 $703 $703 $651 $704 reversed $730 $-1 #
edge $755 $756 0 $756 6.2831853071795862 $703 $757 forward 7 unknown #
loop $-1 $-1 $654 $758 #
attrib_edge_convexity-kcp-attrib $-1 $759 $-1 $655 2 #
vertex $-1 $655 $760 #
ellipse-curve $-1 -208.66141732283501 0 -0.98425196850393704 0 0 1 299.848180424291 0 0 1 I I #
point $-1 60.236220472440998 0 -1.9685039370078701 #
model_id-kcp-attrib $-1 $-1 $-1 $659 1 987433870 187 -1715798015 38 #
loop $761 $762 $763 $659 #
cone-surface $-1 -208.66141732283501 0 -18.7007874015748 0 0 -1 -253.93700787401599 0 0 1 I I 0 1 253.93700787401599 forward I I I I #
face $764 $679 $662 $12 $-1 $765 reversed single #
point $-1 -471.25984251968498 0 1.9685039370078701 #
model_id-kcp-attrib $-1 $-1 $-1 $668 1 987433870 187 -1715798015 27 #
face $766 $767 $768 $12 $-1 $769 forward single #
loop $-1 $770 $771 $668 #
plane-surface $-1 158.46456692913401 0 21.653543307086601 0 0 -1 -1 0 0 forward_v I I I I #
loop $-1 $-1 $772 $619 #
coedge $-1 $720 $720 $773 $774 forward $669 $-1 #
coedge $-1 $721 $721 $775 $776 reversed $671 $-1 #
coedge $-1 $722 $722 $672 $723 reversed $777 $-1 #
edge $-1 $778 0 $778 6.2831853071795862 $722 $779 forward 7 unknown #
loop $-1 $-1 $673 $733 #
attrib_edge_convexity-kcp-attrib $-1 $780 $-1 $674 4 #
vertex $-1 $674 $781 #
ellipse-curve $-1 -208.66141732283501 0 0.98425196850393704 0 0 1 -338.58267716535403 0 0 1 I I #
point $-1 -470.47244094488201 0 2.7559055118110201 #
model_id-kcp-attrib $-1 $-1 $-1 $679 1 987433870 187 -1715798015 17 #
loop $782 $626 $703 $679 #
cone-surface $-1 -208.66141732283501 0 0 0 0 -1 -208.66141732283501 0 0 1 I I 0 1 208.66141732283501 forward I I I I #
model_id-kcp-attrib $-1 $-1 $-1 $684 1 987433870 187 -1715798015 14 #
face $783 $713 $784 $12 $-1 $785 reversed single #
loop $-1 $777 $773 $684 #
torus-surface $-1 -208.66141732283501 0 15.944881889763799 0 0 -1 362.99212598425203 3.1496062992125999 -1 0 0 forward_v I I I I #
loop $-1 $-1 $786 $632 #
coedge $-1 $737 $737 $787 $788 reversed $685 $-1 #
coedge $-1 $738 $738 $789 $790 reversed $687 $-1 #
coedge $-1 $739 $739 $688 $740 forward $791 $-1 #
edge $-1 $792 0 $792 6.2831853071795862 $688 $793 forward 7 unknown #
coedge $-1 $741 $741 $689 $742 forward $794 $-1 #
edge $-1 $795 0 $795 6.2831853071795862 $689 $796 forward 7 unknown #
loop $-1 $705 $690 $758 #
attrib_edge_convexity-kcp-attrib $-1 $797 $-1 $691 4 #
vertex $-1 $691 $798 #
ellipse-curve $-1 -208.66141732283501 0 -0.98425196850393704 0 0 -1 338.58267716535403 0 0 1 I I #
point $-1 59.055118110236201 0 -3.1496062992125999 #
point $-1 59.055118110236201 0 -18.503937007874001 #
model_id-kcp-attrib $-1 $-1 $-1 $696 1 987433870 187 -1715798015 52 #
coedge $-1 $750 $750 $763 $799 forward $696 $-1 #
model_id-kcp-attrib $-1 $-1 $-1 $698 1 987433870 187 -1715798015 53 #
coedge $-1 $752 $752 $800 $801 reversed $698 $-1 #
model_id-kcp-attrib $-1 $-1 $-1 $699 1 987433870 187 -1715798015 39 #
plane-surface $-1 51.181102362204697 0 -17.716535433070899 0 0 -1 -1 0 0 forward_v I I I I #
attrib_edge_convexity-kcp-attrib $-1 $802 $-1 $704 1 #
vertex $803 $704 $804 #
ellipse-curve $-1 -208.66141732283501 0 -7.3818897637795304 0 0 1 208.66141732283501 0 0 1 I I #
face $805 $551 $743 $12 $-1 $806 reversed single #
convexity-sys-attrib $-1 $-1 $706 $655 #
point $-1 91.186763101456705 0 -0.98425196850393704 #
model_id-kcp-attrib $-1 $-1 $-1 $711 1 987433870 187 -1715798015 50 #
loop $807 $-1 $800 $659 #
coedge $-1 $763 $763 $750 $799 reversed $711 $-1 #
model_id-kcp-attrib $-1 $-1 $-1 $713 1 987433870 187 -1715798015 16 #
torus-surface $-1 -208.66141732283501 0 2.7559055118110201 0 0 -1 262.59842519684997 0.78740157480314998 -1 0 0 forward_v I I I I #
model_id-kcp-attrib $-1 $-1 $-1 $716 1 987433870 187 -1715798015 28 #
face $808 $809 $810 $12 $-1 $811 reversed single #
loop $-1 $812 $813 $716 #
cone-surface $-1 -208.66141732283501 0 -0.98425196850393704 0 0 -1 -369.29133858267699 0 0 1 I I 0.0521030459390237 0.99864171383127998 369.29133858267699 forward I I I I #
loop $-1 $-1 $814 $668 #
coedge $-1 $771 $771 $772 $815 reversed $717 $-1 #
coedge $-1 $772 $772 $771 $815 forward $719 $-1 #
coedge $-1 $773 $773 $720 $774 reversed $734 $-1 #
edge $-1 $816 0 $816 6.2831853071795862 $773 $817 forward 7 unknown #
coedge $-1 $775 $775 $721 $776 forward $784 $-1 #
edge $-1 $818 0 $818 6.2831853071795862 $775 $819 forward 7 unknown #
loop $-1 $-1 $722 $684 #
vertex $-1 $723 $820 #
ellipse-curve $-1 -208.66141732283501 0 12.795275590551199 0 0 1 -362.99212598425203 0 0 1 I I #
convexity-sys-attrib $-1 $-1 $725 $674 #
point $-1 -547.24409448818903 0 0.98425196850393704 #
model_id-kcp-attrib $-1 $-1 $-1 $730 1 987433870 187 -1715798015 44 #
model_id-kcp-attrib $-1 $-1 $-1 $733 1 987433870 187 -1715798015 15 #
loop $-1 $724 $775 $733 #
torus-surface $-1 -208.66141732283501 0 12.795275590551199 0 0 -1 338.58267716535403 11.8110236220472 -1 0 0 forward_v I I I I #
coedge $-1 $786 $786 $821 $822 reversed $736 $-1 #
coedge $-1 $787 $787 $737 $788 forward $823 $-1 #
edge $-1 $824 0 $824 6.2831853071795862 $737 $825 forward 7 unknown #
coedge $-1 $789 $789 $738 $790 forward $826 $-1 #
edge $-1 $827 0 $827 6.2831853071795862 $738 $828 forward 7 unknown #
loop $-1 $794 $739 $829 #
vertex $-1 $740 $830 #
ellipse-curve $-1 -208.66141732283501 0 -12.795275590551199 0 0 -1 351.72697982218 0 0 1 I I #
loop $-1 $-1 $741 $829 #
vertex $-1 $742 $831 #
ellipse-curve $-1 -208.66141732283501 0 -12.795275590551199 0 0 1 350.393700787402 0 0 1 I I #
convexity-sys-attrib $-1 $-1 $744 $691 #
point $-1 129.92125984251999 0 -0.98425196850393704 #
edge $832 $833 0 $833 6.2831853071795862 $750 $834 forward 7 unknown #
coedge $-1 $800 $800 $752 $801 forward $762 $-1 #
edge $835 $836 0 $836 6.2831853071795862 $800 $837 forward 7 unknown #
convexity-sys-attrib $-1 $-1 $755 $704 #
model_id-kcp-attrib $-1 $-1 $-1 $756 1 987433870 187 -1715798015 48 #
point $-1 0 0 -7.3818897637795304 #
model_id-kcp-attrib $-1 $-1 $-1 $758 1 987433870 187 -1715798015 33 #
plane-surface $-1 116.459523283012 0 -0.98425196850393704 0 0 1 1 0 0 forward_v I I I I #
model_id-kcp-attrib $-1 $-1 $-1 $762 1 987433870 187 -1715798015 51 #
model_id-kcp-attrib $-1 $838 $-1 $767 1 987433870 187 -1715798015 43 #
face $839 $840 $841 $12 $-1 $842 reversed single #
loop $-1 $843 $844 $767 #
plane-surface $-1 160.82677165354301 0 -23.6220472440945 0 0 1 1 0 0 forward_v I I I I #
loop $-1 $-1 $845 $716 #
coedge $-1 $813 $813 $814 $846 reversed $768 $-1 #
coedge $-1 $814 $814 $813 $846 forward $770 $-1 #
edge $-1 $847 0 $847 6.2831853071795862 $772 $848 forward 7 unknown #
vertex $-1 $774 $849 #
ellipse-curve $-1 -208.66141732283501 0 15.944881889763799 0 0 -1 -366.14173228346499 0 0 1 I I #
vertex $-1 $776 $850 #
ellipse-curve $-1 -208.66141732283501 0 12.795275590551199 0 0 1 350.393700787402 0 0 1 I I #
point $-1 -571.65354330708703 0 12.795275590551199 #
coedge $-1 $821 $821 $786 $822 forward $841 $-1 #
edge $-1 $851 0 $851 6.2831853071795862 $786 $852 forward 7 unknown #
loop $-1 $826 $787 $840 #
vertex $-1 $788 $853 #
ellipse-curve $-1 -208.66141732283501 0 -18.954180325657301 0 0 -1 -366.39793788782799 0 0 1 I I #
loop $-1 $-1 $789 $840 #
vertex $-1 $790 $854 #
ellipse-curve $-1 -208.66141732283501 0 -12.8900895525772 0 0 1 -352.19063950518301 0 0 1 I I #
face $855 $758 $791 $12 $-1 $856 reversed single #
point $-1 143.06556249934499 0 -12.795275590551199 #
point $-1 141.73228346456699 0 -12.795275590551199 #
attrib_edge_convexity-kcp-attrib $-1 $857 $-1 $799 1 #
vertex $-1 $799 $858 #
ellipse-curve $-1 -208.66141732283501 0 -19.685039370078702 0 0 1 253.93700787401599 0 0 1 I I #
attrib_edge_convexity-kcp-attrib $-1 $859 $-1 $801 1 #
vertex $-1 $801 $860 #
ellipse-curve $-1 -208.66141732283501 0 -17.716535433070899 0 0 1 253.93700787401599 0 0 1 I I #
model_id-kcp-attrib $-1 $-1 $808 $767 1 987433870 187 -1715798015 29 #
model_id-kcp-attrib $-1 $-1 $-1 $809 1 987433870 187 -1715798015 30 #
face $861 $829 $823 $12 $-1 $862 reversed single #
loop $-1 $863 $821 $809 #
cone-surface $-1 -208.66141732283501 0 -21.653543307086601 0 0 -1 -368.30708661417299 0 0 1 I I 0.099503719020996806 0.99503719020998904 368.30708661417299 forward I I I I #
loop $-1 $-1 $864 $767 #
coedge $-1 $844 $844 $845 $865 reversed $810 $-1 #
coedge $-1 $845 $845 $844 $865 forward $812 $-1 #
edge $-1 $866 0 $866 6.2831853071795862 $814 $867 forward 7 unknown #
vertex $-1 $815 $868 #
ellipse-curve $-1 -208.66141732283501 0 21.653543307086601 0 0 1 366.14173228346499 0 0 1 I I #
point $-1 -574.80314960629903 0 15.944881889763799 #
point $-1 141.73228346456699 0 12.795275590551199 #
vertex $-1 $822 $869 #
ellipse-curve $-1 -208.66141732283501 0 -21.537551852577 0 0 1 -368.295487468722 0 0 1 I I #
point $-1 -575.05935521066203 0 -18.954180325657301 #
point $-1 -560.85205682801802 0 -12.8900895525772 #
model_id-kcp-attrib $-1 $-1 $-1 $829 1 987433870 187 -1715798015 32 #
plane-surface $-1 142.51968503936999 0 -12.795275590551199 0 0 1 1 0 0 forward_v I I I I #
convexity-sys-attrib $-1 $-1 $832 $799 #
point $-1 45.275590551181097 0 -19.685039370078702 #
convexity-sys-attrib $-1 $-1 $835 $801 #
point $-1 45.275590551181097 0 -17.716535433070899 #
model_id-kcp-attrib $-1 $-1 $-1 $840 1 987433870 187 -1715798015 31 #
cone-surface $-1 -208.66141732283501 0 -16.240157480314998 0 0 -1 -360.03937007873998 0 0 1 I I 0.91972417881804602 0.39256519827599501 360.03937007873998 forward I I I I #
loop $-1 $-1 $870 $809 #
coedge $-1 $864 $864 $870 $871 forward $843 $-1 #
edge $872 $873 0 $873 6.2831853071795862 $845 $874 forward 7 unknown #
vertex $-1 $846 $875 #
ellipse-curve $-1 -208.66141732283501 0 21.653543307086601 0 0 1 368.11023622047202 0 0 1 I I #
point $-1 157.48031496063001 0 21.653543307086601 #
point $-1 -576.95690479155701 0 -21.537551852577 #
coedge $-1 $870 $870 $864 $871 reversed $863 $-1 #
edge $876 $877 0 $877 6.2831853071795862 $864 $878 forward 7 unknown #
attrib_edge_convexity-kcp-attrib $-1 $879 $-1 $865 1 #
vertex $-1 $865 $880 #
ellipse-curve $-1 -208.66141732283501 0 -23.6220472440945 0 0 1 370.47244094488201 0 0 1 I I #
point $-1 159.44881889763801 0 21.653543307086601 #
attrib_edge_convexity-kcp-attrib $-1 $881 $-1 $871 1 #
vertex $-1 $871 $882 #
ellipse-curve $-1 -208.66141732283501 0 -23.6220472440945 0 0 1 368.50393700787401 0 0 1 I I #
convexity-sys-attrib $-1 $-1 $872 $865 #
point $-1 161.811023622047 0 -23.6220472440945 #
convexity-sys-attrib $-1 $-1 $876 $871 #
point $-1 159.84251968503901 0 -23.6220472440945 #
End-of-ACIS-data 