  0
SECTION
  2
HEADER
  9
$ACADVER
  1
AC1009
  9
$INSBASE
 10
0.0
 20
0.0
 30
0.0
  9
$EXTMIN
 10
0.0
 20
0.0
 30
0.0
  9
$EXTMAX
 10
4.0
 20
4.0
 30
4.0
  9
$LIMMIN
 10
0.0
 20
0.0
  9
$LIMMAX
 10
12.0
 20
9.0
  9
$ORTHOMODE
 70
     0
  9
$REGENMODE
 70
     1
  9
$FILLMODE
 70
     1
  9
$QTEXTMODE
 70
     0
  9
$MIRRTEXT
 70
     1
  9
$DRAGMODE
 70
     2
  9
$LTSCALE
 40
1.0
  9
$OSMODE
 70
     0
  9
$ATTMODE
 70
     1
  9
$TEXTSIZE
 40
0.2
  9
$TRACEWID
 40
0.05
  9
$TEXTSTYLE
  7
STANDARD
  9
$CLAYER
  8
0
  9
$CELTYPE
  6
BYLAYER
  9
$CECOLOR
 62
   256
  9
$DIMSCALE
 40
1.0
  9
$DIMASZ
 40
0.18
  9
$DIMEXO
 40
0.0625
  9
$DIMDLI
 40
0.38
  9
$DIMRND
 40
0.0
  9
$DIMDLE
 40
0.0
  9
$DIMEXE
 40
0.18
  9
$DIMTP
 40
0.0
  9
$DIMTM
 40
0.0
  9
$DIMTXT
 40
0.18
  9
$DIMCEN
 40
0.09
  9
$DIMTSZ
 40
0.0
  9
$DIMTOL
 70
     0
  9
$DIMLIM
 70
     0
  9
$DIMTIH
 70
     1
  9
$DIMTOH
 70
     1
  9
$DIMSE1
 70
     0
  9
$DIMSE2
 70
     0
  9
$DIMTAD
 70
     0
  9
$DIMZIN
 70
     0
  9
$DIMBLK
  1

  9
$DIMASO
 70
     1
  9
$DIMSHO
 70
     1
  9
$DIMPOST
  1

  9
$DIMAPOST
  1

  9
$DIMALT
 70
     0
  9
$DIMALTD
 70
     2
  9
$DIMALTF
 40
25.4
  9
$DIMLFAC
 40
1.0
  9
$DIMTOFL
 70
     0
  9
$DIMTVP
 40
0.0
  9
$DIMTIX
 70
     0
  9
$DIMSOXD
 70
     0
  9
$DIMSAH
 70
     0
  9
$DIMBLK1
  1

  9
$DIMBLK2
  1

  9
$DIMSTYLE
  2
*UNNAMED
  9
$DIMCLRD
 70
     0
  9
$DIMCLRE
 70
     0
  9
$DIMCLRT
 70
     0
  9
$DIMTFAC
 40
1.0
  9
$DIMGAP
 40
0.09
  9
$LUNITS
 70
     2
  9
$LUPREC
 70
     4
  9
$SKETCHINC
 40
0.1
  9
$FILLETRAD
 40
0.0
  9
$AUNITS
 70
     0
  9
$AUPREC
 70
     0
  9
$MENU
  1
acad
  9
$ELEVATION
 40
0.0
  9
$PELEVATION
 40
0.0
  9
$THICKNESS
 40
0.0
  9
$LIMCHECK
 70
     0
  9
$BLIPMODE
 70
     1
  9
$CHAMFERA
 40
0.0
  9
$CHAMFERB
 40
0.0
  9
$SKPOLY
 70
     0
  9
$TDCREATE
 40
2449373.514351724
  9
$TDUPDATE
 40
2449373.532412800
  9
$TDINDWG
 40
0.0180610764
  9
$TDUSRTIMER
 40
0.0180610764
  9
$USRTIMER
 70
     1
  9
$ANGBASE
 50
0.0
  9
$ANGDIR
 70
     0
  9
$PDMODE
 70
     0
  9
$PDSIZE
 40
0.0
  9
$PLINEWID
 40
0.0
  9
$COORDS
 70
     1
  9
$SPLFRAME
 70
     0
  9
$SPLINETYPE
 70
     6
  9
$SPLINESEGS
 70
     8
  9
$ATTDIA
 70
     0
  9
$ATTREQ
 70
     1
  9
$HANDLING
 70
     1
  9
$HANDSEED
  5
1C6C
  9
$SURFTAB1
 70
     6
  9
$SURFTAB2
 70
     6
  9
$SURFTYPE
 70
     6
  9
$SURFU
 70
     6
  9
$SURFV
 70
     6
  9
$UCSNAME
  2

  9
$UCSORG
 10
0.0
 20
0.0
 30
0.0
  9
$UCSXDIR
 10
1.0
 20
0.0
 30
0.0
  9
$UCSYDIR
 10
0.0
 20
1.0
 30
0.0
  9
$PUCSNAME
  2

  9
$PUCSORG
 10
0.0
 20
0.0
 30
0.0
  9
$PUCSXDIR
 10
1.0
 20
0.0
 30
0.0
  9
$PUCSYDIR
 10
0.0
 20
1.0
 30
0.0
  9
$USERI1
 70
     0
  9
$USERI2
 70
     0
  9
$USERI3
 70
     0
  9
$USERI4
 70
     0
  9
$USERI5
 70
     0
  9
$USERR1
 40
0.0
  9
$USERR2
 40
0.0
  9
$USERR3
 40
0.0
  9
$USERR4
 40
0.0
  9
$USERR5
 40
0.0
  9
$WORLDVIEW
 70
     1
  9
$SHADEDGE
 70
     3
  9
$SHADEDIF
 70
    70
  9
$TILEMODE
 70
     1
  9
$MAXACTVP
 70
    16
  9
$PINSBASE
 10
0.0
 20
0.0
 30
0.0
  9
$PLIMCHECK
 70
     0
  9
$PEXTMIN
 10
1.000000E+20
 20
1.000000E+20
 30
1.000000E+20
  9
$PEXTMAX
 10
-1.000000E+20
 20
-1.000000E+20
 30
-1.000000E+20
  9
$PLIMMIN
 10
0.0
 20
0.0
  9
$PLIMMAX
 10
12.0
 20
9.0
  9
$UNITMODE
 70
     0
  9
$VISRETAIN
 70
     0
  9
$PLINEGEN
 70
     0
  9
$PSLTSCALE
 70
     1
  9
$TREEDEPTH
 70
  3020
  9
$DWGCODEPAGE
  3
ascii
  0
ENDSEC
  0
SECTION
  2
TABLES
  0
TABLE
  2
VPORT
 70
     2
  0
VPORT
  2
*ACTIVE
 70
     0
 10
0.0
 20
0.0
 11
1.0
 21
1.0
 12
1.81356
 22
0.063214
 13
0.0
 23
0.0
 14
1.0
 24
1.0
 15
0.0
 25
0.0
 16
0.8
 26
1.2
 36
1.0
 17
0.0
 27
0.0
 37
0.0
 40
6.447823
 41
1.594883
 42
50.0
 43
0.0
 44
0.0
 50
0.0
 51
0.0
 71
     0
 72
   100
 73
     1
 74
     1
 75
     0
 76
     0
 77
     0
 78
     0
  0
ENDTAB
  0
TABLE
  2
LTYPE
 70
     1
  0
LTYPE
  2
CONTINUOUS
 70
    64
  3
Solid line
 72
    65
 73
     0
 40
0.0
  0
ENDTAB
  0
TABLE
  2
LAYER
 70
     2
  0
LAYER
  2
0
 70
    64
 62
     7
  6
CONTINUOUS
  0
LAYER
  2
AME_FRZ
 70
    65
 62
     7
  6
CONTINUOUS
  0
ENDTAB
  0
TABLE
  2
STYLE
 70
     1
  0
STYLE
  2
STANDARD
 70
     0
 40
0.0
 41
1.0
 50
0.0
 71
     0
 42
0.2
  3
txt
  4

  0
ENDTAB
  0
TABLE
  2
VIEW
 70
     0
  0
ENDTAB
  0
TABLE
  2
UCS
 70
     0
  0
ENDTAB
  0
TABLE
  2
APPID
 70
     3
  0
APPID
  2
ACAD
 70
    64
  0
APPID
  2
AME_SOL
 70
    64
  0
APPID
  2
AVE_INVOKE
 70
    64
  0
ENDTAB
  0
TABLE
  2
DIMSTYLE
 70
     0
  0
ENDTAB
  0
ENDSEC
  0
SECTION
  2
BLOCKS
  0
BLOCK
  8
0
  5
1B76
  2
AME_NIL
 70
    64
 10
0.0
 20
0.0
 30
0.0
  1
AME_NIL
  3
AME_NIL
  0
ENDBLK
  8
0
  5
1B77
  0
BLOCK
  8
0
  5
1B79
  2
AME_SOL
 70
    64
 10
0.0
 20
0.0
 30
0.0
  1
AME_SOL
  3
AME_SOL
  0
ENDBLK
  8
0
  5
1B7A
  0
BLOCK
  8
0
  5
1B9A
  2
*U4
 70
    65
 10
0.0
 20
0.0
 30
0.0
  1
*U
  3
*U
  0
LINE
  8
0
 62
     7
  5
1B9B
 10
4.0
 20
4.0
 30
0.0
 11
4.0
 21
4.0
 31
4.0
1001
AME_SOL
1070
     1
1071
       22
  0
LINE
  8
0
 62
     7
  5
1B9C
 10
4.0
 20
4.0
 30
4.0
 11
4.0
 21
0.0
 31
4.0
1001
AME_SOL
1070
     1
1071
       21
  0
LINE
  8
0
 62
     7
  5
1B9D
 10
0.0
 20
4.0
 30
4.0
 11
4.0
 21
4.0
 31
4.0
1001
AME_SOL
1070
     1
1071
       20
  0
LINE
  8
0
 62
     7
  5
1B9E
 10
0.0
 20
4.0
 30
0.0
 11
0.0
 21
4.0
 31
4.0
1001
AME_SOL
1070
     1
1071
       19
  0
LINE
  8
0
 62
     7
  5
1B9F
 10
0.0
 20
4.0
 30
4.0
 11
0.0
 21
0.0
 31
4.0
1001
AME_SOL
1070
     1
1071
       18
  0
LINE
  8
0
 62
     7
  5
1BA0
 10
0.0
 20
0.0
 30
0.0
 11
0.0
 21
0.0
 31
4.0
1001
AME_SOL
1070
     1
1071
       17
  0
LINE
  8
0
 62
     7
  5
1BA1
 10
4.0
 20
0.0
 30
4.0
 11
4.0
 21
0.0
 31
0.0
1001
AME_SOL
1070
     1
1071
       16
  0
LINE
  8
0
 62
     7
  5
1BA2
 10
0.0
 20
0.0
 30
4.0
 11
4.0
 21
0.0
 31
4.0
1001
AME_SOL
1070
     1
1071
       15
  0
LINE
  8
0
 62
     7
  5
1BA3
 10
0.0
 20
0.0
 30
0.0
 11
4.0
 21
0.0
 31
0.0
1001
AME_SOL
1070
     1
1071
       14
  0
LINE
  8
0
 62
     7
  5
1BA4
 10
0.0
 20
4.0
 30
0.0
 11
0.0
 21
0.0
 31
0.0
1001
AME_SOL
1070
     1
1071
       13
  0
LINE
  8
0
 62
     7
  5
1BA5
 10
4.0
 20
0.0
 30
0.0
 11
4.0
 21
4.0
 31
0.0
1001
AME_SOL
1070
     1
1071
       12
  0
LINE
  8
0
 62
     7
  5
1BA6
 10
4.0
 20
4.0
 30
0.0
 11
0.0
 21
4.0
 31
0.0
1001
AME_SOL
1070
     1
1071
       11
  0
CIRCLE
  8
0
 62
     7
  5
1BA7
 10
2.0
 20
2.0
 30
4.0
 40
1.0
1001
AME_SOL
1070
     1
1071
       10
  0
CIRCLE
  8
0
 62
     7
  5
1BA8
 10
2.0
 20
2.0
 30
3.0
 40
1.0
1001
AME_SOL
1070
     1
1071
        9
  0
LINE
  8
0
 62
     7
  5
1BA9
 10
2.0
 20
3.0
 30
3.0
 11
2.0
 21
3.0
 31
4.0
1001
AME_SOL
1070
     0
1071
        1
  0
LINE
  8
0
 62
     7
  5
1BAA
 10
3.0
 20
2.0
 30
3.0
 11
3.0
 21
2.0
 31
4.0
1001
AME_SOL
1070
     0
1071
        1
  0
LINE
  8
0
 62
     7
  5
1BAB
 10
2.0
 20
1.0
 30
3.0
 11
2.0
 21
1.0
 31
4.0
1001
AME_SOL
1070
     0
1071
        1
  0
LINE
  8
0
 62
     7
  5
1BAC
 10
1.0
 20
2.0
 30
3.0
 11
1.0
 21
2.0
 31
4.0
1001
AME_SOL
1070
     0
1071
        1
  0
ENDBLK
  8
0
  5
1BAD
  0
BLOCK
  8
0
  5
1BB1
  2
AME_JNK
 70
     0
 10
0.0
 20
0.0
 30
0.0
  1
AME_JNK
  3
AME_JNK
  0
ENDBLK
  8
0
  5
1BB2
  0
BLOCK
  8
0
  5
1BB5
  2
*U6
 70
    65
 10
0.0
 20
0.0
 30
0.0
  1
*U
  3
*U
  0
POLYLINE
  8
0
 62
     7
  5
1BB6
 66
     1
 10
0.0
 20
0.0
 30
0.0
 70
    64
  0
VERTEX
  8
0
  5
1BB7
 10
4.0
 20
0.0
 30
4.0
 70
   192
  0
VERTEX
  8
0
  5
1BB8
 10
4.0
 20
0.0
 30
0.0
 70
   192
  0
VERTEX
  8
0
  5
1BB9
 10
4.0
 20
4.0
 30
0.0
 70
   192
  0
VERTEX
  8
0
  5
1BBA
 10
4.0
 20
4.0
 30
4.0
 70
   192
  0
VERTEX
  8
0
 62
     7
  5
1BBB
 10
0.0
 20
0.0
 30
0.0
 70
   128
 71
     1
 72
     2
 73
    -3
  0
VERTEX
  8
0
 62
     7
  5
1BBC
 10
0.0
 20
0.0
 30
0.0
 70
   128
 71
     3
 72
     4
 73
    -1
  0
SEQEND
  8
0
 62
     7
  5
1BBD
  0
POLYLINE
  8
0
 62
     7
  5
1BBE
 66
     1
 10
0.0
 20
0.0
 30
0.0
 70
    64
  0
VERTEX
  8
0
  5
1BBF
 10
0.0
 20
4.0
 30
4.0
 70
   192
  0
VERTEX
  8
0
  5
1BC0
 10
4.0
 20
4.0
 30
4.0
 70
   192
  0
VERTEX
  8
0
  5
1BC1
 10
4.0
 20
4.0
 30
0.0
 70
   192
  0
VERTEX
  8
0
  5
1BC2
 10
0.0
 20
4.0
 30
0.0
 70
   192
  0
VERTEX
  8
0
 62
     7
  5
1BC3
 10
0.0
 20
0.0
 30
0.0
 70
   128
 71
     1
 72
     2
 73
    -3
  0
VERTEX
  8
0
 62
     7
  5
1BC4
 10
0.0
 20
0.0
 30
0.0
 70
   128
 71
     3
 72
     4
 73
    -1
  0
SEQEND
  8
0
 62
     7
  5
1BC5
  0
POLYLINE
  8
0
 62
     7
  5
1BC6
 66
     1
 10
0.0
 20
0.0
 30
0.0
 70
    64
  0
VERTEX
  8
0
  5
1BC7
 10
2.0
 20
1.0
 30
4.0
 70
   192
  0
VERTEX
  8
0
  5
1BC8
 10
1.617317
 20
1.07612
 30
4.0
 70
   192
  0
VERTEX
  8
0
  5
1BC9
 10
0.0
 20
0.0
 30
4.0
 70
   192
  0
VERTEX
  8
0
  5
1BCA
 10
1.292893
 20
1.292893
 30
4.0
 70
   192
  0
VERTEX
  8
0
  5
1BCB
 10
1.07612
 20
1.617317
 30
4.0
 70
   192
  0
VERTEX
  8
0
  5
1BCC
 10
2.382683
 20
1.07612
 30
4.0
 70
   192
  0
VERTEX
  8
0
  5
1BCD
 10
4.0
 20
0.0
 30
4.0
 70
   192
  0
VERTEX
  8
0
  5
1BCE
 10
0.0
 20
4.0
 30
4.0
 70
   192
  0
VERTEX
  8
0
  5
1BCF
 10
1.0
 20
2.0
 30
4.0
 70
   192
  0
VERTEX
  8
0
  5
1BD0
 10
1.07612
 20
2.382683
 30
4.0
 70
   192
  0
VERTEX
  8
0
  5
1BD1
 10
1.292893
 20
2.707107
 30
4.0
 70
   192
  0
VERTEX
  8
0
  5
1BD2
 10
2.707107
 20
1.292893
 30
4.0
 70
   192
  0
VERTEX
  8
0
  5
1BD3
 10
2.92388
 20
1.617317
 30
4.0
 70
   192
  0
VERTEX
  8
0
  5
1BD4
 10
3.0
 20
2.0
 30
4.0
 70
   192
  0
VERTEX
  8
0
  5
1BD5
 10
1.617317
 20
2.92388
 30
4.0
 70
   192
  0
VERTEX
  8
0
  5
1BD6
 10
4.0
 20
4.0
 30
4.0
 70
   192
  0
VERTEX
  8
0
  5
1BD7
 10
2.0
 20
3.0
 30
4.0
 70
   192
  0
VERTEX
  8
0
  5
1BD8
 10
2.382683
 20
2.92388
 30
4.0
 70
   192
  0
VERTEX
  8
0
  5
1BD9
 10
2.707107
 20
2.707107
 30
4.0
 70
   192
  0
VERTEX
  8
0
  5
1BDA
 10
2.92388
 20
2.382683
 30
4.0
 70
   192
  0
VERTEX
  8
0
 62
     7
  5
1BDB
 10
0.0
 20
0.0
 30
0.0
 70
   128
 71
     1
 72
    -2
 73
    -3
  0
VERTEX
  8
0
 62
     7
  5
1BDC
 10
0.0
 20
0.0
 30
0.0
 70
   128
 71
     2
 72
    -4
 73
    -3
  0
VERTEX
  8
0
 62
     7
  5
1BDD
 10
0.0
 20
0.0
 30
0.0
 70
   128
 71
     4
 72
    -5
 73
    -3
  0
VERTEX
  8
0
 62
     7
  5
1BDE
 10
0.0
 20
0.0
 30
0.0
 70
   128
 71
    -3
 72
     6
 73
    -1
  0
VERTEX
  8
0
 62
     7
  5
1BDF
 10
0.0
 20
0.0
 30
0.0
 70
   128
 71
     3
 72
    -7
 73
    -6
  0
VERTEX
  8
0
 62
     7
  5
1BE0
 10
0.0
 20
0.0
 30
0.0
 70
   128
 71
    -5
 72
     8
 73
    -3
  0
VERTEX
  8
0
 62
     7
  5
1BE1
 10
0.0
 20
0.0
 30
0.0
 70
   128
 71
     5
 72
    -9
 73
    -8
  0
VERTEX
  8
0
 62
     7
  5
1BE2
 10
0.0
 20
0.0
 30
0.0
 70
   128
 71
     9
 72
   -10
 73
    -8
  0
VERTEX
  8
0
 62
     7
  5
1BE3
 10
0.0
 20
0.0
 30
0.0
 70
   128
 71
    10
 72
   -11
 73
    -8
  0
VERTEX
  8
0
 62
     7
  5
1BE4
 10
0.0
 20
0.0
 30
0.0
 70
   128
 71
    -7
 72
    12
 73
    -6
  0
VERTEX
  8
0
 62
     7
  5
1BE5
 10
0.0
 20
0.0
 30
0.0
 70
   128
 71
    -7
 72
    13
 73
   -12
  0
VERTEX
  8
0
 62
     7
  5
1BE6
 10
0.0
 20
0.0
 30
0.0
 70
   128
 71
    -7
 72
    14
 73
   -13
  0
VERTEX
  8
0
 62
     7
  5
1BE7
 10
0.0
 20
0.0
 30
0.0
 70
   128
 71
    11
 72
   -15
 73
    -8
  0
VERTEX
  8
0
 62
     7
  5
1BE8
 10
0.0
 20
0.0
 30
0.0
 70
   128
 71
   -15
 72
    16
 73
    -8
  0
VERTEX
  8
0
 62
     7
  5
1BE9
 10
0.0
 20
0.0
 30
0.0
 70
   128
 71
    15
 72
   -17
 73
   -16
  0
VERTEX
  8
0
 62
     7
  5
1BEA
 10
0.0
 20
0.0
 30
0.0
 70
   128
 71
    17
 72
   -18
 73
   -16
  0
VERTEX
  8
0
 62
     7
  5
1BEB
 10
0.0
 20
0.0
 30
0.0
 70
   128
 71
    18
 72
   -19
 73
   -16
  0
VERTEX
  8
0
 62
     7
  5
1BEC
 10
0.0
 20
0.0
 30
0.0
 70
   128
 71
    19
 72
   -20
 73
   -16
  0
VERTEX
  8
0
 62
     7
  5
1BED
 10
0.0
 20
0.0
 30
0.0
 70
   128
 71
   -20
 72
     7
 73
   -16
  0
VERTEX
  8
0
 62
     7
  5
1BEE
 10
0.0
 20
0.0
 30
0.0
 70
   128
 71
    20
 72
   -14
 73
    -7
  0
SEQEND
  8
0
 62
     7
  5
1BEF
  0
POLYLINE
  8
0
 62
     7
  5
1BF0
 66
     1
 10
0.0
 20
0.0
 30
0.0
 70
    64
  0
VERTEX
  8
0
  5
1BF1
 10
0.0
 20
0.0
 30
0.0
 70
   192
  0
VERTEX
  8
0
  5
1BF2
 10
0.0
 20
0.0
 30
4.0
 70
   192
  0
VERTEX
  8
0
  5
1BF3
 10
0.0
 20
4.0
 30
4.0
 70
   192
  0
VERTEX
  8
0
  5
1BF4
 10
0.0
 20
4.0
 30
0.0
 70
   192
  0
VERTEX
  8
0
 62
     7
  5
1BF5
 10
0.0
 20
0.0
 30
0.0
 70
   128
 71
     1
 72
     2
 73
    -3
  0
VERTEX
  8
0
 62
     7
  5
1BF6
 10
0.0
 20
0.0
 30
0.0
 70
   128
 71
     3
 72
     4
 73
    -1
  0
SEQEND
  8
0
 62
     7
  5
1BF7
  0
POLYLINE
  8
0
 62
     7
  5
1BF8
 66
     1
 10
0.0
 20
0.0
 30
0.0
 70
    64
  0
VERTEX
  8
0
  5
1BF9
 10
0.0
 20
0.0
 30
4.0
 70
   192
  0
VERTEX
  8
0
  5
1BFA
 10
0.0
 20
0.0
 30
0.0
 70
   192
  0
VERTEX
  8
0
  5
1BFB
 10
4.0
 20
0.0
 30
4.0
 70
   192
  0
VERTEX
  8
0
  5
1BFC
 10
4.0
 20
0.0
 30
0.0
 70
   192
  0
VERTEX
  8
0
 62
     7
  5
1BFD
 10
0.0
 20
0.0
 30
0.0
 70
   128
 71
     1
 72
    -2
 73
     3
  0
VERTEX
  8
0
 62
     7
  5
1BFE
 10
0.0
 20
0.0
 30
0.0
 70
   128
 71
     2
 72
     4
 73
    -3
  0
SEQEND
  8
0
 62
     7
  5
1BFF
  0
POLYLINE
  8
0
 62
     7
  5
1C00
 66
     1
 10
0.0
 20
0.0
 30
0.0
 70
    64
  0
VERTEX
  8
0
  5
1C01
 10
4.0
 20
0.0
 30
0.0
 70
   192
  0
VERTEX
  8
0
  5
1C02
 10
0.0
 20
4.0
 30
0.0
 70
   192
  0
VERTEX
  8
0
  5
1C03
 10
4.0
 20
4.0
 30
0.0
 70
   192
  0
VERTEX
  8
0
  5
1C04
 10
0.0
 20
0.0
 30
0.0
 70
   192
  0
VERTEX
  8
0
 62
     7
  5
1C05
 10
0.0
 20
0.0
 30
0.0
 70
   128
 71
    -1
 72
     2
 73
     3
  0
VERTEX
  8
0
 62
     7
  5
1C06
 10
0.0
 20
0.0
 30
0.0
 70
   128
 71
     1
 72
     4
 73
    -2
  0
SEQEND
  8
0
 62
     7
  5
1C07
  0
POLYLINE
  8
0
 62
     7
  5
1C08
 66
     1
 10
0.0
 20
0.0
 30
0.0
 70
    64
  0
VERTEX
  8
0
  5
1C09
 10
2.707107
 20
2.707107
 30
3.0
 70
   192
  0
VERTEX
  8
0
  5
1C0A
 10
2.707107
 20
1.292893
 30
3.0
 70
   192
  0
VERTEX
  8
0
  5
1C0B
 10
1.292893
 20
1.292893
 30
3.0
 70
   192
  0
VERTEX
  8
0
  5
1C0C
 10
1.292893
 20
2.707107
 30
3.0
 70
   192
  0
VERTEX
  8
0
  5
1C0D
 10
2.0
 20
1.0
 30
3.0
 70
   192
  0
VERTEX
  8
0
  5
1C0E
 10
3.0
 20
2.0
 30
3.0
 70
   192
  0
VERTEX
  8
0
  5
1C0F
 10
2.0
 20
3.0
 30
3.0
 70
   192
  0
VERTEX
  8
0
  5
1C10
 10
1.0
 20
2.0
 30
3.0
 70
   192
  0
VERTEX
  8
0
  5
1C11
 10
1.07612
 20
1.617317
 30
3.0
 70
   192
  0
VERTEX
  8
0
  5
1C12
 10
1.617317
 20
1.07612
 30
3.0
 70
   192
  0
VERTEX
  8
0
  5
1C13
 10
2.382683
 20
1.07612
 30
3.0
 70
   192
  0
VERTEX
  8
0
  5
1C14
 10
2.92388
 20
1.617317
 30
3.0
 70
   192
  0
VERTEX
  8
0
  5
1C15
 10
2.92388
 20
2.382683
 30
3.0
 70
   192
  0
VERTEX
  8
0
  5
1C16
 10
2.382683
 20
2.92388
 30
3.0
 70
   192
  0
VERTEX
  8
0
  5
1C17
 10
1.617317
 20
2.92388
 30
3.0
 70
   192
  0
VERTEX
  8
0
  5
1C18
 10
1.07612
 20
2.382683
 30
3.0
 70
   192
  0
VERTEX
  8
0
 62
     7
  5
1C19
 10
0.0
 20
0.0
 30
0.0
 70
   128
 71
    -1
 72
    -3
 73
    -2
  0
VERTEX
  8
0
 62
     7
  5
1C1A
 10
0.0
 20
0.0
 30
0.0
 70
   128
 71
    -3
 72
    -1
 73
    -4
  0
VERTEX
  8
0
 62
     7
  5
1C1B
 10
0.0
 20
0.0
 30
0.0
 70
   128
 71
    -2
 72
    -3
 73
    -5
  0
VERTEX
  8
0
 62
     7
  5
1C1C
 10
0.0
 20
0.0
 30
0.0
 70
   128
 71
    -1
 72
    -2
 73
    -6
  0
VERTEX
  8
0
 62
     7
  5
1C1D
 10
0.0
 20
0.0
 30
0.0
 70
   128
 71
    -4
 72
    -1
 73
    -7
  0
VERTEX
  8
0
 62
     7
  5
1C1E
 10
0.0
 20
0.0
 30
0.0
 70
   128
 71
    -3
 72
    -4
 73
    -8
  0
VERTEX
  8
0
 62
     7
  5
1C1F
 10
0.0
 20
0.0
 30
0.0
 70
   128
 71
    -3
 72
     8
 73
     9
  0
VERTEX
  8
0
 62
     7
  5
1C20
 10
0.0
 20
0.0
 30
0.0
 70
   128
 71
    -5
 72
     3
 73
    10
  0
VERTEX
  8
0
 62
     7
  5
1C21
 10
0.0
 20
0.0
 30
0.0
 70
   128
 71
    -2
 72
     5
 73
    11
  0
VERTEX
  8
0
 62
     7
  5
1C22
 10
0.0
 20
0.0
 30
0.0
 70
   128
 71
    -6
 72
     2
 73
    12
  0
VERTEX
  8
0
 62
     7
  5
1C23
 10
0.0
 20
0.0
 30
0.0
 70
   128
 71
    -1
 72
     6
 73
    13
  0
VERTEX
  8
0
 62
     7
  5
1C24
 10
0.0
 20
0.0
 30
0.0
 70
   128
 71
    -7
 72
     1
 73
    14
  0
VERTEX
  8
0
 62
     7
  5
1C25
 10
0.0
 20
0.0
 30
0.0
 70
   128
 71
    -4
 72
     7
 73
    15
  0
VERTEX
  8
0
 62
     7
  5
1C26
 10
0.0
 20
0.0
 30
0.0
 70
   128
 71
    -8
 72
     4
 73
    16
  0
SEQEND
  8
0
 62
     7
  5
1C27
  0
POLYLINE
  8
0
 62
     7
  5
1C28
 66
     1
 10
0.0
 20
0.0
 30
0.0
 70
    64
  0
VERTEX
  8
0
  5
1C29
 10
1.0
 20
2.0
 30
3.0
 70
   192
  0
VERTEX
  8
0
  5
1C2A
 10
1.07612
 20
1.617317
 30
4.0
 70
   192
  0
VERTEX
  8
0
  5
1C2B
 10
1.0
 20
2.0
 30
4.0
 70
   192
  0
VERTEX
  8
0
  5
1C2C
 10
1.07612
 20
1.617317
 30
3.0
 70
   192
  0
VERTEX
  8
0
  5
1C2D
 10
1.292893
 20
1.292893
 30
3.0
 70
   192
  0
VERTEX
  8
0
  5
1C2E
 10
1.292893
 20
1.292893
 30
4.0
 70
   192
  0
VERTEX
  8
0
  5
1C2F
 10
1.617317
 20
1.07612
 30
3.0
 70
   192
  0
VERTEX
  8
0
  5
1C30
 10
1.617317
 20
1.07612
 30
4.0
 70
   192
  0
VERTEX
  8
0
  5
1C31
 10
2.0
 20
1.0
 30
3.0
 70
   192
  0
VERTEX
  8
0
  5
1C32
 10
2.0
 20
1.0
 30
4.0
 70
   192
  0
VERTEX
  8
0
  5
1C33
 10
2.382683
 20
1.07612
 30
4.0
 70
   192
  0
VERTEX
  8
0
  5
1C34
 10
2.382683
 20
1.07612
 30
3.0
 70
   192
  0
VERTEX
  8
0
  5
1C35
 10
2.707107
 20
1.292893
 30
3.0
 70
   192
  0
VERTEX
  8
0
  5
1C36
 10
2.707107
 20
1.292893
 30
4.0
 70
   192
  0
VERTEX
  8
0
  5
1C37
 10
2.92388
 20
1.617317
 30
3.0
 70
   192
  0
VERTEX
  8
0
  5
1C38
 10
2.92388
 20
1.617317
 30
4.0
 70
   192
  0
VERTEX
  8
0
  5
1C39
 10
3.0
 20
2.0
 30
3.0
 70
   192
  0
VERTEX
  8
0
  5
1C3A
 10
3.0
 20
2.0
 30
4.0
 70
   192
  0
VERTEX
  8
0
  5
1C3B
 10
2.92388
 20
2.382683
 30
4.0
 70
   192
  0
VERTEX
  8
0
  5
1C3C
 10
2.92388
 20
2.382683
 30
3.0
 70
   192
  0
VERTEX
  8
0
  5
1C3D
 10
2.707107
 20
2.707107
 30
3.0
 70
   192
  0
VERTEX
  8
0
  5
1C3E
 10
2.707107
 20
2.707107
 30
4.0
 70
   192
  0
VERTEX
  8
0
  5
1C3F
 10
2.382683
 20
2.92388
 30
3.0
 70
   192
  0
VERTEX
  8
0
  5
1C40
 10
2.382683
 20
2.92388
 30
4.0
 70
   192
  0
VERTEX
  8
0
  5
1C41
 10
2.0
 20
3.0
 30
3.0
 70
   192
  0
VERTEX
  8
0
  5
1C42
 10
2.0
 20
3.0
 30
4.0
 70
   192
  0
VERTEX
  8
0
  5
1C43
 10
1.617317
 20
2.92388
 30
4.0
 70
   192
  0
VERTEX
  8
0
  5
1C44
 10
1.617317
 20
2.92388
 30
3.0
 70
   192
  0
VERTEX
  8
0
  5
1C45
 10
1.292893
 20
2.707107
 30
3.0
 70
   192
  0
VERTEX
  8
0
  5
1C46
 10
1.292893
 20
2.707107
 30
4.0
 70
   192
  0
VERTEX
  8
0
  5
1C47
 10
1.07612
 20
2.382683
 30
3.0
 70
   192
  0
VERTEX
  8
0
  5
1C48
 10
1.07612
 20
2.382683
 30
4.0
 70
   192
  0
VERTEX
  8
0
 62
     7
  5
1C49
 10
0.0
 20
0.0
 30
0.0
 70
   128
 71
     1
 72
     3
 73
    -2
  0
VERTEX
  8
0
 62
     7
  5
1C4A
 10
0.0
 20
0.0
 30
0.0
 70
   128
 71
    -1
 72
     2
 73
     4
  0
VERTEX
  8
0
 62
     7
  5
1C4B
 10
0.0
 20
0.0
 30
0.0
 70
   128
 71
     4
 72
    -2
 73
     5
  0
VERTEX
  8
0
 62
     7
  5
1C4C
 10
0.0
 20
0.0
 30
0.0
 70
   128
 71
    -5
 72
     2
 73
     6
  0
VERTEX
  8
0
 62
     7
  5
1C4D
 10
0.0
 20
0.0
 30
0.0
 70
   128
 71
    -5
 72
     8
 73
     7
  0
VERTEX
  8
0
 62
     7
  5
1C4E
 10
0.0
 20
0.0
 30
0.0
 70
   128
 71
    -8
 72
     5
 73
     6
  0
VERTEX
  8
0
 62
     7
  5
1C4F
 10
0.0
 20
0.0
 30
0.0
 70
   128
 71
    -9
 72
     8
 73
    10
  0
VERTEX
  8
0
 62
     7
  5
1C50
 10
0.0
 20
0.0
 30
0.0
 70
   128
 71
    -8
 72
     9
 73
     7
  0
VERTEX
  8
0
 62
     7
  5
1C51
 10
0.0
 20
0.0
 30
0.0
 70
   128
 71
     9
 72
    10
 73
   -11
  0
VERTEX
  8
0
 62
     7
  5
1C52
 10
0.0
 20
0.0
 30
0.0
 70
   128
 71
    -9
 72
    11
 73
    12
  0
VERTEX
  8
0
 62
     7
  5
1C53
 10
0.0
 20
0.0
 30
0.0
 70
   128
 71
    12
 72
   -11
 73
    13
  0
VERTEX
  8
0
 62
     7
  5
1C54
 10
0.0
 20
0.0
 30
0.0
 70
   128
 71
   -13
 72
    11
 73
    14
  0
VERTEX
  8
0
 62
     7
  5
1C55
 10
0.0
 20
0.0
 30
0.0
 70
   128
 71
   -13
 72
    16
 73
    15
  0
VERTEX
  8
0
 62
     7
  5
1C56
 10
0.0
 20
0.0
 30
0.0
 70
   128
 71
   -16
 72
    13
 73
    14
  0
VERTEX
  8
0
 62
     7
  5
1C57
 10
0.0
 20
0.0
 30
0.0
 70
   128
 71
   -17
 72
    16
 73
    18
  0
VERTEX
  8
0
 62
     7
  5
1C58
 10
0.0
 20
0.0
 30
0.0
 70
   128
 71
   -16
 72
    17
 73
    15
  0
VERTEX
  8
0
 62
     7
  5
1C59
 10
0.0
 20
0.0
 30
0.0
 70
   128
 71
    17
 72
    18
 73
   -19
  0
VERTEX
  8
0
 62
     7
  5
1C5A
 10
0.0
 20
0.0
 30
0.0
 70
   128
 71
   -17
 72
    19
 73
    20
  0
VERTEX
  8
0
 62
     7
  5
1C5B
 10
0.0
 20
0.0
 30
0.0
 70
   128
 71
    20
 72
   -19
 73
    21
  0
VERTEX
  8
0
 62
     7
  5
1C5C
 10
0.0
 20
0.0
 30
0.0
 70
   128
 71
   -21
 72
    19
 73
    22
  0
VERTEX
  8
0
 62
     7
  5
1C5D
 10
0.0
 20
0.0
 30
0.0
 70
   128
 71
   -21
 72
    24
 73
    23
  0
VERTEX
  8
0
 62
     7
  5
1C5E
 10
0.0
 20
0.0
 30
0.0
 70
   128
 71
   -24
 72
    21
 73
    22
  0
VERTEX
  8
0
 62
     7
  5
1C5F
 10
0.0
 20
0.0
 30
0.0
 70
   128
 71
   -25
 72
    24
 73
    26
  0
VERTEX
  8
0
 62
     7
  5
1C60
 10
0.0
 20
0.0
 30
0.0
 70
   128
 71
   -24
 72
    25
 73
    23
  0
VERTEX
  8
0
 62
     7
  5
1C61
 10
0.0
 20
0.0
 30
0.0
 70
   128
 71
    25
 72
    26
 73
   -27
  0
VERTEX
  8
0
 62
     7
  5
1C62
 10
0.0
 20
0.0
 30
0.0
 70
   128
 71
   -25
 72
    27
 73
    28
  0
VERTEX
  8
0
 62
     7
  5
1C63
 10
0.0
 20
0.0
 30
0.0
 70
   128
 71
    28
 72
   -27
 73
    29
  0
VERTEX
  8
0
 62
     7
  5
1C64
 10
0.0
 20
0.0
 30
0.0
 70
   128
 71
   -29
 72
    27
 73
    30
  0
VERTEX
  8
0
 62
     7
  5
1C65
 10
0.0
 20
0.0
 30
0.0
 70
   128
 71
   -29
 72
    32
 73
    31
  0
VERTEX
  8
0
 62
     7
  5
1C66
 10
0.0
 20
0.0
 30
0.0
 70
   128
 71
   -32
 72
    29
 73
    30
  0
VERTEX
  8
0
 62
     7
  5
1C67
 10
0.0
 20
0.0
 30
0.0
 70
   128
 71
    -1
 72
    32
 73
     3
  0
VERTEX
  8
0
 62
     7
  5
1C68
 10
0.0
 20
0.0
 30
0.0
 70
   128
 71
   -32
 72
     1
 73
    31
  0
SEQEND
  8
0
 62
     7
  5
1C69
  0
ENDBLK
  8
0
  5
1C6A
  0
ENDSEC
  0
SECTION
  2
ENTITIES
  0
INSERT
  8
AME_FRZ
  5
1B78
  2
AME_NIL
 10
0.0
 20
0.0
 30
0.0
  0
INSERT
  8
AME_FRZ
  5
1B8A
  2
AME_NIL
 10
0.0
 20
0.0
 30
0.0
1001
AME_SOL
1002
{
1070
     1
1071
  2442624
1070
  1536
1070
     1
1010
4.0
1020
4.0
1030
4.0
1005
0
1005
0
1005
1BAE
1040
0.0
1040
1.0
1070
     0
1000
MILD_STEEL
1000
0
1010
0.0
1020
0.0
1030
0.0
1010
0.0
1020
0.0
1030
1.0
1040
0.0
1002
}
1001
AVE_INVOKE
1000
SOLAVEMESH
  0
INSERT
  8
AME_FRZ
  5
1B96
  2
AME_NIL
 10
2.0
 20
2.0
 30
3.0
1001
AME_SOL
1002
{
1070
     1
1071
  2452264
1070
  1538
1070
     1
1010
1.0
1020
1.0
1030
1.0
1005
0
1005
0
1005
1BAE
1040
0.0
1040
1.0
1070
     0
1000
MILD_STEEL
1000
0
1010
2.0
1020
2.0
1030
3.0
1010
0.0
1020
0.0
1030
1.0
1040
0.0
1002
}
1001
AVE_INVOKE
1000
SOLAVEMESH
  0
INSERT
  8
0
  5
1BAE
  2
*U6
 10
0.0
 20
0.0
 30
0.0
1001
AME_SOL
1002
{
1070
     1
1071
  2399176
1070
  9223
1070
    41
1070
     0
1005
1B8A
1005
1B96
1005
1C6B
1005
1BAF
1005
0
1040
102.24289
1040
1.0
1070
     0
1000
MILD_STEEL
1000
0
1002
}
1001
AVE_INVOKE
1000
SOLAVEMESH
  0
INSERT
  8
AME_FRZ
  5
1BAF
  2
AME_NIL
 10
1.0
 20
1.0
 30
1.0
1001
AME_SOL
1004
C7CF0100CB006501640162015E01570102004C013E010800AF00050058014D013F01C0002D011B0115010D01980083004D000900700018004E012400400175002E010F005C005F0159014F0141012F017900BC003001E4001C01F2004400420131011D012100D7001E01CE005F0032011F01350054002001
1004
16010E010101000169000201F70019000F010301E80078000401CB00CA001701100105017A007C0006012E002F00110107013000310008013200B8005001280043013301FB00820034012101180112010901B70088000A01B5008A0013010B015200B4000C01A9008F00AC002201B100B200FF0063016001
1004
5A013F005101440135012301EA00AD0024013800B00036012501AE002D00F50045013701F300ED003801260158000C00EF005B015201BF00460139012701900015002801500020003A01480029017F00DF00400061015C015301F0004701A80006005401100048013B0184004E003C012A01C8001901FC00
1004
8E002B011A011401030007000400EE005D015501010049010A00740056014A01FE003D0196002C01A40025004B01A0008000000048378483782E62C72DD199E5C84E412E7014F9E18AED4014F9E18AED4014F9E18AED474C8D0CC3696E991A1986D2DD3234330DA5B9CB08C0A4D40494494F424D40494494
1004
F42685BF4C4B6F2B54AA8D5C9D74116A9551AB93AE822DD3234330DA5B948368ADDBDE67B9276E906DFF611FFFFFFFB08FFFEBFEB73E1161FF611FB08FFFFFF4836FFB08FFFFFFFD847FFF5FF5B9F08B0FFB08FD847FFFFEC2824A41BC77A1DFEC23FFFFFFF611FFFB086BF5B9F08B047C848880B44D595E
1004
3E4244405A26AC4BF73B9F0823FC1C7C848880B44D595EE7C2083333334F40F9091101689AB12DCFFE6666669E804986664C33373FF999999A7A0494803BD0EFF611FFFFFFFB08FF60CCCCCD1FB0873E11608F9091101689AB2BC7C848880B44D5897EE773E1047F7E0E3E4244405A26ACAF73E104199999
1004
A7A07C848880B44D5896E7FEFCCCCCCD3D00930CCC98666E7FEFCCCCCCD3D024A41CEF43BFD847FFFFFFEC23FDCF845FF5B9F08B047C848880B44D595E3E4244405A26AC4BF73B9F0823FC1C7C848880B44D595EE7C2083333334F40F9091101689AB12DCFFE6666669E804986664C33373FF999999A7A04
1004
9487BD0EFF611FFFFFFFB08FF60CCCCCD0E7C22DCF845823E4244405A26ACAF1F2122202D135625FB9DCF8411FE0E3E4244405A26ACAF73E104199999A7A07C848880B44D5896E7FF3333334F4024C33326199B9FFCCCCCCD3D058467293501251253D093501251253D09A16FD312DBCAD52AA357275D045
1004
AA5546AE4EBA08B54AA8D5C9D74116E5B1B5595E34CF724EFDB1B7FD847FFFFF7FFB0A7F7FFD7FD6E7C22C3FFFFFFFFFFB636FFB08FFFFFEFFF614FEFFFAFFADCF84587FFFFFFFFFD850B08CDEC053E7862BB50053E7862BB50053E7862BB51D3234330DA5BA6468661B4B014F9E18AED0E5B1B5565D1AE7
1004
724FCE6D8DBFFFEC23FFF611FFFFFFFFFE1FFFFFFFFFFDB1B7FFFD847FFEC23FFFFFFFFFC3FFFFFFFFFEC20B08CDEC053E7862BB50053E7862BB50053E7862BB51D3234330DA580A7CF0C576874C8D0CC3696E5B1B538911AE7724FAE6D8DBFEC23FFFFFFFFF611FFFFFE1FFFFFFFFFFDB1B7FD847FFFFFF
1004
FFEC23FFFFFC3FFFFFFFFFEC20B08CDEC053E7862BB50053E7862BB50053E7862BB50053E7862BB43A6468661B4B74C8D0CC3696E5B1B550941AE7724F8E6D8DBFFFFFEC23FFF611FFFFFFFE1FFFFFFFFFFDB1B7FFFFFD847FFEC23FFFFFFFC3FFFFFFFFFEC20B08C1C053E7862BB50053E7862BB51342DF
1004
A6258F2DD3234330DA5BA6468661B4B74C8D0CC3696E5B1B5B8146B9DC93DB9B636FFB0A7F7FFDFFF7FFB0A7F7FFB4BFDA5FED2C3FFFFFFFFFFB636FFB0A7F7FFDFFF7FFB0A7F7FFB4BFDA5FED2C3FFFFFFFFFEC20B08CDEC053E7862BB51342DFA6258F2C053E7862BB51D3234330DA5BA6468661B4B74C
1004
8D0CC3696E5B1B65E1AE7724F4E6D8DBFF7FFDFFEC29FB0A7F7FFDFFED2FF697FB4B0FFFFFFFFFFED8DBFF7FFDFFEC29FB0A7F7FFDFFED2FF697FB4B0FFFFFFFFFFB082C2337B4D0B7E98963CB014F9E18AED4014F9E18AED474C8D0CC3696E991A1986D2DD3234330DA5B96C6D4917C6B9DCA55CDB1B7FE
1004
FFF614FEFFFBFFEFFF614FDA5FED2FF6961FFFFFFFFFFDB1B7FEFFF614FEFFFBFFEFFF614FDA5FED2FF6961FFFFFFFFFF610F66FA4D40494494F424D40494494F42685BF4C4B6F2B54AA8D5C9D74116A9551AB93AE822D52AA357275D045949523934B090251052548E4D2C2409560B7439B85C03733722B
1004
76F7AB2BC6E08ADDBDEACAF1A66666666DD0EFF611FFFFFFFB08FFFEBFEB73E116DEFF611FB08292A4726961204A20A4A91C9A584812ADECDF49A80928929E849A80928929E84D0B7E98963CB54AA8D5C9D74116A9551AB93AE822DD3234330DA5949523934B090251052548E4D2C2409560B74389D49D06
1004
EE4CC56EDEF6E051B82DC0A3456EDEF739999B743BFD847FFFFFFEC23FFFAFFAFF696DEFF611FB08292A4726961204A20A4A91C9A584812ADECDF014F9E18AED44D0B7E98963CB014F9E18AED474C8D0CC3696E991A1986D2C053E7862BB47F11FD60BD0E7E5CA373372AB2E8D9786E0AACBA365E1AE773B
1004
D0EFFFF611FFFFFFFB0A7F5FED2FFC1FE23FADECDF4D0B7E98963CB014F9E18AED4014F9E18AED474C8D0CC3696E991A1986D2C053E7862BB47F11FD60BD0E541710DCCDCAACBA35245F1B82AB2E8D4917C6B9DCEF43BFD847FFFFFFFFEC29FB4BFEBFF07F88FEB7B37C053E7862BB50053E7862BB50053E
1004
7862BB50053E7862BB43A6468661B4B014F9E18AED1FB423FBF05E872B171BDF99B9559746AA1283705565D1AA84A0D73B9DE877FB0A7FFFFFFFFEC29FFFFFE0FED08FEFDECDF014F9E18AED4014F9E18AED4014F9E18AED474C8D0CC3696029F3C315DA0053E7862BB47FFED2C17A1CF9BB7BF3372AB2E8
1004
D4E2446E0AACBA3538911AE773BD0EFFFF614FFFFFFFD853FFFFFC1FFFDA5BD9BE029F3C315DA8029F3C315DA89A16FD312C796E991A1986D2C053E7862BB43A6468661B4BFE23FAC17A1C932E77BF33729C488D6E051B829C488D6E051AE773BD0EFFFFFF611FFFB0A7FFF5FFFED2C1FE23FADECDF4D0B7
1004
E98963CB014F9E18AED4014F9E18AED474C8D0CC3696029F3C315DA1D3234330DA5FF11FD60BD0E562D7BF33729C488D4917C6E0A712235245F1AE773BD0EFF611FFFFFFFB0A7FFED2FFFFAC1FE23FADECDF014F9E18AED4014F9E18AED4014F9E18AED4014F9E18AED0029F3C315DA1D3234330DA5FFFED
1004
2C17A1C28917BF33729C488D542506E0A71223550941AE773BD0EFF614FFFFFFFD853FFFFFFFC1FFFDA5BD9BE029F3C315DA8029F3C315DA89A16FD312C796029F3C315DA1D3234330DA5BA6468661B4BFE23FAC17A1CB2787BF3372A84A0D6E051B82A84A0D6E051AE773BD0EFFFFFF611FB0A7FFFFFFF5
1004
FED2C1FE23FADECDF014F9E18AED44D0B7E98963CB014F9E18AED4014F9E18AED0E991A1986D2DD3234330DA5FF11FD60BD0E55938BDF99B9542506CBC370550941B2F0D73B9DE877FFFB08FFFD853FFFFFFF697FD60FF11FD6F66F80A7CF0C576A2685BF4C4B1E5A685BF4C4B1E5BA6468661B4B74C8D0C
1004
C3696E991A1986D2FF6847F7E0BD0E1204F2F7E66E5B8146CBC3705B8146CBC35CEE77A1DFFFEC23FFFFFFF611FB4BFDA5FED2C1FDA11FDFBD9BE9A16FD312C796029F3C315DA89A16FD312C796E991A1986D2DD3234330DA5BA6468661B4BFFFDA582F438B8448BDF99B96E051A922F8DC16E051A922F8D
1004
73B9DE877FB08FFFFFEFFFFF611FB4BFDA5FED2C1FFFDA5BD9BE9A16FD312C7969A16FD312C796029F3C315DA8E991A1986D2DD3234330DA5BA6468661B4BFDA11FDF82F4389FDB1EFCCDCCBC35245F1B832F0D4917C6B9DCEF43BFD847FFFFFFEC23FFF697FB4BFDA583FB423FBF2736E89C1
1005
1BB0
  0
INSERT
  8
AME_FRZ
  5
1BB0
  2
AME_NIL
 10
1.0
 20
1.0
 30
1.0
1001
AME_SOL
1004

1005
0
  0
INSERT
  8
AME_FRZ
  5
1BB4
  2
AME_SOL
 10
0.0
 20
0.0
 30
0.0
1001
AME_SOL
1000
R2.1
1000
AME2
1000
sq cm
1070
     3
1070
     0
1070
     3
1000
wire
1040
45.0
1000
U
1040
1.0
1000
cm
1000
gm
1000
MILD_STEEL
1070
    25
1000
CSG
1070
     1
1070
     3
1070
     3
1070
     3
1070
     0
1000
cu cm
1070
     4
1070
     0
1005
1B78
  0
INSERT
  8
AME_FRZ
  5
1C6B
  2
*U4
 10
0.0
 20
0.0
 30
0.0
  0
ENDSEC
  0
EOF
