#define _width 276
#define _height 218
static char _bits[] = {
 0x00,0x00,0x00,0x00,0x00,0x00,0x00,0x00,0x00,0x00,0x00,0x00,0x00,0x00,0x00,
 0x00,0x00,0x00,0x00,0x00,0xfc,0xff,0x03,0x00,0x00,0x00,0x00,0x00,0x00,0x00,
 0x00,0x00,0x00,0x00,0x00,0x00,0x00,0x00,0x00,0x00,0x00,0x00,0x00,0x00,0x00,
 0x00,0x00,0x00,0x00,0x00,0x00,0x00,0x00,0x00,0x00,0xfc,0xff,0x03,0x00,0x00,
 0x00,0x00,0x00,0x00,0x00,0x00,0x00,0x00,0x00,0x00,0x00,0x00,0x00,0x00,0x00,
 0x00,0x00,0x00,0x00,0x00,0x00,0x00,0x00,0x00,0x00,0x00,0x00,0x00,0x00,0x00,
 0x03,0x00,0x1c,0x00,0x00,0x00,0x00,0x00,0x00,0x00,0x00,0x00,0x00,0x00,0x00,
 0x00,0x00,0x00,0x00,0x00,0x00,0x00,0x00,0x00,0x00,0x00,0x00,0x00,0xfc,0xff,
 0xff,0xff,0xff,0xff,0xff,0x0f,0x00,0xe0,0x00,0x00,0x00,0x00,0x00,0x00,0x00,
 0x00,0x00,0x00,0x00,0x00,0x00,0x00,0x00,0x00,0x00,0x00,0x00,0x00,0x00,0x00,
 0x00,0x00,0x00,0xfc,0xff,0xff,0xff,0xff,0xff,0xff,0x0f,0x00,0xe0,0x00,0x00,
 0x00,0x00,0x00,0x00,0x00,0x00,0x00,0x00,0x00,0x00,0x00,0x00,0x00,0x00,0x00,
 0x00,0x00,0x00,0x00,0x00,0x00,0x00,0x80,0x03,0x00,0x00,0x00,0x00,0x00,0x00,
 0x70,0x00,0x00,0x03,0x00,0x00,0x00,0x00,0x00,0x00,0x00,0x00,0x00,0x00,0x00,
 0x00,0x00,0x00,0x00,0x00,0x00,0x00,0x00,0x00,0x00,0x00,0x00,0x60,0x00,0x00,
 0x00,0x00,0x00,0x00,0x00,0x80,0x03,0x00,0x0c,0x00,0x00,0x00,0x00,0x00,0x00,
 0x00,0x00,0x00,0x00,0x00,0x00,0x00,0x00,0x00,0x00,0x00,0x00,0x00,0x00,0x00,
 0x00,0x00,0x60,0x00,0x00,0x00,0x00,0x00,0x00,0x00,0x80,0x03,0x00,0x0c,0x00,
 0x00,0x00,0x00,0x00,0x00,0x00,0x00,0x00,0x00,0x00,0x00,0x00,0x00,0x00,0x00,
 0x00,0x00,0x00,0x00,0x00,0x00,0x00,0x1c,0x00,0x00,0x00,0x00,0x00,0x00,0x00,
 0x00,0x04,0x00,0x70,0x00,0x00,0x00,0x00,0x00,0x00,0x00,0x00,0x00,0x00,0x00,
 0x00,0x00,0x00,0x00,0x00,0x00,0x00,0x00,0x00,0x00,0x00,0x00,0x03,0x00,0x00,
 0x00,0x00,0x00,0x00,0x00,0x00,0x38,0x00,0x80,0x03,0x00,0x00,0x00,0x00,0x00,
 0x00,0x00,0x00,0x00,0x00,0x00,0x00,0x00,0x00,0x00,0x00,0x00,0x00,0x00,0x00,
 0x00,0x00,0x03,0x00,0x00,0x00,0x00,0x00,0x00,0x00,0x00,0x38,0x00,0x80,0x03,
 0x00,0x00,0x00,0x00,0x00,0x00,0x00,0x00,0x00,0x00,0x00,0x00,0x00,0x00,0x00,
 0x00,0x00,0x00,0x00,0x00,0x00,0xe0,0x00,0xf0,0x07,0x00,0x00,0x00,0x00,0x00,
 0x00,0xc0,0x01,0x00,0x0c,0x00,0x00,0x00,0x00,0x00,0x00,0x00,0x00,0x00,0x00,
 0x00,0x00,0x00,0x00,0x00,0x00,0x00,0x00,0x00,0x00,0x00,0x1c,0x00,0x0c,0x08,
 0x00,0x00,0x00,0x00,0x00,0x00,0x00,0x0e,0x00,0x30,0x00,0x00,0x00,0x00,0x00,
 0x00,0x00,0x00,0x00,0x00,0x00,0x00,0x00,0x00,0x00,0x00,0x00,0x00,0x00,0x00,
 0x00,0x03,0x00,0x0c,0x08,0x00,0x00,0x00,0x00,0x00,0x00,0x00,0x10,0x00,0xc0,
 0x01,0x00,0x00,0x00,0x00,0x00,0x00,0x00,0x00,0x00,0x00,0x00,0x00,0x00,0x00,
 0x00,0x00,0x00,0x00,0x00,0x00,0x03,0x00,0x0c,0x08,0x00,0x00,0x00,0x00,0x00,
 0x00,0x00,0x10,0x00,0xc0,0x01,0x00,0x00,0x00,0x00,0x00,0x00,0x00,0x00,0x00,
 0x00,0x00,0x00,0x00,0x00,0x00,0x00,0x00,0x00,0x00,0xc0,0x00,0x00,0xf0,0x07,
 0x00,0x00,0x00,0x00,0x00,0x00,0x00,0xe0,0x00,0x00,0x06,0x00,0x00,0x00,0x00,
 0x00,0x00,0x00,0x00,0x00,0x00,0x00,0x00,0x00,0x00,0x00,0x00,0x00,0x00,0x00,
 0x38,0x00,0x00,0x00,0x00,0x00,0x00,0x00,0x00,0x00,0x00,0x00,0x00,0x07,0x00,
 0x38,0x00,0x00,0x00,0x00,0x00,0x00,0x00,0x00,0x00,0x00,0x00,0x00,0x00,0x00,
 0x00,0x00,0x00,0x00,0x00,0x38,0x00,0x00,0x00,0x00,0x00,0x00,0x00,0x00,0x00,
 0x00,0x00,0x00,0x07,0x00,0x38,0x00,0x00,0x00,0x00,0x00,0x00,0x00,0x00,0x00,
 0x00,0x00,0x00,0x00,0x00,0x00,0x00,0x00,0x00,0x00,0x07,0x00,0x00,0x00,0x00,
 0x00,0x00,0x00,0x00,0x00,0x00,0x00,0x00,0x08,0x00,0xc0,0x01,0x00,0x00,0x00,
 0x00,0x00,0x00,0x00,0x00,0x00,0x00,0x00,0x00,0x00,0x00,0x00,0x00,0x00,0xc0,
 0x00,0x00,0x00,0x00,0x00,0x00,0x00,0x00,0x00,0x00,0x00,0x00,0x00,0x70,0x00,
 0x00,0x02,0x00,0x00,0x00,0x00,0x00,0x00,0x00,0x00,0x00,0x00,0x00,0x00,0x00,
 0x00,0x00,0x00,0x00,0xc0,0x00,0x00,0x00,0x00,0x00,0x00,0x00,0x00,0x00,0x00,
 0x00,0x00,0x00,0x70,0x00,0x00,0x02,0x00,0x00,0x00,0x00,0x00,0x00,0x00,0x00,
 0x00,0x00,0x00,0x00,0x00,0x00,0x00,0x00,0x00,0x38,0x00,0x00,0x00,0x00,0x00,
 0x00,0x00,0x00,0x00,0x00,0x00,0x00,0x00,0x80,0x03,0x00,0x1c,0x00,0x00,0x00,
 0x00,0x00,0x00,0x00,0x00,0x00,0x00,0x00,0x00,0x00,0x00,0x00,0x00,0x00,0x06,
 0x00,0x00,0x00,0x00,0x00,0x00,0x00,0x00,0x00,0x00,0x00,0x00,0x00,0x00,0x0c,
 0x00,0xe0,0x00,0x00,0x00,0x00,0x00,0x00,0x00,0x00,0x00,0x00,0x00,0x00,0x00,
 0x00,0x00,0x00,0x00,0x06,0x00,0x00,0x00,0x00,0x00,0x00,0x00,0x00,0x00,0x00,
 0x00,0x00,0x00,0x00,0x0c,0x00,0xe0,0x00,0x00,0x00,0x00,0x00,0x00,0x00,0x00,
 0x00,0x00,0x00,0x00,0x00,0x00,0x00,0x00,0xc0,0x01,0x00,0x00,0x00,0x00,0x00,
 0x00,0x00,0x00,0x00,0x00,0x00,0x00,0x00,0x00,0x30,0x00,0x00,0x07,0x00,0x00,
 0x00,0x00,0x00,0x00,0x00,0x00,0x00,0x00,0x00,0x00,0x00,0x00,0x00,0x38,0x00,
 0x00,0x00,0x00,0x00,0x00,0x00,0x00,0x00,0x00,0x00,0x00,0x00,0x00,0x00,0xc0,
 0x01,0x00,0x08,0x00,0x00,0x00,0x00,0x00,0x00,0x00,0x00,0x00,0x00,0x00,0x00,
 0x00,0x00,0x00,0x06,0x00,0x00,0x00,0x00,0xf0,0xff,0x03,0x00,0x00,0x00,0x00,
 0x00,0x00,0x00,0x00,0x00,0x0e,0x00,0x70,0x00,0x00,0x00,0x00,0x00,0x00,0x00,
 0x00,0x00,0x00,0x00,0x00,0x00,0x00,0x00,0x06,0x00,0x00,0x00,0x00,0xf0,0xff,
 0x03,0x00,0x00,0x00,0x00,0x00,0x00,0x00,0x00,0x00,0x0e,0x00,0x70,0x00,0x00,
 0x00,0x00,0x00,0x00,0x00,0x00,0x00,0x00,0x00,0x00,0x00,0x00,0x80,0x01,0x00,
 0x00,0x00,0xff,0xff,0xff,0xff,0x3f,0x00,0x00,0x00,0x00,0x00,0x00,0x00,0x00,
 0x30,0x00,0x80,0x03,0x00,0x00,0x00,0x00,0x00,0x00,0x00,0x00,0x00,0x00,0x00,
 0x00,0x00,0x70,0x00,0x00,0x00,0xfc,0xff,0x0f,0x00,0xfc,0xff,0x1f,0x00,0x00,
 0x00,0x00,0x00,0x00,0x00,0xc0,0x01,0x00,0x04,0x00,0x00,0x00,0x00,0x00,0x00,
 0x00,0x00,0x00,0x00,0x00,0x00,0x00,0x70,0x00,0x00,0x00,0xfc,0xff,0x0f,0x00,
 0xfc,0xff,0x1f,0x00,0x00,0x00,0x00,0x00,0x00,0x00,0xc0,0x01,0x00,0x04,0x00,
 0x00,0x00,0x00,0x00,0x00,0x00,0x00,0x00,0x00,0x00,0x00,0x00,0x0e,0x00,0x00,
 0xc0,0xff,0x00,0x00,0x00,0x00,0xc0,0xff,0x01,0x00,0x00,0x00,0x00,0x00,0x00,
 0x00,0x06,0x00,0x38,0x00,0x00,0x00,0x00,0x00,0x00,0x00,0x00,0x00,0x00,0x00,
 0x00,0xc0,0x01,0x00,0x00,0xf8,0x03,0x00,0x00,0x00,0x00,0x00,0xe0,0x0f,0x00,
 0x00,0x00,0x00,0x00,0x00,0x00,0x18,0x00,0xc0,0x01,0x00,0x00,0x00,0x00,0x00,
 0x00,0x00,0x00,0x00,0x00,0x00,0xc0,0x01,0x00,0x00,0xf8,0x03,0x00,0x00,0x00,
 0x00,0x00,0xe0,0x0f,0x00,0x00,0x00,0x00,0x00,0x00,0x00,0x18,0x00,0xc0,0x01,
 0x00,0x00,0x00,0x00,0x00,0x00,0x00,0x00,0x00,0x00,0x00,0x20,0x00,0x00,0x00,
 0x3f,0x00,0x00,0x00,0x00,0x00,0x00,0x00,0x7e,0x00,0x00,0x00,0x00,0x00,0x00,
 0x00,0xe0,0x00,0x00,0x02,0x00,0x00,0x00,0x00,0x00,0x00,0x00,0x00,0x00,0x00,
 0x00,0x1c,0x00,0x00,0xc0,0x07,0x00,0x00,0x00,0x00,0x00,0x00,0x00,0xf0,0x03,
 0x00,0x00,0x00,0x00,0x00,0x00,0x00,0x07,0x00,0x1c,0x00,0x00,0x00,0x00,0x00,
 0x00,0x00,0x00,0x00,0x00,0x80,0x03,0x00,0x00,0xf8,0x00,0x00,0x00,0x00,0x00,
 0x00,0x00,0x00,0x80,0x1f,0x00,0x00,0x00,0x00,0x00,0x00,0x00,0x08,0x00,0xe0,
 0x00,0x00,0x00,0x00,0x00,0x00,0x00,0x00,0x00,0x00,0x80,0x03,0x00,0x00,0xf8,
 0x00,0x00,0x00,0x00,0x00,0x00,0x00,0x00,0x80,0x1f,0x00,0x00,0x00,0x00,0x00,
 0x00,0x00,0x08,0x00,0xe0,0x00,0x00,0x00,0x00,0x00,0x00,0x00,0x00,0x00,0x00,
 0x70,0x00,0x00,0x00,0x3f,0x00,0x00,0x00,0x00,0x00,0x00,0x00,0x00,0x00,0xfc,
 0x00,0x00,0x00,0x00,0x00,0x00,0x00,0x70,0x00,0x00,0x07,0x00,0x00,0x00,0x00,
 0x00,0x00,0x00,0x00,0x00,0x08,0x00,0x00,0xe0,0x07,0x00,0x00,0x00,0x00,0x00,
 0x00,0x00,0x00,0x00,0xe0,0x03,0x00,0x00,0x00,0x00,0x00,0x00,0x80,0x03,0x00,
 0x18,0x00,0x00,0x00,0x00,0x00,0x00,0x00,0x00,0x00,0x08,0x00,0x00,0xe0,0x07,
 0x00,0x00,0x00,0x00,0x00,0x00,0x00,0x00,0x00,0xe0,0x03,0x00,0x00,0x00,0x00,
 0x00,0x00,0x80,0x03,0x00,0x18,0x00,0x00,0x00,0x00,0x00,0x00,0x00,0x00,0x00,
 0x07,0x00,0x00,0xfc,0x00,0x00,0x00,0x00,0x00,0x00,0x00,0x00,0x00,0x00,0x00,
 0x1f,0x00,0x00,0x00,0x00,0x00,0x00,0x00,0x1c,0x00,0x60,0x00,0x00,0x00,0x00,
 0x00,0x00,0x00,0x00,0xe0,0x00,0x00,0x80,0x1f,0x00,0x00,0x00,0x00,0x00,0x00,
 0x00,0x00,0x00,0x00,0x00,0xfc,0x00,0x00,0x00,0x00,0x00,0x00,0x00,0x20,0x00,
 0x80,0x03,0x00,0x00,0x00,0x00,0x00,0x00,0x00,0xe0,0x00,0x00,0x80,0x1f,0x00,
 0x00,0x00,0x00,0x00,0x00,0x00,0x00,0x00,0x00,0x00,0xfc,0x00,0x00,0x00,0x00,
 0x00,0x00,0x00,0x20,0x00,0x80,0x03,0x00,0x00,0x00,0x00,0x00,0x00,0x00,0x1c,
 0x00,0x00,0xf0,0x03,0x00,0x00,0x00,0x00,0x00,0x00,0x00,0x00,0x00,0x00,0x00,
 0xe0,0x07,0x00,0x00,0x00,0x00,0x00,0x00,0xc0,0x01,0x00,0x0c,0x00,0x00,0x00,
 0x00,0x00,0x00,0x00,0x02,0x00,0x00,0x7e,0x00,0x00,0x00,0x00,0x00,0x00,0x00,
 0x00,0x00,0x00,0x00,0x00,0x00,0x3f,0x00,0x00,0x00,0x00,0x00,0x00,0x00,0x0e,
 0x00,0x70,0x00,0x00,0x00,0x00,0x00,0x00,0x00,0x02,0x00,0x00,0x7e,0x00,0x00,
 0x00,0x00,0x00,0x00,0x00,0x00,0x00,0x00,0x00,0x00,0x00,0x3f,0x00,0x00,0x00,
 0x00,0x00,0x00,0x00,0x0e,0x00,0x70,0x00,0x00,0x00,0x00,0x00,0x00,0xc0,0x01,
 0x00,0xc0,0x0f,0x00,0x00,0x00,0x00,0x00,0x00,0x00,0x00,0x00,0x00,0x00,0x00,
 0x00,0xf8,0x01,0x00,0x00,0x00,0x00,0x00,0x00,0x10,0x00,0x80,0x03,0x00,0x00,
 0x00,0x00,0x00,0x38,0x00,0x00,0xe0,0x01,0x00,0x00,0x00,0x00,0x00,0x00,0x00,
 0x00,0x00,0x00,0x00,0x00,0x00,0xc0,0x0f,0x00,0x00,0x00,0x00,0x00,0x00,0x10,
 0x00,0x00,0x04,0x00,0x00,0x00,0x00,0x00,0x07,0x00,0x00,0x30,0x00,0x00,0x00,
 0x00,0x00,0x00,0x00,0x00,0x00,0x00,0x00,0x00,0x00,0x00,0x00,0x1e,0x00,0x00,
 0x00,0x00,0x00,0x00,0x10,0x00,0x00,0x38,0x00,0x00,0x00,0x00,0x00,0x07,0x00,
 0x00,0x30,0x00,0x00,0x00,0x00,0x00,0x00,0x00,0x00,0x00,0x00,0x00,0x00,0x00,
 0x00,0x00,0x1e,0x00,0x00,0x00,0x00,0x00,0x00,0x10,0x00,0x00,0x38,0x00,0x00,
 0x00,0x00,0xe0,0x00,0x00,0x00,0x1e,0x00,0x00,0x00,0x00,0x00,0x00,0x00,0x00,
 0x00,0x00,0x00,0x00,0x00,0x00,0x00,0x70,0x00,0x00,0x00,0x00,0x00,0x00,0x10,
 0x00,0x00,0xc0,0x01,0x00,0x00,0x00,0x10,0x00,0x00,0x80,0x0f,0x00,0x00,0x00,
 0x00,0x00,0x00,0x00,0x00,0x00,0x00,0x00,0x00,0x00,0x00,0x00,0xe0,0x00,0x00,
 0x00,0x00,0x00,0x00,0x10,0x00,0x00,0x00,0x0e,0x00,0x00,0x00,0x10,0x00,0x00,
 0x80,0x0f,0x00,0x00,0x00,0x00,0x00,0x00,0x00,0x00,0x00,0x00,0x00,0x00,0x00,
 0x00,0x00,0xe0,0x00,0x00,0x00,0x00,0x00,0x00,0x10,0x00,0x00,0x00,0x0e,0x00,
 0x00,0x00,0x0e,0x00,0x00,0xc0,0x01,0x00,0x00,0x00,0x00,0x00,0x00,0x00,0x00,
 0x00,0x00,0x00,0x00,0x00,0x00,0x00,0x80,0x07,0x00,0x00,0x00,0x00,0x00,0x10,
 0x00,0x00,0x00,0x10,0x00,0x00,0xc0,0x01,0x00,0x00,0x78,0x00,0x00,0x00,0x00,
 0x00,0x00,0x00,0x00,0x00,0x00,0x00,0x00,0x00,0x00,0x00,0x00,0x00,0x0f,0x00,
 0x00,0x00,0x00,0x00,0x10,0x00,0x00,0x00,0xe0,0x00,0x00,0xc0,0x01,0x00,0x00,
 0x78,0x00,0x00,0x00,0x00,0x00,0x00,0x00,0x00,0x00,0x00,0x00,0x00,0x00,0x00,
 0x00,0x00,0x00,0x0f,0x00,0x00,0x00,0x00,0x00,0x10,0x00,0x00,0x00,0xe0,0x00,
 0x00,0x38,0x00,0x00,0x00,0x3c,0x00,0x00,0x00,0x00,0x00,0x00,0x00,0x00,0x00,
 0x00,0x00,0x00,0x00,0x00,0x00,0x00,0x00,0x38,0x00,0x00,0x00,0x00,0x00,0x10,
 0x00,0x00,0x00,0x00,0x07,0x00,0x04,0x00,0x00,0x00,0x07,0x00,0x00,0x00,0x00,
 0x00,0x00,0x00,0x00,0x00,0x00,0x00,0x00,0x00,0x00,0x00,0x00,0x00,0x70,0x00,
 0x00,0x00,0x00,0x00,0x10,0x00,0x00,0x00,0x00,0x08,0x00,0x04,0x00,0x00,0x00,
 0x07,0x00,0x00,0x00,0x00,0x00,0x00,0x00,0x00,0x00,0x00,0x00,0x00,0x00,0x00,
 0x00,0x00,0x00,0x70,0x00,0x00,0x00,0x00,0x00,0x10,0x00,0x00,0x00,0x00,0x08,
 0x80,0x03,0x00,0x00,0x80,0x03,0x00,0x00,0x00,0x00,0x00,0x00,0x00,0x00,0x00,
 0x00,0x00,0x00,0x00,0x00,0x00,0x00,0x00,0x40,0x00,0x00,0x00,0x00,0x00,0x10,
 0x00,0x00,0x00,0x00,0x08,0x70,0x00,0x00,0x00,0x80,0x00,0x00,0x00,0x00,0x00,
 0x00,0x00,0x00,0x00,0x00,0x00,0x00,0x00,0x00,0x00,0x00,0x00,0x00,0xc0,0x01,
 0x00,0x00,0x00,0x00,0x10,0x00,0x00,0x00,0x00,0x08,0x0e,0x00,0x00,0x00,0xe0,
 0x00,0x00,0x00,0x00,0x00,0x00,0x00,0x00,0x00,0x00,0x00,0x00,0x00,0x00,0x00,
 0x00,0x00,0x00,0x80,0x03,0x00,0x00,0x00,0x00,0x10,0x00,0x00,0x00,0x00,0x08,
 0x0e,0x00,0x00,0x00,0xe0,0x00,0x00,0x00,0x00,0x00,0x00,0x00,0x00,0x00,0x00,
 0x00,0x00,0x00,0x00,0x00,0x00,0x00,0x00,0x80,0x03,0x00,0x00,0x00,0x00,0x10,
 0x00,0x00,0x00,0x00,0x08,0x01,0x00,0x00,0x00,0x70,0x00,0x00,0x00,0x00,0x00,
 0x00,0x00,0x00,0x00,0x00,0x00,0x00,0x00,0x00,0x00,0x00,0x00,0x00,0x00,0x02,
 0x00,0x00,0x00,0x00,0x10,0x00,0x00,0x00,0x00,0x08,0x01,0x00,0x00,0x00,0x1c,
 0x00,0x00,0x00,0x00,0x00,0x00,0x00,0x00,0x00,0x00,0x00,0x00,0x00,0x00,0x00,
 0x00,0x00,0x00,0x00,0x0e,0x00,0x00,0x00,0x00,0x10,0x00,0x00,0x00,0x00,0x08,
 0x01,0x00,0x00,0x00,0x1c,0x00,0x00,0x00,0x00,0x00,0x00,0x00,0x00,0x00,0x00,
 0x00,0x00,0x00,0x00,0x00,0x00,0x00,0x00,0x00,0x0e,0x00,0x00,0x00,0x00,0x10,
 0x00,0x00,0x00,0x00,0x08,0x01,0x00,0x00,0x00,0x0c,0x00,0x00,0x00,0x00,0x00,
 0x00,0x00,0x00,0x00,0x00,0x00,0x00,0x00,0x00,0x00,0x00,0x00,0x00,0x00,0x0c,
 0x00,0x00,0x00,0x00,0x10,0x00,0x00,0x00,0x00,0x08,0x01,0x00,0x00,0x00,0x0c,
 0x00,0x00,0x00,0x00,0x00,0x00,0x00,0x00,0x00,0x00,0x00,0x00,0x00,0x00,0x00,
 0x00,0x00,0x00,0x00,0x1c,0x00,0x00,0x00,0x00,0x10,0x00,0x00,0x00,0x00,0x0f,
 0x01,0x00,0x00,0x00,0x0c,0x00,0x00,0x00,0x00,0x00,0x00,0x00,0x00,0x00,0x00,
 0x00,0x00,0x00,0x00,0x00,0x00,0x00,0x00,0x00,0x1c,0x00,0x00,0x00,0x00,0x10,
 0x00,0x00,0x00,0x00,0x0f,0x01,0x00,0x00,0x00,0x0e,0x00,0x00,0x00,0x00,0x00,
 0x00,0x00,0x00,0x00,0x00,0x00,0x00,0x00,0x00,0x00,0x00,0x00,0x00,0x00,0x10,
 0x00,0x00,0x00,0x00,0x10,0x00,0x00,0x00,0xe0,0x08,0x01,0x00,0x00,0x00,0x02,
 0x00,0x00,0x00,0x00,0x00,0x00,0x00,0x00,0x00,0x00,0x00,0x00,0x00,0x00,0x00,
 0x00,0x00,0x00,0x00,0x30,0x00,0x00,0x00,0x00,0x10,0x00,0x00,0x00,0x1c,0x08,
 0x01,0x00,0x00,0x00,0x02,0x00,0x00,0x00,0x00,0x00,0x00,0x00,0x00,0x00,0x00,
 0x00,0x00,0x00,0x00,0x00,0x00,0x00,0x00,0x00,0x30,0x00,0x00,0x00,0x00,0x10,
 0x00,0x00,0x00,0x02,0x07,0x01,0x00,0x00,0x00,0x02,0x00,0x00,0x00,0x00,0x00,
 0x00,0x00,0x00,0x00,0x00,0x00,0x00,0x00,0x00,0x00,0x00,0x00,0x00,0x00,0x30,
 0x00,0x00,0x00,0x00,0x10,0x00,0x00,0x00,0x02,0x07,0x01,0x00,0x00,0x00,0x02,
 0x00,0x00,0x00,0x00,0x00,0x00,0x00,0x00,0x00,0x00,0x00,0x00,0x00,0x00,0x00,
 0x00,0x00,0x00,0x00,0x20,0x00,0x00,0x00,0x00,0x10,0x00,0x00,0xc0,0xe1,0x00,
 0x01,0x00,0x00,0x80,0x03,0x00,0x00,0x00,0x00,0x00,0x00,0x00,0x00,0x00,0x00,
 0x00,0x00,0x00,0x00,0x00,0x00,0x00,0x00,0x00,0x20,0x00,0x00,0x00,0x00,0x10,
 0x00,0x00,0x38,0x1c,0x00,0x01,0x00,0x00,0x80,0x03,0x00,0x00,0x00,0x00,0x00,
 0x00,0x00,0x00,0x00,0x00,0x00,0x00,0x00,0x00,0x00,0x00,0x00,0x00,0x00,0x20,
 0x00,0x00,0x00,0x00,0x10,0x00,0x00,0x38,0x1c,0x00,0x01,0x00,0x00,0x80,0x01,
 0x00,0x00,0x00,0x00,0x00,0x00,0x00,0x00,0x00,0x00,0x00,0x00,0x00,0x00,0x00,
 0x00,0x00,0x00,0x00,0x20,0x00,0x00,0x00,0x00,0x10,0x00,0x00,0x07,0x02,0x00,
 0x01,0x00,0x00,0x80,0x01,0x00,0x00,0x00,0x00,0x00,0x00,0x00,0x00,0x00,0x00,
 0x00,0x00,0x00,0x00,0x00,0x00,0x00,0x00,0x00,0x10,0x00,0x00,0x00,0x00,0x10,
 0x00,0x80,0xc0,0x01,0x00,0x01,0x00,0x00,0x80,0x01,0x00,0x00,0x00,0x00,0x00,
 0x00,0x00,0x00,0x00,0x00,0x00,0x00,0x00,0x00,0x00,0x00,0x00,0x00,0x00,0x10,
 0x00,0x00,0x00,0x00,0x10,0x00,0x80,0xc0,0x01,0x00,0x01,0x00,0x00,0x80,0x01,
 0x00,0x00,0x00,0x00,0x00,0x00,0x00,0x00,0x00,0x00,0x00,0x00,0x00,0x00,0x00,
 0x00,0x00,0x00,0x00,0x10,0x00,0x00,0x00,0x00,0x1e,0x00,0x70,0x38,0x00,0x00,
 0x01,0x00,0x00,0x80,0x01,0x00,0x00,0x00,0x00,0x00,0x00,0x00,0x00,0x00,0x00,
 0xfc,0xff,0x01,0x00,0x00,0x00,0x00,0x00,0x00,0x10,0x00,0x00,0x00,0xc0,0x11,
 0x00,0x0e,0x07,0x00,0x00,0x01,0x00,0x00,0x80,0x01,0x00,0x00,0x00,0x00,0x00,
 0x00,0x00,0x00,0x00,0x00,0xfc,0xff,0x01,0x00,0x00,0x00,0x00,0x00,0x00,0x10,
 0x00,0x00,0x00,0xc0,0x11,0x00,0x0e,0x07,0x00,0x00,0x01,0x00,0x00,0x80,0x01,
 0x00,0x00,0x00,0x00,0x00,0x00,0x00,0x00,0x00,0xc0,0x03,0x00,0x1e,0x00,0x00,
 0x00,0x00,0x00,0x00,0x0c,0x00,0x00,0x00,0x20,0x10,0xc0,0x81,0x03,0x00,0x00,
 0x01,0x00,0x00,0x80,0x01,0x00,0x00,0x00,0x00,0x00,0x00,0x00,0x00,0x00,0x38,
 0x00,0x00,0xe0,0x00,0x00,0x00,0x00,0x00,0x00,0x0c,0x00,0x00,0x00,0x1c,0x10,
 0x20,0x70,0x03,0x00,0x00,0x01,0x00,0x00,0x80,0x01,0x00,0x00,0x00,0x00,0x00,
 0x00,0x00,0x00,0x00,0x04,0x00,0x00,0x00,0x07,0x00,0x00,0x00,0x00,0x00,0x02,
 0x00,0x00,0x80,0x03,0x10,0x1c,0x8e,0x00,0x00,0x00,0x01,0x00,0x00,0x80,0x01,
 0x00,0x00,0x00,0x00,0x00,0x00,0x00,0x00,0x00,0x04,0x00,0x00,0x00,0x07,0x00,
 0x00,0x00,0x00,0x00,0x02,0x00,0x00,0x80,0x03,0x10,0x1c,0x8e,0x00,0x00,0x00,
 0x01,0x00,0x00,0x80,0x01,0x00,0x00,0x00,0x00,0x00,0x00,0x00,0x00,0x00,0x03,
 0x00,0x01,0x00,0x08,0x00,0x00,0x00,0x00,0x80,0x01,0x00,0x00,0x70,0x00,0x8e,
 0xc3,0x63,0x00,0x00,0x00,0x01,0x00,0x00,0x00,0x02,0x00,0x00,0x00,0x00,0x00,
 0x00,0x00,0x00,0x00,0x03,0xf0,0x7e,0x00,0x70,0x00,0x00,0x00,0x00,0x80,0x01,
 0x00,0x00,0x08,0xc0,0x71,0x20,0x1e,0x00,0x00,0x00,0x01,0x00,0x00,0x00,0x02,
 0x00,0x00,0x00,0x00,0x00,0x00,0x00,0x00,0x00,0x03,0xf0,0x7e,0x00,0x70,0x00,
 0x00,0x00,0x00,0x80,0x01,0x00,0x00,0x08,0xc0,0x71,0x20,0x1e,0x00,0x00,0x00,
 0x01,0x00,0x00,0x00,0x02,0x00,0x00,0x00,0x00,0x00,0x00,0x00,0x00,0x80,0x00,
 0x0c,0x80,0x01,0x80,0x00,0x00,0x00,0x00,0x40,0x00,0x00,0x00,0x07,0x38,0x0c,
 0x1c,0x02,0x00,0x00,0x00,0x01,0x00,0x00,0x00,0x0c,0x00,0x00,0x00,0x00,0x00,
 0x00,0x00,0x00,0x80,0x00,0x02,0x00,0x02,0x00,0x07,0x00,0x00,0x00,0x30,0x00,
 0x00,0xe0,0x00,0x04,0x83,0xc3,0x01,0x00,0x00,0x00,0x01,0x00,0x00,0x00,0x0c,
 0x00,0x00,0x00,0x00,0x00,0x00,0x00,0x00,0x80,0x00,0x02,0x00,0x02,0x00,0x07,
 0x00,0x00,0x00,0x30,0x00,0x00,0xe0,0x00,0x04,0x83,0xc3,0x01,0x00,0x00,0x00,
 0x01,0x00,0x00,0x00,0x0c,0x00,0x00,0x00,0x00,0x00,0x00,0x00,0x00,0x80,0x00,
 0x02,0x00,0x02,0x00,0x38,0x00,0x00,0x00,0x0c,0x00,0x00,0x18,0x80,0xe3,0x70,
 0x38,0x00,0x00,0x00,0x00,0x01,0x00,0x00,0x00,0x10,0x00,0x00,0x00,0x00,0x00,
 0x00,0x00,0x00,0x80,0x00,0xcc,0x8f,0x01,0x00,0xc0,0x03,0x00,0xe0,0x03,0x00,
 0x00,0x06,0x70,0x1c,0x0c,0x07,0x00,0x00,0x00,0x00,0x01,0x00,0x00,0x00,0x10,
 0x00,0x00,0x00,0x00,0x00,0x00,0x00,0x00,0x80,0x00,0xcc,0x8f,0x01,0x00,0xc0,
 0x03,0x00,0xe0,0x03,0x00,0x00,0x06,0x70,0x1c,0x0c,0x07,0x00,0x00,0x00,0x00,
 0x01,0x00,0x00,0x00,0x10,0x00,0x00,0x00,0x00,0x00,0x00,0x00,0x00,0x80,0x00,
 0xfc,0xf0,0x01,0x00,0x00,0xfc,0xff,0x1f,0x00,0x00,0xc0,0x01,0x0e,0x03,0x83,
 0x00,0x00,0x00,0x00,0x00,0x01,0x00,0x00,0x00,0x60,0x00,0x00,0x00,0x00,0x00,
 0x00,0x00,0x00,0x80,0x03,0x00,0x8f,0x07,0x00,0x00,0x00,0x00,0x00,0x00,0x00,
 0x30,0x00,0xc1,0xe0,0x70,0x00,0x00,0x00,0x00,0x00,0x0f,0x00,0x00,0x00,0x80,
 0x00,0x00,0x00,0x00,0x00,0x00,0x00,0x00,0x00,0x07,0x00,0x00,0xfc,0xff,0x00,
 0x00,0x00,0x00,0x00,0x00,0x0e,0xe0,0x38,0x1c,0x0e,0x00,0x00,0x00,0x00,0x00,
 0x0f,0x00,0x00,0x00,0x80,0x00,0x00,0x00,0x00,0x00,0x00,0x00,0x00,0x00,0x07,
 0x00,0x00,0xfc,0xff,0x00,0x00,0x00,0x00,0x00,0x00,0x0e,0xe0,0x38,0x1c,0x0e,
 0x00,0x00,0x00,0x00,0x00,0x71,0x00,0x00,0x00,0x00,0x03,0x00,0x00,0x00,0x00,
 0x00,0x00,0x00,0x00,0x3c,0x00,0x00,0x38,0x00,0x03,0x00,0x00,0x00,0x00,0xc0,
 0x01,0x1c,0x07,0x03,0x01,0x00,0x00,0x00,0x00,0x00,0x81,0x03,0x00,0x00,0x00,
 0x04,0x00,0x00,0x00,0x00,0x00,0x00,0x00,0x00,0xf8,0x01,0x00,0x24,0x00,0x04,
 0x00,0x00,0x00,0x00,0x30,0x00,0xc2,0xc0,0xe0,0x00,0x00,0x00,0x00,0x00,0x00,
 0x81,0x03,0x00,0x00,0x00,0x04,0x00,0x00,0x00,0x00,0x00,0x00,0x00,0x00,0xf8,
 0x01,0x00,0x24,0x00,0x04,0x00,0x00,0x00,0x00,0x30,0x00,0xc2,0xc0,0xe0,0x00,
 0x00,0x00,0x00,0x00,0x00,0x01,0x04,0x00,0x00,0x00,0x08,0x00,0x00,0x00,0x00,
 0x00,0x00,0x00,0x00,0xc0,0x0f,0x00,0x24,0x00,0x04,0x00,0x00,0x00,0x00,0x0c,
 0xc0,0x39,0x38,0x1c,0x00,0x00,0x00,0x00,0x00,0x00,0x01,0x38,0x00,0x00,0x00,
 0x30,0x00,0x00,0x00,0x00,0x00,0x00,0x00,0x00,0x00,0x1e,0x00,0x38,0x0e,0x03,
 0x00,0x00,0x00,0x80,0x03,0x38,0x06,0x87,0x03,0x00,0x00,0x00,0x00,0x00,0x00,
 0x01,0x38,0x00,0x00,0x00,0x30,0x00,0x00,0x00,0x00,0x00,0x00,0x00,0x00,0x00,
 0x1e,0x00,0x38,0x0e,0x03,0x00,0x00,0x00,0x80,0x03,0x38,0x06,0x87,0x03,0x00,
 0x00,0x00,0x00,0x00,0x00,0x01,0xc0,0x01,0x00,0x00,0x40,0x00,0x00,0x00,0x00,
 0x00,0x00,0x00,0x00,0x00,0x30,0x00,0xe0,0xf1,0x03,0x00,0x00,0x00,0x70,0x00,
 0x87,0xc1,0x40,0x00,0x00,0x00,0x00,0x00,0x00,0x00,0x01,0x00,0x02,0x00,0x00,
 0x80,0x03,0x00,0x00,0x00,0x00,0x00,0x00,0x00,0x00,0xe0,0x00,0x00,0x3f,0x00,
 0x00,0x00,0x00,0x08,0xc0,0x70,0x38,0x38,0x00,0x00,0x00,0x00,0x00,0x00,0x00,
 0x01,0x00,0x1c,0x00,0x00,0x00,0x1c,0x00,0x00,0x00,0x00,0x00,0x00,0x00,0x00,
 0xc0,0x00,0x00,0x00,0x00,0x00,0x00,0x00,0x07,0x30,0x0e,0x06,0x0f,0x00,0x00,
 0x00,0x00,0x00,0x00,0x00,0x01,0x00,0x1c,0x00,0x00,0x00,0x1c,0x00,0x00,0x00,
 0x00,0x00,0x00,0x00,0x00,0xc0,0x00,0x00,0x00,0x00,0x00,0x00,0x00,0x07,0x30,
 0x0e,0x06,0x0f,0x00,0x00,0x00,0x00,0x00,0x00,0x00,0x0e,0x00,0xe0,0x00,0x00,
 0x00,0xe0,0x00,0x00,0x00,0x00,0x00,0x00,0x00,0x00,0xc0,0x01,0x00,0x00,0x00,
 0x00,0x00,0xe0,0x00,0xce,0x81,0xe1,0x06,0x00,0x00,0x00,0x00,0x00,0x00,0x00,
 0x70,0x00,0x00,0x07,0x00,0x00,0x00,0x07,0x00,0x00,0x00,0x00,0x00,0x00,0x00,
 0x00,0x01,0x00,0x00,0x00,0x00,0x00,0x10,0xc0,0x21,0x70,0x18,0x01,0x00,0x00,
 0x00,0x00,0x00,0x00,0x00,0x70,0x00,0x00,0x07,0x00,0x00,0x00,0x07,0x00,0x00,
 0x00,0x00,0x00,0x00,0x00,0x00,0x01,0x00,0x00,0x00,0x00,0x00,0x10,0xc0,0x21,
 0x70,0x18,0x01,0x00,0x00,0x00,0x00,0x00,0x00,0x00,0x80,0x03,0x00,0x18,0x00,
 0x00,0x00,0x38,0x00,0x00,0x00,0x00,0x00,0x00,0x00,0x00,0x01,0x00,0x00,0x00,
 0x00,0x00,0x0e,0x30,0x1c,0x0e,0xc6,0x00,0x00,0x00,0x00,0x00,0x00,0x00,0x00,
 0x00,0x1c,0x00,0x60,0x00,0x00,0x00,0xc0,0x03,0x00,0x00,0x00,0x00,0x00,0x00,
 0x00,0x01,0x00,0x00,0x00,0x00,0xc0,0x01,0x8c,0xc3,0xc1,0x21,0x00,0x00,0x00,
 0x00,0x00,0x00,0x00,0x00,0x00,0x1c,0x00,0x60,0x00,0x00,0x00,0xc0,0x03,0x00,
 0x00,0x00,0x00,0x00,0x00,0x00,0x01,0x00,0x00,0x00,0x00,0xc0,0x01,0x8c,0xc3,
 0xc1,0x21,0x00,0x00,0x00,0x00,0x00,0x00,0x00,0x00,0x00,0x20,0x00,0x80,0x03,
 0x00,0x00,0x00,0x1c,0x00,0x00,0x00,0x00,0x00,0x00,0xc0,0x00,0x00,0x00,0x00,
 0x00,0x20,0x80,0x73,0x20,0x30,0x20,0x00,0x00,0x00,0x00,0x00,0x00,0x00,0x00,
 0x00,0xc0,0x01,0x00,0x1c,0x00,0x00,0x00,0xe0,0x01,0x00,0x00,0x00,0x00,0x00,
 0x20,0x00,0x00,0x00,0x00,0x00,0x1c,0x70,0x08,0x1c,0x0e,0x18,0x00,0x00,0x00,
 0x00,0x00,0x00,0x00,0x00,0x00,0xc0,0x01,0x00,0x1c,0x00,0x00,0x00,0xe0,0x01,
 0x00,0x00,0x00,0x00,0x00,0x20,0x00,0x00,0x00,0x00,0x00,0x1c,0x70,0x08,0x1c,
 0x0e,0x18,0x00,0x00,0x00,0x00,0x00,0x00,0x00,0x00,0x00,0x00,0x0e,0x00,0x60,
 0x00,0x00,0x00,0x00,0x7e,0x00,0x00,0x00,0x00,0x00,0x1c,0x00,0x00,0x00,0x00,
 0x80,0x03,0x0c,0x87,0xc3,0x01,0x18,0x00,0x00,0x00,0x00,0x00,0x00,0x00,0x00,
 0x00,0x00,0x70,0x00,0x80,0x03,0x00,0x00,0x00,0x80,0xff,0x00,0x00,0x00,0x00,
 0x02,0x00,0x00,0x00,0x00,0x70,0x80,0xe3,0x70,0x30,0x00,0x04,0x00,0x00,0x00,
 0x00,0x00,0x00,0x00,0x00,0x00,0x00,0x80,0x03,0x00,0x0c,0x00,0x00,0x00,0x00,
 0x00,0xff,0x1f,0x00,0xff,0x01,0x00,0x00,0x00,0x00,0x0c,0x60,0x1c,0x08,0x0c,
 0x00,0x02,0x00,0x00,0x00,0x00,0x00,0x00,0x00,0x00,0x00,0x00,0x80,0x03,0x00,
 0x0c,0x00,0x00,0x00,0x00,0x00,0xff,0x1f,0x00,0xff,0x01,0x00,0x00,0x00,0x00,
 0x0c,0x60,0x1c,0x08,0x0c,0x00,0x02,0x00,0x00,0x00,0x00,0x00,0x00,0x00,0x00,
 0x00,0x00,0x00,0x04,0x00,0x70,0x00,0x00,0x00,0x00,0x00,0x00,0xe0,0xff,0x00,
 0x00,0x00,0x00,0x00,0x00,0x03,0x1c,0x02,0x87,0x03,0x00,0x02,0x00,0x00,0x00,
 0x00,0x00,0x00,0x00,0x00,0x00,0x00,0x00,0x38,0x00,0x80,0x01,0x00,0x00,0x00,
 0x00,0x00,0x00,0x00,0x00,0x00,0x00,0x00,0x00,0xe0,0x00,0xc3,0xe1,0x70,0x00,
 0x80,0x01,0x00,0x00,0x00,0x00,0x00,0x00,0x00,0x00,0x00,0x00,0x00,0x38,0x00,
 0x80,0x01,0x00,0x00,0x00,0x00,0x00,0x00,0x00,0x00,0x00,0x00,0x00,0x00,0xe0,
 0x00,0xc3,0xe1,0x70,0x00,0x80,0x01,0x00,0x00,0x00,0x00,0x00,0x00,0x00,0x00,
 0x00,0x00,0x00,0xc0,0x01,0x00,0x0e,0x00,0x00,0x00,0x00,0xe0,0x1f,0x00,0x00,
 0x00,0x00,0x00,0x00,0x18,0xe0,0x38,0x1c,0x0c,0x00,0x80,0x01,0x00,0x00,0x00,
 0x00,0x00,0x00,0x00,0x00,0x00,0x00,0x00,0x00,0x0e,0x00,0x30,0x00,0x00,0x00,
 0x00,0x70,0x38,0x00,0x00,0x00,0x00,0x00,0x00,0x07,0x1c,0x07,0x02,0x03,0x00,
 0x40,0x00,0x00,0x00,0x00,0x00,0x00,0x00,0x00,0x00,0x00,0x00,0x00,0x00,0x0e,
 0x00,0x30,0x00,0x00,0x00,0x00,0x70,0x38,0x00,0x00,0x00,0x00,0x00,0x00,0x07,
 0x1c,0x07,0x02,0x03,0x00,0x40,0x00,0x00,0x00,0x00,0x00,0x00,0x00,0x00,0x00,
 0x00,0x00,0x00,0x00,0x10,0x00,0xc0,0x00,0x00,0x00,0x00,0x10,0x20,0x00,0x00,
 0x00,0x00,0x00,0xc0,0x00,0x83,0xc0,0xe1,0x00,0x00,0x40,0x00,0x00,0x00,0x00,
 0x00,0x00,0x00,0x00,0x00,0x00,0x00,0x00,0x00,0xe0,0x00,0x00,0x07,0x00,0x00,
 0x00,0x70,0x38,0x00,0x00,0x00,0x00,0x00,0x30,0xc0,0x70,0x38,0x1c,0x00,0x00,
 0x30,0x00,0x00,0x00,0x00,0x00,0x00,0x00,0x00,0x00,0x00,0x00,0x00,0x00,0xe0,
 0x00,0x00,0x07,0x00,0x00,0x00,0x70,0x38,0x00,0x00,0x00,0x00,0x00,0x30,0xc0,
 0x70,0x38,0x1c,0x00,0x00,0x30,0x00,0x00,0x00,0x00,0x00,0x00,0x00,0x00,0x00,
 0x00,0x00,0x00,0x00,0x00,0x07,0x00,0x38,0x00,0x00,0x00,0xe0,0x1f,0x00,0x00,
 0x00,0x00,0x00,0x0e,0x38,0x0e,0x87,0x03,0x00,0x00,0x30,0x00,0x00,0x00,0x00,
 0x00,0x00,0x00,0x00,0x00,0x00,0x00,0x00,0x00,0x00,0x38,0x00,0xc0,0x01,0x00,
 0x00,0x00,0x00,0x00,0x00,0x00,0x00,0xc0,0x01,0xc7,0x81,0x40,0x00,0x00,0x00,
 0x08,0x00,0x00,0x00,0x00,0x00,0x00,0x00,0x00,0x00,0x00,0x00,0x00,0x00,0x00,
 0xc0,0x01,0x00,0x02,0x00,0x00,0x00,0x00,0x00,0x00,0x00,0x00,0x38,0x80,0x20,
 0x70,0x38,0x00,0x00,0x00,0x08,0x00,0x00,0x00,0x00,0x00,0x00,0x00,0x00,0x00,
 0x00,0x00,0x00,0x00,0x00,0xc0,0x01,0x00,0x02,0x00,0x00,0x00,0x00,0x00,0x00,
 0x00,0x00,0x38,0x80,0x20,0x70,0x38,0x00,0x00,0x00,0x08,0x00,0x00,0x00,0x00,
 0x00,0x00,0x00,0x00,0x00,0x00,0x00,0x00,0x00,0x00,0x00,0x02,0x00,0x1c,0x00,
 0x00,0x00,0x00,0x00,0x00,0x00,0x00,0x04,0x70,0x1c,0x0e,0x07,0x00,0x00,0x00,
 0x06,0x00,0x00,0x00,0x00,0x00,0x00,0x00,0x00,0x00,0x00,0x00,0x00,0x00,0x00,
 0x00,0x1c,0x00,0xe0,0x00,0x00,0x00,0x00,0x00,0x00,0x00,0x80,0x03,0x8e,0xc3,
 0x81,0x00,0x00,0x00,0x00,0x06,0x00,0x00,0x00,0x00,0x00,0x00,0x00,0x00,0x00,
 0x00,0x00,0x00,0x00,0x00,0x00,0x1c,0x00,0xe0,0x00,0x00,0x00,0x00,0x00,0x00,
 0x00,0x80,0x03,0x8e,0xc3,0x81,0x00,0x00,0x00,0x00,0x06,0x00,0x00,0x00,0x00,
 0x00,0x00,0x00,0x00,0x00,0x00,0x00,0x00,0x00,0x00,0x00,0xe0,0x00,0x00,0x07,
 0x00,0x00,0x00,0x00,0x00,0x00,0x70,0xc0,0x71,0x20,0x70,0x00,0x00,0x00,0xc0,
 0x01,0x00,0x00,0x00,0x00,0x00,0x00,0x00,0x00,0x00,0x00,0x00,0x00,0x00,0x00,
 0x00,0x00,0x07,0x00,0xf8,0xff,0xff,0xff,0xff,0xff,0xff,0x0f,0x20,0x08,0x3c,
 0x1e,0x00,0x00,0x00,0x30,0x00,0x00,0x00,0x00,0x00,0x00,0x00,0x00,0x00,0x00,
 0x00,0x00,0x00,0x00,0x00,0x00,0x00,0x07,0x00,0xf8,0xff,0xff,0xff,0xff,0xff,
 0xff,0x0f,0x20,0x08,0x3c,0x1e,0x00,0x00,0x00,0x30,0x00,0x00,0x00,0x00,0x00,
 0x00,0x00,0x00,0x00,0x00,0x00,0x00,0x00,0x00,0x00,0x00,0x00,0x38,0x00,0x08,
 0x00,0x00,0x00,0x00,0x00,0x00,0x08,0x1c,0x87,0xe3,0x11,0x00,0x00,0x00,0x0e,
 0x00,0x00,0x00,0x00,0x00,0x00,0x00,0x00,0x00,0x00,0x00,0x00,0x00,0x00,0x00,
 0x00,0x00,0x40,0x00,0x08,0x00,0x00,0x00,0x00,0x00,0x00,0x88,0xe3,0x70,0x38,
 0x10,0x00,0x00,0x80,0x01,0x00,0x00,0x00,0x00,0x00,0x00,0x00,0x00,0x00,0x00,
 0x00,0x00,0x00,0x00,0x00,0x00,0x00,0x80,0x03,0x08,0x00,0x00,0x00,0x00,0x00,
 0x00,0x78,0x1c,0x08,0x07,0x10,0x00,0x00,0x70,0x00,0x00,0x00,0x00,0x00,0x00,
 0x00,0x00,0x00,0x00,0x00,0x00,0x00,0x00,0x00,0x00,0x00,0x00,0x80,0x03,0x08,
 0x00,0x00,0x00,0x00,0x00,0x00,0x78,0x1c,0x08,0x07,0x10,0x00,0x00,0x70,0x00,
 0x00,0x00,0x00,0x00,0x00,0x00,0x00,0x00,0x00,0x00,0x00,0x00,0x00,0x00,0x00,
 0x00,0x00,0x00,0x1c,0x08,0x00,0x00,0x00,0x00,0x00,0x00,0xf8,0x03,0xff,0x00,
 0x10,0x00,0x00,0x0c,0x00,0x00,0x00,0x00,0x00,0x00,0x00,0x00,0x00,0x00,0x00,
 0x00,0x00,0x00,0x00,0x00,0x00,0x00,0x00,0xe0,0x08,0x00,0x00,0x00,0x00,0x00,
 0x00,0x00,0xe2,0x07,0x00,0x10,0x00,0x00,0x03,0x00,0x00,0x00,0x00,0x00,0x00,
 0x00,0x00,0x00,0x00,0x00,0x00,0x00,0x00,0x00,0x00,0x00,0x00,0x00,0xe0,0x08,
 0x00,0x00,0x00,0x00,0x00,0x00,0x00,0xe2,0x07,0x00,0x10,0x00,0x00,0x03,0x00,
 0x00,0x00,0x00,0x00,0x00,0x00,0x00,0x00,0x00,0x00,0x00,0x00,0x00,0x00,0x00,
 0x00,0x00,0x00,0x00,0x0f,0x00,0x00,0x00,0x00,0x00,0x00,0x00,0x1e,0x00,0x00,
 0x10,0x00,0xe0,0x00,0x00,0x00,0x00,0x00,0x00,0x00,0x00,0x00,0x00,0x00,0x00,
 0x00,0x00,0x00,0x00,0x00,0x00,0x00,0x00,0x00,0xf8,0xff,0xff,0xff,0xff,0xff,
 0xff,0xff,0x03,0x00,0x00,0x10,0x00,0x1c,0x00,0x00,0x00,0x00,0x00,0x00,0x00,
 0x00,0x00,0x00,0x00,0x00,0x00,0x00,0x00,0x00,0x00,0x00,0x00,0x00,0x00,0xf8,
 0xff,0xff,0xff,0xff,0xff,0xff,0xff,0x03,0x00,0x00,0x10,0x00,0x1c,0x00,0x00,
 0x00,0x00,0x00,0x00,0x00,0x00,0x00,0x00,0x00,0x00,0x00,0x00,0x00,0x00,0x00,
 0x00,0x00,0x00,0x00,0x00,0x00,0x00,0x04,0x00,0x00,0x00,0x00,0x00,0x00,0x00,
 0x10,0x80,0x03,0x00,0x00,0x00,0x00,0x00,0x00,0x00,0x00,0x00,0x00,0x00,0x00,
 0x00,0x00,0x00,0x00,0x00,0x00,0x00,0x00,0x00,0x00,0x00,0x00,0x04,0x00,0x00,
 0x00,0x00,0x00,0x00,0x00,0x10,0x40,0x00,0x00,0x00,0x00,0x00,0x00,0x00,0x00,
 0x00,0x00,0x00,0x00,0x00,0x00,0x00,0x00,0x00,0x00,0x00,0x00,0x00,0x00,0x00,
 0x00,0x00,0x04,0x00,0x00,0x00,0x00,0x00,0x00,0x00,0x10,0x40,0x00,0x00,0x00,
 0x00,0x00,0x00,0x00,0x00,0x00,0x00,0x00,0x00,0x00,0x00,0x00,0x00,0x00,0x00,
 0x00,0x00,0x00,0x00,0x00,0x00,0x00,0x18,0x00,0x00,0x00,0x00,0x00,0x00,0x00,
 0x10,0x38,0x00,0x00,0x00,0x00,0x00,0x00,0x00,0x00,0x00,0x00,0x00,0x00,0x00,
 0x00,0x00,0x00,0x00,0x00,0x00,0x00,0x00,0x00,0x00,0x00,0x00,0x60,0x00,0x00,
 0x00,0x00,0x00,0x00,0x00,0x10,0x07,0x00,0x00,0x00,0x00,0x00,0x00,0x00,0x00,
 0x00,0x00,0x00,0x00,0x00,0x00,0x00,0x00,0x00,0x00,0x00,0x00,0x00,0x00,0x00,
 0x00,0x00,0x80,0x01,0x00,0x00,0x00,0x00,0x00,0x00,0xf0,0x00,0x00,0x00,0x00,
 0x00,0x00,0x00,0x00,0x00,0x00,0x00,0x00,0x00,0x00,0x00,0x00,0x00,0x00,0x00,
 0x00,0x00,0x00,0x00,0x00,0x00,0x00,0x80,0x01,0x00,0x00,0x00,0x00,0x00,0x00,
 0xf0,0x00,0x00,0x00,0x00,0x00,0x00,0x00,0x00,0x00,0x00,0x00,0x00,0x00,0x00,
 0x00,0x00,0x00,0x00,0x00,0x00,0x00,0x00,0x00,0x00,0x00,0x00,0x00,0x0e,0x00,
 0x00,0x00,0x00,0x00,0x00,0x1c,0x00,0x00,0x00,0x00,0x00,0x00,0x00,0x00,0x00,
 0x00,0x00,0x00,0x00,0x00,0x00,0x00,0x00,0x00,0x00,0x00,0x00,0x00,0x00,0x00,
 0x00,0x00,0x00,0xf0,0x00,0x00,0x00,0x00,0x00,0xc0,0x03,0x00,0x00,0x00,0x00,
 0x00,0x00,0x00,0x00,0x00,0x00,0x00,0x00,0x00,0x00,0x00,0x00,0x00,0x00,0x00,
 0x00,0x00,0x00,0x00,0x00,0x00,0x00,0x00,0xf0,0x00,0x00,0x00,0x00,0x00,0xc0,
 0x03,0x00,0x00,0x00,0x00,0x00,0x00,0x00,0x00,0x00,0x00,0x00,0x00,0x00,0x00,
 0x00,0x00,0x00,0x00,0x00,0x00,0x00,0x00,0x00,0x00,0x00,0x00,0x00,0x00,0x0f,
 0x00,0x00,0x00,0x00,0x3c,0x00,0x00,0x00,0x00,0x00,0x00,0x00,0x00,0x00,0x00,
 0x00,0x00,0x00,0x00,0x00,0x00,0x00,0x00,0x00,0x00,0x00,0x00,0x00,0x00,0x00,
 0x00,0x00,0x00,0x00,0xf8,0x03,0x00,0x00,0xf0,0x07,0x00,0x00,0x00,0x00,0x00,
 0x00,0x00,0x00,0x00,0x00,0x00,0x00,0x00,0x00,0x00,0x00,0x00,0x00,0x00,0x00,
 0x00,0x00,0x00,0x00,0x00,0x00,0x00,0x00,0x00,0xf8,0x03,0x00,0x00,0xf0,0x07,
 0x00,0x00,0x00,0x00,0x00,0x00,0x00,0x00,0x00,0x00,0x00,0x00,0x00,0x00,0x00,
 0x00,0x00,0x00,0x00,0x00,0x00,0x00,0x00,0x00,0x00,0x00,0x00,0x00,0x00,0x80,
 0xff,0x01,0xf8,0x7f,0x00,0x00,0x00,0x00,0x00,0x00,0x00,0x00,0x00,0x00,0x00,
 0x00,0x00,0x00,0x00,0x00,0x00,0x00,0x00,0x00,0x00,0x00,0x00,0x00,0x00,0x00,
 0x00,0x00,0x00,0x00,0x00,0x00,0xfe,0x1f,0x00,0x00,0x00,0x00,0x00,0x00,0x00,
 0x00,0x00,0x00,0x00,0x00,0x00,0x00,0x00,0x00,0x00,0x00,0x00,0x00,0x00,0x00,
 0x00,0x00,0x00,0x00,0x00,0x00,0x00,0x00,0x00,0x00,0x00,0xfe,0x1f,0x00,0x00,
 0x00,0x00,0x00,0x00,0x00,0x00,0x00,0x00,0x00,0x00,0x00,0x00,0x00,0x00,0x00,
 0x00,0x00,0x00,0x00,0x00,0x00,0x00,0x00,0x00,0x00,0x00,0x00,0x00,0x00,0x00,
 0x00,0x00,0x00,0x00,0x00,0x00,0x00,0x00,0x00,0x00,0x00,0x00,0x00,0x00,0x00,
 0x00,0x00,0x00,0x00,0x00,0x00,0x00,0x00,0x00,0x00,0x00,0x00,0x00,0x00,0x00,
 0x00,0x00,0x00,0x00,0x00,0x00,0x00,0x00,0x00,0x00,0x00,0x00,0x00,0x00,0x00,
 0x00,0x00,0x00,0x00,0x00,0x00,0x00,0x00,0x00,0x00,0x00,0x00,0x00,0x00,0x00,
 0x00,0x00,0x00,0x00,0x00,0x00,0x00,0x00,0x00,0x00,0x00,0x00,0x00,0x00,0x00,
 0x00,0x00,0x00,0x00,0x00,0x00,0x00,0x00,0x00,0x00,0x00,0x00,0x00,0x00,0x00,
 0x00,0x00,0x00,0x00,0x00,0x00,0x00,0x00,0x00,0x00,0x00,0x00,0x00,0x00,0x00,
 0x00,0x00,0x00,0x00,0x00,0x00,0x00,0x00,0x00,0x00,0x00,0x00,0x00,0x00,0x00,
 0x00,0x00,0x00,0x00,0x00,0x00,0x00,0x00,0x00,0x00,0x00,0x00,0x00,0x00,0x00,
 0x00,0x00,0x00,0x00,0x00,0x00,0x00,0x00,0x00,0x00,0x00,0x00,0x00,0x00,0x00,
 0x00,0x00,0x00,0x00,0x00,0x00,0x00,0x00,0x00,0x00,0x00,0x00,0x00,0x00,0x00,
 0x00,0x00,0x00,0x00,0x00,0x00,0x00,0x00,0x00,0x00,0x00,0x00,0x00,0x00,0x00,
 0x00,0x00,0x00,0x00,0x00,0x00,0x00,0x00,0x00,0x00,0x00,0x00,0x00,0x00,0x00,
 0x00,0x00,0x00,0x00,0x00,0x00,0x00,0x00,0x00,0x00,0x00,0x00,0x00,0x00,0x00,
 0x00,0x00,0x00,0x00,0x00,0x00,0x00,0x00,0x00,0x00,0x00,0x00,0x00,0x00,0x00,
 0x00,0x00,0x00,0x00,0x00,0x00,0x00,0x00,0x00,0x00,0x00,0x00,0x00,0x00,0x00,
 0x00,0x00,0x00,0x00,0x00,0x00,0x00,0x00,0x00,0x00,0x00,0x00,0x00,0x00,0x00,
 0x00,0x00,0x00,0x00,0x00,0x00,0x00,0x00,0x00,0x00,0x00,0x00,0x00,0x00,0x00,
 0x00,0x00,0x00,0x00,0x00,0x00,0x00,0x00,0x00,0x00,0x00,0x00,0x00,0x00,0x00,
 0x00,0x00,0x00,0x00,0x00,0x00,0x00,0x00,0x00,0x00,0x00,0x00,0x00,0x00,0x00,
 0x00,0x00,0x00,0x00,0x00,0x00,0x00,0x00,0x00,0x00,0x00,0x00,0x00,0x00,0x00,
 0x00,0x00,0x00,0x00,0x00,0x00,0x00,0x00,0x00,0x00,0x00,0x00,0x00,0x00,0x00,
 0x00,0x00,0x00,0x00,0x00,0x00,0x00,0x00,0x00,0x00,0x00,0x00,0x00,0x00,0x00,
 0x00,0x00,0x00,0x00,0x00,0x00,0x00,0x00,0x00,0x00,0x00,0x00,0x00,0x00,0x00,
 0x00,0x00,0x00,0x00,0x00,0x00,0x00,0x00,0x00,0x00,0x00,0x00,0x00,0x00,0x00,
 0x00,0x00,0x00,0x00,0x00,0x00,0x00,0x00,0x00,0x00,0x00,0x00,0x00,0x00,0x00,
 0x00,0x00,0x00,0x00,0x00,0x00,0x00,0x00,0x00,0x00,0x00,0x00,0x00,0x00,0x00,
 0x00,0x00,0x00,0x00,0x00,0x00,0x00,0x00,0x00,0x00,0x00,0x00,0x00,0x00,0x00,
 0x00,0x00,0x00,0x00,0x00,0x00,0x00,0x00,0x00,0x00,0x00,0x00,0x00,0x00,0x00,
 0x00,0x00,0x00,0x00,0x00,0x00,0x00,0x00,0x00,0x00,0x00,0x00,0x00,0x00,0x00,
 0x00,0x00,0x00,0x00,0x00,0x00,0x00,0x00,0x00,0x00,0x00,0x00,0x00,0x00,0x00,
 0x00,0x00,0x00,0x00,0x00,0x00,0x00,0x00,0x00,0x00,0x00,0x00,0x00,0x00,0x00,
 0x00,0x00,0x00,0x00,0x00,0x00,0x00,0x00,0x00,0x00,0x00,0x00,0x00,0x00,0x00,
 0x00,0x00,0x00,0x00,0x00,0x00,0x00,0x00,0x00,0x00,0x00,0x00,0x00,0x00,0x00,
 0x00,0x00,0x00,0x00,0x00,0x00,0x00,0x00,0x00,0x00,0x00,0x00,0x00,0x00,0x00,
 0x00,0x00,0x00,0x00,0x00,0x00,0x00,0x00,0x00,0x00,0x00,0x00,0x00,0x00,0x00,
 0x00,0x00,0x00,0x00,0x00,0x00,0x00,0x00,0x00,0x00,0x00,0x00,0x00,0x00,0x00,
 0x00,0x00,0x00,0x00,0x00,0x00,0x00,0x00,0x00,0x00,0x00,0x00,0x00,0x00,0x00,
 0x00,0x00,0x00,0x00,0x00,0x00,0x00,0x00,0x00,0x00,0x00,0x00,0x00,0x00,0x00,
 0x00,0x00,0x00,0x00,0x00,0x00,0x00,0x00,0x00,0x00,0x00,0x00,0x00,0x00,0x00,
 0x00,0x00,0x00,0x00,0x00,0x00,0x00,0x00,0x00,0x00,0x00,0x00,0x00,0x00,0x00,
 0x00,0x00,0x00,0x00,0x00,0x00,0x00,0x00,0x00,0x00,0x00,0x00,0x00,0x00,0x00,
 0x00,0x00,0x00,0x00,0x00,0x00,0x00,0x00,0x00,0x00,0x00,0x00,0x00,0x00,0x00,
 0x00,0x00,0x00,0x00,0x00,0x00,0x00,0x00,0x00,0x00,0x00,0x00,0x00,0x00,0x00,
 0x00,0x00,0x00,0x00,0x00,0x00,0x00,0x00,0x00,0x00,0x00,0x00,0x00,0x00,0x00,
 0x00,0x00,0x00,0x00,0x00,0x00,0x00,0x00,0x00,0x00,0x00,0x00,0x00,0x00,0x00,
 0x00,0x00,0x00,0x00,0x00,0x00,0x00,0x00,0x00,0x00,0x00,0x00,0x00,0x00,0x00,
 0x00,0x00,0x00,0x00,0x00,0x00,0x00,0x00,0x00,0x00,0x00,0x00,0x00,0x00,0x00,
 0x00,0x00,0x00,0x00,0x00,0x00,0x00,0x00,0x00,0x00,0x00,0x00,0x00,0x00,0x00,
 0x00,0x00,0x00,0x00,0x00,0x00,0x00,0x00,0x00,0x00,0x00,0x00,0x00,0x00,0x00,
 0x00,0x00,0x00,0x00,0x00,0x00,0x00,0x00,0x00,0x00,0x00,0x00,0x00,0x00,0x00,
 0x00,0x00,0x00,0x00,0x00,0x00,0x00,0x00,0x00,0x00,0x00,0x00,0x00,0x00,0x00,
 0x00,0x00,0x00,0x00,0x00,0x00,0x00,0x00,0x00,0x00,0x00,0x00,0x00,0x00,0x00,
 0x00,0x00,0x00,0x00,0x00,0x00,0x00,0x00,0x00,0x00,0x00,0x00,0x00,0x00,0x00,
 0x00,0x00,0x00,0x00,0x00,0x00,0x00,0x00,0x00,0x00,0x00,0x00,0x00,0x00,0x00,
 0x00,0x00,0x00,0x00,0x00,0x00,0x00,0x00,0x00,0x00,0x00,0x00,0x00,0x00,0x00,
 0x00,0x00,0x00,0x00,0x00,0x00,0x00,0x00,0x00,0x00,0x00,0x00,0x00,0x00,0x00,
 0x00,0x00,0x00,0x00,0x00,0x00,0x00,0x00,0x00,0x00,0x00,0x00,0x00,0x00,0x00,
 0x00,0x00,0x00,0x00,0x00,0x00,0x00,0x00,0x00,0x00,0x00,0x00,0x00,0x00,0x00,
 0x00,0x00,0x00,0x00,0x00,0x00,0x00,0x00,0x00,0x00,0x00,0x00,0x00,0x00,0x00,
 0x00,0x00,0x00,0x00,0x00,0x00,0x00,0x00,0x00,0x00,0x00,0x00,0x00,0x00,0x00,
 0x00,0x00,0x00,0x00,0x00,0x00,0x00,0x00,0x00,0x00,0x00,0x00,0x00,0x00,0x00,
 0x00,0x00,0x00,0x00,0x00,0x00,0x00,0x00,0x00,0x00,0x00,0x00,0x00,0x00,0x00,
 0x00,0x00,0x00,0x00,0x00,0x00,0x00,0x00,0x00,0x00,0x00,0x00,0x00,0x00,0x00,
 0x00,0x00,0x00,0x00,0x00,0x00,0x00,0x00,0x00,0x00,0x00,0x00,0x00,0x00,0x00,
 0x00,0x00,0x00,0x00,0x00,0x00,0x00,0x00,0x00,0x00,0x00,0x00,0x00,0x00,0x00,
 0x00,0x00,0x00,0x00,0x00,0x00,0x00,0x00,0x00,0x00,0x00,0x00,0x00,0x00,0x00,
 0x00,0x00,0x00,0x00,0x00,0x00,0x00,0x00,0x00,0x00,0x00,0x00,0x00,0x00,0x00,
 0x00,0x00,0x00,0x00,0x00,0x00,0x00,0x00,0x00,0x00,0x00,0x00,0x00,0x00,0x00,
 0x00,0x00,0x00,0x00,0x00,0x00,0x00,0x00,0x00,0x00,0x00,0x00,0x00,0x00,0x00,
 0x00,0x00,0x00,0x00,0x00,0x00,0x00,0x00,0x00,0x00,0x00,0x00,0x00,0x00,0x00,
 0x00,0x00,0x00,0x00,0x00,0x00,0x00,0x00,0x00,0x00,0x00,0x00,0x00,0x00,0x00,
 0x00,0x00,0x00,0x00,0x00,0x00,0x00,0x00,0x00,0x00,0x00,0x00,0x00,0x00,0x00,
 0x00,0x00,0x00,0x00,0x00,0x00,0x00,0x00,0x00,0x00,0x00,0x00,0x00,0x00,0x00,
 0x00,0x00,0x00,0x00,0x00,0x00,0x00,0x00,0x00,0x00,0x00,0x00,0x00,0x00,0x00,
 0x00,0x00,0x00,0x00,0x00,0x00,0x00,0x00,0x00,0x00,0x00,0x00,0x00,0x00,0x00,
 0x00,0x00,0x00,0x00,0x00,0x00,0x00,0x00,0x00,0x00,0x00,0x00,0x00,0x00,0x00,
 0x00,0x00,0x00,0x00,0x00,0x00,0x00,0x00,0x00,0x00,0x00,0x00,0x00,0x00,0x00,
 0x00,0x00,0x00,0x00,0x00,0x00,0x00,0x00,0x00,0x00,0x00,0x00,0x00,0x00,0x00,
 0x00,0x00,0x00,0x00,0x00,0x00,0x00,0x00,0x00,0x00,0x00,0x00,0x00,0x00,0x00,
 0x00,0x00,0x00,0x00,0x00,0x00,0x00,0x00,0x00,0x00,0x00,0x00,0x00,0x00,0x00,
 0x00,0x00,0x00,0x00,0x00,0x00,0x00,0x00,0x00,0x00,0x00,0x00,0x00,0x00,0x00,
 0x00,0x00,0x00,0x00,0x00,0x00,0x00,0x00,0x00,0x00,0x00,0x00,0x00,0x00,0x00,
 0x00,0x00,0x00,0x00,0x00,0x00,0x00,0x00,0x00,0x00,0x00,0x00,0x00,0x00,0x00,
 0x00,0x00,0x00,0x00,0x00,0x00,0x00,0x00,0x00,0x00,0x00,0x00,0x00,0x00,0x00,
 0x00,0x00,0x00,0x00,0x00,0x00,0x00,0x00,0x00,0x00,0x00,0x00,0x00,0x00,0x00,
 0x00,0x00,0x00,0x00,0x40,0x00,0x00,0x00,0x00,0x18,0x00,0xc0,0x03,0x00,0x00,
 0x00,0x00,0x00,0x00,0x00,0x00,0x00,0x00,0x00,0x00,0x00,0x00,0x00,0x00,0x00,
 0x00,0x00,0x00,0x00,0x00,0x00,0x00,0x00,0x00,0x40,0x00,0x00,0x00,0x00,0x18,
 0x00,0x20,0x0c,0x00,0x00,0x00,0x00,0x00,0x00,0x00,0x00,0x00,0x00,0x00,0x00,
 0x00,0x00,0x00,0x00,0x00,0x00,0x00,0x00,0x00,0x00,0x00,0x00,0x00,0x00,0x40,
 0x00,0x00,0x00,0x00,0x18,0x00,0x20,0x0c,0x00,0x00,0x00,0x00,0x00,0x00,0x00,
 0x00,0x00,0x00,0x00,0x00,0x00,0x00,0x00,0x00,0x00,0x00,0x00,0x00,0x00,0x00,
 0x00,0x00,0x00,0x00,0x40,0x00,0x00,0x00,0x00,0x18,0x00,0x20,0x0c,0x00,0x00,
 0x00,0x00,0x00,0x00,0x00,0x00,0x00,0x00,0x00,0x00,0x00,0x00,0x00,0x00,0x00,
 0x00,0x00,0x00,0x00,0x00,0x00,0x00,0x00,0x80,0x47,0x1e,0xb6,0x1f,0x7e,0x18,
 0xf1,0x00,0x0c,0x00,0x00,0x00,0x00,0x00,0x00,0x00,0x00,0x00,0x00,0x00,0x00,
 0x00,0x00,0x00,0x00,0x00,0x00,0x00,0x00,0x00,0x00,0x00,0x00,0x00,0x80,0x47,
 0x1e,0xb6,0x1f,0x7e,0x18,0xf1,0x00,0x0c,0x00,0x00,0x00,0x00,0x00,0x00,0x00,
 0x00,0x00,0x00,0x00,0x00,0x00,0x00,0x00,0x00,0x00,0x00,0x00,0x00,0x00,0x00,
 0x00,0x00,0x00,0x60,0xc8,0x21,0x4e,0x20,0x81,0xd8,0x0c,0x03,0x02,0x00,0x00,
 0x00,0x00,0x00,0x00,0x00,0x00,0x00,0x00,0x00,0x00,0x00,0x00,0x00,0x00,0x00,
 0x00,0x00,0x00,0x00,0x00,0x00,0x00,0x00,0xe0,0x43,0x20,0x46,0x20,0x81,0xf8,
 0x7c,0x80,0x01,0x00,0x00,0x00,0x00,0x00,0x00,0x00,0x00,0x00,0x00,0x00,0x00,
 0x00,0x00,0x00,0x00,0x00,0x00,0x00,0x00,0x00,0x00,0x00,0x00,0x00,0xe0,0x43,
 0x20,0x46,0x20,0x81,0xf8,0x7c,0x80,0x01,0x00,0x00,0x00,0x00,0x00,0x00,0x00,
 0x00,0x00,0x00,0x00,0x00,0x00,0x00,0x00,0x00,0x00,0x00,0x00,0x00,0x00,0x00,
 0x00,0x00,0x00,0x00,0x4c,0x20,0x46,0x20,0x81,0xd8,0x80,0x43,0x00,0x00,0x00,
 0x00,0x00,0x00,0x00,0x00,0x00,0x00,0x00,0x00,0x00,0x00,0x00,0x00,0x00,0x00,
 0x00,0x00,0x00,0x00,0x00,0x00,0x00,0x00,0x60,0xc8,0x21,0x46,0x20,0x81,0x18,
 0x0d,0x23,0x00,0x00,0x00,0x00,0x00,0x00,0x00,0x00,0x00,0x00,0x00,0x00,0x00,
 0x00,0x00,0x00,0x00,0x00,0x00,0x00,0x00,0x00,0x00,0x00,0x00,0x00,0x80,0x47,
 0x1e,0x86,0x1f,0x7e,0x18,0xf2,0xe0,0x0f,0x00,0x00,0x00,0x00,0x00,0x00,0x00,
 0x00,0x00,0x00,0x00,0x00,0x00,0x00,0x00,0x00,0x00,0x00,0x00,0x00,0x00,0x00,
 0x00,0x00,0x00,0x80,0x47,0x1e,0x86,0x1f,0x7e,0x18,0xf2,0xe0,0x0f,0x00,0x00,
 0x00,0x00,0x00,0x00,0x00,0x00,0x00,0x00,0x00,0x00};
