106 0 1 0           
body $-1 $1 $-1 $-1 #
lump $-1 $-1 $2 $0 #
shell $-1 $-1 $-1 $3 $1 #
face $-1 $4 $5 $2 $-1 $6 forward single #
face $-1 $7 $8 $2 $-1 $9 forward single #
loop $-1 $-1 $10 $3 #
plane-surface $-1 5 -15 10 0 0 1 1 0 0 0 I I I I #
face $-1 $11 $12 $2 $-1 $13 forward single #
loop $-1 $-1 $14 $4 #
plane-surface $-1 5 -20 15 0 1 0 0 0 1 0 I I I I #
coedge $-1 $15 $16 $17 $18 1 $5 $-1 #
face $-1 $19 $20 $2 $-1 $21 forward single #
loop $-1 $-1 $22 $7 #
plane-surface $-1 5 -10 15 0 -1 0 0 0 -1 0 I I I I #
coedge $-1 $23 $24 $25 $26 1 $8 $-1 #
coedge $-1 $27 $10 $28 $29 1 $5 $-1 #
coedge $-1 $10 $27 $24 $30 1 $5 $-1 #
coedge $-1 $31 $32 $10 $18 0 $33 $-1 #
edge $-1 $34 $35 $17 $36 0 #
face $-1 $37 $38 $2 $-1 $39 forward single #
loop $-1 $-1 $25 $11 #
plane-surface $-1 0 -15 0 -1 0 0 0 0 1 0 I I I I #
coedge $-1 $40 $28 $32 $41 1 $12 $-1 #
coedge $-1 $42 $14 $43 $44 1 $8 $-1 #
coedge $-1 $14 $42 $16 $30 0 $8 $-1 #
coedge $-1 $45 $46 $14 $26 0 $20 $-1 #
edge $-1 $47 $48 $25 $49 0 #
coedge $-1 $16 $15 $45 $50 1 $5 $-1 #
coedge $-1 $22 $51 $15 $29 0 $12 $-1 #
edge $-1 $52 $34 $28 $53 0 #
edge $-1 $35 $48 $24 $54 0 #
coedge $-1 $55 $17 $42 $56 0 $33 $-1 #
coedge $-1 $17 $57 $22 $41 0 $33 $-1 #
loop $-1 $-1 $31 $58 #
vertex $-1 $18 $59 #
vertex $-1 $18 $60 #
straight-curve $-1 10 -7.5 10 0 -1 0 I I #
face $-1 $61 $62 $2 $-1 $63 forward single #
loop $-1 $-1 $64 $19 #
plane-surface $-1 -15 -30 0 0 1 0 0 0 1 0 I I I I #
coedge $-1 $51 $22 $65 $66 1 $12 $-1 #
edge $-1 $67 $34 $32 $68 0 #
coedge $-1 $24 $23 $31 $56 1 $8 $-1 #
coedge $-1 $69 $70 $23 $44 0 $71 $-1 #
edge $-1 $72 $47 $43 $73 0 #
coedge $-1 $74 $25 $27 $50 0 $20 $-1 #
coedge $-1 $25 $75 $69 $76 1 $20 $-1 #
vertex $-1 $44 $77 #
vertex $-1 $50 $78 #
straight-curve $-1 0 -20 7.5 0 0 -1 I I #
edge $-1 $48 $52 $45 $79 0 #
coedge $-1 $28 $40 $74 $80 1 $12 $-1 #
vertex $-1 $50 $81 #
straight-curve $-1 5 -10 10 1 0 0 I I #
straight-curve $-1 5 -20 10 -1 0 0 I I #
coedge $-1 $82 $31 $70 $83 1 $33 $-1 #
edge $-1 $35 $72 $31 $84 0 #
coedge $-1 $32 $85 $86 $87 1 $33 $-1 #
face $-1 $88 $33 $2 $-1 $89 forward single #
point $-1 10 -10 10 #
point $-1 10 -20 10 #
face $-1 $90 $91 $2 $-1 $92 forward single #
loop $-1 $-1 $93 $37 #
plane-surface $-1 -30 -15 0 1 0 0 0 0 -1 0 I I I I #
coedge $-1 $94 $95 $96 $97 1 $38 $-1 #
coedge $-1 $86 $98 $40 $66 0 $71 $-1 #
edge $-1 $99 $67 $65 $100 0 #
vertex $-1 $41 $101 #
straight-curve $-1 10 -10 7.5 0 0 -1 I I #
coedge $-1 $102 $43 $46 $76 0 $71 $-1 #
coedge $-1 $43 $103 $55 $83 0 $71 $-1 #
loop $-1 $104 $43 $105 #
vertex $-1 $83 $106 #
straight-curve $-1 2.5 -20 20 -1 0 0 I I #
coedge $-1 $107 $45 $51 $80 0 $20 $-1 #
coedge $-1 $46 $108 $109 $110 1 $20 $-1 #
edge $-1 $47 $111 $69 $112 0 #
point $-1 0 -20 20 #
point $-1 0 -20 10 #
straight-curve $-1 0 -15 10 0 1 0 I I #
edge $-1 $52 $99 $74 $113 0 #
point $-1 0 -10 10 #
coedge $-1 $114 $55 $115 $116 0 $33 $-1 #
edge $-1 $117 $72 $70 $118 0 #
straight-curve $-1 10 -20 7.5 0 0 1 I I #
coedge $-1 $57 $114 $119 $120 0 $33 $-1 #
coedge $-1 $121 $65 $57 $87 0 $71 $-1 #
edge $-1 $67 $122 $86 $118 0 #
face $-1 $105 $123 $2 $-1 $124 forward single #
plane-surface $-1 10 0 0 1 0 0 0 0 -1 0 I I I I #
face $-1 $125 $126 $2 $-1 $127 forward single #
loop $-1 $-1 $128 $61 #
plane-surface $-1 -15 0 0 0 -1 0 0 0 -1 0 I I I I #
coedge $-1 $129 $130 $131 $132 1 $62 $-1 #
coedge $-1 $109 $64 $102 $133 1 $38 $-1 #
coedge $-1 $64 $109 $134 $135 1 $38 $-1 #
coedge $-1 $130 $129 $64 $97 0 $62 $-1 #
edge $-1 $136 $137 $96 $138 0 #
coedge $-1 $65 $139 $107 $140 0 $71 $-1 #
vertex $-1 $140 $141 #
straight-curve $-1 2.5 -10 20 1 0 0 I I #
point $-1 10 -10 20 #
coedge $-1 $142 $69 $94 $133 0 $71 $-1 #
coedge $-1 $70 $143 $144 $145 0 $71 $-1 #
loop $-1 $-1 $146 $105 #
face $-1 $147 $71 $2 $-1 $148 forward single #
point $-1 10 -20 20 #
coedge $-1 $149 $74 $98 $140 1 $20 $-1 #
coedge $-1 $75 $149 $150 $151 1 $20 $-1 #
coedge $-1 $95 $94 $75 $110 0 $38 $-1 #
edge $-1 $111 $152 $75 $153 0 #
vertex $-1 $133 $154 #
straight-curve $-1 0 -7.5 20 0 -1 0 I I #
straight-curve $-1 0 -10 7.5 0 0 1 I I #
coedge $-1 $85 $82 $155 $156 1 $33 $-1 #
coedge $-1 $144 $157 $82 $116 1 $158 $-1 #
edge $-1 $117 $159 $82 $160 0 #
vertex $-1 $145 $161 #
straight-curve $-1 10 0 20 0 1 0 I I #
coedge $-1 $162 $163 $85 $120 1 $126 $-1 #
edge $-1 $164 $122 $85 $165 0 #
coedge $-1 $166 $86 $163 $167 0 $71 $-1 #
vertex $-1 $87 $168 #
loop $-1 $-1 $169 $88 #
plane-surface $-1 20 30 0 0 -1 0 0 0 -1 0 I I I I #
face $-1 $170 $171 $2 $-1 $172 forward single #
loop $-1 $-1 $119 $90 #
plane-surface $-1 0 10 0 0 1 0 0 0 1 0 I I I I #
coedge $-1 $173 $174 $149 $175 1 $91 $-1 #
coedge $-1 $96 $93 $142 $176 1 $62 $-1 #
coedge $-1 $93 $96 $177 $178 1 $62 $-1 #
coedge $-1 $174 $173 $93 $132 0 $91 $-1 #
edge $-1 $179 $180 $131 $181 0 #
edge $-1 $111 $136 $102 $182 0 #
coedge $-1 $150 $177 $95 $135 0 $183 $-1 #
edge $-1 $137 $152 $134 $184 0 #
vertex $-1 $133 $185 #
vertex $-1 $135 $186 #
straight-curve $-1 -30 -30 0 0 0 -1 I I #
coedge $-1 $98 $142 $173 $187 0 $71 $-1 #
edge $-1 $188 $99 $98 $112 0 #
point $-1 0 -10 20 #
coedge $-1 $139 $102 $129 $176 0 $71 $-1 #
coedge $-1 $103 $189 $190 $191 0 $71 $-1 #
coedge $-1 $192 $115 $103 $145 1 $158 $-1 #
edge $-1 $193 $117 $103 $194 0 #
coedge $-1 $195 $196 $197 $198 0 $104 $-1 #
face $-1 $199 $183 $2 $-1 $200 reversed single #
plane-surface $-1 0 0 20 0 0 1 1 0 0 0 I I I I #
coedge $-1 $108 $107 $128 $175 0 $20 $-1 #
coedge $-1 $201 $134 $108 $151 0 $183 $-1 #
edge $-1 $152 $202 $150 $203 0 #
vertex $-1 $135 $204 #
straight-curve $-1 0 -30 0 0 0 -1 I I #
point $-1 0 -30 20 #
coedge $-1 $205 $206 $114 $156 0 $207 $-1 #
edge $-1 $164 $159 $155 $208 0 #
coedge $-1 $115 $192 $205 $209 1 $158 $-1 #
loop $-1 $-1 $115 $210 #
vertex $-1 $209 $211 #
straight-curve $-1 10 -30 0 0 0 -1 I I #
point $-1 10 -30 20 #
coedge $-1 $212 $119 $206 $213 1 $126 $-1 #
coedge $-1 $119 $212 $121 $167 1 $126 $-1 #
vertex $-1 $213 $214 #
straight-curve $-1 10 10 0 0 0 1 I I #
coedge $-1 $189 $121 $215 $216 0 $71 $-1 #
edge $-1 $122 $217 $121 $218 0 #
point $-1 10 10 20 #
coedge $-1 $219 $220 $221 $222 0 $123 $-1 #
face $-1 $210 $223 $2 $-1 $224 forward single #
loop $-1 $-1 $225 $125 #
plane-surface $-1 -30 20 0 1 0 0 0 0 -1 0 I I I I #
coedge $-1 $131 $128 $139 $187 1 $91 $-1 #
coedge $-1 $128 $131 $201 $226 1 $91 $-1 #
edge $-1 $188 $202 $149 $227 0 #
edge $-1 $136 $179 $142 $228 0 #
coedge $-1 $134 $201 $130 $178 0 $183 $-1 #
edge $-1 $180 $137 $177 $229 0 #
vertex $-1 $176 $230 #
vertex $-1 $178 $231 #
straight-curve $-1 -30 0 0 0 0 -1 I I #
straight-curve $-1 -7.5 -30 20 -1 0 0 I I #
loop $-1 $207 $134 $147 #
straight-curve $-1 -7.5 -30 -20 1 0 0 I I #
point $-1 -30 -30 20 #
point $-1 -30 -30 -20 #
edge $-1 $179 $188 $139 $232 0 #
vertex $-1 $187 $233 #
coedge $-1 $143 $166 $219 $234 0 $71 $-1 #
coedge $-1 $221 $235 $143 $191 1 $223 $-1 #
edge $-1 $236 $193 $143 $237 0 #
coedge $-1 $157 $144 $235 $238 0 $158 $-1 #
vertex $-1 $145 $239 #
straight-curve $-1 10 -30 20 -1 0 0 I I #
coedge $-1 $240 $146 $241 $242 0 $104 $-1 #
coedge $-1 $146 $240 $243 $244 0 $104 $-1 #
coedge $-1 $245 $246 $146 $198 1 $247 $-1 #
edge $-1 $248 $249 $197 $250 0 #
face $-1 $251 $252 $2 $-1 $253 reversed single #
plane-surface $-1 0 0 -20 0 0 1 1 0 0 0 I I I I #
coedge $-1 $177 $150 $174 $226 0 $183 $-1 #
vertex $-1 $226 $254 #
straight-curve $-1 0 -7.5 -20 0 1 0 I I #
point $-1 0 -30 -20 #
coedge $-1 $255 $155 $157 $209 0 $207 $-1 #
coedge $-1 $155 $256 $162 $213 0 $207 $-1 #
loop $-1 $257 $206 $147 #
straight-curve $-1 10 0 -20 0 -1 0 I I #
edge $-1 $159 $258 $205 $259 0 #
face $-1 $58 $158 $2 $-1 $260 forward single #
point $-1 10 -30 -20 #
coedge $-1 $163 $162 $261 $262 1 $126 $-1 #
edge $-1 $263 $164 $206 $264 0 #
point $-1 10 10 -20 #
coedge $-1 $261 $225 $166 $216 1 $171 $-1 #
edge $-1 $217 $265 $166 $266 0 #
vertex $-1 $167 $267 #
straight-curve $-1 0 10 20 -1 0 0 I I #
coedge $-1 $268 $169 $189 $234 1 $123 $-1 #
coedge $-1 $169 $268 $269 $270 1 $123 $-1 #
coedge $-1 $271 $190 $169 $222 1 $223 $-1 #
edge $-1 $272 $236 $221 $273 1 #
loop $-1 $-1 $271 $170 #
plane-surface $-1 30 0 0 -1 0 0 0 0 1 0 I I I I #
coedge $-1 $215 $274 $268 $275 1 $171 $-1 #
edge $-1 $202 $180 $201 $276 0 #
straight-curve $-1 0 0 0 0 0 -1 I I #
straight-curve $-1 -30 -7.5 20 0 1 0 I I #
straight-curve $-1 -30 -7.5 -20 0 -1 0 I I #
point $-1 -30 0 20 #
point $-1 -30 0 -20 #
straight-curve $-1 -7.5 0 20 1 0 0 I I #
point $-1 0 0 20 #
edge $-1 $265 $236 $189 $277 0 #
coedge $-1 $190 $271 $192 $238 1 $223 $-1 #
vertex $-1 $234 $278 #
straight-curve $-1 30 0 20 0 -1 0 I I #
edge $-1 $193 $258 $235 $279 0 #
point $-1 30 -30 20 #
coedge $-1 $196 $195 $280 $281 0 $104 $-1 #
coedge $-1 $282 $283 $195 $242 1 $284 $-1 #
edge $-1 $249 $285 $241 $286 0 #
coedge $-1 $287 $288 $196 $244 1 $252 $-1 #
edge $-1 $289 $248 $243 $290 0 #
coedge $-1 $291 $197 $288 $292 0 $247 $-1 #
coedge $-1 $197 $291 $282 $293 1 $247 $-1 #
loop $-1 $-1 $245 $294 #
vertex $-1 $198 $295 #
vertex $-1 $198 $296 #
straight-curve $-1 40 0 20 0 1 0 I I #
face $-1 $297 $298 $2 $-1 $299 reversed single #
loop $-1 $-1 $287 $199 #
plane-surface $-1 0 -40 0 0 1 0 0 0 1 0 I I I I #
point $-1 0 0 -20 #
coedge $-1 $269 $205 $271 $300 0 $207 $-1 #
coedge $-1 $206 $269 $274 $301 0 $207 $-1 #
loop $-1 $-1 $302 $147 #
vertex $-1 $209 $303 #
straight-curve $-1 10 -30 -20 1 0 0 I I #
plane-surface $-1 20 -30 0 0 1 0 0 0 1 0 I I I I #
coedge $-1 $274 $215 $212 $262 0 $171 $-1 #
edge $-1 $217 $263 $261 $304 0 #
vertex $-1 $213 $305 #
straight-curve $-1 0 10 -20 1 0 0 I I #
vertex $-1 $216 $306 #
straight-curve $-1 -30 10 20 0 1 0 I I #
point $-1 -30 10 20 #
coedge $-1 $220 $219 $225 $275 0 $123 $-1 #
coedge $-1 $256 $255 $220 $270 0 $207 $-1 #
edge $-1 $272 $307 $269 $308 0 #
coedge $-1 $235 $221 $255 $300 1 $223 $-1 #
vertex $-1 $270 $309 #
straight-curve $-1 30 30 0 0 0 -1 I I #
coedge $-1 $225 $261 $256 $301 1 $171 $-1 #
edge $-1 $265 $307 $268 $310 0 #
straight-curve $-1 -7.5 0 -20 -1 0 0 I I #
straight-curve $-1 0 30 20 1 0 0 I I #
point $-1 30 30 20 #
straight-curve $-1 30 -30 0 0 0 -1 I I #
coedge $-1 $311 $312 $240 $281 1 $298 $-1 #
edge $-1 $285 $289 $280 $313 0 #
coedge $-1 $314 $241 $246 $293 0 $284 $-1 #
coedge $-1 $241 $314 $311 $315 1 $284 $-1 #
loop $-1 $-1 $282 $297 #
vertex $-1 $242 $316 #
straight-curve $-1 0 40 20 -1 0 0 I I #
coedge $-1 $317 $243 $312 $318 0 $252 $-1 #
coedge $-1 $243 $317 $245 $292 1 $252 $-1 #
vertex $-1 $281 $319 #
straight-curve $-1 0 -40 20 1 0 0 I I #
coedge $-1 $246 $245 $302 $320 1 $247 $-1 #
edge $-1 $248 $321 $245 $322 0 #
edge $-1 $249 $323 $246 $324 0 #
face $-1 $-1 $247 $2 $-1 $325 reversed single #
point $-1 40 -40 20 #
point $-1 40 40 20 #
face $-1 $294 $284 $2 $-1 $326 reversed single #
loop $-1 $-1 $311 $251 #
plane-surface $-1 -40 0 0 1 0 0 0 0 -1 0 I I I I #
edge $-1 $258 $272 $255 $327 0 #
edge $-1 $307 $263 $256 $328 0 #
coedge $-1 $329 $330 $291 $320 0 $257 $-1 #
point $-1 30 -30 -20 #
straight-curve $-1 -30 10 0 0 0 -1 I I #
point $-1 -30 10 -20 #
point $-1 -30 30 20 #
vertex $-1 $301 $331 #
straight-curve $-1 0 30 -20 -1 0 0 I I #
point $-1 30 30 -20 #
straight-curve $-1 -30 30 0 0 0 -1 I I #
coedge $-1 $332 $280 $283 $315 0 $298 $-1 #
coedge $-1 $280 $332 $287 $318 1 $298 $-1 #
straight-curve $-1 -40 0 20 0 -1 0 I I #
coedge $-1 $283 $282 $330 $333 1 $284 $-1 #
edge $-1 $285 $334 $283 $335 0 #
point $-1 -40 40 20 #
coedge $-1 $288 $287 $329 $336 1 $252 $-1 #
edge $-1 $289 $337 $312 $338 0 #
point $-1 -40 -40 20 #
edge $-1 $323 $321 $291 $339 0 #
vertex $-1 $292 $340 #
straight-curve $-1 40 -40 0 0 0 -1 I I #
vertex $-1 $320 $341 #
straight-curve $-1 40 40 0 0 0 -1 I I #
plane-surface $-1 40 0 0 -1 0 0 0 0 1 0 I I I I #
plane-surface $-1 0 40 0 0 -1 0 0 0 -1 0 I I I I #
straight-curve $-1 30 0 -20 0 1 0 I I #
straight-curve $-1 -30 10 -20 0 -1 0 I I #
coedge $-1 $342 $302 $317 $336 0 $257 $-1 #
coedge $-1 $302 $342 $314 $333 0 $257 $-1 #
point $-1 -30 30 -20 #
coedge $-1 $312 $311 $342 $343 1 $298 $-1 #
edge $-1 $334 $323 $314 $344 0 #
vertex $-1 $333 $345 #
straight-curve $-1 -40 40 0 0 0 -1 I I #
edge $-1 $321 $337 $317 $346 0 #
vertex $-1 $343 $347 #
straight-curve $-1 -40 -40 0 0 0 -1 I I #
straight-curve $-1 40 0 -20 0 -1 0 I I #
point $-1 40 -40 -20 #
point $-1 40 40 -20 #
coedge $-1 $330 $329 $332 $343 0 $257 $-1 #
edge $-1 $337 $334 $332 $348 0 #
straight-curve $-1 0 40 -20 1 0 0 I I #
point $-1 -40 40 -20 #
straight-curve $-1 0 -40 -20 -1 0 0 I I #
point $-1 -40 -40 -20 #
straight-curve $-1 -40 0 -20 0 1 0 I I #
End-of-ACIS-data 