600 0 2 0           
24 FBMach with ACIS - 6.0.3 13 ACIS 6.0.3 NT 24 Wed May 23 20:18:56 2001 
1 9.9999999999999995e-007 1e-010 
body $2 $3 $-1 $4 #
bdycol-kcp $-1 1 4 $5 $6 $7 $8 #
model_id-kcp-attrib $-1 $-1 $-1 $0 1 990663535 60 1899757569 1 #
lump $-1 $-1 $9 $0 #
transform $-1 1 0 0 0 1 0 0 0 1 0 0 0 1 no_rotate no_reflect no_shear #
body $10 $11 $-1 $12 #
body $13 $14 $-1 $15 #
body $16 $17 $-1 $18 #
body $19 $20 $-1 $21 #
shell $-1 $-1 $-1 $22 $-1 $3 #
model_id-kcp-attrib $-1 $-1 $-1 $5 1 990663535 60 1899757570 1 #
lump $-1 $-1 $23 $5 #
transform $-1 1 0 0 0 1 0 0 0 1 0 0 0 1 no_rotate no_reflect no_shear #
rgb_color-st-attrib $-1 $24 $-1 $6 0.5 1 1 #
lump $-1 $-1 $25 $6 #
transform $-1 1 0 0 0 1 0 0 0 1 0 0 0 1 no_rotate no_reflect no_shear #
rgb_color-st-attrib $-1 $26 $-1 $7 0.5 1 1 #
lump $-1 $-1 $27 $7 #
transform $-1 1 0 0 0 1 0 0 0 1 0 0 0 1 no_rotate no_reflect no_shear #
rgb_color-st-attrib $-1 $28 $-1 $8 1 0 0 #
lump $-1 $-1 $29 $8 #
transform $-1 1 0 0 0 1 0 0 0 1 5 -15 130 1 no_rotate no_reflect no_shear #
face $30 $31 $32 $9 $-1 $33 forward single #
shell $-1 $-1 $-1 $34 $-1 $11 #
model_id-kcp-attrib $-1 $-1 $13 $6 1 990663535 220 1910243331 1 #
shell $-1 $-1 $-1 $35 $-1 $14 #
model_id-kcp-attrib $-1 $-1 $16 $7 1 990663535 250 1912209412 1 #
shell $-1 $-1 $-1 $36 $-1 $17 #
model_id-kcp-attrib $-1 $-1 $19 $8 1 990663535 340 1901330437 1 #
shell $-1 $-1 $-1 $37 $-1 $20 #
model_id-kcp-attrib $-1 $-1 $-1 $22 1 990663535 60 1899757569 2 #
face $38 $39 $40 $9 $-1 $41 forward single #
loop $-1 $-1 $42 $22 #
plane-surface $-1 5 -15 10 0 0 1 1 0 0 forward_v I I I I #
face $43 $44 $45 $23 $-1 $46 forward single #
face $-1 $47 $48 $25 $-1 $49 forward single #
face $-1 $50 $51 $27 $-1 $52 forward single #
face $-1 $53 $54 $29 $-1 $55 reversed single #
model_id-kcp-attrib $-1 $-1 $-1 $31 1 990663535 60 1899757569 3 #
face $56 $57 $58 $9 $-1 $59 forward single #
loop $-1 $-1 $60 $31 #
plane-surface $-1 5 -20 15 0 1 0 0 0 1 forward_v I I I I #
coedge $-1 $61 $62 $63 $64 reversed $32 $-1 #
model_id-kcp-attrib $-1 $-1 $-1 $34 1 990663535 60 1899757570 2 #
face $65 $66 $67 $23 $-1 $68 reversed single #
loop $-1 $-1 $69 $34 #
plane-surface $-1 0 0 20 0 0 1 1 0 0 forward_v I I I I #
face $-1 $70 $71 $25 $-1 $72 forward single #
loop $-1 $-1 $73 $35 #
plane-surface $-1 -30 -30 -20 -1 0 0 0 0 1 forward_v I I I I #
face $-1 $74 $75 $27 $-1 $76 forward single #
loop $-1 $-1 $77 $36 #
plane-surface $-1 -30 10 -20 -1 0 0 0 0 1 forward_v I I I I #
face $-1 $78 $79 $29 $-1 $80 reversed single #
loop $-1 $-1 $81 $37 #
plane-surface $-1 0 -5 -115 0 1 0 0 0 1 forward_v I I I I #
model_id-kcp-attrib $-1 $-1 $-1 $39 1 990663535 60 1899757569 4 #
face $82 $83 $84 $9 $-1 $85 forward single #
loop $-1 $-1 $86 $39 #
plane-surface $-1 5 -10 15 0 -1 0 0 0 -1 forward_v I I I I #
coedge $-1 $87 $88 $89 $90 reversed $40 $-1 #
coedge $-1 $91 $42 $92 $93 reversed $32 $-1 #
coedge $-1 $42 $91 $88 $94 reversed $32 $-1 #
coedge $-1 $95 $96 $42 $64 forward $97 $-1 #
edge $-1 $98 2.5 $99 12.5 $63 $100 forward 7 unknown #
model_id-kcp-attrib $-1 $-1 $-1 $44 1 990663535 60 1899757570 3 #
face $101 $102 $103 $23 $-1 $104 reversed single #
loop $-1 $-1 $105 $44 #
plane-surface $-1 0 0 -20 0 0 1 1 0 0 forward_v I I I I #
coedge $-1 $106 $107 $108 $109 forward $45 $-1 #
face $-1 $110 $111 $25 $-1 $112 forward single #
loop $-1 $-1 $113 $47 #
plane-surface $-1 -30 0 -20 0 1 0 0 0 1 forward_v I I I I #
coedge $-1 $114 $115 $116 $117 forward $48 $-1 #
face $-1 $118 $119 $27 $-1 $120 forward single #
loop $-1 $-1 $121 $50 #
plane-surface $-1 -30 30 -20 0 1 0 0 0 1 forward_v I I I I #
coedge $-1 $122 $123 $124 $125 forward $51 $-1 #
face $-1 $126 $127 $29 $-1 $128 forward single #
loop $-1 $-1 $129 $53 #
plane-surface $-1 0 5 -115 0 -1 0 0 0 -1 forward_v I I I I #
coedge $-1 $130 $131 $132 $133 forward $54 $-1 #
model_id-kcp-attrib $-1 $-1 $-1 $57 1 990663535 60 1899757569 5 #
face $134 $135 $136 $9 $-1 $137 forward single #
loop $-1 $-1 $89 $57 #
plane-surface $-1 0 -15 0 -1 0 0 0 0 1 forward_v I I I I #
coedge $-1 $138 $92 $96 $139 reversed $58 $-1 #
coedge $-1 $140 $60 $141 $142 reversed $40 $-1 #
coedge $-1 $60 $140 $62 $94 forward $40 $-1 #
coedge $-1 $143 $144 $60 $90 forward $84 $-1 #
edge $-1 $145 -12.5 $146 -2.5 $89 $147 forward 7 unknown #
coedge $-1 $62 $61 $143 $148 reversed $32 $-1 #
coedge $-1 $86 $149 $61 $93 forward $58 $-1 #
edge $-1 $150 -5 $98 5 $92 $151 forward 7 unknown #
edge $-1 $99 -5 $146 5 $88 $152 forward 7 unknown #
coedge $-1 $153 $63 $140 $154 forward $97 $-1 #
coedge $-1 $63 $155 $86 $139 forward $97 $-1 #
loop $-1 $-1 $95 $156 #
vertex $-1 $64 $157 #
vertex $-1 $64 $158 #
straight-curve $-1 10 -7.5 10 0 -1 0 I I #
model_id-kcp-attrib $-1 $-1 $-1 $66 1 990663535 60 1899757570 4 #
face $159 $160 $161 $23 $-1 $162 reversed single #
loop $-1 $-1 $163 $66 #
plane-surface $-1 0 -40 0 0 1 0 0 0 1 forward_v I I I I #
coedge $-1 $164 $165 $166 $167 forward $67 $-1 #
coedge $-1 $168 $69 $169 $170 forward $45 $-1 #
coedge $-1 $69 $168 $171 $172 forward $45 $-1 #
coedge $-1 $173 $174 $69 $109 reversed $175 $-1 #
edge $-1 $176 -40 $177 40 $108 $178 forward 7 unknown #
face $-1 $179 $180 $25 $-1 $181 forward single #
loop $-1 $-1 $182 $70 #
plane-surface $-1 0 0 -20 1 0 0 0 0 -1 forward_v I I I I #
coedge $-1 $183 $184 $185 $186 forward $71 $-1 #
coedge $-1 $187 $73 $184 $188 reversed $48 $-1 #
coedge $-1 $73 $187 $189 $190 forward $48 $-1 #
coedge $-1 $191 $185 $73 $117 reversed $192 $-1 #
edge $-1 $193 -22.5 $194 7.5 $73 $195 forward 7 unknown #
face $-1 $196 $197 $27 $-1 $198 forward single #
loop $-1 $-1 $199 $74 #
plane-surface $-1 30 30 -20 1 0 0 0 0 -1 forward_v I I I I #
coedge $-1 $200 $201 $202 $203 forward $75 $-1 #
coedge $-1 $204 $77 $201 $205 reversed $51 $-1 #
coedge $-1 $77 $204 $206 $207 forward $51 $-1 #
coedge $-1 $208 $202 $77 $125 reversed $209 $-1 #
edge $-1 $210 0 $211 20 $77 $212 forward 7 unknown #
face $-1 $213 $214 $29 $-1 $215 reversed single #
loop $-1 $-1 $216 $78 #
plane-surface $-1 -5 15 -110 0 0 1 1 0 0 forward_v I I I I #
coedge $-1 $217 $218 $219 $220 forward $79 $-1 #
coedge $-1 $221 $81 $222 $223 forward $54 $-1 #
coedge $-1 $81 $221 $224 $225 reversed $54 $-1 #
coedge $-1 $226 $227 $81 $133 reversed $228 $-1 #
edge $-1 $229 52.5 $230 62.5 $132 $231 forward 7 unknown #
model_id-kcp-attrib $-1 $-1 $-1 $83 1 990663535 60 1899757569 6 #
face $232 $233 $234 $9 $-1 $235 forward single #
loop $-1 $-1 $236 $83 #
plane-surface $-1 -15 -30 0 0 1 0 0 0 1 forward_v I I I I #
coedge $-1 $149 $86 $237 $238 reversed $58 $-1 #
edge $-1 $239 -12.5 $98 -2.5 $96 $240 forward 7 unknown #
coedge $-1 $88 $87 $95 $154 reversed $40 $-1 #
coedge $-1 $241 $242 $87 $142 forward $243 $-1 #
edge $244 $245 -7.5 $145 2.5 $141 $246 forward 7 unknown #
coedge $-1 $247 $89 $91 $148 forward $84 $-1 #
coedge $-1 $89 $248 $241 $249 reversed $84 $-1 #
vertex $-1 $142 $250 #
vertex $-1 $148 $251 #
straight-curve $-1 0 -20 7.5 0 0 -1 I I #
edge $-1 $146 -5 $150 5 $143 $252 forward 7 unknown #
coedge $-1 $92 $138 $247 $253 reversed $58 $-1 #
vertex $-1 $148 $254 #
straight-curve $-1 5 -10 10 1 0 0 I I #
straight-curve $-1 5 -20 10 -1 0 0 I I #
coedge $-1 $255 $95 $242 $256 reversed $97 $-1 #
edge $-1 $99 2.5 $245 12.5 $95 $257 forward 7 unknown #
coedge $-1 $96 $258 $259 $260 reversed $97 $-1 #
face $261 $262 $97 $9 $-1 $263 forward single #
point $-1 10 -10 10 #
point $-1 10 -20 10 #
model_id-kcp-attrib $-1 $-1 $-1 $102 1 990663535 60 1899757570 5 #
face $264 $265 $266 $23 $-1 $267 reversed single #
loop $-1 $-1 $268 $102 #
plane-surface $-1 -40 0 0 1 0 0 0 0 -1 forward_v I I I I #
coedge $-1 $269 $171 $270 $271 forward $103 $-1 #
coedge $-1 $272 $105 $269 $273 forward $67 $-1 #
coedge $-1 $105 $272 $274 $275 forward $67 $-1 #
coedge $-1 $174 $173 $105 $167 reversed $175 $-1 #
edge $-1 $276 -40 $277 40 $166 $278 forward 7 unknown #
coedge $-1 $107 $106 $279 $280 forward $45 $-1 #
coedge $-1 $281 $282 $106 $170 reversed $266 $-1 #
edge $-1 $177 -40 $283 40 $169 $284 forward 7 unknown #
coedge $-1 $163 $285 $107 $172 reversed $103 $-1 #
edge $-1 $286 -40 $176 40 $171 $287 forward 7 unknown #
coedge $-1 $166 $108 $285 $288 forward $175 $-1 #
coedge $-1 $108 $166 $281 $289 reversed $175 $-1 #
loop $-1 $-1 $173 $265 #
vertex $-1 $109 $290 #
vertex $-1 $109 $291 #
straight-curve $-1 40 0 20 0 1 0 I I #
face $-1 $292 $192 $25 $-1 $293 forward single #
loop $-1 $-1 $294 $110 #
plane-surface $-1 0 -30 -20 0 -1 0 0 0 -1 forward_v I I I I #
coedge $-1 $295 $296 $297 $298 forward $111 $-1 #
coedge $-1 $299 $113 $296 $300 reversed $71 $-1 #
coedge $-1 $113 $299 $114 $188 forward $71 $-1 #
coedge $-1 $116 $297 $113 $186 reversed $192 $-1 #
edge $-1 $194 -22.5 $301 7.5 $113 $302 forward 7 unknown #
coedge $-1 $115 $114 $303 $304 forward $48 $-1 #
edge $-1 $305 0 $194 40 $184 $306 forward 7 unknown #
coedge $-1 $307 $294 $115 $190 reversed $180 $-1 #
edge $-1 $308 0 $193 40 $115 $309 forward 7 unknown #
coedge $-1 $297 $116 $294 $310 reversed $192 $-1 #
loop $-1 $-1 $116 $179 #
vertex $-1 $190 $311 #
vertex $-1 $188 $312 #
straight-curve $-1 -30 -7.5 20 0 1 0 I I #
face $-1 $313 $314 $27 $-1 $315 forward single #
loop $-1 $-1 $316 $118 #
plane-surface $-1 30 -30 -20 0 -1 0 0 0 -1 forward_v I I I I #
coedge $-1 $317 $318 $319 $320 forward $119 $-1 #
coedge $-1 $321 $121 $318 $322 reversed $75 $-1 #
coedge $-1 $121 $321 $122 $205 forward $75 $-1 #
coedge $-1 $124 $319 $121 $203 reversed $209 $-1 #
edge $-1 $211 -30 $323 30 $121 $324 forward 7 unknown #
coedge $-1 $123 $122 $325 $326 forward $51 $-1 #
edge $-1 $327 0 $211 40 $201 $328 forward 7 unknown #
coedge $-1 $329 $330 $123 $207 reversed $331 $-1 #
edge $-1 $332 0 $210 40 $123 $333 forward 7 unknown #
coedge $-1 $334 $124 $330 $335 reversed $209 $-1 #
loop $-1 $-1 $124 $336 #
vertex $-1 $207 $337 #
vertex $-1 $205 $338 #
straight-curve $-1 -30 10 20 0 1 0 I I #
face $-1 $339 $228 $29 $-1 $340 reversed single #
loop $-1 $-1 $222 $126 #
plane-surface $-1 0 0 -120 0 0 1 1 0 0 forward_v I I I I #
coedge $-1 $224 $341 $226 $342 forward $127 $-1 #
coedge $-1 $343 $129 $344 $345 forward $79 $-1 #
coedge $-1 $129 $343 $341 $346 reversed $79 $-1 #
coedge $-1 $347 $348 $129 $220 reversed $349 $-1 #
edge $-1 $350 52.5 $351 62.5 $219 $352 forward 7 unknown #
coedge $-1 $131 $130 $353 $354 forward $54 $-1 #
coedge $-1 $355 $356 $130 $223 reversed $214 $-1 #
edge $357 $230 -5 $358 5 $222 $359 forward 7 unknown #
coedge $-1 $360 $216 $131 $225 forward $127 $-1 #
edge $-1 $229 -2.5 $361 7.5 $224 $362 forward 7 unknown #
coedge $-1 $363 $132 $216 $342 reversed $228 $-1 #
coedge $-1 $132 $363 $355 $364 reversed $228 $-1 #
loop $-1 $-1 $132 $213 #
vertex $-1 $133 $365 #
vertex $-1 $364 $366 #
straight-curve $-1 -5 -5 -57.5 0 0 -1 I I #
model_id-kcp-attrib $-1 $-1 $-1 $135 1 990663535 60 1899757569 7 #
face $367 $368 $369 $9 $-1 $370 forward single #
loop $-1 $-1 $371 $135 #
plane-surface $-1 -30 -15 0 1 0 0 0 0 -1 forward_v I I I I #
coedge $-1 $372 $373 $374 $375 reversed $136 $-1 #
coedge $-1 $259 $376 $138 $238 forward $243 $-1 #
edge $377 $378 -2.5 $239 7.5 $237 $379 forward 7 unknown #
vertex $-1 $139 $380 #
straight-curve $-1 10 -10 7.5 0 0 -1 I I #
coedge $-1 $381 $141 $144 $249 forward $243 $-1 #
coedge $-1 $141 $382 $153 $256 forward $243 $-1 #
loop $-1 $383 $141 $384 #
attrib_edge_convexity-kcp-attrib $-1 $385 $-1 $142 1 #
vertex $-1 $256 $386 #
straight-curve $-1 2.5 -20 20 -1 0 0 I I #
coedge $-1 $387 $143 $149 $253 forward $84 $-1 #
coedge $-1 $144 $388 $389 $390 reversed $84 $-1 #
edge $391 $145 12.5 $392 22.5 $241 $393 forward 7 unknown #
point $-1 0 -20 20 #
point $-1 0 -20 10 #
straight-curve $-1 0 -15 10 0 1 0 I I #
edge $-1 $150 2.5 $378 12.5 $247 $394 forward 7 unknown #
point $-1 0 -10 10 #
coedge $-1 $395 $153 $396 $397 forward $97 $-1 #
edge $398 $399 -30 $245 -20 $242 $400 forward 7 unknown #
straight-curve $-1 10 -20 7.5 0 0 1 I I #
coedge $-1 $155 $395 $401 $402 forward $97 $-1 #
coedge $-1 $403 $237 $155 $260 forward $243 $-1 #
edge $404 $239 -10 $405 10 $259 $400 forward 7 unknown #
model_id-kcp-attrib $-1 $-1 $-1 $156 1 990663535 60 1899757569 13 #
face $406 $384 $407 $9 $-1 $408 forward single #
plane-surface $-1 10 0 0 1 0 0 0 0 -1 forward_v I I I I #
model_id-kcp-attrib $-1 $-1 $-1 $160 1 990663535 60 1899757570 6 #
face $409 $-1 $175 $23 $-1 $410 reversed single #
loop $-1 $-1 $281 $160 #
plane-surface $-1 0 40 0 0 -1 0 0 0 -1 forward_v I I I I #
coedge $-1 $411 $279 $282 $412 forward $161 $-1 #
coedge $-1 $285 $163 $164 $273 reversed $103 $-1 #
coedge $-1 $279 $411 $163 $271 reversed $161 $-1 #
edge $-1 $286 -20 $413 20 $270 $414 forward 7 unknown #
coedge $-1 $165 $164 $411 $415 forward $67 $-1 #
edge $-1 $277 -40 $413 40 $269 $416 forward 7 unknown #
coedge $-1 $282 $281 $165 $275 reversed $266 $-1 #
edge $-1 $417 -40 $276 40 $274 $418 forward 7 unknown #
vertex $-1 $167 $419 #
vertex $-1 $288 $420 #
straight-curve $-1 40 0 -20 0 -1 0 I I #
coedge $-1 $268 $270 $168 $280 reversed $161 $-1 #
edge $-1 $283 -40 $286 40 $279 $421 forward 7 unknown #
coedge $-1 $274 $169 $174 $289 forward $266 $-1 #
coedge $-1 $169 $274 $268 $412 reversed $266 $-1 #
vertex $-1 $170 $422 #
straight-curve $-1 0 40 20 -1 0 0 I I #
coedge $-1 $171 $269 $173 $288 reversed $103 $-1 #
vertex $-1 $280 $423 #
straight-curve $-1 0 -40 20 1 0 0 I I #
edge $-1 $176 -20 $277 20 $173 $424 forward 7 unknown #
edge $-1 $177 -20 $276 20 $174 $425 forward 7 unknown #
point $-1 40 -40 20 #
point $-1 40 40 20 #
face $-1 $-1 $426 $25 $-1 $427 reversed single #
plane-surface $-1 -15 -15 20 0 0 1 1 0 0 forward_v I I I I #
coedge $-1 $189 $428 $191 $310 forward $180 $-1 #
coedge $-1 $429 $182 $428 $430 reversed $111 $-1 #
coedge $-1 $182 $429 $183 $300 forward $111 $-1 #
coedge $-1 $185 $191 $182 $298 reversed $192 $-1 #
edge $-1 $301 -7.5 $431 22.5 $182 $432 forward 7 unknown #
coedge $-1 $184 $183 $433 $434 forward $71 $-1 #
edge $-1 $435 0 $301 40 $296 $436 forward 7 unknown #
vertex $-1 $300 $437 #
straight-curve $-1 -7.5 0 20 1 0 0 I I #
coedge $-1 $433 $438 $187 $304 reversed $426 $-1 #
edge $-1 $305 -7.5 $308 22.5 $187 $439 forward 7 unknown #
vertex $-1 $434 $440 #
straight-curve $-1 -30 0 -20 0 0 1 I I #
coedge $-1 $428 $189 $438 $441 forward $180 $-1 #
vertex $-1 $441 $442 #
straight-curve $-1 -30 -30 -20 0 0 1 I I #
edge $-1 $431 -7.5 $193 22.5 $294 $443 forward 7 unknown #
point $-1 -30 -30 20 #
point $-1 -30 0 20 #
face $-1 $336 $331 $27 $-1 $444 forward single #
loop $-1 $-1 $445 $196 #
plane-surface $-1 10 -30 -20 -1 0 0 0 0 1 forward_v I I I I #
coedge $-1 $446 $447 $448 $449 forward $197 $-1 #
coedge $-1 $450 $199 $447 $451 reversed $119 $-1 #
coedge $-1 $199 $450 $200 $322 forward $119 $-1 #
coedge $-1 $202 $448 $199 $320 reversed $209 $-1 #
edge $-1 $323 -30 $452 30 $199 $453 forward 7 unknown #
coedge $-1 $201 $200 $454 $455 forward $75 $-1 #
edge $-1 $456 0 $323 40 $318 $457 forward 7 unknown #
vertex $-1 $322 $458 #
straight-curve $-1 0 30 20 1 0 0 I I #
coedge $-1 $454 $459 $204 $326 reversed $460 $-1 #
edge $-1 $327 -20 $332 0 $204 $461 forward 7 unknown #
vertex $-1 $455 $462 #
straight-curve $-1 -30 30 -20 0 0 1 I I #
coedge $-1 $463 $206 $459 $464 forward $331 $-1 #
coedge $-1 $206 $463 $208 $335 forward $331 $-1 #
loop $-1 $-1 $330 $313 #
vertex $-1 $464 $465 #
straight-curve $-1 -30 10 -20 0 0 1 I I #
coedge $-1 $448 $208 $445 $466 reversed $209 $-1 #
edge $-1 $467 -10 $210 30 $330 $468 forward 7 unknown #
face $-1 $469 $209 $27 $-1 $470 forward single #
point $-1 -30 10 20 #
point $-1 -30 30 20 #
face $-1 $-1 $349 $29 $-1 $471 reversed single #
plane-surface $-1 -5 0 0 1 0 0 0 0 -1 forward_v I I I I #
coedge $-1 $216 $360 $218 $346 forward $127 $-1 #
edge $-1 $472 2.5 $229 12.5 $226 $473 forward 7 unknown #
coedge $-1 $218 $217 $363 $474 forward $79 $-1 #
coedge $-1 $356 $355 $217 $345 reversed $214 $-1 #
edge $475 $351 -5 $476 5 $344 $477 forward 7 unknown #
edge $-1 $350 -7.5 $472 2.5 $341 $478 forward 7 unknown #
coedge $-1 $353 $219 $360 $479 reversed $349 $-1 #
coedge $-1 $219 $353 $356 $480 reversed $349 $-1 #
loop $-1 $-1 $353 $339 #
vertex $-1 $220 $481 #
vertex $-1 $480 $482 #
straight-curve $-1 5 5 -57.5 0 0 -1 I I #
coedge $-1 $348 $347 $221 $354 reversed $349 $-1 #
edge $-1 $358 -62.5 $361 -52.5 $353 $483 forward 7 unknown #
coedge $-1 $344 $222 $227 $364 forward $214 $-1 #
coedge $-1 $222 $344 $348 $480 forward $214 $-1 #
convexity-sys-attrib $-1 $-1 $-1 $223 #
vertex $-1 $223 $484 #
straight-curve $-1 0 -5 -120 1 0 0 I I #
coedge $-1 $341 $224 $347 $479 forward $127 $-1 #
vertex $-1 $354 $485 #
straight-curve $-1 -2.5 -5 -110 1 0 0 I I #
coedge $-1 $227 $226 $343 $474 reversed $228 $-1 #
edge $486 $230 -5 $476 5 $227 $487 forward 7 unknown #
point $-1 -5 -5 -110 #
point $-1 -5 -5 -120 #
model_id-kcp-attrib $-1 $-1 $-1 $233 1 990663535 60 1899757569 8 #
face $488 $489 $490 $9 $-1 $491 forward single #
loop $-1 $-1 $492 $233 #
plane-surface $-1 -15 0 0 0 -1 0 0 0 -1 forward_v I I I I #
coedge $-1 $493 $494 $495 $496 reversed $234 $-1 #
coedge $-1 $389 $236 $381 $497 reversed $136 $-1 #
coedge $-1 $236 $389 $498 $499 reversed $136 $-1 #
coedge $-1 $494 $493 $236 $375 forward $234 $-1 #
edge $-1 $500 -20 $501 20 $374 $502 forward 7 unknown #
coedge $-1 $237 $503 $387 $504 forward $243 $-1 #
attrib_edge_convexity-kcp-attrib $-1 $505 $-1 $238 1 #
vertex $-1 $504 $506 #
straight-curve $-1 2.5 -10 20 1 0 0 I I #
point $-1 10 -10 20 #
coedge $-1 $507 $241 $372 $497 forward $243 $-1 #
coedge $-1 $242 $508 $509 $510 forward $243 $-1 #
loop $-1 $-1 $511 $384 #
face $512 $513 $243 $9 $-1 $514 forward single #
convexity-sys-attrib $-1 $-1 $244 $142 #
point $-1 10 -20 20 #
coedge $-1 $515 $247 $376 $504 reversed $84 $-1 #
coedge $-1 $248 $515 $516 $517 reversed $84 $-1 #
coedge $-1 $373 $372 $248 $390 forward $136 $-1 #
edge $-1 $392 -20 $518 20 $248 $519 forward 7 unknown #
attrib_edge_convexity-kcp-attrib $-1 $520 $-1 $249 1 #
vertex $-1 $497 $521 #
straight-curve $-1 0 -7.5 20 0 -1 0 I I #
straight-curve $-1 0 -10 7.5 0 0 1 I I #
coedge $-1 $258 $255 $522 $523 reversed $97 $-1 #
coedge $-1 $509 $524 $255 $397 reversed $525 $-1 #
edge $-1 $399 -20 $526 20 $255 $527 forward 7 unknown #
attrib_edge_convexity-kcp-attrib $-1 $528 $-1 $256 1 #
vertex $-1 $510 $529 #
straight-curve $-1 10 0 20 0 1 0 I I #
coedge $-1 $530 $531 $258 $402 reversed $490 $-1 #
edge $-1 $532 -20 $405 20 $258 $533 forward 7 unknown #
coedge $-1 $534 $259 $531 $535 forward $243 $-1 #
attrib_edge_convexity-kcp-attrib $-1 $536 $-1 $260 1 #
vertex $-1 $260 $537 #
model_id-kcp-attrib $-1 $-1 $-1 $262 1 990663535 60 1899757569 14 #
loop $-1 $-1 $538 $262 #
plane-surface $-1 20 30 0 0 -1 0 0 0 -1 forward_v I I I I #
model_id-kcp-attrib $-1 $-1 $-1 $265 1 990663535 60 1899757570 7 #
plane-surface $-1 40 0 0 -1 0 0 0 0 1 forward_v I I I I #
coedge $-1 $270 $268 $272 $415 reversed $161 $-1 #
edge $-1 $283 -20 $417 20 $282 $539 forward 7 unknown #
vertex $-1 $415 $540 #
straight-curve $-1 -40 -40 0 0 0 -1 I I #
edge $-1 $413 -40 $417 40 $411 $541 forward 7 unknown #
straight-curve $-1 0 -40 -20 -1 0 0 I I #
vertex $-1 $275 $542 #
straight-curve $-1 0 40 -20 1 0 0 I I #
point $-1 40 40 -20 #
point $-1 40 -40 -20 #
straight-curve $-1 -40 0 20 0 -1 0 I I #
point $-1 -40 40 20 #
point $-1 -40 -40 20 #
straight-curve $-1 40 -40 0 0 0 -1 I I #
straight-curve $-1 40 40 0 0 0 -1 I I #
loop $-1 $-1 $438 $292 #
plane-surface $-1 -15 -15 -20 0 0 1 1 0 0 forward_v I I I I #
coedge $-1 $294 $307 $295 $430 forward $180 $-1 #
coedge $-1 $296 $295 $543 $544 forward $111 $-1 #
edge $-1 $545 0 $431 40 $428 $546 forward 7 unknown #
vertex $-1 $430 $547 #
straight-curve $-1 0 -7.5 20 0 -1 0 I I #
coedge $-1 $543 $303 $299 $434 reversed $426 $-1 #
edge $-1 $435 -7.5 $305 22.5 $299 $548 forward 7 unknown #
vertex $-1 $544 $549 #
straight-curve $-1 0 0 -20 0 0 1 I I #
point $-1 0 0 20 #
coedge $-1 $303 $543 $307 $441 reversed $426 $-1 #
straight-curve $-1 -30 -7.5 -20 0 -1 0 I I #
point $-1 -30 0 -20 #
edge $-1 $308 -22.5 $545 7.5 $307 $550 forward 7 unknown #
point $-1 -30 -30 -20 #
straight-curve $-1 -7.5 -30 20 -1 0 0 I I #
plane-surface $-1 10 10 -20 0 -1 0 0 0 -1 forward_v I I I I #
coedge $-1 $551 $552 $334 $466 forward $314 $-1 #
coedge $-1 $553 $316 $552 $554 reversed $197 $-1 #
coedge $-1 $316 $553 $317 $451 forward $197 $-1 #
coedge $-1 $319 $334 $316 $449 reversed $209 $-1 #
edge $-1 $452 -20 $555 0 $316 $556 forward 7 unknown #
coedge $-1 $318 $317 $557 $558 forward $119 $-1 #
edge $-1 $559 0 $452 40 $447 $560 forward 7 unknown #
vertex $-1 $451 $561 #
straight-curve $-1 30 0 20 0 -1 0 I I #
coedge $-1 $557 $325 $321 $455 reversed $460 $-1 #
edge $-1 $456 -30 $327 30 $321 $562 forward 7 unknown #
vertex $-1 $558 $563 #
straight-curve $-1 30 30 -20 0 0 1 I I #
point $-1 30 30 20 #
coedge $-1 $325 $564 $329 $464 reversed $460 $-1 #
loop $-1 $-1 $459 $469 #
straight-curve $-1 -30 10 -20 0 -1 0 I I #
point $-1 -30 30 -20 #
coedge $-1 $330 $329 $551 $565 forward $331 $-1 #
edge $-1 $332 -30 $566 10 $329 $567 forward 7 unknown #
point $-1 -30 10 -20 #
edge $-1 $555 -30 $467 10 $445 $568 forward 7 unknown #
vertex $-1 $565 $569 #
straight-curve $-1 0 10 20 -1 0 0 I I #
face $-1 $-1 $460 $27 $-1 $570 reversed single #
plane-surface $-1 6.6666666666666661 6.6666666666666661 20 0 0 1 1 0 0 forward_v I I I I #
plane-surface $-1 5 0 0 -1 0 0 0 0 1 forward_v I I I I #
vertex $-1 $474 $571 #
straight-curve $-1 -5 7.5 -110 0 -1 0 I I #
edge $-1 $476 -62.5 $472 -52.5 $363 $572 forward 7 unknown #
convexity-sys-attrib $-1 $-1 $-1 $345 #
vertex $-1 $345 $573 #
straight-curve $-1 0 5 -120 -1 0 0 I I #
straight-curve $-1 -2.5 5 -110 -1 0 0 I I #
edge $-1 $361 -12.5 $350 -2.5 $347 $574 forward 7 unknown #
edge $575 $351 -5 $358 5 $348 $576 forward 7 unknown #
point $-1 5 5 -110 #
point $-1 5 5 -120 #
straight-curve $-1 5 -5 -57.5 0 0 1 I I #
point $-1 5 -5 -120 #
point $-1 5 -5 -110 #
convexity-sys-attrib $-1 $-1 $-1 $364 #
straight-curve $-1 -5 0 -120 0 1 0 I I #
model_id-kcp-attrib $-1 $-1 $-1 $368 1 990663535 60 1899757569 9 #
face $577 $578 $579 $9 $-1 $580 forward single #
loop $-1 $-1 $401 $368 #
plane-surface $-1 0 10 0 0 1 0 0 0 1 forward_v I I I I #
coedge $-1 $581 $582 $515 $583 reversed $369 $-1 #
coedge $-1 $374 $371 $507 $584 reversed $234 $-1 #
coedge $-1 $371 $374 $585 $586 reversed $234 $-1 #
coedge $-1 $582 $581 $371 $496 forward $369 $-1 #
edge $-1 $587 -20 $588 20 $495 $589 forward 7 unknown #
edge $590 $392 -7.5 $500 22.5 $381 $591 forward 7 unknown #
coedge $-1 $516 $585 $373 $499 forward $592 $-1 #
edge $-1 $501 -22.5 $518 7.5 $498 $593 forward 7 unknown #
vertex $-1 $497 $594 #
vertex $-1 $499 $595 #
straight-curve $-1 -30 -30 0 0 0 -1 I I #
coedge $-1 $376 $507 $581 $596 forward $243 $-1 #
edge $597 $598 -7.5 $378 2.5 $376 $393 forward 7 unknown #
convexity-sys-attrib $-1 $-1 $377 $238 #
point $-1 0 -10 20 #
coedge $-1 $503 $381 $493 $584 forward $243 $-1 #
coedge $-1 $382 $599 $600 $601 forward $243 $-1 #
coedge $-1 $602 $396 $382 $510 reversed $525 $-1 #
edge $603 $604 -20 $399 0 $382 $605 forward 7 unknown #
coedge $-1 $606 $607 $608 $609 forward $383 $-1 #
model_id-kcp-attrib $-1 $-1 $-1 $384 1 990663535 60 1899757569 15 #
face $610 $611 $592 $9 $-1 $612 reversed single #
plane-surface $-1 0 0 20 0 0 1 1 0 0 forward_v I I I I #
coedge $-1 $388 $387 $492 $583 forward $84 $-1 #
coedge $-1 $613 $498 $388 $517 forward $592 $-1 #
edge $-1 $518 -22.5 $614 7.5 $516 $615 forward 7 unknown #
vertex $-1 $499 $616 #
straight-curve $-1 0 -30 0 0 0 -1 I I #
convexity-sys-attrib $-1 $-1 $391 $249 #
point $-1 0 -30 20 #
coedge $-1 $617 $618 $395 $523 forward $619 $-1 #
edge $-1 $532 -10 $526 30 $522 $620 forward 7 unknown #
coedge $-1 $396 $602 $617 $621 reversed $525 $-1 #
loop $-1 $-1 $396 $622 #
vertex $-1 $621 $623 #
straight-curve $-1 10 -30 0 0 0 -1 I I #
convexity-sys-attrib $-1 $-1 $398 $256 #
point $-1 10 -30 20 #
coedge $-1 $624 $401 $618 $625 reversed $490 $-1 #
coedge $-1 $401 $624 $403 $535 reversed $490 $-1 #
vertex $-1 $625 $626 #
straight-curve $-1 10 10 0 0 0 1 I I #
coedge $-1 $599 $403 $627 $628 forward $243 $-1 #
edge $629 $405 -10 $630 30 $403 $631 forward 7 unknown #
convexity-sys-attrib $-1 $-1 $404 $260 #
point $-1 10 10 20 #
coedge $-1 $632 $633 $634 $635 forward $407 $-1 #
straight-curve $-1 -40 40 0 0 0 -1 I I #
point $-1 -40 -40 -20 #
straight-curve $-1 -40 0 -20 0 1 0 I I #
point $-1 -40 40 -20 #
coedge $-1 $438 $433 $429 $544 reversed $426 $-1 #
edge $-1 $545 -22.5 $435 7.5 $429 $636 forward 7 unknown #
vertex $-1 $441 $637 #
straight-curve $-1 0 -30 -20 0 0 1 I I #
point $-1 0 -30 20 #
straight-curve $-1 -7.5 0 -20 -1 0 0 I I #
point $-1 0 0 -20 #
straight-curve $-1 -7.5 -30 -20 1 0 0 I I #
coedge $-1 $638 $445 $463 $565 reversed $314 $-1 #
coedge $-1 $445 $638 $446 $554 forward $314 $-1 #
coedge $-1 $447 $446 $639 $640 forward $197 $-1 #
edge $-1 $641 0 $555 40 $552 $642 forward 7 unknown #
vertex $-1 $554 $643 #
straight-curve $-1 10 -30 20 -1 0 0 I I #
coedge $-1 $639 $454 $450 $558 reversed $460 $-1 #
edge $-1 $559 -30 $456 30 $450 $644 forward 7 unknown #
vertex $-1 $640 $645 #
straight-curve $-1 30 -30 -20 0 0 1 I I #
point $-1 30 -30 20 #
straight-curve $-1 0 30 -20 -1 0 0 I I #
point $-1 30 30 -20 #
coedge $-1 $459 $639 $638 $646 reversed $460 $-1 #
edge $-1 $566 0 $467 40 $463 $647 forward 7 unknown #
vertex $-1 $464 $648 #
straight-curve $-1 0 10 -20 1 0 0 I I #
straight-curve $-1 10 0 20 0 1 0 I I #
point $-1 10 10 20 #
plane-surface $-1 6.6666666666666661 6.6666666666666661 -20 0 0 1 1 0 0 forward_v I I I I #
point $-1 -5 5 -110 #
straight-curve $-1 -5 5 -57.5 0 0 1 I I #
point $-1 -5 5 -120 #
straight-curve $-1 5 7.5 -110 0 1 0 I I #
convexity-sys-attrib $-1 $-1 $-1 $480 #
straight-curve $-1 5 0 -120 0 -1 0 I I #
model_id-kcp-attrib $-1 $-1 $-1 $489 1 990663535 60 1899757569 10 #
face $649 $622 $650 $9 $-1 $651 forward single #
loop $-1 $-1 $652 $489 #
plane-surface $-1 -30 20 0 1 0 0 0 0 -1 forward_v I I I I #
coedge $-1 $495 $492 $503 $596 reversed $369 $-1 #
coedge $-1 $492 $495 $613 $653 reversed $369 $-1 #
edge $-1 $598 -20 $614 20 $515 $654 forward 7 unknown #
edge $655 $500 -22.5 $587 7.5 $507 $656 forward 7 unknown #
coedge $-1 $498 $613 $494 $586 forward $592 $-1 #
edge $-1 $588 -7.5 $501 22.5 $585 $657 forward 7 unknown #
vertex $-1 $584 $658 #
vertex $-1 $586 $659 #
straight-curve $-1 -30 0 0 0 0 -1 I I #
attrib_edge_convexity-kcp-attrib $-1 $660 $-1 $497 1 #
straight-curve $-1 -7.5 -30 20 -1 0 0 I I #
loop $-1 $619 $498 $513 #
straight-curve $-1 -7.5 -30 -20 1 0 0 I I #
point $-1 -30 -30 20 #
point $-1 -30 -30 -20 #
edge $661 $587 -22.5 $598 7.5 $503 $662 forward 7 unknown #
attrib_edge_convexity-kcp-attrib $-1 $663 $-1 $504 1 #
vertex $-1 $596 $664 #
coedge $-1 $508 $534 $632 $665 forward $243 $-1 #
coedge $-1 $634 $666 $508 $601 reversed $650 $-1 #
edge $667 $668 -30 $604 30 $508 $669 forward 7 unknown #
coedge $-1 $524 $509 $666 $670 forward $525 $-1 #
attrib_edge_convexity-kcp-attrib $-1 $671 $-1 $510 1 #
vertex $-1 $510 $672 #
straight-curve $-1 10 -30 20 -1 0 0 I I #
coedge $-1 $673 $511 $674 $675 forward $383 $-1 #
coedge $-1 $511 $673 $676 $677 forward $383 $-1 #
coedge $-1 $678 $679 $511 $609 reversed $680 $-1 #
edge $681 $682 -40 $683 40 $608 $684 forward 7 unknown #
model_id-kcp-attrib $-1 $-1 $-1 $513 1 990663535 60 1899757569 16 #
face $685 $686 $687 $9 $-1 $688 reversed single #
plane-surface $-1 0 0 -20 0 0 1 1 0 0 forward_v I I I I #
coedge $-1 $585 $516 $582 $653 forward $592 $-1 #
vertex $-1 $653 $689 #
straight-curve $-1 0 -7.5 -20 0 1 0 I I #
point $-1 0 -30 -20 #
coedge $-1 $690 $522 $524 $621 forward $619 $-1 #
coedge $-1 $522 $691 $530 $625 forward $619 $-1 #
loop $-1 $692 $618 $513 #
straight-curve $-1 10 0 -20 0 -1 0 I I #
edge $-1 $526 0 $693 20 $617 $694 forward 7 unknown #
face $695 $156 $525 $9 $-1 $696 forward single #
point $-1 10 -30 -20 #
coedge $-1 $531 $530 $697 $698 reversed $490 $-1 #
edge $-1 $699 -30 $532 10 $618 $700 forward 7 unknown #
point $-1 10 10 -20 #
coedge $-1 $697 $652 $534 $628 reversed $579 $-1 #
edge $701 $630 0 $702 20 $534 $703 forward 7 unknown #
attrib_edge_convexity-kcp-attrib $-1 $704 $-1 $535 1 #
vertex $-1 $535 $705 #
straight-curve $-1 0 10 20 -1 0 0 I I #
coedge $-1 $706 $538 $599 $665 reversed $407 $-1 #
coedge $-1 $538 $706 $707 $708 reversed $407 $-1 #
coedge $-1 $709 $600 $538 $635 reversed $650 $-1 #
edge $-1 $710 -20 $668 20 $634 $711 reversed 7 unknown #
straight-curve $-1 0 -7.5 -20 0 1 0 I I #
point $-1 0 -30 -20 #
coedge $-1 $552 $551 $564 $646 forward $314 $-1 #
coedge $-1 $564 $557 $553 $640 reversed $460 $-1 #
edge $-1 $641 0 $559 20 $553 $712 forward 7 unknown #
vertex $-1 $646 $713 #
straight-curve $-1 10 -30 -20 0 0 1 I I #
point $-1 10 -30 20 #
straight-curve $-1 30 0 -20 0 1 0 I I #
point $-1 30 -30 -20 #
edge $-1 $566 -10 $641 30 $638 $714 forward 7 unknown #
straight-curve $-1 10 10 -20 0 0 1 I I #
point $-1 10 10 -20 #
model_id-kcp-attrib $-1 $-1 $-1 $578 1 990663535 60 1899757569 11 #
loop $-1 $-1 $709 $578 #
plane-surface $-1 30 0 0 -1 0 0 0 0 1 forward_v I I I I #
coedge $-1 $627 $715 $706 $716 reversed $579 $-1 #
edge $-1 $614 -7.5 $588 22.5 $613 $717 forward 7 unknown #
straight-curve $-1 0 0 0 0 0 -1 I I #
attrib_edge_convexity-kcp-attrib $-1 $718 $-1 $584 1 #
straight-curve $-1 -30 -7.5 20 0 1 0 I I #
straight-curve $-1 -30 -7.5 -20 0 -1 0 I I #
point $-1 -30 0 20 #
point $-1 -30 0 -20 #
convexity-sys-attrib $-1 $-1 $590 $497 #
attrib_edge_convexity-kcp-attrib $-1 $719 $-1 $596 1 #
straight-curve $-1 -7.5 0 20 1 0 0 I I #
convexity-sys-attrib $-1 $-1 $597 $504 #
point $-1 0 0 20 #
edge $720 $702 -30 $668 30 $599 $721 forward 7 unknown #
coedge $-1 $600 $709 $602 $670 reversed $650 $-1 #
attrib_edge_convexity-kcp-attrib $-1 $722 $-1 $601 1 #
vertex $-1 $665 $723 #
straight-curve $-1 30 0 20 0 -1 0 I I #
edge $-1 $604 -20 $693 20 $666 $724 forward 7 unknown #
convexity-sys-attrib $-1 $-1 $603 $510 #
point $-1 30 -30 20 #
coedge $-1 $607 $606 $725 $726 forward $383 $-1 #
coedge $-1 $727 $728 $606 $675 reversed $729 $-1 #
edge $730 $683 -40 $731 40 $674 $732 forward 7 unknown #
coedge $-1 $733 $734 $607 $677 reversed $687 $-1 #
edge $735 $736 -40 $682 40 $676 $737 forward 7 unknown #
coedge $-1 $738 $608 $734 $739 forward $680 $-1 #
coedge $-1 $608 $738 $727 $740 reversed $680 $-1 #
loop $-1 $-1 $678 $741 #
attrib_edge_convexity-kcp-attrib $-1 $742 $-1 $609 1 #
vertex $-1 $609 $743 #
vertex $-1 $609 $744 #
straight-curve $-1 40 0 20 0 1 0 I I #
model_id-kcp-attrib $-1 $-1 $-1 $611 1 990663535 60 1899757569 17 #
face $745 $746 $747 $9 $-1 $748 reversed single #
loop $-1 $-1 $733 $611 #
plane-surface $-1 0 -40 0 0 1 0 0 0 1 forward_v I I I I #
point $-1 0 0 -20 #
coedge $-1 $707 $617 $709 $749 forward $619 $-1 #
coedge $-1 $618 $707 $715 $750 forward $619 $-1 #
loop $-1 $-1 $751 $513 #
vertex $-1 $621 $752 #
straight-curve $-1 10 -30 -20 1 0 0 I I #
model_id-kcp-attrib $-1 $-1 $-1 $622 1 990663535 60 1899757569 12 #
plane-surface $-1 20 -30 0 0 1 0 0 0 1 forward_v I I I I #
coedge $-1 $715 $627 $624 $698 forward $579 $-1 #
edge $-1 $630 -20 $699 20 $697 $753 forward 7 unknown #
vertex $-1 $625 $754 #
straight-curve $-1 0 10 -20 1 0 0 I I #
attrib_edge_convexity-kcp-attrib $-1 $755 $-1 $628 1 #
vertex $-1 $628 $756 #
straight-curve $-1 -30 10 20 0 1 0 I I #
convexity-sys-attrib $-1 $-1 $629 $535 #
point $-1 -30 10 20 #
coedge $-1 $633 $632 $652 $716 forward $407 $-1 #
coedge $-1 $691 $690 $633 $708 forward $619 $-1 #
edge $-1 $710 -30 $757 30 $707 $758 forward 7 unknown #
coedge $-1 $666 $634 $690 $749 reversed $650 $-1 #
vertex $-1 $708 $759 #
straight-curve $-1 30 30 0 0 0 -1 I I #
straight-curve $-1 10 -30 -20 1 0 0 I I #
point $-1 10 -30 -20 #
straight-curve $-1 10 0 -20 0 -1 0 I I #
coedge $-1 $652 $697 $691 $750 reversed $579 $-1 #
edge $-1 $702 -20 $757 20 $706 $760 forward 7 unknown #
straight-curve $-1 -7.5 0 -20 -1 0 0 I I #
convexity-sys-attrib $-1 $-1 $655 $584 #
convexity-sys-attrib $-1 $-1 $661 $596 #
attrib_edge_convexity-kcp-attrib $-1 $761 $-1 $665 1 #
straight-curve $-1 0 30 20 1 0 0 I I #
convexity-sys-attrib $-1 $-1 $667 $601 #
point $-1 30 30 20 #
straight-curve $-1 30 -30 0 0 0 -1 I I #
coedge $-1 $762 $763 $673 $726 reversed $747 $-1 #
edge $764 $731 -40 $736 40 $725 $765 forward 7 unknown #
coedge $-1 $766 $674 $679 $740 forward $729 $-1 #
coedge $-1 $674 $766 $762 $767 reversed $729 $-1 #
loop $-1 $-1 $727 $746 #
attrib_edge_convexity-kcp-attrib $-1 $768 $-1 $675 1 #
vertex $-1 $675 $769 #
straight-curve $-1 0 40 20 -1 0 0 I I #
coedge $-1 $770 $676 $763 $771 forward $687 $-1 #
coedge $-1 $676 $770 $678 $739 reversed $687 $-1 #
attrib_edge_convexity-kcp-attrib $-1 $772 $-1 $677 1 #
vertex $-1 $726 $773 #
straight-curve $-1 0 -40 20 1 0 0 I I #
coedge $-1 $679 $678 $751 $774 reversed $680 $-1 #
edge $775 $682 -20 $776 20 $678 $777 forward 7 unknown #
edge $-1 $683 -20 $778 20 $679 $779 forward 7 unknown #
face $780 $-1 $680 $9 $-1 $781 reversed single #
convexity-sys-attrib $-1 $-1 $681 $609 #
point $-1 40 -40 20 #
point $-1 40 40 20 #
model_id-kcp-attrib $-1 $-1 $-1 $686 1 990663535 60 1899757569 18 #
face $782 $741 $729 $9 $-1 $783 reversed single #
loop $-1 $-1 $762 $686 #
plane-surface $-1 -40 0 0 1 0 0 0 0 -1 forward_v I I I I #
edge $-1 $693 -30 $710 30 $690 $784 forward 7 unknown #
edge $-1 $757 -20 $699 0 $691 $785 forward 7 unknown #
coedge $-1 $786 $787 $738 $774 forward $692 $-1 #
point $-1 30 -30 -20 #
straight-curve $-1 -30 10 0 0 0 -1 I I #
point $-1 -30 10 -20 #
convexity-sys-attrib $-1 $-1 $701 $628 #
point $-1 -30 30 20 #
vertex $-1 $750 $788 #
straight-curve $-1 0 30 -20 -1 0 0 I I #
point $-1 30 30 -20 #
straight-curve $-1 -30 30 0 0 0 -1 I I #
convexity-sys-attrib $-1 $-1 $720 $665 #
coedge $-1 $789 $725 $728 $767 forward $747 $-1 #
coedge $-1 $725 $789 $733 $771 reversed $747 $-1 #
attrib_edge_convexity-kcp-attrib $-1 $790 $-1 $726 1 #
straight-curve $-1 -40 0 20 0 -1 0 I I #
coedge $-1 $728 $727 $787 $791 reversed $729 $-1 #
edge $792 $731 -20 $793 20 $728 $794 forward 7 unknown #
convexity-sys-attrib $-1 $-1 $730 $675 #
point $-1 -40 40 20 #
coedge $-1 $734 $733 $786 $795 reversed $687 $-1 #
edge $796 $736 -20 $797 20 $763 $798 forward 7 unknown #
convexity-sys-attrib $-1 $-1 $735 $677 #
point $-1 -40 -40 20 #
edge $-1 $778 -40 $776 40 $738 $799 forward 7 unknown #
attrib_edge_convexity-kcp-attrib $-1 $800 $-1 $739 1 #
vertex $-1 $739 $801 #
straight-curve $-1 40 -40 0 0 0 -1 I I #
vertex $-1 $774 $802 #
straight-curve $-1 40 40 0 0 0 -1 I I #
model_id-kcp-attrib $-1 $-1 $-1 $741 1 990663535 60 1899757569 20 #
plane-surface $-1 40 0 0 -1 0 0 0 0 1 forward_v I I I I #
model_id-kcp-attrib $-1 $-1 $-1 $746 1 990663535 60 1899757569 19 #
plane-surface $-1 0 40 0 0 -1 0 0 0 -1 forward_v I I I I #
straight-curve $-1 30 0 -20 0 1 0 I I #
straight-curve $-1 -30 10 -20 0 -1 0 I I #
coedge $-1 $803 $751 $770 $795 forward $692 $-1 #
coedge $-1 $751 $803 $766 $791 forward $692 $-1 #
point $-1 -30 30 -20 #
coedge $-1 $763 $762 $803 $804 reversed $747 $-1 #
convexity-sys-attrib $-1 $-1 $764 $726 #
edge $-1 $793 -40 $778 40 $766 $805 forward 7 unknown #
attrib_edge_convexity-kcp-attrib $-1 $806 $-1 $767 1 #
vertex $-1 $791 $807 #
straight-curve $-1 -40 40 0 0 0 -1 I I #
edge $808 $776 -40 $797 40 $770 $809 forward 7 unknown #
attrib_edge_convexity-kcp-attrib $-1 $810 $-1 $771 1 #
vertex $-1 $804 $811 #
straight-curve $-1 -40 -40 0 0 0 -1 I I #
straight-curve $-1 40 0 -20 0 -1 0 I I #
convexity-sys-attrib $-1 $-1 $775 $739 #
point $-1 40 -40 -20 #
point $-1 40 40 -20 #
coedge $-1 $787 $786 $789 $804 forward $692 $-1 #
edge $812 $797 -40 $793 40 $789 $813 forward 7 unknown #
straight-curve $-1 0 40 -20 1 0 0 I I #
convexity-sys-attrib $-1 $-1 $792 $767 #
point $-1 -40 40 -20 #
attrib_edge_convexity-kcp-attrib $-1 $814 $-1 $795 1 #
straight-curve $-1 0 -40 -20 -1 0 0 I I #
convexity-sys-attrib $-1 $-1 $796 $771 #
point $-1 -40 -40 -20 #
attrib_edge_convexity-kcp-attrib $-1 $815 $-1 $804 1 #
straight-curve $-1 -40 0 -20 0 1 0 I I #
convexity-sys-attrib $-1 $-1 $808 $795 #
convexity-sys-attrib $-1 $-1 $812 $804 #
End-of-ACIS-data 