700 0 2 0           
24 FBMach with ACIS - 7.0.3 13 ACIS 7.0.3 NT 24 Tue May 14 09:20:06 2002 
1 9.9999999999999995e-007 1e-010 
body $2 -1 $-1 $3 $-1 $4 #
bdycol-kcp $-1 -1 1 4 $5 $6 $7 $8 #
model_id-kcp-attrib $-1 -1 $-1 $-1 $0 1 1021382406 1021382406 -972881919 1 #
lump $-1 -1 $-1 $-1 $9 $0 #
transform $-1 -1 1 0 0 0 1 0 0 0 1 0 0 0 1 rotate no_reflect no_shear #
body $10 -1 $-1 $11 $-1 $12 #
body $13 -1 $-1 $14 $-1 $15 #
body $16 -1 $-1 $17 $-1 $18 #
body $19 -1 $-1 $20 $-1 $21 #
shell $-1 -1 $-1 $-1 $-1 $22 $-1 $3 #
model_id-kcp-attrib $-1 -1 $-1 $-1 $5 1 1021382406 1021382406 -972881918 1 #
lump $-1 -1 $-1 $-1 $23 $5 #
transform $-1 -1 1 0 0 0 1 0 0 0 1 0 0 0 1 no_rotate no_reflect no_shear #
rgb_color-st-attrib $-1 -1 $24 $-1 $6 1 0 0 #
lump $-1 -1 $-1 $-1 $25 $6 #
transform $-1 -1 1 0 0 0 1 0 0 0 1 0 0 0 1 no_rotate no_reflect no_shear #
rgb_color-st-attrib $-1 -1 $26 $-1 $7 0.5 1 1 #
lump $-1 -1 $-1 $-1 $27 $7 #
transform $-1 -1 1 0 0 0 1 0 0 0 1 0 0 0 1 no_rotate no_reflect no_shear #
rgb_color-st-attrib $-1 -1 $28 $-1 $8 0.5 1 1 #
lump $-1 -1 $-1 $-1 $29 $8 #
transform $-1 -1 1 0 0 0 1 0 0 0 1 0 0 0 1 no_rotate no_reflect no_shear #
face $30 -1 $-1 $31 $32 $9 $-1 $33 forward single #
shell $-1 -1 $-1 $-1 $-1 $34 $-1 $11 #
model_id-kcp-attrib $-1 -1 $-1 $13 $6 1 1021382406 1021382406 -966066171 1 #
shell $-1 -1 $-1 $-1 $-1 $35 $-1 $14 #
model_id-kcp-attrib $-1 -1 $-1 $16 $7 1 1021382406 1021382406 -961085437 1 #
shell $-1 -1 $-1 $-1 $-1 $36 $-1 $17 #
model_id-kcp-attrib $-1 -1 $-1 $19 $8 1 1021382406 1021382406 -959119356 1 #
shell $-1 -1 $-1 $-1 $-1 $37 $-1 $20 #
model_id-kcp-attrib $-1 -1 $-1 $-1 $22 1 1021382406 1021382406 -972881919 2 #
face $38 -1 $-1 $39 $40 $9 $-1 $41 forward single #
loop $-1 -1 $-1 $-1 $42 $22 #
plane-surface $-1 -1 $-1 5 -15 10 0 0 1 1 0 0 forward_v I I I I #
face $43 -1 $-1 $44 $45 $23 $-1 $46 forward single #
face $-1 -1 $-1 $47 $48 $25 $-1 $49 forward single #
face $-1 -1 $-1 $50 $51 $27 $-1 $52 forward single #
face $-1 -1 $-1 $53 $54 $29 $-1 $55 forward single #
model_id-kcp-attrib $-1 -1 $-1 $-1 $31 1 1021382406 1021382406 -972881919 3 #
face $56 -1 $-1 $57 $58 $9 $-1 $59 forward single #
loop $-1 -1 $-1 $-1 $60 $31 #
plane-surface $-1 -1 $-1 5 -20 15 0 1 0 0 0 1 forward_v I I I I #
coedge $-1 -1 $-1 $61 $62 $63 $64 reversed $32 $-1 #
model_id-kcp-attrib $-1 -1 $-1 $-1 $34 1 1021382406 1021382406 -972881918 2 #
face $65 -1 $-1 $66 $67 $23 $-1 $68 reversed single #
loop $-1 -1 $-1 $-1 $69 $34 #
plane-surface $-1 -1 $-1 0 0 20 0 0 1 1 0 0 forward_v I I I I #
face $-1 -1 $-1 $70 $71 $25 $-1 $72 forward single #
loop $-1 -1 $-1 $-1 $73 $35 #
plane-surface $-1 -1 $-1 0 -10 10 0 1 0 0 0 1 forward_v I I I I #
face $-1 -1 $-1 $74 $75 $27 $-1 $76 forward single #
loop $-1 -1 $-1 $-1 $77 $36 #
plane-surface $-1 -1 $-1 -30 -30 -20 -1 0 0 0 0 1 forward_v I I I I #
face $-1 -1 $-1 $78 $79 $29 $-1 $80 forward single #
loop $-1 -1 $-1 $-1 $81 $37 #
plane-surface $-1 -1 $-1 -30 10 -20 -1 0 0 0 0 1 forward_v I I I I #
model_id-kcp-attrib $-1 -1 $-1 $-1 $39 1 1021382406 1021382406 -972881919 4 #
face $82 -1 $-1 $83 $84 $9 $-1 $85 forward single #
loop $-1 -1 $-1 $-1 $86 $39 #
plane-surface $-1 -1 $-1 5 -10 15 0 -1 0 0 0 -1 forward_v I I I I #
coedge $-1 -1 $-1 $87 $88 $89 $90 reversed $40 $-1 #
coedge $-1 -1 $-1 $91 $42 $92 $93 reversed $32 $-1 #
coedge $-1 -1 $-1 $42 $91 $88 $94 reversed $32 $-1 #
coedge $-1 -1 $-1 $95 $96 $42 $64 forward $97 $-1 #
edge $98 -1 $-1 $99 2.5 $100 12.5 $63 $101 forward @7 unknown #
model_id-kcp-attrib $-1 -1 $-1 $-1 $44 1 1021382406 1021382406 -972881918 3 #
face $102 -1 $-1 $103 $104 $23 $-1 $105 reversed single #
loop $-1 -1 $-1 $-1 $106 $44 #
plane-surface $-1 -1 $-1 0 0 -20 0 0 1 1 0 0 forward_v I I I I #
coedge $-1 -1 $-1 $107 $108 $109 $110 forward $45 $-1 #
face $-1 -1 $-1 $111 $112 $25 $-1 $113 forward single #
loop $-1 -1 $-1 $-1 $114 $47 #
plane-surface $-1 -1 $-1 10 -10 10 1 0 0 0 0 -1 forward_v I I I I #
coedge $-1 -1 $-1 $115 $116 $117 $118 forward $48 $-1 #
face $-1 -1 $-1 $119 $120 $27 $-1 $121 forward single #
loop $-1 -1 $-1 $-1 $122 $50 #
plane-surface $-1 -1 $-1 -30 0 -20 0 1 0 0 0 1 forward_v I I I I #
coedge $-1 -1 $-1 $123 $124 $125 $126 forward $51 $-1 #
face $-1 -1 $-1 $127 $128 $29 $-1 $129 forward single #
loop $-1 -1 $-1 $-1 $130 $53 #
plane-surface $-1 -1 $-1 -30 30 -20 0 1 0 0 0 1 forward_v I I I I #
coedge $-1 -1 $-1 $131 $132 $133 $134 forward $54 $-1 #
model_id-kcp-attrib $-1 -1 $-1 $-1 $57 1 1021382406 1021382406 -972881919 5 #
face $135 -1 $-1 $136 $137 $9 $-1 $138 forward single #
loop $-1 -1 $-1 $-1 $89 $57 #
plane-surface $-1 -1 $-1 0 -15 0 -1 0 0 0 0 1 forward_v I I I I #
coedge $-1 -1 $-1 $139 $92 $96 $140 reversed $58 $-1 #
coedge $-1 -1 $-1 $141 $60 $142 $143 reversed $40 $-1 #
coedge $-1 -1 $-1 $60 $141 $62 $94 forward $40 $-1 #
coedge $-1 -1 $-1 $144 $145 $60 $90 forward $84 $-1 #
edge $-1 -1 $-1 $146 -12.5 $147 -2.5 $89 $148 forward @7 unknown #
coedge $-1 -1 $-1 $62 $61 $144 $149 reversed $32 $-1 #
coedge $-1 -1 $-1 $86 $150 $61 $93 forward $58 $-1 #
edge $151 -1 $-1 $152 -5 $99 5 $92 $153 forward @7 unknown #
edge $154 -1 $-1 $100 -5 $147 5 $88 $155 forward @7 unknown #
coedge $-1 -1 $-1 $156 $63 $141 $157 forward $97 $-1 #
coedge $-1 -1 $-1 $63 $158 $86 $140 forward $97 $-1 #
loop $-1 -1 $-1 $-1 $95 $159 #
attrib_edge_convexity-kcp-attrib $-1 -1 $160 $-1 $64 1 #
vertex $-1 -1 $-1 $64 $161 #
vertex $-1 -1 $-1 $64 $162 #
straight-curve $-1 -1 $-1 10 -7.5 10 0 -1 0 I I #
model_id-kcp-attrib $-1 -1 $-1 $-1 $66 1 1021382406 1021382406 -972881918 4 #
face $163 -1 $-1 $164 $165 $23 $-1 $166 reversed single #
loop $-1 -1 $-1 $-1 $167 $66 #
plane-surface $-1 -1 $-1 0 -40 0 0 1 0 0 0 1 forward_v I I I I #
coedge $-1 -1 $-1 $168 $169 $170 $171 forward $67 $-1 #
coedge $-1 -1 $-1 $172 $69 $173 $174 forward $45 $-1 #
coedge $-1 -1 $-1 $69 $172 $175 $176 forward $45 $-1 #
coedge $-1 -1 $-1 $177 $178 $69 $110 reversed $179 $-1 #
edge $-1 -1 $-1 $180 -40 $181 40 $109 $182 forward @7 unknown #
face $-1 -1 $-1 $183 $184 $25 $-1 $185 forward single #
loop $-1 -1 $-1 $-1 $186 $70 #
plane-surface $-1 -1 $-1 10 -20 10 0 -1 0 0 0 -1 forward_v I I I I #
coedge $-1 -1 $-1 $187 $188 $189 $190 forward $71 $-1 #
coedge $-1 -1 $-1 $191 $73 $188 $192 reversed $48 $-1 #
coedge $-1 -1 $-1 $73 $191 $193 $194 forward $48 $-1 #
coedge $-1 -1 $-1 $195 $189 $73 $118 reversed $196 $-1 #
edge $-1 -1 $-1 $197 -5 $198 5 $73 $199 forward @7 unknown #
face $-1 -1 $-1 $200 $201 $27 $-1 $202 forward single #
loop $-1 -1 $-1 $-1 $203 $74 #
plane-surface $-1 -1 $-1 0 0 -20 1 0 0 0 0 -1 forward_v I I I I #
coedge $-1 -1 $-1 $204 $205 $206 $207 forward $75 $-1 #
coedge $-1 -1 $-1 $208 $77 $205 $209 reversed $51 $-1 #
coedge $-1 -1 $-1 $77 $208 $210 $211 forward $51 $-1 #
coedge $-1 -1 $-1 $212 $206 $77 $126 reversed $213 $-1 #
edge $-1 -1 $-1 $214 -22.5 $215 7.5 $77 $216 forward @7 unknown #
face $-1 -1 $-1 $217 $218 $29 $-1 $219 forward single #
loop $-1 -1 $-1 $-1 $220 $78 #
plane-surface $-1 -1 $-1 30 30 -20 1 0 0 0 0 -1 forward_v I I I I #
coedge $-1 -1 $-1 $221 $222 $223 $224 forward $79 $-1 #
coedge $-1 -1 $-1 $225 $81 $222 $226 reversed $54 $-1 #
coedge $-1 -1 $-1 $81 $225 $227 $228 forward $54 $-1 #
coedge $-1 -1 $-1 $229 $223 $81 $134 reversed $230 $-1 #
edge $-1 -1 $-1 $231 0 $232 20 $81 $233 forward @7 unknown #
model_id-kcp-attrib $-1 -1 $-1 $-1 $83 1 1021382406 1021382406 -972881919 6 #
face $234 -1 $-1 $235 $236 $9 $-1 $237 forward single #
loop $-1 -1 $-1 $-1 $238 $83 #
plane-surface $-1 -1 $-1 -15 -30 0 0 1 0 0 0 1 forward_v I I I I #
coedge $-1 -1 $-1 $150 $86 $239 $240 reversed $58 $-1 #
edge $-1 -1 $-1 $241 -12.5 $99 -2.5 $96 $242 forward @7 unknown #
coedge $-1 -1 $-1 $88 $87 $95 $157 reversed $40 $-1 #
coedge $-1 -1 $-1 $243 $244 $87 $143 forward $245 $-1 #
edge $246 -1 $-1 $247 -7.5 $146 2.5 $142 $248 forward @7 unknown #
coedge $-1 -1 $-1 $249 $89 $91 $149 forward $84 $-1 #
coedge $-1 -1 $-1 $89 $250 $243 $251 reversed $84 $-1 #
vertex $-1 -1 $-1 $143 $252 #
vertex $-1 -1 $-1 $149 $253 #
straight-curve $-1 -1 $-1 0 -20 7.5 0 0 -1 I I #
edge $254 -1 $-1 $147 -5 $152 5 $144 $255 forward @7 unknown #
coedge $-1 -1 $-1 $92 $139 $249 $256 reversed $58 $-1 #
attrib_edge_convexity-kcp-attrib $-1 -1 $257 $-1 $93 2 #
vertex $-1 -1 $-1 $149 $258 #
straight-curve $-1 -1 $-1 5 -10 10 1 0 0 I I #
attrib_edge_convexity-kcp-attrib $-1 -1 $259 $-1 $94 2 #
straight-curve $-1 -1 $-1 5 -20 10 -1 0 0 I I #
coedge $-1 -1 $-1 $260 $95 $244 $261 reversed $97 $-1 #
edge $-1 -1 $-1 $100 2.5 $247 12.5 $95 $262 forward @7 unknown #
coedge $-1 -1 $-1 $96 $263 $264 $265 reversed $97 $-1 #
face $266 -1 $-1 $267 $97 $9 $-1 $268 forward single #
convexity-sys-attrib $-1 -1 $-1 $98 $64 #
point $-1 -1 $-1 10 -10 10 #
point $-1 -1 $-1 10 -20 10 #
model_id-kcp-attrib $-1 -1 $-1 $-1 $103 1 1021382406 1021382406 -972881918 5 #
face $269 -1 $-1 $270 $271 $23 $-1 $272 reversed single #
loop $-1 -1 $-1 $-1 $273 $103 #
plane-surface $-1 -1 $-1 -40 0 0 1 0 0 0 0 -1 forward_v I I I I #
coedge $-1 -1 $-1 $274 $175 $275 $276 forward $104 $-1 #
coedge $-1 -1 $-1 $277 $106 $274 $278 forward $67 $-1 #
coedge $-1 -1 $-1 $106 $277 $279 $280 forward $67 $-1 #
coedge $-1 -1 $-1 $178 $177 $106 $171 reversed $179 $-1 #
edge $-1 -1 $-1 $281 -40 $282 40 $170 $283 forward @7 unknown #
coedge $-1 -1 $-1 $108 $107 $284 $285 forward $45 $-1 #
coedge $-1 -1 $-1 $286 $287 $107 $174 reversed $271 $-1 #
edge $-1 -1 $-1 $181 -40 $288 40 $173 $289 forward @7 unknown #
coedge $-1 -1 $-1 $167 $290 $108 $176 reversed $104 $-1 #
edge $-1 -1 $-1 $291 -40 $180 40 $175 $292 forward @7 unknown #
coedge $-1 -1 $-1 $170 $109 $290 $293 forward $179 $-1 #
coedge $-1 -1 $-1 $109 $170 $286 $294 reversed $179 $-1 #
loop $-1 -1 $-1 $-1 $177 $270 #
vertex $-1 -1 $-1 $110 $295 #
vertex $-1 -1 $-1 $110 $296 #
straight-curve $-1 -1 $-1 40 0 20 0 1 0 I I #
face $-1 -1 $-1 $297 $196 $25 $-1 $298 forward single #
loop $-1 -1 $-1 $-1 $299 $111 #
plane-surface $-1 -1 $-1 0 -20 10 -1 0 0 0 0 1 forward_v I I I I #
coedge $-1 -1 $-1 $300 $301 $302 $303 forward $112 $-1 #
coedge $-1 -1 $-1 $304 $114 $301 $305 reversed $71 $-1 #
coedge $-1 -1 $-1 $114 $304 $115 $192 forward $71 $-1 #
coedge $-1 -1 $-1 $117 $302 $114 $190 reversed $196 $-1 #
edge $-1 -1 $-1 $198 -12.5 $306 -2.5 $114 $307 forward @7 unknown #
coedge $-1 -1 $-1 $116 $115 $308 $309 reversed $48 $-1 #
edge $-1 -1 $-1 $310 0 $198 10 $188 $311 forward @7 unknown #
coedge $-1 -1 $-1 $312 $299 $116 $194 reversed $184 $-1 #
edge $-1 -1 $-1 $313 0 $197 10 $116 $314 forward @7 unknown #
coedge $-1 -1 $-1 $302 $117 $299 $315 reversed $196 $-1 #
loop $-1 -1 $-1 $-1 $117 $183 #
vertex $-1 -1 $-1 $194 $316 #
vertex $-1 -1 $-1 $192 $317 #
straight-curve $-1 -1 $-1 5 -10 20 1 0 0 I I #
face $-1 -1 $-1 $318 $213 $27 $-1 $319 forward single #
loop $-1 -1 $-1 $-1 $320 $119 #
plane-surface $-1 -1 $-1 0 -30 -20 0 -1 0 0 0 -1 forward_v I I I I #
coedge $-1 -1 $-1 $321 $322 $323 $324 forward $120 $-1 #
coedge $-1 -1 $-1 $325 $122 $322 $326 reversed $75 $-1 #
coedge $-1 -1 $-1 $122 $325 $123 $209 forward $75 $-1 #
coedge $-1 -1 $-1 $125 $323 $122 $207 reversed $213 $-1 #
edge $-1 -1 $-1 $215 -22.5 $327 7.5 $122 $328 forward @7 unknown #
coedge $-1 -1 $-1 $124 $123 $329 $330 forward $51 $-1 #
edge $-1 -1 $-1 $331 0 $215 40 $205 $332 forward @7 unknown #
coedge $-1 -1 $-1 $333 $320 $124 $211 reversed $201 $-1 #
edge $-1 -1 $-1 $334 0 $214 40 $124 $335 forward @7 unknown #
coedge $-1 -1 $-1 $323 $125 $320 $336 reversed $213 $-1 #
loop $-1 -1 $-1 $-1 $125 $200 #
vertex $-1 -1 $-1 $211 $337 #
vertex $-1 -1 $-1 $209 $338 #
straight-curve $-1 -1 $-1 -30 -7.5 20 0 1 0 I I #
face $-1 -1 $-1 $339 $340 $29 $-1 $341 forward single #
loop $-1 -1 $-1 $-1 $342 $127 #
plane-surface $-1 -1 $-1 30 -30 -20 0 -1 0 0 0 -1 forward_v I I I I #
coedge $-1 -1 $-1 $343 $344 $345 $346 forward $128 $-1 #
coedge $-1 -1 $-1 $347 $130 $344 $348 reversed $79 $-1 #
coedge $-1 -1 $-1 $130 $347 $131 $226 forward $79 $-1 #
coedge $-1 -1 $-1 $133 $345 $130 $224 reversed $230 $-1 #
edge $-1 -1 $-1 $232 -30 $349 30 $130 $350 forward @7 unknown #
coedge $-1 -1 $-1 $132 $131 $351 $352 forward $54 $-1 #
edge $-1 -1 $-1 $353 0 $232 40 $222 $354 forward @7 unknown #
coedge $-1 -1 $-1 $355 $356 $132 $228 reversed $357 $-1 #
edge $-1 -1 $-1 $358 0 $231 40 $132 $359 forward @7 unknown #
coedge $-1 -1 $-1 $360 $133 $356 $361 reversed $230 $-1 #
loop $-1 -1 $-1 $-1 $133 $362 #
vertex $-1 -1 $-1 $228 $363 #
vertex $-1 -1 $-1 $226 $364 #
straight-curve $-1 -1 $-1 -30 10 20 0 1 0 I I #
model_id-kcp-attrib $-1 -1 $-1 $-1 $136 1 1021382406 1021382406 -972881919 7 #
face $365 -1 $-1 $366 $367 $9 $-1 $368 forward single #
loop $-1 -1 $-1 $-1 $369 $136 #
plane-surface $-1 -1 $-1 -30 -15 0 1 0 0 0 0 -1 forward_v I I I I #
coedge $-1 -1 $-1 $370 $371 $372 $373 reversed $137 $-1 #
coedge $-1 -1 $-1 $264 $374 $139 $240 forward $245 $-1 #
edge $375 -1 $-1 $376 -2.5 $241 7.5 $239 $377 forward @7 unknown #
vertex $-1 -1 $-1 $140 $378 #
straight-curve $-1 -1 $-1 10 -10 7.5 0 0 -1 I I #
coedge $-1 -1 $-1 $379 $142 $145 $251 forward $245 $-1 #
coedge $-1 -1 $-1 $142 $380 $156 $261 forward $245 $-1 #
loop $-1 -1 $-1 $381 $142 $382 #
attrib_edge_convexity-kcp-attrib $-1 -1 $383 $-1 $143 1 #
vertex $-1 -1 $-1 $261 $384 #
straight-curve $-1 -1 $-1 2.5 -20 20 -1 0 0 I I #
coedge $-1 -1 $-1 $385 $144 $150 $256 forward $84 $-1 #
coedge $-1 -1 $-1 $145 $386 $387 $388 reversed $84 $-1 #
edge $389 -1 $-1 $146 12.5 $390 22.5 $243 $391 forward @7 unknown #
point $-1 -1 $-1 0 -20 20 #
point $-1 -1 $-1 0 -20 10 #
attrib_edge_convexity-kcp-attrib $-1 -1 $392 $-1 $149 1 #
straight-curve $-1 -1 $-1 0 -15 10 0 1 0 I I #
edge $-1 -1 $-1 $152 2.5 $376 12.5 $249 $393 forward @7 unknown #
convexity-sys-attrib $-1 -1 $-1 $151 $93 #
point $-1 -1 $-1 0 -10 10 #
convexity-sys-attrib $-1 -1 $-1 $154 $94 #
coedge $-1 -1 $-1 $394 $156 $395 $396 forward $97 $-1 #
edge $397 -1 $-1 $398 -30 $247 -20 $244 $399 forward @7 unknown #
straight-curve $-1 -1 $-1 10 -20 7.5 0 0 1 I I #
coedge $-1 -1 $-1 $158 $394 $400 $401 forward $97 $-1 #
coedge $-1 -1 $-1 $402 $239 $158 $265 forward $245 $-1 #
edge $403 -1 $-1 $241 -10 $404 10 $264 $399 forward @7 unknown #
model_id-kcp-attrib $-1 -1 $-1 $-1 $159 1 1021382406 1021382406 -972881919 13 #
face $405 -1 $-1 $382 $406 $9 $-1 $407 forward single #
plane-surface $-1 -1 $-1 10 0 0 1 0 0 0 0 -1 forward_v I I I I #
model_id-kcp-attrib $-1 -1 $-1 $-1 $164 1 1021382406 1021382406 -972881918 6 #
face $408 -1 $-1 $-1 $179 $23 $-1 $409 reversed single #
loop $-1 -1 $-1 $-1 $286 $164 #
plane-surface $-1 -1 $-1 0 40 0 0 -1 0 0 0 -1 forward_v I I I I #
coedge $-1 -1 $-1 $410 $284 $287 $411 forward $165 $-1 #
coedge $-1 -1 $-1 $290 $167 $168 $278 reversed $104 $-1 #
coedge $-1 -1 $-1 $284 $410 $167 $276 reversed $165 $-1 #
edge $-1 -1 $-1 $291 -20 $412 20 $275 $413 forward @7 unknown #
coedge $-1 -1 $-1 $169 $168 $410 $414 forward $67 $-1 #
edge $-1 -1 $-1 $282 -40 $412 40 $274 $415 forward @7 unknown #
coedge $-1 -1 $-1 $287 $286 $169 $280 reversed $271 $-1 #
edge $-1 -1 $-1 $416 -40 $281 40 $279 $417 forward @7 unknown #
vertex $-1 -1 $-1 $171 $418 #
vertex $-1 -1 $-1 $293 $419 #
straight-curve $-1 -1 $-1 40 0 -20 0 -1 0 I I #
coedge $-1 -1 $-1 $273 $275 $172 $285 reversed $165 $-1 #
edge $-1 -1 $-1 $288 -40 $291 40 $284 $420 forward @7 unknown #
coedge $-1 -1 $-1 $279 $173 $178 $294 forward $271 $-1 #
coedge $-1 -1 $-1 $173 $279 $273 $411 reversed $271 $-1 #
vertex $-1 -1 $-1 $174 $421 #
straight-curve $-1 -1 $-1 0 40 20 -1 0 0 I I #
coedge $-1 -1 $-1 $175 $274 $177 $293 reversed $104 $-1 #
vertex $-1 -1 $-1 $285 $422 #
straight-curve $-1 -1 $-1 0 -40 20 1 0 0 I I #
edge $-1 -1 $-1 $180 -20 $282 20 $177 $423 forward @7 unknown #
edge $-1 -1 $-1 $181 -20 $281 20 $178 $424 forward @7 unknown #
point $-1 -1 $-1 40 -40 20 #
point $-1 -1 $-1 40 40 20 #
face $-1 -1 $-1 $-1 $425 $25 $-1 $426 reversed single #
plane-surface $-1 -1 $-1 5 -15 20 0 0 1 1 0 0 forward_v I I I I #
coedge $-1 -1 $-1 $193 $427 $195 $315 forward $184 $-1 #
coedge $-1 -1 $-1 $428 $186 $427 $429 reversed $112 $-1 #
coedge $-1 -1 $-1 $186 $428 $187 $305 forward $112 $-1 #
coedge $-1 -1 $-1 $189 $195 $186 $303 reversed $196 $-1 #
edge $-1 -1 $-1 $306 -5 $430 5 $186 $431 forward @7 unknown #
coedge $-1 -1 $-1 $188 $187 $432 $433 reversed $71 $-1 #
edge $-1 -1 $-1 $434 0 $306 10 $301 $435 forward @7 unknown #
vertex $-1 -1 $-1 $305 $436 #
straight-curve $-1 -1 $-1 10 -22.5 20 0 -1 0 I I #
coedge $-1 -1 $-1 $432 $437 $191 $309 forward $425 $-1 #
edge $438 -1 $-1 $313 -5 $310 5 $191 $439 forward @7 unknown #
vertex $-1 -1 $-1 $309 $440 #
straight-curve $-1 -1 $-1 10 -10 10 0 0 1 I I #
coedge $-1 -1 $-1 $427 $193 $437 $441 reversed $184 $-1 #
vertex $-1 -1 $-1 $441 $442 #
straight-curve $-1 -1 $-1 0 -10 10 0 0 1 I I #
edge $-1 -1 $-1 $430 -12.5 $197 -2.5 $299 $443 forward @7 unknown #
point $-1 -1 $-1 0 -10 20 #
point $-1 -1 $-1 10 -10 20 #
face $-1 -1 $-1 $-1 $444 $27 $-1 $445 reversed single #
plane-surface $-1 -1 $-1 -15 -15 20 0 0 1 1 0 0 forward_v I I I I #
coedge $-1 -1 $-1 $210 $446 $212 $336 forward $201 $-1 #
coedge $-1 -1 $-1 $447 $203 $446 $448 reversed $120 $-1 #
coedge $-1 -1 $-1 $203 $447 $204 $326 forward $120 $-1 #
coedge $-1 -1 $-1 $206 $212 $203 $324 reversed $213 $-1 #
edge $-1 -1 $-1 $327 -7.5 $449 22.5 $203 $450 forward @7 unknown #
coedge $-1 -1 $-1 $205 $204 $451 $452 forward $75 $-1 #
edge $-1 -1 $-1 $453 0 $327 40 $322 $454 forward @7 unknown #
vertex $-1 -1 $-1 $326 $455 #
straight-curve $-1 -1 $-1 -7.5 0 20 1 0 0 I I #
coedge $-1 -1 $-1 $451 $456 $208 $330 reversed $444 $-1 #
edge $-1 -1 $-1 $331 -7.5 $334 22.5 $208 $457 forward @7 unknown #
vertex $-1 -1 $-1 $452 $458 #
straight-curve $-1 -1 $-1 -30 0 -20 0 0 1 I I #
coedge $-1 -1 $-1 $446 $210 $456 $459 forward $201 $-1 #
vertex $-1 -1 $-1 $459 $460 #
straight-curve $-1 -1 $-1 -30 -30 -20 0 0 1 I I #
edge $-1 -1 $-1 $449 -7.5 $214 22.5 $320 $461 forward @7 unknown #
point $-1 -1 $-1 -30 -30 20 #
point $-1 -1 $-1 -30 0 20 #
face $-1 -1 $-1 $362 $357 $29 $-1 $462 forward single #
loop $-1 -1 $-1 $-1 $463 $217 #
plane-surface $-1 -1 $-1 10 -30 -20 -1 0 0 0 0 1 forward_v I I I I #
coedge $-1 -1 $-1 $464 $465 $466 $467 forward $218 $-1 #
coedge $-1 -1 $-1 $468 $220 $465 $469 reversed $128 $-1 #
coedge $-1 -1 $-1 $220 $468 $221 $348 forward $128 $-1 #
coedge $-1 -1 $-1 $223 $466 $220 $346 reversed $230 $-1 #
edge $-1 -1 $-1 $349 -30 $470 30 $220 $471 forward @7 unknown #
coedge $-1 -1 $-1 $222 $221 $472 $473 forward $79 $-1 #
edge $-1 -1 $-1 $474 0 $349 40 $344 $475 forward @7 unknown #
vertex $-1 -1 $-1 $348 $476 #
straight-curve $-1 -1 $-1 0 30 20 1 0 0 I I #
coedge $-1 -1 $-1 $472 $477 $225 $352 reversed $478 $-1 #
edge $-1 -1 $-1 $353 -20 $358 0 $225 $479 forward @7 unknown #
vertex $-1 -1 $-1 $473 $480 #
straight-curve $-1 -1 $-1 -30 30 -20 0 0 1 I I #
coedge $-1 -1 $-1 $481 $227 $477 $482 forward $357 $-1 #
coedge $-1 -1 $-1 $227 $481 $229 $361 forward $357 $-1 #
loop $-1 -1 $-1 $-1 $356 $339 #
vertex $-1 -1 $-1 $482 $483 #
straight-curve $-1 -1 $-1 -30 10 -20 0 0 1 I I #
coedge $-1 -1 $-1 $466 $229 $463 $484 reversed $230 $-1 #
edge $-1 -1 $-1 $485 -10 $231 30 $356 $486 forward @7 unknown #
face $-1 -1 $-1 $487 $230 $29 $-1 $488 forward single #
point $-1 -1 $-1 -30 10 20 #
point $-1 -1 $-1 -30 30 20 #
model_id-kcp-attrib $-1 -1 $-1 $-1 $235 1 1021382406 1021382406 -972881919 8 #
face $489 -1 $-1 $490 $491 $9 $-1 $492 forward single #
loop $-1 -1 $-1 $-1 $493 $235 #
plane-surface $-1 -1 $-1 -15 0 0 0 -1 0 0 0 -1 forward_v I I I I #
coedge $-1 -1 $-1 $494 $495 $496 $497 reversed $236 $-1 #
coedge $-1 -1 $-1 $387 $238 $379 $498 reversed $137 $-1 #
coedge $-1 -1 $-1 $238 $387 $499 $500 reversed $137 $-1 #
coedge $-1 -1 $-1 $495 $494 $238 $373 forward $236 $-1 #
edge $-1 -1 $-1 $501 -20 $502 20 $372 $503 forward @7 unknown #
coedge $-1 -1 $-1 $239 $504 $385 $505 forward $245 $-1 #
attrib_edge_convexity-kcp-attrib $-1 -1 $506 $-1 $240 1 #
vertex $-1 -1 $-1 $505 $507 #
straight-curve $-1 -1 $-1 2.5 -10 20 1 0 0 I I #
point $-1 -1 $-1 10 -10 20 #
coedge $-1 -1 $-1 $508 $243 $370 $498 forward $245 $-1 #
coedge $-1 -1 $-1 $244 $509 $510 $511 forward $245 $-1 #
loop $-1 -1 $-1 $-1 $512 $382 #
face $513 -1 $-1 $514 $245 $9 $-1 $515 forward single #
convexity-sys-attrib $-1 -1 $-1 $246 $143 #
point $-1 -1 $-1 10 -20 20 #
coedge $-1 -1 $-1 $516 $249 $374 $505 reversed $84 $-1 #
coedge $-1 -1 $-1 $250 $516 $517 $518 reversed $84 $-1 #
coedge $-1 -1 $-1 $371 $370 $250 $388 forward $137 $-1 #
edge $-1 -1 $-1 $390 -20 $519 20 $250 $520 forward @7 unknown #
attrib_edge_convexity-kcp-attrib $-1 -1 $521 $-1 $251 1 #
vertex $-1 -1 $-1 $498 $522 #
straight-curve $-1 -1 $-1 0 -7.5 20 0 -1 0 I I #
convexity-sys-attrib $-1 -1 $-1 $254 $149 #
straight-curve $-1 -1 $-1 0 -10 7.5 0 0 1 I I #
coedge $-1 -1 $-1 $263 $260 $523 $524 reversed $97 $-1 #
coedge $-1 -1 $-1 $510 $525 $260 $396 reversed $526 $-1 #
edge $-1 -1 $-1 $398 -20 $527 20 $260 $528 forward @7 unknown #
attrib_edge_convexity-kcp-attrib $-1 -1 $529 $-1 $261 1 #
vertex $-1 -1 $-1 $511 $530 #
straight-curve $-1 -1 $-1 10 0 20 0 1 0 I I #
coedge $-1 -1 $-1 $531 $532 $263 $401 reversed $491 $-1 #
edge $-1 -1 $-1 $533 -20 $404 20 $263 $534 forward @7 unknown #
coedge $-1 -1 $-1 $535 $264 $532 $536 forward $245 $-1 #
attrib_edge_convexity-kcp-attrib $-1 -1 $537 $-1 $265 1 #
vertex $-1 -1 $-1 $265 $538 #
model_id-kcp-attrib $-1 -1 $-1 $-1 $267 1 1021382406 1021382406 -972881919 14 #
loop $-1 -1 $-1 $-1 $539 $267 #
plane-surface $-1 -1 $-1 20 30 0 0 -1 0 0 0 -1 forward_v I I I I #
model_id-kcp-attrib $-1 -1 $-1 $-1 $270 1 1021382406 1021382406 -972881918 7 #
plane-surface $-1 -1 $-1 40 0 0 -1 0 0 0 0 1 forward_v I I I I #
coedge $-1 -1 $-1 $275 $273 $277 $414 reversed $165 $-1 #
edge $-1 -1 $-1 $288 -20 $416 20 $287 $540 forward @7 unknown #
vertex $-1 -1 $-1 $414 $541 #
straight-curve $-1 -1 $-1 -40 -40 0 0 0 -1 I I #
edge $-1 -1 $-1 $412 -40 $416 40 $410 $542 forward @7 unknown #
straight-curve $-1 -1 $-1 0 -40 -20 -1 0 0 I I #
vertex $-1 -1 $-1 $280 $543 #
straight-curve $-1 -1 $-1 0 40 -20 1 0 0 I I #
point $-1 -1 $-1 40 40 -20 #
point $-1 -1 $-1 40 -40 -20 #
straight-curve $-1 -1 $-1 -40 0 20 0 -1 0 I I #
point $-1 -1 $-1 -40 40 20 #
point $-1 -1 $-1 -40 -40 20 #
straight-curve $-1 -1 $-1 40 -40 0 0 0 -1 I I #
straight-curve $-1 -1 $-1 40 40 0 0 0 -1 I I #
loop $-1 -1 $-1 $-1 $437 $297 #
plane-surface $-1 -1 $-1 5 -15 10 0 0 1 1 0 0 forward_v I I I I #
coedge $-1 -1 $-1 $299 $312 $300 $429 forward $184 $-1 #
coedge $-1 -1 $-1 $301 $300 $544 $545 reversed $112 $-1 #
edge $-1 -1 $-1 $546 0 $430 10 $427 $547 forward @7 unknown #
vertex $-1 -1 $-1 $429 $548 #
straight-curve $-1 -1 $-1 5 -20 20 -1 0 0 I I #
coedge $-1 -1 $-1 $544 $308 $304 $433 forward $425 $-1 #
edge $549 -1 $-1 $310 -12.5 $434 -2.5 $304 $550 forward @7 unknown #
vertex $-1 -1 $-1 $433 $551 #
straight-curve $-1 -1 $-1 10 -20 10 0 0 1 I I #
point $-1 -1 $-1 10 -20 20 #
coedge $-1 -1 $-1 $308 $544 $312 $441 forward $425 $-1 #
convexity-sys-attrib $-1 -1 $-1 $-1 $309 #
straight-curve $-1 -1 $-1 5 -10 10 1 0 0 I I #
point $-1 -1 $-1 10 -10 10 #
edge $552 -1 $-1 $546 -12.5 $313 -2.5 $312 $553 forward @7 unknown #
point $-1 -1 $-1 0 -10 10 #
straight-curve $-1 -1 $-1 0 -7.5 20 0 1 0 I I #
loop $-1 -1 $-1 $-1 $456 $318 #
plane-surface $-1 -1 $-1 -15 -15 -20 0 0 1 1 0 0 forward_v I I I I #
coedge $-1 -1 $-1 $320 $333 $321 $448 forward $201 $-1 #
coedge $-1 -1 $-1 $322 $321 $554 $555 forward $120 $-1 #
edge $-1 -1 $-1 $556 0 $449 40 $446 $557 forward @7 unknown #
vertex $-1 -1 $-1 $448 $558 #
straight-curve $-1 -1 $-1 0 -7.5 20 0 -1 0 I I #
coedge $-1 -1 $-1 $554 $329 $325 $452 reversed $444 $-1 #
edge $-1 -1 $-1 $453 -7.5 $331 22.5 $325 $559 forward @7 unknown #
vertex $-1 -1 $-1 $555 $560 #
straight-curve $-1 -1 $-1 0 0 -20 0 0 1 I I #
point $-1 -1 $-1 0 0 20 #
coedge $-1 -1 $-1 $329 $554 $333 $459 reversed $444 $-1 #
straight-curve $-1 -1 $-1 -30 -7.5 -20 0 -1 0 I I #
point $-1 -1 $-1 -30 0 -20 #
edge $-1 -1 $-1 $334 -22.5 $556 7.5 $333 $561 forward @7 unknown #
point $-1 -1 $-1 -30 -30 -20 #
straight-curve $-1 -1 $-1 -7.5 -30 20 -1 0 0 I I #
plane-surface $-1 -1 $-1 10 10 -20 0 -1 0 0 0 -1 forward_v I I I I #
coedge $-1 -1 $-1 $562 $563 $360 $484 forward $340 $-1 #
coedge $-1 -1 $-1 $564 $342 $563 $565 reversed $218 $-1 #
coedge $-1 -1 $-1 $342 $564 $343 $469 forward $218 $-1 #
coedge $-1 -1 $-1 $345 $360 $342 $467 reversed $230 $-1 #
edge $-1 -1 $-1 $470 -20 $566 0 $342 $567 forward @7 unknown #
coedge $-1 -1 $-1 $344 $343 $568 $569 forward $128 $-1 #
edge $-1 -1 $-1 $570 0 $470 40 $465 $571 forward @7 unknown #
vertex $-1 -1 $-1 $469 $572 #
straight-curve $-1 -1 $-1 30 0 20 0 -1 0 I I #
coedge $-1 -1 $-1 $568 $351 $347 $473 reversed $478 $-1 #
edge $-1 -1 $-1 $474 -30 $353 30 $347 $573 forward @7 unknown #
vertex $-1 -1 $-1 $569 $574 #
straight-curve $-1 -1 $-1 30 30 -20 0 0 1 I I #
point $-1 -1 $-1 30 30 20 #
coedge $-1 -1 $-1 $351 $575 $355 $482 reversed $478 $-1 #
loop $-1 -1 $-1 $-1 $477 $487 #
straight-curve $-1 -1 $-1 -30 10 -20 0 -1 0 I I #
point $-1 -1 $-1 -30 30 -20 #
coedge $-1 -1 $-1 $356 $355 $562 $576 forward $357 $-1 #
edge $-1 -1 $-1 $358 -30 $577 10 $355 $578 forward @7 unknown #
point $-1 -1 $-1 -30 10 -20 #
edge $-1 -1 $-1 $566 -30 $485 10 $463 $579 forward @7 unknown #
vertex $-1 -1 $-1 $576 $580 #
straight-curve $-1 -1 $-1 0 10 20 -1 0 0 I I #
face $-1 -1 $-1 $-1 $478 $29 $-1 $581 reversed single #
plane-surface $-1 -1 $-1 6.6666666666666661 6.6666666666666661 20 0 0 1 1 0 0 forward_v I I I I #
model_id-kcp-attrib $-1 -1 $-1 $-1 $366 1 1021382406 1021382406 -972881919 9 #
face $582 -1 $-1 $583 $584 $9 $-1 $585 forward single #
loop $-1 -1 $-1 $-1 $400 $366 #
plane-surface $-1 -1 $-1 0 10 0 0 1 0 0 0 1 forward_v I I I I #
coedge $-1 -1 $-1 $586 $587 $516 $588 reversed $367 $-1 #
coedge $-1 -1 $-1 $372 $369 $508 $589 reversed $236 $-1 #
coedge $-1 -1 $-1 $369 $372 $590 $591 reversed $236 $-1 #
coedge $-1 -1 $-1 $587 $586 $369 $497 forward $367 $-1 #
edge $-1 -1 $-1 $592 -20 $593 20 $496 $594 forward @7 unknown #
edge $595 -1 $-1 $390 -7.5 $501 22.5 $379 $596 forward @7 unknown #
coedge $-1 -1 $-1 $517 $590 $371 $500 forward $597 $-1 #
edge $-1 -1 $-1 $502 -22.5 $519 7.5 $499 $598 forward @7 unknown #
vertex $-1 -1 $-1 $498 $599 #
vertex $-1 -1 $-1 $500 $600 #
straight-curve $-1 -1 $-1 -30 -30 0 0 0 -1 I I #
coedge $-1 -1 $-1 $374 $508 $586 $601 forward $245 $-1 #
edge $602 -1 $-1 $603 -7.5 $376 2.5 $374 $391 forward @7 unknown #
convexity-sys-attrib $-1 -1 $-1 $375 $240 #
point $-1 -1 $-1 0 -10 20 #
coedge $-1 -1 $-1 $504 $379 $494 $589 forward $245 $-1 #
coedge $-1 -1 $-1 $380 $604 $605 $606 forward $245 $-1 #
coedge $-1 -1 $-1 $607 $395 $380 $511 reversed $526 $-1 #
edge $608 -1 $-1 $609 -20 $398 0 $380 $610 forward @7 unknown #
coedge $-1 -1 $-1 $611 $612 $613 $614 forward $381 $-1 #
model_id-kcp-attrib $-1 -1 $-1 $-1 $382 1 1021382406 1021382406 -972881919 15 #
face $615 -1 $-1 $616 $597 $9 $-1 $617 reversed single #
plane-surface $-1 -1 $-1 0 0 20 0 0 1 1 0 0 forward_v I I I I #
coedge $-1 -1 $-1 $386 $385 $493 $588 forward $84 $-1 #
coedge $-1 -1 $-1 $618 $499 $386 $518 forward $597 $-1 #
edge $-1 -1 $-1 $519 -22.5 $619 7.5 $517 $620 forward @7 unknown #
vertex $-1 -1 $-1 $500 $621 #
straight-curve $-1 -1 $-1 0 -30 0 0 0 -1 I I #
convexity-sys-attrib $-1 -1 $-1 $389 $251 #
point $-1 -1 $-1 0 -30 20 #
coedge $-1 -1 $-1 $622 $623 $394 $524 forward $624 $-1 #
edge $-1 -1 $-1 $533 -10 $527 30 $523 $625 forward @7 unknown #
coedge $-1 -1 $-1 $395 $607 $622 $626 reversed $526 $-1 #
loop $-1 -1 $-1 $-1 $395 $627 #
vertex $-1 -1 $-1 $626 $628 #
straight-curve $-1 -1 $-1 10 -30 0 0 0 -1 I I #
convexity-sys-attrib $-1 -1 $-1 $397 $261 #
point $-1 -1 $-1 10 -30 20 #
coedge $-1 -1 $-1 $629 $400 $623 $630 reversed $491 $-1 #
coedge $-1 -1 $-1 $400 $629 $402 $536 reversed $491 $-1 #
vertex $-1 -1 $-1 $630 $631 #
straight-curve $-1 -1 $-1 10 10 0 0 0 1 I I #
coedge $-1 -1 $-1 $604 $402 $632 $633 forward $245 $-1 #
edge $634 -1 $-1 $404 -10 $635 30 $402 $636 forward @7 unknown #
convexity-sys-attrib $-1 -1 $-1 $403 $265 #
point $-1 -1 $-1 10 10 20 #
coedge $-1 -1 $-1 $637 $638 $639 $640 forward $406 $-1 #
straight-curve $-1 -1 $-1 -40 40 0 0 0 -1 I I #
point $-1 -1 $-1 -40 -40 -20 #
straight-curve $-1 -1 $-1 -40 0 -20 0 1 0 I I #
point $-1 -1 $-1 -40 40 -20 #
coedge $-1 -1 $-1 $437 $432 $428 $545 forward $425 $-1 #
edge $641 -1 $-1 $434 -5 $546 5 $428 $642 forward @7 unknown #
vertex $-1 -1 $-1 $441 $643 #
straight-curve $-1 -1 $-1 0 -20 10 0 0 1 I I #
point $-1 -1 $-1 0 -20 20 #
convexity-sys-attrib $-1 -1 $-1 $-1 $433 #
straight-curve $-1 -1 $-1 10 -22.5 10 0 -1 0 I I #
point $-1 -1 $-1 10 -20 10 #
convexity-sys-attrib $-1 -1 $-1 $-1 $441 #
straight-curve $-1 -1 $-1 0 -7.5 10 0 1 0 I I #
coedge $-1 -1 $-1 $456 $451 $447 $555 reversed $444 $-1 #
edge $-1 -1 $-1 $556 -22.5 $453 7.5 $447 $644 forward @7 unknown #
vertex $-1 -1 $-1 $459 $645 #
straight-curve $-1 -1 $-1 0 -30 -20 0 0 1 I I #
point $-1 -1 $-1 0 -30 20 #
straight-curve $-1 -1 $-1 -7.5 0 -20 -1 0 0 I I #
point $-1 -1 $-1 0 0 -20 #
straight-curve $-1 -1 $-1 -7.5 -30 -20 1 0 0 I I #
coedge $-1 -1 $-1 $646 $463 $481 $576 reversed $340 $-1 #
coedge $-1 -1 $-1 $463 $646 $464 $565 forward $340 $-1 #
coedge $-1 -1 $-1 $465 $464 $647 $648 forward $218 $-1 #
edge $-1 -1 $-1 $649 0 $566 40 $563 $650 forward @7 unknown #
vertex $-1 -1 $-1 $565 $651 #
straight-curve $-1 -1 $-1 10 -30 20 -1 0 0 I I #
coedge $-1 -1 $-1 $647 $472 $468 $569 reversed $478 $-1 #
edge $-1 -1 $-1 $570 -30 $474 30 $468 $652 forward @7 unknown #
vertex $-1 -1 $-1 $648 $653 #
straight-curve $-1 -1 $-1 30 -30 -20 0 0 1 I I #
point $-1 -1 $-1 30 -30 20 #
straight-curve $-1 -1 $-1 0 30 -20 -1 0 0 I I #
point $-1 -1 $-1 30 30 -20 #
coedge $-1 -1 $-1 $477 $647 $646 $654 reversed $478 $-1 #
edge $-1 -1 $-1 $577 0 $485 40 $481 $655 forward @7 unknown #
vertex $-1 -1 $-1 $482 $656 #
straight-curve $-1 -1 $-1 0 10 -20 1 0 0 I I #
straight-curve $-1 -1 $-1 10 0 20 0 1 0 I I #
point $-1 -1 $-1 10 10 20 #
plane-surface $-1 -1 $-1 6.6666666666666661 6.6666666666666661 -20 0 0 1 1 0 0 forward_v I I I I #
model_id-kcp-attrib $-1 -1 $-1 $-1 $490 1 1021382406 1021382406 -972881919 10 #
face $657 -1 $-1 $627 $658 $9 $-1 $659 forward single #
loop $-1 -1 $-1 $-1 $660 $490 #
plane-surface $-1 -1 $-1 -30 20 0 1 0 0 0 0 -1 forward_v I I I I #
coedge $-1 -1 $-1 $496 $493 $504 $601 reversed $367 $-1 #
coedge $-1 -1 $-1 $493 $496 $618 $661 reversed $367 $-1 #
edge $-1 -1 $-1 $603 -20 $619 20 $516 $662 forward @7 unknown #
edge $663 -1 $-1 $501 -22.5 $592 7.5 $508 $664 forward @7 unknown #
coedge $-1 -1 $-1 $499 $618 $495 $591 forward $597 $-1 #
edge $-1 -1 $-1 $593 -7.5 $502 22.5 $590 $665 forward @7 unknown #
vertex $-1 -1 $-1 $589 $666 #
vertex $-1 -1 $-1 $591 $667 #
straight-curve $-1 -1 $-1 -30 0 0 0 0 -1 I I #
attrib_edge_convexity-kcp-attrib $-1 -1 $668 $-1 $498 1 #
straight-curve $-1 -1 $-1 -7.5 -30 20 -1 0 0 I I #
loop $-1 -1 $-1 $624 $499 $514 #
straight-curve $-1 -1 $-1 -7.5 -30 -20 1 0 0 I I #
point $-1 -1 $-1 -30 -30 20 #
point $-1 -1 $-1 -30 -30 -20 #
edge $669 -1 $-1 $592 -22.5 $603 7.5 $504 $670 forward @7 unknown #
attrib_edge_convexity-kcp-attrib $-1 -1 $671 $-1 $505 1 #
vertex $-1 -1 $-1 $601 $672 #
coedge $-1 -1 $-1 $509 $535 $637 $673 forward $245 $-1 #
coedge $-1 -1 $-1 $639 $674 $509 $606 reversed $658 $-1 #
edge $675 -1 $-1 $676 -30 $609 30 $509 $677 forward @7 unknown #
coedge $-1 -1 $-1 $525 $510 $674 $678 forward $526 $-1 #
attrib_edge_convexity-kcp-attrib $-1 -1 $679 $-1 $511 1 #
vertex $-1 -1 $-1 $511 $680 #
straight-curve $-1 -1 $-1 10 -30 20 -1 0 0 I I #
coedge $-1 -1 $-1 $681 $512 $682 $683 forward $381 $-1 #
coedge $-1 -1 $-1 $512 $681 $684 $685 forward $381 $-1 #
coedge $-1 -1 $-1 $686 $687 $512 $614 reversed $688 $-1 #
edge $689 -1 $-1 $690 -40 $691 40 $613 $692 forward @7 unknown #
model_id-kcp-attrib $-1 -1 $-1 $-1 $514 1 1021382406 1021382406 -972881919 16 #
face $693 -1 $-1 $694 $695 $9 $-1 $696 reversed single #
plane-surface $-1 -1 $-1 0 0 -20 0 0 1 1 0 0 forward_v I I I I #
coedge $-1 -1 $-1 $590 $517 $587 $661 forward $597 $-1 #
vertex $-1 -1 $-1 $661 $697 #
straight-curve $-1 -1 $-1 0 -7.5 -20 0 1 0 I I #
point $-1 -1 $-1 0 -30 -20 #
coedge $-1 -1 $-1 $698 $523 $525 $626 forward $624 $-1 #
coedge $-1 -1 $-1 $523 $699 $531 $630 forward $624 $-1 #
loop $-1 -1 $-1 $700 $623 $514 #
straight-curve $-1 -1 $-1 10 0 -20 0 -1 0 I I #
edge $-1 -1 $-1 $527 0 $701 20 $622 $702 forward @7 unknown #
face $703 -1 $-1 $159 $526 $9 $-1 $704 forward single #
point $-1 -1 $-1 10 -30 -20 #
coedge $-1 -1 $-1 $532 $531 $705 $706 reversed $491 $-1 #
edge $-1 -1 $-1 $707 -30 $533 10 $623 $708 forward @7 unknown #
point $-1 -1 $-1 10 10 -20 #
coedge $-1 -1 $-1 $705 $660 $535 $633 reversed $584 $-1 #
edge $709 -1 $-1 $635 0 $710 20 $535 $711 forward @7 unknown #
attrib_edge_convexity-kcp-attrib $-1 -1 $712 $-1 $536 1 #
vertex $-1 -1 $-1 $536 $713 #
straight-curve $-1 -1 $-1 0 10 20 -1 0 0 I I #
coedge $-1 -1 $-1 $714 $539 $604 $673 reversed $406 $-1 #
coedge $-1 -1 $-1 $539 $714 $715 $716 reversed $406 $-1 #
coedge $-1 -1 $-1 $717 $605 $539 $640 reversed $658 $-1 #
edge $-1 -1 $-1 $718 -20 $676 20 $639 $719 reversed @7 unknown #
convexity-sys-attrib $-1 -1 $-1 $-1 $545 #
straight-curve $-1 -1 $-1 5 -20 10 -1 0 0 I I #
point $-1 -1 $-1 0 -20 10 #
straight-curve $-1 -1 $-1 0 -7.5 -20 0 1 0 I I #
point $-1 -1 $-1 0 -30 -20 #
coedge $-1 -1 $-1 $563 $562 $575 $654 forward $340 $-1 #
coedge $-1 -1 $-1 $575 $568 $564 $648 reversed $478 $-1 #
edge $-1 -1 $-1 $649 0 $570 20 $564 $720 forward @7 unknown #
vertex $-1 -1 $-1 $654 $721 #
straight-curve $-1 -1 $-1 10 -30 -20 0 0 1 I I #
point $-1 -1 $-1 10 -30 20 #
straight-curve $-1 -1 $-1 30 0 -20 0 1 0 I I #
point $-1 -1 $-1 30 -30 -20 #
edge $-1 -1 $-1 $577 -10 $649 30 $646 $722 forward @7 unknown #
straight-curve $-1 -1 $-1 10 10 -20 0 0 1 I I #
point $-1 -1 $-1 10 10 -20 #
model_id-kcp-attrib $-1 -1 $-1 $-1 $583 1 1021382406 1021382406 -972881919 11 #
loop $-1 -1 $-1 $-1 $717 $583 #
plane-surface $-1 -1 $-1 30 0 0 -1 0 0 0 0 1 forward_v I I I I #
coedge $-1 -1 $-1 $632 $723 $714 $724 reversed $584 $-1 #
edge $-1 -1 $-1 $619 -7.5 $593 22.5 $618 $725 forward @7 unknown #
straight-curve $-1 -1 $-1 0 0 0 0 0 -1 I I #
attrib_edge_convexity-kcp-attrib $-1 -1 $726 $-1 $589 1 #
straight-curve $-1 -1 $-1 -30 -7.5 20 0 1 0 I I #
straight-curve $-1 -1 $-1 -30 -7.5 -20 0 -1 0 I I #
point $-1 -1 $-1 -30 0 20 #
point $-1 -1 $-1 -30 0 -20 #
convexity-sys-attrib $-1 -1 $-1 $595 $498 #
attrib_edge_convexity-kcp-attrib $-1 -1 $727 $-1 $601 1 #
straight-curve $-1 -1 $-1 -7.5 0 20 1 0 0 I I #
convexity-sys-attrib $-1 -1 $-1 $602 $505 #
point $-1 -1 $-1 0 0 20 #
edge $728 -1 $-1 $710 -30 $676 30 $604 $729 forward @7 unknown #
coedge $-1 -1 $-1 $605 $717 $607 $678 reversed $658 $-1 #
attrib_edge_convexity-kcp-attrib $-1 -1 $730 $-1 $606 1 #
vertex $-1 -1 $-1 $673 $731 #
straight-curve $-1 -1 $-1 30 0 20 0 -1 0 I I #
edge $-1 -1 $-1 $609 -20 $701 20 $674 $732 forward @7 unknown #
convexity-sys-attrib $-1 -1 $-1 $608 $511 #
point $-1 -1 $-1 30 -30 20 #
coedge $-1 -1 $-1 $612 $611 $733 $734 forward $381 $-1 #
coedge $-1 -1 $-1 $735 $736 $611 $683 reversed $737 $-1 #
edge $738 -1 $-1 $691 -40 $739 40 $682 $740 forward @7 unknown #
coedge $-1 -1 $-1 $741 $742 $612 $685 reversed $695 $-1 #
edge $743 -1 $-1 $744 -40 $690 40 $684 $745 forward @7 unknown #
coedge $-1 -1 $-1 $746 $613 $742 $747 forward $688 $-1 #
coedge $-1 -1 $-1 $613 $746 $735 $748 reversed $688 $-1 #
loop $-1 -1 $-1 $-1 $686 $749 #
attrib_edge_convexity-kcp-attrib $-1 -1 $750 $-1 $614 1 #
vertex $-1 -1 $-1 $614 $751 #
vertex $-1 -1 $-1 $614 $752 #
straight-curve $-1 -1 $-1 40 0 20 0 1 0 I I #
model_id-kcp-attrib $-1 -1 $-1 $-1 $616 1 1021382406 1021382406 -972881919 17 #
face $753 -1 $-1 $754 $755 $9 $-1 $756 reversed single #
loop $-1 -1 $-1 $-1 $741 $616 #
plane-surface $-1 -1 $-1 0 -40 0 0 1 0 0 0 1 forward_v I I I I #
point $-1 -1 $-1 0 0 -20 #
coedge $-1 -1 $-1 $715 $622 $717 $757 forward $624 $-1 #
coedge $-1 -1 $-1 $623 $715 $723 $758 forward $624 $-1 #
loop $-1 -1 $-1 $-1 $759 $514 #
vertex $-1 -1 $-1 $626 $760 #
straight-curve $-1 -1 $-1 10 -30 -20 1 0 0 I I #
model_id-kcp-attrib $-1 -1 $-1 $-1 $627 1 1021382406 1021382406 -972881919 12 #
plane-surface $-1 -1 $-1 20 -30 0 0 1 0 0 0 1 forward_v I I I I #
coedge $-1 -1 $-1 $723 $632 $629 $706 forward $584 $-1 #
edge $-1 -1 $-1 $635 -20 $707 20 $705 $761 forward @7 unknown #
vertex $-1 -1 $-1 $630 $762 #
straight-curve $-1 -1 $-1 0 10 -20 1 0 0 I I #
attrib_edge_convexity-kcp-attrib $-1 -1 $763 $-1 $633 1 #
vertex $-1 -1 $-1 $633 $764 #
straight-curve $-1 -1 $-1 -30 10 20 0 1 0 I I #
convexity-sys-attrib $-1 -1 $-1 $634 $536 #
point $-1 -1 $-1 -30 10 20 #
coedge $-1 -1 $-1 $638 $637 $660 $724 forward $406 $-1 #
coedge $-1 -1 $-1 $699 $698 $638 $716 forward $624 $-1 #
edge $-1 -1 $-1 $718 -30 $765 30 $715 $766 forward @7 unknown #
coedge $-1 -1 $-1 $674 $639 $698 $757 reversed $658 $-1 #
vertex $-1 -1 $-1 $716 $767 #
straight-curve $-1 -1 $-1 30 30 0 0 0 -1 I I #
straight-curve $-1 -1 $-1 10 -30 -20 1 0 0 I I #
point $-1 -1 $-1 10 -30 -20 #
straight-curve $-1 -1 $-1 10 0 -20 0 -1 0 I I #
coedge $-1 -1 $-1 $660 $705 $699 $758 reversed $584 $-1 #
edge $-1 -1 $-1 $710 -20 $765 20 $714 $768 forward @7 unknown #
straight-curve $-1 -1 $-1 -7.5 0 -20 -1 0 0 I I #
convexity-sys-attrib $-1 -1 $-1 $663 $589 #
convexity-sys-attrib $-1 -1 $-1 $669 $601 #
attrib_edge_convexity-kcp-attrib $-1 -1 $769 $-1 $673 1 #
straight-curve $-1 -1 $-1 0 30 20 1 0 0 I I #
convexity-sys-attrib $-1 -1 $-1 $675 $606 #
point $-1 -1 $-1 30 30 20 #
straight-curve $-1 -1 $-1 30 -30 0 0 0 -1 I I #
coedge $-1 -1 $-1 $770 $771 $681 $734 reversed $755 $-1 #
edge $772 -1 $-1 $739 -40 $744 40 $733 $773 forward @7 unknown #
coedge $-1 -1 $-1 $774 $682 $687 $748 forward $737 $-1 #
coedge $-1 -1 $-1 $682 $774 $770 $775 reversed $737 $-1 #
loop $-1 -1 $-1 $-1 $735 $754 #
attrib_edge_convexity-kcp-attrib $-1 -1 $776 $-1 $683 1 #
vertex $-1 -1 $-1 $683 $777 #
straight-curve $-1 -1 $-1 0 40 20 -1 0 0 I I #
coedge $-1 -1 $-1 $778 $684 $771 $779 forward $695 $-1 #
coedge $-1 -1 $-1 $684 $778 $686 $747 reversed $695 $-1 #
attrib_edge_convexity-kcp-attrib $-1 -1 $780 $-1 $685 1 #
vertex $-1 -1 $-1 $734 $781 #
straight-curve $-1 -1 $-1 0 -40 20 1 0 0 I I #
coedge $-1 -1 $-1 $687 $686 $759 $782 reversed $688 $-1 #
edge $783 -1 $-1 $690 -20 $784 20 $686 $785 forward @7 unknown #
edge $-1 -1 $-1 $691 -20 $786 20 $687 $787 forward @7 unknown #
face $788 -1 $-1 $-1 $688 $9 $-1 $789 reversed single #
convexity-sys-attrib $-1 -1 $-1 $689 $614 #
point $-1 -1 $-1 40 -40 20 #
point $-1 -1 $-1 40 40 20 #
model_id-kcp-attrib $-1 -1 $-1 $-1 $694 1 1021382406 1021382406 -972881919 18 #
face $790 -1 $-1 $749 $737 $9 $-1 $791 reversed single #
loop $-1 -1 $-1 $-1 $770 $694 #
plane-surface $-1 -1 $-1 -40 0 0 1 0 0 0 0 -1 forward_v I I I I #
edge $-1 -1 $-1 $701 -30 $718 30 $698 $792 forward @7 unknown #
edge $-1 -1 $-1 $765 -20 $707 0 $699 $793 forward @7 unknown #
coedge $-1 -1 $-1 $794 $795 $746 $782 forward $700 $-1 #
point $-1 -1 $-1 30 -30 -20 #
straight-curve $-1 -1 $-1 -30 10 0 0 0 -1 I I #
point $-1 -1 $-1 -30 10 -20 #
convexity-sys-attrib $-1 -1 $-1 $709 $633 #
point $-1 -1 $-1 -30 30 20 #
vertex $-1 -1 $-1 $758 $796 #
straight-curve $-1 -1 $-1 0 30 -20 -1 0 0 I I #
point $-1 -1 $-1 30 30 -20 #
straight-curve $-1 -1 $-1 -30 30 0 0 0 -1 I I #
convexity-sys-attrib $-1 -1 $-1 $728 $673 #
coedge $-1 -1 $-1 $797 $733 $736 $775 forward $755 $-1 #
coedge $-1 -1 $-1 $733 $797 $741 $779 reversed $755 $-1 #
attrib_edge_convexity-kcp-attrib $-1 -1 $798 $-1 $734 1 #
straight-curve $-1 -1 $-1 -40 0 20 0 -1 0 I I #
coedge $-1 -1 $-1 $736 $735 $795 $799 reversed $737 $-1 #
edge $800 -1 $-1 $739 -20 $801 20 $736 $802 forward @7 unknown #
convexity-sys-attrib $-1 -1 $-1 $738 $683 #
point $-1 -1 $-1 -40 40 20 #
coedge $-1 -1 $-1 $742 $741 $794 $803 reversed $695 $-1 #
edge $804 -1 $-1 $744 -20 $805 20 $771 $806 forward @7 unknown #
convexity-sys-attrib $-1 -1 $-1 $743 $685 #
point $-1 -1 $-1 -40 -40 20 #
edge $-1 -1 $-1 $786 -40 $784 40 $746 $807 forward @7 unknown #
attrib_edge_convexity-kcp-attrib $-1 -1 $808 $-1 $747 1 #
vertex $-1 -1 $-1 $747 $809 #
straight-curve $-1 -1 $-1 40 -40 0 0 0 -1 I I #
vertex $-1 -1 $-1 $782 $810 #
straight-curve $-1 -1 $-1 40 40 0 0 0 -1 I I #
model_id-kcp-attrib $-1 -1 $-1 $-1 $749 1 1021382406 1021382406 -972881919 20 #
plane-surface $-1 -1 $-1 40 0 0 -1 0 0 0 0 1 forward_v I I I I #
model_id-kcp-attrib $-1 -1 $-1 $-1 $754 1 1021382406 1021382406 -972881919 19 #
plane-surface $-1 -1 $-1 0 40 0 0 -1 0 0 0 -1 forward_v I I I I #
straight-curve $-1 -1 $-1 30 0 -20 0 1 0 I I #
straight-curve $-1 -1 $-1 -30 10 -20 0 -1 0 I I #
coedge $-1 -1 $-1 $811 $759 $778 $803 forward $700 $-1 #
coedge $-1 -1 $-1 $759 $811 $774 $799 forward $700 $-1 #
point $-1 -1 $-1 -30 30 -20 #
coedge $-1 -1 $-1 $771 $770 $811 $812 reversed $755 $-1 #
convexity-sys-attrib $-1 -1 $-1 $772 $734 #
edge $-1 -1 $-1 $801 -40 $786 40 $774 $813 forward @7 unknown #
attrib_edge_convexity-kcp-attrib $-1 -1 $814 $-1 $775 1 #
vertex $-1 -1 $-1 $799 $815 #
straight-curve $-1 -1 $-1 -40 40 0 0 0 -1 I I #
edge $816 -1 $-1 $784 -40 $805 40 $778 $817 forward @7 unknown #
attrib_edge_convexity-kcp-attrib $-1 -1 $818 $-1 $779 1 #
vertex $-1 -1 $-1 $812 $819 #
straight-curve $-1 -1 $-1 -40 -40 0 0 0 -1 I I #
straight-curve $-1 -1 $-1 40 0 -20 0 -1 0 I I #
convexity-sys-attrib $-1 -1 $-1 $783 $747 #
point $-1 -1 $-1 40 -40 -20 #
point $-1 -1 $-1 40 40 -20 #
coedge $-1 -1 $-1 $795 $794 $797 $812 forward $700 $-1 #
edge $820 -1 $-1 $805 -40 $801 40 $797 $821 forward @7 unknown #
straight-curve $-1 -1 $-1 0 40 -20 1 0 0 I I #
convexity-sys-attrib $-1 -1 $-1 $800 $775 #
point $-1 -1 $-1 -40 40 -20 #
attrib_edge_convexity-kcp-attrib $-1 -1 $822 $-1 $803 1 #
straight-curve $-1 -1 $-1 0 -40 -20 -1 0 0 I I #
convexity-sys-attrib $-1 -1 $-1 $804 $779 #
point $-1 -1 $-1 -40 -40 -20 #
attrib_edge_convexity-kcp-attrib $-1 -1 $823 $-1 $812 1 #
straight-curve $-1 -1 $-1 -40 0 -20 0 1 0 I I #
convexity-sys-attrib $-1 -1 $-1 $816 $803 #
convexity-sys-attrib $-1 -1 $-1 $820 $812 #
End-of-ACIS-data 