600 0 1 0           
81 GICL ACIS Healer - Source: /gicl/data5/repository/Heriot_Watt/ex21/ex21.sat - 6 0 18 ACIS 6.0.3 Solaris 24 Sat Apr 13 23:38:52 2002 
1 9.999999999999999547e-07 1.000000000000000036e-10 
body $-1 $1 $-1 $-1 #
lump $-1 $-1 $2 $0 #
shell $-1 $-1 $-1 $3 $-1 $1 #
face $-1 $4 $5 $2 $-1 $6 forward single #
face $-1 $7 $8 $2 $-1 $9 forward single #
loop $-1 $-1 $10 $3 #
plane-surface $-1 5 -15 10 0 0 1 1 0 0 forward_v I I I I #
face $-1 $11 $12 $2 $-1 $13 forward single #
loop $-1 $-1 $14 $4 #
plane-surface $-1 5 -20 15 0 1 0 0 0 1 forward_v I I I I #
coedge $-1 $15 $16 $17 $18 reversed $5 $-1 #
face $-1 $19 $20 $2 $-1 $21 forward single #
loop $-1 $-1 $22 $7 #
plane-surface $-1 5 -10 15 0 -1 0 0 0 -1 forward_v I I I I #
coedge $-1 $23 $24 $25 $26 reversed $8 $-1 #
coedge $-1 $27 $10 $28 $29 reversed $5 $-1 #
coedge $-1 $10 $27 $24 $30 reversed $5 $-1 #
coedge $-1 $31 $32 $10 $18 forward $33 $-1 #
edge $-1 $34 2.5 $35 12.5 $17 $36 forward 7 unknown #
face $-1 $37 $38 $2 $-1 $39 forward single #
loop $-1 $-1 $25 $11 #
plane-surface $-1 0 -15 0 -1 0 0 0 0 1 forward_v I I I I #
coedge $-1 $40 $28 $32 $41 reversed $12 $-1 #
coedge $-1 $42 $14 $43 $44 reversed $8 $-1 #
coedge $-1 $14 $42 $16 $30 forward $8 $-1 #
coedge $-1 $45 $46 $14 $26 forward $20 $-1 #
edge $-1 $47 -12.5 $48 -2.5 $25 $49 forward 7 unknown #
coedge $-1 $16 $15 $45 $50 reversed $5 $-1 #
coedge $-1 $22 $51 $15 $29 forward $12 $-1 #
edge $-1 $52 -5 $34 5 $28 $53 forward 7 unknown #
edge $-1 $35 -5 $48 5 $24 $54 forward 7 unknown #
coedge $-1 $55 $17 $42 $56 forward $33 $-1 #
coedge $-1 $17 $57 $22 $41 forward $33 $-1 #
loop $-1 $-1 $31 $58 #
vertex $-1 $18 $59 #
vertex $-1 $18 $60 #
straight-curve $-1 10 -7.5 10 0 -1 0 I I #
face $-1 $61 $62 $2 $-1 $63 forward single #
loop $-1 $-1 $64 $19 #
plane-surface $-1 -15 -30 0 0 1 0 0 0 1 forward_v I I I I #
coedge $-1 $51 $22 $65 $66 reversed $12 $-1 #
edge $-1 $67 -12.5 $34 -2.5 $32 $68 forward 7 unknown #
coedge $-1 $24 $23 $31 $56 reversed $8 $-1 #
coedge $-1 $69 $70 $23 $44 forward $71 $-1 #
edge $-1 $72 -7.5 $47 2.5 $43 $73 forward 7 unknown #
coedge $-1 $74 $25 $27 $50 forward $20 $-1 #
coedge $-1 $25 $75 $69 $76 reversed $20 $-1 #
vertex $-1 $44 $77 #
vertex $-1 $50 $78 #
straight-curve $-1 0 -20 7.5 0 0 -1 I I #
edge $-1 $48 -5 $52 5 $45 $79 forward 7 unknown #
coedge $-1 $28 $40 $74 $80 reversed $12 $-1 #
vertex $-1 $50 $81 #
straight-curve $-1 5 -10 10 1 0 0 I I #
straight-curve $-1 5 -20 10 -1 0 0 I I #
coedge $-1 $82 $31 $70 $83 reversed $33 $-1 #
edge $-1 $35 2.5 $72 12.5 $31 $84 forward 7 unknown #
coedge $-1 $32 $85 $86 $87 reversed $33 $-1 #
face $-1 $88 $33 $2 $-1 $89 forward single #
point $-1 10 -10 10 #
point $-1 10 -20 10 #
face $-1 $90 $91 $2 $-1 $92 forward single #
loop $-1 $-1 $93 $37 #
plane-surface $-1 -30 -15 0 1 0 0 0 0 -1 forward_v I I I I #
coedge $-1 $94 $95 $96 $97 reversed $38 $-1 #
coedge $-1 $86 $98 $40 $66 forward $71 $-1 #
edge $-1 $99 -2.5 $67 7.5 $65 $100 forward 7 unknown #
vertex $-1 $41 $101 #
straight-curve $-1 10 -10 7.5 0 0 -1 I I #
coedge $-1 $102 $43 $46 $76 forward $71 $-1 #
coedge $-1 $43 $103 $55 $83 forward $71 $-1 #
loop $-1 $104 $43 $105 #
vertex $-1 $83 $106 #
straight-curve $-1 2.5 -20 20 -1 0 0 I I #
coedge $-1 $107 $45 $51 $80 forward $20 $-1 #
coedge $-1 $46 $108 $109 $110 reversed $20 $-1 #
edge $-1 $47 12.5 $111 22.5 $69 $112 forward 7 unknown #
point $-1 0 -20 20 #
point $-1 0 -20 10 #
straight-curve $-1 0 -15 10 0 1 0 I I #
edge $-1 $52 2.5 $99 12.5 $74 $113 forward 7 unknown #
point $-1 0 -10 10 #
coedge $-1 $114 $55 $115 $116 forward $33 $-1 #
edge $-1 $117 -30 $72 -20 $70 $118 forward 7 unknown #
straight-curve $-1 10 -20 7.5 0 0 1 I I #
coedge $-1 $57 $114 $119 $120 forward $33 $-1 #
coedge $-1 $121 $65 $57 $87 forward $71 $-1 #
edge $-1 $67 -10 $122 10 $86 $118 forward 7 unknown #
face $-1 $105 $123 $2 $-1 $124 forward single #
plane-surface $-1 10 0 0 1 0 0 0 0 -1 forward_v I I I I #
face $-1 $125 $126 $2 $-1 $127 forward single #
loop $-1 $-1 $128 $61 #
plane-surface $-1 -15 0 0 0 -1 0 0 0 -1 forward_v I I I I #
coedge $-1 $129 $130 $131 $132 reversed $62 $-1 #
coedge $-1 $109 $64 $102 $133 reversed $38 $-1 #
coedge $-1 $64 $109 $134 $135 reversed $38 $-1 #
coedge $-1 $130 $129 $64 $97 forward $62 $-1 #
edge $-1 $136 -20 $137 20 $96 $138 forward 7 unknown #
coedge $-1 $65 $139 $107 $140 forward $71 $-1 #
vertex $-1 $140 $141 #
straight-curve $-1 2.5 -10 20 1 0 0 I I #
point $-1 10 -10 20 #
coedge $-1 $142 $69 $94 $133 forward $71 $-1 #
coedge $-1 $70 $143 $144 $145 forward $71 $-1 #
loop $-1 $-1 $146 $105 #
face $-1 $147 $71 $2 $-1 $148 forward single #
point $-1 10 -20 20 #
coedge $-1 $149 $74 $98 $140 reversed $20 $-1 #
coedge $-1 $75 $149 $150 $151 reversed $20 $-1 #
coedge $-1 $95 $94 $75 $110 forward $38 $-1 #
edge $-1 $111 -20 $152 20 $75 $153 forward 7 unknown #
vertex $-1 $133 $154 #
straight-curve $-1 0 -7.5 20 0 -1 0 I I #
straight-curve $-1 0 -10 7.5 0 0 1 I I #
coedge $-1 $85 $82 $155 $156 reversed $33 $-1 #
coedge $-1 $144 $157 $82 $116 reversed $158 $-1 #
edge $-1 $117 -20 $159 20 $82 $160 forward 7 unknown #
vertex $-1 $145 $161 #
straight-curve $-1 10 0 20 0 1 0 I I #
coedge $-1 $162 $163 $85 $120 reversed $126 $-1 #
edge $-1 $164 -20 $122 20 $85 $165 forward 7 unknown #
coedge $-1 $166 $86 $163 $167 forward $71 $-1 #
vertex $-1 $87 $168 #
loop $-1 $-1 $169 $88 #
plane-surface $-1 20 30 0 0 -1 0 0 0 -1 forward_v I I I I #
face $-1 $170 $171 $2 $-1 $172 forward single #
loop $-1 $-1 $119 $90 #
plane-surface $-1 0 10 0 0 1 0 0 0 1 forward_v I I I I #
coedge $-1 $173 $174 $149 $175 reversed $91 $-1 #
coedge $-1 $96 $93 $142 $176 reversed $62 $-1 #
coedge $-1 $93 $96 $177 $178 reversed $62 $-1 #
coedge $-1 $174 $173 $93 $132 forward $91 $-1 #
edge $-1 $179 -20 $180 20 $131 $181 forward 7 unknown #
edge $-1 $111 -7.5 $136 22.5 $102 $182 forward 7 unknown #
coedge $-1 $150 $177 $95 $135 forward $183 $-1 #
edge $-1 $137 -22.5 $152 7.5 $134 $184 forward 7 unknown #
vertex $-1 $133 $185 #
vertex $-1 $135 $186 #
straight-curve $-1 -30 -30 0 0 0 -1 I I #
coedge $-1 $98 $142 $173 $187 forward $71 $-1 #
edge $-1 $188 -7.5 $99 2.5 $98 $112 forward 7 unknown #
point $-1 0 -10 20 #
coedge $-1 $139 $102 $129 $176 forward $71 $-1 #
coedge $-1 $103 $189 $190 $191 forward $71 $-1 #
coedge $-1 $192 $115 $103 $145 reversed $158 $-1 #
edge $-1 $193 -20 $117 0 $103 $194 forward 7 unknown #
coedge $-1 $195 $196 $197 $198 forward $104 $-1 #
face $-1 $199 $183 $2 $-1 $200 reversed single #
plane-surface $-1 0 0 20 0 0 1 1 0 0 forward_v I I I I #
coedge $-1 $108 $107 $128 $175 forward $20 $-1 #
coedge $-1 $201 $134 $108 $151 forward $183 $-1 #
edge $-1 $152 -22.5 $202 7.5 $150 $203 forward 7 unknown #
vertex $-1 $135 $204 #
straight-curve $-1 0 -30 0 0 0 -1 I I #
point $-1 0 -30 20 #
coedge $-1 $205 $206 $114 $156 forward $207 $-1 #
edge $-1 $164 -10 $159 30 $155 $208 forward 7 unknown #
coedge $-1 $115 $192 $205 $209 reversed $158 $-1 #
loop $-1 $-1 $115 $210 #
vertex $-1 $209 $211 #
straight-curve $-1 10 -30 0 0 0 -1 I I #
point $-1 10 -30 20 #
coedge $-1 $212 $119 $206 $213 reversed $126 $-1 #
coedge $-1 $119 $212 $121 $167 reversed $126 $-1 #
vertex $-1 $213 $214 #
straight-curve $-1 10 10 0 0 0 1 I I #
coedge $-1 $189 $121 $215 $216 forward $71 $-1 #
edge $-1 $122 -10 $217 30 $121 $218 forward 7 unknown #
point $-1 10 10 20 #
coedge $-1 $219 $220 $221 $222 forward $123 $-1 #
face $-1 $210 $223 $2 $-1 $224 forward single #
loop $-1 $-1 $225 $125 #
plane-surface $-1 -30 20 0 1 0 0 0 0 -1 forward_v I I I I #
coedge $-1 $131 $128 $139 $187 reversed $91 $-1 #
coedge $-1 $128 $131 $201 $226 reversed $91 $-1 #
edge $-1 $188 -20 $202 20 $149 $227 forward 7 unknown #
edge $-1 $136 -22.5 $179 7.5 $142 $228 forward 7 unknown #
coedge $-1 $134 $201 $130 $178 forward $183 $-1 #
edge $-1 $180 -7.5 $137 22.5 $177 $229 forward 7 unknown #
vertex $-1 $176 $230 #
vertex $-1 $178 $231 #
straight-curve $-1 -30 0 0 0 0 -1 I I #
straight-curve $-1 -7.5 -30 20 -1 0 0 I I #
loop $-1 $207 $134 $147 #
straight-curve $-1 -7.5 -30 -20 1 0 0 I I #
point $-1 -30 -30 20 #
point $-1 -30 -30 -20 #
edge $-1 $179 -22.5 $188 7.5 $139 $232 forward 7 unknown #
vertex $-1 $187 $233 #
coedge $-1 $143 $166 $219 $234 forward $71 $-1 #
coedge $-1 $221 $235 $143 $191 reversed $223 $-1 #
edge $-1 $236 -30 $193 30 $143 $237 forward 7 unknown #
coedge $-1 $157 $144 $235 $238 forward $158 $-1 #
vertex $-1 $145 $239 #
straight-curve $-1 10 -30 20 -1 0 0 I I #
coedge $-1 $240 $146 $241 $242 forward $104 $-1 #
coedge $-1 $146 $240 $243 $244 forward $104 $-1 #
coedge $-1 $245 $246 $146 $198 reversed $247 $-1 #
edge $-1 $248 -40 $249 40 $197 $250 forward 7 unknown #
face $-1 $251 $252 $2 $-1 $253 reversed single #
plane-surface $-1 0 0 -20 0 0 1 1 0 0 forward_v I I I I #
coedge $-1 $177 $150 $174 $226 forward $183 $-1 #
vertex $-1 $226 $254 #
straight-curve $-1 0 -7.5 -20 0 1 0 I I #
point $-1 0 -30 -20 #
coedge $-1 $255 $155 $157 $209 forward $207 $-1 #
coedge $-1 $155 $256 $162 $213 forward $207 $-1 #
loop $-1 $257 $206 $147 #
straight-curve $-1 10 0 -20 0 -1 0 I I #
edge $-1 $159 0 $258 20 $205 $259 forward 7 unknown #
face $-1 $58 $158 $2 $-1 $260 forward single #
point $-1 10 -30 -20 #
coedge $-1 $163 $162 $261 $262 reversed $126 $-1 #
edge $-1 $263 -30 $164 10 $206 $264 forward 7 unknown #
point $-1 10 10 -20 #
coedge $-1 $261 $225 $166 $216 reversed $171 $-1 #
edge $-1 $217 0 $265 20 $166 $266 forward 7 unknown #
vertex $-1 $167 $267 #
straight-curve $-1 0 10 20 -1 0 0 I I #
coedge $-1 $268 $169 $189 $234 reversed $123 $-1 #
coedge $-1 $169 $268 $269 $270 reversed $123 $-1 #
coedge $-1 $271 $190 $169 $222 reversed $223 $-1 #
edge $-1 $272 -20 $236 20 $221 $273 reversed 7 unknown #
loop $-1 $-1 $271 $170 #
plane-surface $-1 30 0 0 -1 0 0 0 0 1 forward_v I I I I #
coedge $-1 $215 $274 $268 $275 reversed $171 $-1 #
edge $-1 $202 -7.5 $180 22.5 $201 $276 forward 7 unknown #
straight-curve $-1 0 0 0 0 0 -1 I I #
straight-curve $-1 -30 -7.5 20 0 1 0 I I #
straight-curve $-1 -30 -7.5 -20 0 -1 0 I I #
point $-1 -30 0 20 #
point $-1 -30 0 -20 #
straight-curve $-1 -7.5 0 20 1 0 0 I I #
point $-1 0 0 20 #
edge $-1 $265 -30 $236 30 $189 $277 forward 7 unknown #
coedge $-1 $190 $271 $192 $238 reversed $223 $-1 #
vertex $-1 $234 $278 #
straight-curve $-1 30 0 20 0 -1 0 I I #
edge $-1 $193 -20 $258 20 $235 $279 forward 7 unknown #
point $-1 30 -30 20 #
coedge $-1 $196 $195 $280 $281 forward $104 $-1 #
coedge $-1 $282 $283 $195 $242 reversed $284 $-1 #
edge $-1 $249 -40 $285 40 $241 $286 forward 7 unknown #
coedge $-1 $287 $288 $196 $244 reversed $252 $-1 #
edge $-1 $289 -40 $248 40 $243 $290 forward 7 unknown #
coedge $-1 $291 $197 $288 $292 forward $247 $-1 #
coedge $-1 $197 $291 $282 $293 reversed $247 $-1 #
loop $-1 $-1 $245 $294 #
vertex $-1 $198 $295 #
vertex $-1 $198 $296 #
straight-curve $-1 40 0 20 0 1 0 I I #
face $-1 $297 $298 $2 $-1 $299 reversed single #
loop $-1 $-1 $287 $199 #
plane-surface $-1 0 -40 0 0 1 0 0 0 1 forward_v I I I I #
point $-1 0 0 -20 #
coedge $-1 $269 $205 $271 $300 forward $207 $-1 #
coedge $-1 $206 $269 $274 $301 forward $207 $-1 #
loop $-1 $-1 $302 $147 #
vertex $-1 $209 $303 #
straight-curve $-1 10 -30 -20 1 0 0 I I #
plane-surface $-1 20 -30 0 0 1 0 0 0 1 forward_v I I I I #
coedge $-1 $274 $215 $212 $262 forward $171 $-1 #
edge $-1 $217 -20 $263 20 $261 $304 forward 7 unknown #
vertex $-1 $213 $305 #
straight-curve $-1 0 10 -20 1 0 0 I I #
vertex $-1 $216 $306 #
straight-curve $-1 -30 10 20 0 1 0 I I #
point $-1 -30 10 20 #
coedge $-1 $220 $219 $225 $275 forward $123 $-1 #
coedge $-1 $256 $255 $220 $270 forward $207 $-1 #
edge $-1 $272 -30 $307 30 $269 $308 forward 7 unknown #
coedge $-1 $235 $221 $255 $300 reversed $223 $-1 #
vertex $-1 $270 $309 #
straight-curve $-1 30 30 0 0 0 -1 I I #
coedge $-1 $225 $261 $256 $301 reversed $171 $-1 #
edge $-1 $265 -20 $307 20 $268 $310 forward 7 unknown #
straight-curve $-1 -7.5 0 -20 -1 0 0 I I #
straight-curve $-1 0 30 20 1 0 0 I I #
point $-1 30 30 20 #
straight-curve $-1 30 -30 0 0 0 -1 I I #
coedge $-1 $311 $312 $240 $281 reversed $298 $-1 #
edge $-1 $285 -40 $289 40 $280 $313 forward 7 unknown #
coedge $-1 $314 $241 $246 $293 forward $284 $-1 #
coedge $-1 $241 $314 $311 $315 reversed $284 $-1 #
loop $-1 $-1 $282 $297 #
vertex $-1 $242 $316 #
straight-curve $-1 0 40 20 -1 0 0 I I #
coedge $-1 $317 $243 $312 $318 forward $252 $-1 #
coedge $-1 $243 $317 $245 $292 reversed $252 $-1 #
vertex $-1 $281 $319 #
straight-curve $-1 0 -40 20 1 0 0 I I #
coedge $-1 $246 $245 $302 $320 reversed $247 $-1 #
edge $-1 $248 -20 $321 20 $245 $322 forward 7 unknown #
edge $-1 $249 -20 $323 20 $246 $324 forward 7 unknown #
face $-1 $-1 $247 $2 $-1 $325 reversed single #
point $-1 40 -40 20 #
point $-1 40 40 20 #
face $-1 $294 $284 $2 $-1 $326 reversed single #
loop $-1 $-1 $311 $251 #
plane-surface $-1 -40 0 0 1 0 0 0 0 -1 forward_v I I I I #
edge $-1 $258 -30 $272 30 $255 $327 forward 7 unknown #
edge $-1 $307 -20 $263 0 $256 $328 forward 7 unknown #
coedge $-1 $329 $330 $291 $320 forward $257 $-1 #
point $-1 30 -30 -20 #
straight-curve $-1 -30 10 0 0 0 -1 I I #
point $-1 -30 10 -20 #
point $-1 -30 30 20 #
vertex $-1 $301 $331 #
straight-curve $-1 0 30 -20 -1 0 0 I I #
point $-1 30 30 -20 #
straight-curve $-1 -30 30 0 0 0 -1 I I #
coedge $-1 $332 $280 $283 $315 forward $298 $-1 #
coedge $-1 $280 $332 $287 $318 reversed $298 $-1 #
straight-curve $-1 -40 0 20 0 -1 0 I I #
coedge $-1 $283 $282 $330 $333 reversed $284 $-1 #
edge $-1 $285 -20 $334 20 $283 $335 forward 7 unknown #
point $-1 -40 40 20 #
coedge $-1 $288 $287 $329 $336 reversed $252 $-1 #
edge $-1 $289 -20 $337 20 $312 $338 forward 7 unknown #
point $-1 -40 -40 20 #
edge $-1 $323 -40 $321 40 $291 $339 forward 7 unknown #
vertex $-1 $292 $340 #
straight-curve $-1 40 -40 0 0 0 -1 I I #
vertex $-1 $320 $341 #
straight-curve $-1 40 40 0 0 0 -1 I I #
plane-surface $-1 40 0 0 -1 0 0 0 0 1 forward_v I I I I #
plane-surface $-1 0 40 0 0 -1 0 0 0 -1 forward_v I I I I #
straight-curve $-1 30 0 -20 0 1 0 I I #
straight-curve $-1 -30 10 -20 0 -1 0 I I #
coedge $-1 $342 $302 $317 $336 forward $257 $-1 #
coedge $-1 $302 $342 $314 $333 forward $257 $-1 #
point $-1 -30 30 -20 #
coedge $-1 $312 $311 $342 $343 reversed $298 $-1 #
edge $-1 $334 -40 $323 40 $314 $344 forward 7 unknown #
vertex $-1 $333 $345 #
straight-curve $-1 -40 40 0 0 0 -1 I I #
edge $-1 $321 -40 $337 40 $317 $346 forward 7 unknown #
vertex $-1 $343 $347 #
straight-curve $-1 -40 -40 0 0 0 -1 I I #
straight-curve $-1 40 0 -20 0 -1 0 I I #
point $-1 40 -40 -20 #
point $-1 40 40 -20 #
coedge $-1 $330 $329 $332 $343 forward $257 $-1 #
edge $-1 $337 -40 $334 40 $332 $348 forward 7 unknown #
straight-curve $-1 0 40 -20 1 0 0 I I #
point $-1 -40 40 -20 #
straight-curve $-1 0 -40 -20 -1 0 0 I I #
point $-1 -40 -40 -20 #
straight-curve $-1 -40 0 -20 0 1 0 I I #
End-of-ACIS-data 