600 0 2 0           
24 FBMach with ACIS - 6.0.3 13 ACIS 6.0.3 NT 24 Wed May 23 21:06:20 2001 
1 9.9999999999999995e-007 1e-010 
body $2 $3 $-1 $4 #
bdycol-kcp $-1 1 1 $5 #
model_id-kcp-attrib $-1 $-1 $-1 $0 1 990666379 70 1648754689 1 #
lump $-1 $-1 $6 $0 #
transform $-1 1 0 0 0 1 0 0 0 1 0 0 0 1 no_rotate no_reflect no_shear #
body $7 $8 $-1 $9 #
shell $-1 $-1 $-1 $10 $-1 $3 #
model_id-kcp-attrib $-1 $-1 $-1 $5 1 990666379 80 1649410050 1 #
lump $-1 $-1 $11 $5 #
transform $-1 1 0 0 0 1 0 0 0 1 0 0 0 1 no_rotate no_reflect no_shear #
face $12 $13 $14 $6 $-1 $15 forward single #
shell $-1 $-1 $-1 $16 $-1 $8 #
model_id-kcp-attrib $-1 $17 $-1 $10 1 990666379 70 1648754689 2 #
face $18 $19 $20 $6 $-1 $21 forward single #
loop $22 $-1 $23 $10 #
plane-surface $24 0 4.4830506101694896 -10.8813558644068 0 0 1 0 1 0 forward_v I I I I #
face $25 $26 $27 $11 $-1 $28 forward single #
face_name-twe-attrib $-1 $-1 $12 $10 1 #
model_id-kcp-attrib $-1 $29 $-1 $13 1 990666379 70 1648754689 3 #
face $30 $31 $32 $6 $-1 $33 forward single #
loop $34 $-1 $35 $13 #
plane-surface $36 0 8.55084722033898 -8.9999999322033908 0 -1 0 0 0 1 forward_v I I I I #
loop_type-twe-attrib $-1 $-1 $-1 $14 0 #
coedge $-1 $37 $38 $39 $40 reversed $14 $-1 #
surf-twe-attrib $-1 $-1 $-1 $15 4 #
model_id-kcp-attrib $-1 $-1 $-1 $16 1 990666379 80 1649410050 7 #
face $41 $42 $43 $11 $-1 $44 reversed single #
loop $-1 $-1 $45 $16 #
plane-surface $-1 0 0 20 0 0 1 1 0 0 forward_v I I I I #
face_name-twe-attrib $-1 $-1 $18 $13 2 #
model_id-kcp-attrib $-1 $46 $-1 $19 1 990666379 70 1648754689 4 #
face $47 $48 $49 $6 $-1 $50 forward single #
loop $51 $-1 $52 $19 #
plane-surface $53 60 17.5 -20 1 0 0 0 0 1 forward_v I I I I #
loop_type-twe-attrib $-1 $-1 $-1 $20 0 #
coedge $-1 $54 $55 $52 $56 reversed $20 $-1 #
surf-twe-attrib $-1 $57 $-1 $21 17 #
coedge $-1 $58 $23 $55 $59 reversed $14 $-1 #
coedge $-1 $23 $58 $60 $61 reversed $14 $-1 #
coedge $-1 $62 $52 $23 $40 forward $32 $-1 #
edge $63 $64 2.4406780847457199 $65 10.576271305084703 $39 $66 forward 7 unknown #
model_id-kcp-attrib $-1 $-1 $-1 $26 1 990666379 80 1649410050 4 #
face $67 $68 $69 $11 $-1 $70 reversed single #
loop $-1 $-1 $71 $26 #
plane-surface $-1 0 0 -20 0 0 1 1 0 0 forward_v I I I I #
coedge $-1 $72 $73 $74 $75 forward $27 $-1 #
face_name-twe-attrib $-1 $-1 $30 $19 3 #
model_id-kcp-attrib $-1 $76 $-1 $31 1 990666379 70 1648754689 5 #
face $77 $78 $79 $6 $-1 $80 forward single #
loop $81 $-1 $82 $31 #
plane-surface $83 0 8.55084722033898 8.9999999322033908 0 -1 0 0 0 1 forward_v I I I I #
loop_type-twe-attrib $-1 $-1 $-1 $32 0 #
coedge $-1 $39 $84 $35 $56 forward $32 $-1 #
surf-twe-attrib $-1 $-1 $-1 $33 10 #
coedge $-1 $85 $35 $86 $87 reversed $20 $-1 #
coedge $-1 $35 $85 $37 $59 forward $20 $-1 #
edge $88 $89 -7.381355966101701 $64 -3.6186441016949011 $52 $90 forward 7 unknown #
surf-twe-attrib $-1 $-1 $36 $21 6 #
coedge $-1 $38 $37 $91 $92 reversed $14 $-1 #
edge $93 $94 -60 $64 60 $55 $95 forward 7 unknown #
coedge $-1 $96 $97 $38 $61 forward $98 $-1 #
edge $99 $65 -60 $100 60 $60 $101 forward 7 unknown #
coedge $-1 $102 $39 $97 $103 forward $32 $-1 #
attrib_edge_convexity-kcp-attrib $-1 $104 $-1 $40 1 #
vertex $-1 $40 $105 #
vertex $-1 $40 $106 #
straight-curve $107 60 10.9915253050847 -10.8813558644068 0 -1 0 I I #
model_id-kcp-attrib $-1 $-1 $-1 $42 1 990666379 80 1649410050 6 #
face $108 $109 $110 $11 $-1 $111 reversed single #
loop $-1 $-1 $112 $42 #
plane-surface $-1 0 -17.5 0 0 1 0 0 0 1 forward_v I I I I #
coedge $-1 $113 $114 $115 $116 forward $43 $-1 #
coedge $-1 $117 $45 $118 $119 forward $27 $-1 #
coedge $-1 $45 $117 $120 $121 forward $27 $-1 #
coedge $-1 $122 $123 $45 $75 reversed $124 $-1 #
edge $-1 $125 -17.5 $126 17.5 $74 $127 forward 7 unknown #
face_name-twe-attrib $-1 $-1 $47 $31 4 #
model_id-kcp-attrib $-1 $128 $-1 $48 1 990666379 70 1648754689 6 #
face $129 $130 $131 $6 $-1 $132 forward single #
loop $133 $-1 $134 $48 #
plane-surface $135 0 4.4830506101694896 10.8813558644068 0 0 -1 0 -1 0 forward_v I I I I #
loop_type-twe-attrib $-1 $-1 $-1 $49 0 #
coedge $-1 $136 $137 $138 $139 reversed $49 $-1 #
surf-twe-attrib $-1 $140 $-1 $50 17 #
coedge $-1 $52 $141 $142 $143 reversed $32 $-1 #
coedge $-1 $55 $54 $144 $145 reversed $20 $-1 #
coedge $-1 $142 $146 $54 $87 forward $147 $-1 #
edge $148 $149 -60 $89 60 $86 $150 forward 7 unknown #
attrib_edge_convexity-kcp-attrib $-1 $151 $-1 $56 1 #
vertex $-1 $87 $152 #
straight-curve $153 60 8.55084722033898 -14.499999966101701 0 0 -1 I I #
coedge $-1 $144 $154 $58 $92 forward $155 $-1 #
edge $156 $100 6.9237286949152583 $94 15.059321915254241 $91 $157 forward 7 unknown #
edge_name-twe-attrib $-1 $-1 $-1 $59 1 4608 #
vertex $-1 $92 $158 #
straight-curve $159 0 8.55084722033898 -10.8813558644068 1 0 0 I I #
coedge $-1 $160 $60 $154 $161 reversed $98 $-1 #
coedge $-1 $60 $160 $62 $103 reversed $98 $-1 #
loop $162 $-1 $97 $130 #
edge_name-twe-attrib $-1 $-1 $-1 $61 11 4608 #
vertex $-1 $92 $163 #
straight-curve $164 0 0.41525399999999801 -10.8813558644068 -1 0 0 I I #
coedge $-1 $138 $62 $134 $165 forward $32 $-1 #
edge $166 $65 3.6186441016949011 $167 25.3813558305085 $62 $168 forward 7 unknown #
convexity-sys-attrib $-1 $169 $63 $40 #
point $-1 60 8.55084722033898 -10.8813558644068 #
point $-1 60 0.41525399999999801 -10.8813558644068 #
cur-twe-attrib $-1 $-1 $-1 $66 26 #
model_id-kcp-attrib $-1 $-1 $-1 $68 1 990666379 80 1649410050 5 #
face $170 $171 $172 $11 $-1 $173 reversed single #
loop $-1 $-1 $174 $68 #
plane-surface $-1 -60 0 0 1 0 0 0 0 -1 forward_v I I I I #
coedge $-1 $175 $120 $176 $177 forward $69 $-1 #
coedge $-1 $178 $71 $175 $179 forward $43 $-1 #
coedge $-1 $71 $178 $180 $181 forward $43 $-1 #
coedge $-1 $123 $122 $71 $116 reversed $124 $-1 #
edge $-1 $182 -17.5 $183 17.5 $115 $184 forward 7 unknown #
coedge $-1 $73 $72 $185 $186 forward $27 $-1 #
coedge $-1 $187 $188 $72 $119 reversed $172 $-1 #
edge $-1 $126 -60 $189 60 $118 $190 forward 7 unknown #
coedge $-1 $112 $191 $73 $121 reversed $69 $-1 #
edge $-1 $192 -60 $125 60 $120 $193 forward 7 unknown #
coedge $-1 $115 $74 $191 $194 forward $124 $-1 #
coedge $-1 $74 $115 $187 $195 reversed $124 $-1 #
loop $-1 $-1 $122 $171 #
vertex $-1 $75 $196 #
vertex $-1 $75 $197 #
straight-curve $-1 60 0 20 0 1 0 I I #
face_name-twe-attrib $-1 $-1 $77 $48 5 #
model_id-kcp-attrib $-1 $198 $-1 $78 1 990666379 70 1648754689 7 #
face $199 $200 $98 $6 $-1 $201 forward single #
loop $202 $-1 $203 $78 #
plane-surface $204 0 8.9576271186440692 7.1186440677966099 0 0 -1 0 -1 0 forward_v I I I I #
loop_type-twe-attrib $-1 $-1 $-1 $79 0 #
coedge $-1 $205 $206 $102 $165 reversed $79 $-1 #
surf-twe-attrib $-1 $-1 $-1 $80 28 #
coedge $-1 $207 $82 $206 $208 forward $49 $-1 #
coedge $-1 $82 $207 $203 $209 reversed $49 $-1 #
coedge $-1 $210 $102 $82 $139 forward $32 $-1 #
edge $211 $212 -16.381355898305099 $213 -12.618644033898299 $138 $214 forward 7 unknown #
surf-twe-attrib $-1 $-1 $83 $50 6 #
coedge $-1 $84 $215 $216 $217 reversed $32 $-1 #
coedge $-1 $218 $86 $84 $143 forward $147 $-1 #
edge $219 $89 -4.6779663389830208 $220 4.2711864406779991 $142 $221 forward 7 unknown #
coedge $-1 $222 $91 $85 $145 forward $155 $-1 #
edge $223 $94 3.6186441016949011 $149 7.381355966101701 $144 $224 forward 7 unknown #
coedge $-1 $86 $218 $222 $225 forward $147 $-1 #
loop $226 $-1 $86 $200 #
edge_name-twe-attrib $-1 $-1 $-1 $87 13 8704 #
vertex $-1 $225 $227 #
straight-curve $228 0 8.55084722033898 -7.1186440677966099 1 0 0 I I #
convexity-sys-attrib $-1 $229 $88 $56 #
point $-1 60 8.55084722033898 -7.1186439999999997 #
cur-twe-attrib $-1 $230 $-1 $90 87 #
coedge $-1 $91 $231 $96 $161 forward $155 $-1 #
loop $232 $-1 $144 $233 #
edge_name-twe-attrib $-1 $-1 $-1 $92 26 8704 #
straight-curve $234 -60 -6.5084746949152601 -10.8813558644068 0 1 0 I I #
point $-1 -60 8.55084722033898 -10.8813558644068 #
cur-twe-attrib $-1 $-1 $-1 $95 39 #
coedge $-1 $97 $96 $205 $235 forward $98 $-1 #
edge $236 $237 -16.381355898305099 $100 5.3813558305084994 $154 $238 forward 7 unknown #
loop_type-twe-attrib $-1 $-1 $-1 $98 0 #
point $-1 -60 0.41525399999999801 -10.8813558644068 #
cur-twe-attrib $-1 $-1 $-1 $101 41 #
edge $239 $167 -10.576271305084703 $212 -2.4406780847457199 $102 $240 forward 7 unknown #
attrib_edge_convexity-kcp-attrib $-1 $241 $-1 $103 1 #
vertex $-1 $165 $242 #
straight-curve $243 60 0.41525399999999701 -14.499999966101701 0 0 1 I I #
edge_name-twe-attrib $-1 $-1 $104 $40 3 8704 #
model_id-kcp-attrib $-1 $244 $-1 $109 1 990666379 80 1649410050 8 #
face $245 $-1 $124 $11 $-1 $246 reversed single #
loop $-1 $-1 $187 $109 #
plane-surface $-1 0 17.5 0 0 -1 0 0 0 -1 forward_v I I I I #
coedge $-1 $247 $185 $188 $248 forward $110 $-1 #
coedge $-1 $191 $112 $113 $179 reversed $69 $-1 #
coedge $-1 $185 $247 $112 $177 reversed $110 $-1 #
edge $-1 $192 -20 $249 20 $176 $250 forward 7 unknown #
coedge $-1 $114 $113 $247 $251 forward $43 $-1 #
edge $-1 $183 -60 $249 60 $175 $252 forward 7 unknown #
coedge $-1 $188 $187 $114 $181 reversed $172 $-1 #
edge $-1 $253 -60 $182 60 $180 $254 forward 7 unknown #
vertex $-1 $116 $255 #
vertex $-1 $194 $256 #
straight-curve $-1 60 0 -20 0 -1 0 I I #
coedge $-1 $174 $176 $117 $186 reversed $110 $-1 #
edge $-1 $189 -17.5 $192 17.5 $185 $257 forward 7 unknown #
coedge $-1 $180 $118 $123 $195 forward $172 $-1 #
coedge $-1 $118 $180 $174 $248 reversed $172 $-1 #
vertex $-1 $119 $258 #
straight-curve $-1 0 17.5 20 -1 0 0 I I #
coedge $-1 $120 $175 $122 $194 reversed $69 $-1 #
vertex $-1 $186 $259 #
straight-curve $-1 0 -17.5 20 1 0 0 I I #
edge $-1 $125 -20 $183 20 $122 $260 forward 7 unknown #
edge $-1 $126 -20 $182 20 $123 $261 forward 7 unknown #
point $-1 60 -17.5 20 #
point $-1 60 17.5 20 #
face_name-twe-attrib $-1 $-1 $129 $78 6 #
model_id-kcp-attrib $-1 $262 $-1 $130 1 990666379 70 1648754689 8 #
face $263 $264 $147 $6 $-1 $265 forward single #
plane-surface $266 0 0.41525423728813798 0 0 1 0 0 0 -1 forward_v I I I I #
loop_type-twe-attrib $-1 $-1 $-1 $131 0 #
coedge $-1 $267 $268 $137 $209 forward $131 $-1 #
surf-twe-attrib $-1 $-1 $-1 $132 48 #
coedge $-1 $269 $134 $160 $235 reversed $79 $-1 #
coedge $-1 $134 $269 $136 $208 reversed $79 $-1 #
coedge $-1 $137 $136 $270 $271 reversed $49 $-1 #
edge $272 $212 -60 $273 60 $136 $274 forward 7 unknown #
edge $275 $213 -60 $276 60 $203 $277 forward 7 unknown #
coedge $-1 $278 $138 $268 $279 reversed $32 $-1 #
attrib_edge_convexity-kcp-attrib $-1 $280 $-1 $139 1 #
vertex $-1 $165 $281 #
vertex $-1 $279 $282 #
straight-curve $283 60 8.55084722033898 -5.5000000338983002 0 0 -1 I I #
coedge $-1 $141 $284 $285 $286 reversed $32 $-1 #
coedge $-1 $287 $288 $141 $217 forward $289 $-1 #
edge $290 $220 -2.8813559322033901 $291 10 $216 $292 forward 7 unknown #
coedge $-1 $146 $142 $288 $293 reversed $147 $-1 #
attrib_edge_convexity-kcp-attrib $-1 $294 $-1 $143 1 #
vertex $-1 $293 $295 #
straight-curve $296 60 13.228813559322001 -7.1186440677966099 0 1 0 I I #
coedge $-1 $297 $144 $146 $225 reversed $155 $-1 #
edge_name-twe-attrib $-1 $-1 $-1 $145 22 8704 #
straight-curve $298 -60 8.55084722033898 -14.499999966101701 0 0 1 I I #
edge $299 $300 -21.771186440677969 $149 -12.822033661016949 $146 $301 forward 7 unknown #
loop_type-twe-attrib $-1 $-1 $-1 $147 0 #
point $-1 -60 8.55084722033898 -7.1186439999999997 #
cur-twe-attrib $-1 $-1 $-1 $150 57 #
edge_name-twe-attrib $-1 $-1 $151 $56 2 8704 #
cur-twe-attrib $-1 $-1 $153 $90 36 #
coedge $-1 $154 $270 $269 $302 forward $155 $-1 #
loop_type-twe-attrib $-1 $-1 $-1 $155 0 #
face $303 $304 $155 $6 $-1 $305 forward single #
cur-twe-attrib $-1 $-1 $-1 $157 62 #
edge $306 $237 -60 $167 60 $160 $307 forward 7 unknown #
edge_name-twe-attrib $-1 $-1 $-1 $161 25 8704 #
vertex $-1 $302 $308 #
straight-curve $309 -60 0.41525399999999701 -5.5000000338983002 0 0 -1 I I #
attrib_edge_convexity-kcp-attrib $-1 $310 $-1 $165 1 #
straight-curve $311 60 10.9915253050847 10.8813558644068 0 1 0 I I #
convexity-sys-attrib $-1 $312 $166 $103 #
point $-1 60 0.41525399999999801 10.8813558644068 #
cur-twe-attrib $-1 $-1 $-1 $168 73 #
model_id-kcp-attrib $-1 $-1 $170 $109 1 990666379 80 1649410050 3 #
model_id-kcp-attrib $-1 $-1 $-1 $171 1 990666379 80 1649410050 2 #
plane-surface $-1 60 0 0 -1 0 0 0 0 1 forward_v I I I I #
coedge $-1 $176 $174 $178 $251 reversed $110 $-1 #
edge $-1 $189 -20 $253 20 $188 $313 forward 7 unknown #
vertex $-1 $251 $314 #
straight-curve $-1 -60 -17.5 0 0 0 -1 I I #
edge $-1 $249 -17.5 $253 17.5 $247 $315 forward 7 unknown #
straight-curve $-1 0 -17.5 -20 -1 0 0 I I #
vertex $-1 $181 $316 #
straight-curve $-1 0 17.5 -20 1 0 0 I I #
point $-1 60 17.5 -20 #
point $-1 60 -17.5 -20 #
straight-curve $-1 -60 0 20 0 -1 0 I I #
point $-1 -60 17.5 20 #
point $-1 -60 -17.5 20 #
straight-curve $-1 60 -17.5 0 0 0 -1 I I #
straight-curve $-1 60 17.5 0 0 0 -1 I I #
face_name-twe-attrib $-1 $-1 $199 $130 7 #
model_id-kcp-attrib $-1 $317 $-1 $200 1 990666379 70 1648754689 9 #
face $318 $319 $289 $6 $-1 $320 reversed single #
plane-surface $321 0 8.9576271186440692 -7.1186440677966099 0 0 1 0 1 0 forward_v I I I I #
surf-twe-attrib $-1 $-1 $-1 $201 78 #
coedge $-1 $322 $203 $323 $324 forward $131 $-1 #
coedge $-1 $203 $322 $210 $279 forward $131 $-1 #
coedge $-1 $206 $205 $231 $302 reversed $79 $-1 #
coedge $-1 $231 $323 $207 $271 forward $155 $-1 #
edge $325 $276 12.618644033898299 $273 16.381355898305099 $270 $326 forward 7 unknown #
edge_name-twe-attrib $-1 $-1 $-1 $208 7 4608 #
vertex $-1 $302 $327 #
straight-curve $328 0 8.55084722033898 10.8813558644068 -1 0 0 I I #
edge_name-twe-attrib $-1 $-1 $-1 $209 8 8704 #
vertex $-1 $271 $329 #
straight-curve $330 0 8.55084722033898 7.1186440677966099 -1 0 0 I I #
coedge $-1 $331 $210 $332 $333 reversed $32 $-1 #
edge $334 $335 -4.2711864406779991 $213 4.6779663389830208 $268 $336 forward 7 unknown #
convexity-sys-attrib $-1 $337 $211 $139 #
point $-1 60 8.55084722033898 10.8813558644068 #
point $-1 60 8.55084722033898 7.1186439999999997 #
cur-twe-attrib $-1 $338 $-1 $214 87 #
coedge $-1 $215 $331 $339 $340 reversed $32 $-1 #
coedge $-1 $341 $342 $215 $286 forward $343 $-1 #
edge $344 $291 -8.75 $345 26.25 $285 $346 forward 7 unknown #
coedge $-1 $347 $216 $342 $348 reversed $289 $-1 #
coedge $-1 $216 $347 $218 $293 forward $289 $-1 #
loop $349 $-1 $216 $264 #
attrib_edge_convexity-kcp-attrib $-1 $350 $-1 $217 1 #
vertex $-1 $348 $351 #
straight-curve $352 60 17.5 -10 0 0 -1 I I #
edge $353 $300 -60 $220 60 $288 $354 forward 7 unknown #
convexity-sys-attrib $-1 $355 $219 $143 #
point $-1 60 17.5 -7.1186440677966099 #
cur-twe-attrib $-1 $-1 $-1 $221 91 #
coedge $-1 $356 $222 $347 $357 reversed $155 $-1 #
cur-twe-attrib $-1 $358 $-1 $224 167 #
edge_name-twe-attrib $-1 $-1 $-1 $225 15 8704 #
vertex $-1 $225 $359 #
straight-curve $360 -60 -4.2711864406779698 -7.1186440677966099 0 -1 0 I I #
edge $361 $273 -15.059321915254241 $237 -6.9237286949152583 $231 $362 forward 7 unknown #
model_id-kcp-attrib $-1 $363 $-1 $233 1 990666379 70 1648754689 12 #
face $364 $365 $366 $6 $-1 $367 reversed single #
plane-surface $368 -60 -17.5 -20 -1 0 0 0 0 1 forward_v I I I I #
edge_name-twe-attrib $-1 $-1 $-1 $235 12 4608 #
straight-curve $369 0 0.41525399999999801 10.8813558644068 1 0 0 I I #
point $-1 -60 0.41525399999999801 10.8813558644068 #
cur-twe-attrib $-1 $-1 $-1 $238 108 #
convexity-sys-attrib $-1 $370 $239 $165 #
cur-twe-attrib $-1 $-1 $-1 $240 112 #
edge_name-twe-attrib $-1 $-1 $241 $103 4 8704 #
straight-curve $-1 -60 17.5 0 0 0 -1 I I #
point $-1 -60 -17.5 -20 #
straight-curve $-1 -60 0 -20 0 1 0 I I #
point $-1 -60 17.5 -20 #
face_name-twe-attrib $-1 $-1 $263 $200 8 #
model_id-kcp-attrib $-1 $371 $-1 $264 1 990666379 70 1648754689 10 #
face $372 $233 $343 $6 $-1 $373 reversed single #
plane-surface $374 0 17.5 0 0 -1 0 0 0 -1 forward_v I I I I #
surf-twe-attrib $-1 $-1 $-1 $265 117 #
coedge $-1 $268 $267 $375 $376 reversed $131 $-1 #
coedge $-1 $270 $377 $267 $324 reversed $155 $-1 #
edge $378 $276 12.822033661016949 $379 21.771186440677969 $267 $380 forward 7 unknown #
edge_name-twe-attrib $-1 $-1 $-1 $271 23 8704 #
straight-curve $381 -60 8.55084722033898 -5.5000000338983002 0 0 1 I I #
point $-1 -60 8.55084722033898 10.8813558644068 #
cur-twe-attrib $-1 $-1 $-1 $274 125 #
point $-1 -60 8.55084722033898 7.1186439999999997 #
cur-twe-attrib $-1 $-1 $-1 $277 126 #
coedge $-1 $284 $278 $382 $383 reversed $32 $-1 #
coedge $-1 $375 $384 $278 $333 forward $385 $-1 #
edge $386 $387 -30 $335 -17.118644067796609 $332 $292 forward 7 unknown #
attrib_edge_convexity-kcp-attrib $-1 $388 $-1 $279 1 #
vertex $-1 $333 $389 #
straight-curve $390 60 13.228813559322001 7.1186440677966099 0 -1 0 I I #
edge_name-twe-attrib $-1 $-1 $280 $139 6 8704 #
cur-twe-attrib $-1 $-1 $283 $214 36 #
coedge $-1 $391 $392 $284 $340 forward $366 $-1 #
edge $393 $345 -10 $394 30 $339 $395 forward 7 unknown #
coedge $-1 $396 $285 $392 $397 forward $343 $-1 #
coedge $-1 $285 $396 $287 $348 forward $343 $-1 #
loop $398 $-1 $285 $319 #
attrib_edge_convexity-kcp-attrib $-1 $399 $-1 $286 1 #
vertex $-1 $286 $400 #
straight-curve $401 60 8.75 -20 0 -1 0 I I #
coedge $-1 $288 $287 $297 $357 forward $289 $-1 #
edge $402 $403 -60 $291 60 $287 $404 forward 7 unknown #
loop_type-twe-attrib $-1 $-1 $-1 $289 0 #
convexity-sys-attrib $-1 $405 $290 $217 #
point $-1 60 17.5 -20 #
cur-twe-attrib $-1 $406 $-1 $292 220 #
attrib_edge_convexity-kcp-attrib $-1 $407 $-1 $293 1 #
straight-curve $408 0 17.5 -7.1186440677966099 1 0 0 I I #
edge_name-twe-attrib $-1 $-1 $294 $143 14 8704 #
coedge $-1 $409 $297 $396 $410 reversed $155 $-1 #
edge $411 $403 -10 $300 2.8813559322033901 $347 $412 forward 7 unknown #
cur-twe-attrib $-1 $-1 $298 $224 93 #
point $-1 -60 17.5 -7.1186440677966099 #
cur-twe-attrib $-1 $-1 $-1 $301 142 #
edge_name-twe-attrib $-1 $-1 $-1 $302 24 8704 #
straight-curve $413 -60 -6.5084746949152601 10.8813558644068 0 -1 0 I I #
face_name-twe-attrib $-1 $-1 $303 $233 11 #
model_id-kcp-attrib $-1 $414 $-1 $304 1 990666379 70 1648754689 13 #
face $415 $416 $417 $6 $-1 $418 forward single #
loop $419 $-1 $339 $304 #
plane-surface $420 0 -17.5 0 0 1 0 0 0 1 forward_v I I I I #
surf-twe-attrib $-1 $-1 $-1 $305 149 #
cur-twe-attrib $-1 $-1 $-1 $307 151 #
edge_name-twe-attrib $-1 $-1 $310 $165 5 8704 #
face_name-twe-attrib $-1 $-1 $318 $264 9 #
model_id-kcp-attrib $-1 $421 $-1 $319 1 990666379 70 1648754689 11 #
plane-surface $422 0 0 -20 0 0 1 1 0 0 forward_v I I I I #
surf-twe-attrib $-1 $423 $-1 $320 292 #
coedge $-1 $424 $332 $322 $376 forward $385 $-1 #
edge $425 $335 -60 $379 60 $375 $426 forward 7 unknown #
coedge $-1 $323 $427 $424 $428 reversed $155 $-1 #
edge_name-twe-attrib $-1 $-1 $-1 $324 9 8704 #
vertex $-1 $376 $429 #
straight-curve $430 -60 -4.2711864406779698 7.1186440677966099 0 1 0 I I #
cur-twe-attrib $-1 $431 $-1 $326 167 #
coedge $-1 $432 $433 $331 $383 forward $417 $-1 #
edge $434 $394 -26.25 $387 8.75 $382 $435 forward 7 unknown #
coedge $-1 $332 $424 $432 $436 reversed $385 $-1 #
loop $437 $-1 $332 $416 #
attrib_edge_convexity-kcp-attrib $-1 $438 $-1 $333 1 #
vertex $-1 $383 $439 #
convexity-sys-attrib $-1 $440 $334 $279 #
point $-1 60 17.5 7.1186440677966099 #
cur-twe-attrib $-1 $-1 $-1 $336 175 #
coedge $-1 $441 $339 $433 $442 reversed $366 $-1 #
coedge $-1 $339 $441 $341 $397 reversed $366 $-1 #
attrib_edge_convexity-kcp-attrib $-1 $443 $-1 $340 1 #
vertex $-1 $442 $444 #
straight-curve $445 60 -17.5 -10 0 0 1 I I #
coedge $-1 $342 $341 $356 $410 forward $343 $-1 #
edge $446 $345 -60 $447 60 $392 $448 forward 7 unknown #
loop_type-twe-attrib $-1 $-1 $-1 $343 0 #
convexity-sys-attrib $-1 $449 $344 $286 #
point $-1 60 -17.5 -20 #
cur-twe-attrib $-1 $-1 $-1 $346 181 #
attrib_edge_convexity-kcp-attrib $-1 $450 $-1 $348 1 #
vertex $-1 $357 $451 #
straight-curve $452 0 17.5 -20 1 0 0 I I #
edge_name-twe-attrib $-1 $-1 $350 $217 16 8704 #
cur-twe-attrib $-1 $-1 $352 $292 134 #
convexity-sys-attrib $-1 $453 $353 $293 #
cur-twe-attrib $-1 $-1 $-1 $354 188 #
coedge $-1 $427 $356 $441 $454 reversed $155 $-1 #
edge $455 $447 -8.75 $403 26.25 $396 $456 forward 7 unknown #
attrib_edge_convexity-kcp-attrib $-1 $457 $-1 $357 1 #
straight-curve $458 -60 17.5 -10 0 0 1 I I #
cur-twe-attrib $-1 $-1 $-1 $362 196 #
face_name-twe-attrib $-1 $-1 $364 $304 12 #
model_id-kcp-attrib $-1 $459 $-1 $365 1 990666379 70 1648754689 14 #
face $460 $-1 $385 $6 $-1 $320 reversed single #
loop $461 $-1 $382 $365 #
plane-surface $462 0 0 20 0 0 1 1 0 0 forward_v I I I I #
loop_type-twe-attrib $-1 $-1 $-1 $366 0 #
surf-twe-attrib $-1 $-1 $-1 $367 198 #
face_name-twe-attrib $-1 $-1 $372 $319 10 #
surf-twe-attrib $-1 $-1 $-1 $373 206 #
surf-twe-attrib $-1 $-1 $374 $320 160 #
coedge $-1 $384 $375 $377 $428 forward $385 $-1 #
edge_name-twe-attrib $-1 $-1 $-1 $376 34 8704 #
straight-curve $463 0 17.5 7.1186440677966099 -1 0 0 I I #
coedge $-1 $377 $409 $464 $465 reversed $155 $-1 #
edge $466 $379 17.118644067796609 $467 30 $424 $412 forward 7 unknown #
point $-1 -60 17.5 7.1186440677966099 #
cur-twe-attrib $-1 $-1 $-1 $380 211 #
cur-twe-attrib $-1 $-1 $381 $326 93 #
coedge $-1 $464 $382 $384 $436 forward $417 $-1 #
coedge $-1 $382 $464 $391 $442 forward $417 $-1 #
attrib_edge_convexity-kcp-attrib $-1 $468 $-1 $383 1 #
straight-curve $469 60 8.75 20 0 1 0 I I #
edge $470 $387 -60 $467 60 $384 $471 forward 7 unknown #
loop_type-twe-attrib $-1 $-1 $-1 $385 0 #
convexity-sys-attrib $-1 $472 $386 $333 #
point $-1 60 17.5 20 #
edge_name-twe-attrib $-1 $-1 $388 $279 10 8704 #
coedge $-1 $392 $391 $409 $454 forward $366 $-1 #
edge $473 $474 -60 $394 60 $391 $475 forward 7 unknown #
convexity-sys-attrib $-1 $476 $393 $340 #
point $-1 60 -17.5 20 #
cur-twe-attrib $-1 $-1 $-1 $395 226 #
attrib_edge_convexity-kcp-attrib $-1 $477 $-1 $397 1 #
vertex $-1 $397 $478 #
straight-curve $479 0 -17.5 -20 -1 0 0 I I #
edge_name-twe-attrib $-1 $-1 $399 $286 20 8704 #
convexity-sys-attrib $-1 $480 $402 $348 #
point $-1 -60 17.5 -20 #
cur-twe-attrib $-1 $-1 $-1 $404 234 #
edge_name-twe-attrib $-1 $-1 $407 $293 19 8704 #
edge $481 $474 -30 $447 10 $441 $482 forward 7 unknown #
attrib_edge_convexity-kcp-attrib $-1 $483 $-1 $410 1 #
straight-curve $484 -60 -8.75 -20 0 1 0 I I #
convexity-sys-attrib $-1 $485 $411 $357 #
cur-twe-attrib $-1 $486 $-1 $412 303 #
face_name-twe-attrib $-1 $-1 $415 $365 13 #
model_id-kcp-attrib $-1 $487 $-1 $416 1 990666379 70 1648754689 15 #
loop_type-twe-attrib $-1 $-1 $-1 $417 0 #
surf-twe-attrib $-1 $-1 $-1 $418 248 #
cur-twe-attrib $-1 $-1 $-1 $426 257 #
coedge $-1 $433 $432 $427 $465 forward $417 $-1 #
edge $488 $467 -26.25 $474 8.75 $464 $489 forward 7 unknown #
edge_name-twe-attrib $-1 $-1 $-1 $428 35 8704 #
vertex $-1 $436 $490 #
convexity-sys-attrib $-1 $491 $434 $383 #
cur-twe-attrib $-1 $-1 $-1 $435 264 #
edge_name-twe-attrib $-1 $-1 $-1 $436 36 8704 #
straight-curve $492 0 17.5 20 -1 0 0 I I #
edge_name-twe-attrib $-1 $-1 $438 $333 33 8704 #
edge_name-twe-attrib $-1 $-1 $-1 $442 28 8704 #
vertex $-1 $465 $493 #
straight-curve $494 0 -17.5 20 1 0 0 I I #
edge_name-twe-attrib $-1 $-1 $443 $340 27 8704 #
convexity-sys-attrib $-1 $495 $446 $397 #
point $-1 -60 -17.5 -20 #
cur-twe-attrib $-1 $-1 $-1 $448 277 #
edge_name-twe-attrib $-1 $-1 $450 $348 17 8704 #
edge_name-twe-attrib $-1 $-1 $-1 $454 29 8704 #
straight-curve $496 -60 -17.5 -10 0 0 -1 I I #
convexity-sys-attrib $-1 $497 $455 $410 #
cur-twe-attrib $-1 $-1 $-1 $456 287 #
edge_name-twe-attrib $-1 $-1 $457 $357 18 8704 #
cur-twe-attrib $-1 $-1 $458 $412 241 #
face_name-twe-attrib $-1 $-1 $460 $416 14 #
edge_name-twe-attrib $-1 $-1 $-1 $465 32 8704 #
straight-curve $498 -60 -8.75 20 0 -1 0 I I #
point $-1 -60 17.5 20 #
edge_name-twe-attrib $-1 $-1 $468 $383 31 8704 #
cur-twe-attrib $-1 $-1 $-1 $471 311 #
point $-1 -60 -17.5 20 #
cur-twe-attrib $-1 $-1 $-1 $475 315 #
edge_name-twe-attrib $-1 $-1 $477 $397 30 8704 #
cur-twe-attrib $-1 $-1 $-1 $482 323 #
edge_name-twe-attrib $-1 $-1 $483 $410 21 8704 #
cur-twe-attrib $-1 $-1 $-1 $489 332 #
End-of-ACIS-data 