700 0 2 0           
24 FBMach with ACIS - 7.0.3 13 ACIS 7.0.3 NT 24 Tue May 14 09:58:30 2002 
1 9.9999999999999995e-007 1e-010 
body $2 -1 $-1 $3 $-1 $4 #
bdycol-kcp $-1 -1 1 1 $5 #
model_id-kcp-attrib $-1 -1 $-1 $-1 $0 1 1021384709 1021384709 -534315007 1 #
lump $-1 -1 $-1 $-1 $6 $0 #
transform $-1 -1 1 0 0 0 1 0 0 0 1 0 0 0 1 rotate no_reflect no_shear #
body $7 -1 $-1 $8 $-1 $9 #
shell $-1 -1 $-1 $-1 $-1 $10 $-1 $3 #
model_id-kcp-attrib $-1 -1 $-1 $-1 $5 1 1021384709 1021384709 -534315006 1 #
lump $-1 -1 $-1 $-1 $11 $5 #
transform $-1 -1 1 0 0 0 1 0 0 0 1 0 0 0 1 no_rotate no_reflect no_shear #
face $12 -1 $-1 $13 $14 $6 $-1 $15 forward single #
shell $-1 -1 $-1 $-1 $-1 $16 $-1 $8 #
model_id-kcp-attrib $-1 -1 $17 $-1 $10 1 1021384709 1021384709 -534315007 2 #
face $18 -1 $-1 $19 $20 $6 $-1 $21 forward single #
loop $22 -1 $-1 $-1 $23 $10 #
plane-surface $24 -1 $-1 0 4.4830506101694896 -10.8813558644068 0 0 1 0 1 0 forward_v I I I I #
face $25 -1 $-1 $26 $27 $11 $-1 $28 forward single #
face_name-twe-attrib $-1 -1 $-1 $12 $10 1 #
model_id-kcp-attrib $-1 -1 $29 $-1 $13 1 1021384709 1021384709 -534315007 3 #
face $30 -1 $-1 $31 $32 $6 $-1 $33 forward single #
loop $34 -1 $-1 $-1 $35 $13 #
plane-surface $36 -1 $-1 0 8.55084722033898 -8.9999999322033908 0 -1 0 0 0 1 forward_v I I I I #
loop_type-twe-attrib $-1 -1 $-1 $-1 $14 0 #
coedge $-1 -1 $-1 $37 $38 $39 $40 reversed $14 $-1 #
surf-twe-attrib $-1 -1 $-1 $-1 $15 4 #
model_id-kcp-attrib $-1 -1 $-1 $-1 $16 1 1021384709 1021384709 -534315006 7 #
face $41 -1 $-1 $42 $43 $11 $-1 $44 reversed single #
loop $-1 -1 $-1 $-1 $45 $16 #
plane-surface $-1 -1 $-1 0 0 20 0 0 1 1 0 0 forward_v I I I I #
face_name-twe-attrib $-1 -1 $-1 $18 $13 2 #
model_id-kcp-attrib $-1 -1 $46 $-1 $19 1 1021384709 1021384709 -534315007 4 #
face $47 -1 $-1 $48 $49 $6 $-1 $50 forward single #
loop $51 -1 $-1 $-1 $52 $19 #
plane-surface $53 -1 $-1 60 17.5 -20 1 0 0 0 0 1 forward_v I I I I #
loop_type-twe-attrib $-1 -1 $-1 $-1 $20 0 #
coedge $-1 -1 $-1 $54 $55 $52 $56 reversed $20 $-1 #
surf-twe-attrib $-1 -1 $57 $-1 $21 17 #
coedge $-1 -1 $-1 $58 $23 $55 $59 reversed $14 $-1 #
coedge $-1 -1 $-1 $23 $58 $60 $61 reversed $14 $-1 #
coedge $-1 -1 $-1 $62 $52 $23 $40 forward $32 $-1 #
edge $63 -1 $-1 $64 2.4406780847457199 $65 10.576271305084703 $39 $66 forward @7 unknown #
model_id-kcp-attrib $-1 -1 $-1 $-1 $26 1 1021384709 1021384709 -534315006 4 #
face $67 -1 $-1 $68 $69 $11 $-1 $70 reversed single #
loop $-1 -1 $-1 $-1 $71 $26 #
plane-surface $-1 -1 $-1 0 0 -20 0 0 1 1 0 0 forward_v I I I I #
coedge $-1 -1 $-1 $72 $73 $74 $75 forward $27 $-1 #
face_name-twe-attrib $-1 -1 $-1 $30 $19 3 #
model_id-kcp-attrib $-1 -1 $76 $-1 $31 1 1021384709 1021384709 -534315007 5 #
face $77 -1 $-1 $78 $79 $6 $-1 $80 forward single #
loop $81 -1 $-1 $-1 $82 $31 #
plane-surface $83 -1 $-1 0 8.55084722033898 8.9999999322033908 0 -1 0 0 0 1 forward_v I I I I #
loop_type-twe-attrib $-1 -1 $-1 $-1 $32 0 #
coedge $-1 -1 $-1 $39 $84 $35 $56 forward $32 $-1 #
surf-twe-attrib $-1 -1 $-1 $-1 $33 10 #
coedge $-1 -1 $-1 $85 $35 $86 $87 reversed $20 $-1 #
coedge $-1 -1 $-1 $35 $85 $37 $59 forward $20 $-1 #
edge $88 -1 $-1 $89 -7.381355966101701 $64 -3.6186441016949011 $52 $90 forward @7 unknown #
surf-twe-attrib $-1 -1 $-1 $36 $21 6 #
coedge $-1 -1 $-1 $38 $37 $91 $92 reversed $14 $-1 #
edge $93 -1 $-1 $94 -60 $64 60 $55 $95 forward @7 unknown #
coedge $-1 -1 $-1 $96 $97 $38 $61 forward $98 $-1 #
edge $99 -1 $-1 $65 -60 $100 60 $60 $101 forward @7 unknown #
coedge $-1 -1 $-1 $102 $39 $97 $103 forward $32 $-1 #
attrib_edge_convexity-kcp-attrib $-1 -1 $104 $-1 $40 1 #
vertex $-1 -1 $-1 $40 $105 #
vertex $-1 -1 $-1 $40 $106 #
straight-curve $107 -1 $-1 60 10.9915253050847 -10.8813558644068 0 -1 0 I I #
model_id-kcp-attrib $-1 -1 $-1 $-1 $42 1 1021384709 1021384709 -534315006 6 #
face $108 -1 $-1 $109 $110 $11 $-1 $111 reversed single #
loop $-1 -1 $-1 $-1 $112 $42 #
plane-surface $-1 -1 $-1 0 -17.5 0 0 1 0 0 0 1 forward_v I I I I #
coedge $-1 -1 $-1 $113 $114 $115 $116 forward $43 $-1 #
coedge $-1 -1 $-1 $117 $45 $118 $119 forward $27 $-1 #
coedge $-1 -1 $-1 $45 $117 $120 $121 forward $27 $-1 #
coedge $-1 -1 $-1 $122 $123 $45 $75 reversed $124 $-1 #
edge $-1 -1 $-1 $125 -17.5 $126 17.5 $74 $127 forward @7 unknown #
face_name-twe-attrib $-1 -1 $-1 $47 $31 4 #
model_id-kcp-attrib $-1 -1 $128 $-1 $48 1 1021384709 1021384709 -534315007 6 #
face $129 -1 $-1 $130 $131 $6 $-1 $132 forward single #
loop $133 -1 $-1 $-1 $134 $48 #
plane-surface $135 -1 $-1 0 4.4830506101694896 10.8813558644068 0 0 -1 0 -1 0 forward_v I I I I #
loop_type-twe-attrib $-1 -1 $-1 $-1 $49 0 #
coedge $-1 -1 $-1 $136 $137 $138 $139 reversed $49 $-1 #
surf-twe-attrib $-1 -1 $140 $-1 $50 17 #
coedge $-1 -1 $-1 $52 $141 $142 $143 reversed $32 $-1 #
coedge $-1 -1 $-1 $55 $54 $144 $145 reversed $20 $-1 #
coedge $-1 -1 $-1 $142 $146 $54 $87 forward $147 $-1 #
edge $148 -1 $-1 $149 -60 $89 60 $86 $150 forward @7 unknown #
attrib_edge_convexity-kcp-attrib $-1 -1 $151 $-1 $56 1 #
vertex $-1 -1 $-1 $87 $152 #
straight-curve $153 -1 $-1 60 8.55084722033898 -14.499999966101701 0 0 -1 I I #
coedge $-1 -1 $-1 $144 $154 $58 $92 forward $155 $-1 #
edge $156 -1 $-1 $100 6.9237286949152583 $94 15.059321915254241 $91 $157 forward @7 unknown #
attrib_edge_convexity-kcp-attrib $-1 -1 $158 $-1 $59 2 #
vertex $-1 -1 $-1 $92 $159 #
straight-curve $160 -1 $-1 0 8.55084722033898 -10.8813558644068 1 0 0 I I #
coedge $-1 -1 $-1 $161 $60 $154 $162 reversed $98 $-1 #
coedge $-1 -1 $-1 $60 $161 $62 $103 reversed $98 $-1 #
loop $163 -1 $-1 $-1 $97 $130 #
attrib_edge_convexity-kcp-attrib $-1 -1 $164 $-1 $61 2 #
vertex $-1 -1 $-1 $92 $165 #
straight-curve $166 -1 $-1 0 0.41525399999999801 -10.8813558644068 -1 0 0 I I #
coedge $-1 -1 $-1 $138 $62 $134 $167 forward $32 $-1 #
edge $168 -1 $-1 $65 3.6186441016949011 $169 25.3813558305085 $62 $170 forward @7 unknown #
convexity-sys-attrib $-1 -1 $171 $63 $40 #
point $-1 -1 $-1 60 8.55084722033898 -10.8813558644068 #
point $-1 -1 $-1 60 0.41525399999999801 -10.8813558644068 #
cur-twe-attrib $-1 -1 $-1 $-1 $66 26 #
model_id-kcp-attrib $-1 -1 $-1 $-1 $68 1 1021384709 1021384709 -534315006 5 #
face $172 -1 $-1 $173 $174 $11 $-1 $175 reversed single #
loop $-1 -1 $-1 $-1 $176 $68 #
plane-surface $-1 -1 $-1 -60 0 0 1 0 0 0 0 -1 forward_v I I I I #
coedge $-1 -1 $-1 $177 $120 $178 $179 forward $69 $-1 #
coedge $-1 -1 $-1 $180 $71 $177 $181 forward $43 $-1 #
coedge $-1 -1 $-1 $71 $180 $182 $183 forward $43 $-1 #
coedge $-1 -1 $-1 $123 $122 $71 $116 reversed $124 $-1 #
edge $-1 -1 $-1 $184 -17.5 $185 17.5 $115 $186 forward @7 unknown #
coedge $-1 -1 $-1 $73 $72 $187 $188 forward $27 $-1 #
coedge $-1 -1 $-1 $189 $190 $72 $119 reversed $174 $-1 #
edge $-1 -1 $-1 $126 -60 $191 60 $118 $192 forward @7 unknown #
coedge $-1 -1 $-1 $112 $193 $73 $121 reversed $69 $-1 #
edge $-1 -1 $-1 $194 -60 $125 60 $120 $195 forward @7 unknown #
coedge $-1 -1 $-1 $115 $74 $193 $196 forward $124 $-1 #
coedge $-1 -1 $-1 $74 $115 $189 $197 reversed $124 $-1 #
loop $-1 -1 $-1 $-1 $122 $173 #
vertex $-1 -1 $-1 $75 $198 #
vertex $-1 -1 $-1 $75 $199 #
straight-curve $-1 -1 $-1 60 0 20 0 1 0 I I #
face_name-twe-attrib $-1 -1 $-1 $77 $48 5 #
model_id-kcp-attrib $-1 -1 $200 $-1 $78 1 1021384709 1021384709 -534315007 7 #
face $201 -1 $-1 $202 $98 $6 $-1 $203 forward single #
loop $204 -1 $-1 $-1 $205 $78 #
plane-surface $206 -1 $-1 0 8.9576271186440692 7.1186440677966099 0 0 -1 0 -1 0 forward_v I I I I #
loop_type-twe-attrib $-1 -1 $-1 $-1 $79 0 #
coedge $-1 -1 $-1 $207 $208 $102 $167 reversed $79 $-1 #
surf-twe-attrib $-1 -1 $-1 $-1 $80 28 #
coedge $-1 -1 $-1 $209 $82 $208 $210 forward $49 $-1 #
coedge $-1 -1 $-1 $82 $209 $205 $211 reversed $49 $-1 #
coedge $-1 -1 $-1 $212 $102 $82 $139 forward $32 $-1 #
edge $213 -1 $-1 $214 -16.381355898305099 $215 -12.618644033898299 $138 $216 forward @7 unknown #
surf-twe-attrib $-1 -1 $-1 $83 $50 6 #
coedge $-1 -1 $-1 $84 $217 $218 $219 reversed $32 $-1 #
coedge $-1 -1 $-1 $220 $86 $84 $143 forward $147 $-1 #
edge $221 -1 $-1 $89 -4.6779663389830208 $222 4.2711864406779991 $142 $223 forward @7 unknown #
coedge $-1 -1 $-1 $224 $91 $85 $145 forward $155 $-1 #
edge $225 -1 $-1 $94 3.6186441016949011 $149 7.381355966101701 $144 $226 forward @7 unknown #
coedge $-1 -1 $-1 $86 $220 $224 $227 forward $147 $-1 #
loop $228 -1 $-1 $-1 $86 $202 #
edge_name-twe-attrib $-1 -1 $-1 $-1 $87 13 8704 #
vertex $-1 -1 $-1 $227 $229 #
straight-curve $230 -1 $-1 0 8.55084722033898 -7.1186440677966099 1 0 0 I I #
convexity-sys-attrib $-1 -1 $231 $88 $56 #
point $-1 -1 $-1 60 8.55084722033898 -7.1186439999999997 #
cur-twe-attrib $-1 -1 $232 $-1 $90 87 #
coedge $-1 -1 $-1 $91 $233 $96 $162 forward $155 $-1 #
loop $234 -1 $-1 $-1 $144 $235 #
attrib_edge_convexity-kcp-attrib $-1 -1 $236 $-1 $92 1 #
straight-curve $237 -1 $-1 -60 -6.5084746949152601 -10.8813558644068 0 1 0 I I #
convexity-sys-attrib $-1 -1 $238 $93 $59 #
point $-1 -1 $-1 -60 8.55084722033898 -10.8813558644068 #
cur-twe-attrib $-1 -1 $-1 $-1 $95 39 #
coedge $-1 -1 $-1 $97 $96 $207 $239 forward $98 $-1 #
edge $240 -1 $-1 $241 -16.381355898305099 $100 5.3813558305084994 $154 $242 forward @7 unknown #
loop_type-twe-attrib $-1 -1 $-1 $-1 $98 0 #
convexity-sys-attrib $-1 -1 $243 $99 $61 #
point $-1 -1 $-1 -60 0.41525399999999801 -10.8813558644068 #
cur-twe-attrib $-1 -1 $-1 $-1 $101 41 #
edge $244 -1 $-1 $169 -10.576271305084703 $214 -2.4406780847457199 $102 $245 forward @7 unknown #
attrib_edge_convexity-kcp-attrib $-1 -1 $246 $-1 $103 1 #
vertex $-1 -1 $-1 $167 $247 #
straight-curve $248 -1 $-1 60 0.41525399999999701 -14.499999966101701 0 0 1 I I #
edge_name-twe-attrib $-1 -1 $-1 $104 $40 3 8704 #
model_id-kcp-attrib $-1 -1 $-1 $-1 $109 1 1021384709 1021384709 -534315006 3 #
face $249 -1 $-1 $-1 $124 $11 $-1 $250 reversed single #
loop $-1 -1 $-1 $-1 $189 $109 #
plane-surface $-1 -1 $-1 0 17.5 0 0 -1 0 0 0 -1 forward_v I I I I #
coedge $-1 -1 $-1 $251 $187 $190 $252 forward $110 $-1 #
coedge $-1 -1 $-1 $193 $112 $113 $181 reversed $69 $-1 #
coedge $-1 -1 $-1 $187 $251 $112 $179 reversed $110 $-1 #
edge $-1 -1 $-1 $194 -20 $253 20 $178 $254 forward @7 unknown #
coedge $-1 -1 $-1 $114 $113 $251 $255 forward $43 $-1 #
edge $-1 -1 $-1 $185 -60 $253 60 $177 $256 forward @7 unknown #
coedge $-1 -1 $-1 $190 $189 $114 $183 reversed $174 $-1 #
edge $-1 -1 $-1 $257 -60 $184 60 $182 $258 forward @7 unknown #
vertex $-1 -1 $-1 $116 $259 #
vertex $-1 -1 $-1 $196 $260 #
straight-curve $-1 -1 $-1 60 0 -20 0 -1 0 I I #
coedge $-1 -1 $-1 $176 $178 $117 $188 reversed $110 $-1 #
edge $-1 -1 $-1 $191 -17.5 $194 17.5 $187 $261 forward @7 unknown #
coedge $-1 -1 $-1 $182 $118 $123 $197 forward $174 $-1 #
coedge $-1 -1 $-1 $118 $182 $176 $252 reversed $174 $-1 #
vertex $-1 -1 $-1 $119 $262 #
straight-curve $-1 -1 $-1 0 17.5 20 -1 0 0 I I #
coedge $-1 -1 $-1 $120 $177 $122 $196 reversed $69 $-1 #
vertex $-1 -1 $-1 $188 $263 #
straight-curve $-1 -1 $-1 0 -17.5 20 1 0 0 I I #
edge $-1 -1 $-1 $125 -20 $185 20 $122 $264 forward @7 unknown #
edge $-1 -1 $-1 $126 -20 $184 20 $123 $265 forward @7 unknown #
point $-1 -1 $-1 60 -17.5 20 #
point $-1 -1 $-1 60 17.5 20 #
face_name-twe-attrib $-1 -1 $-1 $129 $78 6 #
model_id-kcp-attrib $-1 -1 $266 $-1 $130 1 1021384709 1021384709 -534315007 8 #
face $267 -1 $-1 $268 $147 $6 $-1 $269 forward single #
plane-surface $270 -1 $-1 0 0.41525423728813798 0 0 1 0 0 0 -1 forward_v I I I I #
loop_type-twe-attrib $-1 -1 $-1 $-1 $131 0 #
coedge $-1 -1 $-1 $271 $272 $137 $211 forward $131 $-1 #
surf-twe-attrib $-1 -1 $-1 $-1 $132 48 #
coedge $-1 -1 $-1 $273 $134 $161 $239 reversed $79 $-1 #
coedge $-1 -1 $-1 $134 $273 $136 $210 reversed $79 $-1 #
coedge $-1 -1 $-1 $137 $136 $274 $275 reversed $49 $-1 #
edge $276 -1 $-1 $214 -60 $277 60 $136 $278 forward @7 unknown #
edge $279 -1 $-1 $215 -60 $280 60 $205 $281 forward @7 unknown #
coedge $-1 -1 $-1 $282 $138 $272 $283 reversed $32 $-1 #
attrib_edge_convexity-kcp-attrib $-1 -1 $284 $-1 $139 1 #
vertex $-1 -1 $-1 $167 $285 #
vertex $-1 -1 $-1 $283 $286 #
straight-curve $287 -1 $-1 60 8.55084722033898 -5.5000000338983002 0 0 -1 I I #
coedge $-1 -1 $-1 $141 $288 $289 $290 reversed $32 $-1 #
coedge $-1 -1 $-1 $291 $292 $141 $219 forward $293 $-1 #
edge $294 -1 $-1 $222 -2.8813559322033901 $295 10 $218 $296 forward @7 unknown #
coedge $-1 -1 $-1 $146 $142 $292 $297 reversed $147 $-1 #
attrib_edge_convexity-kcp-attrib $-1 -1 $298 $-1 $143 1 #
vertex $-1 -1 $-1 $297 $299 #
straight-curve $300 -1 $-1 60 13.228813559322001 -7.1186440677966099 0 1 0 I I #
coedge $-1 -1 $-1 $301 $144 $146 $227 reversed $155 $-1 #
edge_name-twe-attrib $-1 -1 $-1 $-1 $145 22 8704 #
straight-curve $302 -1 $-1 -60 8.55084722033898 -14.499999966101701 0 0 1 I I #
edge $303 -1 $-1 $304 -21.771186440677969 $149 -12.822033661016949 $146 $305 forward @7 unknown #
loop_type-twe-attrib $-1 -1 $-1 $-1 $147 0 #
point $-1 -1 $-1 -60 8.55084722033898 -7.1186439999999997 #
cur-twe-attrib $-1 -1 $-1 $-1 $150 57 #
edge_name-twe-attrib $-1 -1 $-1 $151 $56 2 8704 #
cur-twe-attrib $-1 -1 $-1 $153 $90 36 #
coedge $-1 -1 $-1 $154 $274 $273 $306 forward $155 $-1 #
loop_type-twe-attrib $-1 -1 $-1 $-1 $155 0 #
face $307 -1 $-1 $308 $155 $6 $-1 $309 forward single #
convexity-sys-attrib $-1 -1 $310 $156 $92 #
cur-twe-attrib $-1 -1 $-1 $-1 $157 62 #
edge_name-twe-attrib $-1 -1 $-1 $158 $59 1 4608 #
edge $311 -1 $-1 $241 -60 $169 60 $161 $312 forward @7 unknown #
attrib_edge_convexity-kcp-attrib $-1 -1 $313 $-1 $162 1 #
vertex $-1 -1 $-1 $306 $314 #
straight-curve $315 -1 $-1 -60 0.41525399999999701 -5.5000000338983002 0 0 -1 I I #
edge_name-twe-attrib $-1 -1 $-1 $164 $61 11 4608 #
attrib_edge_convexity-kcp-attrib $-1 -1 $316 $-1 $167 1 #
straight-curve $317 -1 $-1 60 10.9915253050847 10.8813558644068 0 1 0 I I #
convexity-sys-attrib $-1 -1 $318 $168 $103 #
point $-1 -1 $-1 60 0.41525399999999801 10.8813558644068 #
cur-twe-attrib $-1 -1 $-1 $-1 $170 73 #
model_id-kcp-attrib $-1 -1 $-1 $-1 $173 1 1021384709 1021384709 -534315006 2 #
plane-surface $-1 -1 $-1 60 0 0 -1 0 0 0 0 1 forward_v I I I I #
coedge $-1 -1 $-1 $178 $176 $180 $255 reversed $110 $-1 #
edge $-1 -1 $-1 $191 -20 $257 20 $190 $319 forward @7 unknown #
vertex $-1 -1 $-1 $255 $320 #
straight-curve $-1 -1 $-1 -60 -17.5 0 0 0 -1 I I #
edge $-1 -1 $-1 $253 -17.5 $257 17.5 $251 $321 forward @7 unknown #
straight-curve $-1 -1 $-1 0 -17.5 -20 -1 0 0 I I #
vertex $-1 -1 $-1 $183 $322 #
straight-curve $-1 -1 $-1 0 17.5 -20 1 0 0 I I #
point $-1 -1 $-1 60 17.5 -20 #
point $-1 -1 $-1 60 -17.5 -20 #
straight-curve $-1 -1 $-1 -60 0 20 0 -1 0 I I #
point $-1 -1 $-1 -60 17.5 20 #
point $-1 -1 $-1 -60 -17.5 20 #
straight-curve $-1 -1 $-1 60 -17.5 0 0 0 -1 I I #
straight-curve $-1 -1 $-1 60 17.5 0 0 0 -1 I I #
face_name-twe-attrib $-1 -1 $-1 $201 $130 7 #
model_id-kcp-attrib $-1 -1 $323 $-1 $202 1 1021384709 1021384709 -534315007 9 #
face $324 -1 $-1 $325 $293 $6 $-1 $326 reversed single #
plane-surface $327 -1 $-1 0 8.9576271186440692 -7.1186440677966099 0 0 1 0 1 0 forward_v I I I I #
surf-twe-attrib $-1 -1 $-1 $-1 $203 78 #
coedge $-1 -1 $-1 $328 $205 $329 $330 forward $131 $-1 #
coedge $-1 -1 $-1 $205 $328 $212 $283 forward $131 $-1 #
coedge $-1 -1 $-1 $208 $207 $233 $306 reversed $79 $-1 #
coedge $-1 -1 $-1 $233 $329 $209 $275 forward $155 $-1 #
edge $331 -1 $-1 $280 12.618644033898299 $277 16.381355898305099 $274 $332 forward @7 unknown #
attrib_edge_convexity-kcp-attrib $-1 -1 $333 $-1 $210 2 #
vertex $-1 -1 $-1 $306 $334 #
straight-curve $335 -1 $-1 0 8.55084722033898 10.8813558644068 -1 0 0 I I #
edge_name-twe-attrib $-1 -1 $-1 $-1 $211 8 8704 #
vertex $-1 -1 $-1 $275 $336 #
straight-curve $337 -1 $-1 0 8.55084722033898 7.1186440677966099 -1 0 0 I I #
coedge $-1 -1 $-1 $338 $212 $339 $340 reversed $32 $-1 #
edge $341 -1 $-1 $342 -4.2711864406779991 $215 4.6779663389830208 $272 $343 forward @7 unknown #
convexity-sys-attrib $-1 -1 $344 $213 $139 #
point $-1 -1 $-1 60 8.55084722033898 10.8813558644068 #
point $-1 -1 $-1 60 8.55084722033898 7.1186439999999997 #
cur-twe-attrib $-1 -1 $345 $-1 $216 87 #
coedge $-1 -1 $-1 $217 $338 $346 $347 reversed $32 $-1 #
coedge $-1 -1 $-1 $348 $349 $217 $290 forward $350 $-1 #
edge $351 -1 $-1 $295 -8.75 $352 26.25 $289 $353 forward @7 unknown #
coedge $-1 -1 $-1 $354 $218 $349 $355 reversed $293 $-1 #
coedge $-1 -1 $-1 $218 $354 $220 $297 forward $293 $-1 #
loop $356 -1 $-1 $-1 $218 $268 #
attrib_edge_convexity-kcp-attrib $-1 -1 $357 $-1 $219 1 #
vertex $-1 -1 $-1 $355 $358 #
straight-curve $359 -1 $-1 60 17.5 -10 0 0 -1 I I #
edge $360 -1 $-1 $304 -60 $222 60 $292 $361 forward @7 unknown #
convexity-sys-attrib $-1 -1 $362 $221 $143 #
point $-1 -1 $-1 60 17.5 -7.1186440677966099 #
cur-twe-attrib $-1 -1 $-1 $-1 $223 91 #
coedge $-1 -1 $-1 $363 $224 $354 $364 reversed $155 $-1 #
cur-twe-attrib $-1 -1 $365 $-1 $226 167 #
edge_name-twe-attrib $-1 -1 $-1 $-1 $227 15 8704 #
vertex $-1 -1 $-1 $227 $366 #
straight-curve $367 -1 $-1 -60 -4.2711864406779698 -7.1186440677966099 0 -1 0 I I #
edge $368 -1 $-1 $277 -15.059321915254241 $241 -6.9237286949152583 $233 $369 forward @7 unknown #
model_id-kcp-attrib $-1 -1 $370 $-1 $235 1 1021384709 1021384709 -534315007 12 #
face $371 -1 $-1 $372 $373 $6 $-1 $374 reversed single #
plane-surface $375 -1 $-1 -60 -17.5 -20 -1 0 0 0 0 1 forward_v I I I I #
edge_name-twe-attrib $-1 -1 $-1 $236 $92 26 8704 #
attrib_edge_convexity-kcp-attrib $-1 -1 $376 $-1 $239 2 #
straight-curve $377 -1 $-1 0 0.41525399999999801 10.8813558644068 1 0 0 I I #
convexity-sys-attrib $-1 -1 $378 $240 $162 #
point $-1 -1 $-1 -60 0.41525399999999801 10.8813558644068 #
cur-twe-attrib $-1 -1 $-1 $-1 $242 108 #
convexity-sys-attrib $-1 -1 $379 $244 $167 #
cur-twe-attrib $-1 -1 $-1 $-1 $245 112 #
edge_name-twe-attrib $-1 -1 $-1 $246 $103 4 8704 #
straight-curve $-1 -1 $-1 -60 17.5 0 0 0 -1 I I #
point $-1 -1 $-1 -60 -17.5 -20 #
straight-curve $-1 -1 $-1 -60 0 -20 0 1 0 I I #
point $-1 -1 $-1 -60 17.5 -20 #
face_name-twe-attrib $-1 -1 $-1 $267 $202 8 #
model_id-kcp-attrib $-1 -1 $380 $-1 $268 1 1021384709 1021384709 -534315007 10 #
face $381 -1 $-1 $235 $350 $6 $-1 $382 reversed single #
plane-surface $383 -1 $-1 0 17.5 0 0 -1 0 0 0 -1 forward_v I I I I #
surf-twe-attrib $-1 -1 $-1 $-1 $269 117 #
coedge $-1 -1 $-1 $272 $271 $384 $385 reversed $131 $-1 #
coedge $-1 -1 $-1 $274 $386 $271 $330 reversed $155 $-1 #
edge $387 -1 $-1 $280 12.822033661016949 $388 21.771186440677969 $271 $389 forward @7 unknown #
edge_name-twe-attrib $-1 -1 $-1 $-1 $275 23 8704 #
straight-curve $390 -1 $-1 -60 8.55084722033898 -5.5000000338983002 0 0 1 I I #
convexity-sys-attrib $-1 -1 $391 $276 $210 #
point $-1 -1 $-1 -60 8.55084722033898 10.8813558644068 #
cur-twe-attrib $-1 -1 $-1 $-1 $278 125 #
point $-1 -1 $-1 -60 8.55084722033898 7.1186439999999997 #
cur-twe-attrib $-1 -1 $-1 $-1 $281 126 #
coedge $-1 -1 $-1 $288 $282 $392 $393 reversed $32 $-1 #
coedge $-1 -1 $-1 $384 $394 $282 $340 forward $395 $-1 #
edge $396 -1 $-1 $397 -30 $342 -17.118644067796609 $339 $296 forward @7 unknown #
attrib_edge_convexity-kcp-attrib $-1 -1 $398 $-1 $283 1 #
vertex $-1 -1 $-1 $340 $399 #
straight-curve $400 -1 $-1 60 13.228813559322001 7.1186440677966099 0 -1 0 I I #
edge_name-twe-attrib $-1 -1 $-1 $284 $139 6 8704 #
cur-twe-attrib $-1 -1 $-1 $287 $216 36 #
coedge $-1 -1 $-1 $401 $402 $288 $347 forward $373 $-1 #
edge $403 -1 $-1 $352 -10 $404 30 $346 $405 forward @7 unknown #
coedge $-1 -1 $-1 $406 $289 $402 $407 forward $350 $-1 #
coedge $-1 -1 $-1 $289 $406 $291 $355 forward $350 $-1 #
loop $408 -1 $-1 $-1 $289 $325 #
attrib_edge_convexity-kcp-attrib $-1 -1 $409 $-1 $290 1 #
vertex $-1 -1 $-1 $290 $410 #
straight-curve $411 -1 $-1 60 8.75 -20 0 -1 0 I I #
coedge $-1 -1 $-1 $292 $291 $301 $364 forward $293 $-1 #
edge $412 -1 $-1 $413 -60 $295 60 $291 $414 forward @7 unknown #
loop_type-twe-attrib $-1 -1 $-1 $-1 $293 0 #
convexity-sys-attrib $-1 -1 $415 $294 $219 #
point $-1 -1 $-1 60 17.5 -20 #
cur-twe-attrib $-1 -1 $416 $-1 $296 220 #
attrib_edge_convexity-kcp-attrib $-1 -1 $417 $-1 $297 1 #
straight-curve $418 -1 $-1 0 17.5 -7.1186440677966099 1 0 0 I I #
edge_name-twe-attrib $-1 -1 $-1 $298 $143 14 8704 #
coedge $-1 -1 $-1 $419 $301 $406 $420 reversed $155 $-1 #
edge $421 -1 $-1 $413 -10 $304 2.8813559322033901 $354 $422 forward @7 unknown #
cur-twe-attrib $-1 -1 $-1 $302 $226 93 #
point $-1 -1 $-1 -60 17.5 -7.1186440677966099 #
cur-twe-attrib $-1 -1 $-1 $-1 $305 142 #
attrib_edge_convexity-kcp-attrib $-1 -1 $423 $-1 $306 1 #
straight-curve $424 -1 $-1 -60 -6.5084746949152601 10.8813558644068 0 -1 0 I I #
face_name-twe-attrib $-1 -1 $-1 $307 $235 11 #
model_id-kcp-attrib $-1 -1 $425 $-1 $308 1 1021384709 1021384709 -534315007 13 #
face $426 -1 $-1 $427 $428 $6 $-1 $429 forward single #
loop $430 -1 $-1 $-1 $346 $308 #
plane-surface $431 -1 $-1 0 -17.5 0 0 1 0 0 0 1 forward_v I I I I #
surf-twe-attrib $-1 -1 $-1 $-1 $309 149 #
convexity-sys-attrib $-1 -1 $432 $311 $239 #
cur-twe-attrib $-1 -1 $-1 $-1 $312 151 #
edge_name-twe-attrib $-1 -1 $-1 $313 $162 25 8704 #
edge_name-twe-attrib $-1 -1 $-1 $316 $167 5 8704 #
face_name-twe-attrib $-1 -1 $-1 $324 $268 9 #
model_id-kcp-attrib $-1 -1 $433 $-1 $325 1 1021384709 1021384709 -534315007 11 #
plane-surface $434 -1 $-1 0 0 -20 0 0 1 1 0 0 forward_v I I I I #
surf-twe-attrib $-1 -1 $435 $-1 $326 292 #
coedge $-1 -1 $-1 $436 $339 $328 $385 forward $395 $-1 #
edge $437 -1 $-1 $342 -60 $388 60 $384 $438 forward @7 unknown #
coedge $-1 -1 $-1 $329 $439 $436 $440 reversed $155 $-1 #
edge_name-twe-attrib $-1 -1 $-1 $-1 $330 9 8704 #
vertex $-1 -1 $-1 $385 $441 #
straight-curve $442 -1 $-1 -60 -4.2711864406779698 7.1186440677966099 0 1 0 I I #
cur-twe-attrib $-1 -1 $443 $-1 $332 167 #
edge_name-twe-attrib $-1 -1 $-1 $333 $210 7 4608 #
coedge $-1 -1 $-1 $444 $445 $338 $393 forward $428 $-1 #
edge $446 -1 $-1 $404 -26.25 $397 8.75 $392 $447 forward @7 unknown #
coedge $-1 -1 $-1 $339 $436 $444 $448 reversed $395 $-1 #
loop $449 -1 $-1 $-1 $339 $427 #
attrib_edge_convexity-kcp-attrib $-1 -1 $450 $-1 $340 1 #
vertex $-1 -1 $-1 $393 $451 #
convexity-sys-attrib $-1 -1 $452 $341 $283 #
point $-1 -1 $-1 60 17.5 7.1186440677966099 #
cur-twe-attrib $-1 -1 $-1 $-1 $343 175 #
coedge $-1 -1 $-1 $453 $346 $445 $454 reversed $373 $-1 #
coedge $-1 -1 $-1 $346 $453 $348 $407 reversed $373 $-1 #
attrib_edge_convexity-kcp-attrib $-1 -1 $455 $-1 $347 1 #
vertex $-1 -1 $-1 $454 $456 #
straight-curve $457 -1 $-1 60 -17.5 -10 0 0 1 I I #
coedge $-1 -1 $-1 $349 $348 $363 $420 forward $350 $-1 #
edge $458 -1 $-1 $352 -60 $459 60 $402 $460 forward @7 unknown #
loop_type-twe-attrib $-1 -1 $-1 $-1 $350 0 #
convexity-sys-attrib $-1 -1 $461 $351 $290 #
point $-1 -1 $-1 60 -17.5 -20 #
cur-twe-attrib $-1 -1 $-1 $-1 $353 181 #
attrib_edge_convexity-kcp-attrib $-1 -1 $462 $-1 $355 1 #
vertex $-1 -1 $-1 $364 $463 #
straight-curve $464 -1 $-1 0 17.5 -20 1 0 0 I I #
edge_name-twe-attrib $-1 -1 $-1 $357 $219 16 8704 #
cur-twe-attrib $-1 -1 $-1 $359 $296 134 #
convexity-sys-attrib $-1 -1 $465 $360 $297 #
cur-twe-attrib $-1 -1 $-1 $-1 $361 188 #
coedge $-1 -1 $-1 $439 $363 $453 $466 reversed $155 $-1 #
edge $467 -1 $-1 $459 -8.75 $413 26.25 $406 $468 forward @7 unknown #
attrib_edge_convexity-kcp-attrib $-1 -1 $469 $-1 $364 1 #
straight-curve $470 -1 $-1 -60 17.5 -10 0 0 1 I I #
convexity-sys-attrib $-1 -1 $471 $368 $306 #
cur-twe-attrib $-1 -1 $-1 $-1 $369 196 #
face_name-twe-attrib $-1 -1 $-1 $371 $308 12 #
model_id-kcp-attrib $-1 -1 $472 $-1 $372 1 1021384709 1021384709 -534315007 14 #
face $473 -1 $-1 $-1 $395 $6 $-1 $326 reversed single #
loop $474 -1 $-1 $-1 $392 $372 #
plane-surface $475 -1 $-1 0 0 20 0 0 1 1 0 0 forward_v I I I I #
loop_type-twe-attrib $-1 -1 $-1 $-1 $373 0 #
surf-twe-attrib $-1 -1 $-1 $-1 $374 198 #
edge_name-twe-attrib $-1 -1 $-1 $376 $239 12 4608 #
face_name-twe-attrib $-1 -1 $-1 $381 $325 10 #
surf-twe-attrib $-1 -1 $-1 $-1 $382 206 #
surf-twe-attrib $-1 -1 $-1 $383 $326 160 #
coedge $-1 -1 $-1 $394 $384 $386 $440 forward $395 $-1 #
edge_name-twe-attrib $-1 -1 $-1 $-1 $385 34 8704 #
straight-curve $476 -1 $-1 0 17.5 7.1186440677966099 -1 0 0 I I #
coedge $-1 -1 $-1 $386 $419 $477 $478 reversed $155 $-1 #
edge $479 -1 $-1 $388 17.118644067796609 $480 30 $436 $422 forward @7 unknown #
point $-1 -1 $-1 -60 17.5 7.1186440677966099 #
cur-twe-attrib $-1 -1 $-1 $-1 $389 211 #
cur-twe-attrib $-1 -1 $-1 $390 $332 93 #
coedge $-1 -1 $-1 $477 $392 $394 $448 forward $428 $-1 #
coedge $-1 -1 $-1 $392 $477 $401 $454 forward $428 $-1 #
attrib_edge_convexity-kcp-attrib $-1 -1 $481 $-1 $393 1 #
straight-curve $482 -1 $-1 60 8.75 20 0 1 0 I I #
edge $483 -1 $-1 $397 -60 $480 60 $394 $484 forward @7 unknown #
loop_type-twe-attrib $-1 -1 $-1 $-1 $395 0 #
convexity-sys-attrib $-1 -1 $485 $396 $340 #
point $-1 -1 $-1 60 17.5 20 #
edge_name-twe-attrib $-1 -1 $-1 $398 $283 10 8704 #
coedge $-1 -1 $-1 $402 $401 $419 $466 forward $373 $-1 #
edge $486 -1 $-1 $487 -60 $404 60 $401 $488 forward @7 unknown #
convexity-sys-attrib $-1 -1 $489 $403 $347 #
point $-1 -1 $-1 60 -17.5 20 #
cur-twe-attrib $-1 -1 $-1 $-1 $405 226 #
attrib_edge_convexity-kcp-attrib $-1 -1 $490 $-1 $407 1 #
vertex $-1 -1 $-1 $407 $491 #
straight-curve $492 -1 $-1 0 -17.5 -20 -1 0 0 I I #
edge_name-twe-attrib $-1 -1 $-1 $409 $290 20 8704 #
convexity-sys-attrib $-1 -1 $493 $412 $355 #
point $-1 -1 $-1 -60 17.5 -20 #
cur-twe-attrib $-1 -1 $-1 $-1 $414 234 #
edge_name-twe-attrib $-1 -1 $-1 $417 $297 19 8704 #
edge $494 -1 $-1 $487 -30 $459 10 $453 $495 forward @7 unknown #
attrib_edge_convexity-kcp-attrib $-1 -1 $496 $-1 $420 1 #
straight-curve $497 -1 $-1 -60 -8.75 -20 0 1 0 I I #
convexity-sys-attrib $-1 -1 $498 $421 $364 #
cur-twe-attrib $-1 -1 $499 $-1 $422 303 #
edge_name-twe-attrib $-1 -1 $-1 $423 $306 24 8704 #
face_name-twe-attrib $-1 -1 $-1 $426 $372 13 #
model_id-kcp-attrib $-1 -1 $500 $-1 $427 1 1021384709 1021384709 -534315007 15 #
loop_type-twe-attrib $-1 -1 $-1 $-1 $428 0 #
surf-twe-attrib $-1 -1 $-1 $-1 $429 248 #
cur-twe-attrib $-1 -1 $-1 $-1 $438 257 #
coedge $-1 -1 $-1 $445 $444 $439 $478 forward $428 $-1 #
edge $501 -1 $-1 $480 -26.25 $487 8.75 $477 $502 forward @7 unknown #
edge_name-twe-attrib $-1 -1 $-1 $-1 $440 35 8704 #
vertex $-1 -1 $-1 $448 $503 #
convexity-sys-attrib $-1 -1 $504 $446 $393 #
cur-twe-attrib $-1 -1 $-1 $-1 $447 264 #
edge_name-twe-attrib $-1 -1 $-1 $-1 $448 36 8704 #
straight-curve $505 -1 $-1 0 17.5 20 -1 0 0 I I #
edge_name-twe-attrib $-1 -1 $-1 $450 $340 33 8704 #
edge_name-twe-attrib $-1 -1 $-1 $-1 $454 28 8704 #
vertex $-1 -1 $-1 $478 $506 #
straight-curve $507 -1 $-1 0 -17.5 20 1 0 0 I I #
edge_name-twe-attrib $-1 -1 $-1 $455 $347 27 8704 #
convexity-sys-attrib $-1 -1 $508 $458 $407 #
point $-1 -1 $-1 -60 -17.5 -20 #
cur-twe-attrib $-1 -1 $-1 $-1 $460 277 #
edge_name-twe-attrib $-1 -1 $-1 $462 $355 17 8704 #
edge_name-twe-attrib $-1 -1 $-1 $-1 $466 29 8704 #
straight-curve $509 -1 $-1 -60 -17.5 -10 0 0 -1 I I #
convexity-sys-attrib $-1 -1 $510 $467 $420 #
cur-twe-attrib $-1 -1 $-1 $-1 $468 287 #
edge_name-twe-attrib $-1 -1 $-1 $469 $364 18 8704 #
cur-twe-attrib $-1 -1 $-1 $470 $422 241 #
face_name-twe-attrib $-1 -1 $-1 $473 $427 14 #
edge_name-twe-attrib $-1 -1 $-1 $-1 $478 32 8704 #
straight-curve $511 -1 $-1 -60 -8.75 20 0 -1 0 I I #
point $-1 -1 $-1 -60 17.5 20 #
edge_name-twe-attrib $-1 -1 $-1 $481 $393 31 8704 #
cur-twe-attrib $-1 -1 $-1 $-1 $484 311 #
point $-1 -1 $-1 -60 -17.5 20 #
cur-twe-attrib $-1 -1 $-1 $-1 $488 315 #
edge_name-twe-attrib $-1 -1 $-1 $490 $407 30 8704 #
cur-twe-attrib $-1 -1 $-1 $-1 $495 323 #
edge_name-twe-attrib $-1 -1 $-1 $496 $420 21 8704 #
cur-twe-attrib $-1 -1 $-1 $-1 $502 332 #
End-of-ACIS-data 