600 0 1 0           
113 GICL ACIS Healer - Source: /gicl/data5/repository/ICEM-CDC/Fixture_Models/bluco_412158_I/bluco_412158_I.sat - 6 0 18 ACIS 6.0.3 Solaris 24 Sat Apr 13 23:05:39 2002 
1 9.999999999999999547e-07 1.000000000000000036e-10 
body $-1 $1 $-1 $2 #
lump $-1 $-1 $3 $0 #
transform $-1 1 0 0 0 1 0 0 0 1 0 0 0 1 no_rotate no_reflect no_shear #
shell $-1 $-1 $-1 $4 $-1 $1 #
face $5 $6 $7 $3 $-1 $8 forward single #
face_name-twe-attrib $-1 $-1 $-1 $4 1 #
face $9 $10 $11 $3 $-1 $12 forward single #
loop $13 $-1 $14 $4 #
plane-surface $15 0 4.48305061016948958 -10.88135586440679958 0 0 1 0 1 0 forward_v I I I I #
face_name-twe-attrib $-1 $-1 $-1 $6 2 #
face $16 $17 $18 $3 $-1 $19 forward single #
loop $20 $-1 $21 $6 #
plane-surface $22 0 8.550847220338980037 -8.999999932203390784 0 -1 0 0 0 1 forward_v I I I I #
loop_type-twe-attrib $-1 $-1 $-1 $7 0 #
coedge $-1 $23 $24 $25 $26 reversed $7 $-1 #
surf-twe-attrib $-1 $-1 $-1 $8 4 #
face_name-twe-attrib $-1 $-1 $-1 $10 3 #
face $27 $28 $29 $3 $-1 $30 forward single #
loop $31 $-1 $32 $10 #
plane-surface $33 60 17.5 -20 1 0 0 0 0 1 forward_v I I I I #
loop_type-twe-attrib $-1 $-1 $-1 $11 0 #
coedge $-1 $34 $35 $32 $36 reversed $11 $-1 #
surf-twe-attrib $-1 $37 $-1 $12 17 #
coedge $-1 $38 $14 $35 $39 reversed $7 $-1 #
coedge $-1 $14 $38 $40 $41 reversed $7 $-1 #
coedge $-1 $42 $32 $14 $26 forward $18 $-1 #
edge $43 $44 2.4406780847457199 $45 10.57627130508470259 $25 $46 forward 7 unknown #
face_name-twe-attrib $-1 $-1 $-1 $17 4 #
face $47 $48 $49 $3 $-1 $50 forward single #
loop $51 $-1 $52 $17 #
plane-surface $53 0 8.550847220338980037 8.999999932203390784 0 -1 0 0 0 1 forward_v I I I I #
loop_type-twe-attrib $-1 $-1 $-1 $18 0 #
coedge $-1 $25 $54 $21 $36 forward $18 $-1 #
surf-twe-attrib $-1 $-1 $-1 $19 10 #
coedge $-1 $55 $21 $56 $57 reversed $11 $-1 #
coedge $-1 $21 $55 $23 $39 forward $11 $-1 #
edge $58 $59 -7.381355966101700972 $44 -3.618644101694901138 $32 $60 forward 7 unknown #
surf-twe-attrib $-1 $-1 $22 $12 6 #
coedge $-1 $24 $23 $61 $62 reversed $7 $-1 #
edge $63 $64 -60 $44 60 $35 $65 forward 7 unknown #
coedge $-1 $66 $67 $24 $41 forward $68 $-1 #
edge $69 $45 -60 $70 60 $40 $71 forward 7 unknown #
coedge $-1 $72 $25 $67 $73 forward $18 $-1 #
edge_name-twe-attrib $-1 $-1 $-1 $26 3 8704 #
vertex $-1 $26 $74 #
vertex $-1 $26 $75 #
straight-curve $76 60 10.99152530508469994 -10.88135586440679958 0 -1 0 I I #
face_name-twe-attrib $-1 $-1 $-1 $28 5 #
face $77 $78 $79 $3 $-1 $80 forward single #
loop $81 $-1 $82 $28 #
plane-surface $83 0 4.48305061016948958 10.88135586440679958 0 0 -1 0 -1 0 forward_v I I I I #
loop_type-twe-attrib $-1 $-1 $-1 $29 0 #
coedge $-1 $84 $85 $86 $87 reversed $29 $-1 #
surf-twe-attrib $-1 $88 $-1 $30 17 #
coedge $-1 $32 $89 $90 $91 reversed $18 $-1 #
coedge $-1 $35 $34 $92 $93 reversed $11 $-1 #
coedge $-1 $90 $94 $34 $57 forward $95 $-1 #
edge $96 $97 -60 $59 60 $56 $98 forward 7 unknown #
edge_name-twe-attrib $-1 $-1 $-1 $36 2 8704 #
vertex $-1 $57 $99 #
straight-curve $100 60 8.550847220338980037 -14.49999996610170072 0 0 -1 I I #
coedge $-1 $92 $101 $38 $62 forward $102 $-1 #
edge $103 $70 6.92372869491525833 $64 15.05932191525424102 $61 $104 forward 7 unknown #
edge_name-twe-attrib $-1 $-1 $-1 $39 1 4608 #
vertex $-1 $62 $105 #
straight-curve $106 0 8.550847220338980037 -10.88135586440679958 1 0 0 I I #
coedge $-1 $107 $40 $101 $108 reversed $68 $-1 #
coedge $-1 $40 $107 $42 $73 reversed $68 $-1 #
loop $109 $-1 $67 $78 #
edge_name-twe-attrib $-1 $-1 $-1 $41 11 4608 #
vertex $-1 $62 $110 #
straight-curve $111 0 0.4152539999999980136 -10.88135586440679958 -1 0 0 I I #
coedge $-1 $86 $42 $82 $112 forward $18 $-1 #
edge $113 $45 3.618644101694901138 $114 25.3813558305085003 $42 $115 forward 7 unknown #
point $-1 60 8.550847220338980037 -10.88135586440679958 #
point $-1 60 0.4152539999999980136 -10.88135586440679958 #
cur-twe-attrib $-1 $-1 $-1 $46 26 #
face_name-twe-attrib $-1 $-1 $-1 $48 6 #
face $116 $117 $68 $3 $-1 $118 forward single #
loop $119 $-1 $120 $48 #
plane-surface $121 0 8.957627118644069242 7.118644067796609853 0 0 -1 0 -1 0 forward_v I I I I #
loop_type-twe-attrib $-1 $-1 $-1 $49 0 #
coedge $-1 $122 $123 $72 $112 reversed $49 $-1 #
surf-twe-attrib $-1 $-1 $-1 $50 28 #
coedge $-1 $124 $52 $123 $125 forward $29 $-1 #
coedge $-1 $52 $124 $120 $126 reversed $29 $-1 #
coedge $-1 $127 $72 $52 $87 forward $18 $-1 #
edge $128 $129 -16.38135589830509886 $130 -12.61864403389829903 $86 $131 forward 7 unknown #
surf-twe-attrib $-1 $-1 $53 $30 6 #
coedge $-1 $54 $132 $133 $134 reversed $18 $-1 #
coedge $-1 $135 $56 $54 $91 forward $95 $-1 #
edge $136 $59 -4.677966338983020833 $137 4.27118644067799913 $90 $138 forward 7 unknown #
coedge $-1 $139 $61 $55 $93 forward $102 $-1 #
edge $140 $64 3.618644101694901138 $97 7.381355966101700972 $92 $141 forward 7 unknown #
coedge $-1 $56 $135 $139 $142 forward $95 $-1 #
loop $143 $-1 $56 $117 #
edge_name-twe-attrib $-1 $-1 $-1 $57 13 8704 #
vertex $-1 $142 $144 #
straight-curve $145 0 8.550847220338980037 -7.118644067796609853 1 0 0 I I #
point $-1 60 8.550847220338980037 -7.11864399999999975 #
cur-twe-attrib $-1 $146 $-1 $60 87 #
coedge $-1 $61 $147 $66 $108 forward $102 $-1 #
loop $148 $-1 $92 $149 #
edge_name-twe-attrib $-1 $-1 $-1 $62 26 8704 #
straight-curve $150 -60 -6.508474694915260095 -10.88135586440679958 0 1 0 I I #
point $-1 -60 8.550847220338980037 -10.88135586440679958 #
cur-twe-attrib $-1 $-1 $-1 $65 39 #
coedge $-1 $67 $66 $122 $151 forward $68 $-1 #
edge $152 $153 -16.38135589830509886 $70 5.381355830508499416 $101 $154 forward 7 unknown #
loop_type-twe-attrib $-1 $-1 $-1 $68 0 #
point $-1 -60 0.4152539999999980136 -10.88135586440679958 #
cur-twe-attrib $-1 $-1 $-1 $71 41 #
edge $155 $114 -10.57627130508470259 $129 -2.4406780847457199 $72 $156 forward 7 unknown #
edge_name-twe-attrib $-1 $-1 $-1 $73 4 8704 #
vertex $-1 $112 $157 #
straight-curve $158 60 0.4152539999999970144 -14.49999996610170072 0 0 1 I I #
face_name-twe-attrib $-1 $-1 $-1 $78 7 #
face $159 $160 $95 $3 $-1 $161 forward single #
plane-surface $162 0 0.415254237288137984 0 0 1 0 0 0 -1 forward_v I I I I #
loop_type-twe-attrib $-1 $-1 $-1 $79 0 #
coedge $-1 $163 $164 $85 $126 forward $79 $-1 #
surf-twe-attrib $-1 $-1 $-1 $80 48 #
coedge $-1 $165 $82 $107 $151 reversed $49 $-1 #
coedge $-1 $82 $165 $84 $125 reversed $49 $-1 #
coedge $-1 $85 $84 $166 $167 reversed $29 $-1 #
edge $168 $129 -60 $169 60 $84 $170 forward 7 unknown #
edge $171 $130 -60 $172 60 $120 $173 forward 7 unknown #
coedge $-1 $174 $86 $164 $175 reversed $18 $-1 #
edge_name-twe-attrib $-1 $-1 $-1 $87 6 8704 #
vertex $-1 $112 $176 #
vertex $-1 $175 $177 #
straight-curve $178 60 8.550847220338980037 -5.500000033898300167 0 0 -1 I I #
coedge $-1 $89 $179 $180 $181 reversed $18 $-1 #
coedge $-1 $182 $183 $89 $134 forward $184 $-1 #
edge $185 $137 -2.881355932203390147 $186 10 $133 $187 forward 7 unknown #
coedge $-1 $94 $90 $183 $188 reversed $95 $-1 #
edge_name-twe-attrib $-1 $-1 $-1 $91 14 8704 #
vertex $-1 $188 $189 #
straight-curve $190 60 13.22881355932200087 -7.118644067796609853 0 1 0 I I #
coedge $-1 $191 $92 $94 $142 reversed $102 $-1 #
edge_name-twe-attrib $-1 $-1 $-1 $93 22 8704 #
straight-curve $192 -60 8.550847220338980037 -14.49999996610170072 0 0 1 I I #
edge $193 $194 -21.77118644067796893 $97 -12.82203366101694897 $94 $195 forward 7 unknown #
loop_type-twe-attrib $-1 $-1 $-1 $95 0 #
point $-1 -60 8.550847220338980037 -7.11864399999999975 #
cur-twe-attrib $-1 $-1 $-1 $98 57 #
cur-twe-attrib $-1 $-1 $100 $60 36 #
coedge $-1 $101 $166 $165 $196 forward $102 $-1 #
loop_type-twe-attrib $-1 $-1 $-1 $102 0 #
face $197 $198 $102 $3 $-1 $199 forward single #
cur-twe-attrib $-1 $-1 $-1 $104 62 #
edge $200 $153 -60 $114 60 $107 $201 forward 7 unknown #
edge_name-twe-attrib $-1 $-1 $-1 $108 25 8704 #
vertex $-1 $196 $202 #
straight-curve $203 -60 0.4152539999999970144 -5.500000033898300167 0 0 -1 I I #
edge_name-twe-attrib $-1 $-1 $-1 $112 5 8704 #
straight-curve $204 60 10.99152530508469994 10.88135586440679958 0 1 0 I I #
point $-1 60 0.4152539999999980136 10.88135586440679958 #
cur-twe-attrib $-1 $-1 $-1 $115 73 #
face_name-twe-attrib $-1 $-1 $-1 $117 8 #
face $205 $206 $184 $3 $-1 $207 reversed single #
plane-surface $208 0 8.957627118644069242 -7.118644067796609853 0 0 1 0 1 0 forward_v I I I I #
surf-twe-attrib $-1 $-1 $-1 $118 78 #
coedge $-1 $209 $120 $210 $211 forward $79 $-1 #
coedge $-1 $120 $209 $127 $175 forward $79 $-1 #
coedge $-1 $123 $122 $147 $196 reversed $49 $-1 #
coedge $-1 $147 $210 $124 $167 forward $102 $-1 #
edge $212 $172 12.61864403389829903 $169 16.38135589830509886 $166 $213 forward 7 unknown #
edge_name-twe-attrib $-1 $-1 $-1 $125 7 4608 #
vertex $-1 $196 $214 #
straight-curve $215 0 8.550847220338980037 10.88135586440679958 -1 0 0 I I #
edge_name-twe-attrib $-1 $-1 $-1 $126 8 8704 #
vertex $-1 $167 $216 #
straight-curve $217 0 8.550847220338980037 7.118644067796609853 -1 0 0 I I #
coedge $-1 $218 $127 $219 $220 reversed $18 $-1 #
edge $221 $222 -4.27118644067799913 $130 4.677966338983020833 $164 $223 forward 7 unknown #
point $-1 60 8.550847220338980037 10.88135586440679958 #
point $-1 60 8.550847220338980037 7.11864399999999975 #
cur-twe-attrib $-1 $224 $-1 $131 87 #
coedge $-1 $132 $218 $225 $226 reversed $18 $-1 #
coedge $-1 $227 $228 $132 $181 forward $229 $-1 #
edge $230 $186 -8.75 $231 26.25 $180 $232 forward 7 unknown #
coedge $-1 $233 $133 $228 $234 reversed $184 $-1 #
coedge $-1 $133 $233 $135 $188 forward $184 $-1 #
loop $235 $-1 $133 $160 #
edge_name-twe-attrib $-1 $-1 $-1 $134 16 8704 #
vertex $-1 $234 $236 #
straight-curve $237 60 17.5 -10 0 0 -1 I I #
edge $238 $194 -60 $137 60 $183 $239 forward 7 unknown #
point $-1 60 17.5 -7.118644067796609853 #
cur-twe-attrib $-1 $-1 $-1 $138 91 #
coedge $-1 $240 $139 $233 $241 reversed $102 $-1 #
cur-twe-attrib $-1 $242 $-1 $141 167 #
edge_name-twe-attrib $-1 $-1 $-1 $142 15 8704 #
vertex $-1 $142 $243 #
straight-curve $244 -60 -4.27118644067796982 -7.118644067796609853 0 -1 0 I I #
edge $245 $169 -15.05932191525424102 $153 -6.92372869491525833 $147 $246 forward 7 unknown #
face_name-twe-attrib $-1 $-1 $-1 $149 11 #
face $247 $248 $249 $3 $-1 $250 reversed single #
plane-surface $251 -60 -17.5 -20 -1 0 0 0 0 1 forward_v I I I I #
edge_name-twe-attrib $-1 $-1 $-1 $151 12 4608 #
straight-curve $252 0 0.4152539999999980136 10.88135586440679958 1 0 0 I I #
point $-1 -60 0.4152539999999980136 10.88135586440679958 #
cur-twe-attrib $-1 $-1 $-1 $154 108 #
cur-twe-attrib $-1 $-1 $-1 $156 112 #
face_name-twe-attrib $-1 $-1 $-1 $160 9 #
face $253 $149 $229 $3 $-1 $254 reversed single #
plane-surface $255 0 17.5 0 0 -1 0 0 0 -1 forward_v I I I I #
surf-twe-attrib $-1 $-1 $-1 $161 117 #
coedge $-1 $164 $163 $256 $257 reversed $79 $-1 #
coedge $-1 $166 $258 $163 $211 reversed $102 $-1 #
edge $259 $172 12.82203366101694897 $260 21.77118644067796893 $163 $261 forward 7 unknown #
edge_name-twe-attrib $-1 $-1 $-1 $167 23 8704 #
straight-curve $262 -60 8.550847220338980037 -5.500000033898300167 0 0 1 I I #
point $-1 -60 8.550847220338980037 10.88135586440679958 #
cur-twe-attrib $-1 $-1 $-1 $170 125 #
point $-1 -60 8.550847220338980037 7.11864399999999975 #
cur-twe-attrib $-1 $-1 $-1 $173 126 #
coedge $-1 $179 $174 $263 $264 reversed $18 $-1 #
coedge $-1 $256 $265 $174 $220 forward $266 $-1 #
edge $267 $268 -30 $222 -17.11864406779660897 $219 $187 forward 7 unknown #
edge_name-twe-attrib $-1 $-1 $-1 $175 10 8704 #
vertex $-1 $220 $269 #
straight-curve $270 60 13.22881355932200087 7.118644067796609853 0 -1 0 I I #
cur-twe-attrib $-1 $-1 $178 $131 36 #
coedge $-1 $271 $272 $179 $226 forward $249 $-1 #
edge $273 $231 -10 $274 30 $225 $275 forward 7 unknown #
coedge $-1 $276 $180 $272 $277 forward $229 $-1 #
coedge $-1 $180 $276 $182 $234 forward $229 $-1 #
loop $278 $-1 $180 $206 #
edge_name-twe-attrib $-1 $-1 $-1 $181 20 8704 #
vertex $-1 $181 $279 #
straight-curve $280 60 8.75 -20 0 -1 0 I I #
coedge $-1 $183 $182 $191 $241 forward $184 $-1 #
edge $281 $282 -60 $186 60 $182 $283 forward 7 unknown #
loop_type-twe-attrib $-1 $-1 $-1 $184 0 #
point $-1 60 17.5 -20 #
cur-twe-attrib $-1 $284 $-1 $187 220 #
edge_name-twe-attrib $-1 $-1 $-1 $188 19 8704 #
straight-curve $285 0 17.5 -7.118644067796609853 1 0 0 I I #
coedge $-1 $286 $191 $276 $287 reversed $102 $-1 #
edge $288 $282 -10 $194 2.881355932203390147 $233 $289 forward 7 unknown #
cur-twe-attrib $-1 $-1 $192 $141 93 #
point $-1 -60 17.5 -7.118644067796609853 #
cur-twe-attrib $-1 $-1 $-1 $195 142 #
edge_name-twe-attrib $-1 $-1 $-1 $196 24 8704 #
straight-curve $290 -60 -6.508474694915260095 10.88135586440679958 0 -1 0 I I #
face_name-twe-attrib $-1 $-1 $-1 $198 12 #
face $291 $292 $293 $3 $-1 $294 forward single #
loop $295 $-1 $225 $198 #
plane-surface $296 0 -17.5 0 0 1 0 0 0 1 forward_v I I I I #
surf-twe-attrib $-1 $-1 $-1 $199 149 #
cur-twe-attrib $-1 $-1 $-1 $201 151 #
face_name-twe-attrib $-1 $-1 $-1 $206 10 #
plane-surface $297 0 0 -20 0 0 1 1 0 0 forward_v I I I I #
surf-twe-attrib $-1 $298 $-1 $207 292 #
coedge $-1 $299 $219 $209 $257 forward $266 $-1 #
edge $300 $222 -60 $260 60 $256 $301 forward 7 unknown #
coedge $-1 $210 $302 $299 $303 reversed $102 $-1 #
edge_name-twe-attrib $-1 $-1 $-1 $211 9 8704 #
vertex $-1 $257 $304 #
straight-curve $305 -60 -4.27118644067796982 7.118644067796609853 0 1 0 I I #
cur-twe-attrib $-1 $306 $-1 $213 167 #
coedge $-1 $307 $308 $218 $264 forward $293 $-1 #
edge $309 $274 -26.25 $268 8.75 $263 $310 forward 7 unknown #
coedge $-1 $219 $299 $307 $311 reversed $266 $-1 #
loop $312 $-1 $219 $292 #
edge_name-twe-attrib $-1 $-1 $-1 $220 33 8704 #
vertex $-1 $264 $313 #
point $-1 60 17.5 7.118644067796609853 #
cur-twe-attrib $-1 $-1 $-1 $223 175 #
coedge $-1 $314 $225 $308 $315 reversed $249 $-1 #
coedge $-1 $225 $314 $227 $277 reversed $249 $-1 #
edge_name-twe-attrib $-1 $-1 $-1 $226 27 8704 #
vertex $-1 $315 $316 #
straight-curve $317 60 -17.5 -10 0 0 1 I I #
coedge $-1 $228 $227 $240 $287 forward $229 $-1 #
edge $318 $231 -60 $319 60 $272 $320 forward 7 unknown #
loop_type-twe-attrib $-1 $-1 $-1 $229 0 #
point $-1 60 -17.5 -20 #
cur-twe-attrib $-1 $-1 $-1 $232 181 #
edge_name-twe-attrib $-1 $-1 $-1 $234 17 8704 #
vertex $-1 $241 $321 #
straight-curve $322 0 17.5 -20 1 0 0 I I #
cur-twe-attrib $-1 $-1 $237 $187 134 #
cur-twe-attrib $-1 $-1 $-1 $239 188 #
coedge $-1 $302 $240 $314 $323 reversed $102 $-1 #
edge $324 $319 -8.75 $282 26.25 $276 $325 forward 7 unknown #
edge_name-twe-attrib $-1 $-1 $-1 $241 18 8704 #
straight-curve $326 -60 17.5 -10 0 0 1 I I #
cur-twe-attrib $-1 $-1 $-1 $246 196 #
face_name-twe-attrib $-1 $-1 $-1 $248 13 #
face $327 $-1 $266 $3 $-1 $207 reversed single #
loop $328 $-1 $263 $248 #
plane-surface $329 0 0 20 0 0 1 1 0 0 forward_v I I I I #
loop_type-twe-attrib $-1 $-1 $-1 $249 0 #
surf-twe-attrib $-1 $-1 $-1 $250 198 #
surf-twe-attrib $-1 $-1 $-1 $254 206 #
surf-twe-attrib $-1 $-1 $255 $207 160 #
coedge $-1 $265 $256 $258 $303 forward $266 $-1 #
edge_name-twe-attrib $-1 $-1 $-1 $257 34 8704 #
straight-curve $330 0 17.5 7.118644067796609853 -1 0 0 I I #
coedge $-1 $258 $286 $331 $332 reversed $102 $-1 #
edge $333 $260 17.11864406779660897 $334 30 $299 $289 forward 7 unknown #
point $-1 -60 17.5 7.118644067796609853 #
cur-twe-attrib $-1 $-1 $-1 $261 211 #
cur-twe-attrib $-1 $-1 $262 $213 93 #
coedge $-1 $331 $263 $265 $311 forward $293 $-1 #
coedge $-1 $263 $331 $271 $315 forward $293 $-1 #
edge_name-twe-attrib $-1 $-1 $-1 $264 31 8704 #
straight-curve $335 60 8.75 20 0 1 0 I I #
edge $336 $268 -60 $334 60 $265 $337 forward 7 unknown #
loop_type-twe-attrib $-1 $-1 $-1 $266 0 #
point $-1 60 17.5 20 #
coedge $-1 $272 $271 $286 $323 forward $249 $-1 #
edge $338 $339 -60 $274 60 $271 $340 forward 7 unknown #
point $-1 60 -17.5 20 #
cur-twe-attrib $-1 $-1 $-1 $275 226 #
edge_name-twe-attrib $-1 $-1 $-1 $277 30 8704 #
vertex $-1 $277 $341 #
straight-curve $342 0 -17.5 -20 -1 0 0 I I #
point $-1 -60 17.5 -20 #
cur-twe-attrib $-1 $-1 $-1 $283 234 #
edge $343 $339 -30 $319 10 $314 $344 forward 7 unknown #
edge_name-twe-attrib $-1 $-1 $-1 $287 21 8704 #
straight-curve $345 -60 -8.75 -20 0 1 0 I I #
cur-twe-attrib $-1 $346 $-1 $289 303 #
face_name-twe-attrib $-1 $-1 $-1 $292 14 #
loop_type-twe-attrib $-1 $-1 $-1 $293 0 #
surf-twe-attrib $-1 $-1 $-1 $294 248 #
cur-twe-attrib $-1 $-1 $-1 $301 257 #
coedge $-1 $308 $307 $302 $332 forward $293 $-1 #
edge $347 $334 -26.25 $339 8.75 $331 $348 forward 7 unknown #
edge_name-twe-attrib $-1 $-1 $-1 $303 35 8704 #
vertex $-1 $311 $349 #
cur-twe-attrib $-1 $-1 $-1 $310 264 #
edge_name-twe-attrib $-1 $-1 $-1 $311 36 8704 #
straight-curve $350 0 17.5 20 -1 0 0 I I #
edge_name-twe-attrib $-1 $-1 $-1 $315 28 8704 #
vertex $-1 $332 $351 #
straight-curve $352 0 -17.5 20 1 0 0 I I #
point $-1 -60 -17.5 -20 #
cur-twe-attrib $-1 $-1 $-1 $320 277 #
edge_name-twe-attrib $-1 $-1 $-1 $323 29 8704 #
straight-curve $353 -60 -17.5 -10 0 0 -1 I I #
cur-twe-attrib $-1 $-1 $-1 $325 287 #
cur-twe-attrib $-1 $-1 $326 $289 241 #
edge_name-twe-attrib $-1 $-1 $-1 $332 32 8704 #
straight-curve $354 -60 -8.75 20 0 -1 0 I I #
point $-1 -60 17.5 20 #
cur-twe-attrib $-1 $-1 $-1 $337 311 #
point $-1 -60 -17.5 20 #
cur-twe-attrib $-1 $-1 $-1 $340 315 #
cur-twe-attrib $-1 $-1 $-1 $344 323 #
cur-twe-attrib $-1 $-1 $-1 $348 332 #
End-of-ACIS-data 