  0
SECTION
  2
HEADER
  9
$ACADVER
  1
AC1009
  9
$INSBASE
 10
0.0
 20
0.0
 30
0.0
  9
$EXTMIN
 10
-0.278468
 20
-0.278468
 30
-0.278468
  9
$EXTMAX
 10
10.0
 20
10.0
 30
10.0
  9
$LIMMIN
 10
0.0
 20
0.0
  9
$LIMMAX
 10
12.0
 20
9.0
  9
$ORTHOMODE
 70
     0
  9
$REGENMODE
 70
     1
  9
$FILLMODE
 70
     1
  9
$QTEXTMODE
 70
     0
  9
$MIRRTEXT
 70
     1
  9
$DRAGMODE
 70
     2
  9
$LTSCALE
 40
1.0
  9
$OSMODE
 70
     0
  9
$ATTMODE
 70
     1
  9
$TEXTSIZE
 40
0.2
  9
$TRACEWID
 40
0.05
  9
$TEXTSTYLE
  7
STANDARD
  9
$CLAYER
  8
0
  9
$CELTYPE
  6
BYLAYER
  9
$CECOLOR
 62
   256
  9
$DIMSCALE
 40
1.0
  9
$DIMASZ
 40
0.18
  9
$DIMEXO
 40
0.0625
  9
$DIMDLI
 40
0.38
  9
$DIMRND
 40
0.0
  9
$DIMDLE
 40
0.0
  9
$DIMEXE
 40
0.18
  9
$DIMTP
 40
0.0
  9
$DIMTM
 40
0.0
  9
$DIMTXT
 40
0.18
  9
$DIMCEN
 40
0.09
  9
$DIMTSZ
 40
0.0
  9
$DIMTOL
 70
     0
  9
$DIMLIM
 70
     0
  9
$DIMTIH
 70
     1
  9
$DIMTOH
 70
     1
  9
$DIMSE1
 70
     0
  9
$DIMSE2
 70
     0
  9
$DIMTAD
 70
     0
  9
$DIMZIN
 70
     0
  9
$DIMBLK
  1

  9
$DIMASO
 70
     1
  9
$DIMSHO
 70
     1
  9
$DIMPOST
  1

  9
$DIMAPOST
  1

  9
$DIMALT
 70
     0
  9
$DIMALTD
 70
     2
  9
$DIMALTF
 40
25.4
  9
$DIMLFAC
 40
1.0
  9
$DIMTOFL
 70
     0
  9
$DIMTVP
 40
0.0
  9
$DIMTIX
 70
     0
  9
$DIMSOXD
 70
     0
  9
$DIMSAH
 70
     0
  9
$DIMBLK1
  1

  9
$DIMBLK2
  1

  9
$DIMSTYLE
  2
*UNNAMED
  9
$DIMCLRD
 70
     0
  9
$DIMCLRE
 70
     0
  9
$DIMCLRT
 70
     0
  9
$DIMTFAC
 40
1.0
  9
$DIMGAP
 40
0.09
  9
$LUNITS
 70
     2
  9
$LUPREC
 70
     4
  9
$SKETCHINC
 40
0.1
  9
$FILLETRAD
 40
0.0
  9
$AUNITS
 70
     0
  9
$AUPREC
 70
     0
  9
$MENU
  1
acad
  9
$ELEVATION
 40
0.0
  9
$PELEVATION
 40
0.0
  9
$THICKNESS
 40
0.0
  9
$LIMCHECK
 70
     0
  9
$BLIPMODE
 70
     1
  9
$CHAMFERA
 40
0.0
  9
$CHAMFERB
 40
0.0
  9
$SKPOLY
 70
     0
  9
$TDCREATE
 40
2449160.720480023
  9
$TDUPDATE
 40
2449160.720480023
  9
$TDINDWG
 40
0.0000000000
  9
$TDUSRTIMER
 40
0.0000000000
  9
$USRTIMER
 70
     1
  9
$ANGBASE
 50
0.0
  9
$ANGDIR
 70
     0
  9
$PDMODE
 70
     0
  9
$PDSIZE
 40
0.0
  9
$PLINEWID
 40
0.0
  9
$COORDS
 70
     0
  9
$SPLFRAME
 70
     0
  9
$SPLINETYPE
 70
     6
  9
$SPLINESEGS
 70
     8
  9
$ATTDIA
 70
     0
  9
$ATTREQ
 70
     1
  9
$HANDLING
 70
     1
  9
$HANDSEED
  5
FA
  9
$SURFTAB1
 70
     6
  9
$SURFTAB2
 70
     6
  9
$SURFTYPE
 70
     6
  9
$SURFU
 70
     6
  9
$SURFV
 70
     6
  9
$UCSNAME
  2

  9
$UCSORG
 10
0.0
 20
0.0
 30
0.0
  9
$UCSXDIR
 10
1.0
 20
0.0
 30
0.0
  9
$UCSYDIR
 10
0.0
 20
1.0
 30
0.0
  9
$PUCSNAME
  2

  9
$PUCSORG
 10
0.0
 20
0.0
 30
0.0
  9
$PUCSXDIR
 10
1.0
 20
0.0
 30
0.0
  9
$PUCSYDIR
 10
0.0
 20
1.0
 30
0.0
  9
$USERI1
 70
     0
  9
$USERI2
 70
     0
  9
$USERI3
 70
     0
  9
$USERI4
 70
     0
  9
$USERI5
 70
     0
  9
$USERR1
 40
0.0
  9
$USERR2
 40
0.0
  9
$USERR3
 40
0.0
  9
$USERR4
 40
0.0
  9
$USERR5
 40
0.0
  9
$WORLDVIEW
 70
     1
  9
$SHADEDGE
 70
     3
  9
$SHADEDIF
 70
    70
  9
$TILEMODE
 70
     1
  9
$MAXACTVP
 70
    16
  9
$PINSBASE
 10
0.0
 20
0.0
 30
0.0
  9
$PLIMCHECK
 70
     0
  9
$PEXTMIN
 10
1.000000E+20
 20
1.000000E+20
 30
1.000000E+20
  9
$PEXTMAX
 10
-1.000000E+20
 20
-1.000000E+20
 30
-1.000000E+20
  9
$PLIMMIN
 10
0.0
 20
0.0
  9
$PLIMMAX
 10
12.0
 20
9.0
  9
$UNITMODE
 70
     0
  9
$VISRETAIN
 70
     0
  9
$PLINEGEN
 70
     0
  9
$PSLTSCALE
 70
     0
  9
$TREEDEPTH
 70
  3020
  9
$DWGCODEPAGE
  3
undefined
  0
ENDSEC
  0
SECTION
  2
TABLES
  0
TABLE
  2
VPORT
 70
     2
  0
VPORT
  2
*ACTIVE
 70
     0
 10
0.0
 20
0.0
 11
1.0
 21
1.0
 12
7.733075
 22
-4.325999
 13
0.0
 23
0.0
 14
1.0
 24
1.0
 15
0.0
 25
0.0
 16
20.0
 26
20.0
 36
100.0
 17
0.0
 27
0.0
 37
0.0
 40
18.564554
 41
1.594883
 42
50.0
 43
0.0
 44
0.0
 50
0.0
 51
0.0
 71
     0
 72
   100
 73
     1
 74
     1
 75
     0
 76
     0
 77
     0
 78
     0
  0
ENDTAB
  0
TABLE
  2
LTYPE
 70
     1
  0
LTYPE
  2
CONTINUOUS
 70
    64
  3
Solid line
 72
    65
 73
     0
 40
0.0
  0
ENDTAB
  0
TABLE
  2
LAYER
 70
     2
  0
LAYER
  2
0
 70
    64
 62
     7
  6
CONTINUOUS
  0
LAYER
  2
AME_FRZ
 70
    65
 62
     7
  6
CONTINUOUS
  0
ENDTAB
  0
TABLE
  2
STYLE
 70
     1
  0
STYLE
  2
STANDARD
 70
     0
 40
0.0
 41
1.0
 50
0.0
 71
     0
 42
0.2
  3
txt
  4

  0
ENDTAB
  0
TABLE
  2
VIEW
 70
     0
  0
ENDTAB
  0
TABLE
  2
UCS
 70
     0
  0
ENDTAB
  0
TABLE
  2
APPID
 70
     2
  0
APPID
  2
ACAD
 70
    64
  0
APPID
  2
AME_SOL
 70
    64
  0
ENDTAB
  0
TABLE
  2
DIMSTYLE
 70
     0
  0
ENDTAB
  0
ENDSEC
  0
SECTION
  2
BLOCKS
  0
BLOCK
  8
0
  5
1
  2
AME_NIL
 70
    64
 10
0.0
 20
0.0
 30
0.0
  1
AME_NIL
  3
AME_NIL
  0
ENDBLK
  8
0
  5
2
  0
BLOCK
  8
0
  5
4
  2
AME_SOL
 70
    64
 10
0.0
 20
0.0
 30
0.0
  1
AME_SOL
  3
AME_SOL
  0
ENDBLK
  8
0
  5
5
  0
BLOCK
  8
0
  5
7
  2
*U2
 70
    65
 10
0.0
 20
0.0
 30
0.0
  1
*U
  3
*U
  0
LINE
  8
0
 62
     0
  5
8
 10
10.0
 20
10.0
 30
0.0
 11
10.0
 21
10.0
 31
10.0
1001
AME_SOL
1070
     1
1071
       18
  0
LINE
  8
0
 62
     0
  5
9
 10
10.0
 20
10.0
 30
10.0
 11
10.0
 21
0.0
 31
10.0
1001
AME_SOL
1070
     1
1071
       17
  0
LINE
  8
0
 62
     0
  5
A
 10
0.0
 20
10.0
 30
10.0
 11
10.0
 21
10.0
 31
10.0
1001
AME_SOL
1070
     1
1071
       16
  0
LINE
  8
0
 62
     0
  5
B
 10
0.0
 20
10.0
 30
0.0
 11
0.0
 21
10.0
 31
10.0
1001
AME_SOL
1070
     1
1071
       15
  0
LINE
  8
0
 62
     0
  5
C
 10
0.0
 20
10.0
 30
10.0
 11
0.0
 21
0.0
 31
10.0
1001
AME_SOL
1070
     1
1071
       14
  0
LINE
  8
0
 62
     0
  5
D
 10
0.0
 20
0.0
 30
0.0
 11
0.0
 21
0.0
 31
10.0
1001
AME_SOL
1070
     1
1071
       13
  0
LINE
  8
0
 62
     0
  5
E
 10
10.0
 20
0.0
 30
10.0
 11
10.0
 21
0.0
 31
0.0
1001
AME_SOL
1070
     1
1071
       12
  0
LINE
  8
0
 62
     0
  5
F
 10
0.0
 20
0.0
 30
10.0
 11
10.0
 21
0.0
 31
10.0
1001
AME_SOL
1070
     1
1071
       11
  0
LINE
  8
0
 62
     0
  5
10
 10
0.0
 20
0.0
 30
0.0
 11
10.0
 21
0.0
 31
0.0
1001
AME_SOL
1070
     1
1071
       10
  0
LINE
  8
0
 62
     0
  5
11
 10
0.0
 20
10.0
 30
0.0
 11
0.0
 21
0.0
 31
0.0
1001
AME_SOL
1070
     1
1071
        9
  0
LINE
  8
0
 62
     0
  5
12
 10
10.0
 20
0.0
 30
0.0
 11
10.0
 21
10.0
 31
0.0
1001
AME_SOL
1070
     1
1071
        8
  0
LINE
  8
0
 62
     0
  5
13
 10
10.0
 20
10.0
 30
0.0
 11
0.0
 21
10.0
 31
0.0
1001
AME_SOL
1070
     1
1071
        7
  0
ENDBLK
  8
0
  5
14
  0
BLOCK
  8
0
  5
19
  2
*U3
 70
    65
 10
0.0
 20
0.0
 30
0.0
  1
*U
  3
*U
  0
CIRCLE
  8
0
 62
     0
  5
1A
 10
0.0
 20
0.0
 30
0.0
 40
2.5
1001
AME_SOL
1070
     1
1071
        5
  0
CIRCLE
  8
0
 62
     0
  5
1B
 10
0.0
 20
0.0
 30
10.0
 40
2.5
1001
AME_SOL
1070
     1
1071
        4
  0
LINE
  8
0
 62
     0
  5
1C
 10
-0.956708
 20
2.309699
 30
0.0
 11
-0.956708
 21
2.309699
 31
10.0
1001
AME_SOL
1070
     0
1071
        1
  0
LINE
  8
0
 62
     0
  5
1D
 10
-1.767767
 20
1.767767
 30
0.0
 11
-1.767767
 21
1.767767
 31
10.0
1001
AME_SOL
1070
     0
1071
        1
  0
LINE
  8
0
 62
     0
  5
1E
 10
-2.309699
 20
0.956709
 30
0.0
 11
-2.309699
 21
0.956709
 31
10.0
1001
AME_SOL
1070
     0
1071
        1
  0
LINE
  8
0
 62
     0
  5
1F
 10
-2.5
 20
0.0
 30
0.0
 11
-2.5
 21
0.0
 31
10.0
1001
AME_SOL
1070
     0
1071
        1
  0
LINE
  8
0
 62
     0
  5
20
 10
-2.309699
 20
-0.956708
 30
0.0
 11
-2.309699
 21
-0.956708
 31
10.0
1001
AME_SOL
1070
     0
1071
        1
  0
LINE
  8
0
 62
     0
  5
21
 10
-1.767767
 20
-1.767767
 30
0.0
 11
-1.767767
 21
-1.767767
 31
10.0
1001
AME_SOL
1070
     0
1071
        1
  0
LINE
  8
0
 62
     0
  5
22
 10
-0.956709
 20
-2.309699
 30
0.0
 11
-0.956709
 21
-2.309699
 31
10.0
1001
AME_SOL
1070
     0
1071
        1
  0
LINE
  8
0
 62
     0
  5
23
 10
0.0
 20
-2.5
 30
0.0
 11
0.0
 21
-2.5
 31
10.0
1001
AME_SOL
1070
     0
1071
        1
  0
LINE
  8
0
 62
     0
  5
24
 10
0.956708
 20
-2.309699
 30
0.0
 11
0.956708
 21
-2.309699
 31
10.0
1001
AME_SOL
1070
     0
1071
        1
  0
LINE
  8
0
 62
     0
  5
25
 10
1.767767
 20
-1.767767
 30
0.0
 11
1.767767
 21
-1.767767
 31
10.0
1001
AME_SOL
1070
     0
1071
        1
  0
LINE
  8
0
 62
     0
  5
26
 10
2.309699
 20
-0.956709
 30
0.0
 11
2.309699
 21
-0.956709
 31
10.0
1001
AME_SOL
1070
     0
1071
        1
  0
LINE
  8
0
 62
     0
  5
27
 10
2.5
 20
0.0
 30
0.0
 11
2.5
 21
0.0
 31
10.0
1001
AME_SOL
1070
     0
1071
        1
  0
LINE
  8
0
 62
     0
  5
28
 10
2.309699
 20
0.956709
 30
0.0
 11
2.309699
 21
0.956709
 31
10.0
1001
AME_SOL
1070
     0
1071
        1
  0
LINE
  8
0
 62
     0
  5
29
 10
1.767767
 20
1.767767
 30
0.0
 11
1.767767
 21
1.767767
 31
10.0
1001
AME_SOL
1070
     0
1071
        1
  0
LINE
  8
0
 62
     0
  5
2A
 10
0.956709
 20
2.309699
 30
0.0
 11
0.956709
 21
2.309699
 31
10.0
1001
AME_SOL
1070
     0
1071
        1
  0
LINE
  8
0
 62
     0
  5
2B
 10
0.0
 20
2.5
 30
0.0
 11
0.0
 21
2.5
 31
10.0
1001
AME_SOL
1070
     0
1071
        1
  0
ENDBLK
  8
0
  5
2C
  0
BLOCK
  8
0
  5
31
  2
*U4
 70
    65
 10
0.0
 20
0.0
 30
0.0
  1
*U
  3
*U
  0
LINE
  8
0
 62
     7
  5
32
 10
10.0
 20
10.0
 30
0.0
 11
10.0
 21
10.0
 31
10.0
1001
AME_SOL
1070
     1
1071
       21
  0
LINE
  8
0
 62
     7
  5
33
 10
10.0
 20
10.0
 30
10.0
 11
10.0
 21
0.0
 31
10.0
1001
AME_SOL
1070
     1
1071
       20
  0
LINE
  8
0
 62
     7
  5
34
 10
0.0
 20
10.0
 30
10.0
 11
10.0
 21
10.0
 31
10.0
1001
AME_SOL
1070
     1
1071
       19
  0
LINE
  8
0
 62
     7
  5
35
 10
0.0
 20
10.0
 30
0.0
 11
0.0
 21
10.0
 31
10.0
1001
AME_SOL
1070
     1
1071
       18
  0
LINE
  8
0
 62
     7
  5
36
 10
0.0
 20
10.0
 30
10.0
 11
0.0
 21
0.0
 31
10.0
1001
AME_SOL
1070
     1
1071
       17
  0
LINE
  8
0
 62
     7
  5
37
 10
0.0
 20
0.0
 30
0.0
 11
0.0
 21
0.0
 31
10.0
1001
AME_SOL
1070
     1
1071
       16
  0
LINE
  8
0
 62
     7
  5
38
 10
10.0
 20
0.0
 30
10.0
 11
10.0
 21
0.0
 31
0.0
1001
AME_SOL
1070
     1
1071
       15
  0
LINE
  8
0
 62
     7
  5
39
 10
0.0
 20
0.0
 30
10.0
 11
10.0
 21
0.0
 31
10.0
1001
AME_SOL
1070
     1
1071
       14
  0
LINE
  8
0
 62
     7
  5
3A
 10
0.0
 20
0.0
 30
0.0
 11
10.0
 21
0.0
 31
0.0
1001
AME_SOL
1070
     1
1071
       13
  0
LINE
  8
0
 62
     7
  5
3B
 10
0.0
 20
10.0
 30
0.0
 11
0.0
 21
0.0
 31
0.0
1001
AME_SOL
1070
     1
1071
       12
  0
LINE
  8
0
 62
     7
  5
3C
 10
10.0
 20
0.0
 30
0.0
 11
10.0
 21
10.0
 31
0.0
1001
AME_SOL
1070
     1
1071
       11
  0
LINE
  8
0
 62
     7
  5
3D
 10
10.0
 20
10.0
 30
0.0
 11
0.0
 21
10.0
 31
0.0
1001
AME_SOL
1070
     1
1071
       10
  0
CIRCLE
  8
0
 62
     7
  5
3E
 10
5.0
 20
5.0
 30
0.0
 40
2.5
1001
AME_SOL
1070
     1
1071
        9
  0
CIRCLE
  8
0
 62
     7
  5
3F
 10
5.0
 20
5.0
 30
10.0
 40
2.5
1001
AME_SOL
1070
     1
1071
        8
  0
LINE
  8
0
 62
     7
  5
40
 10
5.0
 20
7.5
 30
0.0
 11
5.0
 21
7.5
 31
10.0
1001
AME_SOL
1070
     0
1071
        1
  0
LINE
  8
0
 62
     7
  5
41
 10
5.956709
 20
7.309699
 30
0.0
 11
5.956709
 21
7.309699
 31
10.0
1001
AME_SOL
1070
     0
1071
        1
  0
LINE
  8
0
 62
     7
  5
42
 10
6.767767
 20
6.767767
 30
0.0
 11
6.767767
 21
6.767767
 31
10.0
1001
AME_SOL
1070
     0
1071
        1
  0
LINE
  8
0
 62
     7
  5
43
 10
7.309699
 20
5.956709
 30
0.0
 11
7.309699
 21
5.956709
 31
10.0
1001
AME_SOL
1070
     0
1071
        1
  0
LINE
  8
0
 62
     7
  5
44
 10
7.5
 20
5.0
 30
0.0
 11
7.5
 21
5.0
 31
10.0
1001
AME_SOL
1070
     0
1071
        1
  0
LINE
  8
0
 62
     7
  5
45
 10
7.309699
 20
4.043291
 30
0.0
 11
7.309699
 21
4.043291
 31
10.0
1001
AME_SOL
1070
     0
1071
        1
  0
LINE
  8
0
 62
     7
  5
46
 10
6.767766
 20
3.232233
 30
0.0
 11
6.767766
 21
3.232233
 31
10.0
1001
AME_SOL
1070
     0
1071
        1
  0
LINE
  8
0
 62
     7
  5
47
 10
5.956708
 20
2.690301
 30
0.0
 11
5.956708
 21
2.690301
 31
10.0
1001
AME_SOL
1070
     0
1071
        1
  0
LINE
  8
0
 62
     7
  5
48
 10
5.0
 20
2.5
 30
0.0
 11
5.0
 21
2.5
 31
10.0
1001
AME_SOL
1070
     0
1071
        1
  0
LINE
  8
0
 62
     7
  5
49
 10
4.043291
 20
2.690301
 30
0.0
 11
4.043291
 21
2.690301
 31
10.0
1001
AME_SOL
1070
     0
1071
        1
  0
LINE
  8
0
 62
     7
  5
4A
 10
3.232233
 20
3.232233
 30
0.0
 11
3.232233
 21
3.232233
 31
10.0
1001
AME_SOL
1070
     0
1071
        1
  0
LINE
  8
0
 62
     7
  5
4B
 10
2.690301
 20
4.043292
 30
0.0
 11
2.690301
 21
4.043292
 31
10.0
1001
AME_SOL
1070
     0
1071
        1
  0
LINE
  8
0
 62
     7
  5
4C
 10
2.5
 20
5.0
 30
0.0
 11
2.5
 21
5.0
 31
10.0
1001
AME_SOL
1070
     0
1071
        1
  0
LINE
  8
0
 62
     7
  5
4D
 10
2.690301
 20
5.956709
 30
0.0
 11
2.690301
 21
5.956709
 31
10.0
1001
AME_SOL
1070
     0
1071
        1
  0
LINE
  8
0
 62
     7
  5
4E
 10
3.232234
 20
6.767767
 30
0.0
 11
3.232234
 21
6.767767
 31
10.0
1001
AME_SOL
1070
     0
1071
        1
  0
LINE
  8
0
 62
     7
  5
4F
 10
4.043292
 20
7.309699
 30
0.0
 11
4.043292
 21
7.309699
 31
10.0
1001
AME_SOL
1070
     0
1071
        1
  0
ENDBLK
  8
0
  5
50
  0
BLOCK
  8
0
  5
54
  2
AME_MAT
 70
    64
 10
0.0
 20
0.0
 30
0.0
  1
AME_MAT
  3
AME_MAT
  0
ENDBLK
  8
0
  5
55
  0
BLOCK
  8
0
  5
A3
  2
SOLAXES
 70
     0
 10
0.0
 20
0.0
 30
0.0
  1
SOLAXES
  3
SOLAXES
  0
LINE
  8
0
 62
     0
  5
A4
 10
0.0
 20
0.0
 30
0.0
 11
5.569366
 21
0.0
 31
0.0
  0
LINE
  8
0
 62
     0
  5
A5
 10
0.0
 20
0.0
 30
0.0
 11
0.0
 21
5.569366
 31
0.0
  0
LINE
  8
0
 62
     0
  5
A6
 10
0.0
 20
0.0
 30
0.0
 11
0.0
 21
0.0
 31
5.569366
  0
CIRCLE
  8
0
 62
     0
  5
A7
 10
0.0
 20
0.0
 30
5.012429
 40
0.278468
210
1.0
220
0.0
230
0.0
  0
LINE
  8
0
 62
     0
  5
A8
 10
5.012429
 20
0.278468
 30
0.0
 11
5.569366
 21
0.0
 31
0.0
  0
LINE
  8
0
 62
     0
  5
A9
 10
5.012429
 20
0.0
 30
0.278468
 11
5.569366
 21
0.0
 31
0.0
  0
LINE
  8
0
 62
     0
  5
AA
 10
5.012429
 20
-0.278468
 30
0.0
 11
5.569366
 21
0.0
 31
0.0
  0
LINE
  8
0
 62
     0
  5
AB
 10
5.012429
 20
0.0
 30
-0.278468
 11
5.569366
 21
0.0
 31
0.0
  0
CIRCLE
  8
0
 62
     0
  5
AC
 10
0.0
 20
0.0
 30
5.012429
 40
0.278468
210
0.0
220
1.0
230
0.0
  0
LINE
  8
0
 62
     0
  5
AD
 10
0.278468
 20
5.012429
 30
0.0
 11
0.0
 21
5.569366
 31
0.0
  0
LINE
  8
0
 62
     0
  5
AE
 10
0.0
 20
5.012429
 30
0.278468
 11
0.0
 21
5.569366
 31
0.0
  0
LINE
  8
0
 62
     0
  5
AF
 10
-0.278468
 20
5.012429
 30
0.0
 11
0.0
 21
5.569366
 31
0.0
  0
LINE
  8
0
 62
     0
  5
B0
 10
0.0
 20
5.012429
 30
-0.278468
 11
0.0
 21
5.569366
 31
0.0
  0
CIRCLE
  8
0
 62
     0
  5
B1
 10
0.0
 20
0.0
 30
4.455493
 40
0.278468
210
0.0
220
1.0
230
0.0
  0
LINE
  8
0
 62
     0
  5
B2
 10
0.278468
 20
4.455493
 30
0.0
 11
0.0
 21
5.012429
 31
0.0
  0
LINE
  8
0
 62
     0
  5
B3
 10
0.0
 20
4.455493
 30
0.278468
 11
0.0
 21
5.012429
 31
0.0
  0
LINE
  8
0
 62
     0
  5
B4
 10
-0.278468
 20
4.455493
 30
0.0
 11
0.0
 21
5.012429
 31
0.0
  0
LINE
  8
0
 62
     0
  5
B5
 10
0.0
 20
4.455493
 30
-0.278468
 11
0.0
 21
5.012429
 31
0.0
  0
CIRCLE
  8
0
 62
     0
  5
B6
 10
0.0
 20
0.0
 30
5.012429
 40
0.278468
  0
LINE
  8
0
 62
     0
  5
B7
 10
0.278468
 20
0.0
 30
5.012429
 11
0.0
 21
0.0
 31
5.569366
  0
LINE
  8
0
 62
     0
  5
B8
 10
0.0
 20
0.278468
 30
5.012429
 11
0.0
 21
0.0
 31
5.569366
  0
LINE
  8
0
 62
     0
  5
B9
 10
-0.278468
 20
0.0
 30
5.012429
 11
0.0
 21
0.0
 31
5.569366
  0
LINE
  8
0
 62
     0
  5
BA
 10
0.0
 20
-0.278468
 30
5.012429
 11
0.0
 21
0.0
 31
5.569366
  0
CIRCLE
  8
0
 62
     0
  5
BB
 10
0.0
 20
0.0
 30
4.455493
 40
0.278468
  0
LINE
  8
0
 62
     0
  5
BC
 10
0.278468
 20
0.0
 30
4.455493
 11
0.0
 21
0.0
 31
5.012429
  0
LINE
  8
0
 62
     0
  5
BD
 10
0.0
 20
0.278468
 30
4.455493
 11
0.0
 21
0.0
 31
5.012429
  0
LINE
  8
0
 62
     0
  5
BE
 10
-0.278468
 20
0.0
 30
4.455493
 11
0.0
 21
0.0
 31
5.012429
  0
LINE
  8
0
 62
     0
  5
BF
 10
0.0
 20
-0.278468
 30
4.455493
 11
0.0
 21
0.0
 31
5.012429
  0
CIRCLE
  8
0
 62
     0
  5
C0
 10
0.0
 20
0.0
 30
3.898556
 40
0.278468
  0
LINE
  8
0
 62
     0
  5
C1
 10
0.278468
 20
0.0
 30
3.898556
 11
0.0
 21
0.0
 31
4.455493
  0
LINE
  8
0
 62
     0
  5
C2
 10
0.0
 20
0.278468
 30
3.898556
 11
0.0
 21
0.0
 31
4.455493
  0
LINE
  8
0
 62
     0
  5
C3
 10
-0.278468
 20
0.0
 30
3.898556
 11
0.0
 21
0.0
 31
4.455493
  0
LINE
  8
0
 62
     0
  5
C4
 10
0.0
 20
-0.278468
 30
3.898556
 11
0.0
 21
0.0
 31
4.455493
  0
ENDBLK
  8
0
  5
C5
  0
BLOCK
  8
0
  5
91
  2
*U8
 70
    65
 10
0.0
 20
0.0
 30
0.0
  1
*U
  3
*U
  0
LINE
  8
0
 62
     0
  5
92
 10
10.0
 20
5.0
 30
0.0
 11
10.0
 21
5.0
 31
5.0
1001
AME_SOL
1070
     1
1071
       18
  0
LINE
  8
0
 62
     0
  5
93
 10
10.0
 20
5.0
 30
5.0
 11
10.0
 21
0.0
 31
5.0
1001
AME_SOL
1070
     1
1071
       17
  0
LINE
  8
0
 62
     0
  5
94
 10
0.0
 20
5.0
 30
5.0
 11
10.0
 21
5.0
 31
5.0
1001
AME_SOL
1070
     1
1071
       16
  0
LINE
  8
0
 62
     0
  5
95
 10
0.0
 20
5.0
 30
0.0
 11
0.0
 21
5.0
 31
5.0
1001
AME_SOL
1070
     1
1071
       15
  0
LINE
  8
0
 62
     0
  5
96
 10
0.0
 20
5.0
 30
5.0
 11
0.0
 21
0.0
 31
5.0
1001
AME_SOL
1070
     1
1071
       14
  0
LINE
  8
0
 62
     0
  5
97
 10
0.0
 20
0.0
 30
0.0
 11
0.0
 21
0.0
 31
5.0
1001
AME_SOL
1070
     1
1071
       13
  0
LINE
  8
0
 62
     0
  5
98
 10
10.0
 20
0.0
 30
5.0
 11
10.0
 21
0.0
 31
0.0
1001
AME_SOL
1070
     1
1071
       12
  0
LINE
  8
0
 62
     0
  5
99
 10
0.0
 20
0.0
 30
5.0
 11
10.0
 21
0.0
 31
5.0
1001
AME_SOL
1070
     1
1071
       11
  0
LINE
  8
0
 62
     0
  5
9A
 10
0.0
 20
0.0
 30
0.0
 11
10.0
 21
0.0
 31
0.0
1001
AME_SOL
1070
     1
1071
       10
  0
LINE
  8
0
 62
     0
  5
9B
 10
0.0
 20
5.0
 30
0.0
 11
0.0
 21
0.0
 31
0.0
1001
AME_SOL
1070
     1
1071
        9
  0
LINE
  8
0
 62
     0
  5
9C
 10
10.0
 20
0.0
 30
0.0
 11
10.0
 21
5.0
 31
0.0
1001
AME_SOL
1070
     1
1071
        8
  0
LINE
  8
0
 62
     0
  5
9D
 10
10.0
 20
5.0
 30
0.0
 11
0.0
 21
5.0
 31
0.0
1001
AME_SOL
1070
     1
1071
        7
  0
ENDBLK
  8
0
  5
9E
  0
BLOCK
  8
0
  5
C8
  2
*U9
 70
    65
 10
0.0
 20
0.0
 30
0.0
  1
*U
  3
*U
  0
LINE
  8
0
 62
     7
  5
C9
 10
10.0
 20
10.0
 30
0.0
 11
10.0
 21
10.0
 31
5.0
1001
AME_SOL
1070
     1
1071
       34
  0
LINE
  8
0
 62
     7
  5
CA
 10
10.0
 20
5.0
 30
10.0
 11
10.0
 21
0.0
 31
10.0
1001
AME_SOL
1070
     1
1071
       33
  0
LINE
  8
0
 62
     7
  5
CB
 10
0.0
 20
10.0
 30
0.0
 11
0.0
 21
10.0
 31
5.0
1001
AME_SOL
1070
     1
1071
       32
  0
LINE
  8
0
 62
     7
  5
CC
 10
0.0
 20
5.0
 30
10.0
 11
0.0
 21
0.0
 31
10.0
1001
AME_SOL
1070
     1
1071
       31
  0
LINE
  8
0
 62
     7
  5
CD
 10
0.0
 20
0.0
 30
0.0
 11
0.0
 21
0.0
 31
10.0
1001
AME_SOL
1070
     1
1071
       30
  0
LINE
  8
0
 62
     7
  5
CE
 10
10.0
 20
0.0
 30
10.0
 11
10.0
 21
0.0
 31
0.0
1001
AME_SOL
1070
     1
1071
       29
  0
LINE
  8
0
 62
     7
  5
CF
 10
0.0
 20
0.0
 30
10.0
 11
10.0
 21
0.0
 31
10.0
1001
AME_SOL
1070
     1
1071
       28
  0
LINE
  8
0
 62
     7
  5
D0
 10
0.0
 20
0.0
 30
0.0
 11
10.0
 21
0.0
 31
0.0
1001
AME_SOL
1070
     1
1071
       27
  0
LINE
  8
0
 62
     7
  5
D1
 10
0.0
 20
10.0
 30
0.0
 11
0.0
 21
0.0
 31
0.0
1001
AME_SOL
1070
     1
1071
       26
  0
LINE
  8
0
 62
     7
  5
D2
 10
10.0
 20
0.0
 30
0.0
 11
10.0
 21
10.0
 31
0.0
1001
AME_SOL
1070
     1
1071
       25
  0
LINE
  8
0
 62
     7
  5
D3
 10
10.0
 20
10.0
 30
0.0
 11
0.0
 21
10.0
 31
0.0
1001
AME_SOL
1070
     1
1071
       24
  0
CIRCLE
  8
0
 62
     7
  5
D4
 10
5.0
 20
5.0
 30
0.0
 40
2.5
1001
AME_SOL
1070
     1
1071
       23
  0
ARC
  8
0
 62
     7
  5
D5
 10
5.0
 20
5.0
 30
10.0
 40
2.5
 50
180.0
 51
0.0
1001
AME_SOL
1070
     1
1071
       22
  0
LINE
  8
0
 62
     7
  5
D6
 10
0.0
 20
5.0
 30
5.0
 11
0.0
 21
5.0
 31
10.0
1001
AME_SOL
1070
     1
1071
       21
  0
LINE
  8
0
 62
     7
  5
D7
 10
10.0
 20
5.0
 30
10.0
 11
10.0
 21
5.0
 31
5.0
1001
AME_SOL
1070
     1
1071
       20
  0
LINE
  8
0
 62
     7
  5
D8
 10
7.5
 20
5.0
 30
10.0
 11
10.0
 21
5.0
 31
10.0
1001
AME_SOL
1070
     1
1071
       19
  0
LINE
  8
0
 62
     7
  5
D9
 10
0.0
 20
5.0
 30
10.0
 11
2.5
 21
5.0
 31
10.0
1001
AME_SOL
1070
     1
1071
       18
  0
LINE
  8
0
 62
     7
  5
DA
 10
7.5
 20
5.0
 30
5.0
 11
7.5
 21
5.0
 31
10.0
1001
AME_SOL
1070
     1
1071
       17
  0
LINE
  8
0
 62
     7
  5
DB
 10
2.5
 20
5.0
 30
5.0
 11
2.5
 21
5.0
 31
10.0
1001
AME_SOL
1070
     1
1071
       16
  0
LINE
  8
0
 62
     7
  5
DC
 10
0.0
 20
10.0
 30
5.0
 11
0.0
 21
5.0
 31
5.0
1001
AME_SOL
1070
     1
1071
       15
  0
LINE
  8
0
 62
     7
  5
DD
 10
10.0
 20
5.0
 30
5.0
 11
10.0
 21
10.0
 31
5.0
1001
AME_SOL
1070
     1
1071
       14
  0
LINE
  8
0
 62
     7
  5
DE
 10
10.0
 20
10.0
 30
5.0
 11
0.0
 21
10.0
 31
5.0
1001
AME_SOL
1070
     1
1071
       13
  0
ARC
  8
0
 62
     7
  5
DF
 10
5.0
 20
5.0
 30
5.0
 40
2.5
 50
0.0
 51
180.0
1001
AME_SOL
1070
     1
1071
       12
  0
LINE
  8
0
 62
     7
  5
E0
 10
7.5
 20
5.0
 30
5.0
 11
10.0
 21
5.0
 31
5.0
1001
AME_SOL
1070
     1
1071
       11
  0
LINE
  8
0
 62
     7
  5
E1
 10
0.0
 20
5.0
 30
5.0
 11
2.5
 21
5.0
 31
5.0
1001
AME_SOL
1070
     1
1071
       10
  0
LINE
  8
0
 62
     7
  5
E2
 10
5.0
 20
7.5
 30
0.0
 11
5.0
 21
7.5
 31
5.0
1001
AME_SOL
1070
     0
1071
        3
  0
LINE
  8
0
 62
     7
  5
E3
 10
5.956709
 20
7.309699
 30
0.0
 11
5.956709
 21
7.309699
 31
5.0
1001
AME_SOL
1070
     0
1071
        3
  0
LINE
  8
0
 62
     7
  5
E4
 10
6.767767
 20
6.767767
 30
0.0
 11
6.767767
 21
6.767767
 31
5.0
1001
AME_SOL
1070
     0
1071
        3
  0
LINE
  8
0
 62
     7
  5
E5
 10
7.309699
 20
5.956709
 30
0.0
 11
7.309699
 21
5.956709
 31
5.0
1001
AME_SOL
1070
     0
1071
        3
  0
LINE
  8
0
 62
     7
  5
E6
 10
7.5
 20
5.0
 30
5.0
 11
7.5
 21
5.0
 31
10.0
1001
AME_SOL
1070
     0
1071
        3
  0
LINE
  8
0
 62
     7
  5
E7
 10
7.5
 20
5.0
 30
0.0
 11
7.5
 21
5.0
 31
5.0
1001
AME_SOL
1070
     0
1071
        3
  0
LINE
  8
0
 62
     7
  5
E8
 10
7.309699
 20
4.043291
 30
0.0
 11
7.309699
 21
4.043291
 31
10.0
1001
AME_SOL
1070
     0
1071
        3
  0
LINE
  8
0
 62
     7
  5
E9
 10
6.767766
 20
3.232233
 30
0.0
 11
6.767766
 21
3.232233
 31
10.0
1001
AME_SOL
1070
     0
1071
        3
  0
LINE
  8
0
 62
     7
  5
EA
 10
5.956708
 20
2.690301
 30
0.0
 11
5.956708
 21
2.690301
 31
10.0
1001
AME_SOL
1070
     0
1071
        3
  0
LINE
  8
0
 62
     7
  5
EB
 10
5.0
 20
2.5
 30
0.0
 11
5.0
 21
2.5
 31
10.0
1001
AME_SOL
1070
     0
1071
        3
  0
LINE
  8
0
 62
     7
  5
EC
 10
4.043291
 20
2.690301
 30
0.0
 11
4.043291
 21
2.690301
 31
10.0
1001
AME_SOL
1070
     0
1071
        3
  0
LINE
  8
0
 62
     7
  5
ED
 10
3.232233
 20
3.232233
 30
0.0
 11
3.232233
 21
3.232233
 31
10.0
1001
AME_SOL
1070
     0
1071
        3
  0
LINE
  8
0
 62
     7
  5
EE
 10
2.690301
 20
4.043292
 30
0.0
 11
2.690301
 21
4.043292
 31
10.0
1001
AME_SOL
1070
     0
1071
        3
  0
LINE
  8
0
 62
     7
  5
EF
 10
2.5
 20
5.0
 30
5.0
 11
2.5
 21
5.0
 31
10.0
1001
AME_SOL
1070
     0
1071
        3
  0
LINE
  8
0
 62
     7
  5
F0
 10
2.5
 20
5.0
 30
0.0
 11
2.5
 21
5.0
 31
5.0
1001
AME_SOL
1070
     0
1071
        3
  0
LINE
  8
0
 62
     7
  5
F1
 10
2.690301
 20
5.956709
 30
0.0
 11
2.690301
 21
5.956709
 31
5.0
1001
AME_SOL
1070
     0
1071
        3
  0
LINE
  8
0
 62
     7
  5
F2
 10
3.232234
 20
6.767767
 30
0.0
 11
3.232234
 21
6.767767
 31
5.0
1001
AME_SOL
1070
     0
1071
        3
  0
LINE
  8
0
 62
     7
  5
F3
 10
4.043292
 20
7.309699
 30
0.0
 11
4.043292
 21
7.309699
 31
5.0
1001
AME_SOL
1070
     0
1071
        3
  0
ENDBLK
  8
0
  5
F4
  0
ENDSEC
  0
SECTION
  2
ENTITIES
  0
INSERT
  8
AME_FRZ
  5
15
  2
*U2
 10
0.0
 20
0.0
 30
0.0
1001
AME_SOL
1002
{
1070
     0
1071
  1957176
1070
  1536
1010
10.0
1020
10.0
1030
10.0
1005
0
1005
0
1005
51
1040
0.0
1040
1.0
1000
MILD_STEEL
1000
0
1010
0.0
1020
0.0
1030
0.0
1010
0.0
1020
0.0
1030
1.0
1040
0.0
1002
}
  0
INSERT
  8
AME_FRZ
  5
2D
  2
*U3
 10
5.0
 20
5.0
 30
0.0
1001
AME_SOL
1002
{
1070
     0
1071
  1957584
1070
  1538
1010
2.5
1020
2.5
1030
10.0
1005
0
1005
0
1005
51
1040
0.0
1040
1.0
1000
MILD_STEEL
1000
0
1010
5.0
1020
5.0
1030
0.0
1010
0.0
1020
0.0
1030
1.0
1040
0.0
1002
}
  0
INSERT
  8
AME_FRZ
  5
51
  2
*U4
 10
0.0
 20
0.0
 30
0.0
1001
AME_SOL
1002
{
1070
     0
1071
  1966208
1070
  1543
1070
     0
1005
15
1005
2D
1005
0
1005
0
1005
F5
1040
0.0
1040
1.0
1000
MILD_STEEL
1000
0
1010
0.0
1020
0.0
1030
0.0
1010
0.0
1020
0.0
1030
1.0
1040
0.0
1002
}
  0
INSERT
  8
AME_FRZ
  5
57
  2
AME_NIL
 10
0.0
 20
0.0
 30
0.0
  0
INSERT
  8
AME_FRZ
  5
58
  2
AME_SOL
 10
0.0
 20
0.0
 30
0.0
1001
AME_SOL
1000
1.0
1000
sq cm
1070
     3
1070
     0
1070
     3
1000
wire
1040
0.0
1000
NONE
1040
1.0
1000
cm
1000
gm
1000
MILD_STEEL
1070
    25
1000
CSG
1070
     3
1070
     2
1070
     3
1000
cu cm
1070
     4
1070
     0
1005
57
  0
INSERT
  8
AME_FRZ
 62
     7
  5
9F
  2
*U8
 10
0.0
 20
5.0
 30
5.0
1001
AME_SOL
1002
{
1070
     0
1071
  1967792
1070
  1536
1010
10.0
1020
5.0
1030
5.0
1005
0
1005
0
1005
F5
1040
0.0
1040
1.0
1000
MILD_STEEL
1000
0
1010
0.0
1020
5.0
1030
5.0
1010
0.0
1020
0.0
1030
1.0
1040
0.0
1002
}
  0
INSERT
  8
0
  5
F5
  2
*U9
 10
0.0
 20
0.0
 30
0.0
1001
AME_SOL
1002
{
1070
     0
1071
  1974160
1070
  1543
1070
     0
1005
51
1005
9F
1005
0
1005
F6
1005
0
1040
0.0
1040
1.0
1000
MILD_STEEL
1000
0
1002
}
  0
INSERT
  8
AME_FRZ
  5
F6
  2
AME_NIL
 10
1.0
 20
1.0
 30
1.0
1001
AME_SOL
1004
E903A9FB0100F0FFFFFF000052F709000100000066900ABB66900ABB66900ABBA9082041A9082041A908204101000000FBF206008DF5C3BAC0F39F40C0F39F401F0620411F0620413F0CA0400100844EF06E1D00FFFF00000100CE000000844E0000000000000000803F000000000000803F000000000000
1004
0000000000000000A0400000A04005000000000000000000000000000000000000000000844E0000000000000000803F000000000000803F0000000000000000000000000000A0400000A040050000000000000000000000000000000000FFFFFFFFFBF208008DF5C3BAC0F39F40C0F39F401F0620413F0C
1004
A0401F0620410100844ED06F1D00FFFF00000100CD000000844E00000000803F000000000000000000000000000000000000803F000000000000A0400000A04005000000000000000000000000000000000000000000844E00000000803F000000000000000000000000000000000000803F000000000000
1004
A0400000A040050000000000000000000000000000000000FFFFFFFFFBF2050081E71F4081E71F408DF5C3BA3F0CF0403F0CF0401F0620410100EA4EE0701D00FFFF0000010093010000EA4E00000000803F0000000000000000000000000000803F000000000000A0400000A04000000000050000002040
1004
00002040000000000000000000000000EA4E00000000803F0000000000000000000000000000803F000000000000A0400000A04000000000050000002040000020400000000000000000FFFFFFFF4DEA0F000000967500000000803F0000000000000000000000000000803F00000000A66281400EE9E940
1004
000000000200B3A382E0B3A38260000000000000000002000000B3A382E0000000000000A040B3A3826001000000000000000000A04002006DFEFFFF6DFEFFFF01000000000000000000A0404DEA0E000000967500000000803F0000000000000000000000000000803F00000000EADC4E408C91D8400000
1004
00000200B3A382E0B3A38260000000000000000002000000B3A382E0000000000000A040B3A3826001000000000000000000A04002006DFEFFFF6DFEFFFF01000000000000000000A0404DEA0D000000967500000000803F0000000000000000000000000000803F00000000E62D2C405D9DBE4000000000
1004
0200B3A382E0B3A38260000000000000000002000000B3A382E0000000000000A040B3A3826001000000000000000000A04002006DFEFFFF6DFEFFFF01000000000000000000A0404DEA0C000000967500000000803F0000000000000000000000000000803F00000000000020400000A040000000000200
1004
B3A382E0B3A38260000000000000000002000000B3A382E00000000000002041B3A3826002000000000000000000A04002006DFEFFFF6DFEFFFF0000A04000002041020033FFFFFF6DFEFFFF02000000000000000000A0400000A040000020414DEA0B000000967500000000803F00000000000000000000
1004
00000000803F00000000E42D2C40A5628140000000000200B3A382E0B3A38260000000000000000002000000B3A382E00000000000002041B3A3826001000000000000000000204102006DFEFFFF6DFEFFFF0100000000000000000020414DEA0A000000967500000000803F000000000000000000000000
1004
0000803F00000000E7DC4E40E7DC4E40000000000200B3A382E0B3A38260000000000000000002000000B3A382E00000000000002041B3A3826001000000000000000000204102006DFEFFFF6DFEFFFF0100000000000000000020414DEA09000000967500000000803F0000000000000000000000000000
1004
803F00000000A4628140E52D2C40000000000200B3A382E0B3A38260000000000000000002000000B3A382E00000000000002041B3A3826001000000000000000000204102006DFEFFFF6DFEFFFF0100000000000000000020414DEA08000000967500000000803F0000000000000000000000000000803F
1004
000000000000A04000002040000000000200B3A382E0B3A38260000000000000000002000000B3A382E00000000000002041B3A3826001000000000000000000204102006DFEFFFF6DFEFFFF0100000000000000000020414DEA07000000967500000000803F0000000000000000000000000000803F0000
1004
00005A9DBE40E52D2C40000000000200B3A382E0B3A38260000000000000000002000000B3A382E00000000000002041B3A3826001000000000000000000204102006DFEFFFF6DFEFFFF0100000000000000000020414DEA06000000967500000000803F0000000000000000000000000000803F00000000
1004
8B91D840E7DC4E40000000000200B3A382E0B3A38260000000000000000002000000B3A382E00000000000002041B3A3826001000000000000000000204102006DFEFFFF6DFEFFFF0100000000000000000020414DEA05000000967500000000803F0000000000000000000000000000803F000000000EE9
1004
E940A4628140000000000200B3A382E0B3A38260000000000000000002000000B3A382E00000000000002041B3A3826001000000000000000000204102006DFEFFFF6DFEFFFF0100000000000000000020414DEA04000000967500000000803F0000000000000000000000000000803F000000000000F040
1004
0000A040000000000200B3A382E0B3A38260000000000000000002000000B3A382E00000000000002041B3A3826002000000000000000000A04002006DFEFFFF6DFEFFFF0000A0400000204102006DFEFFFF33FFFFFF02000000000000000000A0400000A040000020414DEA03000000967500000000803F
1004
0000000000000000000000000000803F000000000EE9E9405C9DBE40000000000200B3A382E0B3A38260000000000000000002000000B3A382E0000000000000A040B3A3826001000000000000000000A04002006DFEFFFF6DFEFFFF01000000000000000000A0404DEA02000000967500000000803F0000
1004
000000000000000000000000803F000000008C91D8408C91D840000000000200B3A382E0B3A38260000000000000000002000000B3A382E0000000000000A040B3A3826001000000000000000000A04002006DFEFFFF6DFEFFFF01000000000000000000A0404DEA01000000967500000000803F00000000
1004
00000000000000000000803F000000005C9DBE400EE9E940000000000200B3A382E0B3A38260000000000000000002000000B3A382E0000000000000A040B3A3826001000000000000000000A04002006DFEFFFF6DFEFFFF01000000000000000000A0404DEA00000000967500000000803F000000000000
1004
0000000000000000803F000000000000A0400000F040000000000200B3A382E0B3A38260000000000000000002000000B3A382E0000000000000A040B3A3826001000000000000000000A04002006DFEFFFF6DFEFFFF01000000000000000000A040FBF2050066900ABB66900ABB66900ABBA9082041A908
1004
204166900A3B0100844E587B1D00010000000100FA010000844E0000000000000000803F000000000000803F000000000000000000000000000000000000000005000000000000000000000000000000000000000000844E0000000000000000803F000000000000803F0000000000000000000000000000
1004
00000000000005000000000000000000000000000000000001000000FBF2040066900ABB66900ABB66900ABBA908204166900A3BA90820410100844E487C1D00010000000100F9010000844E00000000803F000000000000000000000000000000000000803F000000000000000000000000050000000000
1004
00000000000000000000000000000000844E00000000803F000000000000000000000000000000000000803F00000000000000000000000005000000000000000000000000000000000001000000FBF2060066900ABB66900ABB66900ABB66900A3BA9082041A90820410100844E387D1D00010000000100
1004
F8010000844E000000000000000000000000803F000000000000803F0000000000000000000000000000000005000000000000000000000000000000000000000000844E000000000000000000000000803F000000000000803F000000000000000000000000000000000500000000000000000000000000
1004
0000000001000000FBF2060066900ABB66900ABB57F71F41A9082041A9082041A90820410100844E287E1D00010000000100F7010000844E0000000080BF000000800000008000000080000080BF0000008000002041000020410000204105000000000000000000000000000000000000000000844E0000
1004
000080BF000000800000008000000080000080BF0000008000002041000020410000204105000000000000000000000000000000000001000000FBF2040066900ABB57F71F4166900ABBA9082041A9082041A90820410100844E187F1D00010000000100F6010000844E00000000008000000080000080BF
1004
000080BF000000800000008000002041000020410000204105000000000000000000000000000000000000000000844E00000000008000000080000080BF000080BF000000800000008000002041000020410000204105000000000000000000000000000000000001000000FBF2060057F71F4166900ABB
1004
66900ABBA9082041A9082041A90820410100844E08801D00010000000100F5010000844E000000000080000080BF000000800000008000000080000080BF00002041000020410000204105000000000000000000000000000000000000000000844E000000000080000080BF000000800000008000000080
1004
000080BF00002041000020410000204105000000000000000000000000000000000001000000A4EE8DF5C3BAC0F39F40C0F39F401F0620413F0CA0403F0CA040000000000000204002009675588F1E0000000100FFFFF06E1D00D06F1D0000000200D06F1D00F06E1D00FFFFFFFFFFFFFFFF967500000000
1004
0000000080BF000000000000000000000000000080BF000000000000A0400000A04002000000000000002040A4EE8DF5C3BAC0F39F40C0F39F401F0620413F0CA0403F0CA0400000F040000020410200967528901E0000000100FFFFF06E1D00D06F1D0000000200D06F1D00F06E1D00FFFFFFFFFFFFFFFF
1004
9675000000000000000080BF000000000000000000000000000080BF000000000000A0400000A04002000000F04000002041A4EE81E71F40C0F39F40C0F39F403F0CF0403F0CF0403F0CA04000000000DB0F49400200FC7518911E000000FFFF0100F06E1D00E0701D0000000200F06E1D00E0701D00FFFF
1004
FFFFFFFFFFFFFC7500000000803F0000000000000000000000000000803F000000000000A0400000A0400000A0400400000020400000204000000000DB0F4940A4EE8DF5C3BA57F71F41C0F39F401F0620411F0620413F0CA0400000A0C00000A0400200967508921E0000000100FFFFF06E1D00187F1D00
1004
00000200187F1D00F06E1D0001000000FFFFFFFF96750000000000000000803F000000000000000000000000000080BF0000A040000020410000A04002000000A0C00000A040A4EE57F71F41C0F39F40C0F39F401F0620411F0620413F0CA040000020C00000204002009675F8921E0000000100FFFFF06E
1004
1D0008801D000000020008801D00F06E1D0001000000FFFFFFFF967500000000803F00000000000000000000000000000000000080BF000020410000F0400000A0400200000020C000002040A4EE8DF5C3BAC0F39F40C0F39F4066900A3B1F0620413F0CA0400000F0C0000020C002009675E8931E000000
1004
0100FFFFF06E1D00387D1D0000000200387D1D00F06E1D0001000000FFFFFFFF96750000000080BF00000000000000000000000000000000000080BF00000000000020400000A04002000000F0C0000020C0A4EE81E71F40C0F39F40C0F39F403F0CF0403F0CA0401F0620410000A0400000204102009675
1004
D8941E000000FFFF0100D06F1D00E0701D0000000200D06F1D00E0701D00FFFFFFFFFFFFFFFF967500000000803F0000000000000000000000000000803F0000000000002040FFFF9F400000000002000000A04000002041A4EE81E71F40C0F39F40C0F39F403F0CF0403F0CA0401F0620410000A0400000
1004
204102009675C8951E0000000100FFFFD06F1D00E0701D0000000200E0701D00D06F1D00FFFFFFFFFFFFFFFF967500000000803F0000000000000000000000000000803F000000000000F0400000A0400000000002000000A04000002041A4EE8DF5C3BAC0F39F4057F71F411F0620413F0CA0401F062041
1004
0000A0C0000020C002009675B8961E0000000100FFFFD06F1D00287E1D0000000200287E1D00D06F1D0001000000FFFFFFFF9675000000000000000000000000803F00000000000080BF000000000000A0400000A0400000204102000000A0C0000020C0A4EE8DF5C3BAC0F39F4057F71F411F0620413F0C
1004
A0401F062041000020400000A04002009675A8971E0000000100FFFFD06F1D00287E1D0000000200287E1D00D06F1D0001000000FFFFFFFF9675000000000000000000000000803F00000000000080BF000000000000A0400000A040000020410200000020400000A040A4EE57F71F41C0F39F40C0F39F40
1004
1F0620413F0CA0401F062041000020C0000020400200967598981E0000000100FFFFD06F1D0008801D000000020008801D00D06F1D0001000000FFFFFFFF967500000000803F000000000000000000000000000080BF00000000000020410000A0400000F0400200000020C000002040A4EE8DF5C3BAC0F3
1004
9F40C0F39F4066900A3B3F0CA0401F062041000020400000F0400200967588991E0000000100FFFFD06F1D00387D1D0000000200387D1D00D06F1D0001000000FFFFFFFF96750000000080BF000000000000000000000000000080BF00000000000000000000A040000020400200000020400000F040A4EE
1004
81E71F4081E71F4057F71F413F0CF0403F0CF0401F062041DB0F49C0000000000200FC75789A1E0000000100FFFFE0701D00287E1D0000000200287E1D00E0701D0001000000FFFFFFFFFC7500000000803F0000000000000000000000000000803F000000000000A0400000A04000002041040000002040
1004
00002040DB0F49C000000000A4EE81E71F4081E71F408DF5C3BA3F0CF0403F0CF04066900A3BDB0F49C0DB0F49400200FC75689B1E000000FFFF0100E0701D00587B1D0000000200E0701D00587B1D00FFFFFFFF01000000FC7500000000803F0000000000000000000000000000803F000000000000A040
1004
0000A0400000000004000000204000002040DB0F49C0DB0F4940A4EE66900ABB57F71F4166900ABBA9082041A908204166900A3B0000A0C00000A04002009675589C1E000000FFFF0100587B1D00187F1D0000000200587B1D00187F1D00010000000100000096750000000000000000803F000000000000
1004
000000000000000080BF0000A040000020410000000002000000A0C00000A040A4EE57F71F4166900ABB66900ABBA9082041A908204166900A3B0000A0C00000A04002009675489D1E000000FFFF0100587B1D0008801D0000000200587B1D0008801D000100000001000000967500000000803F00000000
1004
000000000000000000000000000080BF000020410000A0400000000002000000A0C00000A040A4EE66900ABB66900ABB66900ABB66900A3BA908204166900A3B000020C10000008002009675389E1E000000FFFF0100587B1D00387D1D0000000200587B1D00387D1D000100000001000000967500000000
1004
80BF00000000000000000000000000000000000080BF0000000000000000000000000200000020C100000080A4EE66900ABB66900ABB66900ABBA908204166900A3B66900A3B000000000000204102009675389F1E000000FFFF0100587B1D00487C1D0000000200587B1D00487C1D000100000001000000
1004
9675000000000000000080BF000000000000000000000000000080BF00000000000000000000000002000000000000002041A4EE66900ABB66900ABB57F71F41A908204166900A3BA90820410000A0C00000A0400200967528A01E000000FFFF0100487C1D00287E1D0000000200487C1D00287E1D000100
1004
0000010000009675000000000000000000000000803F00000000000080BF000000000000A040000000000000204102000000A0C00000A040A4EE57F71F4166900ABB66900ABBA908204166900A3BA90820410000A0C00000A0400200967518A11E000000FFFF0100487C1D0008801D0000000200487C1D00
1004
08801D000100000001000000967500000000803F000000000000000000000000000080BF0000000000002041000000000000A04002000000A0C00000A040A4EE66900ABB66900ABB66900ABB66900A3B66900A3BA908204100000000000020410200967508A21E000000FFFF0100487C1D00387D1D000000
1004
0200487C1D00387D1D00010000000100000096750000000080BF000000000000000000000000000080BF0000000000000000000000000000000002000000000000002041A4EE66900ABB66900ABB57F71F4166900A3BA9082041A9082041000000800000A04002009675F8A21E000000FFFF0100387D1D00
1004
287E1D0000000200387D1D00287E1D0001000000010000009675000000000000000000000000803F000080BF0000000000000000000000000000A040000020410200000000800000A040A4EE66900ABB57F71F4166900ABB66900A3BA9082041A90820410000A0C00000000002009675E8A31E000000FFFF
1004
0100387D1D00187F1D0000000200387D1D00187F1D00010000000100000096750000000000000000803F00000000000080BF000000000000000000000000000020410000A04002000000A0C000000000A4EE57F71F4166900ABB57F71F41A9082041A9082041A90820410000A0400000204102009675D8A4
1004
1E000000FFFF0100287E1D0008801D0000000200287E1D0008801D000100000001000000967500000000803F000000000000000000000000000000000000803F00002041000020410000204102000000A04000002041A4EE57F71F4157F71F4166900ABBA9082041A9082041A9082041000020C10000A0C0
1004
02009675C8A51E000000FFFF0100187F1D0008801D0000000200187F1D0008801D000100000001000000967500000000803F0000000000000000000000000000803F000000000000204100002041000020410200000020C10000A0C019FC
1005
F7
  0
INSERT
  8
AME_FRZ
  5
F7
  2
AME_NIL
 10
1.0
 20
1.0
 30
1.0
1001
AME_SOL
1004

1005
0
  0
INSERT
  8
AME_FRZ
  5
F9
  2
AME_MAT
 10
0.0
 20
0.0
 30
0.0
1001
AME_SOL
1000
MILD_STEEL
1040
7860.0
1040
220.0
1040
0.275
1040
207.0
1040
345.0
1040
56.0
1040
12.0
1040
0.46
  0
ENDSEC
  0
EOF
