600 0 2 0           
24 FBMach with ACIS - 6.0.3 13 ACIS 6.0.3 NT 24 Tue May 22 13:05:40 2001 
1 9.9999999999999995e-007 1e-010 
body $2 $3 $-1 $4 #
bdycol-kcp $-1 1 10 $5 $6 $7 $8 $9 $10 $11 $12 $13 $14 #
model_id-kcp-attrib $-1 $15 $-1 $0 1 990551139 100 -580648959 1 #
lump $-1 $-1 $16 $0 #
transform $-1 1 0 0 0 1 0 0 0 1 0 0 0 1 no_rotate no_reflect no_shear #
body $17 $18 $-1 $19 #
body $20 $21 $-1 $22 #
body $23 $24 $-1 $25 #
body $26 $27 $-1 $28 #
body $29 $30 $-1 $31 #
body $32 $33 $-1 $34 #
body $35 $36 $-1 $37 #
body $38 $39 $-1 $40 #
body $41 $42 $-1 $43 #
body $44 $45 $-1 $46 #
attrib_gssl_step_cc1_details-attrib_gssl_step-attrib $-1 $-1 $2 $0 $47 $48 $49 $50 $51 $52 $53 $54 $55 $56 $57 $58 $59 $60 $61 $62 $63 $64 $65 $66 $67 $68 $69 $70 $71 $72 $73 $74 $75 $76 $77 $78 #
shell $-1 $-1 $-1 $79 $-1 $3 #
model_id-kcp-attrib $-1 $-1 $-1 $5 1 990551139 100 -580648958 1 #
lump $-1 $-1 $80 $5 #
transform $-1 1 0 0 0 1 0 0 0 1 0 7.5050000000000008 0 1 no_rotate no_reflect no_shear #
rgb_color-st-attrib $-1 $81 $-1 $6 0.5 1 1 #
lump $-1 $-1 $82 $6 #
transform $-1 -1 0 -1.2246063538223773e-016 0 1 0 1.2246063538223773e-016 0 -1 1.8307864989644542e-016 0 2.2419927791240957e-032 1 rotate no_reflect no_shear #
rgb_color-st-attrib $-1 $83 $-1 $7 0.5 1 1 #
lump $-1 $-1 $84 $7 #
transform $-1 -1 0 -1.2246063538223773e-016 0 1 0 1.2246063538223773e-016 0 -1 0.50000000000000011 -2.5150000000000001 1.075 1 rotate no_reflect no_shear #
rgb_color-st-attrib $-1 $85 $-1 $8 0.5 1 1 #
lump $-1 $-1 $86 $8 #
transform $-1 1 0 0 0 1 0 0 0 1 0.5 -2.5150000000000001 -1.0750000000000002 1 no_rotate no_reflect no_shear #
rgb_color-st-attrib $-1 $87 $-1 $9 0.5 1 1 #
lump $-1 $-1 $88 $9 #
transform $-1 -1 0 -1.2246063538223773e-016 0 1 0 1.2246063538223773e-016 0 -1 -0.49999999999999994 -2.5150000000000001 1.0750000000000002 1 rotate no_reflect no_shear #
rgb_color-st-attrib $-1 $89 $-1 $10 0.5 1 1 #
lump $-1 $-1 $90 $10 #
transform $-1 1 0 0 0 1 0 0 0 1 -0.5 -2.5150000000000001 -1.0750000000000002 1 no_rotate no_reflect no_shear #
rgb_color-st-attrib $-1 $91 $-1 $11 0.5 1 1 #
lump $-1 $-1 $92 $11 #
transform $-1 -1 0 -1.2246063538223773e-016 0 1 0 1.2246063538223773e-016 0 -1 1.4239999999999999 -2.1320000000000001 1.075 1 rotate no_reflect no_shear #
rgb_color-st-attrib $-1 $93 $-1 $12 0.5 1 1 #
lump $-1 $-1 $94 $12 #
transform $-1 1 0 0 0 1 0 0 0 1 1.4239999999999999 -2.1320000000000001 -1.0750000000000002 1 no_rotate no_reflect no_shear #
rgb_color-st-attrib $-1 $95 $-1 $13 0.5 1 1 #
lump $-1 $-1 $96 $13 #
transform $-1 -1 0 -1.2246063538223773e-016 0 1 0 1.2246063538223773e-016 0 -1 -1.4239999999999999 -2.1320000000000001 1.075 1 rotate no_reflect no_shear #
rgb_color-st-attrib $-1 $97 $-1 $14 0.5 1 1 #
lump $-1 $-1 $98 $14 #
transform $-1 1 0 0 0 1 0 0 0 1 -1.4239999999999999 -2.1320000000000001 -1.0750000000000002 1 no_rotate no_reflect no_shear #
attrib_gssl_step_product_details-attrib_gssl_step-attrib $-1 $-1 $-1 $-1 7 Product 9 Test Part 1 1 6 detail 6 detail #
attrib_gssl_step_application_details-attrib_gssl_step-attrib $-1 $-1 $-1 $-1 70 configuration controlled 3d designs of mechanical parts and assemblies 22 International Standard 21 config_control_design 1994 #
attrib_gssl_step_mech_con_details-attrib_gssl_step-attrib $-1 $-1 $-1 $-1 19 3D Mechanical Parts 10 mechanical #
attrib_gssl_step_des_con_details-attrib_gssl_step-attrib $-1 $-1 $-1 $-1 19 3D Mechanical Parts 6 design #
attrib_gssl_step_person_details-attrib_gssl_step-attrib $-1 $-1 $-1 $-1 1 1 9 Last Name 10 First Name 0 0 0 #
attrib_gssl_step_person_details-attrib_gssl_step-attrib $-1 $-1 $-1 $-1 1 2 9 Last Name 10 First Name 0 0 0 #
attrib_gssl_step_person_details-attrib_gssl_step-attrib $-1 $-1 $-1 $-1 1 3 9 Last Name 10 First Name 0 0 0 #
attrib_gssl_step_person_details-attrib_gssl_step-attrib $-1 $-1 $-1 $-1 1 2 9 Last Name 10 First Name 0 0 0 #
attrib_gssl_step_person_details-attrib_gssl_step-attrib $-1 $-1 $-1 $-1 1 2 9 Last Name 10 First Name 0 0 0 #
attrib_gssl_step_person_details-attrib_gssl_step-attrib $-1 $-1 $-1 $-1 1 3 9 Last Name 10 First Name 0 0 0 #
attrib_gssl_step_person_details-attrib_gssl_step-attrib $-1 $-1 $-1 $-1 1 3 9 Last Name 10 First Name 0 0 0 #
attrib_gssl_step_person_details-attrib_gssl_step-attrib $-1 $-1 $-1 $-1 1 3 9 Last Name 10 First Name 0 0 0 #
attrib_gssl_step_org_details-attrib_gssl_step-attrib $-1 $-1 $-1 $-1 3 STI 3 R&D 3 R&D 12 design_owner #
attrib_gssl_step_org_details-attrib_gssl_step-attrib $-1 $-1 $-1 $-1 3 STI 3 R&D 3 R&D 7 creator #
attrib_gssl_step_org_details-attrib_gssl_step-attrib $-1 $-1 $-1 $-1 3 STI 3 R&D 3 R&D 0  #
attrib_gssl_step_org_details-attrib_gssl_step-attrib $-1 $-1 $-1 $-1 3 STI 3 R&D 3 R&D 7 creator #
attrib_gssl_step_org_details-attrib_gssl_step-attrib $-1 $-1 $-1 $-1 3 STI 3 R&D 3 R&D 15 design_supplier #
attrib_gssl_step_org_details-attrib_gssl_step-attrib $-1 $-1 $-1 $-1 3 STI 3 R&D 3 R&D 0  #
attrib_gssl_step_org_details-attrib_gssl_step-attrib $-1 $-1 $-1 $-1 3 STI 3 R&D 3 R&D 0  #
attrib_gssl_step_org_details-attrib_gssl_step-attrib $-1 $-1 $-1 $-1 3 STI 3 R&D 3 R&D 22 classification_officer #
attrib_gssl_step_datetime_details-attrib_gssl_step-attrib $-1 $-1 $-1 $-1 1997 1 1 0 0 0 5 0 1 13 creation_date #
attrib_gssl_step_datetime_details-attrib_gssl_step-attrib $-1 $-1 $-1 $-1 1997 1 1 0 0 0 5 0 1 0  #
attrib_gssl_step_datetime_details-attrib_gssl_step-attrib $-1 $-1 $-1 $-1 1997 1 1 0 0 0 5 0 1 0  #
attrib_gssl_step_datetime_details-attrib_gssl_step-attrib $-1 $-1 $-1 $-1 1997 1 1 0 0 0 5 0 1 19 classification_date #
attrib_gssl_step_datetime_details-attrib_gssl_step-attrib $-1 $-1 $-1 $-1 1997 1 1 0 0 0 5 0 1 0  #
attrib_gssl_step_security_details-attrib_gssl_step-attrib $-1 $-1 $-1 $-1 7 Version 20 Security for version 12 unclassified #
attrib_gssl_step_approval_details-attrib_gssl_step-attrib $-1 $-1 $-1 $-1 19 Definition approval 16 not_yet_approved 19 definition approval 0  #
attrib_gssl_step_approval_details-attrib_gssl_step-attrib $-1 $-1 $-1 $-1 16 Version approval 16 not_yet_approved 16 version approval 0  #
attrib_gssl_step_approval_details-attrib_gssl_step-attrib $-1 $-1 $-1 $-1 25 Version Security approval 16 not_yet_approved 25 version security approval 0  #
attrib_gssl_step_product_def_form_details-attrib_gssl_step-attrib $-1 $-1 $-1 $-1 9 Test Part 7 Version 0 #
attrib_gssl_step_product_def_details-attrib_gssl_step-attrib $-1 $-1 $-1 $-1 9 Test Part 7 Version #
attrib_gssl_step_product_def_spec_details-attrib_gssl_step-attrib $-1 $-1 $-1 $-1 9 Test Part 7 Version #
face $99 $100 $101 $16 $-1 $102 reversed single #
shell $-1 $-1 $-1 $103 $-1 $18 #
model_id-kcp-attrib $-1 $-1 $20 $6 1 990551139 310 -583663613 1 #
shell $-1 $-1 $-1 $104 $-1 $21 #
model_id-kcp-attrib $-1 $-1 $23 $7 1 990551139 310 -583663612 1 #
shell $-1 $-1 $-1 $105 $-1 $24 #
model_id-kcp-attrib $-1 $-1 $26 $8 1 990551139 320 -583008251 1 #
shell $-1 $-1 $-1 $106 $-1 $27 #
model_id-kcp-attrib $-1 $-1 $29 $9 1 990551139 330 -582352890 1 #
shell $-1 $-1 $-1 $107 $-1 $30 #
model_id-kcp-attrib $-1 $-1 $32 $10 1 990551139 330 -582352889 1 #
shell $-1 $-1 $-1 $108 $-1 $33 #
model_id-kcp-attrib $-1 $-1 $35 $11 1 990551139 340 -581697528 1 #
shell $-1 $-1 $-1 $109 $-1 $36 #
model_id-kcp-attrib $-1 $-1 $38 $12 1 990551139 350 -581042167 1 #
shell $-1 $-1 $-1 $110 $-1 $39 #
model_id-kcp-attrib $-1 $-1 $41 $13 1 990551139 350 -581042166 1 #
shell $-1 $-1 $-1 $111 $-1 $42 #
model_id-kcp-attrib $-1 $-1 $44 $14 1 990551139 360 -580386805 1 #
shell $-1 $-1 $-1 $112 $-1 $45 #
model_id-kcp-attrib $-1 $-1 $-1 $79 1 990551139 100 -580648959 2 #
face $113 $114 $115 $16 $-1 $116 reversed single #
loop $-1 $-1 $117 $79 #
plane-surface $-1 0 0 -0.65500000000000003 0 0 -1 -1 0 0 forward_v I I I I #
face $118 $119 $120 $80 $-1 $121 forward single #
face $-1 $122 $123 $82 $-1 $124 forward single #
face $-1 $125 $126 $84 $-1 $127 forward single #
face $-1 $128 $129 $86 $-1 $130 forward single #
face $-1 $131 $132 $88 $-1 $133 forward single #
face $-1 $134 $135 $90 $-1 $136 forward single #
face $-1 $137 $138 $92 $-1 $139 forward single #
face $-1 $140 $141 $94 $-1 $142 forward single #
face $-1 $143 $144 $96 $-1 $145 forward single #
face $-1 $146 $147 $98 $-1 $148 forward single #
model_id-kcp-attrib $-1 $-1 $-1 $100 1 990551139 100 -580648959 3 #
face $149 $150 $151 $16 $-1 $152 forward single #
loop $-1 $-1 $153 $100 #
plane-surface $-1 0 0 0.65500000000000003 0 0 1 1 0 0 forward_v I I I I #
coedge $-1 $154 $154 $155 $156 reversed $101 $-1 #
model_id-kcp-attrib $-1 $-1 $-1 $103 1 990551139 100 -580648958 3 #
face $157 $158 $159 $80 $-1 $160 reversed single #
loop $-1 $-1 $161 $103 #
plane-surface $-1 0 0 1.4950000000000001 0 0 1 1 0 0 forward_v I I I I #
face $-1 $162 $163 $82 $-1 $164 forward single #
loop $-1 $165 $166 $104 #
cone-surface $-1 0 0 0 0 0 1 2 0 0 1 I I 0 1 2 forward I I I I #
face $-1 $167 $168 $84 $-1 $169 forward single #
loop $-1 $170 $171 $105 #
cone-surface $-1 0 0 0 0 0 1 0.156 0 0 1 I I 0 1 0.156 forward I I I I #
face $-1 $172 $173 $86 $-1 $174 forward single #
loop $-1 $175 $176 $106 #
cone-surface $-1 0 0 0 0 0 1 0.156 0 0 1 I I 0 1 0.156 forward I I I I #
face $-1 $177 $178 $88 $-1 $179 forward single #
loop $-1 $180 $181 $107 #
cone-surface $-1 0 0 0 0 0 1 0.156 0 0 1 I I 0 1 0.156 forward I I I I #
face $-1 $182 $183 $90 $-1 $184 forward single #
loop $-1 $185 $186 $108 #
cone-surface $-1 0 0 0 0 0 1 0.156 0 0 1 I I 0 1 0.156 forward I I I I #
face $-1 $187 $188 $92 $-1 $189 forward single #
loop $-1 $190 $191 $109 #
cone-surface $-1 0 0 0 0 0 1 0.156 0 0 1 I I 0 1 0.156 forward I I I I #
face $-1 $192 $193 $94 $-1 $194 forward single #
loop $-1 $195 $196 $110 #
cone-surface $-1 0 0 0 0 0 1 0.156 0 0 1 I I 0 1 0.156 forward I I I I #
face $-1 $197 $198 $96 $-1 $199 forward single #
loop $-1 $200 $201 $111 #
cone-surface $-1 0 0 0 0 0 1 0.156 0 0 1 I I 0 1 0.156 forward I I I I #
face $-1 $202 $203 $98 $-1 $204 forward single #
loop $-1 $205 $206 $112 #
cone-surface $-1 0 0 0 0 0 1 0.156 0 0 1 I I 0 1 0.156 forward I I I I #
model_id-kcp-attrib $-1 $-1 $-1 $114 1 990551139 100 -580648959 4 #
face $207 $208 $209 $16 $-1 $152 forward single #
loop $-1 $-1 $210 $114 #
plane-surface $-1 0 0 0.65500000000000003 0 0 1 1 0 0 forward_v I I I I #
coedge $-1 $211 $211 $212 $213 forward $115 $-1 #
coedge $-1 $117 $117 $214 $215 forward $101 $-1 #
coedge $-1 $216 $217 $117 $156 forward $218 $-1 #
edge $-1 $219 -2.2798026230356001 $220 0 $117 $221 forward 7 unknown #
model_id-kcp-attrib $-1 $-1 $-1 $119 1 990551139 100 -580648958 4 #
face $222 $223 $224 $80 $-1 $225 reversed single #
loop $-1 $-1 $226 $119 #
plane-surface $-1 0 0 -1.4950000000000001 0 0 1 1 0 0 forward_v I I I I #
coedge $-1 $227 $228 $229 $230 forward $120 $-1 #
face $-1 $-1 $231 $82 $-1 $232 forward single #
loop $-1 $-1 $233 $122 #
plane-surface $-1 0 0 -1.4950000000000003 0 0 -1 -1 0 0 forward_v I I I I #
loop $-1 $-1 $234 $104 #
coedge $-1 $166 $166 $233 $235 reversed $123 $-1 #
face $-1 $-1 $236 $84 $-1 $237 forward single #
loop $-1 $-1 $238 $125 #
plane-surface $-1 0 0 -0.4200000000000001 0 0 -1 -1 0 0 forward_v I I I I #
loop $-1 $-1 $239 $105 #
coedge $-1 $171 $171 $238 $240 reversed $126 $-1 #
face $-1 $-1 $241 $86 $-1 $242 forward single #
loop $-1 $-1 $243 $128 #
plane-surface $-1 0 0 -0.42000000000000004 0 0 -1 -1 0 0 forward_v I I I I #
loop $-1 $-1 $244 $106 #
coedge $-1 $176 $176 $243 $245 reversed $129 $-1 #
face $-1 $-1 $246 $88 $-1 $247 forward single #
loop $-1 $-1 $248 $131 #
plane-surface $-1 0 0 -0.41999999999999998 0 0 -1 -1 0 0 forward_v I I I I #
loop $-1 $-1 $249 $107 #
coedge $-1 $181 $181 $248 $250 reversed $132 $-1 #
face $-1 $-1 $251 $90 $-1 $252 forward single #
loop $-1 $-1 $253 $134 #
plane-surface $-1 0 0 -0.42000000000000004 0 0 -1 -1 0 0 forward_v I I I I #
loop $-1 $-1 $254 $108 #
coedge $-1 $186 $186 $253 $255 reversed $135 $-1 #
face $-1 $-1 $256 $92 $-1 $257 forward single #
loop $-1 $-1 $258 $137 #
plane-surface $-1 0 0 -0.42000000000000004 0 0 -1 -1 0 0 forward_v I I I I #
loop $-1 $-1 $259 $109 #
coedge $-1 $191 $191 $258 $260 reversed $138 $-1 #
face $-1 $-1 $261 $94 $-1 $262 forward single #
loop $-1 $-1 $263 $140 #
plane-surface $-1 0 0 -0.42000000000000004 0 0 -1 -1 0 0 forward_v I I I I #
loop $-1 $-1 $264 $110 #
coedge $-1 $196 $196 $263 $265 reversed $141 $-1 #
face $-1 $-1 $266 $96 $-1 $267 forward single #
loop $-1 $-1 $268 $143 #
plane-surface $-1 0 0 -0.42000000000000004 0 0 -1 -1 0 0 forward_v I I I I #
loop $-1 $-1 $269 $111 #
coedge $-1 $201 $201 $268 $270 reversed $144 $-1 #
face $-1 $-1 $271 $98 $-1 $272 forward single #
loop $-1 $-1 $273 $146 #
plane-surface $-1 0 0 -0.42000000000000004 0 0 -1 -1 0 0 forward_v I I I I #
loop $-1 $-1 $274 $112 #
coedge $-1 $206 $206 $273 $275 reversed $147 $-1 #
model_id-kcp-attrib $-1 $-1 $-1 $150 1 990551139 100 -580648959 5 #
face $276 $277 $278 $16 $-1 $279 reversed single #
loop $-1 $-1 $280 $150 #
coedge $-1 $281 $282 $283 $284 reversed $151 $-1 #
coedge $-1 $153 $153 $285 $286 forward $115 $-1 #
coedge $-1 $287 $288 $153 $213 reversed $218 $-1 #
edge $-1 $289 -2.2798026230356001 $290 0 $153 $291 forward 7 unknown #
coedge $-1 $292 $293 $154 $215 reversed $294 $-1 #
edge $-1 $219 -0.38976073279747492 $220 0.38976073279747492 $154 $295 forward 7 unknown #
coedge $-1 $296 $155 $297 $298 reversed $218 $-1 #
coedge $-1 $155 $299 $300 $301 reversed $218 $-1 #
loop $-1 $-1 $299 $302 #
vertex $-1 $156 $303 #
vertex $-1 $156 $304 #
straight-curve $-1 -2.7749999999999999 -1.1399013115178001 -0.65500000000000003 -1.9479283222279599e-016 -1 0 I I #
model_id-kcp-attrib $-1 $-1 $-1 $158 1 990551139 100 -580648958 2 #
face $305 $306 $307 $80 $-1 $308 reversed single #
loop $-1 $-1 $309 $158 #
plane-surface $-1 0 -10.505000000000001 0 0 1 0 0 0 1 forward_v I I I I #
coedge $-1 $310 $311 $312 $313 forward $159 $-1 #
coedge $-1 $314 $161 $315 $316 forward $120 $-1 #
coedge $-1 $161 $314 $317 $318 forward $120 $-1 #
coedge $-1 $319 $320 $161 $230 reversed $321 $-1 #
edge $-1 $322 -10.505000000000001 $323 10.505000000000001 $229 $324 forward 7 unknown #
loop $-1 $-1 $325 $162 #
plane-surface $-1 0 0 1.4950000000000003 0 0 1 1 0 0 forward_v I I I I #
coedge $-1 $233 $233 $166 $235 forward $163 $-1 #
coedge $-1 $234 $234 $325 $326 reversed $165 $-1 #
edge $-1 $327 0 $327 6.2831853071795862 $233 $328 forward 7 unknown #
loop $-1 $-1 $329 $167 #
plane-surface $-1 0 0 0.4200000000000001 0 0 1 1 0 0 forward_v I I I I #
coedge $-1 $238 $238 $171 $240 forward $168 $-1 #
coedge $-1 $239 $239 $329 $330 reversed $170 $-1 #
edge $-1 $331 0 $331 6.2831853071795862 $238 $332 forward 7 unknown #
loop $-1 $-1 $333 $172 #
plane-surface $-1 0 0 0.42000000000000004 0 0 1 1 0 0 forward_v I I I I #
coedge $-1 $243 $243 $176 $245 forward $173 $-1 #
coedge $-1 $244 $244 $333 $334 reversed $175 $-1 #
edge $-1 $335 0 $335 6.2831853071795862 $243 $336 forward 7 unknown #
loop $-1 $-1 $337 $177 #
plane-surface $-1 0 0 0.41999999999999998 0 0 1 1 0 0 forward_v I I I I #
coedge $-1 $248 $248 $181 $250 forward $178 $-1 #
coedge $-1 $249 $249 $337 $338 reversed $180 $-1 #
edge $-1 $339 0 $339 6.2831853071795862 $248 $340 forward 7 unknown #
loop $-1 $-1 $341 $182 #
plane-surface $-1 0 0 0.42000000000000004 0 0 1 1 0 0 forward_v I I I I #
coedge $-1 $253 $253 $186 $255 forward $183 $-1 #
coedge $-1 $254 $254 $341 $342 reversed $185 $-1 #
edge $-1 $343 0 $343 6.2831853071795862 $253 $344 forward 7 unknown #
loop $-1 $-1 $345 $187 #
plane-surface $-1 0 0 0.42000000000000004 0 0 1 1 0 0 forward_v I I I I #
coedge $-1 $258 $258 $191 $260 forward $188 $-1 #
coedge $-1 $259 $259 $345 $346 reversed $190 $-1 #
edge $-1 $347 0 $347 6.2831853071795862 $258 $348 forward 7 unknown #
loop $-1 $-1 $349 $192 #
plane-surface $-1 0 0 0.42000000000000004 0 0 1 1 0 0 forward_v I I I I #
coedge $-1 $263 $263 $196 $265 forward $193 $-1 #
coedge $-1 $264 $264 $349 $350 reversed $195 $-1 #
edge $-1 $351 0 $351 6.2831853071795862 $263 $352 forward 7 unknown #
loop $-1 $-1 $353 $197 #
plane-surface $-1 0 0 0.42000000000000004 0 0 1 1 0 0 forward_v I I I I #
coedge $-1 $268 $268 $201 $270 forward $198 $-1 #
coedge $-1 $269 $269 $353 $354 reversed $200 $-1 #
edge $-1 $355 0 $355 6.2831853071795862 $268 $356 forward 7 unknown #
loop $-1 $-1 $357 $202 #
plane-surface $-1 0 0 0.42000000000000004 0 0 1 1 0 0 forward_v I I I I #
coedge $-1 $273 $273 $206 $275 forward $203 $-1 #
coedge $-1 $274 $274 $357 $358 reversed $205 $-1 #
edge $-1 $359 0 $359 6.2831853071795862 $273 $360 forward 7 unknown #
model_id-kcp-attrib $-1 $-1 $-1 $208 1 990551139 100 -580648959 6 #
face $361 $362 $363 $16 $-1 $279 reversed single #
loop $-1 $-1 $300 $208 #
plane-surface $-1 0 0 -0.65500000000000003 0 0 1 1 0 0 forward_v I I I I #
coedge $-1 $364 $365 $366 $367 forward $209 $-1 #
coedge $-1 $368 $210 $369 $370 forward $151 $-1 #
coedge $-1 $210 $368 $371 $372 forward $151 $-1 #
coedge $-1 $373 $374 $210 $284 forward $375 $-1 #
edge $-1 $376 -5.6500986884822 $377 0 $210 $378 forward 7 unknown #
coedge $-1 $366 $371 $211 $286 reversed $379 $-1 #
edge $-1 $290 -0.38976073279747492 $289 0.38976073279747492 $211 $380 forward 7 unknown #
coedge $-1 $299 $212 $368 $381 forward $218 $-1 #
coedge $-1 $212 $296 $364 $382 forward $218 $-1 #
vertex $-1 $213 $383 #
vertex $-1 $213 $384 #
straight-curve $-1 -2.7749999999999999 -1.1399013115178001 0.65500000000000003 3.89585664445591e-016 -1 0 I I #
coedge $-1 $385 $214 $386 $387 reversed $294 $-1 #
coedge $-1 $214 $388 $389 $390 reversed $294 $-1 #
loop $-1 $-1 $214 $391 #
ellipse-curve $-1 0 0 -0.65500000000000003 0 0 1 -3 0 0 1 I I #
coedge $-1 $288 $216 $392 $393 reversed $218 $-1 #
coedge $-1 $389 $394 $216 $298 forward $395 $-1 #
edge $-1 $396 -1.8600986884821999 $220 0 $297 $397 forward 7 unknown #
coedge $-1 $217 $287 $398 $399 forward $218 $-1 #
coedge $-1 $400 $386 $217 $301 forward $278 $-1 #
edge $-1 $219 -5.6500986884822 $401 0 $300 $402 forward 7 unknown #
face $403 $404 $218 $16 $-1 $405 forward single #
point $-1 -2.7749999999999999 1.1399013115178001 -0.65500000000000003 #
point $-1 -2.7749999999999999 -1.1399013115178001 -0.65500000000000003 #
model_id-kcp-attrib $-1 $-1 $-1 $223 1 990551139 100 -580648958 5 #
face $406 $407 $408 $80 $-1 $409 reversed single #
loop $-1 $-1 $410 $223 #
plane-surface $-1 -3.5 0 0 1 0 0 0 0 -1 forward_v I I I I #
coedge $-1 $411 $317 $412 $413 forward $224 $-1 #
coedge $-1 $414 $226 $411 $415 forward $159 $-1 #
coedge $-1 $226 $414 $416 $417 forward $159 $-1 #
coedge $-1 $320 $319 $226 $313 reversed $321 $-1 #
edge $-1 $418 -10.505000000000001 $419 10.505000000000001 $312 $420 forward 7 unknown #
coedge $-1 $228 $227 $421 $422 forward $120 $-1 #
coedge $-1 $423 $424 $227 $316 reversed $408 $-1 #
edge $-1 $323 -3.5 $425 3.5 $315 $426 forward 7 unknown #
coedge $-1 $309 $427 $228 $318 reversed $224 $-1 #
edge $-1 $428 -3.5 $322 3.5 $317 $429 forward 7 unknown #
coedge $-1 $312 $229 $427 $430 forward $321 $-1 #
coedge $-1 $229 $312 $423 $431 reversed $321 $-1 #
loop $-1 $-1 $319 $407 #
vertex $-1 $230 $432 #
vertex $-1 $230 $433 #
straight-curve $-1 3.5 0 1.4950000000000001 0 1 0 I I #
coedge $-1 $325 $325 $234 $326 forward $231 $-1 #
edge $-1 $434 0 $434 6.2831853071795862 $325 $435 forward 7 unknown #
vertex $-1 $235 $436 #
ellipse-curve $-1 0 0 -1.4950000000000003 0 0 -1 2 0 0 1 I I #
coedge $-1 $329 $329 $239 $330 forward $236 $-1 #
edge $-1 $437 0 $437 6.2831853071795862 $329 $438 forward 7 unknown #
vertex $-1 $240 $439 #
ellipse-curve $-1 0 0 -0.4200000000000001 0 0 -1 0.156 0 0 1 I I #
coedge $-1 $333 $333 $244 $334 forward $241 $-1 #
edge $-1 $440 0 $440 6.2831853071795862 $333 $441 forward 7 unknown #
vertex $-1 $245 $442 #
ellipse-curve $-1 0 0 -0.42000000000000004 0 0 -1 0.156 0 0 1 I I #
coedge $-1 $337 $337 $249 $338 forward $246 $-1 #
edge $-1 $443 0 $443 6.2831853071795862 $337 $444 forward 7 unknown #
vertex $-1 $250 $445 #
ellipse-curve $-1 0 0 -0.41999999999999998 0 0 -1 0.156 0 0 1 I I #
coedge $-1 $341 $341 $254 $342 forward $251 $-1 #
edge $-1 $446 0 $446 6.2831853071795862 $341 $447 forward 7 unknown #
vertex $-1 $255 $448 #
ellipse-curve $-1 0 0 -0.42000000000000004 0 0 -1 0.156 0 0 1 I I #
coedge $-1 $345 $345 $259 $346 forward $256 $-1 #
edge $-1 $449 0 $449 6.2831853071795862 $345 $450 forward 7 unknown #
vertex $-1 $260 $451 #
ellipse-curve $-1 0 0 -0.42000000000000004 0 0 -1 0.156 0 0 1 I I #
coedge $-1 $349 $349 $264 $350 forward $261 $-1 #
edge $-1 $452 0 $452 6.2831853071795862 $349 $453 forward 7 unknown #
vertex $-1 $265 $454 #
ellipse-curve $-1 0 0 -0.42000000000000004 0 0 -1 0.156 0 0 1 I I #
coedge $-1 $353 $353 $269 $354 forward $266 $-1 #
edge $-1 $455 0 $455 6.2831853071795862 $353 $456 forward 7 unknown #
vertex $-1 $270 $457 #
ellipse-curve $-1 0 0 -0.42000000000000004 0 0 -1 0.156 0 0 1 I I #
coedge $-1 $357 $357 $274 $358 forward $271 $-1 #
edge $-1 $458 0 $458 6.2831853071795862 $357 $459 forward 7 unknown #
vertex $-1 $275 $460 #
ellipse-curve $-1 0 0 -0.42000000000000004 0 0 -1 0.156 0 0 1 I I #
model_id-kcp-attrib $-1 $-1 $-1 $277 1 990551139 100 -580648959 7 #
face $461 $462 $395 $16 $-1 $279 reversed single #
loop $-1 $-1 $463 $277 #
coedge $-1 $365 $280 $288 $382 reversed $209 $-1 #
coedge $-1 $280 $364 $464 $465 reversed $209 $-1 #
coedge $-1 $466 $285 $280 $367 reversed $379 $-1 #
edge $-1 $467 -1.1810355939974222 $290 0 $280 $468 forward 7 unknown #
coedge $-1 $282 $281 $287 $381 reversed $151 $-1 #
coedge $-1 $469 $398 $281 $370 reversed $470 $-1 #
edge $-1 $376 -5.5499999999999998 $471 0 $281 $472 forward 7 unknown #
coedge $-1 $285 $473 $282 $372 reversed $379 $-1 #
edge $-1 $289 -2.3620711879948431 $377 0 $282 $474 forward 7 unknown #
coedge $-1 $475 $283 $476 $477 forward $375 $-1 #
coedge $-1 $283 $478 $469 $479 reversed $375 $-1 #
loop $-1 $-1 $374 $480 #
vertex $-1 $284 $481 #
vertex $-1 $284 $482 #
straight-curve $-1 2.7749999999999999 1.1399013115178001 0.65500000000000003 0 -1 0 I I #
loop $-1 $-1 $473 $483 #
ellipse-curve $-1 0 0 0.65500000000000003 0 0 -1 -3 0 0 1 I I #
edge $-1 $289 -5.6500986884822 $471 0 $368 $484 forward 7 unknown #
edge $-1 $485 -1.8600986884821999 $290 0 $364 $486 forward 7 unknown #
point $-1 -2.7749999999999999 1.1399013115178001 0.65500000000000003 #
point $-1 -2.7749999999999999 -1.1399013115178001 0.65500000000000003 #
coedge $-1 $388 $292 $487 $488 reversed $294 $-1 #
coedge $-1 $300 $489 $292 $387 forward $278 $-1 #
edge $-1 $490 -2.3620711879948431 $219 0 $386 $491 forward 7 unknown #
coedge $-1 $293 $385 $463 $492 reversed $294 $-1 #
coedge $-1 $394 $297 $293 $390 forward $395 $-1 #
edge $-1 $220 -1.1810355939974218 $493 3.3306690738754706e-016 $389 $494 forward 7 unknown #
face $495 $496 $497 $16 $-1 $498 forward single #
coedge $-1 $499 $464 $296 $393 forward $500 $-1 #
edge $501 $485 -1.3100000000000001 $396 0 $296 $502 forward 7 unknown #
coedge $-1 $297 $389 $499 $503 forward $395 $-1 #
loop $-1 $-1 $389 $362 #
vertex $-1 $503 $504 #
straight-curve $-1 -2.7749999999999999 -1.1399013115178001 -0.65500000000000003 -2.3874497229629802e-016 1 0 I I #
coedge $-1 $369 $505 $299 $399 reversed $470 $-1 #
edge $-1 $471 -1.3100000000000001 $401 0 $299 $506 forward 7 unknown #
coedge $-1 $489 $300 $505 $507 reversed $278 $-1 #
vertex $-1 $301 $508 #
straight-curve $-1 -2.7749999999999999 6.79 -0.65500000000000003 0 1 0 I I #
model_id-kcp-attrib $-1 $-1 $-1 $302 1 990551139 100 -580648959 10 #
face $509 $480 $500 $16 $-1 $510 forward single #
plane-surface $-1 -2.7749999999999999 6.79 -0.65500000000000003 -1 0 0 0 0 1 forward_v I I I I #
model_id-kcp-attrib $-1 $-1 $-1 $306 1 990551139 100 -580648958 7 #
face $511 $-1 $321 $80 $-1 $512 reversed single #
loop $-1 $-1 $423 $306 #
plane-surface $-1 0 10.505000000000001 0 0 -1 0 0 0 -1 forward_v I I I I #
coedge $-1 $513 $421 $424 $514 forward $307 $-1 #
coedge $-1 $427 $309 $310 $415 reversed $224 $-1 #
coedge $-1 $421 $513 $309 $413 reversed $307 $-1 #
edge $-1 $428 -1.4950000000000001 $515 1.4950000000000001 $412 $516 forward 7 unknown #
coedge $-1 $311 $310 $513 $517 forward $159 $-1 #
edge $-1 $419 -3.5 $515 3.5 $411 $518 forward 7 unknown #
coedge $-1 $424 $423 $311 $417 reversed $408 $-1 #
edge $-1 $519 -3.5 $418 3.5 $416 $520 forward 7 unknown #
vertex $-1 $313 $521 #
vertex $-1 $430 $522 #
straight-curve $-1 3.5 0 -1.4950000000000001 0 -1 0 I I #
coedge $-1 $410 $412 $314 $422 reversed $307 $-1 #
edge $-1 $425 -10.505000000000001 $428 10.505000000000001 $421 $523 forward 7 unknown #
coedge $-1 $416 $315 $320 $431 forward $408 $-1 #
coedge $-1 $315 $416 $410 $514 reversed $408 $-1 #
vertex $-1 $316 $524 #
straight-curve $-1 0 10.505000000000001 1.4950000000000001 -1 0 0 I I #
coedge $-1 $317 $411 $319 $430 reversed $224 $-1 #
vertex $-1 $422 $525 #
straight-curve $-1 0 -10.505000000000001 1.4950000000000001 1 0 0 I I #
edge $-1 $322 -1.4950000000000001 $419 1.4950000000000001 $319 $526 forward 7 unknown #
edge $-1 $323 -1.4950000000000001 $418 1.4950000000000001 $320 $527 forward 7 unknown #
point $-1 3.5 -10.505000000000001 1.4950000000000001 #
point $-1 3.5 10.505000000000001 1.4950000000000001 #
vertex $-1 $326 $528 #
ellipse-curve $-1 0 0 1.4950000000000003 0 0 1 2 0 0 1 I I #
point $-1 2 0 -1.4950000000000003 #
vertex $-1 $330 $529 #
ellipse-curve $-1 0 0 0.4200000000000001 0 0 1 0.156 0 0 1 I I #
point $-1 0.156 0 -0.4200000000000001 #
vertex $-1 $334 $530 #
ellipse-curve $-1 0 0 0.42000000000000004 0 0 1 0.156 0 0 1 I I #
point $-1 0.156 0 -0.42000000000000004 #
vertex $-1 $338 $531 #
ellipse-curve $-1 0 0 0.41999999999999998 0 0 1 0.156 0 0 1 I I #
point $-1 0.156 0 -0.41999999999999998 #
vertex $-1 $342 $532 #
ellipse-curve $-1 0 0 0.42000000000000004 0 0 1 0.156 0 0 1 I I #
point $-1 0.156 0 -0.42000000000000004 #
vertex $-1 $346 $533 #
ellipse-curve $-1 0 0 0.42000000000000004 0 0 1 0.156 0 0 1 I I #
point $-1 0.156 0 -0.42000000000000004 #
vertex $-1 $350 $534 #
ellipse-curve $-1 0 0 0.42000000000000004 0 0 1 0.156 0 0 1 I I #
point $-1 0.156 0 -0.42000000000000004 #
vertex $-1 $354 $535 #
ellipse-curve $-1 0 0 0.42000000000000004 0 0 1 0.156 0 0 1 I I #
point $-1 0.156 0 -0.42000000000000004 #
vertex $-1 $358 $536 #
ellipse-curve $-1 0 0 0.42000000000000004 0 0 1 0.156 0 0 1 I I #
point $-1 0.156 0 -0.42000000000000004 #
model_id-kcp-attrib $-1 $-1 $-1 $362 1 990551139 100 -580648959 8 #
face $537 $302 $538 $16 $-1 $152 forward single #
coedge $-1 $539 $540 $388 $492 forward $363 $-1 #
coedge $-1 $392 $541 $365 $465 forward $500 $-1 #
edge $542 $467 -2.7750000000000017 $485 0 $365 $543 forward 7 unknown #
coedge $-1 $473 $366 $544 $545 reversed $379 $-1 #
vertex $-1 $367 $546 #
ellipse-curve $-1 0 0 0.65500000000000003 0 0 -1 -2.7750000000000004 -1.1399013115178003 0 1 I I #
coedge $-1 $505 $369 $374 $479 forward $470 $-1 #
loop $-1 $-1 $505 $547 #
vertex $-1 $370 $548 #
straight-curve $-1 -2.7749999999999999 6.79 0.65500000000000003 -1 0 0 I I #
coedge $-1 $371 $466 $549 $550 reversed $379 $-1 #
ellipse-curve $-1 0 0 0.65500000000000003 0 0 -1 2.7750000000000004 1.1399013115178003 0 1 I I #
coedge $-1 $551 $373 $552 $553 forward $375 $-1 #
coedge $-1 $549 $549 $373 $477 reversed $554 $-1 #
edge $-1 $377 -2.2798026230356001 $555 0 $373 $556 forward 7 unknown #
coedge $-1 $374 $557 $489 $558 reversed $375 $-1 #
edge $-1 $376 -1.3100000000000001 $559 0 $374 $560 forward 7 unknown #
face $561 $562 $375 $16 $-1 $563 forward single #
point $-1 2.7749999999999999 6.79 0.65500000000000003 #
point $-1 2.7749999999999999 1.1399013115178001 0.65500000000000003 #
face $564 $565 $566 $16 $-1 $567 forward single #
straight-curve $-1 -2.7749999999999999 6.79 0.65500000000000003 2.35795461814859e-016 1 0 I I #
vertex $-1 $382 $568 #
straight-curve $-1 -2.7749999999999999 -1.1399013115178001 0.65500000000000003 -2.3874497229629802e-016 1 0 I I #
coedge $-1 $569 $569 $385 $488 forward $570 $-1 #
edge $-1 $571 -0.38976073279747492 $490 0.38976073279747492 $487 $572 forward 7 unknown #
coedge $-1 $386 $400 $478 $558 forward $278 $-1 #
vertex $-1 $558 $573 #
ellipse-curve $-1 0 0 -0.65500000000000003 0 0 1 -2.7750000000000004 1.1399013115178003 0 1 I I #
edge $-1 $493 -1.1810355939974213 $571 0 $463 $574 forward 7 unknown #
vertex $-1 $492 $575 #
ellipse-curve $-1 0 0 -0.65500000000000003 0 0 1 0 -3 0 1 I I #
model_id-kcp-attrib $-1 $-1 $-1 $391 1 990551139 100 -580648959 18 #
face $576 $547 $577 $16 $-1 $578 reversed single #
loop $-1 $294 $579 $391 #
cone-surface $-1 0 0 -0.65500000000000003 0 0 -1 -3 0 0 1 I I 0 1 3 forward I I I I #
coedge $-1 $580 $392 $394 $503 reversed $500 $-1 #
loop $-1 $-1 $499 $404 #
attrib_edge_convexity-kcp-attrib $-1 $581 $-1 $393 1 #
straight-curve $-1 -2.7749999999999999 -3 -0.65500000000000003 0 0 -1 I I #
edge $582 $493 -2.7750000000000008 $396 0 $394 $583 forward 7 unknown #
point $-1 -2.7749999999999999 -3 -0.65500000000000003 #
coedge $-1 $398 $469 $400 $507 forward $470 $-1 #
straight-curve $-1 -2.7749999999999999 6.79 -0.65500000000000003 0 0 -1 I I #
edge $-1 $559 -5.5499999999999998 $401 0 $400 $584 forward 7 unknown #
point $-1 -2.7749999999999999 6.79 -0.65500000000000003 #
model_id-kcp-attrib $-1 $-1 $-1 $404 1 990551139 100 -580648959 11 #
plane-surface $-1 -2.7749999999999999 -3 -0.65500000000000003 0 -1 0 0 0 -1 forward_v I I I I #
model_id-kcp-attrib $-1 $-1 $-1 $407 1 990551139 100 -580648958 6 #
plane-surface $-1 3.5 0 0 -1 0 0 0 0 1 forward_v I I I I #
coedge $-1 $412 $410 $414 $517 reversed $307 $-1 #
edge $-1 $425 -1.4950000000000001 $519 1.4950000000000001 $424 $585 forward 7 unknown #
vertex $-1 $517 $586 #
straight-curve $-1 -3.5 -10.505000000000001 0 0 0 -1 I I #
edge $-1 $515 -10.505000000000001 $519 10.505000000000001 $513 $587 forward 7 unknown #
straight-curve $-1 0 -10.505000000000001 -1.4950000000000001 -1 0 0 I I #
vertex $-1 $417 $588 #
straight-curve $-1 0 10.505000000000001 -1.4950000000000001 1 0 0 I I #
point $-1 3.5 10.505000000000001 -1.4950000000000001 #
point $-1 3.5 -10.505000000000001 -1.4950000000000001 #
straight-curve $-1 -3.5 0 1.4950000000000001 0 -1 0 I I #
point $-1 -3.5 10.505000000000001 1.4950000000000001 #
point $-1 -3.5 -10.505000000000001 1.4950000000000001 #
straight-curve $-1 3.5 -10.505000000000001 0 0 0 -1 I I #
straight-curve $-1 3.5 10.505000000000001 0 0 0 -1 I I #
point $-1 2 0 1.4950000000000003 #
point $-1 0.156 0 0.4200000000000001 #
point $-1 0.156 0 0.42000000000000004 #
point $-1 0.156 0 0.41999999999999998 #
point $-1 0.156 0 0.42000000000000004 #
point $-1 0.156 0 0.42000000000000004 #
point $-1 0.156 0 0.42000000000000004 #
point $-1 0.156 0 0.42000000000000004 #
point $-1 0.156 0 0.42000000000000004 #
model_id-kcp-attrib $-1 $-1 $-1 $462 1 990551139 100 -580648959 9 #
loop $-1 $-1 $544 $462 #
coedge $-1 $540 $463 $589 $590 forward $363 $-1 #
coedge $-1 $463 $539 $580 $591 forward $363 $-1 #
coedge $-1 $464 $592 $593 $594 forward $500 $-1 #
attrib_edge_convexity-kcp-attrib $-1 $595 $-1 $465 1 #
straight-curve $-1 -2.7749999999999999 -3 0.65500000000000003 -1 3.2006429538743201e-016 0 I I #
coedge $-1 $593 $552 $466 $545 forward $538 $-1 #
edge $-1 $555 -1.1810355939974218 $467 -5.5511151231257669e-016 $544 $596 forward 7 unknown #
point $-1 1.6653345369377301e-015 -3 0.65500000000000003 #
face $597 $598 $599 $16 $-1 $600 reversed single #
point $-1 -2.7749999999999999 6.79 0.65500000000000003 #
coedge $-1 $476 $476 $473 $550 forward $554 $-1 #
edge $-1 $377 -0.38976073279747492 $555 0.38976073279747492 $549 $601 forward 7 unknown #
coedge $-1 $589 $475 $592 $602 forward $375 $-1 #
coedge $-1 $544 $593 $475 $553 reversed $538 $-1 #
edge $-1 $555 -1.8600986884821999 $603 0 $552 $604 forward 7 unknown #
loop $-1 $-1 $476 $562 #
vertex $-1 $545 $605 #
straight-curve $-1 2.7749999999999999 -1.1399013115178001 0.65500000000000003 1.9479283222279599e-016 -1 0 I I #
coedge $-1 $478 $589 $569 $606 reversed $375 $-1 #
edge $-1 $559 -5.6500986884822 $490 0 $489 $607 forward 7 unknown #
vertex $-1 $507 $608 #
straight-curve $-1 2.7749999999999999 6.79 -0.65500000000000003 0 0 -1 I I #
model_id-kcp-attrib $-1 $-1 $-1 $480 1 990551139 100 -580648959 12 #
face $609 $610 $554 $16 $-1 $116 reversed single #
plane-surface $-1 2.7749999999999999 -3 -0.65500000000000003 1 0 0 0 0 -1 forward_v I I I I #
model_id-kcp-attrib $-1 $-1 $-1 $483 1 990551139 100 -580648959 15 #
face $611 $612 $570 $16 $-1 $102 reversed single #
loop $-1 $379 $613 $483 #
cone-surface $-1 0 0 0.65500000000000003 0 0 1 3 0 0 1 I I 0 1 3 forward I I I I #
point $-1 -2.7749999999999999 -3 0.65500000000000003 #
coedge $-1 $487 $487 $557 $606 forward $570 $-1 #
loop $-1 $-1 $569 $565 #
vertex $-1 $492 $614 #
ellipse-curve $-1 0 0 -0.65500000000000003 0 0 1 3 0 0 1 I I #
point $-1 2.7749999999999999 1.1399013115178001 -0.65500000000000003 #
ellipse-curve $-1 0 0 -0.65500000000000003 0 0 1 2.7750000000000004 -1.1399013115178003 0 1 I I #
point $-1 9.9920072216264108e-016 -3 -0.65500000000000003 #
model_id-kcp-attrib $-1 $-1 $-1 $496 1 990551139 100 -580648959 19 #
loop $-1 $615 $616 $496 #
cone-surface $-1 0 0 1.4950000000000001 0 0 -1 -2 0 0 1 I I 0 1 2 forward I I I I #
coedge $-1 $579 $579 $617 $618 forward $497 $-1 #
coedge $-1 $592 $499 $540 $591 reversed $500 $-1 #
convexity-sys-attrib $-1 $-1 $501 $393 #
attrib_edge_convexity-kcp-attrib $-1 $619 $-1 $503 1 #
straight-curve $-1 -2.7749999999999999 -3 -0.65500000000000003 -1 -3.2006429538743201e-016 0 I I #
straight-curve $-1 -2.7749999999999999 6.79 -0.65500000000000003 -1 0 0 I I #
straight-curve $-1 -3.5 10.505000000000001 0 0 0 -1 I I #
point $-1 -3.5 -10.505000000000001 -1.4950000000000001 #
straight-curve $-1 -3.5 0 -1.4950000000000001 0 1 0 I I #
point $-1 -3.5 10.505000000000001 -1.4950000000000001 #
coedge $-1 $557 $551 $539 $590 reversed $375 $-1 #
edge $-1 $571 -1.8600986884821999 $620 0 $539 $621 forward 7 unknown #
edge $622 $620 -2.774999999999999 $493 0 $540 $623 forward 7 unknown #
coedge $-1 $541 $580 $551 $602 reversed $500 $-1 #
coedge $-1 $552 $544 $541 $594 reversed $538 $-1 #
edge $624 $603 -2.7749999999999981 $467 0 $593 $625 forward 7 unknown #
convexity-sys-attrib $-1 $-1 $542 $465 #
ellipse-curve $-1 0 0 0.65500000000000003 0 0 -1 0 -3 0 1 I I #
model_id-kcp-attrib $-1 $-1 $-1 $547 1 990551139 100 -580648959 20 #
face $626 $627 $628 $16 $-1 $629 forward single #
loop $-1 $470 $630 $547 #
plane-surface $-1 2.7749999999999999 6.79 -0.65500000000000003 0 1 0 0 0 1 forward_v I I I I #
ellipse-curve $-1 0 0 0.65500000000000003 0 0 -1 3 0 0 1 I I #
edge $631 $603 -1.3100000000000001 $620 0 $592 $632 forward 7 unknown #
vertex $-1 $594 $633 #
straight-curve $-1 2.7749999999999999 -3 0.65500000000000003 -2.3874497229629802e-016 -1 0 I I #
point $-1 2.7749999999999999 -1.1399013115178001 0.65500000000000003 #
edge $-1 $490 -2.2798026230356001 $571 0 $557 $634 forward 7 unknown #
straight-curve $-1 2.7749999999999999 1.1399013115178001 -0.65500000000000003 2.35795461814859e-016 -1 0 I I #
point $-1 2.7749999999999999 6.79 -0.65500000000000003 #
model_id-kcp-attrib $-1 $-1 $-1 $562 1 990551139 100 -580648959 13 #
face $635 $483 $636 $16 $-1 $637 forward single #
model_id-kcp-attrib $-1 $-1 $-1 $565 1 990551139 100 -580648959 16 #
face $638 $391 $639 $16 $-1 $640 forward single #
coedge $-1 $613 $613 $641 $642 forward $566 $-1 #
point $-1 2.7749999999999999 -1.1399013115178001 -0.65500000000000003 #
loop $-1 $-1 $643 $496 #
coedge $-1 $616 $616 $644 $645 reversed $577 $-1 #
coedge $-1 $617 $617 $579 $618 reversed $639 $-1 #
edge $-1 $646 0 $646 6.2831853071795862 $617 $647 forward 7 unknown #
convexity-sys-attrib $-1 $-1 $582 $503 #
vertex $-1 $590 $648 #
straight-curve $-1 2.7749999999999999 -3 -0.65500000000000003 -2.3874497229629699e-016 -1 0 I I #
attrib_edge_convexity-kcp-attrib $-1 $649 $-1 $591 1 #
straight-curve $-1 9.9920072216264108e-016 -3 -0.65500000000000003 -1 3.2006429538743299e-016 0 I I #
attrib_edge_convexity-kcp-attrib $-1 $650 $-1 $594 1 #
straight-curve $-1 1.6653345369377301e-015 -3 0.65500000000000003 -1 -3.2006429538743299e-016 0 I I #
model_id-kcp-attrib $-1 $-1 $-1 $598 1 990551139 100 -580648959 21 #
face $651 $652 $653 $16 $-1 $654 forward single #
loop $-1 $655 $656 $598 #
plane-surface $-1 2.7749999999999999 8.7899999999999991 -0.65500000000000003 0 1 0 0 0 1 forward_v I I I I #
coedge $-1 $657 $658 $659 $660 forward $599 $-1 #
attrib_edge_convexity-kcp-attrib $-1 $661 $-1 $602 1 #
straight-curve $-1 2.7749999999999999 -3 -0.65500000000000003 0 0 -1 I I #
point $-1 2.7749999999999999 -3 0.65500000000000003 #
straight-curve $-1 2.7749999999999999 -1.1399013115178001 -0.65500000000000003 -3.8958566444559198e-016 -1 0 I I #
model_id-kcp-attrib $-1 $662 $-1 $610 1 990551139 100 -580648959 46 #
loop $-1 $663 $641 $610 #
plane-surface $-1 0 0 1.4950000000000001 0 0 1 1 0 0 forward_v I I I I #
model_id-kcp-attrib $-1 $664 $-1 $612 1 990551139 100 -580648959 47 #
loop $-1 $665 $617 $612 #
plane-surface $-1 0 0 -1.4950000000000001 0 0 -1 -1 0 0 forward_v I I I I #
coedge $-1 $641 $641 $613 $642 reversed $636 $-1 #
edge $666 $667 0 $667 6.2831853071795862 $641 $668 forward 7 unknown #
coedge $-1 $643 $643 $669 $670 forward $615 $-1 #
coedge $-1 $644 $644 $616 $645 forward $665 $-1 #
edge $671 $672 -3.1415926535897931 $672 3.1415926535897931 $644 $673 forward 7 unknown #
vertex $-1 $618 $674 #
ellipse-curve $-1 0 0 -1.4950000000000001 0 0 1 -3 0 0 1 I I #
point $-1 2.7749999999999999 -3 -0.65500000000000003 #
convexity-sys-attrib $-1 $-1 $622 $591 #
convexity-sys-attrib $-1 $-1 $624 $594 #
model_id-kcp-attrib $-1 $-1 $-1 $627 1 990551139 100 -580648959 22 #
face $675 $676 $677 $16 $-1 $678 forward single #
loop $-1 $-1 $659 $627 #
plane-surface $-1 -3.5 6.79 -1.47 -1 0 0 0 0 1 forward_v I I I I #
loop $-1 $-1 $679 $598 #
coedge $-1 $680 $681 $682 $683 reversed $628 $-1 #
coedge $-1 $684 $630 $685 $686 forward $599 $-1 #
coedge $-1 $630 $684 $687 $688 forward $599 $-1 #
coedge $-1 $689 $690 $630 $660 reversed $653 $-1 #
edge $691 $692 -2.9399999999999999 $693 0 $630 $694 forward 7 unknown #
convexity-sys-attrib $-1 $-1 $631 $602 #
model_id-kcp-attrib $-1 $-1 $635 $610 1 990551139 100 -580648959 14 #
loop $-1 $695 $669 $610 #
model_id-kcp-attrib $-1 $-1 $638 $612 1 990551139 100 -580648959 17 #
loop $-1 $696 $644 $612 #
attrib_edge_convexity-kcp-attrib $-1 $697 $-1 $642 1 #
vertex $-1 $642 $698 #
ellipse-curve $-1 0 0 1.4950000000000001 0 0 -1 3 0 0 1 I I #
coedge $-1 $669 $669 $643 $670 reversed $663 $-1 #
edge $699 $700 0 $700 6.2831853071795862 $669 $701 forward 7 unknown #
attrib_edge_convexity-kcp-attrib $-1 $702 $-1 $645 1 #
vertex $-1 $645 $703 #
ellipse-curve $-1 0 0 -1.4950000000000001 0 0 1 2 0 0 1 I I #
point $-1 -3 0 -1.4950000000000001 #
model_id-kcp-attrib $-1 $-1 $-1 $652 1 990551139 100 -580648959 23 #
face $704 $705 $706 $16 $-1 $707 forward single #
loop $-1 $-1 $687 $652 #
plane-surface $-1 -3.5 6.79 1.47 0 0 1 1 0 0 forward_v I I I I #
coedge $-1 $679 $679 $708 $709 forward $655 $-1 #
coedge $-1 $710 $656 $711 $712 reversed $628 $-1 #
coedge $-1 $656 $710 $713 $714 reversed $628 $-1 #
coedge $-1 $690 $689 $656 $683 forward $653 $-1 #
edge $715 $716 -2.9399999999999999 $717 0 $656 $718 forward 7 unknown #
coedge $-1 $658 $657 $719 $720 forward $599 $-1 #
coedge $-1 $721 $722 $657 $686 reversed $723 $-1 #
edge $-1 $693 -7 $724 0 $657 $725 forward 7 unknown #
coedge $-1 $726 $727 $658 $688 reversed $677 $-1 #
edge $-1 $728 -7 $692 0 $658 $729 forward 7 unknown #
coedge $-1 $682 $659 $727 $730 reversed $653 $-1 #
coedge $-1 $659 $682 $721 $731 forward $653 $-1 #
attrib_edge_convexity-kcp-attrib $-1 $732 $-1 $660 1 #
vertex $-1 $660 $733 #
vertex $-1 $660 $734 #
straight-curve $-1 -3.5 6.79 -1.47 0 0 -1 I I #
loop $-1 $735 $736 $610 #
loop $-1 $737 $738 $612 #
convexity-sys-attrib $-1 $-1 $666 $642 #
point $-1 3 0 1.4950000000000001 #
attrib_edge_convexity-kcp-attrib $-1 $739 $-1 $670 1 #
vertex $-1 $670 $740 #
ellipse-curve $-1 0 0 1.4950000000000001 0 0 1 -2 0 0 1 I I #
convexity-sys-attrib $-1 $-1 $671 $645 #
point $-1 -2 0 -1.4950000000000001 #
model_id-kcp-attrib $-1 $-1 $-1 $676 1 990551139 100 -580648959 24 #
face $741 $742 $723 $16 $-1 $743 forward single #
loop $-1 $-1 $719 $676 #
plane-surface $-1 3.5 6.79 1.47 1 0 0 0 0 -1 forward_v I I I I #
coedge $-1 $708 $708 $679 $709 reversed $744 $-1 #
edge $-1 $745 -3.1415926535897931 $745 3.1415926535897931 $679 $746 forward 7 unknown #
coedge $-1 $681 $680 $747 $748 reversed $628 $-1 #
coedge $-1 $727 $726 $680 $712 forward $677 $-1 #
edge $-1 $749 -7 $716 0 $680 $750 forward 7 unknown #
coedge $-1 $722 $721 $681 $714 forward $723 $-1 #
edge $-1 $717 -7 $751 0 $681 $752 forward 7 unknown #
attrib_edge_convexity-kcp-attrib $-1 $753 $-1 $683 1 #
vertex $-1 $683 $754 #
vertex $-1 $683 $755 #
straight-curve $-1 -3.5 8.7899999999999991 -1.47 0 0 -1 I I #
coedge $-1 $756 $757 $684 $720 reversed $706 $-1 #
edge $-1 $724 -2.9399999999999999 $728 0 $684 $758 forward 7 unknown #
coedge $-1 $713 $685 $690 $731 reversed $723 $-1 #
coedge $-1 $685 $713 $756 $759 forward $723 $-1 #
loop $-1 $-1 $685 $705 #
vertex $-1 $686 $760 #
straight-curve $-1 3.5 6.79 -1.47 1 0 0 I I #
coedge $-1 $711 $687 $757 $761 reversed $677 $-1 #
coedge $-1 $687 $711 $689 $730 forward $677 $-1 #
vertex $-1 $720 $762 #
straight-curve $-1 -3.5 6.79 1.47 -1 0 0 I I #
edge $763 $716 -1.9999999999999991 $692 0 $689 $764 forward 7 unknown #
edge $765 $717 -1.9999999999999991 $693 0 $690 $766 forward 7 unknown #
convexity-sys-attrib $-1 $-1 $691 $660 #
point $-1 -3.5 6.79 1.47 #
point $-1 -3.5 6.79 -1.47 #
loop $-1 $767 $768 $610 #
coedge $-1 $736 $736 $769 $770 reversed $695 $-1 #
loop $-1 $771 $772 $612 #
coedge $-1 $738 $738 $773 $774 reversed $696 $-1 #
convexity-sys-attrib $-1 $-1 $699 $670 #
point $-1 -2 0 1.4950000000000001 #
model_id-kcp-attrib $-1 $-1 $-1 $705 1 990551139 100 -580648959 25 #
face $775 $776 $777 $16 $-1 $778 reversed single #
plane-surface $-1 3.5 6.79 -1.47 0 0 -1 -1 0 0 forward_v I I I I #
loop $-1 $-1 $708 $779 #
vertex $-1 $709 $780 #
ellipse-curve $-1 2 8.7899999999999991 0 0 -1 0 1.25 0 0 1 I I #
coedge $-1 $757 $756 $710 $748 forward $706 $-1 #
edge $-1 $751 -2.9399999999999999 $749 0 $710 $781 forward 7 unknown #
vertex $-1 $712 $782 #
straight-curve $-1 -3.5 8.7899999999999991 1.47 -1 0 0 I I #
vertex $-1 $748 $783 #
straight-curve $-1 3.5 8.7899999999999991 -1.47 1 0 0 I I #
convexity-sys-attrib $-1 $-1 $715 $683 #
point $-1 -3.5 8.7899999999999991 1.47 #
point $-1 -3.5 8.7899999999999991 -1.47 #
coedge $-1 $747 $719 $722 $759 reversed $706 $-1 #
coedge $-1 $719 $747 $726 $761 forward $706 $-1 #
straight-curve $-1 3.5 6.79 1.47 0 0 1 I I #
edge $-1 $751 -1.9999999999999991 $724 0 $756 $784 forward 7 unknown #
point $-1 3.5 6.79 -1.47 #
edge $-1 $749 -1.9999999999999991 $728 0 $726 $785 forward 7 unknown #
point $-1 3.5 6.79 1.47 #
attrib_edge_convexity-kcp-attrib $-1 $786 $-1 $730 1 #
straight-curve $-1 -3.5 6.79 1.47 0 -1 0 I I #
attrib_edge_convexity-kcp-attrib $-1 $787 $-1 $731 1 #
straight-curve $-1 -3.5 6.79 -1.47 0 -1 0 I I #
loop $-1 $788 $789 $610 #
coedge $-1 $768 $768 $790 $791 reversed $735 $-1 #
coedge $-1 $769 $769 $736 $770 forward $792 $-1 #
edge $793 $794 0 $794 6.2831853071795862 $736 $795 forward 7 unknown #
loop $-1 $796 $797 $612 #
coedge $-1 $772 $772 $798 $799 reversed $737 $-1 #
coedge $-1 $773 $773 $738 $774 forward $800 $-1 #
edge $801 $802 0 $802 6.2831853071795862 $738 $803 forward 7 unknown #
model_id-kcp-attrib $-1 $-1 $-1 $742 1 990551139 100 -580648959 26 #
face $804 $805 $806 $16 $-1 $807 reversed single #
loop $-1 $-1 $808 $742 #
plane-surface $-1 0.5 -2.5150000000000001 0.65500000000000003 0 0 -1 -1 0 0 forward_v I I I I #
face $809 $810 $811 $16 $-1 $812 forward single #
point $-1 0.75 8.7899999999999991 0 #
straight-curve $-1 3.5 8.7899999999999991 1.47 0 0 1 I I #
point $-1 3.5 8.7899999999999991 1.47 #
point $-1 3.5 8.7899999999999991 -1.47 #
straight-curve $-1 3.5 6.79 -1.47 0 -1 0 I I #
straight-curve $-1 3.5 6.79 1.47 0 -1 0 I I #
convexity-sys-attrib $-1 $-1 $763 $730 #
convexity-sys-attrib $-1 $-1 $765 $731 #
loop $-1 $-1 $813 $610 #
coedge $-1 $789 $789 $814 $815 reversed $767 $-1 #
coedge $-1 $790 $790 $768 $791 forward $816 $-1 #
edge $817 $818 0 $818 6.2831853071795862 $768 $819 forward 7 unknown #
loop $-1 $-1 $769 $776 #
attrib_edge_convexity-kcp-attrib $-1 $820 $-1 $770 1 #
vertex $-1 $770 $821 #
ellipse-curve $-1 0.5 -2.5150000000000001 1.4950000000000001 0 0 1 -0.156 0 0 1 I I #
loop $-1 $-1 $822 $612 #
coedge $-1 $797 $797 $823 $824 reversed $771 $-1 #
coedge $-1 $798 $798 $772 $799 forward $825 $-1 #
edge $826 $827 0 $827 6.2831853071795862 $772 $828 forward 7 unknown #
loop $-1 $-1 $773 $829 #
attrib_edge_convexity-kcp-attrib $-1 $830 $-1 $774 1 #
vertex $-1 $774 $831 #
ellipse-curve $-1 -1.4239999999999999 -2.1320000000000001 -1.4950000000000001 0 0 -1 0.156 0 0 1 I I #
model_id-kcp-attrib $-1 $-1 $-1 $776 1 990551139 100 -580648959 27 #
face $832 $833 $834 $16 $-1 $835 reversed single #
loop $-1 $792 $836 $776 #
cone-surface $-1 0.5 -2.5150000000000001 1.4950000000000001 0 0 -1 -0.156 0 0 1 I I 0 1 0.156 forward I I I I #
coedge $-1 $808 $808 $836 $837 forward $777 $-1 #
model_id-kcp-attrib $-1 $-1 $-1 $779 1 990551139 100 -580648959 43 #
face $838 $839 $840 $16 $-1 $841 forward single #
loop $-1 $744 $842 $779 #
cone-surface $-1 2 8.7899999999999991 0 0 1 0 -1.25 0 0 1 I I 0 1 1.25 forward I I I I #
coedge $-1 $813 $813 $843 $844 reversed $788 $-1 #
coedge $-1 $814 $814 $789 $815 forward $845 $-1 #
edge $846 $847 0 $847 6.2831853071795862 $789 $848 forward 7 unknown #
loop $-1 $-1 $790 $833 #
attrib_edge_convexity-kcp-attrib $-1 $849 $-1 $791 1 #
vertex $-1 $791 $850 #
ellipse-curve $-1 -0.5 -2.5150000000000001 1.4950000000000001 0 0 1 -0.156 0 0 1 I I #
convexity-sys-attrib $-1 $-1 $793 $770 #
point $-1 0.34399999999999997 -2.5150000000000001 1.4950000000000001 #
coedge $-1 $822 $822 $851 $852 reversed $796 $-1 #
coedge $-1 $823 $823 $797 $824 forward $853 $-1 #
edge $854 $855 0 $855 6.2831853071795862 $797 $856 forward 7 unknown #
loop $-1 $-1 $798 $857 #
attrib_edge_convexity-kcp-attrib $-1 $858 $-1 $799 1 #
vertex $-1 $799 $859 #
ellipse-curve $-1 -0.5 -2.5150000000000001 -1.4950000000000001 0 0 -1 0.156 0 0 1 I I #
face $860 $861 $862 $16 $-1 $863 reversed single #
convexity-sys-attrib $-1 $-1 $801 $774 #
point $-1 -1.268 -2.1320000000000001 -1.4950000000000001 #
model_id-kcp-attrib $-1 $-1 $-1 $805 1 990551139 100 -580648959 28 #
face $864 $865 $866 $16 $-1 $867 reversed single #
loop $-1 $-1 $868 $805 #
plane-surface $-1 -0.5 -2.5150000000000001 0.65500000000000003 0 0 -1 -1 0 0 forward_v I I I I #
coedge $-1 $836 $836 $808 $837 reversed $806 $-1 #
edge $869 $870 -3.1415926535897931 $870 3.1415926535897931 $808 $871 forward 7 unknown #
model_id-kcp-attrib $-1 $-1 $-1 $810 1 990551139 100 -580648959 44 #
face $872 $-1 $873 $16 $-1 $874 forward single #
loop $-1 $-1 $875 $810 #
plane-surface $-1 2.7749999999999999 18.010000000000002 -0.65500000000000003 0 1 0 0 0 1 forward_v I I I I #
coedge $-1 $842 $842 $876 $877 forward $811 $-1 #
coedge $-1 $843 $843 $813 $844 forward $878 $-1 #
edge $879 $880 0 $880 6.2831853071795862 $813 $881 forward 7 unknown #
loop $-1 $-1 $814 $882 #
attrib_edge_convexity-kcp-attrib $-1 $883 $-1 $815 1 #
vertex $-1 $815 $884 #
ellipse-curve $-1 1.4239999999999999 -2.1320000000000001 1.4950000000000001 0 0 1 -0.156 0 0 1 I I #
convexity-sys-attrib $-1 $-1 $817 $791 #
point $-1 -0.65600000000000003 -2.5150000000000001 1.4950000000000001 #
coedge $-1 $851 $851 $822 $852 forward $885 $-1 #
edge $886 $887 0 $887 6.2831853071795862 $822 $888 forward 7 unknown #
loop $-1 $-1 $823 $889 #
attrib_edge_convexity-kcp-attrib $-1 $890 $-1 $824 1 #
vertex $-1 $824 $891 #
ellipse-curve $-1 0.5 -2.5150000000000001 -1.4950000000000001 0 0 -1 0.156 0 0 1 I I #
face $892 $893 $894 $16 $-1 $895 reversed single #
convexity-sys-attrib $-1 $-1 $826 $799 #
point $-1 -0.34399999999999997 -2.5150000000000001 -1.4950000000000001 #
model_id-kcp-attrib $-1 $-1 $-1 $829 1 990551139 100 -580648959 35 #
face $896 $857 $897 $16 $-1 $898 reversed single #
loop $-1 $800 $899 $829 #
cone-surface $-1 -1.4239999999999999 -2.1320000000000001 -1.4950000000000001 0 0 1 0.156 0 0 1 I I 0 1 0.156 forward I I I I #
model_id-kcp-attrib $-1 $-1 $-1 $833 1 990551139 100 -580648959 29 #
face $900 $882 $901 $16 $-1 $902 reversed single #
loop $-1 $816 $903 $833 #
cone-surface $-1 -0.5 -2.5150000000000001 1.4950000000000001 0 0 -1 -0.156 0 0 1 I I 0 1 0.156 forward I I I I #
coedge $-1 $868 $868 $903 $904 forward $834 $-1 #
attrib_edge_convexity-kcp-attrib $-1 $905 $-1 $837 2 #
vertex $-1 $837 $906 #
ellipse-curve $-1 0.5 -2.5150000000000001 0.65500000000000003 0 0 1 0.156 0 0 1 I I #
model_id-kcp-attrib $-1 $-1 $-1 $839 1 990551139 100 -580648959 45 #
loop $-1 $907 $908 $839 #
cone-surface $-1 2.75 16.010000000000002 0 0 1 0 0.375 0 0 1 I I 0 1 0.375 forward I I I I #
coedge $-1 $875 $875 $908 $909 reversed $840 $-1 #
coedge $-1 $876 $876 $842 $877 reversed $910 $-1 #
edge $-1 $911 0 $911 6.2831853071795862 $876 $912 forward 7 unknown #
loop $-1 $-1 $843 $913 #
attrib_edge_convexity-kcp-attrib $-1 $914 $-1 $844 1 #
vertex $-1 $844 $915 #
ellipse-curve $-1 -1.4239999999999999 -2.1320000000000001 1.4950000000000001 0 0 1 -0.156 0 0 1 I I #
face $916 $917 $918 $16 $-1 $919 reversed single #
convexity-sys-attrib $-1 $-1 $846 $815 #
point $-1 1.268 -2.1320000000000001 1.4950000000000001 #
loop $-1 $-1 $851 $920 #
attrib_edge_convexity-kcp-attrib $-1 $921 $-1 $852 1 #
vertex $-1 $852 $922 #
ellipse-curve $-1 1.4239999999999999 -2.1320000000000001 -1.4950000000000001 0 0 -1 0.156 0 0 1 I I #
face $923 $924 $925 $16 $-1 $926 reversed single #
convexity-sys-attrib $-1 $-1 $854 $824 #
point $-1 0.65600000000000003 -2.5150000000000001 -1.4950000000000001 #
model_id-kcp-attrib $-1 $-1 $-1 $857 1 990551139 100 -580648959 37 #
face $927 $889 $928 $16 $-1 $929 reversed single #
loop $-1 $825 $930 $857 #
cone-surface $-1 -0.5 -2.5150000000000001 -1.4950000000000001 0 0 1 0.156 0 0 1 I I 0 1 0.156 forward I I I I #
model_id-kcp-attrib $-1 $-1 $-1 $861 1 990551139 100 -580648959 36 #
loop $-1 $-1 $931 $861 #
plane-surface $-1 -0.5 -2.5150000000000001 -0.65500000000000003 0 0 1 1 0 0 forward_v I I I I #
coedge $-1 $899 $899 $932 $933 reversed $862 $-1 #
model_id-kcp-attrib $-1 $-1 $-1 $865 1 990551139 100 -580648959 30 #
loop $-1 $-1 $934 $865 #
plane-surface $-1 1.4239999999999999 -2.1320000000000001 0.65500000000000003 0 0 -1 -1 0 0 forward_v I I I I #
coedge $-1 $903 $903 $868 $904 reversed $866 $-1 #
edge $935 $936 -3.1415926535897931 $936 3.1415926535897931 $868 $937 forward 7 unknown #
convexity-sys-attrib $-1 $-1 $869 $837 #
point $-1 0.34399999999999997 -2.5150000000000001 0.65500000000000003 #
loop $-1 $-1 $938 $839 #
coedge $-1 $908 $908 $875 $909 forward $873 $-1 #
edge $-1 $939 0 $939 6.2831853071795862 $875 $940 forward 7 unknown #
loop $-1 $941 $876 $942 #
vertex $-1 $877 $943 #
ellipse-curve $-1 2 16.010000000000002 0 0 -1 0 -1.25 0 0 1 I I #
face $944 $945 $946 $16 $-1 $947 reversed single #
convexity-sys-attrib $-1 $-1 $879 $844 #
point $-1 -1.5800000000000001 -2.1320000000000001 1.4950000000000001 #
model_id-kcp-attrib $-1 $-1 $-1 $882 1 990551139 100 -580648959 31 #
face $948 $913 $949 $16 $-1 $950 reversed single #
loop $-1 $845 $951 $882 #
cone-surface $-1 1.4239999999999999 -2.1320000000000001 1.4950000000000001 0 0 -1 -0.156 0 0 1 I I 0 1 0.156 forward I I I I #
face $952 $942 $953 $16 $-1 $954 reversed single #
convexity-sys-attrib $-1 $-1 $886 $852 #
point $-1 1.5800000000000001 -2.1320000000000001 -1.4950000000000001 #
model_id-kcp-attrib $-1 $-1 $-1 $889 1 990551139 100 -580648959 39 #
face $955 $920 $956 $16 $-1 $957 reversed single #
loop $-1 $853 $958 $889 #
cone-surface $-1 0.5 -2.5150000000000001 -1.4950000000000001 0 0 1 0.156 0 0 1 I I 0 1 0.156 forward I I I I #
model_id-kcp-attrib $-1 $-1 $-1 $893 1 990551139 100 -580648959 38 #
loop $-1 $-1 $959 $893 #
plane-surface $-1 0.5 -2.5150000000000001 -0.65500000000000003 0 0 1 1 0 0 forward_v I I I I #
coedge $-1 $930 $930 $931 $960 reversed $894 $-1 #
coedge $-1 $931 $931 $930 $960 forward $897 $-1 #
coedge $-1 $932 $932 $899 $933 forward $961 $-1 #
edge $962 $963 -3.1415926535897931 $963 3.1415926535897931 $932 $964 forward 7 unknown #
coedge $-1 $934 $934 $951 $965 forward $901 $-1 #
attrib_edge_convexity-kcp-attrib $-1 $966 $-1 $904 2 #
vertex $-1 $904 $967 #
ellipse-curve $-1 -0.5 -2.5150000000000001 0.65500000000000003 0 0 1 0.156 0 0 1 I I #
coedge $-1 $938 $938 $968 $969 reversed $907 $-1 #
vertex $-1 $909 $970 #
ellipse-curve $-1 2.75 18.010000000000002 0 0 -1 0 0.375 0 0 1 I I #
loop $-1 $-1 $968 $942 #
face $971 $779 $910 $16 $-1 $972 forward single #
point $-1 0.75 16.010000000000002 0 #
model_id-kcp-attrib $-1 $-1 $-1 $913 1 990551139 100 -580648959 33 #
face $973 $829 $961 $16 $-1 $974 reversed single #
loop $-1 $878 $975 $913 #
cone-surface $-1 -1.4239999999999999 -2.1320000000000001 1.4950000000000001 0 0 -1 -0.156 0 0 1 I I 0 1 0.156 forward I I I I #
model_id-kcp-attrib $-1 $-1 $-1 $917 1 990551139 100 -580648959 32 #
loop $-1 $-1 $976 $917 #
plane-surface $-1 -1.4239999999999999 -2.1320000000000001 0.65500000000000003 0 0 -1 -1 0 0 forward_v I I I I #
coedge $-1 $951 $951 $934 $965 reversed $918 $-1 #
model_id-kcp-attrib $-1 $-1 $-1 $920 1 990551139 100 -580648959 41 #
loop $-1 $885 $977 $920 #
cone-surface $-1 1.4239999999999999 -2.1320000000000001 -1.4950000000000001 0 0 1 0.156 0 0 1 I I 0 1 0.156 forward I I I I #
model_id-kcp-attrib $-1 $-1 $-1 $924 1 990551139 100 -580648959 40 #
loop $-1 $-1 $978 $924 #
plane-surface $-1 1.4239999999999999 -2.1320000000000001 -0.65500000000000003 0 0 1 1 0 0 forward_v I I I I #
coedge $-1 $958 $958 $959 $979 reversed $925 $-1 #
coedge $-1 $959 $959 $958 $979 forward $928 $-1 #
edge $980 $981 -3.1415926535897931 $981 3.1415926535897931 $931 $982 forward 7 unknown #
loop $-1 $-1 $932 $945 #
attrib_edge_convexity-kcp-attrib $-1 $983 $-1 $933 2 #
vertex $-1 $933 $984 #
ellipse-curve $-1 -1.4239999999999999 -2.1320000000000001 -0.65500000000000003 0 0 -1 -0.156 0 0 1 I I #
edge $985 $986 -3.1415926535897931 $986 3.1415926535897931 $934 $987 forward 7 unknown #
convexity-sys-attrib $-1 $-1 $935 $904 #
point $-1 -0.65600000000000003 -2.5150000000000001 0.65500000000000003 #
coedge $-1 $968 $968 $938 $969 forward $941 $-1 #
edge $-1 $988 -3.1415926535897931 $988 3.1415926535897931 $968 $989 forward 7 unknown #
point $-1 3.125 18.010000000000002 0 #
model_id-kcp-attrib $-1 $-1 $-1 $942 1 990551139 100 -580648959 42 #
plane-surface $-1 2.7749999999999999 16.010000000000002 -0.65500000000000003 0 1 0 0 0 1 forward_v I I I I #
model_id-kcp-attrib $-1 $-1 $-1 $945 1 990551139 100 -580648959 34 #
plane-surface $-1 -1.4239999999999999 -2.1320000000000001 -0.65500000000000003 0 0 1 1 0 0 forward_v I I I I #
coedge $-1 $975 $975 $976 $990 reversed $946 $-1 #
coedge $-1 $976 $976 $975 $990 forward $949 $-1 #
coedge $-1 $977 $977 $978 $991 reversed $953 $-1 #
coedge $-1 $978 $978 $977 $991 forward $956 $-1 #
edge $992 $993 -3.1415926535897931 $993 3.1415926535897931 $959 $994 forward 7 unknown #
attrib_edge_convexity-kcp-attrib $-1 $995 $-1 $960 2 #
vertex $-1 $960 $996 #
ellipse-curve $-1 -0.5 -2.5150000000000001 -0.65500000000000003 0 0 -1 -0.156 0 0 1 I I #
convexity-sys-attrib $-1 $-1 $962 $933 #
point $-1 -1.268 -2.1320000000000001 -0.65500000000000003 #
attrib_edge_convexity-kcp-attrib $-1 $997 $-1 $965 2 #
vertex $-1 $965 $998 #
ellipse-curve $-1 1.4239999999999999 -2.1320000000000001 0.65500000000000003 0 0 1 0.156 0 0 1 I I #
vertex $-1 $969 $999 #
ellipse-curve $-1 2.75 16.010000000000002 0 0 -1 0 -0.375 0 0 1 I I #
edge $1000 $1001 -3.1415926535897931 $1001 3.1415926535897931 $976 $1002 forward 7 unknown #
edge $1003 $1004 -3.1415926535897931 $1004 3.1415926535897931 $978 $1005 forward 7 unknown #
attrib_edge_convexity-kcp-attrib $-1 $1006 $-1 $979 2 #
vertex $-1 $979 $1007 #
ellipse-curve $-1 0.5 -2.5150000000000001 -0.65500000000000003 0 0 -1 -0.156 0 0 1 I I #
convexity-sys-attrib $-1 $-1 $980 $960 #
point $-1 -0.34399999999999997 -2.5150000000000001 -0.65500000000000003 #
convexity-sys-attrib $-1 $-1 $985 $965 #
point $-1 1.268 -2.1320000000000001 0.65500000000000003 #
point $-1 3.125 16.010000000000002 0 #
attrib_edge_convexity-kcp-attrib $-1 $1008 $-1 $990 2 #
vertex $-1 $990 $1009 #
ellipse-curve $-1 -1.4239999999999999 -2.1320000000000001 0.65500000000000003 0 0 1 0.156 0 0 1 I I #
attrib_edge_convexity-kcp-attrib $-1 $1010 $-1 $991 2 #
vertex $-1 $991 $1011 #
ellipse-curve $-1 1.4239999999999999 -2.1320000000000001 -0.65500000000000003 0 0 -1 -0.156 0 0 1 I I #
convexity-sys-attrib $-1 $-1 $992 $979 #
point $-1 0.65600000000000003 -2.5150000000000001 -0.65500000000000003 #
convexity-sys-attrib $-1 $-1 $1000 $990 #
point $-1 -1.5800000000000001 -2.1320000000000001 0.65500000000000003 #
convexity-sys-attrib $-1 $-1 $1003 $991 #
point $-1 1.5800000000000001 -2.1320000000000001 -0.65500000000000003 #
End-of-ACIS-data 