700 0 2 0           
24 FBMach with ACIS - 7.0.3 13 ACIS 7.0.3 NT 24 Tue May 14 09:20:05 2002 
1 9.9999999999999995e-007 1e-010 
body $2 -1 $-1 $3 $-1 $4 #
bdycol-kcp $-1 -1 1 1 $5 #
model_id-kcp-attrib $-1 -1 $-1 $-1 $0 1 1021382404 1021382405 -532152319 1 #
lump $-1 -1 $-1 $-1 $6 $0 #
transform $-1 -1 -1 0 0 0 0 1 0 1 0 0 -5.8925565098878963 50 1 rotate no_reflect no_shear #
body $7 -1 $-1 $8 $-1 $9 #
shell $-1 -1 $-1 $-1 $-1 $10 $-1 $3 #
model_id-kcp-attrib $-1 -1 $-1 $-1 $5 1 1021382404 1021382405 -532152318 1 #
lump $-1 -1 $-1 $-1 $11 $5 #
transform $-1 -1 1 0 0 0 1 0 0 0 1 0 0 11.785113019775793 1 no_rotate no_reflect no_shear #
face $12 -1 $-1 $13 $14 $6 $-1 $15 forward single #
shell $-1 -1 $-1 $-1 $-1 $16 $-1 $8 #
model_id-kcp-attrib $-1 -1 $-1 $-1 $10 1 1021382404 1021382405 -532152319 2 #
face $17 -1 $-1 $18 $19 $6 $-1 $20 forward single #
loop $-1 -1 $-1 $-1 $21 $10 #
plane-surface $-1 -1 $-1 30 0 25 -1 0 0 0 0 1 forward_v I I I I #
face $-1 -1 $-1 $22 $23 $11 $-1 $24 forward single #
model_id-kcp-attrib $-1 -1 $-1 $-1 $13 1 1021382404 1021382405 -532152319 3 #
face $25 -1 $-1 $26 $27 $6 $-1 $28 forward single #
loop $-1 -1 $-1 $-1 $29 $13 #
plane-surface $-1 -1 $-1 -30 0 25 1 0 0 0 0 -1 forward_v I I I I #
coedge $-1 -1 $-1 $30 $31 $32 $33 reversed $14 $-1 #
face $34 -1 $-1 $35 $36 $11 $-1 $37 reversed single #
loop $-1 -1 $-1 $-1 $38 $16 #
plane-surface $-1 -1 $-1 0 0 36.785113019775793 0 0 1 1 0 0 forward_v I I I I #
model_id-kcp-attrib $-1 -1 $-1 $-1 $18 1 1021382404 1021382405 -532152319 4 #
face $39 -1 $-1 $40 $41 $6 $-1 $28 forward single #
loop $-1 -1 $-1 $-1 $42 $18 #
plane-surface $-1 -1 $-1 0 -10 25 0 1 0 0 0 1 forward_v I I I I #
coedge $-1 -1 $-1 $43 $44 $45 $46 reversed $19 $-1 #
coedge $-1 -1 $-1 $47 $21 $48 $49 forward $14 $-1 #
coedge $-1 -1 $-1 $21 $47 $50 $51 reversed $14 $-1 #
coedge $-1 -1 $-1 $52 $53 $21 $33 forward $54 $55 #
edge $-1 -1 $-1 $56 -20.077709940086471 $57 0 $32 $58 forward @7 unknown #
model_id-kcp-attrib $-1 -1 $-1 $-1 $22 1 1021382404 1021382405 -532152318 2 #
face $59 -1 $-1 $60 $61 $11 $-1 $62 reversed single #
loop $-1 -1 $-1 $-1 $63 $22 #
plane-surface $-1 -1 $-1 0 0 -36.785113019775793 0 0 1 1 0 0 forward_v I I I I #
coedge $-1 -1 $-1 $64 $65 $66 $67 forward $23 $-1 #
model_id-kcp-attrib $-1 -1 $-1 $-1 $26 1 1021382404 1021382405 -532152319 5 #
face $68 -1 $-1 $69 $70 $6 $-1 $71 forward single #
loop $-1 -1 $-1 $-1 $72 $26 #
coedge $-1 -1 $-1 $73 $74 $75 $76 reversed $27 $-1 #
coedge $-1 -1 $-1 $77 $29 $74 $78 forward $19 $-1 #
coedge $-1 -1 $-1 $29 $77 $79 $80 reversed $19 $-1 #
coedge $-1 -1 $-1 $81 $75 $29 $46 forward $54 $82 #
edge $-1 -1 $-1 $83 -20.574839095361483 $84 0 $45 $85 forward @7 unknown #
coedge $-1 -1 $-1 $31 $30 $86 $87 forward $14 $-1 #
coedge $-1 -1 $-1 $88 $89 $30 $49 reversed $90 $-1 #
edge $-1 -1 $-1 $56 -0.016751140350500293 $91 25 $30 $92 forward @7 unknown #
coedge $-1 -1 $-1 $93 $72 $31 $51 forward $41 $-1 #
edge $-1 -1 $-1 $57 0.63576771065038429 $94 25 $31 $95 forward @7 unknown #
coedge $-1 -1 $-1 $96 $32 $72 $97 forward $54 $98 #
coedge $-1 -1 $-1 $32 $99 $88 $100 forward $54 $101 #
loop $-1 -1 $-1 $-1 $53 $102 #
pcurve $-1 -1 $-1 0 forward { exppc nubs 1 open 2 
	-20.077709940086471 1 -3.5527136788005009e-015 1 
	77.195541579016549 58.756915633395238 
	77.195541579016549 41.243084366604762 
	4.4103475761235171e-005 
	spline forward { exactsur full nubs 3 3 open open none none 3 3 
	0 3 50 1 100 3 
	0 3 50 1 100 3 
	-50 -50 25 
	-38.214886980224207 -50 36.785113019775793 
	0 -50.000000000000007 25.000000000000004 
	38.214886980224207 -50 13.214886980224207 
	50 -50 25 
	-50 -38.214886980224207 36.785113019775793 
	-38.214886980224207 -38.214886980224207 48.570226039551585 
	0 -38.214886980224207 34.820927516479827 
	38.214886980224207 -38.214886980224207 28.928371006591931 
	50 -38.214886980224207 36.785113019775793 
	-50.000000000000007 0 25.000000000000004 
	-38.214886980224207 0 34.820927516479827 
	0 0 13.214886980224211 
	38.214886980224207 0 15.179072483520176 
	50.000000000000007 0 13.214886980224211 
	-50 38.214886980224207 13.214886980224207 
	-38.214886980224207 38.214886980224207 28.928371006591931 
	0 38.214886980224207 15.179072483520176 
	38.214886980224207 38.214886980224207 40.713484026367723 
	50 38.214886980224207 36.785113019775793 
	-50 50 25 
	-38.214886980224207 50 36.785113019775793 
	0 50 13.214886980224211 
	38.214886980224207 50 36.785113019775793 
	50 50 25 
	0 
	0 
	0 
	1 50 
	0 
	0 
	1 50 
	F 1 F 0 F 1 F 0 } I I I I 
	} 0 0 #
vertex $-1 -1 $-1 $100 $103 #
vertex $-1 -1 $-1 $97 $104 #
intcurve-curve $-1 -1 $-1 forward { surfintcur full nubs 3 open 3 
	-20.077709940086471 3 -10.019637762242551 2 0 3 
	30.000000000000007 10.000000000000002 25.0167511403505 
	30.000000000000007 6.6941247939645994 24.482270936948414 
	30.000000000000007 3.3473569346142837 24.101510755519971 
	30.000000000000007 -3.334565844501161 23.898774918945708 
	30.000000000000007 -6.6727396167146864 24.074177512350982 
	30.000000000000007 -10 24.364232289349623 
	4.4103475761235171e-005 
	plane 30 0 25 1 0 0 0 0 1 reverse_v I I I I 
	spline forward { exactsur full nubs 3 3 open open none none 3 3 
	0 3 50 1 100 3 
	0 3 50 1 100 3 
	-50 -50 25 
	-38.214886980224207 -50 36.785113019775793 
	0 -50.000000000000007 25.000000000000004 
	38.214886980224207 -50 13.214886980224207 
	50 -50 25 
	-50 -38.214886980224207 36.785113019775793 
	-38.214886980224207 -38.214886980224207 48.570226039551585 
	0 -38.214886980224207 34.820927516479827 
	38.214886980224207 -38.214886980224207 28.928371006591931 
	50 -38.214886980224207 36.785113019775793 
	-50.000000000000007 0 25.000000000000004 
	-38.214886980224207 0 34.820927516479827 
	0 0 13.214886980224211 
	38.214886980224207 0 15.179072483520176 
	50.000000000000007 0 13.214886980224211 
	-50 38.214886980224207 13.214886980224207 
	-38.214886980224207 38.214886980224207 28.928371006591931 
	0 38.214886980224207 15.179072483520176 
	38.214886980224207 38.214886980224207 40.713484026367723 
	50 38.214886980224207 36.785113019775793 
	-50 50 25 
	-38.214886980224207 50 36.785113019775793 
	0 50.000000000000007 13.214886980224211 
	38.214886980224207 50 36.785113019775793 
	50 50 25 
	0 
	0 
	0 
	1 50 
	0 
	0 
	1 50 
	F 1 F 0 F 1 F 0 } I I I I 
	nullbs 
	nubs 3 open 3 
	-20.077709940086471 3 -10.019637762242551 3 0 3 
	77.195541579016549 58.756915633395238 
	77.195541579016549 55.839440221970158 
	77.195541579016549 52.917557789483773 
	77.195541579016549 50 
	77.195541579016549 47.080541526398967 
	77.195541579016549 44.165849803992018 
	77.195541579016549 41.243084366604762 
	
	I I 
	0 
	0 
	1 -10.019637762242551 
	} I I #
model_id-kcp-attrib $-1 -1 $-1 $-1 $35 1 1021382404 1021382405 -532152318 3 #
face $105 -1 $-1 $106 $107 $11 $-1 $108 reversed single #
loop $-1 -1 $-1 $-1 $109 $35 #
plane-surface $-1 -1 $-1 0 -50.000000000000007 0 0 1 0 0 0 1 forward_v I I I I #
coedge $-1 -1 $-1 $110 $111 $112 $113 forward $36 $-1 #
coedge $-1 -1 $-1 $114 $38 $115 $116 forward $23 $-1 #
coedge $-1 -1 $-1 $38 $114 $117 $118 forward $23 $-1 #
coedge $-1 -1 $-1 $119 $120 $38 $67 reversed $121 $-1 #
edge $-1 -1 $-1 $122 -50.000000000000007 $123 50.000000000000007 $66 $124 forward @7 unknown #
model_id-kcp-attrib $-1 -1 $-1 $-1 $40 1 1021382404 1021382405 -532152319 6 #
face $125 -1 $-1 $126 $127 $6 $-1 $128 forward single #
loop $-1 -1 $-1 $-1 $129 $40 #
plane-surface $-1 -1 $-1 0 10 25 0 -1 0 0 0 -1 forward_v I I I I #
coedge $-1 -1 $-1 $50 $130 $52 $97 reversed $41 $-1 #
coedge $-1 -1 $-1 $131 $42 $132 $133 reversed $27 $-1 #
coedge $-1 -1 $-1 $42 $131 $43 $78 reversed $27 $-1 #
coedge $-1 -1 $-1 $45 $134 $42 $76 forward $54 $135 #
edge $-1 -1 $-1 $136 -9.6747049276544175 $83 0 $75 $137 forward @7 unknown #
coedge $-1 -1 $-1 $44 $43 $138 $139 forward $19 $-1 #
edge $-1 -1 $-1 $83 -8.4663451341799316 $140 25 $43 $141 forward @7 unknown #
coedge $-1 -1 $-1 $142 $129 $44 $80 forward $70 $-1 #
edge $-1 -1 $-1 $84 -3.4826643365009069 $143 25 $79 $144 forward @7 unknown #
coedge $-1 -1 $-1 $145 $45 $129 $146 forward $54 $147 #
pcurve $-1 -1 $-1 0 forward { exppc nubs 1 open 2 
	-20.574839095361483 1 0 1 
	22.804458420983455 41.243084366604762 
	22.804458420983451 58.756915633395238 
	4.6193673541482153e-005 
	spline forward { ref 3 } I I I I 
	} 0 0 #
vertex $-1 -1 $-1 $76 $148 #
vertex $-1 -1 $-1 $46 $149 #
intcurve-curve $-1 -1 $-1 forward { surfintcur full nubs 3 open 3 
	-20.574839095361483 3 -10.230895186655347 2 0 3 
	-30 -10 33.466345134179932 
	-30 -6.7003137719282897 32.565073618583284 
	-30 -3.3404825313512996 31.62403676212411 
	-30 3.3039744755714922 29.92631209903616 
	-30.000000000000004 6.6556863654766243 29.150273099657969 
	-30.000000000000004 10.000000000000002 28.48266433650091 
	4.6193673534376726e-005 
	plane -30 0 25 -1 0 0 0 0 -1 reverse_v I I I I 
	spline forward { ref 3 } I I I I 
	nullbs 
	nubs 3 open 3 
	-20.574839095361483 3 -10.230895186655347 3 0 3 
	22.804458420983455 41.243084366604762 
	22.804458420983455 44.135189262518573 
	22.804458420983455 47.084861381272866 
	22.804458420983455 50 
	22.804458420983455 52.91100054539357 
	22.804458420983451 55.845762753105362 
	22.804458420983451 58.756915633395238 
	
	I I 
	0 
	0 
	1 -10.230895186655347 
	} I I #
coedge $-1 -1 $-1 $150 $151 $47 $87 reversed $152 $-1 #
edge $-1 -1 $-1 $91 -10 $94 10 $47 $153 forward @7 unknown #
coedge $-1 -1 $-1 $154 $48 $53 $100 reversed $90 $-1 #
coedge $-1 -1 $-1 $48 $154 $150 $155 forward $90 $-1 #
loop $-1 -1 $-1 $-1 $88 $156 #
vertex $-1 -1 $-1 $87 $157 #
straight-curve $-1 -1 $-1 30 10 25 0 0 -1 I I #
coedge $-1 -1 $-1 $130 $50 $151 $158 forward $41 $-1 #
vertex $-1 -1 $-1 $51 $159 #
straight-curve $-1 -1 $-1 30 -10 25 0 0 -1 I I #
coedge $-1 -1 $-1 $160 $52 $161 $162 forward $54 $163 #
edge $-1 -1 $-1 $57 -51.433089293173659 $164 -43.500519935335447 $52 $165 forward @7 unknown #
pcurve $-1 -1 $-1 0 forward { exppc nubs 1 open 2 
	-51.433089293173659 1 -43.500519935335447 1 
	77.195541579016549 41.243084366604762 
	67.729989309106614 41.243084366604755 
	0.00070193203692597936 
	spline forward { ref 3 } I I I I 
	} 0 0 #
coedge $-1 -1 $-1 $53 $166 $167 $168 forward $54 $169 #
edge $-1 -1 $-1 $170 -17.688566263748836 $56 0 $53 $171 forward @7 unknown #
pcurve $-1 -1 $-1 0 forward { exppc nubs 1 open 2 
	-17.688566263748836 1 0 1 
	67.729989309106429 58.756915633395231 
	77.195541579016549 58.756915633395238 
	0.00073825933266980707 
	spline forward { ref 1 } I I I I 
	} 0 0 #
face $172 -1 $-1 $173 $174 $6 $-1 $175 forward single #
point $-1 -1 $-1 30 10 25.0167511403505 #
point $-1 -1 $-1 30 -10 24.364232289349616 #
model_id-kcp-attrib $-1 -1 $-1 $-1 $60 1 1021382404 1021382405 -532152318 4 #
face $176 -1 $-1 $177 $178 $11 $-1 $179 reversed single #
loop $-1 -1 $-1 $-1 $180 $60 #
plane-surface $-1 -1 $-1 -50.000000000000007 0 0 1 0 0 0 0 -1 forward_v I I I I #
coedge $-1 -1 $-1 $181 $117 $182 $183 forward $61 $-1 #
coedge $-1 -1 $-1 $184 $63 $181 $185 forward $36 $-1 #
coedge $-1 -1 $-1 $63 $184 $186 $187 forward $36 $-1 #
coedge $-1 -1 $-1 $120 $119 $63 $113 reversed $121 $-1 #
edge $-1 -1 $-1 $188 -50.000000000000007 $189 50.000000000000007 $112 $190 forward @7 unknown #
coedge $-1 -1 $-1 $65 $64 $191 $192 forward $23 $-1 #
coedge $-1 -1 $-1 $193 $194 $64 $116 reversed $178 $-1 #
edge $-1 -1 $-1 $123 -50.000000000000007 $195 50.000000000000007 $115 $196 forward @7 unknown #
coedge $-1 -1 $-1 $109 $197 $65 $118 reversed $61 $-1 #
edge $-1 -1 $-1 $198 -50.000000000000007 $122 50.000000000000007 $117 $199 forward @7 unknown #
coedge $-1 -1 $-1 $112 $66 $197 $200 forward $121 $-1 #
coedge $-1 -1 $-1 $66 $112 $193 $201 reversed $121 $-1 #
loop $-1 -1 $-1 $-1 $119 $177 #
vertex $-1 -1 $-1 $67 $202 #
vertex $-1 -1 $-1 $67 $203 #
straight-curve $-1 -1 $-1 50.000000000000007 0 36.785113019775793 0 1 0 I I #
model_id-kcp-attrib $-1 -1 $-1 $-1 $69 1 1021382404 1021382405 -532152319 7 #
face $204 -1 $-1 $156 $152 $6 $-1 $128 forward single #
loop $-1 -1 $-1 $-1 $205 $69 #
plane-surface $-1 -1 $-1 0 0 0 0 0 1 1 0 0 forward_v I I I I #
coedge $-1 -1 $-1 $79 $206 $81 $146 reversed $70 $-1 #
coedge $-1 -1 $-1 $72 $93 $207 $208 reversed $41 $-1 #
coedge $-1 -1 $-1 $74 $73 $209 $210 forward $27 $-1 #
coedge $-1 -1 $-1 $211 $212 $73 $133 forward $213 $-1 #
edge $-1 -1 $-1 $214 -12.5 $136 19.224689367714053 $132 $215 forward @7 unknown #
coedge $-1 -1 $-1 $75 $160 $211 $216 forward $54 $217 #
pcurve $-1 -1 $-1 0 forward { exppc nubs 1 open 2 
	-9.6747049276544175 1 1.7763568394002505e-015 1 
	32.270010691542574 41.243084366764201 
	22.804458420983455 41.243084366604762 
	0.00070193210198570119 
	spline forward { ref 3 } I I I I 
	} 0 0 #
vertex $-1 -1 $-1 $216 $218 #
intcurve-curve $-1 -1 $-1 forward { surfintcur full nubs 3 open 2 
	-9.6747049276544175 3 0 3 
	-20 -9.9999999999999769 31.724689367714053 
	-23.443167527059099 -9.9999999999999769 32.504872221098381 
	-26.791480262702244 -10 33.141704256436654 
	-30 -10 33.466345134179932 
	0.00070193203692597936 
	plane 0 -10 25 0 -1 0 0 0 1 reverse_v I I I I 
	spline forward { ref 3 } I I I I 
	nullbs 
	nubs 3 open 2 
	-9.6747049276544175 3 0 3 
	32.270010691542574 41.243084366764201 
	28.762433446563733 41.243084366604762 
	25.701379484570619 41.243084366604762 
	22.804458420983455 41.243084366604762 
	
	I I 
	0 
	0 
	0 
	} I I #
coedge $-1 -1 $-1 $209 $219 $77 $139 reversed $127 $-1 #
edge $-1 -1 $-1 $140 -10 $143 10 $77 $220 forward @7 unknown #
vertex $-1 -1 $-1 $139 $221 #
straight-curve $-1 -1 $-1 -30 -10 25 0 0 -1 I I #
coedge $-1 -1 $-1 $206 $79 $219 $222 forward $70 $-1 #
vertex $-1 -1 $-1 $222 $223 #
straight-curve $-1 -1 $-1 -30 10 25 0 0 -1 I I #
coedge $-1 -1 $-1 $166 $81 $224 $225 forward $54 $226 #
edge $-1 -1 $-1 $84 -129.8923965340918 $227 -106.32283300182876 $81 $228 forward @7 unknown #
pcurve $-1 -1 $-1 0 forward { exppc nubs 1 open 2 
	-129.8923965340918 1 -106.32283300182876 1 
	22.804458420983451 58.756915633395238 
	32.270010690893379 58.756915633395344 
	0.00073825933268780646 
	spline forward { ref 3 } I I I I 
	} 0 0 #
point $-1 -1 $-1 -30 -10 33.466345134179932 #
point $-1 -1 $-1 -30 10 28.482664336500907 #
coedge $-1 -1 $-1 $229 $86 $89 $155 reversed $152 $-1 #
coedge $-1 -1 $-1 $86 $229 $93 $158 reversed $152 $-1 #
loop $-1 -1 $-1 $-1 $229 $126 #
straight-curve $-1 -1 $-1 30 0 0 0 -1 0 I I #
coedge $-1 -1 $-1 $89 $88 $230 $231 reversed $90 $-1 #
edge $-1 -1 $-1 $232 20 $91 30 $89 $233 forward @7 unknown #
face $234 -1 $-1 $102 $90 $6 $-1 $71 forward single #
point $-1 -1 $-1 30 10 0 #
edge $-1 -1 $-1 $94 -30 $235 -20 $93 $236 forward @7 unknown #
point $-1 -1 $-1 30 -10 0 #
coedge $-1 -1 $-1 $134 $96 $237 $238 forward $54 $239 #
coedge $-1 -1 $-1 $207 $240 $96 $162 reversed $241 $-1 #
edge $-1 -1 $-1 $164 -9.8801452667469469 $242 0 $96 $243 forward @7 unknown #
pcurve $-1 -1 $-1 0 forward { exppc nubs 1 open 2 
	-9.8801452667469469 1 0 1 
	67.729989309106614 41.243084366604826 
	67.729989309106614 32.270010690893379 
	5.2740413880046344e-005 
	spline forward { ref 3 } I I I I 
	} 0 0 #
vertex $-1 -1 $-1 $208 $244 #
intcurve-curve $-1 -1 $-1 forward { surfintcur full nubs 3 open 2 
	-51.433089293173659 3 -43.500519935335447 3 
	30.000000000000007 -10 24.364232289349623 
	26.690708597857721 -10 24.318707870599319 
	23.347635465182414 -10 24.373103746239121 
	20 -10 24.537613479906277 
	0.00070193203692597936 
	plane 0 -10 25 0 -1 0 0 0 1 reverse_v I I I I 
	spline forward { ref 3 } I I I I 
	nullbs 
	nubs 3 open 2 
	-51.433089293173659 3 -43.500519935335447 3 
	77.195541579016549 41.243084366604762 
	74.198376079729059 41.243084366604762 
	71.178375253547287 41.243084366604762 
	67.729989309106614 41.243084366604755 
	
	I I 
	0 
	0 
	0 
	} I I #
coedge $-1 -1 $-1 $99 $145 $245 $246 forward $54 $247 #
coedge $-1 -1 $-1 $248 $230 $99 $168 reversed $241 $-1 #
edge $-1 -1 $-1 $249 -39.056130997307861 $170 -29.167149763616671 $99 $250 forward @7 unknown #
pcurve $-1 -1 $-1 0 forward { exppc nubs 1 open 2 
	-39.056130997307861 1 -29.167149763616671 1 
	67.729989309106614 67.729989309106614 
	67.7299893091066 58.756915633395181 
	5.2740413880046344e-005 
	spline forward { ref 1 } I I I I 
	} 0 0 #
vertex $-1 -1 $-1 $168 $251 #
intcurve-curve $-1 -1 $-1 forward { surfintcur full nubs 3 open 3 
	-17.688566263748836 3 -11.233550709934169 2 0 3 
	19.999999999999996 9.9999999999999858 24.063037485019439 
	20.959854882808028 9.9999999999999858 24.138749577271426 
	21.921660275589606 10.000000000000002 24.221165343984513 
	24.565891928209435 10.000000000000002 24.461338776349017 
	26.27559419814898 10.000000000000002 24.629184033486244 
	30.000000000000007 10.000000000000002 25.0167511403505 
	0.00073825933266092529 
	plane 0 10 25 0 1 0 0 0 -1 reverse_v I I I I 
	spline forward { ref 3 } I I I I 
	nullbs 
	nubs 3 open 3 
	-17.688566263748836 3 -11.233550709934169 3 0 3 
	67.729989309106429 58.756915633395231 
	68.653461439523085 58.756915633395238 
	69.523297170592699 58.756915633395238 
	70.396656184262412 58.756915633395238 
	72.000377343804217 58.756915633395238 
	73.634175360566772 58.756915633395238 
	77.195541579016549 58.756915633395238 
	
	I I 
	0 
	0 
	0 
	} I I #
model_id-kcp-attrib $-1 -1 $-1 $-1 $102 1 1021382404 1021382405 -532152319 10 #
face $252 -1 $-1 $253 $254 $6 $-1 $255 forward single #
loop $-1 -1 $-1 $54 $256 $102 #
spline-surface $-1 -1 $-1 forward { ref 3 } I I I I #
model_id-kcp-attrib $-1 -1 $-1 $-1 $106 1 1021382404 1021382405 -532152318 5 #
face $257 -1 $-1 $-1 $121 $11 $-1 $258 reversed single #
loop $-1 -1 $-1 $-1 $193 $106 #
plane-surface $-1 -1 $-1 0 50.000000000000007 0 0 -1 0 0 0 -1 forward_v I I I I #
coedge $-1 -1 $-1 $259 $191 $194 $260 forward $107 $-1 #
coedge $-1 -1 $-1 $197 $109 $110 $185 reversed $61 $-1 #
coedge $-1 -1 $-1 $191 $259 $109 $183 reversed $107 $-1 #
edge $-1 -1 $-1 $198 -36.785113019775793 $261 36.785113019775793 $182 $262 forward @7 unknown #
coedge $-1 -1 $-1 $111 $110 $259 $263 forward $36 $-1 #
edge $-1 -1 $-1 $189 -50.000000000000007 $261 50.000000000000007 $181 $264 forward @7 unknown #
coedge $-1 -1 $-1 $194 $193 $111 $187 reversed $178 $-1 #
edge $-1 -1 $-1 $265 -50.000000000000007 $188 50.000000000000007 $186 $266 forward @7 unknown #
vertex $-1 -1 $-1 $113 $267 #
vertex $-1 -1 $-1 $200 $268 #
straight-curve $-1 -1 $-1 50.000000000000007 0 -36.785113019775793 0 -1 0 I I #
coedge $-1 -1 $-1 $180 $182 $114 $192 reversed $107 $-1 #
edge $-1 -1 $-1 $195 -50.000000000000007 $198 50.000000000000007 $191 $269 forward @7 unknown #
coedge $-1 -1 $-1 $186 $115 $120 $201 forward $178 $-1 #
coedge $-1 -1 $-1 $115 $186 $180 $260 reversed $178 $-1 #
vertex $-1 -1 $-1 $116 $270 #
straight-curve $-1 -1 $-1 0 50.000000000000007 36.785113019775793 -1 0 0 I I #
coedge $-1 -1 $-1 $117 $181 $119 $200 reversed $61 $-1 #
vertex $-1 -1 $-1 $192 $271 #
straight-curve $-1 -1 $-1 0 -50.000000000000007 36.785113019775793 1 0 0 I I #
edge $-1 -1 $-1 $122 -36.785113019775793 $189 36.785113019775793 $119 $272 forward @7 unknown #
edge $-1 -1 $-1 $123 -36.785113019775793 $188 36.785113019775793 $120 $273 forward @7 unknown #
point $-1 -1 $-1 50.000000000000007 -50.000000000000007 36.785113019775793 #
point $-1 -1 $-1 50.000000000000007 50.000000000000007 36.785113019775793 #
model_id-kcp-attrib $-1 -1 $-1 $-1 $126 1 1021382404 1021382405 -532152319 8 #
coedge $-1 -1 $-1 $219 $209 $212 $274 reversed $127 $-1 #
coedge $-1 -1 $-1 $129 $142 $275 $276 reversed $70 $-1 #
coedge $-1 -1 $-1 $277 $161 $130 $208 forward $241 $-1 #
edge $-1 -1 $-1 $164 -12.037613479906277 $235 12.5 $207 $278 forward @7 unknown #
coedge $-1 -1 $-1 $205 $138 $131 $210 reversed $127 $-1 #
edge $-1 -1 $-1 $214 20 $140 30 $131 $236 forward @7 unknown #
coedge $-1 -1 $-1 $279 $132 $134 $216 reversed $213 $-1 #
coedge $-1 -1 $-1 $132 $275 $205 $274 forward $213 $-1 #
loop $-1 -1 $-1 $-1 $132 $280 #
vertex $-1 -1 $-1 $274 $281 #
straight-curve $-1 -1 $-1 -20 -10 12.5 0 0 1 I I #
edge $-1 -1 $-1 $282 -40.920950957410341 $136 -30.388709878100212 $134 $283 forward @7 unknown #
pcurve $-1 -1 $-1 0 forward { exppc nubs 1 open 2 
	-40.920950957410341 1 -30.388709878100212 1 
	32.270010690893372 32.270010690893372 
	32.270010690893379 41.243084366605125 
	0.00017535115740544122 
	spline forward { ref 3 } I I I I 
	} 0 0 #
point $-1 -1 $-1 -20 -9.9999999999999769 31.724689367714053 #
coedge $-1 -1 $-1 $138 $205 $142 $222 reversed $127 $-1 #
straight-curve $-1 -1 $-1 -30 0 0 0 1 0 I I #
point $-1 -1 $-1 -30 -10 0 #
edge $-1 -1 $-1 $143 -30 $284 -20 $142 $233 forward @7 unknown #
point $-1 -1 $-1 -30 10 0 #
coedge $-1 -1 $-1 $275 $285 $145 $225 reversed $213 $-1 #
edge $-1 -1 $-1 $227 -10.00606398586431 $286 0 $145 $287 forward @7 unknown #
pcurve $-1 -1 $-1 0 forward { exppc nubs 1 open 2 
	-10.00606398586431 1 0 1 
	32.270010690892121 58.756915633390342 
	32.270010690893379 67.729989309106614 
	0.00017535115790892481 
	spline forward { ref 1 } I I I I 
	} 0 0 #
vertex $-1 -1 $-1 $276 $288 #
intcurve-curve $-1 -1 $-1 forward { surfintcur full nubs 3 open 2 
	-129.8923965340918 3 -106.32283300182876 3 
	-30.000000000000004 10.000000000000002 28.48266433650091 
	-26.792797893536324 10.000000000000002 28.291245585532266 
	-23.442915422884411 10.000000000000124 27.800930759403531 
	-20 10.000000000000124 27.202137309742952 
	0.00073825933266092529 
	plane 0 10 25 0 1 0 0 0 -1 reverse_v I I I I 
	spline forward { ref 3 } I I I I 
	nullbs 
	nubs 3 open 2 
	-129.8923965340918 3 -106.32283300182876 3 
	22.804458420983451 58.756915633395238 
	25.685695836138798 58.756915633395245 
	28.723685847272435 58.756915633395252 
	32.270010690893379 58.756915633395344 
	
	I I 
	0 
	0 
	0 
	} I I #
coedge $-1 -1 $-1 $151 $150 $277 $289 reversed $152 $-1 #
coedge $-1 -1 $-1 $167 $277 $154 $231 forward $241 $-1 #
edge $-1 -1 $-1 $232 -12.5 $170 11.563037485019439 $230 $290 forward @7 unknown #
vertex $-1 -1 $-1 $289 $291 #
straight-curve $-1 -1 $-1 0 10 0 1 0 0 I I #
model_id-kcp-attrib $-1 -1 $-1 $-1 $156 1 1021382404 1021382405 -532152319 9 #
vertex $-1 -1 $-1 $289 $292 #
straight-curve $-1 -1 $-1 0 -10 0 -1 0 0 I I #
coedge $-1 -1 $-1 $293 $294 $160 $238 reversed $295 $-1 #
edge $-1 -1 $-1 $242 -39.045206156576697 $282 0 $160 $296 forward @7 unknown #
pcurve $-1 -1 $-1 0 forward { exppc nubs 1 open 2 
	-39.045206156576697 1 0 1 
	67.729989309106614 32.270010690893379 
	32.270010690893372 32.270010690893372 
	0.00017535115741876891 
	spline forward { ref 3 } I I I I 
	} 0 0 #
coedge $-1 -1 $-1 $161 $297 $293 $298 reversed $241 $-1 #
loop $-1 -1 $-1 $-1 $230 $253 #
vertex $-1 -1 $-1 $238 $299 #
intcurve-curve $-1 -1 $-1 forward { surfintcur full nubs 3 open 2 
	-9.8801452667469469 3 0 3 
	20 -10 24.537613479906277 
	20 -13.388578187234005 24.96765118301796 
	19.999999999999993 -16.735923516127919 25.48752181714665 
	19.999999999999993 -20 25.92589163298225 
	5.2740413880046344e-005 
	plane 20 0 0 1 0 0 0 0 1 reverse_v I I I I 
	spline forward { ref 3 } I I I I 
	nullbs 
	nubs 3 open 2 
	-9.8801452667469469 3 0 3 
	67.729989309106614 41.243084366604826 
	67.729989309106628 38.147853016969165 
	67.729989309106628 35.171587906780665 
	67.729989309106614 32.270010690893379 
	
	I I 
	0 
	0 
	0 
	} I I #
point $-1 -1 $-1 20 -10 24.537613479906277 #
coedge $-1 -1 $-1 $300 $301 $166 $246 reversed $254 $-1 #
edge $-1 -1 $-1 $286 -39.127848874638829 $249 0 $166 $302 forward @7 unknown #
pcurve $-1 -1 $-1 0 forward { exppc nubs 1 open 2 
	-39.127848874638829 1 0 1 
	32.270010690893379 67.729989309106614 
	67.729989309106614 67.729989309106614 
	5.2740413876147838e-005 
	spline forward { ref 1 } I I I I 
	} 0 0 #
coedge $-1 -1 $-1 $297 $167 $301 $303 forward $241 $-1 #
vertex $-1 -1 $-1 $246 $304 #
intcurve-curve $-1 -1 $-1 forward { surfintcur full nubs 3 open 2 
	-39.056130997307861 3 -29.167149763616671 3 
	19.999999999999993 19.999999999999993 25.349639024716463 
	19.999999999999993 16.737634899007755 24.837108121077247 
	19.999999999999996 13.390031002871728 24.372986372982425 
	19.999999999999996 9.9999999999999858 24.063037485019439 
	5.2740413880046344e-005 
	plane 20 0 0 1 0 0 0 0 1 reverse_v I I I I 
	spline forward { ref 3 } I I I I 
	nullbs 
	nubs 3 open 2 
	-39.056130997307861 3 -29.167149763616671 3 
	67.729989309106614 67.729989309106614 
	67.729989309106614 64.812405497321777 
	67.729989309106614 61.840378706893802 
	67.7299893091066 58.756915633395181 
	
	I I 
	0 
	0 
	0 
	} I I #
point $-1 -1 $-1 19.999999999999996 9.9999999999999858 24.063037485019439 #
model_id-kcp-attrib $-1 -1 $-1 $-1 $173 1 1021382404 1021382405 -532152319 11 #
face $305 -1 $-1 $306 $241 $6 $-1 $307 forward single #
loop $-1 -1 $-1 $-1 $245 $173 #
plane-surface $-1 -1 $-1 0 20 0 0 -1 0 0 0 -1 forward_v I I I I #
coedge $-1 -1 $-1 $308 $309 $310 $311 forward $174 $312 #
model_id-kcp-attrib $-1 -1 $-1 $-1 $177 1 1021382404 1021382405 -532152318 6 #
plane-surface $-1 -1 $-1 50.000000000000007 0 0 -1 0 0 0 0 1 forward_v I I I I #
coedge $-1 -1 $-1 $182 $180 $184 $263 reversed $107 $-1 #
edge $-1 -1 $-1 $195 -36.785113019775793 $265 36.785113019775793 $194 $313 forward @7 unknown #
vertex $-1 -1 $-1 $263 $314 #
straight-curve $-1 -1 $-1 -50.000000000000007 -50.000000000000007 0 0 0 -1 I I #
edge $-1 -1 $-1 $261 -50.000000000000007 $265 50.000000000000007 $259 $315 forward @7 unknown #
straight-curve $-1 -1 $-1 0 -50.000000000000007 -36.785113019775793 -1 0 0 I I #
vertex $-1 -1 $-1 $187 $316 #
straight-curve $-1 -1 $-1 0 50.000000000000007 -36.785113019775793 1 0 0 I I #
point $-1 -1 $-1 50.000000000000007 50.000000000000007 -36.785113019775793 #
point $-1 -1 $-1 50.000000000000007 -50.000000000000007 -36.785113019775793 #
straight-curve $-1 -1 $-1 -50.000000000000007 0 36.785113019775793 0 -1 0 I I #
point $-1 -1 $-1 -50.000000000000007 50.000000000000007 36.785113019775793 #
point $-1 -1 $-1 -50.000000000000007 -50.000000000000007 36.785113019775793 #
straight-curve $-1 -1 $-1 50.000000000000007 -50.000000000000007 0 0 0 -1 I I #
straight-curve $-1 -1 $-1 50.000000000000007 50.000000000000007 0 0 0 -1 I I #
edge $-1 -1 $-1 $284 -10 $214 10 $212 $317 forward @7 unknown #
coedge $-1 -1 $-1 $212 $224 $206 $276 forward $213 $-1 #
edge $-1 -1 $-1 $227 -14.702137309742952 $284 12.5 $275 $318 forward @7 unknown #
coedge $-1 -1 $-1 $230 $207 $229 $289 forward $241 $-1 #
straight-curve $-1 -1 $-1 20 -10 12.5 0 0 -1 I I #
coedge $-1 -1 $-1 $319 $211 $294 $320 forward $213 $-1 #
face $321 -1 $-1 $322 $213 $6 $-1 $323 forward single #
point $-1 -1 $-1 -20 -10 0 #
vertex $-1 -1 $-1 $238 $324 #
intcurve-curve $-1 -1 $-1 forward { surfintcur full nubs 3 open 2 
	-40.920950957410341 3 -30.388709878100212 3 
	-20.000000000000004 -20.000000000000004 34.275383736452277 
	-20.000000000000004 -16.735426034840593 33.524481363126085 
	-20 -13.388249969168932 32.6292441920465 
	-20 -9.9999999999999769 31.724689367714053 
	0.00017535115740544122 
	plane -20 0 0 -1 0 0 0 0 -1 reverse_v I I I I 
	spline forward { ref 3 } I I I I 
	nullbs 
	nubs 3 open 2 
	-40.920950957410341 3 -30.388709878100212 3 
	32.270010690893372 32.270010690893372 
	32.270010690893372 35.147520418642799 
	32.270010690893372 38.123238932340236 
	32.270010690893379 41.243084366605125 
	
	I I 
	0 
	0 
	0 
	} I I #
vertex $-1 -1 $-1 $274 $325 #
coedge $-1 -1 $-1 $224 $319 $300 $326 reversed $213 $-1 #
vertex $-1 -1 $-1 $225 $327 #
intcurve-curve $-1 -1 $-1 forward { surfintcur full nubs 3 open 2 
	-10.00606398586431 3 0 3 
	-20 10.000000000000124 27.202137309742952 
	-20 13.331362172446884 26.659321649446454 
	-20 16.678422722784248 26.228736663496974 
	-20 19.999999999999993 25.92589163298225 
	0.00017535115740544122 
	plane -20 0 0 -1 0 0 0 0 -1 reverse_v I I I I 
	spline forward { ref 3 } I I I I 
	nullbs 
	nubs 3 open 2 
	-10.00606398586431 3 0 3 
	32.270010690892121 58.756915633390342 
	32.270010690893372 61.863351794237872 
	32.270010690893379 64.811455068739235 
	32.270010690893379 67.729989309106614 
	
	I I 
	0 
	0 
	0 
	} I I #
point $-1 -1 $-1 -20 10.000000000000124 27.202137309742952 #
edge $-1 -1 $-1 $235 -10 $232 10 $277 $328 forward @7 unknown #
straight-curve $-1 -1 $-1 20 10 12.5 0 0 1 I I #
point $-1 -1 $-1 20 10 0 #
point $-1 -1 $-1 20 -10 0 #
coedge $-1 -1 $-1 $329 $237 $240 $298 forward $295 $-1 #
coedge $-1 -1 $-1 $237 $329 $279 $320 reversed $295 $-1 #
loop $-1 -1 $-1 $-1 $237 $306 #
intcurve-curve $-1 -1 $-1 forward { surfintcur full nubs 3 open 3 
	-39.045206156576697 3 -19.858212029346152 2 0 3 
	19.999999999999993 -20 25.92589163298225 
	13.324773213077307 -20 26.534505881955209 
	6.5465018302528888 -20.000000000000004 27.65825913849778 
	-6.7755178603595931 -20.000000000000004 30.744284170269921 
	-13.54904722944813 -20.000000000000004 32.791565082833245 
	-20.000000000000004 -20.000000000000004 34.275383736452277 
	0.00017535115740811077 
	plane 0 -20 0 0 -1 0 0 0 1 reverse_v I I I I 
	spline forward { ref 3 } I I I I 
	nullbs 
	nubs 3 open 3 
	-39.045206156576697 3 -19.858212029346152 3 0 3 
	67.729989309106614 32.270010690893379 
	61.864740268090273 32.270010690893379 
	55.880070292031533 32.270010690893372 
	49.999999999999986 32.270010690893372 
	44.025683752654807 32.270010690893372 
	37.956106196347385 32.270010690893372 
	32.270010690893372 32.270010690893372 
	
	I I 
	0 
	0 
	1 -19.858212029346166 
	} I I #
coedge $-1 -1 $-1 $240 $248 $330 $331 reversed $241 $-1 #
edge $-1 -1 $-1 $242 -25.925891632982243 $332 25 $240 $333 forward @7 unknown #
point $-1 -1 $-1 20 -20 25.925891632982243 #
coedge $-1 -1 $-1 $334 $245 $285 $326 forward $254 $-1 #
coedge $-1 -1 $-1 $245 $334 $248 $303 reversed $254 $-1 #
intcurve-curve $-1 -1 $-1 forward { surfintcur full nubs 3 open 3 
	-39.127848874638829 3 -19.569316733611224 2 0 3 
	-20 19.999999999999993 25.92589163298225 
	-13.5503447527791 19.999999999999993 25.059694349647351 
	-6.7755763615491542 19.999999999999993 23.875284571197962 
	6.7793124205770656 19.999999999999993 23.513526629557926 
	13.555934907540049 19.999999999999993 24.337250036143757 
	19.999999999999993 19.999999999999993 25.349639024716463 
	5.2740413876147838e-005 
	plane 0 20 0 0 1 0 0 0 -1 reverse_v I I I I 
	spline forward { ref 3 } I I I I 
	nullbs 
	nubs 3 open 3 
	-39.127848874638829 3 -19.569316733611224 3 0 3 
	32.270010690893379 67.729989309106614 
	38.003385140950364 67.729989309106614 
	44.028369692563182 67.729989309106614 
	49.999999999999993 67.729989309106614 
	55.991513604311379 67.729989309106614 
	61.966961746639541 67.729989309106614 
	67.729989309106614 67.729989309106614 
	
	I I 
	0 
	0 
	1 -19.569316733611217 
	} I I #
edge $-1 -1 $-1 $249 -25.349639024716467 $335 25 $248 $336 forward @7 unknown #
point $-1 -1 $-1 20 20 25.349639024716467 #
model_id-kcp-attrib $-1 -1 $-1 $-1 $253 1 1021382404 1021382405 -532152319 12 #
face $337 -1 $-1 $280 $295 $6 $-1 $338 forward single #
plane-surface $-1 -1 $-1 20 0 0 -1 0 0 0 0 1 forward_v I I I I #
coedge $-1 -1 $-1 $339 $256 $340 $341 forward $174 $342 #
coedge $-1 -1 $-1 $256 $339 $343 $344 forward $174 $345 #
coedge $-1 -1 $-1 $346 $347 $256 $311 reversed $348 $-1 #
edge $349 -1 $-1 $350 0 $351 100 $310 $352 forward @7 unknown #
pcurve $-1 -1 $-1 0 forward { exppc nubs 1 open 2 
	0 1 100 1 
	100 0 
	100 100 
	0 
	spline forward { exactsur full nubs 3 3 open open none none 3 3 
	0 3 50 1 100 3 
	0 3 50 1 100 3 
	-50 -50 25 
	-38.214886980224207 -50 36.785113019775793 
	0 -50.000000000000007 25.000000000000004 
	38.214886980224207 -50 13.214886980224207 
	50 -50 25 
	-50 -38.214886980224207 36.785113019775793 
	-38.214886980224207 -38.214886980224207 48.570226039551585 
	0 -38.214886980224207 34.820927516479827 
	38.214886980224207 -38.214886980224207 28.928371006591931 
	50 -38.214886980224207 36.785113019775793 
	-50.000000000000007 0 25.000000000000004 
	-38.214886980224207 0 34.820927516479827 
	0 0 13.214886980224211 
	38.214886980224207 0 15.179072483520176 
	50.000000000000007 0 13.214886980224211 
	-50 38.214886980224207 13.214886980224207 
	-38.214886980224207 38.214886980224207 28.928371006591931 
	0 38.214886980224207 15.179072483520176 
	38.214886980224207 38.214886980224207 40.713484026367723 
	50 38.214886980224207 36.785113019775793 
	-50 50 25 
	-38.214886980224207 50 36.785113019775793 
	0 50 13.214886980224211 
	38.214886980224207 50 36.785113019775793 
	50 50 25 
	0 
	0 
	0 
	1 50 
	0 
	0 
	1 50 
	F 1 F 0 F 1 F 0 } I I I I 
	} 0 0 #
straight-curve $-1 -1 $-1 -50.000000000000007 50.000000000000007 0 0 0 -1 I I #
point $-1 -1 $-1 -50.000000000000007 -50.000000000000007 -36.785113019775793 #
straight-curve $-1 -1 $-1 -50.000000000000007 0 -36.785113019775793 0 1 0 I I #
point $-1 -1 $-1 -50.000000000000007 50.000000000000007 -36.785113019775793 #
straight-curve $-1 -1 $-1 -20 0 0 0 -1 0 I I #
straight-curve $-1 -1 $-1 -20 10 12.5 0 0 -1 I I #
coedge $-1 -1 $-1 $285 $279 $353 $354 reversed $213 $-1 #
edge $-1 -1 $-1 $282 -34.27538373645227 $355 25 $279 $356 forward @7 unknown #
model_id-kcp-attrib $-1 -1 $-1 $-1 $280 1 1021382404 1021382405 -532152319 14 #
face $357 -1 $-1 $358 $359 $6 $-1 $360 reversed single #
plane-surface $-1 -1 $-1 -20 0 0 1 0 0 0 0 -1 forward_v I I I I #
point $-1 -1 $-1 -20 -20 34.27538373645227 #
point $-1 -1 $-1 -20 10 0 #
edge $-1 -1 $-1 $286 -25.925891632982243 $361 25 $300 $362 forward @7 unknown #
point $-1 -1 $-1 -20 20 25.925891632982243 #
straight-curve $-1 -1 $-1 20 0 0 0 1 0 I I #
coedge $-1 -1 $-1 $294 $293 $363 $364 reversed $295 $-1 #
coedge $-1 -1 $-1 $365 $363 $297 $331 forward $359 $-1 #
edge $366 -1 $-1 $332 -20 $335 20 $330 $367 forward @7 unknown #
vertex $-1 -1 $-1 $364 $368 #
straight-curve $-1 -1 $-1 20 -20 0 0 0 -1 I I #
coedge $-1 -1 $-1 $301 $300 $365 $369 reversed $254 $-1 #
vertex $-1 -1 $-1 $369 $370 #
straight-curve $-1 -1 $-1 20 20 0 0 0 -1 I I #
model_id-kcp-attrib $-1 -1 $-1 $-1 $306 1 1021382404 1021382405 -532152319 13 #
plane-surface $-1 -1 $-1 0 -20 0 0 1 0 0 0 1 forward_v I I I I #
coedge $-1 -1 $-1 $309 $308 $371 $372 forward $174 $373 #
coedge $-1 -1 $-1 $374 $375 $308 $341 reversed $376 $-1 #
edge $-1 -1 $-1 $351 -100 $377 0 $340 $378 reversed @7 unknown #
pcurve $-1 -1 $-1 0 reversed { exppc nubs 1 open 2 
	0 1 100 1 
	0 100 
	100 100 
	0 
	spline forward { ref 1 } I I I I 
	} 0 0 #
coedge $-1 -1 $-1 $379 $380 $309 $344 reversed $381 $-1 #
edge $382 -1 $-1 $383 0 $350 100 $343 $384 forward @7 unknown #
pcurve $-1 -1 $-1 0 forward { exppc nubs 1 open 2 
	0 1 100 1 
	0 0 
	100 0 
	0 
	spline forward { ref 3 } I I I I 
	} 0 0 #
coedge $-1 -1 $-1 $385 $310 $380 $386 forward $348 $-1 #
coedge $-1 -1 $-1 $310 $385 $374 $387 reversed $348 $-1 #
loop $-1 -1 $-1 $-1 $346 $388 #
attrib_edge_convexity-kcp-attrib $-1 -1 $389 $-1 $311 1 #
vertex $-1 -1 $-1 $311 $390 #
vertex $-1 -1 $-1 $311 $391 #
intcurve-curve $-1 -1 $-1 forward { exactcur full nubs 3 open 3 
	0 3 50 1 100 3 
	50 -50 25 
	50 -38.214886980224207 36.785113019775793 
	50.000000000000007 0 13.214886980224211 
	50 38.214886980224207 36.785113019775793 
	50 50 25 
	0 
	spline forward { ref 3 } I I I I 
	plane 50 0 0 1 0 0 0 0 1 reverse_v I I I I 
	nubs 1 open 2 
	0 1 100 1 
	100 0 
	100 100 
	
	nullbs 
	I I 
	0 
	0 
	1 50 
	F 1 F 0 } I I #
coedge $-1 -1 $-1 $363 $365 $319 $354 forward $359 $-1 #
edge $392 -1 $-1 $361 -20 $355 20 $353 $393 forward @7 unknown #
vertex $-1 -1 $-1 $364 $394 #
straight-curve $-1 -1 $-1 -20 -20 0 0 0 -1 I I #
model_id-kcp-attrib $-1 -1 $-1 $-1 $322 1 1021382404 1021382405 -532152319 15 #
face $395 -1 $-1 $396 $381 $6 $-1 $397 reversed single #
loop $-1 -1 $-1 $398 $363 $322 #
plane-surface $-1 -1 $-1 0 0 -25 0 0 1 1 0 0 forward_v I I I I #
vertex $-1 -1 $-1 $354 $399 #
straight-curve $-1 -1 $-1 -20 20 0 0 0 -1 I I #
coedge $-1 -1 $-1 $330 $353 $329 $364 forward $359 $-1 #
edge $400 -1 $-1 $355 -20 $332 20 $363 $401 forward @7 unknown #
coedge $-1 -1 $-1 $353 $330 $334 $369 forward $359 $-1 #
attrib_edge_convexity-kcp-attrib $-1 -1 $402 $-1 $331 1 #
straight-curve $-1 -1 $-1 20 0 -25 0 1 0 I I #
point $-1 -1 $-1 20 -20 -25 #
edge $403 -1 $-1 $335 -20 $361 20 $365 $404 forward @7 unknown #
point $-1 -1 $-1 20 20 -25 #
coedge $-1 -1 $-1 $405 $406 $339 $372 reversed $407 $-1 #
edge $-1 -1 $-1 $377 -100 $383 0 $371 $408 reversed @7 unknown #
pcurve $-1 -1 $-1 0 reversed { exppc nubs 1 open 2 
	0 1 100 1 
	0 0 
	0 100 
	0 
	spline forward { exactsur full nubs 3 3 open open none none 3 3 
	0 3 50 1 100 3 
	0 3 50 1 100 3 
	-50 -50 25 
	-38.214886980224207 -50 36.785113019775793 
	0 -50.000000000000007 25.000000000000004 
	38.214886980224207 -50 13.214886980224207 
	50 -50 25 
	-50 -38.214886980224207 36.785113019775793 
	-38.214886980224207 -38.214886980224207 48.570226039551585 
	0 -38.214886980224207 34.820927516479827 
	38.214886980224207 -38.214886980224207 28.928371006591931 
	50 -38.214886980224207 36.785113019775793 
	-50.000000000000007 0 25.000000000000004 
	-38.214886980224207 0 34.820927516479827 
	0 0 13.214886980224211 
	38.214886980224207 0 15.179072483520176 
	50.000000000000007 0 13.214886980224211 
	-50 38.214886980224207 13.214886980224207 
	-38.214886980224207 38.214886980224207 28.928371006591931 
	0 38.214886980224207 15.179072483520176 
	38.214886980224207 38.214886980224207 40.713484026367723 
	50 38.214886980224207 36.785113019775793 
	-50 50 25 
	-38.214886980224207 50 36.785113019775793 
	0 50 13.214886980224211 
	38.214886980224207 50 36.785113019775793 
	50 50 25 
	0 
	0 
	0 
	1 50 
	0 
	0 
	1 50 
	F 1 F 0 F 1 F 0 } I I I I 
	} 0 0 #
coedge $-1 -1 $-1 $409 $340 $347 $387 forward $376 $-1 #
coedge $-1 -1 $-1 $340 $409 $405 $410 reversed $376 $-1 #
loop $-1 -1 $-1 $-1 $374 $411 #
vertex $-1 -1 $-1 $341 $412 #
intcurve-curve $-1 -1 $-1 forward { exactcur full nubs 3 open 3 
	0 3 50 1 100 3 
	-50 50 25 
	-38.214886980224207 50 36.785113019775793 
	0 50.000000000000007 13.214886980224211 
	38.214886980224207 50 36.785113019775793 
	50 50 25 
	0 
	plane 0 50 0 0 1 0 0 0 -1 reverse_v I I I I 
	spline forward { ref 3 } I I I I 
	nullbs 
	nubs 1 open 2 
	0 1 100 1 
	0 100 
	100 100 
	
	I I 
	0 
	0 
	1 50 
	F 1 F 0 } I I #
coedge $-1 -1 $-1 $413 $343 $406 $414 forward $381 $-1 #
coedge $-1 -1 $-1 $343 $413 $346 $386 reversed $381 $-1 #
loop $-1 -1 $-1 $-1 $379 $358 #
attrib_edge_convexity-kcp-attrib $-1 -1 $415 $-1 $344 1 #
vertex $-1 -1 $-1 $372 $416 #
intcurve-curve $-1 -1 $-1 forward { exactcur full nubs 3 open 3 
	0 3 50 1 100 3 
	-50 -50 25 
	-38.214886980224207 -50 36.785113019775793 
	0 -50.000000000000007 25.000000000000004 
	38.214886980224207 -50 13.214886980224207 
	50 -50 25 
	0 
	spline forward { ref 3 } I I I I 
	plane 0 -50 0 0 -1 0 0 0 1 reverse_v I I I I 
	nubs 1 open 2 
	0 1 100 1 
	0 0 
	100 0 
	
	nullbs 
	I I 
	0 
	0 
	0 
	F 1 F 0 } I I #
coedge $-1 -1 $-1 $347 $346 $417 $418 reversed $348 $-1 #
edge $419 -1 $-1 $350 -25 $420 25 $346 $421 forward @7 unknown #
edge $422 -1 $-1 $351 -25 $423 25 $347 $424 forward @7 unknown #
face $425 -1 $-1 $-1 $348 $6 $-1 $426 reversed single #
convexity-sys-attrib $-1 -1 $-1 $349 $311 #
point $-1 -1 $-1 50 -50 25 #
point $-1 -1 $-1 50 50 25 #
attrib_edge_convexity-kcp-attrib $-1 -1 $427 $-1 $354 1 #
straight-curve $-1 -1 $-1 -20 0 -25 0 -1 0 I I #
point $-1 -1 $-1 -20 -20 -25 #
model_id-kcp-attrib $-1 -1 $-1 $-1 $358 1 1021382404 1021382405 -532152319 16 #
face $428 -1 $-1 $411 $407 $6 $-1 $429 reversed single #
plane-surface $-1 -1 $-1 0 -50 0 0 1 0 0 0 1 forward_v I I I I #
loop $-1 -1 $-1 $-1 $417 $322 #
point $-1 -1 $-1 -20 20 -25 #
attrib_edge_convexity-kcp-attrib $-1 -1 $430 $-1 $364 1 #
straight-curve $-1 -1 $-1 0 -20 -25 1 0 0 I I #
convexity-sys-attrib $-1 -1 $-1 $366 $331 #
attrib_edge_convexity-kcp-attrib $-1 -1 $431 $-1 $369 1 #
straight-curve $-1 -1 $-1 0 20 -25 -1 0 0 I I #
coedge $-1 -1 $-1 $432 $371 $375 $410 forward $407 $-1 #
coedge $-1 -1 $-1 $371 $432 $379 $414 reversed $407 $-1 #
loop $-1 -1 $-1 $-1 $405 $396 #
intcurve-curve $-1 -1 $-1 forward { exactcur full nubs 3 open 3 
	0 3 50 1 100 3 
	-50 -50 25 
	-50 -38.214886980224207 36.785113019775793 
	-50.000000000000007 0 25.000000000000004 
	-50 38.214886980224207 13.214886980224207 
	-50 50 25 
	0 
	plane -50 0 0 -1 0 0 0 0 -1 reverse_v I I I I 
	spline forward { ref 3 } I I I I 
	nullbs 
	nubs 1 open 2 
	0 1 100 1 
	0 0 
	0 100 
	
	I I 
	0 
	0 
	0 
	F 1 F 0 } I I #
coedge $-1 -1 $-1 $375 $374 $433 $434 reversed $376 $-1 #
edge $-1 -1 $-1 $377 -25 $435 25 $375 $436 forward @7 unknown #
face $437 -1 $-1 $388 $376 $6 $-1 $438 reversed single #
point $-1 -1 $-1 -50 50 25 #
coedge $-1 -1 $-1 $380 $379 $439 $440 reversed $381 $-1 #
edge $441 -1 $-1 $383 -25 $442 25 $406 $443 forward @7 unknown #
convexity-sys-attrib $-1 -1 $-1 $382 $344 #
point $-1 -1 $-1 -50 -50 25 #
coedge $-1 -1 $-1 $439 $433 $385 $418 forward $398 $-1 #
edge $444 -1 $-1 $423 -50 $420 50 $385 $445 forward @7 unknown #
attrib_edge_convexity-kcp-attrib $-1 -1 $446 $-1 $386 1 #
vertex $-1 -1 $-1 $386 $447 #
straight-curve $-1 -1 $-1 50 -50 0 0 0 -1 I I #
attrib_edge_convexity-kcp-attrib $-1 -1 $448 $-1 $387 1 #
vertex $-1 -1 $-1 $418 $449 #
straight-curve $-1 -1 $-1 50 50 0 0 0 -1 I I #
model_id-kcp-attrib $-1 -1 $-1 $-1 $388 1 1021382404 1021382405 -532152319 19 #
plane-surface $-1 -1 $-1 50 0 0 -1 0 0 0 0 1 forward_v I I I I #
convexity-sys-attrib $-1 -1 $-1 $392 $354 #
model_id-kcp-attrib $-1 -1 $-1 $-1 $396 1 1021382404 1021382405 -532152319 17 #
plane-surface $-1 -1 $-1 -50 0 0 1 0 0 0 0 -1 forward_v I I I I #
convexity-sys-attrib $-1 -1 $-1 $400 $364 #
convexity-sys-attrib $-1 -1 $-1 $403 $369 #
coedge $-1 -1 $-1 $406 $405 $450 $451 reversed $407 $-1 #
coedge $-1 -1 $-1 $417 $450 $409 $434 forward $398 $-1 #
edge $452 -1 $-1 $435 -50 $423 50 $409 $453 forward @7 unknown #
vertex $-1 -1 $-1 $434 $454 #
straight-curve $-1 -1 $-1 -50 50 0 0 0 -1 I I #
model_id-kcp-attrib $-1 -1 $-1 $-1 $411 1 1021382404 1021382405 -532152319 18 #
plane-surface $-1 -1 $-1 0 50 0 0 -1 0 0 0 -1 forward_v I I I I #
coedge $-1 -1 $-1 $450 $417 $413 $440 forward $398 $-1 #
edge $455 -1 $-1 $420 -50 $442 50 $413 $456 forward @7 unknown #
attrib_edge_convexity-kcp-attrib $-1 -1 $457 $-1 $414 1 #
vertex $-1 -1 $-1 $451 $458 #
straight-curve $-1 -1 $-1 -50 -50 0 0 0 -1 I I #
attrib_edge_convexity-kcp-attrib $-1 -1 $459 $-1 $418 1 #
straight-curve $-1 -1 $-1 50 0 -25 0 -1 0 I I #
convexity-sys-attrib $-1 -1 $-1 $419 $386 #
point $-1 -1 $-1 50 -50 -25 #
convexity-sys-attrib $-1 -1 $-1 $422 $387 #
point $-1 -1 $-1 50 50 -25 #
coedge $-1 -1 $-1 $433 $439 $432 $451 forward $398 $-1 #
edge $460 -1 $-1 $442 -50 $435 50 $432 $461 forward @7 unknown #
attrib_edge_convexity-kcp-attrib $-1 -1 $462 $-1 $434 1 #
straight-curve $-1 -1 $-1 0 50 -25 1 0 0 I I #
point $-1 -1 $-1 -50 50 -25 #
attrib_edge_convexity-kcp-attrib $-1 -1 $463 $-1 $440 1 #
straight-curve $-1 -1 $-1 0 -50 -25 -1 0 0 I I #
convexity-sys-attrib $-1 -1 $-1 $441 $414 #
point $-1 -1 $-1 -50 -50 -25 #
convexity-sys-attrib $-1 -1 $-1 $444 $418 #
attrib_edge_convexity-kcp-attrib $-1 -1 $464 $-1 $451 1 #
straight-curve $-1 -1 $-1 -50 0 -25 0 1 0 I I #
convexity-sys-attrib $-1 -1 $-1 $452 $434 #
convexity-sys-attrib $-1 -1 $-1 $455 $440 #
convexity-sys-attrib $-1 -1 $-1 $460 $451 #
End-of-ACIS-data 