106 0 1 0           
body $-1 $1 $-1 $-1 #
lump $-1 $-1 $2 $0 #
shell $-1 $-1 $-1 $3 $1 #
face $-1 $4 $5 $2 $-1 $6 forward single #
face $-1 $7 $8 $2 $-1 $9 forward single #
loop $-1 $-1 $10 $3 #
plane-surface $-1 30 0 25 -1 0 0 0 0 1 0 I I I I #
face $-1 $11 $12 $2 $-1 $13 forward single #
loop $-1 $-1 $14 $4 #
plane-surface $-1 -30 0 25 1 0 0 0 0 -1 0 I I I I #
coedge $-1 $15 $16 $17 $18 1 $5 $-1 #
face $-1 $19 $20 $2 $-1 $13 forward single #
loop $-1 $-1 $21 $7 #
plane-surface $-1 0 -10 25 0 1 0 0 0 1 0 I I I I #
coedge $-1 $22 $23 $24 $25 1 $8 $-1 #
coedge $-1 $26 $10 $27 $28 0 $5 $-1 #
coedge $-1 $10 $26 $29 $30 1 $5 $-1 #
coedge $-1 $31 $32 $10 $18 0 $33 $34 #
edge $-1 $35 $36 $17 $37 0 #
face $-1 $38 $39 $2 $-1 $40 forward single #
loop $-1 $-1 $41 $11 #
coedge $-1 $42 $43 $44 $45 1 $12 $-1 #
coedge $-1 $46 $14 $43 $47 0 $8 $-1 #
coedge $-1 $14 $46 $48 $49 1 $8 $-1 #
coedge $-1 $50 $44 $14 $25 0 $33 $51 #
edge $-1 $52 $53 $24 $54 0 #
coedge $-1 $16 $15 $55 $56 0 $5 $-1 #
coedge $-1 $57 $58 $15 $28 1 $59 $-1 #
edge $-1 $35 $60 $15 $61 0 #
coedge $-1 $62 $41 $16 $30 0 $20 $-1 #
edge $-1 $36 $63 $16 $64 0 #
coedge $-1 $65 $17 $41 $66 0 $33 $67 #
coedge $-1 $17 $68 $57 $69 0 $33 $70 #
loop $-1 $-1 $32 $71 #
pcurve $-1 2 $37 0 0 #
vertex $-1 $69 $72 #
vertex $-1 $66 $73 #
intcurve-curve $-1 0 { surfintcur nubs 3 open 3 
	-20.077709940086471 3 -10.019637762242551 2 0 3 
	30.000000000000007 10.000000000000002 25.0167511403505 
	30.000000000000007 6.6941247939645994 24.482270936948414 
	30.000000000000007 3.3473569346142837 24.101510755519971 
	30.000000000000007 -3.334565844501161 23.898774918945708 
	30.000000000000007 -6.6727396167146864 24.074177512350982 
	30.000000000000007 -10 24.364232289349623 
	4.4103475761235171e-05 
	plane 30 0 25 1 0 0 0 0 1 1 I I I I 
	spline 0 { exactsur nubs 3 3 open open none none 3 3 
	0 3 50 1 100 3 
	0 3 50 1 100 3 
	-50 -50 25 
	-38.214886980224207 -50 36.785113019775793 
	0 -50.000000000000007 25.000000000000004 
	38.214886980224207 -50 13.214886980224207 
	50 -50 25 
	-50 -38.214886980224207 36.785113019775793 
	-38.214886980224207 -38.214886980224207 48.570226039551585 
	0 -38.214886980224207 34.820927516479827 
	38.214886980224207 -38.214886980224207 28.928371006591931 
	50 -38.214886980224207 36.785113019775793 
	-50.000000000000007 0 25.000000000000004 
	-38.214886980224207 0 34.820927516479827 
	0 0 13.214886980224211 
	38.214886980224207 0 15.179072483520176 
	50.000000000000007 0 13.214886980224211 
	-50 38.214886980224207 13.214886980224207 
	-38.214886980224207 38.214886980224207 28.928371006591931 
	0 38.214886980224207 15.179072483520176 
	38.214886980224207 38.214886980224207 40.713484026367723 
	50 38.214886980224207 36.785113019775793 
	-50 50 25 
	-38.214886980224207 50 36.785113019775793 
	0 50.000000000000007 13.214886980224211 
	38.214886980224207 50 36.785113019775793 
	50 50 25 
	0 
	} I I I I 
	nullbs 
	nubs 3 open 3 
	-20.077709940086471 3 -10.019637762242551 3 0 3 
	77.195541579016549 58.756915633395238 
	77.195541579016549 55.839440221970158 
	77.195541579016549 52.917557789483773 
	77.195541579016549 50 
	77.195541579016549 47.080541526398967 
	77.195541579016549 44.165849803992018 
	77.195541579016549 41.243084366604762 
	
	} I I #
face $-1 $74 $75 $2 $-1 $76 forward single #
loop $-1 $-1 $77 $19 #
plane-surface $-1 0 10 25 0 -1 0 0 0 -1 0 I I I I #
coedge $-1 $29 $78 $31 $66 1 $20 $-1 #
coedge $-1 $79 $21 $80 $81 1 $12 $-1 #
coedge $-1 $21 $79 $22 $47 1 $12 $-1 #
coedge $-1 $24 $82 $21 $45 0 $33 $83 #
edge $-1 $84 $52 $44 $85 0 #
coedge $-1 $23 $22 $86 $87 0 $8 $-1 #
edge $-1 $52 $88 $22 $89 0 #
coedge $-1 $90 $77 $23 $49 0 $39 $-1 #
edge $-1 $53 $91 $48 $92 0 #
coedge $-1 $93 $24 $77 $94 0 $33 $95 #
pcurve $-1 2 $54 -6.4919447595457314e-10 -1.5907630768197123e-10 #
vertex $-1 $45 $96 #
vertex $-1 $25 $97 #
intcurve-curve $-1 0 { surfintcur nubs 3 open 3 
	-20.574839095361483 3 -10.230895186655347 2 0 3 
	-30 -10 33.466345134179932 
	-30 -6.7003137719282897 32.565073618583284 
	-30 -3.3404825313512996 31.62403676212411 
	-30 3.3039744755714922 29.92631209903616 
	-30.000000000000004 6.6556863654766243 29.150273099657969 
	-30.000000000000004 10.000000000000002 28.48266433650091 
	4.6193673534376726e-05 
	plane -30 0 25 -1 0 0 0 0 -1 1 I I I I 
	spline 0 { ref 1 } I I I I 
	nullbs 
	nubs 3 open 3 
	-20.574839095361483 3 -10.230895186655347 3 0 3 
	22.804458420983455 41.243084366604762 
	22.804458420983455 44.135189262518573 
	22.804458420983455 47.084861381272866 
	22.804458420983455 50 
	22.804458420983455 52.91100054539357 
	22.804458420983451 55.845762753105362 
	22.804458420983451 58.756915633395238 
	
	} I I #
coedge $-1 $98 $99 $26 $56 1 $100 $-1 #
edge $-1 $60 $63 $26 $101 0 #
coedge $-1 $102 $27 $32 $69 1 $59 $-1 #
coedge $-1 $27 $102 $98 $103 0 $59 $-1 #
loop $-1 $-1 $57 $104 #
vertex $-1 $56 $105 #
straight-curve $-1 30 10 25 0 0 -1 I I #
coedge $-1 $78 $29 $99 $106 0 $20 $-1 #
vertex $-1 $30 $107 #
straight-curve $-1 30 -10 25 0 0 -1 I I #
coedge $-1 $108 $31 $109 $110 0 $33 $111 #
edge $-1 $36 $112 $31 $113 0 #
pcurve $-1 2 $113 0 0 #
coedge $-1 $32 $114 $115 $116 0 $33 $117 #
edge $-1 $118 $35 $32 $119 0 #
pcurve $-1 2 $119 0 0 #
face $-1 $120 $121 $2 $-1 $122 forward single #
point $-1 30 10 25.0167511403505 #
point $-1 30 -10 24.364232289349616 #
face $-1 $104 $100 $2 $-1 $76 forward single #
loop $-1 $-1 $123 $38 #
plane-surface $-1 0 0 0 0 0 1 1 0 0 0 I I I I #
coedge $-1 $48 $124 $50 $94 1 $39 $-1 #
coedge $-1 $41 $62 $125 $126 1 $20 $-1 #
coedge $-1 $43 $42 $127 $128 0 $12 $-1 #
coedge $-1 $129 $130 $42 $81 0 $131 $-1 #
edge $-1 $132 $84 $80 $133 0 #
coedge $-1 $44 $108 $129 $134 0 $33 $135 #
pcurve $-1 2 $85 -6.4919447595457314e-10 -1.5907630768197123e-10 #
vertex $-1 $134 $136 #
intcurve-curve $-1 0 { surfintcur nubs 3 open 2 
	-9.6747049276544175 3 0 3 
	-20 -9.9999999999999769 31.724689367714053 
	-23.443167527059099 -9.9999999999999769 32.504872221098381 
	-26.791480262702244 -10 33.141704256436654 
	-30 -10 33.466345134179932 
	0.00070193203692597936 
	plane 0 -10 25 0 -1 0 0 0 1 1 I I I I 
	spline 0 { ref 1 } I I I I 
	nullbs 
	nubs 3 open 2 
	-9.6747049276544175 3 0 3 
	32.270010691542574 41.243084366764201 
	28.762433446563733 41.243084366604762 
	25.701379484570619 41.243084366604762 
	22.804458420983455 41.243084366604762 
	
	} I I #
coedge $-1 $127 $137 $46 $87 1 $75 $-1 #
edge $-1 $88 $91 $46 $138 0 #
vertex $-1 $87 $139 #
straight-curve $-1 -30 -10 25 0 0 -1 I I #
coedge $-1 $124 $48 $137 $140 0 $39 $-1 #
vertex $-1 $140 $141 #
straight-curve $-1 -30 10 25 0 0 -1 I I #
coedge $-1 $114 $50 $142 $143 0 $33 $144 #
edge $-1 $53 $145 $50 $146 0 #
pcurve $-1 2 $146 -6.4919447595457314e-10 -1.5907630768197123e-10 #
point $-1 -30 -10 33.466345134179932 #
point $-1 -30 10 28.482664336500907 #
coedge $-1 $147 $55 $58 $103 1 $100 $-1 #
coedge $-1 $55 $147 $62 $106 1 $100 $-1 #
loop $-1 $-1 $147 $74 #
straight-curve $-1 30 0 0 0 -1 0 I I #
coedge $-1 $58 $57 $148 $149 1 $59 $-1 #
edge $-1 $150 $60 $58 $151 0 #
face $-1 $71 $59 $2 $-1 $40 forward single #
point $-1 30 10 0 #
edge $-1 $63 $152 $62 $153 0 #
point $-1 30 -10 0 #
coedge $-1 $82 $65 $154 $155 0 $33 $156 #
coedge $-1 $125 $157 $65 $110 1 $158 $-1 #
edge $-1 $112 $159 $65 $160 0 #
pcurve $-1 2 $160 0 0 #
vertex $-1 $126 $161 #
intcurve-curve $-1 0 { surfintcur nubs 3 open 2 
	-51.433089293173659 3 -43.500519935335447 3 
	30.000000000000007 -10 24.364232289349623 
	26.690708597857721 -10 24.318707870599319 
	23.347635465182414 -10 24.373103746239121 
	20 -10 24.537613479906277 
	0.00070193203692597936 
	plane 0 -10 25 0 -1 0 0 0 1 1 I I I I 
	spline 0 { ref 1 } I I I I 
	nullbs 
	nubs 3 open 2 
	-51.433089293173659 3 -43.500519935335447 3 
	77.195541579016549 41.243084366604762 
	74.198376079729059 41.243084366604762 
	71.178375253547287 41.243084366604762 
	67.729989309106614 41.243084366604755 
	
	} I I #
coedge $-1 $68 $93 $162 $163 0 $33 $164 #
coedge $-1 $165 $148 $68 $116 1 $158 $-1 #
edge $-1 $166 $118 $68 $167 0 #
pcurve $-1 2 $167 -6.4794392073963536e-10 -1.5407408682222012e-10 #
vertex $-1 $116 $168 #
intcurve-curve $-1 0 { surfintcur nubs 3 open 3 
	-17.688566263748836 3 -11.233550709934169 2 0 3 
	19.999999999999996 9.9999999999999858 24.063037485019439 
	20.959854882808028 9.9999999999999858 24.138749577271426 
	21.921660275589606 10.000000000000002 24.221165343984513 
	24.565891928209435 10.000000000000002 24.461338776349017 
	26.27559419814898 10.000000000000002 24.629184033486244 
	30.000000000000007 10.000000000000002 25.0167511403505 
	0.00073825933266092529 
	plane 0 10 25 0 1 0 0 0 -1 1 I I I I 
	spline 0 { ref 1 } I I I I 
	nullbs 
	nubs 3 open 3 
	-17.688566263748836 3 -11.233550709934169 3 0 3 
	67.729989309106429 58.756915633395231 
	68.653461439523085 58.756915633395238 
	69.523297170592699 58.756915633395238 
	70.396656184262412 58.756915633395238 
	72.000377343804217 58.756915633395238 
	73.634175360566772 58.756915633395238 
	77.195541579016549 58.756915633395238 
	
	} I I #
face $-1 $169 $170 $2 $-1 $171 forward single #
loop $-1 $33 $172 $71 #
spline-surface $-1 0 { ref 1 } I I I I #
coedge $-1 $137 $127 $130 $173 1 $75 $-1 #
coedge $-1 $77 $90 $174 $175 1 $39 $-1 #
coedge $-1 $176 $109 $78 $126 0 $158 $-1 #
edge $-1 $112 $152 $125 $177 0 #
coedge $-1 $123 $86 $79 $128 1 $75 $-1 #
edge $-1 $132 $88 $79 $153 0 #
coedge $-1 $178 $80 $82 $134 1 $131 $-1 #
coedge $-1 $80 $174 $123 $173 0 $131 $-1 #
loop $-1 $-1 $80 $179 #
vertex $-1 $173 $180 #
straight-curve $-1 -20 -10 12.5 0 0 1 I I #
edge $-1 $181 $84 $82 $182 0 #
pcurve $-1 2 $182 0 0 #
point $-1 -20 -9.9999999999999769 31.724689367714053 #
coedge $-1 $86 $123 $90 $140 1 $75 $-1 #
straight-curve $-1 -30 0 0 0 1 0 I I #
point $-1 -30 -10 0 #
edge $-1 $91 $183 $90 $151 0 #
point $-1 -30 10 0 #
coedge $-1 $174 $184 $93 $143 1 $131 $-1 #
edge $-1 $145 $185 $93 $186 0 #
pcurve $-1 2 $186 -6.4793681531227776e-10 -1.5407408682222012e-10 #
vertex $-1 $175 $187 #
intcurve-curve $-1 0 { surfintcur nubs 3 open 2 
	-129.8923965340918 3 -106.32283300182876 3 
	-30.000000000000004 10.000000000000002 28.48266433650091 
	-26.792797893536324 10.000000000000002 28.291245585532266 
	-23.442915422884411 10.000000000000124 27.800930759403531 
	-20 10.000000000000124 27.202137309742952 
	0.00073825933266092529 
	plane 0 10 25 0 1 0 0 0 -1 1 I I I I 
	spline 0 { ref 1 } I I I I 
	nullbs 
	nubs 3 open 2 
	-129.8923965340918 3 -106.32283300182876 3 
	22.804458420983451 58.756915633395238 
	25.685695836138798 58.756915633395245 
	28.723685847272435 58.756915633395252 
	32.270010690893379 58.756915633395344 
	
	} I I #
coedge $-1 $99 $98 $176 $188 1 $100 $-1 #
coedge $-1 $115 $176 $102 $149 0 $158 $-1 #
edge $-1 $150 $118 $148 $189 0 #
vertex $-1 $188 $190 #
straight-curve $-1 0 10 0 1 0 0 I I #
vertex $-1 $188 $191 #
straight-curve $-1 0 -10 0 -1 0 0 I I #
coedge $-1 $192 $193 $108 $155 1 $194 $-1 #
edge $-1 $159 $181 $108 $195 0 #
pcurve $-1 2 $195 0 0 #
coedge $-1 $109 $196 $192 $197 1 $158 $-1 #
loop $-1 $-1 $148 $169 #
vertex $-1 $155 $198 #
intcurve-curve $-1 0 { surfintcur nubs 3 open 2 
	-9.8801452667469469 3 0 3 
	20 -10 24.537613479906277 
	20 -13.388578187234005 24.96765118301796 
	19.999999999999993 -16.735923516127919 25.48752181714665 
	19.999999999999993 -20 25.92589163298225 
	5.2740413880046344e-05 
	plane 20 0 0 1 0 0 0 0 1 1 I I I I 
	spline 0 { ref 1 } I I I I 
	nullbs 
	nubs 3 open 2 
	-9.8801452667469469 3 0 3 
	67.729989309106614 41.243084366604826 
	67.729989309106628 38.147853016969165 
	67.729989309106628 35.171587906780665 
	67.729989309106614 32.270010690893379 
	
	} I I #
point $-1 20 -10 24.537613479906277 #
coedge $-1 $199 $200 $114 $163 1 $170 $-1 #
edge $-1 $185 $166 $114 $201 0 #
pcurve $-1 2 $201 -6.4793681531227776e-10 -1.5407408682222012e-10 #
coedge $-1 $196 $115 $200 $202 0 $158 $-1 #
vertex $-1 $163 $203 #
intcurve-curve $-1 0 { surfintcur nubs 3 open 2 
	-39.056130997307861 3 -29.167149763616671 3 
	19.999999999999993 19.999999999999993 25.349639024716463 
	19.999999999999993 16.737634899007755 24.837108121077247 
	19.999999999999996 13.390031002871728 24.372986372982425 
	19.999999999999996 9.9999999999999858 24.063037485019439 
	5.2740413880046344e-05 
	plane 20 0 0 1 0 0 0 0 1 1 I I I I 
	spline 0 { ref 1 } I I I I 
	nullbs 
	nubs 3 open 2 
	-39.056130997307861 3 -29.167149763616671 3 
	67.729989309106614 67.729989309106614 
	67.729989309106614 64.812405497321777 
	67.729989309106614 61.840378706893802 
	67.7299893091066 58.756915633395181 
	
	} I I #
point $-1 19.999999999999996 9.9999999999999858 24.063037485019439 #
face $-1 $204 $158 $2 $-1 $205 forward single #
loop $-1 $-1 $162 $120 #
plane-surface $-1 0 20 0 0 -1 0 0 0 -1 0 I I I I #
coedge $-1 $206 $207 $208 $209 0 $121 $210 #
edge $-1 $183 $132 $130 $211 0 #
coedge $-1 $130 $142 $124 $175 0 $131 $-1 #
edge $-1 $145 $183 $174 $212 0 #
coedge $-1 $148 $125 $147 $188 0 $158 $-1 #
straight-curve $-1 20 -10 12.5 0 0 -1 I I #
coedge $-1 $213 $129 $193 $214 0 $131 $-1 #
face $-1 $215 $131 $2 $-1 $216 forward single #
point $-1 -20 -10 0 #
vertex $-1 $155 $217 #
intcurve-curve $-1 0 { surfintcur nubs 3 open 2 
	-40.920950957410341 3 -30.388709878100212 3 
	-20.000000000000004 -20.000000000000004 34.275383736452277 
	-20.000000000000004 -16.735426034840593 33.524481363126085 
	-20 -13.388249969168932 32.6292441920465 
	-20 -9.9999999999999769 31.724689367714053 
	0.00017535115740544122 
	plane -20 0 0 -1 0 0 0 0 -1 1 I I I I 
	spline 0 { ref 1 } I I I I 
	nullbs 
	nubs 3 open 2 
	-40.920950957410341 3 -30.388709878100212 3 
	32.270010690893372 32.270010690893372 
	32.270010690893372 35.147520418642799 
	32.270010690893372 38.123238932340236 
	32.270010690893379 41.243084366605125 
	
	} I I #
vertex $-1 $173 $218 #
coedge $-1 $142 $213 $199 $219 1 $131 $-1 #
vertex $-1 $143 $220 #
intcurve-curve $-1 0 { surfintcur nubs 3 open 2 
	-10.00606398586431 3 0 3 
	-20 10.000000000000124 27.202137309742952 
	-20 13.331362172446884 26.659321649446454 
	-20 16.678422722784248 26.228736663496974 
	-20 19.999999999999993 25.92589163298225 
	0.00017535115740544122 
	plane -20 0 0 -1 0 0 0 0 -1 1 I I I I 
	spline 0 { ref 1 } I I I I 
	nullbs 
	nubs 3 open 2 
	-10.00606398586431 3 0 3 
	32.270010690892121 58.756915633390342 
	32.270010690893372 61.863351794237872 
	32.270010690893379 64.811455068739235 
	32.270010690893379 67.729989309106614 
	
	} I I #
point $-1 -20 10.000000000000124 27.202137309742952 #
edge $-1 $152 $150 $176 $221 0 #
straight-curve $-1 20 10 12.5 0 0 1 I I #
point $-1 20 10 0 #
point $-1 20 -10 0 #
coedge $-1 $222 $154 $157 $197 0 $194 $-1 #
coedge $-1 $154 $222 $178 $214 1 $194 $-1 #
loop $-1 $-1 $154 $204 #
intcurve-curve $-1 0 { surfintcur nubs 3 open 3 
	-39.045206156576697 3 -19.858212029346152 2 0 3 
	19.999999999999993 -20 25.92589163298225 
	13.324773213077307 -20 26.534505881955209 
	6.5465018302528888 -20.000000000000004 27.65825913849778 
	-6.7755178603595931 -20.000000000000004 30.744284170269921 
	-13.54904722944813 -20.000000000000004 32.791565082833245 
	-20.000000000000004 -20.000000000000004 34.275383736452277 
	0.00017535115740811077 
	plane 0 -20 0 0 -1 0 0 0 1 1 I I I I 
	spline 0 { ref 1 } I I I I 
	nullbs 
	nubs 3 open 3 
	-39.045206156576697 3 -19.858212029346152 3 0 3 
	67.729989309106614 32.270010690893379 
	61.864740268090273 32.270010690893379 
	55.880070292031533 32.270010690893372 
	49.999999999999986 32.270010690893372 
	44.025683752654807 32.270010690893372 
	37.956106196347385 32.270010690893372 
	32.270010690893372 32.270010690893372 
	
	} I I #
coedge $-1 $157 $165 $223 $224 1 $158 $-1 #
edge $-1 $159 $225 $157 $226 0 #
point $-1 20 -20 25.925891632982243 #
coedge $-1 $227 $162 $184 $219 0 $170 $-1 #
coedge $-1 $162 $227 $165 $202 1 $170 $-1 #
intcurve-curve $-1 0 { surfintcur nubs 3 open 3 
	-39.127848874638829 3 -19.569316733611224 2 0 3 
	-20 19.999999999999993 25.92589163298225 
	-13.5503447527791 19.999999999999993 25.059694349647351 
	-6.7755763615491542 19.999999999999993 23.875284571197962 
	6.7793124205770656 19.999999999999993 23.513526629557926 
	13.555934907540049 19.999999999999993 24.337250036143757 
	19.999999999999993 19.999999999999993 25.349639024716463 
	5.2740413876147838e-05 
	plane 0 20 0 0 1 0 0 0 -1 1 I I I I 
	spline 0 { ref 1 } I I I I 
	nullbs 
	nubs 3 open 3 
	-39.127848874638829 3 -19.569316733611224 3 0 3 
	32.270010690893379 67.729989309106614 
	38.003385140950364 67.729989309106614 
	44.028369692563182 67.729989309106614 
	49.999999999999993 67.729989309106614 
	55.991513604311379 67.729989309106614 
	61.966961746639541 67.729989309106614 
	67.729989309106614 67.729989309106614 
	
	} I I #
edge $-1 $166 $228 $165 $229 0 #
point $-1 20 20 25.349639024716467 #
face $-1 $179 $194 $2 $-1 $230 forward single #
plane-surface $-1 20 0 0 -1 0 0 0 0 1 0 I I I I #
coedge $-1 $231 $172 $232 $233 0 $121 $234 #
coedge $-1 $172 $231 $235 $236 0 $121 $237 #
coedge $-1 $238 $239 $172 $209 1 $240 $-1 #
edge $-1 $241 $242 $208 $243 0 #
pcurve $-1 1 $243 0 0 #
straight-curve $-1 -20 0 0 0 -1 0 I I #
straight-curve $-1 -20 10 12.5 0 0 -1 I I #
coedge $-1 $184 $178 $244 $245 1 $131 $-1 #
edge $-1 $181 $246 $178 $247 0 #
face $-1 $248 $249 $2 $-1 $250 reversed single #
plane-surface $-1 -20 0 0 1 0 0 0 0 -1 0 I I I I #
point $-1 -20 -20 34.27538373645227 #
point $-1 -20 10 0 #
edge $-1 $185 $251 $199 $252 0 #
point $-1 -20 20 25.925891632982243 #
straight-curve $-1 20 0 0 0 1 0 I I #
coedge $-1 $193 $192 $253 $254 1 $194 $-1 #
coedge $-1 $255 $253 $196 $224 0 $249 $-1 #
edge $-1 $225 $228 $223 $256 0 #
vertex $-1 $254 $257 #
straight-curve $-1 20 -20 0 0 0 -1 I I #
coedge $-1 $200 $199 $255 $258 1 $170 $-1 #
vertex $-1 $258 $259 #
straight-curve $-1 20 20 0 0 0 -1 I I #
plane-surface $-1 0 -20 0 0 1 0 0 0 1 0 I I I I #
coedge $-1 $207 $206 $260 $261 0 $121 $262 #
coedge $-1 $263 $264 $206 $233 1 $265 $-1 #
edge $-1 $242 $266 $232 $267 1 #
pcurve $-1 -2 $267 0 0 #
coedge $-1 $268 $269 $207 $236 1 $270 $-1 #
edge $-1 $271 $241 $235 $272 0 #
pcurve $-1 1 $272 0 0 #
coedge $-1 $273 $208 $269 $274 0 $240 $-1 #
coedge $-1 $208 $273 $263 $275 1 $240 $-1 #
loop $-1 $-1 $238 $276 #
vertex $-1 $209 $277 #
vertex $-1 $209 $278 #
intcurve-curve $-1 0 { exactcur nubs 3 open 3 
	0 3 50 1 100 3 
	50 -50 25 
	50 -38.214886980224207 36.785113019775793 
	50.000000000000007 0 13.214886980224211 
	50 38.214886980224207 36.785113019775793 
	50 50 25 
	0 
	spline 0 { ref 1 } I I I I 
	plane 50 0 0 1 0 0 0 0 1 1 I I I I 
	nubs 1 open 2 
	0 1 100 1 
	100 0 
	100 100 
	
	nullbs 
	} I I #
coedge $-1 $253 $255 $213 $245 0 $249 $-1 #
edge $-1 $251 $246 $244 $279 0 #
vertex $-1 $254 $280 #
straight-curve $-1 -20 -20 0 0 0 -1 I I #
face $-1 $281 $270 $2 $-1 $282 reversed single #
loop $-1 $283 $253 $215 #
plane-surface $-1 0 0 -25 0 0 1 1 0 0 0 I I I I #
vertex $-1 $245 $284 #
straight-curve $-1 -20 20 0 0 0 -1 I I #
coedge $-1 $223 $244 $222 $254 0 $249 $-1 #
edge $-1 $246 $225 $253 $285 0 #
coedge $-1 $244 $223 $227 $258 0 $249 $-1 #
straight-curve $-1 20 0 -25 0 1 0 I I #
point $-1 20 -20 -25 #
edge $-1 $228 $251 $255 $286 0 #
point $-1 20 20 -25 #
coedge $-1 $287 $288 $231 $261 1 $289 $-1 #
edge $-1 $266 $271 $260 $290 1 #
pcurve $-1 -2 $290 0 0 #
coedge $-1 $291 $232 $239 $275 0 $265 $-1 #
coedge $-1 $232 $291 $287 $292 1 $265 $-1 #
loop $-1 $-1 $263 $293 #
vertex $-1 $233 $294 #
intcurve-curve $-1 0 { exactcur nubs 3 open 3 
	0 3 50 1 100 3 
	-50 50 25 
	-38.214886980224207 50 36.785113019775793 
	0 50.000000000000007 13.214886980224211 
	38.214886980224207 50 36.785113019775793 
	50 50 25 
	0 
	plane 0 50 0 0 1 0 0 0 -1 1 I I I I 
	spline 0 { ref 1 } I I I I 
	nullbs 
	nubs 1 open 2 
	0 1 100 1 
	0 100 
	100 100 
	
	} I I #
coedge $-1 $295 $235 $288 $296 0 $270 $-1 #
coedge $-1 $235 $295 $238 $274 1 $270 $-1 #
loop $-1 $-1 $268 $248 #
vertex $-1 $261 $297 #
intcurve-curve $-1 0 { exactcur nubs 3 open 3 
	0 3 50 1 100 3 
	-50 -50 25 
	-38.214886980224207 -50 36.785113019775793 
	0 -50.000000000000007 25.000000000000004 
	38.214886980224207 -50 13.214886980224207 
	50 -50 25 
	0 
	spline 0 { ref 1 } I I I I 
	plane 0 -50 0 0 -1 0 0 0 1 1 I I I I 
	nubs 1 open 2 
	0 1 100 1 
	0 0 
	100 0 
	
	nullbs 
	} I I #
coedge $-1 $239 $238 $298 $299 1 $240 $-1 #
edge $-1 $241 $300 $238 $301 0 #
edge $-1 $242 $302 $239 $303 0 #
face $-1 $-1 $240 $2 $-1 $304 reversed single #
point $-1 50 -50 25 #
point $-1 50 50 25 #
straight-curve $-1 -20 0 -25 0 -1 0 I I #
point $-1 -20 -20 -25 #
face $-1 $293 $289 $2 $-1 $305 reversed single #
plane-surface $-1 0 -50 0 0 1 0 0 0 1 0 I I I I #
loop $-1 $-1 $298 $215 #
point $-1 -20 20 -25 #
straight-curve $-1 0 -20 -25 1 0 0 I I #
straight-curve $-1 0 20 -25 -1 0 0 I I #
coedge $-1 $306 $260 $264 $292 0 $289 $-1 #
coedge $-1 $260 $306 $268 $296 1 $289 $-1 #
loop $-1 $-1 $287 $281 #
intcurve-curve $-1 0 { exactcur nubs 3 open 3 
	0 3 50 1 100 3 
	-50 -50 25 
	-50 -38.214886980224207 36.785113019775793 
	-50.000000000000007 0 25.000000000000004 
	-50 38.214886980224207 13.214886980224207 
	-50 50 25 
	0 
	plane -50 0 0 -1 0 0 0 0 -1 1 I I I I 
	spline 0 { ref 1 } I I I I 
	nullbs 
	nubs 1 open 2 
	0 1 100 1 
	0 0 
	0 100 
	
	} I I #
coedge $-1 $264 $263 $307 $308 1 $265 $-1 #
edge $-1 $266 $309 $264 $310 0 #
face $-1 $276 $265 $2 $-1 $311 reversed single #
point $-1 -50 50 25 #
coedge $-1 $269 $268 $312 $313 1 $270 $-1 #
edge $-1 $271 $314 $288 $315 0 #
point $-1 -50 -50 25 #
coedge $-1 $312 $307 $273 $299 0 $283 $-1 #
edge $-1 $302 $300 $273 $316 0 #
vertex $-1 $274 $317 #
straight-curve $-1 50 -50 0 0 0 -1 I I #
vertex $-1 $299 $318 #
straight-curve $-1 50 50 0 0 0 -1 I I #
plane-surface $-1 50 0 0 -1 0 0 0 0 1 0 I I I I #
plane-surface $-1 -50 0 0 1 0 0 0 0 -1 0 I I I I #
coedge $-1 $288 $287 $319 $320 1 $289 $-1 #
coedge $-1 $298 $319 $291 $308 0 $283 $-1 #
edge $-1 $309 $302 $291 $321 0 #
vertex $-1 $308 $322 #
straight-curve $-1 -50 50 0 0 0 -1 I I #
plane-surface $-1 0 50 0 0 -1 0 0 0 -1 0 I I I I #
coedge $-1 $319 $298 $295 $313 0 $283 $-1 #
edge $-1 $300 $314 $295 $323 0 #
vertex $-1 $320 $324 #
straight-curve $-1 -50 -50 0 0 0 -1 I I #
straight-curve $-1 50 0 -25 0 -1 0 I I #
point $-1 50 -50 -25 #
point $-1 50 50 -25 #
coedge $-1 $307 $312 $306 $320 0 $283 $-1 #
edge $-1 $314 $309 $306 $325 0 #
straight-curve $-1 0 50 -25 1 0 0 I I #
point $-1 -50 50 -25 #
straight-curve $-1 0 -50 -25 -1 0 0 I I #
point $-1 -50 -50 -25 #
straight-curve $-1 -50 0 -25 0 1 0 I I #
End-of-ACIS-data 