600 0 1 0           
81 GICL ACIS Healer - Source: /gicl/data5/repository/Heriot_Watt/ex22/ex22.sat - 6 0 18 ACIS 6.0.3 Solaris 24 Sat Apr 13 23:38:51 2002 
1 9.999999999999999547e-07 1.000000000000000036e-10 
body $-1 $1 $-1 $-1 #
lump $-1 $-1 $2 $0 #
shell $-1 $-1 $-1 $3 $-1 $1 #
face $-1 $4 $5 $2 $-1 $6 forward single #
face $-1 $7 $8 $2 $-1 $9 forward single #
loop $-1 $-1 $10 $3 #
plane-surface $-1 30 0 25 -1 0 0 0 0 1 forward_v I I I I #
face $-1 $11 $12 $2 $-1 $13 forward single #
loop $-1 $-1 $14 $4 #
plane-surface $-1 -30 0 25 1 0 0 0 0 -1 forward_v I I I I #
coedge $-1 $15 $16 $17 $18 reversed $5 $-1 #
face $-1 $19 $20 $2 $-1 $13 forward single #
loop $-1 $-1 $21 $7 #
plane-surface $-1 0 -10 25 0 1 0 0 0 1 forward_v I I I I #
coedge $-1 $22 $23 $24 $25 reversed $8 $-1 #
coedge $-1 $26 $10 $27 $28 forward $5 $-1 #
coedge $-1 $10 $26 $29 $30 reversed $5 $-1 #
coedge $-1 $31 $32 $10 $18 forward $33 $34 #
edge $-1 $35 -20.07770994008647136 $36 0 $17 $37 forward 7 unknown #
face $-1 $38 $39 $2 $-1 $40 forward single #
loop $-1 $-1 $41 $11 #
coedge $-1 $42 $43 $44 $45 reversed $12 $-1 #
coedge $-1 $46 $14 $43 $47 forward $8 $-1 #
coedge $-1 $14 $46 $48 $49 reversed $8 $-1 #
coedge $-1 $50 $44 $14 $25 forward $33 $51 #
edge $-1 $52 -20.57483909536148303 $53 0 $24 $54 forward 7 unknown #
coedge $-1 $16 $15 $55 $56 forward $5 $-1 #
coedge $-1 $57 $58 $15 $28 reversed $59 $-1 #
edge $-1 $35 -0.01675114035050029315 $60 25 $15 $61 forward 7 unknown #
coedge $-1 $62 $41 $16 $30 forward $20 $-1 #
edge $-1 $36 0.6357677106503842879 $63 25 $16 $64 forward 7 unknown #
coedge $-1 $65 $17 $41 $66 forward $33 $67 #
coedge $-1 $17 $68 $57 $69 forward $33 $70 #
loop $-1 $-1 $32 $71 #
pcurve $-1 0 forward { exppc nubs 1 open 2 
	-20.07770994008647136 1 -3.552713678800500929e-15 1 
	77.19554157901654889 58.75691563339523782 
	77.19554157901654889 41.24308436660476218 
	4.41034757612351712e-05 
	spline forward { exactsur full nubs 3 3 open open none none 3 3 
	0 3 50 1 100 3 
	0 3 50 1 100 3 
	-50 -50 25 
	-38.21488698022420749 -50 36.78511301977579251 
	0 -50.00000000000000711 25.00000000000000355 
	38.21488698022420749 -50 13.21488698022420749 
	50 -50 25 
	-50 -38.21488698022420749 36.78511301977579251 
	-38.21488698022420749 -38.21488698022420749 48.57022603955158502 
	0 -38.21488698022420749 34.82092751647982709 
	38.21488698022420749 -38.21488698022420749 28.92837100659193084 
	50 -38.21488698022420749 36.78511301977579251 
	-50.00000000000000711 0 25.00000000000000355 
	-38.21488698022420749 0 34.82092751647982709 
	0 0 13.21488698022421104 
	38.21488698022420749 0 15.17907248352017646 
	50.00000000000000711 0 13.21488698022421104 
	-50 38.21488698022420749 13.21488698022420749 
	-38.21488698022420749 38.21488698022420749 28.92837100659193084 
	0 38.21488698022420749 15.17907248352017646 
	38.21488698022420749 38.21488698022420749 40.71348402636772335 
	50 38.21488698022420749 36.78511301977579251 
	-50 50 25 
	-38.21488698022420749 50 36.78511301977579251 
	0 50.00000000000000711 13.21488698022421104 
	38.21488698022420749 50 36.78511301977579251 
	50 50 25 
	0 
	0 
	0 
	1 50 
	0 
	0 
	1 50 
	F 1 F 0 F 1 F 0 } I I I I 
	} 0 0 #
vertex $-1 $69 $72 #
vertex $-1 $66 $73 #
intcurve-curve $-1 forward { surfintcur full nubs 3 open 3 
	-20.07770994008647136 3 -10.0196377622425512 2 0 3 
	30.00000000000000711 10.00000000000000178 25.01675114035050029 
	30.00000000000000711 6.694124793964599363 24.48227093694841372 
	30.00000000000000711 3.347356934614283741 24.10151075551997124 
	30.00000000000000711 -3.334565844501161003 23.89877491894570838 
	30.00000000000000711 -6.672739616714686406 24.0741775123509818 
	30.00000000000000711 -10 24.36423228934962282 
	4.41034757612351712e-05 
	plane 30 0 25 1 0 0 0 0 1 reverse_v I I I I 
	spline forward { ref 1 } I I I I 
	nullbs 
	nubs 3 open 3 
	-20.07770994008647136 3 -10.0196377622425512 3 0 3 
	77.19554157901654889 58.75691563339523782 
	77.19554157901654889 55.83944022197015755 
	77.19554157901654889 52.91755778948377298 
	77.19554157901654889 50 
	77.19554157901654889 47.08054152639896728 
	77.19554157901654889 44.16584980399201754 
	77.19554157901654889 41.24308436660476218 
	
	I I 
	0 
	0 
	1 -10.0196377622425512 
	} I I #
face $-1 $74 $75 $2 $-1 $76 forward single #
loop $-1 $-1 $77 $19 #
plane-surface $-1 0 10 25 0 -1 0 0 0 -1 forward_v I I I I #
coedge $-1 $29 $78 $31 $66 reversed $20 $-1 #
coedge $-1 $79 $21 $80 $81 reversed $12 $-1 #
coedge $-1 $21 $79 $22 $47 reversed $12 $-1 #
coedge $-1 $24 $82 $21 $45 forward $33 $83 #
edge $-1 $84 -9.674704927654417475 $52 0 $44 $85 forward 7 unknown #
coedge $-1 $23 $22 $86 $87 forward $8 $-1 #
edge $-1 $52 -8.46634513417993162 $88 25 $22 $89 forward 7 unknown #
coedge $-1 $90 $77 $23 $49 forward $39 $-1 #
edge $-1 $53 -3.482664336500906899 $91 25 $48 $92 forward 7 unknown #
coedge $-1 $93 $24 $77 $94 forward $33 $95 #
pcurve $-1 0 forward { exppc nubs 1 open 2 
	-20.57483909536148303 1 0 1 
	22.80445842098345466 41.24308436660476218 
	22.80445842098345111 58.75691563339523782 
	4.619367354148215321e-05 
	spline forward { ref 1 } I I I I 
	} 0 0 #
vertex $-1 $45 $96 #
vertex $-1 $25 $97 #
intcurve-curve $-1 forward { surfintcur full nubs 3 open 3 
	-20.57483909536148303 3 -10.23089518665534747 2 0 3 
	-30 -10 33.46634513417993162 
	-30 -6.700313771928289697 32.56507361858328409 
	-30 -3.340482531351299578 31.62403676212410986 
	-30 3.303974475571492153 29.92631209903615996 
	-30.00000000000000355 6.655686365476624289 29.15027309965796931 
	-30.00000000000000355 10.00000000000000178 28.48266433650091045 
	4.619367353437672585e-05 
	plane -30 0 25 -1 0 0 0 0 -1 reverse_v I I I I 
	spline forward { ref 1 } I I I I 
	nullbs 
	nubs 3 open 3 
	-20.57483909536148303 3 -10.23089518665534747 3 0 3 
	22.80445842098345466 41.24308436660476218 
	22.80445842098345466 44.13518926251857266 
	22.80445842098345466 47.0848613812728658 
	22.80445842098345466 50 
	22.80445842098345466 52.91100054539356989 
	22.80445842098345111 55.84576275310536175 
	22.80445842098345111 58.75691563339523782 
	
	I I 
	0 
	0 
	1 -10.23089518665534747 
	} I I #
coedge $-1 $98 $99 $26 $56 reversed $100 $-1 #
edge $-1 $60 -10 $63 10 $26 $101 forward 7 unknown #
coedge $-1 $102 $27 $32 $69 reversed $59 $-1 #
coedge $-1 $27 $102 $98 $103 forward $59 $-1 #
loop $-1 $-1 $57 $104 #
vertex $-1 $56 $105 #
straight-curve $-1 30 10 25 0 0 -1 I I #
coedge $-1 $78 $29 $99 $106 forward $20 $-1 #
vertex $-1 $30 $107 #
straight-curve $-1 30 -10 25 0 0 -1 I I #
coedge $-1 $108 $31 $109 $110 forward $33 $111 #
edge $-1 $36 -51.43308929317365852 $112 -43.50051993533544703 $31 $113 forward 7 unknown #
pcurve $-1 0 forward { exppc nubs 1 open 2 
	-51.43308929317365852 1 -43.50051993533544703 1 
	77.19554157901654889 41.24308436660476218 
	67.72998930910661386 41.24308436660475508 
	0.0007019320369259793649 
	spline forward { ref 1 } I I I I 
	} 0 0 #
coedge $-1 $32 $114 $115 $116 forward $33 $117 #
edge $-1 $118 -17.68856626374883589 $35 0 $32 $119 forward 7 unknown #
pcurve $-1 0 forward { exppc nubs 1 open 2 
	-17.68856626374883589 1 0 1 
	67.72998930910642912 58.75691563339523071 
	77.19554157901654889 58.75691563339523782 
	0.0007382593326698070734 
	spline forward { ref 1 } I I I I 
	} 0 0 #
face $-1 $120 $121 $2 $-1 $122 forward single #
point $-1 30 10 25.01675114035050029 #
point $-1 30 -10 24.36423228934961571 #
face $-1 $104 $100 $2 $-1 $76 forward single #
loop $-1 $-1 $123 $38 #
plane-surface $-1 0 0 0 0 0 1 1 0 0 forward_v I I I I #
coedge $-1 $48 $124 $50 $94 reversed $39 $-1 #
coedge $-1 $41 $62 $125 $126 reversed $20 $-1 #
coedge $-1 $43 $42 $127 $128 forward $12 $-1 #
coedge $-1 $129 $130 $42 $81 forward $131 $-1 #
edge $-1 $132 -12.5 $84 19.22468936771405268 $80 $133 forward 7 unknown #
coedge $-1 $44 $108 $129 $134 forward $33 $135 #
pcurve $-1 0 forward { exppc nubs 1 open 2 
	-9.674704927654417475 1 1.776356839400250465e-15 1 
	32.27001069154257351 41.24308436676420087 
	22.80445842098345466 41.24308436660476218 
	0.0007019321019857011892 
	spline forward { ref 1 } I I I I 
	} 0 0 #
vertex $-1 $134 $136 #
intcurve-curve $-1 forward { surfintcur full nubs 3 open 2 
	-9.674704927654417475 3 0 3 
	-20 -9.999999999999976907 31.72468936771405268 
	-23.44316752705909934 -9.999999999999976907 32.50487222109838115 
	-26.79148026270224392 -10 33.14170425643665396 
	-30 -10 33.46634513417993162 
	0.0007019320369259793649 
	plane 0 -10 25 0 -1 0 0 0 1 reverse_v I I I I 
	spline forward { ref 1 } I I I I 
	nullbs 
	nubs 3 open 2 
	-9.674704927654417475 3 0 3 
	32.27001069154257351 41.24308436676420087 
	28.76243344656373324 41.24308436660476218 
	25.70137948457061938 41.24308436660476218 
	22.80445842098345466 41.24308436660476218 
	
	I I 
	0 
	0 
	0 
	} I I #
coedge $-1 $127 $137 $46 $87 reversed $75 $-1 #
edge $-1 $88 -10 $91 10 $46 $138 forward 7 unknown #
vertex $-1 $87 $139 #
straight-curve $-1 -30 -10 25 0 0 -1 I I #
coedge $-1 $124 $48 $137 $140 forward $39 $-1 #
vertex $-1 $140 $141 #
straight-curve $-1 -30 10 25 0 0 -1 I I #
coedge $-1 $114 $50 $142 $143 forward $33 $144 #
edge $-1 $53 -129.8923965340918016 $145 -106.3228330018287551 $50 $146 forward 7 unknown #
pcurve $-1 0 forward { exppc nubs 1 open 2 
	-129.8923965340918016 1 -106.3228330018287551 1 
	22.80445842098345111 58.75691563339523782 
	32.27001069089337904 58.7569156333953444 
	0.0007382593326878064558 
	spline forward { ref 1 } I I I I 
	} 0 0 #
point $-1 -30 -10 33.46634513417993162 #
point $-1 -30 10 28.4826643365009069 #
coedge $-1 $147 $55 $58 $103 reversed $100 $-1 #
coedge $-1 $55 $147 $62 $106 reversed $100 $-1 #
loop $-1 $-1 $147 $74 #
straight-curve $-1 30 0 0 0 -1 0 I I #
coedge $-1 $58 $57 $148 $149 reversed $59 $-1 #
edge $-1 $150 20 $60 30 $58 $151 forward 7 unknown #
face $-1 $71 $59 $2 $-1 $40 forward single #
point $-1 30 10 0 #
edge $-1 $63 -30 $152 -20 $62 $153 forward 7 unknown #
point $-1 30 -10 0 #
coedge $-1 $82 $65 $154 $155 forward $33 $156 #
coedge $-1 $125 $157 $65 $110 reversed $158 $-1 #
edge $-1 $112 -9.88014526674694693 $159 0 $65 $160 forward 7 unknown #
pcurve $-1 0 forward { exppc nubs 1 open 2 
	-9.88014526674694693 1 0 1 
	67.72998930910661386 41.24308436660482613 
	67.72998930910661386 32.27001069089337904 
	5.2740413880046344e-05 
	spline forward { ref 1 } I I I I 
	} 0 0 #
vertex $-1 $126 $161 #
intcurve-curve $-1 forward { surfintcur full nubs 3 open 2 
	-51.43308929317365852 3 -43.50051993533544703 3 
	30.00000000000000711 -10 24.36423228934962282 
	26.69070859785772143 -10 24.31870787059931871 
	23.34763546518241384 -10 24.37310374623912068 
	20 -10 24.53761347990627684 
	0.0007019320369259793649 
	plane 0 -10 25 0 -1 0 0 0 1 reverse_v I I I I 
	spline forward { ref 1 } I I I I 
	nullbs 
	nubs 3 open 2 
	-51.43308929317365852 3 -43.50051993533544703 3 
	77.19554157901654889 41.24308436660476218 
	74.19837607972905857 41.24308436660476218 
	71.17837525354728712 41.24308436660476218 
	67.72998930910661386 41.24308436660475508 
	
	I I 
	0 
	0 
	0 
	} I I #
coedge $-1 $68 $93 $162 $163 forward $33 $164 #
coedge $-1 $165 $148 $68 $116 reversed $158 $-1 #
edge $-1 $166 -39.05613099730786075 $118 -29.16714976361667055 $68 $167 forward 7 unknown #
pcurve $-1 0 forward { exppc nubs 1 open 2 
	-39.05613099730786075 1 -29.16714976361667055 1 
	67.72998930910661386 67.72998930910661386 
	67.72998930910659965 58.75691563339518098 
	5.2740413880046344e-05 
	spline forward { ref 1 } I I I I 
	} 0 0 #
vertex $-1 $116 $168 #
intcurve-curve $-1 forward { surfintcur full nubs 3 open 3 
	-17.68856626374883589 3 -11.23355070993416938 2 0 3 
	19.99999999999999645 9.999999999999985789 24.06303748501943929 
	20.95985488280802755 9.999999999999985789 24.13874957727142601 
	21.9216602755896055 10.00000000000000178 24.22116534398451293 
	24.56589192820943524 10.00000000000000178 24.46133877634901665 
	26.27559419814897979 10.00000000000000178 24.62918403348624352 
	30.00000000000000711 10.00000000000000178 25.01675114035050029 
	0.0007382593326609252892 
	plane 0 10 25 0 1 0 0 0 -1 reverse_v I I I I 
	spline forward { ref 1 } I I I I 
	nullbs 
	nubs 3 open 3 
	-17.68856626374883589 3 -11.23355070993416938 3 0 3 
	67.72998930910642912 58.75691563339523071 
	68.65346143952308466 58.75691563339523782 
	69.52329717059269854 58.75691563339523782 
	70.39665618426241167 58.75691563339523782 
	72.00037734380421739 58.75691563339523782 
	73.63417536056677193 58.75691563339523782 
	77.19554157901654889 58.75691563339523782 
	
	I I 
	0 
	0 
	0 
	} I I #
face $-1 $169 $170 $2 $-1 $171 forward single #
loop $-1 $33 $172 $71 #
spline-surface $-1 forward { ref 1 } I I I I #
coedge $-1 $137 $127 $130 $173 reversed $75 $-1 #
coedge $-1 $77 $90 $174 $175 reversed $39 $-1 #
coedge $-1 $176 $109 $78 $126 forward $158 $-1 #
edge $-1 $112 -12.03761347990627684 $152 12.5 $125 $177 forward 7 unknown #
coedge $-1 $123 $86 $79 $128 reversed $75 $-1 #
edge $-1 $132 20 $88 30 $79 $153 forward 7 unknown #
coedge $-1 $178 $80 $82 $134 reversed $131 $-1 #
coedge $-1 $80 $174 $123 $173 forward $131 $-1 #
loop $-1 $-1 $80 $179 #
vertex $-1 $173 $180 #
straight-curve $-1 -20 -10 12.5 0 0 1 I I #
edge $-1 $181 -40.92095095741034072 $84 -30.38870987810021163 $82 $182 forward 7 unknown #
pcurve $-1 0 forward { exppc nubs 1 open 2 
	-40.92095095741034072 1 -30.38870987810021163 1 
	32.27001069089337193 32.27001069089337193 
	32.27001069089337904 41.24308436660512456 
	0.0001753511574054412157 
	spline forward { ref 1 } I I I I 
	} 0 0 #
point $-1 -20 -9.999999999999976907 31.72468936771405268 #
coedge $-1 $86 $123 $90 $140 reversed $75 $-1 #
straight-curve $-1 -30 0 0 0 1 0 I I #
point $-1 -30 -10 0 #
edge $-1 $91 -30 $183 -20 $90 $151 forward 7 unknown #
point $-1 -30 10 0 #
coedge $-1 $174 $184 $93 $143 reversed $131 $-1 #
edge $-1 $145 -10.00606398586431034 $185 0 $93 $186 forward 7 unknown #
pcurve $-1 0 forward { exppc nubs 1 open 2 
	-10.00606398586431034 1 0 1 
	32.27001069089212137 58.75691563339034218 
	32.27001069089337904 67.72998930910661386 
	0.0001753511579089248095 
	spline forward { ref 1 } I I I I 
	} 0 0 #
vertex $-1 $175 $187 #
intcurve-curve $-1 forward { surfintcur full nubs 3 open 2 
	-129.8923965340918016 3 -106.3228330018287551 3 
	-30.00000000000000355 10.00000000000000178 28.48266433650091045 
	-26.79279789353632424 10.00000000000000178 28.2912455855322662 
	-23.44291542288441121 10.00000000000012434 27.80093075940353131 
	-20 10.00000000000012434 27.20213730974295174 
	0.0007382593326609252892 
	plane 0 10 25 0 1 0 0 0 -1 reverse_v I I I I 
	spline forward { ref 1 } I I I I 
	nullbs 
	nubs 3 open 2 
	-129.8923965340918016 3 -106.3228330018287551 3 
	22.80445842098345111 58.75691563339523782 
	25.68569583613879814 58.75691563339524492 
	28.72368584727243501 58.75691563339525203 
	32.27001069089337904 58.7569156333953444 
	
	I I 
	0 
	0 
	0 
	} I I #
coedge $-1 $99 $98 $176 $188 reversed $100 $-1 #
coedge $-1 $115 $176 $102 $149 forward $158 $-1 #
edge $-1 $150 -12.5 $118 11.56303748501943929 $148 $189 forward 7 unknown #
vertex $-1 $188 $190 #
straight-curve $-1 0 10 0 1 0 0 I I #
vertex $-1 $188 $191 #
straight-curve $-1 0 -10 0 -1 0 0 I I #
coedge $-1 $192 $193 $108 $155 reversed $194 $-1 #
edge $-1 $159 -39.0452061565766968 $181 0 $108 $195 forward 7 unknown #
pcurve $-1 0 forward { exppc nubs 1 open 2 
	-39.0452061565766968 1 0 1 
	67.72998930910661386 32.27001069089337904 
	32.27001069089337193 32.27001069089337193 
	0.0001753511574187689064 
	spline forward { ref 1 } I I I I 
	} 0 0 #
coedge $-1 $109 $196 $192 $197 reversed $158 $-1 #
loop $-1 $-1 $148 $169 #
vertex $-1 $155 $198 #
intcurve-curve $-1 forward { surfintcur full nubs 3 open 2 
	-9.88014526674694693 3 0 3 
	20 -10 24.53761347990627684 
	20 -13.38857818723400506 24.96765118301795994 
	19.99999999999999289 -16.73592351612791873 25.48752181714664999 
	19.99999999999999289 -20 25.92589163298224975 
	5.2740413880046344e-05 
	plane 20 0 0 1 0 0 0 0 1 reverse_v I I I I 
	spline forward { ref 1 } I I I I 
	nullbs 
	nubs 3 open 2 
	-9.88014526674694693 3 0 3 
	67.72998930910661386 41.24308436660482613 
	67.72998930910662807 38.1478530169691652 
	67.72998930910662807 35.17158790678066538 
	67.72998930910661386 32.27001069089337904 
	
	I I 
	0 
	0 
	0 
	} I I #
point $-1 20 -10 24.53761347990627684 #
coedge $-1 $199 $200 $114 $163 reversed $170 $-1 #
edge $-1 $185 -39.1278488746388291 $166 0 $114 $201 forward 7 unknown #
pcurve $-1 0 forward { exppc nubs 1 open 2 
	-39.1278488746388291 1 0 1 
	32.27001069089337904 67.72998930910661386 
	67.72998930910661386 67.72998930910661386 
	5.274041387614783759e-05 
	spline forward { ref 1 } I I I I 
	} 0 0 #
coedge $-1 $196 $115 $200 $202 forward $158 $-1 #
vertex $-1 $163 $203 #
intcurve-curve $-1 forward { surfintcur full nubs 3 open 2 
	-39.05613099730786075 3 -29.16714976361667055 3 
	19.99999999999999289 19.99999999999999289 25.34963902471646335 
	19.99999999999999289 16.73763489900775525 24.83710812107724664 
	19.99999999999999645 13.39003100287172821 24.37298637298242454 
	19.99999999999999645 9.999999999999985789 24.06303748501943929 
	5.2740413880046344e-05 
	plane 20 0 0 1 0 0 0 0 1 reverse_v I I I I 
	spline forward { ref 1 } I I I I 
	nullbs 
	nubs 3 open 2 
	-39.05613099730786075 3 -29.16714976361667055 3 
	67.72998930910661386 67.72998930910661386 
	67.72998930910661386 64.81240549732177669 
	67.72998930910661386 61.84037870689380156 
	67.72998930910659965 58.75691563339518098 
	
	I I 
	0 
	0 
	0 
	} I I #
point $-1 19.99999999999999645 9.999999999999985789 24.06303748501943929 #
face $-1 $204 $158 $2 $-1 $205 forward single #
loop $-1 $-1 $162 $120 #
plane-surface $-1 0 20 0 0 -1 0 0 0 -1 forward_v I I I I #
coedge $-1 $206 $207 $208 $209 forward $121 $210 #
edge $-1 $183 -10 $132 10 $130 $211 forward 7 unknown #
coedge $-1 $130 $142 $124 $175 forward $131 $-1 #
edge $-1 $145 -14.70213730974295174 $183 12.5 $174 $212 forward 7 unknown #
coedge $-1 $148 $125 $147 $188 forward $158 $-1 #
straight-curve $-1 20 -10 12.5 0 0 -1 I I #
coedge $-1 $213 $129 $193 $214 forward $131 $-1 #
face $-1 $215 $131 $2 $-1 $216 forward single #
point $-1 -20 -10 0 #
vertex $-1 $155 $217 #
intcurve-curve $-1 forward { surfintcur full nubs 3 open 2 
	-40.92095095741034072 3 -30.38870987810021163 3 
	-20.00000000000000355 -20.00000000000000355 34.27538373645227665 
	-20.00000000000000355 -16.73542603484059299 33.5244813631260854 
	-20 -13.38824996916893184 32.62924419204649951 
	-20 -9.999999999999976907 31.72468936771405268 
	0.0001753511574054412157 
	plane -20 0 0 -1 0 0 0 0 -1 reverse_v I I I I 
	spline forward { ref 1 } I I I I 
	nullbs 
	nubs 3 open 2 
	-40.92095095741034072 3 -30.38870987810021163 3 
	32.27001069089337193 32.27001069089337193 
	32.27001069089337193 35.14752041864279875 
	32.27001069089337193 38.12323893234023586 
	32.27001069089337904 41.24308436660512456 
	
	I I 
	0 
	0 
	0 
	} I I #
vertex $-1 $173 $218 #
coedge $-1 $142 $213 $199 $219 reversed $131 $-1 #
vertex $-1 $143 $220 #
intcurve-curve $-1 forward { surfintcur full nubs 3 open 2 
	-10.00606398586431034 3 0 3 
	-20 10.00000000000012434 27.20213730974295174 
	-20 13.33136217244688382 26.65932164944645422 
	-20 16.67842272278424787 26.2287366634969743 
	-20 19.99999999999999289 25.92589163298224975 
	0.0001753511574054412157 
	plane -20 0 0 -1 0 0 0 0 -1 reverse_v I I I I 
	spline forward { ref 1 } I I I I 
	nullbs 
	nubs 3 open 2 
	-10.00606398586431034 3 0 3 
	32.27001069089212137 58.75691563339034218 
	32.27001069089337193 61.86335179423787167 
	32.27001069089337904 64.81145506873923523 
	32.27001069089337904 67.72998930910661386 
	
	I I 
	0 
	0 
	0 
	} I I #
point $-1 -20 10.00000000000012434 27.20213730974295174 #
edge $-1 $152 -10 $150 10 $176 $221 forward 7 unknown #
straight-curve $-1 20 10 12.5 0 0 1 I I #
point $-1 20 10 0 #
point $-1 20 -10 0 #
coedge $-1 $222 $154 $157 $197 forward $194 $-1 #
coedge $-1 $154 $222 $178 $214 reversed $194 $-1 #
loop $-1 $-1 $154 $204 #
intcurve-curve $-1 forward { surfintcur full nubs 3 open 3 
	-39.0452061565766968 3 -19.85821202934615215 2 0 3 
	19.99999999999999289 -20 25.92589163298224975 
	13.32477321307730733 -20 26.53450588195520865 
	6.546501830252888787 -20.00000000000000355 27.65825913849777962 
	-6.775517860359593136 -20.00000000000000355 30.74428417026992122 
	-13.54904722944812967 -20.00000000000000355 32.79156508283324456 
	-20.00000000000000355 -20.00000000000000355 34.27538373645227665 
	0.0001753511574081107654 
	plane 0 -20 0 0 -1 0 0 0 1 reverse_v I I I I 
	spline forward { ref 1 } I I I I 
	nullbs 
	nubs 3 open 3 
	-39.0452061565766968 3 -19.85821202934615215 3 0 3 
	67.72998930910661386 32.27001069089337904 
	61.86474026809027293 32.27001069089337904 
	55.88007029203153309 32.27001069089337193 
	49.99999999999998579 32.27001069089337193 
	44.02568375265480682 32.27001069089337193 
	37.9561061963473847 32.27001069089337193 
	32.27001069089337193 32.27001069089337193 
	
	I I 
	0 
	0 
	1 -19.85821202934616636 
	} I I #
coedge $-1 $157 $165 $223 $224 reversed $158 $-1 #
edge $-1 $159 -25.92589163298224264 $225 25 $157 $226 forward 7 unknown #
point $-1 20 -20 25.92589163298224264 #
coedge $-1 $227 $162 $184 $219 forward $170 $-1 #
coedge $-1 $162 $227 $165 $202 reversed $170 $-1 #
intcurve-curve $-1 forward { surfintcur full nubs 3 open 3 
	-39.1278488746388291 3 -19.56931673361122392 2 0 3 
	-20 19.99999999999999289 25.92589163298224975 
	-13.55034475277910033 19.99999999999999289 25.05969434964735143 
	-6.775576361549154214 19.99999999999999289 23.87528457119796244 
	6.779312420577065623 19.99999999999999289 23.51352662955792638 
	13.55593490754004904 19.99999999999999289 24.33725003614375737 
	19.99999999999999289 19.99999999999999289 25.34963902471646335 
	5.274041387614783759e-05 
	plane 0 20 0 0 1 0 0 0 -1 reverse_v I I I I 
	spline forward { ref 1 } I I I I 
	nullbs 
	nubs 3 open 3 
	-39.1278488746388291 3 -19.56931673361122392 3 0 3 
	32.27001069089337904 67.72998930910661386 
	38.00338514095036402 67.72998930910661386 
	44.02836969256318156 67.72998930910661386 
	49.99999999999999289 67.72998930910661386 
	55.99151360431137903 67.72998930910661386 
	61.96696174663954082 67.72998930910661386 
	67.72998930910661386 67.72998930910661386 
	
	I I 
	0 
	0 
	1 -19.56931673361121682 
	} I I #
edge $-1 $166 -25.34963902471646691 $228 25 $165 $229 forward 7 unknown #
point $-1 20 20 25.34963902471646691 #
face $-1 $179 $194 $2 $-1 $230 forward single #
plane-surface $-1 20 0 0 -1 0 0 0 0 1 forward_v I I I I #
coedge $-1 $231 $172 $232 $233 forward $121 $234 #
coedge $-1 $172 $231 $235 $236 forward $121 $237 #
coedge $-1 $238 $239 $172 $209 reversed $240 $-1 #
edge $-1 $241 0 $242 100 $208 $243 forward 7 unknown #
pcurve $-1 0 forward { exppc nubs 1 open 2 
	0 1 100 1 
	100 0 
	100 100 
	0 
	spline forward { ref 1 } I I I I 
	} 0 0 #
straight-curve $-1 -20 0 0 0 -1 0 I I #
straight-curve $-1 -20 10 12.5 0 0 -1 I I #
coedge $-1 $184 $178 $244 $245 reversed $131 $-1 #
edge $-1 $181 -34.27538373645226955 $246 25 $178 $247 forward 7 unknown #
face $-1 $248 $249 $2 $-1 $250 reversed single #
plane-surface $-1 -20 0 0 1 0 0 0 0 -1 forward_v I I I I #
point $-1 -20 -20 34.27538373645226955 #
point $-1 -20 10 0 #
edge $-1 $185 -25.92589163298224264 $251 25 $199 $252 forward 7 unknown #
point $-1 -20 20 25.92589163298224264 #
straight-curve $-1 20 0 0 0 1 0 I I #
coedge $-1 $193 $192 $253 $254 reversed $194 $-1 #
coedge $-1 $255 $253 $196 $224 forward $249 $-1 #
edge $-1 $225 -20 $228 20 $223 $256 forward 7 unknown #
vertex $-1 $254 $257 #
straight-curve $-1 20 -20 0 0 0 -1 I I #
coedge $-1 $200 $199 $255 $258 reversed $170 $-1 #
vertex $-1 $258 $259 #
straight-curve $-1 20 20 0 0 0 -1 I I #
plane-surface $-1 0 -20 0 0 1 0 0 0 1 forward_v I I I I #
coedge $-1 $207 $206 $260 $261 forward $121 $262 #
coedge $-1 $263 $264 $206 $233 reversed $265 $-1 #
edge $-1 $242 -100 $266 -0 $232 $267 reversed 7 unknown #
pcurve $-1 0 reversed { exppc nubs 1 open 2 
	0 1 100 1 
	0 100 
	100 100 
	0 
	spline forward { ref 1 } I I I I 
	} 0 0 #
coedge $-1 $268 $269 $207 $236 reversed $270 $-1 #
edge $-1 $271 0 $241 100 $235 $272 forward 7 unknown #
pcurve $-1 0 forward { exppc nubs 1 open 2 
	0 1 100 1 
	0 0 
	100 0 
	0 
	spline forward { ref 1 } I I I I 
	} 0 0 #
coedge $-1 $273 $208 $269 $274 forward $240 $-1 #
coedge $-1 $208 $273 $263 $275 reversed $240 $-1 #
loop $-1 $-1 $238 $276 #
vertex $-1 $209 $277 #
vertex $-1 $209 $278 #
intcurve-curve $-1 forward { exactcur full nubs 3 open 3 
	0 3 50 1 100 3 
	50 -50 25 
	50 -38.21488698022420749 36.78511301977579251 
	50.00000000000000711 0 13.21488698022421104 
	50 38.21488698022420749 36.78511301977579251 
	50 50 25 
	0 
	spline forward { ref 1 } I I I I 
	plane 50 0 0 1 0 0 0 0 1 reverse_v I I I I 
	nubs 1 open 2 
	0 1 100 1 
	100 0 
	100 100 
	
	nullbs 
	I I 
	0 
	0 
	1 50 
	F 1 F 0 } I I #
coedge $-1 $253 $255 $213 $245 forward $249 $-1 #
edge $-1 $251 -20 $246 20 $244 $279 forward 7 unknown #
vertex $-1 $254 $280 #
straight-curve $-1 -20 -20 0 0 0 -1 I I #
face $-1 $281 $270 $2 $-1 $282 reversed single #
loop $-1 $283 $253 $215 #
plane-surface $-1 0 0 -25 0 0 1 1 0 0 forward_v I I I I #
vertex $-1 $245 $284 #
straight-curve $-1 -20 20 0 0 0 -1 I I #
coedge $-1 $223 $244 $222 $254 forward $249 $-1 #
edge $-1 $246 -20 $225 20 $253 $285 forward 7 unknown #
coedge $-1 $244 $223 $227 $258 forward $249 $-1 #
straight-curve $-1 20 0 -25 0 1 0 I I #
point $-1 20 -20 -25 #
edge $-1 $228 -20 $251 20 $255 $286 forward 7 unknown #
point $-1 20 20 -25 #
coedge $-1 $287 $288 $231 $261 reversed $289 $-1 #
edge $-1 $266 -100 $271 -0 $260 $290 reversed 7 unknown #
pcurve $-1 0 reversed { exppc nubs 1 open 2 
	0 1 100 1 
	0 0 
	0 100 
	0 
	spline forward { ref 1 } I I I I 
	} 0 0 #
coedge $-1 $291 $232 $239 $275 forward $265 $-1 #
coedge $-1 $232 $291 $287 $292 reversed $265 $-1 #
loop $-1 $-1 $263 $293 #
vertex $-1 $233 $294 #
intcurve-curve $-1 forward { exactcur full nubs 3 open 3 
	0 3 50 1 100 3 
	-50 50 25 
	-38.21488698022420749 50 36.78511301977579251 
	0 50.00000000000000711 13.21488698022421104 
	38.21488698022420749 50 36.78511301977579251 
	50 50 25 
	0 
	plane 0 50 0 0 1 0 0 0 -1 reverse_v I I I I 
	spline forward { ref 1 } I I I I 
	nullbs 
	nubs 1 open 2 
	0 1 100 1 
	0 100 
	100 100 
	
	I I 
	0 
	0 
	1 50 
	F 1 F 0 } I I #
coedge $-1 $295 $235 $288 $296 forward $270 $-1 #
coedge $-1 $235 $295 $238 $274 reversed $270 $-1 #
loop $-1 $-1 $268 $248 #
vertex $-1 $261 $297 #
intcurve-curve $-1 forward { exactcur full nubs 3 open 3 
	0 3 50 1 100 3 
	-50 -50 25 
	-38.21488698022420749 -50 36.78511301977579251 
	0 -50.00000000000000711 25.00000000000000355 
	38.21488698022420749 -50 13.21488698022420749 
	50 -50 25 
	0 
	spline forward { ref 1 } I I I I 
	plane 0 -50 0 0 -1 0 0 0 1 reverse_v I I I I 
	nubs 1 open 2 
	0 1 100 1 
	0 0 
	100 0 
	
	nullbs 
	I I 
	0 
	0 
	0 
	F 1 F 0 } I I #
coedge $-1 $239 $238 $298 $299 reversed $240 $-1 #
edge $-1 $241 -25 $300 25 $238 $301 forward 7 unknown #
edge $-1 $242 -25 $302 25 $239 $303 forward 7 unknown #
face $-1 $-1 $240 $2 $-1 $304 reversed single #
point $-1 50 -50 25 #
point $-1 50 50 25 #
straight-curve $-1 -20 0 -25 0 -1 0 I I #
point $-1 -20 -20 -25 #
face $-1 $293 $289 $2 $-1 $305 reversed single #
plane-surface $-1 0 -50 0 0 1 0 0 0 1 forward_v I I I I #
loop $-1 $-1 $298 $215 #
point $-1 -20 20 -25 #
straight-curve $-1 0 -20 -25 1 0 0 I I #
straight-curve $-1 0 20 -25 -1 0 0 I I #
coedge $-1 $306 $260 $264 $292 forward $289 $-1 #
coedge $-1 $260 $306 $268 $296 reversed $289 $-1 #
loop $-1 $-1 $287 $281 #
intcurve-curve $-1 forward { exactcur full nubs 3 open 3 
	0 3 50 1 100 3 
	-50 -50 25 
	-50 -38.21488698022420749 36.78511301977579251 
	-50.00000000000000711 0 25.00000000000000355 
	-50 38.21488698022420749 13.21488698022420749 
	-50 50 25 
	0 
	plane -50 0 0 -1 0 0 0 0 -1 reverse_v I I I I 
	spline forward { ref 1 } I I I I 
	nullbs 
	nubs 1 open 2 
	0 1 100 1 
	0 0 
	0 100 
	
	I I 
	0 
	0 
	0 
	F 1 F 0 } I I #
coedge $-1 $264 $263 $307 $308 reversed $265 $-1 #
edge $-1 $266 -25 $309 25 $264 $310 forward 7 unknown #
face $-1 $276 $265 $2 $-1 $311 reversed single #
point $-1 -50 50 25 #
coedge $-1 $269 $268 $312 $313 reversed $270 $-1 #
edge $-1 $271 -25 $314 25 $288 $315 forward 7 unknown #
point $-1 -50 -50 25 #
coedge $-1 $312 $307 $273 $299 forward $283 $-1 #
edge $-1 $302 -50 $300 50 $273 $316 forward 7 unknown #
vertex $-1 $274 $317 #
straight-curve $-1 50 -50 0 0 0 -1 I I #
vertex $-1 $299 $318 #
straight-curve $-1 50 50 0 0 0 -1 I I #
plane-surface $-1 50 0 0 -1 0 0 0 0 1 forward_v I I I I #
plane-surface $-1 -50 0 0 1 0 0 0 0 -1 forward_v I I I I #
coedge $-1 $288 $287 $319 $320 reversed $289 $-1 #
coedge $-1 $298 $319 $291 $308 forward $283 $-1 #
edge $-1 $309 -50 $302 50 $291 $321 forward 7 unknown #
vertex $-1 $308 $322 #
straight-curve $-1 -50 50 0 0 0 -1 I I #
plane-surface $-1 0 50 0 0 -1 0 0 0 -1 forward_v I I I I #
coedge $-1 $319 $298 $295 $313 forward $283 $-1 #
edge $-1 $300 -50 $314 50 $295 $323 forward 7 unknown #
vertex $-1 $320 $324 #
straight-curve $-1 -50 -50 0 0 0 -1 I I #
straight-curve $-1 50 0 -25 0 -1 0 I I #
point $-1 50 -50 -25 #
point $-1 50 50 -25 #
coedge $-1 $307 $312 $306 $320 forward $283 $-1 #
edge $-1 $314 -50 $309 50 $306 $325 forward 7 unknown #
straight-curve $-1 0 50 -25 1 0 0 I I #
point $-1 -50 50 -25 #
straight-curve $-1 0 -50 -25 -1 0 0 I I #
point $-1 -50 -50 -25 #
straight-curve $-1 -50 0 -25 0 1 0 I I #
End-of-ACIS-data 