600 0 1 0           
7 Unknown 16 ACIS 6.0 Solaris 24 Thu Aug 17 17:43:42 2000 
-1 9.999999999999999547e-07 1.000000000000000036e-10 
body $1 $2 $-1 $3 #
attrib_gssl_step_cc1_details-attrib_gssl_step-attrib $-1 $-1 $-1 $0 $4 $5 $6 $7 $8 $9 $10 $11 $12 $13 $14 $15 $16 $17 $18 $19 $20 $21 $22 $23 $24 $25 $26 $27 $28 $29 $30 $31 $32 $33 $34 $35 #
lump $-1 $-1 $36 $0 #
transform $-1 1 0 0 0 1 0 0 0 1 0 0 0 1 no_rotate no_reflect no_shear #
attrib_gssl_step_product_details-attrib_gssl_step-attrib $-1 $-1 $-1 $-1 7 Product 9 Test Part 1 1 6 detail 6 detail #
attrib_gssl_step_application_details-attrib_gssl_step-attrib $-1 $-1 $-1 $-1 70 configuration controlled 3d designs of mechanical parts and assemblies 22 International Standard 21 config_control_design 1994 #
attrib_gssl_step_mech_con_details-attrib_gssl_step-attrib $-1 $-1 $-1 $-1 19 3D Mechanical Parts 10 mechanical #
attrib_gssl_step_des_con_details-attrib_gssl_step-attrib $-1 $-1 $-1 $-1 19 3D Mechanical Parts 6 design #
attrib_gssl_step_person_details-attrib_gssl_step-attrib $-1 $-1 $-1 $-1 1 1 9 Last Name 10 First Name 0 0 0 #
attrib_gssl_step_person_details-attrib_gssl_step-attrib $-1 $-1 $-1 $-1 1 2 9 Last Name 10 First Name 0 0 0 #
attrib_gssl_step_person_details-attrib_gssl_step-attrib $-1 $-1 $-1 $-1 1 3 9 Last Name 10 First Name 0 0 0 #
attrib_gssl_step_person_details-attrib_gssl_step-attrib $-1 $-1 $-1 $-1 1 2 9 Last Name 10 First Name 0 0 0 #
attrib_gssl_step_person_details-attrib_gssl_step-attrib $-1 $-1 $-1 $-1 1 2 9 Last Name 10 First Name 0 0 0 #
attrib_gssl_step_person_details-attrib_gssl_step-attrib $-1 $-1 $-1 $-1 1 3 9 Last Name 10 First Name 0 0 0 #
attrib_gssl_step_person_details-attrib_gssl_step-attrib $-1 $-1 $-1 $-1 1 3 9 Last Name 10 First Name 0 0 0 #
attrib_gssl_step_person_details-attrib_gssl_step-attrib $-1 $-1 $-1 $-1 1 3 9 Last Name 10 First Name 0 0 0 #
attrib_gssl_step_org_details-attrib_gssl_step-attrib $-1 $-1 $-1 $-1 3 STI 3 R&D 3 R&D 12 design_owner #
attrib_gssl_step_org_details-attrib_gssl_step-attrib $-1 $-1 $-1 $-1 3 STI 3 R&D 3 R&D 7 creator #
attrib_gssl_step_org_details-attrib_gssl_step-attrib $-1 $-1 $-1 $-1 3 STI 3 R&D 3 R&D 0  #
attrib_gssl_step_org_details-attrib_gssl_step-attrib $-1 $-1 $-1 $-1 3 STI 3 R&D 3 R&D 7 creator #
attrib_gssl_step_org_details-attrib_gssl_step-attrib $-1 $-1 $-1 $-1 3 STI 3 R&D 3 R&D 15 design_supplier #
attrib_gssl_step_org_details-attrib_gssl_step-attrib $-1 $-1 $-1 $-1 3 STI 3 R&D 3 R&D 0  #
attrib_gssl_step_org_details-attrib_gssl_step-attrib $-1 $-1 $-1 $-1 3 STI 3 R&D 3 R&D 0  #
attrib_gssl_step_org_details-attrib_gssl_step-attrib $-1 $-1 $-1 $-1 3 STI 3 R&D 3 R&D 22 classification_officer #
attrib_gssl_step_datetime_details-attrib_gssl_step-attrib $-1 $-1 $-1 $-1 1997 1 1 0 0 0 5 0 1 13 creation_date #
attrib_gssl_step_datetime_details-attrib_gssl_step-attrib $-1 $-1 $-1 $-1 1997 1 1 0 0 0 5 0 1 0  #
attrib_gssl_step_datetime_details-attrib_gssl_step-attrib $-1 $-1 $-1 $-1 1997 1 1 0 0 0 5 0 1 0  #
attrib_gssl_step_datetime_details-attrib_gssl_step-attrib $-1 $-1 $-1 $-1 1997 1 1 0 0 0 5 0 1 19 classification_date #
attrib_gssl_step_datetime_details-attrib_gssl_step-attrib $-1 $-1 $-1 $-1 1997 1 1 0 0 0 5 0 1 0  #
attrib_gssl_step_security_details-attrib_gssl_step-attrib $-1 $-1 $-1 $-1 7 Version 20 Security for version 12 unclassified #
attrib_gssl_step_approval_details-attrib_gssl_step-attrib $-1 $-1 $-1 $-1 19 Definition approval 16 not_yet_approved 19 definition approval 0  #
attrib_gssl_step_approval_details-attrib_gssl_step-attrib $-1 $-1 $-1 $-1 16 Version approval 16 not_yet_approved 16 version approval 0  #
attrib_gssl_step_approval_details-attrib_gssl_step-attrib $-1 $-1 $-1 $-1 25 Version Security approval 16 not_yet_approved 25 version security approval 0  #
attrib_gssl_step_product_def_form_details-attrib_gssl_step-attrib $-1 $-1 $-1 $-1 9 Test Part 7 Version 0 #
attrib_gssl_step_product_def_details-attrib_gssl_step-attrib $-1 $-1 $-1 $-1 9 Test Part 7 Version #
attrib_gssl_step_product_def_spec_details-attrib_gssl_step-attrib $-1 $-1 $-1 $-1 9 Test Part 7 Version #
shell $-1 $-1 $-1 $37 $-1 $2 #
face $-1 $38 $39 $36 $-1 $40 reversed single #
face $-1 $41 $42 $36 $-1 $43 reversed single #
loop $-1 $-1 $44 $37 #
plane-surface $-1 246.0629921259840103 29.88443302560670034 51.18110236220469744 0 1 -6.123031769111889989e-17 -0 6.123031769111889989e-17 1 forward_v I I I I #
face $-1 $45 $46 $36 $-1 $47 reversed single #
loop $-1 $48 $49 $38 #
cone-surface $-1 246.0629921259840103 29.88443302560670034 51.18110236220469744 0 -1 6.123031769111889989e-17 0 -2.41064242878420981e-21 -3.937007874015749874e-05 1 I I 0.8571649875973907928 0.5150419245432016346 3.937007874015749874e-05 forward I I I I #
coedge $-1 $44 $44 $50 $51 forward $39 $-1 #
face $-1 $52 $53 $36 $-1 $54 reversed single #
loop $-1 $55 $56 $41 #
cone-surface $-1 246.0629921259840103 27.55905511811020148 51.18110236220469744 0 -1 6.123031769111889989e-17 0 -2.369661507494877096e-16 -3.870078740157480102 1 I I 0 1 3.870078740157480102 forward I I I I #
loop $-1 $-1 $50 $38 #
coedge $-1 $49 $49 $57 $58 forward $42 $-1 #
coedge $-1 $50 $50 $44 $51 reversed $48 $-1 #
edge $-1 $59 0 $59 6.283185307179586232 $44 $60 forward 7 unknown #
face $-1 $61 $62 $36 $-1 $63 reversed single #
loop $-1 $64 $65 $45 #
plane-surface $-1 246.0629921259840103 7.874015748031499839 51.18110236220469744 0 1 -6.123031769111889989e-17 -0 6.123031769111889989e-17 1 forward_v I I I I #
loop $-1 $-1 $57 $41 #
coedge $-1 $56 $56 $66 $67 forward $46 $-1 #
coedge $-1 $57 $57 $49 $58 reversed $55 $-1 #
edge $-1 $68 0 $68 6.283185307179586232 $49 $69 forward 7 unknown #
vertex $-1 $51 $70 #
ellipse-curve $-1 246.0629921259840103 29.88443302560670034 51.18110236220469744 0 -1 6.123031769111889989e-17 0 -2.41064242878420981e-21 -3.937007874015749874e-05 1 I I #
face $-1 $71 $72 $36 $-1 $73 reversed single #
loop $-1 $74 $75 $52 #
cone-surface $-1 246.0629921259840103 7.874015748031499839 51.18110236220469744 0 -1 6.123031769111889989e-17 0 -3.013303035980263431e-16 -4.92125984251968962 1 I I 0 1 4.92125984251968962 forward I I I I #
loop $-1 $-1 $66 $45 #
coedge $-1 $65 $65 $76 $77 forward $53 $-1 #
coedge $-1 $66 $66 $56 $67 reversed $64 $-1 #
edge $-1 $78 0 $78 6.283185307179586232 $56 $79 forward 7 unknown #
vertex $-1 $58 $80 #
ellipse-curve $-1 246.0629921259840103 27.55905511811020148 51.18110236220469744 0 -1 6.123031769111889989e-17 0 -2.369661507494877096e-16 -3.870078740157480102 1 I I #
point $-1 246.0629921259840103 29.88443302560670034 51.18106299212600163 #
face $-1 $81 $82 $36 $-1 $83 reversed single #
loop $-1 $-1 $84 $61 #
plane-surface $-1 127.9527559055120065 29.88443302560670034 51.18110236220469744 0 1 -6.123031769111889989e-17 -0 6.123031769111889989e-17 1 forward_v I I I I #
loop $-1 $-1 $76 $52 #
coedge $-1 $75 $75 $85 $86 forward $62 $-1 #
coedge $-1 $76 $76 $65 $77 reversed $74 $-1 #
edge $-1 $87 0 $87 6.283185307179586232 $65 $88 forward 7 unknown #
vertex $-1 $67 $89 #
ellipse-curve $-1 246.0629921259840103 7.874015748031499839 51.18110236220469744 0 -1 6.123031769111889989e-17 0 2.369661507494877096e-16 3.870078740157480102 1 I I #
point $-1 246.0629921259840103 27.55905511811020148 47.3110236220472018 #
face $-1 $90 $91 $36 $-1 $92 reversed single #
loop $-1 $93 $94 $71 #
cone-surface $-1 127.9527559055120065 29.88443302560670034 51.18110236220469744 0 -1 6.123031769111889989e-17 0 -2.41064242878420981e-21 -3.937007874015749874e-05 1 I I 0.8571649875973907928 0.5150419245432016346 3.937007874015749874e-05 forward I I I I #
coedge $-1 $84 $84 $95 $96 forward $72 $-1 #
coedge $-1 $85 $85 $75 $86 reversed $97 $-1 #
edge $-1 $98 0 $98 6.283185307179586232 $75 $99 forward 7 unknown #
vertex $-1 $77 $100 #
ellipse-curve $-1 246.0629921259840103 7.874015748031499839 51.18110236220469744 0 -1 6.123031769111889989e-17 0 -3.013303035980263431e-16 -4.92125984251968962 1 I I #
point $-1 246.0629921259840103 7.874015748031499839 55.05118110236220019 #
face $-1 $101 $102 $36 $-1 $103 reversed single #
loop $-1 $104 $105 $81 #
cone-surface $-1 127.9527559055120065 27.55905511811020148 51.18110236220469744 0 -1 6.123031769111889989e-17 0 -2.369661507494877096e-16 -3.870078740157480102 1 I I 0 1 3.870078740157480102 forward I I I I #
loop $-1 $-1 $95 $71 #
coedge $-1 $94 $94 $106 $107 forward $82 $-1 #
coedge $-1 $95 $95 $84 $96 reversed $93 $-1 #
edge $-1 $108 0 $108 6.283185307179586232 $84 $109 forward 7 unknown #
loop $-1 $110 $85 $111 #
vertex $-1 $86 $112 #
ellipse-curve $-1 246.0629921259840103 3.133835157419470063e-15 51.18110236220469744 0 -1 0 0 0 -4.92125984251968962 1 I I #
point $-1 246.0629921259840103 7.874015748031499839 46.25984251968500161 #
face $-1 $113 $114 $36 $-1 $115 reversed single #
loop $-1 $116 $117 $90 #
plane-surface $-1 127.9527559055120065 7.874015748031499839 51.18110236220469744 0 1 -6.123031769111889989e-17 -0 6.123031769111889989e-17 1 forward_v I I I I #
loop $-1 $-1 $106 $81 #
coedge $-1 $105 $105 $118 $119 forward $91 $-1 #
coedge $-1 $106 $106 $94 $107 reversed $104 $-1 #
edge $-1 $120 0 $120 6.283185307179586232 $94 $121 forward 7 unknown #
vertex $-1 $96 $122 #
ellipse-curve $-1 127.9527559055120065 29.88443302560670034 51.18110236220469744 0 -1 6.123031769111889989e-17 0 -2.41064242878420981e-21 -3.937007874015749874e-05 1 I I #
loop $-1 $123 $124 $111 #
face $-1 $125 $97 $36 $-1 $126 forward single #
point $-1 246.0629921259840103 3.133835157419470063e-15 46.25984251968500161 #
face $-1 $127 $128 $36 $-1 $129 reversed single #
loop $-1 $130 $131 $101 #
cone-surface $-1 127.9527559055120065 7.874015748031499839 51.18110236220469744 0 -1 6.123031769111889989e-17 0 -3.013303035980263431e-16 -4.92125984251968962 1 I I 0 1 4.92125984251968962 forward I I I I #
loop $-1 $-1 $118 $90 #
coedge $-1 $117 $117 $132 $133 forward $102 $-1 #
coedge $-1 $118 $118 $105 $119 reversed $116 $-1 #
edge $-1 $134 0 $134 6.283185307179586232 $105 $135 forward 7 unknown #
vertex $-1 $107 $136 #
ellipse-curve $-1 127.9527559055120065 27.55905511811020148 51.18110236220469744 0 -1 6.123031769111889989e-17 0 -2.369661507494877096e-16 -3.870078740157480102 1 I I #
point $-1 127.9527559055120065 29.88443302560670034 51.18106299212600163 #
loop $-1 $137 $138 $111 #
coedge $-1 $124 $124 $131 $139 reversed $110 $-1 #
face $-1 $140 $141 $36 $-1 $142 reversed single #
plane-surface $-1 127.9527559055120065 0 0 0 -1 0 0 0 -1 forward_v I I I I #
face $-1 $143 $144 $36 $-1 $145 reversed single #
loop $-1 $-1 $146 $113 #
plane-surface $-1 9.842519685039370358 29.88443302560670034 51.18110236220469744 0 1 -6.123031769111889989e-17 -0 6.123031769111889989e-17 1 forward_v I I I I #
loop $-1 $-1 $132 $101 #
coedge $-1 $131 $131 $124 $139 forward $114 $-1 #
coedge $-1 $132 $132 $117 $133 reversed $130 $-1 #
edge $-1 $147 0 $147 6.283185307179586232 $117 $148 forward 7 unknown #
vertex $-1 $119 $149 #
ellipse-curve $-1 127.9527559055120065 7.874015748031499839 51.18110236220469744 0 -1 6.123031769111889989e-17 0 2.369661507494877096e-16 3.870078740157480102 1 I I #
point $-1 127.9527559055120065 27.55905511811020148 47.3110236220472018 #
loop $-1 $-1 $150 $111 #
coedge $-1 $138 $138 $151 $152 reversed $123 $-1 #
edge $-1 $153 0 $153 6.283185307179586232 $131 $154 forward 7 unknown #
face $-1 $155 $156 $36 $-1 $157 reversed single #
loop $-1 $-1 $158 $125 #
plane-surface $-1 127.9527559055120065 27.55905511811020148 0.393700787401574992 0 6.123031769111889989e-17 1 1 0 0 forward_v I I I I #
face $-1 $159 $160 $36 $-1 $161 reversed single #
loop $-1 $162 $163 $127 #
cone-surface $-1 9.842519685039370358 29.88443302560670034 51.18110236220469744 0 -1 6.123031769111889989e-17 0 -2.41064242878420981e-21 -3.937007874015749874e-05 1 I I 0.8571649875973907928 0.5150419245432016346 3.937007874015749874e-05 forward I I I I #
coedge $-1 $146 $146 $164 $165 forward $128 $-1 #
vertex $-1 $133 $166 #
ellipse-curve $-1 127.9527559055120065 7.874015748031499839 51.18110236220469744 0 -1 6.123031769111889989e-17 0 -3.013303035980263431e-16 -4.92125984251968962 1 I I #
point $-1 127.9527559055120065 7.874015748031499839 55.05118110236220019 #
coedge $-1 $167 $168 $169 $170 forward $137 $-1 #
coedge $-1 $151 $151 $138 $152 forward $171 $-1 #
edge $-1 $172 0 $172 6.283185307179586232 $151 $173 forward 7 unknown #
vertex $-1 $139 $174 #
ellipse-curve $-1 127.9527559055120065 3.133835157419470063e-15 51.18110236220469744 0 -1 0 0 0 -4.92125984251968962 1 I I #
face $-1 $175 $176 $36 $-1 $177 reversed single #
loop $-1 $-1 $178 $140 #
plane-surface $-1 127.9527559055120065 27.55905511811020148 -19.29133858267719859 0 1 -6.123031769111889989e-17 -0 6.123031769111889989e-17 1 forward_v I I I I #
coedge $-1 $179 $180 $181 $182 reversed $141 $-1 #
face $-1 $183 $184 $36 $-1 $185 reversed single #
loop $-1 $186 $187 $143 #
cone-surface $-1 9.842519685039370358 27.55905511811020148 51.18110236220469744 0 -1 6.123031769111889989e-17 0 -2.369661507494877096e-16 -3.870078740157480102 1 I I 0 1 3.870078740157480102 forward I I I I #
loop $-1 $-1 $164 $127 #
coedge $-1 $163 $163 $188 $189 forward $144 $-1 #
coedge $-1 $164 $164 $146 $165 reversed $162 $-1 #
edge $-1 $190 0 $190 6.283185307179586232 $146 $191 forward 7 unknown #
point $-1 127.9527559055120065 7.874015748031499839 46.25984251968500161 #
coedge $-1 $192 $150 $193 $194 forward $137 $-1 #
coedge $-1 $150 $192 $195 $196 forward $137 $-1 #
coedge $-1 $197 $198 $150 $170 reversed $199 $-1 #
edge $-1 $200 -125.9842519685041395 $201 125.9842519685039832 $169 $202 forward 7 unknown #
loop $-1 $203 $151 $183 #
vertex $-1 $152 $204 #
ellipse-curve $-1 9.842519685039370358 3.133835157419470063e-15 51.18110236220469744 0 -1 0 0 0 -4.92125984251968962 1 I I #
point $-1 127.9527559055120065 3.133835157419470063e-15 46.25984251968500161 #
face $-1 $205 $206 $36 $-1 $207 reversed single #
loop $-1 $-1 $208 $155 #
plane-surface $-1 127.9527559055120065 27.55905511811020148 78.34645669291340653 0 1 -6.123031769111889989e-17 -0 6.123031769111889989e-17 1 forward_v I I I I #
coedge $-1 $209 $210 $211 $212 forward $156 $-1 #
coedge $-1 $211 $158 $213 $214 reversed $141 $-1 #
coedge $-1 $158 $211 $215 $216 reversed $141 $-1 #
coedge $-1 $217 $218 $158 $182 forward $219 $-1 #
edge $-1 $220 -125.9842519685041395 $221 125.9842519685039832 $158 $222 forward 7 unknown #
face $-1 $223 $171 $36 $-1 $224 reversed single #
loop $-1 $225 $226 $159 #
plane-surface $-1 9.842519685039370358 7.874015748031499839 51.18110236220469744 0 1 -6.123031769111889989e-17 -0 6.123031769111889989e-17 1 forward_v I I I I #
loop $-1 $-1 $188 $143 #
coedge $-1 $187 $187 $227 $228 forward $160 $-1 #
coedge $-1 $188 $188 $163 $189 reversed $186 $-1 #
edge $-1 $229 0 $229 6.283185307179586232 $163 $230 forward 7 unknown #
vertex $-1 $165 $231 #
ellipse-curve $-1 9.842519685039370358 29.88443302560670034 51.18110236220469744 0 -1 6.123031769111889989e-17 0 -2.41064242878420981e-21 -3.937007874015749874e-05 1 I I #
coedge $-1 $168 $167 $232 $233 forward $137 $-1 #
coedge $-1 $234 $235 $167 $194 reversed $236 $-1 #
edge $-1 $201 9.842519685039402333 $237 29.13385826771650144 $167 $238 forward 7 unknown #
coedge $-1 $239 $240 $168 $196 reversed $241 $-1 #
edge $-1 $242 -29.13385826771650144 $200 -9.842519685039402333 $168 $243 forward 7 unknown #
coedge $-1 $244 $169 $240 $245 reversed $199 $-1 #
coedge $-1 $169 $244 $234 $246 reversed $199 $-1 #
loop $-1 $-1 $169 $247 #
vertex $-1 $170 $248 #
vertex $-1 $170 $249 #
straight-curve $-1 127.9527559055120065 2.410642428784209956e-15 39.37007874015750275 1 0 0 I I #
loop $-1 $-1 $250 $183 #
point $-1 9.842519685039370358 3.133835157419470063e-15 46.25984251968500161 #
face $-1 $251 $236 $36 $-1 $252 reversed single #
loop $-1 $-1 $253 $175 #
plane-surface $-1 127.9527559055120065 27.55905511811020148 58.66141732283460186 0 -6.123031769111889989e-17 -1 -1 0 -0 forward_v I I I I #
coedge $-1 $254 $255 $256 $257 forward $176 $-1 #
coedge $-1 $258 $178 $259 $260 reversed $156 $-1 #
coedge $-1 $178 $258 $261 $262 reversed $156 $-1 #
coedge $-1 $180 $179 $178 $212 reversed $141 $-1 #
edge $-1 $263 -125.9842519685039832 $264 125.9842519685041395 $211 $265 forward 7 unknown #
coedge $-1 $266 $259 $179 $214 forward $241 $-1 #
edge $-1 $264 51.18110236220480402 $220 78.7401574803150055 $179 $267 forward 7 unknown #
coedge $-1 $261 $268 $180 $216 forward $236 $-1 #
edge $-1 $221 -78.7401574803150055 $263 -51.18110236220480402 $180 $269 forward 7 unknown #
coedge $-1 $270 $181 $268 $271 forward $219 $-1 #
coedge $-1 $181 $270 $266 $272 forward $219 $-1 #
loop $-1 $-1 $270 $273 #
vertex $-1 $182 $274 #
vertex $-1 $182 $275 #
straight-curve $-1 127.9527559055120065 2.410642428784210055e-17 0.393700787401574992 1 0 0 I I #
face $-1 $276 $277 $36 $-1 $278 reversed single #
cone-surface $-1 9.842519685039370358 7.874015748031499839 51.18110236220469744 0 -1 6.123031769111889989e-17 0 -3.013303035980263431e-16 -4.92125984251968962 1 I I 0 1 4.92125984251968962 forward I I I I #
loop $-1 $-1 $227 $159 #
coedge $-1 $226 $226 $250 $279 forward $184 $-1 #
coedge $-1 $227 $227 $187 $228 reversed $225 $-1 #
edge $-1 $280 0 $280 6.283185307179586232 $187 $281 forward 7 unknown #
vertex $-1 $189 $282 #
ellipse-curve $-1 9.842519685039370358 27.55905511811020148 51.18110236220469744 0 -1 6.123031769111889989e-17 0 -2.369661507494877096e-16 -3.870078740157480102 1 I I #
point $-1 9.842519685039370358 29.88443302560670034 51.18106299212600163 #
coedge $-1 $283 $284 $192 $233 reversed $206 $-1 #
edge $-1 $237 -125.9842519685039832 $242 125.9842519685041395 $192 $285 forward 7 unknown #
coedge $-1 $286 $193 $198 $246 forward $236 $-1 #
coedge $-1 $193 $287 $283 $288 forward $236 $-1 #
loop $-1 $-1 $193 $205 #
vertex $-1 $194 $289 #
straight-curve $-1 253.9370078740159897 1.807981821588159932e-15 29.52755905511810042 0 6.123031769111889989e-17 1 I I #
coedge $-1 $290 $195 $284 $291 forward $241 $-1 #
coedge $-1 $195 $292 $197 $245 forward $241 $-1 #
loop $-1 $-1 $292 $293 #
vertex $-1 $233 $294 #
straight-curve $-1 1.968503937007870075 1.807981821588159932e-15 29.52755905511810042 0 -6.123031769111889989e-17 -1 I I #
coedge $-1 $198 $197 $295 $296 reversed $199 $-1 #
edge $-1 $297 70.86614173228350921 $200 78.7401574803150055 $197 $298 forward 7 unknown #
edge $-1 $201 -78.7401574803150055 $299 -70.86614173228350921 $198 $300 forward 7 unknown #
face $-1 $301 $199 $36 $-1 $302 reversed single #
point $-1 1.968503937007870075 2.410642428784209956e-15 39.37007874015750275 #
point $-1 253.9370078740159897 2.410642428784209956e-15 39.37007874015750275 #
coedge $-1 $250 $250 $226 $279 reversed $203 $-1 #
face $-1 $303 $304 $36 $-1 $305 reversed single #
plane-surface $-1 253.9370078740159897 78.7401574803150055 29.52755905511810042 -1 0 0 0 -0 1 forward_v I I I I #
coedge $-1 $284 $283 $306 $307 reversed $206 $-1 #
coedge $-1 $306 $208 $290 $308 reversed $176 $-1 #
coedge $-1 $208 $306 $287 $309 reversed $176 $-1 #
coedge $-1 $310 $311 $208 $257 reversed $312 $-1 #
edge $-1 $313 -125.9842519685039832 $314 125.9842519685041395 $208 $315 forward 7 unknown #
coedge $-1 $210 $209 $316 $317 forward $156 $-1 #
coedge $-1 $213 $318 $209 $260 forward $241 $-1 #
edge $-1 $319 -29.52755905511810042 $264 -29.13385826771652631 $209 $320 forward 7 unknown #
coedge $-1 $321 $215 $210 $262 forward $236 $-1 #
edge $-1 $263 29.13385826771652631 $322 29.52755905511810042 $210 $323 forward 7 unknown #
vertex $-1 $212 $324 #
vertex $-1 $214 $325 #
straight-curve $-1 127.9527559055120065 27.55905511811020148 0.393700787401574992 -1 0 0 I I #
coedge $-1 $326 $213 $218 $272 reversed $241 $-1 #
straight-curve $-1 1.968503937007870075 78.7401574803150055 0.393700787401569996 0 -1 6.123031769111889989e-17 I I #
coedge $-1 $215 $327 $217 $271 reversed $236 $-1 #
straight-curve $-1 253.9370078740159897 78.7401574803150055 0.393700787401569996 0 1 -6.123031769111889989e-17 I I #
coedge $-1 $218 $217 $328 $329 forward $219 $-1 #
edge $-1 $221 -29.13385826771652631 $330 -9.84251968503939878 $268 $331 forward 7 unknown #
edge $-1 $332 9.84251968503939878 $220 29.13385826771652631 $266 $333 forward 7 unknown #
face $-1 $334 $335 $36 $-1 $336 forward single #
point $-1 1.968503937007870075 2.410642428784210055e-17 0.393700787401574992 #
point $-1 253.9370078740159897 2.410642428784210055e-17 0.393700787401574992 #
face $-1 $337 $338 $36 $-1 $339 reversed single #
loop $-1 $-1 $340 $223 #
plane-surface $-1 246.0629921259840103 29.88443302560670034 7.874015748031499839 0 1 -6.123031769111889989e-17 -0 6.123031769111889989e-17 1 forward_v I I I I #
edge $-1 $341 0 $341 6.283185307179586232 $226 $342 forward 7 unknown #
vertex $-1 $228 $343 #
ellipse-curve $-1 9.842519685039370358 7.874015748031499839 51.18110236220469744 0 -1 6.123031769111889989e-17 0 2.369661507494877096e-16 3.870078740157480102 1 I I #
point $-1 9.842519685039370358 27.55905511811020148 47.3110236220472018 #
coedge $-1 $253 $232 $235 $288 reversed $206 $-1 #
coedge $-1 $232 $253 $239 $291 reversed $206 $-1 #
straight-curve $-1 127.9527559055120065 3.591857218888470196e-15 58.66141732283460186 -1 0 0 I I #
coedge $-1 $327 $234 $344 $345 forward $236 $-1 #
coedge $-1 $235 $346 $255 $309 forward $236 $-1 #
edge $-1 $347 51.18110236220480402 $237 78.7401574803150055 $283 $348 forward 7 unknown #
point $-1 253.9370078740159897 3.591857218888470196e-15 58.66141732283460186 #
coedge $-1 $349 $239 $254 $308 forward $241 $-1 #
edge $-1 $242 -78.7401574803150055 $350 -51.18110236220480402 $284 $351 forward 7 unknown #
coedge $-1 $240 $326 $352 $353 forward $241 $-1 #
face $-1 $354 $241 $36 $-1 $355 reversed single #
point $-1 1.968503937007870075 3.591857218888470196e-15 58.66141732283460186 #
coedge $-1 $352 $344 $244 $296 forward $356 $-1 #
edge $-1 $299 -125.9842519685039832 $297 125.9842519685041395 $295 $357 forward 7 unknown #
vertex $-1 $296 $358 #
straight-curve $-1 1.968503937007870075 78.7401574803150055 39.37007874015750275 0 -1 6.123031769111889989e-17 I I #
vertex $-1 $296 $359 #
straight-curve $-1 253.9370078740159897 78.7401574803150055 39.37007874015750275 0 1 -6.123031769111889989e-17 I I #
face $-1 $111 $360 $36 $-1 $361 reversed single #
plane-surface $-1 127.9527559055120065 7.874015748031499839 39.37007874015750275 0 6.123031769111889989e-17 1 1 0 0 forward_v I I I I #
face $-1 $293 $362 $36 $-1 $363 reversed single #
loop $-1 $-1 $364 $251 #
plane-surface $-1 273.622047244094972 78.7401574803150055 29.52755905511810042 0 1 -6.123031769111889989e-17 -0 6.123031769111889989e-17 1 forward_v I I I I #
coedge $-1 $255 $254 $253 $307 forward $176 $-1 #
edge $-1 $350 -125.9842519685041395 $347 125.9842519685039832 $306 $365 forward 7 unknown #
edge $-1 $350 29.13385826771650144 $314 29.52755905511810042 $254 $366 forward 7 unknown #
edge $-1 $313 -29.52755905511810042 $347 -29.13385826771650144 $255 $367 forward 7 unknown #
coedge $-1 $368 $256 $346 $369 reversed $312 $-1 #
coedge $-1 $256 $370 $349 $371 reversed $312 $-1 #
loop $-1 $-1 $256 $354 #
vertex $-1 $257 $372 #
vertex $-1 $257 $373 #
straight-curve $-1 127.9527559055120065 27.55905511811020148 59.05511811023620083 -1 0 0 I I #
coedge $-1 $374 $375 $258 $317 reversed $376 $-1 #
edge $-1 $319 -125.9842519685041395 $322 125.9842519685039832 $258 $377 forward 7 unknown #
coedge $-1 $259 $378 $374 $379 forward $241 $-1 #
vertex $-1 $260 $380 #
straight-curve $-1 1.968503937007870075 27.55905511811020148 29.52755905511810042 0 6.123031769111889989e-17 1 I I #
coedge $-1 $381 $261 $375 $382 forward $236 $-1 #
vertex $-1 $317 $383 #
straight-curve $-1 253.9370078740159897 27.55905511811020148 29.52755905511810042 0 -6.123031769111889989e-17 -1 I I #
point $-1 253.9370078740159897 27.55905511811020148 0.393700787401574992 #
point $-1 1.968503937007870075 27.55905511811020148 0.393700787401574992 #
coedge $-1 $292 $266 $384 $385 forward $241 $-1 #
coedge $-1 $268 $286 $386 $387 forward $236 $-1 #
coedge $-1 $386 $384 $270 $329 reversed $360 $-1 #
edge $-1 $330 -125.9842519685039832 $332 125.9842519685041395 $328 $388 forward 7 unknown #
vertex $-1 $329 $389 #
straight-curve $-1 253.9370078740159897 1.807981821588159932e-15 29.52755905511810042 0 6.123031769111889989e-17 1 I I #
vertex $-1 $385 $390 #
straight-curve $-1 1.968503937007870075 1.807981821588159932e-15 29.52755905511810042 0 -6.123031769111889989e-17 -1 I I #
face $-1 $391 $392 $36 $-1 $393 forward single #
loop $-1 $394 $395 $273 #
plane-surface $-1 127.9527559055120065 0 0 0 -1 0 0 0 -1 forward_v I I I I #
face $-1 $396 $397 $36 $-1 $398 reversed single #
loop $-1 $399 $400 $276 #
cone-surface $-1 246.0629921259840103 29.88443302560670034 7.874015748031499839 0 -1 6.123031769111889989e-17 0 -2.41064242878420981e-21 -3.937007874015749874e-05 1 I I 0.8571649875973907928 0.5150419245432016346 3.937007874015749874e-05 forward I I I I #
coedge $-1 $340 $340 $401 $402 forward $277 $-1 #
vertex $-1 $279 $403 #
ellipse-curve $-1 9.842519685039370358 7.874015748031499839 51.18110236220469744 0 -1 6.123031769111889989e-17 0 -3.013303035980263431e-16 -4.92125984251968962 1 I I #
point $-1 9.842519685039370358 7.874015748031499839 55.05118110236220019 #
coedge $-1 $295 $404 $286 $345 reversed $356 $-1 #
edge $-1 $299 -9.842519685039402333 $405 9.84251968503939878 $344 $406 forward 7 unknown #
coedge $-1 $287 $381 $310 $369 forward $236 $-1 #
vertex $-1 $307 $407 #
straight-curve $-1 253.9370078740159897 78.7401574803150055 58.66141732283460186 0 -1 6.123031769111889989e-17 I I #
coedge $-1 $378 $290 $311 $371 forward $241 $-1 #
vertex $-1 $308 $408 #
straight-curve $-1 1.968503937007870075 78.7401574803150055 58.66141732283460186 0 1 -6.123031769111889989e-17 I I #
coedge $-1 $404 $295 $292 $353 reversed $356 $-1 #
edge $-1 $409 -9.84251968503939878 $297 9.842519685039402333 $352 $410 forward 7 unknown #
face $-1 $273 $312 $36 $-1 $411 forward single #
plane-surface $-1 1.968503937007870075 78.7401574803150055 29.52755905511810042 1 0 0 0 0 -1 forward_v I I I I #
loop $-1 $-1 $295 $412 #
straight-curve $-1 127.9527559055120065 7.874015748031499839 39.37007874015750275 -1 0 0 I I #
point $-1 1.968503937007870075 7.874015748031499839 39.37007874015750275 #
point $-1 253.9370078740159897 7.874015748031499839 39.37007874015750275 #
loop $-1 $-1 $413 $301 #
plane-surface $-1 127.9527559055120065 7.874015748031499839 19.68503937007870164 0 -6.123031769111889989e-17 -1 -1 0 -0 forward_v I I I I #
loop $-1 $-1 $414 $303 #
plane-surface $-1 -17.71653543307089862 78.7401574803150055 29.52755905511810042 0 1 -6.123031769111889989e-17 -0 6.123031769111889989e-17 1 forward_v I I I I #
coedge $-1 $415 $416 $368 $417 forward $304 $-1 #
straight-curve $-1 127.9527559055120065 27.55905511811020148 58.66141732283460186 1 0 0 I I #
straight-curve $-1 1.968503937007870075 27.55905511811020148 29.52755905511810042 0 6.123031769111889989e-17 1 I I #
straight-curve $-1 253.9370078740159897 27.55905511811020148 29.52755905511810042 0 -6.123031769111889989e-17 -1 I I #
coedge $-1 $418 $310 $364 $417 reversed $312 $-1 #
edge $-1 $419 -19.68503937007880467 $313 31.49606299212599936 $346 $420 forward 7 unknown #
coedge $-1 $311 $421 $414 $422 reversed $312 $-1 #
edge $-1 $314 -31.49606299212599936 $423 19.68503937007880467 $349 $424 forward 7 unknown #
point $-1 253.9370078740159897 27.55905511811020148 59.05511811023620083 #
point $-1 1.968503937007870075 27.55905511811020148 59.05511811023620083 #
coedge $-1 $425 $316 $318 $379 reversed $376 $-1 #
coedge $-1 $316 $426 $321 $382 reversed $376 $-1 #
loop $-1 $-1 $316 $427 #
straight-curve $-1 127.9527559055120065 27.55905511811020148 0 1 0 0 I I #
coedge $-1 $318 $349 $428 $429 reversed $241 $-1 #
edge $-1 $430 -19.68503937007880467 $319 31.49606299212599936 $318 $431 forward 7 unknown #
point $-1 1.968503937007870075 27.55905511811020148 0 #
coedge $-1 $346 $321 $415 $432 reversed $236 $-1 #
edge $-1 $322 -31.49606299212599936 $433 19.68503937007880467 $321 $434 forward 7 unknown #
point $-1 253.9370078740159897 27.55905511811020148 0 #
coedge $-1 $328 $413 $326 $385 reversed $360 $-1 #
edge $-1 $332 -78.7401574803150055 $409 -70.86614173228350921 $384 $435 forward 7 unknown #
coedge $-1 $413 $328 $327 $387 reversed $360 $-1 #
edge $-1 $405 70.86614173228350921 $330 78.7401574803150055 $386 $436 forward 7 unknown #
straight-curve $-1 127.9527559055120065 1.205321214392100048e-15 19.68503937007870164 -1 0 0 I I #
point $-1 253.9370078740159897 1.205321214392100048e-15 19.68503937007870164 #
point $-1 1.968503937007870075 1.205321214392100048e-15 19.68503937007870164 #
face $-1 $427 $437 $36 $-1 $438 forward single #
loop $-1 $-1 $439 $334 #
plane-surface $-1 0 59.05511811023620083 0 -1 0 0 0 -0 1 forward_v I I I I #
loop $-1 $440 $441 $273 #
coedge $-1 $395 $395 $442 $443 reversed $335 $-1 #
face $-1 $444 $445 $36 $-1 $446 reversed single #
loop $-1 $447 $448 $337 #
cone-surface $-1 246.0629921259840103 27.55905511811020148 7.874015748031499839 0 -1 6.123031769111889989e-17 0 -2.369661507494877096e-16 -3.870078740157480102 1 I I 0 1 3.870078740157480102 forward I I I I #
loop $-1 $-1 $401 $276 #
coedge $-1 $400 $400 $449 $450 forward $338 $-1 #
coedge $-1 $401 $401 $340 $402 reversed $399 $-1 #
edge $-1 $451 0 $451 6.283185307179586232 $340 $452 forward 7 unknown #
point $-1 9.842519685039370358 7.874015748031499839 46.25984251968500161 #
coedge $-1 $344 $352 $413 $453 forward $356 $-1 #
vertex $-1 $453 $454 #
straight-curve $-1 253.9370078740159897 7.874015748031499839 29.52755905511810042 0 -6.123031769111889989e-17 -1 I I #
point $-1 253.9370078740159897 27.55905511811020148 58.66141732283460186 #
point $-1 1.968503937007870075 27.55905511811020148 58.66141732283460186 #
vertex $-1 $353 $455 #
straight-curve $-1 1.968503937007870075 7.874015748031499839 29.52755905511810042 0 6.123031769111889989e-17 1 I I #
plane-surface $-1 127.9527559055120065 59.05511811023620083 59.05511811023620083 0 0 1 1 0 0 forward_v I I I I #
face $-1 $247 $356 $36 $-1 $456 reversed single #
coedge $-1 $384 $386 $404 $453 reversed $360 $-1 #
coedge $-1 $457 $428 $370 $422 forward $362 $-1 #
coedge $-1 $458 $364 $381 $432 forward $304 $-1 #
coedge $-1 $364 $458 $459 $460 forward $304 $-1 #
edge $-1 $461 -127.9527559055120065 $419 -125.9842519685039832 $364 $462 forward 7 unknown #
coedge $-1 $463 $368 $464 $465 reversed $312 $-1 #
vertex $-1 $432 $466 #
straight-curve $-1 253.9370078740159897 59.05511811023620083 59.05511811023620083 0 -1 0 I I #
coedge $-1 $370 $463 $467 $468 reversed $312 $-1 #
edge $-1 $423 125.9842519685041395 $469 127.9527559055120065 $414 $470 forward 7 unknown #
vertex $-1 $422 $471 #
straight-curve $-1 1.968503937007870075 59.05511811023620083 59.05511811023620083 0 1 0 I I #
coedge $-1 $472 $374 $473 $474 reversed $376 $-1 #
coedge $-1 $375 $475 $458 $476 reversed $376 $-1 #
face $-1 $477 $376 $36 $-1 $478 forward single #
coedge $-1 $414 $473 $378 $429 forward $362 $-1 #
edge $-1 $430 -29.52755905511810042 $423 29.52755905511810042 $428 $479 forward 7 unknown #
vertex $-1 $474 $480 #
straight-curve $-1 1.968503937007870075 59.05511811023620083 0 0 -1 0 I I #
edge $-1 $419 -29.52755905511810042 $433 29.52755905511810042 $381 $481 forward 7 unknown #
vertex $-1 $382 $482 #
straight-curve $-1 253.9370078740159897 59.05511811023620083 0 0 1 0 I I #
straight-curve $-1 1.968503937007870075 78.7401574803150055 19.68503937007870164 0 1 -6.123031769111889989e-17 I I #
straight-curve $-1 253.9370078740159897 78.7401574803150055 19.68503937007870164 0 -1 6.123031769111889989e-17 I I #
loop $-1 $-1 $483 $391 #
plane-surface $-1 127.9527559055120065 118.1102362204720038 0 0 1 0 0 0 1 forward_v I I I I #
coedge $-1 $467 $484 $457 $485 reversed $392 $-1 #
loop $-1 $219 $486 $273 #
coedge $-1 $441 $441 $487 $488 reversed $394 $-1 #
coedge $-1 $442 $442 $395 $443 forward $489 $-1 #
edge $-1 $490 0 $490 6.283185307179586232 $442 $491 forward 7 unknown #
face $-1 $492 $489 $36 $-1 $493 reversed single #
loop $-1 $494 $495 $396 #
plane-surface $-1 246.0629921259840103 7.874015748031499839 7.874015748031499839 0 1 -6.123031769111889989e-17 -0 6.123031769111889989e-17 1 forward_v I I I I #
loop $-1 $-1 $449 $337 #
coedge $-1 $448 $448 $496 $497 forward $397 $-1 #
coedge $-1 $449 $449 $400 $450 reversed $447 $-1 #
edge $-1 $498 0 $498 6.283185307179586232 $400 $499 forward 7 unknown #
vertex $-1 $402 $500 #
ellipse-curve $-1 246.0629921259840103 29.88443302560670034 7.874015748031499839 0 -1 6.123031769111889989e-17 0 -2.41064242878420981e-21 -3.937007874015749874e-05 1 I I #
edge $-1 $409 -125.9842519685041395 $405 125.9842519685039832 $404 $501 forward 7 unknown #
point $-1 253.9370078740159897 7.874015748031499839 19.68503937007870164 #
point $-1 1.968503937007870075 7.874015748031499839 19.68503937007870164 #
plane-surface $-1 127.9527559055120065 7.874015748031499839 29.52755905511810042 0 1 -6.123031769111889989e-17 -0 6.123031769111889989e-17 1 forward_v I I I I #
coedge $-1 $473 $414 $439 $485 forward $362 $-1 #
coedge $-1 $416 $415 $426 $476 forward $304 $-1 #
coedge $-1 $502 $464 $416 $460 reversed $503 $-1 #
edge $-1 $504 -3.615963643176309609e-15 $461 59.05511811023620083 $416 $505 forward 7 unknown #
vertex $-1 $417 $506 #
straight-curve $-1 127.9527559055120065 78.7401574803150055 59.05511811023620083 -1 0 0 I I #
coedge $-1 $421 $418 $507 $508 reversed $312 $-1 #
coedge $-1 $459 $509 $418 $465 forward $503 $-1 #
edge $-1 $510 -59.05511811023580293 $461 -19.68503937007880467 $418 $511 forward 7 unknown #
point $-1 253.9370078740159897 78.7401574803150055 59.05511811023620083 #
coedge $-1 $512 $439 $421 $468 forward $392 $-1 #
edge $-1 $469 19.68503937007880467 $513 59.05511811023580293 $421 $514 forward 7 unknown #
vertex $-1 $422 $515 #
straight-curve $-1 127.9527559055120065 78.7401574803150055 59.05511811023620083 -1 0 0 I I #
point $-1 1.968503937007870075 78.7401574803150055 59.05511811023620083 #
coedge $-1 $516 $425 $484 $517 reversed $376 $-1 #
coedge $-1 $428 $457 $425 $474 forward $362 $-1 #
edge $-1 $518 -127.9527559055120065 $430 -125.9842519685041395 $473 $519 forward 7 unknown #
coedge $-1 $426 $516 $502 $520 reversed $376 $-1 #
edge $-1 $433 125.9842519685039832 $504 127.9527559055120065 $458 $521 forward 7 unknown #
face $-1 $-1 $503 $36 $-1 $522 forward single #
plane-surface $-1 127.9527559055120065 59.05511811023620083 0 0 0 -1 -1 0 0 forward_v I I I I #
straight-curve $-1 1.968503937007870075 78.7401574803150055 29.52755905511810042 0 6.123031769111889989e-17 1 I I #
point $-1 1.968503937007870075 78.7401574803150055 -2.251640338527970147e-16 #
straight-curve $-1 253.9370078740159897 78.7401574803150055 29.52755905511810042 0 -6.123031769111889989e-17 -1 I I #
point $-1 253.9370078740159897 78.7401574803150055 -4.503280677055930432e-16 #
coedge $-1 $507 $523 $512 $524 forward $437 $-1 #
coedge $-1 $439 $512 $472 $517 forward $392 $-1 #
edge $-1 $469 -59.05511811023620083 $518 -1.205321214392100048e-15 $457 $525 forward 7 unknown #
coedge $-1 $486 $486 $526 $527 reversed $440 $-1 #
coedge $-1 $487 $487 $441 $488 forward $528 $-1 #
edge $-1 $529 0 $529 6.283185307179586232 $487 $530 forward 7 unknown #
loop $-1 $531 $442 $444 #
vertex $-1 $443 $532 #
ellipse-curve $-1 246.0629921259840103 4.821284857568410248e-16 7.874015748031499839 0 -1 0 0 0 -4.92125984251968962 1 I I #
face $-1 $533 $534 $36 $-1 $535 reversed single #
cone-surface $-1 246.0629921259840103 7.874015748031499839 7.874015748031499839 0 -1 6.123031769111889989e-17 0 -3.013303035980263431e-16 -4.92125984251968962 1 I I 0 1 4.92125984251968962 forward I I I I #
loop $-1 $-1 $496 $396 #
coedge $-1 $495 $495 $536 $537 forward $445 $-1 #
coedge $-1 $496 $496 $448 $497 reversed $494 $-1 #
edge $-1 $538 0 $538 6.283185307179586232 $448 $539 forward 7 unknown #
vertex $-1 $450 $540 #
ellipse-curve $-1 246.0629921259840103 27.55905511811020148 7.874015748031499839 0 -1 6.123031769111889989e-17 0 -2.369661507494877096e-16 -3.870078740157480102 1 I I #
point $-1 246.0629921259840103 29.88443302560670034 7.87397637795275962 #
straight-curve $-1 127.9527559055120065 7.874015748031499839 19.68503937007870164 1 0 0 I I #
coedge $-1 $509 $459 $475 $520 forward $503 $-1 #
loop $-1 $-1 $459 $477 #
vertex $-1 $476 $541 #
straight-curve $-1 255.905511811024013 78.7401574803150055 -1.205321214392100048e-15 0 6.123031769111889989e-17 1 I I #
point $-1 255.905511811024013 78.7401574803150055 59.05511811023620083 #
coedge $-1 $542 $483 $463 $508 forward $437 $-1 #
edge $-1 $513 -127.9527559055120065 $510 127.9527559055120065 $463 $543 forward 7 unknown #
coedge $-1 $464 $502 $542 $544 forward $503 $-1 #
vertex $-1 $465 $545 #
straight-curve $-1 255.905511811024013 59.05511811023620083 59.05511811023620083 0 -1 0 I I #
coedge $-1 $484 $467 $483 $524 reversed $392 $-1 #
vertex $-1 $508 $546 #
straight-curve $-1 0 59.05511811023620083 59.05511811023620083 0 1 0 I I #
point $-1 0 78.7401574803150055 59.05511811023620083 #
coedge $-1 $475 $472 $523 $547 reversed $376 $-1 #
edge $-1 $548 -59.05511811023580293 $518 -19.68503937007880467 $484 $549 forward 7 unknown #
vertex $-1 $485 $550 #
straight-curve $-1 127.9527559055120065 78.7401574803150055 0 1 0 0 I I #
edge $-1 $504 19.68503937007880467 $551 59.05511811023580293 $475 $552 forward 7 unknown #
straight-curve $-1 127.9527559055120065 78.7401574803150055 0 1 0 0 I I #
plane-surface $-1 255.905511811024013 59.05511811023620083 0 1 0 0 0 0 -1 forward_v I I I I #
coedge $-1 $483 $542 $516 $547 forward $437 $-1 #
edge $-1 $548 0 $513 59.05511811023620083 $512 $553 forward 7 unknown #
straight-curve $-1 0 78.7401574803150055 -1.205321214392100048e-15 0 -6.123031769111889989e-17 -1 I I #
coedge $-1 $526 $526 $486 $527 forward $554 $-1 #
edge $-1 $555 0 $555 6.283185307179586232 $526 $556 forward 7 unknown #
loop $-1 $557 $487 $558 #
vertex $-1 $488 $559 #
ellipse-curve $-1 127.9527559055120065 4.821284857568410248e-16 7.874015748031499839 0 -1 0 0 0 -4.92125984251968962 1 I I #
loop $-1 $-1 $536 $444 #
point $-1 246.0629921259840103 4.821284857568410248e-16 2.952755905511810219 #
face $-1 $560 $561 $36 $-1 $562 reversed single #
loop $-1 $-1 $563 $492 #
plane-surface $-1 127.9527559055120065 29.88443302560670034 7.874015748031499839 0 1 -6.123031769111889989e-17 -0 6.123031769111889989e-17 1 forward_v I I I I #
coedge $-1 $536 $536 $495 $537 reversed $531 $-1 #
edge $-1 $564 0 $564 6.283185307179586232 $495 $565 forward 7 unknown #
vertex $-1 $497 $566 #
ellipse-curve $-1 246.0629921259840103 7.874015748031499839 7.874015748031499839 0 -1 6.123031769111889989e-17 0 2.369661507494877096e-16 3.870078740157480102 1 I I #
point $-1 246.0629921259840103 27.55905511811020148 4.003937007874020182 #
point $-1 255.905511811024013 78.7401574803150055 -4.821284857568409657e-15 #
coedge $-1 $523 $507 $509 $544 reversed $437 $-1 #
straight-curve $-1 127.9527559055120065 118.1102362204720038 59.05511811023620083 1 0 0 I I #
edge $-1 $551 0 $510 59.05511811023620083 $542 $567 forward 7 unknown #
point $-1 255.905511811024013 118.1102362204720038 59.05511811023620083 #
point $-1 0 118.1102362204720038 59.05511811023620083 #
edge $-1 $551 -127.9527559055120065 $548 127.9527559055120065 $523 $568 forward 7 unknown #
vertex $-1 $524 $569 #
straight-curve $-1 0 59.05511811023620083 0 0 -1 0 I I #
point $-1 -1.639108796198559903e-15 78.7401574803150055 0 #
vertex $-1 $544 $570 #
straight-curve $-1 255.905511811024013 59.05511811023620083 0 0 1 0 I I #
straight-curve $-1 0 118.1102362204720038 0 0 0 1 I I #
loop $-1 $571 $526 $572 #
vertex $-1 $527 $573 #
ellipse-curve $-1 9.842519685039370358 4.821284857568410248e-16 7.874015748031499839 0 -1 0 0 0 -4.92125984251968962 1 I I #
loop $-1 $-1 $574 $558 #
face $-1 $575 $528 $36 $-1 $576 reversed single #
point $-1 127.9527559055120065 4.821284857568410248e-16 2.952755905511810219 #
face $-1 $577 $578 $36 $-1 $579 reversed single #
loop $-1 $580 $581 $533 #
cone-surface $-1 127.9527559055120065 29.88443302560670034 7.874015748031499839 0 -1 6.123031769111889989e-17 0 -2.41064242878420981e-21 -3.937007874015749874e-05 1 I I 0.8571649875973907928 0.5150419245432016346 3.937007874015749874e-05 forward I I I I #
coedge $-1 $563 $563 $582 $583 forward $534 $-1 #
vertex $-1 $537 $584 #
ellipse-curve $-1 246.0629921259840103 7.874015748031499839 7.874015748031499839 0 -1 6.123031769111889989e-17 0 -3.013303035980263431e-16 -4.92125984251968962 1 I I #
point $-1 246.0629921259840103 7.874015748031499839 11.74409448818900081 #
straight-curve $-1 255.905511811024013 118.1102362204720038 0 0 0 1 I I #
straight-curve $-1 127.9527559055120065 118.1102362204720038 0 -1 0 0 I I #
point $-1 0 118.1102362204720038 0 #
point $-1 255.905511811024013 118.1102362204720038 0 #
loop $-1 $-1 $585 $572 #
face $-1 $412 $554 $36 $-1 $586 reversed single #
point $-1 9.842519685039370358 4.821284857568410248e-16 2.952755905511810219 #
coedge $-1 $574 $574 $587 $588 reversed $557 $-1 #
face $-1 $589 $590 $36 $-1 $591 reversed single #
cone-surface $-1 127.9527559055120065 7.874015748031499839 7.874015748031499839 0 -1 6.123031769111889989e-17 0 -3.013303035980263431e-16 -4.92125984251968962 1 I I 0 1 4.92125984251968962 forward I I I I #
face $-1 $558 $592 $36 $-1 $593 reversed single #
loop $-1 $594 $595 $560 #
cone-surface $-1 127.9527559055120065 27.55905511811020148 7.874015748031499839 0 -1 6.123031769111889989e-17 0 -2.369661507494877096e-16 -3.870078740157480102 1 I I 0 1 3.870078740157480102 forward I I I I #
loop $-1 $-1 $582 $533 #
coedge $-1 $581 $581 $596 $597 forward $561 $-1 #
coedge $-1 $582 $582 $563 $583 reversed $580 $-1 #
edge $-1 $598 0 $598 6.283185307179586232 $563 $599 forward 7 unknown #
point $-1 246.0629921259840103 7.874015748031499839 2.952755905511810219 #
coedge $-1 $585 $585 $600 $601 reversed $571 $-1 #
cone-surface $-1 9.842519685039370358 7.874015748031499839 7.874015748031499839 0 -1 6.123031769111889989e-17 0 -3.013303035980263431e-16 -4.92125984251968962 1 I I 0 1 4.92125984251968962 forward I I I I #
coedge $-1 $587 $587 $574 $588 forward $592 $-1 #
edge $-1 $602 0 $602 6.283185307179586232 $587 $603 forward 7 unknown #
face $-1 $604 $605 $36 $-1 $606 reversed single #
loop $-1 $-1 $607 $575 #
plane-surface $-1 9.842519685039370358 29.88443302560670034 7.874015748031499839 0 1 -6.123031769111889989e-17 -0 6.123031769111889989e-17 1 forward_v I I I I #
loop $-1 $608 $587 $577 #
plane-surface $-1 127.9527559055120065 7.874015748031499839 7.874015748031499839 0 1 -6.123031769111889989e-17 -0 6.123031769111889989e-17 1 forward_v I I I I #
loop $-1 $-1 $596 $560 #
coedge $-1 $595 $595 $609 $610 forward $578 $-1 #
coedge $-1 $596 $596 $581 $597 reversed $594 $-1 #
edge $-1 $611 0 $611 6.283185307179586232 $581 $612 forward 7 unknown #
vertex $-1 $583 $613 #
ellipse-curve $-1 127.9527559055120065 29.88443302560670034 7.874015748031499839 0 -1 6.123031769111889989e-17 0 -2.41064242878420981e-21 -3.937007874015749874e-05 1 I I #
coedge $-1 $600 $600 $585 $601 forward $614 $-1 #
edge $-1 $615 0 $615 6.283185307179586232 $600 $616 forward 7 unknown #
vertex $-1 $588 $617 #
ellipse-curve $-1 127.9527559055120065 7.874015748031499839 7.874015748031499839 0 -1 6.123031769111889989e-17 0 -3.013303035980263431e-16 -4.92125984251968962 1 I I #
face $-1 $618 $619 $36 $-1 $620 reversed single #
loop $-1 $621 $622 $589 #
cone-surface $-1 9.842519685039370358 29.88443302560670034 7.874015748031499839 0 -1 6.123031769111889989e-17 0 -2.41064242878420981e-21 -3.937007874015749874e-05 1 I I 0.8571649875973907928 0.5150419245432016346 3.937007874015749874e-05 forward I I I I #
coedge $-1 $607 $607 $623 $624 forward $590 $-1 #
loop $-1 $-1 $609 $577 #
coedge $-1 $609 $609 $595 $610 reversed $608 $-1 #
edge $-1 $625 0 $625 6.283185307179586232 $595 $626 forward 7 unknown #
vertex $-1 $597 $627 #
ellipse-curve $-1 127.9527559055120065 27.55905511811020148 7.874015748031499839 0 -1 6.123031769111889989e-17 0 -2.369661507494877096e-16 -3.870078740157480102 1 I I #
point $-1 127.9527559055120065 29.88443302560670034 7.87397637795275962 #
loop $-1 $628 $600 $618 #
vertex $-1 $601 $629 #
ellipse-curve $-1 9.842519685039370358 7.874015748031499839 7.874015748031499839 0 -1 6.123031769111889989e-17 0 -3.013303035980263431e-16 -4.92125984251968962 1 I I #
point $-1 127.9527559055120065 7.874015748031499839 2.952755905511810219 #
face $-1 $572 $614 $36 $-1 $630 reversed single #
loop $-1 $631 $632 $604 #
cone-surface $-1 9.842519685039370358 27.55905511811020148 7.874015748031499839 0 -1 6.123031769111889989e-17 0 -2.369661507494877096e-16 -3.870078740157480102 1 I I 0 1 3.870078740157480102 forward I I I I #
loop $-1 $-1 $623 $589 #
coedge $-1 $622 $622 $633 $634 forward $605 $-1 #
coedge $-1 $623 $623 $607 $624 reversed $621 $-1 #
edge $-1 $635 0 $635 6.283185307179586232 $607 $636 forward 7 unknown #
vertex $-1 $610 $637 #
ellipse-curve $-1 127.9527559055120065 7.874015748031499839 7.874015748031499839 0 -1 6.123031769111889989e-17 0 2.369661507494877096e-16 3.870078740157480102 1 I I #
point $-1 127.9527559055120065 27.55905511811020148 4.003937007874020182 #
loop $-1 $-1 $638 $618 #
point $-1 9.842519685039370358 7.874015748031499839 2.952755905511810219 #
plane-surface $-1 9.842519685039370358 7.874015748031499839 7.874015748031499839 0 1 -6.123031769111889989e-17 -0 6.123031769111889989e-17 1 forward_v I I I I #
loop $-1 $-1 $633 $604 #
coedge $-1 $632 $632 $638 $639 forward $619 $-1 #
coedge $-1 $633 $633 $622 $634 reversed $631 $-1 #
edge $-1 $640 0 $640 6.283185307179586232 $622 $641 forward 7 unknown #
vertex $-1 $624 $642 #
ellipse-curve $-1 9.842519685039370358 29.88443302560670034 7.874015748031499839 0 -1 6.123031769111889989e-17 0 -2.41064242878420981e-21 -3.937007874015749874e-05 1 I I #
point $-1 127.9527559055120065 7.874015748031499839 11.74409448818900081 #
coedge $-1 $638 $638 $632 $639 reversed $628 $-1 #
edge $-1 $643 0 $643 6.283185307179586232 $632 $644 forward 7 unknown #
vertex $-1 $634 $645 #
ellipse-curve $-1 9.842519685039370358 27.55905511811020148 7.874015748031499839 0 -1 6.123031769111889989e-17 0 -2.369661507494877096e-16 -3.870078740157480102 1 I I #
point $-1 9.842519685039370358 29.88443302560670034 7.87397637795275962 #
vertex $-1 $639 $646 #
ellipse-curve $-1 9.842519685039370358 7.874015748031499839 7.874015748031499839 0 -1 6.123031769111889989e-17 0 2.369661507494877096e-16 3.870078740157480102 1 I I #
point $-1 9.842519685039370358 27.55905511811020148 4.003937007874020182 #
point $-1 9.842519685039370358 7.874015748031499839 11.74409448818900081 #
End-of-ACIS-data 