600 0 1 0           
85 GICL ACIS Healer - Source: /gicl/data5/repository/UMD/base2-Part/base2-Part.sat - 6 0 18 ACIS 6.0.3 Solaris 24 Sun Apr 14 00:36:07 2002 
1 9.999999999999999547e-07 1.000000000000000036e-10 
body $-1 $1 $-1 $-1 #
lump $-1 $-1 $2 $0 #
shell $-1 $-1 $-1 $3 $-1 $1 #
face $-1 $4 $5 $2 $-1 $6 forward single #
face $-1 $7 $8 $2 $-1 $9 forward single #
loop $-1 $-1 $10 $3 #
plane-surface $-1 -50 50 25 0 0 1 0.7071067811865460184 -0.707106781186549016 0 forward_v I I I I #
face $-1 $11 $12 $2 $-1 $13 reversed single #
loop $-1 $-1 $14 $4 #
plane-surface $-1 -41.16116523516819825 41.16116523516809877 37.5 -0.7071067811865460184 0.707106781186549016 0 0 0 1 forward_v I I I I #
coedge $-1 $15 $16 $17 $18 reversed $5 $-1 #
face $-1 $19 $20 $2 $-1 $21 forward single #
loop $-1 $22 $23 $7 #
plane-surface $-1 -50 0 0 1 0 0 0 0 -1 forward_v I I I I #
coedge $-1 $24 $25 $26 $27 reversed $8 $-1 #
coedge $-1 $16 $10 $28 $29 reversed $5 $-1 #
coedge $-1 $10 $15 $30 $31 reversed $5 $-1 #
coedge $-1 $32 $23 $10 $18 forward $12 $-1 #
edge $-1 $33 7.322330470336297026 $34 25 $17 $35 forward 7 unknown #
face $-1 $36 $37 $2 $-1 $38 forward single #
loop $-1 $-1 $39 $11 #
plane-surface $-1 41.16116523516819825 41.16116523516809877 37.5 0.7071067811865460184 0.707106781186549016 0 0 0 -1 forward_v I I I I #
loop $-1 $40 $41 $7 #
coedge $-1 $17 $42 $25 $43 forward $12 $-1 #
coedge $-1 $28 $14 $44 $45 reversed $8 $-1 #
coedge $-1 $14 $28 $23 $43 reversed $8 $-1 #
coedge $-1 $46 $47 $14 $27 forward $48 $-1 #
edge $-1 $49 -12.4999999999999396 $50 12.50000000000008171 $26 $51 forward 7 unknown #
coedge $-1 $25 $24 $15 $29 forward $8 $-1 #
edge $-1 $52 -12.50000000000008171 $33 12.4999999999999396 $28 $53 forward 7 unknown #
coedge $-1 $44 $54 $16 $31 forward $55 $-1 #
edge $-1 $34 -25 $52 -7.322330470336297026 $30 $56 forward 7 unknown #
coedge $-1 $57 $17 $54 $58 forward $12 $-1 #
vertex $-1 $18 $59 #
vertex $-1 $31 $60 #
straight-curve $-1 -50 25 25 0 1 0 I I #
face $-1 $61 $62 $2 $-1 $63 forward single #
loop $-1 $-1 $64 $19 #
plane-surface $-1 50 50 25 0 0 1 0.7071067811865460184 0.707106781186549016 0 forward_v I I I I #
coedge $-1 $65 $66 $67 $68 reversed $20 $-1 #
loop $-1 $-1 $69 $7 #
coedge $-1 $41 $41 $70 $71 forward $22 $-1 #
coedge $-1 $23 $72 $46 $73 reversed $12 $-1 #
edge $-1 $50 -18.75 $33 -6.25 $23 $74 forward 7 unknown #
coedge $-1 $75 $30 $24 $45 forward $55 $-1 #
edge $-1 $52 6.25 $49 18.75 $44 $76 forward 7 unknown #
coedge $-1 $77 $26 $42 $73 forward $48 $-1 #
coedge $-1 $26 $78 $75 $79 forward $48 $-1 #
loop $-1 $-1 $26 $80 #
vertex $-1 $79 $81 #
vertex $-1 $43 $82 #
straight-curve $-1 -41.16116523516809877 41.16116523516819825 37.5 -0.707106781186549016 -0.7071067811865460184 0 I I #
vertex $-1 $31 $83 #
straight-curve $-1 -41.16116523516819825 41.16116523516809877 25 -0.707106781186549016 -0.7071067811865460184 0 I I #
coedge $-1 $30 $84 $32 $58 reversed $55 $-1 #
loop $-1 $-1 $44 $61 #
straight-curve $-1 -25 50 25 1 0 -0 I I #
coedge $-1 $85 $32 $86 $87 reversed $12 $-1 #
edge $-1 $34 -25 $88 37.5 $54 $89 forward 7 unknown #
point $-1 -50 32.32233047033629703 25 #
point $-1 -50 50 25 #
face $-1 $90 $55 $2 $-1 $91 reversed single #
loop $-1 $-1 $67 $36 #
plane-surface $-1 0 0 37.5 0 0 1 1 0 0 forward_v I I I I #
coedge $-1 $92 $93 $94 $95 reversed $37 $-1 #
coedge $-1 $96 $39 $97 $98 reversed $20 $-1 #
coedge $-1 $39 $96 $99 $100 reversed $20 $-1 #
coedge $-1 $101 $102 $39 $68 forward $62 $-1 #
edge $-1 $103 -12.50000000000008171 $104 12.4999999999999396 $67 $105 forward 7 unknown #
coedge $-1 $69 $69 $106 $107 forward $40 $-1 #
coedge $-1 $70 $70 $41 $71 reversed $108 $-1 #
edge $-1 $109 0 $109 6.283185307179586232 $41 $110 forward 7 unknown #
coedge $-1 $42 $111 $112 $113 forward $12 $-1 #
edge $-1 $50 -32.32233047033629703 $114 20 $42 $115 forward 7 unknown #
straight-curve $-1 -50 32.32233047033629703 18.75 0 0 -1 I I #
coedge $-1 $116 $44 $47 $79 reversed $55 $-1 #
straight-curve $-1 -32.32233047033629703 50 18.75 0 0 1 I I #
coedge $-1 $78 $46 $117 $118 forward $48 $-1 #
coedge $-1 $47 $77 $119 $120 forward $48 $-1 #
edge $-1 $121 25 $49 32.32233047033629703 $75 $122 forward 7 unknown #
face $-1 $123 $48 $2 $-1 $63 forward single #
point $-1 -32.32233047033629703 50 37.5 #
point $-1 -50 32.32233047033629703 37.5 #
point $-1 -32.32233047033629703 50 25 #
coedge $-1 $54 $124 $125 $126 reversed $55 $-1 #
coedge $-1 $111 $57 $127 $128 reversed $12 $-1 #
coedge $-1 $125 $129 $57 $87 forward $130 $-1 #
edge $-1 $131 -50 $88 50 $57 $132 forward 7 unknown #
vertex $-1 $126 $133 #
straight-curve $-1 -50 50 0 0 0 -1 I I #
face $-1 $134 $135 $2 $-1 $136 forward single #
plane-surface $-1 0 50 0 0 -1 0 0 0 -1 forward_v I I I I #
coedge $-1 $93 $64 $137 $138 reversed $37 $-1 #
coedge $-1 $64 $92 $96 $139 reversed $37 $-1 #
coedge $-1 $97 $140 $64 $95 forward $141 $-1 #
edge $-1 $142 -25 $143 -7.322330470336297026 $94 $144 forward 7 unknown #
coedge $-1 $66 $65 $93 $139 forward $20 $-1 #
coedge $-1 $145 $94 $65 $98 forward $141 $-1 #
edge $-1 $143 6.25 $103 18.75 $97 $146 forward 7 unknown #
coedge $-1 $137 $147 $66 $100 forward $55 $-1 #
edge $-1 $104 -18.75 $148 -6.25 $99 $149 forward 7 unknown #
coedge $-1 $150 $67 $147 $151 forward $62 $-1 #
coedge $-1 $67 $152 $145 $153 forward $62 $-1 #
vertex $-1 $153 $154 #
vertex $-1 $100 $155 #
straight-curve $-1 41.16116523516809877 41.16116523516819825 37.5 -0.707106781186549016 0.7071067811865460184 0 I I #
coedge $-1 $106 $106 $69 $107 reversed $156 $-1 #
edge $-1 $157 0 $157 6.283185307179586232 $69 $158 forward 7 unknown #
loop $-1 $-1 $70 $159 #
vertex $-1 $71 $160 #
ellipse-curve $-1 -50 2.5 12.50000000000020073 1 0 0 -2.618611004132350016e-14 0 -7.5 1 I I #
coedge $-1 $72 $85 $161 $162 forward $12 $-1 #
coedge $-1 $163 $117 $72 $113 reversed $164 $-1 #
edge $-1 $165 -18.75 $114 31.25 $72 $166 forward 7 unknown #
vertex $-1 $73 $167 #
straight-curve $-1 -50 0 37.5 0 -1 0 I I #
coedge $-1 $168 $75 $169 $170 forward $55 $-1 #
coedge $-1 $112 $171 $77 $118 reversed $164 $-1 #
edge $-1 $114 -50 $172 -25 $77 $173 forward 7 unknown #
coedge $-1 $174 $169 $78 $120 reversed $175 $-1 #
edge $-1 $172 -27.5 $121 42.5 $78 $176 forward 7 unknown #
vertex $-1 $170 $177 #
straight-curve $-1 0 50 37.5 -1 0 0 I I #
face $-1 $-1 $141 $2 $-1 $178 reversed single #
coedge $-1 $84 $137 $140 $179 forward $55 $-1 #
coedge $-1 $180 $86 $84 $126 forward $130 $-1 #
edge $-1 $88 -50 $181 50 $84 $182 forward 7 unknown #
coedge $-1 $183 $184 $85 $128 forward $185 $-1 #
edge $-1 $186 12.5 $131 37.5 $85 $187 forward 7 unknown #
coedge $-1 $86 $188 $183 $189 forward $130 $-1 #
loop $-1 $-1 $190 $191 #
vertex $-1 $87 $192 #
straight-curve $-1 -50 0 -37.5 0 1 0 I I #
point $-1 -50 50 -37.5 #
face $-1 $193 $194 $2 $-1 $195 forward single #
loop $-1 $-1 $196 $90 #
plane-surface $-1 -20 -40 -25 -1 0 0 0 0 1 forward_v I I I I #
coedge $-1 $124 $99 $92 $138 forward $55 $-1 #
edge $-1 $148 7.322330470336297026 $142 25 $137 $197 forward 7 unknown #
edge $-1 $143 -12.4999999999999396 $148 12.50000000000008171 $96 $198 forward 7 unknown #
coedge $-1 $94 $199 $124 $179 reversed $141 $-1 #
loop $-1 $200 $97 $123 #
vertex $-1 $138 $201 #
vertex $-1 $95 $202 #
straight-curve $-1 50 25 25 0 -1 0 I I #
coedge $-1 $203 $97 $102 $153 reversed $141 $-1 #
straight-curve $-1 50 32.32233047033629703 18.75 0 0 1 I I #
coedge $-1 $99 $204 $101 $151 reversed $55 $-1 #
vertex $-1 $138 $205 #
straight-curve $-1 32.32233047033629703 50 18.75 0 0 -1 I I #
coedge $-1 $152 $101 $206 $207 forward $62 $-1 #
edge $-1 $104 -32.32233047033629703 $208 -25 $147 $122 forward 7 unknown #
coedge $-1 $102 $150 $209 $210 forward $62 $-1 #
edge $-1 $211 -20 $103 32.32233047033629703 $145 $212 forward 7 unknown #
point $-1 50 32.32233047033629703 37.5 #
point $-1 32.32233047033629703 50 37.5 #
loop $-1 $-1 $106 $213 #
vertex $-1 $107 $214 #
ellipse-curve $-1 -50 27.5 12.50000000000020073 1 0 0 -2.618611004132350016e-14 0 -7.5 1 I I #
face $-1 $215 $216 $2 $-1 $217 reversed single #
point $-1 -50 2.5 5.000000000000169642 #
coedge $-1 $218 $219 $111 $162 reversed $220 $-1 #
edge $-1 $186 -32.5 $165 -2.5 $111 $221 forward 7 unknown #
coedge $-1 $222 $112 $219 $223 forward $164 $-1 #
loop $-1 $-1 $224 $225 #
vertex $-1 $162 $226 #
straight-curve $-1 -50 -20 6.25 -0 0 1 I I #
point $-1 -50 -20 37.5 #
coedge $-1 $227 $116 $228 $229 forward $55 $-1 #
coedge $-1 $119 $230 $116 $170 reversed $175 $-1 #
edge $-1 $121 -25 $231 0 $116 $232 forward 7 unknown #
coedge $-1 $117 $233 $174 $234 forward $164 $-1 #
vertex $-1 $118 $235 #
straight-curve $-1 0 -20 37.5 1 0 -0 I I #
coedge $-1 $236 $119 $171 $234 reversed $175 $-1 #
loop $-1 $-1 $237 $238 #
straight-curve $-1 -25 7.5 37.5 0 1 0 I I #
point $-1 -25 50 37.5 #
plane-surface $-1 50 0 0 -1 0 0 0 -0 1 forward_v I I I I #
edge $-1 $142 -25 $181 37.5 $140 $239 forward 7 unknown #
coedge $-1 $240 $125 $199 $241 forward $130 $-1 #
vertex $-1 $241 $242 #
straight-curve $-1 0 50 -37.5 1 0 0 I I #
coedge $-1 $243 $127 $129 $189 reversed $185 $-1 #
coedge $-1 $127 $243 $218 $244 forward $185 $-1 #
loop $-1 $-1 $243 $245 #
vertex $-1 $244 $246 #
straight-curve $-1 -50 -50 0 0 0 -1 I I #
coedge $-1 $129 $247 $248 $249 forward $130 $-1 #
edge $-1 $250 35 $131 50 $183 $251 forward 7 unknown #
coedge $-1 $252 $253 $254 $255 forward $130 $-1 #
face $-1 $245 $130 $2 $-1 $256 reversed single #
point $-1 -50 -50 -37.5 #
face $-1 $257 $258 $2 $-1 $259 forward single #
loop $-1 $-1 $260 $134 #
plane-surface $-1 -30 -40 -25 1 0 0 0 0 -1 forward_v I I I I #
coedge $-1 $261 $262 $263 $264 forward $135 $-1 #
straight-curve $-1 25 50 25 1 0 -0 I I #
straight-curve $-1 41.16116523516819825 41.16116523516809877 25 -0.707106781186549016 0.7071067811865460184 0 I I #
coedge $-1 $140 $265 $180 $241 reversed $141 $-1 #
loop $-1 $266 $267 $123 #
point $-1 50 50 25 #
point $-1 50 32.32233047033629703 25 #
coedge $-1 $268 $145 $222 $269 forward $141 $-1 #
coedge $-1 $147 $270 $271 $272 forward $55 $-1 #
point $-1 32.32233047033629703 50 25 #
coedge $-1 $271 $273 $150 $207 reversed $274 $-1 #
edge $-1 $208 -42.5 $275 27.5 $150 $276 forward 7 unknown #
vertex $-1 $151 $277 #
coedge $-1 $278 $222 $152 $210 reversed $164 $-1 #
edge $-1 $275 25 $211 50 $152 $173 forward 7 unknown #
vertex $-1 $269 $279 #
straight-curve $-1 50 0 37.5 0 1 0 I I #
face $-1 $280 $281 $2 $-1 $282 reversed single #
point $-1 -50 27.5 5.000000000000169642 #
face $-1 $283 $284 $2 $-1 $217 reversed single #
loop $-1 $108 $285 $159 #
cone-surface $-1 0 2.5 12.5 1 0 -3.491481338843129805e-15 -2.618611004132350016e-14 0 -7.5 1 I I 0 1 7.5 forward I I I I #
coedge $-1 $286 $161 $184 $244 reversed $220 $-1 #
coedge $-1 $161 $287 $163 $223 reversed $220 $-1 #
loop $-1 $-1 $286 $288 #
straight-curve $-1 -50 -17.5 -12.5 0 1 0 I I #
coedge $-1 $209 $163 $203 $269 reversed $164 $-1 #
edge $-1 $165 -50 $289 50 $163 $290 forward 7 unknown #
coedge $-1 $233 $291 $292 $293 forward $164 $-1 #
face $-1 $294 $164 $2 $-1 $295 forward single #
point $-1 -50 -20 -12.5 #
coedge $-1 $296 $168 $297 $298 forward $55 $-1 #
coedge $-1 $299 $300 $168 $229 reversed $301 $-1 #
edge $-1 $231 -25 $302 -20 $168 $303 forward 7 unknown #
coedge $-1 $169 $237 $299 $304 forward $175 $-1 #
vertex $-1 $229 $305 #
straight-curve $-1 -25 50 12.5 0 0 -1 I I #
coedge $-1 $171 $224 $306 $307 forward $164 $-1 #
edge $-1 $308 -6.25 $172 18.75 $171 $309 forward 7 unknown #
point $-1 -25 -20 37.5 #
coedge $-1 $310 $174 $311 $312 forward $175 $-1 #
coedge $-1 $230 $313 $314 $315 forward $175 $-1 #
face $-1 $316 $175 $2 $-1 $317 forward single #
straight-curve $-1 50 50 0 0 0 -1 I I #
coedge $-1 $318 $180 $319 $320 forward $130 $-1 #
edge $-1 $181 -50 $321 50 $199 $322 forward 7 unknown #
point $-1 50 50 -37.5 #
coedge $-1 $184 $183 $323 $324 forward $185 $-1 #
edge $-1 $325 35 $186 50 $184 $326 forward 7 unknown #
face $-1 $288 $185 $2 $-1 $327 reversed single #
point $-1 -50 -50 -12.5 #
coedge $-1 $188 $328 $329 $330 forward $130 $-1 #
coedge $-1 $331 $323 $188 $249 reversed $332 $-1 #
edge $-1 $333 17.5 $250 27.5 $188 $334 forward 7 unknown #
vertex $-1 $324 $335 #
straight-curve $-1 0 -50 -37.5 -1 0 0 I I #
coedge $-1 $336 $190 $337 $338 forward $130 $-1 #
coedge $-1 $190 $339 $340 $341 forward $130 $-1 #
coedge $-1 $342 $343 $190 $255 reversed $344 $-1 #
edge $-1 $345 -27.5 $346 -17.5 $190 $347 forward 7 unknown #
plane-surface $-1 0 0 -37.5 0 0 1 1 0 0 forward_v I I I I #
face $-1 $348 $349 $2 $-1 $350 forward single #
loop $-1 $-1 $351 $193 #
plane-surface $-1 -25 -30 -25 0 -1 0 0 0 -1 forward_v I I I I #
coedge $-1 $352 $353 $354 $355 forward $194 $-1 #
coedge $-1 $356 $196 $357 $358 reversed $135 $-1 #
coedge $-1 $196 $356 $336 $359 reversed $135 $-1 #
coedge $-1 $337 $360 $196 $264 reversed $349 $-1 #
edge $-1 $361 -12.5 $362 12.5 $263 $363 forward 7 unknown #
coedge $-1 $199 $268 $364 $365 forward $141 $-1 #
loop $-1 $-1 $366 $123 #
coedge $-1 $267 $267 $367 $368 forward $200 $-1 #
coedge $-1 $265 $203 $287 $369 forward $141 $-1 #
edge $-1 $211 -31.25 $289 18.75 $203 $370 forward 7 unknown #
coedge $-1 $204 $371 $372 $373 forward $55 $-1 #
coedge $-1 $374 $206 $204 $272 reversed $274 $-1 #
edge $-1 $375 0 $208 25 $204 $376 forward 7 unknown #
coedge $-1 $206 $377 $278 $378 reversed $274 $-1 #
loop $-1 $-1 $379 $380 #
vertex $-1 $207 $381 #
straight-curve $-1 25 7.5 37.5 0 -1 0 I I #
point $-1 25 50 37.5 #
coedge $-1 $382 $209 $273 $378 forward $164 $-1 #
point $-1 50 -20 37.5 #
face $-1 $238 $383 $2 $-1 $282 reversed single #
loop $-1 $156 $384 $213 #
cone-surface $-1 0 27.5 12.5 1 0 -3.491481338843129805e-15 -2.618611004132350016e-14 0 -7.5 1 I I 0 1 7.5 forward I I I I #
face $-1 $385 $386 $2 $-1 $387 forward single #
loop $-1 $-1 $388 $215 #
coedge $-1 $389 $390 $391 $392 reversed $216 $-1 #
coedge $-1 $393 $218 $394 $395 forward $220 $-1 #
coedge $-1 $219 $396 $268 $369 reversed $220 $-1 #
face $-1 $397 $220 $2 $-1 $398 forward single #
vertex $-1 $369 $399 #
straight-curve $-1 0 -20 -12.5 1 0 0 I I #
coedge $-1 $224 $400 $401 $402 forward $164 $-1 #
coedge $-1 $403 $404 $224 $293 reversed $405 $-1 #
edge $-1 $406 -2.676377638029710658e-14 $407 3.141592653589819761 $224 $408 forward 7 unknown #
face $-1 $409 $410 $2 $-1 $387 forward single #
plane-surface $-1 0 -20 12.5 0 -1 0 0 0 -1 forward_v I I I I #
coedge $-1 $371 $227 $411 $412 forward $55 $-1 #
coedge $-1 $413 $414 $227 $298 reversed $415 $-1 #
edge $-1 $302 -3.141592653589779793 $416 -1.326346440085520368e-14 $227 $417 forward 7 unknown #
coedge $-1 $418 $228 $230 $304 reversed $301 $-1 #
coedge $-1 $228 $418 $413 $419 forward $301 $-1 #
loop $-1 $-1 $418 $316 #
vertex $-1 $229 $420 #
straight-curve $-1 0 50 12.5 1 0 -0 I I #
edge $-1 $421 20 $231 35 $230 $422 forward 7 unknown #
point $-1 -25 50 12.5 #
coedge $-1 $423 $311 $233 $307 reversed $410 $-1 #
edge $-1 $407 20 $308 25 $233 $424 forward 7 unknown #
vertex $-1 $307 $425 #
straight-curve $-1 -25 -20 18.75 -0 0 1 I I #
coedge $-1 $313 $236 $426 $427 forward $175 $-1 #
coedge $-1 $306 $428 $236 $312 reversed $410 $-1 #
edge $-1 $308 -35 $429 -20 $236 $422 forward 7 unknown #
coedge $-1 $237 $310 $430 $431 forward $175 $-1 #
coedge $-1 $432 $433 $237 $315 reversed $281 $-1 #
edge $-1 $434 1.570796326794883457 $421 4.712388980384702997 $237 $435 forward 7 unknown #
face $-1 $436 $301 $2 $-1 $387 forward single #
plane-surface $-1 -25 15 25 1 0 0 0 0 -1 forward_v I I I I #
coedge $-1 $437 $240 $438 $439 forward $130 $-1 #
coedge $-1 $364 $440 $240 $320 reversed $441 $-1 #
edge $-1 $321 -50 $442 -35 $319 $251 forward 7 unknown #
vertex $-1 $365 $443 #
straight-curve $-1 50 0 -37.5 0 -1 0 I I #
coedge $-1 $248 $394 $243 $324 reversed $332 $-1 #
edge $-1 $250 -25 $325 0 $243 $444 forward 7 unknown #
vertex $-1 $395 $445 #
straight-curve $-1 0 -50 -12.5 -1 0 0 I I #
plane-surface $-1 0 -50 0 0 1 -0 -0 0 1 forward_v I I I I #
coedge $-1 $247 $446 $352 $447 forward $130 $-1 #
coedge $-1 $354 $448 $247 $330 reversed $449 $-1 #
edge $-1 $450 17.5 $333 22.5 $247 $451 forward 7 unknown #
coedge $-1 $394 $248 $448 $452 reversed $332 $-1 #
loop $-1 $-1 $331 $453 #
vertex $-1 $330 $454 #
straight-curve $-1 -35 -22.5 -37.5 0 -1 0 I I #
point $-1 -35 -50 -37.5 #
coedge $-1 $446 $252 $262 $359 forward $130 $-1 #
coedge $-1 $455 $263 $252 $338 reversed $349 $-1 #
edge $-1 $346 2.5 $361 7.5 $252 $456 forward 7 unknown #
coedge $-1 $253 $457 $458 $459 forward $130 $-1 #
coedge $-1 $460 $461 $253 $341 reversed $462 $-1 #
edge $-1 $463 -15 $345 15 $340 $251 forward 7 unknown #
coedge $-1 $464 $254 $461 $465 reversed $344 $-1 #
coedge $-1 $254 $464 $455 $466 forward $344 $-1 #
loop $-1 $-1 $342 $467 #
vertex $-1 $341 $468 #
vertex $-1 $338 $469 #
straight-curve $-1 -15 -22.5 -37.5 0 1 -0 I I #
face $-1 $453 $449 $2 $-1 $350 forward single #
loop $-1 $-1 $263 $257 #
plane-surface $-1 -25 -40 -25 0 -1 0 0 0 -1 forward_v I I I I #
coedge $-1 $470 $471 $356 $472 reversed $258 $-1 #
coedge $-1 $473 $260 $328 $447 reversed $194 $-1 #
coedge $-1 $260 $473 $474 $475 reversed $194 $-1 #
coedge $-1 $476 $329 $260 $355 reversed $449 $-1 #
edge $-1 $477 -12.5 $450 12.5 $354 $478 forward 7 unknown #
coedge $-1 $262 $261 $351 $472 forward $135 $-1 #
coedge $-1 $479 $480 $261 $358 forward $220 $-1 #
edge $-1 $481 -7.5 $362 2.5 $357 $482 forward 7 unknown #
edge $-1 $361 -20 $483 -10 $336 $484 forward 7 unknown #
coedge $-1 $263 $455 $479 $485 reversed $349 $-1 #
vertex $-1 $359 $486 #
vertex $-1 $358 $487 #
straight-curve $-1 -20 -40 -25 0 0 1 I I #
coedge $-1 $488 $319 $265 $365 reversed $441 $-1 #
edge $-1 $489 12.5 $321 37.5 $265 $490 forward 7 unknown #
coedge $-1 $366 $366 $491 $492 forward $266 $-1 #
coedge $-1 $367 $367 $267 $368 reversed $493 $-1 #
edge $-1 $494 -0 $494 6.283185307179586232 $267 $495 forward 7 unknown #
edge $-1 $289 2.5 $489 32.5 $268 $496 forward 7 unknown #
straight-curve $-1 50 -20 6.25 -0 -0 -1 I I #
coedge $-1 $270 $296 $497 $498 forward $55 $-1 #
coedge $-1 $499 $500 $270 $373 reversed $501 $-1 #
edge $-1 $502 20 $375 25 $270 $303 forward 7 unknown #
coedge $-1 $379 $271 $500 $503 forward $274 $-1 #
vertex $-1 $373 $504 #
straight-curve $-1 25 50 12.5 0 0 1 I I #
coedge $-1 $273 $505 $506 $507 forward $274 $-1 #
edge $-1 $275 -18.75 $508 6.25 $278 $509 forward 7 unknown #
coedge $-1 $510 $374 $511 $512 forward $274 $-1 #
face $-1 $80 $274 $2 $-1 $513 forward single #
point $-1 25 -20 37.5 #
coedge $-1 $400 $278 $514 $515 forward $164 $-1 #
loop $-1 $-1 $516 $280 #
coedge $-1 $517 $432 $518 $519 reversed $281 $-1 #
face $-1 $520 $405 $2 $-1 $521 reversed single #
loop $-1 $-1 $522 $283 #
plane-surface $-1 0 15 12.5 0 0 1 1 0 0 forward_v I I I I #
coedge $-1 $523 $524 $525 $526 reversed $284 $-1 #
coedge $-1 $527 $285 $528 $529 reversed $216 $-1 #
coedge $-1 $285 $426 $428 $530 reversed $216 $-1 #
coedge $-1 $404 $531 $285 $392 forward $405 $-1 #
edge $-1 $532 1.570796326794892783 $533 3.141592653589776685 $391 $534 forward 7 unknown #
coedge $-1 $474 $286 $476 $535 forward $220 $-1 #
coedge $-1 $323 $331 $286 $395 reversed $332 $-1 #
edge $-1 $325 -10 $536 0 $286 $537 forward 7 unknown #
coedge $-1 $287 $538 $488 $539 reversed $220 $-1 #
face $-1 $540 $541 $2 $-1 $542 forward single #
plane-surface $-1 0 -35 -12.5 0 0 1 1 0 0 forward_v I I I I #
point $-1 50 -20 -12.5 #
coedge $-1 $291 $382 $543 $544 forward $164 $-1 #
coedge $-1 $545 $546 $291 $402 reversed $547 $-1 #
edge $-1 $548 -5 $406 5 $291 $424 forward 7 unknown #
coedge $-1 $531 $292 $546 $549 reversed $405 $-1 #
coedge $-1 $292 $391 $423 $550 reversed $405 $-1 #
loop $-1 $-1 $531 $385 #
vertex $-1 $402 $551 #
vertex $-1 $550 $552 #
ellipse-curve $-1 -12.5 -20 12.49999999999979927 -0 1 -0 7.5 0 0 1 I I #
face $-1 $553 $554 $2 $-1 $555 reversed single #
loop $-1 $-1 $428 $294 #
coedge $-1 $556 $557 $296 $412 reversed $558 $-1 #
edge $-1 $416 -5 $559 5 $296 $303 forward 7 unknown #
coedge $-1 $560 $297 $300 $419 reversed $415 $-1 #
coedge $-1 $297 $561 $556 $562 reversed $415 $-1 #
loop $-1 $-1 $560 $436 #
vertex $-1 $298 $563 #
ellipse-curve $-1 -12.5 50 12.50000000000009948 0 -1 0 7.5 0 0 1 I I #
coedge $-1 $300 $299 $433 $564 forward $301 $-1 #
edge $-1 $565 10 $302 25 $300 $566 forward 7 unknown #
point $-1 -20 50 12.5 #
vertex $-1 $564 $567 #
straight-curve $-1 -25 15 12.5 0 1 0 I I #
coedge $-1 $428 $306 $404 $550 forward $410 $-1 #
straight-curve $-1 0 -20 12.5 -1 0 0 I I #
point $-1 -25 -20 12.5 #
coedge $-1 $390 $527 $310 $427 reversed $216 $-1 #
edge $-1 $429 1.570796326794883457 $568 4.712388980384702997 $310 $569 forward 7 unknown #
coedge $-1 $311 $423 $390 $530 forward $410 $-1 #
vertex $-1 $312 $570 #
coedge $-1 $571 $522 $313 $431 reversed $386 $-1 #
edge $-1 $568 -5 $434 5 $313 $422 forward 7 unknown #
coedge $-1 $384 $314 $522 $572 reversed $281 $-1 #
coedge $-1 $314 $517 $418 $564 reversed $281 $-1 #
vertex $-1 $431 $573 #
ellipse-curve $-1 -25 27.5 12.50000000000009948 -1 -0 -0 -2.618611004132350016e-14 0 -7.5 1 I I #
face $-1 $574 $415 $2 $-1 $521 reversed single #
coedge $-1 $575 $318 $576 $577 forward $130 $-1 #
coedge $-1 $578 $579 $318 $439 reversed $580 $-1 #
edge $-1 $442 -27.5 $581 -17.5 $318 $582 forward 7 unknown #
coedge $-1 $319 $488 $578 $583 forward $441 $-1 #
loop $-1 $-1 $440 $584 #
vertex $-1 $320 $585 #
point $-1 50 -50 -37.5 #
straight-curve $-1 -35 -50 -12.5 -0 0 1 I I #
point $-1 -35 -50 -12.5 #
coedge $-1 $328 $336 $471 $586 forward $130 $-1 #
edge $-1 $587 10 $450 20 $328 $588 forward 7 unknown #
coedge $-1 $329 $476 $331 $452 forward $449 $-1 #
loop $-1 $-1 $354 $348 #
vertex $-1 $447 $589 #
straight-curve $-1 -12.5 -40 -37.5 -1 0 0 I I #
edge $-1 $536 -12.5 $333 12.5 $448 $590 forward 7 unknown #
face $-1 $467 $332 $2 $-1 $591 forward single #
point $-1 -35 -40 -37.5 #
coedge $-1 $360 $337 $343 $466 reversed $349 $-1 #
straight-curve $-1 -12.5 -40 -37.5 -1 0 0 I I #
coedge $-1 $339 $592 $593 $594 forward $130 $-1 #
coedge $-1 $595 $596 $339 $459 reversed $597 $-1 #
edge $-1 $598 17.5 $463 27.5 $339 $599 forward 7 unknown #
coedge $-1 $600 $340 $596 $601 forward $462 $-1 #
coedge $-1 $340 $600 $342 $465 forward $462 $-1 #
loop $-1 $-1 $461 $602 #
vertex $-1 $601 $603 #
coedge $-1 $343 $342 $604 $605 reversed $344 $-1 #
edge $-1 $606 0 $345 25 $461 $607 forward 7 unknown #
edge $-1 $608 -12.5 $346 12.5 $343 $609 forward 7 unknown #
face $-1 $191 $344 $2 $-1 $610 forward single #
point $-1 -15 -50 -37.5 #
point $-1 -15 -40 -37.5 #
coedge $-1 $611 $351 $480 $612 reversed $258 $-1 #
coedge $-1 $351 $611 $446 $586 reversed $258 $-1 #
edge $-1 $481 -12.5 $483 12.5 $356 $613 forward 7 unknown #
coedge $-1 $353 $352 $611 $614 reversed $194 $-1 #
coedge $-1 $480 $393 $353 $475 forward $220 $-1 #
edge $-1 $477 -2.5 $615 7.5 $474 $616 forward 7 unknown #
coedge $-1 $448 $354 $393 $535 reversed $449 $-1 #
vertex $-1 $475 $617 #
straight-curve $-1 -30 -40 -25 0 0 -1 I I #
coedge $-1 $604 $357 $360 $485 forward $220 $-1 #
coedge $-1 $357 $474 $470 $612 forward $220 $-1 #
vertex $-1 $358 $618 #
straight-curve $-1 -20 -37.5 -12.5 0 -1 0 I I #
vertex $-1 $359 $619 #
straight-curve $-1 -20 -20 -37.5 0 1 -0 I I #
edge $-1 $362 -7.5 $608 -2.5 $479 $620 forward 7 unknown #
point $-1 -20 -40 -37.5 #
point $-1 -20 -40 -12.5 #
coedge $-1 $440 $364 $396 $539 forward $441 $-1 #
vertex $-1 $539 $621 #
straight-curve $-1 50 -50 0 0 0 -1 I I #
coedge $-1 $491 $491 $366 $492 reversed $622 $-1 #
edge $-1 $623 -0 $623 6.283185307179586232 $366 $624 forward 7 unknown #
loop $-1 $625 $367 $626 #
vertex $-1 $368 $627 #
ellipse-curve $-1 50 27.5 12.49999999999979927 -1 0 0 -2.618611004132350016e-14 0 -7.5 1 I I #
straight-curve $-1 50 -17.5 -12.5 0 -1 0 I I #
coedge $-1 $628 $629 $371 $498 reversed $630 $-1 #
edge $-1 $559 -3.141592653589779793 $502 -1.326346440085520368e-14 $371 $631 forward 7 unknown #
coedge $-1 $632 $372 $629 $633 forward $501 $-1 #
coedge $-1 $372 $632 $374 $503 reversed $501 $-1 #
loop $-1 $-1 $632 $634 #
vertex $-1 $633 $635 #
edge $-1 $375 -35 $636 -20 $374 $637 forward 7 unknown #
point $-1 25 50 12.5 #
coedge $-1 $377 $510 $638 $639 forward $274 $-1 #
coedge $-1 $640 $514 $377 $507 reversed $641 $-1 #
edge $-1 $642 20 $508 35 $377 $637 forward 7 unknown #
vertex $-1 $515 $643 #
straight-curve $-1 25 -20 18.75 -0 -0 -1 I I #
coedge $-1 $505 $379 $644 $645 forward $274 $-1 #
coedge $-1 $646 $647 $379 $512 reversed $625 $-1 #
edge $-1 $636 1.570796326794909881 $648 4.712388980384676351 $379 $649 forward 7 unknown #
plane-surface $-1 25 15 25 -1 0 0 0 0 1 forward_v I I I I #
coedge $-1 $506 $650 $382 $515 reversed $641 $-1 #
edge $-1 $508 -25 $651 -20 $382 $424 forward 7 unknown #
coedge $-1 $652 $653 $654 $655 reversed $383 $-1 #
coedge $-1 $433 $384 $560 $656 reversed $281 $-1 #
coedge $-1 $657 $658 $384 $519 forward $659 $-1 #
edge $-1 $660 1.570796326794894782 $661 3.141592653589789563 $518 $662 forward 7 unknown #
face $-1 $663 $641 $2 $-1 $387 forward single #
cone-surface $-1 -12.5 25 12.5 0 -1 -3.491481338843129805e-15 7.5 0 0 1 I I 0 1 7.5 forward I I I I #
coedge $-1 $430 $664 $432 $572 forward $386 $-1 #
coedge $-1 $665 $388 $666 $667 reversed $284 $-1 #
coedge $-1 $388 $668 $669 $670 reversed $284 $-1 #
coedge $-1 $671 $672 $388 $526 forward $673 $-1 #
edge $-1 $674 1.675494573969834966e-14 $675 1.570796326794896336 $525 $676 forward 7 unknown #
coedge $-1 $426 $389 $571 $677 reversed $216 $-1 #
coedge $-1 $678 $657 $389 $529 forward $659 $-1 #
edge $-1 $679 1.675494573969834966e-14 $532 1.570796326794896336 $528 $680 forward 7 unknown #
edge $-1 $533 20 $429 25 $428 $681 forward 7 unknown #
coedge $-1 $391 $403 $682 $683 forward $405 $-1 #
vertex $-1 $529 $684 #
vertex $-1 $550 $685 #
ellipse-curve $-1 -12.5 2.5 12.5 -0.7071067811865475727 0.7071067811865475727 4.982426735556514333e-15 7.5 7.5 -2.618611004132350016e-14 0.7071067811865470176 I I #
edge $-1 $536 -22.5 $477 -17.5 $393 $686 forward 7 unknown #
vertex $-1 $535 $687 #
straight-curve $-1 -35 -40 -12.5 0 1 0 I I #
coedge $-1 $396 $688 $689 $690 forward $220 $-1 #
edge $-1 $489 -50 $691 -35 $488 $326 forward 7 unknown #
face $-1 $692 $693 $2 $-1 $694 forward single #
loop $-1 $-1 $695 $397 #
plane-surface $-1 30 -40 -25 -1 0 0 0 0 1 forward_v I I I I #
coedge $-1 $696 $697 $400 $544 reversed $554 $-1 #
edge $-1 $651 -2.676377638029710658e-14 $548 3.141592653589819761 $400 $698 forward 7 unknown #
coedge $-1 $699 $401 $697 $700 forward $547 $-1 #
coedge $-1 $401 $699 $403 $549 forward $547 $-1 #
loop $-1 $-1 $699 $553 #
vertex $-1 $544 $701 #
edge $-1 $702 30 $406 45 $546 $703 forward 7 unknown #
edge $-1 $407 -45 $533 -30 $423 $566 forward 7 unknown #
point $-1 -5 -20 12.5 #
point $-1 -20 -20 12.5 #
face $-1 $380 $547 $2 $-1 $387 forward single #
loop $-1 $-1 $669 $409 #
cone-surface $-1 12.5 25 12.5 0 -1 -3.491481338843129805e-15 7.5 0 0 1 I I 0 1 7.5 forward I I I I #
coedge $-1 $704 $411 $414 $562 forward $558 $-1 #
coedge $-1 $411 $704 $628 $705 forward $558 $-1 #
loop $-1 $-1 $704 $706 #
vertex $-1 $412 $707 #
coedge $-1 $561 $413 $517 $656 forward $415 $-1 #
coedge $-1 $414 $560 $708 $709 forward $415 $-1 #
edge $-1 $416 -25 $710 -10 $556 $703 forward 7 unknown #
point $-1 -5 50 12.5 #
edge $-1 $421 -25 $565 -20 $418 $711 forward 7 unknown #
vertex $-1 $656 $712 #
straight-curve $-1 -20 25 12.5 -0 1 3.491481338843129805e-15 I I #
point $-1 -25 35 12.5 #
vertex $-1 $677 $713 #
ellipse-curve $-1 -25 2.5 12.50000000000009948 -1 -0 -0 -2.618611004132350016e-14 0 -7.5 1 I I #
point $-1 -25 -5 12.5 #
coedge $-1 $664 $430 $527 $677 forward $386 $-1 #
edge $-1 $661 20 $434 25 $522 $714 forward 7 unknown #
point $-1 -25 20 12.5 #
face $-1 $634 $659 $2 $-1 $521 reversed single #
coedge $-1 $715 $437 $716 $717 forward $130 $-1 #
coedge $-1 $718 $719 $437 $577 reversed $720 $-1 #
edge $-1 $581 -22.5 $721 -17.5 $437 $722 forward 7 unknown #
coedge $-1 $689 $438 $440 $583 reversed $580 $-1 #
coedge $-1 $438 $689 $718 $723 forward $580 $-1 #
loop $-1 $-1 $578 $724 #
vertex $-1 $577 $725 #
straight-curve $-1 35 -22.5 -37.5 0 1 -0 I I #
edge $-1 $691 0 $442 25 $440 $726 forward 7 unknown #
face $-1 $626 $441 $2 $-1 $327 reversed single #
point $-1 35 -50 -37.5 #
edge $-1 $483 7.5 $587 17.5 $446 $727 forward 7 unknown #
vertex $-1 $447 $728 #
straight-curve $-1 -30 -20 -37.5 0 -1 0 I I #
point $-1 -30 -40 -37.5 #
straight-curve $-1 -35 -40 -25 0 0 -1 I I #
plane-surface $-1 -35 -45 -25 1 0 0 0 0 -1 forward_v I I I I #
coedge $-1 $457 $715 $729 $730 forward $130 $-1 #
coedge $-1 $731 $732 $457 $594 reversed $733 $-1 #
edge $-1 $734 -7.5 $598 -2.5 $457 $735 forward 7 unknown #
coedge $-1 $736 $458 $732 $737 reversed $597 $-1 #
coedge $-1 $458 $736 $460 $601 reversed $597 $-1 #
loop $-1 $-1 $595 $738 #
vertex $-1 $594 $739 #
straight-curve $-1 15 -22.5 -37.5 0 -1 0 I I #
coedge $-1 $461 $460 $740 $741 forward $462 $-1 #
edge $-1 $463 -25 $742 0 $460 $743 forward 7 unknown #
face $-1 $584 $462 $2 $-1 $327 reversed single #
point $-1 15 -50 -37.5 #
coedge $-1 $740 $479 $464 $605 forward $220 $-1 #
edge $-1 $608 0 $606 10 $604 $744 forward 7 unknown #
vertex $-1 $741 $745 #
straight-curve $-1 -15 -50 -12.5 -0 0 -1 I I #
vertex $-1 $485 $746 #
straight-curve $-1 -15 -40 -25 0 0 -1 I I #
plane-surface $-1 -15 -45 -25 -1 0 0 0 0 1 forward_v I I I I #
coedge $-1 $471 $470 $473 $614 forward $258 $-1 #
edge $-1 $615 -17.5 $481 -7.5 $480 $747 forward 7 unknown #
straight-curve $-1 -20 -30 -25 0 0 -1 I I #
edge $-1 $615 -12.5 $587 12.5 $611 $748 forward 7 unknown #
vertex $-1 $475 $749 #
straight-curve $-1 -30 -37.5 -12.5 0 1 0 I I #
point $-1 -30 -40 -12.5 #
point $-1 -20 -30 -12.5 #
point $-1 -20 -30 -37.5 #
straight-curve $-1 -12.5 -40 -12.5 1 0 -0 I I #
point $-1 50 -50 -12.5 #
loop $-1 $750 $491 $751 #
vertex $-1 $492 $752 #
ellipse-curve $-1 50 2.5 12.49999999999979927 -1 0 0 -2.618611004132350016e-14 0 -7.5 1 I I #
loop $-1 $-1 $753 $626 #
face $-1 $213 $493 $2 $-1 $282 reversed single #
point $-1 50 27.5 4.999999999999830358 #
coedge $-1 $654 $497 $557 $705 reversed $630 $-1 #
coedge $-1 $497 $754 $499 $633 reversed $630 $-1 #
loop $-1 $-1 $754 $755 #
ellipse-curve $-1 12.5 50 12.50000000000009948 0 -1 0 7.5 0 0 1 I I #
coedge $-1 $500 $499 $646 $756 forward $501 $-1 #
edge $-1 $502 -25 $757 -10 $499 $758 forward 7 unknown #
face $-1 $759 $501 $2 $-1 $387 forward single #
point $-1 20 50 12.5 #
vertex $-1 $503 $760 #
straight-curve $-1 25 15 12.5 0 -1 0 I I #
coedge $-1 $761 $762 $505 $639 reversed $750 $-1 #
edge $-1 $763 1.570796326794909881 $642 4.712388980384676351 $505 $764 forward 7 unknown #
coedge $-1 $650 $506 $762 $765 forward $641 $-1 #
loop $-1 $-1 $640 $520 #
vertex $-1 $765 $766 #
point $-1 25 -20 12.5 #
coedge $-1 $767 $768 $510 $645 reversed $769 $-1 #
edge $-1 $648 -5 $763 5 $510 $637 forward 7 unknown #
coedge $-1 $753 $511 $632 $756 reversed $625 $-1 #
coedge $-1 $511 $770 $767 $771 reversed $625 $-1 #
vertex $-1 $771 $772 #
ellipse-curve $-1 25 27.5 12.49999999999990052 1 -0 -0 -2.618611004132350016e-14 0 -7.5 1 I I #
coedge $-1 $514 $640 $696 $773 forward $641 $-1 #
vertex $-1 $515 $774 #
coedge $-1 $708 $516 $704 $775 reversed $383 $-1 #
coedge $-1 $516 $776 $777 $778 reversed $383 $-1 #
coedge $-1 $754 $628 $516 $655 forward $630 $-1 #
edge $-1 $779 3.491481338843136511e-15 $780 1.570796326794898556 $654 $781 forward 7 unknown #
edge $-1 $565 3.491481338843136511e-15 $660 1.570796326794898556 $560 $782 forward 7 unknown #
coedge $-1 $528 $518 $664 $783 reversed $659 $-1 #
coedge $-1 $518 $784 $785 $786 forward $659 $-1 #
loop $-1 $-1 $658 $574 #
vertex $-1 $656 $787 #
vertex $-1 $783 $788 #
ellipse-curve $-1 -12.5 27.5 12.5 -0.7071067811865475727 0.7071067811865475727 4.856819338861814154e-15 7.5 7.5 -2.618611004132350016e-14 0.7071067811865470176 I I #
face $-1 $789 $673 $2 $-1 $555 reversed single #
coedge $-1 $522 $571 $657 $783 forward $386 $-1 #
coedge $-1 $682 $523 $678 $790 reversed $284 $-1 #
coedge $-1 $791 $792 $523 $667 forward $793 $-1 #
edge $-1 $794 -5 $674 5 $666 $795 forward 7 unknown #
coedge $-1 $524 $682 $699 $796 reversed $284 $-1 #
coedge $-1 $697 $797 $524 $670 forward $554 $-1 #
edge $-1 $675 1.570796326794892783 $798 3.141592653589776685 $669 $799 forward 7 unknown #
coedge $-1 $800 $525 $801 $802 forward $673 $-1 #
coedge $-1 $525 $777 $791 $803 reversed $673 $-1 #
loop $-1 $-1 $777 $663 #
vertex $-1 $526 $804 #
vertex $-1 $526 $805 #
ellipse-curve $-1 12.5 2.5 12.5 -0.7071067811865475727 -0.7071067811865475727 4.186913223156732833e-17 -7.5 7.5 2.618611004132350016e-14 0.7071067811865470176 I I #
edge $-1 $568 -25 $679 -20 $571 $806 forward 7 unknown #
coedge $-1 $784 $528 $665 $790 forward $659 $-1 #
vertex $-1 $529 $807 #
ellipse-curve $-1 -12.5 2.5 12.5 -0.7071067811865475727 -0.7071067811865475727 4.186913223156732833e-17 -7.5 7.5 2.618611004132350016e-14 0.7071067811865470176 I I #
straight-curve $-1 0 -5 12.5 -1 -0 3.491481338843129805e-15 I I #
coedge $-1 $668 $665 $531 $683 reversed $284 $-1 #
edge $-1 $702 -3.141592653589783346 $532 -1.570796326794896336 $531 $808 forward 7 unknown #
point $-1 -12.5 2.500000000000030198 5.000000000000039968 #
point $-1 -20 -5 12.49999999999990052 #
straight-curve $-1 -12.5 -40 -12.5 1 0 -0 I I #
point $-1 -35 -40 -12.5 #
coedge $-1 $538 $809 $810 $811 forward $220 $-1 #
coedge $-1 $579 $578 $538 $690 reversed $580 $-1 #
edge $-1 $812 0 $691 10 $538 $813 forward 7 unknown #
vertex $-1 $539 $814 #
face $-1 $815 $816 $2 $-1 $817 forward single #
loop $-1 $-1 $818 $540 #
plane-surface $-1 20 -40 -25 1 0 0 0 0 -1 forward_v I I I I #
coedge $-1 $819 $716 $719 $820 forward $541 $-1 #
coedge $-1 $797 $543 $650 $773 reversed $554 $-1 #
coedge $-1 $543 $669 $545 $700 reversed $554 $-1 #
ellipse-curve $-1 12.5 -20 12.49999999999979927 -0 1 -0 7.5 0 0 1 I I #
coedge $-1 $546 $545 $668 $796 forward $547 $-1 #
edge $-1 $548 -45 $798 -30 $545 $821 forward 7 unknown #
point $-1 5 -20 12.5 #
vertex $-1 $796 $822 #
straight-curve $-1 -5 25 12.5 0 -1 -3.491481338843129805e-15 I I #
coedge $-1 $557 $556 $652 $775 forward $558 $-1 #
edge $-1 $779 10 $559 25 $557 $821 forward 7 unknown #
face $-1 $751 $558 $2 $-1 $387 forward single #
point $-1 5 50 12.5 #
coedge $-1 $785 $652 $561 $709 reversed $383 $-1 #
edge $-1 $660 -1.570796326794894782 $710 3.491481338843136511e-15 $561 $823 forward 7 unknown #
vertex $-1 $562 $824 #
straight-curve $-1 0 35 12.5 1 0 -3.491481338843129805e-15 I I #
point $-1 -20 35 12.5 #
point $-1 -25 10 12.5 #
straight-curve $-1 0 20 12.5 -1 -0 3.491481338843129805e-15 I I #
coedge $-1 $592 $575 $825 $826 forward $130 $-1 #
coedge $-1 $695 $827 $575 $717 reversed $541 $-1 #
edge $-1 $721 -20 $828 -10 $575 $829 forward 7 unknown #
coedge $-1 $810 $576 $579 $723 reversed $720 $-1 #
coedge $-1 $576 $810 $695 $820 reversed $720 $-1 #
loop $-1 $-1 $719 $815 #
vertex $-1 $717 $830 #
straight-curve $-1 12.5 -40 -37.5 -1 0 0 I I #
edge $-1 $812 -12.5 $581 12.5 $579 $831 forward 7 unknown #
face $-1 $602 $580 $2 $-1 $832 forward single #
point $-1 35 -40 -37.5 #
straight-curve $-1 35 -50 -12.5 -0 0 -1 I I #
straight-curve $-1 -12.5 -30 -37.5 -1 0 0 I I #
point $-1 -30 -30 -37.5 #
coedge $-1 $833 $818 $592 $730 reversed $693 $-1 #
edge $-1 $834 10 $734 20 $592 $835 forward 7 unknown #
coedge $-1 $836 $593 $818 $837 reversed $733 $-1 #
coedge $-1 $593 $836 $595 $737 forward $733 $-1 #
loop $-1 $-1 $731 $838 #
vertex $-1 $730 $839 #
straight-curve $-1 12.5 -40 -37.5 -1 0 0 I I #
coedge $-1 $596 $595 $840 $841 reversed $597 $-1 #
edge $-1 $842 -12.5 $598 12.5 $732 $843 forward 7 unknown #
face $-1 $724 $597 $2 $-1 $844 forward single #
point $-1 15 -40 -37.5 #
coedge $-1 $840 $604 $600 $741 reversed $220 $-1 #
edge $-1 $742 -15 $606 15 $600 $326 forward 7 unknown #
vertex $-1 $601 $845 #
straight-curve $-1 15 -50 -12.5 -0 0 1 I I #
straight-curve $-1 -15 -40 -12.5 0 -1 0 I I #
point $-1 -15 -50 -12.5 #
point $-1 -15 -40 -12.5 #
straight-curve $-1 -12.5 -30 -12.5 1 0 -0 I I #
straight-curve $-1 -30 -30 -25 0 0 -1 I I #
point $-1 -30 -30 -12.5 #
loop $-1 $-1 $801 $751 #
face $-1 $159 $622 $2 $-1 $217 reversed single #
point $-1 50 2.5 4.999999999999830358 #
coedge $-1 $770 $646 $754 $846 reversed $625 $-1 #
coedge $-1 $629 $654 $753 $846 forward $630 $-1 #
face $-1 $706 $630 $2 $-1 $555 reversed single #
edge $-1 $757 20 $636 25 $632 $847 forward 7 unknown #
vertex $-1 $633 $848 #
straight-curve $-1 20 25 12.5 0 -1 -3.491481338843129805e-15 I I #
face $-1 $755 $769 $2 $-1 $387 forward single #
point $-1 25 35 12.5 #
coedge $-1 $801 $638 $768 $849 reversed $750 $-1 #
coedge $-1 $638 $850 $640 $765 reversed $750 $-1 #
vertex $-1 $645 $851 #
ellipse-curve $-1 25 2.5 12.49999999999990052 1 -0 -0 -2.618611004132350016e-14 0 -7.5 1 I I #
edge $-1 $642 -25 $852 -20 $640 $853 forward 7 unknown #
point $-1 25 -5 12.5 #
coedge $-1 $854 $644 $647 $771 forward $769 $-1 #
coedge $-1 $644 $854 $761 $849 forward $769 $-1 #
loop $-1 $-1 $767 $759 #
coedge $-1 $647 $753 $855 $856 reversed $625 $-1 #
edge $-1 $648 -25 $857 -20 $767 $858 forward 7 unknown #
point $-1 25 20 12.5 #
edge $-1 $852 30 $651 45 $650 $758 forward 7 unknown #
point $-1 20 -20 12.5 #
edge $-1 $710 -5 $779 5 $704 $859 forward 7 unknown #
coedge $-1 $653 $785 $860 $861 reversed $383 $-1 #
coedge $-1 $672 $855 $653 $778 forward $673 $-1 #
edge $-1 $780 1.570796326794894782 $862 3.141592653589789563 $777 $863 forward 7 unknown #
vertex $-1 $655 $864 #
vertex $-1 $655 $865 #
ellipse-curve $-1 12.5 27.5 12.5 -0.7071067811865475727 -0.7071067811865475727 1.674765289262691161e-16 -7.5 7.5 2.618611004132350016e-14 0.7071067811865470176 I I #
ellipse-curve $-1 -12.5 27.5 12.5 -0.7071067811865475727 -0.7071067811865475727 1.674765289262691161e-16 -7.5 7.5 2.618611004132350016e-14 0.7071067811865470176 I I #
edge $-1 $679 -15 $661 -5 $664 $566 forward 7 unknown #
coedge $-1 $658 $678 $792 $866 reversed $659 $-1 #
coedge $-1 $776 $708 $658 $786 reversed $383 $-1 #
edge $-1 $867 -3.141592653589796669 $660 -1.570796326794898556 $658 $868 forward 7 unknown #
point $-1 -12.5 27.5 5.000000000000039968 #
point $-1 -20 20 12.5 #
face $-1 $225 $793 $2 $-1 $387 forward single #
edge $-1 $532 -1.570796326794892783 $794 -9.771983062012076636e-15 $678 $869 forward 7 unknown #
coedge $-1 $860 $666 $672 $803 forward $793 $-1 #
coedge $-1 $666 $860 $784 $866 forward $793 $-1 #
loop $-1 $-1 $860 $789 #
vertex $-1 $866 $870 #
straight-curve $-1 0 10 12.5 1 0 -3.491481338843129805e-15 I I #
edge $-1 $798 -5 $702 5 $699 $871 forward 7 unknown #
coedge $-1 $669 $696 $850 $872 forward $554 $-1 #
vertex $-1 $700 $873 #
ellipse-curve $-1 12.5 2.5 12.5 -0.7071067811865475727 0.7071067811865475727 4.982426735556514333e-15 7.5 7.5 -2.618611004132350016e-14 0.7071067811865470176 I I #
coedge $-1 $855 $671 $854 $874 reversed $673 $-1 #
coedge $-1 $850 $761 $671 $802 reversed $750 $-1 #
edge $-1 $675 -1.570796326794892783 $875 -9.771983062012076636e-15 $671 $876 forward 7 unknown #
edge $-1 $674 -15 $862 -5 $791 $821 forward 7 unknown #
point $-1 5 10 12.49999999999990052 #
point $-1 12.5 2.500000000000030198 4.999999999999960032 #
straight-curve $-1 0 10 12.5 1 0 -3.491481338843129805e-15 I I #
point $-1 -20 10 12.49999999999990052 #
ellipse-curve $-1 -12.5 2.5 12.5 0.7071067811865475727 0.7071067811865475727 -4.186913223156732833e-17 -7.5 7.5 2.618611004132350016e-14 0.7071067811865470176 I I #
coedge $-1 $688 $877 $819 $878 forward $220 $-1 #
coedge $-1 $719 $718 $688 $811 reversed $720 $-1 #
edge $-1 $879 17.5 $812 22.5 $688 $880 forward 7 unknown #
vertex $-1 $811 $881 #
straight-curve $-1 35 -40 -12.5 0 -1 0 I I #
point $-1 35 -50 -12.5 #
face $-1 $838 $720 $2 $-1 $882 forward single #
loop $-1 $-1 $883 $692 #
plane-surface $-1 25 -30 -25 0 -1 0 0 0 -1 forward_v I I I I #
coedge $-1 $729 $884 $731 $837 forward $693 $-1 #
coedge $-1 $827 $695 $809 $878 reversed $541 $-1 #
edge $-1 $721 -12.5 $879 12.5 $719 $885 forward 7 unknown #
straight-curve $-1 5 25 12.5 -0 1 3.491481338843129805e-15 I I #
point $-1 -5 -5 12.49999999999990052 #
ellipse-curve $-1 -12.5 27.5 12.5 0.7071067811865475727 -0.7071067811865475727 -4.856819338861814154e-15 7.5 7.5 -2.618611004132350016e-14 0.7071067811865470176 I I #
point $-1 -5 35 12.5 #
coedge $-1 $883 $886 $715 $826 reversed $816 $-1 #
edge $-1 $828 -17.5 $834 -7.5 $715 $887 forward 7 unknown #
coedge $-1 $716 $819 $883 $888 forward $541 $-1 #
vertex $-1 $717 $889 #
straight-curve $-1 30 -20 -37.5 0 1 -0 I I #
point $-1 30 -40 -37.5 #
straight-curve $-1 35 -40 -25 0 0 -1 I I #
plane-surface $-1 35 -45 -25 -1 0 0 0 0 1 forward_v I I I I #
coedge $-1 $884 $729 $886 $890 reversed $693 $-1 #
vertex $-1 $730 $891 #
straight-curve $-1 20 -20 -37.5 0 -1 0 I I #
coedge $-1 $732 $731 $892 $893 reversed $733 $-1 #
edge $-1 $894 -12.5 $734 12.5 $731 $895 forward 7 unknown #
face $-1 $738 $733 $2 $-1 $882 forward single #
point $-1 20 -40 -37.5 #
coedge $-1 $892 $740 $736 $841 forward $220 $-1 #
edge $-1 $742 -10 $842 0 $840 $896 forward 7 unknown #
vertex $-1 $893 $897 #
straight-curve $-1 15 -40 -25 0 0 -1 I I #
plane-surface $-1 15 -45 -25 1 0 0 0 0 -1 forward_v I I I I #
point $-1 15 -50 -12.5 #
edge $-1 $780 -1.570796326794894782 $757 3.491481338843136511e-15 $754 $898 forward 7 unknown #
straight-curve $-1 0 35 12.5 1 0 -3.491481338843129805e-15 I I #
point $-1 20 35 12.5 #
edge $-1 $875 20 $763 25 $768 $899 forward 7 unknown #
coedge $-1 $762 $801 $797 $872 reversed $750 $-1 #
point $-1 25 10 12.5 #
vertex $-1 $872 $900 #
straight-curve $-1 0 -5 12.5 -1 -0 3.491481338843129805e-15 I I #
coedge $-1 $768 $767 $800 $874 forward $769 $-1 #
coedge $-1 $777 $800 $770 $856 forward $673 $-1 #
edge $-1 $857 -3.141592653589796669 $780 -1.570796326794898556 $855 $901 forward 7 unknown #
vertex $-1 $856 $902 #
straight-curve $-1 0 20 12.5 -1 -0 3.491481338843129805e-15 I I #
straight-curve $-1 0 35 12.5 1 0 -3.491481338843129805e-15 I I #
coedge $-1 $792 $791 $776 $861 forward $793 $-1 #
edge $-1 $862 -5 $867 5 $860 $903 forward 7 unknown #
vertex $-1 $803 $904 #
ellipse-curve $-1 12.5 27.5 12.5 -0.7071067811865475727 0.7071067811865475727 4.856819338861814154e-15 7.5 7.5 -2.618611004132350016e-14 0.7071067811865470176 I I #
point $-1 5 35 12.5 #
point $-1 12.5 27.5 4.999999999999960032 #
edge $-1 $867 5 $794 15 $792 $703 forward 7 unknown #
vertex $-1 $861 $905 #
ellipse-curve $-1 -12.5 27.5 12.5 0.7071067811865475727 0.7071067811865475727 -1.674765289262691161e-16 -7.5 7.5 2.618611004132350016e-14 0.7071067811865470176 I I #
ellipse-curve $-1 -12.5 2.5 12.5 0.7071067811865475727 -0.7071067811865475727 -4.982426735556514333e-15 7.5 7.5 -2.618611004132350016e-14 0.7071067811865470176 I I #
point $-1 -5 10 12.49999999999990052 #
straight-curve $-1 0 -5 12.5 -1 -0 3.491481338843129805e-15 I I #
edge $-1 $852 -3.141592653589783346 $675 -1.570796326794896336 $797 $906 forward 7 unknown #
point $-1 5 -5 12.49999999999990052 #
edge $-1 $857 5 $875 15 $854 $758 forward 7 unknown #
vertex $-1 $874 $907 #
ellipse-curve $-1 12.5 2.5 12.5 0.7071067811865475727 -0.7071067811865475727 -4.982426735556514333e-15 7.5 7.5 -2.618611004132350016e-14 0.7071067811865470176 I I #
coedge $-1 $809 $908 $909 $910 forward $220 $-1 #
edge $-1 $911 -7.5 $879 2.5 $809 $912 forward 7 unknown #
vertex $-1 $878 $913 #
straight-curve $-1 12.5 -40 -12.5 1 0 -0 I I #
point $-1 35 -40 -12.5 #
plane-surface $-1 25 -40 -25 0 -1 0 0 0 -1 forward_v I I I I #
coedge $-1 $909 $825 $827 $888 reversed $816 $-1 #
coedge $-1 $818 $833 $908 $914 reversed $693 $-1 #
straight-curve $-1 30 -40 -25 0 0 1 I I #
coedge $-1 $825 $909 $833 $890 forward $816 $-1 #
straight-curve $-1 12.5 -30 -37.5 -1 0 0 I I #
edge $-1 $911 -12.5 $828 12.5 $827 $915 forward 7 unknown #
point $-1 30 -30 -37.5 #
edge $-1 $916 -12.5 $834 12.5 $886 $917 forward 7 unknown #
point $-1 20 -30 -37.5 #
coedge $-1 $908 $840 $836 $893 forward $220 $-1 #
edge $-1 $842 2.5 $894 7.5 $892 $918 forward 7 unknown #
vertex $-1 $914 $919 #
straight-curve $-1 20 -40 -25 0 0 -1 I I #
straight-curve $-1 15 -40 -12.5 0 1 0 I I #
point $-1 15 -40 -12.5 #
ellipse-curve $-1 12.5 27.5 12.5 0.7071067811865475727 -0.7071067811865475727 -4.856819338861814154e-15 7.5 7.5 -2.618611004132350016e-14 0.7071067811865470176 I I #
straight-curve $-1 0 10 12.5 1 0 -3.491481338843129805e-15 I I #
point $-1 20 -5 12.49999999999990052 #
ellipse-curve $-1 12.5 27.5 12.5 0.7071067811865475727 0.7071067811865475727 -1.674765289262691161e-16 -7.5 7.5 2.618611004132350016e-14 0.7071067811865470176 I I #
point $-1 20 20 12.5 #
straight-curve $-1 0 20 12.5 -1 -0 3.491481338843129805e-15 I I #
point $-1 5 20 12.5 #
point $-1 -5 20 12.5 #
ellipse-curve $-1 12.5 2.5 12.5 0.7071067811865475727 0.7071067811865475727 -4.186913223156732833e-17 -7.5 7.5 2.618611004132350016e-14 0.7071067811865470176 I I #
point $-1 20 10 12.49999999999990052 #
coedge $-1 $877 $892 $884 $914 forward $220 $-1 #
coedge $-1 $886 $883 $877 $910 reversed $816 $-1 #
edge $-1 $916 7.5 $911 17.5 $877 $920 forward 7 unknown #
vertex $-1 $878 $921 #
straight-curve $-1 30 -37.5 -12.5 0 -1 0 I I #
point $-1 30 -40 -12.5 #
edge $-1 $894 -2.5 $916 7.5 $908 $922 forward 7 unknown #
straight-curve $-1 30 -30 -25 0 0 -1 I I #
vertex $-1 $914 $923 #
straight-curve $-1 20 -30 -25 0 0 -1 I I #
straight-curve $-1 12.5 -40 -12.5 1 0 -0 I I #
point $-1 20 -40 -12.5 #
straight-curve $-1 12.5 -30 -12.5 1 0 -0 I I #
point $-1 30 -30 -12.5 #
straight-curve $-1 20 -37.5 -12.5 0 1 0 I I #
point $-1 20 -30 -12.5 #
End-of-ACIS-data 