105 924 1 0                             
body $-1 $1 $-1 $-1 #
lump $-1 $-1 $2 $0 #
shell $-1 $-1 $-1 $3 $1 #
face $-1 $4 $5 $2 $-1 $6 forward single #
face $-1 $7 $8 $2 $-1 $9 forward single #
loop $-1 $-1 $10 $3 #
plane-surface $-1 -50 50 25 0 0 1 0.707106781186546 -0.707106781186549 0 0 #
face $-1 $11 $12 $2 $-1 $13 reversed single #
loop $-1 $-1 $14 $4 #
plane-surface $-1 -41.1611652351682 41.1611652351681 37.5 -0.707106781186546 0.707106781186549 0 0 0 1 0 #
coedge $-1 $15 $16 $17 $18 1 $5 $-1 #
face $-1 $19 $20 $2 $-1 $21 forward single #
loop $-1 $22 $23 $7 #
plane-surface $-1 -50 0 0 1 0 0 0 0 -1 0 #
coedge $-1 $24 $25 $26 $27 1 $8 $-1 #
coedge $-1 $16 $10 $28 $29 1 $5 $-1 #
coedge $-1 $10 $15 $30 $31 1 $5 $-1 #
coedge $-1 $32 $23 $10 $18 0 $12 $-1 #
edge $-1 $33 $34 $17 $35 0 #
face $-1 $36 $37 $2 $-1 $38 forward single #
loop $-1 $-1 $39 $11 #
plane-surface $-1 41.1611652351682 41.1611652351681 37.5 0.707106781186546 0.707106781186549 0 0 0 -1 0 #
loop $-1 $40 $41 $7 #
coedge $-1 $17 $42 $25 $43 0 $12 $-1 #
coedge $-1 $28 $14 $44 $45 1 $8 $-1 #
coedge $-1 $14 $28 $23 $43 1 $8 $-1 #
coedge $-1 $46 $47 $14 $27 0 $48 $-1 #
edge $-1 $49 $50 $26 $51 0 #
coedge $-1 $25 $24 $15 $29 0 $8 $-1 #
edge $-1 $52 $33 $28 $53 0 #
coedge $-1 $44 $54 $16 $31 0 $55 $-1 #
edge $-1 $34 $52 $30 $56 0 #
coedge $-1 $57 $17 $54 $58 0 $12 $-1 #
vertex $-1 $18 $59 #
vertex $-1 $31 $60 #
straight-curve $-1 -50 25 25 0 1 0 #
face $-1 $61 $62 $2 $-1 $63 forward single #
loop $-1 $-1 $64 $19 #
plane-surface $-1 50 50 25 0 0 1 0.707106781186546 0.707106781186549 0 0 #
coedge $-1 $65 $66 $67 $68 1 $20 $-1 #
loop $-1 $-1 $69 $7 #
coedge $-1 $41 $41 $70 $71 0 $22 $-1 #
coedge $-1 $23 $72 $46 $73 1 $12 $-1 #
edge $-1 $50 $33 $23 $74 0 #
coedge $-1 $75 $30 $24 $45 0 $55 $-1 #
edge $-1 $52 $49 $44 $76 0 #
coedge $-1 $77 $26 $42 $73 0 $48 $-1 #
coedge $-1 $26 $78 $75 $79 0 $48 $-1 #
loop $-1 $-1 $26 $80 #
vertex $-1 $79 $81 #
vertex $-1 $43 $82 #
straight-curve $-1 -41.1611652351681 41.1611652351682 37.5 -0.707106781186549 -0.707106781186546 0 #
vertex $-1 $31 $83 #
straight-curve $-1 -41.1611652351682 41.1611652351681 25 -0.707106781186549 -0.707106781186546 0 #
coedge $-1 $30 $84 $32 $58 1 $55 $-1 #
loop $-1 $-1 $44 $61 #
straight-curve $-1 -25 50 25 1 0 -0 #
coedge $-1 $85 $32 $86 $87 1 $12 $-1 #
edge $-1 $34 $88 $54 $89 0 #
point $-1 -50 32.3223304703363 25 #
point $-1 -50 50 25 #
face $-1 $90 $55 $2 $-1 $91 reversed single #
loop $-1 $-1 $67 $36 #
plane-surface $-1 0 0 37.5 0 0 1 1 0 0 0 #
coedge $-1 $92 $93 $94 $95 1 $37 $-1 #
coedge $-1 $96 $39 $97 $98 1 $20 $-1 #
coedge $-1 $39 $96 $99 $100 1 $20 $-1 #
coedge $-1 $101 $102 $39 $68 0 $62 $-1 #
edge $-1 $103 $104 $67 $105 0 #
coedge $-1 $69 $69 $106 $107 0 $40 $-1 #
coedge $-1 $70 $70 $41 $71 1 $108 $-1 #
edge $-1 $109 $109 $41 $110 0 #
coedge $-1 $42 $111 $112 $113 0 $12 $-1 #
edge $-1 $50 $114 $42 $115 0 #
straight-curve $-1 -50 32.3223304703363 18.75 0 0 -1 #
coedge $-1 $116 $44 $47 $79 1 $55 $-1 #
straight-curve $-1 -32.3223304703363 50 18.75 0 0 1 #
coedge $-1 $78 $46 $117 $118 0 $48 $-1 #
coedge $-1 $47 $77 $119 $120 0 $48 $-1 #
edge $-1 $121 $49 $75 $122 0 #
face $-1 $123 $48 $2 $-1 $63 forward single #
point $-1 -32.3223304703363 50 37.5 #
point $-1 -50 32.3223304703363 37.5 #
point $-1 -32.3223304703363 50 25 #
coedge $-1 $54 $124 $125 $126 1 $55 $-1 #
coedge $-1 $111 $57 $127 $128 1 $12 $-1 #
coedge $-1 $125 $129 $57 $87 0 $130 $-1 #
edge $-1 $131 $88 $57 $132 0 #
vertex $-1 $126 $133 #
straight-curve $-1 -50 50 0 0 0 -1 #
face $-1 $134 $135 $2 $-1 $136 forward single #
plane-surface $-1 0 50 0 0 -1 0 0 0 -1 0 #
coedge $-1 $93 $64 $137 $138 1 $37 $-1 #
coedge $-1 $64 $92 $96 $139 1 $37 $-1 #
coedge $-1 $97 $140 $64 $95 0 $141 $-1 #
edge $-1 $142 $143 $94 $144 0 #
coedge $-1 $66 $65 $93 $139 0 $20 $-1 #
coedge $-1 $145 $94 $65 $98 0 $141 $-1 #
edge $-1 $143 $103 $97 $146 0 #
coedge $-1 $137 $147 $66 $100 0 $55 $-1 #
edge $-1 $104 $148 $99 $149 0 #
coedge $-1 $150 $67 $147 $151 0 $62 $-1 #
coedge $-1 $67 $152 $145 $153 0 $62 $-1 #
vertex $-1 $153 $154 #
vertex $-1 $100 $155 #
straight-curve $-1 41.1611652351681 41.1611652351682 37.5 -0.707106781186549 0.707106781186546 0 #
coedge $-1 $106 $106 $69 $107 1 $156 $-1 #
edge $-1 $157 $157 $69 $158 0 #
loop $-1 $-1 $70 $159 #
vertex $-1 $71 $160 #
ellipse-curve $-1 -50 2.5 12.5000000000002 1 0 0 -2.61861100413235e-14 0 -7.5 1 #
coedge $-1 $72 $85 $161 $162 0 $12 $-1 #
coedge $-1 $163 $117 $72 $113 1 $164 $-1 #
edge $-1 $165 $114 $72 $166 0 #
vertex $-1 $73 $167 #
straight-curve $-1 -50 0 37.5 0 -1 0 #
coedge $-1 $168 $75 $169 $170 0 $55 $-1 #
coedge $-1 $112 $171 $77 $118 1 $164 $-1 #
edge $-1 $114 $172 $77 $173 0 #
coedge $-1 $174 $169 $78 $120 1 $175 $-1 #
edge $-1 $172 $121 $78 $176 0 #
vertex $-1 $170 $177 #
straight-curve $-1 0 50 37.5 -1 0 0 #
face $-1 $-1 $141 $2 $-1 $178 reversed single #
coedge $-1 $84 $137 $140 $179 0 $55 $-1 #
coedge $-1 $180 $86 $84 $126 0 $130 $-1 #
edge $-1 $88 $181 $84 $182 0 #
coedge $-1 $183 $184 $85 $128 0 $185 $-1 #
edge $-1 $186 $131 $85 $187 0 #
coedge $-1 $86 $188 $183 $189 0 $130 $-1 #
loop $-1 $-1 $190 $191 #
vertex $-1 $87 $192 #
straight-curve $-1 -50 0 -37.5 0 1 0 #
point $-1 -50 50 -37.5 #
face $-1 $193 $194 $2 $-1 $195 forward single #
loop $-1 $-1 $196 $90 #
plane-surface $-1 -20 -40 -25 -1 0 0 0 0 1 0 #
coedge $-1 $124 $99 $92 $138 0 $55 $-1 #
edge $-1 $148 $142 $137 $197 0 #
edge $-1 $143 $148 $96 $198 0 #
coedge $-1 $94 $199 $124 $179 1 $141 $-1 #
loop $-1 $200 $97 $123 #
vertex $-1 $138 $201 #
vertex $-1 $95 $202 #
straight-curve $-1 50 25 25 0 -1 0 #
coedge $-1 $203 $97 $102 $153 1 $141 $-1 #
straight-curve $-1 50 32.3223304703363 18.75 0 0 1 #
coedge $-1 $99 $204 $101 $151 1 $55 $-1 #
vertex $-1 $138 $205 #
straight-curve $-1 32.3223304703363 50 18.75 0 0 -1 #
coedge $-1 $152 $101 $206 $207 0 $62 $-1 #
edge $-1 $104 $208 $147 $122 0 #
coedge $-1 $102 $150 $209 $210 0 $62 $-1 #
edge $-1 $211 $103 $145 $212 0 #
point $-1 50 32.3223304703363 37.5 #
point $-1 32.3223304703363 50 37.5 #
loop $-1 $-1 $106 $213 #
vertex $-1 $107 $214 #
ellipse-curve $-1 -50 27.5 12.5000000000002 1 0 0 -2.61861100413235e-14 0 -7.5 1 #
face $-1 $215 $216 $2 $-1 $217 reversed single #
point $-1 -50 2.5 5.00000000000017 #
coedge $-1 $218 $219 $111 $162 1 $220 $-1 #
edge $-1 $186 $165 $111 $221 0 #
coedge $-1 $222 $112 $219 $223 0 $164 $-1 #
loop $-1 $-1 $224 $225 #
vertex $-1 $162 $226 #
straight-curve $-1 -50 -20 6.25 -0 0 1 #
point $-1 -50 -20 37.5 #
coedge $-1 $227 $116 $228 $229 0 $55 $-1 #
coedge $-1 $119 $230 $116 $170 1 $175 $-1 #
edge $-1 $121 $231 $116 $232 0 #
coedge $-1 $117 $233 $174 $234 0 $164 $-1 #
vertex $-1 $118 $235 #
straight-curve $-1 0 -20 37.5 1 0 -0 #
coedge $-1 $236 $119 $171 $234 1 $175 $-1 #
loop $-1 $-1 $237 $238 #
straight-curve $-1 -25 7.5 37.5 0 1 0 #
point $-1 -25 50 37.5 #
plane-surface $-1 50 0 0 -1 0 0 0 -0 1 0 #
edge $-1 $142 $181 $140 $239 0 #
coedge $-1 $240 $125 $199 $241 0 $130 $-1 #
vertex $-1 $241 $242 #
straight-curve $-1 0 50 -37.5 1 0 0 #
coedge $-1 $243 $127 $129 $189 1 $185 $-1 #
coedge $-1 $127 $243 $218 $244 0 $185 $-1 #
loop $-1 $-1 $243 $245 #
vertex $-1 $244 $246 #
straight-curve $-1 -50 -50 0 0 0 -1 #
coedge $-1 $129 $247 $248 $249 0 $130 $-1 #
edge $-1 $250 $131 $183 $251 0 #
coedge $-1 $252 $253 $254 $255 0 $130 $-1 #
face $-1 $245 $130 $2 $-1 $256 reversed single #
point $-1 -50 -50 -37.5 #
face $-1 $257 $258 $2 $-1 $259 forward single #
loop $-1 $-1 $260 $134 #
plane-surface $-1 -30 -40 -25 1 0 0 0 0 -1 0 #
coedge $-1 $261 $262 $263 $264 0 $135 $-1 #
straight-curve $-1 25 50 25 1 0 -0 #
straight-curve $-1 41.1611652351682 41.1611652351681 25 -0.707106781186549 0.707106781186546 0 #
coedge $-1 $140 $265 $180 $241 1 $141 $-1 #
loop $-1 $266 $267 $123 #
point $-1 50 50 25 #
point $-1 50 32.3223304703363 25 #
coedge $-1 $268 $145 $222 $269 0 $141 $-1 #
coedge $-1 $147 $270 $271 $272 0 $55 $-1 #
point $-1 32.3223304703363 50 25 #
coedge $-1 $271 $273 $150 $207 1 $274 $-1 #
edge $-1 $208 $275 $150 $276 0 #
vertex $-1 $151 $277 #
coedge $-1 $278 $222 $152 $210 1 $164 $-1 #
edge $-1 $275 $211 $152 $173 0 #
vertex $-1 $269 $279 #
straight-curve $-1 50 0 37.5 0 1 0 #
face $-1 $280 $281 $2 $-1 $282 reversed single #
point $-1 -50 27.5 5.00000000000017 #
face $-1 $283 $284 $2 $-1 $217 reversed single #
loop $-1 $108 $285 $159 #
cone-surface $-1 0 2.5 12.5 1 0 -3.49148133884313e-15 -2.61861100413235e-14 0 -7.5 1 0 1 0 #
coedge $-1 $286 $161 $184 $244 1 $220 $-1 #
coedge $-1 $161 $287 $163 $223 1 $220 $-1 #
loop $-1 $-1 $286 $288 #
straight-curve $-1 -50 -17.5 -12.5 0 1 0 #
coedge $-1 $209 $163 $203 $269 1 $164 $-1 #
edge $-1 $165 $289 $163 $290 0 #
coedge $-1 $233 $291 $292 $293 0 $164 $-1 #
face $-1 $294 $164 $2 $-1 $295 forward single #
point $-1 -50 -20 -12.5 #
coedge $-1 $296 $168 $297 $298 0 $55 $-1 #
coedge $-1 $299 $300 $168 $229 1 $301 $-1 #
edge $-1 $231 $302 $168 $303 0 #
coedge $-1 $169 $237 $299 $304 0 $175 $-1 #
vertex $-1 $229 $305 #
straight-curve $-1 -25 50 12.5 0 0 -1 #
coedge $-1 $171 $224 $306 $307 0 $164 $-1 #
edge $-1 $308 $172 $171 $309 0 #
point $-1 -25 -20 37.5 #
coedge $-1 $310 $174 $311 $312 0 $175 $-1 #
coedge $-1 $230 $313 $314 $315 0 $175 $-1 #
face $-1 $316 $175 $2 $-1 $317 forward single #
straight-curve $-1 50 50 0 0 0 -1 #
coedge $-1 $318 $180 $319 $320 0 $130 $-1 #
edge $-1 $181 $321 $199 $322 0 #
point $-1 50 50 -37.5 #
coedge $-1 $184 $183 $323 $324 0 $185 $-1 #
edge $-1 $325 $186 $184 $326 0 #
face $-1 $288 $185 $2 $-1 $327 reversed single #
point $-1 -50 -50 -12.5 #
coedge $-1 $188 $328 $329 $330 0 $130 $-1 #
coedge $-1 $331 $323 $188 $249 1 $332 $-1 #
edge $-1 $333 $250 $188 $334 0 #
vertex $-1 $324 $335 #
straight-curve $-1 0 -50 -37.5 -1 0 0 #
coedge $-1 $336 $190 $337 $338 0 $130 $-1 #
coedge $-1 $190 $339 $340 $341 0 $130 $-1 #
coedge $-1 $342 $343 $190 $255 1 $344 $-1 #
edge $-1 $345 $346 $190 $347 0 #
plane-surface $-1 0 0 -37.5 0 0 1 1 0 0 0 #
face $-1 $348 $349 $2 $-1 $350 forward single #
loop $-1 $-1 $351 $193 #
plane-surface $-1 -25 -30 -25 0 -1 0 0 0 -1 0 #
coedge $-1 $352 $353 $354 $355 0 $194 $-1 #
coedge $-1 $356 $196 $357 $358 1 $135 $-1 #
coedge $-1 $196 $356 $336 $359 1 $135 $-1 #
coedge $-1 $337 $360 $196 $264 1 $349 $-1 #
edge $-1 $361 $362 $263 $363 0 #
coedge $-1 $199 $268 $364 $365 0 $141 $-1 #
loop $-1 $-1 $366 $123 #
coedge $-1 $267 $267 $367 $368 0 $200 $-1 #
coedge $-1 $265 $203 $287 $369 0 $141 $-1 #
edge $-1 $211 $289 $203 $370 0 #
coedge $-1 $204 $371 $372 $373 0 $55 $-1 #
coedge $-1 $374 $206 $204 $272 1 $274 $-1 #
edge $-1 $375 $208 $204 $376 0 #
coedge $-1 $206 $377 $278 $378 1 $274 $-1 #
loop $-1 $-1 $379 $380 #
vertex $-1 $207 $381 #
straight-curve $-1 25 7.5 37.5 0 -1 0 #
point $-1 25 50 37.5 #
coedge $-1 $382 $209 $273 $378 0 $164 $-1 #
point $-1 50 -20 37.5 #
face $-1 $238 $383 $2 $-1 $282 reversed single #
loop $-1 $156 $384 $213 #
cone-surface $-1 0 27.5 12.5 1 0 -3.49148133884313e-15 -2.61861100413235e-14 0 -7.5 1 0 1 0 #
face $-1 $385 $386 $2 $-1 $387 forward single #
loop $-1 $-1 $388 $215 #
coedge $-1 $389 $390 $391 $392 1 $216 $-1 #
coedge $-1 $393 $218 $394 $395 0 $220 $-1 #
coedge $-1 $219 $396 $268 $369 1 $220 $-1 #
face $-1 $397 $220 $2 $-1 $398 forward single #
vertex $-1 $369 $399 #
straight-curve $-1 0 -20 -12.5 1 0 0 #
coedge $-1 $224 $400 $401 $402 0 $164 $-1 #
coedge $-1 $403 $404 $224 $293 1 $405 $-1 #
edge $-1 $406 $407 $224 $408 0 #
face $-1 $409 $410 $2 $-1 $387 forward single #
plane-surface $-1 0 -20 12.5 0 -1 0 0 0 -1 0 #
coedge $-1 $371 $227 $411 $412 0 $55 $-1 #
coedge $-1 $413 $414 $227 $298 1 $415 $-1 #
edge $-1 $302 $416 $227 $417 0 #
coedge $-1 $418 $228 $230 $304 1 $301 $-1 #
coedge $-1 $228 $418 $413 $419 0 $301 $-1 #
loop $-1 $-1 $418 $316 #
vertex $-1 $229 $420 #
straight-curve $-1 0 50 12.5 1 0 -0 #
edge $-1 $421 $231 $230 $422 0 #
point $-1 -25 50 12.5 #
coedge $-1 $423 $311 $233 $307 1 $410 $-1 #
edge $-1 $407 $308 $233 $424 0 #
vertex $-1 $307 $425 #
straight-curve $-1 -25 -20 18.75 -0 0 1 #
coedge $-1 $313 $236 $426 $427 0 $175 $-1 #
coedge $-1 $306 $428 $236 $312 1 $410 $-1 #
edge $-1 $308 $429 $236 $422 0 #
coedge $-1 $237 $310 $430 $431 0 $175 $-1 #
coedge $-1 $432 $433 $237 $315 1 $281 $-1 #
edge $-1 $434 $421 $237 $435 0 #
face $-1 $436 $301 $2 $-1 $387 forward single #
plane-surface $-1 -25 15 25 1 0 0 0 0 -1 0 #
coedge $-1 $437 $240 $438 $439 0 $130 $-1 #
coedge $-1 $364 $440 $240 $320 1 $441 $-1 #
edge $-1 $321 $442 $319 $251 0 #
vertex $-1 $365 $443 #
straight-curve $-1 50 0 -37.5 0 -1 0 #
coedge $-1 $248 $394 $243 $324 1 $332 $-1 #
edge $-1 $250 $325 $243 $444 0 #
vertex $-1 $395 $445 #
straight-curve $-1 0 -50 -12.5 -1 0 0 #
plane-surface $-1 0 -50 0 0 1 -0 -0 0 1 0 #
coedge $-1 $247 $446 $352 $447 0 $130 $-1 #
coedge $-1 $354 $448 $247 $330 1 $449 $-1 #
edge $-1 $450 $333 $247 $451 0 #
coedge $-1 $394 $248 $448 $452 1 $332 $-1 #
loop $-1 $-1 $331 $453 #
vertex $-1 $330 $454 #
straight-curve $-1 -35 -22.5 -37.5 0 -1 0 #
point $-1 -35 -50 -37.5 #
coedge $-1 $446 $252 $262 $359 0 $130 $-1 #
coedge $-1 $455 $263 $252 $338 1 $349 $-1 #
edge $-1 $346 $361 $252 $456 0 #
coedge $-1 $253 $457 $458 $459 0 $130 $-1 #
coedge $-1 $460 $461 $253 $341 1 $462 $-1 #
edge $-1 $463 $345 $340 $251 0 #
coedge $-1 $464 $254 $461 $465 1 $344 $-1 #
coedge $-1 $254 $464 $455 $466 0 $344 $-1 #
loop $-1 $-1 $342 $467 #
vertex $-1 $341 $468 #
vertex $-1 $338 $469 #
straight-curve $-1 -15 -22.5 -37.5 0 1 -0 #
face $-1 $453 $449 $2 $-1 $350 forward single #
loop $-1 $-1 $263 $257 #
plane-surface $-1 -25 -40 -25 0 -1 0 0 0 -1 0 #
coedge $-1 $470 $471 $356 $472 1 $258 $-1 #
coedge $-1 $473 $260 $328 $447 1 $194 $-1 #
coedge $-1 $260 $473 $474 $475 1 $194 $-1 #
coedge $-1 $476 $329 $260 $355 1 $449 $-1 #
edge $-1 $477 $450 $354 $478 0 #
coedge $-1 $262 $261 $351 $472 0 $135 $-1 #
coedge $-1 $479 $480 $261 $358 0 $220 $-1 #
edge $-1 $481 $362 $357 $482 0 #
edge $-1 $361 $483 $336 $484 0 #
coedge $-1 $263 $455 $479 $485 1 $349 $-1 #
vertex $-1 $359 $486 #
vertex $-1 $358 $487 #
straight-curve $-1 -20 -40 -25 0 0 1 #
coedge $-1 $488 $319 $265 $365 1 $441 $-1 #
edge $-1 $489 $321 $265 $490 0 #
coedge $-1 $366 $366 $491 $492 0 $266 $-1 #
coedge $-1 $367 $367 $267 $368 1 $493 $-1 #
edge $-1 $494 $494 $267 $495 0 #
edge $-1 $289 $489 $268 $496 0 #
straight-curve $-1 50 -20 6.25 -0 -0 -1 #
coedge $-1 $270 $296 $497 $498 0 $55 $-1 #
coedge $-1 $499 $500 $270 $373 1 $501 $-1 #
edge $-1 $502 $375 $270 $303 0 #
coedge $-1 $379 $271 $500 $503 0 $274 $-1 #
vertex $-1 $373 $504 #
straight-curve $-1 25 50 12.5 0 0 1 #
coedge $-1 $273 $505 $506 $507 0 $274 $-1 #
edge $-1 $275 $508 $278 $509 0 #
coedge $-1 $510 $374 $511 $512 0 $274 $-1 #
face $-1 $80 $274 $2 $-1 $513 forward single #
point $-1 25 -20 37.5 #
coedge $-1 $400 $278 $514 $515 0 $164 $-1 #
loop $-1 $-1 $516 $280 #
coedge $-1 $517 $432 $518 $519 1 $281 $-1 #
face $-1 $520 $405 $2 $-1 $521 reversed single #
loop $-1 $-1 $522 $283 #
plane-surface $-1 0 15 12.5 0 0 1 1 0 0 0 #
coedge $-1 $523 $524 $525 $526 1 $284 $-1 #
coedge $-1 $527 $285 $528 $529 1 $216 $-1 #
coedge $-1 $285 $426 $428 $530 1 $216 $-1 #
coedge $-1 $404 $531 $285 $392 0 $405 $-1 #
edge $-1 $532 $533 $391 $534 0 #
coedge $-1 $474 $286 $476 $535 0 $220 $-1 #
coedge $-1 $323 $331 $286 $395 1 $332 $-1 #
edge $-1 $325 $536 $286 $537 0 #
coedge $-1 $287 $538 $488 $539 1 $220 $-1 #
face $-1 $540 $541 $2 $-1 $542 forward single #
plane-surface $-1 0 -35 -12.5 0 0 1 1 0 0 0 #
point $-1 50 -20 -12.5 #
coedge $-1 $291 $382 $543 $544 0 $164 $-1 #
coedge $-1 $545 $546 $291 $402 1 $547 $-1 #
edge $-1 $548 $406 $291 $424 0 #
coedge $-1 $531 $292 $546 $549 1 $405 $-1 #
coedge $-1 $292 $391 $423 $550 1 $405 $-1 #
loop $-1 $-1 $531 $385 #
vertex $-1 $402 $551 #
vertex $-1 $550 $552 #
ellipse-curve $-1 -12.5 -20 12.4999999999998 -0 1 -0 7.5 0 0 1 #
face $-1 $553 $554 $2 $-1 $555 reversed single #
loop $-1 $-1 $428 $294 #
coedge $-1 $556 $557 $296 $412 1 $558 $-1 #
edge $-1 $416 $559 $296 $303 0 #
coedge $-1 $560 $297 $300 $419 1 $415 $-1 #
coedge $-1 $297 $561 $556 $562 1 $415 $-1 #
loop $-1 $-1 $560 $436 #
vertex $-1 $298 $563 #
ellipse-curve $-1 -12.5 50 12.5000000000001 0 -1 0 7.5 0 0 1 #
coedge $-1 $300 $299 $433 $564 0 $301 $-1 #
edge $-1 $565 $302 $300 $566 0 #
point $-1 -20 50 12.5 #
vertex $-1 $564 $567 #
straight-curve $-1 -25 15 12.5 0 1 0 #
coedge $-1 $428 $306 $404 $550 0 $410 $-1 #
straight-curve $-1 0 -20 12.5 -1 0 0 #
point $-1 -25 -20 12.5 #
coedge $-1 $390 $527 $310 $427 1 $216 $-1 #
edge $-1 $429 $568 $310 $569 0 #
coedge $-1 $311 $423 $390 $530 0 $410 $-1 #
vertex $-1 $312 $570 #
coedge $-1 $571 $522 $313 $431 1 $386 $-1 #
edge $-1 $568 $434 $313 $422 0 #
coedge $-1 $384 $314 $522 $572 1 $281 $-1 #
coedge $-1 $314 $517 $418 $564 1 $281 $-1 #
vertex $-1 $431 $573 #
ellipse-curve $-1 -25 27.5 12.5000000000001 -1 -0 -0 -2.61861100413235e-14 0 -7.5 1 #
face $-1 $574 $415 $2 $-1 $521 reversed single #
coedge $-1 $575 $318 $576 $577 0 $130 $-1 #
coedge $-1 $578 $579 $318 $439 1 $580 $-1 #
edge $-1 $442 $581 $318 $582 0 #
coedge $-1 $319 $488 $578 $583 0 $441 $-1 #
loop $-1 $-1 $440 $584 #
vertex $-1 $320 $585 #
point $-1 50 -50 -37.5 #
straight-curve $-1 -35 -50 -12.5 -0 0 1 #
point $-1 -35 -50 -12.5 #
coedge $-1 $328 $336 $471 $586 0 $130 $-1 #
edge $-1 $587 $450 $328 $588 0 #
coedge $-1 $329 $476 $331 $452 0 $449 $-1 #
loop $-1 $-1 $354 $348 #
vertex $-1 $447 $589 #
straight-curve $-1 -12.5 -40 -37.5 -1 0 0 #
edge $-1 $536 $333 $448 $590 0 #
face $-1 $467 $332 $2 $-1 $591 forward single #
point $-1 -35 -40 -37.5 #
coedge $-1 $360 $337 $343 $466 1 $349 $-1 #
straight-curve $-1 -12.5 -40 -37.5 -1 0 0 #
coedge $-1 $339 $592 $593 $594 0 $130 $-1 #
coedge $-1 $595 $596 $339 $459 1 $597 $-1 #
edge $-1 $598 $463 $339 $599 0 #
coedge $-1 $600 $340 $596 $601 0 $462 $-1 #
coedge $-1 $340 $600 $342 $465 0 $462 $-1 #
loop $-1 $-1 $461 $602 #
vertex $-1 $601 $603 #
coedge $-1 $343 $342 $604 $605 1 $344 $-1 #
edge $-1 $606 $345 $461 $607 0 #
edge $-1 $608 $346 $343 $609 0 #
face $-1 $191 $344 $2 $-1 $610 forward single #
point $-1 -15 -50 -37.5 #
point $-1 -15 -40 -37.5 #
coedge $-1 $611 $351 $480 $612 1 $258 $-1 #
coedge $-1 $351 $611 $446 $586 1 $258 $-1 #
edge $-1 $481 $483 $356 $613 0 #
coedge $-1 $353 $352 $611 $614 1 $194 $-1 #
coedge $-1 $480 $393 $353 $475 0 $220 $-1 #
edge $-1 $477 $615 $474 $616 0 #
coedge $-1 $448 $354 $393 $535 1 $449 $-1 #
vertex $-1 $475 $617 #
straight-curve $-1 -30 -40 -25 0 0 -1 #
coedge $-1 $604 $357 $360 $485 0 $220 $-1 #
coedge $-1 $357 $474 $470 $612 0 $220 $-1 #
vertex $-1 $358 $618 #
straight-curve $-1 -20 -37.5 -12.5 0 -1 0 #
vertex $-1 $359 $619 #
straight-curve $-1 -20 -20 -37.5 0 1 -0 #
edge $-1 $362 $608 $479 $620 0 #
point $-1 -20 -40 -37.5 #
point $-1 -20 -40 -12.5 #
coedge $-1 $440 $364 $396 $539 0 $441 $-1 #
vertex $-1 $539 $621 #
straight-curve $-1 50 -50 0 0 0 -1 #
coedge $-1 $491 $491 $366 $492 1 $622 $-1 #
edge $-1 $623 $623 $366 $624 0 #
loop $-1 $625 $367 $626 #
vertex $-1 $368 $627 #
ellipse-curve $-1 50 27.5 12.4999999999998 -1 0 0 -2.61861100413235e-14 0 -7.5 1 #
straight-curve $-1 50 -17.5 -12.5 0 -1 0 #
coedge $-1 $628 $629 $371 $498 1 $630 $-1 #
edge $-1 $559 $502 $371 $631 0 #
coedge $-1 $632 $372 $629 $633 0 $501 $-1 #
coedge $-1 $372 $632 $374 $503 1 $501 $-1 #
loop $-1 $-1 $632 $634 #
vertex $-1 $633 $635 #
edge $-1 $375 $636 $374 $637 0 #
point $-1 25 50 12.5 #
coedge $-1 $377 $510 $638 $639 0 $274 $-1 #
coedge $-1 $640 $514 $377 $507 1 $641 $-1 #
edge $-1 $642 $508 $377 $637 0 #
vertex $-1 $515 $643 #
straight-curve $-1 25 -20 18.75 -0 -0 -1 #
coedge $-1 $505 $379 $644 $645 0 $274 $-1 #
coedge $-1 $646 $647 $379 $512 1 $625 $-1 #
edge $-1 $636 $648 $379 $649 0 #
plane-surface $-1 25 15 25 -1 0 0 0 0 1 0 #
coedge $-1 $506 $650 $382 $515 1 $641 $-1 #
edge $-1 $508 $651 $382 $424 0 #
coedge $-1 $652 $653 $654 $655 1 $383 $-1 #
coedge $-1 $433 $384 $560 $656 1 $281 $-1 #
coedge $-1 $657 $658 $384 $519 0 $659 $-1 #
edge $-1 $660 $661 $518 $662 0 #
face $-1 $663 $641 $2 $-1 $387 forward single #
cone-surface $-1 -12.5 25 12.5 0 -1 -3.49148133884313e-15 7.5 0 0 1 0 1 0 #
coedge $-1 $430 $664 $432 $572 0 $386 $-1 #
coedge $-1 $665 $388 $666 $667 1 $284 $-1 #
coedge $-1 $388 $668 $669 $670 1 $284 $-1 #
coedge $-1 $671 $672 $388 $526 0 $673 $-1 #
edge $-1 $674 $675 $525 $676 0 #
coedge $-1 $426 $389 $571 $677 1 $216 $-1 #
coedge $-1 $678 $657 $389 $529 0 $659 $-1 #
edge $-1 $679 $532 $528 $680 0 #
edge $-1 $533 $429 $428 $681 0 #
coedge $-1 $391 $403 $682 $683 0 $405 $-1 #
vertex $-1 $529 $684 #
vertex $-1 $550 $685 #
ellipse-curve $-1 -12.5 2.5 12.5 -0.707106781186547 0.707106781186547 4.98242673555651e-15 7.5 7.5 -2.61861100413235e-14 0.707106781186547 #
edge $-1 $536 $477 $393 $686 0 #
vertex $-1 $535 $687 #
straight-curve $-1 -35 -40 -12.5 0 1 0 #
coedge $-1 $396 $688 $689 $690 0 $220 $-1 #
edge $-1 $489 $691 $488 $326 0 #
face $-1 $692 $693 $2 $-1 $694 forward single #
loop $-1 $-1 $695 $397 #
plane-surface $-1 30 -40 -25 -1 0 0 0 0 1 0 #
coedge $-1 $696 $697 $400 $544 1 $554 $-1 #
edge $-1 $651 $548 $400 $698 0 #
coedge $-1 $699 $401 $697 $700 0 $547 $-1 #
coedge $-1 $401 $699 $403 $549 0 $547 $-1 #
loop $-1 $-1 $699 $553 #
vertex $-1 $544 $701 #
edge $-1 $702 $406 $546 $703 0 #
edge $-1 $407 $533 $423 $566 0 #
point $-1 -5 -20 12.5 #
point $-1 -20 -20 12.5 #
face $-1 $380 $547 $2 $-1 $387 forward single #
loop $-1 $-1 $669 $409 #
cone-surface $-1 12.5 25 12.5 0 -1 -3.49148133884313e-15 7.5 0 0 1 0 1 0 #
coedge $-1 $704 $411 $414 $562 0 $558 $-1 #
coedge $-1 $411 $704 $628 $705 0 $558 $-1 #
loop $-1 $-1 $704 $706 #
vertex $-1 $412 $707 #
coedge $-1 $561 $413 $517 $656 0 $415 $-1 #
coedge $-1 $414 $560 $708 $709 0 $415 $-1 #
edge $-1 $416 $710 $556 $703 0 #
point $-1 -5 50 12.5 #
edge $-1 $421 $565 $418 $711 0 #
vertex $-1 $656 $712 #
straight-curve $-1 -20 25 12.5 -0 1 3.49148133884313e-15 #
point $-1 -25 35 12.5 #
vertex $-1 $677 $713 #
ellipse-curve $-1 -25 2.5 12.5000000000001 -1 -0 -0 -2.61861100413235e-14 0 -7.5 1 #
point $-1 -25 -5 12.5 #
coedge $-1 $664 $430 $527 $677 0 $386 $-1 #
edge $-1 $661 $434 $522 $714 0 #
point $-1 -25 20 12.5 #
face $-1 $634 $659 $2 $-1 $521 reversed single #
coedge $-1 $715 $437 $716 $717 0 $130 $-1 #
coedge $-1 $718 $719 $437 $577 1 $720 $-1 #
edge $-1 $581 $721 $437 $722 0 #
coedge $-1 $689 $438 $440 $583 1 $580 $-1 #
coedge $-1 $438 $689 $718 $723 0 $580 $-1 #
loop $-1 $-1 $578 $724 #
vertex $-1 $577 $725 #
straight-curve $-1 35 -22.5 -37.5 0 1 -0 #
edge $-1 $691 $442 $440 $726 0 #
face $-1 $626 $441 $2 $-1 $327 reversed single #
point $-1 35 -50 -37.5 #
edge $-1 $483 $587 $446 $727 0 #
vertex $-1 $447 $728 #
straight-curve $-1 -30 -20 -37.5 0 -1 0 #
point $-1 -30 -40 -37.5 #
straight-curve $-1 -35 -40 -25 0 0 -1 #
plane-surface $-1 -35 -45 -25 1 0 0 0 0 -1 0 #
coedge $-1 $457 $715 $729 $730 0 $130 $-1 #
coedge $-1 $731 $732 $457 $594 1 $733 $-1 #
edge $-1 $734 $598 $457 $735 0 #
coedge $-1 $736 $458 $732 $737 1 $597 $-1 #
coedge $-1 $458 $736 $460 $601 1 $597 $-1 #
loop $-1 $-1 $595 $738 #
vertex $-1 $594 $739 #
straight-curve $-1 15 -22.5 -37.5 0 -1 0 #
coedge $-1 $461 $460 $740 $741 0 $462 $-1 #
edge $-1 $463 $742 $460 $743 0 #
face $-1 $584 $462 $2 $-1 $327 reversed single #
point $-1 15 -50 -37.5 #
coedge $-1 $740 $479 $464 $605 0 $220 $-1 #
edge $-1 $608 $606 $604 $744 0 #
vertex $-1 $741 $745 #
straight-curve $-1 -15 -50 -12.5 -0 0 -1 #
vertex $-1 $485 $746 #
straight-curve $-1 -15 -40 -25 0 0 -1 #
plane-surface $-1 -15 -45 -25 -1 0 0 0 0 1 0 #
coedge $-1 $471 $470 $473 $614 0 $258 $-1 #
edge $-1 $615 $481 $480 $747 0 #
straight-curve $-1 -20 -30 -25 0 0 -1 #
edge $-1 $615 $587 $611 $748 0 #
vertex $-1 $475 $749 #
straight-curve $-1 -30 -37.5 -12.5 0 1 0 #
point $-1 -30 -40 -12.5 #
point $-1 -20 -30 -12.5 #
point $-1 -20 -30 -37.5 #
straight-curve $-1 -12.5 -40 -12.5 1 0 -0 #
point $-1 50 -50 -12.5 #
loop $-1 $750 $491 $751 #
vertex $-1 $492 $752 #
ellipse-curve $-1 50 2.5 12.4999999999998 -1 0 0 -2.61861100413235e-14 0 -7.5 1 #
loop $-1 $-1 $753 $626 #
face $-1 $213 $493 $2 $-1 $282 reversed single #
point $-1 50 27.5 4.99999999999983 #
coedge $-1 $654 $497 $557 $705 1 $630 $-1 #
coedge $-1 $497 $754 $499 $633 1 $630 $-1 #
loop $-1 $-1 $754 $755 #
ellipse-curve $-1 12.5 50 12.5000000000001 0 -1 0 7.5 0 0 1 #
coedge $-1 $500 $499 $646 $756 0 $501 $-1 #
edge $-1 $502 $757 $499 $758 0 #
face $-1 $759 $501 $2 $-1 $387 forward single #
point $-1 20 50 12.5 #
vertex $-1 $503 $760 #
straight-curve $-1 25 15 12.5 0 -1 0 #
coedge $-1 $761 $762 $505 $639 1 $750 $-1 #
edge $-1 $763 $642 $505 $764 0 #
coedge $-1 $650 $506 $762 $765 0 $641 $-1 #
loop $-1 $-1 $640 $520 #
vertex $-1 $765 $766 #
point $-1 25 -20 12.5 #
coedge $-1 $767 $768 $510 $645 1 $769 $-1 #
edge $-1 $648 $763 $510 $637 0 #
coedge $-1 $753 $511 $632 $756 1 $625 $-1 #
coedge $-1 $511 $770 $767 $771 1 $625 $-1 #
vertex $-1 $771 $772 #
ellipse-curve $-1 25 27.5 12.4999999999999 1 -0 -0 -2.61861100413235e-14 0 -7.5 1 #
coedge $-1 $514 $640 $696 $773 0 $641 $-1 #
vertex $-1 $515 $774 #
coedge $-1 $708 $516 $704 $775 1 $383 $-1 #
coedge $-1 $516 $776 $777 $778 1 $383 $-1 #
coedge $-1 $754 $628 $516 $655 0 $630 $-1 #
edge $-1 $779 $780 $654 $781 0 #
edge $-1 $565 $660 $560 $782 0 #
coedge $-1 $528 $518 $664 $783 1 $659 $-1 #
coedge $-1 $518 $784 $785 $786 0 $659 $-1 #
loop $-1 $-1 $658 $574 #
vertex $-1 $656 $787 #
vertex $-1 $783 $788 #
ellipse-curve $-1 -12.5 27.5 12.5 -0.707106781186547 0.707106781186547 4.85681933886181e-15 7.5 7.5 -2.61861100413235e-14 0.707106781186547 #
face $-1 $789 $673 $2 $-1 $555 reversed single #
coedge $-1 $522 $571 $657 $783 0 $386 $-1 #
coedge $-1 $682 $523 $678 $790 1 $284 $-1 #
coedge $-1 $791 $792 $523 $667 0 $793 $-1 #
edge $-1 $794 $674 $666 $795 0 #
coedge $-1 $524 $682 $699 $796 1 $284 $-1 #
coedge $-1 $697 $797 $524 $670 0 $554 $-1 #
edge $-1 $675 $798 $669 $799 0 #
coedge $-1 $800 $525 $801 $802 0 $673 $-1 #
coedge $-1 $525 $777 $791 $803 1 $673 $-1 #
loop $-1 $-1 $777 $663 #
vertex $-1 $526 $804 #
vertex $-1 $526 $805 #
ellipse-curve $-1 12.5 2.5 12.5 -0.707106781186547 -0.707106781186547 4.18691322315673e-17 -7.5 7.5 2.61861100413235e-14 0.707106781186547 #
edge $-1 $568 $679 $571 $806 0 #
coedge $-1 $784 $528 $665 $790 0 $659 $-1 #
vertex $-1 $529 $807 #
ellipse-curve $-1 -12.5 2.5 12.5 -0.707106781186547 -0.707106781186547 4.18691322315673e-17 -7.5 7.5 2.61861100413235e-14 0.707106781186547 #
straight-curve $-1 0 -5 12.5 -1 -0 3.49148133884313e-15 #
coedge $-1 $668 $665 $531 $683 1 $284 $-1 #
edge $-1 $702 $532 $531 $808 0 #
point $-1 -12.5 2.50000000000003 5.00000000000004 #
point $-1 -20 -5 12.4999999999999 #
straight-curve $-1 -12.5 -40 -12.5 1 0 -0 #
point $-1 -35 -40 -12.5 #
coedge $-1 $538 $809 $810 $811 0 $220 $-1 #
coedge $-1 $579 $578 $538 $690 1 $580 $-1 #
edge $-1 $812 $691 $538 $813 0 #
vertex $-1 $539 $814 #
face $-1 $815 $816 $2 $-1 $817 forward single #
loop $-1 $-1 $818 $540 #
plane-surface $-1 20 -40 -25 1 0 0 0 0 -1 0 #
coedge $-1 $819 $716 $719 $820 0 $541 $-1 #
coedge $-1 $797 $543 $650 $773 1 $554 $-1 #
coedge $-1 $543 $669 $545 $700 1 $554 $-1 #
ellipse-curve $-1 12.5 -20 12.4999999999998 -0 1 -0 7.5 0 0 1 #
coedge $-1 $546 $545 $668 $796 0 $547 $-1 #
edge $-1 $548 $798 $545 $821 0 #
point $-1 5 -20 12.5 #
vertex $-1 $796 $822 #
straight-curve $-1 -5 25 12.5 0 -1 -3.49148133884313e-15 #
coedge $-1 $557 $556 $652 $775 0 $558 $-1 #
edge $-1 $779 $559 $557 $821 0 #
face $-1 $751 $558 $2 $-1 $387 forward single #
point $-1 5 50 12.5 #
coedge $-1 $785 $652 $561 $709 1 $383 $-1 #
edge $-1 $660 $710 $561 $823 0 #
vertex $-1 $562 $824 #
straight-curve $-1 0 35 12.5 1 0 -3.49148133884313e-15 #
point $-1 -20 35 12.5 #
point $-1 -25 10 12.5 #
straight-curve $-1 0 20 12.5 -1 -0 3.49148133884313e-15 #
coedge $-1 $592 $575 $825 $826 0 $130 $-1 #
coedge $-1 $695 $827 $575 $717 1 $541 $-1 #
edge $-1 $721 $828 $575 $829 0 #
coedge $-1 $810 $576 $579 $723 1 $720 $-1 #
coedge $-1 $576 $810 $695 $820 1 $720 $-1 #
loop $-1 $-1 $719 $815 #
vertex $-1 $717 $830 #
straight-curve $-1 12.5 -40 -37.5 -1 0 0 #
edge $-1 $812 $581 $579 $831 0 #
face $-1 $602 $580 $2 $-1 $832 forward single #
point $-1 35 -40 -37.5 #
straight-curve $-1 35 -50 -12.5 -0 0 -1 #
straight-curve $-1 -12.5 -30 -37.5 -1 0 0 #
point $-1 -30 -30 -37.5 #
coedge $-1 $833 $818 $592 $730 1 $693 $-1 #
edge $-1 $834 $734 $592 $835 0 #
coedge $-1 $836 $593 $818 $837 1 $733 $-1 #
coedge $-1 $593 $836 $595 $737 0 $733 $-1 #
loop $-1 $-1 $731 $838 #
vertex $-1 $730 $839 #
straight-curve $-1 12.5 -40 -37.5 -1 0 0 #
coedge $-1 $596 $595 $840 $841 1 $597 $-1 #
edge $-1 $842 $598 $732 $843 0 #
face $-1 $724 $597 $2 $-1 $844 forward single #
point $-1 15 -40 -37.5 #
coedge $-1 $840 $604 $600 $741 1 $220 $-1 #
edge $-1 $742 $606 $600 $326 0 #
vertex $-1 $601 $845 #
straight-curve $-1 15 -50 -12.5 -0 0 1 #
straight-curve $-1 -15 -40 -12.5 0 -1 0 #
point $-1 -15 -50 -12.5 #
point $-1 -15 -40 -12.5 #
straight-curve $-1 -12.5 -30 -12.5 1 0 -0 #
straight-curve $-1 -30 -30 -25 0 0 -1 #
point $-1 -30 -30 -12.5 #
loop $-1 $-1 $801 $751 #
face $-1 $159 $622 $2 $-1 $217 reversed single #
point $-1 50 2.5 4.99999999999983 #
coedge $-1 $770 $646 $754 $846 1 $625 $-1 #
coedge $-1 $629 $654 $753 $846 0 $630 $-1 #
face $-1 $706 $630 $2 $-1 $555 reversed single #
edge $-1 $757 $636 $632 $847 0 #
vertex $-1 $633 $848 #
straight-curve $-1 20 25 12.5 0 -1 -3.49148133884313e-15 #
face $-1 $755 $769 $2 $-1 $387 forward single #
point $-1 25 35 12.5 #
coedge $-1 $801 $638 $768 $849 1 $750 $-1 #
coedge $-1 $638 $850 $640 $765 1 $750 $-1 #
vertex $-1 $645 $851 #
ellipse-curve $-1 25 2.5 12.4999999999999 1 -0 -0 -2.61861100413235e-14 0 -7.5 1 #
edge $-1 $642 $852 $640 $853 0 #
point $-1 25 -5 12.5 #
coedge $-1 $854 $644 $647 $771 0 $769 $-1 #
coedge $-1 $644 $854 $761 $849 0 $769 $-1 #
loop $-1 $-1 $767 $759 #
coedge $-1 $647 $753 $855 $856 1 $625 $-1 #
edge $-1 $648 $857 $767 $858 0 #
point $-1 25 20 12.5 #
edge $-1 $852 $651 $650 $758 0 #
point $-1 20 -20 12.5 #
edge $-1 $710 $779 $704 $859 0 #
coedge $-1 $653 $785 $860 $861 1 $383 $-1 #
coedge $-1 $672 $855 $653 $778 0 $673 $-1 #
edge $-1 $780 $862 $777 $863 0 #
vertex $-1 $655 $864 #
vertex $-1 $655 $865 #
ellipse-curve $-1 12.5 27.5 12.5 -0.707106781186547 -0.707106781186547 1.67476528926269e-16 -7.5 7.5 2.61861100413235e-14 0.707106781186547 #
ellipse-curve $-1 -12.5 27.5 12.5 -0.707106781186547 -0.707106781186547 1.67476528926269e-16 -7.5 7.5 2.61861100413235e-14 0.707106781186547 #
edge $-1 $679 $661 $664 $566 0 #
coedge $-1 $658 $678 $792 $866 1 $659 $-1 #
coedge $-1 $776 $708 $658 $786 1 $383 $-1 #
edge $-1 $867 $660 $658 $868 0 #
point $-1 -12.5 27.5 5.00000000000004 #
point $-1 -20 20 12.5 #
face $-1 $225 $793 $2 $-1 $387 forward single #
edge $-1 $532 $794 $678 $869 0 #
coedge $-1 $860 $666 $672 $803 0 $793 $-1 #
coedge $-1 $666 $860 $784 $866 0 $793 $-1 #
loop $-1 $-1 $860 $789 #
vertex $-1 $866 $870 #
straight-curve $-1 0 10 12.5 1 0 -3.49148133884313e-15 #
edge $-1 $798 $702 $699 $871 0 #
coedge $-1 $669 $696 $850 $872 0 $554 $-1 #
vertex $-1 $700 $873 #
ellipse-curve $-1 12.5 2.5 12.5 -0.707106781186547 0.707106781186547 4.98242673555651e-15 7.5 7.5 -2.61861100413235e-14 0.707106781186547 #
coedge $-1 $855 $671 $854 $874 1 $673 $-1 #
coedge $-1 $850 $761 $671 $802 1 $750 $-1 #
edge $-1 $675 $875 $671 $876 0 #
edge $-1 $674 $862 $791 $821 0 #
point $-1 5 10 12.4999999999999 #
point $-1 12.5 2.50000000000003 4.99999999999996 #
straight-curve $-1 0 10 12.5 1 0 -3.49148133884313e-15 #
point $-1 -20 10 12.4999999999999 #
ellipse-curve $-1 -12.5 2.5 12.5 0.707106781186547 0.707106781186547 -4.18691322315673e-17 -7.5 7.5 2.61861100413235e-14 0.707106781186547 #
coedge $-1 $688 $877 $819 $878 0 $220 $-1 #
coedge $-1 $719 $718 $688 $811 1 $720 $-1 #
edge $-1 $879 $812 $688 $880 0 #
vertex $-1 $811 $881 #
straight-curve $-1 35 -40 -12.5 0 -1 0 #
point $-1 35 -50 -12.5 #
face $-1 $838 $720 $2 $-1 $882 forward single #
loop $-1 $-1 $883 $692 #
plane-surface $-1 25 -30 -25 0 -1 0 0 0 -1 0 #
coedge $-1 $729 $884 $731 $837 0 $693 $-1 #
coedge $-1 $827 $695 $809 $878 1 $541 $-1 #
edge $-1 $721 $879 $719 $885 0 #
straight-curve $-1 5 25 12.5 -0 1 3.49148133884313e-15 #
point $-1 -5 -5 12.4999999999999 #
ellipse-curve $-1 -12.5 27.5 12.5 0.707106781186547 -0.707106781186547 -4.85681933886181e-15 7.5 7.5 -2.61861100413235e-14 0.707106781186547 #
point $-1 -5 35 12.5 #
coedge $-1 $883 $886 $715 $826 1 $816 $-1 #
edge $-1 $828 $834 $715 $887 0 #
coedge $-1 $716 $819 $883 $888 0 $541 $-1 #
vertex $-1 $717 $889 #
straight-curve $-1 30 -20 -37.5 0 1 -0 #
point $-1 30 -40 -37.5 #
straight-curve $-1 35 -40 -25 0 0 -1 #
plane-surface $-1 35 -45 -25 -1 0 0 0 0 1 0 #
coedge $-1 $884 $729 $886 $890 1 $693 $-1 #
vertex $-1 $730 $891 #
straight-curve $-1 20 -20 -37.5 0 -1 0 #
coedge $-1 $732 $731 $892 $893 1 $733 $-1 #
edge $-1 $894 $734 $731 $895 0 #
face $-1 $738 $733 $2 $-1 $882 forward single #
point $-1 20 -40 -37.5 #
coedge $-1 $892 $740 $736 $841 0 $220 $-1 #
edge $-1 $742 $842 $840 $896 0 #
vertex $-1 $893 $897 #
straight-curve $-1 15 -40 -25 0 0 -1 #
plane-surface $-1 15 -45 -25 1 0 0 0 0 -1 0 #
point $-1 15 -50 -12.5 #
edge $-1 $780 $757 $754 $898 0 #
straight-curve $-1 0 35 12.5 1 0 -3.49148133884313e-15 #
point $-1 20 35 12.5 #
edge $-1 $875 $763 $768 $899 0 #
coedge $-1 $762 $801 $797 $872 1 $750 $-1 #
point $-1 25 10 12.5 #
vertex $-1 $872 $900 #
straight-curve $-1 0 -5 12.5 -1 -0 3.49148133884313e-15 #
coedge $-1 $768 $767 $800 $874 0 $769 $-1 #
coedge $-1 $777 $800 $770 $856 0 $673 $-1 #
edge $-1 $857 $780 $855 $901 0 #
vertex $-1 $856 $902 #
straight-curve $-1 0 20 12.5 -1 -0 3.49148133884313e-15 #
straight-curve $-1 0 35 12.5 1 0 -3.49148133884313e-15 #
coedge $-1 $792 $791 $776 $861 0 $793 $-1 #
edge $-1 $862 $867 $860 $903 0 #
vertex $-1 $803 $904 #
ellipse-curve $-1 12.5 27.5 12.5 -0.707106781186547 0.707106781186547 4.85681933886181e-15 7.5 7.5 -2.61861100413235e-14 0.707106781186547 #
point $-1 5 35 12.5 #
point $-1 12.5 27.5 4.99999999999996 #
edge $-1 $867 $794 $792 $703 0 #
vertex $-1 $861 $905 #
ellipse-curve $-1 -12.5 27.5 12.5 0.707106781186547 0.707106781186547 -1.67476528926269e-16 -7.5 7.5 2.61861100413235e-14 0.707106781186547 #
ellipse-curve $-1 -12.5 2.5 12.5 0.707106781186547 -0.707106781186547 -4.98242673555651e-15 7.5 7.5 -2.61861100413235e-14 0.707106781186547 #
point $-1 -5 10 12.4999999999999 #
straight-curve $-1 0 -5 12.5 -1 -0 3.49148133884313e-15 #
edge $-1 $852 $675 $797 $906 0 #
point $-1 5 -5 12.4999999999999 #
edge $-1 $857 $875 $854 $758 0 #
vertex $-1 $874 $907 #
ellipse-curve $-1 12.5 2.5 12.5 0.707106781186547 -0.707106781186547 -4.98242673555651e-15 7.5 7.5 -2.61861100413235e-14 0.707106781186547 #
coedge $-1 $809 $908 $909 $910 0 $220 $-1 #
edge $-1 $911 $879 $809 $912 0 #
vertex $-1 $878 $913 #
straight-curve $-1 12.5 -40 -12.5 1 0 -0 #
point $-1 35 -40 -12.5 #
plane-surface $-1 25 -40 -25 0 -1 0 0 0 -1 0 #
coedge $-1 $909 $825 $827 $888 1 $816 $-1 #
coedge $-1 $818 $833 $908 $914 1 $693 $-1 #
straight-curve $-1 30 -40 -25 0 0 1 #
coedge $-1 $825 $909 $833 $890 0 $816 $-1 #
straight-curve $-1 12.5 -30 -37.5 -1 0 0 #
edge $-1 $911 $828 $827 $915 0 #
point $-1 30 -30 -37.5 #
edge $-1 $916 $834 $886 $917 0 #
point $-1 20 -30 -37.5 #
coedge $-1 $908 $840 $836 $893 0 $220 $-1 #
edge $-1 $842 $894 $892 $918 0 #
vertex $-1 $914 $919 #
straight-curve $-1 20 -40 -25 0 0 -1 #
straight-curve $-1 15 -40 -12.5 0 1 0 #
point $-1 15 -40 -12.5 #
ellipse-curve $-1 12.5 27.5 12.5 0.707106781186547 -0.707106781186547 -4.85681933886181e-15 7.5 7.5 -2.61861100413235e-14 0.707106781186547 #
straight-curve $-1 0 10 12.5 1 0 -3.49148133884313e-15 #
point $-1 20 -5 12.4999999999999 #
ellipse-curve $-1 12.5 27.5 12.5 0.707106781186547 0.707106781186547 -1.67476528926269e-16 -7.5 7.5 2.61861100413235e-14 0.707106781186547 #
point $-1 20 20 12.5 #
straight-curve $-1 0 20 12.5 -1 -0 3.49148133884313e-15 #
point $-1 5 20 12.5 #
point $-1 -5 20 12.5 #
ellipse-curve $-1 12.5 2.5 12.5 0.707106781186547 0.707106781186547 -4.18691322315673e-17 -7.5 7.5 2.61861100413235e-14 0.707106781186547 #
point $-1 20 10 12.4999999999999 #
coedge $-1 $877 $892 $884 $914 0 $220 $-1 #
coedge $-1 $886 $883 $877 $910 1 $816 $-1 #
edge $-1 $916 $911 $877 $920 0 #
vertex $-1 $878 $921 #
straight-curve $-1 30 -37.5 -12.5 0 -1 0 #
point $-1 30 -40 -12.5 #
edge $-1 $894 $916 $908 $922 0 #
straight-curve $-1 30 -30 -25 0 0 -1 #
vertex $-1 $914 $923 #
straight-curve $-1 20 -30 -25 0 0 -1 #
straight-curve $-1 12.5 -40 -12.5 1 0 -0 #
point $-1 20 -40 -12.5 #
straight-curve $-1 12.5 -30 -12.5 1 0 -0 #
point $-1 30 -30 -12.5 #
straight-curve $-1 20 -37.5 -12.5 0 1 0 #
point $-1 20 -30 -12.5 #
