**ABCDEFGHIJKLMNOPQRSTUVWXYZabcdefghijklmnopqrstuvwxyz**************************
**PARASOLID !"#$%&'()*+,-./:;<=>?@[\]^_`{|}~0123456789**************************
**PART1;MC=sparc;MC_MODEL=sun4c;MC_ID=chaos;OS=SunOS;OS_RELEASE=4.1.2;FRU=sdl_pa
rasolid_test_sparc;APPL=unknown;SITE=sdl-cambridge-u.k.;USER=brown;FORMAT=text;G
UISE=transmit;KEY=groove;FILE=groove.xmt_txt;DATE=18-feb-1992;
**PART2;SCH=SCH_401021_4039;USFLD_SIZE=0;
**PART3;
**END_OF_HEADER*****************************************************************
T50 : TRANSMIT FILE created by modeller version 40102115 SCH_401021_40390 12 1 5
10 0 0 0 0 0 1e3 1e-8 2 2 0 0 0 1 3 1e-8 0 0 102 6 2 groove13 3 2 0 1 0 4 5 6 7
 8 9 14 4 344 0 10 0 11 3 7 -16 5 357 0 12 0 13 14 18 6 389 0 12 0 15 9 50 7 419
 0 4 16 0 0 +0 0 0 0 0 1 1 0 0 48 8 427 0 3 14 0 1 -1e-8 17 18 29 9 479 0 6 19 0
 .045 0 0 29 19 480 0 15 20 9 .11 -.01 0 18 15 390 0 21 6 22 19 29 20 481 0 22 2
3 19 .15 -.015 0 18 22 391 0 24 15 25 20 29 23 482 0 25 26 20 .195 .01 0 18 25 3
92 0 27 22 28 23 29 26 483 0 28 29 23 .22 .065 0 18 28 393 0 30 25 31 26 29 29 4
84 0 31 32 26 .2 .135 0 18 31 394 0 33 28 34 29 29 32 485 0 34 35 29 .13 .21 0 1
8 34 395 0 36 31 37 32 29 35 486 0 37 38 32 .155 .275 0 18 37 396 0 39 34 40 35
 29 38 487 0 40 41 35 .23 .35 0 18 40 397 0 42 37 43 38 29 41 488 0 43 44 38 .23
 .45 0 18 43 398 0 45 40 46 41 29 44 489 0 46 47 41 0 .5 0 18 46 399 0 48 43 49
 44 29 47 490 0 49 50 44 -.23 .45 0 18 49 400 0 51 46 52 47 29 50 491 0 52 53 47
 -.23 .35 0 18 52 401 0 54 49 55 50 29 53 492 0 55 56 50 -.155 .275 0 18 55 402
 0 57 52 58 53 29 56 493 0 58 59 53 -.13 .21 0 18 58 403 0 60 55 61 56 29 59 494
 0 61 62 56 -.2 .135 0 18 61 404 0 63 58 64 59 29 62 495 0 64 65 59 -.22 .065 0
 18 64 405 0 66 61 67 62 29 65 496 0 67 68 62 -.195 .01 0 18 67 406 0 69 64 70 6
5 29 68 497 0 70 71 65 -.15 -.015 0 18 70 407 0 72 67 73 68 29 71 498 0 73 74 68
 -.11 -.01 0 18 73 408 0 75 70 76 71 29 74 339 0 76 77 71 -.045 0 2 18 76 252 0
 78 73 79 74 29 77 338 0 79 80 74 .045 0 2 18 79 250 0 81 76 82 77 29 80 337 0 8
2 83 77 .11 -.01 2 18 82 248 0 84 79 85 80 29 83 336 0 85 86 80 .15 -.015 2 18 8
5 246 0 87 82 88 83 29 86 335 0 88 89 83 .195 .01 2 18 88 244 0 90 85 91 86 29 8
9 334 0 91 92 86 .22 .065 2 18 91 242 0 93 88 94 89 29 92 333 0 94 95 89 .2 .135
 2 18 94 240 0 96 91 97 92 29 95 332 0 97 98 92 .13 .21 2 18 97 238 0 99 94 100
 95 29 98 331 0 100 101 95 .155 .275 2 18 100 236 0 102 97 103 98 29 101 330 0 1
03 104 98 .23 .35 2 18 103 234 0 105 100 106 101 29 104 329 0 106 107 101 .23 .4
5 2 18 106 232 0 108 103 109 104 29 107 328 0 109 110 104 0 .5 2 18 109 230 0 11
1 106 112 107 29 110 327 0 112 113 107 -.23 .45 2 18 112 228 0 114 109 115 110 2
9 113 326 0 115 116 110 -.23 .35 2 18 115 226 0 117 112 118 113 29 116 325 0 118
 119 113 -.155 .275 2 18 118 224 0 120 115 121 116 29 119 324 0 121 122 116 -.13
 .21 2 18 121 222 0 123 118 124 119 29 122 323 0 124 125 119 -.2 .135 2 18 124 2
20 0 126 121 127 122 29 125 322 0 127 128 122 -.22 .065 2 18 127 218 0 129 124 1
30 125 29 128 321 0 130 131 125 -.195 .01 2 18 130 216 0 132 127 133 128 29 131
 320 0 133 134 128 -.15 -.015 2 18 133 214 0 135 130 136 131 29 134 319 0 136 13
7 131 -.11 -.01 2 18 136 212 0 138 133 139 134 29 137 142 0 139 0 134 -.045 0 0
 18 139 140 0 140 136 0 137 17 140 141 78 142 139 143 144 0 15 141 150 0 140 145
 0 17 78 141 146 140 76 147 148 0 17 142 141 140 146 73 138 149 0 17 143 11 150
 151 73 140 144 0 16 144 376 0 143 152 148 153 16 152 375 0 150 154 144 155 16 1
48 253 0 78 144 156 157 35 153 466 0 144 158 159 0 -1e-8 0 159 35 158 318 0 160
 161 153 0 +1e-8 20 162 48 159 465 0 3 153 155 1 -1e-8 163 164 35 155 464 0 152
 159 165 0 -1e-8 0 165 103 1 163 3 1 3 V166 43 164 167 3 3 3 168 44 6 167 F6 0 0
 0 1 1 1 45 9 168 -.11 -.01 0 -.09 0 0 -.045 0 0 42 9 166 .100498756211209 -.11
 -.01 0 -.09 0 0 -.045 0 0 48 165 463 0 3 155 169 1 -1e-8 170 171 35 169 462 0 1
54 165 172 0 -1e-8 0 172 103 1 170 3 1 3 V173 43 171 174 3 3 3 175 44 6 174 F6 0
 0 0 1 1 1 45 9 175 -.15 -.015 0 -.13 -.02 0 -.11 -.01 0 42 9 173 .0608276253029
822 -.15 -.015 0 -.13 -.02 0 -.11 -.01 0 16 154 374 0 176 177 152 169 48 172 461
 0 3 169 178 1 -1e-8 179 180 35 178 460 0 177 172 181 0 -1e-8 0 181 103 1 179 3
 1 3 V182 43 180 183 3 3 3 184 44 6 183 F6 0 0 0 1 1 1 45 9 184 -.195 .01 0 -.17
 -.01 0 -.15 -.015 0 42 9 182 .0761577310586391 -.195 .01 0 -.17 -.01 0 -.15 -.0
15 0 16 177 373 0 185 186 154 178 48 181 459 0 3 178 187 1 -1e-8 188 189 35 187
 458 0 186 181 190 0 -1e-8 0 190 103 1 188 3 1 3 V191 43 189 192 3 3 3 193 44 6
 192 F6 0 0 0 1 1 1 45 9 193 -.22 .065 0 -.22 .03 0 -.195 .01 0 42 9 191 .094868
3298050514 -.22 .065 0 -.22 .03 0 -.195 .01 0 16 186 372 0 194 195 177 187 48 19
0 457 0 3 187 196 1 -1e-8 197 198 35 196 456 0 195 190 199 0 -1e-8 0 199 103 1 1
97 3 1 3 V200 43 198 201 3 3 3 202 44 6 201 F6 0 0 0 1 1 1 45 9 202 -.2 .135 0 -
.22 .1 0 -.22 .065 0 42 9 200 .106770782520313 -.2 .135 0 -.22 .1 0 -.22 .065 0
 16 195 371 0 203 204 186 196 48 199 455 0 3 196 205 1 -1e-8 206 207 35 205 454
 0 204 199 208 0 -1e-8 0 208 103 1 206 3 1 3 V209 43 207 210 3 3 3 211 44 6 210
 F6 0 0 0 1 1 1 45 9 211 -.13 .21 0 -.18 .17 0 -.2 .135 0 42 9 209 .151327459504
2155 -.13 .21 0 -.18 .17 0 -.2 .135 0 16 204 370 0 212 213 195 205 48 208 453 0
 3 205 214 1 -1e-8 215 216 35 214 452 0 213 208 217 0 -1e-8 0 217 103 1 215 3 1
 3 V218 43 216 219 3 3 3 220 44 6 219 F6 0 0 0 1 1 1 45 9 220 -.155 .275 0 -.08
 .25 0 -.13 .21 0 47 218 .552505031242257 221 222 .0950135762974152 42 9 221 .09
50135762974152 -.155 .275 0 -.1135621226568306 .2611873742189435 0 -.11028197150
71624 .242795821294667 0 42 9 222 .0648068456713871 -.1102819715071624 .24279582
1294667 0 -.107625251562113 .2278997987503095 0 -.13 .21 0 16 213 369 0 223 224
 204 214 48 217 451 0 3 214 225 1 -1e-8 226 227 35 225 450 0 224 217 228 0 -1e-8
 0 228 103 1 226 3 1 3 V229 43 227 230 3 3 3 231 44 6 230 F6 0 0 0 1 1 1 45 9 23
1 -.23 .35 0 -.23 .3 0 -.155 .275 0 42 9 229 .187082869338697 -.23 .35 0 -.23 .3
 0 -.155 .275 0 16 224 368 0 232 233 213 225 48 228 449 0 3 225 234 1 -1e-8 235
 236 35 234 448 0 233 228 237 0 -1e-8 0 237 103 1 235 3 1 3 V238 43 236 239 3 3
 3 240 44 6 239 F6 0 0 0 1 1 1 45 9 240 -.23 .45 0 -.23 .4 0 -.23 .35 0 42 9 238
 .1414213562373094 -.23 .45 0 -.23 .4 0 -.23 .35 0 16 233 367 0 241 242 224 234
 48 237 447 0 3 234 243 1 -1e-8 244 245 35 243 446 0 242 237 246 0 -1e-8 0 246 1
03 1 244 3 1 3 V247 43 245 248 3 3 3 249 44 6 248 F6 0 0 0 1 1 1 45 9 249 0 .5 0
 -.23 .5 0 -.23 .45 0 42 9 247 .470744091837593 0 .5 0 -.23 .5 0 -.23 .45 0 16 2
42 366 0 250 251 233 243 48 246 445 0 3 243 252 1 -1e-8 253 254 35 252 444 0 251
 246 255 0 -1e-8 0 255 103 1 253 3 1 3 V256 43 254 257 3 3 3 258 44 6 257 F6 0 0
 0 1 1 1 45 9 258 .23 .45 0 .23 .5 0 0 .5 0 42 9 256 .470744091837593 .23 .45 0
 .23 .5 0 0 .5 0 16 251 365 0 259 260 242 252 48 255 443 0 3 252 261 1 -1e-8 262
 263 35 261 442 0 260 255 264 0 -1e-8 0 264 103 1 262 3 1 3 V265 43 263 266 3 3
 3 267 44 6 266 F6 0 0 0 1 1 1 45 9 267 .23 .35 0 .23 .4 0 .23 .45 0 42 9 265 .1
414213562373094 .23 .35 0 .23 .4 0 .23 .45 0 16 260 364 0 268 269 251 261 48 264
 441 0 3 261 270 1 -1e-8 271 272 35 270 440 0 269 264 273 0 -1e-8 0 273 103 1 27
1 3 1 3 V274 43 272 275 3 3 3 276 44 6 275 F6 0 0 0 1 1 1 45 9 276 .155 .275 0 .
23 .3 0 .23 .35 0 42 9 274 .187082869338697 .155 .275 0 .23 .3 0 .23 .35 0 16 26
9 363 0 277 278 260 270 48 273 439 0 3 270 279 1 -1e-8 280 281 35 279 438 0 278
 273 282 0 -1e-8 0 282 103 1 280 3 1 3 V283 43 281 284 3 3 3 285 44 6 284 F6 0 0
 0 1 1 1 45 9 285 .13 .21 0 .08 .25 0 .155 .275 0 47 283 .4474949687577425 286 2
87 .0950135762974152 42 9 286 .064806845671387 .13 .21 0 .107625251562113 .22789
97987503095 0 .1102819715071624 .242795821294667 0 42 9 287 .0950135762974152 .1
102819715071624 .242795821294667 0 .1135621226568306 .2611873742189435 0 .155 .2
75 0 16 278 362 0 288 289 269 279 48 282 437 0 3 279 290 1 -1e-8 291 292 35 290
 436 0 289 282 293 0 -1e-8 0 293 103 1 291 3 1 3 V294 43 292 295 3 3 3 296 44 6
 295 F6 0 0 0 1 1 1 45 9 296 .2 .135 0 .18 .17 0 .13 .21 0 42 9 294 .15132745950
42155 .2 .135 0 .18 .17 0 .13 .21 0 16 289 361 0 297 298 278 290 48 293 435 0 3
 290 299 1 -1e-8 300 301 35 299 434 0 298 293 302 0 -1e-8 0 302 103 1 300 3 1 3
 V303 43 301 304 3 3 3 305 44 6 304 F6 0 0 0 1 1 1 45 9 305 .22 .065 0 .22 .1 0
 .2 .135 0 42 9 303 .106770782520313 .22 .065 0 .22 .1 0 .2 .135 0 16 298 360 0
 306 307 289 299 48 302 433 0 3 299 308 1 -1e-8 309 310 35 308 432 0 307 302 311
 0 -1e-8 0 311 103 1 309 3 1 3 V312 43 310 313 3 3 3 314 44 6 313 F6 0 0 0 1 1 1
 45 9 314 .195 .01 0 .22 .03 0 .22 .065 0 42 9 312 .0948683298050514 .195 .01 0
 .22 .03 0 .22 .065 0 16 307 359 0 315 13 298 308 48 311 431 0 3 308 316 1 -1e-8
 317 318 35 316 430 0 13 311 319 0 -1e-8 0 319 103 1 317 3 1 3 V320 43 318 321 3
 3 3 322 44 6 321 F6 0 0 0 1 1 1 45 9 322 .15 -.015 0 .17 -.01 0 .195 .01 0 42 9
 320 .0761577310586391 .15 -.015 0 .17 -.01 0 .195 .01 0 16 13 358 0 323 5 307 3
16 48 319 429 0 3 316 14 1 -1e-8 324 325 35 14 428 0 5 319 8 0 -1e-8 0 8 103 1 3
24 3 1 3 V326 43 325 327 3 3 3 328 44 6 327 F6 0 0 0 1 1 1 45 9 328 .11 -.01 0 .
13 -.02 0 .15 -.015 0 42 9 326 .0608276253029822 .11 -.01 0 .13 -.02 0 .15 -.015
 0 17 323 11 12 315 15 24 13 0 15 11 345 0 151 4 0 17 12 11 151 323 6 21 5 0 17
 315 11 323 306 22 27 307 0 17 24 329 87 330 22 323 13 0 15 329 204 0 24 331 0 1
7 87 329 332 24 85 333 334 0 17 330 329 24 332 15 84 335 0 17 332 329 330 87 82
 336 337 0 17 84 338 339 21 82 330 335 0 16 335 249 0 84 156 334 340 16 156 251
 0 81 148 335 341 16 334 247 0 87 335 342 343 30 340 272 0 335 343 341 0 +1e-8 .
11 -.01 0 0 0 1 30 343 271 0 334 344 340 0 +1e-8 .15 -.015 0 0 0 1 30 341 273 0
 156 340 157 0 +1e-8 .045 0 0 0 0 1 30 157 274 0 148 341 345 0 +1e-8 -.045 0 0 0
 0 1 35 345 297 0 346 157 162 0 +1e-8 19 162 16 346 151 0 347 348 349 345 48 162
 298 0 3 345 350 21 +1e-8 351 352 35 350 299 0 348 162 353 0 +1e-8 18 162 103 21
 351 3 21 3 V354 355 356 357 358 359 360 361 362 363 364 365 366 367 368 369 370
 371 372 373 374 43 352 375 3 23 3 376 44 26 375 T26 -2 -1 0 1 2 3 4 5 6 7 8 9 1
0 11 12 13 14 15 16 17 18 19 20 21 22 23 45 69 376 0 0 2 .09 0 2 .13 -.02 2 .17
 -.01 2 .22 .03 2 .22 .1 2 .18 .17 2 .08 .25 2 .23 .3 2 .23 .4 2 .23 .5 2 -.23 .
5 2 -.23 .4 2 -.23 .3 2 -.08 .25 2 -.18 .17 2 -.22 .1 2 -.22 .03 2 -.17 -.01 2 -
.13 -.02 2 -.09 0 2 0 0 2 .09 0 2 42 9 354 .100498756211209 .045 0 2 .09 0 2 .11
 -.01 2 42 9 355 .0608276253029822 .11 -.01 2 .13 -.02 2 .15 -.015 2 42 9 356 .0
761577310586391 .15 -.015 2 .17 -.01 2 .195 .01 2 42 9 357 .0948683298050514 .19
5 .01 2 .22 .03 2 .22 .065 2 42 9 358 .106770782520313 .22 .065 2 .22 .1 2 .2 .1
35 2 42 9 359 .1513274595042155 .2 .135 2 .18 .17 2 .13 .21 2 47 360 .4474949687
57743 377 378 .0950135762974152 42 9 361 .187082869338697 .155 .275 2 .23 .3 2 .
23 .35 2 42 9 362 .1414213562373094 .23 .35 2 .23 .4 2 .23 .45 2 42 9 363 .47074
4091837593 .23 .45 2 .23 .5 2 0 .5 2 42 9 364 .470744091837593 0 .5 2 -.23 .5 2
 -.23 .45 2 42 9 365 .1414213562373094 -.23 .45 2 -.23 .4 2 -.23 .35 2 42 9 366
 .187082869338697 -.23 .35 2 -.23 .3 2 -.155 .275 2 47 367 .552505031242258 379
 380 .0950135762974152 42 9 368 .1513274595042155 -.13 .21 2 -.18 .17 2 -.2 .135
 2 42 9 369 .106770782520313 -.2 .135 2 -.22 .1 2 -.22 .065 2 42 9 370 .09486832
98050514 -.22 .065 2 -.22 .03 2 -.195 .01 2 42 9 371 .0761577310586391 -.195 .01
 2 -.17 -.01 2 -.15 -.015 2 42 9 372 .0608276253029822 -.15 -.015 2 -.13 -.02 2
 -.11 -.01 2 42 9 373 .100498756211209 -.11 -.01 2 -.09 0 2 -.045 0 2 42 9 374 .
1272792206135786 -.045 0 2 0 0 2 .045 0 2 42 9 379 .0950135762974152 -.155 .275
 2 -.1135621226568306 .2611873742189435 2 -.1102819715071624 .242795821294667 2
 42 9 380 .0648068456713871 -.1102819715071624 .242795821294667 2 -.107625251562
113 .2278997987503095 2 -.13 .21 2 42 9 377 .0648068456713872 .13 .21 2 .1076252
51562113 .2278997987503095 2 .1102819715071624 .242795821294667 2 42 9 378 .0950
135762974152 .1102819715071624 .242795821294667 2 .1135621226568306 .26118737421
89435 2 .155 .275 2 16 348 154 0 381 382 346 350 35 353 300 0 382 350 383 0 +1e-
8 17 162 16 382 157 0 384 385 348 353 35 383 301 0 385 353 386 0 +1e-8 16 162 16
 385 160 0 387 388 382 383 35 386 302 0 388 383 389 0 +1e-8 15 162 16 388 163 0
 390 391 385 386 35 389 303 0 391 386 392 0 +1e-8 14 162 16 391 166 0 393 394 38
8 389 35 392 304 0 394 389 395 0 +1e-8 13 162 16 394 169 0 396 397 391 392 35 39
5 305 0 397 392 398 0 +1e-8 12 162 16 397 172 0 399 400 394 395 35 398 306 0 400
 395 401 0 +1e-8 11 162 16 400 175 0 402 403 397 398 35 401 307 0 403 398 404 0
 +1e-8 10 162 16 403 178 0 405 406 400 401 35 404 308 0 406 401 407 0 +1e-8 9 16
2 16 406 181 0 408 409 403 404 35 407 309 0 409 404 410 0 +1e-8 8 162 16 409 184
 0 411 412 406 407 35 410 310 0 412 407 413 0 +1e-8 7 162 16 412 187 0 414 415 4
09 410 35 413 311 0 415 410 416 0 +1e-8 6 162 16 415 190 0 417 418 412 413 35 41
6 312 0 418 413 419 0 +1e-8 5 162 16 418 193 0 420 421 415 416 35 419 313 0 421
 416 422 0 +1e-8 4 162 16 421 196 0 423 424 418 419 35 422 314 0 424 419 425 0 +
1e-8 3 162 16 424 199 0 426 427 421 422 35 425 315 0 427 422 428 0 +1e-8 2 162 1
6 427 202 0 429 337 424 425 35 428 316 0 337 425 161 0 +1e-8 1 162 16 337 205 0
 336 430 427 428 35 161 317 0 430 428 158 0 +1e-8 0 162 16 430 208 0 431 160 337
 161 17 431 432 336 433 82 339 430 0 16 160 211 0 433 149 430 158 17 433 432 431
 347 79 434 160 0 16 149 213 0 138 435 160 436 17 138 437 438 75 136 142 149 0 1
6 435 215 0 135 439 149 440 30 436 254 0 149 441 440 0 +1e-8 -.11 -.01 0 0 0 1 3
5 441 146 0 349 442 436 0 +1e-8 20 442 30 440 255 0 435 436 443 0 +1e-8 -.15 -.0
15 0 0 0 1 30 443 256 0 439 440 444 0 +1e-8 -.195 .01 0 0 0 1 16 439 217 0 132 4
45 435 443 30 444 257 0 445 443 446 0 +1e-8 -.22 .065 0 0 0 1 16 445 219 0 129 4
47 439 444 30 446 258 0 447 444 448 0 +1e-8 -.2 .135 0 0 0 1 16 447 221 0 126 44
9 445 446 30 448 259 0 449 446 450 0 +1e-8 -.13 .21 0 0 0 1 16 449 223 0 123 451
 447 448 30 450 260 0 451 448 452 0 +1e-8 -.155 .275 0 0 0 1 16 451 225 0 120 45
3 449 450 30 452 261 0 453 450 454 0 +1e-8 -.23 .35 0 0 0 1 16 453 227 0 117 455
 451 452 30 454 262 0 455 452 456 0 +1e-8 -.23 .45 0 0 0 1 16 455 229 0 114 457
 453 454 30 456 263 0 457 454 458 0 +1e-8 0 .5 0 0 0 1 16 457 231 0 111 459 455
 456 30 458 264 0 459 456 460 0 +1e-8 .23 .45 0 0 0 1 16 459 233 0 108 461 457 4
58 30 460 265 0 461 458 462 0 +1e-8 .23 .35 0 0 0 1 16 461 235 0 105 463 459 460
 30 462 266 0 463 460 464 0 +1e-8 .155 .275 0 0 0 1 16 463 237 0 102 465 461 462
 30 464 267 0 465 462 466 0 +1e-8 .13 .21 0 0 0 1 16 465 239 0 99 467 463 464 30
 466 268 0 467 464 468 0 +1e-8 .2 .135 0 0 0 1 16 467 241 0 96 469 465 466 30 46
8 269 0 469 466 344 0 +1e-8 .22 .065 0 0 0 1 16 469 243 0 93 342 467 468 30 344
 270 0 342 468 343 0 +1e-8 .195 .01 0 0 0 1 16 342 245 0 90 334 469 344 17 90 47
0 471 27 88 472 342 0 15 470 201 0 27 473 0 17 471 470 333 90 85 429 427 0 17 27
 470 90 333 25 315 307 0 17 472 474 30 475 25 90 342 0 15 474 198 0 30 476 0 17
 30 474 93 472 28 306 298 0 17 475 474 472 93 88 426 424 0 17 93 474 475 30 91 4
77 469 0 17 426 432 423 429 91 475 424 0 15 432 61 0 347 478 0 17 423 432 420 42
6 94 479 421 0 17 429 432 426 336 88 471 427 0 17 336 432 429 431 85 332 337 0 1
7 420 432 417 423 97 480 418 0 17 479 481 477 96 91 423 421 0 15 481 195 0 33 48
2 0 17 477 481 33 479 28 93 469 0 17 96 481 479 33 94 483 467 0 17 33 481 96 477
 31 297 289 0 17 483 484 36 480 31 96 467 0 15 484 192 0 36 485 0 17 36 484 99 4
83 34 288 278 0 17 480 484 483 99 94 420 418 0 17 99 484 480 36 97 486 465 0 17
 486 487 39 488 34 99 465 0 15 487 189 0 39 489 0 17 39 487 102 486 37 277 269 0
 17 488 487 486 102 97 417 415 0 17 102 487 488 39 100 490 463 0 17 417 432 414
 420 100 488 415 0 17 414 432 411 417 103 491 412 0 17 411 432 408 414 106 492 4
09 0 17 491 493 490 105 100 414 412 0 15 493 186 0 42 494 0 17 490 493 42 491 37
 102 463 0 17 105 493 491 42 103 495 461 0 17 42 493 105 490 40 268 260 0 17 495
 496 45 492 40 105 461 0 15 496 183 0 45 497 0 17 45 496 108 495 43 259 251 0 17
 492 496 495 108 103 411 409 0 17 108 496 492 45 106 498 459 0 17 498 499 48 500
 43 108 459 0 15 499 180 0 48 501 0 17 48 499 111 498 46 250 242 0 17 500 499 49
8 111 106 408 406 0 17 111 499 500 48 109 502 457 0 17 408 432 405 411 109 500 4
06 0 17 405 432 402 408 112 503 403 0 17 402 432 399 405 115 504 400 0 17 503 50
5 502 114 109 405 403 0 15 505 177 0 51 506 0 17 502 505 51 503 46 111 457 0 17
 114 505 503 51 112 507 455 0 17 51 505 114 502 49 241 233 0 17 507 508 54 504 4
9 114 455 0 15 508 174 0 54 509 0 17 54 508 117 507 52 232 224 0 17 504 508 507
 117 112 402 400 0 17 117 508 504 54 115 510 453 0 17 510 511 57 512 52 117 453
 0 15 511 171 0 57 513 0 17 57 511 120 510 55 223 213 0 17 512 511 510 120 115 3
99 397 0 17 120 511 512 57 118 514 451 0 17 399 432 396 402 118 512 397 0 17 396
 432 393 399 121 515 394 0 17 393 432 390 396 124 516 391 0 17 515 517 514 123 1
18 396 394 0 15 517 168 0 60 518 0 17 514 517 60 515 55 120 451 0 17 123 517 515
 60 121 519 449 0 17 60 517 123 514 58 212 204 0 17 519 520 63 516 58 123 449 0
 15 520 165 0 63 521 0 17 63 520 126 519 61 203 195 0 17 516 520 519 126 121 393
 391 0 17 126 520 516 63 124 522 447 0 17 522 523 66 524 61 126 447 0 15 523 162
 0 66 525 0 17 66 523 129 522 64 194 186 0 17 524 523 522 129 124 390 388 0 17 1
29 523 524 66 127 526 445 0 17 390 432 387 393 127 524 388 0 17 387 432 384 390
 130 527 385 0 17 384 432 381 387 133 528 382 0 17 527 529 526 132 127 387 385 0
 15 529 159 0 69 530 0 17 526 529 69 527 64 129 445 0 17 132 529 527 69 130 531
 439 0 17 69 529 132 526 67 185 177 0 17 531 532 72 528 67 132 439 0 15 532 156
 0 72 533 0 17 72 532 135 531 70 176 154 0 17 528 532 531 135 130 384 382 0 17 1
35 532 528 72 133 534 435 0 17 534 437 75 438 70 135 435 0 15 437 153 0 75 535 0
 17 75 437 138 534 73 150 152 0 17 438 437 534 138 133 381 348 0 17 381 432 347
 384 136 438 348 0 17 347 432 433 381 76 146 346 0 17 146 141 142 78 136 347 346
 0 17 150 11 176 143 70 75 152 0 17 176 11 185 150 67 72 154 0 17 185 11 194 176
 64 69 177 0 17 194 11 203 185 61 66 186 0 17 203 11 212 194 58 63 195 0 17 212
 11 223 203 55 60 204 0 17 223 11 232 212 52 57 213 0 17 232 11 241 223 49 54 22
4 0 17 241 11 250 232 46 51 233 0 17 250 11 259 241 43 48 242 0 17 259 11 268 25
0 40 45 251 0 17 268 11 277 259 37 42 260 0 17 277 11 288 268 34 39 269 0 17 288
 11 297 277 31 36 278 0 17 297 11 306 288 28 33 289 0 17 306 11 315 297 25 30 29
8 0 14 535 152 0 145 533 437 3 536 +14 145 149 0 478 535 141 3 537 +14 533 155 0
 535 530 532 3 538 +61 536 277 0 535 539 538 0 +18 0 539 69 539 276 0 3 537 536
 21 +540 541 61 538 278 0 533 536 542 0 +17 0 539 61 542 279 0 530 538 543 0 +16
 0 539 14 530 158 0 533 525 529 3 542 +61 543 280 0 525 542 544 0 +15 0 539 14 5
25 161 0 530 521 523 3 543 +61 544 281 0 521 543 545 0 +14 0 539 14 521 164 0 52
5 518 520 3 544 +61 545 282 0 518 544 546 0 +13 0 539 14 518 167 0 521 513 517 3
 545 +61 546 283 0 513 545 547 0 +12 0 539 14 513 170 0 518 509 511 3 546 +61 54
7 284 0 509 546 548 0 +11 0 539 14 509 173 0 513 506 508 3 547 +61 548 285 0 506
 547 549 0 +10 0 539 14 506 176 0 509 501 505 3 548 +61 549 286 0 501 548 550 0
 +9 0 539 14 501 179 0 506 497 499 3 549 +61 550 287 0 497 549 551 0 +8 0 539 14
 497 182 0 501 494 496 3 550 +61 551 288 0 494 550 552 0 +7 0 539 14 494 185 0 4
97 489 493 3 551 +61 552 289 0 489 551 553 0 +6 0 539 14 489 188 0 494 485 487 3
 552 +61 553 290 0 485 552 554 0 +5 0 539 14 485 191 0 489 482 484 3 553 +61 554
 291 0 482 553 555 0 +4 0 539 14 482 194 0 485 476 481 3 554 +61 555 292 0 476 5
54 556 0 +3 0 539 14 476 197 0 482 473 474 3 555 +61 556 293 0 473 555 557 0 +2
 0 539 14 473 200 0 476 331 470 3 556 +61 557 294 0 331 556 558 0 +1 0 539 14 33
1 203 0 473 559 329 3 557 +61 558 295 0 559 557 16 0 +0 0 539 14 559 206 0 331 1
0 338 3 558 +61 16 296 0 10 558 7 0 +20 0 539 14 10 209 0 559 4 560 3 16 +15 560
 210 0 561 10 0 17 561 560 81 147 6 151 349 0 17 81 560 434 561 79 562 156 0 17
 147 560 561 434 139 78 148 0 17 151 11 143 12 139 561 349 0 16 349 144 0 561 34
6 0 441 17 434 560 147 81 76 433 160 0 17 562 338 21 339 6 81 156 0 15 338 207 0
 21 559 0 17 21 338 84 562 15 12 5 0 17 339 338 562 84 79 431 430 0 61 537 275 0
 145 563 539 0 +19 0 539 104 21 540 3 21 1 3 2 V564 565 566 567 568 569 570 571
 572 573 574 575 576 577 578 579 580 581 582 583 584 66 541 585 586 3 23 2 3 2 5
87 44 26 585 T26 -.095238095238095 -.0476190476190476 0 .0476190476190477 .09523
80952380954 .142857142857143 .190476190476191 .2380952380952385 .285714285714286
 .3333333333333335 .3809523809523815 .428571428571429 .476190476190477 .52380952
3809524 .571428571428572 .619047619047619 .666666666666667 .714285714285715 .761
904761904762 .80952380952381 .857142857142857 .904761904761905 .952380952380952
 1 1.047619047619048 1.095238095238094 44 4 586 F4 0 0 1 1 45 138 587 1110223024
625154e-31 0 0 .09 0 0 .13 -.02 0 .17 -.01 0 .22 .03 0 .22 .1 0 .18 .17 0 .08 .2
5 0 .23 .3 0 .23 .4 0 .23 .5 0 -.23 .5 0 -.23 .4 0 -.23 .3 0 -.08 .25 0 -.18 .17
 0 -.22 .1 0 -.22 .03 0 -.17 -.01 0 -.13 -.02 0 -.09 0 0 1110223024625154e-31 0
 0 .09 0 0 1110223024625154e-31 0 2 .09 0 2 .13 -.02 2 .17 -.01 2 .22 .03 2 .22
 .1 2 .18 .17 2 .08 .25 2 .23 .3 2 .23 .4 2 .23 .5 2 -.23 .5 2 -.23 .4 2 -.23 .3
 2 -.08 .25 2 -.18 .17 2 -.22 .1 2 -.22 .03 2 -.17 -.01 2 -.13 -.02 2 -.09 0 2 1
110223024625154e-31 0 2 .09 0 2 64 18 564 .100498756211209 2 .045 0 0 .09 0 0 .1
1 -.01 0 .045 0 2 .09 0 2 .11 -.01 2 64 18 565 .0608276253029822 2 .11 -.01 0 .1
3 -.02 0 .15 -.015 0 .11 -.01 2 .13 -.02 2 .15 -.015 2 64 18 566 .07615773105863
91 2 .15 -.015 0 .17 -.01 0 .195 .01 0 .15 -.015 2 .17 -.01 2 .195 .01 2 64 18 5
67 .0948683298050514 2 .195 .01 0 .22 .03 0 .22 .065 0 .195 .01 2 .22 .03 2 .22
 .065 2 64 18 568 .106770782520313 2 .22 .065 0 .22 .1 0 .2 .135 0 .22 .065 2 .2
2 .1 2 .2 .135 2 64 18 569 .1513274595042155 2 .2 .135 0 .18 .17 0 .13 .21 0 .2
 .135 2 .18 .17 2 .13 .21 2 105 570 .4474949687577425 U588 589 .1719687078392495
 2 64 18 571 .187082869338697 2 .155 .275 0 .23 .3 0 .23 .35 0 .155 .275 2 .23 .
3 2 .23 .35 2 64 18 572 .1414213562373094 2 .23 .35 0 .23 .4 0 .23 .45 0 .23 .35
 2 .23 .4 2 .23 .45 2 64 18 573 .470744091837593 2 .23 .45 0 .23 .5 0 0 .5 0 .23
 .45 2 .23 .5 2 0 .5 2 64 18 574 .470744091837593 2 0 .5 0 -.23 .5 0 -.23 .45 0
 0 .5 2 -.23 .5 2 -.23 .45 2 64 18 575 .1414213562373094 2 -.23 .45 0 -.23 .4 0
 -.23 .35 0 -.23 .45 2 -.23 .4 2 -.23 .35 2 64 18 576 .187082869338697 2 -.23 .3
5 0 -.23 .3 0 -.155 .275 0 -.23 .35 2 -.23 .3 2 -.155 .275 2 105 577 .5525050312
42258 U590 591 .1719687078392495 2 64 18 578 .1513274595042155 2 -.13 .21 0 -.18
 .17 0 -.2 .135 0 -.13 .21 2 -.18 .17 2 -.2 .135 2 64 18 579 .106770782520313 2
 -.2 .135 0 -.22 .1 0 -.22 .065 0 -.2 .135 2 -.22 .1 2 -.22 .065 2 64 18 580 .09
48683298050514 2 -.22 .065 0 -.22 .03 0 -.195 .01 0 -.22 .065 2 -.22 .03 2 -.195
 .01 2 64 18 581 .0761577310586391 2 -.195 .01 0 -.17 -.01 0 -.15 -.015 0 -.195
 .01 2 -.17 -.01 2 -.15 -.015 2 64 18 582 .0608276253029822 2 -.15 -.015 0 -.13
 -.02 0 -.11 -.01 0 -.15 -.015 2 -.13 -.02 2 -.11 -.01 2 64 18 583 .100498756211
209 2 -.11 -.01 0 -.09 0 0 -.045 0 0 -.11 -.01 2 -.09 0 2 -.045 0 2 64 18 584 .1
272792206135786 2 -.045 0 0 0 0 0 .045 0 0 -.045 0 2 0 0 2 .045 0 2 64 18 590 .0
950135762974152 2 -.155 .275 0 -.1135621226568306 .2611873742189435 0 -.11028197
15071624 .242795821294667 0 -.155 .275 2 -.1135621226568306 .2611873742189435 2
 -.1102819715071624 .242795821294667 2 64 18 591 .0648068456713871 2 -.110281971
5071624 .242795821294667 0 -.107625251562113 .22789979875031 0 -.13 .21 0 -.1102
819715071624 .242795821294667 2 -.107625251562113 .22789979875031 2 -.13 .21 2 6
4 18 588 .064806845671387 2 .13 .21 0 .107625251562113 .22789979875031 0 .110281
9715071624 .242795821294667 0 .13 .21 2 .107625251562113 .22789979875031 2 .1102
819715071624 .242795821294667 2 64 18 589 .0950135762974153 2 .1102819715071624
 .242795821294667 0 .1135621226568306 .2611873742189435 0 .155 .275 0 .110281971
5071624 .242795821294667 2 .1135621226568306 .2611873742189435 2 .155 .275 2 50
 563 148 0 478 0 537 0 +0 0 2 0 0 1 1 0 0 14 478 147 0 0 145 432 3 563 +17 333 4
70 27 471 22 87 334 0 48 442 67 0 3 0 441 1 +1e-8 592 593 103 21 592 3 21 3 V594
 595 596 597 598 599 600 601 602 603 604 605 606 607 608 609 610 611 612 613 614
 43 593 615 3 23 3 616 44 26 615 T26 -2 -1 0 1 2 3 4 5 6 7 8 9 10 11 12 13 14 15
 16 17 18 19 20 21 22 23 45 69 616 0 0 0 .09 0 0 .13 -.02 0 .17 -.01 0 .22 .03 0
 .22 .1 0 .18 .17 0 .08 .25 0 .23 .3 0 .23 .4 0 .23 .5 0 -.23 .5 0 -.23 .4 0 -.2
3 .3 0 -.08 .25 0 -.18 .17 0 -.22 .1 0 -.22 .03 0 -.17 -.01 0 -.13 -.02 0 -.09 0
 0 0 0 0 .09 0 0 42 9 594 .100498756211209 .045 0 0 .09 0 0 .11 -.01 0 42 9 595
 .0608276253029822 .11 -.01 0 .13 -.02 0 .15 -.015 0 42 9 596 .0761577310586391
 .15 -.015 0 .17 -.01 0 .195 .01 0 42 9 597 .0948683298050514 .195 .01 0 .22 .03
 0 .22 .065 0 42 9 598 .106770782520313 .22 .065 0 .22 .1 0 .2 .135 0 42 9 599 .
1513274595042155 .2 .135 0 .18 .17 0 .13 .21 0 47 600 .447494968757743 617 618 .
0950135762974152 42 9 601 .187082869338697 .155 .275 0 .23 .3 0 .23 .35 0 42 9 6
02 .1414213562373094 .23 .35 0 .23 .4 0 .23 .45 0 42 9 603 .470744091837593 .23
 .45 0 .23 .5 0 0 .5 0 42 9 604 .470744091837593 0 .5 0 -.23 .5 0 -.23 .45 0 42
 9 605 .1414213562373094 -.23 .45 0 -.23 .4 0 -.23 .35 0 42 9 606 .1870828693386
97 -.23 .35 0 -.23 .3 0 -.155 .275 0 47 607 .552505031242258 619 620 .0950135762
974152 42 9 608 .1513274595042155 -.13 .21 0 -.18 .17 0 -.2 .135 0 42 9 609 .106
770782520313 -.2 .135 0 -.22 .1 0 -.22 .065 0 42 9 610 .0948683298050514 -.22 .0
65 0 -.22 .03 0 -.195 .01 0 42 9 611 .0761577310586391 -.195 .01 0 -.17 -.01 0 -
.15 -.015 0 42 9 612 .0608276253029822 -.15 -.015 0 -.13 -.02 0 -.11 -.01 0 42 9
 613 .100498756211209 -.11 -.01 0 -.09 0 0 -.045 0 0 42 9 614 .1272792206135786
 -.045 0 0 0 0 0 .045 0 0 42 9 619 .0950135762974152 -.155 .275 0 -.113562122656
8306 .2611873742189435 0 -.1102819715071624 .242795821294667 0 42 9 620 .0648068
456713871 -.1102819715071624 .242795821294667 0 -.107625251562113 .2278997987503
095 0 -.13 .21 0 42 9 617 .0648068456713872 .13 .21 0 .107625251562113 .22789979
87503095 0 .1102819715071624 .242795821294667 0 42 9 618 .0950135762974152 .1102
819715071624 .242795821294667 0 .1135621226568306 .2611873742189435 0 .155 .275
 0 103 1 17 3 1 3 V621 43 18 622 3 3 3 623 44 6 622 F6 0 0 0 1 1 1 45 9 623 .045
 0 0 .09 0 0 .11 -.01 0 42 9 621 .100498756211209 .045 0 0 .09 0 0 .11 -.01 0 1
 0 
