600 0 1 0           
98 GICL Pro/E ACIS Translator - Source: f:/data5/repository/PTC/V18/mfgintro18/fixture/base.prt - 6 0 13 ACIS 6.0.3 NT 24 Thu Apr 04 10:00:31 2002 
1 9.9999999999999995e-007 1e-010 
body $-1 $1 $-1 $2 #
lump $-1 $-1 $3 $0 #
transform $-1 1 0 0 0 1 0 0 0 1 0 0 0 25.399999999999999 no_rotate no_reflect no_shear #
shell $-1 $-1 $-1 $4 $-1 $1 #
face $-1 $5 $6 $3 $-1 $7 reversed single #
face $-1 $8 $9 $3 $-1 $10 reversed single #
loop $-1 $11 $12 $4 #
plane-surface $-1 0 0 0 0 1 0 -1 0 0 forward_v I I I I #
face $-1 $13 $14 $3 $-1 $15 reversed single #
loop $-1 $-1 $16 $5 #
cone-surface $-1 -10 2.1237500000000002 5.25 0 1 0 -0.32800000000000001 0 0 1 I I 0 1 0.32800000000000001 forward I I I I #
loop $-1 $17 $18 $4 #
coedge $-1 $19 $19 $20 $21 forward $6 $-1 #
face $-1 $22 $23 $3 $-1 $24 reversed single #
loop $-1 $-1 $25 $8 #
cone-surface $-1 -10 2.1237500000000002 5.25 0 1 0 -0.32800000000000001 0 0 1 I I 0 1 0.32800000000000001 forward I I I I #
coedge $-1 $26 $20 $27 $28 reversed $9 $-1 #
loop $-1 $29 $30 $4 #
coedge $-1 $31 $31 $32 $33 forward $11 $-1 #
coedge $-1 $12 $12 $34 $35 forward $6 $-1 #
coedge $-1 $16 $36 $12 $21 reversed $9 $-1 #
edge $-1 $37 0 $38 3.1415926535897931 $12 $39 forward 7 unknown #
face $-1 $40 $41 $3 $-1 $42 forward single #
loop $-1 $-1 $43 $13 #
cone-surface $-1 -10 2.0283084967925218 5.25 0 -1 0 -0.57735026918962595 0 0 1 I I -0.50000000000000011 0.8660254037844386 0.57735026918962595 forward I I I I #
coedge $-1 $44 $34 $36 $45 reversed $14 $-1 #
coedge $-1 $36 $16 $46 $47 reversed $9 $-1 #
coedge $-1 $34 $44 $16 $28 forward $14 $-1 #
edge $-1 $48 0 $37 1.5964211616751138 $27 $49 forward 7 unknown #
loop $-1 $50 $51 $4 #
coedge $-1 $52 $52 $53 $54 reversed $17 $-1 #
coedge $-1 $18 $18 $55 $56 forward $11 $-1 #
coedge $-1 $57 $58 $18 $33 reversed $59 $-1 #
edge $-1 $60 0 $61 3.1415926535897931 $18 $62 forward 7 unknown #
coedge $-1 $25 $27 $19 $35 reversed $14 $-1 #
edge $-1 $38 0 $37 3.1415926535897931 $19 $63 forward 7 unknown #
coedge $-1 $20 $26 $25 $45 forward $9 $-1 #
vertex $-1 $35 $64 #
vertex $-1 $35 $65 #
ellipse-curve $-1 -10 0 5.25 0 1 0 0.3279999999999994 0 0 1 I I #
face $-1 $66 $67 $3 $-1 $68 reversed single #
loop $-1 $69 $70 $22 #
plane-surface $-1 -10 1.625 5.25 0 1 0 -1 0 0 forward_v I I I I #
coedge $-1 $71 $72 $73 $74 forward $23 $-1 #
coedge $-1 $27 $25 $75 $76 forward $14 $-1 #
edge $-1 $77 4.4408920985006262e-016 $38 1.5964211616751138 $25 $78 forward 7 unknown #
coedge $-1 $79 $80 $26 $47 forward $67 $-1 #
edge $-1 $77 0 $48 3.1415926535897984 $46 $81 forward 7 unknown #
vertex $-1 $76 $82 #
straight-curve $-1 -9.6720000000000006 1.5964211616751138 5.25 0 -1 0 I I #
loop $-1 $83 $84 $4 #
coedge $-1 $85 $85 $86 $87 reversed $29 $-1 #
coedge $-1 $30 $30 $88 $89 reversed $17 $-1 #
coedge $-1 $90 $91 $30 $54 forward $92 $-1 #
edge $-1 $93 0 $94 3.1415926535897931 $30 $95 forward 7 unknown #
coedge $-1 $96 $97 $31 $56 reversed $98 $-1 #
edge $-1 $61 0 $60 3.1415926535897931 $31 $99 forward 7 unknown #
coedge $-1 $100 $32 $97 $101 reversed $59 $-1 #
coedge $-1 $32 $100 $96 $102 forward $59 $-1 #
loop $-1 $-1 $57 $103 #
vertex $-1 $56 $104 #
vertex $-1 $56 $105 #
ellipse-curve $-1 0 0 5.25 0 1 0 0.3279999999999994 0 0 1 I I #
ellipse-curve $-1 -10 0 5.25 0 1 0 -0.3279999999999994 0 0 1 I I #
point $-1 -9.6720000000000006 0 5.25 #
point $-1 -10.327999999999999 0 5.25 #
face $-1 $106 $107 $3 $-1 $108 reversed single #
loop $-1 $-1 $46 $40 #
cone-surface $-1 -10 2.0283084967925218 5.25 0 -1 0 -0.57735026918962595 0 0 1 I I -0.50000000000000011 0.8660254037844386 0.57735026918962595 forward I I I I #
loop $-1 $-1 $109 $22 #
coedge $-1 $73 $73 $110 $111 forward $41 $-1 #
coedge $-1 $75 $43 $79 $112 forward $23 $-1 #
coedge $-1 $43 $75 $80 $113 reversed $23 $-1 #
coedge $-1 $70 $70 $43 $74 reversed $41 $-1 #
edge $-1 $114 0 $115 3.1415926535897931 $73 $116 forward 7 unknown #
coedge $-1 $72 $71 $44 $76 reversed $23 $-1 #
edge $-1 $77 0 $48 3.1415926535897984 $75 $117 forward 7 unknown #
vertex $-1 $113 $118 #
straight-curve $-1 -10.327999999999999 1.5964211616751138 5.25 0 -1 0 I I #
coedge $-1 $110 $46 $71 $112 reversed $67 $-1 #
coedge $-1 $46 $110 $72 $113 forward $67 $-1 #
ellipse-curve $-1 -10 1.5964211616751138 5.2499999999999991 0 -1 0 -0.3279999999999994 0 8.8817841970012523e-016 1 I I #
point $-1 -9.6720000000000006 1.5964211616751138 5.25 #
loop $-1 $119 $120 $4 #
coedge $-1 $121 $121 $122 $123 reversed $50 $-1 #
coedge $-1 $51 $51 $124 $125 reversed $29 $-1 #
coedge $-1 $126 $127 $51 $87 forward $128 $-1 #
edge $-1 $129 0 $130 3.1415926535897931 $51 $131 forward 7 unknown #
coedge $-1 $132 $133 $52 $89 forward $134 $-1 #
edge $-1 $94 0 $93 3.1415926535897931 $52 $135 forward 7 unknown #
coedge $-1 $136 $53 $133 $137 reversed $92 $-1 #
coedge $-1 $53 $136 $132 $138 forward $92 $-1 #
loop $-1 $-1 $90 $139 #
vertex $-1 $89 $140 #
vertex $-1 $89 $141 #
ellipse-curve $-1 -10 0 -5.25 0 -1 0 0.3279999999999994 0 0 1 I I #
coedge $-1 $142 $55 $58 $102 reversed $98 $-1 #
coedge $-1 $55 $142 $57 $101 forward $98 $-1 #
loop $-1 $-1 $96 $143 #
ellipse-curve $-1 0 0 5.25 0 1 0 -0.3279999999999994 0 0 1 I I #
coedge $-1 $58 $57 $144 $145 reversed $59 $-1 #
edge $-1 $146 0 $60 1.5964211616751138 $97 $147 forward 7 unknown #
edge $-1 $148 4.4408920985006262e-016 $61 1.5964211616751138 $96 $149 forward 7 unknown #
face $-1 $143 $59 $3 $-1 $150 reversed single #
point $-1 0.3279999999999994 0 5.25 #
point $-1 -0.3279999999999994 0 5.25 #
face $-1 $151 $152 $3 $-1 $153 reversed single #
loop $-1 $-1 $154 $66 #
cone-surface $-1 -10 2.1237500000000002 5.25 0 1 0 -0.5 0 0 1 I I 0 1 0.5 forward I I I I #
coedge $-1 $155 $155 $156 $157 forward $69 $-1 #
coedge $-1 $80 $79 $70 $111 reversed $67 $-1 #
edge $-1 $114 0 $115 3.1415926535897931 $70 $158 forward 7 unknown #
edge $-1 $115 0 $48 0.032999999999999856 $71 $159 forward 7 unknown #
edge $-1 $114 0 $77 0.033000000000000237 $72 $160 forward 7 unknown #
vertex $-1 $74 $161 #
vertex $-1 $74 $162 #
ellipse-curve $-1 -10 1.625 5.25 -6.4454166886801538e-016 1 0 -0.34450000000000003 -2.2204460492503131e-016 0 1 I I #
ellipse-curve $-1 -10 1.5964211616751138 5.2500000000000009 0 1 0 -0.3279999999999994 0 -8.8817841970012523e-016 1 I I #
point $-1 -10.327999999999999 1.5964211616751134 5.25 #
loop $-1 $-1 $163 $4 #
coedge $-1 $164 $164 $165 $166 forward $83 $-1 #
coedge $-1 $84 $84 $167 $168 reversed $50 $-1 #
coedge $-1 $169 $170 $84 $123 forward $171 $-1 #
edge $-1 $172 0 $173 3.1415926535897931 $84 $174 forward 7 unknown #
coedge $-1 $175 $176 $85 $125 forward $177 $-1 #
edge $-1 $130 0 $129 3.1415926535897931 $85 $178 forward 7 unknown #
coedge $-1 $179 $86 $176 $180 reversed $128 $-1 #
coedge $-1 $86 $179 $175 $181 forward $128 $-1 #
loop $-1 $-1 $126 $182 #
vertex $-1 $125 $183 #
vertex $-1 $125 $184 #
ellipse-curve $-1 0 0 -5.25 0 -1 0 0.3279999999999994 0 0 1 I I #
coedge $-1 $185 $88 $91 $138 reversed $134 $-1 #
coedge $-1 $88 $185 $90 $137 forward $134 $-1 #
loop $-1 $-1 $132 $186 #
ellipse-curve $-1 -10 0 -5.25 0 -1 0 -0.3279999999999994 0 0 1 I I #
coedge $-1 $91 $90 $187 $188 forward $92 $-1 #
edge $-1 $189 4.4408920985006262e-016 $94 1.5964211616751138 $133 $190 forward 7 unknown #
edge $-1 $191 0 $93 1.5964211616751138 $132 $192 forward 7 unknown #
face $-1 $193 $92 $3 $-1 $194 reversed single #
point $-1 -9.6720000000000006 0 -5.25 #
point $-1 -10.327999999999999 0 -5.25 #
coedge $-1 $97 $96 $195 $196 forward $98 $-1 #
face $-1 $197 $98 $3 $-1 $198 reversed single #
coedge $-1 $199 $200 $100 $145 forward $201 $-1 #
edge $-1 $148 0 $146 3.1415926535897984 $144 $202 forward 7 unknown #
vertex $-1 $196 $203 #
straight-curve $-1 0.32800000000000001 1.5964211616751138 5.25 0 -1 0 I I #
vertex $-1 $204 $205 #
straight-curve $-1 -0.32800000000000001 1.5964211616751138 5.25 0 -1 0 I I #
cone-surface $-1 0 2.1237500000000002 5.25 0 1 0 -0.32800000000000001 0 0 1 I I 0 1 0.32800000000000001 forward I I I I #
face $-1 $206 $207 $3 $-1 $208 forward single #
loop $-1 $-1 $209 $106 #
cone-surface $-1 -10 2.1237500000000002 5.25 0 1 0 -0.5 0 0 1 I I 0 1 0.5 forward I I I I #
coedge $-1 $156 $210 $211 $212 forward $107 $-1 #
coedge $-1 $109 $109 $213 $214 reversed $69 $-1 #
coedge $-1 $215 $154 $109 $157 reversed $107 $-1 #
edge $-1 $216 0 $217 3.1415926535897931 $156 $218 forward 7 unknown #
ellipse-curve $-1 -10 1.625 5.25 6.4454166886801538e-016 -1 0 -0.34450000000000003 -2.2204460492503131e-016 0 1 I I #
straight-curve $-1 -9.6555 1.6249999999999998 5.25 -0.50000000000001532 -0.86602540378442983 0 I I #
straight-curve $-1 -10.3445 1.6249999999999998 5.25 0.50000000000001532 -0.86602540378442983 0 I I #
point $-1 -10.3445 1.6249999999999998 5.25 #
point $-1 -9.6555 1.6249999999999998 5.25 #
coedge $-1 $219 $220 $221 $222 reversed $119 $-1 #
coedge $-1 $120 $120 $223 $224 forward $83 $-1 #
coedge $-1 $225 $226 $120 $166 reversed $227 $-1 #
edge $-1 $228 0 $229 3.1415926535897931 $120 $230 forward 7 unknown #
coedge $-1 $231 $232 $121 $168 forward $233 $-1 #
edge $-1 $173 0 $172 3.1415926535897931 $121 $234 forward 7 unknown #
coedge $-1 $235 $122 $232 $236 reversed $171 $-1 #
coedge $-1 $122 $235 $231 $237 forward $171 $-1 #
loop $-1 $-1 $169 $238 #
vertex $-1 $168 $239 #
vertex $-1 $168 $240 #
ellipse-curve $-1 10 0 -5.25 0 -1 0 0.3279999999999994 0 0 1 I I #
coedge $-1 $241 $124 $127 $181 reversed $177 $-1 #
coedge $-1 $124 $241 $126 $180 forward $177 $-1 #
loop $-1 $-1 $175 $242 #
ellipse-curve $-1 0 0 -5.25 0 -1 0 -0.3279999999999994 0 0 1 I I #
coedge $-1 $127 $126 $243 $244 forward $128 $-1 #
edge $-1 $245 4.4408920985006262e-016 $130 1.5964211616751138 $176 $246 forward 7 unknown #
edge $-1 $247 0 $129 1.5964211616751138 $175 $248 forward 7 unknown #
face $-1 $249 $128 $3 $-1 $250 reversed single #
point $-1 0.3279999999999994 0 -5.25 #
point $-1 -0.3279999999999994 0 -5.25 #
coedge $-1 $133 $132 $251 $252 reversed $134 $-1 #
face $-1 $139 $134 $3 $-1 $253 reversed single #
coedge $-1 $254 $255 $136 $188 reversed $256 $-1 #
edge $-1 $189 0 $191 3.1415926535897984 $187 $257 forward 7 unknown #
vertex $-1 $258 $259 #
straight-curve $-1 -10.327999999999999 1.5964211616751138 -5.25 0 -1 0 I I #
vertex $-1 $260 $261 #
straight-curve $-1 -9.6720000000000006 1.5964211616751138 -5.25 0 -1 0 I I #
face $-1 $262 $263 $3 $-1 $264 reversed single #
cone-surface $-1 -10 2.1237500000000002 -5.25 0 -1 0 -0.32800000000000001 0 0 1 I I 0 1 0.32800000000000001 forward I I I I #
coedge $-1 $265 $266 $142 $196 reversed $267 $-1 #
edge $-1 $148 0 $146 3.1415926535897984 $195 $268 forward 7 unknown #
face $-1 $269 $267 $3 $-1 $270 reversed single #
cone-surface $-1 0 2.1237500000000002 5.25 0 1 0 -0.32800000000000001 0 0 1 I I 0 1 0.32800000000000001 forward I I I I #
coedge $-1 $271 $144 $266 $272 reversed $201 $-1 #
coedge $-1 $144 $271 $265 $204 forward $201 $-1 #
loop $-1 $-1 $144 $273 #
ellipse-curve $-1 0 1.5964211616751138 5.2499999999999991 0 -1 0 -0.32800000000000001 0 8.8817841970012523e-016 1 I I #
point $-1 0.32800000000000001 1.5964211616751138 5.25 #
edge $-1 $274 0 $148 0.032999999999999904 $265 $275 forward 7 unknown #
point $-1 -0.32800000000000001 1.5964211616751134 5.25 #
face $-1 $276 $277 $3 $-1 $278 reversed single #
loop $-1 $279 $280 $151 #
plane-surface $-1 0 2 0 0 1 0 -1 0 0 forward_v I I I I #
coedge $-1 $213 $281 $215 $282 forward $152 $-1 #
coedge $-1 $154 $215 $283 $284 forward $107 $-1 #
coedge $-1 $281 $213 $154 $212 reversed $152 $-1 #
edge $-1 $285 0 $217 0.375 $154 $286 forward 7 unknown #
coedge $-1 $211 $209 $155 $214 forward $152 $-1 #
edge $-1 $216 0 $217 3.1415926535897931 $155 $287 forward 7 unknown #
coedge $-1 $210 $156 $209 $282 reversed $107 $-1 #
vertex $-1 $282 $288 #
vertex $-1 $157 $289 #
ellipse-curve $-1 -10 1.625 5.25 0 1 0 -0.5 0 0 1 I I #
coedge $-1 $290 $163 $291 $292 reversed $119 $-1 #
coedge $-1 $163 $293 $294 $295 reversed $119 $-1 #
coedge $-1 $296 $297 $163 $222 forward $298 $-1 #
edge $-1 $299 0 $300 17.799999999999997 $163 $301 forward 7 unknown #
coedge $-1 $302 $303 $164 $224 reversed $304 $-1 #
edge $-1 $229 0 $228 3.1415926535897931 $164 $305 forward 7 unknown #
coedge $-1 $306 $165 $303 $307 reversed $227 $-1 #
coedge $-1 $165 $306 $302 $308 forward $227 $-1 #
loop $-1 $-1 $225 $309 #
vertex $-1 $224 $310 #
vertex $-1 $224 $311 #
ellipse-curve $-1 10 0 5.25 0 1 0 0.3279999999999994 0 0 1 I I #
coedge $-1 $312 $167 $170 $237 reversed $233 $-1 #
coedge $-1 $167 $312 $169 $236 forward $233 $-1 #
loop $-1 $-1 $231 $313 #
ellipse-curve $-1 10 0 -5.25 0 -1 0 -0.3279999999999994 0 0 1 I I #
coedge $-1 $170 $169 $314 $315 forward $171 $-1 #
edge $-1 $316 4.4408920985006262e-016 $173 1.5964211616751138 $232 $317 forward 7 unknown #
edge $-1 $318 0 $172 1.5964211616751138 $231 $319 forward 7 unknown #
face $-1 $320 $171 $3 $-1 $321 reversed single #
point $-1 10.327999999999999 0 -5.25 #
point $-1 9.6720000000000006 0 -5.25 #
coedge $-1 $176 $175 $322 $323 reversed $177 $-1 #
face $-1 $182 $177 $3 $-1 $324 reversed single #
coedge $-1 $325 $326 $179 $244 reversed $327 $-1 #
edge $-1 $245 0 $247 3.1415926535897984 $243 $328 forward 7 unknown #
vertex $-1 $329 $330 #
straight-curve $-1 -0.32800000000000001 1.5964211616751138 -5.25 0 -1 0 I I #
vertex $-1 $331 $332 #
straight-curve $-1 0.32800000000000001 1.5964211616751138 -5.25 0 -1 0 I I #
face $-1 $333 $334 $3 $-1 $335 reversed single #
cone-surface $-1 0 2.1237500000000002 -5.25 0 -1 0 -0.32800000000000001 0 0 1 I I 0 1 0.32800000000000001 forward I I I I #
coedge $-1 $336 $337 $185 $252 forward $338 $-1 #
edge $-1 $189 0 $191 3.1415926535897984 $251 $339 forward 7 unknown #
cone-surface $-1 -10 2.1237500000000002 -5.25 0 -1 0 -0.32800000000000001 0 0 1 I I 0 1 0.32800000000000001 forward I I I I #
coedge $-1 $340 $187 $337 $258 reversed $256 $-1 #
coedge $-1 $187 $340 $336 $260 forward $256 $-1 #
loop $-1 $-1 $340 $341 #
ellipse-curve $-1 -10 1.5964211616751138 -5.2499999999999991 0 1 0 -0.3279999999999994 0 -8.8817841970012523e-016 1 I I #
edge $-1 $342 0 $189 0.033000000000000237 $337 $343 forward 7 unknown #
point $-1 -10.327999999999999 1.5964211616751134 -5.25 #
edge $-1 $344 0 $191 0.032999999999999856 $336 $345 forward 7 unknown #
point $-1 -9.6720000000000006 1.5964211616751138 -5.25 #
face $-1 $346 $347 $3 $-1 $348 reversed single #
loop $-1 $-1 $349 $193 #
cone-surface $-1 0 2.1237500000000002 -5.25 0 -1 0 -0.5 0 0 1 I I 0 1 0.5 forward I I I I #
coedge $-1 $350 $195 $200 $204 reversed $267 $-1 #
coedge $-1 $195 $350 $199 $272 forward $267 $-1 #
loop $-1 $-1 $350 $197 #
ellipse-curve $-1 0 1.5964211616751138 5.2500000000000009 0 1 0 -0.32800000000000001 0 -8.8817841970012523e-016 1 I I #
face $-1 $351 $352 $3 $-1 $353 reversed single #
cone-surface $-1 0 2.0283084967925218 5.25 0 -1 0 -0.57735026918962595 0 0 1 I I -0.50000000000000011 0.8660254037844386 0.57735026918962595 forward I I I I #
coedge $-1 $200 $199 $354 $355 reversed $201 $-1 #
edge $-1 $356 0 $146 0.032999999999999523 $266 $357 forward 7 unknown #
face $-1 $103 $201 $3 $-1 $358 reversed single #
vertex $-1 $359 $360 #
straight-curve $-1 -0.34449999999999997 1.6249999999999998 5.25 0.50000000000000022 -0.8660254037844386 0 I I #
face $-1 $361 $362 $3 $-1 $363 reversed single #
loop $-1 $-1 $364 $206 #
cone-surface $-1 0 2.1237500000000002 5.25 0 1 0 -0.5 0 0 1 I I 0 1 0.5 forward I I I I #
loop $-1 $365 $366 $151 #
coedge $-1 $283 $283 $281 $367 reversed $207 $-1 #
coedge $-1 $209 $211 $280 $367 forward $152 $-1 #
edge $-1 $368 0 $216 0.375 $215 $369 forward 7 unknown #
coedge $-1 $280 $280 $210 $284 reversed $207 $-1 #
edge $-1 $368 0 $285 3.1415926535897931 $283 $370 forward 7 unknown #
vertex $-1 $284 $371 #
straight-curve $-1 -9.5 2 5.25 0 -1 0 I I #
ellipse-curve $-1 -10 1.625 5.25 0 -1 0 -0.5 0 0 1 I I #
point $-1 -10.5 1.625 5.25 #
point $-1 -9.5 1.625 5.25 #
coedge $-1 $372 $219 $373 $374 reversed $119 $-1 #
coedge $-1 $375 $376 $219 $292 forward $377 $-1 #
edge $-1 $378 3.1401849173675508e-016 $299 4.9520102100056329 $219 $379 forward 7 unknown #
coedge $-1 $220 $380 $381 $382 reversed $119 $-1 #
coedge $-1 $383 $384 $220 $295 forward $385 $-1 #
edge $-1 $300 0 $386 4.9520102100056347 $220 $387 forward 7 unknown #
coedge $-1 $388 $221 $384 $389 forward $298 $-1 #
coedge $-1 $221 $388 $375 $390 reversed $298 $-1 #
loop $-1 $-1 $388 $391 #
vertex $-1 $292 $392 #
vertex $-1 $295 $393 #
straight-curve $-1 8.8999999999999986 0 -7.5 -1 0 0 I I #
coedge $-1 $394 $223 $226 $308 reversed $304 $-1 #
coedge $-1 $223 $394 $225 $307 forward $304 $-1 #
loop $-1 $-1 $302 $395 #
ellipse-curve $-1 10 0 5.25 0 1 0 -0.3279999999999994 0 0 1 I I #
coedge $-1 $226 $225 $396 $397 reversed $227 $-1 #
edge $-1 $398 0 $228 1.5964211616751138 $303 $399 forward 7 unknown #
edge $-1 $400 4.4408920985006262e-016 $229 1.5964211616751138 $302 $401 forward 7 unknown #
face $-1 $395 $227 $3 $-1 $402 reversed single #
point $-1 10.327999999999999 0 5.25 #
point $-1 9.6720000000000006 0 5.25 #
coedge $-1 $232 $231 $403 $404 reversed $233 $-1 #
face $-1 $238 $233 $3 $-1 $405 reversed single #
coedge $-1 $406 $407 $235 $315 reversed $408 $-1 #
edge $-1 $316 0 $318 3.1415926535897984 $314 $409 forward 7 unknown #
vertex $-1 $410 $411 #
straight-curve $-1 9.6720000000000006 1.5964211616751138 -5.25 0 -1 0 I I #
vertex $-1 $412 $413 #
straight-curve $-1 10.327999999999999 1.5964211616751138 -5.25 0 -1 0 I I #
face $-1 $414 $415 $3 $-1 $416 reversed single #
cone-surface $-1 10 2.1237500000000002 -5.25 0 -1 0 -0.32800000000000001 0 0 1 I I 0 1 0.32800000000000001 forward I I I I #
coedge $-1 $417 $418 $241 $323 forward $419 $-1 #
edge $-1 $245 0 $247 3.1415926535897984 $322 $420 forward 7 unknown #
cone-surface $-1 0 2.1237500000000002 -5.25 0 -1 0 -0.32800000000000001 0 0 1 I I 0 1 0.32800000000000001 forward I I I I #
coedge $-1 $421 $243 $418 $329 reversed $327 $-1 #
coedge $-1 $243 $421 $417 $331 forward $327 $-1 #
loop $-1 $-1 $421 $422 #
ellipse-curve $-1 0 1.5964211616751138 -5.2499999999999991 0 1 0 -0.32800000000000001 0 -8.8817841970012523e-016 1 I I #
edge $-1 $423 0 $245 0.032999999999999904 $418 $424 forward 7 unknown #
point $-1 -0.32800000000000001 1.5964211616751134 -5.25 #
edge $-1 $425 0 $247 0.032999999999999523 $417 $426 forward 7 unknown #
point $-1 0.32800000000000001 1.5964211616751138 -5.25 #
face $-1 $427 $428 $3 $-1 $429 reversed single #
loop $-1 $-1 $430 $249 #
cone-surface $-1 10 2.1237500000000002 -5.25 0 -1 0 -0.5 0 0 1 I I 0 1 0.5 forward I I I I #
coedge $-1 $431 $251 $255 $260 reversed $338 $-1 #
coedge $-1 $251 $431 $254 $258 forward $338 $-1 #
loop $-1 $-1 $251 $432 #
ellipse-curve $-1 -10 1.5964211616751138 -5.2500000000000009 0 -1 0 -0.3279999999999994 0 8.8817841970012523e-016 1 I I #
coedge $-1 $255 $254 $433 $434 forward $256 $-1 #
face $-1 $432 $256 $3 $-1 $435 reversed single #
vertex $-1 $436 $437 #
straight-curve $-1 -10.3445 1.6249999999999998 -5.25 0.50000000000001532 -0.86602540378442983 0 I I #
vertex $-1 $436 $438 #
straight-curve $-1 -9.6555 1.6249999999999998 -5.25 -0.50000000000001532 -0.86602540378442983 0 I I #
face $-1 $422 $439 $3 $-1 $440 reversed single #
loop $-1 $-1 $441 $262 #
cone-surface $-1 0 2.1237500000000002 -5.25 0 -1 0 -0.5 0 0 1 I I 0 1 0.5 forward I I I I #
coedge $-1 $442 $443 $444 $445 forward $263 $-1 #
coedge $-1 $266 $265 $446 $359 forward $267 $-1 #
face $-1 $447 $448 $3 $-1 $449 reversed single #
loop $-1 $-1 $450 $269 #
cone-surface $-1 -10 2.1237500000000002 -5.25 0 -1 0 -0.5 0 0 1 I I 0 1 0.5 forward I I I I #
coedge $-1 $446 $446 $271 $355 forward $451 $-1 #
edge $-1 $274 0 $356 3.1415926535897931 $354 $452 forward 7 unknown #
vertex $-1 $359 $453 #
straight-curve $-1 0.34449999999999997 1.6249999999999998 5.25 -0.50000000000000022 -0.8660254037844386 0 I I #
cone-surface $-1 0 2.0283084967925218 5.25 0 -1 0 -0.57735026918962595 0 0 1 I I -0.50000000000000011 0.8660254037844386 0.57735026918962595 forward I I I I #
edge $-1 $274 0 $356 3.1415926535897931 $446 $454 forward 7 unknown #
point $-1 -0.34449999999999997 1.6249999999999998 5.25 #
face $-1 $273 $451 $3 $-1 $455 forward single #
loop $-1 $-1 $456 $276 #
cone-surface $-1 0 2.1237500000000002 5.25 0 1 0 -0.5 0 0 1 I I 0 1 0.5 forward I I I I #
coedge $-1 $457 $458 $459 $460 forward $277 $-1 #
loop $-1 $461 $462 $151 #
coedge $-1 $463 $463 $458 $464 reversed $279 $-1 #
edge $-1 $285 0 $368 3.1415926535897931 $280 $465 forward 7 unknown #
vertex $-1 $284 $466 #
straight-curve $-1 -10.5 2 5.25 0 -1 0 I I #
ellipse-curve $-1 -10 2 5.25 0 1 0 -0.5 0 0 1 I I #
point $-1 -9.5 2 5.25 #
coedge $-1 $467 $290 $468 $469 reversed $119 $-1 #
coedge $-1 $470 $471 $290 $374 forward $472 $-1 #
edge $-1 $473 0 $378 7.996799999999995 $290 $474 forward 7 unknown #
coedge $-1 $475 $291 $297 $390 forward $377 $-1 #
coedge $-1 $291 $475 $470 $476 reversed $377 $-1 #
loop $-1 $-1 $376 $477 #
vertex $-1 $374 $478 #
straight-curve $-1 12.4016 0 -3.9983999999999984 -0.70710678118654746 0 -0.70710678118654746 I I #
coedge $-1 $293 $467 $479 $480 reversed $119 $-1 #
coedge $-1 $481 $482 $293 $382 forward $483 $-1 #
edge $-1 $386 0 $484 7.996799999999995 $293 $485 forward 7 unknown #
coedge $-1 $486 $294 $482 $487 forward $385 $-1 #
coedge $-1 $294 $486 $296 $389 reversed $385 $-1 #
loop $-1 $-1 $384 $488 #
vertex $-1 $295 $489 #
straight-curve $-1 -8.8999999999999986 0 -7.5 -0.70710678118654724 0 0.70710678118654757 I I #
coedge $-1 $297 $296 $490 $491 reversed $298 $-1 #
edge $-1 $300 0 $492 2 $296 $493 forward 7 unknown #
edge $-1 $299 0 $494 2 $297 $495 forward 7 unknown #
face $-1 $488 $298 $3 $-1 $496 forward single #
point $-1 8.8999999999999986 0 -7.5 #
point $-1 -8.8999999999999986 0 -7.5 #
coedge $-1 $303 $302 $497 $498 forward $304 $-1 #
face $-1 $499 $304 $3 $-1 $500 reversed single #
coedge $-1 $501 $502 $306 $397 forward $503 $-1 #
edge $-1 $400 0 $398 3.1415926535897984 $396 $504 forward 7 unknown #
vertex $-1 $498 $505 #
straight-curve $-1 10.327999999999999 1.5964211616751138 5.25 0 -1 0 I I #
vertex $-1 $506 $507 #
straight-curve $-1 9.6720000000000006 1.5964211616751138 5.25 0 -1 0 I I #
cone-surface $-1 10 2.1237500000000002 5.25 0 1 0 -0.32800000000000001 0 0 1 I I 0 1 0.32800000000000001 forward I I I I #
coedge $-1 $508 $509 $312 $404 forward $510 $-1 #
edge $-1 $316 0 $318 3.1415926535897984 $403 $511 forward 7 unknown #
cone-surface $-1 10 2.1237500000000002 -5.25 0 -1 0 -0.32800000000000001 0 0 1 I I 0 1 0.32800000000000001 forward I I I I #
coedge $-1 $512 $314 $509 $410 reversed $408 $-1 #
coedge $-1 $314 $512 $508 $412 forward $408 $-1 #
loop $-1 $-1 $512 $513 #
ellipse-curve $-1 10 1.5964211616751138 -5.2499999999999991 0 1 0 -0.3279999999999994 0 -8.8817841970012523e-016 1 I I #
edge $-1 $514 0 $316 0.033000000000000237 $509 $515 forward 7 unknown #
point $-1 9.6720000000000006 1.5964211616751134 -5.25 #
edge $-1 $516 0 $318 0.032999999999999856 $508 $517 forward 7 unknown #
point $-1 10.327999999999999 1.5964211616751138 -5.25 #
face $-1 $518 $519 $3 $-1 $520 reversed single #
loop $-1 $-1 $521 $320 #
cone-surface $-1 10 2.1237500000000002 5.25 0 1 0 -0.5 0 0 1 I I 0 1 0.5 forward I I I I #
coedge $-1 $522 $322 $326 $331 reversed $419 $-1 #
coedge $-1 $322 $522 $325 $329 forward $419 $-1 #
loop $-1 $-1 $322 $523 #
ellipse-curve $-1 0 1.5964211616751138 -5.2500000000000009 0 -1 0 -0.32800000000000001 0 8.8817841970012523e-016 1 I I #
coedge $-1 $326 $325 $524 $525 forward $327 $-1 #
face $-1 $523 $327 $3 $-1 $526 reversed single #
vertex $-1 $527 $528 #
straight-curve $-1 -0.34449999999999997 1.6249999999999998 -5.25 0.50000000000000022 -0.8660254037844386 0 I I #
vertex $-1 $527 $529 #
straight-curve $-1 0.34449999999999997 1.6249999999999998 -5.25 -0.50000000000000022 -0.8660254037844386 0 I I #
face $-1 $513 $530 $3 $-1 $531 reversed single #
loop $-1 $-1 $532 $333 #
cone-surface $-1 10 2.1237500000000002 -5.25 0 -1 0 -0.5 0 0 1 I I 0 1 0.5 forward I I I I #
coedge $-1 $533 $534 $535 $536 forward $334 $-1 #
coedge $-1 $337 $336 $537 $436 reversed $338 $-1 #
face $-1 $186 $338 $3 $-1 $538 reversed single #
coedge $-1 $537 $537 $340 $434 reversed $539 $-1 #
edge $-1 $342 0 $344 3.1415926535897931 $433 $540 forward 7 unknown #
cone-surface $-1 -10 2.0283084967925218 -5.25 0 -1 0 -0.57735026918962595 0 0 1 I I -0.50000000000000011 0.8660254037844386 0.57735026918962595 forward I I I I #
edge $-1 $342 0 $344 3.1415926535897931 $537 $541 forward 7 unknown #
point $-1 -10.3445 1.6249999999999998 -5.25 #
point $-1 -9.6555 1.6249999999999998 -5.25 #
loop $-1 $542 $524 $346 #
plane-surface $-1 0 1.625 -5.25 0 -1 0 -1 0 0 forward_v I I I I #
coedge $-1 $543 $544 $545 $546 forward $347 $-1 #
coedge $-1 $545 $349 $547 $548 reversed $263 $-1 #
coedge $-1 $349 $545 $549 $550 reversed $263 $-1 #
coedge $-1 $544 $543 $349 $445 reversed $347 $-1 #
edge $-1 $551 0 $552 0.375 $444 $553 forward 7 unknown #
coedge $-1 $354 $354 $350 $359 reversed $451 $-1 #
face $-1 $341 $539 $3 $-1 $554 reversed single #
loop $-1 $-1 $555 $351 #
cone-surface $-1 -10 2.1237500000000002 -5.25 0 -1 0 -0.5 0 0 1 I I 0 1 0.5 forward I I I I #
coedge $-1 $556 $557 $558 $559 forward $352 $-1 #
loop $-1 $560 $354 $361 #
ellipse-curve $-1 -1.3877787807814457e-017 1.625 5.25 6.4454166886801538e-016 -1 0 -0.34449999999999997 -2.2204460492503131e-016 0 1 I I #
point $-1 0.34449999999999997 1.6249999999999998 5.25 #
ellipse-curve $-1 -1.3877787807814457e-017 1.625 5.25 -6.4454166886801538e-016 1 0 -0.34449999999999997 -2.2204460492503131e-016 0 1 I I #
plane-surface $-1 0 1.625 5.25 0 1 0 -1 0 0 forward_v I I I I #
coedge $-1 $561 $562 $563 $564 forward $362 $-1 #
coedge $-1 $563 $364 $565 $566 forward $277 $-1 #
coedge $-1 $364 $563 $366 $464 forward $277 $-1 #
coedge $-1 $562 $561 $364 $460 reversed $362 $-1 #
edge $-1 $567 0 $568 0.375 $459 $569 forward 7 unknown #
loop $-1 $570 $549 $151 #
coedge $-1 $571 $571 $557 $572 forward $365 $-1 #
coedge $-1 $366 $366 $562 $573 reversed $279 $-1 #
edge $-1 $574 0 $567 3.1415926535897931 $366 $575 forward 7 unknown #
ellipse-curve $-1 -10 2 5.25 0 1 0 0.5 0 0 1 I I #
point $-1 -10.5 2 5.25 #
coedge $-1 $380 $372 $576 $577 reversed $119 $-1 #
coedge $-1 $578 $579 $372 $469 forward $580 $-1 #
edge $-1 $581 0 $473 4.9520102100056347 $372 $582 forward 7 unknown #
coedge $-1 $583 $373 $376 $476 forward $472 $-1 #
coedge $-1 $373 $583 $578 $584 reversed $472 $-1 #
loop $-1 $-1 $373 $585 #
vertex $-1 $469 $586 #
straight-curve $-1 12.4016 0 3.9983999999999962 0 0 -1 I I #
coedge $-1 $376 $375 $587 $588 reversed $377 $-1 #
edge $-1 $378 0 $589 2 $470 $590 forward 7 unknown #
face $-1 $391 $377 $3 $-1 $591 reversed single #
point $-1 12.4016 0 -3.9983999999999988 #
coedge $-1 $592 $593 $380 $480 forward $594 $-1 #
edge $-1 $484 3.1401849173675508e-016 $595 4.9520102100056329 $380 $596 forward 7 unknown #
coedge $-1 $597 $381 $593 $598 forward $483 $-1 #
coedge $-1 $381 $597 $383 $487 reversed $483 $-1 #
loop $-1 $-1 $381 $599 #
vertex $-1 $382 $600 #
straight-curve $-1 -12.4016 0 -3.9983999999999962 0 0 1 I I #
coedge $-1 $384 $383 $601 $602 reversed $385 $-1 #
edge $-1 $386 0 $603 2 $482 $604 forward 7 unknown #
face $-1 $-1 $385 $3 $-1 $605 reversed single #
point $-1 -12.4016 0 -3.9983999999999962 #
coedge $-1 $601 $587 $388 $491 forward $606 $-1 #
edge $-1 $494 0 $492 17.799999999999997 $490 $607 forward 7 unknown #
vertex $-1 $602 $608 #
straight-curve $-1 -8.8999999999999986 0 -7.5000000000000009 0 1 0 I I #
vertex $-1 $491 $609 #
straight-curve $-1 8.8999999999999986 0 -7.5 0 1 0 I I #
plane-surface $-1 12.4016 0 -7.5 0 0 -1 -1 0 0 forward_v I I I I #
coedge $-1 $610 $611 $394 $498 reversed $612 $-1 #
edge $-1 $400 0 $398 3.1415926535897984 $497 $613 forward 7 unknown #
face $-1 $599 $612 $3 $-1 $614 reversed single #
cone-surface $-1 10 2.1237500000000002 5.25 0 1 0 -0.32800000000000001 0 0 1 I I 0 1 0.32800000000000001 forward I I I I #
coedge $-1 $615 $396 $611 $616 reversed $503 $-1 #
coedge $-1 $396 $615 $610 $506 forward $503 $-1 #
loop $-1 $-1 $396 $617 #
ellipse-curve $-1 10 1.5964211616751138 5.2499999999999991 0 -1 0 -0.3279999999999994 0 8.8817841970012523e-016 1 I I #
point $-1 10.327999999999999 1.5964211616751138 5.25 #
edge $-1 $618 0 $400 0.033000000000000237 $610 $619 forward 7 unknown #
point $-1 9.6720000000000006 1.5964211616751134 5.25 #
coedge $-1 $620 $403 $407 $412 reversed $510 $-1 #
coedge $-1 $403 $620 $406 $410 forward $510 $-1 #
loop $-1 $-1 $403 $621 #
ellipse-curve $-1 10 1.5964211616751138 -5.2500000000000009 0 -1 0 -0.3279999999999994 0 8.8817841970012523e-016 1 I I #
coedge $-1 $407 $406 $622 $623 forward $408 $-1 #
face $-1 $621 $408 $3 $-1 $624 reversed single #
vertex $-1 $625 $626 #
straight-curve $-1 9.6555 1.6249999999999998 -5.25 0.50000000000001532 -0.86602540378442983 0 I I #
vertex $-1 $625 $627 #
straight-curve $-1 10.3445 1.6249999999999998 -5.25 -0.50000000000001532 -0.86602540378442983 0 I I #
face $-1 $617 $628 $3 $-1 $629 forward single #
loop $-1 $-1 $630 $414 #
cone-surface $-1 10 2.1237500000000002 5.25 0 1 0 -0.5 0 0 1 I I 0 1 0.5 forward I I I I #
coedge $-1 $631 $632 $633 $634 forward $415 $-1 #
coedge $-1 $418 $417 $635 $527 reversed $419 $-1 #
face $-1 $242 $419 $3 $-1 $636 reversed single #
coedge $-1 $635 $635 $421 $525 reversed $439 $-1 #
edge $-1 $423 0 $425 3.1415926535897931 $524 $637 forward 7 unknown #
cone-surface $-1 0 2.0283084967925218 -5.25 0 -1 0 -0.57735026918962595 0 0 1 I I -0.50000000000000011 0.8660254037844386 0.57735026918962595 forward I I I I #
edge $-1 $423 0 $425 3.1415926535897931 $635 $638 forward 7 unknown #
point $-1 -0.34449999999999997 1.6249999999999998 -5.25 #
point $-1 0.34449999999999997 1.6249999999999998 -5.25 #
loop $-1 $639 $622 $427 #
plane-surface $-1 10 1.625 -5.25 0 -1 0 -1 0 0 forward_v I I I I #
coedge $-1 $640 $641 $642 $643 forward $428 $-1 #
coedge $-1 $642 $430 $644 $645 reversed $334 $-1 #
coedge $-1 $430 $642 $646 $647 reversed $334 $-1 #
coedge $-1 $641 $640 $430 $536 reversed $428 $-1 #
edge $-1 $648 0 $649 0.375 $535 $650 forward 7 unknown #
coedge $-1 $433 $433 $431 $436 forward $539 $-1 #
cone-surface $-1 -10 2.0283084967925218 -5.25 0 -1 0 -0.57735026918962595 0 0 1 I I -0.50000000000000011 0.8660254037844386 0.57735026918962595 forward I I I I #
loop $-1 $651 $433 $447 #
ellipse-curve $-1 -10 1.625 -5.25 -6.4454166886801538e-016 1 0 -0.34450000000000003 -2.2204460492503131e-016 0 1 I I #
ellipse-curve $-1 -10 1.625 -5.25 6.4454166886801538e-016 -1 0 -0.34450000000000003 -2.2204460492503131e-016 0 1 I I #
loop $-1 $-1 $652 $346 #
coedge $-1 $444 $441 $652 $653 forward $347 $-1 #
coedge $-1 $441 $444 $654 $655 reversed $347 $-1 #
coedge $-1 $443 $442 $441 $546 reversed $263 $-1 #
edge $-1 $656 0 $657 0.375 $441 $658 forward 7 unknown #
coedge $-1 $652 $652 $442 $548 forward $542 $-1 #
edge $-1 $657 0 $552 3.1415926535897931 $547 $659 forward 7 unknown #
coedge $-1 $654 $654 $443 $550 forward $461 $-1 #
edge $-1 $551 0 $656 3.1415926535897931 $549 $660 forward 7 unknown #
vertex $-1 $655 $661 #
vertex $-1 $445 $662 #
straight-curve $-1 0.5 2 -5.25 0 -1 0 I I #
plane-surface $-1 -10 1.625 -5.25 0 -1 0 -1 0 0 forward_v I I I I #
coedge $-1 $663 $664 $665 $666 forward $448 $-1 #
coedge $-1 $665 $450 $667 $668 reversed $352 $-1 #
coedge $-1 $450 $665 $462 $572 reversed $352 $-1 #
coedge $-1 $664 $663 $450 $559 reversed $448 $-1 #
edge $-1 $669 0 $670 0.375 $558 $671 forward 7 unknown #
loop $-1 $-1 $672 $361 #
coedge $-1 $459 $456 $672 $673 reversed $362 $-1 #
coedge $-1 $456 $459 $463 $573 forward $362 $-1 #
coedge $-1 $458 $457 $456 $564 reversed $277 $-1 #
edge $-1 $574 0 $674 0.375 $456 $675 forward 7 unknown #
coedge $-1 $672 $672 $457 $566 reversed $560 $-1 #
edge $-1 $568 0 $674 3.1415926535897931 $565 $676 forward 7 unknown #
vertex $-1 $573 $677 #
vertex $-1 $460 $678 #
straight-curve $-1 -0.5 2 5.25 0 -1 0 I I #
loop $-1 $679 $646 $151 #
coedge $-1 $462 $462 $664 $680 forward $365 $-1 #
edge $-1 $669 0 $681 3.1415926535897931 $462 $682 forward 7 unknown #
edge $-1 $567 0 $574 3.1415926535897931 $463 $683 forward 7 unknown #
vertex $-1 $573 $684 #
ellipse-curve $-1 0 2 5.25 0 1 0 0.5 0 0 1 I I #
coedge $-1 $685 $686 $467 $577 forward $687 $-1 #
edge $-1 $595 0 $581 17.799999999999997 $467 $688 forward 7 unknown #
coedge $-1 $689 $468 $471 $584 forward $580 $-1 #
coedge $-1 $468 $689 $685 $690 reversed $580 $-1 #
loop $-1 $-1 $579 $691 #
vertex $-1 $577 $692 #
straight-curve $-1 8.8999999999999986 0 7.5 0.70710678118654724 0 -0.70710678118654757 I I #
coedge $-1 $471 $470 $693 $694 reversed $472 $-1 #
edge $-1 $473 0 $695 2 $471 $696 forward 7 unknown #
face $-1 $477 $472 $3 $-1 $697 forward single #
point $-1 12.4016 0 3.9983999999999962 #
coedge $-1 $490 $693 $475 $588 forward $606 $-1 #
edge $-1 $589 3.1401849173675508e-016 $494 4.9520102100056329 $587 $698 forward 7 unknown #
vertex $-1 $588 $699 #
straight-curve $-1 12.401600000000002 0 -3.9983999999999975 0 1 0 I I #
plane-surface $-1 12.4016 2.1999999999999997 -3.9983999999999984 -0.70710678118654757 0 0.70710678118654757 -0.70710678118654746 0 -0.70710678118654746 forward_v I I I I #
coedge $-1 $700 $479 $686 $701 forward $594 $-1 #
coedge $-1 $479 $700 $481 $598 reversed $594 $-1 #
loop $-1 $-1 $593 $702 #
vertex $-1 $480 $703 #
straight-curve $-1 -12.4016 0 3.9983999999999984 0.70710678118654746 0 0.70710678118654746 I I #
coedge $-1 $482 $481 $704 $705 reversed $483 $-1 #
edge $-1 $484 0 $706 2 $481 $707 forward 7 unknown #
face $-1 $702 $483 $3 $-1 $708 forward single #
point $-1 -12.4016 0 3.9983999999999988 #
coedge $-1 $704 $490 $486 $602 forward $606 $-1 #
edge $-1 $492 0 $603 4.9520102100056347 $601 $709 forward 7 unknown #
vertex $-1 $602 $710 #
straight-curve $-1 -12.4016 0 -3.9983999999999966 0 1 0 I I #
plane-surface $-1 -8.8999999999999986 2.1999999999999997 -7.5 0.70710678118654768 0 0.70710678118654735 -0.70710678118654724 0 0.70710678118654757 forward_v I I I I #
loop $-1 $-1 $704 $151 #
straight-curve $-1 8.8999999999999986 2 -7.5 -1 0 0 I I #
point $-1 -8.8999999999999986 2 -7.5 #
point $-1 8.8999999999999986 2 -7.5 #
coedge $-1 $711 $497 $502 $506 reversed $612 $-1 #
coedge $-1 $497 $711 $501 $616 forward $612 $-1 #
loop $-1 $-1 $711 $499 #
ellipse-curve $-1 10 1.5964211616751138 5.2500000000000009 0 1 0 -0.3279999999999994 0 -8.8817841970012523e-016 1 I I #
cone-surface $-1 10 2.0283084967925218 5.25 0 -1 0 -0.57735026918962595 0 0 1 I I -0.50000000000000011 0.8660254037844386 0.57735026918962595 forward I I I I #
coedge $-1 $502 $501 $712 $713 reversed $503 $-1 #
edge $-1 $714 0 $398 0.032999999999999856 $611 $715 forward 7 unknown #
face $-1 $309 $503 $3 $-1 $716 reversed single #
vertex $-1 $717 $718 #
straight-curve $-1 9.6555 1.6249999999999998 5.25 0.50000000000001532 -0.86602540378442983 0 I I #
coedge $-1 $509 $508 $719 $625 reversed $510 $-1 #
face $-1 $313 $510 $3 $-1 $720 reversed single #
coedge $-1 $719 $719 $512 $623 reversed $530 $-1 #
edge $-1 $514 0 $516 3.1415926535897931 $622 $721 forward 7 unknown #
cone-surface $-1 10 2.0283084967925218 -5.25 0 -1 0 -0.57735026918962595 0 0 1 I I -0.50000000000000011 0.8660254037844386 0.57735026918962595 forward I I I I #
edge $-1 $514 0 $516 3.1415926535897931 $719 $722 forward 7 unknown #
point $-1 9.6555 1.6249999999999998 -5.25 #
point $-1 10.3445 1.6249999999999998 -5.25 #
loop $-1 $723 $712 $518 #
plane-surface $-1 10 1.625 5.25 0 1 0 -1 0 0 forward_v I I I I #
coedge $-1 $724 $725 $726 $727 forward $519 $-1 #
coedge $-1 $726 $521 $728 $729 forward $415 $-1 #
coedge $-1 $521 $726 $730 $731 forward $415 $-1 #
coedge $-1 $725 $724 $521 $634 reversed $519 $-1 #
edge $-1 $732 0 $733 0.375 $633 $734 forward 7 unknown #
coedge $-1 $524 $524 $522 $527 forward $439 $-1 #
cone-surface $-1 0 2.0283084967925218 -5.25 0 -1 0 -0.57735026918962595 0 0 1 I I -0.50000000000000011 0.8660254037844386 0.57735026918962595 forward I I I I #
ellipse-curve $-1 -1.3877787807814457e-017 1.625 -5.25 -6.4454166886801538e-016 1 0 -0.34449999999999997 -2.2204460492503131e-016 0 1 I I #
ellipse-curve $-1 -1.3877787807814457e-017 1.625 -5.25 6.4454166886801538e-016 -1 0 -0.34449999999999997 -2.2204460492503131e-016 0 1 I I #
loop $-1 $-1 $735 $427 #
coedge $-1 $535 $532 $735 $736 forward $428 $-1 #
coedge $-1 $532 $535 $737 $738 reversed $428 $-1 #
coedge $-1 $534 $533 $532 $643 reversed $334 $-1 #
edge $-1 $739 0 $740 0.375 $532 $741 forward 7 unknown #
coedge $-1 $735 $735 $533 $645 forward $639 $-1 #
edge $-1 $740 0 $649 3.1415926535897931 $644 $742 forward 7 unknown #
coedge $-1 $737 $737 $534 $647 forward $570 $-1 #
edge $-1 $648 0 $739 3.1415926535897931 $646 $743 forward 7 unknown #
vertex $-1 $738 $744 #
vertex $-1 $536 $745 #
straight-curve $-1 10.5 2 -5.25 0 -1 0 I I #
loop $-1 $-1 $746 $447 #
coedge $-1 $547 $547 $543 $653 reversed $542 $-1 #
edge $-1 $657 0 $552 3.1415926535897931 $543 $747 forward 7 unknown #
coedge $-1 $549 $549 $544 $655 forward $461 $-1 #
edge $-1 $656 0 $551 3.1415926535897931 $654 $748 forward 7 unknown #
vertex $-1 $655 $749 #
vertex $-1 $653 $750 #
straight-curve $-1 -0.5 2 -5.25 0 -1 0 I I #
ellipse-curve $-1 0 1.625 -5.25 0 1 0 -0.5 0 0 1 I I #
ellipse-curve $-1 0 2 -5.25 0 -1 0 0.5 0 0 1 I I #
point $-1 0.5 2 -5.25 #
point $-1 0.5 1.625 -5.25 #
coedge $-1 $558 $555 $746 $751 forward $448 $-1 #
coedge $-1 $555 $558 $571 $680 reversed $448 $-1 #
coedge $-1 $557 $556 $555 $666 reversed $352 $-1 #
edge $-1 $681 0 $752 0.375 $555 $753 forward 7 unknown #
coedge $-1 $746 $746 $556 $668 forward $651 $-1 #
edge $-1 $752 0 $670 3.1415926535897931 $667 $754 forward 7 unknown #
vertex $-1 $680 $755 #
vertex $-1 $559 $756 #
straight-curve $-1 -9.5 2 -5.25 0 -1 0 I I #
coedge $-1 $565 $565 $561 $673 forward $560 $-1 #
edge $-1 $568 0 $674 3.1415926535897931 $561 $757 forward 7 unknown #
vertex $-1 $673 $758 #
straight-curve $-1 0.5 2 5.25 0 -1 0 I I #
ellipse-curve $-1 0 1.625 5.25 0 -1 0 -0.5 0 0 1 I I #
point $-1 -0.5 2 5.25 #
point $-1 -0.5 1.625 5.25 #
loop $-1 $606 $730 $151 #
edge $-1 $681 0 $669 3.1415926535897931 $571 $759 forward 7 unknown #
vertex $-1 $680 $760 #
ellipse-curve $-1 -10 2 -5.25 0 -1 0 0.5 0 0 1 I I #
ellipse-curve $-1 0 2 5.25 0 1 0 -0.5 0 0 1 I I #
point $-1 0.5 2 5.25 #
coedge $-1 $761 $576 $579 $690 forward $687 $-1 #
coedge $-1 $576 $761 $592 $701 reversed $687 $-1 #
loop $-1 $-1 $576 $762 #
straight-curve $-1 -8.8999999999999986 0 7.5 1 0 0 I I #
coedge $-1 $579 $578 $763 $764 reversed $580 $-1 #
edge $-1 $581 0 $765 2 $685 $766 forward 7 unknown #
face $-1 $585 $580 $3 $-1 $767 reversed single #
point $-1 8.8999999999999986 0 7.5 #
coedge $-1 $587 $763 $583 $694 forward $606 $-1 #
edge $-1 $695 4.4408920985006262e-016 $589 7.996799999999995 $693 $768 forward 7 unknown #
vertex $-1 $694 $769 #
straight-curve $-1 12.4016 0 3.9983999999999966 0 1 0 I I #
plane-surface $-1 12.4016 0 7.5 1 0 0 0 0 -1 forward_v I I I I #
straight-curve $-1 12.4016 2 -3.9983999999999984 -0.70710678118654746 0 -0.70710678118654746 I I #
point $-1 12.4016 2 -3.9983999999999988 #
coedge $-1 $593 $592 $770 $771 reversed $594 $-1 #
edge $-1 $595 0 $772 2 $686 $773 forward 7 unknown #
face $-1 $762 $594 $3 $-1 $774 reversed single #
point $-1 -8.8999999999999986 0 7.5 #
coedge $-1 $770 $601 $597 $705 forward $606 $-1 #
edge $-1 $603 0 $706 7.996799999999995 $704 $775 forward 7 unknown #
vertex $-1 $771 $776 #
straight-curve $-1 -12.401600000000002 0 3.9983999999999975 0 1 0 I I #
plane-surface $-1 -12.4016 0 -7.5 -1 0 0 0 0 1 forward_v I I I I #
straight-curve $-1 -8.8999999999999986 2 -7.5 -0.70710678118654724 0 0.70710678118654757 I I #
point $-1 -12.4016 2 -3.9983999999999962 #
coedge $-1 $611 $610 $777 $717 forward $612 $-1 #
coedge $-1 $777 $777 $615 $713 forward $628 $-1 #
edge $-1 $618 0 $714 3.1415926535897931 $712 $778 forward 7 unknown #
vertex $-1 $717 $779 #
straight-curve $-1 10.3445 1.6249999999999998 5.25 -0.50000000000001532 -0.86602540378442983 0 I I #
cone-surface $-1 10 2.0283084967925218 5.25 0 -1 0 -0.57735026918962595 0 0 1 I I -0.50000000000000011 0.8660254037844386 0.57735026918962595 forward I I I I #
edge $-1 $618 0 $714 3.1415926535897931 $777 $780 forward 7 unknown #
point $-1 9.6555 1.6249999999999998 5.25 #
coedge $-1 $622 $622 $620 $625 forward $530 $-1 #
cone-surface $-1 10 2.0283084967925218 -5.25 0 -1 0 -0.57735026918962595 0 0 1 I I -0.50000000000000011 0.8660254037844386 0.57735026918962595 forward I I I I #
ellipse-curve $-1 10 1.625 -5.25 -6.4454166886801538e-016 1 0 -0.34450000000000003 -2.2204460492503131e-016 0 1 I I #
ellipse-curve $-1 10 1.625 -5.25 6.4454166886801538e-016 -1 0 -0.34450000000000003 -2.2204460492503131e-016 0 1 I I #
loop $-1 $-1 $781 $518 #
coedge $-1 $633 $630 $781 $782 reversed $519 $-1 #
coedge $-1 $630 $633 $783 $784 forward $519 $-1 #
coedge $-1 $632 $631 $630 $727 reversed $415 $-1 #
edge $-1 $785 0 $786 0.375 $630 $787 forward 7 unknown #
coedge $-1 $781 $781 $631 $729 reversed $723 $-1 #
edge $-1 $733 0 $786 3.1415926535897931 $728 $788 forward 7 unknown #
coedge $-1 $783 $783 $632 $731 reversed $679 $-1 #
edge $-1 $785 0 $732 3.1415926535897931 $730 $789 forward 7 unknown #
vertex $-1 $784 $790 #
vertex $-1 $634 $791 #
straight-curve $-1 9.5 2 5.25 0 -1 0 I I #
coedge $-1 $644 $644 $640 $736 reversed $639 $-1 #
edge $-1 $740 0 $649 3.1415926535897931 $640 $792 forward 7 unknown #
coedge $-1 $646 $646 $641 $738 forward $570 $-1 #
edge $-1 $739 0 $648 3.1415926535897931 $737 $793 forward 7 unknown #
vertex $-1 $738 $794 #
vertex $-1 $736 $795 #
straight-curve $-1 9.5 2 -5.25 0 -1 0 I I #
ellipse-curve $-1 10 1.625 -5.25 0 1 0 -0.5 0 0 1 I I #
ellipse-curve $-1 10 2 -5.25 0 -1 0 0.5 0 0 1 I I #
point $-1 10.5 2 -5.25 #
point $-1 10.5 1.625 -5.25 #
coedge $-1 $667 $667 $663 $751 reversed $651 $-1 #
ellipse-curve $-1 0 1.625 -5.25 0 -1 0 -0.5 0 0 1 I I #
ellipse-curve $-1 0 2 -5.25 0 -1 0 -0.5 0 0 1 I I #
point $-1 -0.5 2 -5.25 #
point $-1 -0.5 1.625 -5.25 #
edge $-1 $752 0 $670 3.1415926535897931 $663 $796 forward 7 unknown #
vertex $-1 $751 $797 #
straight-curve $-1 -10.5 2 -5.25 0 -1 0 I I #
ellipse-curve $-1 -10 1.625 -5.25 0 1 0 -0.5 0 0 1 I I #
point $-1 -9.5 2 -5.25 #
point $-1 -9.5 1.625 -5.25 #
ellipse-curve $-1 0 1.625 5.25 0 1 0 -0.5 0 0 1 I I #
point $-1 0.5 1.625 5.25 #
ellipse-curve $-1 -10 2 -5.25 0 -1 0 -0.5 0 0 1 I I #
point $-1 -10.5 2 -5.25 #
coedge $-1 $686 $685 $798 $799 reversed $687 $-1 #
face $-1 $691 $687 $3 $-1 $800 forward single #
coedge $-1 $693 $798 $689 $764 forward $606 $-1 #
edge $-1 $765 0 $695 4.9520102100056347 $763 $801 forward 7 unknown #
vertex $-1 $764 $802 #
straight-curve $-1 8.8999999999999986 0 7.5000000000000009 0 1 0 I I #
plane-surface $-1 8.8999999999999986 2.1999999999999997 7.5 -0.70710678118654768 0 -0.70710678118654735 0.70710678118654724 0 -0.70710678118654757 forward_v I I I I #
straight-curve $-1 12.4016 2 3.9983999999999962 0 0 -1 I I #
point $-1 12.4016 2 3.9983999999999957 #
coedge $-1 $798 $704 $700 $771 forward $606 $-1 #
edge $-1 $706 3.1401849173675508e-016 $772 4.9520102100056329 $770 $803 forward 7 unknown #
vertex $-1 $799 $804 #
straight-curve $-1 -8.8999999999999986 0 7.5 0 1 0 I I #
plane-surface $-1 -12.4016 2.1999999999999997 3.9983999999999984 0.70710678118654757 0 -0.70710678118654757 0.70710678118654746 0 0.70710678118654746 forward_v I I I I #
straight-curve $-1 -12.4016 2 -3.9983999999999962 0 0 1 I I #
point $-1 -12.4016 2 3.9983999999999988 #
coedge $-1 $712 $712 $711 $717 reversed $628 $-1 #
ellipse-curve $-1 10 1.625 5.25 6.4454166886801538e-016 -1 0 -0.34450000000000003 -2.2204460492503131e-016 0 1 I I #
point $-1 10.3445 1.6249999999999998 5.25 #
ellipse-curve $-1 10 1.625 5.25 -6.4454166886801538e-016 1 0 -0.34450000000000003 -2.2204460492503131e-016 0 1 I I #
coedge $-1 $728 $728 $724 $782 forward $723 $-1 #
edge $-1 $733 0 $786 3.1415926535897931 $724 $805 forward 7 unknown #
coedge $-1 $730 $730 $725 $784 reversed $679 $-1 #
edge $-1 $732 0 $785 3.1415926535897931 $783 $806 forward 7 unknown #
vertex $-1 $784 $807 #
vertex $-1 $782 $808 #
straight-curve $-1 10.5 2 5.25 0 -1 0 I I #
ellipse-curve $-1 10 1.625 5.25 0 -1 0 -0.5 0 0 1 I I #
ellipse-curve $-1 10 2 5.25 0 1 0 0.5 0 0 1 I I #
point $-1 9.5 2 5.25 #
point $-1 9.5 1.625 5.25 #
ellipse-curve $-1 10 1.625 -5.25 0 -1 0 -0.5 0 0 1 I I #
ellipse-curve $-1 10 2 -5.25 0 -1 0 -0.5 0 0 1 I I #
point $-1 9.5 2 -5.25 #
point $-1 9.5 1.625 -5.25 #
ellipse-curve $-1 -10 1.625 -5.25 0 -1 0 -0.5 0 0 1 I I #
point $-1 -10.5 1.625 -5.25 #
coedge $-1 $763 $770 $761 $799 forward $606 $-1 #
edge $-1 $772 0 $765 17.799999999999997 $798 $809 forward 7 unknown #
plane-surface $-1 -12.4016 0 7.5 0 0 1 1 0 0 forward_v I I I I #
straight-curve $-1 8.8999999999999986 2 7.5 0.70710678118654724 0 -0.70710678118654757 I I #
point $-1 8.8999999999999986 2 7.5 #
straight-curve $-1 -12.4016 2 3.9983999999999984 0.70710678118654746 0 0.70710678118654746 I I #
point $-1 -8.8999999999999986 2 7.5 #
ellipse-curve $-1 10 1.625 5.25 0 1 0 -0.5 0 0 1 I I #
ellipse-curve $-1 10 2 5.25 0 1 0 -0.5 0 0 1 I I #
point $-1 10.5 2 5.25 #
point $-1 10.5 1.625 5.25 #
straight-curve $-1 -8.8999999999999986 2 7.5 1 0 0 I I #
End-of-ACIS-data 