600 0 2 0           
24 FBMach with ACIS - 6.0.3 13 ACIS 6.0.3 NT 24 Tue May 22 15:34:16 2001 
1 9.9999999999999995e-007 1e-010 
body $2 $3 $-1 $4 #
bdycol-kcp $-1 1 3 $5 $6 $7 #
model_id-kcp-attrib $-1 $-1 $-1 $0 1 990560056 60 1144782849 1 #
lump $-1 $-1 $8 $0 #
transform $-1 1 0 0 0 1 0 0 0 1 0 0 0 1 no_rotate no_reflect no_shear #
body $9 $10 $-1 $11 #
body $12 $13 $-1 $14 #
body $15 $16 $-1 $17 #
shell $-1 $-1 $-1 $18 $-1 $3 #
model_id-kcp-attrib $-1 $-1 $-1 $5 1 990560056 60 1144782850 1 #
lump $-1 $-1 $19 $5 #
transform $-1 1 0 0 0 1 0 0 0 1 0 0.0155 0 1 no_rotate no_reflect no_shear #
rgb_color-st-attrib $-1 $20 $-1 $6 0.5 1 1 #
lump $-1 $-1 $21 $6 #
transform $-1 1 0 0 0 -3.8285889215894375e-016 1 0 -1 -3.8285889215894375e-016 0 0.0155 -5.9343128284636282e-018 1 rotate no_reflect no_shear #
rgb_color-st-attrib $-1 $22 $-1 $7 0.5 1 1 #
lump $-1 $-1 $23 $7 #
transform $-1 1 0 0 0 1 0 0 0 1 0 0.0155 0 1 no_rotate no_reflect no_shear #
face $24 $25 $26 $8 $-1 $27 reversed single #
shell $-1 $-1 $-1 $28 $-1 $10 #
model_id-kcp-attrib $-1 $-1 $12 $6 1 990560056 80 1146093571 1 #
shell $-1 $-1 $-1 $29 $-1 $13 #
model_id-kcp-attrib $-1 $-1 $15 $7 1 990560056 110 1148059652 1 #
shell $-1 $-1 $-1 $30 $-1 $16 #
model_id-kcp-attrib $-1 $31 $-1 $18 1 990560056 60 1144782849 6 #
face $32 $33 $34 $8 $-1 $35 forward single #
loop $-1 $36 $37 $18 #
plane-surface $-1 0 0 0 0 1 0 0 0 1 forward_v I I I I #
face $-1 $38 $39 $19 $-1 $40 forward single #
face $-1 $41 $42 $21 $-1 $43 forward single #
face $-1 $44 $45 $23 $-1 $46 reversed single #
model_id-kcp-attrib $-1 $-1 $24 $18 1 990560056 60 1144782849 2 #
model_id-kcp-attrib $-1 $47 $-1 $25 1 990560056 60 1144782849 7 #
face $48 $49 $50 $8 $-1 $51 forward single #
loop $-1 $52 $53 $25 #
plane-surface $-1 0 0.031 0 0 1 0 0 0 1 forward_v I I I I #
loop $54 $-1 $55 $18 #
coedge $-1 $37 $37 $56 $57 forward $26 $-1 #
face $-1 $58 $59 $19 $-1 $60 reversed single #
loop $-1 $-1 $61 $28 #
plane-surface $-1 0 0 0.28100000000000003 0 0 1 1 0 0 forward_v I I I I #
face $-1 $62 $63 $21 $-1 $64 forward single #
loop $-1 $65 $66 $29 #
cone-surface $-1 0 0 0 0 0 1 0.1875 0 0 1 I I 0 1 0.1875 forward I I I I #
face $-1 $67 $68 $23 $-1 $46 reversed single #
loop $-1 $-1 $69 $30 #
cone-surface $-1 -1.0535116570800517e-033 -0.0155 0 0 -1 0 0.28100000000000003 0 0 1 I I 0 1 0.28100000000000003 forward I I I I #
model_id-kcp-attrib $-1 $-1 $32 $25 1 990560056 60 1144782849 3 #
model_id-kcp-attrib $-1 $-1 $-1 $33 1 990560056 60 1144782849 4 #
face $70 $-1 $71 $8 $-1 $72 reversed single #
loop $-1 $73 $74 $33 #
cone-surface $-1 0 0 0 0 1 0 0.28100000000000003 0 0 1 I I 0 1 0.28100000000000003 forward I I I I #
loop $75 $-1 $76 $25 #
coedge $-1 $53 $53 $74 $77 reversed $34 $-1 #
model_id-kcp-attrib $-1 $-1 $-1 $36 1 990560056 60 1144782849 11 #
coedge $-1 $55 $55 $78 $79 forward $36 $-1 #
coedge $-1 $56 $56 $37 $57 reversed $73 $-1 #
edge $80 $81 -3.1415926535897931 $81 3.1415926535897931 $56 $82 forward 7 unknown #
face $83 $84 $85 $19 $-1 $86 reversed single #
loop $-1 $-1 $87 $38 #
plane-surface $-1 0 0 -0.28100000000000003 0 0 1 1 0 0 forward_v I I I I #
coedge $-1 $88 $89 $90 $91 forward $39 $-1 #
face $-1 $-1 $92 $21 $-1 $93 forward single #
loop $-1 $-1 $94 $41 #
plane-surface $-1 0 0 -0.015500000000000073 0 0 -1 -1 0 0 forward_v I I I I #
loop $-1 $-1 $95 $29 #
coedge $-1 $66 $66 $94 $96 reversed $42 $-1 #
face $-1 $97 $98 $23 $-1 $46 reversed single #
loop $-1 $-1 $99 $44 #
coedge $-1 $100 $101 $102 $103 reversed $45 $-1 #
model_id-kcp-attrib $-1 $-1 $-1 $49 1 990560056 60 1144782849 5 #
loop $104 $105 $106 $49 #
cone-surface $-1 0 0.031 0 0 -1 0 0.1875 0 0 1 I I 0 1 0.1875 forward I I I I #
loop $-1 $-1 $56 $33 #
coedge $-1 $74 $74 $53 $77 forward $50 $-1 #
model_id-kcp-attrib $-1 $-1 $-1 $52 1 990560056 60 1144782849 10 #
coedge $-1 $76 $76 $106 $107 reversed $52 $-1 #
edge $-1 $108 0 $108 6.2831853071795862 $74 $109 forward 7 unknown #
coedge $-1 $78 $78 $55 $79 reversed $105 $-1 #
edge $110 $111 -3.1415926535897931 $111 3.1415926535897931 $78 $112 forward 7 unknown #
attrib_edge_convexity-kcp-attrib $-1 $113 $-1 $57 1 #
vertex $-1 $57 $114 #
ellipse-curve $-1 0 0 0 0 -1 0 -0.28100000000000003 0 0 1 I I #
model_id-kcp-attrib $-1 $-1 $-1 $58 1 990560056 60 1144782850 2 #
face $-1 $115 $116 $19 $-1 $117 reversed single #
loop $-1 $-1 $118 $58 #
plane-surface $-1 0 -0.0155 0 0 1 0 0 0 1 forward_v I I I I #
coedge $-1 $119 $120 $121 $122 forward $59 $-1 #
coedge $-1 $123 $61 $124 $125 forward $39 $-1 #
coedge $-1 $61 $123 $126 $127 forward $39 $-1 #
coedge $-1 $128 $129 $61 $91 reversed $130 $-1 #
edge $-1 $131 -0.0155 $132 0.0155 $90 $133 forward 7 unknown #
loop $-1 $-1 $134 $62 #
plane-surface $-1 0 0 0.015500000000000073 0 0 1 1 0 0 forward_v I I I I #
coedge $-1 $94 $94 $66 $96 forward $63 $-1 #
coedge $-1 $95 $95 $134 $135 reversed $65 $-1 #
edge $-1 $136 0 $136 6.2831853071795862 $94 $137 forward 7 unknown #
face $-1 $138 $139 $23 $-1 $46 reversed single #
loop $-1 $-1 $140 $67 #
coedge $-1 $141 $142 $143 $144 reversed $68 $-1 #
coedge $-1 $145 $69 $146 $147 forward $45 $-1 #
coedge $-1 $69 $145 $148 $149 reversed $45 $-1 #
coedge $-1 $150 $151 $69 $103 forward $152 $-1 #
edge $-1 $153 0 $154 1.5707963267948966 $102 $155 forward 7 unknown #
model_id-kcp-attrib $-1 $-1 $-1 $71 1 990560056 60 1144782849 8 #
loop $156 $-1 $78 $49 #
coedge $-1 $106 $106 $76 $107 forward $71 $-1 #
edge $157 $158 0 $158 6.2831853071795862 $106 $159 forward 7 unknown #
vertex $-1 $77 $160 #
ellipse-curve $-1 0 0.031 0 0 -1 0 0.28100000000000003 0 0 1 I I #
attrib_edge_convexity-kcp-attrib $-1 $161 $-1 $79 1 #
vertex $162 $79 $163 #
ellipse-curve $-1 0 0 0 0 1 0 -0.1875 0 0 1 I I #
convexity-sys-attrib $-1 $-1 $80 $57 #
point $-1 0.28100000000000003 0 0 #
face $164 $165 $166 $19 $-1 $167 reversed single #
loop $-1 $-1 $168 $84 #
plane-surface $-1 -0.28100000000000003 0 0 1 0 0 0 0 -1 forward_v I I I I #
coedge $-1 $169 $126 $170 $171 forward $85 $-1 #
coedge $-1 $172 $87 $169 $173 forward $59 $-1 #
coedge $-1 $87 $172 $174 $175 forward $59 $-1 #
coedge $-1 $129 $128 $87 $122 reversed $130 $-1 #
edge $-1 $176 -0.0155 $177 0.0155 $121 $178 forward 7 unknown #
coedge $-1 $89 $88 $179 $180 forward $39 $-1 #
coedge $-1 $181 $182 $88 $125 reversed $166 $-1 #
edge $-1 $132 -0.28100000000000003 $183 0.28100000000000003 $124 $184 forward 7 unknown #
coedge $-1 $118 $185 $89 $127 reversed $85 $-1 #
edge $-1 $186 -0.28100000000000003 $131 0.28100000000000003 $126 $187 forward 7 unknown #
coedge $-1 $121 $90 $185 $188 forward $130 $-1 #
coedge $-1 $90 $121 $181 $189 reversed $130 $-1 #
loop $-1 $-1 $128 $165 #
vertex $-1 $91 $190 #
vertex $-1 $91 $191 #
straight-curve $-1 0.28100000000000003 0 0.28100000000000003 0 1 0 I I #
coedge $-1 $134 $134 $95 $135 forward $92 $-1 #
edge $-1 $192 0 $192 6.2831853071795862 $134 $193 forward 7 unknown #
vertex $-1 $96 $194 #
ellipse-curve $-1 0 0 -0.015500000000000073 0 0 -1 0.1875 0 0 1 I I #
face $-1 $195 $196 $23 $-1 $197 forward single #
loop $-1 $-1 $198 $97 #
coedge $-1 $199 $200 $198 $201 forward $98 $-1 #
coedge $-1 $202 $99 $203 $204 reversed $68 $-1 #
coedge $-1 $99 $202 $101 $149 forward $68 $-1 #
coedge $-1 $205 $206 $99 $144 forward $207 $-1 #
edge $-1 $208 -3.1415926535897931 $209 -1.5707963267948966 $143 $210 forward 7 unknown #
coedge $-1 $101 $100 $211 $212 reversed $45 $-1 #
coedge $-1 $200 $199 $213 $147 reversed $98 $-1 #
edge $-1 $153 -0.031 $214 0 $213 $215 forward 7 unknown #
coedge $-1 $216 $217 $218 $149 forward $219 $-1 #
edge $-1 $154 -0.031 $209 0 $148 $220 forward 7 unknown #
coedge $-1 $151 $102 $217 $221 reversed $152 $-1 #
coedge $-1 $102 $150 $222 $223 forward $152 $-1 #
loop $-1 $-1 $102 $224 #
vertex $-1 $225 $226 #
vertex $-1 $227 $228 #
ellipse-curve $-1 -1.0535116570800517e-033 0.0155 0 0 -1 0 0.28100000000000003 0 0 1 I I #
model_id-kcp-attrib $-1 $-1 $-1 $105 1 990560056 60 1144782849 9 #
attrib_edge_convexity-kcp-attrib $-1 $229 $-1 $107 1 #
vertex $230 $107 $231 #
ellipse-curve $-1 0 0.031 0 0 1 0 0.1875 0 0 1 I I #
point $-1 0.28100000000000003 0.031 0 #
convexity-sys-attrib $-1 $-1 $110 $79 #
model_id-kcp-attrib $-1 $-1 $-1 $111 1 990560056 60 1144782849 13 #
point $-1 0.1875 0 0 #
model_id-kcp-attrib $-1 $-1 $-1 $115 1 990560056 60 1144782850 3 #
face $-1 $-1 $130 $19 $-1 $232 reversed single #
loop $-1 $-1 $181 $115 #
plane-surface $-1 0 0.0155 0 0 -1 0 0 0 -1 forward_v I I I I #
coedge $-1 $233 $179 $182 $234 forward $116 $-1 #
coedge $-1 $185 $118 $119 $173 reversed $85 $-1 #
coedge $-1 $179 $233 $118 $171 reversed $116 $-1 #
edge $-1 $186 -0.28100000000000003 $235 0.28100000000000003 $170 $236 forward 7 unknown #
coedge $-1 $120 $119 $233 $237 forward $59 $-1 #
edge $-1 $177 -0.28100000000000003 $235 0.28100000000000003 $169 $238 forward 7 unknown #
coedge $-1 $182 $181 $120 $175 reversed $166 $-1 #
edge $-1 $239 -0.28100000000000003 $176 0.28100000000000003 $174 $240 forward 7 unknown #
vertex $-1 $122 $241 #
vertex $-1 $188 $242 #
straight-curve $-1 0.28100000000000003 0 -0.28100000000000003 0 -1 0 I I #
coedge $-1 $168 $170 $123 $180 reversed $116 $-1 #
edge $-1 $183 -0.0155 $186 0.0155 $179 $243 forward 7 unknown #
coedge $-1 $174 $124 $129 $189 forward $166 $-1 #
coedge $-1 $124 $174 $168 $234 reversed $166 $-1 #
vertex $-1 $125 $244 #
straight-curve $-1 0 0.0155 0.28100000000000003 -1 0 0 I I #
coedge $-1 $126 $169 $128 $188 reversed $85 $-1 #
vertex $-1 $180 $245 #
straight-curve $-1 0 -0.0155 0.28100000000000003 1 0 0 I I #
edge $-1 $131 -0.28100000000000003 $177 0.28100000000000003 $128 $246 forward 7 unknown #
edge $-1 $132 -0.28100000000000003 $176 0.28100000000000003 $129 $247 forward 7 unknown #
point $-1 0.28100000000000003 -0.0155 0.28100000000000003 #
point $-1 0.28100000000000003 0.0155 0.28100000000000003 #
vertex $-1 $135 $248 #
ellipse-curve $-1 0 0 0.015500000000000073 0 0 1 0.1875 0 0 1 I I #
point $-1 0.1875 0 -0.015500000000000073 #
face $-1 $249 $250 $23 $-1 $251 reversed single #
loop $-1 $-1 $218 $138 #
plane-surface $-1 0 0 0.28100000000000003 0 0 1 1 0 0 forward_v I I I I #
coedge $-1 $252 $253 $254 $201 reversed $139 $-1 #
coedge $-1 $146 $140 $255 $256 reversed $98 $-1 #
coedge $-1 $140 $146 $257 $258 reversed $98 $-1 #
edge $-1 $259 -0.031 $260 0 $254 $261 forward 7 unknown #
coedge $-1 $142 $141 $262 $263 reversed $68 $-1 #
coedge $-1 $264 $265 $266 $204 forward $267 $-1 #
edge $-1 $268 -0.031 $208 0 $203 $269 forward 7 unknown #
coedge $-1 $206 $143 $270 $271 reversed $207 $-1 #
coedge $-1 $143 $205 $264 $272 forward $207 $-1 #
loop $-1 $-1 $143 $273 #
vertex $-1 $274 $275 #
vertex $-1 $276 $277 #
ellipse-curve $-1 -1.0535116570800517e-033 -0.0155 0 0 1 0 0.28100000000000003 0 0 1 I I #
coedge $-1 $278 $279 $145 $212 forward $280 $-1 #
edge $-1 $209 -1.5707963267948966 $214 0 $211 $210 forward 7 unknown #
coedge $-1 $281 $282 $283 $147 forward $250 $-1 #
vertex $-1 $284 $285 #
straight-curve $-1 0.28100000000000003 -0.0155 0 0 -1 0 I I #
coedge $-1 $286 $148 $279 $276 forward $219 $-1 #
coedge $-1 $148 $286 $150 $221 forward $219 $-1 #
coedge $-1 $287 $270 $142 $149 reversed $196 $-1 #
loop $-1 $-1 $148 $288 #
straight-curve $-1 -1.0535116570800517e-033 -0.0155 0.28100000000000003 0 -1 0 I I #
edge $-1 $289 -0.28100000000000003 $154 1.0535116570800517e-033 $150 $290 forward 7 unknown #
coedge $-1 $291 $283 $151 $223 reversed $292 $-1 #
edge $-1 $289 -0.28100000000000003 $153 0 $222 $293 forward 7 unknown #
face $-1 $294 $152 $23 $-1 $295 reversed single #
edge $-1 $153 0 $296 0.28100000000000003 $282 $293 forward 7 unknown #
point $-1 0.28100000000000003 0.0155 0 #
edge $-1 $154 1.0535116570800517e-033 $297 0.28100000000000003 $298 $290 forward 7 unknown #
point $-1 -1.0535116570800517e-033 0.0155 0.28100000000000003 #
convexity-sys-attrib $-1 $-1 $157 $107 #
model_id-kcp-attrib $-1 $-1 $-1 $158 1 990560056 60 1144782849 12 #
point $-1 0.1875 0.031 0 #
plane-surface $-1 0.28100000000000003 0 0 -1 0 0 0 0 1 forward_v I I I I #
coedge $-1 $170 $168 $172 $237 reversed $116 $-1 #
edge $-1 $183 -0.28100000000000003 $239 0.28100000000000003 $182 $299 forward 7 unknown #
vertex $-1 $237 $300 #
straight-curve $-1 -0.28100000000000003 -0.0155 0 0 0 -1 I I #
edge $-1 $235 -0.0155 $239 0.0155 $233 $301 forward 7 unknown #
straight-curve $-1 0 -0.0155 -0.28100000000000003 -1 0 0 I I #
vertex $-1 $175 $302 #
straight-curve $-1 0 0.0155 -0.28100000000000003 1 0 0 I I #
point $-1 0.28100000000000003 0.0155 -0.28100000000000003 #
point $-1 0.28100000000000003 -0.0155 -0.28100000000000003 #
straight-curve $-1 -0.28100000000000003 0 0.28100000000000003 0 -1 0 I I #
point $-1 -0.28100000000000003 0.0155 0.28100000000000003 #
point $-1 -0.28100000000000003 -0.0155 0.28100000000000003 #
straight-curve $-1 0.28100000000000003 -0.0155 0 0 0 -1 I I #
straight-curve $-1 0.28100000000000003 0.0155 0 0 0 -1 I I #
point $-1 0.1875 0 0.015500000000000073 #
face $-1 $303 $304 $23 $-1 $305 reversed single #
loop $-1 $-1 $213 $195 #
plane-surface $-1 0.28100000000000003 0 0 -1 0 0 0 0 1 forward_v I I I I #
coedge $-1 $306 $198 $307 $308 reversed $139 $-1 #
coedge $-1 $198 $306 $309 $310 reversed $139 $-1 #
coedge $-1 $311 $312 $313 $201 forward $314 $-1 #
coedge $-1 $315 $316 $199 $256 forward $317 $-1 #
edge $-1 $214 0 $260 1.5707963267948966 $255 $210 forward 7 unknown #
coedge $-1 $318 $319 $200 $258 forward $320 $-1 #
edge $-1 $259 -1.5707963267948966 $153 0 $257 $155 forward 7 unknown #
vertex $-1 $321 $322 #
vertex $-1 $323 $324 #
straight-curve $-1 -1.0535116570800517e-033 -0.0155 -0.28100000000000003 0 -1 0 I I #
coedge $-1 $325 $298 $202 $263 forward $326 $-1 #
edge $-1 $154 1.5707963267948966 $268 3.1415926535897931 $262 $155 forward 7 unknown #
coedge $-1 $327 $203 $206 $272 reversed $267 $-1 #
coedge $-1 $203 $327 $325 $328 forward $267 $-1 #
coedge $-1 $329 $330 $306 $204 reversed $304 $-1 #
loop $-1 $-1 $203 $331 #
vertex $-1 $332 $333 #
straight-curve $-1 -0.28100000000000003 -0.0155 0 0 -1 0 I I #
coedge $-1 $218 $334 $205 $271 forward $196 $-1 #
edge $-1 $335 -0.28100000000000003 $209 -1.0535116570800517e-033 $205 $336 forward 7 unknown #
edge $-1 $335 -0.28100000000000003 $208 0 $264 $337 forward 7 unknown #
face $-1 $338 $207 $23 $-1 $339 reversed single #
edge $-1 $208 0 $340 0.28100000000000003 $330 $337 forward 7 unknown #
point $-1 -0.28100000000000003 -0.0155 0 #
edge $-1 $209 -1.0535116570800517e-033 $341 0.28100000000000003 $279 $336 forward 7 unknown #
point $-1 -1.0535116570800517e-033 -0.0155 0.28100000000000003 #
coedge $-1 $279 $211 $342 $343 reversed $280 $-1 #
coedge $-1 $211 $278 $216 $276 reversed $280 $-1 #
loop $-1 $-1 $211 $338 #
coedge $-1 $344 $213 $316 $284 forward $250 $-1 #
coedge $-1 $213 $344 $318 $225 reversed $250 $-1 #
coedge $-1 $222 $342 $100 $147 reversed $292 $-1 #
edge $-1 $214 0 $345 0.28100000000000003 $281 $346 forward 7 unknown #
point $-1 0.28100000000000003 -0.0155 0 #
coedge $-1 $217 $216 $291 $347 forward $219 $-1 #
coedge $-1 $334 $218 $298 $227 forward $196 $-1 #
face $-1 $348 $219 $23 $-1 $197 forward single #
vertex $-1 $347 $349 #
straight-curve $-1 0 0.0155 0.28100000000000003 -1 0 0 I I #
coedge $-1 $342 $222 $286 $347 reversed $292 $-1 #
loop $-1 $-1 $283 $350 #
straight-curve $-1 0.28100000000000003 0.0155 0 0 0 -1 I I #
face $-1 $351 $326 $23 $-1 $295 reversed single #
plane-surface $-1 0 0.0155 0 0 -1 0 0 0 -1 forward_v I I I I #
vertex $-1 $352 $353 #
vertex $-1 $227 $354 #
coedge $-1 $262 $325 $287 $227 reversed $326 $-1 #
straight-curve $-1 -0.28100000000000003 0.0155 0 0 0 -1 I I #
point $-1 -0.28100000000000003 -0.0155 -0.28100000000000003 #
straight-curve $-1 -0.28100000000000003 0 -0.28100000000000003 0 1 0 I I #
point $-1 -0.28100000000000003 0.0155 -0.28100000000000003 #
face $-1 $273 $355 $23 $-1 $339 reversed single #
loop $-1 $-1 $266 $249 #
plane-surface $-1 -0.28100000000000003 0 0 1 0 0 0 0 -1 forward_v I I I I #
coedge $-1 $253 $252 $141 $204 forward $139 $-1 #
coedge $-1 $356 $357 $252 $308 forward $358 $-1 #
edge $-1 $268 -3.1415926535897931 $259 -1.5707963267948966 $307 $155 forward 7 unknown #
coedge $-1 $359 $360 $253 $310 forward $355 $-1 #
edge $-1 $260 1.5707963267948966 $208 3.1415926535897931 $309 $210 forward 7 unknown #
coedge $-1 $361 $254 $360 $323 forward $314 $-1 #
coedge $-1 $254 $361 $356 $362 forward $314 $-1 #
coedge $-1 $363 $364 $140 $201 reversed $365 $-1 #
loop $-1 $-1 $254 $348 #
coedge $-1 $316 $255 $364 $366 reversed $317 $-1 #
coedge $-1 $255 $315 $281 $284 reversed $317 $-1 #
loop $-1 $-1 $255 $367 #
coedge $-1 $319 $257 $282 $225 forward $320 $-1 #
coedge $-1 $257 $318 $363 $321 reversed $320 $-1 #
loop $-1 $-1 $257 $368 #
edge $-1 $259 -1.0535116570800517e-033 $296 0.28100000000000003 $319 $369 forward 7 unknown #
point $-1 -1.0535116570800517e-033 0.0155 -0.28100000000000003 #
edge $-1 $260 1.0535116570800517e-033 $340 0.28100000000000003 $360 $370 forward 7 unknown #
point $-1 -1.0535116570800517e-033 -0.0155 -0.28100000000000003 #
coedge $-1 $298 $262 $265 $328 reversed $326 $-1 #
loop $-1 $-1 $262 $294 #
coedge $-1 $265 $264 $334 $371 reversed $267 $-1 #
edge $-1 $297 -0.28100000000000003 $268 0 $325 $372 forward 7 unknown #
coedge $-1 $373 $266 $357 $332 forward $304 $-1 #
coedge $-1 $266 $373 $359 $274 reversed $304 $-1 #
face $-1 $350 $267 $23 $-1 $305 reversed single #
edge $-1 $268 0 $374 0.28100000000000003 $357 $372 forward 7 unknown #
point $-1 -0.28100000000000003 0.0155 0 #
coedge $-1 $270 $287 $327 $371 forward $196 $-1 #
vertex $-1 $371 $375 #
straight-curve $-1 0 -0.0155 0.28100000000000003 1 0 0 I I #
straight-curve $-1 -0.28100000000000003 -0.0155 0 0 0 -1 I I #
face $-1 $367 $280 $23 $-1 $339 reversed single #
plane-surface $-1 0 -0.0155 0 0 1 0 0 0 1 forward_v I I I I #
vertex $-1 $376 $377 #
vertex $-1 $347 $378 #
coedge $-1 $283 $291 $278 $343 forward $292 $-1 #
edge $-1 $341 -0.28100000000000003 $214 0 $342 $346 forward 7 unknown #
coedge $-1 $282 $281 $379 $352 reversed $250 $-1 #
vertex $-1 $284 $380 #
straight-curve $-1 0.28100000000000003 -0.0155 0 0 0 -1 I I #
edge $-1 $341 -0.0155 $289 0.0155 $291 $381 forward 7 unknown #
face $-1 $331 $314 $23 $-1 $382 reversed single #
point $-1 0.28100000000000003 0.0155 0.28100000000000003 #
face $-1 $-1 $292 $23 $-1 $251 reversed single #
face $-1 $383 $358 $23 $-1 $295 reversed single #
edge $-1 $296 -0.0155 $345 0.0155 $344 $384 forward 7 unknown #
point $-1 0.28100000000000003 0.0155 -0.28100000000000003 #
point $-1 -0.28100000000000003 0.0155 0.28100000000000003 #
loop $-1 $-1 $309 $303 #
coedge $-1 $357 $307 $312 $362 reversed $358 $-1 #
coedge $-1 $307 $356 $329 $332 reversed $358 $-1 #
loop $-1 $-1 $307 $351 #
coedge $-1 $360 $309 $330 $274 forward $355 $-1 #
coedge $-1 $309 $359 $311 $323 reversed $355 $-1 #
coedge $-1 $312 $311 $373 $376 forward $314 $-1 #
edge $-1 $374 -0.28100000000000003 $259 -1.0535116570800517e-033 $356 $369 forward 7 unknown #
coedge $-1 $379 $313 $319 $321 forward $365 $-1 #
coedge $-1 $313 $379 $315 $366 forward $365 $-1 #
loop $-1 $-1 $313 $383 #
edge $-1 $345 -0.28100000000000003 $260 1.0535116570800517e-033 $315 $370 forward 7 unknown #
face $-1 $368 $317 $23 $-1 $339 reversed single #
face $-1 $224 $320 $23 $-1 $295 reversed single #
straight-curve $-1 0 0.0155 -0.28100000000000003 1 0 0 I I #
straight-curve $-1 0 -0.0155 -0.28100000000000003 -1 0 0 I I #
edge $-1 $297 -0.0155 $335 0.0155 $327 $385 forward 7 unknown #
straight-curve $-1 -0.28100000000000003 0.0155 0 0 0 -1 I I #
coedge $-1 $330 $329 $361 $376 reversed $304 $-1 #
vertex $-1 $362 $386 #
point $-1 -0.28100000000000003 -0.0155 0.28100000000000003 #
edge $-1 $340 -0.0155 $374 0.0155 $373 $387 forward 7 unknown #
point $-1 -0.28100000000000003 -0.0155 -0.28100000000000003 #
point $-1 0.28100000000000003 -0.0155 0.28100000000000003 #
coedge $-1 $364 $363 $344 $352 forward $365 $-1 #
point $-1 0.28100000000000003 -0.0155 -0.28100000000000003 #
straight-curve $-1 0.28100000000000003 0 0.28100000000000003 0 1 0 I I #
plane-surface $-1 0 0 -0.28100000000000003 0 0 1 1 0 0 forward_v I I I I #
face $-1 $288 $365 $23 $-1 $382 reversed single #
straight-curve $-1 0.28100000000000003 0 -0.28100000000000003 0 -1 0 I I #
straight-curve $-1 -0.28100000000000003 0 0.28100000000000003 0 -1 0 I I #
point $-1 -0.28100000000000003 0.0155 -0.28100000000000003 #
straight-curve $-1 -0.28100000000000003 0 -0.28100000000000003 0 1 0 I I #
End-of-ACIS-data 