700 0 2 0           
24 FBMach with ACIS - 7.0.3 13 ACIS 7.0.3 NT 24 Tue May 14 14:20:40 2002 
1 9.9999999999999995e-007 1e-010 
body $2 -1 $-1 $3 $-1 $4 #
bdycol-kcp $-1 -1 1 3 $5 $6 $7 #
model_id-kcp-attrib $-1 -1 $-1 $-1 $0 1 1021400440 1021400440 -1999765503 1 #
lump $-1 -1 $-1 $-1 $8 $0 #
transform $-1 -1 1 0 0 0 1 0 0 0 1 0 0 0 1 rotate no_reflect no_shear #
body $9 -1 $-1 $10 $-1 $11 #
body $12 -1 $-1 $13 $-1 $14 #
body $15 -1 $-1 $16 $-1 $17 #
shell $-1 -1 $-1 $-1 $-1 $18 $-1 $3 #
rgb_color-st-attrib $-1 -1 $19 $-1 $5 0.5 1 1 #
lump $-1 -1 $-1 $-1 $20 $5 #
transform $-1 -1 1 0 0 0 1 0 0 0 1 0 0.0155 0 1 no_rotate no_reflect no_shear #
model_id-kcp-attrib $-1 -1 $-1 $-1 $6 1 1021400440 1021400440 -1999765502 1 #
lump $-1 -1 $-1 $-1 $21 $6 #
transform $-1 -1 1 0 0 0 1 0 0 0 1 0 0.0155 0 1 no_rotate no_reflect no_shear #
rgb_color-st-attrib $-1 -1 $22 $-1 $7 0.5 1 1 #
lump $-1 -1 $-1 $-1 $23 $7 #
transform $-1 -1 1 0 0 0 -3.8285889215894375e-016 1 0 -1 -3.8285889215894375e-016 0 0.0155 -5.9343128284636282e-018 1 rotate no_reflect no_shear #
face $24 -1 $-1 $25 $26 $8 $-1 $27 reversed single #
model_id-kcp-attrib $-1 -1 $-1 $9 $5 1 1021400440 1021400440 -2013265916 1 #
shell $-1 -1 $-1 $-1 $-1 $28 $-1 $10 #
shell $-1 -1 $-1 $-1 $-1 $29 $-1 $13 #
model_id-kcp-attrib $-1 -1 $-1 $15 $7 1 1021400440 1021400440 -1999110141 1 #
shell $-1 -1 $-1 $-1 $-1 $30 $-1 $16 #
model_id-kcp-attrib $-1 -1 $-1 $-1 $18 1 1021400440 1021400440 -1999765503 2 #
face $31 -1 $-1 $32 $33 $8 $-1 $34 forward single #
loop $-1 -1 $-1 $35 $36 $18 #
plane-surface $-1 -1 $-1 0 0 0 0 1 0 0 0 1 forward_v I I I I #
face $-1 -1 $-1 $37 $38 $20 $-1 $39 reversed single #
face $-1 -1 $-1 $40 $41 $21 $-1 $42 forward single #
face $-1 -1 $-1 $43 $44 $23 $-1 $45 forward single #
model_id-kcp-attrib $-1 -1 $-1 $-1 $25 1 1021400440 1021400440 -1999765503 3 #
face $46 -1 $-1 $47 $48 $8 $-1 $49 forward single #
loop $-1 -1 $-1 $50 $51 $25 #
plane-surface $-1 -1 $-1 0 0.031 0 0 1 0 0 0 1 forward_v I I I I #
loop $52 -1 $-1 $-1 $53 $18 #
coedge $-1 -1 $-1 $36 $36 $54 $55 forward $26 $-1 #
face $-1 -1 $-1 $56 $57 $20 $-1 $39 reversed single #
loop $-1 -1 $-1 $-1 $58 $28 #
cone-surface $-1 -1 $-1 -1.0535116570800517e-033 -0.0155 0 0 -1 0 0.28100000000000003 0 0 1 I I 0 1 0.28100000000000003 forward I I I I #
face $-1 -1 $-1 $59 $60 $21 $-1 $61 reversed single #
loop $-1 -1 $-1 $-1 $62 $29 #
plane-surface $-1 -1 $-1 0 0 0.28100000000000003 0 0 1 1 0 0 forward_v I I I I #
face $-1 -1 $-1 $63 $64 $23 $-1 $65 forward single #
loop $-1 -1 $-1 $66 $67 $30 #
cone-surface $-1 -1 $-1 0 0 0 0 0 1 0.1875 0 0 1 I I 0 1 0.1875 forward I I I I #
model_id-kcp-attrib $-1 -1 $-1 $-1 $32 1 1021400440 1021400440 -1999765503 4 #
face $68 -1 $-1 $-1 $69 $8 $-1 $70 reversed single #
loop $-1 -1 $-1 $71 $72 $32 #
cone-surface $-1 -1 $-1 0 0 0 0 1 0 0.28100000000000003 0 0 1 I I 0 1 0.28100000000000003 forward I I I I #
loop $73 -1 $-1 $-1 $74 $25 #
coedge $-1 -1 $-1 $51 $51 $72 $75 reversed $33 $-1 #
model_id-kcp-attrib $-1 -1 $-1 $-1 $35 1 1021400440 1021400440 -1999765503 11 #
coedge $-1 -1 $-1 $53 $53 $76 $77 forward $35 $-1 #
coedge $-1 -1 $-1 $54 $54 $36 $55 reversed $71 $-1 #
edge $78 -1 $-1 $79 -3.1415926535897931 $79 3.1415926535897931 $54 $80 forward @7 unknown #
face $-1 -1 $-1 $81 $82 $20 $-1 $39 reversed single #
loop $-1 -1 $-1 $-1 $83 $37 #
coedge $-1 -1 $-1 $84 $85 $86 $87 reversed $38 $-1 #
face $88 -1 $-1 $89 $90 $21 $-1 $91 reversed single #
loop $-1 -1 $-1 $-1 $92 $40 #
plane-surface $-1 -1 $-1 0 0 -0.28100000000000003 0 0 1 1 0 0 forward_v I I I I #
coedge $-1 -1 $-1 $93 $94 $95 $96 forward $41 $-1 #
face $-1 -1 $-1 $-1 $97 $23 $-1 $98 forward single #
loop $-1 -1 $-1 $-1 $99 $43 #
plane-surface $-1 -1 $-1 0 0 -0.015500000000000073 0 0 -1 -1 0 0 forward_v I I I I #
loop $-1 -1 $-1 $-1 $100 $30 #
coedge $-1 -1 $-1 $67 $67 $99 $101 reversed $44 $-1 #
model_id-kcp-attrib $-1 -1 $-1 $-1 $47 1 1021400440 1021400440 -1999765503 5 #
loop $102 -1 $-1 $103 $104 $47 #
cone-surface $-1 -1 $-1 0 0.031 0 0 -1 0 0.1875 0 0 1 I I 0 1 0.1875 forward I I I I #
loop $-1 -1 $-1 $-1 $54 $32 #
coedge $-1 -1 $-1 $72 $72 $51 $75 forward $48 $-1 #
model_id-kcp-attrib $-1 -1 $-1 $-1 $50 1 1021400440 1021400440 -1999765503 10 #
coedge $-1 -1 $-1 $74 $74 $104 $105 reversed $50 $-1 #
edge $-1 -1 $-1 $106 0 $106 6.2831853071795862 $72 $107 forward @7 unknown #
coedge $-1 -1 $-1 $76 $76 $53 $77 reversed $103 $-1 #
edge $108 -1 $-1 $109 -3.1415926535897931 $109 3.1415926535897931 $76 $110 forward @7 unknown #
attrib_edge_convexity-kcp-attrib $-1 -1 $111 $-1 $55 1 #
vertex $-1 -1 $-1 $55 $112 #
ellipse-curve $-1 -1 $-1 0 0 0 0 -1 0 -0.28100000000000003 0 0 1 I I #
face $-1 -1 $-1 $113 $114 $20 $-1 $39 reversed single #
loop $-1 -1 $-1 $-1 $115 $56 #
coedge $-1 -1 $-1 $116 $117 $118 $119 reversed $57 $-1 #
coedge $-1 -1 $-1 $120 $58 $121 $122 forward $38 $-1 #
coedge $-1 -1 $-1 $58 $120 $123 $124 reversed $38 $-1 #
coedge $-1 -1 $-1 $125 $126 $58 $87 forward $127 $-1 #
edge $-1 -1 $-1 $128 0 $129 1.5707963267948966 $86 $130 forward @7 unknown #
model_id-kcp-attrib $-1 -1 $-1 $-1 $59 1 1021400440 1021400440 -1999765502 2 #
face $-1 -1 $-1 $131 $132 $21 $-1 $133 reversed single #
loop $-1 -1 $-1 $-1 $134 $59 #
plane-surface $-1 -1 $-1 0 -0.0155 0 0 1 0 0 0 1 forward_v I I I I #
coedge $-1 -1 $-1 $135 $136 $137 $138 forward $60 $-1 #
coedge $-1 -1 $-1 $139 $62 $140 $141 forward $41 $-1 #
coedge $-1 -1 $-1 $62 $139 $142 $143 forward $41 $-1 #
coedge $-1 -1 $-1 $144 $145 $62 $96 reversed $146 $-1 #
edge $-1 -1 $-1 $147 -0.0155 $148 0.0155 $95 $149 forward @7 unknown #
loop $-1 -1 $-1 $-1 $150 $63 #
plane-surface $-1 -1 $-1 0 0 0.015500000000000073 0 0 1 1 0 0 forward_v I I I I #
coedge $-1 -1 $-1 $99 $99 $67 $101 forward $64 $-1 #
coedge $-1 -1 $-1 $100 $100 $150 $151 reversed $66 $-1 #
edge $-1 -1 $-1 $152 0 $152 6.2831853071795862 $99 $153 forward @7 unknown #
model_id-kcp-attrib $-1 -1 $-1 $-1 $69 1 1021400440 1021400440 -1999765503 8 #
loop $154 -1 $-1 $-1 $76 $47 #
coedge $-1 -1 $-1 $104 $104 $74 $105 forward $69 $-1 #
edge $155 -1 $-1 $156 0 $156 6.2831853071795862 $104 $157 forward @7 unknown #
vertex $-1 -1 $-1 $75 $158 #
ellipse-curve $-1 -1 $-1 0 0.031 0 0 -1 0 0.28100000000000003 0 0 1 I I #
attrib_edge_convexity-kcp-attrib $-1 -1 $159 $-1 $77 1 #
vertex $160 -1 $-1 $77 $161 #
ellipse-curve $-1 -1 $-1 0 0 0 0 1 0 -0.1875 0 0 1 I I #
convexity-sys-attrib $-1 -1 $-1 $78 $55 #
point $-1 -1 $-1 0.28100000000000003 0 0 #
face $-1 -1 $-1 $162 $163 $20 $-1 $164 forward single #
loop $-1 -1 $-1 $-1 $165 $81 #
coedge $-1 -1 $-1 $166 $167 $165 $168 forward $82 $-1 #
coedge $-1 -1 $-1 $169 $83 $170 $171 reversed $57 $-1 #
coedge $-1 -1 $-1 $83 $169 $85 $124 forward $57 $-1 #
coedge $-1 -1 $-1 $172 $173 $83 $119 forward $174 $-1 #
edge $-1 -1 $-1 $175 -3.1415926535897931 $176 -1.5707963267948966 $118 $177 forward @7 unknown #
coedge $-1 -1 $-1 $85 $84 $178 $179 reversed $38 $-1 #
coedge $-1 -1 $-1 $167 $166 $180 $122 reversed $82 $-1 #
edge $-1 -1 $-1 $128 -0.031 $181 0 $180 $182 forward @7 unknown #
coedge $-1 -1 $-1 $183 $184 $185 $124 forward $186 $-1 #
edge $-1 -1 $-1 $129 -0.031 $176 0 $123 $187 forward @7 unknown #
coedge $-1 -1 $-1 $126 $86 $184 $188 reversed $127 $-1 #
coedge $-1 -1 $-1 $86 $125 $189 $190 forward $127 $-1 #
loop $-1 -1 $-1 $-1 $86 $191 #
vertex $-1 -1 $-1 $192 $193 #
vertex $-1 -1 $-1 $194 $195 #
ellipse-curve $-1 -1 $-1 -1.0535116570800517e-033 0.0155 0 0 -1 0 0.28100000000000003 0 0 1 I I #
face $196 -1 $-1 $197 $198 $21 $-1 $199 reversed single #
loop $-1 -1 $-1 $-1 $200 $89 #
plane-surface $-1 -1 $-1 -0.28100000000000003 0 0 1 0 0 0 0 -1 forward_v I I I I #
coedge $-1 -1 $-1 $201 $142 $202 $203 forward $90 $-1 #
coedge $-1 -1 $-1 $204 $92 $201 $205 forward $60 $-1 #
coedge $-1 -1 $-1 $92 $204 $206 $207 forward $60 $-1 #
coedge $-1 -1 $-1 $145 $144 $92 $138 reversed $146 $-1 #
edge $-1 -1 $-1 $208 -0.0155 $209 0.0155 $137 $210 forward @7 unknown #
coedge $-1 -1 $-1 $94 $93 $211 $212 forward $41 $-1 #
coedge $-1 -1 $-1 $213 $214 $93 $141 reversed $198 $-1 #
edge $-1 -1 $-1 $148 -0.28100000000000003 $215 0.28100000000000003 $140 $216 forward @7 unknown #
coedge $-1 -1 $-1 $134 $217 $94 $143 reversed $90 $-1 #
edge $-1 -1 $-1 $218 -0.28100000000000003 $147 0.28100000000000003 $142 $219 forward @7 unknown #
coedge $-1 -1 $-1 $137 $95 $217 $220 forward $146 $-1 #
coedge $-1 -1 $-1 $95 $137 $213 $221 reversed $146 $-1 #
loop $-1 -1 $-1 $-1 $144 $197 #
vertex $-1 -1 $-1 $96 $222 #
vertex $-1 -1 $-1 $96 $223 #
straight-curve $-1 -1 $-1 0.28100000000000003 0 0.28100000000000003 0 1 0 I I #
coedge $-1 -1 $-1 $150 $150 $100 $151 forward $97 $-1 #
edge $-1 -1 $-1 $224 0 $224 6.2831853071795862 $150 $225 forward @7 unknown #
vertex $-1 -1 $-1 $101 $226 #
ellipse-curve $-1 -1 $-1 0 0 -0.015500000000000073 0 0 -1 0.1875 0 0 1 I I #
model_id-kcp-attrib $-1 -1 $-1 $-1 $103 1 1021400440 1021400440 -1999765503 9 #
attrib_edge_convexity-kcp-attrib $-1 -1 $227 $-1 $105 1 #
vertex $228 -1 $-1 $105 $229 #
ellipse-curve $-1 -1 $-1 0 0.031 0 0 1 0 0.1875 0 0 1 I I #
point $-1 -1 $-1 0.28100000000000003 0.031 0 #
convexity-sys-attrib $-1 -1 $-1 $108 $77 #
model_id-kcp-attrib $-1 -1 $-1 $-1 $109 1 1021400440 1021400440 -1999765503 13 #
point $-1 -1 $-1 0.1875 0 0 #
face $-1 -1 $-1 $230 $231 $20 $-1 $232 reversed single #
loop $-1 -1 $-1 $-1 $185 $113 #
plane-surface $-1 -1 $-1 0 0 0.28100000000000003 0 0 1 1 0 0 forward_v I I I I #
coedge $-1 -1 $-1 $233 $234 $235 $168 reversed $114 $-1 #
coedge $-1 -1 $-1 $121 $115 $236 $237 reversed $82 $-1 #
coedge $-1 -1 $-1 $115 $121 $238 $239 reversed $82 $-1 #
edge $-1 -1 $-1 $240 -0.031 $241 0 $235 $242 forward @7 unknown #
coedge $-1 -1 $-1 $117 $116 $243 $244 reversed $57 $-1 #
coedge $-1 -1 $-1 $245 $246 $247 $171 forward $248 $-1 #
edge $-1 -1 $-1 $249 -0.031 $175 0 $170 $250 forward @7 unknown #
coedge $-1 -1 $-1 $173 $118 $251 $252 reversed $174 $-1 #
coedge $-1 -1 $-1 $118 $172 $245 $253 forward $174 $-1 #
loop $-1 -1 $-1 $-1 $118 $254 #
vertex $-1 -1 $-1 $255 $256 #
vertex $-1 -1 $-1 $257 $258 #
ellipse-curve $-1 -1 $-1 -1.0535116570800517e-033 -0.0155 0 0 1 0 0.28100000000000003 0 0 1 I I #
coedge $-1 -1 $-1 $259 $260 $120 $179 forward $261 $-1 #
edge $-1 -1 $-1 $176 -1.5707963267948966 $181 0 $178 $177 forward @7 unknown #
coedge $-1 -1 $-1 $262 $263 $264 $122 forward $231 $-1 #
vertex $-1 -1 $-1 $265 $266 #
straight-curve $-1 -1 $-1 0.28100000000000003 -0.0155 0 0 -1 0 I I #
coedge $-1 -1 $-1 $267 $123 $260 $257 forward $186 $-1 #
coedge $-1 -1 $-1 $123 $267 $125 $188 forward $186 $-1 #
coedge $-1 -1 $-1 $268 $251 $117 $124 reversed $163 $-1 #
loop $-1 -1 $-1 $-1 $123 $269 #
straight-curve $-1 -1 $-1 -1.0535116570800517e-033 -0.0155 0.28100000000000003 0 -1 0 I I #
edge $-1 -1 $-1 $270 -0.28100000000000003 $129 1.0535116570800517e-033 $125 $271 forward @7 unknown #
coedge $-1 -1 $-1 $272 $264 $126 $190 reversed $273 $-1 #
edge $-1 -1 $-1 $270 -0.28100000000000003 $128 0 $189 $274 forward @7 unknown #
face $-1 -1 $-1 $275 $127 $20 $-1 $276 reversed single #
edge $-1 -1 $-1 $128 0 $277 0.28100000000000003 $263 $274 forward @7 unknown #
point $-1 -1 $-1 0.28100000000000003 0.0155 0 #
edge $-1 -1 $-1 $129 1.0535116570800517e-033 $278 0.28100000000000003 $279 $271 forward @7 unknown #
point $-1 -1 $-1 -1.0535116570800517e-033 0.0155 0.28100000000000003 #
model_id-kcp-attrib $-1 -1 $-1 $-1 $131 1 1021400440 1021400440 -1999765502 3 #
face $-1 -1 $-1 $-1 $146 $21 $-1 $280 reversed single #
loop $-1 -1 $-1 $-1 $213 $131 #
plane-surface $-1 -1 $-1 0 0.0155 0 0 -1 0 0 0 -1 forward_v I I I I #
coedge $-1 -1 $-1 $281 $211 $214 $282 forward $132 $-1 #
coedge $-1 -1 $-1 $217 $134 $135 $205 reversed $90 $-1 #
coedge $-1 -1 $-1 $211 $281 $134 $203 reversed $132 $-1 #
edge $-1 -1 $-1 $218 -0.28100000000000003 $283 0.28100000000000003 $202 $284 forward @7 unknown #
coedge $-1 -1 $-1 $136 $135 $281 $285 forward $60 $-1 #
edge $-1 -1 $-1 $209 -0.28100000000000003 $283 0.28100000000000003 $201 $286 forward @7 unknown #
coedge $-1 -1 $-1 $214 $213 $136 $207 reversed $198 $-1 #
edge $-1 -1 $-1 $287 -0.28100000000000003 $208 0.28100000000000003 $206 $288 forward @7 unknown #
vertex $-1 -1 $-1 $138 $289 #
vertex $-1 -1 $-1 $220 $290 #
straight-curve $-1 -1 $-1 0.28100000000000003 0 -0.28100000000000003 0 -1 0 I I #
coedge $-1 -1 $-1 $200 $202 $139 $212 reversed $132 $-1 #
edge $-1 -1 $-1 $215 -0.0155 $218 0.0155 $211 $291 forward @7 unknown #
coedge $-1 -1 $-1 $206 $140 $145 $221 forward $198 $-1 #
coedge $-1 -1 $-1 $140 $206 $200 $282 reversed $198 $-1 #
vertex $-1 -1 $-1 $141 $292 #
straight-curve $-1 -1 $-1 0 0.0155 0.28100000000000003 -1 0 0 I I #
coedge $-1 -1 $-1 $142 $201 $144 $220 reversed $90 $-1 #
vertex $-1 -1 $-1 $212 $293 #
straight-curve $-1 -1 $-1 0 -0.0155 0.28100000000000003 1 0 0 I I #
edge $-1 -1 $-1 $147 -0.28100000000000003 $209 0.28100000000000003 $144 $294 forward @7 unknown #
edge $-1 -1 $-1 $148 -0.28100000000000003 $208 0.28100000000000003 $145 $295 forward @7 unknown #
point $-1 -1 $-1 0.28100000000000003 -0.0155 0.28100000000000003 #
point $-1 -1 $-1 0.28100000000000003 0.0155 0.28100000000000003 #
vertex $-1 -1 $-1 $151 $296 #
ellipse-curve $-1 -1 $-1 0 0 0.015500000000000073 0 0 1 0.1875 0 0 1 I I #
point $-1 -1 $-1 0.1875 0 -0.015500000000000073 #
convexity-sys-attrib $-1 -1 $-1 $155 $105 #
model_id-kcp-attrib $-1 -1 $-1 $-1 $156 1 1021400440 1021400440 -1999765503 12 #
point $-1 -1 $-1 0.1875 0.031 0 #
face $-1 -1 $-1 $297 $298 $20 $-1 $299 reversed single #
loop $-1 -1 $-1 $-1 $180 $162 #
plane-surface $-1 -1 $-1 0.28100000000000003 0 0 -1 0 0 0 0 1 forward_v I I I I #
coedge $-1 -1 $-1 $300 $165 $301 $302 reversed $114 $-1 #
coedge $-1 -1 $-1 $165 $300 $303 $304 reversed $114 $-1 #
coedge $-1 -1 $-1 $305 $306 $307 $168 forward $308 $-1 #
coedge $-1 -1 $-1 $309 $310 $166 $237 forward $311 $-1 #
edge $-1 -1 $-1 $181 0 $241 1.5707963267948966 $236 $177 forward @7 unknown #
coedge $-1 -1 $-1 $312 $313 $167 $239 forward $314 $-1 #
edge $-1 -1 $-1 $240 -1.5707963267948966 $128 0 $238 $130 forward @7 unknown #
vertex $-1 -1 $-1 $315 $316 #
vertex $-1 -1 $-1 $317 $318 #
straight-curve $-1 -1 $-1 -1.0535116570800517e-033 -0.0155 -0.28100000000000003 0 -1 0 I I #
coedge $-1 -1 $-1 $319 $279 $169 $244 forward $320 $-1 #
edge $-1 -1 $-1 $129 1.5707963267948966 $249 3.1415926535897931 $243 $130 forward @7 unknown #
coedge $-1 -1 $-1 $321 $170 $173 $253 reversed $248 $-1 #
coedge $-1 -1 $-1 $170 $321 $319 $322 forward $248 $-1 #
coedge $-1 -1 $-1 $323 $324 $300 $171 reversed $298 $-1 #
loop $-1 -1 $-1 $-1 $170 $325 #
vertex $-1 -1 $-1 $326 $327 #
straight-curve $-1 -1 $-1 -0.28100000000000003 -0.0155 0 0 -1 0 I I #
coedge $-1 -1 $-1 $185 $328 $172 $252 forward $163 $-1 #
edge $-1 -1 $-1 $329 -0.28100000000000003 $176 -1.0535116570800517e-033 $172 $330 forward @7 unknown #
edge $-1 -1 $-1 $329 -0.28100000000000003 $175 0 $245 $331 forward @7 unknown #
face $-1 -1 $-1 $332 $174 $20 $-1 $333 reversed single #
edge $-1 -1 $-1 $175 0 $334 0.28100000000000003 $324 $331 forward @7 unknown #
point $-1 -1 $-1 -0.28100000000000003 -0.0155 0 #
edge $-1 -1 $-1 $176 -1.0535116570800517e-033 $335 0.28100000000000003 $260 $330 forward @7 unknown #
point $-1 -1 $-1 -1.0535116570800517e-033 -0.0155 0.28100000000000003 #
coedge $-1 -1 $-1 $260 $178 $336 $337 reversed $261 $-1 #
coedge $-1 -1 $-1 $178 $259 $183 $257 reversed $261 $-1 #
loop $-1 -1 $-1 $-1 $178 $332 #
coedge $-1 -1 $-1 $338 $180 $310 $265 forward $231 $-1 #
coedge $-1 -1 $-1 $180 $338 $312 $192 reversed $231 $-1 #
coedge $-1 -1 $-1 $189 $336 $84 $122 reversed $273 $-1 #
edge $-1 -1 $-1 $181 0 $339 0.28100000000000003 $262 $340 forward @7 unknown #
point $-1 -1 $-1 0.28100000000000003 -0.0155 0 #
coedge $-1 -1 $-1 $184 $183 $272 $341 forward $186 $-1 #
coedge $-1 -1 $-1 $328 $185 $279 $194 forward $163 $-1 #
face $-1 -1 $-1 $342 $186 $20 $-1 $164 forward single #
vertex $-1 -1 $-1 $341 $343 #
straight-curve $-1 -1 $-1 0 0.0155 0.28100000000000003 -1 0 0 I I #
coedge $-1 -1 $-1 $336 $189 $267 $341 reversed $273 $-1 #
loop $-1 -1 $-1 $-1 $264 $344 #
straight-curve $-1 -1 $-1 0.28100000000000003 0.0155 0 0 0 -1 I I #
face $-1 -1 $-1 $345 $320 $20 $-1 $276 reversed single #
plane-surface $-1 -1 $-1 0 0.0155 0 0 -1 0 0 0 -1 forward_v I I I I #
vertex $-1 -1 $-1 $346 $347 #
vertex $-1 -1 $-1 $194 $348 #
coedge $-1 -1 $-1 $243 $319 $268 $194 reversed $320 $-1 #
plane-surface $-1 -1 $-1 0.28100000000000003 0 0 -1 0 0 0 0 1 forward_v I I I I #
coedge $-1 -1 $-1 $202 $200 $204 $285 reversed $132 $-1 #
edge $-1 -1 $-1 $215 -0.28100000000000003 $287 0.28100000000000003 $214 $349 forward @7 unknown #
vertex $-1 -1 $-1 $285 $350 #
straight-curve $-1 -1 $-1 -0.28100000000000003 -0.0155 0 0 0 -1 I I #
edge $-1 -1 $-1 $283 -0.0155 $287 0.0155 $281 $351 forward @7 unknown #
straight-curve $-1 -1 $-1 0 -0.0155 -0.28100000000000003 -1 0 0 I I #
vertex $-1 -1 $-1 $207 $352 #
straight-curve $-1 -1 $-1 0 0.0155 -0.28100000000000003 1 0 0 I I #
point $-1 -1 $-1 0.28100000000000003 0.0155 -0.28100000000000003 #
point $-1 -1 $-1 0.28100000000000003 -0.0155 -0.28100000000000003 #
straight-curve $-1 -1 $-1 -0.28100000000000003 0 0.28100000000000003 0 -1 0 I I #
point $-1 -1 $-1 -0.28100000000000003 0.0155 0.28100000000000003 #
point $-1 -1 $-1 -0.28100000000000003 -0.0155 0.28100000000000003 #
straight-curve $-1 -1 $-1 0.28100000000000003 -0.0155 0 0 0 -1 I I #
straight-curve $-1 -1 $-1 0.28100000000000003 0.0155 0 0 0 -1 I I #
point $-1 -1 $-1 0.1875 0 0.015500000000000073 #
face $-1 -1 $-1 $254 $353 $20 $-1 $333 reversed single #
loop $-1 -1 $-1 $-1 $247 $230 #
plane-surface $-1 -1 $-1 -0.28100000000000003 0 0 1 0 0 0 0 -1 forward_v I I I I #
coedge $-1 -1 $-1 $234 $233 $116 $171 forward $114 $-1 #
coedge $-1 -1 $-1 $354 $355 $233 $302 forward $356 $-1 #
edge $-1 -1 $-1 $249 -3.1415926535897931 $240 -1.5707963267948966 $301 $130 forward @7 unknown #
coedge $-1 -1 $-1 $357 $358 $234 $304 forward $353 $-1 #
edge $-1 -1 $-1 $241 1.5707963267948966 $175 3.1415926535897931 $303 $177 forward @7 unknown #
coedge $-1 -1 $-1 $359 $235 $358 $317 forward $308 $-1 #
coedge $-1 -1 $-1 $235 $359 $354 $360 forward $308 $-1 #
coedge $-1 -1 $-1 $361 $362 $115 $168 reversed $363 $-1 #
loop $-1 -1 $-1 $-1 $235 $342 #
coedge $-1 -1 $-1 $310 $236 $362 $364 reversed $311 $-1 #
coedge $-1 -1 $-1 $236 $309 $262 $265 reversed $311 $-1 #
loop $-1 -1 $-1 $-1 $236 $365 #
coedge $-1 -1 $-1 $313 $238 $263 $192 forward $314 $-1 #
coedge $-1 -1 $-1 $238 $312 $361 $315 reversed $314 $-1 #
loop $-1 -1 $-1 $-1 $238 $366 #
edge $-1 -1 $-1 $240 -1.0535116570800517e-033 $277 0.28100000000000003 $313 $367 forward @7 unknown #
point $-1 -1 $-1 -1.0535116570800517e-033 0.0155 -0.28100000000000003 #
edge $-1 -1 $-1 $241 1.0535116570800517e-033 $334 0.28100000000000003 $358 $368 forward @7 unknown #
point $-1 -1 $-1 -1.0535116570800517e-033 -0.0155 -0.28100000000000003 #
coedge $-1 -1 $-1 $279 $243 $246 $322 reversed $320 $-1 #
loop $-1 -1 $-1 $-1 $243 $275 #
coedge $-1 -1 $-1 $246 $245 $328 $369 reversed $248 $-1 #
edge $-1 -1 $-1 $278 -0.28100000000000003 $249 0 $319 $370 forward @7 unknown #
coedge $-1 -1 $-1 $371 $247 $355 $326 forward $298 $-1 #
coedge $-1 -1 $-1 $247 $371 $357 $255 reversed $298 $-1 #
face $-1 -1 $-1 $344 $248 $20 $-1 $299 reversed single #
edge $-1 -1 $-1 $249 0 $372 0.28100000000000003 $355 $370 forward @7 unknown #
point $-1 -1 $-1 -0.28100000000000003 0.0155 0 #
coedge $-1 -1 $-1 $251 $268 $321 $369 forward $163 $-1 #
vertex $-1 -1 $-1 $369 $373 #
straight-curve $-1 -1 $-1 0 -0.0155 0.28100000000000003 1 0 0 I I #
straight-curve $-1 -1 $-1 -0.28100000000000003 -0.0155 0 0 0 -1 I I #
face $-1 -1 $-1 $365 $261 $20 $-1 $333 reversed single #
plane-surface $-1 -1 $-1 0 -0.0155 0 0 1 0 0 0 1 forward_v I I I I #
vertex $-1 -1 $-1 $374 $375 #
vertex $-1 -1 $-1 $341 $376 #
coedge $-1 -1 $-1 $264 $272 $259 $337 forward $273 $-1 #
edge $-1 -1 $-1 $335 -0.28100000000000003 $181 0 $336 $340 forward @7 unknown #
coedge $-1 -1 $-1 $263 $262 $377 $346 reversed $231 $-1 #
vertex $-1 -1 $-1 $265 $378 #
straight-curve $-1 -1 $-1 0.28100000000000003 -0.0155 0 0 0 -1 I I #
edge $-1 -1 $-1 $335 -0.0155 $270 0.0155 $272 $379 forward @7 unknown #
face $-1 -1 $-1 $325 $308 $20 $-1 $380 reversed single #
point $-1 -1 $-1 0.28100000000000003 0.0155 0.28100000000000003 #
face $-1 -1 $-1 $-1 $273 $20 $-1 $232 reversed single #
face $-1 -1 $-1 $381 $356 $20 $-1 $276 reversed single #
edge $-1 -1 $-1 $277 -0.0155 $339 0.0155 $338 $382 forward @7 unknown #
point $-1 -1 $-1 0.28100000000000003 0.0155 -0.28100000000000003 #
point $-1 -1 $-1 -0.28100000000000003 0.0155 0.28100000000000003 #
straight-curve $-1 -1 $-1 -0.28100000000000003 0.0155 0 0 0 -1 I I #
point $-1 -1 $-1 -0.28100000000000003 -0.0155 -0.28100000000000003 #
straight-curve $-1 -1 $-1 -0.28100000000000003 0 -0.28100000000000003 0 1 0 I I #
point $-1 -1 $-1 -0.28100000000000003 0.0155 -0.28100000000000003 #
loop $-1 -1 $-1 $-1 $303 $297 #
coedge $-1 -1 $-1 $355 $301 $306 $360 reversed $356 $-1 #
coedge $-1 -1 $-1 $301 $354 $323 $326 reversed $356 $-1 #
loop $-1 -1 $-1 $-1 $301 $345 #
coedge $-1 -1 $-1 $358 $303 $324 $255 forward $353 $-1 #
coedge $-1 -1 $-1 $303 $357 $305 $317 reversed $353 $-1 #
coedge $-1 -1 $-1 $306 $305 $371 $374 forward $308 $-1 #
edge $-1 -1 $-1 $372 -0.28100000000000003 $240 -1.0535116570800517e-033 $354 $367 forward @7 unknown #
coedge $-1 -1 $-1 $377 $307 $313 $315 forward $363 $-1 #
coedge $-1 -1 $-1 $307 $377 $309 $364 forward $363 $-1 #
loop $-1 -1 $-1 $-1 $307 $381 #
edge $-1 -1 $-1 $339 -0.28100000000000003 $241 1.0535116570800517e-033 $309 $368 forward @7 unknown #
face $-1 -1 $-1 $366 $311 $20 $-1 $333 reversed single #
face $-1 -1 $-1 $191 $314 $20 $-1 $276 reversed single #
straight-curve $-1 -1 $-1 0 0.0155 -0.28100000000000003 1 0 0 I I #
straight-curve $-1 -1 $-1 0 -0.0155 -0.28100000000000003 -1 0 0 I I #
edge $-1 -1 $-1 $278 -0.0155 $329 0.0155 $321 $383 forward @7 unknown #
straight-curve $-1 -1 $-1 -0.28100000000000003 0.0155 0 0 0 -1 I I #
coedge $-1 -1 $-1 $324 $323 $359 $374 reversed $298 $-1 #
vertex $-1 -1 $-1 $360 $384 #
point $-1 -1 $-1 -0.28100000000000003 -0.0155 0.28100000000000003 #
edge $-1 -1 $-1 $334 -0.0155 $372 0.0155 $371 $385 forward @7 unknown #
point $-1 -1 $-1 -0.28100000000000003 -0.0155 -0.28100000000000003 #
point $-1 -1 $-1 0.28100000000000003 -0.0155 0.28100000000000003 #
coedge $-1 -1 $-1 $362 $361 $338 $346 forward $363 $-1 #
point $-1 -1 $-1 0.28100000000000003 -0.0155 -0.28100000000000003 #
straight-curve $-1 -1 $-1 0.28100000000000003 0 0.28100000000000003 0 1 0 I I #
plane-surface $-1 -1 $-1 0 0 -0.28100000000000003 0 0 1 1 0 0 forward_v I I I I #
face $-1 -1 $-1 $269 $363 $20 $-1 $380 reversed single #
straight-curve $-1 -1 $-1 0.28100000000000003 0 -0.28100000000000003 0 -1 0 I I #
straight-curve $-1 -1 $-1 -0.28100000000000003 0 0.28100000000000003 0 -1 0 I I #
point $-1 -1 $-1 -0.28100000000000003 0.0155 -0.28100000000000003 #
straight-curve $-1 -1 $-1 -0.28100000000000003 0 -0.28100000000000003 0 1 0 I I #
End-of-ACIS-data 