  0
SECTION
  2
HEADER
  9
$ACADVER
  1
AC1009
  9
$INSBASE
 10
0.0
 20
0.0
 30
0.0
  9
$EXTMIN
 10
-2.0
 20
-2.0
 30
0.0
  9
$EXTMAX
 10
18.0
 20
18.0
 30
3.0
  9
$LIMMIN
 10
0.0
 20
0.0
  9
$LIMMAX
 10
12.0
 20
9.0
  9
$ORTHOMODE
 70
     0
  9
$REGENMODE
 70
     1
  9
$FILLMODE
 70
     1
  9
$QTEXTMODE
 70
     0
  9
$MIRRTEXT
 70
     1
  9
$DRAGMODE
 70
     2
  9
$LTSCALE
 40
1.0
  9
$OSMODE
 70
     0
  9
$ATTMODE
 70
     1
  9
$TEXTSIZE
 40
0.2
  9
$TRACEWID
 40
0.05
  9
$TEXTSTYLE
  7
STANDARD
  9
$CLAYER
  8
0
  9
$CELTYPE
  6
BYLAYER
  9
$CECOLOR
 62
   256
  9
$DIMSCALE
 40
1.0
  9
$DIMASZ
 40
0.18
  9
$DIMEXO
 40
0.0625
  9
$DIMDLI
 40
0.38
  9
$DIMRND
 40
0.0
  9
$DIMDLE
 40
0.0
  9
$DIMEXE
 40
0.18
  9
$DIMTP
 40
0.0
  9
$DIMTM
 40
0.0
  9
$DIMTXT
 40
0.18
  9
$DIMCEN
 40
0.09
  9
$DIMTSZ
 40
0.0
  9
$DIMTOL
 70
     0
  9
$DIMLIM
 70
     0
  9
$DIMTIH
 70
     1
  9
$DIMTOH
 70
     1
  9
$DIMSE1
 70
     0
  9
$DIMSE2
 70
     0
  9
$DIMTAD
 70
     0
  9
$DIMZIN
 70
     0
  9
$DIMBLK
  1

  9
$DIMASO
 70
     1
  9
$DIMSHO
 70
     1
  9
$DIMPOST
  1

  9
$DIMAPOST
  1

  9
$DIMALT
 70
     0
  9
$DIMALTD
 70
     2
  9
$DIMALTF
 40
25.4
  9
$DIMLFAC
 40
1.0
  9
$DIMTOFL
 70
     0
  9
$DIMTVP
 40
0.0
  9
$DIMTIX
 70
     0
  9
$DIMSOXD
 70
     0
  9
$DIMSAH
 70
     0
  9
$DIMBLK1
  1

  9
$DIMBLK2
  1

  9
$DIMSTYLE
  2
*UNNAMED
  9
$DIMCLRD
 70
     0
  9
$DIMCLRE
 70
     0
  9
$DIMCLRT
 70
     0
  9
$DIMTFAC
 40
1.0
  9
$DIMGAP
 40
0.09
  9
$LUNITS
 70
     2
  9
$LUPREC
 70
     4
  9
$SKETCHINC
 40
0.1
  9
$FILLETRAD
 40
0.0
  9
$AUNITS
 70
     0
  9
$AUPREC
 70
     0
  9
$MENU
  1
acad
  9
$ELEVATION
 40
0.0
  9
$PELEVATION
 40
0.0
  9
$THICKNESS
 40
0.0
  9
$LIMCHECK
 70
     0
  9
$BLIPMODE
 70
     1
  9
$CHAMFERA
 40
0.0
  9
$CHAMFERB
 40
0.0
  9
$SKPOLY
 70
     0
  9
$TDCREATE
 40
2449408.818562141
  9
$TDUPDATE
 40
2449408.819146307
  9
$TDINDWG
 40
0.0005841667
  9
$TDUSRTIMER
 40
0.0005841667
  9
$USRTIMER
 70
     1
  9
$ANGBASE
 50
0.0
  9
$ANGDIR
 70
     0
  9
$PDMODE
 70
     0
  9
$PDSIZE
 40
0.0
  9
$PLINEWID
 40
0.0
  9
$COORDS
 70
     1
  9
$SPLFRAME
 70
     0
  9
$SPLINETYPE
 70
     6
  9
$SPLINESEGS
 70
     8
  9
$ATTDIA
 70
     0
  9
$ATTREQ
 70
     1
  9
$HANDLING
 70
     1
  9
$HANDSEED
  5
51
  9
$SURFTAB1
 70
     6
  9
$SURFTAB2
 70
     6
  9
$SURFTYPE
 70
     6
  9
$SURFU
 70
     6
  9
$SURFV
 70
     6
  9
$UCSNAME
  2

  9
$UCSORG
 10
0.0
 20
0.0
 30
0.0
  9
$UCSXDIR
 10
1.0
 20
0.0
 30
0.0
  9
$UCSYDIR
 10
0.0
 20
1.0
 30
0.0
  9
$PUCSNAME
  2

  9
$PUCSORG
 10
0.0
 20
0.0
 30
0.0
  9
$PUCSXDIR
 10
1.0
 20
0.0
 30
0.0
  9
$PUCSYDIR
 10
0.0
 20
1.0
 30
0.0
  9
$USERI1
 70
     0
  9
$USERI2
 70
     0
  9
$USERI3
 70
     0
  9
$USERI4
 70
     0
  9
$USERI5
 70
     0
  9
$USERR1
 40
0.0
  9
$USERR2
 40
0.0
  9
$USERR3
 40
0.0
  9
$USERR4
 40
0.0
  9
$USERR5
 40
0.0
  9
$WORLDVIEW
 70
     1
  9
$SHADEDGE
 70
     3
  9
$SHADEDIF
 70
    70
  9
$TILEMODE
 70
     1
  9
$MAXACTVP
 70
    16
  9
$PINSBASE
 10
0.0
 20
0.0
 30
0.0
  9
$PLIMCHECK
 70
     0
  9
$PEXTMIN
 10
1.000000E+20
 20
1.000000E+20
 30
1.000000E+20
  9
$PEXTMAX
 10
-1.000000E+20
 20
-1.000000E+20
 30
-1.000000E+20
  9
$PLIMMIN
 10
0.0
 20
0.0
  9
$PLIMMAX
 10
12.0
 20
9.0
  9
$UNITMODE
 70
     0
  9
$VISRETAIN
 70
     0
  9
$PLINEGEN
 70
     0
  9
$PSLTSCALE
 70
     1
  9
$TREEDEPTH
 70
  3020
  9
$DWGCODEPAGE
  3
ascii
  0
ENDSEC
  0
SECTION
  2
TABLES
  0
TABLE
  2
VPORT
 70
     2
  0
VPORT
  2
*ACTIVE
 70
     0
 10
0.0
 20
0.0
 11
1.0
 21
1.0
 12
0.0
 22
0.381913
 13
0.0
 23
0.0
 14
1.0
 24
1.0
 15
0.0
 25
0.0
 16
2.0
 26
2.0
 36
1.0
 17
0.0
 27
0.0
 37
0.0
 40
17.734389
 41
1.594883
 42
50.0
 43
0.0
 44
0.0
 50
0.0
 51
0.0
 71
     0
 72
   100
 73
     1
 74
     1
 75
     0
 76
     0
 77
     0
 78
     0
  0
ENDTAB
  0
TABLE
  2
LTYPE
 70
     1
  0
LTYPE
  2
CONTINUOUS
 70
    64
  3
Solid line
 72
    65
 73
     0
 40
0.0
  0
ENDTAB
  0
TABLE
  2
LAYER
 70
     2
  0
LAYER
  2
0
 70
    64
 62
     7
  6
CONTINUOUS
  0
LAYER
  2
AME_FRZ
 70
    65
 62
     7
  6
CONTINUOUS
  0
ENDTAB
  0
TABLE
  2
STYLE
 70
     1
  0
STYLE
  2
STANDARD
 70
     0
 40
0.0
 41
1.0
 50
0.0
 71
     0
 42
0.2
  3
txt
  4

  0
ENDTAB
  0
TABLE
  2
VIEW
 70
     0
  0
ENDTAB
  0
TABLE
  2
UCS
 70
     0
  0
ENDTAB
  0
TABLE
  2
APPID
 70
     3
  0
APPID
  2
ACAD
 70
    64
  0
APPID
  2
AME_SOL
 70
    64
  0
APPID
  2
AVE_INVOKE
 70
    64
  0
ENDTAB
  0
TABLE
  2
DIMSTYLE
 70
     0
  0
ENDTAB
  0
ENDSEC
  0
SECTION
  2
BLOCKS
  0
BLOCK
  8
0
  5
1
  2
AME_NIL
 70
    64
 10
0.0
 20
0.0
 30
0.0
  1
AME_NIL
  3
AME_NIL
  0
ENDBLK
  8
0
  5
2
  0
BLOCK
  8
0
  5
4
  2
AME_SOL
 70
    64
 10
0.0
 20
0.0
 30
0.0
  1
AME_SOL
  3
AME_SOL
  0
ENDBLK
  8
0
  5
5
  0
BLOCK
  8
0
  5
25
  2
*U4
 70
    65
 10
0.0
 20
0.0
 30
0.0
  1
*U
  3
*U
  0
LINE
  8
0
 62
     7
  5
26
 10
16.0
 20
16.0
 30
0.0
 11
16.0
 21
16.0
 31
3.0
1001
AME_SOL
1070
     1
1071
       44
  0
LINE
  8
0
 62
     7
  5
27
 10
16.0
 20
2.0
 30
3.0
 11
16.0
 21
0.0
 31
3.0
1001
AME_SOL
1070
     1
1071
       43
  0
LINE
  8
0
 62
     7
  5
28
 10
16.0
 20
16.0
 30
3.0
 11
16.0
 21
14.0
 31
3.0
1001
AME_SOL
1070
     1
1071
       42
  0
LINE
  8
0
 62
     7
  5
29
 10
14.0
 20
16.0
 30
3.0
 11
16.0
 21
16.0
 31
3.0
1001
AME_SOL
1070
     1
1071
       41
  0
LINE
  8
0
 62
     7
  5
2A
 10
0.0
 20
16.0
 30
3.0
 11
2.0
 21
16.0
 31
3.0
1001
AME_SOL
1070
     1
1071
       40
  0
LINE
  8
0
 62
     7
  5
2B
 10
0.0
 20
16.0
 30
0.0
 11
0.0
 21
16.0
 31
3.0
1001
AME_SOL
1070
     1
1071
       39
  0
LINE
  8
0
 62
     7
  5
2C
 10
0.0
 20
2.0
 30
3.0
 11
0.0
 21
0.0
 31
3.0
1001
AME_SOL
1070
     1
1071
       38
  0
LINE
  8
0
 62
     7
  5
2D
 10
0.0
 20
16.0
 30
3.0
 11
0.0
 21
14.0
 31
3.0
1001
AME_SOL
1070
     1
1071
       37
  0
LINE
  8
0
 62
     7
  5
2E
 10
0.0
 20
0.0
 30
0.0
 11
0.0
 21
0.0
 31
3.0
1001
AME_SOL
1070
     1
1071
       36
  0
LINE
  8
0
 62
     7
  5
2F
 10
16.0
 20
0.0
 30
3.0
 11
16.0
 21
0.0
 31
0.0
1001
AME_SOL
1070
     1
1071
       35
  0
LINE
  8
0
 62
     7
  5
30
 10
14.0
 20
0.0
 30
3.0
 11
16.0
 21
0.0
 31
3.0
1001
AME_SOL
1070
     1
1071
       34
  0
LINE
  8
0
 62
     7
  5
31
 10
0.0
 20
0.0
 30
3.0
 11
2.0
 21
0.0
 31
3.0
1001
AME_SOL
1070
     1
1071
       33
  0
LINE
  8
0
 62
     7
  5
32
 10
0.0
 20
0.0
 30
0.0
 11
16.0
 21
0.0
 31
0.0
1001
AME_SOL
1070
     1
1071
       32
  0
LINE
  8
0
 62
     7
  5
33
 10
0.0
 20
16.0
 30
0.0
 11
0.0
 21
0.0
 31
0.0
1001
AME_SOL
1070
     1
1071
       31
  0
LINE
  8
0
 62
     7
  5
34
 10
16.0
 20
0.0
 30
0.0
 11
16.0
 21
16.0
 31
0.0
1001
AME_SOL
1070
     1
1071
       30
  0
LINE
  8
0
 62
     7
  5
35
 10
16.0
 20
16.0
 30
0.0
 11
0.0
 21
16.0
 31
0.0
1001
AME_SOL
1070
     1
1071
       29
  0
LINE
  8
0
 62
     7
  5
36
 10
2.0
 20
0.0
 30
1.0
 11
14.0
 21
0.0
 31
1.0
1001
AME_SOL
1070
     1
1071
       28
  0
LINE
  8
0
 62
     7
  5
37
 10
0.0
 20
14.0
 30
1.0
 11
0.0
 21
2.0
 31
1.0
1001
AME_SOL
1070
     1
1071
       27
  0
LINE
  8
0
 62
     7
  5
38
 10
16.0
 20
2.0
 30
1.0
 11
16.0
 21
14.0
 31
1.0
1001
AME_SOL
1070
     1
1071
       26
  0
LINE
  8
0
 62
     7
  5
39
 10
14.0
 20
16.0
 30
1.0
 11
2.0
 21
16.0
 31
1.0
1001
AME_SOL
1070
     1
1071
       25
  0
ARC
  8
0
 62
     7
  5
3A
 10
8.0
 20
8.0
 30
1.0
 40
10.0
 50
126.869898
 51
143.130102
1001
AME_SOL
1070
     1
1071
       24
  0
ARC
  8
0
 62
     7
  5
3B
 10
8.0
 20
8.0
 30
1.0
 40
10.0
 50
36.869898
 51
53.130102
1001
AME_SOL
1070
     1
1071
       23
  0
ARC
  8
0
 62
     7
  5
3C
 10
8.0
 20
8.0
 30
1.0
 40
10.0
 50
306.869898
 51
323.130102
1001
AME_SOL
1070
     1
1071
       22
  0
ARC
  8
0
 62
     7
  5
3D
 10
8.0
 20
8.0
 30
1.0
 40
10.0
 50
216.869898
 51
233.130102
1001
AME_SOL
1070
     1
1071
       21
  0
LINE
  8
0
 62
     7
  5
3E
 10
2.0
 20
0.0
 30
1.0
 11
2.0
 21
0.0
 31
3.0
1001
AME_SOL
1070
     1
1071
       20
  0
LINE
  8
0
 62
     7
  5
3F
 10
14.0
 20
0.0
 30
1.0
 11
14.0
 21
0.0
 31
3.0
1001
AME_SOL
1070
     1
1071
       19
  0
LINE
  8
0
 62
     7
  5
40
 10
0.0
 20
2.0
 30
1.0
 11
0.0
 21
2.0
 31
3.0
1001
AME_SOL
1070
     1
1071
       18
  0
LINE
  8
0
 62
     7
  5
41
 10
0.0
 20
14.0
 30
1.0
 11
0.0
 21
14.0
 31
3.0
1001
AME_SOL
1070
     1
1071
       17
  0
LINE
  8
0
 62
     7
  5
42
 10
16.0
 20
2.0
 30
1.0
 11
16.0
 21
2.0
 31
3.0
1001
AME_SOL
1070
     1
1071
       16
  0
LINE
  8
0
 62
     7
  5
43
 10
16.0
 20
14.0
 30
1.0
 11
16.0
 21
14.0
 31
3.0
1001
AME_SOL
1070
     1
1071
       15
  0
LINE
  8
0
 62
     7
  5
44
 10
14.0
 20
16.0
 30
1.0
 11
14.0
 21
16.0
 31
3.0
1001
AME_SOL
1070
     1
1071
       14
  0
LINE
  8
0
 62
     7
  5
45
 10
2.0
 20
16.0
 30
1.0
 11
2.0
 21
16.0
 31
3.0
1001
AME_SOL
1070
     1
1071
       13
  0
ARC
  8
0
 62
     7
  5
46
 10
8.0
 20
8.0
 30
3.0
 40
10.0
 50
126.869898
 51
143.130102
1001
AME_SOL
1070
     1
1071
       12
  0
ARC
  8
0
 62
     7
  5
47
 10
8.0
 20
8.0
 30
3.0
 40
10.0
 50
36.869898
 51
53.130102
1001
AME_SOL
1070
     1
1071
       11
  0
ARC
  8
0
 62
     7
  5
48
 10
8.0
 20
8.0
 30
3.0
 40
10.0
 50
306.869898
 51
323.130102
1001
AME_SOL
1070
     1
1071
       10
  0
ARC
  8
0
 62
     7
  5
49
 10
8.0
 20
8.0
 30
3.0
 40
10.0
 50
216.869898
 51
233.130102
1001
AME_SOL
1070
     1
1071
        9
  0
ENDBLK
  8
0
  5
4A
  0
BLOCK
  8
0
  5
4E
  2
AME_JNK
 70
     0
 10
0.0
 20
0.0
 30
0.0
  1
AME_JNK
  3
AME_JNK
  0
ENDBLK
  8
0
  5
4F
  0
ENDSEC
  0
SECTION
  2
ENTITIES
  0
INSERT
  8
AME_FRZ
  5
3
  2
AME_NIL
 10
0.0
 20
0.0
 30
0.0
  0
INSERT
  8
AME_FRZ
  5
6
  2
AME_SOL
 10
0.0
 20
0.0
 30
0.0
1001
AME_SOL
1000
R2.1
1000
AME2
1000
sq cm
1070
     3
1070
     0
1070
     3
1000
wire
1040
45.0
1000
U
1040
1.0
1000
cm
1000
gm
1000
MILD_STEEL
1070
    25
1000
CSG
1070
     1
1070
     3
1070
     3
1070
     3
1070
     0
1000
cu cm
1070
     1
1070
     0
1005
3
  0
INSERT
  8
AME_FRZ
  5
15
  2
AME_NIL
 10
0.0
 20
0.0
 30
0.0
1001
AME_SOL
1002
{
1070
     1
1071
  2481976
1070
  1536
1070
     1
1010
16.0
1020
16.0
1030
3.0
1005
0
1005
0
1005
4B
1040
0.0
1040
1.0
1070
     0
1000
MILD_STEEL
1000
0
1010
0.0
1020
0.0
1030
0.0
1010
0.0
1020
0.0
1030
1.0
1040
0.0
1002
}
1001
AVE_INVOKE
1000
SOLAVEMESH
  0
INSERT
  8
AME_FRZ
  5
21
  2
AME_NIL
 10
8.0
 20
8.0
 30
1.0
1001
AME_SOL
1002
{
1070
     1
1071
  2461472
1070
  1538
1070
     1
1010
10.0
1020
10.0
1030
2.0
1005
0
1005
0
1005
4B
1040
0.0
1040
1.0
1070
     0
1000
MILD_STEEL
1000
0
1010
8.0
1020
8.0
1030
1.0
1010
0.0
1020
0.0
1030
1.0
1040
0.0
1002
}
1001
AVE_INVOKE
1000
SOLAVEMESH
  0
INSERT
  8
0
  5
4B
  2
*U4
 10
0.0
 20
0.0
 30
0.0
1001
AME_SOL
1002
{
1070
     1
1071
  2421840
1070
  1543
1070
     1
1070
     0
1005
15
1005
21
1005
0
1005
4C
1005
0
1040
0.0
1040
1.0
1070
     0
1000
MILD_STEEL
1000
0
1002
}
1001
AVE_INVOKE
1000
SOLAVEMESH
  0
INSERT
  8
AME_FRZ
  5
4C
  2
AME_NIL
 10
1.0
 20
1.0
 30
1.0
1001
AME_SOL
1004
C7CF0100130189018801860182017B0102007001A0006201510138014F00B100390122011801BC000D01A7001900AC00040096007C0171011800FE003F0083017D0172016301080052013A01EB0023018F005D003B012401B6006B00250192002600640153013C0126017E00670027012C0097003D012801
1004
F200E4002901E100720054013E012A0144009E002B017A0061003F012C011901F900F4001A019800DF002D011B01C8004D001C010E011F00DA000F01D400B70073016501800055015400D0006601560140012E011D011001A900010100010C0011010201130014000301150016001E01120104011A001B00
1004
05011C001E00130106012200F70007012D002E008B0041011700710057014201A300320043012F011F0114010801CB00CA0009015200B30015010A01B200A1000B01A200AE0069003800FF00870184017E0174012400BF007501670106005801A400EE00680159014401EF00F5004501F3003001FB00FA00
1004
5A0146013101BB00BE003201EA00E0004701330163005000D8007F01760169012500A8006A0175005B0148012F0068004901C100AF007701F00028008501800178016B015C0151004A018400340120012300B80003000A0001004000810179016C015D01FD004B015F003501210116010C016D006E008800
1004
17011000E80078005E01310020006D01940005007A016E015F01C0004C014E008C0030006F0160014D01850058004E0160003601F800070061014F01FC00ED00500190003701CE00D70000004E9874E9872C04D99BF0CCF2F11634859E186B81B92F780C35C0DC97BC017085311D22C5498D23B2EB58A931
1004
A4765D6B035C0DC9720D67A6C4A38D430D703725EF0186B81B92F78570AC65F712606C5498D23B2EB58A931A4765D6B035C0DC9720D669D3C8ACA944CF665E0E9D3CBFD61FFFFFFFEB0FFFF736FEE6DFD61BBFE837F41BFFFFFE9D3CBFD61FFFFFFFEB0FFFF736FEE6DFD61BBFE837F41BFFFFFAC893D4E9
1004
87E1D57FAC3FFFFFFFD61FF8A6666668AFF736FEB0C125C8845885C799204EC97221162171E6483899FE4F53A070EABFD61FFFFFFFEB0FFC9F4CCCCC9F1A2999999A3FAC30497221162171E64813B25C8845885C79920E267F93D4E99E1D57FAC3FFFFFFFD61FFFE5D6FEE6DFD61824B9108B10B8F32409D
1004
92E4422C42E3CC907133FC9EA75E1D57FAC3FFFFFFFD61FF93E9999993E37F2EB7F586092E4422C42E3CC902764B9108B10B8F3241C4CFF4D894210C35C0DC97BC061AE06E4BDE15C2B197DC4981B1526348ECBAD62A4C691D975A1144DCD3C4F561B3613C9F4AD5133D99787B09E5FEB0FFFFFF94FD647F
1004
94FDCDBFB9B7F586EFFFFFFFFFFEC2797FAC3FFFFFE53F591FE53F736FEE6DFD61BBFFFFFFFFFEB229B1281B817085311D2205C214C4748817085311D22C5498D23B7AD62A4C691DBD6817085311D0D9B09E4E397AA2CF665D67613CBFFFD61FFFEB0FFFFFFFFFFDDFFFFFFFFFFD84F2FFFF587FFFAC3FFF
1004
FFFFFFF77FFFFFFFFFD61A6C4A10817085311D2205C214C4748817085311D22C5498D23B7AD02E10A623A1B035C0DC9720D66C27927DF0859ECDC99D84F2FF587FFFFFFFFFAC3FFFFFF77FFFFFFFFFF613CBFD61FFFFFFFFFEB0FFFFFFDDFFFFFFFFFF5869B1284205C214C4748817085311D2205C214C47
1004
48817085311D0D8A931A476F5AC0D703725C8359B09E4216D0B3D9BD67613CBFFFFFD61FFFEB0FFFFFFFFDDFFFFFFFFFFD84F2FFFFFF587FFFAC3FFFFFFFF77FFFFFFFFFD61A6C4A160E05C214C4748817085311D22194417F9FF7DDAC5498D23B7AD62A4C691DBD6B035C0DC9720D66C2793E5FC859ECD5
1004
8CEC2797FAC8FF29FCA7F29FAC8FF29FBD6FEF5ACFC835DFFFFFFFFFFD84F2FF591FE53F94FE53F591FE53F7ADFDEB59F906BBFFFFFFFFFEB0D36250840B842988E917EABE51349956340B842988E9162A4C691DBD6B1526348EDEB581AE06E4B906B3613C972CA167B32C7B3B09E5FF29FCA7EB23FAC8FF
1004
29FCA7EF5BFBD6B3F20D77FFFFFFFFFF613CBFE53F94FD647F591FE53F94FDEB7F7AD67E41AEFFFFFFFFFFAC34D894217EABE51349956340B842988E9102E10A623A458A931A476F5AC5498D23B7AD606B81B92E41ACD84F26BCD0B3D996399D84F2FF94FD647F94FE53F94FD647F7ADFDEB59F906BBFFFF
1004
FFFFFFB09E5FF29FAC8FF29FCA7F29FAC8FEF5BFBD6B3F20D77FFFFFFFFFD61A525817085311D2205C214C4748865105FE7FDF76B1526348EDEB58A931A476F5AC0D703725C835F4F82688D2D3F18778261392211C4B118CBC02FC54B84A3B3332B2A517CBF90E0BE5FC84ACA9459E6666FC55FEB0FFFFFF
1004
FF587FFFB9B7F736B3F20D0DFF41BFA0D7D3E09A234B4FC61DE0984E4884712C4632F0949605C214C4748817085311D22194417F9FF7DDAC5498D23B7AD62A4C691DBD6B035C0DC9720D604E09B764886AFD453B2648F2E1144992A882FC54E324FE8766665654A2F97F21C17CBF90959528B3CCCCDF8ABF
1004
D61FFFFFFFEB0FFFF736FEE6D67E41A1BFE837F41AC09C136EC910D5FA8A764C91E5C2289325514A4B02E10A623A440B842988E910CA20BFCFFBEED62A4C691DBD6B1526348EDEB581AE06E4B906A764C91E5C228932546C09C136EC910D5FA305F8A89D16314766665654A2F97F21C17CBF90959528B3CC
1004
CCDF8ABFD61FFFFFFFEB0FFFF736FEE6D67E41A1BFE837F41A9D932479708A24C951B02704DBB244357E8D292C0B842988E9102E10A623A4432882FF3FEFBB58A931A476F5AC5498D23B7AD606B81B92E41A4C272442389623196BE9F04D11A5A7E30ED05F8A96718A8ECCCCACA945F2FE4382F97F212B2A
1004
51679999BF157FAC3FFFFFFFD61FFFEE6DFDCDACFC83437FD06FE834984E4884712C4632D7D3E09A234B4FC61DA949605C214C4748BF55F289A4CAB1AAE158CBEE24C0D8A931A476F5AC5498D23B7AD606B81B92E41BFECFED043AA285E543B3332B2A515CB2870572CA12B2A516799998755FEB0FFFFFFF
1004
F587FE1BFDBFBD6FEB0C1FF67F6A525817085311D22FD57CA26932AC6AB85632FB8930362A4C691DBD6B1526348EDEB581AE06E4B906FFB3FB410EA8A17990E66CCACA94572CA1C12B2A515CB284CCCD9E1D57FAC3FFFFFFFD61FFFE4937F7ADFD6183FECFED4A4B7EABE51349956340B842988E91570AC6
1004
5F712606C5498D23B7AD62A4C691DBD6B035C0DC9720DFF67F6821D53F8B88766665654A2D79A1C16BCD0959528B3CCCCC3AAFF587FFFFFFFAC3FFFDEB7F249BFAC307FD9FDA9496FD57CA26932AC6817085311D22AE158CBEE24C0D8A931A476F5AC5498D23B7AD606B81B92E41BFECFED043AA2745E743
1004
99B32B2A516BCD0E0959528B5E684CCCD9E1D57FAC3FFFFFFFD61FFFEF5A1BFDBFAC307FD9FDA949605C214C4748817085311D22AE158CBEE24C0C0B842988E86C5498D23B7AD606B81B92E41BFECFED043AA274AF4399B32B2A5110B68704ACA94442DA13333678755FEB0FFFFFFFF587FFFFF924DFD618
1004
3FECFED4A4B02E10A623A440B842988E91570AC65F71260605C214C474362A4C691DBD6B035C0DC9720DFF67F6821D527C328766665654A2216D0E0885B425654A2CF33330EABFD61FFFFFFFEB0FFFFC1FB7F5860FFB3FB5292C0B842988E9102E10A623A455C2B197DC4981B1526348EDEB40B842988E86
1004
C0D703725C837FD9FDA08754E365E443B3332B2A514FBE10E0A7DF084ACA9459E66661D57FAC3FFFFFFFD61FFFE4937F27E0D1FAC307FD9FDA949605C214C4748817085311D22AE158CBEE24C0D8A931A476F5A05C214C4743606B81B92E41BFECFED043AA7D8BC68733665654A29F7C21C12B2A514FBE10
1004
9999B3C3AAFF587FFFFFFFAC3FF0DFEDFC9F8347EB0C1FF67F6A525861AE06E4BDE030D703725EF0AE158CBEE24C0D8A931A4765D6B1526348ECBAD08A26E69E27AB0DF4F82688D2D3F18778261392211C4B118CBC02FC549DB8C14733665654A2FA56A8E0959528BE95AA266666666FC55FEB0FFFFFFFF5
1004
87FFFB9B7F736FEB0C37FD06FE835F4F82688D2D3F18778261392211C4B118CBC2525861AE06E4BDE030D703725EF0AE158CBEE24C0D8A931A4765D6B1526348ECBAD08A26E69E27AB0D813826DD9221ABF514EC9923CB8451264AA20BF1538EE368733665654A2FA56A8E0959528BE95AA266666666FC55
1004
FEB0FFFFFFFF587FFFB9B7F736FEB0C37FD06FE835813826DD9221ABF514EC9923CB8451264AA29496186B81B92F780C35C0DC97BC2B85632FB8930362A4C691D975AC5498D23B2EB42289B9A789EAC34EC9923CB8451264A8D813826DD9221ABF460BF1513C27F4399B32B2A517D2B54704ACA945F4AD51
1004
333333337E2AFF587FFFFFFFAC3FFFDCDBFB9B7F5861BFE837F41A9D932479708A24C951B02704DBB244357E8D292C30D703725EF0186B81B92F78570AC65F712606C5498D23B2EB58A931A4765D684513734F13D5864C272442389623196BE9F04D11A5A7E30ED05F8A986B0C51CCD9959528BE95AA3825
1004
654A2FA56A899999999BF157FAC3FFFFFFFD61FFFEE6DFDCDBFAC30DFF41BFA0D261392211C4B118CB5F4F82688D2D3F1876A525817085311D22FD57CA26932AC6AB85632FB8930362A4C691DBD6B1526348EDEB42289B9A789EAC32726666668FE83410EA986A72876666FA56A8AE594382B9650BE95AA2
1004
CF33330EABFFFD61FFFFFFFEB22CFD76FEF5BFAC3049C999999A3FA0D4A4B7EABE51349956340B842988E91570AC65F712606C5498D23B7AD62A4C691DBD684513734F13D587FA0F04E4CCCCCC608754C35143B3337D2B545AF34382D79A17D2B5459E66661D57FAC3FFFFFFFFFD647F7AD67EBB7F5860FE
1004
83C1393333331A525817085311D2205C214C4748AB85632FB8930302E10A623A1B1526348EDEB42289B9A789EAC3333333618F04E0CCCCCC6087544F1E10ECCCDF4AD5110B6870442DA17D2B5459E66661D57FAC8FFFFFFFFFEB23FFFB8D37F5860999999B0C7827066666634A4B02E10A623A440B842988
1004
E91570AC65F712606C5498D23B7AD02E10A623A184513734F13D5864E0CCCCCD1333333618D043AA56AB90ECCCDF4AD514FBE10E0A7DF085F4AD516799998755FFFEB23FFFFFFFAC8FEE34DFFFD61824E0CCCCCD1333333618D4A4B02E10A623A45FAAF944D26558D02E10A623A458A931A476F5AC5498D2
1004
3B7AD02E10A623A1FEE6F1FB9B410EA9C74E10E66CDC72F54572CA1C171CBD515CB2859ECF0EABFFFD61FFFFFFFEB23FB9B7F7ADFF07F7378FDCDA9496FD57CA26932AC6817085311D2205C214C4748B1526348EDEB58A931A476F5A05C214C4743FDCDE3F736821D538C8684399B371CBD516BCD0E0B8E5
1004
EA8B5E6859ECF0EABFD61FFFFFFFFFEB23FBD6FEE6DFF07F7378FDCDA949605C214C4748817085311D2205C214C4748817085311D0D8A931A476F5A05C214C4743FDEBC7F2808754A43490E66CDC72F54442DA1C171CBD5110B6859ECF0EABFD647FFFFFFFFF591FFFFFF07F7AF1FCA2525817085311D220
1004
5C214C4748817085311D22C5498D23B7AD02E10A623A1817085311D0FFFF7AD043AA61AA50E66CDC72F5453EF84382E397AA29F7C2167B3C3AAFFFF591FFFFFFFD647FFFFFC1FFFDEB5292C0B842988E9102E10A623A4432882FF3FEFBB58A931A476F5A05C214C4743606B81B92E41BFB9BC0A666665A78
1004
043AA2785808733669F7C217CBF90E0A7DF085F2FE42CF678755FFFFFEB0FFFF591FFFDCDBFECFC8341FDCDE05333332D3C2525817085311D2205C214C4748865105FE7FDF76B1526348EDEB40B842988E86C0D703725C8345333332D37F736821D52B4B08A399B34FBE10BE5FC87053EF842F97F2167B3C
1004
3AAFFFFFF587FFFAC8FFFEE6DFF67E41A08A666665A6FEE6D4A4B7EABE51349956340B842988E9102E10A623A458A931A476F5A05C214C4743606B81B92E41ACFDF6459FBEC3043AA71CB0AA399B34FBE10B5E687053EF842D79A167B3C3AAFF587FFFFFFFAC8FFFEF5BFECFDF6182CFDF6459FBEC34A4B0
1004
2E10A623A440B842988E9102E10A623A440B842988E8605C214C4743606B81B92E41BFECFC83410EA9C64B0CA399B34FBE10885B43829F7C2110B6859ECF0EABFD647FFFFFFF591FFFFFFFF07FD9F906A525817085311D2205C214C4748865105FE7FDF76817085311D0D8A931A476F5AC0D703725C837F7
1004
37814CCCCCB4F0087544E8B0EA399B310B685F2FE4382216D0BE5FC859ECF0EABFFFFFD61FEB23FFFFFFFB9B59F90683FB9BC0A666665A784A4B02E10A623A440B842988E910CA20BFCFFBEED02E10A623A1B1526348EDEB581AE06E4B9068A666665A6FEE6D043AA525A51CCD9885B42F97F21C110B685F
1004
2FE42CF678755FFFFFEB0FF591FFFFFFFDCDACFC834114CCCCCB4DFDCDA949605C214C4748BF55F289A4CAB1A05C214C4748817085311D0D8A931A476F5AC0D703725C8359FBEC8B3F7D8608754C34451CCD9885B42B9650E0885B42B9650B3D9E1D57FFFAC3FFFD647FFFFFFF7AD67EFB0C167EFB22CFDF
1004
61A525817085311D22FD57CA26932AC6865105FE7FDF76B1526348EDEB58A931A476F5AC0D703725C837F7AF1F924F0087544F034D473366F97F215CB28705F2FE42B9650B3D9E1D57FFFAC3FFFFFFFD61FEF5BFBD6B3F20D07F7AF1F924F0949605C214C4748BF55F289A4CAB1A194417F9FF7DDAC5498D
1004
23B7AD62A4C691DBD6B035C0DC9720D0DFEF1FCA021D527CB10A399B37CBF90AE594382F97F215CB2859ECF0EABFFFD61FFFFFFFEB0FF7ADFDEB59F906821BFDE3F944A4B7EABE51349956340B842988E910CA20BFCFFBEED62A4C691DBD6B1526348EDEB581AE06E4B906FF86FF6821D538D9625473366F
1004
97F216BCD0E0BE5FC85AF342CF678755FEB0FFFFFF94FFFD61FEF5BFBD6B3F20D07FC37FB5292DFAAF944D26558D02E10A623A4432882FF3FEFBB58A931A476F5AC5498D23B7AD606B81B92E41BF924DFDEB410EA9F62C528E66CDF2FE42D79A1C17CBF90B5E6859ECF0EABFD61FFFFFF29FFFAC3FDEB7F7
1004
AD67E41A0FE4937F7AD4A4B7EABE5134995635FAAF944D26558D02E10A623A458A931A476F5AC5498D23B7AD606B81B92E41ACFC83C7F280875440B16A399B35CB285AF34382B9650B5E6859ECF0EABFD61FFFFFFFEB0FFFF7ADFDEB59F90682CFC83C7F281A6FC2C17D
1005
4D
  0
INSERT
  8
AME_FRZ
  5
4D
  2
AME_NIL
 10
1.0
 20
1.0
 30
1.0
1001
AME_SOL
1004

1005
0
  0
ENDSEC
  0
EOF
