600 0 1 0           
108 GICL ACIS Healer - Source: /gicl/data5/repository/NIST/Manfred_Osti/spectrometer/screw_81/screw_81.sat - 6 0 18 ACIS 6.0.3 Solaris 24 Sun Apr 14 00:37:02 2002 
1 9.999999999999999547e-07 1.000000000000000036e-10 
body $-1 $1 $-1 $-1 #
lump $-1 $-1 $2 $0 #
shell $-1 $-1 $-1 $3 $-1 $1 #
face $-1 $4 $5 $2 $-1 $6 reversed single #
face $-1 $7 $8 $2 $-1 $9 forward single #
loop $-1 $-1 $10 $3 #
plane-surface $-1 0 0 6.5 0 0 -1 -1 0 0 forward_v I I I I #
face $-1 $11 $12 $2 $-1 $13 reversed single #
loop $-1 $-1 $14 $4 #
plane-surface $-1 0 0 -6.5 0 0 -1 -1 0 0 forward_v I I I I #
coedge $-1 $10 $10 $15 $16 reversed $5 $-1 #
face $-1 $17 $18 $2 $-1 $19 forward single #
loop $-1 $20 $21 $7 #
plane-surface $-1 0 0 -6.049999999999999822 0 0 -1 -1 0 0 forward_v I I I I #
coedge $-1 $14 $14 $22 $23 forward $8 $-1 #
coedge $-1 $15 $15 $10 $16 forward $24 $-1 #
edge $-1 $25 0 $25 6.283185307179586232 $15 $26 forward 7 unknown #
face $-1 $27 $28 $2 $-1 $29 forward single #
loop $-1 $30 $31 $11 #
plane-surface $-1 0 0 -5.98500000000000032 0 0 -1 -1 0 0 forward_v I I I I #
loop $-1 $-1 $32 $7 #
coedge $-1 $21 $21 $33 $34 forward $12 $-1 #
coedge $-1 $22 $22 $14 $23 reversed $35 $-1 #
edge $-1 $36 0 $36 6.283185307179586232 $22 $37 forward 7 unknown #
loop $-1 $-1 $15 $38 #
vertex $-1 $16 $39 #
ellipse-curve $-1 0 0 6.5 0 0 -1 -0.09500000000000000111 0 0 1 I I #
face $-1 $40 $41 $2 $-1 $42 reversed single #
loop $-1 $43 $44 $17 #
plane-surface $-1 0 0 -5.25 0 0 -1 -1 0 0 forward_v I I I I #
loop $-1 $-1 $45 $11 #
coedge $-1 $31 $31 $46 $47 forward $18 $-1 #
coedge $-1 $32 $32 $48 $49 forward $20 $-1 #
coedge $-1 $33 $33 $21 $34 reversed $50 $-1 #
edge $-1 $51 -3.141592653589793116 $51 3.141592653589793116 $21 $52 forward 7 unknown #
loop $-1 $53 $22 $54 #
vertex $-1 $23 $55 #
ellipse-curve $-1 0 0 -6.5 0 0 -1 -0.09500000000000100031 0 0 1 I I #
face $-1 $54 $56 $2 $-1 $57 forward single #
point $-1 -0.09500000000000000111 0 6.5 #
face $-1 $58 $59 $2 $-1 $60 reversed single #
loop $-1 $61 $62 $27 #
plane-surface $-1 0 0 5.25 0 0 -1 -1 0 0 forward_v I I I I #
loop $-1 $-1 $63 $17 #
coedge $-1 $44 $44 $64 $65 forward $28 $-1 #
coedge $-1 $45 $45 $66 $67 forward $30 $-1 #
coedge $-1 $46 $46 $31 $47 reversed $68 $-1 #
edge $-1 $69 -3.141592653589793116 $69 3.141592653589793116 $31 $70 forward 7 unknown #
coedge $-1 $48 $48 $32 $49 reversed $71 $-1 #
edge $-1 $72 0 $72 6.283185307179586232 $48 $73 forward 7 unknown #
loop $-1 $74 $33 $75 #
vertex $-1 $34 $76 #
ellipse-curve $-1 0 0 -6.049999999999999822 0 0 1 -0.125 0 0 1 I I #
loop $-1 $-1 $77 $54 #
face $-1 $-1 $35 $2 $-1 $78 forward single #
point $-1 -0.09500000000000100031 0 -6.5 #
loop $-1 $24 $79 $38 #
cone-surface $-1 0 0 6.469999999999999751 0 0 -1 -0.125 0 0 1 I I 0.7071067811865550112 0.7071067811865400232 0.125 forward I I I I #
face $-1 $75 $80 $2 $-1 $81 forward single #
loop $-1 $82 $83 $40 #
plane-surface $-1 0 0 6 0 0 -1 -1 0 0 forward_v I I I I #
loop $-1 $-1 $84 $27 #
coedge $-1 $62 $62 $85 $86 forward $41 $-1 #
coedge $-1 $63 $63 $87 $88 forward $43 $-1 #
coedge $-1 $64 $64 $44 $65 reversed $89 $-1 #
edge $-1 $90 -3.141592653589793116 $90 3.141592653589793116 $44 $91 forward 7 unknown #
coedge $-1 $66 $66 $45 $67 reversed $92 $-1 #
edge $-1 $93 0 $93 6.283185307179586232 $66 $94 forward 7 unknown #
loop $-1 $71 $46 $95 #
vertex $-1 $47 $96 #
ellipse-curve $-1 0 0 -5.98500000000000032 0 0 1 -0.09299999999999999933 0 0 1 I I #
loop $-1 $-1 $48 $95 #
vertex $-1 $49 $97 #
ellipse-curve $-1 0 0 -6.049999999999999822 0 0 -1 -0.09299999999999999933 0 0 1 I I #
loop $-1 $-1 $98 $75 #
face $-1 $95 $50 $2 $-1 $99 forward single #
point $-1 0.125 0 -6.049999999999999822 #
coedge $-1 $77 $77 $98 $100 reversed $53 $-1 #
cone-surface $-1 0 0 -6.469999999999999751 0 0 1 -0.1250000000000009992 0 0 1 I I 0.7071067811865550112 0.7071067811865400232 0.1250000000000009992 forward I I I I #
coedge $-1 $79 $79 $101 $102 reversed $56 $-1 #
loop $-1 $103 $104 $58 #
plane-surface $-1 0 0 6.049999999999999822 0 0 -1 -1 0 0 forward_v I I I I #
loop $-1 $-1 $105 $40 #
coedge $-1 $83 $83 $106 $107 forward $59 $-1 #
coedge $-1 $84 $84 $108 $109 forward $61 $-1 #
coedge $-1 $85 $85 $62 $86 reversed $110 $-1 #
edge $-1 $111 -3.141592653589793116 $111 3.141592653589793116 $62 $112 forward 7 unknown #
coedge $-1 $87 $87 $63 $88 reversed $113 $-1 #
edge $-1 $114 0 $114 6.283185307179586232 $87 $115 forward 7 unknown #
loop $-1 $92 $64 $116 #
vertex $-1 $65 $117 #
ellipse-curve $-1 0 0 -5.25 0 0 1 -0.125 0 0 1 I I #
loop $-1 $-1 $66 $116 #
vertex $-1 $67 $118 #
ellipse-curve $-1 0 0 -5.98500000000000032 0 0 -1 -0.125 0 0 1 I I #
face $-1 $116 $68 $2 $-1 $119 forward single #
point $-1 0.09299999999999999933 0 -5.98500000000000032 #
point $-1 -0.09299999999999999933 0 -6.049999999999999822 #
coedge $-1 $98 $98 $77 $100 forward $74 $-1 #
cone-surface $-1 0 0 7.150000000000000355 0 0 -1 0.125 0 0 1 I I 0 1 0.125 forward I I I I #
edge $-1 $120 -3.141592653589793116 $120 3.141592653589793116 $77 $121 forward 7 unknown #
coedge $-1 $101 $101 $79 $102 forward $122 $-1 #
edge $-1 $123 -3.141592653589793116 $123 3.141592653589793116 $79 $124 forward 7 unknown #
loop $-1 $-1 $125 $58 #
coedge $-1 $104 $104 $126 $127 forward $80 $-1 #
coedge $-1 $105 $105 $128 $129 forward $82 $-1 #
coedge $-1 $106 $106 $83 $107 reversed $130 $-1 #
edge $-1 $131 -3.141592653589793116 $131 3.141592653589793116 $83 $132 forward 7 unknown #
coedge $-1 $108 $108 $84 $109 reversed $133 $-1 #
edge $-1 $134 0 $134 6.283185307179586232 $108 $135 forward 7 unknown #
loop $-1 $113 $85 $136 #
vertex $-1 $86 $137 #
ellipse-curve $-1 0 0 5.25 0 0 1 -0.1875 0 0 1 I I #
loop $-1 $-1 $87 $136 #
vertex $-1 $88 $138 #
ellipse-curve $-1 0 0 -5.25 0 0 -1 -0.1875 0 0 1 I I #
face $-1 $136 $89 $2 $-1 $139 forward single #
point $-1 0.125 0 -5.25 #
point $-1 -0.125 0 -5.98500000000000032 #
cone-surface $-1 0 0 7.150000000000000355 0 0 -1 0.09299999999999999933 0 0 1 I I 0 1 0.09299999999999999933 forward I I I I #
vertex $-1 $100 $140 #
ellipse-curve $-1 0 0 -6.469999999999999751 0 0 1 -0.1250000000000009992 0 0 1 I I #
loop $-1 $141 $101 $142 #
vertex $-1 $102 $143 #
ellipse-curve $-1 0 0 6.469999999999999751 0 0 -1 -0.125 0 0 1 I I #
coedge $-1 $125 $125 $144 $145 forward $103 $-1 #
coedge $-1 $126 $126 $104 $127 reversed $146 $-1 #
edge $-1 $147 -3.141592653589793116 $147 3.141592653589793116 $104 $148 forward 7 unknown #
coedge $-1 $128 $128 $105 $129 reversed $149 $-1 #
edge $-1 $150 0 $150 6.283185307179586232 $128 $151 forward 7 unknown #
loop $-1 $133 $106 $152 #
vertex $-1 $107 $153 #
ellipse-curve $-1 0 0 6 0 0 1 -0.125 0 0 1 I I #
loop $-1 $-1 $108 $152 #
vertex $-1 $109 $154 #
ellipse-curve $-1 0 0 5.25 0 0 -1 -0.125 0 0 1 I I #
face $-1 $152 $110 $2 $-1 $155 forward single #
point $-1 0.1875 0 5.25 #
point $-1 -0.1875 0 -5.25 #
cone-surface $-1 0 0 7.150000000000000355 0 0 -1 0.125 0 0 1 I I 0 1 0.125 forward I I I I #
point $-1 0.125 0 -6.469999999999999751 #
loop $-1 $-1 $144 $142 #
face $-1 $38 $122 $2 $-1 $156 forward single #
point $-1 0.125 0 6.469999999999999751 #
coedge $-1 $144 $144 $125 $145 reversed $141 $-1 #
edge $-1 $157 0 $157 6.283185307179586232 $144 $158 forward 7 unknown #
loop $-1 $149 $126 $159 #
vertex $-1 $127 $160 #
ellipse-curve $-1 0 0 6.049999999999999822 0 0 1 -0.09299999999999999933 0 0 1 I I #
loop $-1 $-1 $128 $159 #
vertex $-1 $129 $161 #
ellipse-curve $-1 0 0 6 0 0 -1 -0.09299999999999999933 0 0 1 I I #
face $-1 $159 $130 $2 $-1 $162 forward single #
point $-1 0.125 0 6 #
point $-1 -0.125 0 5.25 #
cone-surface $-1 0 0 7.150000000000000355 0 0 -1 0.1875 0 0 1 I I 0 1 0.1875 forward I I I I #
cone-surface $-1 0 0 7.150000000000000355 0 0 -1 0.125 0 0 1 I I 0 1 0.125 forward I I I I #
vertex $-1 $145 $163 #
ellipse-curve $-1 0 0 6.049999999999999822 0 0 -1 -0.125 0 0 1 I I #
face $-1 $142 $146 $2 $-1 $164 forward single #
point $-1 0.09299999999999999933 0 6.049999999999999822 #
point $-1 -0.09299999999999999933 0 6 #
cone-surface $-1 0 0 7.150000000000000355 0 0 -1 0.125 0 0 1 I I 0 1 0.125 forward I I I I #
point $-1 -0.125 0 6.049999999999999822 #
cone-surface $-1 0 0 7.150000000000000355 0 0 -1 0.09299999999999999933 0 0 1 I I 0 1 0.09299999999999999933 forward I I I I #
End-of-ACIS-data 