700 0 2 0           
24 FBMach with ACIS - 7.0.3 13 ACIS 7.0.3 NT 24 Tue May 14 14:20:13 2002 
1 9.9999999999999995e-007 1e-010 
body $2 -1 $-1 $3 $-1 $4 #
bdycol-kcp $-1 -1 1 4 $5 $6 $7 $8 #
model_id-kcp-attrib $-1 -1 $-1 $-1 $0 1 1021400412 1021400412 410124289 1 #
lump $-1 -1 $-1 $-1 $9 $0 #
transform $-1 -1 1 0 0 0 1 0 0 0 1 0 0 0 1 rotate no_reflect no_shear #
body $10 -1 $-1 $11 $-1 $12 #
body $13 -1 $-1 $14 $-1 $15 #
body $16 -1 $-1 $17 $-1 $18 #
body $19 -1 $-1 $20 $-1 $21 #
shell $-1 -1 $-1 $-1 $-1 $22 $-1 $3 #
model_id-kcp-attrib $-1 -1 $-1 $-1 $5 1 1021400412 1021400412 410779650 1 #
lump $-1 -1 $-1 $-1 $23 $5 #
transform $-1 -1 1 0 0 0 1 0 0 0 1 0 -4.4408920985006262e-016 0 1 no_rotate no_reflect no_shear #
rgb_color-st-attrib $-1 -1 $24 $-1 $6 1 0.5 1 #
lump $-1 -1 $-1 $-1 $25 $6 #
transform $-1 -1 1 0 0 0 1 0 0 0 1 0 -4.4408920985006262e-016 0 1 no_rotate no_reflect no_shear #
rgb_color-st-attrib $-1 -1 $26 $-1 $7 0.5 1 1 #
lump $-1 -1 $-1 $-1 $27 $7 #
transform $-1 -1 1 0 0 0 1 0 0 0 1 0 -4.4408920985006262e-016 0 1 no_rotate no_reflect no_shear #
rgb_color-st-attrib $-1 -1 $28 $-1 $8 1 0.5 1 #
lump $-1 -1 $-1 $-1 $29 $8 #
transform $-1 -1 1 0 0 0 1 0 0 0 1 0 -4.4408920985006262e-016 0 1 no_rotate no_reflect no_shear #
face $30 -1 $-1 $31 $32 $9 $-1 $33 reversed single #
shell $-1 -1 $-1 $-1 $-1 $34 $-1 $11 #
model_id-kcp-attrib $-1 -1 $-1 $13 $6 1 1021400412 1021400412 417005572 1 #
shell $-1 -1 $-1 $-1 $-1 $35 $-1 $14 #
model_id-kcp-attrib $-1 -1 $-1 $16 $7 1 1021400412 1021400412 418643971 1 #
shell $-1 -1 $-1 $-1 $-1 $36 $-1 $17 #
model_id-kcp-attrib $-1 -1 $-1 $19 $8 1 1021400412 1021400413 413597701 1 #
shell $-1 -1 $-1 $-1 $-1 $37 $-1 $20 #
model_id-kcp-attrib $-1 -1 $-1 $-1 $22 1 1021400412 1021400412 410124289 2 #
face $38 -1 $-1 $39 $40 $9 $-1 $41 forward single #
loop $-1 -1 $-1 $-1 $42 $22 #
plane-surface $-1 -1 $-1 0 0 165.09999999999999 0 0 -1 25.399999999999999 0 0 forward_v I I I I #
face $43 -1 $-1 $44 $45 $23 $-1 $46 forward single #
face $-1 -1 $-1 $47 $48 $25 $-1 $49 forward single #
face $-1 -1 $-1 $50 $51 $27 $-1 $52 reversed single #
face $-1 -1 $-1 $53 $54 $29 $-1 $55 forward single #
model_id-kcp-attrib $-1 -1 $-1 $-1 $31 1 1021400412 1021400412 410124289 3 #
face $56 -1 $-1 $57 $58 $9 $-1 $59 forward single #
loop $-1 -1 $-1 $-1 $60 $31 #
cone-surface $-1 -1 $-1 0 0 142.11299999999994 0 0 1 25.400000000000535 0 0 1 I I -0.70710678118655501 0.70710678118654002 25.400000000000535 forward I I I I #
coedge $-1 -1 $-1 $61 $61 $62 $63 reversed $32 $-1 #
model_id-kcp-attrib $-1 -1 $-1 $-1 $34 1 1021400412 1021400412 410779650 2 #
face $64 -1 $-1 $65 $66 $23 $-1 $67 reversed single #
loop $-1 -1 $-1 $-1 $68 $34 #
plane-surface $-1 -1 $-1 0 0 165.09999999999999 0 0 1 1 0 0 forward_v I I I I #
face $-1 -1 $-1 $69 $70 $25 $-1 $71 forward single #
loop $-1 -1 $-1 $72 $73 $35 #
cone-surface $-1 -1 $-1 0 4.4408920985006262e-016 133.35000000000002 0 0 1 3.1749999999999998 0 0 1 I I 0 -1 3.1749999999999998 forward I I I I #
face $-1 -1 $-1 $74 $75 $27 $-1 $52 reversed single #
loop $-1 -1 $-1 $-1 $76 $36 #
cone-surface $-1 -1 $-1 5.3566006407584489e-032 4.4408920985006262e-016 165.09999999999999 0 0 1 -4.7624999999999993 5.8321877600790713e-016 0 1 I I 0 1 4.7624999999999993 forward I I I I #
face $-1 -1 $-1 $77 $78 $29 $-1 $79 forward single #
loop $-1 -1 $-1 $80 $81 $37 #
cone-surface $-1 -1 $-1 0 4.4408920985006262e-016 -133.35000000000005 0 0 -1 3.1749999999999998 0 0 1 I I 0 -1 3.1749999999999998 forward I I I I #
model_id-kcp-attrib $-1 -1 $-1 $-1 $39 1 1021400412 1021400412 410124289 4 #
face $82 -1 $-1 $83 $84 $9 $-1 $85 forward single #
loop $-1 -1 $-1 $-1 $86 $39 #
cone-surface $-1 -1 $-1 0 0 142.11299999999994 0 0 1 25.400000000000535 0 0 1 I I -0.70710678118655501 0.70710678118654002 25.400000000000535 forward I I I I #
coedge $-1 -1 $-1 $87 $62 $88 $89 forward $40 $-1 #
coedge $-1 -1 $-1 $42 $42 $90 $91 forward $32 $-1 #
coedge $-1 -1 $-1 $60 $92 $42 $63 forward $40 $-1 #
edge $93 -1 $-1 $94 1.6935413415045201e-032 $95 3.1415926535897918 $42 $96 forward @7 unknown #
model_id-kcp-attrib $-1 -1 $-1 $-1 $44 1 1021400412 1021400412 410779650 3 #
face $-1 -1 $-1 $97 $98 $23 $-1 $99 reversed single #
loop $-1 -1 $-1 $-1 $100 $44 #
plane-surface $-1 -1 $-1 0 0 -165.09999999999999 0 0 1 1 0 0 forward_v I I I I #
coedge $-1 -1 $-1 $101 $102 $103 $104 forward $45 $-1 #
face $-1 -1 $-1 $105 $106 $25 $-1 $107 forward single #
loop $-1 -1 $-1 $108 $109 $47 #
cone-surface $-1 -1 $-1 5.3566006407584489e-032 4.4408920985006262e-016 133.35000000000002 0 0 1 -4.7624999999999993 5.8321877600790713e-016 0 1 I I 0 1 4.7624999999999993 forward I I I I #
loop $-1 -1 $-1 $-1 $110 $35 #
coedge $-1 -1 $-1 $73 $73 $111 $112 forward $48 $-1 #
face $-1 -1 $-1 $113 $114 $27 $-1 $52 reversed single #
loop $-1 -1 $-1 $-1 $115 $50 #
coedge $-1 -1 $-1 $116 $117 $118 $119 reversed $51 $-1 #
face $-1 -1 $-1 $120 $121 $29 $-1 $122 reversed single #
loop $-1 -1 $-1 $123 $124 $53 #
cone-surface $-1 -1 $-1 5.3566006407584489e-032 4.4408920985006262e-016 -133.35000000000005 0 0 -1 -4.7624999999999993 5.8321877600790713e-016 0 1 I I 0 1 4.7624999999999993 forward I I I I #
loop $-1 -1 $-1 $-1 $125 $37 #
coedge $-1 -1 $-1 $81 $81 $126 $127 forward $54 $-1 #
model_id-kcp-attrib $-1 -1 $-1 $-1 $57 1 1021400412 1021400412 410124289 5 #
face $128 -1 $-1 $129 $130 $9 $-1 $131 forward single #
loop $-1 -1 $-1 $-1 $132 $57 #
cone-surface $-1 -1 $-1 0 0 181.60999999999999 0 0 -1 3.1749999999999998 0 0 1 I I 0 1 3.1749999999999998 forward I I I I #
coedge $-1 -1 $-1 $133 $90 $92 $134 forward $58 $-1 #
coedge $-1 -1 $-1 $92 $60 $135 $136 reversed $40 $-1 #
coedge $-1 -1 $-1 $90 $133 $60 $89 reversed $58 $-1 #
edge $-1 -1 $-1 $95 0 $137 0.042426406871192805 $60 $138 forward @7 unknown #
coedge $-1 -1 $-1 $86 $88 $61 $91 reversed $58 $-1 #
edge $139 -1 $-1 $94 0 $95 3.1415926535897944 $61 $140 forward @7 unknown #
coedge $-1 -1 $-1 $62 $87 $86 $134 reversed $40 $-1 #
attrib_edge_convexity-kcp-attrib $-1 -1 $141 $-1 $63 1 #
vertex $-1 -1 $-1 $91 $142 #
vertex $-1 -1 $-1 $91 $143 #
ellipse-curve $-1 -1 $-1 0 8.8123952579621795e-017 165.09999999999999 0 0 -1 -2.413000000000002 2.0737356059771784e-016 0 1 I I #
face $-1 -1 $-1 $144 $145 $23 $-1 $146 reversed single #
loop $-1 -1 $-1 $-1 $147 $65 #
plane-surface $-1 -1 $-1 0 -4.7624999999999993 0 0 1 0 0 0 1 forward_v I I I I #
coedge $-1 -1 $-1 $148 $149 $150 $151 forward $66 $-1 #
coedge $-1 -1 $-1 $152 $68 $153 $154 forward $45 $-1 #
coedge $-1 -1 $-1 $68 $152 $155 $156 forward $45 $-1 #
coedge $-1 -1 $-1 $157 $158 $68 $104 reversed $159 $-1 #
edge $-1 -1 $-1 $160 -4.7624999999999993 $161 4.7624999999999993 $103 $162 forward @7 unknown #
face $-1 -1 $-1 $-1 $163 $25 $-1 $164 reversed single #
loop $-1 -1 $-1 $165 $166 $69 #
plane-surface $-1 -1 $-1 0.25977272727272699 3.3306690738754696e-016 152.39999999999998 2.592547362305961e-030 1.1195090882684833e-030 1 1 0 -2.592547362305961e-030 forward_v I I I I #
loop $-1 -1 $-1 $-1 $167 $47 #
coedge $-1 -1 $-1 $109 $109 $166 $168 forward $70 $-1 #
coedge $-1 -1 $-1 $110 $110 $169 $170 reversed $72 $-1 #
coedge $-1 -1 $-1 $111 $111 $73 $112 reversed $165 $-1 #
edge $-1 -1 $-1 $171 -3.1415926535897931 $171 3.1415926535897931 $73 $172 forward @7 unknown #
face $-1 -1 $-1 $173 $174 $27 $-1 $52 reversed single #
loop $-1 -1 $-1 $-1 $175 $74 #
coedge $-1 -1 $-1 $176 $177 $178 $179 reversed $75 $-1 #
coedge $-1 -1 $-1 $180 $76 $181 $182 reversed $51 $-1 #
coedge $-1 -1 $-1 $76 $180 $183 $184 reversed $51 $-1 #
coedge $-1 -1 $-1 $185 $186 $187 $119 forward $188 $-1 #
edge $-1 -1 $-1 $189 -330.19999999999999 $190 0 $118 $191 forward @7 unknown #
face $-1 -1 $-1 $-1 $192 $29 $-1 $193 forward single #
loop $-1 -1 $-1 $194 $195 $77 #
plane-surface $-1 -1 $-1 0.25977272727272699 4.9960036108132044e-016 -152.01900000000006 -3.5352918576899463e-031 -2.3568612384599646e-031 1 1 0 3.5352918576899463e-031 forward_v I I I I #
loop $-1 -1 $-1 $-1 $196 $53 #
coedge $-1 -1 $-1 $124 $124 $195 $197 forward $78 $-1 #
coedge $-1 -1 $-1 $125 $125 $198 $199 reversed $80 $-1 #
coedge $-1 -1 $-1 $126 $126 $81 $127 reversed $194 $-1 #
edge $-1 -1 $-1 $200 0 $200 6.2831853071795862 $81 $201 forward @7 unknown #
model_id-kcp-attrib $-1 -1 $-1 $-1 $83 1 1021400412 1021400412 410124289 6 #
face $202 -1 $-1 $203 $204 $9 $-1 $205 forward single #
loop $-1 -1 $-1 $206 $207 $83 #
plane-surface $-1 -1 $-1 0 0 153.66999999999999 0 0 -1 25.399999999999999 0 0 forward_v I I I I #
coedge $-1 -1 $-1 $208 $209 $210 $211 forward $84 $-1 #
coedge $-1 -1 $-1 $88 $86 $212 $213 forward $58 $-1 #
edge $-1 -1 $-1 $94 0 $214 0.042426406871192805 $92 $215 forward @7 unknown #
coedge $-1 -1 $-1 $216 $217 $87 $136 forward $218 $-1 #
edge $-1 -1 $-1 $214 1.9563789577060247e-032 $137 3.1415926535897931 $135 $219 forward @7 unknown #
vertex $-1 -1 $-1 $220 $221 #
straight-curve $-1 -1 $-1 2.413000000000002 3.6953540271181298e-015 165.09999999999999 17.960512242138471 2.7505367278529206e-014 -17.96051224213814 I I #
attrib_edge_convexity-kcp-attrib $-1 -1 $222 $-1 $91 1 #
ellipse-curve $-1 -1 $-1 -8.8123952579621795e-017 0 165.09999999999999 0 0 1 -2.413000000000002 2.9549751317733966e-016 0 1 I I #
convexity-sys-attrib $-1 -1 $-1 $93 $63 #
point $-1 -1 $-1 -2.413000000000002 2.9549751317733966e-016 165.09999999999999 #
point $-1 -1 $-1 2.413000000000002 3.6953540271181298e-015 165.09999999999999 #
face $-1 -1 $-1 $223 $224 $23 $-1 $225 reversed single #
loop $-1 -1 $-1 $-1 $226 $97 #
plane-surface $-1 -1 $-1 -4.7624999999999993 0 0 1 0 0 0 0 -1 forward_v I I I I #
coedge $-1 -1 $-1 $227 $155 $228 $229 forward $98 $-1 #
coedge $-1 -1 $-1 $230 $100 $227 $231 forward $66 $-1 #
coedge $-1 -1 $-1 $100 $230 $232 $233 forward $66 $-1 #
coedge $-1 -1 $-1 $158 $157 $100 $151 reversed $159 $-1 #
edge $-1 -1 $-1 $234 -4.7624999999999993 $235 4.7624999999999993 $150 $236 forward @7 unknown #
coedge $-1 -1 $-1 $102 $101 $237 $238 forward $45 $-1 #
coedge $-1 -1 $-1 $239 $240 $101 $154 reversed $224 $-1 #
edge $-1 -1 $-1 $161 -4.7624999999999993 $241 4.7624999999999993 $153 $242 forward @7 unknown #
coedge $-1 -1 $-1 $147 $243 $102 $156 reversed $98 $-1 #
edge $-1 -1 $-1 $244 -4.7624999999999993 $160 4.7624999999999993 $155 $245 forward @7 unknown #
coedge $-1 -1 $-1 $150 $103 $243 $246 forward $159 $-1 #
coedge $-1 -1 $-1 $103 $150 $239 $247 reversed $159 $-1 #
loop $-1 -1 $-1 $-1 $157 $223 #
vertex $-1 -1 $-1 $104 $248 #
vertex $-1 -1 $-1 $104 $249 #
straight-curve $-1 -1 $-1 4.7624999999999993 0 165.09999999999999 0 1 0 I I #
loop $-1 -1 $-1 $250 $251 $105 #
plane-surface $-1 -1 $-1 0.25977272727272699 3.3306690738754696e-016 133.34999999999999 2.592547362305961e-030 1.1195090882684833e-030 1 1 0 -2.592547362305961e-030 forward_v I I I I #
loop $-1 -1 $-1 $-1 $111 $69 #
coedge $-1 -1 $-1 $166 $166 $109 $168 reversed $106 $-1 #
coedge $-1 -1 $-1 $167 $167 $251 $252 reversed $108 $-1 #
edge $-1 -1 $-1 $253 -3.1415926535897931 $253 3.1415926535897931 $109 $254 forward @7 unknown #
coedge $-1 -1 $-1 $169 $169 $110 $170 forward $250 $-1 #
edge $255 -1 $-1 $256 -2.4492127076447545e-016 $256 6.2831853071795862 $110 $257 forward @7 unknown #
vertex $-1 -1 $-1 $112 $258 #
ellipse-curve $-1 -1 $-1 0 4.4408920985006262e-016 152.40000000000001 0 0 1 3.1749999999999998 0 0 1 I I #
face $-1 -1 $-1 $259 $260 $27 $-1 $261 reversed single #
loop $-1 -1 $-1 $-1 $262 $113 #
coedge $-1 -1 $-1 $263 $264 $265 $266 reversed $114 $-1 #
coedge $-1 -1 $-1 $267 $115 $268 $269 reversed $75 $-1 #
coedge $-1 -1 $-1 $115 $267 $76 $119 forward $75 $-1 #
coedge $-1 -1 $-1 $270 $271 $115 $179 forward $272 $-1 #
edge $-1 -1 $-1 $273 -3.1415926535897931 $190 -1.5707963267948968 $178 $274 forward @7 unknown #
coedge $-1 -1 $-1 $117 $116 $264 $275 forward $51 $-1 #
coedge $-1 -1 $-1 $276 $277 $116 $182 forward $278 $-1 #
edge $-1 -1 $-1 $279 1.2246063538223773e-016 $189 1.5707963267948968 $181 $280 forward @7 unknown #
coedge $-1 -1 $-1 $281 $282 $117 $184 forward $283 $-1 #
edge $-1 -1 $-1 $190 -1.5707963267948968 $284 -1.2246063538223773e-016 $183 $274 forward @7 unknown #
coedge $-1 -1 $-1 $285 $118 $282 $286 reversed $188 $-1 #
coedge $-1 -1 $-1 $118 $285 $276 $287 reversed $188 $-1 #
coedge $-1 -1 $-1 $288 $289 $177 $119 reversed $290 $-1 #
loop $-1 -1 $-1 $-1 $118 $291 #
vertex $-1 -1 $-1 $287 $292 #
vertex $-1 -1 $-1 $293 $294 #
straight-curve $-1 -1 $-1 5.3566006407584489e-032 -4.7624999999999993 165.09999999999999 0 0 1 I I #
loop $-1 -1 $-1 $295 $296 $120 #
plane-surface $-1 -1 $-1 0.25977272727272699 4.9960036108132044e-016 -133.35000000000005 -3.5352918576899463e-031 -2.3568612384599646e-031 1 1 0 3.5352918576899463e-031 forward_v I I I I #
loop $-1 -1 $-1 $-1 $126 $77 #
coedge $-1 -1 $-1 $195 $195 $124 $197 reversed $121 $-1 #
coedge $-1 -1 $-1 $196 $196 $296 $297 reversed $123 $-1 #
edge $-1 -1 $-1 $298 -3.1415926535897931 $298 3.1415926535897931 $124 $299 forward @7 unknown #
coedge $-1 -1 $-1 $198 $198 $125 $199 forward $295 $-1 #
edge $300 -1 $-1 $301 -3.1415926535897931 $301 3.1415926535897931 $125 $302 forward @7 unknown #
vertex $-1 -1 $-1 $127 $303 #
ellipse-curve $-1 -1 $-1 0 4.4408920985006262e-016 -152.01900000000006 0 0 -1 3.1749999999999998 0 0 1 I I #
model_id-kcp-attrib $-1 -1 $-1 $-1 $129 1 1021400412 1021400412 410124289 7 #
face $304 -1 $-1 $305 $306 $9 $-1 $307 reversed single #
loop $-1 -1 $-1 $-1 $308 $129 #
cone-surface $-1 -1 $-1 0 0 181.60999999999999 0 0 -1 2.3621999999999996 0 0 1 I I 0 1 2.3621999999999996 forward I I I I #
loop $-1 -1 $-1 $-1 $309 $83 #
coedge $-1 -1 $-1 $310 $310 $311 $312 forward $130 $-1 #
coedge $-1 -1 $-1 $212 $132 $216 $220 forward $84 $-1 #
coedge $-1 -1 $-1 $132 $212 $217 $313 reversed $84 $-1 #
coedge $-1 -1 $-1 $309 $309 $132 $211 reversed $206 $-1 #
edge $-1 -1 $-1 $314 -1.9563789577060247e-032 $315 3.1415926535897931 $210 $316 forward @7 unknown #
coedge $-1 -1 $-1 $209 $208 $133 $213 reversed $84 $-1 #
edge $-1 -1 $-1 $214 3.9127579154120494e-032 $137 3.1415926535897931 $212 $317 forward @7 unknown #
vertex $-1 -1 $-1 $313 $318 #
straight-curve $-1 -1 $-1 -2.413000000000002 2.9549751317733966e-016 165.09999999999999 -17.960512242138471 2.199455740962742e-015 -17.96051224213814 I I #
coedge $-1 -1 $-1 $319 $135 $208 $220 reversed $218 $-1 #
coedge $-1 -1 $-1 $135 $319 $209 $313 forward $218 $-1 #
loop $-1 -1 $-1 $-1 $135 $320 #
ellipse-curve $-1 -1 $-1 0 8.8123952579621795e-017 164.33799999999999 0 0 -1 -3.1749999999999998 3.0068856475898295e-016 0 1 I I #
edge $-1 -1 $-1 $315 0 $137 0.42000000000000026 $216 $321 forward @7 unknown #
point $-1 -1 $-1 3.1749999999999998 -7.7762503467720954e-016 164.33799999999999 #
convexity-sys-attrib $-1 -1 $-1 $139 $91 #
face $-1 -1 $-1 $-1 $159 $23 $-1 $322 reversed single #
loop $-1 -1 $-1 $-1 $239 $144 #
plane-surface $-1 -1 $-1 0 4.7624999999999993 0 0 -1 0 0 0 -1 forward_v I I I I #
coedge $-1 -1 $-1 $323 $237 $240 $324 forward $145 $-1 #
coedge $-1 -1 $-1 $243 $147 $148 $231 reversed $98 $-1 #
coedge $-1 -1 $-1 $237 $323 $147 $229 reversed $145 $-1 #
edge $-1 -1 $-1 $244 -165.09999999999999 $325 165.09999999999999 $228 $326 forward @7 unknown #
coedge $-1 -1 $-1 $149 $148 $323 $327 forward $66 $-1 #
edge $-1 -1 $-1 $235 -4.7624999999999993 $325 4.7624999999999993 $227 $328 forward @7 unknown #
coedge $-1 -1 $-1 $240 $239 $149 $233 reversed $224 $-1 #
edge $-1 -1 $-1 $329 -4.7624999999999993 $234 4.7624999999999993 $232 $330 forward @7 unknown #
vertex $-1 -1 $-1 $151 $331 #
vertex $-1 -1 $-1 $246 $332 #
straight-curve $-1 -1 $-1 4.7624999999999993 0 -165.09999999999999 0 -1 0 I I #
coedge $-1 -1 $-1 $226 $228 $152 $238 reversed $145 $-1 #
edge $-1 -1 $-1 $241 -4.7624999999999993 $244 4.7624999999999993 $237 $333 forward @7 unknown #
coedge $-1 -1 $-1 $232 $153 $158 $247 forward $224 $-1 #
coedge $-1 -1 $-1 $153 $232 $226 $324 reversed $224 $-1 #
vertex $-1 -1 $-1 $154 $334 #
straight-curve $-1 -1 $-1 0 4.7624999999999993 165.09999999999999 -1 0 0 I I #
coedge $-1 -1 $-1 $155 $227 $157 $246 reversed $98 $-1 #
vertex $-1 -1 $-1 $238 $335 #
straight-curve $-1 -1 $-1 0 -4.7624999999999993 165.09999999999999 1 0 0 I I #
edge $-1 -1 $-1 $160 -165.09999999999999 $235 165.09999999999999 $157 $336 forward @7 unknown #
edge $-1 -1 $-1 $161 -165.09999999999999 $234 165.09999999999999 $158 $337 forward @7 unknown #
point $-1 -1 $-1 4.7624999999999993 -4.7624999999999993 165.09999999999999 #
point $-1 -1 $-1 4.7624999999999993 4.7624999999999993 165.09999999999999 #
loop $-1 -1 $-1 $-1 $169 $105 #
coedge $-1 -1 $-1 $251 $251 $167 $252 forward $163 $-1 #
edge $338 -1 $-1 $339 -3.1415926535897931 $339 3.1415926535897931 $167 $340 forward @7 unknown #
vertex $-1 -1 $-1 $168 $341 #
ellipse-curve $-1 -1 $-1 5.3566006407584489e-032 4.4408920985006262e-016 152.40000000000001 0 0 -1 -4.7624999999999993 5.8321877600790713e-016 0 1 I I #
convexity-sys-attrib $-1 -1 $-1 $-1 $170 #
vertex $-1 -1 $-1 $170 $342 #
ellipse-curve $-1 -1 $-1 0 4.4408920985006262e-016 133.35000000000002 0 0 1 3.1749999999999998 0 0 1 I I #
point $-1 -1 $-1 -3.1749999999999998 8.3290172718866744e-016 152.39999999999998 #
face $-1 -1 $-1 $343 $290 $27 $-1 $344 reversed single #
loop $-1 -1 $-1 $-1 $345 $173 #
plane-surface $-1 -1 $-1 -4.7624999999999993 0 0 1 0 0 0 0 -1 forward_v I I I I #
coedge $-1 -1 $-1 $346 $347 $348 $349 reversed $174 $-1 #
coedge $-1 -1 $-1 $350 $175 $347 $351 forward $114 $-1 #
coedge $-1 -1 $-1 $175 $350 $352 $275 reversed $114 $-1 #
coedge $-1 -1 $-1 $353 $354 $175 $266 forward $355 $-1 #
edge $-1 -1 $-1 $356 -1.5707963267948966 $279 1.2246063538223773e-016 $265 $280 forward @7 unknown #
coedge $-1 -1 $-1 $177 $176 $357 $358 reversed $75 $-1 #
coedge $-1 -1 $-1 $359 $360 $361 $269 forward $362 $-1 #
edge $-1 -1 $-1 $363 -330.19999999999999 $273 0 $268 $364 forward @7 unknown #
coedge $-1 -1 $-1 $271 $178 $289 $293 forward $272 $-1 #
coedge $-1 -1 $-1 $178 $270 $359 $365 forward $272 $-1 #
loop $-1 -1 $-1 $-1 $178 $366 #
vertex $-1 -1 $-1 $367 $368 #
ellipse-curve $-1 -1 $-1 5.3566006407584489e-032 4.4408920985006262e-016 165.09999999999999 0 0 -1 -4.7624999999999993 5.8321877600790713e-016 0 1 I I #
edge $-1 -1 $-1 $279 -330.19999999999999 $284 0 $352 $369 forward @7 unknown #
coedge $-1 -1 $-1 $277 $181 $186 $287 forward $278 $-1 #
coedge $-1 -1 $-1 $181 $276 $370 $371 forward $278 $-1 #
loop $-1 -1 $-1 $-1 $181 $372 #
vertex $-1 -1 $-1 $373 $374 #
ellipse-curve $-1 -1 $-1 5.3566006407584489e-032 4.4408920985006262e-016 -165.09999999999999 0 0 1 -4.7624999999999993 5.8321877600790713e-016 0 1 I I #
coedge $-1 -1 $-1 $282 $183 $375 $376 forward $283 $-1 #
coedge $-1 -1 $-1 $183 $281 $185 $286 forward $283 $-1 #
loop $-1 -1 $-1 $-1 $183 $377 #
vertex $-1 -1 $-1 $376 $378 #
coedge $-1 -1 $-1 $186 $185 $379 $380 forward $188 $-1 #
edge $-1 -1 $-1 $381 -4.7624999999999993 $190 5.3566006407584489e-032 $185 $382 forward @7 unknown #
edge $-1 -1 $-1 $189 -5.3566006407584489e-032 $383 4.7624999999999993 $186 $384 forward @7 unknown #
coedge $-1 -1 $-1 $385 $187 $386 $387 reversed $290 $-1 #
coedge $-1 -1 $-1 $187 $385 $270 $293 reversed $290 $-1 #
loop $-1 -1 $-1 $-1 $187 $259 #
face $-1 -1 $-1 $388 $188 $27 $-1 $344 reversed single #
point $-1 -1 $-1 5.3566006407584489e-032 -4.7624999999999993 -165.09999999999999 #
edge $-1 -1 $-1 $190 5.3566006407584489e-032 $389 4.7624999999999993 $289 $382 forward @7 unknown #
point $-1 -1 $-1 5.3566006407584489e-032 -4.7624999999999993 165.09999999999999 #
loop $-1 -1 $-1 $-1 $198 $120 #
coedge $-1 -1 $-1 $296 $296 $196 $297 forward $192 $-1 #
edge $390 -1 $-1 $391 -3.1415926535897931 $391 3.1415926535897931 $196 $392 forward @7 unknown #
vertex $-1 -1 $-1 $197 $393 #
ellipse-curve $-1 -1 $-1 5.3566006407584489e-032 4.4408920985006262e-016 -152.01900000000006 0 0 1 -4.7624999999999993 5.8321877600790713e-016 0 1 I I #
convexity-sys-attrib $-1 -1 $-1 $-1 $199 #
vertex $-1 -1 $-1 $199 $394 #
ellipse-curve $-1 -1 $-1 0 4.4408920985006262e-016 -133.35000000000005 0 0 -1 3.1749999999999998 0 0 1 I I #
point $-1 -1 $-1 3.1749999999999998 4.4408920985006262e-016 -152.01900000000001 #
model_id-kcp-attrib $-1 -1 $-1 $-1 $203 1 1021400412 1021400412 410124289 8 #
face $395 -1 $-1 $396 $397 $9 $-1 $398 forward single #
loop $-1 -1 $-1 $399 $400 $203 #
plane-surface $-1 -1 $-1 0 0 152.39999999999998 0 0 -1 25.399999999999999 0 0 forward_v I I I I #
coedge $-1 -1 $-1 $401 $402 $403 $404 forward $204 $-1 #
coedge $-1 -1 $-1 $210 $210 $319 $405 forward $206 $-1 #
coedge $-1 -1 $-1 $207 $207 $406 $407 reversed $130 $-1 #
coedge $-1 -1 $-1 $402 $401 $207 $312 reversed $204 $-1 #
edge $-1 -1 $-1 $408 -1.2246063538223773e-016 $409 3.1415926535897931 $207 $410 forward @7 unknown #
edge $-1 -1 $-1 $314 0 $214 0.42000000000000026 $217 $411 forward @7 unknown #
vertex $-1 -1 $-1 $211 $412 #
vertex $-1 -1 $-1 $211 $413 #
ellipse-curve $-1 -1 $-1 8.8123952579621795e-017 8.8123952579621795e-017 153.66999999999999 0 0 1 -3.1749999999999998 3.0068856475898295e-016 0 1 I I #
ellipse-curve $-1 -1 $-1 3.5249581031848718e-016 -8.8123952579621795e-017 164.33799999999999 0 0 1 -3.1749999999999998 4.7693646991822654e-016 0 1 I I #
point $-1 -1 $-1 -3.1749999999999998 3.8881251733860477e-016 164.33799999999999 #
coedge $-1 -1 $-1 $217 $216 $309 $405 reversed $218 $-1 #
face $414 -1 $-1 $-1 $218 $9 $-1 $415 forward single #
straight-curve $-1 -1 $-1 3.1749999999999998 -7.7762503467720954e-016 153.66999999999999 0 0 25.399999999999999 I I #
plane-surface $-1 -1 $-1 4.7624999999999993 0 0 -1 0 0 0 0 1 forward_v I I I I #
coedge $-1 -1 $-1 $228 $226 $230 $327 reversed $145 $-1 #
edge $-1 -1 $-1 $241 -165.09999999999999 $329 165.09999999999999 $240 $416 forward @7 unknown #
vertex $-1 -1 $-1 $327 $417 #
straight-curve $-1 -1 $-1 -4.7624999999999993 -4.7624999999999993 0 0 0 -1 I I #
edge $-1 -1 $-1 $325 -4.7624999999999993 $329 4.7624999999999993 $323 $418 forward @7 unknown #
straight-curve $-1 -1 $-1 0 -4.7624999999999993 -165.09999999999999 -1 0 0 I I #
vertex $-1 -1 $-1 $233 $419 #
straight-curve $-1 -1 $-1 0 4.7624999999999993 -165.09999999999999 1 0 0 I I #
point $-1 -1 $-1 4.7624999999999993 4.7624999999999993 -165.09999999999999 #
point $-1 -1 $-1 4.7624999999999993 -4.7624999999999993 -165.09999999999999 #
straight-curve $-1 -1 $-1 -4.7624999999999993 0 165.09999999999999 0 -1 0 I I #
point $-1 -1 $-1 -4.7624999999999993 4.7624999999999993 165.09999999999999 #
point $-1 -1 $-1 -4.7624999999999993 -4.7624999999999993 165.09999999999999 #
straight-curve $-1 -1 $-1 4.7624999999999993 -4.7624999999999993 0 0 0 -1 I I #
straight-curve $-1 -1 $-1 4.7624999999999993 4.7624999999999993 0 0 0 -1 I I #
convexity-sys-attrib $-1 -1 $-1 $-1 $252 #
vertex $-1 -1 $-1 $252 $420 #
ellipse-curve $-1 -1 $-1 5.3566006407584489e-032 4.4408920985006262e-016 133.35000000000002 0 0 -1 -4.7624999999999993 5.8321877600790713e-016 0 1 I I #
point $-1 -1 $-1 4.7624999999999993 -7.2234834216575164e-016 152.40000000000001 #
point $-1 -1 $-1 3.1749999999999998 -3.3353582482714692e-016 133.34999999999999 #
face $-1 -1 $-1 $421 $422 $27 $-1 $423 reversed single #
plane-surface $-1 -1 $-1 0 -4.7624999999999993 0 0 1 0 0 0 1 forward_v I I I I #
coedge $-1 -1 $-1 $370 $375 $180 $275 reversed $260 $-1 #
coedge $-1 -1 $-1 $424 $262 $176 $269 forward $174 $-1 #
coedge $-1 -1 $-1 $262 $424 $425 $351 reversed $174 $-1 #
coedge $-1 -1 $-1 $426 $427 $262 $349 forward $428 $-1 #
edge $-1 -1 $-1 $363 -3.1415926535897931 $356 -1.5707963267948966 $348 $280 forward @7 unknown #
coedge $-1 -1 $-1 $264 $263 $429 $430 reversed $114 $-1 #
edge $-1 -1 $-1 $356 -330.19999999999999 $431 0 $425 $432 forward @7 unknown #
coedge $-1 -1 $-1 $433 $434 $345 $275 forward $435 $-1 #
coedge $-1 -1 $-1 $354 $265 $434 $373 forward $355 $-1 #
coedge $-1 -1 $-1 $265 $353 $436 $437 forward $355 $-1 #
loop $-1 -1 $-1 $-1 $265 $438 #
vertex $-1 -1 $-1 $439 $440 #
coedge $-1 -1 $-1 $441 $386 $267 $358 forward $442 $-1 #
edge $-1 -1 $-1 $189 1.5707963267948968 $363 3.1415926535897931 $357 $280 forward @7 unknown #
coedge $-1 -1 $-1 $443 $268 $271 $365 reversed $362 $-1 #
coedge $-1 -1 $-1 $268 $443 $441 $444 reversed $362 $-1 #
coedge $-1 -1 $-1 $445 $446 $346 $269 reversed $422 $-1 #
loop $-1 -1 $-1 $-1 $268 $447 #
vertex $-1 -1 $-1 $444 $448 #
straight-curve $-1 -1 $-1 4.7624999999999993 4.4408920985006262e-016 165.09999999999999 0 0 1 I I #
edge $-1 -1 $-1 $389 -4.7624999999999993 $273 4.4408920985006262e-016 $359 $449 forward @7 unknown #
face $-1 -1 $-1 $377 $272 $27 $-1 $450 forward single #
edge $-1 -1 $-1 $273 4.4408920985006262e-016 $451 4.7624999999999993 $446 $449 forward @7 unknown #
point $-1 -1 $-1 4.7624999999999993 4.4408920985006262e-016 165.09999999999999 #
straight-curve $-1 -1 $-1 -4.7624999999999993 4.4408920985006262e-016 165.09999999999999 0 0 1 I I #
coedge $-1 -1 $-1 $379 $345 $277 $371 reversed $260 $-1 #
edge $-1 -1 $-1 $383 -4.7624999999999993 $279 4.4408920985006262e-016 $370 $452 forward @7 unknown #
face $-1 -1 $-1 $453 $278 $27 $-1 $454 reversed single #
edge $-1 -1 $-1 $279 4.4408920985006262e-016 $455 4.7624999999999993 $434 $452 forward @7 unknown #
point $-1 -1 $-1 -4.7624999999999993 4.4408920985006262e-016 -165.09999999999999 #
coedge $-1 -1 $-1 $345 $379 $281 $376 reversed $260 $-1 #
edge $-1 -1 $-1 $284 -4.4408920985006262e-016 $381 4.7624999999999993 $375 $456 forward @7 unknown #
face $-1 -1 $-1 $457 $283 $27 $-1 $450 forward single #
point $-1 -1 $-1 -4.7624999999999993 4.4408920985006262e-016 165.09999999999999 #
coedge $-1 -1 $-1 $375 $370 $285 $380 reversed $260 $-1 #
edge $-1 -1 $-1 $381 -165.09999999999999 $383 165.09999999999999 $379 $458 forward @7 unknown #
vertex $-1 -1 $-1 $376 $459 #
straight-curve $-1 -1 $-1 0 -4.7624999999999993 165.09999999999999 1 0 0 I I #
vertex $-1 -1 $-1 $371 $460 #
straight-curve $-1 -1 $-1 0 -4.7624999999999993 -165.09999999999999 -1 0 0 I I #
coedge $-1 -1 $-1 $289 $288 $443 $461 reversed $290 $-1 #
coedge $-1 -1 $-1 $357 $441 $288 $387 forward $442 $-1 #
edge $-1 -1 $-1 $462 -4.7624999999999993 $189 -5.3566006407584489e-032 $288 $384 forward @7 unknown #
face $-1 -1 $-1 $463 $435 $27 $-1 $261 reversed single #
vertex $-1 -1 $-1 $365 $464 #
convexity-sys-attrib $-1 -1 $-1 $-1 $297 #
vertex $-1 -1 $-1 $297 $465 #
ellipse-curve $-1 -1 $-1 5.3566006407584489e-032 4.4408920985006262e-016 -133.35000000000005 0 0 1 -4.7624999999999993 5.8321877600790713e-016 0 1 I I #
point $-1 -1 $-1 4.7624999999999993 4.4408920985006262e-016 -152.01900000000006 #
point $-1 -1 $-1 -3.1749999999999998 8.3290172718866744e-016 -133.34999999999997 #
model_id-kcp-attrib $-1 -1 $-1 $-1 $305 1 1021400412 1021400412 410124289 9 #
face $466 -1 $-1 $467 $468 $9 $-1 $469 reversed single #
loop $-1 -1 $-1 $-1 $470 $305 #
cone-surface $-1 -1 $-1 0 0 181.60999999999999 0 0 -1 3.1749999999999998 0 0 1 I I 0 1 3.1749999999999998 forward I I I I #
loop $-1 -1 $-1 $-1 $471 $203 #
coedge $-1 -1 $-1 $472 $472 $473 $474 forward $306 $-1 #
coedge $-1 -1 $-1 $311 $308 $475 $476 forward $204 $-1 #
coedge $-1 -1 $-1 $308 $311 $477 $478 reversed $204 $-1 #
coedge $-1 -1 $-1 $471 $471 $308 $404 reversed $399 $-1 #
edge $-1 -1 $-1 $479 0 $480 3.1415926535897931 $403 $481 forward @7 unknown #
edge $-1 -1 $-1 $314 0 $315 3.1415926535897931 $309 $482 forward @7 unknown #
coedge $-1 -1 $-1 $475 $477 $310 $407 forward $483 $-1 #
edge $-1 -1 $-1 $408 1.2246063538223773e-016 $409 3.1415926535897931 $406 $484 forward @7 unknown #
vertex $-1 -1 $-1 $478 $485 #
vertex $-1 -1 $-1 $476 $486 #
ellipse-curve $-1 -1 $-1 0 0 153.66999999999999 0 0 1 -2.3621999999999996 0 0 1 I I #
straight-curve $-1 -1 $-1 -3.1749999999999998 3.8881251733860477e-016 153.66999999999999 0 0 25.399999999999999 I I #
point $-1 -1 $-1 -3.1749999999999998 3.8881251733860477e-016 153.66999999999999 #
point $-1 -1 $-1 3.1749999999999998 -7.7762503467720954e-016 153.66999999999999 #
model_id-kcp-attrib $-1 -1 $-1 $-1 $320 1 1021400412 1021400412 410124289 27 #
cone-surface $-1 -1 $-1 0 0 181.60999999999999 0 0 -1 3.1749999999999998 0 0 1 I I 0 1 3.1749999999999998 forward I I I I #
straight-curve $-1 -1 $-1 -4.7624999999999993 4.7624999999999993 0 0 0 -1 I I #
point $-1 -1 $-1 -4.7624999999999993 -4.7624999999999993 -165.09999999999999 #
straight-curve $-1 -1 $-1 -4.7624999999999993 0 -165.09999999999999 0 1 0 I I #
point $-1 -1 $-1 -4.7624999999999993 4.7624999999999993 -165.09999999999999 #
point $-1 -1 $-1 4.7624999999999993 -7.2234834216575164e-016 133.35000000000002 #
face $-1 -1 $-1 $366 $487 $27 $-1 $450 forward single #
loop $-1 -1 $-1 $-1 $361 $343 #
plane-surface $-1 -1 $-1 4.7624999999999993 0 0 -1 0 0 0 0 1 forward_v I I I I #
coedge $-1 -1 $-1 $347 $346 $488 $489 reversed $174 $-1 #
coedge $-1 -1 $-1 $490 $491 $492 $351 forward $493 $-1 #
coedge $-1 -1 $-1 $427 $348 $491 $439 forward $428 $-1 #
coedge $-1 -1 $-1 $348 $426 $445 $494 forward $428 $-1 #
loop $-1 -1 $-1 $-1 $348 $495 #
coedge $-1 -1 $-1 $496 $497 $350 $430 forward $498 $-1 #
edge $-1 -1 $-1 $284 -1.2246063538223773e-016 $431 1.5707963267948966 $429 $274 forward @7 unknown #
vertex $-1 -1 $-1 $499 $500 #
straight-curve $-1 -1 $-1 5.3566006407584489e-032 4.7624999999999993 165.09999999999999 0 0 1 I I #
coedge $-1 -1 $-1 $501 $352 $497 $502 reversed $435 $-1 #
coedge $-1 -1 $-1 $352 $501 $353 $373 reversed $435 $-1 #
loop $-1 -1 $-1 $-1 $352 $388 #
coedge $-1 -1 $-1 $503 $492 $354 $437 reversed $504 $-1 #
edge $-1 -1 $-1 $455 -4.7624999999999993 $356 5.3566006407584489e-032 $436 $505 forward @7 unknown #
face $-1 -1 $-1 $372 $355 $27 $-1 $454 reversed single #
edge $-1 -1 $-1 $356 5.3566006407584489e-032 $506 4.7624999999999993 $491 $505 forward @7 unknown #
point $-1 -1 $-1 5.3566006407584489e-032 4.7624999999999993 -165.09999999999999 #
coedge $-1 -1 $-1 $386 $357 $360 $444 forward $442 $-1 #
loop $-1 -1 $-1 $-1 $357 $453 #
coedge $-1 -1 $-1 $360 $359 $385 $461 forward $362 $-1 #
edge $-1 -1 $-1 $363 -4.4408920985006262e-016 $462 4.7624999999999993 $360 $507 forward @7 unknown #
coedge $-1 -1 $-1 $508 $361 $427 $494 reversed $422 $-1 #
coedge $-1 -1 $-1 $361 $508 $509 $367 reversed $422 $-1 #
face $-1 -1 $-1 $-1 $362 $27 $-1 $423 reversed single #
point $-1 -1 $-1 4.7624999999999993 4.4408920985006262e-016 -165.09999999999999 #
straight-curve $-1 -1 $-1 4.7624999999999993 0 165.09999999999999 0 1 0 I I #
plane-surface $-1 -1 $-1 0 0 165.09999999999999 0 0 1 1 0 0 forward_v I I I I #
vertex $-1 -1 $-1 $367 $510 #
straight-curve $-1 -1 $-1 -4.7624999999999993 0 -165.09999999999999 0 1 0 I I #
face $-1 -1 $-1 $291 $442 $27 $-1 $454 reversed single #
plane-surface $-1 -1 $-1 0 0 -165.09999999999999 0 0 1 1 0 0 forward_v I I I I #
vertex $-1 -1 $-1 $437 $511 #
straight-curve $-1 -1 $-1 -4.7624999999999993 0 165.09999999999999 0 -1 0 I I #
face $-1 -1 $-1 $512 $498 $27 $-1 $450 forward single #
straight-curve $-1 -1 $-1 -4.7624999999999993 -4.7624999999999993 0 0 0 -1 I I #
point $-1 -1 $-1 -4.7624999999999993 -4.7624999999999993 165.09999999999999 #
point $-1 -1 $-1 -4.7624999999999993 -4.7624999999999993 -165.09999999999999 #
edge $-1 -1 $-1 $389 -165.09999999999999 $462 165.09999999999999 $443 $513 forward @7 unknown #
vertex $-1 -1 $-1 $461 $514 #
face $-1 -1 $-1 $447 $493 $27 $-1 $515 reversed single #
point $-1 -1 $-1 4.7624999999999993 -4.7624999999999993 165.09999999999999 #
point $-1 -1 $-1 4.7624999999999993 4.4408920985006262e-016 -133.35000000000005 #
model_id-kcp-attrib $-1 -1 $-1 $-1 $396 1 1021400412 1021400412 410124289 10 #
face $516 -1 $-1 $517 $518 $9 $-1 $519 forward single #
loop $-1 -1 $-1 $520 $521 $396 #
plane-surface $-1 -1 $-1 0 0 133.34999999999999 0 0 -1 25.399999999999999 0 0 forward_v I I I I #
coedge $-1 -1 $-1 $522 $523 $524 $525 forward $397 $-1 #
coedge $-1 -1 $-1 $403 $403 $526 $527 forward $399 $-1 #
coedge $-1 -1 $-1 $400 $400 $528 $529 reversed $306 $-1 #
coedge $-1 -1 $-1 $523 $522 $400 $474 reversed $397 $-1 #
edge $-1 -1 $-1 $530 -1.2246063538223773e-016 $531 3.1415926535897931 $400 $532 forward @7 unknown #
coedge $-1 -1 $-1 $526 $406 $401 $476 reversed $483 $-1 #
edge $-1 -1 $-1 $480 0 $409 0.050000000000000405 $475 $533 forward @7 unknown #
coedge $-1 -1 $-1 $406 $526 $402 $478 forward $483 $-1 #
edge $-1 -1 $-1 $479 0 $408 0.050000000000000405 $477 $534 forward @7 unknown #
vertex $-1 -1 $-1 $404 $535 #
vertex $-1 -1 $-1 $404 $536 #
ellipse-curve $-1 -1 $-1 0 0 152.39999999999998 0 0 1 -2.3621999999999996 2.8927651289992194e-016 0 1 I I #
ellipse-curve $-1 -1 $-1 0 -1.7624790515924359e-016 153.66999999999999 0 0 -1 -3.1749999999999998 5.6506042249784836e-016 0 1 I I #
loop $-1 -1 $-1 $-1 $406 $537 #
ellipse-curve $-1 -1 $-1 0 0 153.66999999999999 0 0 -1 -2.3621999999999996 0 0 1 I I #
point $-1 -1 $-1 -2.3621999999999996 2.8927651289992194e-016 153.66999999999999 #
point $-1 -1 $-1 2.3621999999999996 0 153.66999999999999 #
loop $-1 -1 $-1 $-1 $488 $421 #
coedge $-1 -1 $-1 $509 $538 $424 $489 forward $487 $-1 #
edge $-1 -1 $-1 $431 1.5707963267948966 $273 3.1415926535897931 $488 $274 forward @7 unknown #
coedge $-1 -1 $-1 $539 $425 $538 $540 reversed $493 $-1 #
coedge $-1 -1 $-1 $425 $539 $426 $439 reversed $493 $-1 #
coedge $-1 -1 $-1 $436 $541 $263 $351 reversed $504 $-1 #
loop $-1 -1 $-1 $-1 $425 $463 #
edge $-1 -1 $-1 $506 -4.7624999999999993 $363 -4.4408920985006262e-016 $445 $507 forward @7 unknown #
face $-1 -1 $-1 $438 $428 $27 $-1 $454 reversed single #
coedge $-1 -1 $-1 $497 $429 $541 $499 forward $498 $-1 #
coedge $-1 -1 $-1 $429 $496 $433 $502 forward $498 $-1 #
loop $-1 -1 $-1 $-1 $429 $457 #
edge $-1 -1 $-1 $431 -5.3566006407584489e-032 $542 4.7624999999999993 $541 $543 forward @7 unknown #
point $-1 -1 $-1 5.3566006407584489e-032 4.7624999999999993 165.09999999999999 #
coedge $-1 -1 $-1 $434 $433 $503 $544 forward $435 $-1 #
edge $-1 -1 $-1 $542 -4.7624999999999993 $284 -4.4408920985006262e-016 $433 $456 forward @7 unknown #
coedge $-1 -1 $-1 $541 $436 $501 $544 reversed $504 $-1 #
loop $-1 -1 $-1 $-1 $492 $512 #
straight-curve $-1 -1 $-1 0 4.7624999999999993 -165.09999999999999 1 0 0 I I #
vertex $-1 -1 $-1 $494 $545 #
straight-curve $-1 -1 $-1 4.7624999999999993 0 -165.09999999999999 0 -1 0 I I #
coedge $-1 -1 $-1 $446 $445 $539 $546 reversed $422 $-1 #
coedge $-1 -1 $-1 $538 $488 $446 $367 forward $487 $-1 #
point $-1 -1 $-1 4.7624999999999993 4.7624999999999993 165.09999999999999 #
point $-1 -1 $-1 -4.7624999999999993 4.7624999999999993 -165.09999999999999 #
face $-1 -1 $-1 $495 $504 $27 $-1 $515 reversed single #
straight-curve $-1 -1 $-1 4.7624999999999993 -4.7624999999999993 0 0 0 -1 I I #
point $-1 -1 $-1 4.7624999999999993 -4.7624999999999993 -165.09999999999999 #
plane-surface $-1 -1 $-1 0 4.7624999999999993 0 0 -1 0 0 0 -1 forward_v I I I I #
model_id-kcp-attrib $-1 -1 $-1 $-1 $467 1 1021400412 1021400412 410124289 11 #
face $547 -1 $-1 $548 $549 $9 $-1 $550 forward single #
loop $-1 -1 $-1 $-1 $551 $467 #
cone-surface $-1 -1 $-1 0 0 181.60999999999999 0 0 -1 4.7624999999999993 0 0 1 I I 0 1 4.7624999999999993 forward I I I I #
loop $-1 -1 $-1 $-1 $552 $396 #
coedge $-1 -1 $-1 $553 $553 $554 $555 forward $468 $-1 #
coedge $-1 -1 $-1 $473 $470 $556 $557 forward $397 $-1 #
coedge $-1 -1 $-1 $470 $473 $558 $559 reversed $397 $-1 #
coedge $-1 -1 $-1 $552 $552 $470 $525 reversed $520 $-1 #
edge $560 -1 $-1 $561 -1.9563789577060247e-032 $562 3.1415926535897931 $524 $563 forward @7 unknown #
coedge $-1 -1 $-1 $477 $475 $471 $527 reversed $483 $-1 #
edge $-1 -1 $-1 $479 0 $480 3.1415926535897931 $471 $564 forward @7 unknown #
coedge $-1 -1 $-1 $556 $558 $472 $529 forward $565 $-1 #
edge $-1 -1 $-1 $530 1.2246063538223773e-016 $531 3.1415926535897931 $528 $566 forward @7 unknown #
vertex $-1 -1 $-1 $559 $567 #
vertex $-1 -1 $-1 $557 $568 #
ellipse-curve $-1 -1 $-1 0 0 152.39999999999998 0 0 1 -3.1749999999999998 0 0 1 I I #
straight-curve $-1 -1 $-1 2.3621999999999996 -5.7855302579984387e-016 152.39999999999998 0 0 25.399999999999999 I I #
straight-curve $-1 -1 $-1 -2.3621999999999996 2.8927651289992194e-016 152.39999999999998 0 0 25.399999999999999 I I #
point $-1 -1 $-1 -2.3621999999999996 2.8927651289992194e-016 152.39999999999998 #
point $-1 -1 $-1 2.3621999999999996 -5.7855302579984387e-016 152.39999999999998 #
face $569 -1 $-1 $320 $483 $9 $-1 $570 forward single #
coedge $-1 -1 $-1 $488 $509 $490 $540 forward $487 $-1 #
coedge $-1 -1 $-1 $491 $490 $508 $546 forward $493 $-1 #
edge $-1 -1 $-1 $451 -4.7624999999999993 $431 -5.3566006407584489e-032 $490 $543 forward @7 unknown #
coedge $-1 -1 $-1 $492 $503 $496 $499 reversed $504 $-1 #
vertex $-1 -1 $-1 $499 $571 #
straight-curve $-1 -1 $-1 0 4.7624999999999993 165.09999999999999 -1 0 0 I I #
edge $-1 -1 $-1 $542 -165.09999999999999 $455 165.09999999999999 $503 $572 forward @7 unknown #
point $-1 -1 $-1 4.7624999999999993 4.7624999999999993 -165.09999999999999 #
edge $-1 -1 $-1 $451 -165.09999999999999 $506 165.09999999999999 $508 $573 forward @7 unknown #
model_id-kcp-attrib $-1 -1 $-1 $-1 $517 1 1021400412 1021400412 410124289 12 #
face $574 -1 $-1 $575 $576 $9 $-1 $577 forward single #
loop $-1 -1 $-1 $578 $579 $517 #
plane-surface $-1 -1 $-1 0 0 -133.34999999999999 0 0 -1 25.399999999999999 0 0 forward_v I I I I #
coedge $-1 -1 $-1 $580 $581 $582 $583 forward $518 $-1 #
coedge $-1 -1 $-1 $524 $524 $584 $585 forward $520 $-1 #
coedge $-1 -1 $-1 $521 $521 $586 $587 reversed $468 $-1 #
coedge $-1 -1 $-1 $581 $580 $521 $555 reversed $518 $-1 #
edge $588 -1 $-1 $589 -1.224606353822377e-016 $590 3.1415926535897927 $521 $591 forward @7 unknown #
coedge $-1 -1 $-1 $584 $528 $522 $557 reversed $565 $-1 #
edge $-1 -1 $-1 $562 0 $531 0.74999999999999933 $556 $592 forward @7 unknown #
coedge $-1 -1 $-1 $528 $584 $523 $559 forward $565 $-1 #
edge $-1 -1 $-1 $561 0 $530 0.74999999999999933 $558 $593 forward @7 unknown #
attrib_edge_convexity-kcp-attrib $-1 -1 $594 $-1 $525 2 #
vertex $-1 -1 $-1 $525 $595 #
vertex $-1 -1 $-1 $525 $596 #
ellipse-curve $-1 -1 $-1 8.8123952579621795e-017 8.8123952579621795e-017 133.34999999999999 0 0 1 -3.1749999999999998 3.0068856475898295e-016 0 1 I I #
ellipse-curve $-1 -1 $-1 0 8.8123952579621795e-017 152.39999999999998 0 0 -1 -2.3621999999999996 2.0115256032030014e-016 0 1 I I #
loop $-1 -1 $-1 $-1 $528 $597 #
ellipse-curve $-1 -1 $-1 0 0 152.39999999999998 0 0 -1 -3.1749999999999998 0 0 1 I I #
point $-1 -1 $-1 -3.1749999999999998 3.8881251733860477e-016 152.39999999999998 #
point $-1 -1 $-1 3.1749999999999998 0 152.39999999999998 #
model_id-kcp-attrib $-1 -1 $-1 $-1 $537 1 1021400412 1021400412 410124289 26 #
cone-surface $-1 -1 $-1 0 0 181.60999999999999 0 0 -1 2.3621999999999996 0 0 1 I I 0 1 2.3621999999999996 forward I I I I #
point $-1 -1 $-1 -4.7624999999999993 4.7624999999999993 165.09999999999999 #
straight-curve $-1 -1 $-1 -4.7624999999999993 4.7624999999999993 0 0 0 -1 I I #
straight-curve $-1 -1 $-1 4.7624999999999993 4.7624999999999993 0 0 0 -1 I I #
model_id-kcp-attrib $-1 -1 $-1 $-1 $548 1 1021400412 1021400412 410124289 13 #
face $598 -1 $-1 $599 $600 $9 $-1 $601 forward single #
loop $-1 -1 $-1 $-1 $602 $548 #
cone-surface $-1 -1 $-1 0 0 181.60999999999999 0 0 -1 3.1749999999999998 0 0 1 I I 0 1 3.1749999999999998 forward I I I I #
loop $-1 -1 $-1 $-1 $603 $517 #
coedge $-1 -1 $-1 $604 $604 $605 $606 forward $549 $-1 #
coedge $-1 -1 $-1 $554 $551 $607 $608 forward $518 $-1 #
coedge $-1 -1 $-1 $551 $554 $609 $610 reversed $518 $-1 #
coedge $-1 -1 $-1 $603 $603 $551 $583 reversed $578 $-1 #
edge $611 -1 $-1 $612 0 $613 3.1415926535897931 $582 $614 forward @7 unknown #
coedge $-1 -1 $-1 $558 $556 $552 $585 reversed $565 $-1 #
edge $615 -1 $-1 $561 0 $562 3.1415926535897931 $552 $616 forward @7 unknown #
coedge $-1 -1 $-1 $607 $609 $553 $587 forward $617 $-1 #
edge $618 -1 $-1 $589 1.2246063538223773e-016 $590 3.1415926535897927 $586 $619 forward @7 unknown #
attrib_edge_convexity-kcp-attrib $-1 -1 $620 $-1 $555 1 #
vertex $-1 -1 $-1 $610 $621 #
vertex $-1 -1 $-1 $608 $622 #
ellipse-curve $-1 -1 $-1 -1.7624790515924359e-016 8.81239525796218e-016 133.34999999999999 0 0 1 -4.7624999999999993 -8.81239525796218e-016 0 1 I I #
straight-curve $-1 -1 $-1 3.1749999999999998 -7.7762503467720954e-016 133.34999999999999 0 0 25.399999999999999 I I #
straight-curve $-1 -1 $-1 -3.1749999999999998 3.8881251733860477e-016 133.34999999999999 0 0 25.399999999999999 I I #
convexity-sys-attrib $-1 -1 $-1 $560 $525 #
point $-1 -1 $-1 -3.1749999999999998 3.8881251733860477e-016 133.34999999999999 #
point $-1 -1 $-1 3.1749999999999998 -7.7762503467720954e-016 133.34999999999999 #
face $623 -1 $-1 $537 $565 $9 $-1 $624 forward single #
model_id-kcp-attrib $-1 -1 $-1 $-1 $575 1 1021400412 1021400412 410124289 14 #
face $625 -1 $-1 $626 $627 $9 $-1 $628 forward single #
loop $-1 -1 $-1 $629 $630 $575 #
plane-surface $-1 -1 $-1 0 0 -152.01899999999998 0 0 -1 25.399999999999999 0 0 forward_v I I I I #
coedge $-1 -1 $-1 $631 $632 $633 $634 forward $576 $-1 #
coedge $-1 -1 $-1 $582 $582 $635 $636 forward $578 $-1 #
coedge $-1 -1 $-1 $579 $579 $637 $638 reversed $549 $-1 #
coedge $-1 -1 $-1 $632 $631 $579 $606 reversed $576 $-1 #
edge $639 -1 $-1 $640 -1.2246063538223773e-016 $641 3.1415926535897931 $579 $642 forward @7 unknown #
coedge $-1 -1 $-1 $635 $586 $580 $608 reversed $617 $-1 #
edge $-1 -1 $-1 $613 0 $590 10.499999999999998 $607 $643 forward @7 unknown #
coedge $-1 -1 $-1 $586 $635 $581 $610 forward $617 $-1 #
edge $-1 -1 $-1 $612 0 $589 10.499999999999998 $609 $644 forward @7 unknown #
attrib_edge_convexity-kcp-attrib $-1 -1 $645 $-1 $583 1 #
vertex $-1 -1 $-1 $583 $646 #
vertex $-1 -1 $-1 $583 $647 #
ellipse-curve $-1 -1 $-1 1.7624790515924359e-016 0 -133.34999999999999 4.736951571734001e-015 -5.8009009924943544e-031 1 -4.7624999999999993 5.8321877600790713e-016 2.255973186038318e-014 1 I I #
attrib_edge_convexity-kcp-attrib $-1 -1 $648 $-1 $585 2 #
ellipse-curve $-1 -1 $-1 0 -1.7624790515924359e-016 133.34999999999999 0 0 -1 -3.1749999999999998 5.6506042249784836e-016 0 1 I I #
loop $-1 -1 $-1 $-1 $586 $649 #
attrib_edge_convexity-kcp-attrib $-1 -1 $650 $-1 $587 1 #
ellipse-curve $-1 -1 $-1 -1.7624790515924359e-016 -8.81239525796218e-016 133.34999999999999 0 0 -1 -4.7624999999999993 8.81239525796218e-016 0 1 I I #
convexity-sys-attrib $-1 -1 $-1 $588 $555 #
point $-1 -1 $-1 -4.7624999999999993 5.8321877600790713e-016 133.34999999999999 #
point $-1 -1 $-1 4.7624999999999993 0 133.34999999999999 #
model_id-kcp-attrib $-1 -1 $-1 $-1 $597 1 1021400412 1021400412 410124289 25 #
cone-surface $-1 -1 $-1 0 0 181.60999999999999 0 0 -1 3.1749999999999998 0 0 1 I I 0 1 3.1749999999999998 forward I I I I #
model_id-kcp-attrib $-1 -1 $-1 $-1 $599 1 1021400412 1021400412 410124289 15 #
face $651 -1 $-1 $652 $653 $9 $-1 $654 reversed single #
loop $-1 -1 $-1 $-1 $655 $599 #
cone-surface $-1 -1 $-1 0 0 181.60999999999999 0 0 -1 2.3621999999999996 0 0 1 I I 0 1 2.3621999999999996 forward I I I I #
loop $-1 -1 $-1 $-1 $656 $575 #
coedge $-1 -1 $-1 $657 $657 $658 $659 forward $600 $-1 #
coedge $-1 -1 $-1 $605 $602 $660 $661 forward $576 $-1 #
coedge $-1 -1 $-1 $602 $605 $662 $663 reversed $576 $-1 #
coedge $-1 -1 $-1 $656 $656 $602 $634 reversed $629 $-1 #
edge $-1 -1 $-1 $664 -1.9563789577060247e-032 $665 3.1415926535897931 $633 $666 forward @7 unknown #
coedge $-1 -1 $-1 $609 $607 $603 $636 reversed $617 $-1 #
edge $667 -1 $-1 $612 0 $613 3.1415926535897931 $603 $668 forward @7 unknown #
coedge $-1 -1 $-1 $660 $662 $604 $638 forward $669 $-1 #
edge $670 -1 $-1 $640 1.2246063538223773e-016 $641 3.1415926535897931 $637 $671 forward @7 unknown #
attrib_edge_convexity-kcp-attrib $-1 -1 $672 $-1 $606 2 #
vertex $-1 -1 $-1 $663 $673 #
vertex $-1 -1 $-1 $661 $674 #
ellipse-curve $-1 -1 $-1 0 0 -133.34999999999999 0 0 1 -3.1749999999999998 0 0 1 I I #
straight-curve $-1 -1 $-1 4.7624999999999993 -1.1664375520158143e-015 -133.34999999999997 0 0 25.399999999999999 I I #
straight-curve $-1 -1 $-1 -4.7624999999999993 5.8321877600790713e-016 -133.34999999999997 0 0 25.399999999999999 I I #
convexity-sys-attrib $-1 -1 $-1 $611 $583 #
point $-1 -1 $-1 -4.7624999999999993 5.8321877600790713e-016 -133.34999999999997 #
point $-1 -1 $-1 4.7624999999999993 -1.1664375520158143e-015 -133.34999999999997 #
convexity-sys-attrib $-1 -1 $-1 $615 $585 #
face $675 -1 $-1 $597 $617 $9 $-1 $676 forward single #
convexity-sys-attrib $-1 -1 $-1 $618 $587 #
model_id-kcp-attrib $-1 -1 $-1 $-1 $626 1 1021400412 1021400412 410124289 16 #
face $677 -1 $-1 $678 $679 $9 $-1 $680 forward single #
loop $-1 -1 $-1 $681 $682 $626 #
plane-surface $-1 -1 $-1 0 0 -153.66999999999999 0 0 -1 25.399999999999999 0 0 forward_v I I I I #
coedge $-1 -1 $-1 $683 $684 $685 $686 forward $627 $-1 #
coedge $-1 -1 $-1 $633 $633 $687 $688 forward $629 $-1 #
coedge $-1 -1 $-1 $630 $630 $689 $690 reversed $600 $-1 #
coedge $-1 -1 $-1 $684 $683 $630 $659 reversed $627 $-1 #
edge $-1 -1 $-1 $691 -1.2246063538223773e-016 $692 3.1415926535897931 $630 $693 forward @7 unknown #
coedge $-1 -1 $-1 $687 $637 $631 $661 reversed $669 $-1 #
edge $-1 -1 $-1 $665 0 $641 0.73500000000000043 $660 $694 forward @7 unknown #
coedge $-1 -1 $-1 $637 $687 $632 $663 forward $669 $-1 #
edge $-1 -1 $-1 $664 0 $640 0.73500000000000165 $662 $695 forward @7 unknown #
vertex $-1 -1 $-1 $634 $696 #
vertex $-1 -1 $-1 $634 $697 #
ellipse-curve $-1 -1 $-1 8.8123952579621795e-017 8.8123952579621795e-017 -152.01899999999998 -7.1054273576010019e-015 6.7291992256890021e-031 1 -3.1749999999999998 3.0068856475898295e-016 -2.255973186038318e-014 1 I I #
attrib_edge_convexity-kcp-attrib $-1 -1 $698 $-1 $636 1 #
ellipse-curve $-1 -1 $-1 -1.7624790515924359e-016 -8.81239525796218e-016 -133.34999999999999 -4.736951571734001e-015 1.4566022161616708e-030 -1 -4.7624999999999993 1.4644583018041251e-015 2.255973186038318e-014 1 I I #
loop $-1 -1 $-1 $-1 $637 $699 #
attrib_edge_convexity-kcp-attrib $-1 -1 $700 $-1 $638 2 #
ellipse-curve $-1 -1 $-1 0 0 -133.34999999999999 0 0 -1 -3.1749999999999998 0 0 1 I I #
convexity-sys-attrib $-1 -1 $-1 $639 $606 #
point $-1 -1 $-1 -3.1749999999999998 3.8881251733860477e-016 -133.34999999999997 #
point $-1 -1 $-1 3.1749999999999998 0 -133.34999999999999 #
model_id-kcp-attrib $-1 -1 $-1 $-1 $649 1 1021400412 1021400412 410124289 24 #
cone-surface $-1 -1 $-1 0 0 181.60999999999999 0 0 -1 4.7624999999999993 0 0 1 I I 0 1 4.7624999999999993 forward I I I I #
model_id-kcp-attrib $-1 -1 $-1 $-1 $652 1 1021400412 1021400412 410124289 17 #
face $701 -1 $-1 $702 $703 $9 $-1 $704 forward single #
loop $-1 -1 $-1 $-1 $705 $652 #
cone-surface $-1 -1 $-1 0 0 181.60999999999999 0 0 -1 3.1749999999999998 0 0 1 I I 0 1 3.1749999999999998 forward I I I I #
loop $-1 -1 $-1 $-1 $706 $626 #
coedge $-1 -1 $-1 $707 $707 $708 $709 forward $653 $-1 #
coedge $-1 -1 $-1 $658 $655 $710 $711 forward $627 $-1 #
coedge $-1 -1 $-1 $655 $658 $712 $713 reversed $627 $-1 #
coedge $-1 -1 $-1 $706 $706 $655 $686 reversed $681 $-1 #
edge $-1 -1 $-1 $714 5.6654087522394765e-060 $715 3.1415926535897931 $685 $716 forward @7 unknown #
coedge $-1 -1 $-1 $662 $660 $656 $688 reversed $669 $-1 #
edge $-1 -1 $-1 $664 0 $665 3.1415926535897931 $656 $717 forward @7 unknown #
coedge $-1 -1 $-1 $710 $712 $657 $690 forward $718 $-1 #
edge $-1 -1 $-1 $691 1.2246063538223773e-016 $692 3.1415926535897931 $689 $719 forward @7 unknown #
vertex $-1 -1 $-1 $713 $720 #
vertex $-1 -1 $-1 $711 $721 #
ellipse-curve $-1 -1 $-1 0 0 -152.01899999999998 0 0 1 -2.3621999999999996 0 0 1 I I #
straight-curve $-1 -1 $-1 3.1749999999999998 -7.7762503467720954e-016 -152.01900000000001 0 0 25.399999999999999 I I #
straight-curve $-1 -1 $-1 -3.1749999999999998 3.8881251733860477e-016 -152.01900000000001 0 0 25.399999999999999 I I #
point $-1 -1 $-1 -3.1749999999999998 3.8881251733860477e-016 -152.01900000000001 #
point $-1 -1 $-1 3.1749999999999998 -7.7762503467720954e-016 -152.01900000000001 #
convexity-sys-attrib $-1 -1 $-1 $667 $636 #
face $722 -1 $-1 $649 $669 $9 $-1 $723 forward single #
convexity-sys-attrib $-1 -1 $-1 $670 $638 #
model_id-kcp-attrib $-1 -1 $-1 $-1 $678 1 1021400412 1021400412 410124289 18 #
face $724 -1 $-1 $725 $726 $9 $-1 $727 forward single #
loop $-1 -1 $-1 $-1 $728 $678 #
cone-surface $-1 -1 $-1 0 0 -142.11299999999997 0 0 -1 25.400000000000535 0 0 1 I I -0.70710678118655501 0.70710678118654002 25.400000000000535 forward I I I I #
coedge $-1 -1 $-1 $729 $730 $731 $732 forward $679 $-1 #
coedge $-1 -1 $-1 $685 $685 $733 $734 forward $681 $-1 #
coedge $-1 -1 $-1 $682 $682 $735 $736 reversed $653 $-1 #
coedge $-1 -1 $-1 $730 $729 $682 $709 reversed $679 $-1 #
edge $-1 -1 $-1 $737 -1.2246063538223773e-016 $738 3.1415926535897931 $682 $739 forward @7 unknown #
coedge $-1 -1 $-1 $733 $689 $683 $711 reversed $718 $-1 #
edge $-1 -1 $-1 $715 0 $692 0.064999999999998184 $710 $740 forward @7 unknown #
coedge $-1 -1 $-1 $689 $733 $684 $713 forward $718 $-1 #
edge $-1 -1 $-1 $714 0 $691 0.064999999999999294 $712 $741 forward @7 unknown #
vertex $-1 -1 $-1 $686 $742 #
vertex $-1 -1 $-1 $686 $743 #
ellipse-curve $-1 -1 $-1 0 0 -153.66999999999999 1.9100611176346778e-014 -2.3390729808444975e-030 1 -2.3621999999999996 2.8927651289992194e-016 4.5119463720766359e-014 1 I I #
ellipse-curve $-1 -1 $-1 0 -1.7624790515924359e-016 -152.01899999999998 7.1054273576010019e-015 -1.2645656014846591e-030 -1 -3.1749999999999998 5.6506042249784836e-016 -2.255973186038318e-014 1 I I #
loop $-1 -1 $-1 $-1 $689 $744 #
ellipse-curve $-1 -1 $-1 0 0 -152.01899999999998 0 0 -1 -2.3621999999999996 0 0 1 I I #
point $-1 -1 $-1 -2.3621999999999996 2.8927651289992194e-016 -152.01899999999995 #
point $-1 -1 $-1 2.3621999999999996 0 -152.01899999999998 #
model_id-kcp-attrib $-1 -1 $-1 $-1 $699 1 1021400412 1021400412 410124289 23 #
cone-surface $-1 -1 $-1 0 0 181.60999999999999 0 0 -1 3.1749999999999998 0 0 1 I I 0 1 3.1749999999999998 forward I I I I #
model_id-kcp-attrib $-1 -1 $-1 $-1 $702 1 1021400412 1021400412 410124289 19 #
face $745 -1 $-1 $746 $747 $9 $-1 $748 forward single #
loop $-1 -1 $-1 $-1 $749 $702 #
cone-surface $-1 -1 $-1 0 0 -142.11299999999997 0 0 -1 25.400000000000535 0 0 1 I I -0.70710678118655501 0.70710678118654002 25.400000000000535 forward I I I I #
coedge $-1 -1 $-1 $750 $731 $751 $752 forward $703 $-1 #
coedge $-1 -1 $-1 $708 $705 $753 $754 forward $679 $-1 #
coedge $-1 -1 $-1 $705 $708 $755 $756 reversed $679 $-1 #
coedge $-1 -1 $-1 $728 $757 $705 $732 reversed $703 $-1 #
edge $-1 -1 $-1 $758 -5.0865852900356231e-031 $759 3.1415926535897931 $705 $760 forward @7 unknown #
coedge $-1 -1 $-1 $712 $710 $706 $734 reversed $718 $-1 #
edge $-1 -1 $-1 $714 -5.6654087522394765e-060 $715 3.1415926535897931 $706 $761 forward @7 unknown #
coedge $-1 -1 $-1 $753 $755 $707 $736 forward $762 $-1 #
edge $-1 -1 $-1 $737 1.2246063538223773e-016 $738 3.1415926535897931 $735 $763 forward @7 unknown #
vertex $-1 -1 $-1 $756 $764 #
vertex $-1 -1 $-1 $754 $765 #
ellipse-curve $-1 -1 $-1 0 0 -153.66999999999999 0 0 1 -3.1749999999999998 0 0 1 I I #
straight-curve $-1 -1 $-1 2.3621999999999996 -5.7855302579984387e-016 -153.66999999999993 0 0 25.399999999999999 I I #
straight-curve $-1 -1 $-1 -2.3621999999999996 2.8927651289992194e-016 -153.66999999999993 0 0 25.399999999999999 I I #
point $-1 -1 $-1 -2.3621999999999996 2.8927651289992194e-016 -153.66999999999993 #
point $-1 -1 $-1 2.3621999999999996 -5.7855302579984387e-016 -153.66999999999993 #
face $766 -1 $-1 $699 $718 $9 $-1 $767 forward single #
model_id-kcp-attrib $-1 -1 $-1 $-1 $725 1 1021400412 1021400412 410124289 20 #
face $768 -1 $-1 $744 $762 $9 $-1 $769 forward single #
loop $-1 -1 $-1 $-1 $770 $725 #
plane-surface $-1 -1 $-1 0 0 -165.09999999999999 0 0 -1 25.399999999999999 0 0 forward_v I I I I #
coedge $-1 -1 $-1 $771 $772 $757 $773 forward $726 $-1 #
coedge $-1 -1 $-1 $757 $728 $774 $775 forward $703 $-1 #
coedge $-1 -1 $-1 $772 $771 $728 $752 reversed $726 $-1 #
edge $-1 -1 $-1 $758 1.4959148622105249e-015 $776 0.042426406871192875 $751 $777 forward @7 unknown #
coedge $-1 -1 $-1 $778 $735 $729 $754 reversed $762 $-1 #
edge $-1 -1 $-1 $759 0 $738 0.42000000000000137 $753 $779 forward @7 unknown #
coedge $-1 -1 $-1 $735 $778 $730 $756 forward $762 $-1 #
edge $-1 -1 $-1 $758 0 $737 0.42000000000000137 $755 $780 forward @7 unknown #
coedge $-1 -1 $-1 $731 $750 $749 $773 reversed $703 $-1 #
vertex $-1 -1 $-1 $756 $781 #
vertex $-1 -1 $-1 $782 $783 #
ellipse-curve $-1 -1 $-1 3.5249581031848718e-016 -1.7624790515924359e-016 -164.33799999999999 0 0 1 -3.1750000000000251 5.6506042249785112e-016 0 1 I I #
ellipse-curve $-1 -1 $-1 0 8.8123952579621795e-017 -153.66999999999999 -1.9100611176346778e-014 1.6265078493796862e-030 -1 -2.3621999999999996 2.0115256032030014e-016 4.5119463720766359e-014 1 I I #
loop $-1 -1 $-1 $-1 $735 $746 #
ellipse-curve $-1 -1 $-1 0 0 -153.66999999999999 0 0 -1 -3.1749999999999998 0 0 1 I I #
point $-1 -1 $-1 -3.1749999999999998 3.8881251733860477e-016 -153.66999999999999 #
point $-1 -1 $-1 3.1749999999999998 0 -153.66999999999999 #
model_id-kcp-attrib $-1 -1 $-1 $-1 $744 1 1021400412 1021400412 410124289 22 #
cone-surface $-1 -1 $-1 0 0 181.60999999999999 0 0 -1 2.3621999999999996 0 0 1 I I 0 1 2.3621999999999996 forward I I I I #
model_id-kcp-attrib $-1 -1 $-1 $-1 $746 1 1021400412 1021400412 410124289 21 #
cone-surface $-1 -1 $-1 0 0 181.60999999999999 0 0 -1 3.1749999999999998 0 0 1 I I 0 1 3.1749999999999998 forward I I I I #
coedge $-1 -1 $-1 $774 $774 $771 $784 forward $747 $-1 #
coedge $-1 -1 $-1 $751 $749 $770 $784 reversed $726 $-1 #
coedge $-1 -1 $-1 $749 $751 $778 $782 forward $726 $-1 #
edge $-1 -1 $-1 $759 1.4959148622105249e-015 $785 0.042426406871192875 $749 $786 forward @7 unknown #
coedge $-1 -1 $-1 $770 $770 $750 $775 reversed $747 $-1 #
edge $-1 -1 $-1 $776 0 $785 3.1415926535897949 $774 $787 forward @7 unknown #
vertex $-1 -1 $-1 $775 $788 #
straight-curve $-1 -1 $-1 -3.1750000000000251 3.8881251733860758e-016 -164.33799999999999 17.960512242138506 -2.1994557409627381e-015 -17.960512242138108 I I #
coedge $-1 -1 $-1 $755 $753 $772 $782 reversed $762 $-1 #
straight-curve $-1 -1 $-1 3.1749999999999998 -7.7762503467720954e-016 -164.33800000000002 0 0 25.399999999999999 I I #
straight-curve $-1 -1 $-1 -3.1749999999999998 3.8881251733860477e-016 -164.33800000000002 0 0 25.399999999999999 I I #
point $-1 -1 $-1 -3.1749999999999998 3.8881251733860477e-016 -164.33800000000002 #
edge $-1 -1 $-1 $758 9.7818947885300467e-032 $759 3.1415926535897931 $778 $789 forward @7 unknown #
point $-1 -1 $-1 3.1749999999999998 -7.7762503467720954e-016 -164.33800000000002 #
edge $-1 -1 $-1 $776 1.6935413415044881e-032 $785 3.1415926535897918 $770 $790 forward @7 unknown #
vertex $-1 -1 $-1 $775 $791 #
straight-curve $-1 -1 $-1 3.1750000000000251 4.8623079304186251e-015 -164.33799999999999 -17.960512242138506 -2.7505367278529155e-014 -17.960512242138108 I I #
ellipse-curve $-1 -1 $-1 -2.6437185773886536e-016 -1.7624790515924359e-016 -165.09999999999999 0 0 1 -2.4130000000000242 4.7174541833658606e-016 0 1 I I #
point $-1 -1 $-1 -2.4130000000000247 2.9549751317734247e-016 -165.09999999999999 #
ellipse-curve $-1 -1 $-1 0 0 -164.33799999999999 0 0 -1 -3.1750000000000251 3.8881251733860758e-016 0 1 I I #
ellipse-curve $-1 -1 $-1 0 8.8123952579621795e-017 -165.09999999999999 0 0 -1 -2.4130000000000247 2.0737356059772065e-016 0 1 I I #
point $-1 -1 $-1 2.4130000000000247 3.6953540271181653e-015 -165.09999999999999 #
End-of-ACIS-data 