600 0 1 0           
115 GICL Pro/E ACIS Translator - Source: f:/data5/repository/NIST/Manfred_Osti/spectrometer/screw_81/screw_81.prt - 6 0 13 ACIS 6.0.3 NT 24 Thu Apr 04 13:52:35 2002 
1 9.9999999999999995e-007 1e-010 
body $-1 $1 $-1 $2 #
lump $-1 $-1 $3 $0 #
transform $-1 1 0 0 0 1 0 0 0 1 0 0 0 25.399999999999999 no_rotate no_reflect no_shear #
shell $-1 $-1 $-1 $4 $-1 $1 #
face $-1 $5 $6 $3 $-1 $7 reversed single #
face $-1 $8 $9 $3 $-1 $10 forward single #
loop $-1 $-1 $11 $4 #
plane-surface $-1 0 0 6.5 0 0 -1 1 0 0 forward_v I I I I #
face $-1 $12 $13 $3 $-1 $14 forward single #
loop $-1 $-1 $15 $5 #
cone-surface $-1 0 0 5.594999999999998 0 0 1 1.0000000000000211 0 0 1 I I -0.70710678118655501 0.70710678118654002 1.0000000000000211 forward I I I I #
coedge $-1 $16 $16 $17 $18 reversed $6 $-1 #
face $-1 $19 $20 $3 $-1 $21 forward single #
loop $-1 $-1 $22 $8 #
cone-surface $-1 0 0 5.594999999999998 0 0 1 1.0000000000000211 0 0 1 I I -0.70710678118655501 0.70710678118654002 1.0000000000000211 forward I I I I #
coedge $-1 $23 $17 $24 $25 forward $9 $-1 #
coedge $-1 $11 $11 $26 $27 forward $6 $-1 #
coedge $-1 $15 $28 $11 $18 forward $9 $-1 #
edge $-1 $29 0 $30 3.1415926535897918 $11 $31 forward 7 unknown #
face $-1 $32 $33 $3 $-1 $34 forward single #
loop $-1 $-1 $35 $12 #
cone-surface $-1 0 0 7.1499999999999995 0 0 -1 0.125 0 0 1 I I 0 1 0.125 forward I I I I #
coedge $-1 $36 $26 $28 $37 forward $13 $-1 #
coedge $-1 $28 $15 $38 $39 reversed $9 $-1 #
coedge $-1 $26 $36 $15 $25 reversed $13 $-1 #
edge $-1 $30 0 $40 0.042426406871192965 $15 $41 forward 7 unknown #
coedge $-1 $22 $24 $16 $27 reversed $13 $-1 #
edge $-1 $29 0 $30 3.1415926535897944 $16 $42 forward 7 unknown #
coedge $-1 $17 $23 $22 $37 reversed $9 $-1 #
vertex $-1 $27 $43 #
vertex $-1 $27 $44 #
ellipse-curve $-1 0 3.4694469519536142e-018 6.5 0 0 -1 -0.095000000000000084 8.1643134093589708e-018 0 1 I I #
face $-1 $45 $46 $3 $-1 $47 forward single #
loop $-1 $48 $49 $19 #
plane-surface $-1 0 0 6.0499999999999998 0 0 -1 1 0 0 forward_v I I I I #
coedge $-1 $50 $51 $52 $53 forward $20 $-1 #
coedge $-1 $24 $22 $54 $55 forward $13 $-1 #
edge $-1 $29 0 $56 0.042426406871192965 $28 $57 forward 7 unknown #
coedge $-1 $58 $59 $23 $39 forward $60 $-1 #
edge $-1 $56 0 $40 3.1415926535897931 $38 $61 forward 7 unknown #
vertex $-1 $62 $63 #
straight-curve $-1 0.095000000000000084 1.4548637902039882e-016 6.5 0.70710678118655401 1.082888475532646e-015 -0.70710678118654102 I I #
ellipse-curve $-1 -3.4694469519536142e-018 0 6.5 0 0 1 -0.095000000000000084 1.1633760361312585e-017 0 1 I I #
point $-1 -0.095000000000000084 1.1633760361312585e-017 6.5 #
point $-1 0.095000000000000084 1.4548637902039882e-016 6.5 #
face $-1 $64 $65 $3 $-1 $66 reversed single #
loop $-1 $-1 $67 $32 #
cone-surface $-1 0 0 7.1499999999999995 0 0 -1 0.092999999999999999 0 0 1 I I 0 1 0.092999999999999999 forward I I I I #
loop $-1 $-1 $68 $19 #
coedge $-1 $69 $69 $70 $71 forward $33 $-1 #
coedge $-1 $54 $35 $58 $62 forward $20 $-1 #
coedge $-1 $35 $54 $59 $72 reversed $20 $-1 #
coedge $-1 $68 $68 $35 $53 reversed $48 $-1 #
edge $-1 $73 0 $74 3.1415926535897931 $52 $75 forward 7 unknown #
coedge $-1 $51 $50 $36 $55 reversed $20 $-1 #
edge $-1 $56 0 $40 3.1415926535897931 $54 $76 forward 7 unknown #
vertex $-1 $72 $77 #
straight-curve $-1 -0.095000000000000084 1.1633760361312585e-017 6.5 -0.70710678118655401 8.6592745707194577e-017 -0.70710678118654102 I I #
coedge $-1 $78 $38 $50 $62 reversed $60 $-1 #
coedge $-1 $38 $78 $51 $72 forward $60 $-1 #
loop $-1 $-1 $38 $79 #
ellipse-curve $-1 0 3.4694469519536142e-018 6.4700000000000006 0 0 -1 -0.125 1.1838132470826102e-017 0 1 I I #
edge $-1 $74 0 $40 0.41999999999999993 $58 $80 forward 7 unknown #
point $-1 0.125 -3.0615158845559431e-017 6.4699999999999998 #
face $-1 $81 $82 $3 $-1 $83 forward single #
loop $-1 $84 $85 $45 #
plane-surface $-1 0 0 6 0 0 -1 1 0 0 forward_v I I I I #
coedge $-1 $86 $87 $88 $89 forward $46 $-1 #
coedge $-1 $52 $52 $78 $90 forward $48 $-1 #
coedge $-1 $49 $49 $91 $92 reversed $33 $-1 #
coedge $-1 $87 $86 $49 $71 reversed $46 $-1 #
edge $-1 $93 -1.224606353822377e-016 $94 3.1415926535897931 $49 $95 forward 7 unknown #
edge $-1 $73 0 $56 0.41999999999999993 $59 $96 forward 7 unknown #
vertex $-1 $53 $97 #
vertex $-1 $53 $98 #
ellipse-curve $-1 3.4694469519536142e-018 3.4694469519536142e-018 6.0499999999999998 0 0 1 -0.125 1.1838132470826102e-017 0 1 I I #
ellipse-curve $-1 1.3877787807814457e-017 -3.4694469519536142e-018 6.4700000000000006 0 0 1 -0.125 1.877702637473333e-017 0 1 I I #
point $-1 -0.125 1.5307579422779716e-017 6.4699999999999998 #
coedge $-1 $59 $58 $68 $90 reversed $60 $-1 #
face $-1 $-1 $60 $3 $-1 $99 forward single #
straight-curve $-1 0.125 -3.0615158845559431e-017 6.0499999999999998 0 0 1 I I #
face $-1 $100 $101 $3 $-1 $102 reversed single #
loop $-1 $-1 $103 $64 #
cone-surface $-1 0 0 7.1499999999999995 0 0 -1 0.125 0 0 1 I I 0 1 0.125 forward I I I I #
loop $-1 $-1 $104 $45 #
coedge $-1 $105 $105 $106 $107 forward $65 $-1 #
coedge $-1 $70 $67 $108 $109 forward $46 $-1 #
coedge $-1 $67 $70 $110 $111 reversed $46 $-1 #
coedge $-1 $104 $104 $67 $89 reversed $84 $-1 #
edge $-1 $112 0 $113 3.1415926535897931 $88 $114 forward 7 unknown #
edge $-1 $73 0 $74 3.1415926535897931 $68 $115 forward 7 unknown #
coedge $-1 $108 $110 $69 $92 forward $116 $-1 #
edge $-1 $93 1.224606353822377e-016 $94 3.1415926535897931 $91 $117 forward 7 unknown #
vertex $-1 $111 $118 #
vertex $-1 $109 $119 #
ellipse-curve $-1 0 0 6.0499999999999998 0 0 1 -0.092999999999999999 0 0 1 I I #
straight-curve $-1 -0.125 1.5307579422779716e-017 6.0499999999999998 0 0 1 I I #
point $-1 -0.125 1.5307579422779716e-017 6.0499999999999998 #
point $-1 0.125 -3.0615158845559431e-017 6.0499999999999998 #
cone-surface $-1 0 0 7.1499999999999995 0 0 -1 0.125 0 0 1 I I 0 1 0.125 forward I I I I #
face $-1 $120 $121 $3 $-1 $122 forward single #
loop $-1 $123 $124 $81 #
plane-surface $-1 0 0 5.25 0 0 -1 1 0 0 forward_v I I I I #
coedge $-1 $125 $126 $127 $128 forward $82 $-1 #
coedge $-1 $88 $88 $129 $130 forward $84 $-1 #
coedge $-1 $85 $85 $131 $132 reversed $65 $-1 #
coedge $-1 $126 $125 $85 $107 reversed $82 $-1 #
edge $-1 $133 -1.2246063538223773e-016 $134 3.1415926535897931 $85 $135 forward 7 unknown #
coedge $-1 $129 $91 $86 $109 reversed $116 $-1 #
edge $-1 $113 0 $94 0.049999999999999822 $108 $136 forward 7 unknown #
coedge $-1 $91 $129 $87 $111 forward $116 $-1 #
edge $-1 $112 0 $93 0.049999999999999822 $110 $137 forward 7 unknown #
vertex $-1 $89 $138 #
vertex $-1 $89 $139 #
ellipse-curve $-1 0 0 6 0 0 1 -0.092999999999999999 1.1388839090548108e-017 0 1 I I #
ellipse-curve $-1 0 -6.9388939039072284e-018 6.0499999999999998 0 0 -1 -0.125 2.2246473326686944e-017 0 1 I I #
loop $-1 $-1 $91 $140 #
ellipse-curve $-1 0 0 6.0499999999999998 0 0 -1 -0.092999999999999999 0 0 1 I I #
point $-1 -0.092999999999999999 1.1388839090548108e-017 6.0499999999999998 #
point $-1 0.092999999999999999 0 6.0499999999999998 #
face $-1 $141 $142 $3 $-1 $143 forward single #
loop $-1 $-1 $144 $100 #
cone-surface $-1 0 0 7.1499999999999995 0 0 -1 0.1875 0 0 1 I I 0 1 0.1875 forward I I I I #
loop $-1 $-1 $145 $81 #
coedge $-1 $146 $146 $147 $148 forward $101 $-1 #
coedge $-1 $106 $103 $149 $150 forward $82 $-1 #
coedge $-1 $103 $106 $151 $152 reversed $82 $-1 #
coedge $-1 $145 $145 $103 $128 reversed $123 $-1 #
edge $-1 $153 0 $154 3.1415926535897931 $127 $155 forward 7 unknown #
coedge $-1 $110 $108 $104 $130 reversed $116 $-1 #
edge $-1 $112 0 $113 3.1415926535897931 $104 $156 forward 7 unknown #
coedge $-1 $149 $151 $105 $132 forward $157 $-1 #
edge $-1 $133 1.2246063538223773e-016 $134 3.1415926535897931 $131 $158 forward 7 unknown #
vertex $-1 $152 $159 #
vertex $-1 $150 $160 #
ellipse-curve $-1 0 0 6 0 0 1 -0.125 0 0 1 I I #
straight-curve $-1 0.092999999999999999 -2.2777678181096216e-017 6 0 0 1 I I #
straight-curve $-1 -0.092999999999999999 1.1388839090548108e-017 6 0 0 1 I I #
point $-1 -0.092999999999999999 1.1388839090548108e-017 6 #
point $-1 0.092999999999999999 -2.2777678181096216e-017 6 #
face $-1 $79 $116 $3 $-1 $161 forward single #
face $-1 $162 $163 $3 $-1 $164 forward single #
loop $-1 $165 $166 $120 #
plane-surface $-1 0 0 -5.25 0 0 -1 1 0 0 forward_v I I I I #
coedge $-1 $167 $168 $169 $170 forward $121 $-1 #
coedge $-1 $127 $127 $171 $172 forward $123 $-1 #
coedge $-1 $124 $124 $173 $174 reversed $101 $-1 #
coedge $-1 $168 $167 $124 $148 reversed $121 $-1 #
edge $-1 $175 -1.2246063538223773e-016 $176 3.1415926535897927 $124 $177 forward 7 unknown #
coedge $-1 $171 $131 $125 $150 reversed $157 $-1 #
edge $-1 $154 0 $134 0.75 $149 $178 forward 7 unknown #
coedge $-1 $131 $171 $126 $152 forward $157 $-1 #
edge $-1 $153 0 $133 0.75 $151 $179 forward 7 unknown #
vertex $-1 $128 $180 #
vertex $-1 $128 $181 #
ellipse-curve $-1 3.4694469519536142e-018 3.4694469519536142e-018 5.25 0 0 1 -0.125 1.1838132470826102e-017 0 1 I I #
ellipse-curve $-1 0 3.4694469519536142e-018 6 0 0 -1 -0.092999999999999999 7.9193921385944937e-018 0 1 I I #
loop $-1 $-1 $131 $182 #
ellipse-curve $-1 0 0 6 0 0 -1 -0.125 0 0 1 I I #
point $-1 -0.125 1.5307579422779716e-017 6 #
point $-1 0.125 0 6 #
cone-surface $-1 0 0 7.1499999999999995 0 0 -1 0.092999999999999999 0 0 1 I I 0 1 0.092999999999999999 forward I I I I #
face $-1 $183 $184 $3 $-1 $185 forward single #
loop $-1 $-1 $186 $141 #
cone-surface $-1 0 0 7.1499999999999995 0 0 -1 0.125 0 0 1 I I 0 1 0.125 forward I I I I #
loop $-1 $-1 $187 $120 #
coedge $-1 $188 $188 $189 $190 forward $142 $-1 #
coedge $-1 $147 $144 $191 $192 forward $121 $-1 #
coedge $-1 $144 $147 $193 $194 reversed $121 $-1 #
coedge $-1 $187 $187 $144 $170 reversed $165 $-1 #
edge $-1 $195 0 $196 3.1415926535897931 $169 $197 forward 7 unknown #
coedge $-1 $151 $149 $145 $172 reversed $157 $-1 #
edge $-1 $153 0 $154 3.1415926535897931 $145 $198 forward 7 unknown #
coedge $-1 $191 $193 $146 $174 forward $199 $-1 #
edge $-1 $175 1.2246063538223773e-016 $176 3.1415926535897927 $173 $200 forward 7 unknown #
vertex $-1 $194 $201 #
vertex $-1 $192 $202 #
ellipse-curve $-1 -6.9388939039072284e-018 3.4694469519536142e-017 5.25 0 0 1 -0.1875 -3.4694469519536142e-017 0 1 I I #
straight-curve $-1 0.125 -3.0615158845559431e-017 5.25 0 0 1 I I #
straight-curve $-1 -0.125 1.5307579422779716e-017 5.25 0 0 1 I I #
point $-1 -0.125 1.5307579422779716e-017 5.25 #
point $-1 0.125 -3.0615158845559431e-017 5.25 #
face $-1 $140 $157 $3 $-1 $203 forward single #
face $-1 $204 $205 $3 $-1 $206 forward single #
loop $-1 $207 $208 $162 #
plane-surface $-1 0 0 -5.9849999999999994 0 0 -1 1 0 0 forward_v I I I I #
coedge $-1 $209 $210 $211 $212 forward $163 $-1 #
coedge $-1 $169 $169 $213 $214 forward $165 $-1 #
coedge $-1 $166 $166 $215 $216 reversed $142 $-1 #
coedge $-1 $210 $209 $166 $190 reversed $163 $-1 #
edge $-1 $217 -1.2246063538223773e-016 $218 3.1415926535897931 $166 $219 forward 7 unknown #
coedge $-1 $213 $173 $167 $192 reversed $199 $-1 #
edge $-1 $196 0 $176 10.5 $191 $220 forward 7 unknown #
coedge $-1 $173 $213 $168 $194 forward $199 $-1 #
edge $-1 $195 0 $175 10.5 $193 $221 forward 7 unknown #
vertex $-1 $170 $222 #
vertex $-1 $170 $223 #
ellipse-curve $-1 6.9388939039072284e-018 0 -5.25 4.736951571734001e-015 -5.8009009924943544e-031 1 -0.1875 2.2961369134169574e-017 8.8817841970012523e-016 1 I I #
ellipse-curve $-1 0 -6.9388939039072284e-018 5.25 0 0 -1 -0.125 2.2246473326686944e-017 0 1 I I #
loop $-1 $-1 $173 $224 #
ellipse-curve $-1 -6.9388939039072284e-018 -3.4694469519536142e-017 5.25 0 0 -1 -0.1875 3.4694469519536142e-017 0 1 I I #
point $-1 -0.1875 2.2961369134169574e-017 5.25 #
point $-1 0.1875 0 5.25 #
cone-surface $-1 0 0 7.1499999999999995 0 0 -1 0.125 0 0 1 I I 0 1 0.125 forward I I I I #
face $-1 $225 $226 $3 $-1 $227 reversed single #
loop $-1 $-1 $228 $183 #
cone-surface $-1 0 0 7.1499999999999995 0 0 -1 0.092999999999999999 0 0 1 I I 0 1 0.092999999999999999 forward I I I I #
loop $-1 $-1 $229 $162 #
coedge $-1 $230 $230 $231 $232 forward $184 $-1 #
coedge $-1 $189 $186 $233 $234 forward $163 $-1 #
coedge $-1 $186 $189 $235 $236 reversed $163 $-1 #
coedge $-1 $229 $229 $186 $212 reversed $207 $-1 #
edge $-1 $237 0 $238 3.1415926535897931 $211 $239 forward 7 unknown #
coedge $-1 $193 $191 $187 $214 reversed $199 $-1 #
edge $-1 $195 0 $196 3.1415926535897931 $187 $240 forward 7 unknown #
coedge $-1 $233 $235 $188 $216 forward $241 $-1 #
edge $-1 $217 1.2246063538223773e-016 $218 3.1415926535897931 $215 $242 forward 7 unknown #
vertex $-1 $236 $243 #
vertex $-1 $234 $244 #
ellipse-curve $-1 0 0 -5.25 0 0 1 -0.125 0 0 1 I I #
straight-curve $-1 0.1875 -4.5922738268339147e-017 -5.2499999999999991 0 0 1 I I #
straight-curve $-1 -0.1875 2.2961369134169574e-017 -5.2499999999999991 0 0 1 I I #
point $-1 -0.1875 2.2961369134169574e-017 -5.2499999999999991 #
point $-1 0.1875 -4.5922738268339147e-017 -5.2499999999999991 #
face $-1 $182 $199 $3 $-1 $245 forward single #
face $-1 $246 $247 $3 $-1 $248 forward single #
loop $-1 $249 $250 $204 #
plane-surface $-1 0 0 -6.0499999999999998 0 0 -1 1 0 0 forward_v I I I I #
coedge $-1 $251 $252 $253 $254 forward $205 $-1 #
coedge $-1 $211 $211 $255 $256 forward $207 $-1 #
coedge $-1 $208 $208 $257 $258 reversed $184 $-1 #
coedge $-1 $252 $251 $208 $232 reversed $205 $-1 #
edge $-1 $259 -1.224606353822377e-016 $260 3.1415926535897931 $208 $261 forward 7 unknown #
coedge $-1 $255 $215 $209 $234 reversed $241 $-1 #
edge $-1 $238 0 $218 0.73500000000000032 $233 $262 forward 7 unknown #
coedge $-1 $215 $255 $210 $236 forward $241 $-1 #
edge $-1 $237 0 $217 0.73500000000000121 $235 $263 forward 7 unknown #
vertex $-1 $212 $264 #
vertex $-1 $212 $265 #
ellipse-curve $-1 3.4694469519536142e-018 3.4694469519536142e-018 -5.9849999999999994 -7.1054273576010019e-015 6.7291992256890021e-031 1 -0.125 1.1838132470826102e-017 -8.8817841970012523e-016 1 I I #
ellipse-curve $-1 -6.9388939039072284e-018 -3.4694469519536142e-017 -5.25 -4.736951571734001e-015 1.4566022161616708e-030 -1 -0.1875 5.7655838653705715e-017 8.8817841970012523e-016 1 I I #
loop $-1 $-1 $215 $266 #
ellipse-curve $-1 0 0 -5.25 0 0 -1 -0.125 0 0 1 I I #
point $-1 -0.125 1.5307579422779716e-017 -5.2499999999999991 #
point $-1 0.125 0 -5.25 #
cone-surface $-1 0 0 7.1499999999999995 0 0 -1 0.1875 0 0 1 I I 0 1 0.1875 forward I I I I #
face $-1 $267 $268 $3 $-1 $269 forward single #
loop $-1 $-1 $270 $225 #
cone-surface $-1 0 0 7.1499999999999995 0 0 -1 0.125 0 0 1 I I 0 1 0.125 forward I I I I #
loop $-1 $-1 $271 $204 #
coedge $-1 $272 $272 $273 $274 forward $226 $-1 #
coedge $-1 $231 $228 $275 $276 forward $205 $-1 #
coedge $-1 $228 $231 $277 $278 reversed $205 $-1 #
coedge $-1 $271 $271 $228 $254 reversed $249 $-1 #
edge $-1 $279 0 $280 3.1415926535897931 $253 $281 forward 7 unknown #
coedge $-1 $235 $233 $229 $256 reversed $241 $-1 #
edge $-1 $237 0 $238 3.1415926535897931 $229 $282 forward 7 unknown #
coedge $-1 $275 $277 $230 $258 forward $283 $-1 #
edge $-1 $259 1.224606353822377e-016 $260 3.1415926535897931 $257 $284 forward 7 unknown #
vertex $-1 $278 $285 #
vertex $-1 $276 $286 #
ellipse-curve $-1 0 0 -5.9849999999999994 0 0 1 -0.092999999999999999 0 0 1 I I #
straight-curve $-1 0.125 -3.0615158845559431e-017 -5.9850000000000003 0 0 1 I I #
straight-curve $-1 -0.125 1.5307579422779716e-017 -5.9850000000000003 0 0 1 I I #
point $-1 -0.125 1.5307579422779716e-017 -5.9850000000000003 #
point $-1 0.125 -3.0615158845559431e-017 -5.9850000000000003 #
face $-1 $224 $241 $3 $-1 $287 forward single #
face $-1 $288 $289 $3 $-1 $290 forward single #
loop $-1 $-1 $291 $246 #
cone-surface $-1 0 0 -5.5949999999999989 0 0 -1 1.0000000000000211 0 0 1 I I -0.70710678118655501 0.70710678118654002 1.0000000000000211 forward I I I I #
coedge $-1 $292 $293 $294 $295 forward $247 $-1 #
coedge $-1 $253 $253 $296 $297 forward $249 $-1 #
coedge $-1 $250 $250 $298 $299 reversed $226 $-1 #
coedge $-1 $293 $292 $250 $274 reversed $247 $-1 #
edge $-1 $300 -1.2246063538223773e-016 $301 3.1415926535897931 $250 $302 forward 7 unknown #
coedge $-1 $296 $257 $251 $276 reversed $283 $-1 #
edge $-1 $280 0 $260 0.064999999999998614 $275 $303 forward 7 unknown #
coedge $-1 $257 $296 $252 $278 forward $283 $-1 #
edge $-1 $279 0 $259 0.064999999999999503 $277 $304 forward 7 unknown #
vertex $-1 $254 $305 #
vertex $-1 $254 $306 #
ellipse-curve $-1 0 0 -6.0499999999999998 1.9100611176346778e-014 -2.3390729808444975e-030 1 -0.092999999999999999 1.1388839090548108e-017 1.7763568394002505e-015 1 I I #
ellipse-curve $-1 0 -6.9388939039072284e-018 -5.9849999999999994 7.1054273576010019e-015 -1.2645656014846591e-030 -1 -0.125 2.2246473326686944e-017 -8.8817841970012523e-016 1 I I #
loop $-1 $-1 $257 $307 #
ellipse-curve $-1 0 0 -5.9849999999999994 0 0 -1 -0.092999999999999999 0 0 1 I I #
point $-1 -0.092999999999999999 1.1388839090548108e-017 -5.9849999999999985 #
point $-1 0.092999999999999999 0 -5.9849999999999994 #
cone-surface $-1 0 0 7.1499999999999995 0 0 -1 0.125 0 0 1 I I 0 1 0.125 forward I I I I #
face $-1 $308 $309 $3 $-1 $310 forward single #
loop $-1 $-1 $311 $267 #
cone-surface $-1 0 0 -5.5949999999999989 0 0 -1 1.0000000000000211 0 0 1 I I -0.70710678118655501 0.70710678118654002 1.0000000000000211 forward I I I I #
coedge $-1 $312 $294 $313 $314 forward $268 $-1 #
coedge $-1 $273 $270 $315 $316 forward $247 $-1 #
coedge $-1 $270 $273 $317 $318 reversed $247 $-1 #
coedge $-1 $291 $319 $270 $295 reversed $268 $-1 #
edge $-1 $320 -5.4234187233944124e-031 $321 3.1415926535897931 $270 $322 forward 7 unknown #
coedge $-1 $277 $275 $271 $297 reversed $283 $-1 #
edge $-1 $279 0 $280 3.1415926535897931 $271 $323 forward 7 unknown #
coedge $-1 $315 $317 $272 $299 forward $324 $-1 #
edge $-1 $300 1.2246063538223773e-016 $301 3.1415926535897931 $298 $325 forward 7 unknown #
vertex $-1 $318 $326 #
vertex $-1 $316 $327 #
ellipse-curve $-1 0 0 -6.0499999999999998 0 0 1 -0.125 0 0 1 I I #
straight-curve $-1 0.092999999999999999 -2.2777678181096216e-017 -6.049999999999998 0 0 1 I I #
straight-curve $-1 -0.092999999999999999 1.1388839090548108e-017 -6.049999999999998 0 0 1 I I #
point $-1 -0.092999999999999999 1.1388839090548108e-017 -6.049999999999998 #
point $-1 0.092999999999999999 -2.2777678181096216e-017 -6.049999999999998 #
face $-1 $266 $283 $3 $-1 $328 forward single #
face $-1 $307 $324 $3 $-1 $329 forward single #
loop $-1 $-1 $330 $288 #
plane-surface $-1 0 0 -6.5 0 0 -1 1 0 0 forward_v I I I I #
coedge $-1 $331 $332 $319 $333 forward $289 $-1 #
coedge $-1 $319 $291 $334 $335 forward $268 $-1 #
coedge $-1 $332 $331 $291 $314 reversed $289 $-1 #
edge $-1 $320 1.3345785898812097e-015 $336 0.042426406871192424 $313 $337 forward 7 unknown #
coedge $-1 $338 $298 $292 $316 reversed $324 $-1 #
edge $-1 $321 0 $301 0.42000000000000171 $315 $339 forward 7 unknown #
coedge $-1 $298 $338 $293 $318 forward $324 $-1 #
edge $-1 $320 0 $300 0.42000000000000171 $317 $340 forward 7 unknown #
coedge $-1 $294 $312 $311 $333 reversed $268 $-1 #
vertex $-1 $318 $341 #
vertex $-1 $342 $343 #
ellipse-curve $-1 1.3877787807814457e-017 -6.9388939039072284e-018 -6.4700000000000006 0 0 1 -0.125000000000001 2.2246473326687055e-017 0 1 I I #
ellipse-curve $-1 0 3.4694469519536142e-018 -6.0499999999999998 -1.9100611176346778e-014 1.6265078493796862e-030 -1 -0.092999999999999999 7.9193921385944937e-018 1.7763568394002505e-015 1 I I #
loop $-1 $-1 $298 $308 #
ellipse-curve $-1 0 0 -6.0499999999999998 0 0 -1 -0.125 0 0 1 I I #
point $-1 -0.125 1.5307579422779716e-017 -6.0499999999999998 #
point $-1 0.125 0 -6.0499999999999998 #
cone-surface $-1 0 0 7.1499999999999995 0 0 -1 0.092999999999999999 0 0 1 I I 0 1 0.092999999999999999 forward I I I I #
cone-surface $-1 0 0 7.1499999999999995 0 0 -1 0.125 0 0 1 I I 0 1 0.125 forward I I I I #
coedge $-1 $334 $334 $331 $344 forward $309 $-1 #
coedge $-1 $313 $311 $330 $344 reversed $289 $-1 #
coedge $-1 $311 $313 $338 $342 forward $289 $-1 #
edge $-1 $321 1.3345785898812097e-015 $345 0.042426406871192424 $311 $346 forward 7 unknown #
coedge $-1 $330 $330 $312 $335 reversed $309 $-1 #
edge $-1 $336 0 $345 3.1415926535897949 $334 $347 forward 7 unknown #
vertex $-1 $335 $348 #
straight-curve $-1 -0.125000000000001 1.5307579422779827e-017 -6.4700000000000006 0.70710678118655534 -8.6592745707194417e-017 -0.70710678118653969 I I #
coedge $-1 $317 $315 $332 $342 reversed $324 $-1 #
straight-curve $-1 0.125 -3.0615158845559431e-017 -6.4700000000000015 0 0 1 I I #
straight-curve $-1 -0.125 1.5307579422779716e-017 -6.4700000000000015 0 0 1 I I #
point $-1 -0.125 1.5307579422779716e-017 -6.4700000000000015 #
edge $-1 $320 9.8607613152625687e-032 $321 3.1415926535897931 $338 $349 forward 7 unknown #
point $-1 0.125 -3.0615158845559431e-017 -6.4700000000000015 #
edge $-1 $336 0 $345 3.1415926535897918 $330 $350 forward 7 unknown #
vertex $-1 $335 $351 #
straight-curve $-1 0.125000000000001 1.9142944607947345e-016 -6.4700000000000006 -0.70710678118655534 -1.082888475532644e-015 -0.70710678118653969 I I #
ellipse-curve $-1 -1.0408340855860843e-017 -6.9388939039072284e-018 -6.5 0 0 1 -0.095000000000000959 1.8572654265219924e-017 0 1 I I #
point $-1 -0.095000000000000973 1.1633760361312696e-017 -6.5 #
ellipse-curve $-1 0 0 -6.4700000000000006 0 0 -1 -0.125000000000001 1.5307579422779827e-017 0 1 I I #
ellipse-curve $-1 0 3.4694469519536142e-018 -6.5 0 0 -1 -0.095000000000000973 8.1643134093590817e-018 0 1 I I #
point $-1 0.095000000000000973 1.454863790204002e-016 -6.5 #
End-of-ACIS-data 