600 0 1 0           
112 GICL ACIS Healer - Source: /gicl/data5/repository/NIST/Manfred_Osti/spectrometer/screw_81/screw_81.prt.sat - 6 0 18 ACIS 6.0.3 Solaris 24 Sun Apr 14 00:37:03 2002 
1 9.999999999999999547e-07 1.000000000000000036e-10 
body $-1 $1 $-1 $-1 #
lump $-1 $-1 $2 $0 #
shell $-1 $-1 $-1 $3 $-1 $1 #
face $-1 $4 $5 $2 $-1 $6 reversed single #
face $-1 $7 $8 $2 $-1 $9 forward single #
loop $-1 $-1 $10 $3 #
plane-surface $-1 0 0 165.0999999999999943 0 0 -1 25.39999999999999858 0 0 forward_v I I I I #
face $-1 $11 $12 $2 $-1 $13 forward single #
loop $-1 $-1 $14 $4 #
cone-surface $-1 0 0 142.1129999999999427 0 0 1 25.40000000000053504 0 0 1 I I -0.7071067811865550112 0.7071067811865400232 25.40000000000053504 forward I I I I #
coedge $-1 $15 $15 $16 $17 reversed $5 $-1 #
face $-1 $18 $19 $2 $-1 $20 forward single #
loop $-1 $-1 $21 $7 #
cone-surface $-1 0 0 142.1129999999999427 0 0 1 25.40000000000053504 0 0 1 I I -0.7071067811865550112 0.7071067811865400232 25.40000000000053504 forward I I I I #
coedge $-1 $22 $16 $23 $24 forward $8 $-1 #
coedge $-1 $10 $10 $25 $26 forward $5 $-1 #
coedge $-1 $14 $27 $10 $17 forward $8 $-1 #
edge $-1 $28 1.69354134150452014e-32 $29 3.141592653589791784 $10 $30 forward 7 unknown #
face $-1 $31 $32 $2 $-1 $33 forward single #
loop $-1 $-1 $34 $11 #
cone-surface $-1 0 0 181.6099999999999852 0 0 -1 3.174999999999999822 0 0 1 I I 0 1 3.174999999999999822 forward I I I I #
coedge $-1 $35 $25 $27 $36 forward $12 $-1 #
coedge $-1 $27 $14 $37 $38 reversed $8 $-1 #
coedge $-1 $25 $35 $14 $24 reversed $12 $-1 #
edge $-1 $29 0 $39 0.04242640687119280524 $14 $40 forward 7 unknown #
coedge $-1 $21 $23 $15 $26 reversed $12 $-1 #
edge $-1 $28 0 $29 3.141592653589794448 $15 $41 forward 7 unknown #
coedge $-1 $16 $22 $21 $36 reversed $8 $-1 #
vertex $-1 $26 $42 #
vertex $-1 $26 $43 #
ellipse-curve $-1 0 8.812395257962179547e-17 165.0999999999999943 0 0 -1 -2.413000000000002032 2.073735605977178423e-16 0 1 I I #
face $-1 $44 $45 $2 $-1 $46 forward single #
loop $-1 $47 $48 $18 #
plane-surface $-1 0 0 153.6699999999999875 0 0 -1 25.39999999999999858 0 0 forward_v I I I I #
coedge $-1 $49 $50 $51 $52 forward $19 $-1 #
coedge $-1 $23 $21 $53 $54 forward $12 $-1 #
edge $-1 $28 0 $55 0.04242640687119280524 $27 $56 forward 7 unknown #
coedge $-1 $57 $58 $22 $38 forward $59 $-1 #
edge $-1 $55 1.956378957706024721e-32 $39 3.141592653589793116 $37 $60 forward 7 unknown #
vertex $-1 $61 $62 #
straight-curve $-1 2.413000000000002032 3.69535402711812984e-15 165.0999999999999943 17.96051224213847064 2.750536727852920551e-14 -17.96051224213814024 I I #
ellipse-curve $-1 -8.812395257962179547e-17 0 165.0999999999999943 0 0 1 -2.413000000000002032 2.954975131773396624e-16 0 1 I I #
point $-1 -2.413000000000002032 2.954975131773396624e-16 165.0999999999999943 #
point $-1 2.413000000000002032 3.69535402711812984e-15 165.0999999999999943 #
face $-1 $63 $64 $2 $-1 $65 reversed single #
loop $-1 $-1 $66 $31 #
cone-surface $-1 0 0 181.6099999999999852 0 0 -1 2.362199999999999633 0 0 1 I I 0 1 2.362199999999999633 forward I I I I #
loop $-1 $-1 $67 $18 #
coedge $-1 $68 $68 $69 $70 forward $32 $-1 #
coedge $-1 $53 $34 $57 $61 forward $19 $-1 #
coedge $-1 $34 $53 $58 $71 reversed $19 $-1 #
coedge $-1 $67 $67 $34 $52 reversed $47 $-1 #
edge $-1 $72 -1.956378957706024721e-32 $73 3.141592653589793116 $51 $74 forward 7 unknown #
coedge $-1 $50 $49 $35 $54 reversed $19 $-1 #
edge $-1 $55 3.912757915412049441e-32 $39 3.141592653589793116 $53 $75 forward 7 unknown #
vertex $-1 $71 $76 #
straight-curve $-1 -2.413000000000002032 2.954975131773396624e-16 165.0999999999999943 -17.96051224213847064 2.199455740962742046e-15 -17.96051224213814024 I I #
coedge $-1 $77 $37 $49 $61 reversed $59 $-1 #
coedge $-1 $37 $77 $50 $71 forward $59 $-1 #
loop $-1 $-1 $37 $78 #
ellipse-curve $-1 0 8.812395257962179547e-17 164.3379999999999939 0 0 -1 -3.174999999999999822 3.006885647589829495e-16 0 1 I I #
edge $-1 $73 0 $39 0.420000000000000262 $57 $79 forward 7 unknown #
point $-1 3.174999999999999822 -7.776250346772095392e-16 164.3379999999999939 #
face $-1 $80 $81 $2 $-1 $82 forward single #
loop $-1 $83 $84 $44 #
plane-surface $-1 0 0 152.3999999999999773 0 0 -1 25.39999999999999858 0 0 forward_v I I I I #
coedge $-1 $85 $86 $87 $88 forward $45 $-1 #
coedge $-1 $51 $51 $77 $89 forward $47 $-1 #
coedge $-1 $48 $48 $90 $91 reversed $32 $-1 #
coedge $-1 $86 $85 $48 $70 reversed $45 $-1 #
edge $-1 $92 -1.224606353822377258e-16 $93 3.141592653589793116 $48 $94 forward 7 unknown #
edge $-1 $72 0 $55 0.420000000000000262 $58 $95 forward 7 unknown #
vertex $-1 $52 $96 #
vertex $-1 $52 $97 #
ellipse-curve $-1 8.812395257962179547e-17 8.812395257962179547e-17 153.6699999999999875 0 0 1 -3.174999999999999822 3.006885647589829495e-16 0 1 I I #
ellipse-curve $-1 3.524958103184871819e-16 -8.812395257962179547e-17 164.3379999999999939 0 0 1 -3.174999999999999822 4.769364699182265404e-16 0 1 I I #
point $-1 -3.174999999999999822 3.888125173386047696e-16 164.3379999999999939 #
coedge $-1 $58 $57 $67 $89 reversed $59 $-1 #
face $-1 $-1 $59 $2 $-1 $98 forward single #
straight-curve $-1 3.174999999999999822 -7.776250346772095392e-16 153.6699999999999875 0 0 25.39999999999999858 I I #
face $-1 $99 $100 $2 $-1 $101 reversed single #
loop $-1 $-1 $102 $63 #
cone-surface $-1 0 0 181.6099999999999852 0 0 -1 3.174999999999999822 0 0 1 I I 0 1 3.174999999999999822 forward I I I I #
loop $-1 $-1 $103 $44 #
coedge $-1 $104 $104 $105 $106 forward $64 $-1 #
coedge $-1 $69 $66 $107 $108 forward $45 $-1 #
coedge $-1 $66 $69 $109 $110 reversed $45 $-1 #
coedge $-1 $103 $103 $66 $88 reversed $83 $-1 #
edge $-1 $111 0 $112 3.141592653589793116 $87 $113 forward 7 unknown #
edge $-1 $72 0 $73 3.141592653589793116 $67 $114 forward 7 unknown #
coedge $-1 $107 $109 $68 $91 forward $115 $-1 #
edge $-1 $92 1.224606353822377258e-16 $93 3.141592653589793116 $90 $116 forward 7 unknown #
vertex $-1 $110 $117 #
vertex $-1 $108 $118 #
ellipse-curve $-1 0 0 153.6699999999999875 0 0 1 -2.362199999999999633 0 0 1 I I #
straight-curve $-1 -3.174999999999999822 3.888125173386047696e-16 153.6699999999999875 0 0 25.39999999999999858 I I #
point $-1 -3.174999999999999822 3.888125173386047696e-16 153.6699999999999875 #
point $-1 3.174999999999999822 -7.776250346772095392e-16 153.6699999999999875 #
cone-surface $-1 0 0 181.6099999999999852 0 0 -1 3.174999999999999822 0 0 1 I I 0 1 3.174999999999999822 forward I I I I #
face $-1 $119 $120 $2 $-1 $121 forward single #
loop $-1 $122 $123 $80 #
plane-surface $-1 0 0 133.3499999999999943 0 0 -1 25.39999999999999858 0 0 forward_v I I I I #
coedge $-1 $124 $125 $126 $127 forward $81 $-1 #
coedge $-1 $87 $87 $128 $129 forward $83 $-1 #
coedge $-1 $84 $84 $130 $131 reversed $64 $-1 #
coedge $-1 $125 $124 $84 $106 reversed $81 $-1 #
edge $-1 $132 -1.224606353822377258e-16 $133 3.141592653589793116 $84 $134 forward 7 unknown #
coedge $-1 $128 $90 $85 $108 reversed $115 $-1 #
edge $-1 $112 0 $93 0.05000000000000040523 $107 $135 forward 7 unknown #
coedge $-1 $90 $128 $86 $110 forward $115 $-1 #
edge $-1 $111 0 $92 0.05000000000000040523 $109 $136 forward 7 unknown #
vertex $-1 $88 $137 #
vertex $-1 $88 $138 #
ellipse-curve $-1 0 0 152.3999999999999773 0 0 1 -2.362199999999999633 2.89276512899921936e-16 0 1 I I #
ellipse-curve $-1 0 -1.762479051592435909e-16 153.6699999999999875 0 0 -1 -3.174999999999999822 5.650604224978483606e-16 0 1 I I #
loop $-1 $-1 $90 $139 #
ellipse-curve $-1 0 0 153.6699999999999875 0 0 -1 -2.362199999999999633 0 0 1 I I #
point $-1 -2.362199999999999633 2.89276512899921936e-16 153.6699999999999875 #
point $-1 2.362199999999999633 0 153.6699999999999875 #
face $-1 $140 $141 $2 $-1 $142 forward single #
loop $-1 $-1 $143 $99 #
cone-surface $-1 0 0 181.6099999999999852 0 0 -1 4.762499999999999289 0 0 1 I I 0 1 4.762499999999999289 forward I I I I #
loop $-1 $-1 $144 $80 #
coedge $-1 $145 $145 $146 $147 forward $100 $-1 #
coedge $-1 $105 $102 $148 $149 forward $81 $-1 #
coedge $-1 $102 $105 $150 $151 reversed $81 $-1 #
coedge $-1 $144 $144 $102 $127 reversed $122 $-1 #
edge $-1 $152 -1.956378957706024721e-32 $153 3.141592653589793116 $126 $154 forward 7 unknown #
coedge $-1 $109 $107 $103 $129 reversed $115 $-1 #
edge $-1 $111 0 $112 3.141592653589793116 $103 $155 forward 7 unknown #
coedge $-1 $148 $150 $104 $131 forward $156 $-1 #
edge $-1 $132 1.224606353822377258e-16 $133 3.141592653589793116 $130 $157 forward 7 unknown #
vertex $-1 $151 $158 #
vertex $-1 $149 $159 #
ellipse-curve $-1 0 0 152.3999999999999773 0 0 1 -3.174999999999999822 0 0 1 I I #
straight-curve $-1 2.362199999999999633 -5.78553025799843872e-16 152.3999999999999773 0 0 25.39999999999999858 I I #
straight-curve $-1 -2.362199999999999633 2.89276512899921936e-16 152.3999999999999773 0 0 25.39999999999999858 I I #
point $-1 -2.362199999999999633 2.89276512899921936e-16 152.3999999999999773 #
point $-1 2.362199999999999633 -5.78553025799843872e-16 152.3999999999999773 #
face $-1 $78 $115 $2 $-1 $160 forward single #
face $-1 $161 $162 $2 $-1 $163 forward single #
loop $-1 $164 $165 $119 #
plane-surface $-1 0 0 -133.3499999999999943 0 0 -1 25.39999999999999858 0 0 forward_v I I I I #
coedge $-1 $166 $167 $168 $169 forward $120 $-1 #
coedge $-1 $126 $126 $170 $171 forward $122 $-1 #
coedge $-1 $123 $123 $172 $173 reversed $100 $-1 #
coedge $-1 $167 $166 $123 $147 reversed $120 $-1 #
edge $-1 $174 -1.224606353822377012e-16 $175 3.141592653589792672 $123 $176 forward 7 unknown #
coedge $-1 $170 $130 $124 $149 reversed $156 $-1 #
edge $-1 $153 0 $133 0.7499999999999993339 $148 $177 forward 7 unknown #
coedge $-1 $130 $170 $125 $151 forward $156 $-1 #
edge $-1 $152 0 $132 0.7499999999999993339 $150 $178 forward 7 unknown #
vertex $-1 $127 $179 #
vertex $-1 $127 $180 #
ellipse-curve $-1 8.812395257962179547e-17 8.812395257962179547e-17 133.3499999999999943 0 0 1 -3.174999999999999822 3.006885647589829495e-16 0 1 I I #
ellipse-curve $-1 0 8.812395257962179547e-17 152.3999999999999773 0 0 -1 -2.362199999999999633 2.011525603203001405e-16 0 1 I I #
loop $-1 $-1 $130 $181 #
ellipse-curve $-1 0 0 152.3999999999999773 0 0 -1 -3.174999999999999822 0 0 1 I I #
point $-1 -3.174999999999999822 3.888125173386047696e-16 152.3999999999999773 #
point $-1 3.174999999999999822 0 152.3999999999999773 #
cone-surface $-1 0 0 181.6099999999999852 0 0 -1 2.362199999999999633 0 0 1 I I 0 1 2.362199999999999633 forward I I I I #
face $-1 $182 $183 $2 $-1 $184 forward single #
loop $-1 $-1 $185 $140 #
cone-surface $-1 0 0 181.6099999999999852 0 0 -1 3.174999999999999822 0 0 1 I I 0 1 3.174999999999999822 forward I I I I #
loop $-1 $-1 $186 $119 #
coedge $-1 $187 $187 $188 $189 forward $141 $-1 #
coedge $-1 $146 $143 $190 $191 forward $120 $-1 #
coedge $-1 $143 $146 $192 $193 reversed $120 $-1 #
coedge $-1 $186 $186 $143 $169 reversed $164 $-1 #
edge $-1 $194 0 $195 3.141592653589793116 $168 $196 forward 7 unknown #
coedge $-1 $150 $148 $144 $171 reversed $156 $-1 #
edge $-1 $152 0 $153 3.141592653589793116 $144 $197 forward 7 unknown #
coedge $-1 $190 $192 $145 $173 forward $198 $-1 #
edge $-1 $174 1.224606353822377258e-16 $175 3.141592653589792672 $172 $199 forward 7 unknown #
vertex $-1 $193 $200 #
vertex $-1 $191 $201 #
ellipse-curve $-1 -1.762479051592435909e-16 8.81239525796218004e-16 133.3499999999999943 0 0 1 -4.762499999999999289 -8.81239525796218004e-16 0 1 I I #
straight-curve $-1 3.174999999999999822 -7.776250346772095392e-16 133.3499999999999943 0 0 25.39999999999999858 I I #
straight-curve $-1 -3.174999999999999822 3.888125173386047696e-16 133.3499999999999943 0 0 25.39999999999999858 I I #
point $-1 -3.174999999999999822 3.888125173386047696e-16 133.3499999999999943 #
point $-1 3.174999999999999822 -7.776250346772095392e-16 133.3499999999999943 #
face $-1 $139 $156 $2 $-1 $202 forward single #
face $-1 $203 $204 $2 $-1 $205 forward single #
loop $-1 $206 $207 $161 #
plane-surface $-1 0 0 -152.018999999999977 0 0 -1 25.39999999999999858 0 0 forward_v I I I I #
coedge $-1 $208 $209 $210 $211 forward $162 $-1 #
coedge $-1 $168 $168 $212 $213 forward $164 $-1 #
coedge $-1 $165 $165 $214 $215 reversed $141 $-1 #
coedge $-1 $209 $208 $165 $189 reversed $162 $-1 #
edge $-1 $216 -1.224606353822377258e-16 $217 3.141592653589793116 $165 $218 forward 7 unknown #
coedge $-1 $212 $172 $166 $191 reversed $198 $-1 #
edge $-1 $195 0 $175 10.49999999999999822 $190 $219 forward 7 unknown #
coedge $-1 $172 $212 $167 $193 forward $198 $-1 #
edge $-1 $194 0 $174 10.49999999999999822 $192 $220 forward 7 unknown #
vertex $-1 $169 $221 #
vertex $-1 $169 $222 #
ellipse-curve $-1 1.762479051592435909e-16 0 -133.3499999999999943 4.736951571734000976e-15 -5.800900992494354389e-31 1 -4.762499999999999289 5.832187760079071298e-16 2.255973186038317964e-14 1 I I #
ellipse-curve $-1 0 -1.762479051592435909e-16 133.3499999999999943 0 0 -1 -3.174999999999999822 5.650604224978483606e-16 0 1 I I #
loop $-1 $-1 $172 $223 #
ellipse-curve $-1 -1.762479051592435909e-16 -8.81239525796218004e-16 133.3499999999999943 0 0 -1 -4.762499999999999289 8.81239525796218004e-16 0 1 I I #
point $-1 -4.762499999999999289 5.832187760079071298e-16 133.3499999999999943 #
point $-1 4.762499999999999289 0 133.3499999999999943 #
cone-surface $-1 0 0 181.6099999999999852 0 0 -1 3.174999999999999822 0 0 1 I I 0 1 3.174999999999999822 forward I I I I #
face $-1 $224 $225 $2 $-1 $226 reversed single #
loop $-1 $-1 $227 $182 #
cone-surface $-1 0 0 181.6099999999999852 0 0 -1 2.362199999999999633 0 0 1 I I 0 1 2.362199999999999633 forward I I I I #
loop $-1 $-1 $228 $161 #
coedge $-1 $229 $229 $230 $231 forward $183 $-1 #
coedge $-1 $188 $185 $232 $233 forward $162 $-1 #
coedge $-1 $185 $188 $234 $235 reversed $162 $-1 #
coedge $-1 $228 $228 $185 $211 reversed $206 $-1 #
edge $-1 $236 -1.956378957706024721e-32 $237 3.141592653589793116 $210 $238 forward 7 unknown #
coedge $-1 $192 $190 $186 $213 reversed $198 $-1 #
edge $-1 $194 0 $195 3.141592653589793116 $186 $239 forward 7 unknown #
coedge $-1 $232 $234 $187 $215 forward $240 $-1 #
edge $-1 $216 1.224606353822377258e-16 $217 3.141592653589793116 $214 $241 forward 7 unknown #
vertex $-1 $235 $242 #
vertex $-1 $233 $243 #
ellipse-curve $-1 0 0 -133.3499999999999943 0 0 1 -3.174999999999999822 0 0 1 I I #
straight-curve $-1 4.762499999999999289 -1.16643755201581426e-15 -133.3499999999999659 0 0 25.39999999999999858 I I #
straight-curve $-1 -4.762499999999999289 5.832187760079071298e-16 -133.3499999999999659 0 0 25.39999999999999858 I I #
point $-1 -4.762499999999999289 5.832187760079071298e-16 -133.3499999999999659 #
point $-1 4.762499999999999289 -1.16643755201581426e-15 -133.3499999999999659 #
face $-1 $181 $198 $2 $-1 $244 forward single #
face $-1 $245 $246 $2 $-1 $247 forward single #
loop $-1 $248 $249 $203 #
plane-surface $-1 0 0 -153.6699999999999875 0 0 -1 25.39999999999999858 0 0 forward_v I I I I #
coedge $-1 $250 $251 $252 $253 forward $204 $-1 #
coedge $-1 $210 $210 $254 $255 forward $206 $-1 #
coedge $-1 $207 $207 $256 $257 reversed $183 $-1 #
coedge $-1 $251 $250 $207 $231 reversed $204 $-1 #
edge $-1 $258 -1.224606353822377258e-16 $259 3.141592653589793116 $207 $260 forward 7 unknown #
coedge $-1 $254 $214 $208 $233 reversed $240 $-1 #
edge $-1 $237 0 $217 0.7350000000000004308 $232 $261 forward 7 unknown #
coedge $-1 $214 $254 $209 $235 forward $240 $-1 #
edge $-1 $236 0 $216 0.735000000000001652 $234 $262 forward 7 unknown #
vertex $-1 $211 $263 #
vertex $-1 $211 $264 #
ellipse-curve $-1 8.812395257962179547e-17 8.812395257962179547e-17 -152.018999999999977 -7.105427357601001859e-15 6.729199225689002071e-31 1 -3.174999999999999822 3.006885647589829495e-16 -2.255973186038317964e-14 1 I I #
ellipse-curve $-1 -1.762479051592435909e-16 -8.81239525796218004e-16 -133.3499999999999943 -4.736951571734000976e-15 1.456602216161670817e-30 -1 -4.762499999999999289 1.464458301804125134e-15 2.255973186038317964e-14 1 I I #
loop $-1 $-1 $214 $265 #
ellipse-curve $-1 0 0 -133.3499999999999943 0 0 -1 -3.174999999999999822 0 0 1 I I #
point $-1 -3.174999999999999822 3.888125173386047696e-16 -133.3499999999999659 #
point $-1 3.174999999999999822 0 -133.3499999999999943 #
cone-surface $-1 0 0 181.6099999999999852 0 0 -1 4.762499999999999289 0 0 1 I I 0 1 4.762499999999999289 forward I I I I #
face $-1 $266 $267 $2 $-1 $268 forward single #
loop $-1 $-1 $269 $224 #
cone-surface $-1 0 0 181.6099999999999852 0 0 -1 3.174999999999999822 0 0 1 I I 0 1 3.174999999999999822 forward I I I I #
loop $-1 $-1 $270 $203 #
coedge $-1 $271 $271 $272 $273 forward $225 $-1 #
coedge $-1 $230 $227 $274 $275 forward $204 $-1 #
coedge $-1 $227 $230 $276 $277 reversed $204 $-1 #
coedge $-1 $270 $270 $227 $253 reversed $248 $-1 #
edge $-1 $278 5.66540875223947651e-60 $279 3.141592653589793116 $252 $280 forward 7 unknown #
coedge $-1 $234 $232 $228 $255 reversed $240 $-1 #
edge $-1 $236 0 $237 3.141592653589793116 $228 $281 forward 7 unknown #
coedge $-1 $274 $276 $229 $257 forward $282 $-1 #
edge $-1 $258 1.224606353822377258e-16 $259 3.141592653589793116 $256 $283 forward 7 unknown #
vertex $-1 $277 $284 #
vertex $-1 $275 $285 #
ellipse-curve $-1 0 0 -152.018999999999977 0 0 1 -2.362199999999999633 0 0 1 I I #
straight-curve $-1 3.174999999999999822 -7.776250346772095392e-16 -152.0190000000000055 0 0 25.39999999999999858 I I #
straight-curve $-1 -3.174999999999999822 3.888125173386047696e-16 -152.0190000000000055 0 0 25.39999999999999858 I I #
point $-1 -3.174999999999999822 3.888125173386047696e-16 -152.0190000000000055 #
point $-1 3.174999999999999822 -7.776250346772095392e-16 -152.0190000000000055 #
face $-1 $223 $240 $2 $-1 $286 forward single #
face $-1 $287 $288 $2 $-1 $289 forward single #
loop $-1 $-1 $290 $245 #
cone-surface $-1 0 0 -142.1129999999999711 0 0 -1 25.40000000000053504 0 0 1 I I -0.7071067811865550112 0.7071067811865400232 25.40000000000053504 forward I I I I #
coedge $-1 $291 $292 $293 $294 forward $246 $-1 #
coedge $-1 $252 $252 $295 $296 forward $248 $-1 #
coedge $-1 $249 $249 $297 $298 reversed $225 $-1 #
coedge $-1 $292 $291 $249 $273 reversed $246 $-1 #
edge $-1 $299 -1.224606353822377258e-16 $300 3.141592653589793116 $249 $301 forward 7 unknown #
coedge $-1 $295 $256 $250 $275 reversed $282 $-1 #
edge $-1 $279 0 $259 0.06499999999999818423 $274 $302 forward 7 unknown #
coedge $-1 $256 $295 $251 $277 forward $282 $-1 #
edge $-1 $278 0 $258 0.06499999999999929445 $276 $303 forward 7 unknown #
vertex $-1 $253 $304 #
vertex $-1 $253 $305 #
ellipse-curve $-1 0 0 -153.6699999999999875 1.9100611176346778e-14 -2.339072980844497534e-30 1 -2.362199999999999633 2.89276512899921936e-16 4.511946372076635928e-14 1 I I #
ellipse-curve $-1 0 -1.762479051592435909e-16 -152.018999999999977 7.105427357601001859e-15 -1.264565601484659061e-30 -1 -3.174999999999999822 5.650604224978483606e-16 -2.255973186038317964e-14 1 I I #
loop $-1 $-1 $256 $306 #
ellipse-curve $-1 0 0 -152.018999999999977 0 0 -1 -2.362199999999999633 0 0 1 I I #
point $-1 -2.362199999999999633 2.89276512899921936e-16 -152.0189999999999486 #
point $-1 2.362199999999999633 0 -152.018999999999977 #
cone-surface $-1 0 0 181.6099999999999852 0 0 -1 3.174999999999999822 0 0 1 I I 0 1 3.174999999999999822 forward I I I I #
face $-1 $307 $308 $2 $-1 $309 forward single #
loop $-1 $-1 $310 $266 #
cone-surface $-1 0 0 -142.1129999999999711 0 0 -1 25.40000000000053504 0 0 1 I I -0.7071067811865550112 0.7071067811865400232 25.40000000000053504 forward I I I I #
coedge $-1 $311 $293 $312 $313 forward $267 $-1 #
coedge $-1 $272 $269 $314 $315 forward $246 $-1 #
coedge $-1 $269 $272 $316 $317 reversed $246 $-1 #
coedge $-1 $290 $318 $269 $294 reversed $267 $-1 #
edge $-1 $319 -5.086585290035623055e-31 $320 3.141592653589793116 $269 $321 forward 7 unknown #
coedge $-1 $276 $274 $270 $296 reversed $282 $-1 #
edge $-1 $278 -5.66540875223947651e-60 $279 3.141592653589793116 $270 $322 forward 7 unknown #
coedge $-1 $314 $316 $271 $298 forward $323 $-1 #
edge $-1 $299 1.224606353822377258e-16 $300 3.141592653589793116 $297 $324 forward 7 unknown #
vertex $-1 $317 $325 #
vertex $-1 $315 $326 #
ellipse-curve $-1 0 0 -153.6699999999999875 0 0 1 -3.174999999999999822 0 0 1 I I #
straight-curve $-1 2.362199999999999633 -5.78553025799843872e-16 -153.6699999999999307 0 0 25.39999999999999858 I I #
straight-curve $-1 -2.362199999999999633 2.89276512899921936e-16 -153.6699999999999307 0 0 25.39999999999999858 I I #
point $-1 -2.362199999999999633 2.89276512899921936e-16 -153.6699999999999307 #
point $-1 2.362199999999999633 -5.78553025799843872e-16 -153.6699999999999307 #
face $-1 $265 $282 $2 $-1 $327 forward single #
face $-1 $306 $323 $2 $-1 $328 forward single #
loop $-1 $-1 $329 $287 #
plane-surface $-1 0 0 -165.0999999999999943 0 0 -1 25.39999999999999858 0 0 forward_v I I I I #
coedge $-1 $330 $331 $318 $332 forward $288 $-1 #
coedge $-1 $318 $290 $333 $334 forward $267 $-1 #
coedge $-1 $331 $330 $290 $313 reversed $288 $-1 #
edge $-1 $319 1.495914862210524924e-15 $335 0.04242640687119287463 $312 $336 forward 7 unknown #
coedge $-1 $337 $297 $291 $315 reversed $323 $-1 #
edge $-1 $320 0 $300 0.4200000000000013722 $314 $338 forward 7 unknown #
coedge $-1 $297 $337 $292 $317 forward $323 $-1 #
edge $-1 $319 0 $299 0.4200000000000013722 $316 $339 forward 7 unknown #
coedge $-1 $293 $311 $310 $332 reversed $267 $-1 #
vertex $-1 $317 $340 #
vertex $-1 $341 $342 #
ellipse-curve $-1 3.524958103184871819e-16 -1.762479051592435909e-16 -164.3379999999999939 0 0 1 -3.175000000000025135 5.650604224978511216e-16 0 1 I I #
ellipse-curve $-1 0 8.812395257962179547e-17 -153.6699999999999875 -1.9100611176346778e-14 1.626507849379686166e-30 -1 -2.362199999999999633 2.011525603203001405e-16 4.511946372076635928e-14 1 I I #
loop $-1 $-1 $297 $307 #
ellipse-curve $-1 0 0 -153.6699999999999875 0 0 -1 -3.174999999999999822 0 0 1 I I #
point $-1 -3.174999999999999822 3.888125173386047696e-16 -153.6699999999999875 #
point $-1 3.174999999999999822 0 -153.6699999999999875 #
cone-surface $-1 0 0 181.6099999999999852 0 0 -1 2.362199999999999633 0 0 1 I I 0 1 2.362199999999999633 forward I I I I #
cone-surface $-1 0 0 181.6099999999999852 0 0 -1 3.174999999999999822 0 0 1 I I 0 1 3.174999999999999822 forward I I I I #
coedge $-1 $333 $333 $330 $343 forward $308 $-1 #
coedge $-1 $312 $310 $329 $343 reversed $288 $-1 #
coedge $-1 $310 $312 $337 $341 forward $288 $-1 #
edge $-1 $320 1.495914862210524924e-15 $344 0.04242640687119287463 $310 $345 forward 7 unknown #
coedge $-1 $329 $329 $311 $334 reversed $308 $-1 #
edge $-1 $335 0 $344 3.141592653589794892 $333 $346 forward 7 unknown #
vertex $-1 $334 $347 #
straight-curve $-1 -3.175000000000025135 3.888125173386075799e-16 -164.3379999999999939 17.96051224213850617 -2.199455740962738102e-15 -17.96051224213810826 I I #
coedge $-1 $316 $314 $331 $341 reversed $323 $-1 #
straight-curve $-1 3.174999999999999822 -7.776250346772095392e-16 -164.3380000000000223 0 0 25.39999999999999858 I I #
straight-curve $-1 -3.174999999999999822 3.888125173386047696e-16 -164.3380000000000223 0 0 25.39999999999999858 I I #
point $-1 -3.174999999999999822 3.888125173386047696e-16 -164.3380000000000223 #
edge $-1 $319 9.781894788530046695e-32 $320 3.141592653589793116 $337 $348 forward 7 unknown #
point $-1 3.174999999999999822 -7.776250346772095392e-16 -164.3380000000000223 #
edge $-1 $335 1.693541341504488118e-32 $344 3.141592653589791784 $329 $349 forward 7 unknown #
vertex $-1 $334 $350 #
straight-curve $-1 3.175000000000025135 4.862307930418625109e-15 -164.3379999999999939 -17.96051224213850617 -2.750536727852915503e-14 -17.96051224213810826 I I #
ellipse-curve $-1 -2.643718577388653617e-16 -1.762479051592435909e-16 -165.0999999999999943 0 0 1 -2.413000000000024237 4.717454183365860636e-16 0 1 I I #
point $-1 -2.413000000000024681 2.954975131773424727e-16 -165.0999999999999943 #
ellipse-curve $-1 0 0 -164.3379999999999939 0 0 -1 -3.175000000000025135 3.888125173386075799e-16 0 1 I I #
ellipse-curve $-1 0 8.812395257962179547e-17 -165.0999999999999943 0 0 -1 -2.413000000000024681 2.073735605977206526e-16 0 1 I I #
point $-1 2.413000000000024681 3.695354027118165338e-15 -165.0999999999999943 #
End-of-ACIS-data 