600 0 2 0           
24 FBMach with ACIS - 6.0.3 13 ACIS 6.0.3 NT 24 Tue May 22 12:37:22 2001 
1 9.9999999999999995e-007 1e-010 
body $2 $3 $-1 $4 #
bdycol-kcp $-1 1 3 $5 $6 $7 #
model_id-kcp-attrib $-1 $-1 $-1 $0 1 990549441 60 -2126774271 1 #
lump $-1 $-1 $8 $0 #
transform $-1 1 0 0 0 1 0 0 0 1 0 0 0 1 no_rotate no_reflect no_shear #
body $9 $10 $-1 $11 #
body $12 $13 $-1 $14 #
body $15 $16 $-1 $17 #
shell $-1 $-1 $-1 $18 $-1 $3 #
model_id-kcp-attrib $-1 $-1 $-1 $5 1 990549441 60 -2126774270 1 #
lump $-1 $-1 $19 $5 #
transform $-1 1 0 0 0 1 0 0 0 1 0 0 0 1 no_rotate no_reflect no_shear #
rgb_color-st-attrib $-1 $20 $-1 $6 0.5 1 1 #
lump $-1 $-1 $21 $6 #
transform $-1 1 0 0 0 1 0 0 0 1 0 0 0 1 no_rotate no_reflect no_shear #
rgb_color-st-attrib $-1 $22 $-1 $7 0.5 1 1 #
lump $-1 $-1 $23 $7 #
transform $-1 1 0 0 0 1 0 0 0 1 0 0 0 1 no_rotate no_reflect no_shear #
face $24 $25 $26 $8 $-1 $27 reversed single #
shell $-1 $-1 $-1 $28 $-1 $10 #
model_id-kcp-attrib $-1 $-1 $12 $6 1 990549441 210 -2116943869 1 #
shell $-1 $-1 $-1 $29 $-1 $13 #
model_id-kcp-attrib $-1 $-1 $15 $7 1 990549441 290 -2128478204 1 #
shell $-1 $-1 $-1 $30 $-1 $16 #
model_id-kcp-attrib $-1 $-1 $-1 $18 1 990549441 60 -2126774271 2 #
face $31 $32 $33 $8 $-1 $34 forward single #
loop $-1 $-1 $35 $18 #
cone-surface $-1 29 14 47.5 0 0 -1 4.2426406871192803 4.2426406871192803 0 1 I I 0 1 5.9999999999999929 forward I I I I #
face $36 $37 $38 $19 $-1 $39 forward single #
face $-1 $40 $41 $21 $-1 $42 reversed single #
face $-1 $43 $44 $23 $-1 $45 forward single #
model_id-kcp-attrib $-1 $-1 $-1 $25 1 990549441 60 -2126774271 3 #
face $46 $47 $48 $8 $-1 $49 reversed single #
loop $-1 $-1 $50 $25 #
plane-surface $-1 35 -5 47.5 -1 0 0 0 0 1.5 forward_v I I I I #
coedge $-1 $51 $52 $53 $54 reversed $26 $-1 #
model_id-kcp-attrib $-1 $-1 $-1 $28 1 990549441 60 -2126774270 2 #
face $55 $56 $57 $19 $-1 $58 reversed single #
loop $-1 $-1 $59 $28 #
plane-surface $-1 0 0 50 0 0 1 1 0 0 forward_v I I I I #
face $-1 $60 $61 $21 $-1 $62 reversed single #
loop $-1 $-1 $63 $29 #
plane-surface $-1 -12 -50 15 0 0 -1 0 -1 0 forward_v I I I I #
face $-1 $64 $65 $23 $-1 $66 forward single #
loop $-1 $-1 $67 $30 #
cone-surface $-1 -6 14 50 0 0 -1 -4.2426406871192803 4.2426406871192803 0 1 I I 0 1 5.9999999999999929 forward I I I I #
model_id-kcp-attrib $-1 $-1 $-1 $32 1 990549441 60 -2126774271 4 #
face $68 $69 $70 $8 $-1 $71 forward single #
loop $-1 $-1 $72 $32 #
cone-surface $-1 29 -14 47.5 0 0 -1 4.2426406871192803 -4.2426406871192803 0 1 I I 0 1 5.9999999999999929 forward I I I I #
coedge $-1 $73 $74 $75 $76 reversed $33 $-1 #
coedge $-1 $77 $35 $74 $78 reversed $26 $-1 #
coedge $-1 $35 $77 $79 $80 reversed $26 $-1 #
coedge $-1 $81 $75 $35 $54 forward $82 $-1 #
edge $-1 $83 -0.78539816339744828 $84 0.78539816339744828 $53 $85 forward 7 unknown #
model_id-kcp-attrib $-1 $-1 $-1 $37 1 990549441 60 -2126774270 5 #
face $86 $87 $88 $19 $-1 $89 reversed single #
loop $-1 $-1 $90 $37 #
plane-surface $-1 0 0 -50 0 0 1 1 0 0 forward_v I I I I #
coedge $-1 $91 $92 $93 $94 forward $38 $-1 #
face $-1 $95 $96 $21 $-1 $97 reversed single #
loop $-1 $-1 $98 $40 #
cone-surface $-1 -22 -50 11.999999999999998 0 -1 0 0 0 2.9999999999999982 1 I I 0 -1 2.9999999999999982 forward I I I I #
coedge $-1 $99 $100 $101 $102 reversed $41 $-1 #
face $-1 $103 $104 $23 $-1 $105 forward single #
loop $-1 $-1 $106 $43 #
plane-surface $-1 -12 14 50 -1 0 0 0 0 1 forward_v I I I I #
coedge $-1 $107 $108 $109 $110 forward $44 $-1 #
model_id-kcp-attrib $-1 $-1 $-1 $47 1 990549441 60 -2126774271 5 #
face $111 $112 $113 $8 $-1 $114 forward single #
loop $-1 $-1 $115 $47 #
plane-surface $-1 15 20 47.5 0 -1 0 0 0 -1.5 forward_v I I I I #
coedge $-1 $116 $117 $118 $119 reversed $48 $-1 #
coedge $-1 $120 $50 $117 $121 forward $33 $-1 #
coedge $-1 $50 $120 $51 $78 forward $33 $-1 #
coedge $-1 $53 $118 $50 $76 forward $82 $-1 #
edge $-1 $122 -11.5 $83 16.5 $75 $123 forward 7 unknown #
coedge $-1 $52 $51 $124 $125 reversed $26 $-1 #
edge $-1 $126 -1.6666666666666667 $83 21.666666666666668 $74 $127 forward 7 unknown #
coedge $-1 $115 $128 $52 $80 forward $70 $-1 #
edge $-1 $84 -21.666666666666668 $129 1.6666666666666667 $79 $130 forward 7 unknown #
coedge $-1 $131 $53 $128 $132 forward $82 $-1 #
loop $-1 $133 $81 $134 #
vertex $-1 $54 $135 #
vertex $-1 $132 $136 #
ellipse-curve $-1 29 14 15 0 0 1 4.2426406871192803 4.2426406871192803 0 1 I I #
model_id-kcp-attrib $-1 $-1 $-1 $56 1 990549441 60 -2126774270 6 #
face $137 $138 $139 $19 $-1 $140 reversed single #
loop $-1 $-1 $141 $56 #
plane-surface $-1 0 -50 0 0 1 0 0 0 1 forward_v I I I I #
coedge $-1 $142 $143 $144 $145 forward $57 $-1 #
coedge $-1 $146 $59 $147 $148 forward $38 $-1 #
coedge $-1 $59 $146 $149 $150 forward $38 $-1 #
coedge $-1 $151 $152 $59 $94 reversed $153 $-1 #
edge $-1 $154 -50 $155 50 $93 $156 forward 7 unknown #
face $-1 $157 $158 $21 $-1 $159 reversed single #
loop $-1 $-1 $160 $60 #
plane-surface $-1 -25 -50 12 1 0 0 0 1 0 forward_v I I I I #
coedge $-1 $161 $162 $163 $164 reversed $61 $-1 #
coedge $-1 $165 $63 $162 $166 reversed $41 $-1 #
coedge $-1 $63 $165 $167 $168 reversed $41 $-1 #
coedge $-1 $169 $163 $63 $102 forward $170 $-1 #
edge $-1 $171 -16 $172 56 $101 $173 forward 7 unknown #
face $-1 $174 $175 $23 $-1 $176 forward single #
loop $-1 $-1 $177 $64 #
cone-surface $-1 -6 -14 50 0 0 -1 -4.2426406871192803 -4.2426406871192803 0 1 I I 0 1 5.9999999999999929 forward I I I I #
coedge $-1 $178 $179 $180 $181 forward $65 $-1 #
coedge $-1 $182 $67 $179 $183 reversed $44 $-1 #
coedge $-1 $67 $182 $184 $185 forward $44 $-1 #
coedge $-1 $186 $180 $67 $110 reversed $187 $-1 #
edge $-1 $188 -0.78539816339744828 $189 0.78539816339744828 $67 $190 forward 7 unknown #
model_id-kcp-attrib $-1 $-1 $-1 $69 1 990549441 60 -2126774271 6 #
face $191 $192 $193 $8 $-1 $194 forward single #
loop $-1 $195 $196 $69 #
plane-surface $-1 0 0 50 0 0 1 1 0 0 forward_v I I I I #
coedge $-1 $197 $79 $198 $199 reversed $70 $-1 #
coedge $-1 $200 $72 $201 $202 reversed $48 $-1 #
coedge $-1 $72 $200 $73 $121 reversed $48 $-1 #
coedge $-1 $75 $203 $72 $119 forward $82 $-1 #
edge $-1 $204 -0.78539816339744828 $122 0.78539816339744828 $118 $205 forward 7 unknown #
coedge $-1 $74 $73 $206 $207 reversed $33 $-1 #
edge $-1 $122 -21.666666666666668 $208 1.6666666666666667 $73 $209 forward 7 unknown #
vertex $-1 $76 $210 #
straight-curve $-1 35 -2.5 15 0 1 0 I I #
coedge $-1 $206 $198 $77 $125 forward $195 $-1 #
edge $211 $129 -0.78539816339744828 $126 0.78539816339744828 $124 $212 forward 7 unknown #
vertex $-1 $125 $213 #
straight-curve $-1 35 14 47.5 0 0 -1.5 I I #
coedge $-1 $79 $197 $81 $132 reversed $70 $-1 #
vertex $-1 $199 $214 #
straight-curve $-1 29 20 47.5 0 0 1.5 I I #
coedge $-1 $215 $81 $216 $217 forward $82 $-1 #
edge $-1 $84 -11.5 $218 23.5 $81 $219 forward 7 unknown #
loop $-1 $-1 $220 $134 #
face $221 $222 $82 $8 $-1 $223 reversed single #
point $-1 35 14 15 #
point $-1 29 20 15 #
model_id-kcp-attrib $-1 $-1 $-1 $87 1 990549441 60 -2126774270 7 #
face $224 $225 $226 $19 $-1 $227 reversed single #
loop $-1 $-1 $228 $87 #
plane-surface $-1 -50 0 0 1 0 0 0 0 -1 forward_v I I I I #
coedge $-1 $229 $149 $230 $231 forward $88 $-1 #
coedge $-1 $232 $90 $229 $233 forward $57 $-1 #
coedge $-1 $90 $232 $234 $235 forward $57 $-1 #
coedge $-1 $152 $151 $90 $145 reversed $153 $-1 #
edge $-1 $236 -50 $237 50 $144 $238 forward 7 unknown #
coedge $-1 $92 $91 $239 $240 forward $38 $-1 #
coedge $-1 $241 $242 $91 $148 reversed $226 $-1 #
edge $-1 $155 -50 $243 50 $147 $244 forward 7 unknown #
coedge $-1 $141 $245 $92 $150 reversed $88 $-1 #
edge $-1 $246 -50 $154 50 $149 $247 forward 7 unknown #
coedge $-1 $144 $93 $245 $248 forward $153 $-1 #
coedge $-1 $93 $144 $241 $249 reversed $153 $-1 #
loop $-1 $-1 $151 $225 #
vertex $-1 $94 $250 #
vertex $-1 $94 $251 #
straight-curve $-1 50 0 50 0 1 0 I I #
face $-1 $252 $253 $21 $-1 $254 reversed single #
loop $-1 $-1 $255 $95 #
cone-surface $-1 -22 -50 -12.698019036063098 0 -1 0 -3.0000000000000036 0 -1.7763568394002505e-015 1 I I 0 -1 3.0000000000000036 forward I I I I #
coedge $-1 $256 $257 $258 $259 reversed $96 $-1 #
coedge $-1 $260 $98 $257 $261 reversed $61 $-1 #
coedge $-1 $98 $260 $99 $166 forward $61 $-1 #
coedge $-1 $101 $258 $98 $164 forward $170 $-1 #
edge $-1 $262 -1.5707963267948961 $171 0 $163 $263 forward 7 unknown #
coedge $-1 $100 $99 $264 $265 reversed $41 $-1 #
edge $-1 $266 0 $171 100 $99 $267 forward 7 unknown #
coedge $-1 $268 $269 $100 $168 forward $270 $-1 #
edge $-1 $172 -75 $271 25 $167 $272 forward 7 unknown #
coedge $-1 $273 $101 $269 $274 forward $170 $-1 #
loop $-1 $-1 $101 $275 #
vertex $-1 $102 $276 #
vertex $-1 $274 $277 #
straight-curve $-1 -6 50 15 1 0 0 I I #
face $-1 $278 $279 $23 $-1 $280 forward single #
loop $-1 $-1 $281 $103 #
plane-surface $-1 -6 -20 50 0 -1 0 0 0 -1 forward_v I I I I #
coedge $-1 $282 $283 $284 $285 forward $104 $-1 #
coedge $-1 $286 $106 $283 $287 reversed $65 $-1 #
coedge $-1 $106 $286 $107 $183 forward $65 $-1 #
coedge $-1 $109 $284 $106 $181 reversed $187 $-1 #
edge $-1 $189 -16.5 $288 11.5 $106 $289 forward 7 unknown #
coedge $-1 $108 $107 $290 $291 forward $44 $-1 #
edge $-1 $292 0 $189 35 $179 $293 forward 7 unknown #
coedge $-1 $294 $295 $108 $185 reversed $296 $-1 #
edge $-1 $297 0 $188 35 $108 $298 forward 7 unknown #
coedge $-1 $299 $109 $295 $300 reversed $187 $-1 #
loop $-1 $-1 $109 $301 #
vertex $-1 $185 $302 #
vertex $-1 $183 $303 #
ellipse-curve $-1 -6 14 15 0 0 1 -4.2426406871192803 4.2426406871192803 0 1 I I #
model_id-kcp-attrib $-1 $-1 $-1 $112 1 990549441 60 -2126774271 7 #
face $304 $305 $306 $8 $-1 $307 reversed single #
loop $-1 $-1 $308 $112 #
plane-surface $-1 15 -20 47.5 0 1 0 0 0 1.5 forward_v I I I I #
loop $-1 $-1 $198 $69 #
coedge $-1 $309 $310 $311 $312 forward $113 $-1 #
coedge $-1 $128 $115 $313 $314 forward $70 $-1 #
coedge $-1 $124 $315 $115 $199 forward $195 $-1 #
edge $316 $317 -11 $129 24 $198 $318 forward 7 unknown #
coedge $-1 $117 $116 $319 $320 reversed $48 $-1 #
coedge $-1 $321 $308 $116 $202 forward $193 $-1 #
edge $-1 $322 -1.6666666666666667 $204 21.666666666666668 $201 $323 forward 7 unknown #
coedge $-1 $118 $324 $321 $325 forward $82 $-1 #
vertex $-1 $325 $326 #
ellipse-curve $-1 29 -14 15 0 0 1 4.2426406871192803 -4.2426406871192803 0 1 I I #
coedge $-1 $319 $124 $120 $207 forward $195 $-1 #
edge $327 $126 -16.5 $208 11.5 $206 $328 forward 7 unknown #
vertex $-1 $207 $329 #
straight-curve $-1 35 -14 47.5 0 0 1.5 I I #
point $-1 35 -14 15 #
attrib_edge_convexity-kcp-attrib $-1 $330 $-1 $125 1 #
ellipse-curve $-1 29 14 50 0 0 -1 4.2426406871192803 4.2426406871192803 0 1 I I #
point $-1 35 14 50 #
point $-1 29 20 50 #
coedge $-1 $324 $131 $331 $332 forward $82 $-1 #
coedge $-1 $313 $333 $131 $217 reversed $306 $-1 #
edge $-1 $218 -0.78539816339744828 $334 0.78539816339744828 $131 $335 forward 7 unknown #
vertex $-1 $217 $336 #
straight-curve $-1 17.5 20 15 -1 0 0 I I #
coedge $-1 $337 $338 $339 $340 reversed $133 $-1 #
model_id-kcp-attrib $-1 $-1 $-1 $134 1 990549441 60 -2126774271 11 #
face $341 $342 $343 $8 $-1 $344 reversed single #
plane-surface $-1 25 0 15 0 0 1 1 0 0 forward_v I I I I #
model_id-kcp-attrib $-1 $-1 $-1 $138 1 990549441 60 -2126774270 8 #
face $345 $-1 $153 $19 $-1 $346 reversed single #
loop $-1 $-1 $241 $138 #
plane-surface $-1 0 50 0 0 -1 0 0 0 -1 forward_v I I I I #
coedge $-1 $347 $239 $242 $348 forward $139 $-1 #
coedge $-1 $245 $141 $142 $233 reversed $88 $-1 #
coedge $-1 $239 $347 $141 $231 reversed $139 $-1 #
edge $-1 $246 -50 $349 50 $230 $350 forward 7 unknown #
coedge $-1 $143 $142 $347 $351 forward $57 $-1 #
edge $-1 $237 -50 $349 50 $229 $352 forward 7 unknown #
coedge $-1 $242 $241 $143 $235 reversed $226 $-1 #
edge $-1 $353 -50 $236 50 $234 $354 forward 7 unknown #
vertex $-1 $145 $355 #
vertex $-1 $248 $356 #
straight-curve $-1 50 0 -50 0 -1 0 I I #
coedge $-1 $228 $230 $146 $240 reversed $139 $-1 #
edge $-1 $243 -50 $246 50 $239 $357 forward 7 unknown #
coedge $-1 $234 $147 $152 $249 forward $226 $-1 #
coedge $-1 $147 $234 $228 $348 reversed $226 $-1 #
vertex $-1 $148 $358 #
straight-curve $-1 0 50 50 -1 0 0 I I #
coedge $-1 $149 $229 $151 $248 reversed $88 $-1 #
vertex $-1 $240 $359 #
straight-curve $-1 0 -50 50 1 0 0 I I #
edge $-1 $154 -50 $237 50 $151 $360 forward 7 unknown #
edge $-1 $155 -50 $236 50 $152 $361 forward 7 unknown #
point $-1 50 -50 50 #
point $-1 50 50 50 #
face $-1 $275 $362 $21 $-1 $363 reversed single #
loop $-1 $-1 $364 $157 #
plane-surface $-1 -22.776457135307595 -50 -15.595796514930299 0.25881904510252113 0 0.96592582628906831 0 1 0 forward_v I I I I #
coedge $-1 $365 $366 $367 $368 reversed $158 $-1 #
coedge $-1 $369 $160 $366 $370 reversed $96 $-1 #
coedge $-1 $160 $369 $161 $261 forward $96 $-1 #
coedge $-1 $163 $367 $160 $259 forward $170 $-1 #
edge $-1 $371 -18.698019036063101 $262 6 $258 $372 forward 7 unknown #
coedge $-1 $162 $161 $373 $374 reversed $61 $-1 #
edge $-1 $375 0 $262 100 $161 $376 forward 7 unknown #
vertex $-1 $164 $377 #
ellipse-curve $-1 -22 50 11.999999999999998 0 1 0 0 0 2.9999999999999982 1 I I #
coedge $-1 $373 $378 $165 $265 forward $362 $-1 #
edge $-1 $271 -56 $266 16 $264 $379 forward 7 unknown #
vertex $-1 $265 $380 #
straight-curve $-1 -22 -50 15 0 1 0 I I #
coedge $-1 $381 $167 $378 $382 forward $270 $-1 #
coedge $-1 $167 $381 $169 $274 reversed $270 $-1 #
loop $-1 $-1 $167 $383 #
vertex $-1 $382 $384 #
straight-curve $-1 50 -25 15 0 -1 0 I I #
coedge $-1 $367 $169 $364 $385 forward $170 $-1 #
edge $-1 $172 -15 $386 35.096189432334256 $269 $387 forward 7 unknown #
face $-1 $383 $170 $21 $-1 $388 reversed single #
point $-1 -22 50 15 #
point $-1 50 50 15 #
face $-1 $389 $390 $23 $-1 $391 forward single #
loop $-1 $-1 $392 $174 #
cone-surface $-1 29 -14 50 0 0 -1 4.2426406871192803 -4.2426406871192803 0 1 I I 0 1 5.9999999999999929 forward I I I I #
coedge $-1 $393 $394 $395 $396 forward $175 $-1 #
coedge $-1 $397 $177 $394 $398 reversed $104 $-1 #
coedge $-1 $177 $397 $178 $287 forward $104 $-1 #
coedge $-1 $180 $395 $177 $285 reversed $187 $-1 #
edge $-1 $288 -0.78539816339744828 $399 0.78539816339744828 $177 $400 forward 7 unknown #
coedge $-1 $179 $178 $401 $402 forward $65 $-1 #
edge $-1 $403 0 $288 35 $283 $404 forward 7 unknown #
vertex $-1 $287 $405 #
straight-curve $-1 -12 -2.5 15 0 -1 0 I I #
coedge $-1 $401 $406 $182 $291 reversed $407 $-1 #
edge $-1 $292 -0.78539816339744828 $297 0.78539816339744828 $182 $408 forward 7 unknown #
vertex $-1 $402 $409 #
straight-curve $-1 -12 14 50 0 0 -1 I I #
coedge $-1 $410 $184 $406 $411 forward $296 $-1 #
coedge $-1 $184 $410 $186 $300 forward $296 $-1 #
loop $-1 $-1 $295 $412 #
vertex $-1 $411 $413 #
straight-curve $-1 -6 20 50 0 0 -1 I I #
coedge $-1 $414 $186 $415 $416 reversed $187 $-1 #
edge $-1 $417 -24 $188 11 $295 $418 forward 7 unknown #
face $-1 $419 $187 $23 $-1 $420 reversed single #
point $-1 -6 20 15 #
point $-1 -12 14 15 #
model_id-kcp-attrib $-1 $-1 $-1 $192 1 990549441 60 -2126774271 8 #
face $421 $422 $423 $8 $-1 $424 forward single #
loop $-1 $-1 $216 $192 #
cone-surface $-1 -6 14 47.5 0 0 -1 -4.2426406871192803 4.2426406871192803 0 1 I I 0 1 5.9999999999999929 forward I I I I #
coedge $-1 $201 $425 $426 $427 reversed $193 $-1 #
coedge $-1 $428 $196 $429 $430 forward $113 $-1 #
coedge $-1 $196 $428 $431 $432 forward $113 $-1 #
coedge $-1 $433 $434 $196 $312 reversed $435 $-1 #
edge $436 $437 -50 $438 50 $311 $439 forward 7 unknown #
coedge $-1 $440 $216 $197 $314 reversed $306 $-1 #
edge $-1 $317 -1.6666666666666667 $218 21.666666666666668 $197 $441 forward 7 unknown #
coedge $-1 $198 $442 $440 $443 forward $195 $-1 #
attrib_edge_convexity-kcp-attrib $-1 $444 $-1 $199 1 #
vertex $-1 $443 $445 #
straight-curve $-1 5 20 50 1 0 0 I I #
coedge $-1 $426 $206 $200 $320 forward $195 $-1 #
edge $446 $208 -0.78539816339744828 $322 0.78539816339744828 $319 $447 forward 7 unknown #
coedge $-1 $425 $201 $203 $325 reversed $193 $-1 #
vertex $-1 $427 $448 #
straight-curve $-1 29 -20 47.5 0 0 -1.5 I I #
coedge $-1 $203 $215 $449 $450 forward $82 $-1 #
edge $-1 $451 -23.5 $204 11.5 $203 $452 forward 7 unknown #
point $-1 29 -20 15 #
attrib_edge_convexity-kcp-attrib $-1 $453 $-1 $207 1 #
straight-curve $-1 35 -2.5 50 0 -1 0 I I #
point $-1 35 -14 50 #
convexity-sys-attrib $-1 $-1 $211 $125 #
coedge $-1 $454 $455 $215 $332 reversed $423 $-1 #
edge $-1 $334 -16.5 $456 11.5 $215 $457 forward 7 unknown #
coedge $-1 $216 $440 $454 $458 reversed $306 $-1 #
vertex $-1 $217 $459 #
ellipse-curve $-1 -6 14 15 0 0 1 -4.2426406871192803 4.2426406871192803 0 1 I I #
point $-1 -6 20 15 #
coedge $-1 $460 $220 $461 $462 reversed $133 $-1 #
coedge $-1 $220 $460 $463 $464 reversed $133 $-1 #
coedge $-1 $434 $433 $220 $340 forward $435 $-1 #
edge $-1 $465 -50 $466 50 $339 $467 forward 7 unknown #
model_id-kcp-attrib $-1 $-1 $-1 $222 1 990549441 60 -2126774271 12 #
face $468 $469 $470 $8 $-1 $471 forward single #
loop $-1 $-1 $472 $222 #
cone-surface $-1 -22 0 -12.6980190360631 0 -1 0 -2.3800600208737102 0 -1.82628428702616 1 I I 0 1 3.0000000000000027 forward I I I I #
model_id-kcp-attrib $-1 $473 $-1 $225 1 990549441 60 -2126774270 4 #
plane-surface $-1 50 0 0 -1 0 0 0 0 1 forward_v I I I I #
coedge $-1 $230 $228 $232 $351 reversed $139 $-1 #
edge $-1 $243 -50 $353 50 $242 $474 forward 7 unknown #
vertex $-1 $351 $475 #
straight-curve $-1 -50 -50 0 0 0 -1 I I #
edge $-1 $349 -50 $353 50 $347 $476 forward 7 unknown #
straight-curve $-1 0 -50 -50 -1 0 0 I I #
vertex $-1 $235 $477 #
straight-curve $-1 0 50 -50 1 0 0 I I #
point $-1 50 50 -50 #
point $-1 50 -50 -50 #
straight-curve $-1 -50 0 50 0 -1 0 I I #
point $-1 -50 50 50 #
point $-1 -50 -50 50 #
straight-curve $-1 50 -50 0 0 0 -1 I I #
straight-curve $-1 50 50 0 0 0 -1 I I #
loop $-1 $-1 $264 $252 #
plane-surface $-1 0 -50 0 0 1 0 0 0 1 forward_v I I I I #
coedge $-1 $478 $479 $273 $385 reversed $253 $-1 #
coedge $-1 $480 $255 $479 $481 reversed $158 $-1 #
coedge $-1 $255 $480 $256 $370 forward $158 $-1 #
coedge $-1 $258 $273 $255 $368 forward $170 $-1 #
edge $-1 $482 -1.3089969389957357 $371 -5.9211894646675081e-016 $367 $483 forward 7 unknown #
coedge $-1 $257 $256 $484 $485 reversed $96 $-1 #
edge $-1 $486 0 $371 100 $256 $487 forward 7 unknown #
vertex $-1 $259 $488 #
straight-curve $-1 -25 50 6 0 0 1 I I #
coedge $-1 $484 $264 $260 $374 forward $362 $-1 #
edge $-1 $266 0 $375 1.5707963267948961 $373 $489 forward 7 unknown #
vertex $-1 $374 $490 #
straight-curve $-1 -25 -50 12 0 1 0 I I #
point $-1 -25 50 12 #
coedge $-1 $264 $491 $268 $382 reversed $362 $-1 #
straight-curve $-1 -6 -50 15 -1 0 0 I I #
point $-1 -22 -50 15 #
coedge $-1 $269 $268 $478 $492 forward $270 $-1 #
edge $-1 $271 -15 $493 35.096189432334256 $268 $494 forward 7 unknown #
face $-1 $-1 $270 $21 $-1 $495 reversed single #
point $-1 50 -50 15 #
edge $-1 $386 -66.361793058443368 $482 8.9819395083760227 $273 $496 forward 7 unknown #
vertex $-1 $492 $497 #
straight-curve $-1 50 50 0 0 0 -1 I I #
plane-surface $-1 0 50 0 0 -1 0 0 0 -1 forward_v I I I I #
face $-1 $412 $498 $23 $-1 $499 forward single #
loop $-1 $-1 $500 $278 #
plane-surface $-1 35 -14 50 1 0 0 0 0 -1 forward_v I I I I #
coedge $-1 $501 $502 $503 $504 forward $279 $-1 #
coedge $-1 $505 $281 $502 $506 reversed $175 $-1 #
coedge $-1 $281 $505 $282 $398 forward $175 $-1 #
coedge $-1 $284 $503 $281 $396 reversed $187 $-1 #
edge $-1 $399 -11 $507 24 $281 $508 forward 7 unknown #
coedge $-1 $283 $282 $509 $510 forward $104 $-1 #
edge $-1 $511 0 $399 35 $394 $512 forward 7 unknown #
vertex $-1 $398 $513 #
ellipse-curve $-1 -6 -14 15 0 0 1 -4.2426406871192803 -4.2426406871192803 0 1 I I #
coedge $-1 $509 $290 $286 $402 reversed $407 $-1 #
edge $-1 $403 -11.5 $292 16.5 $286 $514 forward 7 unknown #
vertex $-1 $510 $515 #
straight-curve $-1 -12 -14 50 0 0 -1 I I #
point $-1 -12 -14 15 #
coedge $-1 $290 $516 $294 $411 reversed $407 $-1 #
loop $-1 $-1 $406 $419 #
ellipse-curve $-1 -6 14 50 0 0 -1 -4.2426406871192803 4.2426406871192803 0 1 I I #
point $-1 -12 14 50 #
coedge $-1 $295 $294 $517 $518 forward $296 $-1 #
edge $-1 $297 -11 $519 24 $294 $520 forward 7 unknown #
face $-1 $301 $296 $23 $-1 $521 forward single #
point $-1 -6 20 50 #
coedge $-1 $503 $299 $500 $522 reversed $187 $-1 #
coedge $-1 $517 $523 $299 $416 forward $498 $-1 #
edge $-1 $524 -0.78539816339744828 $417 0.78539816339744828 $415 $525 forward 7 unknown #
vertex $-1 $518 $526 #
straight-curve $-1 5 20 15 -1 0 0 I I #
face $-1 $-1 $407 $23 $-1 $527 forward single #
plane-surface $-1 11.499999999999998 -2.2204460492503131e-016 14.999999999999986 0 0 1 1 0 0 forward_v I I I I #
model_id-kcp-attrib $-1 $-1 $-1 $305 1 990549441 60 -2126774271 9 #
face $528 $134 $529 $8 $-1 $530 reversed single #
loop $-1 $-1 $331 $305 #
plane-surface $-1 -12 -5 47.5 1 0 0 0 0 -1.5 forward_v I I I I #
coedge $-1 $308 $321 $531 $532 forward $193 $-1 #
coedge $-1 $533 $319 $308 $427 forward $195 $-1 #
edge $534 $322 -24 $535 11 $426 $536 forward 7 unknown #
coedge $-1 $310 $309 $537 $538 forward $113 $-1 #
coedge $-1 $539 $540 $309 $430 reversed $541 $-1 #
edge $542 $438 -50 $543 50 $429 $544 forward 7 unknown #
coedge $-1 $545 $546 $310 $432 reversed $547 $-1 #
edge $548 $549 -50 $437 50 $431 $550 forward 7 unknown #
coedge $-1 $339 $311 $546 $551 forward $435 $-1 #
coedge $-1 $311 $339 $539 $552 reversed $435 $-1 #
loop $-1 $-1 $339 $553 #
attrib_edge_convexity-kcp-attrib $-1 $554 $-1 $312 1 #
vertex $-1 $312 $555 #
vertex $-1 $312 $556 #
straight-curve $-1 50 0 50 0 1 0 I I #
coedge $-1 $333 $313 $315 $443 reversed $306 $-1 #
straight-curve $-1 -6 20 47.5 0 0 -1.5 I I #
coedge $-1 $315 $533 $557 $558 forward $195 $-1 #
edge $559 $560 -0.78539816339744828 $317 0.78539816339744828 $315 $561 forward 7 unknown #
convexity-sys-attrib $-1 $-1 $316 $199 #
point $-1 -6 20 50 #
attrib_edge_convexity-kcp-attrib $-1 $562 $-1 $320 1 #
ellipse-curve $-1 29 -14 50 0 0 -1 4.2426406871192803 -4.2426406871192803 0 1 I I #
point $-1 29 -20 50 #
coedge $-1 $563 $531 $324 $450 reversed $529 $-1 #
edge $-1 $456 -0.78539816339744828 $451 0.78539816339744828 $324 $564 forward 7 unknown #
vertex $-1 $450 $565 #
straight-curve $-1 17.5 -20 15 1 0 0 I I #
convexity-sys-attrib $-1 $-1 $327 $207 #
coedge $-1 $557 $331 $333 $458 forward $423 $-1 #
coedge $-1 $331 $557 $563 $566 forward $423 $-1 #
vertex $-1 $332 $567 #
straight-curve $-1 -12 -2.5 15 0 -1 0 I I #
edge $-1 $334 -21.666666666666668 $560 1.6666666666666667 $454 $568 forward 7 unknown #
point $-1 -12 14 15 #
coedge $-1 $338 $337 $569 $570 forward $133 $-1 #
coedge $-1 $546 $571 $337 $462 forward $547 $-1 #
edge $572 $573 -34.5 $465 37.5 $461 $574 forward 7 unknown #
coedge $-1 $575 $539 $338 $464 forward $541 $-1 #
edge $-1 $466 -37.5 $576 34.5 $463 $577 forward 7 unknown #
vertex $-1 $551 $578 #
vertex $-1 $552 $579 #
straight-curve $-1 50 0 15 0 1 0 I I #
model_id-kcp-attrib $-1 $-1 $-1 $342 1 990549441 60 -2126774271 13 #
face $580 $581 $582 $8 $-1 $583 reversed single #
loop $-1 $-1 $584 $342 #
plane-surface $-1 -25 0 0 1 0 0 0 0 -1 forward_v I I I I #
coedge $-1 $585 $586 $584 $587 reversed $343 $-1 #
model_id-kcp-attrib $-1 $-1 $345 $225 1 990549441 60 -2126774270 3 #
straight-curve $-1 -50 50 0 0 0 -1 I I #
point $-1 -50 -50 -50 #
straight-curve $-1 -50 0 -50 0 1 0 I I #
point $-1 -50 50 -50 #
coedge $-1 $588 $364 $381 $492 reversed $253 $-1 #
coedge $-1 $364 $588 $365 $481 forward $253 $-1 #
coedge $-1 $366 $365 $589 $590 reversed $158 $-1 #
edge $-1 $591 0 $482 100 $365 $592 forward 7 unknown #
vertex $-1 $368 $593 #
ellipse-curve $-1 -22 50 -12.698019036063098 0 1 0 -3.0000000000000036 0 -1.7763568394002505e-015 1 I I #
coedge $-1 $589 $373 $369 $485 forward $362 $-1 #
edge $-1 $375 -6 $486 18.698019036063101 $484 $594 forward 7 unknown #
vertex $-1 $485 $595 #
straight-curve $-1 -25 -50 -12.698019036063101 0 1 0 I I #
point $-1 -25 50 -12.698019036063101 #
ellipse-curve $-1 -22 -50 11.999999999999998 0 -1 0 0 0 2.9999999999999982 1 I I #
point $-1 -25 -50 12 #
coedge $-1 $378 $589 $588 $596 forward $362 $-1 #
edge $-1 $493 -25 $386 75 $381 $597 forward 7 unknown #
vertex $-1 $596 $598 #
straight-curve $-1 50 -50 0 0 0 -1 I I #
plane-surface $-1 50 0 0 -1 0 0 0 0 1 forward_v I I I I #
straight-curve $-1 -14.100569794001059 50 -17.920493521656791 -0.96592582628906831 0 0.25881904510252113 I I #
point $-1 49.999999999999986 50 -35.096189432334256 #
loop $-1 $-1 $415 $389 #
cone-surface $-1 29 14 50 0 0 -1 4.2426406871192803 4.2426406871192803 0 1 I I 0 1 5.9999999999999929 forward I I I I #
coedge $-1 $599 $600 $414 $522 forward $390 $-1 #
coedge $-1 $601 $392 $600 $602 reversed $279 $-1 #
coedge $-1 $392 $601 $393 $506 forward $279 $-1 #
coedge $-1 $395 $414 $392 $504 reversed $187 $-1 #
edge $-1 $507 -0.78539816339744828 $603 0.78539816339744828 $392 $604 forward 7 unknown #
coedge $-1 $394 $393 $605 $606 forward $175 $-1 #
edge $-1 $607 0 $507 35 $502 $608 forward 7 unknown #
vertex $-1 $506 $609 #
straight-curve $-1 5 -20 15 1 0 0 I I #
coedge $-1 $605 $401 $397 $510 reversed $407 $-1 #
edge $-1 $511 -0.78539816339744828 $403 0.78539816339744828 $397 $610 forward 7 unknown #
vertex $-1 $606 $611 #
straight-curve $-1 -6 -20 50 0 0 -1 I I #
point $-1 -6 -20 15 #
straight-curve $-1 -12 -2.5 50 0 1 0 I I #
point $-1 -12 -14 50 #
coedge $-1 $406 $612 $613 $614 reversed $407 $-1 #
coedge $-1 $613 $415 $410 $518 reversed $498 $-1 #
edge $-1 $519 0 $417 35 $410 $615 forward 7 unknown #
vertex $-1 $411 $616 #
straight-curve $-1 5 20 50 1 0 0 I I #
plane-surface $-1 29 20 50 0 1 0 0 0 1 forward_v I I I I #
edge $-1 $603 -11.5 $524 16.5 $500 $617 forward 7 unknown #
coedge $-1 $415 $613 $599 $618 forward $498 $-1 #
vertex $-1 $618 $619 #
ellipse-curve $-1 29 14 15 0 0 1 4.2426406871192803 4.2426406871192803 0 1 I I #
point $-1 29 20 15 #
plane-surface $-1 11.499999999999998 -2.2204460492503131e-016 49.999999999999986 0 0 1 1 0 0 forward_v I I I I #
model_id-kcp-attrib $-1 $-1 $-1 $422 1 990549441 60 -2126774271 10 #
loop $-1 $-1 $449 $422 #
cone-surface $-1 -6 -14 47.5 0 0 -1 -4.2426406871192803 -4.2426406871192803 0 1 I I 0 1 5.9999999999999929 forward I I I I #
coedge $-1 $449 $620 $425 $532 reversed $529 $-1 #
edge $-1 $451 -21.666666666666668 $535 1.6666666666666667 $425 $621 forward 7 unknown #
coedge $-1 $442 $426 $620 $622 forward $195 $-1 #
attrib_edge_convexity-kcp-attrib $-1 $623 $-1 $427 1 #
vertex $-1 $622 $624 #
straight-curve $-1 5 -20 50 -1 0 0 I I #
coedge $-1 $625 $626 $428 $538 reversed $627 $-1 #
edge $628 $543 -50 $549 50 $537 $629 forward 7 unknown #
coedge $-1 $463 $429 $434 $552 forward $541 $-1 #
coedge $-1 $429 $630 $625 $631 reversed $541 $-1 #
loop $-1 $-1 $632 $633 #
model_id-kcp-attrib $-1 $634 $-1 $430 1 990549441 60 -2126774271 25 #
vertex $-1 $430 $635 #
straight-curve $-1 0 50 50 -1 0 0 I I #
coedge $-1 $636 $431 $626 $637 forward $547 $-1 #
coedge $-1 $431 $461 $433 $551 reversed $547 $-1 #
loop $-1 $-1 $461 $638 #
attrib_edge_convexity-kcp-attrib $-1 $639 $-1 $432 1 #
vertex $-1 $538 $640 #
straight-curve $-1 0 -50 50 1 0 0 I I #
edge $641 $437 -50 $465 -15 $433 $642 forward 7 unknown #
edge $643 $438 -50 $466 -15 $434 $644 forward 7 unknown #
face $645 $646 $435 $8 $-1 $647 reversed single #
convexity-sys-attrib $-1 $-1 $436 $312 #
point $-1 50 -50 50 #
point $-1 50 50 50 #
coedge $-1 $455 $454 $442 $558 reversed $423 $-1 #
edge $648 $649 -11.5 $560 16.5 $442 $650 forward 7 unknown #
attrib_edge_convexity-kcp-attrib $-1 $651 $-1 $443 1 #
vertex $-1 $443 $652 #
ellipse-curve $-1 -6 14 50 0 0 -1 -4.2426406871192803 4.2426406871192803 0 1 I I #
convexity-sys-attrib $-1 $-1 $446 $320 #
coedge $-1 $620 $449 $455 $566 reversed $529 $-1 #
ellipse-curve $-1 -6 -14 15 0 0 1 -4.2426406871192803 -4.2426406871192803 0 1 I I #
point $-1 -6 -20 15 #
edge $-1 $649 -1.6666666666666667 $456 21.666666666666668 $455 $653 forward 7 unknown #
point $-1 -12 -14 15 #
straight-curve $-1 -12 14 47.5 0 0 1.5 I I #
coedge $-1 $654 $655 $460 $570 reversed $582 $-1 #
edge $-1 $573 -50 $576 50 $460 $656 forward 7 unknown #
coedge $-1 $461 $657 $654 $658 forward $547 $-1 #
attrib_edge_convexity-kcp-attrib $-1 $659 $-1 $462 1 #
vertex $-1 $658 $660 #
straight-curve $-1 12.5 -50 15 1 0 0 I I #
coedge $-1 $661 $463 $655 $662 forward $541 $-1 #
vertex $-1 $662 $663 #
straight-curve $-1 12.5 50 15 -1 0 0 I I #
point $-1 50 -50 15 #
point $-1 50 50 15 #
model_id-kcp-attrib $-1 $-1 $-1 $469 1 990549441 60 -2126774271 14 #
face $664 $665 $666 $8 $-1 $667 forward single #
loop $-1 $-1 $569 $469 #
cone-surface $-1 -22 0 12 0 -1 0 -2.1213203435596402 0 2.1213203435596402 1 I I 0 1 2.9999999999999964 forward I I I I #
coedge $-1 $668 $669 $472 $587 forward $470 $-1 #
coedge $-1 $670 $472 $671 $672 reversed $343 $-1 #
coedge $-1 $472 $670 $673 $674 reversed $343 $-1 #
edge $-1 $675 -50 $676 50 $584 $677 forward 7 unknown #
coedge $-1 $479 $478 $491 $596 reversed $253 $-1 #
coedge $-1 $491 $484 $480 $590 forward $362 $-1 #
edge $-1 $486 5.9211894646675081e-016 $591 1.3089969389957357 $589 $678 forward 7 unknown #
vertex $-1 $590 $679 #
straight-curve $-1 -22.776457135307595 -50 -15.595796514930299 0 1 0 I I #
point $-1 -22.776457135307595 50 -15.595796514930299 #
straight-curve $-1 -25 -50 6 0 0 -1 I I #
point $-1 -25 -50 -12.698019036063101 #
edge $-1 $591 -8.9819395083760227 $493 66.361793058443368 $491 $680 forward 7 unknown #
straight-curve $-1 50 -25 -35.096189432334221 0 1 0 I I #
point $-1 49.999999999999986 -50 -35.096189432334256 #
coedge $-1 $681 $500 $523 $618 reversed $390 $-1 #
coedge $-1 $500 $681 $501 $602 forward $390 $-1 #
coedge $-1 $502 $501 $682 $683 forward $279 $-1 #
edge $-1 $684 0 $603 35 $600 $685 forward 7 unknown #
vertex $-1 $602 $686 #
ellipse-curve $-1 29 -14 15 0 0 1 4.2426406871192803 -4.2426406871192803 0 1 I I #
coedge $-1 $682 $509 $505 $606 reversed $407 $-1 #
edge $-1 $607 -24 $511 11 $505 $687 forward 7 unknown #
vertex $-1 $683 $688 #
straight-curve $-1 29 -20 50 0 0 -1 I I #
point $-1 29 -20 15 #
ellipse-curve $-1 -6 -14 50 0 0 -1 -4.2426406871192803 -4.2426406871192803 0 1 I I #
point $-1 -6 -20 50 #
coedge $-1 $516 $682 $681 $689 reversed $407 $-1 #
coedge $-1 $523 $517 $516 $614 forward $498 $-1 #
edge $-1 $519 -0.78539816339744828 $690 0.78539816339744828 $613 $691 forward 7 unknown #
straight-curve $-1 29 20 50 0 0 -1 I I #
point $-1 29 20 50 #
straight-curve $-1 35 -2.5 15 0 1 0 I I #
edge $-1 $690 0 $524 35 $523 $692 forward 7 unknown #
point $-1 35 14 15 #
coedge $-1 $531 $563 $533 $622 reversed $529 $-1 #
straight-curve $-1 -6 -20 47.5 0 0 1.5 I I #
edge $693 $535 -0.78539816339744828 $649 0.78539816339744828 $533 $694 forward 7 unknown #
convexity-sys-attrib $-1 $-1 $534 $427 #
point $-1 -6 -20 50 #
coedge $-1 $695 $537 $540 $631 forward $627 $-1 #
coedge $-1 $537 $695 $545 $637 reversed $627 $-1 #
loop $-1 $-1 $625 $696 #
attrib_edge_convexity-kcp-attrib $-1 $697 $-1 $538 1 #
straight-curve $-1 -50 0 50 0 -1 0 I I #
coedge $-1 $540 $698 $699 $700 reversed $541 $-1 #
edge $701 $543 -50 $702 50 $540 $703 forward 7 unknown #
coedge $-1 $698 $673 $704 $705 forward $541 $-1 #
face $706 $-1 $541 $8 $-1 $707 reversed single #
attrib_edge_convexity-kcp-attrib $-1 $708 $542 $430 1 #
point $-1 -50 50 50 #
coedge $-1 $709 $545 $710 $711 reversed $547 $-1 #
edge $712 $549 -50 $713 50 $626 $714 forward 7 unknown #
face $715 $696 $547 $8 $-1 $716 reversed single #
convexity-sys-attrib $-1 $-1 $548 $432 #
point $-1 -50 -50 50 #
attrib_edge_convexity-kcp-attrib $-1 $717 $-1 $551 1 #
straight-curve $-1 50 -50 0 0 0 -1 I I #
model_id-kcp-attrib $-1 $-1 $-1 $552 1 990549441 60 -2126774271 24 #
straight-curve $-1 50 50 0 0 0 -1 I I #
model_id-kcp-attrib $-1 $-1 $-1 $553 1 990549441 60 -2126774271 17 #
face $718 $638 $719 $8 $-1 $720 reversed single #
plane-surface $-1 50 0 0 -1 0 0 0 0 1 forward_v I I I I #
attrib_edge_convexity-kcp-attrib $-1 $721 $-1 $558 1 #
vertex $-1 $558 $722 #
straight-curve $-1 -12 -2.5 50 0 1 0 I I #
convexity-sys-attrib $-1 $-1 $559 $443 #
point $-1 -12 14 50 #
straight-curve $-1 -12 -14 47.5 0 0 -1.5 I I #
coedge $-1 $723 $569 $571 $658 reversed $582 $-1 #
coedge $-1 $569 $723 $575 $662 reversed $582 $-1 #
straight-curve $-1 -22 0 15 0 1 0 I I #
coedge $-1 $571 $671 $669 $724 forward $547 $-1 #
edge $725 $726 -0.78539816339744828 $573 0.78539816339744828 $571 $727 forward 7 unknown #
convexity-sys-attrib $-1 $-1 $572 $462 #
point $-1 -22 -50 15 #
coedge $-1 $673 $575 $668 $728 forward $541 $-1 #
edge $-1 $576 -0.78539816339744828 $729 0.78539816339744828 $575 $730 forward 7 unknown #
point $-1 -22 50 15 #
model_id-kcp-attrib $-1 $-1 $-1 $581 1 990549441 60 -2126774271 15 #
face $731 $553 $732 $8 $-1 $647 reversed single #
loop $-1 $-1 $733 $581 #
plane-surface $-1 23.296291314453399 0 -27.940952255126099 0.25881904510252107 0 0.9659258262890682 0.96592582628906798 0 -0.25881904510252102 forward_v I I I I #
coedge $-1 $734 $584 $661 $728 reversed $470 $-1 #
coedge $-1 $584 $734 $657 $724 reversed $470 $-1 #
coedge $-1 $586 $585 $735 $736 reversed $343 $-1 #
coedge $-1 $657 $737 $585 $672 forward $547 $-1 #
edge $738 $739 -0.65449846949786283 $675 0.65449846949787205 $671 $740 forward 7 unknown #
coedge $-1 $632 $661 $586 $674 forward $541 $-1 #
edge $-1 $676 -0.65449846949787205 $741 0.65449846949786283 $673 $742 forward 7 unknown #
vertex $-1 $672 $743 #
vertex $-1 $674 $744 #
straight-curve $-1 -25 0 -12.6980190360631 0 1 0 I I #
ellipse-curve $-1 -22 -50 -12.698019036063098 0 -1 0 -3.0000000000000036 0 -1.7763568394002505e-015 1 I I #
point $-1 -22.776457135307595 -50 -15.595796514930299 #
straight-curve $-1 -14.100569794001059 -50 -17.920493521656791 0.96592582628906831 0 -0.25881904510252113 I I #
coedge $-1 $600 $599 $612 $689 forward $390 $-1 #
coedge $-1 $612 $605 $601 $683 reversed $407 $-1 #
edge $-1 $684 -0.78539816339744828 $607 0.78539816339744828 $601 $745 forward 7 unknown #
vertex $-1 $689 $746 #
straight-curve $-1 35 -14 50 0 0 -1 I I #
point $-1 35 -14 15 #
straight-curve $-1 5 -20 50 -1 0 0 I I #
point $-1 29 -20 50 #
edge $-1 $690 -16.5 $684 11.5 $681 $747 forward 7 unknown #
vertex $-1 $614 $748 #
ellipse-curve $-1 29 14 50 0 0 -1 4.2426406871192803 4.2426406871192803 0 1 I I #
straight-curve $-1 35 14 50 0 0 -1 I I #
attrib_edge_convexity-kcp-attrib $-1 $749 $-1 $622 1 #
ellipse-curve $-1 -6 -14 50 0 0 -1 -4.2426406871192803 -4.2426406871192803 0 1 I I #
coedge $-1 $626 $625 $750 $751 reversed $627 $-1 #
face $752 $633 $627 $8 $-1 $753 reversed single #
convexity-sys-attrib $-1 $-1 $628 $538 #
coedge $-1 $630 $632 $754 $755 forward $541 $-1 #
coedge $-1 $756 $750 $630 $700 forward $719 $-1 #
edge $757 $702 -50 $758 50 $630 $759 forward 7 unknown #
model_id-kcp-attrib $-1 $-1 $-1 $631 1 990549441 60 -2126774271 26 #
vertex $-1 $700 $760 #
straight-curve $-1 -50 50 0 0 0 -1 I I #
coedge $-1 $735 $733 $632 $705 reversed $666 $-1 #
edge $-1 $741 -32.830949026407616 $761 42.512783540411782 $632 $762 forward 7 unknown #
model_id-kcp-attrib $-1 $-1 $-1 $633 1 990549441 60 -2126774271 21 #
plane-surface $-1 0 50 0 0 -1 0 0 0 -1 forward_v I I I I #
convexity-sys-attrib $-1 $-1 $634 $430 #
coedge $-1 $737 $636 $763 $764 reversed $547 $-1 #
coedge $-1 $750 $756 $636 $711 forward $719 $-1 #
edge $765 $766 -50 $713 50 $636 $767 forward 7 unknown #
attrib_edge_convexity-kcp-attrib $-1 $768 $-1 $637 1 #
vertex $-1 $751 $769 #
straight-curve $-1 -50 -50 0 0 0 -1 I I #
model_id-kcp-attrib $-1 $770 $-1 $638 1 990549441 60 -2126774271 22 #
plane-surface $-1 0 -50 0 0 1 0 0 0 1 forward_v I I I I #
convexity-sys-attrib $-1 $-1 $641 $551 #
model_id-kcp-attrib $-1 $-1 $-1 $646 1 990549441 60 -2126774271 18 #
loop $-1 $-1 $756 $646 #
plane-surface $-1 0 0 -50 0 0 1 1 0 0 forward_v I I I I #
convexity-sys-attrib $-1 $-1 $648 $558 #
point $-1 -12 -14 50 #
coedge $-1 $655 $654 $734 $771 reversed $582 $-1 #
edge $772 $675 -12.6980190360631 $726 12 $657 $773 forward 7 unknown #
attrib_edge_convexity-kcp-attrib $-1 $774 $-1 $658 1 #
vertex $-1 $724 $775 #
ellipse-curve $-1 -22 -50 12 0 1 0 -2.1213203435596402 0 2.1213203435596402 1 I I #
edge $-1 $729 -12 $676 12.6980190360631 $661 $776 forward 7 unknown #
vertex $-1 $728 $777 #
ellipse-curve $-1 -22 50 12 0 -1 0 -2.1213203435596402 0 2.1213203435596402 1 I I #
model_id-kcp-attrib $-1 $-1 $-1 $665 1 990549441 60 -2126774271 16 #
loop $-1 $-1 $778 $665 #
coedge $-1 $704 $779 $778 $780 reversed $666 $-1 #
coedge $-1 $669 $668 $723 $771 forward $470 $-1 #
coedge $-1 $779 $704 $670 $736 forward $666 $-1 #
edge $-1 $741 -50 $739 50 $735 $781 forward 7 unknown #
coedge $-1 $671 $709 $779 $782 forward $547 $-1 #
attrib_edge_convexity-kcp-attrib $-1 $783 $-1 $672 1 #
vertex $-1 $672 $784 #
ellipse-curve $-1 -22 -50 -12.6980190360631 0 1 0 -2.3800600208737102 0 -1.82628428702616 1 I I #
vertex $-1 $674 $785 #
ellipse-curve $-1 -22 50 -12.6980190360631 0 -1 0 -2.3800600208737102 0 -1.82628428702616 1 I I #
point $-1 -25 -50 -12.6980190360631 #
point $-1 -25 50 -12.6980190360631 #
ellipse-curve $-1 29 -14 50 0 0 -1 4.2426406871192803 -4.2426406871192803 0 1 I I #
point $-1 35 -14 50 #
straight-curve $-1 35 -2.5 50 0 -1 0 I I #
point $-1 35 14 50 #
convexity-sys-attrib $-1 $-1 $693 $622 #
coedge $-1 $699 $710 $695 $751 forward $719 $-1 #
edge $-1 $713 -50 $702 50 $695 $786 forward 7 unknown #
model_id-kcp-attrib $-1 $-1 $-1 $696 1 990549441 60 -2126774271 20 #
plane-surface $-1 -50 0 0 1 0 0 0 0 -1 forward_v I I I I #
coedge $-1 $778 $787 $698 $755 reversed $732 $-1 #
edge $788 $761 35.096189432334199 $758 50 $754 $644 forward 7 unknown #
coedge $-1 $710 $699 $787 $789 forward $719 $-1 #
model_id-kcp-attrib $-1 $-1 $-1 $700 1 990549441 60 -2126774271 27 #
vertex $-1 $789 $790 #
straight-curve $-1 0 50 -50 1 0 0 I I #
point $-1 -50 50 -50 #
vertex $-1 $780 $791 #
straight-curve $-1 8.9358044308794398 50 -24.093071391754702 0.96592582628906798 0 -0.25881904510252102 I I #
coedge $-1 $787 $778 $709 $764 forward $732 $-1 #
edge $792 $793 35.096189432334199 $766 50 $763 $642 forward 7 unknown #
attrib_edge_convexity-kcp-attrib $-1 $794 $-1 $711 1 #
vertex $-1 $764 $795 #
straight-curve $-1 0 -50 -50 -1 0 0 I I #
convexity-sys-attrib $-1 $-1 $712 $637 #
point $-1 -50 -50 -50 #
model_id-kcp-attrib $-1 $-1 $715 $638 1 990549441 60 -2126774271 19 #
edge $-1 $729 -50 $726 50 $734 $796 forward 7 unknown #
attrib_edge_convexity-kcp-attrib $-1 $797 $-1 $724 1 #
straight-curve $-1 -25 -50 0 0 0 1 I I #
convexity-sys-attrib $-1 $-1 $725 $658 #
point $-1 -25 -50 12 #
straight-curve $-1 -25 50 0 0 0 -1 I I #
point $-1 -25 50 12 #
coedge $-1 $763 $754 $733 $780 forward $732 $-1 #
coedge $-1 $733 $735 $737 $782 reversed $666 $-1 #
edge $798 $761 -50 $793 50 $778 $799 forward 7 unknown #
straight-curve $-1 -22.776457135307599 0 -15.595796514930299 0 -1 0 I I #
edge $800 $793 -42.512783540411782 $739 32.830949026407616 $737 $801 forward 7 unknown #
convexity-sys-attrib $-1 $-1 $738 $672 #
point $-1 -22.776457135307599 -50 -15.595796514930299 #
point $-1 -22.776457135307599 50 -15.595796514930299 #
straight-curve $-1 -50 0 -50 0 1 0 I I #
coedge $-1 $754 $763 $756 $789 reversed $732 $-1 #
model_id-kcp-attrib $-1 $802 $-1 $755 1 990549441 60 -2126774271 23 #
edge $803 $758 -50 $766 50 $787 $804 forward 7 unknown #
point $-1 50 50 -50 #
point $-1 50 50 -35.096189432334199 #
attrib_edge_convexity-kcp-attrib $-1 $805 $-1 $764 1 #
vertex $-1 $780 $806 #
convexity-sys-attrib $-1 $-1 $765 $711 #
point $-1 50 -50 -50 #
straight-curve $-1 -25 0 12 0 -1 0 I I #
convexity-sys-attrib $-1 $-1 $772 $724 #
attrib_edge_convexity-kcp-attrib $-1 $807 $-1 $780 1 #
straight-curve $-1 50 0 -35.096189432334299 0 -1 0 I I #
attrib_edge_convexity-kcp-attrib $-1 $808 $-1 $782 1 #
straight-curve $-1 8.9358044308794398 -50 -24.093071391754702 -0.96592582628906798 0 0.25881904510252102 I I #
attrib_edge_convexity-kcp-attrib $-1 $809 $788 $755 1 #
attrib_edge_convexity-kcp-attrib $-1 $810 $-1 $789 1 #
straight-curve $-1 50 0 -50 0 -1 0 I I #
convexity-sys-attrib $-1 $-1 $792 $764 #
point $-1 50 -50 -35.096189432334199 #
convexity-sys-attrib $-1 $-1 $798 $780 #
convexity-sys-attrib $-1 $-1 $800 $782 #
convexity-sys-attrib $-1 $-1 $802 $755 #
convexity-sys-attrib $-1 $-1 $803 $789 #
End-of-ACIS-data 