600 0 1 0           
101 GICL ACIS Healer - Source: /gicl/data5/repository/UMD/bottomless_pocket1/bottomless_pocket1.sat - 6 0 18 ACIS 6.0.3 Solaris 24 Sun Apr 14 00:35:44 2002 
1 9.999999999999999547e-07 1.000000000000000036e-10 
body $-1 $1 $-1 $-1 #
lump $-1 $-1 $2 $0 #
shell $-1 $-1 $-1 $3 $-1 $1 #
face $-1 $4 $5 $2 $-1 $6 reversed single #
face $-1 $7 $8 $2 $-1 $9 forward single #
loop $-1 $-1 $10 $3 #
cone-surface $-1 29 14 47.5 0 0 -1 4.242640687119280329 4.242640687119280329 0 1 I I 0 1 5.999999999999992895 forward I I I I #
face $-1 $11 $12 $2 $-1 $13 reversed single #
loop $-1 $-1 $14 $4 #
plane-surface $-1 35 -5 47.5 -1 0 0 0 0 1.5 forward_v I I I I #
coedge $-1 $15 $16 $17 $18 reversed $5 $-1 #
face $-1 $19 $20 $2 $-1 $21 forward single #
loop $-1 $-1 $22 $7 #
cone-surface $-1 29 -14 47.5 0 0 -1 4.242640687119280329 -4.242640687119280329 0 1 I I 0 1 5.999999999999992895 forward I I I I #
coedge $-1 $23 $24 $25 $26 reversed $8 $-1 #
coedge $-1 $27 $10 $24 $28 reversed $5 $-1 #
coedge $-1 $10 $27 $29 $30 reversed $5 $-1 #
coedge $-1 $31 $25 $10 $18 forward $32 $-1 #
edge $-1 $33 -0.785398163397448279 $34 0.785398163397448279 $17 $35 forward 7 unknown #
face $-1 $36 $37 $2 $-1 $38 forward single #
loop $-1 $-1 $39 $11 #
plane-surface $-1 15 20 47.5 0 -1 0 0 0 -1.5 forward_v I I I I #
coedge $-1 $40 $41 $42 $43 reversed $12 $-1 #
coedge $-1 $44 $14 $41 $45 forward $8 $-1 #
coedge $-1 $14 $44 $15 $28 forward $8 $-1 #
coedge $-1 $17 $42 $14 $26 forward $32 $-1 #
edge $-1 $46 -11.5 $33 16.5 $25 $47 forward 7 unknown #
coedge $-1 $16 $15 $48 $49 reversed $5 $-1 #
edge $-1 $50 -1.666666666666666741 $33 21.66666666666666785 $24 $51 forward 7 unknown #
coedge $-1 $39 $52 $16 $30 forward $20 $-1 #
edge $-1 $34 -21.66666666666666785 $53 1.666666666666666741 $29 $54 forward 7 unknown #
coedge $-1 $55 $17 $52 $56 forward $32 $-1 #
loop $-1 $57 $31 $58 #
vertex $-1 $18 $59 #
vertex $-1 $56 $60 #
ellipse-curve $-1 29 14 15 0 0 1 4.242640687119280329 4.242640687119280329 0 1 I I #
face $-1 $61 $62 $2 $-1 $63 forward single #
loop $-1 $64 $65 $19 #
plane-surface $-1 0 0 50 0 0 1 1 0 0 forward_v I I I I #
coedge $-1 $66 $29 $67 $68 reversed $20 $-1 #
coedge $-1 $69 $22 $70 $71 reversed $12 $-1 #
coedge $-1 $22 $69 $23 $45 reversed $12 $-1 #
coedge $-1 $25 $72 $22 $43 forward $32 $-1 #
edge $-1 $73 -0.785398163397448279 $46 0.785398163397448279 $42 $74 forward 7 unknown #
coedge $-1 $24 $23 $75 $76 reversed $8 $-1 #
edge $-1 $46 -21.66666666666666785 $77 1.666666666666666741 $23 $78 forward 7 unknown #
vertex $-1 $26 $79 #
straight-curve $-1 35 -2.5 15 0 1 -0 I I #
coedge $-1 $75 $67 $27 $49 forward $64 $-1 #
edge $-1 $53 -0.785398163397448279 $50 0.785398163397448279 $48 $80 forward 7 unknown #
vertex $-1 $49 $81 #
straight-curve $-1 35 14 47.5 0 0 -1.5 I I #
coedge $-1 $29 $66 $31 $56 reversed $20 $-1 #
vertex $-1 $68 $82 #
straight-curve $-1 29 20 47.5 0 0 1.5 I I #
coedge $-1 $83 $31 $84 $85 forward $32 $-1 #
edge $-1 $34 -11.5 $86 23.5 $31 $87 forward 7 unknown #
loop $-1 $-1 $88 $58 #
face $-1 $89 $32 $2 $-1 $90 reversed single #
point $-1 35 14 15 #
point $-1 29 20 15 #
face $-1 $91 $92 $2 $-1 $93 reversed single #
loop $-1 $-1 $94 $36 #
plane-surface $-1 15 -20 47.5 0 1 0 0 0 1.5 forward_v I I I I #
loop $-1 $-1 $67 $19 #
coedge $-1 $95 $96 $97 $98 forward $37 $-1 #
coedge $-1 $52 $39 $99 $100 forward $20 $-1 #
coedge $-1 $48 $101 $39 $68 forward $64 $-1 #
edge $-1 $102 -11 $53 24 $67 $103 forward 7 unknown #
coedge $-1 $41 $40 $104 $105 reversed $12 $-1 #
coedge $-1 $106 $94 $40 $71 forward $62 $-1 #
edge $-1 $107 -1.666666666666666741 $73 21.66666666666666785 $70 $108 forward 7 unknown #
coedge $-1 $42 $109 $106 $110 forward $32 $-1 #
vertex $-1 $110 $111 #
ellipse-curve $-1 29 -14 15 0 0 1 4.242640687119280329 -4.242640687119280329 0 1 I I #
coedge $-1 $104 $48 $44 $76 forward $64 $-1 #
edge $-1 $50 -16.5 $77 11.5 $75 $112 forward 7 unknown #
vertex $-1 $76 $113 #
straight-curve $-1 35 -14 47.5 0 0 1.5 I I #
point $-1 35 -14 15 #
ellipse-curve $-1 29 14 50 -0 -0 -1 4.242640687119280329 4.242640687119280329 0 1 I I #
point $-1 35 14 50 #
point $-1 29 20 50 #
coedge $-1 $109 $55 $114 $115 forward $32 $-1 #
coedge $-1 $99 $116 $55 $85 reversed $92 $-1 #
edge $-1 $86 -0.785398163397448279 $117 0.785398163397448279 $55 $118 forward 7 unknown #
vertex $-1 $85 $119 #
straight-curve $-1 17.5 20 15 -1 0 0 I I #
coedge $-1 $120 $121 $122 $123 reversed $57 $-1 #
face $-1 $124 $125 $2 $-1 $126 reversed single #
plane-surface $-1 25 0 15 0 0 1 1 0 0 forward_v I I I I #
face $-1 $127 $128 $2 $-1 $129 forward single #
loop $-1 $-1 $84 $61 #
cone-surface $-1 -6 14 47.5 0 0 -1 -4.242640687119280329 4.242640687119280329 0 1 I I 0 1 5.999999999999992895 forward I I I I #
coedge $-1 $70 $130 $131 $132 reversed $62 $-1 #
coedge $-1 $133 $65 $134 $135 forward $37 $-1 #
coedge $-1 $65 $133 $136 $137 forward $37 $-1 #
coedge $-1 $138 $139 $65 $98 reversed $140 $-1 #
edge $-1 $141 -50 $142 50 $97 $143 forward 7 unknown #
coedge $-1 $144 $84 $66 $100 reversed $92 $-1 #
edge $-1 $102 -1.666666666666666741 $86 21.66666666666666785 $66 $145 forward 7 unknown #
coedge $-1 $67 $146 $144 $147 forward $64 $-1 #
vertex $-1 $147 $148 #
straight-curve $-1 5 20 50 1 0 -0 I I #
coedge $-1 $131 $75 $69 $105 forward $64 $-1 #
edge $-1 $77 -0.785398163397448279 $107 0.785398163397448279 $104 $149 forward 7 unknown #
coedge $-1 $130 $70 $72 $110 reversed $62 $-1 #
vertex $-1 $132 $150 #
straight-curve $-1 29 -20 47.5 0 0 -1.5 I I #
coedge $-1 $72 $83 $151 $152 forward $32 $-1 #
edge $-1 $153 -23.5 $73 11.5 $72 $154 forward 7 unknown #
point $-1 29 -20 15 #
straight-curve $-1 35 -2.5 50 0 -1 0 I I #
point $-1 35 -14 50 #
coedge $-1 $155 $156 $83 $115 reversed $128 $-1 #
edge $-1 $117 -16.5 $157 11.5 $83 $158 forward 7 unknown #
coedge $-1 $84 $144 $155 $159 reversed $92 $-1 #
vertex $-1 $85 $160 #
ellipse-curve $-1 -6 14 15 0 0 1 -4.242640687119280329 4.242640687119280329 0 1 I I #
point $-1 -6 20 15 #
coedge $-1 $161 $88 $162 $163 reversed $57 $-1 #
coedge $-1 $88 $161 $164 $165 reversed $57 $-1 #
coedge $-1 $139 $138 $88 $123 forward $140 $-1 #
edge $-1 $166 -50 $167 50 $122 $168 forward 7 unknown #
face $-1 $169 $170 $2 $-1 $171 forward single #
loop $-1 $-1 $172 $89 #
cone-surface $-1 -22 0 -12.69801903606309956 0 -1 0 -2.380060020873710158 0 -1.826284287026159969 1 I I 0 1 3.000000000000002665 forward I I I I #
face $-1 $58 $173 $2 $-1 $174 reversed single #
loop $-1 $-1 $114 $91 #
plane-surface $-1 -12 -5 47.5 1 0 0 0 0 -1.5 forward_v I I I I #
coedge $-1 $94 $106 $175 $176 forward $62 $-1 #
coedge $-1 $177 $104 $94 $132 forward $64 $-1 #
edge $-1 $107 -24 $178 11 $131 $179 forward 7 unknown #
coedge $-1 $96 $95 $180 $181 forward $37 $-1 #
coedge $-1 $182 $183 $95 $135 reversed $184 $-1 #
edge $-1 $142 -50 $185 50 $134 $186 forward 7 unknown #
coedge $-1 $187 $188 $96 $137 reversed $189 $-1 #
edge $-1 $190 -50 $141 50 $136 $191 forward 7 unknown #
coedge $-1 $122 $97 $188 $192 forward $140 $-1 #
coedge $-1 $97 $122 $182 $193 reversed $140 $-1 #
loop $-1 $-1 $122 $194 #
vertex $-1 $98 $195 #
vertex $-1 $98 $196 #
straight-curve $-1 50 0 50 0 1 0 I I #
coedge $-1 $116 $99 $101 $147 reversed $92 $-1 #
straight-curve $-1 -6 20 47.5 0 0 -1.5 I I #
coedge $-1 $101 $177 $197 $198 forward $64 $-1 #
edge $-1 $199 -0.785398163397448279 $102 0.785398163397448279 $101 $200 forward 7 unknown #
point $-1 -6 20 50 #
ellipse-curve $-1 29 -14 50 -0 -0 -1 4.242640687119280329 -4.242640687119280329 0 1 I I #
point $-1 29 -20 50 #
coedge $-1 $201 $175 $109 $152 reversed $173 $-1 #
edge $-1 $157 -0.785398163397448279 $153 0.785398163397448279 $109 $202 forward 7 unknown #
vertex $-1 $152 $203 #
straight-curve $-1 17.5 -20 15 1 0 0 I I #
coedge $-1 $197 $114 $116 $159 forward $128 $-1 #
coedge $-1 $114 $197 $201 $204 forward $128 $-1 #
vertex $-1 $115 $205 #
straight-curve $-1 -12 -2.5 15 0 -1 0 I I #
edge $-1 $117 -21.66666666666666785 $199 1.666666666666666741 $155 $206 forward 7 unknown #
point $-1 -12 14 15 #
coedge $-1 $121 $120 $207 $208 forward $57 $-1 #
coedge $-1 $188 $209 $120 $163 forward $189 $-1 #
edge $-1 $210 -34.5 $166 37.5 $162 $211 forward 7 unknown #
coedge $-1 $212 $182 $121 $165 forward $184 $-1 #
edge $-1 $167 -37.5 $213 34.5 $164 $214 forward 7 unknown #
vertex $-1 $192 $215 #
vertex $-1 $193 $216 #
straight-curve $-1 50 0 15 0 1 -0 I I #
face $-1 $217 $218 $2 $-1 $219 reversed single #
loop $-1 $-1 $220 $124 #
plane-surface $-1 -25 0 0 1 0 0 0 0 -1 forward_v I I I I #
coedge $-1 $221 $222 $220 $223 reversed $125 $-1 #
loop $-1 $-1 $151 $127 #
cone-surface $-1 -6 -14 47.5 -0 -0 -1 -4.242640687119280329 -4.242640687119280329 0 1 I I 0 1 5.999999999999992895 forward I I I I #
coedge $-1 $151 $224 $130 $176 reversed $173 $-1 #
edge $-1 $153 -21.66666666666666785 $178 1.666666666666666741 $130 $225 forward 7 unknown #
coedge $-1 $146 $131 $224 $226 forward $64 $-1 #
vertex $-1 $226 $227 #
straight-curve $-1 5 -20 50 -1 0 0 I I #
coedge $-1 $228 $229 $133 $181 reversed $230 $-1 #
edge $-1 $185 -50 $190 50 $180 $231 forward 7 unknown #
coedge $-1 $164 $134 $139 $193 forward $184 $-1 #
coedge $-1 $134 $232 $228 $233 reversed $184 $-1 #
loop $-1 $-1 $234 $235 #
vertex $-1 $135 $236 #
straight-curve $-1 0 50 50 -1 0 0 I I #
coedge $-1 $237 $136 $229 $238 forward $189 $-1 #
coedge $-1 $136 $162 $138 $192 reversed $189 $-1 #
loop $-1 $-1 $162 $239 #
vertex $-1 $181 $240 #
straight-curve $-1 0 -50 50 1 0 0 I I #
edge $-1 $141 -50 $166 -15 $138 $241 forward 7 unknown #
edge $-1 $142 -50 $167 -15 $139 $242 forward 7 unknown #
face $-1 $243 $140 $2 $-1 $244 reversed single #
point $-1 50 -50 50 #
point $-1 50 50 50 #
coedge $-1 $156 $155 $146 $198 reversed $128 $-1 #
edge $-1 $245 -11.5 $199 16.5 $146 $246 forward 7 unknown #
vertex $-1 $147 $247 #
ellipse-curve $-1 -6 14 50 -0 -0 -1 -4.242640687119280329 4.242640687119280329 0 1 I I #
coedge $-1 $224 $151 $156 $204 reversed $173 $-1 #
ellipse-curve $-1 -6 -14 15 0 0 1 -4.242640687119280329 -4.242640687119280329 0 1 I I #
point $-1 -6 -20 15 #
edge $-1 $245 -1.666666666666666741 $157 21.66666666666666785 $156 $248 forward 7 unknown #
point $-1 -12 -14 15 #
straight-curve $-1 -12 14 47.5 0 0 1.5 I I #
coedge $-1 $249 $250 $161 $208 reversed $218 $-1 #
edge $-1 $210 -50 $213 50 $161 $251 forward 7 unknown #
coedge $-1 $162 $252 $249 $253 forward $189 $-1 #
vertex $-1 $253 $254 #
straight-curve $-1 12.5 -50 15 1 -0 0 I I #
coedge $-1 $255 $164 $250 $256 forward $184 $-1 #
vertex $-1 $256 $257 #
straight-curve $-1 12.5 50 15 -1 0 0 I I #
point $-1 50 -50 15 #
point $-1 50 50 15 #
face $-1 $258 $259 $2 $-1 $260 forward single #
loop $-1 $-1 $207 $169 #
cone-surface $-1 -22 0 12 0 -1 0 -2.121320343559640165 0 2.121320343559640165 1 I I 0 1 2.999999999999996447 forward I I I I #
coedge $-1 $261 $262 $172 $223 forward $170 $-1 #
coedge $-1 $263 $172 $264 $265 reversed $125 $-1 #
coedge $-1 $172 $263 $266 $267 reversed $125 $-1 #
edge $-1 $268 -50 $269 50 $220 $270 forward 7 unknown #
coedge $-1 $175 $201 $177 $226 reversed $173 $-1 #
straight-curve $-1 -6 -20 47.5 0 0 1.5 I I #
edge $-1 $178 -0.785398163397448279 $245 0.785398163397448279 $177 $271 forward 7 unknown #
point $-1 -6 -20 50 #
coedge $-1 $272 $180 $183 $233 forward $230 $-1 #
coedge $-1 $180 $272 $187 $238 reversed $230 $-1 #
loop $-1 $-1 $228 $273 #
straight-curve $-1 -50 0 50 0 -1 0 I I #
coedge $-1 $183 $274 $275 $276 reversed $184 $-1 #
edge $-1 $185 -50 $277 50 $183 $278 forward 7 unknown #
coedge $-1 $274 $266 $279 $280 forward $184 $-1 #
face $-1 $-1 $184 $2 $-1 $281 reversed single #
point $-1 -50 50 50 #
coedge $-1 $282 $187 $283 $284 reversed $189 $-1 #
edge $-1 $190 -50 $285 50 $229 $286 forward 7 unknown #
face $-1 $273 $189 $2 $-1 $287 reversed single #
point $-1 -50 -50 50 #
straight-curve $-1 50 -50 0 0 0 -1 I I #
straight-curve $-1 50 50 0 0 0 -1 I I #
face $-1 $239 $288 $2 $-1 $289 reversed single #
plane-surface $-1 50 0 0 -1 0 0 0 -0 1 forward_v I I I I #
vertex $-1 $198 $290 #
straight-curve $-1 -12 -2.5 50 0 1 0 I I #
point $-1 -12 14 50 #
straight-curve $-1 -12 -14 47.5 0 0 -1.5 I I #
coedge $-1 $291 $207 $209 $253 reversed $218 $-1 #
coedge $-1 $207 $291 $212 $256 reversed $218 $-1 #
straight-curve $-1 -22 0 15 0 1 0 I I #
coedge $-1 $209 $264 $262 $292 forward $189 $-1 #
edge $-1 $293 -0.785398163397448279 $210 0.785398163397448279 $209 $294 forward 7 unknown #
point $-1 -22 -50 15 #
coedge $-1 $266 $212 $261 $295 forward $184 $-1 #
edge $-1 $213 -0.785398163397448279 $296 0.785398163397448279 $212 $297 forward 7 unknown #
point $-1 -22 50 15 #
face $-1 $194 $298 $2 $-1 $244 reversed single #
loop $-1 $-1 $299 $217 #
plane-surface $-1 23.29629131445339851 0 -27.94095225512609915 0.2588190451025210725 0 0.9659258262890682012 0.9659258262890679791 0 -0.258819045102521017 forward_v I I I I #
coedge $-1 $300 $220 $255 $295 reversed $170 $-1 #
coedge $-1 $220 $300 $252 $292 reversed $170 $-1 #
coedge $-1 $222 $221 $301 $302 reversed $125 $-1 #
coedge $-1 $252 $303 $221 $265 forward $189 $-1 #
edge $-1 $304 -0.6544984694978628337 $268 0.6544984694978720485 $264 $305 forward 7 unknown #
coedge $-1 $234 $255 $222 $267 forward $184 $-1 #
edge $-1 $269 -0.6544984694978720485 $306 0.6544984694978628337 $266 $307 forward 7 unknown #
vertex $-1 $265 $308 #
vertex $-1 $267 $309 #
straight-curve $-1 -25 0 -12.69801903606309956 0 1 0 I I #
ellipse-curve $-1 -6 -14 50 -0 -0 -1 -4.242640687119280329 -4.242640687119280329 0 1 I I #
coedge $-1 $229 $228 $310 $311 reversed $230 $-1 #
face $-1 $235 $230 $2 $-1 $312 reversed single #
coedge $-1 $232 $234 $313 $314 forward $184 $-1 #
coedge $-1 $315 $310 $232 $276 forward $288 $-1 #
edge $-1 $277 -50 $316 50 $232 $317 forward 7 unknown #
vertex $-1 $276 $318 #
straight-curve $-1 -50 50 0 0 0 -1 I I #
coedge $-1 $301 $299 $234 $280 reversed $259 $-1 #
edge $-1 $306 -32.83094902640761603 $319 42.51278354041178176 $234 $320 forward 7 unknown #
plane-surface $-1 0 50 0 0 -1 0 0 0 -1 forward_v I I I I #
coedge $-1 $303 $237 $321 $322 reversed $189 $-1 #
coedge $-1 $310 $315 $237 $284 forward $288 $-1 #
edge $-1 $323 -50 $285 50 $237 $324 forward 7 unknown #
vertex $-1 $311 $325 #
straight-curve $-1 -50 -50 0 0 0 -1 I I #
plane-surface $-1 0 -50 0 0 1 -0 -0 0 1 forward_v I I I I #
loop $-1 $-1 $315 $243 #
plane-surface $-1 0 0 -50 0 0 1 1 0 0 forward_v I I I I #
point $-1 -12 -14 50 #
coedge $-1 $250 $249 $300 $326 reversed $218 $-1 #
edge $-1 $268 -12.69801903606309956 $293 12 $252 $327 forward 7 unknown #
vertex $-1 $292 $328 #
ellipse-curve $-1 -22 -50 12 0 1 -0 -2.121320343559640165 0 2.121320343559640165 1 I I #
edge $-1 $296 -12 $269 12.69801903606309956 $255 $329 forward 7 unknown #
vertex $-1 $295 $330 #
ellipse-curve $-1 -22 50 12 0 -1 0 -2.121320343559640165 0 2.121320343559640165 1 I I #
loop $-1 $-1 $331 $258 #
coedge $-1 $279 $332 $331 $333 reversed $259 $-1 #
coedge $-1 $262 $261 $291 $326 forward $170 $-1 #
coedge $-1 $332 $279 $263 $302 forward $259 $-1 #
edge $-1 $306 -50 $304 50 $301 $334 forward 7 unknown #
coedge $-1 $264 $282 $332 $335 forward $189 $-1 #
vertex $-1 $265 $336 #
ellipse-curve $-1 -22 -50 -12.69801903606309956 0 1 -0 -2.380060020873710158 0 -1.826284287026159969 1 I I #
vertex $-1 $267 $337 #
ellipse-curve $-1 -22 50 -12.69801903606309956 0 -1 0 -2.380060020873710158 0 -1.826284287026159969 1 I I #
point $-1 -25 -50 -12.69801903606309956 #
point $-1 -25 50 -12.69801903606309956 #
coedge $-1 $275 $283 $272 $311 forward $288 $-1 #
edge $-1 $285 -50 $277 50 $272 $338 forward 7 unknown #
plane-surface $-1 -50 0 0 1 0 0 0 0 -1 forward_v I I I I #
coedge $-1 $331 $339 $274 $314 reversed $298 $-1 #
edge $-1 $319 35.09618943233419941 $316 50 $313 $242 forward 7 unknown #
coedge $-1 $283 $275 $339 $340 forward $288 $-1 #
vertex $-1 $340 $341 #
straight-curve $-1 0 50 -50 1 0 0 I I #
point $-1 -50 50 -50 #
vertex $-1 $333 $342 #
straight-curve $-1 8.935804430879439764 50 -24.09307139175470169 0.9659258262890679791 0 -0.258819045102521017 I I #
coedge $-1 $339 $331 $282 $322 forward $298 $-1 #
edge $-1 $343 35.09618943233419941 $323 50 $321 $241 forward 7 unknown #
vertex $-1 $322 $344 #
straight-curve $-1 0 -50 -50 -1 0 0 I I #
point $-1 -50 -50 -50 #
edge $-1 $296 -50 $293 50 $300 $345 forward 7 unknown #
straight-curve $-1 -25 -50 0 -0 0 1 I I #
point $-1 -25 -50 12 #
straight-curve $-1 -25 50 0 0 0 -1 I I #
point $-1 -25 50 12 #
coedge $-1 $321 $313 $299 $333 forward $298 $-1 #
coedge $-1 $299 $301 $303 $335 reversed $259 $-1 #
edge $-1 $319 -50 $343 50 $331 $346 forward 7 unknown #
straight-curve $-1 -22.77645713530759863 0 -15.59579651493029928 -0 -1 -0 I I #
edge $-1 $343 -42.51278354041178176 $304 32.83094902640761603 $303 $347 forward 7 unknown #
point $-1 -22.77645713530759863 -50 -15.59579651493029928 #
point $-1 -22.77645713530759863 50 -15.59579651493029928 #
straight-curve $-1 -50 0 -50 0 1 0 I I #
coedge $-1 $313 $321 $315 $340 reversed $298 $-1 #
edge $-1 $316 -50 $323 50 $339 $348 forward 7 unknown #
point $-1 50 50 -50 #
point $-1 50 50 -35.09618943233419941 #
vertex $-1 $333 $349 #
point $-1 50 -50 -50 #
straight-curve $-1 -25 0 12 0 -1 0 I I #
straight-curve $-1 50 0 -35.09618943233429889 0 -1 0 I I #
straight-curve $-1 8.935804430879439764 -50 -24.09307139175470169 -0.9659258262890679791 0 0.258819045102521017 I I #
straight-curve $-1 50 0 -50 0 -1 0 I I #
point $-1 50 -50 -35.09618943233419941 #
End-of-ACIS-data 