105 350 1 0                             
body $-1 $1 $-1 $-1 #
lump $-1 $-1 $2 $0 #
shell $-1 $-1 $-1 $3 $1 #
face $-1 $4 $5 $2 $-1 $6 reversed single #
face $-1 $7 $8 $2 $-1 $9 forward single #
loop $-1 $-1 $10 $3 #
cone-surface $-1 29 14 47.5 0 0 -1 4.24264068711928 4.24264068711928 0 1 0 1 0 #
face $-1 $11 $12 $2 $-1 $13 reversed single #
loop $-1 $-1 $14 $4 #
plane-surface $-1 35 -5 47.5 -1 0 0 0 0 1.5 0 #
coedge $-1 $15 $16 $17 $18 1 $5 $-1 #
face $-1 $19 $20 $2 $-1 $21 forward single #
loop $-1 $-1 $22 $7 #
cone-surface $-1 29 -14 47.5 0 0 -1 4.24264068711928 -4.24264068711928 0 1 0 1 0 #
coedge $-1 $23 $24 $25 $26 1 $8 $-1 #
coedge $-1 $27 $10 $24 $28 1 $5 $-1 #
coedge $-1 $10 $27 $29 $30 1 $5 $-1 #
coedge $-1 $31 $25 $10 $18 0 $32 $-1 #
edge $-1 $33 $34 $17 $35 0 #
face $-1 $36 $37 $2 $-1 $38 forward single #
loop $-1 $-1 $39 $11 #
plane-surface $-1 15 20 47.5 0 -1 0 0 0 -1.5 0 #
coedge $-1 $40 $41 $42 $43 1 $12 $-1 #
coedge $-1 $44 $14 $41 $45 0 $8 $-1 #
coedge $-1 $14 $44 $15 $28 0 $8 $-1 #
coedge $-1 $17 $42 $14 $26 0 $32 $-1 #
edge $-1 $46 $33 $25 $47 0 #
coedge $-1 $16 $15 $48 $49 1 $5 $-1 #
edge $-1 $50 $33 $24 $51 0 #
coedge $-1 $39 $52 $16 $30 0 $20 $-1 #
edge $-1 $34 $53 $29 $54 0 #
coedge $-1 $55 $17 $52 $56 0 $32 $-1 #
loop $-1 $57 $31 $58 #
vertex $-1 $18 $59 #
vertex $-1 $56 $60 #
ellipse-curve $-1 29 14 15 0 0 1 4.24264068711928 4.24264068711928 0 1 #
face $-1 $61 $62 $2 $-1 $63 forward single #
loop $-1 $64 $65 $19 #
plane-surface $-1 0 0 50 0 0 1 1 0 0 0 #
coedge $-1 $66 $29 $67 $68 1 $20 $-1 #
coedge $-1 $69 $22 $70 $71 1 $12 $-1 #
coedge $-1 $22 $69 $23 $45 1 $12 $-1 #
coedge $-1 $25 $72 $22 $43 0 $32 $-1 #
edge $-1 $73 $46 $42 $74 0 #
coedge $-1 $24 $23 $75 $76 1 $8 $-1 #
edge $-1 $46 $77 $23 $78 0 #
vertex $-1 $26 $79 #
straight-curve $-1 35 -2.5 15 0 1 -0 #
coedge $-1 $75 $67 $27 $49 0 $64 $-1 #
edge $-1 $53 $50 $48 $80 0 #
vertex $-1 $49 $81 #
straight-curve $-1 35 14 47.5 0 0 -1.5 #
coedge $-1 $29 $66 $31 $56 1 $20 $-1 #
vertex $-1 $68 $82 #
straight-curve $-1 29 20 47.5 0 0 1.5 #
coedge $-1 $83 $31 $84 $85 0 $32 $-1 #
edge $-1 $34 $86 $31 $87 0 #
loop $-1 $-1 $88 $58 #
face $-1 $89 $32 $2 $-1 $90 reversed single #
point $-1 35 14 15 #
point $-1 29 20 15 #
face $-1 $91 $92 $2 $-1 $93 reversed single #
loop $-1 $-1 $94 $36 #
plane-surface $-1 15 -20 47.5 0 1 0 0 0 1.5 0 #
loop $-1 $-1 $67 $19 #
coedge $-1 $95 $96 $97 $98 0 $37 $-1 #
coedge $-1 $52 $39 $99 $100 0 $20 $-1 #
coedge $-1 $48 $101 $39 $68 0 $64 $-1 #
edge $-1 $102 $53 $67 $103 0 #
coedge $-1 $41 $40 $104 $105 1 $12 $-1 #
coedge $-1 $106 $94 $40 $71 0 $62 $-1 #
edge $-1 $107 $73 $70 $108 0 #
coedge $-1 $42 $109 $106 $110 0 $32 $-1 #
vertex $-1 $110 $111 #
ellipse-curve $-1 29 -14 15 0 0 1 4.24264068711928 -4.24264068711928 0 1 #
coedge $-1 $104 $48 $44 $76 0 $64 $-1 #
edge $-1 $50 $77 $75 $112 0 #
vertex $-1 $76 $113 #
straight-curve $-1 35 -14 47.5 0 0 1.5 #
point $-1 35 -14 15 #
ellipse-curve $-1 29 14 50 -0 -0 -1 4.24264068711928 4.24264068711928 0 1 #
point $-1 35 14 50 #
point $-1 29 20 50 #
coedge $-1 $109 $55 $114 $115 0 $32 $-1 #
coedge $-1 $99 $116 $55 $85 1 $92 $-1 #
edge $-1 $86 $117 $55 $118 0 #
vertex $-1 $85 $119 #
straight-curve $-1 17.5 20 15 -1 0 0 #
coedge $-1 $120 $121 $122 $123 1 $57 $-1 #
face $-1 $124 $125 $2 $-1 $126 reversed single #
plane-surface $-1 25 0 15 0 0 1 1 0 0 0 #
face $-1 $127 $128 $2 $-1 $129 forward single #
loop $-1 $-1 $84 $61 #
cone-surface $-1 -6 14 47.5 0 0 -1 -4.24264068711928 4.24264068711928 0 1 0 1 0 #
coedge $-1 $70 $130 $131 $132 1 $62 $-1 #
coedge $-1 $133 $65 $134 $135 0 $37 $-1 #
coedge $-1 $65 $133 $136 $137 0 $37 $-1 #
coedge $-1 $138 $139 $65 $98 1 $140 $-1 #
edge $-1 $141 $142 $97 $143 0 #
coedge $-1 $144 $84 $66 $100 1 $92 $-1 #
edge $-1 $102 $86 $66 $145 0 #
coedge $-1 $67 $146 $144 $147 0 $64 $-1 #
vertex $-1 $147 $148 #
straight-curve $-1 5 20 50 1 0 -0 #
coedge $-1 $131 $75 $69 $105 0 $64 $-1 #
edge $-1 $77 $107 $104 $149 0 #
coedge $-1 $130 $70 $72 $110 1 $62 $-1 #
vertex $-1 $132 $150 #
straight-curve $-1 29 -20 47.5 0 0 -1.5 #
coedge $-1 $72 $83 $151 $152 0 $32 $-1 #
edge $-1 $153 $73 $72 $154 0 #
point $-1 29 -20 15 #
straight-curve $-1 35 -2.5 50 0 -1 0 #
point $-1 35 -14 50 #
coedge $-1 $155 $156 $83 $115 1 $128 $-1 #
edge $-1 $117 $157 $83 $158 0 #
coedge $-1 $84 $144 $155 $159 1 $92 $-1 #
vertex $-1 $85 $160 #
ellipse-curve $-1 -6 14 15 0 0 1 -4.24264068711928 4.24264068711928 0 1 #
point $-1 -6 20 15 #
coedge $-1 $161 $88 $162 $163 1 $57 $-1 #
coedge $-1 $88 $161 $164 $165 1 $57 $-1 #
coedge $-1 $139 $138 $88 $123 0 $140 $-1 #
edge $-1 $166 $167 $122 $168 0 #
face $-1 $169 $170 $2 $-1 $171 forward single #
loop $-1 $-1 $172 $89 #
cone-surface $-1 -22 0 -12.6980190360631 0 -1 0 -2.38006002087371 0 -1.82628428702616 1 0 1 0 #
face $-1 $58 $173 $2 $-1 $174 reversed single #
loop $-1 $-1 $114 $91 #
plane-surface $-1 -12 -5 47.5 1 0 0 0 0 -1.5 0 #
coedge $-1 $94 $106 $175 $176 0 $62 $-1 #
coedge $-1 $177 $104 $94 $132 0 $64 $-1 #
edge $-1 $107 $178 $131 $179 0 #
coedge $-1 $96 $95 $180 $181 0 $37 $-1 #
coedge $-1 $182 $183 $95 $135 1 $184 $-1 #
edge $-1 $142 $185 $134 $186 0 #
coedge $-1 $187 $188 $96 $137 1 $189 $-1 #
edge $-1 $190 $141 $136 $191 0 #
coedge $-1 $122 $97 $188 $192 0 $140 $-1 #
coedge $-1 $97 $122 $182 $193 1 $140 $-1 #
loop $-1 $-1 $122 $194 #
vertex $-1 $98 $195 #
vertex $-1 $98 $196 #
straight-curve $-1 50 0 50 0 1 0 #
coedge $-1 $116 $99 $101 $147 1 $92 $-1 #
straight-curve $-1 -6 20 47.5 0 0 -1.5 #
coedge $-1 $101 $177 $197 $198 0 $64 $-1 #
edge $-1 $199 $102 $101 $200 0 #
point $-1 -6 20 50 #
ellipse-curve $-1 29 -14 50 -0 -0 -1 4.24264068711928 -4.24264068711928 0 1 #
point $-1 29 -20 50 #
coedge $-1 $201 $175 $109 $152 1 $173 $-1 #
edge $-1 $157 $153 $109 $202 0 #
vertex $-1 $152 $203 #
straight-curve $-1 17.5 -20 15 1 0 0 #
coedge $-1 $197 $114 $116 $159 0 $128 $-1 #
coedge $-1 $114 $197 $201 $204 0 $128 $-1 #
vertex $-1 $115 $205 #
straight-curve $-1 -12 -2.5 15 0 -1 0 #
edge $-1 $117 $199 $155 $206 0 #
point $-1 -12 14 15 #
coedge $-1 $121 $120 $207 $208 0 $57 $-1 #
coedge $-1 $188 $209 $120 $163 0 $189 $-1 #
edge $-1 $210 $166 $162 $211 0 #
coedge $-1 $212 $182 $121 $165 0 $184 $-1 #
edge $-1 $167 $213 $164 $214 0 #
vertex $-1 $192 $215 #
vertex $-1 $193 $216 #
straight-curve $-1 50 0 15 0 1 -0 #
face $-1 $217 $218 $2 $-1 $219 reversed single #
loop $-1 $-1 $220 $124 #
plane-surface $-1 -25 0 0 1 0 0 0 0 -1 0 #
coedge $-1 $221 $222 $220 $223 1 $125 $-1 #
loop $-1 $-1 $151 $127 #
cone-surface $-1 -6 -14 47.5 -0 -0 -1 -4.24264068711928 -4.24264068711928 0 1 0 1 0 #
coedge $-1 $151 $224 $130 $176 1 $173 $-1 #
edge $-1 $153 $178 $130 $225 0 #
coedge $-1 $146 $131 $224 $226 0 $64 $-1 #
vertex $-1 $226 $227 #
straight-curve $-1 5 -20 50 -1 0 0 #
coedge $-1 $228 $229 $133 $181 1 $230 $-1 #
edge $-1 $185 $190 $180 $231 0 #
coedge $-1 $164 $134 $139 $193 0 $184 $-1 #
coedge $-1 $134 $232 $228 $233 1 $184 $-1 #
loop $-1 $-1 $234 $235 #
vertex $-1 $135 $236 #
straight-curve $-1 0 50 50 -1 0 0 #
coedge $-1 $237 $136 $229 $238 0 $189 $-1 #
coedge $-1 $136 $162 $138 $192 1 $189 $-1 #
loop $-1 $-1 $162 $239 #
vertex $-1 $181 $240 #
straight-curve $-1 0 -50 50 1 0 0 #
edge $-1 $141 $166 $138 $241 0 #
edge $-1 $142 $167 $139 $242 0 #
face $-1 $243 $140 $2 $-1 $244 reversed single #
point $-1 50 -50 50 #
point $-1 50 50 50 #
coedge $-1 $156 $155 $146 $198 1 $128 $-1 #
edge $-1 $245 $199 $146 $246 0 #
vertex $-1 $147 $247 #
ellipse-curve $-1 -6 14 50 -0 -0 -1 -4.24264068711928 4.24264068711928 0 1 #
coedge $-1 $224 $151 $156 $204 1 $173 $-1 #
ellipse-curve $-1 -6 -14 15 0 0 1 -4.24264068711928 -4.24264068711928 0 1 #
point $-1 -6 -20 15 #
edge $-1 $245 $157 $156 $248 0 #
point $-1 -12 -14 15 #
straight-curve $-1 -12 14 47.5 0 0 1.5 #
coedge $-1 $249 $250 $161 $208 1 $218 $-1 #
edge $-1 $210 $213 $161 $251 0 #
coedge $-1 $162 $252 $249 $253 0 $189 $-1 #
vertex $-1 $253 $254 #
straight-curve $-1 12.5 -50 15 1 -0 0 #
coedge $-1 $255 $164 $250 $256 0 $184 $-1 #
vertex $-1 $256 $257 #
straight-curve $-1 12.5 50 15 -1 0 0 #
point $-1 50 -50 15 #
point $-1 50 50 15 #
face $-1 $258 $259 $2 $-1 $260 forward single #
loop $-1 $-1 $207 $169 #
cone-surface $-1 -22 0 12 0 -1 0 -2.12132034355964 0 2.12132034355964 1 0 1 0 #
coedge $-1 $261 $262 $172 $223 0 $170 $-1 #
coedge $-1 $263 $172 $264 $265 1 $125 $-1 #
coedge $-1 $172 $263 $266 $267 1 $125 $-1 #
edge $-1 $268 $269 $220 $270 0 #
coedge $-1 $175 $201 $177 $226 1 $173 $-1 #
straight-curve $-1 -6 -20 47.5 0 0 1.5 #
edge $-1 $178 $245 $177 $271 0 #
point $-1 -6 -20 50 #
coedge $-1 $272 $180 $183 $233 0 $230 $-1 #
coedge $-1 $180 $272 $187 $238 1 $230 $-1 #
loop $-1 $-1 $228 $273 #
straight-curve $-1 -50 0 50 0 -1 0 #
coedge $-1 $183 $274 $275 $276 1 $184 $-1 #
edge $-1 $185 $277 $183 $278 0 #
coedge $-1 $274 $266 $279 $280 0 $184 $-1 #
face $-1 $-1 $184 $2 $-1 $281 reversed single #
point $-1 -50 50 50 #
coedge $-1 $282 $187 $283 $284 1 $189 $-1 #
edge $-1 $190 $285 $229 $286 0 #
face $-1 $273 $189 $2 $-1 $287 reversed single #
point $-1 -50 -50 50 #
straight-curve $-1 50 -50 0 0 0 -1 #
straight-curve $-1 50 50 0 0 0 -1 #
face $-1 $239 $288 $2 $-1 $289 reversed single #
plane-surface $-1 50 0 0 -1 0 0 0 -0 1 0 #
vertex $-1 $198 $290 #
straight-curve $-1 -12 -2.5 50 0 1 0 #
point $-1 -12 14 50 #
straight-curve $-1 -12 -14 47.5 0 0 -1.5 #
coedge $-1 $291 $207 $209 $253 1 $218 $-1 #
coedge $-1 $207 $291 $212 $256 1 $218 $-1 #
straight-curve $-1 -22 0 15 0 1 0 #
coedge $-1 $209 $264 $262 $292 0 $189 $-1 #
edge $-1 $293 $210 $209 $294 0 #
point $-1 -22 -50 15 #
coedge $-1 $266 $212 $261 $295 0 $184 $-1 #
edge $-1 $213 $296 $212 $297 0 #
point $-1 -22 50 15 #
face $-1 $194 $298 $2 $-1 $244 reversed single #
loop $-1 $-1 $299 $217 #
plane-surface $-1 23.2962913144534 0 -27.9409522551261 0.258819045102521 0 0.965925826289068 0.965925826289068 0 -0.258819045102521 0 #
coedge $-1 $300 $220 $255 $295 1 $170 $-1 #
coedge $-1 $220 $300 $252 $292 1 $170 $-1 #
coedge $-1 $222 $221 $301 $302 1 $125 $-1 #
coedge $-1 $252 $303 $221 $265 0 $189 $-1 #
edge $-1 $304 $268 $264 $305 0 #
coedge $-1 $234 $255 $222 $267 0 $184 $-1 #
edge $-1 $269 $306 $266 $307 0 #
vertex $-1 $265 $308 #
vertex $-1 $267 $309 #
straight-curve $-1 -25 0 -12.6980190360631 0 1 0 #
ellipse-curve $-1 -6 -14 50 -0 -0 -1 -4.24264068711928 -4.24264068711928 0 1 #
coedge $-1 $229 $228 $310 $311 1 $230 $-1 #
face $-1 $235 $230 $2 $-1 $312 reversed single #
coedge $-1 $232 $234 $313 $314 0 $184 $-1 #
coedge $-1 $315 $310 $232 $276 0 $288 $-1 #
edge $-1 $277 $316 $232 $317 0 #
vertex $-1 $276 $318 #
straight-curve $-1 -50 50 0 0 0 -1 #
coedge $-1 $301 $299 $234 $280 1 $259 $-1 #
edge $-1 $306 $319 $234 $320 0 #
plane-surface $-1 0 50 0 0 -1 0 0 0 -1 0 #
coedge $-1 $303 $237 $321 $322 1 $189 $-1 #
coedge $-1 $310 $315 $237 $284 0 $288 $-1 #
edge $-1 $323 $285 $237 $324 0 #
vertex $-1 $311 $325 #
straight-curve $-1 -50 -50 0 0 0 -1 #
plane-surface $-1 0 -50 0 0 1 -0 -0 0 1 0 #
loop $-1 $-1 $315 $243 #
plane-surface $-1 0 0 -50 0 0 1 1 0 0 0 #
point $-1 -12 -14 50 #
coedge $-1 $250 $249 $300 $326 1 $218 $-1 #
edge $-1 $268 $293 $252 $327 0 #
vertex $-1 $292 $328 #
ellipse-curve $-1 -22 -50 12 0 1 -0 -2.12132034355964 0 2.12132034355964 1 #
edge $-1 $296 $269 $255 $329 0 #
vertex $-1 $295 $330 #
ellipse-curve $-1 -22 50 12 0 -1 0 -2.12132034355964 0 2.12132034355964 1 #
loop $-1 $-1 $331 $258 #
coedge $-1 $279 $332 $331 $333 1 $259 $-1 #
coedge $-1 $262 $261 $291 $326 0 $170 $-1 #
coedge $-1 $332 $279 $263 $302 0 $259 $-1 #
edge $-1 $306 $304 $301 $334 0 #
coedge $-1 $264 $282 $332 $335 0 $189 $-1 #
vertex $-1 $265 $336 #
ellipse-curve $-1 -22 -50 -12.6980190360631 0 1 -0 -2.38006002087371 0 -1.82628428702616 1 #
vertex $-1 $267 $337 #
ellipse-curve $-1 -22 50 -12.6980190360631 0 -1 0 -2.38006002087371 0 -1.82628428702616 1 #
point $-1 -25 -50 -12.6980190360631 #
point $-1 -25 50 -12.6980190360631 #
coedge $-1 $275 $283 $272 $311 0 $288 $-1 #
edge $-1 $285 $277 $272 $338 0 #
plane-surface $-1 -50 0 0 1 0 0 0 0 -1 0 #
coedge $-1 $331 $339 $274 $314 1 $298 $-1 #
edge $-1 $319 $316 $313 $242 0 #
coedge $-1 $283 $275 $339 $340 0 $288 $-1 #
vertex $-1 $340 $341 #
straight-curve $-1 0 50 -50 1 0 0 #
point $-1 -50 50 -50 #
vertex $-1 $333 $342 #
straight-curve $-1 8.93580443087944 50 -24.0930713917547 0.965925826289068 0 -0.258819045102521 #
coedge $-1 $339 $331 $282 $322 0 $298 $-1 #
edge $-1 $343 $323 $321 $241 0 #
vertex $-1 $322 $344 #
straight-curve $-1 0 -50 -50 -1 0 0 #
point $-1 -50 -50 -50 #
edge $-1 $296 $293 $300 $345 0 #
straight-curve $-1 -25 -50 0 -0 0 1 #
point $-1 -25 -50 12 #
straight-curve $-1 -25 50 0 0 0 -1 #
point $-1 -25 50 12 #
coedge $-1 $321 $313 $299 $333 0 $298 $-1 #
coedge $-1 $299 $301 $303 $335 1 $259 $-1 #
edge $-1 $319 $343 $331 $346 0 #
straight-curve $-1 -22.7764571353076 0 -15.5957965149303 -0 -1 -0 #
edge $-1 $343 $304 $303 $347 0 #
point $-1 -22.7764571353076 -50 -15.5957965149303 #
point $-1 -22.7764571353076 50 -15.5957965149303 #
straight-curve $-1 -50 0 -50 0 1 0 #
coedge $-1 $313 $321 $315 $340 1 $298 $-1 #
edge $-1 $316 $323 $339 $348 0 #
point $-1 50 50 -50 #
point $-1 50 50 -35.0961894323342 #
vertex $-1 $333 $349 #
point $-1 50 -50 -50 #
straight-curve $-1 -25 0 12 0 -1 0 #
straight-curve $-1 50 0 -35.0961894323343 0 -1 0 #
straight-curve $-1 8.93580443087944 -50 -24.0930713917547 -0.965925826289068 0 0.258819045102521 #
straight-curve $-1 50 0 -50 0 -1 0 #
point $-1 50 -50 -35.0961894323342 #
