600 0 2 0           
24 FBMach with ACIS - 6.0.3 13 ACIS 6.0.3 NT 24 Wed May 23 21:59:11 2001 
1 9.9999999999999995e-007 1e-010 
body $2 $3 $-1 $4 #
bdycol-kcp $-1 1 4 $5 $6 $7 $8 #
model_id-kcp-attrib $-1 $9 $-1 $0 1 990669550 50 1043464193 1 #
lump $-1 $-1 $10 $0 #
transform $-1 1 0 0 0 1 0 0 0 1 0 0 0 1 no_rotate no_reflect no_shear #
body $11 $12 $-1 $13 #
body $14 $15 $-1 $16 #
body $17 $18 $-1 $19 #
body $20 $21 $-1 $22 #
brep_non_volatile_id-cdc-attrib $-1 $-1 $2 $0 1 #
shell $-1 $-1 $-1 $23 $-1 $3 #
model_id-kcp-attrib $-1 $-1 $-1 $5 1 990669550 50 1043464194 1 #
lump $-1 $-1 $24 $5 #
transform $-1 1 0 0 0 1 0 0 0 1 80.000000000000099 -2.042810365310288e-014 4 1 no_rotate no_reflect no_shear #
rgb_color-st-attrib $-1 $25 $-1 $6 1 1 0.5 #
lump $-1 $-1 $26 $6 #
transform $-1 1 0 0 0 1 -6.1232329394299172e-017 0 6.1232329394299172e-017 1 80.000000000000099 -1.7889908946555649e-014 43.5 1 rotate no_reflect no_shear #
rgb_color-st-attrib $-1 $27 $-1 $7 1 1 0.5 #
lump $-1 $-1 $28 $7 #
transform $-1 1 0 0 0 -1 6.1232329394299172e-017 0 -6.1232329394299172e-017 -1 80.000000000000099 -2.2727262968710749e-014 -35.5 1 rotate no_reflect no_shear #
rgb_color-st-attrib $-1 $29 $-1 $8 0.5 1 1 #
lump $-1 $-1 $30 $8 #
transform $-1 1 0 0 0 1 0 0 0 1 80.000000000000099 -2.042810365310288e-014 4 1 no_rotate no_reflect no_shear #
face $31 $32 $33 $10 $-1 $34 forward single #
shell $-1 $-1 $-1 $35 $-1 $12 #
model_id-kcp-attrib $-1 $-1 $14 $6 1 990669550 70 1044774915 1 #
shell $-1 $-1 $-1 $36 $-1 $15 #
model_id-kcp-attrib $-1 $-1 $17 $7 1 990669550 70 1044774916 1 #
shell $-1 $-1 $-1 $37 $-1 $18 #
model_id-kcp-attrib $-1 $-1 $20 $8 1 990669550 150 1050017797 1 #
shell $-1 $-1 $-1 $38 $-1 $21 #
model_id-kcp-attrib $-1 $39 $-1 $23 1 990669550 50 1043464193 7 #
face $40 $41 $42 $10 $-1 $43 forward single #
loop $44 $-1 $45 $23 #
plane-surface $46 78.000000000000099 -1.78592927818585e-014 44 0 6.1232329394368604e-017 1 0 -1 6.1232329394368604e-017 forward_v I I I I #
face $47 $48 $49 $24 $-1 $50 forward single #
face $-1 $51 $52 $26 $-1 $53 reversed single #
face $-1 $54 $55 $28 $-1 $56 reversed single #
face $-1 $57 $58 $30 $-1 $59 reversed single #
model_id-kcp-attrib $-1 $60 $31 $23 1 990669550 50 1043464193 2 #
model_id-kcp-attrib $-1 $61 $-1 $32 1 990669550 50 1043464193 3 #
face $62 $63 $64 $10 $-1 $65 forward single #
loop $66 $67 $68 $32 #
cone-surface $69 80.000000000000099 -1.7889908946555599e-014 43.5 0 6.1232329394368604e-017 1 -4.5 0 0 1 I I -0.70710678118654802 0.70710678118654702 4.5 forward I I I I #
loop_type-twe-attrib $-1 $-1 $-1 $33 0 #
coedge $-1 $45 $45 $68 $70 forward $33 $-1 #
surf-twe-attrib $-1 $-1 $-1 $34 5 #
model_id-kcp-attrib $-1 $-1 $-1 $35 1 990669550 50 1043464194 2 #
face $71 $72 $73 $24 $-1 $74 reversed single #
loop $-1 $-1 $75 $35 #
plane-surface $-1 0 0 40 0 0 1 1 0 0 forward_v I I I I #
face $-1 $76 $77 $26 $-1 $78 forward single #
loop $-1 $79 $80 $36 #
cone-surface $-1 0 0 2 0 0 1 2.5 0 0 1 I I -0.70710678118654802 0.70710678118654702 2.5 forward I I I I #
face $-1 $81 $82 $28 $-1 $83 forward single #
loop $-1 $84 $85 $37 #
cone-surface $-1 0 0 2 0 0 1 2.5 0 0 1 I I -0.70710678118654802 0.70710678118654702 2.5 forward I I I I #
face $-1 $86 $87 $30 $-1 $59 reversed single #
loop $-1 $-1 $88 $38 #
cone-surface $-1 0 2.5688108712443995e-015 40 0 6.1232329394368604e-017 1 5 6.1230317691118863e-016 -3.7492749817844253e-032 1 I I 0 1 5 forward I I I I #
face_name-twe-attrib $-1 $89 $39 $23 1 #
face_name-twe-attrib $-1 $90 $40 $32 2 #
model_id-kcp-attrib $-1 $91 $-1 $41 1 990669550 50 1043464193 4 #
face $92 $93 $94 $10 $-1 $95 forward single #
loop $96 $97 $98 $41 #
cone-surface $99 80.000000000000099 -2.0308585957633199e-014 4 0 6.1232329394368604e-017 1 -5 0 0 1 I I 0 1 5 forward I I I I #
loop_type-twe-attrib $-1 $-1 $-1 $42 0 #
loop $100 $-1 $101 $32 #
coedge $-1 $68 $68 $45 $70 reversed $42 $-1 #
surf-twe-attrib $-1 $-1 $-1 $43 7 #
edge $102 $103 0 $103 6.2831853071795862 $45 $104 forward 7 unknown #
model_id-kcp-attrib $-1 $-1 $-1 $48 1 990669550 50 1043464194 3 #
face $-1 $105 $106 $24 $-1 $107 reversed single #
loop $-1 $-1 $108 $48 #
plane-surface $-1 0 0 -40 0 0 1 1 0 0 forward_v I I I I #
coedge $-1 $109 $110 $111 $112 forward $49 $-1 #
face $-1 $-1 $113 $26 $-1 $114 forward single #
loop $-1 $115 $116 $51 #
cone-surface $-1 0 0 0 0 0 1 5 0 0 1 I I 0 1 5 forward I I I I #
loop $-1 $-1 $117 $36 #
coedge $-1 $80 $80 $118 $119 reversed $52 $-1 #
face $-1 $-1 $120 $28 $-1 $121 forward single #
loop $-1 $122 $123 $54 #
cone-surface $-1 0 0 0 0 0 1 5 0 0 1 I I 0 1 5 forward I I I I #
loop $-1 $-1 $124 $37 #
coedge $-1 $85 $85 $125 $126 reversed $55 $-1 #
face $-1 $127 $128 $30 $-1 $59 reversed single #
loop $-1 $-1 $129 $57 #
coedge $-1 $130 $131 $132 $133 reversed $58 $-1 #
primitive_order-cdc-attrib $-1 $-1 $60 $23 0 8 #
primitive_order-cdc-attrib $-1 $-1 $61 $32 0 8 #
face_name-twe-attrib $-1 $134 $62 $41 3 #
model_id-kcp-attrib $-1 $135 $-1 $63 1 990669550 50 1043464193 5 #
face $136 $-1 $137 $10 $-1 $138 forward single #
loop $139 $140 $141 $63 #
cone-surface $142 80.000000000000099 -2.27272629687108e-014 -35.5 0 6.1232329394368604e-017 1 -4.5 0 0 1 I I 0.70710678118654802 0.70710678118654702 4.5 forward I I I I #
loop_type-twe-attrib $-1 $-1 $-1 $64 0 #
loop $143 $-1 $144 $41 #
coedge $-1 $98 $98 $101 $145 reversed $64 $-1 #
surf-twe-attrib $-1 $-1 $-1 $65 12 #
loop_type-twe-attrib $-1 $-1 $-1 $67 1 #
coedge $-1 $101 $101 $98 $145 forward $67 $-1 #
attrib_edge_convexity-kcp-attrib $-1 $146 $-1 $70 1 #
vertex $-1 $70 $147 #
ellipse-curve $148 80.000000000000099 -1.78592927818585e-014 44 0 6.1232329394368604e-017 1 -4 0 0 1 I I #
face $-1 $149 $150 $24 $-1 $151 reversed single #
loop $-1 $-1 $152 $72 #
plane-surface $-1 0 -5.0000000000000027 0 0 1 0 0 0 1 forward_v I I I I #
coedge $-1 $153 $154 $155 $156 forward $73 $-1 #
coedge $-1 $157 $75 $158 $159 forward $49 $-1 #
coedge $-1 $75 $157 $160 $161 forward $49 $-1 #
coedge $-1 $162 $163 $75 $112 reversed $164 $-1 #
edge $-1 $165 -5.0000000000000027 $166 5.0000000000000027 $111 $167 forward 7 unknown #
loop $-1 $168 $118 $76 #
plane-surface $-1 0 0 0.5 0 0 1 1 0 0 forward_v I I I I #
loop $-1 $-1 $169 $51 #
coedge $-1 $116 $116 $117 $170 reversed $77 $-1 #
coedge $-1 $117 $117 $116 $170 forward $79 $-1 #
coedge $-1 $118 $118 $80 $119 forward $113 $-1 #
edge $-1 $171 -3.1415926535897931 $171 3.1415926535897931 $118 $172 forward 7 unknown #
loop $-1 $173 $125 $81 #
plane-surface $-1 0 0 0.5 0 0 1 1 0 0 forward_v I I I I #
loop $-1 $-1 $174 $54 #
coedge $-1 $123 $123 $124 $175 reversed $82 $-1 #
coedge $-1 $124 $124 $123 $175 forward $84 $-1 #
coedge $-1 $125 $125 $85 $126 forward $120 $-1 #
edge $-1 $176 -3.1415926535897931 $176 3.1415926535897931 $125 $177 forward 7 unknown #
face $-1 $178 $179 $30 $-1 $59 reversed single #
loop $-1 $-1 $180 $86 #
coedge $-1 $181 $182 $183 $184 reversed $87 $-1 #
coedge $-1 $185 $88 $186 $187 reversed $58 $-1 #
coedge $-1 $88 $185 $188 $189 reversed $58 $-1 #
coedge $-1 $190 $191 $192 $133 forward $193 $-1 #
edge $-1 $194 -80 $195 0 $132 $196 forward 7 unknown #
primitive_order-cdc-attrib $-1 $-1 $91 $41 0 8 #
face_name-twe-attrib $-1 $197 $92 $63 4 #
model_id-kcp-attrib $-1 $198 $-1 $93 1 990669550 50 1043464193 8 #
loop $199 $-1 $200 $93 #
plane-surface $201 78.000000000000099 -2.2757879133407899e-014 -36 0 -6.1232329394368604e-017 -1 0 1 -6.1232329394368604e-017 forward_v I I I I #
loop_type-twe-attrib $-1 $-1 $-1 $94 0 #
loop $202 $-1 $203 $63 #
coedge $-1 $141 $141 $144 $204 reversed $94 $-1 #
surf-twe-attrib $-1 $-1 $-1 $95 20 #
loop_type-twe-attrib $-1 $-1 $-1 $97 1 #
coedge $-1 $144 $144 $141 $204 forward $97 $-1 #
edge $205 $206 0 $206 6.2831853071795862 $101 $207 forward 7 unknown #
convexity-sys-attrib $-1 $208 $102 $70 #
point $-1 76.000000000000099 -1.78592927818585e-014 44 #
cur-twe-attrib $-1 $-1 $-1 $104 27 #
face $-1 $209 $210 $24 $-1 $211 reversed single #
loop $-1 $-1 $212 $105 #
plane-surface $-1 -5 0 0 1 0 0 0 0 -1 forward_v I I I I #
coedge $-1 $213 $160 $214 $215 forward $106 $-1 #
coedge $-1 $216 $108 $213 $217 forward $73 $-1 #
coedge $-1 $108 $216 $218 $219 forward $73 $-1 #
coedge $-1 $163 $162 $108 $156 reversed $164 $-1 #
edge $-1 $220 -5.0000000000000027 $221 5.0000000000000027 $155 $222 forward 7 unknown #
coedge $-1 $110 $109 $223 $224 forward $49 $-1 #
coedge $-1 $225 $226 $109 $159 reversed $210 $-1 #
edge $-1 $166 -5 $227 5 $158 $228 forward 7 unknown #
coedge $-1 $152 $229 $110 $161 reversed $106 $-1 #
edge $-1 $230 -5 $165 5 $160 $231 forward 7 unknown #
coedge $-1 $155 $111 $229 $232 forward $164 $-1 #
coedge $-1 $111 $155 $225 $233 reversed $164 $-1 #
loop $-1 $-1 $162 $209 #
vertex $-1 $112 $234 #
vertex $-1 $112 $235 #
straight-curve $-1 5 0 40 0 1 0 I I #
loop $-1 $-1 $236 $76 #
coedge $-1 $169 $169 $236 $237 reversed $115 $-1 #
edge $-1 $238 0 $238 6.2831853071795862 $116 $239 forward 7 unknown #
vertex $-1 $119 $240 #
ellipse-curve $-1 0 0 0.5 0 0 -1 4.0000000000000018 0 0 1 I I #
loop $-1 $-1 $241 $81 #
coedge $-1 $174 $174 $241 $242 reversed $122 $-1 #
edge $-1 $243 0 $243 6.2831853071795862 $123 $244 forward 7 unknown #
vertex $-1 $126 $245 #
ellipse-curve $-1 0 0 0.5 0 0 -1 4.0000000000000018 0 0 1 I I #
face $-1 $246 $247 $30 $-1 $248 reversed single #
loop $-1 $-1 $249 $127 #
coedge $-1 $250 $251 $252 $253 reversed $128 $-1 #
coedge $-1 $254 $129 $255 $256 reversed $87 $-1 #
coedge $-1 $129 $254 $88 $133 forward $87 $-1 #
coedge $-1 $257 $258 $129 $184 forward $259 $-1 #
edge $-1 $260 -3.1415926535897931 $195 -1.5707963267948966 $183 $261 forward 7 unknown #
coedge $-1 $131 $130 $251 $262 forward $58 $-1 #
coedge $-1 $263 $264 $130 $187 forward $265 $-1 #
edge $-1 $266 -1.2246063538223773e-016 $194 1.5707963267948966 $186 $267 forward 7 unknown #
coedge $-1 $268 $269 $131 $189 forward $270 $-1 #
edge $-1 $195 -1.5707963267948966 $271 1.2246063538223773e-016 $188 $261 forward 7 unknown #
coedge $-1 $272 $132 $269 $273 reversed $193 $-1 #
coedge $-1 $132 $272 $263 $274 reversed $193 $-1 #
coedge $-1 $275 $276 $182 $133 reversed $277 $-1 #
loop $-1 $-1 $132 $278 #
vertex $-1 $274 $279 #
vertex $-1 $280 $281 #
straight-curve $-1 0 5.0000000000000027 40 0 6.1232329394368604e-017 1 I I #
primitive_order-cdc-attrib $-1 $-1 $135 $63 0 8 #
model_id-kcp-attrib $-1 $282 $136 $93 1 990669550 50 1043464193 6 #
loop_type-twe-attrib $-1 $-1 $-1 $137 0 #
coedge $-1 $200 $200 $203 $283 reversed $137 $-1 #
surf-twe-attrib $-1 $-1 $-1 $138 30 #
loop_type-twe-attrib $-1 $-1 $-1 $140 1 #
coedge $-1 $203 $203 $200 $283 forward $140 $-1 #
edge $284 $285 0 $285 6.2831853071795862 $144 $286 forward 7 unknown #
attrib_edge_convexity-kcp-attrib $-1 $287 $-1 $145 1 #
vertex $-1 $145 $288 #
ellipse-curve $289 80.000000000000099 -1.7920525111252799e-014 43 0 6.1232329394368604e-017 1 -5 0 0 1 I I #
edge_name-twe-attrib $-1 $-1 $146 $70 1 8448 #
face $-1 $-1 $164 $24 $-1 $290 reversed single #
loop $-1 $-1 $225 $149 #
plane-surface $-1 0 5.0000000000000027 0 0 -1 0 0 0 -1 forward_v I I I I #
coedge $-1 $291 $223 $226 $292 forward $150 $-1 #
coedge $-1 $229 $152 $153 $217 reversed $106 $-1 #
coedge $-1 $223 $291 $152 $215 reversed $150 $-1 #
edge $-1 $230 -40 $293 40 $214 $294 forward 7 unknown #
coedge $-1 $154 $153 $291 $295 forward $73 $-1 #
edge $-1 $221 -5 $293 5 $213 $296 forward 7 unknown #
coedge $-1 $226 $225 $154 $219 reversed $210 $-1 #
edge $-1 $297 -5 $220 5 $218 $298 forward 7 unknown #
vertex $-1 $156 $299 #
vertex $-1 $232 $300 #
straight-curve $-1 5 0 -40 0 -1 0 I I #
coedge $-1 $212 $214 $157 $224 reversed $150 $-1 #
edge $-1 $227 -5.0000000000000027 $230 5.0000000000000027 $223 $301 forward 7 unknown #
coedge $-1 $218 $158 $163 $233 forward $210 $-1 #
coedge $-1 $158 $218 $212 $292 reversed $210 $-1 #
vertex $-1 $159 $302 #
straight-curve $-1 0 5.0000000000000027 40 -1 0 0 I I #
coedge $-1 $160 $213 $162 $232 reversed $106 $-1 #
vertex $-1 $224 $303 #
straight-curve $-1 0 -5.0000000000000027 40 1 0 0 I I #
edge $-1 $165 -40 $221 40 $162 $304 forward 7 unknown #
edge $-1 $166 -40 $220 40 $163 $305 forward 7 unknown #
point $-1 5 -5.0000000000000027 40 #
point $-1 5 5.0000000000000027 40 #
coedge $-1 $236 $236 $169 $237 forward $168 $-1 #
edge $-1 $306 0 $306 6.2831853071795862 $236 $307 forward 7 unknown #
vertex $-1 $170 $308 #
ellipse-curve $-1 0 0 -0.5 0 0 -1 5 0 0 1 I I #
point $-1 -4.0000000000000018 4.898425415289511e-016 0.5 #
coedge $-1 $241 $241 $174 $242 forward $173 $-1 #
edge $-1 $309 0 $309 6.2831853071795862 $241 $310 forward 7 unknown #
vertex $-1 $175 $311 #
ellipse-curve $-1 0 0 -0.5 0 0 -1 5 0 0 1 I I #
point $-1 -4.0000000000000018 4.898425415289511e-016 0.5 #
face $-1 $312 $277 $30 $-1 $313 reversed single #
loop $-1 $-1 $314 $178 #
plane-surface $-1 5 0 0 -1 0 0 0 0 1 forward_v I I I I #
coedge $-1 $315 $316 $317 $318 reversed $179 $-1 #
coedge $-1 $319 $180 $316 $320 forward $128 $-1 #
coedge $-1 $180 $319 $321 $262 reversed $128 $-1 #
coedge $-1 $322 $323 $180 $253 forward $324 $-1 #
edge $-1 $325 -1.5707963267948968 $266 -1.2246063538223773e-016 $252 $267 forward 7 unknown #
coedge $-1 $182 $181 $326 $327 reversed $87 $-1 #
coedge $-1 $328 $329 $330 $256 forward $331 $-1 #
edge $-1 $332 -80 $260 0 $255 $333 forward 7 unknown #
coedge $-1 $258 $183 $276 $280 forward $259 $-1 #
coedge $-1 $183 $257 $328 $334 forward $259 $-1 #
loop $-1 $-1 $183 $335 #
vertex $-1 $336 $337 #
ellipse-curve $-1 0 2.5688108712443995e-015 40 0 0 -1 5 6.1230317691118863e-016 -3.7492749817844253e-032 1 I I #
edge $-1 $266 -80 $271 0 $321 $338 forward 7 unknown #
coedge $-1 $264 $186 $191 $274 forward $265 $-1 #
coedge $-1 $186 $263 $339 $340 forward $265 $-1 #
loop $-1 $-1 $186 $341 #
vertex $-1 $342 $343 #
ellipse-curve $-1 0 -2.3297754803050886e-015 -40 0 0 1 5 6.1230317691118863e-016 -3.7492749817844253e-032 1 I I #
coedge $-1 $269 $188 $344 $345 forward $270 $-1 #
coedge $-1 $188 $268 $190 $273 forward $270 $-1 #
loop $-1 $-1 $188 $346 #
vertex $-1 $345 $347 #
coedge $-1 $191 $190 $348 $349 forward $193 $-1 #
edge $-1 $350 -5 $195 0 $190 $351 forward 7 unknown #
edge $-1 $194 0 $352 5 $191 $353 forward 7 unknown #
coedge $-1 $354 $192 $355 $356 reversed $277 $-1 #
coedge $-1 $192 $354 $257 $280 reversed $277 $-1 #
loop $-1 $-1 $192 $246 #
face $-1 $357 $193 $30 $-1 $313 reversed single #
point $-1 0 5.0000000000000018 -40 #
edge $-1 $195 0 $358 5 $276 $351 forward 7 unknown #
point $-1 0 5.0000000000000027 40 #
face_name-twe-attrib $-1 $359 $198 $93 5 #
edge $360 $361 0 $361 6.2831853071795862 $203 $362 forward 7 unknown #
attrib_edge_convexity-kcp-attrib $-1 $363 $-1 $204 1 #
vertex $-1 $204 $364 #
ellipse-curve $365 80.000000000000099 -2.26966468040136e-014 -35 0 6.1232329394368604e-017 1 -5 0 0 1 I I #
convexity-sys-attrib $-1 $366 $205 $145 #
point $-1 75.000000000000099 -1.7920525111252799e-014 43 #
cur-twe-attrib $-1 $-1 $-1 $207 52 #
plane-surface $-1 5 0 0 -1 0 0 0 0 1 forward_v I I I I #
coedge $-1 $214 $212 $216 $295 reversed $150 $-1 #
edge $-1 $227 -40 $297 40 $226 $367 forward 7 unknown #
vertex $-1 $295 $368 #
straight-curve $-1 -5 -5.0000000000000027 0 0 0 -1 I I #
edge $-1 $293 -5.0000000000000027 $297 5.0000000000000027 $291 $369 forward 7 unknown #
straight-curve $-1 0 -5.0000000000000027 -40 -1 0 0 I I #
vertex $-1 $219 $370 #
straight-curve $-1 0 5.0000000000000027 -40 1 0 0 I I #
point $-1 5 5.0000000000000027 -40 #
point $-1 5 -5.0000000000000027 -40 #
straight-curve $-1 -5 0 40 0 -1 0 I I #
point $-1 -5 5.0000000000000027 40 #
point $-1 -5 -5.0000000000000027 40 #
straight-curve $-1 5 -5.0000000000000027 0 0 0 -1 I I #
straight-curve $-1 5 5.0000000000000027 0 0 0 -1 I I #
vertex $-1 $237 $371 #
ellipse-curve $-1 0 0 0.5 0 0 1 5 0 0 1 I I #
point $-1 5 0 -0.5 #
vertex $-1 $242 $372 #
ellipse-curve $-1 0 0 0.5 0 0 1 5 0 0 1 I I #
point $-1 5 0 -0.5 #
face $-1 $373 $374 $30 $-1 $375 reversed single #
plane-surface $-1 0 5.0000000000000027 0 0 -1 0 0 0 -1 forward_v I I I I #
coedge $-1 $339 $344 $185 $262 reversed $247 $-1 #
coedge $-1 $376 $249 $181 $256 forward $179 $-1 #
coedge $-1 $249 $376 $377 $320 reversed $179 $-1 #
coedge $-1 $378 $379 $249 $318 forward $380 $-1 #
edge $-1 $332 -3.1415926535897931 $325 -1.5707963267948968 $317 $267 forward 7 unknown #
coedge $-1 $251 $250 $381 $382 reversed $128 $-1 #
edge $-1 $325 -80 $383 0 $377 $384 forward 7 unknown #
coedge $-1 $385 $386 $314 $262 forward $387 $-1 #
coedge $-1 $323 $252 $386 $342 forward $324 $-1 #
coedge $-1 $252 $322 $388 $389 forward $324 $-1 #
loop $-1 $-1 $252 $390 #
vertex $-1 $391 $392 #
coedge $-1 $393 $355 $254 $327 forward $394 $-1 #
edge $-1 $194 1.5707963267948966 $332 3.1415926535897931 $326 $267 forward 7 unknown #
coedge $-1 $395 $255 $258 $334 reversed $331 $-1 #
coedge $-1 $255 $395 $393 $396 reversed $331 $-1 #
coedge $-1 $397 $398 $315 $256 reversed $374 $-1 #
loop $-1 $-1 $255 $399 #
vertex $-1 $396 $400 #
straight-curve $-1 -5 2.5688108712443995e-015 40 0 6.1232329394368604e-017 1 I I #
edge $-1 $358 -5.0000000000000027 $260 -2.5688108712443995e-015 $328 $401 forward 7 unknown #
face $-1 $346 $259 $30 $-1 $402 forward single #
edge $-1 $260 -2.5688108712443995e-015 $403 5.0000000000000027 $398 $401 forward 7 unknown #
point $-1 -5 2.5688108712443995e-015 40 #
straight-curve $-1 5 2.5688108712443995e-015 40 0 6.1232329394368604e-017 1 I I #
coedge $-1 $348 $314 $264 $340 reversed $247 $-1 #
edge $-1 $352 -5.0000000000000027 $266 2.3297754803050886e-015 $339 $404 forward 7 unknown #
face $-1 $405 $265 $30 $-1 $406 reversed single #
edge $-1 $266 2.3297754803050886e-015 $407 5.0000000000000027 $386 $404 forward 7 unknown #
point $-1 5 -2.3297754803050886e-015 -40 #
coedge $-1 $314 $348 $268 $345 reversed $247 $-1 #
edge $-1 $271 2.5688108712443995e-015 $350 5.0000000000000027 $344 $408 forward 7 unknown #
face $-1 $409 $270 $30 $-1 $402 forward single #
point $-1 5 2.5688108712443995e-015 40 #
coedge $-1 $344 $339 $272 $349 reversed $247 $-1 #
edge $-1 $350 -40 $352 40 $348 $410 forward 7 unknown #
vertex $-1 $345 $411 #
straight-curve $-1 0 5.0000000000000027 40 -1 0 0 I I #
vertex $-1 $340 $412 #
straight-curve $-1 0 5.0000000000000027 -40 1 0 0 I I #
coedge $-1 $276 $275 $395 $413 reversed $277 $-1 #
coedge $-1 $326 $393 $275 $356 forward $394 $-1 #
edge $-1 $414 -5 $194 0 $275 $353 forward 7 unknown #
face $-1 $-1 $387 $30 $-1 $248 reversed single #
vertex $-1 $280 $415 #
primitive_order-cdc-attrib $-1 $-1 $282 $93 0 8 #
attrib_edge_convexity-kcp-attrib $-1 $416 $-1 $283 1 #
vertex $-1 $283 $417 #
ellipse-curve $418 80.000000000000099 -2.2757879133407899e-014 -36 0 6.1232329394368604e-017 1 -4 0 0 1 I I #
convexity-sys-attrib $-1 $419 $284 $204 #
point $-1 75.000000000000099 -2.26966468040136e-014 -35 #
cur-twe-attrib $-1 $-1 $-1 $286 61 #
edge_name-twe-attrib $-1 $-1 $287 $145 2 8448 #
straight-curve $-1 -5 5.0000000000000027 0 0 0 -1 I I #
point $-1 -5 -5.0000000000000027 -40 #
straight-curve $-1 -5 0 -40 0 1 0 I I #
point $-1 -5 5.0000000000000027 -40 #
point $-1 5 0 0.5 #
point $-1 5 0 0.5 #
face $-1 $335 $420 $30 $-1 $402 forward single #
loop $-1 $-1 $330 $312 #
plane-surface $-1 -5 0 0 1 0 0 0 0 -1 forward_v I I I I #
coedge $-1 $316 $315 $421 $422 reversed $179 $-1 #
coedge $-1 $423 $424 $425 $320 forward $426 $-1 #
coedge $-1 $379 $317 $424 $391 forward $380 $-1 #
coedge $-1 $317 $378 $397 $427 forward $380 $-1 #
loop $-1 $-1 $317 $428 #
coedge $-1 $429 $430 $319 $382 forward $431 $-1 #
edge $-1 $271 1.2246063538223773e-016 $383 1.5707963267948968 $381 $261 forward 7 unknown #
vertex $-1 $432 $433 #
straight-curve $-1 0 -5.0000000000000027 40 0 6.1232329394368604e-017 1 I I #
coedge $-1 $434 $321 $430 $435 reversed $387 $-1 #
coedge $-1 $321 $434 $322 $342 reversed $387 $-1 #
loop $-1 $-1 $321 $357 #
coedge $-1 $436 $425 $323 $389 reversed $437 $-1 #
edge $-1 $407 -5 $325 0 $388 $438 forward 7 unknown #
face $-1 $341 $324 $30 $-1 $406 reversed single #
edge $-1 $325 0 $439 5 $424 $438 forward 7 unknown #
point $-1 0 -5.0000000000000036 -40 #
coedge $-1 $355 $326 $329 $396 forward $394 $-1 #
loop $-1 $-1 $326 $405 #
coedge $-1 $329 $328 $354 $413 forward $331 $-1 #
edge $-1 $332 -2.3297754803050886e-015 $414 5.0000000000000027 $329 $440 forward 7 unknown #
coedge $-1 $441 $330 $379 $427 reversed $374 $-1 #
coedge $-1 $330 $441 $442 $336 reversed $374 $-1 #
face $-1 $278 $331 $30 $-1 $375 reversed single #
point $-1 -5 -2.3297754803050886e-015 -40 #
straight-curve $-1 -5 0 40 0 -1 0 I I #
plane-surface $-1 0 0 40 0 0 1 1 0 0 forward_v I I I I #
vertex $-1 $336 $443 #
straight-curve $-1 5 0 -40 0 -1 0 I I #
face $-1 $444 $394 $30 $-1 $406 reversed single #
plane-surface $-1 0 0 -40 0 0 1 1 0 0 forward_v I I I I #
vertex $-1 $445 $446 #
straight-curve $-1 5 0 40 0 1 0 I I #
face $-1 $447 $431 $30 $-1 $402 forward single #
straight-curve $-1 5 5.0000000000000027 0 0 0 -1 I I #
point $-1 5 5.0000000000000027 40 #
point $-1 5 5.0000000000000027 -40 #
edge $-1 $358 -40 $414 40 $354 $448 forward 7 unknown #
vertex $-1 $356 $449 #
point $-1 -5 5.0000000000000027 40 #
convexity-sys-attrib $-1 $450 $360 $283 #
point $-1 76.000000000000099 -2.2757879133407899e-014 -36 #
cur-twe-attrib $-1 $-1 $-1 $362 65 #
edge_name-twe-attrib $-1 $-1 $363 $204 3 8448 #
loop $-1 $-1 $421 $373 #
coedge $-1 $442 $451 $376 $422 forward $420 $-1 #
edge $-1 $383 1.5707963267948968 $260 3.1415926535897931 $421 $261 forward 7 unknown #
coedge $-1 $452 $377 $451 $453 reversed $426 $-1 #
coedge $-1 $377 $452 $378 $391 reversed $426 $-1 #
coedge $-1 $388 $454 $250 $320 reversed $437 $-1 #
loop $-1 $-1 $377 $444 #
edge $-1 $439 -5.0000000000000027 $332 -2.3297754803050886e-015 $397 $440 forward 7 unknown #
face $-1 $390 $380 $30 $-1 $406 reversed single #
coedge $-1 $430 $381 $454 $432 forward $431 $-1 #
coedge $-1 $381 $429 $385 $435 forward $431 $-1 #
loop $-1 $-1 $381 $409 #
edge $-1 $383 0 $455 5 $454 $456 forward 7 unknown #
point $-1 0 -5.0000000000000027 40 #
coedge $-1 $386 $385 $436 $445 forward $387 $-1 #
edge $-1 $455 -5.0000000000000027 $271 2.5688108712443995e-015 $385 $408 forward 7 unknown #
coedge $-1 $454 $388 $434 $445 reversed $437 $-1 #
loop $-1 $-1 $425 $447 #
straight-curve $-1 0 -5.0000000000000027 -40 -1 0 0 I I #
vertex $-1 $427 $457 #
straight-curve $-1 -5 0 -40 0 1 0 I I #
coedge $-1 $398 $397 $452 $458 reversed $374 $-1 #
coedge $-1 $451 $421 $398 $336 forward $420 $-1 #
point $-1 -5 -5.0000000000000027 40 #
face $-1 $399 $426 $30 $-1 $459 reversed single #
edge $-1 $455 -40 $407 40 $434 $460 forward 7 unknown #
point $-1 5 -5.0000000000000027 -40 #
face $-1 $428 $437 $30 $-1 $459 reversed single #
straight-curve $-1 -5 5.0000000000000027 0 0 0 -1 I I #
point $-1 -5 5.0000000000000027 -40 #
edge_name-twe-attrib $-1 $-1 $416 $283 4 8448 #
coedge $-1 $421 $442 $423 $453 forward $420 $-1 #
coedge $-1 $424 $423 $441 $458 forward $426 $-1 #
edge $-1 $403 -5 $383 0 $423 $456 forward 7 unknown #
coedge $-1 $425 $436 $429 $432 reversed $437 $-1 #
vertex $-1 $435 $461 #
straight-curve $-1 0 -5.0000000000000027 40 1 0 0 I I #
point $-1 -5 -5.0000000000000027 -40 #
edge $-1 $403 -40 $439 40 $441 $462 forward 7 unknown #
plane-surface $-1 0 -5.0000000000000027 0 0 1 0 0 0 1 forward_v I I I I #
straight-curve $-1 5 -5.0000000000000027 0 0 0 -1 I I #
point $-1 5 -5.0000000000000027 40 #
straight-curve $-1 -5 -5.0000000000000027 0 0 0 -1 I I #
End-of-ACIS-data 