600 0 1 0           
97 GICL ACIS Healer - Source: /gicl/data5/repository/ICEM-CDC/Fixture_Models/BOLZEN/BOLZEN.sat - 6 0 18 ACIS 6.0.3 Solaris 24 Sat Apr 13 23:07:33 2002 
1 9.999999999999999547e-07 1.000000000000000036e-10 
body $1 $2 $-1 $3 #
brep_non_volatile_id-cdc-attrib $-1 $-1 $-1 $0 1 #
lump $-1 $-1 $4 $0 #
transform $-1 1 0 0 0 1 0 0 0 1 0 0 0 1 no_rotate no_reflect no_shear #
shell $-1 $-1 $-1 $5 $-1 $2 #
face $6 $7 $8 $4 $-1 $9 forward single #
face_name-twe-attrib $-1 $10 $-1 $5 1 #
face $11 $12 $13 $4 $-1 $14 forward single #
loop $15 $-1 $16 $5 #
plane-surface $17 78.00000000000009948 -1.785929278185849973e-14 44 0 6.12323293943686042e-17 1 0 -1 6.12323293943686042e-17 forward_v I I I I #
primitive_order-cdc-attrib $-1 $-1 $6 $5 0 8 #
face_name-twe-attrib $-1 $18 $-1 $7 2 #
face $19 $20 $21 $4 $-1 $22 forward single #
loop $23 $24 $25 $7 #
cone-surface $26 80.00000000000009948 -1.788990894655559883e-14 43.5 0 6.12323293943686042e-17 1 -4.5 0 0 1 I I -0.7071067811865480168 0.7071067811865470176 4.5 forward I I I I #
loop_type-twe-attrib $-1 $-1 $-1 $8 0 #
coedge $-1 $16 $16 $25 $27 forward $8 $-1 #
surf-twe-attrib $-1 $-1 $-1 $9 5 #
primitive_order-cdc-attrib $-1 $-1 $11 $7 0 8 #
face_name-twe-attrib $-1 $28 $-1 $12 3 #
face $29 $30 $31 $4 $-1 $32 forward single #
loop $33 $34 $35 $12 #
cone-surface $36 80.00000000000009948 -2.030858595763319923e-14 4 0 6.12323293943686042e-17 1 -5 0 0 1 I I 0 1 5 forward I I I I #
loop_type-twe-attrib $-1 $-1 $-1 $13 0 #
loop $37 $-1 $38 $7 #
coedge $-1 $25 $25 $16 $27 reversed $13 $-1 #
surf-twe-attrib $-1 $-1 $-1 $14 7 #
edge $39 $40 0 $40 6.283185307179586232 $16 $41 forward 7 unknown #
primitive_order-cdc-attrib $-1 $-1 $19 $12 0 8 #
face_name-twe-attrib $-1 $42 $-1 $20 4 #
face $43 $-1 $44 $4 $-1 $45 forward single #
loop $46 $47 $48 $20 #
cone-surface $49 80.00000000000009948 -2.272726296871079963e-14 -35.5 0 6.12323293943686042e-17 1 -4.5 0 0 1 I I 0.7071067811865480168 0.7071067811865470176 4.5 forward I I I I #
loop_type-twe-attrib $-1 $-1 $-1 $21 0 #
loop $50 $-1 $51 $12 #
coedge $-1 $35 $35 $38 $52 reversed $21 $-1 #
surf-twe-attrib $-1 $-1 $-1 $22 12 #
loop_type-twe-attrib $-1 $-1 $-1 $24 1 #
coedge $-1 $38 $38 $35 $52 forward $24 $-1 #
edge_name-twe-attrib $-1 $-1 $-1 $27 1 8448 #
vertex $-1 $27 $53 #
ellipse-curve $54 80.00000000000009948 -1.785929278185849973e-14 44 0 6.12323293943686042e-17 1 -4 0 0 1 I I #
primitive_order-cdc-attrib $-1 $-1 $29 $20 0 8 #
face_name-twe-attrib $-1 $55 $-1 $30 5 #
loop $56 $-1 $57 $30 #
plane-surface $58 78.00000000000009948 -2.275787913340789873e-14 -36 0 -6.12323293943686042e-17 -1 0 1 -6.12323293943686042e-17 forward_v I I I I #
loop_type-twe-attrib $-1 $-1 $-1 $31 0 #
loop $59 $-1 $60 $20 #
coedge $-1 $48 $48 $51 $61 reversed $31 $-1 #
surf-twe-attrib $-1 $-1 $-1 $32 20 #
loop_type-twe-attrib $-1 $-1 $-1 $34 1 #
coedge $-1 $51 $51 $48 $61 forward $34 $-1 #
edge $62 $63 0 $63 6.283185307179586232 $38 $64 forward 7 unknown #
point $-1 76.00000000000009948 -1.785929278185849973e-14 44 #
cur-twe-attrib $-1 $-1 $-1 $41 27 #
primitive_order-cdc-attrib $-1 $-1 $43 $30 0 8 #
loop_type-twe-attrib $-1 $-1 $-1 $44 0 #
coedge $-1 $57 $57 $60 $65 reversed $44 $-1 #
surf-twe-attrib $-1 $-1 $-1 $45 30 #
loop_type-twe-attrib $-1 $-1 $-1 $47 1 #
coedge $-1 $60 $60 $57 $65 forward $47 $-1 #
edge $66 $67 0 $67 6.283185307179586232 $51 $68 forward 7 unknown #
edge_name-twe-attrib $-1 $-1 $-1 $52 2 8448 #
vertex $-1 $52 $69 #
ellipse-curve $70 80.00000000000009948 -1.79205251112527989e-14 43 0 6.12323293943686042e-17 1 -5 0 0 1 I I #
edge $71 $72 0 $72 6.283185307179586232 $60 $73 forward 7 unknown #
edge_name-twe-attrib $-1 $-1 $-1 $61 3 8448 #
vertex $-1 $61 $74 #
ellipse-curve $75 80.00000000000009948 -2.269664680401359955e-14 -35 0 6.12323293943686042e-17 1 -5 0 0 1 I I #
point $-1 75.00000000000009948 -1.79205251112527989e-14 43 #
cur-twe-attrib $-1 $-1 $-1 $64 52 #
edge_name-twe-attrib $-1 $-1 $-1 $65 4 8448 #
vertex $-1 $65 $76 #
ellipse-curve $77 80.00000000000009948 -2.275787913340789873e-14 -36 0 6.12323293943686042e-17 1 -4 0 0 1 I I #
point $-1 75.00000000000009948 -2.269664680401359955e-14 -35 #
cur-twe-attrib $-1 $-1 $-1 $68 61 #
point $-1 76.00000000000009948 -2.275787913340789873e-14 -36 #
cur-twe-attrib $-1 $-1 $-1 $73 65 #
End-of-ACIS-data 