700 0 2 0           
24 FBMach with ACIS - 7.0.3 13 ACIS 7.0.3 NT 24 Tue May 14 12:05:20 2002 
1 9.9999999999999995e-007 1e-010 
body $2 -1 $-1 $3 $-1 $4 #
bdycol-kcp $-1 -1 1 4 $5 $6 $7 $8 #
model_id-kcp-attrib $-1 -1 $9 $-1 $0 1 1021392319 1021392319 19464193 1 #
lump $-1 -1 $-1 $-1 $10 $0 #
transform $-1 -1 1 0 0 0 1 0 0 0 1 0 0 0 1 rotate no_reflect no_shear #
body $11 -1 $-1 $12 $-1 $13 #
body $14 -1 $-1 $15 $-1 $16 #
body $17 -1 $-1 $18 $-1 $19 #
body $20 -1 $-1 $21 $-1 $22 #
brep_non_volatile_id-cdc-attrib $-1 -1 $-1 $2 $0 1 #
shell $-1 -1 $-1 $-1 $-1 $23 $-1 $3 #
model_id-kcp-attrib $-1 -1 $-1 $-1 $5 1 1021392319 1021392319 19464194 1 #
lump $-1 -1 $-1 $-1 $24 $5 #
transform $-1 -1 1 0 0 0 1 0 0 0 1 80.000000000000099 -2.042810365310288e-014 4 1 no_rotate no_reflect no_shear #
rgb_color-st-attrib $-1 -1 $25 $-1 $6 1 1 0.5 #
lump $-1 -1 $-1 $-1 $26 $6 #
transform $-1 -1 1 0 0 0 1 -6.1232329394299172e-017 0 6.1232329394299172e-017 1 80.000000000000099 -1.7889908946555649e-014 43.5 1 rotate no_reflect no_shear #
rgb_color-st-attrib $-1 -1 $27 $-1 $7 1 1 0.5 #
lump $-1 -1 $-1 $-1 $28 $7 #
transform $-1 -1 1 0 0 0 -1 6.1232329394299172e-017 0 -6.1232329394299172e-017 -1 80.000000000000099 -2.2727262968710749e-014 -35.5 1 rotate no_reflect no_shear #
rgb_color-st-attrib $-1 -1 $29 $-1 $8 0.5 1 1 #
lump $-1 -1 $-1 $-1 $30 $8 #
transform $-1 -1 1 0 0 0 1 0 0 0 1 80.000000000000099 -2.042810365310288e-014 4 1 no_rotate no_reflect no_shear #
face $31 -1 $-1 $32 $33 $10 $-1 $34 forward single #
shell $-1 -1 $-1 $-1 $-1 $35 $-1 $12 #
model_id-kcp-attrib $-1 -1 $-1 $14 $6 1 1021392319 1021392319 20774915 1 #
shell $-1 -1 $-1 $-1 $-1 $36 $-1 $15 #
model_id-kcp-attrib $-1 -1 $-1 $17 $7 1 1021392319 1021392319 20774916 1 #
shell $-1 -1 $-1 $-1 $-1 $37 $-1 $18 #
model_id-kcp-attrib $-1 -1 $-1 $20 $8 1 1021392319 1021392319 26017797 1 #
shell $-1 -1 $-1 $-1 $-1 $38 $-1 $21 #
model_id-kcp-attrib $-1 -1 $39 $-1 $23 1 1021392319 1021392319 19464193 2 #
face $40 -1 $-1 $41 $42 $10 $-1 $43 forward single #
loop $44 -1 $-1 $-1 $45 $23 #
plane-surface $46 -1 $-1 78.000000000000099 -1.78592927818585e-014 44 0 6.1232329394368604e-017 1 0 -1 6.1232329394368604e-017 forward_v I I I I #
face $47 -1 $-1 $48 $49 $24 $-1 $50 forward single #
face $-1 -1 $-1 $51 $52 $26 $-1 $53 reversed single #
face $-1 -1 $-1 $54 $55 $28 $-1 $56 reversed single #
face $-1 -1 $-1 $57 $58 $30 $-1 $59 reversed single #
face_name-twe-attrib $-1 -1 $60 $31 $23 1 #
model_id-kcp-attrib $-1 -1 $61 $-1 $32 1 1021392319 1021392319 19464193 3 #
face $62 -1 $-1 $63 $64 $10 $-1 $65 forward single #
loop $66 -1 $-1 $67 $68 $32 #
cone-surface $69 -1 $-1 80.000000000000099 -1.7889908946555599e-014 43.5 0 6.1232329394368604e-017 1 -4.5 0 0 1 I I -0.70710678118654802 0.70710678118654702 4.5 forward I I I I #
loop_type-twe-attrib $-1 -1 $-1 $-1 $33 0 #
coedge $-1 -1 $-1 $45 $45 $68 $70 forward $33 $-1 #
surf-twe-attrib $-1 -1 $-1 $-1 $34 5 #
model_id-kcp-attrib $-1 -1 $-1 $-1 $35 1 1021392319 1021392319 19464194 2 #
face $71 -1 $-1 $72 $73 $24 $-1 $74 reversed single #
loop $-1 -1 $-1 $-1 $75 $35 #
plane-surface $-1 -1 $-1 0 0 40 0 0 1 1 0 0 forward_v I I I I #
face $-1 -1 $-1 $76 $77 $26 $-1 $78 forward single #
loop $-1 -1 $-1 $79 $80 $36 #
cone-surface $-1 -1 $-1 0 0 2 0 0 1 2.5 0 0 1 I I -0.70710678118654802 0.70710678118654702 2.5 forward I I I I #
face $-1 -1 $-1 $81 $82 $28 $-1 $83 forward single #
loop $-1 -1 $-1 $84 $85 $37 #
cone-surface $-1 -1 $-1 0 0 2 0 0 1 2.5 0 0 1 I I -0.70710678118654802 0.70710678118654702 2.5 forward I I I I #
face $-1 -1 $-1 $86 $87 $30 $-1 $59 reversed single #
loop $-1 -1 $-1 $-1 $88 $38 #
cone-surface $-1 -1 $-1 0 2.5688108712443995e-015 40 0 6.1232329394368604e-017 1 5 6.1230317691118863e-016 -3.7492749817844253e-032 1 I I 0 1 5 forward I I I I #
primitive_order-cdc-attrib $-1 -1 $-1 $39 $23 0 8 #
face_name-twe-attrib $-1 -1 $89 $40 $32 2 #
model_id-kcp-attrib $-1 -1 $90 $-1 $41 1 1021392319 1021392319 19464193 4 #
face $91 -1 $-1 $92 $93 $10 $-1 $94 forward single #
loop $95 -1 $-1 $96 $97 $41 #
cone-surface $98 -1 $-1 80.000000000000099 -2.0308585957633199e-014 4 0 6.1232329394368604e-017 1 -5 0 0 1 I I 0 1 5 forward I I I I #
loop_type-twe-attrib $-1 -1 $-1 $-1 $42 0 #
loop $99 -1 $-1 $-1 $100 $32 #
coedge $-1 -1 $-1 $68 $68 $45 $70 reversed $42 $-1 #
surf-twe-attrib $-1 -1 $-1 $-1 $43 7 #
edge $101 -1 $-1 $102 0 $102 6.2831853071795862 $45 $103 forward @7 unknown #
model_id-kcp-attrib $-1 -1 $-1 $-1 $48 1 1021392319 1021392319 19464194 3 #
face $-1 -1 $-1 $104 $105 $24 $-1 $106 reversed single #
loop $-1 -1 $-1 $-1 $107 $48 #
plane-surface $-1 -1 $-1 0 0 -40 0 0 1 1 0 0 forward_v I I I I #
coedge $-1 -1 $-1 $108 $109 $110 $111 forward $49 $-1 #
face $-1 -1 $-1 $-1 $112 $26 $-1 $113 forward single #
loop $-1 -1 $-1 $114 $115 $51 #
cone-surface $-1 -1 $-1 0 0 0 0 0 1 5 0 0 1 I I 0 1 5 forward I I I I #
loop $-1 -1 $-1 $-1 $116 $36 #
coedge $-1 -1 $-1 $80 $80 $117 $118 reversed $52 $-1 #
face $-1 -1 $-1 $-1 $119 $28 $-1 $120 forward single #
loop $-1 -1 $-1 $121 $122 $54 #
cone-surface $-1 -1 $-1 0 0 0 0 0 1 5 0 0 1 I I 0 1 5 forward I I I I #
loop $-1 -1 $-1 $-1 $123 $37 #
coedge $-1 -1 $-1 $85 $85 $124 $125 reversed $55 $-1 #
face $-1 -1 $-1 $126 $127 $30 $-1 $59 reversed single #
loop $-1 -1 $-1 $-1 $128 $57 #
coedge $-1 -1 $-1 $129 $130 $131 $132 reversed $58 $-1 #
primitive_order-cdc-attrib $-1 -1 $-1 $61 $32 0 8 #
face_name-twe-attrib $-1 -1 $133 $62 $41 3 #
model_id-kcp-attrib $-1 -1 $134 $-1 $63 1 1021392319 1021392319 19464193 5 #
face $135 -1 $-1 $-1 $136 $10 $-1 $137 forward single #
loop $138 -1 $-1 $139 $140 $63 #
cone-surface $141 -1 $-1 80.000000000000099 -2.27272629687108e-014 -35.5 0 6.1232329394368604e-017 1 -4.5 0 0 1 I I 0.70710678118654802 0.70710678118654702 4.5 forward I I I I #
loop_type-twe-attrib $-1 -1 $-1 $-1 $64 0 #
loop $142 -1 $-1 $-1 $143 $41 #
coedge $-1 -1 $-1 $97 $97 $100 $144 reversed $64 $-1 #
surf-twe-attrib $-1 -1 $-1 $-1 $65 12 #
loop_type-twe-attrib $-1 -1 $-1 $-1 $67 1 #
coedge $-1 -1 $-1 $100 $100 $97 $144 forward $67 $-1 #
attrib_edge_convexity-kcp-attrib $-1 -1 $145 $-1 $70 1 #
vertex $-1 -1 $-1 $70 $146 #
ellipse-curve $147 -1 $-1 80.000000000000099 -1.78592927818585e-014 44 0 6.1232329394368604e-017 1 -4 0 0 1 I I #
face $-1 -1 $-1 $148 $149 $24 $-1 $150 reversed single #
loop $-1 -1 $-1 $-1 $151 $72 #
plane-surface $-1 -1 $-1 0 -5.0000000000000027 0 0 1 0 0 0 1 forward_v I I I I #
coedge $-1 -1 $-1 $152 $153 $154 $155 forward $73 $-1 #
coedge $-1 -1 $-1 $156 $75 $157 $158 forward $49 $-1 #
coedge $-1 -1 $-1 $75 $156 $159 $160 forward $49 $-1 #
coedge $-1 -1 $-1 $161 $162 $75 $111 reversed $163 $-1 #
edge $-1 -1 $-1 $164 -5.0000000000000027 $165 5.0000000000000027 $110 $166 forward @7 unknown #
loop $-1 -1 $-1 $167 $117 $76 #
plane-surface $-1 -1 $-1 0 0 0.5 0 0 1 1 0 0 forward_v I I I I #
loop $-1 -1 $-1 $-1 $168 $51 #
coedge $-1 -1 $-1 $115 $115 $116 $169 reversed $77 $-1 #
coedge $-1 -1 $-1 $116 $116 $115 $169 forward $79 $-1 #
coedge $-1 -1 $-1 $117 $117 $80 $118 forward $112 $-1 #
edge $-1 -1 $-1 $170 -3.1415926535897931 $170 3.1415926535897931 $117 $171 forward @7 unknown #
loop $-1 -1 $-1 $172 $124 $81 #
plane-surface $-1 -1 $-1 0 0 0.5 0 0 1 1 0 0 forward_v I I I I #
loop $-1 -1 $-1 $-1 $173 $54 #
coedge $-1 -1 $-1 $122 $122 $123 $174 reversed $82 $-1 #
coedge $-1 -1 $-1 $123 $123 $122 $174 forward $84 $-1 #
coedge $-1 -1 $-1 $124 $124 $85 $125 forward $119 $-1 #
edge $-1 -1 $-1 $175 -3.1415926535897931 $175 3.1415926535897931 $124 $176 forward @7 unknown #
face $-1 -1 $-1 $177 $178 $30 $-1 $59 reversed single #
loop $-1 -1 $-1 $-1 $179 $86 #
coedge $-1 -1 $-1 $180 $181 $182 $183 reversed $87 $-1 #
coedge $-1 -1 $-1 $184 $88 $185 $186 reversed $58 $-1 #
coedge $-1 -1 $-1 $88 $184 $187 $188 reversed $58 $-1 #
coedge $-1 -1 $-1 $189 $190 $191 $132 forward $192 $-1 #
edge $-1 -1 $-1 $193 -80 $194 0 $131 $195 forward @7 unknown #
primitive_order-cdc-attrib $-1 -1 $-1 $90 $41 0 8 #
face_name-twe-attrib $-1 -1 $196 $91 $63 4 #
model_id-kcp-attrib $-1 -1 $197 $-1 $92 1 1021392319 1021392319 19464193 6 #
loop $198 -1 $-1 $-1 $199 $92 #
plane-surface $200 -1 $-1 78.000000000000099 -2.2757879133407899e-014 -36 0 -6.1232329394368604e-017 -1 0 1 -6.1232329394368604e-017 forward_v I I I I #
loop_type-twe-attrib $-1 -1 $-1 $-1 $93 0 #
loop $201 -1 $-1 $-1 $202 $63 #
coedge $-1 -1 $-1 $140 $140 $143 $203 reversed $93 $-1 #
surf-twe-attrib $-1 -1 $-1 $-1 $94 20 #
loop_type-twe-attrib $-1 -1 $-1 $-1 $96 1 #
coedge $-1 -1 $-1 $143 $143 $140 $203 forward $96 $-1 #
edge $204 -1 $-1 $205 0 $205 6.2831853071795862 $100 $206 forward @7 unknown #
convexity-sys-attrib $-1 -1 $207 $101 $70 #
point $-1 -1 $-1 76.000000000000099 -1.78592927818585e-014 44 #
cur-twe-attrib $-1 -1 $-1 $-1 $103 27 #
face $-1 -1 $-1 $208 $209 $24 $-1 $210 reversed single #
loop $-1 -1 $-1 $-1 $211 $104 #
plane-surface $-1 -1 $-1 -5 0 0 1 0 0 0 0 -1 forward_v I I I I #
coedge $-1 -1 $-1 $212 $159 $213 $214 forward $105 $-1 #
coedge $-1 -1 $-1 $215 $107 $212 $216 forward $73 $-1 #
coedge $-1 -1 $-1 $107 $215 $217 $218 forward $73 $-1 #
coedge $-1 -1 $-1 $162 $161 $107 $155 reversed $163 $-1 #
edge $-1 -1 $-1 $219 -5.0000000000000027 $220 5.0000000000000027 $154 $221 forward @7 unknown #
coedge $-1 -1 $-1 $109 $108 $222 $223 forward $49 $-1 #
coedge $-1 -1 $-1 $224 $225 $108 $158 reversed $209 $-1 #
edge $-1 -1 $-1 $165 -5 $226 5 $157 $227 forward @7 unknown #
coedge $-1 -1 $-1 $151 $228 $109 $160 reversed $105 $-1 #
edge $-1 -1 $-1 $229 -5 $164 5 $159 $230 forward @7 unknown #
coedge $-1 -1 $-1 $154 $110 $228 $231 forward $163 $-1 #
coedge $-1 -1 $-1 $110 $154 $224 $232 reversed $163 $-1 #
loop $-1 -1 $-1 $-1 $161 $208 #
vertex $-1 -1 $-1 $111 $233 #
vertex $-1 -1 $-1 $111 $234 #
straight-curve $-1 -1 $-1 5 0 40 0 1 0 I I #
loop $-1 -1 $-1 $-1 $235 $76 #
coedge $-1 -1 $-1 $168 $168 $235 $236 reversed $114 $-1 #
edge $-1 -1 $-1 $237 0 $237 6.2831853071795862 $115 $238 forward @7 unknown #
vertex $-1 -1 $-1 $118 $239 #
ellipse-curve $-1 -1 $-1 0 0 0.5 0 0 -1 4.0000000000000018 0 0 1 I I #
loop $-1 -1 $-1 $-1 $240 $81 #
coedge $-1 -1 $-1 $173 $173 $240 $241 reversed $121 $-1 #
edge $-1 -1 $-1 $242 0 $242 6.2831853071795862 $122 $243 forward @7 unknown #
vertex $-1 -1 $-1 $125 $244 #
ellipse-curve $-1 -1 $-1 0 0 0.5 0 0 -1 4.0000000000000018 0 0 1 I I #
face $-1 -1 $-1 $245 $246 $30 $-1 $247 reversed single #
loop $-1 -1 $-1 $-1 $248 $126 #
coedge $-1 -1 $-1 $249 $250 $251 $252 reversed $127 $-1 #
coedge $-1 -1 $-1 $253 $128 $254 $255 reversed $87 $-1 #
coedge $-1 -1 $-1 $128 $253 $88 $132 forward $87 $-1 #
coedge $-1 -1 $-1 $256 $257 $128 $183 forward $258 $-1 #
edge $-1 -1 $-1 $259 -3.1415926535897931 $194 -1.5707963267948966 $182 $260 forward @7 unknown #
coedge $-1 -1 $-1 $130 $129 $250 $261 forward $58 $-1 #
coedge $-1 -1 $-1 $262 $263 $129 $186 forward $264 $-1 #
edge $-1 -1 $-1 $265 -1.2246063538223773e-016 $193 1.5707963267948966 $185 $266 forward @7 unknown #
coedge $-1 -1 $-1 $267 $268 $130 $188 forward $269 $-1 #
edge $-1 -1 $-1 $194 -1.5707963267948966 $270 1.2246063538223773e-016 $187 $260 forward @7 unknown #
coedge $-1 -1 $-1 $271 $131 $268 $272 reversed $192 $-1 #
coedge $-1 -1 $-1 $131 $271 $262 $273 reversed $192 $-1 #
coedge $-1 -1 $-1 $274 $275 $181 $132 reversed $276 $-1 #
loop $-1 -1 $-1 $-1 $131 $277 #
vertex $-1 -1 $-1 $273 $278 #
vertex $-1 -1 $-1 $279 $280 #
straight-curve $-1 -1 $-1 0 5.0000000000000027 40 0 6.1232329394368604e-017 1 I I #
primitive_order-cdc-attrib $-1 -1 $-1 $134 $63 0 8 #
face_name-twe-attrib $-1 -1 $281 $135 $92 5 #
loop_type-twe-attrib $-1 -1 $-1 $-1 $136 0 #
coedge $-1 -1 $-1 $199 $199 $202 $282 reversed $136 $-1 #
surf-twe-attrib $-1 -1 $-1 $-1 $137 30 #
loop_type-twe-attrib $-1 -1 $-1 $-1 $139 1 #
coedge $-1 -1 $-1 $202 $202 $199 $282 forward $139 $-1 #
edge $283 -1 $-1 $284 0 $284 6.2831853071795862 $143 $285 forward @7 unknown #
attrib_edge_convexity-kcp-attrib $-1 -1 $286 $-1 $144 1 #
vertex $-1 -1 $-1 $144 $287 #
ellipse-curve $288 -1 $-1 80.000000000000099 -1.7920525111252799e-014 43 0 6.1232329394368604e-017 1 -5 0 0 1 I I #
edge_name-twe-attrib $-1 -1 $-1 $145 $70 1 8448 #
face $-1 -1 $-1 $-1 $163 $24 $-1 $289 reversed single #
loop $-1 -1 $-1 $-1 $224 $148 #
plane-surface $-1 -1 $-1 0 5.0000000000000027 0 0 -1 0 0 0 -1 forward_v I I I I #
coedge $-1 -1 $-1 $290 $222 $225 $291 forward $149 $-1 #
coedge $-1 -1 $-1 $228 $151 $152 $216 reversed $105 $-1 #
coedge $-1 -1 $-1 $222 $290 $151 $214 reversed $149 $-1 #
edge $-1 -1 $-1 $229 -40 $292 40 $213 $293 forward @7 unknown #
coedge $-1 -1 $-1 $153 $152 $290 $294 forward $73 $-1 #
edge $-1 -1 $-1 $220 -5 $292 5 $212 $295 forward @7 unknown #
coedge $-1 -1 $-1 $225 $224 $153 $218 reversed $209 $-1 #
edge $-1 -1 $-1 $296 -5 $219 5 $217 $297 forward @7 unknown #
vertex $-1 -1 $-1 $155 $298 #
vertex $-1 -1 $-1 $231 $299 #
straight-curve $-1 -1 $-1 5 0 -40 0 -1 0 I I #
coedge $-1 -1 $-1 $211 $213 $156 $223 reversed $149 $-1 #
edge $-1 -1 $-1 $226 -5.0000000000000027 $229 5.0000000000000027 $222 $300 forward @7 unknown #
coedge $-1 -1 $-1 $217 $157 $162 $232 forward $209 $-1 #
coedge $-1 -1 $-1 $157 $217 $211 $291 reversed $209 $-1 #
vertex $-1 -1 $-1 $158 $301 #
straight-curve $-1 -1 $-1 0 5.0000000000000027 40 -1 0 0 I I #
coedge $-1 -1 $-1 $159 $212 $161 $231 reversed $105 $-1 #
vertex $-1 -1 $-1 $223 $302 #
straight-curve $-1 -1 $-1 0 -5.0000000000000027 40 1 0 0 I I #
edge $-1 -1 $-1 $164 -40 $220 40 $161 $303 forward @7 unknown #
edge $-1 -1 $-1 $165 -40 $219 40 $162 $304 forward @7 unknown #
point $-1 -1 $-1 5 -5.0000000000000027 40 #
point $-1 -1 $-1 5 5.0000000000000027 40 #
coedge $-1 -1 $-1 $235 $235 $168 $236 forward $167 $-1 #
edge $-1 -1 $-1 $305 0 $305 6.2831853071795862 $235 $306 forward @7 unknown #
vertex $-1 -1 $-1 $169 $307 #
ellipse-curve $-1 -1 $-1 0 0 -0.5 0 0 -1 5 0 0 1 I I #
point $-1 -1 $-1 -4.0000000000000018 4.898425415289511e-016 0.5 #
coedge $-1 -1 $-1 $240 $240 $173 $241 forward $172 $-1 #
edge $-1 -1 $-1 $308 0 $308 6.2831853071795862 $240 $309 forward @7 unknown #
vertex $-1 -1 $-1 $174 $310 #
ellipse-curve $-1 -1 $-1 0 0 -0.5 0 0 -1 5 0 0 1 I I #
point $-1 -1 $-1 -4.0000000000000018 4.898425415289511e-016 0.5 #
face $-1 -1 $-1 $311 $276 $30 $-1 $312 reversed single #
loop $-1 -1 $-1 $-1 $313 $177 #
plane-surface $-1 -1 $-1 5 0 0 -1 0 0 0 0 1 forward_v I I I I #
coedge $-1 -1 $-1 $314 $315 $316 $317 reversed $178 $-1 #
coedge $-1 -1 $-1 $318 $179 $315 $319 forward $127 $-1 #
coedge $-1 -1 $-1 $179 $318 $320 $261 reversed $127 $-1 #
coedge $-1 -1 $-1 $321 $322 $179 $252 forward $323 $-1 #
edge $-1 -1 $-1 $324 -1.5707963267948968 $265 -1.2246063538223773e-016 $251 $266 forward @7 unknown #
coedge $-1 -1 $-1 $181 $180 $325 $326 reversed $87 $-1 #
coedge $-1 -1 $-1 $327 $328 $329 $255 forward $330 $-1 #
edge $-1 -1 $-1 $331 -80 $259 0 $254 $332 forward @7 unknown #
coedge $-1 -1 $-1 $257 $182 $275 $279 forward $258 $-1 #
coedge $-1 -1 $-1 $182 $256 $327 $333 forward $258 $-1 #
loop $-1 -1 $-1 $-1 $182 $334 #
vertex $-1 -1 $-1 $335 $336 #
ellipse-curve $-1 -1 $-1 0 2.5688108712443995e-015 40 0 0 -1 5 6.1230317691118863e-016 -3.7492749817844253e-032 1 I I #
edge $-1 -1 $-1 $265 -80 $270 0 $320 $337 forward @7 unknown #
coedge $-1 -1 $-1 $263 $185 $190 $273 forward $264 $-1 #
coedge $-1 -1 $-1 $185 $262 $338 $339 forward $264 $-1 #
loop $-1 -1 $-1 $-1 $185 $340 #
vertex $-1 -1 $-1 $341 $342 #
ellipse-curve $-1 -1 $-1 0 -2.3297754803050886e-015 -40 0 0 1 5 6.1230317691118863e-016 -3.7492749817844253e-032 1 I I #
coedge $-1 -1 $-1 $268 $187 $343 $344 forward $269 $-1 #
coedge $-1 -1 $-1 $187 $267 $189 $272 forward $269 $-1 #
loop $-1 -1 $-1 $-1 $187 $345 #
vertex $-1 -1 $-1 $344 $346 #
coedge $-1 -1 $-1 $190 $189 $347 $348 forward $192 $-1 #
edge $-1 -1 $-1 $349 -5 $194 0 $189 $350 forward @7 unknown #
edge $-1 -1 $-1 $193 0 $351 5 $190 $352 forward @7 unknown #
coedge $-1 -1 $-1 $353 $191 $354 $355 reversed $276 $-1 #
coedge $-1 -1 $-1 $191 $353 $256 $279 reversed $276 $-1 #
loop $-1 -1 $-1 $-1 $191 $245 #
face $-1 -1 $-1 $356 $192 $30 $-1 $312 reversed single #
point $-1 -1 $-1 0 5.0000000000000018 -40 #
edge $-1 -1 $-1 $194 0 $357 5 $275 $350 forward @7 unknown #
point $-1 -1 $-1 0 5.0000000000000027 40 #
primitive_order-cdc-attrib $-1 -1 $-1 $197 $92 0 8 #
edge $358 -1 $-1 $359 0 $359 6.2831853071795862 $202 $360 forward @7 unknown #
attrib_edge_convexity-kcp-attrib $-1 -1 $361 $-1 $203 1 #
vertex $-1 -1 $-1 $203 $362 #
ellipse-curve $363 -1 $-1 80.000000000000099 -2.26966468040136e-014 -35 0 6.1232329394368604e-017 1 -5 0 0 1 I I #
convexity-sys-attrib $-1 -1 $364 $204 $144 #
point $-1 -1 $-1 75.000000000000099 -1.7920525111252799e-014 43 #
cur-twe-attrib $-1 -1 $-1 $-1 $206 52 #
plane-surface $-1 -1 $-1 5 0 0 -1 0 0 0 0 1 forward_v I I I I #
coedge $-1 -1 $-1 $213 $211 $215 $294 reversed $149 $-1 #
edge $-1 -1 $-1 $226 -40 $296 40 $225 $365 forward @7 unknown #
vertex $-1 -1 $-1 $294 $366 #
straight-curve $-1 -1 $-1 -5 -5.0000000000000027 0 0 0 -1 I I #
edge $-1 -1 $-1 $292 -5.0000000000000027 $296 5.0000000000000027 $290 $367 forward @7 unknown #
straight-curve $-1 -1 $-1 0 -5.0000000000000027 -40 -1 0 0 I I #
vertex $-1 -1 $-1 $218 $368 #
straight-curve $-1 -1 $-1 0 5.0000000000000027 -40 1 0 0 I I #
point $-1 -1 $-1 5 5.0000000000000027 -40 #
point $-1 -1 $-1 5 -5.0000000000000027 -40 #
straight-curve $-1 -1 $-1 -5 0 40 0 -1 0 I I #
point $-1 -1 $-1 -5 5.0000000000000027 40 #
point $-1 -1 $-1 -5 -5.0000000000000027 40 #
straight-curve $-1 -1 $-1 5 -5.0000000000000027 0 0 0 -1 I I #
straight-curve $-1 -1 $-1 5 5.0000000000000027 0 0 0 -1 I I #
vertex $-1 -1 $-1 $236 $369 #
ellipse-curve $-1 -1 $-1 0 0 0.5 0 0 1 5 0 0 1 I I #
point $-1 -1 $-1 5 0 -0.5 #
vertex $-1 -1 $-1 $241 $370 #
ellipse-curve $-1 -1 $-1 0 0 0.5 0 0 1 5 0 0 1 I I #
point $-1 -1 $-1 5 0 -0.5 #
face $-1 -1 $-1 $371 $372 $30 $-1 $373 reversed single #
plane-surface $-1 -1 $-1 0 5.0000000000000027 0 0 -1 0 0 0 -1 forward_v I I I I #
coedge $-1 -1 $-1 $338 $343 $184 $261 reversed $246 $-1 #
coedge $-1 -1 $-1 $374 $248 $180 $255 forward $178 $-1 #
coedge $-1 -1 $-1 $248 $374 $375 $319 reversed $178 $-1 #
coedge $-1 -1 $-1 $376 $377 $248 $317 forward $378 $-1 #
edge $-1 -1 $-1 $331 -3.1415926535897931 $324 -1.5707963267948968 $316 $266 forward @7 unknown #
coedge $-1 -1 $-1 $250 $249 $379 $380 reversed $127 $-1 #
edge $-1 -1 $-1 $324 -80 $381 0 $375 $382 forward @7 unknown #
coedge $-1 -1 $-1 $383 $384 $313 $261 forward $385 $-1 #
coedge $-1 -1 $-1 $322 $251 $384 $341 forward $323 $-1 #
coedge $-1 -1 $-1 $251 $321 $386 $387 forward $323 $-1 #
loop $-1 -1 $-1 $-1 $251 $388 #
vertex $-1 -1 $-1 $389 $390 #
coedge $-1 -1 $-1 $391 $354 $253 $326 forward $392 $-1 #
edge $-1 -1 $-1 $193 1.5707963267948966 $331 3.1415926535897931 $325 $266 forward @7 unknown #
coedge $-1 -1 $-1 $393 $254 $257 $333 reversed $330 $-1 #
coedge $-1 -1 $-1 $254 $393 $391 $394 reversed $330 $-1 #
coedge $-1 -1 $-1 $395 $396 $314 $255 reversed $372 $-1 #
loop $-1 -1 $-1 $-1 $254 $397 #
vertex $-1 -1 $-1 $394 $398 #
straight-curve $-1 -1 $-1 -5 2.5688108712443995e-015 40 0 6.1232329394368604e-017 1 I I #
edge $-1 -1 $-1 $357 -5.0000000000000027 $259 -2.5688108712443995e-015 $327 $399 forward @7 unknown #
face $-1 -1 $-1 $345 $258 $30 $-1 $400 forward single #
edge $-1 -1 $-1 $259 -2.5688108712443995e-015 $401 5.0000000000000027 $396 $399 forward @7 unknown #
point $-1 -1 $-1 -5 2.5688108712443995e-015 40 #
straight-curve $-1 -1 $-1 5 2.5688108712443995e-015 40 0 6.1232329394368604e-017 1 I I #
coedge $-1 -1 $-1 $347 $313 $263 $339 reversed $246 $-1 #
edge $-1 -1 $-1 $351 -5.0000000000000027 $265 2.3297754803050886e-015 $338 $402 forward @7 unknown #
face $-1 -1 $-1 $403 $264 $30 $-1 $404 reversed single #
edge $-1 -1 $-1 $265 2.3297754803050886e-015 $405 5.0000000000000027 $384 $402 forward @7 unknown #
point $-1 -1 $-1 5 -2.3297754803050886e-015 -40 #
coedge $-1 -1 $-1 $313 $347 $267 $344 reversed $246 $-1 #
edge $-1 -1 $-1 $270 2.5688108712443995e-015 $349 5.0000000000000027 $343 $406 forward @7 unknown #
face $-1 -1 $-1 $407 $269 $30 $-1 $400 forward single #
point $-1 -1 $-1 5 2.5688108712443995e-015 40 #
coedge $-1 -1 $-1 $343 $338 $271 $348 reversed $246 $-1 #
edge $-1 -1 $-1 $349 -40 $351 40 $347 $408 forward @7 unknown #
vertex $-1 -1 $-1 $344 $409 #
straight-curve $-1 -1 $-1 0 5.0000000000000027 40 -1 0 0 I I #
vertex $-1 -1 $-1 $339 $410 #
straight-curve $-1 -1 $-1 0 5.0000000000000027 -40 1 0 0 I I #
coedge $-1 -1 $-1 $275 $274 $393 $411 reversed $276 $-1 #
coedge $-1 -1 $-1 $325 $391 $274 $355 forward $392 $-1 #
edge $-1 -1 $-1 $412 -5 $193 0 $274 $352 forward @7 unknown #
face $-1 -1 $-1 $-1 $385 $30 $-1 $247 reversed single #
vertex $-1 -1 $-1 $279 $413 #
attrib_edge_convexity-kcp-attrib $-1 -1 $414 $-1 $282 1 #
vertex $-1 -1 $-1 $282 $415 #
ellipse-curve $416 -1 $-1 80.000000000000099 -2.2757879133407899e-014 -36 0 6.1232329394368604e-017 1 -4 0 0 1 I I #
convexity-sys-attrib $-1 -1 $417 $283 $203 #
point $-1 -1 $-1 75.000000000000099 -2.26966468040136e-014 -35 #
cur-twe-attrib $-1 -1 $-1 $-1 $285 61 #
edge_name-twe-attrib $-1 -1 $-1 $286 $144 2 8448 #
straight-curve $-1 -1 $-1 -5 5.0000000000000027 0 0 0 -1 I I #
point $-1 -1 $-1 -5 -5.0000000000000027 -40 #
straight-curve $-1 -1 $-1 -5 0 -40 0 1 0 I I #
point $-1 -1 $-1 -5 5.0000000000000027 -40 #
point $-1 -1 $-1 5 0 0.5 #
point $-1 -1 $-1 5 0 0.5 #
face $-1 -1 $-1 $334 $418 $30 $-1 $400 forward single #
loop $-1 -1 $-1 $-1 $329 $311 #
plane-surface $-1 -1 $-1 -5 0 0 1 0 0 0 0 -1 forward_v I I I I #
coedge $-1 -1 $-1 $315 $314 $419 $420 reversed $178 $-1 #
coedge $-1 -1 $-1 $421 $422 $423 $319 forward $424 $-1 #
coedge $-1 -1 $-1 $377 $316 $422 $389 forward $378 $-1 #
coedge $-1 -1 $-1 $316 $376 $395 $425 forward $378 $-1 #
loop $-1 -1 $-1 $-1 $316 $426 #
coedge $-1 -1 $-1 $427 $428 $318 $380 forward $429 $-1 #
edge $-1 -1 $-1 $270 1.2246063538223773e-016 $381 1.5707963267948968 $379 $260 forward @7 unknown #
vertex $-1 -1 $-1 $430 $431 #
straight-curve $-1 -1 $-1 0 -5.0000000000000027 40 0 6.1232329394368604e-017 1 I I #
coedge $-1 -1 $-1 $432 $320 $428 $433 reversed $385 $-1 #
coedge $-1 -1 $-1 $320 $432 $321 $341 reversed $385 $-1 #
loop $-1 -1 $-1 $-1 $320 $356 #
coedge $-1 -1 $-1 $434 $423 $322 $387 reversed $435 $-1 #
edge $-1 -1 $-1 $405 -5 $324 0 $386 $436 forward @7 unknown #
face $-1 -1 $-1 $340 $323 $30 $-1 $404 reversed single #
edge $-1 -1 $-1 $324 0 $437 5 $422 $436 forward @7 unknown #
point $-1 -1 $-1 0 -5.0000000000000036 -40 #
coedge $-1 -1 $-1 $354 $325 $328 $394 forward $392 $-1 #
loop $-1 -1 $-1 $-1 $325 $403 #
coedge $-1 -1 $-1 $328 $327 $353 $411 forward $330 $-1 #
edge $-1 -1 $-1 $331 -2.3297754803050886e-015 $412 5.0000000000000027 $328 $438 forward @7 unknown #
coedge $-1 -1 $-1 $439 $329 $377 $425 reversed $372 $-1 #
coedge $-1 -1 $-1 $329 $439 $440 $335 reversed $372 $-1 #
face $-1 -1 $-1 $277 $330 $30 $-1 $373 reversed single #
point $-1 -1 $-1 -5 -2.3297754803050886e-015 -40 #
straight-curve $-1 -1 $-1 -5 0 40 0 -1 0 I I #
plane-surface $-1 -1 $-1 0 0 40 0 0 1 1 0 0 forward_v I I I I #
vertex $-1 -1 $-1 $335 $441 #
straight-curve $-1 -1 $-1 5 0 -40 0 -1 0 I I #
face $-1 -1 $-1 $442 $392 $30 $-1 $404 reversed single #
plane-surface $-1 -1 $-1 0 0 -40 0 0 1 1 0 0 forward_v I I I I #
vertex $-1 -1 $-1 $443 $444 #
straight-curve $-1 -1 $-1 5 0 40 0 1 0 I I #
face $-1 -1 $-1 $445 $429 $30 $-1 $400 forward single #
straight-curve $-1 -1 $-1 5 5.0000000000000027 0 0 0 -1 I I #
point $-1 -1 $-1 5 5.0000000000000027 40 #
point $-1 -1 $-1 5 5.0000000000000027 -40 #
edge $-1 -1 $-1 $357 -40 $412 40 $353 $446 forward @7 unknown #
vertex $-1 -1 $-1 $355 $447 #
point $-1 -1 $-1 -5 5.0000000000000027 40 #
convexity-sys-attrib $-1 -1 $448 $358 $282 #
point $-1 -1 $-1 76.000000000000099 -2.2757879133407899e-014 -36 #
cur-twe-attrib $-1 -1 $-1 $-1 $360 65 #
edge_name-twe-attrib $-1 -1 $-1 $361 $203 3 8448 #
loop $-1 -1 $-1 $-1 $419 $371 #
coedge $-1 -1 $-1 $440 $449 $374 $420 forward $418 $-1 #
edge $-1 -1 $-1 $381 1.5707963267948968 $259 3.1415926535897931 $419 $260 forward @7 unknown #
coedge $-1 -1 $-1 $450 $375 $449 $451 reversed $424 $-1 #
coedge $-1 -1 $-1 $375 $450 $376 $389 reversed $424 $-1 #
coedge $-1 -1 $-1 $386 $452 $249 $319 reversed $435 $-1 #
loop $-1 -1 $-1 $-1 $375 $442 #
edge $-1 -1 $-1 $437 -5.0000000000000027 $331 -2.3297754803050886e-015 $395 $438 forward @7 unknown #
face $-1 -1 $-1 $388 $378 $30 $-1 $404 reversed single #
coedge $-1 -1 $-1 $428 $379 $452 $430 forward $429 $-1 #
coedge $-1 -1 $-1 $379 $427 $383 $433 forward $429 $-1 #
loop $-1 -1 $-1 $-1 $379 $407 #
edge $-1 -1 $-1 $381 0 $453 5 $452 $454 forward @7 unknown #
point $-1 -1 $-1 0 -5.0000000000000027 40 #
coedge $-1 -1 $-1 $384 $383 $434 $443 forward $385 $-1 #
edge $-1 -1 $-1 $453 -5.0000000000000027 $270 2.5688108712443995e-015 $383 $406 forward @7 unknown #
coedge $-1 -1 $-1 $452 $386 $432 $443 reversed $435 $-1 #
loop $-1 -1 $-1 $-1 $423 $445 #
straight-curve $-1 -1 $-1 0 -5.0000000000000027 -40 -1 0 0 I I #
vertex $-1 -1 $-1 $425 $455 #
straight-curve $-1 -1 $-1 -5 0 -40 0 1 0 I I #
coedge $-1 -1 $-1 $396 $395 $450 $456 reversed $372 $-1 #
coedge $-1 -1 $-1 $449 $419 $396 $335 forward $418 $-1 #
point $-1 -1 $-1 -5 -5.0000000000000027 40 #
face $-1 -1 $-1 $397 $424 $30 $-1 $457 reversed single #
edge $-1 -1 $-1 $453 -40 $405 40 $432 $458 forward @7 unknown #
point $-1 -1 $-1 5 -5.0000000000000027 -40 #
face $-1 -1 $-1 $426 $435 $30 $-1 $457 reversed single #
straight-curve $-1 -1 $-1 -5 5.0000000000000027 0 0 0 -1 I I #
point $-1 -1 $-1 -5 5.0000000000000027 -40 #
edge_name-twe-attrib $-1 -1 $-1 $414 $282 4 8448 #
coedge $-1 -1 $-1 $419 $440 $421 $451 forward $418 $-1 #
coedge $-1 -1 $-1 $422 $421 $439 $456 forward $424 $-1 #
edge $-1 -1 $-1 $401 -5 $381 0 $421 $454 forward @7 unknown #
coedge $-1 -1 $-1 $423 $434 $427 $430 reversed $435 $-1 #
vertex $-1 -1 $-1 $433 $459 #
straight-curve $-1 -1 $-1 0 -5.0000000000000027 40 1 0 0 I I #
point $-1 -1 $-1 -5 -5.0000000000000027 -40 #
edge $-1 -1 $-1 $401 -40 $437 40 $439 $460 forward @7 unknown #
plane-surface $-1 -1 $-1 0 -5.0000000000000027 0 0 1 0 0 0 1 forward_v I I I I #
straight-curve $-1 -1 $-1 5 -5.0000000000000027 0 0 0 -1 I I #
point $-1 -1 $-1 5 -5.0000000000000027 40 #
straight-curve $-1 -1 $-1 -5 -5.0000000000000027 0 0 0 -1 I I #
End-of-ACIS-data 