105 957 1 0                             
body $-1 $1 $-1 $2 #
lump $-1 $-1 $3 $0 #
transform $-1 1 0 4.87617677579594e-29 0 1 0 -4.87617677579594e-29 -3.40501604351836e-43 1 0 0 0 1 1 0 0 #
shell $-1 $-1 $-1 $4 $1 #
face $-1 $5 $6 $3 $-1 $7 forward single #
face $-1 $8 $9 $3 $-1 $10 forward single #
loop $-1 $-1 $11 $4 #
plane-surface $-1 35.0000000000005 -64.9999999999998 -12.4999999999995 -1 -6.98296267768627e-15 4.87617677579594e-29 -0 6.98296267768627e-15 1 0 #
face $-1 $12 $13 $3 $-1 $14 forward single #
loop $-1 $-1 $15 $5 #
plane-surface $-1 25.0000000000005 -64.9999999999999 -12.4999999999995 1 6.98296267768627e-15 -4.87617677579594e-29 0 -6.98296267768627e-15 -1 0 #
coedge $-1 $16 $17 $18 $19 1 $6 $-1 #
face $-1 $20 $21 $3 $-1 $22 reversed single #
loop $-1 $-1 $23 $8 #
plane-surface $-1 40 1.04744440165294e-13 -25 0 -6.98296267768627e-15 -1 -1 -6.98296267768627e-15 4.87617677579594e-29 0 #
coedge $-1 $24 $25 $26 $27 1 $9 $-1 #
coedge $-1 $28 $11 $29 $30 1 $6 $-1 #
coedge $-1 $11 $28 $31 $32 1 $6 $-1 #
coedge $-1 $33 $34 $11 $19 0 $35 $-1 #
edge $-1 $36 $37 $18 $38 0 #
face $-1 $39 $40 $3 $-1 $41 forward single #
loop $-1 $-1 $42 $12 #
plane-surface $-1 0 -75 0 0 1 -0 -0 0 1 0 #
coedge $-1 $43 $44 $25 $45 0 $13 $-1 #
coedge $-1 $46 $15 $47 $48 1 $9 $-1 #
coedge $-1 $15 $46 $23 $45 1 $9 $-1 #
coedge $-1 $49 $50 $15 $27 0 $35 $-1 #
edge $-1 $51 $52 $26 $53 0 #
coedge $-1 $17 $16 $54 $55 1 $6 $-1 #
coedge $-1 $56 $57 $16 $30 0 $13 $-1 #
edge $-1 $58 $36 $29 $59 0 #
coedge $-1 $60 $61 $17 $32 0 $62 $-1 #
edge $-1 $37 $63 $31 $64 0 #
coedge $-1 $50 $18 $61 $65 1 $35 $-1 #
coedge $-1 $18 $49 $56 $66 1 $35 $-1 #
loop $-1 $-1 $26 $67 #
vertex $-1 $19 $68 #
vertex $-1 $65 $69 #
straight-curve $-1 35.0000000000004 -63.6602540378442 -12.4999999999996 -0 6.98296267768627e-15 1 #
face $-1 $70 $71 $3 $-1 $72 forward single #
loop $-1 $-1 $73 $20 #
plane-surface $-1 -24.9999999999995 -65.0000000000003 -12.4999999999995 -1 -6.98296267768627e-15 4.87617677579594e-29 -0 6.98296267768627e-15 1 0 #
coedge $-1 $74 $75 $46 $76 0 $21 $-1 #
coedge $-1 $77 $23 $75 $78 1 $13 $-1 #
coedge $-1 $23 $56 $49 $79 0 $13 $-1 #
edge $-1 $52 $80 $23 $81 0 #
coedge $-1 $25 $24 $42 $76 1 $9 $-1 #
coedge $-1 $82 $83 $24 $48 0 $62 $-1 #
edge $-1 $84 $51 $47 $85 0 #
coedge $-1 $34 $26 $44 $79 1 $35 $-1 #
coedge $-1 $26 $33 $82 $86 1 $35 $-1 #
vertex $-1 $48 $87 #
vertex $-1 $79 $88 #
straight-curve $-1 25.0000000000004 -63.6602540378443 -12.4999999999996 -0 -6.98296267768627e-15 -1 #
coedge $-1 $89 $90 $28 $55 0 $91 $-1 #
edge $-1 $63 $58 $54 $92 0 #
coedge $-1 $44 $29 $34 $66 0 $13 $-1 #
coedge $-1 $29 $93 $89 $94 1 $13 $-1 #
vertex $-1 $55 $95 #
straight-curve $-1 35.0000000000002 -32.4999999999999 -24.9999999999998 -6.98296267768627e-15 1 -6.98296267768627e-15 #
coedge $-1 $96 $31 $90 $97 1 $62 $-1 #
coedge $-1 $31 $82 $33 $65 0 $62 $-1 #
loop $-1 $-1 $47 $98 #
vertex $-1 $97 $99 #
straight-curve $-1 35.0000000000004 -57.4999999999998 0 6.98296267768627e-15 -1 0 #
edge $-1 $100 $37 $61 $101 0 #
edge $-1 $36 $102 $56 $103 0 #
face $-1 $104 $35 $3 $-1 $105 reversed single #
point $-1 35.0000000000004 -63.6602540378443 -24.9999999999996 #
point $-1 35.0000000000004 -63.6602540378441 4.45865566689463e-13 #
face $-1 $106 $107 $3 $-1 $108 forward single #
loop $-1 $-1 $109 $39 #
plane-surface $-1 -34.9999999999995 -65.0000000000003 -12.4999999999995 1 6.98296267768627e-15 -4.87617677579594e-29 0 -6.98296267768627e-15 -1 0 #
coedge $-1 $110 $111 $112 $113 1 $40 $-1 #
coedge $-1 $114 $42 $83 $115 0 $21 $-1 #
coedge $-1 $42 $116 $43 $78 0 $21 $-1 #
edge $-1 $80 $84 $42 $117 0 #
coedge $-1 $118 $43 $119 $120 0 $13 $-1 #
edge $-1 $121 $80 $75 $122 0 #
edge $-1 $102 $52 $44 $103 0 #
vertex $-1 $78 $123 #
straight-curve $-1 25.0000000000002 -32.5 -24.9999999999998 6.98296267768627e-15 -1 6.98296267768627e-15 #
coedge $-1 $61 $47 $50 $86 0 $62 $-1 #
coedge $-1 $47 $124 $74 $115 1 $62 $-1 #
vertex $-1 $48 $125 #
straight-curve $-1 25.0000000000004 -57.4999999999999 0 -6.98296267768627e-15 1 0 #
edge $-1 $51 $100 $82 $101 0 #
point $-1 25.0000000000004 -63.6602540378442 4.45865566689463e-13 #
point $-1 25.0000000000004 -63.6602540378444 -24.9999999999996 #
coedge $-1 $126 $54 $57 $94 0 $91 $-1 #
coedge $-1 $54 $126 $60 $97 0 $91 $-1 #
loop $-1 $-1 $54 $127 #
straight-curve $-1 35.0000000000005 -75 -6.24999999999977 -4.87617677579594e-29 0 -1 #
coedge $-1 $57 $128 $129 $130 1 $13 $-1 #
edge $-1 $58 $131 $89 $122 0 #
point $-1 35.0000000000005 -74.9999999999999 -24.9999999999995 #
coedge $-1 $132 $60 $133 $134 1 $62 $-1 #
edge $-1 $135 $63 $90 $136 0 #
face $-1 $137 $62 $3 $-1 $138 forward single #
point $-1 35.0000000000005 -74.9999999999997 5.24025267623074e-13 #
vertex $-1 $86 $139 #
ellipse-curve $-1 30.0000000000004 -54.9999999999998 3.5527136788005e-14 -0 -0 -1 -10 -6.98296267768627e-14 4.87617677579594e-28 1 #
vertex $-1 $66 $140 #
ellipse-curve $-1 30.0000000000004 -55 -24.9999999999996 -0 6.98296267768627e-15 1 -10 -6.98296267768627e-14 4.87617677579594e-28 1 #
face $-1 $141 $142 $3 $-1 $143 reversed single #
cone-surface $-1 30.0000000000004 -54.9999999999999 -12.4999999999996 0 -6.98296267768627e-15 -1 -10 -6.98296267768627e-14 4.87617677579594e-28 1 0 1 0 #
face $-1 $67 $144 $3 $-1 $22 reversed single #
loop $-1 $-1 $145 $70 #
plane-surface $-1 -40 -4.53892574049607e-13 -25 0 -6.98296267768627e-15 -1 -1 -6.98296267768627e-15 4.87617677579594e-29 0 #
coedge $-1 $146 $147 $148 $149 1 $71 $-1 #
coedge $-1 $150 $73 $151 $152 1 $40 $-1 #
coedge $-1 $73 $150 $124 $153 1 $40 $-1 #
coedge $-1 $154 $155 $73 $113 0 $142 $-1 #
edge $-1 $156 $157 $112 $158 0 #
coedge $-1 $159 $74 $150 $160 0 $21 $-1 #
edge $-1 $84 $161 $74 $136 0 #
coedge $-1 $75 $162 $163 $164 1 $21 $-1 #
straight-curve $-1 25.0000000000005 -75 -6.24999999999977 4.87617677579594e-29 0 1 #
coedge $-1 $128 $77 $165 $166 1 $13 $-1 #
coedge $-1 $163 $167 $77 $120 1 $168 $-1 #
edge $-1 $121 $169 $77 $170 0 #
vertex $-1 $78 $171 #
straight-curve $-1 20 -75 -24.9999999999995 1 0 0 #
point $-1 25.0000000000005 -75 -24.9999999999995 #
coedge $-1 $83 $172 $111 $153 0 $62 $-1 #
point $-1 25.0000000000005 -74.9999999999998 5.24025267623074e-13 #
coedge $-1 $90 $89 $173 $174 1 $91 $-1 #
face $-1 $175 $91 $3 $-1 $22 reversed single #
coedge $-1 $93 $118 $176 $177 1 $13 $-1 #
coedge $-1 $178 $173 $93 $130 0 $179 $-1 #
edge $-1 $131 $180 $129 $181 0 #
vertex $-1 $174 $182 #
coedge $-1 $183 $96 $184 $185 1 $62 $-1 #
coedge $-1 $173 $186 $96 $134 0 $179 $-1 #
edge $-1 $187 $135 $133 $188 0 #
vertex $-1 $97 $189 #
straight-curve $-1 0 -75 0 -1 0 0 #
face $-1 $190 $191 $3 $-1 $192 forward single #
plane-surface $-1 0 -50 0 0 0 1 1 0 0 0 #
point $-1 20.0000000000004 -54.9999999999999 3.83693077310454e-13 #
point $-1 20.0000000000004 -55 -24.9999999999996 #
face $-1 $193 $194 $3 $-1 $195 reversed single #
loop $-1 $-1 $148 $104 #
cone-surface $-1 -29.9999999999996 -55.0000000000003 -12.4999999999996 0 -6.98296267768627e-15 -1 -10 -6.98296267768627e-14 4.87617677579594e-28 1 0 1 0 #
loop $-1 $-1 $196 $106 #
coedge $-1 $197 $198 $147 $199 0 $107 $-1 #
coedge $-1 $200 $109 $201 $202 1 $71 $-1 #
coedge $-1 $109 $200 $145 $199 1 $71 $-1 #
coedge $-1 $203 $204 $109 $149 0 $142 $-1 #
edge $-1 $205 $206 $148 $207 0 #
coedge $-1 $111 $110 $114 $160 1 $40 $-1 #
coedge $-1 $208 $209 $110 $152 0 $107 $-1 #
edge $-1 $210 $156 $151 $211 0 #
edge $-1 $157 $161 $124 $212 0 #
coedge $-1 $204 $112 $172 $213 1 $142 $-1 #
coedge $-1 $112 $203 $208 $214 1 $142 $-1 #
vertex $-1 $113 $215 #
vertex $-1 $213 $216 #
straight-curve $-1 -24.9999999999996 -63.6602540378446 -12.4999999999996 -0 6.98296267768627e-15 1 #
coedge $-1 $217 $114 $209 $218 0 $21 $-1 #
edge $-1 $161 $210 $114 $219 0 #
vertex $-1 $115 $220 #
coedge $-1 $116 $221 $222 $223 0 $21 $-1 #
coedge $-1 $224 $119 $116 $164 0 $168 $-1 #
edge $-1 $121 $225 $116 $226 0 #
coedge $-1 $227 $228 $118 $166 0 $229 $-1 #
edge $-1 $230 $169 $165 $231 0 #
coedge $-1 $119 $232 $227 $233 0 $168 $-1 #
loop $-1 $-1 $234 $235 #
vertex $-1 $166 $236 #
straight-curve $-1 22.7884615384615 -11.0576923076921 -24.9999999999999 0.196116135138177 0.980580675690922 -6.84735826081009e-15 #
point $-1 10.0000000000004 -75 -24.9999999999995 #
coedge $-1 $124 $237 $154 $213 0 $62 $-1 #
coedge $-1 $129 $133 $126 $174 0 $179 $-1 #
edge $-1 $135 $131 $173 $238 0 #
face $-1 $239 $240 $3 $-1 $241 forward single #
coedge $-1 $242 $243 $128 $177 0 $244 $-1 #
edge $-1 $180 $230 $176 $245 0 #
coedge $-1 $246 $129 $243 $247 1 $179 $-1 #
loop $-1 $248 $129 $249 #
vertex $-1 $247 $250 #
straight-curve $-1 50 -3.49148133884313e-14 -25 0 1 -6.98296267768627e-15 #
point $-1 50.0000000000005 -74.9999999999998 -24.9999999999995 #
coedge $-1 $251 $132 $252 $253 1 $62 $-1 #
coedge $-1 $254 $255 $132 $185 0 $256 $-1 #
edge $-1 $257 $187 $184 $258 0 #
coedge $-1 $133 $246 $254 $259 0 $179 $-1 #
vertex $-1 $134 $260 #
straight-curve $-1 50 -25 0 0 -1 0 #
point $-1 50 -75 0 #
face $-1 $-1 $261 $3 $-1 $262 reversed single #
loop $-1 $-1 $263 $137 #
plane-surface $-1 0 0 50 0 0 1 1 0 0 0 #
face $-1 $264 $265 $3 $-1 $266 forward single #
loop $-1 $-1 $267 $141 #
plane-surface $-1 40 -4.99999999999995 -32.5 -0 6.98296267768627e-15 1 1 6.98296267768627e-15 -4.87617677579594e-29 0 #
coedge $-1 $268 $269 $200 $270 0 $144 $-1 #
coedge $-1 $271 $145 $269 $272 1 $107 $-1 #
coedge $-1 $145 $208 $203 $273 0 $107 $-1 #
edge $-1 $206 $274 $145 $275 0 #
coedge $-1 $147 $146 $196 $270 1 $71 $-1 #
coedge $-1 $237 $251 $146 $202 0 $62 $-1 #
edge $-1 $276 $205 $201 $277 0 #
coedge $-1 $155 $148 $198 $273 1 $142 $-1 #
coedge $-1 $148 $154 $237 $278 1 $142 $-1 #
vertex $-1 $202 $279 #
vertex $-1 $273 $280 #
straight-curve $-1 -34.9999999999996 -63.6602540378447 -12.4999999999996 -0 -6.98296267768627e-15 -1 #
coedge $-1 $198 $151 $155 $214 0 $107 $-1 #
coedge $-1 $151 $281 $159 $218 1 $107 $-1 #
vertex $-1 $160 $282 #
straight-curve $-1 -24.9999999999998 -32.5000000000004 -24.9999999999998 -6.98296267768627e-15 1 -6.98296267768627e-15 #
straight-curve $-1 -24.9999999999996 -57.5000000000002 0 6.98296267768627e-15 -1 0 #
edge $-1 $283 $157 $172 $284 0 #
edge $-1 $156 $285 $208 $286 0 #
point $-1 -24.9999999999996 -63.6602540378447 -24.9999999999996 #
point $-1 -24.9999999999996 -63.6602540378446 4.45865566689463e-13 #
coedge $-1 $287 $159 $288 $289 1 $21 $-1 #
edge $-1 $210 $290 $159 $291 0 #
straight-curve $-1 -24.9999999999995 -75 -6.24999999999977 -4.87617677579594e-29 0 -1 #
point $-1 -24.9999999999995 -75.0000000000002 5.24025267623074e-13 #
coedge $-1 $162 $292 $293 $294 1 $21 $-1 #
coedge $-1 $295 $296 $162 $223 1 $265 $-1 #
edge $-1 $297 $225 $162 $226 1 #
coedge $-1 $298 $163 $267 $299 0 $168 $-1 #
vertex $-1 $164 $300 #
straight-curve $-1 10.0000000000004 -75 -18.75 -4.87617677579594e-29 -0 -1 #
coedge $-1 $301 $165 $167 $233 1 $229 $-1 #
coedge $-1 $165 $301 $242 $302 1 $229 $-1 #
loop $-1 $-1 $227 $303 #
vertex $-1 $177 $304 #
straight-curve $-1 30 3.49148133884313e-14 -25 6.98296267768627e-15 -1 6.98296267768627e-15 #
coedge $-1 $167 $293 $305 $306 0 $168 $-1 #
edge $-1 $307 $169 $227 $308 0 #
coedge $-1 $293 $298 $309 $310 0 $168 $-1 #
face $-1 $127 $168 $3 $-1 $311 forward single #
point $-1 29.9999999999998 25.0000000000007 -25.0000000000002 #
coedge $-1 $172 $201 $204 $278 0 $62 $-1 #
straight-curve $-1 50 -75 0 0 0 -1 #
face $-1 $303 $312 $3 $-1 $313 forward single #
loop $-1 $-1 $314 $175 #
plane-surface $-1 -19.9999999999999 -25.0000000000003 -37.4999999999995 -0.980580675690919 -0.196116135138191 0 0 0 1 0 #
coedge $-1 $315 $176 $228 $302 0 $244 $-1 #
coedge $-1 $176 $316 $178 $247 0 $244 $-1 #
loop $-1 $-1 $242 $317 #
straight-curve $-1 20 75 -25.0000000000005 -1 -0 0 #
coedge $-1 $186 $178 $318 $319 1 $179 $-1 #
edge $-1 $320 $180 $178 $321 0 #
loop $-1 $322 $323 $249 #
face $-1 $317 $179 $3 $-1 $324 reversed single #
point $-1 49.9999999999995 75.0000000000002 -25.0000000000005 #
coedge $-1 $201 $183 $268 $325 1 $62 $-1 #
coedge $-1 $326 $327 $183 $253 0 $328 $-1 #
edge $-1 $329 $257 $252 $330 0 #
coedge $-1 $331 $184 $186 $259 1 $256 $-1 #
coedge $-1 $184 $332 $326 $333 1 $256 $-1 #
loop $-1 $-1 $334 $335 #
vertex $-1 $253 $336 #
straight-curve $-1 0 -25 0 1 0 0 #
edge $-1 $337 $187 $186 $338 0 #
point $-1 50 -25 0 #
loop $-1 $-1 $305 $190 #
plane-surface $-1 0 0 -50 0 0 1 1 0 0 0 #
coedge $-1 $339 $340 $341 $342 0 $191 $-1 #
face $-1 $343 $344 $3 $-1 $345 reversed single #
loop $-1 $-1 $222 $193 #
plane-surface $-1 10.0000000000003 -40.0000000000002 -37.4999999999997 1 6.98296267768627e-15 -4.87617677579594e-29 0 -6.98296267768627e-15 -1 0 #
coedge $-1 $346 $347 $224 $299 1 $194 $-1 #
coedge $-1 $348 $196 $251 $325 0 $144 $-1 #
coedge $-1 $196 $348 $197 $272 0 $144 $-1 #
edge $-1 $274 $276 $196 $349 0 #
coedge $-1 $350 $197 $351 $352 1 $107 $-1 #
edge $-1 $353 $274 $269 $291 0 #
edge $-1 $285 $206 $198 $286 0 #
vertex $-1 $272 $354 #
straight-curve $-1 -34.9999999999998 -32.5000000000004 -24.9999999999998 6.98296267768627e-15 -1 6.98296267768627e-15 #
vertex $-1 $202 $355 #
straight-curve $-1 -34.9999999999996 -57.5000000000003 0 -6.98296267768627e-15 1 0 #
edge $-1 $205 $283 $237 $284 0 #
point $-1 -34.9999999999996 -63.6602540378446 4.45865566689463e-13 #
point $-1 -34.9999999999996 -63.6602540378448 -24.9999999999996 #
coedge $-1 $209 $356 $357 $358 0 $107 $-1 #
point $-1 -24.9999999999995 -75.0000000000004 -24.9999999999995 #
vertex $-1 $278 $359 #
ellipse-curve $-1 -29.9999999999996 -55.0000000000002 3.5527136788005e-14 -0 -0 -1 -10 -6.98296267768627e-14 4.87617677579594e-28 1 #
vertex $-1 $214 $360 #
ellipse-curve $-1 -29.9999999999996 -55.0000000000004 -24.9999999999996 -0 6.98296267768627e-15 1 -10 -6.98296267768627e-14 4.87617677579594e-28 1 #
coedge $-1 $361 $217 $362 $363 0 $21 $-1 #
coedge $-1 $357 $314 $217 $289 0 $240 $-1 #
edge $-1 $364 $290 $217 $365 0 #
vertex $-1 $218 $366 #
straight-curve $-1 -20 -75 -24.9999999999995 1 0 0 #
coedge $-1 $221 $361 $367 $368 1 $21 $-1 #
coedge $-1 $232 $234 $221 $294 0 $168 $-1 #
edge $-1 $297 $369 $221 $226 0 #
coedge $-1 $370 $222 $371 $372 0 $265 $-1 #
coedge $-1 $222 $370 $346 $373 0 $265 $-1 #
vertex $-1 $223 $374 #
coedge $-1 $234 $224 $375 $376 0 $168 $-1 #
edge $-1 $225 $377 $224 $378 0 #
point $-1 10.0000000000005 -75.0000000000002 -32.4999999999995 #
coedge $-1 $228 $227 $379 $380 1 $229 $-1 #
edge $-1 $230 $381 $242 $382 0 #
face $-1 $249 $229 $3 $-1 $383 forward single #
point $-1 29.9999999999995 75 -25.0000000000005 #
coedge $-1 $367 $379 $232 $306 1 $261 $-1 #
edge $-1 $369 $307 $305 $384 0 #
vertex $-1 $380 $385 #
straight-curve $-1 29.9999999999998 25.0000000000007 -18.75 4.87617677579594e-29 0 1 #
coedge $-1 $386 $371 $234 $310 1 $387 $-1 #
edge $-1 $388 $297 $234 $389 0 #
plane-surface $-1 20.0000000000001 -24.9999999999997 -37.4999999999995 0.980580675690921 -0.196116135138177 0 0 0 -1 0 #
loop $-1 $-1 $390 $239 #
plane-surface $-1 -30 -4.71349980743823e-13 -37.5 -1 -6.98296267768627e-15 4.87617677579594e-29 -0 6.98296267768627e-15 1 0 #
coedge $-1 $288 $391 $392 $393 0 $240 $-1 #
coedge $-1 $394 $242 $395 $396 1 $244 $-1 #
coedge $-1 $243 $397 $340 $398 1 $244 $-1 #
face $-1 $399 $244 $3 $-1 $400 reversed single #
coedge $-1 $340 $339 $246 $319 0 $191 $-1 #
edge $-1 $337 $320 $246 $401 0 #
vertex $-1 $319 $402 #
straight-curve $-1 50 75 0 0 0 -1 #
loop $-1 $-1 $403 $249 #
coedge $-1 $323 $323 $404 $405 0 $248 $-1 #
plane-surface $-1 50 0 0 -1 0 0 0 -0 1 0 #
edge $-1 $276 $329 $268 $136 0 #
coedge $-1 $406 $252 $255 $333 0 $328 $-1 #
coedge $-1 $252 $351 $348 $407 1 $328 $-1 #
loop $-1 $408 $351 $399 #
vertex $-1 $325 $409 #
straight-curve $-1 -50 -25 0 0 1 0 #
coedge $-1 $410 $254 $339 $411 1 $256 $-1 #
coedge $-1 $255 $412 $413 $414 1 $256 $-1 #
edge $-1 $257 $415 $326 $416 0 #
coedge $-1 $417 $418 $419 $420 0 $256 $-1 #
face $-1 $421 $256 $3 $-1 $422 forward single #
point $-1 -50 -25 0 #
vertex $-1 $259 $423 #
straight-curve $-1 50 -25 12.5 -0 -0 -1 #
coedge $-1 $318 $263 $331 $411 0 $191 $-1 #
coedge $-1 $263 $318 $316 $398 0 $191 $-1 #
coedge $-1 $424 $425 $263 $342 1 $426 $-1 #
edge $-1 $427 $428 $263 $429 0 #
face $-1 $430 $387 $3 $-1 $431 reversed single #
loop $-1 $-1 $375 $264 #
cone-surface $-1 40 -4.99999999999998 -37.5 0 -6.98296267768627e-15 -1 -30 -2.09488880330588e-13 1.46285303273878e-27 1 0 1 0 #
coedge $-1 $347 $267 $296 $373 1 $194 $-1 #
coedge $-1 $267 $346 $432 $433 1 $194 $-1 #
coedge $-1 $269 $268 $327 $407 0 $144 $-1 #
straight-curve $-1 -34.9999999999995 -75 -6.24999999999977 4.87617677579594e-29 0 1 #
coedge $-1 $356 $271 $434 $435 1 $107 $-1 #
coedge $-1 $327 $436 $271 $352 0 $328 $-1 #
edge $-1 $437 $353 $351 $438 0 #
vertex $-1 $407 $439 #
point $-1 -34.9999999999995 -75.0000000000004 -24.9999999999995 #
point $-1 -34.9999999999995 -75.0000000000002 5.24025267623074e-13 #
coedge $-1 $281 $350 $440 $441 1 $107 $-1 #
coedge $-1 $442 $288 $281 $358 1 $240 $-1 #
edge $-1 $443 $290 $281 $444 0 #
point $-1 -39.9999999999996 -55.0000000000003 3.83693077310454e-13 #
point $-1 -39.9999999999996 -55.0000000000004 -24.9999999999996 #
coedge $-1 $292 $287 $445 $446 1 $21 $-1 #
coedge $-1 $447 $448 $287 $363 1 $449 $-1 #
edge $-1 $364 $450 $287 $365 1 #
vertex $-1 $363 $451 #
straight-curve $-1 -9.99999999999961 -75 -18.75 4.87617677579594e-29 0 1 #
point $-1 -9.99999999999961 -75 -24.9999999999995 #
coedge $-1 $452 $305 $292 $368 0 $261 $-1 #
edge $-1 $369 $453 $292 $454 0 #
vertex $-1 $306 $455 #
coedge $-1 $296 $295 $456 $457 0 $265 $-1 #
coedge $-1 $309 $386 $295 $372 1 $387 $-1 #
edge $-1 $297 $458 $295 $459 0 #
edge $-1 $460 $225 $296 $461 0 #
point $-1 10.0000000000005 -75.0000000000002 -42.4999999999995 #
coedge $-1 $432 $462 $298 $376 1 $344 $-1 #
edge $-1 $377 $388 $298 $463 0 #
vertex $-1 $376 $464 #
straight-curve $-1 22.3076923076923 -13.4615384615383 -32.4999999999999 0.196116135138177 0.980580675690922 -6.84735826081009e-15 #
coedge $-1 $305 $395 $301 $380 0 $261 $-1 #
edge $-1 $381 $307 $379 $465 0 #
vertex $-1 $396 $466 #
straight-curve $-1 29.9999999999995 75 -18.75 -4.87617677579594e-29 -0 -1 #
plane-surface $-1 30 -5.2372220082647e-14 -37.5 1 6.98296267768627e-15 -4.87617677579594e-29 0 -6.98296267768627e-15 -1 0 #
straight-curve $-1 22.0192307692308 -14.9038461538459 -50 0.196116135138177 0.980580675690922 -0 #
point $-1 29.9999999999998 25.0000000000007 -50 #
coedge $-1 $371 $309 $462 $467 1 $387 $-1 #
loop $-1 $-1 $309 $343 #
vertex $-1 $376 $468 #
straight-curve $-1 22.3076923076923 -13.4615384615384 -42.4999999999999 -0.196116135138177 -0.980580675690922 6.84735826081009e-15 #
coedge $-1 $440 $469 $442 $470 1 $312 $-1 #
coedge $-1 $314 $471 $472 $473 0 $240 $-1 #
coedge $-1 $474 $475 $314 $393 1 $476 $-1 #
edge $-1 $477 $364 $314 $478 0 #
coedge $-1 $434 $315 $479 $480 0 $244 $-1 #
coedge $-1 $379 $481 $315 $396 0 $261 $-1 #
edge $-1 $482 $381 $315 $483 0 #
coedge $-1 $316 $484 $424 $485 0 $244 $-1 #
edge $-1 $320 $427 $316 $486 0 #
face $-1 $487 $328 $3 $-1 $488 reversed single #
plane-surface $-1 0 75 0 0 -1 0 0 0 -1 0 #
straight-curve $-1 50 0 50 0 1 0 #
point $-1 50 75 50 #
coedge $-1 $403 $403 $489 $490 0 $322 $-1 #
coedge $-1 $404 $404 $323 $405 1 $491 $-1 #
edge $-1 $492 $492 $323 $493 0 #
coedge $-1 $436 $326 $494 $495 1 $328 $-1 #
edge $-1 $329 $353 $327 $496 0 #
loop $-1 $497 $498 $399 #
point $-1 -50 -75 0 #
coedge $-1 $499 $331 $425 $500 0 $256 $-1 #
edge $-1 $428 $337 $339 $501 0 #
coedge $-1 $332 $417 $502 $503 0 $256 $-1 #
coedge $-1 $504 $494 $332 $414 0 $505 $-1 #
edge $-1 $415 $506 $413 $501 0 #
vertex $-1 $495 $507 #
straight-curve $-1 -50 -25 12.5 -0 0 1 #
coedge $-1 $412 $334 $508 $509 0 $256 $-1 #
coedge $-1 $334 $510 $511 $512 0 $256 $-1 #
coedge $-1 $513 $514 $334 $420 1 $515 $-1 #
edge $-1 $516 $517 $334 $518 0 #
face $-1 $98 $505 $3 $-1 $192 forward single #
plane-surface $-1 0 -25 25 0 -1 0 0 0 -1 0 #
point $-1 50 -25 50 #
coedge $-1 $519 $341 $397 $485 1 $426 $-1 #
coedge $-1 $341 $520 $410 $500 1 $426 $-1 #
loop $-1 $-1 $521 $522 #
vertex $-1 $398 $523 #
vertex $-1 $342 $524 #
straight-curve $-1 25 12.5 50 0 -1 0 #
face $-1 $525 $526 $3 $-1 $527 reversed single #
plane-surface $-1 40 -5.00000000000002 -42.5 0 -6.98296267768627e-15 -1 -1 -6.98296267768627e-15 4.87617677579594e-29 0 #
coedge $-1 $456 $375 $347 $433 0 $344 $-1 #
edge $-1 $377 $460 $347 $528 0 #
coedge $-1 $529 $394 $350 $435 0 $244 $-1 #
edge $-1 $530 $437 $434 $531 0 #
coedge $-1 $351 $406 $529 $532 0 $328 $-1 #
vertex $-1 $532 $533 #
straight-curve $-1 -50 -3.14233320495882e-13 -25 0 -1 6.98296267768627e-15 #
point $-1 -49.9999999999995 -75.0000000000005 -24.9999999999995 #
coedge $-1 $479 $390 $356 $441 0 $312 $-1 #
edge $-1 $443 $530 $440 $534 0 #
coedge $-1 $535 $357 $390 $470 0 $240 $-1 #
vertex $-1 $358 $536 #
straight-curve $-1 -22.7884615384615 -11.0576923076926 -24.9999999999999 0.196116135138191 -0.980580675690919 6.84735826081007e-15 #
coedge $-1 $471 $535 $361 $446 0 $240 $-1 #
edge $-1 $453 $450 $361 $365 0 #
coedge $-1 $537 $362 $475 $538 0 $449 $-1 #
coedge $-1 $362 $537 $539 $540 0 $449 $-1 #
loop $-1 $-1 $537 $525 #
vertex $-1 $446 $541 #
point $-1 -9.99999999999947 -75.0000000000003 -32.4999999999995 #
coedge $-1 $481 $367 $535 $542 1 $261 $-1 #
vertex $-1 $368 $543 #
straight-curve $-1 0 -75 -50 -1 0 0 #
point $-1 10.0000000000004 -75 -50 #
coedge $-1 $462 $432 $370 $457 1 $344 $-1 #
edge $-1 $458 $460 $456 $544 0 #
vertex $-1 $467 $545 #
straight-curve $-1 10.0000000000003 -40.0000000000002 -42.4999999999997 -6.98296267768627e-15 1 -6.98296267768627e-15 #
vertex $-1 $433 $546 #
straight-curve $-1 10.0000000000003 -40.0000000000002 -32.4999999999997 6.98296267768627e-15 -1 6.98296267768627e-15 #
coedge $-1 $375 $456 $386 $467 0 $344 $-1 #
straight-curve $-1 29.6301556963094 23.1507784815485 -37.5000000000002 0 -6.98296267768627e-15 -1 #
point $-1 29.6301556963094 23.1507784815486 -32.5000000000002 #
straight-curve $-1 30 7.85583301239705e-14 -50 6.98296267768627e-15 -1 0 #
point $-1 29.9999999999995 74.9999999999999 -50.0000000000005 #
edge $-1 $458 $388 $386 $547 0 #
point $-1 29.6301556963094 23.1507784815485 -42.5000000000002 #
coedge $-1 $390 $479 $481 $548 1 $312 $-1 #
edge $-1 $443 $549 $390 $550 0 #
coedge $-1 $391 $445 $551 $552 0 $240 $-1 #
coedge $-1 $553 $554 $391 $473 1 $555 $-1 #
edge $-1 $556 $477 $391 $557 0 #
coedge $-1 $475 $392 $554 $558 1 $476 $-1 #
coedge $-1 $392 $474 $447 $538 1 $476 $-1 #
loop $-1 $-1 $392 $559 #
vertex $-1 $473 $560 #
straight-curve $-1 -22.3076923076923 -13.4615384615388 -32.4999999999999 0.196116135138191 -0.980580675690919 6.84735826081007e-15 #
coedge $-1 $469 $440 $394 $480 1 $312 $-1 #
edge $-1 $482 $530 $394 $561 0 #
coedge $-1 $395 $452 $469 $548 0 $261 $-1 #
vertex $-1 $548 $562 #
straight-curve $-1 0 75 -50 1 0 0 #
coedge $-1 $397 $563 $564 $565 0 $244 $-1 #
edge $-1 $566 $427 $397 $567 0 #
straight-curve $-1 0 75 50 -1 0 0 #
face $-1 $568 $569 $3 $-1 $570 reversed single #
plane-surface $-1 -50 0 0 1 0 0 0 0 -1 0 #
coedge $-1 $489 $489 $403 $490 1 $571 $-1 #
edge $-1 $572 $572 $403 $573 0 #
loop $-1 $-1 $404 $574 #
vertex $-1 $405 $575 #
ellipse-curve $-1 50.0000000000001 10 24.9999999999998 -1 0 0 -2.44403693719019e-14 0 -7 1 #
coedge $-1 $413 $576 $406 $495 0 $505 $-1 #
edge $-1 $577 $415 $406 $578 0 #
straight-curve $-1 -50 -75 0 0 0 -1 #
loop $-1 $-1 $579 $399 #
coedge $-1 $498 $498 $580 $581 0 $408 $-1 #
coedge $-1 $510 $410 $582 $583 0 $256 $-1 #
edge $-1 $428 $584 $410 $585 0 #
straight-curve $-1 0 -25 50 1 0 -0 #
coedge $-1 $586 $587 $412 $503 1 $588 $-1 #
edge $-1 $589 $506 $412 $590 0 #
coedge $-1 $576 $413 $587 $591 0 $505 $-1 #
loop $-1 $-1 $504 $421 #
vertex $-1 $414 $592 #
point $-1 -50 -25 50 #
coedge $-1 $593 $594 $417 $509 1 $595 $-1 #
edge $-1 $517 $589 $417 $596 0 #
coedge $-1 $418 $499 $597 $598 0 $256 $-1 #
coedge $-1 $599 $600 $418 $512 1 $601 $-1 #
edge $-1 $602 $516 $418 $596 0 #
coedge $-1 $603 $419 $600 $604 1 $515 $-1 #
coedge $-1 $419 $605 $593 $606 1 $515 $-1 #
loop $-1 $-1 $605 $607 #
vertex $-1 $512 $608 #
vertex $-1 $606 $609 #
ellipse-curve $-1 -12.5 -25 24.9999999999998 -0 1 -0 7 0 0 1 #
coedge $-1 $521 $424 $610 $611 0 $426 $-1 #
coedge $-1 $425 $612 $613 $614 0 $426 $-1 #
coedge $-1 $615 $519 $616 $617 0 $426 $-1 #
face $-1 $335 $426 $3 $-1 $618 forward single #
point $-1 25 75 50 #
point $-1 25 -25 50 #
face $-1 $619 $449 $3 $-1 $620 forward single #
loop $-1 $-1 $551 $430 #
plane-surface $-1 -40 -5.00000000000058 -42.5 0 -6.98296267768627e-15 -1 -1 -6.98296267768627e-15 4.87617677579594e-29 0 #
ellipse-curve $-1 40 -4.99999999999995 -32.5 -0 6.98296267768627e-15 1 -30 -2.09488880330588e-13 1.46285303273878e-27 1 #
coedge $-1 $621 $434 $436 $532 1 $244 $-1 #
vertex $-1 $435 $622 #
straight-curve $-1 -20 75 -25.0000000000005 -1 -0 0 #
edge $-1 $577 $437 $529 $623 0 #
point $-1 -50.0000000000005 74.9999999999995 -25.0000000000005 #
straight-curve $-1 -30 -3.84062947272745e-13 -25 -6.98296267768627e-15 1 -6.98296267768627e-15 #
coedge $-1 $445 $442 $452 $542 0 $240 $-1 #
point $-1 -30.0000000000002 24.9999999999993 -25.0000000000002 #
coedge $-1 $448 $447 $624 $625 0 $449 $-1 #
edge $-1 $364 $626 $447 $627 0 #
coedge $-1 $628 $551 $448 $540 1 $526 $-1 #
edge $-1 $629 $450 $448 $630 0 #
point $-1 -9.99999999999947 -75.0000000000004 -42.4999999999995 #
edge $-1 $549 $453 $452 $631 0 #
point $-1 -9.99999999999961 -75 -50 #
straight-curve $-1 10 -5.00000000000019 -37.5 0 6.98296267768627e-15 1 #
point $-1 10 -5.00000000000023 -42.5 #
point $-1 10 -5.00000000000016 -32.5 #
ellipse-curve $-1 40 -5.00000000000002 -42.5 0 -6.98296267768627e-15 -1 -30 -2.09488880330588e-13 1.46285303273878e-27 1 #
edge $-1 $549 $482 $481 $632 0 #
vertex $-1 $542 $633 #
straight-curve $-1 -30.0000000000002 24.9999999999993 -18.75 -4.87617677579594e-29 0 -1 #
coedge $-1 $539 $628 $471 $552 1 $526 $-1 #
edge $-1 $450 $556 $471 $634 0 #
coedge $-1 $624 $472 $628 $635 0 $555 $-1 #
coedge $-1 $472 $624 $474 $558 0 $555 $-1 #
loop $-1 $-1 $472 $619 #
vertex $-1 $473 $636 #
straight-curve $-1 -29.6301556963099 23.1507784815482 -37.5000000000002 -0 6.98296267768627e-15 1 #
edge $-1 $626 $477 $474 $637 0 #
face $-1 $235 $476 $3 $-1 $638 reversed single #
point $-1 -29.6301556963099 23.1507784815482 -32.5000000000002 #
straight-curve $-1 -30.0000000000005 75 -18.75 4.87617677579594e-29 0 1 #
point $-1 -30.0000000000005 74.9999999999994 -50.0000000000005 #
coedge $-1 $484 $639 $640 $641 0 $244 $-1 #
coedge $-1 $642 $610 $484 $565 1 $643 $-1 #
edge $-1 $644 $566 $484 $645 0 #
vertex $-1 $565 $646 #
straight-curve $-1 25 75 18.75 0 0 1 #
face $-1 $647 $648 $3 $-1 $570 reversed single #
loop $-1 $-1 $649 $487 #
cone-surface $-1 0 40 25 1 0 -3.49148133884313e-15 -2.44403693719019e-14 0 -7 1 0 1 0 #
loop $-1 $-1 $489 $568 #
vertex $-1 $490 $650 #
ellipse-curve $-1 50.0000000000001 40 24.9999999999998 -1 0 0 -2.44403693719019e-14 0 -7 1 #
face $-1 $651 $652 $3 $-1 $653 reversed single #
point $-1 50 10 17.9999999999998 #
coedge $-1 $494 $504 $621 $654 0 $505 $-1 #
vertex $-1 $654 $655 #
straight-curve $-1 -50 0 50 0 -1 0 #
coedge $-1 $579 $579 $656 $657 0 $497 $-1 #
coedge $-1 $580 $580 $498 $581 1 $658 $-1 #
edge $-1 $659 $659 $498 $660 0 #
coedge $-1 $613 $661 $499 $583 1 $662 $-1 #
edge $-1 $584 $663 $499 $596 0 #
vertex $-1 $583 $664 #
straight-curve $-1 25 -25 31.25 -0 -0 -1 #
coedge $-1 $665 $502 $594 $666 0 $588 $-1 #
coedge $-1 $502 $667 $504 $591 1 $588 $-1 #
loop $-1 $-1 $668 $669 #
vertex $-1 $509 $670 #
straight-curve $-1 -25 -25 31.25 -0 0 1 #
edge $-1 $506 $671 $504 $672 0 #
point $-1 -25 -25 50 #
coedge $-1 $673 $508 $514 $606 0 $595 $-1 #
coedge $-1 $508 $673 $586 $666 1 $595 $-1 #
loop $-1 $-1 $673 $674 #
straight-curve $-1 0 -25 25 -1 0 0 #
coedge $-1 $675 $676 $510 $598 1 $677 $-1 #
edge $-1 $663 $602 $510 $678 0 #
coedge $-1 $679 $511 $676 $680 0 $601 $-1 #
coedge $-1 $511 $679 $513 $604 0 $601 $-1 #
loop $-1 $-1 $679 $681 #
vertex $-1 $598 $682 #
coedge $-1 $605 $513 $683 $684 0 $515 $-1 #
edge $-1 $685 $516 $600 $686 0 #
coedge $-1 $514 $603 $687 $688 0 $515 $-1 #
edge $-1 $517 $689 $593 $690 0 #
face $-1 $522 $515 $3 $-1 $691 reversed single #
point $-1 -5.5 -25 24.9999999999998 #
point $-1 -19.5 -25 25 #
coedge $-1 $564 $692 $519 $611 1 $643 $-1 #
edge $-1 $566 $693 $519 $694 0 #
coedge $-1 $520 $615 $695 $696 0 $426 $-1 #
coedge $-1 $697 $582 $520 $614 1 $662 $-1 #
edge $-1 $698 $584 $520 $694 0 #
coedge $-1 $612 $521 $699 $700 0 $426 $-1 #
coedge $-1 $701 $702 $521 $617 1 $648 $-1 #
edge $-1 $693 $703 $521 $704 0 #
plane-surface $-1 25 25 37.5 -1 0 0 0 0 1 0 #
face $-1 $559 $555 $3 $-1 $705 reversed single #
plane-surface $-1 -9.99999999999972 -40.0000000000003 -37.4999999999997 -1 -6.98296267768627e-15 4.87617677579594e-29 -0 6.98296267768627e-15 1 0 #
coedge $-1 $706 $529 $576 $654 1 $244 $-1 #
point $-1 -30.0000000000005 74.9999999999996 -25.0000000000005 #
straight-curve $-1 -50 75 0 0 0 -1 #
coedge $-1 $554 $553 $537 $625 1 $555 $-1 #
edge $-1 $626 $629 $624 $707 0 #
vertex $-1 $558 $708 #
straight-curve $-1 -9.99999999999972 -40.0000000000003 -32.4999999999997 -6.98296267768627e-15 1 -6.98296267768627e-15 #
coedge $-1 $551 $539 $553 $635 1 $526 $-1 #
vertex $-1 $635 $709 #
straight-curve $-1 -9.99999999999972 -40.0000000000004 -42.4999999999997 6.98296267768627e-15 -1 6.98296267768627e-15 #
straight-curve $-1 -22.0192307692308 -14.9038461538464 -50 0.196116135138191 -0.980580675690919 0 #
straight-curve $-1 -30 -3.40419430537206e-13 -50 -6.98296267768627e-15 1 0 #
point $-1 -30.0000000000002 24.9999999999993 -50 #
straight-curve $-1 -22.3076923076923 -13.4615384615389 -42.4999999999999 -0.196116135138191 0.980580675690919 -6.84735826081007e-15 #
edge $-1 $556 $629 $628 $710 0 #
point $-1 -29.6301556963099 23.1507784815482 -42.5000000000002 #
ellipse-curve $-1 -40 -5.00000000000051 -32.5 -0 6.98296267768627e-15 1 -30 -2.09488880330588e-13 1.46285303273878e-27 1 #
plane-surface $-1 -40 -5.00000000000051 -32.5 -0 6.98296267768627e-15 1 1 6.98296267768627e-15 -4.87617677579594e-29 0 #
coedge $-1 $563 $711 $712 $713 0 $244 $-1 #
coedge $-1 $714 $715 $563 $641 1 $716 $-1 #
edge $-1 $717 $644 $563 $718 0 #
coedge $-1 $692 $564 $715 $719 0 $643 $-1 #
loop $-1 $-1 $692 $720 #
vertex $-1 $719 $721 #
straight-curve $-1 0 75 25 1 0 -0 #
point $-1 25 75 25 #
face $-1 $720 $722 $3 $-1 $570 reversed single #
loop $-1 $571 $723 $568 #
coedge $-1 $724 $725 $726 $727 1 $569 $-1 #
point $-1 50 40 17.9999999999998 #
face $-1 $728 $729 $3 $-1 $653 reversed single #
loop $-1 $491 $730 $574 #
cone-surface $-1 0 10 25 1 0 -3.49148133884313e-15 -2.44403693719019e-14 0 -7 1 0 1 0 #
edge $-1 $671 $577 $621 $486 0 #
point $-1 -50 75 50 #
coedge $-1 $656 $656 $579 $657 1 $731 $-1 #
edge $-1 $732 $732 $579 $733 0 #
loop $-1 $-1 $580 $651 #
vertex $-1 $581 $734 #
ellipse-curve $-1 -49.9999999999999 10 25.0000000000002 1 0 0 -2.44403693719019e-14 0 -7 1 #
coedge $-1 $582 $697 $675 $735 0 $662 $-1 #
loop $-1 $-1 $697 $728 #
vertex $-1 $583 $736 #
point $-1 25 -25 25 #
coedge $-1 $737 $586 $738 $739 0 $588 $-1 #
edge $-1 $589 $740 $586 $741 0 #
coedge $-1 $587 $742 $706 $743 1 $588 $-1 #
coedge $-1 $742 $737 $744 $745 0 $588 $-1 #
face $-1 $746 $588 $3 $-1 $747 forward single #
point $-1 -25 -25 25 #
vertex $-1 $743 $748 #
straight-curve $-1 -25 12.5 50 0 1 0 #
coedge $-1 $594 $593 $749 $750 0 $595 $-1 #
face $-1 $607 $595 $3 $-1 $751 forward single #
coedge $-1 $752 $597 $661 $735 1 $677 $-1 #
coedge $-1 $597 $753 $599 $680 1 $677 $-1 #
loop $-1 $-1 $752 $754 #
ellipse-curve $-1 12.5 -25 24.9999999999998 -0 1 -0 7 0 0 1 #
coedge $-1 $600 $599 $755 $756 0 $601 $-1 #
edge $-1 $602 $757 $599 $758 0 #
face $-1 $759 $601 $3 $-1 $751 forward single #
point $-1 5.5 -25 25 #
coedge $-1 $755 $760 $603 $684 1 $761 $-1 #
edge $-1 $685 $762 $603 $763 0 #
vertex $-1 $684 $764 #
straight-curve $-1 -5.5 25 25 0 -1 -3.49148133884313e-15 #
coedge $-1 $765 $749 $605 $688 1 $729 $-1 #
edge $-1 $762 $689 $605 $766 0 #
vertex $-1 $606 $767 #
straight-curve $-1 -19.5 25 25 -0 1 3.49148133884313e-15 #
cone-surface $-1 -12.5 25 25 0 -1 -3.49148133884313e-15 7 0 0 1 0 1 0 #
coedge $-1 $610 $642 $701 $768 0 $643 $-1 #
vertex $-1 $611 $769 #
straight-curve $-1 25 25 25 0 -1 0 #
coedge $-1 $770 $771 $612 $696 1 $652 $-1 #
edge $-1 $772 $698 $612 $773 0 #
coedge $-1 $661 $613 $771 $774 0 $662 $-1 #
vertex $-1 $774 $775 #
coedge $-1 $776 $777 $615 $700 1 $778 $-1 #
edge $-1 $703 $772 $615 $694 0 #
coedge $-1 $723 $616 $692 $768 1 $648 $-1 #
coedge $-1 $616 $779 $776 $780 1 $648 $-1 #
vertex $-1 $780 $781 #
ellipse-curve $-1 25 40 24.9999999999999 1 -0 -0 -2.44403693719019e-14 0 -7 1 #
cone-surface $-1 -40 -5.00000000000054 -37.5 0 -6.98296267768627e-15 -1 -30 -2.09488880330588e-13 1.46285303273878e-27 1 0 1 0 #
coedge $-1 $782 $621 $667 $743 0 $244 $-1 #
straight-curve $-1 -9.99999999999996 -5.00000000000033 -37.5 0 -6.98296267768627e-15 -1 #
point $-1 -9.99999999999996 -5.0000000000003 -32.5 #
point $-1 -9.99999999999996 -5.00000000000037 -42.5 #
ellipse-curve $-1 -40 -5.00000000000058 -42.5 0 -6.98296267768627e-15 -1 -30 -2.09488880330588e-13 1.46285303273878e-27 1 #
coedge $-1 $639 $782 $783 $784 0 $244 $-1 #
coedge $-1 $785 $786 $639 $713 1 $787 $-1 #
edge $-1 $788 $717 $639 $645 0 #
coedge $-1 $789 $640 $786 $790 1 $716 $-1 #
coedge $-1 $640 $791 $642 $719 1 $716 $-1 #
loop $-1 $-1 $791 $792 #
vertex $-1 $713 $793 #
ellipse-curve $-1 12.5 74.9999999999999 25.0000000000002 0 -1 0 7 0 0 1 #
edge $-1 $644 $794 $642 $795 0 #
face $-1 $796 $643 $3 $-1 $751 forward single #
point $-1 19.5 75 25.0000000000002 #
loop $-1 $731 $797 $647 #
coedge $-1 $779 $701 $791 $798 1 $648 $-1 #
coedge $-1 $799 $649 $800 $801 1 $569 $-1 #
coedge $-1 $649 $802 $803 $804 1 $569 $-1 #
coedge $-1 $805 $806 $649 $727 0 $807 $-1 #
edge $-1 $808 $809 $726 $810 0 #
face $-1 $754 $662 $3 $-1 $751 forward single #
loop $-1 $658 $765 $651 #
coedge $-1 $811 $770 $812 $813 1 $652 $-1 #
loop $-1 $-1 $656 $647 #
vertex $-1 $657 $814 #
ellipse-curve $-1 -49.9999999999999 40 25.0000000000002 1 0 0 -2.44403693719019e-14 0 -7 1 #
point $-1 -50 10 18.0000000000002 #
edge $-1 $815 $663 $661 $795 0 #
point $-1 19.5 -25 24.9999999999998 #
coedge $-1 $668 $665 $816 $817 0 $588 $-1 #
coedge $-1 $749 $818 $665 $739 1 $729 $-1 #
edge $-1 $740 $819 $665 $820 0 #
vertex $-1 $666 $821 #
straight-curve $-1 -25 25 25 0 1 0 #
coedge $-1 $667 $668 $822 $823 0 $588 $-1 #
edge $-1 $671 $824 $706 $825 0 #
coedge $-1 $826 $827 $668 $745 1 $722 $-1 #
edge $-1 $828 $829 $668 $830 0 #
face $-1 $831 $807 $3 $-1 $691 reversed single #
plane-surface $-1 -25 25 37.5 1 0 0 0 0 -1 0 #
point $-1 -25 75 50 #
coedge $-1 $687 $738 $673 $750 1 $729 $-1 #
edge $-1 $689 $740 $673 $832 0 #
plane-surface $-1 0 25 25 0 0 1 1 0 0 0 #
coedge $-1 $753 $675 $811 $833 0 $677 $-1 #
coedge $-1 $676 $752 $834 $835 0 $677 $-1 #
face $-1 $681 $677 $3 $-1 $836 reversed single #
coedge $-1 $834 $683 $679 $756 1 $761 $-1 #
edge $-1 $757 $685 $679 $837 0 #
vertex $-1 $680 $838 #
straight-curve $-1 5.5 25 25 -0 1 3.49148133884313e-15 #
face $-1 $674 $839 $3 $-1 $691 reversed single #
coedge $-1 $683 $840 $841 $842 1 $761 $-1 #
loop $-1 $-1 $760 $843 #
vertex $-1 $844 $845 #
ellipse-curve $-1 -12.5 10 25 0.707106781186547 0.707106781186547 0 -7 7 2.44403693719019e-14 0.707106781186547 #
point $-1 -5.5 3 24.9999999999999 #
coedge $-1 $818 $687 $846 $844 1 $729 $-1 #
ellipse-curve $-1 -12.5 10 25 -0.707106781186547 0.707106781186547 5.02429586778808e-15 7 7 -2.44403693719019e-14 0.707106781186547 #
point $-1 -19.5 3 24.9999999999999 #
edge $-1 $794 $693 $692 $847 0 #
point $-1 25 47 25 #
coedge $-1 $730 $695 $777 $848 1 $652 $-1 #
coedge $-1 $695 $811 $697 $774 1 $652 $-1 #
vertex $-1 $700 $849 #
ellipse-curve $-1 25 10 24.9999999999999 1 -0 -0 -2.44403693719019e-14 0 -7 1 #
edge $-1 $698 $815 $697 $850 0 #
point $-1 25 3 25 #
coedge $-1 $851 $699 $702 $780 0 $778 $-1 #
coedge $-1 $699 $851 $770 $848 0 $778 $-1 #
loop $-1 $-1 $776 $796 #
coedge $-1 $702 $723 $852 $853 1 $648 $-1 #
edge $-1 $703 $854 $776 $855 0 #
point $-1 25 33 25 #
coedge $-1 $711 $706 $856 $857 0 $244 $-1 #
coedge $-1 $858 $805 $711 $784 1 $807 $-1 #
edge $-1 $859 $788 $711 $860 0 #
coedge $-1 $803 $712 $805 $861 0 $787 $-1 #
coedge $-1 $712 $803 $714 $790 0 $787 $-1 #
loop $-1 $-1 $803 $862 #
vertex $-1 $784 $863 #
coedge $-1 $791 $714 $802 $864 0 $716 $-1 #
edge $-1 $865 $717 $786 $758 0 #
coedge $-1 $715 $789 $723 $798 0 $716 $-1 #
face $-1 $866 $716 $3 $-1 $836 reversed single #
point $-1 5.5 75 25 #
vertex $-1 $719 $867 #
straight-curve $-1 19.5 25 25 0 -1 -3.49148133884313e-15 #
face $-1 $792 $778 $3 $-1 $751 forward single #
coedge $-1 $827 $868 $806 $869 1 $722 $-1 #
edge $-1 $870 $794 $791 $871 0 #
coedge $-1 $872 $724 $873 $874 1 $569 $-1 #
coedge $-1 $875 $876 $724 $801 0 $839 $-1 #
edge $-1 $877 $808 $800 $878 0 #
coedge $-1 $725 $872 $789 $864 1 $569 $-1 #
coedge $-1 $786 $785 $725 $804 0 $787 $-1 #
edge $-1 $809 $865 $803 $879 0 #
coedge $-1 $783 $726 $785 $861 1 $807 $-1 #
coedge $-1 $726 $858 $797 $869 0 $807 $-1 #
loop $-1 $-1 $726 $746 #
vertex $-1 $869 $880 #
vertex $-1 $861 $881 #
ellipse-curve $-1 -12.5 40 25 0.707106781186547 -0.707106781186547 -4.6654175915175e-15 7 7 -2.44403693719019e-14 0.707106781186547 #
coedge $-1 $771 $730 $752 $833 1 $652 $-1 #
coedge $-1 $882 $883 $730 $813 0 $884 $-1 #
edge $-1 $885 $886 $812 $887 0 #
point $-1 -50 40 18.0000000000002 #
vertex $-1 $833 $888 #
coedge $-1 $889 $890 $737 $817 1 $891 $-1 #
edge $-1 $819 $828 $737 $741 0 #
coedge $-1 $738 $765 $889 $892 1 $729 $-1 #
vertex $-1 $892 $893 #
ellipse-curve $-1 -25 10 25.0000000000001 -1 -0 -0 -2.44403693719019e-14 0 -7 1 #
point $-1 -25 3 25 #
coedge $-1 $894 $856 $742 $823 1 $895 $-1 #
edge $-1 $829 $824 $742 $741 0 #
vertex $-1 $857 $896 #
straight-curve $-1 -25 75 18.75 0 0 -1 #
coedge $-1 $868 $744 $890 $897 1 $722 $-1 #
coedge $-1 $744 $797 $894 $898 1 $722 $-1 #
vertex $-1 $817 $899 #
vertex $-1 $898 $900 #
ellipse-curve $-1 -25 40 25.0000000000001 -1 -0 -0 -2.44403693719019e-14 0 -7 1 #
face $-1 $901 $895 $3 $-1 $751 forward single #
straight-curve $-1 0 3 25 -1 -0 3.49148133884313e-15 #
edge $-1 $815 $885 $752 $902 0 #
coedge $-1 $903 $755 $753 $835 1 $761 $-1 #
edge $-1 $885 $757 $753 $904 0 #
cone-surface $-1 12.5 25 25 0 -1 -3.49148133884313e-15 7 0 0 1 0 1 0 #
straight-curve $-1 0 3 25 -1 -0 3.49148133884313e-15 #
point $-1 5.5 3 24.9999999999999 #
loop $-1 $-1 $875 $759 #
coedge $-1 $760 $903 $905 $906 1 $761 $-1 #
coedge $-1 $876 $846 $760 $842 0 $839 $-1 #
edge $-1 $762 $907 $841 $908 0 #
face $-1 $574 $761 $3 $-1 $653 reversed single #
edge $-1 $909 $762 $846 $910 0 #
point $-1 -12.5 10 18 #
coedge $-1 $841 $911 $765 $844 0 $839 $-1 #
straight-curve $-1 0 47 25 1 0 -3.49148133884313e-15 #
edge $-1 $886 $772 $777 $912 0 #
point $-1 25 17 25 #
straight-curve $-1 0 3 25 -1 -0 3.49148133884313e-15 #
coedge $-1 $777 $776 $882 $913 0 $778 $-1 #
coedge $-1 $914 $882 $779 $853 0 $884 $-1 #
edge $-1 $854 $870 $852 $915 0 #
vertex $-1 $853 $916 #
straight-curve $-1 0 33 25 -1 -0 3.49148133884313e-15 #
coedge $-1 $822 $917 $782 $857 1 $895 $-1 #
edge $-1 $824 $859 $782 $645 0 #
coedge $-1 $806 $783 $917 $918 1 $807 $-1 #
vertex $-1 $857 $919 #
ellipse-curve $-1 -12.5 74.9999999999999 25.0000000000002 0 -1 0 7 0 0 1 #
edge $-1 $788 $809 $785 $686 0 #
face $-1 $920 $787 $3 $-1 $751 forward single #
point $-1 -5.5 75 25.0000000000002 #
edge $-1 $865 $870 $789 $921 0 #
vertex $-1 $804 $922 #
face $-1 $862 $884 $3 $-1 $836 reversed single #
point $-1 19.5 47 25.0000000000001 #
coedge $-1 $797 $826 $875 $923 1 $722 $-1 #
edge $-1 $924 $808 $806 $925 0 #
vertex $-1 $864 $926 #
ellipse-curve $-1 12.5 40 25 0.707106781186547 -0.707106781186547 -4.6654175915175e-15 7 7 -2.44403693719019e-14 0.707106781186547 #
coedge $-1 $802 $799 $914 $927 1 $569 $-1 #
coedge $-1 $928 $929 $799 $874 0 $930 $-1 #
edge $-1 $931 $877 $873 $932 0 #
coedge $-1 $911 $800 $868 $923 0 $839 $-1 #
coedge $-1 $800 $841 $928 $933 1 $839 $-1 #
vertex $-1 $801 $934 #
ellipse-curve $-1 -12.5 40 25 0.707106781186547 0.707106781186547 -3.58878276270577e-16 -7 7 2.44403693719019e-14 0.707106781186547 #
straight-curve $-1 0 47 25 1 0 -3.49148133884313e-15 #
point $-1 -12.5 40 18 #
point $-1 -5.5 47 25.0000000000001 #
coedge $-1 $852 $812 $851 $913 1 $884 $-1 #
coedge $-1 $812 $935 $903 $936 0 $884 $-1 #
loop $-1 $-1 $852 $866 #
vertex $-1 $936 $937 #
vertex $-1 $913 $938 #
ellipse-curve $-1 12.5 10 25 0.707106781186547 -0.707106781186547 -5.02429586778808e-15 7 7 -2.44403693719019e-14 0.707106781186547 #
point $-1 19.5 3 24.9999999999999 #
coedge $-1 $939 $816 $818 $892 0 $891 $-1 #
coedge $-1 $816 $939 $826 $897 0 $891 $-1 #
loop $-1 $-1 $890 $901 #
edge $-1 $819 $909 $889 $940 0 #
point $-1 -25 17 25 #
coedge $-1 $917 $822 $827 $898 0 $895 $-1 #
loop $-1 $-1 $894 $831 #
point $-1 -25 75 25 #
edge $-1 $941 $828 $890 $942 0 #
edge $-1 $829 $924 $894 $943 0 #
point $-1 -25 33 25 #
point $-1 -25 47 25 #
face $-1 $843 $891 $3 $-1 $751 forward single #
ellipse-curve $-1 12.5 10 25 0.707106781186547 0.707106781186547 0 -7 7 2.44403693719019e-14 0.707106781186547 #
coedge $-1 $840 $834 $883 $936 1 $761 $-1 #
ellipse-curve $-1 12.5 10 25 -0.707106781186547 0.707106781186547 5.02429586778808e-15 7 7 -2.44403693719019e-14 0.707106781186547 #
coedge $-1 $929 $928 $840 $906 0 $930 $-1 #
edge $-1 $907 $944 $905 $945 0 #
vertex $-1 $933 $946 #
ellipse-curve $-1 -12.5 10 25 0.707106781186547 -0.707106781186547 -5.02429586778808e-15 7 7 -2.44403693719019e-14 0.707106781186547 #
vertex $-1 $844 $947 #
ellipse-curve $-1 -12.5 10 25 -0.707106781186547 -0.707106781186547 -0 -7 7 2.44403693719019e-14 0.707106781186547 #
coedge $-1 $846 $875 $939 $948 1 $839 $-1 #
straight-curve $-1 0 17 25 1 0 -3.49148133884313e-15 #
edge $-1 $854 $886 $851 $795 0 #
coedge $-1 $935 $852 $872 $927 0 $884 $-1 #
ellipse-curve $-1 12.5 40 25 0.707106781186547 0.707106781186547 -3.58878276270577e-16 -7 7 2.44403693719019e-14 0.707106781186547 #
point $-1 19.5 33 25 #
coedge $-1 $856 $894 $858 $918 0 $895 $-1 #
edge $-1 $924 $859 $917 $690 0 #
point $-1 -19.5 75 25 #
face $-1 $669 $930 $3 $-1 $751 forward single #
ellipse-curve $-1 12.5 40 25 -0.707106781186547 -0.707106781186547 3.58878276270577e-16 -7 7 2.44403693719019e-14 0.707106781186547 #
point $-1 5.5 47 25.0000000000001 #
edge $-1 $808 $941 $875 $949 0 #
vertex $-1 $869 $950 #
ellipse-curve $-1 -12.5 40 25 -0.707106781186547 -0.707106781186547 3.58878276270577e-16 -7 7 2.44403693719019e-14 0.707106781186547 #
point $-1 12.5 40 18 #
edge $-1 $870 $931 $914 $951 0 #
coedge $-1 $905 $873 $876 $933 0 $930 $-1 #
coedge $-1 $873 $905 $935 $952 0 $930 $-1 #
loop $-1 $-1 $873 $920 #
vertex $-1 $952 $953 #
straight-curve $-1 0 33 25 -1 -0 3.49148133884313e-15 #
edge $-1 $877 $907 $928 $686 0 #
point $-1 -5.5 33 25 #
coedge $-1 $883 $914 $929 $952 1 $884 $-1 #
edge $-1 $944 $885 $883 $954 0 #
point $-1 12.5 10 18 #
point $-1 19.5 17 25 #
coedge $-1 $890 $889 $911 $948 0 $891 $-1 #
straight-curve $-1 0 17 25 1 0 -3.49148133884313e-15 #
vertex $-1 $948 $955 #
straight-curve $-1 0 33 25 -1 -0 3.49148133884313e-15 #
straight-curve $-1 0 47 25 1 0 -3.49148133884313e-15 #
vertex $-1 $906 $956 #
straight-curve $-1 0 17 25 1 0 -3.49148133884313e-15 #
point $-1 -5.5 17 25 #
point $-1 -19.5 17 25 #
edge $-1 $909 $941 $939 $690 0 #
ellipse-curve $-1 -12.5 40 25 -0.707106781186547 0.707106781186547 4.6654175915175e-15 7 7 -2.44403693719019e-14 0.707106781186547 #
point $-1 -19.5 47 25.0000000000001 #
ellipse-curve $-1 12.5 40 25 -0.707106781186547 0.707106781186547 4.6654175915175e-15 7 7 -2.44403693719019e-14 0.707106781186547 #
edge $-1 $944 $931 $929 $758 0 #
point $-1 5.5 33 25 #
ellipse-curve $-1 12.5 10 25 -0.707106781186547 -0.707106781186547 -0 -7 7 2.44403693719019e-14 0.707106781186547 #
point $-1 -19.5 33 25 #
point $-1 5.5 17 25 #
