600 0 1 0           
114 GICL ACIS Healer - Source: /gicl/data5/repository/NIST/Manfred_Osti/spectrometer/spacer_66/spacer_66.prt.sat - 6 0 18 ACIS 6.0.3 Solaris 24 Sun Apr 14 00:37:18 2002 
1 9.999999999999999547e-07 1.000000000000000036e-10 
body $-1 $1 $-1 $-1 #
lump $-1 $-1 $2 $0 #
shell $-1 $-1 $-1 $3 $-1 $1 #
face $-1 $4 $5 $2 $-1 $6 reversed single #
face $-1 $7 $8 $2 $-1 $9 forward single #
loop $-1 $-1 $10 $3 #
plane-surface $-1 0 0 0 0 0 1 25.39999999999999858 0 0 forward_v I I I I #
face $-1 $11 $12 $2 $-1 $13 forward single #
loop $-1 $14 $15 $4 #
plane-surface $-1 24.5998999999999981 0 0 0 1 0 -25.39999999999999858 0 0 forward_v I I I I #
coedge $-1 $16 $17 $18 $19 reversed $5 $-1 #
face $-1 $20 $21 $2 $-1 $22 forward single #
loop $-1 $-1 $23 $7 #
plane-surface $-1 -24.5998999999999981 0 0 -1 0 0 0 -25.39999999999999858 0 forward_v I I I I #
loop $-1 $24 $25 $4 #
coedge $-1 $26 $18 $27 $28 forward $8 $-1 #
coedge $-1 $29 $10 $30 $31 reversed $5 $-1 #
coedge $-1 $10 $32 $33 $34 reversed $5 $-1 #
coedge $-1 $15 $35 $10 $19 forward $8 $-1 #
edge $-1 $36 0 $37 1.937000000000000055 $10 $38 forward 7 unknown #
face $-1 $39 $40 $2 $-1 $41 forward single #
loop $-1 $42 $43 $11 #
plane-surface $-1 -24.5998999999999981 -12.69999999999999929 0 0 -1 0 25.39999999999999858 0 0 forward_v I I I I #
coedge $-1 $44 $33 $45 $46 forward $12 $-1 #
loop $-1 $47 $48 $4 #
coedge $-1 $49 $49 $50 $51 forward $14 $-1 #
coedge $-1 $35 $15 $52 $53 reversed $8 $-1 #
coedge $-1 $33 $44 $15 $28 reversed $12 $-1 #
edge $-1 $37 0 $54 1.499999999999999778 $27 $55 forward 7 unknown #
coedge $-1 $56 $16 $57 $58 reversed $5 $-1 #
coedge $-1 $59 $60 $16 $31 forward $61 $-1 #
edge $-1 $62 0 $36 1.75 $16 $63 forward 7 unknown #
coedge $-1 $17 $64 $65 $66 reversed $5 $-1 #
coedge $-1 $23 $27 $17 $34 forward $12 $-1 #
edge $-1 $37 0 $67 0.5 $17 $68 forward 7 unknown #
coedge $-1 $18 $26 $59 $69 reversed $8 $-1 #
vertex $-1 $31 $70 #
vertex $-1 $34 $71 #
straight-curve $-1 24.5998999999999981 0 0 -25.39999999999999858 0 0 I I #
face $-1 $72 $73 $2 $-1 $74 forward single #
loop $-1 $75 $76 $20 #
plane-surface $-1 1.739900000000000002 -12.69999999999999929 0 -1 0 0 0 -25.39999999999999858 0 forward_v I I I I #
loop $-1 $77 $78 $11 #
coedge $-1 $79 $65 $80 $81 forward $21 $-1 #
coedge $-1 $27 $23 $82 $83 reversed $12 $-1 #
coedge $-1 $65 $79 $23 $46 reversed $21 $-1 #
edge $-1 $67 0 $84 1.499999999999999778 $23 $85 forward 7 unknown #
loop $-1 $86 $87 $4 #
coedge $-1 $88 $88 $89 $90 forward $24 $-1 #
coedge $-1 $25 $25 $91 $92 forward $14 $-1 #
coedge $-1 $93 $94 $25 $51 reversed $95 $-1 #
edge $-1 $96 0 $97 3.141592653589793116 $25 $98 forward 7 unknown #
coedge $-1 $82 $99 $26 $53 forward $100 $-1 #
edge $-1 $101 0 $54 1.937000000000000055 $52 $102 forward 7 unknown #
vertex $-1 $83 $103 #
straight-curve $-1 -24.5998999999999981 0 0 0 0 25.39999999999999858 I I #
coedge $-1 $104 $29 $105 $106 reversed $5 $-1 #
coedge $-1 $107 $108 $29 $58 forward $109 $-1 #
edge $-1 $110 0 $62 0.6799999999999999378 $29 $111 forward 7 unknown #
coedge $-1 $112 $30 $35 $69 forward $61 $-1 #
coedge $-1 $30 $112 $107 $113 reversed $61 $-1 #
loop $-1 $-1 $59 $114 #
vertex $-1 $58 $115 #
straight-curve $-1 24.5998999999999981 -44.44999999999999574 0 0 25.39999999999999858 0 I I #
coedge $-1 $32 $104 $116 $117 reversed $5 $-1 #
coedge $-1 $43 $45 $32 $66 forward $21 $-1 #
edge $-1 $67 0 $118 1.036999999999999922 $32 $119 forward 7 unknown #
vertex $-1 $34 $120 #
straight-curve $-1 -24.5998999999999981 0 0 0 -25.39999999999999858 0 I I #
edge $-1 $36 0 $101 1.499999999999999778 $59 $121 forward 7 unknown #
point $-1 24.5998999999999981 0 0 #
point $-1 -24.5998999999999981 0 0 #
face $-1 $122 $123 $2 $-1 $124 forward single #
loop $-1 $-1 $125 $39 #
plane-surface $-1 1.739900000000000002 -57.14999999999999858 0 0 -1 0 25.39999999999999858 0 0 forward_v I I I I #
loop $-1 $-1 $126 $20 #
coedge $-1 $127 $116 $128 $129 forward $40 $-1 #
loop $-1 $-1 $130 $11 #
coedge $-1 $131 $131 $132 $133 reversed $42 $-1 #
coedge $-1 $45 $43 $134 $135 reversed $21 $-1 #
coedge $-1 $116 $127 $43 $81 reversed $40 $-1 #
edge $-1 $118 0 $136 1.499999999999999778 $43 $137 forward 7 unknown #
coedge $-1 $134 $52 $44 $83 forward $100 $-1 #
edge $-1 $54 0 $84 0.5 $82 $138 forward 7 unknown #
vertex $-1 $83 $139 #
straight-curve $-1 -24.5998999999999981 -12.69999999999999929 0 0 0 25.39999999999999858 I I #
loop $-1 $140 $141 $4 #
coedge $-1 $142 $142 $143 $144 forward $47 $-1 #
coedge $-1 $48 $48 $145 $146 forward $24 $-1 #
coedge $-1 $147 $148 $48 $90 reversed $149 $-1 #
edge $-1 $150 0 $151 3.141592653589793116 $48 $152 forward 7 unknown #
coedge $-1 $153 $154 $49 $92 reversed $155 $-1 #
edge $-1 $97 0 $96 3.141592653589793116 $49 $156 forward 7 unknown #
coedge $-1 $157 $50 $154 $158 forward $95 $-1 #
coedge $-1 $50 $157 $153 $159 reversed $95 $-1 #
loop $-1 $-1 $93 $160 #
vertex $-1 $92 $161 #
vertex $-1 $92 $162 #
ellipse-curve $-1 -15.78610000000000113 0 19.04999999999999716 0 -1 0 -1.587499999999999911 0 0 1 I I #
coedge $-1 $52 $163 $112 $164 forward $100 $-1 #
loop $-1 $-1 $134 $165 #
vertex $-1 $53 $166 #
straight-curve $-1 24.5998999999999981 0 38.09999999999999432 -25.39999999999999858 0 0 I I #
point $-1 -24.5998999999999981 0 38.09999999999999432 #
coedge $-1 $64 $56 $167 $168 reversed $5 $-1 #
coedge $-1 $169 $170 $56 $106 forward $123 $-1 #
edge $-1 $171 0 $110 0.500000000000000111 $56 $172 forward 7 unknown #
coedge $-1 $173 $57 $60 $113 forward $109 $-1 #
coedge $-1 $57 $173 $169 $174 reversed $109 $-1 #
loop $-1 $175 $107 $122 #
vertex $-1 $106 $176 #
straight-curve $-1 7.327899999999998748 -44.44999999999999574 0 25.39999999999999858 0 0 I I #
coedge $-1 $60 $59 $99 $164 reversed $61 $-1 #
edge $-1 $62 0 $177 1.499999999999999778 $107 $178 forward 7 unknown #
face $-1 $165 $61 $2 $-1 $179 forward single #
point $-1 24.5998999999999981 -44.44999999999999574 0 #
coedge $-1 $76 $80 $64 $117 forward $40 $-1 #
edge $-1 $118 0 $180 1.750000000000000222 $64 $181 forward 7 unknown #
vertex $-1 $66 $182 #
straight-curve $-1 -24.5998999999999981 -12.69999999999999929 0 25.39999999999999858 0 0 I I #
point $-1 -24.5998999999999981 -12.69999999999999929 0 #
straight-curve $-1 24.5998999999999981 0 0 0 0 25.39999999999999858 I I #
face $-1 $114 $109 $2 $-1 $183 forward single #
loop $-1 $184 $169 $72 #
plane-surface $-1 7.327899999999998748 -57.14999999999999858 0 1 0 0 0 25.39999999999999858 0 forward_v I I I I #
coedge $-1 $185 $167 $170 $186 forward $73 $-1 #
coedge $-1 $187 $187 $188 $189 reversed $75 $-1 #
coedge $-1 $80 $76 $190 $191 reversed $40 $-1 #
coedge $-1 $167 $185 $76 $129 reversed $73 $-1 #
edge $-1 $180 0 $192 1.499999999999999778 $76 $193 forward 7 unknown #
coedge $-1 $194 $194 $195 $196 reversed $77 $-1 #
coedge $-1 $78 $78 $197 $198 reversed $42 $-1 #
coedge $-1 $199 $200 $78 $133 forward $201 $-1 #
edge $-1 $202 0 $203 3.141592653589793116 $78 $204 forward 7 unknown #
coedge $-1 $190 $82 $79 $135 forward $100 $-1 #
edge $-1 $84 0 $136 1.036999999999999922 $134 $205 forward 7 unknown #
vertex $-1 $191 $206 #
straight-curve $-1 1.739899999999997116 -12.69999999999999929 0 0 0 25.39999999999999858 I I #
straight-curve $-1 -24.5998999999999981 0 38.09999999999999432 0 -25.39999999999999858 0 I I #
point $-1 -24.5998999999999981 -12.69999999999999929 38.09999999999999432 #
loop $-1 $207 $208 $4 #
coedge $-1 $209 $209 $210 $211 forward $86 $-1 #
coedge $-1 $87 $87 $212 $213 forward $47 $-1 #
coedge $-1 $214 $215 $87 $144 reversed $216 $-1 #
edge $-1 $217 0 $218 3.141592653589793116 $87 $219 forward 7 unknown #
coedge $-1 $220 $221 $88 $146 reversed $222 $-1 #
edge $-1 $151 0 $150 3.141592653589793116 $88 $223 forward 7 unknown #
coedge $-1 $224 $89 $221 $225 forward $149 $-1 #
coedge $-1 $89 $224 $220 $226 reversed $149 $-1 #
loop $-1 $-1 $147 $227 #
vertex $-1 $146 $228 #
vertex $-1 $146 $229 #
ellipse-curve $-1 0 0 19.04999999999999716 0 -1 0 -1.587500000000002798 0 0 1 I I #
coedge $-1 $230 $91 $94 $159 forward $155 $-1 #
coedge $-1 $91 $230 $93 $158 reversed $155 $-1 #
loop $-1 $-1 $153 $231 #
ellipse-curve $-1 -15.78610000000000113 0 19.04999999999999716 0 -1 0 1.587499999999999911 0 0 1 I I #
coedge $-1 $94 $93 $232 $233 forward $95 $-1 #
edge $-1 $96 0 $234 0.3800000000000000044 $154 $235 forward 7 unknown #
edge $-1 $97 0 $236 0.3800000000000000044 $153 $237 forward 7 unknown #
face $-1 $231 $95 $2 $-1 $238 reversed single #
point $-1 -17.37359999999999971 0 19.04999999999999716 #
point $-1 -14.19860000000000078 0 19.04999999999999716 #
coedge $-1 $99 $239 $173 $240 forward $100 $-1 #
edge $-1 $177 0 $101 1.75 $99 $241 forward 7 unknown #
face $-1 $242 $100 $2 $-1 $243 forward single #
point $-1 24.5998999999999981 0 38.09999999999999432 #
coedge $-1 $125 $128 $104 $168 forward $73 $-1 #
edge $-1 $180 0 $171 0.2199999999999999734 $104 $244 forward 7 unknown #
coedge $-1 $245 $105 $108 $174 forward $123 $-1 #
coedge $-1 $105 $245 $125 $186 reversed $123 $-1 #
vertex $-1 $168 $246 #
straight-curve $-1 7.327899999999998748 -57.14999999999999858 0 0 25.39999999999999858 0 I I #
coedge $-1 $108 $107 $163 $240 reversed $109 $-1 #
edge $-1 $110 0 $247 1.499999999999999778 $169 $248 forward 7 unknown #
loop $-1 $249 $250 $122 #
point $-1 7.327899999999998748 -44.44999999999999574 0 #
vertex $-1 $164 $251 #
straight-curve $-1 24.5998999999999981 -44.44999999999999574 0 0 0 25.39999999999999858 I I #
plane-surface $-1 24.5998999999999981 -44.44999999999999574 0 1 0 0 0 25.39999999999999858 0 forward_v I I I I #
vertex $-1 $117 $252 #
straight-curve $-1 1.739900000000000002 -12.69999999999999929 0 0 -25.39999999999999858 0 I I #
point $-1 1.739900000000000002 -12.69999999999999929 0 #
plane-surface $-1 7.327899999999998748 -44.44999999999999574 0 0 -1 0 25.39999999999999858 0 0 forward_v I I I I #
loop $-1 $-1 $253 $72 #
coedge $-1 $128 $125 $254 $255 reversed $73 $-1 #
edge $-1 $171 0 $256 1.499999999999999778 $125 $257 forward 7 unknown #
coedge $-1 $126 $126 $258 $259 reversed $75 $-1 #
coedge $-1 $260 $261 $126 $189 forward $262 $-1 #
edge $-1 $263 0 $264 3.141592653589793116 $126 $265 forward 7 unknown #
coedge $-1 $254 $134 $127 $191 forward $100 $-1 #
edge $-1 $136 0 $192 1.750000000000000222 $190 $266 forward 7 unknown #
vertex $-1 $255 $267 #
straight-curve $-1 1.739900000000000002 -57.14999999999999858 0 0 0 25.39999999999999858 I I #
coedge $-1 $130 $130 $268 $269 reversed $77 $-1 #
coedge $-1 $270 $271 $130 $196 forward $272 $-1 #
edge $-1 $273 0 $274 3.141592653589793116 $130 $275 forward 7 unknown #
coedge $-1 $276 $277 $131 $198 forward $278 $-1 #
edge $-1 $203 0 $202 3.141592653589793116 $131 $279 forward 7 unknown #
coedge $-1 $210 $132 $277 $280 reversed $201 $-1 #
coedge $-1 $132 $210 $276 $281 forward $201 $-1 #
loop $-1 $-1 $199 $282 #
vertex $-1 $198 $283 #
vertex $-1 $198 $284 #
ellipse-curve $-1 -15.78610000000000113 -12.69999999999999929 8.737599999999998701 0 -1 0 -3.174999999999999822 0 0 1 I I #
straight-curve $-1 -24.5998999999999981 -12.69999999999999929 38.09999999999999432 25.39999999999999858 0 0 I I #
point $-1 1.739900000000000002 -12.69999999999999929 38.09999999999999432 #
loop $-1 $285 $286 $4 #
coedge $-1 $287 $287 $288 $289 forward $140 $-1 #
coedge $-1 $141 $141 $290 $291 forward $86 $-1 #
coedge $-1 $200 $199 $141 $211 reversed $201 $-1 #
edge $-1 $292 0 $293 3.141592653589792672 $141 $294 forward 7 unknown #
coedge $-1 $295 $296 $142 $213 reversed $297 $-1 #
edge $-1 $218 0 $217 3.141592653589793116 $142 $298 forward 7 unknown #
coedge $-1 $299 $143 $296 $300 forward $216 $-1 #
coedge $-1 $143 $299 $295 $301 reversed $216 $-1 #
loop $-1 $-1 $214 $302 #
vertex $-1 $213 $303 #
vertex $-1 $213 $304 #
ellipse-curve $-1 15.96390000000000065 0 19.04999999999999716 0 -1 0 -3.174999999999999822 0 0 1 I I #
coedge $-1 $305 $145 $148 $226 forward $222 $-1 #
coedge $-1 $145 $305 $147 $225 reversed $222 $-1 #
loop $-1 $-1 $220 $306 #
ellipse-curve $-1 0 0 19.04999999999999716 0 -1 0 1.587499999999999911 0 0 1 I I #
coedge $-1 $148 $147 $307 $308 forward $149 $-1 #
edge $-1 $150 0 $309 0.3800000000000000044 $221 $310 forward 7 unknown #
edge $-1 $151 0 $311 0.3800000000000000044 $220 $312 forward 7 unknown #
face $-1 $306 $149 $2 $-1 $313 reversed single #
point $-1 -1.587500000000002798 0 19.04999999999999716 #
point $-1 1.587499999999999911 0 19.04999999999999716 #
coedge $-1 $154 $153 $314 $315 forward $155 $-1 #
face $-1 $316 $155 $2 $-1 $317 reversed single #
coedge $-1 $314 $314 $157 $233 reversed $318 $-1 #
edge $-1 $234 0 $236 3.141592653589793116 $232 $319 forward 7 unknown #
vertex $-1 $315 $320 #
straight-curve $-1 -17.37359999999999971 0 19.04999999999999716 0 -25.39999999999999858 0 I I #
vertex $-1 $315 $321 #
straight-curve $-1 -14.19860000000000078 0 19.04999999999999716 0 -25.39999999999999858 0 I I #
cone-surface $-1 -15.78610000000000113 0 19.04999999999999716 0 -1 0 1.587499999999999911 0 0 1 I I 0 1 1.587499999999999911 forward I I I I #
coedge $-1 $163 $254 $245 $322 forward $100 $-1 #
edge $-1 $247 0 $177 0.6799999999999999378 $163 $323 forward 7 unknown #
straight-curve $-1 24.5998999999999981 -44.44999999999999574 38.09999999999999432 0 25.39999999999999858 0 I I #
face $-1 $324 $325 $2 $-1 $326 reversed single #
plane-surface $-1 0 0 38.09999999999999432 0 0 1 25.39999999999999858 0 0 forward_v I I I I #
straight-curve $-1 1.739900000000000002 -57.14999999999999858 0 25.39999999999999858 0 0 I I #
coedge $-1 $170 $169 $239 $322 reversed $123 $-1 #
point $-1 7.327899999999998748 -57.14999999999999858 0 #
vertex $-1 $240 $327 #
straight-curve $-1 7.327899999999998748 -44.44999999999999574 0 0 0 25.39999999999999858 I I #
loop $-1 $-1 $328 $122 #
coedge $-1 $329 $329 $330 $331 reversed $175 $-1 #
point $-1 24.5998999999999981 -44.44999999999999574 38.09999999999999432 #
point $-1 1.739900000000000002 -57.14999999999999858 0 #
coedge $-1 $332 $332 $333 $334 forward $184 $-1 #
coedge $-1 $239 $190 $185 $255 forward $100 $-1 #
edge $-1 $192 0 $256 0.2199999999999999734 $254 $335 forward 7 unknown #
vertex $-1 $322 $336 #
straight-curve $-1 7.327899999999998748 -57.14999999999999858 0 0 0 25.39999999999999858 I I #
coedge $-1 $337 $338 $187 $259 forward $339 $-1 #
edge $-1 $264 0 $263 3.141592653589793116 $187 $340 forward 7 unknown #
coedge $-1 $333 $188 $338 $341 reversed $262 $-1 #
coedge $-1 $188 $333 $337 $342 forward $262 $-1 #
loop $-1 $-1 $260 $343 #
vertex $-1 $259 $344 #
vertex $-1 $259 $345 #
ellipse-curve $-1 1.739900000000000002 -50.79999999999999716 19.04999999999999716 -1 0 0 0 3.174999999999999822 0 1 I I #
straight-curve $-1 1.739900000000000002 -12.69999999999999929 38.09999999999999432 0 -25.39999999999999858 0 I I #
point $-1 1.739900000000000002 -57.14999999999999858 38.09999999999999432 #
coedge $-1 $346 $347 $194 $269 forward $348 $-1 #
edge $-1 $274 0 $273 3.141592653589793116 $194 $349 forward 7 unknown #
coedge $-1 $288 $195 $347 $350 reversed $272 $-1 #
coedge $-1 $195 $288 $346 $351 forward $272 $-1 #
loop $-1 $-1 $270 $352 #
vertex $-1 $269 $353 #
vertex $-1 $269 $354 #
ellipse-curve $-1 -15.78610000000000113 -12.69999999999999929 29.36240000000000094 0 -1 0 -3.174999999999999822 0 0 1 I I #
coedge $-1 $290 $197 $200 $281 reversed $278 $-1 #
coedge $-1 $197 $290 $199 $280 forward $278 $-1 #
loop $-1 $-1 $276 $355 #
ellipse-curve $-1 -15.78610000000000113 -12.69999999999999929 8.737599999999998701 0 -1 0 3.174999999999999822 0 0 1 I I #
edge $-1 $293 0 $203 0.5 $277 $356 forward 7 unknown #
edge $-1 $292 0 $202 0.5 $276 $357 forward 7 unknown #
face $-1 $355 $201 $2 $-1 $358 reversed single #
point $-1 -18.96110000000000184 -12.69999999999999929 8.737599999999998701 #
point $-1 -12.61110000000000042 -12.69999999999999929 8.737599999999998701 #
loop $-1 $-1 $359 $4 #
coedge $-1 $360 $360 $361 $362 forward $207 $-1 #
coedge $-1 $208 $208 $363 $364 forward $140 $-1 #
coedge $-1 $271 $270 $208 $289 reversed $272 $-1 #
edge $-1 $365 0 $366 3.141592653589793116 $208 $367 forward 7 unknown #
coedge $-1 $277 $276 $209 $291 reversed $278 $-1 #
edge $-1 $293 -1.153932592523783687e-16 $292 3.14159265358979356 $209 $368 forward 7 unknown #
vertex $-1 $291 $369 #
vertex $-1 $291 $370 #
ellipse-curve $-1 -15.78610000000000113 0 8.737599999999998701 0 -1 0 -3.174999999999999822 0 0 1 I I #
coedge $-1 $371 $212 $215 $301 forward $297 $-1 #
coedge $-1 $212 $371 $214 $300 reversed $297 $-1 #
loop $-1 $-1 $295 $372 #
ellipse-curve $-1 15.96390000000000065 0 19.04999999999999716 0 -1 0 3.174999999999999822 0 0 1 I I #
coedge $-1 $215 $214 $373 $374 forward $216 $-1 #
edge $-1 $217 0 $375 0.6199999999999999956 $296 $376 forward 7 unknown #
edge $-1 $218 0 $377 0.6199999999999999956 $295 $378 forward 7 unknown #
face $-1 $372 $216 $2 $-1 $379 reversed single #
point $-1 12.78889999999999993 0 19.04999999999999716 #
point $-1 19.13889999999999958 0 19.04999999999999716 #
coedge $-1 $221 $220 $380 $381 forward $222 $-1 #
face $-1 $382 $222 $2 $-1 $383 reversed single #
coedge $-1 $380 $380 $224 $308 reversed $384 $-1 #
edge $-1 $309 0 $311 3.141592653589793116 $307 $385 forward 7 unknown #
vertex $-1 $381 $386 #
straight-curve $-1 -1.587499999999999911 0 19.04999999999999716 0 -25.39999999999999858 0 I I #
vertex $-1 $381 $387 #
straight-curve $-1 1.587499999999999911 0 19.04999999999999716 0 -25.39999999999999858 0 I I #
cone-surface $-1 0 0 19.04999999999999716 0 -1 0 1.587499999999999911 0 0 1 I I 0 1 1.587499999999999911 forward I I I I #
coedge $-1 $232 $232 $230 $315 reversed $318 $-1 #
edge $-1 $236 0 $234 3.141592653589793116 $314 $388 forward 7 unknown #
face $-1 $227 $318 $2 $-1 $389 reversed single #
cone-surface $-1 -15.78610000000000113 0 19.04999999999999716 0 -1 0 1.587499999999999911 0 0 1 I I 0 1 1.587499999999999911 forward I I I I #
loop $-1 $-1 $232 $316 #
ellipse-curve $-1 -15.78610000000000113 -9.651999999999999247 19.04999999999999716 0 -1 0 -1.587499999999999911 0 0 1 I I #
point $-1 -17.37359999999999971 -9.651999999999999247 19.04999999999999716 #
point $-1 -14.19860000000000078 -9.651999999999999247 19.04999999999999716 #
edge $-1 $256 0 $247 0.500000000000000111 $239 $390 forward 7 unknown #
straight-curve $-1 7.327899999999998748 -44.44999999999999574 38.09999999999999432 25.39999999999999858 0 0 I I #
face $-1 $391 $392 $2 $-1 $393 reversed single #
loop $-1 $-1 $394 $242 #
cone-surface $-1 15.96390000000000065 0 8.737599999999998701 0 -1 0 3.571874999999999911 0 0 1 I I 0 1 3.571874999999999911 forward I I I I #
point $-1 7.327899999999998748 -44.44999999999999574 38.09999999999999432 #
coedge $-1 $395 $395 $396 $397 reversed $249 $-1 #
coedge $-1 $250 $250 $398 $399 reversed $175 $-1 #
coedge $-1 $400 $394 $250 $331 forward $325 $-1 #
edge $-1 $401 0 $402 3.141592653589792672 $250 $403 forward 7 unknown #
coedge $-1 $253 $253 $404 $405 forward $184 $-1 #
coedge $-1 $261 $260 $253 $334 reversed $262 $-1 #
edge $-1 $406 0 $407 3.141592653589793116 $253 $408 forward 7 unknown #
straight-curve $-1 1.739900000000000002 -57.14999999999999858 38.09999999999999432 25.39999999999999858 0 0 I I #
point $-1 7.327899999999998748 -57.14999999999999858 38.09999999999999432 #
coedge $-1 $404 $258 $261 $342 reversed $339 $-1 #
coedge $-1 $258 $404 $260 $341 forward $339 $-1 #
loop $-1 $-1 $337 $409 #
ellipse-curve $-1 1.739900000000000002 -50.79999999999999716 19.04999999999999716 -1 0 0 0 -3.174999999999999822 0 1 I I #
edge $-1 $407 0 $264 0.2199999999999999734 $338 $410 forward 7 unknown #
edge $-1 $406 0 $263 0.2199999999999999734 $337 $411 forward 7 unknown #
face $-1 $409 $262 $2 $-1 $412 reversed single #
point $-1 1.739900000000000002 -47.625 19.04999999999999716 #
point $-1 1.739900000000000002 -53.97499999999999432 19.04999999999999716 #
coedge $-1 $363 $268 $271 $351 reversed $348 $-1 #
coedge $-1 $268 $363 $270 $350 forward $348 $-1 #
loop $-1 $-1 $346 $413 #
ellipse-curve $-1 -15.78610000000000113 -12.69999999999999929 29.36240000000000094 0 -1 0 3.174999999999999822 0 0 1 I I #
edge $-1 $366 0 $274 0.5 $347 $414 forward 7 unknown #
edge $-1 $365 0 $273 0.5 $346 $415 forward 7 unknown #
face $-1 $413 $272 $2 $-1 $416 reversed single #
point $-1 -18.96110000000000184 -12.69999999999999929 29.36240000000000094 #
point $-1 -12.61110000000000042 -12.69999999999999929 29.36240000000000094 #
face $-1 $352 $278 $2 $-1 $417 reversed single #
straight-curve $-1 -12.61110000000000042 0 8.737599999999998701 0 -25.39999999999999858 0 I I #
straight-curve $-1 -18.96110000000000184 0 8.737599999999998701 0 -25.39999999999999858 0 I I #
cone-surface $-1 -15.78610000000000113 0 8.737599999999998701 0 -1 0 3.174999999999999822 0 0 1 I I 0 1 3.174999999999999822 forward I I I I #
coedge $-1 $418 $418 $419 $420 forward $285 $-1 #
coedge $-1 $286 $286 $421 $422 forward $207 $-1 #
coedge $-1 $423 $424 $286 $362 reversed $425 $-1 #
edge $-1 $426 7.10112364630022001e-17 $427 3.141592653589792672 $286 $428 forward 7 unknown #
coedge $-1 $347 $346 $287 $364 reversed $348 $-1 #
edge $-1 $366 0 $365 3.141592653589793116 $287 $429 forward 7 unknown #
vertex $-1 $364 $430 #
vertex $-1 $364 $431 #
ellipse-curve $-1 -15.78610000000000113 0 29.36240000000000094 0 -1 0 -3.174999999999999822 0 0 1 I I #
ellipse-curve $-1 -15.78610000000000113 0 8.737599999999998701 0 -1 0 3.174999999999999822 0 -1.409983241273948727e-15 1 I I #
point $-1 -18.96110000000000184 0 8.737599999999998701 #
point $-1 -12.61110000000000042 0 8.737599999999996925 #
coedge $-1 $296 $295 $432 $433 forward $297 $-1 #
face $-1 $434 $297 $2 $-1 $435 reversed single #
coedge $-1 $432 $432 $299 $374 reversed $436 $-1 #
edge $-1 $375 2.307865185047567374e-16 $377 3.14159265358979134 $373 $437 forward 7 unknown #
vertex $-1 $433 $438 #
straight-curve $-1 12.78889999999999993 0 19.04999999999999716 0 -25.39999999999999858 0 I I #
vertex $-1 $433 $439 #
straight-curve $-1 19.13889999999999958 0 19.04999999999999716 0 -25.39999999999999858 0 I I #
cone-surface $-1 15.96390000000000065 0 19.04999999999999716 0 -1 0 3.174999999999999822 0 0 1 I I 0 1 3.174999999999999822 forward I I I I #
coedge $-1 $307 $307 $305 $381 reversed $384 $-1 #
edge $-1 $311 0 $309 3.141592653589793116 $380 $440 forward 7 unknown #
face $-1 $302 $384 $2 $-1 $441 reversed single #
cone-surface $-1 0 0 19.04999999999999716 0 -1 0 1.587499999999999911 0 0 1 I I 0 1 1.587499999999999911 forward I I I I #
loop $-1 $-1 $307 $382 #
ellipse-curve $-1 0 -9.651999999999999247 19.04999999999999716 0 -1 0 -1.587499999999999911 0 0 1 I I #
point $-1 -1.587499999999999911 -9.651999999999999247 19.04999999999999716 #
point $-1 1.587499999999999911 -9.651999999999999247 19.04999999999999716 #
ellipse-curve $-1 -15.78610000000000113 -9.651999999999999247 19.04999999999999716 0 -1 0 1.587499999999999911 0 0 1 I I #
plane-surface $-1 -15.78610000000000113 -9.651999999999999247 19.04999999999999716 0 -1 0 25.39999999999999858 0 0 forward_v I I I I #
straight-curve $-1 7.327899999999998748 -57.14999999999999858 38.09999999999999432 0 25.39999999999999858 0 I I #
face $-1 $442 $443 $2 $-1 $444 reversed single #
loop $-1 $-1 $445 $324 #
cone-surface $-1 15.96390000000000065 0 8.737599999999998701 0 -1 0 3.571874999999999911 0 0 1 I I 0 1 3.571874999999999911 forward I I I I #
coedge $-1 $330 $446 $447 $448 forward $325 $-1 #
coedge $-1 $328 $328 $449 $450 reversed $249 $-1 #
coedge $-1 $451 $452 $328 $397 forward $453 $-1 #
edge $-1 $454 0 $455 3.141592653589793116 $328 $456 forward 7 unknown #
coedge $-1 $447 $445 $329 $399 forward $392 $-1 #
edge $-1 $402 -1.02571786002114137e-16 $401 3.14159265358979356 $329 $457 forward 7 unknown #
coedge $-1 $446 $330 $445 $458 reversed $325 $-1 #
vertex $-1 $399 $459 #
vertex $-1 $399 $460 #
ellipse-curve $-1 15.96390000000000065 -44.44999999999999574 8.737599999999998701 0 -1 0 -3.571874999999999911 0 0 1 I I #
coedge $-1 $338 $337 $332 $405 reversed $339 $-1 #
edge $-1 $407 0 $406 3.141592653589793116 $332 $461 forward 7 unknown #
vertex $-1 $405 $462 #
vertex $-1 $405 $463 #
ellipse-curve $-1 7.327899999999998748 -50.79999999999999716 19.04999999999999716 -1 0 0 0 3.174999999999999822 0 1 I I #
face $-1 $282 $339 $2 $-1 $464 reversed single #
straight-curve $-1 7.327899999999998748 -53.97499999999999432 19.04999999999999716 -25.39999999999999858 0 0 I I #
straight-curve $-1 7.327899999999998748 -47.625 19.04999999999999716 -25.39999999999999858 0 0 I I #
cone-surface $-1 7.327899999999998748 -50.79999999999999716 19.04999999999999716 -1 0 0 0 -3.174999999999999822 0 1 I I 0 1 3.174999999999999822 forward I I I I #
face $-1 $160 $348 $2 $-1 $465 reversed single #
straight-curve $-1 -12.61110000000000042 0 29.36240000000000094 0 -25.39999999999999858 0 I I #
straight-curve $-1 -18.96110000000000184 0 29.36240000000000094 0 -25.39999999999999858 0 I I #
cone-surface $-1 -15.78610000000000113 0 29.36240000000000094 0 -1 0 3.174999999999999822 0 0 1 I I 0 1 3.174999999999999822 forward I I I I #
cone-surface $-1 -15.78610000000000113 0 8.737599999999998701 0 -1 0 3.174999999999999822 0 0 1 I I 0 1 3.174999999999999822 forward I I I I #
coedge $-1 $359 $359 $466 $467 forward $285 $-1 #
coedge $-1 $468 $469 $359 $420 reversed $470 $-1 #
edge $-1 $471 0 $472 3.141592653589793116 $359 $473 forward 7 unknown #
coedge $-1 $474 $475 $360 $422 reversed $476 $-1 #
edge $-1 $427 -7.10112364630022001e-17 $426 3.14159265358979356 $360 $477 forward 7 unknown #
coedge $-1 $478 $361 $475 $479 forward $425 $-1 #
coedge $-1 $361 $478 $474 $480 reversed $425 $-1 #
loop $-1 $-1 $423 $442 #
vertex $-1 $422 $481 #
vertex $-1 $422 $482 #
ellipse-curve $-1 15.96390000000000065 0 8.737599999999998701 0 -1 0 -5.159374999999999822 0 -1.409983241273948727e-15 1 I I #
ellipse-curve $-1 -15.78610000000000113 0 29.36240000000000094 0 -1 0 3.174999999999999822 0 0 1 I I #
point $-1 -18.96110000000000184 0 29.36240000000000094 #
point $-1 -12.61110000000000042 0 29.36240000000000094 #
coedge $-1 $373 $373 $371 $433 reversed $436 $-1 #
edge $-1 $377 -8.881784197001252323e-16 $375 3.141592653589792228 $432 $483 forward 7 unknown #
face $-1 $-1 $436 $2 $-1 $484 reversed single #
cone-surface $-1 15.96390000000000065 0 19.04999999999999716 0 -1 0 3.174999999999999822 0 0 1 I I 0 1 3.174999999999999822 forward I I I I #
loop $-1 $-1 $373 $434 #
ellipse-curve $-1 15.96390000000000065 -15.74799999999999933 19.05000000000000071 0 -1 0 -3.174999999999999822 0 -2.819966482547897455e-15 1 I I #
point $-1 12.78889999999999993 -15.74799999999999933 19.04999999999999716 #
point $-1 19.13889999999999958 -15.74799999999999933 19.04999999999999716 #
ellipse-curve $-1 0 -9.651999999999999247 19.04999999999999716 0 -1 0 1.587499999999999911 0 0 1 I I #
plane-surface $-1 0 -9.651999999999999247 19.04999999999999716 0 -1 0 25.39999999999999858 0 0 forward_v I I I I #
face $-1 $485 $425 $2 $-1 $486 reversed single #
loop $-1 $487 $488 $391 #
plane-surface $-1 15.96390000000000065 -31.75 8.737599999999998701 0 -1 0 25.39999999999999858 0 0 forward_v I I I I #
coedge $-1 $398 $489 $400 $458 forward $392 $-1 #
coedge $-1 $394 $400 $490 $491 reversed $325 $-1 #
coedge $-1 $489 $398 $394 $448 reversed $392 $-1 #
edge $-1 $492 0 $401 0.4999999999999998335 $447 $493 forward 7 unknown #
coedge $-1 $494 $495 $395 $450 forward $496 $-1 #
edge $-1 $455 0 $454 3.141592653589793116 $395 $497 forward 7 unknown #
coedge $-1 $498 $396 $495 $499 reversed $453 $-1 #
coedge $-1 $396 $498 $494 $500 forward $453 $-1 #
loop $-1 $-1 $452 $501 #
vertex $-1 $450 $502 #
vertex $-1 $450 $503 #
ellipse-curve $-1 15.96390000000000065 -44.44999999999999574 29.36240000000000094 0 -1 0 -3.571874999999999911 0 0 1 I I #
ellipse-curve $-1 15.96390000000000065 -44.44999999999999574 8.737599999999998701 0 -1 0 3.571874999999999911 0 -1.409983241273948727e-15 1 I I #
edge $-1 $504 0 $402 0.4999999999999998335 $445 $505 forward 7 unknown #
point $-1 12.39202500000000029 -44.44999999999999574 8.737599999999998701 #
point $-1 19.535775000000001 -44.44999999999999574 8.737599999999996925 #
ellipse-curve $-1 7.327899999999998748 -50.79999999999999716 19.04999999999999716 -1 0 0 0 -3.174999999999999822 0 1 I I #
point $-1 7.327899999999998748 -47.625 19.04999999999999716 #
point $-1 7.327899999999998748 -53.97499999999999432 19.04999999999999716 #
cone-surface $-1 7.327899999999998748 -50.79999999999999716 19.04999999999999716 -1 0 0 0 -3.174999999999999822 0 1 I I 0 1 3.174999999999999822 forward I I I I #
cone-surface $-1 -15.78610000000000113 0 29.36240000000000094 0 -1 0 3.174999999999999822 0 0 1 I I 0 1 3.174999999999999822 forward I I I I #
coedge $-1 $506 $507 $418 $467 reversed $508 $-1 #
edge $-1 $472 0 $471 3.141592653589793116 $418 $509 forward 7 unknown #
coedge $-1 $510 $419 $507 $511 forward $470 $-1 #
coedge $-1 $419 $510 $506 $512 reversed $470 $-1 #
loop $-1 $-1 $468 $513 #
vertex $-1 $467 $514 #
vertex $-1 $467 $515 #
ellipse-curve $-1 15.96390000000000065 0 29.36240000000000094 0 -1 0 -5.159374999999999822 0 0 1 I I #
coedge $-1 $516 $421 $424 $480 forward $476 $-1 #
coedge $-1 $421 $516 $423 $479 reversed $476 $-1 #
loop $-1 $-1 $474 $485 #
ellipse-curve $-1 15.96390000000000065 0 8.737599999999998701 0 -1 0 5.159374999999999822 0 -1.409983241273948727e-15 1 I I #
coedge $-1 $424 $423 $488 $517 forward $425 $-1 #
edge $-1 $426 0 $518 1.25 $475 $519 forward 7 unknown #
edge $-1 $427 0 $520 1.25 $474 $521 forward 7 unknown #
point $-1 10.80452500000000171 0 8.737599999999996925 #
point $-1 21.12327499999999958 0 8.737599999999996925 #
ellipse-curve $-1 15.96390000000000065 -15.74799999999999933 19.04999999999999716 0 -1 0 3.174999999999999822 0 2.819966482547897455e-15 1 I I #
plane-surface $-1 15.96390000000000065 -15.74799999999999933 19.04999999999999716 0 -1 0 25.39999999999999858 0 0 forward_v I I I I #
face $-1 $501 $476 $2 $-1 $522 reversed single #
cone-surface $-1 15.96390000000000065 0 8.737599999999998701 0 -1 0 5.159374999999999822 0 0 1 I I 0 1 5.159374999999999822 forward I I I I #
loop $-1 $-1 $490 $391 #
coedge $-1 $523 $523 $478 $517 reversed $443 $-1 #
coedge $-1 $445 $447 $524 $525 reversed $392 $-1 #
coedge $-1 $524 $524 $446 $491 forward $487 $-1 #
edge $-1 $492 0 $504 3.141592653589793116 $446 $526 forward 7 unknown #
vertex $-1 $525 $527 #
straight-curve $-1 12.39202500000000029 -31.75 8.737599999999998701 0 -25.39999999999999858 0 I I #
coedge $-1 $528 $449 $452 $500 reversed $496 $-1 #
coedge $-1 $449 $528 $451 $499 forward $496 $-1 #
loop $-1 $-1 $495 $529 #
ellipse-curve $-1 15.96390000000000065 -44.44999999999999574 29.36240000000000094 0 -1 0 3.571874999999999911 0 0 1 I I #
coedge $-1 $452 $451 $530 $531 reversed $453 $-1 #
edge $-1 $532 0 $455 0.4999999999999998335 $495 $533 forward 7 unknown #
edge $-1 $534 0 $454 0.4999999999999998335 $494 $535 forward 7 unknown #
face $-1 $529 $453 $2 $-1 $536 reversed single #
point $-1 12.39202500000000029 -44.44999999999999574 29.36240000000000094 #
point $-1 19.535775000000001 -44.44999999999999574 29.36240000000000094 #
vertex $-1 $525 $537 #
straight-curve $-1 19.535775000000001 -31.75 8.737599999999998701 0 -25.39999999999999858 0 I I #
coedge $-1 $538 $466 $469 $512 forward $508 $-1 #
coedge $-1 $466 $538 $468 $511 reversed $508 $-1 #
loop $-1 $-1 $506 $539 #
ellipse-curve $-1 15.96390000000000065 0 29.36240000000000094 0 -1 0 5.159374999999999822 0 0 1 I I #
coedge $-1 $469 $468 $540 $541 forward $470 $-1 #
edge $-1 $471 0 $542 1.25 $507 $543 forward 7 unknown #
edge $-1 $472 0 $544 1.25 $506 $545 forward 7 unknown #
face $-1 $539 $470 $2 $-1 $546 reversed single #
point $-1 10.80452500000000171 0 29.36240000000000094 #
point $-1 21.12327499999999958 0 29.36240000000000094 #
coedge $-1 $475 $474 $523 $547 forward $476 $-1 #
edge $-1 $518 0 $520 3.141592653589793116 $488 $548 forward 7 unknown #
vertex $-1 $547 $549 #
straight-curve $-1 10.80452500000000171 0 8.737599999999998701 0 -25.39999999999999858 0 I I #
vertex $-1 $547 $550 #
straight-curve $-1 21.12327499999999958 0 8.737599999999998701 0 -25.39999999999999858 0 I I #
cone-surface $-1 15.96390000000000065 0 8.737599999999998701 0 -1 0 5.159374999999999822 0 0 1 I I 0 1 5.159374999999999822 forward I I I I #
coedge $-1 $488 $488 $516 $547 reversed $443 $-1 #
coedge $-1 $490 $490 $489 $525 forward $487 $-1 #
edge $-1 $504 0 $492 3.141592653589793116 $489 $551 forward 7 unknown #
ellipse-curve $-1 15.96390000000000065 -31.75 8.737599999999998701 0 -1 0 -3.571874999999999911 0 0 1 I I #
point $-1 12.39202500000000029 -31.75 8.737599999999998701 #
coedge $-1 $495 $494 $552 $553 reversed $496 $-1 #
face $-1 $554 $496 $2 $-1 $555 reversed single #
coedge $-1 $552 $552 $498 $531 forward $556 $-1 #
edge $-1 $534 0 $532 3.141592653589793116 $498 $557 forward 7 unknown #
vertex $-1 $553 $558 #
straight-curve $-1 19.535775000000001 -31.75 29.36240000000000094 0 -25.39999999999999858 0 I I #
vertex $-1 $553 $559 #
straight-curve $-1 12.39202500000000029 -31.75 29.36240000000000094 0 -25.39999999999999858 0 I I #
cone-surface $-1 15.96390000000000065 0 29.36240000000000094 0 -1 0 3.571874999999999911 0 0 1 I I 0 1 3.571874999999999911 forward I I I I #
point $-1 19.535775000000001 -31.75 8.737599999999998701 #
coedge $-1 $507 $506 $560 $561 forward $508 $-1 #
face $-1 $343 $508 $2 $-1 $562 reversed single #
coedge $-1 $560 $560 $510 $541 reversed $563 $-1 #
edge $-1 $542 0 $544 3.141592653589793116 $540 $564 forward 7 unknown #
vertex $-1 $561 $565 #
straight-curve $-1 10.80452500000000171 0 29.36240000000000094 0 -25.39999999999999858 0 I I #
vertex $-1 $561 $566 #
straight-curve $-1 21.12327499999999958 0 29.36240000000000094 0 -25.39999999999999858 0 I I #
cone-surface $-1 15.96390000000000065 0 29.36240000000000094 0 -1 0 5.159374999999999822 0 0 1 I I 0 1 5.159374999999999822 forward I I I I #
edge $-1 $520 0 $518 3.141592653589793116 $523 $567 forward 7 unknown #
ellipse-curve $-1 15.96390000000000065 -31.75 8.737599999999998701 0 -1 0 -5.159374999999999822 0 0 1 I I #
point $-1 10.80452500000000171 -31.75 8.737599999999998701 #
point $-1 21.12327499999999958 -31.75 8.737599999999998701 #
ellipse-curve $-1 15.96390000000000065 -31.75 8.737599999999998701 0 -1 0 3.571874999999999911 0 0 1 I I #
coedge $-1 $530 $530 $528 $553 forward $556 $-1 #
edge $-1 $532 0 $534 3.141592653589793116 $528 $568 forward 7 unknown #
face $-1 $513 $563 $2 $-1 $569 reversed single #
cone-surface $-1 15.96390000000000065 0 29.36240000000000094 0 -1 0 3.571874999999999911 0 0 1 I I 0 1 3.571874999999999911 forward I I I I #
loop $-1 $-1 $530 $554 #
ellipse-curve $-1 15.96390000000000065 -31.75 29.36240000000000094 0 -1 0 -3.571874999999999911 0 0 1 I I #
point $-1 19.535775000000001 -31.75 29.36240000000000094 #
point $-1 12.39202500000000029 -31.75 29.36240000000000094 #
coedge $-1 $540 $540 $538 $561 reversed $563 $-1 #
edge $-1 $544 0 $542 3.141592653589793116 $560 $570 forward 7 unknown #
cone-surface $-1 15.96390000000000065 0 29.36240000000000094 0 -1 0 5.159374999999999822 0 0 1 I I 0 1 5.159374999999999822 forward I I I I #
loop $-1 $556 $540 $554 #
ellipse-curve $-1 15.96390000000000065 -31.75 29.36240000000000094 0 -1 0 -5.159374999999999822 0 0 1 I I #
point $-1 10.80452500000000171 -31.75 29.36240000000000094 #
point $-1 21.12327499999999958 -31.75 29.36240000000000094 #
ellipse-curve $-1 15.96390000000000065 -31.75 8.737599999999998701 0 -1 0 5.159374999999999822 0 0 1 I I #
ellipse-curve $-1 15.96390000000000065 -31.75 29.36240000000000094 0 -1 0 3.571874999999999911 0 0 1 I I #
plane-surface $-1 15.96390000000000065 -31.75 29.36240000000000094 0 -1 0 25.39999999999999858 0 0 forward_v I I I I #
ellipse-curve $-1 15.96390000000000065 -31.75 29.36240000000000094 0 -1 0 5.159374999999999822 0 0 1 I I #
End-of-ACIS-data 