600 0 1 0           
110 GICL ACIS Healer - Source: /gicl/data5/repository/NIST/Manfred_Osti/spectrometer/spacer_66/spacer_66.sat - 6 0 18 ACIS 6.0.3 Solaris 24 Sun Apr 14 00:37:16 2002 
1 9.999999999999999547e-07 1.000000000000000036e-10 
body $-1 $1 $-1 $-1 #
lump $-1 $-1 $2 $0 #
shell $-1 $-1 $-1 $3 $-1 $1 #
face $-1 $4 $5 $2 $-1 $6 reversed single #
face $-1 $7 $8 $2 $-1 $9 forward single #
loop $-1 $-1 $10 $3 #
plane-surface $-1 0 0 0 0 0 1 1 0 0 forward_v I I I I #
face $-1 $11 $12 $2 $-1 $13 forward single #
loop $-1 $-1 $14 $4 #
plane-surface $-1 0 0 1.5 0 0 1 1 0 0 forward_v I I I I #
coedge $-1 $15 $16 $17 $18 forward $5 $-1 #
face $-1 $19 $20 $2 $-1 $21 forward single #
loop $-1 $-1 $17 $7 #
plane-surface $-1 -0.9685000000000000275 0 0 -1 0 0 0 0 1 forward_v I I I I #
coedge $-1 $22 $23 $24 $25 reversed $8 $-1 #
coedge $-1 $26 $10 $27 $28 forward $5 $-1 #
coedge $-1 $10 $29 $30 $31 forward $5 $-1 #
coedge $-1 $32 $33 $10 $18 reversed $12 $-1 #
edge $-1 $34 -0.5 $35 0 $17 $36 forward 7 unknown #
face $-1 $37 $38 $2 $-1 $39 forward single #
loop $-1 $40 $30 $11 #
plane-surface $-1 -0.9685000000000000275 -0.5 0 0 -1 0 0 0 -1 forward_v I I I I #
coedge $-1 $41 $14 $42 $43 reversed $8 $-1 #
coedge $-1 $14 $44 $45 $46 reversed $8 $-1 #
coedge $-1 $33 $32 $14 $25 forward $12 $-1 #
edge $-1 $47 -0.5 $48 0 $24 $49 forward 7 unknown #
coedge $-1 $50 $15 $51 $52 forward $5 $-1 #
coedge $-1 $53 $54 $15 $28 reversed $55 $-1 #
edge $-1 $35 -1.937000000000000055 $56 0 $27 $57 forward 7 unknown #
coedge $-1 $16 $58 $59 $60 forward $5 $-1 #
coedge $-1 $61 $62 $16 $31 reversed $20 $-1 #
edge $-1 $63 -1.036999999999999922 $34 0 $30 $64 forward 7 unknown #
coedge $-1 $24 $17 $62 $65 reversed $12 $-1 #
coedge $-1 $17 $24 $53 $66 forward $12 $-1 #
vertex $-1 $65 $67 #
vertex $-1 $66 $68 #
straight-curve $-1 -0.9685000000000000275 0 0 0 1 0 I I #
face $-1 $69 $70 $2 $-1 $71 forward single #
loop $-1 $72 $59 $19 #
plane-surface $-1 0.06850000000000000533 -0.5 0 -1 0 0 0 0 1 forward_v I I I I #
loop $-1 $73 $74 $11 #
coedge $-1 $75 $22 $76 $77 reversed $8 $-1 #
coedge $-1 $62 $61 $22 $43 forward $20 $-1 #
edge $-1 $78 -1.036999999999999922 $47 0 $42 $79 forward 7 unknown #
coedge $-1 $23 $80 $81 $82 reversed $8 $-1 #
coedge $-1 $54 $53 $23 $46 forward $55 $-1 #
edge $-1 $48 -1.937000000000000055 $83 0 $45 $84 forward 7 unknown #
vertex $-1 $65 $85 #
vertex $-1 $66 $86 #
straight-curve $-1 -0.9685000000000000275 0 1.5 0 1 0 I I #
coedge $-1 $87 $26 $88 $89 forward $5 $-1 #
coedge $-1 $90 $91 $26 $52 reversed $92 $-1 #
edge $-1 $56 -1.75 $93 0 $51 $94 forward 7 unknown #
coedge $-1 $45 $27 $33 $66 reversed $55 $-1 #
coedge $-1 $27 $45 $90 $95 forward $55 $-1 #
loop $-1 $96 $27 $97 #
vertex $-1 $95 $98 #
straight-curve $-1 0.9685000000000000275 0 0 1 0 0 I I #
coedge $-1 $29 $87 $99 $100 forward $5 $-1 #
coedge $-1 $101 $102 $29 $60 reversed $38 $-1 #
edge $-1 $103 -1.75 $63 0 $59 $104 forward 7 unknown #
coedge $-1 $42 $30 $102 $105 reversed $20 $-1 #
coedge $-1 $30 $42 $32 $65 forward $20 $-1 #
vertex $-1 $105 $106 #
straight-curve $-1 -0.9685000000000000275 -0.5 0 -1 0 0 I I #
edge $-1 $47 -1.5 $34 0 $62 $107 forward 7 unknown #
edge $-1 $48 -1.5 $35 0 $53 $108 forward 7 unknown #
point $-1 -0.9685000000000000275 -0.5 0 #
point $-1 -0.9685000000000000275 0 0 #
face $-1 $109 $110 $2 $-1 $111 forward single #
loop $-1 $-1 $99 $37 #
plane-surface $-1 0.06850000000000000533 -2.25 0 0 -1 0 0 0 -1 forward_v I I I I #
loop $-1 $-1 $112 $19 #
loop $-1 $-1 $113 $11 #
coedge $-1 $74 $74 $114 $115 forward $40 $-1 #
coedge $-1 $116 $41 $117 $118 reversed $8 $-1 #
coedge $-1 $102 $101 $41 $77 forward $38 $-1 #
edge $-1 $119 -1.75 $78 0 $76 $120 forward 7 unknown #
vertex $-1 $105 $121 #
straight-curve $-1 -0.9685000000000000275 -0.5 1.5 -1 0 0 I I #
coedge $-1 $44 $116 $122 $123 reversed $8 $-1 #
coedge $-1 $91 $90 $44 $82 forward $92 $-1 #
edge $-1 $83 -1.75 $124 0 $81 $125 forward 7 unknown #
vertex $-1 $95 $126 #
straight-curve $-1 0.9685000000000000275 0 1.5 1 0 0 I I #
point $-1 -0.9685000000000000275 -0.5 1.5 #
point $-1 -0.9685000000000000275 0 1.5 #
coedge $-1 $58 $50 $127 $128 forward $5 $-1 #
coedge $-1 $129 $130 $50 $89 reversed $131 $-1 #
edge $-1 $93 -0.6800000000000000488 $132 0 $88 $133 forward 7 unknown #
coedge $-1 $81 $51 $54 $95 reversed $92 $-1 #
coedge $-1 $51 $81 $129 $134 forward $92 $-1 #
loop $-1 $-1 $51 $135 #
vertex $-1 $134 $136 #
straight-curve $-1 0.9685000000000000275 -1.75 0 0 -1 0 I I #
edge $-1 $83 -1.5 $56 0 $54 $137 forward 7 unknown #
loop $-1 $138 $139 $97 #
face $-1 $140 $55 $2 $-1 $141 forward single #
point $-1 0.9685000000000000275 0 0 #
coedge $-1 $142 $143 $58 $100 reversed $70 $-1 #
edge $-1 $144 -0.2199999999999999734 $103 0 $99 $145 forward 7 unknown #
coedge $-1 $76 $59 $143 $146 reversed $38 $-1 #
coedge $-1 $59 $76 $61 $105 forward $38 $-1 #
vertex $-1 $146 $147 #
straight-curve $-1 0.06850000000000000533 -0.5 0 0 1 0 I I #
edge $-1 $78 -1.5 $63 0 $102 $148 forward 7 unknown #
point $-1 0.06850000000000000533 -0.5 0 #
straight-curve $-1 -0.9685000000000000275 -0.5 0 0 0 -1 I I #
straight-curve $-1 -0.9685000000000000275 0 0 0 0 -1 I I #
face $-1 $135 $131 $2 $-1 $149 forward single #
loop $-1 $150 $127 $69 #
plane-surface $-1 0.2884999999999999787 -2.25 0 1 0 0 0 0 -1 forward_v I I I I #
coedge $-1 $112 $112 $151 $152 forward $72 $-1 #
coedge $-1 $113 $113 $153 $154 forward $73 $-1 #
coedge $-1 $114 $114 $74 $115 reversed $155 $-1 #
edge $-1 $156 -3.141592653589793116 $156 3.141592653589793116 $114 $157 forward 7 unknown #
coedge $-1 $80 $75 $158 $159 reversed $8 $-1 #
coedge $-1 $143 $142 $75 $118 forward $70 $-1 #
edge $-1 $160 -0.2199999999999999734 $119 0 $117 $161 forward 7 unknown #
vertex $-1 $146 $162 #
straight-curve $-1 0.06850000000000000533 -0.5 1.5 0 1 0 I I #
point $-1 0.06850000000000000533 -0.5 1.5 #
coedge $-1 $130 $129 $80 $123 forward $131 $-1 #
edge $-1 $124 -0.6800000000000000488 $163 0 $122 $164 forward 7 unknown #
vertex $-1 $134 $165 #
straight-curve $-1 0.9685000000000000275 -1.75 1.5 0 -1 0 I I #
point $-1 0.9685000000000000275 0 1.5 #
coedge $-1 $166 $167 $87 $128 reversed $110 $-1 #
edge $-1 $132 -0.5 $144 0 $127 $168 forward 7 unknown #
coedge $-1 $122 $88 $91 $134 reversed $131 $-1 #
coedge $-1 $88 $122 $166 $169 forward $131 $-1 #
loop $-1 $170 $88 $109 #
vertex $-1 $169 $171 #
straight-curve $-1 0.2884999999999999787 -1.75 0 -1 0 0 I I #
edge $-1 $124 -1.5 $93 0 $91 $172 forward 7 unknown #
face $-1 $97 $92 $2 $-1 $173 forward single #
point $-1 0.9685000000000000275 -1.75 0 #
straight-curve $-1 0.9685000000000000275 0 0 0 0 -1 I I #
loop $-1 $174 $175 $97 #
coedge $-1 $139 $139 $176 $177 reversed $96 $-1 #
face $-1 $178 $179 $2 $-1 $180 reversed single #
plane-surface $-1 0.9685000000000000275 0 0 0 1 0 0 0 1 forward_v I I I I #
coedge $-1 $117 $99 $167 $181 reversed $70 $-1 #
coedge $-1 $99 $117 $101 $146 forward $70 $-1 #
vertex $-1 $181 $182 #
straight-curve $-1 0.06850000000000000533 -2.25 0 -1 0 0 I I #
edge $-1 $119 -1.5 $103 0 $143 $183 forward 7 unknown #
point $-1 0.06850000000000000533 -2.25 0 #
straight-curve $-1 0.06850000000000000533 -0.5 0 0 0 -1 I I #
plane-surface $-1 0.2884999999999999787 -1.75 0 0 -1 0 0 0 -1 forward_v I I I I #
loop $-1 $-1 $184 $69 #
coedge $-1 $151 $151 $112 $152 reversed $185 $-1 #
edge $-1 $186 -3.141592653589793116 $186 3.141592653589793116 $151 $187 forward 7 unknown #
coedge $-1 $153 $153 $113 $154 reversed $188 $-1 #
edge $-1 $189 -3.141592653589793116 $189 3.141592653589793116 $153 $190 forward 7 unknown #
loop $-1 $-1 $114 $191 #
vertex $-1 $115 $192 #
ellipse-curve $-1 -0.6215000000000000524 -0.5 0.3439999999999999725 0 1 0 -0.125 0 0 1 I I #
coedge $-1 $167 $166 $116 $159 forward $110 $-1 #
edge $-1 $163 -0.5 $160 0 $158 $193 forward 7 unknown #
vertex $-1 $181 $194 #
straight-curve $-1 0.06850000000000000533 -2.25 1.5 -1 0 0 I I #
point $-1 0.06850000000000000533 -2.25 1.5 #
vertex $-1 $169 $195 #
straight-curve $-1 0.2884999999999999787 -1.75 1.5 -1 0 0 I I #
point $-1 0.9685000000000000275 -1.75 1.5 #
coedge $-1 $158 $127 $130 $169 reversed $110 $-1 #
coedge $-1 $127 $158 $142 $181 forward $110 $-1 #
straight-curve $-1 0.2884999999999999787 -2.25 0 0 -1 0 I I #
edge $-1 $163 -1.5 $132 0 $130 $196 forward 7 unknown #
loop $-1 $197 $198 $109 #
point $-1 0.2884999999999999787 -1.75 0 #
straight-curve $-1 0.9685000000000000275 -1.75 0 0 0 -1 I I #
plane-surface $-1 0.9685000000000000275 -1.75 0 1 0 0 0 0 -1 forward_v I I I I #
loop $-1 $199 $200 $97 #
coedge $-1 $175 $175 $201 $202 reversed $138 $-1 #
coedge $-1 $176 $176 $139 $177 forward $203 $-1 #
edge $-1 $204 0 $204 6.283185307179586232 $176 $205 forward 7 unknown #
face $-1 $206 $207 $2 $-1 $208 reversed single #
loop $-1 $-1 $209 $140 #
plane-surface $-1 -0.6215000000000000524 -0.3800000000000000044 0.75 0 -1 0 0 0 -1 forward_v I I I I #
edge $-1 $160 -1.5 $144 0 $167 $210 forward 7 unknown #
point $-1 0.2884999999999999787 -2.25 0 #
straight-curve $-1 0.06850000000000000533 -2.25 0 0 0 -1 I I #
coedge $-1 $184 $184 $211 $212 reversed $150 $-1 #
loop $-1 $-1 $151 $213 #
vertex $-1 $152 $214 #
ellipse-curve $-1 0.06850000000000000533 -2 0.75 1 0 0 0 0.125 0 1 I I #
loop $-1 $-1 $153 $215 #
vertex $-1 $154 $216 #
ellipse-curve $-1 -0.6215000000000000524 -0.5 1.155999999999999917 0 1 0 -0.125 0 0 1 I I #
face $-1 $215 $217 $2 $-1 $218 reversed single #
point $-1 -0.4964999999999999969 -0.5 0.3439999999999999725 #
straight-curve $-1 0.2884999999999999787 -2.25 1.5 0 -1 0 I I #
point $-1 0.2884999999999999787 -2.25 1.5 #
point $-1 0.2884999999999999787 -1.75 1.5 #
straight-curve $-1 0.2884999999999999787 -1.75 0 0 0 -1 I I #
loop $-1 $-1 $219 $109 #
coedge $-1 $198 $198 $220 $221 forward $170 $-1 #
loop $-1 $222 $223 $97 #
coedge $-1 $200 $200 $224 $225 reversed $174 $-1 #
coedge $-1 $201 $201 $175 $202 forward $226 $-1 #
edge $-1 $227 0 $227 6.283185307179586232 $201 $228 forward 7 unknown #
loop $-1 $-1 $176 $178 #
vertex $-1 $177 $229 #
ellipse-curve $-1 -0.6215000000000000524 0 0.75 0 1 0 0.0625 0 0 1 I I #
face $-1 $230 $231 $2 $-1 $232 reversed single #
loop $-1 $203 $233 $178 #
cone-surface $-1 -0.6215000000000000524 0 0.75 0 -1 0 0.0625 0 0 1 I I 0 1 0.0625 forward I I I I #
coedge $-1 $209 $209 $233 $234 forward $179 $-1 #
straight-curve $-1 0.2884999999999999787 -2.25 0 0 0 -1 I I #
coedge $-1 $211 $211 $184 $212 forward $235 $-1 #
edge $-1 $236 0 $236 6.283185307179586232 $211 $237 forward 7 unknown #
face $-1 $-1 $235 $2 $-1 $238 reversed single #
point $-1 0.06850000000000000533 -2.125 0.75 #
face $-1 $239 $240 $2 $-1 $241 reversed single #
point $-1 -0.4964999999999999969 -0.5 1.155999999999999917 #
loop $-1 $155 $242 $191 #
cone-surface $-1 -0.6215000000000000524 0 0.3439999999999999725 0 -1 0 0.125 0 0 1 I I 0 1 0.125 forward I I I I #
coedge $-1 $219 $219 $243 $244 forward $197 $-1 #
coedge $-1 $220 $220 $198 $221 reversed $245 $-1 #
edge $-1 $246 -3.141592653589793116 $246 3.141592653589793116 $220 $247 forward 7 unknown #
loop $-1 $248 $249 $97 #
coedge $-1 $223 $223 $242 $250 reversed $199 $-1 #
coedge $-1 $224 $224 $200 $225 forward $251 $-1 #
edge $-1 $252 0 $252 6.283185307179586232 $224 $253 forward 7 unknown #
loop $-1 $-1 $201 $230 #
vertex $-1 $202 $254 #
ellipse-curve $-1 0 0 0.75 0 1 0 0.0625 0 0 1 I I #
point $-1 -0.5590000000000000524 0 0.75 #
face $-1 $255 $256 $2 $-1 $257 reversed single #
loop $-1 $-1 $258 $206 #
plane-surface $-1 0 -0.3800000000000000044 0.75 0 -1 0 0 0 -1 forward_v I I I I #
coedge $-1 $233 $233 $209 $234 reversed $207 $-1 #
edge $-1 $259 -3.141592653589793116 $259 3.141592653589793116 $233 $260 forward 7 unknown #
loop $-1 $185 $211 $213 #
vertex $-1 $212 $261 #
ellipse-curve $-1 0.2884999999999999787 -2 0.75 1 0 0 0 -0.125 0 1 I I #
cone-surface $-1 0.2884999999999999787 -2 0.75 -1 0 0 0 -0.125 0 1 I I 0 1 0.125 forward I I I I #
face $-1 $262 $245 $2 $-1 $263 reversed single #
loop $-1 $188 $264 $215 #
cone-surface $-1 -0.6215000000000000524 0 1.155999999999999917 0 -1 0 0.125 0 0 1 I I 0 1 0.125 forward I I I I #
coedge $-1 $242 $242 $223 $250 forward $217 $-1 #
coedge $-1 $243 $243 $219 $244 reversed $265 $-1 #
edge $-1 $266 -3.141592653589793116 $266 3.141592653589793116 $243 $267 forward 7 unknown #
loop $-1 $268 $220 $239 #
vertex $-1 $221 $269 #
ellipse-curve $-1 0.6284999999999999476 -1.75 0.3439999999999999725 0 1 0 -0.140625 0 0 1 I I #
loop $-1 $270 $271 $97 #
coedge $-1 $249 $249 $264 $272 reversed $222 $-1 #
edge $-1 $273 0 $273 6.283185307179586232 $242 $274 forward 7 unknown #
loop $-1 $-1 $224 $275 #
vertex $-1 $225 $276 #
ellipse-curve $-1 0.6284999999999999476 0 0.75 0 1 0 0.125 0 0 1 I I #
point $-1 0.0625 0 0.75 #
face $-1 $275 $277 $2 $-1 $278 reversed single #
loop $-1 $226 $279 $230 #
cone-surface $-1 0 0 0.75 0 -1 0 0.0625 0 0 1 I I 0 1 0.0625 forward I I I I #
coedge $-1 $258 $258 $279 $280 forward $231 $-1 #
vertex $-1 $234 $281 #
ellipse-curve $-1 -0.6215000000000000524 -0.3800000000000000044 0.75 0 1 0 -0.0625 0 0 1 I I #
point $-1 0.2884999999999999787 -2.125 0.75 #
face $-1 $282 $265 $2 $-1 $283 reversed single #
cone-surface $-1 0.6284999999999999476 0 0.3439999999999999725 0 -1 0 0.140625 0 0 1 I I 0 1 0.140625 forward I I I I #
coedge $-1 $264 $264 $249 $272 forward $240 $-1 #
loop $-1 $284 $243 $262 #
vertex $-1 $244 $285 #
ellipse-curve $-1 0.6284999999999999476 -1.75 1.155999999999999917 0 1 0 -0.140625 0 0 1 I I #
loop $-1 $-1 $286 $239 #
point $-1 0.7691249999999999476 -1.75 0.3439999999999999725 #
loop $-1 $-1 $287 $97 #
coedge $-1 $271 $271 $288 $289 reversed $248 $-1 #
edge $-1 $290 0 $290 6.283185307179586232 $264 $291 forward 7 unknown #
vertex $-1 $250 $292 #
ellipse-curve $-1 -0.6215000000000000524 0 0.3439999999999999725 0 1 0 0.125 0 0 1 I I #
face $-1 $191 $293 $2 $-1 $294 reversed single #
point $-1 0.7534999999999999476 0 0.75 #
loop $-1 $-1 $295 $255 #
plane-surface $-1 0.6284999999999999476 -0.6199999999999999956 0.75 0 -1 0 0 0 -1 forward_v I I I I #
coedge $-1 $279 $279 $258 $280 reversed $256 $-1 #
edge $-1 $296 -3.141592653589793116 $296 3.141592653589793116 $279 $297 forward 7 unknown #
point $-1 -0.5590000000000000524 -0.3800000000000000044 0.75 #
face $-1 $298 $299 $2 $-1 $300 reversed single #
cone-surface $-1 0.6284999999999999476 0 1.155999999999999917 0 -1 0 0.140625 0 0 1 I I 0 1 0.140625 forward I I I I #
loop $-1 $-1 $301 $262 #
point $-1 0.7691249999999999476 -1.75 1.155999999999999917 #
coedge $-1 $286 $286 $302 $303 forward $268 $-1 #
coedge $-1 $287 $287 $304 $305 reversed $270 $-1 #
coedge $-1 $288 $288 $271 $289 forward $306 $-1 #
edge $-1 $307 0 $307 6.283185307179586232 $288 $308 forward 7 unknown #
vertex $-1 $272 $309 #
ellipse-curve $-1 -0.6215000000000000524 0 1.155999999999999917 0 1 0 0.125 0 0 1 I I #
point $-1 -0.4964999999999999969 0 0.3439999999999999725 #
loop $-1 $251 $310 $275 #
cone-surface $-1 0.6284999999999999476 0 0.75 0 -1 0 0.125 0 0 1 I I 0 1 0.125 forward I I I I #
coedge $-1 $295 $295 $310 $311 forward $277 $-1 #
vertex $-1 $280 $312 #
ellipse-curve $-1 0 -0.3800000000000000044 0.75 0 1 0 -0.0625 0 0 1 I I #
face $-1 $313 $314 $2 $-1 $315 reversed single #
loop $-1 $316 $317 $282 #
plane-surface $-1 0.6284999999999999476 -1.25 0.3439999999999999725 0 -1 0 0 0 -1 forward_v I I I I #
coedge $-1 $301 $301 $318 $319 forward $284 $-1 #
coedge $-1 $302 $302 $286 $303 reversed $316 $-1 #
edge $-1 $320 -3.141592653589793116 $320 3.141592653589793116 $302 $321 forward 7 unknown #
coedge $-1 $304 $304 $287 $305 forward $322 $-1 #
edge $-1 $323 0 $323 6.283185307179586232 $304 $324 forward 7 unknown #
loop $-1 $-1 $288 $298 #
vertex $-1 $289 $325 #
ellipse-curve $-1 0.6284999999999999476 0 0.3439999999999999725 0 1 0 0.203125 0 0 1 I I #
point $-1 -0.4964999999999999969 0 1.155999999999999917 #
coedge $-1 $310 $310 $295 $311 reversed $293 $-1 #
edge $-1 $326 -3.141592653589793116 $326 3.141592653589793116 $310 $327 forward 7 unknown #
point $-1 0.0625 -0.3800000000000000044 0.75 #
face $-1 $328 $329 $2 $-1 $330 reversed single #
loop $-1 $306 $331 $298 #
cone-surface $-1 0.6284999999999999476 0 0.3439999999999999725 0 -1 0 0.203125 0 0 1 I I 0 1 0.203125 forward I I I I #
loop $-1 $-1 $302 $282 #
coedge $-1 $317 $317 $331 $332 forward $299 $-1 #
coedge $-1 $318 $318 $301 $319 reversed $333 $-1 #
edge $-1 $334 -3.141592653589793116 $334 3.141592653589793116 $318 $335 forward 7 unknown #
vertex $-1 $303 $336 #
ellipse-curve $-1 0.6284999999999999476 -1.25 0.3439999999999999725 0 1 0 -0.140625 0 0 1 I I #
loop $-1 $-1 $304 $328 #
vertex $-1 $305 $337 #
ellipse-curve $-1 0.6284999999999999476 0 1.155999999999999917 0 1 0 0.203125 0 0 1 I I #
point $-1 0.8316249999999999476 0 0.3439999999999999725 #
vertex $-1 $311 $338 #
ellipse-curve $-1 0.6284999999999999476 -0.6199999999999999956 0.75 0 1 0 -0.125 0 0 1 I I #
face $-1 $213 $339 $2 $-1 $340 reversed single #
loop $-1 $333 $341 $313 #
plane-surface $-1 0.6284999999999999476 -1.25 1.155999999999999917 0 -1 0 0 0 -1 forward_v I I I I #
coedge $-1 $331 $331 $317 $332 reversed $314 $-1 #
edge $-1 $342 -3.141592653589793116 $342 3.141592653589793116 $331 $343 forward 7 unknown #
loop $-1 $-1 $318 $313 #
vertex $-1 $319 $344 #
ellipse-curve $-1 0.6284999999999999476 -1.25 1.155999999999999917 0 1 0 -0.140625 0 0 1 I I #
point $-1 0.7691249999999999476 -1.25 0.3439999999999999725 #
point $-1 0.8316249999999999476 0 1.155999999999999917 #
point $-1 0.7534999999999999476 -0.6199999999999999956 0.75 #
loop $-1 $322 $345 $328 #
cone-surface $-1 0.6284999999999999476 0 1.155999999999999917 0 -1 0 0.203125 0 0 1 I I 0 1 0.203125 forward I I I I #
coedge $-1 $341 $341 $345 $346 forward $329 $-1 #
vertex $-1 $332 $347 #
ellipse-curve $-1 0.6284999999999999476 -1.25 0.3439999999999999725 0 1 0 -0.203125 0 0 1 I I #
point $-1 0.7691249999999999476 -1.25 1.155999999999999917 #
coedge $-1 $345 $345 $341 $346 reversed $339 $-1 #
edge $-1 $348 -3.141592653589793116 $348 3.141592653589793116 $345 $349 forward 7 unknown #
point $-1 0.8316249999999999476 -1.25 0.3439999999999999725 #
vertex $-1 $346 $350 #
ellipse-curve $-1 0.6284999999999999476 -1.25 1.155999999999999917 0 1 0 -0.203125 0 0 1 I I #
point $-1 0.8316249999999999476 -1.25 1.155999999999999917 #
End-of-ACIS-data 