600 0 1 0           
120 GICL Pro/E ACIS Translator - Source: f:/data5/repository/PTC/V20/web_demos/models/shtmtl_manual/part_contour.prt.3 - 6 0 13 ACIS 6.0.3 NT 24 Thu Apr 04 13:10:05 2002 
1 9.9999999999999995e-007 1e-010 
body $-1 $1 $-1 $2 #
lump $-1 $-1 $3 $0 #
transform $-1 1 0 0 0 1 0 0 0 1 0 0 0 25.399999999999999 no_rotate no_reflect no_shear #
shell $-1 $-1 $-1 $4 $-1 $1 #
face $-1 $5 $6 $3 $-1 $7 forward single #
face $-1 $8 $9 $3 $-1 $10 forward single #
loop $-1 $-1 $11 $4 #
plane-surface $-1 0 0 0 0 0 1 1 0 0 forward_v I I I I #
face $-1 $12 $13 $3 $-1 $14 forward single #
loop $-1 $-1 $15 $5 #
plane-surface $-1 -2.9375 0 -0.029999999999999999 0 1 0 -1 0 0 forward_v I I I I #
coedge $-1 $16 $17 $18 $19 forward $6 $-1 #
face $-1 $20 $21 $3 $-1 $22 forward single #
loop $-1 $-1 $23 $8 #
cone-surface $-1 -1.625 0 -0.029999999999999999 0 0 1 1 0 0 1 I I 0 1 1 forward I I I I #
coedge $-1 $24 $18 $25 $26 forward $9 $-1 #
coedge $-1 $27 $11 $28 $29 forward $6 $-1 #
coedge $-1 $11 $30 $31 $32 forward $6 $-1 #
coedge $-1 $15 $33 $11 $19 reversed $9 $-1 #
edge $-1 $34 0 $35 0.625 $11 $36 forward 7 unknown #
face $-1 $37 $38 $3 $-1 $39 forward single #
loop $-1 $-1 $40 $12 #
plane-surface $-1 -0.3125 0 -0.029999999999999999 0 1 0 -1 0 0 forward_v I I I I #
coedge $-1 $41 $31 $42 $43 forward $13 $-1 #
coedge $-1 $33 $15 $44 $45 forward $9 $-1 #
coedge $-1 $31 $41 $15 $26 reversed $13 $-1 #
edge $-1 $34 0 $46 0.059999999999999998 $25 $47 forward 7 unknown #
coedge $-1 $48 $16 $49 $50 forward $6 $-1 #
coedge $-1 $51 $52 $16 $29 reversed $53 $-1 #
edge $-1 $35 0 $54 0.625 $16 $55 forward 7 unknown #
coedge $-1 $17 $56 $57 $58 forward $6 $-1 #
coedge $-1 $23 $25 $17 $32 reversed $13 $-1 #
edge $-1 $59 0 $34 3.1415926535897931 $17 $60 forward 7 unknown #
coedge $-1 $18 $24 $51 $61 reversed $9 $-1 #
vertex $-1 $32 $62 #
vertex $-1 $29 $63 #
straight-curve $-1 -2.625 0 0 -1 0 0 I I #
face $-1 $64 $65 $3 $-1 $66 reversed single #
loop $-1 $-1 $67 $20 #
plane-surface $-1 0 -0.3125 -0.029999999999999999 1 0 0 0 1 0 forward_v I I I I #
coedge $-1 $68 $57 $69 $70 forward $21 $-1 #
coedge $-1 $25 $23 $71 $72 forward $13 $-1 #
coedge $-1 $57 $68 $23 $43 reversed $21 $-1 #
edge $-1 $59 0 $73 0.059999999999999998 $23 $74 forward 7 unknown #
coedge $-1 $71 $75 $24 $45 reversed $76 $-1 #
edge $-1 $46 0 $77 0.625 $24 $78 forward 7 unknown #
vertex $-1 $26 $79 #
straight-curve $-1 -2.625 0 0 0 0 -1 I I #
coedge $-1 $80 $27 $81 $82 forward $6 $-1 #
coedge $-1 $83 $84 $27 $50 reversed $85 $-1 #
edge $-1 $54 0 $86 3.1415926535897931 $27 $87 forward 7 unknown #
coedge $-1 $88 $28 $33 $61 forward $53 $-1 #
coedge $-1 $28 $88 $83 $89 reversed $53 $-1 #
loop $-1 $-1 $51 $90 #
vertex $-1 $50 $91 #
straight-curve $-1 -3.25 0 0 0 -1 0 I I #
coedge $-1 $30 $92 $93 $94 forward $6 $-1 #
coedge $-1 $40 $42 $30 $58 reversed $21 $-1 #
edge $-1 $95 0 $59 0.625 $30 $96 forward 7 unknown #
vertex $-1 $32 $97 #
ellipse-curve $-1 -1.625 0 0 0 0 1 1 0 0 1 I I #
edge $-1 $35 0 $77 0.059999999999999998 $51 $98 forward 7 unknown #
point $-1 -2.625 0 0 #
point $-1 -3.25 0 0 #
face $-1 $99 $100 $3 $-1 $101 forward single #
loop $-1 $-1 $102 $37 #
cone-surface $-1 0 -1.75 -0.029999999999999999 0 0 -1 0 -1.125 0 1 I I 0 1 1.125 forward I I I I #
coedge $-1 $103 $93 $104 $105 forward $38 $-1 #
coedge $-1 $42 $40 $106 $107 forward $21 $-1 #
coedge $-1 $93 $103 $40 $70 reversed $38 $-1 #
edge $-1 $95 0 $108 0.059999999999999998 $40 $109 forward 7 unknown #
coedge $-1 $106 $44 $41 $72 reversed $76 $-1 #
edge $-1 $73 0 $46 3.1415926535897931 $41 $110 forward 7 unknown #
vertex $-1 $72 $111 #
straight-curve $-1 -0.625 0 0 0 0 -1 I I #
coedge $-1 $44 $112 $88 $113 reversed $76 $-1 #
loop $-1 $-1 $106 $114 #
vertex $-1 $113 $115 #
straight-curve $-1 -2.625 0 -0.059999999999999998 -1 0 0 I I #
point $-1 -2.625 0 -0.059999999999999998 #
coedge $-1 $116 $48 $117 $118 forward $6 $-1 #
coedge $-1 $119 $120 $48 $82 reversed $121 $-1 #
edge $-1 $86 0 $122 0.625 $48 $123 forward 7 unknown #
coedge $-1 $124 $49 $52 $89 forward $85 $-1 #
coedge $-1 $49 $124 $119 $125 reversed $85 $-1 #
loop $-1 $-1 $83 $126 #
vertex $-1 $82 $127 #
ellipse-curve $-1 -3.25 -1.75 0 0 0 -1 0 1.125 0 1 I I #
coedge $-1 $52 $51 $75 $113 forward $53 $-1 #
edge $-1 $54 0 $128 0.059999999999999998 $83 $129 forward 7 unknown #
face $-1 $114 $53 $3 $-1 $130 forward single #
point $-1 -3.25 -0.625 0 #
coedge $-1 $56 $131 $132 $133 forward $6 $-1 #
coedge $-1 $67 $69 $56 $94 reversed $38 $-1 #
edge $-1 $134 0 $95 0.625 $56 $135 forward 7 unknown #
vertex $-1 $58 $136 #
straight-curve $-1 0 0 0 -1 0 0 I I #
point $-1 -0.625 0 0 #
straight-curve $-1 -3.25 0 0 0 0 -1 I I #
face $-1 $137 $138 $3 $-1 $139 forward single #
loop $-1 $-1 $140 $64 #
plane-surface $-1 0 -3.1875 -0.029999999999999999 1 0 0 0 1 0 forward_v I I I I #
coedge $-1 $141 $132 $142 $143 forward $65 $-1 #
coedge $-1 $69 $67 $144 $145 forward $38 $-1 #
coedge $-1 $132 $141 $67 $105 reversed $65 $-1 #
edge $-1 $134 0 $146 0.059999999999999998 $67 $147 forward 7 unknown #
coedge $-1 $144 $71 $68 $107 reversed $76 $-1 #
edge $-1 $108 0 $73 0.625 $68 $148 forward 7 unknown #
vertex $-1 $107 $149 #
straight-curve $-1 0 0 0 0 0 -1 I I #
ellipse-curve $-1 -1.625 0 -0.059999999999999998 0 0 1 1 0 0 1 I I #
point $-1 -0.625 0 -0.059999999999999998 #
coedge $-1 $75 $150 $124 $151 reversed $76 $-1 #
edge $-1 $77 0 $128 0.625 $88 $152 forward 7 unknown #
face $-1 $-1 $76 $3 $-1 $153 reversed single #
point $-1 -3.25 0 -0.059999999999999998 #
coedge $-1 $154 $80 $155 $156 forward $6 $-1 #
coedge $-1 $157 $158 $80 $118 reversed $159 $-1 #
edge $-1 $122 0 $160 0.625 $80 $161 forward 7 unknown #
coedge $-1 $162 $81 $84 $125 forward $121 $-1 #
coedge $-1 $81 $162 $157 $163 reversed $121 $-1 #
loop $-1 $-1 $119 $164 #
vertex $-1 $118 $165 #
straight-curve $-1 -3.25 -2.875 0 0 -1 0 I I #
coedge $-1 $84 $83 $112 $151 forward $85 $-1 #
edge $-1 $86 0 $166 0.059999999999999998 $119 $167 forward 7 unknown #
face $-1 $90 $85 $3 $-1 $168 reversed single #
point $-1 -3.25 -2.875 0 #
vertex $-1 $151 $169 #
straight-curve $-1 -3.25 -0.625 0 0 0 -1 I I #
plane-surface $-1 -3.25 -0.3125 -0.029999999999999999 -1 0 0 0 -1 0 forward_v I I I I #
coedge $-1 $92 $154 $170 $171 forward $6 $-1 #
coedge $-1 $102 $104 $92 $133 reversed $65 $-1 #
edge $-1 $172 0 $134 3.1415926535897931 $92 $173 forward 7 unknown #
vertex $-1 $94 $174 #
straight-curve $-1 0 -0.625 0 0 1 0 I I #
point $-1 0 0 0 #
face $-1 $175 $176 $3 $-1 $177 forward single #
loop $-1 $-1 $178 $99 #
plane-surface $-1 -0.3125 -3.5 -0.029999999999999999 0 -1 0 1 0 0 forward_v I I I I #
coedge $-1 $179 $170 $180 $181 forward $100 $-1 #
coedge $-1 $104 $102 $182 $183 forward $65 $-1 #
coedge $-1 $170 $179 $102 $143 reversed $100 $-1 #
edge $-1 $172 0 $184 0.059999999999999998 $102 $185 forward 7 unknown #
coedge $-1 $182 $106 $103 $145 reversed $76 $-1 #
edge $-1 $146 0 $108 0.625 $103 $186 forward 7 unknown #
vertex $-1 $145 $187 #
straight-curve $-1 0 -0.625 0 0 0 -1 I I #
straight-curve $-1 0 0 -0.059999999999999998 -1 0 0 I I #
point $-1 0 0 -0.059999999999999998 #
coedge $-1 $112 $188 $162 $189 reversed $76 $-1 #
edge $-1 $128 0 $166 3.1415926535897931 $124 $190 forward 7 unknown #
straight-curve $-1 -3.25 0 -0.059999999999999998 0 -1 0 I I #
plane-surface $-1 0 0 -0.059999999999999998 0 0 1 1 0 0 forward_v I I I I #
coedge $-1 $131 $116 $191 $192 forward $6 $-1 #
coedge $-1 $193 $194 $116 $156 reversed $176 $-1 #
edge $-1 $160 0 $195 3.1415926535897931 $116 $196 forward 7 unknown #
coedge $-1 $197 $117 $120 $163 forward $159 $-1 #
coedge $-1 $117 $197 $193 $198 reversed $159 $-1 #
loop $-1 $-1 $157 $175 #
vertex $-1 $156 $199 #
straight-curve $-1 -3.25 -3.5 0 1 0 0 I I #
coedge $-1 $120 $119 $150 $189 forward $121 $-1 #
edge $-1 $122 0 $200 0.059999999999999998 $157 $201 forward 7 unknown #
face $-1 $126 $121 $3 $-1 $202 forward single #
point $-1 -3.25 -3.5 0 #
vertex $-1 $189 $203 #
straight-curve $-1 -3.25 -2.875 0 0 0 -1 I I #
cone-surface $-1 -3.25 -1.75 -0.029999999999999999 0 0 -1 0 1.125 0 1 I I 0 1 1.125 forward I I I I #
point $-1 -3.25 -0.625 -0.059999999999999998 #
coedge $-1 $140 $142 $131 $171 reversed $100 $-1 #
edge $-1 $204 0 $172 0.625 $131 $205 forward 7 unknown #
vertex $-1 $133 $206 #
ellipse-curve $-1 0 -1.75 0 0 0 -1 0 -1.125 0 1 I I #
point $-1 0 -0.625 0 #
face $-1 $164 $159 $3 $-1 $207 forward single #
loop $-1 $-1 $193 $137 #
cone-surface $-1 -1.625 -3.5 -0.029999999999999999 0 0 1 -1 0 0 1 I I 0 1 1 forward I I I I #
coedge $-1 $208 $191 $194 $209 forward $138 $-1 #
coedge $-1 $142 $140 $210 $211 forward $100 $-1 #
coedge $-1 $191 $208 $140 $181 reversed $138 $-1 #
edge $-1 $204 0 $212 0.059999999999999998 $140 $213 forward 7 unknown #
coedge $-1 $210 $144 $141 $183 reversed $76 $-1 #
edge $-1 $184 0 $146 3.1415926535897931 $141 $214 forward 7 unknown #
vertex $-1 $183 $215 #
straight-curve $-1 0 -2.875 0 0 0 -1 I I #
straight-curve $-1 0 -0.625 -0.059999999999999998 0 1 0 I I #
point $-1 -1.3776821480501744e-016 -0.625 -0.059999999999999998 #
coedge $-1 $150 $216 $197 $217 reversed $76 $-1 #
edge $-1 $166 0 $200 0.625 $162 $218 forward 7 unknown #
ellipse-curve $-1 -3.25 -1.75 -0.059999999999999998 0 0 -1 0 1.125 0 1 I I #
coedge $-1 $178 $180 $154 $192 reversed $138 $-1 #
edge $-1 $195 0 $204 0.625 $154 $219 forward 7 unknown #
coedge $-1 $220 $155 $158 $198 forward $176 $-1 #
coedge $-1 $155 $220 $178 $209 reversed $176 $-1 #
vertex $-1 $192 $221 #
ellipse-curve $-1 -1.625 -3.5 0 0 0 1 -1 0 0 1 I I #
coedge $-1 $158 $157 $188 $217 forward $159 $-1 #
edge $-1 $160 0 $222 0.059999999999999998 $193 $223 forward 7 unknown #
point $-1 -2.625 -3.5 0 #
vertex $-1 $217 $224 #
straight-curve $-1 -3.25 -3.5 0 0 0 -1 I I #
plane-surface $-1 -3.25 -3.1875 -0.029999999999999999 -1 0 0 0 -1 0 forward_v I I I I #
point $-1 -3.25 -2.875 -0.059999999999999998 #
vertex $-1 $171 $225 #
straight-curve $-1 0 -3.5 0 0 1 0 I I #
point $-1 0 -2.875 0 #
plane-surface $-1 -2.9375 -3.5 -0.029999999999999999 0 -1 0 1 0 0 forward_v I I I I #
coedge $-1 $180 $178 $226 $227 forward $138 $-1 #
edge $-1 $195 0 $228 0.059999999999999998 $178 $229 forward 7 unknown #
coedge $-1 $226 $182 $179 $211 reversed $76 $-1 #
edge $-1 $212 0 $184 0.625 $179 $230 forward 7 unknown #
vertex $-1 $211 $231 #
straight-curve $-1 0 -3.5 0 0 0 -1 I I #
ellipse-curve $-1 0 -1.75 -0.059999999999999998 0 0 -1 0 -1.125 0 1 I I #
point $-1 0 -2.875 -0.059999999999999998 #
coedge $-1 $188 $226 $220 $232 reversed $76 $-1 #
edge $-1 $200 0 $222 0.625 $197 $233 forward 7 unknown #
straight-curve $-1 -3.25 -2.875 -0.059999999999999998 0 -1 0 I I #
straight-curve $-1 -0.625 -3.5 0 1 0 0 I I #
coedge $-1 $194 $193 $216 $232 forward $176 $-1 #
point $-1 -0.625 -3.5 0 #
vertex $-1 $232 $234 #
straight-curve $-1 -2.625 -3.5 0 0 0 -1 I I #
point $-1 -3.25 -3.5 -0.059999999999999998 #
point $-1 0 -3.5 0 #
coedge $-1 $216 $210 $208 $227 reversed $76 $-1 #
edge $-1 $228 0 $212 0.625 $208 $235 forward 7 unknown #
vertex $-1 $227 $236 #
straight-curve $-1 -0.625 -3.5 0 0 0 -1 I I #
straight-curve $-1 0 -3.5 -0.059999999999999998 0 1 0 I I #
point $-1 0 -3.5 -0.059999999999999998 #
edge $-1 $222 0 $228 3.1415926535897931 $220 $237 forward 7 unknown #
straight-curve $-1 -3.25 -3.5 -0.059999999999999998 1 0 0 I I #
point $-1 -2.625 -3.5 -0.059999999999999998 #
straight-curve $-1 -0.625 -3.5 -0.059999999999999998 1 0 0 I I #
point $-1 -0.625 -3.5 -0.059999999999999998 #
ellipse-curve $-1 -1.625 -3.5 -0.059999999999999998 0 0 1 -1 0 0 1 I I #
End-of-ACIS-data 