600 0 1 0           
121 GICL Pro/E ACIS Translator - Source: f:/data5/repository/PTC/V20/web_demos/models/shtmtl_manual/rough_profile.prt.3 - 6 0 13 ACIS 6.0.3 NT 24 Thu Apr 04 13:10:06 2002 
1 9.9999999999999995e-007 1e-010 
body $-1 $1 $-1 $2 #
lump $-1 $-1 $3 $0 #
transform $-1 1 0 0 0 1 0 0 0 1 0 0 0 25.399999999999999 no_rotate no_reflect no_shear #
shell $-1 $-1 $-1 $4 $-1 $1 #
face $-1 $5 $6 $3 $-1 $7 forward single #
face $-1 $8 $9 $3 $-1 $10 reversed single #
loop $-1 $11 $12 $4 #
plane-surface $-1 0 0 0 0 0 1 1 0 0 forward_v I I I I #
face $-1 $13 $14 $3 $-1 $15 reversed single #
loop $-1 $-1 $16 $5 #
cone-surface $-1 0 0 -0.030000000000000009 0 0 -1 -4 0 0 1 I I 0 1 4 forward I I I I #
loop $-1 $17 $18 $4 #
coedge $-1 $19 $19 $20 $21 forward $6 $-1 #
face $-1 $22 $23 $3 $-1 $24 reversed single #
loop $-1 $-1 $25 $8 #
cone-surface $-1 0 0 -0.030000000000000009 0 0 -1 4 0 0 1 I I 0 1 4 forward I I I I #
coedge $-1 $26 $20 $27 $28 forward $9 $-1 #
loop $-1 $29 $30 $4 #
coedge $-1 $31 $32 $33 $34 forward $11 $-1 #
coedge $-1 $12 $12 $35 $36 forward $6 $-1 #
coedge $-1 $16 $37 $12 $21 reversed $9 $-1 #
edge $-1 $38 0 $39 3.1415926535897931 $12 $40 forward 7 unknown #
face $-1 $41 $42 $3 $-1 $43 forward single #
loop $-1 $44 $45 $13 #
plane-surface $-1 0 0 -0.059999999999999998 0 0 1 1 0 0 forward_v I I I I #
coedge $-1 $46 $35 $37 $47 forward $14 $-1 #
coedge $-1 $37 $16 $45 $48 forward $9 $-1 #
coedge $-1 $35 $46 $16 $28 reversed $14 $-1 #
edge $-1 $38 0 $49 0.059999999999999998 $27 $50 forward 7 unknown #
loop $-1 $51 $52 $4 #
coedge $-1 $53 $53 $54 $55 reversed $17 $-1 #
coedge $-1 $56 $18 $57 $58 forward $11 $-1 #
coedge $-1 $18 $59 $60 $61 forward $11 $-1 #
coedge $-1 $62 $63 $18 $34 reversed $64 $-1 #
edge $-1 $65 0 $66 0.875 $18 $67 forward 7 unknown #
coedge $-1 $25 $27 $19 $36 reversed $14 $-1 #
edge $-1 $39 0 $38 3.1415926535897931 $19 $68 forward 7 unknown #
coedge $-1 $20 $26 $25 $47 reversed $9 $-1 #
vertex $-1 $36 $69 #
vertex $-1 $36 $70 #
ellipse-curve $-1 0 0 0 0 0 -1 -4 0 0 1 I I #
face $-1 $71 $72 $3 $-1 $73 forward single #
loop $-1 $-1 $74 $22 #
plane-surface $-1 0 6 -0.029999999999999999 0 1 0 -1 0 0 forward_v I I I I #
loop $-1 $75 $76 $13 #
coedge $-1 $77 $77 $26 $48 reversed $23 $-1 #
coedge $-1 $27 $25 $77 $78 forward $14 $-1 #
edge $-1 $39 0 $79 0.059999999999999998 $25 $80 forward 7 unknown #
edge $-1 $49 0 $79 3.1415926535897931 $26 $81 forward 7 unknown #
vertex $-1 $28 $82 #
straight-curve $-1 -4 -4.898425415289509e-016 0 0 0 -1 I I #
loop $-1 $83 $84 $4 #
coedge $-1 $85 $85 $86 $87 reversed $29 $-1 #
coedge $-1 $30 $30 $88 $89 reversed $17 $-1 #
coedge $-1 $90 $91 $30 $55 forward $92 $-1 #
edge $-1 $93 0 $94 3.1415926535897931 $30 $95 forward 7 unknown #
coedge $-1 $96 $31 $97 $98 forward $11 $-1 #
coedge $-1 $99 $100 $31 $58 reversed $101 $-1 #
edge $-1 $66 0 $102 10.25 $31 $103 forward 7 unknown #
coedge $-1 $32 $104 $105 $106 forward $11 $-1 #
coedge $-1 $107 $108 $32 $61 reversed $109 $-1 #
edge $-1 $110 0 $65 0.875 $32 $111 forward 7 unknown #
coedge $-1 $112 $33 $108 $113 forward $64 $-1 #
coedge $-1 $33 $112 $99 $114 reversed $64 $-1 #
loop $-1 $-1 $62 $115 #
vertex $-1 $61 $116 #
vertex $-1 $58 $117 #
straight-curve $-1 -5.125 5.125 0 -1 0 0 I I #
ellipse-curve $-1 0 0 0 0 0 -1 4 0 0 1 I I #
point $-1 -4 0 0 #
point $-1 4 0 0 #
face $-1 $118 $119 $3 $-1 $120 forward single #
loop $-1 $-1 $121 $41 #
plane-surface $-1 5.125 5.5625 -0.029999999999999999 1 0 0 0 1 0 forward_v I I I I #
coedge $-1 $122 $105 $123 $124 forward $42 $-1 #
loop $-1 $125 $126 $13 #
coedge $-1 $127 $128 $122 $129 reversed $44 $-1 #
coedge $-1 $45 $45 $46 $78 reversed $23 $-1 #
edge $-1 $79 0 $49 3.1415926535897931 $46 $130 forward 7 unknown #
vertex $-1 $78 $131 #
straight-curve $-1 4 4.898425415289509e-016 0 0 0 -1 I I #
ellipse-curve $-1 0 0 -0.059999999999999998 0 0 -1 -4 0 0 1 I I #
point $-1 -4 0 -0.059999999999999998 #
loop $-1 $132 $133 $4 #
coedge $-1 $134 $134 $135 $136 reversed $51 $-1 #
coedge $-1 $52 $52 $137 $138 reversed $29 $-1 #
coedge $-1 $139 $140 $52 $87 forward $141 $-1 #
edge $-1 $142 0 $143 3.1415926535897931 $52 $144 forward 7 unknown #
coedge $-1 $145 $146 $53 $89 forward $147 $-1 #
edge $-1 $94 0 $93 3.1415926535897931 $53 $148 forward 7 unknown #
coedge $-1 $149 $54 $146 $150 forward $92 $-1 #
coedge $-1 $54 $149 $145 $151 reversed $92 $-1 #
loop $-1 $-1 $90 $152 #
vertex $-1 $89 $153 #
vertex $-1 $89 $154 #
ellipse-curve $-1 0 4.625 0 0 0 1 0.125 0 0 1 I I #
coedge $-1 $155 $56 $156 $157 forward $11 $-1 #
coedge $-1 $158 $159 $56 $98 reversed $160 $-1 #
edge $-1 $102 0 $161 0.875 $56 $162 forward 7 unknown #
coedge $-1 $163 $57 $63 $114 forward $101 $-1 #
coedge $-1 $57 $163 $158 $164 reversed $101 $-1 #
loop $-1 $-1 $99 $165 #
vertex $-1 $98 $166 #
straight-curve $-1 -6 5.125 0 0 -1 0 I I #
coedge $-1 $59 $167 $168 $169 forward $11 $-1 #
coedge $-1 $74 $170 $59 $106 reversed $42 $-1 #
edge $-1 $171 0 $110 10.25 $59 $172 forward 7 unknown #
coedge $-1 $173 $60 $170 $174 forward $109 $-1 #
coedge $-1 $60 $173 $62 $113 reversed $109 $-1 #
loop $-1 $-1 $107 $175 #
vertex $-1 $61 $176 #
straight-curve $-1 -5.125 6 0 0 -1 0 I I #
coedge $-1 $63 $62 $177 $178 forward $64 $-1 #
edge $-1 $65 0 $179 0.059999999999999998 $108 $180 forward 7 unknown #
edge $-1 $66 0 $181 0.059999999999999998 $99 $182 forward 7 unknown #
face $-1 $175 $64 $3 $-1 $183 forward single #
point $-1 -5.125 5.125 0 #
point $-1 -6 5.125 0 #
face $-1 $184 $185 $3 $-1 $186 forward single #
loop $-1 $-1 $187 $71 #
plane-surface $-1 5.5625 5.125 -0.029999999999999999 0 1 0 -1 0 0 forward_v I I I I #
coedge $-1 $188 $168 $189 $190 forward $72 $-1 #
coedge $-1 $170 $74 $76 $129 forward $42 $-1 #
coedge $-1 $168 $188 $74 $124 reversed $72 $-1 #
edge $-1 $171 0 $191 0.059999999999999998 $74 $192 forward 7 unknown #
loop $-1 $193 $194 $13 #
coedge $-1 $195 $195 $149 $196 forward $75 $-1 #
coedge $-1 $197 $76 $188 $198 reversed $44 $-1 #
coedge $-1 $76 $177 $173 $199 reversed $44 $-1 #
edge $-1 $191 0 $200 10.25 $122 $201 forward 7 unknown #
ellipse-curve $-1 0 0 -0.059999999999999998 0 0 -1 4 0 0 1 I I #
point $-1 4 0 -0.059999999999999998 #
loop $-1 $202 $203 $4 #
coedge $-1 $204 $204 $205 $206 reversed $83 $-1 #
coedge $-1 $84 $84 $207 $208 reversed $51 $-1 #
coedge $-1 $209 $210 $84 $136 forward $211 $-1 #
edge $-1 $212 0 $213 3.1415926535897931 $84 $214 forward 7 unknown #
coedge $-1 $215 $216 $85 $138 forward $217 $-1 #
edge $-1 $143 0 $142 3.1415926535897931 $85 $218 forward 7 unknown #
coedge $-1 $219 $86 $216 $220 forward $141 $-1 #
coedge $-1 $86 $219 $215 $221 reversed $141 $-1 #
loop $-1 $-1 $139 $222 #
vertex $-1 $138 $223 #
vertex $-1 $138 $224 #
ellipse-curve $-1 -2.3125 4.0053674925030283 0 0 0 1 0.10825317547305469 0.0625 0 1 I I #
coedge $-1 $225 $88 $91 $151 forward $147 $-1 #
coedge $-1 $88 $225 $90 $150 reversed $147 $-1 #
loop $-1 $-1 $145 $226 #
ellipse-curve $-1 0 4.625 0 0 0 1 -0.125 0 0 1 I I #
coedge $-1 $91 $90 $126 $196 reversed $92 $-1 #
edge $-1 $94 0 $227 0.059999999999999998 $146 $228 forward 7 unknown #
edge $-1 $93 0 $229 0.059999999999999998 $145 $230 forward 7 unknown #
face $-1 $226 $92 $3 $-1 $231 reversed single #
point $-1 0.125 4.625 0 #
point $-1 -0.125 4.625 0 #
coedge $-1 $232 $96 $233 $234 forward $11 $-1 #
coedge $-1 $235 $236 $96 $157 reversed $237 $-1 #
edge $-1 $161 0 $238 0.875 $96 $239 forward 7 unknown #
coedge $-1 $240 $97 $100 $164 forward $160 $-1 #
coedge $-1 $97 $240 $235 $241 reversed $160 $-1 #
loop $-1 $-1 $158 $242 #
vertex $-1 $157 $243 #
straight-curve $-1 -6 -5.125 0 1 0 0 I I #
coedge $-1 $100 $99 $244 $245 forward $101 $-1 #
edge $-1 $102 0 $246 0.059999999999999998 $158 $247 forward 7 unknown #
face $-1 $115 $101 $3 $-1 $248 forward single #
point $-1 -6 -5.125 0 #
coedge $-1 $104 $249 $250 $251 forward $11 $-1 #
coedge $-1 $121 $123 $104 $169 reversed $72 $-1 #
edge $-1 $252 0 $171 0.875 $104 $253 forward 7 unknown #
coedge $-1 $105 $122 $107 $174 reversed $42 $-1 #
vertex $-1 $106 $254 #
straight-curve $-1 5.125 6 0 -1 0 0 I I #
coedge $-1 $108 $107 $128 $199 forward $109 $-1 #
edge $-1 $110 0 $200 0.059999999999999998 $107 $255 forward 7 unknown #
face $-1 $152 $109 $3 $-1 $256 forward single #
point $-1 -5.125 6 0 #
coedge $-1 $128 $244 $112 $178 reversed $44 $-1 #
edge $-1 $179 0 $181 0.875 $112 $257 forward 7 unknown #
vertex $-1 $113 $258 #
straight-curve $-1 -5.125 5.125 0 0 0 -1 I I #
vertex $-1 $245 $259 #
straight-curve $-1 -6 5.125 0 0 0 -1 I I #
plane-surface $-1 -5.5625 5.125 -0.029999999999999999 0 1 0 -1 0 0 forward_v I I I I #
face $-1 $260 $261 $3 $-1 $262 forward single #
loop $-1 $-1 $263 $118 #
plane-surface $-1 6 0 -0.029999999999999999 1 0 0 0 1 0 forward_v I I I I #
coedge $-1 $264 $250 $265 $266 forward $119 $-1 #
coedge $-1 $123 $121 $127 $198 forward $72 $-1 #
coedge $-1 $250 $264 $121 $190 reversed $119 $-1 #
edge $-1 $252 0 $267 0.059999999999999998 $121 $268 forward 7 unknown #
vertex $-1 $129 $269 #
straight-curve $-1 5.125 6 0 0 0 -1 I I #
loop $-1 $270 $271 $13 #
coedge $-1 $272 $272 $219 $273 forward $125 $-1 #
coedge $-1 $126 $126 $225 $274 forward $75 $-1 #
edge $-1 $229 0 $227 3.1415926535897931 $149 $275 forward 7 unknown #
coedge $-1 $276 $127 $264 $277 reversed $44 $-1 #
edge $-1 $267 0 $191 0.875 $188 $278 forward 7 unknown #
edge $-1 $200 0 $179 0.875 $173 $279 forward 7 unknown #
vertex $-1 $199 $280 #
straight-curve $-1 5.125 6 -0.059999999999999998 -1 0 0 I I #
loop $-1 $281 $282 $4 #
coedge $-1 $283 $283 $284 $285 reversed $132 $-1 #
coedge $-1 $133 $133 $286 $287 reversed $83 $-1 #
coedge $-1 $288 $289 $133 $206 forward $290 $-1 #
edge $-1 $291 0 $292 3.1415926535897931 $133 $293 forward 7 unknown #
coedge $-1 $294 $295 $134 $208 forward $296 $-1 #
edge $-1 $213 0 $212 3.1415926535897931 $134 $297 forward 7 unknown #
coedge $-1 $298 $135 $295 $299 forward $211 $-1 #
coedge $-1 $135 $298 $294 $300 reversed $211 $-1 #
loop $-1 $-1 $209 $301 #
vertex $-1 $208 $302 #
vertex $-1 $208 $303 #
ellipse-curve $-1 -4.0053674925030283 2.3125000000000004 0 0 0 1 0.0625 0.10825317547305469 0 1 I I #
coedge $-1 $304 $137 $140 $221 forward $217 $-1 #
coedge $-1 $137 $304 $139 $220 reversed $217 $-1 #
loop $-1 $-1 $215 $305 #
ellipse-curve $-1 -2.3125 4.0053674925030283 0 0 0 1 -0.10825317547305469 -0.0625 0 1 I I #
coedge $-1 $140 $139 $194 $273 reversed $141 $-1 #
edge $-1 $143 -6.9388939039072284e-018 $306 0.059999999999999991 $216 $307 forward 7 unknown #
edge $-1 $142 -6.9388939039072284e-018 $308 0.059999999999999991 $215 $309 forward 7 unknown #
face $-1 $305 $141 $3 $-1 $310 reversed single #
point $-1 -2.2042468245269453 4.0678674925030283 0 #
point $-1 -2.4207531754730547 3.9428674925030283 0 #
coedge $-1 $146 $145 $195 $274 reversed $147 $-1 #
face $-1 $222 $147 $3 $-1 $311 reversed single #
vertex $-1 $150 $312 #
straight-curve $-1 -0.125 4.6249999999999991 0 0 0 -1 I I #
vertex $-1 $274 $313 #
straight-curve $-1 0.125 4.6250000000000009 0 0 0 -1 I I #
cone-surface $-1 0 4.625 -0.029999999999999999 0 0 1 0.125 8.8817841970012523e-016 0 1 I I 0 1 0.125 forward I I I I #
coedge $-1 $314 $155 $315 $316 forward $11 $-1 #
coedge $-1 $317 $318 $155 $234 reversed $319 $-1 #
edge $-1 $238 0 $320 10.25 $155 $321 forward 7 unknown #
coedge $-1 $322 $156 $159 $241 forward $237 $-1 #
coedge $-1 $156 $322 $317 $323 reversed $237 $-1 #
loop $-1 $-1 $235 $324 #
vertex $-1 $234 $325 #
straight-curve $-1 -5.125 -5.125 0 0 -1 0 I I #
coedge $-1 $159 $158 $326 $327 forward $160 $-1 #
edge $-1 $161 0 $328 0.059999999999999998 $235 $329 forward 7 unknown #
face $-1 $165 $160 $3 $-1 $330 forward single #
point $-1 -5.125 -5.125 0 #
coedge $-1 $177 $326 $163 $245 reversed $44 $-1 #
edge $-1 $181 0 $246 10.25 $163 $331 forward 7 unknown #
vertex $-1 $327 $332 #
straight-curve $-1 -6 -5.125 0 0 0 -1 I I #
plane-surface $-1 -6 0 -0.029999999999999999 -1 0 0 0 -1 0 forward_v I I I I #
coedge $-1 $167 $314 $333 $334 forward $11 $-1 #
coedge $-1 $187 $189 $167 $251 reversed $119 $-1 #
edge $-1 $335 0 $252 0.875 $167 $336 forward 7 unknown #
vertex $-1 $169 $337 #
straight-curve $-1 5.125 5.125 0 0 1 0 I I #
point $-1 5.125 6 0 #
straight-curve $-1 -5.125 6 0 0 0 -1 I I #
plane-surface $-1 -5.125 5.5625 -0.029999999999999999 -1 0 0 0 -1 0 forward_v I I I I #
straight-curve $-1 -5.125 5.125 -0.059999999999999998 -1 0 0 I I #
point $-1 -5.125 5.125 -0.059999999999999998 #
point $-1 -6 5.125 -0.059999999999999998 #
face $-1 $338 $339 $3 $-1 $340 forward single #
loop $-1 $-1 $341 $184 #
plane-surface $-1 5.5625 -5.125 -0.029999999999999999 0 -1 0 1 0 0 forward_v I I I I #
coedge $-1 $342 $333 $343 $344 forward $185 $-1 #
coedge $-1 $189 $187 $197 $277 forward $119 $-1 #
coedge $-1 $333 $342 $187 $266 reversed $185 $-1 #
edge $-1 $335 0 $345 0.059999999999999998 $187 $346 forward 7 unknown #
vertex $-1 $198 $347 #
straight-curve $-1 5.125 5.125 0 0 0 -1 I I #
point $-1 5.125 6 -0.059999999999999998 #
loop $-1 $348 $349 $13 #
coedge $-1 $350 $350 $298 $351 forward $193 $-1 #
coedge $-1 $194 $194 $304 $352 forward $125 $-1 #
edge $-1 $308 0 $306 3.1415926535897931 $219 $353 forward 7 unknown #
edge $-1 $227 0 $229 3.1415926535897931 $225 $354 forward 7 unknown #
ellipse-curve $-1 0 4.625 -0.059999999999999998 0 0 1 0.125 0 0 1 I I #
coedge $-1 $355 $197 $342 $356 reversed $44 $-1 #
edge $-1 $345 0 $267 0.875 $264 $357 forward 7 unknown #
straight-curve $-1 5.125 5.125 -0.059999999999999998 0 1 0 I I #
straight-curve $-1 -5.125 6 -0.059999999999999998 0 -1 0 I I #
point $-1 -5.125 6 -0.059999999999999998 #
loop $-1 $358 $359 $4 #
coedge $-1 $360 $360 $361 $362 reversed $202 $-1 #
coedge $-1 $203 $203 $363 $364 reversed $132 $-1 #
coedge $-1 $365 $366 $203 $285 forward $367 $-1 #
edge $-1 $368 0 $369 3.1415926535898051 $203 $370 forward 7 unknown #
coedge $-1 $371 $372 $204 $287 forward $373 $-1 #
edge $-1 $292 0 $291 3.1415926535897931 $204 $374 forward 7 unknown #
coedge $-1 $375 $205 $372 $376 forward $290 $-1 #
coedge $-1 $205 $375 $371 $377 reversed $290 $-1 #
loop $-1 $-1 $288 $378 #
vertex $-1 $287 $379 #
vertex $-1 $287 $380 #
ellipse-curve $-1 -4.625 0 0 0 0 1 0 0.125 0 1 I I #
coedge $-1 $381 $207 $210 $300 forward $296 $-1 #
coedge $-1 $207 $381 $209 $299 reversed $296 $-1 #
loop $-1 $-1 $294 $382 #
ellipse-curve $-1 -4.0053674925030283 2.3125000000000004 0 0 0 1 -0.0625 -0.10825317547305469 0 1 I I #
coedge $-1 $210 $209 $271 $351 reversed $211 $-1 #
edge $-1 $213 -6.9388939039072284e-018 $383 0.059999999999999991 $295 $384 forward 7 unknown #
edge $-1 $212 0 $385 0.059999999999999998 $294 $386 forward 7 unknown #
face $-1 $382 $211 $3 $-1 $387 reversed single #
point $-1 -3.9428674925030283 2.4207531754730551 0 #
point $-1 -4.0678674925030283 2.2042468245269458 0 #
coedge $-1 $216 $215 $272 $352 reversed $217 $-1 #
face $-1 $301 $217 $3 $-1 $388 reversed single #
vertex $-1 $220 $389 #
straight-curve $-1 -2.4207531754730547 3.9428674925030283 -6.9388939039072284e-018 0 0 -1 I I #
vertex $-1 $352 $390 #
straight-curve $-1 -2.2042468245269453 4.0678674925030283 -6.9388939039072284e-018 0 0 -1 I I #
cone-surface $-1 -2.3125 4.0053674925030283 -0.029999999999999999 0 0 1 0.1082531754730548 0.0625 0 1 I I 0 1 0.12499999999999997 forward I I I I #
cone-surface $-1 0 4.625 -0.029999999999999999 0 0 1 -0.125 -8.8817841970012523e-016 0 1 I I 0 1 0.125 forward I I I I #
point $-1 -0.125 4.625 -0.059999999999999998 #
point $-1 0.125 4.625 -0.059999999999999998 #
coedge $-1 $249 $232 $391 $392 forward $11 $-1 #
coedge $-1 $393 $394 $232 $316 reversed $339 $-1 #
edge $-1 $320 0 $395 0.875 $232 $396 forward 7 unknown #
coedge $-1 $397 $233 $236 $323 forward $319 $-1 #
coedge $-1 $233 $397 $393 $398 reversed $319 $-1 #
loop $-1 $-1 $317 $338 #
vertex $-1 $316 $399 #
straight-curve $-1 -5.125 -6 0 1 0 0 I I #
coedge $-1 $236 $235 $400 $401 forward $237 $-1 #
edge $-1 $238 0 $402 0.059999999999999998 $317 $403 forward 7 unknown #
face $-1 $242 $237 $3 $-1 $404 forward single #
point $-1 -5.125 -6 0 #
coedge $-1 $244 $400 $240 $327 reversed $44 $-1 #
edge $-1 $246 0 $328 0.875 $240 $405 forward 7 unknown #
vertex $-1 $401 $406 #
straight-curve $-1 -5.125 -5.125 0 0 0 -1 I I #
plane-surface $-1 -5.5625 -5.125 -0.029999999999999999 0 -1 0 1 0 0 forward_v I I I I #
straight-curve $-1 -6 5.125 -0.059999999999999998 0 -1 0 I I #
point $-1 -6 -5.125 -0.059999999999999998 #
coedge $-1 $263 $265 $249 $334 reversed $185 $-1 #
edge $-1 $407 0 $335 10.25 $249 $408 forward 7 unknown #
vertex $-1 $251 $409 #
straight-curve $-1 6 5.125 0 -1 0 0 I I #
point $-1 5.125 5.125 0 #
face $-1 $324 $319 $3 $-1 $410 forward single #
loop $-1 $-1 $393 $260 #
plane-surface $-1 5.125 -5.5625 -0.029999999999999999 1 0 0 0 1 0 forward_v I I I I #
coedge $-1 $411 $391 $394 $412 forward $261 $-1 #
coedge $-1 $265 $263 $276 $356 forward $185 $-1 #
coedge $-1 $391 $411 $263 $344 reversed $261 $-1 #
edge $-1 $407 0 $413 0.059999999999999998 $263 $414 forward 7 unknown #
vertex $-1 $277 $415 #
straight-curve $-1 6 5.125 0 0 0 -1 I I #
point $-1 5.125 5.125 -0.059999999999999998 #
loop $-1 $416 $417 $13 #
coedge $-1 $418 $418 $375 $419 forward $270 $-1 #
coedge $-1 $271 $271 $381 $420 forward $193 $-1 #
edge $-1 $385 0 $383 3.1415926535897931 $298 $421 forward 7 unknown #
edge $-1 $306 0 $308 3.1415926535897931 $304 $422 forward 7 unknown #
ellipse-curve $-1 -2.3125 4.0053674925030283 -0.059999999999999998 0 0 1 0.10825317547305469 0.0625 0 1 I I #
ellipse-curve $-1 0 4.625 -0.059999999999999998 0 0 1 -0.125 0 0 1 I I #
coedge $-1 $423 $276 $411 $424 reversed $44 $-1 #
edge $-1 $413 0 $345 10.25 $342 $425 forward 7 unknown #
straight-curve $-1 6 5.125 -0.059999999999999998 -1 0 0 I I #
loop $-1 $426 $427 $4 #
coedge $-1 $428 $428 $429 $430 reversed $281 $-1 #
coedge $-1 $282 $282 $431 $432 reversed $202 $-1 #
coedge $-1 $433 $434 $282 $362 forward $435 $-1 #
edge $-1 $436 0 $437 3.1415926535898087 $282 $438 forward 7 unknown #
coedge $-1 $439 $440 $283 $364 forward $441 $-1 #
edge $-1 $369 0 $368 3.1415926535897931 $283 $442 forward 7 unknown #
coedge $-1 $443 $284 $440 $444 forward $367 $-1 #
coedge $-1 $284 $443 $439 $445 reversed $367 $-1 #
loop $-1 $-1 $365 $446 #
vertex $-1 $364 $447 #
vertex $-1 $364 $448 #
ellipse-curve $-1 -4.00536749250303 -2.3124999999999996 0 0 0 1 -0.062499999999999112 0.10825317547305469 0 1 I I #
coedge $-1 $449 $286 $289 $377 forward $373 $-1 #
coedge $-1 $286 $449 $288 $376 reversed $373 $-1 #
loop $-1 $-1 $371 $450 #
ellipse-curve $-1 -4.625 0 0 0 0 1 0 -0.125 0 1 I I #
coedge $-1 $289 $288 $349 $419 reversed $290 $-1 #
edge $-1 $292 0 $451 0.059999999999999998 $372 $452 forward 7 unknown #
edge $-1 $291 0 $453 0.059999999999999998 $371 $454 forward 7 unknown #
face $-1 $450 $290 $3 $-1 $455 reversed single #
point $-1 -4.625 0.125 0 #
point $-1 -4.625 -0.125 0 #
coedge $-1 $295 $294 $350 $420 reversed $296 $-1 #
face $-1 $378 $296 $3 $-1 $456 reversed single #
vertex $-1 $299 $457 #
straight-curve $-1 -4.0678674925030283 2.2042468245269453 -6.9388939039072284e-018 0 0 -1 I I #
vertex $-1 $420 $458 #
straight-curve $-1 -3.9428674925030283 2.4207531754730551 0 0 0 -1 I I #
cone-surface $-1 -4.0053674925030274 2.3125 -0.029999999999999999 0 0 1 0.062499999999999209 0.1082531754730553 0 1 I I 0 1 0.125 forward I I I I #
cone-surface $-1 -2.3125 4.0053674925030283 -0.029999999999999999 0 0 1 -0.1082531754730548 -0.0625 0 1 I I 0 1 0.12499999999999997 forward I I I I #
point $-1 -2.4207531754730547 3.9428674925030283 -0.059999999999999998 #
point $-1 -2.2042468245269453 4.0678674925030283 -0.059999999999999998 #
coedge $-1 $341 $343 $314 $392 reversed $261 $-1 #
edge $-1 $395 0 $407 0.875 $314 $459 forward 7 unknown #
coedge $-1 $460 $315 $318 $398 forward $339 $-1 #
coedge $-1 $315 $460 $341 $412 reversed $339 $-1 #
vertex $-1 $392 $461 #
straight-curve $-1 5.125 -6 0 0 1 0 I I #
coedge $-1 $318 $317 $462 $463 forward $319 $-1 #
edge $-1 $320 0 $464 0.059999999999999998 $393 $465 forward 7 unknown #
point $-1 5.125 -6 0 #
coedge $-1 $326 $462 $322 $401 reversed $44 $-1 #
edge $-1 $328 0 $402 0.875 $322 $466 forward 7 unknown #
vertex $-1 $463 $467 #
straight-curve $-1 -5.125 -6 0 0 0 -1 I I #
plane-surface $-1 -5.125 -5.5625 -0.029999999999999999 -1 0 0 0 -1 0 forward_v I I I I #
straight-curve $-1 -6 -5.125 -0.059999999999999998 1 0 0 I I #
point $-1 -5.125 -5.125 -0.059999999999999998 #
vertex $-1 $334 $468 #
straight-curve $-1 6 -5.125 0 0 1 0 I I #
point $-1 6 5.125 0 #
plane-surface $-1 0 -6 -0.029999999999999999 0 -1 0 1 0 0 forward_v I I I I #
coedge $-1 $343 $341 $355 $424 forward $261 $-1 #
edge $-1 $395 0 $469 0.059999999999999998 $341 $470 forward 7 unknown #
vertex $-1 $356 $471 #
straight-curve $-1 6 -5.125 0 0 0 -1 I I #
point $-1 6 5.125 -0.059999999999999998 #
loop $-1 $472 $473 $13 #
coedge $-1 $474 $474 $443 $475 forward $348 $-1 #
coedge $-1 $349 $349 $449 $476 forward $270 $-1 #
edge $-1 $453 0 $451 3.1415926535897931 $375 $477 forward 7 unknown #
edge $-1 $383 0 $385 3.1415926535897931 $381 $478 forward 7 unknown #
ellipse-curve $-1 -4.0053674925030283 2.3125000000000004 -0.059999999999999998 0 0 1 0.0625 0.10825317547305469 0 1 I I #
ellipse-curve $-1 -2.3125 4.0053674925030283 -0.059999999999999998 0 0 1 -0.10825317547305469 -0.0625 0 1 I I #
coedge $-1 $462 $355 $460 $479 reversed $44 $-1 #
edge $-1 $469 0 $413 0.875 $411 $480 forward 7 unknown #
straight-curve $-1 6 -5.125 -0.059999999999999998 0 1 0 I I #
loop $-1 $481 $482 $4 #
coedge $-1 $483 $483 $484 $485 reversed $358 $-1 #
coedge $-1 $359 $359 $486 $487 reversed $281 $-1 #
coedge $-1 $488 $489 $359 $430 forward $490 $-1 #
edge $-1 $491 0 $492 3.1415926535897931 $359 $493 forward 7 unknown #
coedge $-1 $494 $495 $360 $432 forward $496 $-1 #
edge $-1 $437 0 $436 3.1415926535897931 $360 $497 forward 7 unknown #
coedge $-1 $498 $361 $495 $499 forward $435 $-1 #
coedge $-1 $361 $498 $494 $500 reversed $435 $-1 #
loop $-1 $-1 $433 $501 #
vertex $-1 $432 $502 #
vertex $-1 $432 $503 #
ellipse-curve $-1 -2.3125 -4.00536749250303 0 0 0 1 -0.10825317547305424 0.062500000000000888 0 1 I I #
coedge $-1 $504 $363 $366 $445 forward $441 $-1 #
coedge $-1 $363 $504 $365 $444 reversed $441 $-1 #
loop $-1 $-1 $439 $505 #
ellipse-curve $-1 -4.0053674925030291 -2.3124999999999996 0 0 0 1 0.0625 -0.10825317547305469 0 1 I I #
coedge $-1 $366 $365 $417 $475 reversed $367 $-1 #
edge $-1 $369 -6.9388939039072284e-018 $506 0.059999999999999991 $440 $507 forward 7 unknown #
edge $-1 $368 -6.9388939039072284e-018 $508 0.059999999999999991 $439 $509 forward 7 unknown #
face $-1 $505 $367 $3 $-1 $510 reversed single #
point $-1 -4.0678674925030291 -2.2042468245269449 0 #
point $-1 -3.9428674925030291 -2.4207531754730542 0 #
coedge $-1 $372 $371 $418 $476 reversed $373 $-1 #
face $-1 $446 $373 $3 $-1 $511 reversed single #
vertex $-1 $376 $512 #
straight-curve $-1 -4.6249999999999991 -0.125 0 0 0 -1 I I #
vertex $-1 $476 $513 #
straight-curve $-1 -4.6250000000000009 0.125 0 0 0 -1 I I #
cone-surface $-1 -4.625 0 -0.029999999999999999 0 0 1 -8.8817841970012523e-016 0.125 0 1 I I 0 1 0.125 forward I I I I #
cone-surface $-1 -4.0053674925030283 2.3125 -0.029999999999999999 0 0 1 -0.0625 -0.1082531754730548 0 1 I I 0 1 0.12499999999999997 forward I I I I #
point $-1 -4.0678674925030283 2.2042468245269458 -0.059999999999999998 #
point $-1 -3.9428674925030283 2.4207531754730551 -0.059999999999999998 #
straight-curve $-1 5.125 -5.125 0 1 0 0 I I #
coedge $-1 $394 $393 $423 $479 forward $339 $-1 #
point $-1 5.125 -5.125 0 #
coedge $-1 $400 $423 $397 $463 reversed $44 $-1 #
edge $-1 $402 0 $464 10.25 $397 $514 forward 7 unknown #
vertex $-1 $479 $515 #
straight-curve $-1 5.125 -6 0 0 0 -1 I I #
straight-curve $-1 -5.125 -5.125 -0.059999999999999998 0 -1 0 I I #
point $-1 -5.125 -6 -0.059999999999999998 #
point $-1 6 -5.125 0 #
vertex $-1 $424 $516 #
straight-curve $-1 5.125 -5.125 0 0 0 -1 I I #
point $-1 6 -5.125 -0.059999999999999998 #
loop $-1 $517 $518 $13 #
coedge $-1 $519 $519 $498 $520 forward $416 $-1 #
coedge $-1 $417 $417 $504 $521 forward $348 $-1 #
edge $-1 $508 0 $506 3.1415926535898051 $443 $522 forward 7 unknown #
edge $-1 $451 0 $453 3.1415926535897931 $449 $523 forward 7 unknown #
ellipse-curve $-1 -4.625 0 -0.059999999999999998 0 0 1 0 0.125 0 1 I I #
ellipse-curve $-1 -4.0053674925030283 2.3125000000000004 -0.059999999999999998 0 0 1 -0.0625 -0.10825317547305469 0 1 I I #
edge $-1 $464 0 $469 0.875 $460 $524 forward 7 unknown #
straight-curve $-1 5.125 -5.125 -0.059999999999999998 1 0 0 I I #
loop $-1 $525 $526 $4 #
coedge $-1 $527 $527 $528 $529 reversed $426 $-1 #
coedge $-1 $427 $427 $530 $531 reversed $358 $-1 #
coedge $-1 $532 $533 $427 $485 forward $534 $-1 #
edge $-1 $535 0 $536 3.1415926535897931 $427 $537 forward 7 unknown #
coedge $-1 $538 $539 $428 $487 forward $540 $-1 #
edge $-1 $492 0 $491 3.1415926535897931 $428 $541 forward 7 unknown #
coedge $-1 $542 $429 $539 $543 forward $490 $-1 #
coedge $-1 $429 $542 $538 $544 reversed $490 $-1 #
loop $-1 $-1 $488 $545 #
vertex $-1 $487 $546 #
vertex $-1 $487 $547 #
ellipse-curve $-1 0 -4.625 0 0 0 1 -0.125 0 0 1 I I #
coedge $-1 $548 $431 $434 $500 forward $496 $-1 #
coedge $-1 $431 $548 $433 $499 reversed $496 $-1 #
loop $-1 $-1 $494 $549 #
ellipse-curve $-1 -2.3124999999999996 -4.0053674925030291 0 0 0 1 0.10825317547305469 -0.0625 0 1 I I #
coedge $-1 $434 $433 $473 $520 reversed $435 $-1 #
edge $-1 $437 -6.9388939039072284e-018 $550 0.059999999999999991 $495 $551 forward 7 unknown #
edge $-1 $436 0 $552 0.059999999999999998 $494 $553 forward 7 unknown #
face $-1 $549 $435 $3 $-1 $554 reversed single #
point $-1 -2.4207531754730542 -3.9428674925030291 0 #
point $-1 -2.2042468245269449 -4.0678674925030291 0 #
coedge $-1 $440 $439 $474 $521 reversed $441 $-1 #
face $-1 $501 $441 $3 $-1 $555 reversed single #
vertex $-1 $444 $556 #
straight-curve $-1 -3.9428674925030291 -2.4207531754730547 -6.9388939039072284e-018 0 0 -1 I I #
vertex $-1 $521 $557 #
straight-curve $-1 -4.0678674925030291 -2.2042468245269453 -6.9388939039072284e-018 0 0 -1 I I #
cone-surface $-1 -4.0053674925030291 -2.3125 -0.029999999999999999 0 0 1 -0.0625 0.1082531754730548 0 1 I I 0 1 0.12499999999999997 forward I I I I #
cone-surface $-1 -4.625 0 -0.029999999999999999 0 0 1 8.8817841970012523e-016 -0.125 0 1 I I 0 1 0.125 forward I I I I #
point $-1 -4.625 -0.125 -0.059999999999999998 #
point $-1 -4.625 0.125 -0.059999999999999998 #
straight-curve $-1 -5.125 -6 -0.059999999999999998 1 0 0 I I #
point $-1 5.125 -6 -0.059999999999999998 #
point $-1 5.125 -5.125 -0.059999999999999998 #
loop $-1 $558 $559 $13 #
coedge $-1 $560 $560 $542 $561 forward $472 $-1 #
coedge $-1 $473 $473 $548 $562 forward $416 $-1 #
edge $-1 $552 0 $550 3.1415926535898087 $498 $563 forward 7 unknown #
edge $-1 $506 0 $508 3.1415926535897931 $504 $564 forward 7 unknown #
ellipse-curve $-1 -4.00536749250303 -2.3124999999999996 -0.059999999999999998 0 0 1 -0.062499999999999112 0.10825317547305469 0 1 I I #
ellipse-curve $-1 -4.625 0 -0.059999999999999998 0 0 1 0 -0.125 0 1 I I #
straight-curve $-1 5.125 -6 -0.059999999999999998 0 1 0 I I #
loop $-1 $565 $566 $4 #
coedge $-1 $567 $567 $568 $569 reversed $481 $-1 #
coedge $-1 $482 $482 $570 $571 reversed $426 $-1 #
coedge $-1 $572 $573 $482 $529 forward $574 $-1 #
edge $-1 $575 0 $576 3.1415926535897931 $482 $577 forward 7 unknown #
coedge $-1 $578 $579 $483 $531 forward $580 $-1 #
edge $-1 $536 0 $535 3.1415926535897931 $483 $581 forward 7 unknown #
coedge $-1 $582 $484 $579 $583 forward $534 $-1 #
coedge $-1 $484 $582 $578 $584 reversed $534 $-1 #
loop $-1 $-1 $532 $585 #
vertex $-1 $531 $586 #
vertex $-1 $531 $587 #
ellipse-curve $-1 2.3125000000000009 -4.0053674925030283 0 0 0 1 -0.10825317547305469 -0.0625 0 1 I I #
coedge $-1 $588 $486 $489 $544 forward $540 $-1 #
coedge $-1 $486 $588 $488 $543 reversed $540 $-1 #
loop $-1 $-1 $538 $589 #
ellipse-curve $-1 0 -4.625 0 0 0 1 0.125 0 0 1 I I #
coedge $-1 $489 $488 $518 $561 reversed $490 $-1 #
edge $-1 $492 0 $590 0.059999999999999998 $539 $591 forward 7 unknown #
edge $-1 $491 0 $592 0.059999999999999998 $538 $593 forward 7 unknown #
face $-1 $589 $490 $3 $-1 $594 reversed single #
point $-1 -0.125 -4.625 0 #
point $-1 0.125 -4.625 0 #
coedge $-1 $495 $494 $519 $562 reversed $496 $-1 #
face $-1 $545 $496 $3 $-1 $595 reversed single #
vertex $-1 $499 $596 #
straight-curve $-1 -2.2042468245269453 -4.0678674925030291 -6.9388939039072284e-018 0 0 -1 I I #
vertex $-1 $562 $597 #
straight-curve $-1 -2.4207531754730547 -3.9428674925030287 0 0 0 -1 I I #
cone-surface $-1 -2.3125 -4.0053674925030291 -0.029999999999999999 0 0 1 -0.10825317547305462 0.062500000000000402 0 1 I I 0 1 0.125 forward I I I I #
cone-surface $-1 -4.0053674925030291 -2.3125 -0.029999999999999999 0 0 1 0.0625 -0.1082531754730548 0 1 I I 0 1 0.12499999999999997 forward I I I I #
point $-1 -3.9428674925030291 -2.4207531754730542 -0.059999999999999998 #
point $-1 -4.0678674925030291 -2.2042468245269449 -0.059999999999999998 #
loop $-1 $598 $599 $13 #
coedge $-1 $600 $600 $582 $601 forward $517 $-1 #
coedge $-1 $518 $518 $588 $602 forward $472 $-1 #
edge $-1 $592 0 $590 3.1415926535897931 $542 $603 forward 7 unknown #
edge $-1 $550 0 $552 3.1415926535897931 $548 $604 forward 7 unknown #
ellipse-curve $-1 -2.3125 -4.00536749250303 -0.059999999999999998 0 0 1 -0.10825317547305424 0.062500000000000888 0 1 I I #
ellipse-curve $-1 -4.0053674925030291 -2.3124999999999996 -0.059999999999999998 0 0 1 0.0625 -0.10825317547305469 0 1 I I #
loop $-1 $-1 $605 $4 #
coedge $-1 $606 $606 $607 $608 reversed $525 $-1 #
coedge $-1 $526 $526 $609 $610 reversed $481 $-1 #
coedge $-1 $611 $612 $526 $569 forward $613 $-1 #
edge $-1 $614 0 $615 3.1415926535897931 $526 $616 forward 7 unknown #
coedge $-1 $617 $618 $527 $571 forward $619 $-1 #
edge $-1 $576 0 $575 3.1415926535897967 $527 $620 forward 7 unknown #
coedge $-1 $621 $528 $618 $622 forward $574 $-1 #
coedge $-1 $528 $621 $617 $623 reversed $574 $-1 #
loop $-1 $-1 $572 $624 #
vertex $-1 $571 $625 #
vertex $-1 $571 $626 #
ellipse-curve $-1 4.0053674925030283 -2.3125000000000009 0 0 0 1 -0.0625 -0.10825317547305469 0 1 I I #
coedge $-1 $627 $530 $533 $584 forward $580 $-1 #
coedge $-1 $530 $627 $532 $583 reversed $580 $-1 #
loop $-1 $-1 $578 $628 #
ellipse-curve $-1 2.3125000000000009 -4.0053674925030283 0 0 0 1 0.10825317547305469 0.0625 0 1 I I #
coedge $-1 $533 $532 $559 $601 reversed $534 $-1 #
edge $-1 $536 -6.9388939039072284e-018 $629 0.059999999999999991 $579 $630 forward 7 unknown #
edge $-1 $535 -6.9388939039072284e-018 $631 0.059999999999999991 $578 $632 forward 7 unknown #
face $-1 $628 $534 $3 $-1 $633 reversed single #
point $-1 2.2042468245269462 -4.0678674925030283 0 #
point $-1 2.4207531754730556 -3.9428674925030283 0 #
coedge $-1 $539 $538 $560 $602 reversed $540 $-1 #
face $-1 $585 $540 $3 $-1 $634 reversed single #
vertex $-1 $543 $635 #
straight-curve $-1 0.125 -4.6249999999999991 0 0 0 -1 I I #
vertex $-1 $602 $636 #
straight-curve $-1 -0.125 -4.6250000000000009 0 0 0 -1 I I #
cone-surface $-1 0 -4.625 -0.029999999999999999 0 0 1 -0.125 -8.8817841970012523e-016 0 1 I I 0 1 0.125 forward I I I I #
cone-surface $-1 -2.3125 -4.0053674925030291 -0.029999999999999999 0 0 1 0.1082531754730548 -0.0625 0 1 I I 0 1 0.12499999999999997 forward I I I I #
point $-1 -2.2042468245269449 -4.0678674925030291 -0.059999999999999998 #
point $-1 -2.4207531754730542 -3.9428674925030291 -0.059999999999999998 #
loop $-1 $637 $638 $13 #
coedge $-1 $639 $639 $621 $640 forward $558 $-1 #
coedge $-1 $559 $559 $627 $641 forward $517 $-1 #
edge $-1 $631 0 $629 3.1415926535897931 $582 $642 forward 7 unknown #
edge $-1 $590 0 $592 3.1415926535897931 $588 $643 forward 7 unknown #
ellipse-curve $-1 0 -4.625 -0.059999999999999998 0 0 1 -0.125 0 0 1 I I #
ellipse-curve $-1 -2.3124999999999996 -4.0053674925030291 -0.059999999999999998 0 0 1 0.10825317547305469 -0.0625 0 1 I I #
coedge $-1 $644 $644 $645 $646 reversed $565 $-1 #
coedge $-1 $566 $566 $647 $648 reversed $525 $-1 #
coedge $-1 $649 $650 $566 $608 forward $651 $-1 #
edge $-1 $652 0 $653 3.1415926535897931 $566 $654 forward 7 unknown #
coedge $-1 $655 $656 $567 $610 forward $657 $-1 #
edge $-1 $615 0 $614 3.1415926535897931 $567 $658 forward 7 unknown #
coedge $-1 $659 $568 $656 $660 forward $613 $-1 #
coedge $-1 $568 $659 $655 $661 reversed $613 $-1 #
loop $-1 $-1 $611 $662 #
vertex $-1 $610 $663 #
vertex $-1 $610 $664 #
ellipse-curve $-1 4.625 0 0 0 0 1 0 -0.125 0 1 I I #
coedge $-1 $665 $570 $573 $623 forward $619 $-1 #
coedge $-1 $570 $665 $572 $622 reversed $619 $-1 #
loop $-1 $-1 $617 $666 #
ellipse-curve $-1 4.0053674925030283 -2.3125000000000004 0 0 0 1 0.0625 0.10825317547305424 0 1 I I #
coedge $-1 $573 $572 $599 $640 reversed $574 $-1 #
edge $-1 $576 -6.9388939039072284e-018 $667 0.059999999999999991 $618 $668 forward 7 unknown #
edge $-1 $575 0 $669 0.059999999999999998 $617 $670 forward 7 unknown #
face $-1 $666 $574 $3 $-1 $671 reversed single #
point $-1 3.9428674925030283 -2.4207531754730556 0 #
point $-1 4.0678674925030283 -2.2042468245269462 0 #
coedge $-1 $579 $578 $600 $641 reversed $580 $-1 #
face $-1 $624 $580 $3 $-1 $672 reversed single #
vertex $-1 $583 $673 #
straight-curve $-1 2.4207531754730547 -3.9428674925030283 -6.9388939039072284e-018 0 0 -1 I I #
vertex $-1 $641 $674 #
straight-curve $-1 2.2042468245269453 -4.0678674925030283 -6.9388939039072284e-018 0 0 -1 I I #
cone-surface $-1 2.3125 -4.0053674925030283 -0.029999999999999999 0 0 1 -0.1082531754730548 -0.0625 0 1 I I 0 1 0.12499999999999997 forward I I I I #
cone-surface $-1 0 -4.625 -0.029999999999999999 0 0 1 0.125 8.8817841970012523e-016 0 1 I I 0 1 0.125 forward I I I I #
point $-1 0.125 -4.625 -0.059999999999999998 #
point $-1 -0.125 -4.625 -0.059999999999999998 #
loop $-1 $675 $676 $13 #
coedge $-1 $677 $677 $659 $678 forward $598 $-1 #
coedge $-1 $599 $599 $665 $679 forward $558 $-1 #
edge $-1 $669 0 $667 3.1415926535897931 $621 $680 forward 7 unknown #
edge $-1 $629 0 $631 3.1415926535897931 $627 $681 forward 7 unknown #
ellipse-curve $-1 2.3125000000000009 -4.0053674925030283 -0.059999999999999998 0 0 1 -0.10825317547305469 -0.0625 0 1 I I #
ellipse-curve $-1 0 -4.625 -0.059999999999999998 0 0 1 0.125 0 0 1 I I #
coedge $-1 $605 $605 $682 $683 reversed $565 $-1 #
coedge $-1 $684 $685 $605 $646 forward $686 $-1 #
edge $-1 $687 0 $688 3.1415926535897931 $605 $689 forward 7 unknown #
coedge $-1 $690 $691 $606 $648 forward $692 $-1 #
edge $-1 $653 0 $652 3.1415926535897931 $606 $693 forward 7 unknown #
coedge $-1 $694 $607 $691 $695 forward $651 $-1 #
coedge $-1 $607 $694 $690 $696 reversed $651 $-1 #
loop $-1 $-1 $649 $697 #
vertex $-1 $648 $698 #
vertex $-1 $648 $699 #
ellipse-curve $-1 4.0053674925030283 2.3125000000000009 0 0 0 1 0.0625 -0.10825317547305469 0 1 I I #
coedge $-1 $700 $609 $612 $661 forward $657 $-1 #
coedge $-1 $609 $700 $611 $660 reversed $657 $-1 #
loop $-1 $-1 $655 $701 #
ellipse-curve $-1 4.625 0 0 0 0 1 0 0.125 0 1 I I #
coedge $-1 $612 $611 $638 $678 reversed $613 $-1 #
edge $-1 $615 0 $702 0.059999999999999998 $656 $703 forward 7 unknown #
edge $-1 $614 0 $704 0.059999999999999998 $655 $705 forward 7 unknown #
face $-1 $701 $613 $3 $-1 $706 reversed single #
point $-1 4.625 -0.125 0 #
point $-1 4.625 0.125 0 #
coedge $-1 $618 $617 $639 $679 reversed $619 $-1 #
face $-1 $662 $619 $3 $-1 $707 reversed single #
vertex $-1 $622 $708 #
straight-curve $-1 4.0678674925030283 -2.2042468245269453 -6.9388939039072284e-018 0 0 -1 I I #
vertex $-1 $679 $709 #
straight-curve $-1 3.9428674925030283 -2.4207531754730551 0 0 0 -1 I I #
cone-surface $-1 4.0053674925030274 -2.3125 -0.029999999999999999 0 0 1 -0.062499999999999209 -0.1082531754730553 0 1 I I 0 1 0.125 forward I I I I #
cone-surface $-1 2.3125 -4.0053674925030283 -0.029999999999999999 0 0 1 0.1082531754730548 0.0625 0 1 I I 0 1 0.12499999999999997 forward I I I I #
point $-1 2.4207531754730556 -3.9428674925030283 -0.059999999999999998 #
point $-1 2.2042468245269462 -4.0678674925030283 -0.059999999999999998 #
loop $-1 $-1 $710 $13 #
coedge $-1 $711 $711 $694 $712 forward $637 $-1 #
coedge $-1 $638 $638 $700 $713 forward $598 $-1 #
edge $-1 $704 0 $702 3.1415926535897931 $659 $714 forward 7 unknown #
edge $-1 $667 0 $669 3.1415926535897967 $665 $715 forward 7 unknown #
ellipse-curve $-1 4.0053674925030283 -2.3125000000000009 -0.059999999999999998 0 0 1 -0.0625 -0.10825317547305469 0 1 I I #
ellipse-curve $-1 2.3125000000000009 -4.0053674925030283 -0.059999999999999998 0 0 1 0.10825317547305469 0.0625 0 1 I I #
coedge $-1 $716 $717 $644 $683 forward $718 $-1 #
edge $-1 $688 0 $687 3.1415926535897967 $644 $719 forward 7 unknown #
coedge $-1 $720 $645 $717 $721 forward $686 $-1 #
coedge $-1 $645 $720 $716 $722 reversed $686 $-1 #
loop $-1 $-1 $684 $723 #
vertex $-1 $683 $724 #
vertex $-1 $683 $725 #
ellipse-curve $-1 2.3125000000000009 4.0053674925030283 0 0 0 1 0.10825317547305469 -0.0625 0 1 I I #
coedge $-1 $726 $647 $650 $696 forward $692 $-1 #
coedge $-1 $647 $726 $649 $695 reversed $692 $-1 #
loop $-1 $-1 $690 $727 #
ellipse-curve $-1 4.0053674925030283 2.3125000000000009 0 0 0 1 -0.0625 0.10825317547305469 0 1 I I #
coedge $-1 $650 $649 $676 $712 reversed $651 $-1 #
edge $-1 $653 -6.9388939039072284e-018 $728 0.059999999999999991 $691 $729 forward 7 unknown #
edge $-1 $652 -6.9388939039072284e-018 $730 0.059999999999999991 $690 $731 forward 7 unknown #
face $-1 $727 $651 $3 $-1 $732 reversed single #
point $-1 4.0678674925030283 2.2042468245269462 0 #
point $-1 3.9428674925030283 2.4207531754730556 0 #
coedge $-1 $656 $655 $677 $713 reversed $657 $-1 #
face $-1 $697 $657 $3 $-1 $733 reversed single #
vertex $-1 $660 $734 #
straight-curve $-1 4.6249999999999991 0.125 0 0 0 -1 I I #
vertex $-1 $713 $735 #
straight-curve $-1 4.6250000000000009 -0.125 0 0 0 -1 I I #
cone-surface $-1 4.625 0 -0.029999999999999999 0 0 1 8.8817841970012523e-016 -0.125 0 1 I I 0 1 0.125 forward I I I I #
cone-surface $-1 4.0053674925030283 -2.3125 -0.029999999999999999 0 0 1 0.0625 0.1082531754730548 0 1 I I 0 1 0.12499999999999997 forward I I I I #
point $-1 4.0678674925030283 -2.2042468245269462 -0.059999999999999998 #
point $-1 3.9428674925030283 -2.4207531754730556 -0.059999999999999998 #
coedge $-1 $736 $736 $720 $737 forward $675 $-1 #
coedge $-1 $676 $676 $726 $738 forward $637 $-1 #
edge $-1 $730 0 $728 3.1415926535897931 $694 $739 forward 7 unknown #
edge $-1 $702 0 $704 3.1415926535897931 $700 $740 forward 7 unknown #
ellipse-curve $-1 4.625 0 -0.059999999999999998 0 0 1 0 -0.125 0 1 I I #
ellipse-curve $-1 4.0053674925030283 -2.3125000000000004 -0.059999999999999998 0 0 1 0.0625 0.10825317547305424 0 1 I I #
coedge $-1 $741 $682 $685 $722 forward $718 $-1 #
coedge $-1 $682 $741 $684 $721 reversed $718 $-1 #
loop $-1 $-1 $716 $742 #
ellipse-curve $-1 2.3125000000000004 4.0053674925030283 0 0 0 1 -0.10825317547305424 0.0625 0 1 I I #
coedge $-1 $685 $684 $710 $737 reversed $686 $-1 #
edge $-1 $688 -6.9388939039072284e-018 $743 0.059999999999999991 $717 $744 forward 7 unknown #
edge $-1 $687 0 $745 0.059999999999999998 $716 $746 forward 7 unknown #
face $-1 $742 $686 $3 $-1 $747 reversed single #
point $-1 2.4207531754730556 3.9428674925030283 0 #
point $-1 2.2042468245269462 4.0678674925030283 0 #
coedge $-1 $691 $690 $711 $738 reversed $692 $-1 #
face $-1 $723 $692 $3 $-1 $748 reversed single #
vertex $-1 $695 $749 #
straight-curve $-1 3.9428674925030283 2.4207531754730547 -6.9388939039072284e-018 0 0 -1 I I #
vertex $-1 $738 $750 #
straight-curve $-1 4.0678674925030283 2.2042468245269453 -6.9388939039072284e-018 0 0 -1 I I #
cone-surface $-1 4.0053674925030283 2.3125 -0.029999999999999999 0 0 1 0.0625 -0.1082531754730548 0 1 I I 0 1 0.12499999999999997 forward I I I I #
cone-surface $-1 4.625 0 -0.029999999999999999 0 0 1 -8.8817841970012523e-016 0.125 0 1 I I 0 1 0.125 forward I I I I #
point $-1 4.625 0.125 -0.059999999999999998 #
point $-1 4.625 -0.125 -0.059999999999999998 #
coedge $-1 $710 $710 $741 $751 forward $675 $-1 #
edge $-1 $745 0 $743 3.1415926535897931 $710 $752 forward 7 unknown #
edge $-1 $728 0 $730 3.1415926535897931 $726 $753 forward 7 unknown #
ellipse-curve $-1 4.0053674925030283 2.3125000000000009 -0.059999999999999998 0 0 1 0.0625 -0.10825317547305469 0 1 I I #
ellipse-curve $-1 4.625 0 -0.059999999999999998 0 0 1 0 0.125 0 1 I I #
coedge $-1 $717 $716 $736 $751 reversed $718 $-1 #
face $-1 $-1 $718 $3 $-1 $754 reversed single #
vertex $-1 $751 $755 #
straight-curve $-1 2.2042468245269453 4.0678674925030283 -6.9388939039072284e-018 0 0 -1 I I #
vertex $-1 $751 $756 #
straight-curve $-1 2.4207531754730551 3.9428674925030283 0 0 0 -1 I I #
cone-surface $-1 2.3125 4.0053674925030274 -0.029999999999999999 0 0 1 0.1082531754730553 -0.062499999999999209 0 1 I I 0 1 0.125 forward I I I I #
cone-surface $-1 4.0053674925030283 2.3125 -0.029999999999999999 0 0 1 -0.0625 0.1082531754730548 0 1 I I 0 1 0.12499999999999997 forward I I I I #
point $-1 3.9428674925030283 2.4207531754730556 -0.059999999999999998 #
point $-1 4.0678674925030283 2.2042468245269462 -0.059999999999999998 #
edge $-1 $743 0 $745 3.1415926535897967 $736 $757 forward 7 unknown #
ellipse-curve $-1 2.3125000000000009 4.0053674925030283 -0.059999999999999998 0 0 1 0.10825317547305469 -0.0625 0 1 I I #
ellipse-curve $-1 4.0053674925030283 2.3125000000000009 -0.059999999999999998 0 0 1 -0.0625 0.10825317547305469 0 1 I I #
cone-surface $-1 2.3125 4.0053674925030283 -0.029999999999999999 0 0 1 -0.1082531754730548 0.0625 0 1 I I 0 1 0.12499999999999997 forward I I I I #
point $-1 2.2042468245269462 4.0678674925030283 -0.059999999999999998 #
point $-1 2.4207531754730556 3.9428674925030283 -0.059999999999999998 #
ellipse-curve $-1 2.3125000000000004 4.0053674925030283 -0.059999999999999998 0 0 1 -0.10825317547305424 0.0625 0 1 I I #
End-of-ACIS-data 