600 0 2 0           
24 FBMach with ACIS - 6.0.3 13 ACIS 6.0.3 NT 24 Tue May 22 12:37:11 2001 
1 9.9999999999999995e-007 1e-010 
body $2 $3 $-1 $4 #
bdycol-kcp $-1 1 4 $5 $6 $7 $8 #
model_id-kcp-attrib $-1 $-1 $-1 $0 1 990549431 60 1933312001 1 #
lump $-1 $-1 $9 $0 #
transform $-1 1 0 0 0 1 0 0 0 1 1.4210854715202004e-014 -7.1054273576010019e-015 1.0658141036401503e-014 1 rotate no_reflect no_shear #
body $10 $11 $-1 $12 #
body $13 $14 $-1 $15 #
body $16 $17 $-1 $18 #
body $19 $20 $-1 $21 #
shell $-1 $-1 $-1 $22 $-1 $3 #
model_id-kcp-attrib $-1 $-1 $-1 $5 1 990549431 60 1933312002 1 #
lump $-1 $-1 $23 $5 #
transform $-1 1 0 0 0 1 0 0 0 1 0 -3.5527136788005009e-015 0 1 no_rotate no_reflect no_shear #
rgb_color-st-attrib $-1 $24 $-1 $6 0.5 0.5 1 #
lump $-1 $-1 $25 $6 #
transform $-1 1 0 0 0 1 0 0 0 1 0 -3.5527136788005009e-015 0 1 no_rotate no_reflect no_shear #
rgb_color-st-attrib $-1 $26 $-1 $7 0.5 0.5 1 #
lump $-1 $-1 $27 $7 #
transform $-1 1 0 0 0 1 0 0 0 1 0 -3.5527136788005009e-015 0 1 no_rotate no_reflect no_shear #
rgb_color-st-attrib $-1 $28 $-1 $8 0.5 0.5 1 #
lump $-1 $-1 $29 $8 #
transform $-1 1 0 0 0 1 0 0 0 1 0 -3.5527136788005009e-015 0 1 no_rotate no_reflect no_shear #
face $30 $31 $32 $9 $-1 $33 forward single #
shell $-1 $-1 $-1 $34 $-1 $11 #
model_id-kcp-attrib $-1 $-1 $13 $6 1 990549431 300 1932263427 1 #
shell $-1 $-1 $-1 $35 $-1 $14 #
model_id-kcp-attrib $-1 $-1 $16 $7 1 990549431 320 1933574148 1 #
shell $-1 $-1 $-1 $36 $-1 $17 #
model_id-kcp-attrib $-1 $-1 $19 $8 1 990549431 330 1934229509 1 #
shell $-1 $-1 $-1 $37 $-1 $20 #
model_id-kcp-attrib $-1 $-1 $-1 $22 1 990549431 60 1933312001 2 #
face $38 $39 $40 $9 $-1 $41 forward single #
loop $-1 $-1 $42 $22 #
plane-surface $-1 -46.5 3.5 21.5 -0.70710678118654757 0 0.70710678118654757 0.70710678118654802 0 0.70710678118654802 forward_v I I I I #
face $43 $44 $45 $23 $-1 $46 forward single #
face $-1 $47 $48 $25 $-1 $49 reversed single #
face $-1 $50 $51 $27 $-1 $52 reversed single #
face $-1 $53 $54 $29 $-1 $55 reversed single #
model_id-kcp-attrib $-1 $-1 $-1 $31 1 990549431 60 1933312001 3 #
face $56 $57 $58 $9 $-1 $59 forward single #
loop $-1 $-1 $60 $31 #
plane-surface $-1 0 0 25 0 0 1 1 0 0 forward_v I I I I #
coedge $-1 $61 $62 $60 $63 forward $32 $-1 #
model_id-kcp-attrib $-1 $-1 $-1 $34 1 990549431 60 1933312002 2 #
face $64 $65 $66 $23 $-1 $67 reversed single #
loop $-1 $-1 $68 $34 #
plane-surface $-1 0 0 25 0 0 1 1 0 0 forward_v I I I I #
face $-1 $69 $70 $25 $-1 $71 forward single #
loop $-1 $-1 $72 $35 #
plane-surface $-1 -46.5 0 21.5 -0.70710678118654757 0 0.70710678118654757 0 -1 0 forward_v I I I I #
face $-1 $73 $74 $27 $-1 $75 reversed single #
loop $-1 $-1 $76 $36 #
plane-surface $-1 0 -46.5 21.5 0 -0.70710678118654757 0.70710678118654757 1 0 0 forward_v I I I I #
face $-1 $77 $78 $29 $-1 $79 reversed single #
loop $-1 $-1 $80 $37 #
plane-surface $-1 46.5 0 21.5 0.70710678118654757 0 0.70710678118654757 0 1 0 forward_v I I I I #
model_id-kcp-attrib $-1 $-1 $-1 $39 1 990549431 60 1933312001 4 #
face $81 $82 $83 $9 $-1 $84 forward single #
loop $-1 $-1 $85 $39 #
plane-surface $-1 0 -46.5 21.5 0 -0.70710678118654757 0.70710678118654757 1 0 0 forward_v I I I I #
coedge $-1 $86 $87 $42 $63 reversed $40 $-1 #
coedge $-1 $88 $42 $89 $90 forward $32 $-1 #
coedge $-1 $42 $88 $85 $91 forward $32 $-1 #
edge $92 $93 -43 $94 50 $60 $95 forward 7 unknown #
model_id-kcp-attrib $-1 $-1 $-1 $44 1 990549431 60 1933312002 5 #
face $96 $97 $98 $23 $-1 $99 reversed single #
loop $-1 $-1 $100 $44 #
plane-surface $-1 0 0 -25 0 0 1 1 0 0 forward_v I I I I #
coedge $-1 $101 $102 $103 $104 forward $45 $-1 #
face $-1 $105 $106 $25 $-1 $107 forward single #
loop $-1 $-1 $108 $47 #
plane-surface $-1 0 0 25 0 0 1 1 0 0 forward_v I I I I #
coedge $-1 $109 $110 $111 $112 forward $48 $-1 #
face $-1 $113 $114 $27 $-1 $115 reversed single #
loop $-1 $-1 $116 $50 #
plane-surface $-1 0 -50 0 0 1 0 0 0 1 forward_v I I I I #
coedge $-1 $117 $118 $119 $120 forward $51 $-1 #
face $-1 $121 $122 $29 $-1 $123 forward single #
loop $-1 $-1 $124 $53 #
plane-surface $-1 50.000000000000007 0 0 -1 0 0 0 0 1 forward_v I I I I #
coedge $-1 $125 $126 $127 $128 forward $54 $-1 #
model_id-kcp-attrib $-1 $-1 $-1 $57 1 990549431 60 1933312001 5 #
face $129 $130 $131 $9 $-1 $132 reversed single #
loop $-1 $-1 $133 $57 #
plane-surface $-1 46.5 3.5 21.5 0.70710678118654757 0 0.70710678118654757 0.70710678118654802 0 -0.70710678118654802 forward_v I I I I #
coedge $-1 $134 $135 $62 $91 reversed $58 $-1 #
coedge $-1 $136 $60 $135 $137 reversed $40 $-1 #
coedge $-1 $60 $136 $138 $139 forward $40 $-1 #
coedge $-1 $62 $61 $140 $141 forward $32 $-1 #
coedge $-1 $138 $142 $61 $90 reversed $143 $-1 #
edge $144 $94 3.889087296526009 $145 13.788582233137669 $89 $146 forward 7 unknown #
edge $147 $148 -33.919328314890457 $93 -21.794972661908314 $85 $149 forward 7 unknown #
attrib_edge_convexity-kcp-attrib $-1 $150 $-1 $63 1 #
vertex $-1 $137 $151 #
vertex $-1 $139 $152 #
straight-curve $-1 -43 0 25 0 1 0 I I #
model_id-kcp-attrib $-1 $-1 $-1 $65 1 990549431 60 1933312002 4 #
face $153 $154 $155 $23 $-1 $156 reversed single #
loop $-1 $-1 $157 $65 #
plane-surface $-1 0 -50 0 0 1 0 0 0 1 forward_v I I I I #
coedge $-1 $158 $159 $160 $161 forward $66 $-1 #
coedge $-1 $162 $68 $163 $164 forward $45 $-1 #
coedge $-1 $68 $162 $165 $166 forward $45 $-1 #
coedge $-1 $167 $168 $68 $104 reversed $169 $-1 #
edge $-1 $170 -50 $171 50 $103 $172 forward 7 unknown #
face $-1 $173 $174 $25 $-1 $175 reversed single #
loop $-1 $-1 $176 $69 #
plane-surface $-1 -50.000000000000007 1.0658141036401503e-014 68 -0.57735026918962562 0.57735026918962595 0.57735026918962584 0 -0.70710678118654746 0.70710678118654757 forward_v I I I I #
coedge $-1 $177 $178 $109 $179 reversed $70 $-1 #
coedge $-1 $180 $72 $108 $179 forward $48 $-1 #
coedge $-1 $72 $180 $181 $182 forward $48 $-1 #
coedge $-1 $183 $176 $72 $112 reversed $106 $-1 #
edge $184 $185 -28.991378028648448 $186 -19.091883092036788 $111 $187 forward 7 unknown #
face $-1 $188 $189 $27 $-1 $190 forward single #
loop $-1 $-1 $119 $73 #
plane-surface $-1 50.000000000000007 0 0 -1 0 0 0 0 1 forward_v I I I I #
coedge $-1 $191 $192 $117 $193 reversed $74 $-1 #
coedge $-1 $194 $76 $116 $193 forward $51 $-1 #
coedge $-1 $76 $194 $195 $196 forward $51 $-1 #
coedge $-1 $197 $198 $76 $120 reversed $114 $-1 #
edge $199 $200 3.8890872965260144 $201 13.788582233137681 $119 $202 forward 7 unknown #
face $-1 $203 $204 $29 $-1 $205 forward single #
loop $-1 $-1 $206 $77 #
plane-surface $-1 43.000000000000014 3.5000000000000107 71.5 0.57735026918962562 0.57735026918962595 0.57735026918962584 0 0.70710678118654746 -0.70710678118654757 forward_v I I I I #
coedge $-1 $207 $208 $125 $209 reversed $78 $-1 #
coedge $-1 $210 $80 $124 $209 forward $54 $-1 #
coedge $-1 $80 $210 $211 $212 forward $54 $-1 #
coedge $-1 $206 $213 $80 $128 reversed $122 $-1 #
edge $214 $215 22.804193693266161 $216 32.703688629877817 $127 $217 forward 7 unknown #
model_id-kcp-attrib $-1 $-1 $-1 $82 1 990549431 60 1933312001 6 #
face $218 $219 $220 $9 $-1 $221 reversed single #
loop $-1 $-1 $222 $82 #
plane-surface $-1 50 0 0 -1 0 0 0 0 1 forward_v I I I I #
coedge $-1 $223 $224 $136 $225 forward $83 $-1 #
coedge $-1 $226 $85 $227 $228 forward $58 $-1 #
coedge $-1 $85 $226 $86 $137 forward $58 $-1 #
coedge $-1 $87 $86 $133 $225 reversed $40 $-1 #
edge $229 $230 -43 $93 43 $86 $231 forward 7 unknown #
coedge $-1 $232 $89 $87 $139 reversed $143 $-1 #
edge $233 $234 -43 $94 43 $138 $235 forward 7 unknown #
coedge $-1 $236 $237 $88 $141 reversed $238 $-1 #
edge $239 $145 -50 $148 50 $140 $240 forward 7 unknown #
coedge $-1 $89 $241 $236 $242 reversed $143 $-1 #
loop $-1 $-1 $89 $243 #
attrib_edge_convexity-kcp-attrib $-1 $244 $-1 $90 1 #
vertex $-1 $141 $245 #
straight-curve $-1 -40.25 50 27.75 -0.70710678118654802 0 -0.70710678118654802 I I #
attrib_edge_convexity-kcp-attrib $-1 $246 $-1 $91 1 #
vertex $-1 $228 $247 #
straight-curve $-1 -30.4166666666667 -30.4166666666667 37.5833333333333 0.57735026918962595 0.57735026918962595 0.57735026918962595 I I #
convexity-sys-attrib $-1 $-1 $92 $63 #
point $-1 -43 -43 25 #
point $-1 -43 50 25 #
model_id-kcp-attrib $-1 $-1 $-1 $97 1 990549431 60 1933312002 6 #
face $248 $249 $250 $23 $-1 $251 reversed single #
loop $-1 $-1 $252 $97 #
plane-surface $-1 -50.000000000000007 0 0 1 0 0 0 0 -1 forward_v I I I I #
coedge $-1 $253 $165 $254 $255 forward $98 $-1 #
coedge $-1 $256 $100 $253 $257 forward $66 $-1 #
coedge $-1 $100 $256 $258 $259 forward $66 $-1 #
coedge $-1 $168 $167 $100 $161 reversed $169 $-1 #
edge $-1 $260 -50 $261 50 $160 $262 forward 7 unknown #
coedge $-1 $102 $101 $263 $264 forward $45 $-1 #
coedge $-1 $265 $266 $101 $164 reversed $250 $-1 #
edge $-1 $171 -50.000000000000007 $267 50.000000000000007 $163 $268 forward 7 unknown #
coedge $-1 $157 $269 $102 $166 reversed $98 $-1 #
edge $-1 $270 -50.000000000000007 $170 50.000000000000007 $165 $271 forward 7 unknown #
coedge $-1 $160 $103 $269 $272 forward $169 $-1 #
coedge $-1 $103 $160 $265 $273 reversed $169 $-1 #
loop $-1 $-1 $167 $249 #
vertex $-1 $104 $274 #
vertex $-1 $104 $275 #
straight-curve $-1 50.000000000000007 0 25 0 1 0 I I #
face $-1 $-1 $276 $25 $-1 $277 reversed single #
loop $-1 $-1 $278 $105 #
plane-surface $-1 0 -50 0 0 1 0 0 0 1 forward_v I I I I #
coedge $-1 $111 $183 $177 $279 reversed $106 $-1 #
coedge $-1 $280 $108 $176 $279 forward $70 $-1 #
coedge $-1 $108 $280 $281 $282 forward $70 $-1 #
edge $283 $186 -50 $284 50 $108 $285 forward 7 unknown #
coedge $-1 $110 $109 $278 $286 forward $48 $-1 #
coedge $-1 $287 $288 $110 $182 reversed $276 $-1 #
edge $289 $290 -50 $185 50 $181 $291 forward 7 unknown #
coedge $-1 $176 $111 $288 $292 reversed $106 $-1 #
convexity-sys-attrib $-1 $-1 $-1 $112 #
vertex $-1 $182 $293 #
vertex $-1 $279 $294 #
straight-curve $-1 -29.500000000000004 50 38.5 0.70710678118654768 0 0.70710678118654746 I I #
face $-1 $-1 $295 $27 $-1 $296 reversed single #
loop $-1 $-1 $195 $113 #
plane-surface $-1 0 0 25 0 0 1 1 0 0 forward_v I I I I #
coedge $-1 $297 $116 $198 $298 reversed $74 $-1 #
coedge $-1 $116 $297 $299 $300 forward $74 $-1 #
edge $301 $201 -50.000000000000007 $302 50.000000000000007 $116 $303 forward 7 unknown #
coedge $-1 $118 $117 $304 $305 forward $51 $-1 #
coedge $-1 $306 $307 $118 $196 reversed $189 $-1 #
edge $308 $309 -50.000000000000007 $200 50.000000000000007 $195 $310 forward 7 unknown #
coedge $-1 $198 $119 $307 $311 reversed $114 $-1 #
coedge $-1 $119 $197 $191 $298 forward $114 $-1 #
convexity-sys-attrib $-1 $-1 $-1 $120 #
vertex $-1 $120 $312 #
vertex $-1 $120 $313 #
straight-curve $-1 50 -40.25 27.750000000000004 0 -0.70710678118654757 -0.70710678118654757 I I #
face $-1 $-1 $314 $29 $-1 $315 reversed single #
loop $-1 $-1 $211 $121 #
plane-surface $-1 0 0 25 0 0 1 1 0 0 forward_v I I I I #
coedge $-1 $213 $127 $316 $317 reversed $122 $-1 #
coedge $-1 $318 $124 $213 $319 forward $78 $-1 #
coedge $-1 $124 $318 $320 $321 forward $78 $-1 #
edge $322 $216 -50 $323 50 $124 $324 forward 7 unknown #
coedge $-1 $126 $125 $325 $326 forward $54 $-1 #
coedge $-1 $327 $316 $126 $212 reversed $204 $-1 #
edge $328 $329 -50 $215 50 $211 $330 forward 7 unknown #
coedge $-1 $127 $206 $207 $319 reversed $122 $-1 #
convexity-sys-attrib $-1 $-1 $-1 $128 #
vertex $-1 $212 $331 #
vertex $-1 $209 $332 #
straight-curve $-1 26.875000000000014 50 41.125 0.70710678118654768 0 -0.70710678118654746 I I #
model_id-kcp-attrib $-1 $-1 $-1 $130 1 990549431 60 1933312001 7 #
face $333 $334 $335 $9 $-1 $336 reversed single #
loop $-1 $-1 $227 $130 #
plane-surface $-1 0 -50 0 0 1 0 0 0 1 forward_v I I I I #
coedge $-1 $337 $338 $339 $340 reversed $131 $-1 #
coedge $-1 $339 $133 $226 $341 forward $83 $-1 #
coedge $-1 $133 $339 $232 $342 forward $83 $-1 #
edge $343 $234 -50 $230 43 $136 $344 forward 7 unknown #
coedge $-1 $135 $134 $223 $341 reversed $58 $-1 #
coedge $-1 $345 $346 $134 $228 reversed $220 $-1 #
edge $347 $148 -50 $348 50 $227 $349 forward 7 unknown #
attrib_edge_convexity-kcp-attrib $-1 $350 $-1 $137 1 #
vertex $-1 $341 $351 #
straight-curve $-1 0 -43 25 -1 0 0 I I #
coedge $-1 $352 $138 $224 $342 reversed $143 $-1 #
attrib_edge_convexity-kcp-attrib $-1 $353 $-1 $139 1 #
vertex $-1 $225 $354 #
straight-curve $-1 0 50 25 -1 0 0 I I #
coedge $-1 $355 $140 $142 $242 forward $238 $-1 #
coedge $-1 $140 $355 $345 $356 reversed $238 $-1 #
loop $-1 $-1 $140 $334 #
attrib_edge_convexity-kcp-attrib $-1 $357 $-1 $141 1 #
straight-curve $-1 -50 0 18 0 -1 0 I I #
coedge $-1 $142 $352 $358 $359 reversed $143 $-1 #
edge $-1 $145 -18 $360 25 $142 $361 forward 7 unknown #
face $362 $-1 $143 $9 $-1 $363 reversed single #
convexity-sys-attrib $-1 $-1 $144 $90 #
point $-1 -50 50 18 #
convexity-sys-attrib $-1 $-1 $147 $91 #
point $-1 -50 -50 18 #
model_id-kcp-attrib $-1 $-1 $-1 $154 1 990549431 60 1933312002 7 #
face $364 $-1 $169 $23 $-1 $365 reversed single #
loop $-1 $-1 $265 $154 #
plane-surface $-1 0 50 0 0 -1 0 0 0 -1 forward_v I I I I #
coedge $-1 $366 $263 $266 $367 forward $155 $-1 #
coedge $-1 $269 $157 $158 $257 reversed $98 $-1 #
coedge $-1 $263 $366 $157 $255 reversed $155 $-1 #
edge $-1 $270 -25 $368 25 $254 $369 forward 7 unknown #
coedge $-1 $159 $158 $366 $370 forward $66 $-1 #
edge $-1 $261 -50.000000000000007 $368 50.000000000000007 $253 $371 forward 7 unknown #
coedge $-1 $266 $265 $159 $259 reversed $250 $-1 #
edge $-1 $372 -50.000000000000007 $260 50.000000000000007 $258 $373 forward 7 unknown #
vertex $-1 $161 $374 #
vertex $-1 $272 $375 #
straight-curve $-1 50.000000000000007 0 -25 0 -1 0 I I #
coedge $-1 $252 $254 $162 $264 reversed $155 $-1 #
edge $-1 $267 -50 $270 50 $263 $376 forward 7 unknown #
coedge $-1 $258 $163 $168 $273 forward $250 $-1 #
coedge $-1 $163 $258 $252 $367 reversed $250 $-1 #
vertex $-1 $164 $377 #
straight-curve $-1 0 50 25 -1 0 0 I I #
coedge $-1 $165 $253 $167 $272 reversed $98 $-1 #
vertex $-1 $264 $378 #
straight-curve $-1 0 -50 25 1 0 0 I I #
edge $-1 $170 -25 $261 25 $167 $379 forward 7 unknown #
edge $-1 $171 -25 $260 25 $168 $380 forward 7 unknown #
point $-1 50.000000000000007 -50 25 #
point $-1 50.000000000000007 50 25 #
loop $-1 $-1 $181 $173 #
plane-surface $-1 -50.000000000000007 0 0 1 0 0 0 0 -1 forward_v I I I I #
coedge $-1 $281 $381 $180 $286 reversed $174 $-1 #
edge $-1 $186 -22.627416997969505 $382 -12.727922061357836 $177 $383 forward 7 unknown #
coedge $-1 $178 $177 $384 $385 forward $70 $-1 #
coedge $-1 $381 $278 $178 $282 reversed $174 $-1 #
edge $-1 $386 -50.000000000000007 $284 -43 $281 $387 forward 7 unknown #
convexity-sys-attrib $-1 $-1 $-1 $179 #
vertex $-1 $179 $388 #
straight-curve $-1 -43 0 25 0 -1 0 I I #
edge $389 $284 3.8890872965260144 $290 13.788582233137692 $278 $390 forward 7 unknown #
coedge $-1 $384 $181 $381 $391 reversed $276 $-1 #
coedge $-1 $181 $384 $183 $292 forward $276 $-1 #
convexity-sys-attrib $-1 $-1 $-1 $182 #
vertex $-1 $182 $392 #
straight-curve $-1 -50.000000000000007 0 17.999999999999993 0 1 0 I I #
edge $-1 $382 36.76955262170047 $185 46.66904755831213 $288 $393 forward 7 unknown #
point $-1 -50.000000000000007 50 18.000000000000007 #
point $-1 -43.000000000000007 50 25 #
loop $-1 $-1 $304 $188 #
plane-surface $-1 -50.000000000000007 0 0 1 0 0 0 0 -1 forward_v I I I I #
coedge $-1 $192 $191 $394 $395 reversed $74 $-1 #
edge $-1 $396 -25 $201 -18 $198 $397 forward 7 unknown #
coedge $-1 $398 $304 $192 $300 reversed $295 $-1 #
edge $-1 $399 -25 $302 -18 $299 $400 forward 7 unknown #
convexity-sys-attrib $-1 $-1 $-1 $193 #
vertex $-1 $193 $401 #
straight-curve $-1 0 -50 18 -1 0 0 I I #
coedge $-1 $299 $398 $194 $305 reversed $295 $-1 #
edge $402 $302 -13.788582233137681 $309 -3.8890872965260144 $304 $403 forward 7 unknown #
coedge $-1 $394 $195 $398 $404 forward $189 $-1 #
coedge $-1 $195 $394 $197 $311 forward $189 $-1 #
convexity-sys-attrib $-1 $-1 $-1 $196 #
vertex $-1 $404 $405 #
straight-curve $-1 0 -43 25 1 0 0 I I #
edge $-1 $396 -50 $200 -43 $197 $406 forward 7 unknown #
point $-1 50.000000000000007 -43 25 #
point $-1 50.000000000000007 -50 18 #
loop $-1 $-1 $325 $203 #
plane-surface $-1 0 -50 0 0 1 0 0 0 1 forward_v I I I I #
coedge $-1 $211 $407 $206 $317 forward $204 $-1 #
edge $-1 $408 9.0156114601284614 $215 18.915106396740129 $316 $409 forward 7 unknown #
coedge $-1 $208 $207 $407 $410 reversed $78 $-1 #
edge $-1 $216 -46.66904755831213 $408 -36.76955262170047 $207 $411 forward 7 unknown #
coedge $-1 $412 $325 $208 $321 reversed $314 $-1 #
edge $-1 $413 -25 $323 -17.999999999999989 $208 $414 forward 7 unknown #
convexity-sys-attrib $-1 $-1 $-1 $209 #
vertex $-1 $209 $415 #
straight-curve $-1 50.000000000000007 0 17.999999999999993 0 -1 0 I I #
coedge $-1 $320 $412 $210 $326 reversed $314 $-1 #
edge $416 $323 -13.788582233137692 $329 -3.8890872965260144 $325 $417 forward 7 unknown #
coedge $-1 $407 $211 $412 $418 forward $204 $-1 #
convexity-sys-attrib $-1 $-1 $-1 $212 #
vertex $-1 $418 $419 #
straight-curve $-1 43 0 25 0 1 0 I I #
point $-1 43.000000000000014 50 25 #
point $-1 50.000000000000014 50 18.000000000000007 #
model_id-kcp-attrib $-1 $-1 $-1 $219 1 990549431 60 1933312001 8 #
face $420 $243 $238 $9 $-1 $421 reversed single #
loop $-1 $-1 $422 $219 #
plane-surface $-1 0 0 -25 0 0 1 1 0 0 forward_v I I I I #
coedge $-1 $423 $222 $346 $424 forward $131 $-1 #
coedge $-1 $222 $423 $352 $425 reversed $131 $-1 #
coedge $-1 $224 $223 $222 $340 forward $83 $-1 #
edge $426 $348 -50 $427 50 $222 $428 forward 7 unknown #
edge $429 $230 21.794972661908314 $348 33.919328314890457 $226 $430 forward 7 unknown #
edge $431 $427 -13.788582233137669 $234 -3.889087296526009 $232 $432 forward 7 unknown #
attrib_edge_convexity-kcp-attrib $-1 $433 $-1 $225 1 #
straight-curve $-1 43 0 25 0 -1 0 I I #
coedge $-1 $434 $227 $237 $356 forward $220 $-1 #
coedge $-1 $227 $434 $337 $424 reversed $220 $-1 #
attrib_edge_convexity-kcp-attrib $-1 $435 $-1 $228 1 #
vertex $-1 $228 $436 #
straight-curve $-1 0 -50 18 1 0 0 I I #
convexity-sys-attrib $-1 $-1 $229 $137 #
point $-1 43 -43 25 #
coedge $-1 $241 $232 $338 $425 forward $143 $-1 #
convexity-sys-attrib $-1 $-1 $233 $139 #
point $-1 43 50 25 #
coedge $-1 $237 $236 $437 $438 reversed $238 $-1 #
edge $439 $148 -18 $440 25 $237 $441 forward 7 unknown #
convexity-sys-attrib $-1 $-1 $239 $141 #
coedge $-1 $422 $437 $241 $359 forward $335 $-1 #
edge $-1 $360 -50 $442 50 $241 $443 forward 7 unknown #
vertex $-1 $359 $444 #
straight-curve $-1 -50 50 0 0 0 -1 I I #
model_id-kcp-attrib $-1 $-1 $-1 $243 1 990549431 60 1933312001 10 #
plane-surface $-1 0 50 0 0 -1 0 0 0 -1 forward_v I I I I #
model_id-kcp-attrib $-1 $-1 $-1 $249 1 990549431 60 1933312002 3 #
plane-surface $-1 50.000000000000007 0 0 -1 0 0 0 0 1 forward_v I I I I #
coedge $-1 $254 $252 $256 $370 reversed $155 $-1 #
edge $-1 $267 -25 $372 25 $266 $445 forward 7 unknown #
vertex $-1 $370 $446 #
straight-curve $-1 -50.000000000000007 -50 0 0 0 -1 I I #
edge $-1 $368 -50 $372 50 $366 $447 forward 7 unknown #
straight-curve $-1 0 -50 -25 -1 0 0 I I #
vertex $-1 $259 $448 #
straight-curve $-1 0 50 -25 1 0 0 I I #
point $-1 50.000000000000007 50 -25 #
point $-1 50.000000000000007 -50 -25 #
straight-curve $-1 -50.000000000000007 0 25 0 -1 0 I I #
point $-1 -50.000000000000007 50 25 #
point $-1 -50.000000000000007 -50 25 #
straight-curve $-1 50.000000000000007 -50 0 0 0 -1 I I #
straight-curve $-1 50.000000000000007 50 0 0 0 -1 I I #
coedge $-1 $278 $281 $287 $391 forward $174 $-1 #
vertex $-1 $385 $449 #
straight-curve $-1 -59 34.000000000000021 25 -0.70710678118654779 -0.70710678118654735 0 I I #
coedge $-1 $288 $287 $280 $385 reversed $276 $-1 #
edge $-1 $382 -43 $386 50 $384 $450 forward 7 unknown #
vertex $-1 $385 $451 #
straight-curve $-1 0 -50 25 1 0 0 I I #
point $-1 -43 -50 25 #
convexity-sys-attrib $-1 $-1 $-1 $286 #
straight-curve $-1 -40.25 -50 27.750000000000004 -0.70710678118654757 0 -0.70710678118654757 I I #
edge $-1 $386 -25 $290 -17.999999999999989 $287 $452 forward 7 unknown #
point $-1 -50.000000000000007 -50 17.999999999999989 #
straight-curve $-1 -50.000000000000007 17.000000000000014 51.000000000000007 0 0.70710678118654746 -0.70710678118654757 I I #
coedge $-1 $307 $306 $297 $395 forward $189 $-1 #
edge $-1 $399 -50.000000000000007 $396 50.000000000000007 $297 $453 forward 7 unknown #
vertex $-1 $311 $454 #
straight-curve $-1 50.000000000000007 -50 0 0 0 -1 I I #
coedge $-1 $304 $299 $306 $404 reversed $295 $-1 #
vertex $-1 $404 $455 #
straight-curve $-1 -50.000000000000007 -50 0 0 0 -1 I I #
point $-1 -50.000000000000007 -50 18 #
convexity-sys-attrib $-1 $-1 $-1 $305 #
straight-curve $-1 -50 -40.25 27.750000000000004 0 0.70710678118654757 0.70710678118654757 I I #
edge $-1 $309 43 $399 50 $398 $456 forward 7 unknown #
point $-1 -50.000000000000007 -43 25 #
straight-curve $-1 50.000000000000007 0 25 0 1 0 I I #
coedge $-1 $316 $327 $318 $410 forward $204 $-1 #
vertex $-1 $319 $457 #
straight-curve $-1 56.375000000000007 36.625000000000021 25.000000000000007 -0.70710678118654779 0.70710678118654735 0 I I #
edge $-1 $413 -50 $408 43 $318 $458 forward 7 unknown #
straight-curve $-1 50.000000000000007 17.000000000000018 51.000000000000014 0 -0.70710678118654746 0.70710678118654757 I I #
coedge $-1 $325 $320 $327 $418 reversed $314 $-1 #
vertex $-1 $410 $459 #
straight-curve $-1 50.000000000000007 -50 0 0 0 -1 I I #
point $-1 50.000000000000007 -50 17.999999999999989 #
convexity-sys-attrib $-1 $-1 $-1 $326 #
straight-curve $-1 40.25 -50 27.750000000000004 -0.70710678118654757 0 0.70710678118654757 I I #
edge $-1 $329 43 $413 50.000000000000007 $412 $460 forward 7 unknown #
point $-1 43 -50 25 #
model_id-kcp-attrib $-1 $-1 $-1 $334 1 990549431 60 1933312001 9 #
plane-surface $-1 -50 0 0 1 0 0 0 0 -1 forward_v I I I I #
coedge $-1 $461 $358 $423 $462 forward $335 $-1 #
coedge $-1 $338 $337 $422 $462 reversed $131 $-1 #
edge $463 $348 -18 $464 25 $337 $465 forward 7 unknown #
edge $466 $427 -18 $442 25 $338 $467 forward 7 unknown #
attrib_edge_convexity-kcp-attrib $-1 $468 $-1 $340 1 #
vertex $-1 $340 $469 #
straight-curve $-1 50 0 18 0 1 0 I I #
attrib_edge_convexity-kcp-attrib $-1 $470 $-1 $341 1 #
straight-curve $-1 30.4166666666667 -30.4166666666667 37.5833333333333 0.57735026918962595 -0.57735026918962595 -0.57735026918962595 I I #
attrib_edge_convexity-kcp-attrib $-1 $471 $-1 $342 1 #
straight-curve $-1 40.25 50 27.75 -0.70710678118654802 0 0.70710678118654802 I I #
convexity-sys-attrib $-1 $-1 $343 $225 #
coedge $-1 $346 $345 $461 $472 reversed $220 $-1 #
convexity-sys-attrib $-1 $-1 $347 $228 #
point $-1 50 -50 18 #
coedge $-1 $358 $461 $355 $438 forward $335 $-1 #
edge $-1 $440 -50 $360 50 $355 $473 forward 7 unknown #
attrib_edge_convexity-kcp-attrib $-1 $474 $-1 $356 1 #
vertex $-1 $438 $475 #
straight-curve $-1 -50 -50 0 0 0 -1 I I #
vertex $-1 $462 $476 #
straight-curve $-1 0 50 -25 1 0 0 I I #
point $-1 -50 50 -25 #
straight-curve $-1 -50.000000000000007 50 0 0 0 -1 I I #
point $-1 -50.000000000000007 -50 -25 #
straight-curve $-1 -50.000000000000007 0 -25 0 1 0 I I #
point $-1 -50.000000000000007 50 -25 #
point $-1 -50.000000000000007 43 25 #
straight-curve $-1 -50.000000000000007 0 25 0 -1 0 I I #
point $-1 -50.000000000000007 -50 25 #
straight-curve $-1 -50.000000000000007 -50 0 0 0 -1 I I #
straight-curve $-1 0 -50 25 1 0 0 I I #
point $-1 50.000000000000007 -50 25 #
point $-1 -50.000000000000007 -50 25 #
straight-curve $-1 -50.000000000000007 0 25 0 -1 0 I I #
point $-1 50.000000000000014 43 25 #
straight-curve $-1 50.000000000000007 0 25 0 1 0 I I #
point $-1 50.000000000000007 -50 25 #
straight-curve $-1 0 -50 25 1 0 0 I I #
coedge $-1 $437 $422 $434 $472 forward $335 $-1 #
edge $477 $442 -50 $464 50 $423 $478 forward 7 unknown #
attrib_edge_convexity-kcp-attrib $-1 $479 $-1 $424 1 #
vertex $-1 $424 $480 #
straight-curve $-1 50 -50 0 0 0 -1 I I #
attrib_edge_convexity-kcp-attrib $-1 $481 $-1 $425 1 #
straight-curve $-1 50 50 0 0 0 -1 I I #
convexity-sys-attrib $-1 $-1 $426 $340 #
point $-1 50 50 18 #
convexity-sys-attrib $-1 $-1 $429 $341 #
convexity-sys-attrib $-1 $-1 $431 $342 #
edge $482 $464 -50 $440 50 $434 $483 forward 7 unknown #
straight-curve $-1 -50 0 -25 0 1 0 I I #
convexity-sys-attrib $-1 $-1 $439 $356 #
point $-1 -50 -50 -25 #
point $-1 50 50 -25 #
attrib_edge_convexity-kcp-attrib $-1 $484 $-1 $462 1 #
straight-curve $-1 50 0 -25 0 -1 0 I I #
convexity-sys-attrib $-1 $-1 $463 $424 #
point $-1 50 -50 -25 #
convexity-sys-attrib $-1 $-1 $466 $425 #
attrib_edge_convexity-kcp-attrib $-1 $485 $-1 $472 1 #
straight-curve $-1 0 -50 -25 -1 0 0 I I #
convexity-sys-attrib $-1 $-1 $477 $462 #
convexity-sys-attrib $-1 $-1 $482 $472 #
End-of-ACIS-data 