600 0 1 0           
81 GICL ACIS Healer - Source: /gicl/data5/repository/UMD/chamfer1/chamfer1.sat - 6 0 18 ACIS 6.0.3 Solaris 24 Sun Apr 14 00:35:34 2002 
1 9.999999999999999547e-07 1.000000000000000036e-10 
body $-1 $1 $-1 $-1 #
lump $-1 $-1 $2 $0 #
shell $-1 $-1 $-1 $3 $-1 $1 #
face $-1 $4 $5 $2 $-1 $6 forward single #
face $-1 $7 $8 $2 $-1 $9 forward single #
loop $-1 $-1 $10 $3 #
plane-surface $-1 -46.5 3.5 21.5 -0.7071067811865475727 0 0.7071067811865475727 0.7071067811865480168 -0 0.7071067811865480168 forward_v I I I I #
face $-1 $11 $12 $2 $-1 $13 forward single #
loop $-1 $-1 $14 $4 #
plane-surface $-1 0 0 25 0 0 1 1 0 0 forward_v I I I I #
coedge $-1 $15 $16 $14 $17 forward $5 $-1 #
face $-1 $18 $19 $2 $-1 $20 forward single #
loop $-1 $-1 $21 $7 #
plane-surface $-1 0 -46.5 21.5 0 -0.7071067811865475727 0.7071067811865475727 1 0 -0 forward_v I I I I #
coedge $-1 $22 $23 $10 $17 reversed $8 $-1 #
coedge $-1 $24 $10 $25 $26 forward $5 $-1 #
coedge $-1 $10 $24 $21 $27 forward $5 $-1 #
edge $-1 $28 -43 $29 50 $14 $30 forward 7 unknown #
face $-1 $31 $32 $2 $-1 $33 reversed single #
loop $-1 $-1 $34 $11 #
plane-surface $-1 46.5 3.5 21.5 0.7071067811865475727 -0 0.7071067811865475727 0.7071067811865480168 0 -0.7071067811865480168 forward_v I I I I #
coedge $-1 $35 $36 $16 $27 reversed $12 $-1 #
coedge $-1 $37 $14 $36 $38 reversed $8 $-1 #
coedge $-1 $14 $37 $39 $40 forward $8 $-1 #
coedge $-1 $16 $15 $41 $42 forward $5 $-1 #
coedge $-1 $39 $43 $15 $26 reversed $44 $-1 #
edge $-1 $29 3.889087296526009041 $45 13.78858223313766906 $25 $46 forward 7 unknown #
edge $-1 $47 -33.91932831489045697 $28 -21.79497266190831439 $21 $48 forward 7 unknown #
vertex $-1 $38 $49 #
vertex $-1 $40 $50 #
straight-curve $-1 -43 0 25 0 1 0 I I #
face $-1 $51 $52 $2 $-1 $53 reversed single #
loop $-1 $-1 $54 $18 #
plane-surface $-1 50 0 0 -1 0 0 0 -0 1 forward_v I I I I #
coedge $-1 $55 $56 $37 $57 forward $19 $-1 #
coedge $-1 $58 $21 $59 $60 forward $12 $-1 #
coedge $-1 $21 $58 $22 $38 forward $12 $-1 #
coedge $-1 $23 $22 $34 $57 reversed $8 $-1 #
edge $-1 $61 -43 $28 43 $22 $62 forward 7 unknown #
coedge $-1 $63 $25 $23 $40 reversed $44 $-1 #
edge $-1 $64 -43 $29 43 $39 $65 forward 7 unknown #
coedge $-1 $66 $67 $24 $42 reversed $68 $-1 #
edge $-1 $45 -50 $47 50 $41 $69 forward 7 unknown #
coedge $-1 $25 $70 $66 $71 reversed $44 $-1 #
loop $-1 $-1 $25 $72 #
vertex $-1 $42 $73 #
straight-curve $-1 -40.25 50 27.75 -0.7071067811865480168 -0 -0.7071067811865480168 I I #
vertex $-1 $60 $74 #
straight-curve $-1 -30.41666666666669983 -30.41666666666669983 37.58333333333330017 0.5773502691896259531 0.5773502691896259531 0.5773502691896259531 I I #
point $-1 -43 -43 25 #
point $-1 -43 50 25 #
face $-1 $75 $76 $2 $-1 $77 reversed single #
loop $-1 $-1 $59 $31 #
plane-surface $-1 0 -50 0 0 1 -0 -0 0 1 forward_v I I I I #
coedge $-1 $78 $79 $80 $81 reversed $32 $-1 #
coedge $-1 $80 $34 $58 $82 forward $19 $-1 #
coedge $-1 $34 $80 $63 $83 forward $19 $-1 #
edge $-1 $64 -50 $61 43 $37 $84 forward 7 unknown #
coedge $-1 $36 $35 $55 $82 reversed $12 $-1 #
coedge $-1 $85 $86 $35 $60 reversed $52 $-1 #
edge $-1 $47 -50 $87 50 $59 $88 forward 7 unknown #
vertex $-1 $82 $89 #
straight-curve $-1 0 -43 25 -1 -0 -0 I I #
coedge $-1 $90 $39 $56 $83 reversed $44 $-1 #
vertex $-1 $57 $91 #
straight-curve $-1 0 50 25 -1 0 0 I I #
coedge $-1 $92 $41 $43 $71 forward $68 $-1 #
coedge $-1 $41 $92 $85 $93 reversed $68 $-1 #
loop $-1 $-1 $41 $75 #
straight-curve $-1 -50 0 18 0 -1 0 I I #
coedge $-1 $43 $90 $94 $95 reversed $44 $-1 #
edge $-1 $45 -18 $96 25 $43 $97 forward 7 unknown #
face $-1 $-1 $44 $2 $-1 $98 reversed single #
point $-1 -50 50 18 #
point $-1 -50 -50 18 #
face $-1 $72 $68 $2 $-1 $99 reversed single #
loop $-1 $-1 $100 $51 #
plane-surface $-1 0 0 -25 0 0 1 1 0 0 forward_v I I I I #
coedge $-1 $101 $54 $86 $102 forward $32 $-1 #
coedge $-1 $54 $101 $90 $103 reversed $32 $-1 #
coedge $-1 $56 $55 $54 $81 forward $19 $-1 #
edge $-1 $87 -50 $104 50 $54 $105 forward 7 unknown #
edge $-1 $61 21.79497266190831439 $87 33.91932831489045697 $58 $106 forward 7 unknown #
edge $-1 $104 -13.78858223313766906 $64 -3.889087296526009041 $63 $107 forward 7 unknown #
straight-curve $-1 43 0 25 -0 -1 -0 I I #
coedge $-1 $108 $59 $67 $93 forward $52 $-1 #
coedge $-1 $59 $108 $78 $102 reversed $52 $-1 #
vertex $-1 $60 $109 #
straight-curve $-1 0 -50 18 1 0 0 I I #
point $-1 43 -43 25 #
coedge $-1 $70 $63 $79 $103 forward $44 $-1 #
point $-1 43 50 25 #
coedge $-1 $67 $66 $110 $111 reversed $68 $-1 #
edge $-1 $47 -18 $112 25 $67 $113 forward 7 unknown #
coedge $-1 $100 $110 $70 $95 forward $76 $-1 #
edge $-1 $96 -50 $114 50 $70 $115 forward 7 unknown #
vertex $-1 $95 $116 #
straight-curve $-1 -50 50 0 0 0 -1 I I #
plane-surface $-1 0 50 0 0 -1 0 0 0 -1 forward_v I I I I #
plane-surface $-1 -50 0 0 1 0 0 0 0 -1 forward_v I I I I #
coedge $-1 $117 $94 $101 $118 forward $76 $-1 #
coedge $-1 $79 $78 $100 $118 reversed $32 $-1 #
edge $-1 $87 -18 $119 25 $78 $120 forward 7 unknown #
edge $-1 $104 -18 $114 25 $79 $121 forward 7 unknown #
vertex $-1 $81 $122 #
straight-curve $-1 50 0 18 0 1 0 I I #
straight-curve $-1 30.41666666666669983 -30.41666666666669983 37.58333333333330017 0.5773502691896259531 -0.5773502691896259531 -0.5773502691896259531 I I #
straight-curve $-1 40.25 50 27.75 -0.7071067811865480168 0 0.7071067811865480168 I I #
coedge $-1 $86 $85 $117 $123 reversed $52 $-1 #
point $-1 50 -50 18 #
coedge $-1 $94 $117 $92 $111 forward $76 $-1 #
edge $-1 $112 -50 $96 50 $92 $124 forward 7 unknown #
vertex $-1 $111 $125 #
straight-curve $-1 -50 -50 0 0 0 -1 I I #
vertex $-1 $118 $126 #
straight-curve $-1 0 50 -25 1 0 0 I I #
point $-1 -50 50 -25 #
coedge $-1 $110 $100 $108 $123 forward $76 $-1 #
edge $-1 $114 -50 $119 50 $101 $127 forward 7 unknown #
vertex $-1 $102 $128 #
straight-curve $-1 50 -50 0 0 0 -1 I I #
straight-curve $-1 50 50 0 0 0 -1 I I #
point $-1 50 50 18 #
edge $-1 $119 -50 $112 50 $108 $129 forward 7 unknown #
straight-curve $-1 -50 0 -25 0 1 0 I I #
point $-1 -50 -50 -25 #
point $-1 50 50 -25 #
straight-curve $-1 50 0 -25 0 -1 0 I I #
point $-1 50 -50 -25 #
straight-curve $-1 0 -50 -25 -1 0 0 I I #
End-of-ACIS-data 