105 130 1 0                             
body $-1 $1 $-1 $-1 #
lump $-1 $-1 $2 $0 #
shell $-1 $-1 $-1 $3 $1 #
face $-1 $4 $5 $2 $-1 $6 forward single #
face $-1 $7 $8 $2 $-1 $9 forward single #
loop $-1 $-1 $10 $3 #
plane-surface $-1 -46.5 3.5 21.5 -0.707106781186548 0 0.707106781186548 0.707106781186548 -0 0.707106781186548 0 #
face $-1 $11 $12 $2 $-1 $13 forward single #
loop $-1 $-1 $14 $4 #
plane-surface $-1 0 0 25 0 0 1 1 0 0 0 #
coedge $-1 $15 $16 $14 $17 0 $5 $-1 #
face $-1 $18 $19 $2 $-1 $20 forward single #
loop $-1 $-1 $21 $7 #
plane-surface $-1 0 -46.5 21.5 0 -0.707106781186548 0.707106781186548 1 0 -0 0 #
coedge $-1 $22 $23 $10 $17 1 $8 $-1 #
coedge $-1 $24 $10 $25 $26 0 $5 $-1 #
coedge $-1 $10 $24 $21 $27 0 $5 $-1 #
edge $-1 $28 $29 $14 $30 0 #
face $-1 $31 $32 $2 $-1 $33 reversed single #
loop $-1 $-1 $34 $11 #
plane-surface $-1 46.5 3.5 21.5 0.707106781186548 -0 0.707106781186548 0.707106781186548 0 -0.707106781186548 0 #
coedge $-1 $35 $36 $16 $27 1 $12 $-1 #
coedge $-1 $37 $14 $36 $38 1 $8 $-1 #
coedge $-1 $14 $37 $39 $40 0 $8 $-1 #
coedge $-1 $16 $15 $41 $42 0 $5 $-1 #
coedge $-1 $39 $43 $15 $26 1 $44 $-1 #
edge $-1 $29 $45 $25 $46 0 #
edge $-1 $47 $28 $21 $48 0 #
vertex $-1 $38 $49 #
vertex $-1 $40 $50 #
straight-curve $-1 -43 0 25 0 1 0 #
face $-1 $51 $52 $2 $-1 $53 reversed single #
loop $-1 $-1 $54 $18 #
plane-surface $-1 50 0 0 -1 0 0 0 -0 1 0 #
coedge $-1 $55 $56 $37 $57 0 $19 $-1 #
coedge $-1 $58 $21 $59 $60 0 $12 $-1 #
coedge $-1 $21 $58 $22 $38 0 $12 $-1 #
coedge $-1 $23 $22 $34 $57 1 $8 $-1 #
edge $-1 $61 $28 $22 $62 0 #
coedge $-1 $63 $25 $23 $40 1 $44 $-1 #
edge $-1 $64 $29 $39 $65 0 #
coedge $-1 $66 $67 $24 $42 1 $68 $-1 #
edge $-1 $45 $47 $41 $69 0 #
coedge $-1 $25 $70 $66 $71 1 $44 $-1 #
loop $-1 $-1 $25 $72 #
vertex $-1 $42 $73 #
straight-curve $-1 -40.25 50 27.75 -0.707106781186548 -0 -0.707106781186548 #
vertex $-1 $60 $74 #
straight-curve $-1 -30.4166666666667 -30.4166666666667 37.5833333333333 0.577350269189626 0.577350269189626 0.577350269189626 #
point $-1 -43 -43 25 #
point $-1 -43 50 25 #
face $-1 $75 $76 $2 $-1 $77 reversed single #
loop $-1 $-1 $59 $31 #
plane-surface $-1 0 -50 0 0 1 -0 -0 0 1 0 #
coedge $-1 $78 $79 $80 $81 1 $32 $-1 #
coedge $-1 $80 $34 $58 $82 0 $19 $-1 #
coedge $-1 $34 $80 $63 $83 0 $19 $-1 #
edge $-1 $64 $61 $37 $84 0 #
coedge $-1 $36 $35 $55 $82 1 $12 $-1 #
coedge $-1 $85 $86 $35 $60 1 $52 $-1 #
edge $-1 $47 $87 $59 $88 0 #
vertex $-1 $82 $89 #
straight-curve $-1 0 -43 25 -1 -0 -0 #
coedge $-1 $90 $39 $56 $83 1 $44 $-1 #
vertex $-1 $57 $91 #
straight-curve $-1 0 50 25 -1 0 0 #
coedge $-1 $92 $41 $43 $71 0 $68 $-1 #
coedge $-1 $41 $92 $85 $93 1 $68 $-1 #
loop $-1 $-1 $41 $75 #
straight-curve $-1 -50 0 18 0 -1 0 #
coedge $-1 $43 $90 $94 $95 1 $44 $-1 #
edge $-1 $45 $96 $43 $97 0 #
face $-1 $-1 $44 $2 $-1 $98 reversed single #
point $-1 -50 50 18 #
point $-1 -50 -50 18 #
face $-1 $72 $68 $2 $-1 $99 reversed single #
loop $-1 $-1 $100 $51 #
plane-surface $-1 0 0 -25 0 0 1 1 0 0 0 #
coedge $-1 $101 $54 $86 $102 0 $32 $-1 #
coedge $-1 $54 $101 $90 $103 1 $32 $-1 #
coedge $-1 $56 $55 $54 $81 0 $19 $-1 #
edge $-1 $87 $104 $54 $105 0 #
edge $-1 $61 $87 $58 $106 0 #
edge $-1 $104 $64 $63 $107 0 #
straight-curve $-1 43 0 25 -0 -1 -0 #
coedge $-1 $108 $59 $67 $93 0 $52 $-1 #
coedge $-1 $59 $108 $78 $102 1 $52 $-1 #
vertex $-1 $60 $109 #
straight-curve $-1 0 -50 18 1 0 0 #
point $-1 43 -43 25 #
coedge $-1 $70 $63 $79 $103 0 $44 $-1 #
point $-1 43 50 25 #
coedge $-1 $67 $66 $110 $111 1 $68 $-1 #
edge $-1 $47 $112 $67 $113 0 #
coedge $-1 $100 $110 $70 $95 0 $76 $-1 #
edge $-1 $96 $114 $70 $115 0 #
vertex $-1 $95 $116 #
straight-curve $-1 -50 50 0 0 0 -1 #
plane-surface $-1 0 50 0 0 -1 0 0 0 -1 0 #
plane-surface $-1 -50 0 0 1 0 0 0 0 -1 0 #
coedge $-1 $117 $94 $101 $118 0 $76 $-1 #
coedge $-1 $79 $78 $100 $118 1 $32 $-1 #
edge $-1 $87 $119 $78 $120 0 #
edge $-1 $104 $114 $79 $121 0 #
vertex $-1 $81 $122 #
straight-curve $-1 50 0 18 0 1 0 #
straight-curve $-1 30.4166666666667 -30.4166666666667 37.5833333333333 0.577350269189626 -0.577350269189626 -0.577350269189626 #
straight-curve $-1 40.25 50 27.75 -0.707106781186548 0 0.707106781186548 #
coedge $-1 $86 $85 $117 $123 1 $52 $-1 #
point $-1 50 -50 18 #
coedge $-1 $94 $117 $92 $111 0 $76 $-1 #
edge $-1 $112 $96 $92 $124 0 #
vertex $-1 $111 $125 #
straight-curve $-1 -50 -50 0 0 0 -1 #
vertex $-1 $118 $126 #
straight-curve $-1 0 50 -25 1 0 0 #
point $-1 -50 50 -25 #
coedge $-1 $110 $100 $108 $123 0 $76 $-1 #
edge $-1 $114 $119 $101 $127 0 #
vertex $-1 $102 $128 #
straight-curve $-1 50 -50 0 0 0 -1 #
straight-curve $-1 50 50 0 0 0 -1 #
point $-1 50 50 18 #
edge $-1 $119 $112 $108 $129 0 #
straight-curve $-1 -50 0 -25 0 1 0 #
point $-1 -50 -50 -25 #
point $-1 50 50 -25 #
straight-curve $-1 50 0 -25 0 -1 0 #
point $-1 50 -50 -25 #
straight-curve $-1 0 -50 -25 -1 0 0 #
