600 0 2 0           
24 FBMach with ACIS - 6.0.3 13 ACIS 6.0.3 NT 24 Mon Apr 01 00:09:07 2002 
1 9.9999999999999995e-007 1e-010 
body $2 $3 $-1 $4 #
bdycol-kcp $-1 1 4 $5 $6 $7 $8 #
model_id-kcp-attrib $-1 $9 $-1 $0 1 1017637746 70 2034630657 1 #
lump $-1 $-1 $10 $0 #
transform $-1 1 0 0 0 1 0 0 0 1 1.4210854715202004e-014 -7.1054273576010019e-015 1.0658141036401503e-014 1 rotate no_reflect no_shear #
body $11 $12 $-1 $13 #
body $14 $15 $-1 $16 #
body $17 $18 $-1 $19 #
body $20 $21 $-1 $22 #
aggregate_advspl_attribute-aggregate_geombuild_base_attribute-aggregate_body_attribute-attrib_HH-attrib $-1 $23 $2 $0 F #
shell $-1 $-1 $-1 $24 $-1 $3 #
model_id-kcp-attrib $-1 $-1 $-1 $5 1 1017637746 70 2034630658 1 #
lump $-1 $-1 $25 $5 #
transform $-1 1 0 0 0 1 0 0 0 1 0 -3.5527136788005009e-015 0 1 no_rotate no_reflect no_shear #
rgb_color-st-attrib $-1 $26 $-1 $6 0.5 0.5 1 #
lump $-1 $-1 $27 $6 #
transform $-1 1 0 0 0 1 0 0 0 1 0 -3.5527136788005009e-015 0 1 no_rotate no_reflect no_shear #
rgb_color-st-attrib $-1 $28 $-1 $7 0.5 0.5 1 #
lump $-1 $-1 $29 $7 #
transform $-1 1 0 0 0 1 0 0 0 1 0 -3.5527136788005009e-015 0 1 no_rotate no_reflect no_shear #
rgb_color-st-attrib $-1 $30 $-1 $8 0.5 0.5 1 #
lump $-1 $-1 $31 $8 #
transform $-1 1 0 0 0 1 0 0 0 1 0 -3.5527136788005009e-015 0 1 no_rotate no_reflect no_shear #
aggregate_secndry_attribute-aggregate_geombuild_base_attribute-aggregate_body_attribute-attrib_HH-attrib $-1 $32 $9 $0 F #
face $33 $34 $35 $10 $-1 $36 forward single #
shell $-1 $-1 $-1 $37 $-1 $12 #
model_id-kcp-attrib $-1 $-1 $14 $6 1 1017637746 310 2033582083 1 #
shell $-1 $-1 $-1 $38 $-1 $15 #
model_id-kcp-attrib $-1 $-1 $17 $7 1 1017637746 330 2034892804 1 #
shell $-1 $-1 $-1 $39 $-1 $18 #
model_id-kcp-attrib $-1 $-1 $20 $8 1 1017637746 340 2035548165 1 #
shell $-1 $-1 $-1 $40 $-1 $21 #
aggregate_sharped_attribute-aggregate_geombuild_base_attribute-aggregate_body_attribute-attrib_HH-attrib $-1 $41 $23 $0 F #
model_id-kcp-attrib $-1 $42 $-1 $24 1 1017637746 70 2034630657 2 #
face $43 $44 $45 $10 $-1 $46 forward single #
loop $-1 $-1 $47 $24 #
plane-surface $-1 -46.5 3.5 21.5 -0.70710678118654757 0 0.70710678118654757 0.70710678118654802 0 0.70710678118654802 forward_v I I I I #
face $48 $49 $50 $25 $-1 $51 forward single #
face $-1 $52 $53 $27 $-1 $54 reversed single #
face $-1 $55 $56 $29 $-1 $57 reversed single #
face $-1 $58 $59 $31 $-1 $60 reversed single #
aggregate_reblend_attribute-aggregate_geombuild_base_attribute-aggregate_body_attribute-attrib_HH-attrib $-1 $61 $32 $0 F #
attrib_hh_face_geombuild-attrib_entity_geombuild-individual_entity_attribute-attrib_HH-attrib $-1 $-1 $33 $24 F #
model_id-kcp-attrib $-1 $62 $-1 $34 1 1017637746 70 2034630657 3 #
face $63 $64 $65 $10 $-1 $66 forward single #
loop $-1 $-1 $67 $34 #
plane-surface $-1 0 0 25 0 0 1 1 0 0 forward_v I I I I #
coedge $68 $69 $70 $67 $71 forward $35 $-1 #
model_id-kcp-attrib $-1 $-1 $-1 $37 1 1017637746 70 2034630658 2 #
face $72 $73 $74 $25 $-1 $75 reversed single #
loop $-1 $-1 $76 $37 #
plane-surface $-1 0 0 25 0 0 1 1 0 0 forward_v I I I I #
face $-1 $77 $78 $27 $-1 $79 forward single #
loop $-1 $-1 $80 $38 #
plane-surface $-1 -46.5 0 21.5 -0.70710678118654757 0 0.70710678118654757 0 -1 0 forward_v I I I I #
face $-1 $81 $82 $29 $-1 $83 reversed single #
loop $-1 $-1 $84 $39 #
plane-surface $-1 0 -46.5 21.5 0 -0.70710678118654757 0.70710678118654757 1 0 0 forward_v I I I I #
face $-1 $85 $86 $31 $-1 $87 reversed single #
loop $-1 $-1 $88 $40 #
plane-surface $-1 46.5 0 21.5 0.70710678118654757 0 0.70710678118654757 0 1 0 forward_v I I I I #
aggregate_isospline_attribute-aggregate_geombuild_base_attribute-aggregate_body_attribute-attrib_HH-attrib $-1 $89 $41 $0 F #
attrib_hh_face_geombuild-attrib_entity_geombuild-individual_entity_attribute-attrib_HH-attrib $-1 $-1 $43 $34 F #
model_id-kcp-attrib $-1 $90 $-1 $44 1 1017637746 70 2034630657 4 #
face $91 $92 $93 $10 $-1 $94 forward single #
loop $-1 $-1 $95 $44 #
plane-surface $-1 0 -46.5 21.5 0 -0.70710678118654757 0.70710678118654757 1 0 0 forward_v I I I I #
coedge $96 $97 $98 $47 $71 reversed $45 $-1 #
attrib_hh_coedge_geombuild-attrib_entity_geombuild-individual_entity_attribute-attrib_HH-attrib $-1 $-1 $-1 $47 F #
coedge $99 $100 $47 $101 $102 forward $35 $-1 #
coedge $103 $47 $100 $95 $104 forward $35 $-1 #
edge $105 $106 -43 $107 50 $67 $108 forward 7 unknown #
model_id-kcp-attrib $-1 $-1 $-1 $49 1 1017637746 70 2034630658 5 #
face $109 $110 $111 $25 $-1 $112 reversed single #
loop $-1 $-1 $113 $49 #
plane-surface $-1 0 0 -25 0 0 1 1 0 0 forward_v I I I I #
coedge $-1 $114 $115 $116 $117 forward $50 $-1 #
face $-1 $118 $119 $27 $-1 $120 forward single #
loop $-1 $-1 $121 $52 #
plane-surface $-1 0 0 25 0 0 1 1 0 0 forward_v I I I I #
coedge $-1 $122 $123 $124 $125 forward $53 $-1 #
face $-1 $126 $127 $29 $-1 $128 reversed single #
loop $-1 $-1 $129 $55 #
plane-surface $-1 0 -50 0 0 1 0 0 0 1 forward_v I I I I #
coedge $-1 $130 $131 $132 $133 forward $56 $-1 #
face $-1 $134 $135 $31 $-1 $136 forward single #
loop $-1 $-1 $137 $58 #
plane-surface $-1 50.000000000000007 0 0 -1 0 0 0 0 1 forward_v I I I I #
coedge $-1 $138 $139 $140 $141 forward $59 $-1 #
aggregate_analytic_solver_attribute-aggregate_geombuild_base_attribute-aggregate_body_attribute-attrib_HH-attrib $-1 $142 $61 $0 F #
attrib_hh_face_geombuild-attrib_entity_geombuild-individual_entity_attribute-attrib_HH-attrib $-1 $-1 $63 $44 F #
model_id-kcp-attrib $-1 $143 $-1 $64 1 1017637746 70 2034630657 5 #
face $144 $145 $146 $10 $-1 $147 reversed single #
loop $-1 $-1 $148 $64 #
plane-surface $-1 46.5 3.5 21.5 0.70710678118654757 0 0.70710678118654757 0.70710678118654802 0 -0.70710678118654802 forward_v I I I I #
coedge $149 $150 $151 $70 $104 reversed $65 $-1 #
attrib_hh_coedge_geombuild-attrib_entity_geombuild-individual_entity_attribute-attrib_HH-attrib $-1 $-1 $-1 $67 F #
coedge $152 $153 $67 $151 $154 reversed $45 $-1 #
coedge $155 $67 $153 $156 $157 forward $45 $-1 #
attrib_hh_coedge_geombuild-attrib_entity_geombuild-individual_entity_attribute-attrib_HH-attrib $-1 $-1 $-1 $69 F #
coedge $158 $70 $69 $159 $160 forward $35 $-1 #
coedge $161 $156 $162 $69 $102 reversed $163 $-1 #
edge $164 $107 3.889087296526009 $165 13.788582233137669 $101 $166 forward 7 unknown #
attrib_hh_coedge_geombuild-attrib_entity_geombuild-individual_entity_attribute-attrib_HH-attrib $-1 $-1 $-1 $70 F #
edge $167 $168 -33.919328314890457 $106 -21.794972661908314 $95 $169 forward 7 unknown #
attrib_edge_convexity-kcp-attrib $-1 $170 $-1 $71 1 #
vertex $171 $154 $172 #
vertex $173 $157 $174 #
straight-curve $-1 -43 0 25 0 1 0 I I #
model_id-kcp-attrib $-1 $-1 $-1 $73 1 1017637746 70 2034630658 4 #
face $175 $176 $177 $25 $-1 $178 reversed single #
loop $-1 $-1 $179 $73 #
plane-surface $-1 0 -50 0 0 1 0 0 0 1 forward_v I I I I #
coedge $-1 $180 $181 $182 $183 forward $74 $-1 #
coedge $-1 $184 $76 $185 $186 forward $50 $-1 #
coedge $-1 $76 $184 $187 $188 forward $50 $-1 #
coedge $-1 $189 $190 $76 $117 reversed $191 $-1 #
edge $-1 $192 -50 $193 50 $116 $194 forward 7 unknown #
face $-1 $195 $196 $27 $-1 $197 reversed single #
loop $-1 $-1 $198 $77 #
plane-surface $-1 -50.000000000000007 1.0658141036401503e-014 68 -0.57735026918962562 0.57735026918962595 0.57735026918962584 0 -0.70710678118654746 0.70710678118654757 forward_v I I I I #
coedge $-1 $199 $200 $122 $201 reversed $78 $-1 #
coedge $-1 $202 $80 $121 $201 forward $53 $-1 #
coedge $-1 $80 $202 $203 $204 forward $53 $-1 #
coedge $-1 $205 $198 $80 $125 reversed $119 $-1 #
edge $206 $207 -28.991378028648448 $208 -19.091883092036788 $124 $209 forward 7 unknown #
face $-1 $210 $211 $29 $-1 $212 forward single #
loop $-1 $-1 $132 $81 #
plane-surface $-1 50.000000000000007 0 0 -1 0 0 0 0 1 forward_v I I I I #
coedge $-1 $213 $214 $130 $215 reversed $82 $-1 #
coedge $-1 $216 $84 $129 $215 forward $56 $-1 #
coedge $-1 $84 $216 $217 $218 forward $56 $-1 #
coedge $-1 $219 $220 $84 $133 reversed $127 $-1 #
edge $221 $222 3.8890872965260144 $223 13.788582233137681 $132 $224 forward 7 unknown #
face $-1 $225 $226 $31 $-1 $227 forward single #
loop $-1 $-1 $228 $85 #
plane-surface $-1 43.000000000000014 3.5000000000000107 71.5 0.57735026918962562 0.57735026918962595 0.57735026918962584 0 0.70710678118654746 -0.70710678118654757 forward_v I I I I #
coedge $-1 $229 $230 $138 $231 reversed $86 $-1 #
coedge $-1 $232 $88 $137 $231 forward $59 $-1 #
coedge $-1 $88 $232 $233 $234 forward $59 $-1 #
coedge $-1 $228 $235 $88 $141 reversed $135 $-1 #
edge $236 $237 22.804193693266161 $238 32.703688629877817 $140 $239 forward 7 unknown #
aggregate_geombuild_attribute-aggregate_geombuild_base_attribute-aggregate_body_attribute-attrib_HH-attrib $-1 $240 $89 $0 #
attrib_hh_face_geombuild-attrib_entity_geombuild-individual_entity_attribute-attrib_HH-attrib $-1 $-1 $91 $64 F #
model_id-kcp-attrib $-1 $241 $-1 $92 1 1017637746 70 2034630657 6 #
face $242 $243 $244 $10 $-1 $245 reversed single #
loop $-1 $-1 $246 $92 #
plane-surface $-1 50 0 0 -1 0 0 0 0 1 forward_v I I I I #
coedge $247 $248 $249 $153 $250 forward $93 $-1 #
attrib_hh_coedge_geombuild-attrib_entity_geombuild-individual_entity_attribute-attrib_HH-attrib $-1 $-1 $-1 $95 F #
coedge $251 $252 $95 $253 $254 forward $65 $-1 #
coedge $255 $95 $252 $97 $154 forward $65 $-1 #
attrib_hh_coedge_geombuild-attrib_entity_geombuild-individual_entity_attribute-attrib_HH-attrib $-1 $-1 $-1 $97 F #
coedge $256 $98 $97 $148 $250 reversed $45 $-1 #
edge $257 $258 -43 $106 43 $97 $259 forward 7 unknown #
attrib_hh_coedge_geombuild-attrib_entity_geombuild-individual_entity_attribute-attrib_HH-attrib $-1 $-1 $-1 $98 F #
coedge $260 $261 $101 $98 $157 reversed $163 $-1 #
edge $262 $263 -43 $107 43 $156 $264 forward 7 unknown #
attrib_hh_coedge_geombuild-attrib_entity_geombuild-individual_entity_attribute-attrib_HH-attrib $-1 $-1 $-1 $100 F #
coedge $265 $266 $267 $100 $160 reversed $268 $-1 #
edge $269 $165 -50 $168 50 $159 $270 forward 7 unknown #
attrib_hh_coedge_geombuild-attrib_entity_geombuild-individual_entity_attribute-attrib_HH-attrib $-1 $-1 $-1 $101 F #
coedge $271 $101 $272 $266 $273 reversed $163 $-1 #
loop $-1 $-1 $101 $274 #
attrib_edge_convexity-kcp-attrib $-1 $275 $-1 $102 1 #
vertex $276 $160 $277 #
straight-curve $-1 -40.25 50 27.75 -0.70710678118654802 0 -0.70710678118654802 I I #
attrib_edge_convexity-kcp-attrib $-1 $278 $-1 $104 1 #
vertex $279 $254 $280 #
straight-curve $-1 -30.4166666666667 -30.4166666666667 37.5833333333333 0.57735026918962595 0.57735026918962595 0.57735026918962595 I I #
convexity-sys-attrib $-1 $281 $105 $71 #
attrib_hh_vertex_geombuild-attrib_entity_geombuild-individual_entity_attribute-attrib_HH-attrib $-1 $-1 $-1 $106 F #
point $-1 -43 -43 25 #
attrib_hh_vertex_geombuild-attrib_entity_geombuild-individual_entity_attribute-attrib_HH-attrib $-1 $-1 $-1 $107 F #
point $-1 -43 50 25 #
model_id-kcp-attrib $-1 $-1 $-1 $110 1 1017637746 70 2034630658 6 #
face $282 $283 $284 $25 $-1 $285 reversed single #
loop $-1 $-1 $286 $110 #
plane-surface $-1 -50.000000000000007 0 0 1 0 0 0 0 -1 forward_v I I I I #
coedge $-1 $287 $187 $288 $289 forward $111 $-1 #
coedge $-1 $290 $113 $287 $291 forward $74 $-1 #
coedge $-1 $113 $290 $292 $293 forward $74 $-1 #
coedge $-1 $190 $189 $113 $183 reversed $191 $-1 #
edge $-1 $294 -50 $295 50 $182 $296 forward 7 unknown #
coedge $-1 $115 $114 $297 $298 forward $50 $-1 #
coedge $-1 $299 $300 $114 $186 reversed $284 $-1 #
edge $-1 $193 -50.000000000000007 $301 50.000000000000007 $185 $302 forward 7 unknown #
coedge $-1 $179 $303 $115 $188 reversed $111 $-1 #
edge $-1 $304 -50.000000000000007 $192 50.000000000000007 $187 $305 forward 7 unknown #
coedge $-1 $182 $116 $303 $306 forward $191 $-1 #
coedge $-1 $116 $182 $299 $307 reversed $191 $-1 #
loop $-1 $-1 $189 $283 #
vertex $-1 $117 $308 #
vertex $-1 $117 $309 #
straight-curve $-1 50.000000000000007 0 25 0 1 0 I I #
face $-1 $-1 $310 $27 $-1 $311 reversed single #
loop $-1 $-1 $312 $118 #
plane-surface $-1 0 -50 0 0 1 0 0 0 1 forward_v I I I I #
coedge $-1 $124 $205 $199 $313 reversed $119 $-1 #
coedge $-1 $314 $121 $198 $313 forward $78 $-1 #
coedge $-1 $121 $314 $315 $316 forward $78 $-1 #
edge $317 $208 -50 $318 50 $121 $319 forward 7 unknown #
coedge $-1 $123 $122 $312 $320 forward $53 $-1 #
coedge $-1 $321 $322 $123 $204 reversed $310 $-1 #
edge $323 $324 -50 $207 50 $203 $325 forward 7 unknown #
coedge $-1 $198 $124 $322 $326 reversed $119 $-1 #
convexity-sys-attrib $-1 $-1 $-1 $125 #
vertex $-1 $204 $327 #
vertex $-1 $313 $328 #
straight-curve $-1 -29.500000000000004 50 38.5 0.70710678118654768 0 0.70710678118654746 I I #
face $-1 $-1 $329 $29 $-1 $330 reversed single #
loop $-1 $-1 $217 $126 #
plane-surface $-1 0 0 25 0 0 1 1 0 0 forward_v I I I I #
coedge $-1 $331 $129 $220 $332 reversed $82 $-1 #
coedge $-1 $129 $331 $333 $334 forward $82 $-1 #
edge $335 $223 -50.000000000000007 $336 50.000000000000007 $129 $337 forward 7 unknown #
coedge $-1 $131 $130 $338 $339 forward $56 $-1 #
coedge $-1 $340 $341 $131 $218 reversed $211 $-1 #
edge $342 $343 -50.000000000000007 $222 50.000000000000007 $217 $344 forward 7 unknown #
coedge $-1 $220 $132 $341 $345 reversed $127 $-1 #
coedge $-1 $132 $219 $213 $332 forward $127 $-1 #
convexity-sys-attrib $-1 $-1 $-1 $133 #
vertex $-1 $133 $346 #
vertex $-1 $133 $347 #
straight-curve $-1 50 -40.25 27.750000000000004 0 -0.70710678118654757 -0.70710678118654757 I I #
face $-1 $-1 $348 $31 $-1 $349 reversed single #
loop $-1 $-1 $233 $134 #
plane-surface $-1 0 0 25 0 0 1 1 0 0 forward_v I I I I #
coedge $-1 $235 $140 $350 $351 reversed $135 $-1 #
coedge $-1 $352 $137 $235 $353 forward $86 $-1 #
coedge $-1 $137 $352 $354 $355 forward $86 $-1 #
edge $356 $238 -50 $357 50 $137 $358 forward 7 unknown #
coedge $-1 $139 $138 $359 $360 forward $59 $-1 #
coedge $-1 $361 $350 $139 $234 reversed $226 $-1 #
edge $362 $363 -50 $237 50 $233 $364 forward 7 unknown #
coedge $-1 $140 $228 $229 $353 reversed $135 $-1 #
convexity-sys-attrib $-1 $-1 $-1 $141 #
vertex $-1 $234 $365 #
vertex $-1 $231 $366 #
straight-curve $-1 26.875000000000014 50 41.125 0.70710678118654768 0 -0.70710678118654746 I I #
aggregate_stitch_attribute-aggregate_stitch_base_attribute-aggregate_body_attribute-attrib_HH-attrib $-1 $367 $142 $0 F #
attrib_hh_face_geombuild-attrib_entity_geombuild-individual_entity_attribute-attrib_HH-attrib $-1 $-1 $144 $92 F #
model_id-kcp-attrib $-1 $368 $-1 $145 1 1017637746 70 2034630657 7 #
face $369 $370 $371 $10 $-1 $372 reversed single #
loop $-1 $-1 $253 $145 #
plane-surface $-1 0 -50 0 0 1 0 0 0 1 forward_v I I I I #
coedge $373 $374 $375 $376 $377 reversed $146 $-1 #
attrib_hh_coedge_geombuild-attrib_entity_geombuild-individual_entity_attribute-attrib_HH-attrib $-1 $-1 $-1 $148 F #
coedge $378 $376 $148 $252 $379 forward $93 $-1 #
coedge $380 $148 $376 $261 $381 forward $93 $-1 #
edge $382 $263 -50 $258 43 $153 $383 forward 7 unknown #
attrib_hh_coedge_geombuild-attrib_entity_geombuild-individual_entity_attribute-attrib_HH-attrib $-1 $-1 $-1 $150 F #
coedge $384 $151 $150 $248 $379 reversed $65 $-1 #
coedge $385 $386 $387 $150 $254 reversed $244 $-1 #
edge $388 $168 -50 $389 50 $253 $390 forward 7 unknown #
attrib_hh_coedge_geombuild-attrib_entity_geombuild-individual_entity_attribute-attrib_HH-attrib $-1 $-1 $-1 $151 F #
attrib_hh_coedge_geombuild-attrib_entity_geombuild-individual_entity_attribute-attrib_HH-attrib $-1 $-1 $-1 $153 F #
attrib_edge_convexity-kcp-attrib $-1 $391 $-1 $154 1 #
vertex $392 $379 $393 #
straight-curve $-1 0 -43 25 -1 0 0 I I #
attrib_hh_coedge_geombuild-attrib_entity_geombuild-individual_entity_attribute-attrib_HH-attrib $-1 $-1 $-1 $156 F #
coedge $394 $395 $156 $249 $381 reversed $163 $-1 #
attrib_edge_convexity-kcp-attrib $-1 $396 $-1 $157 1 #
vertex $397 $250 $398 #
straight-curve $-1 0 50 25 -1 0 0 I I #
attrib_hh_coedge_geombuild-attrib_entity_geombuild-individual_entity_attribute-attrib_HH-attrib $-1 $-1 $-1 $159 F #
coedge $399 $400 $159 $162 $273 forward $268 $-1 #
coedge $401 $159 $400 $386 $402 reversed $268 $-1 #
loop $-1 $-1 $159 $370 #
attrib_edge_convexity-kcp-attrib $-1 $403 $-1 $160 1 #
straight-curve $-1 -50 0 18 0 -1 0 I I #
attrib_hh_coedge_geombuild-attrib_entity_geombuild-individual_entity_attribute-attrib_HH-attrib $-1 $-1 $-1 $162 F #
coedge $404 $162 $395 $405 $406 reversed $163 $-1 #
edge $407 $165 -18 $408 25 $162 $409 forward 7 unknown #
face $410 $-1 $163 $10 $-1 $411 reversed single #
convexity-sys-attrib $-1 $412 $164 $102 #
attrib_hh_vertex_geombuild-attrib_entity_geombuild-individual_entity_attribute-attrib_HH-attrib $-1 $-1 $-1 $165 F #
point $-1 -50 50 18 #
convexity-sys-attrib $-1 $413 $167 $104 #
attrib_hh_vertex_geombuild-attrib_entity_geombuild-individual_entity_attribute-attrib_HH-attrib $-1 $-1 $-1 $168 F #
point $-1 -50 -50 18 #
attrib_hh_edge_geombuild-attrib_entity_geombuild-individual_entity_attribute-attrib_HH-attrib $-1 $-1 $170 $71 F #
model_id-kcp-attrib $-1 $-1 $-1 $176 1 1017637746 70 2034630658 7 #
face $414 $-1 $191 $25 $-1 $415 reversed single #
loop $-1 $-1 $299 $176 #
plane-surface $-1 0 50 0 0 -1 0 0 0 -1 forward_v I I I I #
coedge $-1 $416 $297 $300 $417 forward $177 $-1 #
coedge $-1 $303 $179 $180 $291 reversed $111 $-1 #
coedge $-1 $297 $416 $179 $289 reversed $177 $-1 #
edge $-1 $304 -25 $418 25 $288 $419 forward 7 unknown #
coedge $-1 $181 $180 $416 $420 forward $74 $-1 #
edge $-1 $295 -50.000000000000007 $418 50.000000000000007 $287 $421 forward 7 unknown #
coedge $-1 $300 $299 $181 $293 reversed $284 $-1 #
edge $-1 $422 -50.000000000000007 $294 50.000000000000007 $292 $423 forward 7 unknown #
vertex $-1 $183 $424 #
vertex $-1 $306 $425 #
straight-curve $-1 50.000000000000007 0 -25 0 -1 0 I I #
coedge $-1 $286 $288 $184 $298 reversed $177 $-1 #
edge $-1 $301 -50 $304 50 $297 $426 forward 7 unknown #
coedge $-1 $292 $185 $190 $307 forward $284 $-1 #
coedge $-1 $185 $292 $286 $417 reversed $284 $-1 #
vertex $-1 $186 $427 #
straight-curve $-1 0 50 25 -1 0 0 I I #
coedge $-1 $187 $287 $189 $306 reversed $111 $-1 #
vertex $-1 $298 $428 #
straight-curve $-1 0 -50 25 1 0 0 I I #
edge $-1 $192 -25 $295 25 $189 $429 forward 7 unknown #
edge $-1 $193 -25 $294 25 $190 $430 forward 7 unknown #
point $-1 50.000000000000007 -50 25 #
point $-1 50.000000000000007 50 25 #
loop $-1 $-1 $203 $195 #
plane-surface $-1 -50.000000000000007 0 0 1 0 0 0 0 -1 forward_v I I I I #
coedge $-1 $315 $431 $202 $320 reversed $196 $-1 #
edge $-1 $208 -22.627416997969505 $432 -12.727922061357836 $199 $433 forward 7 unknown #
coedge $-1 $200 $199 $434 $435 forward $78 $-1 #
coedge $-1 $431 $312 $200 $316 reversed $196 $-1 #
edge $-1 $436 -50.000000000000007 $318 -43 $315 $437 forward 7 unknown #
convexity-sys-attrib $-1 $-1 $-1 $201 #
vertex $-1 $201 $438 #
straight-curve $-1 -43 0 25 0 -1 0 I I #
edge $439 $318 3.8890872965260144 $324 13.788582233137692 $312 $440 forward 7 unknown #
coedge $-1 $434 $203 $431 $441 reversed $310 $-1 #
coedge $-1 $203 $434 $205 $326 forward $310 $-1 #
convexity-sys-attrib $-1 $-1 $-1 $204 #
vertex $-1 $204 $442 #
straight-curve $-1 -50.000000000000007 0 17.999999999999993 0 1 0 I I #
edge $-1 $432 36.76955262170047 $207 46.66904755831213 $322 $443 forward 7 unknown #
point $-1 -50.000000000000007 50 18.000000000000007 #
point $-1 -43.000000000000007 50 25 #
loop $-1 $-1 $338 $210 #
plane-surface $-1 -50.000000000000007 0 0 1 0 0 0 0 -1 forward_v I I I I #
coedge $-1 $214 $213 $444 $445 reversed $82 $-1 #
edge $-1 $446 -25 $223 -18 $220 $447 forward 7 unknown #
coedge $-1 $448 $338 $214 $334 reversed $329 $-1 #
edge $-1 $449 -25 $336 -18 $333 $450 forward 7 unknown #
convexity-sys-attrib $-1 $-1 $-1 $215 #
vertex $-1 $215 $451 #
straight-curve $-1 0 -50 18 -1 0 0 I I #
coedge $-1 $333 $448 $216 $339 reversed $329 $-1 #
edge $452 $336 -13.788582233137681 $343 -3.8890872965260144 $338 $453 forward 7 unknown #
coedge $-1 $444 $217 $448 $454 forward $211 $-1 #
coedge $-1 $217 $444 $219 $345 forward $211 $-1 #
convexity-sys-attrib $-1 $-1 $-1 $218 #
vertex $-1 $454 $455 #
straight-curve $-1 0 -43 25 1 0 0 I I #
edge $-1 $446 -50 $222 -43 $219 $456 forward 7 unknown #
point $-1 50.000000000000007 -43 25 #
point $-1 50.000000000000007 -50 18 #
loop $-1 $-1 $359 $225 #
plane-surface $-1 0 -50 0 0 1 0 0 0 1 forward_v I I I I #
coedge $-1 $233 $457 $228 $351 forward $226 $-1 #
edge $-1 $458 9.0156114601284614 $237 18.915106396740129 $350 $459 forward 7 unknown #
coedge $-1 $230 $229 $457 $460 reversed $86 $-1 #
edge $-1 $238 -46.66904755831213 $458 -36.76955262170047 $229 $461 forward 7 unknown #
coedge $-1 $462 $359 $230 $355 reversed $348 $-1 #
edge $-1 $463 -25 $357 -17.999999999999989 $230 $464 forward 7 unknown #
convexity-sys-attrib $-1 $-1 $-1 $231 #
vertex $-1 $231 $465 #
straight-curve $-1 50.000000000000007 0 17.999999999999993 0 -1 0 I I #
coedge $-1 $354 $462 $232 $360 reversed $348 $-1 #
edge $466 $357 -13.788582233137692 $363 -3.8890872965260144 $359 $467 forward 7 unknown #
coedge $-1 $457 $233 $462 $468 forward $226 $-1 #
convexity-sys-attrib $-1 $-1 $-1 $234 #
vertex $-1 $468 $469 #
straight-curve $-1 43 0 25 0 1 0 I I #
point $-1 43.000000000000014 50 25 #
point $-1 50.000000000000014 50 18.000000000000007 #
aggregate_simgeom_attribute-aggregate_simgeom_base_attribute-aggregate_body_attribute-attrib_HH-attrib $-1 $-1 $240 $0 F #
attrib_hh_face_geombuild-attrib_entity_geombuild-individual_entity_attribute-attrib_HH-attrib $-1 $-1 $242 $145 F #
model_id-kcp-attrib $-1 $470 $-1 $243 1 1017637746 70 2034630657 8 #
face $471 $274 $268 $10 $-1 $472 reversed single #
loop $-1 $-1 $473 $243 #
plane-surface $-1 0 0 -25 0 0 1 1 0 0 forward_v I I I I #
attrib_hh_coedge_geombuild-attrib_entity_geombuild-individual_entity_attribute-attrib_HH-attrib $-1 $-1 $-1 $246 F #
coedge $474 $475 $246 $387 $476 forward $146 $-1 #
coedge $477 $246 $475 $395 $478 reversed $146 $-1 #
coedge $479 $249 $248 $246 $377 forward $93 $-1 #
edge $480 $389 -50 $481 50 $246 $482 forward 7 unknown #
attrib_hh_coedge_geombuild-attrib_entity_geombuild-individual_entity_attribute-attrib_HH-attrib $-1 $-1 $-1 $248 F #
edge $483 $258 21.794972661908314 $389 33.919328314890457 $252 $484 forward 7 unknown #
attrib_hh_coedge_geombuild-attrib_entity_geombuild-individual_entity_attribute-attrib_HH-attrib $-1 $-1 $-1 $249 F #
edge $485 $481 -13.788582233137669 $263 -3.889087296526009 $261 $486 forward 7 unknown #
attrib_edge_convexity-kcp-attrib $-1 $487 $-1 $250 1 #
straight-curve $-1 43 0 25 0 -1 0 I I #
attrib_hh_coedge_geombuild-attrib_entity_geombuild-individual_entity_attribute-attrib_HH-attrib $-1 $-1 $-1 $252 F #
attrib_hh_coedge_geombuild-attrib_entity_geombuild-individual_entity_attribute-attrib_HH-attrib $-1 $-1 $-1 $253 F #
coedge $488 $489 $253 $267 $402 forward $244 $-1 #
coedge $490 $253 $489 $374 $476 reversed $244 $-1 #
attrib_edge_convexity-kcp-attrib $-1 $491 $-1 $254 1 #
vertex $492 $254 $493 #
straight-curve $-1 0 -50 18 1 0 0 I I #
convexity-sys-attrib $-1 $494 $257 $154 #
attrib_hh_vertex_geombuild-attrib_entity_geombuild-individual_entity_attribute-attrib_HH-attrib $-1 $-1 $-1 $258 F #
point $-1 43 -43 25 #
attrib_hh_coedge_geombuild-attrib_entity_geombuild-individual_entity_attribute-attrib_HH-attrib $-1 $-1 $-1 $261 F #
coedge $495 $272 $261 $375 $478 forward $163 $-1 #
convexity-sys-attrib $-1 $496 $262 $157 #
attrib_hh_vertex_geombuild-attrib_entity_geombuild-individual_entity_attribute-attrib_HH-attrib $-1 $-1 $-1 $263 F #
point $-1 43 50 25 #
attrib_hh_coedge_geombuild-attrib_entity_geombuild-individual_entity_attribute-attrib_HH-attrib $-1 $-1 $-1 $266 F #
coedge $497 $267 $266 $498 $499 reversed $268 $-1 #
attrib_hh_coedge_geombuild-attrib_entity_geombuild-individual_entity_attribute-attrib_HH-attrib $-1 $-1 $-1 $267 F #
edge $500 $168 -18 $501 25 $267 $502 forward 7 unknown #
convexity-sys-attrib $-1 $503 $269 $160 #
attrib_hh_coedge_geombuild-attrib_entity_geombuild-individual_entity_attribute-attrib_HH-attrib $-1 $-1 $-1 $272 F #
coedge $504 $473 $498 $272 $406 forward $371 $-1 #
edge $505 $408 -50 $506 50 $272 $507 forward 7 unknown #
attrib_hh_edge_geombuild-attrib_entity_geombuild-individual_entity_attribute-attrib_HH-attrib $-1 $-1 $-1 $273 F #
vertex $508 $406 $509 #
straight-curve $-1 -50 50 0 0 0 -1 I I #
model_id-kcp-attrib $-1 $510 $-1 $274 1 1017637746 70 2034630657 10 #
plane-surface $-1 0 50 0 0 -1 0 0 0 -1 forward_v I I I I #
attrib_hh_edge_geombuild-attrib_entity_geombuild-individual_entity_attribute-attrib_HH-attrib $-1 $-1 $275 $102 F #
attrib_hh_edge_geombuild-attrib_entity_geombuild-individual_entity_attribute-attrib_HH-attrib $-1 $-1 $278 $104 F #
model_id-kcp-attrib $-1 $-1 $-1 $283 1 1017637746 70 2034630658 3 #
plane-surface $-1 50.000000000000007 0 0 -1 0 0 0 0 1 forward_v I I I I #
coedge $-1 $288 $286 $290 $420 reversed $177 $-1 #
edge $-1 $301 -25 $422 25 $300 $511 forward 7 unknown #
vertex $-1 $420 $512 #
straight-curve $-1 -50.000000000000007 -50 0 0 0 -1 I I #
edge $-1 $418 -50 $422 50 $416 $513 forward 7 unknown #
straight-curve $-1 0 -50 -25 -1 0 0 I I #
vertex $-1 $293 $514 #
straight-curve $-1 0 50 -25 1 0 0 I I #
point $-1 50.000000000000007 50 -25 #
point $-1 50.000000000000007 -50 -25 #
straight-curve $-1 -50.000000000000007 0 25 0 -1 0 I I #
point $-1 -50.000000000000007 50 25 #
point $-1 -50.000000000000007 -50 25 #
straight-curve $-1 50.000000000000007 -50 0 0 0 -1 I I #
straight-curve $-1 50.000000000000007 50 0 0 0 -1 I I #
coedge $-1 $312 $315 $321 $441 forward $196 $-1 #
vertex $-1 $435 $515 #
straight-curve $-1 -59 34.000000000000021 25 -0.70710678118654779 -0.70710678118654735 0 I I #
coedge $-1 $322 $321 $314 $435 reversed $310 $-1 #
edge $-1 $432 -43 $436 50 $434 $516 forward 7 unknown #
vertex $-1 $435 $517 #
straight-curve $-1 0 -50 25 1 0 0 I I #
point $-1 -43 -50 25 #
convexity-sys-attrib $-1 $-1 $-1 $320 #
straight-curve $-1 -40.25 -50 27.750000000000004 -0.70710678118654757 0 -0.70710678118654757 I I #
edge $-1 $436 -25 $324 -17.999999999999989 $321 $518 forward 7 unknown #
point $-1 -50.000000000000007 -50 17.999999999999989 #
straight-curve $-1 -50.000000000000007 17.000000000000014 51.000000000000007 0 0.70710678118654746 -0.70710678118654757 I I #
coedge $-1 $341 $340 $331 $445 forward $211 $-1 #
edge $-1 $449 -50.000000000000007 $446 50.000000000000007 $331 $519 forward 7 unknown #
vertex $-1 $345 $520 #
straight-curve $-1 50.000000000000007 -50 0 0 0 -1 I I #
coedge $-1 $338 $333 $340 $454 reversed $329 $-1 #
vertex $-1 $454 $521 #
straight-curve $-1 -50.000000000000007 -50 0 0 0 -1 I I #
point $-1 -50.000000000000007 -50 18 #
convexity-sys-attrib $-1 $-1 $-1 $339 #
straight-curve $-1 -50 -40.25 27.750000000000004 0 0.70710678118654757 0.70710678118654757 I I #
edge $-1 $343 43 $449 50 $448 $522 forward 7 unknown #
point $-1 -50.000000000000007 -43 25 #
straight-curve $-1 50.000000000000007 0 25 0 1 0 I I #
coedge $-1 $350 $361 $352 $460 forward $226 $-1 #
vertex $-1 $353 $523 #
straight-curve $-1 56.375000000000007 36.625000000000021 25.000000000000007 -0.70710678118654779 0.70710678118654735 0 I I #
edge $-1 $463 -50 $458 43 $352 $524 forward 7 unknown #
straight-curve $-1 50.000000000000007 17.000000000000018 51.000000000000014 0 -0.70710678118654746 0.70710678118654757 I I #
coedge $-1 $359 $354 $361 $468 reversed $348 $-1 #
vertex $-1 $460 $525 #
straight-curve $-1 50.000000000000007 -50 0 0 0 -1 I I #
point $-1 50.000000000000007 -50 17.999999999999989 #
convexity-sys-attrib $-1 $-1 $-1 $360 #
straight-curve $-1 40.25 -50 27.750000000000004 -0.70710678118654757 0 0.70710678118654757 I I #
edge $-1 $363 43 $463 50.000000000000007 $462 $526 forward 7 unknown #
point $-1 43 -50 25 #
attrib_hh_face_geombuild-attrib_entity_geombuild-individual_entity_attribute-attrib_HH-attrib $-1 $-1 $369 $243 F #
model_id-kcp-attrib $-1 $527 $-1 $370 1 1017637746 70 2034630657 9 #
plane-surface $-1 -50 0 0 1 0 0 0 0 -1 forward_v I I I I #
coedge $528 $529 $405 $475 $530 forward $371 $-1 #
attrib_hh_coedge_geombuild-attrib_entity_geombuild-individual_entity_attribute-attrib_HH-attrib $-1 $-1 $-1 $374 F #
coedge $531 $375 $374 $473 $530 reversed $146 $-1 #
edge $532 $389 -18 $533 25 $374 $534 forward 7 unknown #
attrib_hh_coedge_geombuild-attrib_entity_geombuild-individual_entity_attribute-attrib_HH-attrib $-1 $-1 $-1 $375 F #
edge $535 $481 -18 $506 25 $375 $536 forward 7 unknown #
attrib_hh_coedge_geombuild-attrib_entity_geombuild-individual_entity_attribute-attrib_HH-attrib $-1 $-1 $-1 $376 F #
attrib_edge_convexity-kcp-attrib $-1 $537 $-1 $377 1 #
vertex $538 $377 $539 #
straight-curve $-1 50 0 18 0 1 0 I I #
attrib_edge_convexity-kcp-attrib $-1 $540 $-1 $379 1 #
straight-curve $-1 30.4166666666667 -30.4166666666667 37.5833333333333 0.57735026918962595 -0.57735026918962595 -0.57735026918962595 I I #
attrib_edge_convexity-kcp-attrib $-1 $541 $-1 $381 1 #
straight-curve $-1 40.25 50 27.75 -0.70710678118654802 0 0.70710678118654802 I I #
convexity-sys-attrib $-1 $542 $382 $250 #
attrib_hh_coedge_geombuild-attrib_entity_geombuild-individual_entity_attribute-attrib_HH-attrib $-1 $-1 $-1 $386 F #
coedge $543 $387 $386 $529 $544 reversed $244 $-1 #
attrib_hh_coedge_geombuild-attrib_entity_geombuild-individual_entity_attribute-attrib_HH-attrib $-1 $-1 $-1 $387 F #
convexity-sys-attrib $-1 $545 $388 $254 #
attrib_hh_vertex_geombuild-attrib_entity_geombuild-individual_entity_attribute-attrib_HH-attrib $-1 $-1 $-1 $389 F #
point $-1 50 -50 18 #
attrib_hh_edge_geombuild-attrib_entity_geombuild-individual_entity_attribute-attrib_HH-attrib $-1 $-1 $391 $154 F #
attrib_hh_coedge_geombuild-attrib_entity_geombuild-individual_entity_attribute-attrib_HH-attrib $-1 $-1 $-1 $395 F #
attrib_hh_edge_geombuild-attrib_entity_geombuild-individual_entity_attribute-attrib_HH-attrib $-1 $-1 $396 $157 F #
attrib_hh_coedge_geombuild-attrib_entity_geombuild-individual_entity_attribute-attrib_HH-attrib $-1 $-1 $-1 $400 F #
coedge $546 $405 $529 $400 $499 forward $371 $-1 #
edge $547 $501 -50 $408 50 $400 $548 forward 7 unknown #
attrib_edge_convexity-kcp-attrib $-1 $549 $-1 $402 1 #
vertex $550 $499 $551 #
straight-curve $-1 -50 -50 0 0 0 -1 I I #
attrib_hh_edge_geombuild-attrib_entity_geombuild-individual_entity_attribute-attrib_HH-attrib $-1 $-1 $403 $160 F #
attrib_hh_coedge_geombuild-attrib_entity_geombuild-individual_entity_attribute-attrib_HH-attrib $-1 $-1 $-1 $405 F #
attrib_hh_edge_geombuild-attrib_entity_geombuild-individual_entity_attribute-attrib_HH-attrib $-1 $-1 $-1 $406 F #
vertex $552 $530 $553 #
straight-curve $-1 0 50 -25 1 0 0 I I #
attrib_hh_vertex_geombuild-attrib_entity_geombuild-individual_entity_attribute-attrib_HH-attrib $-1 $-1 $-1 $408 F #
point $-1 -50 50 -25 #
attrib_hh_face_geombuild-attrib_entity_geombuild-individual_entity_attribute-attrib_HH-attrib $-1 $-1 $410 $274 F #
straight-curve $-1 -50.000000000000007 50 0 0 0 -1 I I #
point $-1 -50.000000000000007 -50 -25 #
straight-curve $-1 -50.000000000000007 0 -25 0 1 0 I I #
point $-1 -50.000000000000007 50 -25 #
point $-1 -50.000000000000007 43 25 #
straight-curve $-1 -50.000000000000007 0 25 0 -1 0 I I #
point $-1 -50.000000000000007 -50 25 #
straight-curve $-1 -50.000000000000007 -50 0 0 0 -1 I I #
straight-curve $-1 0 -50 25 1 0 0 I I #
point $-1 50.000000000000007 -50 25 #
point $-1 -50.000000000000007 -50 25 #
straight-curve $-1 -50.000000000000007 0 25 0 -1 0 I I #
point $-1 50.000000000000014 43 25 #
straight-curve $-1 50.000000000000007 0 25 0 1 0 I I #
point $-1 50.000000000000007 -50 25 #
straight-curve $-1 0 -50 25 1 0 0 I I #
attrib_hh_face_geombuild-attrib_entity_geombuild-individual_entity_attribute-attrib_HH-attrib $-1 $-1 $471 $370 F #
attrib_hh_coedge_geombuild-attrib_entity_geombuild-individual_entity_attribute-attrib_HH-attrib $-1 $-1 $-1 $473 F #
coedge $554 $498 $473 $489 $544 forward $371 $-1 #
edge $555 $506 -50 $533 50 $475 $556 forward 7 unknown #
attrib_hh_coedge_geombuild-attrib_entity_geombuild-individual_entity_attribute-attrib_HH-attrib $-1 $-1 $-1 $475 F #
attrib_edge_convexity-kcp-attrib $-1 $557 $-1 $476 1 #
vertex $558 $476 $559 #
straight-curve $-1 50 -50 0 0 0 -1 I I #
attrib_edge_convexity-kcp-attrib $-1 $560 $-1 $478 1 #
straight-curve $-1 50 50 0 0 0 -1 I I #
convexity-sys-attrib $-1 $561 $480 $377 #
attrib_hh_vertex_geombuild-attrib_entity_geombuild-individual_entity_attribute-attrib_HH-attrib $-1 $-1 $-1 $481 F #
point $-1 50 50 18 #
convexity-sys-attrib $-1 $562 $483 $379 #
convexity-sys-attrib $-1 $563 $485 $381 #
attrib_hh_edge_geombuild-attrib_entity_geombuild-individual_entity_attribute-attrib_HH-attrib $-1 $-1 $487 $250 F #
attrib_hh_coedge_geombuild-attrib_entity_geombuild-individual_entity_attribute-attrib_HH-attrib $-1 $-1 $-1 $489 F #
edge $564 $533 -50 $501 50 $489 $565 forward 7 unknown #
attrib_hh_edge_geombuild-attrib_entity_geombuild-individual_entity_attribute-attrib_HH-attrib $-1 $-1 $491 $254 F #
attrib_hh_coedge_geombuild-attrib_entity_geombuild-individual_entity_attribute-attrib_HH-attrib $-1 $-1 $-1 $498 F #
attrib_hh_edge_geombuild-attrib_entity_geombuild-individual_entity_attribute-attrib_HH-attrib $-1 $-1 $-1 $499 F #
straight-curve $-1 -50 0 -25 0 1 0 I I #
convexity-sys-attrib $-1 $566 $500 $402 #
attrib_hh_vertex_geombuild-attrib_entity_geombuild-individual_entity_attribute-attrib_HH-attrib $-1 $-1 $-1 $501 F #
point $-1 -50 -50 -25 #
attrib_hh_vertex_geombuild-attrib_entity_geombuild-individual_entity_attribute-attrib_HH-attrib $-1 $-1 $-1 $506 F #
point $-1 50 50 -25 #
attrib_hh_coedge_geombuild-attrib_entity_geombuild-individual_entity_attribute-attrib_HH-attrib $-1 $-1 $-1 $529 F #
attrib_edge_convexity-kcp-attrib $-1 $567 $-1 $530 1 #
straight-curve $-1 50 0 -25 0 -1 0 I I #
convexity-sys-attrib $-1 $568 $532 $476 #
attrib_hh_vertex_geombuild-attrib_entity_geombuild-individual_entity_attribute-attrib_HH-attrib $-1 $-1 $-1 $533 F #
point $-1 50 -50 -25 #
convexity-sys-attrib $-1 $569 $535 $478 #
attrib_hh_edge_geombuild-attrib_entity_geombuild-individual_entity_attribute-attrib_HH-attrib $-1 $-1 $537 $377 F #
attrib_hh_edge_geombuild-attrib_entity_geombuild-individual_entity_attribute-attrib_HH-attrib $-1 $-1 $540 $379 F #
attrib_hh_edge_geombuild-attrib_entity_geombuild-individual_entity_attribute-attrib_HH-attrib $-1 $-1 $541 $381 F #
attrib_edge_convexity-kcp-attrib $-1 $570 $-1 $544 1 #
straight-curve $-1 0 -50 -25 -1 0 0 I I #
attrib_hh_edge_geombuild-attrib_entity_geombuild-individual_entity_attribute-attrib_HH-attrib $-1 $-1 $549 $402 F #
convexity-sys-attrib $-1 $571 $555 $530 #
attrib_hh_edge_geombuild-attrib_entity_geombuild-individual_entity_attribute-attrib_HH-attrib $-1 $-1 $557 $476 F #
attrib_hh_edge_geombuild-attrib_entity_geombuild-individual_entity_attribute-attrib_HH-attrib $-1 $-1 $560 $478 F #
convexity-sys-attrib $-1 $572 $564 $544 #
attrib_hh_edge_geombuild-attrib_entity_geombuild-individual_entity_attribute-attrib_HH-attrib $-1 $-1 $567 $530 F #
attrib_hh_edge_geombuild-attrib_entity_geombuild-individual_entity_attribute-attrib_HH-attrib $-1 $-1 $570 $544 F #
End-of-ACIS-data 