600 0 1 0           
81 GICL ACIS Healer - Source: /gicl/data5/repository/Heriot_Watt/ex29/ex29.sat - 6 0 18 ACIS 6.0.3 Solaris 24 Sat Apr 13 23:38:41 2002 
1 9.999999999999999547e-07 1.000000000000000036e-10 
body $-1 $1 $-1 $-1 #
lump $-1 $-1 $2 $0 #
shell $-1 $-1 $-1 $3 $-1 $1 #
face $-1 $4 $5 $2 $-1 $6 reversed single #
face $-1 $7 $8 $2 $-1 $6 reversed single #
loop $-1 $-1 $9 $3 #
cone-surface $-1 0 -30 10 0 0 1 20 0 0 1 I I 0 1 20 forward I I I I #
face $-1 $10 $11 $2 $-1 $12 reversed single #
loop $-1 $-1 $13 $4 #
coedge $-1 $14 $15 $16 $17 reversed $5 $-1 #
face $-1 $18 $19 $2 $-1 $20 forward single #
loop $-1 $-1 $21 $7 #
plane-surface $-1 0 -40 0 0 1 0 0 0 1 forward_v I I I I #
coedge $-1 $22 $23 $21 $24 reversed $8 $-1 #
coedge $-1 $25 $9 $26 $27 forward $5 $-1 #
coedge $-1 $9 $25 $28 $29 reversed $5 $-1 #
coedge $-1 $30 $31 $9 $17 forward $11 $-1 #
edge $-1 $32 -10 $33 10 $16 $34 forward 7 unknown #
face $-1 $35 $36 $2 $-1 $37 forward single #
loop $-1 $-1 $28 $10 #
plane-surface $-1 0 0 20 0 0 1 1 0 0 forward_v I I I I #
coedge $-1 $31 $38 $13 $24 forward $11 $-1 #
coedge $-1 $39 $13 $40 $41 reversed $8 $-1 #
coedge $-1 $13 $39 $42 $43 forward $8 $-1 #
edge $-1 $44 -10 $45 10 $21 $46 forward 7 unknown #
coedge $-1 $15 $14 $47 $48 reversed $5 $-1 #
coedge $-1 $49 $50 $14 $27 reversed $51 $-1 #
edge $-1 $32 2.617993877991494411 $52 3.403392041388942246 $26 $53 forward 7 unknown #
coedge $-1 $54 $55 $15 $29 forward $19 $-1 #
edge $-1 $33 2.617993877991494411 $56 3.403392041388942246 $28 $57 forward 7 unknown #
coedge $-1 $58 $16 $55 $59 reversed $11 $-1 #
coedge $-1 $16 $21 $49 $60 forward $11 $-1 #
vertex $-1 $17 $61 #
vertex $-1 $59 $62 #
straight-curve $-1 -17.3205080756887746 -40 10 0 0 1 I I #
face $-1 $63 $51 $2 $-1 $64 forward single #
loop $-1 $-1 $47 $18 #
plane-surface $-1 -37.07106781186547551 -7.071067811865475505 10 0.7071067811865474617 0.7071067811865475727 0 0 0 -1 forward_v I I I I #
coedge $-1 $21 $65 $66 $67 reversed $11 $-1 #
coedge $-1 $23 $22 $68 $69 reversed $8 $-1 #
coedge $-1 $66 $70 $22 $41 forward $71 $-1 #
edge $-1 $72 -1.832595714594046132 $44 0.5235987755982988157 $40 $57 forward 7 unknown #
coedge $-1 $73 $49 $23 $43 reversed $51 $-1 #
edge $-1 $74 -1.832595714594046132 $45 0.5235987755982988157 $42 $53 forward 7 unknown #
vertex $-1 $41 $75 #
vertex $-1 $24 $76 #
straight-curve $-1 17.3205080756887746 -40 10 0 0 -1 I I #
coedge $-1 $77 $78 $25 $48 forward $36 $-1 #
edge $-1 $56 -10 $52 10 $47 $79 forward 7 unknown #
coedge $-1 $42 $26 $31 $60 reversed $51 $-1 #
coedge $-1 $26 $80 $77 $81 reversed $51 $-1 #
loop $-1 $-1 $73 $35 #
vertex $-1 $27 $82 #
ellipse-curve $-1 0 -30 0 0 0 -1 20 0 0 1 I I #
coedge $-1 $83 $28 $78 $84 forward $19 $-1 #
coedge $-1 $28 $83 $30 $59 forward $19 $-1 #
vertex $-1 $48 $85 #
ellipse-curve $-1 0 -30 20 0 0 -1 20 0 0 1 I I #
coedge $-1 $86 $30 $87 $88 forward $11 $-1 #
edge $-1 $89 -40 $33 -17.3205080756887746 $30 $90 forward 7 unknown #
edge $-1 $45 -17.3205080756887746 $32 17.3205080756887746 $31 $91 forward 7 unknown #
point $-1 -17.3205080756887746 -40 0 #
point $-1 -17.3205080756887746 -40 20 #
face $-1 $92 $93 $2 $-1 $94 forward single #
plane-surface $-1 -30 0 0 0 0 1 0.7071067811865474617 0.7071067811865475727 0 forward_v I I I I #
coedge $-1 $38 $86 $95 $96 forward $11 $-1 #
coedge $-1 $97 $40 $38 $67 forward $71 $-1 #
edge $-1 $44 17.3205080756887746 $98 40 $38 $90 forward 7 unknown #
coedge $-1 $99 $100 $39 $69 forward $93 $-1 #
edge $-1 $74 -10 $72 10 $68 $101 forward 7 unknown #
coedge $-1 $40 $102 $99 $103 forward $71 $-1 #
loop $-1 $-1 $40 $104 #
vertex $-1 $103 $105 #
coedge $-1 $80 $42 $100 $106 reversed $51 $-1 #
vertex $-1 $106 $107 #
point $-1 17.3205080756887746 -40 20 #
point $-1 17.3205080756887746 -40 0 #
coedge $-1 $108 $47 $50 $81 forward $36 $-1 #
coedge $-1 $47 $108 $54 $84 reversed $36 $-1 #
straight-curve $-1 -19.3185165257813658 -24.82361909794958521 10 0 0 -1 I I #
coedge $-1 $50 $73 $109 $110 reversed $51 $-1 #
edge $-1 $52 -25.10589879550407844 $111 4.142135623730950122 $77 $112 forward 7 unknown #
point $-1 -19.3185165257813658 -24.82361909794958521 0 #
coedge $-1 $55 $54 $113 $114 forward $19 $-1 #
edge $-1 $56 -14.49929707770586518 $115 14.74873734152916427 $54 $116 forward 7 unknown #
point $-1 -19.3185165257813658 -24.82361909794958521 20 #
coedge $-1 $65 $58 $117 $118 reversed $11 $-1 #
coedge $-1 $113 $119 $58 $88 reversed $120 $-1 #
edge $-1 $89 -20 $121 20 $87 $122 forward 7 unknown #
vertex $-1 $114 $123 #
straight-curve $-1 0 -40 20 1 0 0 I I #
straight-curve $-1 0 -40 0 -1 0 0 I I #
face $-1 $124 $120 $2 $-1 $125 reversed single #
loop $-1 $-1 $68 $63 #
plane-surface $-1 -22.92893218813452449 7.071067811865475505 10 -0.7071067811865474617 -0.7071067811865475727 0 0 0 1 forward_v I I I I #
coedge $-1 $126 $127 $65 $96 reversed $128 $-1 #
edge $-1 $129 -20 $98 20 $65 $130 reversed 7 unknown #
coedge $-1 $131 $66 $127 $132 forward $71 $-1 #
vertex $-1 $132 $133 #
coedge $-1 $134 $68 $70 $103 reversed $93 $-1 #
coedge $-1 $68 $134 $73 $106 forward $93 $-1 #
straight-curve $-1 -5.176380902050415678 -10.68148347421863242 10 0 0 1 I I #
coedge $-1 $70 $135 $136 $137 forward $71 $-1 #
edge $-1 $138 -34.74873734152916427 $72 14.49929707770586162 $70 $139 forward 7 unknown #
face $-1 $140 $71 $2 $-1 $20 forward single #
point $-1 -5.176380902050415678 -10.68148347421863242 20 #
edge $-1 $141 -24.14213562373094746 $74 25.10589879550407488 $100 $142 forward 7 unknown #
point $-1 -5.176380902050415678 -10.68148347421863242 0 #
coedge $-1 $78 $77 $143 $144 reversed $36 $-1 #
coedge $-1 $145 $143 $80 $110 forward $120 $-1 #
edge $-1 $111 -4.142135623730951011 $141 24.14213562373094746 $109 $146 forward 7 unknown #
vertex $-1 $110 $147 #
straight-curve $-1 -37.07106781186547551 -7.071067811865475505 0 -0.7071067811865475727 0.7071067811865474617 0 I I #
coedge $-1 $143 $87 $83 $114 reversed $120 $-1 #
edge $-1 $115 4.142135623730951011 $89 40 $113 $148 forward 7 unknown #
vertex $-1 $84 $149 #
straight-curve $-1 -29.57106781186547551 -14.57106781186547551 20 -0.7071067811865475727 0.7071067811865474617 0 I I #
coedge $-1 $150 $151 $86 $118 forward $152 $-1 #
edge $-1 $129 -40 $121 40 $86 $153 forward 7 unknown #
coedge $-1 $87 $154 $150 $155 reversed $120 $-1 #
loop $-1 $-1 $143 $92 #
vertex $-1 $155 $156 #
straight-curve $-1 -40 -40 0 0 0 -1 I I #
point $-1 -40 -40 20 #
face $-1 $157 $158 $2 $-1 $159 forward single #
plane-surface $-1 -40 0 0 1 0 0 0 0 -1 forward_v I I I I #
coedge $-1 $160 $95 $151 $161 reversed $128 $-1 #
coedge $-1 $95 $162 $97 $132 reversed $128 $-1 #
loop $-1 $-1 $163 $164 #
vertex $-1 $96 $165 #
straight-curve $-1 40 -40 0 0 0 -1 I I #
coedge $-1 $135 $97 $166 $167 forward $71 $-1 #
edge $-1 $98 -1.570796326794896558 $168 -0.6816588015705397074 $97 $169 forward 7 unknown #
point $-1 40 -40 20 #
coedge $-1 $100 $99 $145 $170 reversed $93 $-1 #
coedge $-1 $102 $131 $171 $172 forward $71 $-1 #
coedge $-1 $154 $145 $102 $137 reversed $120 $-1 #
edge $-1 $173 -40 $138 -24.14213562373094746 $136 $148 forward 7 unknown #
vertex $-1 $137 $174 #
straight-curve $-1 -15.42893218813452272 -0.4289321881345240506 20 0.7071067811865475727 -0.7071067811865474617 0 I I #
face $-1 $175 $176 $2 $-1 $20 forward single #
vertex $-1 $110 $177 #
straight-curve $-1 -22.92893218813452449 7.071067811865475505 0 0.7071067811865475727 -0.7071067811865474617 0 I I #
coedge $-1 $109 $113 $108 $144 forward $120 $-1 #
edge $-1 $115 -15 $111 5 $143 $178 forward 7 unknown #
coedge $-1 $136 $109 $134 $170 forward $120 $-1 #
straight-curve $-1 -40 0 0 0 1 0 I I #
point $-1 -40 -4.142135623730951011 0 #
straight-curve $-1 -40 0 20 0 -1 0 I I #
point $-1 -40 -4.142135623730951011 20 #
coedge $-1 $179 $117 $119 $155 forward $152 $-1 #
coedge $-1 $117 $179 $126 $161 forward $152 $-1 #
loop $-1 $-1 $117 $175 #
straight-curve $-1 0 -40 -20 -1 0 0 I I #
coedge $-1 $119 $136 $180 $181 forward $120 $-1 #
edge $-1 $121 -40 $182 40 $119 $183 forward 7 unknown #
point $-1 -40 -40 -20 #
face $-1 $184 $185 $2 $-1 $186 forward single #
loop $-1 $-1 $187 $124 #
plane-surface $-1 37.92893218813452449 7.928932188134524495 10 0.7071067811865474617 0.7071067811865475727 0 0 0 1 forward_v I I I I #
coedge $-1 $188 $126 $189 $190 forward $128 $-1 #
edge $-1 $191 -1.570796326794896558 $129 1.570796326794896558 $151 $192 forward 7 unknown #
coedge $-1 $127 $193 $187 $194 forward $128 $-1 #
coedge $-1 $193 $188 $195 $196 forward $128 $-1 #
face $-1 $104 $128 $2 $-1 $197 forward single #
point $-1 40 -40 -20 #
coedge $-1 $187 $198 $131 $167 reversed $158 $-1 #
edge $-1 $168 -57.46262538579880186 $199 34.74873734152916427 $131 $200 forward 7 unknown #
vertex $-1 $132 $201 #
ellipse-curve $-1 40 0 20 0 0 1 40 0 0 1 I I #
edge $-1 $141 -5 $138 15 $145 $202 forward 7 unknown #
coedge $-1 $203 $180 $135 $172 reversed $204 $-1 #
edge $-1 $199 -5.857864376269048989 $173 40 $171 $205 forward 7 unknown #
vertex $-1 $172 $206 #
point $-1 -40 24.14213562373094746 20 #
face $-1 $207 $152 $2 $-1 $208 reversed single #
loop $-1 $-1 $209 $140 #
point $-1 -40 24.14213562373094746 0 #
straight-curve $-1 -40 -4.142135623730951011 5 0 0 -1 I I #
coedge $-1 $151 $150 $210 $211 forward $152 $-1 #
coedge $-1 $171 $210 $154 $181 reversed $204 $-1 #
edge $-1 $173 -20 $182 20 $180 $212 forward 7 unknown #
vertex $-1 $211 $213 #
straight-curve $-1 -40 0 -20 0 1 0 I I #
face $-1 $164 $214 $2 $-1 $215 forward single #
loop $-1 $-1 $216 $157 #
plane-surface $-1 45 15 0 0 0 1 0.7071067811865475727 -0.7071067811865474617 0 forward_v I I I I #
coedge $-1 $217 $166 $162 $194 reversed $158 $-1 #
coedge $-1 $163 $160 $218 $219 reversed $128 $-1 #
coedge $-1 $210 $220 $160 $190 reversed $204 $-1 #
edge $-1 $191 -20 $221 20 $189 $222 reversed 7 unknown #
vertex $-1 $161 $223 #
ellipse-curve $-1 40 0 -20 0 0 -1 40 0 0 1 I I #
coedge $-1 $162 $163 $216 $224 forward $128 $-1 #
edge $-1 $225 0 $168 20 $162 $226 forward 7 unknown #
coedge $-1 $227 $228 $163 $196 reversed $214 $-1 #
edge $-1 $229 -20 $230 0 $163 $231 forward 7 unknown #
cone-surface $-1 40 0 0 0 0 1 40 0 0 1 I I 0 1 40 forward I I I I #
coedge $-1 $166 $217 $203 $232 reversed $158 $-1 #
vertex $-1 $232 $233 #
straight-curve $-1 30.42893218813452449 15.42893218813452627 20 -0.7071067811865475727 0.7071067811865474617 0 I I #
point $-1 71.06114426321511246 -25.20327988694605281 20 #
straight-curve $-1 -40 24.14213562373094391 5 0 0 1 I I #
coedge $-1 $234 $171 $198 $232 forward $204 $-1 #
loop $-1 $-1 $235 $207 #
straight-curve $-1 0 40 20 -1 0 0 I I #
point $-1 -40 40 20 #
face $-1 $-1 $204 $2 $-1 $236 reversed single #
plane-surface $-1 0 0 -20 0 0 1 1 0 0 forward_v I I I I #
coedge $-1 $218 $237 $227 $238 forward $176 $-1 #
coedge $-1 $180 $189 $179 $211 reversed $204 $-1 #
edge $-1 $182 -40 $191 40 $210 $239 forward 7 unknown #
straight-curve $-1 -40 40 0 0 0 -1 I I #
point $-1 -40 40 -20 #
loop $-1 $-1 $195 $184 #
plane-surface $-1 52.07106781186547551 22.07106781186547551 10 -0.7071067811865474617 -0.7071067811865475727 0 0 0 -1 forward_v I I I I #
coedge $-1 $240 $241 $193 $224 reversed $185 $-1 #
coedge $-1 $198 $187 $241 $242 forward $158 $-1 #
coedge $-1 $237 $209 $188 $219 forward $176 $-1 #
edge $-1 $229 -0.1374478785081584276 $221 1.570796326794896558 $218 $169 forward 7 unknown #
coedge $-1 $189 $235 $237 $243 reversed $204 $-1 #
vertex $-1 $243 $244 #
straight-curve $-1 40 40 0 0 0 -1 I I #
point $-1 40 40 -20 #
edge $-1 $230 0.1374478785081584276 $225 0.6816588015705397074 $193 $245 forward 7 unknown #
vertex $-1 $224 $246 #
straight-curve $-1 71.06114426321511246 -25.20327988694605281 0 0 0 1 I I #
coedge $-1 $247 $195 $209 $238 reversed $214 $-1 #
coedge $-1 $195 $247 $240 $248 forward $214 $-1 #
vertex $-1 $238 $249 #
vertex $-1 $224 $250 #
straight-curve $-1 79.62275608043398734 -5.48062045670302922 0 0 0 -1 I I #
edge $-1 $199 -15 $251 5 $203 $252 forward 7 unknown #
point $-1 5.857864376269048989 40 20 #
coedge $-1 $235 $203 $253 $254 forward $204 $-1 #
coedge $-1 $220 $234 $247 $255 forward $204 $-1 #
plane-surface $-1 0 40 0 0 -1 0 0 0 -1 forward_v I I I I #
coedge $-1 $209 $218 $220 $243 forward $176 $-1 #
edge $-1 $256 -14.74873734152916427 $229 49.57057293348348992 $209 $257 forward 7 unknown #
straight-curve $-1 0 40 -20 1 0 0 I I #
coedge $-1 $253 $216 $228 $248 reversed $185 $-1 #
coedge $-1 $216 $253 $217 $242 reversed $185 $-1 #
edge $-1 $225 -46.85602366800058149 $251 45.35533905932737753 $217 $258 forward 7 unknown #
edge $-1 $221 -40 $256 -34.14213562373095101 $220 $205 forward 7 unknown #
point $-1 40 40 20 #
ellipse-curve $-1 40 0 0 0 0 -1 40 0 0 1 I I #
point $-1 71.06114426321511246 -25.20327988694605281 0 #
coedge $-1 $228 $227 $235 $255 reversed $214 $-1 #
edge $-1 $259 -25.35533905932737753 $230 38.96397121568527666 $228 $260 forward 7 unknown #
point $-1 79.62275608043398734 -5.48062045670302922 20 #
point $-1 79.62275608043398734 -5.48062045670302922 0 #
vertex $-1 $254 $261 #
straight-curve $-1 5.857864376269047213 40 5 0 0 -1 I I #
coedge $-1 $241 $240 $234 $254 reversed $185 $-1 #
edge $-1 $251 -16.64213562373095101 $259 11.64213562373095101 $234 $262 forward 7 unknown #
edge $-1 $259 -5 $256 15 $235 $263 forward 7 unknown #
vertex $-1 $243 $264 #
straight-curve $-1 44.57106781186547551 29.57106781186547551 20 0.7071067811865475727 -0.7071067811865474617 0 I I #
straight-curve $-1 37.92893218813452449 7.928932188134524495 0 -0.7071067811865475727 0.7071067811865474617 0 I I #
vertex $-1 $254 $265 #
straight-curve $-1 52.07106781186547551 22.07106781186547551 0 0.7071067811865475727 -0.7071067811865474617 0 I I #
point $-1 5.857864376269048989 40 0 #
straight-curve $-1 22.5 40 0 1 0 0 I I #
straight-curve $-1 34.14213562373095101 40 5 0 0 1 I I #
point $-1 34.14213562373095101 40 20 #
point $-1 34.14213562373095101 40 0 #
End-of-ACIS-data 