106 0 1 0           
body $-1 $1 $-1 $-1 #
lump $-1 $-1 $2 $0 #
shell $-1 $-1 $-1 $3 $1 #
face $-1 $4 $5 $2 $-1 $6 reversed single #
face $-1 $7 $8 $2 $-1 $6 reversed single #
loop $-1 $-1 $9 $3 #
cone-surface $-1 0 -30 10 0 0 1 20 0 0 1 I I 0 1 0 I I I I #
face $-1 $10 $11 $2 $-1 $12 reversed single #
loop $-1 $-1 $13 $4 #
coedge $-1 $14 $15 $16 $17 1 $5 $-1 #
face $-1 $18 $19 $2 $-1 $20 forward single #
loop $-1 $-1 $21 $7 #
plane-surface $-1 0 -40 0 0 1 0 0 0 1 0 I I I I #
coedge $-1 $22 $23 $21 $24 1 $8 $-1 #
coedge $-1 $25 $9 $26 $27 0 $5 $-1 #
coedge $-1 $9 $25 $28 $29 1 $5 $-1 #
coedge $-1 $30 $31 $9 $17 0 $11 $-1 #
edge $-1 $32 $33 $16 $34 0 #
face $-1 $35 $36 $2 $-1 $37 forward single #
loop $-1 $-1 $28 $10 #
plane-surface $-1 0 0 20 0 0 1 1 0 0 0 I I I I #
coedge $-1 $31 $38 $13 $24 0 $11 $-1 #
coedge $-1 $39 $13 $40 $41 1 $8 $-1 #
coedge $-1 $13 $39 $42 $43 0 $8 $-1 #
edge $-1 $44 $45 $21 $46 0 #
coedge $-1 $15 $14 $47 $48 1 $5 $-1 #
coedge $-1 $49 $50 $14 $27 1 $51 $-1 #
edge $-1 $32 $52 $26 $53 0 #
coedge $-1 $54 $55 $15 $29 0 $19 $-1 #
edge $-1 $33 $56 $28 $57 0 #
coedge $-1 $58 $16 $55 $59 1 $11 $-1 #
coedge $-1 $16 $21 $49 $60 0 $11 $-1 #
vertex $-1 $17 $61 #
vertex $-1 $59 $62 #
straight-curve $-1 -17.320508075688775 -40 10 0 0 1 I I #
face $-1 $63 $51 $2 $-1 $64 forward single #
loop $-1 $-1 $47 $18 #
plane-surface $-1 -37.071067811865476 -7.0710678118654755 10 0.70710678118654746 0.70710678118654757 0 0 0 -1 0 I I I I #
coedge $-1 $21 $65 $66 $67 1 $11 $-1 #
coedge $-1 $23 $22 $68 $69 1 $8 $-1 #
coedge $-1 $66 $70 $22 $41 0 $71 $-1 #
edge $-1 $72 $44 $40 $57 0 #
coedge $-1 $73 $49 $23 $43 1 $51 $-1 #
edge $-1 $74 $45 $42 $53 0 #
vertex $-1 $41 $75 #
vertex $-1 $24 $76 #
straight-curve $-1 17.320508075688775 -40 10 0 0 -1 I I #
coedge $-1 $77 $78 $25 $48 0 $36 $-1 #
edge $-1 $56 $52 $47 $79 0 #
coedge $-1 $42 $26 $31 $60 1 $51 $-1 #
coedge $-1 $26 $80 $77 $81 1 $51 $-1 #
loop $-1 $-1 $73 $35 #
vertex $-1 $27 $82 #
ellipse-curve $-1 0 -30 0 0 0 -1 20 0 0 1 I I #
coedge $-1 $83 $28 $78 $84 0 $19 $-1 #
coedge $-1 $28 $83 $30 $59 0 $19 $-1 #
vertex $-1 $48 $85 #
ellipse-curve $-1 0 -30 20 0 0 -1 20 0 0 1 I I #
coedge $-1 $86 $30 $87 $88 0 $11 $-1 #
edge $-1 $89 $33 $30 $90 0 #
edge $-1 $45 $32 $31 $91 0 #
point $-1 -17.320508075688775 -40 0 #
point $-1 -17.320508075688775 -40 20 #
face $-1 $92 $93 $2 $-1 $94 forward single #
plane-surface $-1 -30 0 0 0 0 1 0.70710678118654746 0.70710678118654757 0 0 I I I I #
coedge $-1 $38 $86 $95 $96 0 $11 $-1 #
coedge $-1 $97 $40 $38 $67 0 $71 $-1 #
edge $-1 $44 $98 $38 $90 0 #
coedge $-1 $99 $100 $39 $69 0 $93 $-1 #
edge $-1 $74 $72 $68 $101 0 #
coedge $-1 $40 $102 $99 $103 0 $71 $-1 #
loop $-1 $-1 $40 $104 #
vertex $-1 $103 $105 #
coedge $-1 $80 $42 $100 $106 1 $51 $-1 #
vertex $-1 $106 $107 #
point $-1 17.320508075688775 -40 20 #
point $-1 17.320508075688775 -40 0 #
coedge $-1 $108 $47 $50 $81 0 $36 $-1 #
coedge $-1 $47 $108 $54 $84 1 $36 $-1 #
straight-curve $-1 -19.318516525781366 -24.823619097949585 10 0 0 -1 I I #
coedge $-1 $50 $73 $109 $110 1 $51 $-1 #
edge $-1 $52 $111 $77 $112 0 #
point $-1 -19.318516525781366 -24.823619097949585 0 #
coedge $-1 $55 $54 $113 $114 0 $19 $-1 #
edge $-1 $56 $115 $54 $116 0 #
point $-1 -19.318516525781366 -24.823619097949585 20 #
coedge $-1 $65 $58 $117 $118 1 $11 $-1 #
coedge $-1 $113 $119 $58 $88 1 $120 $-1 #
edge $-1 $89 $121 $87 $122 0 #
vertex $-1 $114 $123 #
straight-curve $-1 0 -40 20 1 0 0 I I #
straight-curve $-1 0 -40 0 -1 0 0 I I #
face $-1 $124 $120 $2 $-1 $125 reversed single #
loop $-1 $-1 $68 $63 #
plane-surface $-1 -22.928932188134524 7.0710678118654755 10 -0.70710678118654746 -0.70710678118654757 0 0 0 1 0 I I I I #
coedge $-1 $126 $127 $65 $96 1 $128 $-1 #
edge $-1 $129 $98 $65 $130 1 #
coedge $-1 $131 $66 $127 $132 0 $71 $-1 #
vertex $-1 $132 $133 #
coedge $-1 $134 $68 $70 $103 1 $93 $-1 #
coedge $-1 $68 $134 $73 $106 0 $93 $-1 #
straight-curve $-1 -5.1763809020504157 -10.681483474218632 10 0 0 1 I I #
coedge $-1 $70 $135 $136 $137 0 $71 $-1 #
edge $-1 $138 $72 $70 $139 0 #
face $-1 $140 $71 $2 $-1 $20 forward single #
point $-1 -5.1763809020504157 -10.681483474218632 20 #
edge $-1 $141 $74 $100 $142 0 #
point $-1 -5.1763809020504157 -10.681483474218632 0 #
coedge $-1 $78 $77 $143 $144 1 $36 $-1 #
coedge $-1 $145 $143 $80 $110 0 $120 $-1 #
edge $-1 $111 $141 $109 $146 0 #
vertex $-1 $110 $147 #
straight-curve $-1 -37.071067811865476 -7.0710678118654755 0 -0.70710678118654757 0.70710678118654746 0 I I #
coedge $-1 $143 $87 $83 $114 1 $120 $-1 #
edge $-1 $115 $89 $113 $148 0 #
vertex $-1 $84 $149 #
straight-curve $-1 -29.571067811865476 -14.571067811865476 20 -0.70710678118654757 0.70710678118654746 0 I I #
coedge $-1 $150 $151 $86 $118 0 $152 $-1 #
edge $-1 $129 $121 $86 $153 0 #
coedge $-1 $87 $154 $150 $155 1 $120 $-1 #
loop $-1 $-1 $143 $92 #
vertex $-1 $155 $156 #
straight-curve $-1 -40 -40 0 0 0 -1 I I #
point $-1 -40 -40 20 #
face $-1 $157 $158 $2 $-1 $159 forward single #
plane-surface $-1 -40 0 0 1 0 0 0 0 -1 0 I I I I #
coedge $-1 $160 $95 $151 $161 1 $128 $-1 #
coedge $-1 $95 $162 $97 $132 1 $128 $-1 #
loop $-1 $-1 $163 $164 #
vertex $-1 $96 $165 #
straight-curve $-1 40 -40 0 0 0 -1 I I #
coedge $-1 $135 $97 $166 $167 0 $71 $-1 #
edge $-1 $98 $168 $97 $169 0 #
point $-1 40 -40 20 #
coedge $-1 $100 $99 $145 $170 1 $93 $-1 #
coedge $-1 $102 $131 $171 $172 0 $71 $-1 #
coedge $-1 $154 $145 $102 $137 1 $120 $-1 #
edge $-1 $173 $138 $136 $148 0 #
vertex $-1 $137 $174 #
straight-curve $-1 -15.428932188134523 -0.42893218813452405 20 0.70710678118654757 -0.70710678118654746 0 I I #
face $-1 $175 $176 $2 $-1 $20 forward single #
vertex $-1 $110 $177 #
straight-curve $-1 -22.928932188134524 7.0710678118654755 0 0.70710678118654757 -0.70710678118654746 0 I I #
coedge $-1 $109 $113 $108 $144 0 $120 $-1 #
edge $-1 $115 $111 $143 $178 0 #
coedge $-1 $136 $109 $134 $170 0 $120 $-1 #
straight-curve $-1 -40 0 0 0 1 0 I I #
point $-1 -40 -4.142135623730951 0 #
straight-curve $-1 -40 0 20 0 -1 0 I I #
point $-1 -40 -4.142135623730951 20 #
coedge $-1 $179 $117 $119 $155 0 $152 $-1 #
coedge $-1 $117 $179 $126 $161 0 $152 $-1 #
loop $-1 $-1 $117 $175 #
straight-curve $-1 0 -40 -20 -1 0 0 I I #
coedge $-1 $119 $136 $180 $181 0 $120 $-1 #
edge $-1 $121 $182 $119 $183 0 #
point $-1 -40 -40 -20 #
face $-1 $184 $185 $2 $-1 $186 forward single #
loop $-1 $-1 $187 $124 #
plane-surface $-1 37.928932188134524 7.9289321881345245 10 0.70710678118654746 0.70710678118654757 0 0 0 1 0 I I I I #
coedge $-1 $188 $126 $189 $190 0 $128 $-1 #
edge $-1 $191 $129 $151 $192 0 #
coedge $-1 $127 $193 $187 $194 0 $128 $-1 #
coedge $-1 $193 $188 $195 $196 0 $128 $-1 #
face $-1 $104 $128 $2 $-1 $197 forward single #
point $-1 40 -40 -20 #
coedge $-1 $187 $198 $131 $167 1 $158 $-1 #
edge $-1 $168 $199 $131 $200 0 #
vertex $-1 $132 $201 #
ellipse-curve $-1 40 0 20 0 0 1 40 0 0 1 I I #
edge $-1 $141 $138 $145 $202 0 #
coedge $-1 $203 $180 $135 $172 1 $204 $-1 #
edge $-1 $199 $173 $171 $205 0 #
vertex $-1 $172 $206 #
point $-1 -40 24.142135623730947 20 #
face $-1 $207 $152 $2 $-1 $208 reversed single #
loop $-1 $-1 $209 $140 #
point $-1 -40 24.142135623730947 0 #
straight-curve $-1 -40 -4.142135623730951 5 0 0 -1 I I #
coedge $-1 $151 $150 $210 $211 0 $152 $-1 #
coedge $-1 $171 $210 $154 $181 1 $204 $-1 #
edge $-1 $173 $182 $180 $212 0 #
vertex $-1 $211 $213 #
straight-curve $-1 -40 0 -20 0 1 0 I I #
face $-1 $164 $214 $2 $-1 $215 forward single #
loop $-1 $-1 $216 $157 #
plane-surface $-1 45 15 0 0 0 1 0.70710678118654757 -0.70710678118654746 0 0 I I I I #
coedge $-1 $217 $166 $162 $194 1 $158 $-1 #
coedge $-1 $163 $160 $218 $219 1 $128 $-1 #
coedge $-1 $210 $220 $160 $190 1 $204 $-1 #
edge $-1 $191 $221 $189 $222 1 #
vertex $-1 $161 $223 #
ellipse-curve $-1 40 0 -20 0 0 -1 40 0 0 1 I I #
coedge $-1 $162 $163 $216 $224 0 $128 $-1 #
edge $-1 $225 $168 $162 $226 0 #
coedge $-1 $227 $228 $163 $196 1 $214 $-1 #
edge $-1 $229 $230 $163 $231 0 #
cone-surface $-1 40 0 0 0 0 1 40 0 0 1 I I 0 1 0 I I I I #
coedge $-1 $166 $217 $203 $232 1 $158 $-1 #
vertex $-1 $232 $233 #
straight-curve $-1 30.428932188134524 15.428932188134526 20 -0.70710678118654757 0.70710678118654746 0 I I #
point $-1 71.061144263215112 -25.203279886946053 20 #
straight-curve $-1 -40 24.142135623730944 5 0 0 1 I I #
coedge $-1 $234 $171 $198 $232 0 $204 $-1 #
loop $-1 $-1 $235 $207 #
straight-curve $-1 0 40 20 -1 0 0 I I #
point $-1 -40 40 20 #
face $-1 $-1 $204 $2 $-1 $236 reversed single #
plane-surface $-1 0 0 -20 0 0 1 1 0 0 0 I I I I #
coedge $-1 $218 $237 $227 $238 0 $176 $-1 #
coedge $-1 $180 $189 $179 $211 1 $204 $-1 #
edge $-1 $182 $191 $210 $239 0 #
straight-curve $-1 -40 40 0 0 0 -1 I I #
point $-1 -40 40 -20 #
loop $-1 $-1 $195 $184 #
plane-surface $-1 52.071067811865476 22.071067811865476 10 -0.70710678118654746 -0.70710678118654757 0 0 0 -1 0 I I I I #
coedge $-1 $240 $241 $193 $224 1 $185 $-1 #
coedge $-1 $198 $187 $241 $242 0 $158 $-1 #
coedge $-1 $237 $209 $188 $219 0 $176 $-1 #
edge $-1 $229 $221 $218 $169 0 #
coedge $-1 $189 $235 $237 $243 1 $204 $-1 #
vertex $-1 $243 $244 #
straight-curve $-1 40 40 0 0 0 -1 I I #
point $-1 40 40 -20 #
edge $-1 $230 $225 $193 $245 0 #
vertex $-1 $224 $246 #
straight-curve $-1 71.061144263215112 -25.203279886946053 0 0 0 1 I I #
coedge $-1 $247 $195 $209 $238 1 $214 $-1 #
coedge $-1 $195 $247 $240 $248 0 $214 $-1 #
vertex $-1 $238 $249 #
vertex $-1 $224 $250 #
straight-curve $-1 79.622756080433987 -5.4806204567030292 0 0 0 -1 I I #
edge $-1 $199 $251 $203 $252 0 #
point $-1 5.857864376269049 40 20 #
coedge $-1 $235 $203 $253 $254 0 $204 $-1 #
coedge $-1 $220 $234 $247 $255 0 $204 $-1 #
plane-surface $-1 0 40 0 0 -1 0 0 0 -1 0 I I I I #
coedge $-1 $209 $218 $220 $243 0 $176 $-1 #
edge $-1 $256 $229 $209 $257 0 #
straight-curve $-1 0 40 -20 1 0 0 I I #
coedge $-1 $253 $216 $228 $248 1 $185 $-1 #
coedge $-1 $216 $253 $217 $242 1 $185 $-1 #
edge $-1 $225 $251 $217 $258 0 #
edge $-1 $221 $256 $220 $205 0 #
point $-1 40 40 20 #
ellipse-curve $-1 40 0 0 0 0 -1 40 0 0 1 I I #
point $-1 71.061144263215112 -25.203279886946053 0 #
coedge $-1 $228 $227 $235 $255 1 $214 $-1 #
edge $-1 $259 $230 $228 $260 0 #
point $-1 79.622756080433987 -5.4806204567030292 20 #
point $-1 79.622756080433987 -5.4806204567030292 0 #
vertex $-1 $254 $261 #
straight-curve $-1 5.8578643762690472 40 5 0 0 -1 I I #
coedge $-1 $241 $240 $234 $254 1 $185 $-1 #
edge $-1 $251 $259 $234 $262 0 #
edge $-1 $259 $256 $235 $263 0 #
vertex $-1 $243 $264 #
straight-curve $-1 44.571067811865476 29.571067811865476 20 0.70710678118654757 -0.70710678118654746 0 I I #
straight-curve $-1 37.928932188134524 7.9289321881345245 0 -0.70710678118654757 0.70710678118654746 0 I I #
vertex $-1 $254 $265 #
straight-curve $-1 52.071067811865476 22.071067811865476 0 0.70710678118654757 -0.70710678118654746 0 I I #
point $-1 5.857864376269049 40 0 #
straight-curve $-1 22.5 40 0 1 0 0 I I #
straight-curve $-1 34.142135623730951 40 5 0 0 1 I I #
point $-1 34.142135623730951 40 20 #
point $-1 34.142135623730951 40 0 #
End-of-ACIS-data 