700 0 2 0           
24 FBMach with ACIS - 7.0.3 13 ACIS 7.0.3 NT 24 Tue May 14 09:19:55 2002 
1 9.9999999999999995e-007 1e-010 
body $2 -1 $-1 $3 $-1 $4 #
bdycol-kcp $-1 -1 1 4 $5 $6 $7 $8 #
model_id-kcp-attrib $-1 -1 $-1 $-1 $0 1 1021382394 1021382394 1350696961 1 #
lump $-1 -1 $-1 $-1 $9 $0 #
transform $-1 -1 1 0 0 0 1 0 0 0 1 0 0 0 1 rotate no_reflect no_shear #
body $10 -1 $-1 $11 $-1 $12 #
body $13 -1 $-1 $14 $-1 $15 #
body $16 -1 $-1 $17 $-1 $18 #
body $19 -1 $-1 $20 $-1 $21 #
shell $-1 -1 $-1 $-1 $-1 $22 $-1 $3 #
model_id-kcp-attrib $-1 -1 $-1 $-1 $5 1 1021382394 1021382394 1351352322 1 #
lump $-1 -1 $-1 $-1 $23 $5 #
transform $-1 -1 1 0 0 0 1 0 0 0 1 20 0 0 1 no_rotate no_reflect no_shear #
rgb_color-st-attrib $-1 -1 $24 $-1 $6 0.5 1 1 #
lump $-1 -1 $-1 $-1 $25 $6 #
transform $-1 -1 1 0 0 0 1 0 0 0 1 20 0 0 1 no_rotate no_reflect no_shear #
rgb_color-st-attrib $-1 -1 $26 $-1 $7 0.59999999999999998 0.90000000000000002 1 #
lump $-1 -1 $-1 $-1 $27 $7 #
transform $-1 -1 1 0 0 0 1 0 0 0 1 -16.035533905932738 -13.964466094067262 149.66629547095766 1 no_rotate no_reflect no_shear #
rgb_color-st-attrib $-1 -1 $28 $-1 $8 1 0 0 #
lump $-1 -1 $-1 $-1 $29 $8 #
transform $-1 -1 1 0 0 0 1 0 0 0 1 47.670975085912275 12.329024914087725 149.66629547095766 1 no_rotate no_reflect no_shear #
face $30 -1 $-1 $31 $32 $9 $-1 $33 reversed single #
shell $-1 -1 $-1 $-1 $-1 $34 $-1 $11 #
model_id-kcp-attrib $-1 -1 $-1 $13 $6 1 1021382394 1021382395 1345978371 1 #
shell $-1 -1 $-1 $-1 $-1 $35 $-1 $14 #
model_id-kcp-attrib $-1 -1 $-1 $16 $7 1 1021382394 1021382395 1346568197 1 #
shell $-1 -1 $-1 $-1 $-1 $36 $-1 $17 #
model_id-kcp-attrib $-1 -1 $-1 $19 $8 1 1021382394 1021382395 1350893572 1 #
shell $-1 -1 $-1 $-1 $-1 $37 $-1 $20 #
model_id-kcp-attrib $-1 -1 $-1 $-1 $22 1 1021382394 1021382394 1350696961 2 #
face $38 -1 $-1 $39 $40 $9 $-1 $33 reversed single #
loop $-1 -1 $-1 $-1 $41 $22 #
cone-surface $-1 -1 $-1 0 -30 10 0 0 1 20 0 0 1 I I 0 1 20 forward I I I I #
face $42 -1 $-1 $43 $44 $23 $-1 $45 forward single #
face $-1 -1 $-1 $46 $47 $25 $-1 $48 reversed single #
face $-1 -1 $-1 $49 $50 $27 $-1 $51 forward single #
face $-1 -1 $-1 $52 $53 $29 $-1 $54 forward single #
model_id-kcp-attrib $-1 -1 $-1 $-1 $31 1 1021382394 1021382394 1350696961 3 #
face $55 -1 $-1 $56 $57 $9 $-1 $58 reversed single #
loop $-1 -1 $-1 $-1 $59 $31 #
coedge $-1 -1 $-1 $60 $61 $62 $63 reversed $32 $-1 #
model_id-kcp-attrib $-1 -1 $-1 $-1 $34 1 1021382394 1021382394 1351352322 3 #
face $64 -1 $-1 $65 $66 $23 $-1 $67 reversed single #
loop $-1 -1 $-1 $-1 $68 $34 #
plane-surface $-1 -1 $-1 0 0 20 0 0 1 1 0 0 forward_v I I I I #
face $-1 -1 $-1 $69 $70 $25 $-1 $48 reversed single #
loop $-1 -1 $-1 $-1 $71 $35 #
cone-surface $-1 -1 $-1 20.000000000000007 0 20 0 0 1 0 40 0 1 I I 0 1 40 forward I I I I #
face $-1 -1 $-1 $72 $73 $27 $-1 $74 reversed single #
loop $-1 -1 $-1 $-1 $75 $36 #
cone-surface $-1 -1 $-1 16.035533905932738 -16.035533905932738 -139.66629547095766 0 0 1 20 0 0 1 I I 0 1 20 forward I I I I #
face $-1 -1 $-1 $76 $77 $29 $-1 $78 forward single #
loop $-1 -1 $-1 $-1 $79 $37 #
plane-surface $-1 -1 $-1 -27.670975085912275 -12.329024914087725 -129.66629547095766 0 0 1 1 0 0 forward_v I I I I #
model_id-kcp-attrib $-1 -1 $-1 $-1 $39 1 1021382394 1021382394 1350696961 4 #
face $80 -1 $-1 $81 $82 $9 $-1 $83 forward single #
loop $-1 -1 $-1 $-1 $84 $39 #
plane-surface $-1 -1 $-1 0 -40 0 0 1 0 0 0 1 forward_v I I I I #
coedge $-1 -1 $-1 $85 $86 $84 $87 reversed $40 $-1 #
coedge $-1 -1 $-1 $88 $41 $89 $90 forward $32 $-1 #
coedge $-1 -1 $-1 $41 $88 $91 $92 reversed $32 $-1 #
coedge $-1 -1 $-1 $93 $94 $41 $63 forward $57 $-1 #
edge $95 -1 $-1 $96 -10 $97 10 $62 $98 forward @7 unknown #
model_id-kcp-attrib $-1 -1 $-1 $-1 $43 1 1021382394 1021382394 1351352322 7 #
face $99 -1 $-1 $100 $101 $23 $-1 $102 reversed single #
loop $-1 -1 $-1 $-1 $103 $43 #
plane-surface $-1 -1 $-1 0 0 -20 0 0 1 1 0 0 forward_v I I I I #
coedge $-1 -1 $-1 $104 $105 $106 $107 forward $44 $-1 #
face $-1 -1 $-1 $108 $109 $25 $-1 $110 reversed single #
loop $-1 -1 $-1 $-1 $111 $46 #
coedge $-1 -1 $-1 $112 $113 $114 $115 reversed $47 $-1 #
face $-1 -1 $-1 $116 $117 $27 $-1 $118 reversed single #
loop $-1 -1 $-1 $-1 $119 $49 #
plane-surface $-1 -1 $-1 -21.035533905932738 6.8933982822017867 -139.66629547095766 0.70710678118654746 0.70710678118654757 0 0 0 -1 forward_v I I I I #
coedge $-1 -1 $-1 $120 $121 $122 $123 reversed $50 $-1 #
face $-1 -1 $-1 $124 $125 $29 $-1 $126 reversed single #
loop $-1 -1 $-1 $-1 $127 $52 #
cone-surface $-1 -1 $-1 -7.6709750859122678 -12.329024914087725 -129.66629547095766 0 0 1 0 40 0 1 I I 0 1 40 forward I I I I #
coedge $-1 -1 $-1 $128 $129 $130 $131 forward $53 $-1 #
model_id-kcp-attrib $-1 -1 $-1 $-1 $56 1 1021382394 1021382394 1350696961 5 #
face $132 -1 $-1 $133 $134 $9 $-1 $135 forward single #
loop $-1 -1 $-1 $-1 $91 $56 #
plane-surface $-1 -1 $-1 0 0 20 0 0 1 1 0 0 forward_v I I I I #
coedge $-1 -1 $-1 $94 $136 $59 $87 forward $57 $-1 #
coedge $-1 -1 $-1 $137 $59 $138 $139 reversed $40 $-1 #
coedge $-1 -1 $-1 $59 $137 $140 $141 forward $40 $-1 #
edge $142 -1 $-1 $143 -10 $144 10 $84 $145 forward @7 unknown #
coedge $-1 -1 $-1 $61 $60 $146 $147 reversed $32 $-1 #
coedge $-1 -1 $-1 $148 $149 $60 $90 reversed $150 $-1 #
edge $151 -1 $-1 $96 2.6179938779914944 $152 3.4033920413889422 $89 $153 forward @7 unknown #
coedge $-1 -1 $-1 $154 $155 $61 $92 forward $82 $-1 #
edge $156 -1 $-1 $97 2.6179938779914944 $157 3.4033920413889422 $91 $158 forward @7 unknown #
coedge $-1 -1 $-1 $159 $62 $155 $160 reversed $57 $-1 #
coedge $-1 -1 $-1 $62 $84 $148 $161 forward $57 $-1 #
attrib_edge_convexity-kcp-attrib $-1 -1 $162 $-1 $63 1 #
vertex $-1 -1 $-1 $63 $163 #
vertex $-1 -1 $-1 $160 $164 #
straight-curve $-1 -1 $-1 -17.320508075688775 -40 10 0 0 1 I I #
model_id-kcp-attrib $-1 -1 $-1 $-1 $65 1 1021382394 1021382394 1351352322 2 #
face $165 -1 $-1 $166 $167 $23 $-1 $168 reversed single #
loop $-1 -1 $-1 $-1 $169 $65 #
plane-surface $-1 -1 $-1 0 -40 0 0 1 0 0 0 1 forward_v I I I I #
coedge $-1 -1 $-1 $170 $171 $172 $173 forward $66 $-1 #
coedge $-1 -1 $-1 $174 $68 $175 $176 forward $44 $-1 #
coedge $-1 -1 $-1 $68 $174 $177 $178 forward $44 $-1 #
coedge $-1 -1 $-1 $179 $180 $68 $107 reversed $181 $-1 #
edge $-1 -1 $-1 $182 -40 $183 40 $106 $184 forward @7 unknown #
face $-1 -1 $-1 $185 $186 $25 $-1 $187 forward single #
loop $-1 -1 $-1 $-1 $188 $69 #
plane-surface $-1 -1 $-1 60 0 0 -1 0 0 0 0 1 forward_v I I I I #
coedge $-1 -1 $-1 $189 $190 $191 $192 reversed $70 $-1 #
coedge $-1 -1 $-1 $193 $71 $194 $195 reversed $47 $-1 #
coedge $-1 -1 $-1 $71 $193 $196 $197 forward $47 $-1 #
coedge $-1 -1 $-1 $198 $199 $71 $115 forward $186 $-1 #
edge $-1 -1 $-1 $200 1.5707963267948966 $201 3.1415926535897931 $114 $202 forward @7 unknown #
face $-1 -1 $-1 $203 $204 $27 $-1 $51 forward single #
loop $-1 -1 $-1 $-1 $205 $72 #
plane-surface $-1 -1 $-1 -6.8933982822017867 21.035533905932738 -139.66629547095766 -0.70710678118654746 -0.70710678118654757 0 0 0 1 forward_v I I I I #
coedge $-1 -1 $-1 $206 $207 $208 $209 reversed $73 $-1 #
coedge $-1 -1 $-1 $208 $75 $210 $211 reversed $50 $-1 #
coedge $-1 -1 $-1 $75 $208 $212 $213 forward $50 $-1 #
coedge $-1 -1 $-1 $214 $215 $75 $123 forward $216 $-1 #
edge $-1 -1 $-1 $217 -10 $218 10 $122 $219 forward @7 unknown #
face $-1 -1 $-1 $220 $221 $29 $-1 $222 reversed single #
loop $-1 -1 $-1 $-1 $223 $76 #
plane-surface $-1 -1 $-1 -27.670975085912275 27.670975085912275 -149.66629547095766 0 -1 0 0 0 -1 forward_v I I I I #
coedge $-1 -1 $-1 $224 $225 $226 $227 forward $77 $-1 #
coedge $-1 -1 $-1 $228 $79 $225 $229 forward $53 $-1 #
coedge $-1 -1 $-1 $79 $228 $230 $231 forward $53 $-1 #
coedge $-1 -1 $-1 $232 $226 $79 $131 reversed $233 $-1 #
edge $-1 -1 $-1 $234 -41.81980515339464 $235 50.391557573933319 $79 $236 forward @7 unknown #
model_id-kcp-attrib $-1 -1 $-1 $-1 $81 1 1021382394 1021382394 1350696961 6 #
face $237 -1 $-1 $238 $150 $9 $-1 $239 forward single #
loop $-1 -1 $-1 $-1 $146 $81 #
plane-surface $-1 -1 $-1 -37.071067811865476 -7.0710678118654755 10 0.70710678118654746 0.70710678118654757 0 0 0 -1 forward_v I I I I #
coedge $-1 -1 $-1 $84 $240 $241 $242 reversed $57 $-1 #
coedge $-1 -1 $-1 $86 $85 $243 $244 reversed $40 $-1 #
coedge $-1 -1 $-1 $241 $245 $85 $139 forward $246 $-1 #
edge $-1 -1 $-1 $247 -1.8325957145940461 $143 0.52359877559829882 $138 $158 forward @7 unknown #
coedge $-1 -1 $-1 $248 $148 $86 $141 reversed $150 $-1 #
edge $249 -1 $-1 $250 -1.8325957145940461 $144 0.52359877559829882 $140 $153 forward @7 unknown #
attrib_edge_convexity-kcp-attrib $-1 -1 $251 $-1 $87 1 #
vertex $-1 -1 $-1 $139 $252 #
vertex $-1 -1 $-1 $87 $253 #
straight-curve $-1 -1 $-1 17.320508075688775 -40 10 0 0 -1 I I #
coedge $-1 -1 $-1 $254 $255 $88 $147 forward $134 $-1 #
edge $-1 -1 $-1 $157 -10 $152 10 $146 $256 forward @7 unknown #
coedge $-1 -1 $-1 $140 $89 $94 $161 reversed $150 $-1 #
coedge $-1 -1 $-1 $89 $257 $254 $258 reversed $150 $-1 #
loop $-1 -1 $-1 $-1 $248 $133 #
attrib_edge_convexity-kcp-attrib $-1 -1 $259 $-1 $90 2 #
vertex $-1 -1 $-1 $90 $260 #
ellipse-curve $-1 -1 $-1 0 -30 0 0 0 -1 20 0 0 1 I I #
coedge $-1 -1 $-1 $261 $91 $255 $262 forward $82 $-1 #
coedge $-1 -1 $-1 $91 $261 $93 $160 forward $82 $-1 #
attrib_edge_convexity-kcp-attrib $-1 -1 $263 $-1 $92 1 #
vertex $-1 -1 $-1 $147 $264 #
ellipse-curve $-1 -1 $-1 0 -30 20 0 0 -1 20 0 0 1 I I #
coedge $-1 -1 $-1 $265 $93 $266 $267 forward $57 $-1 #
edge $268 -1 $-1 $269 -40 $97 -17.320508075688775 $93 $270 forward @7 unknown #
edge $271 -1 $-1 $144 -17.320508075688775 $96 17.320508075688775 $94 $272 forward @7 unknown #
convexity-sys-attrib $-1 -1 $-1 $95 $63 #
point $-1 -1 $-1 -17.320508075688775 -40 0 #
point $-1 -1 $-1 -17.320508075688775 -40 20 #
model_id-kcp-attrib $-1 -1 $-1 $-1 $100 1 1021382394 1021382394 1351352322 4 #
face $273 -1 $-1 $274 $275 $23 $-1 $276 reversed single #
loop $-1 -1 $-1 $-1 $277 $100 #
plane-surface $-1 -1 $-1 -60 0 0 1 0 0 0 0 -1 forward_v I I I I #
coedge $-1 -1 $-1 $278 $177 $279 $280 forward $101 $-1 #
coedge $-1 -1 $-1 $281 $103 $278 $282 forward $66 $-1 #
coedge $-1 -1 $-1 $103 $281 $283 $284 forward $66 $-1 #
coedge $-1 -1 $-1 $180 $179 $103 $173 reversed $181 $-1 #
edge $-1 -1 $-1 $285 -40 $286 40 $172 $287 forward @7 unknown #
coedge $-1 -1 $-1 $105 $104 $288 $289 forward $44 $-1 #
coedge $-1 -1 $-1 $290 $291 $104 $176 reversed $275 $-1 #
edge $-1 -1 $-1 $183 -60 $292 60 $175 $293 forward @7 unknown #
coedge $-1 -1 $-1 $169 $294 $105 $178 reversed $101 $-1 #
edge $-1 -1 $-1 $295 -60 $182 60 $177 $296 forward @7 unknown #
coedge $-1 -1 $-1 $172 $106 $294 $297 forward $181 $-1 #
coedge $-1 -1 $-1 $106 $172 $290 $298 reversed $181 $-1 #
loop $-1 -1 $-1 $-1 $179 $274 #
vertex $-1 -1 $-1 $107 $299 #
vertex $-1 -1 $-1 $107 $300 #
straight-curve $-1 -1 $-1 60 0 20 0 1 0 I I #
face $-1 -1 $-1 $301 $302 $25 $-1 $187 forward single #
loop $-1 -1 $-1 $-1 $114 $108 #
plane-surface $-1 -1 $-1 0 0 20 0 0 1 1 0 0 forward_v I I I I #
coedge $-1 -1 $-1 $303 $304 $190 $195 reversed $109 $-1 #
coedge $-1 -1 $-1 $305 $111 $306 $307 reversed $70 $-1 #
coedge $-1 -1 $-1 $111 $305 $112 $195 forward $70 $-1 #
coedge $-1 -1 $-1 $308 $309 $111 $192 forward $302 $-1 #
edge $-1 -1 $-1 $310 0 $200 1.5707963267948966 $191 $202 forward @7 unknown #
coedge $-1 -1 $-1 $113 $112 $311 $312 reversed $47 $-1 #
coedge $-1 -1 $-1 $313 $314 $188 $195 forward $315 $-1 #
edge $-1 -1 $-1 $316 -40 $200 0 $194 $317 forward @7 unknown #
coedge $-1 -1 $-1 $318 $319 $113 $197 reversed $320 $-1 #
edge $-1 -1 $-1 $321 -40 $201 0 $196 $322 forward @7 unknown #
coedge $-1 -1 $-1 $199 $114 $319 $323 forward $186 $-1 #
coedge $-1 -1 $-1 $114 $198 $313 $324 forward $186 $-1 #
vertex $-1 -1 $-1 $325 $326 #
vertex $-1 -1 $-1 $323 $327 #
ellipse-curve $-1 -1 $-1 20.000000000000007 0 20 0 0 -1 0 40 0 1 I I #
face $-1 -1 $-1 $328 $329 $27 $-1 $330 forward single #
loop $-1 -1 $-1 $-1 $331 $116 #
coedge $-1 -1 $-1 $332 $333 $334 $335 reversed $117 $-1 #
coedge $-1 -1 $-1 $336 $119 $337 $338 reversed $73 $-1 #
coedge $-1 -1 $-1 $119 $336 $339 $340 forward $73 $-1 #
coedge $-1 -1 $-1 $121 $120 $119 $209 forward $50 $-1 #
edge $341 -1 $-1 $342 -10 $343 10 $119 $344 forward @7 unknown #
coedge $-1 -1 $-1 $345 $337 $120 $211 forward $329 $-1 #
edge $-1 -1 $-1 $342 2.879793265790644 $217 3.6651914291880918 $210 $346 forward @7 unknown #
coedge $-1 -1 $-1 $339 $347 $121 $213 reversed $348 $-1 #
edge $349 -1 $-1 $343 2.879793265790644 $218 3.6651914291880918 $212 $350 forward @7 unknown #
coedge $-1 -1 $-1 $351 $122 $347 $352 forward $216 $-1 #
coedge $-1 -1 $-1 $122 $351 $345 $353 reversed $216 $-1 #
loop $-1 -1 $-1 $-1 $122 $354 #
vertex $-1 -1 $-1 $353 $355 #
vertex $-1 -1 $-1 $213 $356 #
straight-curve $-1 -1 $-1 -1.2849741697560404 -26.035533905932738 -139.66629547095766 0 0 -1 I I #
face $-1 -1 $-1 $357 $233 $29 $-1 $358 reversed single #
loop $-1 -1 $-1 $-1 $359 $124 #
plane-surface $-1 -1 $-1 4.4000927259532006 9.7420428977777505 -139.66629547095766 -0.70710678118654746 -0.70710678118654757 0 0 0 -1 forward_v I I I I #
coedge $-1 -1 $-1 $230 $360 $232 $361 forward $125 $-1 #
coedge $-1 -1 $-1 $362 $127 $363 $364 forward $77 $-1 #
coedge $-1 -1 $-1 $127 $362 $128 $229 reversed $77 $-1 #
coedge $-1 -1 $-1 $130 $365 $127 $227 reversed $233 $-1 #
edge $-1 -1 $-1 $235 0 $366 20 $127 $367 forward @7 unknown #
coedge $-1 -1 $-1 $129 $128 $368 $369 forward $53 $-1 #
edge $-1 -1 $-1 $235 -2.2524551283654364 $370 -1.7082442053030551 $128 $371 forward @7 unknown #
coedge $-1 -1 $-1 $372 $223 $129 $231 reversed $125 $-1 #
edge $-1 -1 $-1 $373 -14.142135623730951 $234 14.142135623730951 $230 $374 forward @7 unknown #
coedge $-1 -1 $-1 $365 $130 $223 $361 reversed $233 $-1 #
loop $-1 -1 $-1 $-1 $226 $220 #
vertex $-1 -1 $-1 $361 $375 #
vertex $-1 -1 $-1 $229 $376 #
straight-curve $-1 -1 $-1 -12.24204289777775 -1.9000927259532006 -129.66629547095766 0.70710678118654757 -0.70710678118654746 0 I I #
model_id-kcp-attrib $-1 -1 $-1 $-1 $133 1 1021382394 1021382394 1350696961 7 #
face $377 -1 $-1 $378 $379 $9 $-1 $380 forward single #
plane-surface $-1 -1 $-1 -30 0 0 0 0 1 0.70710678118654746 0.70710678118654757 0 forward_v I I I I #
coedge $-1 -1 $-1 $136 $265 $381 $382 forward $57 $-1 #
coedge $-1 -1 $-1 $383 $138 $136 $242 forward $246 $-1 #
edge $384 -1 $-1 $143 17.320508075688775 $385 40 $136 $270 forward @7 unknown #
coedge $-1 -1 $-1 $386 $387 $137 $244 forward $379 $-1 #
edge $-1 -1 $-1 $250 -10 $247 10 $243 $388 forward @7 unknown #
coedge $-1 -1 $-1 $138 $389 $386 $390 forward $246 $-1 #
loop $-1 -1 $-1 $-1 $138 $391 #
vertex $-1 -1 $-1 $390 $392 #
coedge $-1 -1 $-1 $257 $140 $387 $393 reversed $150 $-1 #
attrib_edge_convexity-kcp-attrib $-1 -1 $394 $-1 $141 2 #
vertex $-1 -1 $-1 $393 $395 #
convexity-sys-attrib $-1 -1 $-1 $142 $87 #
point $-1 -1 $-1 17.320508075688775 -40 20 #
point $-1 -1 $-1 17.320508075688775 -40 0 #
coedge $-1 -1 $-1 $396 $146 $149 $258 forward $134 $-1 #
coedge $-1 -1 $-1 $146 $396 $154 $262 reversed $134 $-1 #
straight-curve $-1 -1 $-1 -19.318516525781366 -24.823619097949585 10 0 0 -1 I I #
coedge $-1 -1 $-1 $149 $248 $397 $398 reversed $150 $-1 #
edge $399 -1 $-1 $152 -25.105898795504078 $400 4.1421356237309501 $254 $401 forward @7 unknown #
convexity-sys-attrib $-1 -1 $-1 $151 $90 #
point $-1 -1 $-1 -19.318516525781366 -24.823619097949585 0 #
coedge $-1 -1 $-1 $155 $154 $402 $403 forward $82 $-1 #
edge $404 -1 $-1 $157 -14.499297077705865 $405 14.748737341529164 $154 $406 forward @7 unknown #
convexity-sys-attrib $-1 -1 $-1 $156 $92 #
point $-1 -1 $-1 -19.318516525781366 -24.823619097949585 20 #
coedge $-1 -1 $-1 $240 $159 $407 $408 reversed $57 $-1 #
coedge $-1 -1 $-1 $402 $409 $159 $267 reversed $410 $-1 #
edge $411 -1 $-1 $269 -20 $412 20 $266 $413 forward @7 unknown #
attrib_edge_convexity-kcp-attrib $-1 -1 $414 $-1 $160 1 #
vertex $-1 -1 $-1 $403 $415 #
straight-curve $-1 -1 $-1 0 -40 20 1 0 0 I I #
attrib_edge_convexity-kcp-attrib $-1 -1 $416 $-1 $161 1 #
straight-curve $-1 -1 $-1 0 -40 0 -1 0 0 I I #
model_id-kcp-attrib $-1 -1 $-1 $-1 $166 1 1021382394 1021382394 1351352322 8 #
face $-1 -1 $-1 $-1 $181 $23 $-1 $417 reversed single #
loop $-1 -1 $-1 $-1 $290 $166 #
plane-surface $-1 -1 $-1 0 40 0 0 -1 0 0 0 -1 forward_v I I I I #
coedge $-1 -1 $-1 $418 $288 $291 $419 forward $167 $-1 #
coedge $-1 -1 $-1 $294 $169 $170 $282 reversed $101 $-1 #
coedge $-1 -1 $-1 $288 $418 $169 $280 reversed $167 $-1 #
edge $-1 -1 $-1 $295 -20 $420 20 $279 $421 forward @7 unknown #
coedge $-1 -1 $-1 $171 $170 $418 $422 forward $66 $-1 #
edge $-1 -1 $-1 $286 -60 $420 60 $278 $423 forward @7 unknown #
coedge $-1 -1 $-1 $291 $290 $171 $284 reversed $275 $-1 #
edge $-1 -1 $-1 $424 -60 $285 60 $283 $425 forward @7 unknown #
vertex $-1 -1 $-1 $173 $426 #
vertex $-1 -1 $-1 $297 $427 #
straight-curve $-1 -1 $-1 60 0 -20 0 -1 0 I I #
coedge $-1 -1 $-1 $277 $279 $174 $289 reversed $167 $-1 #
edge $-1 -1 $-1 $292 -40 $295 40 $288 $428 forward @7 unknown #
coedge $-1 -1 $-1 $283 $175 $180 $298 forward $275 $-1 #
coedge $-1 -1 $-1 $175 $283 $277 $419 reversed $275 $-1 #
vertex $-1 -1 $-1 $176 $429 #
straight-curve $-1 -1 $-1 0 40 20 -1 0 0 I I #
coedge $-1 -1 $-1 $177 $278 $179 $297 reversed $101 $-1 #
vertex $-1 -1 $-1 $289 $430 #
straight-curve $-1 -1 $-1 0 -40 20 1 0 0 I I #
edge $-1 -1 $-1 $182 -20 $286 20 $179 $431 forward @7 unknown #
edge $-1 -1 $-1 $183 -20 $285 20 $180 $432 forward @7 unknown #
point $-1 -1 $-1 60 -40 20 #
point $-1 -1 $-1 60 40 20 #
face $-1 -1 $-1 $433 $320 $25 $-1 $434 reversed single #
loop $-1 -1 $-1 $-1 $191 $185 #
coedge $-1 -1 $-1 $435 $188 $436 $437 reversed $109 $-1 #
coedge $-1 -1 $-1 $188 $435 $308 $325 reversed $109 $-1 #
coedge $-1 -1 $-1 $190 $189 $438 $439 reversed $70 $-1 #
coedge $-1 -1 $-1 $440 $441 $189 $307 forward $442 $-1 #
edge $-1 -1 $-1 $443 -40 $310 0 $306 $444 forward @7 unknown #
coedge $-1 -1 $-1 $309 $191 $304 $325 forward $302 $-1 #
coedge $-1 -1 $-1 $191 $308 $440 $445 forward $302 $-1 #
vertex $-1 -1 $-1 $192 $446 #
coedge $-1 -1 $-1 $447 $448 $193 $312 forward $449 $-1 #
edge $-1 -1 $-1 $321 -3.1415926535897931 $316 -1.5707963267948966 $311 $450 forward @7 unknown #
coedge $-1 -1 $-1 $451 $194 $199 $324 reversed $315 $-1 #
coedge $-1 -1 $-1 $194 $451 $447 $452 reversed $315 $-1 #
loop $-1 -1 $-1 $-1 $194 $453 #
vertex $-1 -1 $-1 $452 $454 #
straight-curve $-1 -1 $-1 60 0 20 0 0 1 I I #
coedge $-1 -1 $-1 $455 $196 $448 $456 reversed $320 $-1 #
coedge $-1 -1 $-1 $196 $455 $198 $323 reversed $320 $-1 #
loop $-1 -1 $-1 $-1 $196 $301 #
vertex $-1 -1 $-1 $312 $457 #
straight-curve $-1 -1 $-1 20.000000000000007 -40 20 0 0 1 I I #
edge $-1 -1 $-1 $201 20.000000000000007 $458 60 $319 $459 forward @7 unknown #
edge $-1 -1 $-1 $458 -40 $200 0 $313 $460 forward @7 unknown #
edge $-1 -1 $-1 $200 0 $461 40 $304 $460 forward @7 unknown #
point $-1 -1 $-1 60 0 20 #
point $-1 -1 $-1 20.000000000000007 -40 20 #
face $-1 -1 $-1 $354 $462 $27 $-1 $463 reversed single #
loop $-1 -1 $-1 $-1 $337 $203 #
plane-surface $-1 -1 $-1 36.035533905932738 13.964466094067262 -129.66629547095766 0 0 1 1 0 0 forward_v I I I I #
coedge $-1 -1 $-1 $464 $465 $351 $466 reversed $204 $-1 #
coedge $-1 -1 $-1 $467 $205 $468 $469 forward $117 $-1 #
coedge $-1 -1 $-1 $205 $467 $470 $471 reversed $117 $-1 #
coedge $-1 -1 $-1 $465 $464 $205 $335 forward $204 $-1 #
edge $472 -1 $-1 $473 -10 $474 10 $205 $475 forward @7 unknown #
coedge $-1 -1 $-1 $207 $206 $476 $477 reversed $73 $-1 #
coedge $-1 -1 $-1 $210 $478 $206 $338 forward $329 $-1 #
edge $-1 -1 $-1 $479 -21.81980515339464 $342 7.4282292658403932 $337 $480 forward @7 unknown #
coedge $-1 -1 $-1 $481 $212 $207 $340 reversed $348 $-1 #
edge $482 -1 $-1 $483 -14.016504294495531 $343 15.2315301247395 $339 $484 forward @7 unknown #
convexity-sys-attrib $-1 -1 $-1 $-1 $209 #
vertex $-1 -1 $-1 $211 $485 #
vertex $-1 -1 $-1 $213 $486 #
straight-curve $-1 -1 $-1 -3.2829826198486245 -10.859153003882323 -139.66629547095766 0 0 -1 I I #
coedge $-1 -1 $-1 $487 $210 $215 $353 forward $329 $-1 #
ellipse-curve $-1 -1 $-1 16.035533905932738 -16.035533905932738 -129.66629547095766 0 0 1 20 0 0 1 I I #
coedge $-1 -1 $-1 $212 $488 $214 $352 reversed $348 $-1 #
loop $-1 -1 $-1 $-1 $468 $489 #
convexity-sys-attrib $-1 -1 $-1 $-1 $213 #
ellipse-curve $-1 -1 $-1 16.035533905932738 -16.035533905932738 -149.66629547095766 0 0 1 20 0 0 1 I I #
coedge $-1 -1 $-1 $215 $214 $331 $466 forward $216 $-1 #
edge $490 -1 $-1 $218 -19.302741122722409 $491 15.338275028655147 $347 $492 forward @7 unknown #
edge $-1 -1 $-1 $217 -37.320508075688778 $493 -2.6794919243112254 $215 $494 forward @7 unknown #
face $-1 -1 $-1 $489 $216 $27 $-1 $495 reversed single #
point $-1 -1 $-1 -1.2849741697560404 -26.035533905932738 -129.66629547095766 #
point $-1 -1 $-1 -1.2849741697560404 -26.035533905932738 -149.66629547095766 #
face $-1 -1 $-1 $-1 $496 $29 $-1 $497 reversed single #
plane-surface $-1 -1 $-1 -9.7420428977777505 -4.4000927259532006 -139.66629547095766 0.70710678118654746 0.70710678118654757 0 0 0 1 forward_v I I I I #
coedge $-1 -1 $-1 $498 $368 $362 $499 reversed $221 $-1 #
coedge $-1 -1 $-1 $223 $372 $500 $501 forward $125 $-1 #
edge $-1 -1 $-1 $502 -5 $234 15 $223 $503 forward @7 unknown #
coedge $-1 -1 $-1 $225 $224 $359 $499 forward $77 $-1 #
coedge $-1 -1 $-1 $504 $505 $224 $364 reversed $496 $-1 #
edge $506 -1 $-1 $366 -2.2524551283654364 $507 -1.7082442053030551 $363 $508 forward @7 unknown #
coedge $-1 -1 $-1 $226 $232 $504 $509 forward $233 $-1 #
vertex $-1 -1 $-1 $364 $510 #
straight-curve $-1 -1 $-1 23.390169177302838 -37.532304801033781 -129.66629547095766 0 0 -1 I I #
coedge $-1 -1 $-1 $359 $511 $228 $369 reversed $221 $-1 #
edge $-1 -1 $-1 $370 -42.499505121618014 $373 21.81980515339464 $228 $512 forward @7 unknown #
vertex $-1 -1 $-1 $499 $513 #
ellipse-curve $-1 -1 $-1 -7.6709750859122678 -12.329024914087725 -129.66629547095766 0 0 1 0 40 0 1 I I #
coedge $-1 -1 $-1 $360 $230 $511 $514 forward $125 $-1 #
vertex $-1 -1 $-1 $231 $515 #
straight-curve $-1 -1 $-1 -27.670975085912275 27.670975085912275 -129.66629547095766 -1 0 0 I I #
point $-1 -1 $-1 -41.813110709643226 27.670975085912275 -129.66629547095766 #
point $-1 -1 $-1 23.390169177302838 -37.532304801033774 -129.66629547095766 #
model_id-kcp-attrib $-1 -1 $-1 $-1 $238 1 1021382394 1021382394 1350696961 8 #
face $516 -1 $-1 $517 $410 $9 $-1 $518 reversed single #
loop $-1 -1 $-1 $-1 $243 $238 #
plane-surface $-1 -1 $-1 -22.928932188134524 7.0710678118654755 10 -0.70710678118654746 -0.70710678118654757 0 0 0 1 forward_v I I I I #
coedge $-1 -1 $-1 $519 $520 $240 $382 reversed $521 $-1 #
edge $522 -1 $-1 $523 -20 $385 20 $240 $524 reversed @7 unknown #
coedge $-1 -1 $-1 $525 $241 $520 $526 forward $246 $-1 #
attrib_edge_convexity-kcp-attrib $-1 -1 $527 $-1 $242 1 #
vertex $-1 -1 $-1 $526 $528 #
coedge $-1 -1 $-1 $529 $243 $245 $390 reversed $379 $-1 #
coedge $-1 -1 $-1 $243 $529 $248 $393 forward $379 $-1 #
straight-curve $-1 -1 $-1 -5.1763809020504157 -10.681483474218632 10 0 0 1 I I #
coedge $-1 -1 $-1 $245 $530 $531 $532 forward $246 $-1 #
edge $-1 -1 $-1 $533 -34.748737341529164 $247 14.499297077705862 $245 $534 forward @7 unknown #
face $535 -1 $-1 $536 $246 $9 $-1 $83 forward single #
point $-1 -1 $-1 -5.1763809020504157 -10.681483474218632 20 #
edge $537 -1 $-1 $538 -24.142135623730947 $250 25.105898795504075 $387 $539 forward @7 unknown #
convexity-sys-attrib $-1 -1 $-1 $249 $141 #
point $-1 -1 $-1 -5.1763809020504157 -10.681483474218632 0 #
coedge $-1 -1 $-1 $255 $254 $540 $541 reversed $134 $-1 #
coedge $-1 -1 $-1 $542 $540 $257 $398 forward $410 $-1 #
edge $543 -1 $-1 $400 -4.142135623730951 $538 24.142135623730947 $397 $544 forward @7 unknown #
attrib_edge_convexity-kcp-attrib $-1 -1 $545 $-1 $258 2 #
vertex $-1 -1 $-1 $398 $546 #
straight-curve $-1 -1 $-1 -37.071067811865476 -7.0710678118654755 0 -0.70710678118654757 0.70710678118654746 0 I I #
coedge $-1 -1 $-1 $540 $266 $261 $403 reversed $410 $-1 #
edge $547 -1 $-1 $405 4.142135623730951 $269 40 $402 $548 forward @7 unknown #
attrib_edge_convexity-kcp-attrib $-1 -1 $549 $-1 $262 1 #
vertex $-1 -1 $-1 $262 $550 #
straight-curve $-1 -1 $-1 -29.571067811865476 -14.571067811865476 20 -0.70710678118654757 0.70710678118654746 0 I I #
coedge $-1 -1 $-1 $551 $552 $265 $408 forward $553 $-1 #
edge $554 -1 $-1 $523 -40 $412 40 $265 $555 forward @7 unknown #
coedge $-1 -1 $-1 $266 $556 $551 $557 reversed $410 $-1 #
loop $-1 -1 $-1 $-1 $540 $378 #
attrib_edge_convexity-kcp-attrib $-1 -1 $558 $-1 $267 1 #
vertex $-1 -1 $-1 $557 $559 #
straight-curve $-1 -1 $-1 -40 -40 0 0 0 -1 I I #
convexity-sys-attrib $-1 -1 $-1 $268 $160 #
point $-1 -1 $-1 -40 -40 20 #
convexity-sys-attrib $-1 -1 $-1 $271 $161 #
plane-surface $-1 -1 $-1 60 0 0 -1 0 0 0 0 1 forward_v I I I I #
coedge $-1 -1 $-1 $279 $277 $281 $422 reversed $167 $-1 #
edge $-1 -1 $-1 $292 -20 $424 20 $291 $560 forward @7 unknown #
vertex $-1 -1 $-1 $422 $561 #
straight-curve $-1 -1 $-1 -60 -40 0 0 0 -1 I I #
edge $-1 -1 $-1 $420 -40 $424 40 $418 $562 forward @7 unknown #
straight-curve $-1 -1 $-1 0 -40 -20 -1 0 0 I I #
vertex $-1 -1 $-1 $284 $563 #
straight-curve $-1 -1 $-1 0 40 -20 1 0 0 I I #
point $-1 -1 $-1 60 40 -20 #
point $-1 -1 $-1 60 -40 -20 #
straight-curve $-1 -1 $-1 -60 0 20 0 -1 0 I I #
point $-1 -1 $-1 -60 40 20 #
point $-1 -1 $-1 -60 -40 20 #
straight-curve $-1 -1 $-1 60 -40 0 0 0 -1 I I #
straight-curve $-1 -1 $-1 60 40 0 0 0 -1 I I #
face $-1 -1 $-1 $564 $449 $25 $-1 $565 reversed single #
plane-surface $-1 -1 $-1 0 -40 0 0 1 0 0 0 1 forward_v I I I I #
coedge $-1 -1 $-1 $304 $303 $566 $567 reversed $109 $-1 #
coedge $-1 -1 $-1 $438 $568 $303 $437 forward $569 $-1 #
edge $-1 -1 $-1 $570 -40 $316 0 $303 $571 forward @7 unknown #
coedge $-1 -1 $-1 $568 $436 $305 $439 forward $569 $-1 #
edge $-1 -1 $-1 $316 -1.5707963267948966 $443 0 $438 $450 forward @7 unknown #
coedge $-1 -1 $-1 $566 $306 $309 $445 reversed $442 $-1 #
coedge $-1 -1 $-1 $306 $566 $568 $572 reversed $442 $-1 #
loop $-1 -1 $-1 $-1 $306 $573 #
vertex $-1 -1 $-1 $572 $574 #
straight-curve $-1 -1 $-1 20.000000000000007 40 20 0 0 1 I I #
edge $-1 -1 $-1 $461 -60 $310 -20.000000000000007 $440 $575 forward @7 unknown #
point $-1 -1 $-1 20.000000000000007 40 20 #
coedge $-1 -1 $-1 $448 $311 $314 $452 forward $449 $-1 #
coedge $-1 -1 $-1 $311 $447 $318 $456 forward $449 $-1 #
loop $-1 -1 $-1 $-1 $311 $433 #
ellipse-curve $-1 -1 $-1 20.000000000000007 0 -20 0 0 1 0 40 0 1 I I #
coedge $-1 -1 $-1 $314 $313 $455 $576 forward $315 $-1 #
edge $-1 -1 $-1 $316 0 $577 40 $314 $571 forward @7 unknown #
face $-1 -1 $-1 $-1 $315 $25 $-1 $110 reversed single #
point $-1 -1 $-1 60 0 -20 #
coedge $-1 -1 $-1 $319 $318 $451 $576 reversed $320 $-1 #
edge $-1 -1 $-1 $577 -60 $321 -20.000000000000007 $318 $578 forward @7 unknown #
point $-1 -1 $-1 20.000000000000007 -40 -20 #
vertex $-1 -1 $-1 $324 $579 #
straight-curve $-1 -1 $-1 0 -40 20 1 0 0 I I #
straight-curve $-1 -1 $-1 60 0 20 0 1 0 I I #
vertex $-1 -1 $-1 $325 $580 #
loop $-1 -1 $-1 $-1 $476 $328 #
plane-surface $-1 -1 $-1 -23.964466094067262 13.964466094067262 -149.66629547095766 1 0 0 0 0 -1 forward_v I I I I #
coedge $-1 -1 $-1 $334 $331 $488 $581 forward $204 $-1 #
coedge $-1 -1 $-1 $331 $334 $487 $582 reversed $204 $-1 #
edge $-1 -1 $-1 $491 -10 $493 10 $351 $583 forward @7 unknown #
coedge $-1 -1 $-1 $333 $332 $584 $585 reversed $117 $-1 #
coedge $-1 -1 $-1 $488 $481 $332 $469 reversed $348 $-1 #
edge $586 -1 $-1 $473 -15.231530124739496 $587 34.016504294495533 $468 $588 forward @7 unknown #
coedge $-1 -1 $-1 $478 $487 $333 $471 forward $329 $-1 #
edge $-1 -1 $-1 $474 -7.4282292658403897 $589 41.81980515339464 $470 $590 forward @7 unknown #
convexity-sys-attrib $-1 -1 $-1 $-1 $335 #
vertex $-1 -1 $-1 $469 $591 #
vertex $-1 -1 $-1 $471 $592 #
straight-curve $-1 -1 $-1 10.859153003882323 3.2829826198486298 -139.66629547095766 0 0 1 I I #
coedge $-1 -1 $-1 $593 $594 $336 $477 forward $462 $-1 #
edge $-1 -1 $-1 $483 -5 $479 15 $476 $595 forward @7 unknown #
coedge $-1 -1 $-1 $337 $470 $593 $596 forward $329 $-1 #
vertex $-1 -1 $-1 $477 $597 #
straight-curve $-1 -1 $-1 -8.5355339059327378 -5.6066017177982133 -129.66629547095766 0.70710678118654757 -0.70710678118654746 0 I I #
coedge $-1 -1 $-1 $468 $339 $594 $598 reversed $348 $-1 #
convexity-sys-attrib $-1 -1 $-1 $-1 $340 #
vertex $-1 -1 $-1 $340 $599 #
straight-curve $-1 -1 $-1 -14.053300858899107 -0.088834764831843938 -149.66629547095766 0.70710678118654757 -0.70710678118654746 0 I I #
point $-1 -1 $-1 -3.2829826198486245 -10.859153003882323 -129.66629547095766 #
point $-1 -1 $-1 -3.2829826198486245 -10.859153003882323 -149.66629547095766 #
coedge $-1 -1 $-1 $470 $345 $465 $582 forward $329 $-1 #
coedge $-1 -1 $-1 $347 $468 $464 $581 reversed $348 $-1 #
face $-1 -1 $-1 $-1 $348 $27 $-1 $600 reversed single #
convexity-sys-attrib $-1 -1 $-1 $-1 $352 #
vertex $-1 -1 $-1 $581 $601 #
straight-curve $-1 -1 $-1 18.017766952966369 -26.035533905932738 -149.66629547095766 1 0 0 I I #
vertex $-1 -1 $-1 $466 $602 #
straight-curve $-1 -1 $-1 36.035533905932738 -26.035533905932738 -129.66629547095766 1 0 0 I I #
plane-surface $-1 -1 $-1 36.035533905932738 -26.035533905932738 -149.66629547095766 0 1 0 0 0 1 forward_v I I I I #
loop $-1 -1 $-1 $-1 $500 $357 #
plane-surface $-1 -1 $-1 0 0 -149.66629547095766 0 0 1 1 0 0 forward_v I I I I #
coedge $-1 -1 $-1 $511 $359 $505 $603 forward $221 $-1 #
edge $-1 -1 $-1 $507 -20 $370 0 $362 $604 forward @7 unknown #
coedge $-1 -1 $-1 $505 $504 $360 $501 reversed $496 $-1 #
edge $605 -1 $-1 $606 -0.30664808077481354 $502 27.977623166687088 $500 $607 forward @7 unknown #
vertex $-1 -1 $-1 $501 $608 #
straight-curve $-1 -1 $-1 -41.813110709643226 27.670975085912275 -144.66629547095766 0 0 1 I I #
coedge $-1 -1 $-1 $500 $363 $365 $509 reversed $496 $-1 #
coedge $-1 -1 $-1 $363 $500 $498 $603 reversed $496 $-1 #
convexity-sys-attrib $-1 -1 $-1 $-1 $364 #
vertex $-1 -1 $-1 $364 $609 #
ellipse-curve $-1 -1 $-1 -7.6709750859122678 -12.329024914087725 -149.66629547095766 0 0 1 0 40 0 1 I I #
edge $610 -1 $-1 $502 -47.244003654956273 $366 44.967359072371693 $504 $611 forward @7 unknown #
point $-1 -1 $-1 23.390169177302838 -37.532304801033774 -149.66629547095766 #
coedge $-1 -1 $-1 $368 $498 $372 $514 reversed $221 $-1 #
straight-curve $-1 -1 $-1 1.9000927259532006 12.24204289777775 -129.66629547095766 -0.70710678118654757 0.70710678118654746 0 I I #
point $-1 -1 $-1 31.951780994521712 -17.809645370790754 -129.66629547095766 #
edge $-1 -1 $-1 $373 -15 $606 5 $372 $612 forward @7 unknown #
point $-1 -1 $-1 -13.528839462181324 27.670975085912275 -129.66629547095766 #
model_id-kcp-attrib $-1 -1 $-1 $-1 $378 1 1021382394 1021382394 1350696961 9 #
face $613 -1 $-1 $614 $615 $9 $-1 $616 forward single #
plane-surface $-1 -1 $-1 -40 0 0 1 0 0 0 0 -1 forward_v I I I I #
coedge $-1 -1 $-1 $617 $381 $552 $618 reversed $521 $-1 #
coedge $-1 -1 $-1 $381 $619 $383 $526 reversed $521 $-1 #
loop $-1 -1 $-1 $-1 $620 $621 #
attrib_edge_convexity-kcp-attrib $-1 -1 $622 $-1 $382 3 #
vertex $-1 -1 $-1 $382 $623 #
straight-curve $-1 -1 $-1 40 -40 0 0 0 -1 I I #
coedge $-1 -1 $-1 $530 $383 $624 $625 forward $246 $-1 #
edge $-1 -1 $-1 $385 -1.5707963267948966 $626 -0.68165880157053971 $383 $627 forward @7 unknown #
convexity-sys-attrib $-1 -1 $-1 $384 $242 #
point $-1 -1 $-1 40 -40 20 #
coedge $-1 -1 $-1 $387 $386 $542 $628 reversed $379 $-1 #
coedge $-1 -1 $-1 $389 $525 $629 $630 forward $246 $-1 #
coedge $-1 -1 $-1 $556 $542 $389 $532 reversed $410 $-1 #
edge $631 -1 $-1 $632 -40 $533 -24.142135623730947 $531 $548 forward @7 unknown #
vertex $-1 -1 $-1 $532 $633 #
straight-curve $-1 -1 $-1 -15.428932188134523 -0.42893218813452405 20 0.70710678118654757 -0.70710678118654746 0 I I #
model_id-kcp-attrib $-1 -1 $-1 $-1 $391 1 1021382394 1021382394 1350696961 14 #
face $634 -1 $-1 $635 $636 $9 $-1 $83 forward single #
attrib_edge_convexity-kcp-attrib $-1 -1 $637 $-1 $393 2 #
vertex $-1 -1 $-1 $398 $638 #
straight-curve $-1 -1 $-1 -22.928932188134524 7.0710678118654755 0 0.70710678118654757 -0.70710678118654746 0 I I #
coedge $-1 -1 $-1 $397 $402 $396 $541 forward $410 $-1 #
edge $639 -1 $-1 $405 -15 $400 5 $540 $640 forward @7 unknown #
coedge $-1 -1 $-1 $531 $397 $529 $628 forward $410 $-1 #
attrib_edge_convexity-kcp-attrib $-1 -1 $641 $-1 $398 1 #
straight-curve $-1 -1 $-1 -40 0 0 0 1 0 I I #
convexity-sys-attrib $-1 -1 $-1 $399 $258 #
point $-1 -1 $-1 -40 -4.142135623730951 0 #
attrib_edge_convexity-kcp-attrib $-1 -1 $642 $-1 $403 1 #
straight-curve $-1 -1 $-1 -40 0 20 0 -1 0 I I #
convexity-sys-attrib $-1 -1 $-1 $404 $262 #
point $-1 -1 $-1 -40 -4.142135623730951 20 #
coedge $-1 -1 $-1 $643 $407 $409 $557 forward $553 $-1 #
coedge $-1 -1 $-1 $407 $643 $519 $618 forward $553 $-1 #
loop $-1 -1 $-1 $-1 $407 $635 #
model_id-kcp-attrib $-1 -1 $644 $-1 $408 1 1021382394 1021382394 1350696961 21 #
straight-curve $-1 -1 $-1 0 -40 -20 -1 0 0 I I #
coedge $-1 -1 $-1 $409 $531 $645 $646 forward $410 $-1 #
edge $647 -1 $-1 $412 -40 $648 40 $409 $649 forward @7 unknown #
convexity-sys-attrib $-1 -1 $-1 $411 $267 #
point $-1 -1 $-1 -40 -40 -20 #
straight-curve $-1 -1 $-1 -60 40 0 0 0 -1 I I #
point $-1 -1 $-1 -60 -40 -20 #
straight-curve $-1 -1 $-1 -60 0 -20 0 1 0 I I #
point $-1 -1 $-1 -60 40 -20 #
face $-1 -1 $-1 $573 $569 $25 $-1 $565 reversed single #
plane-surface $-1 -1 $-1 0 0 -20 0 0 1 1 0 0 forward_v I I I I #
coedge $-1 -1 $-1 $441 $440 $435 $567 forward $442 $-1 #
edge $-1 -1 $-1 $461 -20 $570 20 $435 $650 forward @7 unknown #
coedge $-1 -1 $-1 $436 $438 $441 $572 forward $569 $-1 #
loop $-1 -1 $-1 $-1 $438 $564 #
vertex $-1 -1 $-1 $437 $651 #
straight-curve $-1 -1 $-1 60 0 -20 0 -1 0 I I #
edge $-1 -1 $-1 $443 20.000000000000007 $570 60 $441 $652 forward @7 unknown #
face $-1 -1 $-1 $453 $442 $25 $-1 $653 reversed single #
point $-1 -1 $-1 20.000000000000007 40 -20 #
straight-curve $-1 -1 $-1 0 40 20 -1 0 0 I I #
edge $-1 -1 $-1 $458 -20 $577 20 $451 $654 forward @7 unknown #
vertex $-1 -1 $-1 $576 $655 #
straight-curve $-1 -1 $-1 0 -40 -20 -1 0 0 I I #
point $-1 -1 $-1 60 -40 20 #
point $-1 -1 $-1 60 40 20 #
edge $656 -1 $-1 $491 -0.5235987755982987 $473 1.8325957145940459 $488 $657 forward @7 unknown #
edge $-1 -1 $-1 $493 -0.52359877559829882 $474 1.8325957145940459 $487 $658 forward @7 unknown #
straight-curve $-1 -1 $-1 33.356041981621516 -26.035533905932738 -139.66629547095766 0 0 1 I I #
coedge $-1 -1 $-1 $594 $593 $467 $585 forward $462 $-1 #
edge $-1 -1 $-1 $589 -15 $587 5 $584 $659 forward @7 unknown #
convexity-sys-attrib $-1 -1 $-1 $-1 $469 #
vertex $-1 -1 $-1 $469 $660 #
straight-curve $-1 -1 $-1 0.088834764831843938 14.053300858899107 -149.66629547095766 -0.70710678118654757 0.70710678118654746 0 I I #
vertex $-1 -1 $-1 $596 $661 #
straight-curve $-1 -1 $-1 5.6066017177982133 8.5355339059327378 -129.66629547095766 -0.70710678118654757 0.70710678118654746 0 I I #
point $-1 -1 $-1 10.859153003882323 3.2829826198486298 -149.66629547095766 #
point $-1 -1 $-1 10.859153003882323 3.2829826198486298 -129.66629547095766 #
coedge $-1 -1 $-1 $584 $476 $478 $596 reversed $462 $-1 #
coedge $-1 -1 $-1 $476 $584 $481 $598 forward $462 $-1 #
straight-curve $-1 -1 $-1 -23.964466094067262 9.8223304703363112 -144.66629547095766 0 0 1 I I #
edge $-1 -1 $-1 $589 -24.142135623730947 $479 4.142135623730951 $593 $662 forward @7 unknown #
point $-1 -1 $-1 -23.964466094067262 9.8223304703363112 -129.66629547095766 #
edge $663 -1 $-1 $587 -31.124368670764582 $483 -2.8400974233026801 $481 $664 forward @7 unknown #
point $-1 -1 $-1 -23.964466094067262 9.8223304703363112 -149.66629547095766 #
plane-surface $-1 -1 $-1 0 0 -149.66629547095766 0 0 1 1 0 0 forward_v I I I I #
point $-1 -1 $-1 33.356041981621516 -26.035533905932738 -149.66629547095766 #
point $-1 -1 $-1 33.356041981621516 -26.035533905932738 -129.66629547095766 #
edge $665 -1 $-1 $507 -37.075306620056388 $606 27.244003654956266 $505 $666 forward @7 unknown #
straight-curve $-1 -1 $-1 31.951780994521712 -17.809645370790758 -129.66629547095766 0 0 1 I I #
convexity-sys-attrib $-1 -1 $-1 $-1 $501 #
vertex $-1 -1 $-1 $501 $667 #
straight-curve $-1 -1 $-1 -13.835487542956137 27.670975085912275 -149.66629547095766 -1 0 0 I I #
point $-1 -1 $-1 -41.813110709643226 27.670975085912275 -149.66629547095766 #
point $-1 -1 $-1 31.951780994521712 -17.809645370790754 -149.66629547095766 #
convexity-sys-attrib $-1 -1 $-1 $-1 $509 #
straight-curve $-1 -1 $-1 -8.406555354821613 -5.735580268909338 -149.66629547095766 0.70710678118654757 -0.70710678118654746 0 I I #
straight-curve $-1 -1 $-1 -13.528839462181324 27.670975085912275 -144.66629547095766 0 0 -1 I I #
model_id-kcp-attrib $-1 -1 $-1 $-1 $517 1 1021382394 1021382394 1350696961 10 #
face $668 -1 $-1 $669 $670 $9 $-1 $671 forward single #
loop $-1 -1 $-1 $-1 $672 $517 #
plane-surface $-1 -1 $-1 37.928932188134524 7.9289321881345245 10 0.70710678118654746 0.70710678118654757 0 0 0 1 forward_v I I I I #
coedge $-1 -1 $-1 $673 $519 $674 $675 forward $521 $-1 #
edge $-1 -1 $-1 $676 -1.5707963267948966 $523 1.5707963267948966 $552 $677 forward @7 unknown #
coedge $-1 -1 $-1 $520 $678 $672 $679 forward $521 $-1 #
coedge $-1 -1 $-1 $678 $673 $680 $681 forward $521 $-1 #
face $682 -1 $-1 $391 $521 $9 $-1 $683 forward single #
convexity-sys-attrib $-1 -1 $-1 $522 $382 #
point $-1 -1 $-1 40 -40 -20 #
coedge $-1 -1 $-1 $672 $684 $525 $625 reversed $615 $-1 #
edge $-1 -1 $-1 $626 -57.462625385798802 $685 34.748737341529164 $525 $686 forward @7 unknown #
vertex $-1 -1 $-1 $526 $687 #
ellipse-curve $-1 -1 $-1 40 0 20 0 0 1 40 0 0 1 I I #
edge $688 -1 $-1 $538 -5 $533 15 $542 $689 forward @7 unknown #
coedge $-1 -1 $-1 $690 $645 $530 $630 reversed $691 $-1 #
edge $-1 -1 $-1 $685 -5.857864376269049 $632 40 $629 $692 forward @7 unknown #
attrib_edge_convexity-kcp-attrib $-1 -1 $693 $-1 $532 1 #
vertex $-1 -1 $-1 $630 $694 #
point $-1 -1 $-1 -40 24.142135623730947 20 #
model_id-kcp-attrib $-1 -1 $-1 $-1 $536 1 1021382394 1021382394 1350696961 15 #
face $695 -1 $-1 $696 $553 $9 $-1 $697 reversed single #
loop $-1 -1 $-1 $-1 $698 $536 #
convexity-sys-attrib $-1 -1 $-1 $537 $393 #
point $-1 -1 $-1 -40 24.142135623730947 0 #
attrib_edge_convexity-kcp-attrib $-1 -1 $699 $-1 $541 1 #
straight-curve $-1 -1 $-1 -40 -4.142135623730951 5 0 0 -1 I I #
convexity-sys-attrib $-1 -1 $-1 $543 $398 #
convexity-sys-attrib $-1 -1 $-1 $547 $403 #
coedge $-1 -1 $-1 $552 $551 $700 $701 forward $553 $-1 #
attrib_edge_convexity-kcp-attrib $-1 -1 $702 $554 $408 1 #
coedge $-1 -1 $-1 $629 $700 $556 $646 reversed $691 $-1 #
edge $703 -1 $-1 $632 -20 $648 20 $645 $704 forward @7 unknown #
model_id-kcp-attrib $-1 -1 $705 $-1 $557 1 1021382394 1021382394 1350696961 20 #
vertex $-1 -1 $-1 $701 $706 #
straight-curve $-1 -1 $-1 -40 0 -20 0 1 0 I I #
straight-curve $-1 -1 $-1 60 40 0 0 0 -1 I I #
point $-1 -1 $-1 60 40 -20 #
straight-curve $-1 -1 $-1 0 40 -20 1 0 0 I I #
plane-surface $-1 -1 $-1 0 40 0 0 -1 0 0 0 -1 forward_v I I I I #
straight-curve $-1 -1 $-1 60 -40 0 0 0 -1 I I #
point $-1 -1 $-1 60 -40 -20 #
convexity-sys-attrib $-1 -1 $-1 $-1 $581 #
ellipse-curve $-1 -1 $-1 16.035533905932738 -16.035533905932738 -149.66629547095766 0 0 1 20 0 0 1 I I #
ellipse-curve $-1 -1 $-1 16.035533905932738 -16.035533905932738 -129.66629547095766 0 0 1 20 0 0 1 I I #
straight-curve $-1 -1 $-1 -23.964466094067262 38.106601717798206 -144.66629547095766 0 0 -1 I I #
point $-1 -1 $-1 -23.964466094067262 38.106601717798213 -149.66629547095766 #
point $-1 -1 $-1 -23.964466094067262 38.106601717798213 -129.66629547095766 #
straight-curve $-1 -1 $-1 -23.964466094067262 13.964466094067262 -129.66629547095766 0 -1 0 I I #
convexity-sys-attrib $-1 -1 $-1 $-1 $598 #
straight-curve $-1 -1 $-1 -23.964466094067262 6.9822330470336311 -149.66629547095766 0 -1 0 I I #
convexity-sys-attrib $-1 -1 $-1 $-1 $603 #
straight-curve $-1 -1 $-1 5.735580268909338 8.406555354821613 -149.66629547095766 -0.70710678118654757 0.70710678118654746 0 I I #
point $-1 -1 $-1 -13.528839462181324 27.670975085912275 -149.66629547095766 #
model_id-kcp-attrib $-1 -1 $-1 $-1 $614 1 1021382394 1021382394 1350696961 11 #
face $707 -1 $-1 $621 $708 $9 $-1 $709 forward single #
loop $-1 -1 $-1 $-1 $710 $614 #
plane-surface $-1 -1 $-1 45 15 0 0 0 1 0.70710678118654757 -0.70710678118654746 0 forward_v I I I I #
coedge $-1 -1 $-1 $711 $624 $619 $679 reversed $615 $-1 #
coedge $-1 -1 $-1 $620 $617 $712 $713 reversed $521 $-1 #
coedge $-1 -1 $-1 $700 $714 $617 $675 reversed $691 $-1 #
edge $-1 -1 $-1 $676 -20 $715 20 $674 $716 reversed @7 unknown #
vertex $-1 -1 $-1 $618 $717 #
ellipse-curve $-1 -1 $-1 40 0 -20 0 0 -1 40 0 0 1 I I #
coedge $-1 -1 $-1 $619 $620 $710 $718 forward $521 $-1 #
edge $-1 -1 $-1 $719 0 $626 20 $619 $720 forward @7 unknown #
coedge $-1 -1 $-1 $721 $722 $620 $681 reversed $708 $-1 #
edge $-1 -1 $-1 $723 -20 $724 0 $620 $725 forward @7 unknown #
model_id-kcp-attrib $-1 -1 $-1 $-1 $621 1 1021382394 1021382394 1350696961 13 #
cone-surface $-1 -1 $-1 40 0 0 0 0 1 40 0 0 1 I I 0 1 40 forward I I I I #
coedge $-1 -1 $-1 $624 $711 $690 $726 reversed $615 $-1 #
vertex $-1 -1 $-1 $726 $727 #
straight-curve $-1 -1 $-1 30.428932188134524 15.428932188134526 20 -0.70710678118654757 0.70710678118654746 0 I I #
point $-1 -1 $-1 71.061144263215112 -25.203279886946053 20 #
attrib_edge_convexity-kcp-attrib $-1 -1 $728 $-1 $628 1 #
straight-curve $-1 -1 $-1 -40 24.142135623730944 5 0 0 1 I I #
coedge $-1 -1 $-1 $729 $629 $684 $726 forward $691 $-1 #
loop $-1 -1 $-1 $-1 $730 $696 #
straight-curve $-1 -1 $-1 0 40 20 -1 0 0 I I #
convexity-sys-attrib $-1 -1 $-1 $631 $532 #
point $-1 -1 $-1 -40 40 20 #
model_id-kcp-attrib $-1 -1 $-1 $-1 $635 1 1021382394 1021382394 1350696961 16 #
face $731 -1 $-1 $-1 $691 $9 $-1 $732 reversed single #
plane-surface $-1 -1 $-1 0 0 -20 0 0 1 1 0 0 forward_v I I I I #
coedge $-1 -1 $-1 $712 $733 $721 $734 forward $636 $-1 #
convexity-sys-attrib $-1 -1 $-1 $639 $541 #
coedge $-1 -1 $-1 $645 $674 $643 $701 reversed $691 $-1 #
edge $735 -1 $-1 $648 -40 $676 40 $700 $736 forward @7 unknown #
convexity-sys-attrib $-1 -1 $-1 $644 $408 #
attrib_edge_convexity-kcp-attrib $-1 -1 $737 $-1 $646 1 #
straight-curve $-1 -1 $-1 -40 40 0 0 0 -1 I I #
attrib_edge_convexity-kcp-attrib $-1 -1 $738 $647 $557 1 #
point $-1 -1 $-1 -40 40 -20 #
model_id-kcp-attrib $-1 -1 $-1 $-1 $669 1 1021382394 1021382394 1350696961 12 #
loop $-1 -1 $-1 $-1 $680 $669 #
plane-surface $-1 -1 $-1 52.071067811865476 22.071067811865476 10 -0.70710678118654746 -0.70710678118654757 0 0 0 -1 forward_v I I I I #
coedge $-1 -1 $-1 $739 $740 $678 $718 reversed $670 $-1 #
coedge $-1 -1 $-1 $684 $672 $740 $741 forward $615 $-1 #
coedge $-1 -1 $-1 $733 $698 $673 $713 forward $636 $-1 #
edge $-1 -1 $-1 $723 -0.13744787850815843 $715 1.5707963267948966 $712 $627 forward @7 unknown #
coedge $-1 -1 $-1 $674 $730 $733 $742 reversed $691 $-1 #
vertex $-1 -1 $-1 $742 $743 #
straight-curve $-1 -1 $-1 40 40 0 0 0 -1 I I #
point $-1 -1 $-1 40 40 -20 #
edge $744 -1 $-1 $724 0.13744787850815843 $719 0.68165880157053971 $678 $745 forward @7 unknown #
vertex $-1 -1 $-1 $718 $746 #
straight-curve $-1 -1 $-1 71.061144263215112 -25.203279886946053 0 0 0 1 I I #
coedge $-1 -1 $-1 $747 $680 $698 $734 reversed $708 $-1 #
coedge $-1 -1 $-1 $680 $747 $739 $748 forward $708 $-1 #
vertex $-1 -1 $-1 $734 $749 #
vertex $-1 -1 $-1 $718 $750 #
straight-curve $-1 -1 $-1 79.622756080433987 -5.4806204567030292 0 0 0 -1 I I #
edge $-1 -1 $-1 $685 -15 $751 5 $690 $752 forward @7 unknown #
point $-1 -1 $-1 5.857864376269049 40 20 #
convexity-sys-attrib $-1 -1 $-1 $688 $628 #
coedge $-1 -1 $-1 $730 $690 $753 $754 forward $691 $-1 #
coedge $-1 -1 $-1 $714 $729 $747 $755 forward $691 $-1 #
model_id-kcp-attrib $-1 -1 $-1 $-1 $696 1 1021382394 1021382394 1350696961 17 #
plane-surface $-1 -1 $-1 0 40 0 0 -1 0 0 0 -1 forward_v I I I I #
coedge $-1 -1 $-1 $698 $712 $714 $742 forward $636 $-1 #
edge $-1 -1 $-1 $756 -14.748737341529164 $723 49.57057293348349 $698 $757 forward @7 unknown #
model_id-kcp-attrib $-1 -1 $-1 $-1 $701 1 1021382394 1021382394 1350696961 19 #
straight-curve $-1 -1 $-1 0 40 -20 1 0 0 I I #
convexity-sys-attrib $-1 -1 $-1 $703 $646 #
convexity-sys-attrib $-1 -1 $-1 $705 $557 #
coedge $-1 -1 $-1 $753 $710 $722 $748 reversed $670 $-1 #
coedge $-1 -1 $-1 $710 $753 $711 $741 reversed $670 $-1 #
edge $758 -1 $-1 $719 -46.856023668000581 $751 45.355339059327378 $711 $759 forward @7 unknown #
edge $-1 -1 $-1 $715 -40 $756 -34.142135623730951 $714 $692 forward @7 unknown #
point $-1 -1 $-1 40 40 20 #
attrib_edge_convexity-kcp-attrib $-1 -1 $760 $-1 $718 1 #
ellipse-curve $-1 -1 $-1 40 0 0 0 0 -1 40 0 0 1 I I #
point $-1 -1 $-1 71.061144263215112 -25.203279886946053 0 #
coedge $-1 -1 $-1 $722 $721 $730 $755 reversed $708 $-1 #
edge $761 -1 $-1 $762 -25.355339059327378 $724 38.963971215685277 $722 $763 forward @7 unknown #
point $-1 -1 $-1 79.622756080433987 -5.4806204567030292 20 #
point $-1 -1 $-1 79.622756080433987 -5.4806204567030292 0 #
vertex $-1 -1 $-1 $754 $764 #
straight-curve $-1 -1 $-1 5.8578643762690472 40 5 0 0 -1 I I #
coedge $-1 -1 $-1 $740 $739 $729 $754 reversed $670 $-1 #
edge $765 -1 $-1 $751 -16.642135623730951 $762 11.642135623730951 $729 $766 forward @7 unknown #
edge $-1 -1 $-1 $762 -5 $756 15 $730 $767 forward @7 unknown #
vertex $-1 -1 $-1 $742 $768 #
straight-curve $-1 -1 $-1 44.571067811865476 29.571067811865476 20 0.70710678118654757 -0.70710678118654746 0 I I #
attrib_edge_convexity-kcp-attrib $-1 -1 $769 $-1 $741 2 #
straight-curve $-1 -1 $-1 37.928932188134524 7.9289321881345245 0 -0.70710678118654757 0.70710678118654746 0 I I #
convexity-sys-attrib $-1 -1 $-1 $744 $718 #
attrib_edge_convexity-kcp-attrib $-1 -1 $770 $-1 $748 2 #
vertex $-1 -1 $-1 $754 $771 #
straight-curve $-1 -1 $-1 52.071067811865476 22.071067811865476 0 0.70710678118654757 -0.70710678118654746 0 I I #
point $-1 -1 $-1 5.857864376269049 40 0 #
attrib_edge_convexity-kcp-attrib $-1 -1 $772 $-1 $754 1 #
straight-curve $-1 -1 $-1 22.5 40 0 1 0 0 I I #
straight-curve $-1 -1 $-1 34.142135623730951 40 5 0 0 1 I I #
point $-1 -1 $-1 34.142135623730951 40 20 #
convexity-sys-attrib $-1 -1 $-1 $758 $741 #
convexity-sys-attrib $-1 -1 $-1 $761 $748 #
point $-1 -1 $-1 34.142135623730951 40 0 #
convexity-sys-attrib $-1 -1 $-1 $765 $754 #
End-of-ACIS-data 