600 0 2 0           
24 FBMach with ACIS - 6.0.3 13 ACIS 6.0.3 NT 24 Wed May 23 20:18:46 2001 
1 9.9999999999999995e-007 1e-010 
body $2 $3 $-1 $4 #
bdycol-kcp $-1 1 4 $5 $6 $7 $8 #
model_id-kcp-attrib $-1 $-1 $-1 $0 1 990663526 60 289144833 1 #
lump $-1 $-1 $9 $0 #
transform $-1 1 0 0 0 1 0 0 0 1 0 0 0 1 no_rotate no_reflect no_shear #
body $10 $11 $-1 $12 #
body $13 $14 $-1 $15 #
body $16 $17 $-1 $18 #
body $19 $20 $-1 $21 #
shell $-1 $-1 $-1 $22 $-1 $3 #
model_id-kcp-attrib $-1 $-1 $-1 $5 1 990663526 60 289144834 1 #
lump $-1 $-1 $23 $5 #
transform $-1 1 0 0 0 1 0 0 0 1 20 0 0 1 no_rotate no_reflect no_shear #
rgb_color-st-attrib $-1 $24 $-1 $6 0.5 1 1 #
lump $-1 $-1 $25 $6 #
transform $-1 1 0 0 0 1 0 0 0 1 20 0 0 1 no_rotate no_reflect no_shear #
rgb_color-st-attrib $-1 $26 $-1 $7 1 0 0 #
lump $-1 $-1 $27 $7 #
transform $-1 1 0 0 0 1 0 0 0 1 47.670975085912275 12.329024914087725 149.66629547095766 1 no_rotate no_reflect no_shear #
rgb_color-st-attrib $-1 $28 $-1 $8 0.59999999999999998 0.90000000000000002 1 #
lump $-1 $-1 $29 $8 #
transform $-1 1 0 0 0 1 0 0 0 1 -16.035533905932738 -13.964466094067262 149.66629547095766 1 no_rotate no_reflect no_shear #
face $30 $31 $32 $9 $-1 $33 reversed single #
shell $-1 $-1 $-1 $34 $-1 $11 #
model_id-kcp-attrib $-1 $-1 $13 $6 1 990663526 210 298975235 1 #
shell $-1 $-1 $-1 $35 $-1 $14 #
model_id-kcp-attrib $-1 $-1 $16 $7 1 990663526 500 301203460 1 #
shell $-1 $-1 $-1 $36 $-1 $17 #
model_id-kcp-attrib $-1 $-1 $19 $8 1 990663526 670 295567365 1 #
shell $-1 $-1 $-1 $37 $-1 $20 #
model_id-kcp-attrib $-1 $-1 $-1 $22 1 990663526 60 289144833 2 #
face $38 $39 $40 $9 $-1 $33 reversed single #
loop $-1 $-1 $41 $22 #
cone-surface $-1 0 -30 10 0 0 1 20 0 0 1 I I 0 1 20 forward I I I I #
face $42 $43 $44 $23 $-1 $45 forward single #
face $-1 $46 $47 $25 $-1 $48 reversed single #
face $-1 $49 $50 $27 $-1 $51 forward single #
face $-1 $52 $53 $29 $-1 $54 forward single #
model_id-kcp-attrib $-1 $-1 $-1 $31 1 990663526 60 289144833 3 #
face $55 $56 $57 $9 $-1 $58 reversed single #
loop $-1 $-1 $59 $31 #
coedge $-1 $60 $61 $62 $63 reversed $32 $-1 #
model_id-kcp-attrib $-1 $64 $-1 $34 1 990663526 60 289144834 6 #
face $65 $66 $67 $23 $-1 $68 reversed single #
loop $-1 $-1 $69 $34 #
plane-surface $-1 0 0 20 0 0 1 1 0 0 forward_v I I I I #
face $-1 $70 $71 $25 $-1 $48 reversed single #
loop $-1 $-1 $72 $35 #
cone-surface $-1 20.000000000000007 0 20 0 0 1 0 40 0 1 I I 0 1 40 forward I I I I #
face $-1 $73 $74 $27 $-1 $75 forward single #
loop $-1 $-1 $76 $36 #
plane-surface $-1 -27.670975085912275 -12.329024914087725 -129.66629547095766 0 0 1 1 0 0 forward_v I I I I #
face $-1 $77 $78 $29 $-1 $79 reversed single #
loop $-1 $-1 $80 $37 #
cone-surface $-1 16.035533905932738 -16.035533905932738 -139.66629547095766 0 0 1 20 0 0 1 I I 0 1 20 forward I I I I #
model_id-kcp-attrib $-1 $-1 $-1 $39 1 990663526 60 289144833 4 #
face $81 $82 $83 $9 $-1 $84 forward single #
loop $-1 $-1 $85 $39 #
plane-surface $-1 0 -40 0 0 1 0 0 0 1 forward_v I I I I #
coedge $-1 $86 $87 $85 $88 reversed $40 $-1 #
coedge $-1 $89 $41 $90 $91 forward $32 $-1 #
coedge $-1 $41 $89 $92 $93 reversed $32 $-1 #
coedge $-1 $94 $95 $41 $63 forward $57 $-1 #
edge $96 $97 -10 $98 10 $62 $99 forward 7 unknown #
model_id-kcp-attrib $-1 $100 $42 $34 1 990663526 60 289144834 5 #
model_id-kcp-attrib $-1 $-1 $-1 $43 1 990663526 60 289144834 7 #
face $101 $102 $103 $23 $-1 $104 reversed single #
loop $-1 $-1 $105 $43 #
plane-surface $-1 0 0 -20 0 0 1 1 0 0 forward_v I I I I #
coedge $-1 $106 $107 $108 $109 forward $44 $-1 #
face $-1 $110 $111 $25 $-1 $112 reversed single #
loop $-1 $-1 $113 $46 #
coedge $-1 $114 $115 $116 $117 reversed $47 $-1 #
face $-1 $118 $119 $27 $-1 $120 reversed single #
loop $-1 $-1 $121 $49 #
cone-surface $-1 -7.6709750859122678 -12.329024914087725 -129.66629547095766 0 0 1 0 40 0 1 I I 0 1 40 forward I I I I #
coedge $-1 $122 $123 $124 $125 forward $50 $-1 #
face $-1 $126 $127 $29 $-1 $128 reversed single #
loop $-1 $-1 $129 $52 #
plane-surface $-1 -21.035533905932738 6.8933982822017867 -139.66629547095766 0.70710678118654746 0.70710678118654757 0 0 0 -1 forward_v I I I I #
coedge $-1 $130 $131 $132 $133 reversed $53 $-1 #
model_id-kcp-attrib $-1 $134 $-1 $56 1 990663526 60 289144833 18 #
face $135 $136 $137 $9 $-1 $138 forward single #
loop $-1 $-1 $92 $56 #
plane-surface $-1 0 0 20 0 0 1 1 0 0 forward_v I I I I #
coedge $-1 $95 $139 $59 $88 forward $57 $-1 #
coedge $-1 $140 $59 $141 $142 reversed $40 $-1 #
coedge $-1 $59 $140 $143 $144 forward $40 $-1 #
edge $145 $146 -10 $147 10 $85 $148 forward 7 unknown #
coedge $-1 $61 $60 $149 $150 reversed $32 $-1 #
coedge $-1 $151 $152 $60 $91 reversed $153 $-1 #
edge $-1 $97 2.6179938779914944 $154 3.4033920413889422 $90 $155 forward 7 unknown #
coedge $-1 $156 $157 $61 $93 forward $83 $-1 #
edge $158 $98 2.6179938779914944 $159 3.4033920413889422 $92 $160 forward 7 unknown #
coedge $-1 $161 $62 $157 $162 reversed $57 $-1 #
coedge $-1 $62 $85 $151 $163 forward $57 $-1 #
attrib_edge_convexity-kcp-attrib $-1 $164 $-1 $63 1 #
vertex $-1 $63 $165 #
vertex $-1 $162 $166 #
straight-curve $-1 -17.320508075688775 -40 10 0 0 1 I I #
model_id-kcp-attrib $-1 $-1 $64 $34 1 990663526 60 289144834 3 #
model_id-kcp-attrib $-1 $-1 $-1 $66 1 990663526 60 289144834 2 #
face $167 $168 $169 $23 $-1 $170 reversed single #
loop $-1 $-1 $171 $66 #
plane-surface $-1 0 -40 0 0 1 0 0 0 1 forward_v I I I I #
coedge $-1 $172 $173 $174 $175 forward $67 $-1 #
coedge $-1 $176 $69 $177 $178 forward $44 $-1 #
coedge $-1 $69 $176 $179 $180 forward $44 $-1 #
coedge $-1 $181 $182 $69 $109 reversed $183 $-1 #
edge $-1 $184 -40 $185 40 $108 $186 forward 7 unknown #
face $-1 $187 $188 $25 $-1 $189 forward single #
loop $-1 $-1 $190 $70 #
plane-surface $-1 60 0 0 -1 0 0 0 0 1 forward_v I I I I #
coedge $-1 $191 $192 $193 $194 reversed $71 $-1 #
coedge $-1 $195 $72 $196 $197 reversed $47 $-1 #
coedge $-1 $72 $195 $198 $199 forward $47 $-1 #
coedge $-1 $200 $201 $72 $117 forward $188 $-1 #
edge $-1 $202 1.5707963267948966 $203 3.1415926535897931 $116 $204 forward 7 unknown #
face $-1 $205 $206 $27 $-1 $207 reversed single #
loop $-1 $-1 $208 $73 #
plane-surface $-1 -27.670975085912275 27.670975085912275 -149.66629547095766 0 -1 0 0 0 -1 forward_v I I I I #
coedge $-1 $209 $210 $211 $212 forward $74 $-1 #
coedge $-1 $213 $76 $210 $214 forward $50 $-1 #
coedge $-1 $76 $213 $215 $216 forward $50 $-1 #
coedge $-1 $217 $211 $76 $125 reversed $218 $-1 #
edge $-1 $219 -41.81980515339464 $220 50.391557573933319 $76 $221 forward 7 unknown #
face $-1 $222 $223 $29 $-1 $54 forward single #
loop $-1 $-1 $224 $77 #
plane-surface $-1 -6.8933982822017867 21.035533905932738 -139.66629547095766 -0.70710678118654746 -0.70710678118654757 0 0 0 1 forward_v I I I I #
coedge $-1 $225 $226 $227 $228 reversed $78 $-1 #
coedge $-1 $227 $80 $229 $230 reversed $53 $-1 #
coedge $-1 $80 $227 $231 $232 forward $53 $-1 #
coedge $-1 $233 $234 $80 $133 forward $235 $-1 #
edge $-1 $236 -10 $237 10 $132 $238 forward 7 unknown #
model_id-kcp-attrib $-1 $-1 $81 $56 1 990663526 60 289144833 5 #
model_id-kcp-attrib $-1 $-1 $-1 $82 1 990663526 60 289144833 6 #
face $239 $240 $153 $9 $-1 $241 forward single #
loop $-1 $-1 $149 $82 #
plane-surface $-1 -37.071067811865476 -7.0710678118654755 10 0.70710678118654746 0.70710678118654757 0 0 0 -1 forward_v I I I I #
coedge $-1 $85 $242 $243 $244 reversed $57 $-1 #
coedge $-1 $87 $86 $245 $246 reversed $40 $-1 #
coedge $-1 $243 $247 $86 $142 forward $248 $-1 #
edge $-1 $249 -1.8325957145940459 $146 0.52359877559829882 $141 $160 forward 7 unknown #
coedge $-1 $250 $151 $87 $144 reversed $153 $-1 #
edge $-1 $251 -1.8325957145940459 $147 0.52359877559829882 $143 $155 forward 7 unknown #
attrib_edge_convexity-kcp-attrib $-1 $252 $-1 $88 1 #
vertex $-1 $142 $253 #
vertex $-1 $88 $254 #
straight-curve $-1 17.320508075688775 -40 10 0 0 -1 I I #
coedge $-1 $255 $256 $89 $150 forward $137 $-1 #
edge $-1 $159 -10 $154 10 $149 $257 forward 7 unknown #
coedge $-1 $143 $90 $95 $163 reversed $153 $-1 #
coedge $-1 $90 $258 $255 $259 reversed $153 $-1 #
loop $-1 $-1 $250 $136 #
vertex $-1 $91 $260 #
ellipse-curve $-1 0 -30 0 0 0 -1 20 0 0 1 I I #
coedge $-1 $261 $92 $256 $262 forward $83 $-1 #
coedge $-1 $92 $261 $94 $162 forward $83 $-1 #
attrib_edge_convexity-kcp-attrib $-1 $263 $-1 $93 1 #
vertex $-1 $150 $264 #
ellipse-curve $-1 0 -30 20 0 0 -1 20 0 0 1 I I #
coedge $-1 $265 $94 $266 $267 forward $57 $-1 #
edge $268 $269 -40 $98 -17.320508075688775 $94 $270 forward 7 unknown #
edge $271 $147 -17.320508075688775 $97 17.320508075688775 $95 $272 forward 7 unknown #
convexity-sys-attrib $-1 $-1 $96 $63 #
point $-1 -17.320508075688775 -40 0 #
point $-1 -17.320508075688775 -40 20 #
model_id-kcp-attrib $-1 $-1 $-1 $102 1 990663526 60 289144834 4 #
face $273 $274 $275 $23 $-1 $276 reversed single #
loop $-1 $-1 $277 $102 #
plane-surface $-1 -60 0 0 1 0 0 0 0 -1 forward_v I I I I #
coedge $-1 $278 $179 $279 $280 forward $103 $-1 #
coedge $-1 $281 $105 $278 $282 forward $67 $-1 #
coedge $-1 $105 $281 $283 $284 forward $67 $-1 #
coedge $-1 $182 $181 $105 $175 reversed $183 $-1 #
edge $-1 $285 -40 $286 40 $174 $287 forward 7 unknown #
coedge $-1 $107 $106 $288 $289 forward $44 $-1 #
coedge $-1 $290 $291 $106 $178 reversed $275 $-1 #
edge $-1 $185 -60 $292 60 $177 $293 forward 7 unknown #
coedge $-1 $171 $294 $107 $180 reversed $103 $-1 #
edge $-1 $295 -60 $184 60 $179 $296 forward 7 unknown #
coedge $-1 $174 $108 $294 $297 forward $183 $-1 #
coedge $-1 $108 $174 $290 $298 reversed $183 $-1 #
loop $-1 $-1 $181 $274 #
vertex $-1 $109 $299 #
vertex $-1 $109 $300 #
straight-curve $-1 60 0 20 0 1 0 I I #
face $-1 $301 $302 $25 $-1 $189 forward single #
loop $-1 $-1 $116 $110 #
plane-surface $-1 0 0 20 0 0 1 1 0 0 forward_v I I I I #
coedge $-1 $303 $304 $192 $197 reversed $111 $-1 #
coedge $-1 $305 $113 $306 $307 reversed $71 $-1 #
coedge $-1 $113 $305 $114 $197 forward $71 $-1 #
coedge $-1 $308 $309 $113 $194 forward $302 $-1 #
edge $-1 $310 0 $202 1.5707963267948966 $193 $204 forward 7 unknown #
coedge $-1 $115 $114 $311 $312 reversed $47 $-1 #
coedge $-1 $313 $314 $190 $197 forward $315 $-1 #
edge $-1 $316 -40 $202 0 $196 $317 forward 7 unknown #
coedge $-1 $318 $319 $115 $199 reversed $320 $-1 #
edge $-1 $321 -40 $203 0 $198 $322 forward 7 unknown #
coedge $-1 $201 $116 $319 $323 forward $188 $-1 #
coedge $-1 $116 $200 $313 $324 forward $188 $-1 #
vertex $-1 $325 $326 #
vertex $-1 $323 $327 #
ellipse-curve $-1 20.000000000000007 0 20 0 0 -1 0 40 0 1 I I #
face $-1 $328 $218 $27 $-1 $329 reversed single #
loop $-1 $-1 $330 $118 #
plane-surface $-1 4.4000927259532006 9.7420428977777505 -139.66629547095766 -0.70710678118654746 -0.70710678118654757 0 0 0 -1 forward_v I I I I #
coedge $-1 $215 $331 $217 $332 forward $119 $-1 #
coedge $-1 $333 $121 $334 $335 forward $74 $-1 #
coedge $-1 $121 $333 $122 $214 reversed $74 $-1 #
coedge $-1 $124 $336 $121 $212 reversed $218 $-1 #
edge $-1 $220 0 $337 20 $121 $338 forward 7 unknown #
coedge $-1 $123 $122 $339 $340 forward $50 $-1 #
edge $-1 $220 -2.2524551283654364 $341 -1.7082442053030551 $122 $342 forward 7 unknown #
coedge $-1 $343 $208 $123 $216 reversed $119 $-1 #
edge $-1 $344 -14.142135623730951 $219 14.142135623730951 $215 $345 forward 7 unknown #
coedge $-1 $336 $124 $208 $332 reversed $218 $-1 #
loop $-1 $-1 $211 $205 #
vertex $-1 $332 $346 #
vertex $-1 $214 $347 #
straight-curve $-1 -12.24204289777775 -1.9000927259532006 -129.66629547095766 0.70710678118654757 -0.70710678118654746 0 I I #
face $-1 $348 $349 $29 $-1 $350 forward single #
loop $-1 $-1 $351 $126 #
coedge $-1 $352 $353 $354 $355 reversed $127 $-1 #
coedge $-1 $356 $129 $357 $358 reversed $78 $-1 #
coedge $-1 $129 $356 $359 $360 forward $78 $-1 #
coedge $-1 $131 $130 $129 $228 forward $53 $-1 #
edge $361 $362 -10 $363 10 $129 $364 forward 7 unknown #
coedge $-1 $365 $357 $130 $230 forward $349 $-1 #
edge $-1 $362 2.879793265790644 $236 3.6651914291880918 $229 $366 forward 7 unknown #
coedge $-1 $359 $367 $131 $232 reversed $368 $-1 #
edge $369 $363 2.879793265790644 $237 3.6651914291880918 $231 $370 forward 7 unknown #
coedge $-1 $371 $132 $367 $372 forward $235 $-1 #
coedge $-1 $132 $371 $365 $373 reversed $235 $-1 #
loop $-1 $-1 $132 $374 #
vertex $-1 $373 $375 #
vertex $-1 $232 $376 #
straight-curve $-1 -1.2849741697560404 -26.035533905932738 -139.66629547095766 0 0 -1 I I #
model_id-kcp-attrib $-1 $-1 $-1 $136 1 990663526 60 289144833 7 #
face $377 $378 $379 $9 $-1 $380 forward single #
plane-surface $-1 -30 0 0 0 0 1 0.70710678118654746 0.70710678118654757 0 forward_v I I I I #
coedge $-1 $139 $265 $381 $382 forward $57 $-1 #
coedge $-1 $383 $141 $139 $244 forward $248 $-1 #
edge $384 $146 17.320508075688775 $385 40 $139 $270 forward 7 unknown #
coedge $-1 $386 $387 $140 $246 forward $379 $-1 #
edge $-1 $251 -10 $249 10 $245 $388 forward 7 unknown #
coedge $-1 $141 $389 $386 $390 forward $248 $-1 #
loop $-1 $-1 $141 $391 #
vertex $-1 $390 $392 #
coedge $-1 $258 $143 $387 $393 reversed $153 $-1 #
vertex $-1 $393 $394 #
convexity-sys-attrib $-1 $-1 $145 $88 #
point $-1 17.320508075688775 -40 20 #
point $-1 17.320508075688775 -40 0 #
coedge $-1 $395 $149 $152 $259 forward $137 $-1 #
coedge $-1 $149 $395 $156 $262 reversed $137 $-1 #
straight-curve $-1 -19.318516525781366 -24.823619097949585 10 0 0 -1 I I #
coedge $-1 $152 $250 $396 $397 reversed $153 $-1 #
edge $-1 $154 -25.105898795504078 $398 4.1421356237309501 $255 $399 forward 7 unknown #
point $-1 -19.318516525781366 -24.823619097949585 0 #
coedge $-1 $157 $156 $400 $401 forward $83 $-1 #
edge $402 $159 -14.499297077705865 $403 14.748737341529164 $156 $404 forward 7 unknown #
convexity-sys-attrib $-1 $-1 $158 $93 #
point $-1 -19.318516525781366 -24.823619097949585 20 #
coedge $-1 $242 $161 $405 $406 reversed $57 $-1 #
coedge $-1 $400 $407 $161 $267 reversed $408 $-1 #
edge $409 $269 -20 $410 20 $266 $411 forward 7 unknown #
attrib_edge_convexity-kcp-attrib $-1 $412 $-1 $162 1 #
vertex $-1 $401 $413 #
straight-curve $-1 0 -40 20 1 0 0 I I #
attrib_edge_convexity-kcp-attrib $-1 $414 $-1 $163 1 #
straight-curve $-1 0 -40 0 -1 0 0 I I #
model_id-kcp-attrib $-1 $-1 $-1 $168 1 990663526 60 289144834 8 #
face $-1 $-1 $183 $23 $-1 $415 reversed single #
loop $-1 $-1 $290 $168 #
plane-surface $-1 0 40 0 0 -1 0 0 0 -1 forward_v I I I I #
coedge $-1 $416 $288 $291 $417 forward $169 $-1 #
coedge $-1 $294 $171 $172 $282 reversed $103 $-1 #
coedge $-1 $288 $416 $171 $280 reversed $169 $-1 #
edge $-1 $295 -20 $418 20 $279 $419 forward 7 unknown #
coedge $-1 $173 $172 $416 $420 forward $67 $-1 #
edge $-1 $286 -60 $418 60 $278 $421 forward 7 unknown #
coedge $-1 $291 $290 $173 $284 reversed $275 $-1 #
edge $-1 $422 -60 $285 60 $283 $423 forward 7 unknown #
vertex $-1 $175 $424 #
vertex $-1 $297 $425 #
straight-curve $-1 60 0 -20 0 -1 0 I I #
coedge $-1 $277 $279 $176 $289 reversed $169 $-1 #
edge $-1 $292 -40 $295 40 $288 $426 forward 7 unknown #
coedge $-1 $283 $177 $182 $298 forward $275 $-1 #
coedge $-1 $177 $283 $277 $417 reversed $275 $-1 #
vertex $-1 $178 $427 #
straight-curve $-1 0 40 20 -1 0 0 I I #
coedge $-1 $179 $278 $181 $297 reversed $103 $-1 #
vertex $-1 $289 $428 #
straight-curve $-1 0 -40 20 1 0 0 I I #
edge $-1 $184 -20 $286 20 $181 $429 forward 7 unknown #
edge $-1 $185 -20 $285 20 $182 $430 forward 7 unknown #
point $-1 60 -40 20 #
point $-1 60 40 20 #
face $-1 $431 $320 $25 $-1 $432 reversed single #
loop $-1 $-1 $193 $187 #
coedge $-1 $433 $190 $434 $435 reversed $111 $-1 #
coedge $-1 $190 $433 $308 $325 reversed $111 $-1 #
coedge $-1 $192 $191 $436 $437 reversed $71 $-1 #
coedge $-1 $438 $439 $191 $307 forward $440 $-1 #
edge $-1 $441 -40 $310 0 $306 $442 forward 7 unknown #
coedge $-1 $309 $193 $304 $325 forward $302 $-1 #
coedge $-1 $193 $308 $438 $443 forward $302 $-1 #
vertex $-1 $194 $444 #
coedge $-1 $445 $446 $195 $312 forward $447 $-1 #
edge $-1 $321 -3.1415926535897931 $316 -1.5707963267948966 $311 $448 forward 7 unknown #
coedge $-1 $449 $196 $201 $324 reversed $315 $-1 #
coedge $-1 $196 $449 $445 $450 reversed $315 $-1 #
loop $-1 $-1 $196 $451 #
vertex $-1 $450 $452 #
straight-curve $-1 60 0 20 0 0 1 I I #
coedge $-1 $453 $198 $446 $454 reversed $320 $-1 #
coedge $-1 $198 $453 $200 $323 reversed $320 $-1 #
loop $-1 $-1 $198 $301 #
vertex $-1 $312 $455 #
straight-curve $-1 20.000000000000007 -40 20 0 0 1 I I #
edge $-1 $203 20.000000000000007 $456 60 $319 $457 forward 7 unknown #
edge $-1 $456 -40 $202 0 $313 $458 forward 7 unknown #
edge $-1 $202 0 $459 40 $304 $458 forward 7 unknown #
point $-1 60 0 20 #
point $-1 20.000000000000007 -40 20 #
face $-1 $-1 $460 $27 $-1 $461 reversed single #
plane-surface $-1 -9.7420428977777505 -4.4000927259532006 -139.66629547095766 0.70710678118654746 0.70710678118654757 0 0 0 1 forward_v I I I I #
coedge $-1 $462 $339 $333 $463 reversed $206 $-1 #
coedge $-1 $208 $343 $464 $465 forward $119 $-1 #
edge $-1 $466 -5 $219 15 $208 $467 forward 7 unknown #
coedge $-1 $210 $209 $330 $463 forward $74 $-1 #
coedge $-1 $468 $469 $209 $335 reversed $460 $-1 #
edge $470 $337 -2.2524551283654364 $471 -1.7082442053030551 $334 $472 forward 7 unknown #
coedge $-1 $211 $217 $468 $473 forward $218 $-1 #
vertex $-1 $335 $474 #
straight-curve $-1 23.390169177302838 -37.532304801033781 -129.66629547095766 0 0 -1 I I #
coedge $-1 $330 $475 $213 $340 reversed $206 $-1 #
edge $-1 $341 -42.499505121618014 $344 21.81980515339464 $213 $476 forward 7 unknown #
vertex $-1 $463 $477 #
ellipse-curve $-1 -7.6709750859122678 -12.329024914087725 -129.66629547095766 0 0 1 0 40 0 1 I I #
coedge $-1 $331 $215 $475 $478 forward $119 $-1 #
vertex $-1 $216 $479 #
straight-curve $-1 -27.670975085912275 27.670975085912275 -129.66629547095766 -1 0 0 I I #
point $-1 -41.813110709643226 27.670975085912275 -129.66629547095766 #
point $-1 23.390169177302838 -37.532304801033774 -129.66629547095766 #
face $-1 $374 $480 $29 $-1 $481 reversed single #
loop $-1 $-1 $357 $222 #
plane-surface $-1 36.035533905932738 13.964466094067262 -129.66629547095766 0 0 1 1 0 0 forward_v I I I I #
coedge $-1 $482 $483 $371 $484 reversed $223 $-1 #
coedge $-1 $485 $224 $486 $487 forward $127 $-1 #
coedge $-1 $224 $485 $488 $489 reversed $127 $-1 #
coedge $-1 $483 $482 $224 $355 forward $223 $-1 #
edge $490 $491 -10 $492 10 $224 $493 forward 7 unknown #
coedge $-1 $226 $225 $494 $495 reversed $78 $-1 #
coedge $-1 $229 $496 $225 $358 forward $349 $-1 #
edge $-1 $497 -21.81980515339464 $362 7.4282292658403932 $357 $498 forward 7 unknown #
coedge $-1 $499 $231 $226 $360 reversed $368 $-1 #
edge $500 $501 -14.016504294495531 $363 15.2315301247395 $359 $502 forward 7 unknown #
convexity-sys-attrib $-1 $-1 $-1 $228 #
vertex $-1 $230 $503 #
vertex $-1 $232 $504 #
straight-curve $-1 -3.2829826198486245 -10.859153003882323 -139.66629547095766 0 0 -1 I I #
coedge $-1 $505 $229 $234 $373 forward $349 $-1 #
ellipse-curve $-1 16.035533905932738 -16.035533905932738 -129.66629547095766 0 0 1 20 0 0 1 I I #
coedge $-1 $231 $506 $233 $372 reversed $368 $-1 #
loop $-1 $-1 $486 $507 #
convexity-sys-attrib $-1 $-1 $-1 $232 #
ellipse-curve $-1 16.035533905932738 -16.035533905932738 -149.66629547095766 0 0 1 20 0 0 1 I I #
coedge $-1 $234 $233 $351 $484 forward $235 $-1 #
edge $508 $237 -19.302741122722409 $509 15.338275028655147 $367 $510 forward 7 unknown #
edge $-1 $236 -37.320508075688778 $511 -2.6794919243112254 $234 $512 forward 7 unknown #
face $-1 $507 $235 $29 $-1 $513 reversed single #
point $-1 -1.2849741697560404 -26.035533905932738 -129.66629547095766 #
point $-1 -1.2849741697560404 -26.035533905932738 -149.66629547095766 #
model_id-kcp-attrib $-1 $-1 $-1 $240 1 990663526 60 289144833 8 #
face $514 $515 $408 $9 $-1 $516 reversed single #
loop $-1 $-1 $245 $240 #
plane-surface $-1 -22.928932188134524 7.0710678118654755 10 -0.70710678118654746 -0.70710678118654757 0 0 0 1 forward_v I I I I #
coedge $-1 $517 $518 $242 $382 reversed $519 $-1 #
edge $520 $521 -20 $385 20 $242 $522 reversed 7 unknown #
coedge $-1 $523 $243 $518 $524 forward $248 $-1 #
attrib_edge_convexity-kcp-attrib $-1 $525 $-1 $244 1 #
vertex $-1 $524 $526 #
coedge $-1 $527 $245 $247 $390 reversed $379 $-1 #
coedge $-1 $245 $527 $250 $393 forward $379 $-1 #
straight-curve $-1 -5.1763809020504157 -10.681483474218632 10 0 0 1 I I #
coedge $-1 $247 $528 $529 $530 forward $248 $-1 #
edge $-1 $531 -34.748737341529164 $249 14.499297077705862 $247 $532 forward 7 unknown #
face $533 $534 $248 $9 $-1 $84 forward single #
point $-1 -5.1763809020504157 -10.681483474218632 20 #
edge $-1 $535 -24.142135623730947 $251 25.105898795504075 $387 $536 forward 7 unknown #
point $-1 -5.1763809020504157 -10.681483474218632 0 #
coedge $-1 $256 $255 $537 $538 reversed $137 $-1 #
coedge $-1 $539 $537 $258 $397 forward $408 $-1 #
edge $540 $398 -4.142135623730951 $535 24.142135623730947 $396 $541 forward 7 unknown #
vertex $-1 $397 $542 #
straight-curve $-1 -37.071067811865476 -7.0710678118654755 0 -0.70710678118654757 0.70710678118654746 0 I I #
coedge $-1 $537 $266 $261 $401 reversed $408 $-1 #
edge $543 $403 4.142135623730951 $269 40 $400 $544 forward 7 unknown #
attrib_edge_convexity-kcp-attrib $-1 $545 $-1 $262 1 #
vertex $-1 $262 $546 #
straight-curve $-1 -29.571067811865476 -14.571067811865476 20 -0.70710678118654757 0.70710678118654746 0 I I #
coedge $-1 $547 $548 $265 $406 forward $549 $-1 #
edge $550 $521 -40 $410 40 $265 $551 forward 7 unknown #
coedge $-1 $266 $552 $547 $553 reversed $408 $-1 #
loop $-1 $-1 $537 $378 #
attrib_edge_convexity-kcp-attrib $-1 $554 $-1 $267 1 #
vertex $-1 $553 $555 #
straight-curve $-1 -40 -40 0 0 0 -1 I I #
convexity-sys-attrib $-1 $-1 $268 $162 #
point $-1 -40 -40 20 #
convexity-sys-attrib $-1 $-1 $271 $163 #
plane-surface $-1 60 0 0 -1 0 0 0 0 1 forward_v I I I I #
coedge $-1 $279 $277 $281 $420 reversed $169 $-1 #
edge $-1 $292 -20 $422 20 $291 $556 forward 7 unknown #
vertex $-1 $420 $557 #
straight-curve $-1 -60 -40 0 0 0 -1 I I #
edge $-1 $418 -40 $422 40 $416 $558 forward 7 unknown #
straight-curve $-1 0 -40 -20 -1 0 0 I I #
vertex $-1 $284 $559 #
straight-curve $-1 0 40 -20 1 0 0 I I #
point $-1 60 40 -20 #
point $-1 60 -40 -20 #
straight-curve $-1 -60 0 20 0 -1 0 I I #
point $-1 -60 40 20 #
point $-1 -60 -40 20 #
straight-curve $-1 60 -40 0 0 0 -1 I I #
straight-curve $-1 60 40 0 0 0 -1 I I #
face $-1 $560 $447 $25 $-1 $561 reversed single #
plane-surface $-1 0 -40 0 0 1 0 0 0 1 forward_v I I I I #
coedge $-1 $304 $303 $562 $563 reversed $111 $-1 #
coedge $-1 $436 $564 $303 $435 forward $565 $-1 #
edge $-1 $566 -40 $316 0 $303 $567 forward 7 unknown #
coedge $-1 $564 $434 $305 $437 forward $565 $-1 #
edge $-1 $316 -1.5707963267948966 $441 0 $436 $448 forward 7 unknown #
coedge $-1 $562 $306 $309 $443 reversed $440 $-1 #
coedge $-1 $306 $562 $564 $568 reversed $440 $-1 #
loop $-1 $-1 $306 $569 #
vertex $-1 $568 $570 #
straight-curve $-1 20.000000000000007 40 20 0 0 1 I I #
edge $-1 $459 -60 $310 -20.000000000000007 $438 $571 forward 7 unknown #
point $-1 20.000000000000007 40 20 #
coedge $-1 $446 $311 $314 $450 forward $447 $-1 #
coedge $-1 $311 $445 $318 $454 forward $447 $-1 #
loop $-1 $-1 $311 $431 #
ellipse-curve $-1 20.000000000000007 0 -20 0 0 1 0 40 0 1 I I #
coedge $-1 $314 $313 $453 $572 forward $315 $-1 #
edge $-1 $316 0 $573 40 $314 $567 forward 7 unknown #
face $-1 $-1 $315 $25 $-1 $112 reversed single #
point $-1 60 0 -20 #
coedge $-1 $319 $318 $449 $572 reversed $320 $-1 #
edge $-1 $573 -60 $321 -20.000000000000007 $318 $574 forward 7 unknown #
point $-1 20.000000000000007 -40 -20 #
vertex $-1 $324 $575 #
straight-curve $-1 0 -40 20 1 0 0 I I #
straight-curve $-1 60 0 20 0 1 0 I I #
vertex $-1 $325 $576 #
loop $-1 $-1 $464 $328 #
plane-surface $-1 0 0 -149.66629547095766 0 0 1 1 0 0 forward_v I I I I #
coedge $-1 $475 $330 $469 $577 forward $206 $-1 #
edge $-1 $471 -20 $341 0 $333 $578 forward 7 unknown #
coedge $-1 $469 $468 $331 $465 reversed $460 $-1 #
edge $579 $580 -0.30664808077481354 $466 27.977623166687088 $464 $581 forward 7 unknown #
vertex $-1 $465 $582 #
straight-curve $-1 -41.813110709643226 27.670975085912275 -144.66629547095766 0 0 1 I I #
coedge $-1 $464 $334 $336 $473 reversed $460 $-1 #
coedge $-1 $334 $464 $462 $577 reversed $460 $-1 #
convexity-sys-attrib $-1 $-1 $-1 $335 #
vertex $-1 $335 $583 #
ellipse-curve $-1 -7.6709750859122678 -12.329024914087725 -149.66629547095766 0 0 1 0 40 0 1 I I #
edge $584 $466 -47.244003654956273 $337 44.967359072371693 $468 $585 forward 7 unknown #
point $-1 23.390169177302838 -37.532304801033774 -149.66629547095766 #
coedge $-1 $339 $462 $343 $478 reversed $206 $-1 #
straight-curve $-1 1.9000927259532006 12.24204289777775 -129.66629547095766 -0.70710678118654757 0.70710678118654746 0 I I #
point $-1 31.951780994521712 -17.809645370790754 -129.66629547095766 #
edge $-1 $344 -15 $580 5 $343 $586 forward 7 unknown #
point $-1 -13.528839462181324 27.670975085912275 -129.66629547095766 #
loop $-1 $-1 $494 $348 #
plane-surface $-1 -23.964466094067262 13.964466094067262 -149.66629547095766 1 0 0 0 0 -1 forward_v I I I I #
coedge $-1 $354 $351 $506 $587 forward $223 $-1 #
coedge $-1 $351 $354 $505 $588 reversed $223 $-1 #
edge $-1 $509 -10 $511 10 $371 $589 forward 7 unknown #
coedge $-1 $353 $352 $590 $591 reversed $127 $-1 #
coedge $-1 $506 $499 $352 $487 reversed $368 $-1 #
edge $592 $491 -15.231530124739496 $593 34.016504294495533 $486 $594 forward 7 unknown #
coedge $-1 $496 $505 $353 $489 forward $349 $-1 #
edge $-1 $492 -7.4282292658403897 $595 41.81980515339464 $488 $596 forward 7 unknown #
convexity-sys-attrib $-1 $-1 $-1 $355 #
vertex $-1 $487 $597 #
vertex $-1 $489 $598 #
straight-curve $-1 10.859153003882323 3.2829826198486298 -139.66629547095766 0 0 1 I I #
coedge $-1 $599 $600 $356 $495 forward $480 $-1 #
edge $-1 $501 -5 $497 15 $494 $601 forward 7 unknown #
coedge $-1 $357 $488 $599 $602 forward $349 $-1 #
vertex $-1 $495 $603 #
straight-curve $-1 -8.5355339059327378 -5.6066017177982133 -129.66629547095766 0.70710678118654757 -0.70710678118654746 0 I I #
coedge $-1 $486 $359 $600 $604 reversed $368 $-1 #
convexity-sys-attrib $-1 $-1 $-1 $360 #
vertex $-1 $360 $605 #
straight-curve $-1 -14.053300858899107 -0.088834764831843938 -149.66629547095766 0.70710678118654757 -0.70710678118654746 0 I I #
point $-1 -3.2829826198486245 -10.859153003882323 -129.66629547095766 #
point $-1 -3.2829826198486245 -10.859153003882323 -149.66629547095766 #
coedge $-1 $488 $365 $483 $588 forward $349 $-1 #
coedge $-1 $367 $486 $482 $587 reversed $368 $-1 #
face $-1 $-1 $368 $29 $-1 $606 reversed single #
convexity-sys-attrib $-1 $-1 $-1 $372 #
vertex $-1 $587 $607 #
straight-curve $-1 18.017766952966369 -26.035533905932738 -149.66629547095766 1 0 0 I I #
vertex $-1 $484 $608 #
straight-curve $-1 36.035533905932738 -26.035533905932738 -129.66629547095766 1 0 0 I I #
plane-surface $-1 36.035533905932738 -26.035533905932738 -149.66629547095766 0 1 0 0 0 1 forward_v I I I I #
model_id-kcp-attrib $-1 $-1 $-1 $378 1 990663526 60 289144833 9 #
face $609 $610 $611 $9 $-1 $612 forward single #
plane-surface $-1 -40 0 0 1 0 0 0 0 -1 forward_v I I I I #
coedge $-1 $613 $381 $548 $614 reversed $519 $-1 #
coedge $-1 $381 $615 $383 $524 reversed $519 $-1 #
loop $-1 $-1 $616 $617 #
attrib_edge_convexity-kcp-attrib $-1 $618 $-1 $382 3 #
vertex $-1 $382 $619 #
straight-curve $-1 40 -40 0 0 0 -1 I I #
coedge $-1 $528 $383 $620 $621 forward $248 $-1 #
edge $-1 $385 -1.5707963267948966 $622 -0.68165880157053971 $383 $623 forward 7 unknown #
convexity-sys-attrib $-1 $-1 $384 $244 #
point $-1 40 -40 20 #
coedge $-1 $387 $386 $539 $624 reversed $379 $-1 #
coedge $-1 $389 $523 $625 $626 forward $248 $-1 #
coedge $-1 $552 $539 $389 $530 reversed $408 $-1 #
edge $627 $628 -40 $531 -24.142135623730947 $529 $544 forward 7 unknown #
vertex $-1 $530 $629 #
straight-curve $-1 -15.428932188134523 -0.42893218813452405 20 0.70710678118654757 -0.70710678118654746 0 I I #
model_id-kcp-attrib $-1 $-1 $-1 $391 1 990663526 60 289144833 14 #
face $630 $631 $632 $9 $-1 $84 forward single #
vertex $-1 $397 $633 #
straight-curve $-1 -22.928932188134524 7.0710678118654755 0 0.70710678118654757 -0.70710678118654746 0 I I #
coedge $-1 $396 $400 $395 $538 forward $408 $-1 #
edge $634 $403 -15 $398 5 $537 $635 forward 7 unknown #
coedge $-1 $529 $396 $527 $624 forward $408 $-1 #
attrib_edge_convexity-kcp-attrib $-1 $636 $-1 $397 1 #
straight-curve $-1 -40 0 0 0 1 0 I I #
point $-1 -40 -4.142135623730951 0 #
attrib_edge_convexity-kcp-attrib $-1 $637 $-1 $401 1 #
straight-curve $-1 -40 0 20 0 -1 0 I I #
convexity-sys-attrib $-1 $-1 $402 $262 #
point $-1 -40 -4.142135623730951 20 #
coedge $-1 $638 $405 $407 $553 forward $549 $-1 #
coedge $-1 $405 $638 $517 $614 forward $549 $-1 #
loop $-1 $-1 $405 $631 #
model_id-kcp-attrib $-1 $639 $-1 $406 1 990663526 60 289144833 21 #
straight-curve $-1 0 -40 -20 -1 0 0 I I #
coedge $-1 $407 $529 $640 $641 forward $408 $-1 #
edge $642 $410 -40 $643 40 $407 $644 forward 7 unknown #
convexity-sys-attrib $-1 $-1 $409 $267 #
point $-1 -40 -40 -20 #
straight-curve $-1 -60 40 0 0 0 -1 I I #
point $-1 -60 -40 -20 #
straight-curve $-1 -60 0 -20 0 1 0 I I #
point $-1 -60 40 -20 #
face $-1 $569 $565 $25 $-1 $561 reversed single #
plane-surface $-1 0 0 -20 0 0 1 1 0 0 forward_v I I I I #
coedge $-1 $439 $438 $433 $563 forward $440 $-1 #
edge $-1 $459 -20 $566 20 $433 $645 forward 7 unknown #
coedge $-1 $434 $436 $439 $568 forward $565 $-1 #
loop $-1 $-1 $436 $560 #
vertex $-1 $435 $646 #
straight-curve $-1 60 0 -20 0 -1 0 I I #
edge $-1 $441 20.000000000000007 $566 60 $439 $647 forward 7 unknown #
face $-1 $451 $440 $25 $-1 $648 reversed single #
point $-1 20.000000000000007 40 -20 #
straight-curve $-1 0 40 20 -1 0 0 I I #
edge $-1 $456 -20 $573 20 $449 $649 forward 7 unknown #
vertex $-1 $572 $650 #
straight-curve $-1 0 -40 -20 -1 0 0 I I #
point $-1 60 -40 20 #
point $-1 60 40 20 #
edge $651 $471 -37.075306620056388 $580 27.244003654956266 $469 $652 forward 7 unknown #
straight-curve $-1 31.951780994521712 -17.809645370790758 -129.66629547095766 0 0 1 I I #
convexity-sys-attrib $-1 $-1 $-1 $465 #
vertex $-1 $465 $653 #
straight-curve $-1 -13.835487542956137 27.670975085912275 -149.66629547095766 -1 0 0 I I #
point $-1 -41.813110709643226 27.670975085912275 -149.66629547095766 #
point $-1 31.951780994521712 -17.809645370790754 -149.66629547095766 #
convexity-sys-attrib $-1 $-1 $-1 $473 #
straight-curve $-1 -8.406555354821613 -5.735580268909338 -149.66629547095766 0.70710678118654757 -0.70710678118654746 0 I I #
straight-curve $-1 -13.528839462181324 27.670975085912275 -144.66629547095766 0 0 -1 I I #
edge $654 $509 -0.5235987755982987 $491 1.8325957145940459 $506 $655 forward 7 unknown #
edge $-1 $511 -0.52359877559829882 $492 1.8325957145940459 $505 $656 forward 7 unknown #
straight-curve $-1 33.356041981621516 -26.035533905932738 -139.66629547095766 0 0 1 I I #
coedge $-1 $600 $599 $485 $591 forward $480 $-1 #
edge $-1 $595 -15 $593 5 $590 $657 forward 7 unknown #
convexity-sys-attrib $-1 $-1 $-1 $487 #
vertex $-1 $487 $658 #
straight-curve $-1 0.088834764831843938 14.053300858899107 -149.66629547095766 -0.70710678118654757 0.70710678118654746 0 I I #
vertex $-1 $602 $659 #
straight-curve $-1 5.6066017177982133 8.5355339059327378 -129.66629547095766 -0.70710678118654757 0.70710678118654746 0 I I #
point $-1 10.859153003882323 3.2829826198486298 -149.66629547095766 #
point $-1 10.859153003882323 3.2829826198486298 -129.66629547095766 #
coedge $-1 $590 $494 $496 $602 reversed $480 $-1 #
coedge $-1 $494 $590 $499 $604 forward $480 $-1 #
straight-curve $-1 -23.964466094067262 9.8223304703363112 -144.66629547095766 0 0 1 I I #
edge $-1 $595 -24.142135623730947 $497 4.142135623730951 $599 $660 forward 7 unknown #
point $-1 -23.964466094067262 9.8223304703363112 -129.66629547095766 #
edge $661 $593 -31.124368670764582 $501 -2.8400974233026801 $499 $662 forward 7 unknown #
point $-1 -23.964466094067262 9.8223304703363112 -149.66629547095766 #
plane-surface $-1 0 0 -149.66629547095766 0 0 1 1 0 0 forward_v I I I I #
point $-1 33.356041981621516 -26.035533905932738 -149.66629547095766 #
point $-1 33.356041981621516 -26.035533905932738 -129.66629547095766 #
model_id-kcp-attrib $-1 $-1 $-1 $515 1 990663526 60 289144833 10 #
face $663 $664 $665 $9 $-1 $666 forward single #
loop $-1 $-1 $667 $515 #
plane-surface $-1 37.928932188134524 7.9289321881345245 10 0.70710678118654746 0.70710678118654757 0 0 0 1 forward_v I I I I #
coedge $-1 $668 $517 $669 $670 forward $519 $-1 #
edge $-1 $671 -1.5707963267948966 $521 1.5707963267948966 $548 $672 forward 7 unknown #
coedge $-1 $518 $673 $667 $674 forward $519 $-1 #
coedge $-1 $673 $668 $675 $676 forward $519 $-1 #
face $677 $391 $519 $9 $-1 $678 forward single #
convexity-sys-attrib $-1 $-1 $520 $382 #
point $-1 40 -40 -20 #
coedge $-1 $667 $679 $523 $621 reversed $611 $-1 #
edge $-1 $622 -57.462625385798802 $680 34.748737341529164 $523 $681 forward 7 unknown #
vertex $-1 $524 $682 #
ellipse-curve $-1 40 0 20 0 0 1 40 0 0 1 I I #
edge $683 $535 -5 $531 15 $539 $684 forward 7 unknown #
coedge $-1 $685 $640 $528 $626 reversed $686 $-1 #
edge $-1 $680 -5.857864376269049 $628 40 $625 $687 forward 7 unknown #
attrib_edge_convexity-kcp-attrib $-1 $688 $-1 $530 1 #
vertex $-1 $626 $689 #
point $-1 -40 24.142135623730947 20 #
model_id-kcp-attrib $-1 $-1 $-1 $534 1 990663526 60 289144833 15 #
face $690 $691 $549 $9 $-1 $692 reversed single #
loop $-1 $-1 $693 $534 #
point $-1 -40 24.142135623730947 0 #
attrib_edge_convexity-kcp-attrib $-1 $694 $-1 $538 1 #
straight-curve $-1 -40 -4.142135623730951 5 0 0 -1 I I #
convexity-sys-attrib $-1 $-1 $540 $397 #
convexity-sys-attrib $-1 $-1 $543 $401 #
coedge $-1 $548 $547 $695 $696 forward $549 $-1 #
attrib_edge_convexity-kcp-attrib $-1 $697 $550 $406 1 #
coedge $-1 $625 $695 $552 $641 reversed $686 $-1 #
edge $698 $628 -20 $643 20 $640 $699 forward 7 unknown #
model_id-kcp-attrib $-1 $700 $-1 $553 1 990663526 60 289144833 20 #
vertex $-1 $696 $701 #
straight-curve $-1 -40 0 -20 0 1 0 I I #
straight-curve $-1 60 40 0 0 0 -1 I I #
point $-1 60 40 -20 #
straight-curve $-1 0 40 -20 1 0 0 I I #
plane-surface $-1 0 40 0 0 -1 0 0 0 -1 forward_v I I I I #
straight-curve $-1 60 -40 0 0 0 -1 I I #
point $-1 60 -40 -20 #
convexity-sys-attrib $-1 $-1 $-1 $577 #
straight-curve $-1 5.735580268909338 8.406555354821613 -149.66629547095766 -0.70710678118654757 0.70710678118654746 0 I I #
point $-1 -13.528839462181324 27.670975085912275 -149.66629547095766 #
convexity-sys-attrib $-1 $-1 $-1 $587 #
ellipse-curve $-1 16.035533905932738 -16.035533905932738 -149.66629547095766 0 0 1 20 0 0 1 I I #
ellipse-curve $-1 16.035533905932738 -16.035533905932738 -129.66629547095766 0 0 1 20 0 0 1 I I #
straight-curve $-1 -23.964466094067262 38.106601717798206 -144.66629547095766 0 0 -1 I I #
point $-1 -23.964466094067262 38.106601717798213 -149.66629547095766 #
point $-1 -23.964466094067262 38.106601717798213 -129.66629547095766 #
straight-curve $-1 -23.964466094067262 13.964466094067262 -129.66629547095766 0 -1 0 I I #
convexity-sys-attrib $-1 $-1 $-1 $604 #
straight-curve $-1 -23.964466094067262 6.9822330470336311 -149.66629547095766 0 -1 0 I I #
model_id-kcp-attrib $-1 $-1 $-1 $610 1 990663526 60 289144833 11 #
face $702 $617 $703 $9 $-1 $704 forward single #
loop $-1 $-1 $705 $610 #
plane-surface $-1 45 15 0 0 0 1 0.70710678118654757 -0.70710678118654746 0 forward_v I I I I #
coedge $-1 $706 $620 $615 $674 reversed $611 $-1 #
coedge $-1 $616 $613 $707 $708 reversed $519 $-1 #
coedge $-1 $695 $709 $613 $670 reversed $686 $-1 #
edge $-1 $671 -20 $710 20 $669 $711 reversed 7 unknown #
vertex $-1 $614 $712 #
ellipse-curve $-1 40 0 -20 0 0 -1 40 0 0 1 I I #
coedge $-1 $615 $616 $705 $713 forward $519 $-1 #
edge $-1 $714 0 $622 20 $615 $715 forward 7 unknown #
coedge $-1 $716 $717 $616 $676 reversed $703 $-1 #
edge $-1 $718 -20 $719 0 $616 $720 forward 7 unknown #
model_id-kcp-attrib $-1 $-1 $-1 $617 1 990663526 60 289144833 13 #
cone-surface $-1 40 0 0 0 0 1 40 0 0 1 I I 0 1 40 forward I I I I #
coedge $-1 $620 $706 $685 $721 reversed $611 $-1 #
vertex $-1 $721 $722 #
straight-curve $-1 30.428932188134524 15.428932188134526 20 -0.70710678118654757 0.70710678118654746 0 I I #
point $-1 71.061144263215112 -25.203279886946053 20 #
attrib_edge_convexity-kcp-attrib $-1 $723 $-1 $624 1 #
straight-curve $-1 -40 24.142135623730944 5 0 0 1 I I #
coedge $-1 $724 $625 $679 $721 forward $686 $-1 #
loop $-1 $-1 $725 $691 #
straight-curve $-1 0 40 20 -1 0 0 I I #
convexity-sys-attrib $-1 $-1 $627 $530 #
point $-1 -40 40 20 #
model_id-kcp-attrib $-1 $-1 $-1 $631 1 990663526 60 289144833 16 #
face $726 $-1 $686 $9 $-1 $727 reversed single #
plane-surface $-1 0 0 -20 0 0 1 1 0 0 forward_v I I I I #
coedge $-1 $707 $728 $716 $729 forward $632 $-1 #
convexity-sys-attrib $-1 $-1 $634 $538 #
coedge $-1 $640 $669 $638 $696 reversed $686 $-1 #
edge $730 $643 -40 $671 40 $695 $731 forward 7 unknown #
convexity-sys-attrib $-1 $-1 $639 $406 #
attrib_edge_convexity-kcp-attrib $-1 $732 $-1 $641 1 #
straight-curve $-1 -40 40 0 0 0 -1 I I #
attrib_edge_convexity-kcp-attrib $-1 $733 $642 $553 1 #
point $-1 -40 40 -20 #
model_id-kcp-attrib $-1 $-1 $-1 $664 1 990663526 60 289144833 12 #
loop $-1 $-1 $675 $664 #
plane-surface $-1 52.071067811865476 22.071067811865476 10 -0.70710678118654746 -0.70710678118654757 0 0 0 -1 forward_v I I I I #
coedge $-1 $734 $735 $673 $713 reversed $665 $-1 #
coedge $-1 $679 $667 $735 $736 forward $611 $-1 #
coedge $-1 $728 $693 $668 $708 forward $632 $-1 #
edge $-1 $718 -0.13744787850815843 $710 1.5707963267948966 $707 $623 forward 7 unknown #
coedge $-1 $669 $725 $728 $737 reversed $686 $-1 #
vertex $-1 $737 $738 #
straight-curve $-1 40 40 0 0 0 -1 I I #
point $-1 40 40 -20 #
edge $-1 $719 0.13744787850815843 $714 0.68165880157053971 $673 $739 forward 7 unknown #
vertex $-1 $713 $740 #
straight-curve $-1 71.061144263215112 -25.203279886946053 0 0 0 1 I I #
coedge $-1 $741 $675 $693 $729 reversed $703 $-1 #
coedge $-1 $675 $741 $734 $742 forward $703 $-1 #
vertex $-1 $729 $743 #
vertex $-1 $713 $744 #
straight-curve $-1 79.622756080433987 -5.4806204567030292 0 0 0 -1 I I #
edge $-1 $680 -15 $745 5 $685 $746 forward 7 unknown #
point $-1 5.857864376269049 40 20 #
convexity-sys-attrib $-1 $-1 $683 $624 #
coedge $-1 $725 $685 $747 $748 forward $686 $-1 #
coedge $-1 $709 $724 $741 $749 forward $686 $-1 #
model_id-kcp-attrib $-1 $-1 $-1 $691 1 990663526 60 289144833 17 #
plane-surface $-1 0 40 0 0 -1 0 0 0 -1 forward_v I I I I #
coedge $-1 $693 $707 $709 $737 forward $632 $-1 #
edge $-1 $750 -14.748737341529164 $718 49.57057293348349 $693 $751 forward 7 unknown #
model_id-kcp-attrib $-1 $-1 $-1 $696 1 990663526 60 289144833 19 #
straight-curve $-1 0 40 -20 1 0 0 I I #
convexity-sys-attrib $-1 $-1 $698 $641 #
convexity-sys-attrib $-1 $-1 $700 $553 #
coedge $-1 $747 $705 $717 $742 reversed $665 $-1 #
coedge $-1 $705 $747 $706 $736 reversed $665 $-1 #
edge $-1 $714 -46.856023668000581 $745 45.355339059327378 $706 $752 forward 7 unknown #
edge $-1 $710 -40 $750 -34.142135623730951 $709 $687 forward 7 unknown #
point $-1 40 40 20 #
ellipse-curve $-1 40 0 0 0 0 -1 40 0 0 1 I I #
point $-1 71.061144263215112 -25.203279886946053 0 #
coedge $-1 $717 $716 $725 $749 reversed $703 $-1 #
edge $-1 $753 -25.355339059327378 $719 38.963971215685277 $717 $754 forward 7 unknown #
point $-1 79.622756080433987 -5.4806204567030292 20 #
point $-1 79.622756080433987 -5.4806204567030292 0 #
vertex $-1 $748 $755 #
straight-curve $-1 5.8578643762690472 40 5 0 0 -1 I I #
coedge $-1 $735 $734 $724 $748 reversed $665 $-1 #
edge $-1 $745 -16.642135623730951 $753 11.642135623730951 $724 $756 forward 7 unknown #
edge $-1 $753 -5 $750 15 $725 $757 forward 7 unknown #
vertex $-1 $737 $758 #
straight-curve $-1 44.571067811865476 29.571067811865476 20 0.70710678118654757 -0.70710678118654746 0 I I #
straight-curve $-1 37.928932188134524 7.9289321881345245 0 -0.70710678118654757 0.70710678118654746 0 I I #
vertex $-1 $748 $759 #
straight-curve $-1 52.071067811865476 22.071067811865476 0 0.70710678118654757 -0.70710678118654746 0 I I #
point $-1 5.857864376269049 40 0 #
straight-curve $-1 22.5 40 0 1 0 0 I I #
straight-curve $-1 34.142135623730951 40 5 0 0 1 I I #
point $-1 34.142135623730951 40 20 #
point $-1 34.142135623730951 40 0 #
End-of-ACIS-data 