600 0 1 0           
81 GICL ACIS Healer - Source: /gicl/data5/repository/Heriot_Watt/ex11/ex11.sat - 6 0 18 ACIS 6.0.3 Solaris 24 Sat Apr 13 23:39:07 2002 
1 9.999999999999999547e-07 1.000000000000000036e-10 
body $-1 $1 $-1 $-1 #
lump $-1 $-1 $2 $0 #
shell $-1 $-1 $-1 $3 $-1 $1 #
face $-1 $4 $5 $2 $-1 $6 forward single #
face $-1 $7 $8 $2 $-1 $9 reversed single #
loop $-1 $-1 $10 $3 #
plane-surface $-1 0 0 10 0 0 1 1 0 0 forward_v I I I I #
face $-1 $11 $12 $2 $-1 $13 reversed single #
loop $-1 $-1 $14 $4 #
plane-surface $-1 0 -5 -5 0 1 0 0 0 1 forward_v I I I I #
coedge $-1 $15 $16 $17 $18 reversed $5 $-1 #
face $-1 $19 $20 $2 $-1 $21 reversed single #
loop $-1 $-1 $22 $7 #
plane-surface $-1 0 5 -5 0 -1 0 0 0 -1 forward_v I I I I #
coedge $-1 $23 $24 $25 $26 reversed $8 $-1 #
coedge $-1 $27 $10 $24 $28 forward $5 $-1 #
coedge $-1 $10 $27 $29 $30 forward $5 $-1 #
coedge $-1 $31 $25 $10 $18 forward $32 $-1 #
edge $-1 $33 2.8017557441356713 $34 3.481429563043914932 $17 $35 forward 7 unknown #
face $-1 $36 $37 $2 $-1 $38 reversed single #
loop $-1 $-1 $39 $11 #
plane-surface $-1 -40 0 0 1 0 0 0 0 -1 forward_v I I I I #
coedge $-1 $29 $40 $31 $41 reversed $12 $-1 #
coedge $-1 $42 $14 $43 $44 reversed $8 $-1 #
coedge $-1 $14 $42 $15 $28 reversed $8 $-1 #
coedge $-1 $17 $45 $14 $26 forward $32 $-1 #
edge $-1 $46 -20 $33 10 $25 $47 forward 7 unknown #
coedge $-1 $16 $15 $48 $49 reversed $5 $-1 #
edge $-1 $33 -14.14213562373095101 $50 14.14213562373095101 $24 $51 forward 7 unknown #
coedge $-1 $52 $22 $16 $30 reversed $12 $-1 #
edge $-1 $53 -14.14213562373095101 $34 14.14213562373095101 $29 $54 forward 7 unknown #
coedge $-1 $55 $17 $22 $41 forward $32 $-1 #
loop $-1 $56 $31 $57 #
vertex $-1 $18 $58 #
vertex $-1 $18 $59 #
ellipse-curve $-1 0 0 10 0 0 -1 15 0 0 1 I I #
face $-1 $57 $60 $2 $-1 $61 reversed single #
loop $-1 $62 $63 $19 #
plane-surface $-1 0 0 -20 0 0 1 1 0 0 forward_v I I I I #
coedge $-1 $64 $65 $66 $67 reversed $20 $-1 #
coedge $-1 $22 $52 $68 $69 reversed $12 $-1 #
edge $-1 $34 -10 $70 20 $31 $71 forward 7 unknown #
coedge $-1 $24 $23 $72 $73 reversed $8 $-1 #
coedge $-1 $63 $63 $23 $44 forward $37 $-1 #
edge $-1 $74 -14.14213562373095101 $46 14.14213562373095101 $23 $75 forward 7 unknown #
coedge $-1 $25 $72 $63 $76 reversed $32 $-1 #
vertex $-1 $76 $77 #
straight-curve $-1 -14.14213562373095101 -5 0 0 0 1 I I #
coedge $-1 $72 $78 $27 $49 forward $32 $-1 #
edge $-1 $53 -0.3398369094541219271 $50 0.3398369094541219271 $48 $35 forward 7 unknown #
vertex $-1 $49 $79 #
straight-curve $-1 0 -5 10 1 0 0 I I #
coedge $-1 $40 $29 $78 $80 reversed $12 $-1 #
vertex $-1 $49 $81 #
straight-curve $-1 0 5 10 -1 0 0 I I #
coedge $-1 $78 $31 $82 $83 reversed $32 $-1 #
loop $-1 $-1 $84 $57 #
face $-1 $85 $32 $2 $-1 $86 reversed single #
point $-1 -14.14213562373095101 -5 10 #
point $-1 -14.14213562373095101 5 10 #
loop $-1 $-1 $87 $36 #
plane-surface $-1 40 0 0 -1 0 0 0 0 1 forward_v I I I I #
loop $-1 $88 $66 $19 #
coedge $-1 $43 $43 $45 $76 forward $37 $-1 #
coedge $-1 $89 $39 $90 $91 reversed $20 $-1 #
coedge $-1 $39 $89 $92 $93 forward $20 $-1 #
coedge $-1 $94 $95 $39 $67 forward $62 $-1 #
edge $-1 $96 -40 $97 40 $39 $98 forward 7 unknown #
coedge $-1 $82 $82 $40 $69 forward $88 $-1 #
edge $-1 $70 -14.14213562373095101 $99 14.14213562373095101 $40 $100 forward 7 unknown #
vertex $-1 $83 $101 #
straight-curve $-1 -14.14213562373095101 5 0 0 0 -1 I I #
coedge $-1 $45 $48 $42 $73 forward $32 $-1 #
edge $-1 $50 -10 $74 20 $72 $102 forward 7 unknown #
vertex $-1 $76 $103 #
straight-curve $-1 0 -5 -20 -1 0 0 I I #
edge $-1 $46 -2.8017557441356713 $74 -0.3398369094541219271 $63 $104 forward 7 unknown #
point $-1 -14.14213562373095101 -5 -20 #
coedge $-1 $48 $55 $52 $80 forward $32 $-1 #
point $-1 14.14213562373095101 -5 10 #
edge $-1 $99 -20 $53 10 $78 $105 forward 7 unknown #
point $-1 14.14213562373095101 5 10 #
coedge $-1 $68 $68 $55 $83 forward $88 $-1 #
edge $-1 $99 0.3398369094541219271 $70 2.8017557441356713 $82 $104 forward 7 unknown #
coedge $-1 $106 $107 $108 $109 reversed $56 $-1 #
face $-1 $110 $111 $2 $-1 $112 forward single #
cone-surface $-1 0 0 0 0 0 1 15 0 0 1 I I 0 1 15 forward I I I I #
coedge $-1 $113 $114 $115 $116 reversed $60 $-1 #
loop $-1 $-1 $68 $19 #
coedge $-1 $65 $64 $117 $118 reversed $20 $-1 #
coedge $-1 $119 $120 $64 $91 forward $121 $-1 #
edge $-1 $122 -20 $96 20 $64 $123 forward 7 unknown #
coedge $-1 $124 $125 $65 $93 reversed $126 $-1 #
edge $-1 $127 -20 $97 20 $92 $128 forward 7 unknown #
coedge $-1 $115 $66 $125 $129 forward $62 $-1 #
coedge $-1 $66 $115 $119 $130 forward $62 $-1 #
vertex $-1 $67 $131 #
vertex $-1 $129 $132 #
straight-curve $-1 -40 0 -20 0 1 0 I I #
vertex $-1 $83 $133 #
straight-curve $-1 0 5 -20 1 0 0 I I #
point $-1 -14.14213562373095101 5 -20 #
straight-curve $-1 14.14213562373095101 -5 0 0 0 -1 I I #
point $-1 14.14213562373095101 -5 -20 #
ellipse-curve $-1 0 0 -20 0 0 1 15 0 0 1 I I #
straight-curve $-1 14.14213562373095101 5 0 0 0 1 I I #
coedge $-1 $134 $84 $135 $136 reversed $56 $-1 #
coedge $-1 $84 $137 $138 $139 reversed $56 $-1 #
coedge $-1 $140 $141 $84 $109 forward $142 $-1 #
edge $-1 $143 -20 $144 0 $108 $145 forward 7 unknown #
face $-1 $146 $147 $2 $-1 $148 forward single #
loop $-1 $-1 $149 $85 #
plane-surface $-1 0 0 20 0 0 1 1 0 0 forward_v I I I I #
coedge $-1 $150 $87 $151 $152 reversed $60 $-1 #
coedge $-1 $87 $150 $153 $154 forward $60 $-1 #
coedge $-1 $95 $94 $87 $116 forward $62 $-1 #
edge $-1 $155 -40 $156 40 $87 $157 forward 7 unknown #
coedge $-1 $158 $159 $89 $118 forward $111 $-1 #
edge $-1 $127 -40 $122 40 $89 $160 forward 7 unknown #
coedge $-1 $153 $90 $95 $130 reversed $121 $-1 #
coedge $-1 $90 $161 $158 $162 reversed $121 $-1 #
loop $-1 $-1 $163 $164 #
vertex $-1 $118 $165 #
straight-curve $-1 -40 -40 0 0 0 -1 I I #
coedge $-1 $166 $92 $159 $167 reversed $126 $-1 #
coedge $-1 $92 $151 $94 $129 reversed $126 $-1 #
loop $-1 $-1 $168 $169 #
vertex $-1 $167 $170 #
straight-curve $-1 -40 40 0 0 0 -1 I I #
edge $-1 $97 -40 $155 40 $125 $171 forward 7 unknown #
edge $-1 $156 -40 $96 40 $119 $172 forward 7 unknown #
point $-1 -40 -40 -20 #
point $-1 -40 40 -20 #
point $-1 14.14213562373095101 5 -20 #
coedge $-1 $173 $106 $174 $175 reversed $56 $-1 #
coedge $-1 $176 $177 $106 $136 forward $178 $-1 #
edge $-1 $179 -0.8410686705679303321 $143 0.8410686705679303321 $135 $180 forward 7 unknown #
coedge $-1 $107 $181 $182 $183 reversed $56 $-1 #
coedge $-1 $184 $185 $107 $139 forward $186 $-1 #
edge $-1 $144 0.8410686705679303321 $187 2.300523983021863117 $138 $188 forward 7 unknown #
coedge $-1 $189 $108 $185 $190 forward $142 $-1 #
coedge $-1 $108 $189 $176 $191 reversed $142 $-1 #
loop $-1 $-1 $108 $192 #
vertex $-1 $109 $193 #
vertex $-1 $109 $194 #
straight-curve $-1 10 -11.18033988749894903 0 0 0 -1 I I #
face $-1 $195 $196 $2 $-1 $197 forward single #
loop $-1 $-1 $174 $110 #
plane-surface $-1 10 0 10 -1 0 0 0 0 1 forward_v I I I I #
coedge $-1 $198 $199 $181 $200 forward $111 $-1 #
coedge $-1 $114 $113 $201 $202 reversed $60 $-1 #
coedge $-1 $125 $203 $113 $152 forward $126 $-1 #
edge $-1 $204 -20 $155 20 $113 $205 forward 7 unknown #
coedge $-1 $206 $119 $114 $154 reversed $121 $-1 #
edge $-1 $207 -20 $156 20 $114 $208 forward 7 unknown #
vertex $-1 $116 $209 #
vertex $-1 $154 $210 #
straight-curve $-1 40 0 -20 0 -1 0 I I #
coedge $-1 $199 $117 $120 $162 forward $111 $-1 #
coedge $-1 $117 $198 $124 $167 forward $111 $-1 #
straight-curve $-1 -40 0 20 0 -1 0 I I #
coedge $-1 $120 $211 $212 $213 forward $121 $-1 #
edge $-1 $122 -40 $214 -10 $120 $215 forward 7 unknown #
coedge $-1 $211 $206 $189 $216 forward $121 $-1 #
face $-1 $217 $121 $2 $-1 $218 reversed single #
point $-1 -40 -40 20 #
coedge $-1 $219 $124 $220 $221 forward $126 $-1 #
edge $-1 $222 10 $127 40 $124 $223 forward 7 unknown #
coedge $-1 $203 $219 $224 $225 forward $126 $-1 #
face $-1 $-1 $126 $2 $-1 $226 reversed single #
point $-1 -40 40 20 #
straight-curve $-1 0 40 -20 1 0 0 I I #
straight-curve $-1 0 -40 -20 -1 0 0 I I #
coedge $-1 $227 $134 $228 $229 reversed $56 $-1 #
coedge $-1 $230 $231 $134 $175 forward $147 $-1 #
edge $-1 $232 0 $179 20 $174 $233 forward 7 unknown #
coedge $-1 $234 $135 $141 $191 forward $178 $-1 #
coedge $-1 $135 $235 $230 $236 forward $178 $-1 #
loop $-1 $-1 $135 $217 #
vertex $-1 $236 $237 #
ellipse-curve $-1 0 0 20 0 0 -1 15 0 0 1 I I #
coedge $-1 $137 $227 $149 $200 reversed $56 $-1 #
coedge $-1 $238 $239 $137 $183 forward $240 $-1 #
edge $-1 $187 0 $241 20 $182 $242 forward 7 unknown #
coedge $-1 $243 $138 $239 $244 reversed $186 $-1 #
coedge $-1 $138 $243 $140 $190 reversed $186 $-1 #
loop $-1 $-1 $138 $245 #
vertex $-1 $244 $246 #
ellipse-curve $-1 0 0 0 0 0 -1 15 0 0 1 I I #
coedge $-1 $141 $140 $163 $216 reversed $142 $-1 #
edge $-1 $144 11.18033988749894903 $247 40 $140 $248 forward 7 unknown #
edge $-1 $143 11.18033988749894903 $249 40 $176 $250 forward 7 unknown #
face $-1 $164 $142 $2 $-1 $148 forward single #
point $-1 10 -11.18033988749894903 20 #
point $-1 10 -11.18033988749894903 0 #
face $-1 $251 $240 $2 $-1 $197 forward single #
loop $-1 $-1 $252 $146 #
plane-surface $-1 -10 0 10 1 0 0 0 0 -1 forward_v I I I I #
coedge $-1 $159 $149 $253 $254 forward $111 $-1 #
coedge $-1 $149 $158 $238 $255 forward $111 $-1 #
edge $-1 $241 2.300523983021863117 $256 3.982661324157723115 $149 $257 forward 7 unknown #
coedge $-1 $235 $234 $150 $202 forward $178 $-1 #
edge $-1 $207 -40 $204 40 $150 $258 forward 7 unknown #
coedge $-1 $151 $168 $235 $259 reversed $126 $-1 #
vertex $-1 $202 $260 #
straight-curve $-1 40 40 0 0 0 -1 I I #
coedge $-1 $163 $153 $234 $261 reversed $121 $-1 #
vertex $-1 $202 $262 #
straight-curve $-1 40 -40 0 0 0 -1 I I #
point $-1 40 40 -20 #
point $-1 40 -40 -20 #
coedge $-1 $161 $163 $243 $263 forward $121 $-1 #
coedge $-1 $239 $238 $161 $213 reversed $240 $-1 #
edge $-1 $264 -5 $214 15 $161 $265 forward 7 unknown #
vertex $-1 $162 $266 #
straight-curve $-1 0 -40 20 1 0 0 I I #
edge $-1 $249 -15 $247 5 $163 $267 forward 7 unknown #
face $-1 $169 $178 $2 $-1 $112 forward single #
plane-surface $-1 0 -40 0 0 1 0 0 0 1 forward_v I I I I #
coedge $-1 $168 $166 $268 $269 forward $126 $-1 #
coedge $-1 $253 $270 $166 $221 reversed $196 $-1 #
edge $-1 $222 -15 $271 5 $166 $272 forward 7 unknown #
vertex $-1 $221 $273 #
straight-curve $-1 0 40 20 -1 0 0 I I #
coedge $-1 $231 $230 $168 $225 reversed $147 $-1 #
edge $-1 $274 -5 $275 15 $168 $276 forward 7 unknown #
plane-surface $-1 0 40 0 0 -1 0 0 0 -1 forward_v I I I I #
coedge $-1 $181 $173 $252 $277 reversed $56 $-1 #
coedge $-1 $278 $279 $173 $229 forward $280 $-1 #
edge $-1 $281 -2.300523983021863117 $232 -0.8410686705679303321 $228 $188 forward 7 unknown #
coedge $-1 $224 $174 $177 $236 reversed $147 $-1 #
coedge $-1 $174 $224 $278 $282 forward $147 $-1 #
vertex $-1 $282 $283 #
straight-curve $-1 10 11.18033988749894903 0 0 0 1 I I #
coedge $-1 $201 $176 $206 $261 forward $178 $-1 #
coedge $-1 $177 $201 $203 $259 forward $178 $-1 #
edge $-1 $275 -40 $179 -11.18033988749894903 $177 $250 forward 7 unknown #
point $-1 10 11.18033988749894903 20 #
coedge $-1 $212 $182 $199 $255 reversed $240 $-1 #
coedge $-1 $182 $212 $184 $244 forward $240 $-1 #
loop $-1 $-1 $182 $195 #
vertex $-1 $255 $284 #
straight-curve $-1 -10 -11.18033988749894903 0 0 0 1 I I #
coedge $-1 $185 $184 $211 $263 reversed $186 $-1 #
edge $-1 $264 -40 $187 -11.18033988749894903 $239 $285 forward 7 unknown #
face $-1 $192 $186 $2 $-1 $286 forward single #
point $-1 -10 -11.18033988749894903 0 #
vertex $-1 $263 $287 #
straight-curve $-1 10 0 0 0 -1 0 I I #
vertex $-1 $191 $288 #
straight-curve $-1 10 0 20 0 -1 0 I I #
face $-1 $245 $280 $2 $-1 $286 forward single #
coedge $-1 $270 $253 $227 $277 forward $196 $-1 #
coedge $-1 $252 $220 $198 $254 reversed $196 $-1 #
edge $-1 $256 11.18033988749894903 $222 40 $198 $289 forward 7 unknown #
edge $-1 $214 -40 $241 -11.18033988749894903 $199 $289 forward 7 unknown #
vertex $-1 $277 $290 #
ellipse-curve $-1 0 0 20 0 0 -1 15 0 0 1 I I #
straight-curve $-1 40 0 20 0 1 0 I I #
edge $-1 $204 -40 $275 -10 $203 $223 forward 7 unknown #
point $-1 40 40 20 #
edge $-1 $249 10 $207 40 $206 $215 forward 7 unknown #
point $-1 40 -40 20 #
edge $-1 $247 -10 $264 10 $211 $291 forward 7 unknown #
vertex $-1 $263 $292 #
straight-curve $-1 -10 -40 5 0 0 1 I I #
point $-1 -10 -40 20 #
straight-curve $-1 10 -40 5 0 0 -1 I I #
coedge $-1 $279 $278 $219 $269 reversed $280 $-1 #
edge $-1 $271 -10 $274 10 $219 $293 forward 7 unknown #
coedge $-1 $220 $252 $279 $294 forward $196 $-1 #
vertex $-1 $269 $295 #
straight-curve $-1 -10 40 5 0 0 -1 I I #
point $-1 -10 40 20 #
vertex $-1 $269 $296 #
vertex $-1 $259 $297 #
straight-curve $-1 10 40 5 0 0 1 I I #
edge $-1 $256 -20 $281 0 $252 $298 forward 7 unknown #
coedge $-1 $268 $228 $231 $282 reversed $280 $-1 #
coedge $-1 $228 $268 $270 $294 reversed $280 $-1 #
loop $-1 $-1 $228 $251 #
vertex $-1 $229 $299 #
edge $-1 $274 -40 $232 -11.18033988749894903 $231 $248 forward 7 unknown #
point $-1 10 11.18033988749894903 0 #
point $-1 -10 -11.18033988749894903 20 #
straight-curve $-1 -10 0 0 0 1 0 I I #
plane-surface $-1 0 0 0 0 0 1 1 0 0 forward_v I I I I #
point $-1 10 -40 0 #
point $-1 10 -40 20 #
straight-curve $-1 -10 0 20 0 1 0 I I #
point $-1 -10 11.18033988749894903 20 #
straight-curve $-1 0 -40 0 -1 0 0 I I #
point $-1 -10 -40 0 #
straight-curve $-1 0 40 0 1 0 0 I I #
edge $-1 $281 11.18033988749894903 $271 40 $270 $285 forward 7 unknown #
point $-1 -10 40 0 #
point $-1 10 40 0 #
point $-1 10 40 20 #
straight-curve $-1 -10 11.18033988749894903 0 0 0 -1 I I #
point $-1 -10 11.18033988749894903 0 #
End-of-ACIS-data 