106 0 1 0           
body $-1 $1 $-1 $-1 #
lump $-1 $-1 $2 $0 #
shell $-1 $-1 $-1 $3 $1 #
face $-1 $4 $5 $2 $-1 $6 forward single #
face $-1 $7 $8 $2 $-1 $9 reversed single #
loop $-1 $-1 $10 $3 #
plane-surface $-1 0 0 10 0 0 1 1 0 0 0 I I I I #
face $-1 $11 $12 $2 $-1 $13 reversed single #
loop $-1 $-1 $14 $4 #
plane-surface $-1 0 -5 -5 0 1 0 0 0 1 0 I I I I #
coedge $-1 $15 $16 $17 $18 1 $5 $-1 #
face $-1 $19 $20 $2 $-1 $21 reversed single #
loop $-1 $-1 $22 $7 #
plane-surface $-1 0 5 -5 0 -1 0 0 0 -1 0 I I I I #
coedge $-1 $23 $24 $25 $26 1 $8 $-1 #
coedge $-1 $27 $10 $24 $28 0 $5 $-1 #
coedge $-1 $10 $27 $29 $30 0 $5 $-1 #
coedge $-1 $31 $25 $10 $18 0 $32 $-1 #
edge $-1 $33 $34 $17 $35 0 #
face $-1 $36 $37 $2 $-1 $38 reversed single #
loop $-1 $-1 $39 $11 #
plane-surface $-1 -40 0 0 1 0 0 0 0 -1 0 I I I I #
coedge $-1 $29 $40 $31 $41 1 $12 $-1 #
coedge $-1 $42 $14 $43 $44 1 $8 $-1 #
coedge $-1 $14 $42 $15 $28 1 $8 $-1 #
coedge $-1 $17 $45 $14 $26 0 $32 $-1 #
edge $-1 $46 $33 $25 $47 0 #
coedge $-1 $16 $15 $48 $49 1 $5 $-1 #
edge $-1 $33 $50 $24 $51 0 #
coedge $-1 $52 $22 $16 $30 1 $12 $-1 #
edge $-1 $53 $34 $29 $54 0 #
coedge $-1 $55 $17 $22 $41 0 $32 $-1 #
loop $-1 $56 $31 $57 #
vertex $-1 $18 $58 #
vertex $-1 $18 $59 #
ellipse-curve $-1 0 0 10 0 0 -1 15 0 0 1 I I #
face $-1 $57 $60 $2 $-1 $61 reversed single #
loop $-1 $62 $63 $19 #
plane-surface $-1 0 0 -20 0 0 1 1 0 0 0 I I I I #
coedge $-1 $64 $65 $66 $67 1 $20 $-1 #
coedge $-1 $22 $52 $68 $69 1 $12 $-1 #
edge $-1 $34 $70 $31 $71 0 #
coedge $-1 $24 $23 $72 $73 1 $8 $-1 #
coedge $-1 $63 $63 $23 $44 0 $37 $-1 #
edge $-1 $74 $46 $23 $75 0 #
coedge $-1 $25 $72 $63 $76 1 $32 $-1 #
vertex $-1 $76 $77 #
straight-curve $-1 -14.142135623730951 -5 0 0 0 1 I I #
coedge $-1 $72 $78 $27 $49 0 $32 $-1 #
edge $-1 $53 $50 $48 $35 0 #
vertex $-1 $49 $79 #
straight-curve $-1 0 -5 10 1 0 0 I I #
coedge $-1 $40 $29 $78 $80 1 $12 $-1 #
vertex $-1 $49 $81 #
straight-curve $-1 0 5 10 -1 0 0 I I #
coedge $-1 $78 $31 $82 $83 1 $32 $-1 #
loop $-1 $-1 $84 $57 #
face $-1 $85 $32 $2 $-1 $86 reversed single #
point $-1 -14.142135623730951 -5 10 #
point $-1 -14.142135623730951 5 10 #
loop $-1 $-1 $87 $36 #
plane-surface $-1 40 0 0 -1 0 0 0 0 1 0 I I I I #
loop $-1 $88 $66 $19 #
coedge $-1 $43 $43 $45 $76 0 $37 $-1 #
coedge $-1 $89 $39 $90 $91 1 $20 $-1 #
coedge $-1 $39 $89 $92 $93 0 $20 $-1 #
coedge $-1 $94 $95 $39 $67 0 $62 $-1 #
edge $-1 $96 $97 $39 $98 0 #
coedge $-1 $82 $82 $40 $69 0 $88 $-1 #
edge $-1 $70 $99 $40 $100 0 #
vertex $-1 $83 $101 #
straight-curve $-1 -14.142135623730951 5 0 0 0 -1 I I #
coedge $-1 $45 $48 $42 $73 0 $32 $-1 #
edge $-1 $50 $74 $72 $102 0 #
vertex $-1 $76 $103 #
straight-curve $-1 0 -5 -20 -1 0 0 I I #
edge $-1 $46 $74 $63 $104 0 #
point $-1 -14.142135623730951 -5 -20 #
coedge $-1 $48 $55 $52 $80 0 $32 $-1 #
point $-1 14.142135623730951 -5 10 #
edge $-1 $99 $53 $78 $105 0 #
point $-1 14.142135623730951 5 10 #
coedge $-1 $68 $68 $55 $83 0 $88 $-1 #
edge $-1 $99 $70 $82 $104 0 #
coedge $-1 $106 $107 $108 $109 1 $56 $-1 #
face $-1 $110 $111 $2 $-1 $112 forward single #
cone-surface $-1 0 0 0 0 0 1 15 0 0 1 I I 0 1 0 I I I I #
coedge $-1 $113 $114 $115 $116 1 $60 $-1 #
loop $-1 $-1 $68 $19 #
coedge $-1 $65 $64 $117 $118 1 $20 $-1 #
coedge $-1 $119 $120 $64 $91 0 $121 $-1 #
edge $-1 $122 $96 $64 $123 0 #
coedge $-1 $124 $125 $65 $93 1 $126 $-1 #
edge $-1 $127 $97 $92 $128 0 #
coedge $-1 $115 $66 $125 $129 0 $62 $-1 #
coedge $-1 $66 $115 $119 $130 0 $62 $-1 #
vertex $-1 $67 $131 #
vertex $-1 $129 $132 #
straight-curve $-1 -40 0 -20 0 1 0 I I #
vertex $-1 $83 $133 #
straight-curve $-1 0 5 -20 1 0 0 I I #
point $-1 -14.142135623730951 5 -20 #
straight-curve $-1 14.142135623730951 -5 0 0 0 -1 I I #
point $-1 14.142135623730951 -5 -20 #
ellipse-curve $-1 0 0 -20 0 0 1 15 0 0 1 I I #
straight-curve $-1 14.142135623730951 5 0 0 0 1 I I #
coedge $-1 $134 $84 $135 $136 1 $56 $-1 #
coedge $-1 $84 $137 $138 $139 1 $56 $-1 #
coedge $-1 $140 $141 $84 $109 0 $142 $-1 #
edge $-1 $143 $144 $108 $145 0 #
face $-1 $146 $147 $2 $-1 $148 forward single #
loop $-1 $-1 $149 $85 #
plane-surface $-1 0 0 20 0 0 1 1 0 0 0 I I I I #
coedge $-1 $150 $87 $151 $152 1 $60 $-1 #
coedge $-1 $87 $150 $153 $154 0 $60 $-1 #
coedge $-1 $95 $94 $87 $116 0 $62 $-1 #
edge $-1 $155 $156 $87 $157 0 #
coedge $-1 $158 $159 $89 $118 0 $111 $-1 #
edge $-1 $127 $122 $89 $160 0 #
coedge $-1 $153 $90 $95 $130 1 $121 $-1 #
coedge $-1 $90 $161 $158 $162 1 $121 $-1 #
loop $-1 $-1 $163 $164 #
vertex $-1 $118 $165 #
straight-curve $-1 -40 -40 0 0 0 -1 I I #
coedge $-1 $166 $92 $159 $167 1 $126 $-1 #
coedge $-1 $92 $151 $94 $129 1 $126 $-1 #
loop $-1 $-1 $168 $169 #
vertex $-1 $167 $170 #
straight-curve $-1 -40 40 0 0 0 -1 I I #
edge $-1 $97 $155 $125 $171 0 #
edge $-1 $156 $96 $119 $172 0 #
point $-1 -40 -40 -20 #
point $-1 -40 40 -20 #
point $-1 14.142135623730951 5 -20 #
coedge $-1 $173 $106 $174 $175 1 $56 $-1 #
coedge $-1 $176 $177 $106 $136 0 $178 $-1 #
edge $-1 $179 $143 $135 $180 0 #
coedge $-1 $107 $181 $182 $183 1 $56 $-1 #
coedge $-1 $184 $185 $107 $139 0 $186 $-1 #
edge $-1 $144 $187 $138 $188 0 #
coedge $-1 $189 $108 $185 $190 0 $142 $-1 #
coedge $-1 $108 $189 $176 $191 1 $142 $-1 #
loop $-1 $-1 $108 $192 #
vertex $-1 $109 $193 #
vertex $-1 $109 $194 #
straight-curve $-1 10 -11.180339887498949 0 0 0 -1 I I #
face $-1 $195 $196 $2 $-1 $197 forward single #
loop $-1 $-1 $174 $110 #
plane-surface $-1 10 0 10 -1 0 0 0 0 1 0 I I I I #
coedge $-1 $198 $199 $181 $200 0 $111 $-1 #
coedge $-1 $114 $113 $201 $202 1 $60 $-1 #
coedge $-1 $125 $203 $113 $152 0 $126 $-1 #
edge $-1 $204 $155 $113 $205 0 #
coedge $-1 $206 $119 $114 $154 1 $121 $-1 #
edge $-1 $207 $156 $114 $208 0 #
vertex $-1 $116 $209 #
vertex $-1 $154 $210 #
straight-curve $-1 40 0 -20 0 -1 0 I I #
coedge $-1 $199 $117 $120 $162 0 $111 $-1 #
coedge $-1 $117 $198 $124 $167 0 $111 $-1 #
straight-curve $-1 -40 0 20 0 -1 0 I I #
coedge $-1 $120 $211 $212 $213 0 $121 $-1 #
edge $-1 $122 $214 $120 $215 0 #
coedge $-1 $211 $206 $189 $216 0 $121 $-1 #
face $-1 $217 $121 $2 $-1 $218 reversed single #
point $-1 -40 -40 20 #
coedge $-1 $219 $124 $220 $221 0 $126 $-1 #
edge $-1 $222 $127 $124 $223 0 #
coedge $-1 $203 $219 $224 $225 0 $126 $-1 #
face $-1 $-1 $126 $2 $-1 $226 reversed single #
point $-1 -40 40 20 #
straight-curve $-1 0 40 -20 1 0 0 I I #
straight-curve $-1 0 -40 -20 -1 0 0 I I #
coedge $-1 $227 $134 $228 $229 1 $56 $-1 #
coedge $-1 $230 $231 $134 $175 0 $147 $-1 #
edge $-1 $232 $179 $174 $233 0 #
coedge $-1 $234 $135 $141 $191 0 $178 $-1 #
coedge $-1 $135 $235 $230 $236 0 $178 $-1 #
loop $-1 $-1 $135 $217 #
vertex $-1 $236 $237 #
ellipse-curve $-1 0 0 20 0 0 -1 15 0 0 1 I I #
coedge $-1 $137 $227 $149 $200 1 $56 $-1 #
coedge $-1 $238 $239 $137 $183 0 $240 $-1 #
edge $-1 $187 $241 $182 $242 0 #
coedge $-1 $243 $138 $239 $244 1 $186 $-1 #
coedge $-1 $138 $243 $140 $190 1 $186 $-1 #
loop $-1 $-1 $138 $245 #
vertex $-1 $244 $246 #
ellipse-curve $-1 0 0 0 0 0 -1 15 0 0 1 I I #
coedge $-1 $141 $140 $163 $216 1 $142 $-1 #
edge $-1 $144 $247 $140 $248 0 #
edge $-1 $143 $249 $176 $250 0 #
face $-1 $164 $142 $2 $-1 $148 forward single #
point $-1 10 -11.180339887498949 20 #
point $-1 10 -11.180339887498949 0 #
face $-1 $251 $240 $2 $-1 $197 forward single #
loop $-1 $-1 $252 $146 #
plane-surface $-1 -10 0 10 1 0 0 0 0 -1 0 I I I I #
coedge $-1 $159 $149 $253 $254 0 $111 $-1 #
coedge $-1 $149 $158 $238 $255 0 $111 $-1 #
edge $-1 $241 $256 $149 $257 0 #
coedge $-1 $235 $234 $150 $202 0 $178 $-1 #
edge $-1 $207 $204 $150 $258 0 #
coedge $-1 $151 $168 $235 $259 1 $126 $-1 #
vertex $-1 $202 $260 #
straight-curve $-1 40 40 0 0 0 -1 I I #
coedge $-1 $163 $153 $234 $261 1 $121 $-1 #
vertex $-1 $202 $262 #
straight-curve $-1 40 -40 0 0 0 -1 I I #
point $-1 40 40 -20 #
point $-1 40 -40 -20 #
coedge $-1 $161 $163 $243 $263 0 $121 $-1 #
coedge $-1 $239 $238 $161 $213 1 $240 $-1 #
edge $-1 $264 $214 $161 $265 0 #
vertex $-1 $162 $266 #
straight-curve $-1 0 -40 20 1 0 0 I I #
edge $-1 $249 $247 $163 $267 0 #
face $-1 $169 $178 $2 $-1 $112 forward single #
plane-surface $-1 0 -40 0 0 1 0 0 0 1 0 I I I I #
coedge $-1 $168 $166 $268 $269 0 $126 $-1 #
coedge $-1 $253 $270 $166 $221 1 $196 $-1 #
edge $-1 $222 $271 $166 $272 0 #
vertex $-1 $221 $273 #
straight-curve $-1 0 40 20 -1 0 0 I I #
coedge $-1 $231 $230 $168 $225 1 $147 $-1 #
edge $-1 $274 $275 $168 $276 0 #
plane-surface $-1 0 40 0 0 -1 0 0 0 -1 0 I I I I #
coedge $-1 $181 $173 $252 $277 1 $56 $-1 #
coedge $-1 $278 $279 $173 $229 0 $280 $-1 #
edge $-1 $281 $232 $228 $188 0 #
coedge $-1 $224 $174 $177 $236 1 $147 $-1 #
coedge $-1 $174 $224 $278 $282 0 $147 $-1 #
vertex $-1 $282 $283 #
straight-curve $-1 10 11.180339887498949 0 0 0 1 I I #
coedge $-1 $201 $176 $206 $261 0 $178 $-1 #
coedge $-1 $177 $201 $203 $259 0 $178 $-1 #
edge $-1 $275 $179 $177 $250 0 #
point $-1 10 11.180339887498949 20 #
coedge $-1 $212 $182 $199 $255 1 $240 $-1 #
coedge $-1 $182 $212 $184 $244 0 $240 $-1 #
loop $-1 $-1 $182 $195 #
vertex $-1 $255 $284 #
straight-curve $-1 -10 -11.180339887498949 0 0 0 1 I I #
coedge $-1 $185 $184 $211 $263 1 $186 $-1 #
edge $-1 $264 $187 $239 $285 0 #
face $-1 $192 $186 $2 $-1 $286 forward single #
point $-1 -10 -11.180339887498949 0 #
vertex $-1 $263 $287 #
straight-curve $-1 10 0 0 0 -1 0 I I #
vertex $-1 $191 $288 #
straight-curve $-1 10 0 20 0 -1 0 I I #
face $-1 $245 $280 $2 $-1 $286 forward single #
coedge $-1 $270 $253 $227 $277 0 $196 $-1 #
coedge $-1 $252 $220 $198 $254 1 $196 $-1 #
edge $-1 $256 $222 $198 $289 0 #
edge $-1 $214 $241 $199 $289 0 #
vertex $-1 $277 $290 #
ellipse-curve $-1 0 0 20 0 0 -1 15 0 0 1 I I #
straight-curve $-1 40 0 20 0 1 0 I I #
edge $-1 $204 $275 $203 $223 0 #
point $-1 40 40 20 #
edge $-1 $249 $207 $206 $215 0 #
point $-1 40 -40 20 #
edge $-1 $247 $264 $211 $291 0 #
vertex $-1 $263 $292 #
straight-curve $-1 -10 -40 5 0 0 1 I I #
point $-1 -10 -40 20 #
straight-curve $-1 10 -40 5 0 0 -1 I I #
coedge $-1 $279 $278 $219 $269 1 $280 $-1 #
edge $-1 $271 $274 $219 $293 0 #
coedge $-1 $220 $252 $279 $294 0 $196 $-1 #
vertex $-1 $269 $295 #
straight-curve $-1 -10 40 5 0 0 -1 I I #
point $-1 -10 40 20 #
vertex $-1 $269 $296 #
vertex $-1 $259 $297 #
straight-curve $-1 10 40 5 0 0 1 I I #
edge $-1 $256 $281 $252 $298 0 #
coedge $-1 $268 $228 $231 $282 1 $280 $-1 #
coedge $-1 $228 $268 $270 $294 1 $280 $-1 #
loop $-1 $-1 $228 $251 #
vertex $-1 $229 $299 #
edge $-1 $274 $232 $231 $248 0 #
point $-1 10 11.180339887498949 0 #
point $-1 -10 -11.180339887498949 20 #
straight-curve $-1 -10 0 0 0 1 0 I I #
plane-surface $-1 0 0 0 0 0 1 1 0 0 0 I I I I #
point $-1 10 -40 0 #
point $-1 10 -40 20 #
straight-curve $-1 -10 0 20 0 1 0 I I #
point $-1 -10 11.180339887498949 20 #
straight-curve $-1 0 -40 0 -1 0 0 I I #
point $-1 -10 -40 0 #
straight-curve $-1 0 40 0 1 0 0 I I #
edge $-1 $281 $271 $270 $285 0 #
point $-1 -10 40 0 #
point $-1 10 40 0 #
point $-1 10 40 20 #
straight-curve $-1 -10 11.180339887498949 0 0 0 -1 I I #
point $-1 -10 11.180339887498949 0 #
End-of-ACIS-data 