600 0 2 0           
24 FBMach with ACIS - 6.0.3 13 ACIS 6.0.3 NT 24 Wed May 23 20:25:37 2001 
1 9.9999999999999995e-007 1e-010 
body $2 $3 $-1 $4 #
bdycol-kcp $-1 1 4 $5 $6 $7 $8 #
model_id-kcp-attrib $-1 $-1 $-1 $0 1 990663936 60 -331612159 1 #
lump $-1 $-1 $9 $0 #
transform $-1 1 0 0 0 1 0 0 0 1 0 0 0 1 no_rotate no_reflect no_shear #
body $10 $11 $-1 $12 #
body $13 $14 $-1 $15 #
body $16 $17 $-1 $18 #
body $19 $20 $-1 $21 #
shell $-1 $-1 $-1 $22 $-1 $3 #
model_id-kcp-attrib $-1 $-1 $-1 $5 1 990663936 60 -331612158 1 #
lump $-1 $-1 $23 $5 #
transform $-1 1 0 0 0 1 0 0 0 1 0 0 0 1 no_rotate no_reflect no_shear #
rgb_color-st-attrib $-1 $24 $-1 $6 1 0 0 #
lump $-1 $-1 $25 $6 #
transform $-1 1 0 0 0 1 0 0 0 1 0 -25.590169943749466 120 1 no_rotate no_reflect no_shear #
rgb_color-st-attrib $-1 $26 $-1 $7 1 0 0 #
lump $-1 $-1 $27 $7 #
transform $-1 1 0 0 0 1 0 0 0 1 0 25.590169943749466 120 1 no_rotate no_reflect no_shear #
rgb_color-st-attrib $-1 $28 $-1 $8 0.59999999999999998 0.90000000000000002 1 #
lump $-1 $-1 $29 $8 #
transform $-1 1 0 0 0 1 0 0 0 1 0 0 0 1 no_rotate no_reflect no_shear #
face $30 $31 $32 $9 $-1 $33 forward single #
shell $-1 $-1 $-1 $34 $-1 $11 #
model_id-kcp-attrib $-1 $-1 $13 $6 1 990663936 400 -326107133 1 #
shell $-1 $-1 $-1 $35 $-1 $14 #
model_id-kcp-attrib $-1 $-1 $16 $7 1 990663936 540 -333709308 1 #
shell $-1 $-1 $-1 $36 $-1 $17 #
model_id-kcp-attrib $-1 $-1 $19 $8 1 990663936 731 -321191931 1 #
shell $-1 $-1 $-1 $37 $-1 $20 #
model_id-kcp-attrib $-1 $-1 $-1 $22 1 990663936 60 -331612159 2 #
face $38 $39 $40 $9 $-1 $41 reversed single #
loop $-1 $-1 $42 $22 #
plane-surface $-1 0 0 10 0 0 1 1 0 0 forward_v I I I I #
face $43 $44 $45 $23 $-1 $46 forward single #
face $-1 $47 $48 $25 $-1 $49 forward single #
face $-1 $50 $51 $27 $-1 $52 forward single #
face $-1 $53 $54 $29 $-1 $55 forward single #
model_id-kcp-attrib $-1 $-1 $-1 $31 1 990663936 60 -331612159 3 #
face $56 $57 $58 $9 $-1 $59 reversed single #
loop $-1 $-1 $60 $31 #
plane-surface $-1 0 -5 -5 0 1 0 0 0 1 forward_v I I I I #
coedge $-1 $61 $62 $63 $64 reversed $32 $-1 #
model_id-kcp-attrib $-1 $65 $-1 $34 1 990663936 60 -331612158 7 #
face $66 $67 $68 $23 $-1 $69 reversed single #
loop $-1 $-1 $70 $34 #
plane-surface $-1 0 0 20 0 0 1 1 0 0 forward_v I I I I #
face $-1 $71 $72 $25 $-1 $73 forward single #
loop $-1 $-1 $74 $35 #
plane-surface $-1 0 20.590169943749466 -125 0 1 0 0 0 1 forward_v I I I I #
face $-1 $75 $76 $27 $-1 $77 forward single #
loop $-1 $-1 $78 $36 #
plane-surface $-1 0 -25.590169943749466 -100 0 0 1 1 0 0 forward_v I I I I #
face $-1 $79 $80 $29 $-1 $81 forward single #
loop $-1 $-1 $82 $37 #
plane-surface $-1 0 0 20 0 0 1 1 0 0 forward_v I I I I #
model_id-kcp-attrib $-1 $-1 $-1 $39 1 990663936 60 -331612159 4 #
face $83 $84 $85 $9 $-1 $86 reversed single #
loop $-1 $-1 $87 $39 #
plane-surface $-1 0 5 -5 0 -1 0 0 0 -1 forward_v I I I I #
coedge $-1 $88 $89 $90 $91 reversed $40 $-1 #
coedge $-1 $92 $42 $89 $93 forward $32 $-1 #
coedge $-1 $42 $92 $94 $95 forward $32 $-1 #
coedge $-1 $96 $90 $42 $64 forward $97 $-1 #
edge $-1 $98 2.8017557441356713 $99 3.4814295630439149 $63 $100 forward 7 unknown #
model_id-kcp-attrib $-1 $-1 $43 $34 1 990663936 60 -331612158 5 #
model_id-kcp-attrib $-1 $-1 $-1 $44 1 990663936 60 -331612158 3 #
face $101 $102 $103 $23 $-1 $104 reversed single #
loop $-1 $-1 $105 $44 #
plane-surface $-1 0 0 -20 0 0 1 1 0 0 forward_v I I I I #
coedge $-1 $106 $107 $108 $109 forward $45 $-1 #
face $-1 $110 $111 $25 $-1 $112 reversed single #
loop $-1 $-1 $113 $47 #
plane-surface $-1 0 25.590169943749466 -100 0 0 1 1 0 0 forward_v I I I I #
coedge $-1 $114 $115 $116 $117 forward $48 $-1 #
face $-1 $118 $119 $27 $-1 $120 reversed single #
loop $-1 $-1 $121 $50 #
plane-surface $-1 0 -20.590169943749466 -125 0 -1 0 0 0 -1 forward_v I I I I #
coedge $-1 $122 $123 $124 $125 forward $51 $-1 #
face $-1 $126 $127 $29 $-1 $128 forward single #
loop $-1 $-1 $129 $53 #
cone-surface $-1 0 0 10 0 0 1 15 0 0 1 I I 0 1 15 forward I I I I #
coedge $-1 $130 $131 $132 $133 forward $54 $-1 #
model_id-kcp-attrib $-1 $-1 $-1 $57 1 990663936 60 -331612159 5 #
face $134 $135 $136 $9 $-1 $137 reversed single #
loop $-1 $-1 $138 $57 #
plane-surface $-1 -40 0 0 1 0 0 0 0 -1 forward_v I I I I #
coedge $-1 $94 $139 $96 $140 reversed $58 $-1 #
coedge $-1 $141 $60 $142 $143 reversed $40 $-1 #
coedge $-1 $60 $141 $61 $93 reversed $40 $-1 #
coedge $-1 $63 $144 $60 $91 forward $97 $-1 #
edge $-1 $145 -20 $98 10 $90 $146 forward 7 unknown #
coedge $-1 $62 $61 $147 $148 reversed $32 $-1 #
edge $-1 $98 -14.142135623730951 $149 14.142135623730951 $89 $150 forward 7 unknown #
coedge $-1 $151 $87 $62 $95 reversed $58 $-1 #
edge $-1 $152 -14.142135623730951 $99 14.142135623730951 $94 $153 forward 7 unknown #
coedge $-1 $154 $63 $87 $140 forward $97 $-1 #
loop $-1 $155 $96 $156 #
vertex $-1 $64 $157 #
vertex $-1 $64 $158 #
ellipse-curve $-1 0 0 10 0 0 -1 15 0 0 1 I I #
model_id-kcp-attrib $-1 $-1 $-1 $67 1 990663936 60 -331612158 6 #
face $159 $160 $161 $23 $-1 $162 reversed single #
loop $-1 $-1 $163 $67 #
plane-surface $-1 0 -40 0 0 1 0 0 0 1 forward_v I I I I #
coedge $-1 $164 $165 $166 $167 forward $68 $-1 #
coedge $-1 $168 $70 $169 $170 forward $45 $-1 #
coedge $-1 $70 $168 $171 $172 forward $45 $-1 #
coedge $-1 $173 $174 $70 $109 reversed $175 $-1 #
edge $-1 $176 -40 $177 40 $108 $178 forward 7 unknown #
face $-1 $179 $180 $25 $-1 $181 reversed single #
loop $-1 $-1 $182 $71 #
plane-surface $-1 0 -14.409830056250534 -120 0 1 0 0 0 1 forward_v I I I I #
coedge $-1 $183 $184 $185 $186 forward $72 $-1 #
coedge $-1 $187 $74 $188 $189 forward $48 $-1 #
coedge $-1 $74 $187 $183 $190 forward $48 $-1 #
coedge $-1 $185 $191 $74 $117 reversed $180 $-1 #
edge $192 $193 37.5 $194 57.5 $116 $195 forward 7 unknown #
face $-1 $196 $197 $27 $-1 $198 reversed single #
loop $-1 $-1 $199 $75 #
plane-surface $-1 0 14.409830056250534 -120 0 -1 0 0 0 -1 forward_v I I I I #
coedge $-1 $200 $201 $202 $203 forward $76 $-1 #
coedge $-1 $204 $78 $205 $206 forward $51 $-1 #
coedge $-1 $78 $204 $200 $207 reversed $51 $-1 #
coedge $-1 $202 $208 $78 $125 reversed $197 $-1 #
edge $-1 $209 -7.7950849718747328 $210 27.204915028125267 $124 $211 forward 7 unknown #
face $-1 $212 $213 $29 $-1 $214 forward single #
loop $-1 $-1 $215 $79 #
plane-surface $-1 10 -11.180339887498949 10 -1 0 0 0 0 1 forward_v I I I I #
coedge $-1 $216 $217 $131 $218 reversed $80 $-1 #
coedge $-1 $219 $82 $220 $221 forward $54 $-1 #
coedge $-1 $82 $222 $129 $218 forward $54 $-1 #
coedge $-1 $223 $224 $82 $133 reversed $225 $-1 #
edge $-1 $226 -8.680339887498949 $227 -2.5 $132 $228 forward 7 unknown #
model_id-kcp-attrib $-1 $-1 $-1 $84 1 990663936 60 -331612159 6 #
face $229 $156 $230 $9 $-1 $231 reversed single #
loop $-1 $232 $233 $84 #
plane-surface $-1 0 0 -20 0 0 1 1 0 0 forward_v I I I I #
coedge $-1 $234 $235 $236 $237 reversed $85 $-1 #
coedge $-1 $87 $151 $238 $239 reversed $58 $-1 #
edge $-1 $99 -10 $240 20 $96 $241 forward 7 unknown #
coedge $-1 $89 $88 $242 $243 reversed $40 $-1 #
coedge $-1 $233 $233 $88 $143 forward $136 $-1 #
edge $244 $245 -14.142135623730951 $145 14.142135623730951 $88 $246 forward 7 unknown #
coedge $-1 $90 $242 $233 $247 reversed $97 $-1 #
vertex $-1 $247 $248 #
straight-curve $-1 -14.142135623730951 -5 0 0 0 1 I I #
coedge $-1 $242 $249 $92 $148 forward $97 $-1 #
edge $-1 $152 -0.33983690945412193 $149 0.33983690945412193 $147 $100 forward 7 unknown #
vertex $-1 $148 $250 #
straight-curve $-1 0 -5 10 1 0 0 I I #
coedge $-1 $139 $94 $249 $251 reversed $58 $-1 #
vertex $-1 $148 $252 #
straight-curve $-1 0 5 10 -1 0 0 I I #
coedge $-1 $249 $96 $253 $254 reversed $97 $-1 #
loop $-1 $-1 $255 $156 #
face $256 $257 $97 $9 $-1 $258 reversed single #
point $-1 -14.142135623730951 -5 10 #
point $-1 -14.142135623730951 5 10 #
model_id-kcp-attrib $-1 $-1 $-1 $102 1 990663936 60 -331612158 2 #
face $259 $260 $261 $23 $-1 $262 reversed single #
loop $-1 $-1 $263 $102 #
plane-surface $-1 -40 0 0 1 0 0 0 0 -1 forward_v I I I I #
coedge $-1 $264 $171 $265 $266 forward $103 $-1 #
coedge $-1 $267 $105 $264 $268 forward $68 $-1 #
coedge $-1 $105 $267 $269 $270 forward $68 $-1 #
coedge $-1 $174 $173 $105 $167 reversed $175 $-1 #
edge $-1 $271 -40 $272 40 $166 $273 forward 7 unknown #
coedge $-1 $107 $106 $274 $275 forward $45 $-1 #
coedge $-1 $276 $277 $106 $170 reversed $261 $-1 #
edge $-1 $177 -40 $278 40 $169 $279 forward 7 unknown #
coedge $-1 $163 $280 $107 $172 reversed $103 $-1 #
edge $-1 $281 -40 $176 40 $171 $282 forward 7 unknown #
coedge $-1 $166 $108 $280 $283 forward $175 $-1 #
coedge $-1 $108 $166 $276 $284 reversed $175 $-1 #
loop $-1 $-1 $173 $260 #
vertex $-1 $109 $285 #
vertex $-1 $109 $286 #
straight-curve $-1 40 0 20 0 1 0 I I #
face $-1 $287 $288 $25 $-1 $289 reversed single #
loop $-1 $-1 $185 $110 #
plane-surface $-1 10 0 0 -1 0 0 0 0 1 forward_v I I I I #
coedge $-1 $290 $291 $292 $293 forward $111 $-1 #
coedge $-1 $294 $113 $115 $190 reversed $72 $-1 #
coedge $-1 $113 $294 $290 $295 forward $72 $-1 #
coedge $-1 $292 $116 $113 $186 reversed $180 $-1 #
edge $-1 $296 -27.204915028125267 $193 7.7950849718747328 $185 $297 forward 7 unknown #
coedge $-1 $115 $114 $298 $299 forward $48 $-1 #
coedge $-1 $300 $301 $114 $189 reversed $288 $-1 #
edge $302 $194 -10 $303 10 $188 $304 forward 7 unknown #
edge $-1 $305 -2.9289321881345245 $193 17.071067811865476 $183 $306 forward 7 unknown #
coedge $-1 $116 $292 $300 $307 reversed $180 $-1 #
convexity-sys-attrib $-1 $-1 $-1 $117 #
vertex $-1 $117 $308 #
vertex $-1 $307 $309 #
straight-curve $-1 10 20.590169943749466 -62.5 0 0 -1 I I #
face $-1 $310 $311 $27 $-1 $312 reversed single #
loop $-1 $-1 $208 $118 #
plane-surface $-1 10 0 0 -1 0 0 0 0 1 forward_v I I I I #
coedge $-1 $313 $205 $208 $314 forward $119 $-1 #
coedge $-1 $315 $121 $123 $207 forward $76 $-1 #
coedge $-1 $121 $315 $316 $317 forward $76 $-1 #
coedge $-1 $318 $124 $121 $203 reversed $197 $-1 #
edge $319 $320 -57.5 $209 -37.5 $202 $321 forward 7 unknown #
coedge $-1 $123 $122 $322 $323 forward $51 $-1 #
coedge $-1 $199 $324 $122 $206 reversed $119 $-1 #
edge $-1 $210 -10 $325 10 $205 $326 forward 7 unknown #
edge $-1 $209 -2.9289321881345245 $327 17.071067811865476 $123 $328 forward 7 unknown #
coedge $-1 $124 $318 $199 $314 reversed $197 $-1 #
vertex $-1 $125 $329 #
vertex $-1 $125 $330 #
straight-curve $-1 10 -12.795084971874733 -100 0 1 0 I I #
face $-1 $331 $332 $29 $-1 $333 forward single #
loop $-1 $-1 $334 $126 #
plane-surface $-1 10 -5 10 0 -1 0 0 0 -1 forward_v I I I I #
coedge $-1 $335 $336 $222 $337 reversed $127 $-1 #
coedge $-1 $338 $129 $336 $339 reversed $80 $-1 #
coedge $-1 $129 $338 $223 $340 forward $80 $-1 #
edge $-1 $341 -0.84106867056793033 $226 0.84106867056793033 $129 $342 forward 7 unknown #
coedge $-1 $343 $130 $344 $345 forward $54 $-1 #
coedge $-1 $346 $347 $130 $221 reversed $348 $-1 #
edge $-1 $227 -15 $349 5 $220 $350 forward 7 unknown #
coedge $-1 $131 $351 $215 $337 forward $54 $-1 #
coedge $-1 $352 $132 $217 $340 reversed $225 $-1 #
coedge $-1 $132 $352 $346 $353 forward $225 $-1 #
loop $-1 $-1 $132 $354 #
vertex $-1 $133 $355 #
vertex $-1 $221 $356 #
straight-curve $-1 10 2.5 20 0 -1 0 I I #
model_id-kcp-attrib $-1 $-1 $-1 $135 1 990663936 60 -331612159 7 #
loop $-1 $-1 $357 $135 #
plane-surface $-1 40 0 0 -1 0 0 0 0 1 forward_v I I I I #
loop $-1 $358 $236 $84 #
coedge $-1 $142 $142 $144 $247 forward $136 $-1 #
coedge $-1 $359 $138 $360 $361 reversed $85 $-1 #
coedge $-1 $138 $359 $362 $363 forward $85 $-1 #
coedge $-1 $364 $365 $138 $237 forward $232 $-1 #
edge $366 $367 -40 $368 40 $138 $369 forward 7 unknown #
coedge $-1 $253 $253 $139 $239 forward $358 $-1 #
edge $370 $240 -14.142135623730951 $371 14.142135623730951 $139 $372 forward 7 unknown #
vertex $-1 $254 $373 #
straight-curve $-1 -14.142135623730951 5 0 0 0 -1 I I #
coedge $-1 $144 $147 $141 $243 forward $97 $-1 #
edge $-1 $149 -10 $245 20 $242 $374 forward 7 unknown #
attrib_edge_convexity-kcp-attrib $-1 $375 $-1 $143 1 #
vertex $-1 $247 $376 #
straight-curve $-1 0 -5 -20 -1 0 0 I I #
edge $377 $145 -2.8017557441356713 $245 -0.33983690945412193 $233 $378 forward 7 unknown #
point $-1 -14.142135623730951 -5 -20 #
coedge $-1 $147 $154 $151 $251 forward $97 $-1 #
point $-1 14.142135623730951 -5 10 #
edge $-1 $371 -20 $152 10 $249 $379 forward 7 unknown #
point $-1 14.142135623730951 5 10 #
coedge $-1 $238 $238 $154 $254 forward $358 $-1 #
edge $380 $371 0.33983690945412193 $240 2.8017557441356713 $253 $378 forward 7 unknown #
coedge $-1 $381 $382 $383 $384 reversed $155 $-1 #
model_id-kcp-attrib $-1 $-1 $-1 $156 1 990663936 60 -331612159 8 #
face $385 $386 $387 $9 $-1 $388 forward single #
cone-surface $-1 0 0 0 0 0 1 15 0 0 1 I I 0 1 15 forward I I I I #
model_id-kcp-attrib $-1 $-1 $-1 $160 1 990663936 60 -331612158 8 #
face $389 $-1 $175 $23 $-1 $390 reversed single #
loop $-1 $-1 $276 $160 #
plane-surface $-1 0 40 0 0 -1 0 0 0 -1 forward_v I I I I #
coedge $-1 $391 $274 $277 $392 forward $161 $-1 #
coedge $-1 $280 $163 $164 $268 reversed $103 $-1 #
coedge $-1 $274 $391 $163 $266 reversed $161 $-1 #
edge $-1 $281 -20 $393 20 $265 $394 forward 7 unknown #
coedge $-1 $165 $164 $391 $395 forward $68 $-1 #
edge $-1 $272 -40 $393 40 $264 $396 forward 7 unknown #
coedge $-1 $277 $276 $165 $270 reversed $261 $-1 #
edge $-1 $397 -40 $271 40 $269 $398 forward 7 unknown #
vertex $-1 $167 $399 #
vertex $-1 $283 $400 #
straight-curve $-1 40 0 -20 0 -1 0 I I #
coedge $-1 $263 $265 $168 $275 reversed $161 $-1 #
edge $-1 $278 -40 $281 40 $274 $401 forward 7 unknown #
coedge $-1 $269 $169 $174 $284 forward $261 $-1 #
coedge $-1 $169 $269 $263 $392 reversed $261 $-1 #
vertex $-1 $170 $402 #
straight-curve $-1 0 40 20 -1 0 0 I I #
coedge $-1 $171 $264 $173 $283 reversed $103 $-1 #
vertex $-1 $275 $403 #
straight-curve $-1 0 -40 20 1 0 0 I I #
edge $-1 $176 -20 $272 20 $173 $404 forward 7 unknown #
edge $-1 $177 -20 $271 20 $174 $405 forward 7 unknown #
point $-1 40 -40 20 #
point $-1 40 40 20 #
face $-1 $-1 $406 $25 $-1 $407 reversed single #
loop $-1 $-1 $408 $179 #
plane-surface $-1 0 0 -120 0 0 1 1 0 0 forward_v I I I I #
coedge $-1 $409 $182 $184 $295 reversed $111 $-1 #
coedge $-1 $182 $409 $408 $410 forward $111 $-1 #
coedge $-1 $191 $185 $182 $293 reversed $180 $-1 #
edge $-1 $411 -60 $296 -40 $292 $412 forward 7 unknown #
coedge $-1 $184 $183 $413 $414 forward $72 $-1 #
edge $-1 $415 -10 $296 10 $290 $416 forward 7 unknown #
vertex $-1 $186 $417 #
straight-curve $-1 10 12.795084971874733 -100 0 1 0 I I #
coedge $-1 $418 $413 $187 $299 reversed $406 $-1 #
edge $419 $303 -57.5 $305 -37.5 $298 $420 forward 7 unknown #
coedge $-1 $408 $188 $191 $307 forward $288 $-1 #
coedge $-1 $188 $408 $418 $421 forward $288 $-1 #
convexity-sys-attrib $-1 $-1 $-1 $189 #
vertex $-1 $299 $422 #
straight-curve $-1 0 20.590169943749466 -120 -1 0 0 I I #
vertex $-1 $299 $423 #
straight-curve $-1 -7.0710678118654755 20.590169943749466 -100 1 0 0 I I #
edge $424 $194 -20.590169943749466 $411 14.409830056250534 $191 $425 forward 7 unknown #
point $-1 10 20.590169943749466 -100 #
point $-1 10 20.590169943749466 -120 #
face $-1 $-1 $426 $27 $-1 $427 reversed single #
loop $-1 $-1 $428 $196 #
plane-surface $-1 0 0 -120 0 0 1 1 0 0 forward_v I I I I #
coedge $-1 $324 $199 $428 $429 forward $119 $-1 #
edge $-1 $210 40 $430 60 $208 $431 forward 7 unknown #
coedge $-1 $201 $200 $432 $433 forward $76 $-1 #
coedge $-1 $434 $435 $201 $317 reversed $311 $-1 #
edge $436 $437 -10 $320 10 $316 $438 forward 7 unknown #
coedge $-1 $208 $202 $435 $439 reversed $197 $-1 #
convexity-sys-attrib $-1 $-1 $-1 $203 #
vertex $-1 $317 $440 #
straight-curve $-1 10 -20.590169943749466 -62.5 0 0 1 I I #
coedge $-1 $441 $432 $204 $323 reversed $426 $-1 #
edge $-1 $325 -27.204915028125267 $327 7.7950849718747328 $322 $442 forward 7 unknown #
coedge $-1 $205 $313 $441 $443 forward $119 $-1 #
vertex $-1 $323 $444 #
straight-curve $-1 0 14.409830056250534 -100 -1 0 0 I I #
vertex $-1 $323 $445 #
straight-curve $-1 7.0710678118654755 -20.590169943749466 -100 -1 0 0 I I #
point $-1 10 -20.590169943749466 -100 #
point $-1 10 14.409830056250534 -100 #
face $-1 $446 $447 $29 $-1 $448 forward single #
loop $-1 $-1 $449 $212 #
plane-surface $-1 -10 -5 10 1 0 0 0 0 -1 forward_v I I I I #
coedge $-1 $450 $451 $351 $452 reversed $213 $-1 #
coedge $-1 $453 $215 $451 $454 reversed $127 $-1 #
coedge $-1 $215 $453 $216 $339 forward $127 $-1 #
edge $-1 $455 -0.59016994374947451 $341 5.5901699437494745 $215 $456 forward 7 unknown #
coedge $-1 $217 $216 $457 $458 reversed $80 $-1 #
edge $-1 $459 0 $341 10 $336 $460 forward 7 unknown #
edge $-1 $461 0 $226 10 $217 $462 forward 7 unknown #
vertex $-1 $337 $463 #
ellipse-curve $-1 0 0 20 0 0 1 15 0 0 1 I I #
coedge $-1 $464 $219 $465 $466 forward $54 $-1 #
coedge $-1 $467 $468 $219 $345 reversed $469 $-1 #
edge $-1 $349 -0.59016994374947451 $470 5.5901699437494745 $344 $471 forward 7 unknown #
coedge $-1 $472 $220 $224 $353 reversed $348 $-1 #
coedge $-1 $220 $472 $467 $473 forward $348 $-1 #
loop $-1 $-1 $220 $474 #
vertex $-1 $345 $475 #
straight-curve $-1 -5 5 20 -1 0 0 I I #
coedge $-1 $222 $464 $334 $452 forward $54 $-1 #
coedge $-1 $224 $223 $476 $477 reversed $225 $-1 #
edge $-1 $478 0 $227 10 $224 $479 forward 7 unknown #
face $-1 $480 $225 $29 $-1 $481 forward single #
point $-1 10 11.180339887498949 20 #
point $-1 10 5 20 #
coedge $-1 $482 $483 $484 $485 reversed $230 $-1 #
loop $-1 $-1 $238 $84 #
coedge $-1 $235 $234 $486 $487 reversed $85 $-1 #
coedge $-1 $488 $489 $234 $361 forward $490 $-1 #
edge $491 $492 -20 $367 20 $234 $493 forward 7 unknown #
coedge $-1 $494 $495 $235 $363 reversed $496 $-1 #
edge $497 $498 -20 $368 20 $362 $499 forward 7 unknown #
coedge $-1 $484 $236 $495 $500 forward $232 $-1 #
coedge $-1 $236 $484 $488 $501 forward $232 $-1 #
attrib_edge_convexity-kcp-attrib $-1 $502 $-1 $237 1 #
vertex $-1 $237 $503 #
vertex $-1 $500 $504 #
straight-curve $-1 -40 0 -20 0 1 0 I I #
attrib_edge_convexity-kcp-attrib $-1 $505 $-1 $239 1 #
vertex $-1 $254 $506 #
straight-curve $-1 0 5 -20 1 0 0 I I #
point $-1 -14.142135623730951 5 -20 #
straight-curve $-1 14.142135623730951 -5 0 0 0 -1 I I #
convexity-sys-attrib $-1 $-1 $244 $143 #
point $-1 14.142135623730951 -5 -20 #
attrib_edge_convexity-kcp-attrib $-1 $507 $-1 $247 1 #
ellipse-curve $-1 0 0 -20 0 0 1 15 0 0 1 I I #
straight-curve $-1 14.142135623730951 5 0 0 0 1 I I #
attrib_edge_convexity-kcp-attrib $-1 $508 $-1 $254 1 #
coedge $-1 $509 $255 $510 $511 reversed $155 $-1 #
coedge $-1 $255 $512 $513 $514 reversed $155 $-1 #
coedge $-1 $515 $516 $255 $384 forward $517 $-1 #
edge $-1 $518 -20 $519 0 $383 $520 forward 7 unknown #
model_id-kcp-attrib $-1 $-1 $-1 $257 1 990663936 60 -331612159 9 #
face $521 $522 $523 $9 $-1 $524 forward single #
loop $-1 $-1 $525 $257 #
plane-surface $-1 0 0 20 0 0 1 1 0 0 forward_v I I I I #
model_id-kcp-attrib $-1 $-1 $-1 $260 1 990663936 60 -331612158 4 #
plane-surface $-1 40 0 0 -1 0 0 0 0 1 forward_v I I I I #
coedge $-1 $265 $263 $267 $395 reversed $161 $-1 #
edge $-1 $278 -20 $397 20 $277 $526 forward 7 unknown #
vertex $-1 $395 $527 #
straight-curve $-1 -40 -40 0 0 0 -1 I I #
edge $-1 $393 -40 $397 40 $391 $528 forward 7 unknown #
straight-curve $-1 0 -40 -20 -1 0 0 I I #
vertex $-1 $270 $529 #
straight-curve $-1 0 40 -20 1 0 0 I I #
point $-1 40 40 -20 #
point $-1 40 -40 -20 #
straight-curve $-1 -40 0 20 0 -1 0 I I #
point $-1 -40 40 20 #
point $-1 -40 -40 20 #
straight-curve $-1 40 -40 0 0 0 -1 I I #
straight-curve $-1 40 40 0 0 0 -1 I I #
loop $-1 $-1 $530 $287 #
plane-surface $-1 -10 0 0 1 0 0 0 0 -1 forward_v I I I I #
coedge $-1 $301 $300 $291 $410 reversed $288 $-1 #
coedge $-1 $291 $290 $530 $531 forward $111 $-1 #
edge $532 $533 -10 $411 10 $408 $534 forward 7 unknown #
vertex $-1 $410 $535 #
straight-curve $-1 10 -14.409830056250534 -60 0 0 1 I I #
coedge $-1 $298 $530 $294 $414 reversed $406 $-1 #
edge $-1 $305 -7.7950849718747328 $415 27.204915028125267 $413 $536 forward 7 unknown #
vertex $-1 $414 $537 #
straight-curve $-1 0 -14.409830056250534 -100 1 0 0 I I #
point $-1 10 -14.409830056250534 -100 #
coedge $-1 $530 $298 $301 $421 reversed $406 $-1 #
convexity-sys-attrib $-1 $-1 $-1 $299 #
straight-curve $-1 -10 20.590169943749466 -62.5 0 0 1 I I #
edge $538 $533 -14.409830056250534 $303 20.590169943749466 $418 $539 forward 7 unknown #
point $-1 -10 20.590169943749466 -120 #
point $-1 -10 20.590169943749466 -100 #
convexity-sys-attrib $-1 $-1 $-1 $307 #
straight-curve $-1 10 0 -120 0 -1 0 I I #
loop $-1 $-1 $441 $310 #
plane-surface $-1 -10 0 0 1 0 0 0 0 -1 forward_v I I I I #
coedge $-1 $435 $434 $313 $429 reversed $311 $-1 #
edge $540 $430 -10 $541 10 $428 $542 forward 7 unknown #
vertex $-1 $439 $543 #
straight-curve $-1 10 14.409830056250534 -60 0 0 -1 I I #
coedge $-1 $322 $544 $315 $433 reversed $426 $-1 #
edge $545 $327 37.5 $437 57.5 $432 $546 forward 7 unknown #
coedge $-1 $428 $316 $544 $547 forward $311 $-1 #
coedge $-1 $316 $428 $318 $439 forward $311 $-1 #
convexity-sys-attrib $-1 $-1 $-1 $317 #
vertex $-1 $547 $548 #
straight-curve $-1 0 -20.590169943749466 -120 1 0 0 I I #
edge $549 $430 -14.409830056250534 $320 20.590169943749466 $318 $550 forward 7 unknown #
point $-1 10 -20.590169943749466 -120 #
coedge $-1 $544 $322 $324 $443 reversed $426 $-1 #
straight-curve $-1 -10 -12.795084971874733 -100 0 -1 0 I I #
edge $-1 $541 -60 $325 -40 $441 $551 forward 7 unknown #
point $-1 -10 14.409830056250534 -100 #
point $-1 -10 -20.590169943749466 -100 #
face $-1 $474 $469 $29 $-1 $552 forward single #
loop $-1 $-1 $465 $331 #
cone-surface $-1 0 0 10 0 0 1 15 0 0 1 I I 0 1 15 forward I I I I #
coedge $-1 $553 $554 $464 $555 reversed $332 $-1 #
coedge $-1 $556 $334 $554 $557 reversed $213 $-1 #
coedge $-1 $334 $556 $335 $454 forward $213 $-1 #
edge $-1 $558 -15 $455 5 $334 $559 forward 7 unknown #
coedge $-1 $336 $335 $560 $561 reversed $127 $-1 #
edge $-1 $562 0 $455 10 $451 $563 forward 7 unknown #
vertex $-1 $452 $564 #
straight-curve $-1 10 -5.5901699437494745 20 0 -1 0 I I #
coedge $-1 $560 $476 $338 $458 forward $565 $-1 #
edge $566 $461 -0.84106867056793033 $459 0.84106867056793033 $338 $567 forward 7 unknown #
vertex $-1 $458 $568 #
straight-curve $-1 10 -11.180339887498949 10 0 0 1 I I #
vertex $-1 $477 $569 #
straight-curve $-1 10 11.180339887498949 10 0 0 1 I I #
point $-1 10 -11.180339887498949 20 #
coedge $-1 $351 $343 $449 $555 forward $54 $-1 #
coedge $-1 $570 $571 $343 $466 reversed $447 $-1 #
edge $-1 $470 2.3005239830218631 $572 3.9826613241577231 $465 $573 forward 7 unknown #
coedge $-1 $574 $344 $347 $473 reversed $469 $-1 #
coedge $-1 $344 $574 $570 $575 forward $469 $-1 #
loop $-1 $-1 $344 $446 #
vertex $-1 $466 $576 #
straight-curve $-1 -10 5.5901699437494745 20 0 1 0 I I #
coedge $-1 $347 $346 $577 $578 reversed $348 $-1 #
edge $-1 $579 0 $349 10 $347 $580 forward 7 unknown #
face $-1 $354 $348 $29 $-1 $581 forward single #
point $-1 -10 5 20 #
coedge $-1 $457 $577 $352 $477 forward $565 $-1 #
edge $582 $478 -7.7950849718747328 $461 -1.6147450843757838 $352 $583 forward 7 unknown #
vertex $-1 $477 $584 #
straight-curve $-1 10 5 10 0 0 1 I I #
face $-1 $-1 $565 $29 $-1 $585 reversed single #
plane-surface $-1 10 5 10 -1 0 0 0 0 1 forward_v I I I I #
coedge $-1 $586 $357 $587 $588 reversed $230 $-1 #
coedge $-1 $357 $586 $589 $590 forward $230 $-1 #
coedge $-1 $365 $364 $357 $485 forward $232 $-1 #
edge $591 $592 -40 $593 40 $357 $594 forward 7 unknown #
coedge $-1 $595 $596 $359 $487 forward $387 $-1 #
edge $597 $498 -40 $492 40 $359 $598 forward 7 unknown #
coedge $-1 $589 $360 $365 $501 reversed $490 $-1 #
coedge $-1 $360 $599 $595 $600 reversed $490 $-1 #
loop $-1 $-1 $601 $602 #
attrib_edge_convexity-kcp-attrib $-1 $603 $-1 $361 1 #
vertex $-1 $487 $604 #
straight-curve $-1 -40 -40 0 0 0 -1 I I #
coedge $-1 $605 $362 $596 $606 reversed $496 $-1 #
coedge $-1 $362 $587 $364 $500 reversed $496 $-1 #
loop $-1 $-1 $607 $608 #
attrib_edge_convexity-kcp-attrib $-1 $609 $-1 $363 1 #
vertex $-1 $606 $610 #
straight-curve $-1 -40 40 0 0 0 -1 I I #
edge $611 $368 -40 $592 40 $495 $612 forward 7 unknown #
edge $613 $593 -40 $367 40 $488 $614 forward 7 unknown #
convexity-sys-attrib $-1 $-1 $366 $237 #
point $-1 -40 -40 -20 #
point $-1 -40 40 -20 #
convexity-sys-attrib $-1 $-1 $370 $239 #
point $-1 14.142135623730951 5 -20 #
convexity-sys-attrib $-1 $-1 $377 $247 #
convexity-sys-attrib $-1 $-1 $380 $254 #
coedge $-1 $615 $381 $616 $617 reversed $155 $-1 #
coedge $-1 $618 $619 $381 $511 forward $620 $-1 #
edge $-1 $621 -0.84106867056793033 $518 0.84106867056793033 $510 $622 forward 7 unknown #
coedge $-1 $382 $623 $624 $625 reversed $155 $-1 #
coedge $-1 $626 $627 $382 $514 forward $628 $-1 #
edge $-1 $519 0.84106867056793033 $629 2.3005239830218631 $513 $630 forward 7 unknown #
coedge $-1 $631 $383 $627 $632 forward $517 $-1 #
coedge $-1 $383 $631 $618 $633 reversed $517 $-1 #
loop $-1 $-1 $383 $634 #
vertex $-1 $384 $635 #
vertex $-1 $384 $636 #
straight-curve $-1 10 -11.180339887498949 0 0 0 -1 I I #
model_id-kcp-attrib $-1 $-1 $-1 $386 1 990663936 60 -331612159 10 #
face $637 $638 $639 $9 $-1 $640 forward single #
loop $-1 $-1 $616 $386 #
plane-surface $-1 10 0 10 -1 0 0 0 0 1 forward_v I I I I #
coedge $-1 $641 $642 $623 $643 forward $387 $-1 #
straight-curve $-1 -40 40 0 0 0 -1 I I #
point $-1 -40 -40 -20 #
straight-curve $-1 -40 0 -20 0 1 0 I I #
point $-1 -40 40 -20 #
coedge $-1 $413 $418 $409 $531 reversed $406 $-1 #
edge $-1 $415 40 $533 60 $530 $644 forward 7 unknown #
convexity-sys-attrib $-1 $-1 $-1 $410 #
vertex $-1 $421 $645 #
straight-curve $-1 0 -14.409830056250534 -120 1 0 0 I I #
point $-1 10 -14.409830056250534 -120 #
straight-curve $-1 -10 12.795084971874733 -100 0 -1 0 I I #
point $-1 -10 -14.409830056250534 -100 #
convexity-sys-attrib $-1 $-1 $-1 $421 #
straight-curve $-1 -10 0 -120 0 1 0 I I #
convexity-sys-attrib $-1 $-1 $-1 $429 #
vertex $-1 $429 $646 #
straight-curve $-1 0 14.409830056250534 -120 -1 0 0 I I #
point $-1 10 14.409830056250534 -120 #
coedge $-1 $432 $441 $434 $547 reversed $426 $-1 #
convexity-sys-attrib $-1 $-1 $-1 $433 #
straight-curve $-1 -10 -20.590169943749466 -62.5 0 0 -1 I I #
edge $647 $437 -20.590169943749466 $541 14.409830056250534 $544 $648 forward 7 unknown #
point $-1 -10 -20.590169943749466 -120 #
convexity-sys-attrib $-1 $-1 $-1 $439 #
straight-curve $-1 10 0 -120 0 -1 0 I I #
straight-curve $-1 -10 14.409830056250534 -60 0 0 1 I I #
plane-surface $-1 -10 11.180339887498949 10 1 0 0 0 0 -1 forward_v I I I I #
coedge $-1 $649 $449 $571 $650 reversed $332 $-1 #
coedge $-1 $449 $649 $450 $557 forward $332 $-1 #
edge $-1 $572 -8.680339887498949 $558 -2.5 $449 $651 forward 7 unknown #
coedge $-1 $451 $450 $652 $653 reversed $213 $-1 #
edge $-1 $654 0 $558 10 $554 $655 forward 7 unknown #
vertex $-1 $555 $656 #
straight-curve $-1 5 -5 20 1 0 0 I I #
coedge $-1 $652 $457 $453 $561 forward $565 $-1 #
edge $657 $459 1.6147450843757838 $562 7.7950849718747328 $453 $658 forward 7 unknown #
vertex $-1 $561 $659 #
straight-curve $-1 10 -5 10 0 0 1 I I #
point $-1 10 -5 20 #
loop $-1 $-1 $476 $480 #
convexity-sys-attrib $-1 $-1 $-1 $458 #
ellipse-curve $-1 0 0 10 0 0 -1 15 0 0 1 I I #
point $-1 10 -11.180339887498949 10 #
point $-1 10 11.180339887498949 10 #
coedge $-1 $660 $465 $468 $575 reversed $447 $-1 #
coedge $-1 $465 $660 $553 $650 forward $447 $-1 #
vertex $-1 $466 $661 #
ellipse-curve $-1 0 0 20 0 0 1 15 0 0 1 I I #
coedge $-1 $468 $467 $662 $663 reversed $469 $-1 #
edge $-1 $664 0 $470 10 $468 $665 forward 7 unknown #
point $-1 -10 11.180339887498949 20 #
coedge $-1 $476 $662 $472 $578 forward $565 $-1 #
edge $666 $579 -10 $478 10 $472 $667 forward 7 unknown #
vertex $-1 $663 $668 #
straight-curve $-1 -10 5 10 0 0 1 I I #
plane-surface $-1 -10 5 10 0 1 0 0 0 1 forward_v I I I I #
convexity-sys-attrib $-1 $-1 $-1 $477 #
straight-curve $-1 10 12.795084971874733 10 0 1 0 I I #
point $-1 10 5 10 #
plane-surface $-1 1.7763568394002505e-015 -4.8982667410602508e-018 10.000000000000004 0 0 1 1 0 0 forward_v I I I I #
coedge $-1 $483 $482 $669 $670 reversed $230 $-1 #
coedge $-1 $495 $671 $482 $588 forward $496 $-1 #
edge $-1 $672 -20 $592 20 $482 $673 forward 7 unknown #
coedge $-1 $674 $488 $483 $590 reversed $490 $-1 #
edge $675 $676 -20 $593 20 $483 $677 forward 7 unknown #
attrib_edge_convexity-kcp-attrib $-1 $678 $-1 $485 1 #
vertex $-1 $485 $679 #
vertex $-1 $590 $680 #
straight-curve $-1 40 0 -20 0 -1 0 I I #
coedge $-1 $642 $486 $489 $600 forward $387 $-1 #
coedge $-1 $486 $641 $494 $606 forward $387 $-1 #
attrib_edge_convexity-kcp-attrib $-1 $681 $-1 $487 1 #
straight-curve $-1 -40 0 20 0 -1 0 I I #
coedge $-1 $489 $682 $683 $684 forward $490 $-1 #
edge $685 $492 -40 $686 -10 $489 $687 forward 7 unknown #
coedge $-1 $682 $674 $631 $688 forward $490 $-1 #
face $689 $690 $490 $9 $-1 $691 reversed single #
convexity-sys-attrib $-1 $-1 $491 $361 #
point $-1 -40 -40 20 #
coedge $-1 $692 $494 $693 $694 forward $496 $-1 #
edge $-1 $695 10 $498 40 $494 $696 forward 7 unknown #
coedge $-1 $671 $692 $697 $698 forward $496 $-1 #
face $699 $-1 $496 $9 $-1 $700 reversed single #
convexity-sys-attrib $-1 $-1 $497 $363 #
point $-1 -40 40 20 #
attrib_edge_convexity-kcp-attrib $-1 $701 $-1 $500 1 #
straight-curve $-1 0 40 -20 1 0 0 I I #
attrib_edge_convexity-kcp-attrib $-1 $702 $-1 $501 1 #
straight-curve $-1 0 -40 -20 -1 0 0 I I #
coedge $-1 $703 $509 $704 $705 reversed $155 $-1 #
coedge $-1 $706 $707 $509 $617 forward $523 $-1 #
edge $-1 $708 0 $621 20 $616 $709 forward 7 unknown #
coedge $-1 $710 $510 $516 $633 forward $620 $-1 #
coedge $-1 $510 $711 $706 $712 forward $620 $-1 #
loop $-1 $-1 $510 $690 #
vertex $-1 $712 $713 #
ellipse-curve $-1 0 0 20 0 0 -1 15 0 0 1 I I #
coedge $-1 $512 $703 $525 $643 reversed $155 $-1 #
coedge $-1 $714 $715 $512 $625 forward $716 $-1 #
edge $-1 $629 0 $717 20 $624 $718 forward 7 unknown #
coedge $-1 $719 $513 $715 $720 reversed $628 $-1 #
coedge $-1 $513 $719 $515 $632 reversed $628 $-1 #
loop $-1 $-1 $513 $721 #
vertex $-1 $720 $722 #
ellipse-curve $-1 0 0 0 0 0 -1 15 0 0 1 I I #
coedge $-1 $516 $515 $601 $688 reversed $517 $-1 #
edge $-1 $519 11.180339887498949 $723 40 $515 $724 forward 7 unknown #
edge $-1 $518 11.180339887498949 $725 40 $618 $726 forward 7 unknown #
face $727 $602 $517 $9 $-1 $524 forward single #
point $-1 10 -11.180339887498949 20 #
point $-1 10 -11.180339887498949 0 #
model_id-kcp-attrib $-1 $-1 $-1 $522 1 990663936 60 -331612159 11 #
face $728 $729 $716 $9 $-1 $640 forward single #
loop $-1 $-1 $730 $522 #
plane-surface $-1 -10 0 10 1 0 0 0 0 -1 forward_v I I I I #
coedge $-1 $596 $525 $731 $732 forward $387 $-1 #
coedge $-1 $525 $595 $714 $733 forward $387 $-1 #
edge $-1 $717 2.3005239830218631 $734 3.9826613241577231 $525 $735 forward 7 unknown #
straight-curve $-1 -10 -14.409830056250534 -60 0 0 -1 I I #
point $-1 -10 -14.409830056250534 -120 #
point $-1 -10 14.409830056250534 -120 #
convexity-sys-attrib $-1 $-1 $-1 $547 #
straight-curve $-1 -10 0 -120 0 1 0 I I #
coedge $-1 $554 $553 $736 $737 reversed $332 $-1 #
edge $-1 $738 0 $572 10 $571 $739 forward 7 unknown #
straight-curve $-1 -10 -2.5 20 0 1 0 I I #
coedge $-1 $736 $560 $556 $653 forward $565 $-1 #
edge $740 $562 -10 $654 10 $556 $741 forward 7 unknown #
vertex $-1 $653 $742 #
straight-curve $-1 -10 -5 10 0 0 1 I I #
point $-1 -10 -5 20 #
convexity-sys-attrib $-1 $-1 $-1 $561 #
straight-curve $-1 10 -12.795084971874733 10 0 1 0 I I #
point $-1 10 -5 10 #
coedge $-1 $571 $570 $743 $744 reversed $447 $-1 #
point $-1 -10 -11.180339887498949 20 #
coedge $-1 $577 $743 $574 $663 forward $565 $-1 #
edge $745 $664 1.6147450843757838 $579 7.7950849718747328 $574 $746 forward 7 unknown #
vertex $-1 $744 $747 #
straight-curve $-1 -10 11.180339887498949 10 0 0 1 I I #
convexity-sys-attrib $-1 $-1 $-1 $578 #
straight-curve $-1 0 5 10 1 0 0 I I #
point $-1 -10 5 10 #
coedge $-1 $711 $710 $586 $670 forward $620 $-1 #
edge $-1 $676 -40 $672 40 $586 $748 forward 7 unknown #
coedge $-1 $587 $607 $711 $749 reversed $496 $-1 #
vertex $-1 $670 $750 #
straight-curve $-1 40 40 0 0 0 -1 I I #
coedge $-1 $601 $589 $710 $751 reversed $490 $-1 #
attrib_edge_convexity-kcp-attrib $-1 $752 $-1 $590 1 #
vertex $-1 $670 $753 #
straight-curve $-1 40 -40 0 0 0 -1 I I #
convexity-sys-attrib $-1 $-1 $591 $485 #
point $-1 40 40 -20 #
point $-1 40 -40 -20 #
convexity-sys-attrib $-1 $-1 $597 $487 #
coedge $-1 $599 $601 $719 $754 forward $490 $-1 #
coedge $-1 $715 $714 $599 $684 reversed $716 $-1 #
edge $755 $756 -5 $686 15 $599 $757 forward 7 unknown #
attrib_edge_convexity-kcp-attrib $-1 $758 $-1 $600 1 #
vertex $-1 $600 $759 #
straight-curve $-1 0 -40 20 1 0 0 I I #
edge $760 $725 -15 $723 5 $601 $761 forward 7 unknown #
model_id-kcp-attrib $-1 $-1 $-1 $602 1 990663936 60 -331612159 16 #
face $762 $608 $620 $9 $-1 $388 forward single #
plane-surface $-1 0 -40 0 0 1 0 0 0 1 forward_v I I I I #
coedge $-1 $607 $605 $763 $764 forward $496 $-1 #
coedge $-1 $731 $765 $605 $694 reversed $639 $-1 #
edge $-1 $695 -15 $766 5 $605 $767 forward 7 unknown #
vertex $-1 $694 $768 #
straight-curve $-1 0 40 20 -1 0 0 I I #
coedge $-1 $707 $706 $607 $698 reversed $523 $-1 #
edge $-1 $769 -5 $770 15 $607 $771 forward 7 unknown #
model_id-kcp-attrib $-1 $-1 $-1 $608 1 990663936 60 -331612159 18 #
plane-surface $-1 0 40 0 0 -1 0 0 0 -1 forward_v I I I I #
convexity-sys-attrib $-1 $-1 $611 $500 #
convexity-sys-attrib $-1 $-1 $613 $501 #
coedge $-1 $623 $615 $730 $772 reversed $155 $-1 #
coedge $-1 $773 $774 $615 $705 forward $775 $-1 #
edge $-1 $776 -2.3005239830218631 $708 -0.84106867056793033 $704 $630 forward 7 unknown #
coedge $-1 $697 $616 $619 $712 reversed $523 $-1 #
coedge $-1 $616 $697 $773 $777 forward $523 $-1 #
vertex $-1 $777 $778 #
straight-curve $-1 10 11.180339887498949 0 0 0 1 I I #
coedge $-1 $669 $618 $674 $751 forward $620 $-1 #
coedge $-1 $619 $669 $671 $749 forward $620 $-1 #
edge $-1 $770 -40 $621 -11.180339887498949 $619 $726 forward 7 unknown #
point $-1 10 11.180339887498949 20 #
coedge $-1 $683 $624 $642 $733 reversed $716 $-1 #
coedge $-1 $624 $683 $626 $720 forward $716 $-1 #
loop $-1 $-1 $624 $638 #
vertex $-1 $733 $779 #
straight-curve $-1 -10 -11.180339887498949 0 0 0 1 I I #
coedge $-1 $627 $626 $682 $754 reversed $628 $-1 #
edge $-1 $756 -40 $629 -11.180339887498949 $715 $780 forward 7 unknown #
face $781 $634 $628 $9 $-1 $782 forward single #
point $-1 -10 -11.180339887498949 0 #
vertex $-1 $754 $783 #
straight-curve $-1 10 0 0 0 -1 0 I I #
vertex $-1 $633 $784 #
straight-curve $-1 10 0 20 0 -1 0 I I #
model_id-kcp-attrib $-1 $-1 $-1 $634 1 990663936 60 -331612159 15 #
model_id-kcp-attrib $-1 $-1 $-1 $638 1 990663936 60 -331612159 12 #
face $785 $721 $775 $9 $-1 $782 forward single #
coedge $-1 $765 $731 $703 $772 forward $639 $-1 #
coedge $-1 $730 $693 $641 $732 reversed $639 $-1 #
edge $-1 $734 11.180339887498949 $695 40 $641 $786 forward 7 unknown #
edge $-1 $686 -40 $717 -11.180339887498949 $642 $786 forward 7 unknown #
vertex $-1 $772 $787 #
ellipse-curve $-1 0 0 20 0 0 -1 15 0 0 1 I I #
coedge $-1 $743 $652 $649 $737 forward $565 $-1 #
edge $788 $654 -7.7950849718747328 $738 -1.6147450843757838 $649 $789 forward 7 unknown #
vertex $-1 $737 $790 #
straight-curve $-1 -10 -11.180339887498949 10 0 0 1 I I #
convexity-sys-attrib $-1 $-1 $-1 $653 #
straight-curve $-1 0 -5 10 -1 0 0 I I #
point $-1 -10 -5 10 #
coedge $-1 $662 $736 $660 $744 forward $565 $-1 #
edge $791 $738 2.3005239830218631 $664 3.9826613241577231 $660 $792 forward 7 unknown #
convexity-sys-attrib $-1 $-1 $-1 $663 #
straight-curve $-1 -10 12.795084971874733 10 0 -1 0 I I #
point $-1 -10 11.180339887498949 10 #
straight-curve $-1 40 0 20 0 1 0 I I #
edge $-1 $672 -40 $770 -10 $671 $696 forward 7 unknown #
point $-1 40 40 20 #
edge $793 $725 10 $676 40 $674 $687 forward 7 unknown #
convexity-sys-attrib $-1 $-1 $675 $590 #
point $-1 40 -40 20 #
edge $794 $723 -10 $756 10 $682 $795 forward 7 unknown #
attrib_edge_convexity-kcp-attrib $-1 $796 $-1 $684 1 #
vertex $-1 $754 $797 #
straight-curve $-1 -10 -40 5 0 0 1 I I #
convexity-sys-attrib $-1 $-1 $685 $600 #
point $-1 -10 -40 20 #
attrib_edge_convexity-kcp-attrib $-1 $798 $-1 $688 1 #
straight-curve $-1 10 -40 5 0 0 -1 I I #
model_id-kcp-attrib $-1 $-1 $-1 $690 1 990663936 60 -331612159 17 #
coedge $-1 $774 $773 $692 $764 reversed $775 $-1 #
edge $-1 $766 -10 $769 10 $692 $799 forward 7 unknown #
coedge $-1 $693 $730 $774 $800 forward $639 $-1 #
vertex $-1 $764 $801 #
straight-curve $-1 -10 40 5 0 0 -1 I I #
point $-1 -10 40 20 #
vertex $-1 $764 $802 #
vertex $-1 $749 $803 #
straight-curve $-1 10 40 5 0 0 1 I I #
edge $-1 $734 -20 $776 0 $730 $804 forward 7 unknown #
coedge $-1 $763 $704 $707 $777 reversed $775 $-1 #
coedge $-1 $704 $763 $765 $800 reversed $775 $-1 #
loop $-1 $-1 $704 $729 #
vertex $-1 $705 $805 #
edge $-1 $769 -40 $708 -11.180339887498949 $707 $724 forward 7 unknown #
point $-1 10 11.180339887498949 0 #
point $-1 -10 -11.180339887498949 20 #
straight-curve $-1 -10 0 0 0 1 0 I I #
model_id-kcp-attrib $-1 $-1 $-1 $721 1 990663936 60 -331612159 14 #
plane-surface $-1 0 0 0 0 0 1 1 0 0 forward_v I I I I #
point $-1 10 -40 0 #
point $-1 10 -40 20 #
model_id-kcp-attrib $-1 $-1 $-1 $729 1 990663936 60 -331612159 13 #
straight-curve $-1 -10 0 20 0 1 0 I I #
point $-1 -10 11.180339887498949 20 #
convexity-sys-attrib $-1 $-1 $-1 $737 #
straight-curve $-1 -10 -12.795084971874733 10 0 -1 0 I I #
point $-1 -10 -11.180339887498949 10 #
convexity-sys-attrib $-1 $-1 $-1 $744 #
ellipse-curve $-1 0 0 10 0 0 -1 15 0 0 1 I I #
attrib_edge_convexity-kcp-attrib $-1 $806 $-1 $751 1 #
attrib_edge_convexity-kcp-attrib $-1 $807 $-1 $754 1 #
straight-curve $-1 0 -40 0 -1 0 0 I I #
convexity-sys-attrib $-1 $-1 $755 $684 #
point $-1 -10 -40 0 #
convexity-sys-attrib $-1 $-1 $760 $688 #
straight-curve $-1 0 40 0 1 0 0 I I #
edge $-1 $776 11.180339887498949 $766 40 $765 $780 forward 7 unknown #
point $-1 -10 40 0 #
point $-1 10 40 0 #
point $-1 10 40 20 #
straight-curve $-1 -10 11.180339887498949 0 0 0 -1 I I #
point $-1 -10 11.180339887498949 0 #
convexity-sys-attrib $-1 $-1 $793 $751 #
convexity-sys-attrib $-1 $-1 $794 $754 #
End-of-ACIS-data 