700 0 2 0           
24 FBMach with ACIS - 7.0.3 13 ACIS 7.0.3 NT 24 Tue May 14 09:56:54 2002 
1 9.9999999999999995e-007 1e-010 
body $2 -1 $-1 $3 $-1 $4 #
bdycol-kcp $-1 -1 1 4 $5 $6 $7 $8 #
model_id-kcp-attrib $-1 -1 $-1 $-1 $0 1 1021384613 1021384613 -2067791871 1 #
lump $-1 -1 $-1 $-1 $9 $0 #
transform $-1 -1 1 0 0 0 1 0 0 0 1 0 0 0 1 rotate no_reflect no_shear #
body $10 -1 $-1 $11 $-1 $12 #
body $13 -1 $-1 $14 $-1 $15 #
body $16 -1 $-1 $17 $-1 $18 #
body $19 -1 $-1 $20 $-1 $21 #
shell $-1 -1 $-1 $-1 $-1 $22 $-1 $3 #
rgb_color-st-attrib $-1 -1 $23 $-1 $5 1 0 0 #
lump $-1 -1 $-1 $-1 $24 $5 #
transform $-1 -1 1 0 0 0 1 0 0 0 1 0 -25.590169943749466 120 1 no_rotate no_reflect no_shear #
rgb_color-st-attrib $-1 -1 $25 $-1 $6 1 0 0 #
lump $-1 -1 $-1 $-1 $26 $6 #
transform $-1 -1 1 0 0 0 1 0 0 0 1 0 25.590169943749466 120 1 no_rotate no_reflect no_shear #
model_id-kcp-attrib $-1 -1 $-1 $-1 $7 1 1021384613 1021384613 -2067791870 1 #
lump $-1 -1 $-1 $-1 $27 $7 #
transform $-1 -1 1 0 0 0 1 0 0 0 1 0 0 0 1 no_rotate no_reflect no_shear #
rgb_color-st-attrib $-1 -1 $28 $-1 $8 0.59999999999999998 0.90000000000000002 1 #
lump $-1 -1 $-1 $-1 $29 $8 #
transform $-1 -1 1 0 0 0 1 0 0 0 1 0 0 130 1 no_rotate no_reflect no_shear #
face $30 -1 $-1 $31 $32 $9 $-1 $33 forward single #
model_id-kcp-attrib $-1 -1 $-1 $10 $5 1 1021384613 1021384613 -2078408701 1 #
shell $-1 -1 $-1 $-1 $-1 $34 $-1 $11 #
model_id-kcp-attrib $-1 -1 $-1 $13 $6 1 1021384613 1021384613 -2067857404 1 #
shell $-1 -1 $-1 $-1 $-1 $35 $-1 $14 #
shell $-1 -1 $-1 $-1 $-1 $36 $-1 $17 #
model_id-kcp-attrib $-1 -1 $-1 $19 $8 1 1021384613 1021384614 -2071265275 1 #
shell $-1 -1 $-1 $-1 $-1 $37 $-1 $20 #
model_id-kcp-attrib $-1 -1 $-1 $-1 $22 1 1021384613 1021384613 -2067791871 2 #
face $38 -1 $-1 $39 $40 $9 $-1 $41 reversed single #
loop $-1 -1 $-1 $-1 $42 $22 #
plane-surface $-1 -1 $-1 0 0 10 0 0 1 1 0 0 forward_v I I I I #
face $-1 -1 $-1 $43 $44 $24 $-1 $45 forward single #
face $-1 -1 $-1 $46 $47 $26 $-1 $48 forward single #
face $49 -1 $-1 $50 $51 $27 $-1 $52 forward single #
face $-1 -1 $-1 $53 $54 $29 $-1 $55 forward single #
model_id-kcp-attrib $-1 -1 $-1 $-1 $31 1 1021384613 1021384613 -2067791871 3 #
face $56 -1 $-1 $57 $58 $9 $-1 $59 reversed single #
loop $-1 -1 $-1 $-1 $60 $31 #
plane-surface $-1 -1 $-1 0 -5 -5 0 1 0 0 0 1 forward_v I I I I #
coedge $-1 -1 $-1 $61 $62 $63 $64 reversed $32 $-1 #
face $-1 -1 $-1 $65 $66 $24 $-1 $67 forward single #
loop $-1 -1 $-1 $-1 $68 $34 #
plane-surface $-1 -1 $-1 0 20.590169943749466 -125 0 1 0 0 0 1 forward_v I I I I #
face $-1 -1 $-1 $69 $70 $26 $-1 $71 forward single #
loop $-1 -1 $-1 $-1 $72 $35 #
plane-surface $-1 -1 $-1 0 -25.590169943749466 -100 0 0 1 1 0 0 forward_v I I I I #
model_id-kcp-attrib $-1 -1 $-1 $-1 $36 1 1021384613 1021384613 -2067791870 5 #
face $73 -1 $-1 $74 $75 $27 $-1 $76 reversed single #
loop $-1 -1 $-1 $-1 $77 $36 #
plane-surface $-1 -1 $-1 0 0 20 0 0 1 1 0 0 forward_v I I I I #
face $-1 -1 $-1 $78 $79 $29 $-1 $55 forward single #
loop $-1 -1 $-1 $-1 $80 $37 #
cone-surface $-1 -1 $-1 0 0 -130 0 0 1 15 0 0 1 I I 0 1 15 forward I I I I #
model_id-kcp-attrib $-1 -1 $-1 $-1 $39 1 1021384613 1021384613 -2067791871 4 #
face $81 -1 $-1 $82 $83 $9 $-1 $84 reversed single #
loop $-1 -1 $-1 $-1 $85 $39 #
plane-surface $-1 -1 $-1 0 5 -5 0 -1 0 0 0 -1 forward_v I I I I #
coedge $-1 -1 $-1 $86 $87 $88 $89 reversed $40 $-1 #
coedge $-1 -1 $-1 $90 $42 $87 $91 forward $32 $-1 #
coedge $-1 -1 $-1 $42 $90 $92 $93 forward $32 $-1 #
coedge $-1 -1 $-1 $94 $88 $42 $64 forward $95 $-1 #
edge $96 -1 $-1 $97 2.8017557441356713 $98 3.4814295630439149 $63 $99 forward @7 unknown #
face $-1 -1 $-1 $100 $101 $24 $-1 $102 reversed single #
loop $-1 -1 $-1 $-1 $103 $43 #
plane-surface $-1 -1 $-1 0 25.590169943749466 -100 0 0 1 1 0 0 forward_v I I I I #
coedge $-1 -1 $-1 $104 $105 $106 $107 forward $44 $-1 #
face $-1 -1 $-1 $108 $109 $26 $-1 $110 reversed single #
loop $-1 -1 $-1 $-1 $111 $46 #
plane-surface $-1 -1 $-1 0 -20.590169943749466 -125 0 -1 0 0 0 -1 forward_v I I I I #
coedge $-1 -1 $-1 $112 $113 $114 $115 forward $47 $-1 #
model_id-kcp-attrib $-1 -1 $-1 $-1 $50 1 1021384613 1021384613 -2067791870 3 #
face $116 -1 $-1 $117 $118 $27 $-1 $119 reversed single #
loop $-1 -1 $-1 $-1 $120 $50 #
plane-surface $-1 -1 $-1 0 0 -20 0 0 1 1 0 0 forward_v I I I I #
coedge $-1 -1 $-1 $121 $122 $123 $124 forward $51 $-1 #
face $-1 -1 $-1 $125 $126 $29 $-1 $127 forward single #
loop $-1 -1 $-1 $-1 $128 $53 #
coedge $-1 -1 $-1 $129 $130 $131 $132 forward $54 $-1 #
model_id-kcp-attrib $-1 -1 $-1 $-1 $57 1 1021384613 1021384613 -2067791871 5 #
face $133 -1 $-1 $134 $135 $9 $-1 $136 reversed single #
loop $-1 -1 $-1 $-1 $137 $57 #
plane-surface $-1 -1 $-1 -40 0 0 1 0 0 0 0 -1 forward_v I I I I #
coedge $-1 -1 $-1 $92 $138 $94 $139 reversed $58 $-1 #
coedge $-1 -1 $-1 $140 $60 $141 $142 reversed $40 $-1 #
coedge $-1 -1 $-1 $60 $140 $61 $91 reversed $40 $-1 #
coedge $-1 -1 $-1 $63 $143 $60 $89 forward $95 $-1 #
edge $-1 -1 $-1 $144 -20 $97 10 $88 $145 forward @7 unknown #
coedge $-1 -1 $-1 $62 $61 $146 $147 reversed $32 $-1 #
edge $148 -1 $-1 $97 -14.142135623730951 $149 14.142135623730951 $87 $150 forward @7 unknown #
coedge $-1 -1 $-1 $151 $85 $62 $93 reversed $58 $-1 #
edge $152 -1 $-1 $153 -14.142135623730951 $98 14.142135623730951 $92 $154 forward @7 unknown #
coedge $-1 -1 $-1 $155 $63 $85 $139 forward $95 $-1 #
loop $-1 -1 $-1 $156 $94 $157 #
attrib_edge_convexity-kcp-attrib $-1 -1 $158 $-1 $64 2 #
vertex $-1 -1 $-1 $64 $159 #
vertex $-1 -1 $-1 $64 $160 #
ellipse-curve $-1 -1 $-1 0 0 10 0 0 -1 15 0 0 1 I I #
face $-1 -1 $-1 $161 $162 $24 $-1 $163 reversed single #
loop $-1 -1 $-1 $-1 $164 $65 #
plane-surface $-1 -1 $-1 0 -14.409830056250534 -120 0 1 0 0 0 1 forward_v I I I I #
coedge $-1 -1 $-1 $165 $166 $167 $168 forward $66 $-1 #
coedge $-1 -1 $-1 $169 $68 $170 $171 forward $44 $-1 #
coedge $-1 -1 $-1 $68 $169 $165 $172 forward $44 $-1 #
coedge $-1 -1 $-1 $167 $173 $68 $107 reversed $162 $-1 #
edge $174 -1 $-1 $175 37.5 $176 57.5 $106 $177 forward @7 unknown #
face $-1 -1 $-1 $178 $179 $26 $-1 $180 reversed single #
loop $-1 -1 $-1 $-1 $181 $69 #
plane-surface $-1 -1 $-1 0 14.409830056250534 -120 0 -1 0 0 0 -1 forward_v I I I I #
coedge $-1 -1 $-1 $182 $183 $184 $185 forward $70 $-1 #
coedge $-1 -1 $-1 $186 $72 $187 $188 forward $47 $-1 #
coedge $-1 -1 $-1 $72 $186 $182 $189 reversed $47 $-1 #
coedge $-1 -1 $-1 $184 $190 $72 $115 reversed $179 $-1 #
edge $-1 -1 $-1 $191 -7.7950849718747328 $192 27.204915028125267 $114 $193 forward @7 unknown #
model_id-kcp-attrib $-1 -1 $-1 $-1 $74 1 1021384613 1021384613 -2067791870 6 #
face $194 -1 $-1 $195 $196 $27 $-1 $197 reversed single #
loop $-1 -1 $-1 $-1 $198 $74 #
plane-surface $-1 -1 $-1 0 -40 0 0 1 0 0 0 1 forward_v I I I I #
coedge $-1 -1 $-1 $199 $200 $201 $202 forward $75 $-1 #
coedge $-1 -1 $-1 $203 $77 $204 $205 forward $51 $-1 #
coedge $-1 -1 $-1 $77 $203 $206 $207 forward $51 $-1 #
coedge $-1 -1 $-1 $208 $209 $77 $124 reversed $210 $-1 #
edge $-1 -1 $-1 $211 -40 $212 40 $123 $213 forward @7 unknown #
face $-1 -1 $-1 $214 $215 $29 $-1 $216 reversed single #
loop $-1 -1 $-1 $-1 $217 $78 #
plane-surface $-1 -1 $-1 0 0 -110 0 0 1 1 0 0 forward_v I I I I #
coedge $-1 -1 $-1 $218 $219 $220 $221 forward $79 $-1 #
coedge $-1 -1 $-1 $222 $80 $223 $224 forward $54 $-1 #
coedge $-1 -1 $-1 $80 $222 $225 $226 reversed $54 $-1 #
coedge $-1 -1 $-1 $227 $228 $80 $132 reversed $229 $-1 #
edge $-1 -1 $-1 $230 -20 $231 -10 $131 $232 forward @7 unknown #
model_id-kcp-attrib $-1 -1 $-1 $-1 $82 1 1021384613 1021384613 -2067791871 6 #
face $233 -1 $-1 $157 $234 $9 $-1 $235 reversed single #
loop $-1 -1 $-1 $236 $237 $82 #
plane-surface $-1 -1 $-1 0 0 -20 0 0 1 1 0 0 forward_v I I I I #
coedge $-1 -1 $-1 $238 $239 $240 $241 reversed $83 $-1 #
coedge $-1 -1 $-1 $85 $151 $242 $243 reversed $58 $-1 #
edge $-1 -1 $-1 $98 -10 $244 20 $94 $245 forward @7 unknown #
coedge $-1 -1 $-1 $87 $86 $246 $247 reversed $40 $-1 #
coedge $-1 -1 $-1 $237 $237 $86 $142 forward $135 $-1 #
edge $248 -1 $-1 $249 -14.142135623730951 $144 14.142135623730951 $86 $250 forward @7 unknown #
coedge $-1 -1 $-1 $88 $246 $237 $251 reversed $95 $-1 #
vertex $-1 -1 $-1 $251 $252 #
straight-curve $-1 -1 $-1 -14.142135623730951 -5 0 0 0 1 I I #
coedge $-1 -1 $-1 $246 $253 $90 $147 forward $95 $-1 #
edge $254 -1 $-1 $153 -0.33983690945412193 $149 0.33983690945412193 $146 $99 forward @7 unknown #
attrib_edge_convexity-kcp-attrib $-1 -1 $255 $-1 $91 1 #
vertex $-1 -1 $-1 $147 $256 #
straight-curve $-1 -1 $-1 0 -5 10 1 0 0 I I #
coedge $-1 -1 $-1 $138 $92 $253 $257 reversed $58 $-1 #
attrib_edge_convexity-kcp-attrib $-1 -1 $258 $-1 $93 1 #
vertex $-1 -1 $-1 $147 $259 #
straight-curve $-1 -1 $-1 0 5 10 -1 0 0 I I #
coedge $-1 -1 $-1 $253 $94 $260 $261 reversed $95 $-1 #
loop $-1 -1 $-1 $-1 $262 $157 #
face $263 -1 $-1 $264 $95 $9 $-1 $265 reversed single #
convexity-sys-attrib $-1 -1 $-1 $96 $64 #
point $-1 -1 $-1 -14.142135623730951 -5 10 #
point $-1 -1 $-1 -14.142135623730951 5 10 #
face $-1 -1 $-1 $266 $267 $24 $-1 $268 reversed single #
loop $-1 -1 $-1 $-1 $167 $100 #
plane-surface $-1 -1 $-1 10 0 0 -1 0 0 0 0 1 forward_v I I I I #
coedge $-1 -1 $-1 $269 $270 $271 $272 forward $101 $-1 #
coedge $-1 -1 $-1 $273 $103 $105 $172 reversed $66 $-1 #
coedge $-1 -1 $-1 $103 $273 $269 $274 forward $66 $-1 #
coedge $-1 -1 $-1 $271 $106 $103 $168 reversed $162 $-1 #
edge $-1 -1 $-1 $275 -27.204915028125267 $175 7.7950849718747328 $167 $276 forward @7 unknown #
coedge $-1 -1 $-1 $105 $104 $277 $278 forward $44 $-1 #
coedge $-1 -1 $-1 $279 $280 $104 $171 reversed $267 $-1 #
edge $281 -1 $-1 $176 -10 $282 10 $170 $283 forward @7 unknown #
edge $-1 -1 $-1 $284 -2.9289321881345245 $175 17.071067811865476 $165 $285 forward @7 unknown #
coedge $-1 -1 $-1 $106 $271 $279 $286 reversed $162 $-1 #
convexity-sys-attrib $-1 -1 $-1 $-1 $107 #
vertex $-1 -1 $-1 $107 $287 #
vertex $-1 -1 $-1 $286 $288 #
straight-curve $-1 -1 $-1 10 20.590169943749466 -62.5 0 0 -1 I I #
face $-1 -1 $-1 $289 $290 $26 $-1 $291 reversed single #
loop $-1 -1 $-1 $-1 $190 $108 #
plane-surface $-1 -1 $-1 10 0 0 -1 0 0 0 0 1 forward_v I I I I #
coedge $-1 -1 $-1 $292 $187 $190 $293 forward $109 $-1 #
coedge $-1 -1 $-1 $294 $111 $113 $189 forward $70 $-1 #
coedge $-1 -1 $-1 $111 $294 $295 $296 forward $70 $-1 #
coedge $-1 -1 $-1 $297 $114 $111 $185 reversed $179 $-1 #
edge $298 -1 $-1 $299 -57.5 $191 -37.5 $184 $300 forward @7 unknown #
coedge $-1 -1 $-1 $113 $112 $301 $302 forward $47 $-1 #
coedge $-1 -1 $-1 $181 $303 $112 $188 reversed $109 $-1 #
edge $-1 -1 $-1 $192 -10 $304 10 $187 $305 forward @7 unknown #
edge $-1 -1 $-1 $191 -2.9289321881345245 $306 17.071067811865476 $113 $307 forward @7 unknown #
coedge $-1 -1 $-1 $114 $297 $181 $293 reversed $179 $-1 #
vertex $-1 -1 $-1 $115 $308 #
vertex $-1 -1 $-1 $115 $309 #
straight-curve $-1 -1 $-1 10 -12.795084971874733 -100 0 1 0 I I #
model_id-kcp-attrib $-1 -1 $-1 $-1 $117 1 1021384613 1021384613 -2067791870 2 #
face $310 -1 $-1 $311 $312 $27 $-1 $313 reversed single #
loop $-1 -1 $-1 $-1 $314 $117 #
plane-surface $-1 -1 $-1 -40 0 0 1 0 0 0 0 -1 forward_v I I I I #
coedge $-1 -1 $-1 $315 $206 $316 $317 forward $118 $-1 #
coedge $-1 -1 $-1 $318 $120 $315 $319 forward $75 $-1 #
coedge $-1 -1 $-1 $120 $318 $320 $321 forward $75 $-1 #
coedge $-1 -1 $-1 $209 $208 $120 $202 reversed $210 $-1 #
edge $-1 -1 $-1 $322 -40 $323 40 $201 $324 forward @7 unknown #
coedge $-1 -1 $-1 $122 $121 $325 $326 forward $51 $-1 #
coedge $-1 -1 $-1 $327 $328 $121 $205 reversed $312 $-1 #
edge $-1 -1 $-1 $212 -40 $329 40 $204 $330 forward @7 unknown #
coedge $-1 -1 $-1 $198 $331 $122 $207 reversed $118 $-1 #
edge $-1 -1 $-1 $332 -40 $211 40 $206 $333 forward @7 unknown #
coedge $-1 -1 $-1 $201 $123 $331 $334 forward $210 $-1 #
coedge $-1 -1 $-1 $123 $201 $327 $335 reversed $210 $-1 #
loop $-1 -1 $-1 $-1 $208 $311 #
vertex $-1 -1 $-1 $124 $336 #
vertex $-1 -1 $-1 $124 $337 #
straight-curve $-1 -1 $-1 40 0 20 0 1 0 I I #
face $-1 -1 $-1 $338 $229 $29 $-1 $339 reversed single #
loop $-1 -1 $-1 $-1 $340 $125 #
plane-surface $-1 -1 $-1 0 5 0 0 -1 0 0 0 -1 forward_v I I I I #
coedge $-1 -1 $-1 $225 $341 $227 $342 forward $126 $-1 #
coedge $-1 -1 $-1 $343 $128 $341 $344 reversed $79 $-1 #
coedge $-1 -1 $-1 $128 $343 $345 $346 forward $79 $-1 #
coedge $-1 -1 $-1 $228 $227 $128 $221 reversed $229 $-1 #
edge $-1 -1 $-1 $347 10 $348 20 $220 $349 forward @7 unknown #
coedge $-1 -1 $-1 $130 $129 $350 $351 forward $54 $-1 #
coedge $-1 -1 $-1 $352 $353 $129 $224 reversed $354 $-1 #
edge $355 -1 $-1 $231 -0.33983690945412193 $356 0.33983690945412193 $223 $357 forward @7 unknown #
coedge $-1 -1 $-1 $358 $217 $130 $226 forward $126 $-1 #
edge $-1 -1 $-1 $230 -0.33983690945412193 $359 0.33983690945412193 $225 $360 forward @7 unknown #
coedge $-1 -1 $-1 $220 $131 $217 $342 reversed $229 $-1 #
coedge $-1 -1 $-1 $131 $220 $352 $361 reversed $229 $-1 #
loop $-1 -1 $-1 $-1 $227 $214 #
vertex $-1 -1 $-1 $132 $362 #
vertex $-1 -1 $-1 $361 $363 #
straight-curve $-1 -1 $-1 14.142135623730951 -5 -130 0 0 -1 I I #
model_id-kcp-attrib $-1 -1 $-1 $-1 $134 1 1021384613 1021384613 -2067791871 7 #
loop $-1 -1 $-1 $-1 $364 $134 #
plane-surface $-1 -1 $-1 40 0 0 -1 0 0 0 0 1 forward_v I I I I #
loop $-1 -1 $-1 $365 $240 $82 #
coedge $-1 -1 $-1 $141 $141 $143 $251 forward $135 $-1 #
coedge $-1 -1 $-1 $366 $137 $367 $368 reversed $83 $-1 #
coedge $-1 -1 $-1 $137 $366 $369 $370 forward $83 $-1 #
coedge $-1 -1 $-1 $371 $372 $137 $241 forward $236 $-1 #
edge $373 -1 $-1 $374 -40 $375 40 $137 $376 forward @7 unknown #
coedge $-1 -1 $-1 $260 $260 $138 $243 forward $365 $-1 #
edge $377 -1 $-1 $244 -14.142135623730951 $378 14.142135623730951 $138 $379 forward @7 unknown #
vertex $-1 -1 $-1 $261 $380 #
straight-curve $-1 -1 $-1 -14.142135623730951 5 0 0 0 -1 I I #
coedge $-1 -1 $-1 $143 $146 $140 $247 forward $95 $-1 #
edge $-1 -1 $-1 $149 -10 $249 20 $246 $381 forward @7 unknown #
attrib_edge_convexity-kcp-attrib $-1 -1 $382 $-1 $142 1 #
vertex $-1 -1 $-1 $251 $383 #
straight-curve $-1 -1 $-1 0 -5 -20 -1 0 0 I I #
edge $384 -1 $-1 $144 -2.8017557441356713 $249 -0.33983690945412193 $237 $385 forward @7 unknown #
point $-1 -1 $-1 -14.142135623730951 -5 -20 #
coedge $-1 -1 $-1 $146 $155 $151 $257 forward $95 $-1 #
attrib_edge_convexity-kcp-attrib $-1 -1 $386 $-1 $147 2 #
convexity-sys-attrib $-1 -1 $-1 $148 $91 #
point $-1 -1 $-1 14.142135623730951 -5 10 #
edge $-1 -1 $-1 $378 -20 $153 10 $253 $387 forward @7 unknown #
convexity-sys-attrib $-1 -1 $-1 $152 $93 #
point $-1 -1 $-1 14.142135623730951 5 10 #
coedge $-1 -1 $-1 $242 $242 $155 $261 forward $365 $-1 #
edge $388 -1 $-1 $378 0.33983690945412193 $244 2.8017557441356713 $260 $385 forward @7 unknown #
coedge $-1 -1 $-1 $389 $390 $391 $392 reversed $156 $-1 #
model_id-kcp-attrib $-1 -1 $-1 $-1 $157 1 1021384613 1021384613 -2067791871 8 #
face $393 -1 $-1 $394 $395 $9 $-1 $396 forward single #
cone-surface $-1 -1 $-1 0 0 0 0 0 1 15 0 0 1 I I 0 1 15 forward I I I I #
face $-1 -1 $-1 $-1 $397 $24 $-1 $398 reversed single #
loop $-1 -1 $-1 $-1 $399 $161 #
plane-surface $-1 -1 $-1 0 0 -120 0 0 1 1 0 0 forward_v I I I I #
coedge $-1 -1 $-1 $400 $164 $166 $274 reversed $101 $-1 #
coedge $-1 -1 $-1 $164 $400 $399 $401 forward $101 $-1 #
coedge $-1 -1 $-1 $173 $167 $164 $272 reversed $162 $-1 #
edge $-1 -1 $-1 $402 -60 $275 -40 $271 $403 forward @7 unknown #
coedge $-1 -1 $-1 $166 $165 $404 $405 forward $66 $-1 #
edge $-1 -1 $-1 $406 -10 $275 10 $269 $407 forward @7 unknown #
vertex $-1 -1 $-1 $168 $408 #
straight-curve $-1 -1 $-1 10 12.795084971874733 -100 0 1 0 I I #
coedge $-1 -1 $-1 $409 $404 $169 $278 reversed $397 $-1 #
edge $410 -1 $-1 $282 -57.5 $284 -37.5 $277 $411 forward @7 unknown #
coedge $-1 -1 $-1 $399 $170 $173 $286 forward $267 $-1 #
coedge $-1 -1 $-1 $170 $399 $409 $412 forward $267 $-1 #
convexity-sys-attrib $-1 -1 $-1 $-1 $171 #
vertex $-1 -1 $-1 $278 $413 #
straight-curve $-1 -1 $-1 0 20.590169943749466 -120 -1 0 0 I I #
vertex $-1 -1 $-1 $278 $414 #
straight-curve $-1 -1 $-1 -7.0710678118654755 20.590169943749466 -100 1 0 0 I I #
edge $415 -1 $-1 $176 -20.590169943749466 $402 14.409830056250534 $173 $416 forward @7 unknown #
point $-1 -1 $-1 10 20.590169943749466 -100 #
point $-1 -1 $-1 10 20.590169943749466 -120 #
face $-1 -1 $-1 $-1 $417 $26 $-1 $418 reversed single #
loop $-1 -1 $-1 $-1 $419 $178 #
plane-surface $-1 -1 $-1 0 0 -120 0 0 1 1 0 0 forward_v I I I I #
coedge $-1 -1 $-1 $303 $181 $419 $420 forward $109 $-1 #
edge $-1 -1 $-1 $192 40 $421 60 $190 $422 forward @7 unknown #
coedge $-1 -1 $-1 $183 $182 $423 $424 forward $70 $-1 #
coedge $-1 -1 $-1 $425 $426 $183 $296 reversed $290 $-1 #
edge $427 -1 $-1 $428 -10 $299 10 $295 $429 forward @7 unknown #
coedge $-1 -1 $-1 $190 $184 $426 $430 reversed $179 $-1 #
convexity-sys-attrib $-1 -1 $-1 $-1 $185 #
vertex $-1 -1 $-1 $296 $431 #
straight-curve $-1 -1 $-1 10 -20.590169943749466 -62.5 0 0 1 I I #
coedge $-1 -1 $-1 $432 $423 $186 $302 reversed $417 $-1 #
edge $-1 -1 $-1 $304 -27.204915028125267 $306 7.7950849718747328 $301 $433 forward @7 unknown #
coedge $-1 -1 $-1 $187 $292 $432 $434 forward $109 $-1 #
vertex $-1 -1 $-1 $302 $435 #
straight-curve $-1 -1 $-1 0 14.409830056250534 -100 -1 0 0 I I #
vertex $-1 -1 $-1 $302 $436 #
straight-curve $-1 -1 $-1 7.0710678118654755 -20.590169943749466 -100 -1 0 0 I I #
point $-1 -1 $-1 10 -20.590169943749466 -100 #
point $-1 -1 $-1 10 14.409830056250534 -100 #
model_id-kcp-attrib $-1 -1 $-1 $-1 $195 1 1021384613 1021384613 -2067791870 8 #
face $437 -1 $-1 $-1 $210 $27 $-1 $438 reversed single #
loop $-1 -1 $-1 $-1 $327 $195 #
plane-surface $-1 -1 $-1 0 40 0 0 -1 0 0 0 -1 forward_v I I I I #
coedge $-1 -1 $-1 $439 $325 $328 $440 forward $196 $-1 #
coedge $-1 -1 $-1 $331 $198 $199 $319 reversed $118 $-1 #
coedge $-1 -1 $-1 $325 $439 $198 $317 reversed $196 $-1 #
edge $-1 -1 $-1 $332 -20 $441 20 $316 $442 forward @7 unknown #
coedge $-1 -1 $-1 $200 $199 $439 $443 forward $75 $-1 #
edge $-1 -1 $-1 $323 -40 $441 40 $315 $444 forward @7 unknown #
coedge $-1 -1 $-1 $328 $327 $200 $321 reversed $312 $-1 #
edge $-1 -1 $-1 $445 -40 $322 40 $320 $446 forward @7 unknown #
vertex $-1 -1 $-1 $202 $447 #
vertex $-1 -1 $-1 $334 $448 #
straight-curve $-1 -1 $-1 40 0 -20 0 -1 0 I I #
coedge $-1 -1 $-1 $314 $316 $203 $326 reversed $196 $-1 #
edge $-1 -1 $-1 $329 -40 $332 40 $325 $449 forward @7 unknown #
coedge $-1 -1 $-1 $320 $204 $209 $335 forward $312 $-1 #
coedge $-1 -1 $-1 $204 $320 $314 $440 reversed $312 $-1 #
vertex $-1 -1 $-1 $205 $450 #
straight-curve $-1 -1 $-1 0 40 20 -1 0 0 I I #
coedge $-1 -1 $-1 $206 $315 $208 $334 reversed $118 $-1 #
vertex $-1 -1 $-1 $326 $451 #
straight-curve $-1 -1 $-1 0 -40 20 1 0 0 I I #
edge $-1 -1 $-1 $211 -20 $323 20 $208 $452 forward @7 unknown #
edge $-1 -1 $-1 $212 -20 $322 20 $209 $453 forward @7 unknown #
point $-1 -1 $-1 40 -40 20 #
point $-1 -1 $-1 40 40 20 #
face $-1 -1 $-1 $-1 $354 $29 $-1 $454 reversed single #
plane-surface $-1 -1 $-1 0 -5 0 0 1 0 0 0 1 forward_v I I I I #
coedge $-1 -1 $-1 $455 $350 $353 $456 reversed $215 $-1 #
coedge $-1 -1 $-1 $217 $358 $218 $344 forward $126 $-1 #
edge $-1 -1 $-1 $348 -14.142135623730951 $230 14.142135623730951 $227 $457 forward @7 unknown #
coedge $-1 -1 $-1 $219 $218 $455 $458 forward $79 $-1 #
edge $-1 -1 $-1 $459 2.8017557441356713 $348 3.4814295630439149 $341 $460 forward @7 unknown #
coedge $-1 -1 $-1 $353 $352 $219 $346 reversed $354 $-1 #
edge $461 -1 $-1 $462 2.8017557441356713 $347 3.4814295630439149 $345 $463 forward @7 unknown #
vertex $-1 -1 $-1 $346 $464 #
vertex $-1 -1 $-1 $221 $465 #
straight-curve $-1 -1 $-1 -14.142135623730951 -5 -130 0 0 1 I I #
coedge $-1 -1 $-1 $340 $466 $222 $351 reversed $215 $-1 #
edge $-1 -1 $-1 $356 10 $359 20 $350 $467 forward @7 unknown #
coedge $-1 -1 $-1 $345 $223 $228 $361 forward $354 $-1 #
coedge $-1 -1 $-1 $223 $345 $340 $456 forward $354 $-1 #
loop $-1 -1 $-1 $-1 $223 $338 #
convexity-sys-attrib $-1 -1 $-1 $-1 $224 #
vertex $-1 -1 $-1 $224 $468 #
ellipse-curve $-1 -1 $-1 0 0 -120 0 0 1 15 0 0 1 I I #
coedge $-1 -1 $-1 $341 $225 $466 $469 forward $126 $-1 #
vertex $-1 -1 $-1 $351 $470 #
ellipse-curve $-1 -1 $-1 0 0 -110 0 0 1 15 0 0 1 I I #
edge $471 -1 $-1 $231 -14.142135623730951 $347 14.142135623730951 $228 $472 forward @7 unknown #
point $-1 -1 $-1 14.142135623730951 -5 -110 #
point $-1 -1 $-1 14.142135623730951 -5 -120 #
coedge $-1 -1 $-1 $473 $474 $475 $476 reversed $234 $-1 #
loop $-1 -1 $-1 $-1 $242 $82 #
coedge $-1 -1 $-1 $239 $238 $477 $478 reversed $83 $-1 #
coedge $-1 -1 $-1 $479 $480 $238 $368 forward $481 $-1 #
edge $482 -1 $-1 $483 -20 $374 20 $238 $484 forward @7 unknown #
coedge $-1 -1 $-1 $485 $486 $239 $370 reversed $487 $-1 #
edge $488 -1 $-1 $489 -20 $375 20 $369 $490 forward @7 unknown #
coedge $-1 -1 $-1 $475 $240 $486 $491 forward $236 $-1 #
coedge $-1 -1 $-1 $240 $475 $479 $492 forward $236 $-1 #
attrib_edge_convexity-kcp-attrib $-1 -1 $493 $-1 $241 1 #
vertex $-1 -1 $-1 $241 $494 #
vertex $-1 -1 $-1 $491 $495 #
straight-curve $-1 -1 $-1 -40 0 -20 0 1 0 I I #
attrib_edge_convexity-kcp-attrib $-1 -1 $496 $-1 $243 1 #
vertex $-1 -1 $-1 $261 $497 #
straight-curve $-1 -1 $-1 0 5 -20 1 0 0 I I #
point $-1 -1 $-1 -14.142135623730951 5 -20 #
straight-curve $-1 -1 $-1 14.142135623730951 -5 0 0 0 -1 I I #
convexity-sys-attrib $-1 -1 $-1 $248 $142 #
point $-1 -1 $-1 14.142135623730951 -5 -20 #
attrib_edge_convexity-kcp-attrib $-1 -1 $498 $-1 $251 1 #
ellipse-curve $-1 -1 $-1 0 0 -20 0 0 1 15 0 0 1 I I #
convexity-sys-attrib $-1 -1 $-1 $254 $147 #
straight-curve $-1 -1 $-1 14.142135623730951 5 0 0 0 1 I I #
attrib_edge_convexity-kcp-attrib $-1 -1 $499 $-1 $261 1 #
coedge $-1 -1 $-1 $500 $262 $501 $502 reversed $156 $-1 #
coedge $-1 -1 $-1 $262 $503 $504 $505 reversed $156 $-1 #
coedge $-1 -1 $-1 $506 $507 $262 $392 forward $508 $-1 #
edge $-1 -1 $-1 $509 -20 $510 0 $391 $511 forward @7 unknown #
model_id-kcp-attrib $-1 -1 $-1 $-1 $264 1 1021384613 1021384613 -2067791871 9 #
face $512 -1 $-1 $513 $514 $9 $-1 $515 forward single #
loop $-1 -1 $-1 $-1 $516 $264 #
plane-surface $-1 -1 $-1 0 0 20 0 0 1 1 0 0 forward_v I I I I #
loop $-1 -1 $-1 $-1 $517 $266 #
plane-surface $-1 -1 $-1 -10 0 0 1 0 0 0 0 -1 forward_v I I I I #
coedge $-1 -1 $-1 $280 $279 $270 $401 reversed $267 $-1 #
coedge $-1 -1 $-1 $270 $269 $517 $518 forward $101 $-1 #
edge $519 -1 $-1 $520 -10 $402 10 $399 $521 forward @7 unknown #
vertex $-1 -1 $-1 $401 $522 #
straight-curve $-1 -1 $-1 10 -14.409830056250534 -60 0 0 1 I I #
coedge $-1 -1 $-1 $277 $517 $273 $405 reversed $397 $-1 #
edge $-1 -1 $-1 $284 -7.7950849718747328 $406 27.204915028125267 $404 $523 forward @7 unknown #
vertex $-1 -1 $-1 $405 $524 #
straight-curve $-1 -1 $-1 0 -14.409830056250534 -100 1 0 0 I I #
point $-1 -1 $-1 10 -14.409830056250534 -100 #
coedge $-1 -1 $-1 $517 $277 $280 $412 reversed $397 $-1 #
convexity-sys-attrib $-1 -1 $-1 $-1 $278 #
straight-curve $-1 -1 $-1 -10 20.590169943749466 -62.5 0 0 1 I I #
edge $525 -1 $-1 $520 -14.409830056250534 $282 20.590169943749466 $409 $526 forward @7 unknown #
point $-1 -1 $-1 -10 20.590169943749466 -120 #
point $-1 -1 $-1 -10 20.590169943749466 -100 #
convexity-sys-attrib $-1 -1 $-1 $-1 $286 #
straight-curve $-1 -1 $-1 10 0 -120 0 -1 0 I I #
loop $-1 -1 $-1 $-1 $432 $289 #
plane-surface $-1 -1 $-1 -10 0 0 1 0 0 0 0 -1 forward_v I I I I #
coedge $-1 -1 $-1 $426 $425 $292 $420 reversed $290 $-1 #
edge $527 -1 $-1 $421 -10 $528 10 $419 $529 forward @7 unknown #
vertex $-1 -1 $-1 $430 $530 #
straight-curve $-1 -1 $-1 10 14.409830056250534 -60 0 0 -1 I I #
coedge $-1 -1 $-1 $301 $531 $294 $424 reversed $417 $-1 #
edge $532 -1 $-1 $306 37.5 $428 57.5 $423 $533 forward @7 unknown #
coedge $-1 -1 $-1 $419 $295 $531 $534 forward $290 $-1 #
coedge $-1 -1 $-1 $295 $419 $297 $430 forward $290 $-1 #
convexity-sys-attrib $-1 -1 $-1 $-1 $296 #
vertex $-1 -1 $-1 $534 $535 #
straight-curve $-1 -1 $-1 0 -20.590169943749466 -120 1 0 0 I I #
edge $536 -1 $-1 $421 -14.409830056250534 $299 20.590169943749466 $297 $537 forward @7 unknown #
point $-1 -1 $-1 10 -20.590169943749466 -120 #
coedge $-1 -1 $-1 $531 $301 $303 $434 reversed $417 $-1 #
straight-curve $-1 -1 $-1 -10 -12.795084971874733 -100 0 -1 0 I I #
edge $-1 -1 $-1 $528 -60 $304 -40 $432 $538 forward @7 unknown #
point $-1 -1 $-1 -10 14.409830056250534 -100 #
point $-1 -1 $-1 -10 -20.590169943749466 -100 #
model_id-kcp-attrib $-1 -1 $-1 $-1 $311 1 1021384613 1021384613 -2067791870 4 #
plane-surface $-1 -1 $-1 40 0 0 -1 0 0 0 0 1 forward_v I I I I #
coedge $-1 -1 $-1 $316 $314 $318 $443 reversed $196 $-1 #
edge $-1 -1 $-1 $329 -20 $445 20 $328 $539 forward @7 unknown #
vertex $-1 -1 $-1 $443 $540 #
straight-curve $-1 -1 $-1 -40 -40 0 0 0 -1 I I #
edge $-1 -1 $-1 $441 -40 $445 40 $439 $541 forward @7 unknown #
straight-curve $-1 -1 $-1 0 -40 -20 -1 0 0 I I #
vertex $-1 -1 $-1 $321 $542 #
straight-curve $-1 -1 $-1 0 40 -20 1 0 0 I I #
point $-1 -1 $-1 40 40 -20 #
point $-1 -1 $-1 40 -40 -20 #
straight-curve $-1 -1 $-1 -40 0 20 0 -1 0 I I #
point $-1 -1 $-1 -40 40 20 #
point $-1 -1 $-1 -40 -40 20 #
straight-curve $-1 -1 $-1 40 -40 0 0 0 -1 I I #
straight-curve $-1 -1 $-1 40 40 0 0 0 -1 I I #
plane-surface $-1 -1 $-1 0 0 -120 0 0 1 1 0 0 forward_v I I I I #
coedge $-1 -1 $-1 $466 $340 $343 $458 reversed $215 $-1 #
edge $543 -1 $-1 $462 -14.142135623730951 $356 14.142135623730951 $340 $544 forward @7 unknown #
straight-curve $-1 -1 $-1 0 -5 -110 1 0 0 I I #
edge $-1 -1 $-1 $459 -20 $462 -10 $455 $545 forward @7 unknown #
vertex $-1 -1 $-1 $458 $546 #
ellipse-curve $-1 -1 $-1 0 0 -110 0 0 1 15 0 0 1 I I #
convexity-sys-attrib $-1 -1 $-1 $-1 $346 #
vertex $-1 -1 $-1 $456 $547 #
ellipse-curve $-1 -1 $-1 0 0 -120 0 0 1 15 0 0 1 I I #
point $-1 -1 $-1 -14.142135623730951 -5 -120 #
point $-1 -1 $-1 -14.142135623730951 -5 -110 #
coedge $-1 -1 $-1 $350 $455 $358 $469 reversed $215 $-1 #
straight-curve $-1 -1 $-1 14.142135623730951 5 -130 0 0 1 I I #
point $-1 -1 $-1 14.142135623730951 5 -120 #
edge $-1 -1 $-1 $359 -14.142135623730951 $459 14.142135623730951 $466 $548 forward @7 unknown #
point $-1 -1 $-1 14.142135623730951 5 -110 #
convexity-sys-attrib $-1 -1 $-1 $-1 $361 #
straight-curve $-1 -1 $-1 0 -5 -120 -1 0 0 I I #
coedge $-1 -1 $-1 $549 $364 $550 $551 reversed $234 $-1 #
coedge $-1 -1 $-1 $364 $549 $552 $553 forward $234 $-1 #
coedge $-1 -1 $-1 $372 $371 $364 $476 forward $236 $-1 #
edge $554 -1 $-1 $555 -40 $556 40 $364 $557 forward @7 unknown #
coedge $-1 -1 $-1 $558 $559 $366 $478 forward $395 $-1 #
edge $560 -1 $-1 $489 -40 $483 40 $366 $561 forward @7 unknown #
coedge $-1 -1 $-1 $552 $367 $372 $492 reversed $481 $-1 #
coedge $-1 -1 $-1 $367 $562 $558 $563 reversed $481 $-1 #
loop $-1 -1 $-1 $-1 $564 $565 #
attrib_edge_convexity-kcp-attrib $-1 -1 $566 $-1 $368 1 #
vertex $-1 -1 $-1 $478 $567 #
straight-curve $-1 -1 $-1 -40 -40 0 0 0 -1 I I #
coedge $-1 -1 $-1 $568 $369 $559 $569 reversed $487 $-1 #
coedge $-1 -1 $-1 $369 $550 $371 $491 reversed $487 $-1 #
loop $-1 -1 $-1 $-1 $570 $571 #
attrib_edge_convexity-kcp-attrib $-1 -1 $572 $-1 $370 1 #
vertex $-1 -1 $-1 $569 $573 #
straight-curve $-1 -1 $-1 -40 40 0 0 0 -1 I I #
edge $574 -1 $-1 $375 -40 $555 40 $486 $575 forward @7 unknown #
edge $576 -1 $-1 $556 -40 $374 40 $479 $577 forward @7 unknown #
convexity-sys-attrib $-1 -1 $-1 $373 $241 #
point $-1 -1 $-1 -40 -40 -20 #
point $-1 -1 $-1 -40 40 -20 #
convexity-sys-attrib $-1 -1 $-1 $377 $243 #
point $-1 -1 $-1 14.142135623730951 5 -20 #
convexity-sys-attrib $-1 -1 $-1 $384 $251 #
convexity-sys-attrib $-1 -1 $-1 $388 $261 #
coedge $-1 -1 $-1 $578 $389 $579 $580 reversed $156 $-1 #
coedge $-1 -1 $-1 $581 $582 $389 $502 forward $583 $-1 #
edge $-1 -1 $-1 $584 -0.84106867056793033 $509 0.84106867056793033 $501 $585 forward @7 unknown #
coedge $-1 -1 $-1 $390 $586 $587 $588 reversed $156 $-1 #
coedge $-1 -1 $-1 $589 $590 $390 $505 forward $591 $-1 #
edge $592 -1 $-1 $510 0.84106867056793033 $593 2.3005239830218631 $504 $594 forward @7 unknown #
coedge $-1 -1 $-1 $595 $391 $590 $596 forward $508 $-1 #
coedge $-1 -1 $-1 $391 $595 $581 $597 reversed $508 $-1 #
loop $-1 -1 $-1 $-1 $391 $598 #
vertex $-1 -1 $-1 $392 $599 #
vertex $-1 -1 $-1 $392 $600 #
straight-curve $-1 -1 $-1 10 -11.180339887498949 0 0 0 -1 I I #
model_id-kcp-attrib $-1 -1 $-1 $-1 $394 1 1021384613 1021384613 -2067791871 10 #
face $601 -1 $-1 $602 $603 $9 $-1 $604 forward single #
loop $-1 -1 $-1 $-1 $579 $394 #
plane-surface $-1 -1 $-1 10 0 10 -1 0 0 0 0 1 forward_v I I I I #
coedge $-1 -1 $-1 $605 $606 $586 $607 forward $395 $-1 #
coedge $-1 -1 $-1 $404 $409 $400 $518 reversed $397 $-1 #
edge $-1 -1 $-1 $406 40 $520 60 $517 $608 forward @7 unknown #
convexity-sys-attrib $-1 -1 $-1 $-1 $401 #
vertex $-1 -1 $-1 $412 $609 #
straight-curve $-1 -1 $-1 0 -14.409830056250534 -120 1 0 0 I I #
point $-1 -1 $-1 10 -14.409830056250534 -120 #
straight-curve $-1 -1 $-1 -10 12.795084971874733 -100 0 -1 0 I I #
point $-1 -1 $-1 -10 -14.409830056250534 -100 #
convexity-sys-attrib $-1 -1 $-1 $-1 $412 #
straight-curve $-1 -1 $-1 -10 0 -120 0 1 0 I I #
convexity-sys-attrib $-1 -1 $-1 $-1 $420 #
vertex $-1 -1 $-1 $420 $610 #
straight-curve $-1 -1 $-1 0 14.409830056250534 -120 -1 0 0 I I #
point $-1 -1 $-1 10 14.409830056250534 -120 #
coedge $-1 -1 $-1 $423 $432 $425 $534 reversed $417 $-1 #
convexity-sys-attrib $-1 -1 $-1 $-1 $424 #
straight-curve $-1 -1 $-1 -10 -20.590169943749466 -62.5 0 0 -1 I I #
edge $611 -1 $-1 $428 -20.590169943749466 $528 14.409830056250534 $531 $612 forward @7 unknown #
point $-1 -1 $-1 -10 -20.590169943749466 -120 #
convexity-sys-attrib $-1 -1 $-1 $-1 $430 #
straight-curve $-1 -1 $-1 10 0 -120 0 -1 0 I I #
straight-curve $-1 -1 $-1 -10 14.409830056250534 -60 0 0 1 I I #
straight-curve $-1 -1 $-1 -40 40 0 0 0 -1 I I #
point $-1 -1 $-1 -40 -40 -20 #
straight-curve $-1 -1 $-1 -40 0 -20 0 1 0 I I #
point $-1 -1 $-1 -40 40 -20 #
convexity-sys-attrib $-1 -1 $-1 $-1 $456 #
straight-curve $-1 -1 $-1 0 5 -120 1 0 0 I I #
straight-curve $-1 -1 $-1 -14.142135623730951 5 -130 0 0 -1 I I #
point $-1 -1 $-1 -14.142135623730951 5 -110 #
point $-1 -1 $-1 -14.142135623730951 5 -120 #
straight-curve $-1 -1 $-1 0 5 -110 -1 0 0 I I #
coedge $-1 -1 $-1 $474 $473 $613 $614 reversed $234 $-1 #
coedge $-1 -1 $-1 $486 $615 $473 $551 forward $487 $-1 #
edge $-1 -1 $-1 $616 -20 $555 20 $473 $617 forward @7 unknown #
coedge $-1 -1 $-1 $618 $479 $474 $553 reversed $481 $-1 #
edge $619 -1 $-1 $620 -20 $556 20 $474 $621 forward @7 unknown #
attrib_edge_convexity-kcp-attrib $-1 -1 $622 $-1 $476 1 #
vertex $-1 -1 $-1 $476 $623 #
vertex $-1 -1 $-1 $553 $624 #
straight-curve $-1 -1 $-1 40 0 -20 0 -1 0 I I #
coedge $-1 -1 $-1 $606 $477 $480 $563 forward $395 $-1 #
coedge $-1 -1 $-1 $477 $605 $485 $569 forward $395 $-1 #
attrib_edge_convexity-kcp-attrib $-1 -1 $625 $-1 $478 1 #
straight-curve $-1 -1 $-1 -40 0 20 0 -1 0 I I #
coedge $-1 -1 $-1 $480 $626 $627 $628 forward $481 $-1 #
edge $629 -1 $-1 $483 -40 $630 -10 $480 $631 forward @7 unknown #
coedge $-1 -1 $-1 $626 $618 $595 $632 forward $481 $-1 #
face $633 -1 $-1 $634 $481 $9 $-1 $635 reversed single #
convexity-sys-attrib $-1 -1 $-1 $482 $368 #
point $-1 -1 $-1 -40 -40 20 #
coedge $-1 -1 $-1 $636 $485 $637 $638 forward $487 $-1 #
edge $-1 -1 $-1 $639 10 $489 40 $485 $640 forward @7 unknown #
coedge $-1 -1 $-1 $615 $636 $641 $642 forward $487 $-1 #
face $643 -1 $-1 $-1 $487 $9 $-1 $644 reversed single #
convexity-sys-attrib $-1 -1 $-1 $488 $370 #
point $-1 -1 $-1 -40 40 20 #
attrib_edge_convexity-kcp-attrib $-1 -1 $645 $-1 $491 1 #
straight-curve $-1 -1 $-1 0 40 -20 1 0 0 I I #
attrib_edge_convexity-kcp-attrib $-1 -1 $646 $-1 $492 1 #
straight-curve $-1 -1 $-1 0 -40 -20 -1 0 0 I I #
coedge $-1 -1 $-1 $647 $500 $648 $649 reversed $156 $-1 #
coedge $-1 -1 $-1 $650 $651 $500 $580 forward $514 $-1 #
edge $-1 -1 $-1 $652 0 $584 20 $579 $653 forward @7 unknown #
coedge $-1 -1 $-1 $654 $501 $507 $597 forward $583 $-1 #
coedge $-1 -1 $-1 $501 $655 $650 $656 forward $583 $-1 #
loop $-1 -1 $-1 $-1 $501 $634 #
vertex $-1 -1 $-1 $656 $657 #
ellipse-curve $-1 -1 $-1 0 0 20 0 0 -1 15 0 0 1 I I #
coedge $-1 -1 $-1 $503 $647 $516 $607 reversed $156 $-1 #
coedge $-1 -1 $-1 $658 $659 $503 $588 forward $660 $-1 #
edge $-1 -1 $-1 $593 0 $661 20 $587 $662 forward @7 unknown #
coedge $-1 -1 $-1 $663 $504 $659 $664 reversed $591 $-1 #
coedge $-1 -1 $-1 $504 $663 $506 $596 reversed $591 $-1 #
loop $-1 -1 $-1 $-1 $504 $665 #
attrib_edge_convexity-kcp-attrib $-1 -1 $666 $-1 $505 1 #
vertex $-1 -1 $-1 $664 $667 #
ellipse-curve $-1 -1 $-1 0 0 0 0 0 -1 15 0 0 1 I I #
coedge $-1 -1 $-1 $507 $506 $564 $632 reversed $508 $-1 #
edge $668 -1 $-1 $510 11.180339887498949 $669 40 $506 $670 forward @7 unknown #
edge $-1 -1 $-1 $509 11.180339887498949 $671 40 $581 $672 forward @7 unknown #
face $673 -1 $-1 $565 $508 $9 $-1 $515 forward single #
point $-1 -1 $-1 10 -11.180339887498949 20 #
point $-1 -1 $-1 10 -11.180339887498949 0 #
model_id-kcp-attrib $-1 -1 $-1 $-1 $513 1 1021384613 1021384613 -2067791871 11 #
face $674 -1 $-1 $675 $660 $9 $-1 $604 forward single #
loop $-1 -1 $-1 $-1 $676 $513 #
plane-surface $-1 -1 $-1 -10 0 10 1 0 0 0 0 -1 forward_v I I I I #
coedge $-1 -1 $-1 $559 $516 $677 $678 forward $395 $-1 #
coedge $-1 -1 $-1 $516 $558 $658 $679 forward $395 $-1 #
edge $-1 -1 $-1 $661 2.3005239830218631 $680 3.9826613241577231 $516 $681 forward @7 unknown #
straight-curve $-1 -1 $-1 -10 -14.409830056250534 -60 0 0 -1 I I #
point $-1 -1 $-1 -10 -14.409830056250534 -120 #
point $-1 -1 $-1 -10 14.409830056250534 -120 #
convexity-sys-attrib $-1 -1 $-1 $-1 $534 #
straight-curve $-1 -1 $-1 -10 0 -120 0 1 0 I I #
coedge $-1 -1 $-1 $655 $654 $549 $614 forward $583 $-1 #
edge $-1 -1 $-1 $620 -40 $616 40 $549 $682 forward @7 unknown #
coedge $-1 -1 $-1 $550 $570 $655 $683 reversed $487 $-1 #
vertex $-1 -1 $-1 $614 $684 #
straight-curve $-1 -1 $-1 40 40 0 0 0 -1 I I #
coedge $-1 -1 $-1 $564 $552 $654 $685 reversed $481 $-1 #
attrib_edge_convexity-kcp-attrib $-1 -1 $686 $-1 $553 1 #
vertex $-1 -1 $-1 $614 $687 #
straight-curve $-1 -1 $-1 40 -40 0 0 0 -1 I I #
convexity-sys-attrib $-1 -1 $-1 $554 $476 #
point $-1 -1 $-1 40 40 -20 #
point $-1 -1 $-1 40 -40 -20 #
convexity-sys-attrib $-1 -1 $-1 $560 $478 #
coedge $-1 -1 $-1 $562 $564 $663 $688 forward $481 $-1 #
coedge $-1 -1 $-1 $659 $658 $562 $628 reversed $660 $-1 #
edge $689 -1 $-1 $690 -5 $630 15 $562 $691 forward @7 unknown #
attrib_edge_convexity-kcp-attrib $-1 -1 $692 $-1 $563 1 #
vertex $-1 -1 $-1 $563 $693 #
straight-curve $-1 -1 $-1 0 -40 20 1 0 0 I I #
edge $694 -1 $-1 $671 -15 $669 5 $564 $695 forward @7 unknown #
model_id-kcp-attrib $-1 -1 $-1 $-1 $565 1 1021384613 1021384613 -2067791871 16 #
face $696 -1 $-1 $571 $583 $9 $-1 $396 forward single #
plane-surface $-1 -1 $-1 0 -40 0 0 1 0 0 0 1 forward_v I I I I #
coedge $-1 -1 $-1 $570 $568 $697 $698 forward $487 $-1 #
coedge $-1 -1 $-1 $677 $699 $568 $638 reversed $603 $-1 #
edge $-1 -1 $-1 $639 -15 $700 5 $568 $701 forward @7 unknown #
vertex $-1 -1 $-1 $638 $702 #
straight-curve $-1 -1 $-1 0 40 20 -1 0 0 I I #
coedge $-1 -1 $-1 $651 $650 $570 $642 reversed $514 $-1 #
edge $-1 -1 $-1 $703 -5 $704 15 $570 $705 forward @7 unknown #
model_id-kcp-attrib $-1 -1 $-1 $-1 $571 1 1021384613 1021384613 -2067791871 18 #
plane-surface $-1 -1 $-1 0 40 0 0 -1 0 0 0 -1 forward_v I I I I #
convexity-sys-attrib $-1 -1 $-1 $574 $491 #
convexity-sys-attrib $-1 -1 $-1 $576 $492 #
coedge $-1 -1 $-1 $586 $578 $676 $706 reversed $156 $-1 #
coedge $-1 -1 $-1 $707 $708 $578 $649 forward $709 $-1 #
edge $710 -1 $-1 $711 -2.3005239830218631 $652 -0.84106867056793033 $648 $594 forward @7 unknown #
coedge $-1 -1 $-1 $641 $579 $582 $656 reversed $514 $-1 #
coedge $-1 -1 $-1 $579 $641 $707 $712 forward $514 $-1 #
vertex $-1 -1 $-1 $712 $713 #
straight-curve $-1 -1 $-1 10 11.180339887498949 0 0 0 1 I I #
coedge $-1 -1 $-1 $613 $581 $618 $685 forward $583 $-1 #
coedge $-1 -1 $-1 $582 $613 $615 $683 forward $583 $-1 #
edge $-1 -1 $-1 $704 -40 $584 -11.180339887498949 $582 $672 forward @7 unknown #
point $-1 -1 $-1 10 11.180339887498949 20 #
coedge $-1 -1 $-1 $627 $587 $606 $679 reversed $660 $-1 #
coedge $-1 -1 $-1 $587 $627 $589 $664 forward $660 $-1 #
loop $-1 -1 $-1 $-1 $587 $602 #
vertex $-1 -1 $-1 $679 $714 #
straight-curve $-1 -1 $-1 -10 -11.180339887498949 0 0 0 1 I I #
coedge $-1 -1 $-1 $590 $589 $626 $688 reversed $591 $-1 #
edge $715 -1 $-1 $690 -40 $593 -11.180339887498949 $659 $716 forward @7 unknown #
face $717 -1 $-1 $598 $591 $9 $-1 $718 forward single #
convexity-sys-attrib $-1 -1 $-1 $592 $505 #
point $-1 -1 $-1 -10 -11.180339887498949 0 #
attrib_edge_convexity-kcp-attrib $-1 -1 $719 $-1 $596 2 #
vertex $-1 -1 $-1 $688 $720 #
straight-curve $-1 -1 $-1 10 0 0 0 -1 0 I I #
vertex $-1 -1 $-1 $597 $721 #
straight-curve $-1 -1 $-1 10 0 20 0 -1 0 I I #
model_id-kcp-attrib $-1 -1 $-1 $-1 $598 1 1021384613 1021384613 -2067791871 15 #
model_id-kcp-attrib $-1 -1 $-1 $-1 $602 1 1021384613 1021384613 -2067791871 12 #
face $722 -1 $-1 $665 $709 $9 $-1 $718 forward single #
coedge $-1 -1 $-1 $699 $677 $647 $706 forward $603 $-1 #
coedge $-1 -1 $-1 $676 $637 $605 $678 reversed $603 $-1 #
edge $-1 -1 $-1 $680 11.180339887498949 $639 40 $605 $723 forward @7 unknown #
edge $-1 -1 $-1 $630 -40 $661 -11.180339887498949 $606 $723 forward @7 unknown #
vertex $-1 -1 $-1 $706 $724 #
ellipse-curve $-1 -1 $-1 0 0 20 0 0 -1 15 0 0 1 I I #
straight-curve $-1 -1 $-1 40 0 20 0 1 0 I I #
edge $-1 -1 $-1 $616 -40 $704 -10 $615 $640 forward @7 unknown #
point $-1 -1 $-1 40 40 20 #
edge $725 -1 $-1 $671 10 $620 40 $618 $631 forward @7 unknown #
convexity-sys-attrib $-1 -1 $-1 $619 $553 #
point $-1 -1 $-1 40 -40 20 #
edge $726 -1 $-1 $669 -10 $690 10 $626 $727 forward @7 unknown #
attrib_edge_convexity-kcp-attrib $-1 -1 $728 $-1 $628 1 #
vertex $-1 -1 $-1 $688 $729 #
straight-curve $-1 -1 $-1 -10 -40 5 0 0 1 I I #
convexity-sys-attrib $-1 -1 $-1 $629 $563 #
point $-1 -1 $-1 -10 -40 20 #
attrib_edge_convexity-kcp-attrib $-1 -1 $730 $-1 $632 1 #
straight-curve $-1 -1 $-1 10 -40 5 0 0 -1 I I #
model_id-kcp-attrib $-1 -1 $-1 $-1 $634 1 1021384613 1021384613 -2067791871 17 #
coedge $-1 -1 $-1 $708 $707 $636 $698 reversed $709 $-1 #
edge $731 -1 $-1 $700 -10 $703 10 $636 $732 forward @7 unknown #
coedge $-1 -1 $-1 $637 $676 $708 $733 forward $603 $-1 #
vertex $-1 -1 $-1 $698 $734 #
straight-curve $-1 -1 $-1 -10 40 5 0 0 -1 I I #
point $-1 -1 $-1 -10 40 20 #
vertex $-1 -1 $-1 $698 $735 #
vertex $-1 -1 $-1 $683 $736 #
straight-curve $-1 -1 $-1 10 40 5 0 0 1 I I #
edge $-1 -1 $-1 $680 -20 $711 0 $676 $737 forward @7 unknown #
coedge $-1 -1 $-1 $697 $648 $651 $712 reversed $709 $-1 #
coedge $-1 -1 $-1 $648 $697 $699 $733 reversed $709 $-1 #
loop $-1 -1 $-1 $-1 $648 $675 #
attrib_edge_convexity-kcp-attrib $-1 -1 $738 $-1 $649 1 #
vertex $-1 -1 $-1 $649 $739 #
edge $740 -1 $-1 $703 -40 $652 -11.180339887498949 $651 $670 forward @7 unknown #
point $-1 -1 $-1 10 11.180339887498949 0 #
point $-1 -1 $-1 -10 -11.180339887498949 20 #
attrib_edge_convexity-kcp-attrib $-1 -1 $741 $-1 $664 2 #
straight-curve $-1 -1 $-1 -10 0 0 0 1 0 I I #
model_id-kcp-attrib $-1 -1 $-1 $-1 $665 1 1021384613 1021384613 -2067791871 14 #
plane-surface $-1 -1 $-1 0 0 0 0 0 1 1 0 0 forward_v I I I I #
convexity-sys-attrib $-1 -1 $-1 $668 $596 #
point $-1 -1 $-1 10 -40 0 #
point $-1 -1 $-1 10 -40 20 #
model_id-kcp-attrib $-1 -1 $-1 $-1 $675 1 1021384613 1021384613 -2067791871 13 #
straight-curve $-1 -1 $-1 -10 0 20 0 1 0 I I #
point $-1 -1 $-1 -10 11.180339887498949 20 #
attrib_edge_convexity-kcp-attrib $-1 -1 $742 $-1 $685 1 #
attrib_edge_convexity-kcp-attrib $-1 -1 $743 $-1 $688 1 #
straight-curve $-1 -1 $-1 0 -40 0 -1 0 0 I I #
convexity-sys-attrib $-1 -1 $-1 $689 $628 #
point $-1 -1 $-1 -10 -40 0 #
convexity-sys-attrib $-1 -1 $-1 $694 $632 #
attrib_edge_convexity-kcp-attrib $-1 -1 $744 $-1 $698 1 #
straight-curve $-1 -1 $-1 0 40 0 1 0 0 I I #
edge $745 -1 $-1 $711 11.180339887498949 $700 40 $699 $716 forward @7 unknown #
point $-1 -1 $-1 -10 40 0 #
point $-1 -1 $-1 10 40 0 #
point $-1 -1 $-1 10 40 20 #
straight-curve $-1 -1 $-1 -10 11.180339887498949 0 0 0 -1 I I #
convexity-sys-attrib $-1 -1 $-1 $710 $649 #
point $-1 -1 $-1 -10 11.180339887498949 0 #
attrib_edge_convexity-kcp-attrib $-1 -1 $746 $-1 $712 2 #
convexity-sys-attrib $-1 -1 $-1 $715 $664 #
convexity-sys-attrib $-1 -1 $-1 $725 $685 #
convexity-sys-attrib $-1 -1 $-1 $726 $688 #
convexity-sys-attrib $-1 -1 $-1 $731 $698 #
attrib_edge_convexity-kcp-attrib $-1 -1 $747 $-1 $733 2 #
convexity-sys-attrib $-1 -1 $-1 $740 $712 #
convexity-sys-attrib $-1 -1 $-1 $745 $733 #
End-of-ACIS-data 