105 86 1 0                              
body $-1 $1 $-1 $2 #
lump $-1 $-1 $3 $0 #
transform $-1 1 0 0 0 1 0 0 0 1 0 0 0 1 0 0 0 #
shell $-1 $-1 $-1 $4 $1 #
face $-1 $5 $6 $3 $-1 $7 forward single #
face $-1 $8 $9 $3 $-1 $10 reversed single #
loop $-1 $-1 $11 $4 #
plane-surface $-1 0 0 50 0 0 1 1 0 0 0 #
face $-1 $12 $13 $3 $-1 $14 reversed single #
loop $-1 $-1 $15 $5 #
plane-surface $-1 0 0 -50 0 0 1 1 0 0 0 #
coedge $-1 $16 $17 $18 $19 0 $6 $-1 #
face $-1 $20 $21 $3 $-1 $22 reversed single #
loop $-1 $-1 $23 $8 #
plane-surface $-1 0 -75 0 0 1 -0 -0 0 1 0 #
coedge $-1 $24 $25 $26 $27 0 $9 $-1 #
coedge $-1 $28 $11 $29 $30 0 $6 $-1 #
coedge $-1 $11 $28 $31 $32 0 $6 $-1 #
coedge $-1 $33 $34 $11 $19 1 $35 $-1 #
edge $-1 $36 $37 $18 $38 0 #
face $-1 $39 $40 $3 $-1 $41 reversed single #
loop $-1 $-1 $42 $12 #
plane-surface $-1 -50 0 0 1 0 0 0 0 -1 0 #
coedge $-1 $43 $31 $44 $45 0 $13 $-1 #
coedge $-1 $46 $15 $43 $47 0 $9 $-1 #
coedge $-1 $15 $46 $48 $49 0 $9 $-1 #
coedge $-1 $34 $33 $15 $27 1 $35 $-1 #
edge $-1 $50 $51 $26 $52 0 #
coedge $-1 $17 $16 $53 $54 0 $6 $-1 #
coedge $-1 $55 $56 $16 $30 1 $40 $-1 #
edge $-1 $37 $57 $29 $58 0 #
coedge $-1 $23 $59 $17 $32 1 $13 $-1 #
edge $-1 $60 $36 $31 $61 0 #
coedge $-1 $26 $18 $59 $62 0 $35 $-1 #
coedge $-1 $18 $26 $55 $63 1 $35 $-1 #
loop $-1 $-1 $33 $39 #
vertex $-1 $19 $64 #
vertex $-1 $19 $65 #
straight-curve $-1 50 0 50 0 1 0 #
face $-1 $-1 $35 $3 $-1 $66 reversed single #
loop $-1 $-1 $55 $20 #
plane-surface $-1 0 75 0 0 -1 0 0 0 -1 0 #
coedge $-1 $67 $53 $56 $68 0 $21 $-1 #
coedge $-1 $59 $23 $24 $47 1 $13 $-1 #
coedge $-1 $53 $67 $23 $45 1 $21 $-1 #
edge $-1 $60 $69 $44 $70 0 #
coedge $-1 $25 $24 $67 $71 0 $9 $-1 #
edge $-1 $51 $69 $43 $72 0 #
coedge $-1 $56 $55 $25 $49 1 $40 $-1 #
edge $-1 $73 $50 $48 $74 0 #
vertex $-1 $27 $75 #
vertex $-1 $62 $76 #
straight-curve $-1 50 0 -50 0 -1 0 #
coedge $-1 $42 $44 $28 $54 1 $21 $-1 #
edge $-1 $57 $60 $53 $77 0 #
coedge $-1 $48 $29 $34 $63 0 $40 $-1 #
coedge $-1 $29 $48 $42 $68 1 $40 $-1 #
vertex $-1 $30 $78 #
straight-curve $-1 0 75 50 -1 0 0 #
coedge $-1 $31 $43 $33 $62 1 $13 $-1 #
vertex $-1 $54 $79 #
straight-curve $-1 0 -75 50 1 0 0 #
edge $-1 $36 $51 $33 $80 0 #
edge $-1 $37 $50 $34 $81 0 #
point $-1 50 -75 50 #
point $-1 50 75 50 #
plane-surface $-1 50 0 0 -1 0 0 0 -0 1 0 #
coedge $-1 $44 $42 $46 $71 1 $21 $-1 #
edge $-1 $57 $73 $56 $82 0 #
vertex $-1 $71 $83 #
straight-curve $-1 -50 -75 0 0 0 -1 #
edge $-1 $69 $73 $67 $84 0 #
straight-curve $-1 0 -75 -50 -1 0 0 #
vertex $-1 $49 $85 #
straight-curve $-1 0 75 -50 1 0 0 #
point $-1 50 75 -50 #
point $-1 50 -75 -50 #
straight-curve $-1 -50 0 50 0 -1 0 #
point $-1 -50 75 50 #
point $-1 -50 -75 50 #
straight-curve $-1 50 -75 0 0 0 -1 #
straight-curve $-1 50 75 0 0 0 -1 #
straight-curve $-1 -50 75 0 0 0 -1 #
point $-1 -50 -75 -50 #
straight-curve $-1 -50 0 -50 0 1 0 #
point $-1 -50 75 -50 #
