201 0 1 0           
23 ACIS Test Harness - 2.1 16 ACIS 2.1 Solaris 24 Thu Feb 26 11:34:01 1998 
-1 9.999999999999999547e-07 1.000000000000000036e-10 
body $-1 $1 $-1 $2 #
lump $-1 $-1 $3 $0 #
transform $-1 1 0 0 0 1 0 0 0 1 -4.440892098500626254e-18 -0.1600000000000000033 5.919906697086710998e-11 0.04000000000000000777 no_rotate no_reflect no_shear #
shell $-1 $-1 $-1 $4 $-1 $1 #
face $-1 $5 $6 $3 $-1 $7 reversed single #
face $-1 $8 $9 $3 $-1 $10 reversed single #
loop $-1 $-1 $11 $4 #
plane-surface $-1 0.6092099999999999183 28.99999999408008478 -10.00000000106887121 0 1 8.222096583748244544e-11 0 -8.222096583748244544e-11 1 forward_v I I I I #
face $-1 $12 $13 $3 $-1 $14 reversed single #
loop $-1 $-1 $15 $5 #
plane-surface $-1 -2.277549999999999741 28.99999999408008478 -10.00000000106887121 0.8660262547301302849 0.4999985261159313743 4.111036173456957043e-11 4.747011018433882556e-11 0 -1 forward_v I I I I #
coedge $-1 $16 $17 $18 $19 1 $6 $-1 #
face $-1 $20 $21 $3 $-1 $22 reversed single #
loop $-1 $-1 $23 $8 #
plane-surface $-1 -3.720920000000000005 31.49999999408008478 -10.00000000086331831 0.8660262547301302849 -0.4999985261159313743 -4.111036173456957043e-11 -4.747011018433882556e-11 0 -1 forward_v I I I I #
coedge $-1 $24 $25 $26 $27 1 $9 $-1 #
coedge $-1 $28 $11 $29 $30 1 $6 $-1 #
coedge $-1 $11 $28 $24 $31 0 $6 $-1 #
coedge $-1 $26 $32 $11 $19 0 $33 $-1 #
edge $-1 $34 $35 $11 $36 forward #
face $-1 $37 $38 $3 $-1 $39 reversed single #
loop $-1 $-1 $40 $12 #
plane-surface $-1 -2.277549999999999741 33.99999999408008478 -10.00000000065776717 0 -1 -8.222096583748244544e-11 0 8.222096583748244544e-11 -1 forward_v I I I I #
coedge $-1 $41 $42 $43 $44 1 $13 $-1 #
coedge $-1 $45 $15 $17 $31 1 $9 $-1 #
coedge $-1 $15 $45 $41 $46 0 $9 $-1 #
coedge $-1 $43 $18 $15 $27 0 $33 $-1 #
edge $-1 $35 $47 $15 $48 forward #
coedge $-1 $17 $16 $49 $50 0 $6 $-1 #
coedge $-1 $51 $52 $16 $30 0 $53 $-1 #
edge $-1 $54 $34 $16 $55 forward #
edge $-1 $56 $35 $24 $57 forward #
coedge $-1 $18 $58 $51 $59 0 $33 $-1 #
loop $-1 $-1 $18 $60 #
vertex $-1 $30 $61 #
vertex $-1 $31 $62 #
straight-curve $-1 -2.277549999999999741 29.0000000014799717 -100.0000000037410217 -0.999999999999999889 0 0 I I #
face $-1 $63 $53 $3 $-1 $64 reversed single #
loop $-1 $-1 $65 $20 #
plane-surface $-1 0.6092099999999999183 33.99999999408008478 -10.00000000065776717 -0.8660262547301302849 -0.4999985261159313743 -4.111036173456957043e-11 -4.747011018433882556e-11 0 1 forward_v I I I I #
coedge $-1 $66 $67 $68 $69 1 $21 $-1 #
coedge $-1 $70 $23 $25 $46 1 $13 $-1 #
coedge $-1 $23 $70 $66 $71 0 $13 $-1 #
coedge $-1 $68 $26 $23 $44 0 $33 $-1 #
edge $-1 $47 $72 $23 $73 forward #
coedge $-1 $25 $24 $74 $75 0 $9 $-1 #
edge $-1 $76 $47 $41 $77 forward #
vertex $-1 $46 $78 #
straight-curve $-1 -3.720920000000000005 31.5000000014799717 -100.0000000026104914 -0.4999985261159312633 0.8660262547301300629 3.916300570649442728e-10 I I #
coedge $-1 $79 $80 $28 $50 1 $81 $-1 #
edge $-1 $54 $56 $49 $82 forward #
coedge $-1 $83 $29 $32 $59 1 $53 $-1 #
coedge $-1 $29 $83 $84 $85 0 $53 $-1 #
loop $-1 $-1 $51 $37 #
vertex $-1 $86 $87 #
straight-curve $-1 0.6092099999999999183 28.99999999408008478 -10.00000000106887121 0 8.222096583748244544e-11 -1 I I #
vertex $-1 $88 $89 #
straight-curve $-1 -2.277549999999999741 28.99999999408008478 -10.00000000106887121 0 8.222096583748244544e-11 -1 I I #
coedge $-1 $32 $68 $65 $90 0 $33 $-1 #
edge $-1 $91 $34 $51 $92 forward #
face $-1 $93 $33 $3 $-1 $94 forward single #
point $-1 0.6092099999999999183 29.0000000014799717 -100.0000000018910526 #
point $-1 -2.277549999999999741 29.0000000014799717 -100.0000000018910526 #
face $-1 $95 $96 $3 $-1 $97 reversed single #
plane-surface $-1 2.052579999999999849 31.49999999408008478 -10.00000000086331831 -0.8660262547301302849 0.4999985261159313743 4.111036173456957043e-11 4.747011018433882556e-11 0 1 forward_v I I I I #
coedge $-1 $98 $99 $58 $90 1 $38 $-1 #
coedge $-1 $100 $40 $42 $71 1 $21 $-1 #
coedge $-1 $40 $100 $98 $101 0 $21 $-1 #
coedge $-1 $58 $43 $40 $69 0 $33 $-1 #
edge $-1 $72 $102 $40 $103 forward #
coedge $-1 $42 $41 $104 $105 0 $13 $-1 #
edge $-1 $106 $72 $66 $107 forward #
vertex $-1 $71 $108 #
straight-curve $-1 -2.277549999999999741 34.00000000147996815 -100.0000000014799468 0.4999985261159312633 0.8660262547301300629 3.916300570649442728e-10 I I #
coedge $-1 $109 $110 $45 $75 1 $111 $-1 #
edge $-1 $56 $76 $74 $112 forward #
vertex $-1 $113 $114 #
straight-curve $-1 -3.720920000000000005 31.49999999408008478 -10.00000000086331831 0 8.222096583748244544e-11 -1 I I #
point $-1 -3.720920000000000005 31.5000000014799717 -100.0000000016854926 #
coedge $-1 $115 $49 $116 $86 1 $81 $-1 #
coedge $-1 $49 $115 $109 $88 0 $81 $-1 #
loop $-1 $-1 $49 $95 #
straight-curve $-1 -2.277549999999999741 28.99999999408008122 -10.00000000291884028 -0.999999999999999889 0 0 I I #
coedge $-1 $52 $51 $99 $117 1 $53 $-1 #
coedge $-1 $118 $116 $52 $85 1 $96 $-1 #
edge $-1 $119 $54 $84 $120 forward #
edge $-1 $121 $54 $79 $122 forward #
point $-1 0.6092099999999999183 28.99999999408008478 -10.00000000106887121 #
edge $-1 $123 $56 $109 $124 forward #
point $-1 -2.277549999999999741 28.99999999408008478 -10.00000000106887121 #
edge $-1 $102 $91 $65 $125 forward #
vertex $-1 $117 $126 #
straight-curve $-1 0.6092099999999999183 29.0000000014799717 -100.0000000037410217 -0.4999985261159312633 -0.8660262547301300629 -3.916300570649442728e-10 I I #
face $-1 $-1 $127 $3 $-1 $128 reversed single #
plane-surface $-1 0 33.99999999999999289 -100.0000000014799468 0 8.222096583748244544e-11 -1 -1 0 0 forward_v I I I I #
face $-1 $129 $81 $3 $-1 $130 reversed single #
loop $-1 $-1 $84 $63 #
cone-surface $-1 1.330894999999999939 23.99999999999999289 -10.00000000147997525 -1 0 0 0 0 6.249999994080092769 1 I I -0.8660262547301302849 0.4999985261159313743 forward I I I I #
coedge $-1 $131 $65 $67 $101 1 $38 $-1 #
coedge $-1 $65 $131 $83 $117 0 $38 $-1 #
coedge $-1 $67 $66 $132 $133 0 $21 $-1 #
edge $-1 $134 $102 $98 $135 forward #
vertex $-1 $101 $136 #
straight-curve $-1 0.6092099999999999183 34.00000000147996815 -100.0000000014799468 0.999999999999999889 0 0 I I #
coedge $-1 $137 $138 $70 $105 1 $139 $-1 #
edge $-1 $76 $106 $104 $140 forward #
vertex $-1 $141 $142 #
straight-curve $-1 -2.277549999999999741 33.99999999408008478 -10.00000000065776717 0 8.222096583748244544e-11 -1 I I #
point $-1 -2.277549999999999741 34.00000000147996815 -100.0000000014799468 #
coedge $-1 $143 $74 $80 $88 1 $111 $-1 #
coedge $-1 $74 $143 $137 $113 0 $111 $-1 #
loop $-1 $-1 $74 $129 #
straight-curve $-1 -3.720920000000000005 31.49999999408008122 -10.00000000178830284 -0.4999985261159312633 0.8660262547301300629 3.916300570649442728e-10 I I #
edge $-1 $144 $76 $137 $145 forward #
point $-1 -3.720920000000000005 31.49999999408008478 -10.00000000086331831 #
coedge $-1 $80 $79 $146 $147 0 $81 $-1 #
coedge $-1 $84 $148 $79 $86 0 $96 $-1 #
edge $-1 $119 $91 $83 $149 forward #
coedge $-1 $148 $84 $150 $151 1 $96 $-1 #
vertex $-1 $151 $152 #
straight-curve $-1 0.6092099999999999183 28.99999999408008122 -10.00000000291884028 -0.4999985261159312633 -0.8660262547301300629 -3.916300570649442728e-10 I I #
vertex $-1 $153 $154 #
ellipse-curve $-1 0.6092099999999999183 23.99999999999999289 -10.00000000147997525 -1 0 0 0 0 4.999999994080092769 1 F 3.699945243458017508e-10 F 1.570796326712675883 #
vertex $-1 $155 $156 #
ellipse-curve $-1 -2.277549999999999741 23.99999999999999289 -10.00000000147997525 -1 0 0 0 0 4.999999994080092769 1 F 3.699945243458017508e-10 F 1.570796326712675883 #
straight-curve $-1 2.052579999999999849 31.5000000014799717 -100.0000000026104914 0.4999985261159312633 -0.8660262547301300629 -3.916300570649442728e-10 I I #
point $-1 2.052579999999999849 31.5000000014799717 -100.0000000016854926 #
loop $-1 $-1 $157 $93 #
plane-surface $-1 -0.834169999999999856 3.999999999999999556 -2.499999999999999556 0 1 0 -0.999999999999999889 0 0 forward_v I I I I #
face $-1 $158 $111 $3 $-1 $159 reversed single #
cone-surface $-1 -0.834169999999999856 23.99999999999999289 -10.00000000147997525 -1 0 0 0 0 4.999999994080092769 1 I I 0 1 forward I I I I #
coedge $-1 $99 $98 $160 $161 0 $38 $-1 #
coedge $-1 $162 $163 $100 $133 1 $164 $-1 #
edge $-1 $106 $134 $132 $165 forward #
vertex $-1 $166 $167 #
straight-curve $-1 0.6092099999999999183 33.99999999408008478 -10.00000000065776717 0 8.222096583748244544e-11 -1 I I #
point $-1 0.6092099999999999183 34.00000000147996815 -100.0000000014799468 #
coedge $-1 $168 $104 $110 $113 1 $139 $-1 #
coedge $-1 $104 $168 $162 $141 0 $139 $-1 #
loop $-1 $-1 $104 $158 #
straight-curve $-1 -2.277549999999999741 33.99999999408007767 -10.0000000006577654 0.4999985261159312633 0.8660262547301300629 3.916300570649442728e-10 I I #
edge $-1 $169 $106 $162 $170 forward #
point $-1 -2.277549999999999741 33.99999999408008478 -10.00000000065776717 #
coedge $-1 $110 $109 $171 $172 0 $111 $-1 #
vertex $-1 $173 $174 #
ellipse-curve $-1 -3.720920000000000005 23.99999999999999289 -10.00000000147997525 -1 0 0 0 0 7.499999994080091881 1 F 3.69994287352200819e-10 F 1.570796326712675661 #
coedge $-1 $175 $176 $115 $147 1 $177 $-1 #
edge $-1 $121 $123 $146 $178 forward #
coedge $-1 $116 $118 $179 $180 0 $96 $-1 #
straight-curve $-1 2.052579999999999849 31.49999999408008478 -10.00000000086331831 0 8.222096583748244544e-11 -1 I I #
coedge $-1 $160 $181 $118 $151 0 $182 $-1 #
edge $-1 $183 $119 $118 $184 forward #
point $-1 2.052579999999999849 31.49999999408008478 -10.00000000086331831 #
edge $-1 $185 $121 $175 $186 forward #
point $-1 0.6092099999999999183 24.00000000184996551 -5.000000007399882485 #
edge $-1 $187 $123 $188 $189 forward #
point $-1 -2.277549999999999741 24.00000000184996551 -5.000000007399882485 #
coedge $-1 $190 $191 $192 $193 0 $127 $-1 #
face $-1 $194 $139 $3 $-1 $195 reversed single #
cone-surface $-1 -2.999234999999999651 23.99999999999999289 -10.00000000147997525 -1 0 0 0 0 6.249999994080092769 1 I I 0.8660262547301302849 0.4999985261159313743 forward I I I I #
coedge $-1 $196 $150 $131 $161 1 $182 $-1 #
edge $-1 $134 $119 $160 $197 forward #
coedge $-1 $198 $132 $138 $141 1 $164 $-1 #
coedge $-1 $132 $198 $196 $166 0 $164 $-1 #
loop $-1 $-1 $132 $194 #
straight-curve $-1 0.6092099999999999183 33.99999999408007767 -10.0000000006577654 0.999999999999999889 0 0 I I #
edge $-1 $199 $134 $196 $200 forward #
point $-1 0.6092099999999999183 33.99999999408008478 -10.00000000065776717 #
coedge $-1 $138 $137 $201 $202 0 $139 $-1 #
vertex $-1 $203 $204 #
ellipse-curve $-1 -2.277549999999999741 23.99999999999999289 -10.00000000147997525 -1 0 0 0 0 9.999999994080091881 1 F 3.699941688554004047e-10 F 1.570796326712675883 #
coedge $-1 $188 $205 $143 $172 1 $206 $-1 #
edge $-1 $123 $144 $171 $207 forward #
edge $-1 $208 $144 $209 $210 forward #
point $-1 -3.720920000000000005 24.00000000277495005 -2.500000007399882929 #
coedge $-1 $211 $146 $212 $153 1 $177 $-1 #
coedge $-1 $146 $211 $188 $155 0 $177 $-1 #
loop $-1 $-1 $146 $213 #
straight-curve $-1 -2.277549999999999741 24.00000000369993458 -5.000000007399882485 -0.999999999999999889 0 0 I I #
coedge $-1 $214 $212 $148 $180 1 $215 $-1 #
edge $-1 $183 $121 $179 $216 forward #
coedge $-1 $150 $196 $217 $218 0 $182 $-1 #
loop $-1 $-1 $160 $219 #
vertex $-1 $220 $221 #
ellipse-curve $-1 2.052579999999999849 23.99999999999999289 -10.00000000147997525 -1 0 0 0 0 7.499999994080091881 1 F 3.69994287352200819e-10 F 1.570796326712675661 #
vertex $-1 $222 $223 #
straight-curve $-1 0.6092099999999999183 3.999999999999999556 -4.999999999999999112 0 1 -3.699941685679193663e-10 I I #
vertex $-1 $224 $225 #
coedge $-1 $226 $171 $176 $155 1 $206 $-1 #
straight-curve $-1 -2.277549999999999741 3.999999999999999556 -4.999999999999999112 0 1 -3.699941685679193663e-10 I I #
coedge $-1 $227 $157 $228 $229 0 $127 $-1 #
coedge $-1 $157 $230 $231 $232 0 $127 $-1 #
coedge $-1 $233 $234 $157 $193 1 $235 $-1 #
edge $-1 $236 $237 $192 $238 forward #
face $-1 $219 $164 $3 $-1 $239 reversed single #
cone-surface $-1 -2.999234999999999651 23.99999999999999289 -10.00000000147997525 -1 0 0 0 0 8.749999994080091881 1 I I 0.8660262547301302849 -0.4999985261159313743 forward I I I I #
coedge $-1 $181 $160 $163 $166 1 $182 $-1 #
straight-curve $-1 2.052579999999999849 31.49999999408008122 -10.00000000178830284 0.4999985261159312633 -0.8660262547301300629 -3.916300570649442728e-10 I I #
coedge $-1 $163 $162 $240 $241 0 $164 $-1 #
vertex $-1 $242 $243 #
ellipse-curve $-1 0.6092099999999999183 23.99999999999999289 -10.00000000147997525 -1 0 0 0 0 9.999999994080091881 1 F 3.699941688554004047e-10 F 1.570796326712675883 #
coedge $-1 $209 $244 $168 $202 1 $245 $-1 #
edge $-1 $144 $169 $201 $246 forward #
edge $-1 $237 $169 $234 $247 forward #
point $-1 -2.277549999999999741 24.00000000369993458 -7.399883372727341668e-09 #
coedge $-1 $171 $226 $209 $173 0 $206 $-1 #
loop $-1 $-1 $171 $248 #
straight-curve $-1 -3.720920000000000005 24.00000000369993458 -2.500000007399882929 -0.4999985261159312633 0 0.8660262547301300629 I I #
vertex $-1 $229 $249 #
coedge $-1 $228 $201 $205 $173 1 $245 $-1 #
straight-curve $-1 -3.720920000000000005 3.999999999999999556 -2.499999999999999556 0 1 -3.699941685679193663e-10 I I #
coedge $-1 $176 $175 $250 $222 1 $177 $-1 #
coedge $-1 $179 $251 $175 $153 0 $215 $-1 #
face $-1 $248 $177 $3 $-1 $252 reversed single #
coedge $-1 $251 $179 $253 $220 1 $215 $-1 #
loop $-1 $-1 $179 $254 #
straight-curve $-1 0.6092099999999999183 24.00000000369993458 -5.000000007399882485 -0.4999985261159312633 0 -0.8660262547301300629 I I #
coedge $-1 $255 $253 $181 $218 1 $256 $-1 #
edge $-1 $199 $183 $217 $257 forward #
face $-1 $258 $182 $3 $-1 $259 reversed single #
edge $-1 $260 $183 $214 $261 forward #
point $-1 2.052579999999999849 24.00000000277495005 -2.500000007399882929 #
edge $-1 $187 $185 $211 $262 forward #
point $-1 0.6092099999999999183 3.999999999999999556 -4.999999999999999112 #
edge $-1 $208 $187 $226 $263 forward #
point $-1 -2.277549999999999741 3.999999999999999556 -4.999999999999999112 #
coedge $-1 $205 $188 $227 $224 1 $206 $-1 #
coedge $-1 $250 $190 $226 $224 0 $127 $-1 #
coedge $-1 $244 $209 $190 $229 1 $245 $-1 #
edge $-1 $237 $208 $228 $264 forward #
coedge $-1 $191 $250 $251 $265 0 $127 $-1 #
coedge $-1 $253 $255 $191 $232 1 $256 $-1 #
edge $-1 $260 $236 $231 $266 forward #
coedge $-1 $240 $192 $255 $242 0 $235 $-1 #
coedge $-1 $192 $240 $244 $203 1 $235 $-1 #
loop $-1 $-1 $240 $267 #
vertex $-1 $193 $268 #
vertex $-1 $193 $269 #
straight-curve $-1 0.6092099999999999183 3.999999999999999556 0 -0.999999999999999889 0 0 I I #
cone-surface $-1 -0.834169999999999856 23.99999999999999289 -10.00000000147997525 -1 0 0 0 0 9.999999994080091881 1 I I 0 -1 forward I I I I #
coedge $-1 $234 $233 $198 $241 1 $235 $-1 #
edge $-1 $169 $199 $240 $270 forward #
edge $-1 $236 $199 $255 $271 forward #
point $-1 0.6092099999999999183 24.00000000369993458 -7.399883372727341668e-09 #
coedge $-1 $201 $228 $234 $203 0 $245 $-1 #
loop $-1 $-1 $201 $272 #
straight-curve $-1 -2.277549999999999741 24.00000000369993458 -7.399883372727343322e-09 0.4999985261159312633 0 0.8660262547301300629 I I #
straight-curve $-1 -2.277549999999999741 3.999999999999999556 0 0 1 -3.699941685679193663e-10 I I #
face $-1 $272 $206 $3 $-1 $273 reversed single #
point $-1 -3.720920000000000005 3.999999999999999556 -2.499999999999999556 #
coedge $-1 $230 $227 $211 $222 0 $127 $-1 #
coedge $-1 $212 $214 $230 $265 1 $215 $-1 #
plane-surface $-1 0.6092099999999999183 3.999999999999999556 -4.999999999999999112 0 3.699941685679193663e-10 1 1 0 0 forward_v I I I I #
coedge $-1 $217 $231 $214 $220 0 $256 $-1 #
face $-1 $213 $215 $3 $-1 $274 reversed single #
coedge $-1 $231 $217 $233 $242 1 $256 $-1 #
loop $-1 $-1 $217 $258 #
straight-curve $-1 2.052579999999999849 24.00000000369993458 -2.500000007399882929 0.4999985261159312633 0 -0.8660262547301300629 I I #
face $-1 $254 $256 $3 $-1 $275 reversed single #
cone-surface $-1 1.330894999999999939 23.99999999999999289 -10.00000000147997525 -1 0 0 0 0 8.749999994080091881 1 I I -0.8660262547301302849 -0.4999985261159313743 forward I I I I #
vertex $-1 $265 $276 #
straight-curve $-1 2.052579999999999849 3.999999999999999556 -2.499999999999999556 0 1 -3.699941685679193663e-10 I I #
straight-curve $-1 -2.277549999999999741 3.999999999999999556 -4.999999999999999112 0.999999999999999889 0 0 I I #
straight-curve $-1 -3.720920000000000005 3.999999999999999556 -2.499999999999999556 0.4999985261159312633 0 -0.8660262547301300629 I I #
straight-curve $-1 -2.277549999999999741 3.999999999999999556 0 -0.4999985261159312633 0 -0.8660262547301300629 I I #
edge $-1 $185 $260 $251 $277 forward #
straight-curve $-1 2.052579999999999849 3.999999999999999556 -2.499999999999999556 -0.4999985261159312633 0 0.8660262547301300629 I I #
face $-1 $60 $235 $3 $-1 $278 reversed single #
point $-1 0.6092099999999999183 3.999999999999999556 0 #
point $-1 -2.277549999999999741 3.999999999999999556 0 #
straight-curve $-1 0.6092099999999999183 24.00000000369993458 -7.399883372727343322e-09 0.999999999999999889 0 0 I I #
straight-curve $-1 0.6092099999999999183 3.999999999999999556 0 0 1 -3.699941685679193663e-10 I I #
face $-1 $267 $245 $3 $-1 $279 reversed single #
plane-surface $-1 -2.277549999999999741 3.999999999999999556 -4.999999999999999112 0.8660262547301302849 1.849965389554491442e-10 0.4999985261159313743 0.4999985261159313743 0 -0.8660262547301302849 forward_v I I I I #
plane-surface $-1 2.052579999999999849 3.999999999999999556 -2.499999999999999556 -0.8660262547301302849 1.849965389554491442e-10 0.4999985261159313743 0.4999985261159313743 0 0.8660262547301302849 forward_v I I I I #
plane-surface $-1 0.6092099999999999183 3.999999999999999556 0 -0.8660262547301302849 -1.849965389554491442e-10 -0.4999985261159313743 -0.4999985261159313743 0 0.8660262547301302849 forward_v I I I I #
point $-1 2.052579999999999849 3.999999999999999556 -2.499999999999999556 #
straight-curve $-1 0.6092099999999999183 3.999999999999999556 -4.999999999999999112 0.4999985261159312633 0 0.8660262547301300629 I I #
plane-surface $-1 -2.277549999999999741 3.999999999999999556 0 0 -3.699941685679193663e-10 -1 -1 0 0 forward_v I I I I #
plane-surface $-1 -3.720920000000000005 3.999999999999999556 -2.499999999999999556 0.8660262547301302849 -1.849965389554491442e-10 -0.4999985261159313743 -0.4999985261159313743 0 -0.8660262547301302849 forward_v I I I I #
End-of-ACIS-data 