106 0 1 0           
body $-1 $1 $-1 $-1 #
lump $-1 $-1 $2 $0 #
shell $-1 $-1 $-1 $3 $1 #
face $-1 $4 $5 $2 $-1 $6 reversed single #
face $-1 $7 $8 $2 $-1 $9 reversed single #
loop $-1 $-1 $10 $3 #
plane-surface $-1 -5 -2.8868000000000014 0 -0.49999332992119139 -0.86602925472198611 0 0 0 -1 0 I I I I #
face $-1 $11 $12 $2 $-1 $13 reversed single #
loop $-1 $-1 $14 $4 #
plane-surface $-1 0 -5.7735000000000012 0 0.49999332992119139 -0.86602925472198611 0 0 0 -1 0 I I I I #
coedge $-1 $15 $16 $17 $18 1 $5 $-1 #
face $-1 $19 $20 $2 $-1 $21 reversed single #
loop $-1 $-1 $22 $7 #
plane-surface $-1 5 -2.8868000000000014 0 1 0 0 0 0 -1 0 I I I I #
coedge $-1 $23 $24 $25 $26 1 $8 $-1 #
coedge $-1 $27 $10 $28 $29 1 $5 $-1 #
coedge $-1 $10 $27 $23 $30 0 $5 $-1 #
coedge $-1 $25 $31 $10 $18 0 $32 $-1 #
edge $-1 $33 $34 $17 $35 0 #
face $-1 $36 $37 $2 $-1 $38 reversed single #
loop $-1 $-1 $39 $11 #
plane-surface $-1 5 2.8867999999999983 0 0.49999332992119161 0.866029254721986 0 0 0 1 0 I I I I #
coedge $-1 $40 $41 $42 $43 1 $12 $-1 #
coedge $-1 $44 $14 $16 $30 1 $8 $-1 #
coedge $-1 $14 $44 $40 $45 0 $8 $-1 #
coedge $-1 $42 $17 $14 $26 0 $32 $-1 #
edge $-1 $34 $46 $25 $47 0 #
coedge $-1 $16 $15 $48 $49 1 $5 $-1 #
coedge $-1 $50 $51 $15 $29 0 $52 $-1 #
edge $-1 $53 $33 $15 $54 0 #
edge $-1 $55 $34 $23 $56 0 #
coedge $-1 $17 $57 $50 $58 0 $32 $-1 #
loop $-1 $59 $60 $61 #
vertex $-1 $58 $62 #
vertex $-1 $18 $63 #
straight-curve $-1 8.1577550988634204 -10.483298328777806 -3 0.86602925472198611 -0.49999332992119139 0 I I #
face $-1 $64 $52 $2 $-1 $65 reversed single #
loop $-1 $-1 $66 $19 #
plane-surface $-1 0 5.7734999999999994 0 -0.49999332992119161 0.866029254721986 0 0 0 1 0 I I I I #
coedge $-1 $67 $68 $60 $69 1 $20 $-1 #
coedge $-1 $70 $22 $24 $45 1 $12 $-1 #
coedge $-1 $22 $70 $67 $71 0 $12 $-1 #
coedge $-1 $60 $25 $22 $43 0 $32 $-1 #
edge $-1 $46 $72 $42 $73 0 #
coedge $-1 $24 $23 $74 $75 1 $8 $-1 #
edge $-1 $76 $46 $40 $77 0 #
vertex $-1 $26 $78 #
straight-curve $-1 -10.65775509886342 -11.926648328777805 -3 0.86602925472198611 0.49999332992119139 0 I I #
coedge $-1 $79 $74 $27 $49 0 $80 $-1 #
edge $-1 $55 $53 $48 $81 0 #
coedge $-1 $82 $28 $31 $58 1 $52 $-1 #
coedge $-1 $28 $82 $79 $83 1 $52 $-1 #
loop $-1 $-1 $50 $36 #
vertex $-1 $83 $84 #
straight-curve $-1 -5 -2.8868000000000014 0 0 0 -1 I I #
vertex $-1 $49 $85 #
straight-curve $-1 0 -5.7735000000000012 0 0 0 -1 I I #
coedge $-1 $31 $60 $66 $86 0 $32 $-1 #
edge $-1 $87 $33 $31 $88 0 #
loop $-1 $-1 $89 $61 #
coedge $-1 $57 $42 $39 $69 0 $32 $-1 #
face $-1 $90 $32 $2 $-1 $91 reversed single #
point $-1 -5 -2.8868000000000014 -3 #
point $-1 0 -5.7735000000000012 -3 #
face $-1 $92 $93 $2 $-1 $94 reversed single #
plane-surface $-1 -5 2.8867999999999983 0 -1 0 0 0 0 1 0 I I I I #
coedge $-1 $95 $96 $57 $86 1 $37 $-1 #
coedge $-1 $97 $39 $41 $71 1 $20 $-1 #
coedge $-1 $39 $97 $95 $98 0 $20 $-1 #
edge $-1 $72 $99 $60 $100 0 #
coedge $-1 $41 $40 $101 $102 1 $12 $-1 #
edge $-1 $103 $72 $67 $104 0 #
vertex $-1 $69 $105 #
straight-curve $-1 5 -28.9434 -3 0 1 0 I I #
coedge $-1 $48 $101 $44 $75 0 $80 $-1 #
edge $-1 $76 $55 $74 $106 0 #
vertex $-1 $75 $107 #
straight-curve $-1 5 -2.8868000000000014 0 0 0 -1 I I #
point $-1 5 -2.8868000000000014 -3 #
coedge $-1 $108 $48 $51 $83 0 $80 $-1 #
loop $-1 $109 $110 $111 #
straight-curve $-1 8.1577550988634204 -10.483298328777806 0 -0.86602925472198611 0.49999332992119139 0 I I #
coedge $-1 $51 $50 $96 $112 1 $52 $-1 #
edge $-1 $53 $113 $79 $114 0 #
point $-1 -5 -2.8868000000000014 0 #
point $-1 0 -5.7735000000000012 0 #
edge $-1 $99 $87 $57 $115 0 #
vertex $-1 $86 $116 #
straight-curve $-1 -5 -26.0566 -3 0 -1 0 I I #
coedge $-1 $117 $118 $119 $120 0 $59 $-1 #
face $-1 $121 $122 $2 $-1 $123 forward single #
plane-surface $-1 8.8817841970012523e-016 -55 -3 0 0 1 0 -1 0 0 I I I I #
face $-1 $124 $125 $2 $-1 $126 reversed single #
loop $-1 $-1 $119 $64 #
plane-surface $-1 -5 -110 0 -1 0 0 0 0 1 0 I I I I #
coedge $-1 $127 $66 $68 $98 1 $37 $-1 #
coedge $-1 $66 $127 $82 $112 0 $37 $-1 #
coedge $-1 $68 $67 $110 $128 1 $20 $-1 #
edge $-1 $129 $99 $95 $130 0 #
vertex $-1 $69 $131 #
straight-curve $-1 15.657731699405327 -3.26633481933467 -3 -0.866029254721986 0.49999332992119161 0 I I #
coedge $-1 $74 $110 $70 $102 0 $80 $-1 #
edge $-1 $103 $76 $101 $132 0 #
vertex $-1 $128 $133 #
straight-curve $-1 5 2.8867999999999983 0 0 0 -1 I I #
point $-1 5 2.8867999999999983 -3 #
straight-curve $-1 -10.65775509886342 -11.926648328777805 0 -0.86602925472198611 -0.49999332992119139 0 I I #
point $-1 5 -2.8868000000000014 0 #
coedge $-1 $110 $79 $127 $134 0 $80 $-1 #
loop $-1 $-1 $135 $111 #
coedge $-1 $101 $108 $97 $128 0 $80 $-1 #
face $-1 $136 $80 $2 $-1 $137 forward single #
edge $-1 $113 $87 $82 $138 0 #
vertex $-1 $134 $139 #
straight-curve $-1 -5 -26.0566 0 0 1 0 I I #
straight-curve $-1 -13.157731699405325 -1.8229848193346747 -3 -0.866029254721986 -0.49999332992119161 0 I I #
point $-1 -5 2.8867999999999983 -3 #
coedge $-1 $140 $89 $141 $142 0 $59 $-1 #
coedge $-1 $89 $143 $144 $145 0 $59 $-1 #
coedge $-1 $146 $147 $89 $120 1 $93 $-1 #
edge $-1 $148 $149 $89 $150 0 #
face $-1 $151 $152 $2 $-1 $153 reversed single #
loop $-1 $-1 $154 $90 #
cone-surface $-1 0 0 -1.5 0 0 1 7.0710678118654746 7.0710678118654746 0 1 I I 0 1 0 I I I I #
face $-1 $111 $155 $2 $-1 $156 reversed single #
loop $-1 $-1 $157 $92 #
plane-surface $-1 5 -120 0 1 0 0 0 0 -1 0 I I I I #
coedge $-1 $96 $95 $108 $134 1 $37 $-1 #
edge $-1 $129 $103 $110 $158 0 #
vertex $-1 $128 $159 #
straight-curve $-1 0 5.7734999999999994 0 0 0 -1 I I #
point $-1 0 5.7734999999999994 -3 #
straight-curve $-1 5 -28.9434 0 0 -1 0 I I #
point $-1 5 2.8867999999999983 0 #
edge $-1 $113 $129 $108 $160 0 #
coedge $-1 $161 $162 $163 $164 0 $109 $-1 #
face $-1 $165 $166 $2 $-1 $167 forward single #
plane-surface $-1 8.8817841970012523e-016 -55 0 0 0 1 0 -1 0 0 I I I I #
straight-curve $-1 -5 2.8867999999999983 0 0 0 -1 I I #
point $-1 -5 2.8867999999999983 0 #
coedge $-1 $168 $117 $169 $170 0 $59 $-1 #
coedge $-1 $171 $172 $117 $142 1 $173 $-1 #
edge $-1 $149 $174 $117 $175 0 #
coedge $-1 $118 $176 $157 $177 0 $59 $-1 #
coedge $-1 $178 $179 $118 $145 1 $155 $-1 #
edge $-1 $180 $148 $118 $181 0 #
coedge $-1 $163 $119 $179 $182 1 $93 $-1 #
coedge $-1 $119 $163 $171 $183 1 $93 $-1 #
vertex $-1 $120 $184 #
vertex $-1 $142 $185 #
straight-curve $-1 -5 -82.5 -3 0 -1 0 I I #
face $-1 $-1 $186 $2 $-1 $187 reversed single #
loop $-1 $-1 $188 $121 #
plane-surface $-1 -4.9999999999999991 -55 -1.5 1 0 0 0 0 1 0 I I I I #
coedge $-1 $189 $190 $191 $192 1 $122 $-1 #
loop $-1 $-1 $144 $124 #
plane-surface $-1 5 -110 0 0 1 0 0 0 1 0 I I I I #
coedge $-1 $193 $194 $143 $177 1 $125 $-1 #
straight-curve $-1 15.657731699405327 -3.26633481933467 0 0.866029254721986 -0.49999332992119161 0 I I #
point $-1 0 5.7734999999999994 0 #
straight-curve $-1 -13.157731699405325 -1.8229848193346747 0 0.866029254721986 0.49999332992119161 0 I I #
coedge $-1 $195 $135 $196 $197 0 $109 $-1 #
coedge $-1 $135 $198 $199 $200 0 $109 $-1 #
coedge $-1 $147 $146 $135 $164 1 $93 $-1 #
edge $-1 $201 $202 $135 $203 0 #
face $-1 $61 $173 $2 $-1 $167 forward single #
loop $-1 $-1 $204 $136 #
cone-surface $-1 0 -110 -1.5 0 0 1 10 0 0 1 I I 0 1 0 I I I I #
coedge $-1 $205 $140 $190 $206 0 $59 $-1 #
coedge $-1 $188 $191 $140 $170 1 $152 $-1 #
edge $-1 $174 $207 $169 $208 0 #
coedge $-1 $199 $141 $147 $183 0 $173 $-1 #
coedge $-1 $141 $199 $188 $209 1 $173 $-1 #
loop $-1 $-1 $171 $165 #
vertex $-1 $170 $210 #
ellipse-curve $-1 0 -110 -3 0 0 -1 10 0 0 1 I I #
coedge $-1 $143 $205 $211 $212 0 $59 $-1 #
edge $-1 $213 $180 $143 $214 0 #
coedge $-1 $196 $144 $194 $215 1 $155 $-1 #
coedge $-1 $144 $196 $146 $182 0 $155 $-1 #
vertex $-1 $177 $216 #
straight-curve $-1 2.5000000000000004 -110 -3 -1 0 0 I I #
edge $-1 $202 $148 $146 $217 0 #
edge $-1 $149 $201 $171 $218 0 #
point $-1 -5 -110 -3 #
point $-1 -5 -118.66025403784438 -3 #
loop $-1 $-1 $219 $151 #
plane-surface $-1 5.0000000000000009 -55 -1.5 -1 0 0 0 0 -1 0 I I I I #
coedge $-1 $220 $169 $172 $209 0 $152 $-1 #
coedge $-1 $221 $154 $222 $223 1 $122 $-1 #
coedge $-1 $154 $221 $168 $206 1 $122 $-1 #
coedge $-1 $169 $220 $154 $192 0 $152 $-1 #
edge $-1 $224 $207 $191 $225 0 #
coedge $-1 $226 $157 $204 $227 1 $125 $-1 #
coedge $-1 $157 $226 $178 $215 0 $125 $-1 #
coedge $-1 $228 $161 $226 $229 0 $109 $-1 #
coedge $-1 $179 $178 $161 $197 1 $155 $-1 #
edge $-1 $202 $230 $161 $231 0 #
coedge $-1 $162 $222 $220 $232 0 $109 $-1 #
coedge $-1 $172 $171 $162 $200 1 $173 $-1 #
edge $-1 $233 $201 $162 $234 0 #
vertex $-1 $183 $235 #
vertex $-1 $164 $236 #
straight-curve $-1 -5 -82.5 0 0 1 0 I I #
coedge $-1 $211 $237 $193 $227 0 $166 $-1 #
coedge $-1 $176 $168 $238 $239 0 $59 $-1 #
edge $-1 $207 $240 $168 $241 0 #
vertex $-1 $206 $242 #
straight-curve $-1 -4.9999999999999991 -55 -3 0 1 0 I I #
edge $-1 $174 $233 $188 $243 0 #
point $-1 -4.9999999999999991 -101.3397459621556 -3 #
coedge $-1 $244 $204 $176 $212 1 $166 $-1 #
edge $-1 $245 $213 $176 $175 0 #
vertex $-1 $227 $246 #
straight-curve $-1 5 -87.5 -3 0 1 0 I I #
edge $-1 $230 $180 $178 $247 0 #
point $-1 5 -110 -3 #
straight-curve $-1 -5 -110 0 0 0 -1 I I #
straight-curve $-1 -5 -118.66025403784438 -1.5 0 0 1 I I #
coedge $-1 $238 $248 $244 $249 0 $186 $-1 #
coedge $-1 $191 $188 $198 $232 1 $152 $-1 #
coedge $-1 $190 $189 $250 $251 1 $122 $-1 #
coedge $-1 $198 $252 $189 $223 0 $109 $-1 #
edge $-1 $253 $224 $222 $254 0 #
vertex $-1 $232 $255 #
straight-curve $-1 -4.9999999999999991 -8.6602540378443891 -1.5 0 0 -1 I I #
coedge $-1 $194 $193 $195 $229 1 $125 $-1 #
edge $-1 $256 $213 $204 $257 0 #
coedge $-1 $252 $195 $237 $258 0 $109 $-1 #
edge $-1 $230 $256 $195 $259 0 #
vertex $-1 $229 $260 #
straight-curve $-1 2.5000000000000004 -110 0 1 0 0 I I #
edge $-1 $224 $233 $220 $261 0 #
vertex $-1 $200 $262 #
ellipse-curve $-1 0 -110 0 0 0 1 10 0 0 1 I I #
point $-1 -5 -118.66025403784438 0 #
point $-1 -5 -110 0 #
coedge $-1 $204 $244 $228 $258 1 $166 $-1 #
coedge $-1 $250 $219 $205 $239 1 $186 $-1 #
edge $-1 $240 $245 $238 $263 0 #
vertex $-1 $239 $264 #
ellipse-curve $-1 0 0 -3 0 0 -1 7.0710678118654746 7.0710678118654746 0 1 I I #
point $-1 -4.9999999999999991 -8.6602540378443891 -3 #
straight-curve $-1 -4.9999999999999991 -101.3397459621556 -1.5 0 0 1 I I #
coedge $-1 $237 $211 $219 $249 1 $166 $-1 #
vertex $-1 $212 $265 #
point $-1 5 -118.66025403784438 -3 #
straight-curve $-1 5 -110 0 0 0 -1 I I #
coedge $-1 $219 $250 $252 $266 1 $186 $-1 #
edge $-1 $267 $245 $219 $268 0 #
coedge $-1 $248 $238 $221 $251 0 $186 $-1 #
edge $-1 $240 $253 $250 $269 0 #
coedge $-1 $222 $228 $248 $266 0 $109 $-1 #
vertex $-1 $223 $270 #
ellipse-curve $-1 0 0 -2.2204460492503131e-016 0 0 1 7.0710678118654746 7.0710678118654746 0 1 I I #
point $-1 -4.9999999999999991 -8.6602540378443891 0 #
vertex $-1 $258 $271 #
straight-curve $-1 5 -118.66025403784438 -1.5 0 0 -1 I I #
edge $-1 $256 $267 $228 $234 0 #
straight-curve $-1 5 -87.5 0 0 -1 0 I I #
point $-1 5 -110 0 #
straight-curve $-1 -4.9999999999999991 -55 0 0 -1 0 I I #
point $-1 -4.9999999999999991 -101.3397459621556 0 #
straight-curve $-1 5.0000000000000009 -55 -3 0 -1 0 I I #
point $-1 5.0000000000000009 -8.660254037844382 -3 #
point $-1 5.0000000000000009 -101.33974596215562 -3 #
edge $-1 $267 $253 $248 $272 0 #
vertex $-1 $266 $273 #
straight-curve $-1 5.0000000000000009 -101.33974596215562 -1.5 0 0 -1 I I #
straight-curve $-1 5.0000000000000009 -8.660254037844382 -1.5 0 0 1 I I #
point $-1 5.0000000000000009 -8.660254037844382 0 #
point $-1 5 -118.66025403784438 0 #
straight-curve $-1 5.0000000000000009 -55 0 0 1 0 I I #
point $-1 5.0000000000000009 -101.33974596215562 0 #
End-of-ACIS-data 