600 0 1 0           
86 GICL ACIS Healer - Source: /gicl/data5/repository/CMU/Tools/3mm_allen_wrench.sat - 6 0 18 ACIS 6.0.3 Solaris 24 Sat Apr 13 00:32:01 2002 
1 9.999999999999999547e-07 1.000000000000000036e-10 
body $-1 $1 $-1 $-1 #
lump $-1 $-1 $2 $0 #
shell $-1 $-1 $-1 $3 $-1 $1 #
face $-1 $4 $5 $2 $-1 $6 reversed single #
face $-1 $7 $8 $2 $-1 $9 reversed single #
loop $-1 $-1 $10 $3 #
plane-surface $-1 -0.7475800000000002443 22.29484999704004622 -4.999999999856577837 0 1 0 0 0 1.000000000000000222 forward_v I I I I #
face $-1 $11 $12 $2 $-1 $13 reversed single #
loop $-1 $-1 $14 $4 #
plane-surface $-1 -2.479640000000000732 22.29484999704004622 -4.999999999856577837 0.8660267547294947521 0.4999976600872244603 1.358647667887789156e-16 6.282856065591561991e-12 -1.088202209426502728e-11 -1.000000000000000222 forward_v I I I I #
coedge $-1 $15 $16 $17 $18 reversed $5 $-1 #
face $-1 $19 $20 $2 $-1 $21 reversed single #
loop $-1 $-1 $22 $7 #
plane-surface $-1 -3.345660000000000522 23.79484999704004622 -4.999999999791284289 0.8660267547294946411 -0.4999976600872245158 8.617983812655886971e-17 -6.282663769022964517e-12 -1.088213311604792666e-11 -1.000000000000000222 forward_v I I I I #
coedge $-1 $23 $24 $25 $26 reversed $8 $-1 #
coedge $-1 $27 $10 $28 $29 reversed $5 $-1 #
coedge $-1 $10 $27 $23 $30 forward $5 $-1 #
coedge $-1 $25 $31 $10 $18 forward $32 $-1 #
edge $-1 $33 0.3737899999999914624 $34 2.105849999999986899 $10 $35 forward 7 unknown #
face $-1 $36 $37 $2 $-1 $38 reversed single #
loop $-1 $-1 $39 $11 #
plane-surface $-1 -2.479640000000000732 25.29484999704004622 -4.99999999972599074 0 -1 0 0 0 -1.000000000000000222 forward_v I I I I #
coedge $-1 $40 $41 $42 $43 reversed $12 $-1 #
coedge $-1 $44 $14 $16 $30 reversed $8 $-1 #
coedge $-1 $14 $44 $40 $45 forward $8 $-1 #
coedge $-1 $42 $17 $14 $26 forward $32 $-1 #
edge $-1 $34 -0.1184456627658646566 $46 1.61360244291711985 $14 $47 forward 7 unknown #
coedge $-1 $16 $15 $48 $49 forward $5 $-1 #
coedge $-1 $50 $51 $15 $29 forward $52 $-1 #
edge $-1 $53 1.760689372076740256e-10 $33 85.00000000017605828 $15 $54 reversed 7 unknown #
edge $-1 $55 1.434212748563368223e-10 $34 85.00000000014340173 $23 $56 reversed 7 unknown #
coedge $-1 $17 $57 $50 $58 forward $32 $-1 #
loop $-1 $-1 $17 $59 #
vertex $-1 $29 $60 #
vertex $-1 $30 $61 #
straight-curve $-1 -0.3737900000000002332 22.29484999704004622 -89.99999999999998579 -1 0 0 I I #
face $-1 $62 $52 $2 $-1 $63 reversed single #
loop $-1 $-1 $64 $19 #
plane-surface $-1 -0.7475800000000002443 25.29484999704004622 -4.99999999972599074 -0.8660267547294947521 -0.4999976600872244603 -1.358647667920100898e-16 -6.282856065591571684e-12 1.088202209426503859e-11 1.000000000000000222 forward_v I I I I #
coedge $-1 $65 $66 $67 $68 reversed $20 $-1 #
coedge $-1 $69 $22 $24 $45 reversed $12 $-1 #
coedge $-1 $22 $69 $65 $70 forward $12 $-1 #
coedge $-1 $67 $25 $22 $43 forward $32 $-1 #
edge $-1 $46 -0.925243781371779539 $71 0.8068043243111960861 $22 $72 forward 7 unknown #
coedge $-1 $24 $23 $73 $74 forward $8 $-1 #
edge $-1 $75 1.760698253860937257e-10 $46 85.00000000017605828 $40 $76 reversed 7 unknown #
vertex $-1 $45 $77 #
straight-curve $-1 -2.538862554230399304 22.39742710997695241 -89.99999999999998579 -0.4999976600872244603 0.8660267547294947521 0 I I #
coedge $-1 $78 $79 $27 $49 reversed $80 $-1 #
edge $-1 $53 -0.8660300000000004106 $55 0.8660299999999996334 $48 $81 forward 7 unknown #
coedge $-1 $82 $28 $31 $58 reversed $52 $-1 #
coedge $-1 $28 $82 $83 $84 forward $52 $-1 #
loop $-1 $-1 $50 $36 #
vertex $-1 $85 $86 #
straight-curve $-1 -0.7475800000000001333 22.29484999704004622 -4.999999999823931063 -9.951175025011476619e-17 0 1 I I #
vertex $-1 $87 $88 #
straight-curve $-1 -2.479640000000000732 22.29484999704004622 -4.999999999856577837 -1.568828746303762373e-16 0 1 I I #
coedge $-1 $31 $67 $64 $89 forward $32 $-1 #
edge $-1 $90 0.05922283421770140055 $33 1.791270939900686088 $50 $91 forward 7 unknown #
face $-1 $92 $32 $2 $-1 $93 forward single #
point $-1 -0.7475799999999916956 22.29484999704004622 -89.99999999999998579 #
point $-1 -2.479639999999986966 22.29484999704004622 -89.99999999999998579 #
face $-1 $94 $95 $2 $-1 $96 reversed single #
plane-surface $-1 0.1184399999999997954 23.79484999704004622 -4.999999999791284289 -0.8660267547294946411 0.4999976600872245158 -8.617983812655886971e-17 6.282663769022964517e-12 1.088213311604792828e-11 1.000000000000000222 forward_v I I I I #
coedge $-1 $97 $98 $57 $89 reversed $37 $-1 #
coedge $-1 $99 $39 $41 $70 reversed $20 $-1 #
coedge $-1 $39 $99 $97 $100 forward $20 $-1 #
coedge $-1 $57 $42 $39 $68 forward $32 $-1 #
edge $-1 $71 -1.239819999999991929 $101 0.4922400000000134446 $39 $102 forward 7 unknown #
coedge $-1 $41 $40 $103 $104 forward $12 $-1 #
edge $-1 $105 1.683373440641844354e-10 $71 85.00000000024134295 $65 $106 reversed 7 unknown #
vertex $-1 $70 $107 #
straight-curve $-1 -2.883040274303844352 24.59613586635509819 -89.99999999999998579 0.4999976600872245158 0.8660267547294946411 0 I I #
coedge $-1 $108 $109 $44 $74 reversed $110 $-1 #
edge $-1 $55 -0.8660240528414930861 $75 0.8660240528414868688 $73 $111 forward 7 unknown #
vertex $-1 $112 $113 #
straight-curve $-1 -3.345660000000000522 23.79484999704004622 -4.999999999823931063 -1.281973124402454956e-16 -4.968516118010682106e-17 1 I I #
point $-1 -3.34565999999998942 23.79484999704004977 -89.99999999999998579 #
coedge $-1 $114 $48 $115 $85 reversed $80 $-1 #
coedge $-1 $48 $114 $108 $87 forward $80 $-1 #
loop $-1 $-1 $48 $94 #
straight-curve $-1 -1.613610000000000655 22.29484999704004622 -5 -1 0 0 I I #
coedge $-1 $51 $50 $98 $116 reversed $52 $-1 #
coedge $-1 $117 $115 $51 $84 reversed $95 $-1 #
edge $-1 $118 -0.8660240528414906436 $53 0.8660240528414893113 $83 $119 forward 7 unknown #
edge $-1 $120 1.947331557594709435e-10 $53 1.570796326794896558 $78 $121 reversed 7 unknown #
point $-1 -0.7475800000000002443 22.29484999704004267 -5 #
edge $-1 $122 -0 $55 1.570796326794896336 $108 $123 reversed 7 unknown #
point $-1 -2.479640000000000288 22.29484999704004267 -4.999999999999999112 #
edge $-1 $101 -0.747581495763040671 $90 0.9844666099199355092 $64 $124 forward 7 unknown #
vertex $-1 $116 $125 #
straight-curve $-1 0.1480512785325957537 23.84613855596348841 -89.99999999999998579 -0.4999976600872245158 -0.8660267547294946411 -0 I I #
face $-1 $-1 $126 $2 $-1 $127 reversed single #
plane-surface $-1 -2.220446049250313081e-16 24 -89.99999999999998579 0 0 -1 -1.000000000000000222 0 0 forward_v I I I I #
face $-1 $128 $80 $2 $-1 $129 reversed single #
loop $-1 $-1 $83 $62 #
cone-surface $-1 -0.3145700000000002383 18.99999999999999645 -5 -1 0 0 0 0 4.044849997040047107 1 I I -0.8660267547294946411 0.4999976600872245713 4.044849997040047107 forward I I I I #
coedge $-1 $130 $64 $66 $100 reversed $37 $-1 #
coedge $-1 $64 $130 $82 $116 forward $37 $-1 #
coedge $-1 $66 $65 $131 $132 forward $20 $-1 #
edge $-1 $133 2.740065951911674347e-10 $101 85.00000000027398528 $97 $134 reversed 7 unknown #
vertex $-1 $100 $135 #
straight-curve $-1 -1.239820000000000366 25.29484999704004622 -89.99999999999998579 1 0 0 I I #
coedge $-1 $136 $137 $69 $104 reversed $138 $-1 #
edge $-1 $75 -0.8660240528414892003 $105 0.8660240528414943073 $103 $139 forward 7 unknown #
vertex $-1 $140 $141 #
straight-curve $-1 -2.479640000000000732 25.29484999704004622 -4.999999999758637514 -9.951175025011476619e-17 0 1 I I #
point $-1 -2.479639999999992295 25.29484999704004622 -89.99999999999998579 #
coedge $-1 $142 $73 $79 $87 reversed $110 $-1 #
coedge $-1 $73 $142 $136 $112 forward $110 $-1 #
loop $-1 $-1 $73 $128 #
straight-curve $-1 -2.912650000000000183 23.04484999704004622 -4.999999999999999112 -0.4999976600872243493 0.8660267547294946411 1.901643509639535612e-16 I I #
edge $-1 $143 7.4094365376439602e-16 $75 1.570796326794897002 $136 $144 reversed 7 unknown #
point $-1 -3.345660000000000078 23.79484999704004267 -5.000000000000000888 #
coedge $-1 $79 $78 $145 $146 forward $80 $-1 #
coedge $-1 $83 $147 $78 $85 forward $95 $-1 #
edge $-1 $118 2.41363373731928732e-10 $90 85.00000000024134295 $82 $148 reversed 7 unknown #
coedge $-1 $147 $83 $149 $150 reversed $95 $-1 #
vertex $-1 $150 $151 #
straight-curve $-1 -0.3145700000000015706 23.04484999704004267 -5.000000000000000888 -0.4999976600872245713 -0.8660267547294945301 1.901643509639536845e-16 I I #
vertex $-1 $152 $153 #
ellipse-curve $-1 -0.7475800000000002443 18.99999999999999645 -5 1 -0 -0 0 0 3.294849997040047107 1 I I #
vertex $-1 $154 $155 #
ellipse-curve $-1 -2.479640000000000288 18.99999999999999645 -5 1 -0 -0 0 0 3.294849997040047107 1 I I #
straight-curve $-1 -0.3737910013939594323 24.64742442036855863 -89.99999999999997158 0.4999976600872244603 -0.8660267547294947521 0 I I #
point $-1 0.1184400000000111475 23.79484999704004977 -89.99999999999998579 #
loop $-1 $-1 $156 $92 #
plane-surface $-1 -1.613610000000000433 0 -0.2051499992600117894 0 1 0 -1 0 0 forward_v I I I I #
face $-1 $157 $110 $2 $-1 $158 reversed single #
cone-surface $-1 -1.613610000000000655 18.99999999999999645 -5 -1 0 0 0 0 3.294849997040047107 1 I I 0 1 3.294849997040047107 forward I I I I #
coedge $-1 $98 $97 $159 $160 forward $37 $-1 #
coedge $-1 $161 $162 $99 $132 reversed $163 $-1 #
edge $-1 $105 -0.8660299999999994114 $133 0.8660299999999997445 $131 $164 forward 7 unknown #
vertex $-1 $165 $166 #
straight-curve $-1 -0.7475800000000000223 25.29484999704004622 -4.99999999972599074 -1.568828746341072782e-16 0 1 I I #
point $-1 -0.7475799999999869216 25.29484999704004622 -89.99999999999997158 #
coedge $-1 $167 $103 $109 $112 reversed $138 $-1 #
coedge $-1 $103 $167 $161 $140 forward $138 $-1 #
loop $-1 $-1 $103 $157 #
straight-curve $-1 -2.91265000000000196 24.54484999704004267 -5.000000000000000888 0.4999976600872246268 0.8660267547294946411 -1.387208445393974143e-16 I I #
edge $-1 $168 1.460507706131504669e-10 $105 1.570796326794896558 $161 $169 reversed 7 unknown #
point $-1 -2.479639999999999844 25.29484999704004622 -4.999999999926974859 #
coedge $-1 $109 $108 $170 $171 forward $110 $-1 #
vertex $-1 $172 $173 #
ellipse-curve $-1 -3.345660000000000078 18.99999999999999645 -5 1 -0 -0 0 0 4.794849997040047107 1 I I #
coedge $-1 $174 $175 $114 $146 reversed $176 $-1 #
edge $-1 $120 -0.8660299978638533736 $122 0.8660299978638532625 $145 $177 forward 7 unknown #
coedge $-1 $115 $117 $178 $179 forward $95 $-1 #
straight-curve $-1 0.1184399999999997399 23.79484999704004622 -4.999999999758637514 -1.281973124421110284e-16 -4.968516118333801381e-17 1 I I #
coedge $-1 $159 $180 $117 $150 forward $181 $-1 #
edge $-1 $182 -0 $118 1.570796326794897002 $117 $183 reversed 7 unknown #
point $-1 0.1184399999999997677 23.79484999704004267 -5.000000000000000888 #
edge $-1 $184 1.947331065601244266e-10 $120 19.00000000083634433 $174 $185 reversed 7 unknown #
point $-1 -0.7475800021361472814 19.00000000064161298 -1.705150002959953781 #
edge $-1 $186 -9.736670207684650532e-11 $122 18.99999999990263078 $187 $188 reversed 7 unknown #
point $-1 -2.479639997863853917 18.99999999999999645 -1.705150002959953559 #
coedge $-1 $189 $190 $191 $192 forward $126 $-1 #
face $-1 $193 $138 $2 $-1 $194 reversed single #
cone-surface $-1 -2.912650000000000183 18.99999999999999645 -5 -1 0 0 0 0 4.044849997040047107 1 I I 0.8660267547294946411 0.4999976600872245713 4.044849997040047107 forward I I I I #
coedge $-1 $195 $149 $130 $160 reversed $181 $-1 #
edge $-1 $133 -0.8660240528414904215 $118 0.866024052841492864 $159 $196 forward 7 unknown #
coedge $-1 $197 $131 $137 $140 reversed $163 $-1 #
coedge $-1 $131 $197 $195 $165 forward $163 $-1 #
loop $-1 $-1 $131 $193 #
straight-curve $-1 -1.613610000000000433 25.29484999704004622 -5 1 0 -8.432185303822250667e-11 I I #
edge $-1 $198 5.643841680088046849e-16 $133 1.570796326783295394 $195 $199 reversed 7 unknown #
point $-1 -0.7475800000000006884 25.29484999704004622 -4.999999999999997335 #
coedge $-1 $137 $136 $200 $201 forward $138 $-1 #
vertex $-1 $202 $203 #
ellipse-curve $-1 -2.479639999999999844 18.99999999999999645 -4.999999999926974859 1 -0 -8.432185303822250667e-11 5.307934163480662709e-10 0 6.294849997040047995 1 I I #
coedge $-1 $187 $204 $142 $171 reversed $205 $-1 #
edge $-1 $122 -0.8660240539095578338 $143 0.8660240560457358461 $170 $206 forward 7 unknown #
edge $-1 $207 -1.283536946706702003e-16 $143 19 $208 $209 reversed 7 unknown #
point $-1 -3.345660000000000522 19 -0.2051499992600154254 #
coedge $-1 $210 $145 $211 $152 reversed $176 $-1 #
coedge $-1 $145 $210 $187 $154 forward $176 $-1 #
loop $-1 $-1 $145 $212 #
straight-curve $-1 -1.613610000000000655 19.00000000064161298 -1.705150002959953781 -1 0 0 I I #
coedge $-1 $213 $211 $147 $179 reversed $214 $-1 #
edge $-1 $182 -0.8660240560457344028 $120 0.8660240539095600543 $178 $215 forward 7 unknown #
coedge $-1 $149 $195 $216 $217 forward $181 $-1 #
loop $-1 $-1 $159 $218 #
vertex $-1 $219 $220 #
ellipse-curve $-1 0.1184399999999997677 18.99999999999999645 -5 1 -0 -0 0 0 4.794849997040047107 1 I I #
vertex $-1 $221 $222 #
straight-curve $-1 -0.7475800000000003553 -1.947331065601244266e-10 -1.705149999260012095 1.124287866203785868e-10 -1 1.947337568875123288e-10 I I #
vertex $-1 $223 $224 #
coedge $-1 $225 $170 $175 $154 reversed $205 $-1 #
straight-curve $-1 -2.479640000000000732 9.736670207684650532e-11 -1.705149999260012095 -1.124287866203785997e-10 -1 1.947337568875123288e-10 I I #
coedge $-1 $226 $156 $227 $228 forward $126 $-1 #
coedge $-1 $156 $229 $230 $231 forward $126 $-1 #
coedge $-1 $232 $233 $156 $192 reversed $234 $-1 #
edge $-1 $235 -1.29904500002108092 $236 0.4330150000632415619 $191 $237 reversed 7 unknown #
face $-1 $218 $163 $2 $-1 $238 reversed single #
cone-surface $-1 -2.912650000000000183 18.99999999999999645 -5 -1 0 0 0 0 5.544849997040047107 1 I I 0.8660267547294946411 -0.4999976600872245713 5.544849997040047107 forward I I I I #
coedge $-1 $180 $159 $162 $165 reversed $181 $-1 #
straight-curve $-1 -0.3145699999999997387 24.54484999704004622 -4.999999999999998224 0.4999976600872242938 -0.8660267547294946411 -2.774416890787946808e-16 I I #
coedge $-1 $162 $161 $239 $240 forward $163 $-1 #
vertex $-1 $241 $242 #
ellipse-curve $-1 -0.7475800000000006884 18.99999999999999645 -5.000000000073025141 1 -0 -8.432185303822250667e-11 5.307934163480662709e-10 0 6.294849997040047995 1 I I #
coedge $-1 $208 $243 $167 $201 reversed $244 $-1 #
edge $-1 $143 -0.8660240496372442198 $168 0.8660240528414910877 $200 $245 forward 7 unknown #
edge $-1 $236 -1.460503176585240929e-10 $168 19.00000000077331208 $233 $246 reversed 7 unknown #
point $-1 -2.479640001602116062 19.00000000091936414 1.294849997965022981 #
coedge $-1 $170 $225 $208 $172 forward $205 $-1 #
loop $-1 $-1 $170 $247 #
straight-curve $-1 -2.912649998397885298 18.99999999999999645 -0.9551500020349781295 -0.4999976600872245713 0 0.8660267547294945301 I I #
vertex $-1 $228 $248 #
coedge $-1 $227 $200 $204 $172 reversed $244 $-1 #
straight-curve $-1 -3.345660000000000522 1.283536946706701757e-16 -0.2051499992600121502 -7.462072148539718759e-27 -1 1.711382595565854256e-16 I I #
coedge $-1 $175 $174 $249 $221 reversed $176 $-1 #
coedge $-1 $178 $250 $174 $152 forward $214 $-1 #
face $-1 $247 $176 $2 $-1 $251 reversed single #
coedge $-1 $250 $178 $252 $219 reversed $214 $-1 #
loop $-1 $-1 $178 $253 #
straight-curve $-1 -0.3145700016021151235 18.99999999999999645 -0.9551500020349763531 -0.4999976600872244603 0 -0.8660267547294946411 I I #
coedge $-1 $254 $252 $180 $217 reversed $255 $-1 #
edge $-1 $198 -0.8660240526728465449 $182 0.8660240496372435537 $216 $256 forward 7 unknown #
face $-1 $257 $181 $2 $-1 $258 reversed single #
edge $-1 $259 1.283536946512830808e-16 $182 18.99999999999999645 $213 $260 reversed 7 unknown #
point $-1 0.1184399999999994901 18.99999999999999645 -0.2051499992600148703 #
edge $-1 $186 -1.299045000000000449 $184 0.4330149999999999277 $210 $261 reversed 7 unknown #
point $-1 -0.7475800000000003553 0 -1.705149999260012095 #
edge $-1 $207 -1.29903452641852879 $186 0.4330135792644513315 $225 $262 reversed 7 unknown #
point $-1 -2.479640000000000732 0 -1.705149999260012095 #
coedge $-1 $204 $187 $226 $223 reversed $205 $-1 #
coedge $-1 $249 $189 $225 $223 forward $126 $-1 #
coedge $-1 $243 $208 $189 $228 reversed $244 $-1 #
edge $-1 $236 -1.299037632105941364 $207 0.4330104735770390345 $227 $263 reversed 7 unknown #
coedge $-1 $190 $249 $250 $264 forward $126 $-1 #
coedge $-1 $252 $254 $190 $231 reversed $255 $-1 #
edge $-1 $259 -1.29903452641852879 $235 0.4330135790958070663 $230 $265 reversed 7 unknown #
coedge $-1 $239 $191 $254 $241 forward $234 $-1 #
coedge $-1 $191 $239 $243 $202 reversed $234 $-1 #
loop $-1 $-1 $239 $266 #
vertex $-1 $192 $267 #
vertex $-1 $192 $268 #
straight-curve $-1 -2.046624999936759171 0 1.294850000703475779 1 0 -8.432185303822250667e-11 I I #
cone-surface $-1 -1.613610000000000655 18.99999999999999645 -5 -1 0 8.432185303822250667e-11 5.307934163480662709e-10 0 6.294849997040047995 1 I I 0 -1 6.294849997040047995 forward I I I I #
coedge $-1 $233 $232 $197 $240 reversed $234 $-1 #
edge $-1 $168 -0.8660300021329090381 $198 0.8660300011556436584 $239 $269 forward 7 unknown #
edge $-1 $235 7.302525441868794165e-11 $198 19.00000000007302603 $254 $270 reversed 7 unknown #
point $-1 -0.7475799983135633653 19 1.294849997818972032 #
coedge $-1 $200 $227 $233 $202 forward $244 $-1 #
loop $-1 $-1 $200 $271 #
straight-curve $-1 -2.912650001602115957 19 0.5448499979650218705 0.4999976600872246268 5.548833781575896574e-16 0.8660267547294946411 I I #
straight-curve $-1 -2.479640000000000732 1.460503176585240929e-10 1.294850000739988349 8.432185303411745486e-11 -1 1.460508161016278317e-10 I I #
face $-1 $271 $205 $2 $-1 $272 reversed single #
point $-1 -3.345660000000000522 -2.465190328815661892e-32 -0.2051499992600121502 #
coedge $-1 $229 $226 $210 $221 forward $126 $-1 #
coedge $-1 $211 $213 $229 $264 reversed $214 $-1 #
plane-surface $-1 -0.7475800000000002443 0 -1.705149999260012095 0 1.947337568875123288e-10 1 1.000000000000000222 0 0 forward_v I I I I #
coedge $-1 $216 $230 $213 $219 forward $255 $-1 #
face $-1 $212 $214 $2 $-1 $273 reversed single #
coedge $-1 $230 $216 $232 $241 reversed $255 $-1 #
loop $-1 $-1 $216 $257 #
straight-curve $-1 -0.3145699983978848535 19 0.5448499979650218705 0.4999976600872246268 -5.548833781575896574e-16 -0.8660267547294946411 I I #
face $-1 $253 $255 $2 $-1 $274 reversed single #
cone-surface $-1 -0.3145700000000002383 18.99999999999999645 -5 -1 0 0 0 0 5.544849997040047107 1 I I -0.8660267547294946411 -0.4999976600872245713 5.544849997040047107 forward I I I I #
vertex $-1 $264 $275 #
straight-curve $-1 0.1184399999999997122 -1.283536946512830808e-16 -0.2051499992600117062 -1.305861914353080402e-26 -1 1.711382595275047339e-16 I I #
straight-curve $-1 -1.180595000000000283 0 -1.705149999260012095 -1 0 0 I I #
straight-curve $-1 -2.696145776418220397 0 -1.330148654455816537 -0.4999976600872246268 0 0.8660267547294946411 I I #
straight-curve $-1 -3.129155776418220292 0 0.1698486559357926806 0.4999976600872245713 -0 0.8660267547294946411 I I #
edge $-1 $184 -1.299037632105942031 $259 0.4330104735770387014 $250 $276 reversed 7 unknown #
straight-curve $-1 -0.5310742235817804691 -1.232595164407830946e-32 0.9198486559357926806 0.4999976600872246268 0 -0.8660267547294946411 I I #
face $-1 $59 $234 $2 $-1 $277 reversed single #
point $-1 -0.7475799999156782505 0 1.294850000593937844 #
point $-1 -2.479640000000000732 0 1.294850000739988349 #
straight-curve $-1 -1.613609999469207024 19.00000000091936414 1.294849997891997617 1 0 -8.432185303822250667e-11 I I #
straight-curve $-1 -0.7475799999156782505 -7.302525441868794165e-11 1.294850000593937844 -8.432185304232757141e-11 -1 1.46050816115848178e-10 I I #
face $-1 $266 $244 $2 $-1 $278 reversed single #
plane-surface $-1 -2.479640000000000732 0 -1.705149999260012095 0.8660267547294946411 8.55687293232304707e-17 0.4999976600872246268 0.4999976600872247379 2.584939414228211484e-26 -0.8660267547294948631 forward_v I I I I #
plane-surface $-1 0.1184399999999997954 0 -0.2051499992600117617 -0.8660267547294946411 8.556872932646164497e-17 0.4999976600872245713 0.4999976600872246824 -6.46234853557052871e-27 0.8660267547294948631 forward_v I I I I #
plane-surface $-1 -0.7475800000000002443 0 1.294850000739988349 -0.8660267547294946411 -8.556872930384342509e-17 -0.4999976600872246268 -0.4999976600872247379 0 0.8660267547294948631 forward_v I I I I #
point $-1 0.1184399999999997122 0 -0.2051499992600117062 #
straight-curve $-1 -0.09806422358178046306 0 -0.580148654455816204 -0.4999976600872245713 0 -0.8660267547294946411 I I #
plane-surface $-1 -2.479640000000000732 0 1.294850000739988349 -8.432185303822250667e-11 -1.460508161087380178e-10 -1 -1.000000000000000222 1.642031122984976635e-20 8.43218530382225196e-11 forward_v I I I I #
plane-surface $-1 -3.345660000000000522 0 -0.2051499992600117617 0.8660267547294946411 -8.556872933615516777e-17 -0.4999976600872245713 -0.4999976600872246824 0 -0.8660267547294948631 forward_v I I I I #
End-of-ACIS-data 