106 0 1 0           
body $-1 $1 $-1 $2 #
lump $-1 $-1 $3 $0 #
transform $-1 0 0 1 1 0 0 0 1 0 0 -164.99999999999997 1.2789769243681803e-013 0.99999999999999989 1 0 0 #
shell $-1 $-1 $-1 $4 $1 #
face $-1 $5 $6 $3 $-1 $7 forward single #
face $-1 $8 $9 $3 $-1 $10 forward single #
loop $-1 $11 $12 $4 #
plane-surface $-1 -1.1368683772161605e-013 0 64.999999999999972 0 0 -1 -1 0 0 0 I I I I #
face $-1 $13 $14 $3 $-1 $15 forward single #
loop $-1 $16 $17 $5 #
cone-surface $-1 -1.1368683772161605e-013 0 114.99999999999997 0 0 1 16 0 0 1 I I 0 1 0 I I I I #
loop $-1 $-1 $18 $4 #
coedge $-1 $12 $12 $17 $19 0 $6 $-1 #
face $-1 $20 $21 $3 $-1 $22 forward single #
loop $-1 $-1 $23 $8 #
plane-surface $-1 -1.1368683772161605e-013 0 164.99999999999997 0 0 1 1 0 0 0 I I I I #
loop $-1 $-1 $24 $5 #
coedge $-1 $17 $17 $12 $19 1 $9 $-1 #
coedge $-1 $18 $18 $25 $26 1 $11 $-1 #
edge $-1 $27 $27 $12 $28 0 #
face $-1 $29 $30 $3 $-1 $31 forward single #
loop $-1 $-1 $32 $13 #
cone-surface $-1 0 0 -64.299999999999997 0 0 -1 -2.5999999999999996 0 0 1 I I -0.89442719099991608 0.44721359549995754 0 I I I I #
coedge $-1 $23 $23 $24 $33 0 $14 $-1 #
coedge $-1 $24 $24 $23 $33 1 $16 $-1 #
coedge $-1 $25 $25 $18 $26 0 $34 $-1 #
edge $-1 $35 $35 $25 $36 1 #
vertex $-1 $19 $37 #
ellipse-curve $-1 -1.1368683772161605e-013 0 64.999999999999972 0 0 -1 16 0 0 1 I I #
face $-1 $38 $39 $3 $-1 $40 forward single #
loop $-1 $-1 $41 $20 #
cone-surface $-1 0 0 -64.299999999999997 0 0 -1 2.5999999999999996 0 0 1 I I -0.89442719099991608 0.44721359549995754 0 I I I I #
coedge $-1 $42 $43 $44 $45 0 $21 $-1 #
edge $-1 $46 $46 $23 $47 0 #
loop $-1 $48 $25 $49 #
vertex $-1 $26 $50 #
ellipse-curve $-1 0 0 65 0 0 1 4 0 0 1 I I #
point $-1 15.999999999999886 0 64.999999999999972 #
face $-1 $51 $52 $3 $-1 $53 forward single #
loop $-1 $-1 $54 $29 #
cone-surface $-1 0 0 -64.299999999999997 0 0 -1 2.5999999999999996 0 0 1 I I -0.89442719099991608 0.44721359549995743 0 I I I I #
coedge $-1 $55 $56 $57 $58 0 $30 $-1 #
coedge $-1 $59 $32 $60 $61 0 $21 $-1 #
coedge $-1 $32 $62 $63 $64 0 $21 $-1 #
coedge $-1 $65 $66 $32 $45 1 $67 $-1 #
edge $-1 $68 $69 $44 $70 0 #
vertex $-1 $33 $71 #
ellipse-curve $-1 -1.1368683772161605e-013 0 164.99999999999997 0 0 1 16 0 0 1 I I #
loop $-1 $-1 $72 $49 #
face $-1 $73 $34 $3 $-1 $74 forward single #
point $-1 4 0 65 #
face $-1 $75 $76 $3 $-1 $77 forward single #
loop $-1 $-1 $78 $38 #
cone-surface $-1 0 0 -64.299999999999997 0 0 -1 -2.5999999999999996 0 0 1 I I -0.89442719099991608 0.44721359549995754 0 I I I I #
coedge $-1 $79 $80 $81 $82 0 $39 $-1 #
coedge $-1 $83 $41 $84 $85 0 $30 $-1 #
coedge $-1 $41 $86 $87 $88 0 $30 $-1 #
coedge $-1 $89 $90 $41 $58 1 $67 $-1 #
edge $-1 $91 $92 $57 $93 0 #
coedge $-1 $94 $42 $95 $96 0 $21 $-1 #
coedge $-1 $97 $98 $42 $61 1 $99 $-1 #
edge $-1 $69 $100 $60 $101 0 #
coedge $-1 $43 $102 $103 $104 0 $21 $-1 #
coedge $-1 $105 $106 $43 $64 1 $107 $-1 #
edge $-1 $108 $68 $63 $109 0 #
coedge $-1 $110 $44 $106 $111 0 $67 $-1 #
coedge $-1 $44 $89 $97 $112 0 $67 $-1 #
loop $-1 $-1 $44 $113 #
vertex $-1 $111 $114 #
vertex $-1 $61 $115 #
ellipse-curve $-1 0 0 -65 0 0 1 -1.1999999999999997 0 0 1 I I #
point $-1 15.999999999999886 0 164.99999999999997 #
coedge $-1 $116 $117 $94 $118 1 $48 $-1 #
face $-1 $119 $120 $3 $-1 $121 forward single #
cone-surface $-1 0 0 0 0 0 1 4 0 0 1 I I 0 1 0 I I I I #
face $-1 $122 $123 $3 $-1 $124 forward single #
loop $-1 $-1 $103 $51 #
cone-surface $-1 -34.733568601967889 -0.45495500000000011 -65.247309007125978 0 1 0 29.947747129095468 0 14.506662352998624 1 I I -0.65546724330437456 -0.75522360460658533 0 I I I I #
coedge $-1 $125 $126 $127 $128 0 $52 $-1 #
coedge $-1 $129 $54 $130 $131 0 $39 $-1 #
coedge $-1 $54 $132 $133 $134 0 $39 $-1 #
coedge $-1 $135 $136 $54 $82 1 $67 $-1 #
edge $-1 $137 $138 $81 $139 0 #
coedge $-1 $140 $55 $141 $142 0 $30 $-1 #
coedge $-1 $143 $144 $55 $85 1 $145 $-1 #
edge $-1 $92 $146 $84 $147 0 #
coedge $-1 $56 $148 $149 $150 0 $30 $-1 #
coedge $-1 $151 $152 $56 $88 1 $153 $-1 #
edge $-1 $154 $91 $87 $155 0 #
coedge $-1 $66 $57 $152 $156 0 $67 $-1 #
coedge $-1 $57 $135 $143 $157 0 $67 $-1 #
vertex $-1 $156 $158 #
vertex $-1 $58 $159 #
ellipse-curve $-1 0 0 -65 0 0 1 1.1999999999999997 0 0 1 I I #
coedge $-1 $102 $59 $72 $118 0 $21 $-1 #
coedge $-1 $160 $161 $59 $96 1 $162 $-1 #
edge $-1 $100 $163 $95 $164 0 #
coedge $-1 $165 $60 $66 $112 1 $99 $-1 #
coedge $-1 $60 $166 $160 $167 0 $99 $-1 #
loop $-1 $-1 $60 $168 #
vertex $-1 $96 $169 #
intcurve-curve $-1 0 { surfintcur nubs 3 open 4 
	32.488842147018389 3 32.561340482959778 2 33.481242169463179 2 33.513849310659353 3 
	1.4294764552058581e-006 -1.1999999999991484 -65 
	-0.016174279821303789 -1.2140914275775454 -64.992954295845308 
	-0.032310583171117069 -1.2281520003330157 -64.985760706055558 
	-0.25273723616753307 -1.4202740518339931 -64.885480177918254 
	-0.45201439145065275 -1.5945626907716632 -64.773748817102216 
	-0.65951397424770297 -1.7768586387889771 -64.652349557328961 
	-0.66661707066304021 -1.7830999554835716 -64.648185418912618 
	-0.67372000000006782 -1.789342109270792 -64.644013098624029 
	0.001 
	cone 0 0 -64.299999999999997 0 0 -1 -2.5999999999999996 0 0 1 I I -0.89442719099991608 0.44721359549995754 0 I I I I 
	cone -0.29749500000006768 -34.733568601967775 -65.247309007125978 -1 0 0 0 29.947747129095468 14.506662352998624 1 I I 0.65546724330437456 -0.75522360460658533 0 I I I I 
	nullbs 
	nullbs 
	} I I #
coedge $-1 $62 $94 $170 $171 0 $21 $-1 #
coedge $-1 $172 $173 $62 $104 1 $76 $-1 #
edge $-1 $174 $108 $103 $175 0 #
coedge $-1 $176 $63 $173 $177 1 $107 $-1 #
coedge $-1 $63 $176 $65 $111 1 $107 $-1 #
loop $-1 $-1 $63 $119 #
vertex $-1 $64 $178 #
ellipse-curve $-1 0.01796433417761123 -2.2204460492503131e-016 -64.991023284363649 0.0073746028446805565 0 -0.99997280724671878 1.2179534312727305 -7.9257040835972653e-013 0.00898216708879814 0.99986402883807168 I I #
coedge $-1 $127 $65 $179 $180 0 $67 $-1 #
edge $-1 $68 $181 $65 $182 0 #
edge $-1 $183 $69 $66 $184 0 #
face $-1 $185 $67 $3 $-1 $186 forward single #
point $-1 -1.1992498973936301 -0.042422677913669625 -65 #
point $-1 1.4294764552058581e-006 -1.1999999999991484 -65 #
coedge $-1 $187 $72 $161 $188 0 $48 $-1 #
coedge $-1 $72 $189 $190 $191 0 $48 $-1 #
edge $-1 $163 $192 $72 $193 0 #
face $-1 $194 $107 $3 $-1 $195 reversed single #
loop $-1 $-1 $196 $73 #
cone-surface $-1 -34.733568601967889 3.1485950000000007 -65.247309007125978 0 1 0 27.426558806884195 0 13.28540094856033 1 I I 0.70710678118654768 -0.70710678118654746 0 I I I I #
face $-1 $197 $162 $3 $-1 $198 forward single #
loop $-1 $-1 $170 $75 #
cone-surface $-1 -34.733568601967889 -3.3060550000000011 -65.247309007125978 0 1 0 27.426558806884195 0 13.28540094856033 1 I I -0.70710678118654757 -0.70710678118654757 0 I I I I #
coedge $-1 $199 $78 $200 $201 0 $52 $-1 #
coedge $-1 $78 $202 $203 $204 0 $52 $-1 #
coedge $-1 $205 $110 $78 $128 1 $67 $-1 #
edge $-1 $206 $207 $127 $208 0 #
coedge $-1 $209 $79 $210 $211 0 $39 $-1 #
coedge $-1 $212 $213 $79 $131 1 $214 $-1 #
edge $-1 $138 $215 $130 $216 0 #
coedge $-1 $80 $217 $218 $219 0 $39 $-1 #
coedge $-1 $220 $221 $80 $134 1 $222 $-1 #
edge $-1 $223 $137 $133 $224 0 #
coedge $-1 $90 $81 $221 $225 0 $67 $-1 #
coedge $-1 $81 $205 $212 $226 0 $67 $-1 #
vertex $-1 $225 $227 #
vertex $-1 $131 $228 #
ellipse-curve $-1 0 0 -65 0 0 1 1.1999999999999988 0 0 1 I I #
coedge $-1 $148 $83 $229 $230 0 $30 $-1 #
coedge $-1 $231 $232 $83 $142 1 $233 $-1 #
edge $-1 $146 $234 $141 $235 0 #
coedge $-1 $236 $84 $90 $157 1 $145 $-1 #
coedge $-1 $84 $237 $231 $238 0 $145 $-1 #
loop $-1 $-1 $84 $239 #
vertex $-1 $85 $240 #
intcurve-curve $-1 0 { surfintcur nubs 3 open 4 
	32.488842147018474 3 32.561340482959913 2 33.481242169463329 2 33.513849310659424 3 
	1.1999999999991484 1.4294765063871395e-006 -65 
	1.2140914275775516 -0.016174279821259706 -64.992954295845308 
	1.2281520003330348 -0.032310583171088939 -64.98576070605553 
	1.4202740518340253 -0.25273723616751997 -64.885480177918225 
	1.5945626907716917 -0.45201439145063482 -64.773748817102188 
	1.7768586387889935 -0.65951397424767122 -64.652349557328932 
	1.7830999554835723 -0.66661707066299103 -64.648185418912618 
	1.7893421092707766 -0.67372000000000043 -64.644013098624029 
	0.001 
	cone 0 0 -64.299999999999997 0 0 -1 2.5999999999999996 0 0 1 I I -0.89442719099991608 0.44721359549995754 0 I I I I 
	cone 34.733568601967761 -0.29749500000000018 -65.247309007125978 0 -1 0 -29.947747129095468 0 14.506662352998624 1 I I 0.65546724330437456 -0.75522360460658533 0 I I I I 
	nullbs 
	nullbs 
	} I I #
coedge $-1 $86 $140 $241 $242 0 $30 $-1 #
coedge $-1 $243 $244 $86 $150 1 $245 $-1 #
edge $-1 $246 $154 $149 $247 0 #
coedge $-1 $248 $87 $244 $249 1 $153 $-1 #
coedge $-1 $87 $248 $89 $156 1 $153 $-1 #
loop $-1 $-1 $87 $185 #
vertex $-1 $88 $250 #
ellipse-curve $-1 2.2204460492503131e-016 0.01796433417761123 -64.991023284363649 0 0.0073746028446805565 -0.99997280724671878 6.4456520208340362e-013 1.2179534312722344 0.008982167088794497 0.9998640288388827 I I #
edge $-1 $91 $183 $89 $251 0 #
edge $-1 $252 $92 $90 $253 0 #
point $-1 0.042422677915252942 -1.1992498973935741 -65 #
point $-1 1.1999999999991484 1.4294765063871395e-006 -65 #
coedge $-1 $161 $95 $98 $167 1 $162 $-1 #
coedge $-1 $95 $160 $116 $188 1 $162 $-1 #
loop $-1 $-1 $95 $122 #
vertex $-1 $188 $254 #
intcurve-curve $-1 0 { surfintcur nubs 3 open 4 
	29.736406821427799 3 30.432647344218385 2 31.315853435455686 2 32.190760719217856 3 
	-0.67372000000006782 -1.789342109270792 -64.644013098624029 
	-0.8152396278932208 -1.9325693852254104 -64.55205911911348 
	-0.95702349948115661 -2.0765235484125601 -64.457214315495307 
	-1.2802284355866407 -2.4058285453175512 -64.23796595429998 
	-1.4620499915572243 -2.5918947825135508 -64.112409987560639 
	-1.8268815870886466 -2.9670614393135746 -63.858075154577946 
	-2.0092637577395109 -3.1555003985860512 -63.729710589884128 
	-2.1923728682861761 -3.3456690222439289 -63.599999999999945 
	0.001 
	cone 0 0 -64.299999999999997 0 0 -1 -2.5999999999999996 0 0 1 I I -0.89442719099991608 0.44721359549995754 0 I I I I 
	cone -3.1485950000000682 -34.733568601967775 -65.247309007125978 -1 0 0 0 27.426558806884195 13.28540094856033 1 I I 0.70710678118654768 -0.70710678118654746 0 I I I I 
	nullbs 
	nullbs 
	} I I #
coedge $-1 $255 $97 $248 $256 0 $99 $-1 #
coedge $-1 $98 $255 $187 $257 1 $99 $-1 #
edge $-1 $258 $100 $98 $259 0 #
face $-1 $260 $99 $3 $-1 $261 forward single #
point $-1 -0.67372000000006782 -1.789342109270792 -64.644013098624029 #
coedge $-1 $190 $262 $102 $171 1 $123 $-1 #
edge $-1 $192 $174 $170 $263 0 #
coedge $-1 $264 $103 $262 $265 1 $76 $-1 #
coedge $-1 $103 $266 $105 $177 0 $76 $-1 #
vertex $-1 $171 $267 #
intcurve-curve $-1 0 { surfintcur nubs 3 open 3 
	30.286207887568029 3 30.541094292461704 2 31.334099749582563 3 
	-1.7899197597484267 -0.83118000000000014 -64.61325371311338 
	-1.7411600581975677 -0.77575892917579614 -64.64703667249843 
	-1.6924990749551292 -0.72037974919190617 -64.680433852935849 
	-1.4926985249974913 -0.49271639250791688 -64.815733343776984 
	-1.3429560152545026 -0.32143505293066232 -64.913881766726547 
	-1.1910638422407691 -0.14716221292166529 -64.999939629452726 
	0.001 
	cone 0 0 -64.299999999999997 0 0 -1 -2.5999999999999996 0 0 1 I I -0.89442719099991608 0.44721359549995754 0 I I I I 
	cone -34.733568601967889 -0.45495500000000011 -65.247309007125978 0 1 0 29.947747129095468 0 14.506662352998624 1 I I -0.65546724330437456 -0.75522360460658533 0 I I I I 
	nullbs 
	nullbs 
	} I I #
coedge $-1 $106 $105 $268 $269 1 $107 $-1 #
edge $-1 $270 $108 $173 $271 0 #
point $-1 -1.1910638422407691 -0.14716221292166529 -64.999939629452726 #
coedge $-1 $268 $200 $110 $180 1 $272 $-1 #
edge $-1 $181 $207 $110 $273 0 #
vertex $-1 $180 $274 #
straight-curve $-1 -1.1992498973936301 -0.030614999999999989 -65 0 1 0 I I #
vertex $-1 $112 $275 #
straight-curve $-1 -0.29749500000006768 -1.4582077008888392 -65 -0.7552146423792534 -0.65547756936143609 0 I I #
face $-1 $168 $153 $3 $-1 $276 reversed single #
plane-surface $-1 0 0 -65 0 0 -1 -1 0 0 0 I I I I #
coedge $-1 $277 $116 $166 $257 0 $48 $-1 #
edge $-1 $163 $258 $116 $278 0 #
coedge $-1 $117 $279 $264 $280 0 $48 $-1 #
coedge $-1 $262 $170 $117 $191 1 $123 $-1 #
edge $-1 $281 $192 $117 $282 0 #
vertex $-1 $118 $283 #
ellipse-curve $-1 0 0 -63.600000000000001 0 0 -1 -4 0 0 1 I I #
face $-1 $113 $272 $3 $-1 $284 forward single #
plane-surface $-1 -6.7343299976511446 -0.061229999999999979 -65.040820127464542 0.0073746028446805565 0 -0.99997280724671878 0.99997280724671922 0 0.0073746028446805591 0 I I I I #
coedge $-1 $285 $286 $199 $287 1 $120 $-1 #
face $-1 $239 $233 $3 $-1 $288 forward single #
cone-surface $-1 -3.1485950000000682 -34.733568601967775 -65.247309007125978 -1 0 0 0 27.426558806884195 13.28540094856033 1 I I 0.70710678118654768 -0.70710678118654746 0 I I I I #
coedge $-1 $289 $125 $196 $287 0 $52 $-1 #
coedge $-1 $179 $290 $125 $201 1 $272 $-1 #
edge $-1 $207 $291 $200 $292 0 #
coedge $-1 $126 $293 $294 $295 0 $52 $-1 #
coedge $-1 $296 $297 $126 $204 1 $298 $-1 #
edge $-1 $299 $206 $203 $300 0 #
coedge $-1 $136 $127 $297 $301 0 $67 $-1 #
vertex $-1 $301 $302 #
vertex $-1 $201 $303 #
ellipse-curve $-1 0 0 -65 0 0 1 -1.1999999999999997 0 0 1 I I #
coedge $-1 $217 $129 $304 $305 0 $39 $-1 #
coedge $-1 $306 $307 $129 $211 1 $308 $-1 #
edge $-1 $215 $309 $210 $310 0 #
coedge $-1 $311 $130 $136 $226 1 $214 $-1 #
coedge $-1 $130 $312 $306 $313 0 $214 $-1 #
loop $-1 $-1 $130 $314 #
vertex $-1 $211 $315 #
intcurve-curve $-1 0 { surfintcur nubs 3 open 4 
	32.488842147018325 3 32.561340482959828 2 33.481242169463258 2 33.513849310659303 3 
	-1.4294765698918965e-006 1.1999999999991475 -65 
	0.016174279821212365 1.2140914275775647 -64.992954295845294 
	0.032310583171054778 1.2281520003330622 -64.985760706055544 
	0.2527372361675021 1.4202740518340666 -64.885480177918225 
	0.45201439145062738 1.5945626907717414 -64.773748817102188 
	0.65951397424765701 1.776858638789037 -64.652349557328932 
	0.66661707066295373 1.7830999554835947 -64.648185418912576 
	0.67371999999995402 1.7893421092707911 -64.644013098624001 
	0.001 
	cone 0 0 -64.299999999999997 0 0 -1 2.5999999999999996 0 0 1 I I -0.89442719099991608 0.44721359549995743 0 I I I I 
	cone 0.29749499999995399 34.733568601967775 -65.247309007125978 1 0 0 0 -29.947747129095468 14.506662352998624 1 I I 0.65546724330437456 -0.75522360460658533 0 I I I I 
	nullbs 
	nullbs 
	} I I #
coedge $-1 $132 $209 $316 $317 0 $39 $-1 #
coedge $-1 $318 $319 $132 $219 1 $320 $-1 #
edge $-1 $321 $223 $218 $322 0 #
coedge $-1 $323 $133 $319 $324 1 $222 $-1 #
coedge $-1 $133 $323 $135 $225 1 $222 $-1 #
loop $-1 $-1 $133 $325 #
vertex $-1 $219 $326 #
ellipse-curve $-1 -0.01796433417761123 -2.2204460492503131e-016 -64.991023284363649 -0.0073746028446805565 0 -0.99997280724671878 -1.2179534312717399 -1.0571273582493212e-012 0.0089821670887908541 0.99986402883969372 I I #
edge $-1 $137 $252 $135 $327 0 #
edge $-1 $328 $138 $136 $329 0 #
point $-1 1.1992498973935661 0.042422677915454454 -65 #
point $-1 -1.4294765698918965e-006 1.1999999999991475 -65 #
coedge $-1 $330 $331 $140 $230 1 $48 $-1 #
edge $-1 $234 $332 $229 $333 0 #
coedge $-1 $232 $141 $144 $238 1 $233 $-1 #
coedge $-1 $141 $231 $330 $334 1 $233 $-1 #
loop $-1 $-1 $141 $197 #
vertex $-1 $334 $335 #
intcurve-curve $-1 0 { surfintcur nubs 3 open 4 
	29.73640682142792 3 30.432647344218601 2 31.315853435455917 2 32.190760719218034 3 
	1.7893421092707766 -0.67372000000000043 -64.644013098624029 
	1.9325693852254107 -0.81523962789316873 -64.552059119113466 
	2.0765235484125921 -0.95702349948114029 -64.457214315495321 
	2.4058285453176054 -1.280228435586646 -64.23796595429998 
	2.5918947825136058 -1.4620499915572229 -64.112409987560611 
	2.967061439313623 -1.8268815870886383 -63.858075154577925 
	3.1555003985860841 -2.0092637577394874 -63.729710589884114 
	3.3456690222439507 -2.1923728682861423 -63.599999999999937 
	0.001 
	cone 0 0 -64.299999999999997 0 0 -1 2.5999999999999996 0 0 1 I I -0.89442719099991608 0.44721359549995754 0 I I I I 
	cone 34.733568601967761 -3.1485950000000007 -65.247309007125978 0 -1 0 -27.426558806884195 0 13.28540094856033 1 I I 0.70710678118654768 -0.70710678118654746 0 I I I I 
	nullbs 
	nullbs 
	} I I #
coedge $-1 $336 $143 $323 $337 0 $145 $-1 #
coedge $-1 $144 $336 $338 $339 1 $145 $-1 #
edge $-1 $340 $146 $144 $341 0 #
face $-1 $325 $145 $3 $-1 $342 forward single #
point $-1 1.7893421092707766 -0.67372000000000043 -64.644013098624029 #
coedge $-1 $343 $344 $148 $242 1 $345 $-1 #
edge $-1 $332 $246 $241 $346 0 #
coedge $-1 $347 $149 $344 $348 1 $245 $-1 #
coedge $-1 $149 $349 $151 $249 0 $245 $-1 #
loop $-1 $-1 $149 $260 #
vertex $-1 $150 $350 #
intcurve-curve $-1 0 { surfintcur nubs 3 open 3 
	30.286207887568846 3 30.541094292462397 2 31.334099749583164 3 
	0.83117999999993275 -1.7899197597483105 -64.613253713113522 
	0.77575892917575484 -1.7411600581974747 -64.647036672498558 
	0.72037974919187209 -1.6924990749550435 -64.680433852935892 
	0.49271639250793076 -1.4926985249974478 -64.815733343777012 
	0.32143505293068919 -1.3429560152544724 -64.913881766726561 
	0.14716221292171791 -1.1910638422407613 -64.999939629452726 
	0.001 
	cone 0 0 -64.299999999999997 0 0 -1 2.5999999999999996 0 0 1 I I -0.89442719099991608 0.44721359549995754 0 I I I I 
	cone 0.45495499999993261 -34.733568601967775 -65.247309007125978 -1 0 0 0 29.947747129095468 14.506662352998624 1 I I -0.65546724330437456 -0.75522360460658533 0 I I I I 
	nullbs 
	nullbs 
	} I I #
coedge $-1 $152 $151 $165 $256 1 $153 $-1 #
edge $-1 $351 $154 $244 $352 0 #
point $-1 0.14716221292171791 -1.1910638422407613 -64.999939629452726 #
straight-curve $-1 0.030614999999966253 -1.1992498973935741 -65 -1 0 0 I I #
vertex $-1 $157 $353 #
straight-curve $-1 1.458207700888825 -0.29749500000000023 -65 0.6554775693614362 -0.7552146423792534 0 I I #
point $-1 -2.1923728682861761 -3.3456690222439289 -63.599999999999945 #
coedge $-1 $166 $165 $349 $354 1 $99 $-1 #
edge $-1 $183 $351 $165 $355 0 #
edge $-1 $258 $356 $187 $357 0 #
vertex $-1 $257 $358 #
ellipse-curve $-1 -0.67372000000006782 -34.733568601967775 -65.247309007125978 -1 0 0 0 29.653879008330474 14.364312893926751 1 F -3.6650000350582668e-016 F 0.44371452243946946 #
face $-1 $359 $245 $3 $-1 $360 forward single #
cone-surface $-1 -0.29749500000006768 -34.733568601967775 -65.247309007125978 -1 0 0 0 29.947747129095468 14.506662352998624 1 I I 0.65546724330437456 -0.75522360460658533 0 I I I I #
coedge $-1 $170 $190 $172 $265 0 $123 $-1 #
intcurve-curve $-1 0 { surfintcur nubs 3 open 3 
	23.514728358765463 3 24.604356512670371 2 25.859586210769375 3 
	-3.2821376012154326 -2.2863885861086275 -63.599999999999952 
	-3.0445429328174569 -2.0576371606346773 -63.762854130407078 
	-2.8097057699445562 -1.8300769750456576 -63.923783315148029 
	-2.3104387901145267 -1.3434685796472818 -64.264275433740636 
	-2.0484024625018606 -1.0863252435986359 -64.442304268014681 
	-1.7899197597484267 -0.83118000000000014 -64.61325371311338 
	0.001 
	cone 0 0 -64.299999999999997 0 0 -1 -2.5999999999999996 0 0 1 I I -0.89442719099991608 0.44721359549995754 0 I I I I 
	cone -34.733568601967889 -3.3060550000000011 -65.247309007125978 0 1 0 27.426558806884195 0 13.28540094856033 1 I I -0.70710678118654757 -0.70710678118654757 0 I I I I 
	nullbs 
	nullbs 
	} I I #
coedge $-1 $266 $172 $189 $280 1 $76 $-1 #
edge $-1 $281 $174 $262 $361 0 #
coedge $-1 $173 $264 $362 $363 0 $76 $-1 #
point $-1 -1.7899197597484267 -0.83118000000000014 -64.61325371311338 #
coedge $-1 $362 $179 $176 $269 0 $272 $-1 #
edge $-1 $181 $270 $268 $364 0 #
vertex $-1 $363 $365 #
straight-curve $-1 -1.7847145949816507 -0.83118000000000025 -65.004317687034074 -0.65544941934534373 -0.75522360460658555 -0.0048338105970675369 I I #
loop $-1 $-1 $200 $194 #
straight-curve $-1 -1.4582077008889529 0.29749500000000023 -65 -0.6554775693614362 0.7552146423792534 0 I I #
point $-1 -1.1992498973950521 -0.0008656296933715335 -65 #
point $-1 0.0008656296933040597 -1.1992498973949401 -65 #
plane-surface $-1 0.061229999999932505 -6.7343299976510327 -65.040820127464542 0 0.0073746028446805565 -0.99997280724671878 0 0.99997280724671922 0.0073746028446805591 0 I I I I #
coedge $-1 $331 $187 $347 $366 0 $48 $-1 #
intcurve-curve $-1 0 { surfintcur nubs 3 open 5 
	15.597832304777791 3 17.477072384068656 2 20.972486860882388 2 24.467901337696119 2 25.177767551762454 3 
	-2.1923728682861761 -3.3456690222439289 -63.599999999999945 
	-2.1718057480323574 -3.359146385403124 -62.950775555004938 
	-2.1385784513530117 -3.3807678023568561 -62.290600526899922 
	-2.0026393965415625 -3.4641291341321487 -60.386473514194336 
	-1.864703700920737 -3.5454677314540648 -59.128772629680313 
	-1.4685530461452299 -3.7270421147247381 -56.642149002609258 
	-1.2103990805474667 -3.8272787196414271 -55.413442135615369 
	-0.81571403198416936 -3.9165388365963771 -53.990622043172237 
	-0.7462078199540525 -3.9304683929975832 -53.752352143322923 
	-0.67372000000006782 -3.942854468731976 -53.516241352360431 
	0.001 
	cone -3.1485950000000682 -34.733568601967775 -65.247309007125978 -1 0 0 0 27.426558806884195 13.28540094856033 1 I I -0.70710678118654768 0.70710678118654746 0 I I I I 
	cone 0 0 0 0 0 1 4 0 0 1 I I 0 1 0 I I I I 
	nullbs 
	nullbs 
	} I I #
coedge $-1 $189 $367 $368 $369 0 $48 $-1 #
edge $-1 $370 $281 $189 $371 0 #
vertex $-1 $280 $372 #
intcurve-curve $-1 0 { surfintcur nubs 3 open 5 
	2.8722929523556529 3 3.4933648957776167 2 6.9867297915552333 2 10.48009468733285 2 12.357449630609604 3 
	-3.9126895874321579 -0.83118000000000036 -53.595723624583222 
	-3.8996660762499058 -0.89248676459323506 -53.803544152840509 
	-3.8856080189439273 -0.95158460034080528 -54.012956489795769 
	-3.7873159097670461 -1.328832875838009 -55.409688716753273 
	-3.6806416451068324 -1.5809339036569963 -56.640557964358202 
	-3.4894057150511255 -1.9673644001911859 -59.129635498013542 
	-3.4048947300291457 -2.1017284913002561 -60.387765859607278 
	-3.3184399174016517 -2.234056710213935 -62.291546342650221 
	-3.2960770695247854 -2.2663783160447162 -62.951287159631065 
	-3.2821376012154326 -2.2863885861086275 -63.599999999999952 
	0.001 
	cone -34.733568601967889 -3.3060550000000011 -65.247309007125978 0 1 0 27.426558806884195 0 13.28540094856033 1 I I 0.70710678118654757 0.70710678118654757 0 I I I I 
	cone 0 0 0 0 0 1 4 0 0 1 I I 0 1 0 I I I I 
	nullbs 
	nullbs 
	} I I #
point $-1 -3.2821376012154326 -2.2863885861086275 -63.599999999999952 #
cone-surface $-1 -34.733568601967889 0.29749500000000018 -65.247309007125978 0 1 0 29.947747129095468 0 14.506662352998624 1 I I 0.65546724330437456 -0.75522360460658533 0 I I I I #
coedge $-1 $286 $196 $290 $373 1 $120 $-1 #
coedge $-1 $196 $285 $367 $374 1 $120 $-1 #
edge $-1 $291 $375 $196 $376 0 #
cone-surface $-1 34.733568601967761 -3.1485950000000007 -65.247309007125978 0 -1 0 -27.426558806884195 0 13.28540094856033 1 I I 0.70710678118654768 -0.70710678118654746 0 I I I I #
coedge $-1 $293 $199 $377 $378 0 $52 $-1 #
coedge $-1 $200 $368 $285 $373 0 $272 $-1 #
vertex $-1 $287 $379 #
intcurve-curve $-1 0 { surfintcur nubs 3 open 4 
	32.488842147017692 3 32.561340482959295 2 33.481242169462746 2 33.513849310658841 3 
	-1.1999999999991484 -1.4294766536027126e-006 -65 
	-1.214091427577586 0.016174279821151948 -64.99295429584528 
	-1.2281520003330995 0.0323105831710171 -64.985760706055515 
	-1.4202740518341268 0.2527372361674905 -64.885480177918197 
	-1.5945626907718045 0.45201439145061983 -64.77374881710216 
	-1.7768586387891134 0.65951397424766445 -64.652349557328904 
	-1.7830999554836966 0.66661707066298681 -64.64818541891259 
	-1.7893421092709045 0.67372000000000021 -64.644013098624001 
	0.001 
	cone 0 0 -64.299999999999997 0 0 -1 -2.5999999999999996 0 0 1 I I -0.89442719099991608 0.44721359549995754 0 I I I I 
	cone -34.733568601967889 0.29749500000000018 -65.247309007125978 0 1 0 29.947747129095468 0 14.506662352998624 1 I I 0.65546724330437456 -0.75522360460658533 0 I I I I 
	nullbs 
	nullbs 
	} I I #
coedge $-1 $202 $289 $380 $381 0 $52 $-1 #
coedge $-1 $382 $383 $202 $295 1 $384 $-1 #
edge $-1 $385 $299 $294 $386 0 #
coedge $-1 $387 $203 $383 $388 1 $298 $-1 #
coedge $-1 $203 $387 $205 $301 1 $298 $-1 #
loop $-1 $-1 $203 $389 #
vertex $-1 $204 $390 #
ellipse-curve $-1 -2.2204460492503131e-016 -0.01796433417761123 -64.991023284363649 0 -0.0073746028446805565 -0.99997280724671878 -6.4456520208340362e-013 -1.2179534312722344 0.008982167088794497 0.9998640288388827 I I #
edge $-1 $206 $328 $205 $391 0 #
point $-1 -0.042422677915252942 1.1992498973935741 -65 #
point $-1 -1.1999999999991484 -1.4294766536027126e-006 -65 #
coedge $-1 $392 $393 $209 $305 1 $48 $-1 #
edge $-1 $309 $394 $304 $395 0 #
coedge $-1 $307 $210 $213 $313 1 $308 $-1 #
coedge $-1 $210 $306 $392 $396 1 $308 $-1 #
loop $-1 $-1 $210 $397 #
vertex $-1 $396 $398 #
intcurve-curve $-1 0 { surfintcur nubs 3 open 4 
	29.736406821427831 3 30.432647344218594 2 31.315853435455928 2 32.190760719217941 3 
	0.67371999999995402 1.7893421092707911 -64.644013098624001 
	0.81523962789313731 1.9325693852254404 -64.552059119113437 
	0.95702349948112997 2.0765235484126463 -64.457214315495278 
	1.280228435586658 2.4058285453176831 -64.237965954299924 
	1.4620499915572438 2.5918947825136871 -64.112409987560568 
	1.8268815870886417 2.9670614393136865 -63.858075154577897 
	2.0092637577394759 3.1555003985861316 -63.7297105898841 
	2.1923728682861068 3.3456690222439738 -63.599999999999945 
	0.001 
	cone 0 0 -64.299999999999997 0 0 -1 2.5999999999999996 0 0 1 I I -0.89442719099991608 0.44721359549995743 0 I I I I 
	cone 3.1485949999999545 34.733568601967775 -65.247309007125978 1 0 0 0 -27.426558806884195 13.28540094856033 1 I I 0.70710678118654768 -0.70710678118654746 0 I I I I 
	nullbs 
	nullbs 
	} I I #
coedge $-1 $399 $212 $387 $400 0 $214 $-1 #
coedge $-1 $213 $399 $401 $402 1 $214 $-1 #
edge $-1 $403 $215 $213 $404 0 #
face $-1 $-1 $214 $3 $-1 $405 forward single #
point $-1 0.67371999999995402 1.7893421092707911 -64.644013098624001 #
coedge $-1 $406 $407 $217 $317 1 $408 $-1 #
edge $-1 $394 $321 $316 $409 0 #
coedge $-1 $410 $218 $407 $411 1 $320 $-1 #
coedge $-1 $218 $412 $220 $324 0 $320 $-1 #
loop $-1 $-1 $218 $413 #
vertex $-1 $317 $414 #
intcurve-curve $-1 0 { surfintcur nubs 3 open 3 
	30.286207887568942 3 30.541094292462599 2 31.33409974958327 3 
	1.7899197597482972 0.83118000000000025 -64.613253713113494 
	1.741160058197442 0.77575892917580047 -64.647036672498544 
	1.6924990749549975 0.72037974919190351 -64.68043385293592 
	1.492698524997401 0.4927163925079609 -64.815733343777012 
	1.3429560152544451 0.32143505293074415 -64.913881766726561 
	1.1910638422407511 0.14716221292179255 -64.999939629452726 
	0.001 
	cone 0 0 -64.299999999999997 0 0 -1 2.5999999999999996 0 0 1 I I -0.89442719099991608 0.44721359549995743 0 I I I I 
	cone 34.733568601967761 0.45495500000000011 -65.247309007125978 0 -1 0 -29.947747129095468 0 14.506662352998624 1 I I -0.65546724330437456 -0.75522360460658533 0 I I I I 
	nullbs 
	nullbs 
	} I I #
coedge $-1 $221 $220 $236 $337 1 $222 $-1 #
edge $-1 $415 $223 $319 $416 0 #
face $-1 $413 $222 $3 $-1 $417 reversed single #
point $-1 1.1910638422407511 0.14716221292179255 -64.999939629452726 #
straight-curve $-1 1.1992498973935661 0.030614999999999989 -65 0 -1 0 I I #
vertex $-1 $226 $418 #
straight-curve $-1 0.29749499999995399 1.4582077008888392 -65 0.7552146423792534 0.65547756936143609 0 I I #
coedge $-1 $338 $229 $232 $334 0 $48 $-1 #
coedge $-1 $229 $277 $343 $419 0 $48 $-1 #
vertex $-1 $242 $420 #
ellipse-curve $-1 0 0 -63.600000000000001 0 0 -1 4 0 0 1 I I #
edge $-1 $234 $340 $330 $421 0 #
point $-1 3.3456690222439507 -2.1923728682861423 -63.599999999999937 #
coedge $-1 $237 $236 $412 $422 1 $145 $-1 #
edge $-1 $252 $415 $236 $423 0 #
coedge $-1 $424 $330 $237 $339 0 $48 $-1 #
edge $-1 $340 $425 $338 $426 0 #
vertex $-1 $339 $427 #
ellipse-curve $-1 34.733568601967761 -0.67372000000000032 -65.247309007125978 0 -1 0 -29.653879008330474 0 14.364312893926751 1 F -3.6650000350582668e-016 F 0.44371452243946946 #
cone-surface $-1 34.733568601967761 -0.29749500000000018 -65.247309007125978 0 -1 0 -29.947747129095468 0 14.506662352998624 1 I I 0.65546724330437456 -0.75522360460658533 0 I I I I #
coedge $-1 $344 $241 $331 $419 1 $345 $-1 #
coedge $-1 $241 $343 $243 $348 0 $345 $-1 #
loop $-1 $-1 $241 $359 #
intcurve-curve $-1 0 { surfintcur nubs 3 open 3 
	23.514728358766153 3 24.604356512671131 2 25.859586210770257 3 
	2.2863885861086537 -3.282137601215414 -63.599999999999937 
	2.0576371606346866 -3.0445429328174205 -63.762854130407078 
	1.8300769750456589 -2.8097057699445123 -63.923783315148057 
	1.3434685796472416 -2.3104387901144401 -64.264275433740707 
	1.0863252435985999 -2.0484024625017754 -64.442304268014794 
	0.83117999999993275 -1.7899197597483105 -64.613253713113522 
	0.001 
	cone 0 0 -64.299999999999997 0 0 -1 2.5999999999999996 0 0 1 I I -0.89442719099991608 0.44721359549995754 0 I I I I 
	cone 3.3060549999999336 -34.733568601967775 -65.247309007125978 -1 0 0 0 27.426558806884195 13.28540094856033 1 I I -0.70710678118654757 -0.70710678118654757 0 I I I I 
	nullbs 
	nullbs 
	} I I #
coedge $-1 $349 $243 $277 $366 1 $245 $-1 #
edge $-1 $428 $246 $344 $429 0 #
coedge $-1 $244 $347 $255 $354 0 $245 $-1 #
point $-1 0.83117999999993275 -1.7899197597483105 -64.613253713113522 #
vertex $-1 $354 $430 #
straight-curve $-1 0.83117999999993275 -1.7847145949815388 -65.004317687034074 0.75522360460658555 -0.65544941934534373 -0.0048338105970675369 I I #
point $-1 1.1992498973949242 0.0008656296933715335 -65 #
edge $-1 $356 $351 $349 $431 0 #
straight-curve $-1 0.078729999999932521 -1.1316723534809672 -64.999501628900333 0.75522360460658555 0.65544941934534373 0.0048338105970675369 I I #
vertex $-1 $257 $432 #
intcurve-curve $-1 0 { surfintcur nubs 3 open 3 
	3.7848015838760354 3 3.8162912066513921 2 5.6658073743948369 3 
	-0.67372000000006782 -3.942854468731976 -53.516241352360431 
	-0.67002094774089638 -3.943486529972839 -53.505564989043329 
	-0.66631370635049469 -3.9441146287405431 -53.494892368931289 
	-0.44437556505279047 -3.9813938647654514 -52.857601194723479 
	-0.19826611508961733 -4.0046781557253865 -52.244752104939487 
	0.078729999999932521 -3.9992251233332499 -51.662428774746722 
	0.001 
	cone -0.29749500000006768 -34.733568601967775 -65.247309007125978 -1 0 0 0 29.947747129095468 14.506662352998624 1 I I -0.65546724330437456 0.75522360460658533 0 I I I I 
	cone 0 0 0 0 0 1 4 0 0 1 I I 0 1 0 I I I I 
	nullbs 
	nullbs 
	} I I #
point $-1 -0.67372000000006782 -3.942854468731976 -53.516241352360431 #
face $-1 $389 $345 $3 $-1 $433 forward single #
cone-surface $-1 0.45495499999993261 -34.733568601967775 -65.247309007125978 -1 0 0 0 29.947747129095468 14.506662352998624 1 I I -0.65546724330437456 -0.75522360460658533 0 I I I I #
ellipse-curve $-1 -34.733568601967889 -0.83118000000000025 -65.247309007125978 0 1 0 29.653879008330474 0 14.364312893926751 1 F -3.6650000350582668e-016 F 0.44371452243946946 #
coedge $-1 $368 $268 $266 $363 1 $272 $-1 #
edge $-1 $370 $270 $266 $434 0 #
straight-curve $-1 -1.1316723534810791 -0.078729999999999994 -64.999501628900333 0.65544941934534373 -0.75522360460658555 0.0048338105970675369 I I #
point $-1 -1.1316723534811075 -0.078729999999999994 -64.999501628900333 #
edge $-1 $356 $428 $277 $435 0 #
coedge $-1 $279 $377 $286 $374 0 $48 $-1 #
coedge $-1 $290 $362 $279 $369 1 $272 $-1 #
edge $-1 $436 $370 $279 $437 0 #
vertex $-1 $369 $438 #
intcurve-curve $-1 0 { surfintcur nubs 3 open 2 
	2.0288973536265957 3 3.975787662516109 3 
	-3.9992251233332459 -0.078729999999999994 -51.662428774746985 
	-3.9936623936211251 -0.36129837824243138 -52.281636727116897 
	-3.9594386325737023 -0.61111394674112041 -52.931935992585544 
	-3.9126895874321579 -0.83118000000000036 -53.595723624583222 
	0.001 
	cone -34.733568601967889 -0.45495500000000011 -65.247309007125978 0 1 0 29.947747129095468 0 14.506662352998624 1 I I 0.65546724330437456 0.75522360460658533 0 I I I I 
	cone 0 0 0 0 0 1 4 0 0 1 I I 0 1 0 I I I I 
	nullbs 
	nullbs 
	} I I #
point $-1 -3.9126895874321579 -0.83118000000000036 -53.595723624583222 #
edge $-1 $436 $291 $290 $439 0 #
edge $-1 $375 $436 $367 $440 0 #
vertex $-1 $374 $441 #
intcurve-curve $-1 0 { surfintcur nubs 3 open 4 
	29.736406821427426 3 30.432647344218143 2 31.315853435455494 2 32.190760719217437 3 
	-1.7893421092709045 0.67372000000000021 -64.644013098624001 
	-1.9325693852255412 0.81523962789317117 -64.552059119113437 
	-2.0765235484127205 0.95702349948113774 -64.457214315495236 
	-2.4058285453177528 1.280228435586662 -64.237965954299895 
	-2.5918947825137595 1.46204999155725 -64.11240998756054 
	-2.967061439313746 1.8268815870886352 -63.858075154577868 
	-3.1555003985861725 2.009263757739451 -63.729710589884093 
	-3.345669022244 2.1923728682860681 -63.599999999999945 
	0.001 
	cone 0 0 -64.299999999999997 0 0 -1 -2.5999999999999996 0 0 1 I I -0.89442719099991608 0.44721359549995754 0 I I I I 
	cone -34.733568601967889 3.1485950000000007 -65.247309007125978 0 1 0 27.426558806884195 0 13.28540094856033 1 I I 0.70710678118654768 -0.70710678118654746 0 I I I I 
	nullbs 
	nullbs 
	} I I #
coedge $-1 $367 $442 $289 $378 1 $48 $-1 #
edge $-1 $375 $443 $377 $444 0 #
point $-1 -1.7893421092709045 0.67372000000000021 -64.644013098624001 #
coedge $-1 $445 $446 $293 $381 1 $447 $-1 #
edge $-1 $443 $385 $380 $448 0 #
coedge $-1 $449 $294 $446 $450 1 $384 $-1 #
coedge $-1 $294 $451 $296 $388 0 $384 $-1 #
loop $-1 $-1 $294 $452 #
vertex $-1 $381 $453 #
intcurve-curve $-1 0 { surfintcur nubs 3 open 3 
	30.286207887568732 3 30.541094292462468 2 31.334099749583103 3 
	-0.83118000000004644 1.7899197597483125 -64.613253713113423 
	-0.77575892917582812 1.7411600581974409 -64.647036672498487 
	-0.7203797491919266 1.6924990749549949 -64.680433852935906 
	-0.49271639250797361 1.492698524997389 -64.81573334377704 
	-0.32143505293076313 1.3429560152544378 -64.913881766726561 
	-0.14716221292181772 1.1910638422407491 -64.999939629452726 
	0.001 
	cone 0 0 -64.299999999999997 0 0 -1 -2.5999999999999996 0 0 1 I I -0.89442719099991608 0.44721359549995754 0 I I I I 
	cone -0.45495500000004629 34.733568601967775 -65.247309007125978 1 0 0 0 -29.947747129095468 14.506662352998624 1 I I -0.65546724330437456 -0.75522360460658533 0 I I I I 
	nullbs 
	nullbs 
	} I I #
coedge $-1 $297 $296 $311 $400 1 $298 $-1 #
edge $-1 $454 $299 $383 $455 0 #
face $-1 $397 $298 $3 $-1 $456 reversed single #
point $-1 -0.14716221292181772 1.1910638422407491 -64.999939629452726 #
straight-curve $-1 -0.030615000000023096 1.1992498973935741 -65 1 0 0 I I #
coedge $-1 $401 $304 $307 $396 0 $48 $-1 #
coedge $-1 $304 $424 $406 $457 0 $48 $-1 #
vertex $-1 $317 $458 #
ellipse-curve $-1 0 0 -63.600000000000001 0 0 -1 4 0 0 1 I I #
edge $-1 $309 $403 $392 $459 0 #
face $-1 $314 $308 $3 $-1 $460 forward single #
point $-1 2.1923728682861068 3.3456690222439738 -63.599999999999945 #
coedge $-1 $312 $311 $451 $461 1 $214 $-1 #
edge $-1 $328 $454 $311 $462 0 #
coedge $-1 $463 $392 $312 $402 0 $48 $-1 #
edge $-1 $403 $464 $401 $465 0 #
vertex $-1 $402 $466 #
ellipse-curve $-1 0.67371999999995413 34.733568601967775 -65.247309007125978 1 0 0 0 -29.653879008330474 14.364312893926751 1 F -3.6650000350582668e-016 F 0.44371452243946946 #
cone-surface $-1 0.29749499999995399 34.733568601967775 -65.247309007125978 1 0 0 0 -29.947747129095468 14.506662352998624 1 I I 0.65546724330437456 -0.75522360460658533 0 I I I I #
coedge $-1 $407 $316 $393 $457 1 $408 $-1 #
coedge $-1 $316 $406 $318 $411 0 $408 $-1 #
loop $-1 $-1 $316 $467 #
intcurve-curve $-1 0 { surfintcur nubs 3 open 3 
	23.514728358765993 3 24.604356512671085 2 25.85958621077005 3 
	3.2821376012153807 2.2863885861087021 -63.599999999999937 
	3.0445429328173663 2.0576371606347146 -63.762854130407092 
	2.8097057699444257 1.8300769750456571 -63.923783315148071 
	2.310438790114365 1.3434685796472503 -64.264275433740707 
	2.0484024625017319 1.0863252435986372 -64.442304268014794 
	1.7899197597482972 0.83118000000000025 -64.613253713113494 
	0.001 
	cone 0 0 -64.299999999999997 0 0 -1 2.5999999999999996 0 0 1 I I -0.89442719099991608 0.44721359549995743 0 I I I I 
	cone 34.733568601967761 3.3060550000000011 -65.247309007125978 0 -1 0 -27.426558806884195 0 13.28540094856033 1 I I -0.70710678118654757 -0.70710678118654757 0 I I I I 
	nullbs 
	nullbs 
	} I I #
coedge $-1 $412 $318 $424 $468 1 $320 $-1 #
edge $-1 $469 $321 $407 $470 0 #
coedge $-1 $319 $410 $336 $422 0 $320 $-1 #
face $-1 $467 $320 $3 $-1 $471 forward single #
point $-1 1.7899197597482972 0.83118000000000025 -64.613253713113494 #
vertex $-1 $422 $472 #
straight-curve $-1 1.7847145949815229 0.83118000000000025 -65.004317687034074 0.65544941934534373 0.75522360460658555 -0.0048338105970675369 I I #
plane-surface $-1 6.7343299976510167 0.061229999999999979 -65.040820127464542 -0.0073746028446805565 0 -0.99997280724671878 -0.99997280724671922 0 0.0073746028446805591 0 I I I I #
point $-1 -0.00086562969341774654 1.1992498973949401 -65 #
edge $-1 $428 $332 $331 $473 0 #
point $-1 2.2863885861086537 -3.282137601215414 -63.599999999999937 #
intcurve-curve $-1 0 { surfintcur nubs 3 open 5 
	15.597832304777876 3 17.47707238406867 2 20.972486860882405 2 24.467901337696141 2 25.177767551762543 3 
	3.3456690222439507 -2.1923728682861423 -63.599999999999937 
	3.3591463854031458 -2.1718057480323236 -62.950775555004938 
	3.3807678023568779 -2.1385784513529758 -62.290600526899901 
	3.4641291341321678 -2.0026393965415275 -60.386473514194336 
	3.5454677314540817 -1.8647037009207039 -59.128772629680313 
	3.7270421147247514 -1.4685530461451928 -56.642149002609244 
	3.8272787196414408 -1.2103990805474214 -55.413442135615362 
	3.9165388365963878 -0.81571403198411685 -53.990622043172209 
	3.9304683929976028 -0.74620781995399099 -53.752352143322867 
	3.9428544687319955 -0.67372000000000032 -53.51624135236036 
	0.001 
	cone 34.733568601967761 -3.1485950000000007 -65.247309007125978 0 -1 0 -27.426558806884195 0 13.28540094856033 1 I I -0.70710678118654768 0.70710678118654746 0 I I I I 
	cone 0 0 0 0 0 1 4 0 0 1 I I 0 1 0 I I I I 
	nullbs 
	nullbs 
	} I I #
edge $-1 $425 $415 $412 $474 0 #
straight-curve $-1 1.1316723534809512 0.078729999999999994 -64.999501628900333 -0.65544941934534373 0.75522360460658555 0.0048338105970675369 I I #
coedge $-1 $393 $338 $410 $468 0 $48 $-1 #
vertex $-1 $339 $475 #
intcurve-curve $-1 0 { surfintcur nubs 3 open 3 
	3.7848015838760767 3 3.8162912066513908 2 5.6658073743948805 3 
	3.9428544687319955 -0.67372000000000032 -53.51624135236036 
	3.9434865299728576 -0.67002094774083376 -53.505564989043272 
	3.9441146287405529 -0.66631370635043718 -53.494892368931247 
	3.9813938647654585 -0.44437556505273013 -52.857601194723443 
	4.0046781557254025 -0.19826611508956316 -52.244752104939437 
	3.9992251233332614 0.078729999999999981 -51.662428774746658 
	0.001 
	cone 34.733568601967761 -0.29749500000000018 -65.247309007125978 0 -1 0 -29.947747129095468 0 14.506662352998624 1 I I -0.65546724330437456 0.75522360460658533 0 I I I I 
	cone 0 0 0 0 0 1 4 0 0 1 I I 0 1 0 I I I I 
	nullbs 
	nullbs 
	} I I #
point $-1 3.9428544687319955 -0.67372000000000032 -53.51624135236036 #
vertex $-1 $366 $476 #
ellipse-curve $-1 0.83117999999993275 -34.733568601967775 -65.247309007125978 -1 0 0 0 29.653879008330474 14.364312893926751 1 F -3.6650000350582668e-016 F 0.44371452243946946 #
point $-1 0.078729999999932521 -1.1316723534809956 -64.999501628900333 #
ellipse-curve $-1 0.078729999999932521 -34.733568601967775 -65.247309007125978 -1 0 0 0 30.241615249860455 14.649011812070494 1 F -4.0273463938569916e-016 F 0.44371452243946991 #
point $-1 0.078729999999932521 -3.9992251233332499 -51.662428774746722 #
cone-surface $-1 3.3060549999999336 -34.733568601967775 -65.247309007125978 -1 0 0 0 27.426558806884195 13.28540094856033 1 I I -0.70710678118654757 -0.70710678118654757 0 I I I I #
ellipse-curve $-1 -34.733568601967889 -0.078729999999999994 -65.247309007125978 0 1 0 30.241615249860455 0 14.649011812070494 1 F -4.0273463938569916e-016 F 0.44371452243946991 #
intcurve-curve $-1 0 { surfintcur nubs 3 open 2 
	2.0288973536264354 3 3.9757876625159061 3 
	0.078729999999932521 -3.9992251233332499 -51.662428774746722 
	0.361298378242359 -3.9936623936211335 -52.281636727116606 
	0.61111394674104791 -3.9594386325737041 -52.931935992585238 
	0.83117999999993275 -3.9126895874321628 -53.595723624582902 
	0.001 
	cone 0.45495499999993261 -34.733568601967775 -65.247309007125978 -1 0 0 0 29.947747129095468 14.506662352998624 1 I I 0.65546724330437456 0.75522360460658533 0 I I I I 
	cone 0 0 0 0 0 1 4 0 0 1 I I 0 1 0 I I I I 
	nullbs 
	nullbs 
	} I I #
vertex $-1 $369 $477 #
intcurve-curve $-1 0 { surfintcur nubs 3 open 3 
	3.7848015838762543 3 3.8162912066514796 2 5.6658073743949817 3 
	-3.9428544687320262 0.67372000000000032 -53.516241352360602 
	-3.9434865299728861 0.67002094774084586 -53.505564989043549 
	-3.9441146287405546 0.66631370635042675 -53.494892368931559 
	-3.9813938647654581 0.44437556505273446 -52.85760119472377 
	-4.0046781557253865 0.19826611508954875 -52.244752104939749 
	-3.9992251233332459 -0.078729999999999994 -51.662428774746985 
	0.001 
	cone -34.733568601967889 0.29749500000000018 -65.247309007125978 0 1 0 29.947747129095468 0 14.506662352998624 1 I I -0.65546724330437456 0.75522360460658533 0 I I I I 
	cone 0 0 0 0 0 1 4 0 0 1 I I 0 1 0 I I I I 
	nullbs 
	nullbs 
	} I I #
point $-1 -3.9992251233332459 -0.078729999999999994 -51.662428774746985 #
ellipse-curve $-1 -34.733568601967889 0.67372000000000032 -65.247309007125978 0 1 0 29.653879008330474 0 14.364312893926751 1 F -3.6650000350582668e-016 F 0.44371452243946946 #
intcurve-curve $-1 0 { surfintcur nubs 3 open 5 
	15.597832304777475 3 17.477072384068297 2 20.972486860881968 2 24.467901337695643 2 25.177767551761999 3 
	-3.345669022244 2.1923728682860681 -63.599999999999945 
	-3.3591463854031942 2.1718057480322495 -62.950775555004952 
	-3.3807678023569245 2.1385784513529016 -62.290600526899958 
	-3.46412913413221 2.0026393965414542 -60.386473514194414 
	-3.5454677314541181 1.8647037009206346 -59.128772629680412 
	-3.7270421147247754 1.4685530461451322 -56.642149002609393 
	-3.8272787196414564 1.2103990805473683 -55.413442135615547 
	-3.9165388365963953 0.81571403198407699 -53.990622043172422 
	-3.9304683929976347 0.74620781995398522 -53.752352143323094 
	-3.9428544687320262 0.67372000000000032 -53.516241352360602 
	0.001 
	cone -34.733568601967889 3.1485950000000007 -65.247309007125978 0 1 0 27.426558806884195 0 13.28540094856033 1 I I -0.70710678118654768 0.70710678118654746 0 I I I I 
	cone 0 0 0 0 0 1 4 0 0 1 I I 0 1 0 I I I I 
	nullbs 
	nullbs 
	} I I #
point $-1 -3.345669022244 2.1923728682860681 -63.599999999999945 #
coedge $-1 $377 $463 $445 $478 0 $48 $-1 #
vertex $-1 $378 $479 #
ellipse-curve $-1 0 0 -63.600000000000001 0 0 -1 -4 0 0 1 I I #
coedge $-1 $446 $380 $442 $478 1 $447 $-1 #
coedge $-1 $380 $445 $382 $450 0 $447 $-1 #
loop $-1 $-1 $380 $480 #
intcurve-curve $-1 0 { surfintcur nubs 3 open 3 
	23.514728358765868 3 24.604356512671014 2 25.859586210769866 3 
	-2.2863885861087203 3.2821376012153682 -63.599999999999923 
	-2.0576371606347195 3.0445429328173397 -63.762854130407085 
	-1.8300769750456576 2.8097057699443937 -63.923783315148093 
	-1.3434685796472627 2.3104387901143455 -64.264275433740721 
	-1.0863252435986546 2.0484024625017181 -64.442304268014738 
	-0.83118000000004644 1.7899197597483125 -64.613253713113423 
	0.001 
	cone 0 0 -64.299999999999997 0 0 -1 -2.5999999999999996 0 0 1 I I -0.89442719099991608 0.44721359549995754 0 I I I I 
	cone -3.3060550000000473 34.733568601967775 -65.247309007125978 1 0 0 0 -27.426558806884195 13.28540094856033 1 I I -0.70710678118654757 -0.70710678118654757 0 I I I I 
	nullbs 
	nullbs 
	} I I #
coedge $-1 $451 $382 $463 $481 1 $384 $-1 #
edge $-1 $482 $385 $446 $483 0 #
coedge $-1 $383 $449 $399 $461 0 $384 $-1 #
face $-1 $480 $384 $3 $-1 $484 forward single #
point $-1 -0.83118000000004644 1.7899197597483125 -64.613253713113423 #
vertex $-1 $461 $485 #
straight-curve $-1 -0.83118000000004644 1.7847145949815388 -65.004317687034074 -0.75522360460658555 0.65544941934534373 -0.0048338105970675369 I I #
plane-surface $-1 -0.061230000000046192 6.7343299976510327 -65.040820127464542 0 -0.0073746028446805565 -0.99997280724671878 0 -0.99997280724671922 0.0073746028446805591 0 I I I I #
edge $-1 $469 $394 $393 $486 0 #
point $-1 3.2821376012153807 2.2863885861087021 -63.599999999999937 #
intcurve-curve $-1 0 { surfintcur nubs 3 open 5 
	15.59783230477778 3 17.477072384068645 2 20.97248686088238 2 24.467901337696112 2 25.177767551762518 3 
	2.1923728682861068 3.3456690222439738 -63.599999999999945 
	2.1718057480322877 3.3591463854031685 -62.950775555004938 
	2.1385784513529429 3.3807678023568983 -62.290600526899922 
	2.002639396541491 3.4641291341321883 -60.386473514194336 
	1.8647037009206637 3.545467731454103 -59.128772629680313 
	1.4685530461451484 3.7270421147247692 -56.642149002609244 
	1.2103990805473772 3.8272787196414559 -55.413442135615377 
	0.81571403198406944 3.9165388365963985 -53.990622043172223 
	0.74620781995394558 3.9304683929976099 -53.752352143322881 
	0.67371999999995424 3.9428544687320017 -53.516241352360375 
	0.001 
	cone 3.1485949999999545 34.733568601967775 -65.247309007125978 1 0 0 0 -27.426558806884195 13.28540094856033 1 I I -0.70710678118654768 0.70710678118654746 0 I I I I 
	cone 0 0 0 0 0 1 4 0 0 1 I I 0 1 0 I I I I 
	nullbs 
	nullbs 
	} I I #
cone-surface $-1 3.1485949999999545 34.733568601967775 -65.247309007125978 1 0 0 0 -27.426558806884195 13.28540094856033 1 I I 0.70710678118654768 -0.70710678118654746 0 I I I I #
edge $-1 $464 $454 $451 $487 0 #
straight-curve $-1 -0.078730000000046207 1.1316723534809672 -64.999501628900333 -0.75522360460658555 -0.65544941934534373 0.0048338105970675369 I I #
coedge $-1 $442 $401 $449 $481 0 $48 $-1 #
vertex $-1 $402 $488 #
intcurve-curve $-1 0 { surfintcur nubs 3 open 3 
	3.7848015838760198 3 3.8162912066513481 2 5.6658073743947854 3 
	0.67371999999995424 3.9428544687320017 -53.516241352360375 
	0.67002094774078746 3.9434865299728639 -53.505564989043286 
	0.666313706350387 3.9441146287405617 -53.494892368931254 
	0.44437556505268239 3.9813938647654643 -52.857601194723458 
	0.19826611508950032 4.0046781557253937 -52.244752104939458 
	-0.078730000000046207 3.9992251233332499 -51.662428774746722 
	0.001 
	cone 0.29749499999995399 34.733568601967775 -65.247309007125978 1 0 0 0 -29.947747129095468 14.506662352998624 1 I I -0.65546724330437456 0.75522360460658533 0 I I I I 
	cone 0 0 0 0 0 1 4 0 0 1 I I 0 1 0 I I I I 
	nullbs 
	nullbs 
	} I I #
point $-1 0.67371999999995424 3.9428544687320017 -53.516241352360375 #
face $-1 $452 $408 $3 $-1 $489 forward single #
edge $-1 $425 $469 $424 $490 0 #
vertex $-1 $468 $491 #
ellipse-curve $-1 34.733568601967761 0.83118000000000025 -65.247309007125978 0 -1 0 -29.653879008330474 0 14.364312893926751 1 F -3.6650000350582668e-016 F 0.44371452243946946 #
cone-surface $-1 34.733568601967761 0.45495500000000011 -65.247309007125978 0 -1 0 -29.947747129095468 0 14.506662352998624 1 I I -0.65546724330437456 -0.75522360460658533 0 I I I I #
point $-1 1.1316723534809796 0.078729999999999994 -64.999501628900333 #
intcurve-curve $-1 0 { surfintcur nubs 3 open 5 
	2.8722929523555778 3 3.4933648957776819 2 6.9867297915553639 2 10.480094687333047 2 12.357449630609862 3 
	0.83117999999993275 -3.9126895874321628 -53.595723624582902 
	0.89248676459318455 -3.899666076249908 -53.803544152840239 
	0.95158460034077375 -3.8856080189439357 -54.012956489795542 
	1.3288328758380026 -3.7873159097670497 -55.409688716753102 
	1.5809339036569963 -3.6806416451068324 -56.640557964358045 
	1.9673644001911998 -3.4894057150511189 -59.129635498013428 
	2.1017284913002761 -3.4048947300291323 -60.387765859607178 
	2.2340567102139604 -3.3184399174016344 -62.291546342650172 
	2.2663783160447419 -3.2960770695247676 -62.951287159631029 
	2.2863885861086537 -3.282137601215414 -63.599999999999937 
	0.001 
	cone 3.3060549999999336 -34.733568601967775 -65.247309007125978 -1 0 0 0 27.426558806884195 13.28540094856033 1 I I 0.70710678118654757 0.70710678118654757 0 I I I I 
	cone 0 0 0 0 0 1 4 0 0 1 I I 0 1 0 I I I I 
	nullbs 
	nullbs 
	} I I #
ellipse-curve $-1 34.733568601967761 0.078729999999999994 -65.247309007125978 0 -1 0 -30.241615249860455 0 14.649011812070494 1 F -4.0273463938569916e-016 F 0.44371452243946991 #
point $-1 3.9992251233332614 0.078729999999999981 -51.662428774746658 #
point $-1 0.83117999999993275 -3.9126895874321628 -53.595723624582902 #
point $-1 -3.9428544687320262 0.67372000000000032 -53.516241352360602 #
edge $-1 $482 $443 $442 $492 0 #
point $-1 -2.2863885861087203 3.2821376012153682 -63.599999999999923 #
face $-1 $49 $447 $3 $-1 $493 forward single #
edge $-1 $464 $482 $463 $494 0 #
vertex $-1 $481 $495 #
ellipse-curve $-1 -0.83118000000004644 34.733568601967775 -65.247309007125978 1 0 0 0 -29.653879008330474 14.364312893926751 1 F -3.6650000350582668e-016 F 0.44371452243946946 #
cone-surface $-1 -0.45495500000004629 34.733568601967775 -65.247309007125978 1 0 0 0 -29.947747129095468 14.506662352998624 1 I I -0.65546724330437456 -0.75522360460658533 0 I I I I #
point $-1 -0.078730000000046207 1.1316723534809956 -64.999501628900333 #
intcurve-curve $-1 0 { surfintcur nubs 3 open 5 
	2.8722929523556564 3 3.4933648957776802 2 6.9867297915553603 2 10.48009468733304 2 12.357449630609855 3 
	3.9126895874321184 0.83118000000000025 -53.59572362458298 
	3.8996660762498641 0.89248676459324428 -53.803544152840296 
	3.8856080189439179 0.95158460034084491 -54.012956489795563 
	3.7873159097670279 1.3288328758380632 -55.409688716753102 
	3.6806416451068076 1.5809339036570549 -56.640557964358052 
	3.4894057150510882 1.9673644001912525 -59.129635498013442 
	3.4048947300291021 2.101728491300328 -60.387765859607178 
	3.3184399174016015 2.234056710214011 -62.291546342650172 
	3.2960770695247343 2.2663783160447903 -62.951287159631029 
	3.2821376012153807 2.2863885861087021 -63.599999999999937 
	0.001 
	cone 34.733568601967761 3.3060550000000011 -65.247309007125978 0 -1 0 -27.426558806884195 0 13.28540094856033 1 I I 0.70710678118654757 0.70710678118654757 0 I I I I 
	cone 0 0 0 0 0 1 4 0 0 1 I I 0 1 0 I I I I 
	nullbs 
	nullbs 
	} I I #
ellipse-curve $-1 -0.078730000000046207 34.733568601967775 -65.247309007125978 1 0 0 0 -30.241615249860455 14.649011812070494 1 F -4.0273463938569916e-016 F 0.44371452243946991 #
point $-1 -0.078730000000046207 3.9992251233332499 -51.662428774746722 #
cone-surface $-1 34.733568601967761 3.3060550000000011 -65.247309007125978 0 -1 0 -27.426558806884195 0 13.28540094856033 1 I I -0.70710678118654757 -0.70710678118654757 0 I I I I #
intcurve-curve $-1 0 { surfintcur nubs 3 open 2 
	2.0288973536265207 3 3.9757876625161153 3 
	3.9992251233332614 0.078729999999999981 -51.662428774746658 
	3.9936623936211402 0.36129837824244554 -52.281636727116592 
	3.9594386325736668 0.61111394674110231 -52.931935992585259 
	3.9126895874321184 0.83118000000000025 -53.59572362458298 
	0.001 
	cone 34.733568601967761 0.45495500000000011 -65.247309007125978 0 -1 0 -29.947747129095468 0 14.506662352998624 1 I I 0.65546724330437456 0.75522360460658533 0 I I I I 
	cone 0 0 0 0 0 1 4 0 0 1 I I 0 1 0 I I I I 
	nullbs 
	nullbs 
	} I I #
point $-1 3.9126895874321184 0.83118000000000025 -53.59572362458298 #
intcurve-curve $-1 0 { surfintcur nubs 3 open 5 
	2.8722929523556977 3 3.4933648957776779 2 6.9867297915553559 2 10.480094687333034 2 12.357449630609837 3 
	-0.83118000000004644 3.9126895874321144 -53.59572362458303 
	-0.89248676459328546 3.8996660762498605 -53.803544152840331 
	-0.95158460034087877 3.8856080189439099 -54.012956489795585 
	-1.3288328758380905 3.7873159097670186 -55.409688716753109 
	-1.5809339036570793 3.6806416451067978 -56.640557964358052 
	-1.9673644001912747 3.4894057150510767 -59.129635498013442 
	-2.1017284913003467 3.4048947300290902 -60.387765859607171 
	-2.2340567102140287 3.3184399174015895 -62.291546342650157 
	-2.2663783160448085 3.2960770695247223 -62.951287159631008 
	-2.2863885861087203 3.2821376012153682 -63.599999999999923 
	0.001 
	cone -3.3060550000000473 34.733568601967775 -65.247309007125978 1 0 0 0 -27.426558806884195 13.28540094856033 1 I I 0.70710678118654757 0.70710678118654757 0 I I I I 
	cone 0 0 0 0 0 1 4 0 0 1 I I 0 1 0 I I I I 
	nullbs 
	nullbs 
	} I I #
cone-surface $-1 -3.3060550000000473 34.733568601967775 -65.247309007125978 1 0 0 0 -27.426558806884195 13.28540094856033 1 I I -0.70710678118654757 -0.70710678118654757 0 I I I I #
intcurve-curve $-1 0 { surfintcur nubs 3 open 2 
	2.0288973536265469 3 3.9757876625161206 3 
	-0.078730000000046207 3.9992251233332499 -51.662428774746722 
	-0.36129837824248612 3.9936623936211255 -52.281636727116648 
	-0.61111394674115638 3.9594386325736637 -52.931935992585323 
	-0.83118000000004644 3.9126895874321144 -53.59572362458303 
	0.001 
	cone -0.45495500000004629 34.733568601967775 -65.247309007125978 1 0 0 0 -29.947747129095468 14.506662352998624 1 I I 0.65546724330437456 0.75522360460658533 0 I I I I 
	cone 0 0 0 0 0 1 4 0 0 1 I I 0 1 0 I I I I 
	nullbs 
	nullbs 
	} I I #
point $-1 -0.83118000000004644 3.9126895874321144 -53.59572362458303 #
End-of-ACIS-data 