106 0 1 0           
body $-1 $1 $-1 $2 #
lump $-1 $3 $4 $0 #
transform $-1 -0.70710678118654746 0 0.70710678118654746 0.70710678118654735 0 0.70710678118654735 0 1 0 0 -165.00025312761227 0 1.000001534106741 1 0 0 #
lump $-1 $-1 $5 $0 #
shell $-1 $-1 $-1 $6 $1 #
shell $-1 $-1 $-1 $7 $3 #
face $-1 $8 $9 $4 $-1 $10 reversed single #
face $-1 $11 $12 $5 $-1 $13 forward single #
face $-1 $14 $15 $4 $-1 $16 forward single #
loop $-1 $-1 $17 $6 #
plane-surface $-1 -3.1112650642080979 3.1112650642080975 -65.999645621886586 0.70710678118654746 -0.70710678118654735 0 0 0 -0.99999846589561237 0 I I I I #
face $-1 $18 $19 $5 $-1 $20 forward single #
loop $-1 $21 $22 $7 #
cone-surface $-1 0 0 115.00007670521936 0 0 1 11.31369114257491 11.313691142574909 0 1 I I 0 1 0 I I I I #
face $-1 $23 $24 $4 $-1 $25 forward single #
loop $-1 $-1 $26 $8 #
plane-surface $-1 1.8384748106684272 8.0610049390846221 -64.999647155990971 -0.7063530851823745 0.70635308518237439 -0.046158835629619789 -0.70710569641093191 -0.70710569641093179 0 0 I I I I #
coedge $-1 $27 $28 $29 $30 1 $9 $-1 #
face $-1 $-1 $31 $5 $-1 $32 forward single #
loop $-1 $-1 $33 $11 #
plane-surface $-1 0 0 65.000153410438742 0 0 -1 -0.70710569641093191 -0.70710569641093179 0 0 I I I I #
loop $-1 $-1 $34 $7 #
coedge $-1 $22 $22 $33 $35 1 $12 $-1 #
face $-1 $36 $37 $4 $-1 $38 forward single #
loop $-1 $-1 $39 $14 #
plane-surface $-1 -4.7071036262100776 4.7071036262100767 -37.799688883630239 0 0 -1 -0.70710569641093191 0.70710569641093179 0 0 I I I I #
coedge $-1 $40 $41 $42 $43 1 $15 $-1 #
coedge $-1 $44 $17 $45 $46 0 $9 $-1 #
coedge $-1 $17 $44 $47 $48 1 $9 $-1 #
coedge $-1 $49 $50 $17 $30 0 $51 $-1 #
edge $-1 $52 $53 $29 $54 0 #
loop $-1 $-1 $55 $18 #
plane-surface $-1 0 0 164.99999999999997 0 0 1 0.70710569641093191 0.70710569641093179 0 0 I I I I #
coedge $-1 $33 $33 $22 $35 0 $19 $-1 #
coedge $-1 $34 $34 $55 $56 1 $21 $-1 #
edge $-1 $57 $57 $33 $58 0 #
face $-1 $59 $60 $4 $-1 $61 reversed single #
loop $-1 $-1 $62 $23 #
plane-surface $-1 4.6632842862034938 -4.6632842862034929 -37.799688883630296 0 0 -1 -0.70710569641093191 0.70710569641093179 0 0 I I I I #
coedge $-1 $63 $64 $65 $66 1 $24 $-1 #
coedge $-1 $67 $26 $64 $68 0 $15 $-1 #
coedge $-1 $26 $45 $69 $70 1 $15 $-1 #
coedge $-1 $71 $65 $26 $43 0 $72 $-1 #
edge $-1 $73 $74 $42 $75 0 #
coedge $-1 $28 $27 $76 $77 1 $9 $-1 #
coedge $-1 $41 $78 $27 $46 1 $15 $-1 #
edge $-1 $52 $79 $27 $80 1 #
coedge $-1 $81 $82 $28 $48 0 $83 $-1 #
edge $-1 $53 $84 $47 $85 0 #
coedge $-1 $86 $29 $82 $87 1 $51 $-1 #
coedge $-1 $29 $86 $88 $89 0 $51 $-1 #
loop $-1 $-1 $29 $90 #
vertex $-1 $30 $91 #
vertex $-1 $48 $92 #
straight-curve $-1 -3.6769496213368402 2.5455805070793538 -65.999645621886501 0 0 -1 I I #
coedge $-1 $55 $55 $34 $56 0 $31 $-1 #
edge $-1 $93 $93 $55 $94 0 #
vertex $-1 $35 $95 #
ellipse-curve $-1 0 0 65.000153410438742 0 0 -1 11.31369114257491 11.313691142574909 0 1 I I #
face $-1 $96 $97 $4 $-1 $98 forward single #
loop $-1 $-1 $99 $36 #
plane-surface $-1 3.1112650642081023 -3.1112650642081014 -65.999645621886586 -0.70710678118654746 0.70710678118654735 0 0 0 0.99999846589561237 0 I I I I #
coedge $-1 $100 $101 $102 $103 1 $37 $-1 #
coedge $-1 $64 $39 $104 $105 1 $24 $-1 #
coedge $-1 $39 $63 $40 $68 1 $24 $-1 #
coedge $-1 $42 $106 $39 $66 0 $72 $-1 #
edge $-1 $107 $73 $65 $108 0 #
coedge $-1 $78 $40 $109 $110 1 $15 $-1 #
edge $-1 $73 $111 $64 $112 1 #
coedge $-1 $88 $113 $41 $70 0 $114 $-1 #
edge $-1 $74 $52 $69 $115 0 #
coedge $-1 $116 $42 $113 $117 0 $72 $-1 #
loop $-1 $-1 $42 $118 #
vertex $-1 $43 $119 #
vertex $-1 $117 $120 #
straight-curve $-1 -4 4.344989038934866 -32.520374679376417 0 -0.065209019923028577 -0.99787162687425768 I I #
coedge $-1 $121 $122 $44 $77 0 $123 $-1 #
edge $-1 $84 $79 $76 $124 0 #
coedge $-1 $45 $67 $125 $126 1 $15 $-1 #
vertex $-1 $127 $128 #
straight-curve $-1 -3.1112650642080979 3.1112650642080975 -64.999647155990971 -0.70710569641093191 -0.70710569641093179 0 I I #
coedge $-1 $129 $47 $122 $130 0 $83 $-1 #
coedge $-1 $47 $129 $49 $87 0 $83 $-1 #
loop $-1 $-1 $47 $131 #
vertex $-1 $130 $132 #
straight-curve $-1 -3.111265064208097 3.111265064208097 -65 0.70710678118654746 0.70710678118654757 0 I I #
coedge $-1 $50 $49 $99 $133 0 $51 $-1 #
edge $-1 $134 $53 $82 $135 0 #
coedge $-1 $136 $69 $50 $89 1 $114 $-1 #
edge $-1 $137 $52 $50 $138 1 #
face $-1 $131 $51 $4 $-1 $139 reversed single #
point $-1 -3.6769496213368411 2.5455805070793547 -64.999647155990971 #
point $-1 -3.6769496213368407 2.5455805070793542 -65 #
vertex $-1 $56 $140 #
ellipse-curve $-1 0 0 164.99999999999997 0 0 1 11.31369114257491 11.313691142574909 0 1 I I #
point $-1 11.31369114257491 11.313691142574909 65.000153410438742 #
face $-1 $141 $142 $4 $-1 $143 reversed single #
loop $-1 $-1 $144 $59 #
plane-surface $-1 8.9059184646690888 0.99356128508396413 -37.79968888363031 0.70642547078021745 -0.70642547078021733 -0.043887452260254728 0.70710569641093191 0.70710569641093179 0 0 I I I I #
coedge $-1 $145 $146 $86 $133 1 $60 $-1 #
coedge $-1 $101 $62 $147 $148 1 $37 $-1 #
coedge $-1 $62 $100 $149 $150 1 $37 $-1 #
coedge $-1 $151 $152 $62 $103 0 $142 $-1 #
edge $-1 $153 $154 $102 $155 0 #
coedge $-1 $156 $109 $63 $105 0 $157 $-1 #
edge $-1 $111 $107 $104 $158 0 #
coedge $-1 $65 $159 $156 $160 0 $72 $-1 #
vertex $-1 $105 $161 #
straight-curve $-1 -4 2.3535518131050384 -37.799688883630239 0 -1 0 I I #
coedge $-1 $104 $162 $67 $110 0 $157 $-1 #
edge $-1 $163 $111 $109 $164 0 #
vertex $-1 $110 $165 #
straight-curve $-1 -3.9999979297991457 3.9999979297991448 -37.799688883630239 -0.70710569641093191 -0.70710569641093179 0 I I #
coedge $-1 $69 $166 $71 $117 1 $114 $-1 #
loop $-1 $-1 $69 $141 #
straight-curve $-1 -6.2613792723629036 1.7744695658128244 -37.251042851170418 0.092700452687946924 0.027658842754592541 -0.9953098082953501 I I #
coedge $-1 $167 $71 $168 $169 0 $72 $-1 #
edge $-1 $74 $170 $71 $171 0 #
face $-1 $-1 $72 $4 $-1 $172 reversed single #
point $-1 -4 3.9999958595982905 -37.799688883630239 #
point $-1 -4 2.449192632304527 -61.531107347028609 #
coedge $-1 $173 $76 $174 $127 0 $123 $-1 #
coedge $-1 $76 $173 $81 $130 1 $123 $-1 #
loop $-1 $-1 $76 $175 #
straight-curve $-1 -2.5455805070793502 3.6769496213368442 -65.999645621886501 0 0 1 I I #
coedge $-1 $176 $174 $78 $126 0 $177 $-1 #
edge $-1 $79 $163 $125 $178 0 #
edge $-1 $79 $179 $121 $180 1 #
point $-1 -2.5455805070793551 3.6769496213368402 -64.999647155990971 #
coedge $-1 $82 $81 $145 $181 0 $83 $-1 #
edge $-1 $84 $182 $81 $183 0 #
face $-1 $175 $83 $4 $-1 $184 reversed single #
point $-1 -2.5455805070793511 3.6769496213368451 -65 #
edge $-1 $134 $137 $86 $185 0 #
vertex $-1 $87 $186 #
straight-curve $-1 -0.56568455712874377 -0.56568455712874333 -65 -0.70710678118654746 0.70710678118654757 0 I I #
coedge $-1 $187 $88 $188 $189 0 $114 $-1 #
vertex $-1 $89 $190 #
straight-curve $-1 -0.5656845571287441 -0.56568455712874322 -64.9996471559908 0.70710569641093191 -0.70710569641093179 0 I I #
plane-surface $-1 -0.5656845571287441 -0.56568455712874322 -65.999645621886415 0.70710678118654746 0.70710678118654735 0 0 0 -0.99999846589561237 0 I I I I #
point $-1 11.31369114257491 11.313691142574909 164.99999999999997 #
face $-1 $191 $114 $4 $-1 $192 forward single #
loop $-1 $-1 $152 $96 #
plane-surface $-1 0 -4 0 0 1 0 0 0 1 0 I I I I #
coedge $-1 $188 $147 $152 $193 1 $97 $-1 #
coedge $-1 $194 $99 $129 $181 1 $60 $-1 #
coedge $-1 $99 $194 $195 $196 0 $60 $-1 #
coedge $-1 $144 $197 $100 $148 0 $97 $-1 #
edge $-1 $198 $153 $100 $199 1 #
coedge $-1 $200 $201 $101 $150 0 $202 $-1 #
edge $-1 $154 $198 $149 $203 0 #
coedge $-1 $204 $102 $201 $205 1 $142 $-1 #
coedge $-1 $102 $206 $144 $193 0 $142 $-1 #
vertex $-1 $193 $207 #
vertex $-1 $150 $208 #
straight-curve $-1 2.3316421431017469 -4 -37.799688883630296 1 0 0 I I #
coedge $-1 $209 $104 $106 $160 1 $157 $-1 #
loop $-1 $-1 $104 $210 #
straight-curve $-1 -2.3535518131050388 4 -37.799688883630239 -1 0 0 I I #
coedge $-1 $106 $167 $211 $212 1 $72 $-1 #
edge $-1 $213 $107 $156 $214 0 #
point $-1 -4 4 -37.799688883630239 #
coedge $-1 $109 $215 $176 $216 0 $157 $-1 #
vertex $-1 $126 $217 #
straight-curve $-1 -4.3239416744605066 4 -32.842455395422064 -0.065209019923028577 0 0.9978716268742579 I I #
point $-1 -3.9999958595982905 4 -37.799688883630239 #
coedge $-1 $113 $187 $218 $219 0 $114 $-1 #
coedge $-1 $159 $116 $220 $221 1 $72 $-1 #
coedge $-1 $218 $222 $116 $169 1 $223 $-1 #
edge $-1 $170 $224 $116 $225 0 #
vertex $-1 $117 $226 #
straight-curve $-1 -4 -4.4954629505354564 -4.1023579395216281 0 -0.12005187756363474 0.9927676196842069 I I #
plane-surface $-1 -4 0 0 1 0 0 0 0 -1 0 I I I I #
coedge $-1 $122 $121 $194 $227 0 $123 $-1 #
coedge $-1 $125 $228 $121 $127 1 $177 $-1 #
face $-1 $229 $123 $4 $-1 $230 reversed single #
coedge $-1 $231 $125 $162 $216 1 $177 $-1 #
loop $-1 $-1 $125 $232 #
straight-curve $-1 -2.5455340254218055 3.677105407706303 -64.997974502869738 0.027658842754592534 0.092700452687946938 0.9953098082953501 I I #
vertex $-1 $227 $233 #
straight-curve $-1 0.56568455712874677 0.56568455712874677 -64.9996471559908 -0.70710569641093191 0.70710569641093179 0 I I #
edge $-1 $182 $134 $129 $234 0 #
vertex $-1 $227 $235 #
straight-curve $-1 0.56568455712874677 0.56568455712874666 -65 0.70710678118654746 -0.70710678118654757 0 I I #
plane-surface $-1 0 0 -65 0 0 1 1 0 0 0 I I I I #
straight-curve $-1 2.5455805070793573 -3.6769496213368451 -65.999645621886501 0 0 1 I I #
point $-1 2.5455805070793587 -3.676949621336846 -65 #
coedge $-1 $166 $136 $206 $236 1 $114 $-1 #
coedge $-1 $195 $144 $136 $189 1 $97 $-1 #
edge $-1 $137 $237 $136 $238 0 #
point $-1 2.5455805070793582 -3.6769496213368456 -64.999647155990971 #
face $-1 $90 $202 $4 $-1 $239 reversed single #
plane-surface $-1 0.94974901613434604 -8.9497307336187042 -8.1997342931200983 -0.704535828297848 -0.70453582829784789 -0.085197026293939618 -0.70710569641093191 0.70710569641093179 0 0 I I I I #
edge $-1 $237 $153 $152 $240 0 #
coedge $-1 $146 $145 $173 $227 1 $60 $-1 #
coedge $-1 $241 $188 $146 $196 1 $97 $-1 #
edge $-1 $179 $137 $146 $242 1 #
coedge $-1 $147 $241 $200 $243 1 $97 $-1 #
vertex $-1 $243 $244 #
straight-curve $-1 3.956178589792561 -3.9561785897925619 -37.799688883630296 0.70710569641093191 0.70710569641093179 0 I I #
coedge $-1 $245 $149 $197 $243 0 $202 $-1 #
coedge $-1 $149 $246 $151 $205 0 $202 $-1 #
loop $-1 $-1 $149 $191 #
straight-curve $-1 4 -2.3316421431017464 -37.799688883630296 0 1 0 I I #
coedge $-1 $220 $151 $247 $248 1 $142 $-1 #
edge $-1 $249 $154 $201 $250 0 #
coedge $-1 $152 $251 $187 $236 0 $142 $-1 #
point $-1 3.9123571795851229 -4 -37.799688883630296 #
point $-1 4 -4 -37.799688883630296 #
coedge $-1 $252 $156 $253 $254 1 $157 $-1 #
face $-1 $255 $157 $4 $-1 $256 reversed single #
coedge $-1 $247 $253 $159 $212 0 $257 $-1 #
edge $-1 $213 $258 $159 $259 0 #
vertex $-1 $254 $260 #
straight-curve $-1 -4 4 0 0 0 -1 I I #
coedge $-1 $162 $252 $261 $262 0 $157 $-1 #
edge $-1 $263 $163 $162 $264 0 #
point $-1 -2.4491926323045239 4 -61.531107347028673 #
coedge $-1 $222 $168 $166 $219 1 $223 $-1 #
edge $-1 $265 $170 $218 $266 1 #
coedge $-1 $251 $204 $167 $221 0 $142 $-1 #
edge $-1 $258 $224 $167 $267 0 #
coedge $-1 $168 $218 $251 $268 1 $223 $-1 #
loop $-1 $-1 $168 $229 #
vertex $-1 $268 $269 #
straight-curve $-1 -4 -2.3535482775765564 -8.1997342931200379 0 -1 0 I I #
point $-1 -4 -3.9999817174843626 -8.1997342931200379 #
edge $-1 $179 $182 $173 $270 0 #
coedge $-1 $174 $271 $241 $272 0 $177 $-1 #
face $-1 $273 $223 $4 $-1 $274 forward single #
plane-surface $-1 0.56568455712874677 0.56568455712874677 -65.999645621886415 -0.70710678118654746 -0.70710678118654735 0 0 0 0.99999846589561237 0 I I I I #
coedge $-1 $271 $176 $275 $276 0 $177 $-1 #
face $-1 $210 $177 $4 $-1 $277 forward single #
point $-1 3.6769496213368447 -2.5455805070793591 -64.999647155990971 #
straight-curve $-1 3.1112650642081014 -3.111265064208101 -65 -0.70710678118654746 -0.70710678118654757 0 I I #
point $-1 3.6769496213368482 -2.5455805070793551 -65 #
edge $-1 $265 $237 $206 $278 0 #
vertex $-1 $189 $279 #
straight-curve $-1 1.3233188248795171 -7.4819955285596293 -23.426384910875676 -0.02926527145424342 -0.091106268806785073 0.99541106668090407 I I #
plane-surface $-1 4 0 0 -1 0 0 0 0 1 0 I I I I #
straight-curve $-1 5.0840946507939 -4 -18.939054417521152 0.062006543267542118 0 0.99807574291333734 I I #
coedge $-1 $197 $195 $228 $272 1 $97 $-1 #
straight-curve $-1 3.1112650642081023 -3.1112650642081014 -64.999647155990971 0.70710569641093191 0.70710569641093179 0 I I #
edge $-1 $198 $280 $200 $281 0 #
point $-1 4 -3.9123571795851229 -37.799688883630296 #
coedge $-1 $282 $200 $271 $283 0 $202 $-1 #
coedge $-1 $201 $284 $285 $286 1 $202 $-1 #
coedge $-1 $285 $211 $204 $248 0 $257 $-1 #
edge $-1 $258 $249 $204 $287 0 #
vertex $-1 $286 $288 #
straight-curve $-1 4 -4 0 0 0 -1 I I #
coedge $-1 $206 $220 $222 $268 0 $142 $-1 #
coedge $-1 $215 $209 $284 $289 0 $157 $-1 #
coedge $-1 $211 $285 $209 $254 0 $257 $-1 #
edge $-1 $290 $213 $209 $291 0 #
face $-1 $118 $257 $4 $-1 $292 forward single #
plane-surface $-1 0 4 0 0 -1 0 0 0 -1 0 I I I I #
loop $-1 $-1 $285 $255 #
vertex $-1 $212 $293 #
straight-curve $-1 -4 0 65 0 -1 0 I I #
point $-1 -4 4 65 #
coedge $-1 $294 $275 $215 $262 1 $295 $-1 #
edge $-1 $296 $263 $215 $297 0 #
vertex $-1 $216 $298 #
straight-curve $-1 1.0859050385282352 4 -32.297657847968907 -0.12005187756363472 0 -0.9927676196842069 I I #
vertex $-1 $236 $299 #
straight-curve $-1 -3.9999908587421817 -3.9999908587421809 -8.1997342931200379 0.70710569641093191 -0.70710569641093179 0 I I #
straight-curve $-1 -4 -4 0 0 0 -1 I I #
edge $-1 $224 $265 $251 $300 0 #
point $-1 -4 -4 -8.1997342931200379 #
straight-curve $-1 3.6769496213368478 -2.5455805070793547 -65.999645621886501 0 0 -1 I I #
coedge $-1 $228 $231 $245 $283 1 $177 $-1 #
edge $-1 $280 $179 $228 $301 0 #
face $-1 $232 $295 $4 $-1 $302 forward single #
plane-surface $-1 -4.7070965551531136 -4.7070965551531128 -8.1997342931200379 0 0 -1 -0.70710569641093191 -0.70710569641093179 0 0 I I I I #
coedge $-1 $261 $294 $231 $276 1 $295 $-1 #
edge $-1 $263 $303 $275 $304 1 #
plane-surface $-1 5.5154244320052728 -4.3840553177477775 -64.999647155990885 0.704535828297848 0.70453582829784789 -0.085197026293939618 0.70710569641093191 -0.70710569641093179 0 0 I I I I #
straight-curve $-1 -4.4241250557092098 -4 -4.6922858396695855 0.12005187756363472 0 -0.9927676196842069 I I #
point $-1 2.4418098538763084 -4 -61.470055545794153 #
vertex $-1 $283 $305 #
straight-curve $-1 4 -5.0650638344563941 -19.245380091447995 0 0.062006543267542132 -0.99807574291333745 I I #
coedge $-1 $284 $245 $294 $306 0 $202 $-1 #
edge $-1 $280 $303 $245 $307 0 #
coedge $-1 $246 $282 $252 $289 1 $202 $-1 #
coedge $-1 $253 $247 $246 $286 0 $257 $-1 #
edge $-1 $249 $290 $246 $308 0 #
straight-curve $-1 0 -4 65 1 0 0 I I #
point $-1 4 -4 65 #
edge $-1 $290 $296 $284 $309 0 #
vertex $-1 $286 $310 #
straight-curve $-1 0 4 65 -1 0 0 I I #
plane-surface $-1 0 0 65 0 0 1 1 0 0 0 I I I I #
point $-1 -4 -4 65 #
coedge $-1 $275 $261 $282 $306 1 $295 $-1 #
loop $-1 $-1 $294 $273 #
vertex $-1 $262 $311 #
straight-curve $-1 2.3535482775765577 4 -8.1997342931200379 -1 0 0 I I #
point $-1 3.9999817174843644 4 -8.1997342931200379 #
point $-1 -3.9999817174843626 -4 -8.1997342931200379 #
straight-curve $-1 -2.3535482775765568 -4 -8.1997342931200379 1 0 0 I I #
straight-curve $-1 4.9419054261503801 -2.1392497958085688 -51.178962548173224 -0.09110626880678506 -0.029265271454243423 -0.99541106668090407 I I #
plane-surface $-1 4.7070965551531154 4.7070965551531145 -8.1997342931200379 0 0 -1 -0.70710569641093191 -0.70710569641093179 0 0 I I I I #
vertex $-1 $283 $312 #
straight-curve $-1 3.9999908587421826 3.9999908587421817 -8.1997342931200379 -0.70710569641093191 0.70710569641093179 0 I I #
point $-1 4 -2.4418098538763058 -61.470055545794196 #
edge $-1 $303 $296 $282 $313 0 #
straight-curve $-1 4 1.0145671437019868 -32.887585748116862 0 0.12005187756363474 0.9927676196842069 I I #
straight-curve $-1 4 0 65 0 1 0 I I #
straight-curve $-1 4 4 0 0 0 -1 I I #
point $-1 4 4 65 #
point $-1 4 4 -8.1997342931200379 #
point $-1 4 3.9999817174843644 -8.1997342931200379 #
straight-curve $-1 4 2.3535482775765573 -8.1997342931200379 0 1 0 I I #
End-of-ACIS-data 