106 0 1 0           
body $-1 $1 $-1 $2 #
lump $-1 $-1 $3 $0 #
transform $-1 1 0 0 0 1 0 0 0 1 -5 7 0 1 0 0 0 #
shell $-1 $-1 $-1 $4 $1 #
face $-1 $5 $6 $3 $-1 $7 reversed single #
face $-1 $8 $9 $3 $-1 $10 forward single #
loop $-1 $-1 $11 $4 #
cone-surface $-1 5 -7 -3.5 0 0 1 5 0 0 1 I I 0 1 0 I I I I #
face $-1 $12 $13 $3 $-1 $14 forward single #
loop $-1 $-1 $15 $5 #
plane-surface $-1 5 -9 0 -1 0 0 0 0 1 0 I I I I #
coedge $-1 $16 $17 $18 $19 1 $6 $-1 #
face $-1 $20 $21 $3 $-1 $22 forward single #
loop $-1 $-1 $23 $8 #
plane-surface $-1 15 -23 0 0 -0.1543768802736096 0.98801203375110147 -1 0 0 0 I I I I #
coedge $-1 $24 $25 $26 $27 1 $9 $-1 #
coedge $-1 $28 $11 $29 $30 1 $6 $-1 #
coedge $-1 $11 $28 $24 $31 1 $6 $-1 #
coedge $-1 $32 $33 $11 $19 0 $34 $-1 #
edge $-1 $35 $36 $18 $37 0 #
face $-1 $38 $39 $3 $-1 $40 forward single #
loop $-1 $-1 $41 $12 #
plane-surface $-1 15 -39 -4.5 0 -0.1543768802736096 -0.98801203375110147 1 0 0 0 I I I I #
coedge $-1 $42 $43 $44 $45 1 $13 $-1 #
coedge $-1 $46 $15 $17 $31 0 $9 $-1 #
coedge $-1 $15 $47 $48 $49 1 $9 $-1 #
coedge $-1 $50 $51 $15 $27 0 $52 $-1 #
edge $-1 $36 $53 $26 $54 0 #
coedge $-1 $17 $16 $55 $56 1 $6 $-1 #
coedge $-1 $57 $58 $16 $30 0 $59 $-1 #
edge $-1 $60 $35 $29 $61 0 #
edge $-1 $36 $62 $24 $63 0 #
coedge $-1 $64 $18 $51 $65 0 $34 $-1 #
coedge $-1 $18 $64 $66 $67 0 $34 $-1 #
loop $-1 $-1 $33 $68 #
vertex $-1 $19 $69 #
vertex $-1 $65 $70 #
ellipse-curve $-1 5 -7 -3.5 0 0 -1 5 0 0 1 I I #
face $-1 $71 $72 $3 $-1 $73 forward single #
loop $-1 $-1 $74 $20 #
plane-surface $-1 5 -39 0 0 -1 0 0 0 -1 0 I I I I #
coedge $-1 $75 $76 $77 $78 1 $21 $-1 #
coedge $-1 $79 $23 $80 $81 1 $13 $-1 #
coedge $-1 $23 $79 $74 $82 1 $13 $-1 #
coedge $-1 $83 $84 $23 $45 0 $85 $-1 #
edge $-1 $86 $87 $44 $88 0 #
coedge $-1 $89 $24 $90 $91 0 $9 $-1 #
coedge $-1 $25 $92 $79 $93 0 $9 $-1 #
coedge $-1 $80 $94 $25 $49 0 $95 $-1 #
edge $-1 $53 $96 $48 $97 0 #
coedge $-1 $98 $26 $94 $99 1 $52 $-1 #
coedge $-1 $26 $98 $32 $65 1 $52 $-1 #
loop $-1 $-1 $26 $100 #
vertex $-1 $49 $101 #
straight-curve $-1 5 -12 -1.75 0 0 1 I I #
coedge $-1 $102 $90 $28 $56 0 $72 $-1 #
edge $-1 $62 $60 $55 $103 0 #
coedge $-1 $104 $29 $105 $106 1 $59 $-1 #
coedge $-1 $29 $107 $102 $108 0 $59 $-1 #
loop $-1 $-1 $29 $109 #
vertex $-1 $56 $110 #
straight-curve $-1 9.5825756949558389 -9 -3.5 0 0 1 I I #
vertex $-1 $91 $111 #
straight-curve $-1 5 -12 -3.5 0 0 -1 I I #
coedge $-1 $33 $32 $112 $113 0 $34 $-1 #
edge $-1 $36 $114 $32 $37 0 #
coedge $-1 $115 $105 $33 $67 1 $116 $-1 #
edge $-1 $117 $35 $33 $37 0 #
face $-1 $118 $119 $3 $-1 $120 forward single #
point $-1 9.5825756949558389 -9 -3.5 #
point $-1 5 -12 -3.5 #
face $-1 $109 $85 $3 $-1 $121 forward single #
loop $-1 $-1 $55 $38 #
plane-surface $-1 5 -39 -7 0 0 -1 -1 0 0 0 I I I I #
coedge $-1 $122 $123 $43 $82 0 $39 $-1 #
coedge $-1 $124 $41 $125 $126 1 $21 $-1 #
coedge $-1 $41 $124 $127 $128 1 $21 $-1 #
coedge $-1 $129 $83 $41 $78 0 $85 $-1 #
edge $-1 $130 $131 $77 $132 0 #
coedge $-1 $43 $42 $47 $93 1 $13 $-1 #
coedge $-1 $133 $48 $42 $81 0 $95 $-1 #
edge $-1 $96 $86 $80 $134 0 #
edge $-1 $87 $135 $74 $136 0 #
coedge $-1 $77 $44 $123 $137 0 $85 $-1 #
coedge $-1 $44 $138 $133 $139 1 $85 $-1 #
loop $-1 $-1 $44 $71 #
vertex $-1 $139 $140 #
vertex $-1 $137 $141 #
straight-curve $-1 7.4478704754047644 -30.312777147571413 -1.1426214293080335 -0.1624805142171141 -0.97488308530268453 -0.15232548207854443 I I #
coedge $-1 $92 $46 $124 $142 0 $9 $-1 #
coedge $-1 $55 $127 $46 $91 1 $72 $-1 #
edge $-1 $62 $143 $46 $144 0 #
coedge $-1 $47 $89 $122 $145 1 $9 $-1 #
edge $-1 $135 $96 $47 $146 0 #
coedge $-1 $48 $147 $50 $99 0 $95 $-1 #
loop $-1 $-1 $94 $118 #
vertex $-1 $93 $148 #
straight-curve $-1 5 -9 0 0 -1 0 I I #
coedge $-1 $51 $50 $149 $150 0 $52 $-1 #
edge $-1 $151 $53 $94 $152 0 #
face $-1 $153 $52 $3 $-1 $154 forward single #
point $-1 5 -12 0 #
coedge $-1 $155 $55 $58 $108 1 $72 $-1 #
ellipse-curve $-1 5 -7 -7 0 0 1 5 0 0 1 I I #
coedge $-1 $107 $57 $156 $157 1 $59 $-1 #
coedge $-1 $66 $158 $57 $106 0 $116 $-1 #
edge $-1 $159 $35 $105 $160 0 #
coedge $-1 $58 $104 $138 $161 0 $59 $-1 #
edge $-1 $162 $60 $58 $163 0 #
face $-1 $100 $59 $3 $-1 $164 forward single #
point $-1 9.5825756949558389 -9 -7 #
point $-1 5 -12 -7 #
coedge $-1 $165 $166 $64 $113 1 $167 $-1 #
edge $-1 $114 $117 $64 $37 0 #
vertex $-1 $113 $168 #
coedge $-1 $158 $66 $169 $170 0 $116 $-1 #
loop $-1 $-1 $105 $171 #
vertex $-1 $67 $172 #
face $-1 $173 $174 $3 $-1 $175 forward single #
loop $-1 $34 $176 $68 #
plane-surface $-1 5 -7 -3.5 0 0 -1 -1 0 0 0 I I I I #
plane-surface $-1 6 -39 0 0.98639392383214375 -0.16439898730535729 0 0 0 -1 0 I I I I #
coedge $-1 $125 $74 $92 $145 0 $39 $-1 #
coedge $-1 $74 $125 $83 $137 1 $39 $-1 #
coedge $-1 $76 $75 $89 $142 1 $21 $-1 #
coedge $-1 $123 $122 $75 $126 0 $39 $-1 #
edge $-1 $177 $130 $125 $178 0 #
coedge $-1 $90 $155 $76 $128 0 $72 $-1 #
edge $-1 $131 $143 $127 $179 0 #
coedge $-1 $138 $77 $155 $180 0 $85 $-1 #
vertex $-1 $78 $181 #
vertex $-1 $180 $182 #
straight-curve $-1 6.0631123027740541 -38.621326183355677 -4.5591677838506754 0.1624805142171141 0.97488308530268453 -0.15232548207854443 I I #
coedge $-1 $156 $80 $84 $139 0 $95 $-1 #
straight-curve $-1 10.875 -23 0 1 0 0 I I #
vertex $-1 $145 $183 #
straight-curve $-1 10 -39 -2.5 -1 0 0 I I #
edge $-1 $87 $130 $83 $184 0 #
coedge $-1 $84 $129 $107 $161 1 $85 $-1 #
edge $-1 $86 $185 $133 $186 0 #
point $-1 8.6666666666666679 -23 0 #
point $-1 6 -39 -2.5 #
edge $-1 $143 $177 $89 $187 0 #
vertex $-1 $128 $188 #
straight-curve $-1 5 -9 -7 0 -1 0 I I #
edge $-1 $135 $177 $122 $189 0 #
straight-curve $-1 5 -16.166825548141087 1.0676835081029552 0 0.98801203375110147 0.1543768802736096 I I #
coedge $-1 $94 $190 $191 $192 0 $95 $-1 #
point $-1 5 -23 0 #
coedge $-1 $191 $193 $98 $150 1 $194 $-1 #
edge $-1 $151 $114 $98 $195 0 #
vertex $-1 $99 $196 #
ellipse-curve $-1 5 -7 0 0 0 1 5 0 0 1 I I #
face $-1 $197 $167 $3 $-1 $198 reversed single #
cone-surface $-1 5 -7 -1.75 0 0 1 5 0 0 1 I I 0 1 0 I I I I #
coedge $-1 $127 $102 $129 $180 1 $72 $-1 #
coedge $-1 $199 $133 $104 $157 0 $95 $-1 #
edge $-1 $185 $159 $156 $200 0 #
coedge $-1 $105 $115 $199 $201 1 $116 $-1 #
vertex $-1 $201 $202 #
straight-curve $-1 9.5825756949558389 -9 -1.75 0 0 -1 I I #
edge $-1 $185 $162 $107 $203 0 #
vertex $-1 $161 $204 #
straight-curve $-1 11 -9 -7 -1 0 0 I I #
plane-surface $-1 11 -9 0 0 1 0 0 0 1 0 I I I I #
coedge $-1 $205 $112 $193 $206 1 $167 $-1 #
coedge $-1 $112 $205 $207 $208 1 $167 $-1 #
loop $-1 $-1 $112 $153 #
point $-1 1 -4 -3.5 #
coedge $-1 $207 $209 $115 $170 1 $210 $-1 #
edge $-1 $117 $211 $115 $212 0 #
face $-1 $68 $116 $3 $-1 $154 forward single #
point $-1 4 -2.1010205144336442 -3.5 #
face $-1 $213 $214 $3 $-1 $215 forward single #
loop $-1 $95 $216 $118 #
plane-surface $-1 5 -7 0 0 0 1 1 0 0 0 I I I I #
coedge $-1 $176 $176 $217 $218 0 $119 $-1 #
vertex $-1 $142 $219 #
straight-curve $-1 10 -39 -4.5 1 0 0 I I #
straight-curve $-1 10 -22.999999999999993 -7 -1 0 0 I I #
edge $-1 $131 $162 $129 $220 0 #
point $-1 6 -39 -4.5 #
point $-1 8.6666666666666679 -23 -7 #
point $-1 5 -39 -2.5 #
straight-curve $-1 6 -39 0 0 0 -1 I I #
vertex $-1 $139 $221 #
straight-curve $-1 6 -39 0 0.16439898730535729 0.98639392383214375 0 I I #
straight-curve $-1 5 -24.700667302192564 -6.7342707340324122 0 -0.98801203375110147 0.1543768802736096 I I #
point $-1 5 -23 -7 #
straight-curve $-1 5 -39 0 0 0 -1 I I #
coedge $-1 $147 $222 $223 $224 0 $95 $-1 #
coedge $-1 $225 $149 $147 $192 1 $194 $-1 #
edge $-1 $226 $151 $191 $227 0 #
coedge $-1 $149 $228 $165 $206 0 $194 $-1 #
loop $-1 $-1 $193 $229 #
straight-curve $-1 1 -4 -1.75 0 0 -1 I I #
point $-1 1 -4 0 #
face $-1 $229 $210 $3 $-1 $230 reversed single #
cone-surface $-1 5 -7 -3.5 0 0 1 5 0 0 1 I I 0 1 0 I I I I #
coedge $-1 $231 $156 $158 $201 0 $95 $-1 #
straight-curve $-1 11 -9 0 -1 0 0 I I #
edge $-1 $159 $211 $199 $152 0 #
point $-1 9.5825756949558389 -9 0 #
straight-curve $-1 11 -9 0 0 0 -1 I I #
point $-1 11 -9 -7 #
coedge $-1 $166 $165 $232 $233 1 $167 $-1 #
edge $-1 $234 $114 $193 $235 0 #
coedge $-1 $236 $169 $166 $208 0 $210 $-1 #
edge $-1 $117 $237 $207 $238 0 #
coedge $-1 $169 $239 $231 $240 1 $210 $-1 #
loop $-1 $-1 $169 $197 #
vertex $-1 $240 $241 #
straight-curve $-1 4 -2.1010205144336442 -1.75 0 0 1 I I #
face $-1 $242 $243 $3 $-1 $244 forward single #
loop $-1 $-1 $245 $173 #
plane-surface $-1 4 0 0 0.94868329722892775 0.31622776848159601 0 0 0 -1 0 I I I I #
coedge $-1 $216 $216 $246 $247 0 $174 $-1 #
coedge $-1 $217 $217 $176 $218 1 $248 $-1 #
edge $-1 $249 $249 $176 $250 0 #
point $-1 5 -39 -4.5 #
straight-curve $-1 6 -39 -7 0.16439898730535729 0.98639392383214375 0 I I #
point $-1 11 -9 0 #
coedge $-1 $190 $251 $252 $253 0 $95 $-1 #
coedge $-1 $254 $255 $190 $224 1 $256 $-1 #
edge $-1 $257 $226 $223 $258 0 #
coedge $-1 $228 $191 $255 $259 0 $194 $-1 #
vertex $-1 $224 $260 #
straight-curve $-1 2 -4 0 1 0 0 I I #
coedge $-1 $193 $225 $261 $262 1 $194 $-1 #
face $-1 $263 $194 $3 $-1 $264 reversed single #
plane-surface $-1 4 -2 -3.5 -1 0 0 0 0 1 0 I I I I #
coedge $-1 $265 $199 $209 $240 0 $95 $-1 #
coedge $-1 $261 $266 $205 $233 0 $267 $-1 #
edge $-1 $237 $234 $232 $268 0 #
vertex $-1 $262 $269 #
straight-curve $-1 1 -4 -3.5 0 0 1 I I #
coedge $-1 $239 $207 $266 $270 1 $210 $-1 #
vertex $-1 $233 $271 #
straight-curve $-1 4 -2.1010205144336442 -3.5 0 0 -1 I I #
coedge $-1 $209 $236 $272 $273 0 $210 $-1 #
edge $-1 $211 $274 $209 $275 0 #
point $-1 4 -2.1010205144336442 0 #
face $-1 $276 $277 $3 $-1 $278 forward single #
loop $-1 $-1 $279 $213 #
cone-surface $-1 -38.421197492824604 0.7724860717386226 0 0 0 -1 37.947331890947908 12.649110617656723 0 1 I I 0 1 0 I I I I #
coedge $-1 $280 $272 $281 $282 0 $214 $-1 #
coedge $-1 $246 $246 $216 $247 1 $283 $-1 #
edge $-1 $284 $284 $216 $285 0 #
loop $-1 $283 $217 $286 #
vertex $-1 $218 $287 #
ellipse-curve $-1 5.0000000000000036 -6.9999999999999964 -3.5 0 0 1 -3.5 0 0 1 I I #
coedge $-1 $222 $288 $289 $290 0 $95 $-1 #
coedge $-1 $291 $292 $222 $253 1 $293 $-1 #
edge $-1 $294 $257 $222 $295 0 #
coedge $-1 $296 $223 $292 $297 1 $256 $-1 #
coedge $-1 $223 $296 $225 $259 1 $256 $-1 #
loop $-1 $-1 $254 $263 #
vertex $-1 $224 $298 #
straight-curve $-1 0 -2 0 0 -1 0 I I #
edge $-1 $226 $299 $255 $300 0 #
point $-1 0 -4 0 #
coedge $-1 $301 $232 $228 $262 0 $267 $-1 #
edge $-1 $234 $299 $228 $302 0 #
face $-1 $286 $256 $3 $-1 $303 reversed single #
plane-surface $-1 2 -4 -3.5 0 1 0 0 0 1 0 I I I I #
coedge $-1 $304 $231 $305 $306 0 $95 $-1 #
coedge $-1 $232 $281 $236 $270 0 $267 $-1 #
loop $-1 $-1 $281 $307 #
ellipse-curve $-1 5 -7 -7 0 0 1 5 0 0 1 I I #
point $-1 1 -4 -7 #
edge $-1 $308 $237 $236 $309 0 #
point $-1 4 -2.1010205144336442 -7 #
coedge $-1 $245 $305 $239 $273 1 $214 $-1 #
edge $-1 $308 $274 $272 $310 1 #
vertex $-1 $306 $311 #
straight-curve $-1 4 -2 0 0 1 0 I I #
face $-1 $312 $313 $3 $-1 $314 forward single #
loop $-1 $-1 $315 $242 #
plane-surface $-1 -1.6553963024343661 16.529257945703428 0 0.91914503015403348 0.39391929826189148 0 0 0 -1 0 I I I I #
coedge $-1 $316 $317 $318 $319 0 $243 $-1 #
coedge $-1 $305 $245 $317 $320 1 $214 $-1 #
coedge $-1 $266 $318 $245 $282 1 $267 $-1 #
edge $-1 $308 $321 $245 $322 0 #
loop $-1 $-1 $246 $286 #
vertex $-1 $247 $323 #
ellipse-curve $-1 5.0000000000000036 -6.9999999999999964 0 0 0 -1 -3.5 0 0 1 I I #
face $-1 $171 $248 $3 $-1 $324 reversed single #
point $-1 8.5000000000000036 -7.0000000000000213 -3.5 #
coedge $-1 $251 $325 $326 $327 0 $95 $-1 #
coedge $-1 $328 $329 $251 $290 1 $330 $-1 #
edge $-1 $331 $294 $251 $332 0 #
coedge $-1 $333 $252 $329 $334 0 $293 $-1 #
coedge $-1 $252 $333 $254 $297 0 $293 $-1 #
loop $-1 $-1 $333 $335 #
vertex $-1 $290 $336 #
straight-curve $-1 -4.4738655187786946 13.42159664561421 0 0.31622776412369508 -0.94868329868156154 0 I I #
coedge $-1 $255 $254 $301 $337 1 $256 $-1 #
edge $-1 $338 $257 $292 $339 1 #
point $-1 0 0 0 #
vertex $-1 $337 $340 #
straight-curve $-1 0 -4 -3.5 0 0 -1 I I #
coedge $-1 $341 $261 $296 $337 0 $267 $-1 #
straight-curve $-1 2 -4 -7 -1 0 0 I I #
plane-surface $-1 0 -2 -3.5 1 0 0 0 0 -1 0 I I I I #
coedge $-1 $342 $265 $343 $344 0 $95 $-1 #
coedge $-1 $272 $280 $265 $306 1 $214 $-1 #
edge $-1 $274 $345 $265 $346 0 #
face $-1 $-1 $267 $3 $-1 $347 forward single #
vertex $-1 $273 $348 #
straight-curve $-1 4 -2 -7 0 -1 0 I I #
straight-curve $-1 4 0 0 0 0 -1 I I #
point $-1 4 0 0 #
face $-1 $349 $350 $3 $-1 $351 forward single #
loop $-1 $-1 $352 $276 #
cone-surface $-1 25.38249711481371 54.984481476953462 0 0 0 -1 -36.765801222805841 -15.756771963308546 0 1 I I 0 -1 0 I I I I #
coedge $-1 $353 $354 $355 $356 0 $277 $-1 #
coedge $-1 $343 $279 $354 $357 1 $243 $-1 #
coedge $-1 $279 $343 $280 $320 0 $243 $-1 #
coedge $-1 $281 $355 $279 $319 1 $267 $-1 #
edge $-1 $321 $358 $279 $359 0 #
edge $-1 $345 $321 $317 $360 0 #
vertex $-1 $320 $361 #
straight-curve $-1 4 0 -7 -0.31622776848159601 0.94868329722892775 0 I I #
point $-1 8.5000000000000036 -6.9999999999999716 0 #
cone-surface $-1 5.0000000000000036 -6.9999999999999964 -1.75 0 0 -1 -3.5 0 0 1 I I 0 1 0 I I I I #
coedge $-1 $288 $362 $363 $364 0 $95 $-1 #
coedge $-1 $365 $366 $288 $327 1 $367 $-1 #
edge $-1 $368 $331 $288 $369 0 #
coedge $-1 $370 $289 $366 $371 0 $330 $-1 #
coedge $-1 $289 $370 $291 $334 1 $330 $-1 #
loop $-1 $-1 $370 $372 #
vertex $-1 $327 $373 #
ellipse-curve $-1 -42.421197492824589 0.77248607173859496 0 0 0 -1 36.765801222805841 15.756771963308546 0 1 I I #
coedge $-1 $292 $291 $341 $374 0 $293 $-1 #
edge $-1 $294 $375 $291 $376 0 #
face $-1 $307 $293 $3 $-1 $377 forward single #
point $-1 -4.4738655187786955 13.421596645614212 0 #
edge $-1 $299 $338 $296 $378 0 #
vertex $-1 $297 $379 #
straight-curve $-1 0 0 0 0 0 -1 I I #
point $-1 0 -4 -7 #
coedge $-1 $380 $301 $333 $374 1 $267 $-1 #
coedge $-1 $381 $304 $382 $383 0 $95 $-1 #
coedge $-1 $317 $316 $304 $344 1 $243 $-1 #
edge $-1 $345 $384 $304 $385 0 #
vertex $-1 $306 $386 #
straight-curve $-1 4 0 0 -0.31622776848159601 0.94868329722892775 0 I I #
plane-surface $-1 0 0 -7 0 0 -1 -1 0 0 0 I I I I #
point $-1 4 0 -7 #
face $-1 $387 $388 $3 $-1 $389 forward single #
loop $-1 $-1 $390 $312 #
plane-surface $-1 -14.07325985638888 61.560441033396614 0 0.98639392358386246 -0.16439898879504525 0 0 0 -1 0 I I I I #
coedge $-1 $391 $392 $393 $394 0 $313 $-1 #
coedge $-1 $382 $315 $392 $395 1 $277 $-1 #
coedge $-1 $315 $382 $316 $357 0 $277 $-1 #
coedge $-1 $318 $393 $315 $356 1 $267 $-1 #
edge $-1 $358 $396 $315 $397 0 #
edge $-1 $384 $358 $354 $398 0 #
vertex $-1 $357 $399 #
ellipse-curve $-1 -38.421197492824604 0.7724860717386226 -7 0 0 1 37.947331890947908 12.649110617656723 0 1 I I #
straight-curve $-1 -0.47386563853790875 13.421596799378978 0 0 0 -1 I I #
point $-1 -0.47386563853790875 13.421596799378978 -7 #
coedge $-1 $325 $400 $401 $402 0 $95 $-1 #
coedge $-1 $403 $404 $325 $364 1 $405 $-1 #
edge $-1 $406 $368 $325 $407 0 #
coedge $-1 $408 $326 $404 $409 0 $367 $-1 #
coedge $-1 $326 $408 $328 $371 1 $367 $-1 #
loop $-1 $-1 $408 $410 #
vertex $-1 $364 $411 #
straight-curve $-1 -15.383295698104479 39.227690050475182 0 0.39391929833635314 -0.91914503012212134 0 I I #
coedge $-1 $329 $328 $380 $412 0 $330 $-1 #
edge $-1 $331 $413 $328 $414 0 #
face $-1 $335 $330 $3 $-1 $415 forward single #
point $-1 -5.6553962619938289 16.529258016322334 0 #
edge $-1 $375 $338 $333 $416 0 #
vertex $-1 $334 $417 #
straight-curve $-1 -4.4738655187786955 13.421596645614212 0 0 0 -1 I I #
plane-surface $-1 -4.4738655187786955 13.421596645614212 0 -0.94868329868156154 -0.31622776412369508 0 0 0 1 0 I I I I #
straight-curve $-1 0 -2 -7 0 1 0 I I #
point $-1 0 0 -7 #
coedge $-1 $418 $341 $370 $412 1 $267 $-1 #
coedge $-1 $419 $342 $420 $421 0 $95 $-1 #
coedge $-1 $354 $353 $342 $383 1 $277 $-1 #
edge $-1 $384 $422 $342 $423 0 #
vertex $-1 $344 $424 #
ellipse-curve $-1 -38.421197492824604 0.7724860717386226 0 0 0 1 37.947331890947908 12.649110617656723 0 1 I I #
point $-1 -0.47386563853790875 13.421596799378978 0 #
face $-1 $425 $426 $3 $-1 $427 forward single #
loop $-1 $-1 $428 $349 #
plane-surface $-1 -11 80 0 0 1 0 0 0 1 0 I I I I #
coedge $-1 $429 $430 $431 $432 0 $350 $-1 #
coedge $-1 $420 $352 $430 $433 1 $313 $-1 #
coedge $-1 $352 $420 $353 $395 0 $313 $-1 #
coedge $-1 $355 $431 $352 $394 1 $267 $-1 #
edge $-1 $396 $434 $352 $435 0 #
edge $-1 $422 $396 $392 $436 0 #
vertex $-1 $395 $437 #
straight-curve $-1 -1.6553963024343759 16.529257945703424 -7 -0.39391929826189148 0.91914503015403348 0 I I #
straight-curve $-1 -1.6553963024343661 16.529257945703428 0 0 0 -1 I I #
point $-1 -1.6553963024343661 16.529257945703428 -7 #
coedge $-1 $362 $419 $438 $439 0 $95 $-1 #
coedge $-1 $440 $441 $362 $402 1 $426 $-1 #
edge $-1 $442 $406 $362 $443 0 #
coedge $-1 $444 $363 $441 $445 0 $405 $-1 #
coedge $-1 $363 $444 $365 $409 1 $405 $-1 #
loop $-1 $-1 $444 $425 #
vertex $-1 $402 $446 #
ellipse-curve $-1 21.382497114813706 54.984481476953462 0 0 0 1 -39.455756916857638 6.5759594994043766 0 1 I I #
coedge $-1 $366 $365 $418 $447 0 $367 $-1 #
edge $-1 $368 $448 $365 $449 0 #
face $-1 $372 $367 $3 $-1 $450 forward single #
point $-1 -15.383295698104479 39.227690050475175 0 #
edge $-1 $413 $375 $370 $451 0 #
vertex $-1 $371 $452 #
straight-curve $-1 -5.6553962619938289 16.529258016322334 0 0 0 -1 I I #
cone-surface $-1 -42.421197492824589 0.77248607173859496 0 0 0 -1 36.765801222805841 15.756771963308546 0 1 I I 0 -1 0 I I I I #
straight-curve $-1 -4.4738655187786946 13.42159664561421 -7 0.31622776412369508 -0.94868329868156154 0 I I #
point $-1 -4.4738655187786955 13.421596645614212 -7 #
coedge $-1 $453 $380 $408 $447 1 $267 $-1 #
coedge $-1 $400 $381 $454 $455 0 $95 $-1 #
coedge $-1 $392 $391 $381 $421 1 $313 $-1 #
edge $-1 $422 $456 $381 $457 0 #
vertex $-1 $383 $458 #
straight-curve $-1 -1.6553963024343759 16.529257945703424 0 -0.39391929826189148 0.91914503015403348 0 I I #
point $-1 -1.6553963024343661 16.529257945703428 0 #
face $-1 $410 $405 $3 $-1 $459 forward single #
loop $-1 $-1 $460 $387 #
plane-surface $-1 -15 80 0 -0.98639392413774785 0.16439898547173307 0 0 0 1 0 I I I I #
coedge $-1 $461 $462 $463 $464 0 $388 $-1 #
coedge $-1 $454 $390 $462 $465 1 $350 $-1 #
coedge $-1 $390 $454 $391 $433 0 $350 $-1 #
coedge $-1 $393 $463 $390 $432 1 $267 $-1 #
edge $-1 $434 $466 $390 $467 0 #
edge $-1 $456 $434 $430 $468 0 #
vertex $-1 $433 $469 #
ellipse-curve $-1 25.38249711481371 54.984481476953462 -7 0 0 -1 -36.765801222805841 -15.756771963308546 0 1 I I #
straight-curve $-1 -11.383304117297136 39.227709535356588 0 0 0 -1 I I #
point $-1 -11.383304117297136 39.227709535356588 -7 #
coedge $-1 $462 $461 $400 $439 1 $388 $-1 #
edge $-1 $470 $442 $400 $471 0 #
coedge $-1 $460 $401 $461 $472 0 $426 $-1 #
coedge $-1 $401 $460 $403 $445 1 $426 $-1 #
vertex $-1 $439 $473 #
straight-curve $-1 -15 80 0 -0.16439898547173307 -0.98639392413774785 0 I I #
coedge $-1 $404 $403 $453 $474 0 $405 $-1 #
edge $-1 $406 $475 $403 $476 0 #
point $-1 -18.073259816418595 61.560440890109859 0 #
edge $-1 $448 $413 $408 $477 0 #
vertex $-1 $409 $478 #
straight-curve $-1 -15.383295698104479 39.227690050475175 0 0 0 -1 I I #
plane-surface $-1 -15.383295698104479 39.227690050475175 0 -0.91914503012212134 -0.39391929833635314 0 0 0 1 0 I I I I #
ellipse-curve $-1 -42.421197492824589 0.77248607173859496 -7 0 0 -1 36.765801222805841 15.756771963308546 0 1 I I #
point $-1 -5.6553962619938289 16.529258016322334 -7 #
coedge $-1 $479 $418 $444 $474 1 $267 $-1 #
coedge $-1 $430 $429 $419 $455 1 $350 $-1 #
edge $-1 $456 $470 $419 $480 0 #
vertex $-1 $421 $481 #
ellipse-curve $-1 25.38249711481371 54.984481476953462 0 0 0 -1 -36.765801222805841 -15.756771963308546 0 1 I I #
point $-1 -11.383304117297136 39.227709535356588 0 #
cone-surface $-1 21.382497114813706 54.984481476953462 0 0 0 -1 -39.455756916857638 6.5759594994043766 0 1 I I 0 1 0 I I I I #
coedge $-1 $441 $440 $479 $482 0 $426 $-1 #
coedge $-1 $438 $428 $440 $472 1 $388 $-1 #
coedge $-1 $428 $438 $429 $465 0 $388 $-1 #
coedge $-1 $431 $479 $428 $464 1 $267 $-1 #
edge $-1 $466 $483 $428 $484 0 #
edge $-1 $470 $466 $462 $485 0 #
vertex $-1 $465 $486 #
straight-curve $-1 -14.07325985638888 61.560441033396621 -7 0.16439898879504525 0.98639392358386246 0 I I #
straight-curve $-1 -14.07325985638888 61.560441033396614 0 0 0 -1 I I #
point $-1 -14.07325985638888 61.560441033396614 -7 #
vertex $-1 $455 $487 #
straight-curve $-1 -11 80 0 -1 0 0 I I #
edge $-1 $442 $483 $440 $488 0 #
point $-1 -15 80 0 #
edge $-1 $475 $448 $444 $489 0 #
vertex $-1 $445 $490 #
straight-curve $-1 -18.073259816418595 61.560440890109859 0 0 0 -1 I I #
straight-curve $-1 -15.383295698104479 39.227690050475182 -7 0.39391929833635314 -0.91914503012212134 0 I I #
point $-1 -15.383295698104479 39.227690050475175 -7 #
coedge $-1 $463 $453 $460 $482 1 $267 $-1 #
straight-curve $-1 -14.07325985638888 61.560441033396621 0 0.16439898879504525 0.98639392358386246 0 I I #
point $-1 -14.07325985638888 61.560441033396614 0 #
edge $-1 $483 $475 $460 $491 0 #
vertex $-1 $472 $492 #
straight-curve $-1 -11 80 -7 -1 0 0 I I #
straight-curve $-1 -11 80 0 0 0 -1 I I #
point $-1 -11 80 -7 #
point $-1 -11 80 0 #
straight-curve $-1 -15 80 0 0 0 -1 I I #
ellipse-curve $-1 21.382497114813706 54.984481476953462 -7 0 0 1 -39.455756916857638 6.5759594994043766 0 1 I I #
point $-1 -18.073259816418595 61.560440890109859 -7 #
straight-curve $-1 -15 80 -7 -0.16439898547173307 -0.98639392413774785 0 I I #
point $-1 -15 80 -7 #
End-of-ACIS-data 