600 0 1 0           
91 GICL ACIS Healer - Source: /gicl/data5/repository/CMU/Tools/female_half_of_pliers.sat - 6 0 18 ACIS 6.0.3 Solaris 24 Sat Apr 13 00:32:21 2002 
1 9.999999999999999547e-07 1.000000000000000036e-10 
body $-1 $1 $-1 $-1 #
lump $-1 $-1 $2 $0 #
shell $-1 $-1 $-1 $3 $-1 $1 #
face $-1 $4 $5 $2 $-1 $6 reversed single #
face $-1 $7 $8 $2 $-1 $9 forward single #
loop $-1 $-1 $10 $3 #
cone-surface $-1 0 0 -1.75 0 0 1 5 0 0 1 I I 0 1 5 forward I I I I #
face $-1 $11 $12 $2 $-1 $13 forward single #
loop $-1 $-1 $14 $4 #
plane-surface $-1 0 -2 0 -1 0 0 0 0 1 forward_v I I I I #
coedge $-1 $15 $16 $17 $18 reversed $5 $-1 #
face $-1 $19 $20 $2 $-1 $21 forward single #
loop $-1 $-1 $22 $7 #
plane-surface $-1 10 -16 0 0 -0.1543768802736096013 0.9880120337511014705 -1 0 0 forward_v I I I I #
coedge $-1 $23 $24 $25 $26 reversed $8 $-1 #
coedge $-1 $27 $10 $28 $29 reversed $5 $-1 #
coedge $-1 $10 $27 $23 $30 reversed $5 $-1 #
coedge $-1 $31 $32 $10 $18 forward $33 $-1 #
edge $-1 $34 0.4115168460674880069 $35 1.570796326794896558 $17 $36 forward 7 unknown #
face $-1 $37 $38 $2 $-1 $39 forward single #
loop $-1 $-1 $40 $11 #
plane-surface $-1 10 -32 -4.5 0 -0.1543768802736096013 -0.9880120337511014705 1 0 0 forward_v I I I I #
coedge $-1 $41 $42 $43 $44 reversed $12 $-1 #
coedge $-1 $45 $14 $16 $30 forward $8 $-1 #
coedge $-1 $14 $46 $47 $48 reversed $8 $-1 #
coedge $-1 $49 $50 $14 $26 forward $51 $-1 #
edge $-1 $35 -1.75 $52 1.75 $25 $53 reversed 7 unknown #
coedge $-1 $16 $15 $54 $55 reversed $5 $-1 #
coedge $-1 $56 $57 $15 $29 forward $58 $-1 #
edge $-1 $59 -5.25 $34 -1.75 $28 $60 reversed 7 unknown #
edge $-1 $35 1.75 $61 5.25 $23 $62 reversed 7 unknown #
coedge $-1 $63 $17 $50 $64 forward $33 $-1 #
coedge $-1 $17 $63 $65 $66 forward $33 $-1 #
loop $-1 $-1 $32 $67 #
vertex $-1 $18 $68 #
vertex $-1 $64 $69 #
ellipse-curve $-1 0 0 -3.5 0 0 -1 5 0 0 1 I I #
face $-1 $70 $71 $2 $-1 $72 forward single #
loop $-1 $-1 $73 $19 #
plane-surface $-1 0 -32 0 0 -1 0 0 0 -1 forward_v I I I I #
coedge $-1 $74 $75 $76 $77 reversed $20 $-1 #
coedge $-1 $78 $22 $79 $80 reversed $12 $-1 #
coedge $-1 $22 $78 $73 $81 reversed $12 $-1 #
coedge $-1 $82 $83 $22 $44 forward $84 $-1 #
edge $-1 $85 -7.501183739690100438 $86 8.911040701594851399 $43 $87 forward 7 unknown #
coedge $-1 $88 $23 $89 $90 forward $8 $-1 #
coedge $-1 $24 $91 $78 $92 forward $8 $-1 #
coedge $-1 $79 $93 $24 $48 forward $94 $-1 #
edge $-1 $52 4 $95 15.00000000000007816 $47 $96 forward 7 unknown #
coedge $-1 $97 $25 $93 $98 reversed $51 $-1 #
coedge $-1 $25 $97 $31 $64 reversed $51 $-1 #
loop $-1 $-1 $25 $99 #
vertex $-1 $48 $100 #
straight-curve $-1 0 -5 -1.75 -0 -0 -1 I I #
coedge $-1 $101 $89 $27 $55 forward $71 $-1 #
edge $-1 $61 -1.570796326794896558 $59 -0.4115168460674880069 $54 $102 reversed 7 unknown #
coedge $-1 $103 $28 $104 $105 reversed $58 $-1 #
coedge $-1 $28 $106 $101 $107 forward $58 $-1 #
loop $-1 $-1 $28 $108 #
vertex $-1 $55 $109 #
straight-curve $-1 4.582575694955839829 -2 -1.75 -0 -0 -1 I I #
vertex $-1 $90 $110 #
straight-curve $-1 0 -5 -1.75 0 0 1 I I #
coedge $-1 $32 $31 $111 $112 forward $33 $-1 #
edge $-1 $35 1.570796326794896558 $113 3.785093762383077376 $31 $114 forward 7 unknown #
coedge $-1 $115 $104 $32 $66 reversed $116 $-1 #
edge $-1 $117 -1.77215424758522766 $34 0.4115168460674880069 $32 $118 forward 7 unknown #
face $-1 $119 $120 $2 $-1 $121 forward single #
point $-1 4.582575694955839829 -2 -3.5 #
point $-1 3.061616997868383141e-16 -5 -3.5 #
face $-1 $108 $84 $2 $-1 $122 forward single #
loop $-1 $-1 $54 $37 #
plane-surface $-1 0 -32 -7 0 0 -1 -1 0 0 forward_v I I I I #
coedge $-1 $123 $124 $42 $81 forward $38 $-1 #
coedge $-1 $125 $40 $126 $127 reversed $20 $-1 #
coedge $-1 $40 $125 $128 $129 reversed $20 $-1 #
coedge $-1 $130 $82 $40 $77 forward $84 $-1 #
edge $-1 $131 -0.3884299793002883305 $132 16.02379446198458268 $76 $133 forward 7 unknown #
coedge $-1 $42 $41 $46 $92 reversed $12 $-1 #
coedge $-1 $134 $47 $41 $80 forward $94 $-1 #
edge $-1 $95 -5 $85 -1.333333333333333037 $79 $135 forward 7 unknown #
edge $-1 $86 4 $136 5 $73 $137 forward 7 unknown #
coedge $-1 $76 $43 $124 $138 forward $84 $-1 #
coedge $-1 $43 $139 $134 $140 reversed $84 $-1 #
loop $-1 $-1 $43 $70 #
vertex $-1 $140 $141 #
vertex $-1 $138 $142 #
straight-curve $-1 2.447870475404764878 -23.31277714757141339 -1.142621429308033676 -0.162480514217114097 -0.9748830853026845267 -0.152325482078544433 I I #
coedge $-1 $91 $45 $125 $143 forward $8 $-1 #
coedge $-1 $54 $128 $45 $90 reversed $71 $-1 #
edge $-1 $61 -12 $144 -1 $45 $145 forward 7 unknown #
coedge $-1 $46 $88 $123 $146 reversed $8 $-1 #
edge $-1 $136 -23.11021897695935934 $95 -6.916084236257787232 $46 $147 forward 7 unknown #
coedge $-1 $47 $148 $49 $98 forward $94 $-1 #
loop $-1 $-1 $93 $119 #
vertex $-1 $92 $149 #
straight-curve $-1 0 -1 0 0 -1 0 I I #
coedge $-1 $50 $49 $150 $151 forward $51 $-1 #
edge $-1 $152 2.498091544796508856 $52 4.712388980384689674 $93 $153 forward 7 unknown #
face $-1 $154 $51 $2 $-1 $6 forward single #
point $-1 3.061616997868383141e-16 -5 0 #
coedge $-1 $155 $54 $57 $107 reversed $71 $-1 #
ellipse-curve $-1 0 0 -7 0 0 -1 5 0 0 1 I I #
coedge $-1 $106 $56 $156 $157 reversed $58 $-1 #
coedge $-1 $65 $158 $56 $105 forward $116 $-1 #
edge $-1 $159 -1.75 $34 1.75 $104 $160 reversed 7 unknown #
coedge $-1 $57 $103 $139 $161 forward $58 $-1 #
edge $-1 $162 -3 $59 -1.582575694955839829 $57 $163 forward 7 unknown #
face $-1 $99 $58 $2 $-1 $164 forward single #
point $-1 4.582575694955839829 -2 -7 #
point $-1 0 -5 -7 #
coedge $-1 $165 $166 $63 $112 reversed $167 $-1 #
edge $-1 $113 -2.498091544796508856 $117 -1.77215424758522766 $63 $168 forward 7 unknown #
vertex $-1 $112 $169 #
ellipse-curve $-1 0 0 -3.5 0 0 -1 5 0 0 1 I I #
coedge $-1 $158 $65 $170 $171 forward $116 $-1 #
loop $-1 $-1 $104 $172 #
vertex $-1 $66 $173 #
ellipse-curve $-1 0 0 -3.5 0 0 -1 5 0 0 1 I I #
face $-1 $174 $175 $2 $-1 $176 forward single #
loop $-1 $33 $177 $67 #
plane-surface $-1 0 0 -3.5 0 0 -1 -1 0 0 forward_v I I I I #
plane-surface $-1 1 -32 0 0.9863939238321437486 -0.1643989873053572914 0 0 0 -1 forward_v I I I I #
coedge $-1 $126 $73 $91 $146 forward $38 $-1 #
coedge $-1 $73 $126 $82 $138 reversed $38 $-1 #
coedge $-1 $75 $74 $88 $143 reversed $20 $-1 #
coedge $-1 $124 $123 $74 $127 forward $38 $-1 #
edge $-1 $178 -5 $131 -4 $126 $179 forward 7 unknown #
coedge $-1 $89 $155 $75 $129 forward $71 $-1 #
edge $-1 $132 1.333333333333345916 $144 5 $128 $180 forward 7 unknown #
coedge $-1 $139 $76 $155 $181 forward $84 $-1 #
vertex $-1 $77 $182 #
vertex $-1 $181 $183 #
straight-curve $-1 1.063112302774054108 -31.62132618335567713 -4.559167783850675448 0.162480514217114097 0.9748830853026845267 -0.152325482078544433 I I #
coedge $-1 $156 $79 $83 $140 forward $94 $-1 #
straight-curve $-1 5 -16 0 1 0 -0 I I #
vertex $-1 $146 $184 #
straight-curve $-1 5 -32 -2.5 -1 0 0 I I #
edge $-1 $86 2.5 $131 4.5 $82 $185 forward 7 unknown #
coedge $-1 $83 $130 $106 $161 reversed $84 $-1 #
edge $-1 $85 0.5205967931336302756 $186 14.71370936382947647 $134 $187 forward 7 unknown #
point $-1 3.666666666666666963 -16 0 #
point $-1 1.000000000000000222 -32 -2.5 #
edge $-1 $144 -1.721302215050746209 $178 14.47283252565090095 $88 $188 forward 7 unknown #
vertex $-1 $129 $189 #
straight-curve $-1 0 -17 -7 -0 -1 -0 I I #
edge $-1 $136 2.5 $178 4.5 $123 $190 forward 7 unknown #
straight-curve $-1 0 -9.16682554814108741 1.067683508102955203 0 0.9880120337511014705 0.1543768802736096013 I I #
coedge $-1 $93 $191 $192 $193 forward $94 $-1 #
point $-1 0 -16.00000000000007816 0 #
coedge $-1 $192 $194 $97 $151 reversed $195 $-1 #
edge $-1 $152 -1.75 $113 1.75 $97 $196 forward 7 unknown #
vertex $-1 $98 $197 #
ellipse-curve $-1 0 0 0 0 0 1 5 0 0 1 I I #
face $-1 $198 $167 $2 $-1 $6 reversed single #
coedge $-1 $128 $101 $130 $181 reversed $71 $-1 #
coedge $-1 $199 $134 $103 $157 forward $94 $-1 #
edge $-1 $186 -3 $159 -1.582575694955839829 $156 $200 forward 7 unknown #
coedge $-1 $104 $115 $199 $201 reversed $116 $-1 #
vertex $-1 $201 $202 #
straight-curve $-1 4.582575694955839829 -2 -1.75 0 0 1 I I #
edge $-1 $186 0 $162 7 $106 $203 forward 7 unknown #
vertex $-1 $161 $204 #
straight-curve $-1 3 -2 -7 -1 0 0 I I #
plane-surface $-1 6 -2 0 0 1 0 0 0 1 forward_v I I I I #
coedge $-1 $205 $111 $194 $206 reversed $167 $-1 #
coedge $-1 $111 $205 $207 $208 reversed $167 $-1 #
loop $-1 $-1 $111 $154 #
ellipse-curve $-1 0 0 -3.5 0 0 -1 5 0 0 1 I I #
point $-1 -4 3 -3.5 #
coedge $-1 $207 $209 $115 $171 reversed $210 $-1 #
edge $-1 $117 -1.75 $211 1.75 $115 $212 forward 7 unknown #
face $-1 $67 $116 $2 $-1 $6 forward single #
point $-1 -1.000000000000000222 4.898979485566355763 -3.5 #
face $-1 $213 $214 $2 $-1 $215 forward single #
loop $-1 $94 $216 $119 #
plane-surface $-1 0 0 0 0 0 1 1 0 0 forward_v I I I I #
coedge $-1 $177 $177 $217 $218 forward $120 $-1 #
vertex $-1 $143 $219 #
straight-curve $-1 5 -32 -4.5 1 0 0 I I #
straight-curve $-1 5 -16 -7 -1 0 -0 I I #
edge $-1 $132 16.30289957444785287 $162 30.49601214514377645 $130 $220 forward 7 unknown #
point $-1 1 -32 -4.5 #
point $-1 3.666666666666654084 -16.00000000000007816 -6.999999999999987566 #
point $-1 0 -32 -2.5 #
straight-curve $-1 1 -32 0 0 0 -1 I I #
vertex $-1 $140 $221 #
straight-curve $-1 3.581081081081081141 -16.51351351351351227 0 0.1643989873053572914 0.9863939238321437486 -0 I I #
straight-curve $-1 0 -17.70066730219256357 -6.734270734032412165 0 -0.9880120337511014705 0.1543768802736096013 I I #
point $-1 0 -16 -7 #
straight-curve $-1 0 -32 0 -0 -0 -1 I I #
coedge $-1 $148 $222 $223 $224 forward $94 $-1 #
coedge $-1 $225 $150 $148 $193 reversed $195 $-1 #
edge $-1 $226 -3.5 $152 -2.5 $192 $227 forward 7 unknown #
coedge $-1 $150 $228 $165 $206 forward $195 $-1 #
loop $-1 $-1 $194 $229 #
straight-curve $-1 -4 3 -1.75 -0 -0 -1 I I #
point $-1 -4 3 0 #
face $-1 $229 $210 $2 $-1 $230 reversed single #
coedge $-1 $231 $156 $158 $201 forward $94 $-1 #
straight-curve $-1 3 -2 0 -1 0 0 I I #
edge $-1 $159 -0.4115168460674880069 $211 1.772154247585227438 $199 $232 forward 7 unknown #
point $-1 4.582575694955839829 -2 0 #
straight-curve $-1 6 -2 0 0 0 -1 I I #
point $-1 6 -2 -7 #
coedge $-1 $166 $165 $233 $234 reversed $167 $-1 #
edge $-1 $235 -5.25 $113 -1.75 $194 $236 forward 7 unknown #
coedge $-1 $237 $170 $166 $208 forward $210 $-1 #
edge $-1 $117 1.75 $238 5.25 $207 $239 forward 7 unknown #
coedge $-1 $170 $240 $231 $241 reversed $210 $-1 #
loop $-1 $-1 $170 $198 #
vertex $-1 $241 $242 #
straight-curve $-1 -1 4.898979485566355763 -1.75 0 0 1 I I #
face $-1 $243 $244 $2 $-1 $245 forward single #
loop $-1 $-1 $246 $174 #
plane-surface $-1 -1 7 0 0.9486832972289277466 0.3162277684815960055 0 0 0 -1 forward_v I I I I #
coedge $-1 $216 $216 $247 $248 forward $175 $-1 #
coedge $-1 $217 $217 $177 $218 reversed $249 $-1 #
edge $-1 $250 -3.141592653589800221 $250 3.141592653589786011 $177 $251 reversed 7 unknown #
point $-1 0 -32 -4.5 #
straight-curve $-1 0.9864864864864865135 -32.0810810810810807 -7 0.1643989873053572914 0.9863939238321437486 0 I I #
point $-1 6 -2 0 #
coedge $-1 $191 $252 $253 $254 forward $94 $-1 #
coedge $-1 $255 $256 $191 $224 reversed $257 $-1 #
edge $-1 $258 -4.500000000000001776 $226 -0.5 $223 $259 forward 7 unknown #
coedge $-1 $228 $192 $256 $260 forward $195 $-1 #
vertex $-1 $224 $261 #
straight-curve $-1 -1.5 3 0 1 0 0 I I #
coedge $-1 $194 $225 $262 $263 reversed $195 $-1 #
face $-1 $264 $195 $2 $-1 $265 reversed single #
plane-surface $-1 -1 5 -3.5 -1 0 0 0 0 1 forward_v I I I I #
coedge $-1 $266 $199 $209 $241 forward $94 $-1 #
ellipse-curve $-1 0 0 0 0 0 1 5 0 0 1 I I #
coedge $-1 $262 $267 $205 $234 forward $268 $-1 #
edge $-1 $238 1.77215424758522766 $235 2.498091544796508856 $233 $269 reversed 7 unknown #
vertex $-1 $263 $270 #
straight-curve $-1 -4 3 -1.75 0 0 1 I I #
coedge $-1 $240 $207 $267 $271 reversed $210 $-1 #
vertex $-1 $234 $272 #
straight-curve $-1 -1 4.898979485566355763 -1.75 -0 -0 -1 I I #
coedge $-1 $209 $237 $273 $274 forward $210 $-1 #
edge $-1 $211 2.398979485566355763 $275 4.499999999999998224 $209 $276 forward 7 unknown #
point $-1 -1 4.898979485566355763 0 #
face $-1 $277 $278 $2 $-1 $279 forward single #
loop $-1 $-1 $280 $213 #
cone-surface $-1 -43.42119749282460361 7.772486071738622826 0 0 0 -1 37.9473318909479076 12.64911061765672251 0 1 I I 0 1 39.99999996324335427 forward I I I I #
coedge $-1 $281 $273 $282 $283 forward $214 $-1 #
coedge $-1 $247 $247 $216 $248 reversed $284 $-1 #
edge $-1 $285 -3.141592653589800221 $285 3.141592653589786011 $216 $286 reversed 7 unknown #
loop $-1 $284 $217 $287 #
vertex $-1 $218 $288 #
ellipse-curve $-1 3.552713678800500929e-15 3.552713678800500929e-15 -3.5 0 0 -1 -3.5 0 0 1 I I #
coedge $-1 $222 $289 $290 $291 forward $94 $-1 #
coedge $-1 $292 $293 $222 $254 reversed $294 $-1 #
edge $-1 $295 -11.18476349035877604 $258 2.962841578969372502 $222 $296 forward 7 unknown #
coedge $-1 $297 $223 $293 $298 reversed $257 $-1 #
coedge $-1 $223 $297 $225 $260 reversed $257 $-1 #
loop $-1 $-1 $255 $264 #
vertex $-1 $224 $299 #
straight-curve $-1 -5 2.5 0 0 -1 0 I I #
edge $-1 $226 -3.5 $300 3.5 $256 $301 reversed 7 unknown #
point $-1 -5 3 0 #
coedge $-1 $302 $233 $228 $263 forward $268 $-1 #
edge $-1 $235 0 $300 1 $228 $303 forward 7 unknown #
face $-1 $287 $257 $2 $-1 $304 reversed single #
plane-surface $-1 -3 3 -3.5 0 1 0 0 0 1 forward_v I I I I #
coedge $-1 $305 $231 $306 $307 forward $94 $-1 #
coedge $-1 $233 $282 $237 $271 forward $268 $-1 #
loop $-1 $-1 $282 $308 #
ellipse-curve $-1 0 0 -7 0 0 -1 5 0 0 1 I I #
point $-1 -4 3 -7 #
edge $-1 $309 -1 $238 1.101020514433644237 $237 $310 forward 7 unknown #
point $-1 -1.000000000000000222 4.898979485566355763 -7 #
coedge $-1 $246 $306 $240 $274 reversed $214 $-1 #
edge $-1 $309 -5.25 $275 1.75 $273 $311 forward 7 unknown #
vertex $-1 $307 $312 #
straight-curve $-1 -1 2.5 0 0 1 -0 I I #
face $-1 $313 $314 $2 $-1 $315 forward single #
loop $-1 $-1 $316 $243 #
plane-surface $-1 -6.655396302434366085 23.52925794570342788 0 0.9191450301540334822 0.3939192982618914818 0 0 0 -1 forward_v I I I I #
coedge $-1 $317 $318 $319 $320 forward $244 $-1 #
coedge $-1 $306 $246 $318 $321 reversed $214 $-1 #
coedge $-1 $267 $319 $246 $283 reversed $268 $-1 #
edge $-1 $309 -0.632455536963192122 $322 13.51514971611022808 $246 $323 forward 7 unknown #
loop $-1 $-1 $247 $287 #
vertex $-1 $248 $324 #
ellipse-curve $-1 3.552713678800500929e-15 3.552713678800500929e-15 0 0 0 1 -3.5 0 0 1 I I #
face $-1 $172 $249 $2 $-1 $325 reversed single #
point $-1 3.500000000000003553 -2.131628207280300558e-14 -3.5 #
coedge $-1 $252 $326 $327 $328 forward $94 $-1 #
coedge $-1 $329 $330 $252 $291 reversed $331 $-1 #
edge $-1 $332 5.095280642939464025e-10 $295 0.08314123412934272539 $252 $333 forward 7 unknown #
coedge $-1 $334 $253 $330 $335 forward $294 $-1 #
coedge $-1 $253 $334 $255 $298 forward $294 $-1 #
loop $-1 $-1 $334 $336 #
vertex $-1 $291 $337 #
straight-curve $-1 -5.93693276797020264 9.810798322607551469 0 0.3162277641236950765 -0.9486832986815615376 0 I I #
coedge $-1 $256 $255 $302 $338 reversed $257 $-1 #
edge $-1 $339 -5.25 $258 1.75 $293 $340 forward 7 unknown #
point $-1 -5 7.000000000000001776 0 #
vertex $-1 $338 $341 #
straight-curve $-1 -5 3 -3.5 0 0 1 I I #
coedge $-1 $342 $262 $297 $338 forward $268 $-1 #
straight-curve $-1 -4 3 -7 -1 0 0 I I #
plane-surface $-1 -5 5 -3.5 1 0 0 0 0 -1 forward_v I I I I #
coedge $-1 $343 $266 $344 $345 forward $94 $-1 #
coedge $-1 $273 $281 $266 $307 reversed $214 $-1 #
edge $-1 $275 3.478505424542043478 $346 17.62611067761546479 $266 $347 forward 7 unknown #
face $-1 $-1 $268 $2 $-1 $348 forward single #
vertex $-1 $274 $349 #
straight-curve $-1 -1 6 -7 -0 -1 -0 I I #
straight-curve $-1 -1 7 -1.75 0 -0 1 I I #
point $-1 -1 6.999999999999998224 0 #
face $-1 $350 $351 $2 $-1 $352 forward single #
loop $-1 $-1 $353 $277 #
cone-surface $-1 20.38249711481370952 61.98448147695346222 0 0 0 -1 -36.76580116307164303 -15.75677193770817652 0 1 I I 0 -1 40.00000002823222189 forward I I I I #
coedge $-1 $354 $355 $356 $357 forward $278 $-1 #
coedge $-1 $344 $280 $355 $358 reversed $244 $-1 #
coedge $-1 $280 $344 $281 $321 forward $244 $-1 #
coedge $-1 $282 $356 $280 $320 reversed $268 $-1 #
edge $-1 $322 2.898323577580135437e-09 $359 0.08314123184349551943 $280 $360 forward 7 unknown #
edge $-1 $346 0 $322 7 $318 $361 forward 7 unknown #
vertex $-1 $321 $362 #
straight-curve $-1 -1.200000003117699832 7.600000004156933109 -7 -0.3162277684815960055 0.9486832972289277466 0 I I #
point $-1 3.500000000000003553 2.842170943040400743e-14 0 #
cone-surface $-1 3.552713678800500929e-15 3.552713678800500929e-15 -1.75 0 0 -1 -3.5 0 0 1 I I 0 1 3.5 forward I I I I #
coedge $-1 $289 $363 $364 $365 forward $94 $-1 #
coedge $-1 $366 $367 $289 $328 reversed $368 $-1 #
edge $-1 $369 -25.2596837742238165 $332 -0.5645042356251204207 $289 $370 forward 7 unknown #
coedge $-1 $371 $290 $367 $372 forward $331 $-1 #
coedge $-1 $290 $371 $292 $335 reversed $331 $-1 #
loop $-1 $-1 $371 $373 #
vertex $-1 $328 $374 #
ellipse-curve $-1 -47.4211974928245894 7.772486071738595292 0 -0 -0 -1 36.76580116307164303 15.75677193770817652 0 1 I I #
coedge $-1 $293 $292 $342 $375 forward $294 $-1 #
edge $-1 $295 -0 $376 7 $292 $377 reversed 7 unknown #
face $-1 $308 $294 $2 $-1 $378 forward single #
point $-1 -9.473865580432551781 20.4215966250629215 0 #
edge $-1 $300 -3 $339 1.000000000000001776 $297 $379 forward 7 unknown #
vertex $-1 $298 $380 #
straight-curve $-1 -5 7.000000000000001776 -1.75 -0 0 1 I I #
point $-1 -5 3 -7 #
coedge $-1 $381 $302 $334 $375 reversed $268 $-1 #
coedge $-1 $382 $305 $383 $384 forward $94 $-1 #
coedge $-1 $318 $317 $305 $345 reversed $244 $-1 #
edge $-1 $346 2.898323506525862209e-09 $385 0.08314123184349543616 $305 $386 forward 7 unknown #
vertex $-1 $307 $387 #
straight-curve $-1 0.1000000080540576208 3.700000004416741373 0 -0.3162277684815960055 0.9486832972289277466 0 I I #
plane-surface $-1 -5 7 -7 0 0 -1 -1 0 0 forward_v I I I I #
point $-1 -1 7 -7 #
face $-1 $388 $389 $2 $-1 $390 forward single #
loop $-1 $-1 $391 $313 #
plane-surface $-1 -19.07325985638888 68.56044103339661433 0 0.9863939235838624642 -0.1643989887950452478 0 0 0 -1 forward_v I I I I #
coedge $-1 $392 $393 $394 $395 forward $314 $-1 #
coedge $-1 $383 $316 $393 $396 reversed $278 $-1 #
coedge $-1 $316 $383 $317 $358 forward $278 $-1 #
coedge $-1 $319 $394 $316 $357 reversed $268 $-1 #
edge $-1 $359 7.922438967092958251 $397 32.61761851217256236 $316 $398 forward 7 unknown #
edge $-1 $385 -0 $359 7 $355 $399 forward 7 unknown #
vertex $-1 $358 $400 #
ellipse-curve $-1 -43.42119749282460361 7.772486071738622826 -7 -0 -0 1 37.9473318909479076 12.64911061765672251 0 1 I I #
straight-curve $-1 -5.473865638537915856 20.42159679937898886 0 0 0 -1 I I #
point $-1 -5.473865638537908751 20.42159679937899242 -7 #
coedge $-1 $326 $401 $402 $403 forward $94 $-1 #
coedge $-1 $404 $405 $326 $365 reversed $406 $-1 #
edge $-1 $407 2.185941884746740067e-09 $369 0.5700404637625609006 $326 $408 forward 7 unknown #
coedge $-1 $409 $327 $405 $410 forward $368 $-1 #
coedge $-1 $327 $409 $329 $372 reversed $368 $-1 #
loop $-1 $-1 $409 $411 #
vertex $-1 $365 $412 #
straight-curve $-1 -10.43302714958488586 23.01039675365621662 0 0.3939192983363531408 -0.9191450301221213426 0 I I #
coedge $-1 $330 $329 $381 $413 forward $331 $-1 #
edge $-1 $332 -0 $414 7 $329 $415 reversed 7 unknown #
face $-1 $336 $331 $2 $-1 $416 forward single #
point $-1 -10.65539626199022649 23.52925801631393554 0 #
edge $-1 $376 -7.073802534664073605 $339 7.073802534664075381 $334 $417 forward 7 unknown #
vertex $-1 $335 $418 #
straight-curve $-1 -9.47386551877869465 20.4215966456142084 0 0 0 1 I I #
plane-surface $-1 -9.47386551877869465 20.42159664561421195 0 -0.9486832986815615376 -0.3162277641236950765 0 0 0 1 forward_v I I I I #
straight-curve $-1 -5 6 -7 -0 1 0 I I #
point $-1 -5 7.000000000000001776 -7 #
coedge $-1 $419 $342 $371 $413 reversed $268 $-1 #
coedge $-1 $420 $343 $421 $422 forward $94 $-1 #
coedge $-1 $355 $354 $343 $384 reversed $278 $-1 #
edge $-1 $385 12.12424481828680456 $423 36.81942436336640867 $343 $424 forward 7 unknown #
vertex $-1 $345 $425 #
ellipse-curve $-1 -43.42119749282460361 7.772486071738622826 0 0 0 1 37.9473318909479076 12.64911061765672251 0 1 I I #
point $-1 -5.473865638537915856 20.42159679937898886 0 #
face $-1 $426 $427 $2 $-1 $428 forward single #
loop $-1 $-1 $429 $350 #
plane-surface $-1 -16 87 0 0 1 0 0 0 1 forward_v I I I I #
coedge $-1 $430 $431 $432 $433 forward $351 $-1 #
coedge $-1 $421 $353 $431 $434 reversed $314 $-1 #
coedge $-1 $353 $421 $354 $396 forward $314 $-1 #
coedge $-1 $356 $432 $353 $395 reversed $268 $-1 #
edge $-1 $397 5.905399557998996954e-10 $435 0.5700404654553000716 $353 $436 forward 7 unknown #
edge $-1 $423 -0 $397 7 $393 $437 reversed 7 unknown #
vertex $-1 $396 $438 #
straight-curve $-1 -3.534594722008030931 16.24738758443298892 -7 -0.3939192982618914818 0.9191450301540334822 0 I I #
straight-curve $-1 -6.65539632044794871 23.52925798773513577 0 0 0 -1 I I #
point $-1 -6.655396320447952263 23.52925798773513577 -7 #
coedge $-1 $363 $420 $439 $440 forward $94 $-1 #
coedge $-1 $441 $442 $363 $403 reversed $427 $-1 #
edge $-1 $443 -41.26414584527470453 $407 -22.57023597958993477 $363 $444 forward 7 unknown #
coedge $-1 $445 $364 $442 $446 forward $406 $-1 #
coedge $-1 $364 $445 $366 $410 reversed $406 $-1 #
loop $-1 $-1 $445 $426 #
vertex $-1 $403 $447 #
ellipse-curve $-1 16.38249711481370596 61.98448147695346222 0 0 0 1 -39.45575691487871239 6.575959499074556014 0 1 I I #
coedge $-1 $367 $366 $419 $448 forward $368 $-1 #
edge $-1 $369 0 $449 7 $366 $450 forward 7 unknown #
face $-1 $373 $368 $2 $-1 $451 forward single #
point $-1 -20.38330405628645892 46.22770955797849268 0 #
edge $-1 $414 5.095280651217877255e-10 $376 0.08314123412934266988 $371 $452 forward 7 unknown #
vertex $-1 $372 $453 #
straight-curve $-1 -10.65539626199022649 23.52925801631393554 0 0 0 1 I I #
cone-surface $-1 -47.4211974928245894 7.772486071738595292 0 0 0 -1 36.76580116307164303 15.75677193770817652 0 1 I I 0 -1 40.00000002823222189 forward I I I I #
straight-curve $-1 -7.236932759389347325 13.71079832280710598 -7 0.3162277641236950765 -0.9486832986815615376 0 I I #
point $-1 -9.47386551877869465 20.4215966456142084 -7 #
coedge $-1 $454 $381 $409 $448 reversed $268 $-1 #
coedge $-1 $401 $382 $455 $456 forward $94 $-1 #
coedge $-1 $393 $392 $382 $422 reversed $314 $-1 #
edge $-1 $423 5.905400258947102082e-10 $457 0.5700404654553000716 $382 $458 forward 7 unknown #
vertex $-1 $384 $459 #
straight-curve $-1 -1.87942230967304269 12.38531861863602579 0 -0.3939192982618914818 0.9191450301540334822 0 I I #
point $-1 -6.655396320447955816 23.52925798773513222 0 #
face $-1 $411 $406 $2 $-1 $460 forward single #
loop $-1 $-1 $461 $388 #
plane-surface $-1 -20 87 0 -0.9863939241377478462 0.1643989854717330668 0 0 0 1 forward_v I I I I #
coedge $-1 $462 $463 $464 $465 forward $389 $-1 #
coedge $-1 $455 $391 $463 $466 reversed $351 $-1 #
coedge $-1 $391 $455 $392 $434 forward $351 $-1 #
coedge $-1 $394 $464 $391 $433 reversed $268 $-1 #
edge $-1 $435 29.20460763952242544 $467 47.89851737044106983 $391 $468 forward 7 unknown #
edge $-1 $457 -0 $435 7 $431 $469 reversed 7 unknown #
vertex $-1 $434 $470 #
ellipse-curve $-1 20.38249711481370952 61.98448147695346222 -7 0 0 -1 -36.76580116307164303 -15.75677193770817652 0 1 I I #
straight-curve $-1 -16.38330411729712921 46.22770953535659544 0 -0 -0 1 I I #
point $-1 -16.38330405756293828 46.22770956095695993 -7 #
coedge $-1 $463 $462 $401 $440 reversed $389 $-1 #
edge $-1 $471 7.999999999999996447 $443 12 $401 $472 forward 7 unknown #
coedge $-1 $461 $402 $462 $473 forward $427 $-1 #
coedge $-1 $402 $461 $404 $446 reversed $427 $-1 #
vertex $-1 $440 $474 #
straight-curve $-1 -26.78378371332079055 46.29729725348715164 0 -0.1643989854717330668 -0.9863939241377478462 0 I I #
coedge $-1 $405 $404 $454 $475 forward $406 $-1 #
edge $-1 $407 0 $476 7 $404 $477 forward 7 unknown #
point $-1 -23.07325981641858803 68.56044089010984521 0 #
edge $-1 $449 -21.05787792295550886 $414 3.637301615643188768 $409 $478 forward 7 unknown #
vertex $-1 $410 $479 #
straight-curve $-1 -20.38330405812530088 46.22770955719041552 0 0 0 -1 I I #
plane-surface $-1 -20.3832956981044795 46.2276900504751751 0 -0.9191450301221213426 -0.3939192983363531408 0 0 0 1 forward_v I I I I #
ellipse-curve $-1 -47.4211974928245894 7.772486071738595292 -7 0 0 -1 36.76580116307164303 15.75677193770817652 0 1 I I #
point $-1 -10.65539632172442452 23.52925799071356394 -7 #
coedge $-1 $480 $419 $445 $475 reversed $268 $-1 #
coedge $-1 $431 $430 $420 $456 reversed $351 $-1 #
edge $-1 $457 32.24598890007833063 $471 50.93989863099697857 $420 $481 forward 7 unknown #
vertex $-1 $422 $482 #
ellipse-curve $-1 20.38249711481370952 61.98448147695346222 0 -0 -0 -1 -36.76580116307164303 -15.75677193770817652 0 1 I I #
point $-1 -16.38330411729712921 46.22770953535659544 0 #
cone-surface $-1 16.38249711481370596 61.98448147695346222 0 0 0 -1 -39.45575691487871239 6.575959499074556014 0 1 I I 0 1 39.99999996524957169 forward I I I I #
coedge $-1 $442 $441 $480 $483 forward $427 $-1 #
coedge $-1 $439 $429 $441 $473 reversed $389 $-1 #
coedge $-1 $429 $439 $430 $466 forward $389 $-1 #
coedge $-1 $432 $480 $429 $465 reversed $268 $-1 #
edge $-1 $467 5.499999999999998224 $484 9.500000000000003553 $429 $485 forward 7 unknown #
edge $-1 $471 0 $467 7 $463 $486 forward 7 unknown #
vertex $-1 $466 $487 #
straight-curve $-1 -23.87446782048242255 39.75319351712084881 -7 0.1643989887950452478 0.9863939235838624642 0 I I #
straight-curve $-1 -19.07325985638888 68.56044103339661433 0 -0 0 1 I I #
point $-1 -19.07325985638888355 68.56044103339661433 -7 #
vertex $-1 $456 $488 #
straight-curve $-1 -8 87 0 -1 0 0 I I #
edge $-1 $443 0 $484 7 $441 $489 forward 7 unknown #
point $-1 -20 87 0 #
edge $-1 $476 2.185941884856376654e-09 $449 0.5700404637625609006 $445 $490 forward 7 unknown #
vertex $-1 $446 $491 #
straight-curve $-1 -23.07325981641858803 68.56044089010984521 0 0 0 -1 I I #
straight-curve $-1 -12.08819956226207992 26.87246571938753092 -7 0.3939192983363531408 -0.9191450301221213426 0 I I #
point $-1 -20.38330405812529023 46.22770955719042263 -7 #
coedge $-1 $464 $454 $461 $483 reversed $268 $-1 #
straight-curve $-1 -24.37446782425800862 36.7531935224066757 0 0.1643989887950452478 0.9863939235838624642 -0 I I #
point $-1 -19.07325979228425439 68.56044102271251006 0 #
edge $-1 $484 -38.22276457447191689 $476 -19.52885470878715424 $461 $492 forward 7 unknown #
vertex $-1 $473 $493 #
straight-curve $-1 -10.5 87 -7 -1 0 0 I I #
straight-curve $-1 -15.99999999999999822 87 0 0 0 -1 I I #
point $-1 -15.99999999999999822 87 -7 #
point $-1 -15.99999999999999645 87 0 #
straight-curve $-1 -20 87 0 0 0 -1 I I #
ellipse-curve $-1 16.38249711481370596 61.98448147695346222 -7 -0 -0 1 -39.45575691487871239 6.575959499074556014 0 1 I I #
point $-1 -23.07325981443966967 68.56044088978002549 -7 #
straight-curve $-1 -26.28378371796808466 49.29729725999335699 -7 -0.1643989854717330668 -0.9863939241377478462 -0 I I #
point $-1 -20.00000000000000355 87 -7 #
End-of-ACIS-data 