106 0 1 0           
body $-1 $1 $-1 $2 #
lump $-1 $-1 $3 $0 #
transform $-1 1 0 0 0 1 0 0 0 1 0 0 -1.75 1 0 0 0 #
shell $-1 $-1 $-1 $4 $1 #
face $-1 $5 $6 $3 $-1 $7 forward single #
face $-1 $8 $9 $3 $-1 $10 reversed single #
loop $-1 $11 $12 $4 #
plane-surface $-1 0 0 -1.75 0 0 1 1 0 0 0 I I I I #
face $-1 $13 $14 $3 $-1 $15 forward single #
loop $-1 $-1 $16 $5 #
cone-surface $-1 0 0 -1.75 0 0 -1 -5 0 0 1 I I 0 1 0 I I I I #
loop $-1 $-1 $17 $4 #
coedge $-1 $18 $19 $20 $21 0 $6 $-1 #
face $-1 $22 $23 $3 $-1 $24 forward single #
loop $-1 $-1 $25 $8 #
plane-surface $-1 0 -2 -5.25 1 0 0 0 0 -1 0 I I I I #
coedge $-1 $26 $27 $18 $28 1 $9 $-1 #
coedge $-1 $17 $17 $29 $30 1 $11 $-1 #
coedge $-1 $31 $12 $16 $28 0 $6 $-1 #
coedge $-1 $12 $31 $32 $33 0 $6 $-1 #
coedge $-1 $34 $35 $12 $21 1 $36 $-1 #
edge $-1 $37 $38 $12 $39 0 #
face $-1 $40 $41 $3 $-1 $42 forward single #
loop $-1 $-1 $43 $13 #
plane-surface $-1 -10 -16 -5.25 0 -0.1543768802736096 -0.98801203375110147 1 0 0 0 I I I I #
coedge $-1 $44 $45 $46 $47 1 $14 $-1 #
coedge $-1 $48 $16 $49 $50 1 $9 $-1 #
coedge $-1 $16 $48 $44 $51 1 $9 $-1 #
edge $-1 $38 $52 $18 $39 0 #
coedge $-1 $29 $29 $17 $30 0 $53 $-1 #
edge $-1 $54 $54 $29 $55 1 #
coedge $-1 $19 $18 $56 $57 0 $6 $-1 #
coedge $-1 $58 $59 $19 $33 1 $60 $-1 #
edge $-1 $61 $37 $19 $39 0 #
coedge $-1 $62 $20 $63 $64 0 $36 $-1 #
coedge $-1 $20 $62 $65 $66 0 $36 $-1 #
loop $-1 $-1 $35 $67 #
vertex $-1 $21 $68 #
vertex $-1 $28 $69 #
ellipse-curve $-1 0 0 -1.75 0 0 1 -5 0 0 1 I I #
face $-1 $70 $71 $3 $-1 $72 forward single #
loop $-1 $-1 $73 $22 #
plane-surface $-1 -10 -32 -0.75 0 -0.1543768802736096 0.98801203375110147 -1 0 0 0 I I I I #
coedge $-1 $74 $75 $76 $77 1 $23 $-1 #
coedge $-1 $78 $25 $27 $51 0 $14 $-1 #
coedge $-1 $25 $79 $80 $81 1 $14 $-1 #
coedge $-1 $82 $56 $25 $47 0 $83 $-1 #
edge $-1 $52 $84 $46 $85 0 #
coedge $-1 $27 $26 $86 $87 1 $9 $-1 #
coedge $-1 $65 $88 $26 $50 0 $89 $-1 #
edge $-1 $90 $38 $49 $91 0 #
edge $-1 $52 $92 $44 $93 0 #
vertex $-1 $57 $94 #
loop $-1 $95 $29 $96 #
vertex $-1 $30 $97 #
ellipse-curve $-1 0 0 -1.75 0 0 -1 3.5 0 0 1 I I #
coedge $-1 $46 $98 $31 $57 1 $83 $-1 #
edge $-1 $52 $61 $31 $39 0 #
coedge $-1 $99 $32 $100 $101 1 $60 $-1 #
coedge $-1 $32 $99 $102 $103 1 $60 $-1 #
loop $-1 $-1 $32 $104 #
vertex $-1 $33 $105 #
coedge $-1 $35 $34 $106 $107 1 $36 $-1 #
coedge $-1 $102 $108 $34 $64 1 $109 $-1 #
edge $-1 $37 $110 $34 $111 0 #
coedge $-1 $112 $49 $35 $66 1 $89 $-1 #
edge $-1 $113 $38 $35 $114 0 #
face $-1 $115 $36 $3 $-1 $116 forward single #
point $-1 1 4.8989794855663558 -1.75 #
point $-1 -4.5825756949558389 -2 -1.75 #
face $-1 $117 $118 $3 $-1 $119 forward single #
loop $-1 $-1 $120 $40 #
plane-surface $-1 0 -32 -5.25 0 -1 0 0 0 1 0 I I I I #
coedge $-1 $121 $122 $123 $124 1 $41 $-1 #
coedge $-1 $125 $43 $126 $127 1 $23 $-1 #
coedge $-1 $43 $125 $120 $128 1 $23 $-1 #
coedge $-1 $129 $130 $43 $77 0 $131 $-1 #
edge $-1 $132 $133 $76 $134 0 #
coedge $-1 $135 $44 $136 $137 0 $14 $-1 #
coedge $-1 $45 $138 $125 $139 0 $14 $-1 #
coedge $-1 $126 $140 $45 $81 0 $141 $-1 #
edge $-1 $84 $142 $80 $143 0 #
coedge $-1 $98 $46 $140 $144 1 $83 $-1 #
loop $-1 $-1 $46 $145 #
vertex $-1 $81 $146 #
straight-curve $-1 0 -5 -3.5 0 0 -1 I I #
coedge $-1 $147 $136 $48 $87 0 $118 $-1 #
edge $-1 $92 $90 $86 $148 0 #
coedge $-1 $49 $149 $147 $150 0 $89 $-1 #
loop $-1 $-1 $49 $151 #
vertex $-1 $87 $152 #
straight-curve $-1 -4.5825756949558389 -2 -1.75 0 0 -1 I I #
vertex $-1 $137 $153 #
straight-curve $-1 0 -5 -1.75 0 0 1 I I #
point $-1 0 -5 -1.75 #
loop $-1 $-1 $154 $96 #
face $-1 $155 $53 $3 $-1 $156 forward single #
point $-1 3.5 0 -1.75 #
coedge $-1 $56 $82 $157 $158 0 $83 $-1 #
coedge $-1 $59 $58 $159 $160 1 $60 $-1 #
coedge $-1 $157 $161 $58 $101 0 $162 $-1 #
edge $-1 $163 $61 $100 $164 0 #
coedge $-1 $165 $63 $59 $103 0 $109 $-1 #
edge $-1 $37 $166 $102 $167 0 #
face $-1 $168 $60 $3 $-1 $169 reversed single #
point $-1 4 3 -1.75 #
coedge $-1 $170 $171 $62 $107 0 $141 $-1 #
edge $-1 $113 $110 $106 $172 0 #
coedge $-1 $63 $173 $170 $174 1 $109 $-1 #
loop $-1 $-1 $63 $168 #
vertex $-1 $174 $175 #
straight-curve $-1 1 4.8989794855663558 -3.5 0 0 -1 I I #
coedge $-1 $149 $65 $171 $176 1 $89 $-1 #
vertex $-1 $107 $177 #
straight-curve $-1 -4.5825756949558389 -2 -3.5 0 0 1 I I #
face $-1 $178 $141 $3 $-1 $179 forward single #
cone-surface $-1 0 0 -3.5 0 0 -1 -5 0 0 1 I I 0 1 0 I I I I #
face $-1 $151 $131 $3 $-1 $180 forward single #
loop $-1 $-1 $86 $70 #
plane-surface $-1 0 -32 1.75 0 0 1 1 0 0 0 I I I I #
coedge $-1 $181 $182 $75 $128 0 $71 $-1 #
coedge $-1 $183 $73 $184 $185 1 $41 $-1 #
coedge $-1 $73 $183 $186 $187 1 $41 $-1 #
coedge $-1 $188 $129 $73 $124 0 $131 $-1 #
edge $-1 $189 $190 $123 $191 0 #
coedge $-1 $75 $74 $79 $139 1 $23 $-1 #
coedge $-1 $192 $80 $74 $127 0 $141 $-1 #
edge $-1 $142 $132 $126 $193 0 #
edge $-1 $133 $194 $120 $195 0 #
coedge $-1 $123 $76 $182 $196 0 $131 $-1 #
coedge $-1 $76 $197 $192 $198 1 $131 $-1 #
loop $-1 $-1 $76 $117 #
vertex $-1 $198 $199 #
vertex $-1 $196 $200 #
straight-curve $-1 -2.4478704754047644 -23.312777147571413 -4.1073785706919663 0.1624805142171141 -0.97488308530268453 0.15232548207854443 I I #
coedge $-1 $138 $78 $183 $201 0 $14 $-1 #
coedge $-1 $86 $186 $78 $137 1 $118 $-1 #
edge $-1 $92 $202 $78 $203 0 #
coedge $-1 $79 $135 $181 $204 1 $14 $-1 #
edge $-1 $194 $142 $79 $205 0 #
coedge $-1 $80 $206 $82 $144 0 $141 $-1 #
loop $-1 $-1 $140 $115 #
vertex $-1 $139 $207 #
straight-curve $-1 0 -2 -5.25 0 -1 0 I I #
edge $-1 $208 $84 $140 $172 0 #
face $-1 $104 $83 $3 $-1 $116 forward single #
point $-1 0 -5 -5.25 #
coedge $-1 $209 $86 $88 $150 1 $118 $-1 #
ellipse-curve $-1 0 0 1.75 0 0 -1 -5 0 0 1 I I #
coedge $-1 $88 $112 $197 $210 0 $89 $-1 #
edge $-1 $211 $90 $88 $212 0 #
face $-1 $145 $89 $3 $-1 $213 forward single #
point $-1 -4.5825756949558389 -2 1.75 #
point $-1 0 -5 1.75 #
coedge $-1 $154 $154 $214 $215 1 $95 $-1 #
face $-1 $-1 $216 $3 $-1 $217 forward single #
cone-surface $-1 0 0 0 0 0 1 3.5 0 0 1 I I 0 1 0 I I I I #
coedge $-1 $218 $100 $98 $158 1 $162 $-1 #
edge $-1 $208 $61 $98 $219 0 #
coedge $-1 $220 $221 $99 $160 0 $222 $-1 #
edge $-1 $166 $163 $159 $223 0 #
coedge $-1 $100 $224 $220 $225 1 $162 $-1 #
loop $-1 $-1 $100 $226 #
vertex $-1 $225 $227 #
straight-curve $-1 4 3 -1.75 0 0 -1 I I #
coedge $-1 $173 $102 $221 $228 1 $109 $-1 #
vertex $-1 $160 $229 #
straight-curve $-1 1 4.8989794855663558 -1.75 0 0 1 I I #
face $-1 $226 $109 $3 $-1 $230 reversed single #
cone-surface $-1 0 0 -1.75 0 0 -1 -5 0 0 1 I I 0 1 0 I I I I #
coedge $-1 $231 $106 $108 $174 0 $141 $-1 #
coedge $-1 $106 $192 $112 $176 0 $141 $-1 #
ellipse-curve $-1 0 0 -5.25 0 0 -1 -5 0 0 1 I I #
coedge $-1 $108 $165 $232 $233 0 $109 $-1 #
edge $-1 $110 $234 $108 $235 0 #
point $-1 1 4.8989794855663558 -5.25 #
edge $-1 $236 $113 $171 $237 0 #
point $-1 -4.5825756949558389 -2 -5.25 #
face $-1 $238 $239 $3 $-1 $240 forward single #
plane-surface $-1 0 0 -5.25 0 0 -1 -1 0 0 0 I I I I #
plane-surface $-1 -1 -32 -5.25 -0.98639392383214375 -0.16439898730535729 0 0 0 1 0 I I I I #
coedge $-1 $184 $120 $138 $204 0 $71 $-1 #
coedge $-1 $120 $184 $129 $196 1 $71 $-1 #
coedge $-1 $122 $121 $135 $201 1 $41 $-1 #
coedge $-1 $182 $181 $121 $185 0 $71 $-1 #
edge $-1 $241 $189 $184 $242 0 #
coedge $-1 $136 $209 $122 $187 0 $118 $-1 #
edge $-1 $190 $202 $186 $243 0 #
coedge $-1 $197 $123 $209 $244 0 $131 $-1 #
vertex $-1 $124 $245 #
vertex $-1 $244 $246 #
straight-curve $-1 -1.0631123027740541 -31.621326183355677 -0.69083221614932455 -0.1624805142171141 0.97488308530268453 0.15232548207854443 I I #
coedge $-1 $171 $126 $130 $198 0 $141 $-1 #
straight-curve $-1 -5.875 -16 -5.25 -1 0 0 I I #
vertex $-1 $204 $247 #
straight-curve $-1 -5 -32 -2.75 1 0 0 I I #
edge $-1 $133 $189 $129 $248 0 #
coedge $-1 $130 $188 $149 $210 1 $131 $-1 #
edge $-1 $132 $236 $192 $249 0 #
point $-1 -3.6666666666666679 -16 -5.25 #
point $-1 -1 -32 -2.75 #
edge $-1 $202 $241 $135 $250 0 #
vertex $-1 $187 $251 #
straight-curve $-1 0 -2 1.75 0 -1 0 I I #
edge $-1 $194 $241 $181 $252 0 #
straight-curve $-1 0 -9.1668255481410874 -6.317683508102955 0 0.98801203375110147 -0.1543768802736096 I I #
coedge $-1 $140 $253 $218 $254 0 $141 $-1 #
point $-1 0 -16 -5.25 #
vertex $-1 $144 $255 #
coedge $-1 $186 $147 $188 $244 1 $118 $-1 #
edge $-1 $236 $211 $149 $256 0 #
vertex $-1 $210 $257 #
straight-curve $-1 -6 -2 1.75 1 0 0 I I #
plane-surface $-1 -6 -2 -5.25 0 1 0 0 0 -1 0 I I I I #
coedge $-1 $214 $214 $154 $215 0 $216 $-1 #
edge $-1 $258 $258 $214 $259 0 #
loop $-1 $-1 $214 $155 #
plane-surface $-1 0 0 1.75 0 0 1 1 0 0 0 I I I I #
coedge $-1 $224 $157 $206 $254 1 $162 $-1 #
straight-curve $-1 4 3 -3.5 0 0 1 I I #
coedge $-1 $260 $159 $161 $225 0 $222 $-1 #
coedge $-1 $159 $261 $165 $228 0 $222 $-1 #
loop $-1 $-1 $261 $262 #
ellipse-curve $-1 0 0 1.75 0 0 -1 -5 0 0 1 I I #
coedge $-1 $161 $218 $263 $264 0 $162 $-1 #
edge $-1 $163 $265 $161 $266 0 #
face $-1 $267 $162 $3 $-1 $268 reversed single #
point $-1 4 3 1.75 #
edge $-1 $269 $166 $165 $270 0 #
point $-1 1 4.8989794855663558 1.75 #
plane-surface $-1 1 5 -1.75 1 0 0 0 0 -1 0 I I I I #
coedge $-1 $271 $170 $272 $273 0 $141 $-1 #
coedge $-1 $274 $272 $173 $233 1 $239 $-1 #
edge $-1 $269 $234 $232 $275 1 #
vertex $-1 $273 $276 #
straight-curve $-1 1 5 -5.25 0 1 0 I I #
vertex $-1 $198 $277 #
straight-curve $-1 -6 -2 -5.25 1 0 0 I I #
face $-1 $278 $279 $3 $-1 $280 forward single #
loop $-1 $-1 $274 $178 #
plane-surface $-1 1 7 -5.25 -0.94868329722892775 0.31622776848159601 0 0 0 1 0 I I I I #
vertex $-1 $201 $281 #
straight-curve $-1 -5 -32 -0.75 -1 0 0 I I #
straight-curve $-1 -5 -15.999999999999993 1.75 1 0 0 I I #
edge $-1 $190 $211 $188 $282 0 #
point $-1 -1 -32 -0.75 #
point $-1 -3.6666666666666679 -16 1.75 #
point $-1 0 -32 -2.75 #
straight-curve $-1 -1 -32 -5.25 0 0 1 I I #
straight-curve $-1 -1 -32 -5.25 -0.16439898730535729 0.98639392383214375 0 I I #
straight-curve $-1 0 -17.700667302192564 1.4842707340324122 0 -0.98801203375110147 -0.1543768802736096 I I #
point $-1 0 -16 1.75 #
straight-curve $-1 0 -32 -5.25 0 0 1 I I #
coedge $-1 $206 $283 $284 $285 0 $141 $-1 #
edge $-1 $286 $208 $218 $287 0 #
point $-1 4 3 -5.25 #
straight-curve $-1 -6 -2 -5.25 0 0 1 I I #
point $-1 -6 -2 1.75 #
vertex $-1 $215 $288 #
ellipse-curve $-1 0 0 1.75 0 0 1 3.5 0 0 1 I I #
coedge $-1 $289 $220 $290 $291 0 $222 $-1 #
coedge $-1 $221 $292 $274 $293 1 $222 $-1 #
face $-1 $96 $222 $3 $-1 $294 forward single #
coedge $-1 $284 $290 $224 $264 1 $295 $-1 #
edge $-1 $286 $265 $263 $296 0 #
vertex $-1 $291 $297 #
straight-curve $-1 3 3 1.75 1 0 0 I I #
face $-1 $67 $295 $3 $-1 $298 reversed single #
plane-surface $-1 3 3 -1.75 0 1 0 0 0 -1 0 I I I I #
vertex $-1 $233 $299 #
straight-curve $-1 1 5 1.75 0 -1 0 I I #
coedge $-1 $300 $231 $301 $302 0 $141 $-1 #
coedge $-1 $232 $303 $231 $273 1 $239 $-1 #
edge $-1 $234 $304 $231 $305 0 #
coedge $-1 $303 $232 $261 $293 0 $239 $-1 #
straight-curve $-1 1 7 -5.25 0 0 1 I I #
point $-1 1 7 -5.25 #
point $-1 -6 -2 -5.25 #
face $-1 $306 $307 $3 $-1 $308 forward single #
loop $-1 $-1 $309 $238 #
cone-surface $-1 43.421197492824604 7.7724860717386228 -5.25 0 0 1 -37.947331890947908 12.649110617656723 0 1 I I 0 1 0 I I I I #
point $-1 0 -32 -0.75 #
straight-curve $-1 -1 -32 1.75 -0.16439898730535729 0.98639392383214375 0 I I #
coedge $-1 $253 $310 $311 $312 0 $141 $-1 #
coedge $-1 $313 $263 $253 $285 1 $295 $-1 #
edge $-1 $314 $286 $284 $315 0 #
vertex $-1 $285 $316 #
straight-curve $-1 3 3 -5.25 -1 0 0 I I #
point $-1 3.5 0 1.75 #
coedge $-1 $317 $260 $318 $319 1 $222 $-1 #
coedge $-1 $263 $313 $260 $291 1 $295 $-1 #
edge $-1 $265 $320 $290 $321 0 #
coedge $-1 $261 $322 $309 $323 1 $222 $-1 #
edge $-1 $269 $324 $274 $325 0 #
plane-surface $-1 5 7 1.75 0 0 1 1 0 0 0 I I I I #
loop $-1 $-1 $313 $267 #
straight-curve $-1 5 3 -1.75 0 0 1 I I #
point $-1 5 3 1.75 #
plane-surface $-1 5 5 -1.75 -1 0 0 0 0 1 0 I I I I #
point $-1 1 7 1.75 #
coedge $-1 $326 $271 $327 $328 0 $141 $-1 #
coedge $-1 $329 $330 $271 $302 1 $279 $-1 #
edge $-1 $304 $331 $271 $332 0 #
coedge $-1 $272 $274 $329 $333 1 $239 $-1 #
vertex $-1 $273 $334 #
straight-curve $-1 1 7 -5.25 0.31622776848159601 0.94868329722892775 0 I I #
face $-1 $335 $336 $3 $-1 $337 forward single #
loop $-1 $-1 $338 $278 #
plane-surface $-1 6.6553963024343661 23.529257945703428 -5.25 -0.91914503015403348 0.39391929826189148 0 0 0 1 0 I I I I #
coedge $-1 $330 $329 $292 $323 0 $279 $-1 #
coedge $-1 $283 $339 $340 $341 0 $141 $-1 #
coedge $-1 $342 $343 $283 $312 1 $344 $-1 #
edge $-1 $345 $314 $283 $346 0 #
coedge $-1 $290 $284 $343 $347 1 $295 $-1 #
vertex $-1 $285 $348 #
straight-curve $-1 5 5 -5.25 0 -1 0 I I #
point $-1 5 3 -5.25 #
coedge $-1 $349 $289 $350 $351 1 $222 $-1 #
coedge $-1 $343 $342 $289 $319 0 $344 $-1 #
edge $-1 $352 $320 $318 $353 0 #
vertex $-1 $347 $354 #
straight-curve $-1 5 5 1.75 0 1 0 I I #
coedge $-1 $292 $355 $338 $356 1 $222 $-1 #
edge $-1 $324 $357 $309 $358 0 #
vertex $-1 $333 $359 #
straight-curve $-1 1 7 1.75 0.31622776848159601 0.94868329722892775 0 I I #
coedge $-1 $360 $300 $361 $362 0 $141 $-1 #
coedge $-1 $363 $364 $300 $328 1 $307 $-1 #
edge $-1 $331 $365 $300 $366 0 #
coedge $-1 $309 $301 $303 $333 0 $279 $-1 #
coedge $-1 $301 $309 $363 $367 1 $279 $-1 #
vertex $-1 $302 $368 #
ellipse-curve $-1 43.421197492824604 7.7724860717386228 -5.25 0 0 -1 -37.947331890947908 12.649110617656723 0 1 I I #
edge $-1 $304 $324 $329 $369 0 #
point $-1 5.4738656385379088 20.421596799378978 -5.25 #
face $-1 $370 $371 $3 $-1 $372 forward single #
loop $-1 $-1 $373 $306 #
cone-surface $-1 -20.38249711481371 61.984481476953462 -5.25 0 0 1 36.765801222805841 -15.756771963308546 0 1 I I 0 -1 0 I I I I #
coedge $-1 $364 $363 $322 $356 0 $307 $-1 #
coedge $-1 $310 $374 $375 $376 0 $141 $-1 #
coedge $-1 $377 $378 $310 $341 1 $379 $-1 #
edge $-1 $380 $345 $310 $381 0 #
coedge $-1 $318 $311 $378 $382 0 $344 $-1 #
coedge $-1 $311 $318 $313 $347 0 $344 $-1 #
loop $-1 $-1 $318 $383 #
vertex $-1 $341 $384 #
straight-curve $-1 9.4738655187786946 20.421596645614208 -5.25 -0.31622776412369508 -0.94868329868156154 0 I I #
edge $-1 $320 $314 $343 $385 1 #
point $-1 5 7 -5.25 #
coedge $-1 $386 $317 $387 $388 1 $222 $-1 #
coedge $-1 $378 $377 $317 $351 0 $379 $-1 #
edge $-1 $389 $352 $350 $390 0 #
vertex $-1 $382 $391 #
straight-curve $-1 9.4738655187786946 20.421596645614208 1.75 -0.31622776412369508 -0.94868329868156154 0 I I #
point $-1 5 7 1.75 #
coedge $-1 $322 $392 $373 $393 1 $222 $-1 #
edge $-1 $357 $394 $338 $395 0 #
vertex $-1 $367 $396 #
ellipse-curve $-1 43.421197492824604 7.7724860717386228 1.75 0 0 -1 -37.947331890947908 12.649110617656723 0 1 I I #
point $-1 5.4738656385379088 20.421596799378978 1.75 #
coedge $-1 $397 $326 $398 $399 0 $141 $-1 #
coedge $-1 $400 $401 $326 $362 1 $336 $-1 #
edge $-1 $365 $402 $326 $403 0 #
coedge $-1 $338 $327 $330 $367 0 $307 $-1 #
coedge $-1 $327 $338 $400 $404 1 $307 $-1 #
vertex $-1 $328 $405 #
straight-curve $-1 6.6553963024343759 23.529257945703424 -5.25 0.39391929826189148 0.91914503015403348 0 I I #
edge $-1 $331 $357 $363 $406 0 #
point $-1 6.6553963024343661 23.529257945703428 -5.25 #
straight-curve $-1 5.4738656385379088 20.421596799378978 -5.25 0 0 1 I I #
face $-1 $407 $408 $3 $-1 $409 forward single #
loop $-1 $-1 $410 $335 #
plane-surface $-1 19.07325985638888 68.560441033396614 -5.25 -0.98639392358386246 -0.16439898879504525 0 0 0 1 0 I I I I #
coedge $-1 $401 $400 $355 $393 0 $336 $-1 #
coedge $-1 $339 $411 $412 $413 0 $141 $-1 #
coedge $-1 $414 $415 $339 $376 1 $416 $-1 #
edge $-1 $417 $380 $339 $418 0 #
coedge $-1 $350 $340 $415 $419 0 $379 $-1 #
coedge $-1 $340 $350 $342 $382 1 $379 $-1 #
loop $-1 $-1 $350 $420 #
vertex $-1 $376 $421 #
ellipse-curve $-1 47.421197492824589 7.7724860717385953 -5.25 0 0 1 -36.765801222805841 15.756771963308546 0 1 I I #
edge $-1 $345 $352 $342 $422 0 #
face $-1 $262 $344 $3 $-1 $423 forward single #
point $-1 9.4738655187786946 20.421596645614212 -5.25 #
straight-curve $-1 5 7 -5.25 0 0 1 I I #
coedge $-1 $424 $349 $425 $426 1 $222 $-1 #
coedge $-1 $415 $414 $349 $388 0 $416 $-1 #
edge $-1 $427 $389 $387 $428 0 #
vertex $-1 $419 $429 #
ellipse-curve $-1 47.421197492824589 7.7724860717385953 1.75 0 0 1 -36.765801222805841 15.756771963308546 0 1 I I #
point $-1 9.4738655187786946 20.421596645614212 1.75 #
coedge $-1 $355 $430 $410 $431 1 $222 $-1 #
edge $-1 $394 $432 $373 $433 0 #
vertex $-1 $404 $434 #
straight-curve $-1 6.6553963024343759 23.529257945703424 1.75 0.39391929826189148 0.91914503015403348 0 I I #
point $-1 6.6553963024343661 23.529257945703428 1.75 #
coedge $-1 $411 $360 $435 $436 0 $141 $-1 #
coedge $-1 $437 $438 $360 $399 1 $371 $-1 #
edge $-1 $402 $439 $360 $440 0 #
coedge $-1 $373 $361 $364 $404 0 $336 $-1 #
coedge $-1 $361 $373 $437 $441 1 $336 $-1 #
vertex $-1 $362 $442 #
ellipse-curve $-1 -20.38249711481371 61.984481476953462 -5.25 0 0 1 36.765801222805841 -15.756771963308546 0 1 I I #
edge $-1 $365 $394 $400 $443 0 #
point $-1 16.383304117297136 46.227709535356588 -5.25 #
straight-curve $-1 6.6553963024343661 23.529257945703428 -5.25 0 0 1 I I #
face $-1 $444 $445 $3 $-1 $446 forward single #
loop $-1 $-1 $447 $370 #
plane-surface $-1 16 87 -5.25 0 1 0 0 0 -1 0 I I I I #
coedge $-1 $438 $437 $392 $431 0 $371 $-1 #
coedge $-1 $374 $397 $448 $449 0 $141 $-1 #
coedge $-1 $450 $451 $374 $413 1 $452 $-1 #
edge $-1 $453 $417 $374 $454 0 #
coedge $-1 $387 $375 $451 $455 0 $416 $-1 #
coedge $-1 $375 $387 $377 $419 1 $416 $-1 #
loop $-1 $-1 $387 $456 #
vertex $-1 $413 $457 #
straight-curve $-1 20.383295698104479 46.227690050475182 -5.25 -0.39391929833635314 -0.91914503012212134 0 I I #
edge $-1 $380 $389 $377 $458 0 #
face $-1 $383 $379 $3 $-1 $459 forward single #
point $-1 10.655396261993829 23.529258016322334 -5.25 #
straight-curve $-1 9.4738655187786946 20.421596645614212 -5.25 0 0 1 I I #
plane-surface $-1 9.4738655187786946 20.421596645614212 -5.25 0.94868329868156154 -0.31622776412369508 0 0 0 -1 0 I I I I #
coedge $-1 $430 $386 $460 $461 1 $222 $-1 #
coedge $-1 $451 $450 $386 $426 0 $452 $-1 #
edge $-1 $462 $427 $425 $463 0 #
vertex $-1 $455 $464 #
straight-curve $-1 20.383295698104479 46.227690050475182 1.75 -0.39391929833635314 -0.91914503012212134 0 I I #
point $-1 10.655396261993829 23.529258016322334 1.75 #
coedge $-1 $392 $424 $447 $465 1 $222 $-1 #
edge $-1 $432 $466 $410 $467 0 #
vertex $-1 $441 $468 #
ellipse-curve $-1 -20.38249711481371 61.984481476953462 1.75 0 0 1 36.765801222805841 -15.756771963308546 0 1 I I #
point $-1 16.383304117297136 46.227709535356588 1.75 #
coedge $-1 $469 $470 $397 $436 1 $408 $-1 #
edge $-1 $439 $471 $397 $472 0 #
coedge $-1 $410 $398 $401 $441 0 $371 $-1 #
coedge $-1 $398 $410 $469 $473 1 $371 $-1 #
vertex $-1 $399 $474 #
straight-curve $-1 19.07325985638888 68.560441033396614 -5.25 -0.16439898879504525 0.98639392358386246 0 I I #
edge $-1 $402 $432 $437 $475 0 #
point $-1 19.07325985638888 68.560441033396614 -5.25 #
straight-curve $-1 16.383304117297136 46.227709535356588 -5.25 0 0 1 I I #
face $-1 $456 $452 $3 $-1 $476 forward single #
loop $-1 $-1 $460 $407 #
plane-surface $-1 20 87 -5.25 0.98639392413774785 0.16439898547173307 0 0 0 -1 0 I I I I #
coedge $-1 $470 $469 $430 $465 0 $408 $-1 #
coedge $-1 $477 $478 $411 $449 1 $445 $-1 #
edge $-1 $471 $453 $411 $479 0 #
coedge $-1 $425 $412 $478 $480 0 $452 $-1 #
coedge $-1 $412 $425 $414 $455 1 $452 $-1 #
loop $-1 $-1 $425 $444 #
vertex $-1 $449 $481 #
ellipse-curve $-1 -16.382497114813706 61.984481476953462 -5.25 0 0 -1 39.455756916857638 6.5759594994043766 0 1 I I #
edge $-1 $417 $427 $414 $482 0 #
face $-1 $420 $416 $3 $-1 $483 forward single #
point $-1 20.383295698104479 46.227690050475175 -5.25 #
straight-curve $-1 10.655396261993829 23.529258016322334 -5.25 0 0 1 I I #
cone-surface $-1 47.421197492824589 7.7724860717385953 -5.25 0 0 1 -36.765801222805841 15.756771963308546 0 1 I I 0 -1 0 I I I I #
coedge $-1 $478 $477 $424 $461 0 $445 $-1 #
edge $-1 $484 $462 $460 $485 0 #
vertex $-1 $480 $486 #
ellipse-curve $-1 -16.382497114813706 61.984481476953462 1.75 0 0 -1 39.455756916857638 6.5759594994043766 0 1 I I #
point $-1 20.383295698104479 46.227690050475175 1.75 #
edge $-1 $466 $484 $447 $487 0 #
vertex $-1 $473 $488 #
straight-curve $-1 19.07325985638888 68.560441033396614 1.75 -0.16439898879504525 0.98639392358386246 0 I I #
point $-1 19.07325985638888 68.560441033396614 1.75 #
coedge $-1 $447 $435 $438 $473 0 $408 $-1 #
coedge $-1 $435 $447 $477 $489 1 $408 $-1 #
vertex $-1 $436 $490 #
straight-curve $-1 16 87 -5.25 1 0 0 I I #
edge $-1 $439 $466 $469 $491 0 #
point $-1 16 87 -5.25 #
straight-curve $-1 19.07325985638888 68.560441033396614 -5.25 0 0 1 I I #
cone-surface $-1 -16.382497114813706 61.984481476953462 -5.25 0 0 1 39.455756916857638 6.5759594994043766 0 1 I I 0 1 0 I I I I #
coedge $-1 $460 $448 $470 $489 0 $445 $-1 #
coedge $-1 $448 $460 $450 $480 1 $445 $-1 #
straight-curve $-1 20 87 -5.25 0.16439898547173307 -0.98639392413774785 0 I I #
edge $-1 $453 $462 $450 $492 0 #
point $-1 23.073259816418595 68.560440890109859 -5.25 #
straight-curve $-1 20.383295698104479 46.227690050475175 -5.25 0 0 1 I I #
plane-surface $-1 20.383295698104479 46.227690050475175 -5.25 0.91914503012212134 -0.39391929833635314 0 0 0 -1 0 I I I I #
vertex $-1 $489 $493 #
straight-curve $-1 20 87 1.75 0.16439898547173307 -0.98639392413774785 0 I I #
point $-1 23.073259816418595 68.560440890109859 1.75 #
straight-curve $-1 16 87 1.75 1 0 0 I I #
point $-1 16 87 1.75 #
edge $-1 $471 $484 $477 $494 0 #
point $-1 20 87 -5.25 #
straight-curve $-1 16 87 -5.25 0 0 1 I I #
straight-curve $-1 23.073259816418595 68.560440890109859 -5.25 0 0 1 I I #
point $-1 20 87 1.75 #
straight-curve $-1 20 87 -5.25 0 0 1 I I #
End-of-ACIS-data 