600 0 1 0           
89 GICL ACIS Healer - Source: /gicl/data5/repository/CMU/Tools/male_half_of_pliers.sat - 6 0 18 ACIS 6.0.3 Solaris 24 Sat Apr 13 00:32:24 2002 
1 9.999999999999999547e-07 1.000000000000000036e-10 
body $-1 $1 $-1 $-1 #
lump $-1 $-1 $2 $0 #
shell $-1 $-1 $-1 $3 $-1 $1 #
face $-1 $4 $5 $2 $-1 $6 forward single #
face $-1 $7 $8 $2 $-1 $9 reversed single #
loop $-1 $10 $11 $3 #
plane-surface $-1 0 0 -3.5 0 0 1 1 0 0 forward_v I I I I #
face $-1 $12 $13 $2 $-1 $14 forward single #
loop $-1 $-1 $15 $4 #
cone-surface $-1 0 0 -3.5 0 0 -1 -5 0 0 1 I I 0 1 5 forward I I I I #
loop $-1 $-1 $16 $3 #
coedge $-1 $17 $18 $19 $20 forward $5 $-1 #
face $-1 $21 $22 $2 $-1 $23 forward single #
loop $-1 $-1 $24 $7 #
plane-surface $-1 0 -2 -7 1 0 0 0 0 -1 forward_v I I I I #
coedge $-1 $25 $26 $17 $27 reversed $8 $-1 #
coedge $-1 $16 $16 $28 $29 reversed $10 $-1 #
coedge $-1 $30 $11 $15 $27 forward $5 $-1 #
coedge $-1 $11 $30 $31 $32 forward $5 $-1 #
coedge $-1 $33 $34 $11 $20 reversed $35 $-1 #
edge $-1 $36 -1.77215424758522766 $37 0.4115168460674880069 $11 $38 forward 7 unknown #
face $-1 $39 $40 $2 $-1 $41 forward single #
loop $-1 $-1 $42 $12 #
plane-surface $-1 -10 -16 -7 0 -0.1543768802736096013 -0.9880120337511014705 1 0 0 forward_v I I I I #
coedge $-1 $43 $44 $45 $46 reversed $13 $-1 #
coedge $-1 $47 $15 $48 $49 reversed $8 $-1 #
coedge $-1 $15 $47 $43 $50 reversed $8 $-1 #
edge $-1 $37 0.4115168460674880069 $51 1.570796326794896558 $17 $52 forward 7 unknown #
coedge $-1 $28 $28 $16 $29 forward $53 $-1 #
edge $-1 $54 -6.283185307179586232 $54 -0 $28 $55 reversed 7 unknown #
coedge $-1 $18 $17 $56 $57 forward $5 $-1 #
coedge $-1 $58 $59 $18 $32 reversed $60 $-1 #
edge $-1 $61 -2.498091544796508856 $36 -1.77215424758522766 $18 $62 forward 7 unknown #
coedge $-1 $63 $19 $64 $65 forward $35 $-1 #
coedge $-1 $19 $63 $66 $67 forward $35 $-1 #
loop $-1 $-1 $34 $68 #
vertex $-1 $20 $69 #
vertex $-1 $27 $70 #
ellipse-curve $-1 0 0 -3.5 0 0 1 -5 0 0 1 I I #
face $-1 $71 $72 $2 $-1 $73 forward single #
loop $-1 $-1 $74 $21 #
plane-surface $-1 -10 -32 -2.5 0 -0.1543768802736096013 0.9880120337511014705 -1 0 0 forward_v I I I I #
coedge $-1 $75 $76 $77 $78 reversed $22 $-1 #
coedge $-1 $79 $24 $26 $50 forward $13 $-1 #
coedge $-1 $24 $80 $81 $82 reversed $13 $-1 #
coedge $-1 $83 $56 $24 $46 forward $84 $-1 #
edge $-1 $51 -0 $85 3.5 $45 $86 reversed 7 unknown #
coedge $-1 $26 $25 $87 $88 reversed $8 $-1 #
coedge $-1 $66 $89 $25 $49 forward $90 $-1 #
edge $-1 $91 -3.5 $37 -0 $48 $92 reversed 7 unknown #
edge $-1 $51 -0 $93 3.5 $43 $94 reversed 7 unknown #
vertex $-1 $57 $95 #
ellipse-curve $-1 0 0 -3.5 0 0 1 -5 0 0 1 I I #
loop $-1 $96 $28 $97 #
vertex $-1 $29 $98 #
ellipse-curve $-1 0 0 -3.5 -0 -0 -1 3.5 0 0 1 I I #
coedge $-1 $45 $99 $30 $57 reversed $84 $-1 #
edge $-1 $51 1.570796326794896558 $61 3.785093762383077376 $30 $100 forward 7 unknown #
coedge $-1 $101 $31 $102 $103 reversed $60 $-1 #
coedge $-1 $31 $101 $104 $105 reversed $60 $-1 #
loop $-1 $-1 $31 $106 #
vertex $-1 $32 $107 #
ellipse-curve $-1 0 0 -3.5 0 0 1 -5 0 0 1 I I #
coedge $-1 $34 $33 $108 $109 reversed $35 $-1 #
coedge $-1 $104 $110 $33 $65 reversed $111 $-1 #
edge $-1 $36 0 $112 3.5 $33 $113 forward 7 unknown #
coedge $-1 $114 $48 $34 $67 reversed $90 $-1 #
edge $-1 $115 -3.5 $37 -0 $34 $116 reversed 7 unknown #
face $-1 $117 $35 $2 $-1 $9 forward single #
point $-1 1.000000000000000222 4.898979485566355763 -3.5 #
point $-1 -4.582575694955839829 -2 -3.5 #
face $-1 $118 $119 $2 $-1 $120 forward single #
loop $-1 $-1 $121 $39 #
plane-surface $-1 0 -32 -7 0 -1 0 0 0 1 forward_v I I I I #
coedge $-1 $122 $123 $124 $125 reversed $40 $-1 #
coedge $-1 $126 $42 $127 $128 reversed $22 $-1 #
coedge $-1 $42 $126 $121 $129 reversed $22 $-1 #
coedge $-1 $130 $131 $42 $78 forward $132 $-1 #
edge $-1 $133 -7.501183739690100438 $134 8.911040701594851399 $77 $135 forward 7 unknown #
coedge $-1 $136 $43 $137 $138 forward $13 $-1 #
coedge $-1 $44 $139 $126 $140 forward $13 $-1 #
coedge $-1 $127 $141 $44 $82 forward $142 $-1 #
edge $-1 $85 4 $143 15.00000000000000711 $81 $144 forward 7 unknown #
coedge $-1 $99 $45 $141 $145 reversed $84 $-1 #
loop $-1 $-1 $45 $146 #
vertex $-1 $82 $147 #
straight-curve $-1 0 -5 -3.5 -0 -0 1 I I #
coedge $-1 $148 $137 $47 $88 forward $119 $-1 #
edge $-1 $93 -1.570796326794896558 $91 -0.4115168460674880069 $87 $149 reversed 7 unknown #
coedge $-1 $48 $150 $148 $151 forward $90 $-1 #
loop $-1 $-1 $48 $152 #
vertex $-1 $88 $153 #
straight-curve $-1 -4.582575694955839829 -2 -3.5 -0 -0 1 I I #
vertex $-1 $138 $154 #
straight-curve $-1 0 -5 -3.5 0 0 -1 I I #
point $-1 -3.061616997868383141e-16 -5 -3.5 #
loop $-1 $-1 $155 $97 #
face $-1 $156 $53 $2 $-1 $157 forward single #
point $-1 3.5 0 -3.5 #
coedge $-1 $56 $83 $158 $159 forward $84 $-1 #
ellipse-curve $-1 0 0 -3.5 0 0 1 -5 0 0 1 I I #
coedge $-1 $59 $58 $160 $161 reversed $60 $-1 #
coedge $-1 $158 $162 $58 $103 forward $163 $-1 #
edge $-1 $164 -3.5 $61 0 $102 $165 forward 7 unknown #
coedge $-1 $166 $64 $59 $105 forward $111 $-1 #
edge $-1 $36 0 $167 3.5 $104 $168 forward 7 unknown #
face $-1 $169 $60 $2 $-1 $9 reversed single #
point $-1 4 3 -3.5 #
coedge $-1 $170 $171 $63 $109 forward $142 $-1 #
edge $-1 $115 -0.4115168460674880069 $112 1.772154247585227438 $108 $172 forward 7 unknown #
coedge $-1 $64 $173 $170 $174 reversed $111 $-1 #
loop $-1 $-1 $64 $169 #
vertex $-1 $174 $175 #
straight-curve $-1 1 4.898979485566355763 -3.5 0 0 -1 I I #
coedge $-1 $150 $66 $171 $176 reversed $90 $-1 #
vertex $-1 $109 $177 #
straight-curve $-1 -4.582575694955839829 -2 -3.5 0 0 -1 I I #
face $-1 $178 $142 $2 $-1 $179 forward single #
face $-1 $152 $132 $2 $-1 $180 forward single #
loop $-1 $-1 $87 $71 #
plane-surface $-1 0 -32 0 0 0 1 1 0 0 forward_v I I I I #
coedge $-1 $181 $182 $76 $129 forward $72 $-1 #
coedge $-1 $183 $74 $184 $185 reversed $40 $-1 #
coedge $-1 $74 $183 $186 $187 reversed $40 $-1 #
coedge $-1 $188 $130 $74 $125 forward $132 $-1 #
edge $-1 $189 -0.3884299793002883305 $190 16.02379446198462887 $124 $191 forward 7 unknown #
coedge $-1 $76 $75 $80 $140 reversed $22 $-1 #
coedge $-1 $192 $81 $75 $128 forward $142 $-1 #
edge $-1 $143 -5 $133 -1.333333333333333037 $127 $193 forward 7 unknown #
edge $-1 $134 4 $194 5 $121 $195 forward 7 unknown #
coedge $-1 $124 $77 $182 $196 forward $132 $-1 #
coedge $-1 $77 $197 $192 $198 reversed $132 $-1 #
loop $-1 $-1 $77 $118 #
vertex $-1 $198 $199 #
vertex $-1 $196 $200 #
straight-curve $-1 -2.447870475404764878 -23.31277714757141339 -5.857378570691966324 0.162480514217114097 -0.9748830853026845267 0.152325482078544433 I I #
coedge $-1 $139 $79 $183 $201 forward $13 $-1 #
coedge $-1 $87 $186 $79 $138 reversed $119 $-1 #
edge $-1 $93 -12 $202 -1 $79 $203 forward 7 unknown #
coedge $-1 $80 $136 $181 $204 reversed $13 $-1 #
edge $-1 $194 -23.11021897695935934 $143 -6.916084236257717066 $80 $205 forward 7 unknown #
coedge $-1 $81 $206 $83 $145 forward $142 $-1 #
loop $-1 $-1 $141 $117 #
vertex $-1 $140 $207 #
straight-curve $-1 0 -1 -7 0 -1 0 I I #
edge $-1 $208 2.498091544796508856 $85 4.712388980384689674 $141 $209 forward 7 unknown #
face $-1 $106 $84 $2 $-1 $9 forward single #
point $-1 -3.061616997868383141e-16 -5 -7 #
coedge $-1 $210 $87 $89 $151 reversed $119 $-1 #
ellipse-curve $-1 0 0 0 0 0 1 -5 0 0 1 I I #
coedge $-1 $89 $114 $197 $211 forward $90 $-1 #
edge $-1 $212 -3 $91 -1.582575694955839829 $89 $213 forward 7 unknown #
face $-1 $146 $90 $2 $-1 $214 forward single #
point $-1 -4.582575694955839829 -2 0 #
point $-1 0 -5 0 #
coedge $-1 $155 $155 $215 $216 reversed $96 $-1 #
face $-1 $-1 $217 $2 $-1 $218 forward single #
cone-surface $-1 0 0 -1.75 0 0 1 3.5 0 0 1 I I 0 1 3.5 forward I I I I #
coedge $-1 $219 $102 $99 $159 reversed $163 $-1 #
edge $-1 $208 -3.5 $61 0 $99 $220 forward 7 unknown #
coedge $-1 $221 $222 $101 $161 forward $223 $-1 #
edge $-1 $167 1.77215424758522766 $164 2.498091544796508856 $160 $224 reversed 7 unknown #
coedge $-1 $102 $225 $221 $226 reversed $163 $-1 #
loop $-1 $-1 $102 $227 #
vertex $-1 $226 $228 #
straight-curve $-1 4 3 -3.5 0 0 -1 I I #
coedge $-1 $173 $104 $222 $229 reversed $111 $-1 #
vertex $-1 $161 $230 #
straight-curve $-1 1 4.898979485566355763 -3.5 -0 -0 1 I I #
face $-1 $227 $111 $2 $-1 $231 reversed single #
coedge $-1 $232 $108 $110 $174 forward $142 $-1 #
coedge $-1 $108 $192 $114 $176 forward $142 $-1 #
ellipse-curve $-1 0 0 -7 0 0 -1 -5 0 0 1 I I #
coedge $-1 $110 $166 $233 $234 forward $111 $-1 #
edge $-1 $112 2.398979485566355763 $235 4.499999999999998224 $110 $236 forward 7 unknown #
point $-1 1 4.898979485566355763 -7 #
edge $-1 $237 -3 $115 -1.582575694955839829 $171 $238 forward 7 unknown #
point $-1 -4.582575694955839829 -2 -7 #
face $-1 $239 $240 $2 $-1 $241 forward single #
plane-surface $-1 0 0 -7 0 0 -1 -1 0 0 forward_v I I I I #
plane-surface $-1 -1 -32 -7 -0.9863939238321437486 -0.1643989873053572914 0 0 0 1 forward_v I I I I #
coedge $-1 $184 $121 $139 $204 forward $72 $-1 #
coedge $-1 $121 $184 $130 $196 reversed $72 $-1 #
coedge $-1 $123 $122 $136 $201 reversed $40 $-1 #
coedge $-1 $182 $181 $122 $185 forward $72 $-1 #
edge $-1 $242 -5 $189 -4 $184 $243 forward 7 unknown #
coedge $-1 $137 $210 $123 $187 forward $119 $-1 #
edge $-1 $190 1.33333333333333881 $202 5 $186 $244 forward 7 unknown #
coedge $-1 $197 $124 $210 $245 forward $132 $-1 #
vertex $-1 $125 $246 #
vertex $-1 $245 $247 #
straight-curve $-1 -1.063112302774054108 -31.62132618335567713 -2.440832216149324552 -0.162480514217114097 0.9748830853026845267 0.152325482078544433 I I #
coedge $-1 $171 $127 $131 $198 forward $142 $-1 #
straight-curve $-1 -5 -16 -7 -1 0 -0 I I #
vertex $-1 $204 $248 #
straight-curve $-1 -5 -32 -4.5 1 0 0 I I #
edge $-1 $134 2.5 $189 4.5 $130 $249 forward 7 unknown #
coedge $-1 $131 $188 $150 $211 reversed $132 $-1 #
edge $-1 $133 0.5205967931336302756 $237 14.71370936382947647 $192 $250 forward 7 unknown #
point $-1 -3.666666666666666963 -16 -7 #
point $-1 -1.000000000000000222 -32 -4.5 #
edge $-1 $202 -1.721302215050746209 $242 14.47283252565090095 $136 $251 forward 7 unknown #
vertex $-1 $187 $252 #
straight-curve $-1 0 -17 0 0 -1 0 I I #
edge $-1 $194 2.5 $242 4.5 $181 $253 forward 7 unknown #
straight-curve $-1 0 -9.16682554814108741 -8.067683508102955869 0 0.9880120337511014705 -0.1543768802736096013 I I #
coedge $-1 $141 $254 $219 $255 forward $142 $-1 #
point $-1 0 -16.00000000000000711 -7 #
vertex $-1 $145 $256 #
ellipse-curve $-1 0 0 -7 0 0 -1 -5 0 0 1 I I #
coedge $-1 $186 $148 $188 $245 reversed $119 $-1 #
edge $-1 $237 0 $212 7 $150 $257 forward 7 unknown #
vertex $-1 $211 $258 #
straight-curve $-1 -3 -2 0 1 0 0 I I #
plane-surface $-1 -6 -2 -7 0 1 0 0 0 -1 forward_v I I I I #
coedge $-1 $215 $215 $155 $216 forward $217 $-1 #
edge $-1 $259 0 $259 6.283185307179586232 $215 $260 forward 7 unknown #
loop $-1 $-1 $215 $156 #
plane-surface $-1 0 0 0 0 0 1 1 0 0 forward_v I I I I #
coedge $-1 $225 $158 $206 $255 reversed $163 $-1 #
straight-curve $-1 4 3 -3.5 -0 -0 1 I I #
coedge $-1 $261 $160 $162 $226 forward $223 $-1 #
coedge $-1 $160 $262 $166 $229 forward $223 $-1 #
loop $-1 $-1 $262 $263 #
ellipse-curve $-1 0 0 0 0 0 1 -5 0 0 1 I I #
coedge $-1 $162 $219 $264 $265 forward $163 $-1 #
edge $-1 $164 0 $266 1 $162 $267 forward 7 unknown #
face $-1 $268 $163 $2 $-1 $269 reversed single #
point $-1 4 3 0 #
edge $-1 $270 -1 $167 1.101020514433644237 $166 $271 forward 7 unknown #
point $-1 1.000000000000000222 4.898979485566355763 0 #
plane-surface $-1 1 5 -3.5 1 0 0 0 0 -1 forward_v I I I I #
coedge $-1 $272 $170 $273 $274 forward $142 $-1 #
coedge $-1 $275 $273 $173 $234 reversed $240 $-1 #
edge $-1 $270 -5.25 $235 1.75 $233 $276 forward 7 unknown #
vertex $-1 $274 $277 #
straight-curve $-1 1 2.5 -7 -0 1 0 I I #
vertex $-1 $198 $278 #
straight-curve $-1 -3 -2 -7 1 -0 0 I I #
face $-1 $279 $280 $2 $-1 $281 forward single #
loop $-1 $-1 $275 $178 #
plane-surface $-1 1 7 -7 -0.9486832972289277466 0.3162277684815960055 0 0 0 1 forward_v I I I I #
vertex $-1 $201 $282 #
straight-curve $-1 -5 -32 -2.5 -1 0 0 I I #
straight-curve $-1 -5 -16 0 1 0 -0 I I #
edge $-1 $190 16.3028995744478955 $212 30.49601214514377645 $188 $283 forward 7 unknown #
point $-1 -1 -32 -2.5 #
point $-1 -3.66666666666666119 -16.00000000000003553 -5.77315972805081401e-15 #
point $-1 0 -32 -4.5 #
straight-curve $-1 -1 -32 -7 0 0 1 I I #
straight-curve $-1 -3.581081081081081141 -16.51351351351351227 -7 -0.1643989873053572914 0.9863939238321437486 0 I I #
straight-curve $-1 0 -17.70066730219256357 -0.2657292659675878355 0 -0.9880120337511014705 -0.1543768802736096013 I I #
point $-1 0 -16 0 #
straight-curve $-1 0 -32 -7 -0 0 1 I I #
coedge $-1 $206 $284 $285 $286 forward $142 $-1 #
edge $-1 $287 -3.5 $208 -2.5 $219 $288 forward 7 unknown #
point $-1 4 3 -7 #
straight-curve $-1 -6 -2 -7 0 -0 1 I I #
point $-1 -6 -2 0 #
vertex $-1 $216 $289 #
ellipse-curve $-1 0 0 0 0 0 1 3.5 0 0 1 I I #
coedge $-1 $290 $221 $291 $292 forward $223 $-1 #
coedge $-1 $222 $293 $275 $294 reversed $223 $-1 #
face $-1 $97 $223 $2 $-1 $295 forward single #
coedge $-1 $285 $291 $225 $265 reversed $296 $-1 #
edge $-1 $287 -3.5 $266 3.5 $264 $297 reversed 7 unknown #
vertex $-1 $292 $298 #
straight-curve $-1 4 3 0 1 0 0 I I #
face $-1 $68 $296 $2 $-1 $299 reversed single #
plane-surface $-1 3 3 -3.5 0 1 0 0 0 -1 forward_v I I I I #
vertex $-1 $234 $300 #
straight-curve $-1 1 6 0 0 -1 0 I I #
coedge $-1 $301 $232 $302 $303 forward $142 $-1 #
coedge $-1 $233 $304 $232 $274 reversed $240 $-1 #
edge $-1 $235 3.478505424542043478 $305 17.62611067761546479 $232 $306 forward 7 unknown #
coedge $-1 $304 $233 $262 $294 forward $240 $-1 #
straight-curve $-1 1 7 -5.25 0 0 -1 I I #
point $-1 1 6.999999999999998224 -7 #
point $-1 -6 -2 -7 #
face $-1 $307 $308 $2 $-1 $309 forward single #
loop $-1 $-1 $310 $239 #
cone-surface $-1 43.42119749282460361 7.772486071738622826 -7 0 0 1 -37.9473318909479076 12.64911061765672251 0 1 I I 0 1 39.99999996324335427 forward I I I I #
point $-1 0 -32 -2.5 #
straight-curve $-1 -0.9864864864864865135 -32.0810810810810807 4.440892098500626162e-16 -0.1643989873053572914 0.9863939238321437486 0 I I #
coedge $-1 $254 $311 $312 $313 forward $142 $-1 #
coedge $-1 $314 $264 $254 $286 reversed $296 $-1 #
edge $-1 $315 -4.500000000000001776 $287 -0.5 $285 $316 forward 7 unknown #
vertex $-1 $286 $317 #
straight-curve $-1 1.5 3 -7 -1 0 0 I I #
point $-1 3.5 0 0 #
coedge $-1 $318 $261 $319 $320 reversed $223 $-1 #
coedge $-1 $264 $314 $261 $292 reversed $296 $-1 #
edge $-1 $266 -3 $321 1.000000000000001776 $291 $322 forward 7 unknown #
coedge $-1 $262 $323 $310 $324 reversed $223 $-1 #
edge $-1 $270 -0.632455536963192122 $325 13.51514971611022808 $275 $326 forward 7 unknown #
plane-surface $-1 5 7 0 0 0 1 1 0 0 forward_v I I I I #
loop $-1 $-1 $314 $268 #
straight-curve $-1 5 3 -3.5 0 0 -1 I I #
point $-1 5 3 0 #
plane-surface $-1 5 5 -3.5 -1 0 0 0 0 1 forward_v I I I I #
point $-1 1 7 -4.440892098500626162e-16 #
coedge $-1 $327 $272 $328 $329 forward $142 $-1 #
coedge $-1 $330 $331 $272 $303 reversed $280 $-1 #
edge $-1 $305 2.898323506525862209e-09 $332 0.08314123184349543616 $272 $333 forward 7 unknown #
coedge $-1 $273 $275 $330 $334 reversed $240 $-1 #
vertex $-1 $274 $335 #
straight-curve $-1 -0.1000000080540576208 3.700000004416741373 -7 0.3162277684815960055 0.9486832972289277466 0 I I #
face $-1 $336 $337 $2 $-1 $338 forward single #
loop $-1 $-1 $339 $279 #
plane-surface $-1 6.655396302434366085 23.52925794570342788 -7 -0.9191450301540334822 0.3939192982618914818 0 0 0 1 forward_v I I I I #
coedge $-1 $331 $330 $293 $324 forward $280 $-1 #
coedge $-1 $284 $340 $341 $342 forward $142 $-1 #
coedge $-1 $343 $344 $284 $313 reversed $345 $-1 #
edge $-1 $346 -11.18476349035877604 $315 2.962841578969372502 $284 $347 forward 7 unknown #
coedge $-1 $291 $285 $344 $348 reversed $296 $-1 #
vertex $-1 $286 $349 #
straight-curve $-1 5 2.5 -7 -0 -1 -0 I I #
point $-1 5 3 -7 #
coedge $-1 $350 $290 $351 $352 reversed $223 $-1 #
coedge $-1 $344 $343 $290 $320 forward $345 $-1 #
edge $-1 $353 -7.073802534664073605 $321 7.073802534664075381 $319 $354 forward 7 unknown #
vertex $-1 $348 $355 #
straight-curve $-1 5 6 0 0 1 -0 I I #
coedge $-1 $293 $356 $339 $357 reversed $223 $-1 #
edge $-1 $325 2.898323577580135437e-09 $358 0.08314123184349551943 $310 $359 forward 7 unknown #
vertex $-1 $334 $360 #
straight-curve $-1 1.200000003117699832 7.600000004156933109 -4.440892098500626162e-16 0.3162277684815960055 0.9486832972289277466 -0 I I #
coedge $-1 $361 $301 $362 $363 forward $142 $-1 #
coedge $-1 $364 $365 $301 $329 reversed $308 $-1 #
edge $-1 $332 12.12424481828680456 $366 36.81942436336640867 $301 $367 forward 7 unknown #
coedge $-1 $310 $302 $304 $334 forward $280 $-1 #
coedge $-1 $302 $310 $364 $368 reversed $280 $-1 #
vertex $-1 $303 $369 #
ellipse-curve $-1 43.42119749282460361 7.772486071738622826 -7 0 0 -1 -37.9473318909479076 12.64911061765672251 0 1 I I #
edge $-1 $305 0 $325 7 $330 $370 forward 7 unknown #
point $-1 5.473865638537915856 20.42159679937898886 -7 #
face $-1 $371 $372 $2 $-1 $373 forward single #
loop $-1 $-1 $374 $307 #
cone-surface $-1 -20.38249711481370952 61.98448147695346222 -7 0 0 1 36.76580116307164303 -15.75677193770817652 0 1 I I 0 -1 40.00000002823222189 forward I I I I #
coedge $-1 $365 $364 $323 $357 forward $308 $-1 #
coedge $-1 $311 $375 $376 $377 forward $142 $-1 #
coedge $-1 $378 $379 $311 $342 reversed $380 $-1 #
edge $-1 $381 5.095280642939464025e-10 $346 0.08314123412934272539 $311 $382 forward 7 unknown #
coedge $-1 $319 $312 $379 $383 forward $345 $-1 #
coedge $-1 $312 $319 $314 $348 forward $345 $-1 #
loop $-1 $-1 $319 $384 #
vertex $-1 $342 $385 #
straight-curve $-1 5.93693276797020264 9.810798322607551469 -7 -0.3162277641236950765 -0.9486832986815615376 -0 I I #
edge $-1 $321 -5.25 $315 1.75 $344 $386 forward 7 unknown #
point $-1 5 7.000000000000001776 -7 #
coedge $-1 $387 $318 $388 $389 reversed $223 $-1 #
coedge $-1 $379 $378 $318 $352 forward $380 $-1 #
edge $-1 $390 5.095280651217877255e-10 $353 0.08314123412934266988 $351 $391 forward 7 unknown #
vertex $-1 $383 $392 #
straight-curve $-1 7.236932759389347325 13.71079832280710598 0 -0.3162277641236950765 -0.9486832986815615376 0 I I #
point $-1 5 7.000000000000001776 0 #
coedge $-1 $323 $393 $374 $394 reversed $223 $-1 #
edge $-1 $358 7.922438967092958251 $395 32.61761851217256236 $339 $396 forward 7 unknown #
vertex $-1 $368 $397 #
ellipse-curve $-1 43.42119749282460361 7.772486071738622826 0 -0 -0 -1 -37.9473318909479076 12.64911061765672251 0 1 I I #
point $-1 5.473865638537908751 20.42159679937899242 0 #
coedge $-1 $398 $327 $399 $400 forward $142 $-1 #
coedge $-1 $401 $402 $327 $363 reversed $337 $-1 #
edge $-1 $366 5.905400258947102082e-10 $403 0.5700404654553000716 $327 $404 forward 7 unknown #
coedge $-1 $339 $328 $331 $368 forward $308 $-1 #
coedge $-1 $328 $339 $401 $405 reversed $308 $-1 #
vertex $-1 $329 $406 #
straight-curve $-1 1.87942230967304269 12.38531861863602579 -7 0.3939192982618914818 0.9191450301540334822 0 I I #
edge $-1 $332 0 $358 7 $364 $407 forward 7 unknown #
point $-1 6.655396320447955816 23.52925798773513222 -7 #
straight-curve $-1 5.473865638537915856 20.42159679937898886 -7 0 0 1 I I #
face $-1 $408 $409 $2 $-1 $410 forward single #
loop $-1 $-1 $411 $336 #
plane-surface $-1 19.07325985638888 68.56044103339661433 -7 -0.9863939235838624642 -0.1643989887950452478 0 0 0 1 forward_v I I I I #
coedge $-1 $402 $401 $356 $394 forward $337 $-1 #
coedge $-1 $340 $412 $413 $414 forward $142 $-1 #
coedge $-1 $415 $416 $340 $377 reversed $417 $-1 #
edge $-1 $418 -25.2596837742238165 $381 -0.5645042356251204207 $340 $419 forward 7 unknown #
coedge $-1 $351 $341 $416 $420 forward $380 $-1 #
coedge $-1 $341 $351 $343 $383 reversed $380 $-1 #
loop $-1 $-1 $351 $421 #
vertex $-1 $377 $422 #
ellipse-curve $-1 47.4211974928245894 7.772486071738595292 -7 -0 -0 1 -36.76580116307164303 15.75677193770817652 0 1 I I #
edge $-1 $346 0 $353 7 $343 $423 reversed 7 unknown #
face $-1 $263 $345 $2 $-1 $424 forward single #
point $-1 9.473865580432551781 20.4215966250629215 -7 #
straight-curve $-1 5 7.000000000000001776 -5.25 -0 -0 -1 I I #
coedge $-1 $425 $350 $426 $427 reversed $223 $-1 #
coedge $-1 $416 $415 $350 $389 forward $417 $-1 #
edge $-1 $428 -21.05787792295550886 $390 3.637301615643188768 $388 $429 forward 7 unknown #
vertex $-1 $420 $430 #
ellipse-curve $-1 47.4211974928245894 7.772486071738595292 0 0 0 1 -36.76580116307164303 15.75677193770817652 0 1 I I #
point $-1 9.47386551877869465 20.4215966456142084 0 #
coedge $-1 $356 $431 $411 $432 reversed $223 $-1 #
edge $-1 $395 5.905399557998996954e-10 $433 0.5700404654553000716 $374 $434 forward 7 unknown #
vertex $-1 $405 $435 #
straight-curve $-1 3.534594722008030931 16.24738758443298892 4.440892098500626162e-16 0.3939192982618914818 0.9191450301540334822 -0 I I #
point $-1 6.655396320447952263 23.52925798773513577 4.440892098500626162e-16 #
coedge $-1 $412 $361 $436 $437 forward $142 $-1 #
coedge $-1 $438 $439 $361 $400 reversed $372 $-1 #
edge $-1 $403 32.24598890007833063 $440 50.93989863099697857 $361 $441 forward 7 unknown #
coedge $-1 $374 $362 $365 $405 forward $337 $-1 #
coedge $-1 $362 $374 $438 $442 reversed $337 $-1 #
vertex $-1 $363 $443 #
ellipse-curve $-1 -20.38249711481370952 61.98448147695346222 -7 -0 -0 1 36.76580116307164303 -15.75677193770817652 0 1 I I #
edge $-1 $366 -0 $395 7 $401 $444 reversed 7 unknown #
point $-1 16.38330411729712921 46.22770953535659544 -7 #
straight-curve $-1 6.65539632044794871 23.52925798773513577 -7 0 0 1 I I #
face $-1 $445 $446 $2 $-1 $447 forward single #
loop $-1 $-1 $448 $371 #
plane-surface $-1 16 87 -7 0 1 0 0 0 -1 forward_v I I I I #
coedge $-1 $439 $438 $393 $432 forward $372 $-1 #
coedge $-1 $375 $398 $449 $450 forward $142 $-1 #
coedge $-1 $451 $452 $375 $414 reversed $453 $-1 #
edge $-1 $454 2.185941884746740067e-09 $418 0.5700404637625609006 $375 $455 forward 7 unknown #
coedge $-1 $388 $376 $452 $456 forward $417 $-1 #
coedge $-1 $376 $388 $378 $420 reversed $417 $-1 #
loop $-1 $-1 $388 $457 #
vertex $-1 $414 $458 #
straight-curve $-1 10.43302714958488586 23.01039675365621662 -7 -0.3939192983363531408 -0.9191450301221213426 -0 I I #
edge $-1 $381 -0 $390 7 $378 $459 reversed 7 unknown #
face $-1 $384 $380 $2 $-1 $460 forward single #
point $-1 10.65539626199022649 23.52925801631393554 -7 #
straight-curve $-1 9.47386551877869465 20.4215966456142084 -7 -0 0 -1 I I #
plane-surface $-1 9.47386551877869465 20.42159664561421195 -7 0.9486832986815615376 -0.3162277641236950765 0 0 0 -1 forward_v I I I I #
coedge $-1 $431 $387 $461 $462 reversed $223 $-1 #
coedge $-1 $452 $451 $387 $427 forward $453 $-1 #
edge $-1 $463 2.185941884856376654e-09 $428 0.5700404637625609006 $426 $464 forward 7 unknown #
vertex $-1 $456 $465 #
straight-curve $-1 12.08819956226207992 26.87246571938753092 4.440892098500626162e-16 -0.3939192983363531408 -0.9191450301221213426 0 I I #
point $-1 10.65539632172442452 23.52925799071356394 0 #
coedge $-1 $393 $425 $448 $466 reversed $223 $-1 #
edge $-1 $433 29.20460763952242544 $467 47.89851737044106983 $411 $468 forward 7 unknown #
vertex $-1 $442 $469 #
ellipse-curve $-1 -20.38249711481370952 61.98448147695346222 0 0 0 1 36.76580116307164303 -15.75677193770817652 0 1 I I #
point $-1 16.38330405756293828 46.22770956095695993 0 #
coedge $-1 $470 $471 $398 $437 reversed $409 $-1 #
edge $-1 $440 7.999999999999996447 $472 12 $398 $473 forward 7 unknown #
coedge $-1 $411 $399 $402 $442 forward $372 $-1 #
coedge $-1 $399 $411 $470 $474 reversed $372 $-1 #
vertex $-1 $400 $475 #
straight-curve $-1 24.37446782425800862 36.7531935224066757 -7 -0.1643989887950452478 0.9863939235838624642 0 I I #
edge $-1 $403 0 $433 7 $438 $476 reversed 7 unknown #
point $-1 19.07325979228425439 68.56044102271251006 -7 #
straight-curve $-1 16.38330411729712921 46.22770953535659544 -7 0 -0 -1 I I #
face $-1 $457 $453 $2 $-1 $477 forward single #
loop $-1 $-1 $461 $408 #
plane-surface $-1 20 87 -7 0.9863939241377478462 0.1643989854717330668 0 0 0 -1 forward_v I I I I #
coedge $-1 $471 $470 $431 $466 forward $409 $-1 #
coedge $-1 $478 $479 $412 $450 reversed $446 $-1 #
edge $-1 $472 -41.26414584527470453 $454 -22.57023597958993477 $412 $480 forward 7 unknown #
coedge $-1 $426 $413 $479 $481 forward $453 $-1 #
coedge $-1 $413 $426 $415 $456 reversed $453 $-1 #
loop $-1 $-1 $426 $445 #
vertex $-1 $450 $482 #
ellipse-curve $-1 -16.38249711481370596 61.98448147695346222 -7 0 0 -1 39.45575691487871239 6.575959499074556014 0 1 I I #
edge $-1 $418 0 $428 7 $415 $483 forward 7 unknown #
face $-1 $421 $417 $2 $-1 $484 forward single #
point $-1 20.38330405628645892 46.22770955797849268 -7 #
straight-curve $-1 10.65539626199022649 23.52925801631393554 -7 -0 0 -1 I I #
cone-surface $-1 47.4211974928245894 7.772486071738595292 -7 0 0 1 -36.76580116307164303 15.75677193770817652 0 1 I I 0 -1 40.00000002823222189 forward I I I I #
coedge $-1 $479 $478 $425 $462 forward $446 $-1 #
edge $-1 $485 -38.22276457447191689 $463 -19.52885470878715424 $461 $486 forward 7 unknown #
vertex $-1 $481 $487 #
ellipse-curve $-1 -16.38249711481370596 61.98448147695346222 0 -0 -0 -1 39.45575691487871239 6.575959499074556014 0 1 I I #
point $-1 20.38330405812529023 46.22770955719042263 4.440892098500626162e-16 #
edge $-1 $467 5.499999999999998224 $485 9.500000000000003553 $448 $488 forward 7 unknown #
vertex $-1 $474 $489 #
straight-curve $-1 23.87446782048242255 39.75319351712084881 -4.440892098500626162e-16 -0.1643989887950452478 0.9863939235838624642 0 I I #
point $-1 19.07325985638888355 68.56044103339661433 -4.440892098500626162e-16 #
coedge $-1 $448 $436 $439 $474 forward $409 $-1 #
coedge $-1 $436 $448 $478 $490 reversed $409 $-1 #
vertex $-1 $437 $491 #
straight-curve $-1 8 87 -7 1 -0 0 I I #
edge $-1 $440 0 $467 7 $470 $492 forward 7 unknown #
point $-1 15.99999999999999645 87 -7 #
straight-curve $-1 19.07325985638888 68.56044103339661433 -7 0 0 -1 I I #
cone-surface $-1 -16.38249711481370596 61.98448147695346222 -7 0 0 1 39.45575691487871239 6.575959499074556014 0 1 I I 0 1 39.99999996524957169 forward I I I I #
coedge $-1 $461 $449 $471 $490 forward $446 $-1 #
coedge $-1 $449 $461 $451 $481 reversed $446 $-1 #
straight-curve $-1 26.78378371332079055 46.29729725348715164 -7 0.1643989854717330668 -0.9863939241377478462 0 I I #
edge $-1 $454 0 $463 7 $451 $493 forward 7 unknown #
point $-1 23.07325981641858803 68.56044089010984521 -7 #
straight-curve $-1 20.38330405812530088 46.22770955719041552 -7 0 0 1 I I #
plane-surface $-1 20.3832956981044795 46.2276900504751751 -7 0.9191450301221213426 -0.3939192983363531408 0 0 0 -1 forward_v I I I I #
vertex $-1 $490 $494 #
straight-curve $-1 26.28378371796808466 49.29729725999335699 -4.440892098500626162e-16 0.1643989854717330668 -0.9863939241377478462 0 I I #
point $-1 23.07325981443966967 68.56044088978002549 0 #
straight-curve $-1 10.5 87 0 1 0 0 I I #
point $-1 15.99999999999999822 87 0 #
edge $-1 $472 0 $485 7 $478 $495 forward 7 unknown #
point $-1 20 87 -7 #
straight-curve $-1 15.99999999999999822 87 -7 0 -0 1 I I #
straight-curve $-1 23.07325981641858803 68.56044089010984521 -7 0 0 1 I I #
point $-1 20.00000000000000355 87 -4.440892098500626162e-16 #
straight-curve $-1 20 87 -7 0 0 1 I I #
End-of-ACIS-data 