600 0 1 0           
76 GICL ACIS Healer - Source: /gicl/data5/repository/CMU/Tools/mallet.sat - 6 0 18 ACIS 6.0.3 Solaris 24 Sat Apr 13 00:32:25 2002 
1 9.999999999999999547e-07 1.000000000000000036e-10 
body $-1 $1 $-1 $-1 #
lump $-1 $-1 $2 $0 #
shell $-1 $-1 $-1 $3 $-1 $1 #
face $-1 $4 $5 $2 $-1 $6 forward single #
face $-1 $7 $8 $2 $-1 $9 forward single #
loop $-1 $10 $11 $3 #
cone-surface $-1 0 50 0 0 1 0 0 0 25 1 I I 0 1 25 forward I I I I #
face $-1 $12 $13 $2 $-1 $14 forward single #
loop $-1 $-1 $15 $4 #
plane-surface $-1 0 0 0 0 -1 0 0 0 -1 forward_v I I I I #
loop $-1 $16 $17 $3 #
coedge $-1 $11 $11 $18 $19 reversed $5 $-1 #
face $-1 $20 $21 $2 $-1 $22 forward single #
loop $-1 $-1 $18 $7 #
plane-surface $-1 0 100 0 0 1 0 0 0 1 forward_v I I I I #
coedge $-1 $15 $15 $17 $23 forward $8 $-1 #
loop $-1 $-1 $24 $3 #
coedge $-1 $17 $17 $15 $23 reversed $10 $-1 #
coedge $-1 $18 $18 $11 $19 forward $13 $-1 #
edge $-1 $25 0 $25 6.283185307179586232 $18 $26 forward 7 unknown #
face $-1 $-1 $27 $2 $-1 $28 forward single #
loop $-1 $29 $30 $12 #
cone-surface $-1 -7.603329136129930433e-16 50 -162.5 0 0 1 10 0 0 1 I I 0 1 10 forward I I I I #
edge $-1 $31 0 $31 6.283185307179586232 $15 $32 forward 7 unknown #
coedge $-1 $24 $24 $30 $33 reversed $16 $-1 #
vertex $-1 $19 $34 #
ellipse-curve $-1 0 100 0 0 1 0 0 0 25 1 I I #
loop $-1 $-1 $35 $20 #
plane-surface $-1 -7.603329136129930433e-16 50 -325 0 0 -1 -1 0 0 forward_v I I I I #
loop $-1 $-1 $36 $12 #
coedge $-1 $30 $30 $24 $33 forward $21 $-1 #
vertex $-1 $23 $37 #
ellipse-curve $-1 0 0 0 0 -1 0 0 0 25 1 I I #
edge $-1 $38 0 $38 61.01834684415482002 $30 $39 forward 7 unknown #
point $-1 0 100 25 #
coedge $-1 $35 $35 $36 $40 forward $27 $-1 #
coedge $-1 $36 $36 $35 $40 reversed $29 $-1 #
point $-1 0 0 25 #
vertex $-1 $33 $41 #
intcurve-curve $-1 forward { surfintcur full nubs 3 periodic 33 
	0 3 1.907788326263264889 2 3.815576652526529777 2 5.723364978789794222 2 7.631153305053059555 2 
	9.537011656549488237 2 11.44287000804591869 2 13.34872835954234915 2 15.25458671103877784 2 17.16044506253520652 2 
	19.06630341403163698 2 20.97216176552806743 2 22.87802011702449789 2 24.7858084432877277 2 26.69359676955095395 2 
	28.6013850958141802 2 30.50917342207741001 2 32.41696174834069666 2 34.32475007460399041 2 36.23253840086728417 2 
	38.14032672713057082 2 40.04618507862699062 2 41.95204343012341042 2 43.85790178161983022 2 45.76376013311625712 2 
	47.66961848461268403 2 49.57547683610910383 2 51.48133518760552363 2 53.38719353910195053 2 55.29498186536517323 2 
	57.20277019162838883 2 59.11055851789160442 2 61.01834684415482002 3 
	10 50 -22.91287847477920536 
	10 49.36407055791224252 -22.91287847477920536 
	9.938367653221126474 48.70907389429468992 -22.94010277594858849 
	9.681700872166986827 47.41111798428039492 -23.04960162687481784 
	9.486750641627731184 46.76813085140199888 -23.13174293754457267 
	8.974469917676659136 45.53879853532460942 -23.33527047477929273 
	8.656733314778248811 44.95133913482827381 -23.45658325543010392 
	7.925171001637889567 43.86651217892989507 -23.71375116400363936 
	7.511270035096978326 43.36913441136602643 -23.84934906276961897 
	6.631310910146505755 42.48917528641555919 -24.10883485220773537 
	6.13414716015255479 42.07533119821457035 -24.24215352193937179 
	5.049210367411829381 41.34357974193568452 -24.49112580964947483 
	4.461426249686756051 41.02561601769852473 -24.60656548164456581 
	3.231436442209197679 40.51307678038219251 -24.79808878901735625 
	2.588125710517513944 40.31809386074755253 -24.87419140713274146 
	1.290060598544761961 40.06151697511500487 -24.97517840786292709 
	0.635286117165404951 40 -25 
	-0.6352861171655475037 40 -25 
	-1.290060598544901627 40.06151697511502618 -24.97517840786292709 
	-2.588125710517649392 40.31809386074758805 -24.87419140713274146 
	-3.231436442209332682 40.51307678038223514 -24.79808878901735625 
	-4.461426249686882173 41.02561601769858868 -24.60656548164456581 
	-5.049210367411947509 41.34357974193574847 -24.49112580964947483 
	-6.1341471601526667 42.07533119821465561 -24.24215352193937179 
	-6.631310910146612336 42.48917528641565156 -24.10883485220767852 
	-7.511270035097065367 43.3691344113661259 -23.84934906276959055 
	-7.925171001637959733 43.86651217892999455 -23.71375116400363936 
	-8.656733314778289667 44.95133913482834487 -23.45658325543016076 
	-8.974469917676689334 45.53879853532467337 -23.33527047477929273 
	-9.486750641627743619 46.76813085140205573 -23.13174293754457267 
	-9.681700872166995708 47.41111798428043755 -23.04960162687481784 
	-9.938367653221128251 48.70907389429471124 -22.94010277594858849 
	-10 49.36407055791225673 -22.91287847477920536 
	-10 50.63592944208776458 -22.91287847477920536 
	-9.938367653221126474 51.29092610570532429 -22.94010277594858849 
	-9.681700872166981497 52.58888201571964061 -23.04960162687481784 
	-9.486750641627715197 53.23186914859803665 -23.13174293754462951 
	-8.974469917676632491 54.46120146467544743 -23.33527047477929273 
	-8.656733314778211508 55.04866086517179724 -23.45658325543013234 
	-7.925171001637833612 56.13348782107017598 -23.71375116400366778 
	-7.511270035096915265 56.63086558863405173 -23.84934906276961897 
	-6.63131091014643026 57.51082471358451187 -24.10883485220773537 
	-6.134147160152477518 57.9246688017854936 -24.24215352193942863 
	-5.049210367411747669 58.65642025806436521 -24.49112580964953167 
	-4.461426249686682333 58.9743839823015108 -24.60656548164462265 
	-3.231436442209126625 59.48692321961783591 -24.79808878901735625 
	-2.588125710517444666 59.68190613925246168 -24.87419140713274146 
	-1.290060598544693793 59.93848302488500224 -24.97517840786292709 
	-0.6352861171653357841 60.00000000000000711 -25 
	0.6352861171656152273 59.99999999999999289 -25 
	1.290060598544968684 59.93848302488496671 -24.97517840786292709 
	2.5881257105177089 59.68190613925239063 -24.87419140713274146 
	3.231436442209385973 59.48692321961774354 -24.79808878901735625 
	4.46142624968692747 58.9743839823013829 -24.60656548164456581 
	5.049210367411988365 58.65642025806422311 -24.49112580964947483 
	6.134147160152698675 57.92466880178531596 -24.24215352193937179 
	6.631310910146642534 57.51082471358432002 -24.10883485220767852 
	7.511270035097090236 56.63086558863384568 -23.84934906276959055 
	7.925171001637982826 56.13348782106997703 -23.71375116400363936 
	8.656733314778307431 55.04866086517162671 -23.45658325543016076 
	8.974469917676703545 54.46120146467529821 -23.33527047477929273 
	9.486750641627750724 53.23186914859793006 -23.13174293754457267 
	9.681700872167001037 52.58888201571954824 -23.04960162687481784 
	9.938367653221130027 51.29092610570527455 -22.94010277594858849 
	10 50.63592944208773616 -22.91287847477920536 
	10 50 -22.91287847477920536 
	0.001000000000000000021 
	cone -7.603329136129930433e-16 50 -162.5 0 0 1 10 0 0 1 I I 0 1 10 forward I I I I 
	cone 0 50 0 0 1 0 0 0 25 1 I I 0 -1 25 forward I I I I 
	nullbs 
	nullbs 
	I I 
	0 
	0 
	0 
	} I I #
edge $-1 $42 0 $42 6.283185307179586232 $35 $43 forward 7 unknown #
point $-1 10 50 -22.91287847477920536 #
vertex $-1 $40 $44 #
ellipse-curve $-1 -7.603329136129930433e-16 50 -325 0 0 -1 10 0 0 1 I I #
point $-1 10 50 -325 #
End-of-ACIS-data 