700 0 2 0           
24 FBMach with ACIS - 7.0.3 13 ACIS 7.0.3 NT 24 Mon May 13 17:09:50 2002 
1 9.9999999999999995e-007 1e-010 
body $2 -1 $-1 $3 $-1 $4 #
bdycol-kcp $-1 -1 1 1 $5 #
model_id-kcp-attrib $-1 -1 $-1 $-1 $0 1 1021324190 1021324190 425656321 1 #
lump $-1 -1 $-1 $-1 $6 $0 #
transform $-1 -1 1 0 0 0 1 0 0 0 1 0 0 0 1 rotate no_reflect no_shear #
body $7 -1 $-1 $8 $-1 $9 #
shell $-1 -1 $-1 $-1 $-1 $10 $-1 $3 #
model_id-kcp-attrib $-1 -1 $-1 $-1 $5 1 1021324190 1021324190 425656322 1 #
lump $-1 -1 $-1 $-1 $11 $5 #
transform $-1 -1 1 0 0 0 1 0 0 0 1 0 50 -150 1 no_rotate no_reflect no_shear #
face $12 -1 $-1 $13 $14 $6 $-1 $15 forward single #
shell $-1 -1 $-1 $-1 $-1 $16 $-1 $8 #
model_id-kcp-attrib $-1 -1 $-1 $-1 $10 1 1021324190 1021324190 425656321 2 #
face $17 -1 $-1 $18 $19 $6 $-1 $20 forward single #
loop $-1 -1 $-1 $21 $22 $10 #
cone-surface $-1 -1 $-1 0 50 0 0 1 0 0 0 25 1 I I 0 1 25 forward I I I I #
face $-1 -1 $-1 $23 $24 $11 $-1 $25 forward single #
model_id-kcp-attrib $-1 -1 $-1 $-1 $13 1 1021324190 1021324190 425656321 3 #
face $26 -1 $-1 $27 $28 $6 $-1 $29 forward single #
loop $-1 -1 $-1 $-1 $30 $13 #
plane-surface $-1 -1 $-1 0 0 0 0 -1 0 0 0 -1 forward_v I I I I #
loop $-1 -1 $-1 $31 $32 $10 #
coedge $-1 -1 $-1 $22 $22 $33 $34 reversed $14 $-1 #
face $35 -1 $-1 $36 $37 $11 $-1 $38 reversed single #
loop $-1 -1 $-1 $-1 $39 $16 #
plane-surface $-1 -1 $-1 0 0 175 0 0 1 1 0 0 forward_v I I I I #
model_id-kcp-attrib $-1 -1 $-1 $-1 $18 1 1021324190 1021324190 425656321 4 #
face $40 -1 $-1 $41 $42 $6 $-1 $43 forward single #
loop $-1 -1 $-1 $-1 $33 $18 #
plane-surface $-1 -1 $-1 0 100 0 0 1 0 0 0 1 forward_v I I I I #
coedge $-1 -1 $-1 $30 $30 $32 $44 forward $19 $-1 #
loop $-1 -1 $-1 $-1 $45 $10 #
coedge $-1 -1 $-1 $32 $32 $30 $44 reversed $21 $-1 #
coedge $-1 -1 $-1 $33 $33 $22 $34 forward $28 $-1 #
edge $-1 -1 $-1 $46 0 $46 6.2831853071795862 $33 $47 forward @7 unknown #
model_id-kcp-attrib $-1 -1 $-1 $-1 $23 1 1021324190 1021324190 425656322 4 #
face $48 -1 $-1 $49 $50 $11 $-1 $51 reversed single #
loop $-1 -1 $-1 $-1 $52 $23 #
plane-surface $-1 -1 $-1 0 0 -175 0 0 1 1 0 0 forward_v I I I I #
coedge $-1 -1 $-1 $53 $54 $55 $56 forward $24 $-1 #
model_id-kcp-attrib $-1 -1 $-1 $-1 $27 1 1021324190 1021324190 425656321 5 #
face $57 -1 $-1 $-1 $58 $6 $-1 $59 forward single #
loop $-1 -1 $-1 $60 $61 $27 #
cone-surface $-1 -1 $-1 -7.6033291361299304e-016 50 -162.5 0 0 1 10 0 0 1 I I 0 1 10 forward I I I I #
edge $62 -1 $-1 $63 0 $63 6.2831853071795862 $30 $64 forward @7 unknown #
coedge $-1 -1 $-1 $45 $45 $61 $65 reversed $31 $-1 #
vertex $-1 -1 $-1 $34 $66 #
ellipse-curve $-1 -1 $-1 0 100 0 0 1 0 0 0 25 1 I I #
model_id-kcp-attrib $-1 -1 $-1 $-1 $36 1 1021324190 1021324190 425656322 2 #
face $-1 -1 $-1 $67 $68 $11 $-1 $69 reversed single #
loop $-1 -1 $-1 $-1 $70 $36 #
plane-surface $-1 -1 $-1 0 -50 0 0 1 0 0 0 1 forward_v I I I I #
coedge $-1 -1 $-1 $71 $72 $73 $74 forward $37 $-1 #
coedge $-1 -1 $-1 $75 $39 $76 $77 forward $24 $-1 #
coedge $-1 -1 $-1 $39 $75 $78 $79 forward $24 $-1 #
coedge $-1 -1 $-1 $80 $81 $39 $56 reversed $82 $-1 #
edge $-1 -1 $-1 $83 -50 $84 50 $55 $85 forward @7 unknown #
model_id-kcp-attrib $-1 -1 $-1 $-1 $41 1 1021324190 1021324190 425656321 6 #
loop $-1 -1 $-1 $-1 $86 $41 #
plane-surface $-1 -1 $-1 -7.6033291361299304e-016 50 -325 0 0 -1 -1 0 0 forward_v I I I I #
loop $-1 -1 $-1 $-1 $87 $27 #
coedge $-1 -1 $-1 $61 $61 $45 $65 forward $42 $-1 #
attrib_edge_convexity-kcp-attrib $-1 -1 $88 $-1 $44 1 #
vertex $-1 -1 $-1 $44 $89 #
ellipse-curve $-1 -1 $-1 0 0 0 0 -1 0 0 0 25 1 I I #
edge $-1 -1 $-1 $90 0 $90 61.01834684415482 $61 $91 forward @7 unknown #
point $-1 -1 $-1 0 100 25 #
face $92 -1 $-1 $93 $94 $11 $-1 $95 reversed single #
loop $-1 -1 $-1 $-1 $96 $49 #
plane-surface $-1 -1 $-1 -25 0 0 1 0 0 0 0 -1 forward_v I I I I #
coedge $-1 -1 $-1 $97 $78 $98 $99 forward $50 $-1 #
coedge $-1 -1 $-1 $100 $52 $97 $101 forward $37 $-1 #
coedge $-1 -1 $-1 $52 $100 $102 $103 forward $37 $-1 #
coedge $-1 -1 $-1 $81 $80 $52 $74 reversed $82 $-1 #
edge $-1 -1 $-1 $104 -50 $105 50 $73 $106 forward @7 unknown #
coedge $-1 -1 $-1 $54 $53 $107 $108 forward $24 $-1 #
coedge $-1 -1 $-1 $109 $110 $53 $77 reversed $94 $-1 #
edge $-1 -1 $-1 $84 -25 $111 25 $76 $112 forward @7 unknown #
coedge $-1 -1 $-1 $70 $113 $54 $79 reversed $50 $-1 #
edge $-1 -1 $-1 $114 -25 $83 25 $78 $115 forward @7 unknown #
coedge $-1 -1 $-1 $73 $55 $113 $116 forward $82 $-1 #
coedge $-1 -1 $-1 $55 $73 $109 $117 reversed $82 $-1 #
loop $-1 -1 $-1 $-1 $80 $93 #
vertex $-1 -1 $-1 $56 $118 #
vertex $-1 -1 $-1 $56 $119 #
straight-curve $-1 -1 $-1 25 0 175 0 1 0 I I #
coedge $-1 -1 $-1 $86 $86 $87 $120 forward $58 $-1 #
coedge $-1 -1 $-1 $87 $87 $86 $120 reversed $60 $-1 #
convexity-sys-attrib $-1 -1 $-1 $62 $44 #
point $-1 -1 $-1 0 0 25 #
vertex $-1 -1 $-1 $65 $121 #
intcurve-curve $-1 -1 $-1 forward { surfintcur full nubs 3 periodic 33 
	0 3 1.9077883262632649 2 3.8155766525265298 2 5.7233649787897942 2 7.6311533050530596 2 
	9.5370116565494882 2 11.442870008045919 2 13.348728359542349 2 15.254586711038778 2 17.160445062535207 2 
	19.066303414031637 2 20.972161765528067 2 22.878020117024498 2 24.785808443287728 2 26.693596769550954 2 
	28.60138509581418 2 30.50917342207741 2 32.416961748340697 2 34.32475007460399 2 36.232538400867284 2 
	38.140326727130571 2 40.046185078626991 2 41.95204343012341 2 43.85790178161983 2 45.763760133116257 2 
	47.669618484612684 2 49.575476836109104 2 51.481335187605524 2 53.387193539101951 2 55.294981865365173 2 
	57.202770191628389 2 59.110558517891604 2 61.01834684415482 3 
	10 50 -22.912878474779205 
	10 49.364070557912243 -22.912878474779205 
	9.9383676532211265 48.70907389429469 -22.940102775948588 
	9.6817008721669868 47.411117984280395 -23.049601626874818 
	9.4867506416277312 46.768130851401999 -23.131742937544573 
	8.9744699176766591 45.538798535324609 -23.335270474779293 
	8.6567333147782488 44.951339134828274 -23.456583255430104 
	7.9251710016378896 43.866512178929895 -23.713751164003639 
	7.5112700350969783 43.369134411366026 -23.849349062769619 
	6.6313109101465058 42.489175286415559 -24.108834852207735 
	6.1341471601525548 42.07533119821457 -24.242153521939372 
	5.0492103674118294 41.343579741935685 -24.491125809649475 
	4.4614262496867561 41.025616017698525 -24.606565481644566 
	3.2314364422091977 40.513076780382193 -24.798088789017356 
	2.5881257105175139 40.318093860747553 -24.874191407132741 
	1.290060598544762 40.061516975115005 -24.975178407862927 
	0.63528611716540495 40 -25 
	-0.6352861171655475 40 -25 
	-1.2900605985449016 40.061516975115026 -24.975178407862927 
	-2.5881257105176494 40.318093860747588 -24.874191407132741 
	-3.2314364422093327 40.513076780382235 -24.798088789017356 
	-4.4614262496868822 41.025616017698589 -24.606565481644566 
	-5.0492103674119475 41.343579741935748 -24.491125809649475 
	-6.1341471601526667 42.075331198214656 -24.242153521939372 
	-6.6313109101466123 42.489175286415652 -24.108834852207679 
	-7.5112700350970654 43.369134411366126 -23.849349062769591 
	-7.9251710016379597 43.866512178929995 -23.713751164003639 
	-8.6567333147782897 44.951339134828345 -23.456583255430161 
	-8.9744699176766893 45.538798535324673 -23.335270474779293 
	-9.4867506416277436 46.768130851402056 -23.131742937544573 
	-9.6817008721669957 47.411117984280438 -23.049601626874818 
	-9.9383676532211283 48.709073894294711 -22.940102775948588 
	-10 49.364070557912257 -22.912878474779205 
	-10 50.635929442087765 -22.912878474779205 
	-9.9383676532211265 51.290926105705324 -22.940102775948588 
	-9.6817008721669815 52.588882015719641 -23.049601626874818 
	-9.4867506416277152 53.231869148598037 -23.13174293754463 
	-8.9744699176766325 54.461201464675447 -23.335270474779293 
	-8.6567333147782115 55.048660865171797 -23.456583255430132 
	-7.9251710016378336 56.133487821070176 -23.713751164003668 
	-7.5112700350969153 56.630865588634052 -23.849349062769619 
	-6.6313109101464303 57.510824713584512 -24.108834852207735 
	-6.1341471601524775 57.924668801785494 -24.242153521939429 
	-5.0492103674117477 58.656420258064365 -24.491125809649532 
	-4.4614262496866823 58.974383982301511 -24.606565481644623 
	-3.2314364422091266 59.486923219617836 -24.798088789017356 
	-2.5881257105174447 59.681906139252462 -24.874191407132741 
	-1.2900605985446938 59.938483024885002 -24.975178407862927 
	-0.63528611716533578 60.000000000000007 -25 
	0.63528611716561523 59.999999999999993 -25 
	1.2900605985449687 59.938483024884967 -24.975178407862927 
	2.5881257105177089 59.681906139252391 -24.874191407132741 
	3.231436442209386 59.486923219617744 -24.798088789017356 
	4.4614262496869275 58.974383982301383 -24.606565481644566 
	5.0492103674119884 58.656420258064223 -24.491125809649475 
	6.1341471601526987 57.924668801785316 -24.242153521939372 
	6.6313109101466425 57.51082471358432 -24.108834852207679 
	7.5112700350970902 56.630865588633846 -23.849349062769591 
	7.9251710016379828 56.133487821069977 -23.713751164003639 
	8.6567333147783074 55.048660865171627 -23.456583255430161 
	8.9744699176767035 54.461201464675298 -23.335270474779293 
	9.4867506416277507 53.23186914859793 -23.131742937544573 
	9.681700872167001 52.588882015719548 -23.049601626874818 
	9.93836765322113 51.290926105705275 -22.940102775948588 
	10 50.635929442087736 -22.912878474779205 
	10 50 -22.912878474779205 
	0.001 
	cone -7.6033291361299304e-016 50 -162.5 0 0 1 10 0 0 1 I I 0 1 10 forward I I I I 
	cone 0 50 0 0 1 0 0 0 25 1 I I 0 -1 25 forward I I I I 
	nullbs 
	nullbs 
	I I 
	0 
	0 
	0 
	} I I #
model_id-kcp-attrib $-1 -1 $-1 $-1 $67 1 1021324190 1021324190 425656322 3 #
face $-1 -1 $-1 $-1 $82 $11 $-1 $122 reversed single #
loop $-1 -1 $-1 $-1 $109 $67 #
plane-surface $-1 -1 $-1 0 50 0 0 -1 0 0 0 -1 forward_v I I I I #
coedge $-1 -1 $-1 $123 $107 $110 $124 forward $68 $-1 #
coedge $-1 -1 $-1 $113 $70 $71 $101 reversed $50 $-1 #
coedge $-1 -1 $-1 $107 $123 $70 $99 reversed $68 $-1 #
edge $-1 -1 $-1 $114 -175 $125 175 $98 $126 forward @7 unknown #
coedge $-1 -1 $-1 $72 $71 $123 $127 forward $37 $-1 #
edge $-1 -1 $-1 $105 -25 $125 25 $97 $128 forward @7 unknown #
coedge $-1 -1 $-1 $110 $109 $72 $103 reversed $94 $-1 #
edge $-1 -1 $-1 $129 -25 $104 25 $102 $130 forward @7 unknown #
vertex $-1 -1 $-1 $74 $131 #
vertex $-1 -1 $-1 $116 $132 #
straight-curve $-1 -1 $-1 25 0 -175 0 -1 0 I I #
coedge $-1 -1 $-1 $96 $98 $75 $108 reversed $68 $-1 #
edge $-1 -1 $-1 $111 -50 $114 50 $107 $133 forward @7 unknown #
coedge $-1 -1 $-1 $102 $76 $81 $117 forward $94 $-1 #
coedge $-1 -1 $-1 $76 $102 $96 $124 reversed $94 $-1 #
vertex $-1 -1 $-1 $77 $134 #
straight-curve $-1 -1 $-1 0 50 175 -1 0 0 I I #
coedge $-1 -1 $-1 $78 $97 $80 $116 reversed $50 $-1 #
vertex $-1 -1 $-1 $108 $135 #
straight-curve $-1 -1 $-1 0 -50 175 1 0 0 I I #
edge $-1 -1 $-1 $83 -175 $105 175 $80 $136 forward @7 unknown #
edge $-1 -1 $-1 $84 -175 $104 175 $81 $137 forward @7 unknown #
point $-1 -1 $-1 25 -50 175 #
point $-1 -1 $-1 25 50 175 #
edge $138 -1 $-1 $139 0 $139 6.2831853071795862 $86 $140 forward @7 unknown #
point $-1 -1 $-1 10 50 -22.912878474779205 #
plane-surface $-1 -1 $-1 25 0 0 -1 0 0 0 0 1 forward_v I I I I #
coedge $-1 -1 $-1 $98 $96 $100 $127 reversed $68 $-1 #
edge $-1 -1 $-1 $111 -175 $129 175 $110 $141 forward @7 unknown #
vertex $-1 -1 $-1 $127 $142 #
straight-curve $-1 -1 $-1 -25 -50 0 0 0 -1 I I #
edge $-1 -1 $-1 $125 -50 $129 50 $123 $143 forward @7 unknown #
straight-curve $-1 -1 $-1 0 -50 -175 -1 0 0 I I #
vertex $-1 -1 $-1 $103 $144 #
straight-curve $-1 -1 $-1 0 50 -175 1 0 0 I I #
point $-1 -1 $-1 25 50 -175 #
point $-1 -1 $-1 25 -50 -175 #
straight-curve $-1 -1 $-1 -25 0 175 0 -1 0 I I #
point $-1 -1 $-1 -25 50 175 #
point $-1 -1 $-1 -25 -50 175 #
straight-curve $-1 -1 $-1 25 -50 0 0 0 -1 I I #
straight-curve $-1 -1 $-1 25 50 0 0 0 -1 I I #
attrib_edge_convexity-kcp-attrib $-1 -1 $145 $-1 $120 1 #
vertex $-1 -1 $-1 $120 $146 #
ellipse-curve $-1 -1 $-1 -7.6033291361299304e-016 50 -325 0 0 -1 10 0 0 1 I I #
straight-curve $-1 -1 $-1 -25 50 0 0 0 -1 I I #
point $-1 -1 $-1 -25 -50 -175 #
straight-curve $-1 -1 $-1 -25 0 -175 0 1 0 I I #
point $-1 -1 $-1 -25 50 -175 #
convexity-sys-attrib $-1 -1 $-1 $138 $120 #
point $-1 -1 $-1 10 50 -325 #
End-of-ACIS-data 