106 0 1 0           
body $-1 $1 $-1 $2 #
lump $-1 $-1 $3 $0 #
transform $-1 1 0 0 0 1 0 0 0 1 -7.6033291361299304e-016 50 -162.5 1 0 0 0 #
shell $-1 $-1 $-1 $4 $1 #
face $-1 $5 $6 $3 $-1 $7 forward single #
face $-1 $8 $9 $3 $-1 $10 forward single #
loop $-1 $11 $12 $4 #
cone-surface $-1 7.6033291361299304e-016 0 162.5 0 1 0 0 0 25 1 I I 0 1 0 I I I I #
face $-1 $13 $14 $3 $-1 $15 forward single #
loop $-1 $-1 $16 $5 #
plane-surface $-1 7.6033291361299304e-016 -50 162.5 0 -1 0 0 0 -1 0 I I I I #
loop $-1 $17 $18 $4 #
coedge $-1 $12 $12 $19 $20 1 $6 $-1 #
face $-1 $21 $22 $3 $-1 $23 forward single #
loop $-1 $-1 $19 $8 #
plane-surface $-1 7.6033291361299304e-016 50 162.5 0 1 0 0 0 1 0 I I I I #
coedge $-1 $16 $16 $18 $24 0 $9 $-1 #
loop $-1 $-1 $25 $4 #
coedge $-1 $18 $18 $16 $24 1 $11 $-1 #
coedge $-1 $19 $19 $12 $20 0 $14 $-1 #
edge $-1 $26 $26 $19 $27 0 #
face $-1 $-1 $28 $3 $-1 $29 forward single #
loop $-1 $30 $31 $13 #
cone-surface $-1 0 0 0 0 0 1 10 0 0 1 I I 0 1 0 I I I I #
edge $-1 $32 $32 $16 $33 0 #
coedge $-1 $25 $25 $31 $34 1 $17 $-1 #
vertex $-1 $20 $35 #
ellipse-curve $-1 7.6033291361299304e-016 50 162.5 0 1 0 0 0 25 1 I I #
loop $-1 $-1 $36 $21 #
plane-surface $-1 0 0 -162.5 0 0 -1 -1 0 0 0 I I I I #
loop $-1 $-1 $37 $13 #
coedge $-1 $31 $31 $25 $34 0 $22 $-1 #
vertex $-1 $24 $38 #
ellipse-curve $-1 7.6033291361299304e-016 -50 162.5 0 -1 0 0 0 25 1 I I #
edge $-1 $39 $39 $31 $40 0 #
point $-1 7.6033291361299304e-016 50 187.5 #
coedge $-1 $36 $36 $37 $41 0 $28 $-1 #
coedge $-1 $37 $37 $36 $41 1 $30 $-1 #
point $-1 7.6033291361299304e-016 -50 187.5 #
vertex $-1 $34 $42 #
intcurve-curve $-1 0 { surfintcur nubs 3 periodic 33 
	0 3 1.9077883262632649 2 3.8155766525265298 2 5.7233649787897942 2 7.6311533050530596 2 
	9.5370116565494882 2 11.442870008045919 2 13.348728359542349 2 15.254586711038778 2 17.160445062535207 2 
	19.066303414031637 2 20.972161765528067 2 22.878020117024498 2 24.785808443287728 2 26.693596769550954 2 
	28.60138509581418 2 30.50917342207741 2 32.416961748340697 2 34.32475007460399 2 36.232538400867284 2 
	38.140326727130571 2 40.046185078626991 2 41.95204343012341 2 43.85790178161983 2 45.763760133116257 2 
	47.669618484612684 2 49.575476836109104 2 51.481335187605524 2 53.387193539101951 2 55.294981865365173 2 
	57.202770191628389 2 59.110558517891604 2 61.01834684415482 3 
	10 0 139.58712152522079 
	10 -0.63592944208775493 139.58712152522079 
	9.9383676532211265 -1.2909261057053074 139.55989722405141 
	9.6817008721669868 -2.5888820157196073 139.45039837312518 
	9.4867506416277312 -3.2318691485979993 139.36825706245543 
	8.9744699176766591 -4.4612014646753932 139.16472952522071 
	8.6567333147782488 -5.0486608651717289 139.0434167445699 
	7.9251710016378905 -6.1334878210701023 138.78624883599636 
	7.5112700350969792 -6.6308655886339753 138.65065093723038 
	6.6313109101465066 -7.5108247135844417 138.39116514779226 
	6.1341471601525557 -7.9246688017854279 138.25784647806063 
	5.0492103674118303 -8.6564202580643155 138.00887419035053 
	4.4614262496867569 -8.9743839823014735 137.89343451835543 
	3.2314364422091986 -9.4869232196178093 137.70191121098264 
	2.5881257105175148 -9.6819061392524493 137.62580859286726 
	1.2900605985447626 -9.9384830248849934 137.52482159213707 
	0.63528611716540573 -10.000000000000004 137.5 
	-0.63528611716554673 -9.9999999999999964 137.5 
	-1.290060598544901 -9.9384830248849738 137.52482159213707 
	-2.5881257105176485 -9.6819061392524102 137.62580859286726 
	-3.2314364422093318 -9.4869232196177666 137.70191121098264 
	-4.4614262496868813 -8.9743839823014131 137.89343451835543 
	-5.0492103674119466 -8.6564202580642498 138.00887419035053 
	-6.1341471601526658 -7.9246688017853453 138.25784647806063 
	-6.6313109101466114 -7.5108247135843484 138.39116514779232 
	-7.5112700350970645 -6.6308655886338768 138.65065093723041 
	-7.9251710016379588 -6.1334878210700063 138.78624883599636 
	-8.6567333147782897 -5.0486608651716516 139.04341674456984 
	-8.9744699176766893 -4.4612014646753231 139.16472952522071 
	-9.4867506416277436 -3.2318691485979469 139.36825706245543 
	-9.6817008721669957 -2.588882015719566 139.45039837312518 
	-9.9383676532211283 -1.2909261057052857 139.55989722405141 
	-10 -0.63592944208774338 139.58712152522079 
	-10 0.63592944208776248 139.58712152522079 
	-9.9383676532211265 1.2909261057053216 139.55989722405141 
	-9.6817008721669815 2.5888820157196388 139.45039837312518 
	-9.4867506416277152 3.2318691485980366 139.36825706245537 
	-8.9744699176766325 4.4612014646754465 139.16472952522071 
	-8.6567333147782115 5.0486608651717937 139.04341674456987 
	-7.9251710016378327 6.1334878210701751 138.78624883599633 
	-7.5112700350969144 6.6308655886340491 138.65065093723038 
	-6.6313109101464294 7.5108247135845092 138.39116514779226 
	-6.1341471601524766 7.9246688017854918 138.25784647806057 
	-5.0492103674117468 8.656420258064367 138.00887419035047 
	-4.4614262496866814 8.9743839823015108 137.89343451835538 
	-3.2314364422091257 9.4869232196178359 137.70191121098264 
	-2.5881257105174438 9.6819061392524652 137.62580859286726 
	-1.2900605985446931 9.9384830248850022 137.52482159213707 
	-0.63528611716533501 10.000000000000007 137.5 
	0.635286117165616 9.9999999999999911 137.5 
	1.2900605985449694 9.9384830248849667 137.52482159213707 
	2.5881257105177098 9.6819061392523942 137.62580859286726 
	3.2314364422093869 9.4869232196177435 137.70191121098264 
	4.4614262496869284 8.9743839823013847 137.89343451835543 
	5.0492103674119893 8.6564202580642249 138.00887419035053 
	6.1341471601526996 7.9246688017853195 138.25784647806063 
	6.6313109101466434 7.5108247135843191 138.39116514779232 
	7.5112700350970911 6.6308655886338475 138.65065093723041 
	7.9251710016379837 6.1334878210699761 138.78624883599636 
	8.6567333147783074 5.0486608651716232 139.04341674456984 
	8.9744699176767035 4.4612014646752982 139.16472952522071 
	9.4867506416277507 3.2318691485979274 139.36825706245543 
	9.681700872167001 2.5888820157195491 139.45039837312518 
	9.93836765322113 1.2909261057052763 139.55989722405141 
	10 0.63592944208773861 139.58712152522079 
	10 0 139.58712152522079 
	0.001 
	cone 0 0 0 0 0 1 10 0 0 1 I I 0 1 0 I I I I 
	cone 7.6033291361299304e-016 0 162.5 0 1 0 0 0 25 1 I I 0 -1 0 I I I I 
	nullbs 
	nullbs 
	} I I #
edge $-1 $43 $43 $36 $44 0 #
point $-1 10 0 139.58712152522079 #
vertex $-1 $41 $45 #
ellipse-curve $-1 0 0 -162.5 0 0 -1 10 0 0 1 I I #
point $-1 10 0 -162.5 #
End-of-ACIS-data 