106 0 1 0           
body $-1 $1 $-1 $2 #
lump $-1 $-1 $3 $0 #
transform $-1 -0.01745240643728355 -3.6141759863769881e-15 0.99984769515639127 -0.99984769515639127 -3.4901691802215415e-15 -0.01745240643728355 3.5527136788005009e-15 -1 -3.5527136788005009e-15 0.16010480350074016 -3.7064748735080277e-15 1.2033847322000439 0.39369999999999999 1 0 0 #
shell $-1 $-1 $-1 $4 $1 #
face $5 $6 $7 $3 $-1 $8 reversed single #
pid_name-sg-attrib $-1 $-1 $-1 $4 7 114 119 105 108 115 111 110 815244532 1 1 #
face $9 $10 $11 $3 $-1 $12 reversed single #
loop $-1 $-1 $13 $4 #
plane-surface $-1 3.4359183667228184 -0.056736230148138556 -2.8421709430404009e-15 0.99939082701909576 -0.034899496702501046 0 -2.4797583863645688e-16 -7.1010989232369735e-15 1 0 I I I I #
pid_name-sg-attrib $-1 $-1 $-1 $6 7 114 119 105 108 115 111 110 815244532 2 1 #
face $14 $15 $16 $3 $-1 $17 forward single #
loop $-1 $-1 $18 $6 #
plane-surface $-1 4.2249611793273454 -0.38447307561586797 -4.9737991503207002e-15 0.034899496702501046 0.99939082701909576 7.1054273576010019e-15 -2.4797583863645688e-16 -7.1010989232369735e-15 1 0 I I I I #
coedge $-1 $19 $20 $21 $22 1 $7 $-1 #
pid_name-sg-attrib $-1 $-1 $-1 $10 7 114 119 105 108 115 111 110 815244532 3 1 #
face $23 $24 $25 $3 $-1 $26 reversed single #
loop $-1 $27 $28 $10 #
torus-surface $-1 10.055376438541037 6.1160082838780676 4.2632564145606011e-14 2.4797583863645688e-16 7.1010989232369735e-15 -1 8 0.45000000000000001 0.99939082701909576 -0.034899496702501046 0 0 I I I I #
coedge $-1 $29 $30 $31 $32 1 $11 $-1 #
coedge $-1 $33 $13 $34 $35 1 $7 $-1 #
coedge $-1 $13 $33 $36 $37 1 $7 $-1 #
coedge $-1 $38 $39 $13 $22 0 $40 $-1 #
edge $-1 $41 $42 $21 $43 0 #
pid_name-sg-attrib $-1 $-1 $-1 $15 7 114 119 105 108 115 111 110 815244532 4 1 #
face $44 $45 $46 $3 $-1 $47 reversed single #
loop $-1 $-1 $48 $15 #
plane-surface $-1 7.7437687719156809 0.093013182136836403 -7.1054273576009529e-16 -0.034899496702501046 -0.99939082701909576 -7.1054273576010019e-15 2.4797583863645688e-16 7.1010989232369735e-15 -1 0 I I I I #
loop $-1 $-1 $49 $10 #
coedge $-1 $28 $28 $50 $51 1 $16 $-1 #
coedge $-1 $52 $18 $53 $54 1 $11 $-1 #
coedge $-1 $18 $52 $55 $56 1 $11 $-1 #
coedge $-1 $49 $57 $18 $32 0 $27 $-1 #
edge $-1 $58 $59 $31 $60 0 #
coedge $-1 $20 $19 $52 $61 0 $7 $-1 #
coedge $-1 $62 $55 $19 $35 0 $63 $-1 #
edge $-1 $64 $41 $19 $65 0 #
coedge $-1 $53 $66 $20 $37 0 $67 $-1 #
edge $-1 $42 $68 $20 $69 0 #
coedge $-1 $70 $21 $66 $71 0 $40 $-1 #
coedge $-1 $21 $70 $62 $72 0 $40 $-1 #
loop $-1 $-1 $21 $73 #
vertex $-1 $72 $74 #
vertex $-1 $71 $75 #
straight-curve $-1 3.4338852068683114 -0.11495831070645285 0 0 0 1 I I #
pid_name-sg-attrib $-1 $-1 $-1 $24 7 114 119 105 108 115 111 110 815244532 5 1 #
face $76 $77 $78 $3 $-1 $79 reversed single #
loop $-1 $-1 $50 $24 #
plane-surface $-1 12.083979758340357 -4.5612932746103496 -3.2684965844964606e-14 -0.99939082701909576 0.034899496702501046 0 2.4797583863645688e-16 7.1010989232369735e-15 -1 0 I I I I #
coedge $-1 $80 $81 $82 $83 1 $25 $-1 #
coedge $-1 $84 $31 $85 $86 0 $27 $-1 #
coedge $-1 $50 $50 $28 $51 0 $46 $-1 #
edge $-1 $87 $87 $28 $88 0 #
coedge $-1 $30 $29 $33 $61 1 $11 $-1 #
coedge $-1 $89 $36 $29 $54 0 $67 $-1 #
edge $-1 $68 $58 $29 $90 0 #
coedge $-1 $34 $85 $30 $56 0 $63 $-1 #
edge $-1 $59 $64 $30 $91 0 #
coedge $-1 $31 $84 $89 $92 0 $27 $-1 #
vertex $-1 $92 $93 #
vertex $-1 $86 $94 #
intcurve-curve $-1 0 { surfintcur nubs 3 open 11 
	-0.44614101281097973 3 -0.32217069999339598 2 -0.23087853503322187 2 -0.13958637007304731 2 -0.069793185036523653 2 
	0 3 0.069793185036520503 2 0.13958637007304101 2 0.23087853503321448 2 0.32217069999338799 2 
	0.44614101281163387 3 
	4.9546618381429068 -0.40995478412034514 0.34999999999999504 
	4.9139183614604214 -0.40853199056282363 0.33062970425338384 
	4.875055547336518 -0.40717487118900186 0.3076900307174284 
	4.8173297156645365 -0.40515904072746467 0.26511863003186609 
	4.7920009685464056 -0.4042745413878378 0.24333954093460658 
	4.747069664626073 -0.40270550568067176 0.1947451942392649 
	4.7275318107589435 -0.40202322878941399 0.16787007805719678 
	4.7018669839575411 -0.40112699328863644 0.12071417725030022 
	4.6919623907158359 -0.40078111727113386 0.09721419635610283 
	4.6788374231889209 -0.4003227833055395 0.04849474605891322 
	4.6756574253179322 -0.40021173533290144 0.023264395012169585 
	4.6756574253179322 -0.40021173533290122 -4.9737991503207002e-15 
	4.6756574253179322 -0.400211735332901 -0.023264395012178474 
	4.6788374231889183 -0.40032278330553861 -0.048494746058921422 
	4.6919623907158332 -0.40078111727113253 -0.097214196356108992 
	4.7018669839575393 -0.40112699328863444 -0.12071417725030494 
	4.7275318107589408 -0.40202322878941088 -0.16787007805720078 
	4.7470696646260695 -0.40270550568066887 -0.19474519423926959 
	4.7920009685464002 -0.40427454138783403 -0.24333954093461124 
	4.8173297156645312 -0.40515904072746023 -0.26511863003187075 
	4.8750555473366877 -0.40717487118900342 -0.30769003071756468 
	4.9139183614602029 -0.40853199056281098 -0.33062970425328975 
	4.9546618381429068 -0.40995478412034025 -0.35000000000000492 
	0.001 
	torus 10.055376438541037 6.1160082838780676 4.2632564145606011e-14 2.4797583863645688e-16 7.1010989232369735e-15 -1 8 -0.45000000000000001 0.99939082701909576 -0.034899496702501046 0 0 I I I I 
	plane 4.2249611793273454 -0.38447307561586797 -4.9737991503207002e-15 -0.034899496702501046 -0.99939082701909576 -7.1054273576010019e-15 -2.4797583863645688e-16 -7.1010989232369735e-15 1 1 I I I I 
	nullbs 
	nullbs 
	} I I #
edge $-1 $64 $68 $52 $95 0 #
coedge $-1 $96 $34 $39 $72 1 $63 $-1 #
loop $-1 $-1 $97 $98 #
vertex $-1 $56 $99 #
straight-curve $-1 3.4359183667228184 -0.056736230148136113 -0.35000000000000281 0.034899496702501046 0.99939082701909576 7.1054273576010019e-15 I I #
coedge $-1 $36 $100 $38 $71 1 $67 $-1 #
loop $-1 $-1 $101 $102 #
vertex $-1 $54 $103 #
straight-curve $-1 3.4359183667228184 -0.056736230148140998 0.34999999999999715 -0.034899496702501046 -0.99939082701909576 -7.1054273576010019e-15 I I #
coedge $-1 $39 $38 $104 $105 1 $40 $-1 #
edge $-1 $42 $106 $66 $107 1 #
edge $-1 $108 $41 $62 $109 1 #
face $110 $98 $40 $3 $-1 $111 forward single #
point $-1 3.4338852068683119 -0.11495831070645024 -0.3500000000000032 #
point $-1 3.4338852068683119 -0.11495831070645512 0.34999999999999676 #
pid_name-sg-attrib $-1 $-1 $-1 $45 7 114 119 105 108 115 111 110 815244532 6 1 #
face $112 $113 $114 $3 $-1 $115 forward single #
loop $-1 $-1 $116 $45 #
plane-surface $-1 0.0019798121879385129 0.46342336428312836 0 0.034899496702501046 0.99939082701909576 7.1054273576010019e-15 -2.4797583863645688e-16 -7.1010989232369735e-15 1 0 I I I I #
coedge $-1 $117 $48 $118 $119 1 $25 $-1 #
coedge $-1 $48 $117 $120 $121 1 $25 $-1 #
coedge $-1 $122 $123 $48 $83 0 $124 $-1 #
edge $-1 $125 $126 $82 $127 0 #
coedge $-1 $57 $49 $117 $128 1 $27 $-1 #
coedge $-1 $55 $120 $49 $86 1 $63 $-1 #
edge $-1 $59 $129 $49 $130 0 #
vertex $-1 $51 $131 #
intcurve-curve $-1 0 { surfintcur nubs 3 periodic 33 
	0 3 0.082146562520990549 2 0.1642931250419811 2 0.24823564756822275 2 0.33217817009446443 2 
	0.41847135746948305 2 0.50476454484450173 2 0.59329198422580776 2 0.68181942360711378 2 0.77058334281261676 2 
	0.85934726201811984 2 0.9461833983081247 2 1.0330195345981297 2 1.1172312733968277 2 1.201443012195526 2 
	1.2833839403975122 2 1.3653248685994985 2 1.447265796801485 2 1.5292067250034713 2 1.6134184638021691 2 
	1.6976302026008669 2 1.7844663388908717 2 1.8713024751808764 2 1.9600663943863792 2 2.0488303135918819 2 
	2.1373577529731875 2 2.2258851923544936 2 2.3121783797295135 2 2.3984715671045334 2 2.4824140896307743 2 
	2.5663566121570152 2 2.6485031746780092 2 2.7306497371990033 3 
	12.1711584943425 -2.0648209095685566 -1.4935650401504069e-14 
	12.1711584943425 -2.0648209095685566 -0.027382187507011786 
	12.171255533155131 -2.0620420815517897 -0.057273903743135582 
	12.171672602170819 -2.0500987875820811 -0.11575667575716693 
	12.171992540233031 -2.0409369601977545 -0.14434827100701292 
	12.172747352864109 -2.0193219545130257 -0.19531185305460752 
	12.173255389931994 -2.0047736763599735 -0.22231319491021997 
	12.174461249262869 -1.970242383137486 -0.27259381395654786 
	12.175158876193246 -1.9502649616622314 -0.29587693712327956 
	12.176577260097616 -1.9096477609242677 -0.33547811225650409 
	12.177432449156903 -1.8851583504177372 -0.35533194887714964 
	12.179269138418727 -1.8325624515141592 -0.38948705076173717 
	12.180250497801126 -1.8044599956782039 -0.40379453299104062 
	12.18213638875333 -1.750455144706935 -0.42560565890181745 
	12.183217179869187 -1.719505336567321 -0.43499171993504737 
	12.185423291275814 -1.6563305715567864 -0.44718691131284405 
	12.18654858491338 -1.6241063779337965 -0.45000000000001139 
	12.188611044641508 -1.565045258773325 -0.45000000000001178 
	12.189739291310682 -1.5327365013892926 -0.44717180803547574 
	12.191951461788454 -1.4693882272828183 -0.4349500549795785 
	12.19303537134647 -1.4383491186436661 -0.42555437621051545 
	12.194930620806181 -1.3840762750810693 -0.40371359422394637 
	12.195919002967122 -1.3557727131800905 -0.38936218905531728 
	12.197769986057617 -1.3027674925782491 -0.35510492886102429 
	12.198632439903166 -1.278070045812286 -0.33519254932918441 
	12.200061595200962 -1.2371443927239838 -0.29552054481125217 
	12.200764218145306 -1.2170239041273483 -0.27222914080771282 
	12.201979757490061 -1.1822154115755823 -0.22190354728419373 
	12.202492416069493 -1.1675347906473443 -0.19486424535059016 
	12.203251950437529 -1.1457845721071878 -0.14393524394183901 
	12.203573400874312 -1.1365794359815764 -0.11543662708893813 
	12.203992658814897 -1.1245734594040981 -0.057126226714699448 
	12.204090330712686 -1.1217765022003738 -0.027313642734006865 
	12.204090330712686 -1.1217765022003743 0.027313642733984084 
	12.203992658814897 -1.124573459404099 0.057126226714676737 
	12.203573400874312 -1.1365794359815764 0.11543662708891569 
	12.203251950437529 -1.1457845721071882 0.1439352439418165 
	12.202492416069493 -1.1675347906473443 0.19486424535056748 
	12.201979757490061 -1.1822154115755819 0.22190354728417094 
	12.200764218145306 -1.2170239041273465 0.27222914080768951 
	12.200061595200962 -1.2371443927239838 0.29552054481122919 
	12.198632439903166 -1.2780700458122851 0.33519254932916132 
	12.197769986057617 -1.30276749257825 0.35510492886100103 
	12.195919002967122 -1.3557727131800896 0.38936218905529418 
	12.194930620806181 -1.3840762750810676 0.403713594223923 
	12.19303537134647 -1.4383491186436652 0.42555437621049214 
	12.191951461788454 -1.4693882272828174 0.43495005497955569 
	12.189739291310682 -1.5327365013892917 0.4471718080354527 
	12.188611044641508 -1.5650452587733241 0.44999999999998841 
	12.186548584913382 -1.6241063779337948 0.44999999999998852 
	12.185423291275816 -1.6563305715567855 0.4471869113128209 
	12.183217179869187 -1.7195053365673201 0.43499171993502433 
	12.18213638875333 -1.7504551447069341 0.42560565890179408 
	12.180250497801126 -1.8044599956782013 0.40379453299101742 
	12.179269138418727 -1.8325624515141574 0.38948705076171497 
	12.177432449156903 -1.8851583504177363 0.35533194887712755 
	12.176577260097616 -1.9096477609242668 0.33547811225648116 
	12.175158876193246 -1.9502649616622332 0.29587693712325663 
	12.174461249262869 -1.9702423831374878 0.2725938139565226 
	12.173255389931994 -2.0047736763599753 0.22231319491019497 
	12.172747352864109 -2.0193219545130265 0.19531185305458468 
	12.171992540233031 -2.0409369601977545 0.14434827100698921 
	12.171672602170819 -2.0500987875820811 0.11575667575714245 
	12.171255533155131 -2.0620420815517924 0.057273903743108465 
	12.1711584943425 -2.0648209095685566 0.027382187506983114 
	12.1711584943425 -2.0648209095685566 -1.4935650401504069e-14 
	0.001 
	torus 10.055376438541037 6.1160082838780676 4.2632564145606011e-14 2.4797583863645688e-16 7.1010989232369735e-15 -1 8 -0.45000000000000001 0.99939082701909576 -0.034899496702501046 0 0 I I I I 
	plane 12.083979758340357 -4.5612932746103496 -3.2684965844964606e-14 0.99939082701909576 -0.034899496702501046 0 2.4797583863645688e-16 7.1010989232369735e-15 -1 1 I I I I 
	nullbs 
	nullbs 
	} I I #
coedge $-1 $118 $53 $57 $92 1 $67 $-1 #
straight-curve $-1 4.2249611793273454 -0.38447307561587041 0.34999999999999504 0.99939082701909576 -0.034899496702501046 0 I I #
straight-curve $-1 4.2249611793273454 -0.38447307561586552 -0.35000000000000492 -0.99939082701909576 0.034899496702501046 0 I I #
edge $-1 $132 $58 $57 $133 0 #
point $-1 4.9546618381429068 -0.40995478412034514 0.34999999999999504 #
point $-1 4.9546618381429068 -0.40995478412034025 -0.35000000000000492 #
straight-curve $-1 3.4254485177120682 -0.35655347825386696 -4.9737991503207002e-15 -2.4797583863645688e-16 -7.1010989232369735e-15 1 I I #
coedge $-1 $134 $62 $135 $136 0 $63 $-1 #
coedge $-1 $137 $138 $139 $140 0 $63 $-1 #
face $141 $142 $63 $3 $-1 $143 reversed single #
point $-1 3.4254485177120682 -0.35655347825386452 -0.35000000000000492 #
coedge $-1 $66 $144 $145 $146 0 $67 $-1 #
coedge $-1 $147 $148 $149 $150 0 $67 $-1 #
face $151 $152 $67 $3 $-1 $153 forward single #
point $-1 3.4254485177120682 -0.3565534782538694 0.34999999999999504 #
coedge $-1 $145 $135 $70 $105 0 $154 $-1 #
edge $-1 $108 $106 $104 $155 0 #
vertex $-1 $146 $156 #
ellipse-curve $-1 3.25 0.34999999999999998 0.34999999999999998 0 0 1 0.5 0 0 1 I I #
vertex $-1 $136 $157 #
ellipse-curve $-1 3.25 0.34999999999999998 -0.34999999999999998 0 0 -1 0.5 0 0 1 I I #
pid_name-sg-attrib $-1 $-1 $-1 $73 7 114 119 105 108 115 111 110 815244532 14 1 #
cone-surface $-1 3.25 0.34999999999999998 0 0 0 1 0.5 0 0 1 I I 0 1 0 I I I I #
pid_name-sg-attrib $-1 $-1 $-1 $77 7 114 119 105 108 115 111 110 815244532 7 1 #
face $158 $159 $160 $3 $-1 $161 reversed single #
loop $-1 $-1 $162 $77 #
cone-surface $-1 -0.3478069772687451 0.47563818812900371 1.2789769243681805e-14 -0.99939082701909576 0.034899496702501046 3.5527136788005009e-15 -0.01570477351612547 -0.44972587215859311 -3.1974423109204509e-15 0.66666666666666663 I I -0.12752174253952619 0.99183577530742595 0 I I I I #
coedge $-1 $163 $164 $165 $166 1 $78 $-1 #
coedge $-1 $81 $80 $84 $128 0 $25 $-1 #
coedge $-1 $167 $89 $80 $119 0 $67 $-1 #
edge $-1 $132 $125 $80 $168 0 #
coedge $-1 $85 $169 $81 $121 0 $63 $-1 #
edge $-1 $126 $129 $81 $170 0 #
coedge $-1 $171 $82 $169 $172 0 $124 $-1 #
coedge $-1 $82 $171 $167 $173 0 $124 $-1 #
loop $-1 $-1 $82 $174 #
vertex $-1 $173 $175 #
vertex $-1 $172 $176 #
straight-curve $-1 3.7361095662927242 0.23296372545787677 0 0 0 -1 I I #
edge $-1 $132 $129 $84 $177 0 #
vertex $-1 $128 $178 #
ellipse-curve $-1 10.055376438541037 6.1160082838780703 -0.34999999999995735 2.4797583863645688e-16 7.1010989232369735e-15 -1 8.2777970284890987 -0.28906704193134275 0 1 I I #
point $-1 12.1711584943425 -2.0648209095685548 -1.4935650401504056e-14 #
vertex $-1 $128 $179 #
ellipse-curve $-1 10.055376438541037 6.1160082838780649 0.35000000000004261 -2.4797583863645688e-16 -7.1010989232369735e-15 1 8.2777970284890987 -0.28906704193134275 0 1 I I #
coedge $-1 $180 $96 $181 $182 0 $63 $-1 #
coedge $-1 $104 $183 $96 $136 1 $154 $-1 #
edge $-1 $108 $184 $135 $185 0 #
coedge $-1 $186 $97 $187 $188 0 $63 $-1 #
coedge $-1 $97 $189 $190 $191 1 $63 $-1 #
coedge $-1 $192 $193 $97 $140 1 $194 $-1 #
edge $-1 $195 $196 $139 $197 0 #
pid_name-sg-attrib $-1 $-1 $-1 $98 7 114 119 105 108 115 111 110 815244532 15 1 #
face $198 $199 $194 $3 $-1 $200 reversed single #
plane-surface $-1 0 0 -0.34999999999999998 0 0 1 1 0 0 0 I I I I #
coedge $-1 $100 $147 $201 $202 0 $67 $-1 #
coedge $-1 $183 $104 $100 $146 1 $154 $-1 #
edge $-1 $203 $106 $145 $204 0 #
coedge $-1 $144 $101 $205 $206 1 $67 $-1 #
coedge $-1 $101 $207 $208 $209 1 $67 $-1 #
coedge $-1 $210 $211 $101 $150 1 $212 $-1 #
edge $-1 $213 $214 $149 $215 0 #
pid_name-sg-attrib $-1 $-1 $-1 $102 7 114 119 105 108 115 111 110 815244532 24 1 #
face $216 $217 $218 $3 $-1 $219 reversed single #
plane-surface $-1 0 0 0.34999999999999998 0 0 1 1 0 0 0 I I I I #
loop $-1 $-1 $104 $217 #
straight-curve $-1 3.0499999999999998 -0.10825756949558396 0 0 0 1 I I #
point $-1 3.0499999999999998 -0.10825756949558396 0.34999999999999998 #
point $-1 3.0499999999999998 -0.10825756949558396 -0.34999999999999998 #
pid_name-sg-attrib $-1 $-1 $-1 $113 7 114 119 105 108 115 111 110 815244532 8 1 #
face $220 $221 $222 $3 $-1 $223 reversed single #
loop $-1 $-1 $224 $113 #
plane-surface $-1 -3.033947386374428 0.91965361868244 2.4868995751603505e-15 0.99939082701909576 -0.034899496702501046 0 -2.4797583863645688e-16 -7.1010989232369735e-15 1 0 I I I I #
coedge $-1 $225 $226 $224 $227 0 $114 $-1 #
coedge $-1 $228 $116 $207 $229 1 $78 $-1 #
coedge $-1 $116 $230 $231 $232 1 $78 $-1 #
coedge $-1 $233 $208 $116 $166 0 $234 $-1 #
edge $-1 $235 $236 $165 $237 0 #
coedge $-1 $238 $118 $123 $173 1 $67 $-1 #
straight-curve $-1 4.2459008773488458 0.21516142059558674 0.34999999999999926 -0.99939082701909576 0.034899496702501046 0 I I #
coedge $-1 $120 $239 $122 $172 1 $63 $-1 #
straight-curve $-1 4.2459008773488458 0.21516142059559162 -0.3500000000000007 0.99939082701909576 -0.034899496702501046 0 I I #
coedge $-1 $123 $122 $240 $241 1 $124 $-1 #
edge $-1 $126 $242 $169 $109 1 #
edge $-1 $243 $125 $167 $107 1 #
face $244 $73 $124 $3 $-1 $111 forward single #
point $-1 3.7361095662927242 0.23296372545787347 0.34999999999999926 #
point $-1 3.7361095662927242 0.23296372545787836 -0.3500000000000007 #
intcurve-curve $-1 0 { surfintcur nubs 3 open 25 
	0.42352118925744758 3 0.438585990353689 2 0.55242400931522972 2 0.69636683377215403 2 0.84030965822907833 2 
	0.98982605545636726 2 1.1393424526836562 2 1.2652969510165266 2 1.391251449349397 2 1.4855760707398773 2 
	1.5799006921303576 2 1.6504713867541705 2 1.7210420813779834 2 1.7916127760017964 2 1.8621834706256091 2 
	1.9565080920160907 2 2.0508327134065722 2 2.1767872117394429 2 2.3027417100723131 2 2.4522581072996035 2 
	2.6017745045268938 2 2.7457173289838166 2 2.8896601534407393 2 3.0034981724022791 2 3.0185629734985144 3 
	4.2427355414585142 0.21527195656057785 0.34999999991788028 
	4.2475351071940484 0.21510435203186662 0.3526254133790141 
	4.2523747650000443 0.21493534745720455 0.35519608415374881 
	4.2940501906641044 0.21348000952411927 0.37669737230668116 
	4.3326967290805642 0.21213044266442393 0.39224917532117887 
	4.4143058315316743 0.2092805900093001 0.4189937653582298 
	4.4654837496307991 0.20749341772829288 0.43112540405826588 
	4.5692267756963325 0.203870631428682 0.44660577987923566 
	4.6217850999352983 0.20203525430306046 0.44999999999999934 
	4.7195452513537539 0.19862139458989825 0.44999999999999918 
	4.7741167676687564 0.19671571524784692 0.44633082191386003 
	4.8819801026527232 0.19294904459026074 0.43044654279789424 
	4.9352706427587698 0.19108809792312687 0.41822275022215372 
	5.0229860498266001 0.18802500841203651 0.39123749105500571 
	5.0661396212873937 0.18651805249030862 0.37502076720814076 
	5.1489329331596654 0.18362684633095894 0.33551378203236731 
	5.188546572442374 0.18224350756483831 0.31216877811998883 
	5.247889369063035 0.18017121144305293 0.26897652921620513 
	5.2742702896016018 0.17924996939794557 0.24671434603220682 
	5.321322251186194 0.17760687869331582 0.19706731282388823 
	5.3419255318406655 0.17688739627880745 0.1696182098983737 
	5.3688407865363112 0.17594749487376948 0.12170319706475859 
	5.3791868597190993 0.1755862020370097 0.098079631847232715 
	5.3929552754953987 0.17510539836341932 0.048997424126589174 
	5.3963233812620031 0.17498778151831906 0.023523564874600403 
	5.3963233812620031 0.17498778151831951 -0.023523564874608226 
	5.3929552754953969 0.1751053983634191 -0.048997424126597078 
	5.3791868597190975 0.17558620203701014 -0.098079631847240431 
	5.3688407865363086 0.17594749487377126 -0.12170319706476578 
	5.3419255318406629 0.17688739627881001 -0.1696182098983807 
	5.3213222511861895 0.17760687869331881 -0.197067312823895 
	5.2742702896015974 0.17924996939794935 -0.24671434603221359 
	5.2478893690630279 0.18017121144305692 -0.26897652921621151 
	5.1885465724423669 0.18224350756484298 -0.31216877811999483 
	5.1489329331596574 0.18362684633096382 -0.33551378203237453 
	5.0661396212873848 0.18651805249031417 -0.37502076720814709 
	5.0229860498265921 0.18802500841204228 -0.39123749105501043 
	4.9352706427587618 0.19108809792313308 -0.41822275022215799 
	4.8819801026527143 0.19294904459026718 -0.43044654279789729 
	4.7741167676687457 0.1967157152478537 -0.44633082191386242 
	4.7195452513537424 0.19862139458990513 -0.45000000000000112 
	4.6217850999352876 0.20203525430306724 -0.45000000000000034 
	4.5692267756963219 0.20387063142868878 -0.44660577987923639 
	4.4654837496307893 0.20749341772829955 -0.43112540405826588 
	4.4143058315316654 0.20928059000930643 -0.41899376535822891 
	4.3326967290805563 0.21213044266442982 -0.39224917532117726 
	4.2940501906640955 0.21348000952412494 -0.37669737230667993 
	4.252374765000039 0.21493534745720977 -0.35519608415374843 
	4.2475351071940448 0.21510435203187184 -0.35262541337901454 
	4.2427355414585133 0.21527195656058273 -0.34999999991788205 
	0.001 
	torus 10.055376438541037 6.1160082838780676 4.2632564145606011e-14 2.4797583863645688e-16 7.1010989232369735e-15 -1 8 -0.45000000000000001 0.99939082701909576 -0.034899496702501046 0 0 I I I I 
	plane 7.7437687719156809 0.093013182136836403 -7.1054273576009529e-16 0.034899496702501046 0.99939082701909576 7.1054273576010019e-15 2.4797583863645688e-16 7.1010989232369735e-15 -1 1 I I I I 
	nullbs 
	nullbs 
	} I I #
point $-1 4.2427355414585133 0.21527195656058273 -0.34999999991788205 #
point $-1 4.2427355414585142 0.21527195656057785 0.34999999991788028 #
coedge $-1 $245 $134 $246 $247 1 $63 $-1 #
coedge $-1 $248 $249 $134 $182 1 $218 $-1 #
edge $-1 $184 $250 $181 $251 0 #
coedge $-1 $135 $145 $248 $252 0 $154 $-1 #
vertex $-1 $252 $253 #
straight-curve $-1 3.0499999999999998 0 -0.34999999999999998 0 -1 0 I I #
coedge $-1 $239 $137 $254 $255 1 $63 $-1 #
coedge $-1 $256 $257 $137 $188 1 $258 $-1 #
edge $-1 $196 $259 $187 $260 0 #
coedge $-1 $138 $261 $262 $263 0 $63 $-1 #
coedge $-1 $264 $265 $138 $191 0 $266 $-1 #
edge $-1 $195 $267 $138 $109 1 #
coedge $-1 $268 $139 $265 $269 0 $194 $-1 #
coedge $-1 $139 $268 $256 $270 0 $194 $-1 #
loop $-1 $-1 $192 $142 #
vertex $-1 $191 $271 #
vertex $-1 $188 $272 #
straight-curve $-1 3.4500000000000002 0.75 -0.34999999999999998 0 1 0 I I #
pid_name-sg-attrib $-1 $-1 $-1 $142 7 114 119 105 108 115 111 110 815244532 16 1 #
face $273 $274 $258 $3 $-1 $275 reversed single #
plane-surface $-1 3.4500000000000002 0.75 0 1 0 0 0 0 -1 0 I I I I #
coedge $-1 $249 $248 $144 $202 1 $218 $-1 #
edge $-1 $276 $203 $201 $277 0 #
vertex $-1 $146 $278 #
straight-curve $-1 3.0499999999999998 0 0.34999999999999998 0 1 0 I I #
coedge $-1 $279 $280 $147 $206 0 $281 $-1 #
edge $-1 $276 $214 $147 $282 0 #
coedge $-1 $148 $283 $163 $229 0 $67 $-1 #
coedge $-1 $165 $284 $148 $209 0 $234 $-1 #
edge $-1 $213 $235 $148 $107 1 #
coedge $-1 $285 $149 $284 $286 0 $212 $-1 #
coedge $-1 $149 $287 $279 $288 1 $212 $-1 #
loop $-1 $-1 $210 $289 #
vertex $-1 $150 $290 #
vertex $-1 $150 $291 #
straight-curve $-1 0 0.34999999999999998 0.34999999999999998 -1 0 0 I I #
pid_name-sg-attrib $-1 $-1 $-1 $152 7 114 119 105 108 115 111 110 815244532 25 1 #
face $292 $-1 $154 $3 $-1 $293 reversed single #
loop $-1 $-1 $249 $152 #
plane-surface $-1 0 -0.34999999999999998 0 0 1 0 0 0 1 0 I I I I #
pid_name-sg-attrib $-1 $-1 $-1 $159 7 114 119 105 108 115 111 110 815244532 9 1 #
face $294 $295 $296 $3 $-1 $297 reversed single #
loop $-1 $-1 $298 $159 #
plane-surface $-1 0.026409459879689245 1.1629969431964953 4.973799150320701e-15 -0.034899496702501046 -0.99939082701909576 -7.1054273576010019e-15 2.4797583863645688e-16 7.1010989232369735e-15 -1 0 I I I I #
coedge $-1 $299 $299 $162 $227 1 $160 $-1 #
coedge $-1 $300 $162 $228 $301 0 $114 $-1 #
coedge $-1 $162 $302 $230 $303 0 $114 $-1 #
edge $-1 $304 $305 $224 $306 0 #
coedge $-1 $307 $163 $225 $301 1 $78 $-1 #
edge $-1 $308 $235 $163 $309 0 #
coedge $-1 $164 $307 $226 $303 1 $78 $-1 #
coedge $-1 $310 $311 $164 $232 0 $63 $-1 #
edge $-1 $236 $312 $164 $313 0 #
coedge $-1 $284 $165 $311 $314 0 $234 $-1 #
loop $-1 $-1 $165 $315 #
vertex $-1 $209 $316 #
vertex $-1 $314 $317 #
straight-curve $-1 2.7503045864904521 0.36744974835125049 0 0 0 -1 I I #
coedge $-1 $318 $167 $319 $320 0 $67 $-1 #
coedge $-1 $169 $186 $321 $322 0 $63 $-1 #
coedge $-1 $321 $319 $171 $241 0 $323 $-1 #
edge $-1 $243 $242 $171 $324 1 #
vertex $-1 $172 $325 #
vertex $-1 $173 $326 #
pid_name-sg-attrib $-1 $-1 $-1 $174 7 114 119 105 108 115 111 110 815244532 13 1 #
coedge $-1 $311 $180 $285 $327 0 $63 $-1 #
coedge $-1 $280 $328 $180 $247 0 $281 $-1 #
edge $-1 $329 $250 $180 $330 0 #
coedge $-1 $201 $181 $183 $252 1 $218 $-1 #
coedge $-1 $181 $201 $280 $331 1 $218 $-1 #
vertex $-1 $182 $332 #
straight-curve $-1 0 -0.34999999999999998 -0.34999999999999998 -1 0 0 I I #
edge $-1 $203 $184 $183 $333 0 #
point $-1 3.0499999999999998 -0.34999999999999998 -0.34999999999999998 #
coedge $-1 $334 $335 $186 $255 0 $336 $-1 #
edge $-1 $337 $259 $254 $338 0 #
coedge $-1 $339 $187 $193 $270 1 $258 $-1 #
coedge $-1 $187 $339 $334 $340 1 $258 $-1 #
loop $-1 $-1 $257 $199 #
vertex $-1 $255 $341 #
straight-curve $-1 4.25 1.0499999999999998 -0.34999999999999998 1 0 0 I I #
coedge $-1 $189 $310 $342 $343 0 $63 $-1 #
coedge $-1 $344 $345 $189 $263 1 $296 $-1 #
edge $-1 $346 $267 $262 $347 0 #
coedge $-1 $348 $190 $345 $349 0 $266 $-1 #
coedge $-1 $190 $348 $192 $269 1 $266 $-1 #
loop $-1 $-1 $264 $295 #
vertex $-1 $191 $350 #
coedge $-1 $193 $192 $351 $352 1 $194 $-1 #
edge $-1 $195 $353 $265 $354 1 #
edge $-1 $355 $196 $256 $356 0 #
point $-1 3.4500000000000002 0.80825756949558392 -0.34999999999999998 #
point $-1 3.4500000000000002 1.0499999999999998 -0.34999999999999998 #
pid_name-sg-attrib $-1 $-1 $-1 $199 7 114 119 105 108 115 111 110 815244532 17 1 #
face $357 $358 $359 $3 $-1 $360 forward single #
plane-surface $-1 4.25 1.0499999999999998 0 0 -1 0 0 0 -1 0 I I I I #
vertex $-1 $206 $361 #
straight-curve $-1 0 -0.34999999999999998 0.34999999999999998 1 0 0 I I #
point $-1 3.0499999999999998 -0.34999999999999998 0.34999999999999998 #
coedge $-1 $362 $205 $211 $288 0 $281 $-1 #
coedge $-1 $205 $246 $249 $331 0 $281 $-1 #
loop $-1 $-1 $362 $363 #
intcurve-curve $-1 0 { exactcur nurbs 2 open 2 
	0.03677297726939005 2 2.9060296901597553 2 
	2.9555555555555602 -0.34999999999999998 0.34999999999999998 1.0086734693877546 
	0.23333333333345807 0.087499999999991029 0.34999999999999998 1.3448979591836261 
	0.23333333333345668 0.34999999999999998 0.34999999999999998 1.3448979591836261 
	0 
	null_surface 
	null_surface 
	nullbs 
	nullbs 
	} I I #
coedge $-1 $207 $364 $300 $365 1 $67 $-1 #
coedge $-1 $208 $233 $210 $286 1 $234 $-1 #
coedge $-1 $366 $210 $245 $327 1 $212 $-1 #
edge $-1 $213 $367 $210 $368 0 #
coedge $-1 $211 $366 $369 $370 1 $212 $-1 #
edge $-1 $214 $371 $211 $372 0 #
face $373 $363 $212 $3 $-1 $374 reversed single #
point $-1 2.75 0.34999999999999998 0.34999999999999998 #
point $-1 0.23333333333345668 0.34999999999999998 0.34999999999999998 #
pid_name-sg-attrib $-1 $-1 $-1 $217 7 114 119 105 108 115 111 110 815244532 26 1 #
plane-surface $-1 3.0499999999999998 0 0 -1 0 0 0 0 1 0 I I I I #
pid_name-sg-attrib $-1 $-1 $-1 $221 7 114 119 105 108 115 111 110 815244532 10 1 #
face $375 $315 $266 $3 $-1 $111 forward single #
loop $-1 $-1 $345 $221 #
plane-surface $-1 3.0623366584420557 0.70676668879718374 2.4868995751603505e-15 -0.99939082701909576 0.034899496702501046 0 2.4797583863645688e-16 7.1010989232369735e-15 -1 0 I I I I #
coedge $-1 $376 $342 $377 $378 1 $222 $-1 #
coedge $-1 $224 $224 $307 $379 0 $160 $-1 #
coedge $-1 $377 $225 $283 $365 0 $114 $-1 #
edge $-1 $305 $308 $228 $380 0 #
coedge $-1 $226 $377 $310 $381 0 $114 $-1 #
edge $-1 $312 $304 $230 $382 0 #
vertex $-1 $227 $383 #
vertex $-1 $379 $384 #
ellipse-curve $-1 -3.0461622102203032 0.56986682922575649 2.2382096176443155e-14 0.99939082701909576 -0.034899496702501046 0 -0.0035896625179715367 -0.10279448506482129 -7.3084395678181742e-16 0.66666666666666663 I I #
coedge $-1 $230 $228 $299 $379 1 $78 $-1 #
vertex $-1 $301 $385 #
straight-curve $-1 0.0019798121879384262 0.46342336428312586 0.34999999999999998 0.99939082701909576 -0.034899496702501046 0 I I #
coedge $-1 $261 $231 $302 $381 1 $63 $-1 #
coedge $-1 $231 $245 $233 $314 1 $63 $-1 #
vertex $-1 $232 $386 #
straight-curve $-1 0.0019798121879385996 0.46342336428313086 -0.34999999999999998 -0.99939082701909576 0.034899496702501046 0 I I #
edge $-1 $236 $367 $311 $109 1 #
face $387 $174 $234 $3 $-1 $111 forward single #
point $-1 2.7503045864904521 0.367449748351248 0.34999999999999998 #
point $-1 2.7503045864904521 0.36744974835125299 -0.34999999999999998 #
coedge $-1 $388 $238 $389 $390 1 $67 $-1 #
coedge $-1 $240 $391 $238 $320 1 $323 $-1 #
edge $-1 $243 $392 $319 $393 0 #
coedge $-1 $391 $240 $239 $322 1 $323 $-1 #
edge $-1 $337 $242 $321 $394 0 #
loop $-1 $-1 $240 $358 #
straight-curve $-1 3.7398979485566359 0.44999999999999929 0 0 0 1 I I #
point $-1 3.7398979485566355 0.45000000000000018 -0.34999999999999998 #
point $-1 3.7398979485566355 0.45000000000000018 0.34999999999999998 #
edge $-1 $329 $367 $285 $395 0 #
coedge $-1 $246 $362 $366 $396 0 $281 $-1 #
vertex $-1 $396 $397 #
intcurve-curve $-1 0 { exactcur nurbs 2 open 2 
	2.9060296901599938 2 5.7752864030506021 2 
	0.23333333333320966 0.34999999999999998 -0.34999999999999998 1.3448979591837182 
	0.23333333333321057 0.087500000000008099 -0.35000000000000003 1.3448979591837182 
	2.9555555555555486 -0.34999999999999998 -0.34999999999999998 1.0086734693877553 
	0 
	null_surface 
	null_surface 
	nullbs 
	nullbs 
	} I I #
edge $-1 $250 $276 $249 $398 0 #
point $-1 2.9555555555555486 -0.34999999999999998 -0.34999999999999998 #
straight-curve $-1 3.0499999999999998 -0.34999999999999998 0 0 0 -1 I I #
coedge $-1 $389 $254 $257 $340 0 $336 $-1 #
coedge $-1 $254 $389 $391 $399 1 $336 $-1 #
loop $-1 $-1 $389 $274 #
vertex $-1 $399 $400 #
ellipse-curve $-1 9.8499999999999996 -5.6500000000000004 -0.34999999999999998 0 0 -1 8.2828427124746185 0 0 1 I I #
coedge $-1 $257 $256 $388 $401 1 $258 $-1 #
edge $-1 $259 $402 $334 $403 0 #
point $-1 4.9801454436919892 1.0499999999999998 -0.34999999999999998 #
coedge $-1 $298 $404 $261 $343 1 $222 $-1 #
edge $-1 $405 $346 $342 $406 0 #
coedge $-1 $407 $262 $404 $408 0 $296 $-1 #
coedge $-1 $262 $407 $264 $349 1 $296 $-1 #
vertex $-1 $263 $409 #
straight-curve $-1 3.0623366584420557 0.70676668879718618 -0.34999999999999748 -0.034899496702501046 -0.99939082701909576 -7.1054273576010019e-15 I I #
coedge $-1 $265 $264 $410 $411 0 $266 $-1 #
edge $-1 $267 $412 $264 $413 0 #
point $-1 3.0661147931316877 0.81495831070645508 -0.3499999999999967 #
coedge $-1 $410 $388 $268 $352 0 $67 $-1 #
edge $-1 $355 $353 $268 $414 0 #
vertex $-1 $411 $415 #
straight-curve $-1 3.4500000000000002 0.80825756949558392 0 0 0 -1 I I #
vertex $-1 $401 $416 #
straight-curve $-1 3.4500000000000002 1.0499999999999998 0 0 0 -1 I I #
pid_name-sg-attrib $-1 $-1 $-1 $274 7 114 119 105 108 115 111 110 815244532 18 1 #
face $417 $418 $323 $3 $-1 $419 reversed single #
loop $-1 $336 $420 $274 #
torus-surface $-1 9.8499999999999996 -5.6500000000000004 0 0 0 1 8 0.45000000000000001 1 0 0 0 I I I I #
point $-1 2.9555555555555602 -0.34999999999999998 0.34999999999999998 #
coedge $-1 $328 $279 $421 $422 0 $281 $-1 #
face $423 $424 $281 $3 $-1 $425 forward single #
coedge $-1 $283 $426 $376 $427 0 $67 $-1 #
edge $-1 $308 $428 $283 $429 0 #
coedge $-1 $287 $285 $328 $396 1 $212 $-1 #
vertex $-1 $327 $430 #
straight-curve $-1 2.75 0.34999999999999998 0 0 0 -1 I I #
coedge $-1 $421 $421 $287 $370 0 $431 $-1 #
edge $-1 $371 $432 $287 $433 0 #
vertex $-1 $422 $434 #
straight-curve $-1 -0.35000000000000114 0.34999999999999998 0.29999999999998722 -0.99634664904175063 0 -0.085401141346439322 I I #
pid_name-sg-attrib $-1 $-1 $-1 $289 7 114 119 105 108 115 111 110 815244532 21 1 #
plane-surface $-1 0 0.34999999999999998 0 0 -1 0 0 0 -1 0 I I I I #
pid_name-sg-attrib $-1 $-1 $-1 $295 7 114 119 105 108 115 111 110 815244532 11 1 #
coedge $-1 $404 $298 $364 $427 1 $222 $-1 #
coedge $-1 $302 $300 $298 $378 0 $114 $-1 #
edge $-1 $428 $405 $298 $435 0 #
edge $-1 $304 $305 $307 $436 0 #
straight-curve $-1 -0.3478069772687441 0.4756381881290016 0.30000000000001276 0.99573970158354053 -0.034771996592781164 0.085401141346432244 I I #
edge $-1 $405 $312 $310 $437 0 #
straight-curve $-1 -0.3478069772687461 0.47563818812900588 -0.29999999999998722 -0.99573970158353997 0.034771996592779936 0.085401141346439322 I I #
point $-1 -3.0461622102203032 0.56986682922575704 -0.068571428571406245 #
point $-1 -3.0461622102203032 0.56986682922575604 0.068571428571450932 #
point $-1 0.23517100515893719 0.45528014838587993 0.34999999999999998 #
point $-1 0.23517100515918424 0.45528014838587633 -0.34999999999999998 #
pid_name-sg-attrib $-1 $-1 $-1 $315 7 114 119 105 108 115 111 110 815244532 12 1 #
coedge $-1 $351 $318 $339 $401 0 $67 $-1 #
coedge $-1 $335 $334 $318 $390 0 $336 $-1 #
edge $-1 $402 $392 $389 $438 0 #
coedge $-1 $319 $321 $335 $399 0 $323 $-1 #
vertex $-1 $399 $439 #
straight-curve $-1 4.25 0.45000000000000018 0.34999999999999998 1 0 0 I I #
straight-curve $-1 4.25 0.45000000000000018 -0.34999999999999998 -1 0 0 I I #
straight-curve $-1 0 0.34999999999999998 -0.34999999999999998 1 0 0 I I #
edge $-1 $432 $329 $366 $440 0 #
point $-1 0.23333333333320966 0.34999999999999998 -0.34999999999999998 #
intcurve-curve $-1 0 { exactcur nurbs 2 open 2 
	0.043905742333352475 2 2.956528861273688 2 
	2.9555555555555486 -0.34999999999999998 -0.34999999999999998 1.0077097505668942 
	0.50555555555657705 -0.34999999999999998 -1.5566020694635085e-13 1.2596371882084807 
	2.9555555555555602 -0.34999999999999998 0.34999999999999998 1.0077097505671568 
	0 
	null_surface 
	null_surface 
	nullbs 
	nullbs 
	} I I #
edge $-1 $337 $392 $335 $441 0 #
point $-1 4.2468327346972226 0.44999999999999929 -0.349999999917881 #
edge $-1 $402 $355 $339 $442 0 #
vertex $-1 $390 $443 #
intcurve-curve $-1 0 { surfintcur nubs 3 open 11 
	-0.44614101281097973 3 -0.32217069999339598 2 -0.23087853503322187 2 -0.13958637007304731 2 -0.069793185036523653 2 
	0 3 0.069793185036520503 2 0.13958637007304101 2 0.23087853503321448 2 0.32217069999338799 2 
	0.44614101281163387 3 
	4.9801454436919892 1.0499999999999998 -0.34999999999999998 
	4.9393771320555775 1.0499999999999998 -0.33062970425338878 
	4.9004906293248887 1.0499999999999998 -0.30769003071743334 
	4.8427296112013174 1.0499999999999998 -0.26511863003187103 
	4.8173854250897836 1.0499999999999998 -0.24333954093461155 
	4.7724267335493078 1.0499999999999998 -0.19474519423926986 
	4.7528769704947429 1.0499999999999998 -0.16787007805720175 
	4.7271964998444833 1.0499999999999998 -0.1207141772503052 
	4.7172858693144351 1.0500000000000007 -0.097214196356107813 
	4.7041529015383921 1.0500000000000007 -0.048494746058918195 
	4.7009709653178309 1.0499999999999998 -0.023264395012174557 
	4.7009709653178309 1.0499999999999998 0 
	4.7009709653178309 1.0499999999999998 0.023264395012173502 
	4.7041529015383894 1.0500000000000007 0.048494746058916446 
	4.7172858693144324 1.0500000000000007 0.09721419635610401 
	4.7271964998444815 1.0499999999999998 0.12071417725029995 
	4.7528769704947402 1.0499999999999989 0.16787007805719581 
	4.7724267335493042 1.0499999999999998 0.19474519423926462 
	4.8173854250897783 1.0499999999999998 0.24333954093460627 
	4.8427296112013121 1.0499999999999989 0.26511863003186581 
	4.9004906293250592 1.0499999999999998 0.30769003071755974 
	4.939377132055359 1.0499999999999998 0.33062970425328481 
	4.9801454436919892 1.0499999999999998 0.34999999999999998 
	0.001 
	torus 9.8499999999999996 -5.6500000000000004 0 0 0 1 8 -0.45000000000000001 1 0 0 0 I I I I 
	plane 4.25 1.0499999999999998 0 0 1 0 0 0 -1 1 I I I I 
	nullbs 
	nullbs 
	} I I #
coedge $-1 $342 $376 $344 $408 1 $222 $-1 #
vertex $-1 $381 $444 #
straight-curve $-1 0.026409459879689332 1.1629969431964979 -0.34999999999999498 0.99939082701909576 -0.034899496702501046 0 I I #
coedge $-1 $345 $344 $426 $445 1 $296 $-1 #
edge $-1 $346 $446 $344 $447 0 #
point $-1 3.074551482287931 1.0565534782538697 -0.34999999999999498 #
coedge $-1 $426 $351 $348 $411 1 $67 $-1 #
edge $-1 $412 $353 $410 $107 1 #
vertex $-1 $411 $448 #
straight-curve $-1 3.0661147931316877 0.81495831070645242 0 0 0 1 I I #
straight-curve $-1 3.4500000000000002 0.75 0.34999999999999998 0 -1 0 I I #
point $-1 3.4500000000000002 0.80825756949558392 0.34999999999999998 #
point $-1 3.4500000000000002 1.0499999999999998 0.34999999999999998 #
pid_name-sg-attrib $-1 $-1 $-1 $358 7 114 119 105 108 115 111 110 815244532 19 1 #
face $449 $289 $450 $3 $-1 $451 reversed single #
plane-surface $-1 7.75 0.44999999999999929 0 0 1 0 0 0 1 0 I I I I #
coedge $-1 $420 $420 $452 $453 1 $359 $-1 #
coedge $-1 $369 $369 $362 $422 1 $431 $-1 #
edge $-1 $371 $432 $421 $454 0 #
pid_name-sg-attrib $-1 $-1 $-1 $363 7 114 119 105 108 115 111 110 815244532 22 1 #
face $455 $102 $431 $3 $-1 $456 reversed single #
cone-surface $-1 -0.35000000000000009 0.34999999999999998 -1.2789769243681804e-14 -1 0 -3.5527136788005009e-15 0 0.45000000000000001 0 0.66666666666666663 I I -0.12752174253952619 0.99183577530742595 0 I I I I #
coedge $-1 $364 $410 $407 $445 0 $67 $-1 #
edge $-1 $446 $428 $376 $457 0 #
vertex $-1 $427 $458 #
intcurve-curve $-1 0 { exactcur nurbs 2 open 2 
	2.9060296901599938 2 5.7752864030506021 2 
	0.23517100515893719 0.45528014838587993 0.34999999999999998 1.3448979591837182 
	0.24433212304334434 0.71762024047838446 0.35000000000000192 1.3448979591837182 
	2.980164570847232 1.0598495418313234 0.35000000000000497 1.0086734693877553 
	0 
	null_surface 
	null_surface 
	nullbs 
	nullbs 
	} I I #
point $-1 2.75 0.34999999999999998 -0.34999999999999998 #
loop $-1 $-1 $421 $424 #
vertex $-1 $370 $459 #
straight-curve $-1 -3.0499999999999998 0.34999999999999998 0 0 0 -1 I I #
point $-1 -3.0499999999999998 0.34999999999999998 0.068571428571406245 #
intcurve-curve $-1 0 { exactcur nurbs 2 open 2 
	0.043905742333352475 2 2.956528861273688 2 
	2.980164570847232 1.0598495418313234 0.35000000000000497 1.0077097505668942 
	0.53165704465147523 1.1453533087524175 1.6063400609667158e-13 1.2596371882084807 
	2.9801645708472435 1.0598495418313281 -0.34999999999999498 1.0077097505671568 
	0 
	null_surface 
	null_surface 
	nullbs 
	nullbs 
	} I I #
straight-curve $-1 -3.0461622102203032 0.56986682922575649 0 -2.4797583863645688e-16 -7.1010989232369735e-15 1 I I #
intcurve-curve $-1 0 { exactcur nurbs 2 open 2 
	0.03677297726939005 2 2.9060296901597553 2 
	2.9801645708472435 1.0598495418313281 -0.34999999999999498 1.0086734693877546 
	0.24433212304359245 0.71762024047839779 -0.34999999999999809 1.3448979591836261 
	0.23517100515918424 0.45528014838587633 -0.34999999999999998 1.3448979591836261 
	0 
	null_surface 
	null_surface 
	nullbs 
	nullbs 
	} I I #
ellipse-curve $-1 9.8499999999999996 -5.6500000000000004 0.34999999999999998 0 0 1 8.2828427124746185 0 0 1 I I #
point $-1 4.2468327346972217 0.44999999999999929 0.34999999991788133 #
straight-curve $-1 -0.34999999999999903 0.34999999999999998 -0.30000000000001276 0.99634664904175119 0 -0.085401141346432244 I I #
intcurve-curve $-1 0 { surfintcur nubs 3 open 25 
	0.42352118925744758 3 0.438585990353689 2 0.55242400931522972 2 0.69636683377215403 2 0.84030965822907833 2 
	0.98982605545636726 2 1.1393424526836562 2 1.2652969510165266 2 1.391251449349397 2 1.4855760707398773 2 
	1.5799006921303576 2 1.6504713867541705 2 1.7210420813779834 2 1.7916127760017964 2 1.8621834706256091 2 
	1.9565080920160907 2 2.0508327134065722 2 2.1767872117394429 2 2.3027417100723131 2 2.4522581072996035 2 
	2.6017745045268938 2 2.7457173289838166 2 2.8896601534407393 2 3.0034981724022791 2 3.0185629734985144 3 
	4.2468327346972226 0.44999999999999929 -0.349999999917881 
	4.2516352259806878 0.44999999999999929 -0.35262541337901482 
	4.2564778337725073 0.44999999999999929 -0.35519608415374954 
	4.2981786624546823 0.44999999999999929 -0.37669737230668188 
	4.336848757648303 0.44999999999999929 -0.39224917532117959 
	4.418507604462544 0.44999999999999929 -0.41899376535823052 
	4.469716717769872 0.44999999999999929 -0.4311254040582666 
	4.5735229798054862 0.44999999999999929 -0.44660577987923639 
	4.6261133406713473 0.44999999999999929 -0.45000000000000007 
	4.7239330812327518 0.44999999999999929 -0.4499999999999999 
	4.7785378613044021 0.44999999999999929 -0.44633082191386075 
	4.8864669437692605 0.44999999999999929 -0.43044654279789496 
	4.9397899668202099 0.44999999999999929 -0.41822275022215444 
	5.0275588403143372 0.44999999999999929 -0.39123749105500644 
	5.0707387157885888 0.44999999999999929 -0.37502076720814148 
	5.1535824938520927 0.44999999999999929 -0.33551378203236804 
	5.193220279402782 0.44999999999999929 -0.31216877811998955 
	5.2525992480867991 0.44999999999999929 -0.26897652921620585 
	5.2789962489650772 0.44999999999999929 -0.24671434603220752 
	5.3260768908046021 0.44999999999999929 -0.19706731282388892 
	5.3466927300713332 0.44999999999999929 -0.16961820989837439 
	5.3736243908070307 0.44999999999999929 -0.12170319706475929 
	5.3839767703797419 0.4499999999999984 -0.098079631847233423 
	5.3977535786153821 0.4499999999999984 -0.048997424126589889 
	5.4011237373916536 0.44999999999999929 -0.023523564874601114 
	5.4011237373916536 0.44999999999999929 0.023523564874607515 
	5.3977535786153803 0.44999999999999929 0.048997424126596363 
	5.3839767703797401 0.44999999999999929 0.098079631847239723 
	5.373624390807028 0.44999999999999929 0.12170319706476507 
	5.3466927300713305 0.44999999999999929 0.16961820989838 
	5.3260768908045977 0.44999999999999929 0.19706731282389431 
	5.2789962489650728 0.44999999999999929 0.2467143460322129 
	5.252599248086792 0.44999999999999929 0.26897652921621079 
	5.1932202794027749 0.44999999999999929 0.31216877811999411 
	5.1535824938520847 0.44999999999999929 0.33551378203237381 
	5.0707387157885799 0.44999999999999929 0.37502076720814637 
	5.0275588403143292 0.44999999999999929 0.39123749105500971 
	4.9397899668202019 0.44999999999999929 0.41822275022215727 
	4.8864669437692516 0.44999999999999929 0.43044654279789657 
	4.7785378613043914 0.44999999999999929 0.4463308219138617 
	4.7239330812327402 0.44999999999999929 0.4500000000000004 
	4.6261133406713366 0.44999999999999929 0.44999999999999962 
	4.5735229798054755 0.44999999999999929 0.44660577987923566 
	4.4697167177698622 0.44999999999999929 0.43112540405826516 
	4.4185076044625351 0.44999999999999929 0.41899376535822819 
	4.336848757648295 0.44999999999999929 0.39224917532117654 
	4.2981786624546734 0.44999999999999929 0.37669737230667921 
	4.256477833772502 0.44999999999999929 0.3551960841537477 
	4.2516352259806842 0.44999999999999929 0.35262541337901382 
	4.2468327346972217 0.44999999999999929 0.34999999991788133 
	0.001 
	torus 9.8499999999999996 -5.6500000000000004 0 0 0 1 8 -0.45000000000000001 1 0 0 0 I I I I 
	plane 7.75 0.44999999999999929 0 0 -1 0 0 0 1 1 I I I I 
	nullbs 
	nullbs 
	} I I #
straight-curve $-1 4.25 1.0499999999999998 0.34999999999999998 -1 0 0 I I #
point $-1 4.9801454436919892 1.0499999999999998 0.34999999999999998 #
point $-1 2.9801645708472435 1.0598495418313281 -0.34999999999999498 #
edge $-1 $412 $446 $407 $460 0 #
vertex $-1 $408 $461 #
straight-curve $-1 3.074551482287931 1.0565534782538673 4.973799150320701e-15 -2.4797583863645688e-16 -7.1010989232369735e-15 1 I I #
point $-1 3.0661147931316877 0.81495831070645008 0.35000000000000325 #
pid_name-sg-attrib $-1 $-1 $-1 $418 7 114 119 105 108 115 111 110 815244532 20 1 #
loop $-1 $-1 $452 $418 #
plane-surface $-1 12.25 4.9499999999999993 0 -1 0 0 0 0 1 0 I I I I #
coedge $-1 $452 $452 $420 $453 0 $450 $-1 #
edge $-1 $462 $462 $420 $463 0 #
ellipse-curve $-1 -3.0499999999999998 0.34999999999999998 -2.2382096176443155e-14 1 0 0 0 0.10285714285714287 0 0.66666666666666663 I I #
pid_name-sg-attrib $-1 $-1 $-1 $424 7 114 119 105 108 115 111 110 815244532 23 1 #
plane-surface $-1 -3.0499999999999998 0 0 1 0 0 0 0 -1 0 I I I I #
straight-curve $-1 0.026409459879689158 1.1629969431964928 0.35000000000000497 -0.99939082701909576 0.034899496702501046 0 I I #
point $-1 2.980164570847232 1.0598495418313234 0.35000000000000497 #
point $-1 -3.0499999999999998 0.34999999999999998 -0.068571428571450932 #
straight-curve $-1 3.0623366584420557 0.70676668879718119 0.35000000000000248 0.034899496702501046 0.99939082701909576 7.1054273576010019e-15 I I #
point $-1 3.074551482287931 1.0565534782538646 0.35000000000000497 #
vertex $-1 $453 $464 #
intcurve-curve $-1 0 { surfintcur nubs 3 periodic 33 
	0 3 0.082146562520990549 2 0.1642931250419811 2 0.24823564756822275 2 0.33217817009446443 2 
	0.41847135746948305 2 0.50476454484450173 2 0.59329198422580776 2 0.68181942360711378 2 0.77058334281261676 2 
	0.85934726201811984 2 0.9461833983081247 2 1.0330195345981297 2 1.1172312733968277 2 1.201443012195526 2 
	1.2833839403975122 2 1.3653248685994985 2 1.447265796801485 2 1.5292067250034713 2 1.6134184638021691 2 
	1.6976302026008669 2 1.7844663388908717 2 1.8713024751808764 2 1.9600663943863792 2 2.0488303135918819 2 
	2.1373577529731875 2 2.2258851923544936 2 2.3121783797295135 2 2.3984715671045334 2 2.4824140896307743 2 
	2.5663566121570152 2 2.6485031746780092 2 2.7306497371990033 3 
	12.25 2.4520059244609289 0 
	12.25 2.4520059244609289 0.02738218750699685 
	12.25 2.4492254026253875 0.057273903743120663 
	12.25 2.4372748286889312 0.11575667575715209 
	12.25 2.4281074167649557 0.14434827100699815 
	12.25 2.4064792357767431 0.19531185305459292 
	12.25 2.3919220898036855 0.22231319491020549 
	12.25 2.3573697482282832 0.27259381395653359 
	12.25 2.3373801496296638 0.29587693712326546 
	12.25 2.296738190908556 0.33547811225649027 
	12.25 2.2722338530214703 0.35533194887713598 
	12.25 2.2196058945875743 0.38948705076172391 
	12.25 2.1914863090598811 0.40379453299102752 
	12.25 2.1374485397395944 0.42560565890180474 
	12.25 2.1064798663208792 0.43499171993503488 
	12.25 2.0432665934925032 0.447186911312832 
	12.25 2.011022757796006 0.44999999999999962 
	12.25 1.9519256382670687 0.4500000000000004 
	12.25 1.9195971872641708 0.44717180803546458 
	12.25 1.8562102995783745 0.43495005497956779 
	12.25 1.8251522712275108 0.42555437621050496 
	12.25 1.7708463459625392 0.40371359422393627 
	12.25 1.7425255317867672 0.38936218905530739 
	12.25 1.6894880021549001 0.3551049288610148 
	12.25 1.6647755012010652 0.33519254932917508 
	12.25 1.6238249021142472 0.29552054481124312 
	12.25 1.6036921491884977 0.27222914080770394 
	12.25 1.5688624393185462 0.22190354728418507 
	12.25 1.5541728699015183 0.19486424535058161 
	12.25 1.5324093936396519 0.14393524394183063 
	12.25 1.5231986465757954 0.11543662708892979 
	12.25 1.5111853518237419 0.057126226714691197 
	12.25 1.5083866897506999 0.027313642733998635 
	12.25 1.5083866897506999 -0.027313642733992314 
	12.25 1.5111853518237419 -0.057126226714684987 
	12.25 1.5231986465757936 -0.11543662708892403 
	12.25 1.5324093936396501 -0.14393524394182489 
	12.25 1.5541728699015156 -0.19486424535057603 
	12.25 1.5688624393185426 -0.2219035472841796 
	12.25 1.6036921491884923 -0.27222914080769839 
	12.25 1.6238249021142428 -0.29552054481123824 
	12.25 1.6647755012010599 -0.33519254932917064 
	12.25 1.6894880021548957 -0.35510492886101053 
	12.25 1.742525531786761 -0.38936218905530406 
	12.25 1.7708463459625321 -0.4037135942239331 
	12.25 1.8251522712275037 -0.42555437621050263 
	12.25 1.8562102995783674 -0.4349500549795664 
	12.25 1.9195971872641637 -0.44717180803546386 
	12.25 1.9519256382670616 -0.44999999999999979 
	12.25 2.011022757795998 -0.45000000000000029 
	12.25 2.0432665934924961 -0.44718691131283295 
	12.25 2.1064798663208721 -0.43499171993503682 
	12.25 2.1374485397395873 -0.42560565890180679 
	12.25 2.1914863090598731 -0.40379453299103052 
	12.25 2.2196058945875672 -0.38948705076172824 
	12.25 2.2722338530214641 -0.3553319488771412 
	12.25 2.2967381909085507 -0.33547811225649499 
	12.25 2.3373801496296611 -0.29587693712327073 
	12.25 2.3573697482282814 -0.27259381395653687 
	12.25 2.3919220898036837 -0.22231319491020946 
	12.25 2.4064792357767413 -0.19531185305459928 
	12.25 2.4281074167649539 -0.14434827100700398 
	12.25 2.4372748286889294 -0.11575667575715728 
	12.25 2.4492254026253892 -0.057273903743123383 
	12.25 2.4520059244609289 -0.02738218750699805 
	12.25 2.4520059244609289 0 
	0.001 
	torus 9.8499999999999996 -5.6500000000000004 0 0 0 1 8 -0.45000000000000001 1 0 0 0 I I I I 
	plane 12.25 4.9499999999999993 0 1 0 0 0 0 1 1 I I I I 
	nullbs 
	nullbs 
	} I I #
point $-1 12.25 2.4520059244609271 0 #
End-of-ACIS-data 