201 0 1 0           
7 Unknown 16 ACIS 2.1 Solaris 24 Wed Jan  7 16:00:45 1998 
-1 9.999999999999999547e-07 1.000000000000000036e-10 
body $-1 $1 $-1 $2 #
lump $-1 $-1 $3 $0 #
transform $-1 1 0 0 0 1 0 0 0 1 123.0005999999999631 123.0005999999999773 379.0017999999998892 1 no_rotate no_reflect no_shear #
shell $-1 $-1 $-1 $4 $-1 $1 #
face $-1 $5 $6 $3 $-1 $7 reversed single #
face $-1 $8 $9 $3 $-1 $10 forward single #
loop $-1 $-1 $11 $4 #
plane-surface $-1 1.421085471520200372e-14 0 379.0018000000000029 0 0 1 1 0 0 forward_v I I I I #
face $-1 $12 $13 $3 $-1 $14 forward single #
loop $-1 $-1 $15 $5 #
plane-surface $-1 123.0005999999999915 0 256.0012000000000398 -1 0 0 0 0 1 forward_v I I I I #
coedge $-1 $16 $17 $18 $19 1 $6 $-1 #
face $-1 $20 $21 $3 $-1 $22 forward single #
loop $-1 $-1 $23 $8 #
plane-surface $-1 1.421085471520200372e-14 0 133.0006000000000768 0 0 1 1 0 0 forward_v I I I I #
coedge $-1 $24 $25 $26 $27 1 $9 $-1 #
coedge $-1 $28 $11 $29 $30 1 $6 $-1 #
coedge $-1 $11 $28 $24 $31 1 $6 $-1 #
coedge $-1 $26 $32 $11 $19 0 $33 $-1 #
edge $-1 $34 $35 $18 $36 forward #
face $-1 $37 $38 $3 $-1 $39 reversed single #
loop $-1 $-1 $40 $12 #
plane-surface $-1 -123.0005999999999631 0 256.0012000000000398 1 0 0 0 0 -1 forward_v I I I I #
coedge $-1 $41 $42 $43 $44 1 $13 $-1 #
coedge $-1 $45 $15 $17 $31 0 $9 $-1 #
coedge $-1 $15 $45 $41 $46 0 $9 $-1 #
coedge $-1 $43 $18 $15 $27 0 $33 $-1 #
edge $-1 $35 $47 $26 $48 forward #
coedge $-1 $17 $16 $49 $50 1 $6 $-1 #
coedge $-1 $40 $51 $16 $30 0 $21 $-1 #
edge $-1 $52 $34 $29 $53 forward #
edge $-1 $35 $54 $24 $55 forward #
coedge $-1 $18 $43 $40 $56 0 $33 $-1 #
loop $-1 $57 $43 $58 #
vertex $-1 $19 $59 #
vertex $-1 $19 $60 #
straight-curve $-1 7.105427357601001859e-15 -123.0005999999999773 379.0018000000000029 1 -0 0 I I #
face $-1 $61 $62 $3 $-1 $63 forward single #
loop $-1 $-1 $64 $20 #
plane-surface $-1 1.421085471520200372e-14 0 123.0006000000000341 0 0 1 1 0 0 forward_v I I I I #
coedge $-1 $65 $29 $32 $56 1 $21 $-1 #
coedge $-1 $66 $23 $25 $46 1 $13 $-1 #
coedge $-1 $23 $66 $65 $67 1 $13 $-1 #
coedge $-1 $32 $26 $23 $44 0 $33 $-1 #
edge $-1 $47 $68 $43 $69 forward #
coedge $-1 $25 $24 $70 $71 1 $9 $-1 #
edge $-1 $72 $47 $25 $73 forward #
vertex $-1 $44 $74 #
straight-curve $-1 123.0005999999999915 -123.0005999999999773 128.0006000000000199 -0 0 -1 I I #
coedge $-1 $75 $70 $28 $50 0 $76 $-1 #
edge $-1 $54 $52 $49 $77 forward #
coedge $-1 $29 $65 $75 $78 1 $21 $-1 #
vertex $-1 $50 $79 #
straight-curve $-1 -123.0005999999999631 0 379.0018000000000029 0 -1 0 I I #
vertex $-1 $50 $80 #
straight-curve $-1 123.0005999999999915 0 379.0018000000000029 0 1 0 I I #
edge $-1 $68 $34 $32 $81 forward #
loop $-1 $82 $83 $58 #
face $-1 $84 $33 $3 $-1 $85 reversed single #
point $-1 -123.0005999999999631 -123.0005999999999773 379.0018000000000029 #
point $-1 123.0005999999999915 -123.0005999999999773 379.0018000000000029 #
face $-1 $86 $87 $3 $-1 $88 forward single #
loop $-1 $-1 $89 $37 #
plane-surface $-1 123.0005999999999915 0 5.684341886080801487e-14 -1 0 0 0 0 1 forward_v I I I I #
coedge $-1 $90 $91 $92 $93 1 $38 $-1 #
coedge $-1 $51 $40 $42 $67 0 $21 $-1 #
coedge $-1 $42 $41 $94 $95 1 $13 $-1 #
edge $-1 $68 $96 $65 $97 forward #
vertex $-1 $44 $98 #
straight-curve $-1 7.105427357601001859e-15 -123.0005999999999773 133.0006000000000768 -1 0 0 I I #
coedge $-1 $49 $94 $45 $71 0 $76 $-1 #
edge $-1 $72 $54 $70 $99 forward #
vertex $-1 $95 $100 #
straight-curve $-1 123.0005999999999915 0 133.0006000000000768 0 -1 0 I I #
point $-1 123.0005999999999915 -123.0005999999999773 133.0006000000000768 #
coedge $-1 $94 $49 $51 $78 0 $76 $-1 #
loop $-1 $101 $94 $102 #
straight-curve $-1 7.105427357601001859e-15 123.0005999999999773 379.0018000000000029 -1 0 0 I I #
edge $-1 $52 $96 $75 $103 forward #
point $-1 -123.0005999999999631 123.0005999999999773 379.0018000000000029 #
point $-1 123.0005999999999915 123.0005999999999773 379.0018000000000029 #
straight-curve $-1 -123.0005999999999631 -123.0005999999999773 128.0006000000000199 -0 0 1 I I #
loop $-1 $104 $105 $58 #
coedge $-1 $106 $107 $108 $109 0 $57 $-1 #
face $-1 $102 $110 $3 $-1 $111 reversed single #
plane-surface $-1 0 -123.0005999999999773 0 0 1 -0 -0 0 1 forward_v I I I I #
face $-1 $112 $113 $3 $-1 $114 forward single #
loop $-1 $-1 $108 $61 #
plane-surface $-1 1.421085471520200372e-14 0 -123.0005999999999204 0 0 1 1 0 0 forward_v I I I I #
coedge $-1 $115 $116 $107 $117 1 $62 $-1 #
coedge $-1 $118 $64 $119 $120 1 $38 $-1 #
coedge $-1 $64 $118 $115 $121 1 $38 $-1 #
coedge $-1 $107 $106 $64 $93 0 $57 $-1 #
edge $-1 $122 $123 $92 $124 forward #
coedge $-1 $70 $75 $66 $95 0 $76 $-1 #
edge $-1 $96 $72 $94 $125 forward #
vertex $-1 $95 $126 #
straight-curve $-1 -123.0005999999999631 0 133.0006000000000768 0 1 0 I I #
point $-1 -123.0005999999999631 -123.0005999999999773 133.0006000000000768 #
straight-curve $-1 123.0005999999999915 123.0005999999999773 128.0006000000000199 0 0 1 I I #
point $-1 123.0005999999999915 123.0005999999999773 133.0006000000000768 #
loop $-1 $127 $128 $102 #
face $-1 $129 $76 $3 $-1 $130 reversed single #
straight-curve $-1 -123.0005999999999631 123.0005999999999773 128.0006000000000199 0 0 -1 I I #
loop $-1 $-1 $131 $58 #
coedge $-1 $132 $133 $134 $135 0 $82 $-1 #
coedge $-1 $92 $83 $136 $137 0 $57 $-1 #
coedge $-1 $83 $92 $89 $117 0 $57 $-1 #
coedge $-1 $138 $139 $83 $109 1 $87 $-1 #
edge $-1 $140 $141 $83 $142 forward #
loop $-1 $-1 $143 $84 #
plane-surface $-1 -133.0005999999999631 0 0 1 0 0 0 0 -1 forward_v I I I I #
face $-1 $144 $145 $3 $-1 $146 reversed single #
loop $-1 $-1 $136 $86 #
plane-surface $-1 -123.0005999999999631 0 5.684341886080801487e-14 1 0 0 0 0 -1 forward_v I I I I #
coedge $-1 $147 $89 $91 $121 0 $62 $-1 #
coedge $-1 $89 $147 $138 $148 0 $62 $-1 #
edge $-1 $123 $140 $107 $149 forward #
coedge $-1 $91 $90 $150 $151 1 $38 $-1 #
coedge $-1 $136 $152 $90 $120 0 $113 $-1 #
edge $-1 $153 $122 $119 $154 forward #
edge $-1 $123 $155 $115 $156 forward #
vertex $-1 $93 $157 #
vertex $-1 $93 $158 #
straight-curve $-1 7.105427357601001859e-15 -123.0005999999999773 123.0006000000000341 1 -0 0 I I #
straight-curve $-1 7.105427357601001859e-15 123.0005999999999773 133.0006000000000768 1 0 -0 I I #
point $-1 -123.0005999999999631 123.0005999999999773 133.0006000000000768 #
loop $-1 $159 $160 $102 #
coedge $-1 $161 $162 $163 $164 0 $101 $-1 #
face $-1 $-1 $165 $3 $-1 $166 reversed single #
plane-surface $-1 0 123.0005999999999773 0 0 -1 0 0 0 -1 forward_v I I I I #
coedge $-1 $167 $168 $169 $170 0 $104 $-1 #
coedge $-1 $171 $105 $172 $173 0 $82 $-1 #
coedge $-1 $105 $171 $174 $175 0 $82 $-1 #
coedge $-1 $176 $177 $105 $135 1 $178 $-1 #
edge $-1 $179 $180 $105 $181 forward #
coedge $-1 $182 $119 $106 $137 1 $113 $-1 #
edge $-1 $141 $122 $106 $183 forward #
coedge $-1 $163 $108 $116 $148 1 $87 $-1 #
coedge $-1 $108 $163 $182 $184 1 $87 $-1 #
vertex $-1 $109 $185 #
vertex $-1 $109 $186 #
straight-curve $-1 7.105427357601001859e-15 -123.0005999999999773 -123.0005999999999204 -1 0 0 I I #
coedge $-1 $187 $188 $189 $190 0 $110 $-1 #
face $-1 $191 $192 $3 $-1 $193 forward single #
loop $-1 $-1 $194 $112 #
plane-surface $-1 1.421085471520200372e-14 0 -133.0005999999999631 0 0 1 1 0 0 forward_v I I I I #
coedge $-1 $116 $115 $161 $195 1 $62 $-1 #
edge $-1 $196 $140 $116 $197 forward #
straight-curve $-1 123.0005999999999915 -123.0005999999999773 2.842170943040400743e-14 -0 0 -1 I I #
coedge $-1 $162 $161 $118 $151 0 $101 $-1 #
edge $-1 $155 $153 $150 $198 forward #
coedge $-1 $119 $182 $162 $199 1 $113 $-1 #
vertex $-1 $151 $200 #
straight-curve $-1 -123.0005999999999631 0 123.0006000000000341 0 -1 0 I I #
vertex $-1 $151 $201 #
straight-curve $-1 123.0005999999999915 0 123.0006000000000341 0 1 0 I I #
point $-1 -123.0005999999999631 -123.0005999999999773 123.0006000000000341 #
point $-1 123.0005999999999915 -123.0005999999999773 123.0006000000000341 #
loop $-1 $-1 $202 $102 #
coedge $-1 $203 $204 $205 $206 0 $127 $-1 #
coedge $-1 $150 $128 $147 $195 0 $101 $-1 #
coedge $-1 $128 $150 $152 $199 0 $101 $-1 #
coedge $-1 $139 $138 $128 $164 1 $87 $-1 #
edge $-1 $207 $196 $128 $208 forward #
loop $-1 $-1 $209 $129 #
plane-surface $-1 133.0005999999999631 0 0 -1 0 0 0 -0 1 forward_v I I I I #
coedge $-1 $210 $131 $211 $212 1 $104 $-1 #
coedge $-1 $131 $210 $213 $214 1 $104 $-1 #
coedge $-1 $188 $187 $131 $170 1 $110 $-1 #
edge $-1 $215 $216 $169 $217 forward #
coedge $-1 $133 $132 $194 $218 0 $82 $-1 #
coedge $-1 $219 $220 $132 $173 1 $221 $-1 #
edge $-1 $180 $222 $132 $223 forward #
coedge $-1 $224 $225 $133 $175 1 $192 $-1 #
edge $-1 $226 $179 $133 $227 forward #
coedge $-1 $205 $134 $225 $228 1 $178 $-1 #
coedge $-1 $134 $205 $219 $229 1 $178 $-1 #
loop $-1 $-1 $134 $191 #
vertex $-1 $135 $230 #
vertex $-1 $135 $231 #
straight-curve $-1 7.105427357601001859e-15 -123.0005999999999773 -379.0017999999998892 -1 0 0 I I #
coedge $-1 $152 $136 $139 $184 0 $113 $-1 #
straight-curve $-1 -123.0005999999999631 -123.0005999999999773 2.842170943040400743e-14 -0 0 1 I I #
edge $-1 $141 $207 $182 $232 forward #
point $-1 123.0005999999999915 -123.0005999999999773 -123.0005999999999204 #
point $-1 -123.0005999999999631 -123.0005999999999773 -123.0005999999999204 #
coedge $-1 $169 $143 $233 $234 1 $110 $-1 #
coedge $-1 $143 $169 $235 $236 1 $110 $-1 #
coedge $-1 $237 $238 $143 $190 1 $159 $-1 #
edge $-1 $239 $240 $189 $241 forward #
face $-1 $242 $178 $3 $-1 $243 forward single #
loop $-1 $-1 $174 $144 #
plane-surface $-1 123.0005999999999915 0 -256.0011999999999261 -1 0 0 0 0 1 forward_v I I I I #
coedge $-1 $244 $245 $171 $218 1 $145 $-1 #
edge $-1 $196 $155 $161 $246 forward #
vertex $-1 $164 $247 #
straight-curve $-1 123.0005999999999915 0 -123.0005999999999204 0 -1 0 I I #
straight-curve $-1 7.105427357601001859e-15 123.0005999999999773 123.0006000000000341 -1 0 0 I I #
edge $-1 $153 $207 $162 $248 forward #
point $-1 -123.0005999999999631 123.0005999999999773 123.0006000000000341 #
point $-1 123.0005999999999915 123.0005999999999773 123.0006000000000341 #
coedge $-1 $238 $237 $249 $250 0 $159 $-1 #
coedge $-1 $251 $160 $252 $253 0 $127 $-1 #
coedge $-1 $160 $251 $254 $255 0 $127 $-1 #
coedge $-1 $177 $176 $160 $206 1 $178 $-1 #
edge $-1 $256 $257 $160 $258 forward #
vertex $-1 $164 $259 #
straight-curve $-1 7.105427357601001859e-15 123.0005999999999773 -123.0005999999999204 1 0 -0 I I #
coedge $-1 $260 $261 $210 $262 0 $165 $-1 #
coedge $-1 $168 $167 $209 $262 1 $104 $-1 #
coedge $-1 $233 $263 $167 $212 0 $264 $-1 #
edge $-1 $265 $216 $167 $266 forward #
coedge $-1 $267 $235 $168 $214 0 $268 $-1 #
edge $-1 $215 $269 $168 $270 forward #
vertex $-1 $236 $271 #
vertex $-1 $234 $272 #
straight-curve $-1 -133.0005999999999631 -123.0005999999999773 0 0 0 -1 I I #
edge $-1 $222 $226 $171 $273 forward #
coedge $-1 $254 $172 $177 $229 0 $221 $-1 #
coedge $-1 $172 $254 $244 $274 0 $221 $-1 #
loop $-1 $-1 $172 $242 #
vertex $-1 $218 $275 #
straight-curve $-1 -123.0005999999999631 -123.0005999999999773 -128.0005999999999631 -0 0 1 I I #
coedge $-1 $252 $174 $245 $276 0 $192 $-1 #
coedge $-1 $174 $252 $176 $228 0 $192 $-1 #
vertex $-1 $218 $277 #
straight-curve $-1 123.0005999999999915 -123.0005999999999773 -128.0005999999999631 -0 0 -1 I I #
edge $-1 $257 $179 $225 $278 forward #
edge $-1 $180 $256 $219 $279 forward #
point $-1 123.0005999999999915 -123.0005999999999773 -379.0017999999998892 #
point $-1 -123.0005999999999631 -123.0005999999999773 -379.0017999999998892 #
straight-curve $-1 -123.0005999999999631 0 -123.0005999999999204 0 1 0 I I #
coedge $-1 $280 $211 $187 $234 0 $264 $-1 #
edge $-1 $216 $240 $187 $281 forward #
coedge $-1 $213 $282 $188 $236 0 $268 $-1 #
edge $-1 $239 $215 $188 $283 forward #
coedge $-1 $202 $189 $282 $284 1 $159 $-1 #
coedge $-1 $189 $202 $280 $285 1 $159 $-1 #
vertex $-1 $284 $286 #
vertex $-1 $285 $287 #
straight-curve $-1 -133.0005999999999631 123.0005999999999773 0 0 0 -1 I I #
face $-1 $288 $221 $3 $-1 $289 forward single #
plane-surface $-1 1.421085471520200372e-14 0 -379.0017999999998892 0 0 1 1 0 0 forward_v I I I I #
coedge $-1 $290 $194 $220 $274 1 $145 $-1 #
coedge $-1 $194 $290 $224 $276 1 $145 $-1 #
straight-curve $-1 123.0005999999999915 123.0005999999999773 2.842170943040400743e-14 0 0 1 I I #
point $-1 123.0005999999999915 123.0005999999999773 -123.0005999999999204 #
straight-curve $-1 -123.0005999999999631 123.0005999999999773 2.842170943040400743e-14 0 0 -1 I I #
coedge $-1 $261 $260 $202 $250 1 $165 $-1 #
edge $-1 $291 $292 $249 $293 forward #
coedge $-1 $204 $203 $290 $294 0 $127 $-1 #
coedge $-1 $225 $224 $203 $253 1 $192 $-1 #
edge $-1 $257 $295 $203 $296 forward #
coedge $-1 $220 $219 $204 $255 1 $221 $-1 #
edge $-1 $297 $256 $204 $298 forward #
vertex $-1 $206 $299 #
vertex $-1 $206 $300 #
straight-curve $-1 7.105427357601001859e-15 123.0005999999999773 -379.0017999999998892 1 0 -0 I I #
point $-1 -123.0005999999999631 123.0005999999999773 -123.0005999999999204 #
coedge $-1 $249 $209 $263 $301 1 $165 $-1 #
coedge $-1 $209 $249 $267 $302 1 $165 $-1 #
edge $-1 $269 $265 $209 $303 forward #
coedge $-1 $211 $280 $260 $301 0 $264 $-1 #
loop $-1 $-1 $263 $304 #
vertex $-1 $262 $305 #
straight-curve $-1 0 -123.0005999999999773 -389.0017999999998892 -1 0 0 I I #
coedge $-1 $282 $213 $261 $302 0 $268 $-1 #
loop $-1 $-1 $267 $288 #
vertex $-1 $302 $306 #
straight-curve $-1 0 -123.0005999999999773 389.0017999999998892 1 0 0 I I #
point $-1 -133.0005999999999631 -123.0005999999999773 389.0017999999998892 #
point $-1 -133.0005999999999631 -123.0005999999999773 -389.0017999999998892 #
straight-curve $-1 7.105427357601001859e-15 -123.0005999999999773 -133.0005999999999631 1 -0 0 I I #
edge $-1 $297 $222 $220 $307 forward #
point $-1 -123.0005999999999631 -123.0005999999999773 -133.0005999999999631 #
edge $-1 $226 $295 $224 $308 forward #
point $-1 123.0005999999999915 -123.0005999999999773 -133.0005999999999631 #
straight-curve $-1 123.0005999999999915 0 -379.0017999999998892 0 -1 0 I I #
straight-curve $-1 -123.0005999999999631 0 -379.0017999999998892 0 1 0 I I #
coedge $-1 $263 $233 $238 $285 0 $264 $-1 #
straight-curve $-1 -133.0005999999999631 0 -389.0017999999998892 0 1 0 I I #
coedge $-1 $235 $267 $237 $284 0 $268 $-1 #
straight-curve $-1 -133.0005999999999631 0 389.0017999999998892 0 -1 0 I I #
edge $-1 $291 $239 $237 $309 forward #
edge $-1 $240 $292 $238 $310 forward #
point $-1 -133.0005999999999631 123.0005999999999773 389.0017999999998892 #
point $-1 -133.0005999999999631 123.0005999999999773 -389.0017999999998892 #
face $-1 $304 $268 $3 $-1 $311 forward single #
plane-surface $-1 -123.0005999999999631 0 -256.0011999999999261 1 0 0 0 0 -1 forward_v I I I I #
coedge $-1 $245 $244 $251 $294 1 $145 $-1 #
vertex $-1 $302 $312 #
vertex $-1 $301 $313 #
straight-curve $-1 133.0005999999999631 123.0005999999999773 0 0 0 -1 I I #
edge $-1 $295 $297 $251 $314 forward #
vertex $-1 $294 $315 #
straight-curve $-1 123.0005999999999915 123.0005999999999773 -128.0005999999999631 0 0 1 I I #
vertex $-1 $294 $316 #
straight-curve $-1 -123.0005999999999631 123.0005999999999773 -128.0005999999999631 0 0 -1 I I #
point $-1 -123.0005999999999631 123.0005999999999773 -379.0017999999998892 #
point $-1 123.0005999999999915 123.0005999999999773 -379.0017999999998892 #
edge $-1 $292 $265 $260 $317 forward #
edge $-1 $269 $291 $261 $318 forward #
straight-curve $-1 133.0005999999999631 -123.0005999999999773 0 0 0 -1 I I #
face $-1 $58 $264 $3 $-1 $319 reversed single #
point $-1 133.0005999999999631 -123.0005999999999773 -389.0017999999998892 #
point $-1 133.0005999999999631 -123.0005999999999773 389.0017999999998892 #
straight-curve $-1 -123.0005999999999631 0 -133.0005999999999631 0 -1 0 I I #
straight-curve $-1 123.0005999999999915 0 -133.0005999999999631 0 1 0 I I #
straight-curve $-1 0 123.0005999999999773 389.0017999999998892 -1 0 0 I I #
straight-curve $-1 0 123.0005999999999773 -389.0017999999998892 1 0 0 I I #
plane-surface $-1 0 0 389.0017999999998892 0 0 1 1 0 0 forward_v I I I I #
point $-1 133.0005999999999631 123.0005999999999773 389.0017999999998892 #
point $-1 133.0005999999999631 123.0005999999999773 -389.0017999999998892 #
straight-curve $-1 7.105427357601001859e-15 123.0005999999999773 -133.0005999999999631 -1 0 0 I I #
point $-1 123.0005999999999915 123.0005999999999773 -133.0005999999999631 #
point $-1 -123.0005999999999631 123.0005999999999773 -133.0005999999999631 #
straight-curve $-1 133.0005999999999631 0 -389.0017999999998892 0 -1 0 I I #
straight-curve $-1 133.0005999999999631 0 389.0017999999998892 0 1 0 I I #
plane-surface $-1 0 0 -389.0017999999998892 0 0 1 1 0 0 forward_v I I I I #
End-of-ACIS-data 