106 0 1 0           
body $1 $2 $-1 $3 #
display_attribute-st-attrib $-1 $4 $-1 $0 1 #
lump $-1 $-1 $5 $0 #
transform $-1 1 0 0 0 1 0 0 0 1 -150 0 255 1 0 0 0 #
id_attribute-st-attrib $-1 $-1 $1 $0 2 #
shell $-1 $-1 $-1 $6 $2 #
face $-1 $7 $8 $5 $-1 $9 forward single #
face $-1 $10 $11 $5 $-1 $9 forward single #
loop $-1 $-1 $12 $6 #
plane-surface $-1 150 0 -245 0 0 1 1 0 0 0 I I I I #
face $-1 $13 $14 $5 $-1 $9 forward single #
loop $-1 $-1 $15 $7 #
coedge $-1 $16 $17 $18 $19 1 $8 $-1 #
face $-1 $20 $21 $5 $-1 $22 reversed single #
loop $-1 $-1 $23 $10 #
coedge $-1 $24 $25 $26 $27 1 $11 $-1 #
coedge $-1 $28 $12 $29 $30 0 $8 $-1 #
coedge $-1 $12 $28 $31 $32 0 $8 $-1 #
coedge $-1 $33 $34 $12 $19 0 $35 $-1 #
edge $-1 $36 $37 $18 $38 0 #
face $-1 $39 $40 $5 $-1 $41 reversed single #
loop $-1 $-1 $42 $13 #
plane-surface $-1 150 0 -255 0 0 1 1 0 0 0 I I I I #
coedge $-1 $43 $44 $45 $46 1 $14 $-1 #
coedge $-1 $47 $15 $48 $49 0 $11 $-1 #
coedge $-1 $15 $47 $50 $51 0 $11 $-1 #
coedge $-1 $52 $53 $15 $27 0 $54 $-1 #
edge $-1 $55 $56 $26 $57 0 #
coedge $-1 $17 $16 $58 $59 1 $8 $-1 #
coedge $-1 $60 $61 $16 $30 1 $62 $-1 #
edge $-1 $36 $63 $29 $64 0 #
coedge $-1 $65 $66 $17 $32 1 $67 $-1 #
edge $-1 $68 $37 $31 $69 0 #
coedge $-1 $70 $18 $66 $71 1 $35 $-1 #
coedge $-1 $18 $70 $60 $72 0 $35 $-1 #
loop $-1 $-1 $18 $73 #
vertex $-1 $72 $74 #
vertex $-1 $32 $75 #
straight-curve $-1 -5 0 -245 0 -1 0 I I #
face $-1 $73 $54 $5 $-1 $76 reversed single #
loop $-1 $-1 $77 $20 #
plane-surface $-1 605 0 0 -1 0 0 0 0 1 0 I I I I #
coedge $-1 $78 $79 $80 $81 0 $21 $-1 #
coedge $-1 $82 $23 $83 $84 0 $14 $-1 #
coedge $-1 $23 $82 $85 $86 0 $14 $-1 #
coedge $-1 $87 $88 $23 $46 0 $89 $-1 #
edge $-1 $90 $91 $45 $92 0 #
coedge $-1 $25 $24 $93 $94 1 $11 $-1 #
coedge $-1 $95 $96 $24 $49 1 $97 $-1 #
edge $-1 $55 $98 $48 $64 0 #
coedge $-1 $99 $100 $25 $51 1 $101 $-1 #
edge $-1 $102 $56 $50 $69 0 #
coedge $-1 $103 $26 $100 $104 1 $54 $-1 #
coedge $-1 $26 $103 $95 $105 0 $54 $-1 #
loop $-1 $-1 $26 $39 #
vertex $-1 $105 $106 #
vertex $-1 $51 $107 #
straight-curve $-1 295 0 -245 0 -1 0 I I #
coedge $-1 $108 $109 $28 $59 0 $110 $-1 #
edge $-1 $68 $63 $58 $111 0 #
coedge $-1 $112 $29 $34 $72 1 $62 $-1 #
coedge $-1 $29 $112 $108 $113 0 $62 $-1 #
loop $-1 $114 $60 $115 #
vertex $-1 $30 $116 #
straight-curve $-1 150 150 -245 -1 0 0 I I #
coedge $-1 $117 $31 $109 $118 1 $67 $-1 #
coedge $-1 $31 $117 $33 $71 0 $67 $-1 #
loop $-1 $119 $31 $120 #
vertex $-1 $118 $121 #
straight-curve $-1 150 -150 -245 1 0 0 I I #
coedge $-1 $34 $33 $122 $123 0 $35 $-1 #
edge $-1 $124 $37 $33 $125 0 #
edge $-1 $126 $36 $60 $127 0 #
face $-1 $128 $35 $5 $-1 $129 reversed single #
point $-1 -5 150 -245 #
point $-1 -5 -150 -245 #
plane-surface $-1 295 0 0 1 0 0 0 0 -1 0 I I I I #
coedge $-1 $130 $80 $131 $132 1 $40 $-1 #
coedge $-1 $133 $42 $134 $135 0 $21 $-1 #
coedge $-1 $42 $133 $136 $137 0 $21 $-1 #
coedge $-1 $77 $138 $42 $81 1 $40 $-1 #
edge $-1 $139 $140 $80 $141 0 #
coedge $-1 $44 $43 $142 $143 1 $14 $-1 #
coedge $-1 $144 $145 $43 $84 1 $146 $-1 #
edge $-1 $90 $147 $83 $64 0 #
coedge $-1 $148 $149 $44 $86 1 $150 $-1 #
edge $-1 $151 $91 $85 $69 0 #
coedge $-1 $152 $45 $149 $153 1 $89 $-1 #
coedge $-1 $45 $152 $144 $154 0 $89 $-1 #
loop $-1 $-1 $45 $155 #
vertex $-1 $154 $156 #
vertex $-1 $86 $157 #
straight-curve $-1 595 0 -245 0 -1 0 I I #
coedge $-1 $158 $159 $47 $94 0 $160 $-1 #
edge $-1 $102 $98 $93 $161 0 #
coedge $-1 $162 $48 $53 $105 1 $97 $-1 #
coedge $-1 $48 $162 $158 $163 0 $97 $-1 #
loop $-1 $62 $95 $115 #
vertex $-1 $49 $164 #
coedge $-1 $165 $50 $159 $166 1 $101 $-1 #
coedge $-1 $50 $165 $52 $104 0 $101 $-1 #
loop $-1 $67 $50 $120 #
vertex $-1 $166 $167 #
coedge $-1 $53 $52 $168 $169 0 $54 $-1 #
edge $-1 $170 $56 $52 $171 0 #
edge $-1 $172 $55 $95 $173 0 #
point $-1 295 150 -245 #
point $-1 295 -150 -245 #
coedge $-1 $174 $58 $61 $113 1 $110 $-1 #
coedge $-1 $58 $174 $65 $118 0 $110 $-1 #
loop $-1 $-1 $58 $128 #
straight-curve $-1 -295 0 -245 0 1 -0 I I #
coedge $-1 $61 $60 $175 $176 1 $62 $-1 #
edge $-1 $177 $63 $108 $178 0 #
loop $-1 $179 $180 $115 #
face $-1 $181 $146 $5 $-1 $182 reversed single #
point $-1 -295 150 -245 #
coedge $-1 $66 $65 $183 $184 1 $67 $-1 #
edge $-1 $185 $68 $109 $186 0 #
loop $-1 $187 $188 $120 #
face $-1 $189 $190 $5 $-1 $191 reversed single #
point $-1 -295 -150 -245 #
coedge $-1 $183 $175 $70 $123 1 $192 $-1 #
edge $-1 $124 $126 $70 $193 0 #
vertex $-1 $71 $194 #
straight-curve $-1 -5 -150 0 0 0 -1 I I #
vertex $-1 $72 $195 #
straight-curve $-1 -5 150 0 0 0 -1 I I #
face $-1 $115 $110 $5 $-1 $196 reversed single #
plane-surface $-1 -5 0 0 1 0 0 0 0 -1 0 I I I I #
coedge $-1 $138 $77 $197 $198 1 $40 $-1 #
coedge $-1 $136 $199 $77 $132 0 $200 $-1 #
edge $-1 $201 $139 $77 $202 0 #
coedge $-1 $79 $78 $203 $204 0 $21 $-1 #
coedge $-1 $205 $206 $78 $135 1 $190 $-1 #
edge $-1 $140 $207 $134 $208 0 #
coedge $-1 $209 $131 $79 $137 1 $200 $-1 #
edge $-1 $210 $139 $136 $211 0 #
coedge $-1 $80 $130 $205 $212 0 $40 $-1 #
vertex $-1 $81 $213 #
vertex $-1 $212 $214 #
straight-curve $-1 605 0 -255 0 -1 0 I I #
coedge $-1 $215 $216 $82 $143 0 $217 $-1 #
edge $-1 $151 $147 $142 $218 0 #
coedge $-1 $219 $83 $88 $154 1 $146 $-1 #
coedge $-1 $83 $219 $215 $220 0 $146 $-1 #
loop $-1 $97 $144 $115 #
vertex $-1 $84 $221 #
coedge $-1 $222 $85 $216 $223 1 $150 $-1 #
coedge $-1 $85 $222 $87 $153 0 $150 $-1 #
loop $-1 $101 $85 $120 #
vertex $-1 $223 $224 #
coedge $-1 $88 $87 $225 $226 0 $89 $-1 #
edge $-1 $227 $91 $87 $228 0 #
edge $-1 $229 $90 $144 $230 0 #
face $-1 $231 $89 $5 $-1 $232 reversed single #
point $-1 595 150 -245 #
point $-1 595 -150 -245 #
coedge $-1 $233 $93 $96 $163 1 $160 $-1 #
coedge $-1 $93 $233 $99 $166 0 $160 $-1 #
loop $-1 $-1 $93 $234 #
straight-curve $-1 5 0 -245 0 1 -0 I I #
coedge $-1 $96 $95 $235 $236 1 $97 $-1 #
edge $-1 $237 $98 $158 $238 0 #
point $-1 5 150 -245 #
coedge $-1 $100 $99 $239 $240 1 $101 $-1 #
edge $-1 $241 $102 $159 $242 0 #
point $-1 5 -150 -245 #
coedge $-1 $239 $235 $103 $169 1 $243 $-1 #
edge $-1 $170 $172 $103 $244 0 #
vertex $-1 $104 $245 #
straight-curve $-1 295 -150 0 0 0 -1 I I #
vertex $-1 $105 $246 #
straight-curve $-1 295 150 0 0 0 -1 I I #
coedge $-1 $109 $108 $247 $248 0 $110 $-1 #
coedge $-1 $122 $247 $112 $176 0 $192 $-1 #
edge $-1 $177 $126 $112 $249 0 #
vertex $-1 $113 $250 #
straight-curve $-1 -295 150 0 0 0 -1 I I #
loop $-1 $251 $252 $115 #
coedge $-1 $253 $254 $255 $256 1 $114 $-1 #
face $-1 $257 $258 $5 $-1 $259 forward single #
plane-surface $-1 -300 150 0 0 -1 0 0 0 -1 0 I I I I #
coedge $-1 $247 $122 $117 $184 0 $192 $-1 #
edge $-1 $124 $185 $117 $260 0 #
vertex $-1 $118 $261 #
straight-curve $-1 -295 -150 0 0 0 -1 I I #
loop $-1 $262 $263 $120 #
coedge $-1 $264 $265 $266 $267 1 $119 $-1 #
face $-1 $268 $269 $5 $-1 $196 reversed single #
loop $-1 $150 $205 $120 #
plane-surface $-1 -300 -150 0 0 1 0 0 0 1 0 I I I I #
loop $-1 $-1 $122 $270 #
straight-curve $-1 -5 0 -155 0 1 0 I I #
point $-1 -5 -150 -155 #
point $-1 -5 150 -155 #
plane-surface $-1 -295 0 0 -1 0 0 0 0 1 0 I I I I #
coedge $-1 $271 $272 $130 $198 0 $273 $-1 #
edge $-1 $274 $201 $130 $275 0 #
coedge $-1 $131 $209 $271 $276 1 $200 $-1 #
loop $-1 $-1 $131 $115 #
vertex $-1 $198 $277 #
straight-curve $-1 605 150 250 0 0 -1 I I #
coedge $-1 $278 $279 $133 $204 1 $280 $-1 #
edge $-1 $207 $210 $203 $281 0 #
coedge $-1 $282 $134 $138 $212 1 $190 $-1 #
coedge $-1 $134 $282 $278 $283 0 $190 $-1 #
vertex $-1 $204 $284 #
straight-curve $-1 150 -150 -255 -1 0 0 I I #
coedge $-1 $199 $136 $279 $285 1 $200 $-1 #
vertex $-1 $137 $286 #
straight-curve $-1 150 150 -255 1 0 0 I I #
edge $-1 $274 $140 $138 $287 0 #
point $-1 605 150 -255 #
point $-1 605 -150 -255 #
coedge $-1 $288 $142 $145 $220 1 $217 $-1 #
coedge $-1 $142 $288 $148 $223 0 $217 $-1 #
loop $-1 $-1 $142 $231 #
straight-curve $-1 305 0 -245 0 1 -0 I I #
coedge $-1 $145 $144 $289 $290 1 $146 $-1 #
edge $-1 $291 $147 $215 $292 0 #
point $-1 305 150 -245 #
coedge $-1 $149 $148 $293 $294 1 $150 $-1 #
edge $-1 $295 $151 $216 $296 0 #
point $-1 305 -150 -245 #
coedge $-1 $293 $289 $152 $226 1 $297 $-1 #
edge $-1 $227 $229 $152 $298 0 #
vertex $-1 $153 $299 #
straight-curve $-1 595 -150 0 0 0 -1 I I #
vertex $-1 $154 $300 #
straight-curve $-1 595 150 0 0 0 -1 I I #
face $-1 $234 $217 $5 $-1 $301 reversed single #
plane-surface $-1 595 0 0 1 0 0 0 0 -1 0 I I I I #
coedge $-1 $159 $158 $302 $303 0 $160 $-1 #
face $-1 $304 $160 $5 $-1 $305 reversed single #
coedge $-1 $168 $302 $162 $236 0 $243 $-1 #
edge $-1 $237 $172 $162 $249 0 #
vertex $-1 $163 $306 #
straight-curve $-1 5 150 0 0 0 -1 I I #
coedge $-1 $302 $168 $165 $240 0 $243 $-1 #
edge $-1 $170 $241 $165 $260 0 #
vertex $-1 $166 $307 #
straight-curve $-1 5 -150 0 0 0 -1 I I #
loop $-1 $-1 $168 $308 #
straight-curve $-1 295 0 -155 0 1 0 I I #
point $-1 295 -150 -155 #
point $-1 295 150 -155 #
coedge $-1 $175 $183 $174 $248 1 $192 $-1 #
edge $-1 $177 $185 $174 $309 0 #
straight-curve $-1 150 150 -155 1 0 0 I I #
point $-1 -295 150 -155 #
loop $-1 $310 $311 $115 #
coedge $-1 $312 $313 $314 $315 1 $179 $-1 #
coedge $-1 $316 $180 $317 $318 1 $114 $-1 #
coedge $-1 $180 $316 $319 $320 1 $114 $-1 #
coedge $-1 $321 $322 $180 $256 0 $323 $-1 #
edge $-1 $324 $325 $180 $230 0 #
face $-1 $326 $327 $5 $-1 $259 forward single #
loop $-1 $-1 $328 $181 #
plane-surface $-1 150 0 -145 0 0 1 1 0 0 0 I I I I #
straight-curve $-1 150 -150 -155 -1 0 0 I I #
point $-1 -295 -150 -155 #
loop $-1 $329 $330 $120 #
coedge $-1 $331 $332 $333 $334 1 $187 $-1 #
coedge $-1 $335 $188 $336 $337 1 $119 $-1 #
coedge $-1 $188 $335 $338 $339 0 $119 $-1 #
coedge $-1 $340 $341 $188 $267 0 $342 $-1 #
edge $-1 $343 $344 $188 $345 0 #
face $-1 $346 $347 $5 $-1 $196 reversed single #
loop $-1 $-1 $348 $189 #
face $-1 $308 $192 $5 $-1 $349 reversed single #
coedge $-1 $350 $197 $199 $276 0 $273 $-1 #
coedge $-1 $197 $350 $282 $351 0 $273 $-1 #
loop $-1 $-1 $197 $352 #
vertex $-1 $198 $353 #
straight-curve $-1 605 0 255 0 1 0 I I #
edge $-1 $201 $354 $199 $355 0 #
point $-1 605 150 255 #
coedge $-1 $356 $203 $206 $283 1 $280 $-1 #
coedge $-1 $203 $356 $209 $285 0 $280 $-1 #
loop $-1 $-1 $278 $357 #
straight-curve $-1 -305 0 -255 0 1 0 I I #
coedge $-1 $206 $205 $272 $351 1 $190 $-1 #
edge $-1 $358 $207 $278 $359 0 #
point $-1 -305 -150 -255 #
edge $-1 $354 $210 $209 $360 0 #
point $-1 -305 150 -255 #
straight-curve $-1 605 -150 0 0 0 -1 I I #
coedge $-1 $216 $215 $361 $362 0 $217 $-1 #
coedge $-1 $225 $361 $219 $290 0 $297 $-1 #
edge $-1 $291 $229 $219 $249 0 #
vertex $-1 $220 $363 #
straight-curve $-1 305 150 0 0 0 -1 I I #
coedge $-1 $361 $225 $222 $294 0 $297 $-1 #
edge $-1 $227 $295 $222 $260 0 #
vertex $-1 $223 $364 #
straight-curve $-1 305 -150 0 0 0 -1 I I #
loop $-1 $-1 $225 $365 #
straight-curve $-1 595 0 -155 0 1 0 I I #
point $-1 595 -150 -155 #
point $-1 595 150 -155 #
plane-surface $-1 305 0 0 -1 0 0 0 0 1 0 I I I I #
coedge $-1 $235 $239 $233 $303 1 $243 $-1 #
edge $-1 $237 $241 $233 $366 0 #
face $-1 $367 $368 $5 $-1 $369 forward single #
plane-surface $-1 5 0 0 -1 0 0 0 -0 1 0 I I I I #
point $-1 5 150 -155 #
point $-1 5 -150 -155 #
face $-1 $365 $243 $5 $-1 $349 reversed single #
straight-curve $-1 -295 0 -155 0 -1 0 I I #
loop $-1 $370 $371 $115 #
coedge $-1 $372 $373 $374 $375 1 $251 $-1 #
coedge $-1 $376 $252 $377 $378 1 $179 $-1 #
coedge $-1 $252 $376 $379 $380 1 $179 $-1 #
coedge $-1 $381 $382 $252 $315 0 $383 $-1 #
edge $-1 $384 $385 $252 $173 0 #
coedge $-1 $254 $253 $386 $387 0 $114 $-1 #
coedge $-1 $388 $389 $253 $318 0 $390 $-1 #
edge $-1 $391 $324 $253 $392 0 #
coedge $-1 $393 $394 $254 $320 0 $395 $-1 #
edge $-1 $325 $396 $254 $397 0 #
coedge $-1 $398 $255 $394 $399 0 $323 $-1 #
coedge $-1 $255 $398 $388 $400 0 $323 $-1 #
loop $-1 $-1 $321 $401 #
vertex $-1 $256 $402 #
vertex $-1 $256 $403 #
face $-1 $270 $342 $5 $-1 $259 forward single #
loop $-1 $-1 $404 $257 #
coedge $-1 $405 $406 $407 $408 1 $258 $-1 #
loop $-1 $409 $410 $120 #
coedge $-1 $411 $412 $406 $413 1 $262 $-1 #
coedge $-1 $414 $263 $415 $416 1 $187 $-1 #
coedge $-1 $263 $414 $417 $418 0 $187 $-1 #
coedge $-1 $404 $419 $263 $334 0 $327 $-1 #
edge $-1 $420 $421 $263 $345 0 #
coedge $-1 $265 $264 $422 $423 1 $119 $-1 #
coedge $-1 $424 $425 $264 $337 0 $426 $-1 #
edge $-1 $427 $343 $336 $296 0 #
coedge $-1 $428 $429 $265 $339 1 $430 $-1 #
edge $-1 $431 $344 $338 $228 0 #
coedge $-1 $432 $266 $429 $433 1 $342 $-1 #
coedge $-1 $266 $432 $424 $434 1 $342 $-1 #
loop $-1 $-1 $340 $326 #
vertex $-1 $337 $435 #
vertex $-1 $267 $436 #
straight-curve $-1 150 -150 -145 1 0 0 I I #
face $-1 $437 $438 $5 $-1 $439 reversed single #
loop $-1 $-1 $440 $268 #
coedge $-1 $441 $442 $443 $444 0 $269 $-1 #
plane-surface $-1 150 0 -155 0 0 1 1 0 0 0 I I I I #
coedge $-1 $272 $271 $356 $445 0 $273 $-1 #
edge $-1 $358 $274 $282 $446 0 #
face $-1 $447 $273 $5 $-1 $448 forward single #
point $-1 605 -150 255 #
vertex $-1 $276 $449 #
straight-curve $-1 150 150 255 -1 0 0 I I #
coedge $-1 $279 $278 $350 $445 1 $280 $-1 #
face $-1 $450 $280 $5 $-1 $451 reversed single #
vertex $-1 $445 $452 #
straight-curve $-1 -305 -150 250 0 0 -1 I I #
straight-curve $-1 -305 150 0 0 0 -1 I I #
coedge $-1 $289 $293 $288 $362 1 $297 $-1 #
edge $-1 $291 $295 $288 $453 0 #
point $-1 305 150 -155 #
point $-1 305 -150 -155 #
face $-1 $155 $297 $5 $-1 $349 reversed single #
straight-curve $-1 5 0 -155 0 -1 0 I I #
face $-1 $454 $455 $5 $-1 $369 forward single #
loop $-1 $-1 $456 $304 #
plane-surface $-1 150 0 -45 0 0 1 1 0 0 0 I I I I #
loop $-1 $457 $458 $115 #
coedge $-1 $459 $460 $461 $462 1 $310 $-1 #
coedge $-1 $463 $311 $464 $465 1 $251 $-1 #
coedge $-1 $311 $463 $466 $467 1 $251 $-1 #
coedge $-1 $468 $469 $311 $375 0 $470 $-1 #
edge $-1 $471 $472 $311 $127 0 #
coedge $-1 $313 $312 $473 $474 0 $179 $-1 #
coedge $-1 $475 $476 $312 $378 0 $477 $-1 #
edge $-1 $478 $384 $312 $392 0 #
coedge $-1 $479 $480 $313 $380 0 $455 $-1 #
edge $-1 $385 $481 $313 $397 0 #
coedge $-1 $482 $314 $480 $483 0 $383 $-1 #
coedge $-1 $314 $482 $475 $484 0 $383 $-1 #
loop $-1 $-1 $381 $485 #
vertex $-1 $315 $486 #
vertex $-1 $315 $487 #
coedge $-1 $488 $489 $316 $387 1 $490 $-1 #
edge $-1 $391 $396 $386 $292 0 #
coedge $-1 $491 $317 $322 $400 1 $390 $-1 #
coedge $-1 $317 $491 $488 $492 1 $390 $-1 #
loop $-1 $-1 $388 $493 #
vertex $-1 $387 $494 #
straight-curve $-1 150 150 45 1 0 0 I I #
coedge $-1 $495 $319 $489 $496 1 $395 $-1 #
coedge $-1 $319 $495 $321 $399 1 $395 $-1 #
loop $-1 $-1 $394 $454 #
vertex $-1 $320 $497 #
straight-curve $-1 150 150 -45 -1 0 0 I I #
coedge $-1 $322 $321 $498 $499 1 $323 $-1 #
edge $-1 $325 $500 $321 $501 0 #
edge $-1 $502 $324 $322 $503 0 #
face $-1 $485 $323 $5 $-1 $232 reversed single #
point $-1 595 150 45 #
point $-1 595 150 -45 #
coedge $-1 $504 $333 $505 $506 1 $327 $-1 #
coedge $-1 $507 $328 $508 $509 0 $258 $-1 #
coedge $-1 $328 $507 $330 $413 0 $258 $-1 #
coedge $-1 $510 $511 $328 $408 0 $512 $-1 #
edge $-1 $513 $514 $407 $515 0 #
loop $-1 $516 $517 $120 #
coedge $-1 $518 $498 $495 $519 1 $329 $-1 #
coedge $-1 $520 $330 $521 $522 1 $262 $-1 #
coedge $-1 $330 $520 $510 $523 0 $262 $-1 #
edge $-1 $524 $514 $330 $345 0 #
coedge $-1 $332 $331 $525 $526 1 $187 $-1 #
coedge $-1 $527 $528 $331 $416 0 $529 $-1 #
edge $-1 $530 $420 $415 $242 0 #
coedge $-1 $531 $505 $332 $418 1 $532 $-1 #
edge $-1 $533 $421 $417 $171 0 #
coedge $-1 $333 $504 $527 $534 1 $327 $-1 #
vertex $-1 $416 $535 #
vertex $-1 $334 $536 #
coedge $-1 $537 $538 $335 $423 0 $539 $-1 #
edge $-1 $431 $427 $335 $540 0 #
coedge $-1 $541 $336 $341 $434 0 $426 $-1 #
coedge $-1 $336 $541 $537 $542 0 $426 $-1 #
loop $-1 $-1 $424 $543 #
vertex $-1 $337 $544 #
coedge $-1 $545 $338 $538 $546 0 $430 $-1 #
coedge $-1 $338 $545 $340 $433 0 $430 $-1 #
loop $-1 $-1 $429 $547 #
vertex $-1 $339 $548 #
coedge $-1 $341 $340 $549 $550 0 $342 $-1 #
edge $-1 $551 $344 $429 $552 0 #
edge $-1 $343 $553 $424 $554 0 #
point $-1 305 -150 -145 #
point $-1 595 -150 -145 #
face $-1 $352 $555 $5 $-1 $439 reversed single #
loop $-1 $-1 $556 $346 #
plane-surface $-1 150 0 245 0 0 1 1 0 0 0 I I I I #
coedge $-1 $557 $558 $559 $560 0 $347 $-1 #
coedge $-1 $561 $348 $562 $563 1 $269 $-1 #
coedge $-1 $348 $561 $564 $565 0 $269 $-1 #
coedge $-1 $566 $567 $348 $444 1 $568 $-1 #
edge $-1 $569 $570 $348 $571 0 #
edge $-1 $354 $358 $356 $572 0 #
straight-curve $-1 150 -150 255 1 0 0 I I #
face $-1 $573 $574 $5 $-1 $439 reversed single #
plane-surface $-1 150 0 255 0 0 1 1 0 0 0 I I I I #
point $-1 -305 150 255 #
face $-1 $575 $576 $5 $-1 $196 reversed single #
plane-surface $-1 -305 0 0 1 0 0 0 0 -1 0 I I I I #
point $-1 -305 -150 255 #
straight-curve $-1 305 0 -155 0 -1 0 I I #
face $-1 $577 $395 $5 $-1 $369 forward single #
loop $-1 $-1 $480 $367 #
coedge $-1 $466 $578 $468 $579 1 $368 $-1 #
loop $-1 $580 $581 $115 #
coedge $-1 $582 $583 $584 $585 1 $370 $-1 #
coedge $-1 $586 $371 $587 $588 1 $310 $-1 #
coedge $-1 $371 $586 $589 $590 1 $310 $-1 #
coedge $-1 $591 $592 $371 $462 0 $593 $-1 #
edge $-1 $594 $595 $371 $230 0 #
coedge $-1 $373 $372 $596 $597 0 $251 $-1 #
coedge $-1 $598 $599 $372 $465 0 $600 $-1 #
edge $-1 $601 $471 $372 $392 0 #
coedge $-1 $602 $456 $373 $467 0 $368 $-1 #
edge $-1 $472 $603 $373 $397 0 #
coedge $-1 $604 $374 $456 $579 0 $470 $-1 #
coedge $-1 $374 $604 $598 $605 0 $470 $-1 #
loop $-1 $-1 $468 $606 #
vertex $-1 $375 $607 #
vertex $-1 $375 $608 #
coedge $-1 $609 $610 $376 $474 1 $611 $-1 #
edge $-1 $478 $481 $473 $238 0 #
coedge $-1 $612 $377 $382 $484 1 $477 $-1 #
coedge $-1 $377 $612 $609 $613 1 $477 $-1 #
loop $-1 $-1 $475 $614 #
vertex $-1 $474 $615 #
coedge $-1 $616 $379 $610 $617 1 $455 $-1 #
coedge $-1 $379 $616 $381 $483 1 $455 $-1 #
vertex $-1 $380 $618 #
coedge $-1 $382 $381 $619 $620 1 $383 $-1 #
edge $-1 $385 $621 $381 $622 0 #
edge $-1 $623 $384 $382 $624 0 #
face $-1 $625 $383 $5 $-1 $76 reversed single #
point $-1 295 150 45 #
point $-1 295 150 -45 #
coedge $-1 $626 $386 $389 $492 0 $490 $-1 #
coedge $-1 $386 $626 $393 $496 0 $490 $-1 #
loop $-1 $-1 $489 $625 #
coedge $-1 $389 $388 $627 $628 0 $390 $-1 #
edge $-1 $391 $629 $488 $630 0 #
face $-1 $401 $390 $5 $-1 $631 reversed single #
point $-1 305 150 45 #
coedge $-1 $394 $393 $410 $519 0 $395 $-1 #
edge $-1 $632 $396 $489 $633 0 #
point $-1 305 150 -45 #
coedge $-1 $410 $627 $398 $499 0 $329 $-1 #
edge $-1 $502 $500 $398 $228 0 #
vertex $-1 $519 $634 #
straight-curve $-1 595 0 -45 0 -1 0 I I #
vertex $-1 $499 $635 #
straight-curve $-1 595 0 45 0 1 0 I I #
coedge $-1 $419 $404 $636 $637 0 $327 $-1 #
coedge $-1 $417 $638 $404 $506 0 $532 $-1 #
edge $-1 $639 $421 $505 $640 0 #
coedge $-1 $406 $405 $641 $642 1 $258 $-1 #
coedge $-1 $643 $644 $405 $509 1 $645 $-1 #
edge $-1 $513 $646 $508 $647 0 #
coedge $-1 $648 $407 $412 $523 1 $512 $-1 #
coedge $-1 $407 $648 $643 $649 0 $512 $-1 #
loop $-1 $-1 $407 $650 #
vertex $-1 $649 $651 #
vertex $-1 $413 $652 #
straight-curve $-1 -5 0 -145 0 -1 0 I I #
loop $-1 $653 $654 $120 #
coedge $-1 $655 $619 $616 $656 1 $409 $-1 #
coedge $-1 $627 $410 $626 $657 1 $329 $-1 #
edge $-1 $632 $500 $410 $658 0 #
coedge $-1 $412 $411 $659 $660 1 $262 $-1 #
coedge $-1 $641 $661 $411 $522 0 $662 $-1 #
edge $-1 $663 $524 $521 $186 0 #
edge $-1 $664 $514 $510 $125 0 #
vertex $-1 $522 $665 #
coedge $-1 $666 $667 $414 $526 0 $668 $-1 #
edge $-1 $533 $530 $414 $540 0 #
coedge $-1 $669 $415 $419 $534 0 $529 $-1 #
coedge $-1 $415 $669 $666 $670 0 $529 $-1 #
loop $-1 $-1 $527 $671 #
vertex $-1 $416 $672 #
coedge $-1 $638 $417 $667 $673 0 $532 $-1 #
loop $-1 $-1 $505 $674 #
vertex $-1 $418 $675 #
edge $-1 $420 $676 $527 $677 0 #
point $-1 5 -150 -145 #
point $-1 295 -150 -145 #
coedge $-1 $678 $422 $425 $542 1 $539 $-1 #
coedge $-1 $422 $678 $428 $546 1 $539 $-1 #
loop $-1 $-1 $538 $679 #
straight-curve $-1 150 -150 -55 -1 0 0 I I #
coedge $-1 $425 $424 $680 $681 1 $426 $-1 #
edge $-1 $682 $427 $425 $683 0 #
face $-1 $650 $426 $5 $-1 $301 reversed single #
point $-1 305 -150 -55 #
coedge $-1 $429 $428 $684 $685 0 $430 $-1 #
edge $-1 $431 $686 $428 $687 0 #
face $-1 $674 $430 $5 $-1 $232 reversed single #
point $-1 595 -150 -55 #
coedge $-1 $684 $680 $432 $550 1 $688 $-1 #
edge $-1 $551 $553 $549 $647 0 #
vertex $-1 $685 $689 #
straight-curve $-1 595 0 -145 0 -1 0 I I #
vertex $-1 $550 $690 #
straight-curve $-1 305 0 -145 0 1 -0 I I #
loop $-1 $-1 $691 $437 #
coedge $-1 $692 $693 $694 $695 1 $438 $-1 #
coedge $-1 $696 $440 $697 $698 1 $347 $-1 #
coedge $-1 $440 $696 $699 $700 0 $347 $-1 #
coedge $-1 $701 $702 $440 $560 1 $703 $-1 #
edge $-1 $704 $705 $440 $706 0 #
coedge $-1 $442 $441 $707 $708 0 $269 $-1 #
coedge $-1 $709 $710 $441 $563 0 $580 $-1 #
edge $-1 $711 $570 $441 $178 0 #
coedge $-1 $712 $713 $442 $565 1 $714 $-1 #
edge $-1 $715 $569 $442 $186 0 #
coedge $-1 $716 $443 $713 $717 0 $568 $-1 #
coedge $-1 $443 $716 $709 $718 0 $568 $-1 #
loop $-1 $-1 $716 $719 #
vertex $-1 $565 $720 #
vertex $-1 $718 $721 #
straight-curve $-1 -295 0 55 0 1 -0 I I #
straight-curve $-1 -305 0 255 0 -1 0 I I #
face $-1 $722 $593 $5 $-1 $232 reversed single #
loop $-1 $-1 $723 $447 #
face $-1 $724 $703 $5 $-1 $725 forward single #
loop $-1 $-1 $726 $450 #
face $-1 $727 $728 $5 $-1 $729 reversed single #
coedge $-1 $456 $602 $654 $730 0 $368 $-1 #
edge $-1 $472 $731 $468 $732 0 #
loop $-1 $733 $734 $115 #
coedge $-1 $735 $736 $737 $738 1 $457 $-1 #
coedge $-1 $739 $458 $692 $740 1 $370 $-1 #
coedge $-1 $458 $739 $741 $742 1 $370 $-1 #
coedge $-1 $743 $744 $458 $585 0 $745 $-1 #
edge $-1 $746 $747 $458 $173 0 #
coedge $-1 $460 $459 $748 $749 0 $310 $-1 #
coedge $-1 $750 $691 $459 $588 0 $555 $-1 #
edge $-1 $751 $594 $459 $752 0 #
coedge $-1 $753 $754 $460 $590 0 $755 $-1 #
edge $-1 $595 $756 $460 $757 0 #
coedge $-1 $758 $461 $754 $759 0 $593 $-1 #
coedge $-1 $461 $758 $750 $760 0 $593 $-1 #
loop $-1 $-1 $591 $573 #
vertex $-1 $462 $761 #
vertex $-1 $462 $762 #
coedge $-1 $763 $726 $463 $597 1 $576 $-1 #
edge $-1 $601 $603 $596 $178 0 #
coedge $-1 $764 $464 $469 $605 1 $600 $-1 #
coedge $-1 $464 $764 $763 $765 1 $600 $-1 #
loop $-1 $-1 $598 $766 #
vertex $-1 $597 $767 #
coedge $-1 $578 $466 $726 $768 1 $368 $-1 #
vertex $-1 $467 $769 #
coedge $-1 $469 $468 $770 $771 1 $470 $-1 #
edge $-1 $772 $471 $469 $773 0 #
face $-1 $774 $470 $5 $-1 $129 reversed single #
point $-1 -5 150 45 #
point $-1 -5 150 -45 #
coedge $-1 $775 $473 $476 $613 0 $611 $-1 #
coedge $-1 $473 $775 $479 $617 0 $611 $-1 #
loop $-1 $-1 $610 $774 #
coedge $-1 $476 $475 $776 $777 0 $477 $-1 #
edge $-1 $478 $778 $609 $779 0 #
face $-1 $493 $477 $5 $-1 $631 reversed single #
point $-1 5 150 45 #
coedge $-1 $480 $479 $517 $656 0 $455 $-1 #
edge $-1 $780 $481 $610 $781 0 #
point $-1 5 150 -45 #
coedge $-1 $517 $776 $482 $620 0 $409 $-1 #
edge $-1 $623 $621 $482 $171 0 #
vertex $-1 $656 $782 #
straight-curve $-1 295 0 -45 0 -1 0 I I #
vertex $-1 $620 $783 #
straight-curve $-1 295 0 45 0 1 0 I I #
face $-1 $606 $490 $5 $-1 $301 reversed single #
coedge $-1 $489 $488 $518 $657 0 $490 $-1 #
coedge $-1 $498 $518 $491 $628 1 $329 $-1 #
edge $-1 $502 $629 $627 $784 0 #
vertex $-1 $657 $785 #
straight-curve $-1 305 0 45 0 -1 0 I I #
plane-surface $-1 150 0 45 0 0 1 1 0 0 0 I I I I #
vertex $-1 $657 $786 #
straight-curve $-1 305 0 -45 0 1 -0 I I #
point $-1 595 -150 -45 #
point $-1 595 -150 45 #
coedge $-1 $787 $788 $504 $637 1 $789 $-1 #
edge $-1 $639 $676 $636 $647 0 #
coedge $-1 $505 $531 $787 $790 0 $532 $-1 #
vertex $-1 $790 $791 #
straight-curve $-1 295 0 -145 0 -1 0 I I #
coedge $-1 $792 $521 $507 $642 0 $662 $-1 #
edge $-1 $524 $646 $641 $793 0 #
coedge $-1 $794 $508 $511 $649 1 $645 $-1 #
coedge $-1 $508 $794 $792 $795 0 $645 $-1 #
loop $-1 $789 $643 $115 #
vertex $-1 $509 $796 #
straight-curve $-1 150 150 -145 -1 0 0 I I #
coedge $-1 $511 $510 $797 $798 0 $512 $-1 #
edge $-1 $799 $513 $643 $127 0 #
face $-1 $671 $512 $5 $-1 $129 reversed single #
point $-1 -5 150 -145 #
point $-1 -5 -150 -145 #
loop $-1 $800 $801 $120 #
coedge $-1 $802 $770 $578 $730 1 $516 $-1 #
coedge $-1 $776 $517 $775 $803 1 $409 $-1 #
edge $-1 $780 $621 $517 $658 0 #
edge $-1 $629 $632 $626 $296 0 #
straight-curve $-1 150 -150 -45 1 0 0 I I #
coedge $-1 $804 $797 $520 $660 0 $728 $-1 #
edge $-1 $664 $663 $520 $540 0 #
coedge $-1 $521 $792 $804 $805 0 $662 $-1 #
loop $-1 $-1 $641 $806 #
vertex $-1 $522 $807 #
vertex $-1 $523 $808 #
point $-1 -295 -150 -145 #
coedge $-1 $809 $525 $528 $670 1 $668 $-1 #
coedge $-1 $525 $809 $531 $673 1 $668 $-1 #
loop $-1 $-1 $667 $727 #
coedge $-1 $528 $527 $788 $810 1 $529 $-1 #
edge $-1 $811 $530 $528 $812 0 #
face $-1 $806 $529 $5 $-1 $305 reversed single #
point $-1 5 -150 -55 #
edge $-1 $533 $813 $531 $814 0 #
face $-1 $543 $532 $5 $-1 $76 reversed single #
point $-1 295 -150 -55 #
vertex $-1 $637 $815 #
straight-curve $-1 5 0 -145 0 1 -0 I I #
coedge $-1 $538 $537 $816 $817 0 $539 $-1 #
face $-1 $547 $539 $5 $-1 $729 reversed single #
coedge $-1 $549 $816 $541 $681 0 $688 $-1 #
edge $-1 $682 $553 $541 $292 0 #
vertex $-1 $681 $818 #
straight-curve $-1 305 0 -55 0 -1 0 I I #
coedge $-1 $816 $549 $545 $685 1 $688 $-1 #
edge $-1 $686 $551 $684 $230 0 #
vertex $-1 $685 $819 #
straight-curve $-1 595 0 -55 0 1 0 I I #
loop $-1 $200 $684 $115 #
point $-1 595 150 -145 #
point $-1 305 150 -145 #
coedge $-1 $587 $820 $821 $822 1 $555 $-1 #
coedge $-1 $823 $556 $582 $740 0 $438 $-1 #
coedge $-1 $556 $823 $824 $825 0 $438 $-1 #
coedge $-1 $826 $827 $556 $695 0 $828 $-1 #
edge $-1 $829 $830 $694 $831 0 #
coedge $-1 $558 $557 $723 $832 0 $347 $-1 #
coedge $-1 $736 $735 $557 $698 0 $457 $-1 #
edge $-1 $833 $705 $557 $178 0 #
coedge $-1 $834 $835 $558 $700 1 $836 $-1 #
edge $-1 $837 $704 $558 $186 0 #
coedge $-1 $838 $559 $835 $839 0 $703 $-1 #
coedge $-1 $559 $838 $736 $840 0 $703 $-1 #
loop $-1 $-1 $838 $575 #
vertex $-1 $700 $841 #
vertex $-1 $840 $842 #
straight-curve $-1 -295 0 155 0 1 -0 I I #
coedge $-1 $843 $844 $561 $708 1 $845 $-1 #
edge $-1 $711 $715 $561 $846 0 #
coedge $-1 $734 $562 $567 $718 1 $580 $-1 #
coedge $-1 $562 $734 $843 $847 1 $580 $-1 #
vertex $-1 $563 $848 #
coedge $-1 $849 $564 $844 $850 1 $714 $-1 #
coedge $-1 $564 $849 $566 $717 1 $714 $-1 #
loop $-1 $851 $713 $120 #
vertex $-1 $565 $852 #
coedge $-1 $567 $566 $853 $854 1 $568 $-1 #
edge $-1 $569 $855 $713 $856 0 #
edge $-1 $857 $570 $709 $858 0 #
face $-1 $859 $568 $5 $-1 $860 forward single #
point $-1 -295 -150 55 #
point $-1 -295 150 55 #
face $-1 $861 $745 $5 $-1 $76 reversed single #
coedge $-1 $862 $863 $696 $832 1 $574 $-1 #
face $-1 $864 $865 $5 $-1 $725 forward single #
plane-surface $-1 150 0 155 0 0 1 1 0 0 0 I I I I #
coedge $-1 $596 $866 $602 $768 0 $576 $-1 #
face $-1 $679 $668 $5 $-1 $729 reversed single #
loop $-1 $-1 $797 $577 #
plane-surface $-1 150 0 -55 0 0 1 1 0 0 0 I I I I #
edge $-1 $867 $731 $654 $658 0 #
vertex $-1 $730 $868 #
straight-curve $-1 -5 0 -45 0 -1 0 I I #
loop $-1 $869 $870 $115 #
coedge $-1 $710 $709 $871 $872 1 $580 $-1 #
coedge $-1 $697 $581 $862 $873 1 $457 $-1 #
coedge $-1 $581 $697 $702 $840 1 $457 $-1 #
coedge $-1 $874 $875 $581 $738 0 $876 $-1 #
edge $-1 $877 $878 $581 $127 0 #
coedge $-1 $583 $582 $827 $879 0 $370 $-1 #
edge $-1 $829 $746 $582 $752 0 #
coedge $-1 $880 $881 $583 $742 0 $865 $-1 #
edge $-1 $747 $882 $583 $757 0 #
coedge $-1 $883 $584 $881 $884 0 $745 $-1 #
coedge $-1 $584 $883 $823 $885 0 $745 $-1 #
loop $-1 $-1 $743 $722 #
vertex $-1 $585 $886 #
vertex $-1 $585 $887 #
coedge $-1 $821 $888 $586 $749 1 $889 $-1 #
edge $-1 $751 $756 $748 $292 0 #
coedge $-1 $820 $587 $592 $760 1 $555 $-1 #
vertex $-1 $749 $890 #
straight-curve $-1 150 150 245 1 0 0 I I #
coedge $-1 $891 $589 $888 $892 1 $755 $-1 #
coedge $-1 $589 $891 $591 $759 1 $755 $-1 #
loop $-1 $-1 $754 $864 #
vertex $-1 $590 $893 #
straight-curve $-1 150 150 155 -1 0 0 I I #
coedge $-1 $592 $591 $894 $895 1 $593 $-1 #
edge $-1 $595 $896 $591 $897 0 #
edge $-1 $898 $594 $592 $899 0 #
point $-1 595 150 245 #
point $-1 595 150 155 #
coedge $-1 $866 $596 $599 $765 0 $576 $-1 #
coedge $-1 $599 $598 $900 $901 0 $600 $-1 #
edge $-1 $601 $902 $763 $903 0 #
face $-1 $614 $600 $5 $-1 $631 reversed single #
point $-1 -295 150 45 #
edge $-1 $867 $603 $726 $904 0 #
point $-1 -295 150 -45 #
coedge $-1 $654 $900 $604 $771 0 $516 $-1 #
edge $-1 $772 $731 $604 $125 0 #
vertex $-1 $771 $905 #
straight-curve $-1 -5 0 45 0 1 0 I I #
face $-1 $357 $611 $5 $-1 $305 reversed single #
coedge $-1 $610 $609 $655 $803 0 $611 $-1 #
coedge $-1 $619 $655 $612 $777 1 $409 $-1 #
edge $-1 $623 $778 $776 $784 0 #
vertex $-1 $803 $906 #
straight-curve $-1 5 0 45 0 -1 0 I I #
vertex $-1 $803 $907 #
straight-curve $-1 5 0 -45 0 1 -0 I I #
point $-1 295 -150 -45 #
point $-1 295 -150 45 #
straight-curve $-1 150 -150 45 -1 0 0 I I #
point $-1 305 -150 45 #
point $-1 305 -150 -45 #
coedge $-1 $908 $636 $638 $790 1 $789 $-1 #
coedge $-1 $636 $908 $669 $810 0 $789 $-1 #
loop $-1 $688 $787 $115 #
edge $-1 $813 $639 $787 $173 0 #
point $-1 295 150 -145 #
coedge $-1 $661 $641 $644 $795 1 $662 $-1 #
straight-curve $-1 -295 0 -145 0 1 -0 I I #
coedge $-1 $644 $643 $909 $910 1 $645 $-1 #
edge $-1 $911 $646 $792 $178 0 #
point $-1 -295 150 -145 #
coedge $-1 $659 $909 $648 $798 1 $728 $-1 #
edge $-1 $664 $799 $648 $912 0 #
vertex $-1 $649 $913 #
loop $-1 $714 $914 $120 #
coedge $-1 $915 $916 $917 $918 1 $653 $-1 #
coedge $-1 $900 $654 $866 $919 1 $516 $-1 #
edge $-1 $778 $780 $775 $242 0 #
coedge $-1 $909 $659 $661 $805 1 $728 $-1 #
edge $-1 $911 $663 $661 $920 0 #
face $-1 $719 $662 $5 $-1 $196 reversed single #
point $-1 -295 -150 -55 #
point $-1 -5 -150 -55 #
coedge $-1 $667 $666 $908 $921 0 $668 $-1 #
edge $-1 $811 $676 $669 $238 0 #
vertex $-1 $810 $922 #
straight-curve $-1 5 0 -55 0 -1 0 I I #
vertex $-1 $790 $923 #
straight-curve $-1 295 0 -55 0 1 0 I I #
point $-1 5 150 -145 #
coedge $-1 $680 $684 $678 $817 1 $688 $-1 #
edge $-1 $682 $686 $816 $924 0 #
point $-1 305 150 -55 #
point $-1 595 150 -55 #
coedge $-1 $691 $750 $925 $926 0 $555 $-1 #
coedge $-1 $927 $748 $691 $822 0 $889 $-1 #
edge $-1 $751 $928 $821 $929 0 #
coedge $-1 $693 $692 $744 $885 1 $438 $-1 #
coedge $-1 $930 $931 $693 $825 1 $932 $-1 #
edge $-1 $933 $830 $824 $934 0 #
coedge $-1 $935 $694 $931 $936 0 $828 $-1 #
coedge $-1 $694 $935 $739 $879 1 $828 $-1 #
loop $-1 $-1 $935 $937 #
vertex $-1 $879 $938 #
vertex $-1 $936 $939 #
straight-curve $-1 5 0 245 0 -1 0 I I #
edge $-1 $833 $837 $696 $940 0 #
vertex $-1 $698 $941 #
coedge $-1 $942 $699 $863 $943 1 $836 $-1 #
coedge $-1 $699 $942 $701 $839 1 $836 $-1 #
loop $-1 $-1 $835 $120 #
vertex $-1 $700 $944 #
coedge $-1 $702 $701 $874 $945 1 $703 $-1 #
edge $-1 $704 $946 $835 $947 0 #
edge $-1 $878 $705 $736 $757 0 #
point $-1 -295 -150 155 #
point $-1 -295 150 155 #
coedge $-1 $948 $707 $710 $847 0 $845 $-1 #
coedge $-1 $707 $948 $712 $850 0 $845 $-1 #
loop $-1 $-1 $948 $949 #
straight-curve $-1 -295 0 145 0 -1 0 I I #
edge $-1 $711 $950 $710 $951 0 #
point $-1 -295 150 145 #
coedge $-1 $713 $712 $952 $953 0 $714 $-1 #
edge $-1 $954 $715 $712 $955 0 #
loop $-1 $932 $956 $120 #
point $-1 -295 -150 145 #
coedge $-1 $952 $871 $716 $854 0 $957 $-1 #
edge $-1 $857 $855 $853 $958 0 #
vertex $-1 $717 $959 #
straight-curve $-1 150 -150 55 1 0 0 I I #
vertex $-1 $872 $960 #
straight-curve $-1 150 150 55 -1 0 0 I I #
face $-1 $961 $962 $5 $-1 $860 forward single #
plane-surface $-1 150 0 55 0 0 1 1 0 0 0 I I I I #
face $-1 $963 $889 $5 $-1 $301 reversed single #
coedge $-1 $964 $723 $735 $873 0 $574 $-1 #
coedge $-1 $723 $964 $834 $943 0 $574 $-1 #
face $-1 $949 $755 $5 $-1 $725 forward single #
loop $-1 $-1 $881 $724 #
coedge $-1 $726 $763 $802 $919 0 $576 $-1 #
vertex $-1 $919 $965 #
point $-1 -5 -150 -45 #
loop $-1 $645 $966 $115 #
coedge $-1 $967 $968 $969 $970 1 $733 $-1 #
coedge $-1 $853 $971 $734 $872 0 $957 $-1 #
edge $-1 $950 $857 $734 $127 0 #
edge $-1 $833 $877 $735 $752 0 #
coedge $-1 $972 $737 $838 $945 0 $876 $-1 #
coedge $-1 $737 $972 $964 $973 0 $876 $-1 #
loop $-1 $-1 $874 $963 #
vertex $-1 $738 $974 #
vertex $-1 $738 $975 #
edge $-1 $829 $882 $827 $238 0 #
coedge $-1 $976 $741 $935 $977 1 $865 $-1 #
coedge $-1 $741 $976 $743 $884 1 $865 $-1 #
vertex $-1 $742 $978 #
coedge $-1 $744 $743 $930 $979 1 $745 $-1 #
edge $-1 $747 $980 $743 $981 0 #
edge $-1 $933 $746 $744 $982 0 #
point $-1 295 150 245 #
point $-1 295 150 155 #
coedge $-1 $748 $927 $753 $892 0 $889 $-1 #
loop $-1 $-1 $888 $861 #
point $-1 305 150 245 #
coedge $-1 $754 $753 $956 $983 0 $755 $-1 #
edge $-1 $984 $756 $888 $985 0 #
point $-1 305 150 155 #
coedge $-1 $956 $925 $758 $895 0 $851 $-1 #
edge $-1 $898 $896 $758 $228 0 #
vertex $-1 $983 $986 #
straight-curve $-1 595 0 155 0 -1 0 I I #
vertex $-1 $895 $987 #
straight-curve $-1 595 0 245 0 1 0 I I #
coedge $-1 $770 $802 $764 $901 1 $516 $-1 #
edge $-1 $772 $902 $900 $784 0 #
vertex $-1 $919 $988 #
straight-curve $-1 -295 0 45 0 -1 0 I I #
straight-curve $-1 -295 0 -45 0 1 -0 I I #
point $-1 -5 -150 45 #
point $-1 5 -150 45 #
point $-1 5 -150 -45 #
coedge $-1 $788 $787 $809 $921 1 $789 $-1 #
coedge $-1 $797 $804 $794 $910 0 $728 $-1 #
edge $-1 $911 $799 $794 $924 0 #
vertex $-1 $795 $989 #
straight-curve $-1 -5 0 -55 0 1 0 I I #
point $-1 -5 150 -55 #
coedge $-1 $990 $991 $992 $993 1 $800 $-1 #
coedge $-1 $994 $801 $995 $996 1 $653 $-1 #
coedge $-1 $801 $994 $997 $998 0 $653 $-1 #
coedge $-1 $999 $1000 $801 $918 0 $1001 $-1 #
edge $-1 $1002 $1003 $801 $856 0 #
edge $-1 $902 $867 $866 $186 0 #
straight-curve $-1 -295 0 -55 0 -1 0 I I #
edge $-1 $811 $813 $908 $924 0 #
point $-1 5 150 -55 #
point $-1 295 150 -55 #
straight-curve $-1 150 150 -55 1 0 0 I I #
coedge $-1 $894 $1004 $820 $926 1 $851 $-1 #
edge $-1 $898 $928 $925 $934 0 #
coedge $-1 $888 $821 $1004 $1005 0 $889 $-1 #
vertex $-1 $1005 $1006 #
straight-curve $-1 305 0 245 0 -1 0 I I #
coedge $-1 $1007 $824 $883 $979 0 $932 $-1 #
coedge $-1 $824 $1007 $826 $936 1 $932 $-1 #
loop $-1 $836 $1007 $120 #
vertex $-1 $979 $1008 #
straight-curve $-1 150 -150 245 -1 0 0 I I #
coedge $-1 $827 $826 $880 $977 0 $828 $-1 #
edge $-1 $830 $1009 $826 $242 0 #
face $-1 $-1 $828 $5 $-1 $305 reversed single #
point $-1 5 150 245 #
point $-1 5 -150 245 #
straight-curve $-1 -295 0 245 0 -1 0 I I #
point $-1 -295 150 245 #
coedge $-1 $835 $834 $972 $1010 0 $836 $-1 #
edge $-1 $1011 $837 $834 $934 0 #
point $-1 -295 -150 245 #
edge $-1 $878 $946 $874 $1012 0 #
vertex $-1 $839 $1013 #
straight-curve $-1 150 -150 155 1 0 0 I I #
coedge $-1 $844 $843 $971 $1014 1 $845 $-1 #
face $-1 $1015 $845 $5 $-1 $1016 reversed single #
vertex $-1 $872 $1017 #
straight-curve $-1 150 150 145 1 0 0 I I #
coedge $-1 $971 $853 $849 $953 1 $957 $-1 #
edge $-1 $954 $855 $952 $125 0 #
vertex $-1 $953 $1018 #
straight-curve $-1 150 -150 145 -1 0 0 I I #
coedge $-1 $1004 $894 $891 $983 1 $851 $-1 #
loop $-1 $-1 $853 $1019 #
straight-curve $-1 -5 0 55 0 -1 0 I I #
point $-1 -5 -150 55 #
point $-1 -5 150 55 #
face $-1 $766 $1001 $5 $-1 $860 forward single #
loop $-1 $-1 $1020 $859 #
face $-1 $937 $876 $5 $-1 $129 reversed single #
coedge $-1 $863 $862 $875 $973 1 $574 $-1 #
point $-1 -295 -150 -45 #
coedge $-1 $1021 $1022 $1023 $1024 1 $869 $-1 #
coedge $-1 $1025 $870 $1026 $1027 1 $733 $-1 #
coedge $-1 $870 $1025 $1028 $1029 1 $733 $-1 #
coedge $-1 $1030 $1031 $870 $970 0 $1032 $-1 #
edge $-1 $1033 $1034 $870 $173 0 #
coedge $-1 $871 $952 $948 $1014 0 $957 $-1 #
coedge $-1 $875 $874 $942 $1010 1 $876 $-1 #
edge $-1 $1011 $877 $875 $1035 0 #
point $-1 -5 150 245 #
point $-1 -5 150 155 #
coedge $-1 $881 $880 $1007 $1036 0 $865 $-1 #
edge $-1 $1009 $882 $935 $1037 0 #
point $-1 5 150 155 #
edge $-1 $933 $980 $883 $171 0 #
vertex $-1 $1036 $1038 #
straight-curve $-1 295 0 155 0 -1 0 I I #
straight-curve $-1 295 0 245 0 1 0 I I #
edge $-1 $984 $896 $956 $947 0 #
vertex $-1 $1005 $1039 #
straight-curve $-1 305 0 155 0 1 -0 I I #
point $-1 595 -150 155 #
point $-1 595 -150 245 #
point $-1 -295 -150 45 #
point $-1 -295 150 -55 #
coedge $-1 $1040 $914 $1041 $1042 1 $800 $-1 #
coedge $-1 $914 $1040 $1043 $1044 0 $800 $-1 #
coedge $-1 $1020 $1045 $914 $993 0 $962 $-1 #
edge $-1 $1046 $1047 $914 $856 0 #
coedge $-1 $916 $915 $1048 $1049 1 $653 $-1 #
coedge $-1 $1050 $1051 $915 $996 0 $1052 $-1 #
edge $-1 $1053 $1002 $995 $296 0 #
coedge $-1 $1054 $1055 $916 $998 1 $1056 $-1 #
edge $-1 $1057 $1003 $997 $228 0 #
coedge $-1 $1058 $917 $1055 $1059 1 $1001 $-1 #
coedge $-1 $917 $1058 $1050 $1060 1 $1001 $-1 #
loop $-1 $-1 $999 $961 #
vertex $-1 $996 $1061 #
vertex $-1 $918 $1062 #
coedge $-1 $925 $956 $927 $1005 1 $851 $-1 #
edge $-1 $928 $984 $927 $296 0 #
point $-1 305 -150 245 #
coedge $-1 $931 $930 $976 $1036 1 $932 $-1 #
point $-1 295 -150 245 #
vertex $-1 $936 $1063 #
edge $-1 $1011 $946 $972 $125 0 #
vertex $-1 $1010 $1064 #
straight-curve $-1 -5 0 155 0 -1 0 I I #
point $-1 -5 -150 155 #
edge $-1 $954 $950 $971 $1065 0 #
face $-1 $1066 $1067 $5 $-1 $1016 reversed single #
plane-surface $-1 150 0 145 0 0 1 1 0 0 0 I I I I #
point $-1 -5 150 145 #
point $-1 -5 -150 145 #
face $-1 $1068 $957 $5 $-1 $129 reversed single #
coedge $-1 $1028 $992 $1030 $1069 1 $962 $-1 #
coedge $-1 $1070 $966 $1071 $1072 1 $869 $-1 #
coedge $-1 $966 $1070 $1058 $1073 1 $869 $-1 #
coedge $-1 $1055 $1054 $966 $1024 0 $1056 $-1 #
edge $-1 $1074 $1075 $966 $230 0 #
coedge $-1 $968 $967 $1076 $1077 0 $733 $-1 #
coedge $-1 $1078 $1079 $967 $1027 0 $1067 $-1 #
edge $-1 $1080 $1033 $967 $951 0 #
coedge $-1 $1045 $1020 $968 $1029 0 $962 $-1 #
edge $-1 $1034 $1081 $968 $858 0 #
coedge $-1 $1043 $969 $1020 $1069 0 $1032 $-1 #
coedge $-1 $969 $1043 $1078 $1082 0 $1032 $-1 #
loop $-1 $-1 $1030 $1083 #
vertex $-1 $970 $1084 #
vertex $-1 $970 $1085 #
straight-curve $-1 -5 0 245 0 1 0 I I #
edge $-1 $1009 $980 $1007 $947 0 #
straight-curve $-1 5 0 155 0 1 -0 I I #
point $-1 295 -150 155 #
point $-1 305 -150 155 #
coedge $-1 $991 $990 $1086 $1087 1 $800 $-1 #
coedge $-1 $1088 $1089 $990 $1042 0 $1090 $-1 #
edge $-1 $1091 $1046 $1041 $242 0 #
coedge $-1 $1031 $1030 $991 $1044 1 $1032 $-1 #
edge $-1 $1092 $1047 $1043 $171 0 #
coedge $-1 $992 $1028 $1088 $1093 1 $962 $-1 #
vertex $-1 $1042 $1094 #
vertex $-1 $993 $1095 #
coedge $-1 $1096 $1097 $994 $1049 0 $1098 $-1 #
edge $-1 $1057 $1053 $994 $955 0 #
coedge $-1 $1099 $995 $1000 $1060 0 $1052 $-1 #
coedge $-1 $995 $1099 $1096 $1100 0 $1052 $-1 #
loop $-1 $-1 $1050 $1101 #
vertex $-1 $996 $1102 #
coedge $-1 $1023 $997 $1097 $1103 0 $1056 $-1 #
coedge $-1 $997 $1023 $999 $1059 0 $1056 $-1 #
loop $-1 $-1 $1055 $1104 #
vertex $-1 $998 $1105 #
coedge $-1 $1000 $999 $1022 $1073 0 $1001 $-1 #
edge $-1 $1075 $1003 $1055 $1106 0 #
edge $-1 $1002 $1107 $1050 $1108 0 #
point $-1 305 -150 55 #
point $-1 595 -150 55 #
point $-1 5 -150 155 #
point $-1 -5 -150 245 #
straight-curve $-1 -5 0 145 0 1 0 I I #
face $-1 $1104 $1098 $5 $-1 $1016 reversed single #
loop $-1 $-1 $1078 $1015 #
face $-1 $120 $1090 $5 $-1 $305 reversed single #
edge $-1 $1034 $1047 $1030 $1109 0 #
coedge $-1 $1022 $1021 $1099 $1110 0 $869 $-1 #
coedge $-1 $1097 $1096 $1021 $1072 0 $1098 $-1 #
edge $-1 $1111 $1074 $1021 $951 0 #
edge $-1 $1075 $1107 $1022 $858 0 #
vertex $-1 $1024 $1112 #
vertex $-1 $1024 $1113 #
coedge $-1 $1089 $1088 $1025 $1077 1 $1090 $-1 #
edge $-1 $1080 $1081 $1076 $238 0 #
coedge $-1 $1086 $1026 $1031 $1082 1 $1067 $-1 #
coedge $-1 $1026 $1086 $1089 $1114 1 $1067 $-1 #
vertex $-1 $1077 $1115 #
vertex $-1 $1029 $1116 #
edge $-1 $1092 $1033 $1031 $1117 0 #
face $-1 $1101 $1032 $5 $-1 $76 reversed single #
point $-1 295 150 145 #
point $-1 295 150 55 #
coedge $-1 $1079 $1078 $1040 $1087 0 $1067 $-1 #
edge $-1 $1092 $1091 $1040 $955 0 #
coedge $-1 $1076 $1041 $1045 $1093 0 $1090 $-1 #
coedge $-1 $1041 $1076 $1079 $1114 0 $1090 $-1 #
loop $-1 $-1 $1088 $1068 #
vertex $-1 $1042 $1118 #
vertex $-1 $1044 $1119 #
edge $-1 $1046 $1081 $1088 $1120 0 #
point $-1 5 -150 55 #
point $-1 295 -150 55 #
coedge $-1 $1071 $1048 $1051 $1100 1 $1098 $-1 #
coedge $-1 $1048 $1071 $1054 $1103 1 $1098 $-1 #
loop $-1 $-1 $1097 $1066 #
coedge $-1 $1051 $1050 $1070 $1110 1 $1052 $-1 #
edge $-1 $1111 $1053 $1051 $1121 0 #
face $-1 $1019 $1052 $5 $-1 $301 reversed single #
point $-1 305 -150 145 #
edge $-1 $1057 $1074 $1054 $1122 0 #
face $-1 $1083 $1056 $5 $-1 $232 reversed single #
point $-1 595 -150 145 #
straight-curve $-1 595 0 55 0 -1 0 I I #
vertex $-1 $1073 $1123 #
straight-curve $-1 305 0 55 0 1 -0 I I #
straight-curve $-1 295 0 55 0 -1 0 I I #
edge $-1 $1111 $1107 $1099 $292 0 #
vertex $-1 $1110 $1124 #
point $-1 595 150 145 #
point $-1 595 150 55 #
edge $-1 $1080 $1091 $1089 $1125 0 #
point $-1 5 150 145 #
point $-1 5 150 55 #
straight-curve $-1 295 0 145 0 1 0 I I #
point $-1 5 -150 145 #
point $-1 295 -150 145 #
straight-curve $-1 5 0 55 0 1 -0 I I #
straight-curve $-1 305 0 145 0 -1 0 I I #
straight-curve $-1 595 0 145 0 1 0 I I #
point $-1 305 150 55 #
point $-1 305 150 145 #
straight-curve $-1 5 0 145 0 -1 0 I I #
End-of-ACIS-data 