201 0 1 0           
23 ACIS Test Harness - 2.1 16 ACIS 2.1 Solaris 24 Thu Jan 16 15:17:49 1997 
-1 9.999999999999999547e-07 1.000000000000000036e-10 
body $-1 $1 $-1 $2 #
lump $-1 $-1 $3 $0 #
transform $-1 1 0 0 0 1 0 0 0 1 -150 0 255 1 no_rotate no_reflect no_shear #
shell $-1 $-1 $-1 $4 $-1 $1 #
face $-1 $5 $6 $3 $-1 $7 forward single #
face $-1 $8 $9 $3 $-1 $7 forward single #
loop $-1 $-1 $10 $4 #
plane-surface $-1 150 0 -245 0 0 1 1 0 0 forward_v I I I I #
face $-1 $11 $12 $3 $-1 $7 forward single #
loop $-1 $-1 $13 $5 #
coedge $-1 $14 $15 $16 $17 1 $6 $-1 #
face $-1 $18 $19 $3 $-1 $20 reversed single #
loop $-1 $-1 $21 $8 #
coedge $-1 $22 $23 $24 $25 1 $9 $-1 #
coedge $-1 $26 $10 $27 $28 0 $6 $-1 #
coedge $-1 $10 $26 $29 $30 0 $6 $-1 #
coedge $-1 $31 $32 $10 $17 0 $33 $-1 #
edge $-1 $34 $35 $16 $36 forward #
face $-1 $37 $38 $3 $-1 $39 reversed single #
loop $-1 $-1 $40 $11 #
plane-surface $-1 150 0 -255 0 0 1 1 0 0 forward_v I I I I #
coedge $-1 $41 $42 $43 $44 1 $12 $-1 #
coedge $-1 $45 $13 $46 $47 0 $9 $-1 #
coedge $-1 $13 $45 $48 $49 0 $9 $-1 #
coedge $-1 $50 $51 $13 $25 0 $52 $-1 #
edge $-1 $53 $54 $24 $55 forward #
coedge $-1 $15 $14 $56 $57 1 $6 $-1 #
coedge $-1 $58 $59 $14 $28 1 $60 $-1 #
edge $-1 $34 $61 $27 $62 forward #
coedge $-1 $63 $64 $15 $30 1 $65 $-1 #
edge $-1 $66 $35 $29 $67 forward #
coedge $-1 $68 $16 $64 $69 1 $33 $-1 #
coedge $-1 $16 $68 $58 $70 0 $33 $-1 #
loop $-1 $-1 $16 $71 #
vertex $-1 $70 $72 #
vertex $-1 $30 $73 #
straight-curve $-1 -5 0 -245 0 -1 0 I I #
face $-1 $71 $52 $3 $-1 $74 reversed single #
loop $-1 $-1 $75 $18 #
plane-surface $-1 605 0 0 -1 0 0 0 0 1 forward_v I I I I #
coedge $-1 $76 $77 $78 $79 0 $19 $-1 #
coedge $-1 $80 $21 $81 $82 0 $12 $-1 #
coedge $-1 $21 $80 $83 $84 0 $12 $-1 #
coedge $-1 $85 $86 $21 $44 0 $87 $-1 #
edge $-1 $88 $89 $43 $90 forward #
coedge $-1 $23 $22 $91 $92 1 $9 $-1 #
coedge $-1 $93 $94 $22 $47 1 $95 $-1 #
edge $-1 $53 $96 $46 $62 forward #
coedge $-1 $97 $98 $23 $49 1 $99 $-1 #
edge $-1 $100 $54 $48 $67 forward #
coedge $-1 $101 $24 $98 $102 1 $52 $-1 #
coedge $-1 $24 $101 $93 $103 0 $52 $-1 #
loop $-1 $-1 $24 $37 #
vertex $-1 $103 $104 #
vertex $-1 $49 $105 #
straight-curve $-1 295 0 -245 0 -1 0 I I #
coedge $-1 $106 $107 $26 $57 0 $108 $-1 #
edge $-1 $66 $61 $56 $109 forward #
coedge $-1 $110 $27 $32 $70 1 $60 $-1 #
coedge $-1 $27 $110 $106 $111 0 $60 $-1 #
loop $-1 $112 $58 $113 #
vertex $-1 $28 $114 #
straight-curve $-1 150 150 -245 -1 0 0 I I #
coedge $-1 $115 $29 $107 $116 1 $65 $-1 #
coedge $-1 $29 $115 $31 $69 0 $65 $-1 #
loop $-1 $117 $29 $118 #
vertex $-1 $116 $119 #
straight-curve $-1 150 -150 -245 1 0 0 I I #
coedge $-1 $32 $31 $120 $121 0 $33 $-1 #
edge $-1 $122 $35 $31 $123 forward #
edge $-1 $124 $34 $58 $125 forward #
face $-1 $126 $33 $3 $-1 $127 reversed single #
point $-1 -5 150 -245 #
point $-1 -5 -150 -245 #
plane-surface $-1 295 0 0 1 0 0 0 0 -1 forward_v I I I I #
coedge $-1 $128 $78 $129 $130 1 $38 $-1 #
coedge $-1 $131 $40 $132 $133 0 $19 $-1 #
coedge $-1 $40 $131 $134 $135 0 $19 $-1 #
coedge $-1 $75 $136 $40 $79 1 $38 $-1 #
edge $-1 $137 $138 $78 $139 forward #
coedge $-1 $42 $41 $140 $141 1 $12 $-1 #
coedge $-1 $142 $143 $41 $82 1 $144 $-1 #
edge $-1 $88 $145 $81 $62 forward #
coedge $-1 $146 $147 $42 $84 1 $148 $-1 #
edge $-1 $149 $89 $83 $67 forward #
coedge $-1 $150 $43 $147 $151 1 $87 $-1 #
coedge $-1 $43 $150 $142 $152 0 $87 $-1 #
loop $-1 $-1 $43 $153 #
vertex $-1 $152 $154 #
vertex $-1 $84 $155 #
straight-curve $-1 595 0 -245 0 -1 0 I I #
coedge $-1 $156 $157 $45 $92 0 $158 $-1 #
edge $-1 $100 $96 $91 $159 forward #
coedge $-1 $160 $46 $51 $103 1 $95 $-1 #
coedge $-1 $46 $160 $156 $161 0 $95 $-1 #
loop $-1 $60 $93 $113 #
vertex $-1 $47 $162 #
coedge $-1 $163 $48 $157 $164 1 $99 $-1 #
coedge $-1 $48 $163 $50 $102 0 $99 $-1 #
loop $-1 $65 $48 $118 #
vertex $-1 $164 $165 #
coedge $-1 $51 $50 $166 $167 0 $52 $-1 #
edge $-1 $168 $54 $50 $169 forward #
edge $-1 $170 $53 $93 $171 forward #
point $-1 295 150 -245 #
point $-1 295 -150 -245 #
coedge $-1 $172 $56 $59 $111 1 $108 $-1 #
coedge $-1 $56 $172 $63 $116 0 $108 $-1 #
loop $-1 $-1 $56 $126 #
straight-curve $-1 -295 0 -245 0 1 -0 I I #
coedge $-1 $59 $58 $173 $174 1 $60 $-1 #
edge $-1 $175 $61 $106 $176 forward #
loop $-1 $177 $178 $113 #
face $-1 $179 $144 $3 $-1 $180 reversed single #
point $-1 -295 150 -245 #
coedge $-1 $64 $63 $181 $182 1 $65 $-1 #
edge $-1 $183 $66 $107 $184 forward #
loop $-1 $185 $186 $118 #
face $-1 $187 $188 $3 $-1 $189 reversed single #
point $-1 -295 -150 -245 #
coedge $-1 $181 $173 $68 $121 1 $190 $-1 #
edge $-1 $122 $124 $68 $191 forward #
vertex $-1 $69 $192 #
straight-curve $-1 -5 -150 0 0 0 -1 I I #
vertex $-1 $70 $193 #
straight-curve $-1 -5 150 0 0 0 -1 I I #
face $-1 $113 $108 $3 $-1 $194 reversed single #
plane-surface $-1 -5 0 0 1 0 0 0 0 -1 forward_v I I I I #
coedge $-1 $136 $75 $195 $196 1 $38 $-1 #
coedge $-1 $134 $197 $75 $130 0 $198 $-1 #
edge $-1 $199 $137 $75 $200 forward #
coedge $-1 $77 $76 $201 $202 0 $19 $-1 #
coedge $-1 $203 $204 $76 $133 1 $188 $-1 #
edge $-1 $138 $205 $132 $206 forward #
coedge $-1 $207 $129 $77 $135 1 $198 $-1 #
edge $-1 $208 $137 $134 $209 forward #
coedge $-1 $78 $128 $203 $210 0 $38 $-1 #
vertex $-1 $79 $211 #
vertex $-1 $210 $212 #
straight-curve $-1 605 0 -255 0 -1 0 I I #
coedge $-1 $213 $214 $80 $141 0 $215 $-1 #
edge $-1 $149 $145 $140 $216 forward #
coedge $-1 $217 $81 $86 $152 1 $144 $-1 #
coedge $-1 $81 $217 $213 $218 0 $144 $-1 #
loop $-1 $95 $142 $113 #
vertex $-1 $82 $219 #
coedge $-1 $220 $83 $214 $221 1 $148 $-1 #
coedge $-1 $83 $220 $85 $151 0 $148 $-1 #
loop $-1 $99 $83 $118 #
vertex $-1 $221 $222 #
coedge $-1 $86 $85 $223 $224 0 $87 $-1 #
edge $-1 $225 $89 $85 $226 forward #
edge $-1 $227 $88 $142 $228 forward #
face $-1 $229 $87 $3 $-1 $230 reversed single #
point $-1 595 150 -245 #
point $-1 595 -150 -245 #
coedge $-1 $231 $91 $94 $161 1 $158 $-1 #
coedge $-1 $91 $231 $97 $164 0 $158 $-1 #
loop $-1 $-1 $91 $232 #
straight-curve $-1 5 0 -245 0 1 -0 I I #
coedge $-1 $94 $93 $233 $234 1 $95 $-1 #
edge $-1 $235 $96 $156 $236 forward #
point $-1 5 150 -245 #
coedge $-1 $98 $97 $237 $238 1 $99 $-1 #
edge $-1 $239 $100 $157 $240 forward #
point $-1 5 -150 -245 #
coedge $-1 $237 $233 $101 $167 1 $241 $-1 #
edge $-1 $168 $170 $101 $242 forward #
vertex $-1 $102 $243 #
straight-curve $-1 295 -150 0 0 0 -1 I I #
vertex $-1 $103 $244 #
straight-curve $-1 295 150 0 0 0 -1 I I #
coedge $-1 $107 $106 $245 $246 0 $108 $-1 #
coedge $-1 $120 $245 $110 $174 0 $190 $-1 #
edge $-1 $175 $124 $110 $247 forward #
vertex $-1 $111 $248 #
straight-curve $-1 -295 150 0 0 0 -1 I I #
loop $-1 $249 $250 $113 #
coedge $-1 $251 $252 $253 $254 1 $112 $-1 #
face $-1 $255 $256 $3 $-1 $257 forward single #
plane-surface $-1 -300 150 0 0 -1 0 0 0 -1 forward_v I I I I #
coedge $-1 $245 $120 $115 $182 0 $190 $-1 #
edge $-1 $122 $183 $115 $258 forward #
vertex $-1 $116 $259 #
straight-curve $-1 -295 -150 0 0 0 -1 I I #
loop $-1 $260 $261 $118 #
coedge $-1 $262 $263 $264 $265 1 $117 $-1 #
face $-1 $266 $267 $3 $-1 $194 reversed single #
loop $-1 $148 $203 $118 #
plane-surface $-1 -300 -150 0 0 1 0 0 0 1 forward_v I I I I #
loop $-1 $-1 $120 $268 #
straight-curve $-1 -5 0 -155 0 1 0 I I #
point $-1 -5 -150 -155 #
point $-1 -5 150 -155 #
plane-surface $-1 -295 0 0 -1 0 0 0 0 1 forward_v I I I I #
coedge $-1 $269 $270 $128 $196 0 $271 $-1 #
edge $-1 $272 $199 $128 $273 forward #
coedge $-1 $129 $207 $269 $274 1 $198 $-1 #
loop $-1 $-1 $129 $113 #
vertex $-1 $196 $275 #
straight-curve $-1 605 150 250 0 0 -1 I I #
coedge $-1 $276 $277 $131 $202 1 $278 $-1 #
edge $-1 $205 $208 $201 $279 forward #
coedge $-1 $280 $132 $136 $210 1 $188 $-1 #
coedge $-1 $132 $280 $276 $281 0 $188 $-1 #
vertex $-1 $202 $282 #
straight-curve $-1 150 -150 -255 -1 0 0 I I #
coedge $-1 $197 $134 $277 $283 1 $198 $-1 #
vertex $-1 $135 $284 #
straight-curve $-1 150 150 -255 1 0 0 I I #
edge $-1 $272 $138 $136 $285 forward #
point $-1 605 150 -255 #
point $-1 605 -150 -255 #
coedge $-1 $286 $140 $143 $218 1 $215 $-1 #
coedge $-1 $140 $286 $146 $221 0 $215 $-1 #
loop $-1 $-1 $140 $229 #
straight-curve $-1 305 0 -245 0 1 -0 I I #
coedge $-1 $143 $142 $287 $288 1 $144 $-1 #
edge $-1 $289 $145 $213 $290 forward #
point $-1 305 150 -245 #
coedge $-1 $147 $146 $291 $292 1 $148 $-1 #
edge $-1 $293 $149 $214 $294 forward #
point $-1 305 -150 -245 #
coedge $-1 $291 $287 $150 $224 1 $295 $-1 #
edge $-1 $225 $227 $150 $296 forward #
vertex $-1 $151 $297 #
straight-curve $-1 595 -150 0 0 0 -1 I I #
vertex $-1 $152 $298 #
straight-curve $-1 595 150 0 0 0 -1 I I #
face $-1 $232 $215 $3 $-1 $299 reversed single #
plane-surface $-1 595 0 0 1 0 0 0 0 -1 forward_v I I I I #
coedge $-1 $157 $156 $300 $301 0 $158 $-1 #
face $-1 $302 $158 $3 $-1 $303 reversed single #
coedge $-1 $166 $300 $160 $234 0 $241 $-1 #
edge $-1 $235 $170 $160 $247 forward #
vertex $-1 $161 $304 #
straight-curve $-1 5 150 0 0 0 -1 I I #
coedge $-1 $300 $166 $163 $238 0 $241 $-1 #
edge $-1 $168 $239 $163 $258 forward #
vertex $-1 $164 $305 #
straight-curve $-1 5 -150 0 0 0 -1 I I #
loop $-1 $-1 $166 $306 #
straight-curve $-1 295 0 -155 0 1 0 I I #
point $-1 295 -150 -155 #
point $-1 295 150 -155 #
coedge $-1 $173 $181 $172 $246 1 $190 $-1 #
edge $-1 $175 $183 $172 $307 forward #
straight-curve $-1 150 150 -155 1 0 0 I I #
point $-1 -295 150 -155 #
loop $-1 $308 $309 $113 #
coedge $-1 $310 $311 $312 $313 1 $177 $-1 #
coedge $-1 $314 $178 $315 $316 1 $112 $-1 #
coedge $-1 $178 $314 $317 $318 1 $112 $-1 #
coedge $-1 $319 $320 $178 $254 0 $321 $-1 #
edge $-1 $322 $323 $178 $228 forward #
face $-1 $324 $325 $3 $-1 $257 forward single #
loop $-1 $-1 $326 $179 #
plane-surface $-1 150 0 -145 0 0 1 1 0 0 forward_v I I I I #
straight-curve $-1 150 -150 -155 -1 0 0 I I #
point $-1 -295 -150 -155 #
loop $-1 $327 $328 $118 #
coedge $-1 $329 $330 $331 $332 1 $185 $-1 #
coedge $-1 $333 $186 $334 $335 1 $117 $-1 #
coedge $-1 $186 $333 $336 $337 0 $117 $-1 #
coedge $-1 $338 $339 $186 $265 0 $340 $-1 #
edge $-1 $341 $342 $186 $343 forward #
face $-1 $344 $345 $3 $-1 $194 reversed single #
loop $-1 $-1 $346 $187 #
face $-1 $306 $190 $3 $-1 $347 reversed single #
coedge $-1 $348 $195 $197 $274 0 $271 $-1 #
coedge $-1 $195 $348 $280 $349 0 $271 $-1 #
loop $-1 $-1 $195 $350 #
vertex $-1 $196 $351 #
straight-curve $-1 605 0 255 0 1 0 I I #
edge $-1 $199 $352 $197 $353 forward #
point $-1 605 150 255 #
coedge $-1 $354 $201 $204 $281 1 $278 $-1 #
coedge $-1 $201 $354 $207 $283 0 $278 $-1 #
loop $-1 $-1 $276 $355 #
straight-curve $-1 -305 0 -255 0 1 0 I I #
coedge $-1 $204 $203 $270 $349 1 $188 $-1 #
edge $-1 $356 $205 $276 $357 forward #
point $-1 -305 -150 -255 #
edge $-1 $352 $208 $207 $358 forward #
point $-1 -305 150 -255 #
straight-curve $-1 605 -150 0 0 0 -1 I I #
coedge $-1 $214 $213 $359 $360 0 $215 $-1 #
coedge $-1 $223 $359 $217 $288 0 $295 $-1 #
edge $-1 $289 $227 $217 $247 forward #
vertex $-1 $218 $361 #
straight-curve $-1 305 150 0 0 0 -1 I I #
coedge $-1 $359 $223 $220 $292 0 $295 $-1 #
edge $-1 $225 $293 $220 $258 forward #
vertex $-1 $221 $362 #
straight-curve $-1 305 -150 0 0 0 -1 I I #
loop $-1 $-1 $223 $363 #
straight-curve $-1 595 0 -155 0 1 0 I I #
point $-1 595 -150 -155 #
point $-1 595 150 -155 #
plane-surface $-1 305 0 0 -1 0 0 0 0 1 forward_v I I I I #
coedge $-1 $233 $237 $231 $301 1 $241 $-1 #
edge $-1 $235 $239 $231 $364 forward #
face $-1 $365 $366 $3 $-1 $367 forward single #
plane-surface $-1 5 0 0 -1 0 0 0 -0 1 forward_v I I I I #
point $-1 5 150 -155 #
point $-1 5 -150 -155 #
face $-1 $363 $241 $3 $-1 $347 reversed single #
straight-curve $-1 -295 0 -155 0 -1 0 I I #
loop $-1 $368 $369 $113 #
coedge $-1 $370 $371 $372 $373 1 $249 $-1 #
coedge $-1 $374 $250 $375 $376 1 $177 $-1 #
coedge $-1 $250 $374 $377 $378 1 $177 $-1 #
coedge $-1 $379 $380 $250 $313 0 $381 $-1 #
edge $-1 $382 $383 $250 $171 forward #
coedge $-1 $252 $251 $384 $385 0 $112 $-1 #
coedge $-1 $386 $387 $251 $316 0 $388 $-1 #
edge $-1 $389 $322 $251 $390 forward #
coedge $-1 $391 $392 $252 $318 0 $393 $-1 #
edge $-1 $323 $394 $252 $395 forward #
coedge $-1 $396 $253 $392 $397 0 $321 $-1 #
coedge $-1 $253 $396 $386 $398 0 $321 $-1 #
loop $-1 $-1 $319 $399 #
vertex $-1 $254 $400 #
vertex $-1 $254 $401 #
face $-1 $268 $340 $3 $-1 $257 forward single #
loop $-1 $-1 $402 $255 #
coedge $-1 $403 $404 $405 $406 1 $256 $-1 #
loop $-1 $407 $408 $118 #
coedge $-1 $409 $410 $404 $411 1 $260 $-1 #
coedge $-1 $412 $261 $413 $414 1 $185 $-1 #
coedge $-1 $261 $412 $415 $416 0 $185 $-1 #
coedge $-1 $402 $417 $261 $332 0 $325 $-1 #
edge $-1 $418 $419 $261 $343 forward #
coedge $-1 $263 $262 $420 $421 1 $117 $-1 #
coedge $-1 $422 $423 $262 $335 0 $424 $-1 #
edge $-1 $425 $341 $334 $294 forward #
coedge $-1 $426 $427 $263 $337 1 $428 $-1 #
edge $-1 $429 $342 $336 $226 forward #
coedge $-1 $430 $264 $427 $431 1 $340 $-1 #
coedge $-1 $264 $430 $422 $432 1 $340 $-1 #
loop $-1 $-1 $338 $324 #
vertex $-1 $335 $433 #
vertex $-1 $265 $434 #
straight-curve $-1 150 -150 -145 1 0 0 I I #
face $-1 $435 $436 $3 $-1 $437 reversed single #
loop $-1 $-1 $438 $266 #
coedge $-1 $439 $440 $441 $442 0 $267 $-1 #
plane-surface $-1 150 0 -155 0 0 1 1 0 0 forward_v I I I I #
coedge $-1 $270 $269 $354 $443 0 $271 $-1 #
edge $-1 $356 $272 $280 $444 forward #
face $-1 $445 $271 $3 $-1 $446 forward single #
point $-1 605 -150 255 #
vertex $-1 $274 $447 #
straight-curve $-1 150 150 255 -1 0 0 I I #
coedge $-1 $277 $276 $348 $443 1 $278 $-1 #
face $-1 $448 $278 $3 $-1 $449 reversed single #
vertex $-1 $443 $450 #
straight-curve $-1 -305 -150 250 0 0 -1 I I #
straight-curve $-1 -305 150 0 0 0 -1 I I #
coedge $-1 $287 $291 $286 $360 1 $295 $-1 #
edge $-1 $289 $293 $286 $451 forward #
point $-1 305 150 -155 #
point $-1 305 -150 -155 #
face $-1 $153 $295 $3 $-1 $347 reversed single #
straight-curve $-1 5 0 -155 0 -1 0 I I #
face $-1 $452 $453 $3 $-1 $367 forward single #
loop $-1 $-1 $454 $302 #
plane-surface $-1 150 0 -45 0 0 1 1 0 0 forward_v I I I I #
loop $-1 $455 $456 $113 #
coedge $-1 $457 $458 $459 $460 1 $308 $-1 #
coedge $-1 $461 $309 $462 $463 1 $249 $-1 #
coedge $-1 $309 $461 $464 $465 1 $249 $-1 #
coedge $-1 $466 $467 $309 $373 0 $468 $-1 #
edge $-1 $469 $470 $309 $125 forward #
coedge $-1 $311 $310 $471 $472 0 $177 $-1 #
coedge $-1 $473 $474 $310 $376 0 $475 $-1 #
edge $-1 $476 $382 $310 $390 forward #
coedge $-1 $477 $478 $311 $378 0 $453 $-1 #
edge $-1 $383 $479 $311 $395 forward #
coedge $-1 $480 $312 $478 $481 0 $381 $-1 #
coedge $-1 $312 $480 $473 $482 0 $381 $-1 #
loop $-1 $-1 $379 $483 #
vertex $-1 $313 $484 #
vertex $-1 $313 $485 #
coedge $-1 $486 $487 $314 $385 1 $488 $-1 #
edge $-1 $389 $394 $384 $290 forward #
coedge $-1 $489 $315 $320 $398 1 $388 $-1 #
coedge $-1 $315 $489 $486 $490 1 $388 $-1 #
loop $-1 $-1 $386 $491 #
vertex $-1 $385 $492 #
straight-curve $-1 150 150 45 1 0 0 I I #
coedge $-1 $493 $317 $487 $494 1 $393 $-1 #
coedge $-1 $317 $493 $319 $397 1 $393 $-1 #
loop $-1 $-1 $392 $452 #
vertex $-1 $318 $495 #
straight-curve $-1 150 150 -45 -1 0 0 I I #
coedge $-1 $320 $319 $496 $497 1 $321 $-1 #
edge $-1 $323 $498 $319 $499 forward #
edge $-1 $500 $322 $320 $501 forward #
face $-1 $483 $321 $3 $-1 $230 reversed single #
point $-1 595 150 45 #
point $-1 595 150 -45 #
coedge $-1 $502 $331 $503 $504 1 $325 $-1 #
coedge $-1 $505 $326 $506 $507 0 $256 $-1 #
coedge $-1 $326 $505 $328 $411 0 $256 $-1 #
coedge $-1 $508 $509 $326 $406 0 $510 $-1 #
edge $-1 $511 $512 $405 $513 forward #
loop $-1 $514 $515 $118 #
coedge $-1 $516 $496 $493 $517 1 $327 $-1 #
coedge $-1 $518 $328 $519 $520 1 $260 $-1 #
coedge $-1 $328 $518 $508 $521 0 $260 $-1 #
edge $-1 $522 $512 $328 $343 forward #
coedge $-1 $330 $329 $523 $524 1 $185 $-1 #
coedge $-1 $525 $526 $329 $414 0 $527 $-1 #
edge $-1 $528 $418 $413 $240 forward #
coedge $-1 $529 $503 $330 $416 1 $530 $-1 #
edge $-1 $531 $419 $415 $169 forward #
coedge $-1 $331 $502 $525 $532 1 $325 $-1 #
vertex $-1 $414 $533 #
vertex $-1 $332 $534 #
coedge $-1 $535 $536 $333 $421 0 $537 $-1 #
edge $-1 $429 $425 $333 $538 forward #
coedge $-1 $539 $334 $339 $432 0 $424 $-1 #
coedge $-1 $334 $539 $535 $540 0 $424 $-1 #
loop $-1 $-1 $422 $541 #
vertex $-1 $335 $542 #
coedge $-1 $543 $336 $536 $544 0 $428 $-1 #
coedge $-1 $336 $543 $338 $431 0 $428 $-1 #
loop $-1 $-1 $427 $545 #
vertex $-1 $337 $546 #
coedge $-1 $339 $338 $547 $548 0 $340 $-1 #
edge $-1 $549 $342 $427 $550 forward #
edge $-1 $341 $551 $422 $552 forward #
point $-1 305 -150 -145 #
point $-1 595 -150 -145 #
face $-1 $350 $553 $3 $-1 $437 reversed single #
loop $-1 $-1 $554 $344 #
plane-surface $-1 150 0 245 0 0 1 1 0 0 forward_v I I I I #
coedge $-1 $555 $556 $557 $558 0 $345 $-1 #
coedge $-1 $559 $346 $560 $561 1 $267 $-1 #
coedge $-1 $346 $559 $562 $563 0 $267 $-1 #
coedge $-1 $564 $565 $346 $442 1 $566 $-1 #
edge $-1 $567 $568 $346 $569 forward #
edge $-1 $352 $356 $354 $570 forward #
straight-curve $-1 150 -150 255 1 0 0 I I #
face $-1 $571 $572 $3 $-1 $437 reversed single #
plane-surface $-1 150 0 255 0 0 1 1 0 0 forward_v I I I I #
point $-1 -305 150 255 #
face $-1 $573 $574 $3 $-1 $194 reversed single #
plane-surface $-1 -305 0 0 1 0 0 0 0 -1 forward_v I I I I #
point $-1 -305 -150 255 #
straight-curve $-1 305 0 -155 0 -1 0 I I #
face $-1 $575 $393 $3 $-1 $367 forward single #
loop $-1 $-1 $478 $365 #
coedge $-1 $464 $576 $466 $577 1 $366 $-1 #
loop $-1 $578 $579 $113 #
coedge $-1 $580 $581 $582 $583 1 $368 $-1 #
coedge $-1 $584 $369 $585 $586 1 $308 $-1 #
coedge $-1 $369 $584 $587 $588 1 $308 $-1 #
coedge $-1 $589 $590 $369 $460 0 $591 $-1 #
edge $-1 $592 $593 $369 $228 forward #
coedge $-1 $371 $370 $594 $595 0 $249 $-1 #
coedge $-1 $596 $597 $370 $463 0 $598 $-1 #
edge $-1 $599 $469 $370 $390 forward #
coedge $-1 $600 $454 $371 $465 0 $366 $-1 #
edge $-1 $470 $601 $371 $395 forward #
coedge $-1 $602 $372 $454 $577 0 $468 $-1 #
coedge $-1 $372 $602 $596 $603 0 $468 $-1 #
loop $-1 $-1 $466 $604 #
vertex $-1 $373 $605 #
vertex $-1 $373 $606 #
coedge $-1 $607 $608 $374 $472 1 $609 $-1 #
edge $-1 $476 $479 $471 $236 forward #
coedge $-1 $610 $375 $380 $482 1 $475 $-1 #
coedge $-1 $375 $610 $607 $611 1 $475 $-1 #
loop $-1 $-1 $473 $612 #
vertex $-1 $472 $613 #
coedge $-1 $614 $377 $608 $615 1 $453 $-1 #
coedge $-1 $377 $614 $379 $481 1 $453 $-1 #
vertex $-1 $378 $616 #
coedge $-1 $380 $379 $617 $618 1 $381 $-1 #
edge $-1 $383 $619 $379 $620 forward #
edge $-1 $621 $382 $380 $622 forward #
face $-1 $623 $381 $3 $-1 $74 reversed single #
point $-1 295 150 45 #
point $-1 295 150 -45 #
coedge $-1 $624 $384 $387 $490 0 $488 $-1 #
coedge $-1 $384 $624 $391 $494 0 $488 $-1 #
loop $-1 $-1 $487 $623 #
coedge $-1 $387 $386 $625 $626 0 $388 $-1 #
edge $-1 $389 $627 $486 $628 forward #
face $-1 $399 $388 $3 $-1 $629 reversed single #
point $-1 305 150 45 #
coedge $-1 $392 $391 $408 $517 0 $393 $-1 #
edge $-1 $630 $394 $487 $631 forward #
point $-1 305 150 -45 #
coedge $-1 $408 $625 $396 $497 0 $327 $-1 #
edge $-1 $500 $498 $396 $226 forward #
vertex $-1 $517 $632 #
straight-curve $-1 595 0 -45 0 -1 0 I I #
vertex $-1 $497 $633 #
straight-curve $-1 595 0 45 0 1 0 I I #
coedge $-1 $417 $402 $634 $635 0 $325 $-1 #
coedge $-1 $415 $636 $402 $504 0 $530 $-1 #
edge $-1 $637 $419 $503 $638 forward #
coedge $-1 $404 $403 $639 $640 1 $256 $-1 #
coedge $-1 $641 $642 $403 $507 1 $643 $-1 #
edge $-1 $511 $644 $506 $645 forward #
coedge $-1 $646 $405 $410 $521 1 $510 $-1 #
coedge $-1 $405 $646 $641 $647 0 $510 $-1 #
loop $-1 $-1 $405 $648 #
vertex $-1 $647 $649 #
vertex $-1 $411 $650 #
straight-curve $-1 -5 0 -145 0 -1 0 I I #
loop $-1 $651 $652 $118 #
coedge $-1 $653 $617 $614 $654 1 $407 $-1 #
coedge $-1 $625 $408 $624 $655 1 $327 $-1 #
edge $-1 $630 $498 $408 $656 forward #
coedge $-1 $410 $409 $657 $658 1 $260 $-1 #
coedge $-1 $639 $659 $409 $520 0 $660 $-1 #
edge $-1 $661 $522 $519 $184 forward #
edge $-1 $662 $512 $508 $123 forward #
vertex $-1 $520 $663 #
coedge $-1 $664 $665 $412 $524 0 $666 $-1 #
edge $-1 $531 $528 $412 $538 forward #
coedge $-1 $667 $413 $417 $532 0 $527 $-1 #
coedge $-1 $413 $667 $664 $668 0 $527 $-1 #
loop $-1 $-1 $525 $669 #
vertex $-1 $414 $670 #
coedge $-1 $636 $415 $665 $671 0 $530 $-1 #
loop $-1 $-1 $503 $672 #
vertex $-1 $416 $673 #
edge $-1 $418 $674 $525 $675 forward #
point $-1 5 -150 -145 #
point $-1 295 -150 -145 #
coedge $-1 $676 $420 $423 $540 1 $537 $-1 #
coedge $-1 $420 $676 $426 $544 1 $537 $-1 #
loop $-1 $-1 $536 $677 #
straight-curve $-1 150 -150 -55 -1 0 0 I I #
coedge $-1 $423 $422 $678 $679 1 $424 $-1 #
edge $-1 $680 $425 $423 $681 forward #
face $-1 $648 $424 $3 $-1 $299 reversed single #
point $-1 305 -150 -55 #
coedge $-1 $427 $426 $682 $683 0 $428 $-1 #
edge $-1 $429 $684 $426 $685 forward #
face $-1 $672 $428 $3 $-1 $230 reversed single #
point $-1 595 -150 -55 #
coedge $-1 $682 $678 $430 $548 1 $686 $-1 #
edge $-1 $549 $551 $547 $645 forward #
vertex $-1 $683 $687 #
straight-curve $-1 595 0 -145 0 -1 0 I I #
vertex $-1 $548 $688 #
straight-curve $-1 305 0 -145 0 1 -0 I I #
loop $-1 $-1 $689 $435 #
coedge $-1 $690 $691 $692 $693 1 $436 $-1 #
coedge $-1 $694 $438 $695 $696 1 $345 $-1 #
coedge $-1 $438 $694 $697 $698 0 $345 $-1 #
coedge $-1 $699 $700 $438 $558 1 $701 $-1 #
edge $-1 $702 $703 $438 $704 forward #
coedge $-1 $440 $439 $705 $706 0 $267 $-1 #
coedge $-1 $707 $708 $439 $561 0 $578 $-1 #
edge $-1 $709 $568 $439 $176 forward #
coedge $-1 $710 $711 $440 $563 1 $712 $-1 #
edge $-1 $713 $567 $440 $184 forward #
coedge $-1 $714 $441 $711 $715 0 $566 $-1 #
coedge $-1 $441 $714 $707 $716 0 $566 $-1 #
loop $-1 $-1 $714 $717 #
vertex $-1 $563 $718 #
vertex $-1 $716 $719 #
straight-curve $-1 -295 0 55 0 1 -0 I I #
straight-curve $-1 -305 0 255 0 -1 0 I I #
face $-1 $720 $591 $3 $-1 $230 reversed single #
loop $-1 $-1 $721 $445 #
face $-1 $722 $701 $3 $-1 $723 forward single #
loop $-1 $-1 $724 $448 #
face $-1 $725 $726 $3 $-1 $727 reversed single #
coedge $-1 $454 $600 $652 $728 0 $366 $-1 #
edge $-1 $470 $729 $466 $730 forward #
loop $-1 $731 $732 $113 #
coedge $-1 $733 $734 $735 $736 1 $455 $-1 #
coedge $-1 $737 $456 $690 $738 1 $368 $-1 #
coedge $-1 $456 $737 $739 $740 1 $368 $-1 #
coedge $-1 $741 $742 $456 $583 0 $743 $-1 #
edge $-1 $744 $745 $456 $171 forward #
coedge $-1 $458 $457 $746 $747 0 $308 $-1 #
coedge $-1 $748 $689 $457 $586 0 $553 $-1 #
edge $-1 $749 $592 $457 $750 forward #
coedge $-1 $751 $752 $458 $588 0 $753 $-1 #
edge $-1 $593 $754 $458 $755 forward #
coedge $-1 $756 $459 $752 $757 0 $591 $-1 #
coedge $-1 $459 $756 $748 $758 0 $591 $-1 #
loop $-1 $-1 $589 $571 #
vertex $-1 $460 $759 #
vertex $-1 $460 $760 #
coedge $-1 $761 $724 $461 $595 1 $574 $-1 #
edge $-1 $599 $601 $594 $176 forward #
coedge $-1 $762 $462 $467 $603 1 $598 $-1 #
coedge $-1 $462 $762 $761 $763 1 $598 $-1 #
loop $-1 $-1 $596 $764 #
vertex $-1 $595 $765 #
coedge $-1 $576 $464 $724 $766 1 $366 $-1 #
vertex $-1 $465 $767 #
coedge $-1 $467 $466 $768 $769 1 $468 $-1 #
edge $-1 $770 $469 $467 $771 forward #
face $-1 $772 $468 $3 $-1 $127 reversed single #
point $-1 -5 150 45 #
point $-1 -5 150 -45 #
coedge $-1 $773 $471 $474 $611 0 $609 $-1 #
coedge $-1 $471 $773 $477 $615 0 $609 $-1 #
loop $-1 $-1 $608 $772 #
coedge $-1 $474 $473 $774 $775 0 $475 $-1 #
edge $-1 $476 $776 $607 $777 forward #
face $-1 $491 $475 $3 $-1 $629 reversed single #
point $-1 5 150 45 #
coedge $-1 $478 $477 $515 $654 0 $453 $-1 #
edge $-1 $778 $479 $608 $779 forward #
point $-1 5 150 -45 #
coedge $-1 $515 $774 $480 $618 0 $407 $-1 #
edge $-1 $621 $619 $480 $169 forward #
vertex $-1 $654 $780 #
straight-curve $-1 295 0 -45 0 -1 0 I I #
vertex $-1 $618 $781 #
straight-curve $-1 295 0 45 0 1 0 I I #
face $-1 $604 $488 $3 $-1 $299 reversed single #
coedge $-1 $487 $486 $516 $655 0 $488 $-1 #
coedge $-1 $496 $516 $489 $626 1 $327 $-1 #
edge $-1 $500 $627 $625 $782 forward #
vertex $-1 $655 $783 #
straight-curve $-1 305 0 45 0 -1 0 I I #
plane-surface $-1 150 0 45 0 0 1 1 0 0 forward_v I I I I #
vertex $-1 $655 $784 #
straight-curve $-1 305 0 -45 0 1 -0 I I #
point $-1 595 -150 -45 #
point $-1 595 -150 45 #
coedge $-1 $785 $786 $502 $635 1 $787 $-1 #
edge $-1 $637 $674 $634 $645 forward #
coedge $-1 $503 $529 $785 $788 0 $530 $-1 #
vertex $-1 $788 $789 #
straight-curve $-1 295 0 -145 0 -1 0 I I #
coedge $-1 $790 $519 $505 $640 0 $660 $-1 #
edge $-1 $522 $644 $639 $791 forward #
coedge $-1 $792 $506 $509 $647 1 $643 $-1 #
coedge $-1 $506 $792 $790 $793 0 $643 $-1 #
loop $-1 $787 $641 $113 #
vertex $-1 $507 $794 #
straight-curve $-1 150 150 -145 -1 0 0 I I #
coedge $-1 $509 $508 $795 $796 0 $510 $-1 #
edge $-1 $797 $511 $641 $125 forward #
face $-1 $669 $510 $3 $-1 $127 reversed single #
point $-1 -5 150 -145 #
point $-1 -5 -150 -145 #
loop $-1 $798 $799 $118 #
coedge $-1 $800 $768 $576 $728 1 $514 $-1 #
coedge $-1 $774 $515 $773 $801 1 $407 $-1 #
edge $-1 $778 $619 $515 $656 forward #
edge $-1 $627 $630 $624 $294 forward #
straight-curve $-1 150 -150 -45 1 0 0 I I #
coedge $-1 $802 $795 $518 $658 0 $726 $-1 #
edge $-1 $662 $661 $518 $538 forward #
coedge $-1 $519 $790 $802 $803 0 $660 $-1 #
loop $-1 $-1 $639 $804 #
vertex $-1 $520 $805 #
vertex $-1 $521 $806 #
point $-1 -295 -150 -145 #
coedge $-1 $807 $523 $526 $668 1 $666 $-1 #
coedge $-1 $523 $807 $529 $671 1 $666 $-1 #
loop $-1 $-1 $665 $725 #
coedge $-1 $526 $525 $786 $808 1 $527 $-1 #
edge $-1 $809 $528 $526 $810 forward #
face $-1 $804 $527 $3 $-1 $303 reversed single #
point $-1 5 -150 -55 #
edge $-1 $531 $811 $529 $812 forward #
face $-1 $541 $530 $3 $-1 $74 reversed single #
point $-1 295 -150 -55 #
vertex $-1 $635 $813 #
straight-curve $-1 5 0 -145 0 1 -0 I I #
coedge $-1 $536 $535 $814 $815 0 $537 $-1 #
face $-1 $545 $537 $3 $-1 $727 reversed single #
coedge $-1 $547 $814 $539 $679 0 $686 $-1 #
edge $-1 $680 $551 $539 $290 forward #
vertex $-1 $679 $816 #
straight-curve $-1 305 0 -55 0 -1 0 I I #
coedge $-1 $814 $547 $543 $683 1 $686 $-1 #
edge $-1 $684 $549 $682 $228 forward #
vertex $-1 $683 $817 #
straight-curve $-1 595 0 -55 0 1 0 I I #
loop $-1 $198 $682 $113 #
point $-1 595 150 -145 #
point $-1 305 150 -145 #
coedge $-1 $585 $818 $819 $820 1 $553 $-1 #
coedge $-1 $821 $554 $580 $738 0 $436 $-1 #
coedge $-1 $554 $821 $822 $823 0 $436 $-1 #
coedge $-1 $824 $825 $554 $693 0 $826 $-1 #
edge $-1 $827 $828 $692 $829 forward #
coedge $-1 $556 $555 $721 $830 0 $345 $-1 #
coedge $-1 $734 $733 $555 $696 0 $455 $-1 #
edge $-1 $831 $703 $555 $176 forward #
coedge $-1 $832 $833 $556 $698 1 $834 $-1 #
edge $-1 $835 $702 $556 $184 forward #
coedge $-1 $836 $557 $833 $837 0 $701 $-1 #
coedge $-1 $557 $836 $734 $838 0 $701 $-1 #
loop $-1 $-1 $836 $573 #
vertex $-1 $698 $839 #
vertex $-1 $838 $840 #
straight-curve $-1 -295 0 155 0 1 -0 I I #
coedge $-1 $841 $842 $559 $706 1 $843 $-1 #
edge $-1 $709 $713 $559 $844 forward #
coedge $-1 $732 $560 $565 $716 1 $578 $-1 #
coedge $-1 $560 $732 $841 $845 1 $578 $-1 #
vertex $-1 $561 $846 #
coedge $-1 $847 $562 $842 $848 1 $712 $-1 #
coedge $-1 $562 $847 $564 $715 1 $712 $-1 #
loop $-1 $849 $711 $118 #
vertex $-1 $563 $850 #
coedge $-1 $565 $564 $851 $852 1 $566 $-1 #
edge $-1 $567 $853 $711 $854 forward #
edge $-1 $855 $568 $707 $856 forward #
face $-1 $857 $566 $3 $-1 $858 forward single #
point $-1 -295 -150 55 #
point $-1 -295 150 55 #
face $-1 $859 $743 $3 $-1 $74 reversed single #
coedge $-1 $860 $861 $694 $830 1 $572 $-1 #
face $-1 $862 $863 $3 $-1 $723 forward single #
plane-surface $-1 150 0 155 0 0 1 1 0 0 forward_v I I I I #
coedge $-1 $594 $864 $600 $766 0 $574 $-1 #
face $-1 $677 $666 $3 $-1 $727 reversed single #
loop $-1 $-1 $795 $575 #
plane-surface $-1 150 0 -55 0 0 1 1 0 0 forward_v I I I I #
edge $-1 $865 $729 $652 $656 forward #
vertex $-1 $728 $866 #
straight-curve $-1 -5 0 -45 0 -1 0 I I #
loop $-1 $867 $868 $113 #
coedge $-1 $708 $707 $869 $870 1 $578 $-1 #
coedge $-1 $695 $579 $860 $871 1 $455 $-1 #
coedge $-1 $579 $695 $700 $838 1 $455 $-1 #
coedge $-1 $872 $873 $579 $736 0 $874 $-1 #
edge $-1 $875 $876 $579 $125 forward #
coedge $-1 $581 $580 $825 $877 0 $368 $-1 #
edge $-1 $827 $744 $580 $750 forward #
coedge $-1 $878 $879 $581 $740 0 $863 $-1 #
edge $-1 $745 $880 $581 $755 forward #
coedge $-1 $881 $582 $879 $882 0 $743 $-1 #
coedge $-1 $582 $881 $821 $883 0 $743 $-1 #
loop $-1 $-1 $741 $720 #
vertex $-1 $583 $884 #
vertex $-1 $583 $885 #
coedge $-1 $819 $886 $584 $747 1 $887 $-1 #
edge $-1 $749 $754 $746 $290 forward #
coedge $-1 $818 $585 $590 $758 1 $553 $-1 #
vertex $-1 $747 $888 #
straight-curve $-1 150 150 245 1 0 0 I I #
coedge $-1 $889 $587 $886 $890 1 $753 $-1 #
coedge $-1 $587 $889 $589 $757 1 $753 $-1 #
loop $-1 $-1 $752 $862 #
vertex $-1 $588 $891 #
straight-curve $-1 150 150 155 -1 0 0 I I #
coedge $-1 $590 $589 $892 $893 1 $591 $-1 #
edge $-1 $593 $894 $589 $895 forward #
edge $-1 $896 $592 $590 $897 forward #
point $-1 595 150 245 #
point $-1 595 150 155 #
coedge $-1 $864 $594 $597 $763 0 $574 $-1 #
coedge $-1 $597 $596 $898 $899 0 $598 $-1 #
edge $-1 $599 $900 $761 $901 forward #
face $-1 $612 $598 $3 $-1 $629 reversed single #
point $-1 -295 150 45 #
edge $-1 $865 $601 $724 $902 forward #
point $-1 -295 150 -45 #
coedge $-1 $652 $898 $602 $769 0 $514 $-1 #
edge $-1 $770 $729 $602 $123 forward #
vertex $-1 $769 $903 #
straight-curve $-1 -5 0 45 0 1 0 I I #
face $-1 $355 $609 $3 $-1 $303 reversed single #
coedge $-1 $608 $607 $653 $801 0 $609 $-1 #
coedge $-1 $617 $653 $610 $775 1 $407 $-1 #
edge $-1 $621 $776 $774 $782 forward #
vertex $-1 $801 $904 #
straight-curve $-1 5 0 45 0 -1 0 I I #
vertex $-1 $801 $905 #
straight-curve $-1 5 0 -45 0 1 -0 I I #
point $-1 295 -150 -45 #
point $-1 295 -150 45 #
straight-curve $-1 150 -150 45 -1 0 0 I I #
point $-1 305 -150 45 #
point $-1 305 -150 -45 #
coedge $-1 $906 $634 $636 $788 1 $787 $-1 #
coedge $-1 $634 $906 $667 $808 0 $787 $-1 #
loop $-1 $686 $785 $113 #
edge $-1 $811 $637 $785 $171 forward #
point $-1 295 150 -145 #
coedge $-1 $659 $639 $642 $793 1 $660 $-1 #
straight-curve $-1 -295 0 -145 0 1 -0 I I #
coedge $-1 $642 $641 $907 $908 1 $643 $-1 #
edge $-1 $909 $644 $790 $176 forward #
point $-1 -295 150 -145 #
coedge $-1 $657 $907 $646 $796 1 $726 $-1 #
edge $-1 $662 $797 $646 $910 forward #
vertex $-1 $647 $911 #
loop $-1 $712 $912 $118 #
coedge $-1 $913 $914 $915 $916 1 $651 $-1 #
coedge $-1 $898 $652 $864 $917 1 $514 $-1 #
edge $-1 $776 $778 $773 $240 forward #
coedge $-1 $907 $657 $659 $803 1 $726 $-1 #
edge $-1 $909 $661 $659 $918 forward #
face $-1 $717 $660 $3 $-1 $194 reversed single #
point $-1 -295 -150 -55 #
point $-1 -5 -150 -55 #
coedge $-1 $665 $664 $906 $919 0 $666 $-1 #
edge $-1 $809 $674 $667 $236 forward #
vertex $-1 $808 $920 #
straight-curve $-1 5 0 -55 0 -1 0 I I #
vertex $-1 $788 $921 #
straight-curve $-1 295 0 -55 0 1 0 I I #
point $-1 5 150 -145 #
coedge $-1 $678 $682 $676 $815 1 $686 $-1 #
edge $-1 $680 $684 $814 $922 forward #
point $-1 305 150 -55 #
point $-1 595 150 -55 #
coedge $-1 $689 $748 $923 $924 0 $553 $-1 #
coedge $-1 $925 $746 $689 $820 0 $887 $-1 #
edge $-1 $749 $926 $819 $927 forward #
coedge $-1 $691 $690 $742 $883 1 $436 $-1 #
coedge $-1 $928 $929 $691 $823 1 $930 $-1 #
edge $-1 $931 $828 $822 $932 forward #
coedge $-1 $933 $692 $929 $934 0 $826 $-1 #
coedge $-1 $692 $933 $737 $877 1 $826 $-1 #
loop $-1 $-1 $933 $935 #
vertex $-1 $877 $936 #
vertex $-1 $934 $937 #
straight-curve $-1 5 0 245 0 -1 0 I I #
edge $-1 $831 $835 $694 $938 forward #
vertex $-1 $696 $939 #
coedge $-1 $940 $697 $861 $941 1 $834 $-1 #
coedge $-1 $697 $940 $699 $837 1 $834 $-1 #
loop $-1 $-1 $833 $118 #
vertex $-1 $698 $942 #
coedge $-1 $700 $699 $872 $943 1 $701 $-1 #
edge $-1 $702 $944 $833 $945 forward #
edge $-1 $876 $703 $734 $755 forward #
point $-1 -295 -150 155 #
point $-1 -295 150 155 #
coedge $-1 $946 $705 $708 $845 0 $843 $-1 #
coedge $-1 $705 $946 $710 $848 0 $843 $-1 #
loop $-1 $-1 $946 $947 #
straight-curve $-1 -295 0 145 0 -1 0 I I #
edge $-1 $709 $948 $708 $949 forward #
point $-1 -295 150 145 #
coedge $-1 $711 $710 $950 $951 0 $712 $-1 #
edge $-1 $952 $713 $710 $953 forward #
loop $-1 $930 $954 $118 #
point $-1 -295 -150 145 #
coedge $-1 $950 $869 $714 $852 0 $955 $-1 #
edge $-1 $855 $853 $851 $956 forward #
vertex $-1 $715 $957 #
straight-curve $-1 150 -150 55 1 0 0 I I #
vertex $-1 $870 $958 #
straight-curve $-1 150 150 55 -1 0 0 I I #
face $-1 $959 $960 $3 $-1 $858 forward single #
plane-surface $-1 150 0 55 0 0 1 1 0 0 forward_v I I I I #
face $-1 $961 $887 $3 $-1 $299 reversed single #
coedge $-1 $962 $721 $733 $871 0 $572 $-1 #
coedge $-1 $721 $962 $832 $941 0 $572 $-1 #
face $-1 $947 $753 $3 $-1 $723 forward single #
loop $-1 $-1 $879 $722 #
coedge $-1 $724 $761 $800 $917 0 $574 $-1 #
vertex $-1 $917 $963 #
point $-1 -5 -150 -45 #
loop $-1 $643 $964 $113 #
coedge $-1 $965 $966 $967 $968 1 $731 $-1 #
coedge $-1 $851 $969 $732 $870 0 $955 $-1 #
edge $-1 $948 $855 $732 $125 forward #
edge $-1 $831 $875 $733 $750 forward #
coedge $-1 $970 $735 $836 $943 0 $874 $-1 #
coedge $-1 $735 $970 $962 $971 0 $874 $-1 #
loop $-1 $-1 $872 $961 #
vertex $-1 $736 $972 #
vertex $-1 $736 $973 #
edge $-1 $827 $880 $825 $236 forward #
coedge $-1 $974 $739 $933 $975 1 $863 $-1 #
coedge $-1 $739 $974 $741 $882 1 $863 $-1 #
vertex $-1 $740 $976 #
coedge $-1 $742 $741 $928 $977 1 $743 $-1 #
edge $-1 $745 $978 $741 $979 forward #
edge $-1 $931 $744 $742 $980 forward #
point $-1 295 150 245 #
point $-1 295 150 155 #
coedge $-1 $746 $925 $751 $890 0 $887 $-1 #
loop $-1 $-1 $886 $859 #
point $-1 305 150 245 #
coedge $-1 $752 $751 $954 $981 0 $753 $-1 #
edge $-1 $982 $754 $886 $983 forward #
point $-1 305 150 155 #
coedge $-1 $954 $923 $756 $893 0 $849 $-1 #
edge $-1 $896 $894 $756 $226 forward #
vertex $-1 $981 $984 #
straight-curve $-1 595 0 155 0 -1 0 I I #
vertex $-1 $893 $985 #
straight-curve $-1 595 0 245 0 1 0 I I #
coedge $-1 $768 $800 $762 $899 1 $514 $-1 #
edge $-1 $770 $900 $898 $782 forward #
vertex $-1 $917 $986 #
straight-curve $-1 -295 0 45 0 -1 0 I I #
straight-curve $-1 -295 0 -45 0 1 -0 I I #
point $-1 -5 -150 45 #
point $-1 5 -150 45 #
point $-1 5 -150 -45 #
coedge $-1 $786 $785 $807 $919 1 $787 $-1 #
coedge $-1 $795 $802 $792 $908 0 $726 $-1 #
edge $-1 $909 $797 $792 $922 forward #
vertex $-1 $793 $987 #
straight-curve $-1 -5 0 -55 0 1 0 I I #
point $-1 -5 150 -55 #
coedge $-1 $988 $989 $990 $991 1 $798 $-1 #
coedge $-1 $992 $799 $993 $994 1 $651 $-1 #
coedge $-1 $799 $992 $995 $996 0 $651 $-1 #
coedge $-1 $997 $998 $799 $916 0 $999 $-1 #
edge $-1 $1000 $1001 $799 $854 forward #
edge $-1 $900 $865 $864 $184 forward #
straight-curve $-1 -295 0 -55 0 -1 0 I I #
edge $-1 $809 $811 $906 $922 forward #
point $-1 5 150 -55 #
point $-1 295 150 -55 #
straight-curve $-1 150 150 -55 1 0 0 I I #
coedge $-1 $892 $1002 $818 $924 1 $849 $-1 #
edge $-1 $896 $926 $923 $932 forward #
coedge $-1 $886 $819 $1002 $1003 0 $887 $-1 #
vertex $-1 $1003 $1004 #
straight-curve $-1 305 0 245 0 -1 0 I I #
coedge $-1 $1005 $822 $881 $977 0 $930 $-1 #
coedge $-1 $822 $1005 $824 $934 1 $930 $-1 #
loop $-1 $834 $1005 $118 #
vertex $-1 $977 $1006 #
straight-curve $-1 150 -150 245 -1 0 0 I I #
coedge $-1 $825 $824 $878 $975 0 $826 $-1 #
edge $-1 $828 $1007 $824 $240 forward #
face $-1 $-1 $826 $3 $-1 $303 reversed single #
point $-1 5 150 245 #
point $-1 5 -150 245 #
straight-curve $-1 -295 0 245 0 -1 0 I I #
point $-1 -295 150 245 #
coedge $-1 $833 $832 $970 $1008 0 $834 $-1 #
edge $-1 $1009 $835 $832 $932 forward #
point $-1 -295 -150 245 #
edge $-1 $876 $944 $872 $1010 forward #
vertex $-1 $837 $1011 #
straight-curve $-1 150 -150 155 1 0 0 I I #
coedge $-1 $842 $841 $969 $1012 1 $843 $-1 #
face $-1 $1013 $843 $3 $-1 $1014 reversed single #
vertex $-1 $870 $1015 #
straight-curve $-1 150 150 145 1 0 0 I I #
coedge $-1 $969 $851 $847 $951 1 $955 $-1 #
edge $-1 $952 $853 $950 $123 forward #
vertex $-1 $951 $1016 #
straight-curve $-1 150 -150 145 -1 0 0 I I #
coedge $-1 $1002 $892 $889 $981 1 $849 $-1 #
loop $-1 $-1 $851 $1017 #
straight-curve $-1 -5 0 55 0 -1 0 I I #
point $-1 -5 -150 55 #
point $-1 -5 150 55 #
face $-1 $764 $999 $3 $-1 $858 forward single #
loop $-1 $-1 $1018 $857 #
face $-1 $935 $874 $3 $-1 $127 reversed single #
coedge $-1 $861 $860 $873 $971 1 $572 $-1 #
point $-1 -295 -150 -45 #
coedge $-1 $1019 $1020 $1021 $1022 1 $867 $-1 #
coedge $-1 $1023 $868 $1024 $1025 1 $731 $-1 #
coedge $-1 $868 $1023 $1026 $1027 1 $731 $-1 #
coedge $-1 $1028 $1029 $868 $968 0 $1030 $-1 #
edge $-1 $1031 $1032 $868 $171 forward #
coedge $-1 $869 $950 $946 $1012 0 $955 $-1 #
coedge $-1 $873 $872 $940 $1008 1 $874 $-1 #
edge $-1 $1009 $875 $873 $1033 forward #
point $-1 -5 150 245 #
point $-1 -5 150 155 #
coedge $-1 $879 $878 $1005 $1034 0 $863 $-1 #
edge $-1 $1007 $880 $933 $1035 forward #
point $-1 5 150 155 #
edge $-1 $931 $978 $881 $169 forward #
vertex $-1 $1034 $1036 #
straight-curve $-1 295 0 155 0 -1 0 I I #
straight-curve $-1 295 0 245 0 1 0 I I #
edge $-1 $982 $894 $954 $945 forward #
vertex $-1 $1003 $1037 #
straight-curve $-1 305 0 155 0 1 -0 I I #
point $-1 595 -150 155 #
point $-1 595 -150 245 #
point $-1 -295 -150 45 #
point $-1 -295 150 -55 #
coedge $-1 $1038 $912 $1039 $1040 1 $798 $-1 #
coedge $-1 $912 $1038 $1041 $1042 0 $798 $-1 #
coedge $-1 $1018 $1043 $912 $991 0 $960 $-1 #
edge $-1 $1044 $1045 $912 $854 forward #
coedge $-1 $914 $913 $1046 $1047 1 $651 $-1 #
coedge $-1 $1048 $1049 $913 $994 0 $1050 $-1 #
edge $-1 $1051 $1000 $993 $294 forward #
coedge $-1 $1052 $1053 $914 $996 1 $1054 $-1 #
edge $-1 $1055 $1001 $995 $226 forward #
coedge $-1 $1056 $915 $1053 $1057 1 $999 $-1 #
coedge $-1 $915 $1056 $1048 $1058 1 $999 $-1 #
loop $-1 $-1 $997 $959 #
vertex $-1 $994 $1059 #
vertex $-1 $916 $1060 #
coedge $-1 $923 $954 $925 $1003 1 $849 $-1 #
edge $-1 $926 $982 $925 $294 forward #
point $-1 305 -150 245 #
coedge $-1 $929 $928 $974 $1034 1 $930 $-1 #
point $-1 295 -150 245 #
vertex $-1 $934 $1061 #
edge $-1 $1009 $944 $970 $123 forward #
vertex $-1 $1008 $1062 #
straight-curve $-1 -5 0 155 0 -1 0 I I #
point $-1 -5 -150 155 #
edge $-1 $952 $948 $969 $1063 forward #
face $-1 $1064 $1065 $3 $-1 $1014 reversed single #
plane-surface $-1 150 0 145 0 0 1 1 0 0 forward_v I I I I #
point $-1 -5 150 145 #
point $-1 -5 -150 145 #
face $-1 $1066 $955 $3 $-1 $127 reversed single #
coedge $-1 $1026 $990 $1028 $1067 1 $960 $-1 #
coedge $-1 $1068 $964 $1069 $1070 1 $867 $-1 #
coedge $-1 $964 $1068 $1056 $1071 1 $867 $-1 #
coedge $-1 $1053 $1052 $964 $1022 0 $1054 $-1 #
edge $-1 $1072 $1073 $964 $228 forward #
coedge $-1 $966 $965 $1074 $1075 0 $731 $-1 #
coedge $-1 $1076 $1077 $965 $1025 0 $1065 $-1 #
edge $-1 $1078 $1031 $965 $949 forward #
coedge $-1 $1043 $1018 $966 $1027 0 $960 $-1 #
edge $-1 $1032 $1079 $966 $856 forward #
coedge $-1 $1041 $967 $1018 $1067 0 $1030 $-1 #
coedge $-1 $967 $1041 $1076 $1080 0 $1030 $-1 #
loop $-1 $-1 $1028 $1081 #
vertex $-1 $968 $1082 #
vertex $-1 $968 $1083 #
straight-curve $-1 -5 0 245 0 1 0 I I #
edge $-1 $1007 $978 $1005 $945 forward #
straight-curve $-1 5 0 155 0 1 -0 I I #
point $-1 295 -150 155 #
point $-1 305 -150 155 #
coedge $-1 $989 $988 $1084 $1085 1 $798 $-1 #
coedge $-1 $1086 $1087 $988 $1040 0 $1088 $-1 #
edge $-1 $1089 $1044 $1039 $240 forward #
coedge $-1 $1029 $1028 $989 $1042 1 $1030 $-1 #
edge $-1 $1090 $1045 $1041 $169 forward #
coedge $-1 $990 $1026 $1086 $1091 1 $960 $-1 #
vertex $-1 $1040 $1092 #
vertex $-1 $991 $1093 #
coedge $-1 $1094 $1095 $992 $1047 0 $1096 $-1 #
edge $-1 $1055 $1051 $992 $953 forward #
coedge $-1 $1097 $993 $998 $1058 0 $1050 $-1 #
coedge $-1 $993 $1097 $1094 $1098 0 $1050 $-1 #
loop $-1 $-1 $1048 $1099 #
vertex $-1 $994 $1100 #
coedge $-1 $1021 $995 $1095 $1101 0 $1054 $-1 #
coedge $-1 $995 $1021 $997 $1057 0 $1054 $-1 #
loop $-1 $-1 $1053 $1102 #
vertex $-1 $996 $1103 #
coedge $-1 $998 $997 $1020 $1071 0 $999 $-1 #
edge $-1 $1073 $1001 $1053 $1104 forward #
edge $-1 $1000 $1105 $1048 $1106 forward #
point $-1 305 -150 55 #
point $-1 595 -150 55 #
point $-1 5 -150 155 #
point $-1 -5 -150 245 #
straight-curve $-1 -5 0 145 0 1 0 I I #
face $-1 $1102 $1096 $3 $-1 $1014 reversed single #
loop $-1 $-1 $1076 $1013 #
face $-1 $118 $1088 $3 $-1 $303 reversed single #
edge $-1 $1032 $1045 $1028 $1107 forward #
coedge $-1 $1020 $1019 $1097 $1108 0 $867 $-1 #
coedge $-1 $1095 $1094 $1019 $1070 0 $1096 $-1 #
edge $-1 $1109 $1072 $1019 $949 forward #
edge $-1 $1073 $1105 $1020 $856 forward #
vertex $-1 $1022 $1110 #
vertex $-1 $1022 $1111 #
coedge $-1 $1087 $1086 $1023 $1075 1 $1088 $-1 #
edge $-1 $1078 $1079 $1074 $236 forward #
coedge $-1 $1084 $1024 $1029 $1080 1 $1065 $-1 #
coedge $-1 $1024 $1084 $1087 $1112 1 $1065 $-1 #
vertex $-1 $1075 $1113 #
vertex $-1 $1027 $1114 #
edge $-1 $1090 $1031 $1029 $1115 forward #
face $-1 $1099 $1030 $3 $-1 $74 reversed single #
point $-1 295 150 145 #
point $-1 295 150 55 #
coedge $-1 $1077 $1076 $1038 $1085 0 $1065 $-1 #
edge $-1 $1090 $1089 $1038 $953 forward #
coedge $-1 $1074 $1039 $1043 $1091 0 $1088 $-1 #
coedge $-1 $1039 $1074 $1077 $1112 0 $1088 $-1 #
loop $-1 $-1 $1086 $1066 #
vertex $-1 $1040 $1116 #
vertex $-1 $1042 $1117 #
edge $-1 $1044 $1079 $1086 $1118 forward #
point $-1 5 -150 55 #
point $-1 295 -150 55 #
coedge $-1 $1069 $1046 $1049 $1098 1 $1096 $-1 #
coedge $-1 $1046 $1069 $1052 $1101 1 $1096 $-1 #
loop $-1 $-1 $1095 $1064 #
coedge $-1 $1049 $1048 $1068 $1108 1 $1050 $-1 #
edge $-1 $1109 $1051 $1049 $1119 forward #
face $-1 $1017 $1050 $3 $-1 $299 reversed single #
point $-1 305 -150 145 #
edge $-1 $1055 $1072 $1052 $1120 forward #
face $-1 $1081 $1054 $3 $-1 $230 reversed single #
point $-1 595 -150 145 #
straight-curve $-1 595 0 55 0 -1 0 I I #
vertex $-1 $1071 $1121 #
straight-curve $-1 305 0 55 0 1 -0 I I #
straight-curve $-1 295 0 55 0 -1 0 I I #
edge $-1 $1109 $1105 $1097 $290 forward #
vertex $-1 $1108 $1122 #
point $-1 595 150 145 #
point $-1 595 150 55 #
edge $-1 $1078 $1089 $1087 $1123 forward #
point $-1 5 150 145 #
point $-1 5 150 55 #
straight-curve $-1 295 0 145 0 1 0 I I #
point $-1 5 -150 145 #
point $-1 295 -150 145 #
straight-curve $-1 5 0 55 0 1 -0 I I #
straight-curve $-1 305 0 145 0 -1 0 I I #
straight-curve $-1 595 0 145 0 1 0 I I #
point $-1 305 150 55 #
point $-1 305 150 145 #
straight-curve $-1 5 0 145 0 -1 0 I I #
End-of-ACIS-data 