106 0 1 0           
body $-1 $1 $-1 $-1 #
lump $-1 $-1 $2 $0 #
shell $-1 $-1 $-1 $3 $1 #
face $-1 $4 $5 $2 $-1 $6 reversed single #
face $-1 $7 $8 $2 $-1 $9 reversed single #
loop $-1 $-1 $10 $3 #
plane-surface $-1 -4.3300999999999998 -30 7.5 -0.8660217547228608 0 0.50000632030679093 0.50000632030679093 0 0.8660217547228608 0 I I I I #
face $-1 $11 $12 $2 $-1 $13 reversed single #
loop $-1 $-1 $14 $4 #
plane-surface $-1 -8.6602999999999994 -30 0 -0.8660217547228608 0 -0.50000632030679093 -0.50000632030679093 0 0.8660217547228608 0 I I I I #
coedge $-1 $15 $16 $17 $18 1 $5 $-1 #
face $-1 $19 $20 $2 $-1 $21 reversed single #
loop $-1 $-1 $22 $7 #
plane-surface $-1 -4.3300999999999998 -30 -7.5 0 0 -1 -1 0 0 0 I I I I #
coedge $-1 $23 $24 $25 $26 1 $8 $-1 #
coedge $-1 $27 $10 $28 $29 1 $5 $-1 #
coedge $-1 $10 $27 $23 $30 0 $5 $-1 #
coedge $-1 $25 $31 $10 $18 0 $32 $-1 #
edge $-1 $33 $34 $10 $35 0 #
face $-1 $36 $37 $2 $-1 $38 reversed single #
loop $-1 $-1 $39 $11 #
plane-surface $-1 4.3300999999999998 -30 -7.5 0.8660217547228608 0 -0.50000632030679104 -0.50000632030679104 0 -0.8660217547228608 0 I I I I #
coedge $-1 $40 $41 $42 $43 1 $12 $-1 #
coedge $-1 $44 $14 $16 $30 1 $8 $-1 #
coedge $-1 $14 $44 $40 $45 0 $8 $-1 #
coedge $-1 $42 $17 $14 $26 0 $32 $-1 #
edge $-1 $34 $46 $14 $47 0 #
coedge $-1 $16 $15 $48 $49 1 $5 $-1 #
coedge $-1 $50 $51 $15 $29 0 $52 $-1 #
edge $-1 $53 $33 $15 $54 0 #
edge $-1 $55 $34 $23 $56 0 #
coedge $-1 $17 $57 $50 $58 0 $32 $-1 #
loop $-1 $-1 $17 $59 #
vertex $-1 $29 $60 #
vertex $-1 $30 $61 #
straight-curve $-1 -8.6602999999999994 -18 0 -0.50000632030679082 0 -0.86602175472286069 I I #
face $-1 $59 $52 $2 $-1 $62 reversed single #
loop $-1 $-1 $63 $19 #
plane-surface $-1 8.6602999999999994 -30 0 0.8660217547228608 0 0.50000632030679104 0.50000632030679104 0 -0.8660217547228608 0 I I I I #
coedge $-1 $64 $65 $66 $67 1 $20 $-1 #
coedge $-1 $68 $22 $24 $45 1 $12 $-1 #
coedge $-1 $22 $68 $64 $69 0 $12 $-1 #
coedge $-1 $66 $25 $22 $43 0 $32 $-1 #
edge $-1 $46 $70 $22 $71 0 #
coedge $-1 $24 $23 $72 $73 1 $8 $-1 #
edge $-1 $74 $46 $40 $75 0 #
vertex $-1 $45 $76 #
straight-curve $-1 -4.3300999999999998 -18 -7.5 0.50000632030679082 0 -0.86602175472286069 I I #
coedge $-1 $77 $72 $27 $49 0 $78 $-1 #
edge $-1 $55 $53 $48 $79 0 #
coedge $-1 $80 $28 $31 $58 1 $52 $-1 #
coedge $-1 $28 $80 $77 $81 1 $52 $-1 #
loop $-1 $-1 $50 $36 #
vertex $-1 $49 $82 #
straight-curve $-1 -4.3300999999999998 -30 7.5 0 1 0 I I #
vertex $-1 $49 $83 #
straight-curve $-1 -8.6602999999999994 -30 0 0 1 0 I I #
coedge $-1 $31 $66 $63 $84 0 $32 $-1 #
edge $-1 $85 $33 $50 $86 0 #
face $-1 $87 $32 $2 $-1 $88 forward single #
point $-1 -4.3300999999999998 -18 7.5 #
point $-1 -8.6602999999999994 -18 0 #
plane-surface $-1 4.3300999999999998 -30 7.5 0 0 1 1 0 0 0 I I I I #
coedge $-1 $89 $90 $57 $84 1 $37 $-1 #
coedge $-1 $91 $39 $41 $69 1 $20 $-1 #
coedge $-1 $39 $91 $89 $92 0 $20 $-1 #
coedge $-1 $57 $42 $39 $67 0 $32 $-1 #
edge $-1 $70 $93 $39 $94 0 #
coedge $-1 $41 $40 $95 $96 1 $12 $-1 #
edge $-1 $97 $70 $64 $98 0 #
vertex $-1 $69 $99 #
straight-curve $-1 4.3300999999999998 -18 -7.5 1 0 0 I I #
coedge $-1 $48 $95 $44 $73 0 $78 $-1 #
edge $-1 $74 $55 $72 $100 0 #
vertex $-1 $73 $101 #
straight-curve $-1 -4.3300999999999998 -30 -7.5 0 1 0 I I #
point $-1 -4.3300999999999998 -18 -7.5 #
coedge $-1 $102 $48 $51 $81 0 $78 $-1 #
loop $-1 $103 $48 $104 #
straight-curve $-1 -5.4126351319505766 -30 5.6250257517829851 0.50000632030679093 0 0.8660217547228608 I I #
coedge $-1 $51 $50 $90 $105 1 $52 $-1 #
edge $-1 $53 $106 $77 $107 0 #
point $-1 -4.3300999999999998 -30 7.5 #
point $-1 -8.6602999999999994 -30 0 #
edge $-1 $93 $85 $63 $108 0 #
vertex $-1 $105 $109 #
straight-curve $-1 -4.3300999999999998 -18 7.5 -1 0 0 I I #
face $-1 $110 $111 $2 $-1 $112 forward single #
plane-surface $-1 -4.3300999999999998 -18 7.5 0 -1 0 0 0 -1 0 I I I I #
coedge $-1 $113 $63 $65 $92 1 $37 $-1 #
coedge $-1 $63 $113 $80 $105 0 $37 $-1 #
coedge $-1 $65 $64 $114 $115 1 $20 $-1 #
edge $-1 $116 $93 $89 $117 0 #
vertex $-1 $92 $118 #
straight-curve $-1 8.6602999999999994 -18 0 0.50000632030679093 0 0.86602175472286069 I I #
coedge $-1 $72 $114 $68 $96 0 $78 $-1 #
edge $-1 $97 $74 $95 $119 0 #
vertex $-1 $96 $120 #
straight-curve $-1 4.3300999999999998 -30 -7.5 0 1 0 I I #
point $-1 4.3300999999999998 -18 -7.5 #
straight-curve $-1 -7.5777351319505755 -30 -1.8750257517829845 -0.50000632030679093 0 0.8660217547228608 I I #
point $-1 -4.3300999999999998 -30 -7.5 #
coedge $-1 $114 $77 $113 $121 0 $78 $-1 #
loop $-1 $-1 $122 $104 #
face $-1 $-1 $78 $2 $-1 $123 forward single #
edge $-1 $106 $85 $80 $124 0 #
vertex $-1 $121 $125 #
straight-curve $-1 2.1650499999999999 -30 7.5 1 0 0 I I #
straight-curve $-1 4.3300999999999998 -18 7.5 -0.50000632030679093 0 0.86602175472286069 I I #
point $-1 4.3300999999999998 -18 7.5 #
face $-1 $126 $127 $2 $-1 $128 forward single #
loop $-1 $129 $130 $87 #
plane-surface $-1 0 0 0 0 -1 0 0 0 -1 0 I I I I #
coedge $-1 $90 $89 $102 $121 1 $37 $-1 #
coedge $-1 $95 $102 $91 $115 0 $78 $-1 #
edge $-1 $116 $97 $114 $131 0 #
vertex $-1 $115 $132 #
straight-curve $-1 8.6602999999999994 -30 0 0 1 0 I I #
point $-1 8.6602999999999994 -18 0 #
straight-curve $-1 -2.1650499999999999 -30 -7.5 -1 0 0 I I #
point $-1 4.3300999999999998 -30 -7.5 #
edge $-1 $106 $116 $102 $133 0 #
coedge $-1 $122 $122 $134 $135 0 $103 $-1 #
plane-surface $-1 0 -30 0 0 -1 0 0 0 -1 0 I I I I #
straight-curve $-1 4.3300999999999998 -30 7.5 0 1 0 I I #
point $-1 4.3300999999999998 -30 7.5 #
face $-1 $136 $137 $2 $-1 $138 forward single #
loop $-1 $139 $140 $110 #
cone-surface $-1 0 7.5 0 0 1 0 0 0 15 1 I I 0 1 0 I I I I #
loop $-1 $-1 $141 $87 #
coedge $-1 $130 $130 $142 $143 0 $111 $-1 #
straight-curve $-1 5.4126351319505766 -30 -5.6250257517829851 -0.50000632030679104 0 -0.8660217547228608 I I #
point $-1 8.6602999999999994 -30 0 #
straight-curve $-1 7.5777351319505755 -30 1.8750257517829849 0.50000632030679104 0 -0.8660217547228608 I I #
coedge $-1 $134 $134 $122 $135 1 $144 $-1 #
edge $-1 $145 $145 $122 $146 0 #
face $-1 $147 $148 $2 $-1 $149 reversed single #
loop $-1 $-1 $150 $126 #
plane-surface $-1 0 15 0 0 1 0 0 0 1 0 I I I I #
loop $-1 $151 $142 $110 #
coedge $-1 $140 $140 $150 $152 1 $127 $-1 #
coedge $-1 $141 $141 $153 $154 1 $129 $-1 #
coedge $-1 $142 $142 $130 $143 1 $139 $-1 #
edge $-1 $155 $155 $130 $156 0 #
loop $-1 $157 $134 $158 #
vertex $-1 $135 $159 #
ellipse-curve $-1 0 -30 0 0 -1 0 0 0 11.25 1 I I #
face $-1 $160 $161 $2 $-1 $162 reversed single #
loop $-1 $-1 $163 $136 #
plane-surface $-1 0 12.5 -95 0 -1 0 0 0 -1 0 I I I I #
coedge $-1 $150 $150 $140 $152 0 $137 $-1 #
loop $-1 $-1 $164 $110 #
edge $-1 $165 $165 $150 $166 0 #
coedge $-1 $153 $153 $141 $154 0 $157 $-1 #
edge $-1 $167 $167 $153 $168 1 #
vertex $-1 $143 $169 #
ellipse-curve $-1 0 0 0 0 -1 0 0 0 15 1 I I #
loop $-1 $-1 $153 $158 #
face $-1 $104 $144 $2 $-1 $170 forward single #
point $-1 0 -30 11.25 #
face $-1 $171 $172 $2 $-1 $173 reversed single #
loop $-1 $-1 $174 $147 #
plane-surface $-1 10 7.5 -95 -1 0 0 0 0 1 0 I I I I #
coedge $-1 $175 $176 $177 $178 0 $148 $-1 #
coedge $-1 $179 $180 $181 $182 1 $151 $-1 #
vertex $-1 $152 $183 #
ellipse-curve $-1 0 15 0 0 1 0 0 0 15 1 I I #
vertex $-1 $154 $184 #
ellipse-curve $-1 0 0 0 0 1 0 0 0 11.25 1 I I #
point $-1 0 0 15 #
cone-surface $-1 0 -15 0 0 1 0 0 0 11.25 1 I I 0 1 0 I I I I #
face $-1 $185 $186 $2 $-1 $187 reversed single #
loop $-1 $-1 $188 $160 #
plane-surface $-1 0 7.5 -190 0 0 1 1 0 0 0 I I I I #
coedge $-1 $189 $190 $179 $191 0 $161 $-1 #
coedge $-1 $192 $163 $190 $193 0 $148 $-1 #
coedge $-1 $163 $192 $194 $195 1 $148 $-1 #
coedge $-1 $180 $179 $163 $178 1 $151 $-1 #
edge $-1 $196 $197 $163 $198 0 #
coedge $-1 $177 $164 $174 $191 1 $151 $-1 #
coedge $-1 $164 $177 $199 $200 1 $151 $-1 #
coedge $-1 $201 $202 $164 $182 0 $186 $-1 #
edge $-1 $203 $204 $181 $205 0 #
point $-1 0 15 15 #
point $-1 0 0 11.25 #
face $-1 $158 $206 $2 $-1 $207 reversed single #
loop $-1 $-1 $181 $171 #
plane-surface $-1 0 2.5 -95 0 1 0 0 0 1 0 I I I I #
coedge $-1 $208 $209 $210 $211 0 $172 $-1 #
coedge $-1 $210 $174 $202 $212 0 $161 $-1 #
coedge $-1 $174 $210 $175 $193 1 $161 $-1 #
edge $-1 $197 $203 $174 $213 0 #
coedge $-1 $176 $175 $209 $214 1 $148 $-1 #
edge $-1 $197 $215 $190 $216 0 #
coedge $-1 $217 $199 $176 $195 0 $206 $-1 #
edge $-1 $196 $218 $176 $219 0 #
vertex $-1 $195 $220 #
vertex $-1 $193 $221 #
ellipse-curve $-1 0 12.5 0 0 -1 0 0 0 15 1 I I #
coedge $-1 $194 $222 $180 $200 0 $206 $-1 #
edge $-1 $204 $196 $199 $223 0 #
coedge $-1 $224 $181 $222 $225 0 $186 $-1 #
coedge $-1 $181 $224 $189 $212 1 $186 $-1 #
vertex $-1 $212 $226 #
vertex $-1 $225 $227 #
ellipse-curve $-1 0 2.5 0 0 1 0 0 0 15 1 I I #
loop $-1 $-1 $199 $185 #
plane-surface $-1 -10 7.5 -95 1 0 0 0 0 -1 0 I I I I #
coedge $-1 $228 $188 $224 $229 0 $172 $-1 #
coedge $-1 $188 $228 $192 $214 0 $172 $-1 #
coedge $-1 $190 $189 $188 $211 1 $161 $-1 #
edge $-1 $215 $230 $210 $231 0 #
edge $-1 $203 $230 $189 $232 0 #
straight-curve $-1 10 7.5 -11.180339887498945 0 -1 0 I I #
edge $-1 $218 $215 $192 $233 0 #
vertex $-1 $211 $234 #
straight-curve $-1 10 12.5 -95 0 0 -1 I I #
coedge $-1 $222 $194 $228 $235 1 $206 $-1 #
vertex $-1 $214 $236 #
straight-curve $-1 -10 12.5 -95 0 0 -1 I I #
point $-1 -10 12.5 -11.180339887498945 #
point $-1 10 12.5 -11.180339887498945 #
coedge $-1 $199 $217 $201 $225 1 $206 $-1 #
straight-curve $-1 -10 7.5 -11.180339887498945 0 1 0 I I #
coedge $-1 $202 $201 $208 $229 1 $186 $-1 #
edge $-1 $204 $237 $222 $238 0 #
point $-1 10 2.5 -11.180339887498945 #
point $-1 -10 2.5 -11.180339887498945 #
coedge $-1 $209 $208 $217 $235 0 $172 $-1 #
edge $-1 $230 $237 $224 $239 0 #
vertex $-1 $212 $240 #
straight-curve $-1 10 7.5 -190 0 -1 0 I I #
straight-curve $-1 10 2.5 -95 0 0 -1 I I #
straight-curve $-1 0 12.5 -190 1 0 0 I I #
point $-1 10 12.5 -190 #
edge $-1 $237 $218 $217 $241 0 #
point $-1 -10 12.5 -190 #
vertex $-1 $235 $242 #
straight-curve $-1 -10 2.5 -95 0 0 -1 I I #
straight-curve $-1 0 2.5 -190 -1 0 0 I I #
point $-1 10 2.5 -190 #
straight-curve $-1 -10 7.5 -190 0 1 0 I I #
point $-1 -10 2.5 -190 #
End-of-ACIS-data 