600 0 1 0           
100 GICL ACIS Healer - Source: /gicl/data5/repository/CMU/Tools/socket_wrench_with_15mm_socket.sat - 6 0 18 ACIS 6.0.3 Solaris 24 Sat Apr 13 00:32:48 2002 
1 9.999999999999999547e-07 1.000000000000000036e-10 
body $-1 $1 $-1 $-1 #
lump $-1 $-1 $2 $0 #
shell $-1 $-1 $-1 $3 $-1 $1 #
face $-1 $4 $5 $2 $-1 $6 reversed single #
face $-1 $7 $8 $2 $-1 $9 reversed single #
loop $-1 $-1 $10 $3 #
plane-surface $-1 -4.330099999999999838 -30 7.5 -0.8660217547228608037 0 0.5000063203067909301 0.5000063203067909301 0 0.8660217547228608037 forward_v I I I I #
face $-1 $11 $12 $2 $-1 $13 reversed single #
loop $-1 $-1 $14 $4 #
plane-surface $-1 -8.660299999999999443 -30 0 -0.8660217547228608037 0 -0.5000063203067909301 -0.5000063203067909301 0 0.8660217547228608037 forward_v I I I I #
coedge $-1 $15 $16 $17 $18 reversed $5 $-1 #
face $-1 $19 $20 $2 $-1 $21 reversed single #
loop $-1 $-1 $22 $7 #
plane-surface $-1 -4.330099999999999838 -30 -7.5 0 0 -1 -1 0 0 forward_v I I I I #
coedge $-1 $23 $24 $25 $26 reversed $8 $-1 #
coedge $-1 $27 $10 $28 $29 reversed $5 $-1 #
coedge $-1 $10 $27 $23 $30 forward $5 $-1 #
coedge $-1 $25 $31 $10 $18 forward $32 $-1 #
edge $-1 $33 -8.66029052861392401 $34 0 $10 $35 forward 7 unknown #
face $-1 $36 $37 $2 $-1 $38 reversed single #
loop $-1 $-1 $39 $11 #
plane-surface $-1 4.330099999999999838 -30 -7.5 0.8660217547228608037 0 -0.5000063203067910411 -0.5000063203067910411 0 -0.8660217547228608037 forward_v I I I I #
coedge $-1 $40 $41 $42 $43 reversed $12 $-1 #
coedge $-1 $44 $14 $16 $30 reversed $8 $-1 #
coedge $-1 $14 $44 $40 $45 forward $8 $-1 #
coedge $-1 $42 $17 $14 $26 forward $32 $-1 #
edge $-1 $34 -8.66029052861392401 $46 0 $14 $47 forward 7 unknown #
coedge $-1 $16 $15 $48 $49 reversed $5 $-1 #
coedge $-1 $50 $51 $15 $29 forward $52 $-1 #
edge $-1 $53 0 $33 12 $15 $54 forward 7 unknown #
edge $-1 $55 0 $34 12 $23 $56 forward 7 unknown #
coedge $-1 $17 $57 $50 $58 forward $32 $-1 #
loop $-1 $-1 $17 $59 #
vertex $-1 $29 $60 #
vertex $-1 $30 $61 #
straight-curve $-1 -8.660299999999999443 -18 0 -0.5000063203067908191 0 -0.8660217547228606927 I I #
face $-1 $59 $52 $2 $-1 $62 reversed single #
loop $-1 $-1 $63 $19 #
plane-surface $-1 8.660299999999999443 -30 0 0.8660217547228608037 0 0.5000063203067910411 0.5000063203067910411 0 -0.8660217547228608037 forward_v I I I I #
coedge $-1 $64 $65 $66 $67 reversed $20 $-1 #
coedge $-1 $68 $22 $24 $45 reversed $12 $-1 #
coedge $-1 $22 $68 $64 $69 forward $12 $-1 #
coedge $-1 $66 $25 $22 $43 forward $32 $-1 #
edge $-1 $46 -8.660199999999999676 $70 0 $22 $71 forward 7 unknown #
coedge $-1 $24 $23 $72 $73 reversed $8 $-1 #
edge $-1 $74 0 $46 12 $40 $75 forward 7 unknown #
vertex $-1 $45 $76 #
straight-curve $-1 -4.330099999999999838 -18 -7.5 0.5000063203067908191 0 -0.8660217547228606927 I I #
coedge $-1 $77 $72 $27 $49 forward $78 $-1 #
edge $-1 $55 -6.495247632183412279 $53 2.165042896430509956 $48 $79 forward 7 unknown #
coedge $-1 $80 $28 $31 $58 reversed $52 $-1 #
coedge $-1 $28 $80 $77 $81 reversed $52 $-1 #
loop $-1 $-1 $50 $36 #
vertex $-1 $49 $82 #
straight-curve $-1 -4.330099999999999838 -30 7.5 0 1 0 I I #
vertex $-1 $49 $83 #
straight-curve $-1 -8.660299999999999443 -30 0 0 1 0 I I #
coedge $-1 $31 $66 $63 $84 forward $32 $-1 #
edge $-1 $85 -8.660199999999999676 $33 0 $50 $86 forward 7 unknown #
face $-1 $87 $32 $2 $-1 $88 forward single #
point $-1 -4.330099999999999838 -18 7.5 #
point $-1 -8.660299999999999443 -18 0 #
plane-surface $-1 4.330099999999999838 -30 7.5 0 0 1 1 0 0 forward_v I I I I #
coedge $-1 $89 $90 $57 $84 reversed $37 $-1 #
coedge $-1 $91 $39 $41 $69 reversed $20 $-1 #
coedge $-1 $39 $91 $89 $92 forward $20 $-1 #
coedge $-1 $57 $42 $39 $67 forward $32 $-1 #
edge $-1 $70 -8.66029052861392401 $93 0 $39 $94 forward 7 unknown #
coedge $-1 $41 $40 $95 $96 reversed $12 $-1 #
edge $-1 $97 0 $70 12 $64 $98 forward 7 unknown #
vertex $-1 $69 $99 #
straight-curve $-1 4.330099999999999838 -18 -7.5 1 0 0 I I #
coedge $-1 $48 $95 $44 $73 forward $78 $-1 #
edge $-1 $74 -6.495188160737471961 $55 2.165102367876450273 $72 $100 forward 7 unknown #
vertex $-1 $73 $101 #
straight-curve $-1 -4.330099999999999838 -30 -7.5 0 1 0 I I #
point $-1 -4.330099999999999838 -18 -7.5 #
coedge $-1 $102 $48 $51 $81 forward $78 $-1 #
loop $-1 $103 $48 $104 #
straight-curve $-1 -5.41263513195057655 -30 5.625025751782985139 0.5000063203067909301 0 0.8660217547228608037 I I #
coedge $-1 $51 $50 $90 $105 reversed $52 $-1 #
edge $-1 $53 -6.495149999999999757 $106 2.165049999999999919 $77 $107 forward 7 unknown #
point $-1 -4.330099999999999838 -30 7.5 #
point $-1 -8.660299999999999443 -30 0 #
edge $-1 $93 -8.66029052861392401 $85 0 $63 $108 forward 7 unknown #
vertex $-1 $105 $109 #
straight-curve $-1 -4.330099999999999838 -18 7.5 -1 0 0 I I #
face $-1 $110 $111 $2 $-1 $112 forward single #
plane-surface $-1 -4.330099999999999838 -18 7.5 0 -1 0 0 0 -1 forward_v I I I I #
coedge $-1 $113 $63 $65 $92 reversed $37 $-1 #
coedge $-1 $63 $113 $80 $105 forward $37 $-1 #
coedge $-1 $65 $64 $114 $115 reversed $20 $-1 #
edge $-1 $116 0 $93 12 $89 $117 forward 7 unknown #
vertex $-1 $92 $118 #
straight-curve $-1 8.660299999999999443 -18 0 0.5000063203067909301 0 0.8660217547228606927 I I #
coedge $-1 $72 $114 $68 $96 forward $78 $-1 #
edge $-1 $97 -6.495149999999999757 $74 2.165049999999999919 $95 $119 forward 7 unknown #
vertex $-1 $96 $120 #
straight-curve $-1 4.330099999999999838 -30 -7.5 0 1 0 I I #
point $-1 4.330099999999999838 -18 -7.5 #
straight-curve $-1 -7.577735131950575465 -30 -1.875025751782984473 -0.5000063203067909301 0 0.8660217547228608037 I I #
point $-1 -4.330099999999999838 -30 -7.5 #
coedge $-1 $114 $77 $113 $121 forward $78 $-1 #
loop $-1 $-1 $122 $104 #
face $-1 $-1 $78 $2 $-1 $123 forward single #
edge $-1 $106 0 $85 12 $80 $124 forward 7 unknown #
vertex $-1 $121 $125 #
straight-curve $-1 2.165049999999999919 -30 7.5 1 0 0 I I #
straight-curve $-1 4.330099999999999838 -18 7.5 -0.5000063203067909301 0 0.8660217547228606927 I I #
point $-1 4.330099999999999838 -18 7.5 #
face $-1 $126 $127 $2 $-1 $128 forward single #
loop $-1 $129 $130 $87 #
plane-surface $-1 0 0 0 0 -1 0 0 0 -1 forward_v I I I I #
coedge $-1 $90 $89 $102 $121 reversed $37 $-1 #
coedge $-1 $95 $102 $91 $115 forward $78 $-1 #
edge $-1 $116 -6.495247632183412279 $97 2.1650428964305104 $114 $131 forward 7 unknown #
vertex $-1 $115 $132 #
straight-curve $-1 8.660299999999999443 -30 0 0 1 0 I I #
point $-1 8.660299999999999443 -18 0 #
straight-curve $-1 -2.165049999999999919 -30 -7.5 -1 0 0 I I #
point $-1 4.330099999999999838 -30 -7.5 #
edge $-1 $106 -6.495188160737471073 $116 2.165102367876451162 $102 $133 forward 7 unknown #
coedge $-1 $122 $122 $134 $135 forward $103 $-1 #
plane-surface $-1 0 -30 0 0 -1 0 0 0 -1 forward_v I I I I #
straight-curve $-1 4.330099999999999838 -30 7.5 0 1 0 I I #
point $-1 4.330099999999999838 -30 7.5 #
face $-1 $136 $137 $2 $-1 $138 forward single #
loop $-1 $139 $140 $110 #
cone-surface $-1 0 7.5 0 0 1 0 0 0 15 1 I I 0 1 15 forward I I I I #
loop $-1 $-1 $141 $87 #
coedge $-1 $130 $130 $142 $143 forward $111 $-1 #
straight-curve $-1 5.41263513195057655 -30 -5.625025751782985139 -0.5000063203067910411 0 -0.8660217547228608037 I I #
point $-1 8.660299999999999443 -30 0 #
straight-curve $-1 7.577735131950575465 -30 1.875025751782984917 0.5000063203067910411 0 -0.8660217547228608037 I I #
coedge $-1 $134 $134 $122 $135 reversed $144 $-1 #
edge $-1 $145 0 $145 6.283185307179586232 $122 $146 forward 7 unknown #
face $-1 $147 $148 $2 $-1 $149 reversed single #
loop $-1 $-1 $150 $126 #
plane-surface $-1 0 15 0 0 1 0 0 0 1 forward_v I I I I #
loop $-1 $151 $142 $110 #
coedge $-1 $140 $140 $150 $152 reversed $127 $-1 #
coedge $-1 $141 $141 $153 $154 reversed $129 $-1 #
coedge $-1 $142 $142 $130 $143 reversed $139 $-1 #
edge $-1 $155 0 $155 6.283185307179586232 $130 $156 forward 7 unknown #
loop $-1 $157 $134 $158 #
vertex $-1 $135 $159 #
ellipse-curve $-1 0 -30 0 0 -1 0 0 0 11.25 1 I I #
face $-1 $160 $161 $2 $-1 $162 reversed single #
loop $-1 $-1 $163 $136 #
plane-surface $-1 0 12.5 -95 0 -1 0 0 0 -1 forward_v I I I I #
coedge $-1 $150 $150 $140 $152 forward $137 $-1 #
loop $-1 $-1 $164 $110 #
edge $-1 $165 0 $165 6.283185307179586232 $150 $166 forward 7 unknown #
coedge $-1 $153 $153 $141 $154 forward $157 $-1 #
edge $-1 $167 -6.283185307179586232 $167 -0 $153 $168 reversed 7 unknown #
vertex $-1 $143 $169 #
ellipse-curve $-1 0 0 0 0 -1 0 0 0 15 1 I I #
loop $-1 $-1 $153 $158 #
face $-1 $104 $144 $2 $-1 $170 forward single #
point $-1 0 -30 11.25 #
face $-1 $171 $172 $2 $-1 $173 reversed single #
loop $-1 $-1 $174 $147 #
plane-surface $-1 10 7.5 -95 -1 0 0 0 0 1 forward_v I I I I #
coedge $-1 $175 $176 $177 $178 forward $148 $-1 #
coedge $-1 $179 $180 $181 $182 reversed $151 $-1 #
vertex $-1 $152 $183 #
ellipse-curve $-1 0 15 0 0 1 0 0 0 15 1 I I #
vertex $-1 $154 $184 #
ellipse-curve $-1 0 0 0 0 1 0 0 0 11.25 1 I I #
point $-1 0 0 15 #
cone-surface $-1 0 -15 0 0 1 0 0 0 11.25 1 I I 0 1 11.25 forward I I I I #
face $-1 $185 $186 $2 $-1 $187 reversed single #
loop $-1 $-1 $188 $160 #
plane-surface $-1 0 7.5 -190 0 0 1 1 0 0 forward_v I I I I #
coedge $-1 $189 $190 $179 $191 forward $161 $-1 #
coedge $-1 $192 $163 $190 $193 forward $148 $-1 #
coedge $-1 $163 $192 $194 $195 reversed $148 $-1 #
coedge $-1 $180 $179 $163 $178 reversed $151 $-1 #
edge $-1 $196 2.411864997362826557 $197 3.871320309816759675 $163 $198 forward 7 unknown #
coedge $-1 $177 $164 $174 $191 reversed $151 $-1 #
coedge $-1 $164 $177 $199 $200 reversed $151 $-1 #
coedge $-1 $201 $202 $164 $182 forward $186 $-1 #
edge $-1 $203 2.411864997362826557 $204 3.871320309816759675 $181 $205 forward 7 unknown #
point $-1 0 15 15 #
point $-1 0 0 11.25 #
face $-1 $158 $206 $2 $-1 $207 reversed single #
loop $-1 $-1 $181 $171 #
plane-surface $-1 0 2.5 -95 0 1 0 0 0 1 forward_v I I I I #
coedge $-1 $208 $209 $210 $211 forward $172 $-1 #
coedge $-1 $210 $174 $202 $212 forward $161 $-1 #
coedge $-1 $174 $210 $175 $193 reversed $161 $-1 #
edge $-1 $197 -5 $203 5 $174 $213 forward 7 unknown #
coedge $-1 $176 $175 $209 $214 reversed $148 $-1 #
edge $-1 $197 -83.81966011250105453 $215 95 $190 $216 forward 7 unknown #
coedge $-1 $217 $199 $176 $195 forward $206 $-1 #
edge $-1 $196 -83.81966011250105453 $218 95 $176 $219 forward 7 unknown #
vertex $-1 $195 $220 #
vertex $-1 $193 $221 #
ellipse-curve $-1 0 12.5 0 0 -1 0 0 0 15 1 I I #
coedge $-1 $194 $222 $180 $200 forward $206 $-1 #
edge $-1 $204 -5 $196 5 $199 $223 forward 7 unknown #
coedge $-1 $224 $181 $222 $225 forward $186 $-1 #
coedge $-1 $181 $224 $189 $212 reversed $186 $-1 #
vertex $-1 $212 $226 #
vertex $-1 $225 $227 #
ellipse-curve $-1 0 2.5 0 0 1 0 0 0 15 1 I I #
loop $-1 $-1 $199 $185 #
plane-surface $-1 -10 7.5 -95 1 0 0 0 0 -1 forward_v I I I I #
coedge $-1 $228 $188 $224 $229 forward $172 $-1 #
coedge $-1 $188 $228 $192 $214 forward $172 $-1 #
coedge $-1 $190 $189 $188 $211 reversed $161 $-1 #
edge $-1 $215 -5 $230 5 $210 $231 forward 7 unknown #
edge $-1 $203 -83.81966011250105453 $230 95 $189 $232 forward 7 unknown #
straight-curve $-1 10 7.5 -11.18033988749894547 0 -1 0 I I #
edge $-1 $218 -10 $215 10 $192 $233 forward 7 unknown #
vertex $-1 $211 $234 #
straight-curve $-1 10 12.5 -95 0 0 -1 I I #
coedge $-1 $222 $194 $228 $235 reversed $206 $-1 #
vertex $-1 $214 $236 #
straight-curve $-1 -10 12.5 -95 0 0 -1 I I #
point $-1 -10 12.5 -11.18033988749894547 #
point $-1 10 12.5 -11.18033988749894547 #
coedge $-1 $199 $217 $201 $225 reversed $206 $-1 #
straight-curve $-1 -10 7.5 -11.18033988749894547 0 1 0 I I #
coedge $-1 $202 $201 $208 $229 reversed $186 $-1 #
edge $-1 $204 -83.81966011250105453 $237 95 $222 $238 forward 7 unknown #
point $-1 10 2.5 -11.18033988749894547 #
point $-1 -10 2.5 -11.18033988749894547 #
coedge $-1 $209 $208 $217 $235 forward $172 $-1 #
edge $-1 $230 -10 $237 10 $224 $239 forward 7 unknown #
vertex $-1 $212 $240 #
straight-curve $-1 10 7.5 -190 0 -1 0 I I #
straight-curve $-1 10 2.5 -95 0 0 -1 I I #
straight-curve $-1 0 12.5 -190 1 0 0 I I #
point $-1 10 12.5 -190 #
edge $-1 $237 -5 $218 5 $217 $241 forward 7 unknown #
point $-1 -10 12.5 -190 #
vertex $-1 $235 $242 #
straight-curve $-1 -10 2.5 -95 0 0 -1 I I #
straight-curve $-1 0 2.5 -190 -1 0 0 I I #
point $-1 10 2.5 -190 #
straight-curve $-1 -10 7.5 -190 0 1 0 I I #
point $-1 -10 2.5 -190 #
End-of-ACIS-data 