700 0 2 0           
24 FBMach with ACIS - 7.0.3 13 ACIS 7.0.3 NT 24 Mon May 13 17:17:01 2002 
1 9.9999999999999995e-007 1e-010 
body $2 -1 $-1 $3 $-1 $4 #
bdycol-kcp $-1 -1 1 5 $5 $6 $7 $8 $9 #
model_id-kcp-attrib $-1 -1 $-1 $-1 $0 1 1021324620 1021324620 -1291649023 1 #
lump $-1 -1 $-1 $-1 $10 $0 #
transform $-1 -1 1 0 0 0 1 0 0 0 1 0 0 0 1 rotate no_reflect no_shear #
body $11 -1 $-1 $12 $-1 $13 #
body $14 -1 $-1 $15 $-1 $16 #
body $17 -1 $-1 $18 $-1 $19 #
body $20 -1 $-1 $21 $-1 $22 #
body $23 -1 $-1 $24 $-1 $25 #
shell $-1 -1 $-1 $-1 $-1 $26 $-1 $3 #
model_id-kcp-attrib $-1 -1 $-1 $-1 $5 1 1021324620 1021324620 -1291649022 1 #
lump $-1 -1 $-1 $-1 $27 $5 #
transform $-1 -1 1 0 0 0 1 0 0 0 1 0 -7.5 -87.5 1 no_rotate no_reflect no_shear #
rgb_color-st-attrib $-1 -1 $28 $-1 $6 1 0.5 1 #
lump $-1 -1 $-1 $-1 $29 $6 #
transform $-1 -1 1 0 0 0 1 0 0 0 1 0 -7.5 -87.5 1 no_rotate no_reflect no_shear #
rgb_color-st-attrib $-1 -1 $30 $-1 $7 0 0 1 #
lump $-1 -1 $-1 $-1 $31 $7 #
transform $-1 -1 1 0 0 0 1 0 0 0 1 0 -7.5 -87.5 1 no_rotate no_reflect no_shear #
rgb_color-st-attrib $-1 -1 $32 $-1 $8 1 0.5 1 #
lump $-1 -1 $-1 $-1 $33 $8 #
transform $-1 -1 1 0 0 0 1 0 0 0 1 0 -7.5 -87.5 1 no_rotate no_reflect no_shear #
rgb_color-st-attrib $-1 -1 $34 $-1 $9 1 0.5 1 #
lump $-1 -1 $-1 $-1 $35 $9 #
transform $-1 -1 1 0 0 0 1 0 0 0 1 0 -7.5 -87.5 1 no_rotate no_reflect no_shear #
face $36 -1 $-1 $37 $38 $10 $-1 $39 reversed single #
shell $-1 -1 $-1 $-1 $-1 $40 $-1 $12 #
model_id-kcp-attrib $-1 -1 $-1 $14 $6 1 1021324620 1021324620 -1281490940 1 #
shell $-1 -1 $-1 $-1 $-1 $41 $-1 $15 #
model_id-kcp-attrib $-1 -1 $-1 $17 $7 1 1021324620 1021324620 -1276510205 1 #
shell $-1 -1 $-1 $-1 $-1 $42 $-1 $18 #
model_id-kcp-attrib $-1 -1 $-1 $20 $8 1 1021324620 1021324621 -1289551866 1 #
shell $-1 -1 $-1 $-1 $-1 $43 $-1 $21 #
model_id-kcp-attrib $-1 -1 $-1 $23 $9 1 1021324620 1021324621 -1285554171 1 #
shell $-1 -1 $-1 $-1 $-1 $44 $-1 $24 #
model_id-kcp-attrib $-1 -1 $-1 $-1 $26 1 1021324620 1021324620 -1291649023 2 #
face $45 -1 $-1 $46 $47 $10 $-1 $48 reversed single #
loop $-1 -1 $-1 $-1 $49 $26 #
plane-surface $-1 -1 $-1 -4.3300999999999998 -30 7.5 -0.8660217547228608 0 0.50000632030679093 0.50000632030679093 0 0.8660217547228608 forward_v I I I I #
face $-1 -1 $-1 $50 $51 $27 $-1 $52 forward single #
face $-1 -1 $-1 $53 $54 $29 $-1 $55 reversed single #
face $-1 -1 $-1 $56 $57 $31 $-1 $58 forward single #
face $-1 -1 $-1 $59 $60 $33 $-1 $61 forward single #
face $-1 -1 $-1 $62 $63 $35 $-1 $64 reversed single #
model_id-kcp-attrib $-1 -1 $-1 $-1 $37 1 1021324620 1021324620 -1291649023 3 #
face $65 -1 $-1 $66 $67 $10 $-1 $68 reversed single #
loop $-1 -1 $-1 $-1 $69 $37 #
plane-surface $-1 -1 $-1 -8.6602999999999994 -30 0 -0.8660217547228608 0 -0.50000632030679093 -0.50000632030679093 0 0.8660217547228608 forward_v I I I I #
coedge $-1 -1 $-1 $70 $71 $72 $73 reversed $38 $-1 #
face $74 -1 $-1 $75 $76 $27 $-1 $77 reversed single #
loop $-1 -1 $-1 $-1 $78 $40 #
plane-surface $-1 -1 $-1 0 0 102.5 0 0 1 1 0 0 forward_v I I I I #
face $-1 -1 $-1 $79 $80 $29 $-1 $81 forward single #
loop $-1 -1 $-1 $-1 $82 $41 #
plane-surface $-1 -1 $-1 0 22.5 0 0 -1 0 0 0 -1 forward_v I I I I #
face $-1 -1 $-1 $83 $84 $31 $-1 $85 forward single #
loop $-1 -1 $-1 $-1 $86 $42 #
plane-surface $-1 -1 $-1 -4.3300999999999998 -10.5 95 0 0 1 1 0 0 forward_v I I I I #
face $-1 -1 $-1 $87 $88 $33 $-1 $89 forward single #
loop $-1 -1 $-1 $-1 $90 $43 #
plane-surface $-1 -1 $-1 -15 7.5 87.5 -1 0 0 0 0 1 forward_v I I I I #
face $-1 -1 $-1 $91 $92 $35 $-1 $93 forward single #
loop $-1 -1 $-1 $-1 $94 $44 #
plane-surface $-1 -1 $-1 0 -22.5 0 0 1 0 0 0 1 forward_v I I I I #
model_id-kcp-attrib $-1 -1 $-1 $-1 $46 1 1021324620 1021324620 -1291649023 4 #
face $95 -1 $-1 $96 $97 $10 $-1 $98 reversed single #
loop $-1 -1 $-1 $-1 $99 $46 #
plane-surface $-1 -1 $-1 -4.3300999999999998 -30 -7.5 0 0 -1 -1 0 0 forward_v I I I I #
coedge $-1 -1 $-1 $100 $101 $102 $103 reversed $47 $-1 #
coedge $-1 -1 $-1 $104 $49 $105 $106 reversed $38 $-1 #
coedge $-1 -1 $-1 $49 $104 $100 $107 forward $38 $-1 #
coedge $-1 -1 $-1 $102 $108 $49 $73 forward $109 $-1 #
edge $110 -1 $-1 $111 -8.660290528613924 $112 0 $49 $113 forward @7 unknown #
model_id-kcp-attrib $-1 -1 $-1 $-1 $50 1 1021324620 1021324620 -1291649022 3 #
face $114 -1 $-1 $115 $116 $27 $-1 $117 reversed single #
loop $-1 -1 $-1 $-1 $118 $50 #
plane-surface $-1 -1 $-1 0 0 -102.5 0 0 1 1 0 0 forward_v I I I I #
coedge $-1 -1 $-1 $119 $120 $121 $122 forward $51 $-1 #
face $-1 -1 $-1 $123 $124 $29 $-1 $125 forward single #
loop $-1 -1 $-1 $-1 $126 $53 #
plane-surface $-1 -1 $-1 -15 20 -102.5 0 0 -1 -1 0 0 forward_v I I I I #
coedge $-1 -1 $-1 $127 $128 $129 $130 forward $54 $-1 #
face $-1 -1 $-1 $131 $132 $31 $-1 $133 forward single #
loop $-1 -1 $-1 $-1 $134 $56 #
plane-surface $-1 -1 $-1 4.3300999999999998 -10.5 95 0.8660217547228608 0 0.50000632030679104 0.50000632030679104 0 -0.8660217547228608 forward_v I I I I #
coedge $-1 -1 $-1 $135 $136 $137 $138 forward $57 $-1 #
face $-1 -1 $-1 $139 $140 $33 $-1 $141 forward single #
loop $-1 -1 $-1 $-1 $142 $59 #
plane-surface $-1 -1 $-1 -15 7.5 102.5 0 0 1 1 0 0 forward_v I I I I #
coedge $-1 -1 $-1 $143 $144 $145 $146 forward $60 $-1 #
face $-1 -1 $-1 $147 $148 $35 $-1 $149 forward single #
loop $-1 -1 $-1 $-1 $150 $62 #
plane-surface $-1 -1 $-1 15 10 -102.5 0 0 -1 -1 0 0 forward_v I I I I #
coedge $-1 -1 $-1 $151 $152 $153 $154 forward $63 $-1 #
model_id-kcp-attrib $-1 -1 $-1 $-1 $66 1 1021324620 1021324620 -1291649023 5 #
face $155 -1 $-1 $156 $157 $10 $-1 $158 reversed single #
loop $-1 -1 $-1 $-1 $159 $66 #
plane-surface $-1 -1 $-1 4.3300999999999998 -30 -7.5 0.8660217547228608 0 -0.50000632030679104 -0.50000632030679104 0 -0.8660217547228608 forward_v I I I I #
coedge $-1 -1 $-1 $160 $161 $162 $163 reversed $67 $-1 #
coedge $-1 -1 $-1 $164 $69 $71 $107 reversed $47 $-1 #
coedge $-1 -1 $-1 $69 $164 $160 $165 forward $47 $-1 #
coedge $-1 -1 $-1 $162 $72 $69 $103 forward $109 $-1 #
edge $166 -1 $-1 $112 -8.660290528613924 $167 0 $69 $168 forward @7 unknown #
coedge $-1 -1 $-1 $71 $70 $169 $170 reversed $38 $-1 #
coedge $-1 -1 $-1 $171 $172 $70 $106 forward $173 $-1 #
edge $-1 -1 $-1 $174 0 $111 12 $70 $175 forward @7 unknown #
edge $-1 -1 $-1 $176 0 $112 12 $100 $177 forward @7 unknown #
coedge $-1 -1 $-1 $72 $178 $171 $179 forward $109 $-1 #
loop $-1 -1 $-1 $-1 $72 $180 #
attrib_edge_convexity-kcp-attrib $-1 -1 $181 $-1 $73 2 #
vertex $-1 -1 $-1 $106 $182 #
vertex $-1 -1 $-1 $107 $183 #
straight-curve $-1 -1 $-1 -8.6602999999999994 -18 0 -0.50000632030679082 0 -0.86602175472286069 I I #
model_id-kcp-attrib $-1 -1 $-1 $-1 $75 1 1021324620 1021324620 -1291649022 4 #
face $-1 -1 $-1 $184 $185 $27 $-1 $186 reversed single #
loop $-1 -1 $-1 $-1 $187 $75 #
plane-surface $-1 -1 $-1 0 -22.5 0 0 1 0 0 0 1 forward_v I I I I #
coedge $-1 -1 $-1 $188 $189 $190 $191 forward $76 $-1 #
coedge $-1 -1 $-1 $192 $78 $193 $194 forward $51 $-1 #
coedge $-1 -1 $-1 $78 $192 $195 $196 forward $51 $-1 #
coedge $-1 -1 $-1 $197 $198 $78 $122 reversed $199 $-1 #
edge $-1 -1 $-1 $200 -22.5 $201 22.5 $121 $202 forward @7 unknown #
face $-1 -1 $-1 $203 $204 $29 $-1 $205 forward single #
loop $-1 -1 $-1 $-1 $206 $79 #
plane-surface $-1 -1 $-1 15 20 -102.5 1 0 0 0 0 -1 forward_v I I I I #
coedge $-1 -1 $-1 $207 $208 $209 $210 reversed $80 $-1 #
coedge $-1 -1 $-1 $209 $82 $206 $211 forward $54 $-1 #
coedge $-1 -1 $-1 $82 $209 $212 $213 forward $54 $-1 #
coedge $-1 -1 $-1 $214 $215 $82 $130 reversed $216 $-1 #
edge $-1 -1 $-1 $217 1.5707963267948966 $218 4.7123889803846897 $129 $219 forward @7 unknown #
face $-1 -1 $-1 $220 $221 $31 $-1 $222 forward single #
loop $-1 -1 $-1 $-1 $223 $83 #
plane-surface $-1 -1 $-1 8.6602999999999994 -10.5 87.5 0.8660217547228608 0 -0.50000632030679104 -0.50000632030679104 0 -0.8660217547228608 forward_v I I I I #
coedge $-1 -1 $-1 $224 $225 $226 $227 forward $84 $-1 #
coedge $-1 -1 $-1 $228 $86 $225 $229 reversed $57 $-1 #
coedge $-1 -1 $-1 $86 $228 $230 $231 forward $57 $-1 #
coedge $-1 -1 $-1 $232 $226 $86 $138 reversed $233 $-1 #
edge $-1 -1 $-1 $234 -6.4951500000000006 $235 2.1650499999999995 $86 $236 forward @7 unknown #
face $-1 -1 $-1 $237 $238 $33 $-1 $239 forward single #
loop $-1 -1 $-1 $-1 $240 $87 #
plane-surface $-1 -1 $-1 15 7.5 102.5 1 0 0 0 0 -1 forward_v I I I I #
coedge $-1 -1 $-1 $241 $242 $243 $244 forward $88 $-1 #
coedge $-1 -1 $-1 $245 $90 $242 $246 reversed $60 $-1 #
coedge $-1 -1 $-1 $90 $245 $247 $248 forward $60 $-1 #
coedge $-1 -1 $-1 $249 $243 $90 $146 reversed $250 $-1 #
edge $-1 -1 $-1 $251 43.75 $252 58.75 $90 $253 forward @7 unknown #
face $-1 -1 $-1 $254 $255 $35 $-1 $256 forward single #
loop $-1 -1 $-1 $-1 $257 $91 #
plane-surface $-1 -1 $-1 -15 10 -102.5 -1 0 0 0 0 1 forward_v I I I I #
coedge $-1 -1 $-1 $258 $259 $260 $261 reversed $92 $-1 #
coedge $-1 -1 $-1 $260 $94 $257 $262 forward $63 $-1 #
coedge $-1 -1 $-1 $94 $260 $263 $264 forward $63 $-1 #
coedge $-1 -1 $-1 $265 $266 $94 $154 reversed $255 $-1 #
edge $-1 -1 $-1 $267 1.5707963267948966 $268 4.7123889803846897 $153 $269 forward @7 unknown #
model_id-kcp-attrib $-1 -1 $-1 $-1 $96 1 1021324620 1021324620 -1291649023 6 #
face $270 -1 $-1 $180 $173 $10 $-1 $271 reversed single #
loop $-1 -1 $-1 $-1 $272 $96 #
plane-surface $-1 -1 $-1 8.6602999999999994 -30 0 0.8660217547228608 0 0.50000632030679104 0.50000632030679104 0 -0.8660217547228608 forward_v I I I I #
coedge $-1 -1 $-1 $273 $274 $275 $276 reversed $97 $-1 #
coedge $-1 -1 $-1 $277 $99 $101 $165 reversed $67 $-1 #
coedge $-1 -1 $-1 $99 $277 $273 $278 forward $67 $-1 #
coedge $-1 -1 $-1 $275 $102 $99 $163 forward $109 $-1 #
edge $279 -1 $-1 $167 -8.6601999999999997 $280 0 $99 $281 forward @7 unknown #
coedge $-1 -1 $-1 $101 $100 $282 $283 reversed $47 $-1 #
edge $-1 -1 $-1 $284 0 $167 12 $160 $285 forward @7 unknown #
attrib_edge_convexity-kcp-attrib $-1 -1 $286 $-1 $103 2 #
vertex $-1 -1 $-1 $165 $287 #
straight-curve $-1 -1 $-1 -4.3300999999999998 -18 -7.5 0.50000632030679082 0 -0.86602175472286069 I I #
coedge $-1 -1 $-1 $288 $282 $104 $170 forward $289 $-1 #
edge $-1 -1 $-1 $176 -6.4952476321834123 $174 2.16504289643051 $169 $290 forward @7 unknown #
coedge $-1 -1 $-1 $291 $105 $108 $179 reversed $173 $-1 #
coedge $-1 -1 $-1 $105 $291 $288 $292 reversed $173 $-1 #
loop $-1 -1 $-1 $-1 $171 $156 #
vertex $-1 -1 $-1 $170 $293 #
straight-curve $-1 -1 $-1 -4.3300999999999998 -30 7.5 0 1 0 I I #
vertex $-1 -1 $-1 $170 $294 #
straight-curve $-1 -1 $-1 -8.6602999999999994 -30 0 0 1 0 I I #
coedge $-1 -1 $-1 $108 $275 $272 $295 forward $109 $-1 #
edge $296 -1 $-1 $297 -8.6601999999999997 $111 0 $171 $298 forward @7 unknown #
face $299 -1 $-1 $300 $109 $10 $-1 $301 forward single #
convexity-sys-attrib $-1 -1 $-1 $110 $73 #
point $-1 -1 $-1 -4.3300999999999998 -18 7.5 #
point $-1 -1 $-1 -8.6602999999999994 -18 0 #
face $302 -1 $-1 $303 $304 $27 $-1 $305 reversed single #
loop $-1 -1 $-1 $-1 $306 $115 #
plane-surface $-1 -1 $-1 -15 0 0 1 0 0 0 0 -1 forward_v I I I I #
coedge $-1 -1 $-1 $307 $195 $308 $309 forward $116 $-1 #
coedge $-1 -1 $-1 $310 $118 $307 $311 forward $76 $-1 #
coedge $-1 -1 $-1 $118 $310 $312 $313 forward $76 $-1 #
coedge $-1 -1 $-1 $198 $197 $118 $191 reversed $199 $-1 #
edge $-1 -1 $-1 $314 -22.5 $315 22.5 $190 $316 forward @7 unknown #
coedge $-1 -1 $-1 $120 $119 $317 $318 forward $51 $-1 #
coedge $-1 -1 $-1 $319 $320 $119 $194 reversed $304 $-1 #
edge $-1 -1 $-1 $201 -15 $321 15 $193 $322 forward @7 unknown #
coedge $-1 -1 $-1 $187 $323 $120 $196 reversed $116 $-1 #
edge $-1 -1 $-1 $324 -15 $200 15 $195 $325 forward @7 unknown #
coedge $-1 -1 $-1 $190 $121 $323 $326 forward $199 $-1 #
coedge $-1 -1 $-1 $121 $190 $319 $327 reversed $199 $-1 #
loop $-1 -1 $-1 $-1 $197 $303 #
vertex $-1 -1 $-1 $122 $328 #
vertex $-1 -1 $-1 $122 $329 #
straight-curve $-1 -1 $-1 15 0 102.5 0 1 0 I I #
face $-1 -1 $-1 $330 $216 $29 $-1 $331 forward single #
loop $-1 -1 $-1 $-1 $212 $123 #
plane-surface $-1 -1 $-1 -15 20 87.5 -1 0 0 0 0 1 forward_v I I I I #
coedge $-1 -1 $-1 $332 $333 $127 $211 reversed $124 $-1 #
coedge $-1 -1 $-1 $334 $126 $333 $335 reversed $80 $-1 #
coedge $-1 -1 $-1 $126 $334 $336 $337 forward $80 $-1 #
coedge $-1 -1 $-1 $128 $127 $126 $210 forward $54 $-1 #
edge $-1 -1 $-1 $338 -22.5 $339 7.5 $126 $340 forward @7 unknown #
edge $-1 -1 $-1 $218 -138.75 $338 51.25 $206 $341 forward @7 unknown #
coedge $-1 -1 $-1 $336 $342 $128 $213 reversed $204 $-1 #
edge $-1 -1 $-1 $339 -146.25 $217 43.75 $212 $343 forward @7 unknown #
coedge $-1 -1 $-1 $344 $129 $342 $345 reversed $216 $-1 #
coedge $-1 -1 $-1 $129 $344 $332 $346 forward $216 $-1 #
loop $-1 -1 $-1 $-1 $129 $203 #
vertex $-1 -1 $-1 $130 $347 #
vertex $-1 -1 $-1 $130 $348 #
ellipse-curve $-1 -1 $-1 0 22.5 87.5 0 -1 0 0 0 15 1 I I #
face $-1 -1 $-1 $349 $350 $31 $-1 $351 forward single #
loop $-1 -1 $-1 $-1 $352 $131 #
plane-surface $-1 -1 $-1 4.3300999999999998 -10.5 80 0 0 -1 -1 0 0 forward_v I I I I #
coedge $-1 -1 $-1 $353 $354 $355 $356 forward $132 $-1 #
coedge $-1 -1 $-1 $357 $134 $354 $358 reversed $84 $-1 #
coedge $-1 -1 $-1 $134 $357 $135 $229 forward $84 $-1 #
coedge $-1 -1 $-1 $137 $355 $134 $227 reversed $233 $-1 #
edge $-1 -1 $-1 $235 -6.4951881607374711 $359 2.1651023678764512 $134 $360 forward @7 unknown #
coedge $-1 -1 $-1 $136 $135 $361 $362 reversed $57 $-1 #
edge $363 -1 $-1 $364 0 $235 12 $225 $365 forward @7 unknown #
coedge $-1 -1 $-1 $366 $367 $136 $231 reversed $368 $-1 #
edge $-1 -1 $-1 $369 0 $234 12 $136 $370 forward @7 unknown #
coedge $-1 -1 $-1 $371 $137 $367 $372 reversed $233 $-1 #
loop $-1 -1 $-1 $-1 $137 $373 #
vertex $-1 -1 $-1 $231 $374 #
vertex $-1 -1 $-1 $229 $375 #
straight-curve $-1 -1 $-1 2.1650500000000004 -22.5 95 1 0 0 I I #
face $-1 -1 $-1 $376 $377 $33 $-1 $378 forward single #
loop $-1 -1 $-1 $-1 $379 $139 #
cone-surface $-1 -1 $-1 0 7.5 87.5 0 -1 0 0 0 15 1 I I 0 1 15 forward I I I I #
coedge $-1 -1 $-1 $380 $381 $382 $383 forward $140 $-1 #
coedge $-1 -1 $-1 $384 $142 $381 $385 reversed $88 $-1 #
coedge $-1 -1 $-1 $142 $384 $143 $246 forward $88 $-1 #
coedge $-1 -1 $-1 $145 $382 $142 $244 reversed $250 $-1 #
edge $-1 -1 $-1 $252 -15 $386 15 $142 $387 forward @7 unknown #
coedge $-1 -1 $-1 $144 $143 $388 $389 reversed $60 $-1 #
edge $-1 -1 $-1 $390 0 $252 30 $242 $391 forward @7 unknown #
coedge $-1 -1 $-1 $392 $379 $144 $248 reversed $238 $-1 #
edge $-1 -1 $-1 $393 0 $251 30 $144 $394 forward @7 unknown #
coedge $-1 -1 $-1 $382 $145 $379 $395 reversed $250 $-1 #
loop $-1 -1 $-1 $-1 $145 $376 #
vertex $-1 -1 $-1 $248 $396 #
vertex $-1 -1 $-1 $246 $397 #
straight-curve $-1 -1 $-1 -15 -22.5 43.75 0 0 1 I I #
face $-1 -1 $-1 $398 $399 $35 $-1 $400 forward single #
loop $-1 -1 $-1 $-1 $265 $147 #
cone-surface $-1 -1 $-1 0 10 87.5 0 -1 0 0 0 15 1 I I 0 -1 15 forward I I I I #
coedge $-1 -1 $-1 $401 $402 $151 $262 reversed $148 $-1 #
coedge $-1 -1 $-1 $403 $150 $402 $404 reversed $92 $-1 #
coedge $-1 -1 $-1 $150 $403 $405 $406 forward $92 $-1 #
coedge $-1 -1 $-1 $152 $151 $150 $261 forward $63 $-1 #
edge $-1 -1 $-1 $407 -22.5 $408 7.5 $150 $409 forward @7 unknown #
edge $-1 -1 $-1 $268 -138.75 $407 51.25 $257 $410 forward @7 unknown #
coedge $-1 -1 $-1 $405 $411 $152 $264 reversed $399 $-1 #
edge $-1 -1 $-1 $408 -146.25 $267 43.75 $263 $412 forward @7 unknown #
coedge $-1 -1 $-1 $413 $153 $411 $414 reversed $255 $-1 #
coedge $-1 -1 $-1 $153 $413 $401 $415 forward $255 $-1 #
vertex $-1 -1 $-1 $154 $416 #
vertex $-1 -1 $-1 $154 $417 #
ellipse-curve $-1 -1 $-1 0 -22.5 87.5 0 1 0 0 0 15 1 I I #
model_id-kcp-attrib $-1 -1 $-1 $-1 $156 1 1021324620 1021324620 -1291649023 7 #
plane-surface $-1 -1 $-1 4.3300999999999998 -30 7.5 0 0 1 1 0 0 forward_v I I I I #
coedge $-1 -1 $-1 $418 $419 $178 $295 reversed $157 $-1 #
coedge $-1 -1 $-1 $420 $159 $161 $278 reversed $97 $-1 #
coedge $-1 -1 $-1 $159 $420 $418 $421 forward $97 $-1 #
coedge $-1 -1 $-1 $178 $162 $159 $276 forward $109 $-1 #
edge $422 -1 $-1 $280 -8.660290528613924 $423 0 $159 $424 forward @7 unknown #
coedge $-1 -1 $-1 $161 $160 $425 $426 reversed $67 $-1 #
edge $-1 -1 $-1 $427 0 $280 12 $273 $428 forward @7 unknown #
attrib_edge_convexity-kcp-attrib $-1 -1 $429 $-1 $163 2 #
vertex $-1 -1 $-1 $278 $430 #
straight-curve $-1 -1 $-1 4.3300999999999998 -18 -7.5 1 0 0 I I #
coedge $-1 -1 $-1 $169 $425 $164 $283 forward $289 $-1 #
edge $-1 -1 $-1 $284 -6.495188160737472 $176 2.1651023678764503 $282 $431 forward @7 unknown #
vertex $-1 -1 $-1 $283 $432 #
straight-curve $-1 -1 $-1 -4.3300999999999998 -30 -7.5 0 1 0 I I #
convexity-sys-attrib $-1 -1 $-1 $166 $103 #
point $-1 -1 $-1 -4.3300999999999998 -18 -7.5 #
coedge $-1 -1 $-1 $433 $169 $172 $292 forward $289 $-1 #
loop $-1 -1 $-1 $434 $169 $435 #
straight-curve $-1 -1 $-1 -5.4126351319505766 -30 5.6250257517829851 0.50000632030679093 0 0.8660217547228608 I I #
coedge $-1 -1 $-1 $172 $171 $419 $436 reversed $173 $-1 #
edge $-1 -1 $-1 $174 -6.4951499999999998 $437 2.1650499999999999 $288 $438 forward @7 unknown #
point $-1 -1 $-1 -4.3300999999999998 -30 7.5 #
point $-1 -1 $-1 -8.6602999999999994 -30 0 #
edge $439 -1 $-1 $423 -8.660290528613924 $297 0 $272 $440 forward @7 unknown #
attrib_edge_convexity-kcp-attrib $-1 -1 $441 $-1 $179 2 #
vertex $-1 -1 $-1 $436 $442 #
straight-curve $-1 -1 $-1 -4.3300999999999998 -18 7.5 -1 0 0 I I #
model_id-kcp-attrib $-1 -1 $-1 $-1 $180 1 1021324620 1021324620 -1291649023 8 #
face $443 -1 $-1 $444 $445 $10 $-1 $446 forward single #
plane-surface $-1 -1 $-1 -4.3300999999999998 -18 7.5 0 -1 0 0 0 -1 forward_v I I I I #
model_id-kcp-attrib $-1 -1 $-1 $-1 $184 1 1021324620 1021324620 -1291649022 2 #
face $-1 -1 $-1 $-1 $199 $27 $-1 $447 reversed single #
loop $-1 -1 $-1 $-1 $319 $184 #
plane-surface $-1 -1 $-1 0 22.5 0 0 -1 0 0 0 -1 forward_v I I I I #
coedge $-1 -1 $-1 $448 $317 $320 $449 forward $185 $-1 #
coedge $-1 -1 $-1 $323 $187 $188 $311 reversed $116 $-1 #
coedge $-1 -1 $-1 $317 $448 $187 $309 reversed $185 $-1 #
edge $-1 -1 $-1 $324 -102.5 $450 102.5 $308 $451 forward @7 unknown #
coedge $-1 -1 $-1 $189 $188 $448 $452 forward $76 $-1 #
edge $-1 -1 $-1 $315 -15 $450 15 $307 $453 forward @7 unknown #
coedge $-1 -1 $-1 $320 $319 $189 $313 reversed $304 $-1 #
edge $-1 -1 $-1 $454 -15 $314 15 $312 $455 forward @7 unknown #
vertex $-1 -1 $-1 $191 $456 #
vertex $-1 -1 $-1 $326 $457 #
straight-curve $-1 -1 $-1 15 0 -102.5 0 -1 0 I I #
coedge $-1 -1 $-1 $306 $308 $192 $318 reversed $185 $-1 #
edge $-1 -1 $-1 $321 -22.5 $324 22.5 $317 $458 forward @7 unknown #
coedge $-1 -1 $-1 $312 $193 $198 $327 forward $304 $-1 #
coedge $-1 -1 $-1 $193 $312 $306 $449 reversed $304 $-1 #
vertex $-1 -1 $-1 $194 $459 #
straight-curve $-1 -1 $-1 0 22.5 102.5 -1 0 0 I I #
coedge $-1 -1 $-1 $195 $307 $197 $326 reversed $116 $-1 #
vertex $-1 -1 $-1 $318 $460 #
straight-curve $-1 -1 $-1 0 -22.5 102.5 1 0 0 I I #
edge $-1 -1 $-1 $200 -102.5 $315 102.5 $197 $461 forward @7 unknown #
edge $-1 -1 $-1 $201 -102.5 $314 102.5 $198 $462 forward @7 unknown #
point $-1 -1 $-1 15 -22.5 102.5 #
point $-1 -1 $-1 15 22.5 102.5 #
face $-1 -1 $-1 $-1 $463 $29 $-1 $464 reversed single #
cone-surface $-1 -1 $-1 0 20 87.5 0 1 0 0 0 15 1 I I 0 -1 15 forward I I I I #
coedge $-1 -1 $-1 $465 $206 $215 $346 reversed $124 $-1 #
coedge $-1 -1 $-1 $206 $465 $207 $335 forward $124 $-1 #
coedge $-1 -1 $-1 $208 $207 $466 $467 reversed $80 $-1 #
edge $-1 -1 $-1 $468 0 $338 2.5 $333 $469 forward @7 unknown #
coedge $-1 -1 $-1 $470 $212 $208 $337 reversed $204 $-1 #
edge $-1 -1 $-1 $471 0 $339 2.5 $208 $472 forward @7 unknown #
vertex $-1 -1 $-1 $211 $473 #
vertex $-1 -1 $-1 $213 $474 #
straight-curve $-1 -1 $-1 -7.5 22.5 -102.5 -1 0 0 I I #
straight-curve $-1 -1 $-1 15 22.5 -51.25 0 0 -1 I I #
coedge $-1 -1 $-1 $212 $470 $214 $345 forward $204 $-1 #
straight-curve $-1 -1 $-1 -15 22.5 43.75 0 0 1 I I #
coedge $-1 -1 $-1 $215 $214 $475 $476 reversed $216 $-1 #
edge $-1 -1 $-1 $477 0 $217 2.5 $342 $478 forward @7 unknown #
edge $-1 -1 $-1 $479 0 $218 2.5 $215 $480 forward @7 unknown #
point $-1 -1 $-1 -15 22.5 87.5 #
point $-1 -1 $-1 15 22.5 87.5 #
face $-1 -1 $-1 $373 $368 $31 $-1 $481 forward single #
loop $-1 -1 $-1 $-1 $482 $220 #
plane-surface $-1 -1 $-1 -4.3300999999999998 -10.5 80 -0.8660217547228608 0 -0.50000632030679093 -0.50000632030679093 0 0.8660217547228608 forward_v I I I I #
coedge $-1 -1 $-1 $483 $484 $485 $486 forward $221 $-1 #
coedge $-1 -1 $-1 $487 $223 $484 $488 reversed $132 $-1 #
coedge $-1 -1 $-1 $223 $487 $224 $358 forward $132 $-1 #
coedge $-1 -1 $-1 $226 $485 $223 $356 reversed $233 $-1 #
edge $-1 -1 $-1 $359 -6.4952476321834123 $489 2.1650428964305104 $223 $490 forward @7 unknown #
coedge $-1 -1 $-1 $225 $224 $491 $492 reversed $84 $-1 #
edge $-1 -1 $-1 $493 0 $359 12 $354 $494 forward @7 unknown #
vertex $-1 -1 $-1 $358 $495 #
straight-curve $-1 -1 $-1 7.5777351319505755 -22.5 89.375025751782985 0.50000632030679104 0 -0.8660217547228608 I I #
coedge $-1 -1 $-1 $491 $496 $228 $362 forward $497 $-1 #
edge $498 -1 $-1 $369 -6.4951500000000006 $364 2.1650499999999995 $228 $499 forward @7 unknown #
convexity-sys-attrib $-1 -1 $-1 $-1 $229 #
vertex $-1 -1 $-1 $362 $500 #
straight-curve $-1 -1 $-1 4.3300999999999998 -10.5 95 0 -1 0 I I #
coedge $-1 -1 $-1 $501 $230 $496 $502 reversed $368 $-1 #
coedge $-1 -1 $-1 $230 $501 $232 $372 forward $368 $-1 #
loop $-1 -1 $-1 $-1 $367 $349 #
vertex $-1 -1 $-1 $502 $503 #
straight-curve $-1 -1 $-1 -4.3300999999999998 -10.5 95 0 -1 0 I I #
coedge $-1 -1 $-1 $485 $232 $482 $504 reversed $233 $-1 #
edge $-1 -1 $-1 $505 -6.4952476321834123 $234 2.16504289643051 $367 $506 forward @7 unknown #
face $-1 -1 $-1 $507 $233 $31 $-1 $508 reversed single #
point $-1 -1 $-1 -4.3300999999999998 -22.5 95 #
point $-1 -1 $-1 4.3300999999999998 -22.5 95 #
face $-1 -1 $-1 $509 $510 $33 $-1 $511 reversed single #
loop $-1 -1 $-1 $512 $513 $237 #
cone-surface $-1 -1 $-1 0 7.5 87.5 0 -1 0 0 0 11.25 1 I I 0 -1 11.25 forward I I I I #
coedge $-1 -1 $-1 $247 $514 $249 $395 forward $238 $-1 #
coedge $-1 -1 $-1 $515 $240 $514 $516 reversed $140 $-1 #
coedge $-1 -1 $-1 $240 $515 $241 $385 forward $140 $-1 #
coedge $-1 -1 $-1 $243 $249 $240 $383 reversed $250 $-1 #
edge $-1 -1 $-1 $386 -58.75 $517 -43.75 $240 $518 forward @7 unknown #
coedge $-1 -1 $-1 $242 $241 $519 $520 reversed $88 $-1 #
edge $-1 -1 $-1 $521 0 $386 30 $381 $522 forward @7 unknown #
vertex $-1 -1 $-1 $385 $523 #
straight-curve $-1 -1 $-1 0 -22.5 102.5 1 0 0 I I #
coedge $-1 -1 $-1 $519 $524 $245 $389 forward $525 $-1 #
edge $526 -1 $-1 $393 43.75 $390 58.75 $245 $527 forward @7 unknown #
vertex $-1 -1 $-1 $389 $528 #
straight-curve $-1 -1 $-1 -15 7.5 102.5 0 -1 0 I I #
coedge $-1 -1 $-1 $514 $247 $524 $529 reversed $238 $-1 #
vertex $-1 -1 $-1 $529 $530 #
straight-curve $-1 -1 $-1 -15 7.5 87.5 0 -1 0 I I #
edge $-1 -1 $-1 $517 1.5707963267948966 $251 4.7123889803846897 $379 $531 forward @7 unknown #
point $-1 -1 $-1 -15 -22.5 87.5 #
point $-1 -1 $-1 -15 -22.5 102.5 #
face $-1 -1 $-1 $-1 $532 $35 $-1 $533 forward single #
loop $-1 -1 $-1 $-1 $263 $254 #
plane-surface $-1 -1 $-1 15 10 87.5 1 0 0 0 0 -1 forward_v I I I I #
coedge $-1 -1 $-1 $534 $257 $266 $415 reversed $148 $-1 #
coedge $-1 -1 $-1 $257 $534 $258 $404 forward $148 $-1 #
coedge $-1 -1 $-1 $259 $258 $535 $536 reversed $92 $-1 #
edge $-1 -1 $-1 $537 0 $407 32.5 $402 $538 forward @7 unknown #
coedge $-1 -1 $-1 $539 $263 $259 $406 reversed $399 $-1 #
edge $-1 -1 $-1 $540 0 $408 32.5 $259 $541 forward @7 unknown #
vertex $-1 -1 $-1 $262 $542 #
vertex $-1 -1 $-1 $264 $543 #
straight-curve $-1 -1 $-1 7.5 -22.5 -102.5 1 0 0 I I #
straight-curve $-1 -1 $-1 -15 -22.5 -51.25 0 0 -1 I I #
coedge $-1 -1 $-1 $263 $539 $265 $414 forward $399 $-1 #
straight-curve $-1 -1 $-1 15 -22.5 43.75 0 0 1 I I #
coedge $-1 -1 $-1 $266 $265 $544 $545 reversed $255 $-1 #
edge $-1 -1 $-1 $546 0 $267 32.5 $411 $547 forward @7 unknown #
edge $-1 -1 $-1 $548 0 $268 32.5 $266 $549 forward @7 unknown #
point $-1 -1 $-1 15 -22.5 87.5 #
point $-1 -1 $-1 -15 -22.5 87.5 #
coedge $-1 -1 $-1 $550 $272 $274 $421 reversed $157 $-1 #
coedge $-1 -1 $-1 $272 $550 $291 $436 forward $157 $-1 #
coedge $-1 -1 $-1 $274 $273 $551 $552 reversed $97 $-1 #
edge $-1 -1 $-1 $553 0 $423 12 $418 $554 forward @7 unknown #
attrib_edge_convexity-kcp-attrib $-1 -1 $555 $-1 $276 2 #
vertex $-1 -1 $-1 $421 $556 #
straight-curve $-1 -1 $-1 8.6602999999999994 -18 0 0.50000632030679093 0 0.86602175472286069 I I #
coedge $-1 -1 $-1 $282 $551 $277 $426 forward $289 $-1 #
edge $-1 -1 $-1 $427 -6.4951499999999998 $284 2.1650499999999999 $425 $557 forward @7 unknown #
vertex $-1 -1 $-1 $426 $558 #
straight-curve $-1 -1 $-1 4.3300999999999998 -30 -7.5 0 1 0 I I #
convexity-sys-attrib $-1 -1 $-1 $279 $163 #
point $-1 -1 $-1 4.3300999999999998 -18 -7.5 #
straight-curve $-1 -1 $-1 -7.5777351319505755 -30 -1.8750257517829845 -0.50000632030679093 0 0.8660217547228608 I I #
point $-1 -1 $-1 -4.3300999999999998 -30 -7.5 #
coedge $-1 -1 $-1 $551 $288 $550 $559 forward $289 $-1 #
loop $-1 -1 $-1 $-1 $560 $435 #
face $561 -1 $-1 $-1 $289 $10 $-1 $562 forward single #
edge $-1 -1 $-1 $437 0 $297 12 $291 $563 forward @7 unknown #
vertex $-1 -1 $-1 $559 $564 #
straight-curve $-1 -1 $-1 2.1650499999999999 -30 7.5 1 0 0 I I #
attrib_edge_convexity-kcp-attrib $-1 -1 $565 $-1 $295 2 #
straight-curve $-1 -1 $-1 4.3300999999999998 -18 7.5 -0.50000632030679093 0 0.86602175472286069 I I #
convexity-sys-attrib $-1 -1 $-1 $296 $179 #
point $-1 -1 $-1 4.3300999999999998 -18 7.5 #
model_id-kcp-attrib $-1 -1 $-1 $-1 $300 1 1021324620 1021324620 -1291649023 9 #
face $566 -1 $-1 $567 $568 $10 $-1 $569 forward single #
loop $-1 -1 $-1 $570 $571 $300 #
plane-surface $-1 -1 $-1 0 0 0 0 -1 0 0 0 -1 forward_v I I I I #
plane-surface $-1 -1 $-1 15 0 0 -1 0 0 0 0 1 forward_v I I I I #
coedge $-1 -1 $-1 $308 $306 $310 $452 reversed $185 $-1 #
edge $-1 -1 $-1 $321 -102.5 $454 102.5 $320 $572 forward @7 unknown #
vertex $-1 -1 $-1 $452 $573 #
straight-curve $-1 -1 $-1 -15 -22.5 0 0 0 -1 I I #
edge $-1 -1 $-1 $450 -22.5 $454 22.5 $448 $574 forward @7 unknown #
straight-curve $-1 -1 $-1 0 -22.5 -102.5 -1 0 0 I I #
vertex $-1 -1 $-1 $313 $575 #
straight-curve $-1 -1 $-1 0 22.5 -102.5 1 0 0 I I #
point $-1 -1 $-1 15 22.5 -102.5 #
point $-1 -1 $-1 15 -22.5 -102.5 #
straight-curve $-1 -1 $-1 -15 0 102.5 0 -1 0 I I #
point $-1 -1 $-1 -15 22.5 102.5 #
point $-1 -1 $-1 -15 -22.5 102.5 #
straight-curve $-1 -1 $-1 15 -22.5 0 0 0 -1 I I #
straight-curve $-1 -1 $-1 15 22.5 0 0 0 -1 I I #
loop $-1 -1 $-1 $-1 $475 $330 #
plane-surface $-1 -1 $-1 0 20 -4.8288449039319943 0 1 0 0 0 1 forward_v I I I I #
coedge $-1 -1 $-1 $333 $332 $576 $577 reversed $124 $-1 #
coedge $-1 -1 $-1 $576 $578 $334 $467 forward $463 $-1 #
edge $579 -1 $-1 $471 -15 $468 15 $334 $580 forward @7 unknown #
vertex $-1 -1 $-1 $467 $581 #
straight-curve $-1 -1 $-1 15 20 -102.5 0 1 0 I I #
coedge $-1 -1 $-1 $342 $336 $578 $582 reversed $204 $-1 #
vertex $-1 -1 $-1 $582 $583 #
straight-curve $-1 -1 $-1 -15 20 -102.5 0 1 0 I I #
point $-1 -1 $-1 15 22.5 -102.5 #
point $-1 -1 $-1 -15 22.5 -102.5 #
coedge $-1 -1 $-1 $578 $576 $344 $476 forward $463 $-1 #
edge $584 -1 $-1 $479 1.5707963267948966 $477 4.7123889803846897 $344 $585 forward @7 unknown #
vertex $-1 -1 $-1 $476 $586 #
straight-curve $-1 -1 $-1 -15 20 87.5 0 1 0 I I #
vertex $-1 -1 $-1 $476 $587 #
straight-curve $-1 -1 $-1 15 20 87.5 0 1 0 I I #
plane-surface $-1 -1 $-1 -8.6602999999999994 -10.5 87.5 -0.8660217547228608 0 0.50000632030679093 0.50000632030679093 0 0.8660217547228608 forward_v I I I I #
coedge $-1 -1 $-1 $588 $589 $371 $504 forward $350 $-1 #
coedge $-1 -1 $-1 $590 $352 $589 $591 reversed $221 $-1 #
coedge $-1 -1 $-1 $352 $590 $353 $488 forward $221 $-1 #
coedge $-1 -1 $-1 $355 $371 $352 $486 reversed $233 $-1 #
edge $-1 -1 $-1 $489 -6.4951499999999989 $592 2.1650500000000004 $352 $593 forward @7 unknown #
coedge $-1 -1 $-1 $354 $353 $594 $595 reversed $132 $-1 #
edge $-1 -1 $-1 $596 0 $489 12 $484 $597 forward @7 unknown #
vertex $-1 -1 $-1 $488 $598 #
straight-curve $-1 -1 $-1 5.4126351319505766 -22.5 81.874974248217015 -0.50000632030679104 0 -0.8660217547228608 I I #
coedge $-1 -1 $-1 $594 $361 $357 $492 forward $497 $-1 #
edge $599 -1 $-1 $364 -6.4951881607374711 $493 2.1651023678764512 $357 $600 forward @7 unknown #
vertex $-1 -1 $-1 $492 $601 #
straight-curve $-1 -1 $-1 8.6602999999999994 -10.5 87.5 0 -1 0 I I #
point $-1 -1 $-1 8.6602999999999994 -22.5 87.5 #
coedge $-1 -1 $-1 $361 $602 $366 $502 forward $497 $-1 #
loop $-1 -1 $-1 $-1 $496 $507 #
convexity-sys-attrib $-1 -1 $-1 $-1 $362 #
straight-curve $-1 -1 $-1 2.1650500000000004 -10.5 95 1 0 0 I I #
point $-1 -1 $-1 4.3300999999999998 -10.5 95 #
coedge $-1 -1 $-1 $367 $366 $588 $603 forward $368 $-1 #
edge $604 -1 $-1 $605 -6.4952476321834123 $369 2.16504289643051 $366 $606 forward @7 unknown #
point $-1 -1 $-1 -4.3300999999999998 -10.5 95 #
edge $-1 -1 $-1 $592 -6.4951881607374702 $505 2.1651023678764512 $482 $607 forward @7 unknown #
vertex $-1 -1 $-1 $603 $608 #
straight-curve $-1 -1 $-1 -5.4126351319505766 -22.5 93.125025751782985 0.50000632030679093 0 0.8660217547228608 I I #
face $-1 -1 $-1 $-1 $497 $31 $-1 $609 forward single #
plane-surface $-1 -1 $-1 1.9513029492255715e-016 -22.5 87.5 1.2282378489118396e-016 1 7.0912448678652723e-018 0 -7.0912448678652723e-018 1 forward_v I I I I #
face $-1 -1 $-1 $-1 $610 $33 $-1 $611 forward single #
loop $-1 -1 $-1 $250 $612 $376 #
plane-surface $-1 -1 $-1 4.4408920985006262e-016 -22.5 89.420995087921256 0 1 0 0 0 1 forward_v I I I I #
loop $-1 -1 $-1 $-1 $613 $237 #
coedge $-1 -1 $-1 $513 $513 $612 $614 forward $377 $-1 #
coedge $-1 -1 $-1 $379 $392 $380 $516 forward $238 $-1 #
coedge $-1 -1 $-1 $381 $380 $615 $616 reversed $140 $-1 #
edge $-1 -1 $-1 $617 0 $517 30 $514 $618 forward @7 unknown #
vertex $-1 -1 $-1 $516 $619 #
straight-curve $-1 -1 $-1 15 -22.5 43.75 0 0 -1 I I #
coedge $-1 -1 $-1 $615 $388 $384 $520 forward $525 $-1 #
edge $620 -1 $-1 $390 -15 $521 15 $384 $621 forward @7 unknown #
vertex $-1 -1 $-1 $520 $622 #
straight-curve $-1 -1 $-1 15 7.5 102.5 0 -1 0 I I #
point $-1 -1 $-1 15 -22.5 102.5 #
coedge $-1 -1 $-1 $388 $615 $392 $529 forward $525 $-1 #
loop $-1 -1 $-1 $-1 $524 $509 #
convexity-sys-attrib $-1 -1 $-1 $-1 $389 #
straight-curve $-1 -1 $-1 -15 7.5 43.75 0 0 1 I I #
point $-1 -1 $-1 -15 7.5 102.5 #
edge $623 -1 $-1 $617 1.5707963267948966 $393 4.7123889803846897 $392 $624 forward @7 unknown #
point $-1 -1 $-1 -15 7.5 87.5 #
ellipse-curve $-1 -1 $-1 0 -22.5 87.5 0 1 0 0 0 15 1 I I #
loop $-1 -1 $-1 $-1 $544 $398 #
plane-surface $-1 -1 $-1 0 10 -4.8288449039319943 0 1 0 0 0 1 forward_v I I I I #
coedge $-1 -1 $-1 $402 $401 $625 $626 reversed $148 $-1 #
coedge $-1 -1 $-1 $625 $627 $403 $536 forward $532 $-1 #
edge $628 -1 $-1 $540 -15 $537 15 $403 $629 forward @7 unknown #
vertex $-1 -1 $-1 $536 $630 #
straight-curve $-1 -1 $-1 -15 10 -102.5 0 -1 0 I I #
coedge $-1 -1 $-1 $411 $405 $627 $631 reversed $399 $-1 #
vertex $-1 -1 $-1 $631 $632 #
straight-curve $-1 -1 $-1 15 10 -102.5 0 -1 0 I I #
point $-1 -1 $-1 -15 -22.5 -102.5 #
point $-1 -1 $-1 15 -22.5 -102.5 #
coedge $-1 -1 $-1 $627 $625 $413 $545 forward $532 $-1 #
edge $633 -1 $-1 $548 1.5707963267948966 $546 4.7123889803846897 $413 $634 forward @7 unknown #
vertex $-1 -1 $-1 $545 $635 #
straight-curve $-1 -1 $-1 15 10 87.5 0 -1 0 I I #
vertex $-1 -1 $-1 $545 $636 #
straight-curve $-1 -1 $-1 -15 10 87.5 0 -1 0 I I #
coedge $-1 -1 $-1 $419 $418 $433 $559 reversed $157 $-1 #
coedge $-1 -1 $-1 $425 $433 $420 $552 forward $289 $-1 #
edge $-1 -1 $-1 $553 -6.4952476321834123 $427 2.1650428964305104 $551 $637 forward @7 unknown #
vertex $-1 -1 $-1 $552 $638 #
straight-curve $-1 -1 $-1 8.6602999999999994 -30 0 0 1 0 I I #
convexity-sys-attrib $-1 -1 $-1 $422 $276 #
point $-1 -1 $-1 8.6602999999999994 -18 0 #
straight-curve $-1 -1 $-1 -2.1650499999999999 -30 -7.5 -1 0 0 I I #
point $-1 -1 $-1 4.3300999999999998 -30 -7.5 #
edge $-1 -1 $-1 $437 -6.4951881607374711 $553 2.1651023678764512 $433 $639 forward @7 unknown #
coedge $-1 -1 $-1 $560 $560 $640 $641 forward $434 $-1 #
model_id-kcp-attrib $-1 -1 $-1 $-1 $435 1 1021324620 1021324620 -1291649023 18 #
plane-surface $-1 -1 $-1 0 -30 0 0 -1 0 0 0 -1 forward_v I I I I #
straight-curve $-1 -1 $-1 4.3300999999999998 -30 7.5 0 1 0 I I #
point $-1 -1 $-1 4.3300999999999998 -30 7.5 #
convexity-sys-attrib $-1 -1 $-1 $439 $295 #
model_id-kcp-attrib $-1 -1 $-1 $-1 $444 1 1021324620 1021324620 -1291649023 10 #
face $642 -1 $-1 $643 $644 $10 $-1 $645 forward single #
loop $-1 -1 $-1 $646 $647 $444 #
cone-surface $-1 -1 $-1 0 7.5 0 0 1 0 0 0 15 1 I I 0 1 15 forward I I I I #
loop $-1 -1 $-1 $-1 $648 $300 #
coedge $-1 -1 $-1 $571 $571 $649 $650 forward $445 $-1 #
straight-curve $-1 -1 $-1 -15 22.5 0 0 0 -1 I I #
point $-1 -1 $-1 -15 -22.5 -102.5 #
straight-curve $-1 -1 $-1 -15 0 -102.5 0 1 0 I I #
point $-1 -1 $-1 -15 22.5 -102.5 #
coedge $-1 -1 $-1 $475 $466 $465 $577 forward $463 $-1 #
edge $651 -1 $-1 $468 -95.954915028125271 $479 94.045084971874729 $465 $652 forward @7 unknown #
coedge $-1 -1 $-1 $466 $475 $470 $582 forward $463 $-1 #
convexity-sys-attrib $-1 -1 $-1 $-1 $467 #
straight-curve $-1 -1 $-1 -4.4408920985006262e-016 20 -102.5 1 0 0 I I #
point $-1 -1 $-1 15 20 -102.5 #
edge $653 -1 $-1 $477 -94.045084971874729 $471 95.954915028125271 $470 $654 forward @7 unknown #
point $-1 -1 $-1 -15 20 -102.5 #
convexity-sys-attrib $-1 -1 $-1 $-1 $476 #
ellipse-curve $-1 -1 $-1 0 20 87.5 0 1 0 0 0 15 1 I I #
point $-1 -1 $-1 -15 20 87.5 #
point $-1 -1 $-1 15 20 87.5 #
coedge $-1 -1 $-1 $655 $482 $501 $603 reversed $350 $-1 #
coedge $-1 -1 $-1 $482 $655 $483 $591 forward $350 $-1 #
coedge $-1 -1 $-1 $484 $483 $656 $657 reversed $221 $-1 #
edge $-1 -1 $-1 $658 0 $592 12 $589 $659 forward @7 unknown #
vertex $-1 -1 $-1 $591 $660 #
straight-curve $-1 -1 $-1 -2.1650499999999995 -22.5 80 -1 0 0 I I #
coedge $-1 -1 $-1 $656 $491 $487 $595 forward $497 $-1 #
edge $661 -1 $-1 $493 -6.4952476321834123 $596 2.1650428964305104 $487 $662 forward @7 unknown #
vertex $-1 -1 $-1 $595 $663 #
straight-curve $-1 -1 $-1 4.3300999999999998 -10.5 80 0 -1 0 I I #
point $-1 -1 $-1 4.3300999999999998 -22.5 80 #
convexity-sys-attrib $-1 -1 $-1 $-1 $492 #
straight-curve $-1 -1 $-1 7.5777351319505755 -10.500000000000002 89.375025751782985 0.50000632030679104 0 -0.8660217547228608 I I #
point $-1 -1 $-1 8.6602999999999994 -10.5 87.5 #
coedge $-1 -1 $-1 $496 $656 $655 $664 forward $497 $-1 #
edge $-1 -1 $-1 $605 0 $505 12 $501 $665 forward @7 unknown #
convexity-sys-attrib $-1 -1 $-1 $-1 $502 #
vertex $-1 -1 $-1 $502 $666 #
straight-curve $-1 -1 $-1 -5.4126351319505766 -10.5 93.125025751782985 0.50000632030679093 0 0.8660217547228608 I I #
straight-curve $-1 -1 $-1 -7.5777351319505755 -22.5 85.624974248217015 -0.50000632030679093 0 0.8660217547228608 I I #
point $-1 -1 $-1 -8.6602999999999994 -22.5 87.5 #
plane-surface $-1 -1 $-1 1.9513029492255715e-016 -10.5 87.5 1.2282378489118396e-016 1 7.0912448678652723e-018 0 -7.0912448678652723e-018 1 forward_v I I I I #
loop $-1 -1 $-1 $525 $667 $509 #
plane-surface $-1 -1 $-1 4.4408920985006262e-016 7.5 89.420995087921256 0 1 0 0 0 1 forward_v I I I I #
coedge $-1 -1 $-1 $612 $612 $513 $614 reversed $510 $-1 #
coedge $-1 -1 $-1 $613 $613 $667 $668 reversed $512 $-1 #
edge $-1 -1 $-1 $669 0 $669 6.2831853071795862 $513 $670 forward @7 unknown #
coedge $-1 -1 $-1 $524 $519 $515 $616 forward $525 $-1 #
edge $671 -1 $-1 $521 -58.75 $617 -43.75 $515 $672 forward @7 unknown #
vertex $-1 -1 $-1 $529 $673 #
straight-curve $-1 -1 $-1 15 7.5 87.5 0 -1 0 I I #
point $-1 -1 $-1 15 -22.5 87.5 #
convexity-sys-attrib $-1 -1 $-1 $-1 $520 #
straight-curve $-1 -1 $-1 0 7.5 102.5 1 0 0 I I #
point $-1 -1 $-1 15 7.5 102.5 #
convexity-sys-attrib $-1 -1 $-1 $-1 $529 #
ellipse-curve $-1 -1 $-1 0 7.5 87.5 0 1 0 0 0 15 1 I I #
coedge $-1 -1 $-1 $544 $535 $534 $626 forward $532 $-1 #
edge $674 -1 $-1 $537 -95.954915028125271 $548 94.045084971874729 $534 $675 forward @7 unknown #
coedge $-1 -1 $-1 $535 $544 $539 $631 forward $532 $-1 #
convexity-sys-attrib $-1 -1 $-1 $-1 $536 #
straight-curve $-1 -1 $-1 4.4408920985006262e-016 10 -102.5 -1 0 0 I I #
point $-1 -1 $-1 -15 10 -102.5 #
edge $676 -1 $-1 $546 -94.045084971874729 $540 95.954915028125271 $539 $677 forward @7 unknown #
point $-1 -1 $-1 15 10 -102.5 #
convexity-sys-attrib $-1 -1 $-1 $-1 $545 #
ellipse-curve $-1 -1 $-1 0 10 87.5 0 -1 0 0 0 15 1 I I #
point $-1 -1 $-1 15 10 87.5 #
point $-1 -1 $-1 -15 10 87.5 #
straight-curve $-1 -1 $-1 5.4126351319505766 -30 -5.6250257517829851 -0.50000632030679104 0 -0.8660217547228608 I I #
point $-1 -1 $-1 8.6602999999999994 -30 0 #
straight-curve $-1 -1 $-1 7.5777351319505755 -30 1.8750257517829849 0.50000632030679104 0 -0.8660217547228608 I I #
coedge $-1 -1 $-1 $640 $640 $560 $641 reversed $678 $-1 #
edge $-1 -1 $-1 $679 0 $679 6.2831853071795862 $560 $680 forward @7 unknown #
model_id-kcp-attrib $-1 -1 $-1 $-1 $567 1 1021324620 1021324620 -1291649023 11 #
face $681 -1 $-1 $682 $683 $10 $-1 $684 reversed single #
loop $-1 -1 $-1 $-1 $685 $567 #
plane-surface $-1 -1 $-1 0 15 0 0 1 0 0 0 1 forward_v I I I I #
loop $-1 -1 $-1 $686 $649 $444 #
coedge $-1 -1 $-1 $647 $647 $685 $687 reversed $568 $-1 #
coedge $-1 -1 $-1 $648 $648 $688 $689 reversed $570 $-1 #
coedge $-1 -1 $-1 $649 $649 $571 $650 reversed $646 $-1 #
edge $690 -1 $-1 $691 0 $691 6.2831853071795862 $571 $692 forward @7 unknown #
convexity-sys-attrib $-1 -1 $-1 $-1 $577 #
straight-curve $-1 -1 $-1 15 20 -6.5450849718747364 0 0 1 I I #
convexity-sys-attrib $-1 -1 $-1 $-1 $582 #
straight-curve $-1 -1 $-1 -15 20 -6.5450849718747364 0 0 -1 I I #
coedge $-1 -1 $-1 $589 $588 $602 $664 reversed $350 $-1 #
coedge $-1 -1 $-1 $602 $594 $590 $657 forward $497 $-1 #
edge $693 -1 $-1 $596 -6.4951499999999989 $658 2.1650500000000004 $590 $694 forward @7 unknown #
vertex $-1 -1 $-1 $657 $695 #
straight-curve $-1 -1 $-1 -4.3300999999999998 -10.5 80 0 -1 0 I I #
point $-1 -1 $-1 -4.3300999999999998 -22.5 80 #
convexity-sys-attrib $-1 -1 $-1 $-1 $595 #
straight-curve $-1 -1 $-1 5.4126351319505766 -10.500000000000002 81.874974248217015 -0.50000632030679104 0 -0.8660217547228608 I I #
point $-1 -1 $-1 4.3300999999999998 -10.5 80 #
edge $696 -1 $-1 $658 -6.4951881607374702 $605 2.1651023678764512 $655 $697 forward @7 unknown #
straight-curve $-1 -1 $-1 -8.6602999999999994 -10.5 87.5 0 -1 0 I I #
point $-1 -1 $-1 -8.6602999999999994 -10.5 87.5 #
coedge $-1 -1 $-1 $667 $667 $613 $668 forward $610 $-1 #
edge $698 -1 $-1 $699 0 $699 6.2831853071795862 $613 $700 forward @7 unknown #
vertex $-1 -1 $-1 $614 $701 #
ellipse-curve $-1 -1 $-1 0 -22.5 87.5 0 -1 0 0 0 11.25 1 I I #
convexity-sys-attrib $-1 -1 $-1 $-1 $616 #
straight-curve $-1 -1 $-1 15 7.5 43.75 0 0 -1 I I #
point $-1 -1 $-1 15 7.5 87.5 #
convexity-sys-attrib $-1 -1 $-1 $-1 $626 #
straight-curve $-1 -1 $-1 -15 10 -6.5450849718747364 0 0 1 I I #
convexity-sys-attrib $-1 -1 $-1 $-1 $631 #
straight-curve $-1 -1 $-1 15 10 -6.5450849718747364 0 0 -1 I I #
loop $-1 -1 $-1 $702 $640 $703 #
vertex $-1 -1 $-1 $641 $704 #
ellipse-curve $-1 -1 $-1 0 -30 0 0 -1 0 0 0 11.25 1 I I #
model_id-kcp-attrib $-1 -1 $-1 $-1 $643 1 1021324620 1021324620 -1291649023 12 #
face $705 -1 $-1 $706 $707 $10 $-1 $708 reversed single #
loop $-1 -1 $-1 $-1 $709 $643 #
plane-surface $-1 -1 $-1 0 12.5 -95 0 -1 0 0 0 -1 forward_v I I I I #
coedge $-1 -1 $-1 $685 $685 $647 $687 forward $644 $-1 #
loop $-1 -1 $-1 $-1 $710 $444 #
edge $711 -1 $-1 $712 0 $712 6.2831853071795862 $685 $713 forward @7 unknown #
coedge $-1 -1 $-1 $688 $688 $648 $689 forward $702 $-1 #
edge $714 -1 $-1 $715 -6.2831853071795862 $715 0 $688 $716 reversed @7 unknown #
attrib_edge_convexity-kcp-attrib $-1 -1 $717 $-1 $650 1 #
vertex $-1 -1 $-1 $650 $718 #
ellipse-curve $-1 -1 $-1 0 0 0 0 -1 0 0 0 15 1 I I #
convexity-sys-attrib $-1 -1 $-1 $-1 $657 #
straight-curve $-1 -1 $-1 -2.1650499999999995 -10.5 80 -1 0 0 I I #
point $-1 -1 $-1 -4.3300999999999998 -10.5 80 #
convexity-sys-attrib $-1 -1 $-1 $-1 $664 #
straight-curve $-1 -1 $-1 -7.5777351319505755 -10.5 85.624974248217015 -0.50000632030679093 0 0.8660217547228608 I I #
convexity-sys-attrib $-1 -1 $-1 $-1 $668 #
vertex $-1 -1 $-1 $668 $719 #
ellipse-curve $-1 -1 $-1 0 7.5 87.5 0 -1 0 0 0 11.25 1 I I #
point $-1 -1 $-1 0 -22.5 98.75 #
loop $-1 -1 $-1 $-1 $688 $703 #
face $720 -1 $-1 $435 $678 $10 $-1 $721 forward single #
point $-1 -1 $-1 0 -30 11.25 #
model_id-kcp-attrib $-1 -1 $-1 $-1 $682 1 1021324620 1021324620 -1291649023 13 #
face $722 -1 $-1 $723 $724 $10 $-1 $725 reversed single #
loop $-1 -1 $-1 $-1 $726 $682 #
plane-surface $-1 -1 $-1 10 7.5 -95 -1 0 0 0 0 1 forward_v I I I I #
coedge $-1 -1 $-1 $727 $728 $729 $730 forward $683 $-1 #
coedge $-1 -1 $-1 $731 $732 $733 $734 reversed $686 $-1 #
attrib_edge_convexity-kcp-attrib $-1 -1 $735 $-1 $687 1 #
vertex $-1 -1 $-1 $687 $736 #
ellipse-curve $-1 -1 $-1 0 15 0 0 1 0 0 0 15 1 I I #
attrib_edge_convexity-kcp-attrib $-1 -1 $737 $-1 $689 2 #
vertex $-1 -1 $-1 $689 $738 #
ellipse-curve $-1 -1 $-1 0 0 0 0 1 0 0 0 11.25 1 I I #
convexity-sys-attrib $-1 -1 $-1 $690 $650 #
point $-1 -1 $-1 0 0 15 #
point $-1 -1 $-1 0 7.5 98.75 #
model_id-kcp-attrib $-1 -1 $-1 $-1 $703 1 1021324620 1021324620 -1291649023 17 #
cone-surface $-1 -1 $-1 0 -15 0 0 1 0 0 0 11.25 1 I I 0 1 11.25 forward I I I I #
model_id-kcp-attrib $-1 -1 $-1 $-1 $706 1 1021324620 1021324620 -1291649023 14 #
face $739 -1 $-1 $740 $741 $10 $-1 $742 reversed single #
loop $-1 -1 $-1 $-1 $743 $706 #
plane-surface $-1 -1 $-1 0 7.5 -190 0 0 1 1 0 0 forward_v I I I I #
coedge $-1 -1 $-1 $744 $745 $731 $746 forward $707 $-1 #
coedge $-1 -1 $-1 $747 $709 $745 $748 forward $683 $-1 #
coedge $-1 -1 $-1 $709 $747 $749 $750 reversed $683 $-1 #
coedge $-1 -1 $-1 $732 $731 $709 $730 reversed $686 $-1 #
edge $751 -1 $-1 $752 2.4118649973628266 $753 3.8713203098167597 $709 $754 forward @7 unknown #
coedge $-1 -1 $-1 $729 $710 $726 $746 reversed $686 $-1 #
coedge $-1 -1 $-1 $710 $729 $755 $756 reversed $686 $-1 #
coedge $-1 -1 $-1 $757 $758 $710 $734 forward $741 $-1 #
edge $759 -1 $-1 $760 2.4118649973628266 $761 3.8713203098167597 $733 $762 forward @7 unknown #
convexity-sys-attrib $-1 -1 $-1 $711 $687 #
point $-1 -1 $-1 0 15 15 #
convexity-sys-attrib $-1 -1 $-1 $714 $689 #
point $-1 -1 $-1 0 0 11.25 #
model_id-kcp-attrib $-1 -1 $-1 $-1 $723 1 1021324620 1021324620 -1291649023 15 #
face $763 -1 $-1 $703 $764 $10 $-1 $765 reversed single #
loop $-1 -1 $-1 $-1 $733 $723 #
plane-surface $-1 -1 $-1 0 2.5 -95 0 1 0 0 0 1 forward_v I I I I #
coedge $-1 -1 $-1 $766 $767 $768 $769 forward $724 $-1 #
coedge $-1 -1 $-1 $768 $726 $758 $770 forward $707 $-1 #
coedge $-1 -1 $-1 $726 $768 $727 $748 reversed $707 $-1 #
edge $771 -1 $-1 $753 -5 $760 5 $726 $772 forward @7 unknown #
coedge $-1 -1 $-1 $728 $727 $767 $773 reversed $683 $-1 #
edge $774 -1 $-1 $753 -83.819660112501055 $775 95 $745 $776 forward @7 unknown #
coedge $-1 -1 $-1 $777 $755 $728 $750 forward $764 $-1 #
edge $778 -1 $-1 $752 -83.819660112501055 $779 95 $728 $780 forward @7 unknown #
attrib_edge_convexity-kcp-attrib $-1 -1 $781 $-1 $730 2 #
vertex $-1 -1 $-1 $750 $782 #
vertex $-1 -1 $-1 $748 $783 #
ellipse-curve $-1 -1 $-1 0 12.5 0 0 -1 0 0 0 15 1 I I #
coedge $-1 -1 $-1 $749 $784 $732 $756 forward $764 $-1 #
edge $785 -1 $-1 $761 -5 $752 5 $755 $786 forward @7 unknown #
coedge $-1 -1 $-1 $787 $733 $784 $788 forward $741 $-1 #
coedge $-1 -1 $-1 $733 $787 $744 $770 reversed $741 $-1 #
attrib_edge_convexity-kcp-attrib $-1 -1 $789 $-1 $734 2 #
vertex $-1 -1 $-1 $770 $790 #
vertex $-1 -1 $-1 $788 $791 #
ellipse-curve $-1 -1 $-1 0 2.5 0 0 1 0 0 0 15 1 I I #
model_id-kcp-attrib $-1 -1 $-1 $-1 $740 1 1021324620 1021324620 -1291649023 16 #
loop $-1 -1 $-1 $-1 $755 $740 #
plane-surface $-1 -1 $-1 -10 7.5 -95 1 0 0 0 0 -1 forward_v I I I I #
coedge $-1 -1 $-1 $792 $743 $787 $793 forward $724 $-1 #
coedge $-1 -1 $-1 $743 $792 $747 $773 forward $724 $-1 #
coedge $-1 -1 $-1 $745 $744 $743 $769 reversed $707 $-1 #
edge $794 -1 $-1 $775 -5 $795 5 $768 $796 forward @7 unknown #
edge $797 -1 $-1 $760 -83.819660112501055 $795 95 $744 $798 forward @7 unknown #
attrib_edge_convexity-kcp-attrib $-1 -1 $799 $-1 $746 2 #
straight-curve $-1 -1 $-1 10 7.5 -11.180339887498945 0 -1 0 I I #
edge $800 -1 $-1 $779 -10 $775 10 $747 $801 forward @7 unknown #
attrib_edge_convexity-kcp-attrib $-1 -1 $802 $-1 $748 1 #
vertex $-1 -1 $-1 $769 $803 #
straight-curve $-1 -1 $-1 10 12.5 -95 0 0 -1 I I #
coedge $-1 -1 $-1 $784 $749 $792 $804 reversed $764 $-1 #
attrib_edge_convexity-kcp-attrib $-1 -1 $805 $-1 $750 1 #
vertex $-1 -1 $-1 $773 $806 #
straight-curve $-1 -1 $-1 -10 12.5 -95 0 0 -1 I I #
convexity-sys-attrib $-1 -1 $-1 $751 $730 #
point $-1 -1 $-1 -10 12.5 -11.180339887498945 #
point $-1 -1 $-1 10 12.5 -11.180339887498945 #
coedge $-1 -1 $-1 $755 $777 $757 $788 reversed $764 $-1 #
attrib_edge_convexity-kcp-attrib $-1 -1 $807 $-1 $756 2 #
straight-curve $-1 -1 $-1 -10 7.5 -11.180339887498945 0 1 0 I I #
coedge $-1 -1 $-1 $758 $757 $766 $793 reversed $741 $-1 #
edge $808 -1 $-1 $761 -83.819660112501055 $809 95 $784 $810 forward @7 unknown #
convexity-sys-attrib $-1 -1 $-1 $759 $734 #
point $-1 -1 $-1 10 2.5 -11.180339887498945 #
point $-1 -1 $-1 -10 2.5 -11.180339887498945 #
coedge $-1 -1 $-1 $767 $766 $777 $804 forward $724 $-1 #
edge $811 -1 $-1 $795 -10 $809 10 $787 $812 forward @7 unknown #
attrib_edge_convexity-kcp-attrib $-1 -1 $813 $-1 $769 1 #
vertex $-1 -1 $-1 $770 $814 #
straight-curve $-1 -1 $-1 10 7.5 -190 0 -1 0 I I #
attrib_edge_convexity-kcp-attrib $-1 -1 $815 $-1 $770 1 #
straight-curve $-1 -1 $-1 10 2.5 -95 0 0 -1 I I #
convexity-sys-attrib $-1 -1 $-1 $771 $746 #
attrib_edge_convexity-kcp-attrib $-1 -1 $816 $-1 $773 1 #
straight-curve $-1 -1 $-1 0 12.5 -190 1 0 0 I I #
convexity-sys-attrib $-1 -1 $-1 $774 $748 #
point $-1 -1 $-1 10 12.5 -190 #
edge $817 -1 $-1 $809 -5 $779 5 $777 $818 forward @7 unknown #
convexity-sys-attrib $-1 -1 $-1 $778 $750 #
point $-1 -1 $-1 -10 12.5 -190 #
convexity-sys-attrib $-1 -1 $-1 $785 $756 #
attrib_edge_convexity-kcp-attrib $-1 -1 $819 $-1 $788 1 #
vertex $-1 -1 $-1 $804 $820 #
straight-curve $-1 -1 $-1 -10 2.5 -95 0 0 -1 I I #
attrib_edge_convexity-kcp-attrib $-1 -1 $821 $-1 $793 1 #
straight-curve $-1 -1 $-1 0 2.5 -190 -1 0 0 I I #
convexity-sys-attrib $-1 -1 $-1 $794 $769 #
point $-1 -1 $-1 10 2.5 -190 #
convexity-sys-attrib $-1 -1 $-1 $797 $770 #
convexity-sys-attrib $-1 -1 $-1 $800 $773 #
attrib_edge_convexity-kcp-attrib $-1 -1 $822 $-1 $804 1 #
straight-curve $-1 -1 $-1 -10 7.5 -190 0 1 0 I I #
convexity-sys-attrib $-1 -1 $-1 $808 $788 #
point $-1 -1 $-1 -10 2.5 -190 #
convexity-sys-attrib $-1 -1 $-1 $811 $793 #
convexity-sys-attrib $-1 -1 $-1 $817 $804 #
End-of-ACIS-data 