600 0 1 0           
100 GICL ACIS Healer - Source: /gicl/data5/repository/CMU/Tools/socket_wrench_with_10mm_socket.sat - 6 0 18 ACIS 6.0.3 Solaris 24 Sat Apr 13 00:32:46 2002 
1 9.999999999999999547e-07 1.000000000000000036e-10 
body $-1 $1 $-1 $-1 #
lump $-1 $-1 $2 $0 #
shell $-1 $-1 $-1 $3 $-1 $1 #
face $-1 $4 $5 $2 $-1 $6 forward single #
face $-1 $7 $8 $2 $-1 $9 forward single #
loop $-1 $10 $11 $3 #
plane-surface $-1 0 0 0 0 -1 0 0 0 -1 forward_v I I I I #
face $-1 $12 $13 $2 $-1 $14 forward single #
loop $-1 $15 $16 $4 #
cone-surface $-1 0 7.5 0 0 1 0 0 0 15 1 I I 0 1 15 forward I I I I #
loop $-1 $-1 $17 $3 #
coedge $-1 $11 $11 $18 $19 forward $5 $-1 #
face $-1 $20 $21 $2 $-1 $22 reversed single #
loop $-1 $-1 $23 $7 #
plane-surface $-1 0 15 0 0 1 0 0 0 1 forward_v I I I I #
loop $-1 $24 $18 $4 #
coedge $-1 $16 $16 $23 $25 reversed $8 $-1 #
coedge $-1 $17 $17 $26 $27 reversed $10 $-1 #
coedge $-1 $18 $18 $11 $19 reversed $15 $-1 #
edge $-1 $28 0 $28 6.283185307179586232 $11 $29 forward 7 unknown #
face $-1 $30 $31 $2 $-1 $32 reversed single #
loop $-1 $-1 $33 $12 #
plane-surface $-1 0 12.5 -95 0 -1 0 0 0 -1 forward_v I I I I #
coedge $-1 $23 $23 $16 $25 forward $13 $-1 #
loop $-1 $-1 $34 $4 #
edge $-1 $35 0 $35 6.283185307179586232 $23 $36 forward 7 unknown #
coedge $-1 $26 $26 $17 $27 forward $37 $-1 #
edge $-1 $38 -6.283185307179586232 $38 -0 $26 $39 reversed 7 unknown #
vertex $-1 $19 $40 #
ellipse-curve $-1 0 0 0 0 -1 0 0 0 15 1 I I #
face $-1 $41 $42 $2 $-1 $43 reversed single #
loop $-1 $-1 $44 $20 #
plane-surface $-1 10 7.5 -95 -1 0 0 0 0 1 forward_v I I I I #
coedge $-1 $45 $46 $47 $48 forward $21 $-1 #
coedge $-1 $49 $50 $51 $52 reversed $24 $-1 #
vertex $-1 $25 $53 #
ellipse-curve $-1 0 15 0 0 1 0 0 0 15 1 I I #
loop $-1 $-1 $26 $54 #
vertex $-1 $27 $55 #
ellipse-curve $-1 0 0 0 0 1 0 0 0 7.5 1 I I #
point $-1 0 0 15 #
face $-1 $56 $57 $2 $-1 $58 reversed single #
loop $-1 $-1 $59 $30 #
plane-surface $-1 0 7.5 -190 0 0 1 1 0 0 forward_v I I I I #
coedge $-1 $60 $61 $49 $62 forward $31 $-1 #
coedge $-1 $63 $33 $61 $64 forward $21 $-1 #
coedge $-1 $33 $63 $65 $66 reversed $21 $-1 #
coedge $-1 $50 $49 $33 $48 reversed $24 $-1 #
edge $-1 $67 2.411864997362826557 $68 3.871320309816759675 $33 $69 forward 7 unknown #
coedge $-1 $47 $34 $44 $62 reversed $24 $-1 #
coedge $-1 $34 $47 $70 $71 reversed $24 $-1 #
coedge $-1 $72 $73 $34 $52 forward $57 $-1 #
edge $-1 $74 2.411864997362826557 $75 3.871320309816759675 $51 $76 forward 7 unknown #
point $-1 0 15 15 #
face $-1 $77 $78 $2 $-1 $79 forward single #
point $-1 0 0 7.5 #
face $-1 $80 $81 $2 $-1 $82 reversed single #
loop $-1 $-1 $51 $41 #
plane-surface $-1 0 2.5 -95 0 1 0 0 0 1 forward_v I I I I #
coedge $-1 $83 $84 $85 $86 forward $42 $-1 #
coedge $-1 $85 $44 $73 $87 forward $31 $-1 #
coedge $-1 $44 $85 $45 $64 reversed $31 $-1 #
edge $-1 $68 -5 $74 5 $44 $88 forward 7 unknown #
coedge $-1 $46 $45 $84 $89 reversed $21 $-1 #
edge $-1 $68 -83.81966011250105453 $90 95 $61 $91 forward 7 unknown #
coedge $-1 $92 $70 $46 $66 forward $81 $-1 #
edge $-1 $67 -83.81966011250105453 $93 95 $46 $94 forward 7 unknown #
vertex $-1 $66 $95 #
vertex $-1 $64 $96 #
ellipse-curve $-1 0 12.5 0 0 -1 0 0 0 15 1 I I #
coedge $-1 $65 $97 $50 $71 forward $81 $-1 #
edge $-1 $75 -5 $67 5 $70 $98 forward 7 unknown #
coedge $-1 $99 $51 $97 $100 forward $57 $-1 #
coedge $-1 $51 $99 $60 $87 reversed $57 $-1 #
vertex $-1 $87 $101 #
vertex $-1 $100 $102 #
ellipse-curve $-1 0 2.5 0 0 1 0 0 0 15 1 I I #
face $-1 $-1 $103 $2 $-1 $104 forward single #
loop $-1 $37 $105 $54 #
cone-surface $-1 0 -10 0 0 1 0 0 0 7.5 1 I I 0 1 7.5 forward I I I I #
face $-1 $106 $107 $2 $-1 $108 reversed single #
loop $-1 $-1 $70 $56 #
plane-surface $-1 -10 7.5 -95 1 0 0 0 0 -1 forward_v I I I I #
coedge $-1 $109 $59 $99 $110 forward $42 $-1 #
coedge $-1 $59 $109 $63 $89 forward $42 $-1 #
coedge $-1 $61 $60 $59 $86 reversed $31 $-1 #
edge $-1 $90 -5 $111 5 $85 $112 forward 7 unknown #
edge $-1 $74 -83.81966011250105453 $111 95 $60 $113 forward 7 unknown #
straight-curve $-1 10 7.5 -11.18033988749894547 0 -1 0 I I #
edge $-1 $93 -10 $90 10 $63 $114 forward 7 unknown #
vertex $-1 $86 $115 #
straight-curve $-1 10 12.5 -95 0 0 -1 I I #
coedge $-1 $97 $65 $109 $116 reversed $81 $-1 #
vertex $-1 $89 $117 #
straight-curve $-1 -10 12.5 -95 0 0 -1 I I #
point $-1 -10 12.5 -11.18033988749894547 #
point $-1 10 12.5 -11.18033988749894547 #
coedge $-1 $70 $92 $72 $100 reversed $81 $-1 #
straight-curve $-1 -10 7.5 -11.18033988749894547 0 1 0 I I #
coedge $-1 $73 $72 $83 $110 reversed $57 $-1 #
edge $-1 $75 -83.81966011250105453 $118 95 $97 $119 forward 7 unknown #
point $-1 10 2.5 -11.18033988749894547 #
point $-1 -10 2.5 -11.18033988749894547 #
loop $-1 $120 $121 $77 #
plane-surface $-1 0 -20 0 0 -1 0 0 0 -1 forward_v I I I I #
coedge $-1 $105 $105 $122 $123 reversed $78 $-1 #
face $-1 $124 $125 $2 $-1 $126 reversed single #
loop $-1 $-1 $127 $80 #
plane-surface $-1 -2.886800000000000033 -20 5 -0.8660292547219861081 0 0.4999933299211914983 0.4999933299211914983 0 0.8660292547219861081 forward_v I I I I #
coedge $-1 $84 $83 $92 $116 forward $42 $-1 #
edge $-1 $111 -10 $118 10 $99 $128 forward 7 unknown #
vertex $-1 $87 $129 #
straight-curve $-1 10 7.5 -190 0 -1 0 I I #
straight-curve $-1 10 2.5 -95 0 0 -1 I I #
straight-curve $-1 0 12.5 -190 1 0 0 I I #
point $-1 10 12.5 -190 #
edge $-1 $118 -5 $93 5 $92 $130 forward 7 unknown #
point $-1 -10 12.5 -190 #
vertex $-1 $116 $131 #
straight-curve $-1 -10 2.5 -95 0 0 -1 I I #
loop $-1 $-1 $122 $77 #
coedge $-1 $132 $133 $134 $135 forward $103 $-1 #
coedge $-1 $122 $122 $105 $123 forward $120 $-1 #
edge $-1 $136 0 $136 6.283185307179586232 $122 $137 forward 7 unknown #
face $-1 $138 $139 $2 $-1 $140 reversed single #
loop $-1 $-1 $141 $106 #
plane-surface $-1 -5.773500000000000298 -20 0 -0.8660292547219861081 0 -0.4999933299211914983 -0.4999933299211914983 0 0.8660292547219861081 forward_v I I I I #
coedge $-1 $142 $143 $144 $145 reversed $107 $-1 #
straight-curve $-1 0 2.5 -190 -1 0 0 I I #
point $-1 10 2.5 -190 #
straight-curve $-1 -10 7.5 -190 0 1 0 I I #
point $-1 -10 2.5 -190 #
coedge $-1 $146 $121 $147 $148 forward $103 $-1 #
coedge $-1 $121 $149 $150 $151 forward $103 $-1 #
coedge $-1 $143 $142 $121 $135 reversed $107 $-1 #
edge $-1 $152 -4.330094254696716938 $153 1.443382764396717199 $121 $154 forward 7 unknown #
vertex $-1 $123 $155 #
ellipse-curve $-1 0 -20 0 0 -1 0 0 0 7.5 1 I I #
face $-1 $156 $157 $2 $-1 $158 reversed single #
loop $-1 $-1 $159 $124 #
plane-surface $-1 -2.886800000000000033 -20 -5 0 0 -1 -1 0 0 forward_v I I I I #
coedge $-1 $160 $161 $162 $163 reversed $125 $-1 #
coedge $-1 $134 $127 $164 $165 reversed $107 $-1 #
coedge $-1 $127 $134 $160 $166 forward $107 $-1 #
coedge $-1 $162 $167 $127 $145 forward $168 $-1 #
edge $-1 $169 -5.773477019093435025 $170 0 $127 $171 forward 7 unknown #
coedge $-1 $172 $132 $173 $174 forward $103 $-1 #
coedge $-1 $164 $175 $132 $148 reversed $176 $-1 #
edge $-1 $153 -4.330199999999999605 $177 1.443400000000000016 $132 $178 forward 7 unknown #
coedge $-1 $133 $172 $179 $180 forward $103 $-1 #
coedge $-1 $161 $160 $133 $151 reversed $125 $-1 #
edge $-1 $181 -4.330121273943434268 $152 1.443355745149999647 $133 $182 forward 7 unknown #
vertex $-1 $135 $183 #
vertex $-1 $135 $184 #
straight-curve $-1 -3.608481754721569512 -20 3.749988300270951314 0.4999933299211914983 0 0.8660292547219861081 I I #
point $-1 0 -20 7.5 #
face $-1 $185 $186 $2 $-1 $187 reversed single #
loop $-1 $-1 $188 $138 #
plane-surface $-1 2.886800000000000033 -20 -5 0.8660292547219861081 0 -0.4999933299211914983 -0.4999933299211914983 0 -0.8660292547219861081 forward_v I I I I #
coedge $-1 $189 $190 $191 $192 reversed $139 $-1 #
coedge $-1 $150 $141 $143 $166 reversed $125 $-1 #
coedge $-1 $141 $150 $189 $193 forward $125 $-1 #
coedge $-1 $191 $144 $141 $163 forward $168 $-1 #
edge $-1 $170 -5.773477019093435025 $194 0 $141 $195 forward 7 unknown #
coedge $-1 $196 $147 $142 $165 forward $176 $-1 #
edge $-1 $153 0 $169 8 $142 $197 forward 7 unknown #
edge $-1 $152 0 $170 8 $160 $198 forward 7 unknown #
coedge $-1 $144 $199 $196 $200 forward $168 $-1 #
loop $-1 $-1 $144 $201 #
vertex $-1 $165 $202 #
vertex $-1 $166 $203 #
straight-curve $-1 -5.773500000000000298 -12 0 -0.4999933299211914428 0 -0.8660292547219859971 I I #
coedge $-1 $149 $146 $204 $205 forward $103 $-1 #
coedge $-1 $206 $207 $146 $174 reversed $186 $-1 #
edge $-1 $177 -4.330121273943434268 $208 1.443355745149999647 $146 $209 forward 7 unknown #
coedge $-1 $147 $196 $206 $210 reversed $176 $-1 #
loop $-1 $-1 $196 $185 #
vertex $-1 $174 $211 #
straight-curve $-1 1.443400000000000016 -20 5 1 0 0 I I #
coedge $-1 $190 $189 $149 $180 reversed $139 $-1 #
edge $-1 $212 -4.330199999999999605 $181 1.443400000000000016 $149 $213 forward 7 unknown #
vertex $-1 $151 $214 #
straight-curve $-1 -5.051831754721569645 -20 -1.249988300270951092 -0.4999933299211914983 0 0.8660292547219861081 I I #
point $-1 -5.773500000000000298 -20 0 #
point $-1 -2.886800000000000033 -20 5 #
face $-1 $201 $176 $2 $-1 $215 reversed single #
loop $-1 $-1 $216 $156 #
plane-surface $-1 5.773500000000000298 -20 0 0.8660292547219861081 0 0.4999933299211914983 0.4999933299211914983 0 -0.8660292547219861081 forward_v I I I I #
coedge $-1 $217 $218 $219 $220 reversed $157 $-1 #
coedge $-1 $179 $159 $161 $193 reversed $139 $-1 #
coedge $-1 $159 $179 $217 $221 forward $139 $-1 #
coedge $-1 $219 $162 $159 $192 forward $168 $-1 #
edge $-1 $194 -5.773600000000000065 $222 0 $159 $223 forward 7 unknown #
edge $-1 $181 0 $194 8 $189 $224 forward 7 unknown #
vertex $-1 $193 $225 #
straight-curve $-1 -2.886800000000000033 -12 -5 0.4999933299211914428 0 -0.8660292547219859971 I I #
coedge $-1 $175 $164 $167 $200 reversed $176 $-1 #
straight-curve $-1 -2.886800000000000033 -20 5 0 1 0 I I #
straight-curve $-1 -5.773500000000000298 -20 0 0 1 0 I I #
coedge $-1 $167 $219 $216 $226 forward $168 $-1 #
edge $-1 $227 -5.773600000000000065 $169 0 $196 $228 forward 7 unknown #
face $-1 $54 $168 $2 $-1 $229 forward single #
point $-1 -2.886800000000000033 -12 5 #
point $-1 -5.773500000000000298 -12 0 #
coedge $-1 $218 $217 $172 $205 reversed $157 $-1 #
edge $-1 $208 -4.330094254696716938 $212 1.443382764396717199 $172 $230 forward 7 unknown #
coedge $-1 $216 $173 $175 $210 forward $186 $-1 #
coedge $-1 $173 $216 $218 $231 reversed $186 $-1 #
vertex $-1 $205 $232 #
straight-curve $-1 5.051831754721569645 -20 1.249988300270951092 0.4999933299211914983 0 -0.8660292547219861081 I I #
edge $-1 $177 0 $227 8 $175 $233 forward 7 unknown #
point $-1 2.886800000000000033 -20 5 #
vertex $-1 $180 $234 #
straight-curve $-1 -1.443400000000000016 -20 -5 -1 0 0 I I #
point $-1 -2.886800000000000033 -20 -5 #
plane-surface $-1 2.886800000000000033 -20 5 0 0 1 1 0 0 forward_v I I I I #
coedge $-1 $207 $206 $199 $226 reversed $186 $-1 #
coedge $-1 $204 $188 $190 $221 reversed $157 $-1 #
coedge $-1 $188 $204 $207 $231 forward $157 $-1 #
coedge $-1 $199 $191 $188 $220 forward $168 $-1 #
edge $-1 $222 -5.773477019093435025 $235 0 $188 $236 forward 7 unknown #
edge $-1 $212 0 $222 8 $217 $237 forward 7 unknown #
vertex $-1 $221 $238 #
straight-curve $-1 2.886800000000000033 -12 -5 1 0 0 I I #
straight-curve $-1 -2.886800000000000033 -20 -5 0 1 0 I I #
point $-1 -2.886800000000000033 -12 -5 #
edge $-1 $235 -5.773477019093435025 $227 0 $216 $239 forward 7 unknown #
vertex $-1 $210 $240 #
straight-curve $-1 -2.886800000000000033 -12 5 -1 0 0 I I #
plane-surface $-1 -2.886800000000000033 -12 5 0 -1 0 0 0 -1 forward_v I I I I #
straight-curve $-1 3.608481754721569512 -20 -3.749988300270951314 -0.4999933299211914983 0 -0.8660292547219861081 I I #
edge $-1 $208 0 $235 8 $207 $241 forward 7 unknown #
point $-1 5.773500000000000298 -20 0 #
straight-curve $-1 2.886800000000000033 -20 5 0 1 0 I I #
point $-1 2.886800000000000033 -20 -5 #
vertex $-1 $231 $242 #
straight-curve $-1 5.773500000000000298 -12 0 0.4999933299211914428 0 0.8660292547219859971 I I #
straight-curve $-1 2.886800000000000033 -20 -5 0 1 0 I I #
point $-1 2.886800000000000033 -12 -5 #
straight-curve $-1 2.886800000000000033 -12 5 -0.4999933299211914428 0 0.8660292547219859971 I I #
point $-1 2.886800000000000033 -12 5 #
straight-curve $-1 5.773500000000000298 -20 0 0 1 0 I I #
point $-1 5.773500000000000298 -12 0 #
End-of-ACIS-data 