700 0 2 0           
24 FBMach with ACIS - 7.0.3 13 ACIS 7.0.3 NT 24 Mon May 13 17:17:03 2002 
1 9.9999999999999995e-007 1e-010 
body $2 -1 $-1 $3 $-1 $4 #
bdycol-kcp $-1 -1 1 5 $5 $6 $7 $8 $9 #
model_id-kcp-attrib $-1 -1 $-1 $-1 $0 1 1021324623 1021324623 -787021823 1 #
lump $-1 -1 $-1 $-1 $10 $0 #
transform $-1 -1 1 0 0 0 1 0 0 0 1 0 0 0 1 rotate no_reflect no_shear #
body $11 -1 $-1 $12 $-1 $13 #
body $14 -1 $-1 $15 $-1 $16 #
body $17 -1 $-1 $18 $-1 $19 #
body $20 -1 $-1 $21 $-1 $22 #
body $23 -1 $-1 $24 $-1 $25 #
shell $-1 -1 $-1 $-1 $-1 $26 $-1 $3 #
model_id-kcp-attrib $-1 -1 $-1 $-1 $5 1 1021324623 1021324623 -787021822 1 #
lump $-1 -1 $-1 $-1 $27 $5 #
transform $-1 -1 1 0 0 0 1 0 0 0 1 0 102 0 1 no_rotate no_reflect no_shear #
rgb_color-st-attrib $-1 -1 $28 $-1 $6 1 1 0.5 #
lump $-1 -1 $-1 $-1 $29 $6 #
transform $-1 -1 1 0 0 0 0 1 0 -1 0 0 9 0 1 rotate no_reflect no_shear #
rgb_color-st-attrib $-1 -1 $30 $-1 $7 1 0.5 1 #
lump $-1 -1 $-1 $-1 $31 $7 #
transform $-1 -1 1 0 0 0 1 0 0 0 1 0 102 0 1 no_rotate no_reflect no_shear #
rgb_color-st-attrib $-1 -1 $32 $-1 $8 0.5 1 1 #
lump $-1 -1 $-1 $-1 $33 $8 #
transform $-1 -1 1 0 0 0 1 0 0 0 1 0 102 0 1 no_rotate no_reflect no_shear #
rgb_color-st-attrib $-1 -1 $34 $-1 $9 1 0.5 1 #
lump $-1 -1 $-1 $-1 $35 $9 #
transform $-1 -1 1 0 0 0 1 0 0 0 1 0 102 0 1 no_rotate no_reflect no_shear #
face $36 -1 $-1 $37 $38 $10 $-1 $39 forward single #
shell $-1 -1 $-1 $-1 $-1 $40 $-1 $12 #
model_id-kcp-attrib $-1 -1 $-1 $14 $6 1 1021324623 1021324623 -785711101 1 #
shell $-1 -1 $-1 $-1 $-1 $41 $-1 $15 #
model_id-kcp-attrib $-1 -1 $-1 $17 $7 1 1021324623 1021324623 -785383418 1 #
shell $-1 -1 $-1 $-1 $-1 $42 $-1 $18 #
model_id-kcp-attrib $-1 -1 $-1 $20 $8 1 1021324623 1021324623 -780402684 1 #
shell $-1 -1 $-1 $-1 $-1 $43 $-1 $21 #
model_id-kcp-attrib $-1 -1 $-1 $23 $9 1 1021324623 1021324623 -772538363 1 #
shell $-1 -1 $-1 $-1 $-1 $44 $-1 $24 #
model_id-kcp-attrib $-1 -1 $-1 $-1 $26 1 1021324623 1021324623 -787021823 2 #
face $45 -1 $-1 $46 $47 $10 $-1 $48 forward single #
loop $-1 -1 $-1 $49 $50 $26 #
cone-surface $-1 -1 $-1 0 9 0 0 1 0 0 0 3 1 I I 0.21693045781865616 0.97618706018395285 3 forward I I I I #
face $-1 -1 $-1 $51 $52 $27 $-1 $53 forward single #
face $-1 -1 $-1 $54 $55 $29 $-1 $56 reversed single #
face $-1 -1 $-1 $57 $58 $31 $-1 $59 forward single #
face $-1 -1 $-1 $60 $61 $33 $-1 $62 reversed single #
face $-1 -1 $-1 $63 $64 $35 $-1 $65 forward single #
model_id-kcp-attrib $-1 -1 $-1 $-1 $37 1 1021324623 1021324623 -787021823 3 #
face $66 -1 $-1 $67 $68 $10 $-1 $69 forward single #
loop $-1 -1 $-1 $-1 $70 $37 #
plane-surface $-1 -1 $-1 0 0 0 0 -1 0 0 0 -1 forward_v I I I I #
loop $-1 -1 $-1 $-1 $71 $26 #
coedge $-1 -1 $-1 $50 $50 $70 $72 reversed $38 $-1 #
face $-1 -1 $-1 $73 $74 $27 $-1 $75 reversed single #
loop $-1 -1 $-1 $-1 $76 $40 #
plane-surface $-1 -1 $-1 0 0 22 0 0 1 1 0 0 forward_v I I I I #
face $-1 -1 $-1 $77 $78 $29 $-1 $79 forward single #
loop $-1 -1 $-1 $80 $81 $41 #
cone-surface $-1 -1 $-1 0 0 2.2500000000000018 0 0 1 2.5 0 0 1 I I -0.21693045781865614 0.97618706018395274 2.5 forward I I I I #
face $-1 -1 $-1 $82 $83 $31 $-1 $84 forward single #
loop $-1 -1 $-1 $85 $86 $42 #
cone-surface $-1 -1 $-1 0 -80.000000000000028 0 0 -1 0 0 0 5 1 I I 0 -1 5 forward I I I I #
face $-1 -1 $-1 $87 $88 $33 $-1 $62 reversed single #
loop $-1 -1 $-1 $-1 $89 $43 #
cone-surface $-1 -1 $-1 0 -102 2.4744401910065268e-031 0 -1 0 2.69413397840923e-015 0 -22 1 I I 0 1 22 forward I I I I #
face $-1 -1 $-1 $90 $91 $35 $-1 $92 forward single #
loop $-1 -1 $-1 $93 $94 $44 #
cone-surface $-1 -1 $-1 0 -50.000000000000028 0 0 -1 0 0 0 12 1 I I 0 -1 12 forward I I I I #
model_id-kcp-attrib $-1 -1 $-1 $-1 $46 1 1021324623 1021324623 -787021823 4 #
face $95 -1 $-1 $96 $97 $10 $-1 $98 forward single #
loop $-1 -1 $-1 $99 $100 $46 #
plane-surface $-1 -1 $-1 0 22 0 0 -1 0 0 0 -1 forward_v I I I I #
coedge $-1 -1 $-1 $70 $70 $50 $72 forward $47 $-1 #
coedge $-1 -1 $-1 $71 $71 $101 $102 forward $49 $-1 #
edge $103 -1 $-1 $104 0 $104 6.2831853071795862 $70 $105 forward @7 unknown #
face $106 -1 $-1 $107 $108 $27 $-1 $109 reversed single #
loop $-1 -1 $-1 $-1 $110 $51 #
plane-surface $-1 -1 $-1 0 0 -22 0 0 1 1 0 0 forward_v I I I I #
coedge $-1 -1 $-1 $111 $112 $113 $114 forward $52 $-1 #
face $-1 -1 $-1 $-1 $115 $29 $-1 $116 forward single #
loop $-1 -1 $-1 $117 $118 $54 #
cone-surface $-1 -1 $-1 0 0 0 0 0 1 5 0 0 1 I I 0 1 5 forward I I I I #
loop $-1 -1 $-1 $-1 $119 $41 #
coedge $-1 -1 $-1 $81 $81 $120 $121 reversed $55 $-1 #
face $-1 -1 $-1 $122 $123 $31 $-1 $124 reversed single #
loop $-1 -1 $-1 $125 $126 $57 #
cone-surface $-1 -1 $-1 0 -80.000000000000028 2.4744401910065268e-031 0 -1 0 2.69413397840923e-015 0 -22 1 I I 0 1 22 forward I I I I #
loop $-1 -1 $-1 $-1 $127 $42 #
coedge $-1 -1 $-1 $86 $86 $128 $129 forward $58 $-1 #
face $-1 -1 $-1 $130 $131 $33 $-1 $62 reversed single #
loop $-1 -1 $-1 $-1 $132 $60 #
coedge $-1 -1 $-1 $133 $134 $135 $136 reversed $61 $-1 #
face $-1 -1 $-1 $137 $138 $35 $-1 $139 reversed single #
loop $-1 -1 $-1 $140 $141 $63 #
cone-surface $-1 -1 $-1 0 -50.000000000000028 2.4744401910065268e-031 0 -1 0 2.69413397840923e-015 0 -22 1 I I 0 1 22 forward I I I I #
loop $-1 -1 $-1 $-1 $142 $44 #
coedge $-1 -1 $-1 $94 $94 $143 $144 forward $64 $-1 #
model_id-kcp-attrib $-1 -1 $-1 $-1 $67 1 1021324623 1021324623 -787021823 5 #
face $145 -1 $-1 $146 $147 $10 $-1 $148 forward single #
loop $-1 -1 $-1 $149 $150 $67 #
cone-surface $-1 -1 $-1 0 37 0 0 1 0 0 0 12 1 I I 0 1 12 forward I I I I #
loop $-1 -1 $-1 $-1 $151 $46 #
coedge $-1 -1 $-1 $100 $100 $150 $152 forward $68 $-1 #
coedge $-1 -1 $-1 $101 $101 $71 $102 reversed $153 $-1 #
edge $154 -1 $-1 $155 0 $155 6.2831853071795862 $101 $156 forward @7 unknown #
attrib_edge_convexity-kcp-attrib $-1 -1 $157 $-1 $72 1 #
vertex $-1 -1 $-1 $72 $158 #
ellipse-curve $-1 -1 $-1 0 0 0 0 -1 0 0 0 1 1 I I #
model_id-kcp-attrib $-1 -1 $-1 $-1 $73 1 1021324623 1021324623 -787021822 2 #
face $-1 -1 $-1 $159 $160 $27 $-1 $161 reversed single #
loop $-1 -1 $-1 $-1 $162 $73 #
plane-surface $-1 -1 $-1 0 -102 0 0 1 0 0 0 1 forward_v I I I I #
coedge $-1 -1 $-1 $163 $164 $165 $166 forward $74 $-1 #
coedge $-1 -1 $-1 $167 $76 $168 $169 forward $52 $-1 #
coedge $-1 -1 $-1 $76 $167 $170 $171 forward $52 $-1 #
coedge $-1 -1 $-1 $172 $173 $76 $114 reversed $174 $-1 #
edge $-1 -1 $-1 $175 -102 $176 102 $113 $177 forward @7 unknown #
loop $-1 -1 $-1 $178 $120 $77 #
plane-surface $-1 -1 $-1 0 0 9 0 0 1 1 0 0 forward_v I I I I #
loop $-1 -1 $-1 $-1 $179 $54 #
coedge $-1 -1 $-1 $118 $118 $119 $180 reversed $78 $-1 #
coedge $-1 -1 $-1 $119 $119 $118 $180 forward $80 $-1 #
coedge $-1 -1 $-1 $120 $120 $81 $121 forward $115 $-1 #
edge $-1 -1 $-1 $181 -3.1415926535897931 $181 3.1415926535897931 $120 $182 forward @7 unknown #
face $-1 -1 $-1 $-1 $183 $31 $-1 $184 forward single #
loop $-1 -1 $-1 $185 $186 $82 #
plane-surface $-1 -1 $-1 -9.1979514224450133e-016 -102.00000000000001 1.7138047138047134 -3.223635919174272e-032 1 -2.4797199378263636e-032 0 2.4797199378263636e-032 1 forward_v I I I I #
loop $-1 -1 $-1 $-1 $187 $57 #
coedge $-1 -1 $-1 $126 $126 $186 $188 forward $83 $-1 #
coedge $-1 -1 $-1 $127 $127 $189 $190 reversed $85 $-1 #
coedge $-1 -1 $-1 $128 $128 $86 $129 reversed $185 $-1 #
edge $-1 -1 $-1 $191 0 $191 6.2831853071795862 $86 $192 forward @7 unknown #
face $-1 -1 $-1 $193 $194 $33 $-1 $62 reversed single #
loop $-1 -1 $-1 $-1 $195 $87 #
coedge $-1 -1 $-1 $196 $197 $198 $199 reversed $88 $-1 #
coedge $-1 -1 $-1 $200 $89 $201 $202 forward $61 $-1 #
coedge $-1 -1 $-1 $89 $200 $203 $204 reversed $61 $-1 #
coedge $-1 -1 $-1 $205 $206 $89 $136 forward $207 $-1 #
edge $-1 -1 $-1 $208 1.5707963267948966 $209 3.1415926535897931 $135 $210 forward @7 unknown #
face $-1 -1 $-1 $-1 $211 $35 $-1 $212 forward single #
loop $-1 -1 $-1 $213 $214 $90 #
plane-surface $-1 -1 $-1 -6.4062201584797772e-016 -80.000000000000028 1.6791443850267374 -3.215738721920048e-032 1 -3.2157387219200485e-032 0 3.2157387219200485e-032 1 forward_v I I I I #
loop $-1 -1 $-1 $-1 $215 $63 #
coedge $-1 -1 $-1 $141 $141 $214 $216 forward $91 $-1 #
coedge $-1 -1 $-1 $142 $142 $217 $218 reversed $93 $-1 #
coedge $-1 -1 $-1 $143 $143 $94 $144 reversed $213 $-1 #
edge $-1 -1 $-1 $219 0 $219 6.2831853071795862 $94 $220 forward @7 unknown #
model_id-kcp-attrib $-1 -1 $-1 $-1 $96 1 1021324623 1021324623 -787021823 6 #
face $221 -1 $-1 $222 $223 $10 $-1 $224 forward single #
loop $-1 -1 $-1 $225 $226 $96 #
cone-surface $-1 -1 $-1 0 63 0 0 1 0 0 0 22 1 I I 0 1 22 forward I I I I #
loop $-1 -1 $-1 $-1 $227 $67 #
coedge $-1 -1 $-1 $150 $150 $100 $152 reversed $97 $-1 #
coedge $-1 -1 $-1 $151 $151 $228 $229 reversed $99 $-1 #
edge $230 -1 $-1 $231 0 $231 6.2831853071795862 $100 $232 forward @7 unknown #
loop $-1 -1 $-1 $233 $101 $234 #
attrib_edge_convexity-kcp-attrib $-1 -1 $235 $-1 $102 1 #
vertex $-1 -1 $-1 $102 $236 #
ellipse-curve $-1 -1 $-1 0 18 0 0 -1 0 0 0 5 1 I I #
convexity-sys-attrib $-1 -1 $-1 $103 $72 #
point $-1 -1 $-1 0 0 1 #
face $237 -1 $-1 $238 $239 $27 $-1 $240 reversed single #
loop $-1 -1 $-1 $-1 $241 $107 #
plane-surface $-1 -1 $-1 -22 0 0 1 0 0 0 0 -1 forward_v I I I I #
coedge $-1 -1 $-1 $242 $170 $243 $244 forward $108 $-1 #
coedge $-1 -1 $-1 $245 $110 $242 $246 forward $74 $-1 #
coedge $-1 -1 $-1 $110 $245 $247 $248 forward $74 $-1 #
coedge $-1 -1 $-1 $173 $172 $110 $166 reversed $174 $-1 #
edge $-1 -1 $-1 $249 -102 $250 102 $165 $251 forward @7 unknown #
coedge $-1 -1 $-1 $112 $111 $252 $253 forward $52 $-1 #
coedge $-1 -1 $-1 $254 $255 $111 $169 reversed $239 $-1 #
edge $-1 -1 $-1 $176 -22 $256 22 $168 $257 forward @7 unknown #
coedge $-1 -1 $-1 $162 $258 $112 $171 reversed $108 $-1 #
edge $-1 -1 $-1 $259 -22 $175 22 $170 $260 forward @7 unknown #
coedge $-1 -1 $-1 $165 $113 $258 $261 forward $174 $-1 #
coedge $-1 -1 $-1 $113 $165 $254 $262 reversed $174 $-1 #
loop $-1 -1 $-1 $-1 $172 $238 #
vertex $-1 -1 $-1 $114 $263 #
vertex $-1 -1 $-1 $114 $264 #
straight-curve $-1 -1 $-1 22 0 22 0 1 0 I I #
loop $-1 -1 $-1 $-1 $265 $77 #
coedge $-1 -1 $-1 $179 $179 $265 $266 reversed $117 $-1 #
edge $-1 -1 $-1 $267 0 $267 6.2831853071795862 $118 $268 forward @7 unknown #
vertex $-1 -1 $-1 $121 $269 #
ellipse-curve $-1 -1 $-1 0 0 9 0 0 -1 1.0000000000000004 0 0 1 I I #
loop $-1 -1 $-1 $270 $271 $122 #
plane-surface $-1 -1 $-1 -9.1979514224450133e-016 -80.000000000000014 1.7138047138047134 -3.223635919174272e-032 1 -2.4797199378263636e-032 0 2.4797199378263636e-032 1 forward_v I I I I #
loop $-1 -1 $-1 $-1 $128 $82 #
coedge $-1 -1 $-1 $186 $186 $126 $188 reversed $123 $-1 #
coedge $-1 -1 $-1 $187 $187 $271 $272 reversed $125 $-1 #
edge $-1 -1 $-1 $273 -3.1415926535897931 $273 3.1415926535897931 $126 $274 forward @7 unknown #
coedge $-1 -1 $-1 $189 $189 $127 $190 forward $270 $-1 #
edge $275 -1 $-1 $276 0 $276 6.2831853071795862 $127 $277 forward @7 unknown #
vertex $-1 -1 $-1 $129 $278 #
ellipse-curve $-1 -1 $-1 0 -102.00000000000003 0 0 -1 0 0 0 5 1 I I #
face $-1 -1 $-1 $279 $280 $33 $-1 $281 forward single #
loop $-1 -1 $-1 $-1 $282 $130 #
coedge $-1 -1 $-1 $283 $284 $282 $285 forward $131 $-1 #
coedge $-1 -1 $-1 $286 $132 $287 $288 reversed $88 $-1 #
coedge $-1 -1 $-1 $132 $286 $134 $204 forward $88 $-1 #
coedge $-1 -1 $-1 $289 $290 $132 $199 forward $291 $-1 #
edge $-1 -1 $-1 $292 1.5707963267948968 $293 3.1415926535897931 $198 $294 forward @7 unknown #
coedge $-1 -1 $-1 $134 $133 $295 $296 reversed $61 $-1 #
coedge $-1 -1 $-1 $284 $283 $297 $202 reversed $131 $-1 #
edge $-1 -1 $-1 $208 -204 $298 0 $297 $299 forward @7 unknown #
coedge $-1 -1 $-1 $300 $301 $302 $204 forward $303 $-1 #
edge $-1 -1 $-1 $209 -204 $293 0 $203 $304 forward @7 unknown #
coedge $-1 -1 $-1 $206 $135 $301 $305 reversed $207 $-1 #
coedge $-1 -1 $-1 $135 $205 $306 $307 forward $207 $-1 #
loop $-1 -1 $-1 $-1 $135 $308 #
vertex $-1 -1 $-1 $309 $310 #
vertex $-1 -1 $-1 $311 $312 #
ellipse-curve $-1 -1 $-1 0 102 2.4744401910065268e-031 0 -1 0 2.69413397840923e-015 0 -22 1 I I #
loop $-1 -1 $-1 $313 $314 $137 #
plane-surface $-1 -1 $-1 -6.4062201584797772e-016 -50.000000000000021 1.6791443850267374 -3.215738721920048e-032 1 -3.2157387219200485e-032 0 3.2157387219200485e-032 1 forward_v I I I I #
loop $-1 -1 $-1 $-1 $143 $90 #
coedge $-1 -1 $-1 $214 $214 $141 $216 reversed $138 $-1 #
coedge $-1 -1 $-1 $215 $215 $314 $315 reversed $140 $-1 #
edge $-1 -1 $-1 $316 -3.1415926535897931 $316 3.1415926535897931 $141 $317 forward @7 unknown #
coedge $-1 -1 $-1 $217 $217 $142 $218 forward $313 $-1 #
edge $318 -1 $-1 $319 0 $319 6.2831853071795862 $142 $320 forward @7 unknown #
vertex $-1 -1 $-1 $144 $321 #
ellipse-curve $-1 -1 $-1 0 -80.000000000000028 0 0 -1 0 0 0 12 1 I I #
model_id-kcp-attrib $-1 -1 $-1 $-1 $146 1 1021324623 1021324623 -787021823 7 #
face $322 -1 $-1 $323 $324 $10 $-1 $325 forward single #
loop $-1 -1 $-1 $326 $327 $146 #
plane-surface $-1 -1 $-1 0 52 0 0 -1 0 0 0 -1 forward_v I I I I #
loop $-1 -1 $-1 $-1 $328 $96 #
coedge $-1 -1 $-1 $226 $226 $329 $330 reversed $147 $-1 #
coedge $-1 -1 $-1 $227 $227 $327 $331 reversed $149 $-1 #
coedge $-1 -1 $-1 $228 $228 $151 $229 forward $233 $-1 #
edge $332 -1 $-1 $333 -6.2831853071795862 $333 0 $228 $334 reversed @7 unknown #
attrib_edge_convexity-kcp-attrib $-1 -1 $335 $-1 $152 1 #
vertex $-1 -1 $-1 $152 $336 #
ellipse-curve $-1 -1 $-1 0 22 0 0 -1 0 0 0 12 1 I I #
loop $-1 -1 $-1 $-1 $228 $234 #
face $337 -1 $-1 $-1 $153 $10 $-1 $338 forward single #
convexity-sys-attrib $-1 -1 $-1 $154 $102 #
point $-1 -1 $-1 0 18 5 #
model_id-kcp-attrib $-1 -1 $-1 $-1 $159 1 1021324623 1021324623 -787021822 3 #
face $-1 -1 $-1 $-1 $174 $27 $-1 $339 reversed single #
loop $-1 -1 $-1 $-1 $254 $159 #
plane-surface $-1 -1 $-1 0 102 0 0 -1 0 0 0 -1 forward_v I I I I #
coedge $-1 -1 $-1 $340 $252 $255 $341 forward $160 $-1 #
coedge $-1 -1 $-1 $258 $162 $163 $246 reversed $108 $-1 #
coedge $-1 -1 $-1 $252 $340 $162 $244 reversed $160 $-1 #
edge $-1 -1 $-1 $259 -22 $342 22 $243 $343 forward @7 unknown #
coedge $-1 -1 $-1 $164 $163 $340 $344 forward $74 $-1 #
edge $-1 -1 $-1 $250 -22 $342 22 $242 $345 forward @7 unknown #
coedge $-1 -1 $-1 $255 $254 $164 $248 reversed $239 $-1 #
edge $-1 -1 $-1 $346 -22 $249 22 $247 $347 forward @7 unknown #
vertex $-1 -1 $-1 $166 $348 #
vertex $-1 -1 $-1 $261 $349 #
straight-curve $-1 -1 $-1 22 0 -22 0 -1 0 I I #
coedge $-1 -1 $-1 $241 $243 $167 $253 reversed $160 $-1 #
edge $-1 -1 $-1 $256 -102 $259 102 $252 $350 forward @7 unknown #
coedge $-1 -1 $-1 $247 $168 $173 $262 forward $239 $-1 #
coedge $-1 -1 $-1 $168 $247 $241 $341 reversed $239 $-1 #
vertex $-1 -1 $-1 $169 $351 #
straight-curve $-1 -1 $-1 0 102 22 -1 0 0 I I #
coedge $-1 -1 $-1 $170 $242 $172 $261 reversed $108 $-1 #
vertex $-1 -1 $-1 $253 $352 #
straight-curve $-1 -1 $-1 0 -102 22 1 0 0 I I #
edge $-1 -1 $-1 $175 -22 $250 22 $172 $353 forward @7 unknown #
edge $-1 -1 $-1 $176 -22 $249 22 $173 $354 forward @7 unknown #
point $-1 -1 $-1 22 -102 22 #
point $-1 -1 $-1 22 102 22 #
coedge $-1 -1 $-1 $265 $265 $179 $266 forward $178 $-1 #
edge $-1 -1 $-1 $355 0 $355 6.2831853071795862 $265 $356 forward @7 unknown #
vertex $-1 -1 $-1 $180 $357 #
ellipse-curve $-1 -1 $-1 0 0 -9 0 0 -1 5 0 0 1 I I #
point $-1 -1 $-1 -1.0000000000000004 1.2246063538223778e-016 9 #
loop $-1 -1 $-1 $-1 $189 $122 #
coedge $-1 -1 $-1 $271 $271 $187 $272 forward $183 $-1 #
edge $358 -1 $-1 $359 -3.1415926535897931 $359 3.1415926535897931 $187 $360 forward @7 unknown #
vertex $-1 -1 $-1 $188 $361 #
ellipse-curve $-1 -1 $-1 0 -102.00000000000003 2.4744401910065268e-031 0 1 0 2.69413397840923e-015 0 -22 1 I I #
convexity-sys-attrib $-1 -1 $-1 $-1 $190 #
vertex $-1 -1 $-1 $190 $362 #
ellipse-curve $-1 -1 $-1 0 -80.000000000000028 0 0 -1 0 0 0 5 1 I I #
point $-1 -1 $-1 0 -102 5 #
face $-1 -1 $-1 $363 $364 $33 $-1 $365 reversed single #
loop $-1 -1 $-1 $-1 $302 $193 #
plane-surface $-1 -1 $-1 0 0 22 0 0 1 1 0 0 forward_v I I I I #
coedge $-1 -1 $-1 $366 $367 $368 $285 reversed $194 $-1 #
coedge $-1 -1 $-1 $201 $195 $369 $370 reversed $131 $-1 #
coedge $-1 -1 $-1 $195 $201 $371 $372 reversed $131 $-1 #
edge $-1 -1 $-1 $373 -204 $374 0 $368 $375 forward @7 unknown #
coedge $-1 -1 $-1 $197 $196 $376 $377 reversed $88 $-1 #
coedge $-1 -1 $-1 $378 $379 $380 $288 forward $381 $-1 #
edge $-1 -1 $-1 $382 -204 $292 0 $287 $383 forward @7 unknown #
coedge $-1 -1 $-1 $290 $198 $384 $385 reversed $291 $-1 #
coedge $-1 -1 $-1 $198 $289 $378 $386 forward $291 $-1 #
loop $-1 -1 $-1 $-1 $198 $387 #
vertex $-1 -1 $-1 $388 $389 #
vertex $-1 -1 $-1 $390 $391 #
ellipse-curve $-1 -1 $-1 0 -102 2.4744401910065268e-031 0 1 0 2.69413397840923e-015 0 -22 1 I I #
coedge $-1 -1 $-1 $392 $393 $200 $296 forward $394 $-1 #
edge $-1 -1 $-1 $293 -3.1415926535897931 $298 -1.5707963267948966 $295 $294 forward @7 unknown #
coedge $-1 -1 $-1 $395 $396 $397 $202 forward $364 $-1 #
vertex $-1 -1 $-1 $398 $399 #
straight-curve $-1 -1 $-1 22 -102 2.4744401910065268e-031 0 -1 0 I I #
coedge $-1 -1 $-1 $400 $203 $393 $390 forward $303 $-1 #
coedge $-1 -1 $-1 $203 $400 $205 $305 forward $303 $-1 #
coedge $-1 -1 $-1 $401 $384 $197 $204 reversed $280 $-1 #
loop $-1 -1 $-1 $-1 $203 $402 #
straight-curve $-1 -1 $-1 0 -102 22 0 -1 0 I I #
edge $-1 -1 $-1 $403 -22 $209 0 $205 $404 forward @7 unknown #
coedge $-1 -1 $-1 $405 $397 $206 $307 reversed $406 $-1 #
edge $-1 -1 $-1 $403 -22 $208 -2.4744401910065268e-031 $306 $407 forward @7 unknown #
face $-1 -1 $-1 $408 $207 $33 $-1 $409 reversed single #
edge $-1 -1 $-1 $208 -2.4744401910065268e-031 $410 22 $396 $407 forward @7 unknown #
point $-1 -1 $-1 22 102 2.4744401910065268e-031 #
edge $-1 -1 $-1 $209 0 $411 22 $412 $404 forward @7 unknown #
point $-1 -1 $-1 0 102 22 #
loop $-1 -1 $-1 $-1 $217 $137 #
coedge $-1 -1 $-1 $314 $314 $215 $315 forward $211 $-1 #
edge $413 -1 $-1 $414 -3.1415926535897931 $414 3.1415926535897931 $215 $415 forward @7 unknown #
vertex $-1 -1 $-1 $216 $416 #
ellipse-curve $-1 -1 $-1 0 -80.000000000000028 2.4744401910065268e-031 0 1 0 2.69413397840923e-015 0 -22 1 I I #
convexity-sys-attrib $-1 -1 $-1 $-1 $218 #
vertex $-1 -1 $-1 $218 $417 #
ellipse-curve $-1 -1 $-1 0 -50.000000000000028 0 0 -1 0 0 0 12 1 I I #
point $-1 -1 $-1 0 -80 12 #
model_id-kcp-attrib $-1 -1 $-1 $-1 $222 1 1021324623 1021324623 -787021823 8 #
face $418 -1 $-1 $419 $420 $10 $-1 $421 forward single #
loop $-1 -1 $-1 $422 $423 $222 #
cone-surface $-1 -1 $-1 0 84 0 0 1 0 0 0 17 1 I I -0.44721359549995793 0.89442719099991586 17 forward I I I I #
loop $-1 -1 $-1 $-1 $329 $146 #
coedge $-1 -1 $-1 $327 $327 $227 $331 forward $223 $-1 #
coedge $-1 -1 $-1 $328 $328 $423 $424 forward $225 $-1 #
coedge $-1 -1 $-1 $329 $329 $226 $330 forward $326 $-1 #
edge $425 -1 $-1 $426 0 $426 6.2831853071795862 $329 $427 forward @7 unknown #
edge $428 -1 $-1 $429 0 $429 6.2831853071795862 $327 $430 forward @7 unknown #
attrib_edge_convexity-kcp-attrib $-1 -1 $431 $-1 $229 2 #
vertex $-1 -1 $-1 $229 $432 #
ellipse-curve $-1 -1 $-1 0 22 0 0 1 0 0 0 5 1 I I #
convexity-sys-attrib $-1 -1 $-1 $230 $152 #
point $-1 -1 $-1 0 22 12 #
model_id-kcp-attrib $-1 -1 $-1 $-1 $234 1 1021324623 1021324623 -787021823 11 #
cone-surface $-1 -1 $-1 0 20 0 0 1 0 0 0 5 1 I I 0 1 5 forward I I I I #
plane-surface $-1 -1 $-1 22 0 0 -1 0 0 0 0 1 forward_v I I I I #
coedge $-1 -1 $-1 $243 $241 $245 $344 reversed $160 $-1 #
edge $-1 -1 $-1 $256 -22 $346 22 $255 $433 forward @7 unknown #
vertex $-1 -1 $-1 $344 $434 #
straight-curve $-1 -1 $-1 -22 -102 0 0 0 -1 I I #
edge $-1 -1 $-1 $342 -102 $346 102 $340 $435 forward @7 unknown #
straight-curve $-1 -1 $-1 0 -102 -22 -1 0 0 I I #
vertex $-1 -1 $-1 $248 $436 #
straight-curve $-1 -1 $-1 0 102 -22 1 0 0 I I #
point $-1 -1 $-1 22 102 -22 #
point $-1 -1 $-1 22 -102 -22 #
straight-curve $-1 -1 $-1 -22 0 22 0 -1 0 I I #
point $-1 -1 $-1 -22 102 22 #
point $-1 -1 $-1 -22 -102 22 #
straight-curve $-1 -1 $-1 22 -102 0 0 0 -1 I I #
straight-curve $-1 -1 $-1 22 102 0 0 0 -1 I I #
vertex $-1 -1 $-1 $266 $437 #
ellipse-curve $-1 -1 $-1 0 0 9 0 0 1 5 0 0 1 I I #
point $-1 -1 $-1 5 0 -9 #
convexity-sys-attrib $-1 -1 $-1 $-1 $272 #
vertex $-1 -1 $-1 $272 $438 #
ellipse-curve $-1 -1 $-1 0 -80.000000000000028 2.4744401910065268e-031 0 1 0 2.69413397840923e-015 0 -22 1 I I #
point $-1 -1 $-1 0 -102.00000000000003 22 #
point $-1 -1 $-1 0 -80 5 #
face $-1 -1 $-1 $439 $440 $33 $-1 $441 reversed single #
loop $-1 -1 $-1 $-1 $297 $279 #
plane-surface $-1 -1 $-1 22 0 0 -1 0 0 0 0 1 forward_v I I I I #
coedge $-1 -1 $-1 $442 $282 $443 $444 reversed $194 $-1 #
coedge $-1 -1 $-1 $282 $442 $445 $446 reversed $194 $-1 #
coedge $-1 -1 $-1 $447 $448 $449 $285 forward $450 $-1 #
coedge $-1 -1 $-1 $451 $452 $283 $370 forward $453 $-1 #
edge $-1 -1 $-1 $298 -1.5707963267948966 $374 1.2246063538223773e-016 $369 $294 forward @7 unknown #
coedge $-1 -1 $-1 $454 $455 $284 $372 forward $456 $-1 #
edge $-1 -1 $-1 $373 -1.2246063538223773e-016 $208 1.5707963267948966 $371 $210 forward @7 unknown #
vertex $-1 -1 $-1 $457 $458 #
vertex $-1 -1 $-1 $459 $460 #
straight-curve $-1 -1 $-1 0 -102 -22 0 -1 0 I I #
coedge $-1 -1 $-1 $461 $412 $286 $377 forward $462 $-1 #
edge $-1 -1 $-1 $209 -3.1415926535897931 $382 -1.5707963267948968 $376 $210 forward @7 unknown #
coedge $-1 -1 $-1 $463 $287 $290 $386 reversed $381 $-1 #
coedge $-1 -1 $-1 $287 $463 $461 $464 forward $381 $-1 #
coedge $-1 -1 $-1 $465 $466 $442 $288 reversed $440 $-1 #
loop $-1 -1 $-1 $-1 $287 $467 #
vertex $-1 -1 $-1 $468 $469 #
straight-curve $-1 -1 $-1 -22 -102 2.4744401910065268e-031 0 -1 0 I I #
coedge $-1 -1 $-1 $302 $470 $289 $385 forward $280 $-1 #
edge $-1 -1 $-1 $471 -22 $293 0 $289 $472 forward @7 unknown #
edge $-1 -1 $-1 $471 -22 $292 -2.4744401910065268e-031 $378 $473 forward @7 unknown #
face $-1 -1 $-1 $474 $291 $33 $-1 $475 reversed single #
edge $-1 -1 $-1 $292 -2.4744401910065268e-031 $476 22 $466 $473 forward @7 unknown #
point $-1 -1 $-1 -22 -102 2.4744401910065268e-031 #
edge $-1 -1 $-1 $293 0 $477 22 $393 $472 forward @7 unknown #
point $-1 -1 $-1 0 -102 22 #
coedge $-1 -1 $-1 $393 $295 $478 $479 reversed $394 $-1 #
coedge $-1 -1 $-1 $295 $392 $300 $390 reversed $394 $-1 #
loop $-1 -1 $-1 $-1 $295 $474 #
coedge $-1 -1 $-1 $480 $297 $452 $398 forward $364 $-1 #
coedge $-1 -1 $-1 $297 $480 $454 $309 reversed $364 $-1 #
coedge $-1 -1 $-1 $306 $478 $133 $202 reversed $406 $-1 #
edge $-1 -1 $-1 $298 -2.4744401910065268e-031 $481 22 $395 $482 forward @7 unknown #
point $-1 -1 $-1 22 -102 2.4744401910065268e-031 #
coedge $-1 -1 $-1 $301 $300 $405 $483 forward $303 $-1 #
coedge $-1 -1 $-1 $470 $302 $412 $311 forward $280 $-1 #
face $-1 -1 $-1 $484 $303 $33 $-1 $281 forward single #
vertex $-1 -1 $-1 $483 $485 #
straight-curve $-1 -1 $-1 0 102 22 -1 0 0 I I #
coedge $-1 -1 $-1 $478 $306 $400 $483 reversed $406 $-1 #
loop $-1 -1 $-1 $-1 $397 $486 #
straight-curve $-1 -1 $-1 22 102 0 0 0 -1 I I #
face $-1 -1 $-1 $487 $462 $33 $-1 $409 reversed single #
plane-surface $-1 -1 $-1 0 102 0 0 -1 0 0 0 -1 forward_v I I I I #
vertex $-1 -1 $-1 $488 $489 #
vertex $-1 -1 $-1 $311 $490 #
coedge $-1 -1 $-1 $376 $461 $401 $311 reversed $462 $-1 #
convexity-sys-attrib $-1 -1 $-1 $-1 $315 #
vertex $-1 -1 $-1 $315 $491 #
ellipse-curve $-1 -1 $-1 0 -50.000000000000028 2.4744401910065268e-031 0 1 0 2.69413397840923e-015 0 -22 1 I I #
point $-1 -1 $-1 0 -80.000000000000028 22 #
point $-1 -1 $-1 0 -50 12 #
model_id-kcp-attrib $-1 -1 $-1 $-1 $323 1 1021324623 1021324623 -787021823 9 #
face $492 -1 $-1 $234 $493 $10 $-1 $494 forward single #
loop $-1 -1 $-1 $495 $496 $323 #
cone-surface $-1 -1 $-1 0 149 0 0 1 0 0 0 12 1 I I 0 1 12 forward I I I I #
loop $-1 -1 $-1 $-1 $497 $222 #
coedge $-1 -1 $-1 $423 $423 $328 $424 reversed $324 $-1 #
edge $-1 -1 $-1 $498 0 $498 6.2831853071795862 $423 $499 forward @7 unknown #
attrib_edge_convexity-kcp-attrib $-1 -1 $500 $-1 $330 1 #
vertex $-1 -1 $-1 $330 $501 #
ellipse-curve $-1 -1 $-1 0 52 0 0 -1 0 0 0 22 1 I I #
attrib_edge_convexity-kcp-attrib $-1 -1 $502 $-1 $331 2 #
vertex $-1 -1 $-1 $331 $503 #
ellipse-curve $-1 -1 $-1 0 52 0 0 1 0 0 0 12 1 I I #
convexity-sys-attrib $-1 -1 $-1 $332 $229 #
point $-1 -1 $-1 0 22 5 #
straight-curve $-1 -1 $-1 -22 102 0 0 0 -1 I I #
point $-1 -1 $-1 -22 -102 -22 #
straight-curve $-1 -1 $-1 -22 0 -22 0 1 0 I I #
point $-1 -1 $-1 -22 102 -22 #
point $-1 -1 $-1 5 0 9 #
point $-1 -1 $-1 0 -80.000000000000028 22 #
face $-1 -1 $-1 $387 $504 $33 $-1 $475 reversed single #
loop $-1 -1 $-1 $-1 $380 $363 #
plane-surface $-1 -1 $-1 -22 0 0 1 0 0 0 0 -1 forward_v I I I I #
coedge $-1 -1 $-1 $367 $366 $196 $288 forward $194 $-1 #
coedge $-1 -1 $-1 $505 $506 $366 $444 forward $507 $-1 #
edge $-1 -1 $-1 $382 -1.5707963267948968 $373 -1.2246063538223773e-016 $443 $210 forward @7 unknown #
coedge $-1 -1 $-1 $508 $509 $367 $446 forward $504 $-1 #
edge $-1 -1 $-1 $374 1.2246063538223773e-016 $292 1.5707963267948968 $445 $294 forward @7 unknown #
coedge $-1 -1 $-1 $510 $368 $509 $459 forward $450 $-1 #
coedge $-1 -1 $-1 $368 $510 $505 $511 forward $450 $-1 #
coedge $-1 -1 $-1 $512 $513 $195 $285 reversed $514 $-1 #
loop $-1 -1 $-1 $-1 $368 $484 #
coedge $-1 -1 $-1 $452 $369 $513 $515 reversed $453 $-1 #
coedge $-1 -1 $-1 $369 $451 $395 $398 reversed $453 $-1 #
loop $-1 -1 $-1 $-1 $369 $516 #
coedge $-1 -1 $-1 $455 $371 $396 $309 forward $456 $-1 #
coedge $-1 -1 $-1 $371 $454 $512 $457 reversed $456 $-1 #
loop $-1 -1 $-1 $-1 $371 $517 #
edge $-1 -1 $-1 $373 0 $410 22 $455 $518 forward @7 unknown #
point $-1 -1 $-1 0 102 -22 #
edge $-1 -1 $-1 $374 0 $476 22 $509 $519 forward @7 unknown #
point $-1 -1 $-1 0 -102 -22 #
coedge $-1 -1 $-1 $412 $376 $379 $464 reversed $462 $-1 #
loop $-1 -1 $-1 $-1 $376 $408 #
coedge $-1 -1 $-1 $379 $378 $470 $520 reversed $381 $-1 #
edge $-1 -1 $-1 $411 -22 $382 -2.4744401910065268e-031 $461 $521 forward @7 unknown #
coedge $-1 -1 $-1 $522 $380 $506 $468 forward $440 $-1 #
coedge $-1 -1 $-1 $380 $522 $508 $388 reversed $440 $-1 #
face $-1 -1 $-1 $486 $381 $33 $-1 $441 reversed single #
edge $-1 -1 $-1 $382 -2.4744401910065268e-031 $523 22 $506 $521 forward @7 unknown #
point $-1 -1 $-1 -22 102 2.4744401910065268e-031 #
coedge $-1 -1 $-1 $384 $401 $463 $520 forward $280 $-1 #
vertex $-1 -1 $-1 $520 $524 #
straight-curve $-1 -1 $-1 0 -102 22 1 0 0 I I #
straight-curve $-1 -1 $-1 -22 -102 0 0 0 -1 I I #
face $-1 -1 $-1 $516 $394 $33 $-1 $475 reversed single #
plane-surface $-1 -1 $-1 0 -102 0 0 1 0 0 0 1 forward_v I I I I #
vertex $-1 -1 $-1 $525 $526 #
vertex $-1 -1 $-1 $483 $527 #
coedge $-1 -1 $-1 $397 $405 $392 $479 forward $406 $-1 #
edge $-1 -1 $-1 $477 -22 $298 -2.4744401910065268e-031 $478 $482 forward @7 unknown #
coedge $-1 -1 $-1 $396 $395 $528 $488 reversed $364 $-1 #
vertex $-1 -1 $-1 $398 $529 #
straight-curve $-1 -1 $-1 22 -102 0 0 0 -1 I I #
edge $-1 -1 $-1 $477 -102 $403 102 $405 $530 forward @7 unknown #
face $-1 -1 $-1 $467 $450 $33 $-1 $531 reversed single #
point $-1 -1 $-1 22 102 22 #
face $-1 -1 $-1 $-1 $406 $33 $-1 $365 reversed single #
face $-1 -1 $-1 $532 $507 $33 $-1 $409 reversed single #
edge $-1 -1 $-1 $410 -102 $481 102 $480 $533 forward @7 unknown #
point $-1 -1 $-1 22 102 -22 #
point $-1 -1 $-1 -22 102 22 #
point $-1 -1 $-1 0 -50.000000000000028 22 #
model_id-kcp-attrib $-1 -1 $-1 $-1 $419 1 1021324623 1021324623 -787021823 10 #
loop $-1 -1 $-1 $-1 $534 $419 #
plane-surface $-1 -1 $-1 0 204 0 0 1 0 0 0 1 forward_v I I I I #
loop $-1 -1 $-1 $-1 $535 $323 #
coedge $-1 -1 $-1 $496 $496 $497 $536 forward $420 $-1 #
coedge $-1 -1 $-1 $497 $497 $496 $536 reversed $422 $-1 #
vertex $-1 -1 $-1 $424 $537 #
ellipse-curve $-1 -1 $-1 0 74 0 0 -1 0 0 0 22 1 I I #
convexity-sys-attrib $-1 -1 $-1 $425 $330 #
point $-1 -1 $-1 0 52 22 #
convexity-sys-attrib $-1 -1 $-1 $428 $331 #
point $-1 -1 $-1 0 52 12 #
loop $-1 -1 $-1 $-1 $445 $439 #
coedge $-1 -1 $-1 $506 $443 $448 $511 reversed $507 $-1 #
coedge $-1 -1 $-1 $443 $505 $465 $468 reversed $507 $-1 #
loop $-1 -1 $-1 $-1 $443 $487 #
coedge $-1 -1 $-1 $509 $445 $466 $388 forward $504 $-1 #
coedge $-1 -1 $-1 $445 $508 $447 $459 reversed $504 $-1 #
coedge $-1 -1 $-1 $448 $447 $522 $525 forward $450 $-1 #
edge $-1 -1 $-1 $523 -22 $373 0 $505 $518 forward @7 unknown #
coedge $-1 -1 $-1 $528 $449 $455 $457 forward $514 $-1 #
coedge $-1 -1 $-1 $449 $528 $451 $515 forward $514 $-1 #
loop $-1 -1 $-1 $-1 $449 $532 #
edge $-1 -1 $-1 $481 -22 $374 0 $451 $519 forward @7 unknown #
face $-1 -1 $-1 $517 $453 $33 $-1 $475 reversed single #
face $-1 -1 $-1 $308 $456 $33 $-1 $409 reversed single #
straight-curve $-1 -1 $-1 0 102 -22 1 0 0 I I #
straight-curve $-1 -1 $-1 0 -102 -22 -1 0 0 I I #
edge $-1 -1 $-1 $411 -102 $471 102 $463 $538 forward @7 unknown #
straight-curve $-1 -1 $-1 -22 102 0 0 0 -1 I I #
coedge $-1 -1 $-1 $466 $465 $510 $525 reversed $440 $-1 #
vertex $-1 -1 $-1 $511 $539 #
point $-1 -1 $-1 -22 -102 22 #
edge $-1 -1 $-1 $476 -102 $523 102 $522 $540 forward @7 unknown #
point $-1 -1 $-1 -22 -102 -22 #
point $-1 -1 $-1 22 -102 22 #
coedge $-1 -1 $-1 $513 $512 $480 $488 forward $514 $-1 #
point $-1 -1 $-1 22 -102 -22 #
straight-curve $-1 -1 $-1 22 0 22 0 1 0 I I #
plane-surface $-1 -1 $-1 0 0 -22 0 0 1 1 0 0 forward_v I I I I #
face $-1 -1 $-1 $402 $514 $33 $-1 $531 reversed single #
straight-curve $-1 -1 $-1 22 0 -22 0 -1 0 I I #
coedge $-1 -1 $-1 $534 $534 $535 $541 forward $493 $-1 #
coedge $-1 -1 $-1 $535 $535 $534 $541 reversed $495 $-1 #
edge $-1 -1 $-1 $542 -6.2831853071795862 $542 0 $496 $543 reversed @7 unknown #
point $-1 -1 $-1 0 74 22 #
straight-curve $-1 -1 $-1 -22 0 22 0 -1 0 I I #
point $-1 -1 $-1 -22 102 -22 #
straight-curve $-1 -1 $-1 -22 0 -22 0 1 0 I I #
edge $-1 -1 $-1 $544 0 $544 6.2831853071795862 $534 $545 forward @7 unknown #
vertex $-1 -1 $-1 $536 $546 #
ellipse-curve $-1 -1 $-1 0 94 0 0 -1 0 0 0 12 1 I I #
vertex $-1 -1 $-1 $541 $547 #
ellipse-curve $-1 -1 $-1 0 204 0 0 1 0 0 0 12 1 I I #
point $-1 -1 $-1 0 94 12 #
point $-1 -1 $-1 0 204 12 #
End-of-ACIS-data 