600 0 1 0           
84 GICL ACIS Healer - Source: /gicl/data5/repository/CMU/Tools/soldering_tool.sat - 6 0 18 ACIS 6.0.3 Solaris 24 Sat Apr 13 00:32:49 2002 
1 9.999999999999999547e-07 1.000000000000000036e-10 
body $-1 $1 $-1 $-1 #
lump $-1 $-1 $2 $0 #
shell $-1 $-1 $-1 $3 $-1 $1 #
face $-1 $4 $5 $2 $-1 $6 forward single #
face $-1 $7 $8 $2 $-1 $9 forward single #
loop $-1 $10 $11 $3 #
cone-surface $-1 0 9 0 0 1 0 0 0 3 1 I I 0.2169304578186561638 0.9761870601839528483 3 forward I I I I #
face $-1 $12 $13 $2 $-1 $14 forward single #
loop $-1 $-1 $15 $4 #
plane-surface $-1 0 0 0 0 -1 0 0 0 -1 forward_v I I I I #
loop $-1 $-1 $16 $3 #
coedge $-1 $11 $11 $15 $17 reversed $5 $-1 #
face $-1 $18 $19 $2 $-1 $20 forward single #
loop $-1 $21 $22 $7 #
plane-surface $-1 0 22 0 0 -1 0 0 0 -1 forward_v I I I I #
coedge $-1 $15 $15 $11 $17 forward $8 $-1 #
coedge $-1 $16 $16 $23 $24 forward $10 $-1 #
edge $-1 $25 0 $25 6.283185307179586232 $15 $26 forward 7 unknown #
face $-1 $27 $28 $2 $-1 $29 forward single #
loop $-1 $30 $31 $12 #
cone-surface $-1 0 37 0 0 1 0 0 0 12 1 I I 0 1 12 forward I I I I #
loop $-1 $-1 $32 $7 #
coedge $-1 $22 $22 $31 $33 forward $13 $-1 #
coedge $-1 $23 $23 $16 $24 reversed $34 $-1 #
edge $-1 $35 0 $35 6.283185307179586232 $23 $36 forward 7 unknown #
vertex $-1 $17 $37 #
ellipse-curve $-1 0 0 0 0 -1 0 0 0 1 1 I I #
face $-1 $38 $39 $2 $-1 $40 forward single #
loop $-1 $41 $42 $18 #
cone-surface $-1 0 63 0 0 1 0 0 0 22 1 I I 0 1 22 forward I I I I #
loop $-1 $-1 $43 $12 #
coedge $-1 $31 $31 $22 $33 reversed $19 $-1 #
coedge $-1 $32 $32 $44 $45 reversed $21 $-1 #
edge $-1 $46 0 $46 6.283185307179586232 $22 $47 forward 7 unknown #
loop $-1 $48 $23 $49 #
vertex $-1 $24 $50 #
ellipse-curve $-1 0 18 0 0 -1 0 0 0 5 1 I I #
point $-1 0 0 1 #
face $-1 $51 $52 $2 $-1 $53 forward single #
loop $-1 $54 $55 $27 #
plane-surface $-1 0 52 0 0 -1 0 0 0 -1 forward_v I I I I #
loop $-1 $-1 $56 $18 #
coedge $-1 $42 $42 $57 $58 reversed $28 $-1 #
coedge $-1 $43 $43 $55 $59 reversed $30 $-1 #
coedge $-1 $44 $44 $32 $45 forward $48 $-1 #
edge $-1 $60 -6.283185307179586232 $60 -0 $44 $61 reversed 7 unknown #
vertex $-1 $33 $62 #
ellipse-curve $-1 0 22 0 0 -1 0 0 0 12 1 I I #
loop $-1 $-1 $44 $49 #
face $-1 $-1 $34 $2 $-1 $63 forward single #
point $-1 0 18 5 #
face $-1 $64 $65 $2 $-1 $66 forward single #
loop $-1 $67 $68 $38 #
cone-surface $-1 0 84 0 0 1 0 0 0 17 1 I I -0.4472135954999579277 0.8944271909999158554 17 forward I I I I #
loop $-1 $-1 $57 $27 #
coedge $-1 $55 $55 $43 $59 forward $39 $-1 #
coedge $-1 $56 $56 $68 $69 forward $41 $-1 #
coedge $-1 $57 $57 $42 $58 forward $54 $-1 #
edge $-1 $70 0 $70 6.283185307179586232 $57 $71 forward 7 unknown #
edge $-1 $72 0 $72 6.283185307179586232 $55 $73 forward 7 unknown #
vertex $-1 $45 $74 #
ellipse-curve $-1 0 22 0 0 1 0 0 0 5 1 I I #
point $-1 0 22 12 #
cone-surface $-1 0 20 0 0 1 0 0 0 5 1 I I 0 1 5 forward I I I I #
face $-1 $49 $75 $2 $-1 $76 forward single #
loop $-1 $77 $78 $51 #
cone-surface $-1 0 149 0 0 1 0 0 0 12 1 I I 0 1 12 forward I I I I #
loop $-1 $-1 $79 $38 #
coedge $-1 $68 $68 $56 $69 reversed $52 $-1 #
edge $-1 $80 0 $80 6.283185307179586232 $68 $81 forward 7 unknown #
vertex $-1 $58 $82 #
ellipse-curve $-1 0 52 0 0 -1 0 0 0 22 1 I I #
vertex $-1 $59 $83 #
ellipse-curve $-1 0 52 0 0 1 0 0 0 12 1 I I #
point $-1 0 22 5 #
loop $-1 $-1 $84 $64 #
plane-surface $-1 0 204 0 0 1 0 0 0 1 forward_v I I I I #
loop $-1 $-1 $85 $51 #
coedge $-1 $78 $78 $79 $86 forward $65 $-1 #
coedge $-1 $79 $79 $78 $86 reversed $67 $-1 #
vertex $-1 $69 $87 #
ellipse-curve $-1 0 74 0 0 -1 0 0 0 22 1 I I #
point $-1 0 52 22 #
point $-1 0 52 12 #
coedge $-1 $84 $84 $85 $88 forward $75 $-1 #
coedge $-1 $85 $85 $84 $88 reversed $77 $-1 #
edge $-1 $89 -6.283185307179586232 $89 -0 $78 $90 reversed 7 unknown #
point $-1 0 74 22 #
edge $-1 $91 0 $91 6.283185307179586232 $84 $92 forward 7 unknown #
vertex $-1 $86 $93 #
ellipse-curve $-1 0 94 0 0 -1 0 0 0 12 1 I I #
vertex $-1 $88 $94 #
ellipse-curve $-1 0 204 0 0 1 0 0 0 12 1 I I #
point $-1 0 94 12 #
point $-1 0 204 12 #
End-of-ACIS-data 