201 0 1 0           
23 ACIS Test Harness - 2.1 16 ACIS 2.1 Solaris 24 Thu Jan 30 10:31:05 1997 
-1 9.999999999999999547e-07 1.000000000000000036e-10 
body $-1 $1 $-1 $2 #
lump $-1 $-1 $3 $0 #
transform $-1 1 0 0 0 1 0 0 0 1 0 0 -5 1 no_rotate no_reflect no_shear #
shell $-1 $-1 $-1 $4 $-1 $1 #
face $-1 $5 $6 $3 $-1 $7 forward single #
face $-1 $8 $9 $3 $-1 $10 forward single #
loop $-1 $-1 $11 $4 #
plane-surface $-1 900 50 0 0 1 0 0 0 1 forward_v I I I I #
face $-1 $12 $13 $3 $-1 $14 forward single #
loop $-1 $-1 $15 $5 #
plane-surface $-1 750 150 0 1 0 0 0 0 -1 forward_v I I I I #
coedge $-1 $16 $17 $18 $19 1 $6 $-1 #
face $-1 $20 $21 $3 $-1 $22 reversed single #
loop $-1 $-1 $23 $8 #
plane-surface $-1 0 0 5 0 0 1 1 0 0 forward_v I I I I #
coedge $-1 $24 $25 $26 $27 1 $9 $-1 #
coedge $-1 $28 $11 $23 $29 1 $6 $-1 #
coedge $-1 $11 $28 $30 $31 1 $6 $-1 #
coedge $-1 $25 $24 $11 $19 0 $9 $-1 #
edge $-1 $32 $33 $18 $34 forward #
face $-1 $35 $36 $3 $-1 $37 forward single #
loop $-1 $-1 $26 $12 #
plane-surface $-1 0 250 0 0 -1 0 0 0 -1 forward_v I I I I #
coedge $-1 $38 $39 $16 $29 0 $13 $-1 #
coedge $-1 $18 $15 $38 $40 1 $9 $-1 #
coedge $-1 $15 $18 $41 $42 1 $9 $-1 #
coedge $-1 $43 $44 $15 $27 0 $21 $-1 #
edge $-1 $45 $46 $26 $47 forward #
coedge $-1 $17 $16 $48 $49 1 $6 $-1 #
edge $-1 $50 $32 $23 $51 forward #
coedge $-1 $52 $41 $17 $31 0 $53 $-1 #
edge $-1 $33 $54 $30 $55 forward #
vertex $-1 $29 $56 #
vertex $-1 $31 $57 #
straight-curve $-1 750 50 0 0 0 -1 I I #
face $-1 $58 $59 $3 $-1 $60 forward single #
loop $-1 $-1 $61 $20 #
plane-surface $-1 -900 50 0 0 1 0 0 0 1 forward_v I I I I #
coedge $-1 $62 $23 $24 $40 0 $13 $-1 #
coedge $-1 $23 $63 $64 $65 0 $13 $-1 #
edge $-1 $32 $45 $38 $66 forward #
coedge $-1 $30 $67 $25 $42 0 $53 $-1 #
edge $-1 $46 $33 $41 $68 forward #
coedge $-1 $69 $26 $67 $70 1 $21 $-1 #
coedge $-1 $26 $69 $62 $71 1 $21 $-1 #
vertex $-1 $71 $72 #
vertex $-1 $27 $73 #
straight-curve $-1 750 250 0 0 0 -1 I I #
coedge $-1 $64 $74 $28 $49 0 $75 $-1 #
edge $-1 $54 $50 $48 $76 forward #
vertex $-1 $49 $77 #
straight-curve $-1 450 50 5 -1 0 0 I I #
coedge $-1 $78 $30 $74 $79 0 $53 $-1 #
loop $-1 $-1 $30 $80 #
vertex $-1 $79 $81 #
straight-curve $-1 450 50 -5 1 0 0 I I #
point $-1 750 50 5 #
point $-1 750 50 -5 #
face $-1 $80 $82 $3 $-1 $83 reversed single #
loop $-1 $-1 $84 $35 #
plane-surface $-1 -750 150 0 -1 0 0 0 0 1 forward_v I I I I #
coedge $-1 $85 $86 $87 $88 1 $36 $-1 #
coedge $-1 $89 $38 $44 $71 0 $13 $-1 #
coedge $-1 $39 $90 $91 $92 0 $13 $-1 #
coedge $-1 $93 $48 $39 $65 1 $75 $-1 #
edge $-1 $94 $50 $64 $95 forward #
straight-curve $-1 750 75 5 0 1 0 I I #
coedge $-1 $41 $96 $43 $70 0 $53 $-1 #
straight-curve $-1 750 75 -5 0 -1 0 I I #
coedge $-1 $44 $43 $97 $98 0 $21 $-1 #
edge $-1 $99 $46 $43 $100 forward #
edge $-1 $45 $101 $44 $102 forward #
point $-1 750 250 5 #
point $-1 750 250 -5 #
coedge $-1 $48 $93 $52 $79 1 $75 $-1 #
loop $-1 $-1 $48 $103 #
straight-curve $-1 1050 50 0 0 -0 1 I I #
point $-1 1050 50 5 #
coedge $-1 $104 $52 $105 $106 0 $53 $-1 #
edge $-1 $54 $107 $74 $108 forward #
face $-1 $109 $53 $3 $-1 $110 reversed single #
point $-1 1050 50 -5 #
loop $-1 $-1 $87 $58 #
plane-surface $-1 -1050 0 0 1 0 0 0 0 -1 forward_v I I I I #
coedge $-1 $111 $112 $113 $114 1 $59 $-1 #
coedge $-1 $113 $61 $115 $116 1 $36 $-1 #
coedge $-1 $61 $113 $117 $118 1 $36 $-1 #
coedge $-1 $119 $120 $61 $88 0 $82 $-1 #
edge $-1 $121 $122 $87 $123 forward #
coedge $-1 $115 $62 $111 $124 0 $13 $-1 #
coedge $-1 $63 $115 $120 $125 0 $13 $-1 #
coedge $-1 $126 $127 $63 $92 1 $128 $-1 #
edge $-1 $129 $94 $91 $130 forward #
coedge $-1 $74 $64 $127 $131 0 $75 $-1 #
vertex $-1 $65 $132 #
straight-curve $-1 1050 0 5 0 1 0 I I #
coedge $-1 $67 $117 $112 $133 0 $53 $-1 #
coedge $-1 $112 $111 $69 $98 1 $59 $-1 #
edge $-1 $99 $101 $69 $134 forward #
vertex $-1 $70 $135 #
straight-curve $-1 0 250 -5 1 0 0 I I #
vertex $-1 $98 $136 #
straight-curve $-1 0 250 5 -1 0 0 I I #
face $-1 $-1 $75 $3 $-1 $137 reversed single #
coedge $-1 $117 $78 $119 $138 0 $53 $-1 #
coedge $-1 $127 $126 $78 $106 1 $128 $-1 #
edge $-1 $107 $139 $105 $140 forward #
vertex $-1 $131 $141 #
straight-curve $-1 1050 0 -5 0 -1 0 I I #
face $-1 $103 $128 $3 $-1 $142 reversed single #
plane-surface $-1 0 0 -5 0 0 1 1 0 0 forward_v I I I I #
coedge $-1 $97 $84 $89 $124 1 $59 $-1 #
coedge $-1 $84 $97 $96 $133 1 $59 $-1 #
coedge $-1 $86 $85 $84 $114 0 $36 $-1 #
edge $-1 $143 $144 $84 $145 forward #
coedge $-1 $90 $89 $85 $116 0 $13 $-1 #
edge $-1 $143 $121 $115 $146 forward #
coedge $-1 $96 $104 $86 $118 0 $53 $-1 #
edge $-1 $122 $144 $117 $147 forward #
coedge $-1 $148 $87 $104 $138 1 $82 $-1 #
coedge $-1 $87 $148 $90 $125 1 $82 $-1 #
vertex $-1 $125 $149 #
vertex $-1 $88 $150 #
straight-curve $-1 -1050 50 0 0 0 -1 I I #
edge $-1 $101 $143 $89 $151 forward #
edge $-1 $121 $129 $120 $152 forward #
coedge $-1 $105 $91 $148 $153 0 $128 $-1 #
coedge $-1 $91 $105 $93 $131 1 $128 $-1 #
loop $-1 $-1 $126 $109 #
vertex $-1 $125 $154 #
straight-curve $-1 0 -250 5 1 0 0 I I #
edge $-1 $94 $107 $93 $155 forward #
point $-1 1050 -250 5 #
edge $-1 $144 $99 $96 $156 forward #
straight-curve $-1 -750 250 0 0 0 1 I I #
point $-1 -750 250 -5 #
point $-1 -750 250 5 #
plane-surface $-1 1050 0 0 -1 0 0 0 -0 1 forward_v I I I I #
edge $-1 $139 $122 $119 $157 forward #
vertex $-1 $138 $158 #
straight-curve $-1 0 -250 -5 -1 0 0 I I #
point $-1 1050 -250 -5 #
plane-surface $-1 0 -250 0 0 1 -0 -0 0 1 forward_v I I I I #
vertex $-1 $116 $159 #
vertex $-1 $118 $160 #
straight-curve $-1 -750 50 0 0 0 -1 I I #
straight-curve $-1 -450 50 5 -1 0 0 I I #
straight-curve $-1 -450 50 -5 1 0 0 I I #
coedge $-1 $120 $119 $126 $153 1 $82 $-1 #
point $-1 -1050 50 5 #
point $-1 -1050 50 -5 #
straight-curve $-1 -750 75 5 0 -1 0 I I #
straight-curve $-1 -1050 0 5 0 -1 0 I I #
edge $-1 $129 $139 $148 $161 forward #
point $-1 -1050 -250 5 #
straight-curve $-1 1050 -250 0 0 0 -1 I I #
straight-curve $-1 -750 75 -5 0 1 -0 I I #
straight-curve $-1 -1050 0 -5 0 1 0 I I #
point $-1 -1050 -250 -5 #
point $-1 -750 50 5 #
point $-1 -750 50 -5 #
straight-curve $-1 -1050 -250 0 0 0 -1 I I #
End-of-ACIS-data 