106 0 1 0           
body $1 $2 $-1 $3 #
display_attribute-st-attrib $-1 $4 $-1 $0 1 #
lump $-1 $-1 $5 $0 #
transform $-1 1 0 0 0 1 0 0 0 1 0 0 -5 1 0 0 0 #
id_attribute-st-attrib $-1 $-1 $1 $0 1 #
shell $-1 $-1 $-1 $6 $2 #
face $-1 $7 $8 $5 $-1 $9 forward single #
face $-1 $10 $11 $5 $-1 $12 forward single #
loop $-1 $-1 $13 $6 #
plane-surface $-1 900 50 0 0 1 0 0 0 1 0 I I I I #
face $-1 $14 $15 $5 $-1 $16 forward single #
loop $-1 $-1 $17 $7 #
plane-surface $-1 750 150 0 1 0 0 0 0 -1 0 I I I I #
coedge $-1 $18 $19 $20 $21 1 $8 $-1 #
face $-1 $22 $23 $5 $-1 $24 reversed single #
loop $-1 $-1 $25 $10 #
plane-surface $-1 0 0 5 0 0 1 1 0 0 0 I I I I #
coedge $-1 $26 $27 $28 $29 1 $11 $-1 #
coedge $-1 $30 $13 $25 $31 1 $8 $-1 #
coedge $-1 $13 $30 $32 $33 1 $8 $-1 #
coedge $-1 $27 $26 $13 $21 0 $11 $-1 #
edge $-1 $34 $35 $20 $36 0 #
face $-1 $37 $38 $5 $-1 $39 forward single #
loop $-1 $-1 $28 $14 #
plane-surface $-1 0 250 0 0 -1 0 0 0 -1 0 I I I I #
coedge $-1 $40 $41 $18 $31 0 $15 $-1 #
coedge $-1 $20 $17 $40 $42 1 $11 $-1 #
coedge $-1 $17 $20 $43 $44 1 $11 $-1 #
coedge $-1 $45 $46 $17 $29 0 $23 $-1 #
edge $-1 $47 $48 $28 $49 0 #
coedge $-1 $19 $18 $50 $51 1 $8 $-1 #
edge $-1 $52 $34 $25 $53 0 #
coedge $-1 $54 $43 $19 $33 0 $55 $-1 #
edge $-1 $35 $56 $32 $57 0 #
vertex $-1 $31 $58 #
vertex $-1 $33 $59 #
straight-curve $-1 750 50 0 0 0 -1 I I #
face $-1 $60 $61 $5 $-1 $62 forward single #
loop $-1 $-1 $63 $22 #
plane-surface $-1 -900 50 0 0 1 0 0 0 1 0 I I I I #
coedge $-1 $64 $25 $26 $42 0 $15 $-1 #
coedge $-1 $25 $65 $66 $67 0 $15 $-1 #
edge $-1 $34 $47 $40 $68 0 #
coedge $-1 $32 $69 $27 $44 0 $55 $-1 #
edge $-1 $48 $35 $43 $70 0 #
coedge $-1 $71 $28 $69 $72 1 $23 $-1 #
coedge $-1 $28 $71 $64 $73 1 $23 $-1 #
vertex $-1 $73 $74 #
vertex $-1 $29 $75 #
straight-curve $-1 750 250 0 0 0 -1 I I #
coedge $-1 $66 $76 $30 $51 0 $77 $-1 #
edge $-1 $56 $52 $50 $78 0 #
vertex $-1 $51 $79 #
straight-curve $-1 450 50 5 -1 0 0 I I #
coedge $-1 $80 $32 $76 $81 0 $55 $-1 #
loop $-1 $-1 $32 $82 #
vertex $-1 $81 $83 #
straight-curve $-1 450 50 -5 1 0 0 I I #
point $-1 750 50 5 #
point $-1 750 50 -5 #
face $-1 $82 $84 $5 $-1 $85 reversed single #
loop $-1 $-1 $86 $37 #
plane-surface $-1 -750 150 0 -1 0 0 0 0 1 0 I I I I #
coedge $-1 $87 $88 $89 $90 1 $38 $-1 #
coedge $-1 $91 $40 $46 $73 0 $15 $-1 #
coedge $-1 $41 $92 $93 $94 0 $15 $-1 #
coedge $-1 $95 $50 $41 $67 1 $77 $-1 #
edge $-1 $96 $52 $66 $97 0 #
straight-curve $-1 750 75 5 0 1 0 I I #
coedge $-1 $43 $98 $45 $72 0 $55 $-1 #
straight-curve $-1 750 75 -5 0 -1 0 I I #
coedge $-1 $46 $45 $99 $100 0 $23 $-1 #
edge $-1 $101 $48 $45 $102 0 #
edge $-1 $47 $103 $46 $104 0 #
point $-1 750 250 5 #
point $-1 750 250 -5 #
coedge $-1 $50 $95 $54 $81 1 $77 $-1 #
loop $-1 $-1 $50 $105 #
straight-curve $-1 1050 50 0 0 -0 1 I I #
point $-1 1050 50 5 #
coedge $-1 $106 $54 $107 $108 0 $55 $-1 #
edge $-1 $56 $109 $76 $110 0 #
face $-1 $111 $55 $5 $-1 $112 reversed single #
point $-1 1050 50 -5 #
loop $-1 $-1 $89 $60 #
plane-surface $-1 -1050 0 0 1 0 0 0 0 -1 0 I I I I #
coedge $-1 $113 $114 $115 $116 1 $61 $-1 #
coedge $-1 $115 $63 $117 $118 1 $38 $-1 #
coedge $-1 $63 $115 $119 $120 1 $38 $-1 #
coedge $-1 $121 $122 $63 $90 0 $84 $-1 #
edge $-1 $123 $124 $89 $125 0 #
coedge $-1 $117 $64 $113 $126 0 $15 $-1 #
coedge $-1 $65 $117 $122 $127 0 $15 $-1 #
coedge $-1 $128 $129 $65 $94 1 $130 $-1 #
edge $-1 $131 $96 $93 $132 0 #
coedge $-1 $76 $66 $129 $133 0 $77 $-1 #
vertex $-1 $67 $134 #
straight-curve $-1 1050 0 5 0 1 0 I I #
coedge $-1 $69 $119 $114 $135 0 $55 $-1 #
coedge $-1 $114 $113 $71 $100 1 $61 $-1 #
edge $-1 $101 $103 $71 $136 0 #
vertex $-1 $72 $137 #
straight-curve $-1 0 250 -5 1 0 0 I I #
vertex $-1 $100 $138 #
straight-curve $-1 0 250 5 -1 0 0 I I #
face $-1 $-1 $77 $5 $-1 $139 reversed single #
coedge $-1 $119 $80 $121 $140 0 $55 $-1 #
coedge $-1 $129 $128 $80 $108 1 $130 $-1 #
edge $-1 $109 $141 $107 $142 0 #
vertex $-1 $133 $143 #
straight-curve $-1 1050 0 -5 0 -1 0 I I #
face $-1 $105 $130 $5 $-1 $144 reversed single #
plane-surface $-1 0 0 -5 0 0 1 1 0 0 0 I I I I #
coedge $-1 $99 $86 $91 $126 1 $61 $-1 #
coedge $-1 $86 $99 $98 $135 1 $61 $-1 #
coedge $-1 $88 $87 $86 $116 0 $38 $-1 #
edge $-1 $145 $146 $86 $147 0 #
coedge $-1 $92 $91 $87 $118 0 $15 $-1 #
edge $-1 $145 $123 $117 $148 0 #
coedge $-1 $98 $106 $88 $120 0 $55 $-1 #
edge $-1 $124 $146 $119 $149 0 #
coedge $-1 $150 $89 $106 $140 1 $84 $-1 #
coedge $-1 $89 $150 $92 $127 1 $84 $-1 #
vertex $-1 $127 $151 #
vertex $-1 $90 $152 #
straight-curve $-1 -1050 50 0 0 0 -1 I I #
edge $-1 $103 $145 $91 $153 0 #
edge $-1 $123 $131 $122 $154 0 #
coedge $-1 $107 $93 $150 $155 0 $130 $-1 #
coedge $-1 $93 $107 $95 $133 1 $130 $-1 #
loop $-1 $-1 $128 $111 #
vertex $-1 $127 $156 #
straight-curve $-1 0 -250 5 1 0 0 I I #
edge $-1 $96 $109 $95 $157 0 #
point $-1 1050 -250 5 #
edge $-1 $146 $101 $98 $158 0 #
straight-curve $-1 -750 250 0 0 0 1 I I #
point $-1 -750 250 -5 #
point $-1 -750 250 5 #
plane-surface $-1 1050 0 0 -1 0 0 0 -0 1 0 I I I I #
edge $-1 $141 $124 $121 $159 0 #
vertex $-1 $140 $160 #
straight-curve $-1 0 -250 -5 -1 0 0 I I #
point $-1 1050 -250 -5 #
plane-surface $-1 0 -250 0 0 1 -0 -0 0 1 0 I I I I #
vertex $-1 $118 $161 #
vertex $-1 $120 $162 #
straight-curve $-1 -750 50 0 0 0 -1 I I #
straight-curve $-1 -450 50 5 -1 0 0 I I #
straight-curve $-1 -450 50 -5 1 0 0 I I #
coedge $-1 $122 $121 $128 $155 1 $84 $-1 #
point $-1 -1050 50 5 #
point $-1 -1050 50 -5 #
straight-curve $-1 -750 75 5 0 -1 0 I I #
straight-curve $-1 -1050 0 5 0 -1 0 I I #
edge $-1 $131 $141 $150 $163 0 #
point $-1 -1050 -250 5 #
straight-curve $-1 1050 -250 0 0 0 -1 I I #
straight-curve $-1 -750 75 -5 0 1 -0 I I #
straight-curve $-1 -1050 0 -5 0 1 0 I I #
point $-1 -1050 -250 -5 #
point $-1 -750 50 5 #
point $-1 -750 50 -5 #
straight-curve $-1 -1050 -250 0 0 0 -1 I I #
End-of-ACIS-data 