600 0 1 0           
75 GICL ACIS Healer - Source: /gicl/data5/repository/CMU/Tools/table.sat - 6 0 18 ACIS 6.0.3 Solaris 24 Sat Apr 13 00:32:50 2002 
1 9.999999999999999547e-07 1.000000000000000036e-10 
body $-1 $1 $-1 $-1 #
lump $-1 $-1 $2 $0 #
shell $-1 $-1 $-1 $3 $-1 $1 #
face $-1 $4 $5 $2 $-1 $6 forward single #
face $-1 $7 $8 $2 $-1 $9 forward single #
loop $-1 $-1 $10 $3 #
plane-surface $-1 900 50 -5 0 1 0 0 0 1 forward_v I I I I #
face $-1 $11 $12 $2 $-1 $13 forward single #
loop $-1 $-1 $14 $4 #
plane-surface $-1 750 150 -5 1 0 0 0 0 -1 forward_v I I I I #
coedge $-1 $15 $16 $17 $18 reversed $5 $-1 #
face $-1 $19 $20 $2 $-1 $21 reversed single #
loop $-1 $-1 $22 $7 #
plane-surface $-1 0 0 0 0 0 1 1 0 0 forward_v I I I I #
coedge $-1 $23 $24 $25 $26 reversed $8 $-1 #
coedge $-1 $27 $10 $22 $28 reversed $5 $-1 #
coedge $-1 $10 $27 $29 $30 reversed $5 $-1 #
coedge $-1 $24 $23 $10 $18 forward $8 $-1 #
edge $-1 $31 -5 $32 5 $17 $33 forward 7 unknown #
face $-1 $34 $35 $2 $-1 $36 forward single #
loop $-1 $-1 $25 $11 #
plane-surface $-1 0 250 -5 0 -1 0 0 0 -1 forward_v I I I I #
coedge $-1 $37 $38 $15 $28 forward $12 $-1 #
coedge $-1 $17 $14 $37 $39 reversed $8 $-1 #
coedge $-1 $14 $17 $40 $41 reversed $8 $-1 #
coedge $-1 $42 $43 $14 $26 forward $20 $-1 #
edge $-1 $44 -5 $45 5 $25 $46 forward 7 unknown #
coedge $-1 $16 $15 $47 $48 reversed $5 $-1 #
edge $-1 $49 -600 $31 -300 $22 $50 forward 7 unknown #
coedge $-1 $51 $40 $16 $30 forward $52 $-1 #
edge $-1 $32 300 $53 600 $29 $54 forward 7 unknown #
vertex $-1 $28 $55 #
vertex $-1 $30 $56 #
straight-curve $-1 750 50 -5 0 0 -1 I I #
face $-1 $57 $58 $2 $-1 $59 forward single #
loop $-1 $-1 $60 $19 #
plane-surface $-1 -900 50 -5 0 1 0 0 0 1 forward_v I I I I #
coedge $-1 $61 $22 $23 $39 forward $12 $-1 #
coedge $-1 $22 $62 $63 $64 forward $12 $-1 #
edge $-1 $31 -25 $44 175 $37 $65 forward 7 unknown #
coedge $-1 $29 $66 $24 $41 forward $52 $-1 #
edge $-1 $45 -175 $32 25 $40 $67 forward 7 unknown #
coedge $-1 $68 $25 $66 $69 reversed $20 $-1 #
coedge $-1 $25 $68 $61 $70 reversed $20 $-1 #
vertex $-1 $70 $71 #
vertex $-1 $26 $72 #
straight-curve $-1 750 250 -5 0 0 -1 I I #
coedge $-1 $63 $73 $27 $48 forward $74 $-1 #
edge $-1 $53 -5 $49 5 $47 $75 forward 7 unknown #
vertex $-1 $48 $76 #
straight-curve $-1 450 50 0 -1 0 0 I I #
coedge $-1 $77 $29 $73 $78 forward $52 $-1 #
loop $-1 $-1 $29 $79 #
vertex $-1 $78 $80 #
straight-curve $-1 450 50 -10 1 0 0 I I #
point $-1 750 50 0 #
point $-1 750 50 -10 #
face $-1 $79 $81 $2 $-1 $82 reversed single #
loop $-1 $-1 $83 $34 #
plane-surface $-1 -750 150 -5 -1 0 0 0 0 1 forward_v I I I I #
coedge $-1 $84 $85 $86 $87 reversed $35 $-1 #
coedge $-1 $88 $37 $43 $70 forward $12 $-1 #
coedge $-1 $38 $89 $90 $91 forward $12 $-1 #
coedge $-1 $92 $47 $38 $64 reversed $74 $-1 #
edge $-1 $93 -250 $49 50 $63 $94 forward 7 unknown #
straight-curve $-1 750 75 0 0 1 0 I I #
coedge $-1 $40 $95 $42 $69 forward $52 $-1 #
straight-curve $-1 750 75 -10 0 -1 0 I I #
coedge $-1 $43 $42 $96 $97 forward $20 $-1 #
edge $-1 $98 -750 $45 750 $42 $99 forward 7 unknown #
edge $-1 $44 -750 $100 750 $43 $101 forward 7 unknown #
point $-1 750 250 0 #
point $-1 750 250 -10 #
coedge $-1 $47 $92 $51 $78 reversed $74 $-1 #
loop $-1 $-1 $47 $102 #
straight-curve $-1 1050 50 -5 0 0 1 I I #
point $-1 1050 50 0 #
coedge $-1 $103 $51 $104 $105 forward $52 $-1 #
edge $-1 $53 -50 $106 250 $73 $107 forward 7 unknown #
face $-1 $108 $52 $2 $-1 $109 reversed single #
point $-1 1050 50 -10 #
loop $-1 $-1 $86 $57 #
plane-surface $-1 -1050 0 -5 1 0 0 0 0 -1 forward_v I I I I #
coedge $-1 $110 $111 $112 $113 reversed $58 $-1 #
coedge $-1 $112 $60 $114 $115 reversed $35 $-1 #
coedge $-1 $60 $112 $116 $117 reversed $35 $-1 #
coedge $-1 $118 $119 $60 $87 forward $81 $-1 #
edge $-1 $120 -5 $121 5 $86 $122 forward 7 unknown #
coedge $-1 $114 $61 $110 $123 forward $12 $-1 #
coedge $-1 $62 $114 $119 $124 forward $12 $-1 #
coedge $-1 $125 $126 $62 $91 reversed $127 $-1 #
edge $-1 $128 -1050 $93 1050 $90 $129 forward 7 unknown #
coedge $-1 $73 $63 $126 $130 forward $74 $-1 #
vertex $-1 $64 $131 #
straight-curve $-1 1050 0 0 0 1 0 I I #
coedge $-1 $66 $116 $111 $132 forward $52 $-1 #
coedge $-1 $111 $110 $68 $97 reversed $58 $-1 #
edge $-1 $98 -5 $100 5 $68 $133 forward 7 unknown #
vertex $-1 $69 $134 #
straight-curve $-1 0 250 -10 1 0 0 I I #
vertex $-1 $97 $135 #
straight-curve $-1 0 250 0 -1 0 0 I I #
face $-1 $-1 $74 $2 $-1 $136 reversed single #
coedge $-1 $116 $77 $118 $137 forward $52 $-1 #
coedge $-1 $126 $125 $77 $105 reversed $127 $-1 #
edge $-1 $106 -1050 $138 1050 $104 $139 forward 7 unknown #
vertex $-1 $130 $140 #
straight-curve $-1 1050 0 -10 0 -1 0 I I #
face $-1 $102 $127 $2 $-1 $141 reversed single #
plane-surface $-1 0 0 -10 0 0 1 1 0 0 forward_v I I I I #
coedge $-1 $96 $83 $88 $123 reversed $58 $-1 #
coedge $-1 $83 $96 $95 $132 reversed $58 $-1 #
coedge $-1 $85 $84 $83 $113 forward $35 $-1 #
edge $-1 $142 -5 $143 5 $83 $144 forward 7 unknown #
coedge $-1 $89 $88 $84 $115 forward $12 $-1 #
edge $-1 $142 300 $120 600 $114 $145 forward 7 unknown #
coedge $-1 $95 $103 $85 $117 forward $52 $-1 #
edge $-1 $121 -600 $143 -300 $116 $146 forward 7 unknown #
coedge $-1 $147 $86 $103 $137 reversed $81 $-1 #
coedge $-1 $86 $147 $89 $124 reversed $81 $-1 #
vertex $-1 $124 $148 #
vertex $-1 $87 $149 #
straight-curve $-1 -1050 50 -5 0 0 -1 I I #
edge $-1 $100 -175 $142 25 $88 $150 forward 7 unknown #
edge $-1 $120 -50 $128 250 $119 $151 forward 7 unknown #
coedge $-1 $104 $90 $147 $152 forward $127 $-1 #
coedge $-1 $90 $104 $92 $130 reversed $127 $-1 #
loop $-1 $-1 $125 $108 #
vertex $-1 $124 $153 #
straight-curve $-1 0 -250 0 1 0 0 I I #
edge $-1 $93 -5 $106 5 $92 $154 forward 7 unknown #
point $-1 1050 -250 0 #
edge $-1 $143 -25 $98 175 $95 $155 forward 7 unknown #
straight-curve $-1 -750 250 -5 0 0 1 I I #
point $-1 -750 250 -10 #
point $-1 -750 250 0 #
plane-surface $-1 1050 0 -5 -1 0 0 0 0 1 forward_v I I I I #
edge $-1 $138 -250 $121 50 $118 $156 forward 7 unknown #
vertex $-1 $137 $157 #
straight-curve $-1 0 -250 -10 -1 0 0 I I #
point $-1 1050 -250 -10 #
plane-surface $-1 0 -250 -5 0 1 0 0 0 1 forward_v I I I I #
vertex $-1 $115 $158 #
vertex $-1 $117 $159 #
straight-curve $-1 -750 50 -5 0 0 -1 I I #
straight-curve $-1 -450 50 0 -1 0 0 I I #
straight-curve $-1 -450 50 -10 1 0 0 I I #
coedge $-1 $119 $118 $125 $152 reversed $81 $-1 #
point $-1 -1050 50 0 #
point $-1 -1050 50 -10 #
straight-curve $-1 -750 75 0 0 -1 0 I I #
straight-curve $-1 -1050 0 0 0 -1 0 I I #
edge $-1 $128 -5 $138 5 $147 $160 forward 7 unknown #
point $-1 -1050 -250 0 #
straight-curve $-1 1050 -250 -5 0 0 -1 I I #
straight-curve $-1 -750 75 -10 0 1 0 I I #
straight-curve $-1 -1050 0 -10 0 1 0 I I #
point $-1 -1050 -250 -10 #
point $-1 -750 50 0 #
point $-1 -750 50 -10 #
straight-curve $-1 -1050 -250 -5 0 0 -1 I I #
End-of-ACIS-data 