700 0 2 0           
24 FBMach with ACIS - 7.0.3 13 ACIS 7.0.3 NT 24 Mon May 13 17:17:09 2002 
1 9.9999999999999995e-007 1e-010 
body $2 -1 $-1 $3 $-1 $4 #
bdycol-kcp $-1 -1 1 6 $5 $6 $7 $8 $9 $10 #
model_id-kcp-attrib $-1 -1 $11 $-1 $0 1 1021324628 1021324629 -935723007 1 #
lump $-1 -1 $-1 $-1 $12 $0 #
transform $-1 -1 1 0 0 0 1 0 0 0 1 0 0 0 1 rotate no_reflect no_shear #
body $13 -1 $-1 $14 $-1 $15 #
body $16 -1 $-1 $17 $-1 $18 #
body $19 -1 $-1 $20 $-1 $21 #
body $22 -1 $-1 $23 $-1 $24 #
body $25 -1 $-1 $26 $-1 $27 #
body $28 -1 $-1 $29 $-1 $30 #
rgb_color-st-attrib $-1 -1 $-1 $2 $0 0 1 0 #
shell $-1 -1 $-1 $-1 $-1 $31 $-1 $3 #
rgb_color-st-attrib $-1 -1 $32 $-1 $5 0.5 1 1 #
lump $-1 -1 $-1 $-1 $33 $5 #
transform $-1 -1 1 0 0 0 1 0 0 0 1 0 0 0 1 no_rotate no_reflect no_shear #
rgb_color-st-attrib $-1 -1 $34 $-1 $6 0.5 1 1 #
lump $-1 -1 $-1 $-1 $35 $6 #
transform $-1 -1 1 0 0 0 1 0 0 0 1 0 0 0 1 no_rotate no_reflect no_shear #
model_id-kcp-attrib $-1 -1 $-1 $-1 $7 1 1021324628 1021324629 -935723006 1 #
lump $-1 -1 $-1 $-1 $36 $7 #
transform $-1 -1 1 0 0 0 1 0 0 0 1 0 0 255 1 no_rotate no_reflect no_shear #
rgb_color-st-attrib $-1 -1 $37 $-1 $8 0.5 1 1 #
lump $-1 -1 $-1 $-1 $38 $8 #
transform $-1 -1 1 0 0 0 1 0 0 0 1 0 0 0 1 no_rotate no_reflect no_shear #
rgb_color-st-attrib $-1 -1 $39 $-1 $9 0.5 1 1 #
lump $-1 -1 $-1 $-1 $40 $9 #
transform $-1 -1 1 0 0 0 1 0 0 0 1 0 0 0 1 no_rotate no_reflect no_shear #
rgb_color-st-attrib $-1 -1 $41 $-1 $10 0.5 1 1 #
lump $-1 -1 $-1 $-1 $42 $10 #
transform $-1 -1 1 0 0 0 1 0 0 0 1 0 0 0 1 no_rotate no_reflect no_shear #
face $43 -1 $-1 $44 $45 $12 $-1 $46 reversed single #
model_id-kcp-attrib $-1 -1 $-1 $13 $5 1 1021324628 1021324629 -938737661 1 #
shell $-1 -1 $-1 $-1 $-1 $47 $-1 $14 #
model_id-kcp-attrib $-1 -1 $-1 $16 $6 1 1021324628 1021324629 -936771580 1 #
shell $-1 -1 $-1 $-1 $-1 $48 $-1 $17 #
shell $-1 -1 $-1 $-1 $-1 $49 $-1 $20 #
model_id-kcp-attrib $-1 -1 $-1 $22 $8 1 1021324628 1021324629 -935460859 1 #
shell $-1 -1 $-1 $-1 $-1 $50 $-1 $23 #
model_id-kcp-attrib $-1 -1 $-1 $25 $9 1 1021324628 1021324629 -934150138 1 #
shell $-1 -1 $-1 $-1 $-1 $51 $-1 $26 #
model_id-kcp-attrib $-1 -1 $-1 $28 $10 1 1021324628 1021324629 -932839417 1 #
shell $-1 -1 $-1 $-1 $-1 $52 $-1 $29 #
model_id-kcp-attrib $-1 -1 $-1 $-1 $31 1 1021324628 1021324629 -935723007 2 #
face $53 -1 $-1 $54 $55 $12 $-1 $46 reversed single #
loop $-1 -1 $-1 $-1 $56 $31 #
plane-surface $-1 -1 $-1 145 0 255 1 0 0 0 0 -1 forward_v I I I I #
face $-1 -1 $-1 $57 $58 $33 $-1 $59 forward single #
face $-1 -1 $-1 $60 $61 $35 $-1 $62 forward single #
face $63 -1 $-1 $64 $65 $36 $-1 $66 forward single #
face $-1 -1 $-1 $67 $68 $38 $-1 $69 forward single #
face $-1 -1 $-1 $70 $71 $40 $-1 $72 forward single #
face $-1 -1 $-1 $73 $74 $42 $-1 $75 forward single #
model_id-kcp-attrib $-1 -1 $-1 $-1 $44 1 1021324628 1021324629 -935723007 3 #
face $76 -1 $-1 $77 $78 $12 $-1 $46 reversed single #
loop $-1 -1 $-1 $-1 $79 $44 #
coedge $-1 -1 $-1 $80 $81 $82 $83 reversed $45 $-1 #
face $-1 -1 $-1 $84 $85 $33 $-1 $86 forward single #
loop $-1 -1 $-1 $-1 $87 $47 #
plane-surface $-1 -1 $-1 145 150 500 1 0 0 0 0 -1 forward_v I I I I #
face $-1 -1 $-1 $88 $89 $35 $-1 $90 forward single #
loop $-1 -1 $-1 $-1 $91 $48 #
plane-surface $-1 -1 $-1 145 150 400 1 0 0 0 0 -1 forward_v I I I I #
model_id-kcp-attrib $-1 -1 $-1 $-1 $49 1 1021324628 1021324629 -935723006 6 #
face $92 -1 $-1 $93 $94 $36 $-1 $95 reversed single #
loop $-1 -1 $-1 $-1 $96 $49 #
plane-surface $-1 -1 $-1 0 0 255 0 0 1 1 0 0 forward_v I I I I #
face $-1 -1 $-1 $97 $98 $38 $-1 $99 forward single #
loop $-1 -1 $-1 $-1 $100 $50 #
plane-surface $-1 -1 $-1 145 150 300 1 0 0 0 0 -1 forward_v I I I I #
face $-1 -1 $-1 $101 $102 $40 $-1 $103 forward single #
loop $-1 -1 $-1 $-1 $104 $51 #
plane-surface $-1 -1 $-1 145 150 200 1 0 0 0 0 -1 forward_v I I I I #
face $-1 -1 $-1 $105 $106 $42 $-1 $107 forward single #
loop $-1 -1 $-1 $-1 $108 $52 #
plane-surface $-1 -1 $-1 145 150 100 1 0 0 0 0 -1 forward_v I I I I #
model_id-kcp-attrib $-1 -1 $-1 $-1 $54 1 1021324628 1021324629 -935723007 4 #
face $109 -1 $-1 $110 $111 $12 $-1 $46 reversed single #
loop $-1 -1 $-1 $-1 $112 $54 #
coedge $-1 -1 $-1 $113 $114 $115 $116 reversed $55 $-1 #
coedge $-1 -1 $-1 $117 $56 $118 $119 forward $45 $-1 #
coedge $-1 -1 $-1 $56 $117 $120 $121 reversed $45 $-1 #
coedge $-1 -1 $-1 $122 $123 $56 $83 forward $124 $-1 #
edge $-1 -1 $-1 $125 -150 $126 150 $82 $127 forward @7 unknown #
face $-1 -1 $-1 $128 $129 $33 $-1 $130 forward single #
loop $-1 -1 $-1 $-1 $131 $57 #
plane-surface $-1 -1 $-1 145 150 410 0 0 -1 -1 0 0 forward_v I I I I #
coedge $-1 -1 $-1 $132 $133 $134 $135 forward $58 $-1 #
face $-1 -1 $-1 $136 $137 $35 $-1 $138 forward single #
loop $-1 -1 $-1 $-1 $139 $60 #
plane-surface $-1 -1 $-1 145 150 310 0 0 -1 -1 0 0 forward_v I I I I #
coedge $-1 -1 $-1 $140 $141 $142 $143 forward $61 $-1 #
model_id-kcp-attrib $-1 -1 $-1 $-1 $64 1 1021324628 1021324629 -935723006 3 #
face $144 -1 $-1 $145 $146 $36 $-1 $147 reversed single #
loop $-1 -1 $-1 $-1 $148 $64 #
plane-surface $-1 -1 $-1 0 0 -255 0 0 1 1 0 0 forward_v I I I I #
coedge $-1 -1 $-1 $149 $150 $151 $152 forward $65 $-1 #
face $-1 -1 $-1 $153 $154 $38 $-1 $155 forward single #
loop $-1 -1 $-1 $-1 $156 $67 #
plane-surface $-1 -1 $-1 145 150 210 0 0 -1 -1 0 0 forward_v I I I I #
coedge $-1 -1 $-1 $157 $158 $159 $160 forward $68 $-1 #
face $-1 -1 $-1 $161 $162 $40 $-1 $163 forward single #
loop $-1 -1 $-1 $-1 $164 $70 #
plane-surface $-1 -1 $-1 145 150 110 0 0 -1 -1 0 0 forward_v I I I I #
coedge $-1 -1 $-1 $165 $166 $167 $168 forward $71 $-1 #
face $-1 -1 $-1 $169 $170 $42 $-1 $171 forward single #
loop $-1 -1 $-1 $-1 $172 $73 #
plane-surface $-1 -1 $-1 145 150 10 0 0 -1 -1 0 0 forward_v I I I I #
coedge $-1 -1 $-1 $173 $174 $175 $176 forward $74 $-1 #
model_id-kcp-attrib $-1 -1 $-1 $-1 $77 1 1021324628 1021324629 -935723007 5 #
face $177 -1 $-1 $178 $179 $12 $-1 $46 reversed single #
loop $-1 -1 $-1 $-1 $180 $77 #
coedge $-1 -1 $-1 $181 $182 $183 $184 reversed $78 $-1 #
coedge $-1 -1 $-1 $185 $79 $186 $187 forward $55 $-1 #
coedge $-1 -1 $-1 $79 $185 $188 $189 reversed $55 $-1 #
coedge $-1 -1 $-1 $190 $191 $79 $116 forward $192 $-1 #
edge $-1 -1 $-1 $193 -150 $194 150 $115 $195 forward @7 unknown #
coedge $-1 -1 $-1 $81 $80 $196 $197 reversed $45 $-1 #
coedge $-1 -1 $-1 $198 $199 $80 $119 reversed $200 $-1 #
edge $201 -1 $-1 $125 155 $202 245 $118 $203 forward @7 unknown #
coedge $-1 -1 $-1 $204 $205 $81 $121 forward $206 $-1 #
edge $-1 -1 $-1 $126 155 $207 245 $81 $208 forward @7 unknown #
coedge $-1 -1 $-1 $209 $82 $205 $210 forward $124 $-1 #
coedge $-1 -1 $-1 $82 $209 $198 $211 forward $124 $-1 #
loop $-1 -1 $-1 $-1 $82 $212 #
vertex $-1 -1 $-1 $211 $213 #
vertex $-1 -1 $-1 $210 $214 #
straight-curve $-1 -1 $-1 145 0 100 0 -1 0 I I #
face $-1 -1 $-1 $215 $216 $33 $-1 $217 forward single #
loop $-1 -1 $-1 $-1 $218 $84 #
plane-surface $-1 -1 $-1 -145 150 410 -1 0 0 0 0 1 forward_v I I I I #
coedge $-1 -1 $-1 $219 $220 $221 $222 forward $85 $-1 #
coedge $-1 -1 $-1 $223 $87 $220 $224 reversed $58 $-1 #
coedge $-1 -1 $-1 $87 $223 $225 $226 forward $58 $-1 #
coedge $-1 -1 $-1 $227 $221 $87 $135 reversed $228 $-1 #
edge $-1 -1 $-1 $229 -245 $230 -155 $87 $231 forward @7 unknown #
face $-1 -1 $-1 $232 $233 $35 $-1 $234 forward single #
loop $-1 -1 $-1 $-1 $235 $88 #
plane-surface $-1 -1 $-1 -145 150 310 -1 0 0 0 0 1 forward_v I I I I #
coedge $-1 -1 $-1 $236 $237 $238 $239 forward $89 $-1 #
coedge $-1 -1 $-1 $240 $91 $237 $241 reversed $61 $-1 #
coedge $-1 -1 $-1 $91 $240 $242 $243 forward $61 $-1 #
coedge $-1 -1 $-1 $244 $238 $91 $143 reversed $245 $-1 #
edge $-1 -1 $-1 $246 -145 $247 -55 $91 $248 forward @7 unknown #
model_id-kcp-attrib $-1 -1 $-1 $-1 $93 1 1021324628 1021324629 -935723006 7 #
face $249 -1 $-1 $250 $251 $36 $-1 $252 reversed single #
loop $-1 -1 $-1 $-1 $253 $93 #
plane-surface $-1 -1 $-1 0 -150 0 0 1 0 0 0 1 forward_v I I I I #
coedge $-1 -1 $-1 $254 $255 $256 $257 forward $94 $-1 #
coedge $-1 -1 $-1 $258 $96 $259 $260 forward $65 $-1 #
coedge $-1 -1 $-1 $96 $258 $261 $262 forward $65 $-1 #
coedge $-1 -1 $-1 $263 $264 $96 $152 reversed $265 $-1 #
edge $-1 -1 $-1 $266 -150 $267 150 $151 $268 forward @7 unknown #
face $-1 -1 $-1 $269 $270 $38 $-1 $271 forward single #
loop $-1 -1 $-1 $-1 $272 $97 #
plane-surface $-1 -1 $-1 -145 150 210 -1 0 0 0 0 1 forward_v I I I I #
coedge $-1 -1 $-1 $273 $274 $275 $276 forward $98 $-1 #
coedge $-1 -1 $-1 $277 $100 $274 $278 reversed $68 $-1 #
coedge $-1 -1 $-1 $100 $277 $279 $280 forward $68 $-1 #
coedge $-1 -1 $-1 $281 $275 $100 $160 reversed $282 $-1 #
edge $-1 -1 $-1 $283 -45 $284 45 $100 $285 forward @7 unknown #
face $-1 -1 $-1 $286 $287 $40 $-1 $288 forward single #
loop $-1 -1 $-1 $-1 $289 $101 #
plane-surface $-1 -1 $-1 -145 150 110 -1 0 0 0 0 1 forward_v I I I I #
coedge $-1 -1 $-1 $290 $291 $292 $293 forward $102 $-1 #
coedge $-1 -1 $-1 $294 $104 $291 $295 reversed $71 $-1 #
coedge $-1 -1 $-1 $104 $294 $296 $297 forward $71 $-1 #
coedge $-1 -1 $-1 $298 $292 $104 $168 reversed $299 $-1 #
edge $-1 -1 $-1 $300 55 $301 145 $104 $302 forward @7 unknown #
face $-1 -1 $-1 $303 $304 $42 $-1 $305 forward single #
loop $-1 -1 $-1 $-1 $306 $105 #
plane-surface $-1 -1 $-1 -145 150 10 -1 0 0 0 0 1 forward_v I I I I #
coedge $-1 -1 $-1 $307 $308 $309 $310 forward $106 $-1 #
coedge $-1 -1 $-1 $311 $108 $308 $312 reversed $74 $-1 #
coedge $-1 -1 $-1 $108 $311 $313 $314 forward $74 $-1 #
coedge $-1 -1 $-1 $315 $309 $108 $176 reversed $316 $-1 #
edge $-1 -1 $-1 $317 155 $318 245 $108 $319 forward @7 unknown #
model_id-kcp-attrib $-1 -1 $-1 $-1 $110 1 1021324628 1021324629 -935723007 6 #
face $320 -1 $-1 $321 $322 $12 $-1 $323 reversed single #
loop $-1 -1 $-1 $-1 $324 $110 #
coedge $-1 -1 $-1 $325 $326 $327 $328 reversed $111 $-1 #
coedge $-1 -1 $-1 $329 $112 $330 $331 forward $78 $-1 #
coedge $-1 -1 $-1 $112 $329 $332 $333 reversed $78 $-1 #
coedge $-1 -1 $-1 $334 $335 $112 $184 forward $336 $-1 #
edge $-1 -1 $-1 $337 -150 $338 150 $183 $339 forward @7 unknown #
coedge $-1 -1 $-1 $114 $113 $340 $341 reversed $55 $-1 #
coedge $-1 -1 $-1 $342 $343 $113 $187 reversed $344 $-1 #
edge $345 -1 $-1 $193 55 $346 145 $186 $203 forward @7 unknown #
coedge $-1 -1 $-1 $347 $348 $114 $189 forward $349 $-1 #
edge $-1 -1 $-1 $194 55 $350 145 $114 $208 forward @7 unknown #
coedge $-1 -1 $-1 $351 $115 $348 $352 forward $192 $-1 #
coedge $-1 -1 $-1 $115 $351 $342 $353 forward $192 $-1 #
loop $-1 -1 $-1 $-1 $115 $354 #
vertex $-1 -1 $-1 $353 $355 #
vertex $-1 -1 $-1 $352 $356 #
straight-curve $-1 -1 $-1 145 0 200 0 -1 0 I I #
coedge $-1 -1 $-1 $357 $358 $117 $197 forward $359 $-1 #
edge $-1 -1 $-1 $207 -150 $202 150 $196 $360 forward @7 unknown #
coedge $-1 -1 $-1 $361 $118 $123 $211 reversed $200 $-1 #
coedge $-1 -1 $-1 $118 $361 $357 $362 reversed $200 $-1 #
loop $-1 -1 $-1 $363 $198 $364 #
attrib_edge_convexity-kcp-attrib $-1 -1 $365 $-1 $119 1 #
vertex $-1 -1 $-1 $362 $366 #
straight-curve $-1 -1 $-1 145 150 255 0 0 -1 I I #
coedge $-1 -1 $-1 $367 $120 $358 $368 reversed $206 $-1 #
coedge $-1 -1 $-1 $120 $367 $122 $210 reversed $206 $-1 #
loop $-1 -1 $-1 $-1 $120 $369 #
vertex $-1 -1 $-1 $368 $370 #
straight-curve $-1 -1 $-1 145 -150 255 0 0 -1 I I #
coedge $-1 -1 $-1 $123 $122 $371 $372 forward $124 $-1 #
edge $-1 -1 $-1 $126 -145 $373 145 $205 $374 forward @7 unknown #
edge $375 -1 $-1 $376 -145 $125 145 $198 $377 forward @7 unknown #
face $378 -1 $-1 $379 $124 $12 $-1 $380 reversed single #
point $-1 -1 $-1 145 150 100 #
point $-1 -1 $-1 145 -150 100 #
face $-1 -1 $-1 $381 $228 $33 $-1 $382 reversed single #
loop $-1 -1 $-1 $-1 $383 $128 #
plane-surface $-1 -1 $-1 -145 150 500 0 0 1 1 0 0 forward_v I I I I #
coedge $-1 -1 $-1 $384 $385 $386 $387 forward $129 $-1 #
coedge $-1 -1 $-1 $388 $131 $385 $389 reversed $85 $-1 #
coedge $-1 -1 $-1 $131 $388 $132 $224 forward $85 $-1 #
coedge $-1 -1 $-1 $134 $386 $131 $222 reversed $228 $-1 #
edge $-1 -1 $-1 $230 -145 $390 145 $131 $391 forward @7 unknown #
coedge $-1 -1 $-1 $133 $132 $392 $393 reversed $58 $-1 #
edge $-1 -1 $-1 $394 0 $230 300 $220 $395 forward @7 unknown #
coedge $-1 -1 $-1 $396 $383 $133 $226 reversed $216 $-1 #
edge $-1 -1 $-1 $397 0 $229 300 $133 $398 forward @7 unknown #
coedge $-1 -1 $-1 $386 $134 $383 $399 reversed $228 $-1 #
loop $-1 -1 $-1 $-1 $134 $215 #
vertex $-1 -1 $-1 $226 $400 #
vertex $-1 -1 $-1 $224 $401 #
straight-curve $-1 -1 $-1 145 -150 255 0 0 -1 I I #
face $-1 -1 $-1 $402 $245 $35 $-1 $403 reversed single #
loop $-1 -1 $-1 $-1 $404 $136 #
plane-surface $-1 -1 $-1 -145 150 400 0 0 1 1 0 0 forward_v I I I I #
coedge $-1 -1 $-1 $405 $406 $407 $408 forward $137 $-1 #
coedge $-1 -1 $-1 $409 $139 $406 $410 reversed $89 $-1 #
coedge $-1 -1 $-1 $139 $409 $140 $241 forward $89 $-1 #
coedge $-1 -1 $-1 $142 $407 $139 $239 reversed $245 $-1 #
edge $-1 -1 $-1 $247 -145 $411 145 $139 $412 forward @7 unknown #
coedge $-1 -1 $-1 $141 $140 $413 $414 reversed $61 $-1 #
edge $-1 -1 $-1 $415 0 $247 300 $237 $416 forward @7 unknown #
coedge $-1 -1 $-1 $417 $404 $141 $243 reversed $233 $-1 #
edge $-1 -1 $-1 $418 0 $246 300 $141 $419 forward @7 unknown #
coedge $-1 -1 $-1 $407 $142 $404 $420 reversed $245 $-1 #
loop $-1 -1 $-1 $-1 $142 $232 #
vertex $-1 -1 $-1 $243 $421 #
vertex $-1 -1 $-1 $241 $422 #
straight-curve $-1 -1 $-1 145 -150 255 0 0 -1 I I #
model_id-kcp-attrib $-1 -1 $-1 $-1 $145 1 1021324628 1021324629 -935723006 5 #
face $423 -1 $-1 $424 $425 $36 $-1 $426 reversed single #
loop $-1 -1 $-1 $-1 $427 $145 #
plane-surface $-1 -1 $-1 -155 0 0 1 0 0 0 0 -1 forward_v I I I I #
coedge $-1 -1 $-1 $428 $261 $429 $430 forward $146 $-1 #
coedge $-1 -1 $-1 $431 $148 $428 $432 forward $94 $-1 #
coedge $-1 -1 $-1 $148 $431 $433 $434 forward $94 $-1 #
coedge $-1 -1 $-1 $264 $263 $148 $257 reversed $265 $-1 #
edge $-1 -1 $-1 $435 -150 $436 150 $256 $437 forward @7 unknown #
coedge $-1 -1 $-1 $150 $149 $438 $439 forward $65 $-1 #
coedge $-1 -1 $-1 $440 $441 $149 $260 reversed $425 $-1 #
edge $-1 -1 $-1 $267 -155 $442 155 $259 $443 forward @7 unknown #
coedge $-1 -1 $-1 $253 $444 $150 $262 reversed $146 $-1 #
edge $-1 -1 $-1 $445 -155 $266 155 $261 $446 forward @7 unknown #
coedge $-1 -1 $-1 $256 $151 $444 $447 forward $265 $-1 #
coedge $-1 -1 $-1 $151 $256 $440 $448 reversed $265 $-1 #
loop $-1 -1 $-1 $-1 $263 $424 #
vertex $-1 -1 $-1 $152 $449 #
vertex $-1 -1 $-1 $152 $450 #
straight-curve $-1 -1 $-1 155 0 255 0 1 0 I I #
face $-1 -1 $-1 $451 $282 $38 $-1 $452 reversed single #
loop $-1 -1 $-1 $-1 $453 $153 #
plane-surface $-1 -1 $-1 -145 150 300 0 0 1 1 0 0 forward_v I I I I #
coedge $-1 -1 $-1 $454 $455 $456 $457 forward $154 $-1 #
coedge $-1 -1 $-1 $458 $156 $455 $459 reversed $98 $-1 #
coedge $-1 -1 $-1 $156 $458 $157 $278 forward $98 $-1 #
coedge $-1 -1 $-1 $159 $456 $156 $276 reversed $282 $-1 #
edge $-1 -1 $-1 $284 -145 $460 145 $156 $461 forward @7 unknown #
coedge $-1 -1 $-1 $158 $157 $462 $463 reversed $68 $-1 #
edge $-1 -1 $-1 $464 0 $284 300 $274 $465 forward @7 unknown #
coedge $-1 -1 $-1 $466 $453 $158 $280 reversed $270 $-1 #
edge $-1 -1 $-1 $467 0 $283 300 $158 $468 forward @7 unknown #
coedge $-1 -1 $-1 $456 $159 $453 $469 reversed $282 $-1 #
loop $-1 -1 $-1 $-1 $159 $269 #
vertex $-1 -1 $-1 $280 $470 #
vertex $-1 -1 $-1 $278 $471 #
straight-curve $-1 -1 $-1 145 -150 255 0 0 -1 I I #
face $-1 -1 $-1 $472 $299 $40 $-1 $473 reversed single #
loop $-1 -1 $-1 $-1 $474 $161 #
plane-surface $-1 -1 $-1 -145 150 200 0 0 1 1 0 0 forward_v I I I I #
coedge $-1 -1 $-1 $475 $476 $477 $478 forward $162 $-1 #
coedge $-1 -1 $-1 $479 $164 $476 $480 reversed $102 $-1 #
coedge $-1 -1 $-1 $164 $479 $165 $295 forward $102 $-1 #
coedge $-1 -1 $-1 $167 $477 $164 $293 reversed $299 $-1 #
edge $-1 -1 $-1 $301 -145 $481 145 $164 $482 forward @7 unknown #
coedge $-1 -1 $-1 $166 $165 $483 $484 reversed $71 $-1 #
edge $-1 -1 $-1 $485 0 $301 300 $291 $486 forward @7 unknown #
coedge $-1 -1 $-1 $487 $474 $166 $297 reversed $287 $-1 #
edge $-1 -1 $-1 $488 0 $300 300 $166 $489 forward @7 unknown #
coedge $-1 -1 $-1 $477 $167 $474 $490 reversed $299 $-1 #
loop $-1 -1 $-1 $-1 $167 $286 #
vertex $-1 -1 $-1 $297 $491 #
vertex $-1 -1 $-1 $295 $492 #
straight-curve $-1 -1 $-1 145 -150 255 0 0 -1 I I #
face $-1 -1 $-1 $493 $316 $42 $-1 $494 reversed single #
loop $-1 -1 $-1 $-1 $495 $169 #
plane-surface $-1 -1 $-1 -145 150 100 0 0 1 1 0 0 forward_v I I I I #
coedge $-1 -1 $-1 $496 $497 $498 $499 forward $170 $-1 #
coedge $-1 -1 $-1 $500 $172 $497 $501 reversed $106 $-1 #
coedge $-1 -1 $-1 $172 $500 $173 $312 forward $106 $-1 #
coedge $-1 -1 $-1 $175 $498 $172 $310 reversed $316 $-1 #
edge $-1 -1 $-1 $318 -145 $502 145 $172 $503 forward @7 unknown #
coedge $-1 -1 $-1 $174 $173 $504 $505 reversed $74 $-1 #
edge $-1 -1 $-1 $506 0 $318 300 $308 $507 forward @7 unknown #
coedge $-1 -1 $-1 $508 $495 $174 $314 reversed $304 $-1 #
edge $-1 -1 $-1 $509 0 $317 300 $174 $510 forward @7 unknown #
coedge $-1 -1 $-1 $498 $175 $495 $511 reversed $316 $-1 #
loop $-1 -1 $-1 $-1 $175 $303 #
vertex $-1 -1 $-1 $314 $512 #
vertex $-1 -1 $-1 $312 $513 #
straight-curve $-1 -1 $-1 145 -150 255 0 0 -1 I I #
model_id-kcp-attrib $-1 -1 $-1 $-1 $178 1 1021324628 1021324629 -935723007 7 #
face $514 -1 $-1 $515 $516 $12 $-1 $517 reversed single #
loop $-1 -1 $-1 $-1 $518 $178 #
plane-surface $-1 -1 $-1 155 0 255 -1 0 0 0 0 1 forward_v I I I I #
coedge $-1 -1 $-1 $519 $520 $521 $522 reversed $179 $-1 #
coedge $-1 -1 $-1 $523 $180 $524 $525 forward $111 $-1 #
coedge $-1 -1 $-1 $180 $523 $526 $527 reversed $111 $-1 #
coedge $-1 -1 $-1 $528 $529 $180 $328 forward $530 $-1 #
edge $-1 -1 $-1 $531 -150 $532 150 $327 $533 forward @7 unknown #
coedge $-1 -1 $-1 $182 $181 $534 $535 reversed $78 $-1 #
coedge $-1 -1 $-1 $536 $537 $181 $331 reversed $538 $-1 #
edge $539 -1 $-1 $337 -45 $540 45 $330 $203 forward @7 unknown #
coedge $-1 -1 $-1 $541 $542 $182 $333 forward $543 $-1 #
edge $-1 -1 $-1 $338 -45 $544 45 $182 $208 forward @7 unknown #
coedge $-1 -1 $-1 $545 $183 $542 $546 forward $336 $-1 #
coedge $-1 -1 $-1 $183 $545 $536 $547 forward $336 $-1 #
loop $-1 -1 $-1 $-1 $183 $548 #
vertex $-1 -1 $-1 $547 $549 #
vertex $-1 -1 $-1 $546 $550 #
straight-curve $-1 -1 $-1 145 0 300 0 -1 0 I I #
coedge $-1 -1 $-1 $551 $552 $185 $341 forward $553 $-1 #
edge $-1 -1 $-1 $350 -150 $346 150 $340 $554 forward @7 unknown #
coedge $-1 -1 $-1 $555 $186 $191 $353 reversed $344 $-1 #
coedge $-1 -1 $-1 $186 $555 $551 $556 reversed $344 $-1 #
loop $-1 -1 $-1 $200 $342 $364 #
attrib_edge_convexity-kcp-attrib $-1 -1 $557 $-1 $187 1 #
vertex $-1 -1 $-1 $556 $558 #
coedge $-1 -1 $-1 $559 $188 $552 $560 reversed $349 $-1 #
coedge $-1 -1 $-1 $188 $559 $190 $352 reversed $349 $-1 #
loop $-1 -1 $-1 $206 $188 $369 #
vertex $-1 -1 $-1 $560 $561 #
coedge $-1 -1 $-1 $191 $190 $562 $563 forward $192 $-1 #
edge $-1 -1 $-1 $194 -145 $564 145 $348 $565 forward @7 unknown #
edge $566 -1 $-1 $567 -145 $193 145 $342 $568 forward @7 unknown #
face $569 -1 $-1 $212 $192 $12 $-1 $570 reversed single #
point $-1 -1 $-1 145 150 200 #
point $-1 -1 $-1 145 -150 200 #
coedge $-1 -1 $-1 $571 $196 $199 $362 forward $359 $-1 #
coedge $-1 -1 $-1 $196 $571 $204 $368 forward $359 $-1 #
loop $-1 -1 $-1 $-1 $196 $572 #
straight-curve $-1 -1 $-1 145 0 10 0 1 0 I I #
coedge $-1 -1 $-1 $199 $198 $573 $574 forward $200 $-1 #
edge $575 -1 $-1 $202 -145 $576 145 $199 $577 forward @7 unknown #
loop $-1 -1 $-1 $-1 $578 $364 #
face $579 -1 $-1 $580 $581 $12 $-1 $582 reversed single #
convexity-sys-attrib $-1 -1 $-1 $201 $119 #
point $-1 -1 $-1 145 150 10 #
coedge $-1 -1 $-1 $205 $204 $583 $584 reversed $206 $-1 #
edge $-1 -1 $-1 $585 -145 $207 145 $204 $586 forward @7 unknown #
face $587 -1 $-1 $-1 $588 $12 $-1 $589 reversed single #
point $-1 -1 $-1 145 -150 10 #
coedge $-1 -1 $-1 $583 $573 $209 $372 reversed $590 $-1 #
edge $-1 -1 $-1 $373 -150 $376 150 $209 $591 forward @7 unknown #
vertex $-1 -1 $-1 $210 $592 #
straight-curve $-1 -1 $-1 0 -150 100 -1 0 0 I I #
attrib_edge_convexity-kcp-attrib $-1 -1 $593 $-1 $211 1 #
vertex $-1 -1 $-1 $211 $594 #
straight-curve $-1 -1 $-1 0 150 100 1 0 0 I I #
model_id-kcp-attrib $-1 -1 $-1 $-1 $212 1 1021324628 1021324629 -935723007 12 #
face $595 -1 $-1 $364 $596 $12 $-1 $597 reversed single #
plane-surface $-1 -1 $-1 0 0 100 0 0 1 1 0 0 forward_v I I I I #
face $-1 -1 $-1 $-1 $598 $33 $-1 $599 forward single #
plane-surface $-1 -1 $-1 0 -150 455 0 1 0 0 0 1 forward_v I I I I #
coedge $-1 -1 $-1 $225 $600 $227 $399 forward $216 $-1 #
coedge $-1 -1 $-1 $601 $218 $600 $602 reversed $129 $-1 #
coedge $-1 -1 $-1 $218 $601 $219 $389 forward $129 $-1 #
coedge $-1 -1 $-1 $221 $227 $218 $387 reversed $228 $-1 #
edge $-1 -1 $-1 $390 155 $603 245 $218 $604 forward @7 unknown #
coedge $-1 -1 $-1 $220 $219 $605 $606 reversed $85 $-1 #
edge $-1 -1 $-1 $607 0 $390 300 $385 $608 forward @7 unknown #
vertex $-1 -1 $-1 $389 $609 #
straight-curve $-1 -1 $-1 0 -150 410 -1 0 0 I I #
coedge $-1 -1 $-1 $605 $610 $223 $393 forward $598 $-1 #
edge $-1 -1 $-1 $397 -245 $394 -155 $223 $611 forward @7 unknown #
vertex $-1 -1 $-1 $606 $612 #
straight-curve $-1 -1 $-1 145 150 410 0 -1 0 I I #
coedge $-1 -1 $-1 $600 $225 $610 $613 reversed $216 $-1 #
vertex $-1 -1 $-1 $613 $614 #
straight-curve $-1 -1 $-1 145 150 500 0 -1 0 I I #
edge $-1 -1 $-1 $603 -145 $229 145 $383 $615 forward @7 unknown #
point $-1 -1 $-1 145 -150 500 #
point $-1 -1 $-1 145 -150 410 #
face $-1 -1 $-1 $-1 $616 $35 $-1 $617 forward single #
plane-surface $-1 -1 $-1 0 -150 355 0 1 0 0 0 1 forward_v I I I I #
coedge $-1 -1 $-1 $242 $618 $244 $420 forward $233 $-1 #
coedge $-1 -1 $-1 $619 $235 $618 $620 reversed $137 $-1 #
coedge $-1 -1 $-1 $235 $619 $236 $410 forward $137 $-1 #
coedge $-1 -1 $-1 $238 $244 $235 $408 reversed $245 $-1 #
edge $-1 -1 $-1 $411 55 $621 145 $235 $622 forward @7 unknown #
coedge $-1 -1 $-1 $237 $236 $623 $624 reversed $89 $-1 #
edge $-1 -1 $-1 $625 0 $411 300 $406 $626 forward @7 unknown #
vertex $-1 -1 $-1 $410 $627 #
straight-curve $-1 -1 $-1 0 -150 310 -1 0 0 I I #
coedge $-1 -1 $-1 $623 $628 $240 $414 forward $616 $-1 #
edge $-1 -1 $-1 $418 -145 $415 -55 $240 $629 forward @7 unknown #
vertex $-1 -1 $-1 $624 $630 #
straight-curve $-1 -1 $-1 145 150 310 0 -1 0 I I #
coedge $-1 -1 $-1 $618 $242 $628 $631 reversed $233 $-1 #
vertex $-1 -1 $-1 $631 $632 #
straight-curve $-1 -1 $-1 145 150 400 0 -1 0 I I #
edge $-1 -1 $-1 $621 -145 $246 145 $404 $633 forward @7 unknown #
point $-1 -1 $-1 145 -150 400 #
point $-1 -1 $-1 145 -150 310 #
model_id-kcp-attrib $-1 -1 $-1 $-1 $250 1 1021324628 1021324629 -935723006 4 #
face $634 -1 $-1 $-1 $265 $36 $-1 $635 reversed single #
loop $-1 -1 $-1 $-1 $440 $250 #
plane-surface $-1 -1 $-1 0 150 0 0 -1 0 0 0 -1 forward_v I I I I #
coedge $-1 -1 $-1 $636 $438 $441 $637 forward $251 $-1 #
coedge $-1 -1 $-1 $444 $253 $254 $432 reversed $146 $-1 #
coedge $-1 -1 $-1 $438 $636 $253 $430 reversed $251 $-1 #
edge $-1 -1 $-1 $445 -255 $638 255 $429 $639 forward @7 unknown #
coedge $-1 -1 $-1 $255 $254 $636 $640 forward $94 $-1 #
edge $-1 -1 $-1 $436 -155 $638 155 $428 $641 forward @7 unknown #
coedge $-1 -1 $-1 $441 $440 $255 $434 reversed $425 $-1 #
edge $-1 -1 $-1 $642 -155 $435 155 $433 $643 forward @7 unknown #
vertex $-1 -1 $-1 $257 $644 #
vertex $-1 -1 $-1 $447 $645 #
straight-curve $-1 -1 $-1 155 0 -255 0 -1 0 I I #
coedge $-1 -1 $-1 $427 $429 $258 $439 reversed $251 $-1 #
edge $-1 -1 $-1 $442 -150 $445 150 $438 $646 forward @7 unknown #
coedge $-1 -1 $-1 $433 $259 $264 $448 forward $425 $-1 #
coedge $-1 -1 $-1 $259 $433 $427 $637 reversed $425 $-1 #
vertex $-1 -1 $-1 $260 $647 #
straight-curve $-1 -1 $-1 0 150 255 -1 0 0 I I #
coedge $-1 -1 $-1 $261 $428 $263 $447 reversed $146 $-1 #
vertex $-1 -1 $-1 $439 $648 #
straight-curve $-1 -1 $-1 0 -150 255 1 0 0 I I #
edge $-1 -1 $-1 $266 -255 $436 255 $263 $649 forward @7 unknown #
edge $-1 -1 $-1 $267 -255 $435 255 $264 $650 forward @7 unknown #
point $-1 -1 $-1 155 -150 255 #
point $-1 -1 $-1 155 150 255 #
face $-1 -1 $-1 $-1 $651 $38 $-1 $652 forward single #
plane-surface $-1 -1 $-1 0 -150 255.00000000000003 0 1 0 0 0 1 forward_v I I I I #
coedge $-1 -1 $-1 $279 $653 $281 $469 forward $270 $-1 #
coedge $-1 -1 $-1 $654 $272 $653 $655 reversed $154 $-1 #
coedge $-1 -1 $-1 $272 $654 $273 $459 forward $154 $-1 #
coedge $-1 -1 $-1 $275 $281 $272 $457 reversed $282 $-1 #
edge $-1 -1 $-1 $460 -45 $656 45 $272 $657 forward @7 unknown #
coedge $-1 -1 $-1 $274 $273 $658 $659 reversed $98 $-1 #
edge $-1 -1 $-1 $660 0 $460 300 $455 $661 forward @7 unknown #
vertex $-1 -1 $-1 $459 $662 #
straight-curve $-1 -1 $-1 0 -150 210 -1 0 0 I I #
coedge $-1 -1 $-1 $658 $663 $277 $463 forward $651 $-1 #
edge $-1 -1 $-1 $467 -45 $464 45 $277 $664 forward @7 unknown #
vertex $-1 -1 $-1 $659 $665 #
straight-curve $-1 -1 $-1 145 150 210 0 -1 0 I I #
coedge $-1 -1 $-1 $653 $279 $663 $666 reversed $270 $-1 #
vertex $-1 -1 $-1 $666 $667 #
straight-curve $-1 -1 $-1 145 150 300 0 -1 0 I I #
edge $-1 -1 $-1 $656 -145 $283 145 $453 $668 forward @7 unknown #
point $-1 -1 $-1 145 -150 300 #
point $-1 -1 $-1 145 -150 210 #
face $-1 -1 $-1 $-1 $669 $40 $-1 $670 forward single #
plane-surface $-1 -1 $-1 0 -150 155 0 1 0 0 0 1 forward_v I I I I #
coedge $-1 -1 $-1 $296 $671 $298 $490 forward $287 $-1 #
coedge $-1 -1 $-1 $672 $289 $671 $673 reversed $162 $-1 #
coedge $-1 -1 $-1 $289 $672 $290 $480 forward $162 $-1 #
coedge $-1 -1 $-1 $292 $298 $289 $478 reversed $299 $-1 #
edge $-1 -1 $-1 $481 -145 $674 -55 $289 $675 forward @7 unknown #
coedge $-1 -1 $-1 $291 $290 $676 $677 reversed $102 $-1 #
edge $-1 -1 $-1 $678 0 $481 300 $476 $679 forward @7 unknown #
vertex $-1 -1 $-1 $480 $680 #
straight-curve $-1 -1 $-1 0 -150 110 -1 0 0 I I #
coedge $-1 -1 $-1 $676 $681 $294 $484 forward $669 $-1 #
edge $-1 -1 $-1 $488 55 $485 145 $294 $682 forward @7 unknown #
vertex $-1 -1 $-1 $677 $683 #
straight-curve $-1 -1 $-1 145 150 110 0 -1 0 I I #
coedge $-1 -1 $-1 $671 $296 $681 $684 reversed $287 $-1 #
vertex $-1 -1 $-1 $684 $685 #
straight-curve $-1 -1 $-1 145 150 200 0 -1 0 I I #
edge $-1 -1 $-1 $674 -145 $300 145 $474 $686 forward @7 unknown #
point $-1 -1 $-1 145 -150 200 #
point $-1 -1 $-1 145 -150 110 #
face $-1 -1 $-1 $-1 $687 $42 $-1 $688 forward single #
plane-surface $-1 -1 $-1 0 -150 55.000000000000007 0 1 0 0 0 1 forward_v I I I I #
coedge $-1 -1 $-1 $313 $689 $315 $511 forward $304 $-1 #
coedge $-1 -1 $-1 $690 $306 $689 $691 reversed $170 $-1 #
coedge $-1 -1 $-1 $306 $690 $307 $501 forward $170 $-1 #
coedge $-1 -1 $-1 $309 $315 $306 $499 reversed $316 $-1 #
edge $-1 -1 $-1 $502 -245 $692 -155 $306 $693 forward @7 unknown #
coedge $-1 -1 $-1 $308 $307 $694 $695 reversed $106 $-1 #
edge $-1 -1 $-1 $696 0 $502 300 $497 $697 forward @7 unknown #
vertex $-1 -1 $-1 $501 $698 #
straight-curve $-1 -1 $-1 0 -150 10 -1 0 0 I I #
coedge $-1 -1 $-1 $694 $699 $311 $505 forward $687 $-1 #
edge $-1 -1 $-1 $509 155 $506 245 $311 $700 forward @7 unknown #
vertex $-1 -1 $-1 $695 $701 #
straight-curve $-1 -1 $-1 145 150 10 0 -1 0 I I #
coedge $-1 -1 $-1 $689 $313 $699 $702 reversed $304 $-1 #
vertex $-1 -1 $-1 $702 $703 #
straight-curve $-1 -1 $-1 145 150 100 0 -1 0 I I #
edge $-1 -1 $-1 $692 -145 $317 145 $495 $704 forward @7 unknown #
point $-1 -1 $-1 145 -150 100 #
point $-1 -1 $-1 145 -150 10 #
model_id-kcp-attrib $-1 -1 $-1 $-1 $321 1 1021324628 1021324629 -935723007 8 #
face $705 -1 $-1 $548 $530 $12 $-1 $706 reversed single #
loop $-1 -1 $-1 $-1 $521 $321 #
plane-surface $-1 -1 $-1 0 0 500 0 0 1 1 0 0 forward_v I I I I #
coedge $-1 -1 $-1 $707 $708 $709 $710 forward $322 $-1 #
coedge $-1 -1 $-1 $711 $324 $712 $713 forward $179 $-1 #
coedge $-1 -1 $-1 $324 $711 $714 $715 reversed $179 $-1 #
coedge $-1 -1 $-1 $716 $717 $324 $522 forward $516 $-1 #
edge $-1 -1 $-1 $718 -150 $719 150 $521 $720 forward @7 unknown #
coedge $-1 -1 $-1 $326 $325 $721 $722 reversed $111 $-1 #
coedge $-1 -1 $-1 $723 $724 $325 $525 reversed $725 $-1 #
edge $726 -1 $-1 $531 -145 $727 -55 $524 $203 forward @7 unknown #
coedge $-1 -1 $-1 $728 $729 $326 $527 forward $730 $-1 #
edge $-1 -1 $-1 $532 -145 $731 -55 $326 $208 forward @7 unknown #
coedge $-1 -1 $-1 $732 $327 $729 $733 forward $530 $-1 #
coedge $-1 -1 $-1 $327 $732 $723 $734 forward $530 $-1 #
loop $-1 -1 $-1 $-1 $327 $515 #
vertex $-1 -1 $-1 $734 $735 #
vertex $-1 -1 $-1 $733 $736 #
straight-curve $-1 -1 $-1 145 0 400 0 -1 0 I I #
coedge $-1 -1 $-1 $737 $738 $329 $535 forward $739 $-1 #
edge $-1 -1 $-1 $544 -150 $540 150 $534 $740 forward @7 unknown #
coedge $-1 -1 $-1 $741 $330 $335 $547 reversed $538 $-1 #
coedge $-1 -1 $-1 $330 $741 $737 $742 reversed $538 $-1 #
loop $-1 -1 $-1 $344 $536 $364 #
attrib_edge_convexity-kcp-attrib $-1 -1 $743 $-1 $331 1 #
vertex $-1 -1 $-1 $742 $744 #
coedge $-1 -1 $-1 $745 $332 $738 $746 reversed $543 $-1 #
coedge $-1 -1 $-1 $332 $745 $334 $546 reversed $543 $-1 #
loop $-1 -1 $-1 $349 $332 $369 #
vertex $-1 -1 $-1 $746 $747 #
coedge $-1 -1 $-1 $335 $334 $748 $749 forward $336 $-1 #
edge $-1 -1 $-1 $338 -145 $750 145 $542 $751 forward @7 unknown #
edge $752 -1 $-1 $753 -145 $337 145 $536 $754 forward @7 unknown #
face $755 -1 $-1 $354 $336 $12 $-1 $756 reversed single #
point $-1 -1 $-1 145 150 300 #
point $-1 -1 $-1 145 -150 300 #
coedge $-1 -1 $-1 $757 $340 $343 $556 forward $553 $-1 #
coedge $-1 -1 $-1 $340 $757 $347 $560 forward $553 $-1 #
loop $-1 -1 $-1 $-1 $340 $758 #
straight-curve $-1 -1 $-1 145 0 110 0 1 0 I I #
coedge $-1 -1 $-1 $343 $342 $759 $760 forward $344 $-1 #
edge $761 -1 $-1 $346 -145 $762 145 $343 $763 forward @7 unknown #
convexity-sys-attrib $-1 -1 $-1 $345 $187 #
point $-1 -1 $-1 145 150 110 #
coedge $-1 -1 $-1 $348 $347 $764 $765 reversed $349 $-1 #
edge $-1 -1 $-1 $766 -145 $350 145 $347 $767 forward @7 unknown #
point $-1 -1 $-1 145 -150 110 #
coedge $-1 -1 $-1 $764 $759 $351 $563 reversed $768 $-1 #
edge $-1 -1 $-1 $564 -150 $567 150 $351 $769 forward @7 unknown #
vertex $-1 -1 $-1 $352 $770 #
straight-curve $-1 -1 $-1 0 -150 200 -1 0 0 I I #
attrib_edge_convexity-kcp-attrib $-1 -1 $771 $-1 $353 1 #
vertex $-1 -1 $-1 $353 $772 #
straight-curve $-1 -1 $-1 0 150 200 1 0 0 I I #
model_id-kcp-attrib $-1 -1 $-1 $-1 $354 1 1021324628 1021324629 -935723007 11 #
plane-surface $-1 -1 $-1 0 0 200 0 0 1 1 0 0 forward_v I I I I #
coedge $-1 -1 $-1 $358 $357 $773 $774 forward $359 $-1 #
face $775 -1 $-1 $369 $359 $12 $-1 $776 forward single #
coedge $-1 -1 $-1 $371 $773 $361 $574 reversed $590 $-1 #
edge $777 -1 $-1 $376 155 $576 245 $573 $778 forward @7 unknown #
attrib_edge_convexity-kcp-attrib $-1 -1 $779 $-1 $362 1 #
vertex $-1 -1 $-1 $362 $780 #
straight-curve $-1 -1 $-1 0 150 10 -1 0 0 I I #
coedge $-1 -1 $-1 $781 $782 $783 $784 reversed $363 $-1 #
model_id-kcp-attrib $-1 -1 $-1 $-1 $364 1 1021324628 1021324629 -935723007 14 #
face $785 -1 $-1 $786 $787 $12 $-1 $788 reversed single #
loop $-1 -1 $-1 $725 $789 $364 #
plane-surface $-1 -1 $-1 0 150 5 0 -1 0 0 0 -1 forward_v I I I I #
coedge $-1 -1 $-1 $773 $371 $367 $584 forward $590 $-1 #
edge $-1 -1 $-1 $373 155 $585 245 $583 $790 forward @7 unknown #
vertex $-1 -1 $-1 $368 $791 #
straight-curve $-1 -1 $-1 0 -150 10 1 0 0 I I #
model_id-kcp-attrib $-1 -1 $-1 $-1 $369 1 1021324628 1021324629 -935723007 27 #
loop $-1 -1 $-1 $792 $793 $369 #
plane-surface $-1 -1 $-1 0 -150 5 0 1 0 0 0 1 forward_v I I I I #
loop $-1 -1 $-1 $-1 $773 $794 #
straight-curve $-1 -1 $-1 -145 0 100 0 1 0 I I #
point $-1 -1 $-1 -145 -150 100 #
convexity-sys-attrib $-1 -1 $-1 $375 $211 #
point $-1 -1 $-1 -145 150 100 #
model_id-kcp-attrib $-1 -1 $-1 $-1 $379 1 1021324628 1021324629 -935723007 13 #
loop $-1 -1 $-1 $-1 $795 $379 #
plane-surface $-1 -1 $-1 0 0 0 0 0 1 1 0 0 forward_v I I I I #
loop $-1 -1 $-1 $-1 $610 $381 #
plane-surface $-1 -1 $-1 0 150 455 0 1 0 0 0 1 forward_v I I I I #
coedge $-1 -1 $-1 $383 $396 $384 $602 forward $216 $-1 #
coedge $-1 -1 $-1 $385 $384 $796 $797 forward $129 $-1 #
edge $-1 -1 $-1 $798 0 $603 300 $600 $799 forward @7 unknown #
vertex $-1 -1 $-1 $602 $800 #
straight-curve $-1 -1 $-1 -145 -150 255 0 0 1 I I #
coedge $-1 -1 $-1 $796 $392 $388 $606 forward $598 $-1 #
edge $-1 -1 $-1 $394 -145 $607 145 $388 $801 forward @7 unknown #
vertex $-1 -1 $-1 $797 $802 #
straight-curve $-1 -1 $-1 -145 150 410 0 -1 0 I I #
point $-1 -1 $-1 -145 -150 410 #
coedge $-1 -1 $-1 $392 $796 $396 $613 forward $598 $-1 #
straight-curve $-1 -1 $-1 145 150 255 0 0 -1 I I #
point $-1 -1 $-1 145 150 410 #
edge $-1 -1 $-1 $798 -145 $397 145 $396 $803 forward @7 unknown #
point $-1 -1 $-1 145 150 500 #
straight-curve $-1 -1 $-1 0 -150 500 1 0 0 I I #
loop $-1 -1 $-1 $-1 $628 $402 #
plane-surface $-1 -1 $-1 0 150 355 0 1 0 0 0 1 forward_v I I I I #
coedge $-1 -1 $-1 $404 $417 $405 $620 forward $233 $-1 #
coedge $-1 -1 $-1 $406 $405 $804 $805 forward $137 $-1 #
edge $-1 -1 $-1 $806 0 $621 300 $618 $807 forward @7 unknown #
vertex $-1 -1 $-1 $620 $808 #
straight-curve $-1 -1 $-1 -145 -150 255 0 0 1 I I #
coedge $-1 -1 $-1 $804 $413 $409 $624 forward $616 $-1 #
edge $-1 -1 $-1 $415 -145 $625 145 $409 $809 forward @7 unknown #
vertex $-1 -1 $-1 $805 $810 #
straight-curve $-1 -1 $-1 -145 150 310 0 -1 0 I I #
point $-1 -1 $-1 -145 -150 310 #
coedge $-1 -1 $-1 $413 $804 $417 $631 forward $616 $-1 #
straight-curve $-1 -1 $-1 145 150 255 0 0 -1 I I #
point $-1 -1 $-1 145 150 310 #
edge $-1 -1 $-1 $806 -145 $418 145 $417 $811 forward @7 unknown #
point $-1 -1 $-1 145 150 400 #
straight-curve $-1 -1 $-1 0 -150 400 1 0 0 I I #
model_id-kcp-attrib $-1 -1 $-1 $-1 $424 1 1021324628 1021324629 -935723006 2 #
plane-surface $-1 -1 $-1 155 0 0 -1 0 0 0 0 1 forward_v I I I I #
coedge $-1 -1 $-1 $429 $427 $431 $640 reversed $251 $-1 #
edge $-1 -1 $-1 $442 -255 $642 255 $441 $812 forward @7 unknown #
vertex $-1 -1 $-1 $640 $813 #
straight-curve $-1 -1 $-1 -155 -150 0 0 0 -1 I I #
edge $-1 -1 $-1 $638 -150 $642 150 $636 $814 forward @7 unknown #
straight-curve $-1 -1 $-1 0 -150 -255 -1 0 0 I I #
vertex $-1 -1 $-1 $434 $815 #
straight-curve $-1 -1 $-1 0 150 -255 1 0 0 I I #
point $-1 -1 $-1 155 150 -255 #
point $-1 -1 $-1 155 -150 -255 #
straight-curve $-1 -1 $-1 -155 0 255 0 -1 0 I I #
point $-1 -1 $-1 -155 150 255 #
point $-1 -1 $-1 -155 -150 255 #
straight-curve $-1 -1 $-1 155 -150 0 0 0 -1 I I #
straight-curve $-1 -1 $-1 155 150 0 0 0 -1 I I #
loop $-1 -1 $-1 $-1 $663 $451 #
plane-surface $-1 -1 $-1 0 150 255.00000000000003 0 1 0 0 0 1 forward_v I I I I #
coedge $-1 -1 $-1 $453 $466 $454 $655 forward $270 $-1 #
coedge $-1 -1 $-1 $455 $454 $816 $817 forward $154 $-1 #
edge $-1 -1 $-1 $818 0 $656 300 $653 $819 forward @7 unknown #
vertex $-1 -1 $-1 $655 $820 #
straight-curve $-1 -1 $-1 -145 -150 255 0 0 1 I I #
coedge $-1 -1 $-1 $816 $462 $458 $659 forward $651 $-1 #
edge $-1 -1 $-1 $464 -145 $660 145 $458 $821 forward @7 unknown #
vertex $-1 -1 $-1 $817 $822 #
straight-curve $-1 -1 $-1 -145 150 210 0 -1 0 I I #
point $-1 -1 $-1 -145 -150 210 #
coedge $-1 -1 $-1 $462 $816 $466 $666 forward $651 $-1 #
straight-curve $-1 -1 $-1 145 150 255 0 0 -1 I I #
point $-1 -1 $-1 145 150 210 #
edge $-1 -1 $-1 $818 -145 $467 145 $466 $823 forward @7 unknown #
point $-1 -1 $-1 145 150 300 #
straight-curve $-1 -1 $-1 0 -150 300 1 0 0 I I #
loop $-1 -1 $-1 $-1 $681 $472 #
plane-surface $-1 -1 $-1 0 150 155 0 1 0 0 0 1 forward_v I I I I #
coedge $-1 -1 $-1 $474 $487 $475 $673 forward $287 $-1 #
coedge $-1 -1 $-1 $476 $475 $824 $825 forward $162 $-1 #
edge $-1 -1 $-1 $826 0 $674 300 $671 $827 forward @7 unknown #
vertex $-1 -1 $-1 $673 $828 #
straight-curve $-1 -1 $-1 -145 -150 255 0 0 1 I I #
coedge $-1 -1 $-1 $824 $483 $479 $677 forward $669 $-1 #
edge $-1 -1 $-1 $485 -145 $678 145 $479 $829 forward @7 unknown #
vertex $-1 -1 $-1 $825 $830 #
straight-curve $-1 -1 $-1 -145 150 110 0 -1 0 I I #
point $-1 -1 $-1 -145 -150 110 #
coedge $-1 -1 $-1 $483 $824 $487 $684 forward $669 $-1 #
straight-curve $-1 -1 $-1 145 150 255 0 0 -1 I I #
point $-1 -1 $-1 145 150 110 #
edge $-1 -1 $-1 $826 -145 $488 145 $487 $831 forward @7 unknown #
point $-1 -1 $-1 145 150 200 #
straight-curve $-1 -1 $-1 0 -150 200 1 0 0 I I #
loop $-1 -1 $-1 $-1 $699 $493 #
plane-surface $-1 -1 $-1 0 150 55.000000000000007 0 1 0 0 0 1 forward_v I I I I #
coedge $-1 -1 $-1 $495 $508 $496 $691 forward $304 $-1 #
coedge $-1 -1 $-1 $497 $496 $832 $833 forward $170 $-1 #
edge $-1 -1 $-1 $834 0 $692 300 $689 $835 forward @7 unknown #
vertex $-1 -1 $-1 $691 $836 #
straight-curve $-1 -1 $-1 -145 -150 255 0 0 1 I I #
coedge $-1 -1 $-1 $832 $504 $500 $695 forward $687 $-1 #
edge $-1 -1 $-1 $506 -145 $696 145 $500 $837 forward @7 unknown #
vertex $-1 -1 $-1 $833 $838 #
straight-curve $-1 -1 $-1 -145 150 10 0 -1 0 I I #
point $-1 -1 $-1 -145 -150 10 #
coedge $-1 -1 $-1 $504 $832 $508 $702 forward $687 $-1 #
straight-curve $-1 -1 $-1 145 150 255 0 0 -1 I I #
point $-1 -1 $-1 145 150 10 #
edge $-1 -1 $-1 $834 -145 $509 145 $508 $839 forward @7 unknown #
point $-1 -1 $-1 145 150 100 #
straight-curve $-1 -1 $-1 0 -150 100 1 0 0 I I #
model_id-kcp-attrib $-1 -1 $-1 $-1 $515 1 1021324628 1021324629 -935723007 9 #
plane-surface $-1 -1 $-1 0 0 400 0 0 1 1 0 0 forward_v I I I I #
coedge $-1 -1 $-1 $840 $518 $841 $842 reversed $322 $-1 #
coedge $-1 -1 $-1 $518 $840 $843 $844 reversed $322 $-1 #
coedge $-1 -1 $-1 $793 $845 $518 $710 reversed $588 $-1 #
edge $846 -1 $-1 $847 -255 $848 255 $518 $849 forward @7 unknown #
coedge $-1 -1 $-1 $520 $519 $850 $851 reversed $179 $-1 #
coedge $-1 -1 $-1 $789 $852 $519 $713 reversed $581 $-1 #
edge $853 -1 $-1 $718 -245 $854 -155 $712 $203 forward @7 unknown #
coedge $-1 -1 $-1 $855 $856 $520 $715 forward $792 $-1 #
edge $-1 -1 $-1 $719 -245 $857 -155 $520 $208 forward @7 unknown #
coedge $-1 -1 $-1 $858 $521 $856 $859 forward $516 $-1 #
coedge $-1 -1 $-1 $521 $858 $789 $860 forward $516 $-1 #
vertex $-1 -1 $-1 $860 $861 #
vertex $-1 -1 $-1 $859 $862 #
straight-curve $-1 -1 $-1 145 0 500 0 -1 0 I I #
coedge $-1 -1 $-1 $863 $864 $523 $722 forward $865 $-1 #
edge $-1 -1 $-1 $731 -150 $727 150 $721 $866 forward @7 unknown #
coedge $-1 -1 $-1 $867 $524 $529 $734 reversed $725 $-1 #
coedge $-1 -1 $-1 $524 $867 $863 $868 reversed $725 $-1 #
loop $-1 -1 $-1 $538 $723 $364 #
attrib_edge_convexity-kcp-attrib $-1 -1 $869 $-1 $525 1 #
vertex $-1 -1 $-1 $868 $870 #
coedge $-1 -1 $-1 $871 $526 $864 $872 reversed $730 $-1 #
coedge $-1 -1 $-1 $526 $871 $528 $733 reversed $730 $-1 #
loop $-1 -1 $-1 $543 $526 $369 #
vertex $-1 -1 $-1 $872 $873 #
coedge $-1 -1 $-1 $529 $528 $874 $875 forward $530 $-1 #
edge $-1 -1 $-1 $532 -145 $876 145 $729 $877 forward @7 unknown #
edge $878 -1 $-1 $879 -145 $531 145 $723 $880 forward @7 unknown #
point $-1 -1 $-1 145 150 400 #
point $-1 -1 $-1 145 -150 400 #
coedge $-1 -1 $-1 $881 $534 $537 $742 forward $739 $-1 #
coedge $-1 -1 $-1 $534 $881 $541 $746 forward $739 $-1 #
loop $-1 -1 $-1 $-1 $534 $882 #
straight-curve $-1 -1 $-1 145 0 210 0 1 0 I I #
coedge $-1 -1 $-1 $537 $536 $883 $884 forward $538 $-1 #
edge $885 -1 $-1 $540 -145 $886 145 $537 $887 forward @7 unknown #
convexity-sys-attrib $-1 -1 $-1 $539 $331 #
point $-1 -1 $-1 145 150 210 #
coedge $-1 -1 $-1 $542 $541 $888 $889 reversed $543 $-1 #
edge $-1 -1 $-1 $890 -145 $544 145 $541 $891 forward @7 unknown #
point $-1 -1 $-1 145 -150 210 #
coedge $-1 -1 $-1 $888 $883 $545 $749 reversed $892 $-1 #
edge $-1 -1 $-1 $750 -150 $753 150 $545 $893 forward @7 unknown #
vertex $-1 -1 $-1 $546 $894 #
straight-curve $-1 -1 $-1 0 -150 300 -1 0 0 I I #
attrib_edge_convexity-kcp-attrib $-1 -1 $895 $-1 $547 1 #
vertex $-1 -1 $-1 $547 $896 #
straight-curve $-1 -1 $-1 0 150 300 1 0 0 I I #
model_id-kcp-attrib $-1 -1 $-1 $-1 $548 1 1021324628 1021324629 -935723007 10 #
plane-surface $-1 -1 $-1 0 0 300 0 0 1 1 0 0 forward_v I I I I #
coedge $-1 -1 $-1 $552 $551 $897 $898 forward $553 $-1 #
face $899 -1 $-1 $572 $553 $12 $-1 $900 forward single #
coedge $-1 -1 $-1 $562 $897 $555 $760 reversed $768 $-1 #
edge $901 -1 $-1 $567 55 $762 145 $759 $778 forward @7 unknown #
attrib_edge_convexity-kcp-attrib $-1 -1 $902 $-1 $556 1 #
vertex $-1 -1 $-1 $556 $903 #
straight-curve $-1 -1 $-1 0 150 110 -1 0 0 I I #
coedge $-1 -1 $-1 $897 $562 $559 $765 forward $768 $-1 #
edge $-1 -1 $-1 $564 55 $766 145 $764 $790 forward @7 unknown #
vertex $-1 -1 $-1 $560 $904 #
straight-curve $-1 -1 $-1 0 -150 110 1 0 0 I I #
loop $-1 -1 $-1 $-1 $897 $905 #
straight-curve $-1 -1 $-1 -145 0 200 0 1 0 I I #
point $-1 -1 $-1 -145 -150 200 #
convexity-sys-attrib $-1 -1 $-1 $566 $353 #
point $-1 -1 $-1 -145 150 200 #
coedge $-1 -1 $-1 $573 $583 $571 $774 reversed $590 $-1 #
edge $-1 -1 $-1 $576 -150 $585 150 $571 $906 forward @7 unknown #
model_id-kcp-attrib $-1 -1 $-1 $-1 $572 1 1021324628 1021324629 -935723007 26 #
plane-surface $-1 -1 $-1 0 0 10 0 0 1 1 0 0 forward_v I I I I #
attrib_edge_convexity-kcp-attrib $-1 -1 $907 $-1 $574 1 #
straight-curve $-1 -1 $-1 -145 150 255 0 0 -1 I I #
convexity-sys-attrib $-1 -1 $-1 $575 $362 #
point $-1 -1 $-1 -145 150 10 #
coedge $-1 -1 $-1 $908 $578 $840 $909 forward $363 $-1 #
coedge $-1 -1 $-1 $578 $908 $910 $911 reversed $363 $-1 #
coedge $-1 -1 $-1 $912 $843 $578 $784 forward $913 $-1 #
edge $914 -1 $-1 $915 -155 $916 155 $578 $917 forward @7 unknown #
model_id-kcp-attrib $-1 -1 $-1 $-1 $580 1 1021324628 1021324629 -935723007 15 #
face $918 -1 $-1 $919 $920 $12 $-1 $788 reversed single #
loop $-1 -1 $-1 $-1 $921 $580 #
plane-surface $-1 -1 $-1 -145 0 255 -1 0 0 0 0 1 forward_v I I I I #
coedge $-1 -1 $-1 $922 $712 $717 $860 reversed $581 $-1 #
straight-curve $-1 -1 $-1 -145 -150 255 0 0 -1 I I #
point $-1 -1 $-1 -145 -150 10 #
loop $-1 -1 $-1 $730 $714 $369 #
coedge $-1 -1 $-1 $923 $709 $924 $925 reversed $588 $-1 #
face $926 -1 $-1 $927 $590 $12 $-1 $788 reversed single #
coedge $-1 -1 $-1 $928 $841 $845 $929 forward $596 $-1 #
coedge $-1 -1 $-1 $610 $605 $601 $797 reversed $598 $-1 #
edge $-1 -1 $-1 $798 -245 $607 -155 $601 $930 forward @7 unknown #
vertex $-1 -1 $-1 $613 $931 #
straight-curve $-1 -1 $-1 -145 150 500 0 -1 0 I I #
point $-1 -1 $-1 -145 -150 500 #
straight-curve $-1 -1 $-1 0 150 410 -1 0 0 I I #
point $-1 -1 $-1 -145 150 410 #
straight-curve $-1 -1 $-1 0 150 500 1 0 0 I I #
coedge $-1 -1 $-1 $628 $623 $619 $805 reversed $616 $-1 #
edge $-1 -1 $-1 $806 -145 $625 -55 $619 $932 forward @7 unknown #
vertex $-1 -1 $-1 $631 $933 #
straight-curve $-1 -1 $-1 -145 150 400 0 -1 0 I I #
point $-1 -1 $-1 -145 -150 400 #
straight-curve $-1 -1 $-1 0 150 310 -1 0 0 I I #
point $-1 -1 $-1 -145 150 310 #
straight-curve $-1 -1 $-1 0 150 400 1 0 0 I I #
straight-curve $-1 -1 $-1 -155 150 0 0 0 -1 I I #
point $-1 -1 $-1 -155 -150 -255 #
straight-curve $-1 -1 $-1 -155 0 -255 0 1 0 I I #
point $-1 -1 $-1 -155 150 -255 #
coedge $-1 -1 $-1 $663 $658 $654 $817 reversed $651 $-1 #
edge $-1 -1 $-1 $818 -45 $660 45 $654 $934 forward @7 unknown #
vertex $-1 -1 $-1 $666 $935 #
straight-curve $-1 -1 $-1 -145 150 300 0 -1 0 I I #
point $-1 -1 $-1 -145 -150 300 #
straight-curve $-1 -1 $-1 0 150 210 -1 0 0 I I #
point $-1 -1 $-1 -145 150 210 #
straight-curve $-1 -1 $-1 0 150 300 1 0 0 I I #
coedge $-1 -1 $-1 $681 $676 $672 $825 reversed $669 $-1 #
edge $-1 -1 $-1 $826 55 $678 145 $672 $936 forward @7 unknown #
vertex $-1 -1 $-1 $684 $937 #
straight-curve $-1 -1 $-1 -145 150 200 0 -1 0 I I #
point $-1 -1 $-1 -145 -150 200 #
straight-curve $-1 -1 $-1 0 150 110 -1 0 0 I I #
point $-1 -1 $-1 -145 150 110 #
straight-curve $-1 -1 $-1 0 150 200 1 0 0 I I #
coedge $-1 -1 $-1 $699 $694 $690 $833 reversed $687 $-1 #
edge $-1 -1 $-1 $834 155 $696 245 $690 $938 forward @7 unknown #
vertex $-1 -1 $-1 $702 $939 #
straight-curve $-1 -1 $-1 -145 150 100 0 -1 0 I I #
point $-1 -1 $-1 -145 -150 100 #
straight-curve $-1 -1 $-1 0 150 10 -1 0 0 I I #
point $-1 -1 $-1 -145 150 10 #
straight-curve $-1 -1 $-1 0 150 100 1 0 0 I I #
coedge $-1 -1 $-1 $708 $707 $781 $909 reversed $322 $-1 #
coedge $-1 -1 $-1 $795 $940 $707 $842 forward $596 $-1 #
edge $941 -1 $-1 $942 -150 $848 150 $707 $943 forward @7 unknown #
coedge $-1 -1 $-1 $783 $924 $708 $844 forward $913 $-1 #
edge $944 -1 $-1 $847 -150 $915 150 $708 $945 forward @7 unknown #
coedge $-1 -1 $-1 $709 $923 $795 $929 reversed $588 $-1 #
attrib_edge_convexity-kcp-attrib $-1 -1 $946 $-1 $710 1 #
vertex $-1 -1 $-1 $844 $947 #
vertex $-1 -1 $-1 $710 $948 #
straight-curve $-1 -1 $-1 155 -150 255 0 0 -1 I I #
coedge $-1 -1 $-1 $949 $950 $711 $851 forward $951 $-1 #
edge $-1 -1 $-1 $857 -150 $854 150 $850 $952 forward @7 unknown #
coedge $-1 -1 $-1 $712 $922 $949 $953 reversed $581 $-1 #
attrib_edge_convexity-kcp-attrib $-1 -1 $954 $-1 $713 1 #
vertex $-1 -1 $-1 $953 $955 #
coedge $-1 -1 $-1 $956 $714 $950 $957 reversed $792 $-1 #
coedge $-1 -1 $-1 $714 $956 $716 $859 reversed $792 $-1 #
vertex $-1 -1 $-1 $957 $958 #
coedge $-1 -1 $-1 $717 $716 $959 $960 forward $516 $-1 #
edge $-1 -1 $-1 $719 -145 $961 145 $856 $962 forward @7 unknown #
edge $963 -1 $-1 $964 -145 $718 145 $789 $965 forward @7 unknown #
point $-1 -1 $-1 145 150 500 #
point $-1 -1 $-1 145 -150 500 #
coedge $-1 -1 $-1 $966 $721 $724 $868 forward $865 $-1 #
coedge $-1 -1 $-1 $721 $966 $728 $872 forward $865 $-1 #
loop $-1 -1 $-1 $-1 $721 $967 #
straight-curve $-1 -1 $-1 145 0 310 0 1 0 I I #
coedge $-1 -1 $-1 $724 $723 $968 $969 forward $725 $-1 #
edge $970 -1 $-1 $727 -145 $971 145 $724 $972 forward @7 unknown #
convexity-sys-attrib $-1 -1 $-1 $726 $525 #
point $-1 -1 $-1 145 150 310 #
coedge $-1 -1 $-1 $729 $728 $973 $974 reversed $730 $-1 #
edge $-1 -1 $-1 $975 -145 $731 145 $728 $976 forward @7 unknown #
point $-1 -1 $-1 145 -150 310 #
coedge $-1 -1 $-1 $973 $968 $732 $875 reversed $920 $-1 #
edge $-1 -1 $-1 $876 -150 $879 150 $732 $977 forward @7 unknown #
vertex $-1 -1 $-1 $733 $978 #
straight-curve $-1 -1 $-1 0 -150 400 -1 0 0 I I #
attrib_edge_convexity-kcp-attrib $-1 -1 $979 $-1 $734 1 #
vertex $-1 -1 $-1 $734 $980 #
straight-curve $-1 -1 $-1 0 150 400 1 0 0 I I #
coedge $-1 -1 $-1 $738 $737 $981 $982 forward $739 $-1 #
face $983 -1 $-1 $758 $739 $12 $-1 $984 forward single #
coedge $-1 -1 $-1 $748 $981 $741 $884 reversed $892 $-1 #
edge $985 -1 $-1 $753 -45 $886 45 $883 $778 forward @7 unknown #
attrib_edge_convexity-kcp-attrib $-1 -1 $986 $-1 $742 1 #
vertex $-1 -1 $-1 $742 $987 #
straight-curve $-1 -1 $-1 0 150 210 -1 0 0 I I #
coedge $-1 -1 $-1 $981 $748 $745 $889 forward $892 $-1 #
edge $-1 -1 $-1 $750 -45 $890 45 $888 $790 forward @7 unknown #
vertex $-1 -1 $-1 $746 $988 #
straight-curve $-1 -1 $-1 0 -150 210 1 0 0 I I #
loop $-1 -1 $-1 $-1 $981 $919 #
straight-curve $-1 -1 $-1 -145 0 300 0 1 0 I I #
point $-1 -1 $-1 -145 -150 300 #
convexity-sys-attrib $-1 -1 $-1 $752 $547 #
point $-1 -1 $-1 -145 150 300 #
coedge $-1 -1 $-1 $759 $764 $757 $898 reversed $768 $-1 #
edge $-1 -1 $-1 $762 -150 $766 150 $757 $989 forward @7 unknown #
model_id-kcp-attrib $-1 -1 $-1 $-1 $758 1 1021324628 1021324629 -935723007 25 #
plane-surface $-1 -1 $-1 0 0 110 0 0 1 1 0 0 forward_v I I I I #
attrib_edge_convexity-kcp-attrib $-1 -1 $990 $-1 $760 1 #
convexity-sys-attrib $-1 -1 $-1 $761 $556 #
point $-1 -1 $-1 -145 150 110 #
point $-1 -1 $-1 -145 -150 110 #
face $991 -1 $-1 $794 $768 $12 $-1 $788 reversed single #
straight-curve $-1 -1 $-1 -145 0 10 0 -1 0 I I #
convexity-sys-attrib $-1 -1 $-1 $777 $574 #
coedge $-1 -1 $-1 $782 $781 $940 $992 reversed $363 $-1 #
edge $993 -1 $-1 $915 -255 $942 255 $840 $994 forward @7 unknown #
coedge $-1 -1 $-1 $995 $996 $782 $911 forward $997 $-1 #
edge $998 -1 $-1 $916 -255 $999 255 $782 $1000 forward @7 unknown #
coedge $-1 -1 $-1 $924 $783 $996 $1001 forward $913 $-1 #
loop $-1 -1 $-1 $-1 $783 $1002 #
attrib_edge_convexity-kcp-attrib $-1 -1 $1003 $-1 $784 1 #
vertex $-1 -1 $-1 $844 $1004 #
vertex $-1 -1 $-1 $784 $1005 #
straight-curve $-1 -1 $-1 0 150 510 -1 0 0 I I #
model_id-kcp-attrib $-1 -1 $-1 $-1 $786 1 1021324628 1021324629 -935723007 16 #
face $1006 -1 $-1 $905 $892 $12 $-1 $788 reversed single #
loop $-1 -1 $-1 $-1 $1007 $786 #
coedge $-1 -1 $-1 $1008 $1009 $1010 $1011 reversed $787 $-1 #
coedge $-1 -1 $-1 $852 $789 $1008 $1012 forward $581 $-1 #
coedge $-1 -1 $-1 $845 $793 $1013 $1014 forward $588 $-1 #
coedge $-1 -1 $-1 $843 $912 $793 $925 forward $913 $-1 #
edge $-1 -1 $-1 $1015 -305 $847 5 $793 $1016 forward @7 unknown #
model_id-kcp-attrib $-1 -1 $-1 $-1 $794 1 1021324628 1021324629 -935723007 19 #
face $1017 -1 $-1 $1002 $997 $12 $-1 $1018 reversed single #
coedge $-1 -1 $-1 $940 $795 $995 $1019 forward $596 $-1 #
edge $1020 -1 $-1 $848 -5 $1021 305 $845 $1022 forward @7 unknown #
straight-curve $-1 -1 $-1 -145 150 255 0 0 -1 I I #
point $-1 -1 $-1 -145 150 500 #
straight-curve $-1 -1 $-1 -145 150 255 0 0 -1 I I #
point $-1 -1 $-1 -145 150 400 #
straight-curve $-1 -1 $-1 -145 150 255 0 0 -1 I I #
point $-1 -1 $-1 -145 150 300 #
straight-curve $-1 -1 $-1 -145 150 255 0 0 -1 I I #
point $-1 -1 $-1 -145 150 200 #
straight-curve $-1 -1 $-1 -145 150 255 0 0 -1 I I #
point $-1 -1 $-1 -145 150 100 #
coedge $-1 -1 $-1 $841 $928 $908 $992 forward $596 $-1 #
attrib_edge_convexity-kcp-attrib $-1 -1 $1023 $-1 $842 1 #
vertex $-1 -1 $-1 $842 $1024 #
straight-curve $-1 -1 $-1 155 0 0 0 -1 0 I I #
attrib_edge_convexity-kcp-attrib $-1 -1 $1025 $-1 $844 1 #
straight-curve $-1 -1 $-1 155 0 510 0 1 0 I I #
convexity-sys-attrib $-1 -1 $-1 $846 $710 #
point $-1 -1 $-1 155 -150 510 #
point $-1 -1 $-1 155 -150 0 #
coedge $-1 -1 $-1 $1010 $850 $852 $953 forward $951 $-1 #
coedge $-1 -1 $-1 $850 $1010 $855 $957 forward $951 $-1 #
loop $-1 -1 $-1 $-1 $850 $1026 #
straight-curve $-1 -1 $-1 145 0 410 0 1 0 I I #
edge $1027 -1 $-1 $854 -145 $1028 145 $852 $1029 forward @7 unknown #
convexity-sys-attrib $-1 -1 $-1 $853 $713 #
point $-1 -1 $-1 145 150 410 #
coedge $-1 -1 $-1 $856 $855 $1009 $1030 reversed $792 $-1 #
edge $-1 -1 $-1 $1031 -145 $857 145 $855 $1032 forward @7 unknown #
point $-1 -1 $-1 145 -150 410 #
coedge $-1 -1 $-1 $1009 $1008 $858 $960 reversed $787 $-1 #
edge $-1 -1 $-1 $961 -150 $964 150 $858 $1033 forward @7 unknown #
vertex $-1 -1 $-1 $859 $1034 #
straight-curve $-1 -1 $-1 0 -150 500 -1 0 0 I I #
attrib_edge_convexity-kcp-attrib $-1 -1 $1035 $-1 $860 1 #
vertex $-1 -1 $-1 $860 $1036 #
straight-curve $-1 -1 $-1 0 150 500 1 0 0 I I #
coedge $-1 -1 $-1 $864 $863 $1007 $1037 forward $865 $-1 #
face $1038 -1 $-1 $882 $865 $12 $-1 $1039 forward single #
coedge $-1 -1 $-1 $874 $1007 $867 $969 reversed $920 $-1 #
edge $1040 -1 $-1 $879 -145 $971 -55 $968 $778 forward @7 unknown #
attrib_edge_convexity-kcp-attrib $-1 -1 $1041 $-1 $868 1 #
vertex $-1 -1 $-1 $868 $1042 #
straight-curve $-1 -1 $-1 0 150 310 -1 0 0 I I #
coedge $-1 -1 $-1 $1007 $874 $871 $974 forward $920 $-1 #
edge $-1 -1 $-1 $876 -145 $975 -55 $973 $790 forward @7 unknown #
vertex $-1 -1 $-1 $872 $1043 #
straight-curve $-1 -1 $-1 0 -150 310 1 0 0 I I #
straight-curve $-1 -1 $-1 -145 0 400 0 1 0 I I #
point $-1 -1 $-1 -145 -150 400 #
convexity-sys-attrib $-1 -1 $-1 $878 $734 #
point $-1 -1 $-1 -145 150 400 #
coedge $-1 -1 $-1 $883 $888 $881 $982 reversed $892 $-1 #
edge $-1 -1 $-1 $886 -150 $890 150 $881 $1044 forward @7 unknown #
model_id-kcp-attrib $-1 -1 $-1 $-1 $882 1 1021324628 1021324629 -935723007 24 #
plane-surface $-1 -1 $-1 0 0 210 0 0 1 1 0 0 forward_v I I I I #
attrib_edge_convexity-kcp-attrib $-1 -1 $1045 $-1 $884 1 #
convexity-sys-attrib $-1 -1 $-1 $885 $742 #
point $-1 -1 $-1 -145 150 210 #
point $-1 -1 $-1 -145 -150 210 #
straight-curve $-1 -1 $-1 -145 0 110 0 -1 0 I I #
convexity-sys-attrib $-1 -1 $-1 $901 $760 #
model_id-kcp-attrib $-1 -1 $-1 $-1 $905 1 1021324628 1021324629 -935723007 18 #
edge $1046 -1 $-1 $999 -305 $942 5 $908 $1047 forward @7 unknown #
attrib_edge_convexity-kcp-attrib $-1 -1 $1048 $-1 $909 1 #
straight-curve $-1 -1 $-1 155 150 255 0 0 -1 I I #
coedge $-1 -1 $-1 $1013 $910 $928 $1019 reversed $997 $-1 #
coedge $-1 -1 $-1 $910 $1013 $912 $1001 reversed $997 $-1 #
loop $-1 -1 $-1 $-1 $910 $927 #
attrib_edge_convexity-kcp-attrib $-1 -1 $1049 $-1 $911 1 #
vertex $-1 -1 $-1 $992 $1050 #
straight-curve $-1 -1 $-1 -155 150 255 0 0 -1 I I #
edge $-1 -1 $-1 $916 -150 $1015 150 $996 $1051 forward @7 unknown #
face $1052 -1 $-1 $1026 $913 $12 $-1 $1053 forward single #
convexity-sys-attrib $-1 -1 $-1 $914 $784 #
point $-1 -1 $-1 155 150 510 #
point $-1 -1 $-1 -155 150 510 #
model_id-kcp-attrib $-1 -1 $-1 $-1 $919 1 1021324628 1021324629 -935723007 17 #
coedge $-1 -1 $-1 $968 $973 $966 $1037 reversed $920 $-1 #
coedge $-1 -1 $-1 $959 $921 $922 $1012 reversed $787 $-1 #
coedge $-1 -1 $-1 $921 $959 $956 $1030 forward $787 $-1 #
coedge $-1 -1 $-1 $950 $949 $921 $1011 forward $951 $-1 #
edge $-1 -1 $-1 $1028 -150 $1031 150 $1010 $1054 forward @7 unknown #
edge $1055 -1 $-1 $964 -245 $1028 -155 $1008 $778 forward @7 unknown #
coedge $-1 -1 $-1 $996 $995 $923 $1014 reversed $997 $-1 #
edge $-1 -1 $-1 $1015 -255 $1021 255 $1013 $1056 forward @7 unknown #
vertex $-1 -1 $-1 $1001 $1057 #
straight-curve $-1 -1 $-1 150 -150 510 1 0 0 I I #
model_id-kcp-attrib $-1 -1 $-1 $-1 $927 1 1021324628 1021324629 -935723007 20 #
plane-surface $-1 -1 $-1 -155 0 255 1 0 0 0 0 -1 forward_v I I I I #
edge $1058 -1 $-1 $1021 -150 $999 150 $995 $1059 forward @7 unknown #
attrib_edge_convexity-kcp-attrib $-1 -1 $1060 $-1 $929 1 #
vertex $-1 -1 $-1 $1019 $1061 #
straight-curve $-1 -1 $-1 150 -150 0 -1 0 0 I I #
convexity-sys-attrib $-1 -1 $-1 $941 $842 #
point $-1 -1 $-1 155 150 0 #
convexity-sys-attrib $-1 -1 $-1 $944 $844 #
face $1062 -1 $-1 $967 $951 $12 $-1 $1063 forward single #
attrib_edge_convexity-kcp-attrib $-1 -1 $1064 $-1 $953 1 #
vertex $-1 -1 $-1 $953 $1065 #
straight-curve $-1 -1 $-1 0 150 410 -1 0 0 I I #
edge $-1 -1 $-1 $961 -245 $1031 -155 $1009 $790 forward @7 unknown #
vertex $-1 -1 $-1 $957 $1066 #
straight-curve $-1 -1 $-1 0 -150 410 1 0 0 I I #
straight-curve $-1 -1 $-1 -145 0 500 0 1 0 I I #
point $-1 -1 $-1 -145 -150 500 #
convexity-sys-attrib $-1 -1 $-1 $963 $860 #
point $-1 -1 $-1 -145 150 500 #
edge $-1 -1 $-1 $971 -150 $975 150 $966 $1067 forward @7 unknown #
model_id-kcp-attrib $-1 -1 $-1 $-1 $967 1 1021324628 1021324629 -935723007 23 #
plane-surface $-1 -1 $-1 0 0 310 0 0 1 1 0 0 forward_v I I I I #
attrib_edge_convexity-kcp-attrib $-1 -1 $1068 $-1 $969 1 #
convexity-sys-attrib $-1 -1 $-1 $970 $868 #
point $-1 -1 $-1 -145 150 310 #
point $-1 -1 $-1 -145 -150 310 #
straight-curve $-1 -1 $-1 -145 0 210 0 -1 0 I I #
convexity-sys-attrib $-1 -1 $-1 $985 $884 #
attrib_edge_convexity-kcp-attrib $-1 -1 $1069 $-1 $992 1 #
straight-curve $-1 -1 $-1 150 150 0 1 0 0 I I #
convexity-sys-attrib $-1 -1 $-1 $993 $909 #
convexity-sys-attrib $-1 -1 $-1 $998 $911 #
point $-1 -1 $-1 -155 150 0 #
straight-curve $-1 -1 $-1 -155 0 510 0 -1 0 I I #
model_id-kcp-attrib $-1 -1 $-1 $-1 $1002 1 1021324628 1021324629 -935723007 21 #
plane-surface $-1 -1 $-1 0 0 510 0 0 1 1 0 0 forward_v I I I I #
straight-curve $-1 -1 $-1 -145 0 410 0 -1 0 I I #
attrib_edge_convexity-kcp-attrib $-1 -1 $1070 $-1 $1012 1 #
straight-curve $-1 -1 $-1 -155 -150 255 0 0 -1 I I #
point $-1 -1 $-1 -155 -150 510 #
attrib_edge_convexity-kcp-attrib $-1 -1 $1071 $-1 $1019 1 #
straight-curve $-1 -1 $-1 -155 0 0 0 1 0 I I #
convexity-sys-attrib $-1 -1 $-1 $1020 $929 #
point $-1 -1 $-1 -155 -150 0 #
model_id-kcp-attrib $-1 -1 $-1 $-1 $1026 1 1021324628 1021324629 -935723007 22 #
plane-surface $-1 -1 $-1 0 0 410 0 0 1 1 0 0 forward_v I I I I #
convexity-sys-attrib $-1 -1 $-1 $1027 $953 #
point $-1 -1 $-1 -145 150 410 #
point $-1 -1 $-1 -145 -150 410 #
straight-curve $-1 -1 $-1 -145 0 310 0 -1 0 I I #
convexity-sys-attrib $-1 -1 $-1 $1040 $969 #
convexity-sys-attrib $-1 -1 $-1 $1046 $992 #
convexity-sys-attrib $-1 -1 $-1 $1055 $1012 #
convexity-sys-attrib $-1 -1 $-1 $1058 $1019 #
End-of-ACIS-data 