201 0 1 0           
7 Unknown 16 ACIS 2.1 Solaris 24 Thu Jan 30 12:41:44 1997 
-1 9.999999999999999547e-07 1.000000000000000036e-10 
body $1 $2 $-1 $3 #
display_attribute-st-attrib $-1 $4 $-1 $0 2 #
lump $-1 $-1 $5 $0 #
transform $-1 1 0 0 0 1 0 0 0 1 0 0 5 1 rotate no_reflect no_shear #
rgb_color-st-attrib $-1 $6 $1 $0 0 1 0 #
shell $-1 $-1 $-1 $7 $-1 $2 #
id_attribute-st-attrib $-1 $-1 $4 $0 73 #
face $-1 $8 $9 $5 $-1 $10 reversed single #
face $-1 $11 $12 $5 $-1 $10 reversed single #
loop $-1 $-1 $13 $7 #
plane-surface $-1 145 0 250 1 0 0 0 0 -1 forward_v I I I I #
face $-1 $14 $15 $5 $-1 $10 reversed single #
loop $-1 $-1 $16 $8 #
coedge $-1 $17 $18 $19 $20 1 $9 $-1 #
face $-1 $21 $22 $5 $-1 $10 reversed single #
loop $-1 $-1 $23 $11 #
coedge $-1 $24 $25 $26 $27 1 $12 $-1 #
coedge $-1 $28 $13 $29 $30 0 $9 $-1 #
coedge $-1 $13 $28 $31 $32 1 $9 $-1 #
coedge $-1 $33 $34 $13 $20 0 $35 $-1 #
edge $-1 $36 $37 $19 $38 forward #
face $-1 $39 $40 $5 $-1 $10 reversed single #
loop $-1 $-1 $41 $14 #
coedge $-1 $42 $43 $44 $45 1 $15 $-1 #
coedge $-1 $46 $16 $47 $48 0 $12 $-1 #
coedge $-1 $16 $46 $49 $50 1 $12 $-1 #
coedge $-1 $51 $52 $16 $27 0 $53 $-1 #
edge $-1 $54 $55 $26 $56 forward #
coedge $-1 $18 $17 $57 $58 1 $9 $-1 #
coedge $-1 $59 $60 $17 $30 1 $61 $-1 #
edge $-1 $36 $62 $29 $63 forward #
coedge $-1 $64 $65 $18 $32 0 $66 $-1 #
edge $-1 $37 $67 $18 $68 forward #
coedge $-1 $69 $19 $65 $70 0 $35 $-1 #
coedge $-1 $19 $69 $59 $71 0 $35 $-1 #
loop $-1 $-1 $19 $72 #
vertex $-1 $71 $73 #
vertex $-1 $70 $74 #
straight-curve $-1 145 0 95 0 -1 0 I I #
face $-1 $75 $76 $5 $-1 $77 reversed single #
loop $-1 $-1 $78 $21 #
coedge $-1 $79 $80 $81 $82 1 $22 $-1 #
coedge $-1 $83 $23 $84 $85 0 $15 $-1 #
coedge $-1 $23 $83 $86 $87 1 $15 $-1 #
coedge $-1 $88 $89 $23 $45 0 $90 $-1 #
edge $-1 $91 $92 $44 $93 forward #
coedge $-1 $25 $24 $94 $95 1 $12 $-1 #
coedge $-1 $96 $97 $24 $48 1 $98 $-1 #
edge $-1 $54 $99 $47 $63 forward #
coedge $-1 $100 $101 $25 $50 0 $102 $-1 #
edge $-1 $55 $103 $25 $68 forward #
coedge $-1 $104 $26 $101 $105 0 $53 $-1 #
coedge $-1 $26 $104 $96 $106 0 $53 $-1 #
loop $-1 $-1 $26 $107 #
vertex $-1 $106 $108 #
vertex $-1 $105 $109 #
straight-curve $-1 145 0 195 0 -1 0 I I #
coedge $-1 $110 $111 $28 $58 0 $112 $-1 #
edge $-1 $67 $62 $57 $113 forward #
coedge $-1 $114 $29 $34 $71 1 $61 $-1 #
coedge $-1 $29 $114 $110 $115 1 $61 $-1 #
loop $-1 $116 $59 $117 #
vertex $-1 $115 $118 #
straight-curve $-1 145 150 250 0 0 -1 I I #
coedge $-1 $119 $31 $111 $120 1 $66 $-1 #
coedge $-1 $31 $119 $33 $70 1 $66 $-1 #
loop $-1 $-1 $31 $121 #
vertex $-1 $120 $122 #
straight-curve $-1 145 -150 250 0 0 -1 I I #
coedge $-1 $34 $33 $123 $124 0 $35 $-1 #
edge $-1 $37 $125 $65 $126 forward #
edge $-1 $127 $36 $59 $128 forward #
face $-1 $129 $35 $5 $-1 $130 reversed single #
point $-1 145 150 95 #
point $-1 145 -150 95 #
face $-1 $131 $132 $5 $-1 $133 reversed single #
loop $-1 $-1 $134 $39 #
plane-surface $-1 155 0 250 -1 0 0 0 0 1 forward_v I I I I #
coedge $-1 $135 $136 $137 $138 1 $40 $-1 #
coedge $-1 $139 $41 $140 $141 0 $22 $-1 #
coedge $-1 $41 $139 $142 $143 1 $22 $-1 #
coedge $-1 $144 $145 $41 $82 0 $146 $-1 #
edge $-1 $147 $148 $81 $149 forward #
coedge $-1 $43 $42 $150 $151 1 $15 $-1 #
coedge $-1 $152 $153 $42 $85 1 $154 $-1 #
edge $-1 $91 $155 $84 $63 forward #
coedge $-1 $156 $157 $43 $87 0 $158 $-1 #
edge $-1 $92 $159 $43 $68 forward #
coedge $-1 $160 $44 $157 $161 0 $90 $-1 #
coedge $-1 $44 $160 $152 $162 0 $90 $-1 #
loop $-1 $-1 $44 $163 #
vertex $-1 $162 $164 #
vertex $-1 $161 $165 #
straight-curve $-1 145 0 295 0 -1 0 I I #
coedge $-1 $166 $167 $46 $95 0 $168 $-1 #
edge $-1 $103 $99 $94 $169 forward #
coedge $-1 $170 $47 $52 $106 1 $98 $-1 #
coedge $-1 $47 $170 $166 $171 1 $98 $-1 #
loop $-1 $61 $96 $117 #
vertex $-1 $171 $172 #
coedge $-1 $173 $49 $167 $174 1 $102 $-1 #
coedge $-1 $49 $173 $51 $105 1 $102 $-1 #
loop $-1 $66 $49 $121 #
vertex $-1 $174 $175 #
coedge $-1 $52 $51 $176 $177 0 $53 $-1 #
edge $-1 $55 $178 $101 $179 forward #
edge $-1 $180 $54 $96 $181 forward #
face $-1 $72 $53 $5 $-1 $182 reversed single #
point $-1 145 150 195 #
point $-1 145 -150 195 #
coedge $-1 $183 $57 $60 $115 0 $112 $-1 #
coedge $-1 $57 $183 $64 $120 0 $112 $-1 #
loop $-1 $-1 $57 $184 #
straight-curve $-1 145 0 5 0 1 0 I I #
coedge $-1 $60 $59 $185 $186 0 $61 $-1 #
edge $-1 $62 $187 $60 $188 forward #
loop $-1 $-1 $189 $117 #
face $-1 $190 $191 $5 $-1 $192 reversed single #
point $-1 145 150 5 #
coedge $-1 $65 $64 $193 $194 1 $66 $-1 #
edge $-1 $195 $67 $64 $196 forward #
face $-1 $-1 $197 $5 $-1 $198 reversed single #
point $-1 145 -150 5 #
coedge $-1 $193 $185 $69 $124 1 $199 $-1 #
edge $-1 $125 $127 $69 $200 forward #
vertex $-1 $70 $201 #
straight-curve $-1 0 -150 95 -1 0 0 I I #
vertex $-1 $71 $202 #
straight-curve $-1 0 150 95 1 0 0 I I #
face $-1 $117 $203 $5 $-1 $204 reversed single #
plane-surface $-1 0 0 95 0 0 1 1 0 0 forward_v I I I I #
face $-1 $163 $146 $5 $-1 $205 reversed single #
loop $-1 $-1 $137 $75 #
plane-surface $-1 0 0 495 0 0 1 1 0 0 forward_v I I I I #
coedge $-1 $206 $207 $208 $209 0 $76 $-1 #
coedge $-1 $210 $78 $211 $212 0 $40 $-1 #
coedge $-1 $78 $210 $213 $214 1 $40 $-1 #
coedge $-1 $215 $216 $78 $138 0 $132 $-1 #
edge $-1 $217 $218 $137 $219 forward #
coedge $-1 $80 $79 $220 $221 1 $22 $-1 #
coedge $-1 $222 $223 $79 $141 1 $224 $-1 #
edge $-1 $147 $225 $140 $63 forward #
coedge $-1 $226 $227 $80 $143 0 $228 $-1 #
edge $-1 $148 $229 $80 $68 forward #
coedge $-1 $230 $81 $227 $231 0 $146 $-1 #
coedge $-1 $81 $230 $222 $232 0 $146 $-1 #
loop $-1 $-1 $81 $131 #
vertex $-1 $232 $233 #
vertex $-1 $231 $234 #
straight-curve $-1 145 0 395 0 -1 0 I I #
coedge $-1 $235 $236 $83 $151 0 $237 $-1 #
edge $-1 $159 $155 $150 $238 forward #
coedge $-1 $239 $84 $89 $162 1 $154 $-1 #
coedge $-1 $84 $239 $235 $240 1 $154 $-1 #
loop $-1 $98 $152 $117 #
vertex $-1 $240 $241 #
coedge $-1 $242 $86 $236 $243 1 $158 $-1 #
coedge $-1 $86 $242 $88 $161 1 $158 $-1 #
loop $-1 $102 $86 $121 #
vertex $-1 $243 $244 #
coedge $-1 $89 $88 $245 $246 0 $90 $-1 #
edge $-1 $92 $247 $157 $248 forward #
edge $-1 $249 $91 $152 $250 forward #
face $-1 $107 $90 $5 $-1 $251 reversed single #
point $-1 145 150 295 #
point $-1 145 -150 295 #
coedge $-1 $252 $94 $97 $171 0 $168 $-1 #
coedge $-1 $94 $252 $100 $174 0 $168 $-1 #
loop $-1 $-1 $94 $253 #
straight-curve $-1 145 0 105 0 1 0 I I #
coedge $-1 $97 $96 $254 $255 0 $98 $-1 #
edge $-1 $99 $256 $97 $257 forward #
point $-1 145 150 105 #
coedge $-1 $101 $100 $258 $259 1 $102 $-1 #
edge $-1 $260 $103 $100 $261 forward #
point $-1 145 -150 105 #
coedge $-1 $258 $254 $104 $177 1 $262 $-1 #
edge $-1 $178 $180 $104 $263 forward #
vertex $-1 $105 $264 #
straight-curve $-1 0 -150 195 -1 0 0 I I #
vertex $-1 $106 $265 #
straight-curve $-1 0 150 195 1 0 0 I I #
plane-surface $-1 0 0 195 0 0 1 1 0 0 forward_v I I I I #
coedge $-1 $111 $110 $266 $267 0 $112 $-1 #
face $-1 $121 $112 $5 $-1 $268 forward single #
coedge $-1 $123 $266 $114 $186 1 $199 $-1 #
edge $-1 $127 $187 $185 $269 forward #
vertex $-1 $115 $270 #
straight-curve $-1 0 150 5 -1 0 0 I I #
coedge $-1 $271 $272 $273 $274 1 $116 $-1 #
face $-1 $275 $276 $5 $-1 $277 reversed single #
loop $-1 $224 $278 $117 #
plane-surface $-1 0 150 0 0 -1 0 0 0 -1 forward_v I I I I #
coedge $-1 $266 $123 $119 $194 0 $199 $-1 #
edge $-1 $125 $195 $193 $279 forward #
vertex $-1 $120 $280 #
straight-curve $-1 0 -150 5 1 0 0 I I #
loop $-1 $281 $282 $121 #
plane-surface $-1 0 -150 0 0 1 -0 -0 0 1 forward_v I I I I #
loop $-1 $-1 $266 $283 #
straight-curve $-1 -145 0 95 0 1 -0 I I #
point $-1 -145 -150 95 #
point $-1 -145 150 95 #
loop $-1 $-1 $284 $129 #
plane-surface $-1 0 0 -5 0 0 1 1 0 0 forward_v I I I I #
plane-surface $-1 0 0 395 0 0 1 1 0 0 forward_v I I I I #
coedge $-1 $285 $134 $286 $287 1 $76 $-1 #
coedge $-1 $134 $285 $288 $289 1 $76 $-1 #
coedge $-1 $282 $290 $134 $209 1 $197 $-1 #
edge $-1 $291 $292 $134 $293 forward #
coedge $-1 $136 $135 $294 $295 1 $40 $-1 #
coedge $-1 $278 $296 $135 $212 1 $191 $-1 #
edge $-1 $217 $297 $211 $63 forward #
coedge $-1 $298 $299 $136 $214 0 $281 $-1 #
edge $-1 $218 $300 $136 $68 forward #
coedge $-1 $301 $137 $299 $302 0 $132 $-1 #
coedge $-1 $137 $301 $278 $303 0 $132 $-1 #
vertex $-1 $303 $304 #
vertex $-1 $302 $305 #
straight-curve $-1 145 0 495 0 -1 0 I I #
coedge $-1 $306 $307 $139 $221 0 $308 $-1 #
edge $-1 $229 $225 $220 $309 forward #
coedge $-1 $310 $140 $145 $232 1 $224 $-1 #
coedge $-1 $140 $310 $306 $311 1 $224 $-1 #
loop $-1 $154 $222 $117 #
vertex $-1 $311 $312 #
coedge $-1 $313 $142 $307 $314 1 $228 $-1 #
coedge $-1 $142 $313 $144 $231 1 $228 $-1 #
loop $-1 $158 $142 $121 #
vertex $-1 $314 $315 #
coedge $-1 $145 $144 $316 $317 0 $146 $-1 #
edge $-1 $148 $318 $227 $319 forward #
edge $-1 $320 $147 $222 $321 forward #
point $-1 145 150 395 #
point $-1 145 -150 395 #
coedge $-1 $322 $150 $153 $240 0 $237 $-1 #
coedge $-1 $150 $322 $156 $243 0 $237 $-1 #
loop $-1 $-1 $150 $323 #
straight-curve $-1 145 0 205 0 1 0 I I #
coedge $-1 $153 $152 $324 $325 0 $154 $-1 #
edge $-1 $155 $326 $153 $327 forward #
point $-1 145 150 205 #
coedge $-1 $157 $156 $328 $329 1 $158 $-1 #
edge $-1 $330 $159 $156 $331 forward #
point $-1 145 -150 205 #
coedge $-1 $328 $324 $160 $246 1 $332 $-1 #
edge $-1 $247 $249 $160 $333 forward #
vertex $-1 $161 $334 #
straight-curve $-1 0 -150 295 -1 0 0 I I #
vertex $-1 $162 $335 #
straight-curve $-1 0 150 295 1 0 0 I I #
plane-surface $-1 0 0 295 0 0 1 1 0 0 forward_v I I I I #
coedge $-1 $167 $166 $336 $337 0 $168 $-1 #
face $-1 $184 $168 $5 $-1 $338 forward single #
coedge $-1 $176 $336 $170 $255 1 $262 $-1 #
edge $-1 $180 $256 $254 $269 forward #
vertex $-1 $171 $339 #
straight-curve $-1 0 150 105 -1 0 0 I I #
coedge $-1 $336 $176 $173 $259 0 $262 $-1 #
edge $-1 $178 $260 $258 $279 forward #
vertex $-1 $174 $340 #
straight-curve $-1 0 -150 105 1 0 0 I I #
loop $-1 $-1 $336 $341 #
straight-curve $-1 -145 0 195 0 1 -0 I I #
point $-1 -145 -150 195 #
point $-1 -145 150 195 #
coedge $-1 $185 $193 $183 $267 1 $199 $-1 #
edge $-1 $187 $195 $183 $342 forward #
plane-surface $-1 0 0 5 0 0 1 1 0 0 forward_v I I I I #
straight-curve $-1 -145 150 250 0 0 -1 I I #
point $-1 -145 150 5 #
coedge $-1 $343 $189 $285 $344 0 $116 $-1 #
coedge $-1 $189 $343 $345 $346 1 $116 $-1 #
coedge $-1 $347 $288 $189 $274 0 $348 $-1 #
edge $-1 $349 $350 $189 $351 forward #
face $-1 $352 $353 $5 $-1 $277 reversed single #
loop $-1 $-1 $354 $190 #
plane-surface $-1 -145 0 250 -1 0 0 0 0 1 forward_v I I I I #
coedge $-1 $355 $211 $216 $303 1 $191 $-1 #
straight-curve $-1 -145 -150 250 0 0 -1 I I #
point $-1 -145 -150 5 #
loop $-1 $228 $213 $121 #
coedge $-1 $356 $208 $357 $358 1 $197 $-1 #
face $-1 $359 $199 $5 $-1 $277 reversed single #
coedge $-1 $360 $286 $290 $361 0 $203 $-1 #
coedge $-1 $207 $206 $271 $344 1 $76 $-1 #
coedge $-1 $284 $362 $206 $287 0 $203 $-1 #
edge $-1 $363 $292 $206 $364 forward #
coedge $-1 $273 $357 $207 $289 0 $348 $-1 #
edge $-1 $291 $349 $207 $365 forward #
coedge $-1 $208 $356 $284 $361 1 $197 $-1 #
vertex $-1 $289 $366 #
vertex $-1 $209 $367 #
straight-curve $-1 155 -150 250 0 0 -1 I I #
coedge $-1 $368 $369 $210 $295 0 $370 $-1 #
edge $-1 $300 $297 $294 $371 forward #
coedge $-1 $211 $355 $368 $372 1 $191 $-1 #
vertex $-1 $372 $373 #
coedge $-1 $374 $213 $369 $375 1 $281 $-1 #
coedge $-1 $213 $374 $215 $302 1 $281 $-1 #
vertex $-1 $375 $376 #
coedge $-1 $216 $215 $377 $378 0 $132 $-1 #
edge $-1 $218 $379 $299 $380 forward #
edge $-1 $381 $217 $278 $382 forward #
point $-1 145 150 495 #
point $-1 145 -150 495 #
coedge $-1 $383 $220 $223 $311 0 $308 $-1 #
coedge $-1 $220 $383 $226 $314 0 $308 $-1 #
loop $-1 $-1 $220 $384 #
straight-curve $-1 145 0 305 0 1 0 I I #
coedge $-1 $223 $222 $385 $386 0 $224 $-1 #
edge $-1 $225 $387 $223 $388 forward #
point $-1 145 150 305 #
coedge $-1 $227 $226 $389 $390 1 $228 $-1 #
edge $-1 $391 $229 $226 $392 forward #
point $-1 145 -150 305 #
coedge $-1 $389 $385 $230 $317 1 $353 $-1 #
edge $-1 $318 $320 $230 $393 forward #
vertex $-1 $231 $394 #
straight-curve $-1 0 -150 395 -1 0 0 I I #
vertex $-1 $232 $395 #
straight-curve $-1 0 150 395 1 0 0 I I #
coedge $-1 $236 $235 $396 $397 0 $237 $-1 #
face $-1 $253 $237 $5 $-1 $398 forward single #
coedge $-1 $245 $396 $239 $325 1 $332 $-1 #
edge $-1 $249 $326 $324 $269 forward #
vertex $-1 $240 $399 #
straight-curve $-1 0 150 205 -1 0 0 I I #
coedge $-1 $396 $245 $242 $329 0 $332 $-1 #
edge $-1 $247 $330 $328 $279 forward #
vertex $-1 $243 $400 #
straight-curve $-1 0 -150 205 1 0 0 I I #
loop $-1 $-1 $396 $352 #
straight-curve $-1 -145 0 295 0 1 -0 I I #
point $-1 -145 -150 295 #
point $-1 -145 150 295 #
coedge $-1 $254 $258 $252 $337 1 $262 $-1 #
edge $-1 $256 $260 $252 $401 forward #
plane-surface $-1 0 0 105 0 0 1 1 0 0 forward_v I I I I #
point $-1 -145 150 105 #
point $-1 -145 -150 105 #
face $-1 $283 $262 $5 $-1 $277 reversed single #
straight-curve $-1 -145 0 5 0 -1 0 I I #
coedge $-1 $272 $271 $362 $402 1 $116 $-1 #
edge $-1 $349 $363 $285 $403 forward #
coedge $-1 $404 $405 $272 $346 0 $406 $-1 #
edge $-1 $350 $407 $272 $408 forward #
coedge $-1 $357 $273 $405 $409 0 $348 $-1 #
loop $-1 $-1 $273 $410 #
vertex $-1 $289 $411 #
vertex $-1 $274 $412 #
straight-curve $-1 0 150 505 -1 0 0 I I #
face $-1 $341 $332 $5 $-1 $277 reversed single #
loop $-1 $-1 $413 $275 #
coedge $-1 $414 $415 $416 $417 1 $276 $-1 #
coedge $-1 $296 $278 $414 $418 0 $191 $-1 #
coedge $-1 $290 $282 $419 $420 0 $197 $-1 #
coedge $-1 $288 $347 $282 $358 0 $348 $-1 #
edge $-1 $421 $291 $282 $422 forward #
face $-1 $410 $406 $5 $-1 $423 reversed single #
coedge $-1 $362 $284 $404 $424 0 $203 $-1 #
edge $-1 $292 $425 $290 $426 forward #
coedge $-1 $286 $360 $343 $402 0 $203 $-1 #
vertex $-1 $287 $427 #
straight-curve $-1 155 0 -5 0 -1 0 I I #
straight-curve $-1 155 0 505 0 1 0 I I #
point $-1 155 -150 505 #
point $-1 155 -150 -5 #
coedge $-1 $416 $294 $296 $372 0 $370 $-1 #
coedge $-1 $294 $416 $298 $375 0 $370 $-1 #
loop $-1 $-1 $294 $428 #
straight-curve $-1 145 0 405 0 1 0 I I #
edge $-1 $297 $429 $296 $430 forward #
point $-1 145 150 405 #
coedge $-1 $299 $298 $415 $431 1 $281 $-1 #
edge $-1 $432 $300 $298 $433 forward #
point $-1 145 -150 405 #
coedge $-1 $415 $414 $301 $378 1 $276 $-1 #
edge $-1 $379 $381 $301 $434 forward #
vertex $-1 $302 $435 #
straight-curve $-1 0 -150 495 -1 0 0 I I #
vertex $-1 $303 $436 #
straight-curve $-1 0 150 495 1 0 0 I I #
coedge $-1 $307 $306 $413 $437 0 $308 $-1 #
face $-1 $323 $308 $5 $-1 $438 forward single #
coedge $-1 $316 $413 $310 $386 1 $353 $-1 #
edge $-1 $320 $387 $385 $269 forward #
vertex $-1 $311 $439 #
straight-curve $-1 0 150 305 -1 0 0 I I #
coedge $-1 $413 $316 $313 $390 0 $353 $-1 #
edge $-1 $318 $391 $389 $279 forward #
vertex $-1 $314 $440 #
straight-curve $-1 0 -150 305 1 0 0 I I #
straight-curve $-1 -145 0 395 0 1 -0 I I #
point $-1 -145 -150 395 #
point $-1 -145 150 395 #
coedge $-1 $324 $328 $322 $397 1 $332 $-1 #
edge $-1 $326 $330 $322 $441 forward #
plane-surface $-1 0 0 205 0 0 1 1 0 0 forward_v I I I I #
point $-1 -145 150 205 #
point $-1 -145 -150 205 #
straight-curve $-1 -145 0 105 0 -1 0 I I #
edge $-1 $407 $363 $343 $442 forward #
straight-curve $-1 155 150 250 0 0 -1 I I #
coedge $-1 $419 $345 $360 $424 1 $406 $-1 #
coedge $-1 $345 $419 $347 $409 1 $406 $-1 #
loop $-1 $-1 $345 $359 #
vertex $-1 $402 $443 #
straight-curve $-1 -155 150 250 0 0 -1 I I #
edge $-1 $350 $421 $405 $444 forward #
face $-1 $428 $348 $5 $-1 $445 forward single #
point $-1 155 150 505 #
point $-1 -155 150 505 #
coedge $-1 $385 $389 $383 $437 1 $353 $-1 #
coedge $-1 $377 $354 $355 $418 1 $276 $-1 #
coedge $-1 $354 $377 $374 $431 0 $276 $-1 #
coedge $-1 $369 $368 $354 $417 0 $370 $-1 #
edge $-1 $429 $432 $416 $446 forward #
edge $-1 $381 $429 $414 $269 forward #
coedge $-1 $405 $404 $356 $420 1 $406 $-1 #
edge $-1 $421 $425 $419 $447 forward #
vertex $-1 $409 $448 #
straight-curve $-1 150 -150 505 1 0 0 I I #
plane-surface $-1 -155 0 250 1 0 0 0 0 -1 forward_v I I I I #
edge $-1 $425 $407 $404 $449 forward #
vertex $-1 $424 $450 #
straight-curve $-1 150 -150 -5 -1 0 0 I I #
point $-1 155 150 -5 #
face $-1 $384 $370 $5 $-1 $451 forward single #
vertex $-1 $372 $452 #
straight-curve $-1 0 150 405 -1 0 0 I I #
edge $-1 $379 $432 $415 $279 forward #
vertex $-1 $375 $453 #
straight-curve $-1 0 -150 405 1 0 0 I I #
straight-curve $-1 -145 0 495 0 1 -0 I I #
point $-1 -145 -150 495 #
point $-1 -145 150 495 #
edge $-1 $387 $391 $383 $454 forward #
plane-surface $-1 0 0 305 0 0 1 1 0 0 forward_v I I I I #
point $-1 -145 150 305 #
point $-1 -145 -150 305 #
straight-curve $-1 -145 0 205 0 -1 0 I I #
straight-curve $-1 150 150 -5 1 0 0 I I #
point $-1 -155 150 -5 #
straight-curve $-1 -155 0 505 0 -1 0 I I #
plane-surface $-1 0 0 505 0 0 1 1 0 0 forward_v I I I I #
straight-curve $-1 -145 0 405 0 -1 0 I I #
straight-curve $-1 -155 -150 250 0 0 -1 I I #
point $-1 -155 -150 505 #
straight-curve $-1 -155 0 -5 0 1 0 I I #
point $-1 -155 -150 -5 #
plane-surface $-1 0 0 405 0 0 1 1 0 0 forward_v I I I I #
point $-1 -145 150 405 #
point $-1 -145 -150 405 #
straight-curve $-1 -145 0 305 0 -1 0 I I #
End-of-ACIS-data 