600 0 1 0           
97 GICL Pro/E ACIS Translator - Source: f:/data5/repository/PTC/V18/cabdia18/dsub-idc-male.prt - 6 0 13 ACIS 6.0.3 NT 24 Thu Apr 04 13:40:16 2002 
1 9.9999999999999995e-007 1e-010 
body $-1 $1 $-1 $2 #
lump $-1 $-1 $3 $0 #
transform $-1 1 0 0 0 1 0 0 0 1 0 0 0 25.399999999999999 no_rotate no_reflect no_shear #
shell $-1 $-1 $-1 $4 $-1 $1 #
face $-1 $5 $6 $3 $-1 $7 reversed single #
face $-1 $8 $9 $3 $-1 $10 forward single #
loop $-1 $-1 $11 $4 #
plane-surface $-1 -0.60650000000000004 0 0 1 0 0 0 0 1 forward_v I I I I #
face $-1 $12 $13 $3 $-1 $14 forward single #
loop $-1 $-1 $15 $5 #
plane-surface $-1 -0.60650000000000004 0.247 0 0 1 0 0 0 1 forward_v I I I I #
coedge $-1 $16 $17 $18 $19 reversed $6 $-1 #
face $-1 $20 $21 $3 $-1 $22 forward single #
loop $-1 $23 $24 $8 #
plane-surface $-1 -0.60650000000000004 0.247 0.044999999999999998 0 0 1 0 -1 0 forward_v I I I I #
coedge $-1 $25 $18 $24 $26 forward $9 $-1 #
coedge $-1 $27 $11 $28 $29 reversed $6 $-1 #
coedge $-1 $11 $27 $30 $31 forward $6 $-1 #
coedge $-1 $15 $32 $11 $19 forward $9 $-1 #
edge $-1 $33 0 $34 0.044999999999999998 $11 $35 forward 7 unknown #
face $-1 $36 $37 $3 $-1 $38 forward single #
loop $-1 $-1 $39 $12 #
plane-surface $-1 -0.60650000000000004 -0.247 0.044999999999999998 0 -1 0 0 0 -1 forward_v I I I I #
loop $-1 $-1 $40 $8 #
coedge $-1 $30 $41 $15 $26 reversed $13 $-1 #
coedge $-1 $32 $15 $42 $43 reversed $9 $-1 #
edge $-1 $34 0 $44 1.2130000000000001 $15 $45 forward 7 unknown #
coedge $-1 $17 $16 $46 $47 reversed $6 $-1 #
coedge $-1 $48 $49 $16 $29 forward $37 $-1 #
edge $-1 $50 0 $33 0.49399999999999999 $16 $51 forward 7 unknown #
coedge $-1 $52 $24 $17 $31 reversed $13 $-1 #
edge $-1 $53 0 $34 0.49399999999999999 $17 $54 forward 7 unknown #
coedge $-1 $18 $25 $48 $55 reversed $9 $-1 #
vertex $-1 $29 $56 #
vertex $-1 $31 $57 #
straight-curve $-1 -0.60650000000000004 0.247 0 0 0 1 I I #
face $-1 $58 $59 $3 $-1 $60 forward single #
loop $-1 $61 $48 $20 #
plane-surface $-1 -0.60650000000000004 -0.247 0 0 0 -1 0 1 0 forward_v I I I I #
coedge $-1 $62 $46 $49 $63 forward $21 $-1 #
coedge $-1 $64 $65 $66 $67 forward $23 $-1 #
coedge $-1 $24 $52 $68 $69 reversed $13 $-1 #
coedge $-1 $68 $70 $25 $43 forward $59 $-1 #
edge $-1 $71 0 $44 0.044999999999999998 $42 $72 forward 7 unknown #
vertex $-1 $69 $73 #
straight-curve $-1 -0.60650000000000004 0.247 0.044999999999999998 1 0 0 I I #
coedge $-1 $39 $74 $27 $47 forward $21 $-1 #
edge $-1 $53 0 $50 0.044999999999999998 $27 $75 forward 7 unknown #
coedge $-1 $76 $28 $32 $55 forward $37 $-1 #
coedge $-1 $28 $76 $39 $63 reversed $37 $-1 #
vertex $-1 $47 $77 #
straight-curve $-1 -0.60650000000000004 -0.247 0 0 1 0 I I #
coedge $-1 $41 $30 $74 $78 forward $13 $-1 #
vertex $-1 $31 $79 #
straight-curve $-1 -0.60650000000000004 -0.247 0.044999999999999998 0 1 0 I I #
edge $-1 $33 0 $71 1.2130000000000001 $48 $80 forward 7 unknown #
point $-1 -0.60650000000000004 0.247 0 #
point $-1 -0.60650000000000004 0.247 0.044999999999999998 #
face $-1 $81 $82 $3 $-1 $83 forward single #
loop $-1 $-1 $84 $36 #
plane-surface $-1 0.60650000000000004 0 0 1 0 0 0 0 1 forward_v I I I I #
loop $-1 $-1 $85 $20 #
coedge $-1 $74 $39 $84 $86 reversed $21 $-1 #
edge $-1 $50 0 $87 1.2130000000000001 $49 $88 forward 7 unknown #
coedge $-1 $89 $40 $90 $91 reversed $23 $-1 #
coedge $-1 $40 $89 $92 $93 reversed $23 $-1 #
coedge $-1 $94 $95 $40 $67 reversed $96 $-1 #
edge $-1 $97 0 $98 0.71600000000000019 $40 $99 forward 7 unknown #
coedge $-1 $84 $42 $41 $69 forward $59 $-1 #
edge $-1 $44 0 $100 0.49399999999999999 $68 $101 forward 7 unknown #
coedge $-1 $42 $84 $76 $102 forward $59 $-1 #
vertex $-1 $43 $103 #
straight-curve $-1 0.60650000000000004 0.247 0 0 0 1 I I #
point $-1 0.60650000000000004 0.247 0.044999999999999998 #
coedge $-1 $46 $62 $52 $78 reversed $21 $-1 #
straight-curve $-1 -0.60650000000000004 -0.247 0.044999999999999998 0 0 -1 I I #
coedge $-1 $49 $48 $70 $102 reversed $37 $-1 #
point $-1 -0.60650000000000004 -0.247 0 #
edge $-1 $53 0 $100 1.2130000000000001 $52 $104 forward 7 unknown #
point $-1 -0.60650000000000004 -0.247 0.044999999999999998 #
straight-curve $-1 -0.60650000000000004 0.247 0 1 0 0 I I #
face $-1 $105 $106 $3 $-1 $107 forward single #
loop $-1 $-1 $108 $58 #
plane-surface $-1 -0.29400000000000004 0.215 0 0 1 0 1 0 0 forward_v I I I I #
coedge $-1 $70 $68 $62 $86 forward $59 $-1 #
coedge $-1 $109 $110 $111 $112 reversed $61 $-1 #
edge $-1 $100 0 $87 0.044999999999999998 $84 $113 forward 7 unknown #
vertex $-1 $102 $114 #
straight-curve $-1 -0.60650000000000004 -0.247 0 1 0 0 I I #
coedge $-1 $65 $64 $115 $116 reversed $23 $-1 #
coedge $-1 $117 $118 $64 $91 forward $119 $-1 #
edge $-1 $120 0 $98 0.38078497945715434 $64 $121 forward 7 unknown #
coedge $-1 $122 $123 $65 $93 forward $124 $-1 #
edge $-1 $97 0 $125 0.38078497945715445 $65 $126 forward 7 unknown #
coedge $-1 $127 $66 $123 $128 forward $96 $-1 #
coedge $-1 $66 $127 $117 $129 reversed $96 $-1 #
loop $-1 $-1 $127 $130 #
vertex $-1 $93 $131 #
vertex $-1 $91 $132 #
straight-curve $-1 -0.35800000000000004 0.1825 0.044999999999999998 1 0 0 I I #
vertex $-1 $69 $133 #
straight-curve $-1 0.60650000000000004 0.247 0.044999999999999998 0 -1 0 I I #
edge $-1 $87 0 $71 0.49399999999999999 $70 $134 forward 7 unknown #
point $-1 0.60650000000000004 0.247 0 #
straight-curve $-1 -0.60650000000000004 -0.247 0.044999999999999998 1 0 0 I I #
face $-1 $135 $136 $3 $-1 $137 forward single #
loop $-1 $-1 $138 $81 #
plane-surface $-1 0.29400000000000004 0.215 0 1 0 0 0 -1 0 forward_v I I I I #
coedge $-1 $139 $111 $140 $141 forward $82 $-1 #
coedge $-1 $142 $85 $143 $144 reversed $61 $-1 #
coedge $-1 $85 $142 $145 $146 reversed $61 $-1 #
coedge $-1 $108 $147 $85 $112 forward $82 $-1 #
edge $-1 $148 0 $149 0.58800000000000008 $85 $150 forward 7 unknown #
straight-curve $-1 0.60650000000000004 -0.247 0.044999999999999998 0 0 -1 I I #
point $-1 0.60650000000000004 -0.247 0 #
coedge $-1 $151 $152 $89 $116 forward $153 $-1 #
edge $-1 $125 0 $120 0.58375476446865138 $89 $154 forward 7 unknown #
coedge $-1 $155 $90 $95 $129 forward $119 $-1 #
coedge $-1 $90 $155 $151 $156 forward $119 $-1 #
loop $-1 $-1 $155 $157 #
vertex $-1 $116 $158 #
straight-curve $-1 0.29187738223432569 -0.1925 0.044999999999999998 0.17364817766693047 0.98480775301220802 0 I I #
coedge $-1 $159 $92 $152 $160 reversed $124 $-1 #
coedge $-1 $92 $159 $94 $128 reversed $124 $-1 #
loop $-1 $-1 $92 $161 #
vertex $-1 $93 $162 #
straight-curve $-1 -0.35800000000000004 0.1825 0.044999999999999998 0.1736481776669303 -0.98480775301220802 0 I I #
coedge $-1 $95 $94 $163 $164 forward $96 $-1 #
edge $-1 $97 0 $165 0.23499999999999999 $94 $166 forward 7 unknown #
edge $-1 $98 0 $167 0.23499999999999999 $95 $168 forward 7 unknown #
face $-1 $169 $96 $3 $-1 $170 forward single #
point $-1 -0.35800000000000004 0.1825 0.044999999999999998 #
point $-1 0.3580000000000001 0.1825 0.044999999999999998 #
point $-1 0.60650000000000004 -0.247 0.044999999999999998 #
straight-curve $-1 0.60650000000000004 -0.247 0 0 1 0 I I #
face $-1 $171 $172 $3 $-1 $173 forward single #
loop $-1 $-1 $174 $105 #
plane-surface $-1 0.29400000000000004 -0.215 0 0 -1 0 -1 0 0 forward_v I I I I #
coedge $-1 $175 $145 $176 $177 forward $106 $-1 #
coedge $-1 $147 $108 $178 $179 reversed $82 $-1 #
coedge $-1 $145 $175 $108 $141 reversed $106 $-1 #
edge $-1 $149 0 $180 0.54999999999999993 $140 $181 forward 7 unknown #
coedge $-1 $110 $109 $182 $183 reversed $61 $-1 #
coedge $-1 $184 $185 $109 $144 forward $172 $-1 #
edge $-1 $186 0 $148 0.42999999999999994 $109 $187 forward 7 unknown #
coedge $-1 $138 $140 $110 $146 forward $106 $-1 #
edge $-1 $149 0 $188 0.42999999999999994 $110 $189 forward 7 unknown #
coedge $-1 $111 $139 $184 $190 reversed $82 $-1 #
vertex $-1 $144 $191 #
vertex $-1 $146 $192 #
straight-curve $-1 -0.29400000000000004 0.215 0 1 0 0 I I #
coedge $-1 $193 $115 $118 $156 reversed $153 $-1 #
coedge $-1 $115 $193 $122 $160 forward $153 $-1 #
loop $-1 $-1 $115 $194 #
straight-curve $-1 -0.29187738223432569 -0.1925 0.044999999999999984 1 0 0 I I #
coedge $-1 $118 $117 $195 $196 reversed $119 $-1 #
edge $-1 $197 0 $120 0.23499999999999999 $151 $198 forward 7 unknown #
face $-1 $161 $119 $3 $-1 $199 reversed single #
point $-1 0.29187738223432569 -0.1925 0.044999999999999998 #
coedge $-1 $123 $122 $200 $201 reversed $124 $-1 #
edge $-1 $202 0 $125 0.23499999999999999 $152 $203 forward 7 unknown #
face $-1 $204 $124 $3 $-1 $205 reversed single #
point $-1 -0.29187738223432569 -0.1925 0.044999999999999998 #
coedge $-1 $200 $195 $127 $164 reversed $206 $-1 #
edge $-1 $165 0 $167 0.71600000000000019 $127 $207 forward 7 unknown #
vertex $-1 $128 $208 #
straight-curve $-1 -0.35800000000000004 0.1825 0.044999999999999998 0 0 1 I I #
vertex $-1 $129 $209 #
straight-curve $-1 0.3580000000000001 0.18249999999999994 0.044999999999999998 0 0 1 I I #
face $-1 $194 $206 $3 $-1 $210 forward single #
plane-surface $-1 -0.60650000000000004 0.1825 0.044999999999999998 0 1 0 0 0 1 forward_v I I I I #
face $-1 $130 $211 $3 $-1 $212 forward single #
loop $-1 $-1 $184 $135 #
plane-surface $-1 -0.29400000000000004 -0.215 0 -1 0 0 0 1 0 forward_v I I I I #
coedge $-1 $213 $182 $185 $214 forward $136 $-1 #
coedge $-1 $140 $138 $215 $216 reversed $106 $-1 #
coedge $-1 $182 $213 $138 $177 reversed $136 $-1 #
edge $-1 $188 0 $217 0.54999999999999993 $138 $218 forward 7 unknown #
coedge $-1 $215 $219 $139 $179 forward $211 $-1 #
edge $-1 $220 0 $180 0.58800000000000008 $178 $221 forward 7 unknown #
vertex $-1 $216 $222 #
straight-curve $-1 0.29400000000000004 0.215 0 0 0 -1 I I #
coedge $-1 $174 $176 $142 $183 forward $136 $-1 #
edge $-1 $188 0 $186 0.58800000000000008 $142 $223 forward 7 unknown #
coedge $-1 $224 $143 $147 $190 forward $172 $-1 #
coedge $-1 $143 $224 $174 $214 reversed $172 $-1 #
vertex $-1 $183 $225 #
straight-curve $-1 -0.29400000000000004 -0.215 0 0 1 0 I I #
vertex $-1 $146 $226 #
straight-curve $-1 0.29400000000000004 0.21499999999999997 0 0 -1 0 I I #
edge $-1 $148 0 $220 0.54999999999999993 $184 $227 forward 7 unknown #
point $-1 -0.29400000000000004 0.21499999999999997 0 #
point $-1 0.29400000000000004 0.21499999999999997 0 #
coedge $-1 $152 $151 $228 $229 reversed $153 $-1 #
face $-1 $157 $153 $3 $-1 $230 forward single #
coedge $-1 $163 $228 $155 $196 forward $206 $-1 #
edge $-1 $197 0 $167 0.38078497945715434 $195 $231 forward 7 unknown #
vertex $-1 $196 $232 #
straight-curve $-1 0.29187738223432569 -0.1925 0.27999999999999997 0 0 -1 I I #
plane-surface $-1 0.29187738223432569 -0.1925 0.044999999999999998 -0.98480775301220802 0.17364817766693044 0 0.17364817766693044 0.98480775301220802 0 forward_v I I I I #
coedge $-1 $228 $163 $159 $201 forward $206 $-1 #
edge $-1 $165 -9.6394102515012991e-018 $202 0.38078497945715445 $200 $233 forward 7 unknown #
vertex $-1 $201 $234 #
straight-curve $-1 -0.29187738223432569 -0.1925 0.27999999999999997 0 0 -1 I I #
face $-1 $235 $236 $3 $-1 $237 reversed single #
plane-surface $-1 -0.35800000000000004 0.1825 0.044999999999999998 0.98480775301220813 0.17364817766693033 0 0.1736481776669303 -0.98480775301220802 0 forward_v I I I I #
loop $-1 $238 $228 $169 #
straight-curve $-1 -0.3580000000000001 0.1825 0.27999999999999997 1 0 0 I I #
point $-1 -0.3580000000000001 0.1825 0.27999999999999997 #
point $-1 0.3580000000000001 0.1825 0.27999999999999997 #
plane-surface $-1 -0.60650000000000004 0.1825 0.27999999999999997 0 0 1 0 -1 0 forward_v I I I I #
loop $-1 $-1 $239 $171 #
plane-surface $-1 0 0 -0.54999999999999993 0 0 -1 -1 0 0 forward_v I I I I #
coedge $-1 $176 $174 $239 $240 reversed $136 $-1 #
edge $-1 $186 0 $241 0.54999999999999993 $174 $242 forward 7 unknown #
coedge $-1 $239 $178 $175 $216 forward $211 $-1 #
edge $-1 $180 0 $217 0.42999999999999999 $215 $243 forward 7 unknown #
vertex $-1 $216 $244 #
straight-curve $-1 0.29400000000000004 -0.215 0 0 0 -1 I I #
coedge $-1 $178 $239 $224 $245 forward $211 $-1 #
vertex $-1 $179 $246 #
straight-curve $-1 -0.29400000000000004 0.215 -0.54999999999999993 1 0 0 I I #
point $-1 0.29400000000000004 0.215 -0.54999999999999993 #
straight-curve $-1 0.29400000000000004 -0.215 0 -1 0 0 I I #
coedge $-1 $185 $184 $219 $245 reversed $172 $-1 #
point $-1 -0.29400000000000004 -0.215 0 #
point $-1 0.29400000000000004 -0.215 0 #
straight-curve $-1 -0.29400000000000004 0.215 0 0 0 -1 I I #
coedge $-1 $195 $200 $193 $229 forward $206 $-1 #
edge $-1 $202 0 $197 0.58375476446865138 $228 $247 forward 7 unknown #
plane-surface $-1 -0.60650000000000004 -0.1925 0.27999999999999997 0 -1 0 0 0 -1 forward_v I I I I #
straight-curve $-1 0.29187738223432569 -0.1925 0.27999999999999997 0.17364817766693047 0.98480775301220802 0 I I #
point $-1 0.29187738223432569 -0.1925 0.27999999999999997 #
straight-curve $-1 -0.35800000000000004 0.1825 0.27999999999999997 0.1736481776669303 -0.98480775301220802 0 I I #
point $-1 -0.29187738223432569 -0.1925 0.27999999999999997 #
face $-1 $248 $249 $3 $-1 $250 reversed single #
loop $-1 $-1 $251 $204 #
plane-surface $-1 0.32820616018514492 0.1575 0.27999999999999997 0 1 0 -1 0 0 forward_v I I I I #
loop $-1 $-1 $252 $169 #
coedge $-1 $219 $215 $213 $240 forward $211 $-1 #
edge $-1 $217 0 $241 0.58800000000000008 $239 $253 forward 7 unknown #
vertex $-1 $245 $254 #
straight-curve $-1 -0.29400000000000004 -0.215 0 0 0 -1 I I #
straight-curve $-1 0.29400000000000004 0.215 -0.54999999999999993 0 -1 0 I I #
point $-1 0.29400000000000004 -0.215 -0.54999999999999993 #
edge $-1 $241 0 $220 0.42999999999999999 $219 $255 forward 7 unknown #
point $-1 -0.29400000000000004 0.215 -0.54999999999999993 #
straight-curve $-1 -0.29187738223432569 -0.1925 0.27999999999999997 1 0 0 I I #
face $-1 $256 $257 $3 $-1 $258 reversed single #
loop $-1 $-1 $259 $235 #
plane-surface $-1 -0.32820616018514481 0.1575 0.27999999999999997 -0.98480775301220813 -0.17364817766692991 0 0.17364817766692991 -0.98480775301220813 0 forward_v I I I I #
coedge $-1 $260 $261 $262 $263 forward $236 $-1 #
coedge $-1 $264 $265 $261 $266 reversed $238 $-1 #
straight-curve $-1 0.29400000000000004 -0.215 -0.54999999999999993 -1 0 0 I I #
point $-1 -0.29400000000000004 -0.215 -0.54999999999999993 #
straight-curve $-1 -0.29400000000000004 -0.215 -0.54999999999999993 0 1 0 I I #
face $-1 $267 $268 $3 $-1 $269 reversed single #
loop $-1 $-1 $270 $248 #
plane-surface $-1 -0.27089989145489385 -0.16749999999999998 0.27999999999999997 0 -1 0 1 0 0 forward_v I I I I #
coedge $-1 $271 $272 $273 $274 forward $249 $-1 #
coedge $-1 $275 $251 $276 $277 reversed $236 $-1 #
coedge $-1 $251 $275 $252 $266 forward $236 $-1 #
coedge $-1 $272 $271 $251 $263 reversed $249 $-1 #
edge $-1 $278 0 $279 0.23499999999999999 $262 $280 forward 7 unknown #
coedge $-1 $281 $252 $282 $283 reversed $238 $-1 #
coedge $-1 $252 $281 $272 $284 reversed $238 $-1 #
edge $-1 $285 0 $278 0.65641232037028974 $252 $286 forward 7 unknown #
face $-1 $-1 $287 $3 $-1 $288 forward single #
loop $-1 $-1 $289 $256 #
plane-surface $-1 0.27089989145489368 -0.16749999999999998 0.27999999999999997 0.98480775301220802 -0.17364817766693075 0 0.17364817766693075 0.98480775301220802 0 forward_v I I I I #
coedge $-1 $290 $291 $292 $293 forward $257 $-1 #
coedge $-1 $262 $259 $294 $295 reversed $249 $-1 #
coedge $-1 $259 $262 $265 $284 forward $249 $-1 #
coedge $-1 $291 $290 $259 $274 reversed $257 $-1 #
edge $-1 $296 0 $297 0.23499999999999999 $259 $298 forward 7 unknown #
coedge $-1 $261 $260 $289 $299 reversed $236 $-1 #
coedge $-1 $294 $300 $260 $277 forward $287 $-1 #
edge $-1 $301 0 $279 0.65641232037028974 $276 $302 forward 7 unknown #
vertex $-1 $284 $303 #
vertex $-1 $295 $304 #
straight-curve $-1 -0.32820616018514481 0.1575 0.27999999999999997 0 0 -1 I I #
coedge $-1 $265 $264 $291 $305 reversed $238 $-1 #
coedge $-1 $289 $292 $264 $283 forward $268 $-1 #
edge $-1 $306 0 $285 0.3300136488628671 $264 $307 forward 7 unknown #
edge $-1 $278 0 $296 0.33001364886286705 $265 $308 forward 7 unknown #
vertex $-1 $283 $309 #
straight-curve $-1 0.32820616018514492 0.1575 0.27999999999999997 -1 0 0 I I #
loop $-1 $-1 $310 $267 #
plane-surface $-1 -0.60650000000000004 0.1825 0.044999999999999984 0 0 1 1 0 0 forward_v I I I I #
coedge $-1 $311 $282 $275 $299 forward $268 $-1 #
coedge $-1 $273 $270 $310 $312 reversed $257 $-1 #
coedge $-1 $270 $273 $281 $305 forward $257 $-1 #
coedge $-1 $282 $311 $270 $293 reversed $268 $-1 #
edge $-1 $306 0 $313 0.23499999999999999 $270 $314 forward 7 unknown #
coedge $-1 $310 $276 $271 $295 forward $287 $-1 #
edge $-1 $279 0 $297 0.33001364886286705 $294 $315 forward 7 unknown #
vertex $-1 $284 $316 #
vertex $-1 $295 $317 #
straight-curve $-1 -0.27089989145489385 -0.16749999999999995 0.27999999999999997 0 0 -1 I I #
edge $-1 $285 0 $301 0.23499999999999999 $289 $318 forward 7 unknown #
coedge $-1 $276 $310 $311 $319 forward $287 $-1 #
vertex $-1 $277 $320 #
straight-curve $-1 0.32820616018514492 0.1575 0.044999999999999984 -1 0 0 I I #
point $-1 -0.32820616018514481 0.1575 0.27999999999999997 #
point $-1 -0.32820616018514481 0.1575 0.044999999999999984 #
edge $-1 $296 0 $306 0.54179978290978759 $281 $321 forward 7 unknown #
vertex $-1 $305 $322 #
straight-curve $-1 0.27089989145489368 -0.16749999999999998 0.27999999999999997 0.17364817766693075 0.98480775301220802 0 I I #
straight-curve $-1 -0.32820616018514481 0.1575 0.27999999999999997 0.17364817766692991 -0.98480775301220813 0 I I #
point $-1 0.32820616018514492 0.1575 0.27999999999999997 #
coedge $-1 $300 $294 $290 $312 forward $287 $-1 #
coedge $-1 $292 $289 $300 $319 reversed $268 $-1 #
edge $-1 $297 0 $313 0.54179978290978759 $310 $323 forward 7 unknown #
vertex $-1 $319 $324 #
straight-curve $-1 0.27089989145489374 -0.16749999999999998 0.27999999999999997 0 0 -1 I I #
straight-curve $-1 -0.32820616018514481 0.1575 0.044999999999999984 0.17364817766692991 -0.98480775301220813 0 I I #
point $-1 -0.27089989145489385 -0.16749999999999998 0.27999999999999997 #
point $-1 -0.27089989145489385 -0.16749999999999998 0.044999999999999984 #
straight-curve $-1 0.32820616018514492 0.15749999999999997 0.27999999999999997 0 0 -1 I I #
edge $-1 $313 0 $301 0.3300136488628671 $300 $325 forward 7 unknown #
point $-1 0.32820616018514492 0.1575 0.044999999999999984 #
straight-curve $-1 -0.27089989145489385 -0.16749999999999998 0.27999999999999997 1 0 0 I I #
point $-1 0.27089989145489368 -0.16749999999999998 0.27999999999999997 #
straight-curve $-1 -0.27089989145489385 -0.16749999999999998 0.044999999999999984 1 0 0 I I #
point $-1 0.27089989145489368 -0.16749999999999998 0.044999999999999984 #
straight-curve $-1 0.27089989145489368 -0.16749999999999998 0.044999999999999984 0.17364817766693075 0.98480775301220802 0 I I #
End-of-ACIS-data 