600 0 1 0           
90 GICL ACIS Healer - Source: /gicl/data5/repository/PTC/V18/cabdia18/dsub-idc-male.sat - 6 0 18 ACIS 6.0.3 Solaris 24 Sat Apr 13 22:29:33 2002 
1 9.999999999999999547e-07 1.000000000000000036e-10 
body $-1 $1 $-1 $-1 #
lump $-1 $-1 $2 $0 #
shell $-1 $-1 $-1 $3 $-1 $1 #
face $-1 $4 $5 $2 $-1 $6 reversed single #
face $-1 $7 $8 $2 $-1 $9 forward single #
loop $-1 $-1 $10 $3 #
plane-surface $-1 -15.4051000000000009 0 0 1 0 0 0 0 25.39999999999999858 forward_v I I I I #
face $-1 $11 $12 $2 $-1 $13 forward single #
loop $-1 $-1 $14 $4 #
plane-surface $-1 -15.4051000000000009 6.273799999999999599 0 0 1 0 0 0 25.39999999999999858 forward_v I I I I #
coedge $-1 $15 $16 $17 $18 reversed $5 $-1 #
face $-1 $19 $20 $2 $-1 $21 forward single #
loop $-1 $22 $23 $7 #
plane-surface $-1 -15.4051000000000009 6.273799999999999599 1.142999999999999794 0 0 1 0 -25.39999999999999858 0 forward_v I I I I #
coedge $-1 $24 $17 $23 $25 forward $8 $-1 #
coedge $-1 $26 $10 $27 $28 reversed $5 $-1 #
coedge $-1 $10 $26 $29 $30 forward $5 $-1 #
coedge $-1 $14 $31 $10 $18 forward $8 $-1 #
edge $-1 $32 0 $33 0.0449999999999999914 $10 $34 forward 7 unknown #
face $-1 $35 $36 $2 $-1 $37 forward single #
loop $-1 $-1 $38 $11 #
plane-surface $-1 -15.4051000000000009 -6.273799999999999599 1.142999999999999794 0 -1 0 0 0 -25.39999999999999858 forward_v I I I I #
loop $-1 $-1 $39 $7 #
coedge $-1 $29 $40 $14 $25 reversed $12 $-1 #
coedge $-1 $31 $14 $41 $42 reversed $8 $-1 #
edge $-1 $33 0 $43 1.213000000000000078 $14 $44 forward 7 unknown #
coedge $-1 $16 $15 $45 $46 reversed $5 $-1 #
coedge $-1 $47 $48 $15 $28 forward $36 $-1 #
edge $-1 $49 0 $32 0.4939999999999999947 $15 $50 forward 7 unknown #
coedge $-1 $51 $23 $16 $30 reversed $12 $-1 #
edge $-1 $52 0 $33 0.4939999999999999947 $16 $53 forward 7 unknown #
coedge $-1 $17 $24 $47 $54 reversed $8 $-1 #
vertex $-1 $28 $55 #
vertex $-1 $30 $56 #
straight-curve $-1 -15.4051000000000009 6.273799999999999599 0 0 0 25.39999999999999858 I I #
face $-1 $57 $58 $2 $-1 $59 forward single #
loop $-1 $60 $47 $19 #
plane-surface $-1 -15.4051000000000009 -6.273799999999999599 0 0 0 -1 0 25.39999999999999858 0 forward_v I I I I #
coedge $-1 $61 $45 $48 $62 forward $20 $-1 #
coedge $-1 $63 $64 $65 $66 forward $22 $-1 #
coedge $-1 $23 $51 $67 $68 reversed $12 $-1 #
coedge $-1 $67 $69 $24 $42 forward $58 $-1 #
edge $-1 $70 0 $43 0.0449999999999999914 $41 $71 forward 7 unknown #
vertex $-1 $68 $72 #
straight-curve $-1 -15.4051000000000009 6.273799999999999599 1.142999999999999794 25.39999999999999858 0 0 I I #
coedge $-1 $38 $73 $26 $46 forward $20 $-1 #
edge $-1 $52 0 $49 0.0449999999999999914 $26 $74 forward 7 unknown #
coedge $-1 $75 $27 $31 $54 forward $36 $-1 #
coedge $-1 $27 $75 $38 $62 reversed $36 $-1 #
vertex $-1 $46 $76 #
straight-curve $-1 -15.4051000000000009 -6.273799999999999599 0 0 25.39999999999999858 0 I I #
coedge $-1 $40 $29 $73 $77 forward $12 $-1 #
vertex $-1 $30 $78 #
straight-curve $-1 -15.4051000000000009 -6.273799999999999599 1.142999999999999794 0 25.39999999999999858 0 I I #
edge $-1 $32 0 $70 1.213000000000000078 $47 $79 forward 7 unknown #
point $-1 -15.4051000000000009 6.273799999999999599 0 #
point $-1 -15.4051000000000009 6.273799999999999599 1.142999999999999794 #
face $-1 $80 $81 $2 $-1 $82 forward single #
loop $-1 $-1 $83 $35 #
plane-surface $-1 15.4051000000000009 0 0 1 0 0 0 0 25.39999999999999858 forward_v I I I I #
loop $-1 $-1 $84 $19 #
coedge $-1 $73 $38 $83 $85 reversed $20 $-1 #
edge $-1 $49 0 $86 1.213000000000000078 $48 $87 forward 7 unknown #
coedge $-1 $88 $39 $89 $90 reversed $22 $-1 #
coedge $-1 $39 $88 $91 $92 reversed $22 $-1 #
coedge $-1 $93 $94 $39 $66 reversed $95 $-1 #
edge $-1 $96 0 $97 0.7160000000000001918 $39 $98 forward 7 unknown #
coedge $-1 $83 $41 $40 $68 forward $58 $-1 #
edge $-1 $43 0 $99 0.4939999999999999947 $67 $100 forward 7 unknown #
coedge $-1 $41 $83 $75 $101 forward $58 $-1 #
vertex $-1 $42 $102 #
straight-curve $-1 15.4051000000000009 6.273799999999999599 0 0 0 25.39999999999999858 I I #
point $-1 15.4051000000000009 6.273799999999999599 1.142999999999999794 #
coedge $-1 $45 $61 $51 $77 reversed $20 $-1 #
straight-curve $-1 -15.4051000000000009 -6.273799999999999599 1.142999999999999794 0 0 -25.39999999999999858 I I #
coedge $-1 $48 $47 $69 $101 reversed $36 $-1 #
point $-1 -15.4051000000000009 -6.273799999999999599 0 #
edge $-1 $52 0 $99 1.213000000000000078 $51 $103 forward 7 unknown #
point $-1 -15.4051000000000009 -6.273799999999999599 1.142999999999999794 #
straight-curve $-1 -15.4051000000000009 6.273799999999999599 0 25.39999999999999858 0 0 I I #
face $-1 $104 $105 $2 $-1 $106 forward single #
loop $-1 $-1 $107 $57 #
plane-surface $-1 -7.467600000000000904 5.46099999999999941 0 0 1 0 25.39999999999999858 0 0 forward_v I I I I #
coedge $-1 $69 $67 $61 $85 forward $58 $-1 #
coedge $-1 $108 $109 $110 $111 reversed $60 $-1 #
edge $-1 $99 0 $86 0.0449999999999999914 $83 $112 forward 7 unknown #
vertex $-1 $101 $113 #
straight-curve $-1 -15.4051000000000009 -6.273799999999999599 0 25.39999999999999858 0 0 I I #
coedge $-1 $64 $63 $114 $115 reversed $22 $-1 #
coedge $-1 $116 $117 $63 $90 forward $118 $-1 #
edge $-1 $119 0 $97 0.3807849794571543378 $63 $120 forward 7 unknown #
coedge $-1 $121 $122 $64 $92 forward $123 $-1 #
edge $-1 $96 0 $124 0.3807849794571544488 $64 $125 forward 7 unknown #
coedge $-1 $126 $65 $122 $127 forward $95 $-1 #
coedge $-1 $65 $126 $116 $128 reversed $95 $-1 #
loop $-1 $-1 $126 $129 #
vertex $-1 $92 $130 #
vertex $-1 $90 $131 #
straight-curve $-1 -9.093200000000001282 4.63549999999999951 1.142999999999999794 25.39999999999999858 0 0 I I #
vertex $-1 $68 $132 #
straight-curve $-1 15.4051000000000009 6.273799999999999599 1.142999999999999794 0 -25.39999999999999858 0 I I #
edge $-1 $86 0 $70 0.4939999999999999947 $69 $133 forward 7 unknown #
point $-1 15.4051000000000009 6.273799999999999599 0 #
straight-curve $-1 -15.4051000000000009 -6.273799999999999599 1.142999999999999794 25.39999999999999858 0 0 I I #
face $-1 $134 $135 $2 $-1 $136 forward single #
loop $-1 $-1 $137 $80 #
plane-surface $-1 7.467600000000000904 5.46099999999999941 0 1 0 0 0 -25.39999999999999858 0 forward_v I I I I #
coedge $-1 $138 $110 $139 $140 forward $81 $-1 #
coedge $-1 $141 $84 $142 $143 reversed $60 $-1 #
coedge $-1 $84 $141 $144 $145 reversed $60 $-1 #
coedge $-1 $107 $146 $84 $111 forward $81 $-1 #
edge $-1 $147 0 $148 0.5880000000000000782 $84 $149 forward 7 unknown #
straight-curve $-1 15.4051000000000009 -6.273799999999999599 1.142999999999999794 0 0 -25.39999999999999858 I I #
point $-1 15.4051000000000009 -6.273799999999999599 0 #
coedge $-1 $150 $151 $88 $115 forward $152 $-1 #
edge $-1 $124 0 $119 0.583754764468651377 $88 $153 forward 7 unknown #
coedge $-1 $154 $89 $94 $128 forward $118 $-1 #
coedge $-1 $89 $154 $150 $155 forward $118 $-1 #
loop $-1 $-1 $154 $156 #
vertex $-1 $115 $157 #
straight-curve $-1 7.413685508751871822 -4.889499999999999957 1.142999999999999794 4.41066371274003366 25.01411692651008067 0 I I #
coedge $-1 $158 $91 $151 $159 reversed $123 $-1 #
coedge $-1 $91 $158 $93 $127 reversed $123 $-1 #
loop $-1 $-1 $91 $160 #
vertex $-1 $92 $161 #
straight-curve $-1 -9.093200000000001282 4.63549999999999951 1.142999999999999794 4.410663712740029219 -25.01411692651008067 0 I I #
coedge $-1 $94 $93 $162 $163 forward $95 $-1 #
edge $-1 $96 0 $164 0.2349999999999999867 $93 $165 forward 7 unknown #
edge $-1 $97 0 $166 0.2349999999999999867 $94 $167 forward 7 unknown #
face $-1 $168 $95 $2 $-1 $169 forward single #
point $-1 -9.093200000000001282 4.63549999999999951 1.142999999999999794 #
point $-1 9.093200000000001282 4.63549999999999951 1.142999999999999794 #
point $-1 15.4051000000000009 -6.273799999999999599 1.142999999999999794 #
straight-curve $-1 15.4051000000000009 -6.273799999999999599 0 0 25.39999999999999858 0 I I #
face $-1 $170 $171 $2 $-1 $172 forward single #
loop $-1 $-1 $173 $104 #
plane-surface $-1 7.467600000000000904 -5.46099999999999941 0 0 -1 0 -25.39999999999999858 0 0 forward_v I I I I #
coedge $-1 $174 $144 $175 $176 forward $105 $-1 #
coedge $-1 $146 $107 $177 $178 reversed $81 $-1 #
coedge $-1 $144 $174 $107 $140 reversed $105 $-1 #
edge $-1 $148 0 $179 0.5499999999999999334 $139 $180 forward 7 unknown #
coedge $-1 $109 $108 $181 $182 reversed $60 $-1 #
coedge $-1 $183 $184 $108 $143 forward $171 $-1 #
edge $-1 $185 0 $147 0.4299999999999998823 $108 $186 forward 7 unknown #
coedge $-1 $137 $139 $109 $145 forward $105 $-1 #
edge $-1 $148 0 $187 0.4299999999999998823 $109 $188 forward 7 unknown #
coedge $-1 $110 $138 $183 $189 reversed $81 $-1 #
vertex $-1 $143 $190 #
vertex $-1 $145 $191 #
straight-curve $-1 -7.467600000000000904 5.46099999999999941 0 25.39999999999999858 0 0 I I #
coedge $-1 $192 $114 $117 $155 reversed $152 $-1 #
coedge $-1 $114 $192 $121 $159 forward $152 $-1 #
loop $-1 $-1 $114 $193 #
straight-curve $-1 -7.413685508751871822 -4.889499999999999957 1.142999999999999572 25.39999999999999858 0 0 I I #
coedge $-1 $117 $116 $194 $195 reversed $118 $-1 #
edge $-1 $196 0 $119 0.2349999999999999867 $150 $197 forward 7 unknown #
face $-1 $160 $118 $2 $-1 $198 reversed single #
point $-1 7.413685508751871822 -4.889499999999999957 1.142999999999999794 #
coedge $-1 $122 $121 $199 $200 reversed $123 $-1 #
edge $-1 $201 0 $124 0.2349999999999999867 $151 $202 forward 7 unknown #
face $-1 $203 $123 $2 $-1 $204 reversed single #
point $-1 -7.413685508751871822 -4.889499999999999957 1.142999999999999794 #
coedge $-1 $199 $194 $126 $163 reversed $205 $-1 #
edge $-1 $164 0 $166 0.7160000000000001918 $126 $206 forward 7 unknown #
vertex $-1 $127 $207 #
straight-curve $-1 -9.093200000000001282 4.63549999999999951 1.142999999999999794 0 0 25.39999999999999858 I I #
vertex $-1 $128 $208 #
straight-curve $-1 9.093200000000001282 4.635499999999998622 1.142999999999999794 0 0 25.39999999999999858 I I #
face $-1 $193 $205 $2 $-1 $209 forward single #
plane-surface $-1 -15.4051000000000009 4.63549999999999951 1.142999999999999794 0 1 0 0 0 25.39999999999999858 forward_v I I I I #
face $-1 $129 $210 $2 $-1 $211 forward single #
loop $-1 $-1 $183 $134 #
plane-surface $-1 -7.467600000000000904 -5.46099999999999941 0 -1 0 0 0 25.39999999999999858 0 forward_v I I I I #
coedge $-1 $212 $181 $184 $213 forward $135 $-1 #
coedge $-1 $139 $137 $214 $215 reversed $105 $-1 #
coedge $-1 $181 $212 $137 $176 reversed $135 $-1 #
edge $-1 $187 0 $216 0.5499999999999999334 $137 $217 forward 7 unknown #
coedge $-1 $214 $218 $138 $178 forward $210 $-1 #
edge $-1 $219 0 $179 0.5880000000000000782 $177 $220 forward 7 unknown #
vertex $-1 $215 $221 #
straight-curve $-1 7.467600000000000904 5.46099999999999941 0 0 0 -25.39999999999999858 I I #
coedge $-1 $173 $175 $141 $182 forward $135 $-1 #
edge $-1 $187 0 $185 0.5880000000000000782 $141 $222 forward 7 unknown #
coedge $-1 $223 $142 $146 $189 forward $171 $-1 #
coedge $-1 $142 $223 $173 $213 reversed $171 $-1 #
vertex $-1 $182 $224 #
straight-curve $-1 -7.467600000000000904 -5.46099999999999941 0 0 25.39999999999999858 0 I I #
vertex $-1 $145 $225 #
straight-curve $-1 7.467600000000000904 5.460999999999998522 0 0 -25.39999999999999858 0 I I #
edge $-1 $147 0 $219 0.5499999999999999334 $183 $226 forward 7 unknown #
point $-1 -7.467600000000000904 5.460999999999998522 0 #
point $-1 7.467600000000000904 5.460999999999998522 0 #
coedge $-1 $151 $150 $227 $228 reversed $152 $-1 #
face $-1 $156 $152 $2 $-1 $229 forward single #
coedge $-1 $162 $227 $154 $195 forward $205 $-1 #
edge $-1 $196 0 $166 0.3807849794571543378 $194 $230 forward 7 unknown #
vertex $-1 $195 $231 #
straight-curve $-1 7.413685508751871822 -4.889499999999999957 7.111999999999999211 0 0 -25.39999999999999858 I I #
plane-surface $-1 7.413685508751871822 -4.889499999999999957 1.142999999999999794 -0.9848077530122080203 0.1736481776669304422 0 4.410663712740032771 25.01411692651008067 0 forward_v I I I I #
coedge $-1 $227 $162 $158 $200 forward $205 $-1 #
edge $-1 $164 0 $201 0.3807849794571544488 $199 $232 forward 7 unknown #
vertex $-1 $200 $233 #
straight-curve $-1 -7.413685508751871822 -4.889499999999999957 7.111999999999999211 0 0 -25.39999999999999858 I I #
face $-1 $234 $235 $2 $-1 $236 reversed single #
plane-surface $-1 -9.093200000000001282 4.63549999999999951 1.142999999999999794 0.9848077530122081313 0.1736481776669303312 0 4.410663712740029219 -25.01411692651008067 0 forward_v I I I I #
loop $-1 $237 $227 $168 #
straight-curve $-1 -9.093200000000001282 4.63549999999999951 7.111999999999999211 25.39999999999999858 0 0 I I #
point $-1 -9.093200000000001282 4.63549999999999951 7.111999999999999211 #
point $-1 9.093200000000001282 4.63549999999999951 7.111999999999999211 #
plane-surface $-1 -15.4051000000000009 4.63549999999999951 7.111999999999999211 0 0 1 0 -25.39999999999999858 0 forward_v I I I I #
loop $-1 $-1 $238 $170 #
plane-surface $-1 0 0 -13.96999999999999709 0 0 -1 -25.39999999999999858 0 0 forward_v I I I I #
coedge $-1 $175 $173 $238 $239 reversed $135 $-1 #
edge $-1 $185 0 $240 0.5499999999999999334 $173 $241 forward 7 unknown #
coedge $-1 $238 $177 $174 $215 forward $210 $-1 #
edge $-1 $179 0 $216 0.4299999999999999933 $214 $242 forward 7 unknown #
vertex $-1 $215 $243 #
straight-curve $-1 7.467600000000000904 -5.46099999999999941 0 0 0 -25.39999999999999858 I I #
coedge $-1 $177 $238 $223 $244 forward $210 $-1 #
vertex $-1 $178 $245 #
straight-curve $-1 -7.467600000000000904 5.46099999999999941 -13.96999999999999709 25.39999999999999858 0 0 I I #
point $-1 7.467600000000000904 5.46099999999999941 -13.96999999999999709 #
straight-curve $-1 7.467600000000000904 -5.46099999999999941 0 -25.39999999999999858 0 0 I I #
coedge $-1 $184 $183 $218 $244 reversed $171 $-1 #
point $-1 -7.467600000000000904 -5.46099999999999941 0 #
point $-1 7.467600000000000904 -5.46099999999999941 0 #
straight-curve $-1 -7.467600000000000904 5.46099999999999941 0 0 0 -25.39999999999999858 I I #
coedge $-1 $194 $199 $192 $228 forward $205 $-1 #
edge $-1 $201 0 $196 0.583754764468651377 $227 $246 forward 7 unknown #
plane-surface $-1 -15.4051000000000009 -4.889499999999999957 7.111999999999999211 0 -1 0 0 0 -25.39999999999999858 forward_v I I I I #
straight-curve $-1 7.413685508751871822 -4.889499999999999957 7.111999999999999211 4.41066371274003366 25.01411692651008067 0 I I #
point $-1 7.413685508751871822 -4.889499999999999957 7.111999999999999211 #
straight-curve $-1 -9.093200000000001282 4.63549999999999951 7.111999999999999211 4.410663712740029219 -25.01411692651008067 0 I I #
point $-1 -7.413685508751871822 -4.889499999999999957 7.111999999999999211 #
face $-1 $247 $248 $2 $-1 $249 reversed single #
loop $-1 $-1 $250 $203 #
plane-surface $-1 8.336436468702681069 4.000499999999999723 7.111999999999999211 0 1 0 -25.39999999999999858 0 0 forward_v I I I I #
loop $-1 $-1 $251 $168 #
coedge $-1 $218 $214 $212 $239 forward $210 $-1 #
edge $-1 $216 0 $240 0.5880000000000000782 $238 $252 forward 7 unknown #
vertex $-1 $244 $253 #
straight-curve $-1 -7.467600000000000904 -5.46099999999999941 0 0 0 -25.39999999999999858 I I #
straight-curve $-1 7.467600000000000904 5.46099999999999941 -13.96999999999999709 0 -25.39999999999999858 0 I I #
point $-1 7.467600000000000904 -5.46099999999999941 -13.96999999999999709 #
edge $-1 $240 0 $219 0.4299999999999999933 $218 $254 forward 7 unknown #
point $-1 -7.467600000000000904 5.46099999999999941 -13.96999999999999709 #
straight-curve $-1 -7.413685508751871822 -4.889499999999999957 7.111999999999999211 25.39999999999999858 0 0 I I #
face $-1 $255 $256 $2 $-1 $257 reversed single #
loop $-1 $-1 $258 $234 #
plane-surface $-1 -8.336436468702677516 4.000499999999999723 7.111999999999999211 -0.9848077530122081313 -0.1736481776669299149 0 4.410663712740019449 -25.01411692651008423 0 forward_v I I I I #
coedge $-1 $259 $260 $261 $262 forward $235 $-1 #
coedge $-1 $263 $264 $260 $265 reversed $237 $-1 #
straight-curve $-1 7.467600000000000904 -5.46099999999999941 -13.96999999999999709 -25.39999999999999858 0 0 I I #
point $-1 -7.467600000000000904 -5.46099999999999941 -13.96999999999999709 #
straight-curve $-1 -7.467600000000000904 -5.46099999999999941 -13.96999999999999709 0 25.39999999999999858 0 I I #
face $-1 $266 $267 $2 $-1 $268 reversed single #
loop $-1 $-1 $269 $247 #
plane-surface $-1 -6.880857242954303565 -4.254499999999999282 7.111999999999999211 0 -1 0 25.39999999999999858 0 0 forward_v I I I I #
coedge $-1 $270 $271 $272 $273 forward $248 $-1 #
coedge $-1 $274 $250 $275 $276 reversed $235 $-1 #
coedge $-1 $250 $274 $251 $265 forward $235 $-1 #
coedge $-1 $271 $270 $250 $262 reversed $248 $-1 #
edge $-1 $277 0 $278 0.2349999999999999867 $261 $279 forward 7 unknown #
coedge $-1 $280 $251 $281 $282 reversed $237 $-1 #
coedge $-1 $251 $280 $271 $283 reversed $237 $-1 #
edge $-1 $284 0 $277 0.6564123203702897369 $251 $285 forward 7 unknown #
face $-1 $-1 $286 $2 $-1 $287 forward single #
loop $-1 $-1 $288 $255 #
plane-surface $-1 6.880857242954299124 -4.254499999999999282 7.111999999999999211 0.9848077530122080203 -0.1736481776669307475 0 4.410663712740040765 25.01411692651008067 0 forward_v I I I I #
coedge $-1 $289 $290 $291 $292 forward $256 $-1 #
coedge $-1 $261 $258 $293 $294 reversed $248 $-1 #
coedge $-1 $258 $261 $264 $283 forward $248 $-1 #
coedge $-1 $290 $289 $258 $273 reversed $256 $-1 #
edge $-1 $295 0 $296 0.2349999999999999867 $258 $297 forward 7 unknown #
coedge $-1 $260 $259 $288 $298 reversed $235 $-1 #
coedge $-1 $293 $299 $259 $276 forward $286 $-1 #
edge $-1 $300 0 $278 0.6564123203702897369 $275 $301 forward 7 unknown #
vertex $-1 $283 $302 #
vertex $-1 $294 $303 #
straight-curve $-1 -8.336436468702677516 4.000499999999999723 7.111999999999999211 0 0 -25.39999999999999858 I I #
coedge $-1 $264 $263 $290 $304 reversed $237 $-1 #
coedge $-1 $288 $291 $263 $282 forward $267 $-1 #
edge $-1 $305 0 $284 0.3300136488628671594 $263 $306 forward 7 unknown #
edge $-1 $277 0 $295 0.3300136488628671039 $264 $307 forward 7 unknown #
vertex $-1 $282 $308 #
straight-curve $-1 8.336436468702681069 4.000499999999999723 7.111999999999999211 -25.39999999999999858 0 0 I I #
loop $-1 $-1 $309 $266 #
plane-surface $-1 -15.4051000000000009 4.63549999999999951 1.142999999999999572 0 0 1 25.39999999999999858 0 0 forward_v I I I I #
coedge $-1 $310 $281 $274 $298 forward $267 $-1 #
coedge $-1 $272 $269 $309 $311 reversed $256 $-1 #
coedge $-1 $269 $272 $280 $304 forward $256 $-1 #
coedge $-1 $281 $310 $269 $292 reversed $267 $-1 #
edge $-1 $305 0 $312 0.2349999999999999867 $269 $313 forward 7 unknown #
coedge $-1 $309 $275 $270 $294 forward $286 $-1 #
edge $-1 $278 0 $296 0.3300136488628671039 $293 $314 forward 7 unknown #
vertex $-1 $283 $315 #
vertex $-1 $294 $316 #
straight-curve $-1 -6.880857242954303565 -4.254499999999998394 7.111999999999999211 0 0 -25.39999999999999858 I I #
edge $-1 $284 0 $300 0.2349999999999999867 $288 $317 forward 7 unknown #
coedge $-1 $275 $309 $310 $318 forward $286 $-1 #
vertex $-1 $276 $319 #
straight-curve $-1 8.336436468702681069 4.000499999999999723 1.142999999999999572 -25.39999999999999858 0 0 I I #
point $-1 -8.336436468702677516 4.000499999999999723 7.111999999999999211 #
point $-1 -8.336436468702677516 4.000499999999999723 1.142999999999999572 #
edge $-1 $295 0 $305 0.5417997829097874751 $280 $320 forward 7 unknown #
vertex $-1 $304 $321 #
straight-curve $-1 6.880857242954299124 -4.254499999999999282 7.111999999999999211 4.410663712740040765 25.01411692651008067 0 I I #
straight-curve $-1 -8.336436468702677516 4.000499999999999723 7.111999999999999211 4.410663712740019449 -25.01411692651008423 0 I I #
point $-1 8.336436468702681069 4.000499999999999723 7.111999999999999211 #
coedge $-1 $299 $293 $289 $311 forward $286 $-1 #
coedge $-1 $291 $288 $299 $318 reversed $267 $-1 #
edge $-1 $296 0 $312 0.5417997829097874751 $309 $322 forward 7 unknown #
vertex $-1 $318 $323 #
straight-curve $-1 6.880857242954300901 -4.254499999999999282 7.111999999999999211 0 0 -25.39999999999999858 I I #
straight-curve $-1 -8.336436468702677516 4.000499999999999723 1.142999999999999572 4.410663712740019449 -25.01411692651008423 0 I I #
point $-1 -6.880857242954303565 -4.254499999999999282 7.111999999999999211 #
point $-1 -6.880857242954303565 -4.254499999999999282 1.142999999999999572 #
straight-curve $-1 8.336436468702681069 4.000499999999998835 7.111999999999999211 0 0 -25.39999999999999858 I I #
edge $-1 $312 0 $300 0.3300136488628671594 $299 $324 forward 7 unknown #
point $-1 8.336436468702681069 4.000499999999999723 1.142999999999999572 #
straight-curve $-1 -6.880857242954303565 -4.254499999999999282 7.111999999999999211 25.39999999999999858 0 0 I I #
point $-1 6.880857242954299124 -4.254499999999999282 7.111999999999999211 #
straight-curve $-1 -6.880857242954303565 -4.254499999999999282 1.142999999999999572 25.39999999999999858 0 0 I I #
point $-1 6.880857242954299124 -4.254499999999999282 1.142999999999999572 #
straight-curve $-1 6.880857242954299124 -4.254499999999999282 1.142999999999999572 4.410663712740040765 25.01411692651008067 0 I I #
End-of-ACIS-data 