600 0 1 0           
99 GICL Pro/E ACIS Translator - Source: f:/data5/repository/PTC/V18/cabdia18/ha15b-0001-b139.prt - 6 0 13 ACIS 6.0.3 NT 24 Thu Apr 04 10:03:30 2002 
1 9.9999999999999995e-007 1e-010 
body $-1 $1 $-1 $2 #
lump $-1 $-1 $3 $0 #
transform $-1 1 0 0 0 1 0 0 0 1 0 0 0 25.399999999999999 no_rotate no_reflect no_shear #
shell $-1 $-1 $-1 $4 $-1 $1 #
face $-1 $5 $6 $3 $-1 $7 reversed single #
face $-1 $8 $9 $3 $-1 $10 forward single #
loop $-1 $-1 $11 $4 #
plane-surface $-1 0 0 0 0 0 1 1 0 0 forward_v I I I I #
face $-1 $12 $13 $3 $-1 $14 forward single #
loop $-1 $15 $16 $5 #
plane-surface $-1 0 0 0 1 0 0 0 1 0 forward_v I I I I #
coedge $-1 $17 $18 $19 $20 reversed $6 $-1 #
face $-1 $21 $22 $3 $-1 $23 forward single #
loop $-1 $-1 $24 $8 #
plane-surface $-1 0 6.9530000000000003 0 0 1 0 -1 0 0 forward_v I I I I #
loop $-1 $25 $26 $5 #
coedge $-1 $27 $19 $28 $29 forward $9 $-1 #
coedge $-1 $30 $11 $31 $32 reversed $6 $-1 #
coedge $-1 $11 $30 $33 $34 reversed $6 $-1 #
coedge $-1 $16 $35 $11 $20 forward $9 $-1 #
edge $-1 $36 0 $37 6.9530000000000003 $11 $38 forward 7 unknown #
face $-1 $39 $40 $3 $-1 $41 forward single #
loop $-1 $42 $43 $12 #
plane-surface $-1 -20.75 6.9530000000000003 0 -1 0 0 0 -1 0 forward_v I I I I #
coedge $-1 $44 $33 $45 $46 forward $13 $-1 #
loop $-1 $47 $48 $5 #
coedge $-1 $49 $50 $51 $52 reversed $15 $-1 #
coedge $-1 $35 $16 $53 $54 reversed $9 $-1 #
coedge $-1 $33 $44 $16 $29 reversed $13 $-1 #
edge $-1 $37 0 $55 12 $28 $56 forward 7 unknown #
coedge $-1 $18 $17 $57 $58 reversed $6 $-1 #
coedge $-1 $59 $60 $17 $32 forward $40 $-1 #
edge $-1 $61 0 $36 20.75 $17 $62 forward 7 unknown #
coedge $-1 $24 $28 $18 $34 forward $13 $-1 #
edge $-1 $37 0 $63 20.75 $18 $64 forward 7 unknown #
coedge $-1 $19 $27 $59 $65 reversed $9 $-1 #
vertex $-1 $32 $66 #
vertex $-1 $34 $67 #
straight-curve $-1 0 0 0 0 1 0 I I #
face $-1 $68 $69 $3 $-1 $70 forward single #
loop $-1 $-1 $59 $21 #
plane-surface $-1 -20.75 0 0 0 -1 0 1 0 0 forward_v I I I I #
loop $-1 $-1 $71 $12 #
coedge $-1 $72 $57 $60 $73 forward $22 $-1 #
coedge $-1 $28 $24 $74 $75 reversed $13 $-1 #
coedge $-1 $57 $72 $24 $46 reversed $22 $-1 #
edge $-1 $63 0 $76 12 $24 $77 forward 7 unknown #
loop $-1 $78 $79 $5 #
coedge $-1 $80 $81 $82 $83 reversed $25 $-1 #
coedge $-1 $84 $26 $85 $86 reversed $15 $-1 #
coedge $-1 $26 $84 $87 $88 reversed $15 $-1 #
coedge $-1 $89 $90 $26 $52 forward $91 $-1 #
edge $-1 $92 0 $93 1 $26 $94 forward 7 unknown #
coedge $-1 $74 $95 $27 $54 forward $69 $-1 #
edge $-1 $96 0 $55 6.9530000000000003 $53 $97 forward 7 unknown #
vertex $-1 $75 $98 #
straight-curve $-1 0 6.9530000000000003 0 0 0 1 I I #
coedge $-1 $43 $45 $30 $58 forward $22 $-1 #
edge $-1 $63 0 $61 6.9530000000000003 $30 $99 forward 7 unknown #
coedge $-1 $100 $31 $35 $65 forward $40 $-1 #
coedge $-1 $31 $100 $43 $73 reversed $40 $-1 #
vertex $-1 $58 $101 #
straight-curve $-1 -20.75 0 0 1 0 0 I I #
vertex $-1 $34 $102 #
straight-curve $-1 0 6.9530000000000003 0 -1 0 0 I I #
edge $-1 $36 0 $96 12 $59 $103 forward 7 unknown #
point $-1 0 0 0 #
point $-1 0 6.9530000000000003 0 #
face $-1 $104 $105 $3 $-1 $106 reversed single #
loop $-1 $-1 $107 $39 #
plane-surface $-1 0 0 12 0 0 1 1 0 0 forward_v I I I I #
coedge $-1 $108 $108 $109 $110 forward $42 $-1 #
coedge $-1 $45 $43 $107 $111 reversed $22 $-1 #
edge $-1 $61 0 $112 12 $43 $113 forward 7 unknown #
coedge $-1 $107 $53 $44 $75 forward $69 $-1 #
edge $-1 $55 0 $76 20.75 $74 $114 forward 7 unknown #
vertex $-1 $75 $115 #
straight-curve $-1 -20.75 6.9530000000000003 0 0 0 1 I I #
loop $-1 $-1 $116 $5 #
coedge $-1 $117 $118 $119 $120 reversed $47 $-1 #
coedge $-1 $121 $48 $122 $123 reversed $25 $-1 #
coedge $-1 $48 $121 $124 $125 reversed $25 $-1 #
coedge $-1 $126 $127 $48 $83 forward $128 $-1 #
edge $-1 $129 0 $130 1.25 $48 $131 forward 7 unknown #
coedge $-1 $50 $49 $132 $133 reversed $15 $-1 #
coedge $-1 $134 $135 $49 $86 forward $136 $-1 #
edge $-1 $137 0 $92 1.125 $49 $138 forward 7 unknown #
coedge $-1 $139 $140 $50 $88 forward $141 $-1 #
edge $-1 $93 0 $142 1.125 $50 $143 forward 7 unknown #
coedge $-1 $144 $51 $140 $145 forward $91 $-1 #
coedge $-1 $51 $144 $134 $146 reversed $91 $-1 #
loop $-1 $-1 $89 $147 #
vertex $-1 $86 $148 #
vertex $-1 $88 $149 #
straight-curve $-1 0 0.41900000000000048 9.3999999999999986 0 0 -1 I I #
coedge $-1 $53 $107 $100 $150 forward $69 $-1 #
vertex $-1 $54 $151 #
straight-curve $-1 0 0 12 0 1 0 I I #
point $-1 0 6.9530000000000003 12 #
straight-curve $-1 -20.75 6.9530000000000003 0 0 -1 0 I I #
coedge $-1 $60 $59 $95 $150 reversed $40 $-1 #
point $-1 -20.75 0 0 #
point $-1 -20.75 6.9530000000000003 0 #
straight-curve $-1 0 0 0 0 0 1 I I #
face $-1 $152 $153 $3 $-1 $154 reversed single #
loop $-1 $-1 $155 $68 #
cone-surface $-1 -20.75 3.4530000000000003 9.625 1 0 0 0 0.5 0 1 I I 0 1 0.5 forward I I I I #
coedge $-1 $95 $74 $72 $111 forward $69 $-1 #
coedge $-1 $71 $71 $156 $157 forward $42 $-1 #
coedge $-1 $155 $158 $71 $110 reversed $105 $-1 #
edge $-1 $159 0 $160 3.1415926535897931 $71 $161 forward 7 unknown #
edge $-1 $76 0 $112 6.9530000000000003 $107 $162 forward 7 unknown #
vertex $-1 $150 $163 #
straight-curve $-1 -20.75 0 0 0 0 1 I I #
straight-curve $-1 0 6.9530000000000003 12 -1 0 0 I I #
point $-1 -20.75 6.9530000000000003 12 #
coedge $-1 $164 $164 $165 $166 forward $78 $-1 #
coedge $-1 $167 $79 $168 $169 reversed $47 $-1 #
coedge $-1 $79 $167 $170 $171 reversed $47 $-1 #
coedge $-1 $172 $173 $79 $120 forward $174 $-1 #
edge $-1 $175 0 $176 1.25 $79 $177 forward 7 unknown #
coedge $-1 $81 $80 $178 $179 reversed $25 $-1 #
coedge $-1 $180 $181 $80 $123 forward $182 $-1 #
edge $-1 $183 0 $129 1.5 $80 $184 forward 7 unknown #
coedge $-1 $185 $186 $81 $125 forward $187 $-1 #
edge $-1 $130 0 $188 1.5 $81 $189 forward 7 unknown #
coedge $-1 $190 $82 $186 $191 forward $128 $-1 #
coedge $-1 $82 $190 $180 $192 reversed $128 $-1 #
loop $-1 $-1 $126 $193 #
vertex $-1 $123 $194 #
vertex $-1 $125 $195 #
straight-curve $-1 0 3.3815 10.375 0 -1 0 I I #
coedge $-1 $196 $197 $84 $133 forward $198 $-1 #
edge $-1 $142 0 $137 1 $84 $199 forward 7 unknown #
coedge $-1 $200 $85 $90 $146 forward $136 $-1 #
coedge $-1 $85 $200 $196 $201 reversed $136 $-1 #
loop $-1 $-1 $134 $202 #
vertex $-1 $133 $203 #
straight-curve $-1 0 1.5440000000000005 9.3999999999999986 0 -1 0 I I #
coedge $-1 $204 $87 $197 $205 forward $141 $-1 #
coedge $-1 $87 $204 $89 $145 reversed $141 $-1 #
loop $-1 $-1 $139 $206 #
vertex $-1 $88 $207 #
straight-curve $-1 0 0.41900000000000048 8.3999999999999986 0 1 0 I I #
coedge $-1 $90 $89 $208 $209 reversed $91 $-1 #
edge $-1 $93 0 $210 1 $140 $211 forward 7 unknown #
edge $-1 $92 0 $212 1 $134 $213 forward 7 unknown #
face $-1 $206 $91 $3 $-1 $214 reversed single #
point $-1 0 0.41900000000000048 9.3999999999999986 #
point $-1 0 0.41900000000000048 8.3999999999999986 #
edge $-1 $112 0 $96 20.75 $95 $215 forward 7 unknown #
point $-1 0 0 12 #
face $-1 $147 $216 $3 $-1 $217 reversed single #
loop $-1 $-1 $218 $104 #
cone-surface $-1 -20.75 3.4530000000000003 9.625 1 0 0 0 0.5 0 1 I I 0 1 0.5 forward I I I I #
coedge $-1 $219 $109 $220 $221 forward $105 $-1 #
coedge $-1 $218 $220 $108 $157 reversed $153 $-1 #
edge $-1 $160 0 $159 3.1415926535897931 $108 $222 forward 7 unknown #
coedge $-1 $109 $219 $218 $223 reversed $105 $-1 #
vertex $-1 $157 $224 #
vertex $-1 $157 $225 #
ellipse-curve $-1 -20.75 3.4530000000000003 9.625 1 0 0 0 -0.5 0 1 I I #
straight-curve $-1 -20.75 6.9530000000000003 12 0 -1 0 I I #
point $-1 -20.75 0 12 #
coedge $-1 $116 $116 $226 $227 forward $78 $-1 #
coedge $-1 $228 $229 $116 $166 reversed $230 $-1 #
edge $-1 $231 0 $232 3.1415926535897931 $116 $233 forward 7 unknown #
coedge $-1 $118 $117 $234 $235 reversed $47 $-1 #
coedge $-1 $236 $237 $117 $169 forward $238 $-1 #
edge $-1 $239 0 $175 1 $117 $240 forward 7 unknown #
coedge $-1 $241 $242 $118 $171 forward $243 $-1 #
edge $-1 $176 0 $244 1 $118 $245 forward 7 unknown #
coedge $-1 $246 $119 $242 $247 forward $174 $-1 #
coedge $-1 $119 $246 $236 $248 reversed $174 $-1 #
loop $-1 $-1 $172 $249 #
vertex $-1 $169 $250 #
vertex $-1 $171 $251 #
straight-curve $-1 0 2.1315 7.75 0 1 0 I I #
coedge $-1 $252 $253 $121 $179 forward $254 $-1 #
edge $-1 $188 0 $183 1.25 $121 $255 forward 7 unknown #
coedge $-1 $256 $122 $127 $192 forward $182 $-1 #
coedge $-1 $122 $256 $252 $257 reversed $182 $-1 #
loop $-1 $-1 $180 $258 #
vertex $-1 $179 $259 #
straight-curve $-1 0 3.3815 8.875 0 0 1 I I #
coedge $-1 $260 $124 $253 $261 forward $187 $-1 #
coedge $-1 $124 $260 $126 $191 reversed $187 $-1 #
loop $-1 $-1 $185 $262 #
vertex $-1 $125 $263 #
straight-curve $-1 0 2.1315 10.375 0 0 -1 I I #
coedge $-1 $127 $126 $264 $265 reversed $128 $-1 #
edge $-1 $130 0 $266 1 $186 $267 forward 7 unknown #
edge $-1 $129 0 $268 1 $180 $269 forward 7 unknown #
face $-1 $262 $128 $3 $-1 $270 reversed single #
point $-1 0 3.3815 10.375 #
point $-1 0 2.1315 10.375 #
coedge $-1 $271 $132 $135 $201 forward $198 $-1 #
coedge $-1 $132 $271 $139 $205 reversed $198 $-1 #
loop $-1 $-1 $196 $272 #
straight-curve $-1 0 1.5440000000000005 8.3999999999999986 0 0 1 I I #
coedge $-1 $135 $134 $273 $274 reversed $136 $-1 #
edge $-1 $137 0 $275 1 $196 $276 forward 7 unknown #
face $-1 $277 $136 $3 $-1 $278 reversed single #
point $-1 0 1.5440000000000005 9.3999999999999986 #
coedge $-1 $140 $139 $279 $280 reversed $141 $-1 #
edge $-1 $142 0 $281 1 $139 $282 forward 7 unknown #
face $-1 $272 $141 $3 $-1 $283 reversed single #
point $-1 0 1.5440000000000005 8.3999999999999986 #
coedge $-1 $279 $273 $144 $209 forward $284 $-1 #
edge $-1 $212 0 $210 1 $208 $285 forward 7 unknown #
vertex $-1 $280 $286 #
straight-curve $-1 0 0.41900000000000048 8.3999999999999986 -1 0 0 I I #
vertex $-1 $209 $287 #
straight-curve $-1 0 0.41900000000000048 9.3999999999999986 -1 0 0 I I #
plane-surface $-1 0 0.41900000000000048 9.3999999999999986 0 -1 0 0 0 -1 forward_v I I I I #
straight-curve $-1 -20.75 0 12 1 0 0 I I #
loop $-1 $-1 $288 $152 #
plane-surface $-1 -19.75 3.4530000000000003 9.625 1 0 0 0 1 0 forward_v I I I I #
coedge $-1 $289 $156 $158 $223 forward $153 $-1 #
coedge $-1 $158 $155 $288 $290 forward $105 $-1 #
coedge $-1 $156 $289 $155 $221 reversed $153 $-1 #
edge $-1 $159 0 $291 1 $220 $292 forward 7 unknown #
ellipse-curve $-1 -20.75 3.4530000000000003 9.625 1 0 0 0 0.5 0 1 I I #
edge $-1 $160 0 $293 1 $218 $294 forward 7 unknown #
point $-1 -20.75 2.9530000000000003 9.625 #
point $-1 -20.75 3.9530000000000003 9.625 #
coedge $-1 $295 $296 $164 $227 reversed $297 $-1 #
edge $-1 $232 0 $231 3.1415926535897931 $164 $298 forward 7 unknown #
coedge $-1 $299 $165 $296 $300 forward $230 $-1 #
coedge $-1 $165 $299 $295 $301 reversed $230 $-1 #
loop $-1 $-1 $228 $302 #
vertex $-1 $227 $303 #
vertex $-1 $227 $304 #
ellipse-curve $-1 0 4.7030000000000003 8.75 -1 0 0 0 0.5 0 1 I I #
coedge $-1 $305 $306 $167 $235 forward $307 $-1 #
edge $-1 $244 0 $239 1.25 $167 $308 forward 7 unknown #
coedge $-1 $309 $168 $173 $248 forward $238 $-1 #
coedge $-1 $168 $309 $305 $310 reversed $238 $-1 #
loop $-1 $-1 $236 $311 #
vertex $-1 $235 $312 #
straight-curve $-1 0 2.1315 8.75 0 0 -1 I I #
coedge $-1 $313 $170 $306 $314 forward $243 $-1 #
coedge $-1 $170 $313 $172 $247 reversed $243 $-1 #
loop $-1 $-1 $241 $315 #
vertex $-1 $171 $316 #
straight-curve $-1 0 3.3815 7.75 0 0 1 I I #
coedge $-1 $173 $172 $317 $318 reversed $174 $-1 #
edge $-1 $176 0 $319 1 $242 $320 forward 7 unknown #
edge $-1 $175 0 $321 1 $236 $322 forward 7 unknown #
face $-1 $315 $174 $3 $-1 $323 reversed single #
point $-1 0 2.1315 7.75 #
point $-1 0 3.3815 7.75 #
coedge $-1 $324 $178 $181 $257 forward $254 $-1 #
coedge $-1 $178 $324 $185 $261 reversed $254 $-1 #
loop $-1 $-1 $252 $325 #
straight-curve $-1 0 2.1315 8.875 0 1 0 I I #
coedge $-1 $181 $180 $326 $327 reversed $182 $-1 #
edge $-1 $183 0 $328 1 $252 $329 forward 7 unknown #
face $-1 $330 $182 $3 $-1 $331 reversed single #
point $-1 0 3.3815 8.875 #
coedge $-1 $186 $185 $332 $333 reversed $187 $-1 #
edge $-1 $188 0 $334 1 $185 $335 forward 7 unknown #
face $-1 $325 $187 $3 $-1 $336 reversed single #
point $-1 0 2.1315 8.875 #
coedge $-1 $332 $326 $190 $265 forward $337 $-1 #
edge $-1 $268 0 $266 1.25 $264 $338 forward 7 unknown #
vertex $-1 $333 $339 #
straight-curve $-1 0 2.1315 10.375 -1 0 0 I I #
vertex $-1 $265 $340 #
straight-curve $-1 0 3.3815 10.375 -1 0 0 I I #
plane-surface $-1 0 3.3815 10.375 0 0 1 0 -1 0 forward_v I I I I #
coedge $-1 $197 $196 $341 $342 reversed $198 $-1 #
face $-1 $202 $198 $3 $-1 $343 reversed single #
coedge $-1 $208 $341 $200 $274 forward $284 $-1 #
edge $-1 $275 0 $212 1.125 $273 $344 forward 7 unknown #
vertex $-1 $274 $345 #
straight-curve $-1 0 1.5440000000000005 9.3999999999999986 -1 0 0 I I #
face $-1 $193 $284 $3 $-1 $346 forward single #
plane-surface $-1 0 1.5440000000000005 9.3999999999999986 0 0 1 0 -1 0 forward_v I I I I #
coedge $-1 $341 $208 $204 $280 forward $284 $-1 #
edge $-1 $210 0 $281 1.125 $279 $347 forward 7 unknown #
vertex $-1 $280 $348 #
straight-curve $-1 0 1.5440000000000005 8.3999999999999986 -1 0 0 I I #
plane-surface $-1 0 0.41900000000000048 8.3999999999999986 0 0 -1 0 1 0 forward_v I I I I #
loop $-1 $-1 $341 $277 #
straight-curve $-1 -1 0.41900000000000048 9.3999999999999986 0 0 -1 I I #
point $-1 -1 0.41900000000000048 8.3999999999999986 #
point $-1 -1 0.41900000000000048 9.3999999999999986 #
coedge $-1 $349 $349 $219 $290 reversed $216 $-1 #
coedge $-1 $220 $218 $349 $350 forward $153 $-1 #
edge $-1 $291 0 $293 3.1415926535898002 $288 $351 forward 7 unknown #
vertex $-1 $350 $352 #
straight-curve $-1 -20.75 2.9530000000000003 9.625 1 0 0 I I #
vertex $-1 $350 $353 #
straight-curve $-1 -20.75 3.9530000000000003 9.625 1 0 0 I I #
coedge $-1 $354 $226 $229 $301 forward $297 $-1 #
coedge $-1 $226 $354 $228 $300 reversed $297 $-1 #
loop $-1 $-1 $295 $355 #
ellipse-curve $-1 0 4.7030000000000003 8.75 -1 0 0 0 -0.5 0 1 I I #
coedge $-1 $229 $228 $356 $357 forward $230 $-1 #
edge $-1 $231 0 $358 1 $296 $359 forward 7 unknown #
edge $-1 $232 0 $360 1 $295 $361 forward 7 unknown #
face $-1 $355 $230 $3 $-1 $362 reversed single #
point $-1 0 5.2030000000000003 8.75 #
point $-1 0 4.2030000000000003 8.75 #
coedge $-1 $363 $234 $237 $310 forward $307 $-1 #
coedge $-1 $234 $363 $241 $314 reversed $307 $-1 #
loop $-1 $-1 $305 $364 #
straight-curve $-1 0 3.3815 8.75 0 -1 0 I I #
coedge $-1 $237 $236 $365 $366 reversed $238 $-1 #
edge $-1 $239 0 $367 1 $305 $368 forward 7 unknown #
face $-1 $369 $238 $3 $-1 $370 reversed single #
point $-1 0 2.1315 8.75 #
coedge $-1 $242 $241 $371 $372 reversed $243 $-1 #
edge $-1 $244 0 $373 1 $241 $374 forward 7 unknown #
face $-1 $364 $243 $3 $-1 $375 reversed single #
point $-1 0 3.3815 8.75 #
coedge $-1 $371 $365 $246 $318 forward $376 $-1 #
edge $-1 $321 0 $319 1.25 $317 $377 forward 7 unknown #
vertex $-1 $372 $378 #
straight-curve $-1 0 3.3815 7.75 -1 0 0 I I #
vertex $-1 $318 $379 #
straight-curve $-1 0 2.1315 7.75 -1 0 0 I I #
plane-surface $-1 0 2.1315 7.75 0 0 -1 0 1 0 forward_v I I I I #
coedge $-1 $253 $252 $380 $381 reversed $254 $-1 #
face $-1 $258 $254 $3 $-1 $382 reversed single #
coedge $-1 $264 $380 $256 $327 forward $337 $-1 #
edge $-1 $328 0 $268 1.5 $326 $383 forward 7 unknown #
vertex $-1 $327 $384 #
straight-curve $-1 0 3.3815 8.875 -1 0 0 I I #
face $-1 $249 $337 $3 $-1 $385 forward single #
plane-surface $-1 0 3.3815 8.875 0 1 0 0 0 1 forward_v I I I I #
coedge $-1 $380 $264 $260 $333 forward $337 $-1 #
edge $-1 $266 0 $334 1.5 $332 $386 forward 7 unknown #
vertex $-1 $333 $387 #
straight-curve $-1 0 2.1315 8.875 -1 0 0 I I #
plane-surface $-1 0 2.1315 10.375 0 -1 0 0 0 -1 forward_v I I I I #
loop $-1 $-1 $380 $330 #
straight-curve $-1 -1 3.3815 10.375 0 -1 0 I I #
point $-1 -1 2.1315 10.375 #
point $-1 -1 3.3815 10.375 #
coedge $-1 $273 $279 $271 $342 forward $284 $-1 #
edge $-1 $281 0 $275 1 $341 $388 forward 7 unknown #
plane-surface $-1 0 1.5440000000000005 8.3999999999999986 0 1 0 0 0 1 forward_v I I I I #
straight-curve $-1 -1 1.5440000000000005 9.3999999999999986 0 -1 0 I I #
point $-1 -1 1.5440000000000005 9.3999999999999986 #
plane-surface $-1 -1 0 0 1 0 0 0 0 1 forward_v I I I I #
straight-curve $-1 -1 0.41900000000000048 8.3999999999999986 0 1 0 I I #
point $-1 -1 1.5440000000000005 8.3999999999999986 #
coedge $-1 $288 $288 $289 $350 reversed $216 $-1 #
edge $-1 $293 0 $291 3.1415926535898002 $349 $389 forward 7 unknown #
ellipse-curve $-1 -19.75 3.4530000000000003 9.6249999999999982 1 0 0 0 -0.5 1.7763568394002505e-015 1 I I #
point $-1 -19.75 2.9530000000000003 9.625 #
point $-1 -19.75 3.9530000000000003 9.625 #
coedge $-1 $296 $295 $390 $391 forward $297 $-1 #
face $-1 $392 $297 $3 $-1 $393 reversed single #
coedge $-1 $390 $390 $299 $357 reversed $394 $-1 #
edge $-1 $358 0 $360 3.1415926535897931 $356 $395 forward 7 unknown #
vertex $-1 $391 $396 #
straight-curve $-1 0 5.2030000000000003 8.75 -1 0 0 I I #
vertex $-1 $391 $397 #
straight-curve $-1 0 4.2030000000000003 8.75 -1 0 0 I I #
cone-surface $-1 0 4.7030000000000003 8.75 -1 0 0 0 -0.5 0 1 I I 0 1 0.5 forward I I I I #
coedge $-1 $306 $305 $398 $399 reversed $307 $-1 #
face $-1 $311 $307 $3 $-1 $400 reversed single #
coedge $-1 $317 $398 $309 $366 forward $376 $-1 #
edge $-1 $367 0 $321 1 $365 $401 forward 7 unknown #
vertex $-1 $366 $402 #
straight-curve $-1 0 2.1315 8.75 -1 0 0 I I #
face $-1 $302 $376 $3 $-1 $403 forward single #
plane-surface $-1 0 2.1315 8.75 0 -1 0 0 0 -1 forward_v I I I I #
coedge $-1 $398 $317 $313 $372 forward $376 $-1 #
edge $-1 $319 0 $373 1 $371 $404 forward 7 unknown #
vertex $-1 $372 $405 #
straight-curve $-1 0 3.3815 8.75 -1 0 0 I I #
plane-surface $-1 0 3.3815 7.75 0 1 0 0 0 1 forward_v I I I I #
loop $-1 $-1 $398 $369 #
straight-curve $-1 -1 2.1315 7.75 0 1 0 I I #
point $-1 -1 3.3815 7.75 #
point $-1 -1 2.1315 7.75 #
coedge $-1 $326 $332 $324 $381 forward $337 $-1 #
edge $-1 $334 0 $328 1.25 $380 $406 forward 7 unknown #
plane-surface $-1 0 2.1315 8.875 0 0 -1 0 1 0 forward_v I I I I #
straight-curve $-1 -1 3.3815 8.875 0 0 1 I I #
point $-1 -1 3.3815 8.875 #
plane-surface $-1 -1 0 0 1 0 0 0 0 1 forward_v I I I I #
straight-curve $-1 -1 2.1315 10.375 0 0 -1 I I #
point $-1 -1 2.1315 8.875 #
straight-curve $-1 -1 1.5440000000000005 8.3999999999999986 0 0 1 I I #
ellipse-curve $-1 -19.75 3.4530000000000003 9.6250000000000018 1 0 0 0 0.5 -1.7763568394002505e-015 1 I I #
coedge $-1 $356 $356 $354 $391 reversed $394 $-1 #
edge $-1 $360 0 $358 3.1415926535897931 $390 $407 forward 7 unknown #
face $-1 $-1 $394 $3 $-1 $408 reversed single #
cone-surface $-1 0 4.7030000000000003 8.75 -1 0 0 0 -0.5 0 1 I I 0 1 0.5 forward I I I I #
loop $-1 $-1 $356 $392 #
ellipse-curve $-1 -1 4.7030000000000012 8.75 -1 0 0 0 0.49999999999999911 0 1 I I #
point $-1 -1 5.2030000000000003 8.75 #
point $-1 -1 4.2030000000000003 8.75 #
coedge $-1 $365 $371 $363 $399 forward $376 $-1 #
edge $-1 $373 0 $367 1.25 $398 $409 forward 7 unknown #
plane-surface $-1 0 3.3815 8.75 0 0 1 0 -1 0 forward_v I I I I #
straight-curve $-1 -1 2.1315 8.75 0 0 -1 I I #
point $-1 -1 2.1315 8.75 #
plane-surface $-1 -1 0 0 1 0 0 0 0 1 forward_v I I I I #
straight-curve $-1 -1 3.3815 7.75 0 0 1 I I #
point $-1 -1 3.3815 8.75 #
straight-curve $-1 -1 2.1315 8.875 0 1 0 I I #
ellipse-curve $-1 -1 4.7029999999999994 8.75 -1 0 0 0 -0.49999999999999911 0 1 I I #
plane-surface $-1 -1 4.7030000000000003 8.75 -1 0 0 0 -1 0 forward_v I I I I #
straight-curve $-1 -1 3.3815 8.75 0 -1 0 I I #
End-of-ACIS-data 