600 0 1 0           
92 GICL ACIS Healer - Source: /gicl/data5/repository/PTC/V18/cabdia18/ha15b-0001-b139.sat - 6 0 18 ACIS 6.0.3 Solaris 24 Sat Apr 13 22:29:34 2002 
1 9.999999999999999547e-07 1.000000000000000036e-10 
body $-1 $1 $-1 $-1 #
lump $-1 $-1 $2 $0 #
shell $-1 $-1 $-1 $3 $-1 $1 #
face $-1 $4 $5 $2 $-1 $6 reversed single #
face $-1 $7 $8 $2 $-1 $9 forward single #
loop $-1 $-1 $10 $3 #
plane-surface $-1 0 0 0 0 0 1 25.39999999999999858 0 0 forward_v I I I I #
face $-1 $11 $12 $2 $-1 $13 forward single #
loop $-1 $14 $15 $4 #
plane-surface $-1 0 0 0 1 0 0 0 25.39999999999999858 0 forward_v I I I I #
coedge $-1 $16 $17 $18 $19 reversed $5 $-1 #
face $-1 $20 $21 $2 $-1 $22 forward single #
loop $-1 $-1 $23 $7 #
plane-surface $-1 0 176.6062000000000012 0 0 1 0 -25.39999999999999858 0 0 forward_v I I I I #
loop $-1 $24 $25 $4 #
coedge $-1 $26 $18 $27 $28 forward $8 $-1 #
coedge $-1 $29 $10 $30 $31 reversed $5 $-1 #
coedge $-1 $10 $29 $32 $33 reversed $5 $-1 #
coedge $-1 $15 $34 $10 $19 forward $8 $-1 #
edge $-1 $35 0 $36 6.953000000000000291 $10 $37 forward 7 unknown #
face $-1 $38 $39 $2 $-1 $40 forward single #
loop $-1 $41 $42 $11 #
plane-surface $-1 -527.0499999999999545 176.6062000000000012 0 -1 0 0 0 -25.39999999999999858 0 forward_v I I I I #
coedge $-1 $43 $32 $44 $45 forward $12 $-1 #
loop $-1 $46 $47 $4 #
coedge $-1 $48 $49 $50 $51 reversed $14 $-1 #
coedge $-1 $34 $15 $52 $53 reversed $8 $-1 #
coedge $-1 $32 $43 $15 $28 reversed $12 $-1 #
edge $-1 $36 0 $54 11.99999999999999822 $27 $55 forward 7 unknown #
coedge $-1 $17 $16 $56 $57 reversed $5 $-1 #
coedge $-1 $58 $59 $16 $31 forward $39 $-1 #
edge $-1 $60 0 $35 20.75 $16 $61 forward 7 unknown #
coedge $-1 $23 $27 $17 $33 forward $12 $-1 #
edge $-1 $36 0 $62 20.75 $17 $63 forward 7 unknown #
coedge $-1 $18 $26 $58 $64 reversed $8 $-1 #
vertex $-1 $31 $65 #
vertex $-1 $33 $66 #
straight-curve $-1 0 0 0 0 25.39999999999999858 0 I I #
face $-1 $67 $68 $2 $-1 $69 forward single #
loop $-1 $-1 $58 $20 #
plane-surface $-1 -527.0499999999999545 0 0 0 -1 0 25.39999999999999858 0 0 forward_v I I I I #
loop $-1 $-1 $70 $11 #
coedge $-1 $71 $56 $59 $72 forward $21 $-1 #
coedge $-1 $27 $23 $73 $74 reversed $12 $-1 #
coedge $-1 $56 $71 $23 $45 reversed $21 $-1 #
edge $-1 $62 0 $75 11.99999999999999822 $23 $76 forward 7 unknown #
loop $-1 $77 $78 $4 #
coedge $-1 $79 $80 $81 $82 reversed $24 $-1 #
coedge $-1 $83 $25 $84 $85 reversed $14 $-1 #
coedge $-1 $25 $83 $86 $87 reversed $14 $-1 #
coedge $-1 $88 $89 $25 $51 forward $90 $-1 #
edge $-1 $91 0 $92 1.000000000000000222 $25 $93 forward 7 unknown #
coedge $-1 $73 $94 $26 $53 forward $68 $-1 #
edge $-1 $95 0 $54 6.953000000000000291 $52 $96 forward 7 unknown #
vertex $-1 $74 $97 #
straight-curve $-1 0 176.6062000000000012 0 0 0 25.39999999999999858 I I #
coedge $-1 $42 $44 $29 $57 forward $21 $-1 #
edge $-1 $62 0 $60 6.953000000000000291 $29 $98 forward 7 unknown #
coedge $-1 $99 $30 $34 $64 forward $39 $-1 #
coedge $-1 $30 $99 $42 $72 reversed $39 $-1 #
vertex $-1 $57 $100 #
straight-curve $-1 -527.0499999999999545 0 0 25.39999999999999858 0 0 I I #
vertex $-1 $33 $101 #
straight-curve $-1 0 176.6062000000000012 0 -25.39999999999999858 0 0 I I #
edge $-1 $35 0 $95 11.99999999999999822 $58 $102 forward 7 unknown #
point $-1 0 0 0 #
point $-1 0 176.6062000000000012 0 #
face $-1 $103 $104 $2 $-1 $105 reversed single #
loop $-1 $-1 $106 $38 #
plane-surface $-1 0 0 304.7999999999999545 0 0 1 25.39999999999999858 0 0 forward_v I I I I #
coedge $-1 $107 $107 $108 $109 forward $41 $-1 #
coedge $-1 $44 $42 $106 $110 reversed $21 $-1 #
edge $-1 $60 0 $111 11.99999999999999822 $42 $112 forward 7 unknown #
coedge $-1 $106 $52 $43 $74 forward $68 $-1 #
edge $-1 $54 0 $75 20.75 $73 $113 forward 7 unknown #
vertex $-1 $74 $114 #
straight-curve $-1 -527.0499999999999545 176.6062000000000012 0 0 0 25.39999999999999858 I I #
loop $-1 $-1 $115 $4 #
coedge $-1 $116 $117 $118 $119 reversed $46 $-1 #
coedge $-1 $120 $47 $121 $122 reversed $24 $-1 #
coedge $-1 $47 $120 $123 $124 reversed $24 $-1 #
coedge $-1 $125 $126 $47 $82 forward $127 $-1 #
edge $-1 $128 0 $129 1.249999999999999778 $47 $130 forward 7 unknown #
coedge $-1 $49 $48 $131 $132 reversed $14 $-1 #
coedge $-1 $133 $134 $48 $85 forward $135 $-1 #
edge $-1 $136 0 $91 1.125 $48 $137 forward 7 unknown #
coedge $-1 $138 $139 $49 $87 forward $140 $-1 #
edge $-1 $92 0 $141 1.125 $49 $142 forward 7 unknown #
coedge $-1 $143 $50 $139 $144 forward $90 $-1 #
coedge $-1 $50 $143 $133 $145 reversed $90 $-1 #
loop $-1 $-1 $88 $146 #
vertex $-1 $85 $147 #
vertex $-1 $87 $148 #
straight-curve $-1 0 10.64260000000001227 238.7599999999999625 0 0 -25.39999999999999858 I I #
coedge $-1 $52 $106 $99 $149 forward $68 $-1 #
vertex $-1 $53 $150 #
straight-curve $-1 0 0 304.7999999999999545 0 25.39999999999999858 0 I I #
point $-1 0 176.6062000000000012 304.7999999999999545 #
straight-curve $-1 -527.0499999999999545 176.6062000000000012 0 0 -25.39999999999999858 0 I I #
coedge $-1 $59 $58 $94 $149 reversed $39 $-1 #
point $-1 -527.0499999999999545 0 0 #
point $-1 -527.0499999999999545 176.6062000000000012 0 #
straight-curve $-1 0 0 0 0 0 25.39999999999999858 I I #
face $-1 $151 $152 $2 $-1 $153 reversed single #
loop $-1 $-1 $154 $67 #
cone-surface $-1 -527.0499999999999545 87.7061999999999955 244.4749999999999943 1 0 0 0 12.69999999999999929 0 1 I I 0 1 12.69999999999999929 forward I I I I #
coedge $-1 $94 $73 $71 $110 forward $68 $-1 #
coedge $-1 $70 $70 $155 $156 forward $41 $-1 #
coedge $-1 $154 $157 $70 $109 reversed $104 $-1 #
edge $-1 $158 0 $159 3.141592653589793116 $70 $160 forward 7 unknown #
edge $-1 $75 0 $111 6.953000000000000291 $106 $161 forward 7 unknown #
vertex $-1 $149 $162 #
straight-curve $-1 -527.0499999999999545 0 0 0 0 25.39999999999999858 I I #
straight-curve $-1 0 176.6062000000000012 304.7999999999999545 -25.39999999999999858 0 0 I I #
point $-1 -527.0499999999999545 176.6062000000000012 304.7999999999999545 #
coedge $-1 $163 $163 $164 $165 forward $77 $-1 #
coedge $-1 $166 $78 $167 $168 reversed $46 $-1 #
coedge $-1 $78 $166 $169 $170 reversed $46 $-1 #
coedge $-1 $171 $172 $78 $119 forward $173 $-1 #
edge $-1 $174 0 $175 1.249999999999999778 $78 $176 forward 7 unknown #
coedge $-1 $80 $79 $177 $178 reversed $24 $-1 #
coedge $-1 $179 $180 $79 $122 forward $181 $-1 #
edge $-1 $182 0 $128 1.499999999999999778 $79 $183 forward 7 unknown #
coedge $-1 $184 $185 $80 $124 forward $186 $-1 #
edge $-1 $129 0 $187 1.499999999999999778 $80 $188 forward 7 unknown #
coedge $-1 $189 $81 $185 $190 forward $127 $-1 #
coedge $-1 $81 $189 $179 $191 reversed $127 $-1 #
loop $-1 $-1 $125 $192 #
vertex $-1 $122 $193 #
vertex $-1 $124 $194 #
straight-curve $-1 0 85.89009999999998968 263.5249999999999773 0 -25.39999999999999858 0 I I #
coedge $-1 $195 $196 $83 $132 forward $197 $-1 #
edge $-1 $141 0 $136 1.000000000000000222 $83 $198 forward 7 unknown #
coedge $-1 $199 $84 $89 $145 forward $135 $-1 #
coedge $-1 $84 $199 $195 $200 reversed $135 $-1 #
loop $-1 $-1 $133 $201 #
vertex $-1 $132 $202 #
straight-curve $-1 0 39.21760000000001156 238.7599999999999625 0 -25.39999999999999858 0 I I #
coedge $-1 $203 $86 $196 $204 forward $140 $-1 #
coedge $-1 $86 $203 $88 $144 reversed $140 $-1 #
loop $-1 $-1 $138 $205 #
vertex $-1 $87 $206 #
straight-curve $-1 0 10.64260000000001227 213.3599999999999568 0 25.39999999999999858 0 I I #
coedge $-1 $89 $88 $207 $208 reversed $90 $-1 #
edge $-1 $92 0 $209 1 $139 $210 forward 7 unknown #
edge $-1 $91 0 $211 1 $133 $212 forward 7 unknown #
face $-1 $205 $90 $2 $-1 $213 reversed single #
point $-1 0 10.64260000000001227 238.7599999999999625 #
point $-1 0 10.64260000000001227 213.3599999999999568 #
edge $-1 $111 0 $95 20.75 $94 $214 forward 7 unknown #
point $-1 0 0 304.7999999999999545 #
face $-1 $146 $215 $2 $-1 $216 reversed single #
loop $-1 $-1 $217 $103 #
cone-surface $-1 -527.0499999999999545 87.7061999999999955 244.4749999999999943 1 0 0 0 12.69999999999999929 0 1 I I 0 1 12.69999999999999929 forward I I I I #
coedge $-1 $218 $108 $219 $220 forward $104 $-1 #
coedge $-1 $217 $219 $107 $156 reversed $152 $-1 #
edge $-1 $159 0 $158 3.141592653589793116 $107 $221 forward 7 unknown #
coedge $-1 $108 $218 $217 $222 reversed $104 $-1 #
vertex $-1 $156 $223 #
vertex $-1 $156 $224 #
ellipse-curve $-1 -527.0499999999999545 87.7061999999999955 244.4749999999999943 1 0 0 0 -12.69999999999999929 0 1 I I #
straight-curve $-1 -527.0499999999999545 176.6062000000000012 304.7999999999999545 0 -25.39999999999999858 0 I I #
point $-1 -527.0499999999999545 0 304.7999999999999545 #
coedge $-1 $115 $115 $225 $226 forward $77 $-1 #
coedge $-1 $227 $228 $115 $165 reversed $229 $-1 #
edge $-1 $230 0 $231 3.141592653589793116 $115 $232 forward 7 unknown #
coedge $-1 $117 $116 $233 $234 reversed $46 $-1 #
coedge $-1 $235 $236 $116 $168 forward $237 $-1 #
edge $-1 $238 0 $174 1.000000000000000222 $116 $239 forward 7 unknown #
coedge $-1 $240 $241 $117 $170 forward $242 $-1 #
edge $-1 $175 0 $243 1.000000000000000222 $117 $244 forward 7 unknown #
coedge $-1 $245 $118 $241 $246 forward $173 $-1 #
coedge $-1 $118 $245 $235 $247 reversed $173 $-1 #
loop $-1 $-1 $171 $248 #
vertex $-1 $168 $249 #
vertex $-1 $170 $250 #
straight-curve $-1 0 54.14009999999999678 196.8499999999999943 0 25.39999999999999858 0 I I #
coedge $-1 $251 $252 $120 $178 forward $253 $-1 #
edge $-1 $187 0 $182 1.249999999999999778 $120 $254 forward 7 unknown #
coedge $-1 $255 $121 $126 $191 forward $181 $-1 #
coedge $-1 $121 $255 $251 $256 reversed $181 $-1 #
loop $-1 $-1 $179 $257 #
vertex $-1 $178 $258 #
straight-curve $-1 0 85.89009999999998968 225.4249999999999829 0 0 25.39999999999999858 I I #
coedge $-1 $259 $123 $252 $260 forward $186 $-1 #
coedge $-1 $123 $259 $125 $190 reversed $186 $-1 #
loop $-1 $-1 $184 $261 #
vertex $-1 $124 $262 #
straight-curve $-1 0 54.14009999999999678 263.5249999999999773 0 0 -25.39999999999999858 I I #
coedge $-1 $126 $125 $263 $264 reversed $127 $-1 #
edge $-1 $129 0 $265 1 $185 $266 forward 7 unknown #
edge $-1 $128 0 $267 1 $179 $268 forward 7 unknown #
face $-1 $261 $127 $2 $-1 $269 reversed single #
point $-1 0 85.89009999999998968 263.5249999999999773 #
point $-1 0 54.14009999999999678 263.5249999999999773 #
coedge $-1 $270 $131 $134 $200 forward $197 $-1 #
coedge $-1 $131 $270 $138 $204 reversed $197 $-1 #
loop $-1 $-1 $195 $271 #
straight-curve $-1 0 39.21760000000001156 213.3599999999999568 0 0 25.39999999999999858 I I #
coedge $-1 $134 $133 $272 $273 reversed $135 $-1 #
edge $-1 $136 0 $274 1 $195 $275 forward 7 unknown #
face $-1 $276 $135 $2 $-1 $277 reversed single #
point $-1 0 39.21760000000001156 238.7599999999999625 #
coedge $-1 $139 $138 $278 $279 reversed $140 $-1 #
edge $-1 $141 0 $280 1 $138 $281 forward 7 unknown #
face $-1 $271 $140 $2 $-1 $282 reversed single #
point $-1 0 39.21760000000001156 213.3599999999999568 #
coedge $-1 $278 $272 $143 $208 forward $283 $-1 #
edge $-1 $211 0 $209 1.000000000000000222 $207 $284 forward 7 unknown #
vertex $-1 $279 $285 #
straight-curve $-1 0 10.64260000000001227 213.3599999999999568 -25.39999999999999858 0 0 I I #
vertex $-1 $208 $286 #
straight-curve $-1 0 10.64260000000001227 238.7599999999999625 -25.39999999999999858 0 0 I I #
plane-surface $-1 0 10.64260000000001227 238.7599999999999625 0 -1 0 0 0 -25.39999999999999858 forward_v I I I I #
straight-curve $-1 -527.0499999999999545 0 304.7999999999999545 25.39999999999999858 0 0 I I #
loop $-1 $-1 $287 $151 #
plane-surface $-1 -501.6499999999999773 87.7061999999999955 244.4749999999999943 1 0 0 0 25.39999999999999858 0 forward_v I I I I #
coedge $-1 $288 $155 $157 $222 forward $152 $-1 #
coedge $-1 $157 $154 $287 $289 forward $104 $-1 #
coedge $-1 $155 $288 $154 $220 reversed $152 $-1 #
edge $-1 $158 0 $290 0.9999999999999991118 $219 $291 forward 7 unknown #
ellipse-curve $-1 -527.0499999999999545 87.7061999999999955 244.4749999999999943 1 0 0 0 12.69999999999999929 0 1 I I #
edge $-1 $159 0 $292 0.9999999999999991118 $217 $293 forward 7 unknown #
point $-1 -527.0499999999999545 75.00620000000000687 244.4749999999999943 #
point $-1 -527.0499999999999545 100.4061999999999983 244.4749999999999943 #
coedge $-1 $294 $295 $163 $226 reversed $296 $-1 #
edge $-1 $231 0 $230 3.141592653589793116 $163 $297 forward 7 unknown #
coedge $-1 $298 $164 $295 $299 forward $229 $-1 #
coedge $-1 $164 $298 $294 $300 reversed $229 $-1 #
loop $-1 $-1 $227 $301 #
vertex $-1 $226 $302 #
vertex $-1 $226 $303 #
ellipse-curve $-1 0 119.4561999999999955 222.25 -1 0 0 0 12.69999999999999929 0 1 I I #
coedge $-1 $304 $305 $166 $234 forward $306 $-1 #
edge $-1 $243 0 $238 1.249999999999999778 $166 $307 forward 7 unknown #
coedge $-1 $308 $167 $172 $247 forward $237 $-1 #
coedge $-1 $167 $308 $304 $309 reversed $237 $-1 #
loop $-1 $-1 $235 $310 #
vertex $-1 $234 $311 #
straight-curve $-1 0 54.14009999999999678 222.25 0 0 -25.39999999999999858 I I #
coedge $-1 $312 $169 $305 $313 forward $242 $-1 #
coedge $-1 $169 $312 $171 $246 reversed $242 $-1 #
loop $-1 $-1 $240 $314 #
vertex $-1 $170 $315 #
straight-curve $-1 0 85.89009999999998968 196.8499999999999943 0 0 25.39999999999999858 I I #
coedge $-1 $172 $171 $316 $317 reversed $173 $-1 #
edge $-1 $175 0 $318 1 $241 $319 forward 7 unknown #
edge $-1 $174 0 $320 1 $235 $321 forward 7 unknown #
face $-1 $314 $173 $2 $-1 $322 reversed single #
point $-1 0 54.14009999999999678 196.8499999999999943 #
point $-1 0 85.89009999999998968 196.8499999999999943 #
coedge $-1 $323 $177 $180 $256 forward $253 $-1 #
coedge $-1 $177 $323 $184 $260 reversed $253 $-1 #
loop $-1 $-1 $251 $324 #
straight-curve $-1 0 54.14009999999999678 225.4249999999999829 0 25.39999999999999858 0 I I #
coedge $-1 $180 $179 $325 $326 reversed $181 $-1 #
edge $-1 $182 0 $327 1 $251 $328 forward 7 unknown #
face $-1 $329 $181 $2 $-1 $330 reversed single #
point $-1 0 85.89009999999998968 225.4249999999999829 #
coedge $-1 $185 $184 $331 $332 reversed $186 $-1 #
edge $-1 $187 0 $333 1 $184 $334 forward 7 unknown #
face $-1 $324 $186 $2 $-1 $335 reversed single #
point $-1 0 54.14009999999999678 225.4249999999999829 #
coedge $-1 $331 $325 $189 $264 forward $336 $-1 #
edge $-1 $267 0 $265 1.249999999999999778 $263 $337 forward 7 unknown #
vertex $-1 $332 $338 #
straight-curve $-1 0 54.14009999999999678 263.5249999999999773 -25.39999999999999858 0 0 I I #
vertex $-1 $264 $339 #
straight-curve $-1 0 85.89009999999998968 263.5249999999999773 -25.39999999999999858 0 0 I I #
plane-surface $-1 0 85.89009999999998968 263.5249999999999773 0 0 1 0 -25.39999999999999858 0 forward_v I I I I #
coedge $-1 $196 $195 $340 $341 reversed $197 $-1 #
face $-1 $201 $197 $2 $-1 $342 reversed single #
coedge $-1 $207 $340 $199 $273 forward $283 $-1 #
edge $-1 $274 0 $211 1.125 $272 $343 forward 7 unknown #
vertex $-1 $273 $344 #
straight-curve $-1 0 39.21760000000001156 238.7599999999999625 -25.39999999999999858 0 0 I I #
face $-1 $192 $283 $2 $-1 $345 forward single #
plane-surface $-1 0 39.21760000000001156 238.7599999999999625 0 0 1 0 -25.39999999999999858 0 forward_v I I I I #
coedge $-1 $340 $207 $203 $279 forward $283 $-1 #
edge $-1 $209 0 $280 1.125 $278 $346 forward 7 unknown #
vertex $-1 $279 $347 #
straight-curve $-1 0 39.21760000000001156 213.3599999999999568 -25.39999999999999858 0 0 I I #
plane-surface $-1 0 10.64260000000001227 213.3599999999999568 0 0 -1 0 25.39999999999999858 0 forward_v I I I I #
loop $-1 $-1 $340 $276 #
straight-curve $-1 -25.39999999999999858 10.64260000000001227 238.7599999999999625 0 0 -25.39999999999999858 I I #
point $-1 -25.39999999999999858 10.64260000000001227 213.3599999999999568 #
point $-1 -25.39999999999999858 10.64260000000001227 238.7599999999999625 #
coedge $-1 $348 $348 $218 $289 reversed $215 $-1 #
coedge $-1 $219 $217 $348 $349 forward $152 $-1 #
edge $-1 $290 -9.231460740190316827e-16 $292 3.14159265358980111 $287 $350 forward 7 unknown #
vertex $-1 $349 $351 #
straight-curve $-1 -527.0499999999999545 75.00620000000000687 244.4749999999999943 25.39999999999999858 0 0 I I #
vertex $-1 $349 $352 #
straight-curve $-1 -527.0499999999999545 100.4061999999999983 244.4749999999999943 25.39999999999999858 0 0 I I #
coedge $-1 $353 $225 $228 $300 forward $296 $-1 #
coedge $-1 $225 $353 $227 $299 reversed $296 $-1 #
loop $-1 $-1 $294 $354 #
ellipse-curve $-1 0 119.4561999999999955 222.25 -1 0 0 0 -12.69999999999999929 0 1 I I #
coedge $-1 $228 $227 $355 $356 forward $229 $-1 #
edge $-1 $230 0 $357 1 $295 $358 forward 7 unknown #
edge $-1 $231 0 $359 1 $294 $360 forward 7 unknown #
face $-1 $354 $229 $2 $-1 $361 reversed single #
point $-1 0 132.1562000000000126 222.25 #
point $-1 0 106.7562000000000069 222.25 #
coedge $-1 $362 $233 $236 $309 forward $306 $-1 #
coedge $-1 $233 $362 $240 $313 reversed $306 $-1 #
loop $-1 $-1 $304 $363 #
straight-curve $-1 0 85.89009999999998968 222.25 0 -25.39999999999999858 0 I I #
coedge $-1 $236 $235 $364 $365 reversed $237 $-1 #
edge $-1 $238 0 $366 1 $304 $367 forward 7 unknown #
face $-1 $368 $237 $2 $-1 $369 reversed single #
point $-1 0 54.14009999999999678 222.25 #
coedge $-1 $241 $240 $370 $371 reversed $242 $-1 #
edge $-1 $243 0 $372 1 $240 $373 forward 7 unknown #
face $-1 $363 $242 $2 $-1 $374 reversed single #
point $-1 0 85.89009999999998968 222.25 #
coedge $-1 $370 $364 $245 $317 forward $375 $-1 #
edge $-1 $320 0 $318 1.249999999999999778 $316 $376 forward 7 unknown #
vertex $-1 $371 $377 #
straight-curve $-1 0 85.89009999999998968 196.8499999999999943 -25.39999999999999858 0 0 I I #
vertex $-1 $317 $378 #
straight-curve $-1 0 54.14009999999999678 196.8499999999999943 -25.39999999999999858 0 0 I I #
plane-surface $-1 0 54.14009999999999678 196.8499999999999943 0 0 -1 0 25.39999999999999858 0 forward_v I I I I #
coedge $-1 $252 $251 $379 $380 reversed $253 $-1 #
face $-1 $257 $253 $2 $-1 $381 reversed single #
coedge $-1 $263 $379 $255 $326 forward $336 $-1 #
edge $-1 $327 0 $267 1.499999999999999778 $325 $382 forward 7 unknown #
vertex $-1 $326 $383 #
straight-curve $-1 0 85.89009999999998968 225.4249999999999829 -25.39999999999999858 0 0 I I #
face $-1 $248 $336 $2 $-1 $384 forward single #
plane-surface $-1 0 85.89009999999998968 225.4249999999999829 0 1 0 0 0 25.39999999999999858 forward_v I I I I #
coedge $-1 $379 $263 $259 $332 forward $336 $-1 #
edge $-1 $265 0 $333 1.499999999999999778 $331 $385 forward 7 unknown #
vertex $-1 $332 $386 #
straight-curve $-1 0 54.14009999999999678 225.4249999999999829 -25.39999999999999858 0 0 I I #
plane-surface $-1 0 54.14009999999999678 263.5249999999999773 0 -1 0 0 0 -25.39999999999999858 forward_v I I I I #
loop $-1 $-1 $379 $329 #
straight-curve $-1 -25.39999999999999858 85.89009999999998968 263.5249999999999773 0 -25.39999999999999858 0 I I #
point $-1 -25.39999999999999858 54.14009999999999678 263.5249999999999773 #
point $-1 -25.39999999999999858 85.89009999999998968 263.5249999999999773 #
coedge $-1 $272 $278 $270 $341 forward $283 $-1 #
edge $-1 $280 0 $274 1.000000000000000222 $340 $387 forward 7 unknown #
plane-surface $-1 0 39.21760000000001156 213.3599999999999568 0 1 0 0 0 25.39999999999999858 forward_v I I I I #
straight-curve $-1 -25.39999999999999858 39.21760000000001156 238.7599999999999625 0 -25.39999999999999858 0 I I #
point $-1 -25.39999999999999858 39.21760000000001156 238.7599999999999625 #
plane-surface $-1 -25.39999999999999858 0 0 1 0 0 0 0 25.39999999999999858 forward_v I I I I #
straight-curve $-1 -25.39999999999999858 10.64260000000001227 213.3599999999999568 0 25.39999999999999858 0 I I #
point $-1 -25.39999999999999858 39.21760000000001156 213.3599999999999568 #
coedge $-1 $287 $287 $288 $349 reversed $215 $-1 #
edge $-1 $292 1.31478380239073699e-15 $290 3.141592653589798889 $348 $388 forward 7 unknown #
ellipse-curve $-1 -501.6499999999999773 87.7061999999999955 244.4749999999999375 1 0 0 0 -12.69999999999999929 4.511946372076635928e-14 1 I I #
point $-1 -501.6499999999999773 75.00620000000000687 244.4749999999999943 #
point $-1 -501.6499999999999773 100.4061999999999983 244.4749999999999943 #
coedge $-1 $295 $294 $389 $390 forward $296 $-1 #
face $-1 $391 $296 $2 $-1 $392 reversed single #
coedge $-1 $389 $389 $298 $356 reversed $393 $-1 #
edge $-1 $357 0 $359 3.141592653589793116 $355 $394 forward 7 unknown #
vertex $-1 $390 $395 #
straight-curve $-1 0 132.1562000000000126 222.25 -25.39999999999999858 0 0 I I #
vertex $-1 $390 $396 #
straight-curve $-1 0 106.7562000000000069 222.25 -25.39999999999999858 0 0 I I #
cone-surface $-1 0 119.4561999999999955 222.25 -1 0 0 0 -12.69999999999999929 0 1 I I 0 1 12.69999999999999929 forward I I I I #
coedge $-1 $305 $304 $397 $398 reversed $306 $-1 #
face $-1 $310 $306 $2 $-1 $399 reversed single #
coedge $-1 $316 $397 $308 $365 forward $375 $-1 #
edge $-1 $366 0 $320 1.000000000000000222 $364 $400 forward 7 unknown #
vertex $-1 $365 $401 #
straight-curve $-1 0 54.14009999999999678 222.25 -25.39999999999999858 0 0 I I #
face $-1 $301 $375 $2 $-1 $402 forward single #
plane-surface $-1 0 54.14009999999999678 222.25 0 -1 0 0 0 -25.39999999999999858 forward_v I I I I #
coedge $-1 $397 $316 $312 $371 forward $375 $-1 #
edge $-1 $318 0 $372 1.000000000000000222 $370 $403 forward 7 unknown #
vertex $-1 $371 $404 #
straight-curve $-1 0 85.89009999999998968 222.25 -25.39999999999999858 0 0 I I #
plane-surface $-1 0 85.89009999999998968 196.8499999999999943 0 1 0 0 0 25.39999999999999858 forward_v I I I I #
loop $-1 $-1 $397 $368 #
straight-curve $-1 -25.39999999999999858 54.14009999999999678 196.8499999999999943 0 25.39999999999999858 0 I I #
point $-1 -25.39999999999999858 85.89009999999998968 196.8499999999999943 #
point $-1 -25.39999999999999858 54.14009999999999678 196.8499999999999943 #
coedge $-1 $325 $331 $323 $380 forward $336 $-1 #
edge $-1 $333 0 $327 1.249999999999999778 $379 $405 forward 7 unknown #
plane-surface $-1 0 54.14009999999999678 225.4249999999999829 0 0 -1 0 25.39999999999999858 0 forward_v I I I I #
straight-curve $-1 -25.39999999999999858 85.89009999999998968 225.4249999999999829 0 0 25.39999999999999858 I I #
point $-1 -25.39999999999999858 85.89009999999998968 225.4249999999999829 #
plane-surface $-1 -25.39999999999999858 0 0 1 0 0 0 0 25.39999999999999858 forward_v I I I I #
straight-curve $-1 -25.39999999999999858 54.14009999999999678 263.5249999999999773 0 0 -25.39999999999999858 I I #
point $-1 -25.39999999999999858 54.14009999999999678 225.4249999999999829 #
straight-curve $-1 -25.39999999999999858 39.21760000000001156 213.3599999999999568 0 0 25.39999999999999858 I I #
ellipse-curve $-1 -501.6499999999999773 87.7061999999999955 244.4750000000000227 1 0 0 0 12.69999999999999929 -4.511946372076635928e-14 1 I I #
coedge $-1 $355 $355 $353 $390 reversed $393 $-1 #
edge $-1 $359 0 $357 3.141592653589793116 $389 $406 forward 7 unknown #
face $-1 $-1 $393 $2 $-1 $407 reversed single #
cone-surface $-1 0 119.4561999999999955 222.25 -1 0 0 0 -12.69999999999999929 0 1 I I 0 1 12.69999999999999929 forward I I I I #
loop $-1 $-1 $355 $391 #
ellipse-curve $-1 -25.39999999999999858 119.4562000000000239 222.25 -1 0 0 0 12.6999999999999762 0 1 I I #
point $-1 -25.39999999999999858 132.1562000000000126 222.25 #
point $-1 -25.39999999999999858 106.7562000000000069 222.25 #
coedge $-1 $364 $370 $362 $398 forward $375 $-1 #
edge $-1 $372 0 $366 1.249999999999999778 $397 $408 forward 7 unknown #
plane-surface $-1 0 85.89009999999998968 222.25 0 0 1 0 -25.39999999999999858 0 forward_v I I I I #
straight-curve $-1 -25.39999999999999858 54.14009999999999678 222.25 0 0 -25.39999999999999858 I I #
point $-1 -25.39999999999999858 54.14009999999999678 222.25 #
plane-surface $-1 -25.39999999999999858 0 0 1 0 0 0 0 25.39999999999999858 forward_v I I I I #
straight-curve $-1 -25.39999999999999858 85.89009999999998968 196.8499999999999943 0 0 25.39999999999999858 I I #
point $-1 -25.39999999999999858 85.89009999999998968 222.25 #
straight-curve $-1 -25.39999999999999858 54.14009999999999678 225.4249999999999829 0 25.39999999999999858 0 I I #
ellipse-curve $-1 -25.39999999999999858 119.4561999999999813 222.25 -1 0 0 0 -12.6999999999999762 0 1 I I #
plane-surface $-1 -25.39999999999999858 119.4561999999999955 222.25 -1 0 0 0 -25.39999999999999858 0 forward_v I I I I #
straight-curve $-1 -25.39999999999999858 85.89009999999998968 222.25 0 -25.39999999999999858 0 I I #
End-of-ACIS-data 