600 0 1 0           
99 GICL Pro/E ACIS Translator - Source: f:/data5/repository/PTC/V18/cabdia18/ha15b-0001-b134.prt - 6 0 13 ACIS 6.0.3 NT 24 Thu Apr 04 10:03:28 2002 
1 9.9999999999999995e-007 1e-010 
body $-1 $1 $-1 $2 #
lump $-1 $-1 $3 $0 #
transform $-1 1 0 0 0 1 0 0 0 1 0 0 0 25.399999999999999 no_rotate no_reflect no_shear #
shell $-1 $-1 $-1 $4 $-1 $1 #
face $-1 $5 $6 $3 $-1 $7 reversed single #
face $-1 $8 $9 $3 $-1 $10 forward single #
loop $-1 $-1 $11 $4 #
plane-surface $-1 0 0 0 0 0 1 1 0 0 forward_v I I I I #
face $-1 $12 $13 $3 $-1 $14 forward single #
loop $-1 $-1 $15 $5 #
plane-surface $-1 -21.399999999999999 0 0 0 -1 0 1 0 0 forward_v I I I I #
coedge $-1 $16 $17 $18 $19 reversed $6 $-1 #
face $-1 $20 $21 $3 $-1 $22 forward single #
loop $-1 $23 $24 $8 #
plane-surface $-1 0 0 0 1 0 0 0 1 0 forward_v I I I I #
coedge $-1 $25 $18 $26 $27 forward $9 $-1 #
coedge $-1 $28 $11 $29 $30 reversed $6 $-1 #
coedge $-1 $11 $28 $31 $32 reversed $6 $-1 #
coedge $-1 $15 $33 $11 $19 forward $9 $-1 #
edge $-1 $34 0 $35 21.399999999999999 $11 $36 forward 7 unknown #
face $-1 $37 $38 $3 $-1 $39 forward single #
loop $-1 $-1 $40 $12 #
plane-surface $-1 0 3.0749999999999997 0 0 1 0 -1 0 0 forward_v I I I I #
loop $-1 $-1 $41 $8 #
coedge $-1 $42 $31 $43 $44 forward $13 $-1 #
coedge $-1 $33 $15 $45 $46 reversed $9 $-1 #
coedge $-1 $31 $42 $15 $27 reversed $13 $-1 #
edge $-1 $35 0 $47 12 $26 $48 forward 7 unknown #
coedge $-1 $17 $16 $49 $50 reversed $6 $-1 #
coedge $-1 $51 $52 $16 $30 forward $38 $-1 #
edge $-1 $53 0 $34 3.0749999999999997 $16 $54 forward 7 unknown #
coedge $-1 $24 $26 $17 $32 forward $13 $-1 #
edge $-1 $35 0 $55 3.0749999999999997 $17 $56 forward 7 unknown #
coedge $-1 $18 $25 $51 $57 reversed $9 $-1 #
vertex $-1 $30 $58 #
vertex $-1 $32 $59 #
straight-curve $-1 -21.399999999999999 0 0 1 0 0 I I #
face $-1 $60 $61 $3 $-1 $62 forward single #
loop $-1 $63 $51 $20 #
plane-surface $-1 -21.399999999999999 3.0749999999999997 0 -1 0 0 0 -1 0 forward_v I I I I #
coedge $-1 $64 $49 $52 $65 forward $21 $-1 #
coedge $-1 $66 $67 $68 $69 forward $23 $-1 #
coedge $-1 $26 $24 $70 $71 reversed $13 $-1 #
coedge $-1 $49 $64 $24 $44 reversed $21 $-1 #
edge $-1 $55 0 $72 12 $24 $73 forward 7 unknown #
coedge $-1 $70 $74 $25 $46 forward $61 $-1 #
edge $-1 $75 0 $47 21.399999999999999 $45 $76 forward 7 unknown #
vertex $-1 $71 $77 #
straight-curve $-1 0 0 0 0 0 1 I I #
coedge $-1 $40 $43 $28 $50 forward $21 $-1 #
edge $-1 $55 0 $53 21.399999999999999 $28 $78 forward 7 unknown #
coedge $-1 $79 $29 $33 $57 forward $38 $-1 #
coedge $-1 $29 $79 $40 $65 reversed $38 $-1 #
vertex $-1 $50 $80 #
straight-curve $-1 -21.399999999999999 3.0749999999999997 0 0 -1 0 I I #
vertex $-1 $32 $81 #
straight-curve $-1 0 0 0 0 1 0 I I #
edge $-1 $34 0 $75 12 $51 $82 forward 7 unknown #
point $-1 -21.399999999999999 0 0 #
point $-1 0 0 0 #
face $-1 $83 $84 $3 $-1 $85 forward single #
loop $-1 $-1 $86 $37 #
plane-surface $-1 0 0 12 0 0 1 1 0 0 forward_v I I I I #
loop $-1 $87 $88 $20 #
coedge $-1 $43 $40 $86 $89 reversed $21 $-1 #
edge $-1 $53 0 $90 12 $40 $91 forward 7 unknown #
coedge $-1 $92 $41 $93 $94 reversed $23 $-1 #
coedge $-1 $41 $92 $95 $96 forward $23 $-1 #
coedge $-1 $97 $98 $41 $69 reversed $99 $-1 #
edge $-1 $100 0 $101 2.8650000000000002 $41 $102 forward 7 unknown #
coedge $-1 $86 $45 $42 $71 forward $61 $-1 #
edge $-1 $47 0 $72 3.0749999999999997 $70 $103 forward 7 unknown #
vertex $-1 $71 $104 #
straight-curve $-1 0 3.0749999999999997 0 0 0 1 I I #
coedge $-1 $45 $86 $79 $105 forward $61 $-1 #
vertex $-1 $46 $106 #
straight-curve $-1 -21.399999999999999 0 12 1 0 0 I I #
point $-1 0 0 12 #
straight-curve $-1 0 3.0749999999999997 0 -1 0 0 I I #
coedge $-1 $52 $51 $74 $105 reversed $38 $-1 #
point $-1 -21.399999999999999 3.0749999999999997 0 #
point $-1 0 3.0749999999999997 0 #
straight-curve $-1 -21.399999999999999 0 0 0 0 1 I I #
face $-1 $107 $108 $3 $-1 $109 reversed single #
loop $-1 $-1 $110 $60 #
plane-surface $-1 -21.399999999999999 2.9700000000000002 8.75 0 0 1 -1 0 0 forward_v I I I I #
coedge $-1 $74 $70 $64 $89 forward $61 $-1 #
loop $-1 $-1 $111 $20 #
coedge $-1 $112 $113 $114 $115 forward $63 $-1 #
edge $-1 $72 0 $90 21.399999999999999 $86 $116 forward 7 unknown #
vertex $-1 $105 $117 #
straight-curve $-1 -21.399999999999999 3.0749999999999997 0 0 0 1 I I #
coedge $-1 $67 $66 $118 $119 reversed $23 $-1 #
coedge $-1 $120 $121 $66 $94 forward $122 $-1 #
edge $-1 $123 0 $101 0.75 $66 $124 forward 7 unknown #
coedge $-1 $125 $126 $67 $96 reversed $127 $-1 #
edge $-1 $128 0 $100 0.75 $67 $129 forward 7 unknown #
coedge $-1 $130 $68 $126 $131 forward $99 $-1 #
coedge $-1 $68 $130 $120 $132 reversed $99 $-1 #
loop $-1 $133 $97 $134 #
vertex $-1 $96 $135 #
vertex $-1 $94 $136 #
straight-curve $-1 0 2.9700000000000002 8 0 -1 0 I I #
straight-curve $-1 0 0 12 0 1 0 I I #
point $-1 0 3.0749999999999997 12 #
edge $-1 $90 0 $75 3.0749999999999997 $74 $137 forward 7 unknown #
point $-1 -21.399999999999999 0 12 #
face $-1 $138 $139 $3 $-1 $140 forward single #
loop $-1 $-1 $141 $83 #
plane-surface $-1 0 2.9700000000000002 0 0 -1 0 -1 0 0 forward_v I I I I #
coedge $-1 $142 $114 $143 $144 forward $84 $-1 #
coedge $-1 $145 $146 $147 $148 reversed $87 $-1 #
coedge $-1 $149 $88 $150 $151 forward $63 $-1 #
coedge $-1 $88 $149 $152 $153 reversed $63 $-1 #
coedge $-1 $110 $154 $88 $115 reversed $84 $-1 #
edge $-1 $155 0 $156 2.8650000000000002 $88 $157 forward 7 unknown #
straight-curve $-1 0 3.0749999999999997 12 -1 0 0 I I #
point $-1 -21.399999999999999 3.0749999999999997 12 #
coedge $-1 $158 $159 $92 $119 forward $160 $-1 #
edge $-1 $128 0 $123 2.8650000000000002 $92 $161 forward 7 unknown #
coedge $-1 $162 $93 $98 $132 forward $122 $-1 #
coedge $-1 $93 $163 $158 $164 forward $122 $-1 #
loop $-1 $-1 $120 $165 #
vertex $-1 $119 $166 #
straight-curve $-1 0 0.10499999999999998 8.75 0 0 -1 I I #
coedge $-1 $167 $95 $159 $168 reversed $127 $-1 #
coedge $-1 $95 $169 $97 $131 reversed $127 $-1 #
loop $-1 $-1 $125 $170 #
vertex $-1 $96 $171 #
straight-curve $-1 0 2.9700000000000002 8.75 0 0 -1 I I #
coedge $-1 $98 $97 $172 $173 forward $99 $-1 #
edge $-1 $100 0 $174 0.80000000000000071 $126 $175 forward 7 unknown #
edge $-1 $101 0 $176 0.80000000000000071 $120 $177 forward 7 unknown #
loop $-1 $178 $179 $134 #
face $-1 $170 $99 $3 $-1 $180 forward single #
point $-1 0 2.9700000000000002 8 #
point $-1 0 0.10499999999999998 8 #
straight-curve $-1 -21.399999999999999 3.0749999999999997 12 0 -1 0 I I #
face $-1 $181 $182 $3 $-1 $183 forward single #
loop $-1 $184 $185 $107 #
plane-surface $-1 -22.199999999999999 2.9700000000000002 8 0 0 -1 1 0 0 forward_v I I I I #
coedge $-1 $186 $152 $187 $188 reversed $108 $-1 #
coedge $-1 $154 $110 $189 $190 forward $84 $-1 #
coedge $-1 $152 $191 $110 $144 reversed $108 $-1 #
edge $-1 $155 0 $192 0.079999999999998295 $143 $193 forward 7 unknown #
coedge $-1 $194 $111 $195 $196 reversed $87 $-1 #
coedge $-1 $111 $194 $197 $198 reversed $87 $-1 #
coedge $-1 $199 $200 $111 $148 forward $201 $-1 #
edge $-1 $202 0 $203 1.1810000000000009 $111 $204 forward 7 unknown #
coedge $-1 $113 $112 $205 $206 reversed $63 $-1 #
coedge $-1 $207 $208 $112 $151 reversed $182 $-1 #
edge $-1 $156 0 $209 0.75 $112 $210 forward 7 unknown #
coedge $-1 $141 $143 $113 $153 forward $108 $-1 #
edge $-1 $155 0 $211 0.75 $113 $212 forward 7 unknown #
coedge $-1 $114 $142 $207 $213 reversed $84 $-1 #
vertex $-1 $153 $214 #
vertex $-1 $151 $215 #
straight-curve $-1 -21.399999999999999 2.9699999999999998 8.75 0 -1 0 I I #
coedge $-1 $216 $118 $121 $164 reversed $160 $-1 #
coedge $-1 $118 $216 $125 $168 forward $160 $-1 #
loop $-1 $-1 $158 $217 #
straight-curve $-1 0 2.9700000000000002 8.75 0 -1 0 I I #
coedge $-1 $218 $120 $219 $220 forward $122 $-1 #
coedge $-1 $121 $218 $221 $222 forward $122 $-1 #
edge $-1 $223 0 $123 0.080000000000000002 $121 $224 forward 7 unknown #
face $-1 $225 $122 $3 $-1 $226 forward single #
point $-1 0 0.10499999999999998 8.75 #
coedge $-1 $227 $125 $228 $229 reversed $127 $-1 #
edge $-1 $230 0 $128 0.080000000000000002 $125 $231 forward 7 unknown #
coedge $-1 $126 $227 $232 $233 reversed $127 $-1 #
face $-1 $217 $127 $3 $-1 $234 reversed single #
point $-1 0 2.9700000000000002 8.75 #
coedge $-1 $232 $219 $130 $173 reversed $235 $-1 #
edge $-1 $174 0 $176 2.8650000000000002 $130 $236 forward 7 unknown #
vertex $-1 $131 $237 #
straight-curve $-1 0 2.9700000000000002 8 1 0 0 I I #
vertex $-1 $220 $238 #
straight-curve $-1 0 0.10499999999999998 8 1 0 0 I I #
loop $-1 $239 $240 $134 #
coedge $-1 $241 $242 $243 $244 forward $133 $-1 #
plane-surface $-1 0 2.9700000000000002 8 0 0 -1 1 0 0 forward_v I I I I #
face $-1 $245 $246 $3 $-1 $247 forward single #
loop $-1 $-1 $207 $138 #
plane-surface $-1 0 0.10499999999999998 0 0 -1 0 -1 0 0 forward_v I I I I #
loop $-1 $248 $249 $107 #
coedge $-1 $250 $205 $208 $251 reversed $139 $-1 #
coedge $-1 $252 $141 $253 $254 reversed $108 $-1 #
coedge $-1 $205 $250 $141 $188 forward $139 $-1 #
edge $-1 $255 0 $211 0.80000000000000071 $141 $256 forward 7 unknown #
coedge $-1 $257 $258 $142 $190 reversed $246 $-1 #
edge $-1 $192 0 $259 2.8650000000000002 $142 $260 forward 7 unknown #
coedge $-1 $143 $252 $257 $261 reversed $108 $-1 #
vertex $-1 $144 $262 #
straight-curve $-1 -21.399999999999999 2.9700000000000002 8.75 -1 0 0 I I #
coedge $-1 $146 $145 $263 $264 reversed $87 $-1 #
coedge $-1 $265 $266 $145 $196 forward $267 $-1 #
edge $-1 $268 0 $202 1.4169999999999998 $145 $269 forward 7 unknown #
coedge $-1 $270 $271 $146 $198 forward $272 $-1 #
edge $-1 $203 0 $273 1.4169999999999998 $146 $274 forward 7 unknown #
coedge $-1 $275 $147 $271 $276 forward $201 $-1 #
coedge $-1 $147 $275 $265 $277 reversed $201 $-1 #
loop $-1 $-1 $199 $278 #
vertex $-1 $196 $279 #
vertex $-1 $198 $280 #
straight-curve $-1 -21.399999999999999 2.2459999999999996 11.0305 0 0 -1 I I #
coedge $-1 $185 $187 $149 $206 forward $139 $-1 #
edge $-1 $211 0 $209 2.8650000000000002 $149 $281 forward 7 unknown #
coedge $-1 $282 $150 $154 $213 forward $182 $-1 #
coedge $-1 $150 $283 $185 $251 forward $182 $-1 #
vertex $-1 $206 $284 #
straight-curve $-1 -21.399999999999999 0.10499999999999998 8.75 0 0 -1 I I #
vertex $-1 $153 $285 #
straight-curve $-1 -21.399999999999999 2.9700000000000002 8.75 0 0 -1 I I #
edge $-1 $156 0 $259 0.079999999999998295 $207 $286 forward 7 unknown #
point $-1 -21.399999999999999 2.9699999999999998 8.75 #
point $-1 -21.399999999999999 0.10499999999999954 8.75 #
coedge $-1 $159 $158 $287 $288 reversed $160 $-1 #
face $-1 $165 $160 $3 $-1 $289 forward single #
coedge $-1 $163 $162 $290 $291 forward $122 $-1 #
coedge $-1 $172 $292 $162 $220 reversed $235 $-1 #
edge $-1 $176 0 $293 0.080000000000000071 $162 $294 forward 7 unknown #
coedge $-1 $295 $287 $163 $222 reversed $296 $-1 #
edge $-1 $297 0 $223 0.66999999999999993 $163 $298 forward 7 unknown #
vertex $-1 $164 $299 #
straight-curve $-1 0.080000000000000002 0.10499999999999998 8.75 -1 0 0 I I #
face $-1 $300 $235 $3 $-1 $301 forward single #
plane-surface $-1 0 0.10499999999999998 0 0 -1 0 -1 0 0 forward_v I I I I #
coedge $-1 $169 $167 $302 $303 reversed $127 $-1 #
coedge $-1 $287 $295 $167 $229 forward $296 $-1 #
edge $-1 $304 0 $230 0.66999999999999993 $167 $305 forward 7 unknown #
vertex $-1 $229 $306 #
straight-curve $-1 0.080000000000000002 2.9700000000000002 8.75 -1 0 0 I I #
coedge $-1 $292 $172 $169 $233 forward $235 $-1 #
edge $-1 $174 0 $307 0.080000000000000071 $169 $308 forward 7 unknown #
plane-surface $-1 0 2.9700000000000002 0 0 -1 0 -1 0 0 forward_v I I I I #
loop $-1 $-1 $292 $225 #
straight-curve $-1 0.80000000000000071 2.9700000000000002 8 0 -1 0 I I #
point $-1 0.80000000000000071 2.9700000000000002 8 #
point $-1 0.80000000000000071 0.10499999999999998 8 #
loop $-1 $309 $310 $134 #
coedge $-1 $311 $312 $313 $314 forward $178 $-1 #
coedge $-1 $315 $179 $316 $317 forward $133 $-1 #
coedge $-1 $179 $315 $318 $319 forward $133 $-1 #
coedge $-1 $320 $321 $179 $244 reversed $322 $-1 #
edge $-1 $323 0 $324 3.1415926535897931 $179 $325 forward 7 unknown #
face $-1 $326 $327 $3 $-1 $328 forward single #
loop $-1 $-1 $329 $181 #
plane-surface $-1 -21.479999999999997 2.9700000000000002 8.75 -1 0 0 0 0 -1 forward_v I I I I #
loop $-1 $330 $331 $107 #
coedge $-1 $332 $333 $334 $335 forward $184 $-1 #
coedge $-1 $187 $185 $336 $337 reversed $139 $-1 #
edge $-1 $338 0 $209 0.80000000000000071 $208 $339 forward 7 unknown #
coedge $-1 $191 $186 $340 $341 reversed $108 $-1 #
coedge $-1 $336 $342 $186 $254 forward $343 $-1 #
edge $-1 $344 0 $255 0.080000000000000071 $186 $345 forward 7 unknown #
vertex $-1 $254 $346 #
straight-curve $-1 -22.199999999999999 2.9700000000000002 8 1 0 0 I I #
coedge $-1 $329 $189 $191 $261 forward $246 $-1 #
coedge $-1 $189 $329 $282 $347 reversed $246 $-1 #
vertex $-1 $347 $348 #
straight-curve $-1 -21.479999999999997 2.9700000000000002 8.75 0 -1 0 I I #
edge $-1 $192 0 $349 0.66999999999999993 $191 $350 forward 7 unknown #
point $-1 -21.479999999999997 2.9700000000000002 8.75 #
coedge $-1 $351 $352 $194 $264 forward $353 $-1 #
edge $-1 $273 0 $268 1.1810000000000009 $194 $354 forward 7 unknown #
coedge $-1 $355 $195 $200 $277 forward $267 $-1 #
coedge $-1 $195 $355 $351 $356 reversed $267 $-1 #
loop $-1 $-1 $265 $357 #
vertex $-1 $264 $358 #
straight-curve $-1 -21.399999999999999 0.82899999999999974 11.0305 0 1 0 I I #
coedge $-1 $359 $197 $352 $360 forward $272 $-1 #
coedge $-1 $197 $359 $199 $276 reversed $272 $-1 #
loop $-1 $-1 $270 $361 #
vertex $-1 $198 $362 #
straight-curve $-1 -21.399999999999999 2.2459999999999996 9.849499999999999 0 -1 0 I I #
coedge $-1 $200 $199 $363 $364 reversed $201 $-1 #
edge $-1 $203 0 $365 1 $271 $366 forward 7 unknown #
edge $-1 $202 0 $367 1 $265 $368 forward 7 unknown #
face $-1 $361 $201 $3 $-1 $369 reversed single #
point $-1 -21.399999999999999 2.2459999999999996 11.0305 #
point $-1 -21.399999999999999 2.2459999999999996 9.849499999999999 #
straight-curve $-1 -21.399999999999999 2.9699999999999998 8 0 -1 0 I I #
coedge $-1 $370 $207 $258 $347 forward $182 $-1 #
coedge $-1 $208 $370 $371 $372 forward $182 $-1 #
point $-1 -21.399999999999999 0.10499999999999954 8 #
point $-1 -21.399999999999999 2.9699999999999998 8 #
straight-curve $-1 -21.399999999999999 0.10499999999999998 8.75 -1 0 0 I I #
coedge $-1 $221 $228 $216 $288 forward $296 $-1 #
edge $-1 $230 0 $223 2.8650000000000002 $287 $373 forward 7 unknown #
plane-surface $-1 0.080000000000000002 2.9700000000000002 8.75 0 0 1 -1 0 0 forward_v I I I I #
coedge $-1 $374 $375 $218 $291 reversed $376 $-1 #
edge $-1 $293 0 $297 0.72000000000000075 $218 $377 forward 7 unknown #
coedge $-1 $219 $232 $374 $378 forward $235 $-1 #
vertex $-1 $291 $379 #
straight-curve $-1 0.80000000000000071 0.10499999999999998 8 0 0 1 I I #
coedge $-1 $228 $221 $375 $380 reversed $296 $-1 #
loop $-1 $-1 $287 $381 #
vertex $-1 $222 $382 #
straight-curve $-1 0.080000000000000002 0.10499999999999998 8.0800000000000001 0 0 1 I I #
point $-1 0.080000000000000002 0.10499999999999998 8.75 #
face $-1 $381 $376 $3 $-1 $383 forward single #
plane-surface $-1 0.80000000000000071 2.9700000000000002 8 1 0 0 0 0 1 forward_v I I I I #
coedge $-1 $375 $374 $227 $303 forward $376 $-1 #
edge $-1 $307 0 $304 0.72000000000000075 $227 $384 forward 7 unknown #
vertex $-1 $303 $385 #
straight-curve $-1 0.080000000000000002 2.9700000000000002 8.0800000000000001 0 0 1 I I #
point $-1 0.080000000000000002 2.9700000000000002 8.75 #
vertex $-1 $233 $386 #
straight-curve $-1 0.80000000000000071 2.9700000000000002 8 0 0 1 I I #
loop $-1 $-1 $387 $134 #
coedge $-1 $388 $389 $390 $391 reversed $239 $-1 #
coedge $-1 $392 $240 $393 $394 forward $178 $-1 #
coedge $-1 $240 $392 $395 $396 forward $178 $-1 #
coedge $-1 $397 $398 $240 $314 reversed $399 $-1 #
edge $-1 $400 0 $401 3.1415926535897931 $240 $402 forward 7 unknown #
coedge $-1 $242 $241 $403 $404 forward $133 $-1 #
coedge $-1 $405 $406 $241 $317 reversed $407 $-1 #
edge $-1 $324 0 $408 0.125 $241 $409 forward 7 unknown #
coedge $-1 $410 $411 $242 $319 reversed $412 $-1 #
edge $-1 $413 0 $323 0.125 $242 $414 forward 7 unknown #
coedge $-1 $415 $243 $411 $416 reversed $322 $-1 #
coedge $-1 $243 $415 $405 $417 forward $322 $-1 #
loop $-1 $-1 $320 $418 #
vertex $-1 $319 $419 #
vertex $-1 $317 $420 #
ellipse-curve $-1 0.51750000000000007 0.54500000000000037 8 0 0 1 0 -0.125 0 1 I I #
face $-1 $421 $343 $3 $-1 $422 forward single #
loop $-1 $423 $424 $245 #
plane-surface $-1 -21.479999999999997 2.9700000000000002 8.0800000000000001 0 0 1 -1 0 0 forward_v I I I I #
coedge $-1 $258 $257 $425 $426 forward $246 $-1 #
loop $-1 $427 $428 $107 #
coedge $-1 $429 $430 $431 $432 forward $248 $-1 #
coedge $-1 $433 $249 $434 $435 forward $184 $-1 #
coedge $-1 $249 $433 $436 $437 forward $184 $-1 #
coedge $-1 $438 $439 $249 $335 reversed $440 $-1 #
edge $-1 $441 0 $442 3.1415926535897931 $249 $443 forward 7 unknown #
coedge $-1 $371 $253 $250 $337 forward $343 $-1 #
edge $-1 $255 0 $338 2.8650000000000002 $336 $444 forward 7 unknown #
vertex $-1 $251 $445 #
straight-curve $-1 -22.199999999999999 0.10499999999999998 8 1 0 0 I I #
coedge $-1 $424 $425 $252 $341 forward $327 $-1 #
edge $-1 $349 0 $344 0.72000000000000242 $252 $446 forward 7 unknown #
coedge $-1 $253 $371 $424 $447 reversed $343 $-1 #
loop $-1 $-1 $336 $326 #
vertex $-1 $341 $448 #
straight-curve $-1 -22.199999999999999 2.9700000000000002 8.0800000000000001 0 0 -1 I I #
point $-1 -22.199999999999999 2.9700000000000002 8 #
edge $-1 $259 0 $449 0.66999999999999993 $282 $450 forward 7 unknown #
point $-1 -21.479999999999997 0.10499999999999998 8.75 #
vertex $-1 $261 $451 #
straight-curve $-1 -21.479999999999997 2.9700000000000002 8.75 0 0 -1 I I #
coedge $-1 $452 $263 $266 $356 forward $353 $-1 #
coedge $-1 $263 $452 $270 $360 reversed $353 $-1 #
loop $-1 $-1 $351 $453 #
straight-curve $-1 -21.399999999999999 0.82899999999999974 9.849499999999999 0 0 1 I I #
coedge $-1 $266 $265 $454 $455 reversed $267 $-1 #
edge $-1 $268 0 $456 1 $351 $457 forward 7 unknown #
face $-1 $458 $267 $3 $-1 $459 reversed single #
point $-1 -21.399999999999999 0.82899999999999974 11.0305 #
coedge $-1 $271 $270 $460 $461 reversed $272 $-1 #
edge $-1 $273 0 $462 1 $270 $463 forward 7 unknown #
face $-1 $453 $272 $3 $-1 $464 reversed single #
point $-1 -21.399999999999999 0.82899999999999974 9.849499999999999 #
coedge $-1 $460 $454 $275 $364 forward $465 $-1 #
edge $-1 $367 0 $365 1.1810000000000009 $363 $466 forward 7 unknown #
vertex $-1 $461 $467 #
straight-curve $-1 -21.399999999999999 2.2459999999999996 9.849499999999999 1 0 0 I I #
vertex $-1 $364 $468 #
straight-curve $-1 -21.399999999999999 2.2459999999999996 11.0305 1 0 0 I I #
plane-surface $-1 -21.399999999999999 2.2459999999999996 11.0305 0 1 0 0 0 -1 forward_v I I I I #
coedge $-1 $283 $282 $469 $470 forward $182 $-1 #
coedge $-1 $342 $336 $283 $372 reversed $343 $-1 #
edge $-1 $471 0 $338 0.080000000000000071 $283 $472 forward 7 unknown #
straight-curve $-1 0.080000000000000002 2.9700000000000002 8.75 0 -1 0 I I #
coedge $-1 $302 $290 $292 $378 reversed $376 $-1 #
coedge $-1 $290 $302 $295 $380 forward $376 $-1 #
loop $-1 $473 $375 $300 #
straight-curve $-1 0.80000000000000071 0.10499999999999998 8.0800000000000001 -1 0 0 I I #
edge $-1 $307 0 $293 2.8650000000000002 $292 $474 forward 7 unknown #
point $-1 0.80000000000000071 0.10499999999999998 8.0800000000000001 #
edge $-1 $304 0 $297 2.8650000000000002 $375 $475 forward 7 unknown #
face $-1 $476 $296 $3 $-1 $477 forward single #
point $-1 0.080000000000000002 0.10499999999999998 8.0800000000000001 #
plane-surface $-1 0.80000000000000071 2.9700000000000002 8.0800000000000001 0 0 1 -1 0 0 forward_v I I I I #
straight-curve $-1 0.80000000000000071 2.9700000000000002 8.0800000000000001 -1 0 0 I I #
point $-1 0.080000000000000002 2.9700000000000002 8.0800000000000001 #
point $-1 0.80000000000000071 2.9700000000000002 8.0800000000000001 #
coedge $-1 $478 $479 $480 $481 reversed $309 $-1 #
coedge $-1 $482 $310 $483 $484 reversed $239 $-1 #
coedge $-1 $310 $482 $485 $486 reversed $239 $-1 #
coedge $-1 $487 $488 $310 $391 forward $489 $-1 #
edge $-1 $490 0 $491 3.1415926535897931 $310 $492 forward 7 unknown #
coedge $-1 $312 $311 $493 $494 forward $178 $-1 #
coedge $-1 $495 $496 $311 $394 reversed $497 $-1 #
edge $-1 $401 0 $498 0.125 $311 $499 forward 7 unknown #
coedge $-1 $500 $501 $312 $396 reversed $502 $-1 #
edge $-1 $503 0 $400 0.125 $312 $504 forward 7 unknown #
coedge $-1 $505 $313 $501 $506 reversed $399 $-1 #
coedge $-1 $313 $505 $495 $507 forward $399 $-1 #
loop $-1 $-1 $397 $508 #
vertex $-1 $396 $509 #
vertex $-1 $394 $510 #
ellipse-curve $-1 0.51750000000000007 1.7950000000000004 8 0 0 1 0 -0.125 0 1 I I #
coedge $-1 $511 $512 $315 $404 reversed $513 $-1 #
edge $-1 $408 0 $413 3.1415926535897931 $315 $514 forward 7 unknown #
coedge $-1 $515 $316 $321 $417 reversed $407 $-1 #
coedge $-1 $316 $515 $511 $516 forward $407 $-1 #
loop $-1 $-1 $405 $517 #
vertex $-1 $404 $518 #
straight-curve $-1 0.51750000000000007 0.66999999999999993 8 -1 0 0 I I #
coedge $-1 $519 $318 $512 $520 reversed $412 $-1 #
coedge $-1 $318 $519 $320 $416 forward $412 $-1 #
loop $-1 $-1 $410 $521 #
vertex $-1 $319 $522 #
straight-curve $-1 0.39250000000000007 0.41999999999999993 8 1 0 0 I I #
coedge $-1 $321 $320 $523 $524 forward $322 $-1 #
edge $-1 $525 0 $323 0.080000000000000071 $411 $526 forward 7 unknown #
edge $-1 $527 0 $324 0.080000000000000071 $321 $528 forward 7 unknown #
face $-1 $521 $322 $3 $-1 $529 reversed single #
point $-1 0.51750000000000007 0.42000000000000037 8 #
point $-1 0.51750000000000007 0.67000000000000037 8 #
face $-1 $530 $531 $3 $-1 $532 reversed single #
plane-surface $-1 -22.199999999999999 2.9700000000000002 8.0800000000000001 -1 0 0 0 0 -1 forward_v I I I I #
loop $-1 $533 $534 $245 #
coedge $-1 $469 $340 $342 $447 forward $327 $-1 #
coedge $-1 $340 $469 $329 $426 reversed $327 $-1 #
edge $-1 $349 0 $449 2.8650000000000002 $329 $535 forward 7 unknown #
loop $-1 $-1 $536 $107 #
coedge $-1 $537 $538 $539 $540 reversed $330 $-1 #
coedge $-1 $541 $331 $542 $543 forward $248 $-1 #
coedge $-1 $331 $541 $544 $545 forward $248 $-1 #
coedge $-1 $546 $547 $331 $432 reversed $548 $-1 #
edge $-1 $549 0 $550 3.1415926535897931 $331 $551 forward 7 unknown #
coedge $-1 $333 $332 $552 $553 forward $184 $-1 #
coedge $-1 $554 $555 $332 $435 reversed $556 $-1 #
edge $-1 $442 0 $557 0.125 $332 $558 forward 7 unknown #
coedge $-1 $559 $560 $333 $437 reversed $561 $-1 #
edge $-1 $562 0 $441 0.125 $333 $563 forward 7 unknown #
coedge $-1 $564 $334 $560 $565 reversed $440 $-1 #
coedge $-1 $334 $564 $554 $566 forward $440 $-1 #
loop $-1 $-1 $439 $567 #
vertex $-1 $437 $568 #
vertex $-1 $435 $569 #
ellipse-curve $-1 -21.802499999999998 0.54500000000000037 8 0 0 1 0 -0.125 0 1 I I #
straight-curve $-1 -22.199999999999999 2.9700000000000002 8 0 -1 0 I I #
point $-1 -22.199999999999999 0.10499999999999998 8 #
straight-curve $-1 -21.479999999999997 2.9700000000000002 8.0800000000000001 -1 0 0 I I #
edge $-1 $344 0 $471 2.8650000000000002 $424 $570 forward 7 unknown #
point $-1 -22.199999999999999 2.9700000000000002 8.0800000000000001 #
vertex $-1 $470 $571 #
straight-curve $-1 -21.479999999999997 0.10499999999999998 8.75 0 0 -1 I I #
point $-1 -21.479999999999997 2.9700000000000002 8.0800000000000001 #
coedge $-1 $352 $351 $572 $573 reversed $353 $-1 #
face $-1 $357 $353 $3 $-1 $574 reversed single #
coedge $-1 $363 $572 $355 $455 forward $465 $-1 #
edge $-1 $456 0 $367 1.4169999999999998 $454 $575 forward 7 unknown #
vertex $-1 $455 $576 #
straight-curve $-1 -21.399999999999999 0.82899999999999974 11.0305 1 0 0 I I #
face $-1 $134 $465 $3 $-1 $577 forward single #
plane-surface $-1 -21.399999999999999 0.82899999999999974 11.0305 0 0 1 0 1 0 forward_v I I I I #
coedge $-1 $572 $363 $359 $461 forward $465 $-1 #
edge $-1 $365 0 $462 1.4169999999999998 $460 $578 forward 7 unknown #
vertex $-1 $461 $579 #
straight-curve $-1 -21.399999999999999 0.82899999999999974 9.849499999999999 1 0 0 I I #
plane-surface $-1 -21.399999999999999 2.2459999999999996 9.849499999999999 0 0 -1 0 -1 0 forward_v I I I I #
loop $-1 $-1 $572 $458 #
straight-curve $-1 -20.399999999999999 2.2459999999999996 11.0305 0 0 -1 I I #
point $-1 -20.399999999999999 2.2459999999999996 9.849499999999999 #
point $-1 -20.399999999999999 2.2459999999999996 11.0305 #
coedge $-1 $425 $424 $370 $470 reversed $327 $-1 #
edge $-1 $449 0 $471 0.72000000000000242 $370 $580 forward 7 unknown #
vertex $-1 $372 $581 #
straight-curve $-1 -22.199999999999999 0.10499999999999998 8.0800000000000001 0 0 -1 I I #
loop $-1 $582 $583 $300 #
straight-curve $-1 0.80000000000000071 2.9700000000000002 8.0800000000000001 0 -1 0 I I #
straight-curve $-1 0.07999999999999996 2.9700000000000002 8.0800000000000001 0 -1 0 I I #
face $-1 $517 $513 $3 $-1 $584 reversed single #
plane-surface $-1 0.080000000000000002 2.9700000000000002 8.0800000000000001 1 0 0 0 0 1 forward_v I I I I #
coedge $-1 $585 $387 $586 $587 reversed $309 $-1 #
coedge $-1 $387 $585 $588 $589 reversed $309 $-1 #
coedge $-1 $590 $591 $387 $481 forward $592 $-1 #
edge $-1 $593 0 $594 3.1415926535897931 $387 $595 forward 7 unknown #
coedge $-1 $389 $388 $596 $597 reversed $239 $-1 #
coedge $-1 $598 $599 $388 $484 forward $600 $-1 #
edge $-1 $601 0 $490 0.125 $388 $602 forward 7 unknown #
coedge $-1 $603 $604 $389 $486 forward $605 $-1 #
edge $-1 $491 0 $606 0.125 $389 $607 forward 7 unknown #
coedge $-1 $608 $390 $604 $609 reversed $489 $-1 #
coedge $-1 $390 $608 $598 $610 forward $489 $-1 #
loop $-1 $-1 $487 $611 #
vertex $-1 $484 $612 #
vertex $-1 $486 $613 #
ellipse-curve $-1 0.39250000000000007 2.5300000000000002 8 0 0 -1 0 -0.125 0 1 I I #
coedge $-1 $614 $615 $392 $494 reversed $616 $-1 #
edge $-1 $498 0 $503 3.1415926535897931 $392 $617 forward 7 unknown #
coedge $-1 $618 $393 $398 $507 reversed $497 $-1 #
coedge $-1 $393 $618 $614 $619 forward $497 $-1 #
loop $-1 $-1 $495 $620 #
vertex $-1 $494 $621 #
straight-curve $-1 0.51750000000000007 1.9199999999999999 8 -1 0 0 I I #
coedge $-1 $622 $395 $615 $623 reversed $502 $-1 #
coedge $-1 $395 $622 $397 $506 forward $502 $-1 #
loop $-1 $-1 $500 $624 #
vertex $-1 $396 $625 #
straight-curve $-1 0.39250000000000007 1.6699999999999999 8 1 0 0 I I #
coedge $-1 $398 $397 $626 $627 forward $399 $-1 #
edge $-1 $628 0 $400 0.080000000000000071 $501 $629 forward 7 unknown #
edge $-1 $630 0 $401 0.080000000000000071 $398 $631 forward 7 unknown #
face $-1 $624 $399 $3 $-1 $632 reversed single #
point $-1 0.51750000000000007 1.6700000000000004 8 #
point $-1 0.51750000000000007 1.9200000000000004 8 #
coedge $-1 $633 $403 $406 $516 reversed $513 $-1 #
coedge $-1 $403 $633 $410 $520 forward $513 $-1 #
loop $-1 $-1 $511 $476 #
ellipse-curve $-1 0.39250000000000007 0.54500000000000037 8 0 0 1 0 0.125 0 1 I I #
coedge $-1 $406 $405 $634 $635 forward $407 $-1 #
edge $-1 $636 0 $408 0.080000000000000071 $406 $637 forward 7 unknown #
face $-1 $418 $407 $3 $-1 $638 reversed single #
point $-1 0.39250000000000007 0.67000000000000037 8 #
coedge $-1 $411 $410 $639 $640 forward $412 $-1 #
edge $-1 $641 0 $413 0.080000000000000071 $410 $642 forward 7 unknown #
face $-1 $643 $412 $3 $-1 $644 reversed single #
point $-1 0.39250000000000007 0.42000000000000037 8 #
coedge $-1 $639 $634 $415 $524 reversed $473 $-1 #
edge $-1 $525 0 $527 3.1415926535897931 $523 $645 forward 7 unknown #
vertex $-1 $640 $646 #
straight-curve $-1 0.51750000000000007 0.41999999999999993 8.0800000000000001 0 0 -1 I I #
vertex $-1 $524 $647 #
straight-curve $-1 0.51750000000000007 0.66999999999999993 8.0800000000000001 0 0 -1 I I #
cone-surface $-1 0.51750000000000007 0.54499999999999993 8.0800000000000001 0 0 1 0.125 0 0 1 I I 0 1 0.125 forward I I I I #
face $-1 $567 $561 $3 $-1 $648 reversed single #
loop $-1 $-1 $649 $421 #
cone-surface $-1 -21.927499999999998 0.54499999999999993 8.0800000000000001 0 0 1 0.125 0 0 1 I I 0 1 0.125 forward I I I I #
loop $-1 $650 $651 $245 #
coedge $-1 $652 $653 $654 $655 reversed $423 $-1 #
straight-curve $-1 -21.479999999999997 2.9700000000000002 8.0800000000000001 0 -1 0 I I #
coedge $-1 $656 $657 $658 $659 reversed $427 $-1 #
coedge $-1 $660 $428 $661 $662 reversed $330 $-1 #
coedge $-1 $428 $660 $663 $664 reversed $330 $-1 #
coedge $-1 $665 $666 $428 $540 forward $667 $-1 #
edge $-1 $668 0 $669 3.1415926535897931 $428 $670 forward 7 unknown #
coedge $-1 $430 $429 $671 $672 forward $248 $-1 #
coedge $-1 $673 $674 $429 $543 reversed $675 $-1 #
edge $-1 $550 0 $676 0.125 $429 $677 forward 7 unknown #
coedge $-1 $678 $679 $430 $545 reversed $680 $-1 #
edge $-1 $681 0 $549 0.125 $430 $682 forward 7 unknown #
coedge $-1 $683 $431 $679 $684 reversed $548 $-1 #
coedge $-1 $431 $683 $673 $685 forward $548 $-1 #
loop $-1 $-1 $547 $686 #
vertex $-1 $545 $687 #
vertex $-1 $543 $688 #
ellipse-curve $-1 -21.802499999999998 1.7950000000000004 8 0 0 1 0 -0.125 0 1 I I #
coedge $-1 $689 $649 $433 $553 reversed $531 $-1 #
edge $-1 $557 0 $562 3.1415926535897931 $433 $690 forward 7 unknown #
coedge $-1 $691 $434 $439 $566 reversed $556 $-1 #
coedge $-1 $434 $691 $689 $692 forward $556 $-1 #
loop $-1 $-1 $555 $693 #
vertex $-1 $553 $694 #
straight-curve $-1 -21.802499999999998 0.66999999999999993 8 -1 0 0 I I #
coedge $-1 $695 $436 $649 $696 reversed $561 $-1 #
coedge $-1 $436 $695 $438 $565 forward $561 $-1 #
loop $-1 $-1 $560 $530 #
vertex $-1 $437 $697 #
straight-curve $-1 -21.927499999999998 0.41999999999999993 8 1 0 0 I I #
coedge $-1 $439 $438 $698 $699 forward $440 $-1 #
edge $-1 $700 0 $441 0.080000000000000071 $560 $701 forward 7 unknown #
edge $-1 $702 0 $442 0.080000000000000071 $439 $703 forward 7 unknown #
face $-1 $693 $440 $3 $-1 $704 reversed single #
point $-1 -21.802499999999998 0.42000000000000037 8 #
point $-1 -21.802499999999998 0.66999999999999993 8 #
straight-curve $-1 -22.199999999999999 2.9700000000000002 8.0800000000000001 0 -1 0 I I #
point $-1 -21.479999999999997 0.10499999999999998 8.0800000000000001 #
coedge $-1 $454 $460 $452 $573 forward $465 $-1 #
edge $-1 $462 0 $456 1.1810000000000009 $572 $705 forward 7 unknown #
plane-surface $-1 -21.399999999999999 0.82899999999999974 9.849499999999999 0 -1 0 0 0 1 forward_v I I I I #
straight-curve $-1 -20.399999999999999 0.82899999999999974 11.0305 0 1 0 I I #
point $-1 -20.399999999999999 0.82899999999999974 11.0305 #
plane-surface $-1 -20.399999999999999 3.0749999999999997 0 -1 0 0 0 0 1 forward_v I I I I #
straight-curve $-1 -20.399999999999999 2.2459999999999996 9.849499999999999 0 -1 0 I I #
point $-1 -20.399999999999999 0.82899999999999974 9.849499999999999 #
straight-curve $-1 -21.479999999999997 0.10499999999999998 8.0800000000000001 -1 0 0 I I #
point $-1 -22.199999999999999 0.10499999999999998 8.0800000000000001 #
loop $-1 $706 $707 $300 #
coedge $-1 $634 $639 $633 $708 reversed $473 $-1 #
cone-surface $-1 0.39250000000000007 0.54499999999999993 8.0800000000000001 0 0 1 0.125 0 0 1 I I 0 1 0.125 forward I I I I #
coedge $-1 $479 $478 $709 $710 reversed $309 $-1 #
coedge $-1 $711 $712 $478 $587 forward $713 $-1 #
edge $-1 $714 0 $593 0.125 $478 $715 forward 7 unknown #
coedge $-1 $716 $717 $479 $589 forward $718 $-1 #
edge $-1 $594 0 $719 0.125 $479 $720 forward 7 unknown #
coedge $-1 $721 $480 $717 $722 reversed $592 $-1 #
coedge $-1 $480 $721 $711 $723 forward $592 $-1 #
loop $-1 $-1 $590 $724 #
vertex $-1 $587 $725 #
vertex $-1 $589 $726 #
ellipse-curve $-1 0.39250000000000007 1.2800000000000002 8 0 0 -1 0 -0.125 0 1 I I #
coedge $-1 $727 $728 $482 $597 forward $729 $-1 #
edge $-1 $606 0 $601 3.1415926535897931 $482 $730 forward 7 unknown #
coedge $-1 $731 $483 $488 $610 reversed $600 $-1 #
coedge $-1 $483 $731 $727 $732 forward $600 $-1 #
loop $-1 $-1 $598 $733 #
vertex $-1 $597 $734 #
straight-curve $-1 0.51750000000000007 2.4050000000000002 8 -1 0 0 I I #
coedge $-1 $735 $485 $728 $736 reversed $605 $-1 #
coedge $-1 $485 $735 $487 $609 forward $605 $-1 #
loop $-1 $-1 $603 $737 #
vertex $-1 $486 $738 #
straight-curve $-1 0.39250000000000007 2.6550000000000002 8 1 0 0 I I #
coedge $-1 $488 $487 $739 $740 reversed $489 $-1 #
edge $-1 $741 0 $491 0.080000000000000071 $604 $742 forward 7 unknown #
edge $-1 $743 0 $490 0.080000000000000071 $598 $744 forward 7 unknown #
face $-1 $737 $489 $3 $-1 $745 reversed single #
point $-1 0.39250000000000007 2.4050000000000002 8 #
point $-1 0.39250000000000007 2.6550000000000002 8 #
coedge $-1 $746 $493 $496 $619 reversed $616 $-1 #
coedge $-1 $493 $746 $500 $623 forward $616 $-1 #
loop $-1 $-1 $614 $643 #
ellipse-curve $-1 0.39250000000000007 1.7950000000000004 8 0 0 1 0 0.125 0 1 I I #
coedge $-1 $496 $495 $747 $748 forward $497 $-1 #
edge $-1 $749 0 $498 0.080000000000000071 $496 $750 forward 7 unknown #
face $-1 $508 $497 $3 $-1 $751 reversed single #
point $-1 0.39250000000000007 1.9200000000000004 8 #
coedge $-1 $501 $500 $752 $753 forward $502 $-1 #
edge $-1 $754 0 $503 0.080000000000000071 $500 $755 forward 7 unknown #
face $-1 $756 $502 $3 $-1 $757 reversed single #
point $-1 0.39250000000000007 1.6700000000000004 8 #
coedge $-1 $752 $747 $505 $627 reversed $582 $-1 #
edge $-1 $628 0 $630 3.1415926535897931 $626 $758 forward 7 unknown #
vertex $-1 $753 $759 #
straight-curve $-1 0.51750000000000007 1.6699999999999999 8.0800000000000001 0 0 -1 I I #
vertex $-1 $627 $760 #
straight-curve $-1 0.51750000000000007 1.9199999999999999 8.0800000000000001 0 0 -1 I I #
cone-surface $-1 0.51750000000000007 1.7949999999999999 8.0800000000000001 0 0 1 0.125 0 0 1 I I 0 1 0.125 forward I I I I #
coedge $-1 $512 $511 $583 $708 forward $513 $-1 #
coedge $-1 $523 $583 $515 $635 reversed $473 $-1 #
edge $-1 $527 0 $636 0.125 $634 $761 forward 7 unknown #
vertex $-1 $635 $762 #
straight-curve $-1 0.39250000000000007 0.66999999999999993 8.0800000000000001 0 0 -1 I I #
plane-surface $-1 0.51750000000000007 0.66999999999999993 8.0800000000000001 0 1 0 -1 0 0 forward_v I I I I #
coedge $-1 $583 $523 $519 $640 reversed $473 $-1 #
edge $-1 $641 0 $525 0.125 $639 $763 forward 7 unknown #
vertex $-1 $640 $764 #
straight-curve $-1 0.39250000000000007 0.41999999999999993 8.0800000000000001 0 0 -1 I I #
face $-1 $620 $616 $3 $-1 $765 reversed single #
plane-surface $-1 0.39250000000000007 0.41999999999999993 8.0800000000000001 0 -1 0 1 0 0 forward_v I I I I #
ellipse-curve $-1 0.51750000000000007 0.54499999999999993 8.0800000000000001 0 0 1 0 -0.12499999999999956 0 1 I I #
point $-1 0.51750000000000007 0.42000000000000037 8.0800000000000001 #
point $-1 0.51750000000000007 0.66999999999999993 8.0800000000000001 #
plane-surface $-1 -21.927499999999998 0.41999999999999993 8.0800000000000001 0 -1 0 1 0 0 forward_v I I I I #
coedge $-1 $552 $654 $559 $696 forward $531 $-1 #
loop $-1 $766 $767 $245 #
coedge $-1 $768 $769 $770 $771 reversed $533 $-1 #
coedge $-1 $698 $534 $691 $772 reversed $423 $-1 #
coedge $-1 $534 $698 $695 $773 reversed $423 $-1 #
coedge $-1 $649 $689 $534 $655 forward $531 $-1 #
edge $-1 $774 0 $775 3.1415926535897931 $534 $776 forward 7 unknown #
coedge $-1 $777 $536 $778 $779 reversed $427 $-1 #
coedge $-1 $536 $777 $780 $781 reversed $427 $-1 #
coedge $-1 $782 $783 $536 $659 forward $784 $-1 #
edge $-1 $785 0 $786 3.1415926535897931 $536 $787 forward 7 unknown #
coedge $-1 $538 $537 $788 $789 reversed $330 $-1 #
coedge $-1 $790 $791 $537 $662 forward $792 $-1 #
edge $-1 $793 0 $668 0.125 $537 $794 forward 7 unknown #
coedge $-1 $795 $796 $538 $664 forward $797 $-1 #
edge $-1 $669 0 $798 0.125 $538 $799 forward 7 unknown #
coedge $-1 $800 $539 $796 $801 reversed $667 $-1 #
coedge $-1 $539 $800 $790 $802 forward $667 $-1 #
loop $-1 $-1 $666 $803 #
vertex $-1 $662 $804 #
vertex $-1 $664 $805 #
ellipse-curve $-1 -21.927499999999998 2.5300000000000002 8 0 0 -1 0 -0.125 0 1 I I #
coedge $-1 $806 $807 $541 $672 reversed $808 $-1 #
edge $-1 $676 0 $681 3.1415926535897931 $541 $809 forward 7 unknown #
coedge $-1 $810 $542 $547 $685 reversed $675 $-1 #
coedge $-1 $542 $810 $806 $811 forward $675 $-1 #
loop $-1 $-1 $674 $812 #
vertex $-1 $672 $813 #
straight-curve $-1 -21.802499999999998 1.9199999999999999 8 -1 0 0 I I #
coedge $-1 $814 $544 $807 $815 reversed $680 $-1 #
coedge $-1 $544 $814 $546 $684 forward $680 $-1 #
loop $-1 $-1 $679 $816 #
vertex $-1 $545 $817 #
straight-curve $-1 -21.927499999999998 1.6699999999999999 8 1 0 0 I I #
coedge $-1 $547 $546 $818 $819 forward $548 $-1 #
edge $-1 $820 0 $549 0.080000000000000071 $679 $821 forward 7 unknown #
edge $-1 $822 0 $550 0.080000000000000071 $547 $823 forward 7 unknown #
face $-1 $812 $548 $3 $-1 $824 reversed single #
point $-1 -21.802499999999998 1.6700000000000004 8 #
point $-1 -21.802499999999998 1.9199999999999999 8 #
coedge $-1 $654 $552 $555 $692 reversed $531 $-1 #
ellipse-curve $-1 -21.927499999999998 0.54500000000000037 8 0 0 1 0 0.125 0 1 I I #
coedge $-1 $555 $554 $652 $772 forward $556 $-1 #
edge $-1 $774 0 $557 0.080000000000000071 $555 $825 forward 7 unknown #
face $-1 $826 $556 $3 $-1 $827 reversed single #
point $-1 -21.927499999999998 0.66999999999999993 8 #
coedge $-1 $560 $559 $653 $773 forward $561 $-1 #
edge $-1 $775 0 $562 0.080000000000000071 $559 $828 forward 7 unknown #
point $-1 -21.927499999999998 0.42000000000000037 8 #
coedge $-1 $653 $652 $564 $699 reversed $423 $-1 #
edge $-1 $700 0 $702 3.1415926535897931 $698 $829 forward 7 unknown #
vertex $-1 $773 $830 #
straight-curve $-1 -21.802499999999998 0.41999999999999993 8.0800000000000001 0 0 -1 I I #
vertex $-1 $699 $831 #
straight-curve $-1 -21.802499999999998 0.66999999999999993 8.0800000000000001 0 0 -1 I I #
cone-surface $-1 -21.802499999999998 0.54499999999999993 8.0800000000000001 0 0 1 0.125 0 0 1 I I 0 1 0.125 forward I I I I #
straight-curve $-1 -20.399999999999999 0.82899999999999974 9.849499999999999 0 0 1 I I #
loop $-1 $832 $833 $300 #
coedge $-1 $747 $752 $746 $834 reversed $582 $-1 #
edge $-1 $636 0 $641 3.1415926535897931 $583 $835 forward 7 unknown #
coedge $-1 $836 $837 $585 $710 forward $838 $-1 #
edge $-1 $719 0 $714 3.1415926535897931 $585 $839 forward 7 unknown #
coedge $-1 $840 $586 $591 $723 reversed $713 $-1 #
coedge $-1 $586 $840 $836 $841 forward $713 $-1 #
loop $-1 $-1 $711 $842 #
vertex $-1 $710 $843 #
straight-curve $-1 0.51750000000000007 1.1550000000000002 8 -1 0 0 I I #
coedge $-1 $844 $588 $837 $845 reversed $718 $-1 #
coedge $-1 $588 $844 $590 $722 forward $718 $-1 #
loop $-1 $-1 $716 $846 #
vertex $-1 $589 $847 #
straight-curve $-1 0.39250000000000007 1.4050000000000002 8 1 0 0 I I #
coedge $-1 $591 $590 $848 $849 reversed $592 $-1 #
edge $-1 $850 0 $594 0.080000000000000071 $717 $851 forward 7 unknown #
edge $-1 $852 0 $593 0.080000000000000071 $711 $853 forward 7 unknown #
face $-1 $846 $592 $3 $-1 $854 reversed single #
point $-1 0.39250000000000007 1.1550000000000002 8 #
point $-1 0.39250000000000007 1.4050000000000002 8 #
coedge $-1 $855 $596 $599 $732 reversed $729 $-1 #
coedge $-1 $596 $855 $603 $736 forward $729 $-1 #
loop $-1 $-1 $727 $756 #
ellipse-curve $-1 0.51750000000000007 2.5300000000000002 8 0 0 -1 0 0.125 0 1 I I #
coedge $-1 $599 $598 $856 $857 reversed $600 $-1 #
edge $-1 $858 0 $601 0.080000000000000071 $727 $859 forward 7 unknown #
face $-1 $611 $600 $3 $-1 $860 forward single #
point $-1 0.51750000000000007 2.4050000000000002 8 #
coedge $-1 $604 $603 $861 $862 reversed $605 $-1 #
edge $-1 $863 0 $606 0.080000000000000071 $603 $864 forward 7 unknown #
face $-1 $865 $605 $3 $-1 $866 forward single #
point $-1 0.51750000000000007 2.6550000000000002 8 #
coedge $-1 $861 $856 $608 $740 forward $706 $-1 #
edge $-1 $743 0 $741 3.1415926535897931 $739 $867 forward 7 unknown #
vertex $-1 $862 $868 #
straight-curve $-1 0.39250000000000007 2.6550000000000002 8.0800000000000001 0 0 -1 I I #
vertex $-1 $740 $869 #
straight-curve $-1 0.39250000000000007 2.4050000000000002 8.0800000000000001 0 0 -1 I I #
cone-surface $-1 0.39250000000000007 2.5300000000000002 8.0800000000000001 0 0 -1 0.125 0 0 1 I I 0 1 0.125 forward I I I I #
coedge $-1 $615 $614 $707 $834 forward $616 $-1 #
coedge $-1 $626 $707 $618 $748 reversed $582 $-1 #
edge $-1 $630 0 $749 0.125 $747 $870 forward 7 unknown #
vertex $-1 $748 $871 #
straight-curve $-1 0.39250000000000007 1.9199999999999999 8.0800000000000001 0 0 -1 I I #
plane-surface $-1 0.51750000000000007 1.9199999999999999 8.0800000000000001 0 1 0 -1 0 0 forward_v I I I I #
coedge $-1 $707 $626 $622 $753 reversed $582 $-1 #
edge $-1 $754 0 $628 0.125 $752 $872 forward 7 unknown #
vertex $-1 $753 $873 #
straight-curve $-1 0.39250000000000007 1.6699999999999999 8.0800000000000001 0 0 -1 I I #
face $-1 $733 $729 $3 $-1 $874 reversed single #
plane-surface $-1 0.39250000000000007 1.6699999999999999 8.0800000000000001 0 -1 0 1 0 0 forward_v I I I I #
ellipse-curve $-1 0.51750000000000007 1.7949999999999999 8.0800000000000001 0 0 1 0 -0.12499999999999956 0 1 I I #
point $-1 0.51750000000000007 1.6700000000000004 8.0800000000000001 #
point $-1 0.51750000000000007 1.9199999999999999 8.0800000000000001 #
straight-curve $-1 0.51750000000000007 0.66999999999999993 8.0800000000000001 -1 0 0 I I #
point $-1 0.39250000000000007 0.66999999999999993 8.0800000000000001 #
straight-curve $-1 0.39250000000000007 0.41999999999999993 8.0800000000000001 1 0 0 I I #
point $-1 0.39250000000000007 0.42000000000000037 8.0800000000000001 #
cone-surface $-1 0.39250000000000007 1.7949999999999999 8.0800000000000001 0 0 1 0.125 0 0 1 I I 0 1 0.125 forward I I I I #
loop $-1 $-1 $875 $245 #
coedge $-1 $876 $877 $878 $879 forward $650 $-1 #
coedge $-1 $818 $651 $810 $880 reversed $533 $-1 #
coedge $-1 $651 $818 $814 $881 reversed $533 $-1 #
coedge $-1 $807 $806 $651 $771 forward $808 $-1 #
edge $-1 $882 0 $883 3.1415926535897931 $651 $884 forward 7 unknown #
edge $-1 $702 0 $774 0.125 $652 $885 forward 7 unknown #
edge $-1 $775 0 $700 0.125 $653 $886 forward 7 unknown #
vertex $-1 $772 $887 #
vertex $-1 $773 $888 #
ellipse-curve $-1 -21.927499999999998 0.54499999999999993 8.0800000000000001 0 0 1 0 0.12500000000000044 0 1 I I #
coedge $-1 $657 $656 $889 $890 reversed $427 $-1 #
coedge $-1 $891 $892 $656 $779 forward $893 $-1 #
edge $-1 $894 0 $785 0.125 $656 $895 forward 7 unknown #
coedge $-1 $896 $897 $657 $781 forward $898 $-1 #
edge $-1 $786 0 $899 0.125 $657 $900 forward 7 unknown #
coedge $-1 $901 $658 $897 $902 reversed $784 $-1 #
coedge $-1 $658 $901 $891 $903 forward $784 $-1 #
loop $-1 $-1 $783 $904 #
vertex $-1 $779 $905 #
vertex $-1 $781 $906 #
ellipse-curve $-1 -21.927499999999998 1.2800000000000002 8 0 0 -1 0 -0.125 0 1 I I #
coedge $-1 $907 $908 $660 $789 forward $909 $-1 #
edge $-1 $798 0 $793 3.1415926535897931 $660 $910 forward 7 unknown #
coedge $-1 $911 $661 $666 $802 reversed $792 $-1 #
coedge $-1 $661 $911 $907 $912 forward $792 $-1 #
loop $-1 $-1 $791 $913 #
vertex $-1 $789 $914 #
straight-curve $-1 -21.802499999999998 2.4050000000000002 8 -1 0 0 I I #
coedge $-1 $915 $663 $908 $916 reversed $797 $-1 #
coedge $-1 $663 $915 $665 $801 forward $797 $-1 #
loop $-1 $-1 $796 $917 #
vertex $-1 $664 $918 #
straight-curve $-1 -21.927499999999998 2.6550000000000002 8 1 0 0 I I #
coedge $-1 $666 $665 $919 $920 reversed $667 $-1 #
edge $-1 $921 0 $669 0.080000000000000071 $796 $922 forward 7 unknown #
edge $-1 $923 0 $668 0.080000000000000071 $790 $924 forward 7 unknown #
face $-1 $913 $667 $3 $-1 $925 reversed single #
point $-1 -21.927499999999998 2.4050000000000002 8 #
point $-1 -21.927499999999998 2.6550000000000002 8 #
coedge $-1 $770 $671 $674 $811 reversed $808 $-1 #
coedge $-1 $671 $770 $678 $815 forward $808 $-1 #
loop $-1 $-1 $807 $826 #
ellipse-curve $-1 -21.927499999999998 1.7950000000000004 8 0 0 1 0 0.125 0 1 I I #
coedge $-1 $674 $673 $768 $880 forward $675 $-1 #
edge $-1 $882 0 $676 0.080000000000000071 $674 $926 forward 7 unknown #
face $-1 $927 $675 $3 $-1 $928 reversed single #
point $-1 -21.927499999999998 1.9199999999999999 8 #
coedge $-1 $679 $678 $769 $881 forward $680 $-1 #
edge $-1 $883 0 $681 0.080000000000000071 $678 $929 forward 7 unknown #
face $-1 $686 $680 $3 $-1 $930 reversed single #
point $-1 -21.927499999999998 1.6700000000000004 8 #
coedge $-1 $769 $768 $683 $819 reversed $533 $-1 #
edge $-1 $820 0 $822 3.1415926535897931 $818 $931 forward 7 unknown #
vertex $-1 $881 $932 #
straight-curve $-1 -21.802499999999998 1.6699999999999999 8.0800000000000001 0 0 -1 I I #
vertex $-1 $819 $933 #
straight-curve $-1 -21.802499999999998 1.9199999999999999 8.0800000000000001 0 0 -1 I I #
cone-surface $-1 -21.802499999999998 1.7949999999999999 8.0800000000000001 0 0 1 0.125 0 0 1 I I 0 1 0.125 forward I I I I #
straight-curve $-1 -21.927499999999998 0.66999999999999993 8.0800000000000001 0 0 -1 I I #
face $-1 $816 $808 $3 $-1 $934 reversed single #
plane-surface $-1 -21.802499999999998 0.66999999999999993 8.0800000000000001 0 1 0 -1 0 0 forward_v I I I I #
straight-curve $-1 -21.927499999999998 0.41999999999999993 8.0800000000000001 0 0 -1 I I #
ellipse-curve $-1 -21.802499999999998 0.54499999999999993 8.0800000000000001 0 0 1 0 -0.12499999999999956 0 1 I I #
point $-1 -21.802499999999998 0.42000000000000037 8.0800000000000001 #
point $-1 -21.802499999999998 0.67000000000000037 8.0800000000000001 #
loop $-1 $-1 $935 $300 #
coedge $-1 $856 $861 $855 $936 forward $706 $-1 #
edge $-1 $749 0 $754 3.1415926535897931 $707 $937 forward 7 unknown #
ellipse-curve $-1 0.39250000000000007 0.54499999999999993 8.0800000000000001 0 0 1 0 0.12500000000000044 0 1 I I #
coedge $-1 $938 $709 $712 $841 reversed $838 $-1 #
coedge $-1 $709 $938 $716 $845 forward $838 $-1 #
loop $-1 $-1 $836 $865 #
ellipse-curve $-1 0.51750000000000007 1.2800000000000002 8 0 0 -1 0 0.125 0 1 I I #
coedge $-1 $712 $711 $939 $940 reversed $713 $-1 #
edge $-1 $941 0 $714 0.080000000000000071 $836 $942 forward 7 unknown #
face $-1 $724 $713 $3 $-1 $943 forward single #
point $-1 0.51750000000000007 1.1550000000000002 8 #
coedge $-1 $717 $716 $944 $945 reversed $718 $-1 #
edge $-1 $946 0 $719 0.080000000000000071 $716 $947 forward 7 unknown #
face $-1 $-1 $718 $3 $-1 $948 forward single #
point $-1 0.51750000000000007 1.4050000000000002 8 #
coedge $-1 $944 $939 $721 $849 forward $832 $-1 #
edge $-1 $852 0 $850 3.1415926535897931 $848 $949 forward 7 unknown #
vertex $-1 $945 $950 #
straight-curve $-1 0.39250000000000007 1.4050000000000002 8.0800000000000001 0 0 -1 I I #
vertex $-1 $849 $951 #
straight-curve $-1 0.39250000000000007 1.1550000000000002 8.0800000000000001 0 0 -1 I I #
cone-surface $-1 0.39250000000000007 1.2800000000000002 8.0800000000000001 0 0 -1 0.125 0 0 1 I I 0 1 0.125 forward I I I I #
coedge $-1 $728 $727 $833 $936 reversed $729 $-1 #
coedge $-1 $739 $833 $731 $857 forward $706 $-1 #
edge $-1 $858 0 $743 0.125 $856 $952 forward 7 unknown #
vertex $-1 $857 $953 #
straight-curve $-1 0.51750000000000007 2.4050000000000002 8.0800000000000001 0 0 -1 I I #
plane-surface $-1 0.51750000000000007 2.4050000000000002 8.0800000000000001 0 1 0 -1 0 0 forward_v I I I I #
coedge $-1 $833 $739 $735 $862 forward $706 $-1 #
edge $-1 $741 0 $863 0.125 $861 $954 forward 7 unknown #
vertex $-1 $862 $955 #
straight-curve $-1 0.51750000000000007 2.6550000000000002 8.0800000000000001 1.3877787807814445e-015 0 -1 I I #
face $-1 $842 $838 $3 $-1 $956 reversed single #
plane-surface $-1 0.39250000000000007 2.6550000000000002 8.0800000000000001 0 -1 0 1 0 0 forward_v I I I I #
ellipse-curve $-1 0.39250000000000007 2.5300000000000002 8.0800000000000001 0 0 -1 0 -0.125 0 1 I I #
point $-1 0.39250000000000007 2.6550000000000002 8.0800000000000001 #
point $-1 0.39250000000000007 2.4050000000000002 8.0800000000000001 #
straight-curve $-1 0.51750000000000007 1.9199999999999999 8.0800000000000001 -1 0 0 I I #
point $-1 0.39250000000000007 1.9199999999999999 8.0800000000000001 #
straight-curve $-1 0.39250000000000007 1.6699999999999999 8.0800000000000001 1 0 0 I I #
point $-1 0.39250000000000007 1.6700000000000004 8.0800000000000001 #
cone-surface $-1 0.51750000000000007 2.5300000000000002 8.0800000000000001 0 0 -1 0.125 0 0 1 I I 0 1 0.125 forward I I I I #
coedge $-1 $957 $958 $959 $960 forward $766 $-1 #
coedge $-1 $919 $767 $911 $961 forward $650 $-1 #
coedge $-1 $767 $919 $915 $962 forward $650 $-1 #
coedge $-1 $908 $907 $767 $879 reversed $909 $-1 #
edge $-1 $963 0 $964 3.1415926535897931 $767 $965 forward 7 unknown #
edge $-1 $822 0 $882 0.125 $768 $966 forward 7 unknown #
edge $-1 $883 0 $820 0.125 $769 $967 forward 7 unknown #
vertex $-1 $880 $968 #
vertex $-1 $881 $969 #
ellipse-curve $-1 -21.927499999999998 1.7949999999999999 8.0800000000000001 0 0 1 0 0.12500000000000044 0 1 I I #
straight-curve $-1 -21.802499999999998 0.66999999999999993 8.0800000000000001 -1 0 0 I I #
straight-curve $-1 -21.927499999999998 0.41999999999999993 8.0800000000000001 1 0 0 I I #
point $-1 -21.927499999999998 0.67000000000000037 8.0800000000000001 #
point $-1 -21.927499999999998 0.42000000000000037 8.0800000000000001 #
coedge $-1 $970 $971 $777 $890 forward $972 $-1 #
edge $-1 $899 0 $894 3.1415926535897931 $777 $973 forward 7 unknown #
coedge $-1 $974 $778 $783 $903 reversed $893 $-1 #
coedge $-1 $778 $974 $970 $975 forward $893 $-1 #
loop $-1 $-1 $892 $976 #
vertex $-1 $890 $977 #
straight-curve $-1 -21.802499999999998 1.1550000000000002 8 -1 0 0 I I #
coedge $-1 $978 $780 $971 $979 reversed $898 $-1 #
coedge $-1 $780 $978 $782 $902 forward $898 $-1 #
loop $-1 $-1 $897 $980 #
vertex $-1 $781 $981 #
straight-curve $-1 -21.927499999999998 1.4050000000000002 8 1 0 0 I I #
coedge $-1 $783 $782 $982 $983 reversed $784 $-1 #
edge $-1 $984 0 $786 0.080000000000000071 $897 $985 forward 7 unknown #
edge $-1 $986 0 $785 0.080000000000000071 $891 $987 forward 7 unknown #
face $-1 $976 $784 $3 $-1 $988 reversed single #
point $-1 -21.927499999999998 1.1550000000000002 8 #
point $-1 -21.927499999999998 1.4050000000000002 8 #
coedge $-1 $878 $788 $791 $912 reversed $909 $-1 #
coedge $-1 $788 $878 $795 $916 forward $909 $-1 #
loop $-1 $-1 $908 $927 #
ellipse-curve $-1 -21.802499999999998 2.5300000000000002 8 0 0 -1 0 0.125 0 1 I I #
coedge $-1 $791 $790 $876 $961 reversed $792 $-1 #
edge $-1 $964 0 $793 0.080000000000000071 $907 $989 forward 7 unknown #
face $-1 $990 $792 $3 $-1 $991 forward single #
point $-1 -21.802499999999998 2.4050000000000002 8 #
coedge $-1 $796 $795 $877 $962 reversed $797 $-1 #
edge $-1 $963 0 $798 0.080000000000000071 $795 $992 forward 7 unknown #
face $-1 $803 $797 $3 $-1 $993 forward single #
point $-1 -21.802499999999998 2.6550000000000002 8 #
coedge $-1 $877 $876 $800 $920 forward $650 $-1 #
edge $-1 $923 0 $921 3.1415926535897931 $919 $994 forward 7 unknown #
vertex $-1 $962 $995 #
straight-curve $-1 -21.927499999999998 2.6550000000000002 8.0800000000000001 0 0 -1 I I #
vertex $-1 $920 $996 #
straight-curve $-1 -21.927499999999998 2.4050000000000002 8.0800000000000001 0 0 -1 I I #
cone-surface $-1 -21.927499999999998 2.5300000000000002 8.0800000000000001 0 0 -1 0.125 0 0 1 I I 0 1 0.125 forward I I I I #
straight-curve $-1 -21.927499999999998 1.9199999999999999 8.0800000000000001 0 0 -1 I I #
face $-1 $917 $909 $3 $-1 $997 reversed single #
plane-surface $-1 -21.802499999999998 1.9199999999999999 8.0800000000000001 0 1 0 -1 0 0 forward_v I I I I #
straight-curve $-1 -21.927499999999998 1.6699999999999999 8.0800000000000001 0 0 -1 I I #
plane-surface $-1 -21.927499999999998 1.6699999999999999 8.0800000000000001 0 -1 0 1 0 0 forward_v I I I I #
ellipse-curve $-1 -21.802499999999998 1.7949999999999999 8.0800000000000001 0 0 1 0 -0.12499999999999956 0 1 I I #
point $-1 -21.802499999999998 1.6700000000000004 8.0800000000000001 #
point $-1 -21.802499999999998 1.9200000000000004 8.0800000000000001 #
cone-surface $-1 -21.927499999999998 1.7949999999999999 8.0800000000000001 0 0 1 0.125 0 0 1 I I 0 1 0.125 forward I I I I #
coedge $-1 $939 $944 $938 $998 forward $832 $-1 #
edge $-1 $863 0 $858 3.1415926535897931 $833 $999 forward 7 unknown #
ellipse-curve $-1 0.39250000000000007 1.7949999999999999 8.0800000000000001 0 0 1 0 0.12500000000000044 0 1 I I #
coedge $-1 $837 $836 $935 $998 reversed $838 $-1 #
coedge $-1 $848 $935 $840 $940 forward $832 $-1 #
edge $-1 $941 0 $852 0.125 $939 $1000 forward 7 unknown #
vertex $-1 $940 $1001 #
straight-curve $-1 0.51750000000000007 1.1550000000000002 8.0800000000000001 0 0 -1 I I #
plane-surface $-1 0.51750000000000007 1.1550000000000002 8.0800000000000001 0 1 0 -1 0 0 forward_v I I I I #
coedge $-1 $935 $848 $844 $945 forward $832 $-1 #
edge $-1 $850 0 $946 0.125 $944 $1002 forward 7 unknown #
vertex $-1 $945 $1003 #
straight-curve $-1 0.51750000000000007 1.4050000000000002 8.0800000000000001 1.3877787807814445e-015 0 -1 I I #
plane-surface $-1 0.39250000000000007 1.4050000000000002 8.0800000000000001 0 -1 0 1 0 0 forward_v I I I I #
ellipse-curve $-1 0.39250000000000007 1.2800000000000002 8.0800000000000001 0 0 -1 0 -0.125 0 1 I I #
point $-1 0.39250000000000007 1.4050000000000002 8.0800000000000001 #
point $-1 0.39250000000000007 1.1550000000000002 8.0800000000000001 #
straight-curve $-1 0.51750000000000007 2.4050000000000002 8.0800000000000001 -1 0 0 I I #
point $-1 0.51750000000000007 2.4050000000000002 8.0800000000000001 #
straight-curve $-1 0.39250000000000007 2.6550000000000002 8.0800000000000001 1 0 0 I I #
point $-1 0.51750000000000007 2.6550000000000002 8.0800000000000001 #
cone-surface $-1 0.51750000000000007 1.2800000000000002 8.0800000000000001 0 0 -1 0.125 0 0 1 I I 0 1 0.125 forward I I I I #
coedge $-1 $982 $875 $974 $1004 forward $766 $-1 #
coedge $-1 $875 $982 $978 $1005 forward $766 $-1 #
coedge $-1 $971 $970 $875 $960 reversed $972 $-1 #
edge $-1 $1006 0 $1007 3.1415926535897931 $875 $1008 forward 7 unknown #
edge $-1 $964 0 $923 0.125 $876 $1009 forward 7 unknown #
edge $-1 $921 0 $963 0.125 $877 $1010 forward 7 unknown #
vertex $-1 $962 $1011 #
vertex $-1 $961 $1012 #
ellipse-curve $-1 -21.802499999999998 2.5300000000000002 8.0800000000000001 0 0 -1 0 0.125 0 1 I I #
straight-curve $-1 -21.802499999999998 1.9199999999999999 8.0800000000000001 -1 0 0 I I #
straight-curve $-1 -21.927499999999998 1.6699999999999999 8.0800000000000001 1 0 0 I I #
point $-1 -21.927499999999998 1.9200000000000004 8.0800000000000001 #
point $-1 -21.927499999999998 1.6700000000000004 8.0800000000000001 #
coedge $-1 $959 $889 $892 $975 reversed $972 $-1 #
coedge $-1 $889 $959 $896 $979 forward $972 $-1 #
loop $-1 $-1 $971 $990 #
ellipse-curve $-1 -21.802499999999998 1.2800000000000002 8 0 0 -1 0 0.125 0 1 I I #
coedge $-1 $892 $891 $957 $1004 reversed $893 $-1 #
edge $-1 $1007 0 $894 0.080000000000000071 $970 $1013 forward 7 unknown #
face $-1 $278 $893 $3 $-1 $1014 forward single #
point $-1 -21.802499999999998 1.1550000000000002 8 #
coedge $-1 $897 $896 $958 $1005 reversed $898 $-1 #
edge $-1 $1006 0 $899 0.080000000000000071 $896 $1015 forward 7 unknown #
face $-1 $904 $898 $3 $-1 $1016 forward single #
point $-1 -21.802499999999998 1.4050000000000002 8 #
coedge $-1 $958 $957 $901 $983 forward $766 $-1 #
edge $-1 $986 0 $984 3.1415926535897931 $982 $1017 forward 7 unknown #
vertex $-1 $1005 $1018 #
straight-curve $-1 -21.927499999999998 1.4050000000000002 8.0800000000000001 0 0 -1 I I #
vertex $-1 $983 $1019 #
straight-curve $-1 -21.927499999999998 1.1550000000000002 8.0800000000000001 0 0 -1 I I #
cone-surface $-1 -21.927499999999998 1.2800000000000002 8.0800000000000001 0 0 -1 0.125 0 0 1 I I 0 1 0.125 forward I I I I #
straight-curve $-1 -21.802499999999998 2.4050000000000002 8.0800000000000001 0 0 -1 I I #
face $-1 $980 $972 $3 $-1 $1020 reversed single #
plane-surface $-1 -21.802499999999998 2.4050000000000002 8.0800000000000001 0 1 0 -1 0 0 forward_v I I I I #
straight-curve $-1 -21.802499999999998 2.6550000000000002 8.0800000000000001 0 0 -1 I I #
plane-surface $-1 -21.927499999999998 2.6550000000000002 8.0800000000000001 0 -1 0 1 0 0 forward_v I I I I #
ellipse-curve $-1 -21.927499999999998 2.5300000000000002 8.0800000000000001 0 0 -1 0 -0.125 0 1 I I #
point $-1 -21.927499999999998 2.6550000000000002 8.0800000000000001 #
point $-1 -21.927499999999998 2.4050000000000002 8.0800000000000001 #
cone-surface $-1 -21.802499999999998 2.5300000000000002 8.0800000000000001 0 0 -1 0.125 0 0 1 I I 0 1 0.125 forward I I I I #
edge $-1 $946 0 $941 3.1415926535897931 $935 $1021 forward 7 unknown #
ellipse-curve $-1 0.51750000000000007 2.5300000000000002 8.0800000000000001 0 0 -1 0 0.125 0 1 I I #
straight-curve $-1 0.51750000000000007 1.1550000000000002 8.0800000000000001 -1 0 0 I I #
point $-1 0.51750000000000007 1.1550000000000002 8.0800000000000001 #
straight-curve $-1 0.39250000000000007 1.4050000000000002 8.0800000000000001 1 0 0 I I #
point $-1 0.51750000000000007 1.4050000000000002 8.0800000000000001 #
edge $-1 $1007 0 $986 0.125 $957 $1022 forward 7 unknown #
edge $-1 $984 0 $1006 0.125 $958 $1023 forward 7 unknown #
vertex $-1 $1005 $1024 #
vertex $-1 $1004 $1025 #
ellipse-curve $-1 -21.802499999999998 1.2800000000000002 8.0800000000000001 0 0 -1 0 0.125 0 1 I I #
straight-curve $-1 -21.802499999999998 2.4050000000000002 8.0800000000000001 -1 0 0 I I #
straight-curve $-1 -21.927499999999998 2.6550000000000002 8.0800000000000001 1 0 0 I I #
point $-1 -21.802499999999998 2.6550000000000002 8.0800000000000001 #
point $-1 -21.802499999999998 2.4050000000000002 8.0800000000000001 #
straight-curve $-1 -21.802499999999998 1.1550000000000002 8.0800000000000001 0 0 -1 I I #
plane-surface $-1 -21.802499999999998 1.1550000000000002 8.0800000000000001 0 1 0 -1 0 0 forward_v I I I I #
straight-curve $-1 -21.802499999999998 1.4050000000000002 8.0800000000000001 0 0 -1 I I #
plane-surface $-1 -21.927499999999998 1.4050000000000002 8.0800000000000001 0 -1 0 1 0 0 forward_v I I I I #
ellipse-curve $-1 -21.927499999999998 1.2800000000000002 8.0800000000000001 0 0 -1 0 -0.125 0 1 I I #
point $-1 -21.927499999999998 1.4050000000000002 8.0800000000000001 #
point $-1 -21.927499999999998 1.1550000000000002 8.0800000000000001 #
cone-surface $-1 -21.802499999999998 1.2800000000000002 8.0800000000000001 0 0 -1 0.125 0 0 1 I I 0 1 0.125 forward I I I I #
ellipse-curve $-1 0.51750000000000007 1.2800000000000002 8.0800000000000001 0 0 -1 0 0.125 0 1 I I #
straight-curve $-1 -21.802499999999998 1.1550000000000002 8.0800000000000001 -1 0 0 I I #
straight-curve $-1 -21.927499999999998 1.4050000000000002 8.0800000000000001 1 0 0 I I #
point $-1 -21.802499999999998 1.4050000000000002 8.0800000000000001 #
point $-1 -21.802499999999998 1.1550000000000002 8.0800000000000001 #
End-of-ACIS-data 