600 0 1 0           
95 GICL Pro/E ACIS Translator - Source: f:/data5/repository/PTC/V18/cabdia18/lug-qdisc-f.prt - 6 0 13 ACIS 6.0.3 NT 24 Thu Apr 04 13:40:13 2002 
1 9.9999999999999995e-007 1e-010 
body $-1 $1 $-1 $2 #
lump $-1 $-1 $3 $0 #
transform $-1 1 0 0 0 1 0 0 0 1 0 0 0 25.399999999999999 no_rotate no_reflect no_shear #
shell $-1 $-1 $-1 $4 $-1 $1 #
face $-1 $5 $6 $3 $-1 $7 reversed single #
face $-1 $8 $9 $3 $-1 $10 forward single #
loop $-1 $-1 $11 $4 #
plane-surface $-1 0 0 0 0 0 1 1 0 0 forward_v I I I I #
face $-1 $12 $13 $3 $-1 $14 forward single #
loop $-1 $-1 $15 $5 #
cone-surface $-1 0 0 0 0 0 1 0.066000000000000003 0 0 1 I I 0 1 0.066000000000000003 forward I I I I #
coedge $-1 $16 $16 $17 $18 reversed $6 $-1 #
face $-1 $19 $20 $3 $-1 $21 reversed single #
loop $-1 $-1 $22 $8 #
cone-surface $-1 0 0 0 0 0 1 0.066000000000000003 0 0 1 I I 0 1 0.066000000000000003 forward I I I I #
coedge $-1 $17 $23 $24 $25 reversed $9 $-1 #
coedge $-1 $11 $11 $26 $27 reversed $6 $-1 #
coedge $-1 $28 $15 $11 $18 forward $9 $-1 #
edge $-1 $29 0 $30 3.1415926535897931 $11 $31 forward 7 unknown #
face $-1 $32 $33 $3 $-1 $34 forward single #
loop $-1 $35 $36 $12 #
plane-surface $-1 0 0 0.441 0 0 1 1 0 0 forward_v I I I I #
coedge $-1 $26 $37 $28 $38 reversed $13 $-1 #
coedge $-1 $15 $28 $39 $40 reversed $9 $-1 #
coedge $-1 $37 $26 $15 $25 forward $13 $-1 #
edge $-1 $29 0 $41 0.441 $24 $42 forward 7 unknown #
coedge $-1 $24 $22 $16 $27 forward $13 $-1 #
edge $-1 $30 0 $29 3.1415926535897931 $16 $43 forward 7 unknown #
coedge $-1 $23 $17 $22 $38 forward $9 $-1 #
vertex $-1 $27 $44 #
vertex $-1 $27 $45 #
ellipse-curve $-1 0 0 0 0 0 1 -0.066000000000000003 0 0 1 I I #
face $-1 $46 $47 $3 $-1 $48 forward single #
loop $-1 $-1 $49 $19 #
plane-surface $-1 0.11749999999999999 0.067500000000000004 0.441 0 1 0 -1 0 0 forward_v I I I I #
loop $-1 $-1 $39 $12 #
coedge $-1 $50 $51 $52 $53 reversed $20 $-1 #
coedge $-1 $22 $24 $54 $55 reversed $13 $-1 #
edge $-1 $30 0 $56 0.441 $22 $57 forward 7 unknown #
coedge $-1 $54 $54 $23 $40 forward $35 $-1 #
edge $-1 $41 0 $56 3.1415926535897931 $23 $58 forward 7 unknown #
vertex $-1 $55 $59 #
straight-curve $-1 -0.066000000000000003 8.0824019352276896e-018 0 0 0 1 I I #
ellipse-curve $-1 0 0 0 0 0 1 0.066000000000000003 0 0 1 I I #
point $-1 -0.066000000000000003 0 0 #
point $-1 0.066000000000000003 0 0 #
face $-1 $60 $61 $3 $-1 $62 forward single #
loop $-1 $-1 $63 $32 #
plane-surface $-1 -0.11749999999999999 0.067500000000000004 0.441 -1 0 0 0 -1 0 forward_v I I I I #
coedge $-1 $64 $52 $65 $66 forward $33 $-1 #
coedge $-1 $67 $36 $68 $69 reversed $20 $-1 #
coedge $-1 $36 $67 $70 $71 reversed $20 $-1 #
coedge $-1 $49 $72 $36 $53 forward $33 $-1 #
edge $-1 $73 0 $74 0.23499999999999999 $36 $75 forward 7 unknown #
coedge $-1 $39 $39 $37 $55 forward $35 $-1 #
edge $-1 $56 0 $41 3.1415926535897931 $37 $76 forward 7 unknown #
vertex $-1 $55 $77 #
straight-curve $-1 0.066000000000000003 0 0 0 0 1 I I #
ellipse-curve $-1 0 0 0.441 0 0 1 -0.066000000000000003 0 0 1 I I #
point $-1 -0.066000000000000003 0 0.441 #
face $-1 $78 $79 $3 $-1 $80 forward single #
loop $-1 $-1 $81 $46 #
plane-surface $-1 -0.11749999999999999 -0.067500000000000004 0.441 0 -1 0 1 0 0 forward_v I I I I #
coedge $-1 $82 $70 $83 $84 forward $47 $-1 #
coedge $-1 $72 $49 $85 $86 reversed $33 $-1 #
coedge $-1 $70 $82 $49 $66 reversed $47 $-1 #
edge $-1 $74 0 $87 0.29399999999999998 $65 $88 forward 7 unknown #
coedge $-1 $51 $50 $89 $90 reversed $20 $-1 #
coedge $-1 $91 $92 $50 $69 forward $79 $-1 #
edge $-1 $93 0 $73 0.13500000000000001 $50 $94 forward 7 unknown #
coedge $-1 $63 $65 $51 $71 forward $47 $-1 #
edge $-1 $74 0 $95 0.13500000000000001 $51 $96 forward 7 unknown #
coedge $-1 $52 $64 $91 $97 reversed $33 $-1 #
vertex $-1 $69 $98 #
vertex $-1 $71 $99 #
straight-curve $-1 0.11749999999999999 0.067500000000000004 0.441 -1 0 0 I I #
ellipse-curve $-1 0 0 0.441 0 0 1 0.066000000000000003 0 0 1 I I #
point $-1 0.066000000000000003 0 0.441 #
face $-1 $-1 $100 $3 $-1 $101 forward single #
loop $-1 $-1 $91 $60 #
plane-surface $-1 0.11749999999999999 -0.067500000000000004 0.441 1 0 0 0 1 0 forward_v I I I I #
coedge $-1 $102 $89 $92 $103 forward $61 $-1 #
coedge $-1 $65 $63 $104 $105 reversed $47 $-1 #
coedge $-1 $89 $102 $63 $84 reversed $61 $-1 #
edge $-1 $95 0 $106 0.29399999999999998 $63 $107 forward 7 unknown #
coedge $-1 $104 $108 $64 $86 forward $100 $-1 #
edge $-1 $109 0 $87 0.23499999999999999 $85 $110 forward 7 unknown #
vertex $-1 $105 $111 #
straight-curve $-1 -0.11749999999999999 0.067500000000000004 0.441 0 0 1 I I #
coedge $-1 $81 $83 $67 $90 forward $61 $-1 #
edge $-1 $95 0 $93 0.23499999999999999 $67 $112 forward 7 unknown #
coedge $-1 $113 $68 $72 $97 forward $79 $-1 #
coedge $-1 $68 $113 $81 $103 reversed $79 $-1 #
vertex $-1 $90 $114 #
straight-curve $-1 0.11749999999999999 -0.067500000000000004 0.441 0 1 0 I I #
vertex $-1 $71 $115 #
straight-curve $-1 -0.11749999999999999 0.067500000000000004 0.441 0 -1 0 I I #
edge $-1 $73 0 $109 0.29399999999999998 $91 $116 forward 7 unknown #
point $-1 0.11749999999999999 0.067500000000000004 0.441 #
point $-1 -0.11749999999999999 0.067500000000000004 0.441 #
loop $-1 $-1 $117 $78 #
plane-surface $-1 0 0 0.73499999999999999 0 0 1 1 0 0 forward_v I I I I #
coedge $-1 $83 $81 $117 $118 reversed $61 $-1 #
edge $-1 $93 0 $119 0.29399999999999998 $81 $120 forward 7 unknown #
coedge $-1 $117 $85 $82 $105 forward $100 $-1 #
edge $-1 $87 0 $106 0.13500000000000001 $104 $121 forward 7 unknown #
vertex $-1 $105 $122 #
straight-curve $-1 -0.11749999999999999 -0.067500000000000004 0.441 0 0 1 I I #
coedge $-1 $85 $117 $113 $123 forward $100 $-1 #
vertex $-1 $86 $124 #
straight-curve $-1 0.11749999999999999 0.067500000000000004 0.73499999999999999 -1 0 0 I I #
point $-1 -0.11749999999999999 0.067500000000000004 0.73499999999999999 #
straight-curve $-1 -0.11749999999999999 -0.067500000000000004 0.441 1 0 0 I I #
coedge $-1 $92 $91 $108 $123 reversed $79 $-1 #
point $-1 0.11749999999999999 -0.067500000000000004 0.441 #
point $-1 -0.11749999999999999 -0.067500000000000004 0.441 #
straight-curve $-1 0.11749999999999999 0.067500000000000004 0.441 0 0 1 I I #
coedge $-1 $108 $104 $102 $118 forward $100 $-1 #
edge $-1 $106 0 $119 0.23499999999999999 $117 $125 forward 7 unknown #
vertex $-1 $123 $126 #
straight-curve $-1 0.11749999999999999 -0.067500000000000004 0.441 0 0 1 I I #
straight-curve $-1 -0.11749999999999999 0.067500000000000004 0.73499999999999999 0 -1 0 I I #
point $-1 -0.11749999999999999 -0.067500000000000004 0.73499999999999999 #
edge $-1 $119 0 $109 0.13500000000000001 $108 $127 forward 7 unknown #
point $-1 0.11749999999999999 0.067500000000000004 0.73499999999999999 #
straight-curve $-1 -0.11749999999999999 -0.067500000000000004 0.73499999999999999 1 0 0 I I #
point $-1 0.11749999999999999 -0.067500000000000004 0.73499999999999999 #
straight-curve $-1 0.11749999999999999 -0.067500000000000004 0.73499999999999999 0 1 0 I I #
End-of-ACIS-data 