600 0 1 0           
92 GICL ACIS Healer - Source: /gicl/data5/repository/PTC/V18/cabdia18/lug-qdisc-f.prt.sat - 6 0 18 ACIS 6.0.3 Solaris 24 Sat Apr 13 22:29:39 2002 
1 9.999999999999999547e-07 1.000000000000000036e-10 
body $-1 $1 $-1 $-1 #
lump $-1 $-1 $2 $0 #
shell $-1 $-1 $-1 $3 $-1 $1 #
face $-1 $4 $5 $2 $-1 $6 reversed single #
face $-1 $7 $8 $2 $-1 $9 forward single #
loop $-1 $-1 $10 $3 #
plane-surface $-1 0 0 0 0 0 1 25.39999999999999858 0 0 forward_v I I I I #
face $-1 $11 $12 $2 $-1 $13 forward single #
loop $-1 $-1 $14 $4 #
cone-surface $-1 0 0 0 0 0 1 1.67639999999999989 0 0 1 I I 0 1 1.67639999999999989 forward I I I I #
coedge $-1 $15 $15 $16 $17 reversed $5 $-1 #
face $-1 $18 $19 $2 $-1 $20 reversed single #
loop $-1 $-1 $21 $7 #
cone-surface $-1 0 0 0 0 0 1 1.67639999999999989 0 0 1 I I 0 1 1.67639999999999989 forward I I I I #
coedge $-1 $16 $22 $23 $24 reversed $8 $-1 #
coedge $-1 $10 $10 $25 $26 reversed $5 $-1 #
coedge $-1 $27 $14 $10 $17 forward $8 $-1 #
edge $-1 $28 0 $29 3.141592653589793116 $10 $30 forward 7 unknown #
face $-1 $31 $32 $2 $-1 $33 forward single #
loop $-1 $34 $35 $11 #
plane-surface $-1 0 0 11.20139999999999958 0 0 1 25.39999999999999858 0 0 forward_v I I I I #
coedge $-1 $25 $36 $27 $37 reversed $12 $-1 #
coedge $-1 $14 $27 $38 $39 reversed $8 $-1 #
coedge $-1 $36 $25 $14 $24 forward $12 $-1 #
edge $-1 $28 0 $40 0.4410000000000000031 $23 $41 forward 7 unknown #
coedge $-1 $23 $21 $15 $26 forward $12 $-1 #
edge $-1 $29 0 $28 3.141592653589793116 $15 $42 forward 7 unknown #
coedge $-1 $22 $16 $21 $37 forward $8 $-1 #
vertex $-1 $26 $43 #
vertex $-1 $26 $44 #
ellipse-curve $-1 0 0 0 0 0 1 -1.67639999999999989 0 0 1 I I #
face $-1 $45 $46 $2 $-1 $47 forward single #
loop $-1 $-1 $48 $18 #
plane-surface $-1 2.984499999999999709 1.714499999999999913 11.20139999999999958 0 1 0 -25.39999999999999858 0 0 forward_v I I I I #
loop $-1 $-1 $38 $11 #
coedge $-1 $49 $50 $51 $52 reversed $19 $-1 #
coedge $-1 $21 $23 $53 $54 reversed $12 $-1 #
edge $-1 $29 0 $55 0.4410000000000000031 $21 $56 forward 7 unknown #
coedge $-1 $53 $53 $22 $39 forward $34 $-1 #
edge $-1 $40 0 $55 3.141592653589793116 $22 $57 forward 7 unknown #
vertex $-1 $54 $58 #
straight-curve $-1 -1.67639999999999989 2.052930091547832951e-16 0 0 0 25.39999999999999858 I I #
ellipse-curve $-1 0 0 0 0 0 1 1.67639999999999989 0 0 1 I I #
point $-1 -1.67639999999999989 0 0 #
point $-1 1.67639999999999989 0 0 #
face $-1 $59 $60 $2 $-1 $61 forward single #
loop $-1 $-1 $62 $31 #
plane-surface $-1 -2.984499999999999709 1.714499999999999913 11.20139999999999958 -1 0 0 0 -25.39999999999999858 0 forward_v I I I I #
coedge $-1 $63 $51 $64 $65 forward $32 $-1 #
coedge $-1 $66 $35 $67 $68 reversed $19 $-1 #
coedge $-1 $35 $66 $69 $70 reversed $19 $-1 #
coedge $-1 $48 $71 $35 $52 forward $32 $-1 #
edge $-1 $72 0 $73 0.2349999999999999867 $35 $74 forward 7 unknown #
coedge $-1 $38 $38 $36 $54 forward $34 $-1 #
edge $-1 $55 0 $40 3.141592653589793116 $36 $75 forward 7 unknown #
vertex $-1 $54 $76 #
straight-curve $-1 1.67639999999999989 0 0 0 0 25.39999999999999858 I I #
ellipse-curve $-1 0 0 11.20139999999999958 0 0 1 -1.67639999999999989 0 0 1 I I #
point $-1 -1.67639999999999989 0 11.20139999999999958 #
face $-1 $77 $78 $2 $-1 $79 forward single #
loop $-1 $-1 $80 $45 #
plane-surface $-1 -2.984499999999999709 -1.714499999999999913 11.20139999999999958 0 -1 0 25.39999999999999858 0 0 forward_v I I I I #
coedge $-1 $81 $69 $82 $83 forward $46 $-1 #
coedge $-1 $71 $48 $84 $85 reversed $32 $-1 #
coedge $-1 $69 $81 $48 $65 reversed $46 $-1 #
edge $-1 $73 0 $86 0.2939999999999999281 $64 $87 forward 7 unknown #
coedge $-1 $50 $49 $88 $89 reversed $19 $-1 #
coedge $-1 $90 $91 $49 $68 forward $78 $-1 #
edge $-1 $92 0 $72 0.1350000000000000089 $49 $93 forward 7 unknown #
coedge $-1 $62 $64 $50 $70 forward $46 $-1 #
edge $-1 $73 0 $94 0.1350000000000000089 $50 $95 forward 7 unknown #
coedge $-1 $51 $63 $90 $96 reversed $32 $-1 #
vertex $-1 $68 $97 #
vertex $-1 $70 $98 #
straight-curve $-1 2.984499999999999709 1.714499999999999913 11.20139999999999958 -25.39999999999999858 0 0 I I #
ellipse-curve $-1 0 0 11.20139999999999958 0 0 1 1.67639999999999989 0 0 1 I I #
point $-1 1.67639999999999989 0 11.20139999999999958 #
face $-1 $-1 $99 $2 $-1 $100 forward single #
loop $-1 $-1 $90 $59 #
plane-surface $-1 2.984499999999999709 -1.714499999999999913 11.20139999999999958 1 0 0 0 25.39999999999999858 0 forward_v I I I I #
coedge $-1 $101 $88 $91 $102 forward $60 $-1 #
coedge $-1 $64 $62 $103 $104 reversed $46 $-1 #
coedge $-1 $88 $101 $62 $83 reversed $60 $-1 #
edge $-1 $94 0 $105 0.2939999999999999281 $62 $106 forward 7 unknown #
coedge $-1 $103 $107 $63 $85 forward $99 $-1 #
edge $-1 $108 0 $86 0.2349999999999999867 $84 $109 forward 7 unknown #
vertex $-1 $104 $110 #
straight-curve $-1 -2.984499999999999709 1.714499999999999913 11.20139999999999958 0 0 25.39999999999999858 I I #
coedge $-1 $80 $82 $66 $89 forward $60 $-1 #
edge $-1 $94 0 $92 0.2349999999999999867 $66 $111 forward 7 unknown #
coedge $-1 $112 $67 $71 $96 forward $78 $-1 #
coedge $-1 $67 $112 $80 $102 reversed $78 $-1 #
vertex $-1 $89 $113 #
straight-curve $-1 2.984499999999999709 -1.714499999999999913 11.20139999999999958 0 25.39999999999999858 0 I I #
vertex $-1 $70 $114 #
straight-curve $-1 -2.984499999999999709 1.714499999999999913 11.20139999999999958 0 -25.39999999999999858 0 I I #
edge $-1 $72 0 $108 0.2939999999999999281 $90 $115 forward 7 unknown #
point $-1 2.984499999999999709 1.714499999999999913 11.20139999999999958 #
point $-1 -2.984499999999999709 1.714499999999999913 11.20139999999999958 #
loop $-1 $-1 $116 $77 #
plane-surface $-1 0 0 18.66899999999999693 0 0 1 25.39999999999999858 0 0 forward_v I I I I #
coedge $-1 $82 $80 $116 $117 reversed $60 $-1 #
edge $-1 $92 0 $118 0.2939999999999999281 $80 $119 forward 7 unknown #
coedge $-1 $116 $84 $81 $104 forward $99 $-1 #
edge $-1 $86 0 $105 0.1350000000000000089 $103 $120 forward 7 unknown #
vertex $-1 $104 $121 #
straight-curve $-1 -2.984499999999999709 -1.714499999999999913 11.20139999999999958 0 0 25.39999999999999858 I I #
coedge $-1 $84 $116 $112 $122 forward $99 $-1 #
vertex $-1 $85 $123 #
straight-curve $-1 2.984499999999999709 1.714499999999999913 18.66899999999999693 -25.39999999999999858 0 0 I I #
point $-1 -2.984499999999999709 1.714499999999999913 18.66899999999999693 #
straight-curve $-1 -2.984499999999999709 -1.714499999999999913 11.20139999999999958 25.39999999999999858 0 0 I I #
coedge $-1 $91 $90 $107 $122 reversed $78 $-1 #
point $-1 2.984499999999999709 -1.714499999999999913 11.20139999999999958 #
point $-1 -2.984499999999999709 -1.714499999999999913 11.20139999999999958 #
straight-curve $-1 2.984499999999999709 1.714499999999999913 11.20139999999999958 0 0 25.39999999999999858 I I #
coedge $-1 $107 $103 $101 $117 forward $99 $-1 #
edge $-1 $105 0 $118 0.2349999999999999867 $116 $124 forward 7 unknown #
vertex $-1 $122 $125 #
straight-curve $-1 2.984499999999999709 -1.714499999999999913 11.20139999999999958 0 0 25.39999999999999858 I I #
straight-curve $-1 -2.984499999999999709 1.714499999999999913 18.66899999999999693 0 -25.39999999999999858 0 I I #
point $-1 -2.984499999999999709 -1.714499999999999913 18.66899999999999693 #
edge $-1 $118 0 $108 0.1350000000000000089 $107 $126 forward 7 unknown #
point $-1 2.984499999999999709 1.714499999999999913 18.66899999999999693 #
straight-curve $-1 -2.984499999999999709 -1.714499999999999913 18.66899999999999693 25.39999999999999858 0 0 I I #
point $-1 2.984499999999999709 -1.714499999999999913 18.66899999999999693 #
straight-curve $-1 2.984499999999999709 -1.714499999999999913 18.66899999999999693 0 25.39999999999999858 0 I I #
End-of-ACIS-data 