600 0 1 0           
90 GICL ACIS Healer - Source: /gicl/data5/repository/PTC/V18/cabdia18/lug-pgrip.prt.sat - 6 0 18 ACIS 6.0.3 Solaris 24 Sat Apr 13 22:29:38 2002 
1 9.999999999999999547e-07 1.000000000000000036e-10 
body $-1 $1 $-1 $-1 #
lump $-1 $-1 $2 $0 #
shell $-1 $-1 $-1 $3 $-1 $1 #
face $-1 $4 $5 $2 $-1 $6 reversed single #
face $-1 $7 $8 $2 $-1 $9 forward single #
loop $-1 $-1 $10 $3 #
plane-surface $-1 0 0 0 0 0 1 25.39999999999999858 0 0 forward_v I I I I #
face $-1 $11 $12 $2 $-1 $13 reversed single #
loop $-1 $-1 $14 $4 #
plane-surface $-1 -0.9683749999999998748 -0.7746999999999999442 0 -0.8745176546324089362 0 0.4849936821611501303 -12.31883952689321227 0 -22.21274842766318613 forward_v I I I I #
coedge $-1 $15 $16 $17 $18 reversed $5 $-1 #
face $-1 $19 $20 $2 $-1 $21 forward single #
loop $-1 $-1 $22 $7 #
plane-surface $-1 0 -0.7746999999999999442 0 0 -1 0 0 0 -25.39999999999999858 forward_v I I I I #
coedge $-1 $23 $17 $24 $25 forward $8 $-1 #
coedge $-1 $26 $10 $27 $28 reversed $5 $-1 #
coedge $-1 $10 $29 $30 $31 reversed $5 $-1 #
coedge $-1 $14 $32 $10 $18 forward $8 $-1 #
edge $-1 $33 6.993530863780513543e-17 $34 0.02028124038461459264 $10 $35 forward 7 unknown #
face $-1 $36 $37 $2 $-1 $38 forward single #
loop $-1 $-1 $39 $11 #
plane-surface $-1 2.421189578615287719 -0.7746999999999999442 -2.619646491568645708 0.8745176546324089362 0 0.4849936821611501303 -12.31883952689321227 0 22.21274842766318613 forward_v I I I I #
coedge $-1 $40 $30 $41 $42 forward $12 $-1 #
coedge $-1 $43 $14 $44 $45 forward $8 $-1 #
coedge $-1 $30 $46 $14 $25 reversed $12 $-1 #
edge $-1 $34 5.973857387746447301e-19 $47 0.1179343699902619669 $24 $48 forward 7 unknown #
coedge $-1 $49 $15 $50 $51 reversed $5 $-1 #
coedge $-1 $52 $53 $15 $28 forward $54 $-1 #
edge $-1 $55 0 $33 0.9268030011434496007 $15 $56 forward 7 unknown #
coedge $-1 $16 $57 $58 $59 reversed $5 $-1 #
coedge $-1 $22 $24 $16 $31 forward $12 $-1 #
edge $-1 $34 0 $60 0.03812499999999986039 $16 $61 forward 7 unknown #
coedge $-1 $17 $43 $62 $63 reversed $8 $-1 #
vertex $-1 $28 $64 #
vertex $-1 $31 $65 #
straight-curve $-1 -0.9683749999999990976 -1.289843505769210585 1.495059999530544025e-15 0 25.39999999999999858 0 I I #
face $-1 $66 $67 $2 $-1 $68 forward single #
loop $-1 $-1 $69 $19 #
plane-surface $-1 0.9683749999999998748 -0.7746999999999999442 0 0 0 1 -25.39999999999999858 0 0 forward_v I I I I #
coedge $-1 $70 $71 $72 $73 forward $20 $-1 #
coedge $-1 $46 $22 $74 $75 reversed $12 $-1 #
coedge $-1 $76 $77 $22 $42 reversed $5 $-1 #
edge $-1 $60 0 $78 0.03812499999999986039 $41 $79 forward 7 unknown #
coedge $-1 $32 $23 $80 $81 reversed $8 $-1 #
coedge $-1 $82 $83 $23 $45 reversed $84 $-1 #
edge $-1 $47 0 $85 0.03300000000000000155 $23 $86 forward 7 unknown #
coedge $-1 $24 $40 $82 $87 reversed $12 $-1 #
vertex $-1 $25 $88 #
straight-curve $-1 -0.9683749999999990976 -0.7746999999999999442 1.495059999530544025e-15 -12.31883952689321582 0 -22.21274842766318613 I I #
coedge $-1 $77 $26 $89 $90 reversed $5 $-1 #
coedge $-1 $91 $92 $26 $51 forward $93 $-1 #
edge $-1 $94 0 $55 3.141592653589793116 $26 $95 forward 7 unknown #
coedge $-1 $96 $27 $97 $98 forward $54 $-1 #
coedge $-1 $27 $99 $91 $100 reversed $54 $-1 #
loop $-1 $-1 $96 $101 #
vertex $-1 $51 $102 #
ellipse-curve $-1 0 0 0 0 0 1 -1.6129 0 0 1 I I #
coedge $-1 $29 $76 $103 $104 reversed $5 $-1 #
coedge $-1 $105 $106 $29 $59 forward $107 $-1 #
edge $-1 $60 0 $108 1.570796326794896558 $29 $109 forward 7 unknown #
vertex $-1 $31 $110 #
straight-curve $-1 -0.9683749999999964331 -0.7746999999999999442 0 25.39999999999999858 0 0 I I #
coedge $-1 $111 $97 $32 $63 forward $112 $-1 #
edge $-1 $33 -3.496765431890256772e-17 $113 0.01271875961538544535 $62 $114 forward 7 unknown #
point $-1 -0.9683749999999982094 -1.289843505769208809 0 #
point $-1 -0.9683749999999964331 -0.7746999999999999442 0 #
face $-1 $101 $112 $2 $-1 $115 forward single #
loop $-1 $-1 $116 $36 #
plane-surface $-1 0 -1.6129 0 0 -1 0 0 0 -25.39999999999999858 forward_v I I I I #
coedge $-1 $72 $117 $118 $119 reversed $37 $-1 #
coedge $-1 $120 $39 $121 $122 reversed $20 $-1 #
coedge $-1 $39 $74 $77 $123 reversed $20 $-1 #
coedge $-1 $117 $69 $39 $73 reversed $37 $-1 #
edge $-1 $124 0 $125 0.01271875961538548004 $72 $126 forward 7 unknown #
coedge $-1 $71 $120 $40 $75 forward $20 $-1 #
edge $-1 $127 0 $78 0.117934369990262064 $40 $128 forward 7 unknown #
coedge $-1 $57 $41 $106 $129 reversed $5 $-1 #
coedge $-1 $41 $49 $71 $123 forward $5 $-1 #
vertex $-1 $42 $130 #
straight-curve $-1 0 -0.7746999999999999442 0 25.39999999999999858 0 0 I I #
coedge $-1 $131 $116 $43 $81 forward $67 $-1 #
edge $-1 $113 0 $85 0.1179343699902621057 $80 $132 forward 7 unknown #
coedge $-1 $133 $44 $46 $87 forward $84 $-1 #
coedge $-1 $44 $133 $131 $134 reversed $84 $-1 #
loop $-1 $-1 $133 $135 #
vertex $-1 $134 $136 #
straight-curve $-1 -2.421189578615289495 -0.7746999999999999442 -2.619646491568643487 0 -25.39999999999999858 0 I I #
edge $-1 $47 5.793617136157738361e-17 $127 4.154304540179989402 $46 $137 forward 7 unknown #
point $-1 -2.421189578615284166 -0.7746999999999999442 -2.619646491568639934 #
coedge $-1 $138 $96 $49 $90 forward $54 $-1 #
edge $-1 $124 2.389920051399741362e-15 $94 0.926803001143451044 $49 $139 forward 7 unknown #
coedge $-1 $140 $50 $53 $100 forward $93 $-1 #
coedge $-1 $50 $140 $138 $141 reversed $93 $-1 #
loop $-1 $-1 $91 $142 #
vertex $-1 $90 $143 #
ellipse-curve $-1 0 0 0 0 0 1 1.6129 0 0 1 I I #
coedge $-1 $89 $52 $117 $144 forward $54 $-1 #
coedge $-1 $62 $111 $52 $98 reversed $112 $-1 #
edge $-1 $33 0 $145 0.6439933256514470683 $52 $146 forward 7 unknown #
coedge $-1 $53 $138 $147 $148 reversed $54 $-1 #
edge $-1 $55 0 $149 0.4159999999999999254 $91 $150 forward 7 unknown #
face $-1 $142 $54 $2 $-1 $151 forward single #
point $-1 -1.6129 0 0 #
coedge $-1 $152 $153 $57 $104 forward $154 $-1 #
edge $-1 $108 0 $155 3.141592653589793116 $57 $156 forward 7 unknown #
coedge $-1 $157 $58 $153 $158 forward $107 $-1 #
coedge $-1 $58 $159 $76 $129 forward $107 $-1 #
loop $-1 $-1 $58 $160 #
vertex $-1 $59 $161 #
ellipse-curve $-1 0 0 0 0 0 -1 0 -0.7746999999999999442 0 1 I I #
point $-1 0 -0.7746999999999999442 0 #
coedge $-1 $97 $62 $116 $162 reversed $112 $-1 #
loop $-1 $-1 $62 $66 #
vertex $-1 $81 $163 #
straight-curve $-1 -0.9683749999999998748 -1.289843505769209697 0 0 -25.39999999999999858 0 I I #
plane-surface $-1 0.9683749999999998748 -0.7746999999999999442 0 0 0 1 -25.39999999999999858 0 0 forward_v I I I I #
coedge $-1 $80 $118 $111 $162 forward $67 $-1 #
coedge $-1 $69 $72 $96 $144 reversed $37 $-1 #
coedge $-1 $116 $121 $69 $119 forward $67 $-1 #
edge $-1 $125 0 $145 0.03812499999999999917 $118 $164 forward 7 unknown #
coedge $-1 $74 $70 $133 $165 reversed $20 $-1 #
coedge $-1 $118 $131 $70 $122 forward $67 $-1 #
edge $-1 $166 0 $125 0.1179343699902619946 $121 $167 forward 7 unknown #
edge $-1 $124 6.993530863780513543e-17 $78 0.02028124038461459264 $77 $168 forward 7 unknown #
vertex $-1 $123 $169 #
vertex $-1 $119 $170 #
straight-curve $-1 0.9683749999999973213 -1.289843505769208809 -1.762479051592436008e-15 0 -25.39999999999999858 0 I I #
vertex $-1 $87 $171 #
straight-curve $-1 2.421189578615285498 -0.7746999999999999442 -2.619646491568642155 -12.31883952689321049 0 22.21274842766318613 I I #
edge $-1 $155 0 $60 1.570796326794896558 $76 $172 forward 7 unknown #
point $-1 0.9683749999999964331 -0.7746999999999999442 0 #
coedge $-1 $121 $80 $83 $134 forward $67 $-1 #
straight-curve $-1 -0.9683749999999998748 -1.6129 0 -12.31883952689321582 0 -22.21274842766318613 I I #
coedge $-1 $83 $82 $120 $165 forward $84 $-1 #
edge $-1 $85 1.911893654932054744e-15 $166 4.154304540179988514 $131 $173 forward 7 unknown #
face $-1 $-1 $84 $2 $-1 $174 forward single #
point $-1 -2.421189578615286386 -1.6129 -2.619646491568644819 #
ellipse-curve $-1 0 -0.7746999999999999442 -3.962400000000005917 0 -1 0 -2.421189578615284166 0 1.342753508431366205 1 I I #
coedge $-1 $99 $89 $92 $141 forward $54 $-1 #
ellipse-curve $-1 0 0 0 0 0 1 0.9683749999999964331 -1.289843505769210585 0 1 I I #
coedge $-1 $92 $91 $175 $176 reversed $93 $-1 #
edge $-1 $94 0 $177 0.4159999999999999254 $92 $178 forward 7 unknown #
face $-1 $179 $93 $2 $-1 $180 forward single #
point $-1 1.6129 0 0 #
edge $-1 $145 0 $124 0.6439933256514478455 $96 $181 forward 7 unknown #
vertex $-1 $98 $182 #
ellipse-curve $-1 0 0 0 0 0 1 -0.9683749999999982094 -1.289843505769208809 0 1 I I #
coedge $-1 $175 $175 $99 $148 forward $183 $-1 #
edge $-1 $149 0 $177 3.141592653589793116 $147 $184 forward 7 unknown #
vertex $-1 $176 $185 #
straight-curve $-1 -1.6129 1.97516758808011248e-16 0 0 0 25.39999999999999858 I I #
cone-surface $-1 0 0 0 0 0 1 1.6129 0 0 1 I I 0 1 1.6129 forward I I I I #
coedge $-1 $186 $103 $159 $187 forward $154 $-1 #
coedge $-1 $103 $186 $105 $158 reversed $154 $-1 #
loop $-1 $-1 $152 $188 #
vertex $-1 $104 $189 #
ellipse-curve $-1 0 0 0 0 0 -1 -0.7746999999999999442 0 0 1 I I #
coedge $-1 $159 $105 $190 $191 reversed $107 $-1 #
edge $-1 $108 0 $192 0.4159999999999999254 $105 $193 forward 7 unknown #
coedge $-1 $106 $157 $152 $187 reversed $107 $-1 #
face $-1 $135 $107 $2 $-1 $194 reversed single #
point $-1 -0.7746999999999999442 0 0 #
edge $-1 $145 0 $113 0.03812499999999999917 $116 $195 forward 7 unknown #
point $-1 -0.9683749999999998748 -1.6129 0 #
straight-curve $-1 0.9683749999999998748 -1.6129 0 -25.39999999999999858 0 0 I I #
edge $-1 $127 6.617368456019135247e-32 $166 0.03300000000000000155 $133 $196 forward 7 unknown #
vertex $-1 $122 $197 #
straight-curve $-1 2.421189578615285498 -1.6129 -2.619646491568642155 -12.31883952689321227 0 22.21274842766318613 I I #
straight-curve $-1 0.9683749999999964331 -1.289843505769210585 0 0 25.39999999999999858 0 I I #
point $-1 0.9683749999999998748 -1.289843505769208809 0 #
point $-1 0.9683749999999998748 -1.6129 0 #
point $-1 2.421189578615285498 -0.7746999999999999442 -2.619646491568642155 #
ellipse-curve $-1 0 0 0 0 0 -1 0.7746999999999999442 0 0 1 I I #
ellipse-curve $-1 8.812395257962179547e-17 -1.6129 -3.962400000000005473 0 -1 0 -2.421189578615284166 0 1.342753508431365539 1 I I #
cone-surface $-1 0 -0.7746999999999999442 -3.962400000000005917 0 -1 0 0 0 -2.768599999999999728 1 I I 0 1 2.768599999999999728 forward I I I I #
coedge $-1 $147 $147 $140 $176 forward $183 $-1 #
edge $-1 $177 0 $149 3.141592653589793116 $175 $198 forward 7 unknown #
vertex $-1 $176 $199 #
straight-curve $-1 1.6129 0 0 0 0 25.39999999999999858 I I #
face $-1 $188 $183 $2 $-1 $200 forward single #
cone-surface $-1 0 0 0 0 0 1 1.6129 0 0 1 I I 0 1 1.6129 forward I I I I #
ellipse-curve $-1 0 0 0 0 0 1 0 -1.6129 0 1 I I #
point $-1 0 -1.6129 0 #
loop $-1 $201 $147 $179 #
ellipse-curve $-1 0 0 10.56639999999999802 0 0 1 -1.6129 0 0 1 I I #
point $-1 -1.6129 0 10.56639999999999802 #
coedge $-1 $153 $152 $202 $203 reversed $154 $-1 #
edge $-1 $155 0 $204 0.4159999999999999254 $159 $205 forward 7 unknown #
face $-1 $160 $154 $2 $-1 $206 reversed single #
point $-1 0.7746999999999999442 0 0 #
coedge $-1 $202 $202 $157 $191 forward $201 $-1 #
edge $-1 $204 0 $192 3.141592653589793116 $190 $207 forward 7 unknown #
vertex $-1 $191 $208 #
straight-curve $-1 -0.7746999999999999442 9.487025423061956349e-17 0 0 0 25.39999999999999858 I I #
cone-surface $-1 0 0 0 0 0 1 0.7746999999999999442 0 0 1 I I 0 1 0.7746999999999999442 forward I I I I #
straight-curve $-1 0 -1.6129 0 -25.39999999999999858 0 0 I I #
straight-curve $-1 2.421189578615287719 -0.7746999999999999442 -2.619646491568646152 0 -25.39999999999999858 1.068169122177233853e-14 I I #
point $-1 2.421189578615285498 -1.6129 -2.619646491568642155 #
ellipse-curve $-1 0 0 10.56639999999999802 0 0 1 1.6129 0 0 1 I I #
point $-1 1.6129 0 10.56639999999999802 #
plane-surface $-1 0 0 10.56639999999999802 0 0 1 25.39999999999999858 0 0 forward_v I I I I #
loop $-1 $-1 $202 $179 #
coedge $-1 $190 $190 $186 $203 forward $201 $-1 #
edge $-1 $192 0 $204 3.141592653589793116 $202 $209 forward 7 unknown #
vertex $-1 $191 $210 #
straight-curve $-1 0.7746999999999999442 0 0 0 -4.561069914933633718e-16 25.39999999999999858 I I #
cone-surface $-1 0 0 0 0 0 1 0.7746999999999999442 0 0 1 I I 0 1 0.7746999999999999442 forward I I I I #
ellipse-curve $-1 0 0 10.56639999999999802 0 0 -1 0.7746999999999999442 0 0 1 I I #
point $-1 -0.7746999999999999442 0 10.56639999999999802 #
ellipse-curve $-1 0 0 10.56639999999999802 0 0 -1 -0.7746999999999999442 0 0 1 I I #
point $-1 0.7746999999999999442 0 10.56639999999999802 #
End-of-ACIS-data 