700 0 2 0           
24 FBMach with ACIS - 7.0.3 13 ACIS 7.0.3 NT 24 Thu May 16 08:53:13 2002 
1 9.9999999999999995e-007 1e-010 
body $2 -1 $-1 $3 $-1 $4 #
bdycol-kcp $-1 -1 1 2 $5 $6 #
model_id-kcp-attrib $-1 -1 $-1 $-1 $0 1 1021553593 1021553593 123142145 1 #
lump $-1 -1 $-1 $-1 $7 $0 #
transform $-1 -1 1 0 0 0 1 0 0 0 1 0 0 0 1 rotate no_reflect no_shear #
body $8 -1 $-1 $9 $-1 $10 #
body $11 -1 $-1 $12 $-1 $13 #
shell $-1 -1 $-1 $-1 $-1 $14 $-1 $3 #
rgb_color-st-attrib $-1 -1 $15 $-1 $5 1 0.5 1 #
lump $-1 -1 $-1 $-1 $16 $5 #
transform $-1 -1 1 0 0 0 1 0 0 0 1 0 0 9.3344999999999985 1 no_rotate no_reflect no_shear #
model_id-kcp-attrib $-1 -1 $-1 $-1 $6 1 1021553593 1021553593 123142146 1 #
lump $-1 -1 $-1 $-1 $17 $6 #
transform $-1 -1 1 0 0 0 1 0 0 0 1 0 0 9.3344999999999985 1 no_rotate no_reflect no_shear #
face $18 -1 $-1 $19 $20 $7 $-1 $21 reversed single #
model_id-kcp-attrib $-1 -1 $-1 $8 $5 1 1021553593 1021553593 118226947 1 #
shell $-1 -1 $-1 $-1 $-1 $22 $-1 $9 #
shell $-1 -1 $-1 $-1 $-1 $23 $-1 $12 #
model_id-kcp-attrib $-1 -1 $-1 $-1 $14 1 1021553593 1021553593 123142145 2 #
face $24 -1 $-1 $25 $26 $7 $-1 $27 forward single #
loop $-1 -1 $-1 $-1 $28 $14 #
plane-surface $-1 -1 $-1 0 0 0 0 0 1 25.399999999999999 0 0 forward_v I I I I #
face $-1 -1 $-1 $29 $30 $16 $-1 $31 forward single #
face $32 -1 $-1 $33 $34 $17 $-1 $35 forward single #
model_id-kcp-attrib $-1 -1 $-1 $-1 $19 1 1021553593 1021553593 123142145 3 #
face $36 -1 $-1 $37 $38 $7 $-1 $39 forward single #
loop $-1 -1 $-1 $-1 $40 $19 #
cone-surface $-1 -1 $-1 0 0 0 0 0 1 1.6763999999999999 0 0 1 I I 0 1 1.6763999999999999 forward I I I I #
coedge $-1 -1 $-1 $41 $41 $42 $43 reversed $20 $-1 #
face $-1 -1 $-1 $44 $45 $16 $-1 $46 forward single #
loop $-1 -1 $-1 $47 $48 $22 #
cone-surface $-1 -1 $-1 0 0 1.8669000000000011 0 0 -1 1.6763999999999999 0 0 1 I I 0 -1 1.6763999999999999 forward I I I I #
model_id-kcp-attrib $-1 -1 $-1 $-1 $23 1 1021553593 1021553593 123142146 7 #
face $49 -1 $-1 $50 $51 $17 $-1 $52 reversed single #
loop $-1 -1 $-1 $-1 $53 $23 #
plane-surface $-1 -1 $-1 0 0 9.3344999999999985 0 0 1 1 0 0 forward_v I I I I #
model_id-kcp-attrib $-1 -1 $-1 $-1 $25 1 1021553593 1021553593 123142145 4 #
face $54 -1 $-1 $55 $56 $7 $-1 $57 reversed single #
loop $-1 -1 $-1 $-1 $58 $25 #
cone-surface $-1 -1 $-1 0 0 0 0 0 1 1.6763999999999999 0 0 1 I I 0 1 1.6763999999999999 forward I I I I #
coedge $-1 -1 $-1 $42 $59 $60 $61 reversed $26 $-1 #
coedge $-1 -1 $-1 $28 $28 $62 $63 reversed $20 $-1 #
coedge $-1 -1 $-1 $64 $40 $28 $43 forward $26 $-1 #
edge $65 -1 $-1 $66 0 $67 3.1415926535897931 $28 $68 forward @7 unknown #
face $-1 -1 $-1 $69 $70 $16 $-1 $71 forward single #
loop $-1 -1 $-1 $-1 $72 $29 #
plane-surface $-1 -1 $-1 2.9844999999999997 -1.7144999999999999 1.8669000000000011 1 0 0 0 0 -1 forward_v I I I I #
loop $-1 -1 $-1 $-1 $73 $22 #
coedge $-1 -1 $-1 $48 $48 $74 $75 forward $30 $-1 #
model_id-kcp-attrib $-1 -1 $-1 $-1 $33 1 1021553593 1021553593 123142146 2 #
face $76 -1 $-1 $77 $78 $17 $-1 $79 reversed single #
loop $-1 -1 $-1 $-1 $80 $33 #
plane-surface $-1 -1 $-1 0 0 -9.3344999999999985 0 0 1 1 0 0 forward_v I I I I #
coedge $-1 -1 $-1 $81 $82 $83 $84 forward $34 $-1 #
model_id-kcp-attrib $-1 -1 $-1 $-1 $37 1 1021553593 1021553593 123142145 5 #
face $85 -1 $-1 $86 $87 $7 $-1 $88 forward single #
loop $-1 -1 $-1 $89 $90 $37 #
plane-surface $-1 -1 $-1 0 0 11.2014 0 0 1 25.399999999999999 0 0 forward_v I I I I #
coedge $-1 -1 $-1 $62 $91 $64 $92 reversed $38 $-1 #
coedge $-1 -1 $-1 $40 $64 $93 $94 reversed $26 $-1 #
coedge $-1 -1 $-1 $91 $62 $40 $61 forward $38 $-1 #
edge $-1 -1 $-1 $66 0 $95 0.441 $60 $96 forward @7 unknown #
coedge $-1 -1 $-1 $60 $58 $41 $63 forward $38 $-1 #
edge $97 -1 $-1 $67 0 $66 3.1415926535897931 $41 $98 forward @7 unknown #
coedge $-1 -1 $-1 $59 $42 $58 $92 forward $26 $-1 #
attrib_edge_convexity-kcp-attrib $-1 -1 $99 $-1 $43 1 #
vertex $-1 -1 $-1 $63 $100 #
vertex $-1 -1 $-1 $63 $101 #
ellipse-curve $-1 -1 $-1 0 0 0 0 0 1 -1.6763999999999999 0 0 1 I I #
face $-1 -1 $-1 $102 $103 $16 $-1 $104 forward single #
loop $-1 -1 $-1 $-1 $105 $44 #
plane-surface $-1 -1 $-1 2.9844999999999997 1.7144999999999999 1.8669000000000011 0 1 0 0 0 1 forward_v I I I I #
coedge $-1 -1 $-1 $106 $107 $108 $109 forward $45 $-1 #
coedge $-1 -1 $-1 $73 $73 $110 $111 reversed $47 $-1 #
coedge $-1 -1 $-1 $74 $74 $48 $75 reversed $112 $-1 #
edge $-1 -1 $-1 $113 0 $113 6.2831853071795862 $48 $114 forward @7 unknown #
model_id-kcp-attrib $-1 -1 $-1 $-1 $50 1 1021553593 1021553593 123142146 5 #
face $115 -1 $-1 $116 $117 $17 $-1 $118 reversed single #
loop $-1 -1 $-1 $-1 $119 $50 #
plane-surface $-1 -1 $-1 0 -1.7144999999999999 0 0 1 0 0 0 1 forward_v I I I I #
coedge $-1 -1 $-1 $120 $121 $122 $123 forward $51 $-1 #
coedge $-1 -1 $-1 $124 $53 $125 $126 forward $34 $-1 #
coedge $-1 -1 $-1 $53 $124 $127 $128 forward $34 $-1 #
coedge $-1 -1 $-1 $129 $130 $53 $84 reversed $131 $-1 #
edge $-1 -1 $-1 $132 -1.7144999999999999 $133 1.7144999999999999 $83 $134 forward @7 unknown #
model_id-kcp-attrib $-1 -1 $-1 $-1 $55 1 1021553593 1021553593 123142145 6 #
face $135 -1 $-1 $136 $137 $7 $-1 $138 forward single #
loop $-1 -1 $-1 $-1 $139 $55 #
plane-surface $-1 -1 $-1 2.9844999999999997 1.7144999999999999 11.2014 0 1 0 -25.399999999999999 0 0 forward_v I I I I #
loop $-1 -1 $-1 $-1 $93 $37 #
coedge $-1 -1 $-1 $140 $141 $142 $143 reversed $56 $-1 #
coedge $-1 -1 $-1 $58 $60 $144 $145 reversed $38 $-1 #
edge $-1 -1 $-1 $67 0 $146 0.441 $58 $147 forward @7 unknown #
coedge $-1 -1 $-1 $144 $144 $59 $94 forward $89 $-1 #
edge $148 -1 $-1 $95 0 $146 3.1415926535897931 $59 $149 forward @7 unknown #
vertex $-1 -1 $-1 $145 $150 #
straight-curve $-1 -1 $-1 -1.6763999999999999 2.052930091547833e-016 0 0 0 25.399999999999999 I I #
attrib_edge_convexity-kcp-attrib $-1 -1 $151 $-1 $63 1 #
ellipse-curve $-1 -1 $-1 0 0 0 0 0 1 1.6763999999999999 0 0 1 I I #
convexity-sys-attrib $-1 -1 $-1 $65 $43 #
point $-1 -1 $-1 -1.6763999999999999 0 0 #
point $-1 -1 $-1 1.6763999999999999 0 0 #
face $-1 -1 $-1 $152 $153 $16 $-1 $154 forward single #
loop $-1 -1 $-1 $-1 $155 $69 #
plane-surface $-1 -1 $-1 -2.9844999999999997 1.7144999999999999 1.8669000000000011 -1 0 0 0 0 1 forward_v I I I I #
coedge $-1 -1 $-1 $156 $157 $158 $159 forward $70 $-1 #
coedge $-1 -1 $-1 $160 $72 $157 $161 reversed $45 $-1 #
coedge $-1 -1 $-1 $72 $160 $162 $163 forward $45 $-1 #
coedge $-1 -1 $-1 $164 $158 $72 $109 reversed $165 $-1 #
edge $-1 -1 $-1 $166 -1.7144999999999999 $167 1.7144999999999999 $72 $168 forward @7 unknown #
coedge $-1 -1 $-1 $110 $110 $73 $111 forward $169 $-1 #
edge $170 -1 $-1 $171 -3.1415926535897931 $171 3.1415926535897931 $73 $172 forward @7 unknown #
loop $-1 -1 $-1 $-1 $74 $152 #
vertex $-1 -1 $-1 $75 $173 #
ellipse-curve $-1 -1 $-1 0 0 -9.3344999999999985 0 0 -1 1.6763999999999999 0 0 1 I I #
model_id-kcp-attrib $-1 -1 $-1 $-1 $77 1 1021553593 1021553593 123142146 4 #
face $174 -1 $-1 $175 $176 $17 $-1 $177 reversed single #
loop $-1 -1 $-1 $-1 $178 $77 #
plane-surface $-1 -1 $-1 -2.9844999999999997 0 0 1 0 0 0 0 -1 forward_v I I I I #
coedge $-1 -1 $-1 $179 $127 $180 $181 forward $78 $-1 #
coedge $-1 -1 $-1 $182 $80 $179 $183 forward $51 $-1 #
coedge $-1 -1 $-1 $80 $182 $184 $185 forward $51 $-1 #
coedge $-1 -1 $-1 $130 $129 $80 $123 reversed $131 $-1 #
edge $-1 -1 $-1 $186 -1.7144999999999999 $187 1.7144999999999999 $122 $188 forward @7 unknown #
coedge $-1 -1 $-1 $82 $81 $189 $190 forward $34 $-1 #
coedge $-1 -1 $-1 $191 $192 $81 $126 reversed $176 $-1 #
edge $-1 -1 $-1 $133 -2.9844999999999997 $193 2.9844999999999997 $125 $194 forward @7 unknown #
coedge $-1 -1 $-1 $119 $195 $82 $128 reversed $78 $-1 #
edge $-1 -1 $-1 $196 -2.9844999999999997 $132 2.9844999999999997 $127 $197 forward @7 unknown #
coedge $-1 -1 $-1 $122 $83 $195 $198 forward $131 $-1 #
coedge $-1 -1 $-1 $83 $122 $191 $199 reversed $131 $-1 #
loop $-1 -1 $-1 $-1 $129 $175 #
vertex $-1 -1 $-1 $84 $200 #
vertex $-1 -1 $-1 $84 $201 #
straight-curve $-1 -1 $-1 2.9844999999999997 0 9.3344999999999985 0 1 0 I I #
model_id-kcp-attrib $-1 -1 $-1 $-1 $86 1 1021553593 1021553593 123142145 7 #
face $202 -1 $-1 $203 $204 $7 $-1 $205 forward single #
loop $-1 -1 $-1 $-1 $206 $86 #
plane-surface $-1 -1 $-1 -2.9844999999999997 1.7144999999999999 11.2014 -1 0 0 0 -25.399999999999999 0 forward_v I I I I #
coedge $-1 -1 $-1 $207 $142 $208 $209 forward $87 $-1 #
coedge $-1 -1 $-1 $210 $90 $211 $212 reversed $56 $-1 #
coedge $-1 -1 $-1 $90 $210 $213 $214 reversed $56 $-1 #
coedge $-1 -1 $-1 $139 $215 $90 $143 forward $87 $-1 #
edge $216 -1 $-1 $217 0 $218 0.23499999999999999 $90 $219 forward @7 unknown #
coedge $-1 -1 $-1 $93 $93 $91 $145 forward $89 $-1 #
edge $220 -1 $-1 $146 0 $95 3.1415926535897931 $91 $221 forward @7 unknown #
vertex $-1 -1 $-1 $145 $222 #
straight-curve $-1 -1 $-1 1.6763999999999999 0 0 0 0 25.399999999999999 I I #
attrib_edge_convexity-kcp-attrib $-1 -1 $223 $-1 $94 2 #
ellipse-curve $-1 -1 $-1 0 0 11.2014 0 0 1 -1.6763999999999999 0 0 1 I I #
point $-1 -1 $-1 -1.6763999999999999 0 11.2014 #
convexity-sys-attrib $-1 -1 $-1 $97 $63 #
face $-1 -1 $-1 $224 $165 $16 $-1 $225 reversed single #
loop $-1 -1 $-1 $-1 $226 $102 #
plane-surface $-1 -1 $-1 -2.9844999999999997 -1.7144999999999999 1.8669000000000011 0 -1 0 0 0 -1 forward_v I I I I #
coedge $-1 -1 $-1 $227 $228 $229 $230 forward $103 $-1 #
coedge $-1 -1 $-1 $231 $105 $228 $232 reversed $70 $-1 #
coedge $-1 -1 $-1 $105 $231 $106 $161 forward $70 $-1 #
coedge $-1 -1 $-1 $108 $229 $105 $159 reversed $165 $-1 #
edge $-1 -1 $-1 $167 -2.9844999999999997 $233 2.9844999999999997 $105 $234 forward @7 unknown #
coedge $-1 -1 $-1 $107 $106 $235 $236 reversed $45 $-1 #
edge $-1 -1 $-1 $237 0 $167 11.2014 $157 $238 forward @7 unknown #
coedge $-1 -1 $-1 $239 $226 $107 $163 reversed $153 $-1 #
edge $-1 -1 $-1 $240 0 $166 11.2014 $107 $241 forward @7 unknown #
coedge $-1 -1 $-1 $229 $108 $226 $242 reversed $165 $-1 #
loop $-1 -1 $-1 $112 $108 $152 #
vertex $-1 -1 $-1 $163 $243 #
vertex $-1 -1 $-1 $161 $244 #
straight-curve $-1 -1 $-1 2.9844999999999997 0 -9.3344999999999985 0 1 0 I I #
loop $-1 -1 $-1 $-1 $110 $224 #
convexity-sys-attrib $-1 -1 $-1 $-1 $111 #
vertex $-1 -1 $-1 $111 $245 #
ellipse-curve $-1 -1 $-1 0 0 1.8669000000000011 0 0 -1 1.6763999999999999 0 0 1 I I #
point $-1 -1 $-1 1.6764000000000001 0 -9.3344999999999985 #
model_id-kcp-attrib $-1 -1 $-1 $-1 $116 1 1021553593 1021553593 123142146 3 #
face $246 -1 $-1 $-1 $131 $17 $-1 $247 reversed single #
loop $-1 -1 $-1 $-1 $191 $116 #
plane-surface $-1 -1 $-1 0 1.7144999999999999 0 0 -1 0 0 0 -1 forward_v I I I I #
coedge $-1 -1 $-1 $248 $189 $192 $249 forward $117 $-1 #
coedge $-1 -1 $-1 $195 $119 $120 $183 reversed $78 $-1 #
coedge $-1 -1 $-1 $189 $248 $119 $181 reversed $117 $-1 #
edge $-1 -1 $-1 $196 -9.3344999999999985 $250 9.3344999999999985 $180 $251 forward @7 unknown #
coedge $-1 -1 $-1 $121 $120 $248 $252 forward $51 $-1 #
edge $-1 -1 $-1 $187 -2.9844999999999997 $250 2.9844999999999997 $179 $253 forward @7 unknown #
coedge $-1 -1 $-1 $192 $191 $121 $185 reversed $176 $-1 #
edge $-1 -1 $-1 $254 -2.9844999999999997 $186 2.9844999999999997 $184 $255 forward @7 unknown #
vertex $-1 -1 $-1 $123 $256 #
vertex $-1 -1 $-1 $198 $257 #
straight-curve $-1 -1 $-1 2.9844999999999997 0 -9.3344999999999985 0 -1 0 I I #
coedge $-1 -1 $-1 $178 $180 $124 $190 reversed $117 $-1 #
edge $-1 -1 $-1 $193 -1.7144999999999999 $196 1.7144999999999999 $189 $258 forward @7 unknown #
coedge $-1 -1 $-1 $184 $125 $130 $199 forward $176 $-1 #
coedge $-1 -1 $-1 $125 $184 $178 $249 reversed $176 $-1 #
vertex $-1 -1 $-1 $126 $259 #
straight-curve $-1 -1 $-1 0 1.7144999999999999 9.3344999999999985 -1 0 0 I I #
coedge $-1 -1 $-1 $127 $179 $129 $198 reversed $78 $-1 #
vertex $-1 -1 $-1 $190 $260 #
straight-curve $-1 -1 $-1 0 -1.7144999999999999 9.3344999999999985 1 0 0 I I #
edge $-1 -1 $-1 $132 -9.3344999999999985 $187 9.3344999999999985 $129 $261 forward @7 unknown #
edge $-1 -1 $-1 $133 -9.3344999999999985 $186 9.3344999999999985 $130 $262 forward @7 unknown #
point $-1 -1 $-1 2.9844999999999997 -1.7144999999999999 9.3344999999999985 #
point $-1 -1 $-1 2.9844999999999997 1.7144999999999999 9.3344999999999985 #
model_id-kcp-attrib $-1 -1 $-1 $-1 $136 1 1021553593 1021553593 123142145 8 #
face $263 -1 $-1 $264 $265 $7 $-1 $266 forward single #
loop $-1 -1 $-1 $-1 $267 $136 #
plane-surface $-1 -1 $-1 -2.9844999999999997 -1.7144999999999999 11.2014 0 -1 0 25.399999999999999 0 0 forward_v I I I I #
coedge $-1 -1 $-1 $268 $213 $269 $270 forward $137 $-1 #
coedge $-1 -1 $-1 $215 $139 $271 $272 reversed $87 $-1 #
coedge $-1 -1 $-1 $213 $268 $139 $209 reversed $137 $-1 #
edge $273 -1 $-1 $218 0 $274 0.29399999999999993 $208 $275 forward @7 unknown #
coedge $-1 -1 $-1 $141 $140 $276 $277 reversed $56 $-1 #
coedge $-1 -1 $-1 $278 $279 $140 $212 forward $265 $-1 #
edge $280 -1 $-1 $281 0 $217 0.13500000000000001 $140 $282 forward @7 unknown #
coedge $-1 -1 $-1 $206 $208 $141 $214 forward $137 $-1 #
edge $283 -1 $-1 $218 0 $284 0.13500000000000001 $141 $285 forward @7 unknown #
coedge $-1 -1 $-1 $142 $207 $278 $286 reversed $87 $-1 #
attrib_edge_convexity-kcp-attrib $-1 -1 $287 $-1 $143 1 #
vertex $-1 -1 $-1 $212 $288 #
vertex $-1 -1 $-1 $214 $289 #
straight-curve $-1 -1 $-1 2.9844999999999997 1.7144999999999999 11.2014 -25.399999999999999 0 0 I I #
attrib_edge_convexity-kcp-attrib $-1 -1 $290 $-1 $145 2 #
ellipse-curve $-1 -1 $-1 0 0 11.2014 0 0 1 1.6763999999999999 0 0 1 I I #
point $-1 -1 $-1 1.6763999999999999 0 11.2014 #
convexity-sys-attrib $-1 -1 $-1 $148 $94 #
face $-1 -1 $-1 $-1 $291 $16 $-1 $292 forward single #
plane-surface $-1 -1 $-1 4.3496779529703455e-017 0 -9.3344999999999985 0 0 1 1 0 0 forward_v I I I I #
coedge $-1 -1 $-1 $162 $293 $164 $242 forward $153 $-1 #
coedge $-1 -1 $-1 $294 $155 $293 $295 reversed $103 $-1 #
coedge $-1 -1 $-1 $155 $294 $156 $232 forward $103 $-1 #
coedge $-1 -1 $-1 $158 $164 $155 $230 reversed $165 $-1 #
edge $-1 -1 $-1 $233 -1.7144999999999999 $296 1.7144999999999999 $155 $297 forward @7 unknown #
coedge $-1 -1 $-1 $157 $156 $298 $299 reversed $70 $-1 #
edge $-1 -1 $-1 $300 0 $233 11.2014 $228 $301 forward @7 unknown #
vertex $-1 -1 $-1 $232 $302 #
straight-curve $-1 -1 $-1 0 1.7144999999999999 -9.3344999999999985 -1 0 0 I I #
coedge $-1 -1 $-1 $298 $303 $160 $236 forward $291 $-1 #
edge $304 -1 $-1 $240 -1.7144999999999999 $237 1.7144999999999999 $160 $305 forward @7 unknown #
vertex $-1 -1 $-1 $236 $306 #
straight-curve $-1 -1 $-1 2.9844999999999997 1.7144999999999999 1.8669000000000011 0 0 -1 I I #
coedge $-1 -1 $-1 $293 $162 $303 $307 reversed $153 $-1 #
vertex $-1 -1 $-1 $307 $308 #
straight-curve $-1 -1 $-1 2.9844999999999997 -1.7144999999999999 1.8669000000000011 0 0 -1 I I #
edge $-1 -1 $-1 $296 -2.9844999999999997 $166 2.9844999999999997 $226 $309 forward @7 unknown #
point $-1 -1 $-1 2.9844999999999997 -1.7144999999999999 -9.3344999999999985 #
point $-1 -1 $-1 2.9844999999999997 1.7144999999999999 -9.3344999999999985 #
point $-1 -1 $-1 -1.6763999999999999 0 1.8669000000000011 #
model_id-kcp-attrib $-1 -1 $-1 $-1 $175 1 1021553593 1021553593 123142146 6 #
plane-surface $-1 -1 $-1 2.9844999999999997 0 0 -1 0 0 0 0 1 forward_v I I I I #
coedge $-1 -1 $-1 $180 $178 $182 $252 reversed $117 $-1 #
edge $-1 -1 $-1 $193 -9.3344999999999985 $254 9.3344999999999985 $192 $310 forward @7 unknown #
vertex $-1 -1 $-1 $252 $311 #
straight-curve $-1 -1 $-1 -2.9844999999999997 -1.7144999999999999 0 0 0 -1 I I #
edge $-1 -1 $-1 $250 -1.7144999999999999 $254 1.7144999999999999 $248 $312 forward @7 unknown #
straight-curve $-1 -1 $-1 0 -1.7144999999999999 -9.3344999999999985 -1 0 0 I I #
vertex $-1 -1 $-1 $185 $313 #
straight-curve $-1 -1 $-1 0 1.7144999999999999 -9.3344999999999985 1 0 0 I I #
point $-1 -1 $-1 2.9844999999999997 1.7144999999999999 -9.3344999999999985 #
point $-1 -1 $-1 2.9844999999999997 -1.7144999999999999 -9.3344999999999985 #
straight-curve $-1 -1 $-1 -2.9844999999999997 0 9.3344999999999985 0 -1 0 I I #
point $-1 -1 $-1 -2.9844999999999997 1.7144999999999999 9.3344999999999985 #
point $-1 -1 $-1 -2.9844999999999997 -1.7144999999999999 9.3344999999999985 #
straight-curve $-1 -1 $-1 2.9844999999999997 -1.7144999999999999 0 0 0 -1 I I #
straight-curve $-1 -1 $-1 2.9844999999999997 1.7144999999999999 0 0 0 -1 I I #
model_id-kcp-attrib $-1 -1 $-1 $-1 $203 1 1021553593 1021553593 123142145 9 #
face $314 -1 $-1 $-1 $315 $7 $-1 $316 forward single #
loop $-1 -1 $-1 $-1 $278 $203 #
plane-surface $-1 -1 $-1 2.9844999999999997 -1.7144999999999999 11.2014 1 0 0 0 25.399999999999999 0 forward_v I I I I #
coedge $-1 -1 $-1 $317 $276 $279 $318 forward $204 $-1 #
coedge $-1 -1 $-1 $208 $206 $319 $320 reversed $137 $-1 #
coedge $-1 -1 $-1 $276 $317 $206 $270 reversed $204 $-1 #
edge $321 -1 $-1 $284 0 $322 0.29399999999999993 $206 $323 forward @7 unknown #
coedge $-1 -1 $-1 $319 $324 $207 $272 forward $315 $-1 #
edge $325 -1 $-1 $326 0 $274 0.23499999999999999 $271 $327 forward @7 unknown #
attrib_edge_convexity-kcp-attrib $-1 -1 $328 $-1 $209 1 #
vertex $-1 -1 $-1 $320 $329 #
straight-curve $-1 -1 $-1 -2.9844999999999997 1.7144999999999999 11.2014 0 0 25.399999999999999 I I #
coedge $-1 -1 $-1 $267 $269 $210 $277 forward $204 $-1 #
edge $330 -1 $-1 $284 0 $281 0.23499999999999999 $210 $331 forward @7 unknown #
coedge $-1 -1 $-1 $332 $211 $215 $286 forward $265 $-1 #
coedge $-1 -1 $-1 $211 $332 $267 $318 reversed $265 $-1 #
attrib_edge_convexity-kcp-attrib $-1 -1 $333 $-1 $212 1 #
vertex $-1 -1 $-1 $277 $334 #
straight-curve $-1 -1 $-1 2.9844999999999997 -1.7144999999999999 11.2014 0 25.399999999999999 0 I I #
attrib_edge_convexity-kcp-attrib $-1 -1 $335 $-1 $214 1 #
vertex $-1 -1 $-1 $214 $336 #
straight-curve $-1 -1 $-1 -2.9844999999999997 1.7144999999999999 11.2014 0 -25.399999999999999 0 I I #
edge $337 -1 $-1 $217 0 $326 0.29399999999999993 $278 $338 forward @7 unknown #
convexity-sys-attrib $-1 -1 $-1 $216 $143 #
point $-1 -1 $-1 2.9844999999999997 1.7144999999999999 11.2014 #
point $-1 -1 $-1 -2.9844999999999997 1.7144999999999999 11.2014 #
convexity-sys-attrib $-1 -1 $-1 $220 $145 #
loop $-1 -1 $-1 $169 $303 $224 #
plane-surface $-1 -1 $-1 4.3496779529703455e-017 0 1.8669000000000007 0 0 1 1 0 0 forward_v I I I I #
coedge $-1 -1 $-1 $226 $239 $227 $295 forward $153 $-1 #
coedge $-1 -1 $-1 $228 $227 $339 $340 reversed $103 $-1 #
edge $-1 -1 $-1 $341 0 $296 11.2014 $293 $342 forward @7 unknown #
vertex $-1 -1 $-1 $295 $343 #
straight-curve $-1 -1 $-1 -2.9844999999999997 0 -9.3344999999999985 0 -1 0 I I #
coedge $-1 -1 $-1 $339 $235 $231 $299 forward $291 $-1 #
edge $344 -1 $-1 $237 -2.9844999999999997 $300 2.9844999999999997 $231 $345 forward @7 unknown #
vertex $-1 -1 $-1 $299 $346 #
straight-curve $-1 -1 $-1 -2.9844999999999997 1.7144999999999999 1.8669000000000011 0 0 -1 I I #
point $-1 -1 $-1 -2.9844999999999997 1.7144999999999999 -9.3344999999999985 #
coedge $-1 -1 $-1 $235 $339 $239 $307 forward $291 $-1 #
convexity-sys-attrib $-1 -1 $-1 $-1 $236 #
straight-curve $-1 -1 $-1 2.9844999999999997 0 1.8669000000000011 0 1 0 I I #
point $-1 -1 $-1 2.9844999999999997 1.7144999999999999 1.8669000000000011 #
edge $347 -1 $-1 $341 -2.9844999999999997 $240 2.9844999999999997 $239 $348 forward @7 unknown #
point $-1 -1 $-1 2.9844999999999997 -1.7144999999999999 1.8669000000000011 #
straight-curve $-1 -1 $-1 0 -1.7144999999999999 -9.3344999999999985 1 0 0 I I #
straight-curve $-1 -1 $-1 -2.9844999999999997 1.7144999999999999 0 0 0 -1 I I #
point $-1 -1 $-1 -2.9844999999999997 -1.7144999999999999 -9.3344999999999985 #
straight-curve $-1 -1 $-1 -2.9844999999999997 0 -9.3344999999999985 0 1 0 I I #
point $-1 -1 $-1 -2.9844999999999997 1.7144999999999999 -9.3344999999999985 #
model_id-kcp-attrib $-1 -1 $-1 $-1 $264 1 1021553593 1021553593 123142145 10 #
loop $-1 -1 $-1 $-1 $349 $264 #
plane-surface $-1 -1 $-1 0 0 18.668999999999997 0 0 1 25.399999999999999 0 0 forward_v I I I I #
coedge $-1 -1 $-1 $269 $267 $349 $350 reversed $204 $-1 #
edge $-1 -1 $-1 $281 0 $351 0.29399999999999993 $267 $352 forward @7 unknown #
coedge $-1 -1 $-1 $349 $271 $268 $320 forward $315 $-1 #
edge $353 -1 $-1 $274 0 $322 0.13500000000000001 $319 $354 forward @7 unknown #
attrib_edge_convexity-kcp-attrib $-1 -1 $355 $-1 $270 1 #
vertex $-1 -1 $-1 $320 $356 #
straight-curve $-1 -1 $-1 -2.9844999999999997 -1.7144999999999999 11.2014 0 0 25.399999999999999 I I #
coedge $-1 -1 $-1 $271 $349 $332 $357 forward $315 $-1 #
attrib_edge_convexity-kcp-attrib $-1 -1 $358 $-1 $272 1 #
vertex $-1 -1 $-1 $272 $359 #
straight-curve $-1 -1 $-1 2.9844999999999997 1.7144999999999999 18.668999999999997 -25.399999999999999 0 0 I I #
convexity-sys-attrib $-1 -1 $-1 $273 $209 #
point $-1 -1 $-1 -2.9844999999999997 1.7144999999999999 18.668999999999997 #
attrib_edge_convexity-kcp-attrib $-1 -1 $360 $-1 $277 1 #
straight-curve $-1 -1 $-1 -2.9844999999999997 -1.7144999999999999 11.2014 25.399999999999999 0 0 I I #
coedge $-1 -1 $-1 $279 $278 $324 $357 reversed $265 $-1 #
convexity-sys-attrib $-1 -1 $-1 $280 $212 #
point $-1 -1 $-1 2.9844999999999997 -1.7144999999999999 11.2014 #
convexity-sys-attrib $-1 -1 $-1 $283 $214 #
point $-1 -1 $-1 -2.9844999999999997 -1.7144999999999999 11.2014 #
attrib_edge_convexity-kcp-attrib $-1 -1 $361 $-1 $286 1 #
straight-curve $-1 -1 $-1 2.9844999999999997 1.7144999999999999 11.2014 0 0 25.399999999999999 I I #
coedge $-1 -1 $-1 $303 $298 $294 $340 forward $291 $-1 #
edge $362 -1 $-1 $300 -1.7144999999999999 $341 1.7144999999999999 $294 $363 forward @7 unknown #
vertex $-1 -1 $-1 $307 $364 #
straight-curve $-1 -1 $-1 -2.9844999999999997 -1.7144999999999999 1.8669000000000011 0 0 -1 I I #
point $-1 -1 $-1 -2.9844999999999997 -1.7144999999999999 -9.3344999999999985 #
convexity-sys-attrib $-1 -1 $-1 $-1 $299 #
straight-curve $-1 -1 $-1 0 1.7144999999999999 1.8669000000000011 -1 0 0 I I #
point $-1 -1 $-1 -2.9844999999999997 1.7144999999999999 1.8669000000000011 #
convexity-sys-attrib $-1 -1 $-1 $-1 $307 #
straight-curve $-1 -1 $-1 0 -1.7144999999999999 1.8669000000000011 1 0 0 I I #
coedge $-1 -1 $-1 $324 $319 $317 $350 forward $315 $-1 #
edge $-1 -1 $-1 $322 0 $351 0.23499999999999999 $349 $365 forward @7 unknown #
vertex $-1 -1 $-1 $357 $366 #
straight-curve $-1 -1 $-1 2.9844999999999997 -1.7144999999999999 11.2014 0 0 25.399999999999999 I I #
attrib_edge_convexity-kcp-attrib $-1 -1 $367 $-1 $320 1 #
straight-curve $-1 -1 $-1 -2.9844999999999997 1.7144999999999999 18.668999999999997 0 -25.399999999999999 0 I I #
convexity-sys-attrib $-1 -1 $-1 $321 $270 #
point $-1 -1 $-1 -2.9844999999999997 -1.7144999999999999 18.668999999999997 #
edge $-1 -1 $-1 $351 0 $326 0.13500000000000001 $324 $368 forward @7 unknown #
convexity-sys-attrib $-1 -1 $-1 $325 $272 #
point $-1 -1 $-1 2.9844999999999997 1.7144999999999999 18.668999999999997 #
convexity-sys-attrib $-1 -1 $-1 $330 $277 #
convexity-sys-attrib $-1 -1 $-1 $337 $286 #
convexity-sys-attrib $-1 -1 $-1 $-1 $340 #
straight-curve $-1 -1 $-1 -2.9844999999999997 0 1.8669000000000011 0 -1 0 I I #
point $-1 -1 $-1 -2.9844999999999997 -1.7144999999999999 1.8669000000000011 #
straight-curve $-1 -1 $-1 -2.9844999999999997 -1.7144999999999999 18.668999999999997 25.399999999999999 0 0 I I #
point $-1 -1 $-1 2.9844999999999997 -1.7144999999999999 18.668999999999997 #
convexity-sys-attrib $-1 -1 $-1 $353 $320 #
straight-curve $-1 -1 $-1 2.9844999999999997 -1.7144999999999999 18.668999999999997 0 25.399999999999999 0 I I #
End-of-ACIS-data 