700 0 2 0           
24 FBMach with ACIS - 7.0.3 13 ACIS 7.0.3 NT 24 Thu May 16 08:53:16 2002 
1 9.9999999999999995e-007 1e-010 
body $2 -1 $-1 $3 $-1 $4 #
bdycol-kcp $-1 -1 1 4 $5 $6 $7 $8 #
model_id-kcp-attrib $-1 -1 $-1 $-1 $0 1 1021553595 1021553595 -2099445759 1 #
lump $-1 -1 $-1 $-1 $9 $0 #
transform $-1 -1 1 0 0 0 1 0 0 0 1 0 0 0 1 rotate no_reflect no_shear #
body $10 -1 $-1 $11 $-1 $12 #
body $13 -1 $-1 $14 $-1 $15 #
body $16 -1 $-1 $17 $-1 $18 #
body $19 -1 $-1 $20 $-1 $21 #
shell $-1 -1 $-1 $-1 $-1 $22 $-1 $3 #
rgb_color-st-attrib $-1 -1 $23 $-1 $5 0.5 1 1 #
lump $-1 -1 $-1 $-1 $24 $5 #
transform $-1 -1 1 0 0 0 1 0 0 0 1 0 0 0 1 no_rotate no_reflect no_shear #
model_id-kcp-attrib $-1 -1 $-1 $-1 $6 1 1021553595 1021553595 -2099445758 1 #
lump $-1 -1 $-1 $-1 $25 $6 #
transform $-1 -1 1 0 0 0 1 0 0 0 1 0 0 16.509999999999998 1 no_rotate no_reflect no_shear #
rgb_color-st-attrib $-1 -1 $26 $-1 $7 1 0.5 1 #
lump $-1 -1 $-1 $-1 $27 $7 #
transform $-1 -1 1 0 0 0 1 0 0 0 1 0 0 16.509999999999998 1 no_rotate no_reflect no_shear #
rgb_color-st-attrib $-1 -1 $28 $-1 $8 1 0.5 1 #
lump $-1 -1 $-1 $-1 $29 $8 #
transform $-1 -1 1 0 0 0 1 0 0 0 1 0 0 16.509999999999998 1 no_rotate no_reflect no_shear #
face $30 -1 $-1 $31 $32 $9 $-1 $33 reversed single #
model_id-kcp-attrib $-1 -1 $-1 $10 $5 1 1021553595 1021553595 -2104426493 1 #
shell $-1 -1 $-1 $-1 $-1 $34 $-1 $11 #
shell $-1 -1 $-1 $-1 $-1 $35 $-1 $14 #
model_id-kcp-attrib $-1 -1 $-1 $16 $7 1 1021553595 1021553596 -2109145084 1 #
shell $-1 -1 $-1 $-1 $-1 $36 $-1 $17 #
model_id-kcp-attrib $-1 -1 $-1 $19 $8 1 1021553595 1021553596 -2101280763 1 #
shell $-1 -1 $-1 $-1 $-1 $37 $-1 $20 #
model_id-kcp-attrib $-1 -1 $-1 $-1 $22 1 1021553595 1021553595 -2099445759 2 #
face $38 -1 $-1 $39 $40 $9 $-1 $41 reversed single #
loop $-1 -1 $-1 $42 $43 $22 #
plane-surface $-1 -1 $-1 0 0 0 0 0 1 25.399999999999999 0 0 forward_v I I I I #
face $-1 -1 $-1 $44 $45 $24 $-1 $46 forward single #
face $47 -1 $-1 $48 $49 $25 $-1 $50 forward single #
face $-1 -1 $-1 $51 $52 $27 $-1 $53 forward single #
face $-1 -1 $-1 $54 $55 $29 $-1 $56 forward single #
model_id-kcp-attrib $-1 -1 $-1 $-1 $31 1 1021553595 1021553595 -2099445759 3 #
face $57 -1 $-1 $58 $59 $9 $-1 $60 reversed single #
loop $-1 -1 $-1 $-1 $61 $31 #
cone-surface $-1 -1 $-1 0 0 33.019999999999996 0 0 -1 -2.4129999999999998 0 0 1 I I 0 1 2.4129999999999998 forward I I I I #
loop $-1 -1 $-1 $-1 $62 $22 #
coedge $-1 -1 $-1 $63 $63 $64 $65 reversed $32 $-1 #
face $-1 -1 $-1 $66 $67 $24 $-1 $68 forward single #
loop $-1 -1 $-1 $69 $70 $34 #
cone-surface $-1 -1 $-1 0 -8.8123952579621795e-017 0 0 0 1 2.4129999999999998 8.8123952579621795e-017 0 1 I I 0 1 2.4129999999999998 forward I I I I #
model_id-kcp-attrib $-1 -1 $-1 $-1 $35 1 1021553595 1021553595 -2099445758 3 #
face $71 -1 $-1 $72 $73 $25 $-1 $74 reversed single #
loop $-1 -1 $-1 $-1 $75 $35 #
plane-surface $-1 -1 $-1 0 0 16.509999999999998 0 0 1 1 0 0 forward_v I I I I #
face $-1 -1 $-1 $76 $77 $27 $-1 $78 forward single #
loop $-1 -1 $-1 $-1 $79 $36 #
plane-surface $-1 -1 $-1 -7.8739999999999997 5.2832000000000008 -16.509999999999998 -1 0 0 0 0 1 forward_v I I I I #
face $-1 -1 $-1 $80 $81 $29 $-1 $82 forward single #
loop $-1 -1 $-1 $-1 $83 $37 #
plane-surface $-1 -1 $-1 7.8739999999999997 -5.2832000000000008 -16.509999999999998 1 0 0 0 0 -1 forward_v I I I I #
model_id-kcp-attrib $-1 -1 $-1 $-1 $39 1 1021553595 1021553595 -2099445759 4 #
face $84 -1 $-1 $85 $86 $9 $-1 $87 forward single #
loop $-1 -1 $-1 $-1 $88 $39 #
cone-surface $-1 -1 $-1 0 0 33.019999999999996 0 0 -1 -2.4129999999999998 0 0 1 I I 0 1 2.4129999999999998 forward I I I I #
coedge $-1 -1 $-1 $64 $89 $90 $91 forward $40 $-1 #
coedge $-1 -1 $-1 $92 $93 $94 $95 forward $42 $-1 #
coedge $-1 -1 $-1 $43 $43 $96 $97 reversed $32 $-1 #
coedge $-1 -1 $-1 $98 $61 $43 $65 forward $40 $-1 #
edge $99 -1 $-1 $100 0 $101 3.1415926535897931 $43 $102 forward @7 unknown #
face $-1 -1 $-1 $-1 $103 $24 $-1 $104 reversed single #
loop $-1 -1 $-1 $-1 $105 $44 #
plane-surface $-1 -1 $-1 0 0 33.019999999999996 0 0 1 1 0 0 forward_v I I I I #
loop $-1 -1 $-1 $-1 $106 $34 #
coedge $-1 -1 $-1 $70 $70 $105 $107 forward $45 $-1 #
model_id-kcp-attrib $-1 -1 $-1 $-1 $48 1 1021553595 1021553595 -2099445758 2 #
face $108 -1 $-1 $109 $110 $25 $-1 $111 reversed single #
loop $-1 -1 $-1 $-1 $112 $48 #
plane-surface $-1 -1 $-1 0 0 -16.509999999999998 0 0 1 1 0 0 forward_v I I I I #
coedge $-1 -1 $-1 $113 $114 $115 $116 forward $49 $-1 #
face $-1 -1 $-1 $117 $118 $27 $-1 $119 forward single #
loop $-1 -1 $-1 $-1 $120 $51 #
plane-surface $-1 -1 $-1 -7.8739999999999997 5.2832000000000008 16.509999999999998 0 0 1 1 0 0 forward_v I I I I #
coedge $-1 -1 $-1 $121 $122 $123 $124 forward $52 $-1 #
face $-1 -1 $-1 $125 $126 $29 $-1 $127 forward single #
loop $-1 -1 $-1 $-1 $128 $54 #
plane-surface $-1 -1 $-1 7.8739999999999997 -5.2832000000000008 16.509999999999998 0 0 1 1 0 0 forward_v I I I I #
coedge $-1 -1 $-1 $129 $130 $131 $132 forward $55 $-1 #
model_id-kcp-attrib $-1 -1 $-1 $-1 $58 1 1021553595 1021553595 -2099445759 5 #
face $133 -1 $-1 $134 $135 $9 $-1 $136 forward single #
loop $-1 -1 $-1 $137 $138 $58 #
plane-surface $-1 -1 $-1 0 0 33.019999999999996 0 0 1 25.399999999999999 0 0 forward_v I I I I #
coedge $-1 -1 $-1 $96 $139 $98 $140 forward $59 $-1 #
coedge $-1 -1 $-1 $61 $98 $138 $141 reversed $40 $-1 #
coedge $-1 -1 $-1 $139 $96 $61 $91 reversed $59 $-1 #
edge $-1 -1 $-1 $142 0 $100 1.2999999999999998 $90 $143 forward @7 unknown #
coedge $-1 -1 $-1 $144 $62 $145 $146 reversed $42 $-1 #
coedge $-1 -1 $-1 $62 $144 $147 $148 reversed $42 $-1 #
coedge $-1 -1 $-1 $149 $150 $62 $95 reversed $151 $-1 #
edge $152 -1 $-1 $153 0 $154 0.95999999999999996 $62 $155 forward @7 unknown #
coedge $-1 -1 $-1 $90 $88 $63 $97 forward $59 $-1 #
edge $156 -1 $-1 $101 0 $100 3.1415926535897931 $63 $157 forward @7 unknown #
coedge $-1 -1 $-1 $89 $64 $88 $140 reversed $40 $-1 #
attrib_edge_convexity-kcp-attrib $-1 -1 $158 $-1 $65 1 #
vertex $-1 -1 $-1 $97 $159 #
vertex $-1 -1 $-1 $97 $160 #
ellipse-curve $-1 -1 $-1 0 -8.8123952579621795e-017 0 0 0 -1 2.4129999999999998 8.8123952579621795e-017 0 1 I I #
loop $-1 -1 $-1 $-1 $161 $66 #
plane-surface $-1 -1 $-1 0 0 0 0 0 1 1 0 0 forward_v I I I I #
coedge $-1 -1 $-1 $105 $105 $70 $107 reversed $67 $-1 #
coedge $-1 -1 $-1 $106 $106 $161 $162 reversed $69 $-1 #
edge $-1 -1 $-1 $163 -3.1415926535897931 $163 3.1415926535897931 $70 $164 forward @7 unknown #
model_id-kcp-attrib $-1 -1 $-1 $-1 $72 1 1021553595 1021553595 -2099445758 5 #
face $165 -1 $-1 $166 $167 $25 $-1 $168 reversed single #
loop $-1 -1 $-1 $-1 $169 $72 #
plane-surface $-1 -1 $-1 0 -12.191999999999998 0 0 1 0 0 0 1 forward_v I I I I #
coedge $-1 -1 $-1 $170 $171 $172 $173 forward $73 $-1 #
coedge $-1 -1 $-1 $174 $75 $175 $176 forward $49 $-1 #
coedge $-1 -1 $-1 $75 $174 $177 $178 forward $49 $-1 #
coedge $-1 -1 $-1 $179 $180 $75 $116 reversed $181 $-1 #
edge $-1 -1 $-1 $182 -12.191999999999998 $183 12.191999999999998 $115 $184 forward @7 unknown #
face $-1 -1 $-1 $185 $186 $27 $-1 $187 reversed single #
loop $-1 -1 $-1 $-1 $188 $76 #
plane-surface $-1 -1 $-1 -5.3340000000000005 5.283199999999999 16.509999999999998 0.9970544855015816 0 -0.076696498884737035 -0.076696498884737035 0 -0.9970544855015816 forward_v I I I I #
coedge $-1 -1 $-1 $189 $190 $191 $192 forward $77 $-1 #
coedge $-1 -1 $-1 $193 $79 $190 $194 reversed $52 $-1 #
coedge $-1 -1 $-1 $79 $193 $195 $196 forward $52 $-1 #
coedge $-1 -1 $-1 $197 $191 $79 $124 reversed $186 $-1 #
edge $-1 -1 $-1 $198 -20.954999999999998 $199 12.065 $79 $200 forward @7 unknown #
face $-1 -1 $-1 $201 $202 $29 $-1 $203 forward single #
loop $-1 -1 $-1 $-1 $204 $80 #
plane-surface $-1 -1 $-1 5.3340000000000005 -5.283199999999999 16.509999999999998 -0.9970544855015816 0 -0.076696498884737035 -0.076696498884737035 0 0.9970544855015816 forward_v I I I I #
coedge $-1 -1 $-1 $205 $206 $207 $208 forward $81 $-1 #
coedge $-1 -1 $-1 $209 $83 $206 $210 reversed $55 $-1 #
coedge $-1 -1 $-1 $83 $209 $211 $212 forward $55 $-1 #
coedge $-1 -1 $-1 $213 $207 $83 $132 reversed $202 $-1 #
edge $-1 -1 $-1 $214 -20.954999999999998 $215 12.065 $83 $216 forward @7 unknown #
model_id-kcp-attrib $-1 -1 $-1 $-1 $85 1 1021553595 1021553595 -2099445759 6 #
face $217 -1 $-1 $218 $219 $9 $-1 $220 reversed single #
loop $-1 -1 $-1 $-1 $221 $85 #
plane-surface $-1 -1 $-1 7.8739999999999997 12.191999999999998 0 0 1 0 -25.399999999999999 0 0 forward_v I I I I #
loop $-1 -1 $-1 $-1 $222 $58 #
coedge $-1 -1 $-1 $223 $223 $89 $141 forward $86 $-1 #
coedge $-1 -1 $-1 $88 $90 $223 $224 reversed $59 $-1 #
edge $-1 -1 $-1 $225 0 $101 1.2999999999999998 $88 $226 forward @7 unknown #
edge $-1 -1 $-1 $142 0 $225 3.1415926535897931 $138 $227 forward @7 unknown #
vertex $-1 -1 $-1 $224 $228 #
straight-curve $-1 -1 $-1 2.4129999999999998 2.9549751317733961e-016 33.019999999999996 0 0 -25.399999999999999 I I #
coedge $-1 -1 $-1 $93 $92 $229 $230 reversed $42 $-1 #
coedge $-1 -1 $-1 $231 $221 $92 $146 forward $135 $-1 #
edge $232 -1 $-1 $233 0 $154 0.62 $92 $234 forward @7 unknown #
coedge $-1 -1 $-1 $235 $236 $93 $148 forward $237 $-1 #
edge $238 -1 $-1 $153 0 $239 0.62 $93 $240 forward @7 unknown #
coedge $-1 -1 $-1 $241 $94 $236 $242 reversed $151 $-1 #
coedge $-1 -1 $-1 $94 $243 $231 $244 forward $151 $-1 #
loop $-1 -1 $-1 $-1 $150 $245 #
attrib_edge_convexity-kcp-attrib $-1 -1 $246 $-1 $95 1 #
vertex $-1 -1 $-1 $148 $247 #
vertex $-1 -1 $-1 $146 $248 #
straight-curve $-1 -1 $-1 -7.8739999999999997 -12.191999999999998 0 0 25.399999999999999 0 I I #
attrib_edge_convexity-kcp-attrib $-1 -1 $249 $-1 $97 1 #
ellipse-curve $-1 -1 $-1 0 1.7624790515924359e-016 0 0 0 -1 -2.4129999999999998 -1.7624790515924359e-016 0 1 I I #
convexity-sys-attrib $-1 -1 $-1 $99 $65 #
point $-1 -1 $-1 2.4129999999999998 0 0 #
point $-1 -1 $-1 -2.4129999999999998 0 0 #
coedge $-1 -1 $-1 $161 $161 $106 $162 forward $103 $-1 #
edge $-1 -1 $-1 $250 -3.1415926535897931 $250 3.1415926535897931 $106 $251 forward @7 unknown #
vertex $-1 -1 $-1 $107 $252 #
ellipse-curve $-1 -1 $-1 0 1.7624790515924359e-016 33.019999999999996 0 0 -1 -2.4129999999999998 -1.7624790515924359e-016 0 1 I I #
model_id-kcp-attrib $-1 -1 $-1 $-1 $109 1 1021553595 1021553595 -2099445758 6 #
face $253 -1 $-1 $254 $255 $25 $-1 $256 reversed single #
loop $-1 -1 $-1 $-1 $257 $109 #
plane-surface $-1 -1 $-1 -7.8739999999999997 0 0 1 0 0 0 0 -1 forward_v I I I I #
coedge $-1 -1 $-1 $258 $177 $259 $260 forward $110 $-1 #
coedge $-1 -1 $-1 $261 $112 $258 $262 forward $73 $-1 #
coedge $-1 -1 $-1 $112 $261 $263 $264 forward $73 $-1 #
coedge $-1 -1 $-1 $180 $179 $112 $173 reversed $181 $-1 #
edge $-1 -1 $-1 $265 -12.191999999999998 $266 12.191999999999998 $172 $267 forward @7 unknown #
coedge $-1 -1 $-1 $114 $113 $268 $269 forward $49 $-1 #
coedge $-1 -1 $-1 $270 $271 $113 $176 reversed $255 $-1 #
edge $-1 -1 $-1 $183 -7.8739999999999997 $272 7.8739999999999997 $175 $273 forward @7 unknown #
coedge $-1 -1 $-1 $169 $274 $114 $178 reversed $110 $-1 #
edge $-1 -1 $-1 $275 -7.8739999999999997 $182 7.8739999999999997 $177 $276 forward @7 unknown #
coedge $-1 -1 $-1 $172 $115 $274 $277 forward $181 $-1 #
coedge $-1 -1 $-1 $115 $172 $270 $278 reversed $181 $-1 #
loop $-1 -1 $-1 $-1 $179 $254 #
vertex $-1 -1 $-1 $116 $279 #
vertex $-1 -1 $-1 $116 $280 #
straight-curve $-1 -1 $-1 7.8739999999999997 0 16.509999999999998 0 1 0 I I #
face $-1 -1 $-1 $-1 $281 $27 $-1 $282 forward single #
loop $-1 -1 $-1 $-1 $123 $117 #
plane-surface $-1 -1 $-1 -7.2146129453926351 -12.191999999999997 0.61061294539263533 1.5622721532024131e-029 1 -6.4901258702972501e-031 0 6.4901258702972501e-031 1 forward_v I I I I #
coedge $-1 -1 $-1 $195 $283 $197 $284 forward $118 $-1 #
coedge $-1 -1 $-1 $285 $120 $283 $286 reversed $77 $-1 #
coedge $-1 -1 $-1 $120 $285 $121 $194 forward $77 $-1 #
coedge $-1 -1 $-1 $123 $197 $120 $192 reversed $186 $-1 #
edge $-1 -1 $-1 $199 -4.5719999999999992 $287 -2.0320000000000005 $120 $288 forward @7 unknown #
coedge $-1 -1 $-1 $122 $121 $289 $290 reversed $52 $-1 #
edge $-1 -1 $-1 $291 0 $199 17.475199999999997 $190 $292 forward @7 unknown #
coedge $-1 -1 $-1 $293 $188 $122 $196 reversed $118 $-1 #
edge $-1 -1 $-1 $294 0 $198 17.475199999999997 $122 $295 forward @7 unknown #
coedge $-1 -1 $-1 $191 $123 $188 $284 reversed $186 $-1 #
vertex $-1 -1 $-1 $196 $296 #
vertex $-1 -1 $-1 $194 $297 #
straight-curve $-1 -1 $-1 -7.8739999999999997 -12.191999999999997 4.4449999999999985 0 0 1 I I #
face $-1 -1 $-1 $-1 $298 $29 $-1 $299 reversed single #
loop $-1 -1 $-1 $-1 $131 $125 #
plane-surface $-1 -1 $-1 7.2146129453926351 12.191999999999997 0.61061294539263555 -1.1425075173502674e-015 1 -8.7885193642328769e-017 0 8.7885193642328769e-017 1 forward_v I I I I #
coedge $-1 -1 $-1 $211 $300 $213 $301 forward $126 $-1 #
coedge $-1 -1 $-1 $302 $128 $300 $303 reversed $81 $-1 #
coedge $-1 -1 $-1 $128 $302 $129 $210 forward $81 $-1 #
coedge $-1 -1 $-1 $131 $213 $128 $208 reversed $202 $-1 #
edge $-1 -1 $-1 $215 -4.5719999999999992 $304 -2.0320000000000005 $128 $305 forward @7 unknown #
coedge $-1 -1 $-1 $130 $129 $306 $307 reversed $55 $-1 #
edge $-1 -1 $-1 $308 0 $215 17.475199999999997 $206 $309 forward @7 unknown #
coedge $-1 -1 $-1 $310 $204 $130 $212 reversed $126 $-1 #
edge $-1 -1 $-1 $311 0 $214 17.475199999999997 $130 $312 forward @7 unknown #
coedge $-1 -1 $-1 $207 $131 $204 $301 reversed $202 $-1 #
vertex $-1 -1 $-1 $212 $313 #
vertex $-1 -1 $-1 $210 $314 #
straight-curve $-1 -1 $-1 7.8739999999999997 12.191999999999997 4.4449999999999985 0 0 1 I I #
model_id-kcp-attrib $-1 -1 $-1 $-1 $134 1 1021553595 1021553595 -2099445759 7 #
face $315 -1 $-1 $245 $237 $9 $-1 $316 forward single #
loop $-1 -1 $-1 $-1 $317 $134 #
plane-surface $-1 -1 $-1 7.8739999999999997 12.191999999999998 0 -0.9970544855015816 0 -0.076696498884737035 -1.9480910716723205 0 25.32518393174017 forward_v I I I I #
coedge $-1 -1 $-1 $145 $318 $319 $320 reversed $135 $-1 #
coedge $-1 -1 $-1 $321 $322 $318 $323 forward $137 $-1 #
coedge $-1 -1 $-1 $138 $138 $139 $224 forward $86 $-1 #
edge $-1 -1 $-1 $225 0 $142 3.1415926535897931 $223 $324 forward @7 unknown #
vertex $-1 -1 $-1 $224 $325 #
straight-curve $-1 -1 $-1 -2.4129999999999998 0 33.019999999999996 0 0 -25.399999999999999 I I #
ellipse-curve $-1 -1 $-1 0 0 33.019999999999996 0 0 -1 2.4129999999999998 0 0 1 I I #
point $-1 -1 $-1 2.4129999999999998 0 33.019999999999996 #
coedge $-1 -1 $-1 $319 $317 $144 $230 forward $219 $-1 #
edge $326 -1 $-1 $239 0 $233 0.95999999999999996 $144 $327 forward @7 unknown #
coedge $-1 -1 $-1 $328 $145 $150 $244 reversed $135 $-1 #
attrib_edge_convexity-kcp-attrib $-1 -1 $329 $-1 $146 1 #
vertex $-1 -1 $-1 $230 $330 #
straight-curve $-1 -1 $-1 7.8739999999999997 12.191999999999998 0 -25.399999999999999 0 0 I I #
coedge $-1 -1 $-1 $331 $147 $317 $332 forward $237 $-1 #
coedge $-1 -1 $-1 $147 $333 $149 $242 forward $237 $-1 #
loop $-1 -1 $-1 $-1 $236 $218 #
attrib_edge_convexity-kcp-attrib $-1 -1 $334 $-1 $148 1 #
vertex $-1 -1 $-1 $148 $335 #
straight-curve $-1 -1 $-1 -7.8739999999999997 -12.191999999999998 0 25.399999999999999 0 0 I I #
coedge $-1 -1 $-1 $336 $149 $337 $338 forward $151 $-1 #
edge $-1 -1 $-1 $339 0 $153 1.3038404810405295 $236 $340 forward @7 unknown #
coedge $-1 -1 $-1 $150 $336 $341 $342 forward $151 $-1 #
edge $343 -1 $-1 $344 1.3945862634452223e-016 $154 0.70206795132951605 $231 $345 forward @7 unknown #
face $346 -1 $-1 $347 $151 $9 $-1 $348 reversed single #
convexity-sys-attrib $-1 -1 $-1 $152 $95 #
point $-1 -1 $-1 -7.8739999999999997 -12.191999999999998 0 #
point $-1 -1 $-1 -7.8739999999999997 12.191999999999998 0 #
convexity-sys-attrib $-1 -1 $-1 $156 $97 #
vertex $-1 -1 $-1 $162 $349 #
ellipse-curve $-1 -1 $-1 0 -8.8123952579621795e-017 0 0 0 -1 2.4129999999999998 8.8123952579621795e-017 0 1 I I #
point $-1 -1 $-1 2.4129999999999998 0 33.019999999999996 #
model_id-kcp-attrib $-1 -1 $-1 $-1 $166 1 1021553595 1021553595 -2099445758 4 #
face $350 -1 $-1 $-1 $181 $25 $-1 $351 reversed single #
loop $-1 -1 $-1 $-1 $270 $166 #
plane-surface $-1 -1 $-1 0 12.191999999999998 0 0 -1 0 0 0 -1 forward_v I I I I #
coedge $-1 -1 $-1 $352 $268 $271 $353 forward $167 $-1 #
coedge $-1 -1 $-1 $274 $169 $170 $262 reversed $110 $-1 #
coedge $-1 -1 $-1 $268 $352 $169 $260 reversed $167 $-1 #
edge $-1 -1 $-1 $275 -16.509999999999998 $354 16.509999999999998 $259 $355 forward @7 unknown #
coedge $-1 -1 $-1 $171 $170 $352 $356 forward $73 $-1 #
edge $-1 -1 $-1 $266 -7.8739999999999997 $354 7.8739999999999997 $258 $357 forward @7 unknown #
coedge $-1 -1 $-1 $271 $270 $171 $264 reversed $255 $-1 #
edge $-1 -1 $-1 $358 -7.8739999999999997 $265 7.8739999999999997 $263 $359 forward @7 unknown #
vertex $-1 -1 $-1 $173 $360 #
vertex $-1 -1 $-1 $277 $361 #
straight-curve $-1 -1 $-1 7.8739999999999997 0 -16.509999999999998 0 -1 0 I I #
coedge $-1 -1 $-1 $257 $259 $174 $269 reversed $167 $-1 #
edge $-1 -1 $-1 $272 -12.191999999999998 $275 12.191999999999998 $268 $362 forward @7 unknown #
coedge $-1 -1 $-1 $263 $175 $180 $278 forward $255 $-1 #
coedge $-1 -1 $-1 $175 $263 $257 $353 reversed $255 $-1 #
vertex $-1 -1 $-1 $176 $363 #
straight-curve $-1 -1 $-1 0 12.191999999999998 16.509999999999998 -1 0 0 I I #
coedge $-1 -1 $-1 $177 $258 $179 $277 reversed $110 $-1 #
vertex $-1 -1 $-1 $269 $364 #
straight-curve $-1 -1 $-1 0 -12.191999999999998 16.509999999999998 1 0 0 I I #
edge $-1 -1 $-1 $182 -16.509999999999998 $266 16.509999999999998 $179 $365 forward @7 unknown #
edge $-1 -1 $-1 $183 -16.509999999999998 $265 16.509999999999998 $180 $366 forward @7 unknown #
point $-1 -1 $-1 7.8739999999999997 -12.191999999999998 16.509999999999998 #
point $-1 -1 $-1 7.8739999999999997 12.191999999999998 16.509999999999998 #
loop $-1 -1 $-1 $-1 $367 $185 #
plane-surface $-1 -1 $-1 -7.2146129453926351 5.2832000000000008 0.61061294539263533 1.5622721532024131e-029 1 -6.4901258702972501e-031 0 6.4901258702972501e-031 1 forward_v I I I I #
coedge $-1 -1 $-1 $188 $293 $189 $286 forward $118 $-1 #
edge $-1 -1 $-1 $287 -3.8474798665528338 $198 29.27006835187662 $188 $368 forward @7 unknown #
coedge $-1 -1 $-1 $190 $189 $369 $370 reversed $77 $-1 #
edge $-1 -1 $-1 $371 0 $287 17.475199999999997 $283 $372 forward @7 unknown #
vertex $-1 -1 $-1 $286 $373 #
straight-curve $-1 -1 $-1 -3.302 -12.191999999999997 16.509999999999998 1 0 0 I I #
coedge $-1 -1 $-1 $369 $367 $193 $290 forward $281 $-1 #
edge $374 -1 $-1 $294 -20.954999999999998 $291 12.065 $193 $375 forward @7 unknown #
vertex $-1 -1 $-1 $290 $376 #
straight-curve $-1 -1 $-1 -7.8739999999999997 5.2832000000000008 16.509999999999998 0 -1 0 I I #
coedge $-1 -1 $-1 $283 $195 $367 $377 reversed $118 $-1 #
vertex $-1 -1 $-1 $377 $378 #
straight-curve $-1 -1 $-1 -7.8739999999999997 5.2832000000000008 -16.509999999999998 0 -1 0 I I #
point $-1 -1 $-1 -7.8739999999999997 -12.191999999999997 -16.509999999999998 #
point $-1 -1 $-1 -7.8739999999999997 -12.191999999999997 16.509999999999998 #
loop $-1 -1 $-1 $-1 $379 $201 #
plane-surface $-1 -1 $-1 7.2146129453926351 -5.2832000000000017 0.61061294539263555 -1.1425075173502674e-015 1 -8.7885193642328769e-017 0 8.7885193642328769e-017 1 forward_v I I I I #
coedge $-1 -1 $-1 $204 $310 $205 $303 forward $126 $-1 #
edge $-1 -1 $-1 $304 -20.406253975767562 $214 12.711294242661893 $204 $380 forward @7 unknown #
coedge $-1 -1 $-1 $206 $205 $381 $382 reversed $81 $-1 #
edge $-1 -1 $-1 $383 0 $304 17.475199999999997 $300 $384 forward @7 unknown #
vertex $-1 -1 $-1 $303 $385 #
straight-curve $-1 -1 $-1 3.302 12.191999999999997 16.509999999999998 -1 0 0 I I #
coedge $-1 -1 $-1 $381 $379 $209 $307 forward $298 $-1 #
edge $386 -1 $-1 $311 -20.954999999999998 $308 12.065 $209 $387 forward @7 unknown #
vertex $-1 -1 $-1 $307 $388 #
straight-curve $-1 -1 $-1 7.8739999999999997 -5.2832000000000008 16.509999999999998 0 1 0 I I #
coedge $-1 -1 $-1 $300 $211 $379 $389 reversed $126 $-1 #
vertex $-1 -1 $-1 $389 $390 #
straight-curve $-1 -1 $-1 7.8739999999999997 -5.2832000000000008 -16.509999999999998 0 1 0 I I #
point $-1 -1 $-1 7.8739999999999997 12.191999999999997 -16.509999999999998 #
point $-1 -1 $-1 7.8739999999999997 12.191999999999997 16.509999999999998 #
model_id-kcp-attrib $-1 -1 $-1 $-1 $218 1 1021553595 1021553595 -2099445759 8 #
plane-surface $-1 -1 $-1 -7.8739999999999997 -12.191999999999998 0 0 -1 0 25.399999999999999 0 0 forward_v I I I I #
coedge $-1 -1 $-1 $229 $391 $235 $332 reversed $219 $-1 #
coedge $-1 -1 $-1 $221 $392 $222 $323 reversed $135 $-1 #
coedge $-1 -1 $-1 $393 $229 $221 $320 forward $219 $-1 #
edge $394 -1 $-1 $233 0 $395 1.3038404810405295 $221 $396 forward @7 unknown #
coedge $-1 -1 $-1 $397 $222 $398 $399 reversed $137 $-1 #
coedge $-1 -1 $-1 $222 $400 $393 $401 forward $137 $-1 #
edge $402 -1 $-1 $395 0 $403 0.52000000000000002 $222 $404 forward @7 unknown #
ellipse-curve $-1 -1 $-1 0 0 33.019999999999996 0 0 -1 -2.4129999999999998 0 0 1 I I #
point $-1 -1 $-1 -2.4129999999999998 0 33.019999999999996 #
attrib_edge_convexity-kcp-attrib $-1 -1 $405 $-1 $230 1 #
straight-curve $-1 -1 $-1 7.8739999999999997 -12.191999999999998 0 0 25.399999999999999 0 I I #
coedge $-1 -1 $-1 $392 $231 $406 $407 reversed $135 $-1 #
convexity-sys-attrib $-1 -1 $-1 $232 $146 #
point $-1 -1 $-1 7.8739999999999997 12.191999999999998 0 #
coedge $-1 -1 $-1 $408 $235 $409 $410 reversed $237 $-1 #
edge $-1 -1 $-1 $239 0 $411 0.70206795132951594 $235 $412 forward @7 unknown #
coedge $-1 -1 $-1 $236 $408 $413 $414 reversed $237 $-1 #
convexity-sys-attrib $-1 -1 $-1 $238 $148 #
point $-1 -1 $-1 7.8739999999999997 -12.191999999999998 0 #
coedge $-1 -1 $-1 $243 $241 $415 $416 forward $151 $-1 #
coedge $-1 -1 $-1 $413 $397 $241 $338 reversed $137 $-1 #
edge $-1 -1 $-1 $339 0 $417 0.68799999999999994 $337 $418 forward @7 unknown #
vertex $-1 -1 $-1 $414 $419 #
straight-curve $-1 -1 $-1 -5.3340000000000005 -12.191999999999998 33.019999999999996 -1.9480910716723205 0 -25.32518393174017 I I #
coedge $-1 -1 $-1 $420 $406 $243 $342 reversed $421 $-1 #
edge $-1 -1 $-1 $422 0 $344 0.27199999999999996 $243 $423 forward @7 unknown #
attrib_edge_convexity-kcp-attrib $-1 -1 $424 $-1 $244 1 #
vertex $-1 -1 $-1 $407 $425 #
straight-curve $-1 -1 $-1 -6.5063076923076926 12.191999999999998 17.779999999999998 -1.9480910716723203 0 -25.32518393174017 I I #
model_id-kcp-attrib $-1 -1 $-1 $-1 $245 1 1021553595 1021553595 -2099445759 9 #
face $426 -1 $-1 $427 $428 $9 $-1 $429 forward single #
plane-surface $-1 -1 $-1 -5.3340000000000005 12.191999999999998 33.019999999999996 0.9970544855015816 0 -0.076696498884737035 -1.9480910716723205 0 -25.32518393174017 forward_v I I I I #
point $-1 -1 $-1 -2.4129999999999998 0 0 #
model_id-kcp-attrib $-1 -1 $-1 $-1 $254 1 1021553595 1021553595 -2099445758 7 #
plane-surface $-1 -1 $-1 7.8739999999999997 0 0 -1 0 0 0 0 1 forward_v I I I I #
coedge $-1 -1 $-1 $259 $257 $261 $356 reversed $167 $-1 #
edge $-1 -1 $-1 $272 -16.509999999999998 $358 16.509999999999998 $271 $430 forward @7 unknown #
vertex $-1 -1 $-1 $356 $431 #
straight-curve $-1 -1 $-1 -7.8739999999999997 -12.191999999999998 0 0 0 -1 I I #
edge $-1 -1 $-1 $354 -12.191999999999998 $358 12.191999999999998 $352 $432 forward @7 unknown #
straight-curve $-1 -1 $-1 0 -12.191999999999998 -16.509999999999998 -1 0 0 I I #
vertex $-1 -1 $-1 $264 $433 #
straight-curve $-1 -1 $-1 0 12.191999999999998 -16.509999999999998 1 0 0 I I #
point $-1 -1 $-1 7.8739999999999997 12.191999999999998 -16.509999999999998 #
point $-1 -1 $-1 7.8739999999999997 -12.191999999999998 -16.509999999999998 #
straight-curve $-1 -1 $-1 -7.8739999999999997 0 16.509999999999998 0 -1 0 I I #
point $-1 -1 $-1 -7.8739999999999997 12.191999999999998 16.509999999999998 #
point $-1 -1 $-1 -7.8739999999999997 -12.191999999999998 16.509999999999998 #
straight-curve $-1 -1 $-1 7.8739999999999997 -12.191999999999998 0 0 0 -1 I I #
straight-curve $-1 -1 $-1 7.8739999999999997 12.191999999999998 0 0 0 -1 I I #
coedge $-1 -1 $-1 $289 $369 $293 $377 forward $281 $-1 #
straight-curve $-1 -1 $-1 -5.6290882352941178 -12.191999999999997 12.673852941176468 -0.076696498884737035 0 -0.9970544855015816 I I #
coedge $-1 -1 $-1 $367 $289 $285 $370 forward $281 $-1 #
edge $434 -1 $-1 $291 -4.5719999999999992 $371 -2.0320000000000005 $285 $435 forward @7 unknown #
vertex $-1 -1 $-1 $377 $436 #
straight-curve $-1 -1 $-1 -5.3340000000000005 5.283199999999999 16.509999999999998 0 -1 0 I I #
point $-1 -1 $-1 -5.3340000000000005 -12.191999999999998 16.509999999999998 #
convexity-sys-attrib $-1 -1 $-1 $-1 $290 #
straight-curve $-1 -1 $-1 -7.8739999999999997 5.2832000000000008 4.4449999999999985 0 0 1 I I #
point $-1 -1 $-1 -7.8739999999999997 5.2832000000000008 16.509999999999998 #
edge $437 -1 $-1 $371 -3.8474798665528338 $294 29.27006835187662 $293 $438 forward @7 unknown #
point $-1 -1 $-1 -7.8739999999999997 5.2832000000000008 -16.509999999999998 #
coedge $-1 -1 $-1 $306 $381 $310 $389 forward $298 $-1 #
straight-curve $-1 -1 $-1 6.8990882352941174 12.191999999999993 -3.83614705882353 0.076696498884737035 0 -0.9970544855015816 I I #
coedge $-1 -1 $-1 $379 $306 $302 $382 forward $298 $-1 #
edge $439 -1 $-1 $308 -4.5719999999999992 $383 -2.0320000000000005 $302 $440 forward @7 unknown #
vertex $-1 -1 $-1 $389 $441 #
straight-curve $-1 -1 $-1 5.3340000000000005 -5.283199999999999 16.509999999999998 0 1 0 I I #
point $-1 -1 $-1 5.3340000000000005 12.191999999999998 16.509999999999998 #
convexity-sys-attrib $-1 -1 $-1 $-1 $307 #
straight-curve $-1 -1 $-1 7.8739999999999997 -5.2832000000000008 4.4449999999999985 0 0 1 I I #
point $-1 -1 $-1 7.8739999999999997 -5.2832000000000008 16.509999999999998 #
edge $442 -1 $-1 $383 -20.406253975767562 $311 12.711294242661893 $310 $443 forward @7 unknown #
point $-1 -1 $-1 7.8739999999999997 -5.2832000000000008 -16.509999999999998 #
coedge $-1 -1 $-1 $317 $444 $445 $446 reversed $219 $-1 #
coedge $-1 -1 $-1 $318 $328 $447 $448 reversed $135 $-1 #
coedge $-1 -1 $-1 $444 $319 $322 $401 reversed $219 $-1 #
attrib_edge_convexity-kcp-attrib $-1 -1 $449 $-1 $320 1 #
vertex $-1 -1 $-1 $401 $450 #
straight-curve $-1 -1 $-1 7.8739999999999997 12.191999999999998 0 -1.9480910716723205 0 25.32518393174017 I I #
coedge $-1 -1 $-1 $337 $321 $451 $452 reversed $137 $-1 #
coedge $-1 -1 $-1 $447 $453 $321 $399 forward $454 $-1 #
edge $455 -1 $-1 $456 0 $403 0.27199999999999996 $321 $457 forward @7 unknown #
coedge $-1 -1 $-1 $322 $458 $459 $460 reversed $137 $-1 #
edge $-1 -1 $-1 $461 0 $395 0.68799999999999994 $322 $462 forward @7 unknown #
attrib_edge_convexity-kcp-attrib $-1 -1 $463 $-1 $323 1 #
vertex $-1 -1 $-1 $399 $464 #
straight-curve $-1 -1 $-1 5.3340000000000005 12.191999999999998 33.019999999999996 -25.399999999999999 0 0 I I #
convexity-sys-attrib $-1 -1 $-1 $326 $230 #
coedge $-1 -1 $-1 $341 $465 $328 $407 forward $421 $-1 #
edge $466 -1 $-1 $467 0 $344 0.053846153846153828 $328 $468 forward @7 unknown #
coedge $-1 -1 $-1 $333 $331 $469 $470 reversed $237 $-1 #
coedge $-1 -1 $-1 $445 $471 $331 $410 forward $472 $-1 #
edge $-1 -1 $-1 $473 0 $411 0.053846153846153828 $331 $474 forward @7 unknown #
vertex $-1 -1 $-1 $410 $475 #
straight-curve $-1 -1 $-1 7.8739999999999997 -12.191999999999998 0 -1.9480910716723199 0 25.32518393174017 I I #
coedge $-1 -1 $-1 $458 $337 $333 $414 forward $137 $-1 #
edge $-1 -1 $-1 $339 0 $476 0.52000000000000002 $413 $477 forward @7 unknown #
coedge $-1 -1 $-1 $451 $478 $336 $416 reversed $428 $-1 #
edge $479 -1 $-1 $417 0 $422 0.60177252971101391 $336 $480 forward @7 unknown #
vertex $-1 -1 $-1 $338 $481 #
straight-curve $-1 -1 $-1 -5.3340000000000005 -12.191999999999998 33.019999999999996 0 25.399999999999999 0 I I #
point $-1 -1 $-1 -5.3340000000000005 -12.191999999999998 33.019999999999996 #
coedge $-1 -1 $-1 $465 $341 $478 $482 forward $421 $-1 #
loop $-1 -1 $-1 $-1 $420 $483 #
vertex $-1 -1 $-1 $342 $484 #
straight-curve $-1 -1 $-1 -6.5063076923076926 5.283199999999999 17.779999999999998 0 25.399999999999999 0 I I #
convexity-sys-attrib $-1 -1 $-1 $343 $244 #
point $-1 -1 $-1 -6.5063076923076926 12.191999999999998 17.779999999999994 #
model_id-kcp-attrib $-1 -1 $-1 $-1 $347 1 1021553595 1021553595 -2099445759 10 #
face $485 -1 $-1 $483 $454 $9 $-1 $486 forward single #
loop $-1 -1 $-1 $-1 $451 $347 #
plane-surface $-1 -1 $-1 -5.3340000000000005 5.283199999999999 33.019999999999996 0 -1 0 -25.399999999999999 0 0 forward_v I I I I #
straight-curve $-1 -1 $-1 -7.8739999999999997 12.191999999999998 0 0 0 -1 I I #
point $-1 -1 $-1 -7.8739999999999997 -12.191999999999998 -16.509999999999998 #
straight-curve $-1 -1 $-1 -7.8739999999999997 0 -16.509999999999998 0 1 0 I I #
point $-1 -1 $-1 -7.8739999999999997 12.191999999999998 -16.509999999999998 #
convexity-sys-attrib $-1 -1 $-1 $-1 $370 #
straight-curve $-1 -1 $-1 -3.302 5.2832000000000008 16.509999999999998 1 0 0 I I #
point $-1 -1 $-1 -5.3340000000000005 5.283199999999999 16.509999999999998 #
convexity-sys-attrib $-1 -1 $-1 $-1 $377 #
straight-curve $-1 -1 $-1 -5.6290882352941178 5.2832000000000008 12.673852941176468 -0.076696498884737035 0 -0.9970544855015816 I I #
convexity-sys-attrib $-1 -1 $-1 $-1 $382 #
straight-curve $-1 -1 $-1 3.302 -5.2832000000000008 16.509999999999998 -1 0 0 I I #
point $-1 -1 $-1 5.3340000000000005 -5.283199999999999 16.509999999999998 #
convexity-sys-attrib $-1 -1 $-1 $-1 $389 #
straight-curve $-1 -1 $-1 6.8990882352941174 -5.2832000000000034 -3.83614705882353 0.076696498884737035 0 -0.9970544855015816 I I #
coedge $-1 -1 $-1 $391 $393 $487 $488 forward $219 $-1 #
coedge $-1 -1 $-1 $489 $409 $391 $446 forward $472 $-1 #
edge $-1 -1 $-1 $411 0 $490 0.27199999999999996 $391 $491 forward @7 unknown #
coedge $-1 -1 $-1 $492 $398 $392 $448 forward $454 $-1 #
edge $493 -1 $-1 $403 0 $467 0.59999999999999998 $392 $494 forward @7 unknown #
convexity-sys-attrib $-1 -1 $-1 $394 $320 #
point $-1 -1 $-1 5.3340000000000005 12.191999999999998 33.019999999999996 #
coedge $-1 -1 $-1 $495 $415 $397 $452 forward $428 $-1 #
edge $496 -1 $-1 $417 0 $456 0.099999999999999978 $397 $497 forward @7 unknown #
coedge $-1 -1 $-1 $398 $492 $495 $498 reversed $454 $-1 #
loop $-1 -1 $-1 $-1 $447 $427 #
attrib_edge_convexity-kcp-attrib $-1 -1 $499 $-1 $399 1 #
vertex $-1 -1 $-1 $452 $500 #
straight-curve $-1 -1 $-1 -7.8739999999999997 5.283199999999999 33.019999999999996 0 25.399999999999999 0 I I #
coedge $-1 -1 $-1 $400 $413 $501 $502 reversed $137 $-1 #
coedge $-1 -1 $-1 $503 $487 $400 $460 forward $504 $-1 #
edge $505 -1 $-1 $461 0 $506 0.099999999999999978 $400 $507 forward @7 unknown #
vertex $-1 -1 $-1 $401 $508 #
straight-curve $-1 -1 $-1 5.3340000000000005 -5.283199999999999 33.019999999999996 0 25.399999999999999 0 I I #
convexity-sys-attrib $-1 -1 $-1 $402 $323 #
point $-1 -1 $-1 -7.8739999999999997 12.191999999999998 33.019999999999996 #
coedge $-1 -1 $-1 $406 $420 $492 $509 forward $421 $-1 #
attrib_edge_convexity-kcp-attrib $-1 -1 $510 $-1 $407 1 #
vertex $-1 -1 $-1 $448 $511 #
straight-curve $-1 -1 $-1 -7.8739999999999997 12.191999999999998 17.779999999999998 25.399999999999999 0 0 I I #
coedge $-1 -1 $-1 $512 $501 $408 $470 forward $513 $-1 #
edge $-1 -1 $-1 $476 0 $473 0.59999999999999998 $408 $514 forward @7 unknown #
coedge $-1 -1 $-1 $409 $489 $512 $515 forward $472 $-1 #
loop $-1 -1 $-1 $-1 $489 $516 #
vertex $-1 -1 $-1 $470 $517 #
straight-curve $-1 -1 $-1 7.8739999999999997 -12.191999999999998 17.779999999999998 -25.399999999999999 0 0 I I #
point $-1 -1 $-1 6.5063076923076926 -12.191999999999998 17.779999999999994 #
vertex $-1 -1 $-1 $502 $518 #
straight-curve $-1 -1 $-1 -5.3340000000000005 -12.191999999999998 33.019999999999996 25.399999999999999 0 0 I I #
coedge $-1 -1 $-1 $415 $495 $420 $482 reversed $428 $-1 #
attrib_edge_convexity-kcp-attrib $-1 -1 $519 $-1 $416 2 #
straight-curve $-1 -1 $-1 -5.3340000000000005 5.283199999999999 33.019999999999996 -1.948091071672321 0 -25.32518393174017 I I #
point $-1 -1 $-1 -5.3340000000000005 5.283199999999999 33.019999999999996 #
edge $520 -1 $-1 $422 0 $521 0.053846153846153828 $420 $522 forward @7 unknown #
face $523 -1 $-1 $516 $421 $9 $-1 $524 forward single #
point $-1 -1 $-1 -6.5063076923076926 5.283199999999999 17.779999999999994 #
model_id-kcp-attrib $-1 -1 $-1 $-1 $427 1 1021553595 1021553595 -2099445759 11 #
plane-surface $-1 -1 $-1 -7.8739999999999997 5.283199999999999 33.019999999999996 -1 0 0 0 25.399999999999999 0 forward_v I I I I #
coedge $-1 -1 $-1 $459 $525 $444 $488 reversed $504 $-1 #
edge $526 -1 $-1 $461 0 $490 0.60177252971101391 $444 $527 forward @7 unknown #
coedge $-1 -1 $-1 $471 $445 $525 $528 forward $472 $-1 #
vertex $-1 -1 $-1 $446 $529 #
straight-curve $-1 -1 $-1 6.5063076923076926 -12.191999999999998 17.779999999999998 0 25.399999999999999 0 I I #
coedge $-1 -1 $-1 $453 $447 $465 $509 reversed $454 $-1 #
attrib_edge_convexity-kcp-attrib $-1 -1 $530 $-1 $448 1 #
straight-curve $-1 -1 $-1 -7.8739999999999997 12.191999999999998 33.019999999999996 0 0 -25.399999999999999 I I #
coedge $-1 -1 $-1 $478 $451 $453 $498 forward $428 $-1 #
attrib_edge_convexity-kcp-attrib $-1 -1 $531 $-1 $452 1 #
straight-curve $-1 -1 $-1 -5.3340000000000005 5.283199999999999 33.019999999999996 -25.399999999999999 0 0 I I #
edge $532 -1 $-1 $456 0 $521 0.60000000000000009 $495 $533 forward @7 unknown #
convexity-sys-attrib $-1 -1 $-1 $455 $399 #
point $-1 -1 $-1 -7.8739999999999997 5.283199999999999 33.019999999999996 #
coedge $-1 -1 $-1 $469 $534 $458 $502 forward $513 $-1 #
edge $-1 -1 $-1 $506 0 $476 0.27199999999999996 $458 $535 forward @7 unknown #
coedge $-1 -1 $-1 $525 $459 $534 $536 forward $504 $-1 #
loop $-1 -1 $-1 $-1 $459 $537 #
attrib_edge_convexity-kcp-attrib $-1 -1 $538 $-1 $460 1 #
vertex $-1 -1 $-1 $460 $539 #
straight-curve $-1 -1 $-1 5.3340000000000005 -5.283199999999999 33.019999999999996 25.399999999999999 0 0 I I #
point $-1 -1 $-1 5.3340000000000005 -5.283199999999999 33.019999999999996 #
edge $540 -1 $-1 $521 0 $467 0.27199999999999996 $465 $541 forward @7 unknown #
convexity-sys-attrib $-1 -1 $-1 $466 $407 #
point $-1 -1 $-1 -7.8739999999999997 12.191999999999998 17.779999999999998 #
coedge $-1 -1 $-1 $534 $469 $471 $515 reversed $513 $-1 #
loop $-1 -1 $-1 $-1 $469 $542 #
straight-curve $-1 -1 $-1 7.8739999999999997 -12.191999999999998 33.019999999999996 0 0 -25.399999999999999 I I #
edge $-1 -1 $-1 $543 0 $473 0.27199999999999996 $471 $544 forward @7 unknown #
face $545 -1 $-1 $537 $472 $9 $-1 $546 forward single #
point $-1 -1 $-1 7.8739999999999997 -12.191999999999998 17.779999999999998 #
point $-1 -1 $-1 7.8739999999999997 -12.191999999999998 33.019999999999996 #
convexity-sys-attrib $-1 -1 $-1 $479 $416 #
attrib_edge_convexity-kcp-attrib $-1 -1 $547 $-1 $482 1 #
vertex $-1 -1 $-1 $509 $548 #
straight-curve $-1 -1 $-1 -6.5063076923076926 5.283199999999999 17.779999999999998 -25.399999999999999 0 0 I I #
model_id-kcp-attrib $-1 -1 $-1 $-1 $483 1 1021553595 1021553595 -2099445759 12 #
plane-surface $-1 -1 $-1 0 0 17.779999999999998 0 0 -1 -25.399999999999999 0 0 forward_v I I I I #
coedge $-1 -1 $-1 $487 $503 $489 $528 reversed $504 $-1 #
attrib_edge_convexity-kcp-attrib $-1 -1 $549 $-1 $488 2 #
straight-curve $-1 -1 $-1 5.3340000000000005 -5.283199999999999 33.019999999999996 1.948091071672321 0 -25.32518393174017 I I #
edge $550 -1 $-1 $490 0 $543 0.053846153846153828 $489 $551 forward @7 unknown #
point $-1 -1 $-1 6.5063076923076926 -5.283199999999999 17.779999999999994 #
convexity-sys-attrib $-1 -1 $-1 $493 $448 #
convexity-sys-attrib $-1 -1 $-1 $496 $452 #
attrib_edge_convexity-kcp-attrib $-1 -1 $552 $-1 $498 1 #
straight-curve $-1 -1 $-1 -7.8739999999999997 5.283199999999999 33.019999999999996 0 0 -25.399999999999999 I I #
coedge $-1 -1 $-1 $501 $512 $503 $536 reversed $513 $-1 #
straight-curve $-1 -1 $-1 7.8739999999999997 -5.283199999999999 33.019999999999996 0 -25.399999999999999 0 I I #
edge $553 -1 $-1 $506 0 $543 0.60000000000000009 $534 $554 forward @7 unknown #
face $555 -1 $-1 $542 $504 $9 $-1 $556 forward single #
convexity-sys-attrib $-1 -1 $-1 $505 $460 #
point $-1 -1 $-1 7.8739999999999997 -5.283199999999999 33.019999999999996 #
attrib_edge_convexity-kcp-attrib $-1 -1 $557 $-1 $509 1 #
straight-curve $-1 -1 $-1 -7.8739999999999997 5.283199999999999 17.779999999999998 0 25.399999999999999 0 I I #
face $558 -1 $-1 $-1 $513 $9 $-1 $559 forward single #
vertex $-1 -1 $-1 $515 $560 #
straight-curve $-1 -1 $-1 7.8739999999999997 -5.283199999999999 17.779999999999998 0 -25.399999999999999 0 I I #
model_id-kcp-attrib $-1 -1 $-1 $-1 $516 1 1021553595 1021553595 -2099445759 13 #
plane-surface $-1 -1 $-1 0 0 17.779999999999998 0 0 -1 -25.399999999999999 0 0 forward_v I I I I #
convexity-sys-attrib $-1 -1 $-1 $520 $482 #
point $-1 -1 $-1 -7.8739999999999997 5.283199999999999 17.779999999999994 #
convexity-sys-attrib $-1 -1 $-1 $526 $488 #
attrib_edge_convexity-kcp-attrib $-1 -1 $561 $-1 $528 1 #
straight-curve $-1 -1 $-1 6.5063076923076926 -5.283199999999999 17.779999999999998 25.399999999999999 0 0 I I #
convexity-sys-attrib $-1 -1 $-1 $532 $498 #
attrib_edge_convexity-kcp-attrib $-1 -1 $562 $-1 $536 1 #
straight-curve $-1 -1 $-1 7.8739999999999997 -5.283199999999999 33.019999999999996 0 0 -25.399999999999999 I I #
model_id-kcp-attrib $-1 -1 $-1 $-1 $537 1 1021553595 1021553595 -2099445759 14 #
plane-surface $-1 -1 $-1 5.3340000000000005 -5.283199999999999 33.019999999999996 0 1 0 25.399999999999999 0 0 forward_v I I I I #
convexity-sys-attrib $-1 -1 $-1 $540 $509 #
model_id-kcp-attrib $-1 -1 $-1 $-1 $542 1 1021553595 1021553595 -2099445759 15 #
plane-surface $-1 -1 $-1 7.8739999999999997 -5.283199999999999 33.019999999999996 1 0 0 0 -25.399999999999999 0 forward_v I I I I #
point $-1 -1 $-1 7.8739999999999997 -5.283199999999999 17.779999999999994 #
convexity-sys-attrib $-1 -1 $-1 $550 $528 #
convexity-sys-attrib $-1 -1 $-1 $553 $536 #
End-of-ACIS-data 