600 0 1 0           
92 GICL Pro/E ACIS Translator - Source: f:/data5/repository/PTC/V18/cabdia18/mnl-srlf.prt - 6 0 13 ACIS 6.0.3 NT 24 Thu Apr 04 13:40:15 2002 
1 9.9999999999999995e-007 1e-010 
body $-1 $1 $-1 $2 #
lump $-1 $-1 $3 $0 #
transform $-1 1 0 0 0 1 0 0 0 1 0 0 0 25.399999999999999 no_rotate no_reflect no_shear #
shell $-1 $-1 $-1 $4 $-1 $1 #
face $-1 $5 $6 $3 $-1 $7 reversed single #
face $-1 $8 $9 $3 $-1 $10 reversed single #
loop $-1 $11 $12 $4 #
plane-surface $-1 0 0 0 0 0 1 1 0 0 forward_v I I I I #
face $-1 $13 $14 $3 $-1 $15 reversed single #
loop $-1 $-1 $16 $5 #
cone-surface $-1 0 0 1.2999999999999998 0 0 -1 -0.095000000000000001 0 0 1 I I 0 1 0.095000000000000001 forward I I I I #
loop $-1 $-1 $17 $4 #
coedge $-1 $18 $18 $19 $20 reversed $6 $-1 #
face $-1 $21 $22 $3 $-1 $23 forward single #
loop $-1 $-1 $24 $8 #
cone-surface $-1 0 0 1.2999999999999998 0 0 -1 -0.095000000000000001 0 0 1 I I 0 1 0.095000000000000001 forward I I I I #
coedge $-1 $19 $25 $26 $27 forward $9 $-1 #
coedge $-1 $28 $29 $30 $31 forward $11 $-1 #
coedge $-1 $12 $12 $32 $33 reversed $6 $-1 #
coedge $-1 $34 $16 $12 $20 forward $9 $-1 #
edge $-1 $35 0 $36 3.1415926535897931 $12 $37 forward 7 unknown #
face $-1 $38 $39 $3 $-1 $40 forward single #
loop $-1 $41 $42 $13 #
plane-surface $-1 0 0 1.2999999999999998 0 0 1 1 0 0 forward_v I I I I #
coedge $-1 $32 $43 $34 $44 forward $14 $-1 #
coedge $-1 $16 $34 $42 $45 reversed $9 $-1 #
coedge $-1 $43 $32 $16 $27 reversed $14 $-1 #
edge $-1 $46 0 $35 1.2999999999999998 $26 $47 forward 7 unknown #
coedge $-1 $48 $17 $49 $50 reversed $11 $-1 #
coedge $-1 $17 $48 $51 $52 reversed $11 $-1 #
coedge $-1 $53 $54 $17 $31 reversed $55 $-1 #
edge $-1 $56 0 $57 0.95999999999999996 $17 $58 forward 7 unknown #
coedge $-1 $26 $24 $18 $33 forward $14 $-1 #
edge $-1 $36 0 $35 3.1415926535897931 $18 $59 forward 7 unknown #
coedge $-1 $25 $19 $24 $44 reversed $9 $-1 #
vertex $-1 $33 $60 #
vertex $-1 $33 $61 #
ellipse-curve $-1 0 -3.4694469519536142e-018 0 0 0 -1 0.095000000000000001 3.4694469519536142e-018 0 1 I I #
face $-1 $62 $63 $3 $-1 $64 reversed single #
loop $-1 $-1 $65 $21 #
plane-surface $-1 0.31 0.47999999999999998 0 0 1 0 -1 0 0 forward_v I I I I #
loop $-1 $-1 $66 $13 #
coedge $-1 $67 $67 $25 $45 forward $22 $-1 #
coedge $-1 $24 $26 $67 $68 reversed $14 $-1 #
edge $-1 $69 0 $36 1.2999999999999998 $24 $70 forward 7 unknown #
edge $-1 $46 0 $69 3.1415926535897931 $42 $71 forward 7 unknown #
vertex $-1 $68 $72 #
straight-curve $-1 0.095000000000000001 1.1633760361312583e-017 1.2999999999999998 0 0 -1 I I #
coedge $-1 $29 $28 $73 $74 reversed $11 $-1 #
coedge $-1 $75 $65 $28 $50 forward $39 $-1 #
edge $-1 $76 0 $57 0.62 $28 $77 forward 7 unknown #
coedge $-1 $78 $79 $29 $52 forward $80 $-1 #
edge $-1 $56 0 $81 0.62 $29 $82 forward 7 unknown #
coedge $-1 $83 $30 $79 $84 reversed $55 $-1 #
coedge $-1 $30 $85 $75 $86 forward $55 $-1 #
loop $-1 $-1 $54 $87 #
vertex $-1 $52 $88 #
vertex $-1 $50 $89 #
straight-curve $-1 -0.31 -0.47999999999999998 0 0 1 0 I I #
ellipse-curve $-1 0 6.9388939039072284e-018 0 0 0 -1 -0.095000000000000001 -6.9388939039072284e-018 0 1 I I #
point $-1 0.095000000000000001 0 0 #
point $-1 -0.095000000000000001 0 0 #
face $-1 $87 $80 $3 $-1 $90 forward single #
loop $-1 $-1 $91 $38 #
plane-surface $-1 0.31 0.47999999999999998 0 -0.9970544855015816 0 -0.076696498884737035 -0.076696498884737035 0 0.9970544855015816 forward_v I I I I #
coedge $-1 $49 $92 $93 $94 reversed $39 $-1 #
coedge $-1 $95 $96 $92 $97 forward $41 $-1 #
coedge $-1 $42 $42 $43 $68 forward $22 $-1 #
edge $-1 $69 0 $46 3.1415926535897931 $67 $98 forward 7 unknown #
vertex $-1 $68 $99 #
straight-curve $-1 -0.095000000000000001 0 1.2999999999999998 0 0 -1 I I #
ellipse-curve $-1 0 0 1.2999999999999998 0 0 -1 0.095000000000000001 0 0 1 I I #
point $-1 0.095000000000000001 0 1.2999999999999998 #
coedge $-1 $93 $91 $48 $74 forward $63 $-1 #
edge $-1 $81 0 $76 0.95999999999999996 $48 $100 forward 7 unknown #
coedge $-1 $101 $49 $54 $86 reversed $39 $-1 #
vertex $-1 $74 $102 #
straight-curve $-1 0.31 0.47999999999999998 0 -1 0 0 I I #
coedge $-1 $103 $51 $91 $104 forward $80 $-1 #
coedge $-1 $51 $105 $53 $84 forward $80 $-1 #
loop $-1 $-1 $79 $62 #
vertex $-1 $52 $106 #
straight-curve $-1 -0.31 -0.47999999999999998 0 1 0 0 I I #
coedge $-1 $107 $53 $108 $109 forward $55 $-1 #
edge $-1 $110 0 $56 1.3038404810405295 $79 $111 forward 7 unknown #
coedge $-1 $54 $107 $112 $113 forward $55 $-1 #
edge $-1 $114 1.1069528466096452e-016 $57 0.70206795132951605 $75 $115 forward 7 unknown #
face $-1 $116 $55 $3 $-1 $117 reversed single #
point $-1 -0.31 -0.47999999999999998 0 #
point $-1 -0.31 0.47999999999999998 0 #
plane-surface $-1 -0.31 -0.47999999999999998 0 0 -1 0 1 0 0 forward_v I I I I #
coedge $-1 $73 $118 $78 $104 reversed $63 $-1 #
coedge $-1 $65 $119 $66 $97 reversed $39 $-1 #
coedge $-1 $120 $73 $65 $94 forward $63 $-1 #
edge $-1 $76 0 $121 1.3038404810405295 $65 $122 forward 7 unknown #
coedge $-1 $123 $66 $124 $125 reversed $41 $-1 #
coedge $-1 $66 $126 $120 $127 forward $41 $-1 #
edge $-1 $121 0 $128 0.52000000000000002 $66 $129 forward 7 unknown #
ellipse-curve $-1 0 0 1.2999999999999998 0 0 -1 -0.095000000000000001 0 0 1 I I #
point $-1 -0.095000000000000001 0 1.2999999999999998 #
straight-curve $-1 0.31 -0.47999999999999998 0 0 1 0 I I #
coedge $-1 $119 $75 $130 $131 reversed $39 $-1 #
point $-1 0.31 0.47999999999999998 0 #
coedge $-1 $132 $78 $133 $134 reversed $80 $-1 #
edge $-1 $81 0 $135 0.70206795132951594 $78 $136 forward 7 unknown #
coedge $-1 $79 $132 $137 $138 reversed $80 $-1 #
point $-1 0.31 -0.47999999999999998 0 #
coedge $-1 $85 $83 $139 $140 forward $55 $-1 #
coedge $-1 $137 $123 $83 $109 reversed $41 $-1 #
edge $-1 $110 0 $141 0.68799999999999994 $108 $142 forward 7 unknown #
vertex $-1 $138 $143 #
straight-curve $-1 -0.21000000000000002 -0.47999999999999998 1.2999999999999998 -0.076696498884737035 0 -0.9970544855015816 I I #
coedge $-1 $144 $130 $85 $113 reversed $145 $-1 #
edge $-1 $146 0 $114 0.27200000000000002 $85 $147 forward 7 unknown #
vertex $-1 $131 $148 #
straight-curve $-1 -0.25615384615384618 0.47999999999999998 0.69999999999999996 -0.076696498884737022 0 -0.9970544855015816 I I #
face $-1 $149 $150 $3 $-1 $151 forward single #
plane-surface $-1 -0.21000000000000002 0.47999999999999998 1.2999999999999998 0.9970544855015816 0 -0.076696498884737035 -0.076696498884737035 0 -0.9970544855015816 forward_v I I I I #
coedge $-1 $91 $152 $153 $154 reversed $63 $-1 #
coedge $-1 $92 $101 $155 $156 reversed $39 $-1 #
coedge $-1 $152 $93 $96 $127 reversed $63 $-1 #
vertex $-1 $127 $157 #
straight-curve $-1 0.31 0.47999999999999998 0 -0.076696498884737035 0 0.9970544855015816 I I #
coedge $-1 $108 $95 $158 $159 reversed $41 $-1 #
coedge $-1 $155 $160 $95 $125 forward $161 $-1 #
edge $-1 $162 0 $128 0.27200000000000002 $95 $163 forward 7 unknown #
coedge $-1 $96 $164 $165 $166 reversed $41 $-1 #
edge $-1 $167 0 $121 0.68799999999999994 $96 $168 forward 7 unknown #
vertex $-1 $125 $169 #
straight-curve $-1 0.21000000000000002 0.47999999999999998 1.2999999999999998 -1 0 0 I I #
coedge $-1 $112 $170 $101 $131 forward $145 $-1 #
edge $-1 $171 0 $114 0.053846153846153821 $101 $172 forward 7 unknown #
coedge $-1 $105 $103 $173 $174 reversed $80 $-1 #
coedge $-1 $153 $175 $103 $134 forward $176 $-1 #
edge $-1 $177 0 $135 0.053846153846153821 $103 $178 forward 7 unknown #
vertex $-1 $134 $179 #
straight-curve $-1 0.31 -0.47999999999999998 0 -0.076696498884737008 0 0.9970544855015816 I I #
coedge $-1 $164 $108 $105 $138 forward $41 $-1 #
edge $-1 $110 0 $180 0.52000000000000002 $137 $181 forward 7 unknown #
coedge $-1 $158 $182 $107 $140 reversed $150 $-1 #
edge $-1 $141 0 $146 0.60177252971101369 $107 $183 forward 7 unknown #
vertex $-1 $109 $184 #
straight-curve $-1 -0.21000000000000002 -0.47999999999999998 1.2999999999999998 0 1 0 I I #
point $-1 -0.21000000000000002 -0.47999999999999998 1.2999999999999998 #
coedge $-1 $170 $112 $182 $185 forward $145 $-1 #
loop $-1 $-1 $144 $186 #
vertex $-1 $113 $187 #
straight-curve $-1 -0.25615384615384618 0.20799999999999996 0.69999999999999996 0 1 0 I I #
point $-1 -0.25615384615384618 0.47999999999999998 0.69999999999999984 #
face $-1 $186 $161 $3 $-1 $188 forward single #
loop $-1 $-1 $158 $116 #
plane-surface $-1 -0.21000000000000002 0.20799999999999996 1.2999999999999998 0 -1 0 -1 0 0 forward_v I I I I #
coedge $-1 $118 $120 $189 $190 forward $63 $-1 #
coedge $-1 $191 $133 $118 $154 forward $176 $-1 #
edge $-1 $135 0 $192 0.27200000000000002 $118 $193 forward 7 unknown #
coedge $-1 $194 $124 $119 $156 forward $161 $-1 #
edge $-1 $128 0 $171 0.59999999999999987 $119 $195 forward 7 unknown #
point $-1 0.21000000000000002 0.47999999999999998 1.2999999999999998 #
coedge $-1 $196 $139 $123 $159 forward $150 $-1 #
edge $-1 $141 0 $162 0.099999999999999978 $123 $197 forward 7 unknown #
coedge $-1 $124 $194 $196 $198 reversed $161 $-1 #
loop $-1 $-1 $155 $149 #
vertex $-1 $159 $199 #
straight-curve $-1 -0.31 0.20799999999999996 1.2999999999999998 0 1 0 I I #
coedge $-1 $126 $137 $200 $201 reversed $41 $-1 #
coedge $-1 $202 $189 $126 $166 forward $203 $-1 #
edge $-1 $167 0 $204 0.099999999999999978 $126 $205 forward 7 unknown #
vertex $-1 $127 $206 #
straight-curve $-1 0.21000000000000002 -0.20799999999999996 1.2999999999999998 0 1 0 I I #
point $-1 -0.31 0.47999999999999998 1.2999999999999998 #
coedge $-1 $130 $144 $194 $207 forward $145 $-1 #
vertex $-1 $156 $208 #
straight-curve $-1 -0.31 0.47999999999999998 0.69999999999999996 1 0 0 I I #
coedge $-1 $209 $200 $132 $174 forward $210 $-1 #
edge $-1 $180 0 $177 0.59999999999999987 $132 $211 forward 7 unknown #
coedge $-1 $133 $191 $209 $212 forward $176 $-1 #
loop $-1 $-1 $191 $213 #
vertex $-1 $174 $214 #
straight-curve $-1 0.31 -0.47999999999999998 0.69999999999999996 -1 0 0 I I #
point $-1 0.25615384615384618 -0.47999999999999998 0.69999999999999984 #
vertex $-1 $201 $215 #
straight-curve $-1 -0.21000000000000002 -0.47999999999999998 1.2999999999999998 1 0 0 I I #
coedge $-1 $139 $196 $144 $185 reversed $150 $-1 #
straight-curve $-1 -0.21000000000000002 0.20799999999999996 1.2999999999999998 -0.076696498884737049 0 -0.9970544855015816 I I #
point $-1 -0.21000000000000002 0.20799999999999996 1.2999999999999998 #
edge $-1 $146 0 $216 0.053846153846153821 $144 $217 forward 7 unknown #
face $-1 $213 $145 $3 $-1 $218 forward single #
point $-1 -0.25615384615384618 0.20799999999999996 0.69999999999999984 #
plane-surface $-1 -0.31 0.20799999999999996 1.2999999999999998 -1 0 0 0 1 0 forward_v I I I I #
coedge $-1 $165 $219 $152 $190 reversed $203 $-1 #
edge $-1 $167 0 $192 0.60177252971101369 $152 $220 forward 7 unknown #
coedge $-1 $175 $153 $219 $221 forward $176 $-1 #
vertex $-1 $154 $222 #
straight-curve $-1 0.25615384615384618 -0.47999999999999998 0.69999999999999996 0 1 0 I I #
coedge $-1 $160 $155 $170 $207 reversed $161 $-1 #
straight-curve $-1 -0.31 0.47999999999999998 1.2999999999999998 0 0 -1 I I #
coedge $-1 $182 $158 $160 $198 forward $150 $-1 #
straight-curve $-1 -0.21000000000000002 0.20799999999999996 1.2999999999999998 -1 0 0 I I #
edge $-1 $162 0 $216 0.59999999999999998 $196 $223 forward 7 unknown #
point $-1 -0.31 0.20799999999999996 1.2999999999999998 #
coedge $-1 $173 $224 $164 $201 forward $210 $-1 #
edge $-1 $204 0 $180 0.27200000000000002 $164 $225 forward 7 unknown #
coedge $-1 $219 $165 $224 $226 forward $203 $-1 #
loop $-1 $-1 $165 $227 #
vertex $-1 $166 $228 #
straight-curve $-1 0.21000000000000002 -0.20799999999999996 1.2999999999999998 1 0 0 I I #
point $-1 0.21000000000000002 -0.20799999999999996 1.2999999999999998 #
edge $-1 $216 0 $171 0.27200000000000002 $170 $229 forward 7 unknown #
point $-1 -0.31 0.47999999999999998 0.69999999999999996 #
coedge $-1 $224 $173 $175 $212 reversed $210 $-1 #
loop $-1 $-1 $173 $230 #
straight-curve $-1 0.31 -0.47999999999999998 1.2999999999999998 0 0 -1 I I #
edge $-1 $231 0 $177 0.27200000000000002 $175 $232 forward 7 unknown #
face $-1 $227 $176 $3 $-1 $233 forward single #
point $-1 0.31 -0.47999999999999998 0.69999999999999996 #
point $-1 0.31 -0.47999999999999998 1.2999999999999998 #
vertex $-1 $207 $234 #
straight-curve $-1 -0.25615384615384618 0.20799999999999996 0.69999999999999996 -1 0 0 I I #
plane-surface $-1 0 0 0.69999999999999996 0 0 -1 -1 0 0 forward_v I I I I #
coedge $-1 $189 $202 $191 $221 reversed $203 $-1 #
straight-curve $-1 0.21000000000000002 -0.20799999999999996 1.2999999999999998 0.076696498884737049 0 -0.9970544855015816 I I #
edge $-1 $192 0 $231 0.053846153846153821 $191 $235 forward 7 unknown #
point $-1 0.25615384615384618 -0.20799999999999996 0.69999999999999984 #
straight-curve $-1 -0.31 0.20799999999999996 1.2999999999999998 0 0 -1 I I #
coedge $-1 $200 $209 $202 $226 reversed $210 $-1 #
straight-curve $-1 0.31 -0.20799999999999996 1.2999999999999998 0 -1 0 I I #
edge $-1 $204 0 $231 0.59999999999999998 $224 $236 forward 7 unknown #
face $-1 $230 $203 $3 $-1 $237 forward single #
point $-1 0.31 -0.20799999999999996 1.2999999999999998 #
straight-curve $-1 -0.31 0.20799999999999996 0.69999999999999996 0 1 0 I I #
face $-1 $-1 $210 $3 $-1 $238 forward single #
vertex $-1 $212 $239 #
straight-curve $-1 0.31 -0.20799999999999996 0.69999999999999996 0 -1 0 I I #
plane-surface $-1 0 0 0.69999999999999996 0 0 -1 -1 0 0 forward_v I I I I #
point $-1 -0.31 0.20799999999999996 0.69999999999999984 #
straight-curve $-1 0.25615384615384618 -0.20799999999999996 0.69999999999999996 1 0 0 I I #
straight-curve $-1 0.31 -0.20799999999999996 1.2999999999999998 0 0 -1 I I #
plane-surface $-1 0.21000000000000002 -0.20799999999999996 1.2999999999999998 0 1 0 1 0 0 forward_v I I I I #
plane-surface $-1 0.31 -0.20799999999999996 1.2999999999999998 1 0 0 0 -1 0 forward_v I I I I #
point $-1 0.31 -0.20799999999999996 0.69999999999999984 #
End-of-ACIS-data 