600 0 1 0           
94 GICL Pro/E ACIS Translator - Source: f:/data5/repository/PTC/V18/cabdia18/mnl-male.prt.2 - 6 0 13 ACIS 6.0.3 NT 24 Thu Apr 04 13:40:14 2002 
1 9.9999999999999995e-007 1e-010 
body $-1 $1 $-1 $2 #
lump $-1 $-1 $3 $0 #
transform $-1 1 0 0 0 1 0 0 0 1 0 0 0 25.399999999999999 no_rotate no_reflect no_shear #
shell $-1 $-1 $-1 $4 $-1 $1 #
face $-1 $5 $6 $3 $-1 $7 reversed single #
face $-1 $8 $9 $3 $-1 $10 reversed single #
loop $-1 $-1 $11 $4 #
plane-surface $-1 0 0 0 0 0 1 -1 0 0 forward_v I I I I #
face $-1 $12 $13 $3 $-1 $14 reversed single #
loop $-1 $-1 $15 $5 #
plane-surface $-1 0.22999999999999998 0.21499999999999997 0 0 -1 0 -1 0 0 forward_v I I I I #
coedge $-1 $16 $17 $18 $19 reversed $6 $-1 #
face $-1 $20 $21 $3 $-1 $22 reversed single #
loop $-1 $-1 $23 $8 #
plane-surface $-1 -0.22999999999999998 0.21499999999999997 0 1 0 0 0 -1 0 forward_v I I I I #
coedge $-1 $24 $18 $25 $26 forward $9 $-1 #
coedge $-1 $27 $11 $28 $29 reversed $6 $-1 #
coedge $-1 $11 $27 $30 $31 reversed $6 $-1 #
coedge $-1 $15 $32 $11 $19 forward $9 $-1 #
edge $-1 $33 0 $34 0.45999999999999996 $11 $35 forward 7 unknown #
face $-1 $36 $37 $3 $-1 $38 reversed single #
loop $-1 $-1 $39 $12 #
plane-surface $-1 -0.22999999999999998 -0.21499999999999997 0 0 1 0 1 0 0 forward_v I I I I #
coedge $-1 $40 $30 $41 $42 forward $13 $-1 #
coedge $-1 $32 $15 $43 $44 reversed $9 $-1 #
coedge $-1 $30 $40 $15 $26 reversed $13 $-1 #
edge $-1 $34 0 $45 0.46000000000000002 $25 $46 forward 7 unknown #
coedge $-1 $17 $16 $47 $48 reversed $6 $-1 #
coedge $-1 $49 $50 $16 $29 forward $37 $-1 #
edge $-1 $51 0 $33 0.42999999999999994 $16 $52 forward 7 unknown #
coedge $-1 $23 $25 $17 $31 forward $13 $-1 #
edge $-1 $34 0 $53 0.42999999999999994 $17 $54 forward 7 unknown #
coedge $-1 $18 $24 $49 $55 reversed $9 $-1 #
vertex $-1 $29 $56 #
vertex $-1 $31 $57 #
straight-curve $-1 0.22999999999999998 0.21499999999999997 0 -1 0 0 I I #
face $-1 $58 $59 $3 $-1 $60 forward single #
loop $-1 $-1 $49 $20 #
plane-surface $-1 0.22999999999999998 -0.21499999999999997 0 -1 0 0 0 1 0 forward_v I I I I #
coedge $-1 $61 $47 $50 $62 forward $21 $-1 #
coedge $-1 $25 $23 $63 $64 reversed $13 $-1 #
coedge $-1 $47 $61 $23 $42 reversed $21 $-1 #
edge $-1 $53 0 $65 0.46000000000000002 $23 $66 forward 7 unknown #
coedge $-1 $63 $67 $24 $44 forward $59 $-1 #
edge $-1 $68 0 $45 0.45999999999999996 $43 $69 forward 7 unknown #
vertex $-1 $64 $70 #
straight-curve $-1 -0.22999999999999998 0.21499999999999997 0 0 0 1 I I #
coedge $-1 $39 $41 $27 $48 forward $21 $-1 #
edge $-1 $53 0 $51 0.45999999999999996 $27 $71 forward 7 unknown #
coedge $-1 $72 $28 $32 $55 forward $37 $-1 #
coedge $-1 $28 $72 $39 $62 reversed $37 $-1 #
vertex $-1 $48 $73 #
straight-curve $-1 0.22999999999999998 -0.21499999999999997 0 0 1 0 I I #
vertex $-1 $31 $74 #
straight-curve $-1 -0.22999999999999998 0.21499999999999997 0 0 -1 0 I I #
edge $-1 $33 0 $68 0.46000000000000002 $49 $75 forward 7 unknown #
point $-1 0.22999999999999998 0.21499999999999997 0 #
point $-1 -0.22999999999999998 0.21499999999999997 0 #
face $-1 $76 $77 $3 $-1 $78 forward single #
loop $-1 $79 $80 $36 #
plane-surface $-1 0 0 0.46000000000000002 0 0 -1 -1 0 0 forward_v I I I I #
coedge $-1 $41 $39 $80 $81 reversed $21 $-1 #
edge $-1 $51 0 $82 0.46000000000000002 $39 $83 forward 7 unknown #
coedge $-1 $80 $43 $40 $64 forward $59 $-1 #
edge $-1 $45 0 $65 0.42999999999999994 $63 $84 forward 7 unknown #
vertex $-1 $64 $85 #
straight-curve $-1 -0.22999999999999998 -0.21499999999999997 0 0 0 1 I I #
coedge $-1 $43 $80 $72 $86 forward $59 $-1 #
vertex $-1 $44 $87 #
straight-curve $-1 0.22999999999999998 0.21499999999999997 0.46000000000000002 -1 0 0 I I #
point $-1 -0.22999999999999998 0.21499999999999997 0.46000000000000002 #
straight-curve $-1 -0.22999999999999998 -0.21499999999999997 0 1 0 0 I I #
coedge $-1 $50 $49 $67 $86 reversed $37 $-1 #
point $-1 0.22999999999999998 -0.21499999999999997 0 #
point $-1 -0.22999999999999998 -0.21499999999999997 0 #
straight-curve $-1 0.22999999999999998 0.21499999999999997 0 0 0 1 I I #
face $-1 $88 $89 $3 $-1 $90 forward single #
loop $-1 $-1 $91 $58 #
plane-surface $-1 -0.28999999999999998 0.27499999999999997 0 -1 0 0 0 -1 0 forward_v I I I I #
loop $-1 $-1 $92 $36 #
coedge $-1 $67 $63 $61 $81 forward $59 $-1 #
edge $-1 $65 0 $82 0.45999999999999996 $80 $93 forward 7 unknown #
vertex $-1 $86 $94 #
straight-curve $-1 0.22999999999999998 -0.21499999999999997 0 0 0 1 I I #
straight-curve $-1 -0.22999999999999998 0.21499999999999997 0.46000000000000002 0 -1 0 I I #
point $-1 -0.22999999999999998 -0.21499999999999997 0.46000000000000002 #
edge $-1 $82 0 $68 0.42999999999999994 $67 $95 forward 7 unknown #
point $-1 0.22999999999999998 0.21499999999999997 0.46000000000000002 #
face $-1 $96 $97 $3 $-1 $98 forward single #
loop $-1 $99 $100 $76 #
plane-surface $-1 -0.28999999999999998 -0.27499999999999997 0 0 -1 0 1 0 0 forward_v I I I I #
coedge $-1 $101 $102 $103 $104 forward $77 $-1 #
coedge $-1 $105 $106 $102 $107 reversed $79 $-1 #
straight-curve $-1 -0.22999999999999998 -0.21499999999999997 0.46000000000000002 1 0 0 I I #
point $-1 0.22999999999999998 -0.21499999999999997 0.46000000000000002 #
straight-curve $-1 0.22999999999999998 -0.21499999999999997 0.46000000000000002 0 1 0 I I #
face $-1 $108 $109 $3 $-1 $110 forward single #
loop $-1 $-1 $111 $88 #
plane-surface $-1 0.28999999999999998 -0.27499999999999997 0 1 0 0 0 1 0 forward_v I I I I #
loop $-1 $-1 $112 $76 #
coedge $-1 $113 $114 $115 $116 forward $89 $-1 #
coedge $-1 $117 $91 $118 $119 reversed $77 $-1 #
coedge $-1 $91 $117 $92 $107 forward $77 $-1 #
coedge $-1 $114 $113 $91 $104 reversed $89 $-1 #
edge $-1 $120 0 $121 0.62000000000000011 $103 $122 forward 7 unknown #
coedge $-1 $123 $92 $124 $125 reversed $79 $-1 #
coedge $-1 $92 $123 $114 $126 reversed $79 $-1 #
edge $-1 $127 0 $120 0.54999999999999993 $102 $128 forward 7 unknown #
face $-1 $129 $130 $3 $-1 $131 forward single #
loop $-1 $132 $133 $96 #
plane-surface $-1 0.28999999999999998 0.27499999999999997 0 0 1 0 -1 0 0 forward_v I I I I #
coedge $-1 $134 $135 $136 $137 forward $97 $-1 #
coedge $-1 $138 $139 $140 $141 forward $99 $-1 #
coedge $-1 $103 $100 $142 $143 reversed $89 $-1 #
coedge $-1 $100 $103 $106 $126 forward $89 $-1 #
coedge $-1 $135 $134 $100 $116 reversed $97 $-1 #
edge $-1 $144 0 $145 0.62000000000000011 $100 $146 forward 7 unknown #
coedge $-1 $102 $101 $133 $147 reversed $77 $-1 #
coedge $-1 $142 $148 $101 $119 forward $130 $-1 #
edge $-1 $149 0 $121 0.54999999999999993 $118 $150 forward 7 unknown #
vertex $-1 $126 $151 #
vertex $-1 $143 $152 #
straight-curve $-1 -0.28999999999999998 -0.27499999999999997 0.46000000000000002 0 0 1 I I #
coedge $-1 $106 $105 $135 $153 reversed $79 $-1 #
coedge $-1 $133 $136 $105 $125 forward $109 $-1 #
edge $-1 $154 0 $127 0.57999999999999996 $124 $155 forward 7 unknown #
edge $-1 $120 0 $144 0.57999999999999996 $114 $156 forward 7 unknown #
vertex $-1 $125 $157 #
straight-curve $-1 -0.28999999999999998 0.27499999999999997 0.46000000000000002 0 -1 0 I I #
face $-1 $158 $159 $3 $-1 $160 forward single #
loop $-1 $-1 $161 $108 #
plane-surface $-1 0 0 1.0800000000000001 0 0 1 -1 0 0 forward_v I I I I #
loop $-1 $-1 $162 $96 #
coedge $-1 $163 $124 $117 $147 forward $109 $-1 #
coedge $-1 $115 $111 $161 $164 reversed $97 $-1 #
coedge $-1 $111 $115 $123 $153 forward $97 $-1 #
coedge $-1 $124 $163 $111 $137 reversed $109 $-1 #
edge $-1 $154 0 $165 0.62000000000000011 $111 $166 forward 7 unknown #
coedge $-1 $167 $112 $168 $169 forward $99 $-1 #
coedge $-1 $112 $167 $170 $171 reversed $99 $-1 #
coedge $-1 $172 $173 $112 $141 reversed $174 $-1 #
edge $-1 $175 0 $176 0.15000000000000002 $112 $177 forward 7 unknown #
coedge $-1 $161 $118 $113 $143 forward $130 $-1 #
edge $-1 $121 0 $145 0.57999999999999996 $142 $178 forward 7 unknown #
vertex $-1 $126 $179 #
vertex $-1 $143 $180 #
straight-curve $-1 0.28999999999999998 -0.27499999999999997 0.46000000000000002 0 0 1 I I #
edge $-1 $127 0 $149 0.62000000000000011 $133 $181 forward 7 unknown #
coedge $-1 $118 $161 $163 $182 forward $130 $-1 #
vertex $-1 $119 $183 #
straight-curve $-1 -0.28999999999999998 0.27499999999999997 1.0800000000000001 0 -1 0 I I #
point $-1 -0.28999999999999998 -0.27499999999999997 0.46000000000000002 #
point $-1 -0.28999999999999998 -0.27499999999999997 1.0800000000000001 #
edge $-1 $144 0 $154 0.54999999999999993 $135 $184 forward 7 unknown #
vertex $-1 $153 $185 #
straight-curve $-1 0.28999999999999998 0.27499999999999997 0.46000000000000002 -1 0 0 I I #
straight-curve $-1 -0.28999999999999998 -0.27499999999999997 0.46000000000000002 1 0 0 I I #
point $-1 -0.28999999999999998 0.27499999999999997 0.46000000000000002 #
face $-1 $186 $187 $3 $-1 $188 reversed single #
loop $-1 $-1 $189 $129 #
plane-surface $-1 0.074999999999999997 0.27499999999999997 0.52000000000000002 0 0 1 0 1 0 forward_v I I I I #
coedge $-1 $148 $142 $134 $164 forward $130 $-1 #
coedge $-1 $190 $191 $192 $193 forward $132 $-1 #
coedge $-1 $136 $133 $148 $182 reversed $109 $-1 #
edge $-1 $145 0 $165 0.54999999999999993 $161 $194 forward 7 unknown #
vertex $-1 $182 $195 #
straight-curve $-1 0.28999999999999998 0.27499999999999997 0.46000000000000002 0 0 1 I I #
coedge $-1 $139 $138 $196 $197 reversed $99 $-1 #
coedge $-1 $198 $199 $138 $169 reversed $200 $-1 #
edge $-1 $176 0 $201 0.030000000000000027 $138 $202 forward 7 unknown #
coedge $-1 $203 $204 $139 $171 forward $205 $-1 #
edge $-1 $175 0 $206 0.030000000000000027 $139 $207 forward 7 unknown #
coedge $-1 $208 $140 $204 $209 forward $174 $-1 #
coedge $-1 $140 $208 $198 $210 reversed $174 $-1 #
loop $-1 $-1 $172 $211 #
vertex $-1 $171 $212 #
vertex $-1 $169 $213 #
straight-curve $-1 0.075000000000000011 -0.27499999999999997 0.48999999999999999 -1 0 0 I I #
straight-curve $-1 -0.28999999999999998 -0.27499999999999997 1.0800000000000001 1 0 0 I I #
point $-1 0.28999999999999998 -0.27499999999999997 0.46000000000000002 #
point $-1 0.28999999999999998 -0.27499999999999997 1.0800000000000001 #
straight-curve $-1 -0.28999999999999998 0.27499999999999997 0.46000000000000002 0 0 1 I I #
edge $-1 $165 0 $149 0.57999999999999996 $148 $214 forward 7 unknown #
point $-1 -0.28999999999999998 0.27499999999999997 1.0800000000000001 #
straight-curve $-1 0.28999999999999998 -0.27499999999999997 0.46000000000000002 0 1 0 I I #
point $-1 0.28999999999999998 0.27499999999999997 0.46000000000000002 #
face $-1 $215 $216 $3 $-1 $217 forward single #
loop $-1 $-1 $218 $158 #
plane-surface $-1 0.074999999999999997 0 0 -1 0 0 0 0 1 forward_v I I I I #
coedge $-1 $219 $192 $220 $221 forward $159 $-1 #
coedge $-1 $222 $162 $223 $224 reversed $132 $-1 #
coedge $-1 $162 $222 $225 $226 forward $132 $-1 #
coedge $-1 $189 $227 $162 $193 reversed $159 $-1 #
edge $-1 $228 0 $229 0.15000000000000002 $162 $230 forward 7 unknown #
straight-curve $-1 0.28999999999999998 -0.27499999999999997 1.0800000000000001 0 1 0 I I #
point $-1 0.28999999999999998 0.27499999999999997 1.0800000000000001 #
coedge $-1 $231 $232 $167 $197 forward $233 $-1 #
edge $-1 $206 0 $201 0.15000000000000002 $167 $234 forward 7 unknown #
coedge $-1 $235 $168 $173 $210 forward $200 $-1 #
coedge $-1 $168 $236 $231 $237 forward $200 $-1 #
loop $-1 $-1 $198 $238 #
vertex $-1 $197 $239 #
straight-curve $-1 -0.074999999999999997 -0.27499999999999997 0.48999999999999999 0 0 1 I I #
coedge $-1 $240 $170 $232 $241 reversed $205 $-1 #
coedge $-1 $170 $242 $172 $209 reversed $205 $-1 #
loop $-1 $-1 $203 $243 #
vertex $-1 $171 $244 #
straight-curve $-1 0.074999999999999997 -0.27499999999999997 0.48999999999999999 0 0 1 I I #
coedge $-1 $173 $172 $245 $246 forward $174 $-1 #
edge $-1 $175 0 $247 0.10000000000000003 $204 $248 forward 7 unknown #
edge $-1 $176 0 $249 0.10000000000000003 $198 $250 forward 7 unknown #
face $-1 $243 $174 $3 $-1 $251 forward single #
point $-1 0.075000000000000011 -0.27499999999999997 0.48999999999999999 #
point $-1 -0.075000000000000011 -0.27499999999999997 0.48999999999999999 #
straight-curve $-1 0.28999999999999998 0.27499999999999997 1.0800000000000001 -1 0 0 I I #
face $-1 $252 $253 $3 $-1 $254 forward single #
loop $-1 $-1 $255 $186 #
plane-surface $-1 0.074999999999999997 0.375 0.48999999999999999 0 0 -1 0 -1 0 forward_v I I I I #
coedge $-1 $256 $225 $257 $258 reversed $187 $-1 #
coedge $-1 $227 $189 $259 $260 forward $159 $-1 #
coedge $-1 $225 $261 $189 $221 reversed $187 $-1 #
edge $-1 $228 0 $262 0.10000000000000003 $220 $263 forward 7 unknown #
coedge $-1 $191 $190 $264 $265 reversed $132 $-1 #
coedge $-1 $266 $267 $190 $224 forward $253 $-1 #
edge $-1 $268 0 $229 0.030000000000000027 $190 $269 forward 7 unknown #
coedge $-1 $218 $220 $191 $226 reversed $187 $-1 #
edge $-1 $270 0 $228 0.030000000000000027 $191 $271 forward 7 unknown #
coedge $-1 $192 $219 $266 $272 reversed $159 $-1 #
vertex $-1 $226 $273 #
vertex $-1 $224 $274 #
straight-curve $-1 0.075000000000000011 0.27499999999999997 0.52000000000000002 -1 0 0 I I #
coedge $-1 $275 $196 $199 $237 reversed $233 $-1 #
coedge $-1 $196 $275 $203 $241 forward $233 $-1 #
loop $-1 $-1 $231 $276 #
straight-curve $-1 0.075000000000000011 -0.27499999999999997 0.52000000000000002 -1 0 0 I I #
coedge $-1 $277 $198 $278 $279 forward $200 $-1 #
coedge $-1 $199 $280 $281 $282 forward $200 $-1 #
edge $-1 $283 0 $201 0.10000000000000003 $199 $284 forward 7 unknown #
face $-1 $285 $200 $3 $-1 $286 forward single #
point $-1 -0.075000000000000011 -0.27499999999999997 0.52000000000000002 #
coedge $-1 $287 $203 $288 $289 reversed $205 $-1 #
edge $-1 $290 0 $206 0.10000000000000003 $203 $291 forward 7 unknown #
coedge $-1 $204 $292 $293 $294 reversed $205 $-1 #
face $-1 $276 $205 $3 $-1 $295 reversed single #
point $-1 0.075000000000000011 -0.27499999999999997 0.52000000000000002 #
coedge $-1 $293 $278 $208 $246 reversed $296 $-1 #
edge $-1 $247 0 $249 0.14999999999999999 $245 $297 forward 7 unknown #
vertex $-1 $209 $298 #
straight-curve $-1 0.074999999999999997 -0.27499999999999997 0.48999999999999999 0 -1 0 I I #
vertex $-1 $279 $299 #
straight-curve $-1 -0.074999999999999997 -0.27499999999999997 0.48999999999999999 0 -1 0 I I #
plane-surface $-1 0.074999999999999997 -0.27499999999999997 0.48999999999999999 0 0 -1 0 -1 0 forward_v I I I I #
face $-1 $300 $301 $3 $-1 $302 forward single #
loop $-1 $-1 $266 $215 #
plane-surface $-1 -0.074999999999999997 0 0 -1 0 0 0 0 1 forward_v I I I I #
coedge $-1 $303 $264 $267 $304 reversed $216 $-1 #
coedge $-1 $305 $218 $306 $307 reversed $187 $-1 #
coedge $-1 $264 $303 $218 $258 forward $216 $-1 #
edge $-1 $308 0 $270 0.10000000000000003 $218 $309 forward 7 unknown #
coedge $-1 $310 $311 $219 $260 reversed $301 $-1 #
edge $-1 $262 0 $312 0.14999999999999999 $219 $313 forward 7 unknown #
coedge $-1 $220 $314 $310 $315 reversed $187 $-1 #
vertex $-1 $221 $316 #
straight-curve $-1 0.074999999999999997 0.27499999999999997 0.52000000000000002 0 1 0 I I #
coedge $-1 $255 $257 $222 $265 forward $216 $-1 #
edge $-1 $270 0 $268 0.15000000000000002 $222 $317 forward 7 unknown #
coedge $-1 $318 $223 $227 $272 forward $253 $-1 #
coedge $-1 $223 $319 $255 $304 forward $253 $-1 #
vertex $-1 $265 $320 #
straight-curve $-1 -0.074999999999999997 0.27499999999999997 0.48999999999999999 0 0 1 I I #
vertex $-1 $226 $321 #
straight-curve $-1 0.074999999999999997 0.27499999999999997 0.48999999999999999 0 0 1 I I #
edge $-1 $229 0 $312 0.10000000000000003 $266 $322 forward 7 unknown #
point $-1 0.075000000000000011 0.27499999999999997 0.52000000000000002 #
point $-1 -0.075000000000000011 0.27499999999999997 0.52000000000000002 #
coedge $-1 $232 $231 $323 $324 reversed $233 $-1 #
face $-1 $238 $233 $3 $-1 $325 forward single #
coedge $-1 $326 $235 $327 $328 forward $200 $-1 #
coedge $-1 $245 $329 $235 $279 reversed $296 $-1 #
edge $-1 $249 0 $330 0.32999999999999996 $235 $331 forward 7 unknown #
coedge $-1 $236 $326 $332 $333 forward $200 $-1 #
coedge $-1 $334 $323 $236 $282 reversed $335 $-1 #
edge $-1 $336 0 $283 0.33999999999999997 $236 $337 forward 7 unknown #
vertex $-1 $237 $338 #
straight-curve $-1 -0.074999999999999997 -0.375 0.52000000000000002 0 1 0 I I #
face $-1 $339 $296 $3 $-1 $340 forward single #
plane-surface $-1 -0.074999999999999997 0 0 -1 0 0 0 0 1 forward_v I I I I #
coedge $-1 $341 $240 $342 $343 reversed $205 $-1 #
coedge $-1 $323 $334 $240 $289 forward $335 $-1 #
edge $-1 $344 0 $290 0.33999999999999997 $240 $345 forward 7 unknown #
vertex $-1 $289 $346 #
straight-curve $-1 0.074999999999999997 -0.375 0.52000000000000002 0 1 0 I I #
coedge $-1 $242 $341 $347 $348 reversed $205 $-1 #
coedge $-1 $329 $245 $242 $294 forward $296 $-1 #
edge $-1 $247 0 $349 0.32999999999999996 $242 $350 forward 7 unknown #
plane-surface $-1 0.074999999999999997 0 0 -1 0 0 0 0 1 forward_v I I I I #
loop $-1 $-1 $329 $285 #
straight-curve $-1 0.074999999999999997 -0.375 0.48999999999999999 -1 0 0 I I #
point $-1 0.074999999999999997 -0.375 0.48999999999999999 #
point $-1 -0.074999999999999997 -0.375 0.48999999999999999 #
face $-1 $351 $352 $3 $-1 $353 forward single #
loop $-1 $-1 $354 $252 #
plane-surface $-1 0.074999999999999997 0.375 0.52000000000000002 0 -1 0 0 0 1 forward_v I I I I #
coedge $-1 $257 $255 $355 $356 reversed $216 $-1 #
edge $-1 $357 0 $268 0.10000000000000003 $267 $358 forward 7 unknown #
coedge $-1 $359 $256 $360 $361 reversed $187 $-1 #
coedge $-1 $355 $362 $256 $307 forward $363 $-1 #
edge $-1 $364 0 $308 0.32999999999999996 $256 $365 forward 7 unknown #
vertex $-1 $307 $366 #
straight-curve $-1 0.074999999999999997 0.375 0.48999999999999999 0 -1 0 I I #
coedge $-1 $354 $259 $261 $315 forward $301 $-1 #
coedge $-1 $259 $354 $318 $367 reversed $301 $-1 #
vertex $-1 $367 $368 #
straight-curve $-1 0.074999999999999997 0.375 0.52000000000000002 -1 0 0 I I #
coedge $-1 $261 $359 $369 $370 reversed $187 $-1 #
edge $-1 $262 0 $371 0.33999999999999997 $261 $372 forward 7 unknown #
point $-1 0.074999999999999997 0.375 0.52000000000000002 #
straight-curve $-1 0.075000000000000011 0.27499999999999997 0.48999999999999999 -1 0 0 I I #
coedge $-1 $373 $266 $311 $367 forward $253 $-1 #
coedge $-1 $267 $374 $375 $376 forward $253 $-1 #
point $-1 -0.075000000000000011 0.27499999999999997 0.48999999999999999 #
point $-1 0.075000000000000011 0.27499999999999997 0.48999999999999999 #
straight-curve $-1 -0.074999999999999997 0.27499999999999997 0.52000000000000002 0 1 0 I I #
coedge $-1 $281 $288 $275 $324 forward $335 $-1 #
edge $-1 $290 0 $283 0.14999999999999999 $323 $377 forward 7 unknown #
plane-surface $-1 0.074999999999999997 -0.375 0.52000000000000002 0 0 1 0 1 0 forward_v I I I I #
coedge $-1 $280 $277 $378 $379 forward $200 $-1 #
coedge $-1 $380 $381 $277 $328 reversed $382 $-1 #
edge $-1 $330 0 $383 0.049999999999999989 $277 $384 forward 7 unknown #
coedge $-1 $278 $293 $380 $385 forward $296 $-1 #
vertex $-1 $328 $386 #
straight-curve $-1 -0.074999999999999997 -0.375 0.48999999999999999 0 0 -1 I I #
coedge $-1 $387 $388 $280 $333 reversed $389 $-1 #
edge $-1 $390 0 $336 0.099999999999999978 $280 $391 forward 7 unknown #
coedge $-1 $288 $281 $388 $392 reversed $335 $-1 #
loop $-1 $-1 $323 $393 #
vertex $-1 $282 $394 #
straight-curve $-1 -0.074999999999999997 -0.375 0.85999999999999999 0 0 -1 I I #
point $-1 -0.074999999999999997 -0.375 0.52000000000000002 #
face $-1 $395 $382 $3 $-1 $396 forward single #
plane-surface $-1 0.074999999999999997 -0.375 0.48999999999999999 0 1 0 0 0 -1 forward_v I I I I #
coedge $-1 $292 $287 $397 $398 reversed $205 $-1 #
coedge $-1 $388 $387 $287 $343 forward $389 $-1 #
edge $-1 $399 0 $344 0.099999999999999978 $287 $400 forward 7 unknown #
vertex $-1 $343 $401 #
straight-curve $-1 0.074999999999999997 -0.375 0.85999999999999999 0 0 -1 I I #
point $-1 0.074999999999999997 -0.375 0.52000000000000002 #
coedge $-1 $381 $380 $292 $348 forward $382 $-1 #
edge $-1 $349 0 $402 0.049999999999999989 $292 $403 forward 7 unknown #
vertex $-1 $294 $404 #
straight-curve $-1 0.074999999999999997 -0.375 0.48999999999999999 0 0 -1 I I #
face $-1 $405 $406 $3 $-1 $407 forward single #
loop $-1 $-1 $408 $300 #
plane-surface $-1 0.074999999999999997 0.375 0.85999999999999999 0 0 1 0 1 0 forward_v I I I I #
coedge $-1 $311 $310 $409 $410 forward $301 $-1 #
coedge $-1 $375 $306 $303 $356 forward $363 $-1 #
edge $-1 $308 0 $357 0.14999999999999999 $303 $411 forward 7 unknown #
vertex $-1 $304 $412 #
straight-curve $-1 -0.074999999999999997 0.375 0.48999999999999999 0 -1 0 I I #
coedge $-1 $314 $305 $413 $414 reversed $187 $-1 #
coedge $-1 $415 $416 $305 $361 forward $417 $-1 #
edge $-1 $418 0 $364 0.049999999999999989 $305 $419 forward 7 unknown #
coedge $-1 $306 $375 $415 $420 reversed $363 $-1 #
loop $-1 $-1 $355 $421 #
vertex $-1 $361 $422 #
straight-curve $-1 0.074999999999999997 0.375 0.16000000000000003 0 0 1 I I #
point $-1 0.074999999999999997 0.375 0.48999999999999999 #
edge $-1 $312 0 $423 0.33999999999999997 $318 $424 forward 7 unknown #
point $-1 -0.074999999999999997 0.375 0.52000000000000002 #
coedge $-1 $408 $409 $314 $370 forward $352 $-1 #
edge $-1 $371 0 $425 0.099999999999999978 $314 $426 forward 7 unknown #
vertex $-1 $315 $427 #
straight-curve $-1 0.074999999999999997 0.375 0.52000000000000002 0 0 1 I I #
coedge $-1 $428 $318 $429 $430 forward $253 $-1 #
coedge $-1 $319 $428 $431 $432 forward $253 $-1 #
coedge $-1 $362 $355 $319 $376 reversed $363 $-1 #
edge $-1 $433 0 $357 0.32999999999999996 $319 $434 forward 7 unknown #
straight-curve $-1 0.074999999999999997 -0.375 0.52000000000000002 -1 0 0 I I #
coedge $-1 $435 $436 $326 $379 reversed $437 $-1 #
edge $-1 $383 0 $390 0.70178344238090995 $326 $438 forward 7 unknown #
coedge $-1 $347 $327 $329 $385 reversed $382 $-1 #
coedge $-1 $327 $347 $435 $439 forward $382 $-1 #
loop $-1 $-1 $381 $339 #
vertex $-1 $379 $440 #
straight-curve $-1 -0.074999999999999997 -0.375 0.16000000000000003 0 -1 0 I I #
edge $-1 $349 0 $330 0.14999999999999999 $329 $441 forward 7 unknown #
point $-1 -0.074999999999999997 -0.375 0.16000000000000003 #
coedge $-1 $342 $332 $436 $442 reversed $389 $-1 #
coedge $-1 $332 $342 $334 $392 forward $389 $-1 #
loop $-1 $-1 $388 $443 #
vertex $-1 $333 $444 #
straight-curve $-1 -0.074999999999999997 -0.47499999999999998 0.85999999999999999 0 1 0 I I #
edge $-1 $344 0 $336 0.14999999999999999 $388 $445 forward 7 unknown #
face $-1 $-1 $335 $3 $-1 $446 forward single #
point $-1 -0.074999999999999997 -0.375 0.85999999999999999 #
face $-1 $443 $437 $3 $-1 $447 forward single #
plane-surface $-1 0.074999999999999997 -0.375 0.16000000000000003 0 0 -1 0 -1 0 forward_v I I I I #
coedge $-1 $436 $435 $341 $398 forward $437 $-1 #
edge $-1 $402 0 $399 0.70178344238090995 $341 $448 forward 7 unknown #
vertex $-1 $398 $449 #
straight-curve $-1 0.074999999999999997 -0.47499999999999998 0.85999999999999999 0 1 0 I I #
point $-1 0.074999999999999997 -0.375 0.85999999999999999 #
vertex $-1 $348 $450 #
straight-curve $-1 0.074999999999999997 -0.375 0.16000000000000003 0 -1 0 I I #
point $-1 0.074999999999999997 -0.375 0.16000000000000003 #
face $-1 $421 $417 $3 $-1 $451 forward single #
loop $-1 $-1 $452 $351 #
plane-surface $-1 0.074999999999999997 0.47499999999999998 0.85999999999999999 0 0.99745869983073498 -0.071247049987909636 0 -0.071247049987909636 -0.99745869983073498 forward_v I I I I #
coedge $-1 $429 $369 $453 $454 forward $352 $-1 #
coedge $-1 $369 $429 $354 $410 reversed $352 $-1 #
edge $-1 $371 0 $423 0.14999999999999999 $354 $455 forward 7 unknown #
straight-curve $-1 0.074999999999999997 0.375 0.48999999999999999 -1 0 0 I I #
point $-1 -0.074999999999999997 0.375 0.48999999999999999 #
coedge $-1 $452 $453 $359 $414 forward $406 $-1 #
edge $-1 $425 0 $418 0.70178344238090995 $359 $456 forward 7 unknown #
coedge $-1 $431 $360 $362 $420 forward $417 $-1 #
coedge $-1 $360 $431 $452 $457 reversed $417 $-1 #
loop $-1 $-1 $415 $405 #
vertex $-1 $414 $458 #
straight-curve $-1 0.074999999999999997 0.42499999999999999 0.16000000000000003 0 -1 0 I I #
edge $-1 $364 0 $433 0.14999999999999999 $415 $459 forward 7 unknown #
face $-1 $211 $363 $3 $-1 $460 forward single #
point $-1 0.074999999999999997 0.375 0.16000000000000003 #
vertex $-1 $430 $461 #
straight-curve $-1 -0.074999999999999997 0.375 0.52000000000000002 0 0 1 I I #
vertex $-1 $370 $462 #
straight-curve $-1 0.074999999999999997 0.375 0.85999999999999999 0 1 0 I I #
point $-1 0.074999999999999997 0.375 0.85999999999999999 #
coedge $-1 $374 $373 $463 $464 forward $253 $-1 #
coedge $-1 $409 $408 $373 $430 reversed $352 $-1 #
edge $-1 $423 0 $465 0.099999999999999978 $373 $466 forward 7 unknown #
coedge $-1 $416 $415 $374 $432 reversed $417 $-1 #
edge $-1 $467 0 $433 0.049999999999999989 $374 $468 forward 7 unknown #
vertex $-1 $376 $469 #
straight-curve $-1 -0.074999999999999997 0.375 0.16000000000000003 0 0 1 I I #
coedge $-1 $397 $378 $381 $439 reversed $437 $-1 #
coedge $-1 $378 $397 $387 $442 forward $437 $-1 #
loop $-1 $-1 $436 $395 #
straight-curve $-1 -0.074999999999999997 -0.42499999999999999 0.16000000000000003 0 -0.071247049987909636 0.99745869983073498 I I #
edge $-1 $402 0 $383 0.14999999999999999 $381 $470 forward 7 unknown #
point $-1 -0.074999999999999997 -0.42499999999999999 0.16000000000000003 #
straight-curve $-1 0.074999999999999997 -0.375 0.16000000000000003 -1 0 0 I I #
edge $-1 $399 0 $390 0.14999999999999999 $436 $471 forward 7 unknown #
face $-1 $393 $389 $3 $-1 $472 forward single #
point $-1 -0.074999999999999997 -0.47499999999999998 0.85999999999999999 #
straight-curve $-1 0.074999999999999997 -0.375 0.85999999999999999 -1 0 0 I I #
plane-surface $-1 0.074999999999999997 -0.375 0.85999999999999999 0 1 0 0 0 -1 forward_v I I I I #
plane-surface $-1 0.074999999999999997 -0.42499999999999999 0.16000000000000003 0 -0.99745869983073498 -0.071247049987909636 0 -0.071247049987909636 0.99745869983073498 forward_v I I I I #
straight-curve $-1 0.074999999999999997 -0.42499999999999999 0.16000000000000003 0 -0.071247049987909636 0.99745869983073498 I I #
point $-1 0.074999999999999997 -0.47499999999999998 0.85999999999999999 #
point $-1 0.074999999999999997 -0.42499999999999999 0.16000000000000003 #
plane-surface $-1 0.074999999999999997 0.42499999999999999 0.16000000000000003 0 0 -1 0 -1 0 forward_v I I I I #
coedge $-1 $463 $413 $416 $457 forward $406 $-1 #
coedge $-1 $413 $463 $408 $454 reversed $406 $-1 #
edge $-1 $425 0 $465 0.14999999999999999 $408 $473 forward 7 unknown #
straight-curve $-1 0.074999999999999997 0.375 0.85999999999999999 -1 0 0 I I #
straight-curve $-1 0.074999999999999997 0.47499999999999998 0.85999999999999999 0 -0.071247049987909636 -0.99745869983073498 I I #
edge $-1 $418 0 $467 0.14999999999999999 $452 $474 forward 7 unknown #
point $-1 0.074999999999999997 0.42499999999999999 0.16000000000000003 #
straight-curve $-1 0.074999999999999997 0.375 0.16000000000000003 -1 0 0 I I #
plane-surface $-1 0.074999999999999997 0.375 0.16000000000000003 0 -1 0 0 0 1 forward_v I I I I #
point $-1 -0.074999999999999997 0.375 0.85999999999999999 #
point $-1 0.074999999999999997 0.47499999999999998 0.85999999999999999 #
coedge $-1 $453 $452 $428 $464 reversed $406 $-1 #
edge $-1 $465 0 $467 0.70178344238090995 $428 $475 forward 7 unknown #
vertex $-1 $464 $476 #
straight-curve $-1 -0.074999999999999997 0.375 0.85999999999999999 0 1 0 I I #
vertex $-1 $432 $477 #
straight-curve $-1 -0.074999999999999997 0.42499999999999999 0.16000000000000003 0 -1 0 I I #
point $-1 -0.074999999999999997 0.375 0.16000000000000003 #
straight-curve $-1 0.074999999999999997 -0.42499999999999999 0.16000000000000003 -1 0 0 I I #
straight-curve $-1 0.074999999999999997 -0.47499999999999998 0.85999999999999999 -1 0 0 I I #
plane-surface $-1 0.074999999999999997 -0.47499999999999998 0.85999999999999999 0 0 1 0 1 0 forward_v I I I I #
straight-curve $-1 0.074999999999999997 0.47499999999999998 0.85999999999999999 -1 0 0 I I #
straight-curve $-1 0.074999999999999997 0.42499999999999999 0.16000000000000003 -1 0 0 I I #
straight-curve $-1 -0.074999999999999997 0.47499999999999998 0.85999999999999999 0 -0.071247049987909636 -0.99745869983073498 I I #
point $-1 -0.074999999999999997 0.47499999999999998 0.85999999999999999 #
point $-1 -0.074999999999999997 0.42499999999999999 0.16000000000000003 #
End-of-ACIS-data 