600 0 1 0           
87 GICL ACIS Healer - Source: /gicl/data5/repository/PTC/V18/cabdia18/mnl-female.sat - 6 0 18 ACIS 6.0.3 Solaris 24 Sat Apr 13 22:29:26 2002 
1 9.999999999999999547e-07 1.000000000000000036e-10 
body $-1 $1 $-1 $-1 #
lump $-1 $-1 $2 $0 #
shell $-1 $-1 $-1 $3 $-1 $1 #
face $-1 $4 $5 $2 $-1 $6 reversed single #
face $-1 $7 $8 $2 $-1 $9 forward single #
loop $-1 $10 $11 $3 #
plane-surface $-1 0 0 0 0 0 -1 25.39999999999999858 0 0 forward_v I I I I #
face $-1 $12 $13 $2 $-1 $14 forward single #
loop $-1 $-1 $15 $4 #
plane-surface $-1 7.873999999999999666 -6.984999999999998543 0 0 -1 0 -25.39999999999999858 0 0 forward_v I I I I #
loop $-1 $-1 $16 $3 #
coedge $-1 $17 $18 $19 $20 reversed $5 $-1 #
face $-1 $21 $22 $2 $-1 $23 forward single #
loop $-1 $24 $25 $7 #
plane-surface $-1 -7.873999999999999666 -6.984999999999998543 0 -1 0 0 0 25.39999999999999858 0 forward_v I I I I #
coedge $-1 $26 $19 $27 $28 forward $8 $-1 #
coedge $-1 $29 $30 $31 $32 reversed $10 $-1 #
coedge $-1 $33 $11 $34 $35 reversed $5 $-1 #
coedge $-1 $11 $33 $36 $37 reversed $5 $-1 #
coedge $-1 $15 $38 $11 $20 forward $8 $-1 #
edge $-1 $39 0 $40 0.6199999999999999956 $11 $41 forward 7 unknown #
face $-1 $42 $43 $2 $-1 $44 forward single #
loop $-1 $-1 $45 $12 #
plane-surface $-1 -7.873999999999999666 6.984999999999998543 0 0 1 0 25.39999999999999858 0 0 forward_v I I I I #
loop $-1 $-1 $46 $7 #
coedge $-1 $47 $36 $48 $49 forward $13 $-1 #
coedge $-1 $38 $15 $50 $51 reversed $8 $-1 #
coedge $-1 $36 $47 $15 $28 reversed $13 $-1 #
edge $-1 $40 0 $52 1.080000000000000071 $27 $53 forward 7 unknown #
coedge $-1 $54 $16 $55 $56 reversed $10 $-1 #
coedge $-1 $16 $54 $57 $58 reversed $10 $-1 #
coedge $-1 $59 $60 $16 $32 forward $61 $-1 #
edge $-1 $62 0 $63 0.4699999999999999734 $16 $64 forward 7 unknown #
coedge $-1 $18 $17 $65 $66 reversed $5 $-1 #
coedge $-1 $67 $68 $17 $35 forward $43 $-1 #
edge $-1 $69 0 $39 0.5499999999999999334 $17 $70 forward 7 unknown #
coedge $-1 $25 $27 $18 $37 forward $13 $-1 #
edge $-1 $40 0 $71 0.5499999999999999334 $18 $72 forward 7 unknown #
coedge $-1 $19 $26 $67 $73 reversed $8 $-1 #
vertex $-1 $35 $74 #
vertex $-1 $37 $75 #
straight-curve $-1 7.873999999999999666 -6.984999999999998543 0 -25.39999999999999858 0 0 I I #
face $-1 $76 $77 $2 $-1 $78 forward single #
loop $-1 $79 $67 $21 #
plane-surface $-1 7.873999999999999666 6.984999999999998543 0 1 0 0 0 -25.39999999999999858 0 forward_v I I I I #
coedge $-1 $80 $65 $68 $81 forward $22 $-1 #
coedge $-1 $82 $83 $84 $85 reversed $24 $-1 #
coedge $-1 $27 $25 $86 $87 reversed $13 $-1 #
coedge $-1 $65 $80 $25 $49 reversed $22 $-1 #
edge $-1 $71 0 $88 1.080000000000000071 $25 $89 forward 7 unknown #
coedge $-1 $86 $90 $26 $51 forward $77 $-1 #
edge $-1 $91 0 $52 0.6199999999999999956 $50 $92 forward 7 unknown #
vertex $-1 $87 $93 #
straight-curve $-1 -7.873999999999999666 -6.984999999999998543 0 0 0 -25.39999999999999858 I I #
coedge $-1 $30 $29 $94 $95 reversed $10 $-1 #
coedge $-1 $96 $97 $29 $56 forward $98 $-1 #
edge $-1 $99 0 $62 0.4399999999999999467 $29 $100 forward 7 unknown #
coedge $-1 $101 $102 $30 $58 forward $103 $-1 #
edge $-1 $63 0 $104 0.4399999999999999467 $30 $105 forward 7 unknown #
coedge $-1 $106 $31 $102 $107 forward $61 $-1 #
coedge $-1 $31 $106 $96 $108 reversed $61 $-1 #
loop $-1 $-1 $59 $109 #
vertex $-1 $56 $110 #
vertex $-1 $58 $111 #
straight-curve $-1 5.968999999999999417 5.58799999999999919 0 -25.39999999999999858 0 0 I I #
coedge $-1 $45 $48 $33 $66 forward $22 $-1 #
edge $-1 $71 0 $69 0.6199999999999999956 $33 $112 forward 7 unknown #
coedge $-1 $113 $34 $38 $73 forward $43 $-1 #
coedge $-1 $34 $113 $45 $81 reversed $43 $-1 #
vertex $-1 $66 $114 #
straight-curve $-1 7.873999999999999666 6.984999999999998543 0 0 -25.39999999999999858 0 I I #
vertex $-1 $37 $115 #
straight-curve $-1 -7.873999999999999666 -6.984999999999998543 0 0 25.39999999999999858 0 I I #
edge $-1 $39 0 $91 1.080000000000000071 $67 $116 forward 7 unknown #
point $-1 7.873999999999999666 -6.984999999999998543 0 #
point $-1 -7.873999999999999666 -6.984999999999998543 0 #
face $-1 $117 $118 $2 $-1 $119 forward single #
loop $-1 $-1 $120 $42 #
plane-surface $-1 0 0 -27.43199999999999861 0 0 -1 25.39999999999999858 0 0 forward_v I I I I #
loop $-1 $-1 $121 $21 #
coedge $-1 $48 $45 $120 $122 reversed $22 $-1 #
edge $-1 $69 0 $123 1.080000000000000071 $45 $124 forward 7 unknown #
coedge $-1 $125 $46 $126 $127 reversed $24 $-1 #
coedge $-1 $46 $125 $128 $129 reversed $24 $-1 #
coedge $-1 $130 $131 $46 $85 forward $132 $-1 #
edge $-1 $133 0 $134 0.1799999999999999656 $46 $135 forward 7 unknown #
coedge $-1 $120 $50 $47 $87 forward $77 $-1 #
edge $-1 $52 0 $88 0.5499999999999999334 $86 $136 forward 7 unknown #
vertex $-1 $87 $137 #
straight-curve $-1 -7.873999999999999666 6.984999999999998543 0 0 0 -25.39999999999999858 I I #
coedge $-1 $50 $120 $113 $138 forward $77 $-1 #
vertex $-1 $51 $139 #
straight-curve $-1 7.873999999999999666 -6.984999999999998543 -27.43199999999999861 -25.39999999999999858 0 0 I I #
point $-1 -7.873999999999999666 -6.984999999999998543 -27.43199999999999861 #
coedge $-1 $140 $141 $54 $95 forward $142 $-1 #
edge $-1 $104 0 $99 0.4699999999999999734 $54 $143 forward 7 unknown #
coedge $-1 $144 $55 $60 $108 forward $98 $-1 #
coedge $-1 $55 $144 $140 $145 reversed $98 $-1 #
loop $-1 $-1 $96 $146 #
vertex $-1 $95 $147 #
straight-curve $-1 5.968999999999999417 -5.58799999999999919 0 0 25.39999999999999858 0 I I #
coedge $-1 $148 $57 $141 $149 forward $103 $-1 #
coedge $-1 $57 $148 $59 $107 reversed $103 $-1 #
loop $-1 $-1 $101 $150 #
vertex $-1 $58 $151 #
straight-curve $-1 -5.968999999999999417 5.58799999999999919 0 0 -25.39999999999999858 0 I I #
coedge $-1 $60 $59 $152 $153 reversed $61 $-1 #
edge $-1 $63 0 $154 0.46000000000000002 $102 $155 forward 7 unknown #
edge $-1 $62 0 $156 0.46000000000000002 $96 $157 forward 7 unknown #
face $-1 $150 $61 $2 $-1 $158 reversed single #
point $-1 5.968999999999999417 5.58799999999999919 0 #
point $-1 -5.968999999999999417 5.58799999999999919 0 #
straight-curve $-1 -7.873999999999999666 6.984999999999998543 0 25.39999999999999858 0 0 I I #
coedge $-1 $68 $67 $90 $138 reversed $43 $-1 #
point $-1 7.873999999999999666 6.984999999999998543 0 #
point $-1 -7.873999999999999666 6.984999999999998543 0 #
straight-curve $-1 7.873999999999999666 -6.984999999999998543 0 0 0 -25.39999999999999858 I I #
face $-1 $159 $160 $2 $-1 $161 forward single #
loop $-1 $-1 $162 $76 #
plane-surface $-1 7.873999999999999666 -0.635000000000000564 -18.92300000000000182 0 1 0 0 0 25.39999999999999858 forward_v I I I I #
coedge $-1 $90 $86 $80 $122 forward $77 $-1 #
coedge $-1 $163 $164 $165 $166 reversed $79 $-1 #
edge $-1 $88 0 $123 0.6199999999999999956 $120 $167 forward 7 unknown #
vertex $-1 $138 $168 #
straight-curve $-1 7.873999999999999666 6.984999999999998543 0 0 0 -25.39999999999999858 I I #
coedge $-1 $83 $82 $169 $170 reversed $24 $-1 #
coedge $-1 $171 $172 $82 $127 forward $173 $-1 #
edge $-1 $174 0 $133 0.2450000000000001066 $82 $175 forward 7 unknown #
coedge $-1 $176 $177 $83 $129 forward $178 $-1 #
edge $-1 $134 0 $179 0.2450000000000001066 $83 $180 forward 7 unknown #
coedge $-1 $181 $84 $177 $182 forward $132 $-1 #
coedge $-1 $84 $181 $171 $183 reversed $132 $-1 #
loop $-1 $-1 $130 $184 #
vertex $-1 $127 $185 #
vertex $-1 $129 $186 #
straight-curve $-1 -7.873999999999999666 5.206999999999999851 -18.92300000000000182 0 -25.39999999999999858 0 I I #
straight-curve $-1 -7.873999999999999666 -6.984999999999998543 -27.43199999999999861 0 25.39999999999999858 0 I I #
point $-1 -7.873999999999999666 6.984999999999998543 -27.43199999999999861 #
edge $-1 $123 0 $91 0.5499999999999999334 $90 $187 forward 7 unknown #
point $-1 7.873999999999999666 -6.984999999999998543 -27.43199999999999861 #
coedge $-1 $188 $94 $97 $145 forward $142 $-1 #
coedge $-1 $94 $188 $101 $149 reversed $142 $-1 #
loop $-1 $-1 $140 $189 #
straight-curve $-1 -5.968999999999999417 -5.58799999999999919 0 25.39999999999999858 0 0 I I #
coedge $-1 $97 $96 $190 $191 reversed $98 $-1 #
edge $-1 $99 0 $192 0.46000000000000002 $140 $193 forward 7 unknown #
face $-1 $194 $98 $2 $-1 $195 reversed single #
point $-1 5.968999999999999417 -5.58799999999999919 0 #
coedge $-1 $102 $101 $196 $197 reversed $103 $-1 #
edge $-1 $104 0 $198 0.46000000000000002 $101 $199 forward 7 unknown #
face $-1 $189 $103 $2 $-1 $200 reversed single #
point $-1 -5.968999999999999417 -5.58799999999999919 0 #
coedge $-1 $196 $190 $106 $153 forward $201 $-1 #
edge $-1 $156 0 $154 0.4699999999999999734 $152 $202 forward 7 unknown #
vertex $-1 $197 $203 #
straight-curve $-1 -5.968999999999999417 5.58799999999999919 0 0 0 -25.39999999999999858 I I #
vertex $-1 $153 $204 #
straight-curve $-1 5.968999999999999417 5.58799999999999919 0 0 0 -25.39999999999999858 I I #
plane-surface $-1 5.968999999999999417 5.58799999999999919 0 0 1 0 -25.39999999999999858 0 0 forward_v I I I I #
face $-1 $205 $206 $2 $-1 $207 forward single #
loop $-1 $-1 $208 $117 #
plane-surface $-1 9.906000000000000583 6.984999999999998543 0 1 0 0 0 0 -25.39999999999999858 forward_v I I I I #
coedge $-1 $209 $210 $211 $212 reversed $118 $-1 #
coedge $-1 $213 $121 $214 $215 reversed $79 $-1 #
coedge $-1 $121 $213 $216 $217 reversed $79 $-1 #
coedge $-1 $210 $209 $121 $166 forward $118 $-1 #
edge $-1 $218 0 $219 0.2450000000000001066 $121 $220 forward 7 unknown #
straight-curve $-1 -7.873999999999999666 6.984999999999998543 -27.43199999999999861 25.39999999999999858 0 0 I I #
point $-1 7.873999999999999666 6.984999999999998543 -27.43199999999999861 #
coedge $-1 $221 $222 $125 $170 forward $223 $-1 #
edge $-1 $179 0 $174 0.1799999999999999656 $125 $224 forward 7 unknown #
coedge $-1 $225 $126 $131 $183 forward $173 $-1 #
coedge $-1 $126 $225 $221 $226 reversed $173 $-1 #
loop $-1 $-1 $171 $227 #
vertex $-1 $170 $228 #
straight-curve $-1 -7.873999999999999666 5.206999999999999851 -12.69999999999999929 0 0 -25.39999999999999858 I I #
coedge $-1 $229 $128 $222 $230 forward $178 $-1 #
coedge $-1 $128 $229 $130 $182 reversed $178 $-1 #
loop $-1 $-1 $176 $231 #
vertex $-1 $129 $232 #
straight-curve $-1 -7.873999999999999666 0.635000000000000564 -18.92300000000000182 0 0 25.39999999999999858 I I #
coedge $-1 $131 $130 $233 $234 reversed $132 $-1 #
edge $-1 $134 0 $235 0.0800000000000000433 $177 $236 forward 7 unknown #
edge $-1 $133 0 $237 0.0800000000000000433 $171 $238 forward 7 unknown #
face $-1 $231 $132 $2 $-1 $239 forward single #
point $-1 -7.873999999999999666 5.206999999999999851 -18.92300000000000182 #
point $-1 -7.873999999999999666 0.635000000000000564 -18.92300000000000182 #
straight-curve $-1 7.873999999999999666 6.984999999999998543 -27.43199999999999861 0 -25.39999999999999858 0 I I #
coedge $-1 $141 $140 $240 $241 reversed $142 $-1 #
face $-1 $146 $142 $2 $-1 $242 reversed single #
coedge $-1 $152 $240 $144 $191 forward $201 $-1 #
edge $-1 $192 0 $156 0.4399999999999999467 $190 $243 forward 7 unknown #
vertex $-1 $191 $244 #
straight-curve $-1 5.968999999999999417 -5.58799999999999919 0 0 0 -25.39999999999999858 I I #
face $-1 $-1 $201 $2 $-1 $245 forward single #
plane-surface $-1 5.968999999999999417 -5.58799999999999919 0 1 0 0 0 25.39999999999999858 0 forward_v I I I I #
coedge $-1 $240 $152 $148 $197 forward $201 $-1 #
edge $-1 $154 0 $198 0.4399999999999999467 $196 $246 forward 7 unknown #
vertex $-1 $197 $247 #
straight-curve $-1 -5.968999999999999417 -5.58799999999999919 0 0 0 -25.39999999999999858 I I #
plane-surface $-1 -5.968999999999999417 5.58799999999999919 0 -1 0 0 0 -25.39999999999999858 0 forward_v I I I I #
loop $-1 $-1 $240 $194 #
straight-curve $-1 5.968999999999999417 5.58799999999999919 -11.68399999999999928 -25.39999999999999858 0 0 I I #
point $-1 -5.968999999999999417 5.58799999999999919 -11.68399999999999928 #
point $-1 5.968999999999999417 5.58799999999999919 -11.68399999999999928 #
face $-1 $248 $249 $2 $-1 $250 forward single #
loop $-1 $-1 $251 $159 #
plane-surface $-1 7.873999999999999666 -0.635000000000000564 -12.69999999999999929 0 0 1 0 -25.39999999999999858 0 forward_v I I I I #
coedge $-1 $252 $211 $253 $254 forward $160 $-1 #
coedge $-1 $165 $162 $255 $256 reversed $118 $-1 #
coedge $-1 $162 $165 $257 $258 forward $118 $-1 #
coedge $-1 $208 $259 $162 $212 forward $160 $-1 #
edge $-1 $260 0 $261 0.2450000000000001066 $211 $262 forward 7 unknown #
coedge $-1 $164 $163 $263 $264 reversed $79 $-1 #
coedge $-1 $255 $265 $163 $215 forward $266 $-1 #
edge $-1 $267 0 $218 0.1799999999999999656 $163 $268 forward 7 unknown #
coedge $-1 $251 $257 $164 $217 forward $206 $-1 #
edge $-1 $219 0 $269 0.1799999999999999656 $164 $270 forward 7 unknown #
vertex $-1 $215 $271 #
vertex $-1 $217 $272 #
straight-curve $-1 7.873999999999999666 -0.635000000000000564 -18.92300000000000182 0 0 25.39999999999999858 I I #
coedge $-1 $273 $169 $172 $226 forward $223 $-1 #
coedge $-1 $169 $273 $176 $230 reversed $223 $-1 #
loop $-1 $-1 $221 $274 #
straight-curve $-1 -7.873999999999999666 0.635000000000000564 -12.69999999999999929 0 25.39999999999999858 0 I I #
coedge $-1 $172 $171 $275 $276 reversed $173 $-1 #
edge $-1 $174 0 $277 0.0800000000000000433 $221 $278 forward 7 unknown #
face $-1 $279 $173 $2 $-1 $280 forward single #
point $-1 -7.873999999999999666 5.206999999999999851 -12.69999999999999929 #
coedge $-1 $177 $176 $281 $282 reversed $178 $-1 #
edge $-1 $179 0 $283 0.0800000000000000433 $176 $284 forward 7 unknown #
face $-1 $274 $178 $2 $-1 $285 forward single #
point $-1 -7.873999999999999666 0.635000000000000564 -12.69999999999999929 #
coedge $-1 $281 $275 $181 $234 forward $286 $-1 #
edge $-1 $237 0 $235 0.1799999999999999656 $233 $287 forward 7 unknown #
vertex $-1 $282 $288 #
straight-curve $-1 -7.873999999999999666 0.635000000000000564 -18.92300000000000182 -25.39999999999999858 0 0 I I #
vertex $-1 $234 $289 #
straight-curve $-1 -7.873999999999999666 5.206999999999999851 -18.92300000000000182 -25.39999999999999858 0 0 I I #
plane-surface $-1 -7.873999999999999666 5.206999999999999851 -18.92300000000000182 0 0 -1 0 -25.39999999999999858 0 forward_v I I I I #
coedge $-1 $190 $196 $188 $241 forward $201 $-1 #
edge $-1 $198 0 $192 0.4699999999999999734 $240 $290 forward 7 unknown #
plane-surface $-1 -5.968999999999999417 -5.58799999999999919 0 0 -1 0 25.39999999999999858 0 0 forward_v I I I I #
straight-curve $-1 5.968999999999999417 -5.58799999999999919 -11.68399999999999928 0 25.39999999999999858 0 I I #
point $-1 5.968999999999999417 -5.58799999999999919 -11.68399999999999928 #
plane-surface $-1 0 0 -11.68399999999999928 0 0 1 25.39999999999999858 0 0 forward_v I I I I #
straight-curve $-1 -5.968999999999999417 5.58799999999999919 -11.68399999999999928 0 -25.39999999999999858 0 I I #
point $-1 -5.968999999999999417 -5.58799999999999919 -11.68399999999999928 #
face $-1 $184 $266 $2 $-1 $291 forward single #
loop $-1 $-1 $292 $205 #
plane-surface $-1 7.873999999999999666 -5.206999999999999851 -12.69999999999999929 0 -1 0 0 0 -25.39999999999999858 forward_v I I I I #
coedge $-1 $253 $216 $293 $294 forward $206 $-1 #
coedge $-1 $259 $208 $295 $296 forward $160 $-1 #
coedge $-1 $257 $251 $208 $254 reversed $206 $-1 #
edge $-1 $261 0 $297 0.1799999999999999656 $208 $298 forward 7 unknown #
coedge $-1 $299 $214 $209 $256 forward $266 $-1 #
edge $-1 $218 0 $260 0.0800000000000000433 $209 $300 forward 7 unknown #
coedge $-1 $216 $253 $210 $258 reversed $206 $-1 #
edge $-1 $219 0 $261 0.0800000000000000433 $210 $301 forward 7 unknown #
coedge $-1 $211 $252 $299 $302 forward $160 $-1 #
vertex $-1 $212 $303 #
vertex $-1 $212 $304 #
straight-curve $-1 9.906000000000000583 -0.635000000000000564 -18.92300000000000182 0 0 25.39999999999999858 I I #
coedge $-1 $292 $293 $213 $264 forward $249 $-1 #
edge $-1 $269 0 $267 0.2450000000000001066 $213 $305 forward 7 unknown #
coedge $-1 $214 $299 $292 $306 reversed $266 $-1 #
loop $-1 $-1 $255 $248 #
vertex $-1 $264 $307 #
straight-curve $-1 7.873999999999999666 -5.206999999999999851 -18.92300000000000182 0 25.39999999999999858 0 I I #
vertex $-1 $217 $308 #
straight-curve $-1 7.873999999999999666 -0.635000000000000564 -12.69999999999999929 0 -25.39999999999999858 0 I I #
point $-1 7.873999999999999666 -0.635000000000000564 -18.92300000000000182 #
point $-1 7.873999999999999666 -0.635000000000000564 -12.69999999999999929 #
coedge $-1 $222 $221 $309 $310 reversed $223 $-1 #
face $-1 $227 $223 $2 $-1 $311 forward single #
coedge $-1 $233 $309 $225 $276 forward $286 $-1 #
edge $-1 $277 0 $237 0.2450000000000001066 $275 $312 forward 7 unknown #
vertex $-1 $276 $313 #
straight-curve $-1 -7.873999999999999666 5.206999999999999851 -12.69999999999999929 -25.39999999999999858 0 0 I I #
face $-1 $109 $286 $2 $-1 $314 forward single #
plane-surface $-1 -7.873999999999999666 5.206999999999999851 -12.69999999999999929 0 1 0 0 0 -25.39999999999999858 forward_v I I I I #
coedge $-1 $309 $233 $229 $282 forward $286 $-1 #
edge $-1 $235 0 $283 0.2450000000000001066 $281 $315 forward 7 unknown #
vertex $-1 $282 $316 #
straight-curve $-1 -7.873999999999999666 0.635000000000000564 -12.69999999999999929 -25.39999999999999858 0 0 I I #
plane-surface $-1 -7.873999999999999666 0.635000000000000564 -18.92300000000000182 0 -1 0 0 0 25.39999999999999858 forward_v I I I I #
loop $-1 $-1 $309 $279 #
straight-curve $-1 -9.906000000000000583 5.206999999999999851 -18.92300000000000182 0 -25.39999999999999858 0 I I #
point $-1 -9.906000000000000583 0.635000000000000564 -18.92300000000000182 #
point $-1 -9.906000000000000583 5.206999999999999851 -18.92300000000000182 #
straight-curve $-1 -5.968999999999999417 -5.58799999999999919 -11.68399999999999928 25.39999999999999858 0 0 I I #
plane-surface $-1 7.873999999999999666 -5.206999999999999851 -18.92300000000000182 0 0 -1 0 25.39999999999999858 0 forward_v I I I I #
coedge $-1 $295 $263 $265 $306 forward $249 $-1 #
coedge $-1 $263 $295 $251 $294 reversed $249 $-1 #
edge $-1 $269 0 $297 0.0800000000000000433 $251 $317 forward 7 unknown #
coedge $-1 $293 $292 $252 $296 reversed $249 $-1 #
edge $-1 $297 0 $318 0.2450000000000001066 $252 $319 forward 7 unknown #
vertex $-1 $296 $320 #
straight-curve $-1 9.906000000000000583 -0.635000000000000564 -12.69999999999999929 0 -25.39999999999999858 0 I I #
coedge $-1 $265 $255 $259 $302 reversed $266 $-1 #
straight-curve $-1 7.873999999999999666 -0.635000000000000564 -18.92300000000000182 25.39999999999999858 0 0 I I #
straight-curve $-1 7.873999999999999666 -0.635000000000000564 -12.69999999999999929 25.39999999999999858 0 0 I I #
edge $-1 $318 0 $260 0.1799999999999999656 $259 $321 forward 7 unknown #
point $-1 9.906000000000000583 -0.635000000000000564 -18.92300000000000182 #
point $-1 9.906000000000000583 -0.635000000000000564 -12.69999999999999929 #
straight-curve $-1 7.873999999999999666 -5.206999999999999851 -12.69999999999999929 0 0 -25.39999999999999858 I I #
edge $-1 $267 0 $318 0.0800000000000000433 $292 $322 forward 7 unknown #
point $-1 7.873999999999999666 -5.206999999999999851 -18.92300000000000182 #
point $-1 7.873999999999999666 -5.206999999999999851 -12.69999999999999929 #
coedge $-1 $275 $281 $273 $310 forward $286 $-1 #
edge $-1 $283 0 $277 0.1799999999999999656 $309 $323 forward 7 unknown #
plane-surface $-1 -7.873999999999999666 0.635000000000000564 -12.69999999999999929 0 0 1 0 25.39999999999999858 0 forward_v I I I I #
straight-curve $-1 -9.906000000000000583 5.206999999999999851 -12.69999999999999929 0 0 -25.39999999999999858 I I #
point $-1 -9.906000000000000583 5.206999999999999851 -12.69999999999999929 #
plane-surface $-1 -9.906000000000000583 -6.984999999999998543 0 -1 0 0 0 0 25.39999999999999858 forward_v I I I I #
straight-curve $-1 -9.906000000000000583 0.635000000000000564 -18.92300000000000182 0 0 25.39999999999999858 I I #
point $-1 -9.906000000000000583 0.635000000000000564 -12.69999999999999929 #
straight-curve $-1 7.873999999999999666 -5.206999999999999851 -12.69999999999999929 25.39999999999999858 0 0 I I #
vertex $-1 $302 $324 #
straight-curve $-1 9.906000000000000583 -5.206999999999999851 -12.69999999999999929 0 0 -25.39999999999999858 I I #
point $-1 9.906000000000000583 -5.206999999999999851 -12.69999999999999929 #
straight-curve $-1 9.906000000000000583 -5.206999999999999851 -18.92300000000000182 0 25.39999999999999858 0 I I #
straight-curve $-1 7.873999999999999666 -5.206999999999999851 -18.92300000000000182 25.39999999999999858 0 0 I I #
straight-curve $-1 -9.906000000000000583 0.635000000000000564 -12.69999999999999929 0 25.39999999999999858 0 I I #
point $-1 9.906000000000000583 -5.206999999999999851 -18.92300000000000182 #
End-of-ACIS-data 