600 0 1 0           
94 GICL Pro/E ACIS Translator - Source: f:/data5/repository/PTC/V18/cabdia18/mnl-female.prt - 6 0 13 ACIS 6.0.3 NT 24 Thu Apr 04 10:03:16 2002 
1 9.9999999999999995e-007 1e-010 
body $-1 $1 $-1 $2 #
lump $-1 $-1 $3 $0 #
transform $-1 1 0 0 0 1 0 0 0 1 0 0 0 25.399999999999999 no_rotate no_reflect no_shear #
shell $-1 $-1 $-1 $4 $-1 $1 #
face $-1 $5 $6 $3 $-1 $7 reversed single #
face $-1 $8 $9 $3 $-1 $10 forward single #
loop $-1 $11 $12 $4 #
plane-surface $-1 0 0 0 0 0 -1 1 0 0 forward_v I I I I #
face $-1 $13 $14 $3 $-1 $15 forward single #
loop $-1 $-1 $16 $5 #
plane-surface $-1 0.31 -0.27499999999999997 0 0 -1 0 -1 0 0 forward_v I I I I #
loop $-1 $-1 $17 $4 #
coedge $-1 $18 $19 $20 $21 reversed $6 $-1 #
face $-1 $22 $23 $3 $-1 $24 forward single #
loop $-1 $25 $26 $8 #
plane-surface $-1 -0.31 -0.27499999999999997 0 -1 0 0 0 1 0 forward_v I I I I #
coedge $-1 $27 $20 $28 $29 forward $9 $-1 #
coedge $-1 $30 $31 $32 $33 reversed $11 $-1 #
coedge $-1 $34 $12 $35 $36 reversed $6 $-1 #
coedge $-1 $12 $34 $37 $38 reversed $6 $-1 #
coedge $-1 $16 $39 $12 $21 forward $9 $-1 #
edge $-1 $40 0 $41 0.62 $12 $42 forward 7 unknown #
face $-1 $43 $44 $3 $-1 $45 forward single #
loop $-1 $-1 $46 $13 #
plane-surface $-1 -0.31 0.27499999999999997 0 0 1 0 1 0 0 forward_v I I I I #
loop $-1 $-1 $47 $8 #
coedge $-1 $48 $37 $49 $50 forward $14 $-1 #
coedge $-1 $39 $16 $51 $52 reversed $9 $-1 #
coedge $-1 $37 $48 $16 $29 reversed $14 $-1 #
edge $-1 $41 0 $53 1.0800000000000001 $28 $54 forward 7 unknown #
coedge $-1 $55 $17 $56 $57 reversed $11 $-1 #
coedge $-1 $17 $55 $58 $59 reversed $11 $-1 #
coedge $-1 $60 $61 $17 $33 forward $62 $-1 #
edge $-1 $63 0 $64 0.46999999999999997 $17 $65 forward 7 unknown #
coedge $-1 $19 $18 $66 $67 reversed $6 $-1 #
coedge $-1 $68 $69 $18 $36 forward $44 $-1 #
edge $-1 $70 0 $40 0.54999999999999993 $18 $71 forward 7 unknown #
coedge $-1 $26 $28 $19 $38 forward $14 $-1 #
edge $-1 $41 0 $72 0.54999999999999993 $19 $73 forward 7 unknown #
coedge $-1 $20 $27 $68 $74 reversed $9 $-1 #
vertex $-1 $36 $75 #
vertex $-1 $38 $76 #
straight-curve $-1 0.31 -0.27499999999999997 0 -1 0 0 I I #
face $-1 $77 $78 $3 $-1 $79 forward single #
loop $-1 $80 $68 $22 #
plane-surface $-1 0.31 0.27499999999999997 0 1 0 0 0 -1 0 forward_v I I I I #
coedge $-1 $81 $66 $69 $82 forward $23 $-1 #
coedge $-1 $83 $84 $85 $86 reversed $25 $-1 #
coedge $-1 $28 $26 $87 $88 reversed $14 $-1 #
coedge $-1 $66 $81 $26 $50 reversed $23 $-1 #
edge $-1 $72 0 $89 1.0800000000000001 $26 $90 forward 7 unknown #
coedge $-1 $87 $91 $27 $52 forward $78 $-1 #
edge $-1 $92 0 $53 0.62 $51 $93 forward 7 unknown #
vertex $-1 $88 $94 #
straight-curve $-1 -0.31 -0.27499999999999997 0 0 0 -1 I I #
coedge $-1 $31 $30 $95 $96 reversed $11 $-1 #
coedge $-1 $97 $98 $30 $57 forward $99 $-1 #
edge $-1 $100 0 $63 0.43999999999999995 $30 $101 forward 7 unknown #
coedge $-1 $102 $103 $31 $59 forward $104 $-1 #
edge $-1 $64 0 $105 0.43999999999999995 $31 $106 forward 7 unknown #
coedge $-1 $107 $32 $103 $108 forward $62 $-1 #
coedge $-1 $32 $107 $97 $109 reversed $62 $-1 #
loop $-1 $-1 $60 $110 #
vertex $-1 $57 $111 #
vertex $-1 $59 $112 #
straight-curve $-1 0.23499999999999999 0.21999999999999997 0 -1 0 0 I I #
coedge $-1 $46 $49 $34 $67 forward $23 $-1 #
edge $-1 $72 0 $70 0.62 $34 $113 forward 7 unknown #
coedge $-1 $114 $35 $39 $74 forward $44 $-1 #
coedge $-1 $35 $114 $46 $82 reversed $44 $-1 #
vertex $-1 $67 $115 #
straight-curve $-1 0.31 0.27499999999999997 0 0 -1 0 I I #
vertex $-1 $38 $116 #
straight-curve $-1 -0.31 -0.27499999999999997 0 0 1 0 I I #
edge $-1 $40 0 $92 1.0800000000000001 $68 $117 forward 7 unknown #
point $-1 0.31 -0.27499999999999997 0 #
point $-1 -0.31 -0.27499999999999997 0 #
face $-1 $118 $119 $3 $-1 $120 forward single #
loop $-1 $-1 $121 $43 #
plane-surface $-1 0 0 -1.0800000000000001 0 0 -1 1 0 0 forward_v I I I I #
loop $-1 $-1 $122 $22 #
coedge $-1 $49 $46 $121 $123 reversed $23 $-1 #
edge $-1 $70 0 $124 1.0800000000000001 $46 $125 forward 7 unknown #
coedge $-1 $126 $47 $127 $128 reversed $25 $-1 #
coedge $-1 $47 $126 $129 $130 reversed $25 $-1 #
coedge $-1 $131 $132 $47 $86 forward $133 $-1 #
edge $-1 $134 0 $135 0.17999999999999999 $47 $136 forward 7 unknown #
coedge $-1 $121 $51 $48 $88 forward $78 $-1 #
edge $-1 $53 0 $89 0.54999999999999993 $87 $137 forward 7 unknown #
vertex $-1 $88 $138 #
straight-curve $-1 -0.31 0.27499999999999997 0 0 0 -1 I I #
coedge $-1 $51 $121 $114 $139 forward $78 $-1 #
vertex $-1 $52 $140 #
straight-curve $-1 0.31 -0.27499999999999997 -1.0800000000000001 -1 0 0 I I #
point $-1 -0.31 -0.27499999999999997 -1.0800000000000001 #
coedge $-1 $141 $142 $55 $96 forward $143 $-1 #
edge $-1 $105 0 $100 0.46999999999999997 $55 $144 forward 7 unknown #
coedge $-1 $145 $56 $61 $109 forward $99 $-1 #
coedge $-1 $56 $145 $141 $146 reversed $99 $-1 #
loop $-1 $-1 $97 $147 #
vertex $-1 $96 $148 #
straight-curve $-1 0.23499999999999999 -0.21999999999999997 0 0 1 0 I I #
coedge $-1 $149 $58 $142 $150 forward $104 $-1 #
coedge $-1 $58 $149 $60 $108 reversed $104 $-1 #
loop $-1 $-1 $102 $151 #
vertex $-1 $59 $152 #
straight-curve $-1 -0.23499999999999999 0.21999999999999997 0 0 -1 0 I I #
coedge $-1 $61 $60 $153 $154 reversed $62 $-1 #
edge $-1 $64 0 $155 0.46000000000000002 $103 $156 forward 7 unknown #
edge $-1 $63 0 $157 0.46000000000000002 $97 $158 forward 7 unknown #
face $-1 $151 $62 $3 $-1 $159 reversed single #
point $-1 0.23499999999999999 0.21999999999999997 0 #
point $-1 -0.23499999999999999 0.21999999999999997 0 #
straight-curve $-1 -0.31 0.27499999999999997 0 1 0 0 I I #
coedge $-1 $69 $68 $91 $139 reversed $44 $-1 #
point $-1 0.31 0.27499999999999997 0 #
point $-1 -0.31 0.27499999999999997 0 #
straight-curve $-1 0.31 -0.27499999999999997 0 0 0 -1 I I #
face $-1 $160 $161 $3 $-1 $162 forward single #
loop $-1 $-1 $163 $77 #
plane-surface $-1 0.31 -0.025000000000000022 -0.74500000000000011 0 1 0 0 0 1 forward_v I I I I #
coedge $-1 $91 $87 $81 $123 forward $78 $-1 #
coedge $-1 $164 $165 $166 $167 reversed $80 $-1 #
edge $-1 $89 0 $124 0.62 $121 $168 forward 7 unknown #
vertex $-1 $139 $169 #
straight-curve $-1 0.31 0.27499999999999997 0 0 0 -1 I I #
coedge $-1 $84 $83 $170 $171 reversed $25 $-1 #
coedge $-1 $172 $173 $83 $128 forward $174 $-1 #
edge $-1 $175 0 $134 0.24500000000000011 $83 $176 forward 7 unknown #
coedge $-1 $177 $178 $84 $130 forward $179 $-1 #
edge $-1 $135 0 $180 0.24500000000000011 $84 $181 forward 7 unknown #
coedge $-1 $182 $85 $178 $183 forward $133 $-1 #
coedge $-1 $85 $182 $172 $184 reversed $133 $-1 #
loop $-1 $-1 $131 $185 #
vertex $-1 $128 $186 #
vertex $-1 $130 $187 #
straight-curve $-1 -0.31 0.20500000000000002 -0.74500000000000011 0 -1 0 I I #
straight-curve $-1 -0.31 -0.27499999999999997 -1.0800000000000001 0 1 0 I I #
point $-1 -0.31 0.27499999999999997 -1.0800000000000001 #
edge $-1 $124 0 $92 0.54999999999999993 $91 $188 forward 7 unknown #
point $-1 0.31 -0.27499999999999997 -1.0800000000000001 #
coedge $-1 $189 $95 $98 $146 forward $143 $-1 #
coedge $-1 $95 $189 $102 $150 reversed $143 $-1 #
loop $-1 $-1 $141 $190 #
straight-curve $-1 -0.23499999999999999 -0.21999999999999997 0 1 0 0 I I #
coedge $-1 $98 $97 $191 $192 reversed $99 $-1 #
edge $-1 $100 0 $193 0.46000000000000002 $141 $194 forward 7 unknown #
face $-1 $195 $99 $3 $-1 $196 reversed single #
point $-1 0.23499999999999999 -0.21999999999999997 0 #
coedge $-1 $103 $102 $197 $198 reversed $104 $-1 #
edge $-1 $105 0 $199 0.46000000000000002 $102 $200 forward 7 unknown #
face $-1 $190 $104 $3 $-1 $201 reversed single #
point $-1 -0.23499999999999999 -0.21999999999999997 0 #
coedge $-1 $197 $191 $107 $154 forward $202 $-1 #
edge $-1 $157 0 $155 0.46999999999999997 $153 $203 forward 7 unknown #
vertex $-1 $198 $204 #
straight-curve $-1 -0.23499999999999999 0.21999999999999997 0 0 0 -1 I I #
vertex $-1 $154 $205 #
straight-curve $-1 0.23499999999999999 0.21999999999999997 0 0 0 -1 I I #
plane-surface $-1 0.23499999999999999 0.21999999999999997 0 0 1 0 -1 0 0 forward_v I I I I #
face $-1 $206 $207 $3 $-1 $208 forward single #
loop $-1 $-1 $209 $118 #
plane-surface $-1 0.39000000000000001 0.27499999999999997 0 1 0 0 0 0 -1 forward_v I I I I #
coedge $-1 $210 $211 $212 $213 reversed $119 $-1 #
coedge $-1 $214 $122 $215 $216 reversed $80 $-1 #
coedge $-1 $122 $214 $217 $218 reversed $80 $-1 #
coedge $-1 $211 $210 $122 $167 forward $119 $-1 #
edge $-1 $219 0 $220 0.24500000000000011 $122 $221 forward 7 unknown #
straight-curve $-1 -0.31 0.27499999999999997 -1.0800000000000001 1 0 0 I I #
point $-1 0.31 0.27499999999999997 -1.0800000000000001 #
coedge $-1 $222 $223 $126 $171 forward $224 $-1 #
edge $-1 $180 0 $175 0.17999999999999999 $126 $225 forward 7 unknown #
coedge $-1 $226 $127 $132 $184 forward $174 $-1 #
coedge $-1 $127 $226 $222 $227 reversed $174 $-1 #
loop $-1 $-1 $172 $228 #
vertex $-1 $171 $229 #
straight-curve $-1 -0.31 0.20500000000000002 -0.5 0 0 -1 I I #
coedge $-1 $230 $129 $223 $231 forward $179 $-1 #
coedge $-1 $129 $230 $131 $183 reversed $179 $-1 #
loop $-1 $-1 $177 $232 #
vertex $-1 $130 $233 #
straight-curve $-1 -0.31 0.025000000000000022 -0.74500000000000011 0 0 1 I I #
coedge $-1 $132 $131 $234 $235 reversed $133 $-1 #
edge $-1 $135 0 $236 0.080000000000000016 $178 $237 forward 7 unknown #
edge $-1 $134 0 $238 0.080000000000000016 $172 $239 forward 7 unknown #
face $-1 $232 $133 $3 $-1 $240 forward single #
point $-1 -0.31 0.20500000000000002 -0.74500000000000011 #
point $-1 -0.31 0.025000000000000022 -0.74500000000000011 #
straight-curve $-1 0.31 0.27499999999999997 -1.0800000000000001 0 -1 0 I I #
coedge $-1 $142 $141 $241 $242 reversed $143 $-1 #
face $-1 $147 $143 $3 $-1 $243 reversed single #
coedge $-1 $153 $241 $145 $192 forward $202 $-1 #
edge $-1 $193 0 $157 0.43999999999999995 $191 $244 forward 7 unknown #
vertex $-1 $192 $245 #
straight-curve $-1 0.23499999999999999 -0.21999999999999997 0 0 0 -1 I I #
face $-1 $-1 $202 $3 $-1 $246 forward single #
plane-surface $-1 0.23499999999999999 -0.21999999999999997 0 1 0 0 0 1 0 forward_v I I I I #
coedge $-1 $241 $153 $149 $198 forward $202 $-1 #
edge $-1 $155 0 $199 0.43999999999999995 $197 $247 forward 7 unknown #
vertex $-1 $198 $248 #
straight-curve $-1 -0.23499999999999999 -0.21999999999999997 0 0 0 -1 I I #
plane-surface $-1 -0.23499999999999999 0.21999999999999997 0 -1 0 0 0 -1 0 forward_v I I I I #
loop $-1 $-1 $241 $195 #
straight-curve $-1 0.23499999999999999 0.21999999999999997 -0.46000000000000002 -1 0 0 I I #
point $-1 -0.23499999999999999 0.21999999999999997 -0.46000000000000002 #
point $-1 0.23499999999999999 0.21999999999999997 -0.46000000000000002 #
face $-1 $249 $250 $3 $-1 $251 forward single #
loop $-1 $-1 $252 $160 #
plane-surface $-1 0.31 -0.025000000000000022 -0.5 0 0 1 0 -1 0 forward_v I I I I #
coedge $-1 $253 $212 $254 $255 forward $161 $-1 #
coedge $-1 $166 $163 $256 $257 reversed $119 $-1 #
coedge $-1 $163 $166 $258 $259 forward $119 $-1 #
coedge $-1 $209 $260 $163 $213 forward $161 $-1 #
edge $-1 $261 0 $262 0.24500000000000011 $212 $263 forward 7 unknown #
coedge $-1 $165 $164 $264 $265 reversed $80 $-1 #
coedge $-1 $256 $266 $164 $216 forward $267 $-1 #
edge $-1 $268 0 $219 0.17999999999999999 $164 $269 forward 7 unknown #
coedge $-1 $252 $258 $165 $218 forward $207 $-1 #
edge $-1 $220 0 $270 0.17999999999999999 $165 $271 forward 7 unknown #
vertex $-1 $216 $272 #
vertex $-1 $218 $273 #
straight-curve $-1 0.31 -0.025000000000000022 -0.74500000000000011 0 0 1 I I #
coedge $-1 $274 $170 $173 $227 forward $224 $-1 #
coedge $-1 $170 $274 $177 $231 reversed $224 $-1 #
loop $-1 $-1 $222 $275 #
straight-curve $-1 -0.31 0.025000000000000022 -0.5 0 1 0 I I #
coedge $-1 $173 $172 $276 $277 reversed $174 $-1 #
edge $-1 $175 0 $278 0.080000000000000016 $222 $279 forward 7 unknown #
face $-1 $280 $174 $3 $-1 $281 forward single #
point $-1 -0.31 0.20500000000000002 -0.5 #
coedge $-1 $178 $177 $282 $283 reversed $179 $-1 #
edge $-1 $180 0 $284 0.080000000000000016 $177 $285 forward 7 unknown #
face $-1 $275 $179 $3 $-1 $286 forward single #
point $-1 -0.31 0.025000000000000022 -0.5 #
coedge $-1 $282 $276 $182 $235 forward $287 $-1 #
edge $-1 $238 0 $236 0.17999999999999999 $234 $288 forward 7 unknown #
vertex $-1 $283 $289 #
straight-curve $-1 -0.31 0.025000000000000022 -0.74500000000000011 -1 0 0 I I #
vertex $-1 $235 $290 #
straight-curve $-1 -0.31 0.20500000000000002 -0.74500000000000011 -1 0 0 I I #
plane-surface $-1 -0.31 0.20500000000000002 -0.74500000000000011 0 0 -1 0 -1 0 forward_v I I I I #
coedge $-1 $191 $197 $189 $242 forward $202 $-1 #
edge $-1 $199 0 $193 0.46999999999999997 $241 $291 forward 7 unknown #
plane-surface $-1 -0.23499999999999999 -0.21999999999999997 0 0 -1 0 1 0 0 forward_v I I I I #
straight-curve $-1 0.23499999999999999 -0.21999999999999997 -0.46000000000000002 0 1 0 I I #
point $-1 0.23499999999999999 -0.21999999999999997 -0.46000000000000002 #
plane-surface $-1 0 0 -0.46000000000000002 0 0 1 1 0 0 forward_v I I I I #
straight-curve $-1 -0.23499999999999999 0.21999999999999997 -0.46000000000000002 0 -1 0 I I #
point $-1 -0.23499999999999999 -0.21999999999999997 -0.46000000000000002 #
face $-1 $185 $267 $3 $-1 $292 forward single #
loop $-1 $-1 $293 $206 #
plane-surface $-1 0.31 -0.20500000000000002 -0.5 0 -1 0 0 0 -1 forward_v I I I I #
coedge $-1 $254 $217 $294 $295 forward $207 $-1 #
coedge $-1 $260 $209 $296 $297 forward $161 $-1 #
coedge $-1 $258 $252 $209 $255 reversed $207 $-1 #
edge $-1 $262 0 $298 0.17999999999999999 $209 $299 forward 7 unknown #
coedge $-1 $300 $215 $210 $257 forward $267 $-1 #
edge $-1 $219 0 $261 0.080000000000000016 $210 $301 forward 7 unknown #
coedge $-1 $217 $254 $211 $259 reversed $207 $-1 #
edge $-1 $220 0 $262 0.080000000000000016 $211 $302 forward 7 unknown #
coedge $-1 $212 $253 $300 $303 forward $161 $-1 #
vertex $-1 $213 $304 #
vertex $-1 $213 $305 #
straight-curve $-1 0.39000000000000001 -0.025000000000000022 -0.74500000000000011 0 0 1 I I #
coedge $-1 $293 $294 $214 $265 forward $250 $-1 #
edge $-1 $270 0 $268 0.24500000000000011 $214 $306 forward 7 unknown #
coedge $-1 $215 $300 $293 $307 reversed $267 $-1 #
loop $-1 $-1 $256 $249 #
vertex $-1 $265 $308 #
straight-curve $-1 0.31 -0.20500000000000002 -0.74500000000000011 0 1 0 I I #
vertex $-1 $218 $309 #
straight-curve $-1 0.31 -0.025000000000000022 -0.5 0 -1 0 I I #
point $-1 0.31 -0.025000000000000022 -0.74500000000000011 #
point $-1 0.31 -0.025000000000000022 -0.5 #
coedge $-1 $223 $222 $310 $311 reversed $224 $-1 #
face $-1 $228 $224 $3 $-1 $312 forward single #
coedge $-1 $234 $310 $226 $277 forward $287 $-1 #
edge $-1 $278 0 $238 0.24500000000000011 $276 $313 forward 7 unknown #
vertex $-1 $277 $314 #
straight-curve $-1 -0.31 0.20500000000000002 -0.5 -1 0 0 I I #
face $-1 $110 $287 $3 $-1 $315 forward single #
plane-surface $-1 -0.31 0.20500000000000002 -0.5 0 1 0 0 0 -1 forward_v I I I I #
coedge $-1 $310 $234 $230 $283 forward $287 $-1 #
edge $-1 $236 0 $284 0.24500000000000011 $282 $316 forward 7 unknown #
vertex $-1 $283 $317 #
straight-curve $-1 -0.31 0.025000000000000022 -0.5 -1 0 0 I I #
plane-surface $-1 -0.31 0.025000000000000022 -0.74500000000000011 0 -1 0 0 0 1 forward_v I I I I #
loop $-1 $-1 $310 $280 #
straight-curve $-1 -0.39000000000000001 0.20500000000000002 -0.74500000000000011 0 -1 0 I I #
point $-1 -0.39000000000000001 0.025000000000000022 -0.74500000000000011 #
point $-1 -0.39000000000000001 0.20500000000000002 -0.74500000000000011 #
straight-curve $-1 -0.23499999999999999 -0.21999999999999997 -0.46000000000000002 1 0 0 I I #
plane-surface $-1 0.31 -0.20500000000000002 -0.74500000000000011 0 0 -1 0 1 0 forward_v I I I I #
coedge $-1 $296 $264 $266 $307 forward $250 $-1 #
coedge $-1 $264 $296 $252 $295 reversed $250 $-1 #
edge $-1 $270 0 $298 0.080000000000000016 $252 $318 forward 7 unknown #
coedge $-1 $294 $293 $253 $297 reversed $250 $-1 #
edge $-1 $298 0 $319 0.24500000000000011 $253 $320 forward 7 unknown #
vertex $-1 $297 $321 #
straight-curve $-1 0.39000000000000001 -0.025000000000000022 -0.5 0 -1 0 I I #
coedge $-1 $266 $256 $260 $303 reversed $267 $-1 #
straight-curve $-1 0.31 -0.025000000000000022 -0.74500000000000011 1 0 0 I I #
straight-curve $-1 0.31 -0.025000000000000022 -0.5 1 0 0 I I #
edge $-1 $319 0 $261 0.17999999999999999 $260 $322 forward 7 unknown #
point $-1 0.39000000000000001 -0.025000000000000022 -0.74500000000000011 #
point $-1 0.39000000000000001 -0.025000000000000022 -0.5 #
straight-curve $-1 0.31 -0.20500000000000002 -0.5 0 0 -1 I I #
edge $-1 $268 0 $319 0.080000000000000016 $293 $323 forward 7 unknown #
point $-1 0.31 -0.20500000000000002 -0.74500000000000011 #
point $-1 0.31 -0.20500000000000002 -0.5 #
coedge $-1 $276 $282 $274 $311 forward $287 $-1 #
edge $-1 $284 0 $278 0.17999999999999999 $310 $324 forward 7 unknown #
plane-surface $-1 -0.31 0.025000000000000022 -0.5 0 0 1 0 1 0 forward_v I I I I #
straight-curve $-1 -0.39000000000000001 0.20500000000000002 -0.5 0 0 -1 I I #
point $-1 -0.39000000000000001 0.20500000000000002 -0.5 #
plane-surface $-1 -0.39000000000000001 -0.27499999999999997 0 -1 0 0 0 0 1 forward_v I I I I #
straight-curve $-1 -0.39000000000000001 0.025000000000000022 -0.74500000000000011 0 0 1 I I #
point $-1 -0.39000000000000001 0.025000000000000022 -0.5 #
straight-curve $-1 0.31 -0.20500000000000002 -0.5 1 0 0 I I #
vertex $-1 $303 $325 #
straight-curve $-1 0.39000000000000001 -0.20500000000000002 -0.5 0 0 -1 I I #
point $-1 0.39000000000000001 -0.20500000000000002 -0.5 #
straight-curve $-1 0.39000000000000001 -0.20500000000000002 -0.74500000000000011 0 1 0 I I #
straight-curve $-1 0.31 -0.20500000000000002 -0.74500000000000011 1 0 0 I I #
straight-curve $-1 -0.39000000000000001 0.025000000000000022 -0.5 0 1 0 I I #
point $-1 0.39000000000000001 -0.20500000000000002 -0.74500000000000011 #
End-of-ACIS-data 