600 0 1 0           
89 GICL ACIS Healer - Source: /gicl/data5/repository/PTC/V18/cabdia18/mnl-srlf.prt.sat - 6 0 18 ACIS 6.0.3 Solaris 24 Sat Apr 13 22:29:41 2002 
1 9.999999999999999547e-07 1.000000000000000036e-10 
body $-1 $1 $-1 $-1 #
lump $-1 $-1 $2 $0 #
shell $-1 $-1 $-1 $3 $-1 $1 #
face $-1 $4 $5 $2 $-1 $6 reversed single #
face $-1 $7 $8 $2 $-1 $9 reversed single #
loop $-1 $10 $11 $3 #
plane-surface $-1 0 0 0 0 0 1 25.39999999999999858 0 0 forward_v I I I I #
face $-1 $12 $13 $2 $-1 $14 reversed single #
loop $-1 $-1 $15 $4 #
cone-surface $-1 0 0 33.01999999999999602 0 0 -1 -2.412999999999999812 0 0 1 I I 0 1 2.412999999999999812 forward I I I I #
loop $-1 $-1 $16 $3 #
coedge $-1 $17 $17 $18 $19 reversed $5 $-1 #
face $-1 $20 $21 $2 $-1 $22 forward single #
loop $-1 $-1 $23 $7 #
cone-surface $-1 0 0 33.01999999999999602 0 0 -1 -2.412999999999999812 0 0 1 I I 0 1 2.412999999999999812 forward I I I I #
coedge $-1 $18 $24 $25 $26 forward $8 $-1 #
coedge $-1 $27 $28 $29 $30 forward $10 $-1 #
coedge $-1 $11 $11 $31 $32 reversed $5 $-1 #
coedge $-1 $33 $15 $11 $19 forward $8 $-1 #
edge $-1 $34 0 $35 3.141592653589793116 $11 $36 forward 7 unknown #
face $-1 $37 $38 $2 $-1 $39 forward single #
loop $-1 $40 $41 $12 #
plane-surface $-1 0 0 33.01999999999999602 0 0 1 25.39999999999999858 0 0 forward_v I I I I #
coedge $-1 $31 $42 $33 $43 forward $13 $-1 #
coedge $-1 $15 $33 $41 $44 reversed $8 $-1 #
coedge $-1 $42 $31 $15 $26 reversed $13 $-1 #
edge $-1 $45 0 $34 1.299999999999999822 $25 $46 forward 7 unknown #
coedge $-1 $47 $16 $48 $49 reversed $10 $-1 #
coedge $-1 $16 $47 $50 $51 reversed $10 $-1 #
coedge $-1 $52 $53 $16 $30 reversed $54 $-1 #
edge $-1 $55 0 $56 0.9599999999999999645 $16 $57 forward 7 unknown #
coedge $-1 $25 $23 $17 $32 forward $13 $-1 #
edge $-1 $35 0 $34 3.141592653589793116 $17 $58 forward 7 unknown #
coedge $-1 $24 $18 $23 $43 reversed $8 $-1 #
vertex $-1 $32 $59 #
vertex $-1 $32 $60 #
ellipse-curve $-1 0 -8.812395257962179547e-17 0 0 0 -1 2.412999999999999812 8.812395257962179547e-17 0 1 I I #
face $-1 $61 $62 $2 $-1 $63 reversed single #
loop $-1 $-1 $64 $20 #
plane-surface $-1 7.873999999999999666 12.19199999999999839 0 0 1 0 -25.39999999999999858 0 0 forward_v I I I I #
loop $-1 $-1 $65 $12 #
coedge $-1 $66 $66 $24 $44 forward $21 $-1 #
coedge $-1 $23 $25 $66 $67 reversed $13 $-1 #
edge $-1 $68 0 $35 1.299999999999999822 $23 $69 forward 7 unknown #
edge $-1 $45 0 $68 3.141592653589793116 $41 $70 forward 7 unknown #
vertex $-1 $67 $71 #
straight-curve $-1 2.412999999999999812 2.954975131773396131e-16 33.01999999999999602 0 0 -25.39999999999999858 I I #
coedge $-1 $28 $27 $72 $73 reversed $10 $-1 #
coedge $-1 $74 $64 $27 $49 forward $38 $-1 #
edge $-1 $75 0 $56 0.6199999999999999956 $27 $76 forward 7 unknown #
coedge $-1 $77 $78 $28 $51 forward $79 $-1 #
edge $-1 $55 0 $80 0.6199999999999999956 $28 $81 forward 7 unknown #
coedge $-1 $82 $29 $78 $83 reversed $54 $-1 #
coedge $-1 $29 $84 $74 $85 forward $54 $-1 #
loop $-1 $-1 $53 $86 #
vertex $-1 $51 $87 #
vertex $-1 $49 $88 #
straight-curve $-1 -7.873999999999999666 -12.19199999999999839 0 0 25.39999999999999858 0 I I #
ellipse-curve $-1 0 1.762479051592435909e-16 0 0 0 -1 -2.412999999999999812 -1.762479051592435909e-16 0 1 I I #
point $-1 2.412999999999999812 0 0 #
point $-1 -2.412999999999999812 0 0 #
face $-1 $86 $79 $2 $-1 $89 forward single #
loop $-1 $-1 $90 $37 #
plane-surface $-1 7.873999999999999666 12.19199999999999839 0 -0.9970544855015815999 0 -0.07669649888473703547 -1.94809107167232054 0 25.32518393174017035 forward_v I I I I #
coedge $-1 $48 $91 $92 $93 reversed $38 $-1 #
coedge $-1 $94 $95 $91 $96 forward $40 $-1 #
coedge $-1 $41 $41 $42 $67 forward $21 $-1 #
edge $-1 $68 0 $45 3.141592653589793116 $66 $97 forward 7 unknown #
vertex $-1 $67 $98 #
straight-curve $-1 -2.412999999999999812 0 33.01999999999999602 0 0 -25.39999999999999858 I I #
ellipse-curve $-1 0 0 33.01999999999999602 0 0 -1 2.412999999999999812 0 0 1 I I #
point $-1 2.412999999999999812 0 33.01999999999999602 #
coedge $-1 $92 $90 $47 $73 forward $62 $-1 #
edge $-1 $80 0 $75 0.9599999999999999645 $47 $99 forward 7 unknown #
coedge $-1 $100 $48 $53 $85 reversed $38 $-1 #
vertex $-1 $73 $101 #
straight-curve $-1 7.873999999999999666 12.19199999999999839 0 -25.39999999999999858 0 0 I I #
coedge $-1 $102 $50 $90 $103 forward $79 $-1 #
coedge $-1 $50 $104 $52 $83 forward $79 $-1 #
loop $-1 $-1 $78 $61 #
vertex $-1 $51 $105 #
straight-curve $-1 -7.873999999999999666 -12.19199999999999839 0 25.39999999999999858 0 0 I I #
coedge $-1 $106 $52 $107 $108 forward $54 $-1 #
edge $-1 $109 0 $55 1.30384048104052952 $78 $110 forward 7 unknown #
coedge $-1 $53 $106 $111 $112 forward $54 $-1 #
edge $-1 $113 1.394586263445222287e-16 $56 0.702067951329516049 $74 $114 forward 7 unknown #
face $-1 $115 $54 $2 $-1 $116 reversed single #
point $-1 -7.873999999999999666 -12.19199999999999839 0 #
point $-1 -7.873999999999999666 12.19199999999999839 0 #
plane-surface $-1 -7.873999999999999666 -12.19199999999999839 0 0 -1 0 25.39999999999999858 0 0 forward_v I I I I #
coedge $-1 $72 $117 $77 $103 reversed $62 $-1 #
coedge $-1 $64 $118 $65 $96 reversed $38 $-1 #
coedge $-1 $119 $72 $64 $93 forward $62 $-1 #
edge $-1 $75 0 $120 1.30384048104052952 $64 $121 forward 7 unknown #
coedge $-1 $122 $65 $123 $124 reversed $40 $-1 #
coedge $-1 $65 $125 $119 $126 forward $40 $-1 #
edge $-1 $120 0 $127 0.5200000000000000178 $65 $128 forward 7 unknown #
ellipse-curve $-1 0 0 33.01999999999999602 0 0 -1 -2.412999999999999812 0 0 1 I I #
point $-1 -2.412999999999999812 0 33.01999999999999602 #
straight-curve $-1 7.873999999999999666 -12.19199999999999839 0 0 25.39999999999999858 0 I I #
coedge $-1 $118 $74 $129 $130 reversed $38 $-1 #
point $-1 7.873999999999999666 12.19199999999999839 0 #
coedge $-1 $131 $77 $132 $133 reversed $79 $-1 #
edge $-1 $80 0 $134 0.702067951329515938 $77 $135 forward 7 unknown #
coedge $-1 $78 $131 $136 $137 reversed $79 $-1 #
point $-1 7.873999999999999666 -12.19199999999999839 0 #
coedge $-1 $84 $82 $138 $139 forward $54 $-1 #
coedge $-1 $136 $122 $82 $108 reversed $40 $-1 #
edge $-1 $109 0 $140 0.6879999999999999449 $107 $141 forward 7 unknown #
vertex $-1 $137 $142 #
straight-curve $-1 -5.334000000000000519 -12.19199999999999839 33.01999999999999602 -1.94809107167232054 0 -25.32518393174017035 I I #
coedge $-1 $143 $129 $84 $112 reversed $144 $-1 #
edge $-1 $145 0 $113 0.271999999999999964 $84 $146 forward 7 unknown #
vertex $-1 $130 $147 #
straight-curve $-1 -6.506307692307692569 12.19199999999999839 17.77999999999999758 -1.948091071672320318 0 -25.32518393174017035 I I #
face $-1 $148 $149 $2 $-1 $150 forward single #
plane-surface $-1 -5.334000000000000519 12.19199999999999839 33.01999999999999602 0.9970544855015815999 0 -0.07669649888473703547 -1.94809107167232054 0 -25.32518393174017035 forward_v I I I I #
coedge $-1 $90 $151 $152 $153 reversed $62 $-1 #
coedge $-1 $91 $100 $154 $155 reversed $38 $-1 #
coedge $-1 $151 $92 $95 $126 reversed $62 $-1 #
vertex $-1 $126 $156 #
straight-curve $-1 7.873999999999999666 12.19199999999999839 0 -1.94809107167232054 0 25.32518393174017035 I I #
coedge $-1 $107 $94 $157 $158 reversed $40 $-1 #
coedge $-1 $154 $159 $94 $124 forward $160 $-1 #
edge $-1 $161 0 $127 0.271999999999999964 $94 $162 forward 7 unknown #
coedge $-1 $95 $163 $164 $165 reversed $40 $-1 #
edge $-1 $166 0 $120 0.6879999999999999449 $95 $167 forward 7 unknown #
vertex $-1 $124 $168 #
straight-curve $-1 5.334000000000000519 12.19199999999999839 33.01999999999999602 -25.39999999999999858 0 0 I I #
coedge $-1 $111 $169 $100 $130 forward $144 $-1 #
edge $-1 $170 0 $113 0.05384615384615382833 $100 $171 forward 7 unknown #
coedge $-1 $104 $102 $172 $173 reversed $79 $-1 #
coedge $-1 $152 $174 $102 $133 forward $175 $-1 #
edge $-1 $176 0 $134 0.05384615384615382833 $102 $177 forward 7 unknown #
vertex $-1 $133 $178 #
straight-curve $-1 7.873999999999999666 -12.19199999999999839 0 -1.948091071672319874 0 25.32518393174017035 I I #
coedge $-1 $163 $107 $104 $137 forward $40 $-1 #
edge $-1 $109 0 $179 0.5200000000000000178 $136 $180 forward 7 unknown #
coedge $-1 $157 $181 $106 $139 reversed $149 $-1 #
edge $-1 $140 0 $145 0.6017725297110139149 $106 $182 forward 7 unknown #
vertex $-1 $108 $183 #
straight-curve $-1 -5.334000000000000519 -12.19199999999999839 33.01999999999999602 0 25.39999999999999858 0 I I #
point $-1 -5.334000000000000519 -12.19199999999999839 33.01999999999999602 #
coedge $-1 $169 $111 $181 $184 forward $144 $-1 #
loop $-1 $-1 $143 $185 #
vertex $-1 $112 $186 #
straight-curve $-1 -6.506307692307692569 5.283199999999999008 17.77999999999999758 0 25.39999999999999858 0 I I #
point $-1 -6.506307692307692569 12.19199999999999839 17.77999999999999403 #
face $-1 $185 $160 $2 $-1 $187 forward single #
loop $-1 $-1 $157 $115 #
plane-surface $-1 -5.334000000000000519 5.283199999999999008 33.01999999999999602 0 -1 0 -25.39999999999999858 0 0 forward_v I I I I #
coedge $-1 $117 $119 $188 $189 forward $62 $-1 #
coedge $-1 $190 $132 $117 $153 forward $175 $-1 #
edge $-1 $134 0 $191 0.271999999999999964 $117 $192 forward 7 unknown #
coedge $-1 $193 $123 $118 $155 forward $160 $-1 #
edge $-1 $127 0 $170 0.5999999999999999778 $118 $194 forward 7 unknown #
point $-1 5.334000000000000519 12.19199999999999839 33.01999999999999602 #
coedge $-1 $195 $138 $122 $158 forward $149 $-1 #
edge $-1 $140 0 $161 0.0999999999999999778 $122 $196 forward 7 unknown #
coedge $-1 $123 $193 $195 $197 reversed $160 $-1 #
loop $-1 $-1 $154 $148 #
vertex $-1 $158 $198 #
straight-curve $-1 -7.873999999999999666 5.283199999999999008 33.01999999999999602 0 25.39999999999999858 0 I I #
coedge $-1 $125 $136 $199 $200 reversed $40 $-1 #
coedge $-1 $201 $188 $125 $165 forward $202 $-1 #
edge $-1 $166 0 $203 0.0999999999999999778 $125 $204 forward 7 unknown #
vertex $-1 $126 $205 #
straight-curve $-1 5.334000000000000519 -5.283199999999999008 33.01999999999999602 0 25.39999999999999858 0 I I #
point $-1 -7.873999999999999666 12.19199999999999839 33.01999999999999602 #
coedge $-1 $129 $143 $193 $206 forward $144 $-1 #
vertex $-1 $155 $207 #
straight-curve $-1 -7.873999999999999666 12.19199999999999839 17.77999999999999758 25.39999999999999858 0 0 I I #
coedge $-1 $208 $199 $131 $173 forward $209 $-1 #
edge $-1 $179 0 $176 0.5999999999999999778 $131 $210 forward 7 unknown #
coedge $-1 $132 $190 $208 $211 forward $175 $-1 #
loop $-1 $-1 $190 $212 #
vertex $-1 $173 $213 #
straight-curve $-1 7.873999999999999666 -12.19199999999999839 17.77999999999999758 -25.39999999999999858 0 0 I I #
point $-1 6.506307692307692569 -12.19199999999999839 17.77999999999999403 #
vertex $-1 $200 $214 #
straight-curve $-1 -5.334000000000000519 -12.19199999999999839 33.01999999999999602 25.39999999999999858 0 0 I I #
coedge $-1 $138 $195 $143 $184 reversed $149 $-1 #
straight-curve $-1 -5.334000000000000519 5.283199999999999008 33.01999999999999602 -1.948091071672320984 0 -25.32518393174017035 I I #
point $-1 -5.334000000000000519 5.283199999999999008 33.01999999999999602 #
edge $-1 $145 0 $215 0.05384615384615382833 $143 $216 forward 7 unknown #
face $-1 $212 $144 $2 $-1 $217 forward single #
point $-1 -6.506307692307692569 5.283199999999999008 17.77999999999999403 #
plane-surface $-1 -7.873999999999999666 5.283199999999999008 33.01999999999999602 -1 0 0 0 25.39999999999999858 0 forward_v I I I I #
coedge $-1 $164 $218 $151 $189 reversed $202 $-1 #
edge $-1 $166 0 $191 0.6017725297110139149 $151 $219 forward 7 unknown #
coedge $-1 $174 $152 $218 $220 forward $175 $-1 #
vertex $-1 $153 $221 #
straight-curve $-1 6.506307692307692569 -12.19199999999999839 17.77999999999999758 0 25.39999999999999858 0 I I #
coedge $-1 $159 $154 $169 $206 reversed $160 $-1 #
straight-curve $-1 -7.873999999999999666 12.19199999999999839 33.01999999999999602 0 0 -25.39999999999999858 I I #
coedge $-1 $181 $157 $159 $197 forward $149 $-1 #
straight-curve $-1 -5.334000000000000519 5.283199999999999008 33.01999999999999602 -25.39999999999999858 0 0 I I #
edge $-1 $161 0 $215 0.6000000000000000888 $195 $222 forward 7 unknown #
point $-1 -7.873999999999999666 5.283199999999999008 33.01999999999999602 #
coedge $-1 $172 $223 $163 $200 forward $209 $-1 #
edge $-1 $203 0 $179 0.271999999999999964 $163 $224 forward 7 unknown #
coedge $-1 $218 $164 $223 $225 forward $202 $-1 #
loop $-1 $-1 $164 $226 #
vertex $-1 $165 $227 #
straight-curve $-1 5.334000000000000519 -5.283199999999999008 33.01999999999999602 25.39999999999999858 0 0 I I #
point $-1 5.334000000000000519 -5.283199999999999008 33.01999999999999602 #
edge $-1 $215 0 $170 0.271999999999999964 $169 $228 forward 7 unknown #
point $-1 -7.873999999999999666 12.19199999999999839 17.77999999999999758 #
coedge $-1 $223 $172 $174 $211 reversed $209 $-1 #
loop $-1 $-1 $172 $229 #
straight-curve $-1 7.873999999999999666 -12.19199999999999839 33.01999999999999602 0 0 -25.39999999999999858 I I #
edge $-1 $230 0 $176 0.271999999999999964 $174 $231 forward 7 unknown #
face $-1 $226 $175 $2 $-1 $232 forward single #
point $-1 7.873999999999999666 -12.19199999999999839 17.77999999999999758 #
point $-1 7.873999999999999666 -12.19199999999999839 33.01999999999999602 #
vertex $-1 $206 $233 #
straight-curve $-1 -6.506307692307692569 5.283199999999999008 17.77999999999999758 -25.39999999999999858 0 0 I I #
plane-surface $-1 0 0 17.77999999999999758 0 0 -1 -25.39999999999999858 0 0 forward_v I I I I #
coedge $-1 $188 $201 $190 $220 reversed $202 $-1 #
straight-curve $-1 5.334000000000000519 -5.283199999999999008 33.01999999999999602 1.948091071672320984 0 -25.32518393174017035 I I #
edge $-1 $191 0 $230 0.05384615384615382833 $190 $234 forward 7 unknown #
point $-1 6.506307692307692569 -5.283199999999999008 17.77999999999999403 #
straight-curve $-1 -7.873999999999999666 5.283199999999999008 33.01999999999999602 0 0 -25.39999999999999858 I I #
coedge $-1 $199 $208 $201 $225 reversed $209 $-1 #
straight-curve $-1 7.873999999999999666 -5.283199999999999008 33.01999999999999602 0 -25.39999999999999858 0 I I #
edge $-1 $203 0 $230 0.6000000000000000888 $223 $235 forward 7 unknown #
face $-1 $229 $202 $2 $-1 $236 forward single #
point $-1 7.873999999999999666 -5.283199999999999008 33.01999999999999602 #
straight-curve $-1 -7.873999999999999666 5.283199999999999008 17.77999999999999758 0 25.39999999999999858 0 I I #
face $-1 $-1 $209 $2 $-1 $237 forward single #
vertex $-1 $211 $238 #
straight-curve $-1 7.873999999999999666 -5.283199999999999008 17.77999999999999758 0 -25.39999999999999858 0 I I #
plane-surface $-1 0 0 17.77999999999999758 0 0 -1 -25.39999999999999858 0 0 forward_v I I I I #
point $-1 -7.873999999999999666 5.283199999999999008 17.77999999999999403 #
straight-curve $-1 6.506307692307692569 -5.283199999999999008 17.77999999999999758 25.39999999999999858 0 0 I I #
straight-curve $-1 7.873999999999999666 -5.283199999999999008 33.01999999999999602 0 0 -25.39999999999999858 I I #
plane-surface $-1 5.334000000000000519 -5.283199999999999008 33.01999999999999602 0 1 0 25.39999999999999858 0 0 forward_v I I I I #
plane-surface $-1 7.873999999999999666 -5.283199999999999008 33.01999999999999602 1 0 0 0 -25.39999999999999858 0 forward_v I I I I #
point $-1 7.873999999999999666 -5.283199999999999008 17.77999999999999403 #
End-of-ACIS-data 