600 0 1 0           
94 GICL Pro/E ACIS Translator - Source: f:/data5/repository/PTC/V18/cabdia18/mnlsr-adpt.prt - 6 0 13 ACIS 6.0.3 NT 24 Thu Apr 04 13:40:15 2002 
1 9.9999999999999995e-007 1e-010 
body $-1 $1 $-1 $2 #
lump $-1 $-1 $3 $0 #
transform $-1 1 0 0 0 1 0 0 0 1 0 0 0 25.399999999999999 no_rotate no_reflect no_shear #
shell $-1 $-1 $-1 $4 $-1 $1 #
face $-1 $5 $6 $3 $-1 $7 reversed single #
face $-1 $8 $9 $3 $-1 $10 forward single #
loop $-1 $-1 $11 $4 #
plane-surface $-1 0 0 0 0 0 1 1 0 0 forward_v I I I I #
face $-1 $12 $13 $3 $-1 $14 forward single #
loop $-1 $-1 $15 $5 #
plane-surface $-1 -0.27499999999999997 0.099999999999999992 0 -1 0 0 0 -1 0 forward_v I I I I #
coedge $-1 $16 $17 $18 $19 reversed $6 $-1 #
face $-1 $20 $21 $3 $-1 $22 reversed single #
loop $-1 $23 $24 $8 #
plane-surface $-1 0.27499999999999997 0.099999999999999992 0 0 1 0 -1 0 0 forward_v I I I I #
coedge $-1 $18 $25 $26 $27 reversed $9 $-1 #
coedge $-1 $28 $11 $29 $30 reversed $6 $-1 #
coedge $-1 $11 $28 $31 $32 reversed $6 $-1 #
coedge $-1 $33 $15 $11 $19 forward $9 $-1 #
edge $-1 $34 0 $35 0.099999999999999992 $11 $36 forward 7 unknown #
face $-1 $37 $38 $3 $-1 $39 reversed single #
loop $-1 $-1 $40 $12 #
plane-surface $-1 -0.099999999999999992 0.099999999999999992 0.57999999999999996 0 0 1 1 0 0 forward_v I I I I #
loop $-1 $-1 $41 $8 #
coedge $-1 $42 $43 $44 $45 reversed $13 $-1 #
coedge $-1 $15 $33 $46 $47 reversed $9 $-1 #
coedge $-1 $48 $29 $15 $27 forward $23 $-1 #
edge $-1 $34 0 $49 0.33000000000000002 $26 $50 forward 7 unknown #
coedge $-1 $17 $16 $51 $52 reversed $6 $-1 #
coedge $-1 $26 $41 $16 $30 forward $23 $-1 #
edge $-1 $53 0 $34 0.54999999999999993 $16 $54 forward 7 unknown #
coedge $-1 $55 $56 $17 $32 forward $57 $-1 #
edge $-1 $35 0 $58 0.54999999999999993 $17 $59 forward 7 unknown #
coedge $-1 $25 $18 $56 $60 forward $9 $-1 #
vertex $-1 $30 $61 #
vertex $-1 $32 $62 #
straight-curve $-1 -0.27499999999999997 0.099999999999999992 0 0 -1 0 I I #
face $-1 $63 $64 $3 $-1 $65 reversed single #
loop $-1 $-1 $66 $20 #
plane-surface $-1 -0.099999999999999992 0.099999999999999992 0.33000000000000002 -1 0 0 0 0 1 forward_v I I I I #
coedge $-1 $44 $67 $68 $69 reversed $21 $-1 #
coedge $-1 $29 $70 $71 $72 reversed $23 $-1 #
coedge $-1 $73 $24 $74 $75 reversed $13 $-1 #
coedge $-1 $24 $73 $76 $77 reversed $13 $-1 #
coedge $-1 $78 $40 $24 $45 forward $21 $-1 #
edge $-1 $79 4.163336342344337e-017 $80 0.20000000000000001 $24 $81 forward 7 unknown #
coedge $-1 $82 $83 $25 $47 forward $84 $-1 #
edge $-1 $49 0 $85 0.099999999999999992 $25 $86 forward 7 unknown #
coedge $-1 $87 $26 $83 $88 forward $23 $-1 #
vertex $-1 $88 $89 #
straight-curve $-1 -0.27499999999999997 0.099999999999999992 0 0 0 1 I I #
coedge $-1 $71 $90 $28 $52 forward $91 $-1 #
edge $-1 $58 0 $53 0.099999999999999992 $28 $92 forward 7 unknown #
vertex $-1 $52 $93 #
straight-curve $-1 0.27499999999999997 0.099999999999999992 0 -1 0 0 I I #
coedge $-1 $94 $31 $90 $95 forward $57 $-1 #
coedge $-1 $31 $96 $33 $60 reversed $57 $-1 #
loop $-1 $-1 $97 $98 #
vertex $-1 $32 $99 #
straight-curve $-1 -0.27499999999999997 0 0 1 0 0 I I #
edge $-1 $35 0 $85 0.33000000000000002 $56 $100 forward 7 unknown #
point $-1 -0.27499999999999997 0.099999999999999992 0 #
point $-1 -0.27499999999999997 0 0 #
face $-1 $98 $101 $3 $-1 $102 reversed single #
loop $-1 $-1 $103 $37 #
plane-surface $-1 0.099999999999999992 0.099999999999999992 0.33000000000000002 0 0 -1 -1 0 0 forward_v I I I I #
coedge $-1 $74 $104 $105 $106 reversed $38 $-1 #
coedge $-1 $40 $78 $107 $108 reversed $21 $-1 #
coedge $-1 $104 $74 $40 $69 forward $38 $-1 #
edge $-1 $79 0 $109 0.099999999999999992 $68 $110 forward 7 unknown #
coedge $-1 $41 $111 $112 $113 reversed $23 $-1 #
coedge $-1 $114 $51 $41 $72 forward $91 $-1 #
edge $-1 $53 0 $115 0.33000000000000002 $71 $116 forward 7 unknown #
coedge $-1 $43 $42 $117 $118 reversed $13 $-1 #
coedge $-1 $68 $66 $42 $75 forward $38 $-1 #
edge $-1 $119 0 $79 0.24999999999999994 $42 $120 forward 7 unknown #
coedge $-1 $121 $122 $43 $77 forward $101 $-1 #
edge $-1 $80 0 $123 0.24999999999999994 $43 $124 forward 7 unknown #
coedge $-1 $67 $44 $122 $125 forward $21 $-1 #
vertex $-1 $75 $126 #
vertex $-1 $77 $127 #
straight-curve $-1 -0.10000000000000003 0.099999999999999992 0.57999999999999996 1 0 0 I I #
coedge $-1 $128 $46 $96 $129 forward $84 $-1 #
coedge $-1 $46 $128 $48 $88 reversed $84 $-1 #
loop $-1 $-1 $128 $130 #
vertex $-1 $60 $131 #
straight-curve $-1 -0.27499999999999997 0.099999999999999992 0.33000000000000002 0 -1 0 I I #
coedge $-1 $132 $48 $133 $134 reversed $23 $-1 #
edge $-1 $49 0 $135 0.14999999999999997 $48 $136 forward 7 unknown #
point $-1 -0.27499999999999997 0.099999999999999992 0.33000000000000002 #
coedge $-1 $51 $114 $55 $95 reversed $91 $-1 #
loop $-1 $-1 $90 $137 #
straight-curve $-1 0.27499999999999997 0 0 0 1 0 I I #
point $-1 0.27499999999999997 0.099999999999999992 0 #
coedge $-1 $97 $55 $138 $139 forward $57 $-1 #
edge $-1 $58 0 $140 0.33000000000000002 $55 $141 forward 7 unknown #
coedge $-1 $56 $142 $82 $129 reversed $57 $-1 #
coedge $-1 $143 $94 $144 $145 reversed $57 $-1 #
face $-1 $146 $147 $3 $-1 $148 forward single #
point $-1 0.27499999999999997 0 0 #
straight-curve $-1 -0.27499999999999997 0 0 0 0 1 I I #
loop $-1 $-1 $122 $63 #
plane-surface $-1 0.099999999999999992 0.099999999999999992 0.57999999999999996 1 0 0 0 0 -1 forward_v I I I I #
coedge $-1 $117 $149 $121 $150 reversed $64 $-1 #
coedge $-1 $66 $68 $151 $152 reversed $38 $-1 #
coedge $-1 $149 $117 $66 $106 forward $64 $-1 #
edge $-1 $119 0 $153 0.099999999999999992 $105 $154 forward 7 unknown #
coedge $-1 $155 $151 $67 $108 forward $147 $-1 #
edge $-1 $109 0 $156 0.20000000000000001 $107 $157 forward 7 unknown #
vertex $-1 $108 $158 #
straight-curve $-1 -0.099999999999999992 0.099999999999999992 0.57999999999999996 0 -1 0 I I #
coedge $-1 $70 $132 $159 $160 forward $23 $-1 #
coedge $-1 $161 $162 $70 $113 forward $163 $-1 #
edge $-1 $115 0 $164 0.14999999999999999 $70 $165 forward 7 unknown #
coedge $-1 $90 $71 $162 $166 reversed $91 $-1 #
vertex $-1 $166 $167 #
straight-curve $-1 0.27499999999999997 0.099999999999999992 0 0 0 1 I I #
coedge $-1 $105 $103 $73 $118 forward $64 $-1 #
edge $-1 $123 0 $119 0.19999999999999996 $73 $168 forward 7 unknown #
vertex $-1 $118 $169 #
straight-curve $-1 -0.099999999999999992 0.099999999999999992 0.33000000000000002 0 0 1 I I #
coedge $-1 $170 $76 $103 $150 forward $101 $-1 #
coedge $-1 $76 $170 $78 $125 reversed $101 $-1 #
vertex $-1 $77 $171 #
straight-curve $-1 0.099999999999999992 0.099999999999999992 0.57999999999999996 0 0 -1 I I #
edge $-1 $80 0 $156 0.099999999999999992 $122 $172 forward 7 unknown #
point $-1 -0.099999999999999992 0.099999999999999992 0.57999999999999996 #
point $-1 0.099999999999999978 0.099999999999999992 0.57999999999999996 #
coedge $-1 $83 $82 $173 $174 reversed $84 $-1 #
edge $-1 $85 0 $175 0.14999999999999999 $96 $176 forward 7 unknown #
face $-1 $-1 $84 $3 $-1 $177 reversed single #
point $-1 -0.27499999999999997 0 0.33000000000000002 #
coedge $-1 $111 $87 $178 $179 reversed $23 $-1 #
coedge $-1 $173 $180 $87 $134 forward $181 $-1 #
edge $-1 $182 0 $135 0.29999999999999999 $87 $183 forward 7 unknown #
vertex $-1 $134 $184 #
straight-curve $-1 -0.27499999999999997 0.099999999999999992 0.33000000000000002 1 0 0 I I #
face $-1 $185 $91 $3 $-1 $186 forward single #
coedge $-1 $162 $161 $94 $139 reversed $163 $-1 #
edge $-1 $140 0 $187 0.14999999999999997 $94 $188 forward 7 unknown #
vertex $-1 $139 $189 #
straight-curve $-1 0.27499999999999997 0 0 0 0 1 I I #
coedge $-1 $96 $143 $190 $191 forward $57 $-1 #
coedge $-1 $142 $97 $192 $193 reversed $57 $-1 #
coedge $-1 $194 $195 $97 $145 forward $196 $-1 #
edge $-1 $197 0 $187 0.29999999999999999 $97 $198 forward 7 unknown #
face $-1 $199 $196 $3 $-1 $200 reversed single #
loop $-1 $57 $201 $98 #
plane-surface $-1 -0.27499999999999997 0 0 0 -1 0 1 0 0 forward_v I I I I #
coedge $-1 $103 $105 $201 $202 reversed $64 $-1 #
edge $-1 $123 0 $203 0.099999999999999992 $121 $204 forward 7 unknown #
coedge $-1 $107 $201 $104 $152 forward $147 $-1 #
edge $-1 $153 0 $109 0.24999999999999994 $151 $205 forward 7 unknown #
vertex $-1 $152 $206 #
straight-curve $-1 -0.099999999999999992 0.099999999999999992 0.33000000000000002 0 -1 0 I I #
coedge $-1 $201 $107 $170 $207 forward $147 $-1 #
vertex $-1 $207 $208 #
straight-curve $-1 -0.099999999999999978 0 0.57999999999999996 1 0 0 I I #
point $-1 -0.099999999999999978 0 0.57999999999999996 #
coedge $-1 $195 $194 $111 $160 reversed $196 $-1 #
edge $-1 $209 0 $164 0.29999999999999999 $111 $210 forward 7 unknown #
coedge $-1 $138 $112 $194 $211 forward $163 $-1 #
coedge $-1 $112 $138 $114 $166 forward $163 $-1 #
loop $-1 $-1 $162 $199 #
vertex $-1 $113 $212 #
straight-curve $-1 0.27499999999999997 0.099999999999999992 0.33000000000000002 -1 0 0 I I #
edge $-1 $140 0 $115 0.099999999999999992 $114 $213 forward 7 unknown #
point $-1 0.27499999999999997 0.099999999999999992 0.33000000000000002 #
straight-curve $-1 0.099999999999999978 0.099999999999999992 0.33000000000000002 -1 0 0 I I #
point $-1 -0.099999999999999992 0.099999999999999992 0.33000000000000002 #
coedge $-1 $122 $121 $155 $207 reversed $101 $-1 #
point $-1 0.099999999999999978 0.099999999999999992 0.33000000000000002 #
straight-curve $-1 0.099999999999999992 0.099999999999999992 0.57999999999999996 0 -1 0 I I #
coedge $-1 $190 $133 $128 $174 forward $181 $-1 #
edge $-1 $135 0 $175 0.099999999999999992 $128 $214 forward 7 unknown #
vertex $-1 $129 $215 #
straight-curve $-1 -0.27499999999999997 0 0.33000000000000002 1 0 0 I I #
plane-surface $-1 -0.125 0.099999999999999992 0.33000000000000002 0 0 -1 -1 0 0 forward_v I I I I #
coedge $-1 $216 $217 $132 $179 forward $218 $-1 #
edge $-1 $209 0 $182 0.25 $178 $219 forward 7 unknown #
coedge $-1 $133 $190 $216 $220 forward $181 $-1 #
loop $-1 $-1 $133 $221 #
vertex $-1 $220 $222 #
straight-curve $-1 -0.125 0.099999999999999992 0.63 0 0 -1 I I #
point $-1 -0.125 0.099999999999999992 0.33000000000000002 #
face $-1 $221 $218 $3 $-1 $223 forward single #
plane-surface $-1 0.27499999999999997 0 0 1 0 0 0 1 0 forward_v I I I I #
vertex $-1 $139 $224 #
straight-curve $-1 0.27499999999999997 0 0.33000000000000002 -1 0 0 I I #
point $-1 0.27499999999999997 0 0.33000000000000002 #
coedge $-1 $180 $173 $142 $191 reversed $181 $-1 #
edge $-1 $225 0 $175 0.29999999999999999 $142 $226 forward 7 unknown #
coedge $-1 $217 $216 $143 $193 forward $218 $-1 #
edge $-1 $225 0 $197 0.25 $192 $227 forward 7 unknown #
coedge $-1 $159 $144 $161 $211 reversed $196 $-1 #
coedge $-1 $144 $159 $217 $228 reversed $196 $-1 #
loop $-1 $-1 $144 $146 #
vertex $-1 $228 $229 #
straight-curve $-1 0.125 0 0.63 0 0 -1 I I #
face $-1 $137 $163 $3 $-1 $230 reversed single #
plane-surface $-1 0.125 0.099999999999999992 0.33000000000000002 -1 0 0 0 0 1 forward_v I I I I #
coedge $-1 $151 $155 $149 $202 forward $147 $-1 #
edge $-1 $203 0 $153 0.20000000000000001 $201 $231 forward 7 unknown #
vertex $-1 $207 $232 #
straight-curve $-1 0.099999999999999992 0.099999999999999992 0.33000000000000002 0 -1 0 I I #
straight-curve $-1 -0.099999999999999992 0 0.33000000000000002 0 0 1 I I #
point $-1 -0.099999999999999978 0 0.33000000000000002 #
edge $-1 $156 0 $203 0.24999999999999994 $155 $233 forward 7 unknown #
point $-1 0.10000000000000003 0 0.57999999999999996 #
vertex $-1 $228 $234 #
straight-curve $-1 0.125 0.099999999999999992 0.63 0 0 -1 I I #
edge $-1 $164 0 $187 0.099999999999999992 $161 $235 forward 7 unknown #
point $-1 0.12499999999999997 0.099999999999999992 0.33000000000000002 #
straight-curve $-1 0.27499999999999997 0 0.33000000000000002 0 1 0 I I #
straight-curve $-1 -0.125 0.099999999999999992 0.33000000000000002 0 -1 0 I I #
point $-1 -0.12499999999999997 0 0.33000000000000002 #
coedge $-1 $192 $178 $180 $220 reversed $218 $-1 #
coedge $-1 $178 $192 $195 $228 forward $218 $-1 #
loop $-1 $-1 $178 $185 #
straight-curve $-1 0.125 0.099999999999999992 0.63 -1 0 0 I I #
edge $-1 $225 0 $182 0.099999999999999992 $216 $236 forward 7 unknown #
face $-1 $130 $181 $3 $-1 $237 reversed single #
point $-1 -0.125 0.099999999999999992 0.63 #
plane-surface $-1 0 0 0.63 0 0 1 1 0 0 forward_v I I I I #
point $-1 0.125 0 0.33000000000000002 #
vertex $-1 $193 $238 #
straight-curve $-1 -0.125 0 0.63 0 0 -1 I I #
straight-curve $-1 -0.125 0 0.63 1 0 0 I I #
edge $-1 $197 0 $209 0.099999999999999992 $217 $239 forward 7 unknown #
point $-1 0.125 0 0.63 #
plane-surface $-1 0.27499999999999997 0.099999999999999992 0.33000000000000002 0 0 -1 -1 0 0 forward_v I I I I #
straight-curve $-1 0.10000000000000003 0 0.33000000000000002 -1 0 0 I I #
point $-1 0.10000000000000003 0 0.33000000000000002 #
straight-curve $-1 0.099999999999999992 0 0.57999999999999996 0 0 -1 I I #
point $-1 0.125 0.099999999999999992 0.63 #
straight-curve $-1 0.125 0.099999999999999992 0.33000000000000002 0 -1 0 I I #
straight-curve $-1 -0.125 0 0.63 0 1 0 I I #
plane-surface $-1 -0.125 0.099999999999999992 0.63 1 0 0 0 0 -1 forward_v I I I I #
point $-1 -0.125 0 0.63 #
straight-curve $-1 0.125 0 0.63 0 1 0 I I #
End-of-ACIS-data 