600 0 1 0           
87 GICL ACIS Healer - Source: /gicl/data5/repository/PTC/V18/cabdia18/mnlsr-adpt.sat - 6 0 18 ACIS 6.0.3 Solaris 24 Sat Apr 13 22:29:32 2002 
1 9.999999999999999547e-07 1.000000000000000036e-10 
body $-1 $1 $-1 $-1 #
lump $-1 $-1 $2 $0 #
shell $-1 $-1 $-1 $3 $-1 $1 #
face $-1 $4 $5 $2 $-1 $6 reversed single #
face $-1 $7 $8 $2 $-1 $9 forward single #
loop $-1 $-1 $10 $3 #
plane-surface $-1 0 0 0 0 0 1 25.39999999999999858 0 0 forward_v I I I I #
face $-1 $11 $12 $2 $-1 $13 forward single #
loop $-1 $-1 $14 $4 #
plane-surface $-1 -6.984999999999998543 2.539999999999999591 0 -1 0 0 0 -25.39999999999999858 0 forward_v I I I I #
coedge $-1 $15 $16 $17 $18 reversed $5 $-1 #
face $-1 $19 $20 $2 $-1 $21 reversed single #
loop $-1 $22 $23 $7 #
plane-surface $-1 6.984999999999998543 2.539999999999999591 0 0 1 0 -25.39999999999999858 0 0 forward_v I I I I #
coedge $-1 $17 $24 $25 $26 reversed $8 $-1 #
coedge $-1 $27 $10 $28 $29 reversed $5 $-1 #
coedge $-1 $10 $27 $30 $31 reversed $5 $-1 #
coedge $-1 $32 $14 $10 $18 forward $8 $-1 #
edge $-1 $33 0 $34 0.09999999999999999167 $10 $35 forward 7 unknown #
face $-1 $36 $37 $2 $-1 $38 reversed single #
loop $-1 $-1 $39 $11 #
plane-surface $-1 -2.539999999999999591 2.539999999999999591 14.73199999999999754 0 0 1 25.39999999999999858 0 0 forward_v I I I I #
loop $-1 $-1 $40 $7 #
coedge $-1 $41 $42 $43 $44 reversed $12 $-1 #
coedge $-1 $14 $32 $45 $46 reversed $8 $-1 #
coedge $-1 $47 $28 $14 $26 forward $22 $-1 #
edge $-1 $33 0 $48 0.3300000000000000155 $25 $49 forward 7 unknown #
coedge $-1 $16 $15 $50 $51 reversed $5 $-1 #
coedge $-1 $25 $40 $15 $29 forward $22 $-1 #
edge $-1 $52 0 $33 0.5499999999999999334 $15 $53 forward 7 unknown #
coedge $-1 $54 $55 $16 $31 forward $56 $-1 #
edge $-1 $34 0 $57 0.5499999999999999334 $16 $58 forward 7 unknown #
coedge $-1 $24 $17 $55 $59 forward $8 $-1 #
vertex $-1 $29 $60 #
vertex $-1 $31 $61 #
straight-curve $-1 -6.984999999999998543 2.539999999999999591 0 0 -25.39999999999999858 0 I I #
face $-1 $62 $63 $2 $-1 $64 reversed single #
loop $-1 $-1 $65 $19 #
plane-surface $-1 -2.539999999999999591 2.539999999999999591 8.381999999999999673 -1 0 0 0 0 25.39999999999999858 forward_v I I I I #
coedge $-1 $43 $66 $67 $68 reversed $20 $-1 #
coedge $-1 $28 $69 $70 $71 reversed $22 $-1 #
coedge $-1 $72 $23 $73 $74 reversed $12 $-1 #
coedge $-1 $23 $72 $75 $76 reversed $12 $-1 #
coedge $-1 $77 $39 $23 $44 forward $20 $-1 #
edge $-1 $78 5.245148147835385774e-17 $79 0.2000000000000000111 $23 $80 forward 7 unknown #
coedge $-1 $81 $82 $24 $46 forward $83 $-1 #
edge $-1 $48 0 $84 0.09999999999999999167 $24 $85 forward 7 unknown #
coedge $-1 $86 $25 $82 $87 forward $22 $-1 #
vertex $-1 $87 $88 #
straight-curve $-1 -6.984999999999998543 2.539999999999999591 0 0 0 25.39999999999999858 I I #
coedge $-1 $70 $89 $27 $51 forward $90 $-1 #
edge $-1 $57 0 $52 0.09999999999999999167 $27 $91 forward 7 unknown #
vertex $-1 $51 $92 #
straight-curve $-1 6.984999999999998543 2.539999999999999591 0 -25.39999999999999858 0 0 I I #
coedge $-1 $93 $30 $89 $94 forward $56 $-1 #
coedge $-1 $30 $95 $32 $59 reversed $56 $-1 #
loop $-1 $-1 $96 $97 #
vertex $-1 $31 $98 #
straight-curve $-1 -6.984999999999998543 0 0 25.39999999999999858 0 0 I I #
edge $-1 $34 0 $84 0.3300000000000000155 $55 $99 forward 7 unknown #
point $-1 -6.984999999999998543 2.539999999999999591 0 #
point $-1 -6.984999999999998543 0 0 #
face $-1 $97 $100 $2 $-1 $101 reversed single #
loop $-1 $-1 $102 $36 #
plane-surface $-1 2.539999999999999591 2.539999999999999591 8.381999999999999673 0 0 -1 -25.39999999999999858 0 0 forward_v I I I I #
coedge $-1 $73 $103 $104 $105 reversed $37 $-1 #
coedge $-1 $39 $77 $106 $107 reversed $20 $-1 #
coedge $-1 $103 $73 $39 $68 forward $37 $-1 #
edge $-1 $78 0 $108 0.09999999999999999167 $67 $109 forward 7 unknown #
coedge $-1 $40 $110 $111 $112 reversed $22 $-1 #
coedge $-1 $113 $50 $40 $71 forward $90 $-1 #
edge $-1 $52 0 $114 0.3300000000000000155 $70 $115 forward 7 unknown #
coedge $-1 $42 $41 $116 $117 reversed $12 $-1 #
coedge $-1 $67 $65 $41 $74 forward $37 $-1 #
edge $-1 $118 0 $78 0.2499999999999999167 $41 $119 forward 7 unknown #
coedge $-1 $120 $121 $42 $76 forward $100 $-1 #
edge $-1 $79 0 $122 0.2499999999999999167 $42 $123 forward 7 unknown #
coedge $-1 $66 $43 $121 $124 forward $20 $-1 #
vertex $-1 $74 $125 #
vertex $-1 $76 $126 #
straight-curve $-1 -2.540000000000000924 2.539999999999999591 14.73199999999999754 25.39999999999999858 0 0 I I #
coedge $-1 $127 $45 $95 $128 forward $83 $-1 #
coedge $-1 $45 $127 $47 $87 reversed $83 $-1 #
loop $-1 $-1 $127 $129 #
vertex $-1 $59 $130 #
straight-curve $-1 -6.984999999999998543 2.539999999999999591 8.381999999999999673 0 -25.39999999999999858 0 I I #
coedge $-1 $131 $47 $132 $133 reversed $22 $-1 #
edge $-1 $48 0 $134 0.1499999999999999667 $47 $135 forward 7 unknown #
point $-1 -6.984999999999998543 2.539999999999999591 8.381999999999999673 #
coedge $-1 $50 $113 $54 $94 reversed $90 $-1 #
loop $-1 $-1 $89 $136 #
straight-curve $-1 6.984999999999998543 0 0 0 25.39999999999999858 0 I I #
point $-1 6.984999999999998543 2.539999999999999591 0 #
coedge $-1 $96 $54 $137 $138 forward $56 $-1 #
edge $-1 $57 0 $139 0.3300000000000000155 $54 $140 forward 7 unknown #
coedge $-1 $55 $141 $81 $128 reversed $56 $-1 #
coedge $-1 $142 $93 $143 $144 reversed $56 $-1 #
face $-1 $145 $146 $2 $-1 $147 forward single #
point $-1 6.984999999999998543 0 0 #
straight-curve $-1 -6.984999999999998543 0 0 0 0 25.39999999999999858 I I #
loop $-1 $-1 $121 $62 #
plane-surface $-1 2.539999999999999591 2.539999999999999591 14.73199999999999754 1 0 0 0 0 -25.39999999999999858 forward_v I I I I #
coedge $-1 $116 $148 $120 $149 reversed $63 $-1 #
coedge $-1 $65 $67 $150 $151 reversed $37 $-1 #
coedge $-1 $148 $116 $65 $105 forward $63 $-1 #
edge $-1 $118 0 $152 0.09999999999999999167 $104 $153 forward 7 unknown #
coedge $-1 $154 $150 $66 $107 forward $146 $-1 #
edge $-1 $108 0 $155 0.2000000000000000111 $106 $156 forward 7 unknown #
vertex $-1 $107 $157 #
straight-curve $-1 -2.539999999999999591 2.539999999999999591 14.73199999999999754 0 -25.39999999999999858 0 I I #
coedge $-1 $69 $131 $158 $159 forward $22 $-1 #
coedge $-1 $160 $161 $69 $112 forward $162 $-1 #
edge $-1 $114 0 $163 0.1499999999999999944 $69 $164 forward 7 unknown #
coedge $-1 $89 $70 $161 $165 reversed $90 $-1 #
vertex $-1 $165 $166 #
straight-curve $-1 6.984999999999998543 2.539999999999999591 0 0 0 25.39999999999999858 I I #
coedge $-1 $104 $102 $72 $117 forward $63 $-1 #
edge $-1 $122 0 $118 0.1999999999999999556 $72 $167 forward 7 unknown #
vertex $-1 $117 $168 #
straight-curve $-1 -2.539999999999999591 2.539999999999999591 8.381999999999999673 0 0 25.39999999999999858 I I #
coedge $-1 $169 $75 $102 $149 forward $100 $-1 #
coedge $-1 $75 $169 $77 $124 reversed $100 $-1 #
vertex $-1 $76 $170 #
straight-curve $-1 2.539999999999999591 2.539999999999999591 14.73199999999999754 0 0 -25.39999999999999858 I I #
edge $-1 $79 0 $155 0.09999999999999999167 $121 $171 forward 7 unknown #
point $-1 -2.539999999999999591 2.539999999999999591 14.73199999999999754 #
point $-1 2.539999999999999147 2.539999999999999591 14.73199999999999754 #
coedge $-1 $82 $81 $172 $173 reversed $83 $-1 #
edge $-1 $84 0 $174 0.1499999999999999944 $95 $175 forward 7 unknown #
face $-1 $-1 $83 $2 $-1 $176 reversed single #
point $-1 -6.984999999999998543 0 8.381999999999999673 #
coedge $-1 $110 $86 $177 $178 reversed $22 $-1 #
coedge $-1 $172 $179 $86 $133 forward $180 $-1 #
edge $-1 $181 0 $134 0.2999999999999999889 $86 $182 forward 7 unknown #
vertex $-1 $133 $183 #
straight-curve $-1 -6.984999999999998543 2.539999999999999591 8.381999999999999673 25.39999999999999858 0 0 I I #
face $-1 $184 $90 $2 $-1 $185 forward single #
coedge $-1 $161 $160 $93 $138 reversed $162 $-1 #
edge $-1 $139 0 $186 0.1499999999999999667 $93 $187 forward 7 unknown #
vertex $-1 $138 $188 #
straight-curve $-1 6.984999999999998543 0 0 0 0 25.39999999999999858 I I #
coedge $-1 $95 $142 $189 $190 forward $56 $-1 #
coedge $-1 $141 $96 $191 $192 reversed $56 $-1 #
coedge $-1 $193 $194 $96 $144 forward $195 $-1 #
edge $-1 $196 0 $186 0.2999999999999999889 $96 $197 forward 7 unknown #
face $-1 $198 $195 $2 $-1 $199 reversed single #
loop $-1 $56 $200 $97 #
plane-surface $-1 -6.984999999999998543 0 0 0 -1 0 25.39999999999999858 0 0 forward_v I I I I #
coedge $-1 $102 $104 $200 $201 reversed $63 $-1 #
edge $-1 $122 0 $202 0.09999999999999999167 $120 $203 forward 7 unknown #
coedge $-1 $106 $200 $103 $151 forward $146 $-1 #
edge $-1 $152 0 $108 0.2499999999999999167 $150 $204 forward 7 unknown #
vertex $-1 $151 $205 #
straight-curve $-1 -2.539999999999999591 2.539999999999999591 8.381999999999999673 0 -25.39999999999999858 0 I I #
coedge $-1 $200 $106 $169 $206 forward $146 $-1 #
vertex $-1 $206 $207 #
straight-curve $-1 -2.539999999999999147 0 14.73199999999999754 25.39999999999999858 0 0 I I #
point $-1 -2.539999999999999147 0 14.73199999999999754 #
coedge $-1 $194 $193 $110 $159 reversed $195 $-1 #
edge $-1 $208 0 $163 0.2999999999999999889 $110 $209 forward 7 unknown #
coedge $-1 $137 $111 $193 $210 forward $162 $-1 #
coedge $-1 $111 $137 $113 $165 forward $162 $-1 #
loop $-1 $-1 $161 $198 #
vertex $-1 $112 $211 #
straight-curve $-1 6.984999999999998543 2.539999999999999591 8.381999999999999673 -25.39999999999999858 0 0 I I #
edge $-1 $139 0 $114 0.09999999999999999167 $113 $212 forward 7 unknown #
point $-1 6.984999999999998543 2.539999999999999591 8.381999999999999673 #
straight-curve $-1 2.539999999999999147 2.539999999999999591 8.381999999999999673 -25.39999999999999858 0 0 I I #
point $-1 -2.539999999999999591 2.539999999999999591 8.381999999999999673 #
coedge $-1 $121 $120 $154 $206 reversed $100 $-1 #
point $-1 2.539999999999999147 2.539999999999999591 8.381999999999999673 #
straight-curve $-1 2.539999999999999591 2.539999999999999591 14.73199999999999754 0 -25.39999999999999858 0 I I #
coedge $-1 $189 $132 $127 $173 forward $180 $-1 #
edge $-1 $134 0 $174 0.09999999999999999167 $127 $213 forward 7 unknown #
vertex $-1 $128 $214 #
straight-curve $-1 -6.984999999999998543 0 8.381999999999999673 25.39999999999999858 0 0 I I #
plane-surface $-1 -3.174999999999999822 2.539999999999999591 8.381999999999999673 0 0 -1 -25.39999999999999858 0 0 forward_v I I I I #
coedge $-1 $215 $216 $131 $178 forward $217 $-1 #
edge $-1 $208 0 $181 0.25 $177 $218 forward 7 unknown #
coedge $-1 $132 $189 $215 $219 forward $180 $-1 #
loop $-1 $-1 $132 $220 #
vertex $-1 $219 $221 #
straight-curve $-1 -3.174999999999999822 2.539999999999999591 16.00199999999999889 0 0 -25.39999999999999858 I I #
point $-1 -3.174999999999999822 2.539999999999999591 8.381999999999999673 #
face $-1 $220 $217 $2 $-1 $222 forward single #
plane-surface $-1 6.984999999999998543 0 0 1 0 0 0 25.39999999999999858 0 forward_v I I I I #
vertex $-1 $138 $223 #
straight-curve $-1 6.984999999999998543 0 8.381999999999999673 -25.39999999999999858 0 0 I I #
point $-1 6.984999999999998543 0 8.381999999999999673 #
coedge $-1 $179 $172 $141 $190 reversed $180 $-1 #
edge $-1 $224 0 $174 0.2999999999999999889 $141 $225 forward 7 unknown #
coedge $-1 $216 $215 $142 $192 forward $217 $-1 #
edge $-1 $224 0 $196 0.25 $191 $226 forward 7 unknown #
coedge $-1 $158 $143 $160 $210 reversed $195 $-1 #
coedge $-1 $143 $158 $216 $227 reversed $195 $-1 #
loop $-1 $-1 $143 $145 #
vertex $-1 $227 $228 #
straight-curve $-1 3.174999999999999822 0 16.00199999999999889 0 0 -25.39999999999999858 I I #
face $-1 $136 $162 $2 $-1 $229 reversed single #
plane-surface $-1 3.174999999999999822 2.539999999999999591 8.381999999999999673 -1 0 0 0 0 25.39999999999999858 forward_v I I I I #
coedge $-1 $150 $154 $148 $201 forward $146 $-1 #
edge $-1 $202 0 $152 0.2000000000000000111 $200 $230 forward 7 unknown #
vertex $-1 $206 $231 #
straight-curve $-1 2.539999999999999591 2.539999999999999591 8.381999999999999673 0 -25.39999999999999858 0 I I #
straight-curve $-1 -2.539999999999999591 0 8.381999999999999673 0 0 25.39999999999999858 I I #
point $-1 -2.539999999999999147 0 8.381999999999999673 #
edge $-1 $155 0 $202 0.2499999999999999167 $154 $232 forward 7 unknown #
point $-1 2.540000000000000924 0 14.73199999999999754 #
vertex $-1 $227 $233 #
straight-curve $-1 3.174999999999999822 2.539999999999999591 16.00199999999999889 0 0 -25.39999999999999858 I I #
edge $-1 $163 0 $186 0.09999999999999999167 $160 $234 forward 7 unknown #
point $-1 3.174999999999998934 2.539999999999999591 8.381999999999999673 #
straight-curve $-1 6.984999999999998543 0 8.381999999999999673 0 25.39999999999999858 0 I I #
straight-curve $-1 -3.174999999999999822 2.539999999999999591 8.381999999999999673 0 -25.39999999999999858 0 I I #
point $-1 -3.174999999999998934 0 8.381999999999999673 #
coedge $-1 $191 $177 $179 $219 reversed $217 $-1 #
coedge $-1 $177 $191 $194 $227 forward $217 $-1 #
loop $-1 $-1 $177 $184 #
straight-curve $-1 3.174999999999999822 2.539999999999999591 16.00199999999999889 -25.39999999999999858 0 0 I I #
edge $-1 $224 0 $181 0.09999999999999999167 $215 $235 forward 7 unknown #
face $-1 $129 $180 $2 $-1 $236 reversed single #
point $-1 -3.174999999999999822 2.539999999999999591 16.00199999999999889 #
plane-surface $-1 0 0 16.00199999999999889 0 0 1 25.39999999999999858 0 0 forward_v I I I I #
point $-1 3.174999999999999822 0 8.381999999999999673 #
vertex $-1 $192 $237 #
straight-curve $-1 -3.174999999999999822 0 16.00199999999999889 0 0 -25.39999999999999858 I I #
straight-curve $-1 -3.174999999999999822 0 16.00199999999999889 25.39999999999999858 0 0 I I #
edge $-1 $196 0 $208 0.09999999999999999167 $216 $238 forward 7 unknown #
point $-1 3.174999999999999822 0 16.00199999999999889 #
plane-surface $-1 6.984999999999998543 2.539999999999999591 8.381999999999999673 0 0 -1 -25.39999999999999858 0 0 forward_v I I I I #
straight-curve $-1 2.540000000000000924 0 8.381999999999999673 -25.39999999999999858 0 0 I I #
point $-1 2.540000000000000924 0 8.381999999999999673 #
straight-curve $-1 2.539999999999999591 0 14.73199999999999754 0 0 -25.39999999999999858 I I #
point $-1 3.174999999999999822 2.539999999999999591 16.00199999999999889 #
straight-curve $-1 3.174999999999999822 2.539999999999999591 8.381999999999999673 0 -25.39999999999999858 0 I I #
straight-curve $-1 -3.174999999999999822 0 16.00199999999999889 0 25.39999999999999858 0 I I #
plane-surface $-1 -3.174999999999999822 2.539999999999999591 16.00199999999999889 1 0 0 0 0 -25.39999999999999858 forward_v I I I I #
point $-1 -3.174999999999999822 0 16.00199999999999889 #
straight-curve $-1 3.174999999999999822 0 16.00199999999999889 0 25.39999999999999858 0 I I #
End-of-ACIS-data 