700 0 2 0           
24 FBMach with ACIS - 7.0.3 13 ACIS 7.0.3 NT 24 Thu May 16 08:18:46 2002 
1 9.9999999999999995e-007 1e-010 
body $2 -1 $-1 $3 $-1 $4 #
bdycol-kcp $-1 -1 1 4 $5 $6 $7 $8 #
model_id-kcp-attrib $-1 -1 $-1 $-1 $0 1 1021551526 1021551526 -988479487 1 #
lump $-1 -1 $-1 $-1 $9 $0 #
transform $-1 -1 1 0 0 0 1 0 0 0 1 0 0 0 1 rotate no_reflect no_shear #
body $10 -1 $-1 $11 $-1 $12 #
body $13 -1 $-1 $14 $-1 $15 #
body $16 -1 $-1 $17 $-1 $18 #
body $19 -1 $-1 $20 $-1 $21 #
shell $-1 -1 $-1 $-1 $-1 $22 $-1 $3 #
model_id-kcp-attrib $-1 -1 $-1 $-1 $5 1 1021551526 1021551526 -988479486 1 #
lump $-1 -1 $-1 $-1 $23 $5 #
transform $-1 -1 1 0 0 0 1 0 0 0 1 0 1.2699999999999998 8.0009999999999994 1 no_rotate no_reflect no_shear #
rgb_color-st-attrib $-1 -1 $24 $-1 $6 1 0.5 1 #
lump $-1 -1 $-1 $-1 $25 $6 #
transform $-1 -1 1 0 0 0 1 0 0 0 1 0 1.2699999999999998 8.0009999999999994 1 no_rotate no_reflect no_shear #
rgb_color-st-attrib $-1 -1 $26 $-1 $7 1 0.5 1 #
lump $-1 -1 $-1 $-1 $27 $7 #
transform $-1 -1 1 0 0 0 1 0 0 0 1 0 1.2699999999999998 8.0009999999999994 1 no_rotate no_reflect no_shear #
rgb_color-st-attrib $-1 -1 $28 $-1 $8 0.5 1 1 #
lump $-1 -1 $-1 $-1 $29 $8 #
transform $-1 -1 1 0 0 0 1 0 0 0 1 0 0 0 1 no_rotate no_reflect no_shear #
face $30 -1 $-1 $31 $32 $9 $-1 $33 reversed single #
shell $-1 -1 $-1 $-1 $-1 $34 $-1 $11 #
model_id-kcp-attrib $-1 -1 $-1 $13 $6 1 1021551526 1021551526 -987561980 1 #
shell $-1 -1 $-1 $-1 $-1 $35 $-1 $14 #
model_id-kcp-attrib $-1 -1 $-1 $16 $7 1 1021551526 1021551526 -982974459 1 #
shell $-1 -1 $-1 $-1 $-1 $36 $-1 $17 #
model_id-kcp-attrib $-1 -1 $-1 $19 $8 1 1021551526 1021551526 -979304445 1 #
shell $-1 -1 $-1 $-1 $-1 $37 $-1 $20 #
model_id-kcp-attrib $-1 -1 $-1 $-1 $22 1 1021551526 1021551526 -988479487 2 #
face $38 -1 $-1 $39 $40 $9 $-1 $41 forward single #
loop $-1 -1 $-1 $-1 $42 $22 #
plane-surface $-1 -1 $-1 0 0 0 0 0 1 25.399999999999999 0 0 forward_v I I I I #
face $43 -1 $-1 $44 $45 $23 $-1 $46 forward single #
face $-1 -1 $-1 $47 $48 $25 $-1 $49 forward single #
face $-1 -1 $-1 $50 $51 $27 $-1 $52 forward single #
face $-1 -1 $-1 $53 $54 $29 $-1 $55 forward single #
model_id-kcp-attrib $-1 -1 $-1 $-1 $31 1 1021551526 1021551526 -988479487 3 #
face $56 -1 $-1 $57 $58 $9 $-1 $59 forward single #
loop $-1 -1 $-1 $-1 $60 $31 #
plane-surface $-1 -1 $-1 -6.9849999999999985 2.5399999999999996 0 -1 0 0 0 -25.399999999999999 0 forward_v I I I I #
coedge $-1 -1 $-1 $61 $62 $63 $64 reversed $32 $-1 #
model_id-kcp-attrib $-1 -1 $-1 $-1 $34 1 1021551526 1021551526 -988479486 7 #
face $65 -1 $-1 $66 $67 $23 $-1 $68 reversed single #
loop $-1 -1 $-1 $-1 $69 $34 #
plane-surface $-1 -1 $-1 0 0 8.0009999999999994 0 0 1 1 0 0 forward_v I I I I #
face $-1 -1 $-1 $70 $71 $25 $-1 $72 forward single #
loop $-1 -1 $-1 $-1 $73 $35 #
plane-surface $-1 -1 $-1 3.1749999999999998 -1.2699999999999998 0.38100000000000023 0 -1 0 0 0 -1 forward_v I I I I #
face $-1 -1 $-1 $74 $75 $27 $-1 $76 forward single #
loop $-1 -1 $-1 $-1 $77 $36 #
plane-surface $-1 -1 $-1 -3.1749999999999998 1.2699999999999998 0.38100000000000023 0 1 0 0 0 1 forward_v I I I I #
face $-1 -1 $-1 $78 $79 $29 $-1 $80 forward single #
loop $-1 -1 $-1 $-1 $81 $37 #
plane-surface $-1 -1 $-1 2.5399999999999987 2.5399999999999996 14.731999999999998 1 0 0 0 0 -1 forward_v I I I I #
model_id-kcp-attrib $-1 -1 $-1 $-1 $39 1 1021551526 1021551526 -988479487 4 #
face $82 -1 $-1 $83 $84 $9 $-1 $85 reversed single #
loop $-1 -1 $-1 $86 $87 $39 #
plane-surface $-1 -1 $-1 6.9849999999999985 2.5399999999999996 0 0 1 0 -25.399999999999999 0 0 forward_v I I I I #
coedge $-1 -1 $-1 $63 $88 $89 $90 reversed $40 $-1 #
coedge $-1 -1 $-1 $91 $42 $92 $93 reversed $32 $-1 #
coedge $-1 -1 $-1 $42 $91 $94 $95 reversed $32 $-1 #
coedge $-1 -1 $-1 $96 $60 $42 $64 forward $40 $-1 #
edge $97 -1 $-1 $98 0 $99 0.099999999999999992 $42 $100 forward @7 unknown #
model_id-kcp-attrib $-1 -1 $-1 $-1 $44 1 1021551526 1021551526 -988479486 2 #
face $101 -1 $-1 $102 $103 $23 $-1 $104 reversed single #
loop $-1 -1 $-1 $-1 $105 $44 #
plane-surface $-1 -1 $-1 0 0 -8.0009999999999994 0 0 1 1 0 0 forward_v I I I I #
coedge $-1 -1 $-1 $106 $107 $108 $109 forward $45 $-1 #
face $-1 -1 $-1 $110 $111 $25 $-1 $112 forward single #
loop $-1 -1 $-1 $-1 $113 $47 #
plane-surface $-1 -1 $-1 3.1750000000000007 -1.2699999999999998 8.0009999999999994 0 0 1 1 0 0 forward_v I I I I #
coedge $-1 -1 $-1 $114 $115 $116 $117 forward $48 $-1 #
face $-1 -1 $-1 $118 $119 $27 $-1 $120 forward single #
loop $-1 -1 $-1 $-1 $121 $50 #
plane-surface $-1 -1 $-1 -3.1750000000000007 1.2699999999999998 8.0009999999999994 0 0 1 1 0 0 forward_v I I I I #
coedge $-1 -1 $-1 $122 $123 $124 $125 forward $51 $-1 #
face $-1 -1 $-1 $126 $127 $29 $-1 $128 forward single #
loop $-1 -1 $-1 $-1 $129 $53 #
plane-surface $-1 -1 $-1 2.5399999999999987 2.5399999999999996 8.3819999999999997 0 0 -1 -1 0 0 forward_v I I I I #
coedge $-1 -1 $-1 $130 $131 $132 $133 forward $54 $-1 #
model_id-kcp-attrib $-1 -1 $-1 $-1 $57 1 1021551526 1021551526 -988479487 5 #
face $134 -1 $-1 $135 $136 $9 $-1 $137 reversed single #
loop $-1 -1 $-1 $-1 $138 $57 #
plane-surface $-1 -1 $-1 -2.5399999999999996 2.5399999999999996 14.731999999999998 0 0 1 25.399999999999999 0 0 forward_v I I I I #
loop $-1 -1 $-1 $-1 $139 $39 #
coedge $-1 -1 $-1 $140 $141 $142 $143 reversed $58 $-1 #
coedge $-1 -1 $-1 $60 $96 $144 $145 reversed $40 $-1 #
coedge $-1 -1 $-1 $146 $92 $60 $90 forward $86 $-1 #
edge $147 -1 $-1 $98 0 $148 0.33000000000000002 $89 $149 forward @7 unknown #
coedge $-1 -1 $-1 $62 $61 $150 $151 reversed $32 $-1 #
coedge $-1 -1 $-1 $89 $139 $61 $93 forward $86 $-1 #
edge $152 -1 $-1 $153 0 $98 0.54999999999999993 $61 $154 forward @7 unknown #
coedge $-1 -1 $-1 $155 $156 $62 $95 forward $157 $-1 #
edge $158 -1 $-1 $99 0 $159 0.54999999999999993 $62 $160 forward @7 unknown #
coedge $-1 -1 $-1 $88 $63 $156 $161 forward $40 $-1 #
attrib_edge_convexity-kcp-attrib $-1 -1 $162 $-1 $64 1 #
vertex $-1 -1 $-1 $93 $163 #
vertex $-1 -1 $-1 $95 $164 #
straight-curve $-1 -1 $-1 -6.9849999999999985 2.5399999999999996 0 0 -25.399999999999999 0 I I #
model_id-kcp-attrib $-1 -1 $-1 $-1 $66 1 1021551526 1021551526 -988479486 5 #
face $165 -1 $-1 $166 $167 $23 $-1 $168 reversed single #
loop $-1 -1 $-1 $-1 $169 $66 #
plane-surface $-1 -1 $-1 0 -1.2699999999999998 0 0 1 0 0 0 1 forward_v I I I I #
coedge $-1 -1 $-1 $170 $171 $172 $173 forward $67 $-1 #
coedge $-1 -1 $-1 $174 $69 $175 $176 forward $45 $-1 #
coedge $-1 -1 $-1 $69 $174 $177 $178 forward $45 $-1 #
coedge $-1 -1 $-1 $179 $180 $69 $109 reversed $181 $-1 #
edge $-1 -1 $-1 $182 -1.2699999999999998 $183 1.2699999999999998 $108 $184 forward @7 unknown #
face $-1 -1 $-1 $185 $186 $25 $-1 $187 forward single #
loop $-1 -1 $-1 $-1 $188 $70 #
plane-surface $-1 -1 $-1 3.1750000000000007 1.2699999999999998 8.0009999999999994 0 1 0 0 0 1 forward_v I I I I #
coedge $-1 -1 $-1 $189 $190 $191 $192 forward $71 $-1 #
coedge $-1 -1 $-1 $193 $73 $190 $194 reversed $48 $-1 #
coedge $-1 -1 $-1 $73 $193 $195 $196 forward $48 $-1 #
coedge $-1 -1 $-1 $197 $191 $73 $117 reversed $198 $-1 #
edge $-1 -1 $-1 $199 -1.7145000000000001 $200 5.9054999999999991 $73 $201 forward @7 unknown #
face $-1 -1 $-1 $202 $203 $27 $-1 $204 forward single #
loop $-1 -1 $-1 $-1 $205 $74 #
plane-surface $-1 -1 $-1 -3.1750000000000007 -1.2699999999999998 8.0009999999999994 0 -1 0 0 0 -1 forward_v I I I I #
coedge $-1 -1 $-1 $206 $207 $208 $209 forward $75 $-1 #
coedge $-1 -1 $-1 $210 $77 $207 $211 reversed $51 $-1 #
coedge $-1 -1 $-1 $77 $210 $212 $213 forward $51 $-1 #
coedge $-1 -1 $-1 $214 $208 $77 $125 reversed $215 $-1 #
edge $-1 -1 $-1 $216 -1.7145000000000001 $217 5.9054999999999991 $77 $218 forward @7 unknown #
face $-1 -1 $-1 $219 $220 $29 $-1 $221 forward single #
loop $-1 -1 $-1 $-1 $222 $78 #
plane-surface $-1 -1 $-1 -2.5399999999999996 2.5399999999999996 8.3819999999999997 -1 0 0 0 0 1 forward_v I I I I #
coedge $-1 -1 $-1 $223 $224 $225 $226 forward $79 $-1 #
coedge $-1 -1 $-1 $227 $81 $224 $228 reversed $54 $-1 #
coedge $-1 -1 $-1 $81 $227 $229 $230 forward $54 $-1 #
coedge $-1 -1 $-1 $231 $225 $81 $133 reversed $232 $-1 #
edge $-1 -1 $-1 $233 0 $234 0.24999999999999992 $81 $235 forward @7 unknown #
model_id-kcp-attrib $-1 -1 $-1 $-1 $83 1 1021551526 1021551526 -988479487 6 #
face $236 -1 $-1 $237 $238 $9 $-1 $239 reversed single #
loop $-1 -1 $-1 $-1 $240 $83 #
plane-surface $-1 -1 $-1 -2.5399999999999996 2.5399999999999996 8.3819999999999997 -1 0 0 0 0 25.399999999999999 forward_v I I I I #
coedge $-1 -1 $-1 $142 $241 $242 $243 reversed $84 $-1 #
coedge $-1 -1 $-1 $92 $244 $245 $246 reversed $86 $-1 #
coedge $-1 -1 $-1 $247 $87 $248 $249 reversed $58 $-1 #
coedge $-1 -1 $-1 $87 $247 $250 $251 reversed $58 $-1 #
coedge $-1 -1 $-1 $252 $138 $87 $143 forward $84 $-1 #
edge $253 -1 $-1 $254 5.2451481478353858e-017 $255 0.20000000000000001 $87 $256 forward @7 unknown #
coedge $-1 -1 $-1 $257 $258 $88 $145 forward $259 $-1 #
edge $260 -1 $-1 $148 0 $261 0.099999999999999992 $88 $262 forward @7 unknown #
coedge $-1 -1 $-1 $263 $89 $258 $264 forward $86 $-1 #
attrib_edge_convexity-kcp-attrib $-1 -1 $265 $-1 $90 1 #
vertex $-1 -1 $-1 $264 $266 #
straight-curve $-1 -1 $-1 -6.9849999999999985 2.5399999999999996 0 0 0 25.399999999999999 I I #
coedge $-1 -1 $-1 $245 $267 $91 $151 forward $268 $-1 #
edge $269 -1 $-1 $159 0 $153 0.099999999999999992 $91 $270 forward @7 unknown #
attrib_edge_convexity-kcp-attrib $-1 -1 $271 $-1 $93 1 #
vertex $-1 -1 $-1 $151 $272 #
straight-curve $-1 -1 $-1 6.9849999999999985 2.5399999999999996 0 -25.399999999999999 0 0 I I #
coedge $-1 -1 $-1 $273 $94 $267 $274 forward $157 $-1 #
coedge $-1 -1 $-1 $94 $275 $96 $161 reversed $157 $-1 #
loop $-1 -1 $-1 $-1 $276 $277 #
attrib_edge_convexity-kcp-attrib $-1 -1 $278 $-1 $95 1 #
vertex $-1 -1 $-1 $95 $279 #
straight-curve $-1 -1 $-1 -6.9849999999999985 0 0 25.399999999999999 0 0 I I #
edge $280 -1 $-1 $99 0 $261 0.33000000000000002 $156 $281 forward @7 unknown #
convexity-sys-attrib $-1 -1 $-1 $97 $64 #
point $-1 -1 $-1 -6.9849999999999985 2.5399999999999996 0 #
point $-1 -1 $-1 -6.9849999999999985 0 0 #
model_id-kcp-attrib $-1 -1 $-1 $-1 $102 1 1021551526 1021551526 -988479486 3 #
face $282 -1 $-1 $283 $284 $23 $-1 $285 reversed single #
loop $-1 -1 $-1 $-1 $286 $102 #
plane-surface $-1 -1 $-1 -6.9849999999999985 0 0 1 0 0 0 0 -1 forward_v I I I I #
coedge $-1 -1 $-1 $287 $177 $288 $289 forward $103 $-1 #
coedge $-1 -1 $-1 $290 $105 $287 $291 forward $67 $-1 #
coedge $-1 -1 $-1 $105 $290 $292 $293 forward $67 $-1 #
coedge $-1 -1 $-1 $180 $179 $105 $173 reversed $181 $-1 #
edge $-1 -1 $-1 $294 -1.2699999999999998 $295 1.2699999999999998 $172 $296 forward @7 unknown #
coedge $-1 -1 $-1 $107 $106 $297 $298 forward $45 $-1 #
coedge $-1 -1 $-1 $299 $300 $106 $176 reversed $284 $-1 #
edge $-1 -1 $-1 $183 -6.9849999999999985 $301 6.9849999999999985 $175 $302 forward @7 unknown #
coedge $-1 -1 $-1 $169 $303 $107 $178 reversed $103 $-1 #
edge $-1 -1 $-1 $304 -6.9849999999999985 $182 6.9849999999999985 $177 $305 forward @7 unknown #
coedge $-1 -1 $-1 $172 $108 $303 $306 forward $181 $-1 #
coedge $-1 -1 $-1 $108 $172 $299 $307 reversed $181 $-1 #
loop $-1 -1 $-1 $-1 $179 $283 #
vertex $-1 -1 $-1 $109 $308 #
vertex $-1 -1 $-1 $109 $309 #
straight-curve $-1 -1 $-1 6.9849999999999985 0 8.0009999999999994 0 1 0 I I #
face $-1 -1 $-1 $310 $198 $25 $-1 $311 forward single #
loop $-1 -1 $-1 $-1 $312 $110 #
plane-surface $-1 -1 $-1 3.1749999999999989 1.2699999999999998 0.38100000000000023 0 0 -1 -1 0 0 forward_v I I I I #
coedge $-1 -1 $-1 $313 $314 $315 $316 forward $111 $-1 #
coedge $-1 -1 $-1 $317 $113 $314 $318 reversed $71 $-1 #
coedge $-1 -1 $-1 $113 $317 $114 $194 forward $71 $-1 #
coedge $-1 -1 $-1 $116 $315 $113 $192 reversed $198 $-1 #
edge $-1 -1 $-1 $200 -1.2699999999999998 $319 1.2699999999999998 $113 $320 forward @7 unknown #
coedge $-1 -1 $-1 $115 $114 $321 $322 reversed $48 $-1 #
edge $-1 -1 $-1 $323 0 $200 3.8099999999999987 $190 $324 forward @7 unknown #
coedge $-1 -1 $-1 $325 $312 $115 $196 reversed $186 $-1 #
edge $-1 -1 $-1 $326 0 $199 3.8099999999999987 $115 $327 forward @7 unknown #
coedge $-1 -1 $-1 $315 $116 $312 $328 reversed $198 $-1 #
loop $-1 -1 $-1 $-1 $116 $185 #
vertex $-1 -1 $-1 $196 $329 #
vertex $-1 -1 $-1 $194 $330 #
straight-curve $-1 -1 $-1 6.9849999999999994 -1.2699999999999998 2.0955000000000004 0 0 1 I I #
face $-1 -1 $-1 $331 $215 $27 $-1 $332 reversed single #
loop $-1 -1 $-1 $-1 $333 $118 #
plane-surface $-1 -1 $-1 -3.1749999999999989 -1.2699999999999998 0.38100000000000023 0 0 -1 -1 0 0 forward_v I I I I #
coedge $-1 -1 $-1 $334 $335 $336 $337 forward $119 $-1 #
coedge $-1 -1 $-1 $338 $121 $335 $339 reversed $75 $-1 #
coedge $-1 -1 $-1 $121 $338 $122 $211 forward $75 $-1 #
coedge $-1 -1 $-1 $124 $336 $121 $209 reversed $215 $-1 #
edge $-1 -1 $-1 $217 -1.2699999999999998 $340 1.2699999999999998 $121 $341 forward @7 unknown #
coedge $-1 -1 $-1 $123 $122 $342 $343 reversed $51 $-1 #
edge $-1 -1 $-1 $344 0 $217 3.8099999999999987 $207 $345 forward @7 unknown #
coedge $-1 -1 $-1 $346 $333 $123 $213 reversed $203 $-1 #
edge $-1 -1 $-1 $347 0 $216 3.8099999999999987 $123 $348 forward @7 unknown #
coedge $-1 -1 $-1 $336 $124 $333 $349 reversed $215 $-1 #
loop $-1 -1 $-1 $-1 $124 $202 #
vertex $-1 -1 $-1 $213 $350 #
vertex $-1 -1 $-1 $211 $351 #
straight-curve $-1 -1 $-1 -6.9849999999999994 1.2699999999999998 2.0955000000000004 0 0 1 I I #
face $-1 -1 $-1 $352 $232 $29 $-1 $353 reversed single #
loop $-1 -1 $-1 $-1 $354 $126 #
plane-surface $-1 -1 $-1 -2.5399999999999996 2.5399999999999996 14.731999999999998 0 0 1 1 0 0 forward_v I I I I #
coedge $-1 -1 $-1 $355 $356 $357 $358 forward $127 $-1 #
coedge $-1 -1 $-1 $359 $129 $356 $360 reversed $79 $-1 #
coedge $-1 -1 $-1 $129 $359 $130 $228 forward $79 $-1 #
coedge $-1 -1 $-1 $132 $357 $129 $226 reversed $232 $-1 #
edge $-1 -1 $-1 $234 1.7483827159451284e-017 $361 0.19999999999999996 $129 $362 forward @7 unknown #
coedge $-1 -1 $-1 $131 $130 $363 $364 reversed $54 $-1 #
edge $-1 -1 $-1 $365 0 $234 2.5399999999999996 $224 $366 forward @7 unknown #
coedge $-1 -1 $-1 $367 $354 $131 $230 reversed $220 $-1 #
edge $-1 -1 $-1 $368 0 $233 2.5399999999999996 $131 $369 forward @7 unknown #
coedge $-1 -1 $-1 $357 $132 $354 $370 reversed $232 $-1 #
loop $-1 -1 $-1 $-1 $132 $219 #
vertex $-1 -1 $-1 $230 $371 #
vertex $-1 -1 $-1 $228 $372 #
straight-curve $-1 -1 $-1 2.5399999999999996 0 14.731999999999998 0 0 -25.399999999999999 I I #
model_id-kcp-attrib $-1 -1 $-1 $-1 $135 1 1021551526 1021551526 -988479487 7 #
face $373 -1 $-1 $277 $374 $9 $-1 $375 reversed single #
loop $-1 -1 $-1 $-1 $376 $135 #
plane-surface $-1 -1 $-1 2.5399999999999996 2.5399999999999996 8.3819999999999997 0 0 -1 -25.399999999999999 0 0 forward_v I I I I #
coedge $-1 -1 $-1 $248 $377 $378 $379 reversed $136 $-1 #
coedge $-1 -1 $-1 $138 $252 $380 $381 reversed $84 $-1 #
coedge $-1 -1 $-1 $377 $248 $138 $243 forward $136 $-1 #
edge $-1 -1 $-1 $254 0 $382 0.099999999999999992 $242 $383 forward @7 unknown #
coedge $-1 -1 $-1 $139 $384 $385 $386 reversed $86 $-1 #
coedge $-1 -1 $-1 $387 $150 $139 $246 forward $268 $-1 #
edge $388 -1 $-1 $153 0 $389 0.33000000000000002 $245 $390 forward @7 unknown #
coedge $-1 -1 $-1 $141 $140 $391 $392 reversed $58 $-1 #
coedge $-1 -1 $-1 $242 $240 $140 $249 forward $136 $-1 #
edge $393 -1 $-1 $394 0 $254 0.24999999999999992 $140 $395 forward @7 unknown #
coedge $-1 -1 $-1 $396 $397 $141 $251 forward $374 $-1 #
edge $398 -1 $-1 $255 0 $399 0.24999999999999992 $141 $400 forward @7 unknown #
coedge $-1 -1 $-1 $241 $142 $397 $401 forward $84 $-1 #
attrib_edge_convexity-kcp-attrib $-1 -1 $402 $-1 $143 1 #
vertex $-1 -1 $-1 $249 $403 #
vertex $-1 -1 $-1 $251 $404 #
straight-curve $-1 -1 $-1 -2.5400000000000009 2.5399999999999996 14.731999999999998 25.399999999999999 0 0 I I #
coedge $-1 -1 $-1 $405 $144 $275 $406 forward $259 $-1 #
coedge $-1 -1 $-1 $144 $405 $146 $264 reversed $259 $-1 #
loop $-1 -1 $-1 $-1 $405 $407 #
attrib_edge_convexity-kcp-attrib $-1 -1 $408 $-1 $145 1 #
vertex $-1 -1 $-1 $161 $409 #
straight-curve $-1 -1 $-1 -6.9849999999999985 2.5399999999999996 8.3819999999999997 0 -25.399999999999999 0 I I #
coedge $-1 -1 $-1 $410 $146 $411 $412 reversed $86 $-1 #
edge $413 -1 $-1 $148 0 $414 0.14999999999999997 $146 $415 forward @7 unknown #
convexity-sys-attrib $-1 -1 $-1 $147 $90 #
point $-1 -1 $-1 -6.9849999999999985 2.5399999999999996 8.3819999999999997 #
coedge $-1 -1 $-1 $150 $387 $155 $274 reversed $268 $-1 #
loop $-1 -1 $-1 $-1 $267 $416 #
attrib_edge_convexity-kcp-attrib $-1 -1 $417 $-1 $151 1 #
straight-curve $-1 -1 $-1 6.9849999999999985 0 0 0 25.399999999999999 0 I I #
convexity-sys-attrib $-1 -1 $-1 $152 $93 #
point $-1 -1 $-1 6.9849999999999985 2.5399999999999996 0 #
coedge $-1 -1 $-1 $276 $155 $418 $419 forward $157 $-1 #
edge $-1 -1 $-1 $159 0 $420 0.33000000000000002 $155 $421 forward @7 unknown #
coedge $-1 -1 $-1 $156 $422 $257 $406 reversed $157 $-1 #
coedge $-1 -1 $-1 $423 $273 $424 $425 reversed $157 $-1 #
face $426 -1 $-1 $427 $428 $9 $-1 $429 forward single #
convexity-sys-attrib $-1 -1 $-1 $158 $95 #
point $-1 -1 $-1 6.9849999999999985 0 0 #
attrib_edge_convexity-kcp-attrib $-1 -1 $430 $-1 $161 1 #
straight-curve $-1 -1 $-1 -6.9849999999999985 0 0 0 0 25.399999999999999 I I #
model_id-kcp-attrib $-1 -1 $-1 $-1 $166 1 1021551526 1021551526 -988479486 4 #
face $431 -1 $-1 $-1 $181 $23 $-1 $432 reversed single #
loop $-1 -1 $-1 $-1 $299 $166 #
plane-surface $-1 -1 $-1 0 1.2699999999999998 0 0 -1 0 0 0 -1 forward_v I I I I #
coedge $-1 -1 $-1 $433 $297 $300 $434 forward $167 $-1 #
coedge $-1 -1 $-1 $303 $169 $170 $291 reversed $103 $-1 #
coedge $-1 -1 $-1 $297 $433 $169 $289 reversed $167 $-1 #
edge $-1 -1 $-1 $304 -8.0009999999999994 $435 8.0009999999999994 $288 $436 forward @7 unknown #
coedge $-1 -1 $-1 $171 $170 $433 $437 forward $67 $-1 #
edge $-1 -1 $-1 $295 -6.9849999999999985 $435 6.9849999999999985 $287 $438 forward @7 unknown #
coedge $-1 -1 $-1 $300 $299 $171 $293 reversed $284 $-1 #
edge $-1 -1 $-1 $439 -6.9849999999999985 $294 6.9849999999999985 $292 $440 forward @7 unknown #
vertex $-1 -1 $-1 $173 $441 #
vertex $-1 -1 $-1 $306 $442 #
straight-curve $-1 -1 $-1 6.9849999999999985 0 -8.0009999999999994 0 -1 0 I I #
coedge $-1 -1 $-1 $286 $288 $174 $298 reversed $167 $-1 #
edge $-1 -1 $-1 $301 -1.2699999999999998 $304 1.2699999999999998 $297 $443 forward @7 unknown #
coedge $-1 -1 $-1 $292 $175 $180 $307 forward $284 $-1 #
coedge $-1 -1 $-1 $175 $292 $286 $434 reversed $284 $-1 #
vertex $-1 -1 $-1 $176 $444 #
straight-curve $-1 -1 $-1 0 1.2699999999999998 8.0009999999999994 -1 0 0 I I #
coedge $-1 -1 $-1 $177 $287 $179 $306 reversed $103 $-1 #
vertex $-1 -1 $-1 $298 $445 #
straight-curve $-1 -1 $-1 0 -1.2699999999999998 8.0009999999999994 1 0 0 I I #
edge $-1 -1 $-1 $182 -8.0009999999999994 $295 8.0009999999999994 $179 $446 forward @7 unknown #
edge $-1 -1 $-1 $183 -8.0009999999999994 $294 8.0009999999999994 $180 $447 forward @7 unknown #
point $-1 -1 $-1 6.9849999999999985 -1.2699999999999998 8.0009999999999994 #
point $-1 -1 $-1 6.9849999999999985 1.2699999999999998 8.0009999999999994 #
face $-1 -1 $-1 $-1 $448 $25 $-1 $449 reversed single #
plane-surface $-1 -1 $-1 6.9849999999999994 0 4.1910000000000007 1 -1.6424823338949851e-031 5.758826948471298e-031 5.758826948471298e-031 0 -1 forward_v I I I I #
coedge $-1 -1 $-1 $195 $450 $197 $328 forward $186 $-1 #
coedge $-1 -1 $-1 $451 $188 $450 $452 reversed $111 $-1 #
coedge $-1 -1 $-1 $188 $451 $189 $318 forward $111 $-1 #
coedge $-1 -1 $-1 $191 $197 $188 $316 reversed $198 $-1 #
edge $-1 -1 $-1 $319 -5.9054999999999991 $453 1.7145000000000001 $188 $454 forward @7 unknown #
coedge $-1 -1 $-1 $190 $189 $455 $456 reversed $71 $-1 #
edge $-1 -1 $-1 $457 0 $319 3.8099999999999987 $314 $458 forward @7 unknown #
vertex $-1 -1 $-1 $318 $459 #
straight-curve $-1 -1 $-1 6.9849999999999994 0 8.0009999999999994 0 1 0 I I #
coedge $-1 -1 $-1 $455 $460 $193 $322 forward $448 $-1 #
edge $461 -1 $-1 $326 -1.7145000000000001 $323 5.9054999999999991 $193 $462 forward @7 unknown #
vertex $-1 -1 $-1 $322 $463 #
straight-curve $-1 -1 $-1 3.1750000000000007 -1.2699999999999998 8.0009999999999994 1 0 0 I I #
coedge $-1 -1 $-1 $450 $195 $460 $464 reversed $186 $-1 #
vertex $-1 -1 $-1 $464 $465 #
straight-curve $-1 -1 $-1 3.1749999999999998 -1.2699999999999998 0.38100000000000023 1 0 0 I I #
edge $-1 -1 $-1 $453 -0.6349999999999999 $199 1.9049999999999998 $312 $466 forward @7 unknown #
point $-1 -1 $-1 6.9849999999999985 -1.2699999999999998 0.38100000000000023 #
point $-1 -1 $-1 6.9849999999999994 -1.2699999999999998 8.0009999999999994 #
face $-1 -1 $-1 $-1 $467 $27 $-1 $468 forward single #
plane-surface $-1 -1 $-1 -6.9849999999999994 0 4.1910000000000007 1 -3.1024666306905253e-031 -5.758826948471298e-031 -5.758826948471298e-031 0 -1 forward_v I I I I #
coedge $-1 -1 $-1 $212 $469 $214 $349 forward $203 $-1 #
coedge $-1 -1 $-1 $470 $205 $469 $471 reversed $119 $-1 #
coedge $-1 -1 $-1 $205 $470 $206 $339 forward $119 $-1 #
coedge $-1 -1 $-1 $208 $214 $205 $337 reversed $215 $-1 #
edge $-1 -1 $-1 $340 -5.9054999999999991 $472 1.7145000000000001 $205 $473 forward @7 unknown #
coedge $-1 -1 $-1 $207 $206 $474 $475 reversed $75 $-1 #
edge $-1 -1 $-1 $476 0 $340 3.8099999999999987 $335 $477 forward @7 unknown #
vertex $-1 -1 $-1 $339 $478 #
straight-curve $-1 -1 $-1 -6.9849999999999994 0 8.0009999999999994 0 -1 0 I I #
coedge $-1 -1 $-1 $474 $479 $210 $343 forward $467 $-1 #
edge $480 -1 $-1 $347 -1.7145000000000001 $344 5.9054999999999991 $210 $481 forward @7 unknown #
vertex $-1 -1 $-1 $343 $482 #
straight-curve $-1 -1 $-1 -3.1750000000000007 1.2699999999999998 8.0009999999999994 -1 0 0 I I #
coedge $-1 -1 $-1 $469 $212 $479 $483 reversed $203 $-1 #
vertex $-1 -1 $-1 $483 $484 #
straight-curve $-1 -1 $-1 -3.1749999999999998 1.2699999999999998 0.38100000000000023 -1 0 0 I I #
edge $-1 -1 $-1 $472 -1.9049999999999998 $216 0.6349999999999999 $333 $485 forward @7 unknown #
point $-1 -1 $-1 -6.9849999999999985 1.2699999999999998 0.38100000000000023 #
point $-1 -1 $-1 -6.9849999999999994 1.2699999999999998 8.0009999999999994 #
face $-1 -1 $-1 $-1 $486 $29 $-1 $487 forward single #
plane-surface $-1 -1 $-1 -1.1102230246251565e-016 0 11.557 -2.7374705564916404e-032 1 8.7599057807732497e-033 0 -8.7599057807732497e-033 1 forward_v I I I I #
coedge $-1 -1 $-1 $229 $488 $231 $370 forward $220 $-1 #
coedge $-1 -1 $-1 $489 $222 $488 $490 reversed $127 $-1 #
coedge $-1 -1 $-1 $222 $489 $223 $360 forward $127 $-1 #
coedge $-1 -1 $-1 $225 $231 $222 $358 reversed $232 $-1 #
edge $-1 -1 $-1 $361 0 $491 0.24999999999999992 $222 $492 forward @7 unknown #
coedge $-1 -1 $-1 $224 $223 $493 $494 reversed $79 $-1 #
edge $-1 -1 $-1 $495 0 $361 2.5399999999999996 $356 $496 forward @7 unknown #
vertex $-1 -1 $-1 $360 $497 #
straight-curve $-1 -1 $-1 2.5399999999999991 0 8.3819999999999997 -25.399999999999999 0 0 I I #
coedge $-1 -1 $-1 $493 $498 $227 $364 forward $486 $-1 #
edge $-1 -1 $-1 $368 0 $365 0.24999999999999992 $227 $499 forward @7 unknown #
vertex $-1 -1 $-1 $494 $500 #
straight-curve $-1 -1 $-1 2.5399999999999987 2.5399999999999996 8.3819999999999997 0 -1 0 I I #
coedge $-1 -1 $-1 $488 $229 $498 $501 reversed $220 $-1 #
vertex $-1 -1 $-1 $501 $502 #
straight-curve $-1 -1 $-1 2.5399999999999987 2.5399999999999996 14.731999999999998 0 -1 0 I I #
edge $-1 -1 $-1 $491 5.2451481478353858e-017 $233 0.20000000000000001 $354 $503 forward @7 unknown #
point $-1 -1 $-1 2.5399999999999987 0 14.731999999999998 #
point $-1 -1 $-1 2.5399999999999987 0 8.3819999999999997 #
model_id-kcp-attrib $-1 -1 $-1 $-1 $237 1 1021551526 1021551526 -988479487 8 #
loop $-1 -1 $-1 $-1 $397 $237 #
plane-surface $-1 -1 $-1 2.5399999999999996 2.5399999999999996 14.731999999999998 1 0 0 0 0 -25.399999999999999 forward_v I I I I #
coedge $-1 -1 $-1 $391 $504 $396 $505 reversed $238 $-1 #
coedge $-1 -1 $-1 $240 $242 $506 $507 reversed $136 $-1 #
coedge $-1 -1 $-1 $504 $391 $240 $379 forward $238 $-1 #
edge $-1 -1 $-1 $394 0 $508 0.099999999999999992 $378 $509 forward @7 unknown #
coedge $-1 -1 $-1 $510 $506 $241 $381 forward $428 $-1 #
edge $-1 -1 $-1 $382 0 $511 0.20000000000000001 $380 $512 forward @7 unknown #
vertex $-1 -1 $-1 $381 $513 #
straight-curve $-1 -1 $-1 -2.5399999999999996 2.5399999999999996 14.731999999999998 0 -25.399999999999999 0 I I #
coedge $-1 -1 $-1 $244 $410 $514 $515 forward $86 $-1 #
coedge $-1 -1 $-1 $516 $517 $244 $386 forward $518 $-1 #
edge $519 -1 $-1 $389 0 $520 0.14999999999999999 $244 $521 forward @7 unknown #
coedge $-1 -1 $-1 $267 $245 $517 $522 reversed $268 $-1 #
attrib_edge_convexity-kcp-attrib $-1 -1 $523 $-1 $246 1 #
vertex $-1 -1 $-1 $522 $524 #
straight-curve $-1 -1 $-1 6.9849999999999985 2.5399999999999996 0 0 0 25.399999999999999 I I #
coedge $-1 -1 $-1 $378 $376 $247 $392 forward $238 $-1 #
edge $525 -1 $-1 $399 0 $394 0.19999999999999996 $247 $526 forward @7 unknown #
attrib_edge_convexity-kcp-attrib $-1 -1 $527 $-1 $249 1 #
vertex $-1 -1 $-1 $392 $528 #
straight-curve $-1 -1 $-1 -2.5399999999999996 2.5399999999999996 8.3819999999999997 0 0 25.399999999999999 I I #
coedge $-1 -1 $-1 $529 $250 $376 $505 forward $374 $-1 #
coedge $-1 -1 $-1 $250 $529 $252 $401 reversed $374 $-1 #
attrib_edge_convexity-kcp-attrib $-1 -1 $530 $-1 $251 1 #
vertex $-1 -1 $-1 $251 $531 #
straight-curve $-1 -1 $-1 2.5399999999999996 2.5399999999999996 14.731999999999998 0 0 -25.399999999999999 I I #
edge $-1 -1 $-1 $255 0 $511 0.099999999999999992 $397 $532 forward @7 unknown #
convexity-sys-attrib $-1 -1 $-1 $253 $143 #
point $-1 -1 $-1 -2.5399999999999996 2.5399999999999996 14.731999999999998 #
point $-1 -1 $-1 2.5399999999999991 2.5399999999999996 14.731999999999998 #
coedge $-1 -1 $-1 $258 $257 $533 $534 reversed $259 $-1 #
edge $535 -1 $-1 $261 0 $536 0.14999999999999999 $275 $537 forward @7 unknown #
face $538 -1 $-1 $-1 $259 $9 $-1 $539 reversed single #
convexity-sys-attrib $-1 -1 $-1 $260 $145 #
point $-1 -1 $-1 -6.9849999999999985 0 8.3819999999999997 #
coedge $-1 -1 $-1 $384 $263 $540 $541 reversed $86 $-1 #
coedge $-1 -1 $-1 $533 $542 $263 $412 forward $543 $-1 #
edge $544 -1 $-1 $545 0 $414 0.29999999999999999 $263 $546 forward @7 unknown #
attrib_edge_convexity-kcp-attrib $-1 -1 $547 $-1 $264 1 #
vertex $-1 -1 $-1 $412 $548 #
straight-curve $-1 -1 $-1 -6.9849999999999985 2.5399999999999996 8.3819999999999997 25.399999999999999 0 0 I I #
face $549 -1 $-1 $550 $268 $9 $-1 $551 forward single #
convexity-sys-attrib $-1 -1 $-1 $269 $151 #
coedge $-1 -1 $-1 $517 $516 $273 $419 reversed $518 $-1 #
edge $552 -1 $-1 $420 0 $553 0.14999999999999997 $273 $554 forward @7 unknown #
vertex $-1 -1 $-1 $419 $555 #
straight-curve $-1 -1 $-1 6.9849999999999985 0 0 0 0 25.399999999999999 I I #
coedge $-1 -1 $-1 $275 $423 $556 $557 forward $157 $-1 #
coedge $-1 -1 $-1 $422 $276 $558 $559 reversed $157 $-1 #
coedge $-1 -1 $-1 $560 $561 $276 $425 forward $562 $-1 #
edge $563 -1 $-1 $564 0 $553 0.29999999999999999 $276 $565 forward @7 unknown #
model_id-kcp-attrib $-1 -1 $-1 $-1 $277 1 1021551526 1021551526 -988479487 9 #
face $566 -1 $-1 $567 $562 $9 $-1 $568 reversed single #
loop $-1 -1 $-1 $157 $569 $277 #
plane-surface $-1 -1 $-1 -6.9849999999999985 0 0 0 -1 0 25.399999999999999 0 0 forward_v I I I I #
convexity-sys-attrib $-1 -1 $-1 $280 $161 #
model_id-kcp-attrib $-1 -1 $-1 $-1 $283 1 1021551526 1021551526 -988479486 6 #
plane-surface $-1 -1 $-1 6.9849999999999985 0 0 -1 0 0 0 0 1 forward_v I I I I #
coedge $-1 -1 $-1 $288 $286 $290 $437 reversed $167 $-1 #
edge $-1 -1 $-1 $301 -8.0009999999999994 $439 8.0009999999999994 $300 $570 forward @7 unknown #
vertex $-1 -1 $-1 $437 $571 #
straight-curve $-1 -1 $-1 -6.9849999999999985 -1.2699999999999998 0 0 0 -1 I I #
edge $-1 -1 $-1 $435 -1.2699999999999998 $439 1.2699999999999998 $433 $572 forward @7 unknown #
straight-curve $-1 -1 $-1 0 -1.2699999999999998 -8.0009999999999994 -1 0 0 I I #
vertex $-1 -1 $-1 $293 $573 #
straight-curve $-1 -1 $-1 0 1.2699999999999998 -8.0009999999999994 1 0 0 I I #
point $-1 -1 $-1 6.9849999999999985 1.2699999999999998 -8.0009999999999994 #
point $-1 -1 $-1 6.9849999999999985 -1.2699999999999998 -8.0009999999999994 #
straight-curve $-1 -1 $-1 -6.9849999999999985 0 8.0009999999999994 0 -1 0 I I #
point $-1 -1 $-1 -6.9849999999999985 1.2699999999999998 8.0009999999999994 #
point $-1 -1 $-1 -6.9849999999999985 -1.2699999999999998 8.0009999999999994 #
straight-curve $-1 -1 $-1 6.9849999999999985 -1.2699999999999998 0 0 0 -1 I I #
straight-curve $-1 -1 $-1 6.9849999999999985 1.2699999999999998 0 0 0 -1 I I #
loop $-1 -1 $-1 $-1 $460 $310 #
plane-surface $-1 -1 $-1 3.1750000000000012 0 4.1910000000000007 1 -1.6424823338949851e-031 5.758826948471298e-031 5.758826948471298e-031 0 -1 forward_v I I I I #
coedge $-1 -1 $-1 $312 $325 $313 $452 forward $186 $-1 #
coedge $-1 -1 $-1 $314 $313 $574 $575 reversed $111 $-1 #
edge $-1 -1 $-1 $576 0 $453 3.8099999999999987 $450 $577 forward @7 unknown #
vertex $-1 -1 $-1 $452 $578 #
straight-curve $-1 -1 $-1 6.9849999999999994 1.2699999999999998 2.0955000000000004 0 0 -1 I I #
coedge $-1 -1 $-1 $574 $321 $317 $456 forward $448 $-1 #
edge $579 -1 $-1 $323 -1.2699999999999998 $457 1.2699999999999998 $317 $580 forward @7 unknown #
vertex $-1 -1 $-1 $456 $581 #
straight-curve $-1 -1 $-1 3.1750000000000007 1.2699999999999998 8.0009999999999994 1 0 0 I I #
point $-1 -1 $-1 6.9849999999999994 1.2699999999999998 8.0009999999999994 #
coedge $-1 -1 $-1 $321 $574 $325 $464 forward $448 $-1 #
convexity-sys-attrib $-1 -1 $-1 $-1 $322 #
straight-curve $-1 -1 $-1 3.1750000000000007 -1.2699999999999998 2.0955000000000004 0 0 1 I I #
point $-1 -1 $-1 3.1750000000000007 -1.2699999999999998 8.0009999999999994 #
edge $582 -1 $-1 $576 -0.6349999999999999 $326 1.9049999999999998 $325 $583 forward @7 unknown #
point $-1 -1 $-1 3.1749999999999998 -1.2699999999999998 0.38100000000000023 #
straight-curve $-1 -1 $-1 6.9849999999999994 0.6349999999999999 0.38100000000000023 0 -1 0 I I #
loop $-1 -1 $-1 $-1 $479 $331 #
plane-surface $-1 -1 $-1 -3.1750000000000012 0 4.1910000000000007 1 -3.1024666306905253e-031 -5.758826948471298e-031 -5.758826948471298e-031 0 -1 forward_v I I I I #
coedge $-1 -1 $-1 $333 $346 $334 $471 forward $203 $-1 #
coedge $-1 -1 $-1 $335 $334 $584 $585 reversed $119 $-1 #
edge $-1 -1 $-1 $586 0 $472 3.8099999999999987 $469 $587 forward @7 unknown #
vertex $-1 -1 $-1 $471 $588 #
straight-curve $-1 -1 $-1 -6.9849999999999994 -1.2699999999999998 2.0955000000000004 0 0 -1 I I #
coedge $-1 -1 $-1 $584 $342 $338 $475 forward $467 $-1 #
edge $589 -1 $-1 $344 -1.2699999999999998 $476 1.2699999999999998 $338 $590 forward @7 unknown #
vertex $-1 -1 $-1 $475 $591 #
straight-curve $-1 -1 $-1 -3.1750000000000007 -1.2699999999999998 8.0009999999999994 -1 0 0 I I #
point $-1 -1 $-1 -6.9849999999999994 -1.2699999999999998 8.0009999999999994 #
coedge $-1 -1 $-1 $342 $584 $346 $483 forward $467 $-1 #
convexity-sys-attrib $-1 -1 $-1 $-1 $343 #
straight-curve $-1 -1 $-1 -3.1750000000000007 1.2699999999999998 2.0955000000000004 0 0 1 I I #
point $-1 -1 $-1 -3.1750000000000007 1.2699999999999998 8.0009999999999994 #
edge $592 -1 $-1 $586 -1.9049999999999998 $347 0.6349999999999999 $346 $593 forward @7 unknown #
point $-1 -1 $-1 -3.1749999999999998 1.2699999999999998 0.38100000000000023 #
straight-curve $-1 -1 $-1 -6.9849999999999994 0.6349999999999999 0.38100000000000023 0 1 0 I I #
loop $-1 -1 $-1 $-1 $498 $352 #
plane-surface $-1 -1 $-1 -1.1102230246251565e-016 2.5399999999999996 11.557 -2.7374705564916404e-032 1 8.7599057807732497e-033 0 -8.7599057807732497e-033 1 forward_v I I I I #
coedge $-1 -1 $-1 $354 $367 $355 $490 forward $220 $-1 #
coedge $-1 -1 $-1 $356 $355 $594 $595 reversed $127 $-1 #
edge $-1 -1 $-1 $596 0 $491 2.5399999999999996 $488 $597 forward @7 unknown #
vertex $-1 -1 $-1 $490 $598 #
straight-curve $-1 -1 $-1 -2.5399999999999996 0 8.3819999999999997 0 0 25.399999999999999 I I #
coedge $-1 -1 $-1 $594 $363 $359 $494 forward $486 $-1 #
edge $-1 -1 $-1 $365 0 $495 0.19999999999999996 $359 $599 forward @7 unknown #
vertex $-1 -1 $-1 $595 $600 #
straight-curve $-1 -1 $-1 -2.5399999999999996 2.5399999999999996 8.3819999999999997 0 -1 0 I I #
point $-1 -1 $-1 -2.5399999999999996 0 8.3819999999999997 #
coedge $-1 -1 $-1 $363 $594 $367 $501 forward $486 $-1 #
straight-curve $-1 -1 $-1 2.5399999999999996 2.5399999999999996 14.731999999999998 0 0 -25.399999999999999 I I #
point $-1 -1 $-1 2.5399999999999991 2.5399999999999996 8.3819999999999997 #
edge $-1 -1 $-1 $596 5.2451481478353858e-017 $368 0.20000000000000001 $367 $601 forward @7 unknown #
point $-1 -1 $-1 2.5399999999999991 2.5399999999999996 14.731999999999998 #
straight-curve $-1 -1 $-1 -2.5400000000000009 0 14.731999999999998 25.399999999999999 0 0 I I #
coedge $-1 -1 $-1 $376 $378 $569 $602 reversed $238 $-1 #
edge $-1 -1 $-1 $399 0 $603 0.099999999999999992 $396 $604 forward @7 unknown #
coedge $-1 -1 $-1 $380 $569 $377 $507 forward $428 $-1 #
edge $-1 -1 $-1 $508 0 $382 0.24999999999999992 $506 $605 forward @7 unknown #
vertex $-1 -1 $-1 $507 $606 #
straight-curve $-1 -1 $-1 -2.5399999999999996 2.5399999999999996 8.3819999999999997 0 -25.399999999999999 0 I I #
coedge $-1 -1 $-1 $569 $380 $529 $607 forward $428 $-1 #
vertex $-1 -1 $-1 $607 $608 #
straight-curve $-1 -1 $-1 -2.5399999999999991 0 14.731999999999998 25.399999999999999 0 0 I I #
point $-1 -1 $-1 -2.5399999999999991 0 14.731999999999998 #
coedge $-1 -1 $-1 $561 $560 $384 $515 reversed $562 $-1 #
edge $609 -1 $-1 $610 0 $520 0.29999999999999999 $384 $611 forward @7 unknown #
coedge $-1 -1 $-1 $418 $385 $560 $612 forward $518 $-1 #
coedge $-1 -1 $-1 $385 $418 $387 $522 forward $518 $-1 #
loop $-1 -1 $-1 $-1 $517 $567 #
attrib_edge_convexity-kcp-attrib $-1 -1 $613 $-1 $386 1 #
vertex $-1 -1 $-1 $386 $614 #
straight-curve $-1 -1 $-1 6.9849999999999985 2.5399999999999996 8.3819999999999997 -25.399999999999999 0 0 I I #
edge $615 -1 $-1 $420 0 $389 0.099999999999999992 $387 $616 forward @7 unknown #
convexity-sys-attrib $-1 -1 $-1 $388 $246 #
point $-1 -1 $-1 6.9849999999999985 2.5399999999999996 8.3819999999999997 #
attrib_edge_convexity-kcp-attrib $-1 -1 $617 $-1 $392 1 #
straight-curve $-1 -1 $-1 2.5399999999999991 2.5399999999999996 8.3819999999999997 -25.399999999999999 0 0 I I #
convexity-sys-attrib $-1 -1 $-1 $393 $249 #
point $-1 -1 $-1 -2.5399999999999996 2.5399999999999996 8.3819999999999997 #
coedge $-1 -1 $-1 $397 $396 $510 $607 reversed $374 $-1 #
convexity-sys-attrib $-1 -1 $-1 $398 $251 #
point $-1 -1 $-1 2.5399999999999991 2.5399999999999996 8.3819999999999997 #
straight-curve $-1 -1 $-1 2.5399999999999996 2.5399999999999996 14.731999999999998 0 -25.399999999999999 0 I I #
coedge $-1 -1 $-1 $556 $411 $405 $534 forward $543 $-1 #
edge $618 -1 $-1 $414 0 $536 0.099999999999999992 $405 $619 forward @7 unknown #
attrib_edge_convexity-kcp-attrib $-1 -1 $620 $-1 $406 1 #
vertex $-1 -1 $-1 $406 $621 #
straight-curve $-1 -1 $-1 -6.9849999999999985 0 8.3819999999999997 25.399999999999999 0 0 I I #
model_id-kcp-attrib $-1 -1 $-1 $-1 $407 1 1021551526 1021551526 -988479487 15 #
plane-surface $-1 -1 $-1 -3.1749999999999998 2.5399999999999996 8.3819999999999997 0 0 -1 -25.399999999999999 0 0 forward_v I I I I #
coedge $-1 -1 $-1 $622 $623 $410 $541 forward $624 $-1 #
edge $625 -1 $-1 $610 0 $545 0.25 $540 $626 forward @7 unknown #
coedge $-1 -1 $-1 $411 $556 $622 $627 forward $543 $-1 #
loop $-1 -1 $-1 $-1 $411 $628 #
attrib_edge_convexity-kcp-attrib $-1 -1 $629 $-1 $412 1 #
vertex $-1 -1 $-1 $627 $630 #
straight-curve $-1 -1 $-1 -3.1749999999999998 2.5399999999999996 16.001999999999999 0 0 -25.399999999999999 I I #
convexity-sys-attrib $-1 -1 $-1 $413 $264 #
point $-1 -1 $-1 -3.1749999999999998 2.5399999999999996 8.3819999999999997 #
model_id-kcp-attrib $-1 -1 $-1 $-1 $416 1 1021551526 1021551526 -988479487 12 #
face $631 -1 $-1 $628 $624 $9 $-1 $632 forward single #
plane-surface $-1 -1 $-1 6.9849999999999985 0 0 1 0 0 0 25.399999999999999 0 forward_v I I I I #
attrib_edge_convexity-kcp-attrib $-1 -1 $633 $-1 $419 1 #
vertex $-1 -1 $-1 $419 $634 #
straight-curve $-1 -1 $-1 6.9849999999999985 0 8.3819999999999997 -25.399999999999999 0 0 I I #
point $-1 -1 $-1 6.9849999999999985 0 8.3819999999999997 #
coedge $-1 -1 $-1 $542 $533 $422 $557 reversed $543 $-1 #
edge $635 -1 $-1 $636 0 $536 0.29999999999999999 $422 $637 forward @7 unknown #
coedge $-1 -1 $-1 $623 $622 $423 $559 forward $624 $-1 #
edge $-1 -1 $-1 $636 0 $564 0.25 $558 $638 forward @7 unknown #
coedge $-1 -1 $-1 $514 $424 $516 $612 reversed $562 $-1 #
coedge $-1 -1 $-1 $424 $514 $623 $639 reversed $562 $-1 #
loop $-1 -1 $-1 $-1 $424 $427 #
attrib_edge_convexity-kcp-attrib $-1 -1 $640 $-1 $425 1 #
vertex $-1 -1 $-1 $639 $641 #
straight-curve $-1 -1 $-1 3.1749999999999998 0 16.001999999999999 0 0 -25.399999999999999 I I #
model_id-kcp-attrib $-1 -1 $-1 $-1 $427 1 1021551526 1021551526 -988479487 10 #
face $642 -1 $-1 $416 $518 $9 $-1 $643 reversed single #
plane-surface $-1 -1 $-1 3.1749999999999998 2.5399999999999996 8.3819999999999997 -1 0 0 0 0 25.399999999999999 forward_v I I I I #
coedge $-1 -1 $-1 $506 $510 $504 $602 forward $428 $-1 #
straight-curve $-1 -1 $-1 -6.9849999999999985 1.2699999999999998 0 0 0 -1 I I #
point $-1 -1 $-1 -6.9849999999999985 -1.2699999999999998 -8.0009999999999994 #
straight-curve $-1 -1 $-1 -6.9849999999999985 0 -8.0009999999999994 0 1 0 I I #
point $-1 -1 $-1 -6.9849999999999985 1.2699999999999998 -8.0009999999999994 #
coedge $-1 -1 $-1 $460 $455 $451 $575 forward $448 $-1 #
edge $644 -1 $-1 $457 -5.9054999999999991 $576 1.7145000000000001 $451 $645 forward @7 unknown #
vertex $-1 -1 $-1 $464 $646 #
straight-curve $-1 -1 $-1 3.1749999999999989 1.2699999999999998 0.38100000000000023 1 0 0 I I #
point $-1 -1 $-1 6.9849999999999977 1.2699999999999998 0.38100000000000023 #
convexity-sys-attrib $-1 -1 $-1 $-1 $456 #
straight-curve $-1 -1 $-1 3.1750000000000007 0 8.0009999999999994 0 1 0 I I #
point $-1 -1 $-1 3.1750000000000007 1.2699999999999998 8.0009999999999994 #
convexity-sys-attrib $-1 -1 $-1 $-1 $464 #
straight-curve $-1 -1 $-1 3.1750000000000007 0.6349999999999999 0.38100000000000023 0 -1 0 I I #
coedge $-1 -1 $-1 $479 $474 $470 $585 forward $467 $-1 #
edge $647 -1 $-1 $476 -5.9054999999999991 $586 1.7145000000000001 $470 $648 forward @7 unknown #
vertex $-1 -1 $-1 $483 $649 #
straight-curve $-1 -1 $-1 -3.1749999999999989 -1.2699999999999998 0.38100000000000023 -1 0 0 I I #
point $-1 -1 $-1 -6.9849999999999977 -1.2699999999999998 0.38100000000000023 #
convexity-sys-attrib $-1 -1 $-1 $-1 $475 #
straight-curve $-1 -1 $-1 -3.1750000000000007 0 8.0009999999999994 0 -1 0 I I #
point $-1 -1 $-1 -3.1750000000000007 -1.2699999999999998 8.0009999999999994 #
convexity-sys-attrib $-1 -1 $-1 $-1 $483 #
straight-curve $-1 -1 $-1 -3.1750000000000007 0.6349999999999999 0.38100000000000023 0 1 0 I I #
coedge $-1 -1 $-1 $498 $493 $489 $595 forward $486 $-1 #
edge $-1 -1 $-1 $495 0 $596 0.24999999999999992 $489 $650 forward @7 unknown #
vertex $-1 -1 $-1 $501 $651 #
straight-curve $-1 -1 $-1 -2.5399999999999996 2.5399999999999996 14.731999999999998 0 -1 0 I I #
point $-1 -1 $-1 -2.5399999999999996 0 14.731999999999998 #
straight-curve $-1 -1 $-1 2.5399999999999991 2.5399999999999996 8.3819999999999997 -25.399999999999999 0 0 I I #
point $-1 -1 $-1 -2.5399999999999996 2.5399999999999996 8.3819999999999997 #
straight-curve $-1 -1 $-1 -2.5400000000000009 2.5399999999999996 14.731999999999998 25.399999999999999 0 0 I I #
edge $-1 -1 $-1 $603 0 $508 0.20000000000000001 $569 $652 forward @7 unknown #
vertex $-1 -1 $-1 $607 $653 #
straight-curve $-1 -1 $-1 2.5399999999999996 2.5399999999999996 8.3819999999999997 0 -25.399999999999999 0 I I #
straight-curve $-1 -1 $-1 -2.5399999999999996 0 8.3819999999999997 0 0 25.399999999999999 I I #
point $-1 -1 $-1 -2.5399999999999991 0 8.3819999999999997 #
edge $-1 -1 $-1 $511 0 $603 0.24999999999999992 $510 $654 forward @7 unknown #
point $-1 -1 $-1 2.5400000000000009 0 14.731999999999998 #
attrib_edge_convexity-kcp-attrib $-1 -1 $655 $-1 $515 1 #
vertex $-1 -1 $-1 $639 $656 #
straight-curve $-1 -1 $-1 3.1749999999999998 2.5399999999999996 16.001999999999999 0 0 -25.399999999999999 I I #
edge $657 -1 $-1 $520 0 $553 0.099999999999999992 $516 $658 forward @7 unknown #
convexity-sys-attrib $-1 -1 $-1 $519 $386 #
point $-1 -1 $-1 3.1749999999999989 2.5399999999999996 8.3819999999999997 #
attrib_edge_convexity-kcp-attrib $-1 -1 $659 $-1 $522 1 #
straight-curve $-1 -1 $-1 6.9849999999999985 0 8.3819999999999997 0 25.399999999999999 0 I I #
convexity-sys-attrib $-1 -1 $-1 $525 $392 #
attrib_edge_convexity-kcp-attrib $-1 -1 $660 $-1 $534 2 #
straight-curve $-1 -1 $-1 -3.1749999999999998 2.5399999999999996 8.3819999999999997 0 -25.399999999999999 0 I I #
convexity-sys-attrib $-1 -1 $-1 $535 $406 #
point $-1 -1 $-1 -3.1749999999999989 0 8.3819999999999997 #
coedge $-1 -1 $-1 $558 $540 $542 $627 reversed $624 $-1 #
coedge $-1 -1 $-1 $540 $558 $561 $639 forward $624 $-1 #
loop $-1 -1 $-1 $-1 $540 $550 #
attrib_edge_convexity-kcp-attrib $-1 -1 $661 $-1 $541 1 #
straight-curve $-1 -1 $-1 3.1749999999999998 2.5399999999999996 16.001999999999999 -25.399999999999999 0 0 I I #
edge $662 -1 $-1 $636 0 $545 0.099999999999999992 $622 $663 forward @7 unknown #
face $664 -1 $-1 $407 $543 $9 $-1 $665 reversed single #
convexity-sys-attrib $-1 -1 $-1 $544 $412 #
point $-1 -1 $-1 -3.1749999999999998 2.5399999999999996 16.001999999999999 #
model_id-kcp-attrib $-1 -1 $-1 $-1 $550 1 1021551526 1021551526 -988479487 13 #
plane-surface $-1 -1 $-1 0 0 16.001999999999999 0 0 1 25.399999999999999 0 0 forward_v I I I I #
convexity-sys-attrib $-1 -1 $-1 $552 $419 #
point $-1 -1 $-1 3.1749999999999998 0 8.3819999999999997 #
attrib_edge_convexity-kcp-attrib $-1 -1 $666 $-1 $557 1 #
vertex $-1 -1 $-1 $559 $667 #
straight-curve $-1 -1 $-1 -3.1749999999999998 0 16.001999999999999 0 0 -25.399999999999999 I I #
straight-curve $-1 -1 $-1 -3.1749999999999998 0 16.001999999999999 25.399999999999999 0 0 I I #
edge $668 -1 $-1 $564 0 $610 0.099999999999999992 $623 $669 forward @7 unknown #
convexity-sys-attrib $-1 -1 $-1 $563 $425 #
point $-1 -1 $-1 3.1749999999999998 0 16.001999999999999 #
model_id-kcp-attrib $-1 -1 $-1 $-1 $567 1 1021551526 1021551526 -988479487 11 #
plane-surface $-1 -1 $-1 6.9849999999999985 2.5399999999999996 8.3819999999999997 0 0 -1 -25.399999999999999 0 0 forward_v I I I I #
convexity-sys-attrib $-1 -1 $-1 $-1 $575 #
straight-curve $-1 -1 $-1 3.1750000000000007 1.2699999999999998 2.0955000000000004 0 0 -1 I I #
point $-1 -1 $-1 3.1749999999999989 1.2699999999999998 0.38100000000000023 #
convexity-sys-attrib $-1 -1 $-1 $-1 $585 #
straight-curve $-1 -1 $-1 -3.1750000000000007 -1.2699999999999998 2.0955000000000004 0 0 -1 I I #
point $-1 -1 $-1 -3.1749999999999989 -1.2699999999999998 0.38100000000000023 #
straight-curve $-1 -1 $-1 -2.5399999999999996 2.5399999999999996 8.3819999999999997 0 0 25.399999999999999 I I #
point $-1 -1 $-1 -2.5399999999999996 2.5399999999999996 14.731999999999998 #
straight-curve $-1 -1 $-1 2.5400000000000009 0 8.3819999999999997 -25.399999999999999 0 0 I I #
point $-1 -1 $-1 2.5400000000000009 0 8.3819999999999997 #
straight-curve $-1 -1 $-1 2.5399999999999996 0 14.731999999999998 0 0 -25.399999999999999 I I #
convexity-sys-attrib $-1 -1 $-1 $609 $515 #
point $-1 -1 $-1 3.1749999999999998 2.5399999999999996 16.001999999999999 #
attrib_edge_convexity-kcp-attrib $-1 -1 $670 $-1 $612 2 #
straight-curve $-1 -1 $-1 3.1749999999999998 2.5399999999999996 8.3819999999999997 0 -25.399999999999999 0 I I #
convexity-sys-attrib $-1 -1 $-1 $615 $522 #
convexity-sys-attrib $-1 -1 $-1 $618 $534 #
convexity-sys-attrib $-1 -1 $-1 $625 $541 #
attrib_edge_convexity-kcp-attrib $-1 -1 $671 $-1 $627 1 #
straight-curve $-1 -1 $-1 -3.1749999999999998 0 16.001999999999999 0 25.399999999999999 0 I I #
model_id-kcp-attrib $-1 -1 $-1 $-1 $628 1 1021551526 1021551526 -988479487 14 #
plane-surface $-1 -1 $-1 -3.1749999999999998 2.5399999999999996 16.001999999999999 1 0 0 0 0 -25.399999999999999 forward_v I I I I #
convexity-sys-attrib $-1 -1 $-1 $635 $557 #
point $-1 -1 $-1 -3.1749999999999998 0 16.001999999999999 #
attrib_edge_convexity-kcp-attrib $-1 -1 $672 $-1 $639 1 #
straight-curve $-1 -1 $-1 3.1749999999999998 0 16.001999999999999 0 25.399999999999999 0 I I #
convexity-sys-attrib $-1 -1 $-1 $657 $612 #
convexity-sys-attrib $-1 -1 $-1 $662 $627 #
convexity-sys-attrib $-1 -1 $-1 $668 $639 #
End-of-ACIS-data 