600 0 1 0           
97 GICL Pro/E ACIS Translator - Source: f:/data5/repository/PTC/V18/cabdia18/screw-6-20-tf.prt - 6 0 13 ACIS 6.0.3 NT 24 Thu Apr 04 13:40:01 2002 
1 9.9999999999999995e-007 1e-010 
body $-1 $1 $-1 $2 #
lump $-1 $-1 $3 $0 #
transform $-1 1 0 0 0 1 0 0 0 1 0 0 0 25.399999999999999 no_rotate no_reflect no_shear #
shell $-1 $-1 $-1 $4 $-1 $1 #
face $-1 $5 $6 $3 $-1 $7 reversed single #
face $-1 $8 $9 $3 $-1 $10 forward single #
loop $-1 $11 $12 $4 #
plane-surface $-1 -0.08900000000000001 -0.036000000000000004 0 0 1 0 1 0 0 forward_v I I I I #
face $-1 $13 $14 $3 $-1 $15 reversed single #
loop $-1 $-1 $16 $5 #
cone-surface $-1 -0.08900000000000001 -0.040100000000000025 0 0 1 0 0.13500000000000001 0 0 1 I I 0 1 0.13500000000000001 forward I I I I #
loop $-1 $-1 $17 $4 #
coedge $-1 $18 $18 $19 $20 reversed $6 $-1 #
face $-1 $21 $22 $3 $-1 $23 reversed single #
loop $-1 $-1 $24 $8 #
plane-surface $-1 -0.065000000000000002 -0.0039999999999999966 -0.13500405255427897 1 0 0 0 1 0 forward_v I I I I #
coedge $-1 $25 $26 $24 $27 forward $9 $-1 #
coedge $-1 $28 $28 $29 $30 reversed $11 $-1 #
coedge $-1 $12 $12 $31 $32 forward $6 $-1 #
coedge $-1 $33 $34 $12 $20 forward $9 $-1 #
edge $-1 $35 0 $36 3.1415926535897931 $12 $37 forward 7 unknown #
face $-1 $38 $39 $3 $-1 $40 reversed single #
loop $-1 $-1 $41 $13 #
plane-surface $-1 -0.11300000000000002 -0.0039999999999999966 -0.13500405255427897 0 -1 0 1 0 0 forward_v I I I I #
coedge $-1 $42 $43 $16 $27 reversed $14 $-1 #
coedge $-1 $34 $16 $44 $45 reversed $9 $-1 #
coedge $-1 $16 $46 $47 $48 reversed $9 $-1 #
edge $-1 $49 0 $50 0.0039999999999999966 $16 $51 forward 7 unknown #
coedge $-1 $17 $17 $52 $53 reversed $11 $-1 #
coedge $-1 $54 $55 $17 $30 forward $56 $-1 #
edge $-1 $57 -2.4492127076447545e-016 $58 3.1415926535897927 $17 $59 forward 7 unknown #
coedge $-1 $60 $61 $18 $32 reversed $62 $-1 #
edge $-1 $35 0 $36 3.1415926535897927 $18 $63 forward 7 unknown #
coedge $-1 $64 $19 $61 $65 forward $9 $-1 #
coedge $-1 $19 $25 $60 $66 reversed $9 $-1 #
vertex $-1 $32 $67 #
vertex $-1 $32 $68 #
ellipse-curve $-1 -0.088999999999999996 -0.036000000000000004 2.0816681711721685e-017 0 1 0 0.13500000000000001 0 -2.0816681711721685e-017 1 I I #
face $-1 $69 $70 $3 $-1 $71 forward single #
loop $-1 $-1 $72 $21 #
plane-surface $-1 -0.11300000000000002 0.045999999999999999 -0.13500405255427897 -1 0 0 0 -1 0 forward_v I I I I #
coedge $-1 $73 $47 $74 $75 forward $22 $-1 #
coedge $-1 $76 $24 $77 $78 forward $14 $-1 #
coedge $-1 $24 $79 $80 $81 forward $14 $-1 #
coedge $-1 $80 $82 $25 $45 forward $83 $-1 #
edge $-1 $84 0 $50 1.3920685320391231 $25 $85 forward 7 unknown #
coedge $-1 $26 $64 $86 $87 reversed $9 $-1 #
coedge $-1 $41 $77 $26 $48 forward $22 $-1 #
edge $-1 $49 0 $88 0.35745558951154804 $26 $89 forward 7 unknown #
vertex $-1 $48 $90 #
vertex $-1 $45 $91 #
straight-curve $-1 -0.065000000000000002 -0.0039999999999999966 -0.13284953895290719 0 1 0 I I #
coedge $-1 $92 $93 $28 $53 forward $94 $-1 #
edge $-1 $58 0 $57 3.1415926535897931 $28 $95 forward 7 unknown #
coedge $-1 $96 $29 $93 $97 forward $56 $-1 #
coedge $-1 $29 $96 $92 $98 reversed $56 $-1 #
loop $-1 $-1 $54 $99 #
vertex $-1 $53 $100 #
vertex $-1 $53 $101 #
ellipse-curve $-1 -0.089000000000000024 -0.036000000000000004 1.3877787807814457e-017 0 -1 0 -0.078649999999999998 0 -3.3140845753440449e-017 1 I I #
coedge $-1 $102 $31 $34 $66 forward $62 $-1 #
coedge $-1 $31 $103 $33 $65 reversed $62 $-1 #
loop $-1 $-1 $104 $105 #
ellipse-curve $-1 -0.088999999999999996 -0.036000000000000004 -2.0816681711721685e-017 0 -1 0 0.13500000000000001 0 2.0816681711721685e-017 1 I I #
coedge $-1 $46 $33 $106 $107 reversed $9 $-1 #
edge $-1 $36 0 $108 0.036000000000000004 $33 $109 forward 7 unknown #
edge $-1 $35 0 $84 0.036000000000000004 $34 $110 forward 7 unknown #
point $-1 0.045999999999999999 -0.036000000000000004 0 #
point $-1 -0.22400000000000003 -0.036000000000000004 1.6532185776602095e-017 #
face $-1 $105 $111 $3 $-1 $112 forward single #
loop $-1 $-1 $113 $38 #
plane-surface $-1 -0.08900000000000001 0.045999999999999999 0 0 1 0 1 0 0 forward_v I I I I #
coedge $-1 $114 $115 $116 $117 reversed $39 $-1 #
coedge $-1 $77 $41 $118 $119 forward $22 $-1 #
coedge $-1 $86 $120 $41 $75 reversed $39 $-1 #
edge $-1 $88 0 $121 0.26569907790581437 $74 $122 forward 7 unknown #
coedge $-1 $123 $42 $124 $125 forward $14 $-1 #
coedge $-1 $47 $73 $42 $78 reversed $22 $-1 #
edge $-1 $49 2.7755575615628914e-017 $126 0.26569907790581437 $77 $127 forward 7 unknown #
coedge $-1 $43 $123 $128 $129 forward $14 $-1 #
coedge $-1 $130 $44 $43 $81 reversed $83 $-1 #
edge $-1 $131 0 $50 1 $80 $132 forward 7 unknown #
coedge $-1 $44 $133 $102 $134 reversed $83 $-1 #
loop $-1 $-1 $80 $135 #
vertex $-1 $66 $136 #
ellipse-curve $-1 -0.08900000000000001 0 0 0 1 0 0.13500000000000001 0 0 1 I I #
coedge $-1 $115 $74 $46 $87 forward $39 $-1 #
edge $-1 $88 0 $137 0.0039999999999999966 $46 $138 forward 7 unknown #
vertex $-1 $48 $139 #
ellipse-curve $-1 -0.089000000000000079 -0.0039999999999999966 -4.163336342344337e-016 0 1 0 0.024000000000000077 0 -0.13284953895290674 1 I I #
point $-1 -0.065000000000000002 -0.0039999999999999966 -0.13284953895290716 #
point $-1 -0.064999999999999988 0 -0.13284953895290719 #
coedge $-1 $140 $52 $55 $98 forward $94 $-1 #
coedge $-1 $52 $140 $54 $97 reversed $94 $-1 #
loop $-1 $-1 $92 $141 #
ellipse-curve $-1 -0.089000000000000024 -0.036000000000000004 -3.4694469519536142e-018 0 -1 0 0.078650000000000012 0 1.3100975924766611e-017 1 I I #
coedge $-1 $55 $54 $142 $143 reversed $56 $-1 #
edge $-1 $58 0 $144 1.5707963267948959 $54 $145 forward 7 unknown #
edge $-1 $57 0 $146 1.5707963267949003 $55 $147 forward 7 unknown #
face $-1 $141 $56 $3 $-1 $148 reversed single #
point $-1 -0.16765000000000005 -0.036000000000000004 0 #
point $-1 -0.01035000000000001 -0.036000000000000004 9.6315289728129963e-018 #
coedge $-1 $124 $60 $82 $134 forward $62 $-1 #
coedge $-1 $61 $104 $149 $150 forward $62 $-1 #
coedge $-1 $103 $118 $120 $151 forward $62 $-1 #
face $-1 $135 $62 $3 $-1 $152 forward single #
coedge $-1 $149 $153 $64 $107 forward $111 $-1 #
edge $-1 $137 0 $108 1.3920685320391233 $64 $154 forward 7 unknown #
vertex $-1 $107 $155 #
straight-curve $-1 -0.22400000000000003 -0.036000000000000004 1.6532185776602095e-017 0 1 0 I I #
straight-curve $-1 0.045999999999999999 -0.036000000000000004 0 0 1 0 I I #
loop $-1 $-1 $153 $69 #
torus-surface $-1 -0.08900000000000001 0 0 0 1 0 0.08900000000000001 0.045999999999999999 1 0 0 forward_v I I I I #
coedge $-1 $116 $116 $156 $157 forward $70 $-1 #
coedge $-1 $120 $72 $158 $159 forward $39 $-1 #
coedge $-1 $72 $86 $153 $160 forward $39 $-1 #
coedge $-1 $113 $113 $72 $117 forward $70 $-1 #
edge $-1 $161 1.3877787807814457e-017 $162 0.17140595088852667 $116 $163 forward 7 unknown #
coedge $-1 $104 $124 $73 $119 reversed $62 $-1 #
edge $-1 $121 0 $126 0.35745558951154571 $118 $164 forward 7 unknown #
coedge $-1 $74 $114 $104 $151 reversed $39 $-1 #
vertex $-1 $119 $165 #
straight-curve $-1 -0.11300000000000002 -0.0039999999999999966 -0.13284953895290719 0 0 1 I I #
coedge $-1 $79 $76 $133 $166 forward $14 $-1 #
coedge $-1 $118 $102 $76 $125 reversed $62 $-1 #
edge $-1 $126 7.7037197775489495e-031 $167 0.0039999999999999966 $124 $168 forward 7 unknown #
vertex $-1 $119 $169 #
straight-curve $-1 -0.065000000000000002 -0.0039999999999999966 -0.13284953895290719 0 0 1 I I #
coedge $-1 $170 $170 $79 $129 reversed $171 $-1 #
edge $-1 $172 1.3877787807814457e-017 $131 0.17140595088852667 $128 $173 forward 7 unknown #
coedge $-1 $133 $80 $170 $174 reversed $83 $-1 #
vertex $-1 $174 $175 #
intcurve-curve $-1 forward { surfintcur full nurbs 3 open 32 
	0 3 0.032299995291090788 1 0.064597651456591507 1 0.096892185323796121 1 0.12918283204720968 1 
	0.16146891680617062 1 0.19375055104634625 1 0.226028377901345 1 0.25830275034323719 1 0.29057367555872965 1 
	0.32284124004536041 1 0.35510569431092798 1 0.38736729512254803 1 0.41962620910998571 1 0.45188259554965921 1 
	0.48413662495431609 1 0.5163884768855862 1 0.54863832077232288 1 0.5808863166333883 1 0.6131326125296418 1 
	0.64537733078006365 1 0.67762062196962336 1 0.70986269201725483 1 0.74210372037329775 1 0.77434368815560151 1 
	0.80658255516429544 1 0.83882066155341295 1 0.87105854566094743 1 0.90329614878915621 1 0.93553275501077793 1 
	0.96776761678418766 1 1 3 
	-0.065000000000000002 0.045999999999999999 -0.085702975444263321 1 
	-0.065000000000000002 0.045999970530400947 -0.086524524648803031 1 
	-0.065000000000000002 0.045959266418157591 -0.088163361713226834 1 
	-0.064999999999999988 0.045775991458640489 -0.090612565182945221 1 
	-0.065000000000000016 0.045471422030001644 -0.093041608573333393 1.0000000000000002 
	-0.065000000000000016 0.045047010976804802 -0.095443590428372027 1.0000000000000002 
	-0.065000000000000002 0.044505015671932352 -0.097810400994753924 1.0000000000000002 
	-0.065000000000000002 0.043847712054192217 -0.10013674807713863 0.99999999999999978 
	-0.065000000000000002 0.043077047960155539 -0.10241881016038762 1.0000000000000002 
	-0.064999999999999988 0.042195324988350075 -0.10465177652375873 1 
	-0.064999999999999974 0.041205465052611037 -0.10683001494410439 1 
	-0.065000000000000002 0.040110545259817443 -0.10894844140772121 1.0000000000000002 
	-0.064999999999999961 0.038913641548424943 -0.11100253787750605 1 
	-0.065000000000000058 0.03761799078255048 -0.11298790336699521 1 
	-0.064999999999999961 0.036227183779193331 -0.11490002128053781 1 
	-0.065000000000000016 0.034744987905468143 -0.11673459299771323 0.99999999999999956 
	-0.065000000000000044 0.033175344782786914 -0.11848751402342247 1.0000000000000004 
	-0.064999999999999988 0.031522344878276501 -0.12015489206131635 0.99999999999999978 
	-0.065000000000000002 0.029790268690156572 -0.12173299684730628 1.0000000000000002 
	-0.06500000000000003 0.027983571801862128 -0.12321828555226338 0.99999999999999978 
	-0.065000000000000016 0.026106868577481228 -0.12460741682530295 1.0000000000000002 
	-0.064999999999999947 0.024165006739335144 -0.12589720927631851 1 
	-0.06500000000000003 0.022162906135781146 -0.12708476489230422 1 
	-0.064999999999999961 0.020105464210033952 -0.12816748934751093 1 
	-0.065000000000000002 0.017997651349897646 -0.12914299488182004 1 
	-0.064999999999999974 0.015845125909764057 -0.13000886752391305 1.0000000000000002 
	-0.065000000000000002 0.013653868720347384 -0.13076298161550162 1.0000000000000002 
	-0.065000000000000002 0.011428859566526006 -0.13140389192399024 1.0000000000000002 
	-0.064999999999999988 0.0091743053247222515 -0.1319304443906511 1 
	-0.065000000000000002 0.0068961180479168507 -0.13234115346109498 1.0000000000000002 
	-0.064999999999999988 0.0046024858072432097 -0.13263473388783359 1.0000000000000004 
	-0.065000000000000016 0.0023003023611664047 -0.13281059452134963 0.99999999999999989 
	-0.064999999999999988 0.00076691823377079537 -0.13284960749479097 1 
	-0.064999999999999988 0 -0.13284953895290719 1 
	0.001 
	torus -0.08900000000000001 0 0 0 1 0 0.08900000000000001 0.045999999999999999 1 0 0 forward_v I I I I 
	plane -0.065000000000000002 -0.0039999999999999966 -0.13500405255427897 1 0 0 0 1 0 forward_v I I I I 
	nullbs 
	nullbs 
	I I 
	0 
	0 
	0 
	} I I #
coedge $-1 $82 $130 $123 $166 reversed $83 $-1 #
edge $-1 $84 0 $167 1.3920685320391231 $82 $176 forward 7 unknown #
face $-1 $177 $83 $3 $-1 $178 forward single #
point $-1 0.045999999999999999 0 0 #
vertex $-1 $87 $179 #
straight-curve $-1 -0.11300000000000002 -0.0039999999999999966 -0.13284953895290719 0 1 0 I I #
point $-1 -0.11300000000000002 -0.0039999999999999966 -0.13284953895290719 #
coedge $-1 $93 $92 $180 $181 reversed $94 $-1 #
face $-1 $182 $94 $3 $-1 $183 reversed single #
coedge $-1 $184 $185 $96 $143 forward $186 $-1 #
edge $-1 $146 -2.4492127076447545e-016 $144 3.1415926535897931 $142 $187 forward 7 unknown #
vertex $-1 $181 $188 #
ellipse-curve $-1 -0.010350000000000005 -0.054150000000000011 9.6315289728129963e-018 -1.2246063538223768e-016 -3.5113279186876637e-032 1 -5.2041704279304213e-018 0.018150000000000006 0 1 I I #
vertex $-1 $189 $190 #
ellipse-curve $-1 -0.16764999999999999 -0.05414999999999999 0 0 0 -1 -5.5511151231257827e-017 0.018149999999999986 0 1 I I #
torus-surface $-1 -0.08900000000000001 -0.054150000000000004 0 0 -1 0 0.078650000000000012 0.018149999999999999 -1 0 0 forward_v I I I I #
coedge $-1 $158 $106 $103 $150 reversed $111 $-1 #
edge $-1 $191 0 $108 1.3920685320391228 $149 $192 forward 7 unknown #
edge $-1 $121 0 $191 0.0039999999999999966 $104 $193 forward 7 unknown #
cone-surface $-1 -0.08900000000000001 -0.040100000000000025 0 0 1 0 0.13500000000000001 0 0 1 I I 0 1 0.13500000000000001 forward I I I I #
coedge $-1 $106 $156 $115 $160 reversed $111 $-1 #
ellipse-curve $-1 -0.08900000000000001 0 0 0 1 0 -0.024000000000000007 0 -0.13284953895290719 1 I I #
point $-1 -0.22400000000000003 0 1.6532185776602095e-017 #
coedge $-1 $153 $158 $113 $157 reversed $111 $-1 #
edge $-1 $162 0 $161 2.5955067173654873 $156 $194 forward 7 unknown #
coedge $-1 $156 $149 $114 $159 reversed $111 $-1 #
edge $-1 $161 0 $191 1 $158 $195 forward 7 unknown #
edge $-1 $137 0 $162 1 $153 $196 forward 7 unknown #
vertex $-1 $157 $197 #
vertex $-1 $157 $198 #
straight-curve $-1 -0.11300000000000002 0.045999999999999999 0.085702975444263335 0 0 -1 I I #
ellipse-curve $-1 -0.08900000000000001 -0.0039999999999999966 -4.7184478546569153e-016 0 1 0 -0.024000000000000007 0 0.13284953895290763 1 I I #
point $-1 -0.11300000000000002 -0.0039999999999999966 0.13284953895290716 #
edge $-1 $167 0 $172 1 $133 $199 forward 7 unknown #
vertex $-1 $134 $200 #
straight-curve $-1 -0.065000000000000002 -0.0039999999999999966 0.13284953895290721 0 1 -1.3877787807814468e-014 I I #
point $-1 -0.065000000000000002 -0.0039999999999999966 0.13284953895290716 #
coedge $-1 $128 $128 $130 $174 forward $171 $-1 #
loop $-1 $-1 $170 $177 #
vertex $-1 $166 $201 #
straight-curve $-1 -0.065000000000000002 0.045999999999999999 0.085702975444263335 0 0 -1 I I #
edge $-1 $172 3.2850463501643865e-016 $131 2.5955067173654882 $130 $202 forward 7 unknown #
point $-1 -0.065000000000000002 0.045999999999999999 -0.085702975444263321 #
ellipse-curve $-1 -0.08900000000000001 0 0 0 -1 0 0.13500000000000001 0 0 1 I I #
face $-1 $99 $171 $3 $-1 $203 forward single #
torus-surface $-1 -0.08900000000000001 0 0 0 1 0 0.08900000000000001 0.045999999999999999 1 0 0 forward_v I I I I #
point $-1 -0.11300000000000002 0 -0.13284953895290719 #
coedge $-1 $204 $205 $140 $181 forward $206 $-1 #
edge $-1 $144 2.6308721322139683e-032 $146 3.1415926535897931 $180 $207 forward 7 unknown #
face $-1 $208 $206 $3 $-1 $209 forward single #
torus-surface $-1 -0.08900000000000001 -0.054150000000000004 0 0 -1 0 0.078649999999999998 0.018149999999999999 -1 0 0 forward_v I I I I #
coedge $-1 $210 $142 $205 $211 reversed $186 $-1 #
coedge $-1 $142 $212 $204 $189 forward $186 $-1 #
loop $-1 $-1 $185 $213 #
ellipse-curve $-1 -0.08900000000000001 -0.054150000000000004 0 0 -1 0 -0.060500000000000012 0 -1.4817736881250768e-017 1 I I #
point $-1 -0.028499999999999998 -0.054150000000000004 7.4088684406253839e-018 #
edge $-1 $214 -5.5511151231257827e-017 $146 0.19434999999999999 $204 $215 forward 7 unknown #
point $-1 -0.14950000000000002 -0.054150000000000004 0 #
vertex $-1 $159 $216 #
ellipse-curve $-1 -0.08900000000000001 0 0 0 -1 0 -0.024000000000000049 0 0.13284953895290719 1 I I #
straight-curve $-1 -0.11300000000000002 -0.0039999999999999966 0.13284953895290716 0 1 0 I I #
ellipse-curve $-1 -0.088999999999999996 0.045999999999999999 -6.9388939039072284e-018 0 1 0 -0.024000000000000021 0 -0.085702975444263307 1 I I #
intcurve-curve $-1 forward { surfintcur full nurbs 3 open 32 
	0 3 0.032299995291090747 1 0.064597651456591437 1 0.096892185323796065 1 0.12918283204720954 1 
	0.16146891680617045 1 0.19375055104634606 1 0.22602837790134478 1 0.25830275034323696 1 0.29057367555872937 1 
	0.32284124004536008 1 0.35510569431092764 1 0.38736729512254775 1 0.41962620910998549 1 0.45188259554965909 1 
	0.48413662495431597 1 0.51638847688558598 1 0.54863832077232255 1 0.58088631663338786 1 0.61313261252964135 1 
	0.64537733078006332 1 0.67762062196962325 1 0.70986269201725494 1 0.74210372037329797 1 0.77434368815560184 1 
	0.80658255516429578 1 0.83882066155341328 1 0.87105854566094765 1 0.90329614878915632 1 0.93553275501077804 1 
	0.96776761678418766 1 1 3 
	-0.113 0.045999999999999999 0.085702975444263321 1 
	-0.11300000000000002 0.045999970530400947 0.086524524648803017 1 
	-0.113 0.045959266418157604 0.088163361713226723 1.0000000000000002 
	-0.11300000000000003 0.045775991458640523 0.090612565182944999 0.99999999999999989 
	-0.11299999999999996 0.045471422030001658 0.093041608573333254 1.0000000000000002 
	-0.11300000000000006 0.045047010976804878 0.095443590428371569 0.99999999999999989 
	-0.113 0.044505015671932463 0.097810400994753466 0.99999999999999989 
	-0.11300000000000002 0.043847712054192391 0.10013674807713806 1 
	-0.11300000000000009 0.043077047960155761 0.10241881016038697 1 
	-0.11299999999999993 0.042195324988350373 0.10465177652375807 1 
	-0.11300000000000014 0.041205465052611433 0.10683001494410353 1.0000000000000002 
	-0.11299999999999998 0.040110545259817949 0.10894844140772031 0.99999999999999978 
	-0.11300000000000004 0.038913641548425415 0.11100253787750528 1.0000000000000002 
	-0.11300000000000009 0.037617990782550938 0.11298790336699455 1 
	-0.11300000000000007 0.036227183779193692 0.11490002128053738 0.99999999999999978 
	-0.11299999999999995 0.034744987905468372 0.11673459299771295 1 
	-0.11300000000000013 0.033175344782787088 0.11848751402342235 1 
	-0.11300000000000002 0.031522344878276806 0.12015489206131601 0.99999999999999967 
	-0.11300000000000011 0.029790268690157107 0.12173299684730579 1.0000000000000004 
	-0.11300000000000003 0.027983571801862884 0.12321828555226273 1.0000000000000002 
	-0.11300000000000018 0.026106868577482043 0.12460741682530239 0.99999999999999978 
	-0.11299999999999992 0.024165006739335901 0.12589720927631801 1.0000000000000002 
	-0.11300000000000014 0.022162906135781389 0.12708476489230414 1 
	-0.11300000000000009 0.020105464210033737 0.12816748934751104 1.0000000000000002 
	-0.11300000000000002 0.017997651349896997 0.12914299488182032 0.99999999999999978 
	-0.1130000000000001 0.015845125909763228 0.13000886752391341 1 
	-0.11300000000000007 0.013653868720346504 0.13076298161550193 0.99999999999999989 
	-0.11300000000000011 0.011428859566525333 0.13140389192399043 0.99999999999999989 
	-0.11300000000000003 0.009174305324721738 0.13193044439065119 1.0000000000000002 
	-0.11299999999999995 0.0068961180479165194 0.1323411534610951 1 
	-0.11300000000000006 0.0046024858072430562 0.13263473388783362 1.0000000000000002 
	-0.113 0.0023003023611663296 0.13281059452134961 0.99999999999999978 
	-0.11300000000000004 0.00076691823377077444 0.13284960749479097 1 
	-0.11300000000000006 0 0.13284953895290719 1 
	0.001 
	torus -0.08900000000000001 0 0 0 1 0 0.08900000000000001 0.045999999999999999 1 0 0 forward_v I I I I 
	plane -0.11300000000000002 0.045999999999999999 -0.13500405255427897 -1 0 0 0 -1 0 forward_v I I I I 
	nullbs 
	nullbs 
	I I 
	0 
	0 
	0 
	} I I #
intcurve-curve $-1 forward { surfintcur full nurbs 3 open 32 
	0 3 0.032232383215812309 1 0.064467244989221961 1 0.096703851210843683 1 0.12894145433905241 1 
	0.16117933844658683 1 0.19341744483570436 1 0.22565631184439822 1 0.25789627962670203 1 0.29013730798274495 1 
	0.32237937803037642 1 0.35462266921993613 1 0.38686738747035798 1 0.41911368336661148 1 0.45136167922767689 1 
	0.48361152311441358 1 0.51586337504568369 1 0.54811740445034063 1 0.58037379089001417 1 0.61263270487745181 1 
	0.64489430568907191 1 0.67715875995463948 1 0.7094263244412703 1 0.74169724965676265 1 0.77397162209865489 1 
	0.80624944895365369 1 0.8385310831938293 1 0.87081716795279018 1 0.90310781467620371 1 0.93540234854340831 1 
	0.96770000470890905 1 1 3 
	-0.11300000000000002 0 -0.13284953895290719 1 
	-0.113 0.00076691823377077672 -0.13284960749479094 1.0000000000000002 
	-0.113 0.00230030236116635 -0.13281059452134955 1.0000000000000004 
	-0.11300000000000004 0.0046024858072431039 -0.1326347338878337 0.99999999999999967 
	-0.11300000000000004 0.006896118047916718 -0.13234115346109501 1 
	-0.11299999999999999 0.0091743053247220728 -0.13193044439065113 0.99999999999999978 
	-0.11300000000000002 0.01142885956652589 -0.13140389192399032 1.0000000000000002 
	-0.11300000000000002 0.013653868720347215 -0.13076298161550168 0.99999999999999978 
	-0.113 0.015845125909763943 -0.13000886752391311 1 
	-0.11300000000000002 0.0179976513498975 -0.1291429948818201 1.0000000000000002 
	-0.11300000000000002 0.020105464210033827 -0.12816748934751102 0.99999999999999989 
	-0.113 0.022162906135781021 -0.12708476489230427 1.0000000000000004 
	-0.113 0.024165006739335016 -0.12589720927631864 0.99999999999999989 
	-0.11299999999999999 0.026106868577481047 -0.12460741682530306 1.0000000000000002 
	-0.113 0.027983571801861895 -0.12321828555226354 0.99999999999999989 
	-0.11300000000000002 0.029790268690156347 -0.12173299684730653 1.0000000000000002 
	-0.11300000000000002 0.0315223448782763 -0.12015489206131648 1 
	-0.11300000000000006 0.033175344782786755 -0.11848751402342271 1 
	-0.11299999999999999 0.034744987905467963 -0.11673459299771337 1 
	-0.11300000000000007 0.036227183779193206 -0.114900021280538 1 
	-0.11299999999999998 0.037617990782550327 -0.11298790336699545 1 
	-0.11299999999999999 0.038913641548424797 -0.1110025378775063 1.0000000000000002 
	-0.11300000000000003 0.040110545259817325 -0.10894844140772143 0.99999999999999967 
	-0.11300000000000003 0.04120546505261094 -0.10683001494410453 1.0000000000000002 
	-0.11300000000000003 0.042195324988349998 -0.10465177652375893 0.99999999999999978 
	-0.11300000000000003 0.043077047960155532 -0.10241881016038767 0.99999999999999989 
	-0.11299999999999995 0.04384771205419221 -0.10013674807713863 1.0000000000000002 
	-0.113 0.044505015671932359 -0.097810400994753924 0.99999999999999989 
	-0.11299999999999998 0.045047010976804788 -0.095443590428372041 1.0000000000000002 
	-0.113 0.04547142203000161 -0.093041608573333545 1.0000000000000002 
	-0.11299999999999998 0.045775991458640482 -0.090612565182945318 1.0000000000000002 
	-0.11300000000000006 0.045959266418157604 -0.088163361713227029 0.99999999999999978 
	-0.11300000000000002 0.045999970530400947 -0.086524524648803114 1 
	-0.11300000000000002 0.045999999999999999 -0.085702975444263321 1 
	0.001 
	torus -0.08900000000000001 0 0 0 1 0 0.08900000000000001 0.045999999999999999 1 0 0 forward_v I I I I 
	plane -0.11300000000000002 0.045999999999999999 -0.13500405255427897 -1 0 0 0 -1 0 forward_v I I I I 
	nullbs 
	nullbs 
	I I 
	0 
	0 
	0 
	} I I #
point $-1 -0.113 0.045999999999999999 0.085702975444263321 #
point $-1 -0.11300000000000002 0.045999999999999999 -0.085702975444263321 #
intcurve-curve $-1 forward { surfintcur full nurbs 3 open 32 
	0 3 0.032232383215812371 1 0.064467244989222031 1 0.096703851210843739 1 0.12894145433905246 1 
	0.16117933844658697 1 0.19341744483570461 1 0.22565631184439866 1 0.25789627962670264 1 0.29013730798274567 1 
	0.32237937803037708 1 0.35462266921993668 1 0.38686738747035831 1 0.41911368336661164 1 0.451361679227677 1 
	0.48361152311441369 1 0.5158633750456838 1 0.54811740445034074 1 0.58037379089001429 1 0.61263270487745192 1 
	0.64489430568907191 1 0.67715875995463937 1 0.70942632444127007 1 0.74169724965676254 1 0.77397162209865478 1 
	0.80624944895365358 1 0.8385310831938293 1 0.87081716795279029 1 0.90310781467620382 1 0.93540234854340842 1 
	0.96770000470890916 1 1 3 
	-0.064999999999999988 0 0.13284953895290719 1 
	-0.064999999999999988 0.00076691823377082865 0.13284960749479094 1.0000000000000002 
	-0.065000000000000016 0.0023003023611664745 0.13281059452134961 0.99999999999999956 
	-0.064999999999999988 0.0046024858072432027 0.13263473388783362 1 
	-0.065000000000000085 0.0068961180479167597 0.13234115346109504 0.99999999999999989 
	-0.06500000000000003 0.009174305324722104 0.13193044439065113 1 
	-0.064999999999999947 0.011428859566526032 0.1314038919239903 0.99999999999999978 
	-0.065000000000000072 0.013653868720347613 0.13076298161550159 1 
	-0.064999999999999905 0.015845125909764658 0.1300088675239128 1 
	-0.065000000000000044 0.017997651349898686 0.12914299488181966 1 
	-0.064999999999999933 0.020105464210035222 0.12816748934751032 0.99999999999999989 
	-0.06500000000000003 0.022162906135782326 0.12708476489230355 0.99999999999999978 
	-0.065000000000000085 0.024165006739336026 0.12589720927631798 1 
	-0.064999999999999919 0.026106868577481675 0.12460741682530262 0.99999999999999989 
	-0.065000000000000127 0.027983571801862207 0.12321828555226332 1 
	-0.06500000000000003 0.029790268690156527 0.12173299684730635 1 
	-0.065000000000000058 0.031522344878276473 0.12015489206131634 1 
	-0.064999999999999891 0.033175344782787004 0.11848751402342242 1 
	-0.065000000000000072 0.034744987905468372 0.11673459299771297 1 
	-0.064999999999999933 0.036227183779193595 0.1149000212805375 1 
	-0.064999999999999988 0.037617990782550702 0.11298790336699488 0.99999999999999978 
	-0.064999999999999919 0.038913641548425026 0.11100253787750591 1 
	-0.065000000000000058 0.040110545259817401 0.10894844140772131 0.99999999999999989 
	-0.065000000000000002 0.041205465052610891 0.10683001494410466 1.0000000000000004 
	-0.064999999999999947 0.04219532498834988 0.10465177652375918 0.99999999999999989 
	-0.065000000000000085 0.043077047960155414 0.10241881016038805 0.99999999999999978 
	-0.064999999999999933 0.043847712054192099 0.10013674807713895 0.99999999999999989 
	-0.065000000000000085 0.044505015671932317 0.097810400994754118 1 
	-0.064999999999999947 0.045047010976804767 0.095443590428372069 1 
	-0.064999999999999933 0.045471422030001617 0.093041608573333476 1.0000000000000002 
	-0.065000000000000044 0.045775991458640489 0.090612565182945248 1 
	-0.06500000000000003 0.045959266418157591 0.088163361713226959 1 
	-0.065000000000000044 0.045999970530400947 0.086524524648803086 1 
	-0.06500000000000003 0.045999999999999999 0.085702975444263321 1 
	0.001 
	torus -0.08900000000000001 0 0 0 1 0 0.08900000000000001 0.045999999999999999 1 0 0 forward_v I I I I 
	plane -0.065000000000000002 -0.0039999999999999966 -0.13500405255427897 1 0 0 0 1 0 forward_v I I I I 
	nullbs 
	nullbs 
	I I 
	0 
	0 
	0 
	} I I #
point $-1 -0.064999999999999988 0 0.13284953895290719 #
point $-1 -0.065000000000000002 0.045999999999999999 0.085702975444263321 #
ellipse-curve $-1 -0.088999999999999996 0.045999999999999999 -3.4694469519536142e-018 0 1 0 0.023999999999999966 0 0.085702975444263321 1 I I #
plane-surface $-1 -0.08900000000000001 0.045999999999999999 0 0 1 0 1 0 0 forward_v I I I I #
coedge $-1 $217 $180 $185 $189 reversed $206 $-1 #
coedge $-1 $180 $218 $184 $211 forward $206 $-1 #
loop $-1 $-1 $218 $182 #
ellipse-curve $-1 -0.08900000000000001 -0.054150000000000004 0 0 -1 0 0.060499999999999998 0 7.4088684406253808e-018 1 I I #
face $-1 $219 $220 $3 $-1 $221 forward single #
cone-surface $-1 -0.08900000000000001 -0.020375000000000004 0 0 -1 0 -0.060499999999999998 0 0 1 I I 0 1 0.060499999999999998 forward I I I I #
coedge $-1 $212 $184 $222 $223 reversed $186 $-1 #
edge $-1 $224 0 $144 0.19434999999999999 $205 $225 forward 7 unknown #
coedge $-1 $185 $210 $226 $227 reversed $186 $-1 #
face $-1 $228 $186 $3 $-1 $229 forward single #
vertex $-1 $230 $231 #
straight-curve $-1 -0.14950000000000002 -0.2485 -1.4817736881250765e-017 0 1 0 I I #
point $-1 -0.11300000000000006 0 0.13284953895290719 #
coedge $-1 $218 $204 $232 $230 reversed $206 $-1 #
coedge $-1 $205 $217 $233 $234 reversed $206 $-1 #
face $-1 $213 $235 $3 $-1 $236 forward single #
loop $-1 $-1 $237 $208 #
cone-surface $-1 -0.08900000000000001 0.28611538461538455 0 0 -1 0 0 0 -0.13 1 I I -0.12891523025462093 0.99165561734323782 0.13 forward I I I I #
coedge $-1 $233 $237 $210 $223 forward $220 $-1 #
edge $-1 $238 1.0523488528855889e-031 $224 1.5707963267948979 $210 $239 forward 7 unknown #
vertex $-1 $211 $240 #
straight-curve $-1 -0.028500000000000011 -0.2485 7.4088684406253824e-018 0 1 0 I I #
coedge $-1 $241 $232 $212 $227 forward $235 $-1 #
edge $-1 $214 0 $238 1.5707963267948963 $212 $242 forward 7 unknown #
face $-1 $-1 $243 $3 $-1 $244 forward single #
cone-surface $-1 -0.08900000000000001 -0.020375000000000004 0 0 -1 0 -0.060499999999999998 0 0 1 I I 0 1 0.060499999999999998 forward I I I I #
edge $-1 $245 0 $214 1.5707963267948966 $217 $246 forward 7 unknown #
point $-1 -0.14950000000000002 -0.24850000000000005 -3.7044342203126912e-018 #
coedge $-1 $226 $247 $217 $230 forward $235 $-1 #
coedge $-1 $248 $222 $218 $234 forward $220 $-1 #
edge $-1 $224 -3.8353651851674756e-017 $245 1.5707963267948968 $218 $249 forward 7 unknown #
loop $-1 $-1 $247 $219 #
cone-surface $-1 -0.08900000000000001 0.28611538461538455 0 0 -1 0 0 0 -0.13 1 I I -0.12891523025462093 0.99165561734323782 0.13 forward I I I I #
coedge $-1 $222 $250 $241 $251 reversed $220 $-1 #
vertex $-1 $227 $252 #
ellipse-curve $-1 -0.088999999999999968 -0.24850000000000008 -2.6020852139652106e-017 9.4711396759703013e-031 -1 1.376309534659286e-015 -4.163336342344337e-017 -8.3266726846886741e-017 -0.060499999999999957 1 I I #
point $-1 -0.028500000000000011 -0.2485 7.4088684406253824e-018 #
coedge $-1 $253 $226 $237 $251 forward $235 $-1 #
ellipse-curve $-1 -0.08900000000000001 -0.24850000000000011 1.7347234759768071e-017 -9.1753968977285635e-016 -1 -3.1926845992039939e-031 -0.060500000000000012 5.5511151231257827e-017 -2.1051668980080761e-017 1 I I #
loop $-1 $-1 $254 $228 #
plane-surface $-1 -0.08900000000000001 -0.34850000000000003 0 0 -1 0 -1 0 0 forward_v I I I I #
vertex $-1 $230 $255 #
ellipse-curve $-1 -0.089000000000000024 -0.24850000000000014 -2.7755575615628914e-017 -1.0523488528855871e-031 -1 -4.5876984488642817e-016 1.3877787807814457e-017 -2.7755575615628914e-017 0.060500000000000012 1 I I #
coedge $-1 $232 $253 $248 $256 reversed $235 $-1 #
coedge $-1 $250 $233 $247 $256 forward $220 $-1 #
ellipse-curve $-1 -0.088999999999999996 -0.24850000000000014 5.2041704279304213e-018 1.3763095346592852e-015 -1 1.0294099087984213e-031 0.060499999999999984 8.3266726846886741e-017 4.5250939497212836e-018 1 I I #
coedge $-1 $237 $248 $254 $257 forward $220 $-1 #
edge $-1 $238 -1.1188494809800284e-016 $258 0.10084145972763373 $241 $259 forward 7 unknown #
point $-1 -0.08900000000000001 -0.24850000000000005 -0.060499999999999998 #
coedge $-1 $247 $241 $260 $261 forward $235 $-1 #
coedge $-1 $260 $260 $250 $257 reversed $243 $-1 #
point $-1 -0.08900000000000001 -0.24850000000000017 0.060499999999999984 #
edge $-1 $245 0 $262 0.10084145972763373 $247 $263 forward 7 unknown #
edge $-1 $262 0 $258 3.1415926535897931 $254 $264 forward 7 unknown #
vertex $-1 $261 $265 #
straight-curve $-1 -0.08900000000000001 -0.24850000000000017 -0.060499999999999984 0 -0.99165561734323771 0.12891523025462093 I I #
coedge $-1 $254 $254 $253 $261 reversed $243 $-1 #
edge $-1 $258 0 $262 3.1415926535897931 $260 $266 forward 7 unknown #
vertex $-1 $261 $267 #
straight-curve $-1 -0.08900000000000001 -0.24850000000000017 0.060499999999999984 0 -0.99165561734323771 -0.12891523025462093 I I #
ellipse-curve $-1 -0.08900000000000001 -0.34850000000000003 0 0 1 0 0 0 0.047500000000000007 1 I I #
point $-1 -0.08900000000000001 -0.34850000000000003 -0.047500000000000007 #
ellipse-curve $-1 -0.08900000000000001 -0.34850000000000003 0 0 1 0 0 0 -0.047500000000000007 1 I I #
point $-1 -0.08900000000000001 -0.34850000000000003 0.047500000000000007 #
End-of-ACIS-data 