600 0 1 0           
94 GICL ACIS Healer - Source: /gicl/data5/repository/PTC/V18/cabdia18/screw-6-20-tf.prt.sat - 6 0 18 ACIS 6.0.3 Solaris 24 Sat Apr 13 22:29:44 2002 
1 9.999999999999999547e-07 1.000000000000000036e-10 
body $-1 $1 $-1 $-1 #
lump $-1 $-1 $2 $0 #
shell $-1 $-1 $-1 $3 $-1 $1 #
face $-1 $4 $5 $2 $-1 $6 reversed single #
face $-1 $7 $8 $2 $-1 $9 forward single #
loop $-1 $10 $11 $3 #
plane-surface $-1 -2.260600000000000165 -0.9144000000000001016 0 0 1 0 25.39999999999999858 0 0 forward_v I I I I #
face $-1 $12 $13 $2 $-1 $14 reversed single #
loop $-1 $-1 $15 $4 #
cone-surface $-1 -2.260600000000000165 -1.018540000000000667 0 0 1 0 3.428999999999999826 0 0 1 I I 0 1 3.428999999999999826 forward I I I I #
loop $-1 $-1 $16 $3 #
coedge $-1 $17 $17 $18 $19 reversed $5 $-1 #
face $-1 $20 $21 $2 $-1 $22 reversed single #
loop $-1 $-1 $23 $7 #
plane-surface $-1 -1.651000000000000023 -0.1015999999999999126 -3.429102934878685449 1 0 0 0 25.39999999999999858 0 forward_v I I I I #
coedge $-1 $24 $25 $23 $26 forward $8 $-1 #
coedge $-1 $27 $27 $28 $29 reversed $10 $-1 #
coedge $-1 $11 $11 $30 $31 forward $5 $-1 #
coedge $-1 $32 $33 $11 $19 forward $8 $-1 #
edge $-1 $34 3.354559255325831806e-32 $35 3.141592653589793116 $11 $36 forward 7 unknown #
face $-1 $37 $38 $2 $-1 $39 reversed single #
loop $-1 $-1 $40 $12 #
plane-surface $-1 -2.870200000000000085 -0.1015999999999999126 -3.429102934878685449 0 -1 0 25.39999999999999858 0 0 forward_v I I I I #
coedge $-1 $41 $42 $15 $26 reversed $13 $-1 #
coedge $-1 $33 $15 $43 $44 reversed $8 $-1 #
coedge $-1 $15 $45 $46 $47 reversed $8 $-1 #
edge $-1 $48 0 $49 0.003999999999999996614 $15 $50 forward 7 unknown #
coedge $-1 $16 $16 $51 $52 reversed $10 $-1 #
coedge $-1 $53 $54 $16 $29 forward $55 $-1 #
edge $-1 $56 -2.449212707644754023e-16 $57 3.141592653589792672 $16 $58 forward 7 unknown #
coedge $-1 $59 $60 $17 $31 reversed $61 $-1 #
edge $-1 $34 3.354559255325831806e-32 $35 3.141592653589792672 $17 $62 forward 7 unknown #
coedge $-1 $63 $18 $60 $64 forward $8 $-1 #
coedge $-1 $18 $24 $59 $65 reversed $8 $-1 #
vertex $-1 $31 $66 #
vertex $-1 $31 $67 #
ellipse-curve $-1 -2.260599999999999721 -0.9144000000000001016 5.287437154777307235e-16 0 1 0 3.428999999999999826 0 -5.287437154777307235e-16 1 I I #
face $-1 $68 $69 $2 $-1 $70 forward single #
loop $-1 $-1 $71 $20 #
plane-surface $-1 -2.870200000000000085 1.168399999999999883 -3.429102934878685449 -1 0 0 0 -25.39999999999999858 0 forward_v I I I I #
coedge $-1 $72 $46 $73 $74 forward $21 $-1 #
coedge $-1 $75 $23 $76 $77 forward $13 $-1 #
coedge $-1 $23 $78 $79 $80 forward $13 $-1 #
coedge $-1 $79 $81 $24 $44 forward $82 $-1 #
edge $-1 $83 0 $49 1.392068532039123063 $24 $84 forward 7 unknown #
coedge $-1 $25 $63 $85 $86 reversed $8 $-1 #
coedge $-1 $40 $76 $25 $47 forward $21 $-1 #
edge $-1 $48 -3.776897953069438971e-17 $87 0.3574555895115479887 $25 $88 forward 7 unknown #
vertex $-1 $47 $89 #
vertex $-1 $44 $90 #
straight-curve $-1 -1.651000000000000023 -0.1015999999999999126 -3.374378289403842324 0 25.39999999999999858 0 I I #
coedge $-1 $91 $92 $27 $52 forward $93 $-1 #
edge $-1 $57 -2.470845325270538353e-32 $56 3.141592653589793116 $27 $94 forward 7 unknown #
coedge $-1 $95 $28 $92 $96 forward $55 $-1 #
coedge $-1 $28 $95 $91 $97 reversed $55 $-1 #
loop $-1 $-1 $53 $98 #
vertex $-1 $52 $99 #
vertex $-1 $52 $100 #
ellipse-curve $-1 -2.260600000000000609 -0.9144000000000001016 3.524958103184871819e-16 0 -1 0 -1.997709999999999875 0 -8.417774821373873677e-16 1 I I #
coedge $-1 $101 $30 $33 $65 forward $61 $-1 #
coedge $-1 $30 $102 $32 $64 reversed $61 $-1 #
loop $-1 $-1 $103 $104 #
ellipse-curve $-1 -2.260599999999999721 -0.9144000000000001016 -5.287437154777307235e-16 0 -1 0 3.428999999999999826 0 5.287437154777307235e-16 1 I I #
coedge $-1 $45 $32 $105 $106 reversed $8 $-1 #
edge $-1 $35 0 $107 0.03600000000000000422 $32 $108 forward 7 unknown #
edge $-1 $34 0 $83 0.03600000000000000422 $33 $109 forward 7 unknown #
point $-1 1.168399999999999883 -0.9144000000000001016 0 #
point $-1 -5.689600000000000435 -0.9144000000000001016 4.199175187256932044e-16 #
face $-1 $104 $110 $2 $-1 $111 forward single #
loop $-1 $-1 $112 $37 #
plane-surface $-1 -2.260600000000000165 1.168399999999999883 0 0 1 0 25.39999999999999858 0 0 forward_v I I I I #
coedge $-1 $113 $114 $115 $116 reversed $38 $-1 #
coedge $-1 $76 $40 $117 $118 forward $21 $-1 #
coedge $-1 $85 $119 $40 $74 reversed $38 $-1 #
edge $-1 $87 0 $120 0.2656990779058143182 $73 $121 forward 7 unknown #
coedge $-1 $122 $41 $123 $124 forward $13 $-1 #
coedge $-1 $46 $72 $41 $77 reversed $21 $-1 #
edge $-1 $48 3.496765431890256772e-17 $125 0.2656990779058143182 $76 $126 forward 7 unknown #
coedge $-1 $42 $122 $127 $128 forward $13 $-1 #
coedge $-1 $129 $43 $42 $80 reversed $82 $-1 #
edge $-1 $130 0 $49 1 $79 $131 forward 7 unknown #
coedge $-1 $43 $132 $101 $133 reversed $82 $-1 #
loop $-1 $-1 $79 $134 #
vertex $-1 $65 $135 #
ellipse-curve $-1 -2.260600000000000165 0 0 0 1 0 3.428999999999999826 0 0 1 I I #
coedge $-1 $114 $73 $45 $86 forward $38 $-1 #
edge $-1 $87 0 $136 0.003999999999999996614 $45 $137 forward 7 unknown #
vertex $-1 $47 $138 #
ellipse-curve $-1 -2.260600000000001941 -0.1015999999999999126 -1.057487430955461605e-14 0 1 0 0.6096000000000019181 0 -3.374378289403831221 1 I I #
point $-1 -1.651000000000000023 -0.1015999999999999126 -3.374378289403841436 #
point $-1 -1.650999999999999579 0 -3.374378289403842324 #
coedge $-1 $139 $51 $54 $97 forward $93 $-1 #
coedge $-1 $51 $139 $53 $96 reversed $93 $-1 #
loop $-1 $-1 $91 $140 #
ellipse-curve $-1 -2.260600000000000609 -0.9144000000000001016 -8.812395257962179547e-17 0 -1 0 1.997710000000000097 0 3.327647884890718637e-16 1 I I #
coedge $-1 $54 $53 $141 $142 reversed $55 $-1 #
edge $-1 $57 -4.590708749683744166e-17 $143 1.570796326794895892 $53 $144 forward 7 unknown #
edge $-1 $56 1.131873108118747609e-15 $145 1.570796326794900777 $54 $146 forward 7 unknown #
face $-1 $140 $55 $2 $-1 $147 reversed single #
point $-1 -4.258310000000000706 -0.9144000000000001016 0 #
point $-1 -0.2628900000000002346 -0.9144000000000001016 2.446408359094500929e-16 #
coedge $-1 $123 $59 $81 $133 forward $61 $-1 #
coedge $-1 $60 $103 $148 $149 forward $61 $-1 #
coedge $-1 $102 $117 $119 $150 forward $61 $-1 #
face $-1 $134 $61 $2 $-1 $151 forward single #
coedge $-1 $148 $152 $63 $106 forward $110 $-1 #
edge $-1 $136 -7.553795906138829871e-17 $107 1.392068532039123285 $63 $153 forward 7 unknown #
vertex $-1 $106 $154 #
straight-curve $-1 -5.689600000000000435 -0.9144000000000001016 4.199175187256932044e-16 0 25.39999999999999858 0 I I #
straight-curve $-1 1.168399999999999883 -0.9144000000000001016 0 0 25.39999999999999858 0 I I #
loop $-1 $-1 $152 $68 #
torus-surface $-1 -2.260600000000000165 0 0 0 1 0 2.260600000000000165 1.168399999999999883 1 0 0 forward_v I I I I #
coedge $-1 $115 $115 $155 $156 forward $69 $-1 #
coedge $-1 $119 $71 $157 $158 forward $38 $-1 #
coedge $-1 $71 $85 $152 $159 forward $38 $-1 #
coedge $-1 $112 $112 $71 $116 forward $69 $-1 #
edge $-1 $160 1.748382715945128386e-17 $161 0.1714059508885266703 $115 $162 forward 7 unknown #
coedge $-1 $103 $123 $72 $118 reversed $61 $-1 #
edge $-1 $120 7.553795906138783032e-17 $125 0.3574555895115457682 $117 $163 forward 7 unknown #
coedge $-1 $73 $113 $103 $150 reversed $38 $-1 #
vertex $-1 $118 $164 #
straight-curve $-1 -2.870200000000000085 -0.1015999999999999126 -3.374378289403842324 0 0 25.39999999999999858 I I #
coedge $-1 $78 $75 $132 $165 forward $13 $-1 #
coedge $-1 $117 $101 $75 $124 reversed $61 $-1 #
edge $-1 $125 9.705473735494740892e-31 $166 0.003999999999999996614 $123 $167 forward 7 unknown #
vertex $-1 $118 $168 #
straight-curve $-1 -1.651000000000000023 -0.1015999999999999126 -3.374378289403842324 0 0 25.39999999999999858 I I #
coedge $-1 $169 $169 $78 $128 reversed $170 $-1 #
edge $-1 $171 1.748382715945128386e-17 $130 0.1714059508885266703 $127 $172 forward 7 unknown #
coedge $-1 $132 $79 $169 $173 reversed $82 $-1 #
vertex $-1 $173 $174 #
intcurve-curve $-1 forward { surfintcur full nurbs 3 open 32 
	0 3 0.03229999529109078837 1 0.06459765145659150665 1 0.09689218532379612059 1 0.1291828320472096781 1 
	0.1614689168061706204 1 0.1937505510463462532 1 0.2260283779013450012 1 0.2583027503432371863 1 0.2905736755587296494 1 
	0.3228412400453604114 1 0.3551056943109279773 1 0.3873672951225480277 1 0.419626209109985715 1 0.4518825955496592051 1 
	0.484136624954316086 1 0.5163884768855862006 1 0.548638320772322885 1 0.5808863166333882999 1 0.6131326125296417962 1 
	0.6453773307800636516 1 0.6776206219696233601 1 0.709862692017254826 1 0.7421037203732977483 1 0.7743436881556015061 1 
	0.806582555164295445 1 0.8388206615534129496 1 0.8710585456609474253 1 0.9032961487891562058 1 0.9355327550107779278 1 
	0.9677676167841876564 1 1 3 
	-1.651000000000000023 1.168399999999999883 -2.176855576284288052 1 
	-1.651000000000000023 1.168399251472183931 -2.197722926079596739 1 
	-1.651000000000000023 1.167365367021202749 -2.239349387515961354 1 
	-1.650999999999999579 1.162710183049468382 -2.301559155646808463 1 
	-1.651000000000000245 1.154974119562041768 -2.36325685776266825 1.000000000000000222 
	-1.651000000000000245 1.144194078810842008 -2.424267196880649511 1.000000000000000222 
	-1.651000000000000023 1.13042739806708159 -2.484384185266749423 1.000000000000000222 
	-1.651000000000000023 1.113731886176482222 -2.543473401159320968 0.999999999999999778 
	-1.651000000000000023 1.094157018187950525 -2.601437778073845575 1.000000000000000222 
	-1.650999999999999579 1.071761254704091781 -2.658155123703471734 1 
	-1.650999999999999357 1.046618812336320259 -2.713482379580251624 1 
	-1.651000000000000023 1.01880784959936288 -2.767290411756118562 1.000000000000000222 
	-1.650999999999998913 0.988406495329993473 -2.819464462088653534 1 
	-1.651000000000001355 0.9554969658767821228 -2.869892745521678279 1 
	-1.650999999999998913 0.9201704679915105878 -2.918460540525660285 1 
	-1.651000000000000245 0.8825226927988907288 -2.965058662141915935 0.9999999999999995559 
	-1.651000000000000911 0.8426537574827875909 -3.009582856194930489 1.000000000000000444 
	-1.650999999999999579 0.8006675599082230255 -3.051934258357435148 0.999999999999999778 
	-1.651000000000000023 0.7566728247299768784 -3.092018119921579267 1.000000000000000222 
	-1.651000000000000689 0.7107827237672980081 -3.129744453027489826 0.999999999999999778 
	-1.651000000000000245 0.6631144618680231417 -3.165028387362694762 1.000000000000000222 
	-1.650999999999998469 0.6137911711791126379 -3.197789115618489664 1 
	-1.651000000000000689 0.5629378158488410611 -3.227953028264527013 1 
	-1.650999999999998913 0.5106787909348623478 -3.255454229426777424 1 
	-1.651000000000000023 0.457140344287400191 -3.280232069998228805 1 
	-1.650999999999999357 0.402466198108007045 -3.302225235107391299 1.000000000000000222 
	-1.651000000000000023 0.3468082654968235312 -3.321379733033741122 1.000000000000000222 
	-1.651000000000000023 0.2902930329897605577 -3.337658854869351988 1.000000000000000222 
	-1.650999999999999579 0.2330273552479451837 -3.351033287522537929 1 
	-1.651000000000000023 0.175161398417087999 -3.361465297911812478 1.000000000000000222 
	-1.650999999999999579 0.1169031395039775156 -3.368922240750972907 1.000000000000000444 
	-1.651000000000000245 0.05842767997362667554 -3.373389100842280719 0.999999999999999889 
	-1.650999999999999579 0.01947972313777820291 -3.374380030367690519 1 
	-1.650999999999999579 0 -3.374378289403842324 1 
	0.02539999999999999897 
	torus -2.260600000000000165 0 0 0 1 0 2.260600000000000165 1.168399999999999883 1 0 0 forward_v I I I I 
	plane -1.651000000000000023 -0.1015999999999999126 -3.429102934878685449 1 0 0 0 25.39999999999999858 0 forward_v I I I I 
	nullbs 
	nullbs 
	I I 
	0 
	0 
	0 
	} I I #
coedge $-1 $81 $129 $122 $165 reversed $82 $-1 #
edge $-1 $83 0 $166 1.392068532039123063 $81 $175 forward 7 unknown #
face $-1 $176 $82 $2 $-1 $177 forward single #
point $-1 1.168399999999999883 0 0 #
vertex $-1 $86 $178 #
straight-curve $-1 -2.870200000000000085 -0.1015999999999999126 -3.374378289403842324 0 25.39999999999999858 0 I I #
point $-1 -2.870200000000000085 -0.1015999999999999126 -3.374378289403842324 #
coedge $-1 $92 $91 $179 $180 reversed $93 $-1 #
face $-1 $181 $93 $2 $-1 $182 reversed single #
coedge $-1 $183 $184 $95 $142 forward $185 $-1 #
edge $-1 $145 -2.449212707644754023e-16 $143 3.141592653589793116 $141 $186 forward 7 unknown #
vertex $-1 $180 $187 #
ellipse-curve $-1 -0.2628900000000001236 -1.375410000000000244 2.446408359094500929e-16 -1.224606353822376765e-16 -3.51132791868766367e-32 1 -1.321859288694326809e-16 0.4610100000000001419 0 1 I I #
vertex $-1 $188 $189 #
ellipse-curve $-1 -4.258309999999999818 -1.375409999999999577 0 0 0 -1 -1.409983241273948727e-15 0.4610099999999995868 0 1 I I #
torus-surface $-1 -2.260600000000000165 -1.375410000000000021 0 0 -1 0 1.997710000000000097 0.4610099999999999754 -1 0 0 forward_v I I I I #
coedge $-1 $157 $105 $102 $149 reversed $110 $-1 #
edge $-1 $190 0 $107 1.392068532039122619 $148 $191 forward 7 unknown #
edge $-1 $120 0 $190 0.003999999999999996614 $103 $192 forward 7 unknown #
cone-surface $-1 -2.260600000000000165 -1.018540000000000667 0 0 1 0 3.428999999999999826 0 0 1 I I 0 1 3.428999999999999826 forward I I I I #
coedge $-1 $105 $155 $114 $159 reversed $110 $-1 #
ellipse-curve $-1 -2.260600000000000165 0 0 0 1 0 -0.6096000000000001418 0 -3.374378289403842324 1 I I #
point $-1 -5.689600000000000435 0 4.199175187256932044e-16 #
coedge $-1 $152 $157 $112 $156 reversed $110 $-1 #
edge $-1 $161 -4.34502999587741944e-17 $160 2.595506717365487326 $155 $193 forward 7 unknown #
coedge $-1 $155 $148 $113 $158 reversed $110 $-1 #
edge $-1 $160 0 $190 1 $157 $194 forward 7 unknown #
edge $-1 $136 0 $161 1 $152 $195 forward 7 unknown #
vertex $-1 $156 $196 #
vertex $-1 $156 $197 #
straight-curve $-1 -2.870200000000000085 1.168399999999999883 2.176855576284288496 0 0 -25.39999999999999858 I I #
ellipse-curve $-1 -2.260600000000000165 -0.1015999999999999126 -1.198485755082856359e-14 0 1 0 -0.6096000000000001418 0 3.374378289403853426 1 I I #
point $-1 -2.870200000000000085 -0.1015999999999999126 3.374378289403841436 #
edge $-1 $166 0 $171 1 $132 $198 forward 7 unknown #
vertex $-1 $133 $199 #
straight-curve $-1 -1.651000000000000023 -0.1015999999999999126 3.374378289403843212 0 25.39999999999999858 -3.52495810318487454e-13 I I #
point $-1 -1.651000000000000023 -0.1015999999999999126 3.374378289403841436 #
coedge $-1 $127 $127 $129 $173 forward $170 $-1 #
loop $-1 $-1 $169 $176 #
vertex $-1 $165 $200 #
straight-curve $-1 -1.651000000000000023 1.168399999999999883 2.176855576284288496 0 0 -25.39999999999999858 I I #
edge $-1 $171 2.172514997938710213e-16 $130 2.595506717365488214 $129 $201 forward 7 unknown #
point $-1 -1.651000000000000023 1.168399999999999883 -2.176855576284288052 #
ellipse-curve $-1 -2.260600000000000165 0 0 0 -1 0 3.428999999999999826 0 0 1 I I #
face $-1 $98 $170 $2 $-1 $202 forward single #
torus-surface $-1 -2.260600000000000165 0 0 0 1 0 2.260600000000000165 1.168399999999999883 1 0 0 forward_v I I I I #
point $-1 -2.870200000000000085 0 -3.374378289403842324 #
coedge $-1 $203 $204 $139 $180 forward $205 $-1 #
edge $-1 $143 4.175728599707210332e-32 $145 3.141592653589793116 $179 $206 forward 7 unknown #
face $-1 $207 $205 $2 $-1 $208 forward single #
torus-surface $-1 -2.260600000000000165 -1.375410000000000021 0 0 -1 0 1.997709999999999875 0.4610099999999999754 -1 0 0 forward_v I I I I #
coedge $-1 $209 $141 $204 $210 reversed $185 $-1 #
coedge $-1 $141 $211 $203 $188 forward $185 $-1 #
loop $-1 $-1 $184 $212 #
ellipse-curve $-1 -2.260600000000000165 -1.375410000000000021 0 0 -1 0 -1.536700000000000177 0 -3.763705167837694647e-16 1 I I #
point $-1 -0.7238999999999998769 -1.375410000000000021 1.881852583918847324e-16 #
edge $-1 $213 -6.993530863780513543e-17 $145 0.1943499999999999672 $203 $214 forward 7 unknown #
point $-1 -3.797300000000000342 -1.375410000000000021 0 #
vertex $-1 $158 $215 #
ellipse-curve $-1 -2.260600000000000165 0 0 0 -1 0 -0.609600000000001252 0 3.374378289403842324 1 I I #
straight-curve $-1 -2.870200000000000085 -0.1015999999999999126 3.374378289403841436 0 25.39999999999999858 0 I I #
ellipse-curve $-1 -2.260599999999999721 1.168399999999999883 -1.762479051592435909e-16 0 1 0 -0.6096000000000004748 0 -2.176855576284288052 1 I I #
intcurve-curve $-1 forward { surfintcur full nurbs 3 open 32 
	0 3 0.03229999529109074674 1 0.06459765145659143726 1 0.09689218532379606508 1 0.1291828320472095393 1 
	0.1614689168061704538 1 0.193750551046346059 1 0.2260283779013447791 1 0.2583027503432369643 1 0.2905736755587293718 1 
	0.3228412400453600783 1 0.3551056943109276443 1 0.3873672951225477501 1 0.419626209109985493 1 0.451882595549659094 1 
	0.484136624954315975 1 0.5163884768855859786 1 0.5486383207723225519 1 0.5808863166333878558 1 0.6131326125296413521 1 
	0.6453773307800633185 1 0.6776206219696232491 1 0.709862692017254937 1 0.7421037203732979703 1 0.7743436881556018392 1 
	0.806582555164295778 1 0.8388206615534132826 1 0.8710585456609476473 1 0.9032961487891563168 1 0.9355327550107780388 1 
	0.9677676167841876564 1 1 3 
	-2.870200000000000085 1.168399999999999883 2.176855576284288052 1 
	-2.870200000000000085 1.168399251472183931 2.197722926079596295 1 
	-2.870200000000000085 1.167365367021203193 2.239349387515958689 1.000000000000000222 
	-2.870200000000000529 1.16271018304946927 2.30155915564680269 0.999999999999999889 
	-2.870199999999998752 1.15497411956204199 2.363256857762664698 1.000000000000000222 
	-2.870200000000001417 1.144194078810843784 2.42426719688063752 0.999999999999999889 
	-2.870200000000000085 1.130427398067084477 2.484384185266737877 0.999999999999999889 
	-2.870200000000000085 1.113731886176486663 2.543473401159306313 1 
	-2.870200000000001861 1.094157018187956298 2.601437778073828699 1 
	-2.870199999999998308 1.071761254704099331 2.658155123703454858 1 
	-2.870200000000003637 1.046618812336330251 2.71348237958022942 1.000000000000000222 
	-2.870199999999999196 1.018807849599375759 2.767290411756095914 0.999999999999999778 
	-2.870200000000000973 0.9884064953300054635 2.819464462088633994 1.000000000000000222 
	-2.870200000000001861 0.9554969658767937801 2.869892745521661404 1 
	-2.870200000000001861 0.9201704679915196916 2.918460540525649183 0.999999999999999778 
	-2.870199999999998308 0.882522692798896613 2.96505866214190883 1 
	-2.870200000000003193 0.8426537574827920318 3.00958285619492738 1 
	-2.870200000000000085 0.800667559908230797 3.051934258357426266 0.9999999999999996669 
	-2.870200000000002749 0.7566728247299904231 3.092018119921566832 1.000000000000000444 
	-2.870200000000000529 0.7107827237673172149 3.129744453027473394 1.000000000000000222 
	-2.870200000000004525 0.6631144618680439029 3.165028387362680551 0.999999999999999778 
	-2.870199999999997864 0.6137911711791318448 3.197789115618477229 1.000000000000000222 
	-2.870200000000003637 0.5629378158488472783 3.227953028264524793 1 
	-2.870200000000001861 0.5106787909348569077 3.255454229426780532 1.000000000000000222 
	-2.870200000000000085 0.4571403442873837042 3.280232069998235911 0.999999999999999778 
	-2.870200000000002305 0.4024661981079859507 3.302225235107400625 1 
	-2.870200000000001861 0.3468082654968012157 3.321379733033748671 0.999999999999999889 
	-2.870200000000002749 0.2902930329897434603 3.337658854869356873 0.999999999999999889 
	-2.870200000000000529 0.2330273552479321386 3.351033287522540149 1.000000000000000222 
	-2.870199999999998308 0.175161398417079589 3.361465297911815142 1 
	-2.870200000000001417 0.116903139503973616 3.368922240750973796 1.000000000000000222 
	-2.870200000000000085 0.05842767997362476734 3.373389100842279831 0.999999999999999778 
	-2.870200000000000973 0.01947972313777766862 3.374380030367690519 1 
	-2.870200000000001417 0 3.374378289403842324 1 
	0.02539999999999999897 
	torus -2.260600000000000165 0 0 0 1 0 2.260600000000000165 1.168399999999999883 1 0 0 forward_v I I I I 
	plane -2.870200000000000085 1.168399999999999883 -3.429102934878685449 -1 0 0 0 -25.39999999999999858 0 forward_v I I I I 
	nullbs 
	nullbs 
	I I 
	0 
	0 
	0 
	} I I #
intcurve-curve $-1 forward { surfintcur full nurbs 3 open 32 
	0 3 0.03223238321581230886 1 0.06446724498922196123 1 0.09670385121084368318 1 0.1289414543390524082 1 
	0.1611793384465868284 1 0.1934174448357043608 1 0.2256563118443982163 1 0.2578962796267020297 1 0.2901373079827449519 1 
	0.3223793780303764178 1 0.3546226692199361263 1 0.3868673874703579818 1 0.419113683366611478 1 0.451361679227676893 1 
	0.4836115231144135773 1 0.5158633750456836919 1 0.5481174044503406284 1 0.580373790890014174 1 0.6126327048774518058 1 
	0.6448943056890719117 1 0.6771587599546394776 1 0.7094263244412702951 1 0.7416972496567626472 1 0.7739716220986548878 1 
	0.8062494489536536912 1 0.8385310831938292964 1 0.8708171679527901832 1 0.9031078146762037129 1 0.9354023485434083129 1 
	0.9677000047089090451 1 1 3 
	-2.870200000000000085 0 -3.374378289403842324 1 
	-2.870200000000000085 0.0194797231377777276 -3.374380030367689631 1.000000000000000222 
	-2.870200000000000085 0.05842767997362528776 -3.373389100842278499 1.000000000000000444 
	-2.870200000000000973 0.1169031395039748372 -3.368922240750976016 0.9999999999999996669 
	-2.870200000000000973 0.1751613984170846405 -3.361465297911812922 1 
	-2.87019999999999964 0.2330273552479406318 -3.351033287522538373 0.999999999999999778 
	-2.870200000000000085 0.2902930329897576156 -3.337658854869354208 1.000000000000000222 
	-2.870200000000000085 0.3468082654968192569 -3.321379733033742454 0.999999999999999778 
	-2.870200000000000085 0.4024661981080041029 -3.302225235107392631 1 
	-2.870200000000000085 0.4571403442873964718 -3.280232069998230138 1.000000000000000222 
	-2.870200000000000085 0.5106787909348591281 -3.255454229426779644 0.999999999999999889 
	-2.870200000000000085 0.5629378158488379524 -3.227953028264528346 1.000000000000000444 
	-2.870200000000000085 0.6137911711791094183 -3.197789115618493216 0.999999999999999889 
	-2.87019999999999964 0.6631144618680185898 -3.165028387362697426 1.000000000000000222 
	-2.870200000000000085 0.7107827237672921239 -3.129744453027493822 0.999999999999999889 
	-2.870200000000000085 0.7566728247299712162 -3.092018119921585484 1.000000000000000222 
	-2.870200000000000085 0.8006675599082179184 -3.051934258357438257 1 
	-2.870200000000001417 0.8426537574827834831 -3.009582856194936706 1 
	-2.87019999999999964 0.8825226927988861769 -2.965058662141919488 1 
	-2.870200000000001861 0.9201704679915073681 -2.91846054052566517 1 
	-2.870199999999999196 0.955496965876778237 -2.869892745521684052 1 
	-2.87019999999999964 0.9884064953299898093 -2.819464462088659751 1.000000000000000222 
	-2.870200000000000529 1.018807849599359994 -2.767290411756124335 0.9999999999999996669 
	-2.870200000000000529 1.046618812336317816 -2.713482379580254733 1.000000000000000222 
	-2.870200000000000529 1.071761254704090005 -2.658155123703476619 0.999999999999999778 
	-2.870200000000000529 1.094157018187950525 -2.601437778073846907 0.999999999999999889 
	-2.870199999999998308 1.113731886176482 -2.543473401159320968 1.000000000000000222 
	-2.870200000000000085 1.130427398067081812 -2.484384185266749423 0.999999999999999889 
	-2.870199999999999196 1.144194078810841564 -2.424267196880649511 1.000000000000000222 
	-2.870200000000000085 1.15497411956204088 -2.363256857762671803 1.000000000000000222 
	-2.870199999999999196 1.16271018304946816 -2.301559155646811128 1.000000000000000222 
	-2.870200000000001417 1.167365367021203193 -2.239349387515966239 0.999999999999999778 
	-2.870200000000000085 1.168399251472183931 -2.19772292607959896 1 
	-2.870200000000000085 1.168399999999999883 -2.176855576284288052 1 
	0.02539999999999999897 
	torus -2.260600000000000165 0 0 0 1 0 2.260600000000000165 1.168399999999999883 1 0 0 forward_v I I I I 
	plane -2.870200000000000085 1.168399999999999883 -3.429102934878685449 -1 0 0 0 -25.39999999999999858 0 forward_v I I I I 
	nullbs 
	nullbs 
	I I 
	0 
	0 
	0 
	} I I #
point $-1 -2.870200000000000085 1.168399999999999883 2.176855576284288052 #
point $-1 -2.870200000000000085 1.168399999999999883 -2.176855576284288052 #
intcurve-curve $-1 forward { surfintcur full nurbs 3 open 32 
	0 3 0.03223238321581237131 1 0.06446724498922203062 1 0.09670385121084373869 1 0.1289414543390524637 1 
	0.1611793384465869672 1 0.1934174448357046106 1 0.2256563118443986604 1 0.2578962796267026403 1 0.2901373079827456736 1 
	0.322379378030377084 1 0.3546226692199366815 1 0.3868673874703583149 1 0.4191136833666116446 1 0.451361679227677004 1 
	0.4836115231144136883 1 0.515863375045683803 1 0.5481174044503407394 1 0.580373790890014285 1 0.6126327048774519168 1 
	0.6448943056890719117 1 0.6771587599546393665 1 0.7094263244412700731 1 0.7416972496567625361 1 0.7739716220986547768 1 
	0.8062494489536535802 1 0.8385310831938292964 1 0.8708171679527902942 1 0.9031078146762038239 1 0.935402348543408424 1 
	0.9677000047089091561 1 1 3 
	-1.650999999999999579 0 3.374378289403842324 1 
	-1.650999999999999579 0.01947972313777904599 3.374380030367689631 1.000000000000000222 
	-1.651000000000000245 0.05842767997362845189 3.373389100842279831 0.9999999999999995559 
	-1.650999999999999579 0.1169031395039773491 3.368922240750973796 1 
	-1.651000000000002021 0.1751613984170856952 3.36146529791181381 0.999999999999999889 
	-1.651000000000000689 0.2330273552479414367 3.351033287522538373 1 
	-1.650999999999998469 0.2902930329897612238 3.33765885486935332 0.999999999999999778 
	-1.651000000000001799 0.3468082654968293599 3.321379733033740234 1 
	-1.650999999999997581 0.402466198108022255 3.302225235107385082 1 
	-1.651000000000000911 0.4571403442874266143 3.280232069998219036 1 
	-1.650999999999998247 0.5106787909348946553 3.255454229426761881 0.999999999999999889 
	-1.651000000000000689 0.5629378158488710371 3.227953028264510138 0.999999999999999778 
	-1.651000000000002021 0.6137911711791350644 3.197789115618476341 1 
	-1.650999999999997803 0.663114461868034466 3.165028387362686324 0.999999999999999889 
	-1.651000000000003132 0.7107827237673000065 3.129744453027488049 1 
	-1.651000000000000689 0.7566728247299757681 3.092018119921581043 1 
	-1.651000000000001355 0.8006675599082223593 3.051934258357434704 1 
	-1.650999999999997137 0.8426537574827898114 3.009582856194929157 1 
	-1.651000000000001799 0.882522692798896613 2.965058662141909274 1 
	-1.650999999999998247 0.9201704679915172491 2.918460540525652291 1 
	-1.650999999999999579 0.9554969658767877849 2.869892745521669841 0.999999999999999778 
	-1.650999999999997803 0.9884064953299955825 2.819464462088649981 1 
	-1.651000000000001355 1.018807849599361992 2.767290411756121227 0.999999999999999889 
	-1.651000000000000023 1.046618812336316484 2.713482379580258286 1.000000000000000444 
	-1.650999999999998469 1.071761254704086896 2.658155123703482836 0.999999999999999889 
	-1.651000000000002021 1.094157018187947417 2.601437778073856233 0.999999999999999778 
	-1.650999999999998247 1.113731886176479335 2.543473401159328962 0.999999999999999889 
	-1.651000000000002021 1.130427398067080702 2.484384185266754308 1 
	-1.650999999999998469 1.14419407881084112 2.424267196880650399 1 
	-1.650999999999998247 1.154974119562041102 2.363256857762670027 1.000000000000000222 
	-1.651000000000000911 1.162710183049468382 2.301559155646809351 1 
	-1.651000000000000689 1.167365367021202749 2.239349387515964462 1 
	-1.651000000000000911 1.168399251472183931 2.197722926079598071 1 
	-1.651000000000000689 1.168399999999999883 2.176855576284288052 1 
	0.02539999999999999897 
	torus -2.260600000000000165 0 0 0 1 0 2.260600000000000165 1.168399999999999883 1 0 0 forward_v I I I I 
	plane -1.651000000000000023 -0.1015999999999999126 -3.429102934878685449 1 0 0 0 25.39999999999999858 0 forward_v I I I I 
	nullbs 
	nullbs 
	I I 
	0 
	0 
	0 
	} I I #
point $-1 -1.650999999999999579 0 3.374378289403842324 #
point $-1 -1.651000000000000023 1.168399999999999883 2.176855576284288052 #
ellipse-curve $-1 -2.260599999999999721 1.168399999999999883 -8.812395257962179547e-17 0 1 0 0.6095999999999991426 0 2.176855576284288052 1 I I #
plane-surface $-1 -2.260600000000000165 1.168399999999999883 0 0 1 0 25.39999999999999858 0 0 forward_v I I I I #
coedge $-1 $216 $179 $184 $188 reversed $205 $-1 #
coedge $-1 $179 $217 $183 $210 forward $205 $-1 #
loop $-1 $-1 $217 $181 #
ellipse-curve $-1 -2.260600000000000165 -1.375410000000000021 0 0 -1 0 1.536699999999999955 0 1.881852583918846584e-16 1 I I #
face $-1 $218 $219 $2 $-1 $220 forward single #
cone-surface $-1 -2.260600000000000165 -0.5175250000000001238 0 0 -1 0 -1.536699999999999955 0 0 1 I I 0 1 1.536699999999999955 forward I I I I #
coedge $-1 $211 $183 $221 $222 reversed $185 $-1 #
edge $-1 $223 0 $143 0.1943499999999999672 $204 $224 forward 7 unknown #
coedge $-1 $184 $209 $225 $226 reversed $185 $-1 #
face $-1 $227 $185 $2 $-1 $228 forward single #
vertex $-1 $229 $230 #
straight-curve $-1 -3.797300000000000342 -6.311899999999999622 -3.763705167837694154e-16 0 25.39999999999999858 0 I I #
point $-1 -2.870200000000001417 0 3.374378289403842324 #
coedge $-1 $217 $203 $231 $229 reversed $205 $-1 #
coedge $-1 $204 $216 $232 $233 reversed $205 $-1 #
face $-1 $212 $234 $2 $-1 $235 forward single #
loop $-1 $-1 $236 $207 #
cone-surface $-1 -2.260600000000000165 7.267330769230767373 0 0 -1 0 0 0 -3.302000000000000046 1 I I -0.1289152302546209272 0.9916556173432378163 3.302000000000000046 forward I I I I #
coedge $-1 $232 $236 $209 $222 forward $219 $-1 #
edge $-1 $237 1.101770099924101287e-16 $223 1.57079632679489789 $209 $238 forward 7 unknown #
vertex $-1 $210 $239 #
straight-curve $-1 -0.72390000000000021 -6.311899999999999622 1.881852583918847077e-16 0 25.39999999999999858 0 I I #
coedge $-1 $240 $231 $211 $226 forward $234 $-1 #
edge $-1 $213 0 $237 1.570796326794896336 $211 $241 forward 7 unknown #
face $-1 $-1 $242 $2 $-1 $243 forward single #
cone-surface $-1 -2.260600000000000165 -0.5175250000000001238 0 0 -1 0 -1.536699999999999955 0 0 1 I I 0 1 1.536699999999999955 forward I I I I #
edge $-1 $244 -5.96039562254020965e-17 $213 1.570796326794896558 $216 $245 forward 7 unknown #
point $-1 -3.797300000000000342 -6.311900000000001398 -9.409262919594235385e-17 #
coedge $-1 $225 $246 $216 $229 forward $234 $-1 #
coedge $-1 $247 $221 $217 $233 forward $219 $-1 #
edge $-1 $223 -3.835365185167475017e-17 $244 1.570796326794897002 $217 $248 forward 7 unknown #
loop $-1 $-1 $246 $218 #
cone-surface $-1 -2.260600000000000165 7.267330769230767373 0 0 -1 0 0 0 -3.302000000000000046 1 I I -0.1289152302546209272 0.9916556173432378163 3.302000000000000046 forward I I I I #
coedge $-1 $221 $249 $240 $250 reversed $219 $-1 #
vertex $-1 $226 $251 #
ellipse-curve $-1 -2.260599999999999277 -6.311900000000001398 -6.60929644347163503e-16 9.471139675970301279e-31 -1 1.376309534659286004e-15 -1.057487430955461447e-15 -2.114974861910922894e-15 -1.536699999999998845 1 I I #
point $-1 -0.72390000000000021 -6.311899999999999622 1.881852583918847077e-16 #
coedge $-1 $252 $225 $236 $250 forward $234 $-1 #
ellipse-curve $-1 -2.260600000000000165 -6.311900000000002287 4.40619762898109002e-16 -9.1753968977285635e-16 -1 -3.19268459920399385e-31 -1.536700000000000177 1.409983241273948727e-15 -5.347123920940513189e-16 1 I I #
loop $-1 $-1 $253 $227 #
plane-surface $-1 -2.260600000000000165 -8.851900000000000546 0 0 -1 0 -25.39999999999999858 0 0 forward_v I I I I #
vertex $-1 $229 $254 #
ellipse-curve $-1 -2.260600000000000609 -6.311900000000003175 -7.049916206369743637e-16 -1.052348852885587109e-31 -1 -4.58769844886428175e-16 3.524958103184871819e-16 -7.049916206369743637e-16 1.536700000000000177 1 I I #
coedge $-1 $231 $252 $247 $255 reversed $234 $-1 #
coedge $-1 $249 $232 $246 $255 forward $219 $-1 #
ellipse-curve $-1 -2.260599999999999721 -6.311900000000003175 1.321859288694326809e-16 1.376309534659285215e-15 -1 1.029409908798421289e-31 1.536699999999999511 2.114974861910922894e-15 1.149373863229206034e-16 1 I I #
coedge $-1 $236 $247 $253 $256 forward $219 $-1 #
edge $-1 $237 -1.062815440959614744e-16 $257 0.1008414597276337393 $240 $258 forward 7 unknown #
point $-1 -2.260600000000000165 -6.311900000000001398 -1.536699999999999955 #
coedge $-1 $246 $240 $259 $260 forward $234 $-1 #
coedge $-1 $259 $259 $249 $256 reversed $242 $-1 #
point $-1 -2.260600000000000165 -6.311900000000004063 1.536699999999999511 #
edge $-1 $244 0 $261 0.1008414597276337393 $246 $262 forward 7 unknown #
edge $-1 $261 0 $257 3.141592653589793116 $253 $263 forward 7 unknown #
vertex $-1 $260 $264 #
straight-curve $-1 -2.260600000000000165 -6.311900000000004063 -1.536699999999999511 0 -25.18805268051823631 3.274446848467370774 I I #
coedge $-1 $253 $253 $252 $260 reversed $242 $-1 #
edge $-1 $257 0 $261 3.141592653589793116 $259 $265 forward 7 unknown #
vertex $-1 $260 $266 #
straight-curve $-1 -2.260600000000000165 -6.311900000000004063 1.536699999999999511 0 -25.18805268051823631 -3.274446848467370774 I I #
ellipse-curve $-1 -2.260600000000000165 -8.851900000000000546 0 0 1 0 0 0 1.206500000000000128 1 I I #
point $-1 -2.260600000000000165 -8.851900000000000546 -1.206500000000000128 #
ellipse-curve $-1 -2.260600000000000165 -8.851900000000000546 0 0 1 0 0 0 -1.206500000000000128 1 I I #
point $-1 -2.260600000000000165 -8.851900000000000546 1.206500000000000128 #
End-of-ACIS-data 