**ABCDEFGHIJKLMNOPQRSTUVWXYZabcdefghijklmnopqrstuvwxyz**************************
**PARASOLID !"#$%&'()*+,-./:;<=>?@[\]^_`{|}~0123456789**************************
**PART1;MC=sparc;MC_MODEL=sun4c;MC_ID=chaos;OS=SunOS;OS_RELEASE=4.1.2;FRU=sdl_pa
rasolid_test_sparc;APPL=unknown;SITE=sdl-cambridge-u.k.;USER=brown;FORMAT=text;G
UISE=transmit;KEY=support3;FILE=support3.xmt_txt;DATE=14-feb-1992;
**PART2;SCH=SCH_401021_4039;USFLD_SIZE=0;
**PART3;
**END_OF_HEADER*****************************************************************
T50 : TRANSMIT FILE created by modeller version 40102115 SCH_401021_40390 12 1 1
40 2 3 0 0 0 1e3 1e-8 4 2 0 5 6 1 7 1e-8 0 0 81 2 2 140 8 1 0 0 0 0 9 10 70 3 0
 1 0 0 4 1 20 4 11 11 1 102 8 4 support313 7 2 0 1 0 12 13 0 14 15 0 14 12 99 0
 16 0 17 7 14 -16 13 90 0 18 0 19 15 51 14 123 0 12 20 0 0 +4.33 4.33 -8.96 1 0
 0 .025 0 0 -1 38 15 93 0 13 21 0 0 +1e-8 22 20 23 24 24 38 21 82 0 19 25 15 0 +
1e-8 26 20 27 28 28 51 22 68 0 29 26 20 1 +4.33 4.33 -9.46 0 0 1 .125 1 0 0 51 2
0 0 0 7 22 14 2 +4.33 4.33 -8.96 1 0 0 .025 0 0 -1 40 20 23 0 20 .00144960561889
93 .343739012368467 ??4.45366869177229 4.31180509204942 -8.97714483376035 4.4544
6939505658 4.318494797079185 -8.98219527665408 4.4549511637801 4.32650619548368
 -8.98475466279314 4.45490695894202 4.33482199210459 -8.98453056037157 4.4543716
1048974 4.34251808708185 -8.9816401824348 4.45356147489737 4.34890930779236 -8.9
7635353413834 4.45281490661584 4.35327012490173 -8.96913790386565 4.452477749165
885 4.354984014074175 -8.96089389078836 4.45269227527573 4.3539082744602 -8.9526
9285196977 4.45334950031504 4.350246006322975 -8.94533373844601 4.45418013464498
5 4.344293150791655 -8.93948888495359 4.45482334902812 4.336643157186435 -8.9358
9878711359 4.45498855047951 4.328308181738185 -8.93505731067088 4.45462235211608
5 4.32029075939867 -8.93696240796122 4.453882483448325 4.31332276117953 -8.94137
556161048 4.45306695189084 4.30810193268123 -8.9479387128505 4.452542368885025 4
.30533488641731 -8.95592174400594 4.45254825946336 4.30536417035087 -8.964251575
8842 4.453061770097945 4.308072830999855 -8.97200829961481 4.45366869177229 4.31
180509204942 -8.97714483376035 41 1 24 H4.45366869177229 4.31180509204942 -8.977
14483376035 14 29 63 0 30 16 31 7 22 -51 26 15 0 32 33 22 1 +4.33 4.33 -9.46 0 0
 1 .5 1 0 0 14 32 1 0 0 34 35 7 26 +50 33 69 0 16 36 26 0 +4.33 4.33 -8.81 0 0 1
 1 0 0 14 16 59 0 29 12 37 7 33 -51 36 47 0 38 39 33 0 +4.33 4.33 -5.09 0 0 -1 .
05 -1 0 0 14 38 42 0 40 30 41 7 36 -50 39 48 0 30 42 36 0 +4.33 4.33 -5.21 0 0 -
1 -1 0 0 14 30 38 0 38 29 43 7 39 -52 42 32 0 40 44 39 0 +4.33 4.33 -5.09 0 0 1
 .05 .713336431514775 .700821757277674 1 0 0 14 40 27 0 45 38 46 7 42 -50 44 14
 0 45 47 42 0 +4.33 4.33 -4.81 0 0 1 1 0 0 14 45 12 0 34 40 48 7 44 +50 47 8 0 3
4 0 44 0 +4.33 4.33 -9.46 0 0 -1 -1 0 0 14 34 6 0 32 45 49 7 47 +15 49 54 0 50 3
4 51 17 50 49 50 50 0 52 53 0 15 51 5 0 54 34 0 17 54 51 54 54 0 55 56 0 17 55 5
7 55 55 0 54 56 0 16 56 3 0 55 58 0 59 16 58 9 0 60 61 56 62 31 59 7 0 56 0 62 0
 +1e-8 4.33 4.33 -9.46 0 0 1 1 0 0 .5 31 62 13 0 58 59 63 0 +1e-8 4.33 4.33 -4.8
1 0 0 -1 -1 0 0 .5 31 63 19 0 61 62 64 0 +1e-8 4.33 4.33 -4.81 0 0 1 1 0 0 .335
 16 61 16 0 65 66 58 63 31 64 36 0 66 63 67 0 +1e-8 4.33 4.33 -5.09 0 0 1 1 0 0
 .05 16 66 31 0 68 69 61 64 31 67 50 0 69 64 70 0 +1e-8 4.33 4.33 -5.21 0 0 1 1
 0 0 .05 16 69 45 0 71 53 66 67 31 70 55 0 53 67 25 0 +1e-8 4.33 4.33 -9.46 0 0
 -1 -1 0 0 .125 16 53 52 0 52 72 69 70 31 25 71 0 72 70 21 0 +1e-8 4.33 4.33 -8.
81 0 0 -1 -1 0 0 .125 16 72 66 0 73 19 53 25 17 73 37 73 73 0 74 72 0 16 19 80 0
 75 13 72 21 17 75 17 75 75 0 76 19 0 15 17 100 0 75 12 77 17 76 35 76 76 0 75 1
9 0 15 35 81 0 76 32 78 15 78 10 0 60 32 57 17 60 78 60 60 0 79 58 0 15 57 4 0 5
5 32 0 17 79 80 79 79 0 60 58 0 15 80 11 0 79 45 0 15 77 101 0 81 12 0 17 81 77
 81 81 0 18 13 0 17 18 31 18 18 0 81 13 0 15 31 91 0 18 29 82 15 82 64 0 74 29 8
3 17 74 82 74 74 0 73 72 0 15 83 65 0 52 29 0 17 52 83 52 52 0 50 53 0 15 37 60
 0 73 16 0 17 71 43 71 71 0 84 69 0 15 43 39 0 71 30 0 17 84 41 84 84 0 71 69 0
 15 41 43 0 84 38 85 15 85 44 0 68 38 0 17 68 85 68 68 0 86 66 0 17 86 87 86 86
 0 68 66 0 15 87 29 0 86 40 0 17 65 46 65 65 0 88 61 0 15 46 28 0 65 40 87 17 88
 48 88 88 0 65 61 0 15 48 18 0 88 45 80 40 20 27 0 20 .001411669042370686 .33774
6570317449 ??4.82968227396083 4.31217796057308 -8.97753211084454 4.8298786502832
8 4.31898478366248 -8.98244248223877 4.82999120841366 4.32703495210057 -8.984823
54710661 4.82997069328776 4.335413488094895 -8.98440684630686 4.82982632316416 4
.34317750629671 -8.98124507773109 4.82962103177426 4.349463417192775 -8.97568997
741171 4.82944458683123 4.353560659689005 -8.96836034180037 4.82937461691853 4.3
5499983954897 -8.9600895685531 4.82944164126378 4.353623017837335 -8.95181751698
707 4.82961610443478 4.34958949181101 -8.94446771714826 4.82982185892275 4.34334
576123745 -8.93886021151967 4.82996872229693 4.33559255976982 -8.93563356252504
 4.82999223909544 4.32721417080032 -8.93515570174728 4.82988241966477 4.31915719
085797 -8.93747371557692 4.82968725039441 4.312318037629405 -8.942326624354 4.82
949188957909 4.307464422689545 -8.94917651833815 4.82938218732019 4.305151841369
955 -8.95724881612825 4.82940626792622 4.305640616674285 -8.96562320584638 4.829
55328266359 4.308869032676315 -8.97335972379824 4.82968227396083 4.3121779605730
75 -8.97753211084454 41 1 28 H4.82968227396083 4.31217796057308 -8.9775321108445
4 74 20 11 1 0 2 0 0 0 0 0 0 0 0 0 0 0 0 0 0 0 0 0 0 0 80 2 8 89 8004 90 0 0 0 0
 3 5 0 0 FFTFFFFFFFFF2 3 83 1 9 .28 84 7 10 density79 16 90 SDL/TYSA_DENSITY1 0
 
