105 93 1 0                              
body $-1 $1 $-1 $-1 #
lump $-1 $-1 $2 $0 #
shell $-1 $-1 $-1 $3 $1 #
face $-1 $4 $5 $2 $-1 $6 reversed single #
face $-1 $7 $8 $2 $-1 $9 reversed single #
loop $-1 $10 $11 $3 #
cone-surface $-1 170.472440944882 170.472440944882 -352.755905511811 1 0 0 0 0 -0.984251968503937 1 0 1 0 #
face $-1 $12 $13 $2 $-1 $14 reversed single #
loop $-1 $-1 $15 $4 #
plane-surface $-1 170.472440944882 170.472440944882 -346.850393700787 0 0 1 1 0 0 0 #
loop $-1 $-1 $16 $3 #
coedge $-1 $11 $11 $17 $18 0 $5 $-1 #
face $-1 $19 $20 $2 $-1 $21 reversed single #
loop $-1 $22 $23 $7 #
cone-surface $-1 170.472440944882 170.472440944882 -372.44094488189 0 0 1 4.92125984251969 0 0 1 0 1 0 #
coedge $-1 $15 $15 $24 $25 0 $8 $-1 #
coedge $-1 $16 $16 $23 $26 1 $10 $-1 #
coedge $-1 $17 $17 $11 $18 1 $27 $-1 #
edge $-1 $28 $28 $11 $29 0 #
face $-1 $30 $31 $2 $-1 $32 reversed single #
loop $-1 $-1 $33 $12 #
plane-surface $-1 170.472440944882 170.472440944882 -205.11811023622 0 0 -1 -1 0 0 0 #
loop $-1 $34 $24 $7 #
coedge $-1 $23 $23 $16 $26 0 $13 $-1 #
coedge $-1 $24 $24 $15 $25 1 $22 $-1 #
edge $-1 $35 $35 $15 $36 0 #
edge $-1 $37 $37 $16 $38 0 #
loop $-1 $39 $17 $40 #
vertex $-1 $18 $41 #
intcurve-curve $-1 0 { surfintcur nubs 3 open 182 
	-0.0156249999994383 1 -0.00781249999971911 1 0 2 0.00781249999999576 1 0.0156249999999915 1 
	0.0234374999999873 1 0.031249999999983 1 0.0390624999999788 1 0.0468749999999746 2 0.0507812499999645 1 
	0.0527343749999672 2 0.0546874999999699 2 0.0625000000000252 1 0.0703125000000804 1 0.0781250000001357 1 
	0.085937500000191 1 0.0937500000002463 1 0.101562500000302 2 0.105468750000327 2 0.107421875000339 2 
	0.109375000000352 1 0.117187500000399 1 0.125000000000446 1 0.132812500000493 1 0.140625000000539 1 
	0.148437500000586 1 0.156250000000633 2 0.16015625000066 2 0.162109375000665 2 0.16406250000067 1 
	0.171875000000724 1 0.179687500000777 1 0.18750000000083 1 0.195312500000884 1 0.203125000000937 1 
	0.210937500000991 2 0.212890625001004 1 0.213867187501011 2 0.214843750001018 2 0.218750000001014 2 
	0.226562500001005 1 0.234375000000995 1 0.242187500000986 1 0.250000000000977 1 0.257812500000968 1 
	0.265625000000959 2 0.26757812500095 2 0.268554687500959 2 0.269531250000968 1 0.273437500001002 2 
	0.281250000001097 1 0.289062500001192 1 0.296875000001287 1 0.304687500001382 1 0.312500000001477 1 
	0.320312500001572 2 0.321289062501613 2 0.322265625001654 2 0.324218750001741 1 0.32812500000191 2 
	0.335937500002249 1 0.343750000002587 1 0.351562500002926 1 0.359375000003265 1 0.367187500003603 1 
	0.375000000003942 2 0.375976562503984 2 0.376953125004027 1 0.378906250004078 1 0.38281250000418 2 
	0.390625000004385 1 0.398437500004591 1 0.406250000004796 1 0.414062500005001 1 0.421875000005206 2 
	0.425781250005308 1 0.427734375005359 1 0.428710937505382 2 0.429687500005405 2 0.437500000005547 1 
	0.445312500005689 1 0.453125000005831 1 0.460937500005973 1 0.468750000006115 1 0.476562500006257 2 
	0.480468750006323 1 0.482421875006361 2 0.483398437506367 2 0.484375000006373 1 0.492187500006225 1 
	0.500000000006077 1 0.507812500005929 1 0.515625000005781 1 0.523437500005633 1 0.531250000005485 2 
	0.535156250005395 1 0.536132812505371 2 0.537109375005348 1 0.539062500005304 1 0.546875000005189 1 
	0.554687500005075 1 0.56250000000496 1 0.570312500004846 1 0.578125000004731 1 0.585937500004616 2 
	0.589843750004547 2 0.590820312504538 2 0.591796875004529 1 0.593750000004503 1 0.601562500004425 1 
	0.609375000004347 1 0.617187500004269 1 0.625000000004191 1 0.632812500004113 1 0.640625000004035 2 
	0.642578125004027 1 0.643554687504034 2 0.64453125000404 1 0.648437500004061 2 0.656250000004098 1 
	0.664062500004135 1 0.671875000004172 1 0.679687500004209 1 0.687500000004246 1 0.695312500004283 2 
	0.697265625004277 2 0.69824218750426 2 0.699218750004243 1 0.703125000004158 2 0.710937500004019 1 
	0.71875000000388 1 0.726562500003741 1 0.734375000003602 1 0.742187500003463 1 0.750000000003324 2 
	0.750976562503329 2 0.751953125003334 2 0.753906250003344 1 0.757812500003375 2 0.765625000003401 1 
	0.773437500003427 1 0.781250000003452 1 0.789062500003478 1 0.796875000003504 1 0.80468750000353 2 
	0.805664062503508 2 0.806640625003487 1 0.808593750003475 1 0.812500000003449 2 0.82031250000343 1 
	0.828125000003411 1 0.835937500003393 1 0.843750000003374 1 0.851562500003355 2 0.855468750003345 1 
	0.857421875003341 1 0.858398437503339 2 0.859375000003338 2 0.867187500003313 1 0.875000000003289 1 
	0.882812500003265 1 0.890625000003241 1 0.898437500003216 1 0.906250000003192 2 0.910156250003165 1 
	0.912109375003135 2 0.91308593750312 2 0.914062500003105 1 0.921875000002826 1 0.929687500002547 1 
	0.937500000002268 1 0.945312500001989 1 0.95312500000171 1 0.960937500001431 2 0.964843750001277 1 
	0.965820312501236 2 0.966796875001196 2 0.968750000001123 1 0.976562500000843 1 0.984375000000562 1 
	0.992187500000281 1 1 2 
	190.144564876085 169.759387564605 -353.434559318037 
	190.145377955477 169.782184134062 -353.457732874447 
	190.146188232389 169.805458280017 -353.480244519949 
	190.147386652594 169.841772039203 -353.512068447648 
	190.148559739657 169.87946908367 -353.541975859751 
	190.14969929938 169.918540378457 -353.569979608347 
	190.150797180585 169.958986771303 -353.596078844269 
	190.151495845782 169.986874928748 -353.612198948372 
	190.152005282096 170.008142780126 -353.623802031399 
	190.152256358835 170.018864680279 -353.629481767152 
	190.152501572367 170.029719918011 -353.634976903036 
	190.152663699799 170.036986554669 -353.63859905577 
	190.152744129918 170.040636689377 -353.640390391907 
	190.153141750851 170.058913820116 -353.649220095583 
	190.153750366315 170.088388413066 -353.662567313395 
	190.154575657078 170.133279927673 -353.680294530419 
	190.155308549993 170.178842382284 -353.695757726843 
	190.155944352494 170.22507201168 -353.708969854364 
	190.156478387356 170.271969829956 -353.71992770552 
	190.156763420549 170.303684382809 -353.725717114663 
	190.156949369097 170.327641518072 -353.729481605237 
	190.1570067139 170.335655780004 -353.730640129069 
	190.157085619775 170.347720463782 -353.732231888375 
	190.157110737132 170.351749350651 -353.732738147102 
	190.15715857265 170.359821204749 -353.733701631879 
	190.157271917346 170.379994478709 -353.735982745867 
	190.157419850869 170.416249529149 -353.738948585549 
	190.157498340608 170.464470677039 -353.740517792493 
	190.157458947365 170.512574338865 -353.739730529704 
	190.15730252834 170.560561089138 -353.736598306562 
	190.157029936876 170.608430667211 -353.731115840246 
	190.15677133408 170.640264866885 -353.725879175423 
	190.156548772959 170.664110448906 -353.721348518197 
	190.156469817819 170.672053962511 -353.719737723484 
	190.156344261012 170.68396162768 -353.717168964847 
	190.156301199938 170.687931378597 -353.716286839201 
	190.156212951788 170.695846960345 -353.71447641335 
	190.155986897856 170.715587800661 -353.709832448266 
	190.155531860834 170.750691281484 -353.700419526105 
	190.154828699441 170.796595562808 -353.685662449474 
	190.154035185396 170.841609617086 -353.668723462749 
	190.153157334197 170.885737108754 -353.649611289622 
	190.152201155919 170.928975354065 -353.628319065475 
	190.151515537467 170.957201930364 -353.612655743266 
	190.151073269857 170.974653060902 -353.602399054427 
	190.150939558141 170.979874105185 -353.599286992462 
	190.150804336518 170.985073587068 -353.596122050951 
	190.150713857409 170.988535102185 -353.594000303154 
	190.150668441295 170.990263868402 -353.592933279802 
	190.150440666639 170.998890959976 -353.587571521226 
	190.150256599279 171.005725018349 -353.58320567257 
	190.149699420708 171.026026707556 -353.569881449338 
	190.148943250419 171.052561252451 -353.551511634068 
	190.147778032796 171.090788073509 -353.522175857814 
	190.146590479905 171.127456047495 -353.491076983147 
	190.145389127064 171.162570015222 -353.458220172294 
	190.144182519469 171.196123664781 -353.423597967182 
	190.143380383896 171.217440751341 -353.39932600073 
	190.142881608422 171.230428980015 -353.383776911725 
	190.142781981565 171.233009867648 -353.380648126443 
	190.142632769125 171.236855914032 -353.375926328615 
	190.142583055851 171.238134068161 -353.374347186304 
	190.142483776537 171.240680247208 -353.371181415897 
	190.142236044382 171.247017862383 -353.363251420414 
	190.141990707418 171.253216782517 -353.355243837194 
	190.141406982269 171.267830845155 -353.33587830571 
	190.140642242327 171.286614339228 -353.309664898078 
	190.139543385732 171.312718465083 -353.269185878339 
	190.138500191443 171.336770496311 -353.227558404421 
	190.137520004046 171.358774608814 -353.184784633835 
	190.136610186377 171.378720288859 -353.140858512195 
	190.136055537388 171.390628062858 -353.110796541898 
	190.135759583829 171.396927610986 -353.093663495573 
	190.135726922886 171.397622021408 -353.091756721907 
	190.135662051678 171.398999730056 -353.087936952042 
	190.135629833058 171.399683205285 -353.086023454331 
	190.135533919265 171.401715674108 -353.080277099521 
	190.135345229851 171.405705185342 -353.06877123856 
	190.135166028392 171.409469822465 -353.057226167461 
	190.134820468545 171.416702440067 -353.034084296013 
	190.134393972242 171.425555228649 -353.003090589348 
	190.13385998489 171.436499050729 -352.956192763436 
	190.133434701555 171.445126846394 -352.908891011012 
	190.133121044752 171.451441243893 -352.861185764689 
	190.132921947466 171.455428267107 -352.8130745677 
	190.132867574433 171.456513993829 -352.780726182809 
	190.132859602442 171.4566732403 -352.762451464823 
	190.132859030705 171.456684660736 -352.760419299168 
	190.132858517697 171.45669490811 -352.75635533816 
	190.132858693641 171.456691393315 -352.750262547719 
	190.132865701902 171.456551399068 -352.736068026128 
	190.13288294951 171.456206817649 -352.723938765146 
	190.132932248705 171.455221249247 -352.699729697642 
	190.133037456504 171.453117122558 -352.667582756376 
	190.133310825188 171.447625559379 -352.619751986339 
	190.133696931751 171.439816040438 -352.57230793633 
	190.134192973971 171.42968929753 -352.52525046184 
	190.134595080336 171.421382715656 -352.49413827892 
	190.134922721706 171.414561191935 -352.47090281822 
	190.135093057537 171.411002464483 -352.459309768437 
	190.135303023768 171.406589104516 -352.445828161384 
	190.135395400644 171.404641300429 -352.440059730553 
	190.135457514689 171.403330201311 -352.436216205318 
	190.135488846715 171.402668152996 -352.43429486816 
	190.135772971844 171.396658020781 -352.417026650432 
	190.136307538306 171.385258263896 -352.386720726054 
	190.13719009675 171.366058516077 -352.342416284409 
	190.138145928004 171.344787418401 -352.299250326416 
	190.139167723092 171.321458435236 -352.257215289416 
	190.14024821084 171.296070227965 -352.216311735439 
	190.141002785092 171.277761158183 -352.189802822852 
	190.14157969346 171.263502584306 -352.17021048805 
	190.14187089138 171.256241542765 -352.160486691912 
	190.142165847196 171.248780802717 -352.150872578318 
	190.142313921108 171.245016945807 -352.14608391307 
	190.142363395764 171.243756302178 -352.144490201034 
	190.142462438464 171.241226380595 -352.141312136897 
	190.142908531869 171.229803380208 -352.127053567809 
	190.14375749779 171.207577393976 -352.10084381443 
	190.144963009365 171.174602599236 -352.065620184418 
	190.146166783731 171.140050978485 -352.032152222609 
	190.147360246311 171.103931054582 -352.000430124521 
	190.148534851941 171.06624008433 -351.970456631049 
	190.149299606319 171.040056013056 -351.951650287013 
	190.149864102685 171.020015169854 -351.937993686287 
	190.150097419313 171.011580864372 -351.932396846174 
	190.150328079738 171.0030404583 -351.92691804731 
	190.150420125413 170.999615779597 -351.924736002274 
	190.150557915417 170.994464119197 -351.921475989016 
	190.151057857156 170.975493661688 -351.909716813775 
	190.151846314454 170.944012629124 -351.891526752317 
	190.152828025814 170.901120205339 -351.869475312732 
	190.153733978803 170.857320698339 -351.849600023324 
	190.154558063471 170.812618120878 -351.83189096389 
	190.155294178868 170.767010018148 -351.816353755311 
	190.155722166597 170.735994933366 -351.807457745638 
	190.156018046258 170.712501009934 -351.801343525455 
	190.156112487171 170.704630915419 -351.799398460757 
	190.156225137719 170.694744255108 -351.797084725771 
	190.156247405432 170.692763775767 -351.796627702748 
	190.156291352592 170.688801877345 -351.795726355781 
	190.156356388217 170.682857937646 -351.794393439117 
	190.156585104825 170.661051513048 -351.789715628093 
	190.156906078276 170.62530336442 -351.783196451876 
	190.157219346216 170.577503200741 -351.77688247158 
	190.15741692898 170.529568541944 -351.772920916738 
	190.15749784809 170.48149988257 -351.771303068399 
	190.157461123208 170.4332967595 -351.772036998195 
	190.157357548055 170.401070744274 -351.774110890128 
	190.157267884712 170.380900657993 -351.775911268803 
	190.157239116002 170.374847468789 -351.776489220119 
	190.157207536615 170.368791016107 -351.777124252079 
	190.15718585841 170.364752653537 -351.777560330372 
	190.157130078417 170.354651461345 -351.778682766388 
	190.157066787555 170.344594469821 -351.77995840894 
	190.15690077273 170.320541537035 -351.783310718213 
	190.156641778384 170.288694441725 -351.788555461073 
	190.156145096885 170.24158263613 -351.798707444435 
	190.155544850657 170.195123022024 -351.811121416169 
	190.154845613313 170.14931367558 -351.825790906096 
	190.154051962342 170.104157325872 -351.842725616825 
	190.153463009978 170.074493407824 -351.855543040825 
	190.153077202268 170.056093669206 -351.864040435813 
	190.152999155227 170.052420736285 -351.865764254991 
	190.152880775417 170.046921921262 -351.86838671097 
	190.152841084103 170.045090147381 -351.869267277498 
	190.152761365096 170.04143456247 -351.871038538198 
	190.152561196373 170.032314064629 -351.875492676647 
	190.152356742924 170.023285579878 -351.880076315857 
	190.15185836361 170.00179193076 -351.891322963651 
	190.151173354129 169.973599409376 -351.906973943757 
	190.150092688933 169.932684777044 -351.932384851107 
	190.148967058566 169.893131715596 -351.959712797599 
	190.147804574393 169.854937497247 -351.988954265212 
	190.146613371597 169.818109148081 -352.020119482904 
	190.145805594929 169.794478844135 -352.042195010672 
	190.145348975924 169.781451291167 -352.054985151971 
	190.145298209367 169.780007461195 -352.056411457955 
	190.145196619672 169.777127175317 -352.059274459845 
	190.145145781896 169.775690309033 -352.060711572984 
	190.144993388609 169.771396327573 -352.065032964535 
	190.14468893905 169.762870748709 -352.073719960588 
	190.144385703949 169.754531169249 -352.082538784484 
	190.143781386334 169.738097407558 -352.100350374265 
	190.142981375057 169.716839801521 -352.12456278191 
	190.141806931454 169.686885612759 -352.162251231996 
	190.140666240525 169.658848039934 -352.201298697231 
	190.139567423095 169.632725317475 -352.241704158196 
	190.138518639211 169.608529451775 -352.283476354963 
	190.137858336919 169.593700907715 -352.312248174038 
	190.137499456603 169.585733824491 -352.328697665029 
	190.137459743739 169.584853536504 -352.330529613637 
	190.137380773227 169.583105623144 -352.334196195138 
	190.137262972612 169.580502130834 -352.339701341212 
	190.136992724021 169.574555568532 -352.352583487242 
	190.136769115583 169.569677089327 -352.363688053801 
	190.136332909074 169.560208654459 -352.385979993826 
	190.135780664212 169.548353102406 -352.415923293461 
	190.135045073902 169.532843865441 -352.461490993668 
	190.134406863811 169.519592563964 -352.507706878865 
	190.133870609754 169.508599291081 -352.55457103791 
	190.133584145973 169.502786675404 -352.586249151959 
	190.133397109922 169.49900410997 -352.610173386821 
	190.133310545257 169.497257118551 -352.622176935845 
	190.133221983544 169.495474027617 -352.63625431746 
	190.133186720697 169.494764825975 -352.64230326852 
	190.133163813578 169.494304280071 -352.646339421646 
	190.133152657609 169.494080071716 -352.648359866997 
	190.133055096686 169.492119967544 -352.666536581156 
	190.132921742045 169.489449518675 -352.698803104337 
	190.132840918989 169.487835635252 -352.747062948349 
	190.132878280329 169.488581349818 -352.795184733444 
	190.133032816303 169.491671847863 -352.843169327181 
	190.133303519654 169.497109147969 -352.891016614641 
	190.133560755788 169.502311153126 -352.92282253509 
	190.133782210846 169.506813230709 -352.94664184062 
	190.133900070259 169.509214483287 -352.958542705576 
	190.134028577615 169.511843434448 -352.970430250177 
	190.134094601718 169.513196093991 -352.976371788761 
	190.13411691065 169.513653463891 -352.97835242527 
	190.134162057167 169.514579723574 -352.982307684339 
	190.134367649224 169.518800854969 -353.000084202762 
	190.134797004751 169.527670615579 -353.033287180683 
	190.135499669649 169.542397979038 -353.079239856448 
	190.136292599604 169.559302991574 -353.124282093245 
	190.137169637845 169.578373932479 -353.168418899071 
	190.138124647214 169.599614631223 -353.211648792527 
	190.138809174397 169.615234602244 -353.239858766834 
	190.139338934156 169.62750589186 -353.26078379024 
	190.13956307611 169.63273488215 -353.269454098545 
	190.139791268164 169.638110414779 -353.278063178393 
	190.139882864686 169.64027239025 -353.28150189585 
	190.139928828056 169.641359384169 -353.283218987809 
	190.140067034445 169.644634338249 -353.28835706792 
	190.140530080006 169.655649900364 -353.305405377926 
	190.141383736959 169.676365221982 -353.335388027695 
	190.142556291842 169.705860133488 -353.373877266408 
	190.143754589244 169.737224943941 -353.41088273155 
	190.144564876085 169.759387564605 -353.434559318037 
	190.145377955477 169.782184134062 -353.457732874447 
	0.0378328384675876 
	cone 170.472440944882 170.472440944882 -352.755905511811 1 0 0 0 0 -0.984251968503937 1 0 1 0 
	cone 170.472440944882 170.472440944882 -372.44094488189 0 0 1 19.6850393700787 0 0 1 0 1 0 
	nullbs 
	nullbs 
	} #
face $-1 $42 $43 $2 $-1 $44 reversed single #
loop $-1 $45 $46 $19 #
cone-surface $-1 170.472440944882 170.472440944882 -200.393700787402 0 0 -1 -1.96850393700787 0 0 1 0 1 0 #
coedge $-1 $33 $33 $46 $47 0 $20 $-1 #
loop $-1 $-1 $48 $7 #
vertex $-1 $25 $49 #
ellipse-curve $-1 170.472440944882 170.472440944882 -346.850393700787 0 0 -1 -4.92125984251969 0 0 1 #
vertex $-1 $26 $50 #
intcurve-curve $-1 0 { surfintcur nubs 3 open 173 
	-0.00390624999982259 2 0 2 0.00781250000000103 1 0.0156250000000021 1 0.0234375000000031 1 
	0.0312500000000041 1 0.0390625000000052 1 0.0468750000000062 2 0.0507812500000151 1 0.0527343750000196 2 
	0.0546875000000241 2 0.0625000000000246 1 0.0703125000000251 1 0.0781250000000256 1 0.0859375000000261 1 
	0.0937500000000266 1 0.101562500000027 2 0.105468750000038 1 0.10742187500005 2 0.109375000000062 2 
	0.117187500000125 1 0.125000000000188 1 0.132812500000251 1 0.140625000000314 1 0.148437500000377 1 
	0.15625000000044 2 0.160156250000471 2 0.161132812500469 2 0.162109375000468 1 0.164062500000464 1 
	0.171875000000504 1 0.179687500000545 1 0.187500000000586 1 0.195312500000626 1 0.203125000000667 1 
	0.210937500000707 2 0.212890625000729 2 0.21386718750073 2 0.214843750000732 1 0.218750000000735 2 
	0.226562500000756 1 0.234375000000778 1 0.2421875000008 1 0.250000000000821 1 0.257812500000843 1 
	0.265625000000864 2 0.266601562500856 2 0.267578125000847 1 0.269531250000864 1 0.273437500000897 2 
	0.281250000000975 1 0.289062500001052 1 0.29687500000113 1 0.304687500001207 1 0.312500000001285 1 
	0.320312500001362 2 0.324218750001417 2 0.328125000001471 2 0.335937500001543 1 0.343750000001616 1 
	0.351562500001688 1 0.35937500000176 1 0.367187500001833 2 0.371093750001852 1 0.373046875001862 1 
	0.374023437501867 2 0.375000000001872 2 0.382812500002146 1 0.39062500000242 1 0.398437500002693 1 
	0.406250000002967 1 0.414062500003241 1 0.421875000003515 2 0.425781250003667 1 0.426757812503703 2 
	0.427734375003739 2 0.42968750000378 1 0.437500000004009 1 0.445312500004238 1 0.453125000004467 1 
	0.460937500004696 1 0.468750000004925 1 0.476562500005154 2 0.478515625005219 2 0.480468750005283 2 
	0.484375000005405 2 0.492187500005658 1 0.500000000005911 1 0.507812500006165 1 0.515625000006418 1 
	0.523437500006671 1 0.531250000006925 2 0.532226562506938 2 0.533203125006951 2 0.535156250006961 1 
	0.53906250000695 2 0.546875000006912 1 0.554687500006873 1 0.562500000006835 1 0.570312500006796 1 
	0.578125000006757 1 0.585937500006719 2 0.586914062506722 2 0.587890625006725 2 0.589843750006723 1 
	0.59375000000672 2 0.601562500006737 1 0.609375000006755 1 0.617187500006773 1 0.625000000006791 1 
	0.632812500006809 2 0.640625000006827 2 0.648437500006845 1 0.656250000006863 1 0.664062500006881 1 
	0.671875000006899 1 0.679687500006916 1 0.687500000006934 2 0.691406250006949 2 0.693359375006958 2 
	0.695312500006967 1 0.703125000006986 1 0.710937500007005 1 0.718750000007024 1 0.726562500007043 1 
	0.734375000007062 1 0.742187500007081 2 0.746093750007089 2 0.750000000007098 2 0.757812500007138 1 
	0.765625000007178 1 0.773437500007218 1 0.781250000007259 1 0.789062500007299 1 0.796875000007339 2 
	0.798828125007325 2 0.800781250007311 2 0.804687500007293 2 0.812500000007228 1 0.820312500007163 1 
	0.828125000007098 1 0.835937500007034 1 0.843750000006969 1 0.851562500006904 2 0.853515625006864 2 
	0.854492187506828 2 0.855468750006792 1 0.859375000006588 2 0.867187500006182 1 0.875000000005775 1 
	0.882812500005369 1 0.890625000004962 1 0.898437500004556 1 0.906250000004149 2 0.90722656250411 2 
	0.908203125004071 1 0.910156250003988 1 0.914062500003824 2 0.921875000003461 1 0.929687500003097 1 
	0.937500000002734 1 0.945312500002371 1 0.953125000002008 2 0.957031250001842 1 0.958984375001779 2 
	0.959960937501747 2 0.960937500001715 1 0.968750000001375 1 0.976562500001035 1 0.984375000000695 1 
	0.992187500000355 2 0.996093750000177 2 1 2 
	175.340469145594 169.750546596312 -353.424999079627 
	175.34292294176 169.767224765969 -353.442698741574 
	175.346188902826 169.78995203779 -353.465650543109 
	175.351036058265 169.825483721943 -353.498178035049 
	175.355798038126 169.862439253234 -353.528833034378 
	175.36044209642 169.900812426267 -353.557628952216 
	175.364935699331 169.940607453025 -353.584565367414 
	175.367809306203 169.968095171918 -353.60127379028 
	175.369910361142 169.989076529631 -353.613329468459 
	175.370947347838 169.999658644548 -353.619238340133 
	175.371962419981 170.010379533977 -353.624966868515 
	175.372634083485 170.017557842546 -353.628745561517 
	175.372967569396 170.021164531638 -353.63061574548 
	175.374617600036 170.039228459785 -353.639841134338 
	175.377151832661 170.068383553385 -353.653830332821 
	175.380615250664 170.112861456198 -353.672544918618 
	175.383720738209 170.158077091492 -353.689017627334 
	175.386448505852 170.204028247506 -353.703259107321 
	175.388778711342 170.250717911257 -353.715263743635 
	175.390053706101 170.282342192874 -353.721760916107 
	175.390900335941 170.306250548322 -353.726059239114 
	175.391296244085 170.318252284326 -353.728064692488 
	175.391650039545 170.330326215757 -353.729852086636 
	175.39187643097 170.33839165745 -353.730994900219 
	175.39198468385 170.342425152947 -353.731540873854 
	175.392500954769 170.362585459845 -353.734142785165 
	175.393167684369 170.394819137165 -353.737490714952 
	175.393692181445 170.443102501957 -353.740114634978 
	175.393743205054 170.491319507114 -353.740369533742 
	175.393322714508 170.539470474486 -353.73826696766 
	175.392432529047 170.587555268092 -353.733801531972 
	175.391527078556 170.619567281033 -353.729234250888 
	175.390731396374 170.643559325781 -353.725202267775 
	175.390446736421 170.651553845194 -353.723757136582 
	175.390066661524 170.661543419914 -353.721822864777 
	175.389989416366 170.663541586635 -353.721429526279 
	175.389832721858 170.66753204258 -353.720631141921 
	175.389594304866 170.673510764655 -353.719415653511 
	175.3886832427 170.695356400339 -353.714762409505 
	175.386994222873 170.730690347349 -353.706083823461 
	175.384343063068 170.776938076328 -353.692285229747 
	175.381315720616 170.822332866054 -353.67628522402 
	175.377934754284 170.866879806647 -353.658093181267 
	175.374222613044 170.910577944538 -353.637702404518 
	175.371542155494 170.939139471316 -353.622627430723 
	175.369807414168 170.956809309257 -353.612734333081 
	175.369457493694 170.960334215571 -353.610732136959 
	175.368928247007 170.965607913622 -353.607693275713 
	175.368751128243 170.967363284612 -353.606674532838 
	175.368395941566 170.970864664719 -353.604627990014 
	175.367505307387 170.979597647914 -353.599487298343 
	175.366601627648 170.988228665624 -353.594225336025 
	175.364409941145 171.008749692919 -353.581366302171 
	175.361426768594 171.035595547486 -353.563607034825 
	175.35680346172 171.074346035877 -353.535155377595 
	175.352065155576 171.111594780776 -353.504905830933 
	175.347245163499 171.147347169119 -353.472859802303 
	175.342376995429 171.18159755524 -353.439005331333 
	175.339122189646 171.203418517609 -353.41521291528 
	175.337295340013 171.215402563019 -353.401478182746 
	175.33709234327 171.216730539298 -353.399946692709 
	175.336686866607 171.219375909372 -353.396876807479 
	175.336079485033 171.223327720113 -353.392262076005 
	175.334668319794 171.232435256308 -353.381425235177 
	175.333469901719 171.240048561788 -353.372018626553 
	175.331089951799 171.255020273618 -353.353049612075 
	175.32796173047 171.274303160304 -353.327342334525 
	175.323436233508 171.301219205664 -353.287550435521 
	175.319108901819 171.326141537995 -353.246533118714 
	175.315011067237 171.349069923244 -353.204287000891 
	175.311174434234 171.369989307875 -353.160799704024 
	175.308812448048 171.382575956698 -353.130966228988 
	175.307122783219 171.391494324367 -353.108267412576 
	175.306575560653 171.394367695691 -353.100678775962 
	175.305513994151 171.399916722291 -353.085460089764 
	175.304999614599 171.402592564547 -353.077829562581 
	175.303506670052 171.410326851377 -353.054874965112 
	175.301649937085 171.419857635623 -353.024100870294 
	175.299281822182 171.43183968199 -352.977441578468 
	175.297345827772 171.441521048054 -352.930286314151 
	175.295856976665 171.448898487338 -352.882633788025 
	175.295172547829 171.45226749023 -352.850530745604 
	175.29477859826 171.454203863446 -352.826325844961 
	175.294611467556 171.455024385362 -352.814191475347 
	175.294469559411 171.455720422088 -352.799978229814 
	175.294420207757 171.455962389367 -352.793874658345 
	175.294389864986 171.456111141271 -352.789802894989 
	175.294375982641 171.456179189127 -352.787766900187 
	175.294262709975 171.456734375191 -352.769454717264 
	175.294226853711 171.456909872855 -352.737010500422 
	175.29465968118 171.454789335057 -352.688669587856 
	175.295569318315 171.450317141831 -352.640649617195 
	175.296945992491 171.443508000617 -352.592948403611 
	175.298779857746 171.43435971975 -352.545565977033 
	175.30030054988 171.426688658662 -352.514191719078 
	175.301550286833 171.420336539284 -352.490742430946 
	175.302093763242 171.417565008867 -352.480988861394 
	175.302665335971 171.414635793792 -352.471256710473 
	175.302896205714 171.413451452097 -352.467365568775 
	175.303012717676 171.412853175688 -352.465421598745 
	175.303365120112 171.411041799467 -352.45960010575 
	175.304559565774 171.404890141173 -352.440253496364 
	175.30688379445 171.392800954739 -352.405950872635 
	175.310324160712 171.374556577313 -352.361302267933 
	175.314076504931 171.354212370024 -352.317726507087 
	175.318111924341 171.331778177495 -352.275216109674 
	175.322401696052 171.307248413044 -352.233771290738 
	175.325411866792 171.289484049291 -352.206857114884 
	175.327334078136 171.277932464166 -352.190262778002 
	175.327720562566 171.275599690274 -352.186955268682 
	175.32849746013 171.270888975075 -352.180363078503 
	175.328888094538 171.268509669259 -352.17707657691 
	175.330062672881 171.261321899296 -352.167276234174 
	175.330850006977 171.256459298549 -352.160815342372 
	175.333222566728 171.241661515372 -352.141648028321 
	175.336414104539 171.221371471036 -352.116665614879 
	175.341250218477 171.189283575949 -352.080882300682 
	175.346100494992 171.15555622215 -352.046770752047 
	175.350930772093 171.120190540911 -352.014324961909 
	175.355706914956 171.083175512391 -351.983551302703 
	175.358831907975 171.057383597353 -351.964162967384 
	175.360566460196 171.042555087751 -351.953580204418 
	175.360758864926 171.040903020293 -351.952408833526 
	175.361143004284 171.037589945589 -351.950075101491 
	175.361334791693 171.03592847853 -351.948912421209 
	175.361908737956 171.030933891623 -351.945440206351 
	175.363050062509 171.020911897192 -351.938564536015 
	175.364171031716 171.010791982591 -351.931893872858 
	175.36638412227 170.990422790745 -351.918823031659 
	175.369257968977 170.962919062507 -351.902116191052 
	175.373311212007 170.920642148222 -351.879186084097 
	175.377080728239 170.877349396659 -351.858369750045 
	175.380540447544 170.833038985996 -351.839666400125 
	175.383664092729 170.787701772312 -351.823090810832 
	175.385504582687 170.756781264057 -351.813479508142 
	175.386466606493 170.739188142172 -351.808486914158 
	175.386572480355 170.737230566493 -351.807937932239 
	175.386782174183 170.733309826941 -351.806851508076 
	175.386885962781 170.731347233135 -351.806314228662 
	175.387193795126 170.725459340282 -351.804721952453 
	175.387795729453 170.713675593392 -351.801613561393 
	175.38835630965 170.701868096756 -351.798732297064 
	175.389421900664 170.678221736041 -351.79326955899 
	175.390694502769 170.646609646411 -351.786784974853 
	175.392152028808 170.598944045045 -351.779420687132 
	175.393151369473 170.55103255061 -351.774402061998 
	175.393685629148 170.502875024001 -351.771729123533 
	175.393727033567 170.470604748281 -351.771522278121 
	175.39360860722 170.438250632501 -351.772114505078 
	175.393469474276 170.422031285305 -351.772810166791 
	175.393028827601 170.389508385995 -351.77501826964 
	175.39242962708 170.35718226888 -351.778024034535 
	175.391071915348 170.309270131395 -351.78487288069 
	175.389271383078 170.261926180323 -351.794027766704 
	175.387043701253 170.215145676349 -351.805471759895 
	175.384404325703 170.168927849427 -351.819204590526 
	175.382380575349 170.13849321309 -351.829896646562 
	175.380767608862 170.115810529106 -351.838500434327 
	175.380214095433 170.108273527876 -351.841465868617 
	175.379360536404 170.097004196874 -351.846061765041 
	175.379072067895 170.093252919347 -351.84761872268 
	175.378487735197 170.08576611085 -351.85078064598 
	175.377010780894 170.067118722409 -351.858792695605 
	175.374211095356 170.034175205187 -351.874172459445 
	175.370209146583 169.991547775452 -351.896681971553 
	175.36596934062 169.950198658369 -351.921169954814 
	175.361522377355 169.910118419508 -351.947626659921 
	175.356898878264 169.871306877868 -351.976056934803 
	175.353719485157 169.846284408882 -351.996339245086 
	175.351306462156 169.827841735 -352.012058052968 
	175.350497323762 169.821747832535 -352.017382570189 
	175.348871133698 169.809670867406 -352.028201254465 
	175.348057335449 169.803711933639 -352.033673788371 
	175.345616039117 169.786070853811 -352.050278913064 
	175.34236125667 169.763177694803 -352.072918896222 
	175.337514464592 169.73068768683 -352.108354683471 
	175.332736940032 169.700026842381 -352.145254133304 
	175.328062378159 169.671188315226 -352.183615986642 
	175.323524693569 169.644178786838 -352.223449772636 
	175.320613859196 169.627405433238 -352.25100065207 
	175.318837726868 169.617314715462 -352.268537638433 
	175.318484658625 169.615316216176 -352.272060930427 
	175.317783029122 169.611358740467 -352.279139513932 
	175.317434278408 169.609398709726 -352.282696800366 
	175.316397784152 169.603593413499 -352.293388818385 
	175.315719080033 169.599818845209 -352.300550784744 
	175.313721333211 169.588778915677 -352.322137565978 
	175.311159989139 169.574815380301 -352.351188834697 
	175.307648285076 169.556103055965 -352.395561429461 
	175.304489847723 169.539604688184 -352.440724630927 
	175.301707505072 169.52531753297 -352.486678988062 
	175.299324202912 169.513255018519 -352.533430663115 
	175.298016906771 169.506716483464 -352.565137962007 
	175.297292828698 169.50310958864 -352.585127401954 
	175.297152662941 169.502412209844 -352.589133914339 
	175.296949484882 169.501402375641 -352.59515670682 
	175.296882934157 169.50107178797 -352.597166606025 
	175.296752391423 169.500423654062 -352.601184906994 
	175.296432307188 169.498835309526 -352.611230542516 
	175.296143587761 169.497406390961 -352.621275595388 
	175.295510890519 169.494279782417 -352.645382615195 
	175.294827908749 169.490918045523 -352.67752235738 
	175.294285320578 169.488258196775 -352.725723253186 
	175.294224518646 169.487960598297 -352.773915503682 
	175.294645262317 169.490021842484 -352.822099121018 
	175.295547165862 169.494455518231 -352.870274057694 
	175.296468852523 169.499013648458 -352.902384822428 
	175.297077290546 169.502037581759 -352.920445446854 
	175.297146165466 169.502380071261 -352.922452754259 
	175.297286313864 169.503077375584 -352.926464454749 
	175.29750005559 169.504141428434 -352.93247545323 
	175.298023251218 169.506750484371 -352.946455404447 
	175.298513068054 169.509201926161 -352.958360365321 
	175.299546339842 169.514388558981 -352.98206765042 
	175.301067058833 169.522060372951 -353.01340379302 
	175.303753526454 169.535801641466 -353.059601210877 
	175.306822173193 169.551758114248 -353.104999774748 
	175.310249981393 169.569927719755 -353.149601731834 
	175.312759245324 169.583525661386 -353.178803017283 
	175.31471936991 169.594288685641 -353.200501657836 
	175.315718974197 169.599811408508 -353.211300373371 
	175.316746775438 169.605548030123 -353.222022528419 
	175.317265281273 169.608452198364 -353.227370779593 
	175.31743893372 169.609426509852 -353.229151895267 
	175.317787388219 169.61138504022 -353.232706081831 
	175.31936082553 169.620244242735 -353.248665993958 
	175.322422698376 169.637754391666 -353.278237958738 
	175.326935808137 169.664394692793 -353.318568951165 
	175.331605242732 169.692942287788 -353.357495612318 
	175.334799904481 169.713246590719 -353.382512400423 
	175.337218091423 169.728956027392 -353.400922717516 
	175.338027851078 169.734272746113 -353.407000749885 
	175.339653343368 169.74506779481 -353.419038680391 
	175.340469145594 169.750546596312 -353.424999079627 
	175.34292294176 169.767224765969 -353.442698741574 
	0.000102841161593662 
	cone 170.472440944882 170.472440944882 -352.755905511811 1 0 0 0 0 -0.984251968503937 1 0 1 0 
	cone 170.472440944882 170.472440944882 -372.44094488189 0 0 1 4.92125984251969 0 0 1 0 1 0 
	nullbs 
	nullbs 
	} #
loop $-1 $51 $52 $40 #
face $-1 $-1 $27 $2 $-1 $53 forward single #
point $-1 190.144971415781 169.770785849334 -353.446146096242 #
face $-1 $54 $55 $2 $-1 $56 forward single #
loop $-1 $57 $58 $30 #
cone-surface $-1 170.472440944882 170.472440944882 -200.393700787402 0 0 1 1.96850393700787 0 0 1 0.713336431514775 0.700821757277673 0 #
loop $-1 $-1 $59 $19 #
coedge $-1 $46 $46 $33 $47 1 $31 $-1 #
edge $-1 $60 $60 $33 $61 0 #
coedge $-1 $48 $48 $62 $63 0 $34 $-1 #
point $-1 165.551181102362 170.472440944882 -346.850393700787 #
point $-1 175.341287077649 169.756105986198 -353.430898966943 #
loop $-1 $-1 $64 $40 #
coedge $-1 $52 $52 $65 $66 0 $39 $-1 #
cone-surface $-1 170.472440944882 170.472440944882 -372.44094488189 0 0 1 19.6850393700787 0 0 1 0 1 0 #
face $-1 $40 $67 $2 $-1 $68 forward single #
loop $-1 $69 $70 $42 #
plane-surface $-1 170.472440944882 170.472440944882 -189.370078740157 0 0 1 1 0 0 0 #
loop $-1 $-1 $71 $30 #
coedge $-1 $58 $58 $70 $72 0 $43 $-1 #
coedge $-1 $59 $59 $71 $73 0 $45 $-1 #
vertex $-1 $47 $74 #
ellipse-curve $-1 170.472440944882 170.472440944882 -205.11811023622 0 0 1 1.96850393700787 0 0 1 #
coedge $-1 $62 $62 $48 $63 1 $67 $-1 #
edge $-1 $75 $75 $48 $76 0 #
coedge $-1 $64 $64 $77 $78 0 $51 $-1 #
coedge $-1 $65 $65 $52 $66 1 $69 $-1 #
edge $-1 $79 $79 $65 $80 0 #
loop $-1 $81 $62 $54 #
plane-surface $-1 170.472440944882 170.472440944882 -372.44094488189 0 0 -1 -1 0 0 0 #
loop $-1 $-1 $65 $42 #
coedge $-1 $70 $70 $58 $72 1 $55 $-1 #
coedge $-1 $71 $71 $59 $73 1 $57 $-1 #
edge $-1 $82 $82 $58 $83 0 #
edge $-1 $84 $84 $59 $85 0 #
point $-1 172.44094488189 170.472440944882 -205.11811023622 #
vertex $-1 $63 $86 #
ellipse-curve $-1 170.472440944882 170.472440944882 -372.44094488189 0 0 -1 -4.92125984251969 0 0 1 #
coedge $-1 $77 $77 $64 $78 1 $81 $-1 #
edge $-1 $87 $87 $77 $88 0 #
vertex $-1 $66 $89 #
ellipse-curve $-1 170.472440944882 170.472440944882 -189.370078740157 0 0 -1 -19.6850393700787 0 0 1 #
loop $-1 $-1 $77 $54 #
vertex $-1 $72 $90 #
ellipse-curve $-1 170.472440944882 170.472440944882 -189.370078740157 0 0 1 13.1889763779528 0 0 1 #
vertex $-1 $73 $91 #
ellipse-curve $-1 170.472440944882 170.472440944882 -200.393700787402 0 0 1 1.96850393700787 0 0 1 #
point $-1 165.551181102362 170.472440944882 -372.44094488189 #
vertex $-1 $78 $92 #
ellipse-curve $-1 170.472440944882 170.472440944882 -372.44094488189 0 0 1 19.6850393700787 0 0 1 #
point $-1 150.787401574803 170.472440944882 -189.370078740157 #
point $-1 183.661417322835 170.472440944882 -189.370078740157 #
point $-1 172.44094488189 170.472440944882 -200.393700787402 #
point $-1 190.157480314961 170.472440944882 -372.44094488189 #
