600 0 1 0           
110 GICL ACIS STEP Translator - Source: f:/data5/repository/Parasolid/NIST/Pete_Brown/support3/support3.step - 6 0 13 ACIS 6.0.3 NT 24 Mon Apr 08 10:52:25 2002 
1 9.9999999999999995e-007 1e-010 
body $-1 $1 $-1 $-1 #
lump $-1 $-1 $2 $0 #
shell $-1 $-1 $-1 $3 $-1 $1 #
face $-1 $4 $5 $2 $-1 $6 reversed single #
face $-1 $7 $8 $2 $-1 $9 reversed single #
loop $-1 $10 $11 $3 #
cone-surface $-1 4330.0000000000027 4330.0000000000027 -8960 1 0 0 0 0 -25 1 I I 0 1 25 forward I I I I #
face $-1 $12 $13 $2 $-1 $14 reversed single #
loop $-1 $-1 $15 $4 #
plane-surface $-1 4330.0000000000027 4330.0000000000027 -8809.9999999999891 0 0 1 25.399999999999999 0 0 forward_v I I I I #
loop $-1 $-1 $16 $3 #
coedge $-1 $11 $11 $17 $18 forward $5 $-1 #
face $-1 $19 $20 $2 $-1 $21 reversed single #
loop $-1 $22 $23 $7 #
cone-surface $-1 4330.0000000000027 4330.0000000000027 -9460.0000000000055 0 0 1 125.00000000000011 0 0 1 I I 0 1 125.00000000000011 forward I I I I #
coedge $-1 $15 $15 $24 $25 forward $8 $-1 #
coedge $-1 $16 $16 $23 $26 reversed $10 $-1 #
coedge $-1 $17 $17 $11 $18 reversed $27 $-1 #
edge $-1 $28 0 $28 1 $11 $29 forward 7 unknown #
face $-1 $30 $31 $2 $-1 $32 reversed single #
loop $-1 $-1 $33 $12 #
plane-surface $-1 4330.0000000000027 4330.0000000000027 -5209.9999999999873 0 0 -1 -25.399999999999999 0 0 forward_v I I I I #
loop $-1 $34 $24 $7 #
coedge $-1 $23 $23 $16 $26 forward $13 $-1 #
coedge $-1 $24 $24 $15 $25 reversed $22 $-1 #
edge $-1 $35 0 $35 6.2831853071795862 $15 $36 forward 7 unknown #
edge $-1 $37 0 $37 1 $16 $38 forward 7 unknown #
loop $-1 $39 $17 $40 #
vertex $-1 $18 $41 #
intcurve-curve $-1 forward { exactcur full nubs 3 periodic 180 
	0 3 0.0078124999999957603 1 0.0156249999999915 1 0.023437499999987298 1 0.031249999999983 1 
	0.039062499999978802 1 0.046874999999974597 2 0.050781249999964501 1 0.0527343749999672 2 0.054687499999969899 2 
	0.062500000000025202 1 0.070312500000080394 1 0.078125000000135697 1 0.085937500000191 1 0.093750000000246303 1 
	0.10156250000030199 2 0.105468750000327 2 0.10742187500033901 2 0.109375000000352 1 0.117187500000399 1 
	0.125000000000446 1 0.13281250000049299 1 0.14062500000053901 1 0.148437500000586 1 0.15625000000063299 2 
	0.16015625000066 2 0.162109375000665 2 0.16406250000066999 1 0.171875000000724 1 0.17968750000077699 1 
	0.18750000000083 1 0.19531250000088399 1 0.203125000000937 1 0.21093750000099101 2 0.212890625001004 1 
	0.213867187501011 2 0.21484375000101799 2 0.21875000000101399 2 0.226562500001005 1 0.23437500000099501 1 
	0.24218750000098599 1 0.250000000000977 1 0.257812500000968 1 0.26562500000095901 2 0.26757812500095002 2 
	0.26855468750095901 2 0.269531250000968 1 0.27343750000100198 2 0.28125000000109701 1 0.28906250000119199 1 
	0.29687500000128703 1 0.30468750000138201 1 0.31250000000147699 1 0.32031250000157202 2 0.32128906250161299 2 
	0.32226562500165401 2 0.324218750001741 1 0.32812500000191003 2 0.33593750000224898 1 0.34375000000258699 1 
	0.35156250000292599 1 0.359375000003265 1 0.36718750000360301 1 0.37500000000394201 2 0.37597656250398398 2 
	0.376953125004027 1 0.37890625000407802 1 0.38281250000417999 2 0.39062500000438499 1 0.39843750000459099 1 
	0.406250000004796 1 0.414062500005001 1 0.421875000005206 2 0.42578125000530798 1 0.42773437500535899 1 
	0.42871093750538197 2 0.42968750000540501 2 0.43750000000554701 1 0.445312500005689 1 0.453125000005831 1 
	0.460937500005973 1 0.468750000006115 1 0.47656250000625699 2 0.480468750006323 1 0.48242187500636102 2 
	0.48339843750636702 2 0.48437500000637301 1 0.49218750000622502 1 0.50000000000607703 1 0.50781250000592904 1 
	0.51562500000578104 1 0.52343750000563305 1 0.53125000000548495 2 0.53515625000539502 1 0.53613281250537104 2 
	0.53710937500534806 1 0.53906250000530398 1 0.54687500000518896 1 0.55468750000507505 1 0.56250000000496003 1 
	0.57031250000484601 1 0.57812500000473099 1 0.58593750000461597 2 0.58984375000454703 2 0.59082031250453804 2 
	0.59179687500452904 1 0.59375000000450295 1 0.60156250000442502 1 0.60937500000434697 1 0.61718750000426903 1 
	0.62500000000419098 1 0.63281250000411304 1 0.64062500000403499 2 0.642578125004027 1 0.643554687504034 2 
	0.64453125000403999 1 0.64843750000406097 2 0.65625000000409806 1 0.66406250000413503 1 0.671875000004172 1 
	0.67968750000420897 1 0.68750000000424605 1 0.69531250000428302 2 0.69726562500427702 2 0.69824218750426004 2 
	0.69921875000424305 1 0.70312500000415801 2 0.71093750000401901 1 0.71875000000388001 1 0.72656250000374101 1 
	0.73437500000360201 1 0.74218750000346301 1 0.75000000000332401 2 0.750976562503329 2 0.751953125003334 2 
	0.75390625000334399 1 0.75781250000337497 2 0.76562500000340095 1 0.77343750000342704 1 0.78125000000345202 1 
	0.789062500003478 1 0.79687500000350397 1 0.80468750000352995 2 0.80566406250350797 2 0.80664062500348699 1 
	0.808593750003475 1 0.81250000000344902 2 0.82031250000343003 1 0.82812500000341105 1 0.83593750000339295 1 
	0.84375000000337397 1 0.85156250000335498 2 0.85546875000334499 1 0.85742187500334099 1 0.858398437503339 2 
	0.859375000003338 2 0.86718750000331302 1 0.87500000000328904 1 0.88281250000326505 1 0.89062500000324096 1 
	0.89843750000321598 1 0.906250000003192 2 0.91015625000316502 1 0.91210937500313505 2 0.91308593750311995 2 
	0.91406250000310496 1 0.92187500000282596 1 0.92968750000254696 1 0.93750000000226796 1 0.94531250000198896 1 
	0.95312500000170997 1 0.96093750000143097 2 0.96484375000127698 1 0.96582031250123601 2 0.96679687500119604 2 
	0.96875000000112299 1 0.97656250000084299 1 0.98437500000056199 1 0.992187500000281 1 1 3 
	4829.6822739608378 4312.1779605730644 -8977.5321108445423 
	4829.6926000691155 4312.4674770051743 -8977.8264150109535 
	4829.7131811026802 4313.0586403124316 -8978.3982108067048 
	4829.7436209758871 4313.9810097957561 -8979.206538570259 
	4829.7734173872877 4314.9385147252178 -8979.9661868376752 
	4829.802362204251 4315.9309256128081 -8980.6774820520131 
	4829.8302483868583 4316.9582639910959 -8981.3404026444332 
	4829.8479944828623 4317.6666231901991 -8981.7498532886475 
	4829.8609341652382 4318.2068266152 -8982.0445715975347 
	4829.8673115144084 4318.4791628790863 -8982.1888368856598 
	4829.8735399381212 4318.7548859174794 -8982.3284133371126 
	4829.8776579748946 4318.9394584885922 -8982.4204160165573 
	4829.8797008999172 4319.0321719101757 -8982.4659159544372 
	4829.8898004716157 4319.4964110309465 -8982.6901904278075 
	4829.9052593044007 4320.2450656918763 -8983.0292097602323 
	4829.9262216897805 4321.3853101628938 -8983.4794810726435 
	4829.9448371698218 4322.542596510013 -8983.8722462618116 
	4829.9609865533475 4323.716829096672 -8984.2078343008452 
	4829.974551038842 4324.908033680882 -8984.4861637202066 
	4829.9817908819441 4325.7135833233478 -8984.6332147124394 
	4829.9865139750636 4326.3220945590283 -8984.7288327730203 
	4829.9879705330595 4326.5256568121013 -8984.7582592783529 
	4829.9899747422842 4326.8320997800629 -8984.798689964724 
	4829.9906127231525 4326.9344335065352 -8984.81154893639 
	4829.9918277453098 4327.1394586006245 -8984.8360214497261 
	4829.9947067005887 4327.6518597592085 -8984.8939617450214 
	4829.9984642120717 4328.572738040385 -8984.9692940729437 
	4830.0004578514427 4329.7975551967902 -8985.0091519293219 
	4829.9994572630703 4331.0193882071708 -8984.9891554544811 
	4829.9954842198358 4332.2382516641046 -8984.9095969866739 
	4829.9885603966504 4333.4541389471588 -8984.7703423422481 
	4829.9819918856319 4334.2627276188787 -8984.6373310557447 
	4829.9763388331585 4334.8684054022124 -8984.5222523622033 
	4829.9743333726019 4335.0701706477794 -8984.4813381764925 
	4829.9711442297048 4335.3726253430714 -8984.4160917071131 
	4829.970050478425 4335.4734570163637 -8984.3936857157059 
	4829.9678089754152 4335.6745127927625 -8984.3477008990885 
	4829.9620672055416 4336.1759301367892 -8984.2297441859555 
	4829.9505092651834 4337.0675585496929 -8983.9906559630672 
	4829.9326489658015 4338.2335272953233 -8983.6158262166391 
	4829.9124937090583 4339.3768842739837 -8983.1855759538248 
	4829.8901962886039 4340.4977225623516 -8982.7001267563974 
	4829.8659093603419 4341.5959739932505 -8982.1593042630648 
	4829.848494651661 4342.3129290312454 -8981.7614558789555 
	4829.8372610543674 4342.7561877469107 -8981.5009359824453 
	4829.8338647767814 4342.8888022716983 -8981.4218896085349 
	4829.8304301475573 4343.0208691115267 -8981.341500094155 
	4829.8281319781881 4343.1087915954995 -8981.287607700111 
	4829.8269784088934 4343.1527022574101 -8981.260505306971 
	4829.8211929326308 4343.3718303833903 -8981.1243166391396 
	4829.8165176216862 4343.5454154660647 -8981.0134240832776 
	4829.8023652859829 4344.0610783719221 -8980.6749888131853 
	4829.7831585606418 4344.7350558122553 -8980.2083955053258 
	4829.7535620330182 4345.7060170671284 -8979.4632667884744 
	4829.723398189587 4346.6373836063731 -8978.6733553719332 
	4829.6928838274252 4347.5292783866389 -8977.8387923762657 
	4829.6622359945122 4348.3815410854368 -8976.959388366422 
	4829.641861750958 4348.9229950840609 -8976.3428804185423 
	4829.6291928539185 4349.252896092381 -8975.9479335578144 
	4829.6266623317506 4349.3184506382595 -8975.8684624116522 
	4829.6228723357744 4349.4161402164127 -8975.7485287468207 
	4829.6216096186154 4349.4486053312894 -8975.7084185321219 
	4829.6190879240394 4349.5132782790824 -8975.6280079637836 
	4829.6127955273023 4349.6742537045275 -8975.4265860785144 
	4829.6065639684166 4349.8317062759315 -8975.2231934647261 
	4829.5917373496322 4350.2029034669367 -8974.7313089650343 
	4829.5723129551052 4350.6800042163914 -8974.0654884111809 
	4829.5444019975921 4351.3430490131086 -8973.0373213098101 
	4829.5179048626524 4351.9539706062997 -8971.9799834722926 
	4829.4930081027678 4352.5128750638751 -8970.8935296994096 
	4829.4698987339752 4353.0194953370183 -8969.7778062097532 
	4829.4558106496543 4353.321952796593 -8969.0142321642088 
	4829.4482934292564 4353.4819613190448 -8968.5790527875542 
	4829.4474638413039 4353.4995993437633 -8968.5306207364374 
	4829.4458161126213 4353.5345931434222 -8968.433598581867 
	4829.4449977596732 4353.5519534142386 -8968.3849957400071 
	4829.4425615493301 4353.6035781223427 -8968.2390383278344 
	4829.4377688382147 4353.7049117076858 -8967.9467894594236 
	4829.4332171211563 4353.8005334906111 -8967.653544653509 
	4829.4244399010431 4353.9842419777015 -8967.0657411187294 
	4829.4136068949465 4354.2091028076838 -8966.278500969438 
	4829.4000436162059 4354.4870758885163 -8965.0872961912737 
	4829.3892414194961 4354.7062218984074 -8963.8858316797032 
	4829.3812745367004 4354.8666075948813 -8962.6741184231014 
	4829.3762174656358 4354.9678779845181 -8961.4520940195798 
	4829.3748363905979 4354.9954554432561 -8960.630445043349 
	4829.3746339020272 4354.9995003036202 -8960.1662672065049 
	4829.3746193799061 4354.9997903826943 -8960.114650198866 
	4829.3746063495037 4355.0000506659935 -8960.011425589264 
	4829.3746108184814 4354.999961390201 -8959.8566687120619 
	4829.3747888283106 4354.9964055363271 -8959.4961278636511 
	4829.3752269175538 4354.9876531682839 -8959.1880446347077 
	4829.376479117107 4354.9626197308735 -8958.573134320106 
	4829.3791513952019 4354.909174912973 -8957.7566020119502 
	4829.3860949597747 4354.7696892082258 -8956.54170045301 
	4829.3959020664752 4354.5713274271247 -8955.3366215827809 
	4829.4085015388637 4354.3141081572612 -8954.1413617307353 
	4829.4187150405342 4354.103120977662 -8953.3511122845666 
	4829.4270371313323 4353.9298542751485 -8952.7609315827867 
	4829.4313636614397 4353.8394625978681 -8952.4664681182985 
	4829.4366968037066 4353.7273632547058 -8952.1240352991535 
	4829.4390431763577 4353.6778890308969 -8951.977517156045 
	4829.4406208730998 4353.6445871132992 -8951.8798916150754 
	4829.4414167065606 4353.6277710860977 -8951.831089651263 
	4829.448633484837 4353.4751137278372 -8951.3924769209716 
	4829.4622114729718 4353.1855599029577 -8950.6227064417708 
	4829.4846284574496 4352.6978863083559 -8949.4973736239881 
	4829.5089065713018 4352.1576004273857 -8948.4009582909657 
	4829.5348601665364 4351.5650442549941 -8947.3332683511671 
	4829.5623045553357 4350.9201837903111 -8946.2943180801503 
	4829.5814707413365 4350.4551334178486 -8945.6209917004398 
	4829.5961242138837 4350.0929656413718 -8945.1233463964691 
	4829.6035206410515 4349.9085351862304 -8944.8763619745641 
	4829.6110125187779 4349.7190323890118 -8944.6321634892774 
	4829.6147735961431 4349.6234304234977 -8944.5105313919776 
	4829.6160302524049 4349.5914100753216 -8944.470051106262 
	4829.6185459369854 4349.5271500671133 -8944.3893282771842 
	4829.6298767094722 4349.2370058572833 -8944.0271606223487 
	4829.6514404438658 4348.6724658069907 -8943.3614328865206 
	4829.6820604378709 4347.8349060205946 -8942.4667526842168 
	4829.7126363067673 4346.9572948535188 -8941.6166664542689 
	4829.7429502562991 4346.0398487863831 -8940.8109251628339 
	4829.7727852393009 4345.0824981419819 -8940.0495984286445 
	4829.7922100005026 4344.4174227316216 -8939.5719172901299 
	4829.8065482081984 4343.9083853142911 -8939.2250396316886 
	4829.8124744505503 4343.6941539550489 -8939.0828798928196 
	4829.8183332253448 4343.4772276408203 -8938.9437184016733 
	4829.82067118549 4343.3902408017639 -8938.8882944577599 
	4829.8241710515922 4343.2593886276036 -8938.8054901210071 
	4829.8368695717618 4342.7775390068755 -8938.5068070698835 
	4829.8568963871312 4341.9779207797492 -8938.0447795088512 
	4829.881831855675 4340.8884532156108 -8937.4846729433921 
	4829.9048430615958 4339.7759457378106 -8936.9798405924284 
	4829.9257748121636 4338.6405002703013 -8936.5300304828052 
	4829.9444721432465 4337.4820544609593 -8936.1353853848996 
	4829.9553430315636 4336.6942713074959 -8935.9094267392047 
	4829.9628583749527 4336.0975256523234 -8935.7541255465567 
	4829.9652571741426 4335.8976252516422 -8935.704720903228 
	4829.9681184980618 4335.646504079743 -8935.6459520345834 
	4829.9686840979721 4335.5961999044812 -8935.6343436497991 
	4829.9698003558369 4335.495567684563 -8935.6114494368376 
	4829.9714522607119 4335.3445916162082 -8935.5775933535715 
	4829.9772616625551 4334.7907084314184 -8935.458776953561 
	4829.9854143882103 4333.882705456268 -8935.2931898776496 
	4829.9933713938863 4332.6685812988217 -8935.1328147781314 
	4829.9983899960916 4331.4510409653776 -8935.0321912851432 
	4830.0004453414858 4330.2300970172782 -8934.9910979373344 
	4829.9995125294836 4329.0057376913001 -8935.0097397541522 
	4829.9968817205963 4328.1871969045596 -8935.0624166092512 
	4829.9946042716847 4327.6748767130221 -8935.1081462275961 
	4829.9938735464502 4327.5211257072406 -8935.1228261910219 
	4829.9930714300208 4327.3672918091179 -8935.1389560028056 
	4829.9925208036138 4327.2647173998403 -8935.1500323914479 
	4829.9911039917915 4327.008147118162 -8935.1785422662542 
	4829.9894964038967 4326.7526995334529 -8935.2109435870752 
	4829.9852796273417 4326.1417550406886 -8935.29609224261 
	4829.9787011709532 4325.3328388198152 -8935.4293087112528 
	4829.9660854608792 4324.1361989577017 -8935.6871690886492 
	4829.9508392066873 4322.9561247594092 -8936.0024839706912 
	4829.9330785781503 4321.7925673597319 -8936.3750890148385 
	4829.9129198434866 4320.6455960771482 -8936.8052306673544 
	4829.8979604534406 4319.8921325587298 -8937.1307932369546 
	4829.8881609376067 4319.4247791978323 -8937.3466270696499 
	4829.8861785427662 4319.3314867016388 -8937.3904120767711 
	4829.883171695592 4319.1918168000548 -8937.4570224586387 
	4829.8821635362156 4319.1452897434765 -8937.4793888484492 
	4829.8801386734385 4319.0524378867376 -8937.5243788702282 
	4829.8750543878741 4318.8207772415763 -8937.6375139868342 
	4829.8698612702692 4318.5914537289009 -8937.7539384227675 
	4829.8572024356936 4318.0455150413036 -8938.0396032767349 
	4829.8398031948764 4317.32942499815 -8938.4371381714282 
	4829.8123542988978 4316.2901933369167 -8939.0825752181172 
	4829.7837632875762 4315.2855455761382 -8939.7767050590155 
	4829.7542361895821 4314.3154124300736 -8940.5194383363832 
	4829.7239796385638 4313.3799723612574 -8941.311034865761 
	4829.7034621111961 4312.7797626410284 -8941.8717532710689 
	4829.6918639884698 4312.4488627956416 -8942.1966228600631 
	4829.690574517922 4312.4121895143526 -8942.2328510320567 
	4829.6879941396683 4312.3390302530515 -8942.3055712800633 
	4829.6867028601582 4312.3025338494381 -8942.3420739537942 
	4829.6828320706682 4312.1934667203541 -8942.4518372991897 
	4829.6750990518703 4311.9769170172085 -8942.6724869989339 
	4829.6673968803043 4311.7650916989242 -8942.8964851258916 
	4829.6520472128841 4311.3476741519726 -8943.3488995063308 
	4829.6317269264473 4310.8077309586333 -8943.9638946605137 
	4829.6018960589317 4310.0468945640787 -8944.9211812926969 
	4829.5729225093346 4309.3347402143236 -8945.9129869096669 
	4829.5450125466132 4308.671223063865 -8946.9392856181785 
	4829.5183734359589 4308.0566480750849 -8948.0002994160604 
	4829.5016017577427 4307.6800030559607 -8948.7311036205647 
	4829.4924861977161 4307.477639142071 -8949.1489206917358 
	4829.4914774909703 4307.4552798272016 -8949.195452186379 
	4829.4894716399658 4307.4108828278577 -8949.2885833565051 
	4829.486479504345 4307.3447541231835 -8949.4284140667842 
	4829.4796151901337 4307.1937114407119 -8949.7556205759465 
	4829.4739355358079 4307.0697980689056 -8950.037676566546 
	4829.4628558904797 4306.8292998232582 -8950.6038918431805 
	4829.4488288709845 4306.5281688011119 -8951.364451653908 
	4829.4301448771103 4306.134234182201 -8952.521871239167 
	4829.4139343407987 4305.7976511246852 -8953.6957547231705 
	4829.4003134877521 4305.5184219934572 -8954.8861043629149 
	4829.3930373077137 4305.3707815552616 -8955.6907284597582 
	4829.3882865920186 4305.2747043932377 -8956.2984040252522 
	4829.386087849527 4305.230330811195 -8956.6032941704634 
	4829.3838383820175 4305.1850403014714 -8956.9608596634826 
	4829.3829427057035 4305.1670265797648 -8957.1145030204061 
	4829.3823608648809 4305.1553287138031 -8957.2170213098088 
	4829.3820775032682 4305.1496338215866 -8957.2683406217238 
	4829.3795994558241 4305.0998471756175 -8957.730029161361 
	4829.3762122479429 4305.0320177743451 -8958.5495988501589 
	4829.3741593423201 4304.9910251354004 -8959.775398888065 
	4829.375108320357 4305.0099662853763 -8960.9976922294773 
	4829.3790335340964 4305.0884649357195 -8962.2165009103974 
	4829.3859093992114 4305.2265723584123 -8963.4318220118803 
	4829.3924431970154 4305.3587032894002 -8964.2396923912856 
	4829.3980681554876 4305.4730560600083 -8964.8447027517468 
	4829.4010617845779 4305.5340478754897 -8965.1469847216304 
	4829.404325871421 4305.6008232349786 -8965.4489283544954 
	4829.4060028836375 4305.6351807873716 -8965.5998434345292 
	4829.4065695305098 4305.6467979828312 -8965.6501516018561 
	4829.4077162520416 4305.6703249787797 -8965.750615182209 
	4829.4129382902893 4305.777541716212 -8966.2021387501554 
	4829.4238439206747 4306.0028336357063 -8967.0454943893474 
	4829.441691609084 4306.3769086675647 -8968.212692353778 
	4829.4618320299414 4306.806295985979 -8969.3567651684225 
	4829.4841088012627 4307.290697884966 -8970.477840036403 
	4829.5083660392356 4307.8302116330642 -8971.5758793301848 
	4829.525753029684 4308.2269588969966 -8972.2924126775833 
	4829.539208927562 4308.5386496532437 -8972.8239082720957 
	4829.5449021331933 4308.67146600661 -8973.0441341030419 
	4829.5506982113657 4308.8080045353863 -8973.2628047311809 
	4829.553024763024 4308.8629187123497 -8973.35014815459 
	4829.554192232622 4308.8905283578924 -8973.3937622903486 
	4829.5577026749024 4308.9737121915241 -8973.5242695251673 
	4829.5694640321517 4309.253507469246 -8973.9572965993193 
	4829.5911469187586 4309.7796766383426 -8974.718855903453 
	4829.6209298127869 4310.5288473905948 -8975.6964825667619 
	4829.6513665667972 4311.325513576101 -8976.6364213813686 
	4829.6719478525592 4311.8884441409664 -8977.2378066781384 
	4829.6822739608378 4312.1779605730644 -8977.5321108445423 
	0 
	null_surface 
	null_surface 
	nullbs 
	nullbs 
	I I 
	0 
	0 
	0 
	F 1 F 0 } I I #
face $-1 $42 $43 $2 $-1 $44 reversed single #
loop $-1 $45 $46 $19 #
cone-surface $-1 4330.0000000000027 4330.0000000000027 -5090.00000000001 0 0 -1 -49.999999999999901 0 0 1 I I 0 1 49.999999999999901 forward I I I I #
coedge $-1 $33 $33 $46 $47 forward $20 $-1 #
loop $-1 $-1 $48 $7 #
vertex $-1 $25 $49 #
ellipse-curve $-1 4330.0000000000027 4330.0000000000027 -8809.9999999999891 0 0 -1 -125.00000000000011 0 0 1 I I #
vertex $-1 $26 $50 #
intcurve-curve $-1 forward { exactcur full nubs 3 periodic 172 
	0 3 0.0078125000000010304 1 0.015625000000002099 1 0.023437500000003102 1 0.031250000000004101 1 
	0.039062500000005197 1 0.046875000000006203 2 0.050781250000015099 1 0.052734375000019602 2 0.054687500000024099 2 
	0.062500000000024605 1 0.070312500000025105 1 0.078125000000025605 1 0.085937500000026104 1 0.093750000000026604 1 
	0.10156250000002701 2 0.105468750000038 1 0.10742187500005 2 0.10937500000006201 2 0.117187500000125 1 
	0.12500000000018799 1 0.13281250000025099 1 0.140625000000314 1 0.148437500000377 1 0.15625000000044001 2 
	0.16015625000047101 2 0.16113281250046901 2 0.16210937500046799 1 0.16406250000046399 1 0.17187500000050401 1 
	0.17968750000054501 1 0.187500000000586 1 0.195312500000626 1 0.20312500000066699 1 0.21093750000070699 2 
	0.212890625000729 2 0.21386718750073 2 0.214843750000732 1 0.218750000000735 2 0.22656250000075601 1 
	0.23437500000077799 1 0.2421875000008 1 0.25000000000082101 1 0.25781250000084299 1 0.26562500000086398 2 
	0.26660156250085598 2 0.26757812500084699 1 0.26953125000086398 1 0.273437500000897 2 0.281250000000975 1 
	0.28906250000105199 1 0.29687500000112998 1 0.30468750000120698 1 0.31250000000128503 1 0.32031250000136202 2 
	0.32421875000141698 2 0.32812500000147099 2 0.33593750000154299 1 0.34375000000161599 1 0.35156250000168798 1 
	0.35937500000175998 1 0.36718750000183298 2 0.37109375000185202 1 0.37304687500186201 1 0.37402343750186701 2 
	0.375000000001872 2 0.38281250000214601 1 0.39062500000242001 1 0.39843750000269301 1 0.40625000000296702 1 
	0.41406250000324102 1 0.42187500000351502 2 0.42578125000366701 1 0.42675781250370298 2 0.42773437500373901 2 
	0.42968750000377998 1 0.43750000000400902 1 0.445312500004238 1 0.45312500000446698 1 0.46093750000469602 1 
	0.468750000004925 1 0.47656250000515399 2 0.47851562500521899 2 0.480468750005283 2 0.48437500000540501 2 
	0.49218750000565797 1 0.50000000000591105 1 0.50781250000616496 1 0.51562500000641798 1 0.523437500006671 1 
	0.53125000000692502 2 0.53222656250693801 2 0.533203125006951 2 0.53515625000696099 1 0.53906250000695 2 
	0.54687500000691203 1 0.55468750000687295 1 0.56250000000683498 1 0.57031250000679601 1 0.57812500000675704 1 
	0.58593750000671896 2 0.58691406250672196 2 0.58789062500672495 2 0.58984375000672296 1 0.59375000000671996 2 
	0.60156250000673706 1 0.60937500000675504 1 0.61718750000677303 1 0.62500000000679101 1 0.632812500006809 2 
	0.64062500000682698 2 0.64843750000684497 1 0.65625000000686295 1 0.66406250000688105 1 0.67187500000689904 1 
	0.67968750000691602 1 0.68750000000693401 2 0.691406250006949 2 0.69335937500695799 2 0.69531250000696698 1 
	0.70312500000698597 1 0.71093750000700495 1 0.71875000000702405 1 0.72656250000704303 1 0.73437500000706202 1 
	0.742187500007081 2 0.746093750007089 2 0.75000000000709799 2 0.75781250000713796 1 0.76562500000717804 1 
	0.773437500007218 1 0.78125000000725897 1 0.78906250000729905 1 0.79687500000733902 2 0.79882812500732503 2 
	0.80078125000731104 2 0.80468750000729306 2 0.812500000007228 1 0.82031250000716305 1 0.82812500000709799 1 
	0.83593750000703404 1 0.84375000000696898 1 0.85156250000690403 2 0.85351562500686395 2 0.85449218750682798 2 
	0.85546875000679201 1 0.85937500000658795 2 0.86718750000618205 1 0.87500000000577505 1 0.88281250000536904 1 
	0.89062500000496203 1 0.89843750000455602 1 0.90625000000414901 2 0.90722656250411005 2 0.90820312500407097 1 
	0.91015625000398803 1 0.91406250000382405 2 0.92187500000346101 1 0.92968750000309697 1 0.93750000000273404 1 
	0.94531250000237099 1 0.95312500000200795 2 0.95703125000184197 1 0.95898437500177902 2 0.95996093750174705 2 
	0.96093750000171496 1 0.96875000000137501 1 0.97656250000103495 1 0.984375000000695 1 0.99218750000035505 2 
	0.99609375000017697 2 1 3 
	4453.6686917722927 4311.8050920494161 -8977.1448337603397 
	4453.7102427207037 4312.0875090556119 -8977.4445480359791 
	4453.7931981317797 4312.664781759865 -8978.0275237949681 
	4453.9163158799311 4313.5672865373517 -8978.8537220902454 
	4454.0372701684 4314.5059570321428 -8979.6323590732009 
	4454.1552292490678 4315.480635627182 -8980.3637753862859 
	4454.2693667630074 4316.491429306835 -8981.0479603323147 
	4454.3423563775559 4317.1896173667174 -8981.4723542731117 
	4454.3957231730064 4317.7225438526275 -8981.7785684988594 
	4454.4220626350852 4317.9913295715187 -8981.9286538393771 
	4454.4478454675173 4318.2636401630152 -8982.0741584602802 
	4454.4649057205188 4318.4459692006685 -8982.1701372625321 
	4454.4733762626583 4318.5375791036049 -8982.217639935192 
	4454.5152870409147 4318.9964028785389 -8982.4519648121841 
	4454.5796565495893 4319.7369422559786 -8982.807290453653 
	4454.6676273668654 4320.8666809874294 -8983.2826409328954 
	4454.7465067505082 4322.015158123897 -8983.7010477342828 
	4454.815792048641 4323.1823174866522 -8984.0627813259525 
	4454.8749792680865 4324.3682349459277 -8984.3676990883287 
	4454.9073641349651 4325.1714916989995 -8984.5327272691175 
	4454.9288685329011 4325.7787639273783 -8984.6419046734954 
	4454.938924599759 4326.0836080218805 -8984.6928431891938 
	4454.9479110044431 4326.3902858802276 -8984.7382430005546 
	4454.953661346638 4326.5951480992298 -8984.7672704655615 
	4454.9564109697903 4326.6975988848535 -8984.7811381958909 
	4454.9695242511325 4327.209670680063 -8984.8472267431898 
	4454.9864591829719 4328.0284060839904 -8984.932264159781 
	4454.9997814087028 4329.2548035497075 -8984.9989117284404 
	4455.0010774083712 4330.4795154806961 -8985.0053861570468 
	4454.9903969485031 4331.7025500519439 -8984.9519809785634 
	4454.9677862377939 4332.9239038095366 -8984.838558912088 
	4454.9447877953226 4333.7370089382375 -8984.7225499725555 
	4454.9245774678993 4334.3464068748372 -8984.6201376014851 
	4454.9173471050935 4334.5494676679273 -8984.5834312691823 
	4454.9076932027092 4334.8032028658154 -8984.5343007653355 
	4454.905731175696 4334.8539563005288 -8984.5243099674863 
	4454.9017511351931 4334.9553138815318 -8984.5040310047934 
	4454.8956953435963 4335.1071734222369 -8984.4731575991791 
	4454.8725543645796 4335.6620525686103 -8984.3549652014262 
	4454.8296532609738 4336.5595348226643 -8984.1345291159087 
	4454.7623138019271 4337.7342271387315 -8983.7840448355728 
	4454.6854193036461 4338.8872547977717 -8983.3776446901065 
	4454.5995427588141 4340.0187470888341 -8982.9155668041822 
	4454.5052543713173 4341.1286797912653 -8982.3976410747564 
	4454.4371707495475 4341.8541425714257 -8982.0147367403642 
	4454.3931083198668 4342.302956455128 -8981.7634520602569 
	4454.3842203398272 4342.3924890755034 -8981.7125962787577 
	4454.3707774739778 4342.5264410059981 -8981.6354092031106 
	4454.3662786573714 4342.5710274291441 -8981.6095331340839 
	4454.3572569157759 4342.6599624838618 -8981.5575509463561 
	4454.3346348076293 4342.8817802570156 -8981.4269773779106 
	4454.3116813422594 4343.1010081068498 -8981.2933235350338 
	4454.2560125050832 4343.622242200142 -8980.9667040751428 
	4454.180239922287 4344.3041269061441 -8980.5156186845543 
	4454.0628079276876 4345.2883893112758 -8979.7929465909128 
	4453.9424549516307 4346.23450743171 -8979.0246081056976 
	4453.820027152874 4347.1426180956223 -8978.2106389784949 
	4453.6963756838959 4348.0125779030959 -8977.3507354158573 
	4453.6137036170076 4348.5668303472685 -8976.7464080481113 
	4453.5673016363298 4348.8712251006828 -8976.3975458417481 
	4453.5621455190576 4348.904955698169 -8976.3586459948092 
	4453.5518464118177 4348.9721480980479 -8976.2806709099659 
	4453.5364189198381 4349.0725240908696 -8976.1634567305264 
	4453.500575322767 4349.303855510223 -8975.8882009734953 
	4453.4701355036623 4349.4972334694148 -8975.6492731144444 
	4453.4096847756937 4349.877514949897 -8975.1674601467039 
	4453.3302279539375 4350.3673002717214 -8974.5144952969349 
	4453.2152803311028 4351.0509678238659 -8973.5037810622325 
	4453.1053661062024 4351.6839950650728 -8972.4619412153352 
	4453.0012811078195 4352.2663760503974 -8971.3888898226305 
	4452.9038306295433 4352.7977284200242 -8970.2843124822084 
	4452.8438361804192 4353.1174293001286 -8969.5265422162938 
	4452.8009186937625 4353.3439558389209 -8968.9499922794312 
	4452.7870192405853 4353.4169394705505 -8968.7572409094355 
	4452.7600554514347 4353.5578847461911 -8968.3706862800045 
	4452.7469902108151 4353.6258511394935 -8968.1768708895561 
	4452.7090694193203 4353.8223020249752 -8967.5938241138447 
	4452.6619084019585 4354.0643839448239 -8966.812162105467 
	4452.6017582834229 4354.368727922546 -8965.6270160930871 
	4452.5525840254086 4354.6146346205715 -8964.4292723794351 
	4452.5147672072908 4354.8020215783845 -8963.2188982158332 
	4452.497382714856 4354.8875942518425 -8962.4034809383411 
	4452.4873763958039 4354.9367781315277 -8961.7886764620089 
	4452.4831312759225 4354.9576193881949 -8961.4804634738139 
	4452.4795268090393 4354.975298721035 -8961.1194470372739 
	4452.4782732770282 4354.9814446899209 -8960.9644163219618 
	4452.477502570644 4354.9852229882836 -8960.8609935327204 
	4452.4771499590806 4354.9869514038255 -8960.8092792647494 
	4452.474272833364 4355.0010531298512 -8960.3441498185057 
	4452.473362084259 4355.0055107705166 -8959.5200667107183 
	4452.4843559019719 4354.9516491104478 -8958.2922075315419 
	4452.5074606852004 4354.8380554025071 -8957.0725002767522 
	4452.5424282092708 4354.6651032156715 -8955.8608894517183 
	4452.5890083867489 4354.4327368816503 -8954.6573758166378 
	4452.6276339669521 4354.2378919300145 -8953.8604696645798 
	4452.6593772855576 4354.0765480978134 -8953.2648577460277 
	4452.6731815863468 4354.0061512252214 -8953.0171170794074 
	4452.6876995336634 4353.9317491623169 -8952.769920446015 
	4452.6935636251355 4353.9016668832637 -8952.6710854468838 
	4452.6965230289707 4353.8864706624754 -8952.6217086081233 
	4452.7054740508447 4353.8404617064616 -8952.4738426860495 
	4452.7358129706599 4353.6842095857946 -8951.9824388076449 
	4452.7948483790296 4353.3771442503703 -8951.1111521649291 
	4452.8822336820849 4352.91373706375 -8949.9770776054975 
	4452.9775432252472 4352.3969941986088 -8948.8702532800089 
	4453.0800428782613 4351.8271657083733 -8947.7904891857179 
	4453.1890030797204 4351.2041096913172 -8946.737790784744 
	4453.2654614165167 4350.7528948519912 -8946.0541707180528 
	4453.3142855846545 4350.4594845898164 -8945.6326745612514 
	4453.3241022891762 4350.400232132959 -8945.5486638245238 
	4453.3438354873015 4350.280579966905 -8945.3812221939752 
	4453.353757601265 4350.2201455991781 -8945.2977450535127 
	4453.3835918911773 4350.0375762421181 -8945.0488163480186 
	4453.4035901772149 4349.9140661831443 -8944.884709696249 
	4453.4638531948913 4349.5382024904484 -8944.3978599193524 
	4453.5449182552902 4349.0228353643142 -8943.763306617926 
	4453.6677555493152 4348.2078028291044 -8942.8544104373213 
	4453.7909525727964 4347.3511280426101 -8941.9879771019932 
	4453.9136416111614 4346.4528397391396 -8941.1638540324875 
	4454.0349556398814 4345.5126580147307 -8940.3822030886568 
	4454.1143304625648 4344.8575433727665 -8939.8897393715542 
	4454.1583880889784 4344.4808992288754 -8939.6209371922178 
	4454.1632751691204 4344.4389367154417 -8939.5911843715603 
	4454.1730323088132 4344.3547846179599 -8939.5319075778716 
	4454.1779037090018 4344.3125833546619 -8939.5023754987087 
	4454.1924819440828 4344.1857208472238 -8939.4141812413145 
	4454.221471587728 4343.9311621886764 -8939.239539214781 
	4454.2499442055869 4343.6741163578108 -8939.0701043705922 
	4454.3061567056575 4343.1567388849226 -8938.7381050041367 
	4454.3791524120152 4342.458144187678 -8938.313751252721 
	4454.4821047849773 4341.3843105648384 -8937.7313265360626 
	4454.5778504972704 4340.2846746751384 -8937.2025916511411 
	4454.6657273676174 4339.1591902442988 -8936.7275265631743 
	4454.7450679553158 4338.0076250167249 -8936.3065065951323 
	4454.7918164002494 4337.2222441070471 -8936.0623795068059 
	4454.8162518049221 4336.7753788111686 -8935.9355676196119 
	4454.8189410010164 4336.7256563889223 -8935.9216234788692 
	4454.8242672242477 4336.6260696043009 -8935.8940283051306 
	4454.8269034546374 4336.5762197216291 -8935.8803814080147 
	4454.8347223962 4336.4266672431622 -8935.8399375923054 
	4454.8500115281058 4336.1273600721561 -8935.7609844593826 
	4454.8642502651091 4335.8274496576014 -8935.6878003454258 
	4454.8913162768649 4335.2268320954408 -8935.5490467983454 
	4454.9236403703326 4334.4238850188394 -8935.3843383612657 
	4454.9606615317225 4333.2131787441422 -8935.1972854531523 
	4454.986044784614 4331.9962267854935 -8935.0698123747479 
	4454.9996149803592 4330.7730256096256 -8935.0019197377387 
	4455.0006666526015 4329.9533606063369 -8934.9966658642734 
	4454.9976586233879 4329.1315660655255 -8935.0117084289795 
	4454.9941246466105 4328.7195946467464 -8935.0293782364897 
	4454.9829322210653 4327.8935130042728 -8935.085464048856 
	4454.9677125278313 4327.0724296295521 -8935.1618104771878 
	4454.9332266498386 4325.8554613374326 -8935.3357711695244 
	4454.8874931301816 4324.6529249802043 -8935.5683052742806 
	4454.8309100118258 4323.4647001792646 -8935.8589827013329 
	4454.763869872856 4322.2907673754453 -8936.2077965993594 
	4454.7124666138643 4321.517727612485 -8936.4793748226748 
	4454.6714972650943 4320.9415874392926 -8936.6979110319044 
	4454.6574380239981 4320.7501476080506 -8936.7732330628714 
	4454.635757624661 4320.4639066005993 -8936.8899688320398 
	4454.6284305245326 4320.3686241514142 -8936.9295155560721 
	4454.6135884740042 4320.1784592155891 -8937.0098284078922 
	4454.576073834708 4319.7048155491884 -8937.2133344683662 
	4454.5049618220419 4318.8680502117495 -8937.603980469903 
	4454.4033123232075 4317.7853134964807 -8938.1757220774452 
	4454.2956212517483 4316.7350459225727 -8938.7977168522757 
	4454.1826683848167 4315.7170078555027 -8939.4697171619937 
	4454.0652315079051 4314.7311946978471 -8940.1918461439964 
	4453.9844749229878 4314.0956239856032 -8940.7070168251848 
	4453.9231841387618 4313.6271800689992 -8941.1062745453855 
	4453.9026320235544 4313.4723949463887 -8941.2415172828005 
	4453.861326795929 4313.1656400321117 -8941.51631186341 
	4453.8406563204044 4313.0142831144303 -8941.655314224623 
	4453.7786473935721 4312.5661996867993 -8942.0770843918253 
	4453.6959759194178 4311.984713447996 -8942.6521399640387 
	4453.5728674006368 4311.1594672454821 -8943.5522089601636 
	4453.4515182768127 4310.3806817964769 -8944.48945498592 
	4453.3327844052383 4309.6481832067402 -8945.4638460607057 
	4453.2175272166523 4308.9621411856851 -8946.4756242249532 
	4453.1435920235781 4308.5360980042451 -8947.1754165625771 
	4453.0984782624473 4308.2797937727346 -8947.6208560161976 
	4453.089510329075 4308.2290318908708 -8947.7103476328466 
	4453.071688939699 4308.1285120078619 -8947.8901436538727 
	4453.0628306715626 4308.07872722704 -8947.9804987292955 
	4453.0365037174606 4307.9312727028746 -8948.2520759869785 
	4453.0192646328378 4307.8353986683087 -8948.4339899324968 
	4452.9685218635586 4307.5549844581956 -8948.9822941758393 
	4452.9034637241302 4307.2003106596449 -8949.720196401302 
	4452.8142664409297 4306.7250176215102 -8950.8472603083083 
	4452.7340421321642 4306.305959079873 -8951.9944056255445 
	4452.6633706288285 4305.9430653374384 -8953.1616462967741 
	4452.602834753965 4305.6366774703829 -8954.3491388431194 
	4452.5696294319832 4305.4705986799854 -8955.1545042349771 
	4452.5512378489293 4305.3789835514553 -8955.6622360096317 
	4452.5476776387004 4305.3612701300381 -8955.7640014242097 
	4452.5425169160026 4305.3356203412814 -8955.9169803532277 
	4452.5408265275873 4305.3272234144379 -8955.9680317930342 
	4452.5375107421441 4305.3107608131741 -8956.0700966376462 
	4452.5293806025757 4305.2704168619603 -8956.325255779906 
	4452.5220471291295 4305.2341223304093 -8956.5804001228553 
	4452.5059766191825 4305.1547064733923 -8957.192718425953 
	4452.4886288822245 4305.0693183562835 -8958.0090678774504 
	4452.474847142681 4305.0017581980846 -8959.2333706309237 
	4452.4733027736083 4304.9941991967435 -8960.4574537935223 
	4452.4839896628519 4305.0465547990934 -8961.6813176738578 
	4452.5068980128945 4305.1591701630678 -8962.9049610654274 
	4452.5303088540841 4305.2749466708328 -8963.720574489671 
	4452.5457631798681 4305.3517545766781 -8964.1793143500909 
	4452.5475126028359 4305.360453810029 -8964.2302999581771 
	4452.5510723721454 4305.3781653398337 -8964.3321971506248 
	4452.5565014119857 4305.4051922822237 -8964.4848765120405 
	4452.5697905809375 4305.4714623030231 -8964.8399672729538 
	4452.5822319285717 4305.5337289244899 -8965.1423532791541 
	4452.6084770319867 4305.6654693981172 -8965.7445183206673 
	4452.6471032943582 4305.8603334729551 -8966.5404563427073 
	4452.7153395719315 4306.2093616932361 -8967.7138707562754 
	4452.793283199102 4306.6146561018986 -8968.8669942786 
	4452.8803495273824 4307.0761640817764 -8969.999883988583 
	4452.9440848312297 4307.4215517992043 -8970.7415966389872 
	4452.9938719957136 4307.6949326152817 -8971.2927421090335 
	4453.0192619446043 4307.8352097761026 -8971.5670294836218 
	4453.0453680961245 4307.9809199651245 -8971.8393722218425 
	4453.0585381443334 4308.0546858384459 -8971.9752178016624 
	4453.0629489164885 4308.0794333502408 -8972.0204581397811 
	4453.0717996607618 4308.1291800215877 -8972.1107344785069 
	4453.111764968462 4308.3542037654688 -8972.5161162465338 
	4453.18953653875 4308.7989615483157 -8973.2672441519444 
	4453.3041695266793 4309.475625196942 -8974.2916513595901 
	4453.4227731653928 4310.2007341098142 -8975.2803885528774 
	4453.5039175738175 4310.716463404262 -8975.9158149707437 
	4453.5653395221443 4311.1154830957566 -8976.383437024906 
	4453.5859074173813 4311.2505277512701 -8976.5378190470783 
	4453.627194921547 4311.524721988174 -8976.8435824819317 
	4453.6479162980877 4311.6638835463245 -8976.9949766225254 
	4453.6686917722918 4311.8050920494161 -8977.1448337603397 
	0 
	null_surface 
	null_surface 
	nullbs 
	nullbs 
	I I 
	0 
	0 
	0 
	F 1 F 0 } I I #
loop $-1 $51 $52 $40 #
face $-1 $-1 $27 $2 $-1 $53 forward single #
point $-1 4829.6822739608369 4312.1779605730835 -8977.532110844546 #
face $-1 $54 $55 $2 $-1 $56 forward single #
loop $-1 $57 $58 $30 #
cone-surface $-1 4330.0000000000027 4330.0000000000027 -5090.00000000001 0 0 1 49.999999999999901 0 0 1 I I 0.71333643087873744 0.70082175792506918 49.999999999999901 forward I I I I #
loop $-1 $-1 $59 $19 #
coedge $-1 $46 $46 $33 $47 reversed $31 $-1 #
edge $-1 $60 0 $60 6.2831853071795862 $33 $61 forward 7 unknown #
coedge $-1 $48 $48 $62 $63 forward $34 $-1 #
point $-1 4204.9999999999945 4330.0000000000027 -8809.9999999999891 #
point $-1 4453.6686917722845 4311.8050920494288 -8977.1448337603524 #
loop $-1 $-1 $64 $40 #
coedge $-1 $52 $52 $65 $66 forward $39 $-1 #
cone-surface $-1 4330.0000000000027 4330.0000000000027 -9460.0000000000055 0 0 1 499.99999999999898 0 0 1 I I 0 1 499.99999999999898 forward I I I I #
face $-1 $40 $67 $2 $-1 $68 forward single #
loop $-1 $69 $70 $42 #
plane-surface $-1 4330.0000000000027 4330.0000000000027 -4809.9999999999873 0 0 1 25.399999999999999 0 0 forward_v I I I I #
loop $-1 $-1 $71 $30 #
coedge $-1 $58 $58 $70 $72 forward $43 $-1 #
coedge $-1 $59 $59 $71 $73 forward $45 $-1 #
vertex $-1 $47 $74 #
ellipse-curve $-1 4330.0000000000027 4330.0000000000027 -5209.9999999999873 0 0 1 49.999999999999901 0 0 1 I I #
coedge $-1 $62 $62 $48 $63 reversed $67 $-1 #
edge $-1 $75 0 $75 6.2831853071795862 $48 $76 forward 7 unknown #
coedge $-1 $64 $64 $77 $78 forward $51 $-1 #
coedge $-1 $65 $65 $52 $66 reversed $69 $-1 #
edge $-1 $79 0 $79 6.2831853071795862 $65 $80 forward 7 unknown #
loop $-1 $81 $62 $54 #
plane-surface $-1 4330.0000000000027 4330.0000000000027 -9460.0000000000055 0 0 -1 -25.399999999999999 0 0 forward_v I I I I #
loop $-1 $-1 $65 $42 #
coedge $-1 $70 $70 $58 $72 reversed $55 $-1 #
coedge $-1 $71 $71 $59 $73 reversed $57 $-1 #
edge $-1 $82 0 $82 6.2831853071795862 $58 $83 forward 7 unknown #
edge $-1 $84 0 $84 6.2831853071795862 $59 $85 forward 7 unknown #
point $-1 4380.0000000000055 4330.0000000000027 -5209.9999999999873 #
vertex $-1 $63 $86 #
ellipse-curve $-1 4330.0000000000027 4330.0000000000027 -9460.0000000000055 0 0 -1 -125.00000000000011 0 0 1 I I #
coedge $-1 $77 $77 $64 $78 reversed $81 $-1 #
edge $-1 $87 0 $87 6.2831853071795862 $77 $88 forward 7 unknown #
vertex $-1 $66 $89 #
ellipse-curve $-1 4330.0000000000027 4330.0000000000027 -4809.9999999999873 0 0 -1 -499.99999999999898 0 0 1 I I #
loop $-1 $-1 $77 $54 #
vertex $-1 $72 $90 #
ellipse-curve $-1 4330.0000000000027 4330.0000000000027 -4809.9999999999873 0 0 1 335.00000000000108 0 0 1 I I #
vertex $-1 $73 $91 #
ellipse-curve $-1 4330.0000000000027 4330.0000000000027 -5090.00000000001 0 0 1 49.999999999999901 0 0 1 I I #
point $-1 4204.9999999999945 4330.0000000000027 -9460.0000000000055 #
vertex $-1 $78 $92 #
ellipse-curve $-1 4330.0000000000027 4330.0000000000027 -9460.0000000000055 0 0 1 499.99999999999898 0 0 1 I I #
point $-1 3829.9999999999959 4330.0000000000027 -4809.9999999999873 #
point $-1 4665.0000000000091 4330.0000000000027 -4809.9999999999873 #
point $-1 4380.0000000000055 4330.0000000000027 -5090.00000000001 #
point $-1 4830.0000000000091 4330.0000000000027 -9460.0000000000055 #
End-of-ACIS-data 