999
DXF file: p_arka.dxf
999
Pro/ENGINEER 9725 by Parametric Technology Corporation
0
SECTION
2
HEADER
9
$EXTMAX
10
22.0000000000
20
17.0000000000
9
$EXTMIN
10
0.0000000000
20
0.0000000000
9
$LIMMIN
10
0.0000000000
20
0.0000000000
9
$LIMMAX
10
22.0000000000
20
17.0000000000
9
$VIEWCTR
10
11.0000000000
20
8.5000000000
9
$VIEWSIZE
40
17.0000000000
9
$CLAYER
8
0
9
$LTSCALE
40
1.2100000000
9
$CELTYPE
6
BYLAYER
9
$DIMSCALE
40
1
9
$DIMASZ
40
0.1875000000
9
$DIMEXO
40
0.1375000000
9
$DIMDLI
40
0.8360000000
9
$DIMEXE
40
0.3960000000
9
$DIMCEN
40
0.1980000000
9
$DIMTXT
40
0.2486049107
0
ENDSEC
0
SECTION
2
TABLES
0
TABLE
2
LTYPE
70
6
0
LTYPE
2
CONTINUOUS
70
64
3
Solid line
72
65
73
0
40
0
0
LTYPE
2
CENTER
70
64
3
____ _ ____ _ ____ _ ____ _ ____ _ ____ _ ____
72
65
73
4
40
0.6
49
0.375
49
-0.075
49
0.075
49
-0.075
0
LTYPE
2
HIDDEN
70
64
3
- - - - - - - - - - - - - - - - - - - -
72
65
73
2
40
0.2
49
0.1
49
-0.1
0
LTYPE
2
PHANTOM
70
64
3
_____ _ _ _____ _ _ _____ _ _ _____
72
65
73
6
40
0.8
49
0.45
49
-0.05
49
0.1
49
-0.05
49
0.1
49
-0.05
0
LTYPE
2
DOT
70
64
3
. . . . . . . . . . . . . . . . . . . .
72
65
73
2
40
0.2
49
0.1
49
-0.1
0
LTYPE
2
DASHED
70
64
3
- - - - - - - - - - - - - - - - - - - -
72
65
73
2
40
0.2
49
0.1
49
-0.1
0
ENDTAB
0
TABLE
2
LAYER
70
36
0
LAYER
2
0
70
0
62
7
6
CONTINUOUS
0
LAYER
2
DEFAULT_1
70
0
62
7
6
CENTER
0
LAYER
2
DEFAULT_2
70
0
62
7
6
HIDDEN
0
LAYER
2
DEFAULT_3
70
0
62
7
6
PHANTOM
0
ENDTAB
0
ENDSEC
0
SECTION
2
BLOCKS
0
ENDSEC
0
SECTION
2
ENTITIES
0
LINE
8
0
10
0.0000000000
20
0.0000000000
11
0.0000000000
21
17.0000000000
0
LINE
8
0
10
0.0000000000
20
0.0000000000
11
22.0000000000
21
0.0000000000
0
LINE
8
0
10
0.0000000000
20
17.0000000000
11
22.0000000000
21
17.0000000000
0
LINE
8
0
10
22.0000000000
20
0.0000000000
11
22.0000000000
21
17.0000000000
0
POLYLINE
8
0
62
3
66
1
70
0
0
VERTEX
8
0
62
3
10
1.7198830104
20
1.9650891604
0
VERTEX
8
0
62
3
10
1.5763388048
20
2.5549904653
0
VERTEX
8
0
62
3
10
1.5263352217
20
2.7634756601
0
VERTEX
8
0
62
3
10
1.4776026469
20
2.9797565353
0
VERTEX
8
0
62
3
10
1.4294860886
20
3.2032362777
0
VERTEX
8
0
62
3
10
1.3826405385
20
3.4345117006
0
VERTEX
8
0
62
3
10
1.3412768158
20
3.6771337522
0
VERTEX
8
0
62
3
10
1.3042443861
20
3.9326152264
0
VERTEX
8
0
62
3
10
1.2726937838
20
4.1994433294
0
VERTEX
8
0
62
3
10
1.2542874303
20
4.4766306282
0
VERTEX
8
0
62
3
10
1.2508130426
20
4.7645134570
0
VERTEX
8
0
62
3
10
1.2604829037
20
5.0627554817
0
VERTEX
8
0
62
3
10
1.2855962854
20
5.3693602669
0
VERTEX
8
0
62
3
10
1.3286305890
20
5.6842332096
0
VERTEX
8
0
62
3
10
1.3871084132
20
6.0074689128
0
VERTEX
8
0
62
3
10
1.4558968254
20
6.3373547508
0
VERTEX
8
0
62
3
10
1.5362772940
20
6.6746183655
0
SEQEND
0
LINE
8
0
62
3
10
0.8220640569
20
-1.2338004152
11
6.9520236077
21
-1.2338004152
0
LINE
8
0
62
3
10
16.0102745829
20
-1.2338004152
11
19.8924255089
21
-1.2338004152
0
LINE
8
0
62
3
10
1.5362772940
20
6.6746183655
11
1.7189926575
21
7.3652004477
0
POLYLINE
8
0
62
3
66
1
70
0
0
VERTEX
8
0
62
3
10
1.7189926575
20
7.3652004477
0
VERTEX
8
0
62
3
10
1.9082125682
20
8.0666769582
0
VERTEX
8
0
62
3
10
1.9940877413
20
8.4178373954
0
VERTEX
8
0
62
3
10
2.0693260693
20
8.7675620899
0
VERTEX
8
0
62
3
10
2.1351629901
20
9.1163316746
0
VERTEX
8
0
62
3
10
2.1845701591
20
9.4618783556
0
VERTEX
8
0
62
3
10
2.2139620067
20
9.8030922383
0
VERTEX
8
0
62
3
10
2.2269241026
20
10.1410832173
0
VERTEX
8
0
62
3
10
2.2271848112
20
10.4769131826
0
VERTEX
8
0
62
3
10
2.2135502578
20
10.8143744381
0
VERTEX
8
0
62
3
10
2.1872143173
20
11.1496746799
0
VERTEX
8
0
62
3
10
2.1554869785
20
11.4724988863
0
VERTEX
8
0
62
3
10
2.1195115625
20
11.7771411511
0
VERTEX
8
0
62
3
10
2.0781447483
20
12.0693073804
0
VERTEX
8
0
62
3
10
2.0352665627
20
12.3558002709
0
VERTEX
8
0
62
3
10
1.9914996289
20
12.6379393102
0
SEQEND
0
LINE
8
0
62
3
10
19.5570178281
20
1.3994364250
11
16.0102745829
21
0.7421733357
0
POLYLINE
8
0
62
3
66
1
70
0
0
VERTEX
8
0
62
3
10
1.9914996289
20
12.6379393102
0
VERTEX
8
0
62
3
10
1.8132873690
20
13.7309250417
0
VERTEX
8
0
62
3
10
1.7721281111
20
13.9948209911
0
VERTEX
8
0
62
3
10
1.7339806718
20
14.2520281300
0
VERTEX
8
0
62
3
10
1.6985017993
20
14.5031040531
0
VERTEX
8
0
62
3
10
1.6668295203
20
14.7464194338
0
VERTEX
8
0
62
3
10
1.6391847558
20
14.9818801977
0
VERTEX
8
0
62
3
10
1.6153465849
20
15.2095804193
0
VERTEX
8
0
62
3
10
1.5957902709
20
15.4281729963
0
VERTEX
8
0
62
3
10
1.5807043896
20
15.6371387465
0
VERTEX
8
0
62
3
10
1.5699003653
20
15.8369968521
0
VERTEX
8
0
62
3
10
1.5632877335
20
16.0279577575
0
VERTEX
8
0
62
3
10
1.5607170568
20
16.2083456969
0
VERTEX
8
0
62
3
10
1.5623377727
20
16.3798364360
0
VERTEX
8
0
62
3
10
1.5685077296
20
16.5476677166
0
VERTEX
8
0
62
3
10
1.5791172658
20
16.7141736680
0
VERTEX
8
0
62
3
10
1.5942760431
20
16.8770201609
0
VERTEX
8
0
62
3
10
1.6146708951
20
17.0344425491
0
VERTEX
8
0
62
3
10
1.6405118398
20
17.1865220081
0
VERTEX
8
0
62
3
10
1.6715888592
20
17.3331773624
0
VERTEX
8
0
62
3
10
1.7079587339
20
17.4724004402
0
VERTEX
8
0
62
3
10
1.7497355389
20
17.6037014147
0
VERTEX
8
0
62
3
10
1.7968051991
20
17.7275701126
0
VERTEX
8
0
62
3
10
1.8488822688
20
17.8434678422
0
VERTEX
8
0
62
3
10
1.9059558290
20
17.9511174600
0
VERTEX
8
0
62
3
10
1.9680367988
20
18.0507961096
0
VERTEX
8
0
62
3
10
2.0348724900
20
18.1427965297
0
VERTEX
8
0
62
3
10
2.1058430741
20
18.2266654089
0
VERTEX
8
0
62
3
10
2.1815683795
20
18.3028560587
0
VERTEX
8
0
62
3
10
2.2636552039
20
18.3730211521
0
VERTEX
8
0
62
3
10
2.3521026497
20
18.4374181027
0
VERTEX
8
0
62
3
10
2.4469116144
20
18.4957894969
0
VERTEX
8
0
62
3
10
2.5496915883
20
18.5490157665
0
VERTEX
8
0
62
3
10
2.6604515242
20
18.5973819796
0
VERTEX
8
0
62
3
10
2.7791824693
20
18.6406030681
0
VERTEX
8
0
62
3
10
2.9074670551
20
18.6787042589
0
VERTEX
8
0
62
3
10
3.0483296872
20
18.7118611994
0
VERTEX
8
0
62
3
10
3.1987459600
20
18.7398982421
0
VERTEX
8
0
62
3
10
3.3512252894
20
18.7623136717
0
VERTEX
8
0
62
3
10
3.5031994284
20
18.7783717684
0
VERTEX
8
0
62
3
10
3.6572366238
20
18.7888082519
0
VERTEX
8
0
62
3
10
3.8135510323
20
18.7953285659
0
VERTEX
8
0
62
3
10
3.9703402202
20
18.7982785034
0
VERTEX
8
0
62
3
10
4.1294066211
20
18.7973122713
0
VERTEX
8
0
62
3
10
4.2963716918
20
18.7930979348
0
VERTEX
8
0
62
3
10
4.4731129026
20
18.7857012893
0
VERTEX
8
0
62
3
10
4.6577527832
20
18.7750565392
0
VERTEX
8
0
62
3
10
4.8502803795
20
18.7616343638
0
VERTEX
8
0
62
3
10
5.0510815040
20
18.7451919451
0
VERTEX
8
0
62
3
10
5.2597703442
20
18.7259721010
0
VERTEX
8
0
62
3
10
5.4751785087
20
18.7051739640
0
SEQEND
0
LINE
8
0
62
3
10
2.8503767501
20
0.7421733357
11
2.8503767501
21
16.7421733357
0
LINE
8
0
62
3
10
6.9520236077
20
0.7421733357
11
2.8503767501
21
0.7421733357
0
LINE
8
0
62
3
10
3.8715874801
20
16.7421733357
11
3.8715874801
21
17.7633840657
0
POLYLINE
8
0
62
3
66
1
70
0
0
VERTEX
8
0
62
3
10
0.8220640569
20
-1.2338004152
0
VERTEX
8
0
62
3
10
0.9897857196
20
-1.1556611012
0
VERTEX
8
0
62
3
10
1.1406715589
20
-1.0761262728
0
VERTEX
8
0
62
3
10
1.2747215749
20
-0.9951959300
0
VERTEX
8
0
62
3
10
1.3892219348
20
-0.9143479531
0
VERTEX
8
0
62
3
10
1.4868864713
20
-0.8321044619
0
VERTEX
8
0
62
3
10
1.5758566830
20
-0.7440318155
0
VERTEX
8
0
62
3
10
1.6590322876
20
-0.6489764969
0
VERTEX
8
0
62
3
10
1.7335135672
20
-0.5480920231
0
VERTEX
8
0
62
3
10
1.7987428670
20
-0.4404053043
0
VERTEX
8
0
62
3
10
1.8547574637
20
-0.3246215720
0
VERTEX
8
0
62
3
10
1.9015200805
20
-0.2020355946
0
VERTEX
8
0
62
3
10
1.9383612318
20
-0.0755585874
0
VERTEX
8
0
62
3
10
1.9644815642
20
0.0535824687
0
VERTEX
8
0
62
3
10
1.9806804311
20
0.1866145547
0
VERTEX
8
0
62
3
10
1.9886864066
20
0.3243073979
0
VERTEX
8
0
62
3
10
1.9885359713
20
0.4667620305
0
VERTEX
8
0
62
3
10
1.9801926447
20
0.6138774205
0
VERTEX
8
0
62
3
10
1.9652755593
20
0.7661201995
0
VERTEX
8
0
62
3
10
1.9434578864
20
0.9239623707
0
VERTEX
8
0
62
3
10
1.9150664547
20
1.0869319309
0
VERTEX
8
0
62
3
10
1.8827008823
20
1.2540795017
0
VERTEX
8
0
62
3
10
1.8466677892
20
1.4247280292
0
VERTEX
8
0
62
3
10
1.8066605554
20
1.5995545673
0
VERTEX
8
0
62
3
10
1.7643589391
20
1.7796408994
0
VERTEX
8
0
62
3
10
1.7198830104
20
1.9650891604
0
SEQEND
0
LINE
8
0
62
3
10
19.8715874801
20
17.7633840657
11
19.8715874801
21
16.7421733357
0
LINE
8
0
62
3
10
2.8503767501
20
16.7421733357
11
3.8715874801
21
16.7421733357
0
LINE
8
0
62
3
10
19.8715874801
20
16.7421733357
11
20.8927982100
21
16.7421733357
0
LINE
8
0
62
3
10
20.8927982100
20
16.7421733357
11
20.8927982100
21
13.7934254693
0
LINE
8
0
62
3
10
20.8927982100
20
8.7549719488
11
19.5570178281
21
1.3994364250
0
POLYLINE
8
0
62
3
66
1
70
0
0
VERTEX
8
0
62
3
10
13.7448219501
20
18.5726743903
0
VERTEX
8
0
62
3
10
14.2045392578
20
18.5948248732
0
VERTEX
8
0
62
3
10
14.6746357084
20
18.6186774100
0
VERTEX
8
0
62
3
10
15.1565636705
20
18.6447471449
0
VERTEX
8
0
62
3
10
15.6519066220
20
18.6753568601
0
VERTEX
8
0
62
3
10
16.1609405926
20
18.7101652318
0
VERTEX
8
0
62
3
10
16.6833895527
20
18.7495135838
0
VERTEX
8
0
62
3
10
17.2200088920
20
18.7967486689
0
VERTEX
8
0
62
3
10
17.7715996189
20
18.8514599253
0
VERTEX
8
0
62
3
10
18.3373607248
20
18.9140579148
0
VERTEX
8
0
62
3
10
18.9156445740
20
18.9891210751
0
VERTEX
8
0
62
3
10
19.5069344812
20
19.0761098454
0
VERTEX
8
0
62
3
10
20.1107471315
20
19.1755637866
0
VERTEX
8
0
62
3
10
20.7239849446
20
19.2936800191
0
VERTEX
8
0
62
3
10
21.3456153937
20
19.4325242497
0
VERTEX
8
0
62
3
10
21.9766710057
20
19.5900307716
0
VERTEX
8
0
62
3
10
22.6171517804
20
19.7661995848
0
SEQEND
0
LINE
8
0
62
3
10
3.8715874801
20
17.7633840657
11
19.8715874801
21
17.7633840657
0
POLYLINE
8
0
62
3
66
1
70
0
0
VERTEX
8
0
62
3
10
6.6537720544
20
18.5876782361
0
VERTEX
8
0
62
3
10
6.9116191425
20
18.5657527718
0
VERTEX
8
0
62
3
10
7.1780855494
20
18.5453913062
0
VERTEX
8
0
62
3
10
7.4521384875
20
18.5264136735
0
VERTEX
8
0
62
3
10
7.7309665099
20
18.5094511111
0
VERTEX
8
0
62
3
10
8.0132210811
20
18.4946347008
0
VERTEX
8
0
62
3
10
8.3002507366
20
18.4818333608
0
VERTEX
8
0
62
3
10
8.5932896360
20
18.4712850833
0
VERTEX
8
0
62
3
10
8.8904193564
20
18.4629795902
0
VERTEX
8
0
62
3
10
9.1935583206
20
18.4569271597
0
VERTEX
8
0
62
3
10
9.5096959562
20
18.4533966189
0
VERTEX
8
0
62
3
10
9.8426159516
20
18.4524435623
0
VERTEX
8
0
62
3
10
10.1885346183
20
18.4540123955
0
VERTEX
8
0
62
3
10
10.5430903182
20
18.4582051619
0
VERTEX
8
0
62
3
10
10.9040670773
20
18.4652196086
0
VERTEX
8
0
62
3
10
11.2736808697
20
18.4748579885
0
VERTEX
8
0
62
3
10
11.6542179793
20
18.4866291043
0
VERTEX
8
0
62
3
10
12.0452132272
20
18.5006001859
0
VERTEX
8
0
62
3
10
12.4471317924
20
18.5167040033
0
VERTEX
8
0
62
3
10
13.7448219501
20
18.5726743903
0
SEQEND
0
LINE
8
0
62
3
10
6.1605505560
20
18.6345089282
11
6.6537720544
21
18.5876782361
0
LINE
8
0
62
3
10
5.4751785087
20
18.7051739640
11
6.1605505560
21
18.6345089282
0
LINE
8
0
62
3
10
22.8220640569
20
19.7661995848
11
22.8220640569
21
1.5444942142
0
LINE
8
0
62
3
10
22.6171517804
20
19.7661995848
11
22.8220640569
21
19.7661995848
0
ARC
8
0
62
3
10
21.7928911663
20
-0.3040307434
40
2.1157129667
50
60.8929698596
51
206.0693854061
0
ARC
8
0
62
3
10
7.1351119400
20
-0.2458135397
40
1.0048081426
50
100.4986425359
51
259.5013574641
0
ARC
8
0
62
3
10
18.9607777652
20
11.2741987090
40
3.1747766014
50
307.4849629200
51
412.5150370800
0
ARC
8
0
62
3
10
16.1933629153
20
-0.2458135397
40
1.0048081426
50
100.4986425359
51
259.5013574641
0
CIRCLE
8
0
62
3
10
21.4799347936
20
6.7766071899
40
0.7038877575
0
CIRCLE
8
0
62
3
10
21.7928911663
20
15.1873097074
40
0.7038877575
0
CIRCLE
8
0
62
3
10
21.4799347936
20
17.9647975155
40
0.7038877575
0
ENDSEC
0
EOF
