600 0 1 0           
111 GICL ACIS Healer - Source: /gicl/data5/repository/PTC/V20/web_demos/models/shtmtl_auto/part_grain.prt.sat - 6 0 18 ACIS 6.0.3 Solaris 24 Sat Apr 13 20:47:46 2002 
1 9.999999999999999547e-07 1.000000000000000036e-10 
body $-1 $1 $-1 $-1 #
lump $-1 $-1 $2 $0 #
shell $-1 $-1 $-1 $3 $-1 $1 #
face $-1 $4 $5 $2 $-1 $6 reversed single #
face $-1 $7 $8 $2 $-1 $9 forward single #
loop $-1 $-1 $10 $3 #
plane-surface $-1 0 5.079999999999999183 0 0 -1 0 25.39999999999999858 0 0 forward_v I I I I #
face $-1 $11 $12 $2 $-1 $13 forward single #
loop $-1 $-1 $14 $4 #
plane-surface $-1 126.8465284008756555 2.539999999999999591 144.1625670817557534 -0.9413876463346614321 0 -0.3373266952502965155 -8.568098059357531326 0 23.91124621690039831 forward_v I I I I #
coedge $-1 $15 $16 $17 $18 forward $5 $-1 #
face $-1 $19 $20 $2 $-1 $21 reversed single #
loop $-1 $-1 $22 $7 #
plane-surface $-1 69.44990164739934357 2.539999999999999591 110.5251341635115239 0 0 1 25.39999999999999858 0 0 forward_v I I I I #
coedge $-1 $23 $17 $24 $25 forward $8 $-1 #
coedge $-1 $26 $10 $27 $28 forward $5 $-1 #
coedge $-1 $10 $29 $30 $31 forward $5 $-1 #
coedge $-1 $14 $32 $10 $18 reversed $8 $-1 #
edge $-1 $33 0 $34 2.813524030752474037 $10 $35 forward 7 unknown #
face $-1 $36 $37 $2 $-1 $38 reversed single #
loop $-1 $-1 $39 $11 #
plane-surface $-1 0 2.539999999999999591 88.89999999999999147 1 0 0 0 0 25.39999999999999858 forward_v I I I I #
coedge $-1 $40 $30 $41 $42 forward $12 $-1 #
coedge $-1 $32 $14 $43 $44 forward $8 $-1 #
coedge $-1 $30 $40 $14 $25 reversed $12 $-1 #
edge $-1 $33 0 $45 0.1999999999999999833 $24 $46 forward 7 unknown #
coedge $-1 $47 $15 $48 $49 reversed $5 $-1 #
coedge $-1 $50 $51 $15 $28 reversed $52 $-1 #
edge $-1 $34 -7.923846756986202623e-16 $53 4.929503014759677448 $15 $54 forward 7 unknown #
coedge $-1 $16 $55 $39 $56 forward $5 $-1 #
coedge $-1 $22 $24 $16 $31 reversed $12 $-1 #
edge $-1 $57 0 $33 5.468496192708609982 $16 $58 forward 7 unknown #
coedge $-1 $17 $23 $50 $59 reversed $8 $-1 #
vertex $-1 $31 $60 #
vertex $-1 $28 $61 #
straight-curve $-1 138.8998032947986871 5.079999999999999183 110.5251341635115239 -8.568098059357531326 0 23.91124621690039831 I I #
face $-1 $62 $63 $2 $-1 $64 forward single #
loop $-1 $-1 $65 $19 #
plane-surface $-1 69.44990164739934357 2.539999999999999591 69.83429520060768425 0 0 1 25.39999999999999858 0 0 forward_v I I I I #
coedge $-1 $66 $41 $29 $56 reversed $20 $-1 #
coedge $-1 $24 $22 $67 $68 forward $12 $-1 #
coedge $-1 $39 $69 $22 $42 reversed $20 $-1 #
edge $-1 $57 0 $70 0.1999999999999999833 $41 $71 forward 7 unknown #
coedge $-1 $67 $72 $23 $44 reversed $73 $-1 #
edge $-1 $45 0 $74 2.813524030752474037 $43 $75 forward 7 unknown #
vertex $-1 $68 $76 #
straight-curve $-1 138.8998032947986871 5.079999999999999183 110.5251341635115239 0 -25.39999999999999858 0 I I #
coedge $-1 $77 $26 $78 $79 forward $5 $-1 #
coedge $-1 $80 $81 $26 $49 forward $82 $-1 #
edge $-1 $83 0 $53 0.02349725404765210662 $26 $84 forward 7 unknown #
coedge $-1 $85 $27 $32 $59 forward $52 $-1 #
coedge $-1 $27 $85 $80 $86 reversed $52 $-1 #
loop $-1 $-1 $50 $87 #
vertex $-1 $49 $88 #
straight-curve $-1 114.7932535069526523 5.079999999999999183 177.7999999999999545 17.93421085824354932 0 -17.98677516655109088 I I #
coedge $-1 $29 $77 $89 $90 reversed $5 $-1 #
edge $-1 $91 0 $57 1.602001533972592817 $29 $92 forward 7 unknown #
vertex $-1 $31 $93 #
straight-curve $-1 0 5.079999999999999183 110.5251341635115239 25.39999999999999858 0 0 I I #
edge $-1 $34 0 $74 0.1999999999999999833 $50 $94 forward 7 unknown #
point $-1 138.8998032947986871 5.079999999999999183 110.5251341635115239 #
point $-1 114.7932535069526523 5.079999999999999183 177.7999999999999829 #
face $-1 $95 $96 $2 $-1 $97 forward single #
loop $-1 $-1 $98 $36 #
plane-surface $-1 126.7165331244312938 2.539999999999999591 34.98199198242007668 -0.943985269896589152 0 0.329987591006486114 8.381684811564745985 0 23.97722585537336215 forward_v I I I I #
coedge $-1 $99 $89 $100 $101 forward $37 $-1 #
coedge $-1 $69 $39 $102 $103 forward $20 $-1 #
coedge $-1 $104 $43 $40 $68 reversed $73 $-1 #
edge $-1 $70 0 $45 5.468496192708609982 $67 $105 forward 7 unknown #
coedge $-1 $41 $66 $104 $106 forward $20 $-1 #
vertex $-1 $68 $107 #
straight-curve $-1 0 5.079999999999999183 110.5251341635115239 0 -25.39999999999999858 0 I I #
coedge $-1 $43 $108 $85 $109 reversed $73 $-1 #
loop $-1 $-1 $104 $110 #
vertex $-1 $44 $111 #
straight-curve $-1 138.8998032947986871 0 110.5251341635115239 -8.568098059357531326 0 23.91124621690039831 I I #
point $-1 138.8998032947986871 0 110.5251341635115239 #
coedge $-1 $55 $47 $112 $113 forward $5 $-1 #
coedge $-1 $114 $115 $47 $79 reversed $96 $-1 #
edge $-1 $83 0 $116 4.929551641409527285 $47 $117 forward 7 unknown #
coedge $-1 $118 $48 $51 $86 forward $82 $-1 #
coedge $-1 $48 $118 $114 $119 reversed $82 $-1 #
loop $-1 $-1 $48 $95 #
vertex $-1 $79 $120 #
straight-curve $-1 203.1999999999999886 5.079999999999999183 88.5373073378714821 0 0 25.39999999999999858 I I #
coedge $-1 $51 $50 $72 $109 forward $52 $-1 #
edge $-1 $53 0 $121 0.1999999999999999833 $80 $122 forward 7 unknown #
face $-1 $110 $52 $2 $-1 $123 forward single #
point $-1 203.1999999999999886 5.079999999999999183 89.13413759068184561 #
coedge $-1 $65 $102 $55 $90 forward $37 $-1 #
edge $-1 $91 0 $124 5.468496192708609982 $55 $125 forward 7 unknown #
vertex $-1 $56 $126 #
straight-curve $-1 0 5.079999999999999183 69.83429520060769846 0 0 25.39999999999999858 I I #
point $-1 0 5.079999999999999183 110.5251341635115523 #
straight-curve $-1 114.7932535069526381 5.079999999999999183 177.7999999999999829 0 -25.39999999999999858 0 I I #
face $-1 $87 $82 $2 $-1 $127 forward single #
loop $-1 $-1 $114 $62 #
plane-surface $-1 158.8666314770319445 2.539999999999999591 44.33349805105197561 0.7060712936316355659 0 -0.7081407545886260202 -17.98677516655110153 0 -17.93421085824354222 forward_v I I I I #
coedge $-1 $128 $112 $115 $129 forward $63 $-1 #
coedge $-1 $102 $65 $130 $131 reversed $37 $-1 #
coedge $-1 $112 $128 $65 $101 reversed $63 $-1 #
edge $-1 $124 0 $132 0.1999999999999999833 $65 $133 forward 7 unknown #
coedge $-1 $89 $99 $66 $103 reversed $37 $-1 #
edge $-1 $91 0 $134 0.1999999999999999833 $66 $135 forward 7 unknown #
coedge $-1 $130 $67 $69 $106 reversed $73 $-1 #
straight-curve $-1 0 0 110.5251341635115239 25.39999999999999858 0 0 I I #
edge $-1 $134 -5.594824691024410835e-16 $70 1.602001533972592817 $104 $136 forward 7 unknown #
point $-1 0 0 110.5251341635115523 #
coedge $-1 $72 $137 $118 $138 forward $73 $-1 #
edge $-1 $74 -1.187419186422002466e-15 $121 4.92950301475967656 $72 $139 forward 7 unknown #
face $-1 $-1 $73 $2 $-1 $140 forward single #
point $-1 114.7932535069526381 0 177.7999999999999829 #
coedge $-1 $98 $100 $77 $113 reversed $63 $-1 #
edge $-1 $116 -8.561696561843843045e-17 $124 2.907117231026717263 $77 $141 forward 7 unknown #
coedge $-1 $142 $78 $81 $119 forward $96 $-1 #
coedge $-1 $78 $142 $98 $129 reversed $96 $-1 #
vertex $-1 $113 $143 #
straight-curve $-1 203.1999999999999886 5.079999999999999183 88.5373073378714821 -17.98677516655110153 0 -17.93421085824354222 I I #
coedge $-1 $81 $80 $108 $138 reversed $82 $-1 #
edge $-1 $83 0 $144 0.1999999999999999833 $81 $145 forward 7 unknown #
point $-1 203.1999999999999886 5.079999999999999183 88.5373073378714821 #
vertex $-1 $109 $146 #
straight-curve $-1 203.1999999999999886 5.079999999999999183 89.13413759068185982 0 -25.39999999999999858 0 I I #
plane-surface $-1 158.9966267534763062 2.539999999999999591 133.4670687953409356 0.7081407545886256871 0 0.70607129363163601 17.93421085824354932 0 -17.98677516655108732 forward_v I I I I #
vertex $-1 $90 $147 #
straight-curve $-1 0 5.079999999999999183 69.83429520060768425 25.39999999999999858 0 0 I I #
point $-1 0 5.079999999999999183 69.83429520060769846 #
plane-surface $-1 203.1999999999999886 2.539999999999999591 88.89999999999999147 1 0 0 0 0 25.39999999999999858 forward_v I I I I #
coedge $-1 $100 $98 $148 $149 forward $63 $-1 #
edge $-1 $116 -0 $150 0.1999999999999999833 $98 $151 forward 7 unknown #
coedge $-1 $148 $104 $99 $131 forward $73 $-1 #
edge $-1 $134 0 $132 5.468496192708609982 $130 $152 forward 7 unknown #
vertex $-1 $149 $153 #
straight-curve $-1 138.8998032947986871 5.079999999999999183 69.83429520060768425 0 -25.39999999999999858 0 I I #
vertex $-1 $131 $154 #
straight-curve $-1 0 5.079999999999999183 69.83429520060768425 0 -25.39999999999999858 0 I I #
straight-curve $-1 0 0 69.83429520060769846 0 0 25.39999999999999858 I I #
coedge $-1 $108 $148 $142 $155 reversed $73 $-1 #
edge $-1 $144 0 $121 0.02349725404765266867 $108 $156 forward 7 unknown #
straight-curve $-1 114.7932535069526523 0 177.7999999999999545 17.93421085824354932 0 -17.98677516655109088 I I #
plane-surface $-1 0 0 0 0 -1 0 25.39999999999999858 0 0 forward_v I I I I #
straight-curve $-1 114.5332629540638862 5.079999999999999183 0.1296887642324489054 8.381684811564745985 0 23.97722585537336215 I I #
coedge $-1 $115 $114 $137 $155 forward $96 $-1 #
point $-1 114.5332629540638862 5.079999999999999183 0.1296887642324466017 #
vertex $-1 $138 $157 #
straight-curve $-1 203.1999999999999886 5.079999999999999183 88.5373073378714821 0 -25.39999999999999858 0 I I #
point $-1 203.1999999999999886 0 89.13413759068185982 #
point $-1 138.8998032947986871 5.079999999999999183 69.83429520060767004 #
coedge $-1 $137 $130 $128 $149 reversed $73 $-1 #
edge $-1 $150 1.417278725925136686e-15 $132 2.907117231026717263 $148 $158 forward 7 unknown #
vertex $-1 $155 $159 #
straight-curve $-1 114.5332629540639147 5.079999999999999183 0.1296887642324771051 0 -25.39999999999999858 0 I I #
straight-curve $-1 0 0 69.83429520060768425 25.39999999999999858 0 0 I I #
point $-1 138.8998032947986871 0 69.83429520060767004 #
point $-1 0 0 69.83429520060768425 #
edge $-1 $144 0 $150 4.92955164140952462 $137 $160 forward 7 unknown #
straight-curve $-1 203.1999999999999886 0 88.5373073378714821 0 0 25.39999999999999858 I I #
point $-1 203.1999999999999886 0 88.5373073378714821 #
straight-curve $-1 114.5332629540638862 0 0.1296887642324489054 8.381684811564745985 0 23.97722585537336215 I I #
point $-1 114.5332629540639147 0 0.1296887642324771051 #
straight-curve $-1 203.1999999999999886 0 88.5373073378714821 -17.98677516655110153 0 -17.93421085824354222 I I #
End-of-ACIS-data 