600 0 1 0           
107 GICL ACIS Healer - Source: /gicl/data5/repository/PTC/V20/web_demos/models/shtmtl_auto/part_3.prt.sat - 6 0 18 ACIS 6.0.3 Solaris 24 Sat Apr 13 20:47:38 2002 
1 9.999999999999999547e-07 1.000000000000000036e-10 
body $-1 $1 $-1 $-1 #
lump $-1 $-1 $2 $0 #
shell $-1 $-1 $-1 $3 $-1 $1 #
face $-1 $4 $5 $2 $-1 $6 reversed single #
face $-1 $7 $8 $2 $-1 $9 forward single #
loop $-1 $-1 $10 $3 #
plane-surface $-1 0 5.079999999999999183 0 0 -1 0 25.39999999999999858 0 0 forward_v I I I I #
face $-1 $11 $12 $2 $-1 $13 forward single #
loop $-1 $-1 $14 $4 #
cone-surface $-1 27.4573999999999927 2.539999999999999591 9.911078698103455764 0 1 0 8.570515237191454361 0 5.017865535172212788 1 I I 0 1 9.931400000000001782 forward I I I I #
coedge $-1 $15 $16 $17 $18 forward $5 $-1 #
face $-1 $19 $20 $2 $-1 $21 reversed single #
loop $-1 $-1 $22 $7 #
plane-surface $-1 18.01395761859572886 2.539999999999999591 32.86447211663782042 0.7055624319347131301 0 0.7086477648609168511 17.99965322746728802 0 -17.92128577114171151 forward_v I I I I #
coedge $-1 $23 $17 $24 $25 forward $8 $-1 #
coedge $-1 $26 $10 $27 $28 reversed $5 $-1 #
coedge $-1 $10 $26 $29 $30 forward $5 $-1 #
coedge $-1 $14 $31 $10 $18 reversed $8 $-1 #
edge $-1 $32 -7.2039262113345712e-17 $33 2.036488696325673864 $10 $34 forward 7 unknown #
face $-1 $35 $36 $2 $-1 $37 forward single #
loop $-1 $-1 $38 $11 #
plane-surface $-1 0 2.539999999999999591 25.39999999999999858 1 0 0 0 0 25.39999999999999858 forward_v I I I I #
coedge $-1 $39 $29 $40 $41 forward $12 $-1 #
coedge $-1 $31 $14 $42 $43 forward $8 $-1 #
coedge $-1 $29 $39 $14 $25 reversed $12 $-1 #
edge $-1 $32 0 $44 0.1999999999999999833 $24 $45 forward 7 unknown #
coedge $-1 $16 $15 $38 $46 forward $5 $-1 #
coedge $-1 $47 $48 $15 $28 forward $36 $-1 #
edge $-1 $49 0 $33 1.105999999999999872 $15 $50 forward 7 unknown #
coedge $-1 $22 $24 $16 $30 reversed $12 $-1 #
edge $-1 $51 0 $32 2.0015894074122067 $16 $52 forward 7 unknown #
coedge $-1 $17 $23 $47 $53 reversed $8 $-1 #
vertex $-1 $30 $54 #
vertex $-1 $28 $55 #
ellipse-curve $-1 27.4573999999999927 5.079999999999999183 9.911078698103452211 0 1 0 8.570515237191473901 0 5.017865535172187919 1 I I #
face $-1 $-1 $56 $2 $-1 $57 forward single #
loop $-1 $-1 $58 $19 #
plane-surface $-1 25.39999999999999858 2.539999999999999591 0 0 0 -1 25.39999999999999858 0 0 forward_v I I I I #
coedge $-1 $59 $40 $26 $46 reversed $20 $-1 #
coedge $-1 $24 $22 $60 $61 forward $12 $-1 #
coedge $-1 $38 $62 $22 $41 reversed $20 $-1 #
edge $-1 $51 0 $63 0.1999999999999999833 $40 $64 forward 7 unknown #
coedge $-1 $60 $65 $23 $43 reversed $56 $-1 #
edge $-1 $44 -7.2039262113345712e-17 $66 2.036488696325673864 $42 $67 forward 7 unknown #
vertex $-1 $61 $68 #
straight-curve $-1 36.02791523719145772 5.079999999999999183 14.92894423327564546 0 -25.39999999999999858 0 I I #
edge $-1 $49 0 $51 2 $26 $69 forward 7 unknown #
coedge $-1 $58 $27 $31 $53 forward $36 $-1 #
coedge $-1 $27 $58 $59 $70 forward $36 $-1 #
vertex $-1 $46 $71 #
straight-curve $-1 0 5.079999999999999183 0 25.39999999999999858 0 0 I I #
vertex $-1 $30 $72 #
straight-curve $-1 0 5.079999999999999183 50.79999999999999716 17.99965322746728802 0 -17.92128577114171506 I I #
edge $-1 $33 0 $66 0.2000000000000000389 $47 $73 forward 7 unknown #
point $-1 36.02791523719146483 5.079999999999999183 14.92894423327564013 #
point $-1 28.09239999999999426 5.080000000000000071 5.63993296509579491e-15 #
loop $-1 $-1 $74 $35 #
plane-surface $-1 0 0 0 0 -1 0 25.39999999999999858 0 0 forward_v I I I I #
coedge $-1 $48 $47 $65 $75 reversed $36 $-1 #
coedge $-1 $62 $38 $48 $70 reversed $20 $-1 #
coedge $-1 $74 $42 $39 $61 reversed $56 $-1 #
edge $-1 $63 0 $44 2.0015894074122067 $60 $76 forward 7 unknown #
coedge $-1 $40 $59 $74 $77 forward $20 $-1 #
vertex $-1 $61 $78 #
straight-curve $-1 0 5.079999999999999183 50.79999999999999716 0 -25.39999999999999858 0 I I #
coedge $-1 $42 $74 $58 $75 forward $56 $-1 #
vertex $-1 $43 $79 #
ellipse-curve $-1 27.4573999999999927 0 9.911078698103452211 0 1 0 8.570515237191473901 0 5.017865535172187919 1 I I #
point $-1 36.02791523719146483 0 14.92894423327564013 #
straight-curve $-1 0 5.079999999999999183 0 0 0 25.39999999999999858 I I #
edge $-1 $80 0 $49 0.1999999999999999833 $59 $81 forward 7 unknown #
point $-1 0 5.079999999999999183 0 #
point $-1 0 5.079999999999999183 50.79999999999999716 #
straight-curve $-1 28.09239999999999426 5.080000000000000071 0 0 -25.39999999999999858 0 I I #
coedge $-1 $65 $60 $62 $77 reversed $56 $-1 #
edge $-1 $80 0 $66 1.105999999999999872 $65 $82 forward 7 unknown #
straight-curve $-1 0 0 50.79999999999999716 17.99965322746728802 0 -17.92128577114171506 I I #
edge $-1 $80 0 $63 2 $74 $83 forward 7 unknown #
point $-1 0 0 50.79999999999999716 #
point $-1 28.09239999999999426 -7.049916206369743637e-16 5.63993296509579491e-15 #
vertex $-1 $75 $84 #
straight-curve $-1 0 0 0 0 25.39999999999999858 0 I I #
straight-curve $-1 0 0 0 25.39999999999999858 0 0 I I #
straight-curve $-1 0 0 0 0 0 25.39999999999999858 I I #
point $-1 0 0 0 #
End-of-ACIS-data 