600 0 1 0           
117 GICL Pro/E ACIS Translator - Source: f:/data5/repository/PTC/V20/web_demos/models/shtmtl_auto/part_flip_1.prt.2 - 6 0 13 ACIS 6.0.3 NT 24 Thu Apr 04 13:09:05 2002 
1 9.9999999999999995e-007 1e-010 
body $-1 $1 $-1 $2 #
lump $-1 $-1 $3 $0 #
transform $-1 1 0 0 0 1 0 0 0 1 0 0 0 25.399999999999999 no_rotate no_reflect no_shear #
shell $-1 $-1 $-1 $4 $-1 $1 #
face $-1 $5 $6 $3 $-1 $7 reversed single #
face $-1 $8 $9 $3 $-1 $10 forward single #
loop $-1 $-1 $11 $4 #
plane-surface $-1 0 0.19999999999999998 0 0 -1 0 1 0 0 forward_v I I I I #
face $-1 $12 $13 $3 $-1 $14 forward single #
loop $-1 $-1 $15 $5 #
plane-surface $-1 3.25 0.099999999999999992 2.267949192431125 -0.20959793101254626 0 -0.97778765962516623 -0.97778765962516623 0 0.20959793101254626 forward_v I I I I #
coedge $-1 $16 $17 $18 $19 forward $6 $-1 #
face $-1 $20 $21 $3 $-1 $22 forward single #
loop $-1 $-1 $23 $8 #
plane-surface $-1 4.5 0.099999999999999992 1 -1 0 0 0 0 1 forward_v I I I I #
coedge $-1 $24 $18 $25 $26 forward $9 $-1 #
coedge $-1 $27 $11 $28 $29 forward $6 $-1 #
coedge $-1 $11 $30 $31 $32 forward $6 $-1 #
coedge $-1 $15 $33 $11 $19 reversed $9 $-1 #
edge $-1 $34 0 $35 2.5567923417630083 $11 $36 forward 7 unknown #
face $-1 $37 $38 $3 $-1 $39 forward single #
loop $-1 $-1 $40 $12 #
plane-surface $-1 3 0.099999999999999992 0 0 0 -1 1 0 0 forward_v I I I I #
coedge $-1 $41 $31 $42 $43 forward $13 $-1 #
coedge $-1 $33 $15 $44 $45 forward $9 $-1 #
coedge $-1 $31 $41 $15 $26 reversed $13 $-1 #
edge $-1 $34 0 $46 0.19999999999999998 $25 $47 forward 7 unknown #
coedge $-1 $48 $16 $49 $50 forward $6 $-1 #
coedge $-1 $51 $52 $16 $29 reversed $53 $-1 #
edge $-1 $35 1.6254793235168136e-016 $54 3.9999999999999982 $16 $55 forward 7 unknown #
coedge $-1 $17 $48 $40 $56 reversed $6 $-1 #
coedge $-1 $23 $25 $17 $32 reversed $13 $-1 #
edge $-1 $57 0 $34 2 $17 $58 forward 7 unknown #
coedge $-1 $18 $24 $51 $59 reversed $9 $-1 #
vertex $-1 $32 $60 #
vertex $-1 $29 $61 #
straight-curve $-1 4.5 0.19999999999999998 2 -0.97778765962516623 0 0.20959793101254642 I I #
face $-1 $62 $63 $3 $-1 $64 reversed single #
loop $-1 $-1 $65 $20 #
plane-surface $-1 6 0.099999999999999992 3 1 0 0 0 0 1 forward_v I I I I #
coedge $-1 $66 $42 $30 $56 forward $21 $-1 #
coedge $-1 $25 $23 $67 $68 forward $13 $-1 #
coedge $-1 $40 $69 $23 $43 reversed $21 $-1 #
edge $-1 $57 0 $70 0.19999999999999998 $42 $71 forward 7 unknown #
coedge $-1 $67 $72 $24 $45 reversed $73 $-1 #
edge $-1 $46 0 $74 2.5567923417630087 $44 $75 forward 7 unknown #
vertex $-1 $68 $76 #
straight-curve $-1 4.5 0.19999999999999998 2 0 -1 0 I I #
coedge $-1 $30 $27 $77 $78 reversed $6 $-1 #
coedge $-1 $79 $80 $27 $50 reversed $63 $-1 #
edge $-1 $54 0 $81 6 $27 $82 forward 7 unknown #
coedge $-1 $83 $28 $33 $59 forward $53 $-1 #
coedge $-1 $28 $83 $79 $84 reversed $53 $-1 #
loop $-1 $-1 $51 $85 #
vertex $-1 $50 $86 #
straight-curve $-1 1.9999999999999996 0.19999999999999998 2.5358983848622492 -0.50000000000000022 0 0.8660254037844386 I I #
edge $-1 $57 0 $87 1.5 $30 $88 forward 7 unknown #
vertex $-1 $32 $89 #
straight-curve $-1 4.5 0.19999999999999998 0 0 0 1 I I #
edge $-1 $35 0 $74 0.19999999999999998 $51 $90 forward 7 unknown #
point $-1 4.5 0.19999999999999998 2 #
point $-1 2 0.19999999999999998 2.5358983848622496 #
face $-1 $85 $73 $3 $-1 $91 forward single #
loop $-1 $-1 $92 $37 #
plane-surface $-1 3 0.099999999999999992 6 0 0 -1 1 0 0 forward_v I I I I #
coedge $-1 $77 $93 $66 $94 forward $38 $-1 #
coedge $-1 $69 $40 $65 $94 reversed $21 $-1 #
coedge $-1 $95 $44 $41 $68 reversed $73 $-1 #
edge $-1 $70 0 $46 2 $67 $96 forward 7 unknown #
coedge $-1 $42 $66 $95 $97 reversed $21 $-1 #
vertex $-1 $68 $98 #
straight-curve $-1 4.5 0.19999999999999998 0 0 -1 0 I I #
coedge $-1 $44 $99 $83 $100 reversed $73 $-1 #
loop $-1 $-1 $95 $62 #
vertex $-1 $45 $101 #
straight-curve $-1 4.5 0 2 -0.97778765962516623 0 0.20959793101254642 I I #
point $-1 4.5 0 2 #
coedge $-1 $102 $65 $48 $78 forward $38 $-1 #
edge $-1 $87 0 $81 6 $48 $103 forward 7 unknown #
coedge $-1 $92 $49 $52 $84 forward $63 $-1 #
coedge $-1 $49 $92 $102 $104 forward $63 $-1 #
vertex $-1 $78 $105 #
straight-curve $-1 0 0.19999999999999998 6 1 0 0 I I #
coedge $-1 $52 $51 $72 $100 forward $53 $-1 #
edge $-1 $54 0 $106 0.19999999999999998 $79 $107 forward 7 unknown #
face $-1 $-1 $53 $3 $-1 $108 forward single #
point $-1 0 0.19999999999999998 6.0000000000000018 #
vertex $-1 $56 $109 #
straight-curve $-1 4.5 0.19999999999999998 0 1 0 0 I I #
point $-1 4.5 0.19999999999999998 0 #
straight-curve $-1 1.9999999999999991 0.19999999999999998 2.5358983848622496 0 -1 0 I I #
plane-surface $-1 0 0 0 0 -1 0 1 0 0 forward_v I I I I #
coedge $-1 $80 $79 $99 $110 forward $63 $-1 #
coedge $-1 $65 $102 $111 $112 reversed $38 $-1 #
edge $-1 $113 0 $87 0.19999999999999998 $65 $114 forward 7 unknown #
coedge $-1 $111 $67 $69 $97 forward $73 $-1 #
straight-curve $-1 4.5 0 0 0 0 1 I I #
edge $-1 $70 0 $113 1.5 $95 $115 forward 7 unknown #
point $-1 4.5 0 0 #
coedge $-1 $72 $111 $92 $110 reversed $73 $-1 #
edge $-1 $74 5.4714046962839412e-016 $106 3.9999999999999982 $72 $116 forward 7 unknown #
point $-1 2 0 2.5358983848622501 #
coedge $-1 $93 $77 $80 $104 reversed $38 $-1 #
straight-curve $-1 6 0.19999999999999998 0 0 0 1 I I #
edge $-1 $117 0 $81 0.19999999999999998 $102 $118 forward 7 unknown #
point $-1 6 0.19999999999999998 6 #
vertex $-1 $100 $119 #
straight-curve $-1 0 0.19999999999999998 6 0 -1 0 I I #
plane-surface $-1 1 0.099999999999999992 4.267949192431125 -0.8660254037844386 0 -0.50000000000000011 -0.5 0 0.86602540378443837 forward_v I I I I #
point $-1 6 0.19999999999999998 0 #
edge $-1 $106 0 $117 6 $99 $120 forward 7 unknown #
coedge $-1 $99 $95 $93 $112 forward $73 $-1 #
edge $-1 $113 0 $117 6 $93 $121 forward 7 unknown #
vertex $-1 $112 $122 #
straight-curve $-1 6 0 0 0 1 0 I I #
straight-curve $-1 4.5 0 0 1 0 0 I I #
straight-curve $-1 1.9999999999999996 0 2.5358983848622492 -0.50000000000000022 0 0.8660254037844386 I I #
vertex $-1 $112 $123 #
straight-curve $-1 6 0 6 0 1 0 I I #
point $-1 0 0 6.0000000000000018 #
straight-curve $-1 0 0 6 1 0 0 I I #
straight-curve $-1 6 0 0 0 0 1 I I #
point $-1 6 0 0 #
point $-1 6 0 6 #
End-of-ACIS-data 