600 0 1 0           
121 GICL Pro/E ACIS Translator - Source: f:/data5/repository/PTC/V20/web_demos/models/shtmtl_auto/part_multisheet.prt.3 - 6 0 13 ACIS 6.0.3 NT 24 Thu Apr 04 13:08:58 2002 
1 9.9999999999999995e-007 1e-010 
body $-1 $1 $-1 $2 #
lump $-1 $-1 $3 $0 #
transform $-1 1 0 0 0 1 0 0 0 1 0 0 0 25.399999999999999 no_rotate no_reflect no_shear #
shell $-1 $-1 $-1 $4 $-1 $1 #
face $-1 $5 $6 $3 $-1 $7 forward single #
face $-1 $8 $9 $3 $-1 $10 forward single #
loop $-1 $11 $12 $4 #
plane-surface $-1 0 0 0 0 0 1 1 0 0 forward_v I I I I #
face $-1 $13 $14 $3 $-1 $15 forward single #
loop $-1 $-1 $16 $5 #
plane-surface $-1 -0.5 -1 -0.029999999999999999 0 1 0 -1 0 0 forward_v I I I I #
loop $-1 $-1 $17 $4 #
coedge $-1 $18 $19 $20 $21 forward $6 $-1 #
face $-1 $22 $23 $3 $-1 $24 forward single #
loop $-1 $-1 $25 $8 #
plane-surface $-1 0 -0.5 -0.029999999999999999 -1 0 0 0 -1 0 forward_v I I I I #
coedge $-1 $26 $20 $27 $28 forward $9 $-1 #
coedge $-1 $29 $30 $31 $32 forward $11 $-1 #
coedge $-1 $33 $12 $34 $35 forward $6 $-1 #
coedge $-1 $12 $36 $37 $38 forward $6 $-1 #
coedge $-1 $16 $39 $12 $21 reversed $9 $-1 #
edge $-1 $40 0 $41 1 $12 $42 forward 7 unknown #
face $-1 $43 $44 $3 $-1 $45 forward single #
loop $-1 $-1 $46 $13 #
plane-surface $-1 9 0 -0.029999999999999999 0 1 0 -1 0 0 forward_v I I I I #
coedge $-1 $47 $37 $48 $49 forward $14 $-1 #
coedge $-1 $39 $16 $50 $51 forward $9 $-1 #
coedge $-1 $37 $47 $16 $28 reversed $14 $-1 #
edge $-1 $40 0 $52 0.059999999999999998 $27 $53 forward 7 unknown #
coedge $-1 $54 $17 $55 $56 forward $11 $-1 #
coedge $-1 $17 $54 $57 $58 forward $11 $-1 #
coedge $-1 $59 $60 $17 $32 reversed $61 $-1 #
edge $-1 $62 0 $63 15 $17 $64 forward 7 unknown #
coedge $-1 $65 $18 $66 $67 forward $6 $-1 #
coedge $-1 $68 $69 $18 $35 reversed $70 $-1 #
edge $-1 $41 0 $71 18 $18 $72 forward 7 unknown #
coedge $-1 $19 $73 $74 $75 forward $6 $-1 #
coedge $-1 $25 $27 $19 $38 reversed $14 $-1 #
edge $-1 $76 0 $40 1 $19 $77 forward 7 unknown #
coedge $-1 $20 $26 $68 $78 reversed $9 $-1 #
vertex $-1 $38 $79 #
vertex $-1 $35 $80 #
straight-curve $-1 0 -1 0 -1 0 0 I I #
face $-1 $81 $82 $3 $-1 $83 forward single #
loop $-1 $-1 $84 $22 #
plane-surface $-1 18 -0.5 -0.029999999999999999 1 0 0 0 1 0 forward_v I I I I #
coedge $-1 $85 $74 $86 $87 forward $23 $-1 #
coedge $-1 $27 $25 $88 $89 forward $14 $-1 #
coedge $-1 $74 $85 $25 $49 reversed $23 $-1 #
edge $-1 $76 0 $90 0.059999999999999998 $25 $91 forward 7 unknown #
coedge $-1 $88 $92 $26 $51 reversed $93 $-1 #
edge $-1 $52 0 $94 1 $26 $95 forward 7 unknown #
vertex $-1 $28 $96 #
straight-curve $-1 0 -1 0 0 0 -1 I I #
coedge $-1 $30 $29 $97 $98 forward $11 $-1 #
coedge $-1 $99 $100 $29 $56 reversed $101 $-1 #
edge $-1 $63 0 $102 15 $29 $103 forward 7 unknown #
coedge $-1 $104 $105 $30 $58 reversed $106 $-1 #
edge $-1 $107 0 $62 15 $30 $108 forward 7 unknown #
coedge $-1 $109 $31 $105 $110 forward $61 $-1 #
coedge $-1 $31 $109 $99 $111 reversed $61 $-1 #
loop $-1 $-1 $59 $112 #
vertex $-1 $58 $113 #
vertex $-1 $56 $114 #
straight-curve $-1 16.5 -2.5 0 0 -1 0 I I #
coedge $-1 $115 $33 $116 $117 forward $6 $-1 #
coedge $-1 $118 $119 $33 $67 reversed $120 $-1 #
edge $-1 $71 0 $121 1 $33 $122 forward 7 unknown #
coedge $-1 $123 $34 $39 $78 forward $70 $-1 #
coedge $-1 $34 $123 $118 $124 reversed $70 $-1 #
loop $-1 $-1 $68 $125 #
vertex $-1 $67 $126 #
straight-curve $-1 -1 -1 0 0 -1 0 I I #
coedge $-1 $36 $127 $128 $129 forward $6 $-1 #
coedge $-1 $46 $48 $36 $75 reversed $23 $-1 #
edge $-1 $130 0 $76 18 $36 $131 forward 7 unknown #
vertex $-1 $38 $132 #
straight-curve $-1 0 0 0 0 -1 0 I I #
edge $-1 $41 0 $94 0.059999999999999998 $68 $133 forward 7 unknown #
point $-1 0 -1 0 #
point $-1 -1 -1 0 #
face $-1 $134 $135 $3 $-1 $136 forward single #
loop $-1 $-1 $137 $43 #
plane-surface $-1 18.5 -1 -0.029999999999999999 0 1 0 -1 0 0 forward_v I I I I #
coedge $-1 $138 $128 $139 $140 forward $44 $-1 #
coedge $-1 $48 $46 $141 $142 forward $23 $-1 #
coedge $-1 $128 $138 $46 $87 reversed $44 $-1 #
edge $-1 $130 0 $143 0.059999999999999998 $46 $144 forward 7 unknown #
coedge $-1 $141 $50 $47 $89 reversed $93 $-1 #
edge $-1 $90 0 $52 1 $47 $145 forward 7 unknown #
vertex $-1 $89 $146 #
straight-curve $-1 0 0 0 0 0 -1 I I #
coedge $-1 $50 $147 $123 $148 reversed $93 $-1 #
loop $-1 $149 $141 $150 #
vertex $-1 $148 $151 #
straight-curve $-1 0 -1 -0.059999999999999998 -1 0 0 I I #
point $-1 0 -1 -0.059999999999999998 #
coedge $-1 $152 $153 $54 $98 reversed $154 $-1 #
edge $-1 $102 0 $107 15 $54 $155 forward 7 unknown #
coedge $-1 $156 $55 $60 $111 forward $101 $-1 #
coedge $-1 $55 $156 $152 $157 reversed $101 $-1 #
loop $-1 $-1 $99 $158 #
vertex $-1 $98 $159 #
straight-curve $-1 16.5 -17.5 0 -1 0 0 I I #
coedge $-1 $160 $57 $153 $161 forward $106 $-1 #
coedge $-1 $57 $160 $59 $110 reversed $106 $-1 #
loop $-1 $-1 $104 $162 #
vertex $-1 $58 $163 #
straight-curve $-1 1.5 -2.5 0 1 0 0 I I #
coedge $-1 $60 $59 $164 $165 forward $61 $-1 #
edge $-1 $62 0 $166 0.059999999999999998 $105 $167 forward 7 unknown #
edge $-1 $63 0 $168 0.059999999999999998 $99 $169 forward 7 unknown #
face $-1 $162 $61 $3 $-1 $170 forward single #
point $-1 16.5 -2.5 0 #
point $-1 16.5 -17.5 0 #
coedge $-1 $171 $65 $172 $173 forward $6 $-1 #
coedge $-1 $174 $175 $65 $117 reversed $176 $-1 #
edge $-1 $121 0 $177 1 $65 $178 forward 7 unknown #
coedge $-1 $179 $66 $69 $124 forward $120 $-1 #
coedge $-1 $66 $179 $174 $180 reversed $120 $-1 #
loop $-1 $-1 $118 $181 #
vertex $-1 $117 $182 #
straight-curve $-1 -1 -19 0 1 0 0 I I #
coedge $-1 $69 $68 $92 $148 forward $70 $-1 #
edge $-1 $71 0 $183 0.059999999999999998 $118 $184 forward 7 unknown #
face $-1 $150 $70 $3 $-1 $185 forward single #
point $-1 -1 -19 0 #
coedge $-1 $73 $186 $187 $188 forward $6 $-1 #
coedge $-1 $84 $86 $73 $129 reversed $44 $-1 #
edge $-1 $189 0 $130 1 $73 $190 forward 7 unknown #
vertex $-1 $75 $191 #
straight-curve $-1 18 0 0 -1 0 0 I I #
point $-1 0 0 0 #
straight-curve $-1 -1 -1 0 0 0 -1 I I #
face $-1 $192 $193 $3 $-1 $194 forward single #
loop $-1 $-1 $195 $81 #
plane-surface $-1 19 -10 -0.029999999999999999 1 0 0 0 1 0 forward_v I I I I #
coedge $-1 $196 $187 $197 $198 forward $82 $-1 #
coedge $-1 $86 $84 $199 $200 forward $44 $-1 #
coedge $-1 $187 $196 $84 $140 reversed $82 $-1 #
edge $-1 $189 0 $201 0.059999999999999998 $84 $202 forward 7 unknown #
coedge $-1 $199 $88 $85 $142 reversed $93 $-1 #
edge $-1 $143 0 $90 18 $85 $203 forward 7 unknown #
vertex $-1 $142 $204 #
straight-curve $-1 18 0 0 0 0 -1 I I #
straight-curve $-1 0 0 -0.059999999999999998 0 -1 0 I I #
point $-1 0 0 -0.059999999999999998 #
coedge $-1 $92 $205 $179 $206 reversed $93 $-1 #
edge $-1 $94 0 $183 18 $123 $207 forward 7 unknown #
loop $-1 $-1 $208 $150 #
face $-1 $209 $93 $3 $-1 $210 reversed single #
point $-1 -1 -1 -0.059999999999999998 #
coedge $-1 $211 $97 $100 $157 forward $154 $-1 #
coedge $-1 $97 $211 $104 $161 reversed $154 $-1 #
loop $-1 $-1 $152 $209 #
straight-curve $-1 1.5 -17.5 0 0 1 0 I I #
coedge $-1 $100 $99 $212 $213 forward $101 $-1 #
edge $-1 $102 0 $214 0.059999999999999998 $152 $215 forward 7 unknown #
face $-1 $112 $101 $3 $-1 $216 forward single #
point $-1 1.5 -17.5 0 #
coedge $-1 $105 $104 $217 $218 forward $106 $-1 #
edge $-1 $107 0 $219 0.059999999999999998 $104 $220 forward 7 unknown #
face $-1 $-1 $106 $3 $-1 $221 forward single #
point $-1 1.5 -2.5 0 #
coedge $-1 $217 $212 $109 $165 reversed $149 $-1 #
edge $-1 $166 0 $168 15 $109 $222 forward 7 unknown #
vertex $-1 $110 $223 #
straight-curve $-1 16.5 -2.5 0 0 0 -1 I I #
vertex $-1 $213 $224 #
straight-curve $-1 16.5 -17.5 0 0 0 -1 I I #
plane-surface $-1 16.5 -10 -0.029999999999999999 -1 0 0 0 -1 0 forward_v I I I I #
coedge $-1 $225 $115 $226 $227 forward $6 $-1 #
coedge $-1 $228 $229 $115 $173 reversed $230 $-1 #
edge $-1 $177 0 $231 18 $115 $232 forward 7 unknown #
coedge $-1 $233 $116 $119 $180 forward $176 $-1 #
coedge $-1 $116 $233 $228 $234 reversed $176 $-1 #
loop $-1 $-1 $174 $235 #
vertex $-1 $173 $236 #
straight-curve $-1 0 -19 0 0 -1 0 I I #
coedge $-1 $119 $118 $147 $206 forward $120 $-1 #
edge $-1 $121 0 $237 0.059999999999999998 $174 $238 forward 7 unknown #
face $-1 $125 $120 $3 $-1 $239 forward single #
point $-1 0 -19 0 #
vertex $-1 $206 $240 #
straight-curve $-1 -1 -19 0 0 0 -1 I I #
plane-surface $-1 -1 -10 -0.029999999999999999 -1 0 0 0 -1 0 forward_v I I I I #
coedge $-1 $127 $225 $241 $242 forward $6 $-1 #
coedge $-1 $137 $139 $127 $188 reversed $82 $-1 #
edge $-1 $243 0 $189 1 $127 $244 forward 7 unknown #
vertex $-1 $129 $245 #
straight-curve $-1 18 -1 0 0 1 0 I I #
point $-1 18 0 0 #
face $-1 $246 $247 $3 $-1 $248 forward single #
loop $-1 $-1 $249 $134 #
plane-surface $-1 18.5 -19 -0.029999999999999999 0 -1 0 1 0 0 forward_v I I I I #
coedge $-1 $250 $241 $251 $252 forward $135 $-1 #
coedge $-1 $139 $137 $253 $254 forward $82 $-1 #
coedge $-1 $241 $250 $137 $198 reversed $135 $-1 #
edge $-1 $243 0 $255 0.059999999999999998 $137 $256 forward 7 unknown #
coedge $-1 $253 $141 $138 $200 reversed $93 $-1 #
edge $-1 $201 0 $143 1 $138 $257 forward 7 unknown #
vertex $-1 $200 $258 #
straight-curve $-1 18 -1 0 0 0 -1 I I #
straight-curve $-1 18 0 -0.059999999999999998 -1 0 0 I I #
point $-1 18 0 -0.059999999999999998 #
coedge $-1 $147 $259 $233 $260 reversed $93 $-1 #
edge $-1 $183 0 $237 1 $179 $261 forward 7 unknown #
straight-curve $-1 -1 -1 -0.059999999999999998 0 -1 0 I I #
coedge $-1 $212 $217 $211 $262 reversed $149 $-1 #
face $-1 $158 $154 $3 $-1 $263 forward single #
plane-surface $-1 0 0 -0.059999999999999998 0 0 1 1 0 0 forward_v I I I I #
coedge $-1 $153 $152 $208 $262 forward $154 $-1 #
coedge $-1 $164 $208 $156 $213 reversed $149 $-1 #
edge $-1 $168 0 $214 15 $156 $264 forward 7 unknown #
vertex $-1 $262 $265 #
straight-curve $-1 1.5 -17.5 0 0 0 -1 I I #
plane-surface $-1 9 -17.5 -0.029999999999999999 0 1 0 -1 0 0 forward_v I I I I #
coedge $-1 $208 $164 $160 $218 reversed $149 $-1 #
edge $-1 $219 0 $166 15 $160 $266 forward 7 unknown #
vertex $-1 $218 $267 #
straight-curve $-1 1.5 -2.5 0 0 0 -1 I I #
plane-surface $-1 9 -2.5 -0.029999999999999999 0 -1 0 1 0 0 forward_v I I I I #
straight-curve $-1 16.5 -2.5 -0.059999999999999998 0 -1 0 I I #
point $-1 16.5 -2.5 -0.059999999999999998 #
point $-1 16.5 -17.5 -0.059999999999999998 #
coedge $-1 $186 $171 $268 $269 forward $6 $-1 #
coedge $-1 $270 $271 $171 $227 reversed $247 $-1 #
edge $-1 $231 0 $272 1 $171 $273 forward 7 unknown #
coedge $-1 $274 $172 $175 $234 forward $230 $-1 #
coedge $-1 $172 $274 $270 $275 reversed $230 $-1 #
loop $-1 $-1 $228 $246 #
vertex $-1 $227 $276 #
straight-curve $-1 0 -20 0 1 0 0 I I #
coedge $-1 $175 $174 $205 $260 forward $176 $-1 #
edge $-1 $177 0 $277 0.059999999999999998 $228 $278 forward 7 unknown #
face $-1 $181 $176 $3 $-1 $279 forward single #
point $-1 0 -20 0 #
vertex $-1 $260 $280 #
straight-curve $-1 0 -19 0 0 0 -1 I I #
plane-surface $-1 -0.5 -19 -0.029999999999999999 0 -1 0 1 0 0 forward_v I I I I #
point $-1 -1 -19 -0.059999999999999998 #
coedge $-1 $195 $197 $186 $242 reversed $135 $-1 #
edge $-1 $281 0 $243 18 $186 $282 forward 7 unknown #
vertex $-1 $188 $283 #
straight-curve $-1 19 -1 0 -1 0 0 I I #
point $-1 18 -1 0 #
face $-1 $235 $230 $3 $-1 $284 forward single #
loop $-1 $-1 $270 $192 #
plane-surface $-1 18 -19.5 -0.029999999999999999 1 0 0 0 1 0 forward_v I I I I #
coedge $-1 $285 $268 $271 $286 forward $193 $-1 #
coedge $-1 $197 $195 $287 $288 forward $135 $-1 #
coedge $-1 $268 $285 $195 $252 reversed $193 $-1 #
edge $-1 $281 0 $289 0.059999999999999998 $195 $290 forward 7 unknown #
coedge $-1 $287 $199 $196 $254 reversed $93 $-1 #
edge $-1 $255 0 $201 1 $196 $291 forward 7 unknown #
vertex $-1 $254 $292 #
straight-curve $-1 19 -1 0 0 0 -1 I I #
straight-curve $-1 18 -1 -0.059999999999999998 0 1 0 I I #
point $-1 18 -1 -0.059999999999999998 #
coedge $-1 $205 $293 $274 $294 reversed $93 $-1 #
edge $-1 $237 0 $277 1 $233 $295 forward 7 unknown #
straight-curve $-1 -1 -19 -0.059999999999999998 1 0 0 I I #
edge $-1 $214 0 $219 15 $211 $296 forward 7 unknown #
plane-surface $-1 1.5 -10 -0.029999999999999999 1 0 0 0 1 0 forward_v I I I I #
straight-curve $-1 16.5 -17.5 -0.059999999999999998 -1 0 0 I I #
point $-1 1.5 -17.5 -0.059999999999999998 #
straight-curve $-1 1.5 -2.5 -0.059999999999999998 1 0 0 I I #
point $-1 1.5 -2.5 -0.059999999999999998 #
coedge $-1 $249 $251 $225 $269 reversed $193 $-1 #
edge $-1 $272 0 $281 1 $225 $297 forward 7 unknown #
coedge $-1 $298 $226 $229 $275 forward $247 $-1 #
coedge $-1 $226 $298 $249 $286 reversed $247 $-1 #
vertex $-1 $269 $299 #
straight-curve $-1 18 -20 0 0 1 0 I I #
coedge $-1 $229 $228 $259 $294 forward $230 $-1 #
edge $-1 $231 0 $300 0.059999999999999998 $270 $301 forward 7 unknown #
point $-1 18 -20 0 #
vertex $-1 $294 $302 #
straight-curve $-1 0 -20 0 0 0 -1 I I #
plane-surface $-1 0 -19.5 -0.029999999999999999 -1 0 0 0 -1 0 forward_v I I I I #
point $-1 0 -19 -0.059999999999999998 #
vertex $-1 $242 $303 #
straight-curve $-1 19 -19 0 0 1 0 I I #
point $-1 19 -1 0 #
plane-surface $-1 9 -20 -0.029999999999999999 0 -1 0 1 0 0 forward_v I I I I #
coedge $-1 $251 $249 $304 $305 forward $193 $-1 #
edge $-1 $272 0 $306 0.059999999999999998 $249 $307 forward 7 unknown #
coedge $-1 $304 $253 $250 $288 reversed $93 $-1 #
edge $-1 $289 0 $255 18 $250 $308 forward 7 unknown #
vertex $-1 $288 $309 #
straight-curve $-1 19 -19 0 0 0 -1 I I #
straight-curve $-1 19 -1 -0.059999999999999998 -1 0 0 I I #
point $-1 19 -1 -0.059999999999999998 #
coedge $-1 $259 $304 $298 $310 reversed $93 $-1 #
edge $-1 $277 0 $300 18 $274 $311 forward 7 unknown #
straight-curve $-1 0 -19 -0.059999999999999998 0 -1 0 I I #
straight-curve $-1 1.5 -17.5 -0.059999999999999998 0 1 0 I I #
straight-curve $-1 18 -19 0 1 0 0 I I #
coedge $-1 $271 $270 $293 $310 forward $247 $-1 #
point $-1 18 -19 0 #
vertex $-1 $310 $312 #
straight-curve $-1 18 -20 0 0 0 -1 I I #
point $-1 0 -20 -0.059999999999999998 #
point $-1 19 -19 0 #
coedge $-1 $293 $287 $285 $305 reversed $93 $-1 #
edge $-1 $306 0 $289 1 $285 $313 forward 7 unknown #
vertex $-1 $305 $314 #
straight-curve $-1 18 -19 0 0 0 -1 I I #
straight-curve $-1 19 -19 -0.059999999999999998 0 1 0 I I #
point $-1 19 -19 -0.059999999999999998 #
edge $-1 $300 0 $306 1 $298 $315 forward 7 unknown #
straight-curve $-1 0 -20 -0.059999999999999998 1 0 0 I I #
point $-1 18 -20 -0.059999999999999998 #
straight-curve $-1 18 -19 -0.059999999999999998 1 0 0 I I #
point $-1 18 -19 -0.059999999999999998 #
straight-curve $-1 18 -20 -0.059999999999999998 0 1 0 I I #
End-of-ACIS-data 