700 0 2 0           
24 FBMach with ACIS - 7.0.3 13 ACIS 7.0.3 NT 24 Tue May 14 14:45:58 2002 
1 9.9999999999999995e-007 1e-010 
body $2 -1 $-1 $3 $-1 $4 #
bdycol-kcp $-1 -1 1 2 $5 $6 #
model_id-kcp-attrib $-1 -1 $-1 $-1 $0 1 1021401958 1021401958 -1544355839 1 #
lump $-1 -1 $-1 $-1 $7 $0 #
transform $-1 -1 1 0 0 0 1 0 0 0 1 0 0 -7.1054273576010019e-015 1 rotate no_reflect no_shear #
body $8 -1 $-1 $9 $-1 $10 #
body $11 -1 $-1 $12 $-1 $13 #
shell $-1 -1 $-1 $-1 $-1 $14 $-1 $3 #
rgb_color-st-attrib $-1 -1 $15 $-1 $5 0.5 1 1 #
lump $-1 -1 $-1 $-1 $16 $5 #
transform $-1 -1 1 0 0 0 1 0 0 0 1 101.59999999999999 2.5399999999999996 63.5 1 no_rotate no_reflect no_shear #
model_id-kcp-attrib $-1 -1 $-1 $-1 $6 1 1021401958 1021401958 -1544355838 1 #
lump $-1 -1 $-1 $-1 $17 $6 #
transform $-1 -1 1 0 0 0 1 0 0 0 1 101.59999999999999 2.5399999999999996 63.5 1 no_rotate no_reflect no_shear #
face $18 -1 $-1 $19 $20 $7 $-1 $21 reversed single #
model_id-kcp-attrib $-1 -1 $-1 $8 $5 1 1021401958 1021401958 -1552613373 1 #
shell $-1 -1 $-1 $-1 $-1 $22 $-1 $9 #
shell $-1 -1 $-1 $-1 $-1 $23 $-1 $12 #
model_id-kcp-attrib $-1 -1 $-1 $-1 $14 1 1021401958 1021401958 -1544355839 2 #
face $24 -1 $-1 $25 $26 $7 $-1 $27 reversed single #
loop $-1 -1 $-1 $-1 $28 $14 #
plane-surface $-1 -1 $-1 0 5.0799999999999992 0 0 -1 0 25.399999999999999 0 0 forward_v I I I I #
face $-1 -1 $-1 $29 $30 $16 $-1 $31 reversed single #
face $32 -1 $-1 $33 $34 $17 $-1 $35 forward single #
model_id-kcp-attrib $-1 -1 $-1 $-1 $19 1 1021401958 1021401958 -1544355839 3 #
face $36 -1 $-1 $37 $38 $7 $-1 $39 forward single #
loop $-1 -1 $-1 $-1 $40 $19 #
plane-surface $-1 -1 $-1 0 2.5399999999999996 63.5 1 0 0 0 0 25.399999999999999 forward_v I I I I #
coedge $-1 -1 $-1 $41 $42 $43 $44 forward $20 $-1 #
face $-1 -1 $-1 $45 $46 $16 $-1 $47 reversed single #
loop $-1 -1 $-1 $-1 $48 $22 #
plane-surface $-1 -1 $-1 -101.59999999999999 2.5399999999999996 -63.499999999999972 0.52936505953979074 0 -0.84839414999069496 0 1 0 forward_v I I I I #
model_id-kcp-attrib $-1 -1 $-1 $-1 $23 1 1021401958 1021401958 -1544355838 6 #
face $-1 -1 $-1 $49 $50 $17 $-1 $51 reversed single #
loop $-1 -1 $-1 $-1 $52 $23 #
plane-surface $-1 -1 $-1 0 0 63.5 0 0 1 1 0 0 forward_v I I I I #
model_id-kcp-attrib $-1 -1 $-1 $-1 $25 1 1021401958 1021401958 -1544355839 4 #
face $53 -1 $-1 $54 $55 $7 $-1 $56 forward single #
loop $-1 -1 $-1 $-1 $57 $25 #
plane-surface $-1 -1 $-1 0 0 0 0 -1 0 25.399999999999999 0 0 forward_v I I I I #
coedge $-1 -1 $-1 $58 $59 $60 $61 forward $26 $-1 #
coedge $-1 -1 $-1 $62 $28 $63 $64 forward $20 $-1 #
coedge $-1 -1 $-1 $28 $62 $65 $66 forward $20 $-1 #
coedge $-1 -1 $-1 $59 $58 $28 $44 reversed $26 $-1 #
edge $67 -1 $-1 $68 0 $69 5 $28 $70 forward @7 unknown #
face $-1 -1 $-1 $71 $72 $16 $-1 $73 reversed single #
loop $-1 -1 $-1 $-1 $74 $29 #
plane-surface $-1 -1 $-1 101.59999999999999 0 0 -1 0 0 0 0 1 forward_v I I I I #
coedge $-1 -1 $-1 $75 $76 $77 $78 reversed $30 $-1 #
face $79 -1 $-1 $80 $81 $17 $-1 $82 reversed single #
loop $-1 -1 $-1 $-1 $83 $33 #
plane-surface $-1 -1 $-1 0 0 -63.5 0 0 1 1 0 0 forward_v I I I I #
coedge $-1 -1 $-1 $84 $85 $86 $87 forward $34 $-1 #
model_id-kcp-attrib $-1 -1 $-1 $-1 $37 1 1021401958 1021401958 -1544355839 5 #
face $88 -1 $-1 $89 $90 $7 $-1 $91 reversed single #
loop $-1 -1 $-1 $-1 $92 $37 #
plane-surface $-1 -1 $-1 203.19999999999999 2.5399999999999996 63.5 1 0 0 0 0 25.399999999999999 forward_v I I I I #
coedge $-1 -1 $-1 $93 $94 $95 $96 forward $38 $-1 #
coedge $-1 -1 $-1 $43 $40 $97 $98 forward $26 $-1 #
coedge $-1 -1 $-1 $40 $43 $99 $100 forward $26 $-1 #
coedge $-1 -1 $-1 $94 $93 $40 $61 reversed $38 $-1 #
edge $101 -1 $-1 $102 0 $103 5 $60 $104 forward @7 unknown #
coedge $-1 -1 $-1 $42 $41 $92 $105 reversed $20 $-1 #
coedge $-1 -1 $-1 $97 $106 $41 $64 reversed $90 $-1 #
edge $107 -1 $-1 $69 0 $108 8 $41 $109 forward @7 unknown #
coedge $-1 -1 $-1 $110 $99 $42 $66 reversed $111 $-1 #
edge $112 -1 $-1 $113 0 $68 9.4295794001971167 $42 $114 forward @7 unknown #
attrib_edge_convexity-kcp-attrib $-1 -1 $115 $-1 $44 1 #
vertex $-1 -1 $-1 $66 $116 #
vertex $-1 -1 $-1 $64 $117 #
straight-curve $-1 -1 $-1 0 5.0799999999999992 0 0 0 25.399999999999999 I I #
face $-1 -1 $-1 $118 $119 $16 $-1 $120 reversed single #
loop $-1 -1 $-1 $-1 $121 $45 #
plane-surface $-1 -1 $-1 0 -2.5399999999999996 0 0 1 0 0 0 1 forward_v I I I I #
coedge $-1 -1 $-1 $122 $123 $76 $124 forward $46 $-1 #
coedge $-1 -1 $-1 $125 $48 $126 $127 reversed $30 $-1 #
coedge $-1 -1 $-1 $48 $125 $74 $124 reversed $30 $-1 #
coedge $-1 -1 $-1 $128 $129 $48 $78 forward $130 $-1 #
edge $-1 -1 $-1 $131 -59.905763459915661 $132 179.60555330509112 $77 $133 forward @7 unknown #
model_id-kcp-attrib $-1 -1 $-1 $-1 $49 1 1021401958 1021401958 -1544355838 4 #
face $134 -1 $-1 $135 $136 $17 $-1 $137 reversed single #
loop $-1 -1 $-1 $-1 $138 $49 #
plane-surface $-1 -1 $-1 0 -2.5399999999999996 0 0 1 0 0 0 1 forward_v I I I I #
coedge $-1 -1 $-1 $139 $140 $141 $142 forward $50 $-1 #
coedge $-1 -1 $-1 $143 $52 $144 $145 forward $34 $-1 #
coedge $-1 -1 $-1 $52 $143 $146 $147 forward $34 $-1 #
coedge $-1 -1 $-1 $148 $149 $52 $87 reversed $150 $-1 #
edge $-1 -1 $-1 $151 -2.5399999999999996 $152 2.5399999999999996 $86 $153 forward @7 unknown #
model_id-kcp-attrib $-1 -1 $-1 $-1 $54 1 1021401958 1021401958 -1544355839 6 #
face $154 -1 $-1 $-1 $111 $7 $-1 $155 forward single #
loop $-1 -1 $-1 $-1 $106 $54 #
plane-surface $-1 -1 $-1 101.59999999999999 2.5399999999999996 127 0 0 -1 25.399999999999999 0 0 forward_v I I I I #
coedge $-1 -1 $-1 $156 $157 $62 $105 forward $55 $-1 #
coedge $-1 -1 $-1 $60 $57 $158 $159 reversed $38 $-1 #
coedge $-1 -1 $-1 $57 $60 $160 $161 reversed $38 $-1 #
coedge $-1 -1 $-1 $157 $156 $57 $96 reversed $55 $-1 #
edge $162 -1 $-1 $163 0 $164 0.0083101393794687371 $57 $165 forward @7 unknown #
coedge $-1 -1 $-1 $158 $63 $58 $98 reversed $90 $-1 #
edge $166 -1 $-1 $103 0 $69 0.19999999999999998 $97 $167 forward @7 unknown #
coedge $-1 -1 $-1 $65 $160 $59 $100 reversed $111 $-1 #
edge $168 -1 $-1 $68 0 $102 0.19999999999999998 $59 $169 forward @7 unknown #
model_id-kcp-attrib $-1 -1 $170 $-1 $61 1 1021401958 1021401958 -1544355839 9 #
vertex $-1 -1 $-1 $161 $171 #
vertex $-1 -1 $-1 $159 $172 #
straight-curve $-1 -1 $-1 0 0 0 0 0 25.399999999999999 I I #
edge $173 -1 $-1 $113 0 $108 0.0083101393794687371 $62 $174 forward @7 unknown #
coedge $-1 -1 $-1 $63 $158 $156 $175 forward $90 $-1 #
attrib_edge_convexity-kcp-attrib $-1 -1 $176 $-1 $64 1 #
vertex $-1 -1 $-1 $105 $177 #
straight-curve $-1 -1 $-1 0 5.0799999999999992 127 25.399999999999999 0 0 I I #
coedge $-1 -1 $-1 $160 $65 $157 $178 forward $111 $-1 #
loop $-1 -1 $-1 $-1 $110 $89 #
attrib_edge_convexity-kcp-attrib $-1 -1 $179 $-1 $66 1 #
vertex $-1 -1 $-1 $66 $180 #
straight-curve $-1 -1 $-1 203.19999999999999 5.0799999999999992 126.78892245976149 -21.54921140976365 0 -13.445872512310684 I I #
convexity-sys-attrib $-1 -1 $-1 $67 $44 #
point $-1 -1 $-1 0 5.0799999999999992 0 #
point $-1 -1 $-1 0 5.0799999999999992 127 #
face $-1 -1 $-1 $-1 $130 $16 $-1 $181 reversed single #
loop $-1 -1 $-1 $-1 $182 $71 #
plane-surface $-1 -1 $-1 0 0 -63.5 0 0 1 1 0 0 forward_v I I I I #
coedge $-1 -1 $-1 $183 $184 $125 $185 forward $72 $-1 #
coedge $-1 -1 $-1 $186 $74 $184 $187 forward $46 $-1 #
coedge $-1 -1 $-1 $74 $186 $128 $188 reversed $46 $-1 #
edge $-1 -1 $-1 $132 -1.2699999999999998 $189 3.8099999999999996 $74 $190 forward @7 unknown #
coedge $-1 -1 $-1 $76 $75 $121 $185 reversed $30 $-1 #
coedge $-1 -1 $-1 $191 $192 $75 $127 forward $119 $-1 #
edge $-1 -1 $-1 $193 -2.5399999999999996 $131 2.5399999999999996 $126 $194 forward @7 unknown #
coedge $-1 -1 $-1 $129 $77 $123 $188 forward $130 $-1 #
coedge $-1 -1 $-1 $77 $128 $191 $195 reversed $130 $-1 #
loop $-1 -1 $-1 $-1 $77 $118 #
vertex $-1 -1 $-1 $195 $196 #
vertex $-1 -1 $-1 $188 $197 #
straight-curve $-1 -1 $-1 -50.776300729881221 2.5399999999999996 -31.787981959265103 0.84839414999069496 0 0.52936505953979074 I I #
model_id-kcp-attrib $-1 -1 $-1 $-1 $80 1 1021401958 1021401958 -1544355838 3 #
face $198 -1 $-1 $199 $200 $17 $-1 $201 reversed single #
loop $-1 -1 $-1 $-1 $202 $80 #
plane-surface $-1 -1 $-1 -101.59999999999999 0 0 1 0 0 0 0 -1 forward_v I I I I #
coedge $-1 -1 $-1 $203 $146 $204 $205 forward $81 $-1 #
coedge $-1 -1 $-1 $206 $83 $203 $207 forward $50 $-1 #
coedge $-1 -1 $-1 $83 $206 $208 $209 forward $50 $-1 #
coedge $-1 -1 $-1 $149 $148 $83 $142 reversed $150 $-1 #
edge $-1 -1 $-1 $210 -2.5399999999999996 $211 2.5399999999999996 $141 $212 forward @7 unknown #
coedge $-1 -1 $-1 $85 $84 $213 $214 forward $34 $-1 #
coedge $-1 -1 $-1 $215 $216 $84 $145 reversed $200 $-1 #
edge $-1 -1 $-1 $152 -101.59999999999999 $217 101.59999999999999 $144 $218 forward @7 unknown #
coedge $-1 -1 $-1 $138 $219 $85 $147 reversed $81 $-1 #
edge $-1 -1 $-1 $220 -101.59999999999999 $151 101.59999999999999 $146 $221 forward @7 unknown #
coedge $-1 -1 $-1 $141 $86 $219 $222 forward $150 $-1 #
coedge $-1 -1 $-1 $86 $141 $215 $223 reversed $150 $-1 #
loop $-1 -1 $-1 $-1 $148 $199 #
vertex $-1 -1 $-1 $87 $224 #
vertex $-1 -1 $-1 $87 $225 #
straight-curve $-1 -1 $-1 101.59999999999999 0 63.5 0 1 0 I I #
model_id-kcp-attrib $-1 -1 $-1 $-1 $89 1 1021401958 1021401958 -1544355839 7 #
plane-surface $-1 -1 $-1 101.59999999999999 2.5399999999999996 63.394461229880747 0.52936505953979074 0 -0.84839414999069496 -21.54921140976365 0 -13.445872512310684 forward_v I I I I #
coedge $-1 -1 $-1 $95 $92 $106 $175 reversed $55 $-1 #
coedge $-1 -1 $-1 $92 $95 $110 $178 reversed $55 $-1 #
coedge $-1 -1 $-1 $106 $97 $93 $159 forward $90 $-1 #
edge $226 -1 $-1 $103 0 $164 8 $158 $227 forward @7 unknown #
coedge $-1 -1 $-1 $99 $110 $94 $161 forward $111 $-1 #
edge $228 -1 $-1 $163 0 $102 9.4295794001971167 $94 $229 forward @7 unknown #
model_id-kcp-attrib $-1 -1 $-1 $-1 $96 1 1021401958 1021401958 -1544355839 11 #
vertex $-1 -1 $-1 $161 $230 #
vertex $-1 -1 $-1 $159 $231 #
straight-curve $-1 -1 $-1 203.19999999999999 0 126.78892245976149 0 0 25.399999999999999 I I #
attrib_edge_convexity-kcp-attrib $-1 -1 $232 $-1 $98 1 #
straight-curve $-1 -1 $-1 0 0 127 0 25.399999999999999 0 I I #
attrib_edge_convexity-kcp-attrib $-1 -1 $233 $-1 $100 1 #
straight-curve $-1 -1 $-1 0 5.0799999999999992 0 0 -25.399999999999999 0 I I #
attrib_edge_convexity-kcp-attrib $-1 -1 $234 $101 $61 1 #
point $-1 -1 $-1 0 0 0 #
point $-1 -1 $-1 0 0 127 #
attrib_edge_convexity-kcp-attrib $-1 -1 $235 $-1 $105 1 #
straight-curve $-1 -1 $-1 203.19999999999999 5.0799999999999992 126.78892245976149 0 0 25.399999999999999 I I #
edge $236 -1 $-1 $164 0 $108 0.19999999999999998 $106 $237 forward @7 unknown #
convexity-sys-attrib $-1 -1 $-1 $107 $64 #
point $-1 -1 $-1 203.19999999999999 5.0799999999999992 127 #
edge $238 -1 $-1 $113 0 $163 0.19999999999999998 $157 $239 forward @7 unknown #
convexity-sys-attrib $-1 -1 $-1 $112 $66 #
point $-1 -1 $-1 203.19999999999999 5.0799999999999992 126.78892245976149 #
plane-surface $-1 -1 $-1 0 2.5399999999999996 0 0 -1 0 0 0 -1 forward_v I I I I #
coedge $-1 -1 $-1 $192 $191 $186 $240 forward $119 $-1 #
coedge $-1 -1 $-1 $184 $121 $192 $241 reversed $72 $-1 #
coedge $-1 -1 $-1 $121 $183 $122 $187 reversed $72 $-1 #
edge $-1 -1 $-1 $189 -179.60555330509112 $193 59.905763459915661 $121 $242 forward @7 unknown #
coedge $-1 -1 $-1 $123 $122 $182 $240 reversed $46 $-1 #
edge $-1 -1 $-1 $189 -63.288922459761494 $243 63.5 $122 $244 forward @7 unknown #
edge $-1 -1 $-1 $132 -63.288922459761494 $245 63.5 $123 $246 forward @7 unknown #
vertex $-1 -1 $-1 $187 $247 #
straight-curve $-1 -1 $-1 101.60000000000001 1.2699999999999998 63.288922459761508 0 -1 0 I I #
coedge $-1 -1 $-1 $182 $126 $129 $195 forward $119 $-1 #
coedge $-1 -1 $-1 $126 $182 $183 $241 forward $119 $-1 #
vertex $-1 -1 $-1 $127 $248 #
straight-curve $-1 -1 $-1 -101.59999999999999 0 -63.5 0 1 0 I I #
edge $-1 -1 $-1 $131 -101.59999999999999 $245 101.59999999999999 $129 $249 forward @7 unknown #
point $-1 -1 $-1 -101.59999999999999 2.5399999999999996 -63.5 #
point $-1 -1 $-1 101.59999999999999 2.5399999999999996 63.288922459761494 #
model_id-kcp-attrib $-1 -1 $-1 $-1 $135 1 1021401958 1021401958 -1544355838 2 #
face $250 -1 $-1 $-1 $150 $17 $-1 $251 reversed single #
loop $-1 -1 $-1 $-1 $215 $135 #
plane-surface $-1 -1 $-1 0 2.5399999999999996 0 0 -1 0 0 0 -1 forward_v I I I I #
coedge $-1 -1 $-1 $252 $213 $216 $253 forward $136 $-1 #
coedge $-1 -1 $-1 $219 $138 $139 $207 reversed $81 $-1 #
coedge $-1 -1 $-1 $213 $252 $138 $205 reversed $136 $-1 #
edge $-1 -1 $-1 $220 -63.5 $254 63.5 $204 $255 forward @7 unknown #
coedge $-1 -1 $-1 $140 $139 $252 $256 forward $50 $-1 #
edge $-1 -1 $-1 $211 -101.59999999999999 $254 101.59999999999999 $203 $257 forward @7 unknown #
coedge $-1 -1 $-1 $216 $215 $140 $209 reversed $200 $-1 #
edge $-1 -1 $-1 $258 -101.59999999999999 $210 101.59999999999999 $208 $259 forward @7 unknown #
vertex $-1 -1 $-1 $142 $260 #
vertex $-1 -1 $-1 $222 $261 #
straight-curve $-1 -1 $-1 101.59999999999999 0 -63.5 0 -1 0 I I #
coedge $-1 -1 $-1 $202 $204 $143 $214 reversed $136 $-1 #
edge $-1 -1 $-1 $217 -2.5399999999999996 $220 2.5399999999999996 $213 $262 forward @7 unknown #
coedge $-1 -1 $-1 $208 $144 $149 $223 forward $200 $-1 #
coedge $-1 -1 $-1 $144 $208 $202 $253 reversed $200 $-1 #
vertex $-1 -1 $-1 $145 $263 #
straight-curve $-1 -1 $-1 0 2.5399999999999996 63.5 -1 0 0 I I #
coedge $-1 -1 $-1 $146 $203 $148 $222 reversed $81 $-1 #
vertex $-1 -1 $-1 $214 $264 #
straight-curve $-1 -1 $-1 0 -2.5399999999999996 63.5 1 0 0 I I #
edge $-1 -1 $-1 $151 -63.5 $211 63.5 $148 $265 forward @7 unknown #
edge $-1 -1 $-1 $152 -63.5 $210 63.5 $149 $266 forward @7 unknown #
point $-1 -1 $-1 101.59999999999999 -2.5399999999999996 63.5 #
point $-1 -1 $-1 101.59999999999999 2.5399999999999996 63.5 #
model_id-kcp-attrib $-1 -1 $267 $-1 $159 1 1021401958 1021401958 -1544355839 10 #
straight-curve $-1 -1 $-1 0 0 127 25.399999999999999 0 0 I I #
attrib_edge_convexity-kcp-attrib $-1 -1 $268 $-1 $161 1 #
straight-curve $-1 -1 $-1 203.19999999999999 0 126.78892245976149 -21.54921140976365 0 -13.445872512310684 I I #
point $-1 -1 $-1 203.19999999999999 0 126.78892245976149 #
point $-1 -1 $-1 203.19999999999999 0 127 #
convexity-sys-attrib $-1 -1 $-1 $166 $98 #
convexity-sys-attrib $-1 -1 $-1 $168 $100 #
convexity-sys-attrib $-1 -1 $-1 $170 $61 #
convexity-sys-attrib $-1 -1 $-1 $173 $105 #
attrib_edge_convexity-kcp-attrib $-1 -1 $269 $-1 $175 1 #
straight-curve $-1 -1 $-1 203.19999999999999 0 127 0 25.399999999999999 0 I I #
attrib_edge_convexity-kcp-attrib $-1 -1 $270 $-1 $178 1 #
straight-curve $-1 -1 $-1 203.19999999999999 5.0799999999999992 126.78892245976149 0 -25.399999999999999 0 I I #
edge $-1 -1 $-1 $245 -2.5399999999999996 $243 2.5399999999999996 $186 $271 forward @7 unknown #
edge $-1 -1 $-1 $243 -101.59999999999999 $193 101.59999999999999 $183 $272 forward @7 unknown #
straight-curve $-1 -1 $-1 -50.776300729881221 -2.5399999999999996 -31.787981959265103 -0.84839414999069496 0 -0.52936505953979074 I I #
vertex $-1 -1 $-1 $187 $273 #
straight-curve $-1 -1 $-1 101.59999999999999 -2.5399999999999996 0 0 0 -1 I I #
vertex $-1 -1 $-1 $240 $274 #
straight-curve $-1 -1 $-1 101.59999999999999 2.5399999999999996 0 0 0 -1 I I #
point $-1 -1 $-1 101.59999999999999 -2.5399999999999996 63.288922459761494 #
point $-1 -1 $-1 -101.59999999999999 -2.5399999999999996 -63.5 #
straight-curve $-1 -1 $-1 0 2.5399999999999996 -63.5 1 0 0 I I #
model_id-kcp-attrib $-1 -1 $-1 $-1 $199 1 1021401958 1021401958 -1544355838 5 #
plane-surface $-1 -1 $-1 101.59999999999999 0 0 -1 0 0 0 0 1 forward_v I I I I #
coedge $-1 -1 $-1 $204 $202 $206 $256 reversed $136 $-1 #
edge $-1 -1 $-1 $217 -63.5 $258 63.5 $216 $275 forward @7 unknown #
vertex $-1 -1 $-1 $256 $276 #
straight-curve $-1 -1 $-1 -101.59999999999999 -2.5399999999999996 0 0 0 -1 I I #
edge $-1 -1 $-1 $254 -2.5399999999999996 $258 2.5399999999999996 $252 $277 forward @7 unknown #
straight-curve $-1 -1 $-1 0 -2.5399999999999996 -63.5 -1 0 0 I I #
vertex $-1 -1 $-1 $209 $278 #
straight-curve $-1 -1 $-1 0 2.5399999999999996 -63.5 1 0 0 I I #
point $-1 -1 $-1 101.59999999999999 2.5399999999999996 -63.5 #
point $-1 -1 $-1 101.59999999999999 -2.5399999999999996 -63.5 #
straight-curve $-1 -1 $-1 -101.59999999999999 0 63.5 0 -1 0 I I #
point $-1 -1 $-1 -101.59999999999999 2.5399999999999996 63.5 #
point $-1 -1 $-1 -101.59999999999999 -2.5399999999999996 63.5 #
straight-curve $-1 -1 $-1 101.59999999999999 -2.5399999999999996 0 0 0 -1 I I #
straight-curve $-1 -1 $-1 101.59999999999999 2.5399999999999996 0 0 0 -1 I I #
attrib_edge_convexity-kcp-attrib $-1 -1 $279 $226 $159 1 #
convexity-sys-attrib $-1 -1 $-1 $228 $161 #
convexity-sys-attrib $-1 -1 $-1 $236 $175 #
convexity-sys-attrib $-1 -1 $-1 $238 $178 #
straight-curve $-1 -1 $-1 101.59999999999999 0 -63.5 0 -1 0 I I #
straight-curve $-1 -1 $-1 0 -2.5399999999999996 -63.5 -1 0 0 I I #
point $-1 -1 $-1 101.59999999999999 -2.5399999999999996 -63.5 #
point $-1 -1 $-1 101.59999999999999 2.5399999999999996 -63.5 #
straight-curve $-1 -1 $-1 -101.59999999999999 2.5399999999999996 0 0 0 -1 I I #
point $-1 -1 $-1 -101.59999999999999 -2.5399999999999996 -63.5 #
straight-curve $-1 -1 $-1 -101.59999999999999 0 -63.5 0 1 0 I I #
point $-1 -1 $-1 -101.59999999999999 2.5399999999999996 -63.5 #
convexity-sys-attrib $-1 -1 $-1 $267 $159 #
End-of-ACIS-data 