600 0 1 0           
117 GICL Pro/E ACIS Translator - Source: f:/data5/repository/PTC/V20/web_demos/models/shtmtl_auto/part_grain_22.prt - 6 0 13 ACIS 6.0.3 NT 24 Thu Apr 04 13:09:00 2002 
1 9.9999999999999995e-007 1e-010 
body $-1 $1 $-1 $2 #
lump $-1 $-1 $3 $0 #
transform $-1 1 0 0 0 1 0 0 0 1 0 0 0 25.399999999999999 no_rotate no_reflect no_shear #
shell $-1 $-1 $-1 $4 $-1 $1 #
face $-1 $5 $6 $3 $-1 $7 reversed single #
face $-1 $8 $9 $3 $-1 $10 forward single #
loop $-1 $-1 $11 $4 #
plane-surface $-1 0 0.19999999999999998 0 0 -1 0 1 0 0 forward_v I I I I #
face $-1 $12 $13 $3 $-1 $14 forward single #
loop $-1 $-1 $15 $5 #
plane-surface $-1 0.60076957872415993 0.099999999999999992 4.4753250353688561 -1 0 0 0 0 1 forward_v I I I I #
coedge $-1 $16 $17 $18 $19 forward $6 $-1 #
face $-1 $20 $21 $3 $-1 $22 reversed single #
loop $-1 $-1 $23 $8 #
plane-surface $-1 1.790636966171903 0.099999999999999992 2.0925929245746171 -0.6041340352305663 0 -0.79688271877110806 -0.79688271877110783 0 0.60413403523056619 forward_v I I I I #
coedge $-1 $24 $18 $25 $26 forward $9 $-1 #
coedge $-1 $27 $11 $28 $29 forward $6 $-1 #
coedge $-1 $11 $30 $31 $32 forward $6 $-1 #
coedge $-1 $15 $33 $11 $19 reversed $9 $-1 #
edge $-1 $34 0 $35 2.9613357865369663 $11 $36 forward 7 unknown #
face $-1 $37 $38 $3 $-1 $39 forward single #
loop $-1 $-1 $40 $12 #
plane-surface $-1 2.9906475009956255 0.099999999999999992 1.1905287070488608 0 0 1 1 0 0 forward_v I I I I #
coedge $-1 $41 $31 $42 $43 forward $13 $-1 #
coedge $-1 $33 $15 $44 $45 forward $9 $-1 #
coedge $-1 $31 $41 $15 $26 reversed $13 $-1 #
edge $-1 $34 0 $46 0.19999999999999998 $25 $47 forward 7 unknown #
coedge $-1 $48 $16 $49 $50 forward $6 $-1 #
coedge $-1 $51 $52 $16 $29 reversed $53 $-1 #
edge $-1 $35 8.7631430231525136e-017 $54 3.0041315002018312 $16 $55 forward 7 unknown #
coedge $-1 $17 $56 $40 $57 reversed $6 $-1 #
coedge $-1 $23 $25 $17 $32 reversed $13 $-1 #
edge $-1 $58 0 $34 2.9863049089147435 $17 $59 forward 7 unknown #
coedge $-1 $18 $24 $51 $60 reversed $9 $-1 #
vertex $-1 $32 $61 #
vertex $-1 $29 $62 #
straight-curve $-1 0.60076957872415993 0.19999999999999998 2.9946571421003734 0 0 1 I I #
face $-1 $63 $64 $3 $-1 $65 forward single #
loop $-1 $-1 $66 $20 #
plane-surface $-1 5.981295001991251 0.099999999999999992 0.5952643535244303 -1 0 0 0 0 1 forward_v I I I I #
coedge $-1 $67 $42 $30 $57 forward $21 $-1 #
coedge $-1 $25 $23 $68 $69 forward $13 $-1 #
coedge $-1 $40 $70 $23 $43 reversed $21 $-1 #
edge $-1 $58 0 $71 0.19999999999999998 $42 $72 forward 7 unknown #
coedge $-1 $68 $73 $24 $45 reversed $74 $-1 #
edge $-1 $46 0 $75 2.9613357865369663 $44 $76 forward 7 unknown #
vertex $-1 $69 $77 #
straight-curve $-1 0.60076957872415993 0.19999999999999998 2.9946571421003729 0 -1 0 I I #
coedge $-1 $78 $27 $79 $80 reversed $6 $-1 #
coedge $-1 $81 $82 $27 $50 reversed $83 $-1 #
edge $-1 $54 0 $84 3.0093231141171204 $27 $85 forward 7 unknown #
coedge $-1 $86 $28 $33 $60 forward $53 $-1 #
coedge $-1 $28 $86 $81 $87 reversed $53 $-1 #
loop $-1 $-1 $51 $88 #
vertex $-1 $50 $89 #
straight-curve $-1 0.60076957872415981 0.19999999999999998 5.9559929286373396 0.78931375307328044 0 0.61399006442235893 I I #
coedge $-1 $30 $90 $91 $92 forward $6 $-1 #
edge $-1 $58 0 $93 3.0007906483716047 $30 $94 forward 7 unknown #
vertex $-1 $32 $95 #
straight-curve $-1 2.9805043536196463 0.19999999999999998 1.1905287070488608 -0.79688271877110795 0 0.6041340352305663 I I #
edge $-1 $35 0 $75 0.19999999999999998 $51 $96 forward 7 unknown #
point $-1 0.60076957872415993 0.19999999999999998 2.9946571421003734 #
point $-1 0.60076957872415993 0.19999999999999998 5.9559929286373396 #
face $-1 $97 $98 $3 $-1 $99 forward single #
loop $-1 $-1 $100 $37 #
plane-surface $-1 4.5 0.099999999999999992 0 0 0 -1 1 0 0 forward_v I I I I #
coedge $-1 $101 $91 $102 $103 forward $38 $-1 #
coedge $-1 $70 $40 $104 $105 forward $21 $-1 #
coedge $-1 $106 $44 $41 $69 reversed $74 $-1 #
edge $-1 $71 0 $46 2.9863049089147435 $68 $107 forward 7 unknown #
coedge $-1 $42 $67 $106 $108 reversed $21 $-1 #
vertex $-1 $69 $109 #
straight-curve $-1 2.9805043536196463 0.19999999999999998 1.1905287070488608 0 -1 0 I I #
coedge $-1 $44 $110 $86 $111 reversed $74 $-1 #
loop $-1 $-1 $106 $112 #
vertex $-1 $45 $113 #
straight-curve $-1 0.60076957872415993 0 2.9946571421003734 0 0 1 I I #
point $-1 0.60076957872415993 0 2.9946571421003734 #
coedge $-1 $114 $48 $115 $116 forward $6 $-1 #
coedge $-1 $117 $118 $48 $80 forward $119 $-1 #
edge $-1 $120 0 $84 1.1995001780205001 $48 $121 forward 7 unknown #
coedge $-1 $122 $49 $52 $87 forward $83 $-1 #
coedge $-1 $49 $122 $117 $123 reversed $83 $-1 #
loop $-1 $-1 $122 $124 #
vertex $-1 $80 $125 #
straight-curve $-1 2.9719718878741315 0.19999999999999998 7.8004998219794999 1 0 0 I I #
coedge $-1 $52 $51 $73 $111 forward $53 $-1 #
edge $-1 $54 0 $126 0.19999999999999998 $81 $127 forward 7 unknown #
face $-1 $-1 $53 $3 $-1 $128 forward single #
point $-1 2.9719718878741315 0.19999999999999998 7.8004998219794999 #
coedge $-1 $56 $129 $100 $130 reversed $6 $-1 #
coedge $-1 $66 $104 $56 $92 reversed $38 $-1 #
edge $-1 $131 0 $93 1.1905287070488606 $56 $132 forward 7 unknown #
vertex $-1 $57 $133 #
straight-curve $-1 2.9805043536196463 0.19999999999999998 1.1905287070488608 1 0 0 I I #
point $-1 2.9805043536196463 0.19999999999999998 1.1905287070488608 #
straight-curve $-1 0.60076957872415981 0.19999999999999998 5.9559929286373396 0 -1 0 I I #
face $-1 $134 $135 $3 $-1 $136 forward single #
loop $-1 $-1 $137 $63 #
plane-surface $-1 7.4893814657682816 0.099999999999999992 1.1982273022588625 0.62492531916067529 0 -0.78068453646266645 -0.78068453646266633 0 -0.62492531916067517 forward_v I I I I #
coedge $-1 $138 $102 $90 $130 forward $64 $-1 #
coedge $-1 $104 $66 $139 $140 forward $38 $-1 #
coedge $-1 $100 $141 $66 $103 reversed $64 $-1 #
edge $-1 $131 0 $142 0.19999999999999998 $66 $143 forward 7 unknown #
coedge $-1 $91 $101 $67 $105 reversed $38 $-1 #
edge $-1 $93 0 $144 0.19999999999999998 $104 $145 forward 7 unknown #
coedge $-1 $139 $68 $70 $108 forward $74 $-1 #
straight-curve $-1 2.9805043536196463 0 1.1905287070488608 -0.79688271877110795 0 0.6041340352305663 I I #
edge $-1 $71 0 $144 3.0007906483716047 $106 $146 forward 7 unknown #
point $-1 2.9805043536196463 0 1.1905287070488608 #
coedge $-1 $73 $147 $122 $148 reversed $74 $-1 #
edge $-1 $75 8.7631430231525136e-017 $126 3.0041315002018312 $73 $149 forward 7 unknown #
face $-1 $88 $74 $3 $-1 $150 forward single #
point $-1 0.60076957872415993 0 5.9559929286373396 #
coedge $-1 $151 $78 $152 $153 forward $6 $-1 #
coedge $-1 $154 $155 $78 $116 reversed $156 $-1 #
edge $-1 $120 8.1979885984830761e-016 $157 3.2556100297361437 $78 $158 forward 7 unknown #
coedge $-1 $159 $79 $82 $123 forward $119 $-1 #
coedge $-1 $79 $159 $154 $160 reversed $119 $-1 #
loop $-1 $-1 $117 $161 #
vertex $-1 $116 $162 #
straight-curve $-1 5.9812950019912519 0.19999999999999998 9 0 0 -1 I I #
coedge $-1 $82 $81 $110 $148 forward $83 $-1 #
edge $-1 $84 0 $163 0.19999999999999998 $117 $164 forward 7 unknown #
face $-1 $112 $83 $3 $-1 $165 forward single #
point $-1 5.9812950019912519 0.19999999999999998 7.8004998219794999 #
vertex $-1 $111 $166 #
straight-curve $-1 2.9719718878741315 0.19999999999999998 7.8004998219794999 0 -1 0 I I #
plane-surface $-1 1.7863707332991456 0.099999999999999992 6.8782463753084198 -0.61399006442235893 0 0.78931375307328044 0.78931375307328044 0 0.61399006442235893 forward_v I I I I #
coedge $-1 $90 $167 $168 $169 forward $6 $-1 #
edge $-1 $131 0 $170 0.011207561035116775 $90 $171 forward 7 unknown #
vertex $-1 $92 $172 #
straight-curve $-1 5.981295001991251 0.19999999999999998 0 0 0 1 I I #
point $-1 5.981295001991251 0.19999999999999998 1.1905287070488606 #
face $-1 $173 $174 $3 $-1 $175 forward single #
loop $-1 $-1 $176 $97 #
plane-surface $-1 7.4837776852507227 0.099999999999999992 3.022789142073381 0.38477245851611958 0 0.92301145993289868 0.92301145993289857 0 -0.38477245851611952 forward_v I I I I #
coedge $-1 $177 $168 $178 $179 forward $98 $-1 #
coedge $-1 $141 $100 $180 $181 forward $64 $-1 #
coedge $-1 $182 $106 $101 $140 reversed $74 $-1 #
edge $-1 $142 0 $144 1.1905287070488606 $101 $183 forward 7 unknown #
coedge $-1 $102 $138 $182 $184 reversed $64 $-1 #
vertex $-1 $140 $185 #
straight-curve $-1 5.981295001991251 0.19999999999999998 0 0 -1 0 I I #
vertex $-1 $105 $186 #
straight-curve $-1 5.981295001991251 0.19999999999999998 1.1905287070488608 0 -1 0 I I #
straight-curve $-1 2.9805043536196463 0 1.1905287070488608 1 0 0 I I #
coedge $-1 $110 $187 $159 $188 forward $74 $-1 #
edge $-1 $126 0 $163 3.0093231141171204 $110 $189 forward 7 unknown #
straight-curve $-1 0.60076957872415981 0 5.9559929286373396 0.78931375307328044 0 0.61399006442235893 I I #
plane-surface $-1 0 0 0 0 -1 0 1 0 0 forward_v I I I I #
coedge $-1 $190 $114 $191 $192 forward $6 $-1 #
coedge $-1 $193 $194 $114 $153 reversed $195 $-1 #
edge $-1 $157 0 $196 3.8491416521898114 $114 $197 forward 7 unknown #
coedge $-1 $198 $115 $118 $160 forward $156 $-1 #
coedge $-1 $115 $198 $193 $199 reversed $156 $-1 #
loop $-1 $-1 $154 $200 #
vertex $-1 $153 $201 #
straight-curve $-1 5.981295001991251 0.19999999999999998 9 0.92301145993289868 0 -0.38477245851611952 I I #
coedge $-1 $118 $117 $147 $188 reversed $119 $-1 #
edge $-1 $120 0 $202 0.19999999999999998 $154 $203 forward 7 unknown #
face $-1 $124 $119 $3 $-1 $204 reversed single #
point $-1 5.9812950019912519 0.19999999999999998 9 #
vertex $-1 $188 $205 #
straight-curve $-1 5.9812950019912519 0.19999999999999998 7.8004998219794999 0 -1 0 I I #
plane-surface $-1 3.6132684902767336 0.099999999999999992 7.8004998219794999 0 0 1 1 0 0 forward_v I I I I #
point $-1 2.9719718878741315 0 7.8004998219794999 #
coedge $-1 $129 $206 $207 $208 forward $6 $-1 #
coedge $-1 $137 $180 $129 $169 reversed $98 $-1 #
edge $-1 $209 0 $170 3.8347855832379398 $129 $210 forward 7 unknown #
vertex $-1 $130 $211 #
straight-curve $-1 5.9812950019912519 0.19999999999999998 0 1 0 0 I I #
point $-1 5.9812950019912519 0.19999999999999998 0 #
face $-1 $212 $213 $3 $-1 $214 forward single #
loop $-1 $-1 $215 $134 #
plane-surface $-1 5.981295001991251 0.099999999999999992 3.0493735906187869 -1 0 0 0 0 1 forward_v I I I I #
coedge $-1 $216 $207 $217 $218 forward $135 $-1 #
coedge $-1 $180 $137 $219 $220 forward $98 $-1 #
coedge $-1 $207 $216 $137 $179 reversed $135 $-1 #
edge $-1 $209 0 $221 0.19999999999999998 $137 $222 forward 7 unknown #
coedge $-1 $168 $177 $138 $181 reversed $98 $-1 #
edge $-1 $170 0 $223 0.19999999999999998 $138 $224 forward 7 unknown #
coedge $-1 $219 $139 $141 $184 forward $74 $-1 #
straight-curve $-1 5.981295001991251 0 0 0 0 1 I I #
edge $-1 $142 0 $223 0.011207561035116775 $141 $225 forward 7 unknown #
point $-1 5.9812950019912519 0 0 #
point $-1 5.981295001991251 0 1.1905287070488606 #
coedge $-1 $147 $226 $198 $227 reversed $74 $-1 #
edge $-1 $202 0 $163 1.1995001780205001 $159 $228 forward 7 unknown #
straight-curve $-1 2.9719718878741315 0 7.8004998219794999 1 0 0 I I #
coedge $-1 $229 $151 $230 $231 forward $6 $-1 #
coedge $-1 $232 $233 $151 $192 reversed $234 $-1 #
edge $-1 $196 0 $235 1.1995001780205001 $151 $236 forward 7 unknown #
coedge $-1 $237 $152 $155 $199 forward $195 $-1 #
coedge $-1 $152 $237 $232 $238 reversed $195 $-1 #
loop $-1 $-1 $193 $239 #
vertex $-1 $192 $240 #
straight-curve $-1 8.9862603685101963 0.19999999999999998 7.7473309248886881 -0.78068453646266667 0 -0.62492531916067473 I I #
coedge $-1 $155 $154 $187 $227 forward $156 $-1 #
edge $-1 $157 0 $241 0.19999999999999998 $193 $242 forward 7 unknown #
face $-1 $161 $156 $3 $-1 $243 forward single #
point $-1 8.9862603685101963 0.19999999999999998 7.7473309248886881 #
vertex $-1 $227 $244 #
straight-curve $-1 5.981295001991251 0.19999999999999998 9 0 -1 0 I I #
plane-surface $-1 5.9812950019912519 0.099999999999999992 8.4002499109897499 1 0 0 0 0 -1 forward_v I I I I #
point $-1 5.9812950019912519 0 7.8004998219794999 #
coedge $-1 $167 $245 $246 $247 forward $6 $-1 #
coedge $-1 $176 $178 $167 $208 reversed $135 $-1 #
edge $-1 $248 -1.7087329707448951e-016 $209 3.2556100297361414 $167 $249 forward 7 unknown #
vertex $-1 $169 $250 #
straight-curve $-1 8.9862603685101945 0.19999999999999998 2.3964546045177251 -0.78068453646266633 0 -0.62492531916067517 I I #
point $-1 5.9925025630263686 0.19999999999999998 0 #
face $-1 $251 $252 $3 $-1 $253 forward single #
loop $-1 $-1 $254 $173 #
plane-surface $-1 4.1949533886944277 0.099999999999999992 2.4496235016085368 0 0 1 1 0 0 forward_v I I I I #
coedge $-1 $255 $246 $256 $257 forward $174 $-1 #
coedge $-1 $178 $176 $258 $259 forward $135 $-1 #
coedge $-1 $246 $255 $176 $218 reversed $174 $-1 #
edge $-1 $248 0 $260 0.19999999999999998 $176 $261 forward 7 unknown #
coedge $-1 $258 $182 $177 $220 reversed $74 $-1 #
edge $-1 $221 0 $223 3.8347855832379398 $177 $262 forward 7 unknown #
vertex $-1 $220 $263 #
straight-curve $-1 8.9862603685101945 0.19999999999999998 2.3964546045177251 0 -1 0 I I #
vertex $-1 $184 $264 #
straight-curve $-1 5.9925025630263686 0.19999999999999998 0 0 -1 0 I I #
straight-curve $-1 5.9812950019912519 0 0 1 0 0 I I #
coedge $-1 $187 $265 $237 $266 reversed $74 $-1 #
edge $-1 $202 8.1979885984830761e-016 $241 3.2556100297361441 $198 $267 forward 7 unknown #
straight-curve $-1 5.9812950019912519 0 9 0 0 -1 I I #
coedge $-1 $245 $190 $268 $269 forward $6 $-1 #
coedge $-1 $270 $271 $190 $231 reversed $272 $-1 #
edge $-1 $235 0 $273 3.5726832265936461 $190 $274 forward 7 unknown #
coedge $-1 $275 $191 $194 $238 forward $234 $-1 #
coedge $-1 $191 $275 $270 $276 reversed $234 $-1 #
loop $-1 $-1 $232 $277 #
vertex $-1 $231 $278 #
straight-curve $-1 5.981295001991251 0.19999999999999998 5.3419048493993238 0 0 1 I I #
coedge $-1 $194 $193 $226 $266 forward $195 $-1 #
edge $-1 $196 0 $279 0.19999999999999998 $232 $280 forward 7 unknown #
face $-1 $200 $195 $3 $-1 $281 forward single #
point $-1 5.981295001991251 0.19999999999999998 5.3419048493993238 #
vertex $-1 $266 $282 #
straight-curve $-1 8.9862603685101963 0.19999999999999998 7.7473309248886881 0 -1 0 I I #
plane-surface $-1 7.4837776852507236 0.099999999999999992 8.3736654624443432 0.38477245851611941 0 0.92301145993289879 0.92301145993289868 0 -0.38477245851611935 forward_v I I I I #
point $-1 5.9812950019912519 0 9 #
coedge $-1 $206 $229 $283 $284 forward $6 $-1 #
coedge $-1 $215 $217 $206 $247 reversed $174 $-1 #
edge $-1 $285 0 $248 1.1995001780205006 $206 $286 forward 7 unknown #
vertex $-1 $208 $287 #
straight-curve $-1 5.981295001991251 0.19999999999999998 3.6491236796290369 0.92301145993289879 0 -0.38477245851611952 I I #
point $-1 8.9862603685101945 0.19999999999999998 2.3964546045177251 #
face $-1 $277 $272 $3 $-1 $288 forward single #
loop $-1 $-1 $289 $212 #
plane-surface $-1 2.4086117753976048 0.099999999999999992 4.4955142645141803 1 0 0 0 0 -1 forward_v I I I I #
coedge $-1 $290 $283 $291 $292 forward $213 $-1 #
coedge $-1 $217 $215 $293 $294 forward $174 $-1 #
coedge $-1 $283 $290 $215 $257 reversed $213 $-1 #
edge $-1 $285 0 $295 0.19999999999999998 $215 $296 forward 7 unknown #
coedge $-1 $293 $219 $216 $259 reversed $74 $-1 #
edge $-1 $260 0 $221 3.2556100297361414 $216 $297 forward 7 unknown #
vertex $-1 $259 $298 #
straight-curve $-1 5.981295001991251 0.19999999999999998 3.6491236796290369 0 -1 0 I I #
straight-curve $-1 8.9862603685101945 0 2.3964546045177251 -0.78068453646266633 0 -0.62492531916067517 I I #
point $-1 8.9862603685101945 0 2.3964546045177251 #
point $-1 5.9925025630263686 0 0 #
coedge $-1 $226 $299 $275 $300 reversed $74 $-1 #
edge $-1 $241 5.5504518240272467e-016 $279 3.8491416521898114 $237 $301 forward 7 unknown #
straight-curve $-1 5.981295001991251 0 9 0.92301145993289868 0 -0.38477245851611952 I I #
coedge $-1 $289 $291 $229 $269 reversed $252 $-1 #
edge $-1 $273 0 $302 4.0917815258112871 $229 $303 forward 7 unknown #
coedge $-1 $304 $230 $233 $276 forward $272 $-1 #
coedge $-1 $230 $304 $289 $305 reversed $272 $-1 #
loop $-1 $-1 $270 $251 #
vertex $-1 $269 $306 #
straight-curve $-1 5.981295001991251 0.19999999999999998 6.5414050274198239 -1 0 0 I I #
coedge $-1 $233 $232 $265 $300 forward $234 $-1 #
edge $-1 $235 0 $307 0.19999999999999998 $270 $308 forward 7 unknown #
face $-1 $239 $234 $3 $-1 $309 forward single #
point $-1 5.981295001991251 0.19999999999999998 6.5414050274198239 #
vertex $-1 $300 $310 #
straight-curve $-1 5.981295001991251 0.19999999999999998 5.3419048493993238 0 -1 0 I I #
plane-surface $-1 7.4837776852507236 0.099999999999999992 6.5446178871440059 0.62492531916067484 0 -0.78068453646266678 -0.78068453646266667 0 -0.62492531916067473 forward_v I I I I #
point $-1 8.9862603685101963 0 7.7473309248886872 #
coedge $-1 $254 $256 $245 $284 reversed $213 $-1 #
edge $-1 $302 0 $285 3.5726832265936461 $245 $311 forward 7 unknown #
vertex $-1 $247 $312 #
straight-curve $-1 5.981295001991251 0.19999999999999998 2.4496235016085368 0 0 1 I I #
point $-1 5.981295001991251 0.19999999999999998 3.6491236796290374 #
plane-surface $-1 4.1949533886944277 0.099999999999999992 6.5414050274198239 0 0 -1 -1 0 0 forward_v I I I I #
coedge $-1 $313 $268 $271 $305 forward $252 $-1 #
coedge $-1 $256 $254 $314 $315 forward $213 $-1 #
coedge $-1 $268 $313 $254 $292 reversed $252 $-1 #
edge $-1 $302 0 $316 0.19999999999999998 $254 $317 forward 7 unknown #
coedge $-1 $314 $258 $255 $294 reversed $74 $-1 #
edge $-1 $295 0 $260 1.1995001780205001 $255 $318 forward 7 unknown #
vertex $-1 $294 $319 #
straight-curve $-1 5.981295001991251 0.19999999999999998 2.4496235016085368 0 -1 0 I I #
straight-curve $-1 5.981295001991251 0 3.6491236796290369 0.92301145993289879 0 -0.38477245851611952 I I #
point $-1 5.981295001991251 0 3.6491236796290369 #
coedge $-1 $265 $320 $304 $321 reversed $74 $-1 #
edge $-1 $279 0 $307 1.1995001780205001 $275 $322 forward 7 unknown #
straight-curve $-1 8.9862603685101963 0 7.7473309248886881 -0.78068453646266667 0 -0.62492531916067473 I I #
vertex $-1 $284 $323 #
straight-curve $-1 2.4086117753976048 0.19999999999999998 6.5414050274198239 0 0 -1 I I #
coedge $-1 $271 $270 $299 $321 forward $272 $-1 #
edge $-1 $273 0 $324 0.19999999999999998 $289 $325 forward 7 unknown #
point $-1 2.4086117753976048 0.19999999999999998 6.5414050274198239 #
vertex $-1 $321 $326 #
straight-curve $-1 5.981295001991251 0.19999999999999998 6.5414050274198239 0 -1 0 I I #
plane-surface $-1 5.981295001991251 0.099999999999999992 5.9416549384095738 -1 0 0 0 0 1 forward_v I I I I #
point $-1 5.981295001991251 0 5.3419048493993238 #
straight-curve $-1 2.4086117753976048 0.19999999999999998 2.4496235016085368 1 0 0 I I #
point $-1 5.981295001991251 0.19999999999999998 2.4496235016085368 #
coedge $-1 $291 $289 $320 $327 forward $252 $-1 #
coedge $-1 $320 $293 $290 $315 reversed $74 $-1 #
edge $-1 $316 0 $295 3.5726832265936461 $290 $328 forward 7 unknown #
vertex $-1 $315 $329 #
straight-curve $-1 2.4086117753976048 0.19999999999999998 2.4496235016085368 0 -1 0 I I #
straight-curve $-1 5.981295001991251 0 2.4496235016085368 0 0 1 I I #
point $-1 5.981295001991251 0 2.4496235016085368 #
coedge $-1 $299 $314 $313 $327 reversed $74 $-1 #
edge $-1 $307 0 $324 3.5726832265936461 $304 $330 forward 7 unknown #
straight-curve $-1 5.981295001991251 0 5.3419048493993238 0 0 1 I I #
point $-1 2.4086117753976048 0.19999999999999998 2.4496235016085368 #
vertex $-1 $327 $331 #
straight-curve $-1 2.4086117753976048 0.19999999999999998 6.5414050274198239 0 -1 0 I I #
point $-1 5.981295001991251 0 6.5414050274198239 #
edge $-1 $324 0 $316 4.0917815258112871 $313 $332 forward 7 unknown #
straight-curve $-1 2.4086117753976048 0 2.4496235016085368 1 0 0 I I #
point $-1 2.4086117753976048 0 2.4496235016085368 #
straight-curve $-1 5.981295001991251 0 6.5414050274198239 -1 0 0 I I #
point $-1 2.4086117753976048 0 6.5414050274198239 #
straight-curve $-1 2.4086117753976048 0 6.5414050274198239 0 0 -1 I I #
End-of-ACIS-data 