600 0 1 0           
114 GICL ACIS Healer - Source: /gicl/data5/repository/PTC/V20/web_demos/models/shtmtl_auto/part_grain_22.prt.sat - 6 0 18 ACIS 6.0.3 Solaris 24 Sat Apr 13 20:47:48 2002 
1 9.999999999999999547e-07 1.000000000000000036e-10 
body $-1 $1 $-1 $-1 #
lump $-1 $-1 $2 $0 #
shell $-1 $-1 $-1 $3 $-1 $1 #
face $-1 $4 $5 $2 $-1 $6 reversed single #
face $-1 $7 $8 $2 $-1 $9 forward single #
loop $-1 $-1 $10 $3 #
plane-surface $-1 0 5.079999999999999183 0 0 -1 0 25.39999999999999858 0 0 forward_v I I I I #
face $-1 $11 $12 $2 $-1 $13 forward single #
loop $-1 $-1 $14 $4 #
plane-surface $-1 15.25954729959366141 2.539999999999999591 113.6732558983689358 -1 0 0 0 0 25.39999999999999858 forward_v I I I I #
coedge $-1 $15 $16 $17 $18 forward $5 $-1 #
face $-1 $19 $20 $2 $-1 $21 reversed single #
loop $-1 $-1 $22 $7 #
plane-surface $-1 45.48217894076633172 2.539999999999999591 53.15186028419527275 -0.604134035230566302 0 -0.7968827187711080562 -20.24082105678613885 0 15.34500449485638107 forward_v I I I I #
coedge $-1 $23 $17 $24 $25 forward $8 $-1 #
coedge $-1 $26 $10 $27 $28 forward $5 $-1 #
coedge $-1 $10 $29 $30 $31 forward $5 $-1 #
coedge $-1 $14 $32 $10 $18 reversed $8 $-1 #
edge $-1 $33 0 $34 2.961335786536965831 $10 $35 forward 7 unknown #
face $-1 $36 $37 $2 $-1 $38 forward single #
loop $-1 $-1 $39 $11 #
plane-surface $-1 75.96244652528888253 2.539999999999999591 30.23942915904106243 0 0 1 25.39999999999999858 0 0 forward_v I I I I #
coedge $-1 $40 $30 $41 $42 forward $12 $-1 #
coedge $-1 $32 $14 $43 $44 forward $8 $-1 #
coedge $-1 $30 $40 $14 $25 reversed $12 $-1 #
edge $-1 $33 0 $45 0.1999999999999999833 $24 $46 forward 7 unknown #
coedge $-1 $47 $15 $48 $49 forward $5 $-1 #
coedge $-1 $50 $51 $15 $28 reversed $52 $-1 #
edge $-1 $34 1.104018018664883637e-16 $53 3.004131500201831617 $15 $54 forward 7 unknown #
coedge $-1 $16 $55 $39 $56 reversed $5 $-1 #
coedge $-1 $22 $24 $16 $31 reversed $12 $-1 #
edge $-1 $57 0 $33 2.986304908914743095 $16 $58 forward 7 unknown #
coedge $-1 $17 $23 $50 $59 reversed $8 $-1 #
vertex $-1 $31 $60 #
vertex $-1 $28 $61 #
straight-curve $-1 15.25954729959366141 5.079999999999999183 76.06429140934947952 0 0 25.39999999999999858 I I #
face $-1 $62 $63 $2 $-1 $64 forward single #
loop $-1 $-1 $65 $19 #
plane-surface $-1 151.9248930505777651 2.539999999999999591 15.11971457952052944 -1 0 0 0 0 25.39999999999999858 forward_v I I I I #
coedge $-1 $66 $41 $29 $56 forward $20 $-1 #
coedge $-1 $24 $22 $67 $68 forward $12 $-1 #
coedge $-1 $39 $69 $22 $42 reversed $20 $-1 #
edge $-1 $57 0 $70 0.1999999999999999833 $41 $71 forward 7 unknown #
coedge $-1 $67 $72 $23 $44 reversed $73 $-1 #
edge $-1 $45 0 $74 2.961335786536965831 $43 $75 forward 7 unknown #
vertex $-1 $68 $76 #
straight-curve $-1 15.25954729959366141 5.079999999999999183 76.06429140934946531 0 -25.39999999999999858 0 I I #
coedge $-1 $77 $26 $78 $79 reversed $5 $-1 #
coedge $-1 $80 $81 $26 $49 reversed $82 $-1 #
edge $-1 $53 0 $83 3.009323114117120834 $26 $84 forward 7 unknown #
coedge $-1 $85 $27 $32 $59 forward $52 $-1 #
coedge $-1 $27 $85 $80 $86 reversed $52 $-1 #
loop $-1 $-1 $50 $87 #
vertex $-1 $49 $88 #
straight-curve $-1 15.25954729959365785 5.079999999999999183 151.2822203873884064 20.04856932806132264 0 15.5953476363279151 I I #
coedge $-1 $29 $89 $90 $91 forward $5 $-1 #
edge $-1 $57 0 $92 3.000790648371604696 $29 $93 forward 7 unknown #
vertex $-1 $31 $94 #
straight-curve $-1 75.70481058193901447 5.079999999999999183 30.23942915904106243 -20.24082105678614241 0 15.34500449485638285 I I #
edge $-1 $34 0 $74 0.1999999999999999833 $50 $95 forward 7 unknown #
point $-1 15.25954729959366141 5.079999999999999183 76.06429140934947952 #
point $-1 15.25954729959366141 5.079999999999999183 151.2822203873884064 #
face $-1 $96 $97 $2 $-1 $98 forward single #
loop $-1 $-1 $99 $36 #
plane-surface $-1 114.2999999999999972 2.539999999999999591 0 0 0 -1 25.39999999999999858 0 0 forward_v I I I I #
coedge $-1 $100 $90 $101 $102 forward $37 $-1 #
coedge $-1 $69 $39 $103 $104 forward $20 $-1 #
coedge $-1 $105 $43 $40 $68 reversed $73 $-1 #
edge $-1 $70 0 $45 2.986304908914743095 $67 $106 forward 7 unknown #
coedge $-1 $41 $66 $105 $107 reversed $20 $-1 #
vertex $-1 $68 $108 #
straight-curve $-1 75.70481058193901447 5.079999999999999183 30.23942915904106243 0 -25.39999999999999858 0 I I #
coedge $-1 $43 $109 $85 $110 reversed $73 $-1 #
loop $-1 $-1 $105 $111 #
vertex $-1 $44 $112 #
straight-curve $-1 15.25954729959366141 0 76.06429140934947952 0 0 25.39999999999999858 I I #
point $-1 15.25954729959366141 0 76.06429140934947952 #
coedge $-1 $113 $47 $114 $115 forward $5 $-1 #
coedge $-1 $116 $117 $47 $79 forward $118 $-1 #
edge $-1 $119 0 $83 1.199500178020500352 $47 $120 forward 7 unknown #
coedge $-1 $121 $48 $51 $86 forward $82 $-1 #
coedge $-1 $48 $121 $116 $122 reversed $82 $-1 #
loop $-1 $-1 $121 $123 #
vertex $-1 $79 $124 #
straight-curve $-1 75.48808595200293325 5.079999999999999183 198.1326954782792882 25.39999999999999858 0 0 I I #
coedge $-1 $51 $50 $72 $110 forward $52 $-1 #
edge $-1 $53 0 $125 0.1999999999999999833 $80 $126 forward 7 unknown #
face $-1 $-1 $52 $2 $-1 $127 forward single #
point $-1 75.48808595200293325 5.079999999999999183 198.1326954782792882 #
coedge $-1 $55 $128 $99 $129 reversed $5 $-1 #
coedge $-1 $65 $103 $55 $91 reversed $37 $-1 #
edge $-1 $130 0 $92 1.190528707048860602 $55 $131 forward 7 unknown #
vertex $-1 $56 $132 #
straight-curve $-1 75.70481058193901447 5.079999999999999183 30.23942915904106243 25.39999999999999858 0 0 I I #
point $-1 75.70481058193901447 5.079999999999999183 30.23942915904106243 #
straight-curve $-1 15.25954729959365785 5.079999999999999183 151.2822203873884064 0 -25.39999999999999858 0 I I #
face $-1 $133 $134 $2 $-1 $135 forward single #
loop $-1 $-1 $136 $62 #
plane-surface $-1 190.2302892305143303 2.539999999999999591 30.43497347737510594 0.6249253191606752855 0 -0.7806845364626664452 -19.82938722615172367 0 -15.87310310668114788 forward_v I I I I #
coedge $-1 $137 $101 $89 $129 forward $63 $-1 #
coedge $-1 $103 $65 $138 $139 forward $37 $-1 #
coedge $-1 $99 $140 $65 $102 reversed $63 $-1 #
edge $-1 $130 0 $141 0.1999999999999999833 $65 $142 forward 7 unknown #
coedge $-1 $90 $100 $66 $104 reversed $37 $-1 #
edge $-1 $92 0 $143 0.1999999999999999833 $103 $144 forward 7 unknown #
coedge $-1 $138 $67 $69 $107 forward $73 $-1 #
straight-curve $-1 75.70481058193901447 0 30.23942915904106243 -20.24082105678614241 0 15.34500449485638285 I I #
edge $-1 $70 0 $143 3.000790648371604696 $105 $145 forward 7 unknown #
point $-1 75.70481058193901447 0 30.23942915904106243 #
coedge $-1 $72 $146 $121 $147 reversed $73 $-1 #
edge $-1 $74 1.104018018664883637e-16 $125 3.004131500201831617 $72 $148 forward 7 unknown #
face $-1 $87 $73 $2 $-1 $149 forward single #
point $-1 15.25954729959366141 0 151.2822203873884064 #
coedge $-1 $150 $77 $151 $152 forward $5 $-1 #
coedge $-1 $153 $154 $77 $115 reversed $155 $-1 #
edge $-1 $119 1.032817461226214021e-15 $156 3.25561002973614233 $77 $157 forward 7 unknown #
coedge $-1 $158 $78 $81 $122 forward $118 $-1 #
coedge $-1 $78 $158 $153 $159 reversed $118 $-1 #
loop $-1 $-1 $116 $160 #
vertex $-1 $115 $161 #
straight-curve $-1 151.9248930505777935 5.079999999999999183 228.5999999999999943 0 0 -25.39999999999999858 I I #
coedge $-1 $81 $80 $109 $147 forward $82 $-1 #
edge $-1 $83 0 $162 0.1999999999999999833 $116 $163 forward 7 unknown #
face $-1 $111 $82 $2 $-1 $164 forward single #
point $-1 151.9248930505777935 5.079999999999999183 198.1326954782792882 #
vertex $-1 $110 $165 #
straight-curve $-1 75.48808595200293325 5.079999999999999183 198.1326954782792882 0 -25.39999999999999858 0 I I #
plane-surface $-1 45.37381662579829822 2.539999999999999591 174.7074579328338473 -0.6139900644223589277 0 0.7893137530732804441 20.04856932806132264 0 15.5953476363279151 forward_v I I I I #
coedge $-1 $89 $166 $167 $168 forward $5 $-1 #
edge $-1 $130 0 $169 0.0112075610351165169 $89 $170 forward 7 unknown #
vertex $-1 $91 $171 #
straight-curve $-1 151.9248930505777651 5.079999999999999183 0 0 0 25.39999999999999858 I I #
point $-1 151.9248930505777651 5.079999999999999183 30.23942915904105888 #
face $-1 $172 $173 $2 $-1 $174 forward single #
loop $-1 $-1 $175 $96 #
plane-surface $-1 190.0879532053683363 2.539999999999999591 76.77884420866386961 0.3847724585161195754 0 0.9230114599328986813 23.44449108229562384 0 -9.773220446309435872 forward_v I I I I #
coedge $-1 $176 $167 $177 $178 forward $97 $-1 #
coedge $-1 $140 $99 $179 $180 forward $63 $-1 #
coedge $-1 $181 $105 $100 $139 reversed $73 $-1 #
edge $-1 $141 0 $143 1.190528707048860602 $100 $182 forward 7 unknown #
coedge $-1 $101 $137 $181 $183 reversed $63 $-1 #
vertex $-1 $139 $184 #
straight-curve $-1 151.9248930505777651 5.079999999999999183 0 0 -25.39999999999999858 0 I I #
vertex $-1 $104 $185 #
straight-curve $-1 151.9248930505777651 5.079999999999999183 30.23942915904106243 0 -25.39999999999999858 0 I I #
straight-curve $-1 75.70481058193901447 0 30.23942915904106243 25.39999999999999858 0 0 I I #
coedge $-1 $109 $186 $158 $187 forward $73 $-1 #
edge $-1 $125 0 $162 3.009323114117120834 $109 $188 forward 7 unknown #
straight-curve $-1 15.25954729959365785 0 151.2822203873884064 20.04856932806132264 0 15.5953476363279151 I I #
plane-surface $-1 0 0 0 0 -1 0 25.39999999999999858 0 0 forward_v I I I I #
coedge $-1 $189 $113 $190 $191 forward $5 $-1 #
coedge $-1 $192 $193 $113 $152 reversed $194 $-1 #
edge $-1 $156 0 $195 3.849141652189810081 $113 $196 forward 7 unknown #
coedge $-1 $197 $114 $117 $159 forward $155 $-1 #
coedge $-1 $114 $197 $192 $198 reversed $155 $-1 #
loop $-1 $-1 $153 $199 #
vertex $-1 $152 $200 #
straight-curve $-1 151.9248930505777651 5.079999999999999183 228.5999999999999943 23.44449108229562384 0 -9.773220446309435872 I I #
coedge $-1 $117 $116 $146 $187 reversed $118 $-1 #
edge $-1 $119 0 $201 0.1999999999999999833 $153 $202 forward 7 unknown #
face $-1 $123 $118 $2 $-1 $203 reversed single #
point $-1 151.9248930505777935 5.079999999999999183 228.5999999999999943 #
vertex $-1 $187 $204 #
straight-curve $-1 151.9248930505777935 5.079999999999999183 198.1326954782792882 0 -25.39999999999999858 0 I I #
plane-surface $-1 91.7770196530290292 2.539999999999999591 198.1326954782792882 0 0 1 25.39999999999999858 0 0 forward_v I I I I #
point $-1 75.48808595200293325 0 198.1326954782792882 #
coedge $-1 $128 $205 $206 $207 forward $5 $-1 #
coedge $-1 $136 $179 $128 $168 reversed $97 $-1 #
edge $-1 $208 0 $169 3.834785583237939388 $128 $209 forward 7 unknown #
vertex $-1 $129 $210 #
straight-curve $-1 151.9248930505777935 5.079999999999999183 0 25.39999999999999858 0 0 I I #
point $-1 151.9248930505777935 5.079999999999999183 0 #
face $-1 $211 $212 $2 $-1 $213 forward single #
loop $-1 $-1 $214 $133 #
plane-surface $-1 151.9248930505777651 2.539999999999999591 77.45408920171718137 -1 0 0 0 0 25.39999999999999858 forward_v I I I I #
coedge $-1 $215 $206 $216 $217 forward $134 $-1 #
coedge $-1 $179 $136 $218 $219 forward $97 $-1 #
coedge $-1 $206 $215 $136 $178 reversed $134 $-1 #
edge $-1 $208 0 $220 0.1999999999999999833 $136 $221 forward 7 unknown #
coedge $-1 $167 $176 $137 $180 reversed $97 $-1 #
edge $-1 $169 0 $222 0.1999999999999999833 $137 $223 forward 7 unknown #
coedge $-1 $218 $138 $140 $183 forward $73 $-1 #
straight-curve $-1 151.9248930505777651 0 0 0 0 25.39999999999999858 I I #
edge $-1 $141 0 $222 0.0112075610351165169 $140 $224 forward 7 unknown #
point $-1 151.9248930505777935 0 0 #
point $-1 151.9248930505777651 0 30.23942915904105888 #
coedge $-1 $146 $225 $197 $226 reversed $73 $-1 #
edge $-1 $201 0 $162 1.199500178020500352 $158 $227 forward 7 unknown #
straight-curve $-1 75.48808595200293325 0 198.1326954782792882 25.39999999999999858 0 0 I I #
coedge $-1 $228 $150 $229 $230 forward $5 $-1 #
coedge $-1 $231 $232 $150 $191 reversed $233 $-1 #
edge $-1 $195 0 $234 1.199500178020500352 $150 $235 forward 7 unknown #
coedge $-1 $236 $151 $154 $198 forward $194 $-1 #
coedge $-1 $151 $236 $231 $237 reversed $194 $-1 #
loop $-1 $-1 $192 $238 #
vertex $-1 $191 $239 #
straight-curve $-1 228.2510133601589644 5.079999999999999183 196.7822054921726647 -19.82938722615173077 0 -15.87310310668113722 I I #
coedge $-1 $154 $153 $186 $226 forward $155 $-1 #
edge $-1 $156 0 $240 0.1999999999999999833 $192 $241 forward 7 unknown #
face $-1 $160 $155 $2 $-1 $242 forward single #
point $-1 228.2510133601589644 5.079999999999999183 196.7822054921726647 #
vertex $-1 $226 $243 #
straight-curve $-1 151.9248930505777651 5.079999999999999183 228.5999999999999943 0 -25.39999999999999858 0 I I #
plane-surface $-1 151.9248930505777935 2.539999999999999591 213.366347739139627 1 0 0 0 0 -25.39999999999999858 forward_v I I I I #
point $-1 151.9248930505777935 0 198.1326954782792882 #
coedge $-1 $166 $244 $245 $246 forward $5 $-1 #
coedge $-1 $175 $177 $166 $207 reversed $134 $-1 #
edge $-1 $247 -2.152734451332151544e-16 $208 3.255610029736141886 $166 $248 forward 7 unknown #
vertex $-1 $168 $249 #
straight-curve $-1 228.2510133601589359 5.079999999999999183 60.86994695475021189 -19.82938722615172367 0 -15.87310310668114788 I I #
point $-1 152.209565100869753 5.079999999999999183 0 #
face $-1 $250 $251 $2 $-1 $252 forward single #
loop $-1 $-1 $253 $172 #
plane-surface $-1 106.5518160728384629 2.539999999999999591 62.2204369408568283 0 0 1 25.39999999999999858 0 0 forward_v I I I I #
coedge $-1 $254 $245 $255 $256 forward $173 $-1 #
coedge $-1 $177 $175 $257 $258 forward $134 $-1 #
coedge $-1 $245 $254 $175 $217 reversed $173 $-1 #
edge $-1 $247 0 $259 0.1999999999999999833 $175 $260 forward 7 unknown #
coedge $-1 $257 $181 $176 $219 reversed $73 $-1 #
edge $-1 $220 0 $222 3.834785583237939388 $176 $261 forward 7 unknown #
vertex $-1 $219 $262 #
straight-curve $-1 228.2510133601589359 5.079999999999999183 60.86994695475021189 0 -25.39999999999999858 0 I I #
vertex $-1 $183 $263 #
straight-curve $-1 152.209565100869753 5.079999999999999183 0 0 -25.39999999999999858 0 I I #
straight-curve $-1 151.9248930505777935 0 0 25.39999999999999858 0 0 I I #
coedge $-1 $186 $264 $236 $265 reversed $73 $-1 #
edge $-1 $201 1.032817461226214021e-15 $240 3.25561002973614233 $197 $266 forward 7 unknown #
straight-curve $-1 151.9248930505777935 0 228.5999999999999943 0 0 -25.39999999999999858 I I #
coedge $-1 $244 $189 $267 $268 forward $5 $-1 #
coedge $-1 $269 $270 $189 $230 reversed $271 $-1 #
edge $-1 $234 0 $272 3.572683226593646122 $189 $273 forward 7 unknown #
coedge $-1 $274 $190 $193 $237 forward $233 $-1 #
coedge $-1 $190 $274 $269 $275 reversed $233 $-1 #
loop $-1 $-1 $231 $276 #
vertex $-1 $230 $277 #
straight-curve $-1 151.9248930505777651 5.079999999999999183 135.6843831747428055 0 0 25.39999999999999858 I I #
coedge $-1 $193 $192 $225 $265 forward $194 $-1 #
edge $-1 $195 0 $278 0.1999999999999999833 $231 $279 forward 7 unknown #
face $-1 $199 $194 $2 $-1 $280 forward single #
point $-1 151.9248930505777651 5.079999999999999183 135.6843831747428055 #
vertex $-1 $265 $281 #
straight-curve $-1 228.2510133601589644 5.079999999999999183 196.7822054921726647 0 -25.39999999999999858 0 I I #
plane-surface $-1 190.0879532053683647 2.539999999999999591 212.6911027460863011 0.3847724585161194089 0 0.9230114599328987923 23.44449108229562384 0 -9.773220446309430542 forward_v I I I I #
point $-1 151.9248930505777935 0 228.5999999999999943 #
coedge $-1 $205 $228 $282 $283 forward $5 $-1 #
coedge $-1 $214 $216 $205 $246 reversed $173 $-1 #
edge $-1 $284 0 $247 1.199500178020500796 $205 $285 forward 7 unknown #
vertex $-1 $207 $286 #
straight-curve $-1 151.9248930505777651 5.079999999999999183 92.68774146257753443 23.44449108229562739 0 -9.773220446309435872 I I #
point $-1 228.2510133601589359 5.079999999999999183 60.86994695475021189 #
face $-1 $276 $271 $2 $-1 $287 forward single #
loop $-1 $-1 $288 $211 #
plane-surface $-1 61.17873909509916075 2.539999999999999591 114.1860623186601771 1 0 0 0 0 -25.39999999999999858 forward_v I I I I #
coedge $-1 $289 $282 $290 $291 forward $212 $-1 #
coedge $-1 $216 $214 $292 $293 forward $173 $-1 #
coedge $-1 $282 $289 $214 $256 reversed $212 $-1 #
edge $-1 $284 0 $294 0.1999999999999999833 $214 $295 forward 7 unknown #
coedge $-1 $292 $218 $215 $258 reversed $73 $-1 #
edge $-1 $259 0 $220 3.255610029736141886 $215 $296 forward 7 unknown #
vertex $-1 $258 $297 #
straight-curve $-1 151.9248930505777651 5.079999999999999183 92.68774146257753443 0 -25.39999999999999858 0 I I #
straight-curve $-1 228.2510133601589359 0 60.86994695475021189 -19.82938722615172367 0 -15.87310310668114788 I I #
point $-1 228.2510133601589359 0 60.86994695475021189 #
point $-1 152.209565100869753 0 0 #
coedge $-1 $225 $298 $274 $299 reversed $73 $-1 #
edge $-1 $240 6.992695211372907177e-16 $278 3.849141652189810081 $236 $300 forward 7 unknown #
straight-curve $-1 151.9248930505777651 0 228.5999999999999943 23.44449108229562384 0 -9.773220446309435872 I I #
coedge $-1 $288 $290 $228 $268 reversed $251 $-1 #
edge $-1 $272 0 $301 4.091781525811287068 $228 $302 forward 7 unknown #
coedge $-1 $303 $229 $232 $275 forward $271 $-1 #
coedge $-1 $229 $303 $288 $304 reversed $271 $-1 #
loop $-1 $-1 $269 $250 #
vertex $-1 $268 $305 #
straight-curve $-1 151.9248930505777651 5.079999999999999183 166.1516876964635117 -25.39999999999999858 0 0 I I #
coedge $-1 $232 $231 $264 $299 forward $233 $-1 #
edge $-1 $234 0 $306 0.1999999999999999833 $269 $307 forward 7 unknown #
face $-1 $238 $233 $2 $-1 $308 forward single #
point $-1 151.9248930505777651 5.079999999999999183 166.1516876964635117 #
vertex $-1 $299 $309 #
straight-curve $-1 151.9248930505777651 5.079999999999999183 135.6843831747428055 0 -25.39999999999999858 0 I I #
plane-surface $-1 190.0879532053683647 2.539999999999999591 166.2332943334577351 0.6249253191606748414 0 -0.7806845364626667783 -19.82938722615173077 0 -15.87310310668113722 forward_v I I I I #
point $-1 228.2510133601589644 0 196.7822054921726362 #
coedge $-1 $253 $255 $244 $283 reversed $212 $-1 #
edge $-1 $301 0 $284 3.572683226593646122 $244 $310 forward 7 unknown #
vertex $-1 $246 $311 #
straight-curve $-1 151.9248930505777651 5.079999999999999183 62.2204369408568283 0 0 25.39999999999999858 I I #
point $-1 151.9248930505777651 5.079999999999999183 92.68774146257754865 #
plane-surface $-1 106.5518160728384629 2.539999999999999591 166.1516876964635117 0 0 -1 -25.39999999999999858 0 0 forward_v I I I I #
coedge $-1 $312 $267 $270 $304 forward $251 $-1 #
coedge $-1 $255 $253 $313 $314 forward $212 $-1 #
coedge $-1 $267 $312 $253 $291 reversed $251 $-1 #
edge $-1 $301 0 $315 0.1999999999999999833 $253 $316 forward 7 unknown #
coedge $-1 $313 $257 $254 $293 reversed $73 $-1 #
edge $-1 $294 0 $259 1.199500178020500352 $254 $317 forward 7 unknown #
vertex $-1 $293 $318 #
straight-curve $-1 151.9248930505777651 5.079999999999999183 62.2204369408568283 0 -25.39999999999999858 0 I I #
straight-curve $-1 151.9248930505777651 0 92.68774146257753443 23.44449108229562739 0 -9.773220446309435872 I I #
point $-1 151.9248930505777651 0 92.68774146257753443 #
coedge $-1 $264 $319 $303 $320 reversed $73 $-1 #
edge $-1 $278 0 $306 1.199500178020500352 $274 $321 forward 7 unknown #
straight-curve $-1 228.2510133601589644 0 196.7822054921726647 -19.82938722615173077 0 -15.87310310668113722 I I #
vertex $-1 $283 $322 #
straight-curve $-1 61.17873909509916075 5.079999999999999183 166.1516876964635117 0 0 -25.39999999999999858 I I #
coedge $-1 $270 $269 $298 $320 forward $271 $-1 #
edge $-1 $272 0 $323 0.1999999999999999833 $288 $324 forward 7 unknown #
point $-1 61.17873909509916075 5.079999999999999183 166.1516876964635117 #
vertex $-1 $320 $325 #
straight-curve $-1 151.9248930505777651 5.079999999999999183 166.1516876964635117 0 -25.39999999999999858 0 I I #
plane-surface $-1 151.9248930505777651 2.539999999999999591 150.9180354356031728 -1 0 0 0 0 25.39999999999999858 forward_v I I I I #
point $-1 151.9248930505777651 0 135.6843831747428055 #
straight-curve $-1 61.17873909509916075 5.079999999999999183 62.2204369408568283 25.39999999999999858 0 0 I I #
point $-1 151.9248930505777651 5.079999999999999183 62.2204369408568283 #
coedge $-1 $290 $288 $319 $326 forward $251 $-1 #
coedge $-1 $319 $292 $289 $314 reversed $73 $-1 #
edge $-1 $315 0 $294 3.572683226593646122 $289 $327 forward 7 unknown #
vertex $-1 $314 $328 #
straight-curve $-1 61.17873909509916075 5.079999999999999183 62.2204369408568283 0 -25.39999999999999858 0 I I #
straight-curve $-1 151.9248930505777651 0 62.2204369408568283 0 0 25.39999999999999858 I I #
point $-1 151.9248930505777651 0 62.2204369408568283 #
coedge $-1 $298 $313 $312 $326 reversed $73 $-1 #
edge $-1 $306 0 $323 3.572683226593646122 $303 $329 forward 7 unknown #
straight-curve $-1 151.9248930505777651 0 135.6843831747428055 0 0 25.39999999999999858 I I #
point $-1 61.17873909509916075 5.079999999999999183 62.2204369408568283 #
vertex $-1 $326 $330 #
straight-curve $-1 61.17873909509916075 5.079999999999999183 166.1516876964635117 0 -25.39999999999999858 0 I I #
point $-1 151.9248930505777651 0 166.1516876964635117 #
edge $-1 $323 0 $315 4.091781525811287068 $312 $331 forward 7 unknown #
straight-curve $-1 61.17873909509916075 0 62.2204369408568283 25.39999999999999858 0 0 I I #
point $-1 61.17873909509916075 0 62.2204369408568283 #
straight-curve $-1 151.9248930505777651 0 166.1516876964635117 -25.39999999999999858 0 0 I I #
point $-1 61.17873909509916075 0 166.1516876964635117 #
straight-curve $-1 61.17873909509916075 0 166.1516876964635117 0 0 -25.39999999999999858 I I #
End-of-ACIS-data 