700 0 2 0           
24 FBMach with ACIS - 7.0.3 13 ACIS 7.0.3 NT 24 Tue May 14 14:45:57 2002 
1 9.9999999999999995e-007 1e-010 
body $2 -1 $-1 $3 $-1 $4 #
bdycol-kcp $-1 -1 1 3 $5 $6 $7 #
model_id-kcp-attrib $-1 -1 $-1 $-1 $0 1 1021401956 1021401956 813760513 1 #
lump $-1 -1 $-1 $-1 $8 $0 #
transform $-1 -1 1 0 0 0 1 0 0 0 1 0 0 0 1 rotate no_reflect no_shear #
body $9 -1 $-1 $10 $-1 $11 #
body $12 -1 $-1 $13 $-1 $14 #
body $15 -1 $-1 $16 $-1 $17 #
shell $-1 -1 $-1 $-1 $-1 $18 $-1 $3 #
model_id-kcp-attrib $-1 -1 $-1 $-1 $5 1 1021401956 1021401956 813760514 1 #
lump $-1 -1 $-1 $-1 $19 $5 #
transform $-1 -1 1 0 0 0 1 0 0 0 1 126.99999999999999 2.5399999999999996 88.899999999999977 1 no_rotate no_reflect no_shear #
rgb_color-st-attrib $-1 -1 $20 $-1 $6 1 0.5 1 #
lump $-1 -1 $-1 $-1 $21 $6 #
transform $-1 -1 1 0 0 0 1 0 0 0 1 126.99999999999999 2.5399999999999996 88.899999999999977 1 no_rotate no_reflect no_shear #
rgb_color-st-attrib $-1 -1 $22 $-1 $7 1 0.5 1 #
lump $-1 -1 $-1 $-1 $23 $7 #
transform $-1 -1 1 0 0 0 1 0 0 0 1 126.99999999999999 2.5399999999999996 88.899999999999977 1 no_rotate no_reflect no_shear #
face $24 -1 $-1 $25 $26 $8 $-1 $27 reversed single #
shell $-1 -1 $-1 $-1 $-1 $28 $-1 $10 #
model_id-kcp-attrib $-1 -1 $-1 $12 $6 1 1021401956 1021401957 814284803 1 #
shell $-1 -1 $-1 $-1 $-1 $29 $-1 $13 #
model_id-kcp-attrib $-1 -1 $-1 $15 $7 1 1021401956 1021401957 818872324 1 #
shell $-1 -1 $-1 $-1 $-1 $30 $-1 $16 #
model_id-kcp-attrib $-1 -1 $-1 $-1 $18 1 1021401956 1021401956 813760513 2 #
face $31 -1 $-1 $32 $33 $8 $-1 $34 forward single #
loop $-1 -1 $-1 $-1 $35 $18 #
plane-surface $-1 -1 $-1 0 5.0799999999999992 0 0 -1 0 25.399999999999999 0 0 forward_v I I I I #
face $36 -1 $-1 $37 $38 $19 $-1 $39 forward single #
face $-1 -1 $-1 $40 $41 $21 $-1 $42 forward single #
face $-1 -1 $-1 $43 $44 $23 $-1 $45 forward single #
model_id-kcp-attrib $-1 -1 $-1 $-1 $25 1 1021401956 1021401956 813760513 3 #
face $46 -1 $-1 $47 $48 $8 $-1 $49 forward single #
loop $-1 -1 $-1 $-1 $50 $25 #
plane-surface $-1 -1 $-1 60.324999999999996 2.5399999999999996 63.5 0 0 1 25.399999999999999 0 0 forward_v I I I I #
coedge $-1 -1 $-1 $51 $52 $53 $54 forward $26 $-1 #
model_id-kcp-attrib $-1 -1 $-1 $-1 $28 1 1021401956 1021401956 813760514 6 #
face $55 -1 $-1 $56 $57 $19 $-1 $58 reversed single #
loop $-1 -1 $-1 $-1 $59 $28 #
plane-surface $-1 -1 $-1 0 0 76.200000000000017 0 0 1 1 0 0 forward_v I I I I #
face $-1 -1 $-1 $60 $61 $21 $-1 $62 forward single #
loop $-1 -1 $-1 $-1 $63 $29 #
plane-surface $-1 -1 $-1 19.049999999999997 -2.5399999999999996 -25.399999999999977 0 -1 0 0 0 -1 forward_v I I I I #
face $-1 -1 $-1 $64 $65 $23 $-1 $66 forward single #
loop $-1 -1 $-1 $-1 $67 $30 #
plane-surface $-1 -1 $-1 -19.049999999999997 2.5399999999999996 -25.399999999999977 0 1 0 0 0 1 forward_v I I I I #
model_id-kcp-attrib $-1 -1 $-1 $-1 $32 1 1021401956 1021401956 813760513 4 #
face $68 -1 $-1 $69 $70 $8 $-1 $71 forward single #
loop $-1 -1 $-1 $-1 $72 $32 #
plane-surface $-1 -1 $-1 12.699999999999999 2.5399999999999996 38.099999999999994 -1 0 0 0 0 25.399999999999999 forward_v I I I I #
coedge $-1 -1 $-1 $73 $53 $74 $75 forward $33 $-1 #
coedge $-1 -1 $-1 $76 $35 $77 $78 forward $26 $-1 #
coedge $-1 -1 $-1 $35 $79 $80 $81 forward $26 $-1 #
coedge $-1 -1 $-1 $50 $82 $35 $54 reversed $33 $-1 #
edge $83 -1 $-1 $84 0 $85 3.7499999999999996 $35 $86 forward @7 unknown #
model_id-kcp-attrib $-1 -1 $-1 $-1 $37 1 1021401956 1021401956 813760514 4 #
face $87 -1 $-1 $88 $89 $19 $-1 $90 reversed single #
loop $-1 -1 $-1 $-1 $91 $37 #
plane-surface $-1 -1 $-1 0 0 -76.200000000000017 0 0 1 1 0 0 forward_v I I I I #
coedge $-1 -1 $-1 $92 $93 $94 $95 forward $38 $-1 #
face $-1 -1 $-1 $96 $97 $21 $-1 $98 forward single #
loop $-1 -1 $-1 $-1 $99 $40 #
plane-surface $-1 -1 $-1 19.050000000000011 -2.5399999999999996 76.200000000000017 0 0 1 1 0 0 forward_v I I I I #
coedge $-1 -1 $-1 $100 $101 $102 $103 forward $41 $-1 #
face $-1 -1 $-1 $104 $105 $23 $-1 $106 forward single #
loop $-1 -1 $-1 $-1 $107 $43 #
plane-surface $-1 -1 $-1 -19.050000000000011 2.5399999999999996 76.200000000000017 0 0 1 1 0 0 forward_v I I I I #
coedge $-1 -1 $-1 $108 $109 $110 $111 forward $44 $-1 #
model_id-kcp-attrib $-1 -1 $-1 $-1 $47 1 1021401956 1021401956 813760513 5 #
face $112 -1 $-1 $113 $114 $8 $-1 $115 forward single #
loop $-1 -1 $-1 $-1 $116 $47 #
plane-surface $-1 -1 $-1 127 2.5399999999999996 12.699999999999999 0 0 -1 -25.399999999999999 0 0 forward_v I I I I #
coedge $-1 -1 $-1 $117 $80 $118 $119 forward $48 $-1 #
coedge $-1 -1 $-1 $82 $50 $120 $121 forward $33 $-1 #
coedge $-1 -1 $-1 $80 $117 $50 $75 reversed $48 $-1 #
edge $122 -1 $-1 $84 0 $123 0.19999999999999998 $74 $124 forward @7 unknown #
coedge $-1 -1 $-1 $125 $51 $126 $127 forward $26 $-1 #
coedge $-1 -1 $-1 $128 $129 $51 $78 reversed $130 $-1 #
edge $131 -1 $-1 $85 0 $132 4 $51 $133 forward @7 unknown #
coedge $-1 -1 $-1 $52 $134 $135 $136 forward $26 $-1 #
coedge $-1 -1 $-1 $72 $74 $52 $81 reversed $48 $-1 #
edge $137 -1 $-1 $138 0 $84 2.0000000000000013 $52 $139 forward @7 unknown #
coedge $-1 -1 $-1 $53 $73 $128 $140 reversed $33 $-1 #
attrib_edge_convexity-kcp-attrib $-1 -1 $141 $-1 $54 1 #
vertex $-1 -1 $-1 $81 $142 #
vertex $-1 -1 $-1 $78 $143 #
straight-curve $-1 -1 $-1 12.699999999999999 5.0799999999999992 63.5 25.399999999999999 0 0 I I #
model_id-kcp-attrib $-1 -1 $-1 $-1 $56 1 1021401956 1021401956 813760514 7 #
face $144 -1 $-1 $145 $146 $19 $-1 $147 reversed single #
loop $-1 -1 $-1 $-1 $148 $56 #
plane-surface $-1 -1 $-1 0 -2.5399999999999996 0 0 1 0 0 0 1 forward_v I I I I #
coedge $-1 -1 $-1 $149 $150 $151 $152 forward $57 $-1 #
coedge $-1 -1 $-1 $153 $59 $154 $155 forward $38 $-1 #
coedge $-1 -1 $-1 $59 $153 $156 $157 forward $38 $-1 #
coedge $-1 -1 $-1 $158 $159 $59 $95 reversed $160 $-1 #
edge $-1 -1 $-1 $161 -2.5399999999999996 $162 2.5399999999999996 $94 $163 forward @7 unknown #
face $-1 -1 $-1 $164 $165 $21 $-1 $166 forward single #
loop $-1 -1 $-1 $-1 $167 $60 #
plane-surface $-1 -1 $-1 19.050000000000011 2.5399999999999996 76.200000000000017 0 1 0 0 0 1 forward_v I I I I #
coedge $-1 -1 $-1 $168 $169 $170 $171 forward $61 $-1 #
coedge $-1 -1 $-1 $172 $63 $169 $173 reversed $41 $-1 #
coedge $-1 -1 $-1 $63 $172 $174 $175 forward $41 $-1 #
coedge $-1 -1 $-1 $176 $170 $63 $103 reversed $177 $-1 #
edge $-1 -1 $-1 $178 -38.099999999999987 $179 63.500000000000007 $63 $180 forward @7 unknown #
face $-1 -1 $-1 $181 $182 $23 $-1 $183 forward single #
loop $-1 -1 $-1 $-1 $184 $64 #
plane-surface $-1 -1 $-1 -19.050000000000011 -2.5399999999999996 76.200000000000017 0 -1 0 0 0 -1 forward_v I I I I #
coedge $-1 -1 $-1 $185 $186 $187 $188 forward $65 $-1 #
coedge $-1 -1 $-1 $189 $67 $186 $190 reversed $44 $-1 #
coedge $-1 -1 $-1 $67 $189 $191 $192 forward $44 $-1 #
coedge $-1 -1 $-1 $193 $187 $67 $111 reversed $194 $-1 #
edge $-1 -1 $-1 $195 -38.099999999999987 $196 63.500000000000007 $67 $197 forward @7 unknown #
model_id-kcp-attrib $-1 -1 $-1 $-1 $69 1 1021401956 1021401956 813760513 6 #
face $198 -1 $-1 $199 $200 $8 $-1 $201 forward single #
loop $-1 -1 $-1 $-1 $202 $69 #
plane-surface $-1 -1 $-1 241.29999999999998 2.5399999999999996 38.099999999999994 1 0 0 0 0 -25.399999999999999 forward_v I I I I #
coedge $-1 -1 $-1 $203 $135 $204 $205 forward $70 $-1 #
coedge $-1 -1 $-1 $74 $72 $206 $207 forward $48 $-1 #
coedge $-1 -1 $-1 $135 $203 $72 $119 reversed $70 $-1 #
edge $208 -1 $-1 $138 0 $209 0.19999999999999998 $72 $210 forward @7 unknown #
coedge $-1 -1 $-1 $206 $211 $73 $121 reversed $212 $-1 #
edge $213 -1 $-1 $123 0 $214 3.7499999999999996 $120 $215 forward @7 unknown #
attrib_edge_convexity-kcp-attrib $-1 -1 $216 $-1 $75 1 #
vertex $-1 -1 $-1 $207 $217 #
straight-curve $-1 -1 $-1 12.699999999999999 5.0799999999999992 63.5 0 -25.399999999999999 0 I I #
coedge $-1 -1 $-1 $218 $76 $219 $220 forward $26 $-1 #
coedge $-1 -1 $-1 $221 $222 $76 $127 reversed $223 $-1 #
edge $224 -1 $-1 $132 0 $225 1.4999999999999998 $76 $226 forward @7 unknown #
coedge $-1 -1 $-1 $227 $77 $82 $140 forward $130 $-1 #
coedge $-1 -1 $-1 $77 $227 $221 $228 reversed $130 $-1 #
loop $-1 -1 $-1 $-1 $128 $229 #
attrib_edge_convexity-kcp-attrib $-1 -1 $230 $-1 $78 1 #
vertex $-1 -1 $-1 $127 $231 #
straight-curve $-1 -1 $-1 107.94999999999999 5.0799999999999992 63.5 0 0 25.399999999999999 I I #
coedge $-1 -1 $-1 $79 $218 $232 $233 forward $26 $-1 #
coedge $-1 -1 $-1 $116 $118 $79 $136 reversed $70 $-1 #
edge $234 -1 $-1 $235 0 $138 9 $79 $236 forward @7 unknown #
attrib_edge_convexity-kcp-attrib $-1 -1 $237 $-1 $81 1 #
vertex $-1 -1 $-1 $81 $238 #
straight-curve $-1 -1 $-1 12.699999999999999 5.0799999999999992 12.699999999999971 0 0 25.399999999999999 I I #
edge $239 -1 $-1 $85 0 $214 0.19999999999999998 $128 $240 forward @7 unknown #
convexity-sys-attrib $-1 -1 $-1 $83 $54 #
point $-1 -1 $-1 12.699999999999999 5.0799999999999992 63.5 #
point $-1 -1 $-1 107.94999999999999 5.0799999999999992 63.5 #
model_id-kcp-attrib $-1 -1 $-1 $-1 $88 1 1021401956 1021401956 813760514 3 #
face $241 -1 $-1 $242 $243 $19 $-1 $244 reversed single #
loop $-1 -1 $-1 $-1 $245 $88 #
plane-surface $-1 -1 $-1 -114.3 0 0 1 0 0 0 0 -1 forward_v I I I I #
coedge $-1 -1 $-1 $246 $156 $247 $248 forward $89 $-1 #
coedge $-1 -1 $-1 $249 $91 $246 $250 forward $57 $-1 #
coedge $-1 -1 $-1 $91 $249 $251 $252 forward $57 $-1 #
coedge $-1 -1 $-1 $159 $158 $91 $152 reversed $160 $-1 #
edge $-1 -1 $-1 $253 -2.5399999999999996 $254 2.5399999999999996 $151 $255 forward @7 unknown #
coedge $-1 -1 $-1 $93 $92 $256 $257 forward $38 $-1 #
coedge $-1 -1 $-1 $258 $259 $92 $155 reversed $243 $-1 #
edge $-1 -1 $-1 $162 -114.3 $260 114.3 $154 $261 forward @7 unknown #
coedge $-1 -1 $-1 $148 $262 $93 $157 reversed $89 $-1 #
edge $-1 -1 $-1 $263 -114.3 $161 114.3 $156 $264 forward @7 unknown #
coedge $-1 -1 $-1 $151 $94 $262 $265 forward $160 $-1 #
coedge $-1 -1 $-1 $94 $151 $258 $266 reversed $160 $-1 #
loop $-1 -1 $-1 $-1 $158 $242 #
vertex $-1 -1 $-1 $95 $267 #
vertex $-1 -1 $-1 $95 $268 #
straight-curve $-1 -1 $-1 114.3 0 76.200000000000017 0 1 0 I I #
face $-1 -1 $-1 $269 $177 $21 $-1 $270 forward single #
loop $-1 -1 $-1 $-1 $271 $96 #
plane-surface $-1 -1 $-1 19.049999999999997 2.5399999999999996 -25.399999999999977 0 0 -1 -1 0 0 forward_v I I I I #
coedge $-1 -1 $-1 $272 $273 $274 $275 forward $97 $-1 #
coedge $-1 -1 $-1 $276 $99 $273 $277 reversed $61 $-1 #
coedge $-1 -1 $-1 $99 $276 $100 $173 forward $61 $-1 #
coedge $-1 -1 $-1 $102 $274 $99 $171 reversed $177 $-1 #
edge $-1 -1 $-1 $179 -2.5399999999999996 $278 2.5399999999999996 $99 $279 forward @7 unknown #
coedge $-1 -1 $-1 $101 $100 $280 $281 reversed $41 $-1 #
edge $-1 -1 $-1 $282 0 $179 95.25 $169 $283 forward @7 unknown #
coedge $-1 -1 $-1 $284 $271 $101 $175 reversed $165 $-1 #
edge $-1 -1 $-1 $285 0 $178 95.25 $101 $286 forward @7 unknown #
coedge $-1 -1 $-1 $274 $102 $271 $287 reversed $177 $-1 #
loop $-1 -1 $-1 $-1 $102 $164 #
vertex $-1 -1 $-1 $175 $288 #
vertex $-1 -1 $-1 $173 $289 #
straight-curve $-1 -1 $-1 114.30000000000001 -2.5399999999999996 12.70000000000001 0 0 1 I I #
face $-1 -1 $-1 $290 $194 $23 $-1 $291 reversed single #
loop $-1 -1 $-1 $-1 $292 $104 #
plane-surface $-1 -1 $-1 -19.049999999999997 -2.5399999999999996 -25.399999999999977 0 0 -1 -1 0 0 forward_v I I I I #
coedge $-1 -1 $-1 $293 $294 $295 $296 forward $105 $-1 #
coedge $-1 -1 $-1 $297 $107 $294 $298 reversed $65 $-1 #
coedge $-1 -1 $-1 $107 $297 $108 $190 forward $65 $-1 #
coedge $-1 -1 $-1 $110 $295 $107 $188 reversed $194 $-1 #
edge $-1 -1 $-1 $196 -2.5399999999999996 $299 2.5399999999999996 $107 $300 forward @7 unknown #
coedge $-1 -1 $-1 $109 $108 $301 $302 reversed $44 $-1 #
edge $-1 -1 $-1 $303 0 $196 95.249999999999986 $186 $304 forward @7 unknown #
coedge $-1 -1 $-1 $305 $292 $109 $192 reversed $182 $-1 #
edge $-1 -1 $-1 $306 0 $195 95.249999999999986 $109 $307 forward @7 unknown #
coedge $-1 -1 $-1 $295 $110 $292 $308 reversed $194 $-1 #
loop $-1 -1 $-1 $-1 $110 $181 #
vertex $-1 -1 $-1 $192 $309 #
vertex $-1 -1 $-1 $190 $310 #
straight-curve $-1 -1 $-1 -114.3 2.5399999999999996 12.70000000000001 0 0 1 I I #
model_id-kcp-attrib $-1 -1 $-1 $-1 $113 1 1021401956 1021401956 813760513 7 #
face $311 -1 $-1 $312 $313 $8 $-1 $314 forward single #
loop $-1 -1 $-1 $-1 $315 $113 #
plane-surface $-1 -1 $-1 193.67499999999998 2.5399999999999996 63.5 0 0 1 25.399999999999999 0 0 forward_v I I I I #
coedge $-1 -1 $-1 $316 $232 $317 $318 forward $114 $-1 #
coedge $-1 -1 $-1 $118 $116 $319 $320 forward $70 $-1 #
coedge $-1 -1 $-1 $232 $316 $116 $205 reversed $114 $-1 #
edge $321 -1 $-1 $235 0 $322 0.19999999999999998 $116 $323 forward @7 unknown #
coedge $-1 -1 $-1 $319 $120 $117 $207 reversed $212 $-1 #
edge $324 -1 $-1 $209 0 $123 2.0000000000000013 $206 $325 forward @7 unknown #
attrib_edge_convexity-kcp-attrib $-1 -1 $326 $-1 $119 1 #
vertex $-1 -1 $-1 $207 $327 #
straight-curve $-1 -1 $-1 12.699999999999999 5.0799999999999992 12.699999999999999 0 -25.399999999999999 0 I I #
coedge $-1 -1 $-1 $120 $328 $227 $329 reversed $212 $-1 #
loop $-1 -1 $-1 $-1 $319 $330 #
attrib_edge_convexity-kcp-attrib $-1 -1 $331 $-1 $121 1 #
vertex $-1 -1 $-1 $121 $332 #
straight-curve $-1 -1 $-1 12.699999999999999 0 63.5 25.399999999999999 0 0 I I #
convexity-sys-attrib $-1 -1 $-1 $122 $75 #
point $-1 -1 $-1 12.699999999999999 0 63.5 #
coedge $-1 -1 $-1 $134 $125 $333 $334 forward $26 $-1 #
coedge $-1 -1 $-1 $335 $336 $125 $220 reversed $313 $-1 #
edge $337 -1 $-1 $225 0 $338 4 $125 $339 forward @7 unknown #
coedge $-1 -1 $-1 $340 $126 $129 $228 forward $223 $-1 #
coedge $-1 -1 $-1 $126 $340 $335 $341 reversed $223 $-1 #
loop $-1 -1 $-1 $-1 $221 $312 #
attrib_edge_convexity-kcp-attrib $-1 -1 $342 $-1 $127 1 #
vertex $-1 -1 $-1 $220 $343 #
straight-curve $-1 -1 $-1 107.94999999999999 5.0799999999999992 165.09999999999999 25.399999999999999 0 0 I I #
coedge $-1 -1 $-1 $129 $128 $211 $329 forward $130 $-1 #
edge $344 -1 $-1 $132 0 $345 0.19999999999999998 $221 $346 forward @7 unknown #
face $347 -1 $-1 $330 $130 $8 $-1 $348 forward single #
convexity-sys-attrib $-1 -1 $-1 $131 $78 #
point $-1 -1 $-1 107.94999999999999 5.0799999999999992 165.09999999999999 #
coedge $-1 -1 $-1 $202 $204 $134 $233 reversed $114 $-1 #
edge $349 -1 $-1 $350 0 $235 2 $134 $351 forward @7 unknown #
attrib_edge_convexity-kcp-attrib $-1 -1 $352 $-1 $136 1 #
vertex $-1 -1 $-1 $136 $353 #
straight-curve $-1 -1 $-1 241.29999999999998 5.0799999999999992 12.699999999999999 -25.399999999999999 0 0 I I #
convexity-sys-attrib $-1 -1 $-1 $137 $81 #
point $-1 -1 $-1 12.699999999999999 5.0799999999999992 12.699999999999971 #
attrib_edge_convexity-kcp-attrib $-1 -1 $354 $-1 $140 2 #
straight-curve $-1 -1 $-1 107.94999999999999 5.0799999999999992 63.5 0 -25.399999999999999 0 I I #
model_id-kcp-attrib $-1 -1 $-1 $-1 $145 1 1021401956 1021401956 813760514 2 #
face $355 -1 $-1 $-1 $160 $19 $-1 $356 reversed single #
loop $-1 -1 $-1 $-1 $258 $145 #
plane-surface $-1 -1 $-1 0 2.5399999999999996 0 0 -1 0 0 0 -1 forward_v I I I I #
coedge $-1 -1 $-1 $357 $256 $259 $358 forward $146 $-1 #
coedge $-1 -1 $-1 $262 $148 $149 $250 reversed $89 $-1 #
coedge $-1 -1 $-1 $256 $357 $148 $248 reversed $146 $-1 #
edge $-1 -1 $-1 $263 -76.200000000000017 $359 76.200000000000017 $247 $360 forward @7 unknown #
coedge $-1 -1 $-1 $150 $149 $357 $361 forward $57 $-1 #
edge $-1 -1 $-1 $254 -114.3 $359 114.3 $246 $362 forward @7 unknown #
coedge $-1 -1 $-1 $259 $258 $150 $252 reversed $243 $-1 #
edge $-1 -1 $-1 $363 -114.3 $253 114.3 $251 $364 forward @7 unknown #
vertex $-1 -1 $-1 $152 $365 #
vertex $-1 -1 $-1 $265 $366 #
straight-curve $-1 -1 $-1 114.3 0 -76.200000000000017 0 -1 0 I I #
coedge $-1 -1 $-1 $245 $247 $153 $257 reversed $146 $-1 #
edge $-1 -1 $-1 $260 -2.5399999999999996 $263 2.5399999999999996 $256 $367 forward @7 unknown #
coedge $-1 -1 $-1 $251 $154 $159 $266 forward $243 $-1 #
coedge $-1 -1 $-1 $154 $251 $245 $358 reversed $243 $-1 #
vertex $-1 -1 $-1 $155 $368 #
straight-curve $-1 -1 $-1 0 2.5399999999999996 76.200000000000017 -1 0 0 I I #
coedge $-1 -1 $-1 $156 $246 $158 $265 reversed $89 $-1 #
vertex $-1 -1 $-1 $257 $369 #
straight-curve $-1 -1 $-1 0 -2.5399999999999996 76.200000000000017 1 0 0 I I #
edge $-1 -1 $-1 $161 -76.200000000000017 $254 76.200000000000017 $158 $370 forward @7 unknown #
edge $-1 -1 $-1 $162 -76.200000000000017 $253 76.200000000000017 $159 $371 forward @7 unknown #
point $-1 -1 $-1 114.3 -2.5399999999999996 76.200000000000017 #
point $-1 -1 $-1 114.3 2.5399999999999996 76.200000000000017 #
face $-1 -1 $-1 $-1 $372 $21 $-1 $373 reversed single #
plane-surface $-1 -1 $-1 114.30000000000001 0 25.40000000000002 1 7.2999214839777088e-032 1.4599842967955406e-033 1.4599842967955406e-033 0 -1 forward_v I I I I #
coedge $-1 -1 $-1 $174 $374 $176 $287 forward $165 $-1 #
coedge $-1 -1 $-1 $375 $167 $374 $376 reversed $97 $-1 #
coedge $-1 -1 $-1 $167 $375 $168 $277 forward $97 $-1 #
coedge $-1 -1 $-1 $170 $176 $167 $275 reversed $177 $-1 #
edge $-1 -1 $-1 $278 -63.500000000000007 $377 38.099999999999987 $167 $378 forward @7 unknown #
coedge $-1 -1 $-1 $169 $168 $379 $380 reversed $61 $-1 #
edge $-1 -1 $-1 $381 0 $278 95.25 $273 $382 forward @7 unknown #
vertex $-1 -1 $-1 $277 $383 #
straight-curve $-1 -1 $-1 114.30000000000001 0 76.200000000000017 0 1 0 I I #
coedge $-1 -1 $-1 $379 $384 $172 $281 forward $372 $-1 #
edge $385 -1 $-1 $285 -38.099999999999987 $282 63.500000000000007 $172 $386 forward @7 unknown #
vertex $-1 -1 $-1 $281 $387 #
straight-curve $-1 -1 $-1 19.050000000000011 -2.5399999999999996 76.200000000000017 1 0 0 I I #
coedge $-1 -1 $-1 $374 $174 $384 $388 reversed $165 $-1 #
vertex $-1 -1 $-1 $388 $389 #
straight-curve $-1 -1 $-1 19.049999999999997 -2.5399999999999996 -25.399999999999977 1 0 0 I I #
edge $-1 -1 $-1 $377 -2.5399999999999996 $178 2.5399999999999996 $271 $390 forward @7 unknown #
point $-1 -1 $-1 114.3 -2.5399999999999996 -25.399999999999977 #
point $-1 -1 $-1 114.30000000000001 -2.5399999999999996 76.200000000000017 #
face $-1 -1 $-1 $-1 $391 $23 $-1 $392 forward single #
plane-surface $-1 -1 $-1 -114.3 0 25.40000000000002 1 7.2999214839777088e-032 -1.4599842967955406e-033 -1.4599842967955406e-033 0 -1 forward_v I I I I #
coedge $-1 -1 $-1 $191 $393 $193 $308 forward $182 $-1 #
coedge $-1 -1 $-1 $394 $184 $393 $395 reversed $105 $-1 #
coedge $-1 -1 $-1 $184 $394 $185 $298 forward $105 $-1 #
coedge $-1 -1 $-1 $187 $193 $184 $296 reversed $194 $-1 #
edge $-1 -1 $-1 $299 -63.500000000000007 $396 38.099999999999987 $184 $397 forward @7 unknown #
coedge $-1 -1 $-1 $186 $185 $398 $399 reversed $65 $-1 #
edge $-1 -1 $-1 $400 0 $299 95.249999999999986 $294 $401 forward @7 unknown #
vertex $-1 -1 $-1 $298 $402 #
straight-curve $-1 -1 $-1 -114.3 0 76.200000000000017 0 -1 0 I I #
coedge $-1 -1 $-1 $398 $403 $189 $302 forward $391 $-1 #
edge $404 -1 $-1 $306 -38.099999999999987 $303 63.500000000000007 $189 $405 forward @7 unknown #
vertex $-1 -1 $-1 $302 $406 #
straight-curve $-1 -1 $-1 -19.050000000000011 2.5399999999999996 76.200000000000017 -1 0 0 I I #
coedge $-1 -1 $-1 $393 $191 $403 $407 reversed $182 $-1 #
vertex $-1 -1 $-1 $407 $408 #
straight-curve $-1 -1 $-1 -19.049999999999997 2.5399999999999996 -25.399999999999977 -1 0 0 I I #
edge $-1 -1 $-1 $396 -2.5399999999999996 $195 2.5399999999999996 $292 $409 forward @7 unknown #
point $-1 -1 $-1 -114.29999999999998 2.5399999999999996 -25.399999999999977 #
point $-1 -1 $-1 -114.3 2.5399999999999996 76.200000000000017 #
model_id-kcp-attrib $-1 -1 $-1 $-1 $199 1 1021401956 1021401956 813760513 8 #
face $410 -1 $-1 $229 $223 $8 $-1 $411 forward single #
loop $-1 -1 $-1 $-1 $335 $199 #
plane-surface $-1 -1 $-1 146.04999999999998 2.5399999999999996 114.3 1 0 0 0 0 -25.399999999999999 forward_v I I I I #
coedge $-1 -1 $-1 $412 $333 $336 $413 forward $200 $-1 #
coedge $-1 -1 $-1 $204 $202 $414 $415 forward $114 $-1 #
coedge $-1 -1 $-1 $333 $412 $202 $318 reversed $200 $-1 #
edge $416 -1 $-1 $350 0 $417 0.19999999999999998 $202 $418 forward @7 unknown #
coedge $-1 -1 $-1 $414 $206 $203 $320 reversed $212 $-1 #
edge $419 -1 $-1 $322 0 $209 9 $319 $420 forward @7 unknown #
attrib_edge_convexity-kcp-attrib $-1 -1 $421 $-1 $205 1 #
vertex $-1 -1 $-1 $415 $422 #
straight-curve $-1 -1 $-1 241.29999999999998 5.0799999999999992 12.699999999999999 0 -25.399999999999999 0 I I #
attrib_edge_convexity-kcp-attrib $-1 -1 $423 $-1 $207 1 #
straight-curve $-1 -1 $-1 12.699999999999999 0 12.699999999999971 0 0 25.399999999999999 I I #
convexity-sys-attrib $-1 -1 $-1 $208 $119 #
point $-1 -1 $-1 12.699999999999999 0 12.699999999999971 #
coedge $-1 -1 $-1 $211 $424 $340 $425 reversed $212 $-1 #
edge $426 -1 $-1 $214 0 $345 4 $211 $427 forward @7 unknown #
face $428 -1 $-1 $-1 $212 $8 $-1 $429 forward single #
convexity-sys-attrib $-1 -1 $-1 $213 $121 #
point $-1 -1 $-1 107.94999999999999 0 63.5 #
coedge $-1 -1 $-1 $315 $317 $218 $334 reversed $200 $-1 #
edge $430 -1 $-1 $338 0 $350 3.75 $218 $431 forward @7 unknown #
coedge $-1 -1 $-1 $432 $219 $222 $341 forward $313 $-1 #
coedge $-1 -1 $-1 $219 $432 $315 $413 reversed $313 $-1 #
attrib_edge_convexity-kcp-attrib $-1 -1 $433 $-1 $220 1 #
vertex $-1 -1 $-1 $334 $434 #
straight-curve $-1 -1 $-1 146.04999999999998 5.0799999999999992 165.09999999999999 0 0 -25.399999999999999 I I #
coedge $-1 -1 $-1 $222 $221 $328 $425 forward $223 $-1 #
edge $435 -1 $-1 $225 0 $436 0.19999999999999998 $335 $437 forward @7 unknown #
convexity-sys-attrib $-1 -1 $-1 $224 $127 #
point $-1 -1 $-1 146.04999999999998 5.0799999999999992 165.09999999999999 #
attrib_edge_convexity-kcp-attrib $-1 -1 $438 $-1 $228 1 #
vertex $-1 -1 $-1 $329 $439 #
straight-curve $-1 -1 $-1 107.94999999999999 5.0799999999999992 165.09999999999999 0 -25.399999999999999 0 I I #
model_id-kcp-attrib $-1 -1 $-1 $-1 $229 1 1021401956 1021401956 813760513 10 #
plane-surface $-1 -1 $-1 107.94999999999999 2.5399999999999996 114.3 -1 0 0 0 0 25.399999999999999 forward_v I I I I #
attrib_edge_convexity-kcp-attrib $-1 -1 $440 $-1 $233 1 #
vertex $-1 -1 $-1 $233 $441 #
straight-curve $-1 -1 $-1 241.29999999999998 5.0799999999999992 63.5 0 0 -25.399999999999999 I I #
convexity-sys-attrib $-1 -1 $-1 $234 $136 #
point $-1 -1 $-1 241.29999999999998 5.0799999999999992 12.699999999999999 #
convexity-sys-attrib $-1 -1 $-1 $239 $140 #
model_id-kcp-attrib $-1 -1 $-1 $-1 $242 1 1021401956 1021401956 813760514 5 #
plane-surface $-1 -1 $-1 114.3 0 0 -1 0 0 0 0 1 forward_v I I I I #
coedge $-1 -1 $-1 $247 $245 $249 $361 reversed $146 $-1 #
edge $-1 -1 $-1 $260 -76.200000000000017 $363 76.200000000000017 $259 $442 forward @7 unknown #
vertex $-1 -1 $-1 $361 $443 #
straight-curve $-1 -1 $-1 -114.3 -2.5399999999999996 0 0 0 -1 I I #
edge $-1 -1 $-1 $359 -2.5399999999999996 $363 2.5399999999999996 $357 $444 forward @7 unknown #
straight-curve $-1 -1 $-1 0 -2.5399999999999996 -76.200000000000017 -1 0 0 I I #
vertex $-1 -1 $-1 $252 $445 #
straight-curve $-1 -1 $-1 0 2.5399999999999996 -76.200000000000017 1 0 0 I I #
point $-1 -1 $-1 114.3 2.5399999999999996 -76.200000000000017 #
point $-1 -1 $-1 114.3 -2.5399999999999996 -76.200000000000017 #
straight-curve $-1 -1 $-1 -114.3 0 76.200000000000017 0 -1 0 I I #
point $-1 -1 $-1 -114.3 2.5399999999999996 76.200000000000017 #
point $-1 -1 $-1 -114.3 -2.5399999999999996 76.200000000000017 #
straight-curve $-1 -1 $-1 114.3 -2.5399999999999996 0 0 0 -1 I I #
straight-curve $-1 -1 $-1 114.3 2.5399999999999996 0 0 0 -1 I I #
loop $-1 -1 $-1 $-1 $384 $269 #
plane-surface $-1 -1 $-1 19.050000000000015 0 25.40000000000002 1 7.2999214839777088e-032 1.4599842967955406e-033 1.4599842967955406e-033 0 -1 forward_v I I I I #
coedge $-1 -1 $-1 $271 $284 $272 $376 forward $165 $-1 #
coedge $-1 -1 $-1 $273 $272 $446 $447 reversed $97 $-1 #
edge $-1 -1 $-1 $448 0 $377 95.25 $374 $449 forward @7 unknown #
vertex $-1 -1 $-1 $376 $450 #
straight-curve $-1 -1 $-1 114.30000000000001 2.5399999999999996 12.70000000000001 0 0 -1 I I #
coedge $-1 -1 $-1 $446 $280 $276 $380 forward $372 $-1 #
edge $451 -1 $-1 $282 -2.5399999999999996 $381 2.5399999999999996 $276 $452 forward @7 unknown #
vertex $-1 -1 $-1 $380 $453 #
straight-curve $-1 -1 $-1 19.050000000000011 2.5399999999999996 76.200000000000017 1 0 0 I I #
point $-1 -1 $-1 114.30000000000001 2.5399999999999996 76.200000000000017 #
coedge $-1 -1 $-1 $280 $446 $284 $388 forward $372 $-1 #
convexity-sys-attrib $-1 -1 $-1 $-1 $281 #
straight-curve $-1 -1 $-1 19.050000000000011 -2.5399999999999996 12.70000000000001 0 0 1 I I #
point $-1 -1 $-1 19.050000000000011 -2.5399999999999996 76.200000000000017 #
edge $454 -1 $-1 $448 -2.5399999999999996 $285 2.5399999999999996 $284 $455 forward @7 unknown #
point $-1 -1 $-1 19.049999999999997 -2.5399999999999996 -25.399999999999977 #
straight-curve $-1 -1 $-1 114.30000000000001 0 -25.399999999999977 0 -1 0 I I #
loop $-1 -1 $-1 $-1 $403 $290 #
plane-surface $-1 -1 $-1 -19.050000000000015 0 25.40000000000002 1 7.2999214839777088e-032 -1.4599842967955406e-033 -1.4599842967955406e-033 0 -1 forward_v I I I I #
coedge $-1 -1 $-1 $292 $305 $293 $395 forward $182 $-1 #
coedge $-1 -1 $-1 $294 $293 $456 $457 reversed $105 $-1 #
edge $-1 -1 $-1 $458 0 $396 95.249999999999986 $393 $459 forward @7 unknown #
vertex $-1 -1 $-1 $395 $460 #
straight-curve $-1 -1 $-1 -114.3 -2.5399999999999996 12.70000000000001 0 0 -1 I I #
coedge $-1 -1 $-1 $456 $301 $297 $399 forward $391 $-1 #
edge $461 -1 $-1 $303 -2.5399999999999996 $400 2.5399999999999996 $297 $462 forward @7 unknown #
vertex $-1 -1 $-1 $399 $463 #
straight-curve $-1 -1 $-1 -19.050000000000011 -2.5399999999999996 76.200000000000017 -1 0 0 I I #
point $-1 -1 $-1 -114.3 -2.5399999999999996 76.200000000000017 #
coedge $-1 -1 $-1 $301 $456 $305 $407 forward $391 $-1 #
convexity-sys-attrib $-1 -1 $-1 $-1 $302 #
straight-curve $-1 -1 $-1 -19.050000000000011 2.5399999999999996 12.70000000000001 0 0 1 I I #
point $-1 -1 $-1 -19.050000000000011 2.5399999999999996 76.200000000000017 #
edge $464 -1 $-1 $458 -2.5399999999999996 $306 2.5399999999999996 $305 $465 forward @7 unknown #
point $-1 -1 $-1 -19.049999999999997 2.5399999999999996 -25.399999999999977 #
straight-curve $-1 -1 $-1 -114.3 0 -25.399999999999977 0 1 0 I I #
model_id-kcp-attrib $-1 -1 $-1 $-1 $312 1 1021401956 1021401956 813760513 9 #
plane-surface $-1 -1 $-1 127 2.5399999999999996 165.09999999999999 0 0 1 25.399999999999999 0 0 forward_v I I I I #
coedge $-1 -1 $-1 $317 $315 $466 $467 forward $200 $-1 #
edge $468 -1 $-1 $338 0 $469 0.19999999999999998 $315 $470 forward @7 unknown #
coedge $-1 -1 $-1 $466 $319 $316 $415 reversed $212 $-1 #
edge $-1 -1 $-1 $417 0 $322 2 $414 $471 forward @7 unknown #
attrib_edge_convexity-kcp-attrib $-1 -1 $472 $-1 $318 1 #
vertex $-1 -1 $-1 $467 $473 #
straight-curve $-1 -1 $-1 241.29999999999998 5.0799999999999992 63.5 0 -25.399999999999999 0 I I #
attrib_edge_convexity-kcp-attrib $-1 -1 $474 $-1 $320 1 #
straight-curve $-1 -1 $-1 241.29999999999998 0 12.699999999999999 -25.399999999999999 0 0 I I #
convexity-sys-attrib $-1 -1 $-1 $321 $205 #
point $-1 -1 $-1 241.29999999999998 0 12.699999999999999 #
convexity-sys-attrib $-1 -1 $-1 $324 $207 #
coedge $-1 -1 $-1 $328 $466 $432 $475 reversed $212 $-1 #
edge $-1 -1 $-1 $345 0 $436 1.4999999999999998 $328 $476 forward @7 unknown #
attrib_edge_convexity-kcp-attrib $-1 -1 $477 $-1 $329 1 #
straight-curve $-1 -1 $-1 107.94999999999999 0 63.5 0 0 25.399999999999999 I I #
model_id-kcp-attrib $-1 -1 $-1 $-1 $330 1 1021401956 1021401956 813760513 11 #
plane-surface $-1 -1 $-1 0 0 0 0 -1 0 25.399999999999999 0 0 forward_v I I I I #
attrib_edge_convexity-kcp-attrib $-1 -1 $478 $-1 $334 1 #
straight-curve $-1 -1 $-1 146.04999999999998 5.0799999999999992 63.5 25.399999999999999 0 0 I I #
coedge $-1 -1 $-1 $336 $335 $424 $475 forward $313 $-1 #
convexity-sys-attrib $-1 -1 $-1 $337 $220 #
point $-1 -1 $-1 146.04999999999998 5.0799999999999992 63.5 #
attrib_edge_convexity-kcp-attrib $-1 -1 $479 $-1 $341 1 #
vertex $-1 -1 $-1 $425 $480 #
straight-curve $-1 -1 $-1 146.04999999999998 5.0799999999999992 165.09999999999999 0 -25.399999999999999 0 I I #
convexity-sys-attrib $-1 -1 $-1 $344 $228 #
point $-1 -1 $-1 107.94999999999999 0 165.09999999999999 #
convexity-sys-attrib $-1 -1 $-1 $349 $233 #
point $-1 -1 $-1 241.29999999999998 5.0799999999999992 63.5 #
straight-curve $-1 -1 $-1 -114.3 2.5399999999999996 0 0 0 -1 I I #
point $-1 -1 $-1 -114.3 -2.5399999999999996 -76.200000000000017 #
straight-curve $-1 -1 $-1 -114.3 0 -76.200000000000017 0 1 0 I I #
point $-1 -1 $-1 -114.3 2.5399999999999996 -76.200000000000017 #
coedge $-1 -1 $-1 $384 $379 $375 $447 forward $372 $-1 #
edge $481 -1 $-1 $381 -63.500000000000007 $448 38.099999999999987 $375 $482 forward @7 unknown #
vertex $-1 -1 $-1 $388 $483 #
straight-curve $-1 -1 $-1 19.049999999999997 2.5399999999999996 -25.399999999999977 1 0 0 I I #
point $-1 -1 $-1 114.3 2.5399999999999996 -25.399999999999977 #
convexity-sys-attrib $-1 -1 $-1 $-1 $380 #
straight-curve $-1 -1 $-1 19.050000000000011 0 76.200000000000017 0 1 0 I I #
point $-1 -1 $-1 19.050000000000011 2.5399999999999996 76.200000000000017 #
convexity-sys-attrib $-1 -1 $-1 $-1 $388 #
straight-curve $-1 -1 $-1 19.050000000000011 0 -25.399999999999977 0 -1 0 I I #
coedge $-1 -1 $-1 $403 $398 $394 $457 forward $391 $-1 #
edge $484 -1 $-1 $400 -63.500000000000007 $458 38.099999999999987 $394 $485 forward @7 unknown #
vertex $-1 -1 $-1 $407 $486 #
straight-curve $-1 -1 $-1 -19.049999999999997 -2.5399999999999996 -25.399999999999977 -1 0 0 I I #
point $-1 -1 $-1 -114.29999999999998 -2.5399999999999996 -25.399999999999977 #
convexity-sys-attrib $-1 -1 $-1 $-1 $399 #
straight-curve $-1 -1 $-1 -19.050000000000011 0 76.200000000000017 0 -1 0 I I #
point $-1 -1 $-1 -19.050000000000011 -2.5399999999999996 76.200000000000017 #
convexity-sys-attrib $-1 -1 $-1 $-1 $407 #
straight-curve $-1 -1 $-1 -19.050000000000011 0 -25.399999999999977 0 1 0 I I #
coedge $-1 -1 $-1 $424 $414 $412 $467 reversed $212 $-1 #
edge $487 -1 $-1 $469 0 $417 3.75 $466 $488 forward @7 unknown #
attrib_edge_convexity-kcp-attrib $-1 -1 $489 $-1 $413 2 #
vertex $-1 -1 $-1 $475 $490 #
straight-curve $-1 -1 $-1 146.04999999999998 5.0799999999999992 63.5 0 -25.399999999999999 0 I I #
straight-curve $-1 -1 $-1 241.29999999999998 0 63.5 0 0 -25.399999999999999 I I #
convexity-sys-attrib $-1 -1 $-1 $416 $318 #
point $-1 -1 $-1 241.29999999999998 0 63.5 #
convexity-sys-attrib $-1 -1 $-1 $419 $320 #
edge $491 -1 $-1 $436 0 $469 4 $424 $492 forward @7 unknown #
straight-curve $-1 -1 $-1 107.94999999999999 0 165.09999999999999 25.399999999999999 0 0 I I #
convexity-sys-attrib $-1 -1 $-1 $426 $329 #
convexity-sys-attrib $-1 -1 $-1 $430 $334 #
convexity-sys-attrib $-1 -1 $-1 $435 $341 #
point $-1 -1 $-1 146.04999999999998 0 165.09999999999999 #
convexity-sys-attrib $-1 -1 $-1 $-1 $447 #
straight-curve $-1 -1 $-1 19.050000000000011 2.5399999999999996 12.70000000000001 0 0 -1 I I #
point $-1 -1 $-1 19.049999999999997 2.5399999999999996 -25.399999999999977 #
convexity-sys-attrib $-1 -1 $-1 $-1 $457 #
straight-curve $-1 -1 $-1 -19.050000000000011 -2.5399999999999996 12.70000000000001 0 0 -1 I I #
point $-1 -1 $-1 -19.049999999999997 -2.5399999999999996 -25.399999999999977 #
attrib_edge_convexity-kcp-attrib $-1 -1 $493 $-1 $467 1 #
straight-curve $-1 -1 $-1 146.04999999999998 0 63.5 25.399999999999999 0 0 I I #
convexity-sys-attrib $-1 -1 $-1 $468 $413 #
point $-1 -1 $-1 146.04999999999998 0 63.5 #
attrib_edge_convexity-kcp-attrib $-1 -1 $494 $-1 $475 1 #
straight-curve $-1 -1 $-1 146.04999999999998 0 165.09999999999999 0 0 -25.399999999999999 I I #
convexity-sys-attrib $-1 -1 $-1 $487 $467 #
convexity-sys-attrib $-1 -1 $-1 $491 $475 #
End-of-ACIS-data 