600 0 1 0           
114 GICL ACIS Healer - Source: /gicl/data5/repository/PTC/V20/web_demos/models/shtmtl_auto/part_multi_31.prt.sat - 6 0 18 ACIS 6.0.3 Solaris 24 Sat Apr 13 20:47:43 2002 
1 9.999999999999999547e-07 1.000000000000000036e-10 
body $-1 $1 $-1 $-1 #
lump $-1 $-1 $2 $0 #
shell $-1 $-1 $-1 $3 $-1 $1 #
face $-1 $4 $5 $2 $-1 $6 reversed single #
face $-1 $7 $8 $2 $-1 $9 forward single #
loop $-1 $-1 $10 $3 #
plane-surface $-1 0 5.079999999999999183 0 0 -1 0 25.39999999999999858 0 0 forward_v I I I I #
face $-1 $11 $12 $2 $-1 $13 forward single #
loop $-1 $-1 $14 $4 #
plane-surface $-1 60.32499999999999574 2.539999999999999591 63.5 0 0 1 25.39999999999999858 0 0 forward_v I I I I #
coedge $-1 $15 $16 $17 $18 forward $5 $-1 #
face $-1 $19 $20 $2 $-1 $21 forward single #
loop $-1 $-1 $22 $7 #
plane-surface $-1 12.69999999999999929 2.539999999999999591 38.09999999999999432 -1 0 0 0 0 25.39999999999999858 forward_v I I I I #
coedge $-1 $23 $17 $24 $25 forward $8 $-1 #
coedge $-1 $26 $10 $27 $28 forward $5 $-1 #
coedge $-1 $10 $29 $30 $31 forward $5 $-1 #
coedge $-1 $14 $32 $10 $18 reversed $8 $-1 #
edge $-1 $33 0 $34 3.749999999999999556 $10 $35 forward 7 unknown #
face $-1 $36 $37 $2 $-1 $38 forward single #
loop $-1 $-1 $39 $11 #
plane-surface $-1 127 2.539999999999999591 12.69999999999999929 0 0 -1 -25.39999999999999858 0 0 forward_v I I I I #
coedge $-1 $40 $30 $41 $42 forward $12 $-1 #
coedge $-1 $32 $14 $43 $44 forward $8 $-1 #
coedge $-1 $30 $40 $14 $25 reversed $12 $-1 #
edge $-1 $33 0 $45 0.1999999999999999833 $24 $46 forward 7 unknown #
coedge $-1 $47 $15 $48 $49 forward $5 $-1 #
coedge $-1 $50 $51 $15 $28 reversed $52 $-1 #
edge $-1 $34 0 $53 4 $15 $54 forward 7 unknown #
coedge $-1 $16 $55 $56 $57 forward $5 $-1 #
coedge $-1 $22 $24 $16 $31 reversed $12 $-1 #
edge $-1 $58 0 $33 2.000000000000001332 $16 $59 forward 7 unknown #
coedge $-1 $17 $23 $50 $60 reversed $8 $-1 #
vertex $-1 $31 $61 #
vertex $-1 $28 $62 #
straight-curve $-1 12.69999999999999929 5.079999999999999183 63.5 25.39999999999999858 0 0 I I #
face $-1 $63 $64 $2 $-1 $65 forward single #
loop $-1 $-1 $66 $19 #
plane-surface $-1 241.2999999999999829 2.539999999999999591 38.09999999999999432 1 0 0 0 0 -25.39999999999999858 forward_v I I I I #
coedge $-1 $67 $56 $68 $69 forward $20 $-1 #
coedge $-1 $24 $22 $70 $71 forward $12 $-1 #
coedge $-1 $56 $67 $22 $42 reversed $20 $-1 #
edge $-1 $58 0 $72 0.1999999999999999833 $22 $73 forward 7 unknown #
coedge $-1 $70 $74 $23 $44 reversed $75 $-1 #
edge $-1 $45 0 $76 3.749999999999999556 $43 $77 forward 7 unknown #
vertex $-1 $71 $78 #
straight-curve $-1 12.69999999999999929 5.079999999999999183 63.5 0 -25.39999999999999858 0 I I #
coedge $-1 $79 $26 $80 $81 forward $5 $-1 #
coedge $-1 $82 $83 $26 $49 reversed $84 $-1 #
edge $-1 $53 0 $85 1.499999999999999778 $26 $86 forward 7 unknown #
coedge $-1 $87 $27 $32 $60 forward $52 $-1 #
coedge $-1 $27 $87 $82 $88 reversed $52 $-1 #
loop $-1 $-1 $50 $89 #
vertex $-1 $49 $90 #
straight-curve $-1 107.9499999999999886 5.079999999999999183 63.5 0 0 25.39999999999999858 I I #
coedge $-1 $29 $79 $91 $92 forward $5 $-1 #
coedge $-1 $39 $41 $29 $57 reversed $20 $-1 #
edge $-1 $93 0 $58 9 $29 $94 forward 7 unknown #
vertex $-1 $31 $95 #
straight-curve $-1 12.69999999999999929 5.079999999999999183 12.69999999999997087 0 0 25.39999999999999858 I I #
edge $-1 $34 0 $76 0.1999999999999999833 $50 $96 forward 7 unknown #
point $-1 12.69999999999999929 5.079999999999999183 63.5 #
point $-1 107.9499999999999886 5.079999999999999183 63.5 #
face $-1 $97 $98 $2 $-1 $99 forward single #
loop $-1 $-1 $100 $36 #
plane-surface $-1 193.6749999999999829 2.539999999999999591 63.5 0 0 1 25.39999999999999858 0 0 forward_v I I I I #
coedge $-1 $101 $91 $102 $103 forward $37 $-1 #
coedge $-1 $41 $39 $104 $105 forward $20 $-1 #
coedge $-1 $91 $101 $39 $69 reversed $37 $-1 #
edge $-1 $93 0 $106 0.1999999999999999833 $39 $107 forward 7 unknown #
coedge $-1 $104 $43 $40 $71 reversed $75 $-1 #
edge $-1 $72 0 $45 2.000000000000001332 $70 $108 forward 7 unknown #
vertex $-1 $71 $109 #
straight-curve $-1 12.69999999999999929 5.079999999999999183 12.69999999999999929 0 -25.39999999999999858 0 I I #
coedge $-1 $43 $110 $87 $111 reversed $75 $-1 #
loop $-1 $-1 $104 $112 #
vertex $-1 $44 $113 #
straight-curve $-1 12.69999999999999929 0 63.5 25.39999999999999858 0 0 I I #
point $-1 12.69999999999999929 0 63.5 #
coedge $-1 $55 $47 $114 $115 forward $5 $-1 #
coedge $-1 $116 $117 $47 $81 reversed $98 $-1 #
edge $-1 $85 0 $118 4 $47 $119 forward 7 unknown #
coedge $-1 $120 $48 $51 $88 forward $84 $-1 #
coedge $-1 $48 $120 $116 $121 reversed $84 $-1 #
loop $-1 $-1 $82 $97 #
vertex $-1 $81 $122 #
straight-curve $-1 107.9499999999999886 5.079999999999999183 165.0999999999999943 25.39999999999999858 0 0 I I #
coedge $-1 $51 $50 $74 $111 forward $52 $-1 #
edge $-1 $53 0 $123 0.1999999999999999833 $82 $124 forward 7 unknown #
face $-1 $112 $52 $2 $-1 $125 forward single #
point $-1 107.9499999999999886 5.079999999999999183 165.0999999999999943 #
coedge $-1 $66 $68 $55 $92 reversed $37 $-1 #
edge $-1 $126 0 $93 2 $55 $127 forward 7 unknown #
vertex $-1 $57 $128 #
straight-curve $-1 241.2999999999999829 5.079999999999999183 12.69999999999999929 -25.39999999999999858 0 0 I I #
point $-1 12.69999999999999929 5.079999999999999183 12.69999999999997087 #
straight-curve $-1 107.9499999999999886 5.079999999999999183 63.5 0 -25.39999999999999858 0 I I #
face $-1 $89 $84 $2 $-1 $129 forward single #
loop $-1 $-1 $116 $63 #
plane-surface $-1 146.0499999999999829 2.539999999999999591 114.2999999999999972 1 0 0 0 0 -25.39999999999999858 forward_v I I I I #
coedge $-1 $130 $114 $117 $131 forward $64 $-1 #
coedge $-1 $68 $66 $132 $133 forward $37 $-1 #
coedge $-1 $114 $130 $66 $103 reversed $64 $-1 #
edge $-1 $126 0 $134 0.1999999999999999833 $66 $135 forward 7 unknown #
coedge $-1 $132 $70 $67 $105 reversed $75 $-1 #
edge $-1 $106 0 $72 9 $104 $136 forward 7 unknown #
vertex $-1 $133 $137 #
straight-curve $-1 241.2999999999999829 5.079999999999999183 12.69999999999999929 0 -25.39999999999999858 0 I I #
straight-curve $-1 12.69999999999999929 0 12.69999999999997087 0 0 25.39999999999999858 I I #
point $-1 12.69999999999999929 0 12.69999999999997087 #
coedge $-1 $74 $138 $120 $139 reversed $75 $-1 #
edge $-1 $76 0 $123 4 $74 $140 forward 7 unknown #
face $-1 $-1 $75 $2 $-1 $141 forward single #
point $-1 107.9499999999999886 0 63.5 #
coedge $-1 $100 $102 $79 $115 reversed $64 $-1 #
edge $-1 $118 0 $126 3.75 $79 $142 forward 7 unknown #
coedge $-1 $143 $80 $83 $121 forward $98 $-1 #
coedge $-1 $80 $143 $100 $131 reversed $98 $-1 #
vertex $-1 $115 $144 #
straight-curve $-1 146.0499999999999829 5.079999999999999183 165.0999999999999943 0 0 -25.39999999999999858 I I #
coedge $-1 $83 $82 $110 $139 forward $84 $-1 #
edge $-1 $85 0 $145 0.1999999999999999833 $116 $146 forward 7 unknown #
point $-1 146.0499999999999829 5.079999999999999183 165.0999999999999943 #
vertex $-1 $111 $147 #
straight-curve $-1 107.9499999999999886 5.079999999999999183 165.0999999999999943 0 -25.39999999999999858 0 I I #
plane-surface $-1 107.9499999999999886 2.539999999999999591 114.2999999999999972 -1 0 0 0 0 25.39999999999999858 forward_v I I I I #
vertex $-1 $92 $148 #
straight-curve $-1 241.2999999999999829 5.079999999999999183 63.5 0 0 -25.39999999999999858 I I #
point $-1 241.2999999999999829 5.079999999999999183 12.69999999999999929 #
plane-surface $-1 127 2.539999999999999591 165.0999999999999943 0 0 1 25.39999999999999858 0 0 forward_v I I I I #
coedge $-1 $102 $100 $149 $150 forward $64 $-1 #
edge $-1 $118 0 $151 0.1999999999999999833 $100 $152 forward 7 unknown #
coedge $-1 $149 $104 $101 $133 reversed $75 $-1 #
edge $-1 $134 0 $106 2 $132 $153 forward 7 unknown #
vertex $-1 $150 $154 #
straight-curve $-1 241.2999999999999829 5.079999999999999183 63.5 0 -25.39999999999999858 0 I I #
straight-curve $-1 241.2999999999999829 0 12.69999999999999929 -25.39999999999999858 0 0 I I #
point $-1 241.2999999999999829 0 12.69999999999999929 #
coedge $-1 $110 $149 $143 $155 reversed $75 $-1 #
edge $-1 $123 0 $145 1.499999999999999778 $110 $156 forward 7 unknown #
straight-curve $-1 107.9499999999999886 0 63.5 0 0 25.39999999999999858 I I #
plane-surface $-1 0 0 0 0 -1 0 25.39999999999999858 0 0 forward_v I I I I #
straight-curve $-1 146.0499999999999829 5.079999999999999183 63.5 25.39999999999999858 0 0 I I #
coedge $-1 $117 $116 $138 $155 forward $98 $-1 #
point $-1 146.0499999999999829 5.079999999999999183 63.5 #
vertex $-1 $139 $157 #
straight-curve $-1 146.0499999999999829 5.079999999999999183 165.0999999999999943 0 -25.39999999999999858 0 I I #
point $-1 107.9499999999999886 0 165.0999999999999943 #
point $-1 241.2999999999999829 5.079999999999999183 63.5 #
coedge $-1 $138 $132 $130 $150 reversed $75 $-1 #
edge $-1 $151 0 $134 3.75 $149 $158 forward 7 unknown #
vertex $-1 $155 $159 #
straight-curve $-1 146.0499999999999829 5.079999999999999183 63.5 0 -25.39999999999999858 0 I I #
straight-curve $-1 241.2999999999999829 0 63.5 0 0 -25.39999999999999858 I I #
point $-1 241.2999999999999829 0 63.5 #
edge $-1 $145 0 $151 4 $138 $160 forward 7 unknown #
straight-curve $-1 107.9499999999999886 0 165.0999999999999943 25.39999999999999858 0 0 I I #
point $-1 146.0499999999999829 0 165.0999999999999943 #
straight-curve $-1 146.0499999999999829 0 63.5 25.39999999999999858 0 0 I I #
point $-1 146.0499999999999829 0 63.5 #
straight-curve $-1 146.0499999999999829 0 165.0999999999999943 0 0 -25.39999999999999858 I I #
End-of-ACIS-data 