600 0 1 0           
111 GICL ACIS Healer - Source: /gicl/data5/repository/PTC/V20/web_demos/models/shtmtl_auto/part_ark_1.prt.sat - 6 0 18 ACIS 6.0.3 Solaris 24 Sat Apr 13 20:47:40 2002 
1 9.999999999999999547e-07 1.000000000000000036e-10 
body $-1 $1 $-1 $-1 #
lump $-1 $-1 $2 $0 #
shell $-1 $-1 $-1 $3 $-1 $1 #
face $-1 $4 $5 $2 $-1 $6 reversed single #
face $-1 $7 $8 $2 $-1 $9 forward single #
loop $-1 $-1 $10 $3 #
plane-surface $-1 0 5.079999999999999183 0 0 -1 0 25.39999999999999858 0 0 forward_v I I I I #
face $-1 $11 $12 $2 $-1 $13 forward single #
loop $-1 $-1 $14 $4 #
plane-surface $-1 279.3999999999999773 2.539999999999999591 0 0 0 -1 25.39999999999999858 0 0 forward_v I I I I #
coedge $-1 $15 $16 $17 $18 reversed $5 $-1 #
face $-1 $19 $20 $2 $-1 $21 forward single #
loop $-1 $-1 $22 $7 #
plane-surface $-1 0 0 0 0 -1 0 25.39999999999999858 0 0 forward_v I I I I #
coedge $-1 $23 $24 $25 $26 reversed $8 $-1 #
coedge $-1 $27 $10 $28 $29 forward $5 $-1 #
coedge $-1 $10 $30 $31 $32 reversed $5 $-1 #
coedge $-1 $24 $23 $10 $18 forward $8 $-1 #
edge $-1 $33 0 $34 11.99999999999999822 $10 $35 forward 7 unknown #
face $-1 $36 $37 $2 $-1 $38 forward single #
loop $-1 $-1 $39 $11 #
plane-surface $-1 280.6578949476446496 2.539999999999999591 50.87151418645684231 0 0 1 25.39999999999999858 0 0 forward_v I I I I #
coedge $-1 $40 $41 $42 $43 reversed $12 $-1 #
coedge $-1 $17 $14 $44 $45 forward $8 $-1 #
coedge $-1 $14 $17 $46 $47 forward $8 $-1 #
coedge $-1 $41 $48 $14 $26 forward $12 $-1 #
edge $-1 $49 0 $50 11.99999999999999822 $14 $51 forward 7 unknown #
coedge $-1 $52 $15 $53 $54 forward $5 $-1 #
coedge $-1 $44 $55 $15 $29 reversed $56 $-1 #
edge $-1 $33 0 $57 21 $15 $58 forward 7 unknown #
coedge $-1 $16 $59 $39 $60 forward $5 $-1 #
coedge $-1 $61 $62 $16 $32 forward $63 $-1 #
edge $-1 $34 0 $64 2.002815519151844192 $16 $65 forward 7 unknown #
vertex $-1 $29 $66 #
vertex $-1 $32 $67 #
straight-curve $-1 0 5.079999999999999183 0 25.39999999999999858 0 0 I I #
face $-1 $68 $69 $2 $-1 $70 forward single #
loop $-1 $-1 $71 $19 #
plane-surface $-1 77.45789494764473204 2.539999999999999591 63.84089045711525046 1 0 0 0 0 -25.39999999999999858 forward_v I I I I #
coedge $-1 $72 $73 $30 $60 reversed $20 $-1 #
coedge $-1 $74 $22 $75 $76 reversed $12 $-1 #
coedge $-1 $22 $25 $77 $78 forward $12 $-1 #
coedge $-1 $73 $72 $22 $43 forward $20 $-1 #
edge $-1 $79 0 $80 8.950476576864380363 $22 $81 forward 7 unknown #
coedge $-1 $82 $28 $23 $45 reversed $56 $-1 #
edge $-1 $49 0 $33 0.1999999999999999833 $44 $83 forward 7 unknown #
coedge $-1 $84 $85 $24 $47 reversed $86 $-1 #
edge $-1 $34 0 $50 0.1999999999999999833 $46 $87 forward 7 unknown #
coedge $-1 $25 $88 $82 $89 reversed $12 $-1 #
vertex $-1 $89 $90 #
vertex $-1 $47 $91 #
straight-curve $-1 0 0 0 25.39999999999999858 0 0 I I #
coedge $-1 $92 $27 $93 $94 reversed $5 $-1 #
coedge $-1 $95 $96 $27 $54 reversed $97 $-1 #
edge $-1 $57 0 $98 6.129959550720675665 $27 $99 forward 7 unknown #
coedge $-1 $28 $82 $95 $100 forward $56 $-1 #
loop $-1 $-1 $55 $101 #
vertex $-1 $54 $102 #
straight-curve $-1 0 5.079999999999999183 0 0 0 25.39999999999999858 I I #
coedge $-1 $30 $103 $104 $105 forward $5 $-1 #
edge $-1 $106 0 $64 8.950476576864380363 $30 $107 forward 7 unknown #
coedge $-1 $108 $31 $109 $110 forward $63 $-1 #
coedge $-1 $31 $108 $84 $111 reversed $63 $-1 #
loop $-1 $-1 $62 $112 #
vertex $-1 $32 $113 #
straight-curve $-1 304.7999999999999545 5.079999999999999183 0 0 0 25.39999999999999858 I I #
point $-1 0 5.079999999999999183 0 #
point $-1 304.7999999999999545 5.079999999999999183 0 #
face $-1 $114 $115 $2 $-1 $116 forward single #
loop $-1 $-1 $117 $36 #
plane-surface $-1 64.488518676986331 2.539999999999999591 76.81026672777366571 0 0 1 25.39999999999999858 0 0 forward_v I I I I #
coedge $-1 $75 $104 $118 $119 forward $37 $-1 #
coedge $-1 $42 $39 $120 $121 forward $20 $-1 #
coedge $-1 $39 $42 $122 $123 forward $20 $-1 #
coedge $-1 $124 $40 $125 $126 reversed $12 $-1 #
coedge $-1 $120 $71 $40 $76 forward $37 $-1 #
edge $-1 $127 0 $79 1.021210729973103248 $40 $128 forward 7 unknown #
coedge $-1 $129 $130 $41 $78 reversed $131 $-1 #
edge $-1 $50 0 $80 2.002815519151844192 $77 $132 forward 7 unknown #
vertex $-1 $76 $133 #
vertex $-1 $134 $135 #
straight-curve $-1 77.45789494764473204 0 50.87151418645684231 25.39999999999999858 0 0 I I #
coedge $-1 $55 $44 $48 $89 forward $56 $-1 #
straight-curve $-1 0 0 0 0 25.39999999999999858 0 I I #
coedge $-1 $136 $46 $62 $111 forward $86 $-1 #
coedge $-1 $46 $136 $129 $137 reversed $86 $-1 #
loop $-1 $-1 $85 $138 #
straight-curve $-1 304.7999999999999545 5.079999999999999183 0 0 -25.39999999999999858 0 I I #
coedge $-1 $48 $139 $140 $141 reversed $12 $-1 #
edge $-1 $49 0 $142 21 $82 $143 forward 7 unknown #
point $-1 0 0 0 #
point $-1 304.7999999999999545 0 0 #
coedge $-1 $144 $52 $145 $146 forward $5 $-1 #
coedge $-1 $147 $148 $52 $94 forward $149 $-1 #
edge $-1 $150 -8.726628056106228395e-17 $98 2.775120895108700747 $52 $151 forward 7 unknown #
coedge $-1 $140 $53 $55 $100 reversed $97 $-1 #
coedge $-1 $53 $140 $147 $152 reversed $97 $-1 #
loop $-1 $-1 $53 $153 #
vertex $-1 $94 $154 #
straight-curve $-1 0 5.079999999999999183 533.3999999999999773 25.39999999999999858 0 0 I I #
edge $-1 $142 0 $57 0.1999999999999999833 $55 $155 forward 7 unknown #
face $-1 $156 $56 $2 $-1 $157 reversed single #
point $-1 0 5.079999999999999183 533.3999999999999773 #
coedge $-1 $59 $144 $158 $159 forward $5 $-1 #
coedge $-1 $71 $120 $59 $105 reversed $37 $-1 #
edge $-1 $160 0 $106 1.021210729973103248 $59 $161 forward 7 unknown #
vertex $-1 $60 $162 #
straight-curve $-1 77.45789494764473204 5.079999999999999183 50.87151418645684231 25.39999999999999858 0 0 I I #
coedge $-1 $62 $61 $163 $164 reversed $63 $-1 #
coedge $-1 $122 $165 $61 $110 reversed $166 $-1 #
edge $-1 $64 0 $167 0.4141592653589815654 $109 $168 forward 7 unknown #
edge $-1 $34 0 $169 0.4141592653589771245 $84 $170 forward 7 unknown #
face $-1 $138 $63 $2 $-1 $171 forward single #
point $-1 304.7999999999999545 5.079999999999999183 50.87151418645684231 #
face $-1 $172 $173 $2 $-1 $174 forward single #
loop $-1 $-1 $175 $68 #
plane-surface $-1 51.51914240632791575 2.539999999999999591 280.0102667277736259 1 0 0 0 0 -25.39999999999999858 forward_v I I I I #
coedge $-1 $125 $158 $176 $177 forward $69 $-1 #
coedge $-1 $158 $125 $71 $119 reversed $69 $-1 #
edge $-1 $160 0 $127 0.1999999999999999833 $71 $178 forward 7 unknown #
coedge $-1 $104 $75 $72 $121 reversed $37 $-1 #
edge $-1 $106 0 $79 0.1999999999999999833 $72 $179 forward 7 unknown #
coedge $-1 $180 $109 $73 $123 reversed $166 $-1 #
edge $-1 $80 0 $64 0.1999999999999999833 $122 $181 forward 7 unknown #
coedge $-1 $182 $74 $183 $184 reversed $12 $-1 #
coedge $-1 $118 $117 $74 $126 forward $69 $-1 #
edge $-1 $185 0 $127 1.021210729973103026 $74 $186 forward 7 unknown #
vertex $-1 $126 $187 #
straight-curve $-1 77.45789494764473204 0 76.81026672777366571 0 0 -25.39999999999999858 I I #
coedge $-1 $188 $77 $85 $137 forward $131 $-1 #
coedge $-1 $77 $188 $180 $134 reversed $131 $-1 #
loop $-1 $-1 $130 $189 #
straight-curve $-1 304.7999999999999545 0 0 0 0 25.39999999999999858 I I #
point $-1 77.45789494764473204 0 50.87151418645684231 #
edge $-1 $80 0 $190 0.4141592653589838413 $180 $191 forward 7 unknown #
point $-1 304.7999999999999545 0 50.87151418645684231 #
coedge $-1 $85 $84 $192 $193 forward $86 $-1 #
edge $-1 $50 0 $194 0.4141592653589793449 $85 $195 forward 7 unknown #
face $-1 $189 $86 $2 $-1 $196 forward single #
coedge $-1 $88 $182 $197 $198 forward $12 $-1 #
coedge $-1 $96 $95 $88 $141 forward $97 $-1 #
edge $-1 $142 0 $199 6.129959550720675665 $88 $200 forward 7 unknown #
vertex $-1 $89 $201 #
straight-curve $-1 0 0 0 0 0 25.39999999999999858 I I #
coedge $-1 $103 $92 $202 $203 forward $5 $-1 #
coedge $-1 $204 $205 $92 $146 reversed $173 $-1 #
edge $-1 $150 0 $206 4.101646857558141512 $92 $207 forward 7 unknown #
coedge $-1 $197 $93 $96 $152 forward $149 $-1 #
coedge $-1 $93 $197 $204 $208 reversed $149 $-1 #
loop $-1 $-1 $147 $172 #
vertex $-1 $146 $209 #
ellipse-curve $-1 160.3514162297221617 5.079999999999999183 508.3051333638867391 0 1 0 -4.650443641417469465 0 -25.09486663611312096 1 I I #
edge $-1 $98 0 $199 0.1999999999999999833 $96 $210 forward 7 unknown #
face $-1 $101 $97 $2 $-1 $211 reversed single #
point $-1 155.7009725883051487 5.079999999999999183 533.3999999999999773 #
straight-curve $-1 0 0 533.3999999999999773 0 25.39999999999999858 0 I I #
face $-1 $112 $166 $2 $-1 $212 forward single #
plane-surface $-1 0 2.539999999999999591 266.6999999999999886 1 0 0 0 0 25.39999999999999858 forward_v I I I I #
coedge $-1 $117 $118 $103 $159 reversed $69 $-1 #
edge $-1 $213 0 $160 1.021210729973103026 $103 $214 forward 7 unknown #
vertex $-1 $105 $215 #
straight-curve $-1 77.45789494764473204 5.079999999999999183 76.81026672777366571 0 0 -25.39999999999999858 I I #
point $-1 77.45789494764473204 5.079999999999999183 50.87151418645684231 #
coedge $-1 $216 $217 $108 $164 forward $218 $-1 #
edge $-1 $169 0 $167 2.002815519151844192 $163 $219 forward 7 unknown #
coedge $-1 $109 $180 $220 $221 forward $166 $-1 #
loop $-1 $-1 $109 $156 #
vertex $-1 $221 $222 #
straight-curve $-1 304.7999999999999545 5.079999999999999183 50.87151418645684231 25.39999999999999858 -9.362229069395561255e-14 0 I I #
vertex $-1 $193 $223 #
straight-curve $-1 304.7999999999999545 5.079999999999999183 0 25.39999999999999858 -9.362229069395681162e-14 0 I I #
plane-surface $-1 304.7999999999999545 5.079999999999999183 0 3.675178358715236078e-15 1 0 25.39999999999999858 -9.334953031136699384e-14 0 forward_v I I I I #
face $-1 $153 $149 $2 $-1 $224 reversed single #
loop $-1 $-1 $204 $114 #
plane-surface $-1 103.6100574973163191 2.539999999999999591 483.2102667277736145 0 0 -1 -25.39999999999999858 0 0 forward_v I I I I #
coedge $-1 $183 $202 $205 $225 forward $115 $-1 #
coedge $-1 $202 $183 $117 $177 reversed $115 $-1 #
edge $-1 $213 0 $185 0.1999999999999999833 $117 $226 forward 7 unknown #
straight-curve $-1 77.45789494764473204 5.079999999999999183 76.81026672777366571 0 -25.39999999999999858 0 I I #
straight-curve $-1 77.45789494764473204 5.079999999999999183 50.87151418645684231 0 -25.39999999999999858 0 I I #
coedge $-1 $165 $122 $130 $134 forward $166 $-1 #
straight-curve $-1 304.7999999999999545 0 50.87151418645684231 0 25.39999999999999858 0 I I #
coedge $-1 $139 $124 $227 $228 reversed $12 $-1 #
coedge $-1 $176 $175 $124 $184 forward $115 $-1 #
edge $-1 $229 0 $185 16 $124 $230 forward 7 unknown #
vertex $-1 $184 $231 #
straight-curve $-1 51.51914240632791575 0 76.81026672777366571 25.39999999999999858 0 0 I I #
point $-1 77.45789494764473204 0 76.81026672777366571 #
coedge $-1 $130 $129 $232 $233 forward $131 $-1 #
face $-1 $234 $131 $2 $-1 $235 reversed single #
vertex $-1 $221 $236 #
straight-curve $-1 304.7999999999999545 0 50.87151418645684231 25.39999999999999858 -9.362229069395520866e-14 0 I I #
coedge $-1 $237 $238 $136 $193 reversed $239 $-1 #
edge $-1 $169 4.196118518268308619e-16 $194 0.2000000000000003997 $192 $240 forward 7 unknown #
vertex $-1 $193 $241 #
straight-curve $-1 304.7999999999999545 0 0 25.39999999999999858 -9.334953031136699384e-14 0 I I #
plane-surface $-1 279.3999999999999773 2.539999999999999591 0 0 0 -1 25.39999999999999858 0 0 forward_v I I I I #
coedge $-1 $148 $147 $139 $198 reversed $149 $-1 #
edge $-1 $242 -8.726628056106228395e-17 $199 2.775120895108700747 $139 $243 forward 7 unknown #
vertex $-1 $141 $244 #
straight-curve $-1 0 0 533.3999999999999773 25.39999999999999858 0 0 I I #
point $-1 0 0 533.3999999999999773 #
coedge $-1 $175 $176 $144 $203 reversed $115 $-1 #
edge $-1 $206 0 $213 16 $144 $245 forward 7 unknown #
coedge $-1 $227 $145 $148 $208 forward $173 $-1 #
coedge $-1 $145 $227 $175 $225 reversed $173 $-1 #
vertex $-1 $203 $246 #
straight-curve $-1 155.700972588304694 5.079999999999999183 483.2102667277736145 -25.39999999999999858 0 0 I I #
edge $-1 $150 3.496765431890256772e-17 $242 0.2000000000000000389 $148 $247 forward 7 unknown #
point $-1 155.700972588304694 5.079999999999999183 483.2102667277736145 #
straight-curve $-1 155.7009725883051487 5.079999999999999183 533.3999999999999773 0 -25.39999999999999858 0 I I #
plane-surface $-1 279.3999999999999773 2.539999999999999591 533.3999999999999773 0 0 -1 25.39999999999999858 0 0 forward_v I I I I #
plane-surface $-1 280.6578949476446496 2.539999999999999591 50.87151418645684231 0 0 1 25.39999999999999858 0 0 forward_v I I I I #
vertex $-1 $159 $248 #
straight-curve $-1 51.51914240632791575 5.079999999999999183 76.81026672777366571 25.39999999999999858 0 0 I I #
point $-1 77.45789494764473204 5.079999999999999183 76.81026672777366571 #
coedge $-1 $249 $163 $250 $251 forward $218 $-1 #
coedge $-1 $163 $252 $237 $253 reversed $218 $-1 #
loop $-1 $-1 $216 $254 #
straight-curve $-1 315.3196453401179724 5.079999999999972538 0 6.758405348267966262e-14 0 25.39999999999999858 I I #
coedge $-1 $255 $250 $165 $221 reversed $256 $-1 #
edge $-1 $190 7.399702435650232873e-16 $167 0.200000000000000705 $220 $257 forward 7 unknown #
point $-1 315.3196453401180861 5.079999999999960103 50.87151418645684231 #
point $-1 315.3196453401179724 5.079999999999960103 0 #
cone-surface $-1 160.3514162297221333 2.539999999999999591 508.3051333638867391 0 1 0 -4.650443641417425944 0 -25.09486663611312807 1 I I 0 1 25.52212682254955922 forward I I I I #
edge $-1 $206 0 $229 0.1999999999999999833 $175 $258 forward 7 unknown #
straight-curve $-1 51.51914240632791575 5.079999999999999183 76.81026672777366571 0 -25.39999999999999858 0 I I #
coedge $-1 $205 $204 $182 $228 forward $173 $-1 #
edge $-1 $242 0 $229 4.101646857558141512 $182 $259 forward 7 unknown #
vertex $-1 $228 $260 #
straight-curve $-1 51.51914240632791575 0 483.2102667277736145 0 0 -25.39999999999999858 I I #
point $-1 51.51914240632791575 0 76.81026672777366571 #
coedge $-1 $261 $262 $188 $233 reversed $263 $-1 #
edge $-1 $194 4.430303777812182536e-44 $190 2.002815519151844192 $232 $264 forward 7 unknown #
face $-1 $265 $263 $2 $-1 $266 forward single #
plane-surface $-1 304.7999999999999545 0 0 3.675178358715236078e-15 1 0 25.39999999999999858 -9.334953031136699384e-14 0 forward_v I I I I #
point $-1 315.3196453401181429 -3.866157289536182001e-14 50.87151418645684231 #
coedge $-1 $267 $192 $217 $253 forward $239 $-1 #
coedge $-1 $192 $267 $261 $268 reversed $239 $-1 #
loop $-1 $-1 $237 $265 #
straight-curve $-1 315.3196453401179724 5.079999999999970761 0 0 -25.39999999999999858 0 I I #
point $-1 315.3196453401180293 -3.866157289536129621e-14 0 #
vertex $-1 $198 $269 #
ellipse-curve $-1 160.3514162297221617 0 508.3051333638867391 0 1 0 -4.650443641417469465 0 -25.09486663611312096 1 I I #
point $-1 155.7009725883051487 0 533.3999999999999773 #
straight-curve $-1 51.51914240632791575 5.079999999999999183 483.2102667277736145 0 0 -25.39999999999999858 I I #
point $-1 51.51914240632791575 5.079999999999999183 483.2102667277736145 #
straight-curve $-1 155.700972588304694 5.080000000000000071 483.2102667277736145 0 -25.39999999999999858 0 I I #
point $-1 51.51914240632791575 5.079999999999999183 76.81026672777366571 #
coedge $-1 $270 $216 $271 $272 forward $218 $-1 #
coedge $-1 $220 $273 $216 $251 reversed $256 $-1 #
edge $-1 $167 2.237929876409769461e-15 $274 6.635364157776638905 $250 $275 forward 7 unknown #
coedge $-1 $217 $276 $277 $278 reversed $218 $-1 #
edge $-1 $169 -2.237929876409759601e-15 $279 9.585840734641021044 $237 $280 forward 7 unknown #
face $-1 $281 $218 $2 $-1 $282 reversed single #
coedge $-1 $273 $220 $262 $283 forward $256 $-1 #
loop $-1 $-1 $255 $281 #
straight-curve $-1 315.3196453401180861 -5.745681708191341133e-14 50.87151418645684231 0 25.39999999999999858 0 I I #
straight-curve $-1 51.51914240632791575 5.079999999999999183 483.2102667277736145 0 -25.39999999999999858 0 I I #
straight-curve $-1 155.700972588304694 0 483.2102667277736145 -25.39999999999999858 0 0 I I #
point $-1 51.51914240632791575 0 483.2102667277736145 #
coedge $-1 $284 $232 $238 $268 forward $263 $-1 #
coedge $-1 $232 $285 $255 $283 reversed $263 $-1 #
loop $-1 $-1 $261 $234 #
straight-curve $-1 315.3196453401180293 -8.901327775936128843e-15 0 6.758405348267966262e-14 -9.604271651068026844e-28 25.39999999999999858 I I #
face $-1 $254 $239 $2 $-1 $286 forward single #
plane-surface $-1 -9.023892744153271856e-14 3.248601387895177969e-12 0 -1.033079531773995198e-14 -1 0 25.39999999999999858 -2.624022010705947449e-13 0 forward_v I I I I #
coedge $-1 $238 $237 $287 $288 reversed $239 $-1 #
edge $-1 $194 4.47585975281954129e-15 $289 9.585840734641026373 $238 $290 forward 7 unknown #
point $-1 155.700972588304694 -7.049916206369743637e-16 483.2102667277736145 #
coedge $-1 $291 $249 $292 $293 forward $218 $-1 #
coedge $-1 $294 $295 $249 $272 reversed $296 $-1 #
edge $-1 $274 0 $297 1.021210729973103248 $249 $298 forward 7 unknown #
coedge $-1 $250 $255 $294 $299 reversed $256 $-1 #
vertex $-1 $251 $300 #
straight-curve $-1 315.3196453401180293 5.079999999999972538 50.87151418645684231 25.39999999999999858 -2.623253630040304729e-13 0 I I #
coedge $-1 $252 $301 $302 $303 forward $218 $-1 #
coedge $-1 $304 $287 $252 $278 forward $305 $-1 #
edge $-1 $279 0 $306 21 $252 $307 forward 7 unknown #
vertex $-1 $288 $308 #
straight-curve $-1 315.3196453401180293 5.079999999999972538 0 25.39999999999999858 -2.624089187443529388e-13 0 I I #
face $-1 $309 $256 $2 $-1 $310 forward single #
plane-surface $-1 -4.511946372076635928e-14 5.080000000003230376 0 -1.033079531773995198e-14 -1 0 25.39999999999999858 -2.624022010705947449e-13 0 forward_v I I I I #
edge $-1 $190 4.47585975281954129e-15 $311 6.63536415777663624 $255 $312 forward 7 unknown #
coedge $-1 $313 $261 $314 $315 forward $263 $-1 #
coedge $-1 $262 $316 $317 $318 reversed $263 $-1 #
plane-surface $-1 279.3999999999999773 2.540000000000351754 0 0 0 -1 25.39999999999999858 -2.624022010705947449e-13 0 forward_v I I I I #
coedge $-1 $277 $314 $267 $288 forward $305 $-1 #
edge $-1 $289 -4.163336342343382998e-17 $279 0.1999999999999999556 $267 $319 forward 7 unknown #
vertex $-1 $268 $320 #
straight-curve $-1 315.3196453401179156 -8.901327775935488288e-15 0 25.39999999999999858 -2.624022010705947449e-13 0 I I #
coedge $-1 $321 $270 $322 $323 forward $218 $-1 #
coedge $-1 $324 $325 $270 $293 reversed $326 $-1 #
edge $-1 $297 0 $327 1.021210729973099252 $270 $328 forward 7 unknown #
coedge $-1 $317 $271 $273 $299 forward $296 $-1 #
coedge $-1 $271 $317 $324 $329 reversed $296 $-1 #
loop $-1 $-1 $294 $309 #
vertex $-1 $293 $330 #
straight-curve $-1 483.8578949476446383 5.079999999998231708 50.87151418645684231 0 0 25.39999999999999858 I I #
edge $-1 $274 8.042560493347591191e-16 $311 0.2000000000000000944 $273 $331 forward 7 unknown #
point $-1 483.8578949476446383 5.079999999998231708 50.87151418645684231 #
coedge $-1 $276 $332 $333 $334 forward $218 $-1 #
coedge $-1 $335 $336 $276 $303 reversed $337 $-1 #
edge $-1 $338 -6.713789629229293791e-15 $306 6.811789474018230095 $276 $339 forward 7 unknown #
coedge $-1 $314 $277 $336 $340 reversed $305 $-1 #
loop $-1 $-1 $287 $341 #
vertex $-1 $278 $342 #
straight-curve $-1 558.7999999999999545 5.079999999997457216 0 0 0 25.39999999999999858 I I #
point $-1 558.7999999999999545 5.079999999997463433 0 #
face $-1 $343 $296 $2 $-1 $344 forward single #
plane-surface $-1 280.6578949476445928 2.540000000000351754 50.87151418645684231 0 0 1 25.39999999999999858 -2.624022010705947449e-13 0 forward_v I I I I #
vertex $-1 $299 $345 #
straight-curve $-1 315.3196453401180293 -8.81239525796218004e-15 50.87151418645684231 25.39999999999999858 -2.62431610619665891e-13 0 I I #
coedge $-1 $346 $284 $347 $348 reversed $263 $-1 #
coedge $-1 $287 $304 $284 $315 reversed $305 $-1 #
edge $-1 $289 0 $349 21 $284 $350 forward 7 unknown #
coedge $-1 $285 $351 $352 $353 reversed $263 $-1 #
coedge $-1 $295 $294 $285 $318 forward $296 $-1 #
edge $-1 $311 0 $354 1.021210729973103248 $285 $355 forward 7 unknown #
straight-curve $-1 558.7999999999999545 -2.534444876189922979e-12 0 0 25.39999999999999858 0 I I #
point $-1 558.7999999999999545 -2.535502363620878199e-12 0 #
coedge $-1 $356 $291 $357 $358 reversed $218 $-1 #
coedge $-1 $359 $360 $291 $323 reversed $361 $-1 #
edge $-1 $327 0 $362 2.948747866371632664 $291 $363 forward 7 unknown #
coedge $-1 $352 $292 $295 $329 forward $326 $-1 #
coedge $-1 $292 $352 $359 $364 reversed $326 $-1 #
loop $-1 $-1 $324 $343 #
vertex $-1 $323 $365 #
straight-curve $-1 483.8578949476446383 5.079999999998231708 76.81026672777366571 25.39999999999999858 -2.623325509408888781e-13 0 I I #
edge $-1 $297 1.713415061626225954e-15 $354 0.1999999999999999556 $324 $366 forward 7 unknown #
point $-1 483.8578949476446383 5.079999999998231708 76.81026672777366571 #
straight-curve $-1 483.8578949476446383 5.079999999998252136 50.87151418645684231 0 -25.39999999999999858 0 I I #
coedge $-1 $301 $356 $367 $368 forward $218 $-1 #
coedge $-1 $369 $370 $301 $334 reversed $371 $-1 #
edge $-1 $372 -1.178094787574345708e-15 $338 2.775120895108733166 $301 $373 forward 7 unknown #
coedge $-1 $347 $302 $370 $374 forward $337 $-1 #
coedge $-1 $302 $347 $304 $340 forward $337 $-1 #
loop $-1 $-1 $347 $375 #
vertex $-1 $303 $376 #
straight-curve $-1 385.7805473599369179 5.079999999999245119 533.3999999999999773 25.39999999999999858 -2.624653560939722861e-13 0 I I #
edge $-1 $349 0 $306 0.1999999999999999833 $336 $377 forward 7 unknown #
face $-1 $-1 $305 $2 $-1 $378 forward single #
point $-1 558.7999999999999545 5.079999999997463433 533.3999999999999773 #
face $-1 $379 $326 $2 $-1 $380 forward single #
plane-surface $-1 483.8578949476446383 2.539999999998276081 63.84089045711525046 -1 1.033079531773995198e-14 0 0 0 25.39999999999999858 forward_v I I I I #
point $-1 483.8578949476445814 -1.750035487681459418e-12 50.87151418645684231 #
coedge $-1 $381 $313 $382 $383 reversed $263 $-1 #
coedge $-1 $336 $335 $313 $348 forward $337 $-1 #
edge $-1 $384 -6.713789629229297735e-15 $349 6.81178947401823276 $313 $385 forward 7 unknown #
vertex $-1 $348 $386 #
straight-curve $-1 558.7999999999999545 -2.524247035657907731e-12 0 0 0 25.39999999999999858 I I #
coedge $-1 $316 $387 $388 $389 reversed $263 $-1 #
coedge $-1 $325 $324 $316 $353 forward $326 $-1 #
edge $-1 $354 2.237929876409753684e-15 $390 1.021210729973105913 $316 $391 forward 7 unknown #
vertex $-1 $318 $392 #
straight-curve $-1 483.8578949476446383 -1.750141698231288956e-12 50.87151418645684231 0 0 25.39999999999999858 I I #
coedge $-1 $332 $321 $393 $394 forward $218 $-1 #
coedge $-1 $395 $396 $321 $358 forward $397 $-1 #
edge $-1 $398 1.398641462048925998e-16 $362 1.833120607706083538 $321 $399 forward 7 unknown #
coedge $-1 $388 $322 $325 $364 forward $361 $-1 #
coedge $-1 $322 $388 $395 $400 reversed $361 $-1 #
loop $-1 $-1 $359 $379 #
vertex $-1 $358 $401 #
straight-curve $-1 509.7966474889614688 5.079999999997964366 76.81026672777366571 0 0 25.39999999999999858 I I #
edge $-1 $327 -1.398706172756102709e-16 $390 0.1999999999999999556 $359 $402 forward 7 unknown #
point $-1 509.7966474889613551 5.079999999997964366 76.81026672777366571 #
straight-curve $-1 483.8578949476446383 5.079999999998275229 76.81026672777366571 0 -25.39999999999999858 0 I I #
coedge $-1 $403 $404 $332 $368 reversed $405 $-1 #
edge $-1 $406 0 $372 3.607129387143710009 $332 $407 forward 7 unknown #
coedge $-1 $382 $333 $404 $408 forward $371 $-1 #
coedge $-1 $333 $382 $335 $374 reversed $371 $-1 #
loop $-1 $-1 $369 $409 #
vertex $-1 $334 $410 #
ellipse-curve $-1 390.4309910013536182 5.079999999999197158 508.3051333638867391 1.03300574540247598e-14 1 -3.981682814825004372e-18 -4.650443641416792673 4.793943020331425437e-14 -25.09486663611320978 1 I I #
edge $-1 $338 1.049029629567156633e-15 $384 0.1999999999999999833 $335 $411 forward 7 unknown #
face $-1 $341 $337 $2 $-1 $412 reversed single #
point $-1 385.7805473599367474 5.079999999999245119 533.3999999999999773 #
straight-curve $-1 558.7999999999999545 -2.535502363620878199e-12 533.3999999999999773 0 25.39999999999999858 0 I I #
plane-surface $-1 558.7999999999999545 2.539999999997464286 266.6999999999999886 1 -1.033079531773995198e-14 0 0 0 25.39999999999999858 forward_v I I I I #
face $-1 $413 $361 $2 $-1 $414 forward single #
plane-surface $-1 496.8272712183031103 2.539999999998095781 76.81026672777366571 0 0 1 25.39999999999999858 -2.624022010705947449e-13 0 forward_v I I I I #
coedge $-1 $415 $346 $416 $417 reversed $263 $-1 #
coedge $-1 $370 $369 $346 $383 forward $371 $-1 #
edge $-1 $418 5.388692824645612018e-15 $384 2.775120895108730945 $346 $419 forward 7 unknown #
vertex $-1 $383 $420 #
straight-curve $-1 385.7805473599368611 -7.368184844460146655e-13 533.3999999999999773 25.39999999999999858 -2.624022010705946944e-13 0 I I #
point $-1 558.7999999999999545 -2.535502363620878199e-12 533.3999999999999773 #
coedge $-1 $351 $415 $421 $422 forward $263 $-1 #
coedge $-1 $360 $359 $351 $389 forward $361 $-1 #
edge $-1 $390 0 $423 2.948747866371632664 $351 $424 forward 7 unknown #
vertex $-1 $353 $425 #
straight-curve $-1 483.8578949476445814 -1.750141698231288956e-12 76.81026672777366571 25.39999999999999858 -2.623325509408879694e-13 0 I I #
point $-1 483.8578949476446383 -1.723352016647083807e-12 76.81026672777366571 #
coedge $-1 $426 $427 $356 $394 reversed $428 $-1 #
edge $-1 $398 7.997447956566459235e-16 $406 7.475841897059361862 $356 $429 forward 7 unknown #
coedge $-1 $421 $357 $360 $400 forward $397 $-1 #
coedge $-1 $357 $421 $426 $430 reversed $397 $-1 #
loop $-1 $-1 $395 $413 #
vertex $-1 $394 $431 #
ellipse-curve $-1 460.7233281906987372 5.079999999998470628 215.6968222444864693 1.033021089354271922e-14 1 -7.620504643080489789e-19 49.07331929826261074 -5.068889752379845555e-13 63.98835971087332553 1 I I #
edge $-1 $362 -1.748382715945128509e-16 $423 0.1999999999999999833 $395 $432 forward 7 unknown #
point $-1 509.7966474889613551 5.079999999997964366 151.7084625336131296 #
straight-curve $-1 509.7966474889614688 5.079999999997960813 76.81026672777366571 0 -25.39999999999999858 0 I I #
coedge $-1 $416 $367 $427 $433 forward $405 $-1 #
coedge $-1 $367 $416 $369 $408 reversed $405 $-1 #
loop $-1 $-1 $403 $434 #
vertex $-1 $368 $435 #
straight-curve $-1 475.8678257865845467 5.079999999998314308 466.5157842582443664 -24.97478431123950315 2.579860158489322578e-13 4.628190640743421014 I I #
edge $-1 $372 1.468641481393947657e-15 $418 0.1999999999999999833 $369 $436 forward 7 unknown #
face $-1 $375 $371 $2 $-1 $437 forward single #
point $-1 385.7805473599368611 5.079999999999245119 483.2102667277735577 #
straight-curve $-1 385.7805473599368042 5.079999999999271765 533.3999999999999773 -9.023892744153272361e-13 -25.39999999999999858 0 I I #
plane-surface $-1 279.3999999999999773 2.540000000000351754 533.3999999999999773 0 0 -1 25.39999999999999858 -2.624022010705947449e-13 0 forward_v I I I I #
face $-1 $438 $397 $2 $-1 $439 reversed single #
plane-surface $-1 509.7966474889614688 2.539999999997960334 114.2593646306933977 -1 1.033079531773995198e-14 0 0 0 25.39999999999999858 forward_v I I I I #
coedge $-1 $387 $381 $440 $441 reversed $263 $-1 #
coedge $-1 $404 $403 $381 $417 forward $405 $-1 #
edge $-1 $442 -2.200465195551672239e-15 $418 3.607129387143717114 $381 $443 forward 7 unknown #
vertex $-1 $417 $444 #
ellipse-curve $-1 390.4309910013536182 -7.848612658421758796e-13 508.3051333638867391 1.033079531773994882e-14 1 -1.132927566646955622e-29 -4.650443641416792673 4.804278139616184519e-14 -25.09486663611320978 1 I I #
point $-1 385.7805473599366906 -7.275513524973575639e-13 533.3999999999999773 #
coedge $-1 $396 $395 $387 $422 reversed $397 $-1 #
edge $-1 $445 4.195924386146758274e-16 $423 1.833120607706075544 $387 $446 forward 7 unknown #
vertex $-1 $389 $447 #
straight-curve $-1 509.7966474889614688 -2.018038514073339229e-12 76.81026672777366571 0 0 25.39999999999999858 I I #
point $-1 509.7966474889614688 -2.037778279451174432e-12 76.81026672777366571 #
coedge $-1 $440 $393 $396 $430 forward $428 $-1 #
coedge $-1 $393 $440 $403 $433 reversed $428 $-1 #
loop $-1 $-1 $426 $438 #
straight-curve $-1 509.7966474889614688 5.079999999997964366 279.6851819553597807 -4.53846164346022718 4.686841164931528172e-14 24.99124578549137254 I I #
edge $-1 $398 -5.594824691024610022e-16 $445 0.2000000000000000111 $426 $448 forward 7 unknown #
point $-1 509.7966474889613551 5.079999999997964366 279.6851819553597807 #
straight-curve $-1 509.7966474889614688 5.079999999997959925 151.7084625336131296 0 -25.39999999999999858 0 I I #
edge $-1 $406 1.818318024582933472e-15 $442 0.1999999999999999833 $403 $449 forward 7 unknown #
face $-1 $409 $405 $2 $-1 $450 forward single #
point $-1 475.8678257865845467 5.079999999998314308 466.5157842582443664 #
straight-curve $-1 385.7805473599368042 5.079999999999282423 483.210266727773444 -4.511946372076636685e-13 -25.39999999999999858 4.511946372076636685e-13 I I #
cone-surface $-1 390.4309910013536182 2.539999999999223768 508.3051333638867391 1.033079531773995198e-14 1 3.906646781541218444e-31 -4.650443641416885043 4.804278139616308213e-14 -25.09486663611322399 1 I I 0 1 25.52212682254955567 forward I I I I #
face $-1 $434 $428 $2 $-1 $451 forward single #
cone-surface $-1 460.7233281906985667 2.539999999998456826 215.6968222444862704 1.033079531773995355e-14 1 6.261293744976590449e-31 49.07331929826278127 -5.069664172324508962e-13 63.98835971087340369 1 I I 0 1 80.63932567573576193 forward I I I I #
coedge $-1 $427 $426 $415 $441 forward $428 $-1 #
edge $-1 $445 -1.402170778833543646e-15 $442 7.475841897059361862 $415 $452 forward 7 unknown #
vertex $-1 $441 $453 #
straight-curve $-1 475.8678257865845467 -1.66765767861676287e-12 466.5157842582443664 -24.97478431123950315 2.580837378246323261e-13 4.628190640743416573 I I #
point $-1 385.7805473599366906 -7.166239823774844404e-13 483.2102667277735577 #
vertex $-1 $422 $454 #
ellipse-curve $-1 460.7233281906983962 -1.511037013750857518e-12 215.6968222444864693 1.033079531773995355e-14 1 6.261293744976581691e-31 49.07331929826297312 -5.069664172324528147e-13 63.98835971087332553 1 I I #
point $-1 509.7966474889614688 -2.039188262692448461e-12 151.7084625336131296 #
straight-curve $-1 509.7966474889614688 5.079999999997950155 279.6851819553597238 0 -25.39999999999999858 -2.25597318603831809e-13 I I #
straight-curve $-1 475.8678257865846035 5.079999999998360494 466.5157842582443664 0 -25.39999999999999858 -4.51194637207663618e-13 I I #
plane-surface $-1 430.8241865732607039 2.53999999999881787 474.8630254930089336 -0.1822122299505289922 1.882397252007880249e-15 -0.9832592248519490541 -24.97478431123950315 2.580093848241183056e-13 4.628190640743436113 forward_v I I I I #
plane-surface $-1 492.8322366377730646 2.539999999998185931 373.1004831068020735 -0.9839073143894241369 1.016454507658435373e-14 -0.1786795922622136656 -4.538461643460226291 4.688591829600126638e-14 24.99124578549136899 forward_v I I I I #
straight-curve $-1 509.7966474889614688 -2.018038514073339229e-12 279.6851819553597807 -4.53846164346022718 4.686841164931528172e-14 24.99124578549137254 I I #
point $-1 475.8678257865846035 -1.638400526360328473e-12 466.5157842582443664 #
point $-1 509.7966474889613551 -2.049763137002003077e-12 279.6851819553597238 #
End-of-ACIS-data 