600 0 1 0           
114 GICL ACIS Healer - Source: /gicl/data5/repository/PTC/V20/web_demos/models/shtmtl_auto/part_multi_22.prt.sat - 6 0 18 ACIS 6.0.3 Solaris 24 Sat Apr 13 20:47:42 2002 
1 9.999999999999999547e-07 1.000000000000000036e-10 
body $-1 $1 $-1 $-1 #
lump $-1 $-1 $2 $0 #
shell $-1 $-1 $-1 $3 $-1 $1 #
face $-1 $4 $5 $2 $-1 $6 reversed single #
face $-1 $7 $8 $2 $-1 $9 reversed single #
loop $-1 $-1 $10 $3 #
plane-surface $-1 0 5.079999999999999183 0 0 -1 0 25.39999999999999858 0 0 forward_v I I I I #
face $-1 $11 $12 $2 $-1 $13 forward single #
loop $-1 $-1 $14 $4 #
plane-surface $-1 25.39999999999999858 2.539999999999999591 50.79999999999999716 0 0 -1 25.39999999999999858 0 0 forward_v I I I I #
coedge $-1 $15 $16 $17 $18 forward $5 $-1 #
face $-1 $19 $20 $2 $-1 $21 forward single #
loop $-1 $-1 $22 $7 #
plane-surface $-1 0 0 0 0 -1 0 25.39999999999999858 0 0 forward_v I I I I #
coedge $-1 $23 $24 $25 $26 forward $8 $-1 #
coedge $-1 $16 $10 $27 $28 reversed $5 $-1 #
coedge $-1 $10 $15 $29 $30 forward $5 $-1 #
coedge $-1 $24 $23 $10 $18 reversed $8 $-1 #
edge $-1 $31 0 $32 2 $10 $33 forward 7 unknown #
face $-1 $-1 $34 $2 $-1 $35 forward single #
loop $-1 $-1 $27 $11 #
plane-surface $-1 50.79999999999999716 2.539999999999999591 25.39999999999999858 1 0 0 0 0 25.39999999999999858 forward_v I I I I #
coedge $-1 $25 $36 $37 $38 forward $12 $-1 #
coedge $-1 $17 $14 $39 $40 forward $8 $-1 #
coedge $-1 $14 $17 $41 $42 forward $8 $-1 #
coedge $-1 $36 $22 $14 $26 reversed $12 $-1 #
edge $-1 $43 0 $44 2 $25 $45 forward 7 unknown #
coedge $-1 $39 $46 $15 $28 forward $20 $-1 #
edge $-1 $47 0 $32 2 $15 $48 forward 7 unknown #
coedge $-1 $49 $41 $16 $30 reversed $34 $-1 #
edge $-1 $47 0 $31 2.828427124746190735 $16 $50 forward 7 unknown #
vertex $-1 $30 $51 #
vertex $-1 $28 $52 #
straight-curve $-1 0 5.079999999999999183 50.79999999999999716 25.39999999999999858 0 0 I I #
loop $-1 $-1 $49 $19 #
plane-surface $-1 25.39999999999999858 2.539999999999999591 25.39999999999999858 -0.7071067811865475727 0 -0.7071067811865475727 -17.96051224213830366 0 17.96051224213830366 forward_v I I I I #
coedge $-1 $22 $25 $53 $54 reversed $12 $-1 #
coedge $-1 $46 $39 $22 $38 reversed $20 $-1 #
edge $-1 $55 0 $44 2 $22 $56 forward 7 unknown #
coedge $-1 $37 $27 $23 $40 reversed $20 $-1 #
edge $-1 $44 0 $32 0.1999999999999999833 $39 $57 forward 7 unknown #
coedge $-1 $29 $53 $24 $42 reversed $34 $-1 #
edge $-1 $31 0 $43 0.1999999999999999833 $24 $58 forward 7 unknown #
vertex $-1 $54 $59 #
vertex $-1 $26 $60 #
straight-curve $-1 0 0 50.79999999999999716 25.39999999999999858 0 0 I I #
coedge $-1 $27 $37 $49 $61 reversed $20 $-1 #
vertex $-1 $30 $62 #
straight-curve $-1 50.79999999999999716 5.079999999999999183 0 0 0 25.39999999999999858 I I #
coedge $-1 $53 $29 $46 $61 forward $34 $-1 #
straight-curve $-1 50.79999999999999716 5.079999999999999183 0 -17.96051224213830366 0 17.96051224213830366 I I #
point $-1 0 5.079999999999999183 50.79999999999999716 #
point $-1 50.79999999999999716 5.079999999999999183 50.79999999999999716 #
coedge $-1 $41 $49 $36 $54 forward $34 $-1 #
edge $-1 $55 0 $43 2.828427124746190735 $36 $63 forward 7 unknown #
vertex $-1 $54 $64 #
straight-curve $-1 50.79999999999999716 0 0 0 0 25.39999999999999858 I I #
straight-curve $-1 50.79999999999999716 0 50.79999999999999716 0 25.39999999999999858 0 I I #
straight-curve $-1 5.63993296509579491e-15 5.079999999999999183 50.79999999999999716 0 -25.39999999999999858 0 I I #
point $-1 0 0 50.79999999999999716 #
point $-1 50.79999999999999716 0 50.79999999999999716 #
edge $-1 $47 0 $55 0.1999999999999999833 $46 $65 forward 7 unknown #
point $-1 50.79999999999999716 5.079999999999999183 0 #
straight-curve $-1 50.79999999999999716 0 0 -17.96051224213830366 0 17.96051224213830366 I I #
point $-1 50.79999999999999716 0 0 #
straight-curve $-1 50.79999999999999716 5.079999999999999183 0 0 -25.39999999999999858 0 I I #
End-of-ACIS-data 