600 0 1 0           
117 GICL Pro/E ACIS Translator - Source: f:/data5/repository/PTC/V20/web_demos/models/shtmtl_auto/part_multi_21.prt - 6 0 13 ACIS 6.0.3 NT 24 Thu Apr 04 13:08:54 2002 
1 9.9999999999999995e-007 1e-010 
body $-1 $1 $-1 $2 #
lump $-1 $-1 $3 $0 #
transform $-1 1 0 0 0 1 0 0 0 1 0 0 0 25.399999999999999 no_rotate no_reflect no_shear #
shell $-1 $-1 $-1 $4 $-1 $1 #
face $-1 $5 $6 $3 $-1 $7 reversed single #
face $-1 $8 $9 $3 $-1 $10 forward single #
loop $-1 $11 $12 $4 #
plane-surface $-1 0 0.19999999999999998 0 0 -1 0 1 0 0 forward_v I I I I #
face $-1 $13 $14 $3 $-1 $15 forward single #
loop $-1 $-1 $16 $5 #
plane-surface $-1 1.75 0.099999999999999992 5.5 0 0 1 1 0 0 forward_v I I I I #
loop $-1 $-1 $17 $4 #
coedge $-1 $18 $19 $20 $21 forward $6 $-1 #
face $-1 $22 $23 $3 $-1 $24 forward single #
loop $-1 $-1 $25 $8 #
plane-surface $-1 0.5 0.099999999999999992 3 -1 0 0 0 0 1 forward_v I I I I #
coedge $-1 $26 $20 $27 $28 forward $9 $-1 #
coedge $-1 $29 $30 $31 $32 forward $11 $-1 #
coedge $-1 $33 $12 $34 $35 forward $6 $-1 #
coedge $-1 $12 $36 $37 $38 forward $6 $-1 #
coedge $-1 $16 $39 $12 $21 reversed $9 $-1 #
edge $-1 $40 -5.5511151231257827e-017 $41 2.5000000000000009 $12 $42 forward 7 unknown #
face $-1 $43 $44 $3 $-1 $45 forward single #
loop $-1 $-1 $46 $13 #
plane-surface $-1 3.5 0.099999999999999992 0.5 0 0 -1 -1 0 0 forward_v I I I I #
coedge $-1 $47 $37 $48 $49 forward $14 $-1 #
coedge $-1 $39 $16 $50 $51 forward $9 $-1 #
coedge $-1 $37 $47 $16 $28 reversed $14 $-1 #
edge $-1 $40 0 $52 0.19999999999999998 $27 $53 forward 7 unknown #
coedge $-1 $54 $17 $55 $56 forward $11 $-1 #
coedge $-1 $17 $54 $57 $58 forward $11 $-1 #
coedge $-1 $59 $60 $17 $32 reversed $61 $-1 #
edge $-1 $62 0 $63 5.3019418843317432 $17 $64 forward 7 unknown #
coedge $-1 $36 $18 $65 $66 forward $6 $-1 #
coedge $-1 $67 $68 $18 $35 reversed $69 $-1 #
edge $-1 $41 6.2803698347351036e-016 $70 4.9497474683058345 $18 $71 forward 7 unknown #
coedge $-1 $19 $33 $72 $73 forward $6 $-1 #
coedge $-1 $25 $27 $19 $38 reversed $14 $-1 #
edge $-1 $74 0 $40 5 $19 $75 forward 7 unknown #
coedge $-1 $20 $26 $67 $76 reversed $9 $-1 #
vertex $-1 $38 $77 #
vertex $-1 $35 $78 #
straight-curve $-1 0.49999999999999911 0.19999999999999998 5.5 1 0 0 I I #
face $-1 $79 $69 $3 $-1 $80 forward single #
loop $-1 $-1 $81 $22 #
plane-surface $-1 6.5 0.099999999999999992 1.25 1 0 0 0 0 -1 forward_v I I I I #
coedge $-1 $82 $72 $83 $84 forward $23 $-1 #
coedge $-1 $27 $25 $85 $86 forward $14 $-1 #
coedge $-1 $72 $82 $25 $49 reversed $23 $-1 #
edge $-1 $74 0 $87 0.19999999999999998 $25 $88 forward 7 unknown #
coedge $-1 $85 $89 $26 $51 reversed $90 $-1 #
edge $-1 $52 -5.5511151231257827e-017 $91 2.5000000000000009 $26 $92 forward 7 unknown #
vertex $-1 $28 $93 #
straight-curve $-1 0.5 0.19999999999999998 5.5 0 -1 0 I I #
coedge $-1 $30 $29 $94 $95 forward $11 $-1 #
coedge $-1 $96 $97 $29 $56 reversed $98 $-1 #
edge $-1 $63 0 $99 1.6903914590747329 $29 $100 forward 7 unknown #
coedge $-1 $101 $102 $30 $58 reversed $103 $-1 #
edge $-1 $104 0 $62 4.984050399975672 $30 $105 forward 7 unknown #
coedge $-1 $106 $31 $102 $107 forward $61 $-1 #
coedge $-1 $31 $106 $96 $108 reversed $61 $-1 #
loop $-1 $-1 $59 $109 #
vertex $-1 $58 $110 #
vertex $-1 $56 $111 #
straight-curve $-1 5.9973955957052087 0.19999999999999998 0.91495217971530263 -0.62121747328735066 0 0.78363821428161595 I I #
coedge $-1 $81 $83 $33 $66 reversed $44 $-1 #
edge $-1 $70 0 $112 1.5 $33 $113 forward 7 unknown #
coedge $-1 $114 $34 $39 $76 forward $69 $-1 #
coedge $-1 $34 $114 $81 $115 reversed $69 $-1 #
loop $-1 $-1 $67 $43 #
vertex $-1 $66 $116 #
straight-curve $-1 2.9999999999999991 0.19999999999999998 5.5 0.70710678118654768 0 -0.70710678118654724 I I #
coedge $-1 $46 $48 $36 $73 reversed $23 $-1 #
edge $-1 $112 0 $74 6 $36 $117 forward 7 unknown #
vertex $-1 $38 $118 #
straight-curve $-1 0.5 0.19999999999999998 0.5 0 0 1 I I #
edge $-1 $41 0 $91 0.19999999999999998 $67 $119 forward 7 unknown #
point $-1 0.49999999999999906 0.19999999999999998 5.5 #
point $-1 3 0.19999999999999998 5.5 #
face $-1 $120 $90 $3 $-1 $121 forward single #
plane-surface $-1 4.75 0.099999999999999992 3.75 0.70710678118654735 0 0.70710678118654779 0.70710678118654779 0 -0.70710678118654735 forward_v I I I I #
coedge $-1 $122 $65 $68 $115 forward $44 $-1 #
coedge $-1 $48 $46 $123 $124 forward $23 $-1 #
coedge $-1 $65 $122 $46 $84 reversed $44 $-1 #
edge $-1 $112 0 $125 0.19999999999999998 $46 $126 forward 7 unknown #
coedge $-1 $123 $50 $47 $86 reversed $90 $-1 #
edge $-1 $87 0 $52 5 $47 $127 forward 7 unknown #
vertex $-1 $86 $128 #
straight-curve $-1 0.5 0.19999999999999998 0.5 0 -1 0 I I #
coedge $-1 $50 $129 $114 $130 reversed $90 $-1 #
loop $-1 $131 $123 $79 #
vertex $-1 $130 $132 #
straight-curve $-1 0.49999999999999911 0 5.5 1 0 0 I I #
point $-1 0.49999999999999906 0 5.5 #
coedge $-1 $133 $134 $54 $95 reversed $135 $-1 #
edge $-1 $99 0 $104 4.1548042704626331 $54 $136 forward 7 unknown #
coedge $-1 $137 $55 $60 $108 forward $98 $-1 #
coedge $-1 $55 $137 $133 $138 reversed $98 $-1 #
loop $-1 $-1 $96 $139 #
vertex $-1 $95 $140 #
straight-curve $-1 2.7037366548042692 0.19999999999999998 5.0697564501779357 -1 0 0 I I #
coedge $-1 $141 $57 $134 $142 forward $103 $-1 #
coedge $-1 $57 $141 $59 $107 reversed $103 $-1 #
loop $-1 $-1 $101 $143 #
vertex $-1 $58 $144 #
straight-curve $-1 1.0133451957295363 0.19999999999999998 0.91495217971530263 1 0 0 I I #
coedge $-1 $60 $59 $145 $146 forward $61 $-1 #
edge $-1 $62 0 $147 0.19999999999999998 $102 $148 forward 7 unknown #
edge $-1 $63 0 $149 0.19999999999999998 $96 $150 forward 7 unknown #
face $-1 $143 $61 $3 $-1 $151 forward single #
point $-1 5.9973955957052087 0.19999999999999998 0.91495217971530263 #
point $-1 2.7037366548042692 0.19999999999999998 5.0697564501779357 #
vertex $-1 $73 $152 #
straight-curve $-1 6.5 0.19999999999999998 2 0 0 -1 I I #
coedge $-1 $68 $67 $89 $130 forward $69 $-1 #
edge $-1 $70 0 $153 0.19999999999999998 $81 $154 forward 7 unknown #
point $-1 6.5 0.19999999999999998 2 #
straight-curve $-1 6.5 0.19999999999999998 0.5 -1 0 0 I I #
point $-1 0.5 0.19999999999999998 0.5 #
straight-curve $-1 2.9999999999999991 0.19999999999999998 5.5 0 -1 0 I I #
face $-1 $139 $135 $3 $-1 $155 forward single #
plane-surface $-1 0 0 0 0 -1 0 1 0 0 forward_v I I I I #
coedge $-1 $83 $81 $129 $156 forward $44 $-1 #
coedge $-1 $129 $85 $82 $124 reversed $90 $-1 #
edge $-1 $125 0 $87 6 $82 $157 forward 7 unknown #
vertex $-1 $124 $158 #
straight-curve $-1 6.5 0.19999999999999998 0.5 0 -1 0 I I #
straight-curve $-1 0.5 0 0.5 0 0 1 I I #
point $-1 0.5 0 0.5 #
coedge $-1 $89 $123 $122 $156 reversed $90 $-1 #
edge $-1 $91 6.2803698347351036e-016 $153 4.9497474683058353 $114 $159 forward 7 unknown #
loop $-1 $-1 $160 $79 #
point $-1 3 0 5.5 #
coedge $-1 $161 $94 $97 $138 forward $135 $-1 #
coedge $-1 $94 $161 $101 $142 reversed $135 $-1 #
loop $-1 $-1 $133 $120 #
straight-curve $-1 1.0133451957295363 0.19999999999999998 5.0697564501779357 0 0 -1 I I #
coedge $-1 $97 $96 $162 $163 forward $98 $-1 #
edge $-1 $99 0 $164 0.19999999999999998 $133 $165 forward 7 unknown #
face $-1 $109 $98 $3 $-1 $166 forward single #
point $-1 1.0133451957295363 0.19999999999999998 5.0697564501779357 #
coedge $-1 $102 $101 $167 $168 forward $103 $-1 #
edge $-1 $104 0 $169 0.19999999999999998 $101 $170 forward 7 unknown #
face $-1 $-1 $103 $3 $-1 $171 forward single #
point $-1 1.0133451957295363 0.19999999999999998 0.91495217971530263 #
coedge $-1 $167 $162 $106 $146 reversed $131 $-1 #
edge $-1 $147 0 $149 5.3019418843317432 $145 $172 forward 7 unknown #
vertex $-1 $168 $173 #
straight-curve $-1 5.9973955957052087 0.19999999999999998 0.91495217971530263 0 -1 0 I I #
vertex $-1 $146 $174 #
straight-curve $-1 2.7037366548042687 0.19999999999999998 5.0697564501779357 0 -1 0 I I #
plane-surface $-1 4.3505661252547387 0.099999999999999992 2.9923543149466192 -0.78363821428161595 0 -0.62121747328735055 -0.62121747328735055 0 0.78363821428161595 forward_v I I I I #
point $-1 6.5 0.19999999999999998 0.5 #
vertex $-1 $156 $175 #
straight-curve $-1 6.5 0.19999999999999998 2 0 -1 0 I I #
plane-surface $-1 1.0133451957295363 0.099999999999999992 2.9923543149466192 1 0 0 0 0 -1 forward_v I I I I #
edge $-1 $153 0 $125 1.5 $122 $176 forward 7 unknown #
straight-curve $-1 6.5 0 0.5 -1 0 0 I I #
point $-1 6.5 0 0.5 #
straight-curve $-1 2.9999999999999991 0 5.5 0.70710678118654768 0 -0.70710678118654724 I I #
coedge $-1 $162 $167 $161 $177 reversed $131 $-1 #
coedge $-1 $134 $133 $160 $177 forward $135 $-1 #
coedge $-1 $145 $160 $137 $163 reversed $131 $-1 #
edge $-1 $149 4.4408920985006262e-016 $164 1.6903914590747329 $162 $178 forward 7 unknown #
vertex $-1 $163 $179 #
straight-curve $-1 1.0133451957295363 0.19999999999999998 5.0697564501779357 0 -1 0 I I #
plane-surface $-1 1.8585409252669027 0.099999999999999992 5.0697564501779357 0 0 -1 -1 0 0 forward_v I I I I #
coedge $-1 $160 $145 $141 $168 reversed $131 $-1 #
edge $-1 $169 0 $147 4.984050399975672 $167 $180 forward 7 unknown #
vertex $-1 $168 $181 #
straight-curve $-1 1.0133451957295363 0.19999999999999998 0.91495217971530263 0 -1 0 I I #
plane-surface $-1 3.5053703957173723 0.099999999999999992 0.91495217971530263 0 0 1 1 0 0 forward_v I I I I #
straight-curve $-1 5.9973955957052087 0 0.91495217971530263 -0.62121747328735066 0 0.78363821428161595 I I #
point $-1 5.9973955957052087 0 0.91495217971530263 #
point $-1 2.7037366548042687 0 5.0697564501779357 #
point $-1 6.5000000000000009 0 2 #
straight-curve $-1 6.5 0 2 0 0 -1 I I #
edge $-1 $164 0 $169 4.1548042704626331 $160 $182 forward 7 unknown #
straight-curve $-1 2.7037366548042692 0 5.0697564501779357 -1 0 0 I I #
point $-1 1.0133451957295363 0 5.0697564501779357 #
straight-curve $-1 1.0133451957295363 0 0.91495217971530263 1 0 0 I I #
point $-1 1.0133451957295363 0 0.91495217971530263 #
straight-curve $-1 1.0133451957295363 0 5.0697564501779357 0 0 -1 I I #
End-of-ACIS-data 