600 0 1 0           
110 GICL Pro/E ACIS Translator - Source: f:/data5/repository/PTC/V20/web_demos/models/pattern/bolt_lng.prt.4 - 6 0 13 ACIS 6.0.3 NT 24 Thu Apr 04 13:11:16 2002 
1 9.9999999999999995e-007 1e-010 
body $-1 $1 $-1 $2 #
lump $-1 $-1 $3 $0 #
transform $-1 1 0 0 0 1 0 0 0 1 0 0 0 25.399999999999999 no_rotate no_reflect no_shear #
shell $-1 $-1 $-1 $4 $-1 $1 #
face $-1 $5 $6 $3 $-1 $7 forward single #
face $-1 $8 $9 $3 $-1 $10 forward single #
loop $-1 $11 $12 $4 #
plane-surface $-1 0 0 0 0 1 0 1 0 0 forward_v I I I I #
face $-1 $13 $14 $3 $-1 $15 forward single #
loop $-1 $-1 $16 $5 #
cone-surface $-1 0 -4.1999999999999993 0 0 1 0 0.34250000000000003 0 0 1 I I 0 1 0.34250000000000003 forward I I I I #
loop $-1 $-1 $17 $4 #
coedge $-1 $18 $18 $16 $19 reversed $6 $-1 #
face $-1 $20 $21 $3 $-1 $22 reversed single #
loop $-1 $-1 $23 $8 #
cone-surface $-1 0 -4.1999999999999993 0 0 1 0 0.34250000000000003 0 0 1 I I 0 1 0.34250000000000003 forward I I I I #
coedge $-1 $24 $25 $12 $19 forward $9 $-1 #
coedge $-1 $26 $27 $28 $29 reversed $11 $-1 #
coedge $-1 $12 $12 $30 $31 forward $6 $-1 #
edge $-1 $32 0 $33 3.1415926535897931 $12 $34 forward 7 unknown #
face $-1 $35 $36 $3 $-1 $37 forward single #
loop $-1 $38 $39 $13 #
plane-surface $-1 0 -0.34999999999999998 0 0 1 0 1 0 0 forward_v I I I I #
coedge $-1 $40 $41 $42 $43 forward $14 $-1 #
coedge $-1 $44 $16 $40 $45 forward $9 $-1 #
coedge $-1 $16 $44 $41 $46 reversed $9 $-1 #
coedge $-1 $47 $17 $48 $49 reversed $11 $-1 #
coedge $-1 $17 $50 $51 $52 reversed $11 $-1 #
coedge $-1 $53 $54 $17 $29 forward $55 $-1 #
edge $-1 $56 0 $57 0.21650635094610959 $17 $58 forward 7 unknown #
coedge $-1 $41 $40 $18 $31 reversed $14 $-1 #
edge $-1 $32 0 $33 3.1415926535897931 $18 $59 forward 7 unknown #
vertex $-1 $31 $60 #
vertex $-1 $31 $61 #
ellipse-curve $-1 1.3877787807814457e-017 0 1.3877787807814457e-017 0 -1 0 -0.34250000000000003 0 2.806497981060197e-017 1 I I #
face $-1 $62 $63 $3 $-1 $64 forward single #
loop $-1 $-1 $65 $20 #
cone-surface $-1 0 -4.1999999999999993 0 0 1 0 0.19 0 0 1 I I 0 1 0.19 forward I I I I #
loop $-1 $-1 $42 $13 #
coedge $-1 $66 $66 $65 $67 reversed $21 $-1 #
coedge $-1 $30 $23 $24 $45 reversed $14 $-1 #
coedge $-1 $23 $30 $25 $46 forward $14 $-1 #
coedge $-1 $68 $68 $23 $43 reversed $38 $-1 #
edge $-1 $69 1.2246063538223773e-016 $70 3.1415926535897931 $23 $71 forward 7 unknown #
coedge $-1 $25 $24 $68 $72 reversed $9 $-1 #
edge $-1 $33 0 $70 0.34999999999999998 $40 $73 forward 7 unknown #
edge $-1 $32 0 $69 0.34999999999999964 $41 $74 forward 7 unknown #
coedge $-1 $75 $26 $76 $77 reversed $11 $-1 #
coedge $-1 $78 $79 $26 $49 forward $80 $-1 #
edge $-1 $81 0 $56 0.21650635094610954 $26 $82 forward 7 unknown #
coedge $-1 $27 $75 $83 $84 reversed $11 $-1 #
coedge $-1 $85 $86 $27 $52 forward $87 $-1 #
edge $-1 $57 0 $88 0.21650635094610954 $27 $89 forward 7 unknown #
coedge $-1 $90 $28 $86 $91 reversed $55 $-1 #
coedge $-1 $28 $90 $78 $92 forward $55 $-1 #
loop $-1 $-1 $53 $93 #
vertex $-1 $49 $94 #
vertex $-1 $52 $95 #
straight-curve $-1 -0.1082531754730548 0 0.1875 1 0 0 I I #
ellipse-curve $-1 1.3877787807814457e-017 0 0 0 1 0 -0.34250000000000003 0 4.1942767618416426e-017 1 I I #
point $-1 -0.34250000000000003 0 4.1942767618416426e-017 #
point $-1 0.34250000000000003 0 0 #
face $-1 $96 $97 $3 $-1 $98 reversed single #
loop $-1 $-1 $99 $35 #
cone-surface $-1 0 -4.1999999999999993 0 0 1 0 0.19 0 0 1 I I 0 1 0.19 forward I I I I #
coedge $-1 $100 $101 $39 $67 forward $36 $-1 #
coedge $-1 $39 $39 $102 $103 forward $21 $-1 #
edge $-1 $104 0 $105 3.1415926535897931 $39 $106 forward 7 unknown #
coedge $-1 $42 $42 $44 $72 forward $38 $-1 #
vertex $-1 $46 $107 #
vertex $-1 $45 $108 #
ellipse-curve $-1 0 -0.34999999999999998 0 0 1 0 -0.34250000000000003 0 0 1 I I #
edge $-1 $69 -1.2246063538223773e-016 $70 3.1415926535897931 $68 $109 forward 7 unknown #
straight-curve $-1 0.34250000000000003 0 -8.3885535236832853e-017 0 -1 0 I I #
straight-curve $-1 -0.34250000000000003 0 4.1942767618416426e-017 0 -1 0 I I #
coedge $-1 $50 $47 $110 $111 reversed $11 $-1 #
coedge $-1 $112 $113 $47 $77 forward $114 $-1 #
edge $-1 $115 0 $81 0.21650635094610954 $47 $116 forward 7 unknown #
coedge $-1 $117 $48 $54 $92 reversed $80 $-1 #
coedge $-1 $48 $117 $112 $118 forward $80 $-1 #
loop $-1 $-1 $78 $119 #
vertex $-1 $77 $120 #
straight-curve $-1 -0.21650635094610943 0 0 0.49999999999999989 0 0.86602540378443871 I I #
coedge $-1 $121 $122 $50 $84 forward $123 $-1 #
edge $-1 $88 0 $124 0.21650635094610954 $50 $125 forward 7 unknown #
coedge $-1 $126 $51 $122 $127 reversed $87 $-1 #
coedge $-1 $51 $126 $53 $91 forward $87 $-1 #
loop $-1 $-1 $85 $128 #
vertex $-1 $52 $129 #
straight-curve $-1 0.1082531754730548 0 0.1875 0.49999999999999989 0 -0.86602540378443871 I I #
coedge $-1 $54 $53 $130 $131 reversed $55 $-1 #
edge $-1 $132 0 $57 0.188 $86 $133 forward 7 unknown #
edge $-1 $134 0 $56 0.188 $78 $135 forward 7 unknown #
face $-1 $128 $55 $3 $-1 $136 reversed single #
point $-1 -0.1082531754730548 0 0.1875 #
point $-1 0.1082531754730548 0 0.1875 #
face $-1 $137 $138 $3 $-1 $139 forward single #
loop $-1 $140 $141 $62 #
plane-surface $-1 0 -3.125 0 0 1 0 1 0 0 forward_v I I I I #
coedge $-1 $142 $143 $144 $145 forward $63 $-1 #
coedge $-1 $146 $65 $142 $147 forward $36 $-1 #
coedge $-1 $65 $146 $143 $148 reversed $36 $-1 #
coedge $-1 $143 $142 $66 $103 reversed $63 $-1 #
edge $-1 $104 0 $105 3.1415926535897931 $66 $149 forward 7 unknown #
vertex $-1 $103 $150 #
vertex $-1 $103 $151 #
ellipse-curve $-1 0 -0.34999999999999998 -6.9388939039072284e-018 -1.7529837230923526e-015 -1 2.786913324910003e-031 -0.19 3.3306690738754696e-016 3.0206414626532398e-017 1 I I #
point $-1 -0.34250000000000003 -0.34999999999999964 4.1942767618416426e-017 #
point $-1 0.34250000000000003 -0.34999999999999998 0 #
ellipse-curve $-1 0 -0.34999999999999998 0 0 -1 0 -0.34250000000000003 0 0 1 I I #
coedge $-1 $152 $153 $75 $111 forward $154 $-1 #
edge $-1 $124 0 $115 0.21650635094610959 $75 $155 forward 7 unknown #
coedge $-1 $156 $76 $79 $118 reversed $114 $-1 #
coedge $-1 $76 $156 $152 $157 forward $114 $-1 #
loop $-1 $-1 $112 $158 #
vertex $-1 $111 $159 #
straight-curve $-1 -0.1082531754730548 0 -0.1875 -0.49999999999999989 0 0.86602540378443871 I I #
coedge $-1 $79 $78 $160 $161 reversed $80 $-1 #
edge $-1 $162 0 $81 0.188 $112 $163 forward 7 unknown #
face $-1 $164 $80 $3 $-1 $165 reversed single #
point $-1 -0.21650635094610943 0 0 #
coedge $-1 $166 $83 $153 $167 reversed $123 $-1 #
coedge $-1 $83 $166 $85 $127 forward $123 $-1 #
loop $-1 $-1 $121 $168 #
vertex $-1 $84 $169 #
straight-curve $-1 0.21650635094610943 0 0 -0.49999999999999989 0 -0.86602540378443871 I I #
coedge $-1 $86 $85 $170 $171 reversed $87 $-1 #
edge $-1 $172 0 $88 0.188 $85 $173 forward 7 unknown #
face $-1 $168 $87 $3 $-1 $174 reversed single #
point $-1 0.21650635094610943 0 0 #
coedge $-1 $170 $160 $90 $131 forward $175 $-1 #
edge $-1 $134 0 $132 0.21650635094610959 $130 $176 forward 7 unknown #
vertex $-1 $171 $177 #
straight-curve $-1 0.1082531754730548 -0.188 0.1875 0 1 0 I I #
vertex $-1 $131 $178 #
straight-curve $-1 -0.10825317547305469 -0.188 0.18749999999999992 0 1 0 I I #
plane-surface $-1 -0.1082531754730548 -0.188 0.1875 0 0 1 1 0 0 forward_v I I I I #
face $-1 $179 $180 $3 $-1 $181 forward single #
loop $-1 $-1 $182 $96 #
cone-surface $-1 0 -4.1999999999999993 0 0 1 0 0.1875 0 0 1 I I 0 1 0.1875 forward I I I I #
loop $-1 $-1 $144 $62 #
coedge $-1 $183 $183 $182 $184 reversed $97 $-1 #
coedge $-1 $102 $99 $100 $147 reversed $63 $-1 #
coedge $-1 $99 $102 $101 $148 forward $63 $-1 #
coedge $-1 $185 $185 $99 $145 reversed $140 $-1 #
edge $-1 $186 1.2246063538223773e-016 $187 3.1415926535897931 $99 $188 forward 7 unknown #
coedge $-1 $101 $100 $185 $189 reversed $36 $-1 #
edge $-1 $105 0 $187 2.7750000000000004 $142 $190 forward 7 unknown #
edge $-1 $104 0 $186 2.7749999999999995 $143 $191 forward 7 unknown #
ellipse-curve $-1 0 -0.34999999999999998 -2.0816681711721685e-017 1.7529837230923526e-015 1 -4.0673099638378053e-031 -0.19 3.3306690738754696e-016 4.4084202434346855e-017 1 I I #
point $-1 -0.19 -0.34999999999999964 2.3267520722625167e-017 #
point $-1 0.19 -0.34999999999999964 0 #
coedge $-1 $192 $110 $113 $157 reversed $154 $-1 #
coedge $-1 $110 $192 $121 $167 forward $154 $-1 #
loop $-1 $-1 $152 $193 #
straight-curve $-1 0.1082531754730548 0 -0.1875 -1 0 0 I I #
coedge $-1 $113 $112 $194 $195 reversed $114 $-1 #
edge $-1 $196 0 $115 0.188 $152 $197 forward 7 unknown #
face $-1 $119 $114 $3 $-1 $198 reversed single #
point $-1 -0.1082531754730548 0 -0.1875 #
coedge $-1 $130 $194 $117 $161 forward $175 $-1 #
edge $-1 $162 0 $134 0.21650635094610954 $160 $199 forward 7 unknown #
vertex $-1 $161 $200 #
straight-curve $-1 -0.21650635094610954 -0.188 -8.3266726846886741e-017 0 1 0 I I #
face $-1 $-1 $175 $3 $-1 $201 forward single #
plane-surface $-1 -0.21650635094610943 -0.188 0 -0.86602540378443882 0 0.49999999999999989 0.5 0 0.86602540378443904 forward_v I I I I #
coedge $-1 $122 $121 $202 $203 reversed $123 $-1 #
edge $-1 $204 0 $124 0.188 $121 $205 forward 7 unknown #
face $-1 $193 $123 $3 $-1 $206 reversed single #
point $-1 0.1082531754730548 0 -0.1875 #
coedge $-1 $202 $130 $126 $171 forward $175 $-1 #
edge $-1 $132 0 $172 0.21650635094610954 $170 $207 forward 7 unknown #
vertex $-1 $171 $208 #
straight-curve $-1 0.21650635094610954 -0.188 8.3266726846886741e-017 0 1 0 I I #
plane-surface $-1 0.1082531754730548 -0.188 0.1875 0.86602540378443882 0 0.49999999999999989 0.5 0 -0.86602540378443904 forward_v I I I I #
loop $-1 $-1 $202 $164 #
straight-curve $-1 -0.1082531754730548 -0.188 0.1875 1 0 0 I I #
point $-1 0.1082531754730548 -0.188 0.1875 #
point $-1 -0.1082531754730548 -0.188 0.1875 #
face $-1 $209 $210 $3 $-1 $211 forward single #
loop $-1 $-1 $212 $137 #
cone-surface $-1 0 -4.1999999999999993 0 0 1 0 0.1875 0 0 1 I I 0 1 0.1875 forward I I I I #
coedge $-1 $213 $214 $141 $184 forward $138 $-1 #
coedge $-1 $141 $141 $215 $216 forward $97 $-1 #
edge $-1 $217 0 $218 3.1415926535897931 $141 $219 forward 7 unknown #
coedge $-1 $144 $144 $146 $189 forward $140 $-1 #
vertex $-1 $148 $220 #
vertex $-1 $147 $221 #
ellipse-curve $-1 0 -3.125 0 0 1 0 -0.19 0 0 1 I I #
edge $-1 $186 -1.2246063538223773e-016 $187 3.1415926535897931 $185 $222 forward 7 unknown #
straight-curve $-1 0.19 -0.34999999999999964 -4.6535041445250334e-017 0 -1 0 I I #
straight-curve $-1 -0.19 -0.34999999999999964 2.3267520722625167e-017 0 -1 0 I I #
coedge $-1 $153 $152 $223 $224 reversed $154 $-1 #
face $-1 $158 $154 $3 $-1 $225 reversed single #
coedge $-1 $160 $223 $156 $195 forward $175 $-1 #
edge $-1 $196 0 $162 0.21650635094610954 $194 $226 forward 7 unknown #
vertex $-1 $195 $227 #
straight-curve $-1 -0.1082531754730548 -0.188 -0.1875 0 1 0 I I #
plane-surface $-1 -0.1082531754730548 -0.188 -0.1875 -0.86602540378443882 0 -0.49999999999999989 -0.5 0 0.86602540378443904 forward_v I I I I #
straight-curve $-1 -0.21650635094610943 -0.188 0 0.49999999999999989 0 0.86602540378443871 I I #
point $-1 -0.21650635094610943 -0.188 0 #
plane-surface $-1 0 -0.188 0 0 1 0 -1 0 0 forward_v I I I I #
coedge $-1 $223 $170 $166 $203 forward $175 $-1 #
edge $-1 $172 0 $204 0.21650635094610954 $202 $228 forward 7 unknown #
vertex $-1 $224 $229 #
straight-curve $-1 0.10825317547305469 -0.188 -0.18749999999999992 0 1 0 I I #
plane-surface $-1 0.21650635094610943 -0.188 0 0.86602540378443882 0 -0.49999999999999989 -0.5 0 -0.86602540378443904 forward_v I I I I #
straight-curve $-1 0.1082531754730548 -0.188 0.1875 0.49999999999999989 0 -0.86602540378443871 I I #
point $-1 0.21650635094610943 -0.188 0 #
face $-1 $230 $231 $3 $-1 $232 reversed single #
loop $-1 $-1 $233 $179 #
cone-surface $-1 0 -3.1374999999999993 0 0 -1 0 1.0000000000000033 0 0 1 I I -0.70710678118654868 0.70710678118654635 1.0000000000000033 forward I I I I #
coedge $-1 $234 $235 $236 $237 forward $180 $-1 #
coedge $-1 $238 $182 $234 $239 forward $138 $-1 #
coedge $-1 $182 $238 $235 $240 reversed $138 $-1 #
coedge $-1 $235 $234 $183 $216 reversed $180 $-1 #
edge $-1 $217 0 $218 3.1415926535897931 $183 $241 forward 7 unknown #
vertex $-1 $216 $242 #
vertex $-1 $216 $243 #
ellipse-curve $-1 6.9388939039072284e-018 -3.125 -6.9388939039072284e-018 -4.736951571734001e-015 -1 7.553925226318825e-031 -0.1875 8.8817841970012523e-016 2.9900263038076802e-017 1 I I #
point $-1 -0.19 -3.1249999999999991 2.3267520722625167e-017 #
point $-1 0.19 -3.125 0 #
ellipse-curve $-1 0 -3.125 0 0 -1 0 -0.19 0 0 1 I I #
coedge $-1 $194 $202 $192 $224 forward $175 $-1 #
edge $-1 $204 0 $196 0.21650635094610959 $223 $244 forward 7 unknown #
plane-surface $-1 0.1082531754730548 -0.188 -0.1875 0 0 -1 -1 0 0 forward_v I I I I #
straight-curve $-1 -0.1082531754730548 -0.188 -0.1875 -0.49999999999999989 0 0.86602540378443871 I I #
point $-1 -0.1082531754730548 -0.188 -0.1875 #
straight-curve $-1 0.21650635094610943 -0.188 0 -0.49999999999999989 0 -0.86602540378443871 I I #
point $-1 0.1082531754730548 -0.188 -0.1875 #
face $-1 $93 $245 $3 $-1 $246 forward single #
loop $-1 $-1 $247 $209 #
plane-surface $-1 0 -4 0 0 1 0 1 0 0 forward_v I I I I #
coedge $-1 $248 $249 $247 $250 forward $210 $-1 #
coedge $-1 $215 $212 $213 $239 reversed $180 $-1 #
coedge $-1 $212 $215 $214 $240 forward $180 $-1 #
coedge $-1 $249 $248 $212 $237 reversed $210 $-1 #
edge $-1 $251 7.6694810229820637e-032 $252 3.1415926535897931 $212 $253 forward 7 unknown #
coedge $-1 $214 $213 $254 $255 reversed $138 $-1 #
edge $-1 $218 0 $252 0.82500000000000107 $234 $256 forward 7 unknown #
edge $-1 $217 0 $251 0.82500000000000018 $235 $257 forward 7 unknown #
ellipse-curve $-1 0 -3.125 6.9388939039072284e-018 4.736951571734001e-015 1 -4.0478767586698838e-031 -0.1875 8.8817841970012523e-016 1.6022475230262345e-017 1 I I #
point $-1 -0.1875 -3.1249999999999991 2.2961369134169574e-017 #
point $-1 0.1875 -3.1249999999999991 0 #
straight-curve $-1 0.1082531754730548 -0.188 -0.1875 -1 0 0 I I #
loop $-1 $-1 $254 $230 #
cone-surface $-1 0 -3.1374999999999993 0 0 -1 0 1.0000000000000033 0 0 1 I I -0.70710678118654868 0.70710678118654635 1.0000000000000033 forward I I I I #
coedge $-1 $258 $258 $233 $250 reversed $231 $-1 #
coedge $-1 $236 $233 $259 $260 reversed $210 $-1 #
coedge $-1 $233 $236 $261 $262 forward $210 $-1 #
edge $-1 $263 1.2246063538223775e-016 $264 3.1415926535897931 $233 $265 forward 7 unknown #
vertex $-1 $240 $266 #
vertex $-1 $239 $267 #
ellipse-curve $-1 0 -3.9500000000000002 6.9388939039072284e-018 0 1 0 -0.18749999999999989 0 1.6022475230262321e-017 1 I I #
coedge $-1 $259 $261 $238 $255 forward $245 $-1 #
edge $-1 $251 -4.3825605845611792e-032 $252 3.1415926535897931 $238 $268 forward 7 unknown #
straight-curve $-1 0.1875 -3.1249999999999991 -4.5922738268339147e-017 0 -1 0 I I #
straight-curve $-1 -0.1875 -3.1249999999999991 2.2961369134169574e-017 0 -1 0 I I #
coedge $-1 $247 $247 $269 $270 forward $231 $-1 #
coedge $-1 $269 $254 $248 $260 forward $245 $-1 #
edge $-1 $252 0 $264 0.070710678118654557 $248 $271 forward 7 unknown #
coedge $-1 $254 $269 $249 $262 reversed $245 $-1 #
edge $-1 $251 -7.0654160640769758e-016 $263 0.070710678118654668 $249 $272 forward 7 unknown #
vertex $-1 $262 $273 #
vertex $-1 $260 $274 #
ellipse-curve $-1 0 -4 0 0 1 0 -0.13749999999999998 0 0 1 I I #
point $-1 -0.1875 -3.9499999999999993 2.2961369134169574e-017 #
point $-1 0.18749999999999989 -3.9500000000000002 -4.5922738268339098e-017 #
ellipse-curve $-1 6.9388939039072284e-018 -3.9500000000000002 -6.9388939039072284e-018 0 -1 0 -0.18749999999999989 0 2.9900263038076777e-017 1 I I #
coedge $-1 $261 $259 $258 $270 reversed $245 $-1 #
edge $-1 $263 -1.2246063538223775e-016 $264 3.1415926535897931 $258 $275 forward 7 unknown #
straight-curve $-1 0.18749999999999989 -3.9500000000000002 -4.5922738268339098e-017 -0.70710678118654913 -0.70710678118654602 1.7318549141438706e-016 I I #
straight-curve $-1 -0.18749999999999989 -3.9500000000000002 2.2961369134169549e-017 0.70710678118654913 -0.70710678118654602 -8.6592745707193529e-017 I I #
point $-1 -0.13749999999999984 -4 1.6838337365057673e-017 #
point $-1 0.13749999999999998 -4 0 #
ellipse-curve $-1 0 -4 0 0 -1 0 -0.13749999999999998 0 0 1 I I #
End-of-ACIS-data 