700 0 2 0           
24 FBMach with ACIS - 7.0.3 13 ACIS 7.0.3 NT 24 Tue May 14 15:31:00 2002 
1 9.9999999999999995e-007 1e-010 
body $2 -1 $-1 $3 $-1 $4 #
bdycol-kcp $-1 -1 1 2 $5 $6 #
model_id-kcp-attrib $-1 -1 $-1 $-1 $0 1 1021404660 1021404660 914751489 1 #
lump $-1 -1 $-1 $-1 $7 $0 #
transform $-1 -1 1 0 0 0 1 0 0 0 1 0 0 0 1 rotate no_reflect no_shear #
body $8 -1 $-1 $9 $-1 $10 #
body $11 -1 $-1 $12 $-1 $13 #
shell $-1 -1 $-1 $-1 $-1 $14 $-1 $3 #
rgb_color-st-attrib $-1 -1 $15 $-1 $5 0.5 1 1 #
lump $-1 -1 $-1 $16 $17 $5 #
transform $-1 -1 1 0 0 0 1 0 0 0 1 76.200000000000003 50.799999999999997 12.699999999999999 1 no_rotate no_reflect no_shear #
model_id-kcp-attrib $-1 -1 $-1 $-1 $6 1 1021404660 1021404660 914751490 1 #
lump $-1 -1 $-1 $-1 $18 $6 #
transform $-1 -1 1 0 0 0 1 0 0 0 1 76.200000000000003 50.799999999999997 12.699999999999999 1 no_rotate no_reflect no_shear #
face $19 -1 $-1 $20 $21 $7 $-1 $22 reversed single #
model_id-kcp-attrib $-1 -1 $-1 $8 $5 1 1021404660 1021404660 907804675 1 #
lump $-1 -1 $-1 $23 $24 $5 #
shell $-1 -1 $-1 $-1 $-1 $25 $-1 $9 #
shell $-1 -1 $-1 $-1 $-1 $26 $-1 $12 #
model_id-kcp-attrib $-1 -1 $-1 $-1 $14 1 1021404660 1021404660 914751489 2 #
face $27 -1 $-1 $28 $29 $7 $-1 $30 forward single #
loop $-1 -1 $-1 $-1 $31 $14 #
plane-surface $-1 -1 $-1 0 0 0 0 0 1 25.399999999999999 0 0 forward_v I I I I #
lump $-1 -1 $-1 $32 $33 $5 #
shell $-1 -1 $-1 $-1 $-1 $34 $-1 $16 #
face $-1 -1 $-1 $35 $36 $17 $-1 $37 reversed single #
face $38 -1 $-1 $39 $40 $18 $-1 $41 forward single #
model_id-kcp-attrib $-1 -1 $-1 $-1 $20 1 1021404660 1021404660 914751489 3 #
face $42 -1 $-1 $43 $44 $7 $-1 $45 forward single #
loop $-1 -1 $-1 $-1 $46 $20 #
cone-surface $-1 -1 $-1 133.34999999999999 19.049999999999997 0 0 0 1 19.049999999999997 0 0 1 I I 0 1 19.049999999999997 forward I I I I #
coedge $-1 -1 $-1 $47 $48 $49 $50 reversed $21 $-1 #
lump $-1 -1 $-1 $-1 $51 $5 #
shell $-1 -1 $-1 $-1 $-1 $52 $-1 $23 #
face $-1 -1 $-1 $53 $54 $24 $-1 $55 reversed single #
face $-1 -1 $-1 $56 $57 $17 $-1 $58 reversed single #
loop $-1 -1 $-1 $-1 $59 $25 #
cone-surface $-1 -1 $-1 -57.149999999999999 -31.75 -12.699999999999999 0 0 -1 -19.050000000000004 3.5527136788005009e-015 0 1 I I 0 1 19.050000000000004 forward I I I I #
model_id-kcp-attrib $-1 -1 $-1 $-1 $26 1 1021404660 1021404660 914751490 9 #
face $60 -1 $-1 $61 $62 $18 $-1 $63 reversed single #
loop $-1 -1 $-1 $-1 $64 $26 #
plane-surface $-1 -1 $-1 0 0 12.699999999999999 0 0 1 1 0 0 forward_v I I I I #
model_id-kcp-attrib $-1 -1 $-1 $-1 $28 1 1021404660 1021404660 914751489 4 #
face $65 -1 $-1 $66 $67 $7 $-1 $68 forward single #
loop $-1 -1 $-1 $-1 $69 $28 #
plane-surface $-1 -1 $-1 152.39999999999998 19.049999999999997 0 1 0 0 0 25.399999999999999 0 forward_v I I I I #
coedge $-1 -1 $-1 $70 $49 $71 $72 forward $29 $-1 #
coedge $-1 -1 $-1 $73 $31 $74 $75 reversed $21 $-1 #
coedge $-1 -1 $-1 $31 $76 $77 $78 reversed $21 $-1 #
coedge $-1 -1 $-1 $46 $79 $31 $50 forward $29 $-1 #
edge $80 -1 $-1 $81 0 $82 1.5707963267948966 $31 $83 forward @7 unknown #
shell $-1 -1 $-1 $-1 $-1 $84 $-1 $32 #
face $-1 -1 $-1 $85 $86 $33 $-1 $87 reversed single #
face $-1 -1 $-1 $88 $89 $24 $-1 $90 reversed single #
loop $-1 -1 $-1 $-1 $91 $34 #
plane-surface $-1 -1 $-1 0 50.799999999999997 0 0 -1 0 0 0 -1 forward_v I I I I #
face $-1 -1 $-1 $92 $93 $17 $-1 $94 forward single #
loop $-1 -1 $-1 $-1 $95 $35 #
plane-surface $-1 -1 $-1 -76.200000000000003 0 0 1 0 0 0 0 -1 forward_v I I I I #
coedge $-1 -1 $-1 $96 $97 $98 $99 reversed $36 $-1 #
model_id-kcp-attrib $-1 -1 $-1 $-1 $39 1 1021404660 1021404660 914751490 2 #
face $100 -1 $-1 $101 $102 $18 $-1 $103 reversed single #
loop $-1 -1 $-1 $-1 $104 $39 #
plane-surface $-1 -1 $-1 0 0 -12.699999999999999 0 0 1 1 0 0 forward_v I I I I #
coedge $-1 -1 $-1 $105 $106 $107 $108 forward $40 $-1 #
model_id-kcp-attrib $-1 -1 $-1 $-1 $43 1 1021404660 1021404660 914751489 5 #
face $109 -1 $-1 $110 $111 $7 $-1 $112 forward single #
loop $-1 -1 $-1 $-1 $113 $43 #
cone-surface $-1 -1 $-1 133.34999999999999 82.549999999999997 0 0 0 1 19.049999999999997 0 0 1 I I 0 1 19.049999999999997 forward I I I I #
coedge $-1 -1 $-1 $114 $77 $115 $116 forward $44 $-1 #
coedge $-1 -1 $-1 $79 $46 $117 $118 reversed $29 $-1 #
coedge $-1 -1 $-1 $77 $114 $46 $72 reversed $44 $-1 #
edge $119 -1 $-1 $82 0 $120 1 $71 $121 forward @7 unknown #
coedge $-1 -1 $-1 $122 $47 $123 $124 reversed $21 $-1 #
coedge $-1 -1 $-1 $125 $126 $47 $75 forward $127 $-1 #
edge $128 -1 $-1 $129 0 $81 1.97 $47 $130 forward @7 unknown #
coedge $-1 -1 $-1 $48 $131 $132 $133 reversed $21 $-1 #
coedge $-1 -1 $-1 $69 $71 $48 $78 forward $44 $-1 #
edge $134 -1 $-1 $82 0 $135 2.5 $48 $136 forward @7 unknown #
coedge $-1 -1 $-1 $49 $70 $125 $137 reversed $29 $-1 #
attrib_edge_convexity-kcp-attrib $-1 -1 $138 $-1 $50 1 #
vertex $-1 -1 $-1 $75 $139 #
vertex $-1 -1 $-1 $78 $140 #
ellipse-curve $-1 -1 $-1 133.34999999999999 19.049999999999997 0 0 0 1 0 -19.049999999999997 0 1 I I #
face $-1 -1 $-1 $141 $142 $51 $-1 $143 reversed single #
face $-1 -1 $-1 $144 $145 $33 $-1 $58 reversed single #
loop $-1 -1 $-1 $-1 $146 $52 #
cone-surface $-1 -1 $-1 -57.149999999999991 31.749999999999986 -12.699999999999999 0 0 -1 -1.4210854715202004e-014 19.050000000000004 0 1 I I 0 1 19.050000000000004 forward I I I I #
face $-1 -1 $-1 $147 $148 $24 $-1 $143 reversed single #
loop $-1 -1 $-1 $-1 $149 $53 #
plane-surface $-1 -1 $-1 0 0 -12.699999999999999 0 0 1 1 0 0 forward_v I I I I #
coedge $-1 -1 $-1 $150 $151 $152 $153 reversed $54 $-1 #
face $-1 -1 $-1 $154 $155 $17 $-1 $90 reversed single #
loop $-1 -1 $-1 $-1 $98 $56 #
plane-surface $-1 -1 $-1 0 0 12.699999999999999 0 0 1 1 0 0 forward_v I I I I #
coedge $-1 -1 $-1 $156 $157 $97 $158 forward $57 $-1 #
coedge $-1 -1 $-1 $159 $59 $160 $161 forward $36 $-1 #
coedge $-1 -1 $-1 $59 $159 $95 $158 reversed $36 $-1 #
coedge $-1 -1 $-1 $162 $163 $59 $99 forward $93 $-1 #
edge $-1 -1 $-1 $164 -1.5707963267948972 $165 -1.8649415636748034e-016 $98 $166 forward @7 unknown #
model_id-kcp-attrib $-1 -1 $-1 $-1 $61 1 1021404660 1021404660 914751490 6 #
face $167 -1 $-1 $168 $169 $18 $-1 $170 reversed single #
loop $-1 -1 $-1 $-1 $171 $61 #
plane-surface $-1 -1 $-1 0 -50.799999999999997 0 0 1 0 0 0 1 forward_v I I I I #
coedge $-1 -1 $-1 $172 $173 $174 $175 forward $62 $-1 #
coedge $-1 -1 $-1 $176 $64 $177 $178 forward $40 $-1 #
coedge $-1 -1 $-1 $64 $176 $179 $180 forward $40 $-1 #
coedge $-1 -1 $-1 $181 $182 $64 $108 reversed $183 $-1 #
edge $-1 -1 $-1 $184 -50.799999999999997 $185 50.799999999999997 $107 $186 forward @7 unknown #
model_id-kcp-attrib $-1 -1 $-1 $-1 $66 1 1021404660 1021404660 914751489 6 #
face $187 -1 $-1 $188 $189 $7 $-1 $190 forward single #
loop $-1 -1 $-1 $-1 $191 $66 #
plane-surface $-1 -1 $-1 133.34999999999999 101.59999999999999 0 0 1 0 -25.399999999999999 0 0 forward_v I I I I #
coedge $-1 -1 $-1 $192 $132 $193 $194 forward $67 $-1 #
coedge $-1 -1 $-1 $71 $69 $195 $196 reversed $44 $-1 #
coedge $-1 -1 $-1 $132 $192 $69 $116 reversed $67 $-1 #
edge $197 -1 $-1 $135 0 $198 1 $69 $199 forward @7 unknown #
coedge $-1 -1 $-1 $195 $200 $70 $118 forward $201 $-1 #
edge $-1 -1 $-1 $202 0 $120 1.5707963267948957 $117 $203 forward @7 unknown #
attrib_edge_convexity-kcp-attrib $-1 -1 $204 $-1 $72 3 #
vertex $-1 -1 $-1 $196 $205 #
straight-curve $-1 -1 $-1 152.39999999999998 19.049999999999997 0 0 0 25.399999999999999 I I #
coedge $-1 -1 $-1 $206 $73 $207 $208 reversed $21 $-1 #
coedge $-1 -1 $-1 $209 $210 $73 $124 forward $211 $-1 #
edge $212 -1 $-1 $213 0 $129 0.58000000000000052 $73 $214 forward @7 unknown #
coedge $-1 -1 $-1 $215 $74 $79 $137 forward $127 $-1 #
coedge $-1 -1 $-1 $74 $215 $209 $216 reversed $127 $-1 #
loop $-1 -1 $-1 $-1 $125 $217 #
attrib_edge_convexity-kcp-attrib $-1 -1 $218 $-1 $75 1 #
vertex $-1 -1 $-1 $124 $219 #
straight-curve $-1 -1 $-1 83.311999999999998 0 0 25.399999999999999 0 0 I I #
coedge $-1 -1 $-1 $76 $220 $221 $222 reversed $21 $-1 #
coedge $-1 -1 $-1 $113 $115 $76 $133 forward $67 $-1 #
edge $223 -1 $-1 $135 0 $224 1.5707963267948966 $76 $225 forward @7 unknown #
attrib_edge_convexity-kcp-attrib $-1 -1 $226 $-1 $78 1 #
vertex $-1 -1 $-1 $78 $227 #
straight-curve $-1 -1 $-1 152.39999999999998 19.049999999999997 0 0 25.399999999999999 0 I I #
edge $-1 -1 $-1 $81 0 $202 1 $125 $228 forward @7 unknown #
convexity-sys-attrib $-1 -1 $-1 $80 $50 #
point $-1 -1 $-1 133.34999999999999 0 0 #
point $-1 -1 $-1 152.39999999999998 19.049999999999997 0 #
face $-1 -1 $-1 $229 $230 $51 $-1 $90 reversed single #
loop $-1 -1 $-1 $-1 $231 $84 #
plane-surface $-1 -1 $-1 76.200000000000003 0 0 -1 0 0 0 0 1 forward_v I I I I #
face $-1 -1 $-1 $232 $233 $33 $-1 $94 forward single #
loop $-1 -1 $-1 $-1 $234 $85 #
coedge $-1 -1 $-1 $235 $236 $237 $238 reversed $86 $-1 #
face $-1 -1 $-1 $239 $240 $24 $-1 $94 forward single #
loop $-1 -1 $-1 $-1 $241 $88 #
coedge $-1 -1 $-1 $242 $243 $244 $245 forward $89 $-1 #
coedge $-1 -1 $-1 $246 $91 $247 $248 reversed $54 $-1 #
coedge $-1 -1 $-1 $91 $246 $242 $249 reversed $54 $-1 #
coedge $-1 -1 $-1 $244 $250 $91 $153 forward $251 $-1 #
edge $-1 -1 $-1 $252 -25.399999999999999 $253 0 $91 $254 forward @7 unknown #
face $-1 -1 $-1 $-1 $255 $17 $-1 $256 reversed single #
loop $-1 -1 $-1 $-1 $257 $92 #
coedge $-1 -1 $-1 $258 $95 $259 $260 reversed $57 $-1 #
coedge $-1 -1 $-1 $95 $258 $162 $261 reversed $57 $-1 #
edge $-1 -1 $-1 $165 -25.399999999999999 $262 0 $95 $263 forward @7 unknown #
coedge $-1 -1 $-1 $97 $96 $257 $264 reversed $36 $-1 #
coedge $-1 -1 $-1 $265 $266 $96 $161 reversed $255 $-1 #
edge $-1 -1 $-1 $164 -25.399999999999999 $267 0 $160 $268 forward @7 unknown #
coedge $-1 -1 $-1 $163 $98 $157 $261 forward $93 $-1 #
coedge $-1 -1 $-1 $98 $162 $265 $269 forward $93 $-1 #
vertex $-1 -1 $-1 $99 $270 #
vertex $-1 -1 $-1 $261 $271 #
ellipse-curve $-1 -1 $-1 -57.149999999999999 -31.75 12.699999999999999 0 0 -1 -19.050000000000004 3.5527136788005009e-015 0 1 I I #
model_id-kcp-attrib $-1 -1 $-1 $-1 $101 1 1021404660 1021404660 914751490 5 #
face $272 -1 $-1 $273 $274 $18 $-1 $275 reversed single #
loop $-1 -1 $-1 $-1 $276 $101 #
plane-surface $-1 -1 $-1 -76.200000000000003 0 0 1 0 0 0 0 -1 forward_v I I I I #
coedge $-1 -1 $-1 $277 $179 $278 $279 forward $102 $-1 #
coedge $-1 -1 $-1 $280 $104 $277 $281 forward $62 $-1 #
coedge $-1 -1 $-1 $104 $280 $282 $283 forward $62 $-1 #
coedge $-1 -1 $-1 $182 $181 $104 $175 reversed $183 $-1 #
edge $-1 -1 $-1 $284 -50.799999999999997 $285 50.799999999999997 $174 $286 forward @7 unknown #
coedge $-1 -1 $-1 $106 $105 $287 $288 forward $40 $-1 #
coedge $-1 -1 $-1 $289 $290 $105 $178 reversed $274 $-1 #
edge $-1 -1 $-1 $185 -76.200000000000003 $291 76.200000000000003 $177 $292 forward @7 unknown #
coedge $-1 -1 $-1 $171 $293 $106 $180 reversed $102 $-1 #
edge $-1 -1 $-1 $294 -76.200000000000003 $184 76.200000000000003 $179 $295 forward @7 unknown #
coedge $-1 -1 $-1 $174 $107 $293 $296 forward $183 $-1 #
coedge $-1 -1 $-1 $107 $174 $289 $297 reversed $183 $-1 #
loop $-1 -1 $-1 $-1 $181 $273 #
vertex $-1 -1 $-1 $108 $298 #
vertex $-1 -1 $-1 $108 $299 #
straight-curve $-1 -1 $-1 76.200000000000003 0 12.699999999999999 0 1 0 I I #
model_id-kcp-attrib $-1 -1 $-1 $-1 $110 1 1021404660 1021404660 914751489 7 #
face $300 -1 $-1 $301 $302 $7 $-1 $303 forward single #
loop $-1 -1 $-1 $-1 $304 $110 #
cone-surface $-1 -1 $-1 19.049999999999997 82.549999999999997 0 0 0 1 19.049999999999997 0 0 1 I I 0 1 19.049999999999997 forward I I I I #
coedge $-1 -1 $-1 $305 $221 $306 $307 forward $111 $-1 #
coedge $-1 -1 $-1 $115 $113 $308 $309 reversed $67 $-1 #
coedge $-1 -1 $-1 $221 $305 $113 $194 reversed $111 $-1 #
edge $310 -1 $-1 $224 0 $311 1 $113 $312 forward @7 unknown #
coedge $-1 -1 $-1 $308 $117 $114 $196 forward $201 $-1 #
edge $313 -1 $-1 $120 0 $198 2.5 $195 $314 forward @7 unknown #
attrib_edge_convexity-kcp-attrib $-1 -1 $315 $-1 $116 3 #
vertex $-1 -1 $-1 $196 $316 #
straight-curve $-1 -1 $-1 152.39999999999998 82.549999999999997 0 0 0 25.399999999999999 I I #
coedge $-1 -1 $-1 $117 $317 $215 $318 forward $201 $-1 #
loop $-1 -1 $-1 $-1 $308 $319 #
vertex $-1 -1 $-1 $118 $320 #
ellipse-curve $-1 -1 $-1 133.34999999999999 19.050000000000015 25.399999999999999 0 0 1 0 -19.050000000000015 0 1 I I #
convexity-sys-attrib $-1 -1 $-1 $119 $72 #
point $-1 -1 $-1 152.39999999999998 19.049999999999997 25.399999999999999 #
coedge $-1 -1 $-1 $321 $122 $322 $323 reversed $21 $-1 #
coedge $-1 -1 $-1 $324 $325 $122 $208 forward $326 $-1 #
edge $327 -1 $-1 $328 0 $213 1.9499999999999995 $122 $329 forward @7 unknown #
coedge $-1 -1 $-1 $330 $123 $126 $216 forward $211 $-1 #
coedge $-1 -1 $-1 $123 $330 $324 $331 reversed $211 $-1 #
loop $-1 -1 $-1 $-1 $209 $332 #
attrib_edge_convexity-kcp-attrib $-1 -1 $333 $-1 $124 1 #
vertex $-1 -1 $-1 $208 $334 #
straight-curve $-1 -1 $-1 68.579999999999984 0 0 25.399999999999999 0 0 I I #
coedge $-1 -1 $-1 $126 $125 $200 $318 reversed $127 $-1 #
edge $-1 -1 $-1 $129 0 $335 1 $209 $336 forward @7 unknown #
face $337 -1 $-1 $319 $127 $7 $-1 $338 forward single #
convexity-sys-attrib $-1 -1 $-1 $128 $75 #
point $-1 -1 $-1 83.311999999999998 0 0 #
coedge $-1 -1 $-1 $131 $321 $339 $340 reversed $21 $-1 #
coedge $-1 -1 $-1 $191 $193 $131 $222 forward $111 $-1 #
edge $341 -1 $-1 $224 0 $342 4.5 $131 $343 forward @7 unknown #
attrib_edge_convexity-kcp-attrib $-1 -1 $344 $-1 $133 1 #
vertex $-1 -1 $-1 $133 $345 #
ellipse-curve $-1 -1 $-1 133.34999999999999 82.549999999999997 0 0 0 1 19.049999999999997 0 0 1 I I #
convexity-sys-attrib $-1 -1 $-1 $134 $78 #
point $-1 -1 $-1 152.39999999999998 82.549999999999997 0 #
straight-curve $-1 -1 $-1 133.34999999999999 0 0 0 0 25.399999999999999 I I #
face $-1 -1 $-1 $346 $347 $51 $-1 $94 forward single #
loop $-1 -1 $-1 $-1 $348 $141 #
coedge $-1 -1 $-1 $349 $350 $351 $352 reversed $142 $-1 #
face $-1 -1 $-1 $353 $354 $33 $-1 $55 reversed single #
loop $-1 -1 $-1 $-1 $237 $144 #
coedge $-1 -1 $-1 $355 $356 $235 $357 reversed $145 $-1 #
coedge $-1 -1 $-1 $358 $146 $234 $357 forward $86 $-1 #
coedge $-1 -1 $-1 $146 $358 $359 $360 reversed $86 $-1 #
coedge $-1 -1 $-1 $361 $362 $146 $238 forward $233 $-1 #
edge $-1 -1 $-1 $363 -1.5707963267948952 $364 7.4597662546992125e-016 $237 $365 forward @7 unknown #
face $-1 -1 $-1 $-1 $251 $24 $-1 $366 reversed single #
loop $-1 -1 $-1 $-1 $367 $147 #
coedge $-1 -1 $-1 $368 $369 $370 $371 forward $148 $-1 #
coedge $-1 -1 $-1 $243 $149 $151 $249 forward $89 $-1 #
coedge $-1 -1 $-1 $149 $242 $368 $372 forward $89 $-1 #
coedge $-1 -1 $-1 $370 $152 $149 $245 reversed $251 $-1 #
edge $-1 -1 $-1 $373 0 $253 1.5707963267948915 $149 $374 forward @7 unknown #
coedge $-1 -1 $-1 $151 $150 $375 $376 forward $54 $-1 #
coedge $-1 -1 $-1 $367 $377 $150 $248 forward $240 $-1 #
edge $-1 -1 $-1 $378 -76.200000000000003 $252 -57.149999999999991 $150 $379 forward @7 unknown #
edge $-1 -1 $-1 $253 57.149999999999991 $380 76.200000000000003 $151 $381 forward @7 unknown #
coedge $-1 -1 $-1 $152 $370 $367 $382 reversed $251 $-1 #
loop $-1 -1 $-1 $-1 $250 $239 #
vertex $-1 -1 $-1 $153 $383 #
vertex $-1 -1 $-1 $249 $384 #
straight-curve $-1 -1 $-1 57.149999999999935 50.799999999999997 -12.699999999999999 0 0 -1 I I #
loop $-1 -1 $-1 $-1 $160 $154 #
plane-surface $-1 -1 $-1 0 -50.799999999999997 0 0 1 0 0 0 1 forward_v I I I I #
coedge $-1 -1 $-1 $385 $259 $159 $264 forward $155 $-1 #
coedge $-1 -1 $-1 $157 $156 $386 $387 reversed $57 $-1 #
coedge $-1 -1 $-1 $257 $385 $156 $260 forward $155 $-1 #
edge $-1 -1 $-1 $388 -50.799999999999997 $262 -31.75 $156 $389 forward @7 unknown #
edge $-1 -1 $-1 $165 31.75 $390 50.799999999999997 $157 $391 forward @7 unknown #
vertex $-1 -1 $-1 $158 $392 #
straight-curve $-1 -1 $-1 -76.200000000000003 -31.75 -12.699999999999999 0 0 -1 I I #
edge $-1 -1 $-1 $262 1.8649415636748034e-016 $267 1.5707963267948972 $257 $393 forward @7 unknown #
coedge $-1 -1 $-1 $386 $160 $163 $269 reversed $255 $-1 #
coedge $-1 -1 $-1 $160 $386 $385 $394 reversed $255 $-1 #
vertex $-1 -1 $-1 $394 $395 #
straight-curve $-1 -1 $-1 -57.149999999999999 -50.799999999999997 -12.699999999999999 0 0 -1 I I #
edge $-1 -1 $-1 $390 -76.200000000000003 $164 -57.149999999999991 $265 $396 forward @7 unknown #
point $-1 -1 $-1 -57.149999999999991 -50.800000000000011 12.699999999999999 #
point $-1 -1 $-1 -76.200000000000003 -31.75 12.699999999999999 #
model_id-kcp-attrib $-1 -1 $-1 $-1 $168 1 1021404660 1021404660 914751490 4 #
face $397 -1 $-1 $-1 $183 $18 $-1 $398 reversed single #
loop $-1 -1 $-1 $-1 $289 $168 #
plane-surface $-1 -1 $-1 0 50.799999999999997 0 0 -1 0 0 0 -1 forward_v I I I I #
coedge $-1 -1 $-1 $399 $287 $290 $400 forward $169 $-1 #
coedge $-1 -1 $-1 $293 $171 $172 $281 reversed $102 $-1 #
coedge $-1 -1 $-1 $287 $399 $171 $279 reversed $169 $-1 #
edge $-1 -1 $-1 $294 -12.699999999999999 $401 12.699999999999999 $278 $402 forward @7 unknown #
coedge $-1 -1 $-1 $173 $172 $399 $403 forward $62 $-1 #
edge $-1 -1 $-1 $285 -76.200000000000003 $401 76.200000000000003 $277 $404 forward @7 unknown #
coedge $-1 -1 $-1 $290 $289 $173 $283 reversed $274 $-1 #
edge $-1 -1 $-1 $405 -76.200000000000003 $284 76.200000000000003 $282 $406 forward @7 unknown #
vertex $-1 -1 $-1 $175 $407 #
vertex $-1 -1 $-1 $296 $408 #
straight-curve $-1 -1 $-1 76.200000000000003 0 -12.699999999999999 0 -1 0 I I #
coedge $-1 -1 $-1 $276 $278 $176 $288 reversed $169 $-1 #
edge $-1 -1 $-1 $291 -50.799999999999997 $294 50.799999999999997 $287 $409 forward @7 unknown #
coedge $-1 -1 $-1 $282 $177 $182 $297 forward $274 $-1 #
coedge $-1 -1 $-1 $177 $282 $276 $400 reversed $274 $-1 #
vertex $-1 -1 $-1 $178 $410 #
straight-curve $-1 -1 $-1 0 50.799999999999997 12.699999999999999 -1 0 0 I I #
coedge $-1 -1 $-1 $179 $277 $181 $296 reversed $102 $-1 #
vertex $-1 -1 $-1 $288 $411 #
straight-curve $-1 -1 $-1 0 -50.799999999999997 12.699999999999999 1 0 0 I I #
edge $-1 -1 $-1 $184 -12.699999999999999 $285 12.699999999999999 $181 $412 forward @7 unknown #
edge $-1 -1 $-1 $185 -12.699999999999999 $284 12.699999999999999 $182 $413 forward @7 unknown #
point $-1 -1 $-1 76.200000000000003 -50.799999999999997 12.699999999999999 #
point $-1 -1 $-1 76.200000000000003 50.799999999999997 12.699999999999999 #
model_id-kcp-attrib $-1 -1 $-1 $-1 $188 1 1021404660 1021404660 914751489 8 #
face $414 -1 $-1 $415 $416 $7 $-1 $417 forward single #
loop $-1 -1 $-1 $-1 $418 $188 #
plane-surface $-1 -1 $-1 0 82.549999999999997 0 -1 0 0 0 -25.399999999999999 0 forward_v I I I I #
coedge $-1 -1 $-1 $419 $339 $420 $421 forward $189 $-1 #
coedge $-1 -1 $-1 $193 $191 $422 $423 reversed $111 $-1 #
coedge $-1 -1 $-1 $339 $419 $191 $307 reversed $189 $-1 #
edge $424 -1 $-1 $342 0 $425 1 $191 $426 forward @7 unknown #
coedge $-1 -1 $-1 $422 $195 $192 $309 forward $201 $-1 #
edge $-1 -1 $-1 $198 4.6157303700951367e-016 $311 1.5707963267948919 $308 $427 forward @7 unknown #
attrib_edge_convexity-kcp-attrib $-1 -1 $428 $-1 $194 3 #
vertex $-1 -1 $-1 $423 $429 #
straight-curve $-1 -1 $-1 133.34999999999999 101.59999999999999 0 0 0 25.399999999999999 I I #
model_id-kcp-attrib $-1 -1 $430 $-1 $196 1 1021404660 1021404660 914751489 15 #
straight-curve $-1 -1 $-1 152.39999999999998 19.049999999999997 25.399999999999999 0 25.399999999999999 0 I I #
convexity-sys-attrib $-1 -1 $-1 $197 $116 #
point $-1 -1 $-1 152.39999999999998 82.549999999999997 25.399999999999999 #
coedge $-1 -1 $-1 $200 $431 $330 $432 forward $201 $-1 #
edge $433 -1 $-1 $335 0 $202 1.97 $200 $434 forward @7 unknown #
face $435 -1 $-1 $-1 $201 $7 $-1 $436 forward single #
point $-1 -1 $-1 133.34999999999999 0 25.399999999999999 #
coedge $-1 -1 $-1 $220 $206 $437 $438 reversed $21 $-1 #
coedge $-1 -1 $-1 $439 $440 $206 $323 forward $416 $-1 #
edge $441 -1 $-1 $442 0 $328 1.5707963267948966 $206 $443 forward @7 unknown #
coedge $-1 -1 $-1 $444 $207 $210 $331 forward $326 $-1 #
coedge $-1 -1 $-1 $207 $444 $439 $445 reversed $326 $-1 #
loop $-1 -1 $-1 $-1 $324 $415 #
attrib_edge_convexity-kcp-attrib $-1 -1 $446 $-1 $208 1 #
vertex $-1 -1 $-1 $323 $447 #
straight-curve $-1 -1 $-1 19.049999999999997 0 0 25.399999999999999 0 0 I I #
coedge $-1 -1 $-1 $210 $209 $317 $432 reversed $211 $-1 #
edge $-1 -1 $-1 $213 0 $448 1 $324 $449 forward @7 unknown #
face $450 -1 $-1 $217 $211 $7 $-1 $451 forward single #
convexity-sys-attrib $-1 -1 $-1 $212 $124 #
point $-1 -1 $-1 68.579999999999984 0 0 #
vertex $-1 -1 $-1 $318 $452 #
straight-curve $-1 -1 $-1 83.311999999999998 0 0 0 0 25.399999999999999 I I #
model_id-kcp-attrib $-1 -1 $-1 $-1 $217 1 1021404660 1021404660 914751489 12 #
plane-surface $-1 -1 $-1 83.311999999999998 0 0 0 -1 0 25.399999999999999 0 0 forward_v I I I I #
coedge $-1 -1 $-1 $304 $306 $220 $340 forward $189 $-1 #
edge $453 -1 $-1 $342 0 $454 1.5707963267948966 $220 $455 forward @7 unknown #
attrib_edge_convexity-kcp-attrib $-1 -1 $456 $-1 $222 1 #
vertex $-1 -1 $-1 $222 $457 #
straight-curve $-1 -1 $-1 133.34999999999999 101.59999999999999 0 -25.399999999999999 0 0 I I #
convexity-sys-attrib $-1 -1 $-1 $223 $133 #
point $-1 -1 $-1 133.34999999999999 101.59999999999999 0 #
face $-1 -1 $-1 $458 $459 $51 $-1 $256 reversed single #
loop $-1 -1 $-1 $-1 $460 $229 #
coedge $-1 -1 $-1 $461 $462 $463 $464 forward $230 $-1 #
coedge $-1 -1 $-1 $465 $231 $466 $467 reversed $142 $-1 #
coedge $-1 -1 $-1 $231 $465 $461 $468 reversed $142 $-1 #
coedge $-1 -1 $-1 $463 $469 $231 $352 forward $470 $-1 #
edge $-1 -1 $-1 $471 -25.399999999999999 $472 0 $231 $473 forward @7 unknown #
face $-1 -1 $-1 $-1 $474 $33 $-1 $90 reversed single #
loop $-1 -1 $-1 $-1 $359 $232 #
coedge $-1 -1 $-1 $475 $234 $362 $476 reversed $145 $-1 #
coedge $-1 -1 $-1 $234 $475 $477 $478 reversed $145 $-1 #
edge $-1 -1 $-1 $363 -25.399999999999999 $479 0 $234 $480 forward @7 unknown #
coedge $-1 -1 $-1 $236 $235 $481 $482 reversed $86 $-1 #
coedge $-1 -1 $-1 $483 $484 $236 $360 forward $354 $-1 #
edge $-1 -1 $-1 $364 -25.399999999999999 $485 0 $359 $486 forward @7 unknown #
coedge $-1 -1 $-1 $362 $237 $484 $487 forward $233 $-1 #
coedge $-1 -1 $-1 $237 $361 $355 $476 forward $233 $-1 #
vertex $-1 -1 $-1 $238 $488 #
vertex $-1 -1 $-1 $487 $489 #
ellipse-curve $-1 -1 $-1 -57.149999999999991 31.749999999999986 12.699999999999999 0 0 -1 -1.4210854715202004e-014 19.050000000000004 0 1 I I #
cone-surface $-1 -1 $-1 57.149999999999935 31.749999999999957 -12.699999999999999 0 0 -1 19.05000000000004 4.2632564145606011e-014 0 1 I I 0 1 19.05000000000004 forward I I I I #
coedge $-1 -1 $-1 $377 $247 $250 $382 forward $240 $-1 #
coedge $-1 -1 $-1 $375 $241 $243 $372 reversed $148 $-1 #
coedge $-1 -1 $-1 $241 $375 $377 $490 reversed $148 $-1 #
coedge $-1 -1 $-1 $250 $244 $241 $371 reversed $251 $-1 #
edge $-1 -1 $-1 $491 -25.399999999999999 $373 0 $241 $492 forward @7 unknown #
edge $-1 -1 $-1 $380 -50.799999999999997 $373 -31.75 $368 $493 forward @7 unknown #
vertex $-1 -1 $-1 $245 $494 #
ellipse-curve $-1 -1 $-1 57.149999999999935 31.749999999999957 -12.699999999999999 0 0 1 19.05000000000004 4.2632564145606011e-014 0 1 I I #
coedge $-1 -1 $-1 $369 $368 $246 $376 reversed $148 $-1 #
edge $-1 -1 $-1 $378 -12.699999999999999 $380 12.699999999999999 $375 $495 forward @7 unknown #
coedge $-1 -1 $-1 $247 $367 $369 $490 forward $240 $-1 #
vertex $-1 -1 $-1 $490 $496 #
straight-curve $-1 -1 $-1 0 50.799999999999997 12.699999999999999 -1 0 0 I I #
vertex $-1 -1 $-1 $372 $497 #
straight-curve $-1 -1 $-1 0 50.799999999999997 -12.699999999999999 1 0 0 I I #
edge $-1 -1 $-1 $252 -1.5707963267948915 $491 0 $367 $498 forward @7 unknown #
point $-1 -1 $-1 57.149999999999991 50.799999999999997 12.699999999999999 #
point $-1 -1 $-1 57.149999999999991 50.799999999999997 -12.699999999999999 #
coedge $-1 -1 $-1 $259 $257 $266 $394 forward $155 $-1 #
coedge $-1 -1 $-1 $266 $265 $258 $387 forward $255 $-1 #
edge $-1 -1 $-1 $390 -12.699999999999999 $388 12.699999999999999 $258 $499 forward @7 unknown #
vertex $-1 -1 $-1 $260 $500 #
straight-curve $-1 -1 $-1 -76.200000000000003 0 -12.699999999999999 0 1 0 I I #
vertex $-1 -1 $-1 $261 $501 #
straight-curve $-1 -1 $-1 -76.200000000000003 0 12.699999999999999 0 -1 0 I I #
point $-1 -1 $-1 -76.200000000000003 -31.75 -12.699999999999999 #
ellipse-curve $-1 -1 $-1 -57.149999999999999 -31.75 -12.699999999999999 0 0 1 -19.050000000000004 3.5527136788005009e-015 0 1 I I #
edge $-1 -1 $-1 $267 57.149999999999991 $388 76.200000000000003 $266 $502 forward @7 unknown #
point $-1 -1 $-1 -57.149999999999991 -50.800000000000011 -12.699999999999999 #
straight-curve $-1 -1 $-1 0 -50.799999999999997 12.699999999999999 1 0 0 I I #
model_id-kcp-attrib $-1 -1 $-1 $-1 $273 1 1021404660 1021404660 914751490 3 #
plane-surface $-1 -1 $-1 76.200000000000003 0 0 -1 0 0 0 0 1 forward_v I I I I #
coedge $-1 -1 $-1 $278 $276 $280 $403 reversed $169 $-1 #
edge $-1 -1 $-1 $291 -12.699999999999999 $405 12.699999999999999 $290 $503 forward @7 unknown #
vertex $-1 -1 $-1 $403 $504 #
straight-curve $-1 -1 $-1 -76.200000000000003 -50.799999999999997 0 0 0 -1 I I #
edge $-1 -1 $-1 $401 -50.799999999999997 $405 50.799999999999997 $399 $505 forward @7 unknown #
straight-curve $-1 -1 $-1 0 -50.799999999999997 -12.699999999999999 -1 0 0 I I #
vertex $-1 -1 $-1 $283 $506 #
straight-curve $-1 -1 $-1 0 50.799999999999997 -12.699999999999999 1 0 0 I I #
point $-1 -1 $-1 76.200000000000003 50.799999999999997 -12.699999999999999 #
point $-1 -1 $-1 76.200000000000003 -50.799999999999997 -12.699999999999999 #
straight-curve $-1 -1 $-1 -76.200000000000003 0 12.699999999999999 0 -1 0 I I #
point $-1 -1 $-1 -76.200000000000003 50.799999999999997 12.699999999999999 #
point $-1 -1 $-1 -76.200000000000003 -50.799999999999997 12.699999999999999 #
straight-curve $-1 -1 $-1 76.200000000000003 -50.799999999999997 0 0 0 -1 I I #
straight-curve $-1 -1 $-1 76.200000000000003 50.799999999999997 0 0 0 -1 I I #
model_id-kcp-attrib $-1 -1 $-1 $-1 $301 1 1021404660 1021404660 914751489 9 #
face $507 -1 $-1 $332 $326 $7 $-1 $508 forward single #
loop $-1 -1 $-1 $-1 $439 $301 #
cone-surface $-1 -1 $-1 19.049999999999997 19.049999999999997 0 0 0 1 19.049999999999997 0 0 1 I I 0 1 19.049999999999997 forward I I I I #
coedge $-1 -1 $-1 $509 $437 $440 $510 forward $302 $-1 #
coedge $-1 -1 $-1 $306 $304 $511 $512 reversed $189 $-1 #
coedge $-1 -1 $-1 $437 $509 $304 $421 reversed $302 $-1 #
edge $-1 -1 $-1 $454 0 $513 1 $304 $514 forward @7 unknown #
coedge $-1 -1 $-1 $511 $308 $305 $423 forward $201 $-1 #
edge $515 -1 $-1 $311 0 $425 4.5 $422 $516 forward @7 unknown #
attrib_edge_convexity-kcp-attrib $-1 -1 $517 $-1 $307 3 #
vertex $-1 -1 $-1 $512 $518 #
straight-curve $-1 -1 $-1 19.049999999999997 101.59999999999999 0 0 0 25.399999999999999 I I #
ellipse-curve $-1 -1 $-1 133.34999999999994 82.549999999999955 25.399999999999999 0 0 1 19.050000000000043 3.3839597790574766e-014 0 1 I I #
convexity-sys-attrib $-1 -1 $-1 $310 $194 #
point $-1 -1 $-1 133.34999999999999 101.59999999999999 25.399999999999999 #
attrib_edge_convexity-kcp-attrib $-1 -1 $519 $313 $196 1 #
coedge $-1 -1 $-1 $317 $520 $444 $521 forward $201 $-1 #
edge $522 -1 $-1 $448 0 $335 0.58000000000000052 $317 $523 forward @7 unknown #
model_id-kcp-attrib $-1 -1 $-1 $-1 $318 1 1021404660 1021404660 914751489 16 #
straight-curve $-1 -1 $-1 83.311999999999998 0 25.399999999999999 25.399999999999999 0 0 I I #
model_id-kcp-attrib $-1 -1 $-1 $-1 $319 1 1021404660 1021404660 914751489 13 #
plane-surface $-1 -1 $-1 0 0 25.399999999999999 0 0 1 25.399999999999999 0 0 forward_v I I I I #
coedge $-1 -1 $-1 $418 $420 $321 $438 forward $302 $-1 #
edge $524 -1 $-1 $454 0 $442 2.5 $321 $525 forward @7 unknown #
coedge $-1 -1 $-1 $526 $322 $325 $445 forward $416 $-1 #
coedge $-1 -1 $-1 $322 $526 $418 $510 reversed $416 $-1 #
attrib_edge_convexity-kcp-attrib $-1 -1 $527 $-1 $323 1 #
vertex $-1 -1 $-1 $438 $528 #
ellipse-curve $-1 -1 $-1 19.049999999999997 19.049999999999997 0 0 0 1 -19.049999999999997 0 0 1 I I #
coedge $-1 -1 $-1 $325 $324 $431 $521 reversed $326 $-1 #
edge $-1 -1 $-1 $328 0 $529 1 $439 $530 forward @7 unknown #
convexity-sys-attrib $-1 -1 $-1 $327 $208 #
point $-1 -1 $-1 19.049999999999997 0 0 #
vertex $-1 -1 $-1 $432 $531 #
straight-curve $-1 -1 $-1 68.579999999999984 0 0 0 0 25.399999999999999 I I #
model_id-kcp-attrib $-1 -1 $-1 $-1 $332 1 1021404660 1021404660 914751489 11 #
plane-surface $-1 -1 $-1 68.579999999999984 0 0 0 -1 0 25.399999999999999 0 0 forward_v I I I I #
point $-1 -1 $-1 83.311999999999998 0 25.399999999999999 #
attrib_edge_convexity-kcp-attrib $-1 -1 $532 $-1 $340 1 #
vertex $-1 -1 $-1 $340 $533 #
ellipse-curve $-1 -1 $-1 19.049999999999997 82.549999999999997 0 0 0 1 0 19.049999999999997 0 1 I I #
convexity-sys-attrib $-1 -1 $-1 $341 $222 #
point $-1 -1 $-1 19.049999999999997 101.59999999999999 0 #
face $-1 -1 $-1 $-1 $470 $51 $-1 $534 reversed single #
loop $-1 -1 $-1 $-1 $535 $346 #
coedge $-1 -1 $-1 $536 $466 $469 $537 forward $347 $-1 #
coedge $-1 -1 $-1 $462 $348 $350 $468 forward $230 $-1 #
coedge $-1 -1 $-1 $348 $461 $538 $539 forward $230 $-1 #
coedge $-1 -1 $-1 $540 $351 $348 $464 reversed $470 $-1 #
edge $-1 -1 $-1 $541 -3.7298831273496048e-016 $472 1.5707963267948952 $348 $542 forward @7 unknown #
coedge $-1 -1 $-1 $350 $349 $543 $544 forward $142 $-1 #
coedge $-1 -1 $-1 $460 $536 $349 $467 forward $347 $-1 #
edge $-1 -1 $-1 $545 -50.799999999999997 $471 -31.75 $349 $546 forward @7 unknown #
edge $-1 -1 $-1 $472 31.75 $547 50.799999999999997 $350 $493 forward @7 unknown #
coedge $-1 -1 $-1 $351 $540 $460 $537 reversed $470 $-1 #
loop $-1 -1 $-1 $-1 $469 $458 #
vertex $-1 -1 $-1 $352 $548 #
vertex $-1 -1 $-1 $468 $549 #
straight-curve $-1 -1 $-1 76.200000000000003 -31.749999999999982 -12.699999999999999 0 0 -1 I I #
loop $-1 -1 $-1 $-1 $481 $353 #
coedge $-1 -1 $-1 $356 $355 $550 $551 forward $145 $-1 #
edge $-1 -1 $-1 $552 -50.799999999999997 $363 -31.75 $355 $391 forward @7 unknown #
coedge $-1 -1 $-1 $553 $481 $356 $478 forward $474 $-1 #
edge $-1 -1 $-1 $479 31.75 $554 50.799999999999997 $356 $389 forward @7 unknown #
vertex $-1 -1 $-1 $478 $555 #
straight-curve $-1 -1 $-1 -76.200000000000003 31.749999999999986 -12.699999999999999 0 0 -1 I I #
coedge $-1 -1 $-1 $477 $553 $358 $482 forward $474 $-1 #
edge $-1 -1 $-1 $485 -7.4597662546992125e-016 $479 1.5707963267948952 $481 $556 forward @7 unknown #
coedge $-1 -1 $-1 $550 $359 $553 $557 reversed $354 $-1 #
coedge $-1 -1 $-1 $359 $550 $361 $487 reversed $354 $-1 #
vertex $-1 -1 $-1 $360 $558 #
straight-curve $-1 -1 $-1 -57.149999999999991 50.799999999999997 -12.699999999999999 0 0 -1 I I #
edge $-1 -1 $-1 $364 57.149999999999991 $552 76.200000000000003 $484 $379 forward @7 unknown #
point $-1 -1 $-1 -76.200000000000003 31.75 12.699999999999999 #
point $-1 -1 $-1 -57.149999999999991 50.799999999999997 12.699999999999999 #
edge $-1 -1 $-1 $491 31.75 $378 50.799999999999997 $369 $546 forward @7 unknown #
vertex $-1 -1 $-1 $490 $559 #
straight-curve $-1 -1 $-1 76.200000000000003 31.749999999999957 -12.699999999999999 0 0 -1 I I #
straight-curve $-1 -1 $-1 76.200000000000003 0 -12.699999999999999 0 -1 0 I I #
point $-1 -1 $-1 76.199999999999974 31.75 -12.699999999999999 #
straight-curve $-1 -1 $-1 76.200000000000003 50.799999999999997 0 0 0 -1 I I #
point $-1 -1 $-1 76.200000000000003 50.799999999999997 12.699999999999999 #
point $-1 -1 $-1 76.200000000000003 50.799999999999997 -12.699999999999999 #
ellipse-curve $-1 -1 $-1 57.149999999999935 31.749999999999957 12.699999999999999 0 0 -1 19.05000000000004 4.2632564145606011e-014 0 1 I I #
straight-curve $-1 -1 $-1 -76.200000000000003 -50.799999999999997 0 0 0 -1 I I #
point $-1 -1 $-1 -76.200000000000003 -50.799999999999997 -12.699999999999999 #
point $-1 -1 $-1 -76.200000000000003 -50.799999999999997 12.699999999999999 #
straight-curve $-1 -1 $-1 0 -50.799999999999997 -12.699999999999999 -1 0 0 I I #
straight-curve $-1 -1 $-1 -76.200000000000003 50.799999999999997 0 0 0 -1 I I #
point $-1 -1 $-1 -76.200000000000003 -50.799999999999997 -12.699999999999999 #
straight-curve $-1 -1 $-1 -76.200000000000003 0 -12.699999999999999 0 1 0 I I #
point $-1 -1 $-1 -76.200000000000003 50.799999999999997 -12.699999999999999 #
model_id-kcp-attrib $-1 -1 $-1 $-1 $415 1 1021404660 1021404660 914751489 10 #
plane-surface $-1 -1 $-1 19.049999999999997 0 0 0 -1 0 25.399999999999999 0 0 forward_v I I I I #
coedge $-1 -1 $-1 $420 $418 $560 $561 reversed $302 $-1 #
edge $-1 -1 $-1 $442 0 $562 1 $418 $563 forward @7 unknown #
coedge $-1 -1 $-1 $560 $422 $419 $512 forward $201 $-1 #
edge $-1 -1 $-1 $425 7.69288395015856e-017 $513 1.5707963267948957 $511 $564 forward @7 unknown #
vertex $-1 -1 $-1 $561 $565 #
straight-curve $-1 -1 $-1 0 82.549999999999997 0 0 0 25.399999999999999 I I #
model_id-kcp-attrib $-1 -1 $566 $-1 $423 1 1021404660 1021404660 914751489 20 #
straight-curve $-1 -1 $-1 133.34999999999999 101.59999999999999 25.399999999999999 -25.399999999999999 0 0 I I #
convexity-sys-attrib $-1 -1 $-1 $424 $307 #
point $-1 -1 $-1 19.049999999999997 101.59999999999999 25.399999999999999 #
convexity-sys-attrib $-1 -1 $-1 $430 $196 #
coedge $-1 -1 $-1 $431 $560 $526 $567 forward $201 $-1 #
edge $568 -1 $-1 $529 0 $448 1.9499999999999995 $431 $569 forward @7 unknown #
model_id-kcp-attrib $-1 -1 $-1 $-1 $432 1 1021404660 1021404660 914751489 17 #
straight-curve $-1 -1 $-1 68.579999999999984 0 25.399999999999999 25.399999999999999 0 0 I I #
attrib_edge_convexity-kcp-attrib $-1 -1 $570 $-1 $438 1 #
straight-curve $-1 -1 $-1 0 82.549999999999997 0 0 -25.399999999999999 0 I I #
coedge $-1 -1 $-1 $440 $439 $520 $567 reversed $416 $-1 #
convexity-sys-attrib $-1 -1 $-1 $441 $323 #
point $-1 -1 $-1 0 19.049999999999997 0 #
vertex $-1 -1 $-1 $521 $571 #
straight-curve $-1 -1 $-1 19.049999999999997 0 0 2.8199664825478975e-015 0 25.399999999999999 I I #
point $-1 -1 $-1 68.579999999999984 0 25.399999999999999 #
convexity-sys-attrib $-1 -1 $-1 $453 $340 #
point $-1 -1 $-1 0 82.549999999999997 0 #
cone-surface $-1 -1 $-1 57.149999999999991 -31.749999999999982 -12.699999999999999 0 0 -1 7.1054273576010019e-015 -19.050000000000015 0 1 I I 0 1 19.050000000000015 forward I I I I #
coedge $-1 -1 $-1 $538 $572 $540 $573 forward $459 $-1 #
coedge $-1 -1 $-1 $466 $460 $572 $574 forward $347 $-1 #
edge $-1 -1 $-1 $471 -1.5707963267948952 $575 3.7298831273496048e-016 $460 $576 forward @7 unknown #
coedge $-1 -1 $-1 $543 $535 $462 $539 reversed $459 $-1 #
edge $-1 -1 $-1 $547 -76.200000000000003 $541 -57.149999999999991 $538 $502 forward @7 unknown #
coedge $-1 -1 $-1 $469 $463 $535 $573 reversed $470 $-1 #
vertex $-1 -1 $-1 $464 $577 #
ellipse-curve $-1 -1 $-1 57.149999999999991 -31.749999999999982 -12.699999999999999 0 0 1 7.1054273576010019e-015 -19.050000000000015 0 1 I I #
coedge $-1 -1 $-1 $572 $538 $465 $544 reversed $459 $-1 #
edge $-1 -1 $-1 $545 -12.699999999999999 $547 12.699999999999999 $465 $578 forward @7 unknown #
vertex $-1 -1 $-1 $467 $579 #
straight-curve $-1 -1 $-1 76.200000000000003 0 12.699999999999999 0 1 0 I I #
vertex $-1 -1 $-1 $544 $580 #
point $-1 -1 $-1 76.200000000000003 -31.75 12.699999999999999 #
point $-1 -1 $-1 76.200000000000003 -31.75 -12.699999999999999 #
coedge $-1 -1 $-1 $484 $483 $475 $551 reversed $354 $-1 #
edge $-1 -1 $-1 $552 -12.699999999999999 $554 12.699999999999999 $550 $581 forward @7 unknown #
vertex $-1 -1 $-1 $487 $582 #
coedge $-1 -1 $-1 $481 $477 $483 $557 forward $474 $-1 #
vertex $-1 -1 $-1 $557 $583 #
point $-1 -1 $-1 -76.200000000000003 31.75 -12.699999999999999 #
ellipse-curve $-1 -1 $-1 -57.149999999999991 31.749999999999986 -12.699999999999999 0 0 1 -1.4210854715202004e-014 19.050000000000004 0 1 I I #
edge $-1 -1 $-1 $554 -76.200000000000003 $485 -57.149999999999991 $483 $381 forward @7 unknown #
point $-1 -1 $-1 -57.149999999999991 50.799999999999997 -12.699999999999999 #
point $-1 -1 $-1 76.199999999999974 31.75 12.699999999999999 #
coedge $-1 -1 $-1 $520 $511 $509 $561 forward $201 $-1 #
edge $584 -1 $-1 $513 0 $562 2.5 $560 $585 forward @7 unknown #
vertex $-1 -1 $-1 $567 $586 #
straight-curve $-1 -1 $-1 0 19.049999999999997 0 0 0 25.399999999999999 I I #
ellipse-curve $-1 -1 $-1 19.050000000000004 82.549999999999983 25.399999999999999 0 0 1 -5.6399329650957949e-015 19.050000000000011 0 1 I I #
point $-1 -1 $-1 0 82.549999999999997 25.399999999999999 #
attrib_edge_convexity-kcp-attrib $-1 -1 $587 $515 $423 1 #
edge $-1 -1 $-1 $562 -1.095653168658947e-016 $529 1.5707963267948961 $520 $588 forward @7 unknown #
model_id-kcp-attrib $-1 -1 $-1 $-1 $521 1 1021404660 1021404660 914751489 18 #
straight-curve $-1 -1 $-1 19.049999999999997 0 25.399999999999999 25.399999999999999 0 0 I I #
convexity-sys-attrib $-1 -1 $-1 $524 $438 #
point $-1 -1 $-1 19.049999999999997 0 25.399999999999999 #
coedge $-1 -1 $-1 $535 $543 $536 $574 reversed $459 $-1 #
edge $-1 -1 $-1 $575 -25.399999999999999 $541 0 $535 $589 forward @7 unknown #
edge $-1 -1 $-1 $575 57.149999999999991 $545 76.200000000000003 $572 $396 forward @7 unknown #
vertex $-1 -1 $-1 $574 $590 #
ellipse-curve $-1 -1 $-1 57.149999999999991 -31.749999999999982 12.699999999999999 0 0 -1 7.1054273576010019e-015 -19.050000000000015 0 1 I I #
point $-1 -1 $-1 57.149999999999991 -50.799999999999997 -12.699999999999999 #
straight-curve $-1 -1 $-1 76.200000000000003 -50.799999999999997 0 0 0 -1 I I #
point $-1 -1 $-1 76.200000000000003 -50.799999999999997 12.699999999999999 #
point $-1 -1 $-1 76.200000000000003 -50.799999999999997 -12.699999999999999 #
straight-curve $-1 -1 $-1 -76.200000000000003 50.799999999999997 0 0 0 -1 I I #
point $-1 -1 $-1 -76.200000000000003 50.799999999999997 12.699999999999999 #
point $-1 -1 $-1 -76.200000000000003 50.799999999999997 -12.699999999999999 #
model_id-kcp-attrib $-1 -1 $-1 $-1 $561 1 1021404660 1021404660 914751489 19 #
straight-curve $-1 -1 $-1 0 82.549999999999997 25.399999999999999 0 -25.399999999999999 0 I I #
point $-1 -1 $-1 0 19.050000000000001 25.399999999999999 #
convexity-sys-attrib $-1 -1 $-1 $566 $423 #
ellipse-curve $-1 -1 $-1 19.050000000000001 19.050000000000004 25.399999999999999 0 0 1 -19.050000000000001 -5.6399329650957949e-015 0 1 I I #
straight-curve $-1 -1 $-1 57.149999999999991 -50.799999999999997 -12.699999999999999 0 0 -1 I I #
point $-1 -1 $-1 57.149999999999991 -50.799999999999997 12.699999999999999 #
End-of-ACIS-data 