600 0 1 0           
116 GICL Pro/E ACIS Translator - Source: f:/data5/repository/PTC/V20/web_demos/models/pattern/cavity_wp_tomb.prt.3 - 6 0 13 ACIS 6.0.3 NT 24 Thu Apr 04 13:11:24 2002 
1 9.9999999999999995e-007 1e-010 
body $-1 $1 $-1 $2 #
lump $-1 $-1 $3 $0 #
transform $-1 1 0 0 0 1 0 0 0 1 0 0 0 25.399999999999999 no_rotate no_reflect no_shear #
shell $-1 $-1 $-1 $4 $-1 $1 #
face $-1 $5 $6 $3 $-1 $7 reversed single #
face $-1 $8 $9 $3 $-1 $10 forward single #
loop $-1 $-1 $11 $4 #
plane-surface $-1 0 0 0 0 0 1 1 0 0 forward_v I I I I #
face $-1 $12 $13 $3 $-1 $14 forward single #
loop $-1 $-1 $15 $5 #
plane-surface $-1 6 0 0 1 0 0 0 1 0 forward_v I I I I #
coedge $-1 $16 $17 $18 $19 reversed $6 $-1 #
face $-1 $20 $21 $3 $-1 $22 forward single #
loop $-1 $-1 $23 $8 #
plane-surface $-1 0 0 1 0 0 1 1 0 0 forward_v I I I I #
coedge $-1 $24 $25 $26 $27 reversed $9 $-1 #
coedge $-1 $28 $11 $29 $30 forward $6 $-1 #
coedge $-1 $11 $31 $32 $33 forward $6 $-1 #
coedge $-1 $25 $24 $11 $19 forward $9 $-1 #
edge $-1 $34 0 $35 2.5 $11 $36 forward 7 unknown #
face $-1 $37 $38 $3 $-1 $39 forward single #
loop $-1 $-1 $40 $12 #
plane-surface $-1 6 4 0 0 1 0 -1 0 0 forward_v I I I I #
coedge $-1 $41 $42 $43 $44 forward $13 $-1 #
coedge $-1 $18 $15 $45 $46 forward $9 $-1 #
coedge $-1 $15 $18 $47 $48 reversed $9 $-1 #
coedge $-1 $42 $49 $15 $27 forward $13 $-1 #
edge $-1 $50 0 $51 2.5 $26 $52 forward 7 unknown #
coedge $-1 $53 $16 $54 $55 reversed $6 $-1 #
coedge $-1 $45 $56 $16 $30 reversed $57 $-1 #
edge $-1 $34 0 $58 1.5707963267948961 $16 $59 forward 7 unknown #
coedge $-1 $17 $60 $40 $61 reversed $6 $-1 #
coedge $-1 $62 $47 $17 $33 reversed $63 $-1 #
edge $-1 $64 0 $35 1.5707963267948972 $17 $65 forward 7 unknown #
vertex $-1 $30 $66 #
vertex $-1 $33 $67 #
straight-curve $-1 6 0.75 0 0 1 0 I I #
face $-1 $68 $69 $3 $-1 $70 forward single #
loop $-1 $-1 $71 $20 #
cone-surface $-1 0.75 3.25 1.011391460278108 0 0 -1 0 0.75 0 1 I I 0 1 0.75 forward I I I I #
coedge $-1 $72 $73 $31 $61 forward $21 $-1 #
coedge $-1 $74 $23 $71 $75 forward $13 $-1 #
coedge $-1 $23 $26 $76 $77 forward $13 $-1 #
coedge $-1 $73 $72 $23 $44 reversed $21 $-1 #
edge $-1 $78 0 $79 4.5 $23 $80 forward 7 unknown #
coedge $-1 $81 $29 $24 $46 reversed $57 $-1 #
edge $-1 $50 0 $34 1 $24 $82 forward 7 unknown #
coedge $-1 $32 $76 $25 $48 forward $63 $-1 #
edge $-1 $51 0 $35 1 $25 $83 forward 7 unknown #
coedge $-1 $26 $84 $81 $85 forward $13 $-1 #
vertex $-1 $27 $86 #
vertex $-1 $77 $87 #
straight-curve $-1 6 0.75 1 0 1 0 I I #
coedge $-1 $88 $28 $89 $90 forward $6 $-1 #
coedge $-1 $91 $92 $28 $55 forward $93 $-1 #
edge $-1 $94 0 $58 4.5 $28 $95 forward 7 unknown #
coedge $-1 $29 $81 $91 $96 forward $57 $-1 #
loop $-1 $-1 $81 $97 #
vertex $-1 $55 $98 #
ellipse-curve $-1 5.25 0.75000000000000044 0 0 0 -1 0.75 -4.4408920985006262e-016 0 1 I I #
coedge $-1 $31 $88 $99 $100 forward $6 $-1 #
edge $-1 $64 0 $101 4.5 $31 $102 forward 7 unknown #
coedge $-1 $76 $32 $73 $103 reversed $63 $-1 #
loop $-1 $-1 $76 $104 #
vertex $-1 $33 $105 #
ellipse-curve $-1 5.25 3.2500000000000004 0 0 0 -1 0 0.74999999999999956 0 1 I I #
point $-1 6 0.75 0 #
point $-1 6 3.25 0 #
face $-1 $106 $107 $3 $-1 $108 forward single #
loop $-1 $-1 $109 $37 #
plane-surface $-1 0 4 0 -1 0 0 0 -1 0 forward_v I I I I #
coedge $-1 $110 $111 $41 $75 reversed $38 $-1 #
coedge $-1 $43 $40 $110 $112 reversed $21 $-1 #
coedge $-1 $40 $43 $62 $103 forward $21 $-1 #
coedge $-1 $113 $41 $114 $115 forward $13 $-1 #
edge $-1 $79 0 $116 1.5707963267948954 $41 $117 forward 7 unknown #
coedge $-1 $47 $62 $42 $77 reversed $63 $-1 #
edge $-1 $51 0 $78 1.5707963267948961 $42 $118 forward 7 unknown #
vertex $-1 $77 $119 #
vertex $-1 $75 $120 #
straight-curve $-1 5.25 4 1 -1 0 0 I I #
coedge $-1 $56 $45 $49 $85 reversed $57 $-1 #
straight-curve $-1 6 0.75 1 0 0 -1 I I #
straight-curve $-1 6 3.25 1 0 0 -1 I I #
coedge $-1 $49 $113 $121 $122 forward $13 $-1 #
edge $-1 $123 0 $50 1.5707963267948972 $49 $124 forward 7 unknown #
point $-1 6 0.75 1 #
point $-1 6 3.25 1 #
coedge $-1 $60 $53 $109 $125 reversed $6 $-1 #
coedge $-1 $126 $127 $53 $90 reversed $107 $-1 #
edge $-1 $94 0 $128 1.5707963267948966 $53 $129 forward 7 unknown #
coedge $-1 $121 $54 $56 $96 reversed $93 $-1 #
coedge $-1 $54 $121 $126 $130 forward $93 $-1 #
loop $-1 $-1 $54 $106 #
vertex $-1 $90 $131 #
straight-curve $-1 0.75 0 0 1 0 0 I I #
edge $-1 $123 0 $58 1 $91 $132 forward 7 unknown #
face $-1 $104 $57 $3 $-1 $133 forward single #
point $-1 5.25 0 0 #
coedge $-1 $111 $110 $60 $100 reversed $38 $-1 #
edge $-1 $134 0 $101 1.5707963267948979 $60 $135 forward 7 unknown #
vertex $-1 $61 $136 #
straight-curve $-1 5.25 4 0 -1 0 0 I I #
edge $-1 $78 0 $64 1 $73 $137 forward 7 unknown #
face $-1 $-1 $63 $3 $-1 $138 forward single #
point $-1 5.25 4 0 #
face $-1 $97 $93 $3 $-1 $139 forward single #
loop $-1 $-1 $140 $68 #
cone-surface $-1 0.75 0.75 1.011391460278108 0 0 -1 -0.75 0 0 1 I I 0 1 0.75 forward I I I I #
coedge $-1 $141 $142 $88 $125 forward $69 $-1 #
coedge $-1 $99 $71 $72 $112 forward $38 $-1 #
coedge $-1 $71 $99 $142 $143 reversed $38 $-1 #
edge $-1 $79 0 $101 1 $72 $144 forward 7 unknown #
coedge $-1 $84 $74 $140 $145 forward $13 $-1 #
coedge $-1 $142 $141 $74 $115 reversed $69 $-1 #
edge $-1 $116 0 $146 2.5 $74 $147 forward 7 unknown #
vertex $-1 $115 $148 #
ellipse-curve $-1 0.75000000000000044 3.2499999999999996 1 0 0 1 -4.4408920985006262e-016 0.75000000000000044 0 1 I I #
ellipse-curve $-1 5.25 3.2499999999999996 1 0 0 1 0.75 4.4408920985006262e-016 0 1 I I #
point $-1 5.25 4 1 #
point $-1 0.75 4 1 #
coedge $-1 $92 $91 $84 $122 reversed $93 $-1 #
edge $-1 $149 0 $123 4.5 $84 $150 forward 7 unknown #
vertex $-1 $85 $151 #
ellipse-curve $-1 5.25 0.74999999999999956 1 0 0 1 0 -0.74999999999999956 0 1 I I #
edge $-1 $134 0 $128 2.5 $88 $152 forward 7 unknown #
coedge $-1 $140 $89 $92 $130 reversed $107 $-1 #
coedge $-1 $89 $140 $141 $153 forward $107 $-1 #
vertex $-1 $125 $154 #
ellipse-curve $-1 0.75 0.75 0 0 0 -1 0 -0.75 0 1 I I #
edge $-1 $149 0 $94 1 $92 $155 forward 7 unknown #
point $-1 0.75 0 0 #
straight-curve $-1 5.25 0 1 0 0 -1 I I #
cone-surface $-1 5.25 0.75 1.011391460278108 0 0 -1 0 -0.75 0 1 I I 0 1 0.75 forward I I I I #
vertex $-1 $100 $156 #
ellipse-curve $-1 0.74999999999999956 3.2500000000000004 0 0 0 -1 -0.74999999999999956 -4.4408920985006262e-016 0 1 I I #
point $-1 0.75 4 0 #
straight-curve $-1 5.25 4 1 0 0 -1 I I #
cone-surface $-1 5.25 3.25 1.011391460278108 0 0 -1 0.75 0 0 1 I I 0 1 0.75 forward I I I I #
plane-surface $-1 0 0 0 0 -1 0 1 0 0 forward_v I I I I #
coedge $-1 $127 $126 $113 $145 reversed $107 $-1 #
coedge $-1 $114 $109 $127 $153 reversed $69 $-1 #
coedge $-1 $109 $114 $111 $143 forward $69 $-1 #
edge $-1 $116 0 $134 1 $142 $157 forward 7 unknown #
straight-curve $-1 0.75 4 1 0 0 -1 I I #
edge $-1 $146 0 $149 1.5707963267948961 $113 $158 forward 7 unknown #
vertex $-1 $145 $159 #
straight-curve $-1 0 3.25 1 0 -1 0 I I #
point $-1 0 3.25 1 #
vertex $-1 $122 $160 #
straight-curve $-1 0.75 0 1 1 0 0 I I #
point $-1 5.25 0 1 #
straight-curve $-1 0 3.25 0 0 -1 0 I I #
edge $-1 $146 0 $128 1 $141 $161 forward 7 unknown #
point $-1 0 0.75 0 #
straight-curve $-1 0.75 0 1 0 0 -1 I I #
point $-1 0 3.25 0 #
straight-curve $-1 0 3.25 1 0 0 -1 I I #
ellipse-curve $-1 0.75000000000000011 0.75000000000000022 1 0 0 1 -0.75000000000000011 -2.2204460492503131e-016 0 1 I I #
point $-1 0 0.75 1 #
point $-1 0.75 0 1 #
straight-curve $-1 0 0.75 1 0 0 -1 I I #
End-of-ACIS-data 