600 0 1 0           
104 GICL Pro/E ACIS Translator - Source: f:/data5/repository/PTC/V20/web_demos/models/pattern/dc.prt.1 - 6 0 13 ACIS 6.0.3 NT 24 Thu Apr 04 13:10:52 2002 
1 9.9999999999999995e-007 1e-010 
body $-1 $1 $-1 $2 #
lump $-1 $-1 $3 $0 #
transform $-1 1 0 0 0 1 0 0 0 1 0 0 0 25.399999999999999 no_rotate no_reflect no_shear #
shell $-1 $-1 $-1 $4 $-1 $1 #
face $-1 $5 $6 $3 $-1 $7 reversed single #
face $-1 $8 $9 $3 $-1 $10 reversed single #
loop $-1 $11 $12 $4 #
plane-surface $-1 0 0 -0.3125 0 0 1 1 0 0 forward_v I I I I #
face $-1 $13 $14 $3 $-1 $15 reversed single #
loop $-1 $-1 $16 $5 #
cone-surface $-1 0 0 -0.3125 0 0 1 0.09375 0 0 1 I I 0 1 0.09375 forward I I I I #
loop $-1 $-1 $17 $4 #
coedge $-1 $18 $18 $19 $20 reversed $6 $-1 #
face $-1 $21 $22 $3 $-1 $23 reversed single #
loop $-1 $-1 $24 $8 #
cone-surface $-1 0 0 -0.3125 0 0 1 0.09375 0 0 1 I I 0 1 0.09375 forward I I I I #
coedge $-1 $19 $25 $26 $27 reversed $9 $-1 #
coedge $-1 $28 $29 $30 $31 forward $11 $-1 #
coedge $-1 $12 $12 $32 $33 reversed $6 $-1 #
coedge $-1 $34 $16 $12 $20 forward $9 $-1 #
edge $-1 $35 0 $36 3.1415926535897931 $12 $37 forward 7 unknown #
face $-1 $38 $39 $3 $-1 $40 reversed single #
loop $-1 $41 $42 $13 #
plane-surface $-1 -0.40765651538025732 -0.44580714331968241 -0.125 0 0 -1 -1 0 0 forward_v I I I I #
coedge $-1 $32 $43 $34 $44 reversed $14 $-1 #
coedge $-1 $16 $34 $42 $45 forward $9 $-1 #
coedge $-1 $43 $32 $16 $27 forward $14 $-1 #
edge $-1 $35 0 $46 0.1875 $26 $47 forward 7 unknown #
coedge $-1 $48 $17 $49 $50 forward $11 $-1 #
coedge $-1 $17 $51 $52 $53 reversed $11 $-1 #
coedge $-1 $54 $55 $17 $31 reversed $56 $-1 #
edge $-1 $57 -3.7851327352911345e-020 $58 0.25021847345397041 $17 $59 forward 7 unknown #
coedge $-1 $26 $24 $18 $33 forward $14 $-1 #
edge $-1 $36 0 $35 3.1415926535897931 $18 $60 forward 7 unknown #
coedge $-1 $25 $19 $24 $44 forward $9 $-1 #
vertex $-1 $33 $61 #
vertex $-1 $33 $62 #
ellipse-curve $-1 0 0 -0.3125 0 0 -1 -0.09375 0 0 1 I I #
face $-1 $63 $64 $3 $-1 $65 forward single #
loop $-1 $-1 $66 $21 #
cone-surface $-1 0.35057125305860853 -0.33445467392351369 -0.3125 0 0 -1 -0.021672569055335409 0.020743667721541383 0 1 I I 0 1 0.029999999999999995 forward I I I I #
loop $-1 $-1 $67 $13 #
coedge $-1 $68 $68 $25 $45 reversed $22 $-1 #
coedge $-1 $24 $26 $68 $69 forward $14 $-1 #
edge $-1 $36 0 $70 0.1875 $24 $71 forward 7 unknown #
edge $-1 $70 0 $46 3.1415926535897931 $25 $72 forward 7 unknown #
vertex $-1 $69 $73 #
straight-curve $-1 -0.09375 1.1480684567084787e-017 -0.3125 0 0 1 I I #
coedge $-1 $74 $28 $75 $76 reversed $11 $-1 #
coedge $-1 $77 $78 $28 $50 reversed $79 $-1 #
edge $-1 $58 -5.5511151231257827e-017 $80 0.8347025946978206 $28 $81 forward 7 unknown #
coedge $-1 $29 $74 $66 $82 reversed $11 $-1 #
coedge $-1 $83 $84 $29 $53 forward $85 $-1 #
edge $-1 $57 0 $86 2.4198819901916102 $29 $87 forward 7 unknown #
coedge $-1 $88 $30 $84 $89 forward $56 $-1 #
coedge $-1 $30 $88 $77 $90 reversed $56 $-1 #
loop $-1 $-1 $55 $91 #
vertex $-1 $53 $92 #
vertex $-1 $50 $93 #
straight-curve $-1 -0.40765651538025732 -1.2220948126275166e-015 -0.3125 0.041779172169555262 0.99912686920772309 0 I I #
ellipse-curve $-1 0 0 -0.3125 0 0 -1 0.09375 0 0 1 I I #
point $-1 -0.09375 0 -0.3125 #
point $-1 0.09375 0 -0.3125 #
face $-1 $94 $95 $3 $-1 $96 forward single #
loop $-1 $-1 $97 $38 #
plane-surface $-1 0.33749999999999997 -0.30445467392351366 0.3125 0 -1 0 0 0 -1 forward_v I I I I #
coedge $-1 $98 $99 $51 $82 forward $39 $-1 #
coedge $-1 $100 $101 $102 $103 forward $41 $-1 #
coedge $-1 $42 $42 $43 $69 reversed $22 $-1 #
edge $-1 $46 0 $70 3.1415926535897931 $43 $104 forward 7 unknown #
vertex $-1 $69 $105 #
straight-curve $-1 0.09375 0 -0.3125 0 -1.2246063538223773e-016 1 I I #
ellipse-curve $-1 5.5511151231257827e-017 0 -0.125 0 0 1 0.09375 0 0 1 I I #
point $-1 -0.09375 0 -0.125 #
coedge $-1 $51 $48 $106 $107 reversed $11 $-1 #
coedge $-1 $108 $109 $48 $76 forward $95 $-1 #
edge $-1 $110 0 $80 0.55445467392351366 $48 $111 forward 7 unknown #
coedge $-1 $112 $49 $55 $90 forward $79 $-1 #
coedge $-1 $49 $113 $108 $114 reversed $79 $-1 #
loop $-1 $-1 $49 $94 #
vertex $-1 $76 $115 #
straight-curve $-1 -0.39720259469782054 0.25 -0.3125 1 0 0 I I #
edge $-1 $86 0 $116 0.80729432741823759 $51 $117 forward 7 unknown #
coedge $-1 $118 $52 $99 $119 forward $85 $-1 #
coedge $-1 $52 $118 $54 $89 reversed $85 $-1 #
loop $-1 $-1 $84 $120 #
vertex $-1 $53 $121 #
ellipse-curve $-1 0.01981516398776971 -0.017875020120406954 -0.3125 0 0 1 -0.42747167936802705 0.017875020120405732 0 1 I I #
coedge $-1 $55 $54 $122 $123 forward $56 $-1 #
edge $-1 $57 0 $124 0.1875 $84 $125 forward 7 unknown #
edge $-1 $58 0 $126 0.1875 $77 $127 forward 7 unknown #
face $-1 $120 $56 $3 $-1 $128 reversed single #
point $-1 -0.40765651538025732 -1.2221326970329104e-015 -0.3125 #
point $-1 -0.3972025946978206 0.25 -0.3125 #
face $-1 $91 $79 $3 $-1 $129 forward single #
loop $-1 $-1 $130 $63 #
plane-surface $-1 0.4375 -1.5 -0.3125 1 0 0 0 0 -1 forward_v I I I I #
coedge $-1 $131 $132 $100 $133 forward $64 $-1 #
coedge $-1 $102 $66 $131 $134 forward $39 $-1 #
coedge $-1 $66 $102 $83 $119 reversed $39 $-1 #
coedge $-1 $135 $67 $97 $133 reversed $41 $-1 #
coedge $-1 $67 $122 $118 $136 reversed $41 $-1 #
coedge $-1 $99 $98 $67 $103 reversed $39 $-1 #
edge $-1 $137 -1.385369442620402e-015 $138 0.80729432741825646 $67 $139 forward 7 unknown #
ellipse-curve $-1 5.5511151231257827e-017 0 -0.125 0 0 1 -0.093750000000000056 0 0 1 I I #
point $-1 0.093750000000000056 0 -0.125 #
coedge $-1 $140 $131 $74 $107 forward $64 $-1 #
edge $-1 $116 0 $110 0.086928746941391466 $74 $141 forward 7 unknown #
coedge $-1 $142 $75 $78 $114 forward $95 $-1 #
coedge $-1 $75 $143 $140 $144 forward $95 $-1 #
vertex $-1 $107 $145 #
straight-curve $-1 0.4375 -0.30445467392351366 -0.3125 0 1 0 I I #
coedge $-1 $146 $77 $147 $148 forward $79 $-1 #
coedge $-1 $78 $149 $130 $150 reversed $79 $-1 #
edge $-1 $80 0 $151 0.3125 $78 $152 forward 7 unknown #
point $-1 0.4375 0.25 -0.3125 #
vertex $-1 $82 $153 #
ellipse-curve $-1 0.35057125305860859 -0.33445467392351402 -0.3125 0 0 -1 -0.021672569055335489 0.020743667721541736 0 1 I I #
coedge $-1 $84 $83 $101 $136 forward $85 $-1 #
edge $-1 $86 0 $137 0.1875 $83 $154 forward 7 unknown #
face $-1 $155 $85 $3 $-1 $156 forward single #
point $-1 0.3288986840032731 -0.31371100620197229 -0.3125 #
coedge $-1 $101 $147 $88 $123 reversed $41 $-1 #
edge $-1 $124 1.2756417029234708e-015 $126 0.25021847345397041 $88 $157 forward 7 unknown #
vertex $-1 $136 $158 #
straight-curve $-1 -0.40765651538025732 -1.2004286453759505e-015 -0.3125 0 0 1 I I #
vertex $-1 $148 $159 #
straight-curve $-1 -0.3972025946978206 0.25 -0.3125 0 0 1 I I #
plane-surface $-1 -0.40765651538025732 -1.2004286453759505e-015 -0.3125 0.99912686920772309 -0.041779172169555262 0 0.041779172169555262 0.99912686920772309 0 forward_v I I I I #
plane-surface $-1 0.33749999999999997 0.25 -0.3125 0 1 0 -1 0 0 forward_v I I I I #
coedge $-1 $143 $160 $113 $150 forward $95 $-1 #
coedge $-1 $106 $97 $98 $134 reversed $64 $-1 #
coedge $-1 $97 $161 $162 $163 reversed $64 $-1 #
edge $-1 $164 0 $138 0.013071253058608567 $97 $165 forward 7 unknown #
edge $-1 $116 0 $138 0.1875 $131 $166 forward 7 unknown #
coedge $-1 $147 $100 $167 $168 forward $41 $-1 #
edge $-1 $137 0 $124 2.4198819901916138 $118 $169 forward 7 unknown #
vertex $-1 $136 $170 #
vertex $-1 $134 $171 #
ellipse-curve $-1 0.35057125305860831 -0.33445467392351336 -0.125 6.6837181022256697e-016 -6.3972493110080862e-016 -1 -0.021672569055335211 0.02074366772154107 -2.7755575615628914e-017 1 I I #
coedge $-1 $172 $106 $109 $144 reversed $64 $-1 #
straight-curve $-1 0.35057125305860853 -0.30445467392351366 -0.3125 1 0 0 I I #
coedge $-1 $160 $108 $173 $174 reversed $95 $-1 #
coedge $-1 $109 $130 $175 $176 forward $95 $-1 #
edge $-1 $177 0 $110 0.625 $109 $178 forward 7 unknown #
point $-1 0.4375 -0.30445467392351366 -0.3125 #
coedge $-1 $179 $112 $180 $181 reversed $79 $-1 #
coedge $-1 $122 $135 $112 $148 reversed $41 $-1 #
edge $-1 $126 -5.5511151231257827e-017 $182 0.73470259469782051 $112 $183 forward 7 unknown #
coedge $-1 $113 $184 $185 $186 forward $79 $-1 #
edge $-1 $151 0 $187 0.3125 $113 $188 forward 7 unknown #
vertex $-1 $114 $189 #
straight-curve $-1 0.4375 0.25 -0.3125 0 0 1 I I #
point $-1 0.35057125305860853 -0.30445467392351366 -0.3125 #
straight-curve $-1 0.3288986840032731 -0.31371100620197229 -0.3125 0 0 1 I I #
face $-1 $190 $191 $3 $-1 $192 reversed single #
cone-surface $-1 0.019815163987769654 -0.017875020120407051 0.3125 0 0 1 0.42784524422508913 0 0 1 I I 0 1 0.42784524422508913 forward I I I I #
straight-curve $-1 -0.40765651538025732 -1.2212453270876722e-015 -0.125 0.041779172169555262 0.99912686920772309 0 I I #
point $-1 -0.40765651538025732 5.5511151231257827e-017 -0.125 #
point $-1 -0.3972025946978206 0.25 -0.125 #
coedge $-1 $130 $142 $193 $194 reversed $95 $-1 #
coedge $-1 $132 $195 $196 $197 reversed $64 $-1 #
coedge $-1 $198 $167 $132 $163 forward $191 $-1 #
edge $-1 $164 0 $199 0.25 $132 $200 forward 7 unknown #
vertex $-1 $163 $201 #
straight-curve $-1 0.33749999999999997 -0.30445467392351366 -0.125 1 0 0 I I #
straight-curve $-1 0.35057125305860853 -0.30445467392351366 -0.3125 2.9605947323337506e-016 0 1 I I #
coedge $-1 $162 $180 $135 $168 reversed $191 $-1 #
edge $-1 $164 1.1102230246251565e-016 $182 0.55445467392351377 $135 $202 forward 7 unknown #
ellipse-curve $-1 0.019815163987769668 -0.017875020120407037 -0.125 0 0 -1 0.30908352001550343 -0.29583598608156531 0 1 I I #
point $-1 0.3288986840032731 -0.31371100620197234 -0.125 #
point $-1 0.35057125305860853 -0.30445467392351366 -0.125 #
coedge $-1 $195 $140 $203 $204 reversed $64 $-1 #
coedge $-1 $205 $206 $142 $174 forward $207 $-1 #
edge $-1 $208 0 $151 3.1415926535897931 $142 $209 forward 7 unknown #
coedge $-1 $185 $203 $143 $176 reversed $210 $-1 #
edge $-1 $187 0 $177 0.55445467392351366 $175 $211 forward 7 unknown #
vertex $-1 $204 $212 #
straight-curve $-1 0.4375 -0.30445467392351366 0.3125 0 0 -1 I I #
coedge $-1 $184 $146 $213 $214 reversed $79 $-1 #
coedge $-1 $167 $198 $146 $181 forward $191 $-1 #
edge $-1 $215 0 $182 0.25 $146 $216 forward 7 unknown #
vertex $-1 $181 $217 #
straight-curve $-1 -0.39720259469782054 0.25 -0.125 1 0 0 I I #
coedge $-1 $149 $179 $218 $219 forward $79 $-1 #
coedge $-1 $220 $175 $149 $186 reversed $210 $-1 #
edge $-1 $221 -5.5511151231257827e-017 $187 0.8347025946978206 $185 $222 forward 7 unknown #
vertex $-1 $186 $223 #
straight-curve $-1 0.4375 0.25 0 0 0 1 I I #
point $-1 0.4375 0.25 0 #
face $-1 $224 $225 $3 $-1 $226 reversed single #
loop $-1 $-1 $167 $155 #
plane-surface $-1 0.33749999999999997 -0.44580714331968241 0.125 1 0 0 0 0 -1 forward_v I I I I #
coedge $-1 $227 $228 $160 $194 forward $229 $-1 #
edge $-1 $151 0 $208 3.1415926535897931 $160 $230 forward 7 unknown #
coedge $-1 $161 $172 $231 $232 reversed $64 $-1 #
coedge $-1 $233 $234 $161 $197 forward $235 $-1 #
edge $-1 $199 0 $236 0.013071253058608567 $161 $237 forward 7 unknown #
coedge $-1 $180 $162 $234 $238 forward $191 $-1 #
vertex $-1 $163 $239 #
straight-curve $-1 0.33749999999999997 -0.30445467392351366 -0.125 0 0 1 I I #
point $-1 0.33749999999999997 -0.30445467392351366 -0.125 #
straight-curve $-1 0.33749999999999997 -0.30445467392351377 -0.125 0 1 0 I I #
coedge $-1 $175 $240 $172 $204 forward $210 $-1 #
edge $-1 $241 0 $177 0.08692874694139141 $203 $242 forward 7 unknown #
coedge $-1 $243 $173 $228 $244 reversed $207 $-1 #
coedge $-1 $173 $243 $227 $245 forward $207 $-1 #
loop $-1 $-1 $205 $246 #
vertex $-1 $194 $247 #
ellipse-curve $-1 0.4375 0 0 1 0 0 0 -0.25 0 1 I I #
loop $-1 $-1 $175 $248 #
straight-curve $-1 0.4375 0.25 0.3125 0 -1 0 I I #
point $-1 0.43749999999999994 -0.30445467392351366 0.3125 #
coedge $-1 $234 $249 $179 $214 forward $235 $-1 #
edge $-1 $250 0 $215 0.73470259469782051 $179 $251 forward 7 unknown #
vertex $-1 $214 $252 #
straight-curve $-1 0.33749999999999997 0.25 0.125 0 0 -1 I I #
point $-1 0.33749999999999997 0.25 -0.125 #
coedge $-1 $253 $254 $184 $219 reversed $255 $-1 #
edge $-1 $250 0 $221 0.1875 $184 $256 forward 7 unknown #
coedge $-1 $257 $185 $254 $258 reversed $210 $-1 #
vertex $-1 $258 $259 #
straight-curve $-1 -0.39720259469782054 0.25 0.3125 1 0 0 I I #
point $-1 0.4375 0.25 0.3125 #
face $-1 $260 $261 $3 $-1 $262 reversed single #
loop $-1 $235 $263 $190 #
plane-surface $-1 -0.40765651538025732 -0.44580714331968241 0.125 0 0 1 1 0 0 forward_v I I I I #
coedge $-1 $264 $193 $206 $245 reversed $229 $-1 #
coedge $-1 $193 $264 $205 $244 forward $229 $-1 #
loop $-1 $-1 $227 $265 #
ellipse-curve $-1 0.4375 0 0 1 0 0 0 0.25 0 1 I I #
coedge $-1 $266 $267 $195 $232 forward $268 $-1 #
edge $-1 $236 0 $241 0.1875 $195 $269 forward 7 unknown #
coedge $-1 $270 $196 $267 $271 reversed $235 $-1 #
coedge $-1 $196 $213 $198 $238 reversed $235 $-1 #
loop $-1 $-1 $234 $190 #
vertex $-1 $197 $272 #
straight-curve $-1 0.33749999999999997 -0.30445467392351366 0.125 1 0 0 I I #
edge $-1 $199 0 $215 0.55445467392351366 $234 $273 forward 7 unknown #
point $-1 0.33749999999999997 -0.30445467392351366 0.125 #
coedge $-1 $203 $274 $266 $275 forward $210 $-1 #
vertex $-1 $204 $276 #
straight-curve $-1 0.35057125305860853 -0.30445467392351366 0.3125 1 0 0 I I #
coedge $-1 $206 $205 $277 $278 forward $207 $-1 #
edge $-1 $279 0 $151 0.14999999999999991 $228 $280 forward 7 unknown #
edge $-1 $281 0 $208 0.14999999999999991 $227 $282 forward 7 unknown #
face $-1 $265 $207 $3 $-1 $283 forward single #
point $-1 0.4375 -0.25 0 #
face $-1 $284 $285 $3 $-1 $286 forward single #
coedge $-1 $213 $287 $253 $288 forward $235 $-1 #
vertex $-1 $219 $289 #
straight-curve $-1 -0.39720259469782054 0.25 0.125 1 0 0 I I #
point $-1 0.33749999999999997 0.25 0.125 #
coedge $-1 $290 $218 $249 $288 reversed $255 $-1 #
coedge $-1 $218 $290 $220 $258 forward $255 $-1 #
loop $-1 $-1 $254 $284 #
straight-curve $-1 -0.3972025946978206 0.25 0.125 0 0 1 I I #
coedge $-1 $274 $220 $291 $292 reversed $210 $-1 #
edge $-1 $293 1.7130030992464166e-016 $221 0.25021847345397091 $220 $294 forward 7 unknown #
point $-1 -0.3972025946978206 0.25 0.3125 #
face $-1 $248 $295 $3 $-1 $296 reversed single #
loop $-1 $-1 $297 $224 #
cone-surface $-1 0 0 -0.3125 0 0 1 0.09375 0 0 1 I I 0 1 0.09375 forward I I I I #
coedge $-1 $298 $298 $299 $300 forward $225 $-1 #
coedge $-1 $228 $227 $301 $302 reversed $229 $-1 #
face $-1 $303 $229 $3 $-1 $304 forward single #
coedge $-1 $305 $231 $240 $275 reversed $268 $-1 #
coedge $-1 $231 $305 $233 $271 forward $268 $-1 #
loop $-1 $-1 $267 $306 #
straight-curve $-1 0.35057125305860853 -0.30445467392351366 0.125 0 0 1 I I #
coedge $-1 $287 $233 $307 $308 forward $235 $-1 #
edge $-1 $309 0 $236 0.80729432741824214 $233 $310 forward 7 unknown #
point $-1 0.35057125305860853 -0.30445467392351366 0.125 #
straight-curve $-1 0.33749999999999997 -0.30445467392351366 0.125 0 1 0 I I #
coedge $-1 $240 $257 $311 $312 forward $210 $-1 #
edge $-1 $313 -1.2649025345663951e-015 $241 0.80729432741823759 $240 $314 forward 7 unknown #
point $-1 0.35057125305860853 -0.30445467392351366 0.3125 #
coedge $-1 $315 $316 $243 $278 reversed $317 $-1 #
edge $-1 $279 6.1629758220391493e-032 $281 3.1415926535897931 $277 $318 forward 7 unknown #
vertex $-1 $319 $320 #
straight-curve $-1 0.58749999999999991 0.25 3.0615158845559431e-017 -1 0 0 I I #
vertex $-1 $321 $322 #
straight-curve $-1 0.58749999999999991 -0.25 -6.1230317691118863e-017 -1 0 0 I I #
cone-surface $-1 0.33281500000000008 0 0 1 0 0 0 -0.25 0 1 I I 0 1 0.25 forward I I I I #
face $-1 $323 $255 $3 $-1 $324 reversed single #
loop $-1 $210 $325 $248 #
plane-surface $-1 0 0 0.3125 0 0 1 1 0 0 forward_v I I I I #
coedge $-1 $249 $270 $326 $327 forward $235 $-1 #
edge $-1 $328 -3.3277609641481845e-016 $250 0.25021847345397041 $253 $329 forward 7 unknown #
point $-1 -0.39720259469782054 0.25 0.125 #
coedge $-1 $254 $253 $330 $331 forward $255 $-1 #
coedge $-1 $330 $332 $257 $292 forward $333 $-1 #
edge $-1 $334 2.0816681711721685e-017 $293 0.035750040240809744 $257 $335 forward 7 unknown #
vertex $-1 $292 $336 #
straight-curve $-1 -0.40765651538025732 -1.7257622426813617e-015 0.3125 0.041779172169555179 0.99912686920772309 0 I I #
loop $-1 $-1 $337 $260 #
cone-surface $-1 0 0 -0.3125 0 0 1 0.09375 0 0 1 I I 0 1 0.09375 forward I I I I #
coedge $-1 $338 $299 $339 $340 forward $261 $-1 #
coedge $-1 $263 $263 $341 $342 forward $225 $-1 #
coedge $-1 $297 $343 $263 $300 reversed $261 $-1 #
edge $-1 $344 0 $345 3.1415926535897931 $299 $346 forward 7 unknown #
coedge $-1 $347 $348 $264 $302 forward $349 $-1 #
edge $-1 $279 -1.2325951644078299e-031 $281 3.1415926535897931 $301 $350 forward 7 unknown #
face $-1 $351 $349 $3 $-1 $352 forward single #
cone-surface $-1 0.33281500000000008 0 0 1 0 0 0 -0.25 0 1 I I 0 1 0.25 forward I I I I #
coedge $-1 $267 $266 $353 $354 reversed $268 $-1 #
face $-1 $246 $268 $3 $-1 $355 reversed single #
coedge $-1 $353 $356 $270 $308 reversed $357 $-1 #
edge $-1 $309 -7.5813548587362145e-017 $358 2.3362993182346821 $307 $359 forward 7 unknown #
vertex $-1 $354 $360 #
ellipse-curve $-1 0.35057125305860853 -0.33445467392351386 0.125 0 0 -1 -0.021672569055335433 0.02074366772154157 0 1 I I #
coedge $-1 $356 $353 $274 $312 reversed $357 $-1 #
edge $-1 $334 0 $313 2.3362993182346821 $274 $361 forward 7 unknown #
vertex $-1 $275 $362 #
ellipse-curve $-1 0.35057125305860859 -0.33445467392351402 0.3125 0 0 -1 -0.021672569055335489 0.020743667721541736 0 1 I I #
coedge $-1 $363 $277 $348 $319 reversed $317 $-1 #
coedge $-1 $277 $363 $347 $321 forward $317 $-1 #
loop $-1 $-1 $363 $351 #
ellipse-curve $-1 0.58749999999999991 -6.9388939039072284e-018 1.3877787807814457e-017 -1 0 0 0 0.25 1.6737371037744975e-017 1 I I #
edge $-1 $364 0 $279 0.098306266911320994 $348 $365 forward 7 unknown #
point $-1 0.58749999999999991 0.25000000000000022 3.0615158845559431e-017 #
edge $-1 $366 -2.2204460492503157e-017 $281 0.098306266911320814 $347 $367 forward 7 unknown #
point $-1 0.58749999999999991 -0.25 0 #
face $-1 $368 $333 $3 $-1 $369 reversed single #
plane-surface $-1 -0.40765651538025732 -1.2004286453759505e-015 -0.3125 0.99912686920772309 -0.041779172169555262 0 0.041779172169555262 0.99912686920772309 0 forward_v I I I I #
coedge $-1 $370 $370 $338 $371 forward $285 $-1 #
coedge $-1 $332 $330 $287 $327 reversed $333 $-1 #
edge $-1 $358 1.1657341758564144e-015 $328 0.035750040240810688 $326 $372 forward 7 unknown #
vertex $-1 $331 $373 #
straight-curve $-1 -0.40765651538025732 -1.2212453270876722e-015 0.125 0.041779172169555262 0.99912686920772309 0 I I #
coedge $-1 $326 $291 $290 $331 reversed $333 $-1 #
edge $-1 $328 0 $293 0.1875 $290 $374 forward 7 unknown #
coedge $-1 $291 $326 $356 $375 forward $333 $-1 #
loop $-1 $-1 $326 $323 #
vertex $-1 $312 $376 #
straight-curve $-1 -0.40765651538025732 -0.035750040240811298 0.3125 0 1 0 I I #
point $-1 -0.40765651538025732 -1.5543122344752192e-015 0.3125 #
coedge $-1 $377 $341 $343 $378 forward $295 $-1 #
coedge $-1 $343 $297 $325 $371 reversed $261 $-1 #
coedge $-1 $341 $377 $297 $340 reversed $295 $-1 #
edge $-1 $344 2.6780958656365946e-032 $379 0.1875 $339 $380 forward 7 unknown #
coedge $-1 $337 $339 $298 $342 reversed $295 $-1 #
edge $-1 $345 0 $344 3.1415926535897931 $341 $381 forward 7 unknown #
coedge $-1 $299 $338 $337 $378 reversed $261 $-1 #
vertex $-1 $342 $382 #
vertex $-1 $342 $383 #
ellipse-curve $-1 5.5511151231257827e-017 0 0.125 0 0 1 0.09375 0 0 1 I I #
coedge $-1 $384 $301 $316 $321 reversed $349 $-1 #
coedge $-1 $301 $384 $315 $319 forward $349 $-1 #
loop $-1 $-1 $301 $303 #
ellipse-curve $-1 0.58749999999999991 -6.9388939039072284e-018 -6.9388939039072284e-018 1 0 0 0 0.25 3.755405274946666e-017 1 I I #
face $-1 $385 $317 $3 $-1 $386 forward single #
cone-surface $-1 -0.22500000000000009 0 0 1 0 0 0 -1.3333333333333339 0 1 I I -0.80000000000000016 0.59999999999999987 1.3333333333333339 forward I I I I #
coedge $-1 $311 $307 $305 $354 forward $357 $-1 #
edge $-1 $309 0 $313 0.1875 $353 $387 forward 7 unknown #
cone-surface $-1 0.35057125305860853 -0.33445467392351369 0.125 0 0 -1 -0.021672569055335409 0.020743667721541383 0 1 I I 0 1 0.029999999999999995 forward I I I I #
coedge $-1 $307 $311 $332 $375 reversed $357 $-1 #
loop $-1 $-1 $356 $368 #
vertex $-1 $308 $388 #
ellipse-curve $-1 0.019815163987769724 -0.017875020120407092 0.125 0 0 -1 0.30908352001550332 -0.29583598608156519 0 1 I I #
point $-1 0.3288986840032731 -0.31371100620197229 0.125 #
ellipse-curve $-1 0.019815163987769648 -0.017875020120407092 0.3125 0 0 1 -0.42747167936802699 -0.017875020120404185 0 1 I I #
point $-1 0.32889868400327305 -0.31371100620197229 0.3125 #
coedge $-1 $316 $315 $389 $390 forward $317 $-1 #
vertex $-1 $319 $391 #
straight-curve $-1 0.64648376014679243 0.17135498647094338 2.0984240519146476e-017 -0.59999999999999931 0.8000000000000006 9.7968508305789974e-017 I I #
vertex $-1 $392 $393 #
straight-curve $-1 0.64648376014679243 -0.17135498647094338 -4.1968481038292952e-017 -0.59999999999999931 -0.8000000000000006 -1.9593701661157995e-016 I I #
face $-1 $306 $357 $3 $-1 $394 forward single #
plane-surface $-1 -0.40765651538025732 -0.44580714331968241 0.3125 1 0 0 0 0 -1 forward_v I I I I #
coedge $-1 $325 $325 $377 $395 forward $285 $-1 #
edge $-1 $396 0 $379 3.1415926535897931 $325 $397 forward 7 unknown #
straight-curve $-1 -0.40765651538025732 -0.035750040240812242 0.125 0 1 0 I I #
point $-1 -0.40765651538025732 -1.5543122344752192e-015 0.125 #
straight-curve $-1 -0.40765651538025732 -1.5536945309439369e-015 0.125 0 0 1 I I #
edge $-1 $358 0 $334 0.1875 $356 $398 forward 7 unknown #
point $-1 -0.40765651538025732 -0.035750040240811277 0.3125 #
coedge $-1 $339 $337 $370 $395 reversed $295 $-1 #
edge $-1 $345 6.6952396640914865e-033 $396 0.1875 $337 $399 forward 7 unknown #
vertex $-1 $395 $400 #
straight-curve $-1 0.09375 6.0305357712717167e-017 0.125 0 -4.4408920985006262e-016 1 I I #
ellipse-curve $-1 5.5511151231257827e-017 0 0.125 0 0 1 -0.093750000000000056 0 0 1 I I #
point $-1 0.093750000000000056 0 0.125 #
point $-1 -0.09375 0 0.125 #
coedge $-1 $348 $347 $401 $392 reversed $349 $-1 #
face $-1 $402 $403 $3 $-1 $404 reversed single #
cone-surface $-1 -0.22500000000000009 0 0 1 0 0 0 -1.3333333333333339 0 1 I I -0.80000000000000016 0.59999999999999987 1.3333333333333339 forward I I I I #
straight-curve $-1 0.3288986840032731 -0.31371100620197229 0.125 -2.9605947323337506e-016 0 1 I I #
point $-1 -0.40765651538025732 -0.035750040240811076 0.125 #
coedge $-1 $405 $406 $363 $390 reversed $403 $-1 #
edge $-1 $364 0 $366 3.1415926535897931 $363 $407 forward 7 unknown #
point $-1 0.64648376014679243 0.17135498647094338 2.0984240519146476e-017 #
edge $-1 $364 0 $366 3.1415926535897931 $384 $408 forward 7 unknown #
point $-1 0.64648376014679243 -0.17135498647094335 0 #
cone-surface $-1 0.019815163987769654 -0.017875020120407051 0.3125 0 0 1 0.42784524422508913 0 0 1 I I 0 1 0.42784524422508913 forward I I I I #
edge $-1 $379 0 $396 3.1415926535897931 $370 $409 forward 7 unknown #
vertex $-1 $395 $410 #
ellipse-curve $-1 0 0 0.3125 0 0 -1 -0.09375 0 0 1 I I #
straight-curve $-1 -0.40765651538025732 -0.035750040240811076 0.125 0 -1.0732155904709846e-015 1 I I #
straight-curve $-1 -0.09375 -3.0152678856358583e-017 0.125 0 2.2204460492503131e-016 1 I I #
point $-1 0.09375 0 0.3125 #
coedge $-1 $411 $412 $384 $392 forward $413 $-1 #
face $-1 $414 $413 $3 $-1 $415 reversed single #
loop $-1 $-1 $405 $385 #
torus-surface $-1 0.68648376014679247 0 0 1 0 0 0.20135498647094335 0.049999999999999996 0 -1 0 forward_v I I I I #
coedge $-1 $416 $389 $412 $417 forward $403 $-1 #
coedge $-1 $389 $416 $411 $418 reversed $403 $-1 #
ellipse-curve $-1 0.64648376014679243 0 0 -1 0 0 0 0.17135498647094335 2.0984240519146473e-017 1 I I #
ellipse-curve $-1 0.64648376014679243 0 0 1 0 0 0 0.17135498647094335 2.0984240519146473e-017 1 I I #
ellipse-curve $-1 0 0 0.3125 0 0 -1 0.09375 0 0 1 I I #
point $-1 -0.09375 0 0.3125 #
coedge $-1 $419 $401 $406 $418 forward $413 $-1 #
coedge $-1 $401 $419 $405 $417 reversed $413 $-1 #
loop $-1 $-1 $411 $402 #
face $-1 $420 $421 $3 $-1 $422 forward single #
torus-surface $-1 0.68648376014679247 0 0 1 0 0 0.20135498647094335 0.049999999999999996 0 -1 0 forward_v I I I I #
coedge $-1 $406 $405 $423 $424 forward $403 $-1 #
edge $-1 $364 -4.3368086899420025e-016 $425 0.98075736199459707 $412 $426 forward 7 unknown #
edge $-1 $366 0 $427 0.98075736199459707 $411 $428 forward 7 unknown #
coedge $-1 $412 $411 $429 $430 reversed $413 $-1 #
face $-1 $431 $432 $3 $-1 $433 forward single #
loop $-1 $-1 $429 $414 #
cone-surface $-1 -1.140550000000002 0 0 -1 0 0 0 -0.05351313747525014 0 1 I I -0.053436680041494614 0.99857123993541042 0.05351313747525014 forward I I I I #
coedge $-1 $434 $435 $416 $424 reversed $432 $-1 #
edge $-1 $425 -3.3596740229203231e-032 $427 3.1415926535897931 $423 $436 forward 7 unknown #
vertex $-1 $437 $438 #
ellipse-curve $-1 0.68648376014679247 0.20135498647094346 2.4658059580613619e-017 -9.6296497219361423e-033 -1.2246063538223773e-016 1 -0.040000000000000036 -0.03000000000000011 -3.6738190614671462e-018 1 I I #
vertex $-1 $439 $440 #
ellipse-curve $-1 0.68648376014679247 -0.20135498647094346 -4.9316119161227238e-017 -1.9259299443872285e-032 2.4492127076447545e-016 -1 -0.040000000000000036 0.03000000000000011 7.3476381229342924e-018 1 I I #
coedge $-1 $441 $442 $419 $430 forward $421 $-1 #
edge $-1 $425 3.3596740229203231e-032 $427 3.1415926535897931 $429 $443 forward 7 unknown #
face $-1 $444 $445 $3 $-1 $446 forward single #
loop $-1 $-1 $447 $420 #
cone-surface $-1 -1.140550000000002 0 0 -1 0 0 0 -0.05351313747525014 0 1 I I -0.053436680041494614 0.99857123993541042 0.05351313747525014 forward I I I I #
coedge $-1 $447 $423 $442 $437 reversed $432 $-1 #
coedge $-1 $423 $447 $441 $439 forward $432 $-1 #
ellipse-curve $-1 0.6891555941488674 0 0 -1 0 0 0 0.15142642447417284 1.8543776154767639e-017 1 I I #
edge $-1 $448 0 $425 1.7919328138919737 $442 $449 forward 7 unknown #
point $-1 0.6891555941488674 0.15142642447417282 1.8543776154767639e-017 #
edge $-1 $450 -1.4831658135398716e-018 $427 1.7919328138919737 $441 $451 forward 7 unknown #
point $-1 0.6891555941488674 -0.15142642447417284 0 #
coedge $-1 $452 $429 $435 $439 reversed $421 $-1 #
coedge $-1 $429 $452 $434 $437 forward $421 $-1 #
ellipse-curve $-1 0.6891555941488674 0 0 1 0 0 0 0.15142642447417284 1.8543776154767639e-017 1 I I #
face $-1 $453 $454 $3 $-1 $455 forward single #
loop $-1 $-1 $456 $431 #
torus-surface $-1 2.4812000000000003 0 0 1 0 0 0.19725280290920291 0.049999999999999996 0 -1 0 forward_v I I I I #
coedge $-1 $435 $434 $457 $458 forward $432 $-1 #
vertex $-1 $437 $459 #
straight-curve $-1 2.4785281659979246 0.24718136490597334 3.0269987001034254e-017 -0.99857123993541042 -0.053436680041494621 -6.5438897905987715e-018 I I #
vertex $-1 $460 $461 #
straight-curve $-1 2.4785281659979246 -0.24718136490597334 -6.0539974002068508e-017 -0.99857123993541042 0.053436680041494621 1.3087779581197543e-017 I I #
coedge $-1 $442 $441 $462 $460 reversed $421 $-1 #
face $-1 $-1 $463 $3 $-1 $464 forward single #
loop $-1 $-1 $465 $444 #
torus-surface $-1 2.4812000000000003 0 0 1 0 0 0.19725280290920291 0.049999999999999996 0 -1 0 forward_v I I I I #
coedge $-1 $466 $457 $467 $468 forward $445 $-1 #
coedge $-1 $456 $469 $447 $458 reversed $445 $-1 #
edge $-1 $448 0 $450 3.1415926535897931 $447 $470 forward 7 unknown #
point $-1 2.4785281659979246 0.24718136490597334 3.0269987001034254e-017 #
edge $-1 $448 0 $450 3.1415926535897931 $452 $471 forward 7 unknown #
point $-1 2.4785281659979246 -0.24718136490597337 0 #
coedge $-1 $465 $467 $452 $460 forward $454 $-1 #
loop $-1 $-1 $472 $453 #
plane-surface $-1 2.5312000000000001 0 0 1 0 0 0 -1 0 forward_v I I I I #
coedge $-1 $473 $462 $469 $474 forward $454 $-1 #
coedge $-1 $469 $456 $475 $476 forward $445 $-1 #
coedge $-1 $462 $473 $456 $468 reversed $454 $-1 #
edge $-1 $448 -3.2526065174565564e-017 $477 1.6242584707879049 $467 $478 forward 7 unknown #
coedge $-1 $457 $466 $465 $474 reversed $445 $-1 #
ellipse-curve $-1 2.4785281659979246 0 0 -1 0 0 0 0.24718136490597337 3.0269987001034254e-017 1 I I #
ellipse-curve $-1 2.4785281659979246 0 0 1 0 0 0 0.24718136490597337 3.0269987001034254e-017 1 I I #
coedge $-1 $475 $475 $473 $479 forward $463 $-1 #
coedge $-1 $467 $465 $472 $479 reversed $454 $-1 #
edge $-1 $450 0 $480 1.6242584707879049 $465 $481 forward 7 unknown #
coedge $-1 $472 $472 $466 $476 reversed $463 $-1 #
edge $-1 $477 0 $480 3.1415926535897931 $475 $482 forward 7 unknown #
vertex $-1 $476 $483 #
ellipse-curve $-1 2.4812000000000003 0.19725280290920322 2.4155703575188335e-017 7.5833491560248375e-032 1.224606353822377e-016 -1 -0.0026718340020757125 0.049928561996770149 6.1142834258459188e-018 1 I I #
edge $-1 $477 0 $480 3.1415926535897931 $472 $484 forward 7 unknown #
vertex $-1 $476 $485 #
ellipse-curve $-1 2.4812000000000003 -0.19725280290920322 -4.831140715037667e-017 1.5166698312049675e-031 -2.449212707644754e-016 1 -0.0026718340020757125 -0.049928561996770149 -1.2228566851691838e-017 1 I I #
ellipse-curve $-1 2.5312000000000001 0 -3.4694469519536142e-017 -1 0 0 0 0.19725280290920291 5.8850173094724434e-017 1 I I #
point $-1 2.5312000000000001 0.19725280290920291 2.4155703575188298e-017 #
ellipse-curve $-1 2.5312000000000001 0 -2.0816681711721685e-017 1 0 0 0 0.19725280290920291 4.4972385286909983e-017 1 I I #
point $-1 2.5312000000000001 -0.19725280290920291 -4.8311407150376596e-017 #
End-of-ACIS-data 