600 0 1 0           
115 GICL Pro/E ACIS Translator - Source: f:/data5/repository/PTC/V20/web_demos/models/pattern/sub_cavity_wp.prt.1 - 6 0 13 ACIS 6.0.3 NT 24 Thu Apr 04 13:11:29 2002 
1 9.9999999999999995e-007 1e-010 
body $-1 $1 $-1 $2 #
lump $-1 $-1 $3 $0 #
transform $-1 1 0 0 0 1 0 0 0 1 0 0 0 25.399999999999999 no_rotate no_reflect no_shear #
shell $-1 $-1 $-1 $4 $-1 $1 #
face $-1 $5 $6 $3 $-1 $7 reversed single #
face $-1 $8 $9 $3 $-1 $10 forward single #
loop $-1 $-1 $11 $4 #
plane-surface $-1 0 0 0 0 0 1 1 0 0 forward_v I I I I #
face $-1 $12 $13 $3 $-1 $14 forward single #
loop $-1 $-1 $15 $5 #
cone-surface $-1 5.25 0.75 0 0 0 1 0.75 0 0 1 I I 0 1 0.75 forward I I I I #
coedge $-1 $16 $17 $18 $19 reversed $6 $-1 #
face $-1 $20 $21 $3 $-1 $22 forward single #
loop $-1 $-1 $23 $8 #
plane-surface $-1 6 0.75 0 1 0 0 0 1 0 forward_v I I I I #
coedge $-1 $24 $18 $25 $26 forward $9 $-1 #
coedge $-1 $27 $11 $28 $29 reversed $6 $-1 #
coedge $-1 $11 $30 $31 $32 reversed $6 $-1 #
coedge $-1 $15 $33 $11 $19 forward $9 $-1 #
edge $-1 $34 0 $35 1.5707963267948966 $11 $36 forward 7 unknown #
face $-1 $37 $38 $3 $-1 $39 forward single #
loop $-1 $-1 $40 $12 #
cone-surface $-1 5.25 3.25 0 0 0 1 0.75 0 0 1 I I 0 1 0.75 forward I I I I #
coedge $-1 $41 $31 $42 $43 forward $13 $-1 #
coedge $-1 $33 $15 $44 $45 reversed $9 $-1 #
coedge $-1 $31 $41 $15 $26 reversed $13 $-1 #
edge $-1 $35 0 $46 1 $25 $47 forward 7 unknown #
coedge $-1 $48 $16 $49 $50 reversed $6 $-1 #
coedge $-1 $51 $52 $16 $29 forward $53 $-1 #
edge $-1 $54 0 $34 1.9699999999999998 $16 $55 forward 7 unknown #
coedge $-1 $17 $56 $57 $58 reversed $6 $-1 #
coedge $-1 $23 $25 $17 $32 forward $13 $-1 #
edge $-1 $35 0 $59 2.5 $17 $60 forward 7 unknown #
coedge $-1 $18 $24 $51 $61 reversed $9 $-1 #
vertex $-1 $29 $62 #
vertex $-1 $32 $63 #
ellipse-curve $-1 5.25 0.75 0 0 0 1 0 -0.75 0 1 I I #
face $-1 $64 $65 $3 $-1 $66 forward single #
loop $-1 $-1 $67 $20 #
plane-surface $-1 5.25 4 0 0 1 0 -1 0 0 forward_v I I I I #
coedge $-1 $68 $57 $69 $70 forward $21 $-1 #
coedge $-1 $25 $23 $71 $72 reversed $13 $-1 #
coedge $-1 $57 $68 $23 $43 reversed $21 $-1 #
edge $-1 $59 0 $73 1 $23 $74 forward 7 unknown #
coedge $-1 $71 $75 $24 $45 forward $76 $-1 #
edge $-1 $77 0 $46 1.5707963267948957 $44 $78 forward 7 unknown #
vertex $-1 $72 $79 #
straight-curve $-1 6 0.75 0 0 0 1 I I #
coedge $-1 $80 $27 $81 $82 reversed $6 $-1 #
coedge $-1 $83 $84 $27 $50 forward $85 $-1 #
edge $-1 $86 0 $54 0.58000000000000052 $27 $87 forward 7 unknown #
coedge $-1 $88 $28 $33 $61 forward $53 $-1 #
coedge $-1 $28 $88 $83 $89 reversed $53 $-1 #
loop $-1 $-1 $51 $90 #
vertex $-1 $50 $91 #
straight-curve $-1 3.2800000000000002 0 0 1 0 0 I I #
coedge $-1 $30 $92 $93 $94 reversed $6 $-1 #
coedge $-1 $40 $42 $30 $58 forward $21 $-1 #
edge $-1 $59 0 $95 1.5707963267948966 $30 $96 forward 7 unknown #
vertex $-1 $32 $97 #
straight-curve $-1 6 0.75 0 0 1 0 I I #
edge $-1 $34 0 $77 1 $51 $98 forward 7 unknown #
point $-1 5.25 0 0 #
point $-1 6 0.75 0 #
face $-1 $99 $100 $3 $-1 $101 forward single #
loop $-1 $-1 $102 $37 #
cone-surface $-1 0.75 3.25 0 0 0 1 0.75 0 0 1 I I 0 1 0.75 forward I I I I #
coedge $-1 $103 $93 $104 $105 forward $38 $-1 #
coedge $-1 $42 $40 $106 $107 reversed $21 $-1 #
coedge $-1 $93 $103 $40 $70 reversed $38 $-1 #
edge $-1 $95 0 $108 1 $40 $109 forward 7 unknown #
coedge $-1 $106 $44 $41 $72 forward $76 $-1 #
edge $-1 $46 0 $73 2.5 $71 $110 forward 7 unknown #
vertex $-1 $72 $111 #
straight-curve $-1 6 3.25 0 0 0 1 I I #
coedge $-1 $44 $112 $88 $113 forward $76 $-1 #
loop $-1 $-1 $106 $114 #
vertex $-1 $45 $115 #
ellipse-curve $-1 5.25 0.75000000000000067 1 0 0 1 0 -0.75000000000000067 0 1 I I #
point $-1 6 0.75 1 #
coedge $-1 $116 $48 $117 $118 reversed $6 $-1 #
coedge $-1 $119 $120 $48 $82 forward $121 $-1 #
edge $-1 $122 0 $86 1.9499999999999997 $48 $123 forward 7 unknown #
coedge $-1 $124 $49 $52 $89 forward $85 $-1 #
coedge $-1 $49 $124 $119 $125 reversed $85 $-1 #
loop $-1 $-1 $83 $126 #
vertex $-1 $82 $127 #
straight-curve $-1 2.6999999999999997 0 0 1 0 0 I I #
coedge $-1 $52 $51 $75 $113 reversed $53 $-1 #
edge $-1 $54 0 $128 1 $83 $129 forward 7 unknown #
face $-1 $114 $53 $3 $-1 $130 forward single #
point $-1 3.2800000000000002 0 0 #
coedge $-1 $56 $116 $131 $132 reversed $6 $-1 #
coedge $-1 $67 $69 $56 $94 forward $38 $-1 #
edge $-1 $95 0 $133 4.5 $56 $134 forward 7 unknown #
vertex $-1 $58 $135 #
ellipse-curve $-1 5.25 3.25 0 0 0 1 0.75 0 0 1 I I #
point $-1 6 3.25 0 #
straight-curve $-1 5.25 0 0 0 0 1 I I #
face $-1 $136 $137 $3 $-1 $138 forward single #
loop $-1 $-1 $139 $64 #
plane-surface $-1 0 3.25 0 -1 0 0 0 -1 0 forward_v I I I I #
coedge $-1 $140 $131 $141 $142 forward $65 $-1 #
coedge $-1 $69 $67 $143 $144 reversed $38 $-1 #
coedge $-1 $131 $140 $67 $105 reversed $65 $-1 #
edge $-1 $133 0 $145 1 $67 $146 forward 7 unknown #
coedge $-1 $143 $71 $68 $107 forward $76 $-1 #
edge $-1 $73 0 $108 1.5707963267948926 $106 $147 forward 7 unknown #
vertex $-1 $144 $148 #
straight-curve $-1 5.25 4 0 0 0 1 I I #
straight-curve $-1 6 0.75 1 0 1 0 I I #
point $-1 6 3.25 1 #
coedge $-1 $75 $149 $124 $150 forward $76 $-1 #
edge $-1 $128 0 $77 1.9699999999999998 $75 $151 forward 7 unknown #
face $-1 $-1 $76 $3 $-1 $152 forward single #
point $-1 5.25 0 1 #
coedge $-1 $92 $80 $153 $154 reversed $6 $-1 #
coedge $-1 $155 $156 $80 $118 forward $137 $-1 #
edge $-1 $157 0 $122 1.5707963267948966 $80 $158 forward 7 unknown #
coedge $-1 $159 $81 $84 $125 forward $121 $-1 #
coedge $-1 $81 $159 $155 $160 reversed $121 $-1 #
loop $-1 $-1 $119 $136 #
vertex $-1 $118 $161 #
straight-curve $-1 0.75 0 0 1 0 0 I I #
coedge $-1 $84 $83 $112 $150 reversed $85 $-1 #
edge $-1 $86 0 $162 1 $119 $163 forward 7 unknown #
face $-1 $90 $85 $3 $-1 $164 forward single #
point $-1 2.6999999999999997 0 0 #
vertex $-1 $113 $165 #
straight-curve $-1 3.2800000000000002 0 0 0 0 1 I I #
plane-surface $-1 3.2800000000000002 0 0 0 -1 0 1 0 0 forward_v I I I I #
coedge $-1 $102 $104 $92 $132 forward $65 $-1 #
edge $-1 $133 0 $166 1.5707963267948966 $92 $167 forward 7 unknown #
vertex $-1 $94 $168 #
straight-curve $-1 5.25 4 0 -1 0 0 I I #
point $-1 5.25 4 0 #
face $-1 $126 $121 $3 $-1 $169 forward single #
loop $-1 $-1 $155 $99 #
cone-surface $-1 0.75 0.75 0 0 0 1 0.75 0 0 1 I I 0 1 0.75 forward I I I I #
coedge $-1 $170 $153 $156 $171 forward $100 $-1 #
coedge $-1 $104 $102 $172 $173 reversed $65 $-1 #
coedge $-1 $153 $170 $102 $142 reversed $100 $-1 #
edge $-1 $166 0 $174 1 $102 $175 forward 7 unknown #
coedge $-1 $172 $106 $103 $144 forward $76 $-1 #
edge $-1 $108 0 $145 4.5 $143 $176 forward 7 unknown #
vertex $-1 $173 $177 #
straight-curve $-1 0.75 4 0 0 0 1 I I #
ellipse-curve $-1 5.2499999999999982 3.2499999999999987 1 0 0 1 0.75000000000000178 1.3322676295501878e-015 0 1 I I #
point $-1 5.25 4 1 #
coedge $-1 $112 $178 $159 $179 forward $76 $-1 #
edge $-1 $162 0 $128 0.58000000000000052 $112 $180 forward 7 unknown #
straight-curve $-1 3.2800000000000002 0 1 1 0 0 I I #
plane-surface $-1 0 0 1 0 0 1 1 0 0 forward_v I I I I #
coedge $-1 $139 $141 $116 $154 forward $100 $-1 #
edge $-1 $166 0 $157 2.5 $116 $181 forward 7 unknown #
coedge $-1 $182 $117 $120 $160 forward $137 $-1 #
coedge $-1 $117 $182 $139 $171 reversed $137 $-1 #
vertex $-1 $154 $183 #
ellipse-curve $-1 0.75 0.75 0 0 0 1 -0.75 0 0 1 I I #
coedge $-1 $120 $119 $149 $179 reversed $121 $-1 #
edge $-1 $122 1.2325951644078309e-032 $184 1 $155 $185 forward 7 unknown #
point $-1 0.75 0 0 #
vertex $-1 $150 $186 #
straight-curve $-1 2.6999999999999997 0 0 0 0 1 I I #
plane-surface $-1 2.6999999999999997 0 0 0 -1 0 1 0 0 forward_v I I I I #
point $-1 3.2800000000000002 0 1 #
vertex $-1 $132 $187 #
ellipse-curve $-1 0.75 3.25 0 0 0 1 0 0.75 0 1 I I #
point $-1 0.75 4 0 #
plane-surface $-1 0.75 0 0 0 -1 0 1 0 0 forward_v I I I I #
coedge $-1 $141 $139 $188 $189 reversed $100 $-1 #
edge $-1 $157 0 $190 1 $139 $191 forward 7 unknown #
coedge $-1 $188 $143 $140 $173 forward $76 $-1 #
edge $-1 $145 0 $174 1.5707963267948957 $172 $192 forward 7 unknown #
vertex $-1 $189 $193 #
straight-curve $-1 0 3.25 0 0 0 1 I I #
straight-curve $-1 5.25 4 1 -1 0 0 I I #
point $-1 0.75 4 1 #
coedge $-1 $149 $188 $182 $194 forward $76 $-1 #
edge $-1 $184 0 $162 1.9499999999999997 $149 $195 forward 7 unknown #
straight-curve $-1 2.6999999999999997 0 1 1 0 0 I I #
straight-curve $-1 0 3.25 0 0 -1 0 I I #
coedge $-1 $156 $155 $178 $194 reversed $137 $-1 #
point $-1 0 0.75 0 #
vertex $-1 $179 $196 #
straight-curve $-1 0.74999999999999989 0 0 1.1102230246251565e-016 0 1 I I #
point $-1 2.6999999999999997 0 1 #
point $-1 0 3.25 0 #
coedge $-1 $178 $172 $170 $189 forward $76 $-1 #
edge $-1 $174 0 $190 2.5 $188 $197 forward 7 unknown #
vertex $-1 $194 $198 #
straight-curve $-1 0 0.75 0 0 0 1 I I #
ellipse-curve $-1 0.75000000000000022 3.2499999999999996 1 0 0 1 -2.2204460492503131e-016 0.75000000000000044 0 1 I I #
point $-1 0 3.25 1 #
edge $-1 $190 -1.4802973661668751e-016 $184 1.5707963267948961 $178 $199 forward 7 unknown #
straight-curve $-1 0.75 0 1 1 0 0 I I #
point $-1 0.75 0 1 #
straight-curve $-1 0 3.25 1 0 -1 0 I I #
point $-1 0 0.75000000000000011 1 #
ellipse-curve $-1 0.75000000000000011 0.75000000000000022 1 0 0 1 -0.75000000000000011 -2.2204460492503131e-016 0 1 I I #
End-of-ACIS-data 