  0
SECTION
  2
HEADER
  9
$ACADVER
  1
AC1009
  9
$INSBASE
 10
0.0
 20
0.0
 30
0.0
  9
$EXTMIN
 10
0.0
 20
0.0
 30
0.0
  9
$EXTMAX
 10
9.0
 20
9.0
 30
4.0
  9
$LIMMIN
 10
0.0
 20
0.0
  9
$LIMMAX
 10
12.0
 20
9.0
  9
$ORTHOMODE
 70
     0
  9
$REGENMODE
 70
     1
  9
$FILLMODE
 70
     1
  9
$QTEXTMODE
 70
     0
  9
$MIRRTEXT
 70
     1
  9
$DRAGMODE
 70
     2
  9
$LTSCALE
 40
1.0
  9
$OSMODE
 70
     0
  9
$ATTMODE
 70
     1
  9
$TEXTSIZE
 40
0.2
  9
$TRACEWID
 40
0.05
  9
$TEXTSTYLE
  7
STANDARD
  9
$CLAYER
  8
0
  9
$CELTYPE
  6
BYLAYER
  9
$CECOLOR
 62
   256
  9
$DIMSCALE
 40
1.0
  9
$DIMASZ
 40
0.18
  9
$DIMEXO
 40
0.0625
  9
$DIMDLI
 40
0.38
  9
$DIMRND
 40
0.0
  9
$DIMDLE
 40
0.0
  9
$DIMEXE
 40
0.18
  9
$DIMTP
 40
0.0
  9
$DIMTM
 40
0.0
  9
$DIMTXT
 40
0.18
  9
$DIMCEN
 40
0.09
  9
$DIMTSZ
 40
0.0
  9
$DIMTOL
 70
     0
  9
$DIMLIM
 70
     0
  9
$DIMTIH
 70
     1
  9
$DIMTOH
 70
     1
  9
$DIMSE1
 70
     0
  9
$DIMSE2
 70
     0
  9
$DIMTAD
 70
     0
  9
$DIMZIN
 70
     0
  9
$DIMBLK
  1

  9
$DIMASO
 70
     1
  9
$DIMSHO
 70
     1
  9
$DIMPOST
  1

  9
$DIMAPOST
  1

  9
$DIMALT
 70
     0
  9
$DIMALTD
 70
     2
  9
$DIMALTF
 40
25.4
  9
$DIMLFAC
 40
1.0
  9
$DIMTOFL
 70
     0
  9
$DIMTVP
 40
0.0
  9
$DIMTIX
 70
     0
  9
$DIMSOXD
 70
     0
  9
$DIMSAH
 70
     0
  9
$DIMBLK1
  1

  9
$DIMBLK2
  1

  9
$DIMSTYLE
  2
*UNNAMED
  9
$DIMCLRD
 70
     0
  9
$DIMCLRE
 70
     0
  9
$DIMCLRT
 70
     0
  9
$DIMTFAC
 40
1.0
  9
$DIMGAP
 40
0.09
  9
$LUNITS
 70
     2
  9
$LUPREC
 70
     4
  9
$SKETCHINC
 40
0.1
  9
$FILLETRAD
 40
0.0
  9
$AUNITS
 70
     0
  9
$AUPREC
 70
     0
  9
$MENU
  1
acad
  9
$ELEVATION
 40
0.0
  9
$PELEVATION
 40
0.0
  9
$THICKNESS
 40
0.0
  9
$LIMCHECK
 70
     0
  9
$BLIPMODE
 70
     1
  9
$CHAMFERA
 40
0.0
  9
$CHAMFERB
 40
0.0
  9
$SKPOLY
 70
     0
  9
$TDCREATE
 40
2448826.492819653
  9
$TDUPDATE
 40
2448826.498849710
  9
$TDINDWG
 40
0.0060300579
  9
$TDUSRTIMER
 40
0.0060300579
  9
$USRTIMER
 70
     1
  9
$ANGBASE
 50
0.0
  9
$ANGDIR
 70
     0
  9
$PDMODE
 70
     0
  9
$PDSIZE
 40
0.0
  9
$PLINEWID
 40
0.0
  9
$COORDS
 70
     0
  9
$SPLFRAME
 70
     0
  9
$SPLINETYPE
 70
     6
  9
$SPLINESEGS
 70
     8
  9
$ATTDIA
 70
     0
  9
$ATTREQ
 70
     1
  9
$HANDLING
 70
     1
  9
$HANDSEED
  5
1E2
  9
$SURFTAB1
 70
     6
  9
$SURFTAB2
 70
     6
  9
$SURFTYPE
 70
     6
  9
$SURFU
 70
     6
  9
$SURFV
 70
     6
  9
$UCSNAME
  2

  9
$UCSORG
 10
0.0
 20
0.0
 30
0.0
  9
$UCSXDIR
 10
1.0
 20
0.0
 30
0.0
  9
$UCSYDIR
 10
0.0
 20
1.0
 30
0.0
  9
$PUCSNAME
  2

  9
$PUCSORG
 10
0.0
 20
0.0
 30
0.0
  9
$PUCSXDIR
 10
1.0
 20
0.0
 30
0.0
  9
$PUCSYDIR
 10
0.0
 20
1.0
 30
0.0
  9
$USERI1
 70
     0
  9
$USERI2
 70
     0
  9
$USERI3
 70
     0
  9
$USERI4
 70
     0
  9
$USERI5
 70
     0
  9
$USERR1
 40
0.0
  9
$USERR2
 40
0.0
  9
$USERR3
 40
0.0
  9
$USERR4
 40
0.0
  9
$USERR5
 40
0.0
  9
$WORLDVIEW
 70
     1
  9
$SHADEDGE
 70
     3
  9
$SHADEDIF
 70
    70
  9
$TILEMODE
 70
     1
  9
$MAXACTVP
 70
    16
  9
$PINSBASE
 10
0.0
 20
0.0
 30
0.0
  9
$PLIMCHECK
 70
     0
  9
$PEXTMIN
 10
1.000000E+20
 20
1.000000E+20
 30
1.000000E+20
  9
$PEXTMAX
 10
-1.000000E+20
 20
-1.000000E+20
 30
-1.000000E+20
  9
$PLIMMIN
 10
0.0
 20
0.0
  9
$PLIMMAX
 10
12.0
 20
9.0
  9
$UNITMODE
 70
     0
  9
$VISRETAIN
 70
     0
  9
$PLINEGEN
 70
     0
  9
$PSLTSCALE
 70
     0
  9
$TREEDEPTH
 70
  3020
  9
$DWGCODEPAGE
  3
undefined
  0
ENDSEC
  0
SECTION
  2
TABLES
  0
TABLE
  2
VPORT
 70
     2
  0
VPORT
  2
*ACTIVE
 70
     0
 10
0.0
 20
0.0
 11
1.0
 21
1.0
 12
4.200642
 22
-2.500648
 13
0.0
 23
0.0
 14
1.0
 24
1.0
 15
0.0
 25
0.0
 16
1.0
 26
0.6
 36
1.0
 17
0.0
 27
0.0
 37
0.0
 40
11.074298
 41
1.594883
 42
50.0
 43
0.0
 44
0.0
 50
0.0
 51
0.0
 71
     0
 72
   100
 73
     1
 74
     1
 75
     0
 76
     0
 77
     0
 78
     0
  0
ENDTAB
  0
TABLE
  2
LTYPE
 70
     1
  0
LTYPE
  2
CONTINUOUS
 70
    64
  3
Solid line
 72
    65
 73
     0
 40
0.0
  0
ENDTAB
  0
TABLE
  2
LAYER
 70
     2
  0
LAYER
  2
0
 70
    64
 62
     7
  6
CONTINUOUS
  0
LAYER
  2
AME_FRZ
 70
    65
 62
     7
  6
CONTINUOUS
  0
ENDTAB
  0
TABLE
  2
STYLE
 70
     1
  0
STYLE
  2
STANDARD
 70
     0
 40
0.0
 41
1.0
 50
0.0
 71
     0
 42
0.2
  3
txt
  4

  0
ENDTAB
  0
TABLE
  2
VIEW
 70
     0
  0
ENDTAB
  0
TABLE
  2
UCS
 70
     0
  0
ENDTAB
  0
TABLE
  2
APPID
 70
     2
  0
APPID
  2
ACAD
 70
    64
  0
APPID
  2
AME_SOL
 70
    64
  0
ENDTAB
  0
TABLE
  2
DIMSTYLE
 70
     0
  0
ENDTAB
  0
ENDSEC
  0
SECTION
  2
BLOCKS
  0
BLOCK
  8
0
  5
1
  2
AME_NIL
 70
    64
 10
0.0
 20
0.0
 30
0.0
  1
AME_NIL
  3
AME_NIL
  0
ENDBLK
  8
0
  5
2
  0
BLOCK
  8
0
  5
4
  2
AME_SOL
 70
    64
 10
0.0
 20
0.0
 30
0.0
  1
AME_SOL
  3
AME_SOL
  0
ENDBLK
  8
0
  5
5
  0
BLOCK
  8
0
  5
7
  2
*U2
 70
    65
 10
0.0
 20
0.0
 30
0.0
  1
*U
  3
*U
  0
LINE
  8
0
 62
     0
  5
8
 10
9.0
 20
9.0
 30
0.0
 11
9.0
 21
9.0
 31
4.0
1001
AME_SOL
1070
     1
1071
       18
  0
LINE
  8
0
 62
     0
  5
9
 10
9.0
 20
9.0
 30
4.0
 11
9.0
 21
0.0
 31
4.0
1001
AME_SOL
1070
     1
1071
       17
  0
LINE
  8
0
 62
     0
  5
A
 10
0.0
 20
9.0
 30
4.0
 11
9.0
 21
9.0
 31
4.0
1001
AME_SOL
1070
     1
1071
       16
  0
LINE
  8
0
 62
     0
  5
B
 10
0.0
 20
9.0
 30
0.0
 11
0.0
 21
9.0
 31
4.0
1001
AME_SOL
1070
     1
1071
       15
  0
LINE
  8
0
 62
     0
  5
C
 10
0.0
 20
9.0
 30
4.0
 11
0.0
 21
0.0
 31
4.0
1001
AME_SOL
1070
     1
1071
       14
  0
LINE
  8
0
 62
     0
  5
D
 10
0.0
 20
0.0
 30
0.0
 11
0.0
 21
0.0
 31
4.0
1001
AME_SOL
1070
     1
1071
       13
  0
LINE
  8
0
 62
     0
  5
E
 10
9.0
 20
0.0
 30
4.0
 11
9.0
 21
0.0
 31
0.0
1001
AME_SOL
1070
     1
1071
       12
  0
LINE
  8
0
 62
     0
  5
F
 10
0.0
 20
0.0
 30
4.0
 11
9.0
 21
0.0
 31
4.0
1001
AME_SOL
1070
     1
1071
       11
  0
LINE
  8
0
 62
     0
  5
10
 10
0.0
 20
0.0
 30
0.0
 11
9.0
 21
0.0
 31
0.0
1001
AME_SOL
1070
     1
1071
       10
  0
LINE
  8
0
 62
     0
  5
11
 10
0.0
 20
9.0
 30
0.0
 11
0.0
 21
0.0
 31
0.0
1001
AME_SOL
1070
     1
1071
        9
  0
LINE
  8
0
 62
     0
  5
12
 10
9.0
 20
0.0
 30
0.0
 11
9.0
 21
9.0
 31
0.0
1001
AME_SOL
1070
     1
1071
        8
  0
LINE
  8
0
 62
     0
  5
13
 10
9.0
 20
9.0
 30
0.0
 11
0.0
 21
9.0
 31
0.0
1001
AME_SOL
1070
     1
1071
        7
  0
ENDBLK
  8
0
  5
14
  0
BLOCK
  8
0
  5
18
  2
*U3
 70
    65
 10
0.0
 20
0.0
 30
0.0
  1
*U
  3
*U
  0
LINE
  8
0
 62
     0
  5
19
 10
3.0
 20
3.0
 30
0.0
 11
3.0
 21
3.0
 31
4.0
1001
AME_SOL
1070
     1
1071
       18
  0
LINE
  8
0
 62
     0
  5
1A
 10
3.0
 20
3.0
 30
4.0
 11
3.0
 21
0.0
 31
4.0
1001
AME_SOL
1070
     1
1071
       17
  0
LINE
  8
0
 62
     0
  5
1B
 10
0.0
 20
3.0
 30
4.0
 11
3.0
 21
3.0
 31
4.0
1001
AME_SOL
1070
     1
1071
       16
  0
LINE
  8
0
 62
     0
  5
1C
 10
0.0
 20
3.0
 30
0.0
 11
0.0
 21
3.0
 31
4.0
1001
AME_SOL
1070
     1
1071
       15
  0
LINE
  8
0
 62
     0
  5
1D
 10
0.0
 20
3.0
 30
4.0
 11
0.0
 21
0.0
 31
4.0
1001
AME_SOL
1070
     1
1071
       14
  0
LINE
  8
0
 62
     0
  5
1E
 10
0.0
 20
0.0
 30
0.0
 11
0.0
 21
0.0
 31
4.0
1001
AME_SOL
1070
     1
1071
       13
  0
LINE
  8
0
 62
     0
  5
1F
 10
3.0
 20
0.0
 30
4.0
 11
3.0
 21
0.0
 31
0.0
1001
AME_SOL
1070
     1
1071
       12
  0
LINE
  8
0
 62
     0
  5
20
 10
0.0
 20
0.0
 30
4.0
 11
3.0
 21
0.0
 31
4.0
1001
AME_SOL
1070
     1
1071
       11
  0
LINE
  8
0
 62
     0
  5
21
 10
0.0
 20
0.0
 30
0.0
 11
3.0
 21
0.0
 31
0.0
1001
AME_SOL
1070
     1
1071
       10
  0
LINE
  8
0
 62
     0
  5
22
 10
0.0
 20
3.0
 30
0.0
 11
0.0
 21
0.0
 31
0.0
1001
AME_SOL
1070
     1
1071
        9
  0
LINE
  8
0
 62
     0
  5
23
 10
3.0
 20
0.0
 30
0.0
 11
3.0
 21
3.0
 31
0.0
1001
AME_SOL
1070
     1
1071
        8
  0
LINE
  8
0
 62
     0
  5
24
 10
3.0
 20
3.0
 30
0.0
 11
0.0
 21
3.0
 31
0.0
1001
AME_SOL
1070
     1
1071
        7
  0
ENDBLK
  8
0
  5
25
  0
BLOCK
  8
0
  5
29
  2
*U4
 70
    65
 10
0.0
 20
0.0
 30
0.0
  1
*U
  3
*U
  0
LINE
  8
0
 62
     0
  5
2A
 10
2.0
 20
2.0
 30
0.0
 11
2.0
 21
2.0
 31
4.0
1001
AME_SOL
1070
     1
1071
       18
  0
LINE
  8
0
 62
     0
  5
2B
 10
2.0
 20
2.0
 30
4.0
 11
2.0
 21
0.0
 31
4.0
1001
AME_SOL
1070
     1
1071
       17
  0
LINE
  8
0
 62
     0
  5
2C
 10
0.0
 20
2.0
 30
4.0
 11
2.0
 21
2.0
 31
4.0
1001
AME_SOL
1070
     1
1071
       16
  0
LINE
  8
0
 62
     0
  5
2D
 10
0.0
 20
2.0
 30
0.0
 11
0.0
 21
2.0
 31
4.0
1001
AME_SOL
1070
     1
1071
       15
  0
LINE
  8
0
 62
     0
  5
2E
 10
0.0
 20
2.0
 30
4.0
 11
0.0
 21
0.0
 31
4.0
1001
AME_SOL
1070
     1
1071
       14
  0
LINE
  8
0
 62
     0
  5
2F
 10
0.0
 20
0.0
 30
0.0
 11
0.0
 21
0.0
 31
4.0
1001
AME_SOL
1070
     1
1071
       13
  0
LINE
  8
0
 62
     0
  5
30
 10
2.0
 20
0.0
 30
4.0
 11
2.0
 21
0.0
 31
0.0
1001
AME_SOL
1070
     1
1071
       12
  0
LINE
  8
0
 62
     0
  5
31
 10
0.0
 20
0.0
 30
4.0
 11
2.0
 21
0.0
 31
4.0
1001
AME_SOL
1070
     1
1071
       11
  0
LINE
  8
0
 62
     0
  5
32
 10
0.0
 20
0.0
 30
0.0
 11
2.0
 21
0.0
 31
0.0
1001
AME_SOL
1070
     1
1071
       10
  0
LINE
  8
0
 62
     0
  5
33
 10
0.0
 20
2.0
 30
0.0
 11
0.0
 21
0.0
 31
0.0
1001
AME_SOL
1070
     1
1071
        9
  0
LINE
  8
0
 62
     0
  5
34
 10
2.0
 20
0.0
 30
0.0
 11
2.0
 21
2.0
 31
0.0
1001
AME_SOL
1070
     1
1071
        8
  0
LINE
  8
0
 62
     0
  5
35
 10
2.0
 20
2.0
 30
0.0
 11
0.0
 21
2.0
 31
0.0
1001
AME_SOL
1070
     1
1071
        7
  0
ENDBLK
  8
0
  5
36
  0
BLOCK
  8
0
  5
3A
  2
*U5
 70
    65
 10
0.0
 20
0.0
 30
0.0
  1
*U
  3
*U
  0
LINE
  8
0
 62
     0
  5
3B
 10
2.0
 20
2.0
 30
0.0
 11
2.0
 21
2.0
 31
4.0
1001
AME_SOL
1070
     1
1071
       18
  0
LINE
  8
0
 62
     0
  5
3C
 10
2.0
 20
2.0
 30
4.0
 11
2.0
 21
0.0
 31
4.0
1001
AME_SOL
1070
     1
1071
       17
  0
LINE
  8
0
 62
     0
  5
3D
 10
0.0
 20
2.0
 30
4.0
 11
2.0
 21
2.0
 31
4.0
1001
AME_SOL
1070
     1
1071
       16
  0
LINE
  8
0
 62
     0
  5
3E
 10
0.0
 20
2.0
 30
0.0
 11
0.0
 21
2.0
 31
4.0
1001
AME_SOL
1070
     1
1071
       15
  0
LINE
  8
0
 62
     0
  5
3F
 10
0.0
 20
2.0
 30
4.0
 11
0.0
 21
0.0
 31
4.0
1001
AME_SOL
1070
     1
1071
       14
  0
LINE
  8
0
 62
     0
  5
40
 10
0.0
 20
0.0
 30
0.0
 11
0.0
 21
0.0
 31
4.0
1001
AME_SOL
1070
     1
1071
       13
  0
LINE
  8
0
 62
     0
  5
41
 10
2.0
 20
0.0
 30
4.0
 11
2.0
 21
0.0
 31
0.0
1001
AME_SOL
1070
     1
1071
       12
  0
LINE
  8
0
 62
     0
  5
42
 10
0.0
 20
0.0
 30
4.0
 11
2.0
 21
0.0
 31
4.0
1001
AME_SOL
1070
     1
1071
       11
  0
LINE
  8
0
 62
     0
  5
43
 10
0.0
 20
0.0
 30
0.0
 11
2.0
 21
0.0
 31
0.0
1001
AME_SOL
1070
     1
1071
       10
  0
LINE
  8
0
 62
     0
  5
44
 10
0.0
 20
2.0
 30
0.0
 11
0.0
 21
0.0
 31
0.0
1001
AME_SOL
1070
     1
1071
        9
  0
LINE
  8
0
 62
     0
  5
45
 10
2.0
 20
0.0
 30
0.0
 11
2.0
 21
2.0
 31
0.0
1001
AME_SOL
1070
     1
1071
        8
  0
LINE
  8
0
 62
     0
  5
46
 10
2.0
 20
2.0
 30
0.0
 11
0.0
 21
2.0
 31
0.0
1001
AME_SOL
1070
     1
1071
        7
  0
ENDBLK
  8
0
  5
47
  0
BLOCK
  8
0
  5
4B
  2
*U6
 70
    65
 10
0.0
 20
0.0
 30
0.0
  1
*U
  3
*U
  0
LINE
  8
0
 62
     0
  5
4C
 10
3.0
 20
3.0
 30
0.0
 11
3.0
 21
3.0
 31
4.0
1001
AME_SOL
1070
     1
1071
       18
  0
LINE
  8
0
 62
     0
  5
4D
 10
3.0
 20
3.0
 30
4.0
 11
3.0
 21
0.0
 31
4.0
1001
AME_SOL
1070
     1
1071
       17
  0
LINE
  8
0
 62
     0
  5
4E
 10
0.0
 20
3.0
 30
4.0
 11
3.0
 21
3.0
 31
4.0
1001
AME_SOL
1070
     1
1071
       16
  0
LINE
  8
0
 62
     0
  5
4F
 10
0.0
 20
3.0
 30
0.0
 11
0.0
 21
3.0
 31
4.0
1001
AME_SOL
1070
     1
1071
       15
  0
LINE
  8
0
 62
     0
  5
50
 10
0.0
 20
3.0
 30
4.0
 11
0.0
 21
0.0
 31
4.0
1001
AME_SOL
1070
     1
1071
       14
  0
LINE
  8
0
 62
     0
  5
51
 10
0.0
 20
0.0
 30
0.0
 11
0.0
 21
0.0
 31
4.0
1001
AME_SOL
1070
     1
1071
       13
  0
LINE
  8
0
 62
     0
  5
52
 10
3.0
 20
0.0
 30
4.0
 11
3.0
 21
0.0
 31
0.0
1001
AME_SOL
1070
     1
1071
       12
  0
LINE
  8
0
 62
     0
  5
53
 10
0.0
 20
0.0
 30
4.0
 11
3.0
 21
0.0
 31
4.0
1001
AME_SOL
1070
     1
1071
       11
  0
LINE
  8
0
 62
     0
  5
54
 10
0.0
 20
0.0
 30
0.0
 11
3.0
 21
0.0
 31
0.0
1001
AME_SOL
1070
     1
1071
       10
  0
LINE
  8
0
 62
     0
  5
55
 10
0.0
 20
3.0
 30
0.0
 11
0.0
 21
0.0
 31
0.0
1001
AME_SOL
1070
     1
1071
        9
  0
LINE
  8
0
 62
     0
  5
56
 10
3.0
 20
0.0
 30
0.0
 11
3.0
 21
3.0
 31
0.0
1001
AME_SOL
1070
     1
1071
        8
  0
LINE
  8
0
 62
     0
  5
57
 10
3.0
 20
3.0
 30
0.0
 11
0.0
 21
3.0
 31
0.0
1001
AME_SOL
1070
     1
1071
        7
  0
ENDBLK
  8
0
  5
58
  0
BLOCK
  8
0
  5
5C
  2
*U7
 70
    65
 10
0.0
 20
0.0
 30
0.0
  1
*U
  3
*U
  0
LINE
  8
0
 62
     0
  5
5D
 10
3.0
 20
3.0
 30
0.0
 11
3.0
 21
3.0
 31
4.0
1001
AME_SOL
1070
     1
1071
       18
  0
LINE
  8
0
 62
     0
  5
5E
 10
3.0
 20
3.0
 30
4.0
 11
3.0
 21
0.0
 31
4.0
1001
AME_SOL
1070
     1
1071
       17
  0
LINE
  8
0
 62
     0
  5
5F
 10
0.0
 20
3.0
 30
4.0
 11
3.0
 21
3.0
 31
4.0
1001
AME_SOL
1070
     1
1071
       16
  0
LINE
  8
0
 62
     0
  5
60
 10
0.0
 20
3.0
 30
0.0
 11
0.0
 21
3.0
 31
4.0
1001
AME_SOL
1070
     1
1071
       15
  0
LINE
  8
0
 62
     0
  5
61
 10
0.0
 20
3.0
 30
4.0
 11
0.0
 21
0.0
 31
4.0
1001
AME_SOL
1070
     1
1071
       14
  0
LINE
  8
0
 62
     0
  5
62
 10
0.0
 20
0.0
 30
0.0
 11
0.0
 21
0.0
 31
4.0
1001
AME_SOL
1070
     1
1071
       13
  0
LINE
  8
0
 62
     0
  5
63
 10
3.0
 20
0.0
 30
4.0
 11
3.0
 21
0.0
 31
0.0
1001
AME_SOL
1070
     1
1071
       12
  0
LINE
  8
0
 62
     0
  5
64
 10
0.0
 20
0.0
 30
4.0
 11
3.0
 21
0.0
 31
4.0
1001
AME_SOL
1070
     1
1071
       11
  0
LINE
  8
0
 62
     0
  5
65
 10
0.0
 20
0.0
 30
0.0
 11
3.0
 21
0.0
 31
0.0
1001
AME_SOL
1070
     1
1071
       10
  0
LINE
  8
0
 62
     0
  5
66
 10
0.0
 20
3.0
 30
0.0
 11
0.0
 21
0.0
 31
0.0
1001
AME_SOL
1070
     1
1071
        9
  0
LINE
  8
0
 62
     0
  5
67
 10
3.0
 20
0.0
 30
0.0
 11
3.0
 21
3.0
 31
0.0
1001
AME_SOL
1070
     1
1071
        8
  0
LINE
  8
0
 62
     0
  5
68
 10
3.0
 20
3.0
 30
0.0
 11
0.0
 21
3.0
 31
0.0
1001
AME_SOL
1070
     1
1071
        7
  0
ENDBLK
  8
0
  5
69
  0
BLOCK
  8
0
  5
72
  2
*U8
 70
    65
 10
0.0
 20
0.0
 30
0.0
  1
*U
  3
*U
  0
LINE
  8
0
 62
     7
  5
73
 10
9.0
 20
9.0
 30
0.0
 11
9.0
 21
9.0
 31
4.0
1001
AME_SOL
1070
     1
1071
       94
  0
LINE
  8
0
 62
     7
  5
74
 10
9.0
 20
9.0
 30
4.0
 11
9.0
 21
0.0
 31
4.0
1001
AME_SOL
1070
     1
1071
       93
  0
LINE
  8
0
 62
     7
  5
75
 10
0.0
 20
9.0
 30
4.0
 11
9.0
 21
9.0
 31
4.0
1001
AME_SOL
1070
     1
1071
       92
  0
LINE
  8
0
 62
     7
  5
76
 10
0.0
 20
9.0
 30
0.0
 11
0.0
 21
9.0
 31
4.0
1001
AME_SOL
1070
     1
1071
       91
  0
LINE
  8
0
 62
     7
  5
77
 10
0.0
 20
9.0
 30
4.0
 11
0.0
 21
0.0
 31
4.0
1001
AME_SOL
1070
     1
1071
       90
  0
LINE
  8
0
 62
     7
  5
78
 10
0.0
 20
0.0
 30
0.0
 11
0.0
 21
0.0
 31
4.0
1001
AME_SOL
1070
     1
1071
       89
  0
LINE
  8
0
 62
     7
  5
79
 10
9.0
 20
0.0
 30
4.0
 11
9.0
 21
0.0
 31
0.0
1001
AME_SOL
1070
     1
1071
       88
  0
LINE
  8
0
 62
     7
  5
7A
 10
0.0
 20
0.0
 30
4.0
 11
9.0
 21
0.0
 31
4.0
1001
AME_SOL
1070
     1
1071
       87
  0
LINE
  8
0
 62
     7
  5
7B
 10
0.0
 20
0.0
 30
0.0
 11
9.0
 21
0.0
 31
0.0
1001
AME_SOL
1070
     1
1071
       86
  0
LINE
  8
0
 62
     7
  5
7C
 10
0.0
 20
9.0
 30
0.0
 11
0.0
 21
0.0
 31
0.0
1001
AME_SOL
1070
     1
1071
       85
  0
LINE
  8
0
 62
     7
  5
7D
 10
9.0
 20
0.0
 30
0.0
 11
9.0
 21
9.0
 31
0.0
1001
AME_SOL
1070
     1
1071
       84
  0
LINE
  8
0
 62
     7
  5
7E
 10
9.0
 20
9.0
 30
0.0
 11
0.0
 21
9.0
 31
0.0
1001
AME_SOL
1070
     1
1071
       83
  0
LINE
  8
0
 62
     7
  5
7F
 10
4.0
 20
3.0
 30
0.0
 11
4.0
 21
1.0
 31
0.0
1001
AME_SOL
1070
     1
1071
       82
  0
LINE
  8
0
 62
     7
  5
80
 10
4.0
 20
7.0
 30
0.0
 11
4.0
 21
6.0
 31
0.0
1001
AME_SOL
1070
     1
1071
       81
  0
LINE
  8
0
 62
     7
  5
81
 10
4.0
 20
6.0
 30
4.0
 11
4.0
 21
7.0
 31
4.0
1001
AME_SOL
1070
     1
1071
       80
  0
LINE
  8
0
 62
     7
  5
82
 10
4.0
 20
1.0
 30
4.0
 11
4.0
 21
3.0
 31
4.0
1001
AME_SOL
1070
     1
1071
       79
  0
LINE
  8
0
 62
     7
  5
83
 10
6.0
 20
4.0
 30
0.0
 11
7.0
 21
4.0
 31
0.0
1001
AME_SOL
1070
     1
1071
       78
  0
LINE
  8
0
 62
     7
  5
84
 10
1.0
 20
4.0
 30
0.0
 11
3.0
 21
4.0
 31
0.0
1001
AME_SOL
1070
     1
1071
       77
  0
LINE
  8
0
 62
     7
  5
85
 10
3.0
 20
4.0
 30
4.0
 11
1.0
 21
4.0
 31
4.0
1001
AME_SOL
1070
     1
1071
       76
  0
LINE
  8
0
 62
     7
  5
86
 10
7.0
 20
4.0
 30
4.0
 11
6.0
 21
4.0
 31
4.0
1001
AME_SOL
1070
     1
1071
       75
  0
LINE
  8
0
 62
     7
  5
87
 10
1.0
 20
1.0
 30
0.0
 11
1.0
 21
4.0
 31
0.0
1001
AME_SOL
1070
     1
1071
       74
  0
LINE
  8
0
 62
     7
  5
88
 10
1.0
 20
4.0
 30
4.0
 11
1.0
 21
1.0
 31
4.0
1001
AME_SOL
1070
     1
1071
       73
  0
LINE
  8
0
 62
     7
  5
89
 10
1.0
 20
4.0
 30
0.0
 11
1.0
 21
4.0
 31
4.0
1001
AME_SOL
1070
     1
1071
       72
  0
LINE
  8
0
 62
     7
  5
8A
 10
4.0
 20
1.0
 30
0.0
 11
1.0
 21
1.0
 31
0.0
1001
AME_SOL
1070
     1
1071
       71
  0
LINE
  8
0
 62
     7
  5
8B
 10
1.0
 20
1.0
 30
0.0
 11
1.0
 21
1.0
 31
4.0
1001
AME_SOL
1070
     1
1071
       70
  0
LINE
  8
0
 62
     7
  5
8C
 10
1.0
 20
1.0
 30
4.0
 11
4.0
 21
1.0
 31
4.0
1001
AME_SOL
1070
     1
1071
       69
  0
LINE
  8
0
 62
     7
  5
8D
 10
4.0
 20
1.0
 30
4.0
 11
4.0
 21
1.0
 31
0.0
1001
AME_SOL
1070
     1
1071
       68
  0
LINE
  8
0
 62
     7
  5
8E
 10
6.0
 20
5.0
 30
0.0
 11
6.0
 21
4.0
 31
0.0
1001
AME_SOL
1070
     1
1071
       67
  0
LINE
  8
0
 62
     7
  5
8F
 10
6.0
 20
4.0
 30
4.0
 11
6.0
 21
4.0
 31
0.0
1001
AME_SOL
1070
     1
1071
       66
  0
LINE
  8
0
 62
     7
  5
90
 10
6.0
 20
4.0
 30
4.0
 11
6.0
 21
5.0
 31
4.0
1001
AME_SOL
1070
     1
1071
       65
  0
LINE
  8
0
 62
     7
  5
91
 10
4.0
 20
6.0
 30
0.0
 11
5.0
 21
6.0
 31
0.0
1001
AME_SOL
1070
     1
1071
       64
  0
LINE
  8
0
 62
     7
  5
92
 10
4.0
 20
6.0
 30
0.0
 11
4.0
 21
6.0
 31
4.0
1001
AME_SOL
1070
     1
1071
       63
  0
LINE
  8
0
 62
     7
  5
93
 10
5.0
 20
6.0
 30
4.0
 11
4.0
 21
6.0
 31
4.0
1001
AME_SOL
1070
     1
1071
       62
  0
LINE
  8
0
 62
     7
  5
94
 10
3.0
 20
4.0
 30
0.0
 11
3.0
 21
5.0
 31
0.0
1001
AME_SOL
1070
     1
1071
       61
  0
LINE
  8
0
 62
     7
  5
95
 10
3.0
 20
4.0
 30
0.0
 11
3.0
 21
4.0
 31
4.0
1001
AME_SOL
1070
     1
1071
       60
  0
LINE
  8
0
 62
     7
  5
96
 10
3.0
 20
5.0
 30
4.0
 11
3.0
 21
4.0
 31
4.0
1001
AME_SOL
1070
     1
1071
       59
  0
LINE
  8
0
 62
     7
  5
97
 10
5.0
 20
3.0
 30
0.0
 11
4.0
 21
3.0
 31
0.0
1001
AME_SOL
1070
     1
1071
       58
  0
LINE
  8
0
 62
     7
  5
98
 10
4.0
 20
3.0
 30
4.0
 11
4.0
 21
3.0
 31
0.0
1001
AME_SOL
1070
     1
1071
       57
  0
LINE
  8
0
 62
     7
  5
99
 10
4.0
 20
3.0
 30
4.0
 11
5.0
 21
3.0
 31
4.0
1001
AME_SOL
1070
     1
1071
       56
  0
LINE
  8
0
 62
     7
  5
9A
 10
2.0
 20
7.0
 30
0.0
 11
4.0
 21
7.0
 31
0.0
1001
AME_SOL
1070
     1
1071
       55
  0
LINE
  8
0
 62
     7
  5
9B
 10
4.0
 20
7.0
 30
4.0
 11
2.0
 21
7.0
 31
4.0
1001
AME_SOL
1070
     1
1071
       54
  0
LINE
  8
0
 62
     7
  5
9C
 10
4.0
 20
7.0
 30
0.0
 11
4.0
 21
7.0
 31
4.0
1001
AME_SOL
1070
     1
1071
       53
  0
LINE
  8
0
 62
     7
  5
9D
 10
2.0
 20
5.0
 30
0.0
 11
2.0
 21
7.0
 31
0.0
1001
AME_SOL
1070
     1
1071
       52
  0
LINE
  8
0
 62
     7
  5
9E
 10
2.0
 20
7.0
 30
4.0
 11
2.0
 21
5.0
 31
4.0
1001
AME_SOL
1070
     1
1071
       51
  0
LINE
  8
0
 62
     7
  5
9F
 10
2.0
 20
7.0
 30
0.0
 11
2.0
 21
7.0
 31
4.0
1001
AME_SOL
1070
     1
1071
       50
  0
LINE
  8
0
 62
     7
  5
A0
 10
3.0
 20
5.0
 30
0.0
 11
2.0
 21
5.0
 31
0.0
1001
AME_SOL
1070
     1
1071
       49
  0
LINE
  8
0
 62
     7
  5
A1
 10
8.0
 20
5.0
 30
0.0
 11
6.0
 21
5.0
 31
0.0
1001
AME_SOL
1070
     1
1071
       48
  0
LINE
  8
0
 62
     7
  5
A2
 10
2.0
 20
5.0
 30
0.0
 11
2.0
 21
5.0
 31
4.0
1001
AME_SOL
1070
     1
1071
       47
  0
LINE
  8
0
 62
     7
  5
A3
 10
3.0
 20
5.0
 30
0.0
 11
3.0
 21
5.0
 31
4.0
1001
AME_SOL
1070
     1
1071
       46
  0
LINE
  8
0
 62
     7
  5
A4
 10
6.0
 20
5.0
 30
4.0
 11
8.000001
 21
5.0
 31
4.0
1001
AME_SOL
1070
     1
1071
       45
  0
LINE
  8
0
 62
     7
  5
A5
 10
2.0
 20
5.0
 30
4.0
 11
3.0
 21
5.0
 31
4.0
1001
AME_SOL
1070
     1
1071
       44
  0
LINE
  8
0
 62
     7
  5
A6
 10
6.0
 20
5.0
 30
4.0
 11
6.0
 21
5.0
 31
0.0
1001
AME_SOL
1070
     1
1071
       43
  0
LINE
  8
0
 62
     7
  5
A7
 10
8.000001
 20
8.000001
 30
0.0
 11
8.000001
 21
5.0
 31
0.0
1001
AME_SOL
1070
     1
1071
       42
  0
LINE
  8
0
 62
     7
  5
A8
 10
8.000001
 20
5.0
 30
0.0
 11
8.000001
 21
5.0
 31
4.0
1001
AME_SOL
1070
     1
1071
       41
  0
LINE
  8
0
 62
     7
  5
A9
 10
8.000001
 20
5.0
 30
4.0
 11
8.000001
 21
8.0
 31
4.0
1001
AME_SOL
1070
     1
1071
       40
  0
LINE
  8
0
 62
     7
  5
AA
 10
5.0
 20
8.000001
 30
0.0
 11
8.000001
 21
8.000001
 31
0.0
1001
AME_SOL
1070
     1
1071
       39
  0
LINE
  8
0
 62
     7
  5
AB
 10
8.0
 20
8.000001
 30
4.0
 11
5.0
 21
8.000001
 31
4.0
1001
AME_SOL
1070
     1
1071
       38
  0
LINE
  8
0
 62
     7
  5
AC
 10
8.000001
 20
8.000001
 30
0.0
 11
8.000001
 21
8.000001
 31
4.0
1001
AME_SOL
1070
     1
1071
       37
  0
LINE
  8
0
 62
     7
  5
AD
 10
5.0
 20
6.0
 30
0.0
 11
5.0
 21
8.0
 31
0.0
1001
AME_SOL
1070
     1
1071
       36
  0
LINE
  8
0
 62
     7
  5
AE
 10
5.0
 20
2.0
 30
0.0
 11
5.0
 21
3.0
 31
0.0
1001
AME_SOL
1070
     1
1071
       35
  0
LINE
  8
0
 62
     7
  5
AF
 10
5.0
 20
3.0
 30
4.0
 11
5.0
 21
3.0
 31
0.0
1001
AME_SOL
1070
     1
1071
       34
  0
LINE
  8
0
 62
     7
  5
B0
 10
5.0
 20
3.0
 30
4.0
 11
5.0
 21
2.0
 31
4.0
1001
AME_SOL
1070
     1
1071
       33
  0
LINE
  8
0
 62
     7
  5
B1
 10
5.0
 20
8.0
 30
4.0
 11
5.0
 21
6.0
 31
4.0
1001
AME_SOL
1070
     1
1071
       32
  0
LINE
  8
0
 62
     7
  5
B2
 10
5.0
 20
6.0
 30
0.0
 11
5.0
 21
6.0
 31
4.0
1001
AME_SOL
1070
     1
1071
       31
  0
LINE
  8
0
 62
     7
  5
B3
 10
5.0
 20
8.000001
 30
0.0
 11
5.0
 21
8.000001
 31
4.0
1001
AME_SOL
1070
     1
1071
       30
  0
LINE
  8
0
 62
     7
  5
B4
 10
7.0
 20
4.0
 30
0.0
 11
7.0
 21
2.0
 31
0.0
1001
AME_SOL
1070
     1
1071
       29
  0
LINE
  8
0
 62
     7
  5
B5
 10
7.0
 20
2.0
 30
4.0
 11
7.0
 21
4.0
 31
4.0
1001
AME_SOL
1070
     1
1071
       28
  0
LINE
  8
0
 62
     7
  5
B6
 10
7.0
 20
4.0
 30
4.0
 11
7.0
 21
4.0
 31
0.0
1001
AME_SOL
1070
     1
1071
       27
  0
LINE
  8
0
 62
     7
  5
B7
 10
7.0
 20
2.0
 30
0.0
 11
5.0
 21
2.0
 31
0.0
1001
AME_SOL
1070
     1
1071
       26
  0
LINE
  8
0
 62
     7
  5
B8
 10
5.0
 20
2.0
 30
0.0
 11
5.0
 21
2.0
 31
4.0
1001
AME_SOL
1070
     1
1071
       25
  0
LINE
  8
0
 62
     7
  5
B9
 10
5.0
 20
2.0
 30
4.0
 11
7.0
 21
2.0
 31
4.0
1001
AME_SOL
1070
     1
1071
       24
  0
LINE
  8
0
 62
     7
  5
BA
 10
7.0
 20
2.0
 30
4.0
 11
7.0
 21
2.0
 31
0.0
1001
AME_SOL
1070
     1
1071
       23
  0
ENDBLK
  8
0
  5
BB
  0
BLOCK
  8
0
  5
C0
  2
*U9
 70
    65
 10
0.0
 20
0.0
 30
0.0
  1
*U
  3
*U
  0
POLYLINE
  8
0
 62
     7
  5
C1
 66
     1
 10
0.0
 20
0.0
 30
0.0
 70
    64
  0
VERTEX
  8
0
  5
C2
 10
9.0
 20
9.0
 30
0.0
 70
   192
  0
VERTEX
  8
0
  5
C3
 10
9.0
 20
0.0
 30
4.0
 70
   192
  0
VERTEX
  8
0
  5
C4
 10
9.0
 20
0.0
 30
0.0
 70
   192
  0
VERTEX
  8
0
  5
C5
 10
9.0
 20
9.0
 30
4.0
 70
   192
  0
VERTEX
  8
0
 62
     7
  5
C6
 10
0.0
 20
0.0
 30
0.0
 70
   128
 71
    -1
 72
     2
 73
     3
  0
VERTEX
  8
0
 62
     7
  5
C7
 10
0.0
 20
0.0
 30
0.0
 70
   128
 71
     1
 72
     4
 73
    -2
  0
SEQEND
  8
0
 62
     7
  5
C8
  0
POLYLINE
  8
0
 62
     7
  5
C9
 66
     1
 10
0.0
 20
0.0
 30
0.0
 70
    64
  0
VERTEX
  8
0
  5
CA
 10
0.0
 20
9.0
 30
4.0
 70
   192
  0
VERTEX
  8
0
  5
CB
 10
9.0
 20
9.0
 30
4.0
 70
   192
  0
VERTEX
  8
0
  5
CC
 10
9.0
 20
9.0
 30
0.0
 70
   192
  0
VERTEX
  8
0
  5
CD
 10
0.0
 20
9.0
 30
0.0
 70
   192
  0
VERTEX
  8
0
 62
     7
  5
CE
 10
0.0
 20
0.0
 30
0.0
 70
   128
 71
     1
 72
     2
 73
    -3
  0
VERTEX
  8
0
 62
     7
  5
CF
 10
0.0
 20
0.0
 30
0.0
 70
   128
 71
     3
 72
     4
 73
    -1
  0
SEQEND
  8
0
 62
     7
  5
D0
  0
POLYLINE
  8
0
 62
     7
  5
D1
 66
     1
 10
0.0
 20
0.0
 30
0.0
 70
    64
  0
VERTEX
  8
0
  5
D2
 10
1.0
 20
4.0
 30
4.0
 70
   192
  0
VERTEX
  8
0
  5
D3
 10
2.0
 20
7.0
 30
4.0
 70
   192
  0
VERTEX
  8
0
  5
D4
 10
0.0
 20
9.0
 30
4.0
 70
   192
  0
VERTEX
  8
0
  5
D5
 10
0.0
 20
0.0
 30
4.0
 70
   192
  0
VERTEX
  8
0
  5
D6
 10
5.0
 20
8.000001
 30
4.0
 70
   192
  0
VERTEX
  8
0
  5
D7
 10
9.0
 20
9.0
 30
4.0
 70
   192
  0
VERTEX
  8
0
  5
D8
 10
1.0
 20
1.0
 30
4.0
 70
   192
  0
VERTEX
  8
0
  5
D9
 10
4.0
 20
1.0
 30
4.0
 70
   192
  0
VERTEX
  8
0
  5
DA
 10
8.000001
 20
8.000001
 30
4.0
 70
   192
  0
VERTEX
  8
0
  5
DB
 10
9.0
 20
0.0
 30
4.0
 70
   192
  0
VERTEX
  8
0
  5
DC
 10
8.000001
 20
5.0
 30
4.0
 70
   192
  0
VERTEX
  8
0
  5
DD
 10
7.0
 20
2.0
 30
4.0
 70
   192
  0
VERTEX
  8
0
  5
DE
 10
4.0
 20
7.0
 30
4.0
 70
   192
  0
VERTEX
  8
0
  5
DF
 10
5.0
 20
2.0
 30
4.0
 70
   192
  0
VERTEX
  8
0
  5
E0
 10
7.0
 20
4.0
 30
4.0
 70
   192
  0
VERTEX
  8
0
  5
E1
 10
6.0
 20
4.0
 30
4.0
 70
   192
  0
VERTEX
  8
0
  5
E2
 10
6.0
 20
5.0
 30
4.0
 70
   192
  0
VERTEX
  8
0
  5
E3
 10
5.0
 20
6.0
 30
4.0
 70
   192
  0
VERTEX
  8
0
  5
E4
 10
4.0
 20
6.0
 30
4.0
 70
   192
  0
VERTEX
  8
0
  5
E5
 10
2.0
 20
5.0
 30
4.0
 70
   192
  0
VERTEX
  8
0
  5
E6
 10
3.0
 20
5.0
 30
4.0
 70
   192
  0
VERTEX
  8
0
  5
E7
 10
3.0
 20
4.0
 30
4.0
 70
   192
  0
VERTEX
  8
0
  5
E8
 10
4.0
 20
3.0
 30
4.0
 70
   192
  0
VERTEX
  8
0
  5
E9
 10
5.0
 20
3.0
 30
4.0
 70
   192
  0
VERTEX
  8
0
 62
     7
  5
EA
 10
0.0
 20
0.0
 30
0.0
 70
   128
 71
    -1
 72
    -2
 73
    -3
  0
VERTEX
  8
0
 62
     7
  5
EB
 10
0.0
 20
0.0
 30
0.0
 70
   128
 71
     3
 72
    -4
 73
    -1
  0
VERTEX
  8
0
 62
     7
  5
EC
 10
0.0
 20
0.0
 30
0.0
 70
   128
 71
    -2
 72
    -5
 73
    -3
  0
VERTEX
  8
0
 62
     7
  5
ED
 10
0.0
 20
0.0
 30
0.0
 70
   128
 71
    -5
 72
     6
 73
    -3
  0
VERTEX
  8
0
 62
     7
  5
EE
 10
0.0
 20
0.0
 30
0.0
 70
   128
 71
    -4
 72
     7
 73
    -1
  0
VERTEX
  8
0
 62
     7
  5
EF
 10
0.0
 20
0.0
 30
0.0
 70
   128
 71
    -4
 72
     8
 73
    -7
  0
VERTEX
  8
0
 62
     7
  5
F0
 10
0.0
 20
0.0
 30
0.0
 70
   128
 71
     5
 72
    -9
 73
    -6
  0
VERTEX
  8
0
 62
     7
  5
F1
 10
0.0
 20
0.0
 30
0.0
 70
   128
 71
    -9
 72
    10
 73
    -6
  0
VERTEX
  8
0
 62
     7
  5
F2
 10
0.0
 20
0.0
 30
0.0
 70
   128
 71
     9
 72
   -11
 73
   -10
  0
VERTEX
  8
0
 62
     7
  5
F3
 10
0.0
 20
0.0
 30
0.0
 70
   128
 71
   -11
 72
   -12
 73
   -10
  0
VERTEX
  8
0
 62
     7
  5
F4
 10
0.0
 20
0.0
 30
0.0
 70
   128
 71
     2
 72
   -13
 73
    -5
  0
VERTEX
  8
0
 62
     7
  5
F5
 10
0.0
 20
0.0
 30
0.0
 70
   128
 71
     4
 72
   -10
 73
    -8
  0
VERTEX
  8
0
 62
     7
  5
F6
 10
0.0
 20
0.0
 30
0.0
 70
   128
 71
   -10
 72
   -14
 73
    -8
  0
VERTEX
  8
0
 62
     7
  5
F7
 10
0.0
 20
0.0
 30
0.0
 70
   128
 71
   -10
 72
    12
 73
   -14
  0
VERTEX
  8
0
 62
     7
  5
F8
 10
0.0
 20
0.0
 30
0.0
 70
   128
 71
   -11
 72
    15
 73
   -12
  0
VERTEX
  8
0
 62
     7
  5
F9
 10
0.0
 20
0.0
 30
0.0
 70
   128
 71
   -11
 72
    16
 73
   -15
  0
VERTEX
  8
0
 62
     7
  5
FA
 10
0.0
 20
0.0
 30
0.0
 70
   128
 71
    11
 72
    17
 73
   -16
  0
VERTEX
  8
0
 62
     7
  5
FB
 10
0.0
 20
0.0
 30
0.0
 70
   128
 71
   -13
 72
    18
 73
    -5
  0
VERTEX
  8
0
 62
     7
  5
FC
 10
0.0
 20
0.0
 30
0.0
 70
   128
 71
    13
 72
    19
 73
   -18
  0
VERTEX
  8
0
 62
     7
  5
FD
 10
0.0
 20
0.0
 30
0.0
 70
   128
 71
    -1
 72
    20
 73
    -2
  0
VERTEX
  8
0
 62
     7
  5
FE
 10
0.0
 20
0.0
 30
0.0
 70
   128
 71
    -1
 72
    21
 73
   -20
  0
VERTEX
  8
0
 62
     7
  5
FF
 10
0.0
 20
0.0
 30
0.0
 70
   128
 71
     1
 72
    22
 73
   -21
  0
VERTEX
  8
0
 62
     7
  5
100
 10
0.0
 20
0.0
 30
0.0
 70
   128
 71
   -14
 72
    23
 73
    -8
  0
VERTEX
  8
0
 62
     7
  5
101
 10
0.0
 20
0.0
 30
0.0
 70
   128
 71
    14
 72
    24
 73
   -23
  0
SEQEND
  8
0
 62
     7
  5
102
  0
POLYLINE
  8
0
 62
     7
  5
103
 66
     1
 10
0.0
 20
0.0
 30
0.0
 70
    64
  0
VERTEX
  8
0
  5
104
 10
0.0
 20
0.0
 30
0.0
 70
   192
  0
VERTEX
  8
0
  5
105
 10
0.0
 20
9.0
 30
4.0
 70
   192
  0
VERTEX
  8
0
  5
106
 10
0.0
 20
9.0
 30
0.0
 70
   192
  0
VERTEX
  8
0
  5
107
 10
0.0
 20
0.0
 30
4.0
 70
   192
  0
VERTEX
  8
0
 62
     7
  5
108
 10
0.0
 20
0.0
 30
0.0
 70
   128
 71
    -1
 72
     2
 73
     3
  0
VERTEX
  8
0
 62
     7
  5
109
 10
0.0
 20
0.0
 30
0.0
 70
   128
 71
     1
 72
     4
 73
    -2
  0
SEQEND
  8
0
 62
     7
  5
10A
  0
POLYLINE
  8
0
 62
     7
  5
10B
 66
     1
 10
0.0
 20
0.0
 30
0.0
 70
    64
  0
VERTEX
  8
0
  5
10C
 10
9.0
 20
0.0
 30
4.0
 70
   192
  0
VERTEX
  8
0
  5
10D
 10
0.0
 20
0.0
 30
4.0
 70
   192
  0
VERTEX
  8
0
  5
10E
 10
0.0
 20
0.0
 30
0.0
 70
   192
  0
VERTEX
  8
0
  5
10F
 10
9.0
 20
0.0
 30
0.0
 70
   192
  0
VERTEX
  8
0
 62
     7
  5
110
 10
0.0
 20
0.0
 30
0.0
 70
   128
 71
     1
 72
     2
 73
    -3
  0
VERTEX
  8
0
 62
     7
  5
111
 10
0.0
 20
0.0
 30
0.0
 70
   128
 71
     3
 72
     4
 73
    -1
  0
SEQEND
  8
0
 62
     7
  5
112
  0
POLYLINE
  8
0
 62
     7
  5
113
 66
     1
 10
0.0
 20
0.0
 30
0.0
 70
    64
  0
VERTEX
  8
0
  5
114
 10
5.0
 20
8.000001
 30
0.0
 70
   192
  0
VERTEX
  8
0
  5
115
 10
2.0
 20
7.0
 30
0.0
 70
   192
  0
VERTEX
  8
0
  5
116
 10
0.0
 20
9.0
 30
0.0
 70
   192
  0
VERTEX
  8
0
  5
117
 10
8.000001
 20
8.000001
 30
0.0
 70
   192
  0
VERTEX
  8
0
  5
118
 10
1.0
 20
4.0
 30
0.0
 70
   192
  0
VERTEX
  8
0
  5
119
 10
0.0
 20
0.0
 30
0.0
 70
   192
  0
VERTEX
  8
0
  5
11A
 10
9.0
 20
9.0
 30
0.0
 70
   192
  0
VERTEX
  8
0
  5
11B
 10
9.0
 20
0.0
 30
0.0
 70
   192
  0
VERTEX
  8
0
  5
11C
 10
1.0
 20
1.0
 30
0.0
 70
   192
  0
VERTEX
  8
0
  5
11D
 10
4.0
 20
1.0
 30
0.0
 70
   192
  0
VERTEX
  8
0
  5
11E
 10
2.0
 20
5.0
 30
0.0
 70
   192
  0
VERTEX
  8
0
  5
11F
 10
8.000001
 20
5.0
 30
0.0
 70
   192
  0
VERTEX
  8
0
  5
120
 10
7.0
 20
4.0
 30
0.0
 70
   192
  0
VERTEX
  8
0
  5
121
 10
7.0
 20
2.0
 30
0.0
 70
   192
  0
VERTEX
  8
0
  5
122
 10
5.0
 20
2.0
 30
0.0
 70
   192
  0
VERTEX
  8
0
  5
123
 10
5.0
 20
3.0
 30
0.0
 70
   192
  0
VERTEX
  8
0
  5
124
 10
4.0
 20
3.0
 30
0.0
 70
   192
  0
VERTEX
  8
0
  5
125
 10
3.0
 20
4.0
 30
0.0
 70
   192
  0
VERTEX
  8
0
  5
126
 10
3.0
 20
5.0
 30
0.0
 70
   192
  0
VERTEX
  8
0
  5
127
 10
4.0
 20
7.0
 30
0.0
 70
   192
  0
VERTEX
  8
0
  5
128
 10
4.0
 20
6.0
 30
0.0
 70
   192
  0
VERTEX
  8
0
  5
129
 10
5.0
 20
6.0
 30
0.0
 70
   192
  0
VERTEX
  8
0
  5
12A
 10
6.0
 20
5.0
 30
0.0
 70
   192
  0
VERTEX
  8
0
  5
12B
 10
6.0
 20
4.0
 30
0.0
 70
   192
  0
VERTEX
  8
0
 62
     7
  5
12C
 10
0.0
 20
0.0
 30
0.0
 70
   128
 71
    -1
 72
    -2
 73
    -3
  0
VERTEX
  8
0
 62
     7
  5
12D
 10
0.0
 20
0.0
 30
0.0
 70
   128
 71
    -3
 72
     4
 73
    -1
  0
VERTEX
  8
0
 62
     7
  5
12E
 10
0.0
 20
0.0
 30
0.0
 70
   128
 71
    -2
 72
    -5
 73
    -3
  0
VERTEX
  8
0
 62
     7
  5
12F
 10
0.0
 20
0.0
 30
0.0
 70
   128
 71
    -5
 72
     6
 73
    -3
  0
VERTEX
  8
0
 62
     7
  5
130
 10
0.0
 20
0.0
 30
0.0
 70
   128
 71
     3
 72
    -7
 73
    -4
  0
VERTEX
  8
0
 62
     7
  5
131
 10
0.0
 20
0.0
 30
0.0
 70
   128
 71
     7
 72
    -8
 73
    -4
  0
VERTEX
  8
0
 62
     7
  5
132
 10
0.0
 20
0.0
 30
0.0
 70
   128
 71
     5
 72
    -9
 73
    -6
  0
VERTEX
  8
0
 62
     7
  5
133
 10
0.0
 20
0.0
 30
0.0
 70
   128
 71
    -9
 72
     8
 73
    -6
  0
VERTEX
  8
0
 62
     7
  5
134
 10
0.0
 20
0.0
 30
0.0
 70
   128
 71
     9
 72
   -10
 73
    -8
  0
VERTEX
  8
0
 62
     7
  5
135
 10
0.0
 20
0.0
 30
0.0
 70
   128
 71
     2
 72
   -11
 73
    -5
  0
VERTEX
  8
0
 62
     7
  5
136
 10
0.0
 20
0.0
 30
0.0
 70
   128
 71
    -8
 72
    12
 73
    -4
  0
VERTEX
  8
0
 62
     7
  5
137
 10
0.0
 20
0.0
 30
0.0
 70
   128
 71
    -8
 72
   -13
 73
   -12
  0
VERTEX
  8
0
 62
     7
  5
138
 10
0.0
 20
0.0
 30
0.0
 70
   128
 71
    -8
 72
    14
 73
   -13
  0
VERTEX
  8
0
 62
     7
  5
139
 10
0.0
 20
0.0
 30
0.0
 70
   128
 71
    -8
 72
    15
 73
   -14
  0
VERTEX
  8
0
 62
     7
  5
13A
 10
0.0
 20
0.0
 30
0.0
 70
   128
 71
   -10
 72
   -15
 73
    -8
  0
VERTEX
  8
0
 62
     7
  5
13B
 10
0.0
 20
0.0
 30
0.0
 70
   128
 71
   -10
 72
    16
 73
   -15
  0
VERTEX
  8
0
 62
     7
  5
13C
 10
0.0
 20
0.0
 30
0.0
 70
   128
 71
    10
 72
    17
 73
   -16
  0
VERTEX
  8
0
 62
     7
  5
13D
 10
0.0
 20
0.0
 30
0.0
 70
   128
 71
   -11
 72
    18
 73
    -5
  0
VERTEX
  8
0
 62
     7
  5
13E
 10
0.0
 20
0.0
 30
0.0
 70
   128
 71
    11
 72
    19
 73
   -18
  0
VERTEX
  8
0
 62
     7
  5
13F
 10
0.0
 20
0.0
 30
0.0
 70
   128
 71
    -1
 72
    20
 73
    -2
  0
VERTEX
  8
0
 62
     7
  5
140
 10
0.0
 20
0.0
 30
0.0
 70
   128
 71
    -1
 72
    21
 73
   -20
  0
VERTEX
  8
0
 62
     7
  5
141
 10
0.0
 20
0.0
 30
0.0
 70
   128
 71
     1
 72
    22
 73
   -21
  0
VERTEX
  8
0
 62
     7
  5
142
 10
0.0
 20
0.0
 30
0.0
 70
   128
 71
   -13
 72
    23
 73
   -12
  0
VERTEX
  8
0
 62
     7
  5
143
 10
0.0
 20
0.0
 30
0.0
 70
   128
 71
    13
 72
    24
 73
   -23
  0
SEQEND
  8
0
 62
     7
  5
144
  0
POLYLINE
  8
0
 62
     7
  5
145
 66
     1
 10
0.0
 20
0.0
 30
0.0
 70
    64
  0
VERTEX
  8
0
  5
146
 10
4.0
 20
3.0
 30
4.0
 70
   192
  0
VERTEX
  8
0
  5
147
 10
4.0
 20
1.0
 30
4.0
 70
   192
  0
VERTEX
  8
0
  5
148
 10
4.0
 20
1.0
 30
0.0
 70
   192
  0
VERTEX
  8
0
  5
149
 10
4.0
 20
3.0
 30
0.0
 70
   192
  0
VERTEX
  8
0
  5
14A
 10
4.0
 20
7.0
 30
4.0
 70
   192
  0
VERTEX
  8
0
  5
14B
 10
4.0
 20
6.0
 30
4.0
 70
   192
  0
VERTEX
  8
0
  5
14C
 10
4.0
 20
7.0
 30
0.0
 70
   192
  0
VERTEX
  8
0
  5
14D
 10
4.0
 20
6.0
 30
0.0
 70
   192
  0
VERTEX
  8
0
 62
     7
  5
14E
 10
0.0
 20
0.0
 30
0.0
 70
   128
 71
    -1
 72
     3
 73
     2
  0
VERTEX
  8
0
 62
     7
  5
14F
 10
0.0
 20
0.0
 30
0.0
 70
   128
 71
    -3
 72
     1
 73
     4
  0
VERTEX
  8
0
 62
     7
  5
150
 10
0.0
 20
0.0
 30
0.0
 70
   128
 71
     5
 72
    -7
 73
     6
  0
VERTEX
  8
0
 62
     7
  5
151
 10
0.0
 20
0.0
 30
0.0
 70
   128
 71
    -6
 72
     7
 73
     8
  0
SEQEND
  8
0
 62
     7
  5
152
  0
POLYLINE
  8
0
 62
     7
  5
153
 66
     1
 10
0.0
 20
0.0
 30
0.0
 70
    64
  0
VERTEX
  8
0
  5
154
 10
6.0
 20
4.0
 30
4.0
 70
   192
  0
VERTEX
  8
0
  5
155
 10
7.0
 20
4.0
 30
0.0
 70
   192
  0
VERTEX
  8
0
  5
156
 10
6.0
 20
4.0
 30
0.0
 70
   192
  0
VERTEX
  8
0
  5
157
 10
7.0
 20
4.0
 30
4.0
 70
   192
  0
VERTEX
  8
0
  5
158
 10
3.0
 20
4.0
 30
4.0
 70
   192
  0
VERTEX
  8
0
  5
159
 10
3.0
 20
4.0
 30
0.0
 70
   192
  0
VERTEX
  8
0
  5
15A
 10
1.0
 20
4.0
 30
0.0
 70
   192
  0
VERTEX
  8
0
  5
15B
 10
1.0
 20
4.0
 30
4.0
 70
   192
  0
VERTEX
  8
0
 62
     7
  5
15C
 10
0.0
 20
0.0
 30
0.0
 70
   128
 71
     1
 72
     3
 73
    -2
  0
VERTEX
  8
0
 62
     7
  5
15D
 10
0.0
 20
0.0
 30
0.0
 70
   128
 71
    -1
 72
     2
 73
     4
  0
VERTEX
  8
0
 62
     7
  5
15E
 10
0.0
 20
0.0
 30
0.0
 70
   128
 71
    -5
 72
     7
 73
     6
  0
VERTEX
  8
0
 62
     7
  5
15F
 10
0.0
 20
0.0
 30
0.0
 70
   128
 71
    -7
 72
     5
 73
     8
  0
SEQEND
  8
0
 62
     7
  5
160
  0
POLYLINE
  8
0
 62
     7
  5
161
 66
     1
 10
0.0
 20
0.0
 30
0.0
 70
    64
  0
VERTEX
  8
0
  5
162
 10
1.0
 20
1.0
 30
4.0
 70
   192
  0
VERTEX
  8
0
  5
163
 10
1.0
 20
4.0
 30
4.0
 70
   192
  0
VERTEX
  8
0
  5
164
 10
1.0
 20
4.0
 30
0.0
 70
   192
  0
VERTEX
  8
0
  5
165
 10
1.0
 20
1.0
 30
0.0
 70
   192
  0
VERTEX
  8
0
 62
     7
  5
166
 10
0.0
 20
0.0
 30
0.0
 70
   128
 71
    -1
 72
     3
 73
     2
  0
VERTEX
  8
0
 62
     7
  5
167
 10
0.0
 20
0.0
 30
0.0
 70
   128
 71
    -3
 72
     1
 73
     4
  0
SEQEND
  8
0
 62
     7
  5
168
  0
POLYLINE
  8
0
 62
     7
  5
169
 66
     1
 10
0.0
 20
0.0
 30
0.0
 70
    64
  0
VERTEX
  8
0
  5
16A
 10
4.0
 20
1.0
 30
4.0
 70
   192
  0
VERTEX
  8
0
  5
16B
 10
1.0
 20
1.0
 30
4.0
 70
   192
  0
VERTEX
  8
0
  5
16C
 10
4.0
 20
1.0
 30
0.0
 70
   192
  0
VERTEX
  8
0
  5
16D
 10
1.0
 20
1.0
 30
0.0
 70
   192
  0
VERTEX
  8
0
 62
     7
  5
16E
 10
0.0
 20
0.0
 30
0.0
 70
   128
 71
     1
 72
    -3
 73
     2
  0
VERTEX
  8
0
 62
     7
  5
16F
 10
0.0
 20
0.0
 30
0.0
 70
   128
 71
    -2
 72
     3
 73
     4
  0
SEQEND
  8
0
 62
     7
  5
170
  0
POLYLINE
  8
0
 62
     7
  5
171
 66
     1
 10
0.0
 20
0.0
 30
0.0
 70
    64
  0
VERTEX
  8
0
  5
172
 10
6.0
 20
5.0
 30
4.0
 70
   192
  0
VERTEX
  8
0
  5
173
 10
6.0
 20
4.0
 30
0.0
 70
   192
  0
VERTEX
  8
0
  5
174
 10
6.0
 20
5.0
 30
0.0
 70
   192
  0
VERTEX
  8
0
  5
175
 10
6.0
 20
4.0
 30
4.0
 70
   192
  0
VERTEX
  8
0
 62
     7
  5
176
 10
0.0
 20
0.0
 30
0.0
 70
   128
 71
     1
 72
     3
 73
    -2
  0
VERTEX
  8
0
 62
     7
  5
177
 10
0.0
 20
0.0
 30
0.0
 70
   128
 71
    -1
 72
     2
 73
     4
  0
SEQEND
  8
0
 62
     7
  5
178
  0
POLYLINE
  8
0
 62
     7
  5
179
 66
     1
 10
0.0
 20
0.0
 30
0.0
 70
    64
  0
VERTEX
  8
0
  5
17A
 10
4.0
 20
6.0
 30
0.0
 70
   192
  0
VERTEX
  8
0
  5
17B
 10
4.0
 20
6.0
 30
4.0
 70
   192
  0
VERTEX
  8
0
  5
17C
 10
5.0
 20
6.0
 30
4.0
 70
   192
  0
VERTEX
  8
0
  5
17D
 10
5.0
 20
6.0
 30
0.0
 70
   192
  0
VERTEX
  8
0
 62
     7
  5
17E
 10
0.0
 20
0.0
 30
0.0
 70
   128
 71
    -1
 72
     3
 73
     2
  0
VERTEX
  8
0
 62
     7
  5
17F
 10
0.0
 20
0.0
 30
0.0
 70
   128
 71
    -3
 72
     1
 73
     4
  0
SEQEND
  8
0
 62
     7
  5
180
  0
POLYLINE
  8
0
 62
     7
  5
181
 66
     1
 10
0.0
 20
0.0
 30
0.0
 70
    64
  0
VERTEX
  8
0
  5
182
 10
3.0
 20
5.0
 30
0.0
 70
   192
  0
VERTEX
  8
0
  5
183
 10
3.0
 20
4.0
 30
0.0
 70
   192
  0
VERTEX
  8
0
  5
184
 10
3.0
 20
4.0
 30
4.0
 70
   192
  0
VERTEX
  8
0
  5
185
 10
3.0
 20
5.0
 30
4.0
 70
   192
  0
VERTEX
  8
0
 62
     7
  5
186
 10
0.0
 20
0.0
 30
0.0
 70
   128
 71
    -1
 72
     3
 73
     2
  0
VERTEX
  8
0
 62
     7
  5
187
 10
0.0
 20
0.0
 30
0.0
 70
   128
 71
    -3
 72
     1
 73
     4
  0
SEQEND
  8
0
 62
     7
  5
188
  0
POLYLINE
  8
0
 62
     7
  5
189
 66
     1
 10
0.0
 20
0.0
 30
0.0
 70
    64
  0
VERTEX
  8
0
  5
18A
 10
5.0
 20
3.0
 30
4.0
 70
   192
  0
VERTEX
  8
0
  5
18B
 10
4.0
 20
3.0
 30
4.0
 70
   192
  0
VERTEX
  8
0
  5
18C
 10
5.0
 20
3.0
 30
0.0
 70
   192
  0
VERTEX
  8
0
  5
18D
 10
4.0
 20
3.0
 30
0.0
 70
   192
  0
VERTEX
  8
0
 62
     7
  5
18E
 10
0.0
 20
0.0
 30
0.0
 70
   128
 71
     1
 72
    -3
 73
     2
  0
VERTEX
  8
0
 62
     7
  5
18F
 10
0.0
 20
0.0
 30
0.0
 70
   128
 71
    -2
 72
     3
 73
     4
  0
SEQEND
  8
0
 62
     7
  5
190
  0
POLYLINE
  8
0
 62
     7
  5
191
 66
     1
 10
0.0
 20
0.0
 30
0.0
 70
    64
  0
VERTEX
  8
0
  5
192
 10
2.0
 20
7.0
 30
4.0
 70
   192
  0
VERTEX
  8
0
  5
193
 10
4.0
 20
7.0
 30
0.0
 70
   192
  0
VERTEX
  8
0
  5
194
 10
2.0
 20
7.0
 30
0.0
 70
   192
  0
VERTEX
  8
0
  5
195
 10
4.0
 20
7.0
 30
4.0
 70
   192
  0
VERTEX
  8
0
 62
     7
  5
196
 10
0.0
 20
0.0
 30
0.0
 70
   128
 71
     1
 72
     3
 73
    -2
  0
VERTEX
  8
0
 62
     7
  5
197
 10
0.0
 20
0.0
 30
0.0
 70
   128
 71
    -1
 72
     2
 73
     4
  0
SEQEND
  8
0
 62
     7
  5
198
  0
POLYLINE
  8
0
 62
     7
  5
199
 66
     1
 10
0.0
 20
0.0
 30
0.0
 70
    64
  0
VERTEX
  8
0
  5
19A
 10
2.0
 20
7.0
 30
4.0
 70
   192
  0
VERTEX
  8
0
  5
19B
 10
2.0
 20
7.0
 30
0.0
 70
   192
  0
VERTEX
  8
0
  5
19C
 10
2.0
 20
5.0
 30
0.0
 70
   192
  0
VERTEX
  8
0
  5
19D
 10
2.0
 20
5.0
 30
4.0
 70
   192
  0
VERTEX
  8
0
 62
     7
  5
19E
 10
0.0
 20
0.0
 30
0.0
 70
   128
 71
    -1
 72
     3
 73
     2
  0
VERTEX
  8
0
 62
     7
  5
19F
 10
0.0
 20
0.0
 30
0.0
 70
   128
 71
    -3
 72
     1
 73
     4
  0
SEQEND
  8
0
 62
     7
  5
1A0
  0
POLYLINE
  8
0
 62
     7
  5
1A1
 66
     1
 10
0.0
 20
0.0
 30
0.0
 70
    64
  0
VERTEX
  8
0
  5
1A2
 10
8.000001
 20
5.0
 30
4.0
 70
   192
  0
VERTEX
  8
0
  5
1A3
 10
6.0
 20
5.0
 30
4.0
 70
   192
  0
VERTEX
  8
0
  5
1A4
 10
6.0
 20
5.0
 30
0.0
 70
   192
  0
VERTEX
  8
0
  5
1A5
 10
8.000001
 20
5.0
 30
0.0
 70
   192
  0
VERTEX
  8
0
  5
1A6
 10
2.0
 20
5.0
 30
4.0
 70
   192
  0
VERTEX
  8
0
  5
1A7
 10
2.0
 20
5.0
 30
0.0
 70
   192
  0
VERTEX
  8
0
  5
1A8
 10
3.0
 20
5.0
 30
4.0
 70
   192
  0
VERTEX
  8
0
  5
1A9
 10
3.0
 20
5.0
 30
0.0
 70
   192
  0
VERTEX
  8
0
 62
     7
  5
1AA
 10
0.0
 20
0.0
 30
0.0
 70
   128
 71
    -1
 72
     3
 73
     2
  0
VERTEX
  8
0
 62
     7
  5
1AB
 10
0.0
 20
0.0
 30
0.0
 70
   128
 71
    -3
 72
     1
 73
     4
  0
VERTEX
  8
0
 62
     7
  5
1AC
 10
0.0
 20
0.0
 30
0.0
 70
   128
 71
     5
 72
    -7
 73
     6
  0
VERTEX
  8
0
 62
     7
  5
1AD
 10
0.0
 20
0.0
 30
0.0
 70
   128
 71
    -6
 72
     7
 73
     8
  0
SEQEND
  8
0
 62
     7
  5
1AE
  0
POLYLINE
  8
0
 62
     7
  5
1AF
 66
     1
 10
0.0
 20
0.0
 30
0.0
 70
    64
  0
VERTEX
  8
0
  5
1B0
 10
8.000001
 20
8.000001
 30
4.0
 70
   192
  0
VERTEX
  8
0
  5
1B1
 10
8.000001
 20
5.0
 30
0.0
 70
   192
  0
VERTEX
  8
0
  5
1B2
 10
8.000001
 20
8.000001
 30
0.0
 70
   192
  0
VERTEX
  8
0
  5
1B3
 10
8.000001
 20
5.0
 30
4.0
 70
   192
  0
VERTEX
  8
0
 62
     7
  5
1B4
 10
0.0
 20
0.0
 30
0.0
 70
   128
 71
     1
 72
     3
 73
    -2
  0
VERTEX
  8
0
 62
     7
  5
1B5
 10
0.0
 20
0.0
 30
0.0
 70
   128
 71
    -1
 72
     2
 73
     4
  0
SEQEND
  8
0
 62
     7
  5
1B6
  0
POLYLINE
  8
0
 62
     7
  5
1B7
 66
     1
 10
0.0
 20
0.0
 30
0.0
 70
    64
  0
VERTEX
  8
0
  5
1B8
 10
8.000001
 20
8.000001
 30
4.0
 70
   192
  0
VERTEX
  8
0
  5
1B9
 10
8.000001
 20
8.000001
 30
0.0
 70
   192
  0
VERTEX
  8
0
  5
1BA
 10
5.0
 20
8.000001
 30
0.0
 70
   192
  0
VERTEX
  8
0
  5
1BB
 10
5.0
 20
8.000001
 30
4.0
 70
   192
  0
VERTEX
  8
0
 62
     7
  5
1BC
 10
0.0
 20
0.0
 30
0.0
 70
   128
 71
    -1
 72
     3
 73
     2
  0
VERTEX
  8
0
 62
     7
  5
1BD
 10
0.0
 20
0.0
 30
0.0
 70
   128
 71
    -3
 72
     1
 73
     4
  0
SEQEND
  8
0
 62
     7
  5
1BE
  0
POLYLINE
  8
0
 62
     7
  5
1BF
 66
     1
 10
0.0
 20
0.0
 30
0.0
 70
    64
  0
VERTEX
  8
0
  5
1C0
 10
5.0
 20
6.0
 30
4.0
 70
   192
  0
VERTEX
  8
0
  5
1C1
 10
5.0
 20
8.000001
 30
4.0
 70
   192
  0
VERTEX
  8
0
  5
1C2
 10
5.0
 20
8.000001
 30
0.0
 70
   192
  0
VERTEX
  8
0
  5
1C3
 10
5.0
 20
6.0
 30
0.0
 70
   192
  0
VERTEX
  8
0
  5
1C4
 10
5.0
 20
2.0
 30
4.0
 70
   192
  0
VERTEX
  8
0
  5
1C5
 10
5.0
 20
3.0
 30
4.0
 70
   192
  0
VERTEX
  8
0
  5
1C6
 10
5.0
 20
2.0
 30
0.0
 70
   192
  0
VERTEX
  8
0
  5
1C7
 10
5.0
 20
3.0
 30
0.0
 70
   192
  0
VERTEX
  8
0
 62
     7
  5
1C8
 10
0.0
 20
0.0
 30
0.0
 70
   128
 71
    -1
 72
     3
 73
     2
  0
VERTEX
  8
0
 62
     7
  5
1C9
 10
0.0
 20
0.0
 30
0.0
 70
   128
 71
    -3
 72
     1
 73
     4
  0
VERTEX
  8
0
 62
     7
  5
1CA
 10
0.0
 20
0.0
 30
0.0
 70
   128
 71
     5
 72
    -7
 73
     6
  0
VERTEX
  8
0
 62
     7
  5
1CB
 10
0.0
 20
0.0
 30
0.0
 70
   128
 71
    -6
 72
     7
 73
     8
  0
SEQEND
  8
0
 62
     7
  5
1CC
  0
POLYLINE
  8
0
 62
     7
  5
1CD
 66
     1
 10
0.0
 20
0.0
 30
0.0
 70
    64
  0
VERTEX
  8
0
  5
1CE
 10
7.0
 20
4.0
 30
4.0
 70
   192
  0
VERTEX
  8
0
  5
1CF
 10
7.0
 20
2.0
 30
0.0
 70
   192
  0
VERTEX
  8
0
  5
1D0
 10
7.0
 20
4.0
 30
0.0
 70
   192
  0
VERTEX
  8
0
  5
1D1
 10
7.0
 20
2.0
 30
4.0
 70
   192
  0
VERTEX
  8
0
 62
     7
  5
1D2
 10
0.0
 20
0.0
 30
0.0
 70
   128
 71
     1
 72
     3
 73
    -2
  0
VERTEX
  8
0
 62
     7
  5
1D3
 10
0.0
 20
0.0
 30
0.0
 70
   128
 71
    -1
 72
     2
 73
     4
  0
SEQEND
  8
0
 62
     7
  5
1D4
  0
POLYLINE
  8
0
 62
     7
  5
1D5
 66
     1
 10
0.0
 20
0.0
 30
0.0
 70
    64
  0
VERTEX
  8
0
  5
1D6
 10
5.0
 20
2.0
 30
4.0
 70
   192
  0
VERTEX
  8
0
  5
1D7
 10
5.0
 20
2.0
 30
0.0
 70
   192
  0
VERTEX
  8
0
  5
1D8
 10
7.0
 20
2.0
 30
0.0
 70
   192
  0
VERTEX
  8
0
  5
1D9
 10
7.0
 20
2.0
 30
4.0
 70
   192
  0
VERTEX
  8
0
 62
     7
  5
1DA
 10
0.0
 20
0.0
 30
0.0
 70
   128
 71
    -1
 72
     3
 73
     2
  0
VERTEX
  8
0
 62
     7
  5
1DB
 10
0.0
 20
0.0
 30
0.0
 70
   128
 71
    -3
 72
     1
 73
     4
  0
SEQEND
  8
0
 62
     7
  5
1DC
  0
ENDBLK
  8
0
  5
1DD
  0
BLOCK
  8
0
  5
1DF
  2
AME_MAT
 70
    64
 10
0.0
 20
0.0
 30
0.0
  1
AME_MAT
  3
AME_MAT
  0
ENDBLK
  8
0
  5
1E0
  0
ENDSEC
  0
SECTION
  2
ENTITIES
  0
INSERT
  8
AME_FRZ
  5
3
  2
AME_NIL
 10
0.0
 20
0.0
 30
0.0
  0
INSERT
  8
AME_FRZ
  5
6
  2
AME_SOL
 10
0.0
 20
0.0
 30
0.0
1001
AME_SOL
1000
1.0
1000
sq cm
1070
     3
1070
     0
1070
     3
1000
wire
1040
0.0
1000
NONE
1040
1.0
1000
cm
1000
gm
1000
MILD_STEEL
1070
    25
1000
CSG
1070
     3
1070
     2
1070
     3
1000
cu cm
1070
     4
1070
     0
1005
3
  0
INSERT
  8
AME_FRZ
  5
15
  2
*U2
 10
0.0
 20
0.0
 30
0.0
1001
AME_SOL
1002
{
1070
     0
1071
  1858912
1070
  1536
1010
9.0
1020
9.0
1030
4.0
1005
0
1005
0
1005
BC
1040
0.0
1040
1.0
1000
MILD_STEEL
1000
0
1010
0.0
1020
0.0
1030
0.0
1010
0.0
1020
0.0
1030
1.0
1040
0.0
1002
}
  0
INSERT
  8
AME_FRZ
  5
26
  2
*U3
 10
1.0
 20
1.0
 30
0.0
1001
AME_SOL
1002
{
1070
     0
1071
  1860304
1070
  1536
1010
3.0
1020
3.0
1030
4.0
1005
0
1005
0
1005
6D
1040
0.0
1040
1.0
1000
MILD_STEEL
1000
0
1010
1.0
1020
1.0
1030
0.0
1010
0.0
1020
0.0
1030
1.0
1040
0.0
1002
}
  0
INSERT
  8
AME_FRZ
  5
37
  2
*U4
 10
2.0
 20
5.0
 30
0.0
1001
AME_SOL
1002
{
1070
     0
1071
  1928696
1070
  1536
1010
2.0
1020
2.0
1030
4.0
1005
0
1005
0
1005
6E
1040
0.0
1040
1.0
1000
MILD_STEEL
1000
0
1010
2.0
1020
5.0
1030
0.0
1010
0.0
1020
0.0
1030
1.0
1040
0.0
1002
}
  0
INSERT
  8
AME_FRZ
  5
48
  2
*U5
 10
5.0
 20
2.0
 30
0.0
1001
AME_SOL
1002
{
1070
     0
1071
  1945480
1070
  1536
1010
2.0
1020
2.0
1030
4.0
1005
0
1005
0
1005
6F
1040
0.0
1040
1.0
1000
MILD_STEEL
1000
0
1010
5.0
1020
2.0
1030
0.0
1010
0.0
1020
0.0
1030
1.0
1040
0.0
1002
}
  0
INSERT
  8
AME_FRZ
  5
59
  2
*U6
 10
5.0
 20
5.0
 30
0.0
1001
AME_SOL
1002
{
1070
     0
1071
  1979264
1070
  1536
1010
3.0
1020
3.0
1030
4.0
1005
0
1005
0
1005
6F
1040
0.0
1040
1.0
1000
MILD_STEEL
1000
0
1010
5.0
1020
5.0
1030
0.0
1010
0.0
1020
0.0
1030
1.0
1040
0.0
1002
}
  0
INSERT
  8
AME_FRZ
  5
6A
  2
*U7
 10
3.0
 20
3.0
 30
0.0
1001
AME_SOL
1002
{
1070
     0
1071
  1973608
1070
  1536
1010
3.0
1020
3.0
1030
4.0
1005
0
1005
0
1005
6D
1040
0.0
1040
1.0
1000
MILD_STEEL
1000
0
1010
3.0
1020
3.0
1030
0.0
1010
0.0
1020
0.0
1030
1.0
1040
0.0
1002
}
  0
INSERT
  8
AME_FRZ
  5
6D
  2
AME_NIL
 10
0.0
 20
0.0
 30
0.0
1001
AME_SOL
1002
{
1070
     0
1071
  2003344
1070
   775
1070
     2
1005
26
1005
6A
1005
0
1005
0
1005
6E
1040
0.0
1040
1.0
1000
MILD_STEEL
1000
0
1010
0.0
1020
0.0
1030
0.0
1010
0.0
1020
0.0
1030
1.0
1040
0.0
1002
}
  0
INSERT
  8
AME_FRZ
  5
6E
  2
AME_NIL
 10
0.0
 20
0.0
 30
0.0
1001
AME_SOL
1002
{
1070
     0
1071
  2019112
1070
   775
1070
     2
1005
6D
1005
37
1005
0
1005
0
1005
70
1040
0.0
1040
1.0
1000
MILD_STEEL
1000
0
1010
0.0
1020
0.0
1030
0.0
1010
0.0
1020
0.0
1030
1.0
1040
0.0
1002
}
  0
INSERT
  8
AME_FRZ
  5
6F
  2
AME_NIL
 10
0.0
 20
0.0
 30
0.0
1001
AME_SOL
1002
{
1070
     0
1071
  2026496
1070
   775
1070
     2
1005
59
1005
48
1005
0
1005
0
1005
70
1040
0.0
1040
1.0
1000
MILD_STEEL
1000
0
1010
0.0
1020
0.0
1030
0.0
1010
0.0
1020
0.0
1030
1.0
1040
0.0
1002
}
  0
INSERT
  8
AME_FRZ
  5
70
  2
AME_NIL
 10
0.0
 20
0.0
 30
0.0
1001
AME_SOL
1002
{
1070
     0
1071
  2039592
1070
   775
1070
     2
1005
6E
1005
6F
1005
0
1005
0
1005
BC
1040
0.0
1040
1.0
1000
MILD_STEEL
1000
0
1010
0.0
1020
0.0
1030
0.0
1010
0.0
1020
0.0
1030
1.0
1040
0.0
1002
}
  0
INSERT
  8
0
  5
BC
  2
*U9
 10
0.0
 20
0.0
 30
0.0
1001
AME_SOL
1002
{
1070
     0
1071
  2041952
1070
  9223
1070
     0
1005
15
1005
70
1005
1DE
1005
BD
1005
0
1040
388.000003
1040
1.0
1000
MILD_STEEL
1000
0
1002
}
  0
INSERT
  8
AME_FRZ
  5
BD
  2
AME_NIL
 10
1.0
 20
1.0
 30
1.0
1001
AME_SOL
1004
E903A9FB0100F0FFFFFF000052F71600010000007477D5BA7477D5BA7477D5BAAC061041AC061041570D804001000000FBF2040000F79F4000DCFF3F000090BA0009E04000120040000980400100844EC86A1D00FFFF0000010095010000844E00000000803F000000000000000000000000000000000000
1004
803F0000A040000000400000000005000000000000000000000000000000000000000000844E00000000803F000000000000000000000000000000000000803F0000A0400000004000000000050000000000000000000000000000000000FFFFFFFFFBF2040000F7DF4000DCFF3F000090BA0009E0400009
1004
8040000980400100844E20641D00FFFF0000010091010000844E000000000080000080BF000000800000008000000080000080BF0000E040000080400000804005000000000000000000000000000000000000000000844E000000000080000080BF000000800000008000000080000080BF0000E0400000
1004
804000008040050000000000000000000000000000000000FFFFFFFFFBF2080000F79F4000DCFF3F000090BA0009A04000098040000980400100844E10651D00FFFF0000020094010000844E000000000000000000000000803F000000000000803F000000000000A0400000004000000000050000000000
1004
00000000000000000000000000000000F8010000844E000000000000000000000000803F000000000000803F000000000000A0400000A0400000000005000000000000000000000000000000000000000000844E000000000000000000000000803F000000000000803F000000000000A0400000A0400000
1004
0000050000000000000000000000000000000000FFFFFFFFFBF2040000F79F4001F7FF40000090BA8104004181040041000980400100844E00661D00FFFF00000100F6010000844E00000000008000000080000080BF000080BF000000800000008000000041000000410000804005000000000000000000
1004
000000000000000000000000844E00000000008000000080000080BF000080BF0000008000000080010000410100004100008040050000000000000000000000000000000000FFFFFFFFFBF2040001F7FF4000F79F40000090BA8104004181040041000980400100844EF0661D00FFFF00000100F5010000
1004
844E000000000080000080BF000000800000008000000080000080BF00000041000000410000804005000000000000000000000000000000000000000000844E000000000080000080BF000000800000008000000080000080BF010000410100004100008040050000000000000000000000000000000000
1004
FFFFFFFFFBF2080000F79F4000F79F40000090BA810400410009A040000980400100844EF0671D00FFFF00000200F9010000844E00000000803F000000000000000000000000000000000000803F0000A0400000A0400000000005000000000000000000000000000000000000000000C1020000844E0000
1004
0000803F000000000000000000000000000000000000803F000000400000A0400000000005000000000000000000000000000000000000000000844E00000000803F000000000000000000000000000000000000803F000000400000A04000000000050000000000000000000000000000000000FFFFFFFF
1004
FBF2040000DCFF3F00F79F40000090BA001200400009E040000980400100844EE0681D00FFFF00000100C0020000844E000000000000000000000000803F000000000000803F00000000000000400000A0400000000005000000000000000000000000000000000000000000844E00000000000000000000
1004
0000803F000000000000803F00000000000000400000A04000000000050000000000000000000000000000000000FFFFFFFFFBF2040000DCFF3F00F7DF40000090BA000980400009E040000980400100844ED0691D00FFFF00000100BE020000844E00000000008000000080000080BF000080BF00000080
1004
00000080000080400000E0400000804005000000000000000000000000000000000000000000844E00000000008000000080000080BF000080BF0000008000000080000080400000E04000008040050000000000000000000000000000000000FFFFFFFFFBF2040000EE3F4000EE3F40000090BA0009C040
1004
00124040000980400100844E280D1E00FFFF0000010089030000844E00000000803F000000000000000000000000000000000000803F00004040000040400000000005000000000000000000000000000000000000000000844E00000000803F000000000000000000000000000000000000803F00004040
1004
0000404000000000050000000000000000000000000000000000FFFFFFFFFBF2040000EE3F4000EE3F40000090BA001240400009C040000980400100844E000E1E00FFFF0000010088030000844E000000000000000000000000803F000000000000803F0000000000004040000040400000000005000000
1004
000000000000000000000000000000000000844E000000000000000000000000803F000000000000803F00000000000040400000404000000000050000000000000000000000000000000000FFFFFFFFFBF2040000EE3F4000F7BF40000090BA0009C0400009C040000980400100844EC0F91D00FFFF0000
1004
010086030000844E00000000008000000080000080BF000080BF00000080000000800000C0400000C0400000804005000000000000000000000000000000000000000000844E00000000008000000080000080BF000080BF00000080000000800000C0400000C04000008040050000000000000000000000
1004
000000000000FFFFFFFFFBF2040000F7BF4000EE3F40000090BA0009C0400009C040000980400100844E70F61D00FFFF0000010085030000844E000000000080000080BF000000800000008000000080000080BF0000C0400000C0400000804005000000000000000000000000000000000000000000844E
1004
000000000080000080BF000000800000008000000080000080BF0000C0400000C04000008040050000000000000000000000000000000000FFFFFFFFFBF2040000B87F3F00B87F3F000090BA000980400024803F000980400100844ED8CC1D00FFFF00000100ED030000844E00000000803F000000000000
1004
000000000000000000000000803F0000803F0000803F0000000005000000000000000000000000000000000000000000844E00000000803F000000000000000000000000000000000000803F0000803F0000803F00000000050000000000000000000000000000000000FFFFFFFFFBF2040000B87F3F00B8
1004
7F3F000090BA0024803F00098040000980400100844EA8CD1D00FFFF00000100EC030000844E000000000000000000000000803F000000000000803F000000000000803F0000803F0000000005000000000000000000000000000000000000000000844E000000000000000000000000803F000000000000
1004
803F000000000000803F0000803F00000000050000000000000000000000000000000000FFFFFFFFFBF2080000F79F4000EE7F40000090BA0009E04000098040000980400100844E78CE1D00FFFF0000020092010000844E00000000008000000080000080BF000080BF00000080000000800000E0400000
1004
80400000804005000000000000000000000000000000000000000000EA030000844E00000000008000000080000080BF000080BF000000800000008000008040000080400000804005000000000000000000000000000000000000000000844E00000000008000000080000080BF000080BF000000800000
1004
0080000080400000804000008040050000000000000000000000000000000000FFFFFFFFFBF2080000EE7F4000F79F40000090BA000980400009E040000980400100844E48CF1D00FFFF00000200BD020000844E000000000080000080BF000000800000008000000080000080BF000080400000E0400000
1004
804005000000000000000000000000000000000000000000E9030000844E000000000080000080BF000000800000008000000080000080BF00008040000080400000804005000000000000000000000000000000000000000000844E000000000080000080BF000000800000008000000080000080BF0000
1004
80400000804000008040050000000000000000000000000000000000FFFFFFFFFBF218007477D5BA7477D5BA7477D5BAAC061041AC0610417477D53A0100844EA8BE1D0001000000010052040000844E0000000000000000803F000000000000803F00000000000000000000000000000000000000000500
1004
0000000000000000000000000000000000000000844E0000000000000000803F000000000000803F000000000000000000000000000000000000000005000000000000000000000000000000000001000000FBF204007477D5BA7477D5BA7477D5BAAC0610417477D53A570D80400100844EE8B01D000100
1004
0000010051040000844E00000000803F000000000000000000000000000000000000803F00000000000000000000000005000000000000000000000000000000000000000000844E00000000803F000000000000000000000000000000000000803F00000000000000000000000005000000000000000000
1004
000000000000000001000000FBF204007477D5BA7477D5BA7477D5BA7477D53AAC061041570D80400100844E98C31D0001000000010050040000844E000000000000000000000000803F000000000000803F0000000000000000000000000000000005000000000000000000000000000000000000000000
1004
844E000000000000000000000000803F000000000000803F0000000000000000000000000000000005000000000000000000000000000000000001000000FBF218007477D5BA7477D5BA51E57F40AC061041AC061041570D80400100844E68C41D000100000001004F040000844E0000000080BF00000080
1004
0000008000000080000080BF0000008000001041000010410000804005000000000000000000000000000000000000000000844E0000000080BF000000800000008000000080000080BF0000008000001041000010410000804005000000000000000000000000000000000001000000FBF204007477D5BA
1004
54F90F417477D5BAAC061041AC061041570D80400100844E38C51D000100000001004E040000844E00000000008000000080000080BF000080BF000000800000008000001041000010410000804005000000000000000000000000000000000000000000844E00000000008000000080000080BF000080BF
1004
000000800000008000001041000010410000804005000000000000000000000000000000000001000000FBF2040054F90F417477D5BA7477D5BAAC061041AC061041570D80400100844E70C61D000100000001004D040000844E000000000080000080BF000000800000008000000080000080BF00001041
1004
000010410000804005000000000000000000000000000000000000000000844E000000000080000080BF000000800000008000000080000080BF00001041000010410000804005000000000000000000000000000000000001000000A4EE00F7DF4000DCFF3F000090BA0009E04000120040000980400000
1004
00C0000000400200967530F91D0000000100FFFFC86A1D0020641D000000020020641D00C86A1D00FFFFFFFFFFFFFFFF967500000000803F000000000000000000000000000080BF000000000000E04000000040000000400200000000C000000040A4EE00F79F4000DCFF3F51E57F400009E04000120040
1004
00098040FFFFFFBF000000800200967578111E0000000100FFFFC86A1D0068C41D000000020068C41D00C86A1D0001000000FFFFFFFF9675000000000000000000000000803F00000000000080BF000000000000E04000000040000080400200FFFFFFBF00000080A4EE00F79F4000DCFF3F000090BA0009
1004
A0400012004000098040000000000000804002009675C0111E0000000100FFFFC86A1D0010651D000000020010651D00C86A1D00FFFFFFFFFFFFFFFF96750000000080BF000000000000000000000000000080BF000000000000A040000000400000000002000000000000008040A4EE00F79F4000DCFF3F
1004
000090BA0009E040001200407477D53A000090C0000020C00200967530111E0000000100FFFFC86A1D00A8BE1D0000000200A8BE1D00C86A1D0001000000FFFFFFFF967500000000000000000000000080BF00000000000080BF000000000000204000000040000000000200000090C0000020C0A4EE00F7
1004
DF4000EE7F40000090BA0009E0400009804000098040000000000000804002009675480F1E0000000100FFFF20641D0078CE1D000000020078CE1D0020641D00FFFFFFFFFFFFFFFF96750000000000000000803F000000000000803F00000080000000000000E04000008040000080400200000000000000
1004
8040A4EE00F7DF4000DCFF3F51E57F400009E0400009804000098040000090C0FFFF1FC002009675381B1E0000000100FFFF20641D0068C41D000000020068C41D0020641D0001000000FFFFFFFF9675000000000000000000000000803F0000803F00000000000000000000E0400000D040000080400200
1004
000090C0FFFF1FC0A4EE00F7DF4000DCFF3F000090BA0009E040000980407477D53A000000C00000008002009675C81B1E0000000100FFFF20641D00A8BE1D0000000200A8BE1D0020641D0001000000FFFFFFFF967500000000000000000000000080BF0000803F00000000000000000000E04000000040
1004
000000000200000000C000000080A4EE00F79F4001F7FF40000090BA0009A0408104004100098040000000C00000004002009675E81C1E0000000100FFFF10651D0000661D000000020000661D0010651D00FFFFFFFFFFFFFFFF96750000000000000000803F00000000000080BF00000000000000000000
1004
A04001000041000000400200000000C000000040A4EE00F79F4000F7BF40000090BA0009A0400009C04000098040000000C00000004002009675E8091E000000FFFF010010651D00C0F91D000000020010651D00C0F91D00FFFFFFFFFFFFFFFF96750000000000000000803F00000000000080BF00000000
1004
000000000000A0400000C040000000400200000000C000000040A4EE00F79F4000DCFF3F51E57F400009A0408104004100098040040080BFFFFF7F3F0200967578F91D0000000100FFFF10651D0068C41D000000020068C41D0010651D0001000000FFFFFFFF9675000000000000000000000000803F0000
1004
80BF00000000000000000000A0400000E040000080400200040080BFFFFF7F3FA4EE00F79F4000DCFF3F51E57F400009A0408104004100098040000080400000A0400200967598D11D0000000100FFFF10651D0068C41D000000020068C41D0010651D0001000000FFFFFFFF967500000000000000000000
1004
0000803F000080BF00000000000000000000A0400000E040000080400200000080400000A040A4EE00F79F4000EE3F40000090BA0009A0400012404000098040000080C0000000800200967590B11F000000FFFF010010651D00280D1E000000020010651D00280D1E00FFFFFFFFFFFFFFFF967500000000
1004
0000000080BF00000000000080BF00000000000000000000A04000004040000000000200000080C000000080A4EE00F79F4000DCFF3F000090BA0009A040810400417477D53A020000BFFFFFFF3E0200967588841F0000000100FFFF10651D00A8BE1D0000000200A8BE1D0010651D0001000000FFFFFFFF
1004
967500000000000000000000000080BF000080BF00000000000000000000A04000002040000000000200020000BFFFFFFF3EA4EE00F79F4000DCFF3F000090BA0009A040810400417477D53A000060400100B04002009675C8431E0000000100FFFF10651D00A8BE1D0000000200A8BE1D0010651D000100
1004
0000FFFFFFFF967500000000000000000000000080BF000080BF00000000000000000000A04000002040000000000200000060400100B040A4EE01F7FF4001F7FF40000090BA810400418104004100098040000080C0000000800200967548581E0000000100FFFF00661D00F0661D0000000200F0661D00
1004
00661D00FFFFFFFFFFFFFFFF967500000000803F0000000000000000000000000000803F000000000100004101000041000080400200000080C000000080A4EE00F79F4001F7FF4051E57F40810400418104004100098040F6FFFF3E000060400200967590751E0000000100FFFF00661D0068C41D000000
1004
020068C41D0000661D0001000000FFFFFFFF9675000000000000000000000000803F000000000000803F000000800000084101000041000080400200F6FFFF3E00006040A4EE00F79F4001F7FF40000090BA81040041810400417477D53AFFFF7F3F0100804002009675B0761E0000000100FFFF00661D00
1004
A8BE1D0000000200A8BE1D0000661D0001000000FFFFFFFF967500000000000000000000000080BF000000000000803F000000000100804001000041000000000200FFFF7F3F01008040A4EE01F7FF4000F79F4051E57F40810400418104004100098040000060C0F6FFFFBE0200967580781E0000000100
1004
FFFFF0661D0068C41D000000020068C41D00F0661D0001000000FFFFFFFF9675000000000000000000000000803F0000803F00000000000000000100004100000841000080400200000060C0F6FFFFBEA4EE01F7FF4000F79F40000090BA810400410009A04000098040000000C00000004002009675307A
1004
1E0000000100FFFFF0661D00F0671D0000000200F0671D00F0661D00FFFFFFFFFFFFFFFF9675000000000000000080BF000000000000803F0000000000000000010000410000A040000000400200000000C000000040A4EE01F7FF4000F79F40000090BA81040041810400417477D53A010080C0FFFF7FBF
1004
02009675E07B1E0000000100FFFFF0661D00A8BE1D0000000200A8BE1D00F0661D0001000000FFFFFFFF967500000000000000000000000080BF0000803F00000000000000000100004101008040000000000200010080C0FFFF7FBFA4EE00F7BF4000F79F40000090BA0009C0400009A040000980400000
1004
00C0000000400200967508821E000000FFFF0100F0671D0070F61D0000000200F0671D0070F61D00FFFFFFFFFFFFFFFF967500000000803F000000000000000000000000000080BF000000000000C0400000A040000000400200000000C000000040A4EE00DCFF3F00F79F4051E57F40810400410009A040
1004
00098040000060C0FFFF1FC002009675A8461F0000000100FFFFF0671D0068C41D000000020068C41D00F0671D0001000000FFFFFFFF9675000000000000000000000000803F00000000000080BF000000000000B0400000A040000080400200000060C0FFFF1FC0A4EE00DCFF3F00F79F4051E57F408104
1004
00410009A040000980400400003F0300204002009675D8491F0000000100FFFFF0671D0068C41D000000020068C41D00F0671D0001000000FFFFFFFF9675000000000000000000000000803F00000000000080BF000000000000B0400000A0400000804002000400003F03002040A4EE00EE3F4000F79F40
1004
000090BA001240400009A04000098040000000000000804002009675184C1F000000FFFF0100F0671D00000E1E0000000200F0671D00000E1E00FFFFFFFFFFFFFFFF96750000000080BF000000000000000000000000000080BF00000000000040400000A0400000000002000000000000008040A4EE00DC
1004
FF3F00F79F40000090BA001200400009A04000098040000000000000804002009675A0501F0000000100FFFFF0671D00E0681D0000000200E0681D00F0671D00FFFFFFFFFFFFFFFF96750000000080BF000000000000000000000000000080BF00000000000000400000A040000000000200000000000000
1004
8040A4EE00DCFF3F00F79F40000090BA810400410009A0407477D53A0100E0C00000A0C002009675384D1F0000000100FFFFF0671D00A8BE1D0000000200A8BE1D00F0671D0001000000FFFFFFFF967500000000000000000000000080BF00000000000080BF000000000000803F0000A040000000000200
1004
0100E0C00000A0C0A4EE00DCFF3F00F79F40000090BA810400410009A0407477D53A010000C0000080BF02009675E85D1E0000000100FFFFF0671D00A8BE1D0000000200A8BE1D00F0671D0001000000FFFFFFFF967500000000000000000000000080BF00000000000080BF000000000000803F0000A040
1004
000000000200010000C0000080BFA4EE00DCFF3F00F7DF40000090BA001200400009E04000098040000000C00000004002009675885A1E0000000100FFFFE0681D00D0691D0000000200D0691D00E0681D00FFFFFFFFFFFFFFFF96750000000000000000803F00000000000080BF00000000000000000000
1004
00400000E040000000400200000000C000000040A4EE00DCFF3F00F79F4051E57F40001200400009E0400009804000000000FFFFFF3F0200967590401E0000000100FFFFE0681D0068C41D000000020068C41D00E0681D0001000000FFFFFFFF9675000000000000000000000000803F000080BF00000000
1004
00000000000000400000E04000008040020000000000FFFFFF3FA4EE00DCFF3F00F79F40000090BA001200400009E0407477D53A00002040000090400200967580411E0000000100FFFFE0681D00A8BE1D0000000200A8BE1D00E0681D0001000000FFFFFFFF967500000000000000000000000080BF0000
1004
80BF000000000000000000000040000020400000000002000000204000009040A4EE00EE7F4000F7DF40000090BA000980400009E04000098040000080C00000008002009675F8551F0000000100FFFFD0691D0048CF1D000000020048CF1D00D0691D00FFFFFFFFFFFFFFFF967500000000803F00000000
1004
00000000000000000000803F00000000000080400000E040000080400200000080C000000080A4EE00DCFF3F00F7DF4051E57F40000980400009E04000098040FFFF1F400000904002009675E8561F0000000100FFFFD0691D0068C41D000000020068C41D00D0691D0001000000FFFFFFFF967500000000
1004
0000000000000000803F000000000000803F000000800000D0400000E040000080400200FFFF1F4000009040A4EE00DCFF3F00F7DF40000090BA000980400009E0407477D53A000000000000004002009675D8571F0000000100FFFFD0691D00A8BE1D0000000200A8BE1D00D0691D0001000000FFFFFFFF
1004
967500000000000000000000000080BF000000000000803F00000000000000400000E0400000000002000000000000000040A4EE00EE3F4000EE3F4051E57F400009C0400012404000098040FDFFFFBFF6FF7FBF02009675C8581F0000000100FFFF280D1E0068C41D000000020068C41D00280D1E000100
1004
0000FFFFFFFF9675000000000000000000000000803F00000000000080BF00000000FFFFBF4000004040000080400200FDFFFFBFF6FF7FBFA4EE00EE7F4000EE3F40000090BA000980400012404000098040000000C00000004002009675F85A1F000000FFFF0100280D1E0048CF1D0000000200280D1E00
1004
48CF1D00FFFFFFFFFFFFFFFF967500000000803F000000000000000000000000000080BF000000000000804000004040000000400200000000C000000040A4EE00EE3F4000EE3F40000090BA0009C040001240407477D53A000060C0000020C002009675E85B1F0000000100FFFF280D1E00A8BE1D000000
1004
0200A8BE1D00280D1E0001000000FFFFFFFF967500000000000000000000000080BF00000000000080BF000000000000C03F00004040000000000200000060C0000020C0A4EE00EE3F4000EE3F4051E57F40001240400009C04000098040F6FF7F3FFDFFFF3F02009675D85C1F0000000100FFFF000E1E00
1004
68C41D000000020068C41D00000E1E0001000000FFFFFFFF9675000000000000000000000000803F000080BF000000000000000000004040FFFFBF40000080400200F6FF7F3FFDFFFF3FA4EE00EE3F4000EE7F40000090BA001240400009804000098040000000C00000004002009675C85D1F000000FFFF
1004
0100000E1E0078CE1D0000000200000E1E0078CE1D00FFFFFFFFFFFFFFFF96750000000000000000803F00000000000080BF00000000000000000000404000008040000000400200000000C000000040A4EE00EE3F4000EE3F40000090BA001240400009C0407477D53A000020400000604002009675B85E
1004
1F0000000100FFFF000E1E00A8BE1D0000000200A8BE1D00000E1E0001000000FFFFFFFF967500000000000000000000000080BF000080BF0000000000000000000040400000C03F0000000002000000204000006040A4EE00EE3F4000F7BF4051E57F400009C0400009C040000980400000204001006040
1004
02009675A85F1F0000000100FFFFC0F91D0068C41D000000020068C41D00C0F91D0001000000FFFFFFFF9675000000000000000000000000803F000000000000803F000000800100F0400000C0400000804002000000204001006040A4EE00EE7F4000F7BF40000090BA000980400009C040000980400000
1004
80C0000000800200967598601F000000FFFF0100C0F91D0048CF1D0000000200C0F91D0048CF1D00FFFFFFFFFFFFFFFF967500000000803F0000000000000000000000000000803F00000000000080400000C040000080400200000080C000000080A4EE00EE3F4000F7BF40000090BA0009C0400009C040
1004
7477D53AFFFF7F3F010000400200967538371E0000000100FFFFC0F91D00A8BE1D0000000200A8BE1D00C0F91D0001000000FFFFFFFF967500000000000000000000000080BF000000000000803F00000000000040400000C040000000000200FFFF7F3F01000040A4EE00F7BF4000EE3F4051E57F400009
1004
C0400009C04000098040010060C0000020C00200967528381E0000000100FFFF70F61D0068C41D000000020068C41D0070F61D0001000000FFFFFFFF9675000000000000000000000000803F0000803F00000000000000000000C0400100F040000080400200010060C0000020C0A4EE00F7BF4000EE7F40
1004
000090BA0009C040000980400009804000000000000080400200967518391E000000FFFF010070F61D0078CE1D000000020070F61D0078CE1D00FFFFFFFFFFFFFFFF96750000000000000000803F000000000000803F00000080000000000000C040000080400000804002000000000000008040A4EE00F7
1004
BF4000EE3F40000090BA0009C0400009C0407477D53A010000C0FFFF7FBF02009675083A1E0000000100FFFF70F61D00A8BE1D0000000200A8BE1D0070F61D0001000000FFFFFFFF967500000000000000000000000080BF0000803F00000000000000000000C04000004040000000000200010000C0FFFF
1004
7FBFA4EE00EE7F4000B87F3F000090BA000980400024803F00098040000000C00000004002009675F83A1E0000000100FFFFD8CC1D0048CF1D000000020048CF1D00D8CC1D00FFFFFFFFFFFFFFFF967500000000803F000000000000000000000000000080BF0000000000008040FFFF7F3F000000400200
1004
000000C000000040A4EE00B87F3F00B87F3F51E57F40000980400024803F00098040010080C0020080BF02009675E83B1E0000000100FFFFD8CC1D0068C41D000000020068C41D00D8CC1D0001000000FFFFFFFF9675000000000000000000000000803F00000000000080BF000000000000A0400000803F
1004
000080400200010080C0020080BFA4EE00B87F3F00B87F3F000090BA0024803F0024803F00098040000000000000804002009675D83C1E0000000100FFFFD8CC1D00A8CD1D0000000200A8CD1D00D8CC1D00FFFFFFFFFFFFFFFF96750000000080BF000000000000000000000000000080BF000000000000
1004
803F0000803F0000000002000000000000008040A4EE00B87F3F00B87F3F000090BA000980400024803F7477D53A000060C0000000BF02009675C83D1E0000000100FFFFD8CC1D00A8BE1D0000000200A8BE1D00D8CC1D0001000000FFFFFFFF967500000000000000000000000080BF00000000000080BF
1004
000000000000003F0000803F000000000200000060C0000000BFA4EE00B87F3F00EE7F40000090BA0024803F0009804000098040000000C00000004002009675B83E1E0000000100FFFFA8CD1D0078CE1D000000020078CE1D00A8CD1D00FFFFFFFFFFFFFFFF96750000000000000000803F000000000000
1004
80BF0000000000000000FFFF7F3F00008040000000400200000000C000000040A4EE00B87F3F00B87F3F51E57F400024803F00098040000980400200803F0100804002009675E0A11D0000000100FFFFA8CD1D0068C41D000000020068C41D00A8CD1D0001000000FFFFFFFF967500000000000000000000
1004
0000803F000080BF00000000000000000000803F0000A0400000804002000200803F01008040A4EE00B87F3F00B87F3F000090BA0024803F000980407477D53A0000003F0000604002009675C8951D0000000100FFFFA8CD1D00A8BE1D0000000200A8BE1D00A8CD1D0001000000FFFFFFFF967500000000
1004
000000000000000080BF000080BF00000000000000000000803F0000003F0000000002000000003F00006040A4EE00B87F3F00EE7F4051E57F400009E0400009804000098040040000BFF6FFFF3E02009675B8961D0000000100FFFF78CE1D0068C41D000000020068C41D0078CE1D0001000000FFFFFFFF
1004
9675000000000000000000000000803F000000000000803F000000800000D04000008040000080400200040000BFF6FFFF3EA4EE00B87F3F00EE7F4051E57F400009E0400009804000098040FFFF5F400000B04002009675A8971D0000000100FFFF78CE1D0068C41D000000020068C41D0078CE1D000100
1004
0000FFFFFFFF9675000000000000000000000000803F000000000000803F000000800000D04000008040000080400200FFFF5F400000B040A4EE00B87F3F00EE7F40000090BA0009E040000980407477D53A000080BF0100803F0200967598981D0000000100FFFF78CE1D00A8BE1D0000000200A8BE1D00
1004
78CE1D0001000000FFFFFFFF967500000000000000000000000080BF000000000000803F000000000000004000008040000000000200000080BF0100803FA4EE00B87F3F00EE7F40000090BA0009E040000980407477D53A010080400000A0400200967588991D0000000100FFFF78CE1D00A8BE1D000000
1004
0200A8BE1D0078CE1D0001000000FFFFFFFF967500000000000000000000000080BF000000000000803F000000000000004000008040000000000200010080400000A040A4EE00EE7F4000B87F3F51E57F40000980400009E040000980400000B0C0FFFF5FC002009675789A1D0000000100FFFF48CF1D00
1004
68C41D000000020068C41D0048CF1D0001000000FFFFFFFF9675000000000000000000000000803F0000803F0000000000000000000080400000D0400000804002000000B0C0FFFF5FC0A4EE00EE7F4000B87F3F51E57F40000980400009E04000098040F6FFFFBE0400003F02009675689B1D0000000100
1004
FFFF48CF1D0068C41D000000020068C41D0048CF1D0001000000FFFFFFFF9675000000000000000000000000803F0000803F0000000000000000000080400000D040000080400200F6FFFFBE0400003FA4EE00EE7F4000B87F3F000090BA000980400009E0407477D53A0000A0C0010080C002009675589C
1004
1D0000000100FFFF48CF1D00A8BE1D0000000200A8BE1D0048CF1D0001000000FFFFFFFF967500000000000000000000000080BF0000803F000000000000000000008040000000400000000002000000A0C0010080C0A4EE00EE7F4000B87F3F000090BA000980400009E0407477D53A010080BF0000803F
1004
02009675489D1D0000000100FFFF48CF1D00A8BE1D0000000200A8BE1D0048CF1D0001000000FFFFFFFF967500000000000000000000000080BF0000803F00000000000000000000804000000040000000000200010080BF0000803FA4EE7477D5BA54F90F417477D5BAAC061041AC0610417477D53A0000
1004
90C00000904002009675389E1D000000FFFF0100A8BE1D0038C51D0000000200A8BE1D0038C51D00010000000100000096750000000000000000803F000000000000000000000000000080BF0000904000001041000000000200000090C000009040A4EE54F90F417477D5BA7477D5BAAC061041AC061041
1004
7477D53A000090C00000904002009675E0A51D000000FFFF0100A8BE1D0070C61D0000000200A8BE1D0070C61D000100000001000000967500000000803F00000000000000000000000000000000000080BF0000104100009040000000000200000090C000009040A4EE7477D5BA7477D5BA7477D5BA7477
1004
D53AAC0610417477D53A000010C10000008002009675D0A61D000000FFFF0100A8BE1D0098C31D0000000200A8BE1D0098C31D00010000000100000096750000000080BF00000000000000000000000000000000000080BF0000000000000000000000000200000010C100000080A4EE7477D5BA7477D5BA
1004
7477D5BAAC0610417477D53A7477D53A000000000000104102009675C0A71D000000FFFF0100A8BE1D00E8B01D0000000200A8BE1D00E8B01D0001000000010000009675000000000000000080BF000000000000000000000000000080BF00000000000000000000000002000000000000001041A4EE7477
1005
BE
  0
INSERT
  8
AME_FRZ
  5
BE
  2
AME_NIL
 10
1.0
 20
1.0
 30
1.0
1001
AME_SOL
1004
D5BA7477D5BA51E57F40AC0610417477D53A570D8040000090C00000904002009675B0A81D000000FFFF0100E8B01D0068C41D0000000200E8B01D0068C41D0001000000010000009675000000000000000000000000803F00000000000080BF000000000000904000000000000080400200000090C00000
1004
9040A4EE54F90F417477D5BA7477D5BAAC0610417477D53A570D8040000000C00000004002009675A0A91D000000FFFF0100E8B01D0070C61D0000000200E8B01D0070C61D000100000001000000967500000000803F000000000000000000000000000080BF000000000000104100000000000000400200
1004
000000C000000040A4EE7477D5BA7477D5BA7477D5BA7477D53A7477D53A570D804000000000000080400200967590AA1D000000FFFF0100E8B01D0098C31D0000000200E8B01D0098C31D00010000000100000096750000000080BF000000000000000000000000000080BF000000000000000000000000
1004
0000000002000000000000008040A4EE7477D5BA7477D5BA51E57F407477D53AAC061041570D8040000090C0000090400200967580AB1D000000FFFF010098C31D0068C41D000000020098C31D0068C41D0001000000010000009675000000000000000000000000803F000080BF00000000000000000000
1004
000000009040000080400200000090C000009040A4EE7477D5BA54F90F417477D5BA7477D53AAC061041570D8040000000C0000000400200967570AC1D000000FFFF010098C31D0038C51D000000020098C31D0038C51D00010000000100000096750000000000000000803F00000000000080BF00000000
1004
000000000000000000001041000000400200000000C000000040A4EE7477D5BA54F90F4151E57F40AC061041AC061041570D8040000010C1000000800200967560AD1D000000FFFF010068C41D0038C51D000000020068C41D0038C51D00010000000100000096750000000000000000803F000000000000
1004
0000000000000000803F0000104100001041000080400200000010C100000080A4EE54F90F417477D5BA51E57F40AC061041AC061041570D8040000000000000104102009675288A1D000000FFFF010068C41D0070C61D000000020068C41D0070C61D000100000001000000967500000000803F00000000
1004
0000000000000080000000000000803F00001041000010410000804002000000000000001041A4EE54F90F4154F90F417477D5BAAC061041AC061041570D8040000080C00000008002009675188B1D000000FFFF010038C51D0070C61D000000020038C51D0070C61D000100000001000000967500000000
1004
803F0000000000000000000000000000803F000000000000104100001041000080400200000080C00000008019FC
1005
BF
  0
INSERT
  8
AME_FRZ
  5
BF
  2
AME_NIL
 10
1.0
 20
1.0
 30
1.0
1001
AME_SOL
1004

1005
0
  0
INSERT
  8
AME_FRZ
  5
1DE
  2
*U8
 10
0.0
 20
0.0
 30
0.0
  0
INSERT
  8
AME_FRZ
  5
1E1
  2
AME_MAT
 10
0.0
 20
0.0
 30
0.0
1001
AME_SOL
1000
MILD_STEEL
1040
7860.0
1040
220.0
1040
0.275
1040
207.0
1040
345.0
1040
56.0
1040
12.0
1040
0.46
  0
ENDSEC
  0
EOF
