600 0 2 0           
24 FBMach with ACIS - 6.0.3 13 ACIS 6.0.3 NT 24 Tue May 22 12:28:28 2001 
1 9.9999999999999995e-007 1e-010 
body $2 $3 $-1 $4 #
bdycol-kcp $-1 1 2 $5 $6 #
model_id-kcp-attrib $-1 $-1 $-1 $0 1 990548908 80 743440385 1 #
lump $-1 $-1 $7 $0 #
transform $-1 1 0 0 0 1 0 0 0 1 0 0 0 1 no_rotate no_reflect no_shear #
body $8 $9 $-1 $10 #
body $11 $12 $-1 $13 #
shell $-1 $-1 $-1 $14 $-1 $3 #
model_id-kcp-attrib $-1 $-1 $-1 $5 1 990548908 80 743440386 1 #
lump $-1 $-1 $15 $5 #
transform $-1 1 0 0 0 1 0 0 0 1 0 0 0 1 no_rotate no_reflect no_shear #
rgb_color-st-attrib $-1 $16 $-1 $6 0.59999999999999998 0.90000000000000002 1 #
lump $-1 $-1 $17 $6 #
transform $-1 1 0 0 0 1 0 0 0 1 0 0 0 1 no_rotate no_reflect no_shear #
face $18 $19 $20 $7 $-1 $21 forward single #
shell $-1 $-1 $-1 $22 $-1 $9 #
model_id-kcp-attrib $-1 $-1 $11 $6 1 990548908 620 745275395 1 #
shell $-1 $-1 $-1 $23 $-1 $12 #
model_id-kcp-attrib $-1 $-1 $-1 $14 1 990548908 80 743440385 2 #
face $24 $25 $26 $7 $-1 $27 forward single #
loop $-1 $-1 $28 $14 #
plane-surface $-1 -20 -42.5 20 -1 0 0 0 0 1 reverse_v I I I I #
face $29 $30 $31 $15 $-1 $32 forward single #
face $-1 $33 $34 $17 $-1 $35 forward single #
model_id-kcp-attrib $-1 $-1 $-1 $19 1 990548908 80 743440385 3 #
face $36 $37 $38 $7 $-1 $39 forward single #
loop $-1 $-1 $40 $19 #
plane-surface $-1 -42.5 -20 20 0 -1 0 0 0 1 reverse_v I I I I #
coedge $-1 $41 $42 $43 $44 reversed $20 $-1 #
model_id-kcp-attrib $-1 $45 $-1 $22 1 990548908 80 743440386 8 #
face $46 $47 $48 $15 $-1 $49 reversed single #
loop $-1 $-1 $50 $22 #
plane-surface $-1 0 0 15 0 0 1 1 0 0 forward_v I I I I #
face $-1 $51 $52 $17 $-1 $53 forward single #
loop $-1 $-1 $54 $23 #
plane-surface $-1 -20 -60 5 0 -1 0 0 0 -1 forward_v I I I I #
model_id-kcp-attrib $-1 $-1 $-1 $25 1 990548908 80 743440385 4 #
face $55 $56 $57 $7 $-1 $58 forward single #
loop $-1 $-1 $59 $25 #
plane-surface $-1 -22.5 0 20 1 0 0 0 0 -1 forward_v I I I I #
coedge $-1 $60 $61 $62 $63 reversed $26 $-1 #
coedge $-1 $64 $28 $65 $66 forward $20 $-1 #
coedge $-1 $28 $64 $67 $68 reversed $20 $-1 #
coedge $-1 $69 $70 $28 $44 forward $71 $-1 #
edge $-1 $72 1.25 $73 38.75 $43 $74 forward 7 unknown #
model_id-kcp-attrib $-1 $75 $29 $22 1 990548908 80 743440386 7 #
model_id-kcp-attrib $-1 $-1 $-1 $30 1 990548908 80 743440386 9 #
face $76 $77 $78 $15 $-1 $79 reversed single #
loop $-1 $-1 $80 $30 #
plane-surface $-1 0 0 -15 0 0 1 1 0 0 forward_v I I I I #
coedge $-1 $81 $82 $83 $84 forward $31 $-1 #
face $-1 $85 $86 $17 $-1 $87 forward single #
loop $-1 $-1 $88 $33 #
plane-surface $-1 -60 -60 5 -1 0 0 0 0 1 forward_v I I I I #
coedge $-1 $89 $90 $91 $92 forward $34 $-1 #
model_id-kcp-attrib $-1 $-1 $-1 $37 1 990548908 80 743440385 5 #
face $93 $94 $95 $7 $-1 $96 forward single #
loop $-1 $-1 $97 $37 #
plane-surface $-1 -42.5 20 20 0 1 0 0 0 1 forward_v I I I I #
coedge $-1 $98 $99 $100 $101 reversed $38 $-1 #
coedge $-1 $102 $40 $103 $104 reversed $26 $-1 #
coedge $-1 $40 $102 $105 $106 reversed $26 $-1 #
coedge $-1 $107 $108 $40 $63 forward $109 $-1 #
edge $110 $111 -5 $112 5 $62 $113 forward 7 unknown #
coedge $-1 $42 $41 $114 $115 reversed $20 $-1 #
coedge $-1 $116 $117 $41 $66 reversed $118 $-1 #
edge $-1 $72 5 $119 15 $65 $120 forward 7 unknown #
coedge $-1 $121 $122 $42 $68 forward $123 $-1 #
edge $124 $73 -5 $125 5 $67 $126 forward 7 unknown #
coedge $-1 $127 $43 $122 $128 forward $71 $-1 #
coedge $-1 $43 $127 $116 $129 forward $71 $-1 #
loop $-1 $-1 $43 $130 #
vertex $-1 $44 $131 #
vertex $-1 $68 $132 #
straight-curve $-1 -20 -21.25 15 0 -1 0 I I #
model_id-kcp-attrib $-1 $133 $45 $22 1 990548908 80 743440386 6 #
model_id-kcp-attrib $-1 $-1 $-1 $47 1 990548908 80 743440386 2 #
face $134 $135 $136 $15 $-1 $137 reversed single #
loop $-1 $-1 $138 $47 #
plane-surface $-1 0 -60 0 0 1 0 0 0 1 forward_v I I I I #
coedge $-1 $139 $140 $141 $142 forward $48 $-1 #
coedge $-1 $143 $50 $144 $145 forward $31 $-1 #
coedge $-1 $50 $143 $146 $147 forward $31 $-1 #
coedge $-1 $148 $149 $50 $84 reversed $150 $-1 #
edge $-1 $151 -60 $152 60 $83 $153 forward 7 unknown #
face $-1 $154 $155 $17 $-1 $156 forward single #
loop $-1 $-1 $157 $51 #
plane-surface $-1 -60 -20 5 0 1 0 0 0 1 forward_v I I I I #
coedge $-1 $158 $159 $160 $161 forward $52 $-1 #
coedge $-1 $162 $54 $159 $163 reversed $34 $-1 #
coedge $-1 $54 $162 $164 $165 forward $34 $-1 #
coedge $-1 $166 $160 $54 $92 reversed $167 $-1 #
edge $-1 $168 20 $169 60 $54 $170 forward 7 unknown #
model_id-kcp-attrib $-1 $-1 $-1 $56 1 990548908 80 743440385 6 #
face $171 $172 $173 $7 $-1 $174 forward single #
loop $-1 $-1 $175 $56 #
plane-surface $-1 0 0 5 0 0 1 1 0 0 forward_v I I I I #
coedge $-1 $176 $177 $178 $179 reversed $57 $-1 #
coedge $-1 $180 $59 $102 $181 reversed $38 $-1 #
coedge $-1 $59 $180 $176 $182 forward $38 $-1 #
coedge $-1 $178 $105 $59 $101 forward $183 $-1 #
edge $-1 $184 -20 $185 20 $100 $186 forward 7 unknown #
coedge $-1 $61 $60 $98 $181 forward $26 $-1 #
coedge $-1 $187 $188 $60 $104 forward $95 $-1 #
edge $-1 $189 -20 $111 17.5 $60 $190 forward 7 unknown #
coedge $-1 $100 $191 $61 $106 forward $183 $-1 #
edge $-1 $112 -38.75 $184 -1.25 $105 $192 forward 7 unknown #
coedge $-1 $193 $62 $191 $194 reversed $109 $-1 #
coedge $-1 $62 $195 $187 $196 forward $109 $-1 #
loop $-1 $-1 $108 $197 #
attrib_edge_convexity-kcp-attrib $-1 $198 $-1 $63 1 #
vertex $-1 $63 $199 #
vertex $-1 $194 $200 #
straight-curve $-1 -60 -20 10 0 0 1 I I #
coedge $-1 $201 $175 $64 $115 forward $95 $-1 #
edge $-1 $125 -17.5 $119 20 $64 $202 forward 7 unknown #
coedge $-1 $203 $65 $70 $129 reversed $118 $-1 #
coedge $-1 $65 $203 $201 $204 forward $118 $-1 #
loop $-1 $-1 $116 $205 #
vertex $-1 $204 $206 #
straight-curve $-1 -20 -22.5 20 0 0 -1 I I #
coedge $-1 $207 $67 $175 $208 forward $123 $-1 #
coedge $-1 $67 $209 $69 $128 reversed $123 $-1 #
loop $-1 $-1 $67 $210 #
attrib_edge_convexity-kcp-attrib $-1 $211 $-1 $68 1 #
vertex $-1 $68 $212 #
straight-curve $-1 -20 -60 10 0 0 -1 I I #
coedge $-1 $70 $69 $213 $214 forward $71 $-1 #
edge $215 $73 -20 $216 20 $122 $217 forward 7 unknown #
edge $-1 $218 -20 $72 20 $70 $219 forward 7 unknown #
face $220 $221 $71 $7 $-1 $222 forward single #
point $-1 -20 -22.5 15 #
point $-1 -20 -60 15 #
model_id-kcp-attrib $-1 $-1 $75 $22 1 990548908 80 743440386 5 #
model_id-kcp-attrib $-1 $-1 $-1 $77 1 990548908 80 743440386 3 #
face $223 $224 $225 $15 $-1 $226 reversed single #
loop $-1 $-1 $227 $77 #
plane-surface $-1 -60 0 0 1 0 0 0 0 -1 forward_v I I I I #
coedge $-1 $228 $146 $229 $230 forward $78 $-1 #
coedge $-1 $231 $80 $228 $232 forward $48 $-1 #
coedge $-1 $80 $231 $233 $234 forward $48 $-1 #
coedge $-1 $149 $148 $80 $142 reversed $150 $-1 #
edge $-1 $235 -60 $236 60 $141 $237 forward 7 unknown #
coedge $-1 $82 $81 $238 $239 forward $31 $-1 #
coedge $-1 $240 $241 $81 $145 reversed $225 $-1 #
edge $-1 $152 -60 $242 60 $144 $243 forward 7 unknown #
coedge $-1 $138 $244 $82 $147 reversed $78 $-1 #
edge $-1 $245 -60 $151 60 $146 $246 forward 7 unknown #
coedge $-1 $141 $83 $244 $247 forward $150 $-1 #
coedge $-1 $83 $141 $240 $248 reversed $150 $-1 #
loop $-1 $-1 $148 $224 #
vertex $-1 $84 $249 #
vertex $-1 $84 $250 #
straight-curve $-1 60 0 15 0 1 0 I I #
face $-1 $251 $252 $17 $-1 $253 forward single #
loop $-1 $-1 $254 $85 #
plane-surface $-1 -22.5 -20 5 -1 0 0 0 0 1 forward_v I I I I #
coedge $-1 $255 $256 $257 $258 forward $86 $-1 #
coedge $-1 $259 $88 $256 $260 reversed $52 $-1 #
coedge $-1 $88 $259 $89 $163 forward $52 $-1 #
coedge $-1 $91 $257 $88 $161 reversed $167 $-1 #
edge $-1 $169 -60 $261 -20 $88 $262 forward 7 unknown #
coedge $-1 $90 $89 $263 $264 reversed $34 $-1 #
edge $-1 $265 0 $169 10 $159 $266 forward 7 unknown #
coedge $-1 $267 $268 $90 $165 reversed $269 $-1 #
edge $-1 $270 0 $168 10 $90 $271 forward 7 unknown #
coedge $-1 $272 $91 $268 $273 reversed $167 $-1 #
loop $-1 $-1 $91 $274 #
vertex $-1 $165 $275 #
vertex $-1 $163 $276 #
straight-curve $-1 0 -60 15 -1 0 0 I I #
model_id-kcp-attrib $-1 $-1 $-1 $94 1 990548908 80 743440385 7 #
face $277 $278 $279 $7 $-1 $280 forward single #
loop $-1 $-1 $281 $94 #
plane-surface $-1 -20 42.5 20 -1 0 0 0 0 1 forward_v I I I I #
coedge $-1 $114 $187 $121 $208 reversed $95 $-1 #
coedge $-1 $282 $97 $99 $182 reversed $57 $-1 #
coedge $-1 $97 $282 $193 $283 reversed $57 $-1 #
coedge $-1 $191 $100 $97 $179 forward $183 $-1 #
edge $-1 $185 1.25 $284 38.75 $178 $285 forward 7 unknown #
coedge $-1 $99 $98 $188 $286 reversed $38 $-1 #
edge $-1 $189 -15 $184 -5 $98 $287 forward 7 unknown #
edge $-1 $288 -15 $185 -5 $99 $289 reversed 7 unknown #
loop $-1 $-1 $105 $290 #
vertex $-1 $106 $291 #
vertex $-1 $101 $292 #
straight-curve $-1 -22.5 0 15 0 1 0 I I #
coedge $-1 $175 $103 $108 $196 reversed $95 $-1 #
coedge $-1 $103 $293 $180 $286 forward $95 $-1 #
vertex $-1 $286 $294 #
straight-curve $-1 -42.5 -20 5 -1 0 0 I I #
coedge $-1 $105 $178 $107 $194 forward $183 $-1 #
straight-curve $-1 -21.25 -20 15 1 0 0 I I #
coedge $-1 $295 $107 $177 $283 forward $109 $-1 #
edge $296 $284 -20 $112 20 $107 $297 forward 7 unknown #
coedge $-1 $108 $298 $207 $299 reversed $109 $-1 #
edge $300 $301 -60 $111 -20 $108 $302 forward 7 unknown #
face $303 $304 $109 $7 $-1 $305 reversed single #
convexity-sys-attrib $-1 $-1 $110 $63 #
point $-1 -60 -20 5 #
point $-1 -60 -20 15 #
coedge $-1 $306 $114 $117 $204 reversed $95 $-1 #
straight-curve $-1 -20 -42.5 5 0 1 0 I I #
coedge $-1 $117 $116 $307 $308 reversed $118 $-1 #
edge $-1 $309 -20 $119 20 $117 $310 forward 7 unknown #
face $311 $312 $118 $7 $-1 $313 forward single #
point $-1 -20 -22.5 5 #
coedge $-1 $314 $121 $195 $299 forward $123 $-1 #
edge $315 $125 20 $301 60 $121 $316 forward 7 unknown #
coedge $-1 $122 $317 $318 $319 forward $123 $-1 #
face $320 $197 $123 $7 $-1 $321 reversed single #
convexity-sys-attrib $-1 $-1 $124 $68 #
point $-1 -20 -60 5 #
coedge $-1 $318 $307 $127 $214 reversed $322 $-1 #
edge $-1 $216 -38.75 $218 -1.25 $127 $323 forward 7 unknown #
attrib_edge_convexity-kcp-attrib $-1 $324 $-1 $128 1 #
vertex $-1 $128 $325 #
straight-curve $-1 0 -60 15 1 0 0 I I #
vertex $-1 $214 $326 #
straight-curve $-1 0 -22.5 15 -1 0 0 I I #
model_id-kcp-attrib $-1 $-1 $-1 $130 1 990548908 80 743440385 21 #
face $327 $328 $329 $7 $-1 $330 reversed single #
plane-surface $-1 0 0 15 0 0 1 1 0 0 forward_v I I I I #
model_id-kcp-attrib $-1 $-1 $-1 $135 1 990548908 80 743440386 4 #
face $331 $-1 $150 $15 $-1 $332 reversed single #
loop $-1 $-1 $240 $135 #
plane-surface $-1 0 60 0 0 -1 0 0 0 -1 forward_v I I I I #
coedge $-1 $333 $238 $241 $334 forward $136 $-1 #
coedge $-1 $244 $138 $139 $232 reversed $78 $-1 #
coedge $-1 $238 $333 $138 $230 reversed $136 $-1 #
edge $-1 $245 -15 $335 15 $229 $336 forward 7 unknown #
coedge $-1 $140 $139 $333 $337 forward $48 $-1 #
edge $-1 $236 -60 $335 60 $228 $338 forward 7 unknown #
coedge $-1 $241 $240 $140 $234 reversed $225 $-1 #
edge $-1 $339 -60 $235 60 $233 $340 forward 7 unknown #
vertex $-1 $142 $341 #
vertex $-1 $247 $342 #
straight-curve $-1 60 0 -15 0 -1 0 I I #
coedge $-1 $227 $229 $143 $239 reversed $136 $-1 #
edge $-1 $242 -60 $245 60 $238 $343 forward 7 unknown #
coedge $-1 $233 $144 $149 $248 forward $225 $-1 #
coedge $-1 $144 $233 $227 $334 reversed $225 $-1 #
vertex $-1 $145 $344 #
straight-curve $-1 0 60 15 -1 0 0 I I #
coedge $-1 $146 $228 $148 $247 reversed $78 $-1 #
vertex $-1 $239 $345 #
straight-curve $-1 0 -60 15 1 0 0 I I #
edge $-1 $151 -15 $236 15 $148 $346 forward 7 unknown #
edge $-1 $152 -15 $235 15 $149 $347 forward 7 unknown #
point $-1 60 -60 15 #
point $-1 60 60 15 #
face $-1 $348 $349 $17 $-1 $350 forward single #
loop $-1 $-1 $351 $154 #
plane-surface $-1 -22.5 20 5 0 -1 0 0 0 -1 forward_v I I I I #
coedge $-1 $352 $353 $354 $355 forward $155 $-1 #
coedge $-1 $356 $157 $353 $357 reversed $86 $-1 #
coedge $-1 $157 $356 $158 $260 forward $86 $-1 #
coedge $-1 $160 $354 $157 $258 reversed $167 $-1 #
edge $-1 $261 -38.75 $358 -1.25 $157 $359 forward 7 unknown #
coedge $-1 $159 $158 $360 $361 reversed $52 $-1 #
edge $-1 $362 0 $261 10 $256 $363 forward 7 unknown #
vertex $-1 $260 $364 #
straight-curve $-1 -60 0 15 0 1 0 I I #
coedge $-1 $360 $365 $162 $264 forward $366 $-1 #
edge $367 $270 20 $265 60 $162 $368 forward 7 unknown #
vertex $-1 $264 $369 #
straight-curve $-1 -60 -60 5 0 0 1 I I #
coedge $-1 $370 $164 $365 $371 reversed $269 $-1 #
coedge $-1 $164 $370 $166 $273 forward $269 $-1 #
loop $-1 $-1 $268 $372 #
vertex $-1 $371 $373 #
straight-curve $-1 -20 -60 5 0 0 1 I I #
coedge $-1 $374 $166 $375 $376 reversed $167 $-1 #
edge $-1 $377 1.25 $168 38.75 $268 $378 forward 7 unknown #
face $-1 $379 $167 $17 $-1 $380 forward single #
point $-1 -20 -60 15 #
point $-1 -60 -60 15 #
model_id-kcp-attrib $-1 $-1 $-1 $172 1 990548908 80 743440385 8 #
face $381 $382 $383 $7 $-1 $384 forward single #
loop $-1 $-1 $385 $172 #
plane-surface $-1 0 22.5 20 0 -1 0 0 0 -1 forward_v I I I I #
coedge $-1 $386 $387 $388 $389 reversed $173 $-1 #
coedge $-1 $177 $176 $293 $390 forward $57 $-1 #
edge $391 $284 -5 $392 5 $193 $393 forward 7 unknown #
vertex $-1 $283 $394 #
straight-curve $-1 -21.25 20 15 -1 0 0 I I #
edge $-1 $288 -20 $189 20 $180 $395 reversed 7 unknown #
straight-curve $-1 -22.5 -20 20 0 0 1 I I #
vertex $-1 $286 $396 #
straight-curve $-1 -22.5 20 20 0 0 -1 I I #
face $397 $398 $183 $7 $-1 $222 forward single #
point $-1 -22.5 -20 15 #
point $-1 -22.5 20 15 #
coedge $-1 $188 $399 $282 $390 reversed $95 $-1 #
point $-1 -22.5 -20 5 #
coedge $-1 $400 $193 $399 $401 forward $109 $-1 #
attrib_edge_convexity-kcp-attrib $-1 $402 $-1 $194 1 #
straight-curve $-1 -60 0 15 0 -1 0 I I #
coedge $-1 $195 $400 $403 $404 reversed $109 $-1 #
edge $405 $301 -5 $406 15 $195 $407 forward 7 unknown #
attrib_edge_convexity-kcp-attrib $-1 $408 $-1 $196 1 #
vertex $-1 $196 $409 #
straight-curve $-1 -60 0 5 0 1 0 I I #
model_id-kcp-attrib $-1 $-1 $-1 $197 1 990548908 80 743440385 16 #
face $410 $411 $412 $7 $-1 $413 reversed single #
plane-surface $-1 -60 0 0 1 0 0 0 0 -1 forward_v I I I I #
coedge $-1 $414 $201 $415 $416 forward $95 $-1 #
coedge $-1 $213 $415 $203 $308 forward $322 $-1 #
edge $-1 $309 -15 $218 -5 $203 $417 forward 7 unknown #
vertex $-1 $204 $418 #
straight-curve $-1 0 -22.5 5 -1 0 0 I I #
model_id-kcp-attrib $-1 $-1 $-1 $205 1 990548908 80 743440385 11 #
face $419 $420 $421 $7 $-1 $422 forward single #
plane-surface $-1 0 -22.5 20 0 1 0 0 0 1 forward_v I I I I #
coedge $-1 $423 $207 $424 $425 reversed $123 $-1 #
attrib_edge_convexity-kcp-attrib $-1 $426 $-1 $208 1 #
straight-curve $-1 0 -60 5 -1 0 0 I I #
coedge $-1 $209 $423 $414 $427 forward $123 $-1 #
coedge $-1 $415 $213 $209 $319 reversed $322 $-1 #
edge $428 $429 -5 $216 5 $209 $430 forward 7 unknown #
model_id-kcp-attrib $-1 $-1 $-1 $210 1 990548908 80 743440385 15 #
plane-surface $-1 0 -60 0 0 1 0 0 0 1 forward_v I I I I #
loop $-1 $-1 $213 $382 #
straight-curve $-1 20 -21.25 15 0 1 0 I I #
convexity-sys-attrib $-1 $-1 $215 $128 #
point $-1 20 -60 15 #
point $-1 20 -22.5 15 #
model_id-kcp-attrib $-1 $-1 $-1 $221 1 990548908 80 743440385 22 #
face $431 $-1 $432 $7 $-1 $433 reversed single #
loop $-1 $-1 $434 $221 #
plane-surface $-1 0 0 -15 0 0 1 1 0 0 forward_v I I I I #
model_id-kcp-attrib $-1 $-1 $-1 $224 1 990548908 80 743440386 10 #
plane-surface $-1 60 0 0 -1 0 0 0 0 1 forward_v I I I I #
coedge $-1 $229 $227 $231 $337 reversed $136 $-1 #
edge $-1 $242 -15 $339 15 $241 $435 forward 7 unknown #
vertex $-1 $337 $436 #
straight-curve $-1 -60 -60 0 0 0 -1 I I #
edge $-1 $335 -60 $339 60 $333 $437 forward 7 unknown #
straight-curve $-1 0 -60 -15 -1 0 0 I I #
vertex $-1 $234 $438 #
straight-curve $-1 0 60 -15 1 0 0 I I #
point $-1 60 60 -15 #
point $-1 60 -60 -15 #
straight-curve $-1 -60 0 15 0 -1 0 I I #
point $-1 -60 60 15 #
point $-1 -60 -60 15 #
straight-curve $-1 60 -60 0 0 0 -1 I I #
straight-curve $-1 60 60 0 0 0 -1 I I #
face $-1 $439 $440 $17 $-1 $441 forward single #
loop $-1 $-1 $442 $251 #
plane-surface $-1 -60 20 5 -1 0 0 0 0 1 forward_v I I I I #
coedge $-1 $443 $444 $445 $446 forward $252 $-1 #
coedge $-1 $447 $254 $444 $448 reversed $155 $-1 #
coedge $-1 $254 $447 $255 $357 forward $155 $-1 #
coedge $-1 $257 $445 $254 $355 reversed $167 $-1 #
edge $-1 $358 -20 $449 20 $254 $450 forward 7 unknown #
coedge $-1 $256 $255 $451 $452 reversed $86 $-1 #
edge $453 $454 0 $358 10 $353 $455 forward 7 unknown #
vertex $-1 $357 $456 #
straight-curve $-1 -21.25 -20 15 1 0 0 I I #
coedge $-1 $451 $263 $259 $361 forward $366 $-1 #
edge $457 $265 -60 $362 -20 $259 $458 forward 7 unknown #
vertex $-1 $361 $459 #
straight-curve $-1 -60 -20 5 0 0 1 I I #
point $-1 -60 -20 15 #
coedge $-1 $263 $460 $267 $371 forward $366 $-1 #
loop $-1 $-1 $365 $379 #
convexity-sys-attrib $-1 $-1 $-1 $264 #
straight-curve $-1 0 -60 5 -1 0 0 I I #
point $-1 -60 -60 5 #
coedge $-1 $268 $267 $461 $462 forward $269 $-1 #
edge $463 $464 1.25 $270 38.75 $267 $465 forward 7 unknown #
face $-1 $274 $269 $17 $-1 $466 forward single #
point $-1 -20 -60 5 #
coedge $-1 $467 $272 $468 $469 reversed $167 $-1 #
coedge $-1 $461 $470 $272 $376 forward $471 $-1 #
edge $-1 $472 -20 $377 20 $375 $473 forward 7 unknown #
vertex $-1 $462 $474 #
straight-curve $-1 -20 -21.25 15 0 -1 0 I I #
face $-1 $-1 $366 $17 $-1 $475 reversed single #
plane-surface $-1 -1.7763568394002505e-015 0 15 0 0 1 1 0 0 forward_v I I I I #
model_id-kcp-attrib $-1 $-1 $-1 $278 1 990548908 80 743440385 9 #
face $476 $205 $322 $7 $-1 $477 forward single #
loop $-1 $-1 $478 $278 #
plane-surface $-1 42.5 -20 20 0 -1 0 0 0 1 reverse_v I I I I #
coedge $-1 $479 $480 $481 $482 reversed $279 $-1 #
coedge $-1 $483 $281 $484 $485 forward $173 $-1 #
coedge $-1 $281 $483 $486 $487 reversed $173 $-1 #
coedge $-1 $488 $489 $281 $389 forward $412 $-1 #
edge $-1 $490 -5 $491 5 $388 $492 forward 7 unknown #
edge $-1 $288 -20 $392 17.5 $282 $493 forward 7 unknown #
attrib_edge_convexity-kcp-attrib $-1 $494 $-1 $283 1 #
vertex $-1 $401 $495 #
straight-curve $-1 -60 20 10 0 0 -1 I I #
point $-1 -60 20 15 #
straight-curve $-1 -22.5 0 5 0 1 0 I I #
point $-1 -22.5 20 5 #
model_id-kcp-attrib $-1 $-1 $-1 $290 1 990548908 80 743440385 19 #
face $496 $130 $497 $7 $-1 $222 forward single #
coedge $-1 $293 $498 $295 $401 reversed $95 $-1 #
coedge $-1 $298 $295 $499 $500 forward $109 $-1 #
edge $501 $392 20 $502 60 $295 $302 forward 7 unknown #
convexity-sys-attrib $-1 $-1 $296 $194 #
coedge $-1 $503 $424 $298 $404 forward $329 $-1 #
edge $504 $406 -60 $505 60 $298 $506 forward 7 unknown #
attrib_edge_convexity-kcp-attrib $-1 $507 $-1 $299 1 #
vertex $-1 $404 $508 #
straight-curve $-1 -60 -60 0 0 0 -1 I I #
convexity-sys-attrib $-1 $-1 $300 $196 #
point $-1 -60 -60 5 #
model_id-kcp-attrib $-1 $-1 $-1 $304 1 990548908 80 743440385 17 #
face $509 $290 $510 $7 $-1 $222 forward single #
loop $-1 $-1 $489 $304 #
plane-surface $-1 0 60 0 0 -1 0 0 0 -1 forward_v I I I I #
coedge $-1 $511 $306 $317 $427 reversed $95 $-1 #
coedge $-1 $307 $318 $306 $416 reversed $322 $-1 #
edge $-1 $309 -20 $429 17.5 $415 $512 forward 7 unknown #
straight-curve $-1 20 -22.5 20 0 0 1 I I #
point $-1 20 -22.5 5 #
model_id-kcp-attrib $-1 $-1 $-1 $312 1 990548908 80 743440385 12 #
face $513 $514 $515 $7 $-1 $516 forward single #
loop $-1 $-1 $517 $312 #
plane-surface $-1 42.5 20 20 0 1 0 0 0 1 forward_v I I I I #
coedge $-1 $317 $314 $518 $519 reversed $123 $-1 #
coedge $-1 $403 $434 $314 $425 forward $329 $-1 #
edge $520 $521 -60 $406 60 $314 $522 forward 7 unknown #
convexity-sys-attrib $-1 $-1 $315 $208 #
edge $523 $524 -60 $429 -20 $317 $316 forward 7 unknown #
attrib_edge_convexity-kcp-attrib $-1 $525 $-1 $319 1 #
vertex $-1 $319 $526 #
straight-curve $-1 20 -60 10 0 0 1 I I #
model_id-kcp-attrib $-1 $-1 $-1 $328 1 990548908 80 743440385 23 #
loop $-1 $-1 $527 $328 #
plane-surface $-1 60 0 0 -1 0 0 0 0 1 forward_v I I I I #
coedge $-1 $424 $503 $528 $529 forward $329 $-1 #
straight-curve $-1 -60 60 0 0 0 -1 I I #
point $-1 -60 -60 -15 #
straight-curve $-1 -60 0 -15 0 1 0 I I #
point $-1 -60 60 -15 #
face $-1 $530 $531 $17 $-1 $532 forward single #
loop $-1 $-1 $533 $348 #
plane-surface $-1 -60 60 5 0 1 0 0 0 1 forward_v I I I I #
coedge $-1 $534 $535 $536 $537 forward $349 $-1 #
coedge $-1 $538 $351 $535 $539 reversed $252 $-1 #
coedge $-1 $351 $538 $352 $448 forward $252 $-1 #
coedge $-1 $354 $536 $351 $446 reversed $167 $-1 #
edge $-1 $449 1.25 $540 38.75 $351 $541 forward 7 unknown #
coedge $-1 $353 $352 $542 $543 reversed $155 $-1 #
edge $-1 $544 0 $449 10 $444 $545 forward 7 unknown #
vertex $-1 $448 $546 #
straight-curve $-1 -22.5 0 15 0 1 0 I I #
coedge $-1 $542 $360 $356 $452 forward $366 $-1 #
edge $547 $362 -38.75 $454 -1.25 $356 $548 forward 7 unknown #
convexity-sys-attrib $-1 $-1 $-1 $357 #
vertex $-1 $452 $549 #
straight-curve $-1 -22.5 -20 5 0 0 1 I I #
point $-1 -22.5 -20 15 #
convexity-sys-attrib $-1 $-1 $-1 $361 #
straight-curve $-1 -60 0 5 0 1 0 I I #
point $-1 -60 -20 5 #
coedge $-1 $365 $550 $551 $552 forward $366 $-1 #
coedge $-1 $551 $375 $370 $462 reversed $471 $-1 #
edge $-1 $464 0 $377 10 $370 $553 forward 7 unknown #
convexity-sys-attrib $-1 $-1 $-1 $371 #
vertex $-1 $371 $554 #
straight-curve $-1 -20 -21.25 5 0 -1 0 I I #
plane-surface $-1 -20 -22.5 5 1 0 0 0 0 -1 forward_v I I I I #
coedge $-1 $555 $374 $556 $557 reversed $167 $-1 #
coedge $-1 $558 $559 $374 $469 forward $560 $-1 #
edge $-1 $561 -38.75 $472 -1.25 $468 $562 forward 7 unknown #
coedge $-1 $375 $551 $558 $563 forward $471 $-1 #
loop $-1 $-1 $375 $564 #
vertex $-1 $563 $565 #
straight-curve $-1 0 -22.5 15 -1 0 0 I I #
point $-1 -20 -22.5 15 #
plane-surface $-1 -1.7763568394002505e-015 0 5 0 0 1 1 0 0 forward_v I I I I #
model_id-kcp-attrib $-1 $-1 $-1 $382 1 990548908 80 743440385 10 #
plane-surface $-1 20 -42.5 20 1 0 0 0 0 -1 reverse_v I I I I #
coedge $-1 $566 $567 $568 $569 reversed $383 $-1 #
coedge $-1 $570 $385 $483 $571 forward $279 $-1 #
coedge $-1 $385 $570 $572 $573 forward $279 $-1 #
coedge $-1 $574 $486 $385 $482 forward $510 $-1 #
edge $575 $576 -20 $577 20 $481 $578 forward 7 unknown #
coedge $-1 $387 $386 $479 $571 reversed $173 $-1 #
coedge $-1 $498 $579 $386 $485 reversed $95 $-1 #
edge $-1 $490 -17.5 $580 20 $386 $581 forward 7 unknown #
coedge $-1 $481 $582 $387 $487 forward $510 $-1 #
edge $583 $491 -38.75 $576 -1.25 $486 $584 forward 7 unknown #
coedge $-1 $585 $388 $582 $586 reversed $412 $-1 #
coedge $-1 $388 $499 $498 $587 forward $412 $-1 #
vertex $-1 $587 $588 #
vertex $-1 $586 $589 #
straight-curve $-1 -20 60 10 0 0 1 I I #
straight-curve $-1 -42.5 20 5 -1 0 0 I I #
convexity-sys-attrib $-1 $-1 $391 $283 #
point $-1 -60 20 5 #
model_id-kcp-attrib $-1 $-1 $-1 $398 1 990548908 80 743440385 20 #
loop $-1 $-1 $590 $398 #
coedge $-1 $399 $484 $489 $587 reversed $95 $-1 #
coedge $-1 $489 $591 $400 $500 reversed $412 $-1 #
edge $592 $502 -5 $505 15 $499 $593 forward 7 unknown #
attrib_edge_convexity-kcp-attrib $-1 $594 $-1 $401 1 #
vertex $-1 $587 $595 #
coedge $-1 $434 $403 $591 $596 forward $329 $-1 #
attrib_edge_convexity-kcp-attrib $-1 $597 $-1 $404 1 #
vertex $-1 $596 $598 #
straight-curve $-1 -60 0 -15 0 1 0 I I #
convexity-sys-attrib $-1 $-1 $405 $299 #
point $-1 -60 -60 -15 #
model_id-kcp-attrib $-1 $-1 $-1 $411 1 990548908 80 743440385 18 #
loop $-1 $-1 $486 $411 #
coedge $-1 $599 $414 $527 $600 reversed $95 $-1 #
straight-curve $-1 20 -42.5 5 0 -1 0 I I #
model_id-kcp-attrib $-1 $-1 $-1 $420 1 990548908 80 743440385 13 #
face $601 $210 $602 $7 $-1 $603 forward single #
loop $-1 $-1 $604 $420 #
plane-surface $-1 20 42.5 20 1 0 0 0 0 -1 forward_v I I I I #
coedge $-1 $605 $606 $607 $608 reversed $421 $-1 #
coedge $-1 $528 $527 $423 $519 forward $432 $-1 #
edge $609 $524 -5 $521 15 $518 $610 forward 7 unknown #
attrib_edge_convexity-kcp-attrib $-1 $611 $-1 $425 1 #
vertex $-1 $519 $612 #
straight-curve $-1 0 -60 -15 -1 0 0 I I #
attrib_edge_convexity-kcp-attrib $-1 $613 $-1 $427 1 #
vertex $-1 $600 $614 #
convexity-sys-attrib $-1 $-1 $428 $319 #
point $-1 20 -60 5 #
coedge $-1 $518 $568 $511 $600 forward $432 $-1 #
coedge $-1 $615 $518 $434 $529 reversed $432 $-1 #
edge $-1 $616 -60 $521 60 $528 $617 forward 7 unknown #
face $-1 $618 $619 $17 $-1 $620 forward single #
loop $-1 $-1 $621 $439 #
plane-surface $-1 -20 60 5 1 0 0 0 0 -1 forward_v I I I I #
coedge $-1 $622 $623 $624 $625 forward $440 $-1 #
coedge $-1 $626 $442 $623 $627 reversed $349 $-1 #
coedge $-1 $442 $626 $443 $539 forward $349 $-1 #
coedge $-1 $445 $624 $442 $537 reversed $167 $-1 #
edge $-1 $540 20 $628 60 $442 $629 forward 7 unknown #
coedge $-1 $444 $443 $630 $631 reversed $252 $-1 #
edge $-1 $632 0 $540 10 $535 $633 forward 7 unknown #
vertex $-1 $539 $634 #
straight-curve $-1 -21.25 20 15 -1 0 0 I I #
coedge $-1 $630 $451 $447 $543 forward $366 $-1 #
edge $635 $454 -20 $544 20 $447 $636 forward 7 unknown #
vertex $-1 $543 $637 #
straight-curve $-1 -22.5 20 5 0 0 1 I I #
point $-1 -22.5 20 15 #
convexity-sys-attrib $-1 $-1 $-1 $452 #
straight-curve $-1 -21.25 -20 5 1 0 0 I I #
point $-1 -22.5 -20 5 #
coedge $-1 $460 $638 $639 $640 forward $366 $-1 #
coedge $-1 $470 $461 $460 $552 reversed $471 $-1 #
edge $641 $642 -20 $464 20 $551 $643 forward 7 unknown #
straight-curve $-1 -20 -22.5 5 0 0 1 I I #
point $-1 -20 -22.5 5 #
coedge $-1 $644 $467 $645 $646 reversed $167 $-1 #
coedge $-1 $647 $648 $467 $557 forward $649 $-1 #
edge $-1 $650 -60 $561 -20 $556 $651 forward 7 unknown #
coedge $-1 $639 $468 $470 $563 reversed $560 $-1 #
coedge $-1 $468 $639 $647 $652 forward $560 $-1 #
loop $-1 $-1 $468 $653 #
vertex $-1 $652 $654 #
straight-curve $-1 20 -21.25 15 0 1 0 I I #
edge $-1 $642 0 $472 10 $470 $655 forward 7 unknown #
face $-1 $372 $471 $17 $-1 $656 forward single #
point $-1 20 -22.5 15 #
coedge $-1 $657 $478 $590 $658 reversed $383 $-1 #
coedge $-1 $478 $657 $599 $659 reversed $383 $-1 #
coedge $-1 $527 $660 $478 $569 forward $432 $-1 #
edge $-1 $661 -5 $662 5 $568 $663 forward 7 unknown #
coedge $-1 $480 $479 $579 $664 forward $279 $-1 #
edge $-1 $576 5 $580 15 $479 $665 reversed 7 unknown #
coedge $-1 $666 $667 $480 $573 reversed $515 $-1 #
edge $-1 $668 -15 $577 -5 $480 $669 reversed 7 unknown #
coedge $-1 $582 $481 $667 $670 forward $510 $-1 #
attrib_edge_convexity-kcp-attrib $-1 $671 $-1 $482 1 #
vertex $-1 $487 $672 #
vertex $-1 $670 $673 #
straight-curve $-1 0 22.5 15 1 0 0 I I #
coedge $-1 $484 $674 $570 $664 reversed $95 $-1 #
vertex $-1 $664 $675 #
straight-curve $-1 -20 42.5 5 0 -1 0 I I #
coedge $-1 $486 $574 $488 $586 forward $510 $-1 #
attrib_edge_convexity-kcp-attrib $-1 $676 $-1 $487 1 #
straight-curve $-1 -20 21.25 15 0 -1 0 I I #
coedge $-1 $677 $488 $604 $678 forward $412 $-1 #
edge $679 $680 -20 $491 20 $488 $681 forward 7 unknown #
edge $-1 $502 -60 $490 -20 $489 $682 forward 7 unknown #
point $-1 -20 60 5 #
point $-1 -20 60 15 #
coedge $-1 $683 $684 $566 $658 forward $497 $-1 #
coedge $-1 $499 $685 $503 $596 reversed $412 $-1 #
attrib_edge_convexity-kcp-attrib $-1 $686 $-1 $500 1 #
straight-curve $-1 -60 60 0 0 0 -1 I I #
convexity-sys-attrib $-1 $-1 $501 $401 #
point $-1 -60 60 5 #
edge $-1 $505 -60 $616 60 $591 $687 forward 7 unknown #
convexity-sys-attrib $-1 $-1 $504 $404 #
point $-1 -60 60 -15 #
coedge $-1 $688 $511 $567 $659 forward $95 $-1 #
edge $-1 $662 20 $524 60 $527 $689 forward 7 unknown #
model_id-kcp-attrib $-1 $-1 $-1 $514 1 990548908 80 743440385 14 #
loop $-1 $-1 $690 $514 #
plane-surface $-1 22.5 0 20 -1 0 0 0 0 1 forward_v I I I I #
coedge $-1 $667 $666 $585 $678 reversed $515 $-1 #
coedge $-1 $691 $517 $692 $693 reversed $421 $-1 #
coedge $-1 $517 $691 $694 $695 reversed $421 $-1 #
coedge $-1 $684 $683 $517 $608 forward $497 $-1 #
edge $-1 $696 -38.75 $697 -1.25 $607 $698 forward 7 unknown #
attrib_edge_convexity-kcp-attrib $-1 $699 $-1 $519 1 #
straight-curve $-1 60 -60 0 0 0 -1 I I #
convexity-sys-attrib $-1 $-1 $520 $425 #
point $-1 60 -60 -15 #
convexity-sys-attrib $-1 $-1 $523 $427 #
point $-1 60 -60 5 #
coedge $-1 $700 $528 $685 $701 reversed $432 $-1 #
vertex $-1 $529 $702 #
straight-curve $-1 60 0 -15 0 -1 0 I I #
face $-1 $703 $704 $17 $-1 $705 forward single #
loop $-1 $-1 $706 $530 #
plane-surface $-1 -20 22.5 5 0 1 0 0 0 1 forward_v I I I I #
coedge $-1 $707 $708 $709 $710 forward $531 $-1 #
coedge $-1 $711 $533 $708 $712 reversed $440 $-1 #
coedge $-1 $533 $711 $534 $627 forward $440 $-1 #
coedge $-1 $536 $709 $533 $625 reversed $167 $-1 #
edge $-1 $628 -60 $713 -20 $533 $714 forward 7 unknown #
coedge $-1 $535 $534 $715 $716 reversed $349 $-1 #
edge $-1 $717 0 $628 10 $623 $718 forward 7 unknown #
vertex $-1 $627 $719 #
straight-curve $-1 -60 0 15 0 1 0 I I #
coedge $-1 $715 $542 $538 $631 forward $366 $-1 #
edge $720 $544 1.25 $632 38.75 $538 $721 forward 7 unknown #
vertex $-1 $631 $722 #
straight-curve $-1 -60 20 5 0 0 1 I I #
point $-1 -60 20 15 #
convexity-sys-attrib $-1 $-1 $-1 $543 #
straight-curve $-1 -22.5 0 5 0 1 0 I I #
point $-1 -22.5 20 5 #
coedge $-1 $550 $723 $724 $725 forward $366 $-1 #
coedge $-1 $559 $558 $550 $640 reversed $560 $-1 #
edge $726 $727 -38.75 $642 -1.25 $639 $728 forward 7 unknown #
convexity-sys-attrib $-1 $-1 $-1 $552 #
vertex $-1 $640 $729 #
straight-curve $-1 0 -22.5 5 -1 0 0 I I #
coedge $-1 $730 $555 $731 $732 reversed $167 $-1 #
coedge $-1 $733 $734 $555 $646 forward $735 $-1 #
edge $-1 $736 20 $650 60 $645 $737 forward 7 unknown #
coedge $-1 $724 $556 $559 $652 reversed $649 $-1 #
coedge $-1 $556 $724 $733 $738 forward $649 $-1 #
loop $-1 $-1 $556 $739 #
vertex $-1 $738 $740 #
straight-curve $-1 0 -60 15 -1 0 0 I I #
edge $-1 $727 0 $561 10 $559 $741 forward 7 unknown #
face $-1 $564 $560 $17 $-1 $742 forward single #
point $-1 20 -60 15 #
straight-curve $-1 20 -22.5 5 0 0 1 I I #
plane-surface $-1 20 -22.5 5 0 -1 0 0 0 -1 forward_v I I I I #
coedge $-1 $567 $566 $743 $744 forward $383 $-1 #
edge $-1 $745 1.25 $661 38.75 $590 $746 forward 7 unknown #
edge $-1 $662 -17.5 $747 20 $567 $748 forward 7 unknown #
coedge $-1 $568 $692 $683 $749 reversed $432 $-1 #
vertex $-1 $658 $750 #
vertex $-1 $569 $751 #
straight-curve $-1 60 -20 10 0 0 -1 I I #
edge $-1 $580 -20 $668 20 $570 $752 forward 7 unknown #
straight-curve $-1 -20 22.5 20 0 0 1 I I #
coedge $-1 $604 $572 $674 $753 forward $515 $-1 #
coedge $-1 $572 $604 $574 $670 reversed $515 $-1 #
vertex $-1 $664 $754 #
straight-curve $-1 20 22.5 20 0 0 -1 I I #
edge $755 $577 1.25 $680 38.75 $574 $756 forward 7 unknown #
convexity-sys-attrib $-1 $-1 $575 $482 #
point $-1 -20 22.5 15 #
point $-1 20 22.5 15 #
coedge $-1 $579 $757 $666 $753 reversed $95 $-1 #
point $-1 -20 22.5 5 #
convexity-sys-attrib $-1 $-1 $583 $487 #
coedge $-1 $685 $585 $757 $758 forward $412 $-1 #
edge $-1 $680 -5 $759 5 $585 $760 forward 7 unknown #
attrib_edge_convexity-kcp-attrib $-1 $761 $-1 $586 1 #
vertex $-1 $670 $762 #
straight-curve $-1 0 60 15 -1 0 0 I I #
straight-curve $-1 0 60 5 1 0 0 I I #
coedge $-1 $607 $590 $660 $749 forward $497 $-1 #
coedge $-1 $590 $607 $690 $763 forward $497 $-1 #
coedge $-1 $591 $677 $615 $701 forward $412 $-1 #
convexity-sys-attrib $-1 $-1 $592 $500 #
straight-curve $-1 0 60 -15 1 0 0 I I #
coedge $-1 $764 $599 $765 $766 reversed $95 $-1 #
straight-curve $-1 60 0 5 0 -1 0 I I #
coedge $-1 $694 $743 $684 $763 reversed $602 $-1 #
coedge $-1 $606 $605 $764 $767 forward $421 $-1 #
coedge $-1 $660 $700 $605 $693 forward $432 $-1 #
edge $-1 $768 -5 $696 5 $692 $769 forward 7 unknown #
coedge $-1 $765 $690 $606 $695 forward $602 $-1 #
edge $-1 $697 5 $770 15 $694 $771 reversed 7 unknown #
vertex $-1 $749 $772 #
vertex $-1 $608 $773 #
straight-curve $-1 21.25 20 15 -1 0 0 I I #
convexity-sys-attrib $-1 $-1 $609 $519 #
coedge $-1 $692 $615 $774 $775 forward $432 $-1 #
edge $-1 $776 -5 $616 15 $615 $777 forward 7 unknown #
point $-1 60 60 -15 #
face $-1 $778 $779 $17 $-1 $780 forward single #
loop $-1 $-1 $781 $618 #
plane-surface $-1 20 22.5 5 -1 0 0 0 0 1 forward_v I I I I #
coedge $-1 $782 $783 $784 $785 forward $619 $-1 #
coedge $-1 $786 $621 $783 $787 reversed $531 $-1 #
coedge $-1 $621 $786 $622 $712 forward $531 $-1 #
coedge $-1 $624 $784 $621 $710 reversed $167 $-1 #
edge $-1 $713 -38.75 $788 -1.25 $621 $789 forward 7 unknown #
coedge $-1 $623 $622 $790 $791 reversed $440 $-1 #
edge $-1 $792 0 $713 10 $708 $793 forward 7 unknown #
vertex $-1 $712 $794 #
straight-curve $-1 0 60 15 1 0 0 I I #
coedge $-1 $790 $630 $626 $716 forward $366 $-1 #
edge $795 $632 20 $717 60 $626 $796 forward 7 unknown #
vertex $-1 $716 $797 #
straight-curve $-1 -60 60 5 0 0 1 I I #
point $-1 -60 60 15 #
convexity-sys-attrib $-1 $-1 $-1 $631 #
straight-curve $-1 -21.25 20 5 -1 0 0 I I #
point $-1 -60 20 5 #
coedge $-1 $638 $798 $799 $800 forward $366 $-1 #
coedge $-1 $648 $647 $638 $725 reversed $649 $-1 #
edge $801 $802 -60 $727 -20 $724 $803 forward 7 unknown #
convexity-sys-attrib $-1 $-1 $-1 $640 #
vertex $-1 $725 $804 #
straight-curve $-1 20 -21.25 5 0 1 0 I I #
point $-1 20 -22.5 5 #
coedge $-1 $805 $644 $806 $807 reversed $167 $-1 #
coedge $-1 $808 $809 $644 $732 forward $810 $-1 #
edge $-1 $811 1.25 $736 38.75 $731 $812 forward 7 unknown #
coedge $-1 $799 $645 $648 $738 reversed $735 $-1 #
coedge $-1 $645 $799 $808 $813 forward $735 $-1 #
loop $-1 $-1 $645 $814 #
vertex $-1 $813 $815 #
straight-curve $-1 60 0 15 0 -1 0 I I #
edge $-1 $802 0 $650 10 $648 $816 forward 7 unknown #
face $-1 $653 $649 $17 $-1 $817 forward single #
point $-1 60 -60 15 #
straight-curve $-1 20 -60 5 0 0 1 I I #
plane-surface $-1 20 -60 5 -1 0 0 0 0 1 forward_v I I I I #
coedge $-1 $690 $765 $657 $744 reversed $602 $-1 #
edge $-1 $745 5 $747 15 $743 $818 forward 7 unknown #
vertex $-1 $658 $819 #
straight-curve $-1 21.25 -20 15 1 0 0 I I #
vertex $-1 $766 $820 #
straight-curve $-1 42.5 -20 5 -1 0 0 I I #
edge $-1 $661 -20 $696 20 $660 $821 forward 7 unknown #
point $-1 60 -20 15 #
point $-1 60 -20 5 #
straight-curve $-1 0 22.5 5 1 0 0 I I #
edge $-1 $668 -20 $759 17.5 $666 $822 forward 7 unknown #
point $-1 20 22.5 5 #
attrib_edge_convexity-kcp-attrib $-1 $823 $-1 $670 1 #
straight-curve $-1 20 21.25 15 0 1 0 I I #
coedge $-1 $674 $774 $677 $758 reversed $95 $-1 #
edge $-1 $759 20 $776 60 $677 $682 forward 7 unknown #
vertex $-1 $758 $824 #
straight-curve $-1 20 60 10 0 0 -1 I I #
convexity-sys-attrib $-1 $-1 $679 $586 #
point $-1 20 60 15 #
edge $-1 $697 -20 $745 20 $684 $825 forward 7 unknown #
coedge $-1 $774 $688 $691 $767 reversed $95 $-1 #
coedge $-1 $743 $694 $688 $766 forward $602 $-1 #
edge $-1 $770 -20 $747 20 $765 $826 forward 7 unknown #
edge $-1 $768 -17.5 $770 20 $691 $827 forward 7 unknown #
vertex $-1 $775 $828 #
straight-curve $-1 60 20 10 0 0 1 I I #
vertex $-1 $766 $829 #
straight-curve $-1 22.5 20 20 0 0 1 I I #
point $-1 60 20 15 #
point $-1 22.5 20 15 #
coedge $-1 $757 $764 $700 $775 reversed $95 $-1 #
edge $-1 $776 -60 $768 -20 $700 $689 forward 7 unknown #
vertex $-1 $758 $830 #
straight-curve $-1 60 60 0 0 0 -1 I I #
face $-1 $831 $832 $17 $-1 $833 forward single #
loop $-1 $-1 $834 $703 #
plane-surface $-1 20 60 5 0 1 0 0 0 1 forward_v I I I I #
coedge $-1 $835 $836 $837 $838 forward $704 $-1 #
coedge $-1 $839 $706 $836 $840 reversed $619 $-1 #
coedge $-1 $706 $839 $707 $787 forward $619 $-1 #
coedge $-1 $709 $837 $706 $785 reversed $167 $-1 #
edge $-1 $788 -20 $841 20 $706 $842 forward 7 unknown #
coedge $-1 $708 $707 $843 $844 reversed $531 $-1 #
edge $-1 $845 0 $788 10 $783 $846 forward 7 unknown #
vertex $-1 $787 $847 #
straight-curve $-1 -20 21.25 15 0 -1 0 I I #
coedge $-1 $843 $715 $711 $791 forward $366 $-1 #
edge $848 $717 -60 $792 -20 $711 $849 forward 7 unknown #
vertex $-1 $791 $850 #
straight-curve $-1 -20 60 5 0 0 1 I I #
point $-1 -20 60 15 #
convexity-sys-attrib $-1 $-1 $-1 $716 #
straight-curve $-1 -60 0 5 0 1 0 I I #
point $-1 -60 60 5 #
coedge $-1 $723 $851 $852 $853 forward $366 $-1 #
coedge $-1 $734 $733 $723 $800 reversed $735 $-1 #
edge $854 $855 20 $802 60 $799 $856 forward 7 unknown #
convexity-sys-attrib $-1 $-1 $-1 $725 #
vertex $-1 $800 $857 #
straight-curve $-1 0 -60 5 -1 0 0 I I #
point $-1 20 -60 5 #
coedge $-1 $858 $730 $859 $860 reversed $167 $-1 #
coedge $-1 $861 $862 $730 $807 forward $863 $-1 #
edge $-1 $864 -20 $811 20 $806 $865 forward 7 unknown #
coedge $-1 $852 $731 $734 $813 reversed $810 $-1 #
coedge $-1 $731 $852 $861 $866 forward $810 $-1 #
loop $-1 $-1 $731 $867 #
vertex $-1 $866 $868 #
straight-curve $-1 21.25 -20 15 1 0 0 I I #
edge $-1 $855 0 $736 10 $734 $869 forward 7 unknown #
face $-1 $739 $735 $17 $-1 $870 forward single #
point $-1 60 -20 15 #
straight-curve $-1 60 -60 5 0 0 1 I I #
plane-surface $-1 60 -60 5 0 -1 0 0 0 -1 forward_v I I I I #
straight-curve $-1 22.5 -20 20 0 0 -1 I I #
point $-1 22.5 -20 15 #
point $-1 22.5 -20 5 #
straight-curve $-1 60 0 15 0 1 0 I I #
straight-curve $-1 20 42.5 5 0 1 0 I I #
convexity-sys-attrib $-1 $-1 $755 $670 #
point $-1 20 60 5 #
straight-curve $-1 22.5 0 15 0 -1 0 I I #
straight-curve $-1 22.5 0 5 0 -1 0 I I #
straight-curve $-1 42.5 20 5 -1 0 0 I I #
point $-1 60 20 5 #
point $-1 22.5 20 5 #
point $-1 60 60 5 #
face $-1 $871 $872 $17 $-1 $873 forward single #
loop $-1 $-1 $874 $778 #
plane-surface $-1 60 60 5 1 0 0 0 0 -1 forward_v I I I I #
coedge $-1 $875 $876 $877 $878 forward $779 $-1 #
coedge $-1 $879 $781 $876 $880 reversed $704 $-1 #
coedge $-1 $781 $879 $782 $840 forward $704 $-1 #
coedge $-1 $784 $877 $781 $838 reversed $167 $-1 #
edge $-1 $841 1.25 $881 38.75 $781 $882 forward 7 unknown #
coedge $-1 $783 $782 $883 $884 reversed $619 $-1 #
edge $-1 $885 0 $841 10 $836 $886 forward 7 unknown #
vertex $-1 $840 $887 #
straight-curve $-1 0 22.5 15 1 0 0 I I #
coedge $-1 $883 $790 $786 $844 forward $366 $-1 #
edge $888 $792 -38.75 $845 -1.25 $786 $889 forward 7 unknown #
vertex $-1 $844 $890 #
straight-curve $-1 -20 22.5 5 0 0 1 I I #
point $-1 -20 22.5 15 #
convexity-sys-attrib $-1 $-1 $-1 $791 #
straight-curve $-1 0 60 5 1 0 0 I I #
point $-1 -20 60 5 #
coedge $-1 $798 $891 $892 $893 forward $366 $-1 #
coedge $-1 $809 $808 $798 $853 reversed $810 $-1 #
edge $894 $895 1.25 $855 38.75 $852 $896 forward 7 unknown #
convexity-sys-attrib $-1 $-1 $-1 $800 #
vertex $-1 $853 $897 #
straight-curve $-1 60 0 5 0 -1 0 I I #
point $-1 60 -60 5 #
coedge $-1 $877 $805 $874 $898 reversed $167 $-1 #
coedge $-1 $899 $900 $805 $860 forward $872 $-1 #
edge $-1 $901 -38.75 $864 -1.25 $859 $902 forward 7 unknown #
coedge $-1 $892 $806 $809 $866 reversed $863 $-1 #
coedge $-1 $806 $892 $899 $903 forward $863 $-1 #
loop $-1 $-1 $806 $871 #
vertex $-1 $903 $904 #
straight-curve $-1 22.5 0 15 0 -1 0 I I #
edge $-1 $895 0 $811 10 $809 $905 forward 7 unknown #
face $-1 $814 $810 $17 $-1 $906 forward single #
point $-1 22.5 -20 15 #
straight-curve $-1 60 -20 5 0 0 1 I I #
plane-surface $-1 60 -20 5 1 0 0 0 0 -1 forward_v I I I I #
face $-1 $867 $863 $17 $-1 $907 forward single #
loop $-1 $-1 $859 $831 #
plane-surface $-1 60 20 5 0 -1 0 0 0 -1 forward_v I I I I #
coedge $-1 $908 $909 $858 $898 forward $832 $-1 #
coedge $-1 $910 $834 $909 $911 reversed $779 $-1 #
coedge $-1 $834 $910 $835 $880 forward $779 $-1 #
coedge $-1 $837 $858 $834 $878 reversed $167 $-1 #
edge $-1 $881 20 $912 60 $834 $913 forward 7 unknown #
coedge $-1 $836 $835 $914 $915 reversed $704 $-1 #
edge $-1 $916 0 $881 10 $876 $917 forward 7 unknown #
vertex $-1 $880 $918 #
straight-curve $-1 20 21.25 15 0 1 0 I I #
coedge $-1 $914 $843 $839 $884 forward $366 $-1 #
edge $919 $845 -20 $885 20 $839 $920 forward 7 unknown #
vertex $-1 $884 $921 #
straight-curve $-1 20 22.5 5 0 0 1 I I #
point $-1 20 22.5 15 #
convexity-sys-attrib $-1 $-1 $-1 $844 #
straight-curve $-1 -20 21.25 5 0 -1 0 I I #
point $-1 -20 22.5 5 #
coedge $-1 $851 $922 $923 $924 forward $366 $-1 #
coedge $-1 $862 $861 $851 $893 reversed $863 $-1 #
edge $925 $926 -20 $895 20 $892 $927 forward 7 unknown #
convexity-sys-attrib $-1 $-1 $-1 $853 #
vertex $-1 $893 $928 #
straight-curve $-1 21.25 -20 5 1 0 0 I I #
point $-1 60 -20 5 #
edge $-1 $912 -60 $901 -20 $874 $929 forward 7 unknown #
coedge $-1 $923 $859 $862 $903 reversed $872 $-1 #
coedge $-1 $859 $923 $908 $930 forward $872 $-1 #
vertex $-1 $930 $931 #
straight-curve $-1 21.25 20 15 -1 0 0 I I #
edge $-1 $926 0 $864 10 $862 $932 forward 7 unknown #
point $-1 22.5 20 15 #
straight-curve $-1 22.5 -20 5 0 0 1 I I #
plane-surface $-1 22.5 -20 5 0 1 0 0 0 1 forward_v I I I I #
plane-surface $-1 22.5 20 5 1 0 0 0 0 -1 forward_v I I I I #
coedge $-1 $933 $874 $900 $930 reversed $832 $-1 #
coedge $-1 $874 $933 $875 $911 forward $832 $-1 #
coedge $-1 $876 $875 $934 $935 reversed $779 $-1 #
edge $-1 $936 0 $912 10 $909 $937 forward 7 unknown #
vertex $-1 $911 $938 #
straight-curve $-1 0 60 15 1 0 0 I I #
coedge $-1 $934 $883 $879 $915 forward $366 $-1 #
edge $939 $885 1.25 $916 38.75 $879 $940 forward 7 unknown #
vertex $-1 $915 $941 #
straight-curve $-1 20 60 5 0 0 1 I I #
point $-1 20 60 15 #
convexity-sys-attrib $-1 $-1 $-1 $884 #
straight-curve $-1 0 22.5 5 1 0 0 I I #
point $-1 20 22.5 5 #
coedge $-1 $891 $934 $933 $942 forward $366 $-1 #
coedge $-1 $900 $899 $891 $924 reversed $872 $-1 #
edge $943 $944 -38.75 $926 -1.25 $923 $945 forward 7 unknown #
convexity-sys-attrib $-1 $-1 $-1 $893 #
vertex $-1 $924 $946 #
straight-curve $-1 22.5 0 5 0 -1 0 I I #
point $-1 22.5 -20 5 #
straight-curve $-1 60 0 15 0 -1 0 I I #
edge $-1 $944 0 $901 10 $900 $947 forward 7 unknown #
point $-1 60 20 15 #
straight-curve $-1 22.5 20 5 0 0 1 I I #
coedge $-1 $909 $908 $922 $942 reversed $832 $-1 #
coedge $-1 $922 $914 $910 $935 forward $366 $-1 #
edge $948 $916 20 $936 60 $910 $949 forward 7 unknown #
vertex $-1 $935 $950 #
straight-curve $-1 60 60 5 0 0 1 I I #
point $-1 60 60 15 #
convexity-sys-attrib $-1 $-1 $-1 $915 #
straight-curve $-1 20 21.25 5 0 1 0 I I #
point $-1 20 60 5 #
edge $951 $936 -60 $944 -20 $933 $952 forward 7 unknown #
convexity-sys-attrib $-1 $-1 $-1 $924 #
vertex $-1 $942 $953 #
straight-curve $-1 21.25 20 5 -1 0 0 I I #
point $-1 22.5 20 5 #
straight-curve $-1 60 20 5 0 0 1 I I #
convexity-sys-attrib $-1 $-1 $-1 $935 #
straight-curve $-1 0 60 5 1 0 0 I I #
point $-1 60 60 5 #
convexity-sys-attrib $-1 $-1 $-1 $942 #
straight-curve $-1 60 0 5 0 -1 0 I I #
point $-1 60 20 5 #
End-of-ACIS-data 