105 382 1 0                             
body $-1 $1 $-1 $-1 #
lump $-1 $-1 $2 $0 #
shell $-1 $-1 $-1 $3 $1 #
face $-1 $4 $5 $2 $-1 $6 forward single #
face $-1 $7 $8 $2 $-1 $9 forward single #
loop $-1 $-1 $10 $3 #
plane-surface $-1 -20 -42.5 20 -1 0 0 0 0 1 1 #
face $-1 $11 $12 $2 $-1 $13 forward single #
loop $-1 $-1 $14 $4 #
plane-surface $-1 -42.5 -20 20 0 -1 0 0 0 1 1 #
coedge $-1 $15 $16 $17 $18 1 $5 $-1 #
face $-1 $19 $20 $2 $-1 $21 forward single #
loop $-1 $-1 $22 $7 #
plane-surface $-1 -22.5 0 20 1 0 0 0 0 -1 0 #
coedge $-1 $23 $24 $25 $26 1 $8 $-1 #
coedge $-1 $27 $10 $28 $29 0 $5 $-1 #
coedge $-1 $10 $27 $30 $31 1 $5 $-1 #
coedge $-1 $32 $33 $10 $18 0 $34 $-1 #
edge $-1 $35 $36 $17 $37 0 #
face $-1 $38 $39 $2 $-1 $40 forward single #
loop $-1 $-1 $41 $11 #
plane-surface $-1 -42.5 20 20 0 1 0 0 0 1 0 #
coedge $-1 $42 $43 $44 $45 1 $12 $-1 #
coedge $-1 $46 $14 $47 $48 1 $8 $-1 #
coedge $-1 $14 $46 $49 $50 1 $8 $-1 #
coedge $-1 $51 $52 $14 $26 0 $53 $-1 #
edge $-1 $54 $55 $25 $56 0 #
coedge $-1 $16 $15 $57 $58 1 $5 $-1 #
coedge $-1 $59 $60 $15 $29 1 $61 $-1 #
edge $-1 $35 $62 $28 $63 0 #
coedge $-1 $64 $65 $16 $31 0 $66 $-1 #
edge $-1 $36 $67 $30 $68 0 #
coedge $-1 $69 $17 $65 $70 0 $34 $-1 #
coedge $-1 $17 $69 $59 $71 0 $34 $-1 #
loop $-1 $-1 $17 $72 #
vertex $-1 $18 $73 #
vertex $-1 $31 $74 #
straight-curve $-1 -20 -21.25 15 0 -1 0 #
face $-1 $75 $76 $2 $-1 $77 forward single #
loop $-1 $-1 $78 $19 #
plane-surface $-1 0 0 5 0 0 1 1 0 0 0 #
coedge $-1 $79 $80 $81 $82 1 $20 $-1 #
coedge $-1 $83 $22 $46 $84 1 $12 $-1 #
coedge $-1 $22 $83 $79 $85 0 $12 $-1 #
coedge $-1 $81 $49 $22 $45 0 $86 $-1 #
edge $-1 $87 $88 $44 $89 0 #
coedge $-1 $24 $23 $42 $84 0 $8 $-1 #
coedge $-1 $90 $91 $23 $48 0 $39 $-1 #
edge $-1 $92 $54 $23 $93 0 #
coedge $-1 $44 $94 $24 $50 0 $86 $-1 #
edge $-1 $55 $87 $49 $95 0 #
coedge $-1 $96 $25 $94 $97 1 $53 $-1 #
coedge $-1 $25 $98 $90 $99 0 $53 $-1 #
loop $-1 $-1 $52 $100 #
vertex $-1 $26 $101 #
vertex $-1 $97 $102 #
straight-curve $-1 -60 -20 10 -0 0 1 #
coedge $-1 $103 $78 $27 $58 0 $39 $-1 #
edge $-1 $67 $62 $27 $104 0 #
coedge $-1 $105 $28 $33 $71 1 $61 $-1 #
coedge $-1 $28 $105 $103 $106 0 $61 $-1 #
loop $-1 $-1 $59 $107 #
vertex $-1 $106 $108 #
straight-curve $-1 -20 -22.5 20 0 0 -1 #
coedge $-1 $109 $30 $78 $110 0 $66 $-1 #
coedge $-1 $30 $111 $32 $70 1 $66 $-1 #
loop $-1 $-1 $30 $112 #
vertex $-1 $31 $113 #
straight-curve $-1 -20 -60 10 -0 0 -1 #
coedge $-1 $33 $32 $114 $115 0 $34 $-1 #
edge $-1 $36 $116 $65 $117 0 #
edge $-1 $118 $35 $33 $119 0 #
face $-1 $120 $34 $2 $-1 $121 forward single #
point $-1 -20 -22.5 15 #
point $-1 -20 -60 15 #
face $-1 $122 $123 $2 $-1 $124 forward single #
loop $-1 $-1 $125 $38 #
plane-surface $-1 -20 42.5 20 -1 0 0 0 0 1 0 #
coedge $-1 $57 $90 $64 $110 1 $39 $-1 #
coedge $-1 $126 $41 $43 $85 1 $20 $-1 #
coedge $-1 $41 $126 $96 $127 1 $20 $-1 #
coedge $-1 $94 $44 $41 $82 0 $86 $-1 #
edge $-1 $88 $128 $81 $129 0 #
coedge $-1 $43 $42 $91 $130 1 $12 $-1 #
edge $-1 $92 $87 $42 $131 0 #
edge $-1 $132 $88 $43 $133 1 #
loop $-1 $-1 $49 $134 #
vertex $-1 $50 $135 #
vertex $-1 $45 $136 #
straight-curve $-1 -22.5 0 15 0 1 0 #
coedge $-1 $78 $47 $52 $99 1 $39 $-1 #
coedge $-1 $47 $137 $83 $130 0 $39 $-1 #
vertex $-1 $130 $138 #
straight-curve $-1 -42.5 -20 5 -1 0 0 #
coedge $-1 $49 $81 $51 $97 0 $86 $-1 #
straight-curve $-1 -21.25 -20 15 1 0 -0 #
coedge $-1 $139 $51 $80 $127 0 $53 $-1 #
edge $-1 $128 $55 $51 $140 0 #
coedge $-1 $52 $141 $109 $142 1 $53 $-1 #
edge $-1 $143 $54 $52 $144 0 #
face $-1 $145 $53 $2 $-1 $146 reversed single #
point $-1 -60 -20 5 #
point $-1 -60 -20 15 #
coedge $-1 $147 $57 $60 $106 1 $39 $-1 #
straight-curve $-1 -20 -42.5 5 0 1 0 #
coedge $-1 $60 $59 $148 $149 1 $61 $-1 #
edge $-1 $150 $62 $60 $151 0 #
face $-1 $152 $61 $2 $-1 $153 forward single #
point $-1 -20 -22.5 5 #
coedge $-1 $154 $64 $98 $142 0 $66 $-1 #
edge $-1 $67 $143 $64 $155 0 #
coedge $-1 $65 $156 $157 $158 0 $66 $-1 #
face $-1 $100 $66 $2 $-1 $159 reversed single #
point $-1 -20 -60 5 #
coedge $-1 $157 $148 $69 $115 1 $160 $-1 #
edge $-1 $116 $118 $69 $161 0 #
vertex $-1 $70 $162 #
straight-curve $-1 0 -60 15 1 0 0 #
vertex $-1 $115 $163 #
straight-curve $-1 0 -22.5 15 -1 0 0 #
face $-1 $164 $165 $2 $-1 $166 reversed single #
plane-surface $-1 0 0 15 0 0 1 1 0 0 0 #
face $-1 $167 $168 $2 $-1 $169 forward single #
loop $-1 $-1 $170 $75 #
plane-surface $-1 0 22.5 20 0 -1 0 0 0 -1 0 #
coedge $-1 $171 $172 $173 $174 1 $76 $-1 #
coedge $-1 $80 $79 $137 $175 0 $20 $-1 #
edge $-1 $128 $176 $96 $177 0 #
vertex $-1 $127 $178 #
straight-curve $-1 -21.25 20 15 -1 0 0 #
edge $-1 $132 $92 $83 $179 1 #
straight-curve $-1 -22.5 -20 20 0 0 1 #
vertex $-1 $130 $180 #
straight-curve $-1 -22.5 20 20 0 0 -1 #
face $-1 $181 $86 $2 $-1 $121 forward single #
point $-1 -22.5 -20 15 #
point $-1 -22.5 20 15 #
coedge $-1 $91 $182 $126 $175 1 $39 $-1 #
point $-1 -22.5 -20 5 #
coedge $-1 $183 $96 $182 $184 0 $53 $-1 #
straight-curve $-1 -60 0 15 0 -1 0 #
coedge $-1 $98 $183 $185 $186 1 $53 $-1 #
edge $-1 $143 $187 $98 $188 0 #
vertex $-1 $99 $189 #
straight-curve $-1 -60 0 5 0 1 0 #
face $-1 $190 $191 $2 $-1 $192 reversed single #
plane-surface $-1 -60 0 0 1 0 0 0 0 -1 0 #
coedge $-1 $193 $103 $194 $195 0 $39 $-1 #
coedge $-1 $114 $194 $105 $149 0 $160 $-1 #
edge $-1 $150 $118 $105 $196 0 #
vertex $-1 $106 $197 #
straight-curve $-1 0 -22.5 5 -1 0 0 #
face $-1 $198 $199 $2 $-1 $200 forward single #
plane-surface $-1 0 -22.5 20 0 1 0 0 0 1 0 #
coedge $-1 $201 $109 $202 $203 1 $66 $-1 #
straight-curve $-1 0 -60 5 -1 0 0 #
coedge $-1 $111 $201 $193 $204 0 $66 $-1 #
coedge $-1 $194 $114 $111 $158 1 $160 $-1 #
edge $-1 $205 $116 $111 $206 0 #
plane-surface $-1 0 -60 0 0 1 -0 -0 0 1 0 #
loop $-1 $-1 $114 $167 #
straight-curve $-1 20 -21.25 15 0 1 0 #
point $-1 20 -60 15 #
point $-1 20 -22.5 15 #
face $-1 $-1 $207 $2 $-1 $208 reversed single #
loop $-1 $-1 $209 $120 #
plane-surface $-1 0 0 -15 0 0 1 1 0 0 0 #
face $-1 $107 $160 $2 $-1 $210 forward single #
loop $-1 $-1 $211 $122 #
plane-surface $-1 42.5 -20 20 0 -1 0 0 0 1 1 #
coedge $-1 $212 $213 $214 $215 1 $123 $-1 #
coedge $-1 $216 $125 $217 $218 0 $76 $-1 #
coedge $-1 $125 $216 $219 $220 1 $76 $-1 #
coedge $-1 $221 $222 $125 $174 0 $191 $-1 #
edge $-1 $223 $224 $173 $225 0 #
edge $-1 $132 $176 $126 $226 0 #
vertex $-1 $184 $227 #
straight-curve $-1 -60 20 10 0 0 -1 #
point $-1 -60 20 15 #
straight-curve $-1 -22.5 0 5 0 1 0 #
point $-1 -22.5 20 5 #
face $-1 $72 $228 $2 $-1 $121 forward single #
coedge $-1 $137 $229 $139 $184 1 $39 $-1 #
coedge $-1 $141 $139 $230 $231 0 $53 $-1 #
edge $-1 $176 $232 $139 $144 0 #
coedge $-1 $233 $202 $141 $186 0 $165 $-1 #
edge $-1 $187 $234 $141 $235 0 #
vertex $-1 $186 $236 #
straight-curve $-1 -60 -60 0 0 0 -1 #
point $-1 -60 -60 5 #
face $-1 $134 $237 $2 $-1 $121 forward single #
loop $-1 $-1 $222 $145 #
plane-surface $-1 0 60 0 0 -1 0 0 0 -1 0 #
coedge $-1 $238 $147 $156 $204 1 $39 $-1 #
coedge $-1 $148 $157 $147 $195 1 $160 $-1 #
edge $-1 $150 $205 $194 $239 0 #
straight-curve $-1 20 -22.5 20 0 0 1 #
point $-1 20 -22.5 5 #
face $-1 $240 $241 $2 $-1 $242 forward single #
loop $-1 $-1 $243 $152 #
plane-surface $-1 42.5 20 20 0 1 0 0 0 1 0 #
coedge $-1 $156 $154 $244 $245 1 $66 $-1 #
coedge $-1 $185 $209 $154 $203 0 $165 $-1 #
edge $-1 $246 $187 $154 $247 0 #
edge $-1 $248 $205 $156 $155 0 #
vertex $-1 $158 $249 #
straight-curve $-1 20 -60 10 -0 0 1 #
loop $-1 $-1 $250 $164 #
plane-surface $-1 60 0 0 -1 0 0 0 -0 1 0 #
coedge $-1 $202 $233 $251 $252 0 $165 $-1 #
plane-surface $-1 20 -42.5 20 1 0 0 0 0 -1 1 #
coedge $-1 $253 $254 $255 $256 1 $168 $-1 #
coedge $-1 $257 $170 $216 $258 0 $123 $-1 #
coedge $-1 $170 $257 $259 $260 0 $123 $-1 #
coedge $-1 $261 $219 $170 $215 0 $237 $-1 #
edge $-1 $262 $263 $214 $264 0 #
coedge $-1 $172 $171 $212 $258 1 $76 $-1 #
coedge $-1 $229 $265 $171 $218 1 $39 $-1 #
edge $-1 $223 $266 $171 $267 0 #
coedge $-1 $214 $268 $172 $220 0 $237 $-1 #
edge $-1 $224 $262 $219 $269 0 #
coedge $-1 $270 $173 $268 $271 1 $191 $-1 #
coedge $-1 $173 $230 $229 $272 0 $191 $-1 #
vertex $-1 $272 $273 #
vertex $-1 $271 $274 #
straight-curve $-1 -20 60 10 0 0 1 #
straight-curve $-1 -42.5 20 5 -1 0 0 #
point $-1 -60 20 5 #
loop $-1 $-1 $275 $181 #
coedge $-1 $182 $217 $222 $272 1 $39 $-1 #
coedge $-1 $222 $276 $183 $231 1 $191 $-1 #
edge $-1 $232 $234 $230 $277 0 #
vertex $-1 $272 $278 #
coedge $-1 $209 $185 $276 $279 0 $165 $-1 #
vertex $-1 $279 $280 #
straight-curve $-1 -60 0 -15 0 1 0 #
point $-1 -60 -60 -15 #
loop $-1 $-1 $219 $190 #
coedge $-1 $281 $193 $250 $282 1 $39 $-1 #
straight-curve $-1 20 -42.5 5 0 -1 0 #
face $-1 $112 $283 $2 $-1 $284 forward single #
loop $-1 $-1 $285 $198 #
plane-surface $-1 20 42.5 20 1 0 0 0 0 -1 0 #
coedge $-1 $286 $287 $288 $289 1 $199 $-1 #
coedge $-1 $251 $250 $201 $245 0 $207 $-1 #
edge $-1 $248 $246 $244 $290 0 #
vertex $-1 $245 $291 #
straight-curve $-1 0 -60 -15 -1 0 0 #
vertex $-1 $282 $292 #
point $-1 20 -60 5 #
coedge $-1 $244 $255 $238 $282 0 $207 $-1 #
coedge $-1 $293 $244 $209 $252 1 $207 $-1 #
edge $-1 $294 $246 $251 $295 0 #
coedge $-1 $296 $211 $275 $297 1 $168 $-1 #
coedge $-1 $211 $296 $281 $298 1 $168 $-1 #
coedge $-1 $250 $299 $211 $256 0 $207 $-1 #
edge $-1 $300 $301 $255 $302 0 #
coedge $-1 $213 $212 $265 $303 0 $123 $-1 #
edge $-1 $262 $266 $212 $304 1 #
coedge $-1 $305 $306 $213 $260 1 $241 $-1 #
edge $-1 $307 $263 $213 $308 1 #
coedge $-1 $268 $214 $306 $309 0 $237 $-1 #
vertex $-1 $220 $310 #
vertex $-1 $309 $311 #
straight-curve $-1 0 22.5 15 1 0 -0 #
coedge $-1 $217 $312 $257 $303 1 $39 $-1 #
vertex $-1 $303 $313 #
straight-curve $-1 -20 42.5 5 0 -1 0 #
coedge $-1 $219 $261 $221 $271 0 $237 $-1 #
straight-curve $-1 -20 21.25 15 0 -1 0 #
coedge $-1 $314 $221 $285 $315 0 $191 $-1 #
edge $-1 $316 $224 $221 $317 0 #
edge $-1 $232 $223 $222 $318 0 #
point $-1 -20 60 5 #
point $-1 -20 60 15 #
coedge $-1 $319 $320 $253 $297 0 $228 $-1 #
coedge $-1 $230 $321 $233 $279 1 $191 $-1 #
straight-curve $-1 -60 60 0 0 0 -1 #
point $-1 -60 60 5 #
edge $-1 $234 $294 $276 $322 0 #
point $-1 -60 60 -15 #
coedge $-1 $323 $238 $254 $298 0 $39 $-1 #
edge $-1 $301 $248 $250 $324 0 #
loop $-1 $-1 $325 $240 #
plane-surface $-1 22.5 0 20 -1 0 0 0 0 1 0 #
coedge $-1 $306 $305 $270 $315 1 $241 $-1 #
coedge $-1 $326 $243 $327 $328 1 $199 $-1 #
coedge $-1 $243 $326 $329 $330 1 $199 $-1 #
coedge $-1 $320 $319 $243 $289 0 $228 $-1 #
edge $-1 $331 $332 $288 $333 0 #
straight-curve $-1 60 -60 0 0 0 -1 #
point $-1 60 -60 -15 #
point $-1 60 -60 5 #
coedge $-1 $334 $251 $321 $335 1 $207 $-1 #
vertex $-1 $252 $336 #
straight-curve $-1 60 0 -15 0 -1 0 #
coedge $-1 $254 $253 $337 $338 0 $168 $-1 #
edge $-1 $339 $300 $275 $340 0 #
edge $-1 $301 $341 $254 $342 0 #
coedge $-1 $255 $327 $319 $343 1 $207 $-1 #
vertex $-1 $297 $344 #
vertex $-1 $256 $345 #
straight-curve $-1 60 -20 10 -0 -0 -1 #
edge $-1 $266 $307 $257 $346 0 #
straight-curve $-1 -20 22.5 20 0 0 1 #
coedge $-1 $285 $259 $312 $347 0 $241 $-1 #
coedge $-1 $259 $285 $261 $309 1 $241 $-1 #
vertex $-1 $303 $348 #
straight-curve $-1 20 22.5 20 0 0 -1 #
edge $-1 $263 $316 $261 $349 0 #
point $-1 -20 22.5 15 #
point $-1 20 22.5 15 #
coedge $-1 $265 $350 $305 $347 1 $39 $-1 #
point $-1 -20 22.5 5 #
coedge $-1 $321 $270 $350 $351 0 $191 $-1 #
edge $-1 $316 $352 $270 $353 0 #
vertex $-1 $309 $354 #
straight-curve $-1 0 60 15 -1 0 0 #
straight-curve $-1 0 60 5 1 0 -0 #
coedge $-1 $288 $275 $299 $343 0 $228 $-1 #
coedge $-1 $275 $288 $325 $355 0 $228 $-1 #
coedge $-1 $276 $314 $293 $335 0 $191 $-1 #
straight-curve $-1 0 60 -15 1 0 0 #
coedge $-1 $356 $281 $357 $358 1 $39 $-1 #
straight-curve $-1 60 0 5 0 -1 0 #
coedge $-1 $329 $337 $320 $355 1 $283 $-1 #
coedge $-1 $287 $286 $356 $359 0 $199 $-1 #
coedge $-1 $299 $334 $286 $328 0 $207 $-1 #
edge $-1 $360 $331 $327 $361 0 #
coedge $-1 $357 $325 $287 $330 0 $283 $-1 #
edge $-1 $332 $362 $329 $363 1 #
vertex $-1 $343 $364 #
vertex $-1 $289 $365 #
straight-curve $-1 21.25 20 15 -1 0 0 #
coedge $-1 $327 $293 $366 $367 0 $207 $-1 #
edge $-1 $368 $294 $293 $369 0 #
point $-1 60 60 -15 #
coedge $-1 $325 $357 $296 $338 1 $283 $-1 #
edge $-1 $339 $341 $337 $370 0 #
vertex $-1 $297 $371 #
straight-curve $-1 21.25 -20 15 1 0 -0 #
vertex $-1 $358 $372 #
straight-curve $-1 42.5 -20 5 -1 0 0 #
edge $-1 $300 $331 $299 $373 0 #
point $-1 60 -20 15 #
point $-1 60 -20 5 #
straight-curve $-1 0 22.5 5 1 0 0 #
edge $-1 $307 $352 $305 $374 0 #
point $-1 20 22.5 5 #
straight-curve $-1 20 21.25 15 0 1 0 #
coedge $-1 $312 $366 $314 $351 1 $39 $-1 #
edge $-1 $352 $368 $314 $318 0 #
vertex $-1 $351 $375 #
straight-curve $-1 20 60 10 0 0 -1 #
point $-1 20 60 15 #
edge $-1 $332 $339 $320 $376 0 #
coedge $-1 $366 $323 $326 $359 1 $39 $-1 #
coedge $-1 $337 $329 $323 $358 0 $283 $-1 #
edge $-1 $362 $341 $357 $377 0 #
edge $-1 $360 $362 $326 $378 0 #
vertex $-1 $367 $379 #
straight-curve $-1 60 20 10 0 -0 1 #
vertex $-1 $358 $380 #
straight-curve $-1 22.5 20 20 0 0 1 #
point $-1 60 20 15 #
point $-1 22.5 20 15 #
coedge $-1 $350 $356 $334 $367 1 $39 $-1 #
edge $-1 $368 $360 $334 $324 0 #
vertex $-1 $351 $381 #
straight-curve $-1 60 60 0 0 0 -1 #
straight-curve $-1 22.5 -20 20 -0 -0 -1 #
point $-1 22.5 -20 15 #
point $-1 22.5 -20 5 #
straight-curve $-1 60 0 15 0 1 0 #
straight-curve $-1 20 42.5 5 0 1 0 #
point $-1 20 60 5 #
straight-curve $-1 22.5 0 15 0 -1 0 #
straight-curve $-1 22.5 0 5 0 -1 0 #
straight-curve $-1 42.5 20 5 -1 0 0 #
point $-1 60 20 5 #
point $-1 22.5 20 5 #
point $-1 60 60 5 #
