**ABCDEFGHIJKLMNOPQRSTUVWXYZabcdefghijklmnopqrstuvwxyz**************************
**PARASOLID !"#$%&'()*+,-./:;<=>?@[\]^_`{|}~0123456789**************************
**PART1;MC=sun;MC_MODEL=sun3;MC_ID=giskard;OS=SunOS;OS_RELEASE=4.1;FRU=sdl_paras
olid_test_sun;APPL=unknown;SITE=sdl-cambridge-u.k.;USER=kramer;FORMAT=text;GUISE
=transmit;KEY=eee;FILE=eee.xmt_txt;DATE=29-aug-1991;
**PART2;SCH=SCH_301017_3000;USFLD_SIZE=0;
**PART3;
**END_OF_HEADER*****************************************************************
T50 : TRANSMIT FILE created by modeller version 30101715 SCH_301017_30000 12 1 2
16 0 0 0 0 0 1e3 1e-8 2 2 0 0 0 1 3 102 3 2 eee13 3 2 0 1 0 4 5 6 7 8 9 14 4 192
 0 10 0 11 3 7 +16 5 190 0 12 0 13 8 18 6 122 0 14 0 15 9 50 7 216 0 4 16 0 0 +0
 3 0 -1 0 0 0 0 1 30 8 204 0 5 17 0 0 +0 0 0 0 0 1 29 9 147 0 6 18 0 0 6 0 29 18
 148 0 15 19 9 6 6 0 18 15 123 0 20 6 21 18 29 19 149 0 21 22 18 6 5 0 18 21 124
 0 23 15 24 19 29 22 150 0 24 25 19 1 5 0 18 24 125 0 26 21 27 22 29 25 151 0 27
 28 22 1 3.5 0 18 27 126 0 29 24 30 25 29 28 152 0 30 31 25 4 3.5 0 18 30 127 0
 32 27 33 28 29 31 153 0 33 34 28 4 2.5 0 18 33 128 0 35 30 36 31 29 34 154 0 36
 37 31 1 2.5 0 18 36 129 0 38 33 39 34 29 37 155 0 39 40 34 1 1 0 18 39 130 0 41
 36 42 37 29 40 156 0 42 43 37 6 1 0 18 42 131 0 44 39 45 40 29 43 157 0 45 46 4
0 6 0 0 18 45 132 0 47 42 48 43 29 46 158 0 48 49 43 0 0 0 18 48 133 0 50 45 51
 46 29 49 90 0 51 52 46 0 6 6 18 51 88 0 53 48 54 49 29 52 82 0 54 55 49 6 6 6 1
8 54 80 0 56 51 57 52 29 55 74 0 57 58 52 6 5 6 18 57 72 0 59 54 60 55 29 58 66
 0 60 61 55 1 5 6 18 60 64 0 62 57 63 58 29 61 58 0 63 64 58 1 3.5 6 18 63 56 0
 65 60 66 61 29 64 50 0 66 67 61 4 3.5 6 18 66 48 0 68 63 69 64 29 67 42 0 69 70
 64 4 2.5 6 18 69 40 0 71 66 72 67 29 70 34 0 72 73 67 1 2.5 6 18 72 32 0 74 69
 75 70 29 73 26 0 75 76 70 1 1 6 18 75 24 0 77 72 78 73 29 76 18 0 78 79 73 6 1
 6 18 78 16 0 80 75 81 76 29 79 11 0 81 82 76 6 0 6 18 81 9 0 83 78 84 79 29 82
 8 0 84 0 79 0 0 6 18 84 6 0 85 81 0 82 17 85 86 87 88 84 83 89 15 86 107 0 47 9
0 0 17 87 86 47 85 48 12 5 17 88 86 85 47 81 91 92 17 83 93 80 94 81 85 89 16 89
 10 0 83 95 0 96 16 95 17 0 80 97 89 98 30 96 12 0 89 0 98 0 +0 0 6 1 0 0 30 98
 19 0 95 96 99 0 +6 0 6 0 1 0 30 99 27 0 97 98 100 0 +6 1 6 -1 0 0 16 97 25 0 77
 101 95 99 30 100 35 0 101 99 102 0 +1 1 6 0 1 0 16 101 33 0 74 103 97 100 30 10
2 43 0 103 100 104 0 +1 2.5 6 1 0 0 16 103 41 0 71 105 101 102 30 104 51 0 105 1
02 106 0 +4 2.5 6 0 1 0 16 105 49 0 68 107 103 104 30 106 59 0 107 104 108 0 +4
 3.5 6 -1 0 0 16 107 57 0 65 109 105 106 30 108 67 0 109 106 110 0 +1 3.5 6 0 1
 0 16 109 65 0 62 111 107 108 30 110 75 0 111 108 112 0 +1 5 6 1 0 0 16 111 73 0
 59 113 109 110 30 112 83 0 113 110 114 0 +6 5 6 0 1 0 16 113 81 0 56 115 111 11
2 30 114 91 0 115 112 116 0 +6 6 6 -1 0 0 16 115 89 0 53 117 113 114 30 116 99 0
 117 114 118 0 +0 6 6 0 -1 0 16 117 97 0 94 119 115 116 30 118 146 0 119 116 120
 0 +0 0 0 1 0 0 16 119 121 0 47 121 117 118 30 120 145 0 121 118 122 0 +6 0 0 0
 1 0 16 121 120 0 44 123 119 120 30 122 144 0 123 120 124 0 +6 1 0 -1 0 0 16 123
 119 0 41 125 121 122 30 124 143 0 125 122 126 0 +1 1 0 0 1 0 16 125 118 0 38 12
7 123 124 30 126 142 0 127 124 128 0 +1 2.5 0 1 0 0 16 127 117 0 35 129 125 126
 30 128 141 0 129 126 130 0 +4 2.5 0 0 1 0 16 129 116 0 32 131 127 128 30 130 14
0 0 131 128 132 0 +4 3.5 0 -1 0 0 16 131 115 0 29 133 129 130 30 132 139 0 133 1
30 134 0 +1 3.5 0 0 1 0 16 133 114 0 26 135 131 132 30 134 138 0 135 132 136 0 +
1 5 0 1 0 0 16 135 113 0 23 137 133 134 30 136 137 0 137 134 138 0 +6 5 0 0 1 0
 16 137 112 0 20 139 135 136 30 138 136 0 139 136 140 0 +6 6 0 -1 0 0 16 139 111
 0 14 141 137 138 30 140 135 0 141 138 142 0 +0 6 0 0 -1 0 16 141 110 0 143 92 1
39 140 30 142 193 0 92 140 144 0 +6 0 0 0 0 1 16 92 159 0 88 145 141 142 30 144
 194 0 145 142 146 0 +6 1 0 0 0 1 16 145 160 0 147 148 92 144 30 146 195 0 148 1
44 149 0 +1 1 0 0 0 1 16 148 163 0 150 151 145 146 30 149 196 0 151 146 152 0 +1
 2.5 0 0 0 1 16 151 166 0 153 154 148 149 30 152 197 0 154 149 155 0 +4 2.5 0 0
 0 1 16 154 169 0 156 157 151 152 30 155 198 0 157 152 158 0 +4 3.5 0 0 0 1 16 1
57 172 0 159 160 154 155 30 158 199 0 160 155 161 0 +1 3.5 0 0 0 1 16 160 175 0
 162 163 157 158 30 161 200 0 163 158 164 0 +1 5 0 0 0 1 16 163 178 0 165 166 16
0 161 30 164 201 0 166 161 167 0 +6 5 0 0 0 1 16 166 181 0 168 169 163 164 30 16
7 202 0 169 164 17 0 +6 6 0 0 0 1 16 169 184 0 170 13 166 167 30 17 203 0 13 167
 8 0 +0 6 0 0 0 1 16 13 187 0 171 5 169 17 17 171 172 173 14 51 174 13 15 172 18
8 0 171 10 0 17 173 172 175 171 54 53 115 17 14 172 171 175 6 176 139 17 174 11
 143 177 6 171 13 15 11 191 0 12 4 0 17 143 11 12 174 48 178 141 17 177 11 174 1
2 51 94 117 17 12 11 177 143 84 87 5 17 94 93 83 53 84 177 117 15 93 7 0 83 179
 0 17 53 93 94 56 51 173 115 17 56 93 53 59 54 180 113 17 59 93 56 62 57 181 111
 17 180 182 183 170 57 56 113 15 182 185 0 170 184 0 17 183 182 20 180 21 168 16
6 17 170 182 180 20 54 175 169 17 20 182 170 183 15 185 137 17 175 172 14 173 15
 170 169 17 185 186 187 176 21 20 137 15 186 109 0 50 188 0 17 187 186 189 185 2
4 23 135 17 176 186 185 178 15 14 139 17 178 186 176 50 6 143 141 17 50 186 178
 190 48 47 119 17 190 186 50 191 45 44 121 17 47 86 88 87 45 50 119 17 191 186 1
90 192 42 41 123 17 44 193 147 91 42 190 121 15 193 161 0 147 194 0 17 147 193 1
95 44 78 196 145 17 91 193 44 195 45 88 92 17 195 193 91 147 81 80 95 17 80 93 7
7 83 78 195 95 17 77 93 74 80 75 197 97 17 74 93 71 77 72 198 101 17 197 199 196
 150 78 77 97 15 199 164 0 150 200 0 17 196 199 41 197 42 147 145 17 150 199 197
 41 75 201 148 17 41 199 150 196 39 191 123 17 201 202 38 198 39 150 148 15 202
 167 0 153 203 0 17 38 202 153 201 36 192 125 17 198 202 201 153 75 74 101 17 15
3 202 198 38 72 204 151 17 204 205 35 206 36 153 151 15 205 170 0 156 207 0 17 3
5 205 156 204 33 208 127 17 206 205 204 156 72 71 103 17 156 205 206 35 69 209 1
54 17 71 93 68 74 69 206 103 17 68 93 65 71 66 210 105 17 65 93 62 68 63 211 107
 17 210 212 209 159 69 68 105 15 212 173 0 159 213 0 17 209 212 32 210 33 156 15
4 17 159 212 210 32 66 214 157 17 32 212 159 209 30 215 129 17 214 216 29 211 30
 159 157 15 216 176 0 162 217 0 17 29 216 162 214 27 218 131 17 211 216 214 162
 66 65 107 17 162 216 211 29 63 219 160 17 219 220 26 221 27 162 160 15 220 179
 0 165 222 0 17 26 220 165 219 24 189 133 17 221 220 219 165 63 62 109 17 165 22
0 221 26 60 223 163 17 62 93 59 65 60 221 109 17 223 224 23 181 24 165 163 15 22
4 182 0 168 225 0 17 23 224 168 223 21 187 135 17 181 224 223 168 60 59 111 17 1
68 224 181 23 57 183 166 14 225 183 0 222 184 224 3 226 +14 222 180 0 217 225 22
0 3 227 +14 184 186 0 225 10 182 3 228 +50 226 213 0 225 227 228 0 +3.5 5 0 0 -1
 0 0 0 -1 50 227 212 0 222 229 226 0 +1 4.25 0 1 0 0 0 0 -1 50 228 214 0 184 226
 16 0 +6 5.5 0 1 0 0 0 0 -1 50 16 215 0 10 228 7 0 +3 6 0 0 1 0 0 0 1 14 10 189
 0 184 4 172 3 16 +50 229 211 0 217 230 227 0 +2.5 3.5 0 0 1 0 0 0 1 14 217 177
 0 213 222 216 3 229 +50 230 210 0 213 231 229 0 +4 3 0 1 0 0 0 0 -1 14 213 174
 0 207 217 212 3 230 +50 231 209 0 207 232 230 0 +2.5 2.5 0 0 -1 0 0 0 -1 14 207
 171 0 203 213 205 3 231 +50 232 208 0 203 233 231 0 +1 1.75 0 1 0 0 0 0 -1 14 2
03 168 0 200 207 202 3 232 +50 233 207 0 200 234 232 0 +3.5 1 0 0 1 0 0 0 1 14 2
00 165 0 194 203 199 3 233 +50 234 206 0 194 235 233 0 +6 .5 0 1 0 0 0 0 -1 14 1
94 162 0 188 200 193 3 234 +50 235 205 0 90 236 234 0 +3 0 0 0 -1 0 0 0 -1 14 90
 103 0 179 188 86 3 235 +50 236 134 0 188 237 235 0 +0 0 0 0 0 -1 -1 0 0 14 188
 108 0 90 194 186 3 236 +50 237 104 0 179 0 236 0 +0 0 6 0 0 -1 -1 0 0 14 179 1
 0 0 90 93 3 237 -17 189 186 218 187 27 26 133 17 218 186 215 189 30 29 131 17 2
15 186 208 218 33 32 129 17 208 186 192 215 36 35 127 17 192 186 191 208 39 38 1
25 1 0 
