**ABCDEFGHIJKLMNOPQRSTUVWXYZabcdefghijklmnopqrstuvwxyz**************************
**PARASOLID !"#$%&'()*+,-./:;<=>?@[\]^_`{|}~0123456789**************************
**PART1;MC=sun;MC_MODEL=sun3x;MC_ID=sneezy;OS=SunOS;OS_RELEASE=4.1.1;FRU=sdl_par
asolid_test_sun;APPL=unknown;SITE=sdl-cambridge-u.k.;USER=kramer;FORMAT=text;GUI
SE=transmit;KEY=ell;FILE=ell.xmt_txt;DATE=5-sep-1991;
**PART2;SCH=SCH_301017_3000;USFLD_SIZE=0;
**PART3;
**END_OF_HEADER*****************************************************************
T50 : TRANSMIT FILE created by modeller version 30101715 SCH_301017_30000 12 1 1
14 0 0 0 0 0 1e3 1e-8 2 2 0 0 0 1 3 102 3 2 ell13 3 2 0 1 0 4 5 6 7 8 9 14 4 102
 0 10 0 11 3 7 +16 5 100 0 12 0 13 8 18 6 68 0 14 0 15 9 50 7 114 0 4 16 0 0 +0
 3 0 -1 0 0 0 0 1 30 8 108 0 5 17 0 0 +0 0 0 0 0 1 29 9 81 0 6 18 0 0 6 0 29 18
 82 0 15 19 9 1 6 0 18 15 69 0 20 6 21 18 29 19 83 0 21 22 18 1 1 0 18 21 70 0 2
3 15 24 19 29 22 84 0 24 25 19 6 1 0 18 24 71 0 26 21 27 22 29 25 85 0 27 28 22
 6 0 0 18 27 72 0 29 24 30 25 29 28 86 0 30 31 25 0 0 0 18 30 73 0 32 27 33 28 2
9 31 42 0 33 34 28 0 6 6 18 33 40 0 35 30 36 31 29 34 34 0 36 37 31 1 6 6 18 36
 32 0 38 33 39 34 29 37 26 0 39 40 34 1 1 6 18 39 24 0 41 36 42 37 29 40 18 0 42
 43 37 6 1 6 18 42 16 0 44 39 45 40 29 43 11 0 45 46 40 6 0 6 18 45 9 0 47 42 48
 43 29 46 8 0 48 0 43 0 0 6 18 48 6 0 49 45 0 46 17 49 50 51 52 48 47 53 15 50 5
9 0 29 54 0 17 51 50 29 49 30 12 5 17 52 50 49 29 45 55 56 17 47 57 44 58 45 49
 53 16 53 10 0 47 59 0 60 16 59 17 0 44 61 53 62 30 60 12 0 53 0 62 0 +0 0 6 1 0
 0 30 62 19 0 59 60 63 0 +6 0 6 0 1 0 30 63 27 0 61 62 64 0 +6 1 6 -1 0 0 16 61
 25 0 41 65 59 63 30 64 35 0 65 63 66 0 +1 1 6 0 1 0 16 65 33 0 38 67 61 64 30 6
6 43 0 67 64 68 0 +1 6 6 -1 0 0 16 67 41 0 35 69 65 66 30 68 51 0 69 66 70 0 +0
 6 6 0 -1 0 16 69 49 0 58 71 67 68 30 70 80 0 71 68 72 0 +0 0 0 1 0 0 16 71 67 0
 29 73 69 70 30 72 79 0 73 70 74 0 +6 0 0 0 1 0 16 73 66 0 26 75 71 72 30 74 78
 0 75 72 76 0 +6 1 0 -1 0 0 16 75 65 0 23 77 73 74 30 76 77 0 77 74 78 0 +1 1 0
 0 1 0 16 77 64 0 20 79 75 76 30 78 76 0 79 76 80 0 +1 6 0 -1 0 0 16 79 63 0 14
 81 77 78 30 80 75 0 81 78 82 0 +0 6 0 0 -1 0 16 81 62 0 83 56 79 80 30 82 103 0
 56 80 84 0 +6 0 0 0 0 1 16 56 87 0 52 85 81 82 30 84 104 0 85 82 86 0 +6 1 0 0
 0 1 16 85 88 0 87 88 56 84 30 86 105 0 88 84 89 0 +1 1 0 0 0 1 16 88 91 0 90 91
 85 86 30 89 106 0 91 86 17 0 +1 6 0 0 0 1 16 91 94 0 92 13 88 89 30 17 107 0 13
 89 8 0 +0 6 0 0 0 1 16 13 97 0 93 5 91 17 17 93 94 95 14 33 96 13 15 94 98 0 93
 10 0 17 95 94 97 93 36 35 67 17 14 94 93 97 6 98 79 17 96 11 83 99 6 93 13 15 1
1 101 0 12 4 0 17 83 11 12 96 30 100 81 17 99 11 96 12 33 58 69 17 12 11 99 83 4
8 51 5 17 58 57 47 35 48 99 69 15 57 7 0 47 101 0 17 35 57 58 38 33 95 67 17 38
 57 35 41 36 102 65 17 41 57 38 44 39 103 61 17 102 104 105 92 39 38 65 15 104 9
5 0 92 106 0 17 105 104 20 102 21 90 88 17 92 104 102 20 36 97 91 17 20 104 92 1
05 15 107 77 17 97 94 14 95 15 92 91 17 107 108 109 98 21 20 77 15 108 61 0 32 1
10 0 17 109 108 111 107 24 23 75 17 98 108 107 100 15 14 79 17 100 108 98 32 6 8
3 81 17 32 108 100 111 30 29 71 17 111 108 32 109 27 26 73 17 29 50 52 51 27 32
 71 17 26 112 87 55 24 111 73 15 112 89 0 87 113 0 17 87 112 114 26 42 115 85 17
 55 112 26 114 27 52 56 17 114 112 55 87 45 44 59 17 44 57 41 47 42 114 59 17 11
5 116 23 103 24 87 85 15 116 92 0 90 117 0 17 23 116 90 115 21 109 75 17 103 116
 115 90 42 41 61 17 90 116 103 23 39 105 88 14 117 93 0 113 106 116 3 118 +14 11
3 90 0 110 117 112 3 119 +14 106 96 0 117 10 104 3 120 +50 118 111 0 117 119 120
 0 +3.5 1 0 0 1 0 0 0 1 50 119 110 0 113 121 118 0 +6 .5 0 1 0 0 0 0 -1 50 120 1
12 0 106 118 16 0 +1 3.5 0 1 0 0 0 0 -1 50 16 113 0 10 120 7 0 +.5 6 0 0 1 0 0 0
 1 14 10 99 0 106 4 94 3 16 +50 121 109 0 54 122 119 0 +3 0 0 0 -1 0 0 0 -1 14 5
4 55 0 101 110 50 3 121 +50 122 74 0 110 123 121 0 +0 0 0 0 0 -1 -1 0 0 14 110 6
0 0 54 113 108 3 122 +50 123 56 0 101 0 122 0 +0 0 6 0 0 -1 -1 0 0 14 101 1 0 0
 54 57 3 123 -1 0 
