**ABCDEFGHIJKLMNOPQRSTUVWXYZabcdefghijklmnopqrstuvwxyz**************************
**PARASOLID !"#$%&'()*+,-./:;<=>?@[\]^_`{|}~0123456789**************************
**PART1;MC=sun;MC_MODEL=sun3x;MC_ID=sneezy;OS=SunOS;OS_RELEASE=4.1.1;FRU=sdl_par
asolid_test_sun;APPL=unknown;SITE=sdl-cambridge-u.k.;USER=kramer;FORMAT=text;GUI
SE=transmit;KEY=emm;FILE=emm.xmt_txt;DATE=5-sep-1991;
**PART2;SCH=SCH_301017_3000;USFLD_SIZE=0;
**PART3;
**END_OF_HEADER*****************************************************************
T50 : TRANSMIT FILE created by modeller version 30101715 SCH_301017_30000 12 1 1
82 0 0 0 0 0 1e3 1e-8 2 2 0 3 0 1 4 102 3 2 emm13 4 2 0 1 0 5 6 7 8 9 10 14 5 16
2 0 11 0 12 4 8 +16 6 160 0 13 0 14 9 18 7 104 0 15 0 16 10 50 8 182 0 5 17 0 0
 +0 3 0 -1 0 0 0 0 1 30 9 172 0 6 18 0 0 +0 0 0 0 0 1 29 10 125 0 7 19 0 0 6 0 2
9 19 126 0 16 20 10 3 4.267949192431 0 18 16 105 0 21 7 22 19 29 20 127 0 22 23
 19 6 6 0 18 22 106 0 24 16 25 20 29 23 128 0 25 26 20 6 0 0 18 25 107 0 27 22 2
8 23 29 26 129 0 28 29 23 5 0 0 18 28 108 0 30 25 31 26 29 29 130 0 31 32 26 5 4
.267949192431 0 18 31 109 0 33 28 34 29 29 32 131 0 34 35 29 3 3.113248654052 0
 18 34 110 0 36 31 37 32 29 35 132 0 37 38 32 1 4.267949192431 0 18 37 111 0 39
 34 40 35 29 38 133 0 40 41 35 1 0 0 18 40 112 0 42 37 43 38 29 41 134 0 43 44 3
8 0 0 0 18 43 113 0 45 40 46 41 29 44 74 0 46 47 41 0 6 6 18 46 72 0 48 43 49 44
 29 47 66 0 49 50 44 3 4.267949192431 6 18 49 64 0 51 46 52 47 29 50 58 0 52 53
 47 6 6 6 18 52 56 0 54 49 55 50 29 53 50 0 55 56 50 6 0 6 18 55 48 0 57 52 58 5
3 29 56 42 0 58 59 53 5 0 6 18 58 40 0 60 55 61 56 29 59 34 0 61 62 56 5 4.26794
9192431 6 18 61 32 0 63 58 64 59 29 62 26 0 64 65 59 3 3.113248654052 6 18 64 24
 0 66 61 67 62 29 65 18 0 67 68 62 1 4.267949192431 6 18 67 16 0 69 64 70 65 29
 68 11 0 70 71 65 1 0 6 18 70 9 0 72 67 73 68 29 71 8 0 73 0 68 0 0 6 18 73 6 0
 74 70 0 71 17 74 75 76 77 73 72 78 15 75 91 0 42 79 0 17 76 75 42 74 43 13 6 17
 77 75 74 42 70 80 81 17 72 82 69 83 70 74 78 16 78 10 0 72 84 0 85 16 84 17 0 6
9 86 78 87 30 85 12 0 78 0 87 0 +0 0 6 1 0 0 30 87 19 0 84 85 88 0 +1 0 6 0 1 0
 30 88 27 0 86 87 89 0 +1 4.267949192431 6 .866025403784486 -.499999999999918 0
 16 86 25 0 66 90 84 88 30 89 35 0 90 88 91 0 +3 3.113248654052 6 .8660254037844
86 .499999999999918 0 16 90 33 0 63 92 86 89 30 91 43 0 92 89 93 0 +5 4.26794919
2431 6 0 -1 0 16 92 41 0 60 94 90 91 30 93 51 0 94 91 95 0 +5 0 6 1 0 0 16 94 49
 0 57 96 92 93 30 95 59 0 96 93 97 0 +6 0 6 0 1 0 16 96 57 0 54 98 94 95 30 97 6
7 0 98 95 99 0 +6 6 6 -.866025403784423 -.500000000000027 0 16 98 65 0 51 100 96
 97 30 99 75 0 100 97 101 0 +3 4.267949192431 6 -.866025403784423 .5000000000000
27 0 16 100 73 0 48 102 98 99 30 101 83 0 102 99 103 0 +0 6 6 0 -1 0 16 102 81 0
 83 104 100 101 30 103 124 0 104 101 105 0 +0 0 0 1 0 0 16 104 103 0 42 106 102
 103 30 105 123 0 106 103 107 0 +1 0 0 0 1 0 16 106 102 0 39 108 104 105 30 107
 122 0 108 105 109 0 +1 4.267949192431 0 .866025403784486 -.499999999999918 0 16
 108 101 0 36 110 106 107 30 109 121 0 110 107 111 0 +3 3.113248654052 0 .866025
403784486 .499999999999918 0 16 110 100 0 33 112 108 109 30 111 120 0 112 109 11
3 0 +5 4.267949192431 0 0 -1 0 16 112 99 0 30 114 110 111 30 113 119 0 114 111 1
15 0 +5 0 0 1 0 0 16 114 98 0 27 116 112 113 30 115 118 0 116 113 117 0 +6 0 0 0
 1 0 16 116 97 0 24 118 114 115 30 117 117 0 118 115 119 0 +6 6 0 -.866025403784
423 -.500000000000027 0 16 118 96 0 21 120 116 117 30 119 116 0 120 117 121 0 +3
 4.267949192431 0 -.866025403784423 .500000000000027 0 16 120 95 0 15 122 118 11
9 30 121 115 0 122 119 123 0 +0 6 0 0 -1 0 16 122 94 0 124 81 120 121 30 123 163
 0 81 121 125 0 +1 0 0 0 0 1 16 81 135 0 77 126 122 123 30 125 164 0 126 123 127
 0 +1 4.267949192431 0 0 0 1 16 126 136 0 128 129 81 125 30 127 165 0 129 125 13
0 0 +3 3.113248654052 0 0 0 1 16 129 139 0 131 132 126 127 30 130 166 0 132 127
 133 0 +5 4.267949192431 0 0 0 1 16 132 142 0 134 135 129 130 30 133 167 0 135 1
30 136 0 +5 0 0 0 0 1 16 135 145 0 137 138 132 133 30 136 168 0 138 133 139 0 +6
 0 0 0 0 1 16 138 148 0 140 141 135 136 30 139 169 0 141 136 142 0 +6 6 0 0 0 1
 16 141 151 0 143 144 138 139 30 142 170 0 144 139 18 0 +3 4.267949192431 0 0 0
 1 16 144 154 0 145 14 141 142 30 18 171 0 14 142 9 0 +0 6 0 0 0 1 16 14 157 0 1
46 6 144 18 17 146 147 148 15 46 149 14 15 147 158 0 146 11 0 17 148 147 150 146
 49 48 100 17 15 147 146 150 7 151 120 17 149 12 124 152 7 146 14 15 12 161 0 13
 5 0 17 124 12 13 149 43 153 122 17 152 12 149 13 46 83 102 17 13 12 152 124 73
 76 6 17 83 82 72 48 73 152 102 15 82 7 0 72 154 0 17 48 82 83 51 46 148 100 17
 51 82 48 54 49 155 98 17 54 82 51 57 52 156 96 17 155 157 158 145 52 51 98 15 1
57 155 0 145 159 0 17 158 157 21 155 22 143 141 17 145 157 155 21 49 150 144 17
 21 157 145 158 16 160 118 17 150 147 15 148 16 145 144 17 160 161 162 151 22 21
 118 15 161 93 0 45 163 0 17 162 161 164 160 25 24 116 17 151 161 160 153 16 15
 120 17 153 161 151 45 7 124 122 17 45 161 153 165 43 42 104 17 165 161 45 166 4
0 39 106 17 42 75 77 76 40 45 104 17 166 161 165 167 37 36 108 17 39 168 128 80
 37 165 106 15 168 137 0 128 169 0 17 128 168 170 39 67 171 126 17 80 168 39 170
 40 77 81 17 170 168 80 128 70 69 84 17 69 82 66 72 67 170 84 17 66 82 63 69 64
 172 86 17 63 82 60 66 61 173 90 17 172 174 171 131 67 66 86 15 174 140 0 131 17
5 0 17 171 174 36 172 37 128 126 17 131 174 172 36 64 176 129 17 36 174 131 171
 34 166 108 17 176 177 33 173 34 131 129 15 177 143 0 134 178 0 17 33 177 134 17
6 31 167 110 17 173 177 176 134 64 63 90 17 134 177 173 33 61 179 132 17 179 180
 30 181 31 134 132 15 180 146 0 137 182 0 17 30 180 137 179 28 183 112 17 181 18
0 179 137 61 60 92 17 137 180 181 30 58 184 135 17 60 82 57 63 58 181 92 17 57 8
2 54 60 55 185 94 17 185 186 184 140 58 57 94 15 186 149 0 140 187 0 17 184 186
 27 185 28 137 135 17 140 186 185 27 55 188 138 17 27 186 140 184 25 164 114 17
 188 189 24 156 25 140 138 15 189 152 0 143 190 0 17 24 189 143 188 22 162 116 1
7 156 189 188 143 55 54 96 17 143 189 156 24 52 158 141 14 190 153 0 187 159 189
 4 191 +14 187 150 0 182 190 186 4 192 +14 159 156 0 190 11 157 4 193 +50 191 17
9 0 190 192 193 0 +6 3 0 1 0 0 0 0 -1 50 192 178 0 187 194 191 0 +5.5 0 0 0 -1 0
 0 0 -1 50 193 180 0 159 191 17 0 +4.5 5.1339745962155 0 -.500000000000027 .8660
25403784423 0 -.866025403784423 -.500000000000027 0 50 17 181 0 11 193 8 0 +1.5
 5.1339745962155 0 .500000000000027 .866025403784423 0 -.866025403784423 .500000
000000027 0 14 11 159 0 159 5 147 4 17 +50 194 177 0 182 195 192 0 +5 2.13397459
62155 0 -1 0 0 0 0 1 14 182 147 0 178 187 180 4 194 +50 195 176 0 178 196 194 0
 +4 3.6905989232415 0 .499999999999918 -.866025403784486 0 .866025403784486 .499
999999999918 0 14 178 144 0 175 182 177 4 195 +50 196 175 0 175 197 195 0 +2 3.6
905989232415 0 -.499999999999918 -.866025403784486 0 .866025403784486 -.49999999
9999918 0 14 175 141 0 169 178 174 4 196 +50 197 174 0 169 198 196 0 +1 2.133974
5962155 0 1 0 0 0 0 -1 14 169 138 0 163 175 168 4 197 +50 198 173 0 79 199 197 0
 +.5 0 0 0 -1 0 0 0 -1 14 79 87 0 154 163 75 4 198 +50 199 114 0 163 200 198 0 +
0 0 0 0 0 -1 -1 0 0 14 163 92 0 79 169 161 4 199 +50 200 88 0 154 0 199 0 +0 0 6
 0 0 -1 -1 0 0 14 154 1 0 0 79 82 4 200 -17 164 161 183 162 28 27 114 17 183 161
 167 164 31 30 112 17 167 161 166 183 34 33 110 1 0 
