**ABCDEFGHIJKLMNOPQRSTUVWXYZabcdefghijklmnopqrstuvwxyz**************************
**PARASOLID !"#$%&'()*+,-./:;<=>?@[\]^_`{|}~0123456789**************************
**PART1;MC=sparc;MC_MODEL=sun4c;MC_ID=cosmos;OS=SunOS;OS_RELEASE=4.1.1;FRU=sdl_p
arasolid_test_sparc;APPL=unknown;SITE=sdl-cambridge-u.k.;USER=kramer;FORMAT=text
;GUISE=transmit;KEY=emm;FILE=emm.xmt_txt;DATE=2-mar-1992;
**PART2;SCH=SCH_400062_4035;USFLD_SIZE=0;
**PART3;
**END_OF_HEADER*****************************************************************
T50 : TRANSMIT FILE created by modeller version 40006215 SCH_400062_40350 12 1 1
82 0 0 0 0 0 1e3 1e-8 2 2 0 0 0 1 3 1e-8 0 0 102 3 2 emm13 3 2 0 1 0 4 5 6 7 8 9
 14 4 162 0 10 0 11 3 7 +16 5 160 0 12 0 13 8 18 6 104 0 14 0 15 9 50 7 182 0 4
 16 0 0 +0 3 0 -1 0 0 0 0 1 30 8 172 0 5 17 0 0 +1e-8 0 0 0 0 0 1 29 9 125 0 6 1
8 0 0 6 0 29 18 126 0 15 19 9 3 4.267949192431 0 18 15 105 0 20 6 21 18 29 19 12
7 0 21 22 18 6 6 0 18 21 106 0 23 15 24 19 29 22 128 0 24 25 19 6 0 0 18 24 107
 0 26 21 27 22 29 25 129 0 27 28 22 5 0 0 18 27 108 0 29 24 30 25 29 28 130 0 30
 31 25 5 4.267949192431 0 18 30 109 0 32 27 33 28 29 31 131 0 33 34 28 3 3.11324
8654052 0 18 33 110 0 35 30 36 31 29 34 132 0 36 37 31 1 4.267949192431 0 18 36
 111 0 38 33 39 34 29 37 133 0 39 40 34 1 0 0 18 39 112 0 41 36 42 37 29 40 134
 0 42 43 37 0 0 0 18 42 113 0 44 39 45 40 29 43 74 0 45 46 40 0 6 6 18 45 72 0 4
7 42 48 43 29 46 66 0 48 49 43 3 4.267949192431 6 18 48 64 0 50 45 51 46 29 49 5
8 0 51 52 46 6 6 6 18 51 56 0 53 48 54 49 29 52 50 0 54 55 49 6 0 6 18 54 48 0 5
6 51 57 52 29 55 42 0 57 58 52 5 0 6 18 57 40 0 59 54 60 55 29 58 34 0 60 61 55
 5 4.267949192431 6 18 60 32 0 62 57 63 58 29 61 26 0 63 64 58 3 3.113248654052
 6 18 63 24 0 65 60 66 61 29 64 18 0 66 67 61 1 4.267949192431 6 18 66 16 0 68 6
3 69 64 29 67 11 0 69 70 64 1 0 6 18 69 9 0 71 66 72 67 29 70 8 0 72 0 67 0 0 6
 18 72 6 0 73 69 0 70 17 73 74 75 76 72 71 77 0 15 74 91 0 41 78 0 17 75 74 41 7
3 42 12 5 0 17 76 74 73 41 69 79 80 0 17 71 81 68 82 69 73 77 0 16 77 10 0 71 83
 0 84 16 83 17 0 68 85 77 86 30 84 12 0 77 0 86 0 +1e-8 0 0 6 1 0 0 30 86 19 0 8
3 84 87 0 +1e-8 1 0 6 0 1 0 30 87 27 0 85 86 88 0 +1e-8 1 4.267949192431 6 .8660
25403784486 -.499999999999918 0 16 85 25 0 65 89 83 87 30 88 35 0 89 87 90 0 +1e
-8 3 3.113248654052 6 .866025403784486 .499999999999918 0 16 89 33 0 62 91 85 88
 30 90 43 0 91 88 92 0 +1e-8 5 4.267949192431 6 0 -1 0 16 91 41 0 59 93 89 90 30
 92 51 0 93 90 94 0 +1e-8 5 0 6 1 0 0 16 93 49 0 56 95 91 92 30 94 59 0 95 92 96
 0 +1e-8 6 0 6 0 1 0 16 95 57 0 53 97 93 94 30 96 67 0 97 94 98 0 +1e-8 6 6 6 -.
866025403784423 -.500000000000027 0 16 97 65 0 50 99 95 96 30 98 75 0 99 96 100
 0 +1e-8 3 4.267949192431 6 -.866025403784423 .500000000000027 0 16 99 73 0 47 1
01 97 98 30 100 83 0 101 98 102 0 +1e-8 0 6 6 0 -1 0 16 101 81 0 82 103 99 100 3
0 102 124 0 103 100 104 0 +1e-8 0 0 0 1 0 0 16 103 103 0 41 105 101 102 30 104 1
23 0 105 102 106 0 +1e-8 1 0 0 0 1 0 16 105 102 0 38 107 103 104 30 106 122 0 10
7 104 108 0 +1e-8 1 4.267949192431 0 .866025403784486 -.499999999999918 0 16 107
 101 0 35 109 105 106 30 108 121 0 109 106 110 0 +1e-8 3 3.113248654052 0 .86602
5403784486 .499999999999918 0 16 109 100 0 32 111 107 108 30 110 120 0 111 108 1
12 0 +1e-8 5 4.267949192431 0 0 -1 0 16 111 99 0 29 113 109 110 30 112 119 0 113
 110 114 0 +1e-8 5 0 0 1 0 0 16 113 98 0 26 115 111 112 30 114 118 0 115 112 116
 0 +1e-8 6 0 0 0 1 0 16 115 97 0 23 117 113 114 30 116 117 0 117 114 118 0 +1e-8
 6 6 0 -.866025403784423 -.500000000000027 0 16 117 96 0 20 119 115 116 30 118 1
16 0 119 116 120 0 +1e-8 3 4.267949192431 0 -.866025403784423 .500000000000027 0
 16 119 95 0 14 121 117 118 30 120 115 0 121 118 122 0 +1e-8 0 6 0 0 -1 0 16 121
 94 0 123 80 119 120 30 122 163 0 80 120 124 0 +1e-8 1 0 0 0 0 1 16 80 135 0 76
 125 121 122 30 124 164 0 125 122 126 0 +1e-8 1 4.267949192431 0 0 0 1 16 125 13
6 0 127 128 80 124 30 126 165 0 128 124 129 0 +1e-8 3 3.113248654052 0 0 0 1 16
 128 139 0 130 131 125 126 30 129 166 0 131 126 132 0 +1e-8 5 4.267949192431 0 0
 0 1 16 131 142 0 133 134 128 129 30 132 167 0 134 129 135 0 +1e-8 5 0 0 0 0 1 1
6 134 145 0 136 137 131 132 30 135 168 0 137 132 138 0 +1e-8 6 0 0 0 0 1 16 137
 148 0 139 140 134 135 30 138 169 0 140 135 141 0 +1e-8 6 6 0 0 0 1 16 140 151 0
 142 143 137 138 30 141 170 0 143 138 17 0 +1e-8 3 4.267949192431 0 0 0 1 16 143
 154 0 144 13 140 141 30 17 171 0 13 141 8 0 +1e-8 0 6 0 0 0 1 16 13 157 0 145 5
 143 17 17 145 146 147 14 45 148 13 0 15 146 158 0 145 10 0 17 147 146 149 145 4
8 47 99 0 17 14 146 145 149 6 150 119 0 17 148 11 123 151 6 145 13 0 15 11 161 0
 12 4 0 17 123 11 12 148 42 152 121 0 17 151 11 148 12 45 82 101 0 17 12 11 151
 123 72 75 5 0 17 82 81 71 47 72 151 101 0 15 81 7 0 71 153 0 17 47 81 82 50 45
 147 99 0 17 50 81 47 53 48 154 97 0 17 53 81 50 56 51 155 95 0 17 154 156 157 1
44 51 50 97 0 15 156 155 0 144 158 0 17 157 156 20 154 21 142 140 0 17 144 156 1
54 20 48 149 143 0 17 20 156 144 157 15 159 117 0 17 149 146 14 147 15 144 143 0
 17 159 160 161 150 21 20 117 0 15 160 93 0 44 162 0 17 161 160 163 159 24 23 11
5 0 17 150 160 159 152 15 14 119 0 17 152 160 150 44 6 123 121 0 17 44 160 152 1
64 42 41 103 0 17 164 160 44 165 39 38 105 0 17 41 74 76 75 39 44 103 0 17 165 1
60 164 166 36 35 107 0 17 38 167 127 79 36 164 105 0 15 167 137 0 127 168 0 17 1
27 167 169 38 66 170 125 0 17 79 167 38 169 39 76 80 0 17 169 167 79 127 69 68 8
3 0 17 68 81 65 71 66 169 83 0 17 65 81 62 68 63 171 85 0 17 62 81 59 65 60 172
 89 0 17 171 173 170 130 66 65 85 0 15 173 140 0 130 174 0 17 170 173 35 171 36
 127 125 0 17 130 173 171 35 63 175 128 0 17 35 173 130 170 33 165 107 0 17 175
 176 32 172 33 130 128 0 15 176 143 0 133 177 0 17 32 176 133 175 30 166 109 0 1
7 172 176 175 133 63 62 89 0 17 133 176 172 32 60 178 131 0 17 178 179 29 180 30
 133 131 0 15 179 146 0 136 181 0 17 29 179 136 178 27 182 111 0 17 180 179 178
 136 60 59 91 0 17 136 179 180 29 57 183 134 0 17 59 81 56 62 57 180 91 0 17 56
 81 53 59 54 184 93 0 17 184 185 183 139 57 56 93 0 15 185 149 0 139 186 0 17 18
3 185 26 184 27 136 134 0 17 139 185 184 26 54 187 137 0 17 26 185 139 183 24 16
3 113 0 17 187 188 23 155 24 139 137 0 15 188 152 0 142 189 0 17 23 188 142 187
 21 161 115 0 17 155 188 187 142 54 53 95 0 17 142 188 155 23 51 157 140 0 14 18
9 153 0 186 158 188 3 190 +14 186 150 0 181 189 185 3 191 +14 158 156 0 189 10 1
56 3 192 +50 190 179 0 189 191 192 0 +6 3 0 1 0 0 0 0 -1 50 191 178 0 186 193 19
0 0 +5.5 0 0 0 -1 0 0 0 -1 50 192 180 0 158 190 16 0 +4.5 5.1339745962155 0 -.50
0000000000027 .866025403784423 0 -.866025403784423 -.500000000000027 0 50 16 181
 0 10 192 7 0 +1.5 5.1339745962155 0 .500000000000027 .866025403784423 0 -.86602
5403784423 .500000000000027 0 14 10 159 0 158 4 146 3 16 +50 193 177 0 181 194 1
91 0 +5 2.1339745962155 0 -1 0 0 0 0 1 14 181 147 0 177 186 179 3 193 +50 194 17
6 0 177 195 193 0 +4 3.6905989232415 0 .499999999999918 -.866025403784486 0 .866
025403784486 .499999999999918 0 14 177 144 0 174 181 176 3 194 +50 195 175 0 174
 196 194 0 +2 3.6905989232415 0 -.499999999999918 -.866025403784486 0 .866025403
784486 -.499999999999918 0 14 174 141 0 168 177 173 3 195 +50 196 174 0 168 197
 195 0 +1 2.1339745962155 0 1 0 0 0 0 -1 14 168 138 0 162 174 167 3 196 +50 197
 173 0 78 198 196 0 +.5 0 0 0 -1 0 0 0 -1 14 78 87 0 153 162 74 3 197 +50 198 11
4 0 162 199 197 0 +0 0 0 0 0 -1 -1 0 0 14 162 92 0 78 168 160 3 198 +50 199 88 0
 153 0 198 0 +0 0 6 0 0 -1 -1 0 0 14 153 1 0 0 78 81 3 199 -17 163 160 182 161 2
7 26 113 0 17 182 160 166 163 30 29 111 0 17 166 160 165 182 33 32 109 0 1 0 
