600 0 2 0           
24 FBMach with ACIS - 6.0.3 13 ACIS 6.0.3 NT 24 Mon Apr 01 00:09:20 2002 
1 9.9999999999999995e-007 1e-010 
body $2 $3 $-1 $4 #
bdycol-kcp $-1 1 6 $5 $6 $7 $8 $9 $10 #
model_id-kcp-attrib $-1 $11 $-1 $0 1 1017637760 80 223346689 1 #
lump $-1 $-1 $12 $0 #
transform $-1 1 0 0 0 1 0 0 0 1 0 0 0 1 rotate no_reflect no_shear #
body $13 $14 $-1 $15 #
body $16 $17 $-1 $18 #
body $19 $20 $-1 $21 #
body $22 $23 $-1 $24 #
body $25 $26 $-1 $27 #
body $28 $29 $-1 $30 #
aggregate_advspl_attribute-aggregate_geombuild_base_attribute-aggregate_body_attribute-attrib_HH-attrib $-1 $31 $2 $0 F #
shell $-1 $-1 $-1 $32 $-1 $3 #
model_id-kcp-attrib $-1 $-1 $-1 $5 1 1017637760 90 224002050 1 #
lump $-1 $-1 $33 $5 #
transform $-1 1 0 0 0 1 0 0 0 1 0 -1.5099033134902129e-014 -1.1515199645763516 1 no_rotate no_reflect no_shear #
rgb_color-st-attrib $-1 $34 $-1 $6 0.5 1 1 #
lump $-1 $-1 $35 $6 #
transform $-1 -3.8285889215894375e-016 0 -1 0 1 0 1 0 -3.8285889215894375e-016 -22.5 1.0097419586829e-028 29.999999999999996 1 rotate no_reflect no_shear #
rgb_color-st-attrib $-1 $36 $-1 $7 0.5 1 1 #
lump $-1 $-1 $37 $7 #
transform $-1 -3.8285889215894375e-016 0 -1 0 1 0 1 0 -3.8285889215894375e-016 22.5 1.0097419586829e-028 29.999999999999993 1 rotate no_reflect no_shear #
rgb_color-st-attrib $-1 $38 $-1 $8 1 0 0 #
lump $-1 $-1 $39 $8 #
transform $-1 1 0 0 0 1 0 0 0 1 0 -5.6843418860808015e-014 157.98495028178584 1 no_rotate no_reflect no_shear #
rgb_color-st-attrib $-1 $40 $-1 $9 1 0.5 1 #
lump $-1 $-1 $41 $9 #
transform $-1 1 0 0 0 1 0 0 0 1 0 -1.5099033134902129e-014 -1.1515199645763516 1 no_rotate no_reflect no_shear #
rgb_color-st-attrib $-1 $42 $-1 $10 1 0.5 1 #
lump $-1 $-1 $43 $10 #
transform $-1 1 0 0 0 1 0 0 0 1 0 -1.5099033134902129e-014 -1.1515199645763516 1 no_rotate no_reflect no_shear #
aggregate_secndry_attribute-aggregate_geombuild_base_attribute-aggregate_body_attribute-attrib_HH-attrib $-1 $44 $11 $0 F #
face $45 $46 $47 $12 $-1 $48 reversed single #
shell $-1 $-1 $-1 $49 $-1 $14 #
model_id-kcp-attrib $-1 $-1 $16 $6 1 1017637760 130 226623491 1 #
shell $-1 $-1 $-1 $50 $-1 $17 #
model_id-kcp-attrib $-1 $-1 $19 $7 1 1017637760 130 226623492 1 #
shell $-1 $-1 $-1 $51 $-1 $20 #
model_id-kcp-attrib $-1 $-1 $22 $8 1 1017637760 280 219676677 1 #
shell $-1 $-1 $-1 $52 $-1 $23 #
model_id-kcp-attrib $-1 $-1 $25 $9 1 1017637760 430 229507078 1 #
shell $-1 $-1 $-1 $53 $-1 $26 #
model_id-kcp-attrib $-1 $-1 $28 $10 1 1017637760 520 218628103 1 #
shell $-1 $-1 $-1 $54 $-1 $29 #
aggregate_sharped_attribute-aggregate_geombuild_base_attribute-aggregate_body_attribute-attrib_HH-attrib $-1 $55 $31 $0 F #
model_id-kcp-attrib $-1 $56 $-1 $32 1 1017637760 80 223346689 2 #
face $57 $58 $59 $12 $-1 $60 reversed single #
loop $61 $62 $63 $32 #
cone-surface $-1 -25 1.0097419586829e-028 30 1 1.4012984643248201e-044 -3.4914813388431298e-015 -2.61861100413235e-014 -2.52435489670724e-029 -7.5 1 I I 0 1 7.5 forward I I I I #
face $-1 $64 $65 $33 $-1 $66 forward single #
face $-1 $67 $68 $35 $-1 $69 forward single #
face $-1 $70 $71 $37 $-1 $72 forward single #
face $-1 $73 $74 $39 $-1 $75 reversed single #
face $-1 $76 $77 $41 $-1 $78 forward single #
face $-1 $79 $80 $43 $-1 $81 forward single #
aggregate_reblend_attribute-aggregate_geombuild_base_attribute-aggregate_body_attribute-attrib_HH-attrib $-1 $82 $44 $0 F #
attrib_hh_face_geombuild-attrib_entity_geombuild-individual_entity_attribute-attrib_HH-attrib $-1 $-1 $45 $32 F #
model_id-kcp-attrib $-1 $83 $-1 $46 1 1017637760 80 223346689 3 #
face $84 $85 $86 $12 $-1 $87 forward single #
loop $88 $89 $90 $46 #
cone-surface $-1 0 1.0097419586829e-028 30 1 1.4012984643248201e-044 -3.4914813388431298e-015 -1.7457406694215701e-014 -5.3642541555028803e-029 -5 1 I I 0 1 5 forward I I I I #
model_id-kcp-attrib $-1 $-1 $-1 $47 1 1017637760 80 223346689 16 #
loop $91 $-1 $92 $32 #
coedge $93 $63 $63 $94 $95 reversed $47 $-1 #
face $-1 $96 $97 $33 $-1 $98 reversed single #
loop $-1 $-1 $99 $49 #
plane-surface $-1 0 0 48.848480035423698 0 0 1 1 0 0 forward_v I I I I #
face $-1 $100 $101 $35 $-1 $102 forward single #
loop $-1 $103 $104 $50 #
cone-surface $-1 0 0 0 0 0 1 7.5 0 0 1 I I 0 1 7.5 forward I I I I #
face $-1 $105 $106 $37 $-1 $107 forward single #
loop $-1 $108 $109 $51 #
cone-surface $-1 0 0 0 0 0 1 5 0 0 1 I I 0 1 5 forward I I I I #
face $-1 $110 $111 $39 $-1 $112 forward single #
loop $-1 $-1 $113 $52 #
plane-surface $-1 0 -15.000000000000146 -159.13647024636219 0 1 0 0 0 1 forward_v I I I I #
face $-1 $114 $115 $41 $-1 $116 forward single #
loop $-1 $-1 $117 $53 #
plane-surface $-1 -30 15.000000000000014 16.151519964576352 0 1 0 0 0 1 forward_v I I I I #
face $-1 $118 $119 $43 $-1 $120 forward single #
loop $-1 $-1 $121 $54 #
plane-surface $-1 30 -14.999999999999986 16.151519964576352 0 -1 0 0 0 -1 forward_v I I I I #
aggregate_isospline_attribute-aggregate_geombuild_base_attribute-aggregate_body_attribute-attrib_HH-attrib $-1 $122 $55 $0 F #
attrib_hh_face_geombuild-attrib_entity_geombuild-individual_entity_attribute-attrib_HH-attrib $-1 $-1 $57 $46 F #
model_id-kcp-attrib $-1 $123 $-1 $58 1 1017637760 80 223346689 4 #
face $124 $125 $126 $12 $-1 $127 forward single #
loop $128 $129 $130 $58 #
plane-surface $-1 15 4.5438388140730298e-028 35 -1 0 0 0 0 1 forward_v I I I I #
model_id-kcp-attrib $-1 $-1 $-1 $59 1 1017637760 80 223346689 20 #
loop $131 $-1 $132 $46 #
coedge $133 $90 $90 $130 $134 reversed $59 $-1 #
model_id-kcp-attrib $-1 $-1 $-1 $62 1 1017637760 80 223346689 17 #
coedge $135 $92 $92 $136 $137 reversed $62 $-1 #
attrib_hh_coedge_geombuild-attrib_entity_geombuild-individual_entity_attribute-attrib_HH-attrib $-1 $-1 $-1 $63 F #
coedge $138 $94 $94 $63 $95 forward $139 $-1 #
edge $140 $141 -3.1415926535897998 $141 3.1415926535897865 $94 $142 forward 7 unknown #
face $143 $144 $145 $33 $-1 $146 reversed single #
loop $-1 $-1 $147 $64 #
plane-surface $-1 0 0 -48.848480035423698 0 0 1 1 0 0 forward_v I I I I #
coedge $-1 $148 $149 $150 $151 forward $65 $-1 #
face $-1 $-1 $152 $35 $-1 $153 forward single #
loop $-1 $-1 $154 $67 #
plane-surface $-1 0 0 -7.500000000000024 0 0 -1 -1 0 0 forward_v I I I I #
loop $-1 $-1 $155 $50 #
coedge $-1 $104 $104 $154 $156 reversed $68 $-1 #
face $-1 $-1 $157 $37 $-1 $158 forward single #
loop $-1 $-1 $159 $70 #
plane-surface $-1 0 0 -7.5000000000000151 0 0 -1 -1 0 0 forward_v I I I I #
loop $-1 $-1 $160 $51 #
coedge $-1 $109 $109 $159 $161 reversed $71 $-1 #
face $-1 $162 $163 $39 $-1 $164 reversed single #
loop $-1 $-1 $165 $73 #
plane-surface $-1 0 4.1744385725905886e-014 -110.28799021093849 0 0 1 1 0 0 forward_v I I I I #
coedge $-1 $166 $167 $168 $169 forward $74 $-1 #
face $-1 $170 $171 $41 $-1 $172 forward single #
loop $-1 $-1 $173 $76 #
plane-surface $-1 -30 15.000000000000188 48.848480035423698 0 0 1 1 0 0 forward_v I I I I #
coedge $-1 $174 $175 $176 $177 forward $77 $-1 #
face $-1 $178 $179 $43 $-1 $180 forward single #
loop $-1 $-1 $181 $79 #
plane-surface $-1 30 -15.000000000000188 48.848480035423698 0 0 1 1 0 0 forward_v I I I I #
coedge $-1 $182 $183 $184 $185 forward $80 $-1 #
aggregate_analytic_solver_attribute-aggregate_geombuild_base_attribute-aggregate_body_attribute-attrib_HH-attrib $-1 $186 $82 $0 F #
attrib_hh_face_geombuild-attrib_entity_geombuild-individual_entity_attribute-attrib_HH-attrib $-1 $-1 $84 $58 F #
model_id-kcp-attrib $-1 $187 $-1 $85 1 1017637760 80 223346689 5 #
face $188 $189 $139 $12 $-1 $190 forward single #
loop $-1 $-1 $191 $85 #
plane-surface $-1 0 5.04870979341448e-029 15 0 0 1 1 0 0 forward_v I I I I #
model_id-kcp-attrib $-1 $-1 $-1 $86 1 1017637760 80 223346689 22 #
loop $-1 $-1 $192 $58 #
coedge $193 $130 $130 $90 $134 forward $86 $-1 #
model_id-kcp-attrib $-1 $-1 $-1 $89 1 1017637760 80 223346689 21 #
coedge $194 $132 $132 $195 $196 reversed $89 $-1 #
attrib_hh_coedge_geombuild-attrib_entity_geombuild-individual_entity_attribute-attrib_HH-attrib $-1 $-1 $-1 $90 F #
edge $197 $198 -3.1415926535897998 $198 3.1415926535897865 $130 $199 forward 7 unknown #
attrib_hh_coedge_geombuild-attrib_entity_geombuild-individual_entity_attribute-attrib_HH-attrib $-1 $-1 $-1 $92 F #
coedge $200 $136 $136 $92 $137 forward $201 $-1 #
edge $202 $203 -3.1415926535897998 $203 3.1415926535897865 $136 $204 forward 7 unknown #
attrib_hh_coedge_geombuild-attrib_entity_geombuild-individual_entity_attribute-attrib_HH-attrib $-1 $-1 $-1 $94 F #
loop $205 $206 $94 $125 #
attrib_edge_convexity-kcp-attrib $-1 $207 $-1 $95 1 #
vertex $208 $95 $209 #
ellipse-curve $-1 -15 1.0097419586829e-028 30 -1 0 0 -2.61861100413235e-014 -2.52435489670724e-029 -7.5 1 I I #
model_id-kcp-attrib $-1 $-1 $-1 $96 1 1017637760 90 224002050 3 #
face $-1 $210 $211 $33 $-1 $212 reversed single #
loop $-1 $-1 $213 $96 #
plane-surface $-1 0 -15.000000000000188 0 0 1 0 0 0 1 forward_v I I I I #
coedge $-1 $214 $215 $216 $217 forward $97 $-1 #
coedge $-1 $218 $99 $219 $220 forward $65 $-1 #
coedge $-1 $99 $218 $221 $222 forward $65 $-1 #
coedge $-1 $223 $224 $99 $151 reversed $225 $-1 #
edge $-1 $226 -15.000000000000188 $227 15.000000000000188 $150 $228 forward 7 unknown #
loop $-1 $-1 $229 $100 #
plane-surface $-1 0 0 7.500000000000024 0 0 1 1 0 0 forward_v I I I I #
coedge $-1 $154 $154 $104 $156 forward $101 $-1 #
coedge $-1 $155 $155 $229 $230 reversed $103 $-1 #
edge $-1 $231 0 $231 6.2831853071795862 $154 $232 forward 7 unknown #
loop $-1 $-1 $233 $105 #
plane-surface $-1 0 0 7.5000000000000151 0 0 1 1 0 0 forward_v I I I I #
coedge $-1 $159 $159 $109 $161 forward $106 $-1 #
coedge $-1 $160 $160 $233 $234 reversed $108 $-1 #
edge $-1 $235 0 $235 6.2831853071795862 $159 $236 forward 7 unknown #
face $-1 $237 $238 $39 $-1 $239 reversed single #
loop $-1 $-1 $240 $110 #
plane-surface $-1 0 15.000000000000231 -159.13647024636219 0 -1 0 0 0 -1 forward_v I I I I #
coedge $-1 $241 $242 $243 $244 forward $111 $-1 #
coedge $-1 $245 $113 $246 $247 forward $74 $-1 #
coedge $-1 $113 $245 $241 $248 reversed $74 $-1 #
coedge $-1 $243 $249 $113 $169 reversed $250 $-1 #
edge $-1 $251 30.719755087757548 $252 63.416715158604745 $168 $253 forward 7 unknown #
face $-1 $254 $255 $41 $-1 $256 forward single #
loop $-1 $-1 $257 $114 #
plane-surface $-1 -30 -15.000000000000188 48.848480035423698 0 -1 0 0 0 -1 forward_v I I I I #
coedge $-1 $258 $259 $260 $261 forward $115 $-1 #
coedge $-1 $262 $117 $259 $263 reversed $77 $-1 #
coedge $-1 $117 $262 $264 $265 forward $77 $-1 #
coedge $-1 $266 $260 $117 $177 reversed $267 $-1 #
edge $-1 $268 1.8257599822881634 $269 34.522720053135508 $117 $270 forward 7 unknown #
face $-1 $271 $272 $43 $-1 $273 forward single #
loop $-1 $-1 $274 $118 #
plane-surface $-1 30 15.000000000000188 48.848480035423698 0 1 0 0 0 1 forward_v I I I I #
coedge $-1 $275 $276 $277 $278 forward $119 $-1 #
coedge $-1 $279 $121 $276 $280 reversed $80 $-1 #
coedge $-1 $121 $279 $281 $282 forward $80 $-1 #
coedge $-1 $283 $277 $121 $185 reversed $284 $-1 #
edge $-1 $285 1.8257599822881634 $286 34.522720053135508 $121 $287 forward 7 unknown #
aggregate_geombuild_attribute-aggregate_geombuild_base_attribute-aggregate_body_attribute-attrib_HH-attrib $-1 $288 $122 $0 #
attrib_hh_face_geombuild-attrib_entity_geombuild-individual_entity_attribute-attrib_HH-attrib $-1 $-1 $124 $85 F #
model_id-kcp-attrib $-1 $289 $-1 $125 1 1017637760 80 223346689 6 #
face $290 $291 $292 $12 $-1 $293 forward single #
plane-surface $-1 -15 4.5438388140730298e-028 35 1 0 0 0 0 -1 forward_v I I I I #
coedge $294 $295 $296 $297 $298 reversed $126 $-1 #
coedge $299 $300 $301 $302 $303 reversed $129 $-1 #
attrib_hh_coedge_geombuild-attrib_entity_geombuild-individual_entity_attribute-attrib_HH-attrib $-1 $-1 $-1 $130 F #
attrib_hh_coedge_geombuild-attrib_entity_geombuild-individual_entity_attribute-attrib_HH-attrib $-1 $-1 $-1 $132 F #
coedge $304 $195 $195 $132 $196 forward $305 $-1 #
edge $306 $307 -3.1415926535897998 $307 3.1415926535897865 $195 $308 forward 7 unknown #
attrib_edge_convexity-kcp-attrib $-1 $309 $-1 $134 1 #
vertex $310 $134 $311 #
ellipse-curve $-1 15 4.5438388140730298e-028 29.999999999999901 1 0 0 -1.7457406694215701e-014 -5.3642541555028803e-029 -5 1 I I #
attrib_hh_coedge_geombuild-attrib_entity_geombuild-individual_entity_attribute-attrib_HH-attrib $-1 $-1 $-1 $136 F #
loop $312 $313 $136 $314 #
attrib_edge_convexity-kcp-attrib $-1 $315 $-1 $137 1 #
vertex $316 $137 $317 #
ellipse-curve $-1 -30 1.0097419586829e-028 30 1 0 0 -2.61861100413235e-014 -2.52435489670724e-029 -7.5 1 I I #
model_id-kcp-attrib $-1 $-1 $-1 $139 1 1017637760 80 223346689 18 #
loop $-1 $-1 $318 $125 #
convexity-sys-attrib $-1 $319 $140 $95 #
attrib_hh_vertex_geombuild-attrib_entity_geombuild-individual_entity_attribute-attrib_HH-attrib $-1 $-1 $-1 $141 F #
point $-1 -15 -5.2372220082646899e-014 37.5 #
face $320 $321 $322 $33 $-1 $323 reversed single #
loop $-1 $-1 $324 $144 #
plane-surface $-1 -50 0 0 1 0 0 0 0 -1 forward_v I I I I #
coedge $-1 $325 $221 $326 $327 forward $145 $-1 #
coedge $-1 $328 $147 $325 $329 forward $97 $-1 #
coedge $-1 $147 $328 $330 $331 forward $97 $-1 #
coedge $-1 $224 $223 $147 $217 reversed $225 $-1 #
edge $-1 $332 -15.000000000000188 $333 15.000000000000188 $216 $334 forward 7 unknown #
coedge $-1 $149 $148 $335 $336 forward $65 $-1 #
coedge $-1 $337 $338 $148 $220 reversed $322 $-1 #
edge $-1 $227 -50 $339 50 $219 $340 forward 7 unknown #
coedge $-1 $213 $341 $149 $222 reversed $145 $-1 #
edge $-1 $342 -50 $226 50 $221 $343 forward 7 unknown #
coedge $-1 $216 $150 $341 $344 forward $225 $-1 #
coedge $-1 $150 $216 $337 $345 reversed $225 $-1 #
loop $-1 $-1 $223 $321 #
vertex $-1 $151 $346 #
vertex $-1 $151 $347 #
straight-curve $-1 50 0 48.848480035423698 0 1 0 I I #
coedge $-1 $229 $229 $155 $230 forward $152 $-1 #
edge $-1 $348 0 $348 6.2831853071795862 $229 $349 forward 7 unknown #
vertex $-1 $156 $350 #
ellipse-curve $-1 0 0 -7.500000000000024 0 0 -1 7.5 0 0 1 I I #
coedge $-1 $233 $233 $160 $234 forward $157 $-1 #
edge $-1 $351 0 $351 6.2831853071795862 $233 $352 forward 7 unknown #
vertex $-1 $161 $353 #
ellipse-curve $-1 0 0 -7.5000000000000151 0 0 -1 5 0 0 1 I I #
face $-1 $354 $355 $39 $-1 $356 reversed single #
loop $-1 $-1 $357 $162 #
plane-surface $-1 0 0 -142.98495028178584 0 0 1 1 0 0 forward_v I I I I #
coedge $-1 $358 $359 $360 $361 forward $163 $-1 #
coedge $-1 $362 $165 $167 $248 forward $111 $-1 #
coedge $-1 $165 $362 $358 $363 forward $111 $-1 #
coedge $-1 $360 $168 $165 $244 reversed $250 $-1 #
edge $-1 $364 -14.999999999999837 $251 14.999999999999964 $243 $365 forward 7 unknown #
coedge $-1 $167 $166 $366 $367 forward $74 $-1 #
coedge $-1 $368 $369 $166 $247 reversed $238 $-1 #
edge $370 $252 -15 $371 15 $246 $372 forward 7 unknown #
edge $-1 $251 -15 $373 15 $167 $374 forward 7 unknown #
coedge $-1 $168 $360 $368 $375 reversed $250 $-1 #
loop $-1 $-1 $360 $354 #
vertex $-1 $169 $376 #
vertex $-1 $375 $377 #
straight-curve $-1 -15 -15.000000000000146 -79.568235123181097 0 0 -1 I I #
face $-1 $378 $267 $41 $-1 $379 reversed single #
loop $-1 $-1 $380 $170 #
plane-surface $-1 -30 -14.999999999999986 16.151519964576352 0 0 -1 -1 0 0 forward_v I I I I #
coedge $-1 $381 $382 $383 $384 forward $171 $-1 #
coedge $-1 $385 $173 $382 $386 reversed $115 $-1 #
coedge $-1 $173 $385 $174 $263 forward $115 $-1 #
coedge $-1 $176 $383 $173 $261 reversed $267 $-1 #
edge $-1 $269 -15.000000000000226 $387 15.000000000000151 $173 $388 forward 7 unknown #
coedge $-1 $175 $174 $389 $390 reversed $77 $-1 #
edge $-1 $391 0 $269 17.696960070847297 $259 $392 forward 7 unknown #
coedge $-1 $393 $380 $175 $265 reversed $255 $-1 #
edge $-1 $394 0 $268 17.696960070847297 $175 $395 forward 7 unknown #
coedge $-1 $383 $176 $380 $396 reversed $267 $-1 #
loop $-1 $-1 $176 $254 #
vertex $-1 $265 $397 #
vertex $-1 $263 $398 #
straight-curve $-1 -47.696960070847297 15.000000000000188 14.325759982288188 0 0 1 I I #
face $-1 $399 $284 $43 $-1 $400 forward single #
loop $-1 $-1 $401 $178 #
plane-surface $-1 30 15.000000000000014 16.151519964576352 0 0 -1 -1 0 0 forward_v I I I I #
coedge $-1 $402 $403 $404 $405 forward $179 $-1 #
coedge $-1 $406 $181 $403 $407 reversed $119 $-1 #
coedge $-1 $181 $406 $182 $280 forward $119 $-1 #
coedge $-1 $184 $404 $181 $278 reversed $284 $-1 #
edge $-1 $286 -15.000000000000151 $408 15.000000000000226 $181 $409 forward 7 unknown #
coedge $-1 $183 $182 $410 $411 reversed $80 $-1 #
edge $-1 $412 0 $286 17.696960070847297 $276 $413 forward 7 unknown #
coedge $-1 $414 $401 $183 $282 reversed $272 $-1 #
edge $-1 $415 0 $285 17.696960070847297 $183 $416 forward 7 unknown #
coedge $-1 $404 $184 $401 $417 reversed $284 $-1 #
loop $-1 $-1 $184 $271 #
vertex $-1 $282 $418 #
vertex $-1 $280 $419 #
straight-curve $-1 47.696960070847297 -15.000000000000188 14.325759982288188 0 0 1 I I #
aggregate_stitch_attribute-aggregate_stitch_base_attribute-aggregate_body_attribute-attrib_HH-attrib $-1 $420 $186 $0 F #
attrib_hh_face_geombuild-attrib_entity_geombuild-individual_entity_attribute-attrib_HH-attrib $-1 $-1 $188 $125 F #
model_id-kcp-attrib $-1 $421 $-1 $189 1 1017637760 80 223346689 7 #
face $422 $423 $424 $12 $-1 $425 forward single #
loop $-1 $-1 $426 $189 #
plane-surface $-1 0 15 5.2372220082646899e-014 0 1 3.4914813388431298e-015 -1 0 0 forward_v I I I I #
attrib_hh_coedge_geombuild-attrib_entity_geombuild-individual_entity_attribute-attrib_HH-attrib $-1 $-1 $-1 $191 F #
coedge $427 $428 $191 $429 $430 reversed $126 $-1 #
coedge $431 $191 $428 $432 $433 reversed $126 $-1 #
coedge $434 $301 $300 $191 $298 forward $129 $-1 #
edge $435 $436 -15 $437 15 $297 $438 forward 7 unknown #
attrib_hh_coedge_geombuild-attrib_entity_geombuild-individual_entity_attribute-attrib_HH-attrib $-1 $-1 $-1 $192 F #
coedge $439 $297 $192 $440 $441 reversed $129 $-1 #
coedge $442 $192 $297 $443 $444 reversed $129 $-1 #
coedge $445 $446 $447 $192 $303 forward $424 $-1 #
edge $448 $449 -15.000000000000167 $450 14.999999999999833 $302 $451 forward 7 unknown #
attrib_hh_coedge_geombuild-attrib_entity_geombuild-individual_entity_attribute-attrib_HH-attrib $-1 $-1 $-1 $195 F #
loop $452 $453 $195 $454 #
attrib_edge_convexity-kcp-attrib $-1 $455 $-1 $196 1 #
vertex $456 $196 $457 #
ellipse-curve $-1 30 4.5438388140730298e-028 29.999999999999901 -1 0 0 -1.7457406694215701e-014 -5.3642541555028803e-029 -5 1 I I #
convexity-sys-attrib $-1 $458 $197 $134 #
model_id-kcp-attrib $-1 $459 $-1 $198 1 1017637760 80 223346689 24 #
point $-1 15 3.4914813388431801e-014 34.999999999999901 #
model_id-kcp-attrib $-1 $-1 $-1 $201 1 1017637760 80 223346689 19 #
loop $-1 $-1 $460 $314 #
face $461 $462 $201 $12 $-1 $463 forward single #
convexity-sys-attrib $-1 $464 $202 $137 #
attrib_hh_vertex_geombuild-attrib_entity_geombuild-individual_entity_attribute-attrib_HH-attrib $-1 $-1 $-1 $203 F #
point $-1 -30 5.23722200826476e-014 37.5 #
coedge $465 $466 $467 $468 $469 reversed $206 $-1 #
attrib_hh_edge_geombuild-attrib_entity_geombuild-individual_entity_attribute-attrib_HH-attrib $-1 $-1 $207 $95 F #
model_id-kcp-attrib $-1 $-1 $-1 $210 1 1017637760 90 224002050 2 #
face $-1 $-1 $225 $33 $-1 $470 reversed single #
loop $-1 $-1 $337 $210 #
plane-surface $-1 0 15.000000000000188 0 0 -1 0 0 0 -1 forward_v I I I I #
coedge $-1 $471 $335 $338 $472 forward $211 $-1 #
coedge $-1 $341 $213 $214 $329 reversed $145 $-1 #
coedge $-1 $335 $471 $213 $327 reversed $211 $-1 #
edge $-1 $342 -48.848480035423698 $473 48.848480035423698 $326 $474 forward 7 unknown #
coedge $-1 $215 $214 $471 $475 forward $97 $-1 #
edge $-1 $333 -50 $473 50 $325 $476 forward 7 unknown #
coedge $-1 $338 $337 $215 $331 reversed $322 $-1 #
edge $-1 $477 -50 $332 50 $330 $478 forward 7 unknown #
vertex $-1 $217 $479 #
vertex $-1 $344 $480 #
straight-curve $-1 50 0 -48.848480035423698 0 -1 0 I I #
coedge $-1 $324 $326 $218 $336 reversed $211 $-1 #
edge $-1 $339 -15.000000000000188 $342 15.000000000000188 $335 $481 forward 7 unknown #
coedge $-1 $330 $219 $224 $345 forward $322 $-1 #
coedge $-1 $219 $330 $324 $472 reversed $322 $-1 #
vertex $-1 $220 $482 #
straight-curve $-1 0 15.000000000000188 48.848480035423698 -1 0 0 I I #
coedge $-1 $221 $325 $223 $344 reversed $145 $-1 #
vertex $-1 $336 $483 #
straight-curve $-1 0 -15.000000000000188 48.848480035423698 1 0 0 I I #
edge $-1 $226 -48.848480035423698 $333 48.848480035423698 $223 $484 forward 7 unknown #
edge $-1 $227 -48.848480035423698 $332 48.848480035423698 $224 $485 forward 7 unknown #
point $-1 50 -15.000000000000188 48.848480035423698 #
point $-1 50 15.000000000000188 48.848480035423698 #
vertex $-1 $230 $486 #
ellipse-curve $-1 0 0 7.500000000000024 0 0 1 7.5 0 0 1 I I #
point $-1 7.5 0 -7.500000000000024 #
vertex $-1 $234 $487 #
ellipse-curve $-1 0 0 7.5000000000000151 0 0 1 5 0 0 1 I I #
point $-1 5 0 -7.5000000000000151 #
face $-1 $-1 $250 $39 $-1 $488 reversed single #
loop $-1 $-1 $489 $237 #
plane-surface $-1 15 0 0 -1 0 0 0 0 1 forward_v I I I I #
coedge $-1 $369 $368 $359 $490 reversed $238 $-1 #
coedge $-1 $491 $240 $242 $363 reversed $163 $-1 #
coedge $-1 $240 $491 $357 $490 forward $163 $-1 #
coedge $-1 $249 $243 $240 $361 reversed $250 $-1 #
edge $-1 $492 -63.416715158604745 $364 -30.719755087757449 $360 $493 forward 7 unknown #
coedge $-1 $242 $241 $494 $495 forward $111 $-1 #
edge $-1 $496 -15 $364 15 $358 $497 forward 7 unknown #
vertex $-1 $244 $498 #
straight-curve $-1 -15 2.0872192862952943e-014 -110.28799021093849 0 -1 0 I I #
coedge $-1 $499 $494 $245 $367 reversed $355 $-1 #
edge $-1 $371 -63.416715158604745 $373 -30.719755087757548 $366 $500 forward 7 unknown #
coedge $-1 $357 $246 $249 $375 forward $238 $-1 #
coedge $-1 $246 $357 $499 $501 forward $238 $-1 #
convexity-sys-attrib $-1 $-1 $-1 $247 #
vertex $-1 $247 $502 #
straight-curve $-1 0 -15.000000000000146 -142.98495028178584 1 0 0 I I #
vertex $-1 $367 $503 #
straight-curve $-1 0 -15.000000000000146 -110.28799021093849 1 0 0 I I #
edge $504 $252 -14.999999999999943 $492 15.000000000000057 $249 $505 forward 7 unknown #
point $-1 -15 -14.999999999999943 -110.28799021093864 #
point $-1 -15 -14.999999999999943 -142.98495028178584 #
face $-1 $-1 $506 $41 $-1 $507 forward single #
plane-surface $-1 -47.696960070847297 3.5527136788005009e-015 32.500000000000071 1 0 0 0 0 -1 forward_v I I I I #
coedge $-1 $264 $508 $266 $396 forward $255 $-1 #
coedge $-1 $509 $257 $508 $510 reversed $171 $-1 #
coedge $-1 $257 $509 $258 $386 forward $171 $-1 #
coedge $-1 $260 $266 $257 $384 reversed $267 $-1 #
edge $-1 $387 -34.522720053135508 $511 -1.8257599822881634 $257 $512 forward 7 unknown #
coedge $-1 $259 $258 $513 $514 reversed $115 $-1 #
edge $-1 $515 0 $387 17.696960070847297 $382 $516 forward 7 unknown #
vertex $-1 $386 $517 #
straight-curve $-1 -47.696960070847297 -3.6859404417555197e-014 48.848480035423698 0 -1 0 I I #
coedge $-1 $513 $518 $262 $390 forward $506 $-1 #
edge $519 $394 1.8257599822881634 $391 34.522720053135508 $262 $520 forward 7 unknown #
vertex $-1 $390 $521 #
straight-curve $-1 -30 15.000000000000188 48.848480035423698 -1 0 0 I I #
coedge $-1 $508 $264 $518 $522 reversed $255 $-1 #
vertex $-1 $522 $523 #
straight-curve $-1 -30 15.000000000000014 16.151519964576352 -1 0 0 I I #
edge $-1 $511 -14.999999999999957 $268 15.000000000000043 $380 $524 forward 7 unknown #
point $-1 -47.696960070847297 15.000000000000014 16.151519964576352 #
point $-1 -47.696960070847297 15.000000000000188 48.848480035423698 #
face $-1 $-1 $525 $43 $-1 $526 reversed single #
plane-surface $-1 47.696960070847297 3.9968028886505635e-015 32.500000000000071 1 0 0 0 0 -1 forward_v I I I I #
coedge $-1 $281 $527 $283 $417 forward $272 $-1 #
coedge $-1 $528 $274 $527 $529 reversed $179 $-1 #
coedge $-1 $274 $528 $275 $407 forward $179 $-1 #
coedge $-1 $277 $283 $274 $405 reversed $284 $-1 #
edge $-1 $408 -34.522720053135508 $530 -1.8257599822881634 $274 $531 forward 7 unknown #
coedge $-1 $276 $275 $532 $533 reversed $119 $-1 #
edge $-1 $534 0 $408 17.696960070847297 $403 $535 forward 7 unknown #
vertex $-1 $407 $536 #
straight-curve $-1 47.696960070847297 -3.6859404417555197e-014 48.848480035423698 0 1 0 I I #
coedge $-1 $532 $537 $279 $411 forward $525 $-1 #
edge $538 $415 1.8257599822881634 $412 34.522720053135508 $279 $539 forward 7 unknown #
vertex $-1 $411 $540 #
straight-curve $-1 30 -15.000000000000188 48.848480035423698 1 0 0 I I #
coedge $-1 $527 $281 $537 $541 reversed $272 $-1 #
vertex $-1 $541 $542 #
straight-curve $-1 30 -14.999999999999986 16.151519964576352 1 0 0 I I #
edge $-1 $530 -15.000000000000043 $285 14.999999999999957 $401 $543 forward 7 unknown #
point $-1 47.696960070847297 -14.999999999999986 16.151519964576352 #
point $-1 47.696960070847297 -15.000000000000188 48.848480035423698 #
aggregate_simgeom_attribute-aggregate_simgeom_base_attribute-aggregate_body_attribute-attrib_HH-attrib $-1 $-1 $288 $0 F #
attrib_hh_face_geombuild-attrib_entity_geombuild-individual_entity_attribute-attrib_HH-attrib $-1 $-1 $290 $189 F #
model_id-kcp-attrib $-1 $544 $-1 $291 1 1017637760 80 223346689 8 #
face $545 $314 $546 $12 $-1 $547 forward single #
loop $-1 $-1 $302 $291 #
cone-surface $-1 0 0 0 0 -1 -3.4914813388431298e-015 50 0 0 1 I I 0 1 50 forward I I I I #
coedge $548 $429 $549 $467 $550 forward $292 $-1 #
attrib_hh_coedge_geombuild-attrib_entity_geombuild-individual_entity_attribute-attrib_HH-attrib $-1 $-1 $-1 $295 F #
coedge $551 $296 $295 $552 $553 reversed $126 $-1 #
coedge $554 $440 $426 $295 $430 forward $292 $-1 #
edge $555 $556 -15 $436 15 $429 $557 forward 7 unknown #
attrib_hh_coedge_geombuild-attrib_entity_geombuild-individual_entity_attribute-attrib_HH-attrib $-1 $-1 $-1 $296 F #
coedge $558 $559 $443 $296 $433 forward $560 $-1 #
edge $561 $437 -15 $562 15 $432 $563 forward 7 unknown #
attrib_hh_coedge_geombuild-attrib_entity_geombuild-individual_entity_attribute-attrib_HH-attrib $-1 $-1 $-1 $297 F #
attrib_hh_edge_geombuild-attrib_entity_geombuild-individual_entity_attribute-attrib_HH-attrib $-1 $-1 $-1 $298 F #
vertex $564 $430 $565 #
vertex $566 $433 $567 #
straight-curve $-1 15 5.04870979341448e-029 15 0 -1 0 I I #
attrib_hh_coedge_geombuild-attrib_entity_geombuild-individual_entity_attribute-attrib_HH-attrib $-1 $-1 $-1 $300 F #
coedge $568 $569 $429 $300 $441 forward $292 $-1 #
edge $570 $436 -2.5000000000000995 $449 30.196960070847197 $440 $571 forward 7 unknown #
attrib_hh_coedge_geombuild-attrib_entity_geombuild-individual_entity_attribute-attrib_HH-attrib $-1 $-1 $-1 $301 F #
coedge $572 $432 $573 $301 $444 forward $560 $-1 #
edge $574 $450 -30.196960070847297 $437 2.4999999999999005 $443 $575 forward 7 unknown #
attrib_hh_coedge_geombuild-attrib_entity_geombuild-individual_entity_attribute-attrib_HH-attrib $-1 $-1 $-1 $302 F #
coedge $576 $577 $302 $573 $578 reversed $424 $-1 #
coedge $579 $302 $577 $569 $580 reversed $424 $-1 #
attrib_hh_edge_geombuild-attrib_entity_geombuild-individual_entity_attribute-attrib_HH-attrib $-1 $-1 $-1 $303 F #
vertex $581 $303 $582 #
vertex $583 $578 $584 #
straight-curve $-1 15 -1.66533046006909e-013 47.696960070847297 0 -1 -3.4914813388431298e-015 I I #
model_id-kcp-attrib $-1 $-1 $-1 $305 1 1017637760 80 223346689 23 #
loop $-1 $-1 $585 $454 #
face $586 $587 $305 $12 $-1 $588 forward single #
convexity-sys-attrib $-1 $589 $306 $196 #
model_id-kcp-attrib $-1 $590 $-1 $307 1 1017637760 80 223346689 25 #
point $-1 30 -3.4914813388431201e-014 34.999999999999901 #
attrib_hh_edge_geombuild-attrib_entity_geombuild-individual_entity_attribute-attrib_HH-attrib $-1 $-1 $309 $134 F #
attrib_hh_vertex_geombuild-attrib_entity_geombuild-individual_entity_attribute-attrib_HH-attrib $-1 $-1 $310 $198 F #
coedge $591 $592 $593 $594 $595 reversed $313 $-1 #
model_id-kcp-attrib $-1 $596 $-1 $314 1 1017637760 80 223346689 10 #
face $597 $598 $560 $12 $-1 $599 forward single #
plane-surface $-1 -30 4.5438388140730298e-028 35 -1 0 0 0 0 1 forward_v I I I I #
attrib_hh_edge_geombuild-attrib_entity_geombuild-individual_entity_attribute-attrib_HH-attrib $-1 $-1 $315 $137 F #
attrib_hh_coedge_geombuild-attrib_entity_geombuild-individual_entity_attribute-attrib_HH-attrib $-1 $-1 $-1 $318 F #
coedge $600 $552 $318 $559 $601 reversed $206 $-1 #
coedge $602 $318 $552 $426 $550 reversed $206 $-1 #
coedge $603 $604 $605 $318 $469 forward $606 $-1 #
edge $607 $608 -14.999999999999833 $609 14.999999999999966 $468 $610 forward 7 unknown #
plane-surface $-1 50 0 0 -1 0 0 0 0 1 forward_v I I I I #
coedge $-1 $326 $324 $328 $475 reversed $211 $-1 #
edge $-1 $339 -48.848480035423698 $477 48.848480035423698 $338 $611 forward 7 unknown #
vertex $-1 $475 $612 #
straight-curve $-1 -50 -15.000000000000188 0 0 0 -1 I I #
edge $-1 $473 -15.000000000000188 $477 15.000000000000188 $471 $613 forward 7 unknown #
straight-curve $-1 0 -15.000000000000188 -48.848480035423698 -1 0 0 I I #
vertex $-1 $331 $614 #
straight-curve $-1 0 15.000000000000188 -48.848480035423698 1 0 0 I I #
point $-1 50 15.000000000000188 -48.848480035423698 #
point $-1 50 -15.000000000000188 -48.848480035423698 #
straight-curve $-1 -50 0 48.848480035423698 0 -1 0 I I #
point $-1 -50 15.000000000000188 48.848480035423698 #
point $-1 -50 -15.000000000000188 48.848480035423698 #
straight-curve $-1 50 -15.000000000000188 0 0 0 -1 I I #
straight-curve $-1 50 15.000000000000188 0 0 0 -1 I I #
point $-1 7.5 0 7.500000000000024 #
point $-1 5 0 7.5000000000000151 #
plane-surface $-1 -15 0 0 1 0 0 0 0 -1 forward_v I I I I #
coedge $-1 $494 $499 $491 $615 reversed $355 $-1 #
edge $616 $617 -15 $492 15 $357 $618 forward 7 unknown #
coedge $-1 $359 $358 $489 $615 forward $163 $-1 #
vertex $-1 $490 $619 #
straight-curve $-1 -15 15.000000000000231 -79.568235123181097 0 0 1 I I #
coedge $-1 $366 $489 $362 $495 reversed $355 $-1 #
edge $-1 $373 -14.999999999999964 $496 15.000000000000036 $494 $620 forward 7 unknown #
vertex $-1 $495 $621 #
straight-curve $-1 0 15.000000000000231 -110.28799021093849 -1 0 0 I I #
point $-1 -15 14.999999999999858 -110.28799021093855 #
coedge $-1 $489 $366 $369 $501 reversed $355 $-1 #
straight-curve $-1 15 -15.000000000000146 -79.568235123181097 0 0 1 I I #
edge $622 $617 -15.000000000000057 $371 14.999999999999943 $499 $623 forward 7 unknown #
point $-1 15 -14.999999999999943 -142.98495028178584 #
point $-1 15 -14.999999999999943 -110.28799021093864 #
convexity-sys-attrib $-1 $-1 $-1 $375 #
straight-curve $-1 -15 0 -142.98495028178584 0 1 0 I I #
loop $-1 $-1 $518 $378 #
plane-surface $-1 -30 3.5527136788005009e-015 32.500000000000071 1 0 0 0 0 -1 forward_v I I I I #
coedge $-1 $380 $393 $381 $510 forward $255 $-1 #
coedge $-1 $382 $381 $624 $625 reversed $171 $-1 #
edge $-1 $626 0 $511 17.696960070847297 $508 $627 forward 7 unknown #
vertex $-1 $510 $628 #
straight-curve $-1 -47.696960070847297 -15.000000000000188 14.325759982288188 0 0 -1 I I #
coedge $-1 $624 $389 $385 $514 forward $506 $-1 #
edge $629 $391 -15.000000000000226 $515 15.000000000000151 $385 $630 forward 7 unknown #
vertex $-1 $514 $631 #
straight-curve $-1 -30 -15.000000000000188 48.848480035423698 -1 0 0 I I #
point $-1 -47.696960070847297 -15.000000000000188 48.848480035423698 #
coedge $-1 $389 $624 $393 $522 forward $506 $-1 #
convexity-sys-attrib $-1 $-1 $-1 $390 #
straight-curve $-1 -30 15.000000000000188 14.325759982288188 0 0 1 I I #
point $-1 -30 15.000000000000188 48.848480035423698 #
edge $632 $626 -14.999999999999957 $394 15.000000000000043 $393 $633 forward 7 unknown #
point $-1 -30 15.000000000000014 16.151519964576352 #
straight-curve $-1 -47.696960070847297 -2.9309887850104107e-014 16.151519964576352 0 1 0 I I #
loop $-1 $-1 $537 $399 #
plane-surface $-1 30 3.9968028886505635e-015 32.500000000000071 1 0 0 0 0 -1 forward_v I I I I #
coedge $-1 $401 $414 $402 $529 forward $272 $-1 #
coedge $-1 $403 $402 $634 $635 reversed $179 $-1 #
edge $-1 $636 0 $530 17.696960070847297 $527 $637 forward 7 unknown #
vertex $-1 $529 $638 #
straight-curve $-1 47.696960070847297 15.000000000000188 14.325759982288188 0 0 -1 I I #
coedge $-1 $634 $410 $406 $533 forward $525 $-1 #
edge $639 $412 -15.000000000000151 $534 15.000000000000226 $406 $640 forward 7 unknown #
vertex $-1 $533 $641 #
straight-curve $-1 30 15.000000000000188 48.848480035423698 1 0 0 I I #
point $-1 47.696960070847297 15.000000000000188 48.848480035423698 #
coedge $-1 $410 $634 $414 $541 forward $525 $-1 #
convexity-sys-attrib $-1 $-1 $-1 $411 #
straight-curve $-1 30 -15.000000000000188 14.325759982288188 0 0 1 I I #
point $-1 30 -15.000000000000188 48.848480035423698 #
edge $642 $636 -15.000000000000043 $415 14.999999999999957 $414 $643 forward 7 unknown #
point $-1 30 -14.999999999999986 16.151519964576352 #
straight-curve $-1 47.696960070847297 -2.9309887850104107e-014 16.151519964576352 0 -1 0 I I #
attrib_hh_face_geombuild-attrib_entity_geombuild-individual_entity_attribute-attrib_HH-attrib $-1 $-1 $422 $291 F #
model_id-kcp-attrib $-1 $644 $-1 $423 1 1017637760 80 223346689 9 #
loop $-1 $-1 $645 $423 #
plane-surface $-1 -45 5.04870979341448e-029 15 0 0 1 1 0 0 forward_v I I I I #
attrib_hh_coedge_geombuild-attrib_entity_geombuild-individual_entity_attribute-attrib_HH-attrib $-1 $-1 $-1 $426 F #
coedge $646 $426 $647 $604 $648 forward $292 $-1 #
edge $649 $609 -30.196960070847197 $556 2.5000000000000995 $426 $650 forward 7 unknown #
attrib_hh_coedge_geombuild-attrib_entity_geombuild-individual_entity_attribute-attrib_HH-attrib $-1 $-1 $-1 $428 F #
coedge $651 $467 $466 $428 $553 forward $206 $-1 #
edge $652 $562 -15 $556 15 $552 $653 forward 7 unknown #
attrib_hh_coedge_geombuild-attrib_entity_geombuild-individual_entity_attribute-attrib_HH-attrib $-1 $-1 $-1 $429 F #
attrib_edge_convexity-kcp-attrib $-1 $654 $-1 $430 1 #
vertex $655 $430 $656 #
straight-curve $-1 0 14.999999999999901 15 1 0 0 I I #
attrib_hh_coedge_geombuild-attrib_entity_geombuild-individual_entity_attribute-attrib_HH-attrib $-1 $-1 $-1 $432 F #
coedge $657 $658 $432 $466 $601 forward $560 $-1 #
loop $-1 $-1 $559 $462 #
attrib_hh_edge_geombuild-attrib_entity_geombuild-individual_entity_attribute-attrib_HH-attrib $-1 $-1 $-1 $433 F #
vertex $659 $433 $660 #
straight-curve $-1 0 -15.000000000000099 15 -1 0 0 I I #
attrib_hh_vertex_geombuild-attrib_entity_geombuild-individual_entity_attribute-attrib_HH-attrib $-1 $-1 $-1 $436 F #
point $-1 15 15 15 #
attrib_hh_vertex_geombuild-attrib_entity_geombuild-individual_entity_attribute-attrib_HH-attrib $-1 $-1 $-1 $437 F #
point $-1 15 -15 15 #
attrib_hh_coedge_geombuild-attrib_entity_geombuild-individual_entity_attribute-attrib_HH-attrib $-1 $-1 $-1 $440 F #
coedge $661 $662 $440 $447 $580 forward $292 $-1 #
attrib_edge_convexity-kcp-attrib $-1 $663 $-1 $441 1 #
straight-curve $-1 15 14.999999999999901 17.500000000000099 0 -3.4914813388431298e-015 1 I I #
attrib_hh_coedge_geombuild-attrib_entity_geombuild-individual_entity_attribute-attrib_HH-attrib $-1 $-1 $-1 $443 F #
coedge $664 $443 $665 $446 $578 forward $560 $-1 #
attrib_hh_edge_geombuild-attrib_entity_geombuild-individual_entity_attribute-attrib_HH-attrib $-1 $-1 $-1 $444 F #
straight-curve $-1 15 -15.000000000000099 17.499999999999901 0 3.4914813388431298e-015 -1 I I #
attrib_hh_coedge_geombuild-attrib_entity_geombuild-individual_entity_attribute-attrib_HH-attrib $-1 $-1 $-1 $446 F #
coedge $666 $447 $446 $585 $667 forward $424 $-1 #
edge $668 $669 0.92729521800161285 $450 1.266103672779499 $573 $670 forward 7 unknown #
attrib_hh_coedge_geombuild-attrib_entity_geombuild-individual_entity_attribute-attrib_HH-attrib $-1 $-1 $-1 $447 F #
edge $671 $449 -1.266103672779499 $672 -0.92729521800161163 $569 $673 forward 7 unknown #
attrib_hh_vertex_geombuild-attrib_entity_geombuild-individual_entity_attribute-attrib_HH-attrib $-1 $-1 $-1 $449 F #
point $-1 15 15 47.696960070847297 #
attrib_hh_vertex_geombuild-attrib_entity_geombuild-individual_entity_attribute-attrib_HH-attrib $-1 $-1 $-1 $450 F #
point $-1 15 -15 47.696960070847197 #
coedge $674 $675 $676 $577 $667 reversed $453 $-1 #
model_id-kcp-attrib $-1 $677 $-1 $454 1 1017637760 80 223346689 13 #
face $678 $679 $680 $12 $-1 $681 forward single #
plane-surface $-1 30 4.5438388140730298e-028 35 1 0 0 0 0 -1 forward_v I I I I #
attrib_hh_edge_geombuild-attrib_entity_geombuild-individual_entity_attribute-attrib_HH-attrib $-1 $-1 $455 $196 F #
attrib_hh_vertex_geombuild-attrib_entity_geombuild-individual_entity_attribute-attrib_HH-attrib $-1 $-1 $456 $307 F #
attrib_hh_coedge_geombuild-attrib_entity_geombuild-individual_entity_attribute-attrib_HH-attrib $-1 $-1 $-1 $460 F #
coedge $682 $683 $460 $647 $684 reversed $313 $-1 #
coedge $685 $460 $683 $686 $687 reversed $313 $-1 #
coedge $688 $605 $604 $460 $595 forward $606 $-1 #
edge $689 $690 -15.00000000000014 $691 14.99999999999986 $594 $692 forward 7 unknown #
attrib_hh_face_geombuild-attrib_entity_geombuild-individual_entity_attribute-attrib_HH-attrib $-1 $-1 $461 $314 F #
model_id-kcp-attrib $-1 $693 $-1 $462 1 1017637760 80 223346689 11 #
face $694 $454 $695 $12 $-1 $425 forward single #
plane-surface $-1 0 -15 -5.2372220082646899e-014 0 -1 -3.4914813388431298e-015 1 0 0 forward_v I I I I #
attrib_hh_coedge_geombuild-attrib_entity_geombuild-individual_entity_attribute-attrib_HH-attrib $-1 $-1 $-1 $466 F #
edge $696 $562 -2.4999999999999005 $608 30.196960070847297 $559 $697 forward 7 unknown #
attrib_hh_coedge_geombuild-attrib_entity_geombuild-individual_entity_attribute-attrib_HH-attrib $-1 $-1 $-1 $467 F #
attrib_hh_coedge_geombuild-attrib_entity_geombuild-individual_entity_attribute-attrib_HH-attrib $-1 $-1 $-1 $468 F #
coedge $698 $594 $468 $549 $648 reversed $606 $-1 #
coedge $699 $468 $594 $658 $700 reversed $606 $-1 #
loop $-1 $-1 $468 $679 #
attrib_hh_edge_geombuild-attrib_entity_geombuild-individual_entity_attribute-attrib_HH-attrib $-1 $-1 $-1 $469 F #
vertex $701 $469 $702 #
vertex $703 $648 $704 #
straight-curve $-1 -15 -1.66533046006909e-013 47.696960070847297 0 1 3.4914813388431298e-015 I I #
straight-curve $-1 -50 15.000000000000188 0 0 0 -1 I I #
point $-1 -50 -15.000000000000188 -48.848480035423698 #
straight-curve $-1 -50 0 -48.848480035423698 0 1 0 I I #
point $-1 -50 15.000000000000188 -48.848480035423698 #
edge $-1 $496 30.719755087757449 $617 63.416715158604745 $489 $705 forward 7 unknown #
convexity-sys-attrib $-1 $-1 $-1 $490 #
vertex $-1 $501 $706 #
straight-curve $-1 0 15.000000000000231 -142.98495028178584 -1 0 0 I I #
point $-1 -15 15.000000000000057 -142.98495028178584 #
straight-curve $-1 15 2.0872192862952943e-014 -110.28799021093849 0 1 0 I I #
point $-1 15 15.000000000000057 -110.28799021093855 #
convexity-sys-attrib $-1 $-1 $-1 $501 #
straight-curve $-1 15 0 -142.98495028178584 0 -1 0 I I #
coedge $-1 $518 $513 $509 $625 forward $506 $-1 #
edge $707 $515 -34.522720053135508 $626 -1.8257599822881634 $509 $708 forward 7 unknown #
vertex $-1 $522 $709 #
straight-curve $-1 -30 -14.999999999999986 16.151519964576352 -1 0 0 I I #
point $-1 -47.696960070847297 -14.999999999999986 16.151519964576352 #
convexity-sys-attrib $-1 $-1 $-1 $514 #
straight-curve $-1 -30 -3.6859404417555197e-014 48.848480035423698 0 -1 0 I I #
point $-1 -30 -15.000000000000188 48.848480035423698 #
convexity-sys-attrib $-1 $-1 $-1 $522 #
straight-curve $-1 -30 -2.9309887850104107e-014 16.151519964576352 0 1 0 I I #
coedge $-1 $537 $532 $528 $635 forward $525 $-1 #
edge $710 $534 -34.522720053135508 $636 -1.8257599822881634 $528 $711 forward 7 unknown #
vertex $-1 $541 $712 #
straight-curve $-1 30 15.000000000000014 16.151519964576352 1 0 0 I I #
point $-1 47.696960070847297 15.000000000000014 16.151519964576352 #
convexity-sys-attrib $-1 $-1 $-1 $533 #
straight-curve $-1 30 -3.6859404417555197e-014 48.848480035423698 0 1 0 I I #
point $-1 30 15.000000000000188 48.848480035423698 #
convexity-sys-attrib $-1 $-1 $-1 $541 #
straight-curve $-1 30 -2.9309887850104107e-014 16.151519964576352 0 -1 0 I I #
attrib_hh_face_geombuild-attrib_entity_geombuild-individual_entity_attribute-attrib_HH-attrib $-1 $-1 $545 $423 F #
coedge $713 $714 $715 $716 $717 reversed $546 $-1 #
attrib_hh_coedge_geombuild-attrib_entity_geombuild-individual_entity_attribute-attrib_HH-attrib $-1 $-1 $-1 $549 F #
coedge $718 $549 $719 $592 $684 forward $292 $-1 #
edge $720 $690 -2.2142974355881817 $609 -1.8754889808102944 $549 $673 forward 7 unknown #
attrib_edge_convexity-kcp-attrib $-1 $721 $-1 $550 1 #
straight-curve $-1 -15 14.999999999999901 17.500000000000099 0 3.4914813388431298e-015 -1 I I #
attrib_hh_coedge_geombuild-attrib_entity_geombuild-individual_entity_attribute-attrib_HH-attrib $-1 $-1 $-1 $552 F #
attrib_hh_edge_geombuild-attrib_entity_geombuild-individual_entity_attribute-attrib_HH-attrib $-1 $-1 $-1 $553 F #
straight-curve $-1 -15 5.04870979341448e-029 15 0 1 0 I I #
convexity-sys-attrib $-1 $722 $555 $430 #
attrib_hh_vertex_geombuild-attrib_entity_geombuild-individual_entity_attribute-attrib_HH-attrib $-1 $-1 $-1 $556 F #
point $-1 -15 15 15 #
attrib_hh_coedge_geombuild-attrib_entity_geombuild-individual_entity_attribute-attrib_HH-attrib $-1 $-1 $-1 $559 F #
coedge $723 $686 $559 $605 $700 forward $560 $-1 #
attrib_hh_vertex_geombuild-attrib_entity_geombuild-individual_entity_attribute-attrib_HH-attrib $-1 $-1 $-1 $562 F #
point $-1 -15 -15 15 #
attrib_hh_coedge_geombuild-attrib_entity_geombuild-individual_entity_attribute-attrib_HH-attrib $-1 $-1 $-1 $569 F #
coedge $724 $725 $569 $676 $726 forward $292 $-1 #
convexity-sys-attrib $-1 $727 $570 $441 #
attrib_hh_coedge_geombuild-attrib_entity_geombuild-individual_entity_attribute-attrib_HH-attrib $-1 $-1 $-1 $573 F #
coedge $728 $573 $729 $675 $730 forward $560 $-1 #
attrib_hh_coedge_geombuild-attrib_entity_geombuild-individual_entity_attribute-attrib_HH-attrib $-1 $-1 $-1 $577 F #
edge $731 $669 -14.99999999999986 $672 15.00000000000014 $577 $732 forward 7 unknown #
attrib_hh_edge_geombuild-attrib_entity_geombuild-individual_entity_attribute-attrib_HH-attrib $-1 $-1 $-1 $578 F #
vertex $733 $667 $734 #
ellipse-curve $-1 0 -15 -5.2372220082646899e-014 0 -1 -3.4914813388431298e-015 50 0 0 1 I I #
attrib_edge_convexity-kcp-attrib $-1 $735 $-1 $580 1 #
vertex $736 $580 $737 #
ellipse-curve $-1 0 15 5.2372220082646899e-014 0 1 3.4914813388431298e-015 50 0 0 1 I I #
attrib_hh_coedge_geombuild-attrib_entity_geombuild-individual_entity_attribute-attrib_HH-attrib $-1 $-1 $-1 $585 F #
coedge $738 $739 $585 $665 $730 reversed $453 $-1 #
coedge $740 $585 $739 $662 $726 reversed $453 $-1 #
attrib_hh_face_geombuild-attrib_entity_geombuild-individual_entity_attribute-attrib_HH-attrib $-1 $-1 $586 $454 F #
model_id-kcp-attrib $-1 $741 $-1 $587 1 1017637760 80 223346689 14 #
face $742 $-1 $606 $12 $-1 $425 forward single #
loop $-1 $-1 $743 $587 #
plane-surface $-1 45 5.04870979341448e-029 15 0 0 1 1 0 0 forward_v I I I I #
attrib_hh_coedge_geombuild-attrib_entity_geombuild-individual_entity_attribute-attrib_HH-attrib $-1 $-1 $-1 $592 F #
coedge $744 $593 $592 $745 $746 forward $313 $-1 #
edge $747 $748 -2.5000000000000995 $690 22.499999999999901 $647 $749 forward 7 unknown #
attrib_hh_coedge_geombuild-attrib_entity_geombuild-individual_entity_attribute-attrib_HH-attrib $-1 $-1 $-1 $593 F #
coedge $750 $751 $658 $593 $687 forward $560 $-1 #
edge $752 $691 -22.500000000000099 $753 2.4999999999999005 $686 $754 forward 7 unknown #
attrib_hh_coedge_geombuild-attrib_entity_geombuild-individual_entity_attribute-attrib_HH-attrib $-1 $-1 $-1 $594 F #
attrib_hh_edge_geombuild-attrib_entity_geombuild-individual_entity_attribute-attrib_HH-attrib $-1 $-1 $-1 $595 F #
vertex $755 $684 $756 #
vertex $757 $700 $758 #
straight-curve $-1 -30 -1.3965925355372501e-013 40 0 -1 -3.4914813388431298e-015 I I #
attrib_hh_face_geombuild-attrib_entity_geombuild-individual_entity_attribute-attrib_HH-attrib $-1 $-1 $597 $462 F #
model_id-kcp-attrib $-1 $759 $-1 $598 1 1017637760 80 223346689 12 #
loop $-1 $-1 $716 $598 #
attrib_hh_edge_geombuild-attrib_entity_geombuild-individual_entity_attribute-attrib_HH-attrib $-1 $-1 $-1 $601 F #
straight-curve $-1 -15 -15.000000000000099 17.499999999999901 0 -3.4914813388431298e-015 1 I I #
attrib_hh_coedge_geombuild-attrib_entity_geombuild-individual_entity_attribute-attrib_HH-attrib $-1 $-1 $-1 $604 F #
attrib_hh_coedge_geombuild-attrib_entity_geombuild-individual_entity_attribute-attrib_HH-attrib $-1 $-1 $-1 $605 F #
edge $760 $608 1.8754889808102944 $691 2.2142974355881804 $658 $670 forward 7 unknown #
attrib_hh_vertex_geombuild-attrib_entity_geombuild-individual_entity_attribute-attrib_HH-attrib $-1 $-1 $-1 $608 F #
point $-1 -15 -15 47.696960070847197 #
attrib_hh_vertex_geombuild-attrib_entity_geombuild-individual_entity_attribute-attrib_HH-attrib $-1 $-1 $-1 $609 F #
point $-1 -15 14.999999999999799 47.696960070847297 #
straight-curve $-1 15 15.000000000000231 -79.568235123181097 0 0 -1 I I #
point $-1 15 15.000000000000057 -142.98495028178584 #
convexity-sys-attrib $-1 $-1 $-1 $625 #
straight-curve $-1 -30 -15.000000000000188 14.325759982288188 0 0 -1 I I #
point $-1 -30 -14.999999999999986 16.151519964576352 #
convexity-sys-attrib $-1 $-1 $-1 $635 #
straight-curve $-1 30 15.000000000000188 14.325759982288188 0 0 -1 I I #
point $-1 30 15.000000000000014 16.151519964576352 #
attrib_hh_coedge_geombuild-attrib_entity_geombuild-individual_entity_attribute-attrib_HH-attrib $-1 $-1 $-1 $645 F #
coedge $761 $745 $645 $751 $762 reversed $546 $-1 #
coedge $763 $645 $745 $719 $764 reversed $546 $-1 #
coedge $765 $766 $767 $645 $717 forward $695 $-1 #
edge $768 $769 -14.999999999999948 $770 14.999999999999952 $716 $771 forward 7 unknown #
attrib_hh_coedge_geombuild-attrib_entity_geombuild-individual_entity_attribute-attrib_HH-attrib $-1 $-1 $-1 $647 F #
coedge $772 $647 $773 $715 $764 forward $292 $-1 #
attrib_edge_convexity-kcp-attrib $-1 $774 $-1 $648 1 #
convexity-sys-attrib $-1 $775 $649 $550 #
attrib_hh_edge_geombuild-attrib_entity_geombuild-individual_entity_attribute-attrib_HH-attrib $-1 $-1 $654 $430 F #
attrib_hh_coedge_geombuild-attrib_entity_geombuild-individual_entity_attribute-attrib_HH-attrib $-1 $-1 $-1 $658 F #
attrib_hh_coedge_geombuild-attrib_entity_geombuild-individual_entity_attribute-attrib_HH-attrib $-1 $-1 $-1 $662 F #
coedge $776 $777 $662 $778 $779 forward $292 $-1 #
edge $780 $672 -22.499999999999901 $781 2.5000000000000995 $662 $782 forward 7 unknown #
attrib_hh_edge_geombuild-attrib_entity_geombuild-individual_entity_attribute-attrib_HH-attrib $-1 $-1 $663 $441 F #
attrib_hh_coedge_geombuild-attrib_entity_geombuild-individual_entity_attribute-attrib_HH-attrib $-1 $-1 $-1 $665 F #
coedge $783 $665 $784 $785 $786 forward $560 $-1 #
edge $787 $788 -2.4999999999999005 $669 22.500000000000099 $665 $789 forward 7 unknown #
attrib_hh_edge_geombuild-attrib_entity_geombuild-individual_entity_attribute-attrib_HH-attrib $-1 $-1 $-1 $667 F #
straight-curve $-1 30 -1.3965925355372501e-013 40 0 1 3.4914813388431298e-015 I I #
attrib_hh_vertex_geombuild-attrib_entity_geombuild-individual_entity_attribute-attrib_HH-attrib $-1 $-1 $-1 $669 F #
point $-1 30 -15 40 #
convexity-sys-attrib $-1 $790 $671 $580 #
attrib_hh_vertex_geombuild-attrib_entity_geombuild-individual_entity_attribute-attrib_HH-attrib $-1 $-1 $-1 $672 F #
point $-1 30 15 40 #
attrib_hh_coedge_geombuild-attrib_entity_geombuild-individual_entity_attribute-attrib_HH-attrib $-1 $-1 $-1 $675 F #
coedge $791 $676 $675 $792 $793 forward $453 $-1 #
attrib_hh_coedge_geombuild-attrib_entity_geombuild-individual_entity_attribute-attrib_HH-attrib $-1 $-1 $-1 $676 F #
attrib_hh_face_geombuild-attrib_entity_geombuild-individual_entity_attribute-attrib_HH-attrib $-1 $-1 $678 $587 F #
model_id-kcp-attrib $-1 $794 $-1 $679 1 1017637760 80 223346689 15 #
coedge $795 $778 $785 $796 $797 reversed $680 $-1 #
attrib_hh_coedge_geombuild-attrib_entity_geombuild-individual_entity_attribute-attrib_HH-attrib $-1 $-1 $-1 $683 F #
coedge $798 $715 $714 $683 $746 reversed $546 $-1 #
edge $799 $748 -15 $753 15 $683 $800 forward 7 unknown #
attrib_edge_convexity-kcp-attrib $-1 $801 $-1 $684 1 #
vertex $802 $764 $803 #
straight-curve $-1 -30 14.999999999999901 17.500000000000099 0 -3.4914813388431298e-015 1 I I #
attrib_hh_coedge_geombuild-attrib_entity_geombuild-individual_entity_attribute-attrib_HH-attrib $-1 $-1 $-1 $686 F #
coedge $804 $805 $686 $714 $762 forward $560 $-1 #
attrib_hh_edge_geombuild-attrib_entity_geombuild-individual_entity_attribute-attrib_HH-attrib $-1 $-1 $-1 $687 F #
vertex $806 $762 $807 #
straight-curve $-1 -30 -15.000000000000099 17.499999999999901 0 3.4914813388431298e-015 -1 I I #
attrib_hh_vertex_geombuild-attrib_entity_geombuild-individual_entity_attribute-attrib_HH-attrib $-1 $-1 $-1 $690 F #
point $-1 -30 15 40 #
attrib_hh_vertex_geombuild-attrib_entity_geombuild-individual_entity_attribute-attrib_HH-attrib $-1 $-1 $-1 $691 F #
point $-1 -30 -15 40 #
attrib_hh_face_geombuild-attrib_entity_geombuild-individual_entity_attribute-attrib_HH-attrib $-1 $-1 $694 $598 F #
attrib_hh_edge_geombuild-attrib_entity_geombuild-individual_entity_attribute-attrib_HH-attrib $-1 $-1 $-1 $700 F #
attrib_hh_coedge_geombuild-attrib_entity_geombuild-individual_entity_attribute-attrib_HH-attrib $-1 $-1 $-1 $714 F #
edge $808 $753 7.5 $769 25.196960070847297 $751 $809 forward 7 unknown #
attrib_hh_coedge_geombuild-attrib_entity_geombuild-individual_entity_attribute-attrib_HH-attrib $-1 $-1 $-1 $715 F #
edge $810 $770 -25.196960070847297 $748 -7.5 $719 $811 forward 7 unknown #
attrib_hh_coedge_geombuild-attrib_entity_geombuild-individual_entity_attribute-attrib_HH-attrib $-1 $-1 $-1 $716 F #
coedge $812 $813 $716 $773 $814 reversed $695 $-1 #
coedge $815 $716 $816 $805 $817 reversed $695 $-1 #
attrib_hh_edge_geombuild-attrib_entity_geombuild-individual_entity_attribute-attrib_HH-attrib $-1 $-1 $-1 $717 F #
vertex $818 $717 $819 #
vertex $820 $814 $821 #
straight-curve $-1 -47.696960070847297 -5.2372220082646899e-014 15 0 1 3.4914813388431298e-015 I I #
attrib_hh_coedge_geombuild-attrib_entity_geombuild-individual_entity_attribute-attrib_HH-attrib $-1 $-1 $-1 $719 F #
coedge $822 $719 $777 $766 $814 forward $292 $-1 #
convexity-sys-attrib $-1 $823 $720 $648 #
attrib_hh_edge_geombuild-attrib_entity_geombuild-individual_entity_attribute-attrib_HH-attrib $-1 $-1 $721 $550 F #
attrib_hh_coedge_geombuild-attrib_entity_geombuild-individual_entity_attribute-attrib_HH-attrib $-1 $-1 $-1 $725 F #
coedge $824 $773 $725 $813 $825 forward $292 $-1 #
coedge $826 $792 $743 $725 $779 reversed $680 $-1 #
edge $827 $781 7.5 $828 25.196960070847297 $725 $829 forward 7 unknown #
attrib_edge_convexity-kcp-attrib $-1 $830 $-1 $726 1 #
vertex $831 $779 $832 #
straight-curve $-1 30 14.999999999999901 17.500000000000099 0 3.4914813388431298e-015 -1 I I #
attrib_hh_coedge_geombuild-attrib_entity_geombuild-individual_entity_attribute-attrib_HH-attrib $-1 $-1 $-1 $729 F #
coedge $833 $729 $805 $816 $834 forward $560 $-1 #
coedge $835 $743 $792 $729 $786 reversed $680 $-1 #
edge $836 $837 -25.196960070847297 $788 -7.5 $729 $838 forward 7 unknown #
attrib_hh_edge_geombuild-attrib_entity_geombuild-individual_entity_attribute-attrib_HH-attrib $-1 $-1 $-1 $730 F #
vertex $839 $786 $840 #
straight-curve $-1 30 -15.000000000000099 17.499999999999901 0 -3.4914813388431298e-015 1 I I #
attrib_hh_edge_geombuild-attrib_entity_geombuild-individual_entity_attribute-attrib_HH-attrib $-1 $-1 $735 $580 F #
attrib_hh_coedge_geombuild-attrib_entity_geombuild-individual_entity_attribute-attrib_HH-attrib $-1 $-1 $-1 $739 F #
coedge $841 $785 $778 $739 $793 reversed $680 $-1 #
edge $842 $788 -15 $781 15 $739 $843 forward 7 unknown #
attrib_hh_face_geombuild-attrib_entity_geombuild-individual_entity_attribute-attrib_HH-attrib $-1 $-1 $742 $679 F #
attrib_hh_coedge_geombuild-attrib_entity_geombuild-individual_entity_attribute-attrib_HH-attrib $-1 $-1 $-1 $743 F #
coedge $844 $816 $813 $743 $797 forward $695 $-1 #
edge $845 $828 -15.000000000000052 $837 14.999999999999948 $796 $846 forward 7 unknown #
attrib_hh_coedge_geombuild-attrib_entity_geombuild-individual_entity_attribute-attrib_HH-attrib $-1 $-1 $-1 $745 F #
attrib_hh_edge_geombuild-attrib_entity_geombuild-individual_entity_attribute-attrib_HH-attrib $-1 $-1 $-1 $746 F #
straight-curve $-1 -30 5.04870979341448e-029 15 0 -1 0 I I #
convexity-sys-attrib $-1 $847 $747 $684 #
attrib_hh_vertex_geombuild-attrib_entity_geombuild-individual_entity_attribute-attrib_HH-attrib $-1 $-1 $-1 $748 F #
point $-1 -30 15 15 #
attrib_hh_coedge_geombuild-attrib_entity_geombuild-individual_entity_attribute-attrib_HH-attrib $-1 $-1 $-1 $751 F #
coedge $848 $784 $751 $767 $817 forward $560 $-1 #
attrib_hh_vertex_geombuild-attrib_entity_geombuild-individual_entity_attribute-attrib_HH-attrib $-1 $-1 $-1 $753 F #
point $-1 -30 -15 15 #
attrib_hh_edge_geombuild-attrib_entity_geombuild-individual_entity_attribute-attrib_HH-attrib $-1 $-1 $-1 $762 F #
straight-curve $-1 -22.5 -15.000000000000099 15 -1 0 0 I I #
attrib_edge_convexity-kcp-attrib $-1 $849 $-1 $764 1 #
straight-curve $-1 -22.5 14.999999999999901 15 1 0 0 I I #
attrib_hh_coedge_geombuild-attrib_entity_geombuild-individual_entity_attribute-attrib_HH-attrib $-1 $-1 $-1 $766 F #
coedge $850 $796 $766 $777 $825 reversed $695 $-1 #
edge $851 $852 0 $770 3.4462853076051894 $773 $673 forward 7 unknown #
attrib_hh_coedge_geombuild-attrib_entity_geombuild-individual_entity_attribute-attrib_HH-attrib $-1 $-1 $-1 $767 F #
coedge $853 $767 $796 $784 $834 reversed $695 $-1 #
edge $854 $769 2.8368999995743946 $855 6.2831853071795862 $805 $670 forward 7 unknown #
attrib_hh_vertex_geombuild-attrib_entity_geombuild-individual_entity_attribute-attrib_HH-attrib $-1 $-1 $-1 $769 F #
point $-1 -47.696960070847297 -15 15 #
attrib_hh_vertex_geombuild-attrib_entity_geombuild-individual_entity_attribute-attrib_HH-attrib $-1 $-1 $-1 $770 F #
point $-1 -47.696960070847297 14.999999999999901 15 #
attrib_hh_coedge_geombuild-attrib_entity_geombuild-individual_entity_attribute-attrib_HH-attrib $-1 $-1 $-1 $773 F #
attrib_hh_edge_geombuild-attrib_entity_geombuild-individual_entity_attribute-attrib_HH-attrib $-1 $-1 $774 $648 F #
attrib_hh_coedge_geombuild-attrib_entity_geombuild-individual_entity_attribute-attrib_HH-attrib $-1 $-1 $-1 $777 F #
edge $856 $828 -0.30469265401539641 $852 0 $777 $673 forward 7 unknown #
attrib_hh_coedge_geombuild-attrib_entity_geombuild-individual_entity_attribute-attrib_HH-attrib $-1 $-1 $-1 $778 F #
attrib_edge_convexity-kcp-attrib $-1 $857 $-1 $779 1 #
vertex $858 $797 $859 #
straight-curve $-1 22.5 14.999999999999901 15 1 0 0 I I #
convexity-sys-attrib $-1 $860 $780 $726 #
attrib_hh_vertex_geombuild-attrib_entity_geombuild-individual_entity_attribute-attrib_HH-attrib $-1 $-1 $-1 $781 F #
point $-1 30 15 15 #
attrib_hh_coedge_geombuild-attrib_entity_geombuild-individual_entity_attribute-attrib_HH-attrib $-1 $-1 $-1 $784 F #
edge $861 $855 0 $837 0.30469265401539841 $784 $670 forward 7 unknown #
attrib_hh_coedge_geombuild-attrib_entity_geombuild-individual_entity_attribute-attrib_HH-attrib $-1 $-1 $-1 $785 F #
attrib_hh_edge_geombuild-attrib_entity_geombuild-individual_entity_attribute-attrib_HH-attrib $-1 $-1 $-1 $786 F #
vertex $862 $834 $863 #
straight-curve $-1 22.5 -15.000000000000099 15 -1 0 0 I I #
attrib_hh_vertex_geombuild-attrib_entity_geombuild-individual_entity_attribute-attrib_HH-attrib $-1 $-1 $-1 $788 F #
point $-1 30 -15 15 #
attrib_hh_coedge_geombuild-attrib_entity_geombuild-individual_entity_attribute-attrib_HH-attrib $-1 $-1 $-1 $792 F #
attrib_hh_edge_geombuild-attrib_entity_geombuild-individual_entity_attribute-attrib_HH-attrib $-1 $-1 $-1 $793 F #
straight-curve $-1 30 5.04870979341448e-029 15 0 1 0 I I #
attrib_hh_coedge_geombuild-attrib_entity_geombuild-individual_entity_attribute-attrib_HH-attrib $-1 $-1 $-1 $796 F #
attrib_hh_edge_geombuild-attrib_entity_geombuild-individual_entity_attribute-attrib_HH-attrib $-1 $-1 $-1 $797 F #
straight-curve $-1 47.696960070847297 -5.2372220082646899e-014 15 0 -1 -3.4914813388431298e-015 I I #
attrib_hh_edge_geombuild-attrib_entity_geombuild-individual_entity_attribute-attrib_HH-attrib $-1 $-1 $801 $684 F #
attrib_hh_coedge_geombuild-attrib_entity_geombuild-individual_entity_attribute-attrib_HH-attrib $-1 $-1 $-1 $805 F #
convexity-sys-attrib $-1 $864 $810 $764 #
attrib_hh_coedge_geombuild-attrib_entity_geombuild-individual_entity_attribute-attrib_HH-attrib $-1 $-1 $-1 $813 F #
attrib_edge_convexity-kcp-attrib $-1 $865 $-1 $814 1 #
vertex $866 $825 $867 #
attrib_hh_coedge_geombuild-attrib_entity_geombuild-individual_entity_attribute-attrib_HH-attrib $-1 $-1 $-1 $816 F #
attrib_hh_edge_geombuild-attrib_entity_geombuild-individual_entity_attribute-attrib_HH-attrib $-1 $-1 $-1 $817 F #
vertex $868 $817 $869 #
attrib_edge_convexity-kcp-attrib $-1 $870 $-1 $825 1 #
convexity-sys-attrib $-1 $871 $827 $779 #
attrib_hh_vertex_geombuild-attrib_entity_geombuild-individual_entity_attribute-attrib_HH-attrib $-1 $-1 $-1 $828 F #
point $-1 47.696960070847297 15 15 #
attrib_hh_edge_geombuild-attrib_entity_geombuild-individual_entity_attribute-attrib_HH-attrib $-1 $-1 $830 $726 F #
attrib_hh_edge_geombuild-attrib_entity_geombuild-individual_entity_attribute-attrib_HH-attrib $-1 $-1 $-1 $834 F #
attrib_hh_vertex_geombuild-attrib_entity_geombuild-individual_entity_attribute-attrib_HH-attrib $-1 $-1 $-1 $837 F #
point $-1 47.696960070847297 -15 15 #
attrib_hh_edge_geombuild-attrib_entity_geombuild-individual_entity_attribute-attrib_HH-attrib $-1 $-1 $849 $764 F #
convexity-sys-attrib $-1 $872 $851 $814 #
attrib_hh_vertex_geombuild-attrib_entity_geombuild-individual_entity_attribute-attrib_HH-attrib $-1 $-1 $-1 $852 F #
point $-1 50 15 5.2372220082646899e-014 #
attrib_hh_vertex_geombuild-attrib_entity_geombuild-individual_entity_attribute-attrib_HH-attrib $-1 $-1 $-1 $855 F #
point $-1 50 -15 -5.2372220082646899e-014 #
convexity-sys-attrib $-1 $873 $856 $825 #
attrib_hh_edge_geombuild-attrib_entity_geombuild-individual_entity_attribute-attrib_HH-attrib $-1 $-1 $857 $779 F #
attrib_hh_edge_geombuild-attrib_entity_geombuild-individual_entity_attribute-attrib_HH-attrib $-1 $-1 $865 $814 F #
attrib_hh_edge_geombuild-attrib_entity_geombuild-individual_entity_attribute-attrib_HH-attrib $-1 $-1 $870 $825 F #
End-of-ACIS-data 