600 0 2 0           
24 FBMach with ACIS - 6.0.3 13 ACIS 6.0.3 NT 24 Tue May 22 12:37:25 2001 
1 9.9999999999999995e-007 1e-010 
body $2 $3 $-1 $4 #
bdycol-kcp $-1 1 6 $5 $6 $7 $8 $9 $10 #
model_id-kcp-attrib $-1 $-1 $-1 $0 1 990549444 70 -364511231 1 #
lump $-1 $-1 $11 $0 #
transform $-1 1 0 0 0 1 0 0 0 1 0 0 0 1 no_rotate no_reflect no_shear #
body $12 $13 $-1 $14 #
body $15 $16 $-1 $17 #
body $18 $19 $-1 $20 #
body $21 $22 $-1 $23 #
body $24 $25 $-1 $26 #
body $27 $28 $-1 $29 #
shell $-1 $-1 $-1 $30 $-1 $3 #
model_id-kcp-attrib $-1 $-1 $-1 $5 1 990549444 80 -363855870 1 #
lump $-1 $-1 $31 $5 #
transform $-1 1 0 0 0 1 0 0 0 1 0 -1.5099033134902129e-014 -1.1515199645763516 1 no_rotate no_reflect no_shear #
rgb_color-st-attrib $-1 $32 $-1 $6 0.5 1 1 #
lump $-1 $-1 $33 $6 #
transform $-1 -3.8285889215894375e-016 0 -1 0 1 0 1 0 -3.8285889215894375e-016 -22.5 1.0097419586829e-028 29.999999999999996 1 rotate no_reflect no_shear #
rgb_color-st-attrib $-1 $34 $-1 $7 0.5 1 1 #
lump $-1 $-1 $35 $7 #
transform $-1 -3.8285889215894375e-016 0 -1 0 1 0 1 0 -3.8285889215894375e-016 22.5 1.0097419586829e-028 29.999999999999993 1 rotate no_reflect no_shear #
rgb_color-st-attrib $-1 $36 $-1 $8 1 0 0 #
lump $-1 $-1 $37 $8 #
transform $-1 1 0 0 0 1 0 0 0 1 0 -5.6843418860808015e-014 157.98495028178584 1 no_rotate no_reflect no_shear #
rgb_color-st-attrib $-1 $38 $-1 $9 1 0.5 1 #
lump $-1 $-1 $39 $9 #
transform $-1 1 0 0 0 1 0 0 0 1 0 -1.5099033134902129e-014 -1.1515199645763516 1 no_rotate no_reflect no_shear #
rgb_color-st-attrib $-1 $40 $-1 $10 1 0.5 1 #
lump $-1 $-1 $41 $10 #
transform $-1 1 0 0 0 1 0 0 0 1 0 -1.5099033134902129e-014 -1.1515199645763516 1 no_rotate no_reflect no_shear #
face $42 $43 $44 $11 $-1 $45 reversed single #
shell $-1 $-1 $-1 $46 $-1 $13 #
model_id-kcp-attrib $-1 $-1 $15 $6 1 990549444 130 -360579069 1 #
shell $-1 $-1 $-1 $47 $-1 $16 #
model_id-kcp-attrib $-1 $-1 $18 $7 1 990549444 130 -360579068 1 #
shell $-1 $-1 $-1 $48 $-1 $19 #
model_id-kcp-attrib $-1 $-1 $21 $8 1 990549444 280 -367525883 1 #
shell $-1 $-1 $-1 $49 $-1 $22 #
model_id-kcp-attrib $-1 $-1 $24 $9 1 990549444 420 -358350842 1 #
shell $-1 $-1 $-1 $50 $-1 $25 #
model_id-kcp-attrib $-1 $-1 $27 $10 1 990549444 500 -353107961 1 #
shell $-1 $-1 $-1 $51 $-1 $28 #
model_id-kcp-attrib $-1 $-1 $-1 $30 1 990549444 70 -364511231 2 #
face $52 $53 $54 $11 $-1 $55 reversed single #
loop $56 $57 $58 $30 #
cone-surface $-1 -25 1.0097419586829e-028 30 1 1.4012984643248201e-044 -3.4914813388431298e-015 -2.61861100413235e-014 -2.52435489670724e-029 -7.5 1 I I 0 1 7.5 forward I I I I #
face $-1 $59 $60 $31 $-1 $61 forward single #
face $-1 $62 $63 $33 $-1 $64 forward single #
face $-1 $65 $66 $35 $-1 $67 forward single #
face $-1 $68 $69 $37 $-1 $70 reversed single #
face $-1 $71 $72 $39 $-1 $73 forward single #
face $-1 $74 $75 $41 $-1 $76 forward single #
model_id-kcp-attrib $-1 $-1 $-1 $43 1 990549444 70 -364511231 3 #
face $77 $78 $79 $11 $-1 $80 forward single #
loop $81 $82 $83 $43 #
cone-surface $-1 0 1.0097419586829e-028 30 1 1.4012984643248201e-044 -3.4914813388431298e-015 -1.7457406694215701e-014 -5.3642541555028803e-029 -5 1 I I 0 1 5 forward I I I I #
model_id-kcp-attrib $-1 $-1 $-1 $44 1 990549444 70 -364511231 16 #
loop $84 $-1 $85 $30 #
coedge $-1 $58 $58 $86 $87 reversed $44 $-1 #
face $-1 $88 $89 $31 $-1 $90 reversed single #
loop $-1 $-1 $91 $46 #
plane-surface $-1 0 0 48.848480035423698 0 0 1 1 0 0 forward_v I I I I #
face $-1 $92 $93 $33 $-1 $94 forward single #
loop $-1 $95 $96 $47 #
cone-surface $-1 0 0 0 0 0 1 7.5 0 0 1 I I 0 1 7.5 forward I I I I #
face $-1 $97 $98 $35 $-1 $99 forward single #
loop $-1 $100 $101 $48 #
cone-surface $-1 0 0 0 0 0 1 5 0 0 1 I I 0 1 5 forward I I I I #
face $-1 $102 $103 $37 $-1 $104 forward single #
loop $-1 $-1 $105 $49 #
plane-surface $-1 0 -15.000000000000146 -159.13647024636219 0 1 0 0 0 1 forward_v I I I I #
face $-1 $106 $107 $39 $-1 $108 forward single #
loop $-1 $-1 $109 $50 #
plane-surface $-1 -30 15.000000000000014 16.151519964576352 0 1 0 0 0 1 forward_v I I I I #
face $-1 $110 $111 $41 $-1 $112 forward single #
loop $-1 $-1 $113 $51 #
plane-surface $-1 30 -14.999999999999986 16.151519964576352 0 -1 0 0 0 -1 forward_v I I I I #
model_id-kcp-attrib $-1 $-1 $-1 $53 1 990549444 70 -364511231 4 #
face $114 $115 $116 $11 $-1 $117 forward single #
loop $118 $119 $120 $53 #
plane-surface $-1 15 4.5438388140730298e-028 35 -1 0 0 0 0 1 forward_v I I I I #
model_id-kcp-attrib $-1 $-1 $-1 $54 1 990549444 70 -364511231 20 #
loop $121 $-1 $122 $43 #
coedge $-1 $83 $83 $120 $123 reversed $54 $-1 #
model_id-kcp-attrib $-1 $-1 $-1 $57 1 990549444 70 -364511231 17 #
coedge $-1 $85 $85 $124 $125 reversed $57 $-1 #
coedge $-1 $86 $86 $58 $87 forward $126 $-1 #
edge $127 $128 -3.1415926535897998 $128 3.1415926535897865 $86 $129 forward 7 unknown #
face $130 $131 $132 $31 $-1 $133 reversed single #
loop $-1 $-1 $134 $59 #
plane-surface $-1 0 0 -48.848480035423698 0 0 1 1 0 0 forward_v I I I I #
coedge $-1 $135 $136 $137 $138 forward $60 $-1 #
face $-1 $-1 $139 $33 $-1 $140 forward single #
loop $-1 $-1 $141 $62 #
plane-surface $-1 0 0 -7.500000000000024 0 0 -1 -1 0 0 forward_v I I I I #
loop $-1 $-1 $142 $47 #
coedge $-1 $96 $96 $141 $143 reversed $63 $-1 #
face $-1 $-1 $144 $35 $-1 $145 forward single #
loop $-1 $-1 $146 $65 #
plane-surface $-1 0 0 -7.5000000000000151 0 0 -1 -1 0 0 forward_v I I I I #
loop $-1 $-1 $147 $48 #
coedge $-1 $101 $101 $146 $148 reversed $66 $-1 #
face $-1 $149 $150 $37 $-1 $151 reversed single #
loop $-1 $-1 $152 $68 #
plane-surface $-1 0 4.1744385725905886e-014 -110.28799021093849 0 0 1 1 0 0 forward_v I I I I #
coedge $-1 $153 $154 $155 $156 forward $69 $-1 #
face $-1 $157 $158 $39 $-1 $159 forward single #
loop $-1 $-1 $160 $71 #
plane-surface $-1 -30 15.000000000000188 48.848480035423698 0 0 1 1 0 0 forward_v I I I I #
coedge $-1 $161 $162 $163 $164 forward $72 $-1 #
face $-1 $165 $166 $41 $-1 $167 forward single #
loop $-1 $-1 $168 $74 #
plane-surface $-1 30 -15.000000000000188 48.848480035423698 0 0 1 1 0 0 forward_v I I I I #
coedge $-1 $169 $170 $171 $172 forward $75 $-1 #
model_id-kcp-attrib $-1 $-1 $-1 $78 1 990549444 70 -364511231 5 #
face $173 $174 $126 $11 $-1 $175 forward single #
loop $-1 $-1 $176 $78 #
plane-surface $-1 0 5.04870979341448e-029 15 0 0 1 1 0 0 forward_v I I I I #
model_id-kcp-attrib $-1 $-1 $-1 $79 1 990549444 70 -364511231 22 #
loop $-1 $-1 $177 $53 #
coedge $-1 $120 $120 $83 $123 forward $79 $-1 #
model_id-kcp-attrib $-1 $-1 $-1 $82 1 990549444 70 -364511231 21 #
coedge $-1 $122 $122 $178 $179 reversed $82 $-1 #
edge $180 $181 -3.1415926535897998 $181 3.1415926535897865 $120 $182 forward 7 unknown #
coedge $-1 $124 $124 $85 $125 forward $183 $-1 #
edge $184 $185 -3.1415926535897998 $185 3.1415926535897865 $124 $186 forward 7 unknown #
loop $187 $188 $86 $115 #
attrib_edge_convexity-kcp-attrib $-1 $189 $-1 $87 1 #
vertex $-1 $87 $190 #
ellipse-curve $-1 -15 1.0097419586829e-028 30 -1 0 0 -2.61861100413235e-014 -2.52435489670724e-029 -7.5 1 I I #
model_id-kcp-attrib $-1 $-1 $-1 $88 1 990549444 80 -363855870 3 #
face $-1 $191 $192 $31 $-1 $193 reversed single #
loop $-1 $-1 $194 $88 #
plane-surface $-1 0 -15.000000000000188 0 0 1 0 0 0 1 forward_v I I I I #
coedge $-1 $195 $196 $197 $198 forward $89 $-1 #
coedge $-1 $199 $91 $200 $201 forward $60 $-1 #
coedge $-1 $91 $199 $202 $203 forward $60 $-1 #
coedge $-1 $204 $205 $91 $138 reversed $206 $-1 #
edge $-1 $207 -15.000000000000188 $208 15.000000000000188 $137 $209 forward 7 unknown #
loop $-1 $-1 $210 $92 #
plane-surface $-1 0 0 7.500000000000024 0 0 1 1 0 0 forward_v I I I I #
coedge $-1 $141 $141 $96 $143 forward $93 $-1 #
coedge $-1 $142 $142 $210 $211 reversed $95 $-1 #
edge $-1 $212 0 $212 6.2831853071795862 $141 $213 forward 7 unknown #
loop $-1 $-1 $214 $97 #
plane-surface $-1 0 0 7.5000000000000151 0 0 1 1 0 0 forward_v I I I I #
coedge $-1 $146 $146 $101 $148 forward $98 $-1 #
coedge $-1 $147 $147 $214 $215 reversed $100 $-1 #
edge $-1 $216 0 $216 6.2831853071795862 $146 $217 forward 7 unknown #
face $-1 $218 $219 $37 $-1 $220 reversed single #
loop $-1 $-1 $221 $102 #
plane-surface $-1 0 15.000000000000231 -159.13647024636219 0 -1 0 0 0 -1 forward_v I I I I #
coedge $-1 $222 $223 $224 $225 forward $103 $-1 #
coedge $-1 $226 $105 $227 $228 forward $69 $-1 #
coedge $-1 $105 $226 $222 $229 reversed $69 $-1 #
coedge $-1 $224 $230 $105 $156 reversed $231 $-1 #
edge $-1 $232 30.719755087757548 $233 63.416715158604745 $155 $234 forward 7 unknown #
face $-1 $235 $236 $39 $-1 $237 forward single #
loop $-1 $-1 $238 $106 #
plane-surface $-1 -30 -15.000000000000188 48.848480035423698 0 -1 0 0 0 -1 forward_v I I I I #
coedge $-1 $239 $240 $241 $242 forward $107 $-1 #
coedge $-1 $243 $109 $240 $244 reversed $72 $-1 #
coedge $-1 $109 $243 $245 $246 forward $72 $-1 #
coedge $-1 $247 $241 $109 $164 reversed $248 $-1 #
edge $-1 $249 1.8257599822881634 $250 34.522720053135508 $109 $251 forward 7 unknown #
face $-1 $252 $253 $41 $-1 $254 forward single #
loop $-1 $-1 $255 $110 #
plane-surface $-1 30 15.000000000000188 48.848480035423698 0 1 0 0 0 1 forward_v I I I I #
coedge $-1 $256 $257 $258 $259 forward $111 $-1 #
coedge $-1 $260 $113 $257 $261 reversed $75 $-1 #
coedge $-1 $113 $260 $262 $263 forward $75 $-1 #
coedge $-1 $264 $258 $113 $172 reversed $265 $-1 #
edge $-1 $266 1.8257599822881634 $267 34.522720053135508 $113 $268 forward 7 unknown #
model_id-kcp-attrib $-1 $-1 $-1 $115 1 990549444 70 -364511231 6 #
face $269 $270 $271 $11 $-1 $272 forward single #
plane-surface $-1 -15 4.5438388140730298e-028 35 1 0 0 0 0 -1 forward_v I I I I #
coedge $-1 $273 $274 $275 $276 reversed $116 $-1 #
coedge $-1 $277 $278 $279 $280 reversed $119 $-1 #
coedge $-1 $178 $178 $122 $179 forward $281 $-1 #
edge $282 $283 -3.1415926535897998 $283 3.1415926535897865 $178 $284 forward 7 unknown #
attrib_edge_convexity-kcp-attrib $-1 $285 $-1 $123 1 #
vertex $286 $123 $287 #
ellipse-curve $-1 15 4.5438388140730298e-028 29.999999999999901 1 0 0 -1.7457406694215701e-014 -5.3642541555028803e-029 -5 1 I I #
loop $288 $289 $124 $290 #
attrib_edge_convexity-kcp-attrib $-1 $291 $-1 $125 1 #
vertex $-1 $125 $292 #
ellipse-curve $-1 -30 1.0097419586829e-028 30 1 0 0 -2.61861100413235e-014 -2.52435489670724e-029 -7.5 1 I I #
model_id-kcp-attrib $-1 $-1 $-1 $126 1 990549444 70 -364511231 18 #
loop $-1 $-1 $293 $115 #
convexity-sys-attrib $-1 $-1 $127 $87 #
point $-1 -15 -5.2372220082646899e-014 37.5 #
face $294 $295 $296 $31 $-1 $297 reversed single #
loop $-1 $-1 $298 $131 #
plane-surface $-1 -50 0 0 1 0 0 0 0 -1 forward_v I I I I #
coedge $-1 $299 $202 $300 $301 forward $132 $-1 #
coedge $-1 $302 $134 $299 $303 forward $89 $-1 #
coedge $-1 $134 $302 $304 $305 forward $89 $-1 #
coedge $-1 $205 $204 $134 $198 reversed $206 $-1 #
edge $-1 $306 -15.000000000000188 $307 15.000000000000188 $197 $308 forward 7 unknown #
coedge $-1 $136 $135 $309 $310 forward $60 $-1 #
coedge $-1 $311 $312 $135 $201 reversed $296 $-1 #
edge $-1 $208 -50 $313 50 $200 $314 forward 7 unknown #
coedge $-1 $194 $315 $136 $203 reversed $132 $-1 #
edge $-1 $316 -50 $207 50 $202 $317 forward 7 unknown #
coedge $-1 $197 $137 $315 $318 forward $206 $-1 #
coedge $-1 $137 $197 $311 $319 reversed $206 $-1 #
loop $-1 $-1 $204 $295 #
vertex $-1 $138 $320 #
vertex $-1 $138 $321 #
straight-curve $-1 50 0 48.848480035423698 0 1 0 I I #
coedge $-1 $210 $210 $142 $211 forward $139 $-1 #
edge $-1 $322 0 $322 6.2831853071795862 $210 $323 forward 7 unknown #
vertex $-1 $143 $324 #
ellipse-curve $-1 0 0 -7.500000000000024 0 0 -1 7.5 0 0 1 I I #
coedge $-1 $214 $214 $147 $215 forward $144 $-1 #
edge $-1 $325 0 $325 6.2831853071795862 $214 $326 forward 7 unknown #
vertex $-1 $148 $327 #
ellipse-curve $-1 0 0 -7.5000000000000151 0 0 -1 5 0 0 1 I I #
face $-1 $328 $329 $37 $-1 $330 reversed single #
loop $-1 $-1 $331 $149 #
plane-surface $-1 0 0 -142.98495028178584 0 0 1 1 0 0 forward_v I I I I #
coedge $-1 $332 $333 $334 $335 forward $150 $-1 #
coedge $-1 $336 $152 $154 $229 forward $103 $-1 #
coedge $-1 $152 $336 $332 $337 forward $103 $-1 #
coedge $-1 $334 $155 $152 $225 reversed $231 $-1 #
edge $-1 $338 -14.999999999999837 $232 14.999999999999964 $224 $339 forward 7 unknown #
coedge $-1 $154 $153 $340 $341 forward $69 $-1 #
coedge $-1 $342 $343 $153 $228 reversed $219 $-1 #
edge $344 $233 -15 $345 15 $227 $346 forward 7 unknown #
edge $-1 $232 -15 $347 15 $154 $348 forward 7 unknown #
coedge $-1 $155 $334 $342 $349 reversed $231 $-1 #
loop $-1 $-1 $334 $328 #
vertex $-1 $156 $350 #
vertex $-1 $349 $351 #
straight-curve $-1 -15 -15.000000000000146 -79.568235123181097 0 0 -1 I I #
face $-1 $352 $248 $39 $-1 $353 reversed single #
loop $-1 $-1 $354 $157 #
plane-surface $-1 -30 -14.999999999999986 16.151519964576352 0 0 -1 -1 0 0 forward_v I I I I #
coedge $-1 $355 $356 $357 $358 forward $158 $-1 #
coedge $-1 $359 $160 $356 $360 reversed $107 $-1 #
coedge $-1 $160 $359 $161 $244 forward $107 $-1 #
coedge $-1 $163 $357 $160 $242 reversed $248 $-1 #
edge $-1 $250 -15.000000000000226 $361 15.000000000000151 $160 $362 forward 7 unknown #
coedge $-1 $162 $161 $363 $364 reversed $72 $-1 #
edge $-1 $365 0 $250 17.696960070847297 $240 $366 forward 7 unknown #
coedge $-1 $367 $354 $162 $246 reversed $236 $-1 #
edge $-1 $368 0 $249 17.696960070847297 $162 $369 forward 7 unknown #
coedge $-1 $357 $163 $354 $370 reversed $248 $-1 #
loop $-1 $-1 $163 $235 #
vertex $-1 $246 $371 #
vertex $-1 $244 $372 #
straight-curve $-1 -47.696960070847297 15.000000000000188 14.325759982288188 0 0 1 I I #
face $-1 $373 $265 $41 $-1 $374 forward single #
loop $-1 $-1 $375 $165 #
plane-surface $-1 30 15.000000000000014 16.151519964576352 0 0 -1 -1 0 0 forward_v I I I I #
coedge $-1 $376 $377 $378 $379 forward $166 $-1 #
coedge $-1 $380 $168 $377 $381 reversed $111 $-1 #
coedge $-1 $168 $380 $169 $261 forward $111 $-1 #
coedge $-1 $171 $378 $168 $259 reversed $265 $-1 #
edge $-1 $267 -15.000000000000151 $382 15.000000000000226 $168 $383 forward 7 unknown #
coedge $-1 $170 $169 $384 $385 reversed $75 $-1 #
edge $-1 $386 0 $267 17.696960070847297 $257 $387 forward 7 unknown #
coedge $-1 $388 $375 $170 $263 reversed $253 $-1 #
edge $-1 $389 0 $266 17.696960070847297 $170 $390 forward 7 unknown #
coedge $-1 $378 $171 $375 $391 reversed $265 $-1 #
loop $-1 $-1 $171 $252 #
vertex $-1 $263 $392 #
vertex $-1 $261 $393 #
straight-curve $-1 47.696960070847297 -15.000000000000188 14.325759982288188 0 0 1 I I #
model_id-kcp-attrib $-1 $-1 $-1 $174 1 990549444 70 -364511231 7 #
face $394 $395 $396 $11 $-1 $397 forward single #
loop $-1 $-1 $398 $174 #
plane-surface $-1 0 15 5.2372220082646899e-014 0 1 3.4914813388431298e-015 -1 0 0 forward_v I I I I #
coedge $-1 $399 $176 $400 $401 reversed $116 $-1 #
coedge $-1 $176 $399 $402 $403 reversed $116 $-1 #
coedge $-1 $278 $277 $176 $276 forward $119 $-1 #
edge $-1 $404 -15 $405 15 $275 $406 forward 7 unknown #
coedge $-1 $275 $177 $407 $408 reversed $119 $-1 #
coedge $-1 $177 $275 $409 $410 reversed $119 $-1 #
coedge $-1 $411 $412 $177 $280 forward $396 $-1 #
edge $-1 $413 -15.000000000000167 $414 14.999999999999833 $279 $415 forward 7 unknown #
loop $416 $417 $178 $418 #
attrib_edge_convexity-kcp-attrib $-1 $419 $-1 $179 1 #
vertex $420 $179 $421 #
ellipse-curve $-1 30 4.5438388140730298e-028 29.999999999999901 -1 0 0 -1.7457406694215701e-014 -5.3642541555028803e-029 -5 1 I I #
convexity-sys-attrib $-1 $-1 $180 $123 #
model_id-kcp-attrib $-1 $-1 $-1 $181 1 990549444 70 -364511231 24 #
point $-1 15 3.4914813388431801e-014 34.999999999999901 #
model_id-kcp-attrib $-1 $-1 $-1 $183 1 990549444 70 -364511231 19 #
loop $-1 $-1 $422 $290 #
face $423 $424 $183 $11 $-1 $425 forward single #
convexity-sys-attrib $-1 $-1 $184 $125 #
point $-1 -30 5.23722200826476e-014 37.5 #
coedge $-1 $426 $427 $428 $429 reversed $188 $-1 #
model_id-kcp-attrib $-1 $-1 $-1 $191 1 990549444 80 -363855870 2 #
face $-1 $-1 $206 $31 $-1 $430 reversed single #
loop $-1 $-1 $311 $191 #
plane-surface $-1 0 15.000000000000188 0 0 -1 0 0 0 -1 forward_v I I I I #
coedge $-1 $431 $309 $312 $432 forward $192 $-1 #
coedge $-1 $315 $194 $195 $303 reversed $132 $-1 #
coedge $-1 $309 $431 $194 $301 reversed $192 $-1 #
edge $-1 $316 -48.848480035423698 $433 48.848480035423698 $300 $434 forward 7 unknown #
coedge $-1 $196 $195 $431 $435 forward $89 $-1 #
edge $-1 $307 -50 $433 50 $299 $436 forward 7 unknown #
coedge $-1 $312 $311 $196 $305 reversed $296 $-1 #
edge $-1 $437 -50 $306 50 $304 $438 forward 7 unknown #
vertex $-1 $198 $439 #
vertex $-1 $318 $440 #
straight-curve $-1 50 0 -48.848480035423698 0 -1 0 I I #
coedge $-1 $298 $300 $199 $310 reversed $192 $-1 #
edge $-1 $313 -15.000000000000188 $316 15.000000000000188 $309 $441 forward 7 unknown #
coedge $-1 $304 $200 $205 $319 forward $296 $-1 #
coedge $-1 $200 $304 $298 $432 reversed $296 $-1 #
vertex $-1 $201 $442 #
straight-curve $-1 0 15.000000000000188 48.848480035423698 -1 0 0 I I #
coedge $-1 $202 $299 $204 $318 reversed $132 $-1 #
vertex $-1 $310 $443 #
straight-curve $-1 0 -15.000000000000188 48.848480035423698 1 0 0 I I #
edge $-1 $207 -48.848480035423698 $307 48.848480035423698 $204 $444 forward 7 unknown #
edge $-1 $208 -48.848480035423698 $306 48.848480035423698 $205 $445 forward 7 unknown #
point $-1 50 -15.000000000000188 48.848480035423698 #
point $-1 50 15.000000000000188 48.848480035423698 #
vertex $-1 $211 $446 #
ellipse-curve $-1 0 0 7.500000000000024 0 0 1 7.5 0 0 1 I I #
point $-1 7.5 0 -7.500000000000024 #
vertex $-1 $215 $447 #
ellipse-curve $-1 0 0 7.5000000000000151 0 0 1 5 0 0 1 I I #
point $-1 5 0 -7.5000000000000151 #
face $-1 $-1 $231 $37 $-1 $448 reversed single #
loop $-1 $-1 $449 $218 #
plane-surface $-1 15 0 0 -1 0 0 0 0 1 forward_v I I I I #
coedge $-1 $343 $342 $333 $450 reversed $219 $-1 #
coedge $-1 $451 $221 $223 $337 reversed $150 $-1 #
coedge $-1 $221 $451 $331 $450 forward $150 $-1 #
coedge $-1 $230 $224 $221 $335 reversed $231 $-1 #
edge $-1 $452 -63.416715158604745 $338 -30.719755087757449 $334 $453 forward 7 unknown #
coedge $-1 $223 $222 $454 $455 forward $103 $-1 #
edge $-1 $456 -15 $338 15 $332 $457 forward 7 unknown #
vertex $-1 $225 $458 #
straight-curve $-1 -15 2.0872192862952943e-014 -110.28799021093849 0 -1 0 I I #
coedge $-1 $459 $454 $226 $341 reversed $329 $-1 #
edge $-1 $345 -63.416715158604745 $347 -30.719755087757548 $340 $460 forward 7 unknown #
coedge $-1 $331 $227 $230 $349 forward $219 $-1 #
coedge $-1 $227 $331 $459 $461 forward $219 $-1 #
convexity-sys-attrib $-1 $-1 $-1 $228 #
vertex $-1 $228 $462 #
straight-curve $-1 0 -15.000000000000146 -142.98495028178584 1 0 0 I I #
vertex $-1 $341 $463 #
straight-curve $-1 0 -15.000000000000146 -110.28799021093849 1 0 0 I I #
edge $464 $233 -14.999999999999943 $452 15.000000000000057 $230 $465 forward 7 unknown #
point $-1 -15 -14.999999999999943 -110.28799021093864 #
point $-1 -15 -14.999999999999943 -142.98495028178584 #
face $-1 $-1 $466 $39 $-1 $467 forward single #
plane-surface $-1 -47.696960070847297 3.5527136788005009e-015 32.500000000000071 1 0 0 0 0 -1 forward_v I I I I #
coedge $-1 $245 $468 $247 $370 forward $236 $-1 #
coedge $-1 $469 $238 $468 $470 reversed $158 $-1 #
coedge $-1 $238 $469 $239 $360 forward $158 $-1 #
coedge $-1 $241 $247 $238 $358 reversed $248 $-1 #
edge $-1 $361 -34.522720053135508 $471 -1.8257599822881634 $238 $472 forward 7 unknown #
coedge $-1 $240 $239 $473 $474 reversed $107 $-1 #
edge $-1 $475 0 $361 17.696960070847297 $356 $476 forward 7 unknown #
vertex $-1 $360 $477 #
straight-curve $-1 -47.696960070847297 -3.6859404417555197e-014 48.848480035423698 0 -1 0 I I #
coedge $-1 $473 $478 $243 $364 forward $466 $-1 #
edge $479 $368 1.8257599822881634 $365 34.522720053135508 $243 $480 forward 7 unknown #
vertex $-1 $364 $481 #
straight-curve $-1 -30 15.000000000000188 48.848480035423698 -1 0 0 I I #
coedge $-1 $468 $245 $478 $482 reversed $236 $-1 #
vertex $-1 $482 $483 #
straight-curve $-1 -30 15.000000000000014 16.151519964576352 -1 0 0 I I #
edge $-1 $471 -14.999999999999957 $249 15.000000000000043 $354 $484 forward 7 unknown #
point $-1 -47.696960070847297 15.000000000000014 16.151519964576352 #
point $-1 -47.696960070847297 15.000000000000188 48.848480035423698 #
face $-1 $-1 $485 $41 $-1 $486 reversed single #
plane-surface $-1 47.696960070847297 3.9968028886505635e-015 32.500000000000071 1 0 0 0 0 -1 forward_v I I I I #
coedge $-1 $262 $487 $264 $391 forward $253 $-1 #
coedge $-1 $488 $255 $487 $489 reversed $166 $-1 #
coedge $-1 $255 $488 $256 $381 forward $166 $-1 #
coedge $-1 $258 $264 $255 $379 reversed $265 $-1 #
edge $-1 $382 -34.522720053135508 $490 -1.8257599822881634 $255 $491 forward 7 unknown #
coedge $-1 $257 $256 $492 $493 reversed $111 $-1 #
edge $-1 $494 0 $382 17.696960070847297 $377 $495 forward 7 unknown #
vertex $-1 $381 $496 #
straight-curve $-1 47.696960070847297 -3.6859404417555197e-014 48.848480035423698 0 1 0 I I #
coedge $-1 $492 $497 $260 $385 forward $485 $-1 #
edge $498 $389 1.8257599822881634 $386 34.522720053135508 $260 $499 forward 7 unknown #
vertex $-1 $385 $500 #
straight-curve $-1 30 -15.000000000000188 48.848480035423698 1 0 0 I I #
coedge $-1 $487 $262 $497 $501 reversed $253 $-1 #
vertex $-1 $501 $502 #
straight-curve $-1 30 -14.999999999999986 16.151519964576352 1 0 0 I I #
edge $-1 $490 -15.000000000000043 $266 14.999999999999957 $375 $503 forward 7 unknown #
point $-1 47.696960070847297 -14.999999999999986 16.151519964576352 #
point $-1 47.696960070847297 -15.000000000000188 48.848480035423698 #
model_id-kcp-attrib $-1 $-1 $-1 $270 1 990549444 70 -364511231 8 #
face $504 $290 $505 $11 $-1 $506 forward single #
loop $-1 $-1 $279 $270 #
cone-surface $-1 0 0 0 0 -1 -3.4914813388431298e-015 50 0 0 1 I I 0 1 50 forward I I I I #
coedge $-1 $400 $507 $427 $508 forward $271 $-1 #
coedge $-1 $274 $273 $509 $510 reversed $116 $-1 #
coedge $-1 $407 $398 $273 $401 forward $271 $-1 #
edge $511 $512 -15 $404 15 $400 $513 forward 7 unknown #
coedge $-1 $514 $409 $274 $403 forward $515 $-1 #
edge $-1 $405 -15 $516 15 $402 $517 forward 7 unknown #
vertex $-1 $401 $518 #
vertex $-1 $403 $519 #
straight-curve $-1 15 5.04870979341448e-029 15 0 -1 0 I I #
coedge $-1 $520 $400 $277 $408 forward $271 $-1 #
edge $521 $404 -2.5000000000000995 $413 30.196960070847197 $407 $522 forward 7 unknown #
coedge $-1 $402 $523 $278 $410 forward $515 $-1 #
edge $-1 $414 -30.196960070847297 $405 2.4999999999999005 $409 $524 forward 7 unknown #
coedge $-1 $525 $279 $523 $526 reversed $396 $-1 #
coedge $-1 $279 $525 $520 $527 reversed $396 $-1 #
vertex $-1 $280 $528 #
vertex $-1 $526 $529 #
straight-curve $-1 15 -1.66533046006909e-013 47.696960070847297 0 -1 -3.4914813388431298e-015 I I #
model_id-kcp-attrib $-1 $-1 $-1 $281 1 990549444 70 -364511231 23 #
loop $-1 $-1 $530 $418 #
face $531 $532 $281 $11 $-1 $533 forward single #
convexity-sys-attrib $-1 $-1 $282 $179 #
model_id-kcp-attrib $-1 $-1 $-1 $283 1 990549444 70 -364511231 25 #
point $-1 30 -3.4914813388431201e-014 34.999999999999901 #
coedge $-1 $534 $535 $536 $537 reversed $289 $-1 #
model_id-kcp-attrib $-1 $-1 $-1 $290 1 990549444 70 -364511231 10 #
face $538 $539 $515 $11 $-1 $540 forward single #
plane-surface $-1 -30 4.5438388140730298e-028 35 -1 0 0 0 0 1 forward_v I I I I #
coedge $-1 $509 $293 $514 $541 reversed $188 $-1 #
coedge $-1 $293 $509 $398 $508 reversed $188 $-1 #
coedge $-1 $542 $543 $293 $429 forward $544 $-1 #
edge $-1 $545 -14.999999999999833 $546 14.999999999999966 $428 $547 forward 7 unknown #
plane-surface $-1 50 0 0 -1 0 0 0 0 1 forward_v I I I I #
coedge $-1 $300 $298 $302 $435 reversed $192 $-1 #
edge $-1 $313 -48.848480035423698 $437 48.848480035423698 $312 $548 forward 7 unknown #
vertex $-1 $435 $549 #
straight-curve $-1 -50 -15.000000000000188 0 0 0 -1 I I #
edge $-1 $433 -15.000000000000188 $437 15.000000000000188 $431 $550 forward 7 unknown #
straight-curve $-1 0 -15.000000000000188 -48.848480035423698 -1 0 0 I I #
vertex $-1 $305 $551 #
straight-curve $-1 0 15.000000000000188 -48.848480035423698 1 0 0 I I #
point $-1 50 15.000000000000188 -48.848480035423698 #
point $-1 50 -15.000000000000188 -48.848480035423698 #
straight-curve $-1 -50 0 48.848480035423698 0 -1 0 I I #
point $-1 -50 15.000000000000188 48.848480035423698 #
point $-1 -50 -15.000000000000188 48.848480035423698 #
straight-curve $-1 50 -15.000000000000188 0 0 0 -1 I I #
straight-curve $-1 50 15.000000000000188 0 0 0 -1 I I #
point $-1 7.5 0 7.500000000000024 #
point $-1 5 0 7.5000000000000151 #
plane-surface $-1 -15 0 0 1 0 0 0 0 -1 forward_v I I I I #
coedge $-1 $454 $459 $451 $552 reversed $329 $-1 #
edge $553 $554 -15 $452 15 $331 $555 forward 7 unknown #
coedge $-1 $333 $332 $449 $552 forward $150 $-1 #
vertex $-1 $450 $556 #
straight-curve $-1 -15 15.000000000000231 -79.568235123181097 0 0 1 I I #
coedge $-1 $340 $449 $336 $455 reversed $329 $-1 #
edge $-1 $347 -14.999999999999964 $456 15.000000000000036 $454 $557 forward 7 unknown #
vertex $-1 $455 $558 #
straight-curve $-1 0 15.000000000000231 -110.28799021093849 -1 0 0 I I #
point $-1 -15 14.999999999999858 -110.28799021093855 #
coedge $-1 $449 $340 $343 $461 reversed $329 $-1 #
straight-curve $-1 15 -15.000000000000146 -79.568235123181097 0 0 1 I I #
edge $559 $554 -15.000000000000057 $345 14.999999999999943 $459 $560 forward 7 unknown #
point $-1 15 -14.999999999999943 -142.98495028178584 #
point $-1 15 -14.999999999999943 -110.28799021093864 #
convexity-sys-attrib $-1 $-1 $-1 $349 #
straight-curve $-1 -15 0 -142.98495028178584 0 1 0 I I #
loop $-1 $-1 $478 $352 #
plane-surface $-1 -30 3.5527136788005009e-015 32.500000000000071 1 0 0 0 0 -1 forward_v I I I I #
coedge $-1 $354 $367 $355 $470 forward $236 $-1 #
coedge $-1 $356 $355 $561 $562 reversed $158 $-1 #
edge $-1 $563 0 $471 17.696960070847297 $468 $564 forward 7 unknown #
vertex $-1 $470 $565 #
straight-curve $-1 -47.696960070847297 -15.000000000000188 14.325759982288188 0 0 -1 I I #
coedge $-1 $561 $363 $359 $474 forward $466 $-1 #
edge $566 $365 -15.000000000000226 $475 15.000000000000151 $359 $567 forward 7 unknown #
vertex $-1 $474 $568 #
straight-curve $-1 -30 -15.000000000000188 48.848480035423698 -1 0 0 I I #
point $-1 -47.696960070847297 -15.000000000000188 48.848480035423698 #
coedge $-1 $363 $561 $367 $482 forward $466 $-1 #
convexity-sys-attrib $-1 $-1 $-1 $364 #
straight-curve $-1 -30 15.000000000000188 14.325759982288188 0 0 1 I I #
point $-1 -30 15.000000000000188 48.848480035423698 #
edge $569 $563 -14.999999999999957 $368 15.000000000000043 $367 $570 forward 7 unknown #
point $-1 -30 15.000000000000014 16.151519964576352 #
straight-curve $-1 -47.696960070847297 -2.9309887850104107e-014 16.151519964576352 0 1 0 I I #
loop $-1 $-1 $497 $373 #
plane-surface $-1 30 3.9968028886505635e-015 32.500000000000071 1 0 0 0 0 -1 forward_v I I I I #
coedge $-1 $375 $388 $376 $489 forward $253 $-1 #
coedge $-1 $377 $376 $571 $572 reversed $166 $-1 #
edge $-1 $573 0 $490 17.696960070847297 $487 $574 forward 7 unknown #
vertex $-1 $489 $575 #
straight-curve $-1 47.696960070847297 15.000000000000188 14.325759982288188 0 0 -1 I I #
coedge $-1 $571 $384 $380 $493 forward $485 $-1 #
edge $576 $386 -15.000000000000151 $494 15.000000000000226 $380 $577 forward 7 unknown #
vertex $-1 $493 $578 #
straight-curve $-1 30 15.000000000000188 48.848480035423698 1 0 0 I I #
point $-1 47.696960070847297 15.000000000000188 48.848480035423698 #
coedge $-1 $384 $571 $388 $501 forward $485 $-1 #
convexity-sys-attrib $-1 $-1 $-1 $385 #
straight-curve $-1 30 -15.000000000000188 14.325759982288188 0 0 1 I I #
point $-1 30 -15.000000000000188 48.848480035423698 #
edge $579 $573 -15.000000000000043 $389 14.999999999999957 $388 $580 forward 7 unknown #
point $-1 30 -14.999999999999986 16.151519964576352 #
straight-curve $-1 47.696960070847297 -2.9309887850104107e-014 16.151519964576352 0 -1 0 I I #
model_id-kcp-attrib $-1 $-1 $-1 $395 1 990549444 70 -364511231 9 #
loop $-1 $-1 $581 $395 #
plane-surface $-1 -45 5.04870979341448e-029 15 0 0 1 1 0 0 forward_v I I I I #
coedge $-1 $398 $582 $542 $583 forward $271 $-1 #
edge $584 $546 -30.196960070847197 $512 2.5000000000000995 $398 $585 forward 7 unknown #
coedge $-1 $427 $426 $399 $510 forward $188 $-1 #
edge $-1 $516 -15 $512 15 $509 $586 forward 7 unknown #
attrib_edge_convexity-kcp-attrib $-1 $587 $-1 $401 1 #
vertex $-1 $401 $588 #
straight-curve $-1 0 14.999999999999901 15 1 0 0 I I #
coedge $-1 $589 $402 $426 $541 forward $515 $-1 #
loop $-1 $-1 $514 $424 #
vertex $-1 $403 $590 #
straight-curve $-1 0 -15.000000000000099 15 -1 0 0 I I #
point $-1 15 15 15 #
point $-1 15 -15 15 #
coedge $-1 $591 $407 $412 $527 forward $271 $-1 #
attrib_edge_convexity-kcp-attrib $-1 $592 $-1 $408 1 #
straight-curve $-1 15 14.999999999999901 17.500000000000099 0 -3.4914813388431298e-015 1 I I #
coedge $-1 $409 $593 $411 $526 forward $515 $-1 #
straight-curve $-1 15 -15.000000000000099 17.499999999999901 0 3.4914813388431298e-015 -1 I I #
coedge $-1 $412 $411 $530 $594 forward $396 $-1 #
edge $-1 $595 0.92729521800161285 $414 1.266103672779499 $523 $596 forward 7 unknown #
edge $597 $413 -1.266103672779499 $598 -0.92729521800161163 $520 $599 forward 7 unknown #
point $-1 15 15 47.696960070847297 #
point $-1 15 -15 47.696960070847197 #
coedge $-1 $600 $601 $525 $594 reversed $417 $-1 #
model_id-kcp-attrib $-1 $-1 $-1 $418 1 990549444 70 -364511231 13 #
face $602 $603 $604 $11 $-1 $605 forward single #
plane-surface $-1 30 4.5438388140730298e-028 35 1 0 0 0 0 -1 forward_v I I I I #
coedge $-1 $606 $422 $582 $607 reversed $289 $-1 #
coedge $-1 $422 $606 $608 $609 reversed $289 $-1 #
coedge $-1 $543 $542 $422 $537 forward $544 $-1 #
edge $-1 $610 -15.00000000000014 $611 14.99999999999986 $536 $612 forward 7 unknown #
model_id-kcp-attrib $-1 $-1 $-1 $424 1 990549444 70 -364511231 11 #
face $613 $418 $614 $11 $-1 $397 forward single #
plane-surface $-1 0 -15 -5.2372220082646899e-014 0 -1 -3.4914813388431298e-015 1 0 0 forward_v I I I I #
edge $-1 $516 -2.4999999999999005 $545 30.196960070847297 $514 $615 forward 7 unknown #
coedge $-1 $536 $428 $507 $583 reversed $544 $-1 #
coedge $-1 $428 $536 $589 $616 reversed $544 $-1 #
loop $-1 $-1 $428 $603 #
vertex $-1 $429 $617 #
vertex $-1 $583 $618 #
straight-curve $-1 -15 -1.66533046006909e-013 47.696960070847297 0 1 3.4914813388431298e-015 I I #
straight-curve $-1 -50 15.000000000000188 0 0 0 -1 I I #
point $-1 -50 -15.000000000000188 -48.848480035423698 #
straight-curve $-1 -50 0 -48.848480035423698 0 1 0 I I #
point $-1 -50 15.000000000000188 -48.848480035423698 #
edge $-1 $456 30.719755087757449 $554 63.416715158604745 $449 $619 forward 7 unknown #
convexity-sys-attrib $-1 $-1 $-1 $450 #
vertex $-1 $461 $620 #
straight-curve $-1 0 15.000000000000231 -142.98495028178584 -1 0 0 I I #
point $-1 -15 15.000000000000057 -142.98495028178584 #
straight-curve $-1 15 2.0872192862952943e-014 -110.28799021093849 0 1 0 I I #
point $-1 15 15.000000000000057 -110.28799021093855 #
convexity-sys-attrib $-1 $-1 $-1 $461 #
straight-curve $-1 15 0 -142.98495028178584 0 -1 0 I I #
coedge $-1 $478 $473 $469 $562 forward $466 $-1 #
edge $621 $475 -34.522720053135508 $563 -1.8257599822881634 $469 $622 forward 7 unknown #
vertex $-1 $482 $623 #
straight-curve $-1 -30 -14.999999999999986 16.151519964576352 -1 0 0 I I #
point $-1 -47.696960070847297 -14.999999999999986 16.151519964576352 #
convexity-sys-attrib $-1 $-1 $-1 $474 #
straight-curve $-1 -30 -3.6859404417555197e-014 48.848480035423698 0 -1 0 I I #
point $-1 -30 -15.000000000000188 48.848480035423698 #
convexity-sys-attrib $-1 $-1 $-1 $482 #
straight-curve $-1 -30 -2.9309887850104107e-014 16.151519964576352 0 1 0 I I #
coedge $-1 $497 $492 $488 $572 forward $485 $-1 #
edge $624 $494 -34.522720053135508 $573 -1.8257599822881634 $488 $625 forward 7 unknown #
vertex $-1 $501 $626 #
straight-curve $-1 30 15.000000000000014 16.151519964576352 1 0 0 I I #
point $-1 47.696960070847297 15.000000000000014 16.151519964576352 #
convexity-sys-attrib $-1 $-1 $-1 $493 #
straight-curve $-1 30 -3.6859404417555197e-014 48.848480035423698 0 1 0 I I #
point $-1 30 15.000000000000188 48.848480035423698 #
convexity-sys-attrib $-1 $-1 $-1 $501 #
straight-curve $-1 30 -2.9309887850104107e-014 16.151519964576352 0 -1 0 I I #
coedge $-1 $627 $628 $629 $630 reversed $505 $-1 #
coedge $-1 $507 $631 $534 $607 forward $271 $-1 #
edge $632 $610 -2.2142974355881817 $546 -1.8754889808102944 $507 $599 forward 7 unknown #
attrib_edge_convexity-kcp-attrib $-1 $633 $-1 $508 1 #
straight-curve $-1 -15 14.999999999999901 17.500000000000099 0 3.4914813388431298e-015 -1 I I #
straight-curve $-1 -15 5.04870979341448e-029 15 0 1 0 I I #
convexity-sys-attrib $-1 $-1 $511 $401 #
point $-1 -15 15 15 #
coedge $-1 $608 $514 $543 $616 forward $515 $-1 #
point $-1 -15 -15 15 #
coedge $-1 $634 $520 $601 $635 forward $271 $-1 #
convexity-sys-attrib $-1 $-1 $521 $408 #
coedge $-1 $523 $636 $600 $637 forward $515 $-1 #
edge $-1 $595 -14.99999999999986 $598 15.00000000000014 $525 $638 forward 7 unknown #
vertex $-1 $594 $639 #
ellipse-curve $-1 0 -15 -5.2372220082646899e-014 0 -1 -3.4914813388431298e-015 50 0 0 1 I I #
attrib_edge_convexity-kcp-attrib $-1 $640 $-1 $527 1 #
vertex $-1 $527 $641 #
ellipse-curve $-1 0 15 5.2372220082646899e-014 0 1 3.4914813388431298e-015 50 0 0 1 I I #
coedge $-1 $642 $530 $593 $637 reversed $417 $-1 #
coedge $-1 $530 $642 $591 $635 reversed $417 $-1 #
model_id-kcp-attrib $-1 $-1 $-1 $532 1 990549444 70 -364511231 14 #
face $643 $-1 $544 $11 $-1 $397 forward single #
loop $-1 $-1 $644 $532 #
plane-surface $-1 45 5.04870979341448e-029 15 0 0 1 1 0 0 forward_v I I I I #
coedge $-1 $535 $534 $645 $646 forward $289 $-1 #
edge $647 $648 -2.5000000000000995 $610 22.499999999999901 $582 $649 forward 7 unknown #
coedge $-1 $650 $589 $535 $609 forward $515 $-1 #
edge $-1 $611 -22.500000000000099 $651 2.4999999999999005 $608 $652 forward 7 unknown #
vertex $-1 $607 $653 #
vertex $-1 $616 $654 #
straight-curve $-1 -30 -1.3965925355372501e-013 40 0 -1 -3.4914813388431298e-015 I I #
model_id-kcp-attrib $-1 $-1 $-1 $539 1 990549444 70 -364511231 12 #
loop $-1 $-1 $629 $539 #
straight-curve $-1 -15 -15.000000000000099 17.499999999999901 0 -3.4914813388431298e-015 1 I I #
edge $-1 $545 1.8754889808102944 $611 2.2142974355881804 $589 $596 forward 7 unknown #
point $-1 -15 -15 47.696960070847197 #
point $-1 -15 14.999999999999799 47.696960070847297 #
straight-curve $-1 15 15.000000000000231 -79.568235123181097 0 0 -1 I I #
point $-1 15 15.000000000000057 -142.98495028178584 #
convexity-sys-attrib $-1 $-1 $-1 $562 #
straight-curve $-1 -30 -15.000000000000188 14.325759982288188 0 0 -1 I I #
point $-1 -30 -14.999999999999986 16.151519964576352 #
convexity-sys-attrib $-1 $-1 $-1 $572 #
straight-curve $-1 30 15.000000000000188 14.325759982288188 0 0 -1 I I #
point $-1 30 15.000000000000014 16.151519964576352 #
coedge $-1 $645 $581 $650 $655 reversed $505 $-1 #
coedge $-1 $581 $645 $631 $656 reversed $505 $-1 #
coedge $-1 $657 $658 $581 $630 forward $614 $-1 #
edge $-1 $659 -14.999999999999948 $660 14.999999999999952 $629 $661 forward 7 unknown #
coedge $-1 $582 $662 $628 $656 forward $271 $-1 #
attrib_edge_convexity-kcp-attrib $-1 $663 $-1 $583 1 #
convexity-sys-attrib $-1 $-1 $584 $508 #
coedge $-1 $664 $591 $665 $666 forward $271 $-1 #
edge $667 $598 -22.499999999999901 $668 2.5000000000000995 $591 $669 forward 7 unknown #
coedge $-1 $593 $670 $671 $672 forward $515 $-1 #
edge $-1 $673 -2.4999999999999005 $595 22.500000000000099 $593 $674 forward 7 unknown #
straight-curve $-1 30 -1.3965925355372501e-013 40 0 1 3.4914813388431298e-015 I I #
point $-1 30 -15 40 #
convexity-sys-attrib $-1 $-1 $597 $527 #
point $-1 30 15 40 #
coedge $-1 $601 $600 $675 $676 forward $417 $-1 #
model_id-kcp-attrib $-1 $-1 $-1 $603 1 990549444 70 -364511231 15 #
coedge $-1 $665 $671 $677 $678 reversed $604 $-1 #
coedge $-1 $628 $627 $606 $646 reversed $505 $-1 #
edge $-1 $648 -15 $651 15 $606 $679 forward 7 unknown #
attrib_edge_convexity-kcp-attrib $-1 $680 $-1 $607 1 #
vertex $-1 $656 $681 #
straight-curve $-1 -30 14.999999999999901 17.500000000000099 0 -3.4914813388431298e-015 1 I I #
coedge $-1 $682 $608 $627 $655 forward $515 $-1 #
vertex $-1 $655 $683 #
straight-curve $-1 -30 -15.000000000000099 17.499999999999901 0 3.4914813388431298e-015 -1 I I #
point $-1 -30 15 40 #
point $-1 -30 -15 40 #
edge $-1 $651 7.5 $659 25.196960070847297 $650 $684 forward 7 unknown #
edge $685 $660 -25.196960070847297 $648 -7.5 $631 $686 forward 7 unknown #
coedge $-1 $687 $629 $662 $688 reversed $614 $-1 #
coedge $-1 $629 $689 $682 $690 reversed $614 $-1 #
vertex $-1 $630 $691 #
vertex $-1 $688 $692 #
straight-curve $-1 -47.696960070847297 -5.2372220082646899e-014 15 0 1 3.4914813388431298e-015 I I #
coedge $-1 $631 $664 $657 $688 forward $271 $-1 #
convexity-sys-attrib $-1 $-1 $632 $583 #
coedge $-1 $662 $634 $687 $693 forward $271 $-1 #
coedge $-1 $675 $644 $634 $666 reversed $604 $-1 #
edge $694 $668 7.5 $695 25.196960070847297 $634 $696 forward 7 unknown #
attrib_edge_convexity-kcp-attrib $-1 $697 $-1 $635 1 #
vertex $-1 $666 $698 #
straight-curve $-1 30 14.999999999999901 17.500000000000099 0 3.4914813388431298e-015 -1 I I #
coedge $-1 $636 $682 $689 $699 forward $515 $-1 #
coedge $-1 $644 $675 $636 $672 reversed $604 $-1 #
edge $-1 $700 -25.196960070847297 $673 -7.5 $636 $701 forward 7 unknown #
vertex $-1 $672 $702 #
straight-curve $-1 30 -15.000000000000099 17.499999999999901 0 -3.4914813388431298e-015 1 I I #
coedge $-1 $671 $665 $642 $676 reversed $604 $-1 #
edge $-1 $673 -15 $668 15 $642 $703 forward 7 unknown #
coedge $-1 $689 $687 $644 $678 forward $614 $-1 #
edge $-1 $695 -15.000000000000052 $700 14.999999999999948 $677 $704 forward 7 unknown #
straight-curve $-1 -30 5.04870979341448e-029 15 0 -1 0 I I #
convexity-sys-attrib $-1 $-1 $647 $607 #
point $-1 -30 15 15 #
coedge $-1 $670 $650 $658 $690 forward $515 $-1 #
point $-1 -30 -15 15 #
straight-curve $-1 -22.5 -15.000000000000099 15 -1 0 0 I I #
attrib_edge_convexity-kcp-attrib $-1 $705 $-1 $656 1 #
straight-curve $-1 -22.5 14.999999999999901 15 1 0 0 I I #
coedge $-1 $677 $657 $664 $693 reversed $614 $-1 #
edge $706 $707 0 $660 3.4462853076051894 $662 $599 forward 7 unknown #
coedge $-1 $658 $677 $670 $699 reversed $614 $-1 #
edge $-1 $659 2.8368999995743946 $708 6.2831853071795862 $682 $596 forward 7 unknown #
point $-1 -47.696960070847297 -15 15 #
point $-1 -47.696960070847297 14.999999999999901 15 #
edge $709 $695 -0.30469265401539641 $707 0 $664 $599 forward 7 unknown #
attrib_edge_convexity-kcp-attrib $-1 $710 $-1 $666 1 #
vertex $-1 $678 $711 #
straight-curve $-1 22.5 14.999999999999901 15 1 0 0 I I #
convexity-sys-attrib $-1 $-1 $667 $635 #
point $-1 30 15 15 #
edge $-1 $708 0 $700 0.30469265401539841 $670 $596 forward 7 unknown #
vertex $-1 $699 $712 #
straight-curve $-1 22.5 -15.000000000000099 15 -1 0 0 I I #
point $-1 30 -15 15 #
straight-curve $-1 30 5.04870979341448e-029 15 0 1 0 I I #
straight-curve $-1 47.696960070847297 -5.2372220082646899e-014 15 0 -1 -3.4914813388431298e-015 I I #
convexity-sys-attrib $-1 $-1 $685 $656 #
attrib_edge_convexity-kcp-attrib $-1 $713 $-1 $688 1 #
vertex $-1 $693 $714 #
vertex $-1 $690 $715 #
attrib_edge_convexity-kcp-attrib $-1 $716 $-1 $693 1 #
convexity-sys-attrib $-1 $-1 $694 $666 #
point $-1 47.696960070847297 15 15 #
point $-1 47.696960070847297 -15 15 #
convexity-sys-attrib $-1 $-1 $706 $688 #
point $-1 50 15 5.2372220082646899e-014 #
point $-1 50 -15 -5.2372220082646899e-014 #
convexity-sys-attrib $-1 $-1 $709 $693 #
End-of-ACIS-data 