600 0 1 0           
89 GICL ACIS Healer - Source: /gicl/data5/repository/UMD/swivel2-Part/swivel2-Part.sat - 6 0 18 ACIS 6.0.3 Solaris 24 Sun Apr 14 00:35:47 2002 
1 9.999999999999999547e-07 1.000000000000000036e-10 
body $-1 $1 $-1 $-1 #
lump $-1 $-1 $2 $0 #
shell $-1 $-1 $-1 $3 $-1 $1 #
face $-1 $4 $5 $2 $-1 $6 reversed single #
face $-1 $7 $8 $2 $-1 $9 reversed single #
loop $-1 $10 $11 $3 #
cone-surface $-1 -25 1.009741958682900043e-28 30 1 1.401298464324820058e-44 -3.491481338843129805e-15 -2.618611004132350016e-14 -2.524354896707240019e-29 -7.5 1 I I 0 1 7.5 forward I I I I #
face $-1 $12 $13 $2 $-1 $14 forward single #
loop $-1 $15 $16 $4 #
cone-surface $-1 0 1.009741958682900043e-28 30 1 1.401298464324820058e-44 -3.491481338843129805e-15 -1.745740669421570149e-14 -5.364254155502880277e-29 -5 1 I I 0 1 5 forward I I I I #
loop $-1 $-1 $17 $3 #
coedge $-1 $11 $11 $18 $19 reversed $5 $-1 #
face $-1 $20 $21 $2 $-1 $22 forward single #
loop $-1 $23 $24 $7 #
plane-surface $-1 15 4.543838814073029793e-28 35 -1 0 0 0 0 1 forward_v I I I I #
loop $-1 $-1 $25 $4 #
coedge $-1 $16 $16 $24 $26 reversed $8 $-1 #
coedge $-1 $17 $17 $27 $28 reversed $10 $-1 #
coedge $-1 $18 $18 $11 $19 forward $29 $-1 #
edge $-1 $30 -3.141592653589799777 $30 3.141592653589786455 $18 $31 forward 7 unknown #
face $-1 $32 $29 $2 $-1 $33 forward single #
loop $-1 $-1 $34 $12 #
plane-surface $-1 0 5.048709793414480039e-29 15 0 0 1 1 0 0 forward_v I I I I #
loop $-1 $-1 $35 $7 #
coedge $-1 $24 $24 $16 $26 forward $13 $-1 #
coedge $-1 $25 $25 $36 $37 reversed $15 $-1 #
edge $-1 $38 -3.141592653589799777 $38 3.141592653589786455 $24 $39 forward 7 unknown #
coedge $-1 $27 $27 $17 $28 forward $40 $-1 #
edge $-1 $41 -3.141592653589799777 $41 3.141592653589786455 $27 $42 forward 7 unknown #
loop $-1 $43 $18 $20 #
vertex $-1 $19 $44 #
ellipse-curve $-1 -15 1.009741958682900043e-28 30 -1 0 0 -2.618611004132350016e-14 -2.524354896707240019e-29 -7.5 1 I I #
face $-1 $45 $46 $2 $-1 $47 forward single #
plane-surface $-1 -15 4.543838814073029793e-28 35 1 0 0 0 0 -1 forward_v I I I I #
coedge $-1 $48 $49 $50 $51 reversed $21 $-1 #
coedge $-1 $52 $53 $54 $55 reversed $23 $-1 #
coedge $-1 $36 $36 $25 $37 forward $56 $-1 #
edge $-1 $57 -3.141592653589799777 $57 3.141592653589786455 $36 $58 forward 7 unknown #
vertex $-1 $26 $59 #
ellipse-curve $-1 15 4.543838814073029793e-28 29.99999999999990052 1 0 0 -1.745740669421570149e-14 -5.364254155502880277e-29 -5 1 I I #
loop $-1 $60 $27 $61 #
vertex $-1 $28 $62 #
ellipse-curve $-1 -30 1.009741958682900043e-28 30 1 0 0 -2.618611004132350016e-14 -2.524354896707240019e-29 -7.5 1 I I #
loop $-1 $-1 $63 $20 #
point $-1 -15 -5.237222008264689935e-14 37.5 #
face $-1 $64 $65 $2 $-1 $66 forward single #
loop $-1 $-1 $67 $32 #
plane-surface $-1 0 15 5.237222008264689935e-14 0 1 3.491481338843129805e-15 -1 -0 0 forward_v I I I I #
coedge $-1 $68 $34 $69 $70 reversed $21 $-1 #
coedge $-1 $34 $68 $71 $72 reversed $21 $-1 #
coedge $-1 $53 $52 $34 $51 forward $23 $-1 #
edge $-1 $73 -15 $74 15 $50 $75 forward 7 unknown #
coedge $-1 $50 $35 $76 $77 reversed $23 $-1 #
coedge $-1 $35 $50 $78 $79 reversed $23 $-1 #
coedge $-1 $80 $81 $35 $55 forward $65 $-1 #
edge $-1 $82 -15.00000000000016698 $83 14.99999999999983302 $54 $84 forward 7 unknown #
loop $-1 $85 $36 $86 #
vertex $-1 $37 $87 #
ellipse-curve $-1 30 4.543838814073029793e-28 29.99999999999990052 -1 0 0 -1.745740669421570149e-14 -5.364254155502880277e-29 -5 1 I I #
point $-1 15 3.491481338843180056e-14 34.99999999999990052 #
loop $-1 $-1 $88 $61 #
face $-1 $89 $40 $2 $-1 $90 forward single #
point $-1 -30 5.237222008264759986e-14 37.5 #
coedge $-1 $91 $92 $93 $94 reversed $43 $-1 #
face $-1 $61 $95 $2 $-1 $96 forward single #
loop $-1 $-1 $54 $45 #
cone-surface $-1 0 0 0 0 -1 -3.491481338843129805e-15 50 0 0 1 I I 0 1 50 forward I I I I #
coedge $-1 $69 $97 $92 $98 forward $46 $-1 #
coedge $-1 $49 $48 $99 $100 reversed $21 $-1 #
coedge $-1 $76 $67 $48 $70 forward $46 $-1 #
edge $-1 $101 -15 $73 15 $69 $102 forward 7 unknown #
coedge $-1 $103 $78 $49 $72 forward $104 $-1 #
edge $-1 $74 -15 $105 15 $71 $106 forward 7 unknown #
vertex $-1 $70 $107 #
vertex $-1 $72 $108 #
straight-curve $-1 15 5.048709793414480039e-29 15 0 -1 0 I I #
coedge $-1 $109 $69 $52 $77 forward $46 $-1 #
edge $-1 $73 -2.500000000000099476 $82 30.19696007084719724 $76 $110 forward 7 unknown #
coedge $-1 $71 $111 $53 $79 forward $104 $-1 #
edge $-1 $83 -30.19696007084729672 $74 2.499999999999900524 $78 $112 forward 7 unknown #
coedge $-1 $113 $54 $111 $114 reversed $65 $-1 #
coedge $-1 $54 $113 $109 $115 reversed $65 $-1 #
vertex $-1 $55 $116 #
vertex $-1 $114 $117 #
straight-curve $-1 15 -1.665330460069090005e-13 47.69696007084729672 0 -1 -3.491481338843129805e-15 I I #
loop $-1 $-1 $118 $86 #
face $-1 $119 $56 $2 $-1 $120 forward single #
point $-1 30 -3.491481338843120102e-14 34.99999999999990052 #
coedge $-1 $121 $122 $123 $124 reversed $60 $-1 #
face $-1 $125 $104 $2 $-1 $126 forward single #
plane-surface $-1 -30 4.543838814073029793e-28 35 -1 0 0 0 0 1 forward_v I I I I #
coedge $-1 $99 $63 $103 $127 reversed $43 $-1 #
coedge $-1 $63 $99 $67 $98 reversed $43 $-1 #
coedge $-1 $128 $129 $63 $94 forward $130 $-1 #
edge $-1 $131 -14.99999999999983302 $132 14.99999999999996625 $93 $133 forward 7 unknown #
loop $-1 $-1 $134 $64 #
plane-surface $-1 -45 5.048709793414480039e-29 15 0 0 1 1 0 0 forward_v I I I I #
coedge $-1 $67 $135 $128 $136 forward $46 $-1 #
edge $-1 $132 -30.19696007084719724 $101 2.500000000000099476 $67 $137 forward 7 unknown #
coedge $-1 $92 $91 $68 $100 forward $43 $-1 #
edge $-1 $105 -15 $101 15 $99 $138 forward 7 unknown #
vertex $-1 $70 $139 #
straight-curve $-1 0 14.99999999999990052 15 1 0 0 I I #
coedge $-1 $140 $71 $91 $127 forward $104 $-1 #
loop $-1 $-1 $103 $89 #
vertex $-1 $72 $141 #
straight-curve $-1 0 -15.00000000000009948 15 -1 -0 0 I I #
point $-1 15 15 15 #
point $-1 15 -15 15 #
coedge $-1 $142 $76 $81 $115 forward $46 $-1 #
straight-curve $-1 15 14.99999999999990052 17.50000000000009948 0 -3.491481338843129805e-15 1 I I #
coedge $-1 $78 $143 $80 $114 forward $104 $-1 #
straight-curve $-1 15 -15.00000000000009948 17.49999999999990052 0 3.491481338843129805e-15 -1 I I #
coedge $-1 $81 $80 $118 $144 forward $65 $-1 #
edge $-1 $145 0.9272952180016128532 $83 1.266103672779498979 $111 $146 forward 7 unknown #
edge $-1 $82 -1.266103672779498979 $147 -0.9272952180016116319 $109 $148 forward 7 unknown #
point $-1 15 15 47.69696007084729672 #
point $-1 15 -15 47.69696007084719724 #
coedge $-1 $149 $150 $113 $144 reversed $85 $-1 #
face $-1 $151 $152 $2 $-1 $153 forward single #
plane-surface $-1 30 4.543838814073029793e-28 35 1 0 0 0 0 -1 forward_v I I I I #
coedge $-1 $154 $88 $135 $155 reversed $60 $-1 #
coedge $-1 $88 $154 $156 $157 reversed $60 $-1 #
coedge $-1 $129 $128 $88 $124 forward $130 $-1 #
edge $-1 $158 -15.00000000000014033 $159 14.99999999999985967 $123 $160 forward 7 unknown #
face $-1 $86 $161 $2 $-1 $66 forward single #
plane-surface $-1 0 -15 -5.237222008264689935e-14 0 -1 -3.491481338843129805e-15 1 0 0 forward_v I I I I #
edge $-1 $105 -2.499999999999900524 $131 30.19696007084729672 $103 $162 forward 7 unknown #
coedge $-1 $123 $93 $97 $136 reversed $130 $-1 #
coedge $-1 $93 $123 $140 $163 reversed $130 $-1 #
loop $-1 $-1 $93 $151 #
vertex $-1 $94 $164 #
vertex $-1 $136 $165 #
straight-curve $-1 -15 -1.665330460069090005e-13 47.69696007084729672 -0 1 3.491481338843129805e-15 I I #
coedge $-1 $166 $167 $168 $169 reversed $95 $-1 #
coedge $-1 $97 $170 $121 $155 forward $46 $-1 #
edge $-1 $158 -2.214297435588181706 $132 -1.875488980810294359 $97 $148 forward 7 unknown #
straight-curve $-1 -15 14.99999999999990052 17.50000000000009948 0 3.491481338843129805e-15 -1 I I #
straight-curve $-1 -15 5.048709793414480039e-29 15 0 1 0 I I #
point $-1 -15 15 15 #
coedge $-1 $156 $103 $129 $163 forward $104 $-1 #
point $-1 -15 -15 15 #
coedge $-1 $171 $109 $150 $172 forward $46 $-1 #
coedge $-1 $111 $173 $149 $174 forward $104 $-1 #
edge $-1 $145 -14.99999999999985967 $147 15.00000000000014033 $113 $175 forward 7 unknown #
vertex $-1 $144 $176 #
ellipse-curve $-1 0 -15 -5.237222008264689935e-14 0 -1 -3.491481338843129805e-15 50 0 0 1 I I #
vertex $-1 $115 $177 #
ellipse-curve $-1 0 15 5.237222008264689935e-14 0 1 3.491481338843129805e-15 50 0 0 1 I I #
coedge $-1 $178 $118 $143 $174 reversed $85 $-1 #
coedge $-1 $118 $178 $142 $172 reversed $85 $-1 #
face $-1 $-1 $130 $2 $-1 $66 forward single #
loop $-1 $-1 $179 $119 #
plane-surface $-1 45 5.048709793414480039e-29 15 0 0 1 1 0 0 forward_v I I I I #
coedge $-1 $122 $121 $180 $181 forward $60 $-1 #
edge $-1 $182 -2.500000000000099476 $158 22.49999999999990052 $135 $183 forward 7 unknown #
coedge $-1 $184 $140 $122 $157 forward $104 $-1 #
edge $-1 $159 -22.50000000000009948 $185 2.499999999999900524 $156 $186 forward 7 unknown #
vertex $-1 $155 $187 #
vertex $-1 $163 $188 #
straight-curve $-1 -30 -1.39659253553725006e-13 40 0 -1 -3.491481338843129805e-15 I I #
loop $-1 $-1 $168 $125 #
straight-curve $-1 -15 -15.00000000000009948 17.49999999999990052 0 -3.491481338843129805e-15 1 I I #
edge $-1 $131 1.875488980810294359 $159 2.214297435588180374 $140 $146 forward 7 unknown #
point $-1 -15 -15 47.69696007084719724 #
point $-1 -15 14.99999999999979927 47.69696007084729672 #
coedge $-1 $180 $134 $184 $189 reversed $95 $-1 #
coedge $-1 $134 $180 $170 $190 reversed $95 $-1 #
coedge $-1 $191 $192 $134 $169 forward $161 $-1 #
edge $-1 $193 -14.99999999999994849 $194 14.99999999999995204 $168 $195 forward 7 unknown #
coedge $-1 $135 $196 $167 $190 forward $46 $-1 #
coedge $-1 $197 $142 $198 $199 forward $46 $-1 #
edge $-1 $147 -22.49999999999990052 $200 2.500000000000099476 $142 $201 forward 7 unknown #
coedge $-1 $143 $202 $203 $204 forward $104 $-1 #
edge $-1 $205 -2.499999999999900524 $145 22.50000000000009948 $143 $206 forward 7 unknown #
straight-curve $-1 30 -1.39659253553725006e-13 40 -0 1 3.491481338843129805e-15 I I #
point $-1 30 -15 40 #
point $-1 30 15 40 #
coedge $-1 $150 $149 $207 $208 forward $85 $-1 #
coedge $-1 $198 $203 $209 $210 reversed $152 $-1 #
coedge $-1 $167 $166 $154 $181 reversed $95 $-1 #
edge $-1 $182 -15 $185 15 $154 $211 forward 7 unknown #
vertex $-1 $190 $212 #
straight-curve $-1 -30 14.99999999999990052 17.50000000000009948 0 -3.491481338843129805e-15 1 I I #
coedge $-1 $213 $156 $166 $189 forward $104 $-1 #
vertex $-1 $189 $214 #
straight-curve $-1 -30 -15.00000000000009948 17.49999999999990052 0 3.491481338843129805e-15 -1 I I #
point $-1 -30 15 40 #
point $-1 -30 -15 40 #
edge $-1 $185 7.5 $193 25.19696007084729672 $184 $215 forward 7 unknown #
edge $-1 $194 -25.19696007084729672 $182 -7.5 $170 $216 forward 7 unknown #
coedge $-1 $217 $168 $196 $218 reversed $161 $-1 #
coedge $-1 $168 $219 $213 $220 reversed $161 $-1 #
vertex $-1 $169 $221 #
vertex $-1 $218 $222 #
straight-curve $-1 -47.69696007084729672 -5.237222008264689935e-14 15 -0 1 3.491481338843129805e-15 I I #
coedge $-1 $170 $197 $191 $218 forward $46 $-1 #
coedge $-1 $196 $171 $217 $223 forward $46 $-1 #
coedge $-1 $207 $179 $171 $199 reversed $152 $-1 #
edge $-1 $200 7.5 $224 25.19696007084729672 $171 $225 forward 7 unknown #
vertex $-1 $199 $226 #
straight-curve $-1 30 14.99999999999990052 17.50000000000009948 0 3.491481338843129805e-15 -1 I I #
coedge $-1 $173 $213 $219 $227 forward $104 $-1 #
coedge $-1 $179 $207 $173 $204 reversed $152 $-1 #
edge $-1 $228 -25.19696007084729672 $205 -7.5 $173 $229 forward 7 unknown #
vertex $-1 $204 $230 #
straight-curve $-1 30 -15.00000000000009948 17.49999999999990052 0 -3.491481338843129805e-15 1 I I #
coedge $-1 $203 $198 $178 $208 reversed $152 $-1 #
edge $-1 $205 -15 $200 15 $178 $231 forward 7 unknown #
coedge $-1 $219 $217 $179 $210 forward $161 $-1 #
edge $-1 $224 -15.00000000000005151 $228 14.99999999999994849 $209 $232 forward 7 unknown #
straight-curve $-1 -30 5.048709793414480039e-29 15 0 -1 0 I I #
point $-1 -30 15 15 #
coedge $-1 $202 $184 $192 $220 forward $104 $-1 #
point $-1 -30 -15 15 #
straight-curve $-1 -22.5 -15.00000000000009948 15 -1 -0 0 I I #
straight-curve $-1 -22.5 14.99999999999990052 15 1 0 0 I I #
coedge $-1 $209 $191 $197 $223 reversed $161 $-1 #
edge $-1 $233 0 $194 3.446285307605189363 $196 $148 forward 7 unknown #
coedge $-1 $192 $209 $202 $227 reversed $161 $-1 #
edge $-1 $193 2.836899999574394649 $234 6.283185307179586232 $213 $146 forward 7 unknown #
point $-1 -47.69696007084729672 -15 15 #
point $-1 -47.69696007084729672 14.99999999999990052 15 #
edge $-1 $224 -0.3046926540153964136 $233 0 $197 $148 forward 7 unknown #
vertex $-1 $210 $235 #
straight-curve $-1 22.5 14.99999999999990052 15 1 0 0 I I #
point $-1 30 15 15 #
edge $-1 $234 0 $228 0.304692654015398412 $202 $146 forward 7 unknown #
vertex $-1 $227 $236 #
straight-curve $-1 22.5 -15.00000000000009948 15 -1 -0 0 I I #
point $-1 30 -15 15 #
straight-curve $-1 30 5.048709793414480039e-29 15 0 1 0 I I #
straight-curve $-1 47.69696007084729672 -5.237222008264689935e-14 15 0 -1 -3.491481338843129805e-15 I I #
vertex $-1 $223 $237 #
vertex $-1 $220 $238 #
point $-1 47.69696007084729672 15 15 #
point $-1 47.69696007084729672 -15 15 #
point $-1 50 15 5.237222008264689935e-14 #
point $-1 50 -15 -5.237222008264689935e-14 #
End-of-ACIS-data 