  0
SECTION
  2
HEADER
  9
$ACADVER
  1
AC1009
  9
$INSBASE
 10
0.0
 20
0.0
 30
0.0
  9
$EXTMIN
 10
0.0
 20
0.0
 30
0.0
  9
$EXTMAX
 10
4.0
 20
4.0
 30
4.0
  9
$LIMMIN
 10
0.0
 20
0.0
  9
$LIMMAX
 10
12.0
 20
9.0
  9
$ORTHOMODE
 70
     0
  9
$REGENMODE
 70
     1
  9
$FILLMODE
 70
     1
  9
$QTEXTMODE
 70
     0
  9
$MIRRTEXT
 70
     1
  9
$DRAGMODE
 70
     2
  9
$LTSCALE
 40
1.0
  9
$OSMODE
 70
     0
  9
$ATTMODE
 70
     1
  9
$TEXTSIZE
 40
0.2
  9
$TRACEWID
 40
0.05
  9
$TEXTSTYLE
  7
STANDARD
  9
$CLAYER
  8
0
  9
$CELTYPE
  6
BYLAYER
  9
$CECOLOR
 62
   256
  9
$DIMSCALE
 40
1.0
  9
$DIMASZ
 40
0.18
  9
$DIMEXO
 40
0.0625
  9
$DIMDLI
 40
0.38
  9
$DIMRND
 40
0.0
  9
$DIMDLE
 40
0.0
  9
$DIMEXE
 40
0.18
  9
$DIMTP
 40
0.0
  9
$DIMTM
 40
0.0
  9
$DIMTXT
 40
0.18
  9
$DIMCEN
 40
0.09
  9
$DIMTSZ
 40
0.0
  9
$DIMTOL
 70
     0
  9
$DIMLIM
 70
     0
  9
$DIMTIH
 70
     1
  9
$DIMTOH
 70
     1
  9
$DIMSE1
 70
     0
  9
$DIMSE2
 70
     0
  9
$DIMTAD
 70
     0
  9
$DIMZIN
 70
     0
  9
$DIMBLK
  1

  9
$DIMASO
 70
     1
  9
$DIMSHO
 70
     1
  9
$DIMPOST
  1

  9
$DIMAPOST
  1

  9
$DIMALT
 70
     0
  9
$DIMALTD
 70
     2
  9
$DIMALTF
 40
25.4
  9
$DIMLFAC
 40
1.0
  9
$DIMTOFL
 70
     0
  9
$DIMTVP
 40
0.0
  9
$DIMTIX
 70
     0
  9
$DIMSOXD
 70
     0
  9
$DIMSAH
 70
     0
  9
$DIMBLK1
  1

  9
$DIMBLK2
  1

  9
$DIMSTYLE
  2
*UNNAMED
  9
$DIMCLRD
 70
     0
  9
$DIMCLRE
 70
     0
  9
$DIMCLRT
 70
     0
  9
$DIMTFAC
 40
1.0
  9
$DIMGAP
 40
0.09
  9
$LUNITS
 70
     2
  9
$LUPREC
 70
     4
  9
$SKETCHINC
 40
0.1
  9
$FILLETRAD
 40
0.0
  9
$AUNITS
 70
     0
  9
$AUPREC
 70
     0
  9
$MENU
  1
acad
  9
$ELEVATION
 40
0.0
  9
$PELEVATION
 40
0.0
  9
$THICKNESS
 40
0.0
  9
$LIMCHECK
 70
     0
  9
$BLIPMODE
 70
     1
  9
$CHAMFERA
 40
0.0
  9
$CHAMFERB
 40
0.0
  9
$SKPOLY
 70
     0
  9
$TDCREATE
 40
2449254.511894907
  9
$TDUPDATE
 40
2449254.511894907
  9
$TDINDWG
 40
0.0000000000
  9
$TDUSRTIMER
 40
0.0000000000
  9
$USRTIMER
 70
     1
  9
$ANGBASE
 50
0.0
  9
$ANGDIR
 70
     0
  9
$PDMODE
 70
     0
  9
$PDSIZE
 40
0.0
  9
$PLINEWID
 40
0.0
  9
$COORDS
 70
     0
  9
$SPLFRAME
 70
     0
  9
$SPLINETYPE
 70
     6
  9
$SPLINESEGS
 70
     8
  9
$ATTDIA
 70
     0
  9
$ATTREQ
 70
     1
  9
$HANDLING
 70
     1
  9
$HANDSEED
  5
44
  9
$SURFTAB1
 70
     6
  9
$SURFTAB2
 70
     6
  9
$SURFTYPE
 70
     6
  9
$SURFU
 70
     6
  9
$SURFV
 70
     6
  9
$UCSNAME
  2

  9
$UCSORG
 10
0.0
 20
0.0
 30
0.0
  9
$UCSXDIR
 10
1.0
 20
0.0
 30
0.0
  9
$UCSYDIR
 10
0.0
 20
1.0
 30
0.0
  9
$PUCSNAME
  2

  9
$PUCSORG
 10
0.0
 20
0.0
 30
0.0
  9
$PUCSXDIR
 10
1.0
 20
0.0
 30
0.0
  9
$PUCSYDIR
 10
0.0
 20
1.0
 30
0.0
  9
$USERI1
 70
     0
  9
$USERI2
 70
     0
  9
$USERI3
 70
     0
  9
$USERI4
 70
     0
  9
$USERI5
 70
     0
  9
$USERR1
 40
0.0
  9
$USERR2
 40
0.0
  9
$USERR3
 40
0.0
  9
$USERR4
 40
0.0
  9
$USERR5
 40
0.0
  9
$WORLDVIEW
 70
     1
  9
$SHADEDGE
 70
     3
  9
$SHADEDIF
 70
    70
  9
$TILEMODE
 70
     1
  9
$MAXACTVP
 70
    16
  9
$PINSBASE
 10
0.0
 20
0.0
 30
0.0
  9
$PLIMCHECK
 70
     0
  9
$PEXTMIN
 10
1.000000E+20
 20
1.000000E+20
 30
1.000000E+20
  9
$PEXTMAX
 10
-1.000000E+20
 20
-1.000000E+20
 30
-1.000000E+20
  9
$PLIMMIN
 10
0.0
 20
0.0
  9
$PLIMMAX
 10
12.0
 20
9.0
  9
$UNITMODE
 70
     0
  9
$VISRETAIN
 70
     0
  9
$PLINEGEN
 70
     0
  9
$PSLTSCALE
 70
     0
  9
$TREEDEPTH
 70
  3020
  9
$DWGCODEPAGE
  3
undefined
  0
ENDSEC
  0
SECTION
  2
TABLES
  0
TABLE
  2
VPORT
 70
     2
  0
VPORT
  2
*ACTIVE
 70
     0
 10
0.0
 20
0.0
 11
1.0
 21
1.0
 12
7.176972
 22
4.5
 13
0.0
 23
0.0
 14
1.0
 24
1.0
 15
0.0
 25
0.0
 16
0.0
 26
0.0
 36
1.0
 17
0.0
 27
0.0
 37
0.0
 40
9.0
 41
1.594883
 42
50.0
 43
0.0
 44
0.0
 50
0.0
 51
0.0
 71
     0
 72
   100
 73
     1
 74
     1
 75
     0
 76
     0
 77
     0
 78
     0
  0
ENDTAB
  0
TABLE
  2
LTYPE
 70
     1
  0
LTYPE
  2
CONTINUOUS
 70
    64
  3
Solid line
 72
    65
 73
     0
 40
0.0
  0
ENDTAB
  0
TABLE
  2
LAYER
 70
     2
  0
LAYER
  2
0
 70
    64
 62
     7
  6
CONTINUOUS
  0
LAYER
  2
AME_FRZ
 70
    65
 62
     7
  6
CONTINUOUS
  0
ENDTAB
  0
TABLE
  2
STYLE
 70
     1
  0
STYLE
  2
STANDARD
 70
     0
 40
0.0
 41
1.0
 50
0.0
 71
     0
 42
0.2
  3
txt
  4

  0
ENDTAB
  0
TABLE
  2
VIEW
 70
     0
  0
ENDTAB
  0
TABLE
  2
UCS
 70
     0
  0
ENDTAB
  0
TABLE
  2
APPID
 70
     2
  0
APPID
  2
ACAD
 70
    64
  0
APPID
  2
AME_SOL
 70
    64
  0
ENDTAB
  0
TABLE
  2
DIMSTYLE
 70
     0
  0
ENDTAB
  0
ENDSEC
  0
SECTION
  2
BLOCKS
  0
BLOCK
  8
0
  5
1
  2
AME_NIL
 70
    64
 10
0.0
 20
0.0
 30
0.0
  1
AME_NIL
  3
AME_NIL
  0
ENDBLK
  8
0
  5
2
  0
BLOCK
  8
0
  5
4
  2
AME_SOL
 70
    64
 10
0.0
 20
0.0
 30
0.0
  1
AME_SOL
  3
AME_SOL
  0
ENDBLK
  8
0
  5
5
  0
BLOCK
  8
0
  5
7
  2
*U2
 70
    65
 10
0.0
 20
0.0
 30
0.0
  1
*U
  3
*U
  0
LINE
  8
0
 62
     0
  5
8
 10
4.0
 20
4.0
 30
0.0
 11
4.0
 21
4.0
 31
4.0
1001
AME_SOL
1070
     1
1071
       18
  0
LINE
  8
0
 62
     0
  5
9
 10
4.0
 20
4.0
 30
4.0
 11
4.0
 21
0.0
 31
4.0
1001
AME_SOL
1070
     1
1071
       17
  0
LINE
  8
0
 62
     0
  5
A
 10
0.0
 20
4.0
 30
4.0
 11
4.0
 21
4.0
 31
4.0
1001
AME_SOL
1070
     1
1071
       16
  0
LINE
  8
0
 62
     0
  5
B
 10
0.0
 20
4.0
 30
0.0
 11
0.0
 21
4.0
 31
4.0
1001
AME_SOL
1070
     1
1071
       15
  0
LINE
  8
0
 62
     0
  5
C
 10
0.0
 20
4.0
 30
4.0
 11
0.0
 21
0.0
 31
4.0
1001
AME_SOL
1070
     1
1071
       14
  0
LINE
  8
0
 62
     0
  5
D
 10
0.0
 20
0.0
 30
0.0
 11
0.0
 21
0.0
 31
4.0
1001
AME_SOL
1070
     1
1071
       13
  0
LINE
  8
0
 62
     0
  5
E
 10
4.0
 20
0.0
 30
4.0
 11
4.0
 21
0.0
 31
0.0
1001
AME_SOL
1070
     1
1071
       12
  0
LINE
  8
0
 62
     0
  5
F
 10
0.0
 20
0.0
 30
4.0
 11
4.0
 21
0.0
 31
4.0
1001
AME_SOL
1070
     1
1071
       11
  0
LINE
  8
0
 62
     0
  5
10
 10
0.0
 20
0.0
 30
0.0
 11
4.0
 21
0.0
 31
0.0
1001
AME_SOL
1070
     1
1071
       10
  0
LINE
  8
0
 62
     0
  5
11
 10
0.0
 20
4.0
 30
0.0
 11
0.0
 21
0.0
 31
0.0
1001
AME_SOL
1070
     1
1071
        9
  0
LINE
  8
0
 62
     0
  5
12
 10
4.0
 20
0.0
 30
0.0
 11
4.0
 21
4.0
 31
0.0
1001
AME_SOL
1070
     1
1071
        8
  0
LINE
  8
0
 62
     0
  5
13
 10
4.0
 20
4.0
 30
0.0
 11
0.0
 21
4.0
 31
0.0
1001
AME_SOL
1070
     1
1071
        7
  0
ENDBLK
  8
0
  5
14
  0
BLOCK
  8
0
  5
18
  2
*U3
 70
    65
 10
0.0
 20
0.0
 30
0.0
  1
*U
  3
*U
  0
LINE
  8
0
 62
     0
  5
19
 10
2.0
 20
2.0
 30
0.0
 11
2.0
 21
2.0
 31
4.0
1001
AME_SOL
1070
     1
1071
       18
  0
LINE
  8
0
 62
     0
  5
1A
 10
2.0
 20
2.0
 30
4.0
 11
2.0
 21
0.0
 31
4.0
1001
AME_SOL
1070
     1
1071
       17
  0
LINE
  8
0
 62
     0
  5
1B
 10
0.0
 20
2.0
 30
4.0
 11
2.0
 21
2.0
 31
4.0
1001
AME_SOL
1070
     1
1071
       16
  0
LINE
  8
0
 62
     0
  5
1C
 10
0.0
 20
2.0
 30
0.0
 11
0.0
 21
2.0
 31
4.0
1001
AME_SOL
1070
     1
1071
       15
  0
LINE
  8
0
 62
     0
  5
1D
 10
0.0
 20
2.0
 30
4.0
 11
0.0
 21
0.0
 31
4.0
1001
AME_SOL
1070
     1
1071
       14
  0
LINE
  8
0
 62
     0
  5
1E
 10
0.0
 20
0.0
 30
0.0
 11
0.0
 21
0.0
 31
4.0
1001
AME_SOL
1070
     1
1071
       13
  0
LINE
  8
0
 62
     0
  5
1F
 10
2.0
 20
0.0
 30
4.0
 11
2.0
 21
0.0
 31
0.0
1001
AME_SOL
1070
     1
1071
       12
  0
LINE
  8
0
 62
     0
  5
20
 10
0.0
 20
0.0
 30
4.0
 11
2.0
 21
0.0
 31
4.0
1001
AME_SOL
1070
     1
1071
       11
  0
LINE
  8
0
 62
     0
  5
21
 10
0.0
 20
0.0
 30
0.0
 11
2.0
 21
0.0
 31
0.0
1001
AME_SOL
1070
     1
1071
       10
  0
LINE
  8
0
 62
     0
  5
22
 10
0.0
 20
2.0
 30
0.0
 11
0.0
 21
0.0
 31
0.0
1001
AME_SOL
1070
     1
1071
        9
  0
LINE
  8
0
 62
     0
  5
23
 10
2.0
 20
0.0
 30
0.0
 11
2.0
 21
2.0
 31
0.0
1001
AME_SOL
1070
     1
1071
        8
  0
LINE
  8
0
 62
     0
  5
24
 10
2.0
 20
2.0
 30
0.0
 11
0.0
 21
2.0
 31
0.0
1001
AME_SOL
1070
     1
1071
        7
  0
ENDBLK
  8
0
  5
25
  0
BLOCK
  8
0
  5
2A
  2
*U4
 70
    65
 10
0.0
 20
0.0
 30
0.0
  1
*U
  3
*U
  0
LINE
  8
0
 62
     7
  5
2B
 10
4.0
 20
2.0
 30
4.0
 11
4.0
 21
0.0
 31
4.0
1001
AME_SOL
1070
     1
1071
       26
  0
LINE
  8
0
 62
     7
  5
2C
 10
0.0
 20
4.0
 30
4.0
 11
2.0
 21
4.0
 31
4.0
1001
AME_SOL
1070
     1
1071
       25
  0
LINE
  8
0
 62
     7
  5
2D
 10
0.0
 20
4.0
 30
0.0
 11
0.0
 21
4.0
 31
4.0
1001
AME_SOL
1070
     1
1071
       24
  0
LINE
  8
0
 62
     7
  5
2E
 10
0.0
 20
4.0
 30
4.0
 11
0.0
 21
0.0
 31
4.0
1001
AME_SOL
1070
     1
1071
       23
  0
LINE
  8
0
 62
     7
  5
2F
 10
0.0
 20
0.0
 30
0.0
 11
0.0
 21
0.0
 31
4.0
1001
AME_SOL
1070
     1
1071
       22
  0
LINE
  8
0
 62
     7
  5
30
 10
4.0
 20
0.0
 30
4.0
 11
4.0
 21
0.0
 31
0.0
1001
AME_SOL
1070
     1
1071
       21
  0
LINE
  8
0
 62
     7
  5
31
 10
0.0
 20
0.0
 30
4.0
 11
4.0
 21
0.0
 31
4.0
1001
AME_SOL
1070
     1
1071
       20
  0
LINE
  8
0
 62
     7
  5
32
 10
0.0
 20
0.0
 30
0.0
 11
4.0
 21
0.0
 31
0.0
1001
AME_SOL
1070
     1
1071
       19
  0
LINE
  8
0
 62
     7
  5
33
 10
0.0
 20
4.0
 30
0.0
 11
0.0
 21
0.0
 31
0.0
1001
AME_SOL
1070
     1
1071
       18
  0
LINE
  8
0
 62
     7
  5
34
 10
4.0
 20
0.0
 30
0.0
 11
4.0
 21
2.0
 31
0.0
1001
AME_SOL
1070
     1
1071
       17
  0
LINE
  8
0
 62
     7
  5
35
 10
2.0
 20
4.0
 30
0.0
 11
0.0
 21
4.0
 31
0.0
1001
AME_SOL
1070
     1
1071
       16
  0
LINE
  8
0
 62
     7
  5
36
 10
2.0
 20
2.0
 30
0.0
 11
2.0
 21
4.0
 31
0.0
1001
AME_SOL
1070
     1
1071
       15
  0
LINE
  8
0
 62
     7
  5
37
 10
2.0
 20
4.0
 30
0.0
 11
2.0
 21
4.0
 31
4.0
1001
AME_SOL
1070
     1
1071
       14
  0
LINE
  8
0
 62
     7
  5
38
 10
2.0
 20
4.0
 30
4.0
 11
2.0
 21
2.0
 31
4.0
1001
AME_SOL
1070
     1
1071
       13
  0
LINE
  8
0
 62
     7
  5
39
 10
4.0
 20
2.0
 30
0.0
 11
2.0
 21
2.0
 31
0.0
1001
AME_SOL
1070
     1
1071
       12
  0
LINE
  8
0
 62
     7
  5
3A
 10
4.0
 20
2.0
 30
4.0
 11
4.0
 21
2.0
 31
0.0
1001
AME_SOL
1070
     1
1071
       11
  0
LINE
  8
0
 62
     7
  5
3B
 10
2.0
 20
2.0
 30
4.0
 11
4.0
 21
2.0
 31
4.0
1001
AME_SOL
1070
     1
1071
       10
  0
LINE
  8
0
 62
     7
  5
3C
 10
2.0
 20
2.0
 30
0.0
 11
2.0
 21
2.0
 31
4.0
1001
AME_SOL
1070
     1
1071
        9
  0
ENDBLK
  8
0
  5
3D
  0
BLOCK
  8
0
  5
41
  2
AME_MAT
 70
    64
 10
0.0
 20
0.0
 30
0.0
  1
AME_MAT
  3
AME_MAT
  0
ENDBLK
  8
0
  5
42
  0
ENDSEC
  0
SECTION
  2
ENTITIES
  0
INSERT
  8
AME_FRZ
  5
3
  2
AME_NIL
 10
0.0
 20
0.0
 30
0.0
  0
INSERT
  8
AME_FRZ
  5
6
  2
AME_SOL
 10
0.0
 20
0.0
 30
0.0
1001
AME_SOL
1000
1.0
1000
sq cm
1070
     3
1070
     0
1070
     3
1000
wire
1040
0.0
1000
NONE
1040
1.0
1000
cm
1000
gm
1000
MILD_STEEL
1070
    25
1000
CSG
1070
     3
1070
     2
1070
     3
1000
cu cm
1070
     4
1070
     0
1005
3
  0
INSERT
  8
AME_FRZ
  5
15
  2
*U2
 10
0.0
 20
0.0
 30
0.0
1001
AME_SOL
1002
{
1070
     0
1071
  1860200
1070
  1536
1010
4.0
1020
4.0
1030
4.0
1005
0
1005
0
1005
3E
1040
0.0
1040
1.0
1000
MILD_STEEL
1000
0
1010
0.0
1020
0.0
1030
0.0
1010
0.0
1020
0.0
1030
1.0
1040
0.0
1002
}
  0
INSERT
  8
AME_FRZ
  5
26
  2
*U3
 10
2.0
 20
2.0
 30
0.0
1001
AME_SOL
1002
{
1070
     0
1071
  1932968
1070
  1536
1010
-2.0
1020
-2.0
1030
-4.0
1005
0
1005
0
1005
3E
1040
0.0
1040
1.0
1000
MILD_STEEL
1000
0
1010
2.0
1020
2.0
1030
0.0
1010
0.0
1020
0.0
1030
1.0
1040
0.0
1002
}
  0
INSERT
  8
0
  5
3E
  2
*U4
 10
0.0
 20
0.0
 30
0.0
1001
AME_SOL
1002
{
1070
     0
1071
  1939056
1070
  1543
1070
     0
1005
15
1005
26
1005
0
1005
3F
1005
0
1040
0.0
1040
1.0
1000
MILD_STEEL
1000
0
1002
}
  0
INSERT
  8
AME_FRZ
  5
3F
  2
AME_NIL
 10
1.0
 20
1.0
 30
1.0
1001
AME_SOL
1004
E903A9FB0100F0FFFFFF000052F7080001000000D7B35DBAD7B35DBAD7B35DBAEE068040EE068040EE06804001000000FBF2040067ECFF3F67ECFF3F71C41CBAE6048040CC090040E60480400100844EE8431D00FFFF00000100CD000000844E00000000803F000000000000000000000000000000000000
1004
803F00000040000000400000000005000000000000000000000000000000000000000000844E00000000803F000000000000000000000000000000000000803F000000400000004000000000050000000000000000000000000000000000FFFFFFFFFBF2040067ECFF3F67ECFF3F71C41CBACC090040E604
1004
8040E60480400100844E50561D00FFFF00000100CC000000844E000000000000000000000000803F000000000000803F0000000000000040000000400000000005000000000000000000000000000000000000000000844E000000000000000000000000803F000000000000803F00000000000000400000
1004
004000000000050000000000000000000000000000000000FFFFFFFFFBF20600D7B35DBAD7B35DBAD7B35DBAEE068040EE068040D7B35D3A0100844ED86E1D0001000000010032010000844E0000000000000000803F000000000000803F0000000000000000000000000000000000000000050000000000
1004
00000000000000000000000000000000844E0000000000000000803F000000000000803F000000000000000000000000000000000000000005000000000000000000000000000000000001000000FBF20400D7B35DBAD7B35DBAD7B35DBAEE068040D7B35D3AEE0680400100844E181A1E00010000000100
1004
31010000844E00000000803F000000000000000000000000000000000000803F00000000000000000000000005000000000000000000000000000000000000000000844E00000000803F000000000000000000000000000000000000803F0000000000000000000000000500000000000000000000000000
1004
0000000001000000FBF20400D7B35DBAD7B35DBAD7B35DBAD7B35D3AEE068040EE0680400100844E68161E0001000000010030010000844E000000000000000000000000803F000000000000803F0000000000000000000000000000000005000000000000000000000000000000000000000000844E0000
1004
00000000000000000000803F000000000000803F0000000000000000000000000000000005000000000000000000000000000000000001000000FBF20600D7B35DBAD7B35DBA25F27F40EE068040EE068040EE0680400100844E48061E000100000001002F010000844E0000000080BF0000008000000080
1004
00000080000080BF0000008000008040000080400000804005000000000000000000000000000000000000000000844E0000000080BF000000800000008000000080000080BF0000008000008040000080400000804005000000000000000000000000000000000001000000FBF20400D7B35DBA25F27F40
1004
D7B35DBAEE068040EE068040EE0680400100844E70061E000100000001002E010000844E00000000008000000080000080BF000080BF000000800000008000008040000080400000804005000000000000000000000000000000000000000000844E00000000008000000080000080BF000080BF00000080
1004
0000008000008040000080400000804005000000000000000000000000000000000001000000FBF2040025F27F40D7B35DBAD7B35DBAEE068040EE068040EE0680400100844E68081E000100000001002D010000844E000000000080000080BF000000800000008000000080000080BF0000804000008040
1004
0000804005000000000000000000000000000000000000000000844E000000000080000080BF000000800000008000000080000080BF00008040000080400000804005000000000000000000000000000000000001000000A4EE67ECFF3F67ECFF3F71C41CBACC090040CC090040E6048040000000000000
1004
804002009675682B1E0000000100FFFFE8431D0050561D000000020050561D00E8431D00FFFFFFFFFFFFFFFF96750000000080BF000000000000000000000000000080BF0000000000000040000000400000000002000000000000008040A4EE67ECFF3F67ECFF3F25F27F40E6048040CC090040E6048040
1004
000080BF0000803F02009675882C1E0000000100FFFFE8431D0048061E000000020048061E00E8431D0001000000FFFFFFFF9675000000000000000000000000803F00000000000080BF000000000000404000000040000080400200000080BF0000803FA4EE25F27F4067ECFF3F71C41CBAE6048040CC09
1004
0040E6048040000000C00000004002009675A82D1E0000000100FFFFE8431D0068081E000000020068081E00E8431D0001000000FFFFFFFF967500000000803F000000000000000000000000000080BF000000000000804000000040000000400200000000C000000040A4EE67ECFF3F67ECFF3F71C41CBA
1004
E6048040CC090040D7B35D3A000040C0000080BF02009675802E1E0000000100FFFFE8431D00D86E1D0000000200D86E1D00E8431D0001000000FFFFFFFF967500000000000000000000000080BF00000000000080BF000000000000803F00000040000000000200000040C0000080BFA4EE67ECFF3F67EC
1004
FF3F25F27F40CC090040E6048040E6048040000080BF0000803F02009675F00A1E0000000100FFFF50561D0048061E000000020048061E0050561D0001000000FFFFFFFF9675000000000000000000000000803F000080BF00000000000000000000004000004040000080400200000080BF0000803FA4EE
1004
67ECFF3F25F27F4071C41CBACC090040E6048040E6048040000000C0000000400200967520111E0000000100FFFF50561D0070061E000000020070061E0050561D0001000000FFFFFFFF96750000000000000000803F00000000000080BF00000000000000000000004000008040000000400200000000C0
1004
00000040A4EE67ECFF3F67ECFF3F71C41CBACC090040E6048040D7B35D3A0000803F000040400200967510121E0000000100FFFF50561D00D86E1D0000000200D86E1D0050561D0001000000FFFFFFFF967500000000000000000000000080BF000080BF0000000000000000000000400000803F00000000
1004
02000000803F00004040A4EED7B35DBA25F27F40D7B35DBAEE068040EE068040D7B35D3A00000080000000400200967500131E000000FFFF0100D86E1D0070061E0000000200D86E1D0070061E00010000000100000096750000000000000000803F000000000000000000000000000080BF000000400000
1004
80400000000002000000008000000040A4EE25F27F40D7B35DBAD7B35DBAEE068040EE068040D7B35D3A000000C00000000002009675F0131E000000FFFF0100D86E1D0068081E0000000200D86E1D0068081E000100000001000000967500000000803F00000000000000000000000000000000000080BF
1004
0000804000000040000000000200000000C000000000A4EED7B35DBAD7B35DBAD7B35DBAD7B35D3AEE068040D7B35D3A000080C00000008002009675E0141E000000FFFF0100D86E1D0068161E0000000200D86E1D0068161E00010000000100000096750000000080BF0000000000000000000000000000
1004
0000000080BF0000000000000000000000000200000080C000000080A4EED7B35DBAD7B35DBAD7B35DBAEE068040D7B35D3AD7B35D3A000000000000804002009675A08F1D000000FFFF0100D86E1D00181A1E0000000200D86E1D00181A1E0001000000010000009675000000000000000080BF00000000
1004
0000000000000000000080BF00000000000000000000000002000000000000008040A4EED7B35DBAD7B35DBA25F27F40EE068040D7B35D3AEE068040000000C0000000400200967520891D000000FFFF0100181A1E0048061E0000000200181A1E0048061E00010000000100000096750000000000000000
1004
00000000803F00000000000080BF000000000000004000000000000080400200000000C000000040A4EE25F27F40D7B35DBAD7B35DBAEE068040D7B35D3AEE068040000000C00000004002009675D0A91D000000FFFF0100181A1E0068081E0000000200181A1E0068081E00010000000100000096750000
1004
0000803F000000000000000000000000000080BF000000000000804000000000000000400200000000C000000040A4EED7B35DBAD7B35DBAD7B35DBAD7B35D3AD7B35D3AEE06804000000000000080400200967580AB1D000000FFFF0100181A1E0068161E0000000200181A1E0068161E00010000000100
1004
000096750000000080BF000000000000000000000000000080BF0000000000000000000000000000000002000000000000008040A4EED7B35DBAD7B35DBA25F27F40D7B35D3AEE068040EE068040000000C0000000400200967508AE1D000000FFFF010068161E0048061E000000020068161E0048061E00
1004
01000000010000009675000000000000000000000000803F000080BF00000000000000000000000000000040000080400200000000C000000040A4EED7B35DBA25F27F40D7B35DBAD7B35D3AEE068040EE068040000000C00000004002009675B8AF1D000000FFFF010068161E0070061E00000002006816
1004
1E0070061E00010000000100000096750000000000000000803F00000000000080BF00000000000000000000000000008040000000400200000000C000000040A4EED7B35DBA25F27F4025F27F40EE068040EE068040EE068040000080C0000000C00200967568B11D000000FFFF010048061E0070061E00
1004
0000020048061E0070061E00010000000100000096750000000000000000803F0000000000000000000000000000803F0000804000008040000080400200000080C0000000C0A4EE25F27F40D7B35DBA25F27F40EE068040EE068040EE06804000000040000080400200967568C51D000000FFFF01004806
1004
1E0068081E000000020048061E0068081E000100000001000000967500000000803F000000000000000000000080000000000000803F0000804000008040000080400200000000400000804019FC
1005
40
  0
INSERT
  8
AME_FRZ
  5
40
  2
AME_NIL
 10
1.0
 20
1.0
 30
1.0
1001
AME_SOL
1004

1005
0
  0
INSERT
  8
AME_FRZ
  5
43
  2
AME_MAT
 10
0.0
 20
0.0
 30
0.0
1001
AME_SOL
1000
MILD_STEEL
1040
7860.0
1040
220.0
1040
0.275
1040
207.0
1040
345.0
1040
56.0
1040
12.0
1040
0.46
  0
ENDSEC
  0
EOF
