106 0 1 0           
body $-1 $1 $-1 $-1 #
lump $-1 $-1 $2 $0 #
shell $-1 $-1 $-1 $3 $1 #
face $-1 $4 $5 $2 $-1 $6 forward single #
face $-1 $7 $8 $2 $-1 $9 reversed single #
loop $-1 $-1 $10 $3 #
plane-surface $-1 0 0 -10 0 0 1 1 0 0 0 I I I I #
face $-1 $11 $12 $2 $-1 $13 reversed single #
loop $-1 $-1 $14 $4 #
plane-surface $-1 0 -5 -15 0 1 0 0 0 1 0 I I I I #
coedge $-1 $15 $16 $17 $18 1 $5 $-1 #
face $-1 $19 $20 $2 $-1 $21 reversed single #
loop $-1 $-1 $22 $7 #
plane-surface $-1 0 5 -15 0 -1 0 0 0 -1 0 I I I I #
coedge $-1 $23 $24 $25 $26 1 $8 $-1 #
coedge $-1 $27 $10 $24 $28 0 $5 $-1 #
coedge $-1 $10 $27 $29 $30 0 $5 $-1 #
coedge $-1 $31 $25 $10 $18 0 $32 $-1 #
edge $-1 $33 $34 $17 $35 0 #
face $-1 $36 $37 $2 $-1 $38 reversed single #
loop $-1 $-1 $39 $11 #
plane-surface $-1 -40 0 0 1 0 0 0 0 -1 0 I I I I #
coedge $-1 $29 $40 $31 $41 1 $12 $-1 #
coedge $-1 $42 $14 $43 $44 1 $8 $-1 #
coedge $-1 $14 $42 $15 $28 1 $8 $-1 #
coedge $-1 $17 $45 $14 $26 0 $32 $-1 #
edge $-1 $46 $33 $25 $47 0 #
coedge $-1 $16 $15 $48 $49 1 $5 $-1 #
edge $-1 $33 $50 $24 $51 0 #
coedge $-1 $52 $22 $16 $30 1 $12 $-1 #
edge $-1 $53 $34 $29 $54 0 #
coedge $-1 $55 $17 $22 $41 0 $32 $-1 #
loop $-1 $-1 $31 $56 #
vertex $-1 $18 $57 #
vertex $-1 $18 $58 #
straight-curve $-1 -20 0 -10 0 1 0 I I #
face $-1 $59 $60 $2 $-1 $61 reversed single #
loop $-1 $62 $63 $19 #
plane-surface $-1 0 0 -20 0 0 1 1 0 0 0 I I I I #
coedge $-1 $64 $65 $66 $67 1 $20 $-1 #
coedge $-1 $22 $52 $68 $69 1 $12 $-1 #
edge $-1 $34 $70 $31 $71 0 #
coedge $-1 $24 $23 $72 $73 1 $8 $-1 #
coedge $-1 $63 $74 $23 $44 0 $37 $-1 #
edge $-1 $75 $46 $23 $76 0 #
coedge $-1 $25 $77 $63 $78 1 $32 $-1 #
vertex $-1 $78 $79 #
straight-curve $-1 -20 -5 -7.5 0 0 1 I I #
coedge $-1 $72 $80 $27 $49 0 $81 $-1 #
edge $-1 $53 $50 $48 $82 0 #
vertex $-1 $49 $83 #
straight-curve $-1 0 -5 -10 1 0 0 I I #
coedge $-1 $40 $29 $80 $84 1 $12 $-1 #
vertex $-1 $49 $85 #
straight-curve $-1 0 5 -10 -1 0 0 I I #
coedge $-1 $86 $31 $87 $88 1 $32 $-1 #
face $-1 $89 $32 $2 $-1 $90 forward single #
point $-1 -20 -5 -10 #
point $-1 -20 5 -10 #
face $-1 $91 $92 $2 $-1 $93 forward single #
loop $-1 $-1 $94 $36 #
plane-surface $-1 40 0 0 -1 0 0 0 0 1 0 I I I I #
loop $-1 $95 $66 $19 #
coedge $-1 $96 $43 $45 $78 0 $37 $-1 #
coedge $-1 $97 $39 $98 $99 1 $20 $-1 #
coedge $-1 $39 $100 $101 $102 0 $20 $-1 #
coedge $-1 $103 $104 $39 $67 0 $62 $-1 #
edge $-1 $105 $106 $39 $107 0 #
coedge $-1 $108 $87 $40 $69 0 $95 $-1 #
edge $-1 $70 $109 $40 $110 0 #
vertex $-1 $88 $111 #
straight-curve $-1 -20 5 -7.5 0 0 -1 I I #
coedge $-1 $112 $48 $42 $73 0 $81 $-1 #
edge $-1 $50 $75 $72 $113 0 #
coedge $-1 $43 $96 $112 $114 0 $37 $-1 #
vertex $-1 $114 $115 #
straight-curve $-1 0 -5 -20 -1 0 0 I I #
coedge $-1 $45 $116 $117 $118 0 $32 $-1 #
edge $-1 $46 $119 $63 $120 0 #
point $-1 -20 -5 -20 #
coedge $-1 $48 $121 $52 $84 0 $81 $-1 #
loop $-1 $-1 $72 $89 #
straight-curve $-1 20 0 -10 0 -1 0 I I #
point $-1 20 -5 -10 #
edge $-1 $109 $53 $80 $122 0 #
point $-1 20 5 -10 #
coedge $-1 $123 $55 $124 $125 1 $32 $-1 #
coedge $-1 $68 $126 $55 $88 0 $95 $-1 #
edge $-1 $127 $70 $87 $120 0 #
face $-1 $128 $81 $2 $-1 $129 forward single #
plane-surface $-1 -20 0 0 1 0 0 0 0 -1 0 I I I I #
face $-1 $130 $131 $2 $-1 $93 forward single #
loop $-1 $-1 $132 $59 #
plane-surface $-1 0 0 0 0 0 1 1 0 0 0 I I I I #
coedge $-1 $133 $134 $135 $136 1 $60 $-1 #
loop $-1 $-1 $68 $19 #
coedge $-1 $74 $63 $137 $138 0 $37 $-1 #
coedge $-1 $139 $64 $140 $141 1 $20 $-1 #
coedge $-1 $142 $143 $64 $99 0 $144 $-1 #
edge $-1 $145 $105 $64 $146 0 #
coedge $-1 $65 $147 $148 $149 1 $20 $-1 #
coedge $-1 $150 $151 $65 $102 1 $152 $-1 #
edge $-1 $153 $106 $101 $154 0 #
coedge $-1 $135 $66 $151 $155 0 $62 $-1 #
coedge $-1 $66 $135 $142 $156 0 $62 $-1 #
vertex $-1 $67 $157 #
vertex $-1 $155 $158 #
straight-curve $-1 -40 0 -20 0 1 0 I I #
coedge $-1 $126 $68 $121 $159 0 $95 $-1 #
vertex $-1 $159 $160 #
straight-curve $-1 0 5 -20 1 0 0 I I #
point $-1 -20 5 -20 #
coedge $-1 $161 $72 $74 $114 1 $81 $-1 #
straight-curve $-1 20 -5 -7.5 0 0 -1 I I #
edge $-1 $162 $75 $74 $163 0 #
point $-1 20 -5 -20 #
coedge $-1 $77 $164 $165 $166 1 $32 $-1 #
coedge $-1 $167 $137 $77 $118 1 $168 $-1 #
edge $-1 $169 $119 $77 $170 0 #
vertex $-1 $138 $171 #
straight-curve $-1 -20 0 -20 0 -1 0 I I #
coedge $-1 $80 $172 $108 $159 1 $81 $-1 #
straight-curve $-1 20 5 -7.5 0 0 1 I I #
coedge $-1 $173 $86 $174 $175 1 $32 $-1 #
coedge $-1 $176 $177 $86 $125 0 $178 $-1 #
edge $-1 $179 $127 $124 $180 0 #
coedge $-1 $87 $108 $176 $181 0 $95 $-1 #
vertex $-1 $88 $182 #
face $-1 $183 $184 $2 $-1 $185 forward single #
plane-surface $-1 20 0 0 -1 0 0 0 0 1 0 I I I I #
face $-1 $186 $187 $2 $-1 $188 forward single #
loop $-1 $-1 $189 $91 #
coedge $-1 $190 $191 $192 $193 1 $92 $-1 #
coedge $-1 $194 $94 $195 $196 1 $60 $-1 #
coedge $-1 $94 $197 $198 $199 0 $60 $-1 #
coedge $-1 $104 $103 $94 $136 0 $62 $-1 #
edge $-1 $200 $201 $94 $202 0 #
coedge $-1 $117 $203 $96 $138 1 $168 $-1 #
edge $-1 $119 $162 $96 $204 0 #
coedge $-1 $205 $97 $206 $207 0 $20 $-1 #
coedge $-1 $208 $209 $97 $141 0 $184 $-1 #
edge $-1 $210 $145 $97 $211 0 #
coedge $-1 $198 $98 $104 $156 1 $144 $-1 #
coedge $-1 $98 $198 $208 $212 1 $144 $-1 #
loop $-1 $-1 $98 $213 #
vertex $-1 $141 $214 #
straight-curve $-1 -40 -40 0 0 0 -1 I I #
coedge $-1 $100 $205 $215 $216 0 $20 $-1 #
coedge $-1 $217 $218 $100 $149 0 $219 $-1 #
edge $-1 $153 $220 $100 $211 0 #
coedge $-1 $195 $101 $218 $221 1 $152 $-1 #
coedge $-1 $101 $195 $103 $155 1 $152 $-1 #
loop $-1 $-1 $195 $222 #
vertex $-1 $221 $223 #
straight-curve $-1 -40 40 0 0 0 -1 I I #
edge $-1 $106 $200 $151 $224 0 #
edge $-1 $201 $105 $142 $225 0 #
point $-1 -40 -40 -20 #
point $-1 -40 40 -20 #
edge $-1 $109 $226 $108 $163 0 #
point $-1 20 5 -20 #
coedge $-1 $227 $112 $203 $228 1 $81 $-1 #
vertex $-1 $138 $229 #
straight-curve $-1 20 0 -20 0 1 0 I I #
coedge $-1 $116 $230 $231 $232 0 $32 $-1 #
coedge $-1 $209 $233 $116 $166 0 $184 $-1 #
edge $-1 $169 $234 $165 $235 0 #
coedge $-1 $203 $117 $233 $236 1 $168 $-1 #
loop $-1 $-1 $117 $183 #
vertex $-1 $236 $237 #
straight-curve $-1 -20 -20 0 0 0 -1 I I #
point $-1 -20 -20 -20 #
coedge $-1 $121 $238 $239 $240 0 $81 $-1 #
coedge $-1 $230 $123 $241 $242 0 $32 $-1 #
coedge $-1 $243 $217 $123 $175 0 $219 $-1 #
edge $-1 $244 $179 $174 $235 0 #
coedge $-1 $239 $124 $126 $181 1 $178 $-1 #
coedge $-1 $124 $239 $243 $245 1 $178 $-1 #
loop $-1 $-1 $239 $246 #
vertex $-1 $175 $247 #
straight-curve $-1 -20 20 0 0 0 -1 I I #
edge $-1 $226 $127 $126 $248 0 #
point $-1 -20 20 -20 #
face $-1 $246 $168 $2 $-1 $249 forward single #
loop $-1 $-1 $209 $128 #
plane-surface $-1 0 0 20 0 0 1 1 0 0 0 I I I I #
face $-1 $250 $251 $2 $-1 $188 forward single #
loop $-1 $-1 $252 $130 #
plane-surface $-1 0 -10 10 0 1 0 0 0 1 0 I I I I #
coedge $-1 $253 $254 $230 $255 1 $131 $-1 #
coedge $-1 $256 $132 $257 $258 1 $92 $-1 #
coedge $-1 $132 $256 $259 $260 1 $92 $-1 #
coedge $-1 $261 $262 $132 $193 0 $81 $-1 #
edge $-1 $263 $264 $192 $265 0 #
coedge $-1 $266 $133 $267 $268 1 $60 $-1 #
coedge $-1 $151 $150 $133 $196 0 $152 $-1 #
edge $-1 $269 $200 $133 $270 0 #
coedge $-1 $134 $271 $272 $273 1 $60 $-1 #
coedge $-1 $143 $142 $134 $199 1 $144 $-1 #
edge $-1 $274 $201 $134 $275 0 #
vertex $-1 $136 $276 #
vertex $-1 $199 $277 #
straight-curve $-1 40 0 -20 0 -1 0 I I #
coedge $-1 $137 $167 $161 $228 0 $168 $-1 #
straight-curve $-1 0 -20 -20 1 0 0 I I #
coedge $-1 $147 $139 $278 $279 0 $20 $-1 #
coedge $-1 $280 $281 $139 $207 1 $251 $-1 #
edge $-1 $210 $282 $139 $283 0 #
coedge $-1 $272 $140 $143 $212 0 $184 $-1 #
coedge $-1 $140 $165 $280 $284 0 $184 $-1 #
vertex $-1 $207 $285 #
straight-curve $-1 -40 0 20 0 -1 0 I I #
edge $-1 $145 $274 $143 $286 0 #
face $-1 $222 $144 $2 $-1 $287 reversed single #
point $-1 -40 -40 20 #
coedge $-1 $288 $289 $147 $216 1 $290 $-1 #
edge $-1 $291 $220 $147 $292 0 #
coedge $-1 $174 $148 $289 $293 0 $219 $-1 #
coedge $-1 $148 $267 $150 $221 0 $219 $-1 #
loop $-1 $-1 $217 $294 #
vertex $-1 $149 $295 #
edge $-1 $269 $153 $150 $296 0 #
face $-1 $-1 $152 $2 $-1 $297 reversed single #
point $-1 -40 40 20 #
straight-curve $-1 0 40 -20 1 0 0 I I #
straight-curve $-1 0 -40 -20 -1 0 0 I I #
vertex $-1 $181 $298 #
coedge $-1 $262 $161 $299 $300 1 $81 $-1 #
edge $-1 $301 $162 $161 $302 0 #
point $-1 20 -20 -20 #
coedge $-1 $164 $173 $189 $255 0 $32 $-1 #
coedge $-1 $281 $280 $164 $232 1 $251 $-1 #
edge $-1 $303 $234 $164 $304 0 #
coedge $-1 $165 $299 $167 $236 0 $184 $-1 #
vertex $-1 $166 $305 #
straight-curve $-1 -20 0 20 0 1 0 I I #
edge $-1 $301 $169 $233 $306 0 #
point $-1 -20 -20 20 #
coedge $-1 $172 $261 $307 $308 1 $81 $-1 #
coedge $-1 $177 $176 $172 $240 1 $178 $-1 #
edge $-1 $309 $226 $172 $310 0 #
coedge $-1 $289 $288 $173 $242 1 $290 $-1 #
edge $-1 $244 $311 $173 $312 0 #
coedge $-1 $307 $174 $177 $245 0 $219 $-1 #
vertex $-1 $293 $313 #
edge $-1 $179 $309 $243 $314 0 #
face $-1 $294 $178 $2 $-1 $315 forward single #
point $-1 -20 20 20 #
straight-curve $-1 0 20 -20 -1 0 0 I I #
plane-surface $-1 0 -20 0 0 1 0 0 0 1 0 I I I I #
face $-1 $316 $317 $2 $-1 $318 forward single #
loop $-1 $-1 $231 $186 #
coedge $-1 $319 $257 $262 $320 1 $187 $-1 #
coedge $-1 $278 $189 $288 $321 1 $131 $-1 #
coedge $-1 $189 $278 $281 $322 1 $131 $-1 #
edge $-1 $311 $303 $230 $323 0 #
coedge $-1 $191 $190 $324 $325 1 $92 $-1 #
coedge $-1 $252 $326 $190 $258 0 $187 $-1 #
edge $-1 $327 $263 $257 $328 0 #
coedge $-1 $329 $330 $191 $260 0 $317 $-1 #
edge $-1 $264 $331 $259 $332 0 #
coedge $-1 $238 $192 $330 $333 0 $81 $-1 #
coedge $-1 $192 $227 $252 $320 0 $81 $-1 #
vertex $-1 $193 $334 #
vertex $-1 $193 $335 #
straight-curve $-1 20 0 0 0 1 0 I I #
coedge $-1 $324 $194 $329 $336 0 $60 $-1 #
coedge $-1 $218 $337 $194 $268 0 $219 $-1 #
edge $-1 $338 $269 $194 $339 0 #
vertex $-1 $268 $340 #
straight-curve $-1 40 40 0 0 0 -1 I I #
coedge $-1 $197 $324 $326 $341 0 $60 $-1 #
coedge $-1 $342 $208 $197 $273 0 $184 $-1 #
edge $-1 $274 $343 $197 $339 0 #
vertex $-1 $273 $344 #
straight-curve $-1 40 -40 0 0 0 -1 I I #
point $-1 40 40 -20 #
point $-1 40 -40 -20 #
coedge $-1 $254 $253 $205 $279 1 $131 $-1 #
edge $-1 $282 $291 $205 $345 0 #
coedge $-1 $231 $206 $209 $284 1 $251 $-1 #
coedge $-1 $206 $231 $254 $322 0 $251 $-1 #
vertex $-1 $279 $346 #
straight-curve $-1 -40 -10 5 0 0 -1 I I #
edge $-1 $234 $210 $209 $347 0 #
point $-1 -40 -10 20 #
straight-curve $-1 0 -40 20 1 0 0 I I #
plane-surface $-1 0 -40 0 0 1 0 0 0 1 0 I I I I #
coedge $-1 $241 $215 $253 $321 0 $290 $-1 #
coedge $-1 $215 $241 $217 $293 1 $290 $-1 #
loop $-1 $-1 $241 $316 #
vertex $-1 $279 $348 #
straight-curve $-1 -40 10 5 0 0 1 I I #
edge $-1 $220 $244 $217 $349 0 #
face $-1 $213 $219 $2 $-1 $185 forward single #
point $-1 -40 10 20 #
straight-curve $-1 0 40 20 -1 0 0 I I #
plane-surface $-1 0 40 0 0 -1 0 0 0 -1 0 I I I I #
point $-1 20 20 -20 #
coedge $-1 $233 $342 $227 $300 0 $184 $-1 #
edge $-1 $350 $301 $299 $351 0 #
vertex $-1 $236 $352 #
straight-curve $-1 20 -20 0 0 0 -1 I I #
vertex $-1 $255 $353 #
straight-curve $-1 -20 -10 5 0 0 1 I I #
point $-1 -20 -10 20 #
straight-curve $-1 0 -20 20 -1 0 0 I I #
coedge $-1 $337 $243 $238 $308 0 $219 $-1 #
edge $-1 $309 $354 $307 $351 0 #
vertex $-1 $245 $355 #
straight-curve $-1 20 20 0 0 0 -1 I I #
vertex $-1 $255 $356 #
straight-curve $-1 -20 10 5 0 0 -1 I I #
point $-1 -20 10 20 #
straight-curve $-1 0 20 20 1 0 0 I I #
plane-surface $-1 0 20 0 0 -1 0 0 0 -1 0 I I I I #
face $-1 $56 $290 $2 $-1 $318 forward single #
loop $-1 $-1 $330 $250 #
plane-surface $-1 0 10 10 0 -1 0 0 0 -1 0 I I I I #
coedge $-1 $326 $252 $342 $357 1 $187 $-1 #
edge $-1 $350 $263 $262 $358 0 #
edge $-1 $291 $311 $288 $332 0 #
edge $-1 $303 $282 $281 $328 0 #
straight-curve $-1 -20 0 0 0 -1 0 I I #
coedge $-1 $271 $266 $256 $325 0 $60 $-1 #
edge $-1 $331 $327 $324 $359 0 #
coedge $-1 $257 $319 $271 $341 1 $187 $-1 #
vertex $-1 $325 $360 #
straight-curve $-1 0 -10 0 -1 0 0 I I #
coedge $-1 $361 $259 $266 $336 1 $317 $-1 #
coedge $-1 $259 $361 $261 $333 1 $317 $-1 #
vertex $-1 $325 $362 #
straight-curve $-1 0 10 0 1 0 0 I I #
edge $-1 $264 $354 $261 $363 0 #
point $-1 20 -10 0 #
point $-1 20 10 0 #
edge $-1 $338 $331 $266 $364 0 #
coedge $-1 $267 $307 $361 $365 0 $219 $-1 #
vertex $-1 $336 $366 #
straight-curve $-1 40 0 20 0 1 0 I I #
point $-1 40 40 20 #
edge $-1 $327 $343 $271 $367 0 #
coedge $-1 $299 $272 $319 $357 0 $184 $-1 #
vertex $-1 $273 $368 #
point $-1 40 -40 20 #
straight-curve $-1 -40 0 0 0 1 0 I I #
point $-1 -40 -10 0 #
straight-curve $-1 0 -10 20 -1 0 0 I I #
point $-1 -40 10 0 #
straight-curve $-1 0 10 20 1 0 0 I I #
vertex $-1 $357 $369 #
straight-curve $-1 20 0 20 0 -1 0 I I #
point $-1 20 -20 20 #
point $-1 -20 -10 0 #
vertex $-1 $308 $370 #
point $-1 20 20 20 #
point $-1 -20 10 0 #
edge $-1 $343 $350 $342 $347 0 #
straight-curve $-1 20 -10 5 0 0 -1 I I #
straight-curve $-1 40 0 0 0 -1 0 I I #
point $-1 40 -10 0 #
coedge $-1 $330 $329 $337 $365 1 $317 $-1 #
point $-1 40 10 0 #
straight-curve $-1 20 10 5 0 0 1 I I #
straight-curve $-1 40 10 5 0 0 -1 I I #
edge $-1 $354 $338 $337 $349 0 #
point $-1 40 10 20 #
straight-curve $-1 40 -10 5 0 0 1 I I #
point $-1 40 -10 20 #
point $-1 20 -10 20 #
point $-1 20 10 20 #
End-of-ACIS-data 
