700 0 2 0           
24 FBMach with ACIS - 7.0.3 13 ACIS 7.0.3 NT 24 Tue May 14 09:57:04 2002 
1 9.9999999999999995e-007 1e-010 
body $2 -1 $-1 $3 $-1 $4 #
bdycol-kcp $-1 -1 1 4 $5 $6 $7 $8 #
model_id-kcp-attrib $-1 -1 $-1 $-1 $0 1 1021384623 1021384623 -164429823 1 #
lump $-1 -1 $-1 $-1 $9 $0 #
transform $-1 -1 1 0 0 0 1 0 0 0 1 0 0 0 1 rotate no_reflect no_shear #
body $10 -1 $-1 $11 $-1 $12 #
body $13 -1 $-1 $14 $-1 $15 #
body $16 -1 $-1 $17 $-1 $18 #
body $19 -1 $-1 $20 $-1 $21 #
shell $-1 -1 $-1 $-1 $-1 $22 $-1 $3 #
model_id-kcp-attrib $-1 -1 $-1 $-1 $5 1 1021384623 1021384623 -164429822 1 #
lump $-1 -1 $-1 $-1 $23 $5 #
transform $-1 -1 1 0 0 0 1 0 0 0 1 0 0 0 1 no_rotate no_reflect no_shear #
rgb_color-st-attrib $-1 -1 $24 $-1 $6 1 0 0 #
lump $-1 -1 $-1 $-1 $25 $6 #
transform $-1 -1 1 0 0 0 1 0 0 0 1 0 0 110 1 no_rotate no_reflect no_shear #
rgb_color-st-attrib $-1 -1 $26 $-1 $7 1 0 0 #
lump $-1 -1 $-1 $-1 $27 $7 #
transform $-1 -1 1 0 0 0 1 0 0 0 1 0 0 0 1 no_rotate no_reflect no_shear #
rgb_color-st-attrib $-1 -1 $28 $-1 $8 1 0 0 #
lump $-1 -1 $-1 $-1 $29 $8 #
transform $-1 -1 1 0 0 0 1 0 0 0 1 0 0 0 1 no_rotate no_reflect no_shear #
face $30 -1 $-1 $31 $32 $9 $-1 $33 forward single #
shell $-1 -1 $-1 $-1 $-1 $34 $-1 $11 #
model_id-kcp-attrib $-1 -1 $-1 $13 $6 1 1021384623 1021384624 -167575549 1 #
shell $-1 -1 $-1 $-1 $-1 $35 $-1 $14 #
model_id-kcp-attrib $-1 -1 $-1 $16 $7 1 1021384623 1021384624 -156762107 1 #
shell $-1 -1 $-1 $-1 $-1 $36 $-1 $17 #
model_id-kcp-attrib $-1 -1 $-1 $19 $8 1 1021384623 1021384624 -151191548 1 #
shell $-1 -1 $-1 $-1 $-1 $37 $-1 $20 #
model_id-kcp-attrib $-1 -1 $-1 $-1 $22 1 1021384623 1021384623 -164429823 2 #
face $38 -1 $-1 $39 $40 $9 $-1 $41 reversed single #
loop $-1 -1 $-1 $-1 $42 $22 #
plane-surface $-1 -1 $-1 0 0 -10 0 0 1 1 0 0 forward_v I I I I #
face $43 -1 $-1 $44 $45 $23 $-1 $46 forward single #
face $-1 -1 $-1 $47 $48 $25 $-1 $49 reversed single #
face $-1 -1 $-1 $50 $51 $27 $-1 $52 forward single #
face $-1 -1 $-1 $53 $54 $29 $-1 $55 forward single #
model_id-kcp-attrib $-1 -1 $-1 $-1 $31 1 1021384623 1021384623 -164429823 3 #
face $56 -1 $-1 $57 $58 $9 $-1 $59 reversed single #
loop $-1 -1 $-1 $-1 $60 $31 #
plane-surface $-1 -1 $-1 0 -5 -15 0 1 0 0 0 1 forward_v I I I I #
coedge $-1 -1 $-1 $61 $62 $63 $64 reversed $32 $-1 #
model_id-kcp-attrib $-1 -1 $-1 $-1 $34 1 1021384623 1021384623 -164429822 5 #
face $65 -1 $-1 $66 $67 $23 $-1 $68 reversed single #
loop $-1 -1 $-1 $-1 $69 $34 #
plane-surface $-1 -1 $-1 0 0 20 0 0 1 1 0 0 forward_v I I I I #
face $-1 -1 $-1 $70 $71 $25 $-1 $72 reversed single #
loop $-1 -1 $-1 $-1 $73 $35 #
plane-surface $-1 -1 $-1 0 -20 -110 0 1 0 0 0 1 forward_v I I I I #
face $-1 -1 $-1 $74 $75 $27 $-1 $76 forward single #
loop $-1 -1 $-1 $-1 $77 $36 #
plane-surface $-1 -1 $-1 20 -10 0 -1 0 0 0 0 1 forward_v I I I I #
face $-1 -1 $-1 $78 $79 $29 $-1 $80 forward single #
loop $-1 -1 $-1 $-1 $81 $37 #
plane-surface $-1 -1 $-1 -20 10 0 1 0 0 0 0 -1 forward_v I I I I #
model_id-kcp-attrib $-1 -1 $-1 $-1 $39 1 1021384623 1021384623 -164429823 4 #
face $82 -1 $-1 $83 $84 $9 $-1 $85 reversed single #
loop $-1 -1 $-1 $-1 $86 $39 #
plane-surface $-1 -1 $-1 0 5 -15 0 -1 0 0 0 -1 forward_v I I I I #
coedge $-1 -1 $-1 $87 $88 $89 $90 reversed $40 $-1 #
coedge $-1 -1 $-1 $91 $42 $88 $92 forward $32 $-1 #
coedge $-1 -1 $-1 $42 $91 $93 $94 forward $32 $-1 #
coedge $-1 -1 $-1 $95 $89 $42 $64 forward $96 $-1 #
edge $97 -1 $-1 $98 -5 $99 5 $63 $100 forward @7 unknown #
model_id-kcp-attrib $-1 -1 $-1 $-1 $44 1 1021384623 1021384623 -164429822 3 #
face $101 -1 $-1 $102 $103 $23 $-1 $104 reversed single #
loop $-1 -1 $-1 $-1 $105 $44 #
plane-surface $-1 -1 $-1 0 0 -20 0 0 1 1 0 0 forward_v I I I I #
coedge $-1 -1 $-1 $106 $107 $108 $109 forward $45 $-1 #
face $-1 -1 $-1 $110 $111 $25 $-1 $112 forward single #
loop $-1 -1 $-1 $-1 $113 $47 #
plane-surface $-1 -1 $-1 0 20 -110 0 -1 0 0 0 -1 forward_v I I I I #
coedge $-1 -1 $-1 $114 $115 $116 $117 forward $48 $-1 #
face $-1 -1 $-1 $118 $119 $27 $-1 $120 forward single #
loop $-1 -1 $-1 $-1 $121 $50 #
plane-surface $-1 -1 $-1 20 10 0 0 1 0 0 0 1 forward_v I I I I #
coedge $-1 -1 $-1 $122 $123 $124 $125 forward $51 $-1 #
face $-1 -1 $-1 $126 $127 $29 $-1 $128 forward single #
loop $-1 -1 $-1 $-1 $129 $53 #
plane-surface $-1 -1 $-1 -20 -10 0 0 -1 0 0 0 -1 forward_v I I I I #
coedge $-1 -1 $-1 $130 $131 $132 $133 forward $54 $-1 #
model_id-kcp-attrib $-1 -1 $-1 $-1 $57 1 1021384623 1021384623 -164429823 5 #
face $134 -1 $-1 $135 $136 $9 $-1 $137 reversed single #
loop $-1 -1 $-1 $-1 $138 $57 #
plane-surface $-1 -1 $-1 -40 0 0 1 0 0 0 0 -1 forward_v I I I I #
coedge $-1 -1 $-1 $93 $139 $95 $140 reversed $58 $-1 #
coedge $-1 -1 $-1 $141 $60 $142 $143 reversed $40 $-1 #
coedge $-1 -1 $-1 $60 $141 $61 $92 reversed $40 $-1 #
coedge $-1 -1 $-1 $63 $144 $60 $90 forward $96 $-1 #
edge $145 -1 $-1 $146 -12.5 $98 -2.5 $89 $147 forward @7 unknown #
coedge $-1 -1 $-1 $62 $61 $148 $149 reversed $32 $-1 #
edge $150 -1 $-1 $98 -20 $151 20 $88 $152 forward @7 unknown #
coedge $-1 -1 $-1 $153 $86 $62 $94 reversed $58 $-1 #
edge $154 -1 $-1 $155 -20 $99 20 $93 $156 forward @7 unknown #
coedge $-1 -1 $-1 $157 $63 $86 $140 forward $96 $-1 #
loop $-1 -1 $-1 $-1 $95 $158 #
attrib_edge_convexity-kcp-attrib $-1 -1 $159 $-1 $64 2 #
vertex $-1 -1 $-1 $64 $160 #
vertex $-1 -1 $-1 $64 $161 #
straight-curve $-1 -1 $-1 -20 0 -10 0 1 0 I I #
model_id-kcp-attrib $-1 -1 $-1 $-1 $66 1 1021384623 1021384623 -164429822 7 #
face $162 -1 $-1 $163 $164 $23 $-1 $165 reversed single #
loop $-1 -1 $-1 $-1 $166 $66 #
plane-surface $-1 -1 $-1 0 -40 0 0 1 0 0 0 1 forward_v I I I I #
coedge $-1 -1 $-1 $167 $168 $169 $170 forward $67 $-1 #
coedge $-1 -1 $-1 $171 $69 $172 $173 forward $45 $-1 #
coedge $-1 -1 $-1 $69 $171 $174 $175 forward $45 $-1 #
coedge $-1 -1 $-1 $176 $177 $69 $109 reversed $178 $-1 #
edge $-1 -1 $-1 $179 -40 $180 40 $108 $181 forward @7 unknown #
face $-1 -1 $-1 $182 $183 $25 $-1 $184 reversed single #
loop $-1 -1 $-1 $-1 $185 $70 #
plane-surface $-1 -1 $-1 0 0 -90 0 0 1 1 0 0 forward_v I I I I #
coedge $-1 -1 $-1 $186 $187 $188 $189 forward $71 $-1 #
coedge $-1 -1 $-1 $190 $73 $191 $192 forward $48 $-1 #
coedge $-1 -1 $-1 $73 $190 $193 $194 forward $48 $-1 #
coedge $-1 -1 $-1 $195 $196 $73 $117 reversed $183 $-1 #
edge $197 -1 $-1 $198 -20 $199 20 $116 $200 forward @7 unknown #
face $-1 -1 $-1 $201 $202 $27 $-1 $203 forward single #
loop $-1 -1 $-1 $-1 $204 $74 #
plane-surface $-1 -1 $-1 40 10 0 1 0 0 0 0 -1 forward_v I I I I #
coedge $-1 -1 $-1 $205 $206 $207 $208 forward $75 $-1 #
coedge $-1 -1 $-1 $209 $77 $206 $210 reversed $51 $-1 #
coedge $-1 -1 $-1 $77 $209 $211 $212 forward $51 $-1 #
coedge $-1 -1 $-1 $213 $207 $77 $125 reversed $214 $-1 #
edge $-1 -1 $-1 $215 -10 $216 10 $77 $217 forward @7 unknown #
face $-1 -1 $-1 $218 $219 $29 $-1 $220 forward single #
loop $-1 -1 $-1 $-1 $221 $78 #
plane-surface $-1 -1 $-1 -40 -10 0 -1 0 0 0 0 1 forward_v I I I I #
coedge $-1 -1 $-1 $222 $223 $224 $225 forward $79 $-1 #
coedge $-1 -1 $-1 $226 $81 $223 $227 reversed $54 $-1 #
coedge $-1 -1 $-1 $81 $226 $228 $229 forward $54 $-1 #
coedge $-1 -1 $-1 $230 $224 $81 $133 reversed $231 $-1 #
edge $-1 -1 $-1 $232 -10 $233 10 $81 $234 forward @7 unknown #
model_id-kcp-attrib $-1 -1 $-1 $-1 $83 1 1021384623 1021384623 -164429823 6 #
face $235 -1 $-1 $236 $237 $9 $-1 $238 reversed single #
loop $-1 -1 $-1 $239 $240 $83 #
plane-surface $-1 -1 $-1 0 0 -20 0 0 1 1 0 0 forward_v I I I I #
coedge $-1 -1 $-1 $241 $242 $243 $244 reversed $84 $-1 #
coedge $-1 -1 $-1 $86 $153 $245 $246 reversed $58 $-1 #
edge $247 -1 $-1 $99 2.5 $248 12.5 $95 $249 forward @7 unknown #
coedge $-1 -1 $-1 $88 $87 $250 $251 reversed $40 $-1 #
coedge $-1 -1 $-1 $240 $252 $87 $143 forward $136 $-1 #
edge $253 -1 $-1 $254 -20 $146 20 $87 $255 forward @7 unknown #
coedge $-1 -1 $-1 $89 $256 $240 $257 reversed $96 $-1 #
attrib_edge_convexity-kcp-attrib $-1 -1 $258 $-1 $90 2 #
vertex $-1 -1 $-1 $257 $259 #
straight-curve $-1 -1 $-1 -20 -5 -7.5 0 0 1 I I #
coedge $-1 -1 $-1 $250 $260 $91 $149 forward $261 $-1 #
edge $262 -1 $-1 $155 -5 $151 5 $148 $263 forward @7 unknown #
attrib_edge_convexity-kcp-attrib $-1 -1 $264 $-1 $92 1 #
vertex $-1 -1 $-1 $149 $265 #
straight-curve $-1 -1 $-1 0 -5 -10 1 0 0 I I #
coedge $-1 -1 $-1 $139 $93 $260 $266 reversed $58 $-1 #
attrib_edge_convexity-kcp-attrib $-1 -1 $267 $-1 $94 1 #
vertex $-1 -1 $-1 $149 $268 #
straight-curve $-1 -1 $-1 0 5 -10 -1 0 0 I I #
coedge $-1 -1 $-1 $269 $95 $270 $271 reversed $96 $-1 #
face $272 -1 $-1 $273 $96 $9 $-1 $274 forward single #
convexity-sys-attrib $-1 -1 $-1 $97 $64 #
point $-1 -1 $-1 -20 -5 -10 #
point $-1 -1 $-1 -20 5 -10 #
model_id-kcp-attrib $-1 -1 $-1 $-1 $102 1 1021384623 1021384623 -164429822 2 #
face $275 -1 $-1 $276 $277 $23 $-1 $278 reversed single #
loop $-1 -1 $-1 $-1 $279 $102 #
plane-surface $-1 -1 $-1 -40 0 0 1 0 0 0 0 -1 forward_v I I I I #
coedge $-1 -1 $-1 $280 $174 $281 $282 forward $103 $-1 #
coedge $-1 -1 $-1 $283 $105 $280 $284 forward $67 $-1 #
coedge $-1 -1 $-1 $105 $283 $285 $286 forward $67 $-1 #
coedge $-1 -1 $-1 $177 $176 $105 $170 reversed $178 $-1 #
edge $-1 -1 $-1 $287 -40 $288 40 $169 $289 forward @7 unknown #
coedge $-1 -1 $-1 $107 $106 $290 $291 forward $45 $-1 #
coedge $-1 -1 $-1 $292 $293 $106 $173 reversed $277 $-1 #
edge $-1 -1 $-1 $180 -40 $294 40 $172 $295 forward @7 unknown #
coedge $-1 -1 $-1 $166 $296 $107 $175 reversed $103 $-1 #
edge $-1 -1 $-1 $297 -40 $179 40 $174 $298 forward @7 unknown #
coedge $-1 -1 $-1 $169 $108 $296 $299 forward $178 $-1 #
coedge $-1 -1 $-1 $108 $169 $292 $300 reversed $178 $-1 #
loop $-1 -1 $-1 $-1 $176 $276 #
vertex $-1 -1 $-1 $109 $301 #
vertex $-1 -1 $-1 $109 $302 #
straight-curve $-1 -1 $-1 40 0 20 0 1 0 I I #
face $-1 -1 $-1 $303 $304 $25 $-1 $305 reversed single #
loop $-1 -1 $-1 $-1 $188 $110 #
plane-surface $-1 -1 $-1 0 0 -120 0 0 1 1 0 0 forward_v I I I I #
coedge $-1 -1 $-1 $306 $307 $308 $309 forward $111 $-1 #
coedge $-1 -1 $-1 $310 $113 $311 $312 forward $71 $-1 #
coedge $-1 -1 $-1 $113 $310 $313 $314 forward $71 $-1 #
coedge $-1 -1 $-1 $196 $195 $113 $189 reversed $183 $-1 #
edge $315 -1 $-1 $316 -20 $317 20 $188 $318 forward @7 unknown #
coedge $-1 -1 $-1 $115 $114 $306 $319 reversed $48 $-1 #
coedge $-1 -1 $-1 $320 $321 $114 $192 reversed $304 $-1 #
edge $322 -1 $-1 $199 -65 $323 -35 $191 $324 forward @7 unknown #
coedge $-1 -1 $-1 $308 $325 $115 $194 reversed $326 $-1 #
edge $327 -1 $-1 $328 35 $198 65 $193 $329 forward @7 unknown #
coedge $-1 -1 $-1 $188 $116 $325 $330 forward $183 $-1 #
coedge $-1 -1 $-1 $116 $188 $320 $331 forward $183 $-1 #
convexity-sys-attrib $-1 -1 $-1 $-1 $117 #
vertex $-1 -1 $-1 $330 $332 #
vertex $-1 -1 $-1 $117 $333 #
straight-curve $-1 -1 $-1 0 -20 -120 1 0 0 I I #
face $-1 -1 $-1 $334 $214 $27 $-1 $335 forward single #
loop $-1 -1 $-1 $-1 $336 $118 #
plane-surface $-1 -1 $-1 40 -10 0 0 -1 0 0 0 -1 forward_v I I I I #
coedge $-1 -1 $-1 $337 $338 $339 $340 forward $119 $-1 #
coedge $-1 -1 $-1 $341 $121 $338 $342 reversed $75 $-1 #
coedge $-1 -1 $-1 $121 $341 $122 $210 forward $75 $-1 #
coedge $-1 -1 $-1 $124 $339 $121 $208 reversed $214 $-1 #
edge $-1 -1 $-1 $216 5 $343 25 $121 $344 forward @7 unknown #
coedge $-1 -1 $-1 $123 $122 $345 $346 reversed $51 $-1 #
edge $-1 -1 $-1 $347 0 $216 20 $206 $348 forward @7 unknown #
coedge $-1 -1 $-1 $349 $336 $123 $212 reversed $202 $-1 #
edge $-1 -1 $-1 $350 0 $215 20 $123 $351 forward @7 unknown #
coedge $-1 -1 $-1 $339 $124 $336 $352 reversed $214 $-1 #
loop $-1 -1 $-1 $-1 $124 $201 #
vertex $-1 -1 $-1 $212 $353 #
vertex $-1 -1 $-1 $210 $354 #
straight-curve $-1 -1 $-1 20 0 20 0 1 0 I I #
face $-1 -1 $-1 $355 $231 $29 $-1 $356 forward single #
loop $-1 -1 $-1 $-1 $357 $126 #
plane-surface $-1 -1 $-1 -40 10 0 0 1 0 0 0 1 forward_v I I I I #
coedge $-1 -1 $-1 $358 $359 $360 $361 forward $127 $-1 #
coedge $-1 -1 $-1 $362 $129 $359 $363 reversed $79 $-1 #
coedge $-1 -1 $-1 $129 $362 $130 $227 forward $79 $-1 #
coedge $-1 -1 $-1 $132 $360 $129 $225 reversed $231 $-1 #
edge $-1 -1 $-1 $233 5 $364 25 $129 $365 forward @7 unknown #
coedge $-1 -1 $-1 $131 $130 $366 $367 reversed $54 $-1 #
edge $-1 -1 $-1 $368 0 $233 20 $223 $369 forward @7 unknown #
coedge $-1 -1 $-1 $370 $357 $131 $229 reversed $219 $-1 #
edge $-1 -1 $-1 $371 0 $232 20 $131 $372 forward @7 unknown #
coedge $-1 -1 $-1 $360 $132 $357 $373 reversed $231 $-1 #
loop $-1 -1 $-1 $-1 $132 $218 #
vertex $-1 -1 $-1 $229 $374 #
vertex $-1 -1 $-1 $227 $375 #
straight-curve $-1 -1 $-1 -20 0 20 0 -1 0 I I #
model_id-kcp-attrib $-1 -1 $-1 $-1 $135 1 1021384623 1021384623 -164429823 7 #
face $376 -1 $-1 $377 $378 $9 $-1 $379 forward single #
loop $-1 -1 $-1 $-1 $380 $135 #
plane-surface $-1 -1 $-1 40 0 0 -1 0 0 0 0 1 forward_v I I I I #
loop $-1 -1 $-1 $381 $243 $83 #
coedge $-1 -1 $-1 $382 $142 $144 $257 forward $136 $-1 #
coedge $-1 -1 $-1 $383 $138 $384 $385 reversed $84 $-1 #
coedge $-1 -1 $-1 $138 $386 $387 $388 forward $84 $-1 #
coedge $-1 -1 $-1 $389 $390 $138 $244 forward $239 $-1 #
edge $391 -1 $-1 $392 -40 $393 40 $138 $394 forward @7 unknown #
coedge $-1 -1 $-1 $395 $270 $139 $246 forward $381 $-1 #
edge $396 -1 $-1 $248 -20 $397 20 $139 $398 forward @7 unknown #
attrib_edge_convexity-kcp-attrib $-1 -1 $399 $-1 $140 2 #
vertex $-1 -1 $-1 $271 $400 #
straight-curve $-1 -1 $-1 -20 5 -7.5 0 0 -1 I I #
coedge $-1 -1 $-1 $401 $148 $141 $251 forward $261 $-1 #
edge $402 -1 $-1 $151 2.5 $254 12.5 $250 $403 forward @7 unknown #
coedge $-1 -1 $-1 $142 $382 $401 $404 forward $136 $-1 #
attrib_edge_convexity-kcp-attrib $-1 -1 $405 $-1 $143 1 #
vertex $-1 -1 $-1 $404 $406 #
straight-curve $-1 -1 $-1 0 -5 -20 -1 0 0 I I #
coedge $-1 -1 $-1 $144 $407 $408 $409 forward $96 $-1 #
edge $410 -1 $-1 $146 5 $411 20 $240 $412 forward @7 unknown #
convexity-sys-attrib $-1 -1 $-1 $145 $90 #
point $-1 -1 $-1 -20 -5 -20 #
coedge $-1 -1 $-1 $148 $413 $153 $266 forward $261 $-1 #
loop $-1 -1 $-1 $-1 $250 $273 #
attrib_edge_convexity-kcp-attrib $-1 -1 $414 $-1 $149 2 #
straight-curve $-1 -1 $-1 20 0 -10 0 -1 0 I I #
convexity-sys-attrib $-1 -1 $-1 $150 $92 #
point $-1 -1 $-1 20 -5 -10 #
edge $415 -1 $-1 $397 -12.5 $155 -2.5 $260 $416 forward @7 unknown #
convexity-sys-attrib $-1 -1 $-1 $154 $94 #
point $-1 -1 $-1 20 5 -10 #
coedge $-1 -1 $-1 $417 $157 $418 $419 reversed $96 $-1 #
coedge $-1 -1 $-1 $245 $420 $157 $271 forward $381 $-1 #
edge $421 -1 $-1 $422 -20 $248 -5 $270 $412 forward @7 unknown #
model_id-kcp-attrib $-1 -1 $-1 $-1 $158 1 1021384623 1021384623 -164429823 14 #
face $423 -1 $-1 $424 $261 $9 $-1 $425 forward single #
plane-surface $-1 -1 $-1 -20 0 0 1 0 0 0 0 -1 forward_v I I I I #
model_id-kcp-attrib $-1 -1 $-1 $-1 $163 1 1021384623 1021384623 -164429822 8 #
face $426 -1 $-1 $-1 $178 $23 $-1 $427 reversed single #
loop $-1 -1 $-1 $-1 $292 $163 #
plane-surface $-1 -1 $-1 0 40 0 0 -1 0 0 0 -1 forward_v I I I I #
coedge $-1 -1 $-1 $428 $290 $293 $429 forward $164 $-1 #
coedge $-1 -1 $-1 $296 $166 $167 $284 reversed $103 $-1 #
coedge $-1 -1 $-1 $290 $428 $166 $282 reversed $164 $-1 #
edge $-1 -1 $-1 $297 -20 $430 20 $281 $431 forward @7 unknown #
coedge $-1 -1 $-1 $168 $167 $428 $432 forward $67 $-1 #
edge $-1 -1 $-1 $288 -40 $430 40 $280 $433 forward @7 unknown #
coedge $-1 -1 $-1 $293 $292 $168 $286 reversed $277 $-1 #
edge $-1 -1 $-1 $434 -40 $287 40 $285 $435 forward @7 unknown #
vertex $-1 -1 $-1 $170 $436 #
vertex $-1 -1 $-1 $299 $437 #
straight-curve $-1 -1 $-1 40 0 -20 0 -1 0 I I #
coedge $-1 -1 $-1 $279 $281 $171 $291 reversed $164 $-1 #
edge $-1 -1 $-1 $294 -40 $297 40 $290 $438 forward @7 unknown #
coedge $-1 -1 $-1 $285 $172 $177 $300 forward $277 $-1 #
coedge $-1 -1 $-1 $172 $285 $279 $429 reversed $277 $-1 #
vertex $-1 -1 $-1 $173 $439 #
straight-curve $-1 -1 $-1 0 40 20 -1 0 0 I I #
coedge $-1 -1 $-1 $174 $280 $176 $299 reversed $103 $-1 #
vertex $-1 -1 $-1 $291 $440 #
straight-curve $-1 -1 $-1 0 -40 20 1 0 0 I I #
edge $-1 -1 $-1 $179 -20 $288 20 $176 $441 forward @7 unknown #
edge $-1 -1 $-1 $180 -20 $287 20 $177 $442 forward @7 unknown #
point $-1 -1 $-1 40 -40 20 #
point $-1 -1 $-1 40 40 20 #
face $-1 -1 $-1 $-1 $326 $25 $-1 $443 reversed single #
loop $-1 -1 $-1 $-1 $313 $182 #
plane-surface $-1 -1 $-1 20 0 0 -1 0 0 0 0 1 forward_v I I I I #
coedge $-1 -1 $-1 $444 $185 $190 $319 forward $111 $-1 #
coedge $-1 -1 $-1 $185 $444 $310 $445 forward $111 $-1 #
coedge $-1 -1 $-1 $311 $193 $185 $309 reversed $326 $-1 #
edge $-1 -1 $-1 $446 -20 $328 20 $308 $447 forward @7 unknown #
coedge $-1 -1 $-1 $187 $186 $307 $445 reversed $71 $-1 #
coedge $-1 -1 $-1 $325 $308 $186 $312 reversed $326 $-1 #
edge $448 -1 $-1 $317 -65 $446 -35 $311 $449 forward @7 unknown #
coedge $-1 -1 $-1 $321 $320 $187 $314 reversed $304 $-1 #
edge $450 -1 $-1 $451 35 $316 65 $313 $452 forward @7 unknown #
convexity-sys-attrib $-1 -1 $-1 $-1 $189 #
vertex $-1 -1 $-1 $331 $453 #
vertex $-1 -1 $-1 $189 $454 #
straight-curve $-1 -1 $-1 0 20 -120 -1 0 0 I I #
edge $-1 -1 $-1 $328 -20 $323 20 $306 $455 forward @7 unknown #
coedge $-1 -1 $-1 $313 $191 $196 $331 reversed $304 $-1 #
coedge $-1 -1 $-1 $191 $313 $444 $456 reversed $304 $-1 #
convexity-sys-attrib $-1 -1 $-1 $-1 $192 #
vertex $-1 -1 $-1 $192 $457 #
straight-curve $-1 -1 $-1 20 -20 -55 0 0 1 I I #
coedge $-1 -1 $-1 $193 $311 $195 $330 reversed $326 $-1 #
loop $-1 -1 $-1 $-1 $311 $303 #
convexity-sys-attrib $-1 -1 $-1 $-1 $194 #
vertex $-1 -1 $-1 $194 $458 #
straight-curve $-1 -1 $-1 -20 -20 -55 0 0 -1 I I #
edge $459 -1 $-1 $198 -20 $317 20 $325 $460 forward @7 unknown #
edge $461 -1 $-1 $316 -20 $199 20 $320 $462 forward @7 unknown #
point $-1 -1 $-1 -20 -20 -120 #
point $-1 -1 $-1 20 -20 -120 #
face $-1 -1 $-1 $-1 $463 $27 $-1 $464 reversed single #
plane-surface $-1 -1 $-1 30 0 20 0 0 1 1 0 0 forward_v I I I I #
coedge $-1 -1 $-1 $211 $465 $213 $352 forward $202 $-1 #
coedge $-1 -1 $-1 $466 $204 $465 $467 reversed $119 $-1 #
coedge $-1 -1 $-1 $204 $466 $205 $342 forward $119 $-1 #
coedge $-1 -1 $-1 $207 $213 $204 $340 reversed $214 $-1 #
edge $-1 -1 $-1 $343 -10 $468 10 $204 $469 forward @7 unknown #
coedge $-1 -1 $-1 $206 $205 $470 $471 reversed $75 $-1 #
edge $-1 -1 $-1 $472 0 $343 20 $338 $473 forward @7 unknown #
vertex $-1 -1 $-1 $342 $474 #
straight-curve $-1 -1 $-1 15 10 20 1 0 0 I I #
coedge $-1 -1 $-1 $470 $475 $209 $346 forward $463 $-1 #
edge $476 -1 $-1 $350 -10 $347 10 $209 $477 forward @7 unknown #
vertex $-1 -1 $-1 $346 $478 #
straight-curve $-1 -1 $-1 20 10 0 0 0 1 I I #
coedge $-1 -1 $-1 $465 $211 $475 $479 reversed $202 $-1 #
vertex $-1 -1 $-1 $479 $480 #
straight-curve $-1 -1 $-1 20 -10 0 0 0 1 I I #
edge $-1 -1 $-1 $468 -25 $215 -5 $336 $481 forward @7 unknown #
point $-1 -1 $-1 20 -10 20 #
point $-1 -1 $-1 20 10 20 #
face $-1 -1 $-1 $-1 $482 $29 $-1 $483 reversed single #
plane-surface $-1 -1 $-1 -30 0 20 0 0 1 1 0 0 forward_v I I I I #
coedge $-1 -1 $-1 $228 $484 $230 $373 forward $219 $-1 #
coedge $-1 -1 $-1 $485 $221 $484 $486 reversed $127 $-1 #
coedge $-1 -1 $-1 $221 $485 $222 $363 forward $127 $-1 #
coedge $-1 -1 $-1 $224 $230 $221 $361 reversed $231 $-1 #
edge $-1 -1 $-1 $364 -10 $487 10 $221 $488 forward @7 unknown #
coedge $-1 -1 $-1 $223 $222 $489 $490 reversed $79 $-1 #
edge $-1 -1 $-1 $491 0 $364 20 $359 $492 forward @7 unknown #
vertex $-1 -1 $-1 $363 $493 #
straight-curve $-1 -1 $-1 -15 -10 20 -1 0 0 I I #
coedge $-1 -1 $-1 $489 $494 $226 $367 forward $482 $-1 #
edge $495 -1 $-1 $371 -10 $368 10 $226 $496 forward @7 unknown #
vertex $-1 -1 $-1 $367 $497 #
straight-curve $-1 -1 $-1 -20 -10 0 0 0 1 I I #
coedge $-1 -1 $-1 $484 $228 $494 $498 reversed $219 $-1 #
vertex $-1 -1 $-1 $498 $499 #
straight-curve $-1 -1 $-1 -20 10 0 0 0 1 I I #
edge $-1 -1 $-1 $487 -25 $232 -5 $357 $500 forward @7 unknown #
point $-1 -1 $-1 -20 10 20 #
point $-1 -1 $-1 -20 -10 20 #
model_id-kcp-attrib $-1 -1 $-1 $-1 $236 1 1021384623 1021384623 -164429823 8 #
face $501 -1 $-1 $502 $503 $9 $-1 $379 forward single #
loop $-1 -1 $-1 $-1 $504 $236 #
plane-surface $-1 -1 $-1 0 0 0 0 0 1 1 0 0 forward_v I I I I #
coedge $-1 -1 $-1 $505 $506 $507 $508 reversed $237 $-1 #
loop $-1 -1 $-1 $-1 $245 $83 #
coedge $-1 -1 $-1 $252 $240 $509 $510 forward $136 $-1 #
coedge $-1 -1 $-1 $511 $241 $512 $513 reversed $84 $-1 #
coedge $-1 -1 $-1 $514 $515 $241 $385 forward $516 $-1 #
edge $517 -1 $-1 $518 -20 $392 20 $241 $519 forward @7 unknown #
coedge $-1 -1 $-1 $242 $520 $521 $522 reversed $84 $-1 #
coedge $-1 -1 $-1 $523 $524 $242 $388 reversed $525 $-1 #
edge $526 -1 $-1 $527 -20 $393 20 $387 $528 forward @7 unknown #
coedge $-1 -1 $-1 $507 $243 $524 $529 forward $239 $-1 #
coedge $-1 -1 $-1 $243 $507 $514 $530 forward $239 $-1 #
attrib_edge_convexity-kcp-attrib $-1 -1 $531 $-1 $244 1 #
vertex $-1 -1 $-1 $244 $532 #
vertex $-1 -1 $-1 $529 $533 #
straight-curve $-1 -1 $-1 -40 0 -20 0 1 0 I I #
coedge $-1 -1 $-1 $420 $245 $413 $534 forward $381 $-1 #
attrib_edge_convexity-kcp-attrib $-1 -1 $535 $-1 $246 1 #
vertex $-1 -1 $-1 $534 $536 #
straight-curve $-1 -1 $-1 0 5 -20 1 0 0 I I #
convexity-sys-attrib $-1 -1 $-1 $247 $140 #
point $-1 -1 $-1 -20 5 -20 #
coedge $-1 -1 $-1 $537 $250 $252 $404 reversed $261 $-1 #
attrib_edge_convexity-kcp-attrib $-1 -1 $538 $-1 $251 2 #
straight-curve $-1 -1 $-1 20 -5 -7.5 0 0 -1 I I #
edge $539 -1 $-1 $540 -20 $254 -5 $252 $541 forward @7 unknown #
convexity-sys-attrib $-1 -1 $-1 $253 $143 #
point $-1 -1 $-1 20 -5 -20 #
coedge $-1 -1 $-1 $256 $542 $543 $544 reversed $96 $-1 #
coedge $-1 -1 $-1 $545 $509 $256 $409 reversed $546 $-1 #
edge $547 -1 $-1 $548 -20 $411 20 $256 $549 forward @7 unknown #
attrib_edge_convexity-kcp-attrib $-1 -1 $550 $-1 $257 1 #
vertex $-1 -1 $-1 $510 $551 #
straight-curve $-1 -1 $-1 -20 0 -20 0 -1 0 I I #
coedge $-1 -1 $-1 $260 $552 $395 $534 reversed $261 $-1 #
convexity-sys-attrib $-1 -1 $-1 $262 $149 #
attrib_edge_convexity-kcp-attrib $-1 -1 $553 $-1 $266 2 #
straight-curve $-1 -1 $-1 20 5 -7.5 0 0 1 I I #
coedge $-1 -1 $-1 $554 $269 $555 $556 reversed $96 $-1 #
coedge $-1 -1 $-1 $557 $558 $269 $419 forward $559 $-1 #
edge $560 -1 $-1 $561 -20 $422 20 $418 $562 forward @7 unknown #
coedge $-1 -1 $-1 $270 $395 $557 $563 forward $381 $-1 #
attrib_edge_convexity-kcp-attrib $-1 -1 $564 $-1 $271 1 #
vertex $-1 -1 $-1 $271 $565 #
model_id-kcp-attrib $-1 -1 $-1 $-1 $273 1 1021384623 1021384623 -164429823 15 #
face $566 -1 $-1 $567 $568 $9 $-1 $569 forward single #
plane-surface $-1 -1 $-1 20 0 0 -1 0 0 0 0 1 forward_v I I I I #
model_id-kcp-attrib $-1 -1 $-1 $-1 $276 1 1021384623 1021384623 -164429822 4 #
plane-surface $-1 -1 $-1 40 0 0 -1 0 0 0 0 1 forward_v I I I I #
coedge $-1 -1 $-1 $281 $279 $283 $432 reversed $164 $-1 #
edge $-1 -1 $-1 $294 -20 $434 20 $293 $570 forward @7 unknown #
vertex $-1 -1 $-1 $432 $571 #
straight-curve $-1 -1 $-1 -40 -40 0 0 0 -1 I I #
edge $-1 -1 $-1 $430 -40 $434 40 $428 $572 forward @7 unknown #
straight-curve $-1 -1 $-1 0 -40 -20 -1 0 0 I I #
vertex $-1 -1 $-1 $286 $573 #
straight-curve $-1 -1 $-1 0 40 -20 1 0 0 I I #
point $-1 -1 $-1 40 40 -20 #
point $-1 -1 $-1 40 -40 -20 #
straight-curve $-1 -1 $-1 -40 0 20 0 -1 0 I I #
point $-1 -1 $-1 -40 40 20 #
point $-1 -1 $-1 -40 -40 20 #
straight-curve $-1 -1 $-1 40 -40 0 0 0 -1 I I #
straight-curve $-1 -1 $-1 40 40 0 0 0 -1 I I #
plane-surface $-1 -1 $-1 -20 0 0 1 0 0 0 0 -1 forward_v I I I I #
coedge $-1 -1 $-1 $307 $306 $321 $456 forward $111 $-1 #
edge $-1 -1 $-1 $451 -20 $446 20 $307 $574 forward @7 unknown #
vertex $-1 -1 $-1 $312 $575 #
straight-curve $-1 -1 $-1 -20 0 -90 0 -1 0 I I #
convexity-sys-attrib $-1 -1 $-1 $-1 $312 #
straight-curve $-1 -1 $-1 -20 20 -55 0 0 1 I I #
convexity-sys-attrib $-1 -1 $-1 $-1 $314 #
vertex $-1 -1 $-1 $314 $576 #
straight-curve $-1 -1 $-1 20 20 -55 0 0 -1 I I #
point $-1 -1 $-1 20 20 -120 #
point $-1 -1 $-1 -20 20 -120 #
straight-curve $-1 -1 $-1 0 -20 -90 1 0 0 I I #
edge $-1 -1 $-1 $323 -20 $451 20 $321 $577 forward @7 unknown #
point $-1 -1 $-1 20 -20 -90 #
point $-1 -1 $-1 -20 -20 -90 #
convexity-sys-attrib $-1 -1 $-1 $-1 $330 #
straight-curve $-1 -1 $-1 -20 0 -120 0 1 0 I I #
convexity-sys-attrib $-1 -1 $-1 $-1 $331 #
straight-curve $-1 -1 $-1 20 0 -120 0 -1 0 I I #
loop $-1 -1 $-1 $-1 $475 $334 #
plane-surface $-1 -1 $-1 30 0 0 0 0 1 1 0 0 forward_v I I I I #
coedge $-1 -1 $-1 $336 $349 $337 $467 forward $202 $-1 #
coedge $-1 -1 $-1 $338 $337 $578 $579 reversed $119 $-1 #
edge $-1 -1 $-1 $580 0 $468 20 $465 $581 forward @7 unknown #
vertex $-1 -1 $-1 $467 $582 #
straight-curve $-1 -1 $-1 40 0 20 0 -1 0 I I #
coedge $-1 -1 $-1 $578 $345 $341 $471 forward $463 $-1 #
edge $583 -1 $-1 $347 5 $472 25 $341 $584 forward @7 unknown #
vertex $-1 -1 $-1 $471 $585 #
straight-curve $-1 -1 $-1 40 10 0 0 0 1 I I #
point $-1 -1 $-1 40 10 20 #
coedge $-1 -1 $-1 $345 $578 $349 $479 forward $463 $-1 #
convexity-sys-attrib $-1 -1 $-1 $-1 $346 #
straight-curve $-1 -1 $-1 20 0 0 0 1 0 I I #
point $-1 -1 $-1 20 10 0 #
edge $586 -1 $-1 $580 -25 $350 -5 $349 $587 forward @7 unknown #
point $-1 -1 $-1 20 -10 0 #
straight-curve $-1 -1 $-1 15 -10 20 -1 0 0 I I #
loop $-1 -1 $-1 $-1 $494 $355 #
plane-surface $-1 -1 $-1 -30 0 0 0 0 1 1 0 0 forward_v I I I I #
coedge $-1 -1 $-1 $357 $370 $358 $486 forward $219 $-1 #
coedge $-1 -1 $-1 $359 $358 $588 $589 reversed $127 $-1 #
edge $-1 -1 $-1 $590 0 $487 20 $484 $591 forward @7 unknown #
vertex $-1 -1 $-1 $486 $592 #
straight-curve $-1 -1 $-1 -40 0 20 0 1 0 I I #
coedge $-1 -1 $-1 $588 $366 $362 $490 forward $482 $-1 #
edge $593 -1 $-1 $368 5 $491 25 $362 $594 forward @7 unknown #
vertex $-1 -1 $-1 $490 $595 #
straight-curve $-1 -1 $-1 -40 -10 0 0 0 1 I I #
point $-1 -1 $-1 -40 -10 20 #
coedge $-1 -1 $-1 $366 $588 $370 $498 forward $482 $-1 #
convexity-sys-attrib $-1 -1 $-1 $-1 $367 #
straight-curve $-1 -1 $-1 -20 0 0 0 -1 0 I I #
point $-1 -1 $-1 -20 -10 0 #
edge $596 -1 $-1 $590 -25 $371 -5 $370 $597 forward @7 unknown #
point $-1 -1 $-1 -20 10 0 #
straight-curve $-1 -1 $-1 -15 10 20 1 0 0 I I #
model_id-kcp-attrib $-1 -1 $-1 $-1 $377 1 1021384623 1021384623 -164429823 9 #
face $598 -1 $-1 $599 $600 $9 $-1 $601 forward single #
loop $-1 -1 $-1 $-1 $602 $377 #
coedge $-1 -1 $-1 $603 $604 $605 $606 reversed $378 $-1 #
coedge $-1 -1 $-1 $607 $380 $608 $609 reversed $237 $-1 #
coedge $-1 -1 $-1 $380 $610 $611 $612 forward $237 $-1 #
coedge $-1 -1 $-1 $390 $389 $380 $508 forward $239 $-1 #
edge $613 -1 $-1 $614 -40 $615 40 $380 $616 forward @7 unknown #
coedge $-1 -1 $-1 $408 $617 $382 $510 reversed $546 $-1 #
edge $618 -1 $-1 $411 -20 $540 20 $382 $619 forward @7 unknown #
coedge $-1 -1 $-1 $620 $383 $621 $622 forward $84 $-1 #
coedge $-1 -1 $-1 $623 $624 $383 $513 forward $568 $-1 #
edge $625 -1 $-1 $626 10 $518 40 $383 $627 forward @7 unknown #
coedge $-1 -1 $-1 $611 $384 $390 $530 reversed $516 $-1 #
coedge $-1 -1 $-1 $384 $611 $623 $628 reversed $516 $-1 #
loop $-1 -1 $-1 $-1 $384 $629 #
attrib_edge_convexity-kcp-attrib $-1 -1 $630 $-1 $385 1 #
vertex $-1 -1 $-1 $513 $631 #
straight-curve $-1 -1 $-1 -40 -40 0 0 0 -1 I I #
coedge $-1 -1 $-1 $386 $620 $632 $633 forward $84 $-1 #
coedge $-1 -1 $-1 $634 $635 $386 $522 forward $636 $-1 #
edge $637 -1 $-1 $527 -40 $638 -10 $386 $627 forward @7 unknown #
coedge $-1 -1 $-1 $608 $387 $635 $639 reversed $525 $-1 #
coedge $-1 -1 $-1 $387 $608 $389 $529 reversed $525 $-1 #
loop $-1 -1 $-1 $-1 $608 $640 #
attrib_edge_convexity-kcp-attrib $-1 -1 $641 $-1 $388 1 #
vertex $-1 -1 $-1 $639 $642 #
straight-curve $-1 -1 $-1 -40 40 0 0 0 -1 I I #
edge $643 -1 $-1 $393 -40 $614 40 $524 $644 forward @7 unknown #
edge $645 -1 $-1 $615 -40 $392 40 $514 $646 forward @7 unknown #
convexity-sys-attrib $-1 -1 $-1 $391 $244 #
point $-1 -1 $-1 -40 -40 -20 #
point $-1 -1 $-1 -40 40 -20 #
edge $647 -1 $-1 $397 5 $648 20 $395 $541 forward @7 unknown #
convexity-sys-attrib $-1 -1 $-1 $396 $246 #
point $-1 -1 $-1 20 5 -20 #
coedge $-1 -1 $-1 $649 $401 $617 $650 reversed $261 $-1 #
convexity-sys-attrib $-1 -1 $-1 $402 $251 #
attrib_edge_convexity-kcp-attrib $-1 -1 $651 $-1 $404 1 #
vertex $-1 -1 $-1 $510 $652 #
straight-curve $-1 -1 $-1 20 0 -20 0 1 0 I I #
coedge $-1 -1 $-1 $407 $653 $654 $655 forward $96 $-1 #
coedge $-1 -1 $-1 $624 $656 $407 $544 forward $568 $-1 #
edge $-1 -1 $-1 $548 -20 $657 -10 $543 $658 forward @7 unknown #
coedge $-1 -1 $-1 $617 $408 $656 $659 reversed $546 $-1 #
loop $-1 -1 $-1 $-1 $408 $567 #
attrib_edge_convexity-kcp-attrib $-1 -1 $660 $-1 $409 2 #
vertex $-1 -1 $-1 $659 $661 #
straight-curve $-1 -1 $-1 -20 -20 0 0 0 -1 I I #
convexity-sys-attrib $-1 -1 $-1 $410 $257 #
point $-1 -1 $-1 -20 -20 -20 #
coedge $-1 -1 $-1 $413 $662 $663 $664 forward $261 $-1 #
convexity-sys-attrib $-1 -1 $-1 $415 $266 #
coedge $-1 -1 $-1 $653 $417 $665 $666 forward $96 $-1 #
coedge $-1 -1 $-1 $667 $634 $417 $556 forward $636 $-1 #
edge $-1 -1 $-1 $668 10 $561 20 $555 $658 forward @7 unknown #
coedge $-1 -1 $-1 $663 $418 $420 $563 reversed $559 $-1 #
coedge $-1 -1 $-1 $418 $663 $667 $669 reversed $559 $-1 #
loop $-1 -1 $-1 $-1 $663 $670 #
attrib_edge_convexity-kcp-attrib $-1 -1 $671 $-1 $419 2 #
vertex $-1 -1 $-1 $556 $672 #
straight-curve $-1 -1 $-1 -20 20 0 0 0 -1 I I #
edge $673 -1 $-1 $648 -20 $422 20 $420 $674 forward @7 unknown #
convexity-sys-attrib $-1 -1 $-1 $421 $271 #
point $-1 -1 $-1 -20 20 -20 #
model_id-kcp-attrib $-1 -1 $-1 $-1 $424 1 1021384623 1021384623 -164429823 16 #
face $675 -1 $-1 $670 $546 $9 $-1 $676 forward single #
loop $-1 -1 $-1 $-1 $624 $424 #
plane-surface $-1 -1 $-1 0 0 20 0 0 1 1 0 0 forward_v I I I I #
straight-curve $-1 -1 $-1 -40 40 0 0 0 -1 I I #
point $-1 -1 $-1 -40 -40 -20 #
straight-curve $-1 -1 $-1 -40 0 -20 0 1 0 I I #
point $-1 -1 $-1 -40 40 -20 #
straight-curve $-1 -1 $-1 0 20 -90 -1 0 0 I I #
point $-1 -1 $-1 -20 20 -90 #
point $-1 -1 $-1 20 20 -90 #
straight-curve $-1 -1 $-1 20 0 -90 0 1 0 I I #
coedge $-1 -1 $-1 $475 $470 $466 $579 forward $463 $-1 #
edge $677 -1 $-1 $472 -10 $580 10 $466 $678 forward @7 unknown #
vertex $-1 -1 $-1 $479 $679 #
straight-curve $-1 -1 $-1 40 -10 0 0 0 1 I I #
point $-1 -1 $-1 40 -10 20 #
convexity-sys-attrib $-1 -1 $-1 $-1 $471 #
straight-curve $-1 -1 $-1 15 10 0 1 0 0 I I #
point $-1 -1 $-1 40 10 0 #
convexity-sys-attrib $-1 -1 $-1 $-1 $479 #
straight-curve $-1 -1 $-1 15 -10 0 -1 0 0 I I #
coedge $-1 -1 $-1 $494 $489 $485 $589 forward $482 $-1 #
edge $680 -1 $-1 $491 -10 $590 10 $485 $681 forward @7 unknown #
vertex $-1 -1 $-1 $498 $682 #
straight-curve $-1 -1 $-1 -40 10 0 0 0 1 I I #
point $-1 -1 $-1 -40 10 20 #
convexity-sys-attrib $-1 -1 $-1 $-1 $490 #
straight-curve $-1 -1 $-1 -15 -10 0 -1 0 0 I I #
point $-1 -1 $-1 -40 -10 0 #
convexity-sys-attrib $-1 -1 $-1 $-1 $498 #
straight-curve $-1 -1 $-1 -15 10 0 1 0 0 I I #
model_id-kcp-attrib $-1 -1 $-1 $-1 $502 1 1021384623 1021384623 -164429823 10 #
face $683 -1 $-1 $684 $685 $9 $-1 $601 forward single #
loop $-1 -1 $-1 $-1 $686 $502 #
plane-surface $-1 -1 $-1 0 -10 10 0 1 0 0 0 1 forward_v I I I I #
coedge $-1 -1 $-1 $687 $688 $653 $689 reversed $503 $-1 #
coedge $-1 -1 $-1 $690 $504 $691 $692 reversed $378 $-1 #
coedge $-1 -1 $-1 $504 $690 $693 $694 reversed $378 $-1 #
coedge $-1 -1 $-1 $695 $696 $504 $606 forward $261 $-1 #
edge $697 -1 $-1 $698 -10 $699 10 $605 $700 forward @7 unknown #
coedge $-1 -1 $-1 $701 $505 $702 $703 reversed $237 $-1 #
coedge $-1 -1 $-1 $524 $523 $505 $609 forward $525 $-1 #
edge $-1 -1 $-1 $704 -20 $614 20 $505 $705 forward @7 unknown #
coedge $-1 -1 $-1 $506 $706 $707 $708 reversed $237 $-1 #
coedge $-1 -1 $-1 $515 $514 $506 $612 reversed $516 $-1 #
edge $709 -1 $-1 $710 -20 $615 20 $506 $711 forward @7 unknown #
attrib_edge_convexity-kcp-attrib $-1 -1 $712 $-1 $508 1 #
vertex $-1 -1 $-1 $508 $713 #
vertex $-1 -1 $-1 $612 $714 #
straight-curve $-1 -1 $-1 40 0 -20 0 -1 0 I I #
coedge $-1 -1 $-1 $509 $545 $537 $650 forward $546 $-1 #
attrib_edge_convexity-kcp-attrib $-1 -1 $715 $-1 $510 1 #
straight-curve $-1 -1 $-1 0 -20 -20 1 0 0 I I #
coedge $-1 -1 $-1 $520 $511 $716 $717 forward $84 $-1 #
coedge $-1 -1 $-1 $718 $719 $511 $622 reversed $685 $-1 #
edge $720 -1 $-1 $626 -15 $721 5 $511 $722 forward @7 unknown #
coedge $-1 -1 $-1 $707 $512 $515 $628 forward $568 $-1 #
coedge $-1 -1 $-1 $512 $543 $718 $723 forward $568 $-1 #
attrib_edge_convexity-kcp-attrib $-1 -1 $724 $-1 $513 1 #
vertex $-1 -1 $-1 $622 $725 #
straight-curve $-1 -1 $-1 -40 0 20 0 -1 0 I I #
edge $726 -1 $-1 $518 -40 $710 40 $515 $727 forward @7 unknown #
face $728 -1 $-1 $640 $516 $9 $-1 $729 reversed single #
convexity-sys-attrib $-1 -1 $-1 $517 $385 #
point $-1 -1 $-1 -40 -40 20 #
coedge $-1 -1 $-1 $730 $731 $520 $633 reversed $732 $-1 #
edge $733 -1 $-1 $734 -5 $638 15 $520 $735 forward @7 unknown #
coedge $-1 -1 $-1 $555 $521 $731 $736 forward $636 $-1 #
coedge $-1 -1 $-1 $521 $702 $523 $639 forward $636 $-1 #
loop $-1 -1 $-1 $-1 $634 $737 #
attrib_edge_convexity-kcp-attrib $-1 -1 $738 $-1 $522 1 #
vertex $-1 -1 $-1 $522 $739 #
edge $-1 -1 $-1 $704 -40 $527 40 $523 $740 forward @7 unknown #
face $741 -1 $-1 $-1 $525 $9 $-1 $742 reversed single #
convexity-sys-attrib $-1 -1 $-1 $526 $388 #
point $-1 -1 $-1 -40 40 20 #
attrib_edge_convexity-kcp-attrib $-1 -1 $743 $-1 $529 1 #
straight-curve $-1 -1 $-1 0 40 -20 1 0 0 I I #
attrib_edge_convexity-kcp-attrib $-1 -1 $744 $-1 $530 1 #
straight-curve $-1 -1 $-1 0 -40 -20 -1 0 0 I I #
attrib_edge_convexity-kcp-attrib $-1 -1 $745 $-1 $534 1 #
vertex $-1 -1 $-1 $563 $746 #
coedge $-1 -1 $-1 $696 $537 $747 $748 reversed $261 $-1 #
edge $749 -1 $-1 $750 -20 $540 20 $537 $751 forward @7 unknown #
convexity-sys-attrib $-1 -1 $-1 $539 $404 #
point $-1 -1 $-1 20 -20 -20 #
coedge $-1 -1 $-1 $542 $554 $602 $689 forward $96 $-1 #
coedge $-1 -1 $-1 $719 $718 $542 $655 reversed $685 $-1 #
edge $-1 -1 $-1 $752 -5 $657 15 $542 $753 forward @7 unknown #
coedge $-1 -1 $-1 $543 $747 $545 $659 forward $568 $-1 #
vertex $-1 -1 $-1 $544 $754 #
straight-curve $-1 -1 $-1 -20 0 20 0 1 0 I I #
edge $755 -1 $-1 $750 -20 $548 20 $656 $756 forward @7 unknown #
convexity-sys-attrib $-1 -1 $-1 $547 $409 #
point $-1 -1 $-1 -20 -20 20 #
coedge $-1 -1 $-1 $552 $695 $757 $758 reversed $261 $-1 #
coedge $-1 -1 $-1 $558 $557 $552 $664 reversed $559 $-1 #
edge $759 -1 $-1 $760 -20 $648 20 $552 $761 forward @7 unknown #
coedge $-1 -1 $-1 $731 $730 $554 $666 reversed $732 $-1 #
edge $-1 -1 $-1 $668 -15 $762 5 $554 $763 forward @7 unknown #
coedge $-1 -1 $-1 $757 $555 $558 $669 forward $636 $-1 #
vertex $-1 -1 $-1 $736 $764 #
edge $765 -1 $-1 $561 -20 $760 20 $667 $766 forward @7 unknown #
face $767 -1 $-1 $737 $559 $9 $-1 $768 forward single #
convexity-sys-attrib $-1 -1 $-1 $560 $419 #
point $-1 -1 $-1 -20 20 20 #
attrib_edge_convexity-kcp-attrib $-1 -1 $769 $-1 $563 1 #
straight-curve $-1 -1 $-1 0 20 -20 -1 0 0 I I #
model_id-kcp-attrib $-1 -1 $-1 $-1 $567 1 1021384623 1021384623 -164429823 17 #
plane-surface $-1 -1 $-1 0 -20 0 0 1 0 0 0 1 forward_v I I I I #
convexity-sys-attrib $-1 -1 $-1 $-1 $579 #
straight-curve $-1 -1 $-1 40 0 0 0 -1 0 I I #
point $-1 -1 $-1 40 -10 0 #
convexity-sys-attrib $-1 -1 $-1 $-1 $589 #
straight-curve $-1 -1 $-1 -40 0 0 0 1 0 I I #
point $-1 -1 $-1 -40 10 0 #
model_id-kcp-attrib $-1 -1 $-1 $-1 $599 1 1021384623 1021384623 -164429823 11 #
face $770 -1 $-1 $771 $772 $9 $-1 $773 forward single #
loop $-1 -1 $-1 $-1 $654 $599 #
coedge $-1 -1 $-1 $774 $691 $696 $775 reversed $600 $-1 #
coedge $-1 -1 $-1 $716 $602 $730 $776 reversed $503 $-1 #
coedge $-1 -1 $-1 $602 $716 $719 $777 reversed $503 $-1 #
edge $778 -1 $-1 $762 -10 $752 10 $653 $779 forward @7 unknown #
coedge $-1 -1 $-1 $604 $603 $780 $781 reversed $378 $-1 #
coedge $-1 -1 $-1 $686 $782 $603 $692 forward $600 $-1 #
edge $783 -1 $-1 $784 -40 $698 -20 $691 $785 forward @7 unknown #
coedge $-1 -1 $-1 $786 $787 $604 $694 forward $772 $-1 #
edge $788 -1 $-1 $699 20 $789 40 $693 $790 forward @7 unknown #
coedge $-1 -1 $-1 $662 $605 $787 $791 forward $261 $-1 #
coedge $-1 -1 $-1 $605 $649 $686 $775 forward $261 $-1 #
attrib_edge_convexity-kcp-attrib $-1 -1 $792 $-1 $606 1 #
vertex $-1 -1 $-1 $606 $793 #
vertex $-1 -1 $-1 $606 $794 #
straight-curve $-1 -1 $-1 20 0 0 0 1 0 I I #
coedge $-1 -1 $-1 $780 $607 $786 $795 forward $237 $-1 #
coedge $-1 -1 $-1 $635 $796 $607 $703 forward $636 $-1 #
edge $-1 -1 $-1 $797 10 $704 40 $607 $798 forward @7 unknown #
vertex $-1 -1 $-1 $703 $799 #
straight-curve $-1 -1 $-1 40 40 0 0 0 -1 I I #
coedge $-1 -1 $-1 $610 $780 $782 $800 forward $237 $-1 #
coedge $-1 -1 $-1 $801 $623 $610 $708 forward $568 $-1 #
edge $-1 -1 $-1 $710 -40 $802 -10 $610 $798 forward @7 unknown #
attrib_edge_convexity-kcp-attrib $-1 -1 $803 $-1 $612 1 #
vertex $-1 -1 $-1 $708 $804 #
straight-curve $-1 -1 $-1 40 -40 0 0 0 -1 I I #
convexity-sys-attrib $-1 -1 $-1 $613 $508 #
point $-1 -1 $-1 40 40 -20 #
point $-1 -1 $-1 40 -40 -20 #
convexity-sys-attrib $-1 -1 $-1 $618 $510 #
coedge $-1 -1 $-1 $688 $687 $620 $717 reversed $503 $-1 #
edge $805 -1 $-1 $721 -10 $734 10 $620 $806 forward @7 unknown #
coedge $-1 -1 $-1 $654 $621 $624 $723 reversed $685 $-1 #
coedge $-1 -1 $-1 $621 $654 $688 $777 forward $685 $-1 #
attrib_edge_convexity-kcp-attrib $-1 -1 $807 $-1 $622 1 #
vertex $-1 -1 $-1 $717 $808 #
straight-curve $-1 -1 $-1 -40 -10 5 0 0 -1 I I #
edge $-1 -1 $-1 $657 20 $626 40 $624 $809 forward @7 unknown #
convexity-sys-attrib $-1 -1 $-1 $625 $513 #
point $-1 -1 $-1 -40 -10 20 #
attrib_edge_convexity-kcp-attrib $-1 -1 $810 $-1 $628 1 #
straight-curve $-1 -1 $-1 0 -40 20 1 0 0 I I #
model_id-kcp-attrib $-1 -1 $-1 $-1 $629 1 1021384623 1021384623 -164429823 20 #
plane-surface $-1 -1 $-1 0 -40 0 0 1 0 0 0 1 forward_v I I I I #
coedge $-1 -1 $-1 $665 $632 $687 $776 forward $732 $-1 #
coedge $-1 -1 $-1 $632 $665 $634 $736 reversed $732 $-1 #
loop $-1 -1 $-1 $-1 $665 $771 #
attrib_edge_convexity-kcp-attrib $-1 -1 $811 $-1 $633 1 #
vertex $-1 -1 $-1 $717 $812 #
straight-curve $-1 -1 $-1 -40 10 5 0 0 1 I I #
edge $-1 -1 $-1 $638 -40 $668 -20 $634 $813 forward @7 unknown #
face $814 -1 $-1 $629 $636 $9 $-1 $569 forward single #
convexity-sys-attrib $-1 -1 $-1 $637 $522 #
point $-1 -1 $-1 -40 10 20 #
straight-curve $-1 -1 $-1 0 40 20 -1 0 0 I I #
model_id-kcp-attrib $-1 -1 $-1 $-1 $640 1 1021384623 1021384623 -164429823 21 #
plane-surface $-1 -1 $-1 0 40 0 0 -1 0 0 0 -1 forward_v I I I I #
convexity-sys-attrib $-1 -1 $-1 $643 $529 #
convexity-sys-attrib $-1 -1 $-1 $645 $530 #
convexity-sys-attrib $-1 -1 $-1 $647 $534 #
point $-1 -1 $-1 20 20 -20 #
coedge $-1 -1 $-1 $656 $801 $649 $748 forward $568 $-1 #
edge $-1 -1 $-1 $815 10 $750 20 $747 $816 forward @7 unknown #
attrib_edge_convexity-kcp-attrib $-1 -1 $817 $-1 $650 2 #
vertex $-1 -1 $-1 $659 $818 #
straight-curve $-1 -1 $-1 20 -20 0 0 0 -1 I I #
vertex $-1 -1 $-1 $689 $819 #
straight-curve $-1 -1 $-1 -20 -10 5 0 0 1 I I #
point $-1 -1 $-1 -20 -10 20 #
attrib_edge_convexity-kcp-attrib $-1 -1 $820 $-1 $659 1 #
straight-curve $-1 -1 $-1 0 -20 20 -1 0 0 I I #
coedge $-1 -1 $-1 $796 $667 $662 $758 forward $636 $-1 #
edge $-1 -1 $-1 $760 -20 $821 -10 $757 $816 forward @7 unknown #
attrib_edge_convexity-kcp-attrib $-1 -1 $822 $-1 $664 2 #
vertex $-1 -1 $-1 $669 $823 #
straight-curve $-1 -1 $-1 20 20 0 0 0 -1 I I #
vertex $-1 -1 $-1 $689 $824 #
straight-curve $-1 -1 $-1 -20 10 5 0 0 -1 I I #
point $-1 -1 $-1 -20 10 20 #
attrib_edge_convexity-kcp-attrib $-1 -1 $825 $-1 $669 1 #
straight-curve $-1 -1 $-1 0 20 20 1 0 0 I I #
model_id-kcp-attrib $-1 -1 $-1 $-1 $670 1 1021384623 1021384623 -164429823 18 #
plane-surface $-1 -1 $-1 0 20 0 0 -1 0 0 0 -1 forward_v I I I I #
convexity-sys-attrib $-1 -1 $-1 $673 $563 #
model_id-kcp-attrib $-1 -1 $-1 $-1 $684 1 1021384623 1021384623 -164429823 12 #
face $826 -1 $-1 $158 $732 $9 $-1 $773 forward single #
loop $-1 -1 $-1 $-1 $787 $684 #
plane-surface $-1 -1 $-1 0 10 10 0 -1 0 0 0 -1 forward_v I I I I #
coedge $-1 -1 $-1 $782 $686 $801 $827 reversed $600 $-1 #
edge $-1 -1 $-1 $815 -15 $698 5 $696 $828 forward @7 unknown #
edge $829 -1 $-1 $734 -40 $762 -20 $730 $790 forward @7 unknown #
edge $830 -1 $-1 $752 20 $721 40 $719 $785 forward @7 unknown #
attrib_edge_convexity-kcp-attrib $-1 -1 $831 $-1 $689 1 #
straight-curve $-1 -1 $-1 -20 0 0 0 -1 0 I I #
coedge $-1 -1 $-1 $706 $701 $690 $781 forward $237 $-1 #
edge $832 -1 $-1 $789 -10 $784 10 $780 $833 forward @7 unknown #
coedge $-1 -1 $-1 $691 $774 $706 $800 reversed $600 $-1 #
attrib_edge_convexity-kcp-attrib $-1 -1 $834 $-1 $692 2 #
vertex $-1 -1 $-1 $781 $835 #
straight-curve $-1 -1 $-1 0 -10 0 -1 0 0 I I #
coedge $-1 -1 $-1 $836 $693 $701 $795 reversed $772 $-1 #
coedge $-1 -1 $-1 $693 $836 $695 $791 reversed $772 $-1 #
attrib_edge_convexity-kcp-attrib $-1 -1 $837 $-1 $694 2 #
vertex $-1 -1 $-1 $781 $838 #
straight-curve $-1 -1 $-1 0 10 0 1 0 0 I I #
edge $-1 -1 $-1 $699 -5 $821 15 $695 $839 forward @7 unknown #
convexity-sys-attrib $-1 -1 $-1 $697 $606 #
point $-1 -1 $-1 20 -10 0 #
point $-1 -1 $-1 20 10 0 #
edge $-1 -1 $-1 $797 -15 $789 5 $701 $840 forward @7 unknown #
coedge $-1 -1 $-1 $702 $757 $836 $841 forward $636 $-1 #
vertex $-1 -1 $-1 $795 $842 #
straight-curve $-1 -1 $-1 40 0 20 0 1 0 I I #
point $-1 -1 $-1 40 40 20 #
edge $-1 -1 $-1 $784 -5 $802 15 $706 $843 forward @7 unknown #
coedge $-1 -1 $-1 $747 $707 $774 $827 forward $568 $-1 #
vertex $-1 -1 $-1 $708 $844 #
convexity-sys-attrib $-1 -1 $-1 $709 $612 #
point $-1 -1 $-1 40 -40 20 #
attrib_edge_convexity-kcp-attrib $-1 -1 $845 $-1 $717 1 #
straight-curve $-1 -1 $-1 -40 0 0 0 1 0 I I #
convexity-sys-attrib $-1 -1 $-1 $720 $622 #
point $-1 -1 $-1 -40 -10 0 #
straight-curve $-1 -1 $-1 0 -10 20 -1 0 0 I I #
convexity-sys-attrib $-1 -1 $-1 $726 $628 #
convexity-sys-attrib $-1 -1 $-1 $733 $633 #
point $-1 -1 $-1 -40 10 0 #
straight-curve $-1 -1 $-1 0 10 20 1 0 0 I I #
model_id-kcp-attrib $-1 -1 $-1 $-1 $737 1 1021384623 1021384623 -164429823 19 #
vertex $-1 -1 $-1 $827 $846 #
straight-curve $-1 -1 $-1 20 0 20 0 -1 0 I I #
convexity-sys-attrib $-1 -1 $-1 $749 $650 #
point $-1 -1 $-1 20 -20 20 #
point $-1 -1 $-1 -20 -10 0 #
convexity-sys-attrib $-1 -1 $-1 $755 $659 #
vertex $-1 -1 $-1 $758 $847 #
convexity-sys-attrib $-1 -1 $-1 $759 $664 #
point $-1 -1 $-1 20 20 20 #
point $-1 -1 $-1 -20 10 0 #
convexity-sys-attrib $-1 -1 $-1 $765 $669 #
model_id-kcp-attrib $-1 -1 $-1 $-1 $771 1 1021384623 1021384623 -164429823 13 #
edge $-1 -1 $-1 $802 -40 $815 -20 $801 $809 forward @7 unknown #
straight-curve $-1 -1 $-1 20 -10 5 0 0 -1 I I #
attrib_edge_convexity-kcp-attrib $-1 -1 $848 $-1 $776 2 #
attrib_edge_convexity-kcp-attrib $-1 -1 $849 $-1 $777 2 #
convexity-sys-attrib $-1 -1 $-1 $778 $689 #
attrib_edge_convexity-kcp-attrib $-1 -1 $850 $-1 $781 1 #
straight-curve $-1 -1 $-1 40 0 0 0 -1 0 I I #
convexity-sys-attrib $-1 -1 $-1 $783 $692 #
point $-1 -1 $-1 40 -10 0 #
coedge $-1 -1 $-1 $787 $786 $796 $841 reversed $772 $-1 #
convexity-sys-attrib $-1 -1 $-1 $788 $694 #
point $-1 -1 $-1 40 10 0 #
straight-curve $-1 -1 $-1 20 10 5 0 0 1 I I #
straight-curve $-1 -1 $-1 40 10 5 0 0 -1 I I #
edge $-1 -1 $-1 $821 20 $797 40 $796 $813 forward @7 unknown #
point $-1 -1 $-1 40 10 20 #
straight-curve $-1 -1 $-1 40 -10 5 0 0 1 I I #
point $-1 -1 $-1 40 -10 20 #
convexity-sys-attrib $-1 -1 $-1 $805 $717 #
point $-1 -1 $-1 20 -10 20 #
point $-1 -1 $-1 20 10 20 #
convexity-sys-attrib $-1 -1 $-1 $829 $776 #
convexity-sys-attrib $-1 -1 $-1 $830 $777 #
convexity-sys-attrib $-1 -1 $-1 $832 $781 #
End-of-ACIS-data 