600 0 1 0           
81 GICL ACIS Healer - Source: /gicl/data5/repository/Heriot_Watt/ex05/ex05.sat - 6 0 18 ACIS 6.0.3 Solaris 24 Sat Apr 13 23:39:14 2002 
1 9.999999999999999547e-07 1.000000000000000036e-10 
body $-1 $1 $-1 $-1 #
lump $-1 $-1 $2 $0 #
shell $-1 $-1 $-1 $3 $-1 $1 #
face $-1 $4 $5 $2 $-1 $6 forward single #
face $-1 $7 $8 $2 $-1 $9 reversed single #
loop $-1 $-1 $10 $3 #
plane-surface $-1 0 0 -10 0 0 1 1 0 0 forward_v I I I I #
face $-1 $11 $12 $2 $-1 $13 reversed single #
loop $-1 $-1 $14 $4 #
plane-surface $-1 0 -5 -15 0 1 0 0 0 1 forward_v I I I I #
coedge $-1 $15 $16 $17 $18 reversed $5 $-1 #
face $-1 $19 $20 $2 $-1 $21 reversed single #
loop $-1 $-1 $22 $7 #
plane-surface $-1 0 5 -15 0 -1 0 0 0 -1 forward_v I I I I #
coedge $-1 $23 $24 $25 $26 reversed $8 $-1 #
coedge $-1 $27 $10 $24 $28 forward $5 $-1 #
coedge $-1 $10 $27 $29 $30 forward $5 $-1 #
coedge $-1 $31 $25 $10 $18 forward $32 $-1 #
edge $-1 $33 -5 $34 5 $17 $35 forward 7 unknown #
face $-1 $36 $37 $2 $-1 $38 reversed single #
loop $-1 $-1 $39 $11 #
plane-surface $-1 -40 0 0 1 0 0 0 0 -1 forward_v I I I I #
coedge $-1 $29 $40 $31 $41 reversed $12 $-1 #
coedge $-1 $42 $14 $43 $44 reversed $8 $-1 #
coedge $-1 $14 $42 $15 $28 reversed $8 $-1 #
coedge $-1 $17 $45 $14 $26 forward $32 $-1 #
edge $-1 $46 -12.5 $33 -2.5 $25 $47 forward 7 unknown #
coedge $-1 $16 $15 $48 $49 reversed $5 $-1 #
edge $-1 $33 -20 $50 20 $24 $51 forward 7 unknown #
coedge $-1 $52 $22 $16 $30 reversed $12 $-1 #
edge $-1 $53 -20 $34 20 $29 $54 forward 7 unknown #
coedge $-1 $55 $17 $22 $41 forward $32 $-1 #
loop $-1 $-1 $31 $56 #
vertex $-1 $18 $57 #
vertex $-1 $18 $58 #
straight-curve $-1 -20 0 -10 0 1 0 I I #
face $-1 $59 $60 $2 $-1 $61 reversed single #
loop $-1 $62 $63 $19 #
plane-surface $-1 0 0 -20 0 0 1 1 0 0 forward_v I I I I #
coedge $-1 $64 $65 $66 $67 reversed $20 $-1 #
coedge $-1 $22 $52 $68 $69 reversed $12 $-1 #
edge $-1 $34 2.5 $70 12.5 $31 $71 forward 7 unknown #
coedge $-1 $24 $23 $72 $73 reversed $8 $-1 #
coedge $-1 $63 $74 $23 $44 forward $37 $-1 #
edge $-1 $75 -20 $46 20 $23 $76 forward 7 unknown #
coedge $-1 $25 $77 $63 $78 reversed $32 $-1 #
vertex $-1 $78 $79 #
straight-curve $-1 -20 -5 -7.5 0 0 1 I I #
coedge $-1 $72 $80 $27 $49 forward $81 $-1 #
edge $-1 $53 -5 $50 5 $48 $82 forward 7 unknown #
vertex $-1 $49 $83 #
straight-curve $-1 0 -5 -10 1 0 0 I I #
coedge $-1 $40 $29 $80 $84 reversed $12 $-1 #
vertex $-1 $49 $85 #
straight-curve $-1 0 5 -10 -1 0 0 I I #
coedge $-1 $86 $31 $87 $88 reversed $32 $-1 #
face $-1 $89 $32 $2 $-1 $90 forward single #
point $-1 -20 -5 -10 #
point $-1 -20 5 -10 #
face $-1 $91 $92 $2 $-1 $93 forward single #
loop $-1 $-1 $94 $36 #
plane-surface $-1 40 0 0 -1 0 0 0 0 1 forward_v I I I I #
loop $-1 $95 $66 $19 #
coedge $-1 $96 $43 $45 $78 forward $37 $-1 #
coedge $-1 $97 $39 $98 $99 reversed $20 $-1 #
coedge $-1 $39 $100 $101 $102 forward $20 $-1 #
coedge $-1 $103 $104 $39 $67 forward $62 $-1 #
edge $-1 $105 -40 $106 40 $39 $107 forward 7 unknown #
coedge $-1 $108 $87 $40 $69 forward $95 $-1 #
edge $-1 $70 -20 $109 20 $40 $110 forward 7 unknown #
vertex $-1 $88 $111 #
straight-curve $-1 -20 5 -7.5 0 0 -1 I I #
coedge $-1 $112 $48 $42 $73 forward $81 $-1 #
edge $-1 $50 2.5 $75 12.5 $72 $113 forward 7 unknown #
coedge $-1 $43 $96 $112 $114 forward $37 $-1 #
vertex $-1 $114 $115 #
straight-curve $-1 0 -5 -20 -1 0 0 I I #
coedge $-1 $45 $116 $117 $118 forward $32 $-1 #
edge $-1 $46 5 $119 20 $63 $120 forward 7 unknown #
point $-1 -20 -5 -20 #
coedge $-1 $48 $121 $52 $84 forward $81 $-1 #
loop $-1 $-1 $72 $89 #
straight-curve $-1 20 0 -10 0 -1 0 I I #
point $-1 20 -5 -10 #
edge $-1 $109 -12.5 $53 -2.5 $80 $122 forward 7 unknown #
point $-1 20 5 -10 #
coedge $-1 $123 $55 $124 $125 reversed $32 $-1 #
coedge $-1 $68 $126 $55 $88 forward $95 $-1 #
edge $-1 $127 -20 $70 -5 $87 $120 forward 7 unknown #
face $-1 $128 $81 $2 $-1 $129 forward single #
plane-surface $-1 -20 0 0 1 0 0 0 0 -1 forward_v I I I I #
face $-1 $130 $131 $2 $-1 $93 forward single #
loop $-1 $-1 $132 $59 #
plane-surface $-1 0 0 0 0 0 1 1 0 0 forward_v I I I I #
coedge $-1 $133 $134 $135 $136 reversed $60 $-1 #
loop $-1 $-1 $68 $19 #
coedge $-1 $74 $63 $137 $138 forward $37 $-1 #
coedge $-1 $139 $64 $140 $141 reversed $20 $-1 #
coedge $-1 $142 $143 $64 $99 forward $144 $-1 #
edge $-1 $145 -20 $105 20 $64 $146 forward 7 unknown #
coedge $-1 $65 $147 $148 $149 reversed $20 $-1 #
coedge $-1 $150 $151 $65 $102 reversed $152 $-1 #
edge $-1 $153 -20 $106 20 $101 $154 forward 7 unknown #
coedge $-1 $135 $66 $151 $155 forward $62 $-1 #
coedge $-1 $66 $135 $142 $156 forward $62 $-1 #
vertex $-1 $67 $157 #
vertex $-1 $155 $158 #
straight-curve $-1 -40 0 -20 0 1 0 I I #
coedge $-1 $126 $68 $121 $159 forward $95 $-1 #
vertex $-1 $159 $160 #
straight-curve $-1 0 5 -20 1 0 0 I I #
point $-1 -20 5 -20 #
coedge $-1 $161 $72 $74 $114 reversed $81 $-1 #
straight-curve $-1 20 -5 -7.5 0 0 -1 I I #
edge $-1 $162 -20 $75 -5 $74 $163 forward 7 unknown #
point $-1 20 -5 -20 #
coedge $-1 $77 $164 $165 $166 reversed $32 $-1 #
coedge $-1 $167 $137 $77 $118 reversed $168 $-1 #
edge $-1 $169 -20 $119 20 $77 $170 forward 7 unknown #
vertex $-1 $138 $171 #
straight-curve $-1 -20 0 -20 0 -1 0 I I #
coedge $-1 $80 $172 $108 $159 reversed $81 $-1 #
straight-curve $-1 20 5 -7.5 0 0 1 I I #
coedge $-1 $173 $86 $174 $175 reversed $32 $-1 #
coedge $-1 $176 $177 $86 $125 forward $178 $-1 #
edge $-1 $179 -20 $127 20 $124 $180 forward 7 unknown #
coedge $-1 $87 $108 $176 $181 forward $95 $-1 #
vertex $-1 $88 $182 #
face $-1 $183 $184 $2 $-1 $185 forward single #
plane-surface $-1 20 0 0 -1 0 0 0 0 1 forward_v I I I I #
face $-1 $186 $187 $2 $-1 $188 forward single #
loop $-1 $-1 $189 $91 #
coedge $-1 $190 $191 $192 $193 reversed $92 $-1 #
coedge $-1 $194 $94 $195 $196 reversed $60 $-1 #
coedge $-1 $94 $197 $198 $199 forward $60 $-1 #
coedge $-1 $104 $103 $94 $136 forward $62 $-1 #
edge $-1 $200 -40 $201 40 $94 $202 forward 7 unknown #
coedge $-1 $117 $203 $96 $138 reversed $168 $-1 #
edge $-1 $119 -20 $162 20 $96 $204 forward 7 unknown #
coedge $-1 $205 $97 $206 $207 forward $20 $-1 #
coedge $-1 $208 $209 $97 $141 forward $184 $-1 #
edge $-1 $210 10 $145 40 $97 $211 forward 7 unknown #
coedge $-1 $198 $98 $104 $156 reversed $144 $-1 #
coedge $-1 $98 $198 $208 $212 reversed $144 $-1 #
loop $-1 $-1 $98 $213 #
vertex $-1 $141 $214 #
straight-curve $-1 -40 -40 0 0 0 -1 I I #
coedge $-1 $100 $205 $215 $216 forward $20 $-1 #
coedge $-1 $217 $218 $100 $149 forward $219 $-1 #
edge $-1 $153 -40 $220 -10 $100 $211 forward 7 unknown #
coedge $-1 $195 $101 $218 $221 reversed $152 $-1 #
coedge $-1 $101 $195 $103 $155 reversed $152 $-1 #
loop $-1 $-1 $195 $222 #
vertex $-1 $221 $223 #
straight-curve $-1 -40 40 0 0 0 -1 I I #
edge $-1 $106 -40 $200 40 $151 $224 forward 7 unknown #
edge $-1 $201 -40 $105 40 $142 $225 forward 7 unknown #
point $-1 -40 -40 -20 #
point $-1 -40 40 -20 #
edge $-1 $109 5 $226 20 $108 $163 forward 7 unknown #
point $-1 20 5 -20 #
coedge $-1 $227 $112 $203 $228 reversed $81 $-1 #
vertex $-1 $138 $229 #
straight-curve $-1 20 0 -20 0 1 0 I I #
coedge $-1 $116 $230 $231 $232 forward $32 $-1 #
coedge $-1 $209 $233 $116 $166 forward $184 $-1 #
edge $-1 $169 -20 $234 -10 $165 $235 forward 7 unknown #
coedge $-1 $203 $117 $233 $236 reversed $168 $-1 #
loop $-1 $-1 $117 $183 #
vertex $-1 $236 $237 #
straight-curve $-1 -20 -20 0 0 0 -1 I I #
point $-1 -20 -20 -20 #
coedge $-1 $121 $238 $239 $240 forward $81 $-1 #
coedge $-1 $230 $123 $241 $242 forward $32 $-1 #
coedge $-1 $243 $217 $123 $175 forward $219 $-1 #
edge $-1 $244 10 $179 20 $174 $235 forward 7 unknown #
coedge $-1 $239 $124 $126 $181 reversed $178 $-1 #
coedge $-1 $124 $239 $243 $245 reversed $178 $-1 #
loop $-1 $-1 $239 $246 #
vertex $-1 $175 $247 #
straight-curve $-1 -20 20 0 0 0 -1 I I #
edge $-1 $226 -20 $127 20 $126 $248 forward 7 unknown #
point $-1 -20 20 -20 #
face $-1 $246 $168 $2 $-1 $249 forward single #
loop $-1 $-1 $209 $128 #
plane-surface $-1 0 0 20 0 0 1 1 0 0 forward_v I I I I #
face $-1 $250 $251 $2 $-1 $188 forward single #
loop $-1 $-1 $252 $130 #
plane-surface $-1 0 -10 10 0 1 0 0 0 1 forward_v I I I I #
coedge $-1 $253 $254 $230 $255 reversed $131 $-1 #
coedge $-1 $256 $132 $257 $258 reversed $92 $-1 #
coedge $-1 $132 $256 $259 $260 reversed $92 $-1 #
coedge $-1 $261 $262 $132 $193 forward $81 $-1 #
edge $-1 $263 -10 $264 10 $192 $265 forward 7 unknown #
coedge $-1 $266 $133 $267 $268 reversed $60 $-1 #
coedge $-1 $151 $150 $133 $196 forward $152 $-1 #
edge $-1 $269 -20 $200 20 $133 $270 forward 7 unknown #
coedge $-1 $134 $271 $272 $273 reversed $60 $-1 #
coedge $-1 $143 $142 $134 $199 reversed $144 $-1 #
edge $-1 $274 -20 $201 20 $134 $275 forward 7 unknown #
vertex $-1 $136 $276 #
vertex $-1 $199 $277 #
straight-curve $-1 40 0 -20 0 -1 0 I I #
coedge $-1 $137 $167 $161 $228 forward $168 $-1 #
straight-curve $-1 0 -20 -20 1 0 0 I I #
coedge $-1 $147 $139 $278 $279 forward $20 $-1 #
coedge $-1 $280 $281 $139 $207 reversed $251 $-1 #
edge $-1 $210 -15 $282 5 $139 $283 forward 7 unknown #
coedge $-1 $272 $140 $143 $212 forward $184 $-1 #
coedge $-1 $140 $165 $280 $284 forward $184 $-1 #
vertex $-1 $207 $285 #
straight-curve $-1 -40 0 20 0 -1 0 I I #
edge $-1 $145 -40 $274 40 $143 $286 forward 7 unknown #
face $-1 $222 $144 $2 $-1 $287 reversed single #
point $-1 -40 -40 20 #
coedge $-1 $288 $289 $147 $216 reversed $290 $-1 #
edge $-1 $291 -5 $220 15 $147 $292 forward 7 unknown #
coedge $-1 $174 $148 $289 $293 forward $219 $-1 #
coedge $-1 $148 $267 $150 $221 forward $219 $-1 #
loop $-1 $-1 $217 $294 #
vertex $-1 $149 $295 #
edge $-1 $269 -40 $153 40 $150 $296 forward 7 unknown #
face $-1 $-1 $152 $2 $-1 $297 reversed single #
point $-1 -40 40 20 #
straight-curve $-1 0 40 -20 1 0 0 I I #
straight-curve $-1 0 -40 -20 -1 0 0 I I #
vertex $-1 $181 $298 #
coedge $-1 $262 $161 $299 $300 reversed $81 $-1 #
edge $-1 $301 -20 $162 20 $161 $302 forward 7 unknown #
point $-1 20 -20 -20 #
coedge $-1 $164 $173 $189 $255 forward $32 $-1 #
coedge $-1 $281 $280 $164 $232 reversed $251 $-1 #
edge $-1 $303 -5 $234 15 $164 $304 forward 7 unknown #
coedge $-1 $165 $299 $167 $236 forward $184 $-1 #
vertex $-1 $166 $305 #
straight-curve $-1 -20 0 20 0 1 0 I I #
edge $-1 $301 -20 $169 20 $233 $306 forward 7 unknown #
point $-1 -20 -20 20 #
coedge $-1 $172 $261 $307 $308 reversed $81 $-1 #
coedge $-1 $177 $176 $172 $240 reversed $178 $-1 #
edge $-1 $309 -20 $226 20 $172 $310 forward 7 unknown #
coedge $-1 $289 $288 $173 $242 reversed $290 $-1 #
edge $-1 $244 -15 $311 5 $173 $312 forward 7 unknown #
coedge $-1 $307 $174 $177 $245 forward $219 $-1 #
vertex $-1 $293 $313 #
edge $-1 $179 -20 $309 20 $243 $314 forward 7 unknown #
face $-1 $294 $178 $2 $-1 $315 forward single #
point $-1 -20 20 20 #
straight-curve $-1 0 20 -20 -1 0 0 I I #
plane-surface $-1 0 -20 0 0 1 0 0 0 1 forward_v I I I I #
face $-1 $316 $317 $2 $-1 $318 forward single #
loop $-1 $-1 $231 $186 #
coedge $-1 $319 $257 $262 $320 reversed $187 $-1 #
coedge $-1 $278 $189 $288 $321 reversed $131 $-1 #
coedge $-1 $189 $278 $281 $322 reversed $131 $-1 #
edge $-1 $311 -10 $303 10 $230 $323 forward 7 unknown #
coedge $-1 $191 $190 $324 $325 reversed $92 $-1 #
coedge $-1 $252 $326 $190 $258 forward $187 $-1 #
edge $-1 $327 -40 $263 -20 $257 $328 forward 7 unknown #
coedge $-1 $329 $330 $191 $260 forward $317 $-1 #
edge $-1 $264 20 $331 40 $259 $332 forward 7 unknown #
coedge $-1 $238 $192 $330 $333 forward $81 $-1 #
coedge $-1 $192 $227 $252 $320 forward $81 $-1 #
vertex $-1 $193 $334 #
vertex $-1 $193 $335 #
straight-curve $-1 20 0 0 0 1 0 I I #
coedge $-1 $324 $194 $329 $336 forward $60 $-1 #
coedge $-1 $218 $337 $194 $268 forward $219 $-1 #
edge $-1 $338 10 $269 40 $194 $339 forward 7 unknown #
vertex $-1 $268 $340 #
straight-curve $-1 40 40 0 0 0 -1 I I #
coedge $-1 $197 $324 $326 $341 forward $60 $-1 #
coedge $-1 $342 $208 $197 $273 forward $184 $-1 #
edge $-1 $274 -40 $343 -10 $197 $339 forward 7 unknown #
vertex $-1 $273 $344 #
straight-curve $-1 40 -40 0 0 0 -1 I I #
point $-1 40 40 -20 #
point $-1 40 -40 -20 #
coedge $-1 $254 $253 $205 $279 reversed $131 $-1 #
edge $-1 $282 -10 $291 10 $205 $345 forward 7 unknown #
coedge $-1 $231 $206 $209 $284 reversed $251 $-1 #
coedge $-1 $206 $231 $254 $322 forward $251 $-1 #
vertex $-1 $279 $346 #
straight-curve $-1 -40 -10 5 0 0 -1 I I #
edge $-1 $234 20 $210 40 $209 $347 forward 7 unknown #
point $-1 -40 -10 20 #
straight-curve $-1 0 -40 20 1 0 0 I I #
plane-surface $-1 0 -40 0 0 1 0 0 0 1 forward_v I I I I #
coedge $-1 $241 $215 $253 $321 forward $290 $-1 #
coedge $-1 $215 $241 $217 $293 reversed $290 $-1 #
loop $-1 $-1 $241 $316 #
vertex $-1 $279 $348 #
straight-curve $-1 -40 10 5 0 0 1 I I #
edge $-1 $220 -40 $244 -20 $217 $349 forward 7 unknown #
face $-1 $213 $219 $2 $-1 $185 forward single #
point $-1 -40 10 20 #
straight-curve $-1 0 40 20 -1 0 0 I I #
plane-surface $-1 0 40 0 0 -1 0 0 0 -1 forward_v I I I I #
point $-1 20 20 -20 #
coedge $-1 $233 $342 $227 $300 forward $184 $-1 #
edge $-1 $350 10 $301 20 $299 $351 forward 7 unknown #
vertex $-1 $236 $352 #
straight-curve $-1 20 -20 0 0 0 -1 I I #
vertex $-1 $255 $353 #
straight-curve $-1 -20 -10 5 0 0 1 I I #
point $-1 -20 -10 20 #
straight-curve $-1 0 -20 20 -1 0 0 I I #
coedge $-1 $337 $243 $238 $308 forward $219 $-1 #
edge $-1 $309 -20 $354 -10 $307 $351 forward 7 unknown #
vertex $-1 $245 $355 #
straight-curve $-1 20 20 0 0 0 -1 I I #
vertex $-1 $255 $356 #
straight-curve $-1 -20 10 5 0 0 -1 I I #
point $-1 -20 10 20 #
straight-curve $-1 0 20 20 1 0 0 I I #
plane-surface $-1 0 20 0 0 -1 0 0 0 -1 forward_v I I I I #
face $-1 $56 $290 $2 $-1 $318 forward single #
loop $-1 $-1 $330 $250 #
plane-surface $-1 0 10 10 0 -1 0 0 0 -1 forward_v I I I I #
coedge $-1 $326 $252 $342 $357 reversed $187 $-1 #
edge $-1 $350 -15 $263 5 $262 $358 forward 7 unknown #
edge $-1 $291 -40 $311 -20 $288 $332 forward 7 unknown #
edge $-1 $303 20 $282 40 $281 $328 forward 7 unknown #
straight-curve $-1 -20 0 0 0 -1 0 I I #
coedge $-1 $271 $266 $256 $325 forward $60 $-1 #
edge $-1 $331 -10 $327 10 $324 $359 forward 7 unknown #
coedge $-1 $257 $319 $271 $341 reversed $187 $-1 #
vertex $-1 $325 $360 #
straight-curve $-1 0 -10 0 -1 0 0 I I #
coedge $-1 $361 $259 $266 $336 reversed $317 $-1 #
coedge $-1 $259 $361 $261 $333 reversed $317 $-1 #
vertex $-1 $325 $362 #
straight-curve $-1 0 10 0 1 0 0 I I #
edge $-1 $264 -5 $354 15 $261 $363 forward 7 unknown #
point $-1 20 -10 0 #
point $-1 20 10 0 #
edge $-1 $338 -15 $331 5 $266 $364 forward 7 unknown #
coedge $-1 $267 $307 $361 $365 forward $219 $-1 #
vertex $-1 $336 $366 #
straight-curve $-1 40 0 20 0 1 0 I I #
point $-1 40 40 20 #
edge $-1 $327 -5 $343 15 $271 $367 forward 7 unknown #
coedge $-1 $299 $272 $319 $357 forward $184 $-1 #
vertex $-1 $273 $368 #
point $-1 40 -40 20 #
straight-curve $-1 -40 0 0 0 1 0 I I #
point $-1 -40 -10 0 #
straight-curve $-1 0 -10 20 -1 0 0 I I #
point $-1 -40 10 0 #
straight-curve $-1 0 10 20 1 0 0 I I #
vertex $-1 $357 $369 #
straight-curve $-1 20 0 20 0 -1 0 I I #
point $-1 20 -20 20 #
point $-1 -20 -10 0 #
vertex $-1 $308 $370 #
point $-1 20 20 20 #
point $-1 -20 10 0 #
edge $-1 $343 -40 $350 -20 $342 $347 forward 7 unknown #
straight-curve $-1 20 -10 5 0 0 -1 I I #
straight-curve $-1 40 0 0 0 -1 0 I I #
point $-1 40 -10 0 #
coedge $-1 $330 $329 $337 $365 reversed $317 $-1 #
point $-1 40 10 0 #
straight-curve $-1 20 10 5 0 0 1 I I #
straight-curve $-1 40 10 5 0 0 -1 I I #
edge $-1 $354 20 $338 40 $337 $349 forward 7 unknown #
point $-1 40 10 20 #
straight-curve $-1 40 -10 5 0 0 1 I I #
point $-1 40 -10 20 #
point $-1 20 -10 20 #
point $-1 20 10 20 #
End-of-ACIS-data 