600 0 2 0           
24 FBMach with ACIS - 6.0.3 13 ACIS 6.0.3 NT 24 Wed May 23 20:25:45 2001 
1 9.9999999999999995e-007 1e-010 
body $2 $3 $-1 $4 #
bdycol-kcp $-1 1 2 $5 $6 #
model_id-kcp-attrib $-1 $-1 $-1 $0 1 990663944 80 -145752063 1 #
lump $-1 $-1 $7 $0 #
transform $-1 1 0 0 0 1 0 0 0 1 0 0 0 1 no_rotate no_reflect no_shear #
body $8 $9 $-1 $10 #
body $11 $12 $-1 $13 #
shell $-1 $-1 $-1 $14 $-1 $3 #
model_id-kcp-attrib $-1 $-1 $-1 $5 1 990663944 80 -145752062 1 #
lump $-1 $-1 $15 $5 #
transform $-1 1 0 0 0 1 0 0 0 1 0 0 0 1 no_rotate no_reflect no_shear #
rgb_color-st-attrib $-1 $16 $-1 $6 0.59999999999999998 0.90000000000000002 1 #
lump $-1 $-1 $17 $6 #
transform $-1 1 0 0 0 1 0 0 0 1 0 0 0 1 no_rotate no_reflect no_shear #
face $18 $19 $20 $7 $-1 $21 forward single #
shell $-1 $-1 $-1 $22 $-1 $9 #
model_id-kcp-attrib $-1 $-1 $11 $6 1 990663944 781 -150142973 1 #
shell $-1 $-1 $-1 $23 $-1 $12 #
model_id-kcp-attrib $-1 $-1 $-1 $14 1 990663944 80 -145752063 2 #
face $24 $25 $26 $7 $-1 $27 reversed single #
loop $-1 $-1 $28 $14 #
plane-surface $-1 0 0 -10 0 0 1 1 0 0 forward_v I I I I #
face $29 $30 $31 $15 $-1 $32 forward single #
face $-1 $33 $34 $17 $-1 $35 forward single #
model_id-kcp-attrib $-1 $-1 $-1 $19 1 990663944 80 -145752063 3 #
face $36 $37 $38 $7 $-1 $39 reversed single #
loop $-1 $-1 $40 $19 #
plane-surface $-1 0 -5 -15 0 1 0 0 0 1 forward_v I I I I #
coedge $-1 $41 $42 $43 $44 reversed $20 $-1 #
model_id-kcp-attrib $-1 $45 $-1 $22 1 990663944 80 -145752062 6 #
face $46 $47 $48 $15 $-1 $49 reversed single #
loop $-1 $-1 $50 $22 #
plane-surface $-1 0 0 20 0 0 1 1 0 0 forward_v I I I I #
face $-1 $51 $52 $17 $-1 $53 forward single #
loop $-1 $-1 $54 $23 #
plane-surface $-1 20 -10 0 1 0 0 0 0 -1 forward_v I I I I #
model_id-kcp-attrib $-1 $-1 $-1 $25 1 990663944 80 -145752063 4 #
face $55 $56 $57 $7 $-1 $58 reversed single #
loop $-1 $-1 $59 $25 #
plane-surface $-1 0 5 -15 0 -1 0 0 0 -1 forward_v I I I I #
coedge $-1 $60 $61 $62 $63 reversed $26 $-1 #
coedge $-1 $64 $28 $61 $65 forward $20 $-1 #
coedge $-1 $28 $64 $66 $67 forward $20 $-1 #
coedge $-1 $68 $62 $28 $44 forward $69 $-1 #
edge $-1 $70 -5 $71 5 $43 $72 forward 7 unknown #
model_id-kcp-attrib $-1 $-1 $29 $22 1 990663944 80 -145752062 5 #
model_id-kcp-attrib $-1 $-1 $-1 $30 1 990663944 80 -145752062 3 #
face $73 $74 $75 $15 $-1 $76 reversed single #
loop $-1 $-1 $77 $30 #
plane-surface $-1 0 0 -20 0 0 1 1 0 0 forward_v I I I I #
coedge $-1 $78 $79 $80 $81 forward $31 $-1 #
face $-1 $82 $83 $17 $-1 $84 forward single #
loop $-1 $-1 $85 $33 #
plane-surface $-1 20 -20 0 0 -1 0 0 0 -1 forward_v I I I I #
coedge $-1 $86 $87 $88 $89 forward $34 $-1 #
model_id-kcp-attrib $-1 $-1 $-1 $37 1 990663944 80 -145752063 5 #
face $90 $91 $92 $7 $-1 $93 reversed single #
loop $-1 $-1 $94 $37 #
plane-surface $-1 -40 0 0 1 0 0 0 0 -1 forward_v I I I I #
coedge $-1 $66 $95 $68 $96 reversed $38 $-1 #
coedge $-1 $97 $40 $98 $99 reversed $26 $-1 #
coedge $-1 $40 $97 $41 $65 reversed $26 $-1 #
coedge $-1 $43 $100 $40 $63 forward $69 $-1 #
edge $-1 $101 -12.5 $70 -2.5 $62 $102 forward 7 unknown #
coedge $-1 $42 $41 $103 $104 reversed $20 $-1 #
edge $-1 $70 -20 $105 20 $61 $106 forward 7 unknown #
coedge $-1 $107 $59 $42 $67 reversed $38 $-1 #
edge $-1 $108 -20 $71 20 $66 $109 forward 7 unknown #
coedge $-1 $110 $43 $59 $96 forward $69 $-1 #
loop $-1 $-1 $68 $111 #
vertex $-1 $44 $112 #
vertex $-1 $44 $113 #
straight-curve $-1 -20 0 -10 0 1 0 I I #
model_id-kcp-attrib $-1 $-1 $-1 $47 1 990663944 80 -145752062 7 #
face $114 $115 $116 $15 $-1 $117 reversed single #
loop $-1 $-1 $118 $47 #
plane-surface $-1 0 -40 0 0 1 0 0 0 1 forward_v I I I I #
coedge $-1 $119 $120 $121 $122 forward $48 $-1 #
coedge $-1 $123 $50 $124 $125 forward $31 $-1 #
coedge $-1 $50 $123 $126 $127 forward $31 $-1 #
coedge $-1 $128 $129 $50 $81 reversed $130 $-1 #
edge $-1 $131 -40 $132 40 $80 $133 forward 7 unknown #
face $-1 $134 $135 $17 $-1 $136 forward single #
loop $-1 $-1 $137 $51 #
plane-surface $-1 -20 -20 0 -1 0 0 0 0 1 forward_v I I I I #
coedge $-1 $138 $139 $140 $141 forward $52 $-1 #
coedge $-1 $142 $54 $139 $143 reversed $34 $-1 #
coedge $-1 $54 $142 $144 $145 forward $34 $-1 #
coedge $-1 $146 $140 $54 $89 reversed $147 $-1 #
edge $-1 $148 10 $149 20 $54 $150 forward 7 unknown #
model_id-kcp-attrib $-1 $-1 $-1 $56 1 990663944 80 -145752063 6 #
face $151 $152 $153 $7 $-1 $154 reversed single #
loop $-1 $155 $156 $56 #
plane-surface $-1 0 0 -20 0 0 1 1 0 0 forward_v I I I I #
coedge $-1 $157 $158 $159 $160 reversed $57 $-1 #
coedge $-1 $59 $107 $161 $162 reversed $38 $-1 #
edge $-1 $71 2.5 $163 12.5 $68 $164 forward 7 unknown #
coedge $-1 $61 $60 $165 $166 reversed $26 $-1 #
coedge $-1 $156 $167 $60 $99 forward $92 $-1 #
edge $168 $169 -20 $101 20 $60 $170 forward 7 unknown #
coedge $-1 $62 $171 $156 $172 reversed $69 $-1 #
vertex $-1 $172 $173 #
straight-curve $-1 -20 -5 -7.5 0 0 1 I I #
coedge $-1 $165 $174 $64 $104 forward $175 $-1 #
edge $-1 $108 -5 $105 5 $103 $176 forward 7 unknown #
vertex $-1 $104 $177 #
straight-curve $-1 0 -5 -10 1 0 0 I I #
coedge $-1 $95 $66 $174 $178 reversed $38 $-1 #
vertex $-1 $104 $179 #
straight-curve $-1 0 5 -10 -1 0 0 I I #
coedge $-1 $180 $68 $181 $182 reversed $69 $-1 #
face $183 $184 $69 $7 $-1 $185 forward single #
point $-1 -20 -5 -10 #
point $-1 -20 5 -10 #
model_id-kcp-attrib $-1 $-1 $-1 $74 1 990663944 80 -145752062 2 #
face $186 $187 $188 $15 $-1 $189 reversed single #
loop $-1 $-1 $190 $74 #
plane-surface $-1 -40 0 0 1 0 0 0 0 -1 forward_v I I I I #
coedge $-1 $191 $126 $192 $193 forward $75 $-1 #
coedge $-1 $194 $77 $191 $195 forward $48 $-1 #
coedge $-1 $77 $194 $196 $197 forward $48 $-1 #
coedge $-1 $129 $128 $77 $122 reversed $130 $-1 #
edge $-1 $198 -40 $199 40 $121 $200 forward 7 unknown #
coedge $-1 $79 $78 $201 $202 forward $31 $-1 #
coedge $-1 $203 $204 $78 $125 reversed $188 $-1 #
edge $-1 $132 -40 $205 40 $124 $206 forward 7 unknown #
coedge $-1 $118 $207 $79 $127 reversed $75 $-1 #
edge $-1 $208 -40 $131 40 $126 $209 forward 7 unknown #
coedge $-1 $121 $80 $207 $210 forward $130 $-1 #
coedge $-1 $80 $121 $203 $211 reversed $130 $-1 #
loop $-1 $-1 $128 $187 #
vertex $-1 $81 $212 #
vertex $-1 $81 $213 #
straight-curve $-1 40 0 20 0 1 0 I I #
face $-1 $214 $215 $17 $-1 $216 forward single #
loop $-1 $-1 $217 $82 #
plane-surface $-1 -20 -10 0 0 -1 0 0 0 -1 forward_v I I I I #
coedge $-1 $218 $219 $220 $221 forward $83 $-1 #
coedge $-1 $222 $85 $219 $223 reversed $52 $-1 #
coedge $-1 $85 $222 $86 $143 forward $52 $-1 #
coedge $-1 $88 $220 $85 $141 reversed $147 $-1 #
edge $-1 $149 -5 $224 35 $85 $225 forward 7 unknown #
coedge $-1 $87 $86 $226 $227 reversed $34 $-1 #
edge $228 $229 0 $149 20 $139 $230 forward 7 unknown #
coedge $-1 $231 $232 $87 $145 reversed $233 $-1 #
edge $-1 $234 0 $148 20 $87 $235 forward 7 unknown #
coedge $-1 $236 $88 $232 $237 reversed $147 $-1 #
loop $-1 $-1 $88 $238 #
vertex $-1 $145 $239 #
vertex $-1 $143 $240 #
straight-curve $-1 20 0 20 0 -1 0 I I #
model_id-kcp-attrib $-1 $-1 $-1 $91 1 990663944 80 -145752063 7 #
face $241 $242 $243 $7 $-1 $244 forward single #
loop $-1 $-1 $245 $91 #
plane-surface $-1 40 0 0 -1 0 0 0 0 1 forward_v I I I I #
loop $-1 $246 $159 $56 #
coedge $-1 $247 $98 $100 $172 forward $92 $-1 #
coedge $-1 $248 $94 $249 $250 reversed $57 $-1 #
coedge $-1 $94 $251 $252 $253 forward $57 $-1 #
coedge $-1 $254 $255 $94 $160 forward $155 $-1 #
edge $256 $257 -40 $258 40 $94 $259 forward 7 unknown #
coedge $-1 $260 $181 $95 $162 forward $246 $-1 #
edge $261 $163 -20 $262 20 $95 $263 forward 7 unknown #
vertex $-1 $182 $264 #
straight-curve $-1 -20 5 -7.5 0 0 -1 I I #
coedge $-1 $265 $103 $97 $166 forward $175 $-1 #
edge $-1 $105 2.5 $169 12.5 $165 $266 forward 7 unknown #
coedge $-1 $98 $247 $265 $267 forward $92 $-1 #
attrib_edge_convexity-kcp-attrib $-1 $268 $-1 $99 1 #
vertex $-1 $267 $269 #
straight-curve $-1 0 -5 -20 -1 0 0 I I #
coedge $-1 $100 $270 $271 $272 forward $69 $-1 #
edge $273 $101 5 $274 20 $156 $275 forward 7 unknown #
point $-1 -20 -5 -20 #
coedge $-1 $103 $276 $107 $178 forward $175 $-1 #
loop $-1 $-1 $165 $184 #
straight-curve $-1 20 0 -10 0 -1 0 I I #
point $-1 20 -5 -10 #
edge $-1 $262 -12.5 $108 -2.5 $174 $277 forward 7 unknown #
point $-1 20 5 -10 #
coedge $-1 $278 $110 $279 $280 reversed $69 $-1 #
coedge $-1 $161 $281 $110 $182 forward $246 $-1 #
edge $282 $283 -20 $163 -5 $181 $275 forward 7 unknown #
model_id-kcp-attrib $-1 $-1 $-1 $111 1 990663944 80 -145752063 14 #
face $284 $285 $175 $7 $-1 $286 forward single #
plane-surface $-1 -20 0 0 1 0 0 0 0 -1 forward_v I I I I #
model_id-kcp-attrib $-1 $-1 $-1 $115 1 990663944 80 -145752062 8 #
face $287 $-1 $130 $15 $-1 $288 reversed single #
loop $-1 $-1 $203 $115 #
plane-surface $-1 0 40 0 0 -1 0 0 0 -1 forward_v I I I I #
coedge $-1 $289 $201 $204 $290 forward $116 $-1 #
coedge $-1 $207 $118 $119 $195 reversed $75 $-1 #
coedge $-1 $201 $289 $118 $193 reversed $116 $-1 #
edge $-1 $208 -20 $291 20 $192 $292 forward 7 unknown #
coedge $-1 $120 $119 $289 $293 forward $48 $-1 #
edge $-1 $199 -40 $291 40 $191 $294 forward 7 unknown #
coedge $-1 $204 $203 $120 $197 reversed $188 $-1 #
edge $-1 $295 -40 $198 40 $196 $296 forward 7 unknown #
vertex $-1 $122 $297 #
vertex $-1 $210 $298 #
straight-curve $-1 40 0 -20 0 -1 0 I I #
coedge $-1 $190 $192 $123 $202 reversed $116 $-1 #
edge $-1 $205 -40 $208 40 $201 $299 forward 7 unknown #
coedge $-1 $196 $124 $129 $211 forward $188 $-1 #
coedge $-1 $124 $196 $190 $290 reversed $188 $-1 #
vertex $-1 $125 $300 #
straight-curve $-1 0 40 20 -1 0 0 I I #
coedge $-1 $126 $191 $128 $210 reversed $75 $-1 #
vertex $-1 $202 $301 #
straight-curve $-1 0 -40 20 1 0 0 I I #
edge $-1 $131 -20 $199 20 $128 $302 forward 7 unknown #
edge $-1 $132 -20 $198 20 $129 $303 forward 7 unknown #
point $-1 40 -40 20 #
point $-1 40 40 20 #
face $-1 $304 $305 $17 $-1 $306 forward single #
loop $-1 $-1 $307 $134 #
plane-surface $-1 -40 -10 0 -1 0 0 0 0 1 forward_v I I I I #
coedge $-1 $308 $309 $310 $311 forward $135 $-1 #
coedge $-1 $312 $137 $309 $313 reversed $83 $-1 #
coedge $-1 $137 $312 $138 $223 forward $83 $-1 #
coedge $-1 $140 $310 $137 $221 reversed $147 $-1 #
edge $-1 $224 -20 $314 -10 $137 $315 forward 7 unknown #
coedge $-1 $139 $138 $316 $317 reversed $52 $-1 #
edge $-1 $318 0 $224 20 $219 $319 forward 7 unknown #
vertex $-1 $223 $320 #
straight-curve $-1 15 -20 20 -1 0 0 I I #
coedge $-1 $316 $321 $142 $227 forward $322 $-1 #
edge $323 $234 10 $229 20 $142 $324 forward 7 unknown #
convexity-sys-attrib $-1 $-1 $-1 $143 #
vertex $-1 $227 $325 #
straight-curve $-1 20 -20 0 0 0 1 I I #
coedge $-1 $326 $144 $321 $327 reversed $233 $-1 #
coedge $-1 $144 $326 $146 $237 forward $233 $-1 #
loop $-1 $-1 $232 $328 #
vertex $-1 $327 $329 #
straight-curve $-1 20 -10 0 0 0 1 I I #
coedge $-1 $330 $146 $331 $332 reversed $147 $-1 #
edge $-1 $333 -25 $148 -5 $232 $334 forward 7 unknown #
face $-1 $335 $147 $17 $-1 $336 forward single #
point $-1 20 -10 20 #
point $-1 20 -20 20 #
model_id-kcp-attrib $-1 $-1 $-1 $152 1 990663944 80 -145752063 8 #
face $337 $338 $339 $7 $-1 $244 forward single #
loop $-1 $-1 $340 $152 #
plane-surface $-1 0 0 0 0 0 1 1 0 0 forward_v I I I I #
coedge $-1 $341 $342 $343 $344 reversed $153 $-1 #
loop $-1 $-1 $161 $56 #
coedge $-1 $167 $156 $345 $346 forward $92 $-1 #
coedge $-1 $347 $157 $348 $349 reversed $57 $-1 #
coedge $-1 $350 $351 $157 $250 forward $352 $-1 #
edge $353 $354 -20 $257 20 $157 $355 forward 7 unknown #
coedge $-1 $158 $356 $357 $358 reversed $57 $-1 #
coedge $-1 $359 $360 $158 $253 reversed $361 $-1 #
edge $362 $363 -20 $258 20 $252 $364 forward 7 unknown #
coedge $-1 $343 $159 $360 $365 forward $155 $-1 #
coedge $-1 $159 $343 $350 $366 forward $155 $-1 #
attrib_edge_convexity-kcp-attrib $-1 $367 $-1 $160 1 #
vertex $-1 $160 $368 #
vertex $-1 $365 $369 #
straight-curve $-1 -40 0 -20 0 1 0 I I #
coedge $-1 $281 $161 $276 $370 forward $246 $-1 #
attrib_edge_convexity-kcp-attrib $-1 $371 $-1 $162 1 #
vertex $-1 $370 $372 #
straight-curve $-1 0 5 -20 1 0 0 I I #
point $-1 -20 5 -20 #
coedge $-1 $373 $165 $167 $267 reversed $175 $-1 #
straight-curve $-1 20 -5 -7.5 0 0 -1 I I #
edge $374 $375 -20 $169 -5 $167 $376 forward 7 unknown #
convexity-sys-attrib $-1 $-1 $168 $99 #
point $-1 20 -5 -20 #
coedge $-1 $171 $377 $378 $379 reversed $69 $-1 #
coedge $-1 $380 $345 $171 $272 reversed $381 $-1 #
edge $-1 $382 -20 $274 20 $171 $383 forward 7 unknown #
attrib_edge_convexity-kcp-attrib $-1 $384 $-1 $172 1 #
vertex $-1 $346 $385 #
straight-curve $-1 -20 0 -20 0 -1 0 I I #
coedge $-1 $174 $386 $260 $370 reversed $175 $-1 #
straight-curve $-1 20 5 -7.5 0 0 1 I I #
coedge $-1 $387 $180 $388 $389 reversed $69 $-1 #
coedge $-1 $390 $391 $180 $280 forward $392 $-1 #
edge $-1 $393 -20 $283 20 $279 $394 forward 7 unknown #
coedge $-1 $181 $260 $390 $395 forward $246 $-1 #
attrib_edge_convexity-kcp-attrib $-1 $396 $-1 $182 1 #
vertex $-1 $182 $397 #
model_id-kcp-attrib $-1 $-1 $-1 $184 1 990663944 80 -145752063 15 #
face $398 $399 $400 $7 $-1 $401 forward single #
plane-surface $-1 20 0 0 -1 0 0 0 0 1 forward_v I I I I #
model_id-kcp-attrib $-1 $-1 $-1 $187 1 990663944 80 -145752062 4 #
plane-surface $-1 40 0 0 -1 0 0 0 0 1 forward_v I I I I #
coedge $-1 $192 $190 $194 $293 reversed $116 $-1 #
edge $-1 $205 -20 $295 20 $204 $402 forward 7 unknown #
vertex $-1 $293 $403 #
straight-curve $-1 -40 -40 0 0 0 -1 I I #
edge $-1 $291 -40 $295 40 $289 $404 forward 7 unknown #
straight-curve $-1 0 -40 -20 -1 0 0 I I #
vertex $-1 $197 $405 #
straight-curve $-1 0 40 -20 1 0 0 I I #
point $-1 40 40 -20 #
point $-1 40 -40 -20 #
straight-curve $-1 -40 0 20 0 -1 0 I I #
point $-1 -40 40 20 #
point $-1 -40 -40 20 #
straight-curve $-1 40 -40 0 0 0 -1 I I #
straight-curve $-1 40 40 0 0 0 -1 I I #
face $-1 $406 $407 $17 $-1 $408 forward single #
loop $-1 $-1 $409 $214 #
plane-surface $-1 -40 10 0 0 1 0 0 0 1 forward_v I I I I #
coedge $-1 $410 $411 $412 $413 forward $215 $-1 #
coedge $-1 $414 $217 $411 $415 reversed $135 $-1 #
coedge $-1 $217 $414 $218 $313 forward $135 $-1 #
coedge $-1 $220 $412 $217 $311 reversed $147 $-1 #
edge $-1 $314 35 $416 55 $217 $417 forward 7 unknown #
coedge $-1 $219 $218 $418 $419 reversed $83 $-1 #
edge $-1 $420 0 $314 20 $309 $421 forward 7 unknown #
vertex $-1 $313 $422 #
straight-curve $-1 -20 0 20 0 1 0 I I #
coedge $-1 $418 $226 $222 $317 forward $322 $-1 #
edge $423 $229 -5 $318 35 $222 $424 forward 7 unknown #
vertex $-1 $317 $425 #
straight-curve $-1 -20 -20 0 0 0 1 I I #
point $-1 -20 -20 20 #
coedge $-1 $226 $426 $231 $327 forward $322 $-1 #
loop $-1 $-1 $321 $335 #
convexity-sys-attrib $-1 $-1 $-1 $227 #
straight-curve $-1 20 0 0 0 -1 0 I I #
point $-1 20 -20 0 #
coedge $-1 $232 $231 $427 $428 forward $233 $-1 #
edge $429 $430 -25 $234 -5 $231 $431 forward 7 unknown #
face $-1 $238 $233 $17 $-1 $432 forward single #
point $-1 20 -10 0 #
coedge $-1 $433 $236 $434 $435 reversed $147 $-1 #
coedge $-1 $427 $436 $236 $332 forward $437 $-1 #
edge $-1 $438 -10 $333 10 $331 $439 forward 7 unknown #
vertex $-1 $428 $440 #
straight-curve $-1 15 -10 20 -1 0 0 I I #
face $-1 $-1 $322 $17 $-1 $441 reversed single #
plane-surface $-1 -8.8817841970012523e-016 0 20 0 0 1 1 0 0 forward_v I I I I #
model_id-kcp-attrib $-1 $-1 $-1 $242 1 990663944 80 -145752063 9 #
face $442 $443 $444 $7 $-1 $445 forward single #
loop $-1 $-1 $446 $242 #
coedge $-1 $447 $448 $449 $450 reversed $243 $-1 #
coedge $-1 $451 $245 $452 $453 reversed $153 $-1 #
coedge $-1 $245 $454 $455 $456 forward $153 $-1 #
coedge $-1 $255 $254 $245 $344 forward $155 $-1 #
edge $457 $458 -40 $459 40 $245 $460 forward 7 unknown #
coedge $-1 $271 $461 $247 $346 reversed $381 $-1 #
edge $462 $274 -20 $375 20 $247 $463 forward 7 unknown #
coedge $-1 $464 $248 $465 $466 forward $57 $-1 #
coedge $-1 $467 $468 $248 $349 forward $400 $-1 #
edge $469 $470 10 $354 40 $248 $471 forward 7 unknown #
coedge $-1 $455 $249 $255 $366 reversed $352 $-1 #
coedge $-1 $249 $455 $467 $472 reversed $352 $-1 #
loop $-1 $-1 $249 $473 #
attrib_edge_convexity-kcp-attrib $-1 $474 $-1 $250 1 #
vertex $-1 $349 $475 #
straight-curve $-1 -40 -40 0 0 0 -1 I I #
coedge $-1 $251 $464 $476 $477 forward $57 $-1 #
coedge $-1 $478 $479 $251 $358 forward $480 $-1 #
edge $481 $363 -40 $482 -10 $251 $471 forward 7 unknown #
coedge $-1 $452 $252 $479 $483 reversed $361 $-1 #
coedge $-1 $252 $452 $254 $365 reversed $361 $-1 #
loop $-1 $-1 $452 $484 #
attrib_edge_convexity-kcp-attrib $-1 $485 $-1 $253 1 #
vertex $-1 $483 $486 #
straight-curve $-1 -40 40 0 0 0 -1 I I #
edge $487 $258 -40 $458 40 $360 $488 forward 7 unknown #
edge $489 $459 -40 $257 40 $350 $490 forward 7 unknown #
convexity-sys-attrib $-1 $-1 $256 $160 #
point $-1 -40 -40 -20 #
point $-1 -40 40 -20 #
edge $491 $262 5 $492 20 $260 $376 forward 7 unknown #
convexity-sys-attrib $-1 $-1 $261 $162 #
point $-1 20 5 -20 #
coedge $-1 $493 $265 $461 $494 reversed $175 $-1 #
attrib_edge_convexity-kcp-attrib $-1 $495 $-1 $267 1 #
vertex $-1 $346 $496 #
straight-curve $-1 20 0 -20 0 1 0 I I #
coedge $-1 $270 $497 $498 $499 forward $69 $-1 #
coedge $-1 $468 $500 $270 $379 forward $400 $-1 #
edge $-1 $382 -20 $501 -10 $378 $502 forward 7 unknown #
coedge $-1 $461 $271 $500 $503 reversed $381 $-1 #
loop $-1 $-1 $271 $399 #
vertex $-1 $503 $504 #
straight-curve $-1 -20 -20 0 0 0 -1 I I #
convexity-sys-attrib $-1 $-1 $273 $172 #
point $-1 -20 -20 -20 #
coedge $-1 $276 $505 $506 $507 forward $175 $-1 #
coedge $-1 $497 $278 $508 $509 forward $69 $-1 #
coedge $-1 $510 $478 $278 $389 forward $480 $-1 #
edge $-1 $511 10 $393 20 $388 $502 forward 7 unknown #
coedge $-1 $506 $279 $281 $395 reversed $392 $-1 #
coedge $-1 $279 $506 $510 $512 reversed $392 $-1 #
loop $-1 $-1 $506 $513 #
vertex $-1 $389 $514 #
straight-curve $-1 -20 20 0 0 0 -1 I I #
edge $515 $492 -20 $283 20 $281 $516 forward 7 unknown #
convexity-sys-attrib $-1 $-1 $282 $182 #
point $-1 -20 20 -20 #
model_id-kcp-attrib $-1 $-1 $-1 $285 1 990663944 80 -145752063 16 #
face $517 $513 $381 $7 $-1 $518 forward single #
loop $-1 $-1 $468 $285 #
plane-surface $-1 0 0 20 0 0 1 1 0 0 forward_v I I I I #
straight-curve $-1 -40 40 0 0 0 -1 I I #
point $-1 -40 -40 -20 #
straight-curve $-1 -40 0 -20 0 1 0 I I #
point $-1 -40 40 -20 #
face $-1 $519 $520 $17 $-1 $521 forward single #
loop $-1 $-1 $522 $304 #
plane-surface $-1 -20 10 0 -1 0 0 0 0 1 forward_v I I I I #
coedge $-1 $523 $524 $525 $526 forward $305 $-1 #
coedge $-1 $527 $307 $524 $528 reversed $215 $-1 #
coedge $-1 $307 $527 $308 $415 forward $215 $-1 #
coedge $-1 $310 $525 $307 $413 reversed $147 $-1 #
edge $-1 $416 -10 $529 10 $307 $530 forward 7 unknown #
coedge $-1 $309 $308 $531 $532 reversed $135 $-1 #
edge $-1 $533 0 $416 20 $411 $534 forward 7 unknown #
vertex $-1 $415 $535 #
straight-curve $-1 15 -10 20 -1 0 0 I I #
coedge $-1 $531 $316 $312 $419 forward $322 $-1 #
edge $536 $318 -20 $420 -10 $312 $537 forward 7 unknown #
vertex $-1 $419 $538 #
straight-curve $-1 -20 -10 0 0 0 1 I I #
point $-1 -20 -10 20 #
convexity-sys-attrib $-1 $-1 $-1 $317 #
straight-curve $-1 15 -20 0 -1 0 0 I I #
point $-1 -20 -20 0 #
coedge $-1 $321 $539 $540 $541 forward $322 $-1 #
coedge $-1 $540 $331 $326 $428 reversed $437 $-1 #
edge $-1 $430 0 $333 20 $326 $542 forward 7 unknown #
convexity-sys-attrib $-1 $-1 $-1 $327 #
vertex $-1 $327 $543 #
straight-curve $-1 15 -10 0 -1 0 0 I I #
plane-surface $-1 40 -10 0 0 -1 0 0 0 -1 forward_v I I I I #
coedge $-1 $544 $330 $545 $546 reversed $147 $-1 #
coedge $-1 $547 $548 $330 $435 forward $549 $-1 #
edge $-1 $550 5 $438 25 $434 $551 forward 7 unknown #
coedge $-1 $331 $540 $547 $552 forward $437 $-1 #
loop $-1 $-1 $331 $553 #
vertex $-1 $552 $554 #
straight-curve $-1 40 0 20 0 -1 0 I I #
point $-1 40 -10 20 #
plane-surface $-1 -8.8817841970012523e-016 0 0 0 0 1 1 0 0 forward_v I I I I #
model_id-kcp-attrib $-1 $-1 $-1 $338 1 990663944 80 -145752063 10 #
face $555 $556 $557 $7 $-1 $445 forward single #
loop $-1 $-1 $558 $338 #
plane-surface $-1 0 -10 10 0 1 0 0 0 1 forward_v I I I I #
coedge $-1 $559 $560 $497 $561 reversed $339 $-1 #
coedge $-1 $562 $340 $563 $564 reversed $243 $-1 #
coedge $-1 $340 $562 $565 $566 reversed $243 $-1 #
coedge $-1 $567 $568 $340 $450 forward $175 $-1 #
edge $-1 $569 -10 $570 10 $449 $571 forward 7 unknown #
coedge $-1 $572 $341 $573 $574 reversed $153 $-1 #
coedge $-1 $360 $359 $341 $453 forward $361 $-1 #
edge $-1 $575 -20 $458 20 $341 $576 forward 7 unknown #
coedge $-1 $342 $577 $578 $579 reversed $153 $-1 #
coedge $-1 $351 $350 $342 $456 reversed $352 $-1 #
edge $580 $581 -20 $459 20 $342 $582 forward 7 unknown #
attrib_edge_convexity-kcp-attrib $-1 $583 $-1 $344 1 #
vertex $-1 $344 $584 #
vertex $-1 $456 $585 #
straight-curve $-1 40 0 -20 0 -1 0 I I #
coedge $-1 $345 $380 $373 $494 forward $381 $-1 #
attrib_edge_convexity-kcp-attrib $-1 $586 $-1 $346 1 #
straight-curve $-1 0 -20 -20 1 0 0 I I #
coedge $-1 $356 $347 $587 $588 forward $57 $-1 #
coedge $-1 $589 $590 $347 $466 reversed $557 $-1 #
edge $591 $470 -15 $592 5 $347 $593 forward 7 unknown #
coedge $-1 $578 $348 $351 $472 forward $400 $-1 #
coedge $-1 $348 $378 $589 $594 forward $400 $-1 #
attrib_edge_convexity-kcp-attrib $-1 $595 $-1 $349 1 #
vertex $-1 $466 $596 #
straight-curve $-1 -40 0 20 0 -1 0 I I #
edge $597 $354 -40 $581 40 $351 $598 forward 7 unknown #
face $599 $484 $352 $7 $-1 $600 reversed single #
convexity-sys-attrib $-1 $-1 $353 $250 #
point $-1 -40 -40 20 #
coedge $-1 $601 $602 $356 $477 reversed $603 $-1 #
edge $604 $605 -5 $482 15 $356 $606 forward 7 unknown #
coedge $-1 $388 $357 $602 $607 forward $480 $-1 #
coedge $-1 $357 $573 $359 $483 forward $480 $-1 #
loop $-1 $-1 $478 $608 #
attrib_edge_convexity-kcp-attrib $-1 $609 $-1 $358 1 #
vertex $-1 $358 $610 #
edge $-1 $575 -40 $363 40 $359 $611 forward 7 unknown #
face $612 $-1 $361 $7 $-1 $613 reversed single #
convexity-sys-attrib $-1 $-1 $362 $253 #
point $-1 -40 40 20 #
attrib_edge_convexity-kcp-attrib $-1 $614 $-1 $365 1 #
straight-curve $-1 0 40 -20 1 0 0 I I #
attrib_edge_convexity-kcp-attrib $-1 $615 $-1 $366 1 #
straight-curve $-1 0 -40 -20 -1 0 0 I I #
attrib_edge_convexity-kcp-attrib $-1 $616 $-1 $370 1 #
vertex $-1 $395 $617 #
coedge $-1 $568 $373 $618 $619 reversed $175 $-1 #
edge $-1 $620 -20 $375 20 $373 $621 forward 7 unknown #
convexity-sys-attrib $-1 $-1 $374 $267 #
point $-1 20 -20 -20 #
coedge $-1 $377 $387 $446 $561 forward $69 $-1 #
coedge $-1 $590 $589 $377 $499 reversed $557 $-1 #
edge $-1 $622 -5 $501 15 $377 $623 forward 7 unknown #
coedge $-1 $378 $618 $380 $503 forward $400 $-1 #
vertex $-1 $379 $624 #
straight-curve $-1 -20 0 20 0 1 0 I I #
edge $-1 $620 -20 $382 20 $500 $625 forward 7 unknown #
point $-1 -20 -20 20 #
coedge $-1 $386 $567 $626 $627 reversed $175 $-1 #
coedge $-1 $391 $390 $386 $507 reversed $392 $-1 #
edge $-1 $628 -20 $492 20 $386 $629 forward 7 unknown #
coedge $-1 $602 $601 $387 $509 reversed $603 $-1 #
edge $-1 $511 -15 $630 5 $387 $631 forward 7 unknown #
coedge $-1 $626 $388 $391 $512 forward $480 $-1 #
vertex $-1 $607 $632 #
edge $-1 $393 -20 $628 20 $510 $633 forward 7 unknown #
face $634 $608 $392 $7 $-1 $635 forward single #
point $-1 -20 20 20 #
attrib_edge_convexity-kcp-attrib $-1 $636 $-1 $395 1 #
straight-curve $-1 0 20 -20 -1 0 0 I I #
model_id-kcp-attrib $-1 $-1 $-1 $399 1 990663944 80 -145752063 17 #
plane-surface $-1 0 -20 0 0 1 0 0 0 1 forward_v I I I I #
face $-1 $637 $638 $17 $-1 $639 forward single #
loop $-1 $-1 $640 $406 #
plane-surface $-1 -20 20 0 0 1 0 0 0 1 forward_v I I I I #
coedge $-1 $641 $642 $643 $644 forward $407 $-1 #
coedge $-1 $645 $409 $642 $646 reversed $305 $-1 #
coedge $-1 $409 $645 $410 $528 forward $305 $-1 #
coedge $-1 $412 $643 $409 $526 reversed $147 $-1 #
edge $-1 $529 -55 $647 -35 $409 $648 forward 7 unknown #
coedge $-1 $411 $410 $649 $650 reversed $215 $-1 #
edge $-1 $651 0 $529 20 $524 $652 forward 7 unknown #
vertex $-1 $528 $653 #
straight-curve $-1 -40 0 20 0 1 0 I I #
coedge $-1 $649 $418 $414 $532 forward $322 $-1 #
edge $654 $420 35 $533 55 $414 $655 forward 7 unknown #
vertex $-1 $532 $656 #
straight-curve $-1 -40 -10 0 0 0 1 I I #
point $-1 -40 -10 20 #
convexity-sys-attrib $-1 $-1 $-1 $419 #
straight-curve $-1 -20 0 0 0 1 0 I I #
point $-1 -20 -10 0 #
coedge $-1 $426 $657 $658 $659 forward $322 $-1 #
coedge $-1 $436 $427 $426 $541 reversed $437 $-1 #
edge $660 $661 -10 $430 10 $540 $662 forward 7 unknown #
straight-curve $-1 40 -10 0 0 0 1 I I #
point $-1 40 -10 0 #
coedge $-1 $643 $433 $640 $663 reversed $147 $-1 #
coedge $-1 $664 $665 $433 $546 forward $638 $-1 #
edge $-1 $666 -20 $550 -10 $545 $667 forward 7 unknown #
coedge $-1 $658 $434 $436 $552 reversed $549 $-1 #
coedge $-1 $434 $658 $664 $668 forward $549 $-1 #
loop $-1 $-1 $434 $637 #
vertex $-1 $668 $669 #
straight-curve $-1 15 10 20 1 0 0 I I #
edge $-1 $661 0 $438 20 $436 $670 forward 7 unknown #
face $-1 $328 $437 $17 $-1 $671 forward single #
point $-1 40 10 20 #
model_id-kcp-attrib $-1 $-1 $-1 $443 1 990663944 80 -145752063 11 #
face $672 $673 $674 $7 $-1 $675 forward single #
loop $-1 $-1 $498 $443 #
coedge $-1 $676 $563 $568 $677 reversed $444 $-1 #
coedge $-1 $587 $446 $601 $678 reversed $339 $-1 #
coedge $-1 $446 $587 $590 $679 reversed $339 $-1 #
edge $-1 $630 -10 $622 10 $497 $680 forward 7 unknown #
coedge $-1 $448 $447 $681 $682 reversed $243 $-1 #
coedge $-1 $558 $683 $447 $564 forward $444 $-1 #
edge $-1 $684 -40 $569 -20 $563 $685 forward 7 unknown #
coedge $-1 $686 $687 $448 $566 forward $674 $-1 #
edge $-1 $570 20 $688 40 $565 $689 forward 7 unknown #
coedge $-1 $505 $449 $687 $690 forward $175 $-1 #
coedge $-1 $449 $493 $558 $677 forward $175 $-1 #
vertex $-1 $450 $691 #
vertex $-1 $450 $692 #
straight-curve $-1 20 0 0 0 1 0 I I #
coedge $-1 $681 $451 $686 $693 forward $153 $-1 #
coedge $-1 $479 $694 $451 $574 forward $480 $-1 #
edge $-1 $695 10 $575 40 $451 $696 forward 7 unknown #
vertex $-1 $574 $697 #
straight-curve $-1 40 40 0 0 0 -1 I I #
coedge $-1 $454 $681 $683 $698 forward $153 $-1 #
coedge $-1 $699 $467 $454 $579 forward $400 $-1 #
edge $-1 $581 -40 $700 -10 $454 $696 forward 7 unknown #
attrib_edge_convexity-kcp-attrib $-1 $701 $-1 $456 1 #
vertex $-1 $579 $702 #
straight-curve $-1 40 -40 0 0 0 -1 I I #
convexity-sys-attrib $-1 $-1 $457 $344 #
point $-1 40 40 -20 #
point $-1 40 -40 -20 #
convexity-sys-attrib $-1 $-1 $462 $346 #
coedge $-1 $560 $559 $464 $588 reversed $339 $-1 #
edge $703 $592 -10 $605 10 $464 $704 forward 7 unknown #
coedge $-1 $498 $465 $468 $594 reversed $557 $-1 #
coedge $-1 $465 $498 $560 $679 forward $557 $-1 #
attrib_edge_convexity-kcp-attrib $-1 $705 $-1 $466 1 #
vertex $-1 $588 $706 #
straight-curve $-1 -40 -10 5 0 0 -1 I I #
edge $-1 $501 20 $470 40 $468 $707 forward 7 unknown #
convexity-sys-attrib $-1 $-1 $469 $349 #
point $-1 -40 -10 20 #
attrib_edge_convexity-kcp-attrib $-1 $708 $-1 $472 1 #
straight-curve $-1 0 -40 20 1 0 0 I I #
model_id-kcp-attrib $-1 $-1 $-1 $473 1 990663944 80 -145752063 20 #
plane-surface $-1 0 -40 0 0 1 0 0 0 1 forward_v I I I I #
coedge $-1 $508 $476 $559 $678 forward $603 $-1 #
coedge $-1 $476 $508 $478 $607 reversed $603 $-1 #
loop $-1 $-1 $508 $673 #
attrib_edge_convexity-kcp-attrib $-1 $709 $-1 $477 1 #
vertex $-1 $588 $710 #
straight-curve $-1 -40 10 5 0 0 1 I I #
edge $-1 $482 -40 $511 -20 $478 $711 forward 7 unknown #
face $712 $473 $480 $7 $-1 $401 forward single #
convexity-sys-attrib $-1 $-1 $481 $358 #
point $-1 -40 10 20 #
straight-curve $-1 0 40 20 -1 0 0 I I #
model_id-kcp-attrib $-1 $-1 $-1 $484 1 990663944 80 -145752063 21 #
plane-surface $-1 0 40 0 0 -1 0 0 0 -1 forward_v I I I I #
convexity-sys-attrib $-1 $-1 $487 $365 #
convexity-sys-attrib $-1 $-1 $489 $366 #
convexity-sys-attrib $-1 $-1 $491 $370 #
point $-1 20 20 -20 #
coedge $-1 $500 $699 $493 $619 forward $400 $-1 #
edge $-1 $713 10 $620 20 $618 $714 forward 7 unknown #
vertex $-1 $503 $715 #
straight-curve $-1 20 -20 0 0 0 -1 I I #
vertex $-1 $561 $716 #
straight-curve $-1 -20 -10 5 0 0 1 I I #
point $-1 -20 -10 20 #
straight-curve $-1 0 -20 20 -1 0 0 I I #
coedge $-1 $694 $510 $505 $627 forward $480 $-1 #
edge $-1 $628 -20 $717 -10 $626 $714 forward 7 unknown #
vertex $-1 $512 $718 #
straight-curve $-1 20 20 0 0 0 -1 I I #
vertex $-1 $561 $719 #
straight-curve $-1 -20 10 5 0 0 -1 I I #
point $-1 -20 10 20 #
straight-curve $-1 0 20 20 1 0 0 I I #
model_id-kcp-attrib $-1 $-1 $-1 $513 1 990663944 80 -145752063 18 #
plane-surface $-1 0 20 0 0 -1 0 0 0 -1 forward_v I I I I #
convexity-sys-attrib $-1 $-1 $515 $395 #
face $-1 $553 $549 $17 $-1 $720 forward single #
loop $-1 $-1 $545 $519 #
plane-surface $-1 20 20 0 1 0 0 0 0 -1 forward_v I I I I #
coedge $-1 $721 $722 $544 $663 forward $520 $-1 #
coedge $-1 $723 $522 $722 $724 reversed $407 $-1 #
coedge $-1 $522 $723 $523 $646 forward $407 $-1 #
coedge $-1 $525 $544 $522 $644 reversed $147 $-1 #
edge $-1 $647 10 $725 20 $522 $726 forward 7 unknown #
coedge $-1 $524 $523 $727 $728 reversed $305 $-1 #
edge $-1 $729 0 $647 20 $642 $730 forward 7 unknown #
vertex $-1 $646 $731 #
straight-curve $-1 15 10 20 1 0 0 I I #
coedge $-1 $727 $531 $527 $650 forward $322 $-1 #
edge $732 $533 -10 $651 10 $527 $733 forward 7 unknown #
vertex $-1 $650 $734 #
straight-curve $-1 -40 10 0 0 0 1 I I #
point $-1 -40 10 20 #
convexity-sys-attrib $-1 $-1 $-1 $532 #
straight-curve $-1 15 -10 0 -1 0 0 I I #
point $-1 -40 -10 0 #
coedge $-1 $539 $735 $736 $737 forward $322 $-1 #
coedge $-1 $548 $547 $539 $659 reversed $549 $-1 #
edge $738 $739 5 $661 25 $658 $740 forward 7 unknown #
convexity-sys-attrib $-1 $-1 $-1 $541 #
vertex $-1 $659 $741 #
straight-curve $-1 40 0 0 0 -1 0 I I #
edge $-1 $725 -35 $666 5 $640 $742 forward 7 unknown #
coedge $-1 $736 $545 $548 $668 reversed $638 $-1 #
coedge $-1 $545 $736 $721 $743 forward $638 $-1 #
vertex $-1 $743 $744 #
straight-curve $-1 20 0 20 0 -1 0 I I #
edge $-1 $739 0 $550 20 $548 $745 forward 7 unknown #
point $-1 20 10 20 #
straight-curve $-1 40 10 0 0 0 1 I I #
plane-surface $-1 40 10 0 1 0 0 0 0 -1 forward_v I I I I #
model_id-kcp-attrib $-1 $-1 $-1 $556 1 990663944 80 -145752063 12 #
face $746 $111 $603 $7 $-1 $675 forward single #
loop $-1 $-1 $687 $556 #
plane-surface $-1 0 10 10 0 -1 0 0 0 -1 forward_v I I I I #
coedge $-1 $683 $558 $699 $747 reversed $444 $-1 #
edge $-1 $713 -15 $569 5 $568 $748 forward 7 unknown #
edge $-1 $605 -40 $630 -20 $601 $689 forward 7 unknown #
edge $-1 $622 20 $592 40 $590 $685 forward 7 unknown #
straight-curve $-1 -20 0 0 0 -1 0 I I #
coedge $-1 $577 $572 $562 $682 forward $153 $-1 #
edge $-1 $688 -10 $684 10 $681 $749 forward 7 unknown #
coedge $-1 $563 $676 $577 $698 reversed $444 $-1 #
vertex $-1 $682 $750 #
straight-curve $-1 0 -10 0 -1 0 0 I I #
coedge $-1 $751 $565 $572 $693 reversed $674 $-1 #
coedge $-1 $565 $751 $567 $690 reversed $674 $-1 #
vertex $-1 $682 $752 #
straight-curve $-1 0 10 0 1 0 0 I I #
edge $-1 $570 -5 $717 15 $567 $753 forward 7 unknown #
point $-1 20 -10 0 #
point $-1 20 10 0 #
edge $-1 $695 -15 $688 5 $572 $754 forward 7 unknown #
coedge $-1 $573 $626 $751 $755 forward $480 $-1 #
vertex $-1 $693 $756 #
straight-curve $-1 40 0 20 0 1 0 I I #
point $-1 40 40 20 #
edge $-1 $684 -5 $700 15 $577 $757 forward 7 unknown #
coedge $-1 $618 $578 $676 $747 forward $400 $-1 #
vertex $-1 $579 $758 #
convexity-sys-attrib $-1 $-1 $580 $456 #
point $-1 40 -40 20 #
attrib_edge_convexity-kcp-attrib $-1 $759 $-1 $588 1 #
straight-curve $-1 -40 0 0 0 1 0 I I #
convexity-sys-attrib $-1 $-1 $591 $466 #
point $-1 -40 -10 0 #
straight-curve $-1 0 -10 20 -1 0 0 I I #
convexity-sys-attrib $-1 $-1 $597 $472 #
convexity-sys-attrib $-1 $-1 $604 $477 #
point $-1 -40 10 0 #
straight-curve $-1 0 10 20 1 0 0 I I #
model_id-kcp-attrib $-1 $-1 $-1 $608 1 990663944 80 -145752063 19 #
vertex $-1 $747 $760 #
straight-curve $-1 20 0 20 0 -1 0 I I #
point $-1 20 -20 20 #
point $-1 -20 -10 0 #
vertex $-1 $627 $761 #
point $-1 20 20 20 #
point $-1 -20 10 0 #
plane-surface $-1 20 10 0 0 1 0 0 0 1 forward_v I I I I #
coedge $-1 $762 $640 $665 $743 reversed $520 $-1 #
coedge $-1 $640 $762 $641 $724 forward $520 $-1 #
coedge $-1 $642 $641 $763 $764 reversed $407 $-1 #
edge $-1 $765 0 $725 20 $722 $766 forward 7 unknown #
vertex $-1 $724 $767 #
straight-curve $-1 -20 0 20 0 1 0 I I #
coedge $-1 $763 $649 $645 $728 forward $322 $-1 #
edge $768 $651 -55 $729 -35 $645 $769 forward 7 unknown #
vertex $-1 $728 $770 #
straight-curve $-1 -20 10 0 0 0 1 I I #
point $-1 -20 10 20 #
convexity-sys-attrib $-1 $-1 $-1 $650 #
straight-curve $-1 -40 0 0 0 1 0 I I #
point $-1 -40 10 0 #
coedge $-1 $657 $763 $762 $771 forward $322 $-1 #
coedge $-1 $665 $664 $657 $737 reversed $638 $-1 #
edge $772 $773 -20 $739 -10 $736 $774 forward 7 unknown #
convexity-sys-attrib $-1 $-1 $-1 $659 #
vertex $-1 $737 $775 #
straight-curve $-1 15 10 0 1 0 0 I I #
point $-1 40 10 0 #
straight-curve $-1 15 20 20 1 0 0 I I #
edge $-1 $773 0 $666 20 $665 $776 forward 7 unknown #
point $-1 20 20 20 #
straight-curve $-1 20 10 0 0 0 1 I I #
model_id-kcp-attrib $-1 $-1 $-1 $673 1 990663944 80 -145752063 13 #
edge $-1 $700 -40 $713 -20 $699 $707 forward 7 unknown #
straight-curve $-1 20 -10 5 0 0 -1 I I #
straight-curve $-1 40 0 0 0 -1 0 I I #
point $-1 40 -10 0 #
coedge $-1 $687 $686 $694 $755 reversed $674 $-1 #
point $-1 40 10 0 #
straight-curve $-1 20 10 5 0 0 1 I I #
straight-curve $-1 40 10 5 0 0 -1 I I #
edge $-1 $717 20 $695 40 $694 $711 forward 7 unknown #
point $-1 40 10 20 #
straight-curve $-1 40 -10 5 0 0 1 I I #
point $-1 40 -10 20 #
convexity-sys-attrib $-1 $-1 $703 $588 #
point $-1 20 -10 20 #
point $-1 20 10 20 #
coedge $-1 $722 $721 $735 $771 reversed $520 $-1 #
coedge $-1 $735 $727 $723 $764 forward $322 $-1 #
edge $777 $729 10 $765 20 $723 $778 forward 7 unknown #
vertex $-1 $764 $779 #
straight-curve $-1 -20 20 0 0 0 1 I I #
point $-1 -20 20 20 #
convexity-sys-attrib $-1 $-1 $-1 $728 #
straight-curve $-1 15 10 0 1 0 0 I I #
point $-1 -20 10 0 #
edge $780 $765 -35 $773 5 $762 $781 forward 7 unknown #
convexity-sys-attrib $-1 $-1 $-1 $737 #
vertex $-1 $771 $782 #
straight-curve $-1 20 0 0 0 -1 0 I I #
point $-1 20 10 0 #
straight-curve $-1 20 20 0 0 0 1 I I #
convexity-sys-attrib $-1 $-1 $-1 $764 #
straight-curve $-1 -20 0 0 0 1 0 I I #
point $-1 -20 20 0 #
convexity-sys-attrib $-1 $-1 $-1 $771 #
straight-curve $-1 15 20 0 1 0 0 I I #
point $-1 20 20 0 #
End-of-ACIS-data 