600 0 1 0           
62 GICL ACIS Healer - Source: serr_edge_clamp_412_158_I.sat - 6 0 18 ACIS 6.0.3 Solaris 24 Fri Mar 29 21:02:26 2002 
1 9.999999999999999547e-07 1.000000000000000036e-10 
body $1 $2 $-1 $3 #
aggregate_advspl_attribute-aggregate_geombuild_base_attribute-aggregate_body_attribute-attrib_HH-attrib $-1 $4 $-1 $0 F #
lump $-1 $-1 $5 $0 #
transform $-1 1 0 0 0 1 0 0 0 1 0 0 0 1 no_rotate no_reflect no_shear #
aggregate_secndry_attribute-aggregate_geombuild_base_attribute-aggregate_body_attribute-attrib_HH-attrib $-1 $6 $1 $0 F #
shell $-1 $-1 $-1 $7 $-1 $2 #
aggregate_sharped_attribute-aggregate_geombuild_base_attribute-aggregate_body_attribute-attrib_HH-attrib $-1 $8 $4 $0 F #
face $9 $10 $11 $5 $-1 $12 reversed single #
aggregate_reblend_attribute-aggregate_geombuild_base_attribute-aggregate_body_attribute-attrib_HH-attrib $-1 $13 $6 $0 F #
attrib_hh_face_geombuild-attrib_entity_geombuild-individual_entity_attribute-attrib_HH-attrib $-1 $14 $-1 $7 F #
face $15 $16 $17 $5 $-1 $18 forward single #
loop $19 $-1 $20 $7 #
plane-surface $21 0 0 0 0 0 1 1 0 0 forward_v I I I I #
aggregate_isospline_attribute-aggregate_geombuild_base_attribute-aggregate_body_attribute-attrib_HH-attrib $-1 $22 $8 $0 F #
face_name-twe-attrib $-1 $-1 $9 $7 1 #
attrib_hh_face_geombuild-attrib_entity_geombuild-individual_entity_attribute-attrib_HH-attrib $-1 $23 $-1 $10 F #
face $24 $25 $26 $5 $-1 $27 forward single #
loop $28 $-1 $29 $10 #
plane-surface $30 0 0 40 0 0 1 1 0 0 forward_v I I I I #
loop_type-twe-attrib $-1 $-1 $-1 $11 0 #
coedge $31 $32 $33 $34 $35 forward $11 $-1 #
surf-twe-attrib $-1 $-1 $-1 $12 4 #
aggregate_analytic_solver_attribute-aggregate_geombuild_base_attribute-aggregate_body_attribute-attrib_HH-attrib $-1 $36 $13 $0 F #
face_name-twe-attrib $-1 $-1 $15 $10 2 #
attrib_hh_face_geombuild-attrib_entity_geombuild-individual_entity_attribute-attrib_HH-attrib $-1 $37 $-1 $16 F #
face $38 $39 $40 $5 $-1 $41 forward single #
loop $42 $-1 $34 $16 #
plane-surface $43 0 0 0 -1 0 0 0 0 1 forward_v I I I I #
loop_type-twe-attrib $-1 $-1 $-1 $17 0 #
coedge $44 $45 $46 $47 $48 reversed $17 $-1 #
surf-twe-attrib $-1 $-1 $-1 $18 6 #
attrib_hh_coedge_geombuild-attrib_entity_geombuild-individual_entity_attribute-attrib_HH-attrib $-1 $-1 $-1 $20 F #
coedge $49 $50 $20 $51 $52 forward $11 $-1 #
coedge $53 $20 $54 $55 $56 forward $11 $-1 #
coedge $57 $58 $59 $20 $35 reversed $26 $-1 #
edge $60 $61 -74 $62 0 $34 $63 forward 7 unknown #
aggregate_geombuild_attribute-aggregate_geombuild_base_attribute-aggregate_body_attribute-attrib_HH-attrib $-1 $64 $22 $0 #
face_name-twe-attrib $-1 $-1 $24 $16 3 #
attrib_hh_face_geombuild-attrib_entity_geombuild-individual_entity_attribute-attrib_HH-attrib $-1 $65 $-1 $25 F #
face $66 $67 $68 $5 $-1 $69 forward single #
loop $70 $71 $72 $25 #
plane-surface $73 0 -74 0 0 -1 0 0 0 -1 forward_v I I I I #
loop_type-twe-attrib $-1 $-1 $-1 $26 0 #
surf-twe-attrib $-1 $-1 $-1 $27 10 #
attrib_hh_coedge_geombuild-attrib_entity_geombuild-individual_entity_attribute-attrib_HH-attrib $-1 $-1 $-1 $29 F #
coedge $74 $75 $29 $76 $77 reversed $17 $-1 #
coedge $78 $29 $79 $80 $81 reversed $17 $-1 #
coedge $82 $59 $58 $29 $48 forward $26 $-1 #
edge $83 $84 -74 $85 0 $47 $86 forward 7 unknown #
attrib_hh_coedge_geombuild-attrib_entity_geombuild-individual_entity_attribute-attrib_HH-attrib $-1 $-1 $-1 $32 F #
coedge $87 $88 $32 $89 $90 forward $11 $-1 #
coedge $91 $92 $93 $32 $52 reversed $94 $-1 #
edge $95 $62 -80 $96 0 $51 $97 forward 7 unknown #
attrib_hh_coedge_geombuild-attrib_entity_geombuild-individual_entity_attribute-attrib_HH-attrib $-1 $-1 $-1 $33 F #
coedge $98 $33 $88 $99 $100 forward $11 $-1 #
coedge $101 $102 $103 $33 $56 reversed $71 $-1 #
edge $104 $105 -120 $61 0 $55 $106 forward 7 unknown #
attrib_hh_coedge_geombuild-attrib_entity_geombuild-individual_entity_attribute-attrib_HH-attrib $-1 $-1 $-1 $34 F #
coedge $107 $47 $34 $103 $108 reversed $26 $-1 #
coedge $109 $34 $47 $92 $110 forward $26 $-1 #
attrib_hh_edge_geombuild-attrib_entity_geombuild-individual_entity_attribute-attrib_HH-attrib $-1 $111 $-1 $35 F #
vertex $112 $108 $113 #
vertex $114 $110 $115 #
straight-curve $116 0 0 0 0 1 0 I I #
aggregate_stitch_attribute-aggregate_stitch_base_attribute-aggregate_body_attribute-attrib_HH-attrib $-1 $117 $36 $0 F #
face_name-twe-attrib $-1 $-1 $38 $25 4 #
attrib_hh_face_geombuild-attrib_entity_geombuild-individual_entity_attribute-attrib_HH-attrib $-1 $118 $-1 $39 F #
face $119 $120 $121 $5 $-1 $122 forward single #
loop $123 $-1 $124 $39 #
plane-surface $125 120 -74 0 1 0 0 0 0 -1 forward_v I I I I #
loop_type-twe-attrib $-1 $-1 $-1 $40 1 #
loop $126 $127 $55 $25 #
coedge $128 $72 $72 $129 $130 forward $40 $-1 #
surf-twe-attrib $-1 $-1 $-1 $41 17 #
attrib_hh_coedge_geombuild-attrib_entity_geombuild-individual_entity_attribute-attrib_HH-attrib $-1 $-1 $-1 $45 F #
coedge $131 $132 $45 $133 $134 reversed $17 $-1 #
coedge $135 $103 $102 $45 $77 forward $71 $-1 #
edge $136 $137 -120 $84 0 $76 $138 forward 7 unknown #
attrib_hh_coedge_geombuild-attrib_entity_geombuild-individual_entity_attribute-attrib_HH-attrib $-1 $-1 $-1 $46 F #
coedge $139 $46 $132 $140 $141 reversed $17 $-1 #
coedge $142 $93 $92 $46 $81 forward $94 $-1 #
edge $143 $85 -80 $144 0 $80 $145 forward 7 unknown #
attrib_hh_coedge_geombuild-attrib_entity_geombuild-individual_entity_attribute-attrib_HH-attrib $-1 $-1 $-1 $47 F #
attrib_hh_edge_geombuild-attrib_entity_geombuild-individual_entity_attribute-attrib_HH-attrib $-1 $146 $-1 $48 F #
vertex $147 $108 $148 #
vertex $149 $110 $150 #
straight-curve $151 0 0 40 0 1 0 I I #
attrib_hh_coedge_geombuild-attrib_entity_geombuild-individual_entity_attribute-attrib_HH-attrib $-1 $-1 $-1 $50 F #
coedge $152 $54 $50 $153 $154 forward $11 $-1 #
coedge $155 $156 $157 $50 $90 reversed $158 $-1 #
edge $159 $96 -39 $160 0 $89 $161 forward 7 unknown #
attrib_hh_coedge_geombuild-attrib_entity_geombuild-individual_entity_attribute-attrib_HH-attrib $-1 $-1 $-1 $51 F #
coedge $162 $80 $51 $59 $110 reversed $94 $-1 #
coedge $163 $51 $80 $156 $164 forward $94 $-1 #
loop $165 $-1 $51 $166 #
attrib_hh_edge_geombuild-attrib_entity_geombuild-individual_entity_attribute-attrib_HH-attrib $-1 $167 $-1 $52 F #
vertex $168 $164 $169 #
straight-curve $170 80 0 0 1 0 0 I I #
attrib_hh_coedge_geombuild-attrib_entity_geombuild-individual_entity_attribute-attrib_HH-attrib $-1 $-1 $-1 $54 F #
coedge $171 $172 $173 $54 $100 reversed $68 $-1 #
edge $174 $175 -35 $105 0 $99 $176 forward 7 unknown #
attrib_hh_coedge_geombuild-attrib_entity_geombuild-individual_entity_attribute-attrib_HH-attrib $-1 $-1 $-1 $55 F #
coedge $177 $76 $55 $173 $178 reversed $71 $-1 #
coedge $179 $55 $76 $58 $108 forward $71 $-1 #
attrib_hh_edge_geombuild-attrib_entity_geombuild-individual_entity_attribute-attrib_HH-attrib $-1 $180 $-1 $56 F #
vertex $181 $178 $182 #
straight-curve $183 0 -74 0 -1 0 0 I I #
attrib_hh_coedge_geombuild-attrib_entity_geombuild-individual_entity_attribute-attrib_HH-attrib $-1 $-1 $-1 $58 F #
edge $184 $84 -40 $61 0 $103 $185 forward 7 unknown #
attrib_hh_coedge_geombuild-attrib_entity_geombuild-individual_entity_attribute-attrib_HH-attrib $-1 $-1 $-1 $59 F #
edge $186 $85 -40 $62 0 $92 $187 forward 7 unknown #
edge_name-twe-attrib $-1 $-1 $60 $35 1 8704 #
attrib_hh_vertex_geombuild-attrib_entity_geombuild-individual_entity_attribute-attrib_HH-attrib $-1 $-1 $-1 $61 F #
point $-1 0 -74 0 #
attrib_hh_vertex_geombuild-attrib_entity_geombuild-individual_entity_attribute-attrib_HH-attrib $-1 $-1 $-1 $62 F #
point $-1 0 0 0 #
cur-twe-attrib $-1 $-1 $-1 $63 26 #
aggregate_simgeom_attribute-aggregate_simgeom_base_attribute-aggregate_body_attribute-attrib_HH-attrib $-1 $-1 $64 $0 F #
face_name-twe-attrib $-1 $-1 $66 $39 5 #
attrib_hh_face_geombuild-attrib_entity_geombuild-individual_entity_attribute-attrib_HH-attrib $-1 $188 $-1 $67 F #
face $189 $190 $191 $5 $-1 $122 forward single #
loop $192 $-1 $193 $67 #
plane-surface $194 120 -39 0 0 1 0 0 0 1 forward_v I I I I #
loop_type-twe-attrib $-1 $-1 $-1 $68 0 #
coedge $195 $196 $197 $198 $199 forward $68 $-1 #
surf-twe-attrib $-1 $-1 $-1 $69 28 #
loop_type-twe-attrib $-1 $-1 $-1 $71 0 #
loop $200 $201 $202 $25 #
attrib_hh_coedge_geombuild-attrib_entity_geombuild-individual_entity_attribute-attrib_HH-attrib $-1 $-1 $-1 $72 F #
coedge $203 $129 $129 $72 $130 reversed $204 $-1 #
edge $205 $206 -3.141592653589793116 $206 3.141592653589793116 $129 $207 forward 7 unknown #
attrib_hh_coedge_geombuild-attrib_entity_geombuild-individual_entity_attribute-attrib_HH-attrib $-1 $-1 $-1 $75 F #
coedge $208 $79 $75 $209 $210 reversed $17 $-1 #
coedge $211 $173 $196 $75 $134 forward $68 $-1 #
edge $212 $213 -35 $137 0 $133 $214 forward 7 unknown #
attrib_hh_coedge_geombuild-attrib_entity_geombuild-individual_entity_attribute-attrib_HH-attrib $-1 $-1 $-1 $76 F #
attrib_hh_edge_geombuild-attrib_entity_geombuild-individual_entity_attribute-attrib_HH-attrib $-1 $215 $-1 $77 F #
vertex $216 $178 $217 #
straight-curve $218 0 -74 40 -1 0 0 I I #
attrib_hh_coedge_geombuild-attrib_entity_geombuild-individual_entity_attribute-attrib_HH-attrib $-1 $-1 $-1 $79 F #
coedge $219 $220 $156 $79 $141 forward $158 $-1 #
edge $221 $144 -39 $222 0 $140 $223 forward 7 unknown #
attrib_hh_coedge_geombuild-attrib_entity_geombuild-individual_entity_attribute-attrib_HH-attrib $-1 $-1 $-1 $80 F #
attrib_hh_edge_geombuild-attrib_entity_geombuild-individual_entity_attribute-attrib_HH-attrib $-1 $224 $-1 $81 F #
vertex $225 $164 $226 #
straight-curve $227 80 0 40 1 0 0 I I #
edge_name-twe-attrib $-1 $-1 $83 $48 2 8704 #
attrib_hh_vertex_geombuild-attrib_entity_geombuild-individual_entity_attribute-attrib_HH-attrib $-1 $-1 $-1 $84 F #
point $-1 0 -74 40 #
attrib_hh_vertex_geombuild-attrib_entity_geombuild-individual_entity_attribute-attrib_HH-attrib $-1 $-1 $-1 $85 F #
point $-1 0 0 40 #
cur-twe-attrib $-1 $-1 $-1 $86 36 #
attrib_hh_coedge_geombuild-attrib_entity_geombuild-individual_entity_attribute-attrib_HH-attrib $-1 $-1 $-1 $88 F #
coedge $228 $229 $230 $88 $154 reversed $191 $-1 #
edge $231 $160 -40 $175 0 $153 $232 forward 7 unknown #
attrib_hh_coedge_geombuild-attrib_entity_geombuild-individual_entity_attribute-attrib_HH-attrib $-1 $-1 $-1 $89 F #
coedge $233 $140 $89 $93 $164 reversed $158 $-1 #
coedge $234 $89 $235 $229 $236 forward $158 $-1 #
loop $237 $-1 $157 $190 #
attrib_hh_edge_geombuild-attrib_entity_geombuild-individual_entity_attribute-attrib_HH-attrib $-1 $238 $-1 $90 F #
vertex $239 $236 $240 #
straight-curve $241 80 -39 0 0 -1 0 I I #
attrib_hh_coedge_geombuild-attrib_entity_geombuild-individual_entity_attribute-attrib_HH-attrib $-1 $-1 $-1 $92 F #
attrib_hh_coedge_geombuild-attrib_entity_geombuild-individual_entity_attribute-attrib_HH-attrib $-1 $-1 $-1 $93 F #
edge $242 $144 -40 $96 0 $93 $243 forward 7 unknown #
loop_type-twe-attrib $-1 $-1 $-1 $94 0 #
face $244 $245 $94 $5 $-1 $246 forward single #
edge_name-twe-attrib $-1 $-1 $95 $52 17 8704 #
attrib_hh_vertex_geombuild-attrib_entity_geombuild-individual_entity_attribute-attrib_HH-attrib $-1 $-1 $-1 $96 F #
point $-1 80 0 0 #
cur-twe-attrib $-1 $-1 $-1 $97 39 #
attrib_hh_coedge_geombuild-attrib_entity_geombuild-individual_entity_attribute-attrib_HH-attrib $-1 $-1 $-1 $99 F #
coedge $247 $248 $99 $230 $249 reversed $68 $-1 #
coedge $250 $99 $133 $102 $178 forward $68 $-1 #
attrib_hh_edge_geombuild-attrib_entity_geombuild-individual_entity_attribute-attrib_HH-attrib $-1 $251 $-1 $100 F #
vertex $252 $249 $253 #
straight-curve $254 120 -74 0 0 -1 0 I I #
attrib_hh_coedge_geombuild-attrib_entity_geombuild-individual_entity_attribute-attrib_HH-attrib $-1 $-1 $-1 $102 F #
edge $255 $137 -40 $105 0 $173 $256 forward 7 unknown #
attrib_hh_coedge_geombuild-attrib_entity_geombuild-individual_entity_attribute-attrib_HH-attrib $-1 $-1 $-1 $103 F #
edge_name-twe-attrib $-1 $-1 $104 $56 3 8704 #
attrib_hh_vertex_geombuild-attrib_entity_geombuild-individual_entity_attribute-attrib_HH-attrib $-1 $-1 $-1 $105 F #
point $-1 120 -74 0 #
cur-twe-attrib $-1 $-1 $-1 $106 42 #
attrib_hh_edge_geombuild-attrib_entity_geombuild-individual_entity_attribute-attrib_HH-attrib $-1 $257 $-1 $108 F #
straight-curve $258 0 -74 0 0 0 -1 I I #
attrib_hh_edge_geombuild-attrib_entity_geombuild-individual_entity_attribute-attrib_HH-attrib $-1 $259 $-1 $110 F #
straight-curve $260 0 0 0 0 0 -1 I I #
face_name-twe-attrib $-1 $-1 $119 $67 6 #
attrib_hh_face_geombuild-attrib_entity_geombuild-individual_entity_attribute-attrib_HH-attrib $-1 $261 $-1 $120 F #
face $262 $166 $158 $5 $-1 $263 forward single #
loop $264 $-1 $265 $120 #
loop_type-twe-attrib $-1 $-1 $-1 $121 0 #
coedge $266 $267 $268 $269 $270 reversed $121 $-1 #
surf-twe-attrib $-1 $271 $-1 $122 89 #
attrib_hh_coedge_geombuild-attrib_entity_geombuild-individual_entity_attribute-attrib_HH-attrib $-1 $-1 $-1 $124 F #
coedge $272 $133 $124 $268 $273 reversed $68 $-1 #
coedge $274 $124 $275 $276 $277 forward $68 $-1 #
coedge $278 $279 $269 $124 $199 reversed $280 $-1 #
edge $281 $282 -10 $283 0 $198 $284 forward 7 unknown #
loop_type-twe-attrib $-1 $-1 $-1 $127 1 #
loop $285 $286 $287 $25 #
coedge $288 $202 $202 $289 $290 forward $127 $-1 #
attrib_hh_coedge_geombuild-attrib_entity_geombuild-individual_entity_attribute-attrib_HH-attrib $-1 $-1 $-1 $129 F #
loop $291 $-1 $129 $292 #
attrib_hh_edge_geombuild-attrib_entity_geombuild-individual_entity_attribute-attrib_HH-attrib $-1 $293 $-1 $130 F #
vertex $294 $130 $295 #
ellipse-curve $296 86.5 -74 20 0 1 0 -6.5 0 0 1 I I #
attrib_hh_coedge_geombuild-attrib_entity_geombuild-individual_entity_attribute-attrib_HH-attrib $-1 $-1 $-1 $132 F #
coedge $297 $268 $267 $132 $210 forward $121 $-1 #
edge $298 $222 -40 $213 0 $209 $299 forward 7 unknown #
attrib_hh_coedge_geombuild-attrib_entity_geombuild-individual_entity_attribute-attrib_HH-attrib $-1 $-1 $-1 $133 F #
attrib_hh_edge_geombuild-attrib_entity_geombuild-individual_entity_attribute-attrib_HH-attrib $-1 $300 $-1 $134 F #
vertex $301 $273 $302 #
straight-curve $303 120 -74 40 0 -1 0 I I #
edge_name-twe-attrib $-1 $-1 $136 $77 4 8704 #
attrib_hh_vertex_geombuild-attrib_entity_geombuild-individual_entity_attribute-attrib_HH-attrib $-1 $-1 $-1 $137 F #
point $-1 120 -74 40 #
cur-twe-attrib $-1 $-1 $-1 $138 59 #
attrib_hh_coedge_geombuild-attrib_entity_geombuild-individual_entity_attribute-attrib_HH-attrib $-1 $-1 $-1 $140 F #
coedge $304 $305 $140 $267 $306 forward $158 $-1 #
attrib_hh_edge_geombuild-attrib_entity_geombuild-individual_entity_attribute-attrib_HH-attrib $-1 $307 $-1 $141 F #
vertex $308 $306 $309 #
straight-curve $310 80 -39 40 0 -1 0 I I #
edge_name-twe-attrib $-1 $-1 $143 $81 19 8704 #
attrib_hh_vertex_geombuild-attrib_entity_geombuild-individual_entity_attribute-attrib_HH-attrib $-1 $-1 $-1 $144 F #
point $-1 80 0 40 #
cur-twe-attrib $-1 $-1 $-1 $145 62 #
attrib_hh_coedge_geombuild-attrib_entity_geombuild-individual_entity_attribute-attrib_HH-attrib $-1 $-1 $-1 $153 F #
coedge $311 $265 $153 $157 $236 reversed $191 $-1 #
coedge $312 $153 $265 $172 $249 forward $191 $-1 #
attrib_hh_edge_geombuild-attrib_entity_geombuild-individual_entity_attribute-attrib_HH-attrib $-1 $313 $-1 $154 F #
straight-curve $314 120 -39 0 1 0 0 I I #
attrib_hh_coedge_geombuild-attrib_entity_geombuild-individual_entity_attribute-attrib_HH-attrib $-1 $-1 $-1 $156 F #
attrib_hh_coedge_geombuild-attrib_entity_geombuild-individual_entity_attribute-attrib_HH-attrib $-1 $-1 $-1 $157 F #
coedge $315 $157 $316 $317 $318 reversed $158 $-1 #
edge $319 $320 -14 $160 0 $157 $321 forward 7 unknown #
loop_type-twe-attrib $-1 $-1 $-1 $158 0 #
edge_name-twe-attrib $-1 $-1 $159 $90 14 8704 #
attrib_hh_vertex_geombuild-attrib_entity_geombuild-individual_entity_attribute-attrib_HH-attrib $-1 $-1 $-1 $160 F #
point $-1 80 -39 0 #
cur-twe-attrib $-1 $-1 $-1 $161 69 #
attrib_hh_edge_geombuild-attrib_entity_geombuild-individual_entity_attribute-attrib_HH-attrib $-1 $322 $-1 $164 F #
straight-curve $323 80 0 0 0 0 -1 I I #
attrib_hh_face_geombuild-attrib_entity_geombuild-individual_entity_attribute-attrib_HH-attrib $-1 $324 $-1 $166 F #
face $325 $326 $280 $5 $-1 $327 reversed single #
plane-surface $328 80 0 0 0 1 0 0 0 1 forward_v I I I I #
attrib_hh_coedge_geombuild-attrib_entity_geombuild-individual_entity_attribute-attrib_HH-attrib $-1 $-1 $-1 $172 F #
coedge $329 $330 $172 $331 $332 reversed $68 $-1 #
edge $333 $334 -14 $175 0 $230 $335 forward 7 unknown #
attrib_hh_coedge_geombuild-attrib_entity_geombuild-individual_entity_attribute-attrib_HH-attrib $-1 $-1 $-1 $173 F #
edge_name-twe-attrib $-1 $-1 $174 $100 8 8704 #
attrib_hh_vertex_geombuild-attrib_entity_geombuild-individual_entity_attribute-attrib_HH-attrib $-1 $-1 $-1 $175 F #
point $-1 120 -39 0 #
cur-twe-attrib $-1 $-1 $-1 $176 77 #
attrib_hh_edge_geombuild-attrib_entity_geombuild-individual_entity_attribute-attrib_HH-attrib $-1 $336 $-1 $178 F #
straight-curve $337 120 -74 0 0 0 -1 I I #
edge_name-twe-attrib $-1 $-1 $184 $108 5 8704 #
cur-twe-attrib $-1 $-1 $-1 $185 83 #
edge_name-twe-attrib $-1 $-1 $186 $110 18 8704 #
cur-twe-attrib $-1 $-1 $-1 $187 84 #
face_name-twe-attrib $-1 $-1 $189 $120 7 #
attrib_hh_face_geombuild-attrib_entity_geombuild-individual_entity_attribute-attrib_HH-attrib $-1 $338 $-1 $190 F #
plane-surface $339 80 -39 0 1 0 0 0 0 -1 forward_v I I I I #
loop_type-twe-attrib $-1 $-1 $-1 $191 0 #
coedge $340 $230 $229 $341 $342 forward $191 $-1 #
attrib_hh_coedge_geombuild-attrib_entity_geombuild-individual_entity_attribute-attrib_HH-attrib $-1 $-1 $-1 $193 F #
coedge $343 $209 $193 $220 $306 reversed $121 $-1 #
coedge $344 $193 $209 $196 $273 forward $121 $-1 #
coedge $345 $198 $346 $193 $270 forward $280 $-1 #
edge $347 $348 -40 $283 0 $269 $349 forward 7 unknown #
surf-twe-attrib $-1 $-1 $194 $122 50 #
attrib_hh_coedge_geombuild-attrib_entity_geombuild-individual_entity_attribute-attrib_HH-attrib $-1 $-1 $-1 $196 F #
edge $350 $213 -14 $283 0 $268 $351 forward 7 unknown #
attrib_hh_coedge_geombuild-attrib_entity_geombuild-individual_entity_attribute-attrib_HH-attrib $-1 $-1 $-1 $197 F #
coedge $352 $197 $353 $354 $355 forward $68 $-1 #
coedge $356 $357 $358 $197 $277 reversed $359 $-1 #
edge $360 $361 -4 $282 0 $276 $362 forward 7 unknown #
attrib_hh_coedge_geombuild-attrib_entity_geombuild-individual_entity_attribute-attrib_HH-attrib $-1 $-1 $-1 $198 F #
coedge $363 $346 $198 $358 $364 forward $280 $-1 #
loop $365 $-1 $198 $245 #
attrib_hh_edge_geombuild-attrib_entity_geombuild-individual_entity_attribute-attrib_HH-attrib $-1 $366 $-1 $199 F #
vertex $367 $364 $368 #
vertex $369 $273 $370 #
straight-curve $371 120 -39 26 0 1 0 I I #
loop_type-twe-attrib $-1 $-1 $-1 $201 1 #
loop $372 $-1 $373 $25 #
coedge $374 $287 $287 $375 $376 reversed $201 $-1 #
attrib_hh_coedge_geombuild-attrib_entity_geombuild-individual_entity_attribute-attrib_HH-attrib $-1 $-1 $-1 $202 F #
coedge $377 $289 $289 $202 $290 reversed $378 $-1 #
edge $379 $380 -3.141592653589793116 $380 3.141592653589793116 $289 $381 forward 7 unknown #
loop_type-twe-attrib $-1 $-1 $-1 $204 1 #
face $382 $383 $384 $5 $-1 $385 reversed single #
edge_name-twe-attrib $-1 $-1 $205 $130 46 8704 #
attrib_hh_vertex_geombuild-attrib_entity_geombuild-individual_entity_attribute-attrib_HH-attrib $-1 $-1 $-1 $206 F #
point $-1 93 -74 20 #
cur-twe-attrib $-1 $-1 $-1 $207 98 #
attrib_hh_coedge_geombuild-attrib_entity_geombuild-individual_entity_attribute-attrib_HH-attrib $-1 $-1 $-1 $209 F #
attrib_hh_edge_geombuild-attrib_entity_geombuild-individual_entity_attribute-attrib_HH-attrib $-1 $386 $-1 $210 F #
straight-curve $387 120 -39 40 1 0 0 I I #
edge_name-twe-attrib $-1 $-1 $212 $134 6 8704 #
attrib_hh_vertex_geombuild-attrib_entity_geombuild-individual_entity_attribute-attrib_HH-attrib $-1 $-1 $-1 $213 F #
point $-1 120 -39 40 #
cur-twe-attrib $-1 $-1 $-1 $214 101 #
attrib_hh_coedge_geombuild-attrib_entity_geombuild-individual_entity_attribute-attrib_HH-attrib $-1 $-1 $-1 $220 F #
coedge $388 $389 $220 $346 $390 reversed $158 $-1 #
edge $391 $222 -14 $348 0 $220 $392 forward 7 unknown #
edge_name-twe-attrib $-1 $-1 $221 $141 15 8704 #
attrib_hh_vertex_geombuild-attrib_entity_geombuild-individual_entity_attribute-attrib_HH-attrib $-1 $-1 $-1 $222 F #
point $-1 80 -39 40 #
cur-twe-attrib $-1 $-1 $-1 $223 106 #
attrib_hh_coedge_geombuild-attrib_entity_geombuild-individual_entity_attribute-attrib_HH-attrib $-1 $-1 $-1 $229 F #
attrib_hh_coedge_geombuild-attrib_entity_geombuild-individual_entity_attribute-attrib_HH-attrib $-1 $-1 $-1 $230 F #
edge_name-twe-attrib $-1 $-1 $231 $154 12 8704 #
cur-twe-attrib $-1 $-1 $-1 $232 114 #
attrib_hh_coedge_geombuild-attrib_entity_geombuild-individual_entity_attribute-attrib_HH-attrib $-1 $-1 $-1 $235 F #
coedge $393 $235 $394 $395 $396 reversed $158 $-1 #
coedge $397 $398 $341 $235 $318 forward $399 $-1 #
edge $400 $320 -10 $401 0 $317 $402 forward 7 unknown #
attrib_hh_edge_geombuild-attrib_entity_geombuild-individual_entity_attribute-attrib_HH-attrib $-1 $403 $-1 $236 F #
vertex $404 $318 $405 #
straight-curve $406 80 -39 0 0 0 -1 I I #
edge_name-twe-attrib $-1 $-1 $242 $164 20 8704 #
cur-twe-attrib $-1 $-1 $-1 $243 121 #
face_name-twe-attrib $-1 $-1 $244 $166 9 #
attrib_hh_face_geombuild-attrib_entity_geombuild-individual_entity_attribute-attrib_HH-attrib $-1 $407 $-1 $245 F #
face $408 $409 $359 $5 $-1 $410 reversed single #
plane-surface $411 80 -39 26 0 0 1 1 0 0 forward_v I I I I #
surf-twe-attrib $-1 $-1 $-1 $246 123 #
attrib_hh_coedge_geombuild-attrib_entity_geombuild-individual_entity_attribute-attrib_HH-attrib $-1 $-1 $-1 $248 F #
coedge $412 $413 $248 $414 $415 forward $68 $-1 #
coedge $416 $341 $398 $248 $332 forward $399 $-1 #
edge $417 $418 -10 $334 0 $331 $419 forward 7 unknown #
attrib_hh_edge_geombuild-attrib_entity_geombuild-individual_entity_attribute-attrib_HH-attrib $-1 $420 $-1 $249 F #
vertex $421 $249 $422 #
straight-curve $423 120 -39 0 0 0 -1 I I #
edge_name-twe-attrib $-1 $-1 $255 $178 7 8704 #
cur-twe-attrib $-1 $-1 $-1 $256 131 #
face_name-twe-attrib $-1 $-1 $262 $190 8 #
surf-twe-attrib $-1 $-1 $-1 $263 139 #
attrib_hh_coedge_geombuild-attrib_entity_geombuild-individual_entity_attribute-attrib_HH-attrib $-1 $-1 $-1 $265 F #
coedge $424 $317 $331 $265 $342 reversed $399 $-1 #
edge $425 $320 -40 $334 0 $341 $426 forward 7 unknown #
attrib_hh_coedge_geombuild-attrib_entity_geombuild-individual_entity_attribute-attrib_HH-attrib $-1 $-1 $-1 $267 F #
attrib_hh_coedge_geombuild-attrib_entity_geombuild-individual_entity_attribute-attrib_HH-attrib $-1 $-1 $-1 $268 F #
attrib_hh_coedge_geombuild-attrib_entity_geombuild-individual_entity_attribute-attrib_HH-attrib $-1 $-1 $-1 $269 F #
coedge $427 $269 $279 $305 $390 forward $280 $-1 #
attrib_hh_edge_geombuild-attrib_entity_geombuild-individual_entity_attribute-attrib_HH-attrib $-1 $428 $-1 $270 F #
vertex $429 $306 $430 #
straight-curve $431 120 -39 26 1 0 0 I I #
attrib_hh_edge_geombuild-attrib_entity_geombuild-individual_entity_attribute-attrib_HH-attrib $-1 $432 $-1 $273 F #
straight-curve $433 120 -39 26 0 0 -1 I I #
attrib_hh_coedge_geombuild-attrib_entity_geombuild-individual_entity_attribute-attrib_HH-attrib $-1 $-1 $-1 $275 F #
coedge $434 $275 $413 $435 $436 forward $68 $-1 #
coedge $437 $438 $439 $275 $355 reversed $440 $-1 #
edge $441 $442 -8 $361 0 $354 $443 forward 7 unknown #
attrib_hh_coedge_geombuild-attrib_entity_geombuild-individual_entity_attribute-attrib_HH-attrib $-1 $-1 $-1 $276 F #
coedge $444 $445 $276 $439 $446 forward $359 $-1 #
coedge $447 $276 $445 $279 $364 reversed $359 $-1 #
loop $448 $-1 $276 $326 #
attrib_hh_edge_geombuild-attrib_entity_geombuild-individual_entity_attribute-attrib_HH-attrib $-1 $449 $-1 $277 F #
vertex $450 $446 $451 #
straight-curve $452 120 -49 26 0 0 -1 I I #
attrib_hh_coedge_geombuild-attrib_entity_geombuild-individual_entity_attribute-attrib_HH-attrib $-1 $-1 $-1 $279 F #
edge $453 $282 -40 $454 0 $358 $455 forward 7 unknown #
loop_type-twe-attrib $-1 $-1 $-1 $280 0 #
edge_name-twe-attrib $-1 $-1 $281 $199 21 8704 #
attrib_hh_vertex_geombuild-attrib_entity_geombuild-individual_entity_attribute-attrib_HH-attrib $-1 $-1 $-1 $282 F #
point $-1 120 -49 26 #
attrib_hh_vertex_geombuild-attrib_entity_geombuild-individual_entity_attribute-attrib_HH-attrib $-1 $-1 $-1 $283 F #
point $-1 120 -39 26 #
cur-twe-attrib $-1 $-1 $-1 $284 147 #
loop_type-twe-attrib $-1 $-1 $-1 $286 1 #
coedge $456 $373 $373 $457 $458 reversed $286 $-1 #
attrib_hh_coedge_geombuild-attrib_entity_geombuild-individual_entity_attribute-attrib_HH-attrib $-1 $-1 $-1 $287 F #
coedge $459 $375 $375 $287 $376 forward $460 $-1 #
edge $461 $462 0 $462 6.283185307179586232 $375 $463 forward 7 unknown #
attrib_hh_coedge_geombuild-attrib_entity_geombuild-individual_entity_attribute-attrib_HH-attrib $-1 $-1 $-1 $289 F #
loop $464 $-1 $289 $465 #
attrib_hh_edge_geombuild-attrib_entity_geombuild-individual_entity_attribute-attrib_HH-attrib $-1 $466 $-1 $290 F #
vertex $467 $290 $468 #
ellipse-curve $469 110 -74 20 0 1 0 -6.5 0 0 1 I I #
attrib_hh_face_geombuild-attrib_entity_geombuild-individual_entity_attribute-attrib_HH-attrib $-1 $470 $-1 $292 F #
face $471 $472 $473 $5 $-1 $474 reversed single #
loop $475 $204 $476 $292 #
cone-surface $477 86.5 -57 20 0 -1 0 6.5 0 0 1 I I 0 1 6.5 forward I I I I #
edge_name-twe-attrib $-1 $-1 $298 $210 9 8704 #
cur-twe-attrib $-1 $-1 $-1 $299 156 #
attrib_hh_coedge_geombuild-attrib_entity_geombuild-individual_entity_attribute-attrib_HH-attrib $-1 $-1 $-1 $305 F #
coedge $478 $479 $305 $445 $480 reversed $158 $-1 #
edge $481 $454 -10 $348 0 $346 $482 forward 7 unknown #
attrib_hh_edge_geombuild-attrib_entity_geombuild-individual_entity_attribute-attrib_HH-attrib $-1 $483 $-1 $306 F #
straight-curve $484 80 -39 26 0 0 -1 I I #
attrib_hh_coedge_geombuild-attrib_entity_geombuild-individual_entity_attribute-attrib_HH-attrib $-1 $-1 $-1 $316 F #
coedge $485 $316 $486 $487 $488 reversed $158 $-1 #
coedge $489 $490 $491 $316 $396 forward $492 $-1 #
edge $493 $401 -4 $494 0 $395 $495 forward 7 unknown #
attrib_hh_coedge_geombuild-attrib_entity_geombuild-individual_entity_attribute-attrib_HH-attrib $-1 $-1 $-1 $317 F #
coedge $496 $331 $317 $491 $497 reversed $399 $-1 #
loop $498 $-1 $331 $499 #
attrib_hh_edge_geombuild-attrib_entity_geombuild-individual_entity_attribute-attrib_HH-attrib $-1 $500 $-1 $318 F #
vertex $501 $497 $502 #
straight-curve $503 80 -49 14 0 -1 0 I I #
edge_name-twe-attrib $-1 $-1 $319 $236 13 4608 #
attrib_hh_vertex_geombuild-attrib_entity_geombuild-individual_entity_attribute-attrib_HH-attrib $-1 $-1 $-1 $320 F #
point $-1 80 -39 14 #
cur-twe-attrib $-1 $504 $-1 $321 223 #
face_name-twe-attrib $-1 $-1 $325 $245 10 #
attrib_hh_face_geombuild-attrib_entity_geombuild-individual_entity_attribute-attrib_HH-attrib $-1 $505 $-1 $326 F #
face $506 $507 $440 $5 $-1 $508 reversed single #
plane-surface $509 80 -49 26 0 1 0 0 0 1 forward_v I I I I #
surf-twe-attrib $-1 $-1 $-1 $327 180 #
attrib_hh_coedge_geombuild-attrib_entity_geombuild-individual_entity_attribute-attrib_HH-attrib $-1 $-1 $-1 $330 F #
coedge $510 $353 $330 $511 $512 forward $68 $-1 #
coedge $513 $491 $490 $330 $415 reversed $492 $-1 #
edge $514 $418 -4 $515 0 $414 $516 forward 7 unknown #
attrib_hh_coedge_geombuild-attrib_entity_geombuild-individual_entity_attribute-attrib_HH-attrib $-1 $-1 $-1 $331 F #
attrib_hh_edge_geombuild-attrib_entity_geombuild-individual_entity_attribute-attrib_HH-attrib $-1 $517 $-1 $332 F #
vertex $518 $497 $519 #
straight-curve $520 120 -39 14 0 1 0 I I #
edge_name-twe-attrib $-1 $-1 $333 $249 11 8704 #
attrib_hh_vertex_geombuild-attrib_entity_geombuild-individual_entity_attribute-attrib_HH-attrib $-1 $-1 $-1 $334 F #
point $-1 120 -39 14 #
cur-twe-attrib $-1 $521 $-1 $335 183 #
attrib_hh_coedge_geombuild-attrib_entity_geombuild-individual_entity_attribute-attrib_HH-attrib $-1 $-1 $-1 $341 F #
attrib_hh_edge_geombuild-attrib_entity_geombuild-individual_entity_attribute-attrib_HH-attrib $-1 $522 $-1 $342 F #
straight-curve $523 120 -39 14 1 0 0 I I #
attrib_hh_coedge_geombuild-attrib_entity_geombuild-individual_entity_attribute-attrib_HH-attrib $-1 $-1 $-1 $346 F #
edge_name-twe-attrib $-1 $-1 $347 $270 23 8704 #
attrib_hh_vertex_geombuild-attrib_entity_geombuild-individual_entity_attribute-attrib_HH-attrib $-1 $-1 $-1 $348 F #
point $-1 80 -39 26 #
cur-twe-attrib $-1 $-1 $-1 $349 197 #
edge_name-twe-attrib $-1 $-1 $350 $273 10 8704 #
cur-twe-attrib $-1 $524 $-1 $351 183 #
attrib_hh_coedge_geombuild-attrib_entity_geombuild-individual_entity_attribute-attrib_HH-attrib $-1 $-1 $-1 $353 F #
coedge $525 $526 $527 $353 $436 reversed $528 $-1 #
edge $529 $530 -20 $442 0 $435 $531 forward 7 unknown #
attrib_hh_coedge_geombuild-attrib_entity_geombuild-individual_entity_attribute-attrib_HH-attrib $-1 $-1 $-1 $354 F #
coedge $532 $533 $354 $527 $534 forward $440 $-1 #
coedge $535 $354 $533 $357 $446 reversed $440 $-1 #
loop $536 $-1 $354 $409 #
attrib_hh_edge_geombuild-attrib_entity_geombuild-individual_entity_attribute-attrib_HH-attrib $-1 $537 $-1 $355 F #
vertex $538 $534 $539 #
straight-curve $540 120 -49 30 0 1 0 I I #
attrib_hh_coedge_geombuild-attrib_entity_geombuild-individual_entity_attribute-attrib_HH-attrib $-1 $-1 $-1 $357 F #
coedge $541 $358 $357 $389 $480 forward $359 $-1 #
edge $542 $361 -40 $543 0 $439 $544 forward 7 unknown #
attrib_hh_coedge_geombuild-attrib_entity_geombuild-individual_entity_attribute-attrib_HH-attrib $-1 $-1 $-1 $358 F #
loop_type-twe-attrib $-1 $-1 $-1 $359 0 #
edge_name-twe-attrib $-1 $-1 $360 $277 24 8704 #
attrib_hh_vertex_geombuild-attrib_entity_geombuild-individual_entity_attribute-attrib_HH-attrib $-1 $-1 $-1 $361 F #
point $-1 120 -49 30 #
cur-twe-attrib $-1 $545 $-1 $362 301 #
attrib_hh_edge_geombuild-attrib_entity_geombuild-individual_entity_attribute-attrib_HH-attrib $-1 $546 $-1 $364 F #
vertex $547 $364 $548 #
straight-curve $549 80 -49 26 -1 0 0 I I #
attrib_hh_coedge_geombuild-attrib_entity_geombuild-individual_entity_attribute-attrib_HH-attrib $-1 $-1 $-1 $373 F #
coedge $550 $457 $457 $373 $458 forward $551 $-1 #
edge $552 $553 0 $553 6.283185307179586232 $457 $554 forward 7 unknown #
attrib_hh_coedge_geombuild-attrib_entity_geombuild-individual_entity_attribute-attrib_HH-attrib $-1 $-1 $-1 $375 F #
loop $555 $556 $375 $472 #
attrib_hh_edge_geombuild-attrib_entity_geombuild-individual_entity_attribute-attrib_HH-attrib $-1 $557 $-1 $376 F #
vertex $558 $376 $559 #
ellipse-curve $560 30 -74 20 0 -1 0 -6.5 0 0 1 I I #
loop_type-twe-attrib $-1 $-1 $-1 $378 1 #
face $561 $292 $562 $5 $-1 $563 reversed single #
edge_name-twe-attrib $-1 $-1 $379 $290 44 8704 #
attrib_hh_vertex_geombuild-attrib_entity_geombuild-individual_entity_attribute-attrib_HH-attrib $-1 $-1 $-1 $380 F #
point $-1 116.5 -74 20 #
cur-twe-attrib $-1 $-1 $-1 $381 213 #
face_name-twe-attrib $-1 $-1 $382 $292 18 #
attrib_hh_face_geombuild-attrib_entity_geombuild-individual_entity_attribute-attrib_HH-attrib $-1 $564 $-1 $383 F #
face $565 $566 $460 $5 $-1 $567 reversed single #
loop $568 $-1 $569 $383 #
plane-surface $570 30 -57 20 0 1 0 0 0 1 forward_v I I I I #
loop_type-twe-attrib $-1 $-1 $-1 $384 0 #
coedge $571 $476 $476 $572 $573 forward $384 $-1 #
surf-twe-attrib $-1 $-1 $-1 $385 215 #
attrib_hh_coedge_geombuild-attrib_entity_geombuild-individual_entity_attribute-attrib_HH-attrib $-1 $-1 $-1 $389 F #
coedge $574 $486 $389 $533 $575 reversed $158 $-1 #
edge $576 $543 -4 $454 0 $445 $577 forward 7 unknown #
attrib_hh_edge_geombuild-attrib_entity_geombuild-individual_entity_attribute-attrib_HH-attrib $-1 $578 $-1 $390 F #
straight-curve $579 80 -39 26 0 1 0 I I #
edge_name-twe-attrib $-1 $-1 $391 $306 16 4608 #
cur-twe-attrib $-1 $580 $-1 $392 223 #
attrib_hh_coedge_geombuild-attrib_entity_geombuild-individual_entity_attribute-attrib_HH-attrib $-1 $-1 $-1 $394 F #
coedge $581 $394 $479 $582 $583 reversed $158 $-1 #
coedge $584 $585 $586 $394 $488 forward $587 $-1 #
edge $588 $494 -8 $589 0 $487 $590 forward 7 unknown #
attrib_hh_coedge_geombuild-attrib_entity_geombuild-individual_entity_attribute-attrib_HH-attrib $-1 $-1 $-1 $395 F #
coedge $591 $414 $395 $586 $592 reversed $492 $-1 #
coedge $593 $395 $414 $398 $497 forward $492 $-1 #
loop $594 $-1 $414 $595 #
attrib_hh_edge_geombuild-attrib_entity_geombuild-individual_entity_attribute-attrib_HH-attrib $-1 $596 $-1 $396 F #
vertex $597 $592 $598 #
straight-curve $599 80 -49 10 0 0 -1 I I #
attrib_hh_coedge_geombuild-attrib_entity_geombuild-individual_entity_attribute-attrib_HH-attrib $-1 $-1 $-1 $398 F #
edge $600 $418 -40 $401 0 $398 $601 forward 7 unknown #
loop_type-twe-attrib $-1 $-1 $-1 $399 0 #
face $602 $465 $399 $5 $-1 $603 reversed single #
edge_name-twe-attrib $-1 $-1 $400 $318 41 4608 #
attrib_hh_vertex_geombuild-attrib_entity_geombuild-individual_entity_attribute-attrib_HH-attrib $-1 $-1 $-1 $401 F #
point $-1 80 -49 14 #
cur-twe-attrib $-1 $-1 $-1 $402 229 #
cur-twe-attrib $-1 $-1 $406 $321 173 #
face_name-twe-attrib $-1 $-1 $408 $326 11 #
attrib_hh_face_geombuild-attrib_entity_geombuild-individual_entity_attribute-attrib_HH-attrib $-1 $604 $-1 $409 F #
face $605 $606 $607 $5 $-1 $608 reversed single #
plane-surface $609 80 -49 30 0 0 1 1 0 0 forward_v I I I I #
surf-twe-attrib $-1 $610 $-1 $410 430 #
attrib_hh_coedge_geombuild-attrib_entity_geombuild-individual_entity_attribute-attrib_HH-attrib $-1 $-1 $-1 $413 F #
coedge $611 $586 $585 $413 $512 reversed $587 $-1 #
edge $612 $515 -8 $530 0 $511 $613 forward 7 unknown #
attrib_hh_coedge_geombuild-attrib_entity_geombuild-individual_entity_attribute-attrib_HH-attrib $-1 $-1 $-1 $414 F #
attrib_hh_edge_geombuild-attrib_entity_geombuild-individual_entity_attribute-attrib_HH-attrib $-1 $614 $-1 $415 F #
vertex $615 $592 $616 #
straight-curve $617 120 -49 10 0 0 -1 I I #
edge_name-twe-attrib $-1 $-1 $417 $332 39 8704 #
attrib_hh_vertex_geombuild-attrib_entity_geombuild-individual_entity_attribute-attrib_HH-attrib $-1 $-1 $-1 $418 F #
point $-1 120 -49 14 #
cur-twe-attrib $-1 $-1 $-1 $419 240 #
cur-twe-attrib $-1 $-1 $423 $335 199 #
edge_name-twe-attrib $-1 $-1 $425 $342 40 8704 #
cur-twe-attrib $-1 $-1 $-1 $426 247 #
cur-twe-attrib $-1 $-1 $433 $351 199 #
attrib_hh_coedge_geombuild-attrib_entity_geombuild-individual_entity_attribute-attrib_HH-attrib $-1 $-1 $-1 $435 F #
coedge $618 $582 $435 $585 $619 forward $528 $-1 #
coedge $620 $435 $582 $438 $534 reversed $528 $-1 #
loop $621 $622 $435 $507 #
attrib_hh_edge_geombuild-attrib_entity_geombuild-individual_entity_attribute-attrib_HH-attrib $-1 $623 $-1 $436 F #
vertex $624 $619 $625 #
straight-curve $626 120 -57 30 0 0 1 I I #
attrib_hh_coedge_geombuild-attrib_entity_geombuild-individual_entity_attribute-attrib_HH-attrib $-1 $-1 $-1 $438 F #
coedge $627 $439 $438 $479 $575 forward $440 $-1 #
edge $628 $442 -40 $629 0 $527 $630 forward 7 unknown #
attrib_hh_coedge_geombuild-attrib_entity_geombuild-individual_entity_attribute-attrib_HH-attrib $-1 $-1 $-1 $439 F #
loop_type-twe-attrib $-1 $-1 $-1 $440 0 #
edge_name-twe-attrib $-1 $-1 $441 $355 27 8704 #
attrib_hh_vertex_geombuild-attrib_entity_geombuild-individual_entity_attribute-attrib_HH-attrib $-1 $-1 $-1 $442 F #
point $-1 120 -57 30 #
cur-twe-attrib $-1 $-1 $-1 $443 256 #
attrib_hh_coedge_geombuild-attrib_entity_geombuild-individual_entity_attribute-attrib_HH-attrib $-1 $-1 $-1 $445 F #
attrib_hh_edge_geombuild-attrib_entity_geombuild-individual_entity_attribute-attrib_HH-attrib $-1 $631 $-1 $446 F #
vertex $632 $446 $633 #
straight-curve $634 80 -49 30 -1 0 0 I I #
cur-twe-attrib $-1 $-1 $452 $362 202 #
edge_name-twe-attrib $-1 $-1 $453 $364 26 8704 #
attrib_hh_vertex_geombuild-attrib_entity_geombuild-individual_entity_attribute-attrib_HH-attrib $-1 $-1 $-1 $454 F #
point $-1 80 -49 26 #
cur-twe-attrib $-1 $-1 $-1 $455 263 #
attrib_hh_coedge_geombuild-attrib_entity_geombuild-individual_entity_attribute-attrib_HH-attrib $-1 $-1 $-1 $457 F #
loop $635 $636 $457 $637 #
attrib_hh_edge_geombuild-attrib_entity_geombuild-individual_entity_attribute-attrib_HH-attrib $-1 $638 $-1 $458 F #
vertex $639 $458 $640 #
ellipse-curve $641 53.5 -74 20 0 -1 0 -6.5 0 0 1 I I #
loop_type-twe-attrib $-1 $-1 $-1 $460 0 #
loop $642 $-1 $643 $472 #
edge_name-twe-attrib $-1 $-1 $461 $376 47 8704 #
attrib_hh_vertex_geombuild-attrib_entity_geombuild-individual_entity_attribute-attrib_HH-attrib $-1 $-1 $-1 $462 F #
point $-1 23.5 -74 20 #
cur-twe-attrib $-1 $-1 $-1 $463 271 #
attrib_hh_face_geombuild-attrib_entity_geombuild-individual_entity_attribute-attrib_HH-attrib $-1 $644 $-1 $465 F #
loop $645 $378 $646 $465 #
cone-surface $647 110 -57 20 0 -1 0 6.5 0 0 1 I I 0 1 6.5 forward I I I I #
face_name-twe-attrib $-1 $-1 $471 $383 19 #
attrib_hh_face_geombuild-attrib_entity_geombuild-individual_entity_attribute-attrib_HH-attrib $-1 $648 $-1 $472 F #
face $649 $637 $650 $5 $-1 $651 reversed single #
cone-surface $652 30 -74 20 0 1 0 -6.5 0 0 1 I I 0 1 6.5 forward I I I I #
loop_type-twe-attrib $-1 $-1 $-1 $473 0 #
coedge $653 $569 $569 $643 $654 forward $473 $-1 #
surf-twe-attrib $-1 $655 $-1 $474 408 #
attrib_hh_coedge_geombuild-attrib_entity_geombuild-individual_entity_attribute-attrib_HH-attrib $-1 $-1 $-1 $476 F #
coedge $656 $572 $572 $476 $573 reversed $607 $-1 #
edge $657 $658 0 $658 6.283185307179586232 $476 $659 forward 7 unknown #
attrib_hh_coedge_geombuild-attrib_entity_geombuild-individual_entity_attribute-attrib_HH-attrib $-1 $-1 $-1 $479 F #
edge $660 $629 -8 $543 0 $533 $661 forward 7 unknown #
attrib_hh_edge_geombuild-attrib_entity_geombuild-individual_entity_attribute-attrib_HH-attrib $-1 $662 $-1 $480 F #
straight-curve $663 80 -49 26 0 0 -1 I I #
edge_name-twe-attrib $-1 $-1 $481 $390 22 4608 #
cur-twe-attrib $-1 $-1 $-1 $482 282 #
cur-twe-attrib $-1 $-1 $484 $392 173 #
attrib_hh_coedge_geombuild-attrib_entity_geombuild-individual_entity_attribute-attrib_HH-attrib $-1 $-1 $-1 $486 F #
coedge $664 $527 $526 $486 $583 forward $528 $-1 #
edge $665 $589 -20 $629 0 $582 $666 forward 7 unknown #
attrib_hh_coedge_geombuild-attrib_entity_geombuild-individual_entity_attribute-attrib_HH-attrib $-1 $-1 $-1 $487 F #
coedge $667 $511 $487 $526 $619 reversed $587 $-1 #
coedge $668 $487 $511 $490 $592 forward $587 $-1 #
loop $669 $-1 $511 $606 #
attrib_hh_edge_geombuild-attrib_entity_geombuild-individual_entity_attribute-attrib_HH-attrib $-1 $670 $-1 $488 F #
vertex $671 $619 $672 #
straight-curve $673 80 -57 10 0 -1 0 I I #
attrib_hh_coedge_geombuild-attrib_entity_geombuild-individual_entity_attribute-attrib_HH-attrib $-1 $-1 $-1 $490 F #
edge $674 $515 -40 $494 0 $490 $675 forward 7 unknown #
attrib_hh_coedge_geombuild-attrib_entity_geombuild-individual_entity_attribute-attrib_HH-attrib $-1 $-1 $-1 $491 F #
loop_type-twe-attrib $-1 $-1 $-1 $492 0 #
face $676 $499 $492 $5 $-1 $677 reversed single #
edge_name-twe-attrib $-1 $-1 $493 $396 37 4608 #
attrib_hh_vertex_geombuild-attrib_entity_geombuild-individual_entity_attribute-attrib_HH-attrib $-1 $-1 $-1 $494 F #
point $-1 80 -49 10 #
cur-twe-attrib $-1 $678 $-1 $495 287 #
attrib_hh_edge_geombuild-attrib_entity_geombuild-individual_entity_attribute-attrib_HH-attrib $-1 $679 $-1 $497 F #
straight-curve $680 80 -49 14 -1 0 0 I I #
attrib_hh_face_geombuild-attrib_entity_geombuild-individual_entity_attribute-attrib_HH-attrib $-1 $681 $-1 $499 F #
plane-surface $682 80 -49 14 0 0 -1 -1 0 0 forward_v I I I I #
face_name-twe-attrib $-1 $-1 $506 $409 12 #
attrib_hh_face_geombuild-attrib_entity_geombuild-individual_entity_attribute-attrib_HH-attrib $-1 $683 $-1 $507 F #
face $684 $595 $587 $5 $-1 $685 reversed single #
loop $686 $528 $572 $507 #
plane-surface $687 80 -57 30 0 -1 0 0 0 -1 forward_v I I I I #
surf-twe-attrib $-1 $-1 $-1 $508 296 #
surf-twe-attrib $-1 $-1 $509 $410 235 #
attrib_hh_coedge_geombuild-attrib_entity_geombuild-individual_entity_attribute-attrib_HH-attrib $-1 $-1 $-1 $511 F #
attrib_hh_edge_geombuild-attrib_entity_geombuild-individual_entity_attribute-attrib_HH-attrib $-1 $688 $-1 $512 F #
straight-curve $689 120 -57 10 0 -1 0 I I #
edge_name-twe-attrib $-1 $-1 $514 $415 36 8704 #
attrib_hh_vertex_geombuild-attrib_entity_geombuild-individual_entity_attribute-attrib_HH-attrib $-1 $-1 $-1 $515 F #
point $-1 120 -49 10 #
cur-twe-attrib $-1 $690 $-1 $516 301 #
attrib_hh_coedge_geombuild-attrib_entity_geombuild-individual_entity_attribute-attrib_HH-attrib $-1 $-1 $-1 $526 F #
edge $691 $530 -40 $589 0 $585 $692 forward 7 unknown #
attrib_hh_coedge_geombuild-attrib_entity_geombuild-individual_entity_attribute-attrib_HH-attrib $-1 $-1 $-1 $527 F #
loop_type-twe-attrib $-1 $-1 $-1 $528 0 #
loop $693 $-1 $694 $507 #
edge_name-twe-attrib $-1 $-1 $529 $436 30 8704 #
attrib_hh_vertex_geombuild-attrib_entity_geombuild-individual_entity_attribute-attrib_HH-attrib $-1 $-1 $-1 $530 F #
point $-1 120 -57 10 #
cur-twe-attrib $-1 $-1 $-1 $531 313 #
attrib_hh_coedge_geombuild-attrib_entity_geombuild-individual_entity_attribute-attrib_HH-attrib $-1 $-1 $-1 $533 F #
attrib_hh_edge_geombuild-attrib_entity_geombuild-individual_entity_attribute-attrib_HH-attrib $-1 $695 $-1 $534 F #
vertex $696 $534 $697 #
straight-curve $698 80 -57 30 -1 0 0 I I #
edge_name-twe-attrib $-1 $-1 $542 $446 29 4608 #
attrib_hh_vertex_geombuild-attrib_entity_geombuild-individual_entity_attribute-attrib_HH-attrib $-1 $-1 $-1 $543 F #
point $-1 80 -49 30 #
cur-twe-attrib $-1 $-1 $-1 $544 321 #
loop_type-twe-attrib $-1 $-1 $-1 $551 0 #
loop $699 $-1 $700 $637 #
face $701 $-1 $551 $5 $-1 $702 reversed single #
edge_name-twe-attrib $-1 $-1 $552 $458 49 8704 #
attrib_hh_vertex_geombuild-attrib_entity_geombuild-individual_entity_attribute-attrib_HH-attrib $-1 $-1 $-1 $553 F #
point $-1 47 -74 20 #
cur-twe-attrib $-1 $-1 $-1 $554 329 #
loop_type-twe-attrib $-1 $-1 $-1 $556 1 #
coedge $703 $643 $643 $569 $654 reversed $556 $-1 #
face_name-twe-attrib $-1 $-1 $561 $465 17 #
loop_type-twe-attrib $-1 $-1 $-1 $562 0 #
coedge $704 $646 $646 $694 $705 forward $562 $-1 #
surf-twe-attrib $-1 $-1 $-1 $563 335 #
face_name-twe-attrib $-1 $-1 $565 $472 20 #
attrib_hh_face_geombuild-attrib_entity_geombuild-individual_entity_attribute-attrib_HH-attrib $-1 $706 $-1 $566 F #
loop $707 $-1 $708 $566 #
plane-surface $709 53.5 -57 20 0 1 0 0 0 1 forward_v I I I I #
surf-twe-attrib $-1 $-1 $-1 $567 339 #
attrib_hh_coedge_geombuild-attrib_entity_geombuild-individual_entity_attribute-attrib_HH-attrib $-1 $-1 $-1 $569 F #
edge $710 $711 -3.141592653589793116 $711 3.141592653589793116 $643 $712 forward 7 unknown #
surf-twe-attrib $-1 $713 $570 $474 277 #
attrib_hh_coedge_geombuild-attrib_entity_geombuild-individual_entity_attribute-attrib_HH-attrib $-1 $-1 $-1 $572 F #
attrib_hh_edge_geombuild-attrib_entity_geombuild-individual_entity_attribute-attrib_HH-attrib $-1 $714 $-1 $573 F #
vertex $715 $573 $716 #
ellipse-curve $717 86.5 -57 20 0 1 0 6.5 0 0 1 I I #
attrib_hh_edge_geombuild-attrib_entity_geombuild-individual_entity_attribute-attrib_HH-attrib $-1 $718 $-1 $575 F #
straight-curve $719 80 -49 30 0 1 0 I I #
edge_name-twe-attrib $-1 $-1 $576 $480 25 4608 #
cur-twe-attrib $-1 $720 $-1 $577 287 #
attrib_hh_coedge_geombuild-attrib_entity_geombuild-individual_entity_attribute-attrib_HH-attrib $-1 $-1 $-1 $582 F #
attrib_hh_edge_geombuild-attrib_entity_geombuild-individual_entity_attribute-attrib_HH-attrib $-1 $721 $-1 $583 F #
straight-curve $722 80 -57 30 0 0 1 I I #
attrib_hh_coedge_geombuild-attrib_entity_geombuild-individual_entity_attribute-attrib_HH-attrib $-1 $-1 $-1 $585 F #
attrib_hh_coedge_geombuild-attrib_entity_geombuild-individual_entity_attribute-attrib_HH-attrib $-1 $-1 $-1 $586 F #
loop_type-twe-attrib $-1 $-1 $-1 $587 0 #
edge_name-twe-attrib $-1 $-1 $588 $488 34 4608 #
attrib_hh_vertex_geombuild-attrib_entity_geombuild-individual_entity_attribute-attrib_HH-attrib $-1 $-1 $-1 $589 F #
point $-1 80 -57 10 #
cur-twe-attrib $-1 $-1 $-1 $590 352 #
attrib_hh_edge_geombuild-attrib_entity_geombuild-individual_entity_attribute-attrib_HH-attrib $-1 $723 $-1 $592 F #
straight-curve $724 80 -49 10 -1 0 0 I I #
attrib_hh_face_geombuild-attrib_entity_geombuild-individual_entity_attribute-attrib_HH-attrib $-1 $725 $-1 $595 F #
plane-surface $726 80 -49 10 0 1 0 0 0 1 forward_v I I I I #
cur-twe-attrib $-1 $-1 $599 $495 346 #
edge_name-twe-attrib $-1 $-1 $600 $497 42 8704 #
cur-twe-attrib $-1 $-1 $-1 $601 359 #
face_name-twe-attrib $-1 $-1 $602 $499 16 #
surf-twe-attrib $-1 $-1 $-1 $603 361 #
face_name-twe-attrib $-1 $-1 $605 $507 13 #
attrib_hh_face_geombuild-attrib_entity_geombuild-individual_entity_attribute-attrib_HH-attrib $-1 $727 $-1 $606 F #
plane-surface $728 80 -57 10 0 0 -1 -1 0 0 forward_v I I I I #
loop_type-twe-attrib $-1 $-1 $-1 $607 1 #
surf-twe-attrib $-1 $729 $-1 $608 408 #
edge_name-twe-attrib $-1 $-1 $612 $512 33 8704 #
cur-twe-attrib $-1 $-1 $-1 $613 370 #
cur-twe-attrib $-1 $-1 $617 $516 202 #
attrib_hh_edge_geombuild-attrib_entity_geombuild-individual_entity_attribute-attrib_HH-attrib $-1 $730 $-1 $619 F #
straight-curve $731 80 -57 10 -1 0 0 I I #
loop_type-twe-attrib $-1 $-1 $-1 $622 1 #
coedge $732 $694 $694 $646 $705 reversed $622 $-1 #
edge_name-twe-attrib $-1 $-1 $628 $534 32 4608 #
attrib_hh_vertex_geombuild-attrib_entity_geombuild-individual_entity_attribute-attrib_HH-attrib $-1 $-1 $-1 $629 F #
point $-1 80 -57 30 #
cur-twe-attrib $-1 $-1 $-1 $630 386 #
loop_type-twe-attrib $-1 $-1 $-1 $636 1 #
coedge $733 $700 $700 $708 $734 reversed $636 $-1 #
attrib_hh_face_geombuild-attrib_entity_geombuild-individual_entity_attribute-attrib_HH-attrib $-1 $735 $-1 $637 F #
cone-surface $736 53.5 -74 20 0 1 0 -6.5 0 0 1 I I 0 1 6.5 forward I I I I #
attrib_hh_coedge_geombuild-attrib_entity_geombuild-individual_entity_attribute-attrib_HH-attrib $-1 $-1 $-1 $643 F #
attrib_hh_coedge_geombuild-attrib_entity_geombuild-individual_entity_attribute-attrib_HH-attrib $-1 $-1 $-1 $646 F #
edge $737 $738 0 $738 6.283185307179586232 $646 $739 forward 7 unknown #
face_name-twe-attrib $-1 $-1 $649 $566 21 #
loop_type-twe-attrib $-1 $-1 $-1 $650 0 #
coedge $740 $708 $708 $700 $734 forward $650 $-1 #
surf-twe-attrib $-1 $741 $-1 $651 408 #
attrib_hh_edge_geombuild-attrib_entity_geombuild-individual_entity_attribute-attrib_HH-attrib $-1 $742 $-1 $654 F #
vertex $743 $654 $744 #
ellipse-curve $745 30 -57 20 0 -1 0 6.5 0 0 1 I I #
surf-twe-attrib $-1 $-1 $655 $474 366 #
edge_name-twe-attrib $-1 $-1 $657 $573 45 8704 #
attrib_hh_vertex_geombuild-attrib_entity_geombuild-individual_entity_attribute-attrib_HH-attrib $-1 $-1 $-1 $658 F #
point $-1 93 -57 20 #
cur-twe-attrib $-1 $-1 $-1 $659 414 #
edge_name-twe-attrib $-1 $-1 $660 $575 28 4608 #
cur-twe-attrib $-1 $-1 $-1 $661 415 #
cur-twe-attrib $-1 $-1 $663 $577 346 #
edge_name-twe-attrib $-1 $-1 $665 $583 31 4608 #
cur-twe-attrib $-1 $-1 $-1 $666 421 #
edge_name-twe-attrib $-1 $-1 $674 $592 38 4608 #
cur-twe-attrib $-1 $-1 $-1 $675 428 #
face_name-twe-attrib $-1 $-1 $676 $595 15 #
surf-twe-attrib $-1 $746 $-1 $677 430 #
face_name-twe-attrib $-1 $-1 $684 $606 14 #
surf-twe-attrib $-1 $-1 $-1 $685 438 #
surf-twe-attrib $-1 $747 $687 $608 277 #
edge_name-twe-attrib $-1 $-1 $691 $619 35 4608 #
cur-twe-attrib $-1 $-1 $-1 $692 447 #
attrib_hh_coedge_geombuild-attrib_entity_geombuild-individual_entity_attribute-attrib_HH-attrib $-1 $-1 $-1 $694 F #
attrib_hh_coedge_geombuild-attrib_entity_geombuild-individual_entity_attribute-attrib_HH-attrib $-1 $-1 $-1 $700 F #
edge $748 $749 -3.141592653589793116 $749 3.141592653589793116 $700 $750 forward 7 unknown #
face_name-twe-attrib $-1 $-1 $701 $637 22 #
surf-twe-attrib $-1 $-1 $-1 $702 459 #
attrib_hh_edge_geombuild-attrib_entity_geombuild-individual_entity_attribute-attrib_HH-attrib $-1 $751 $-1 $705 F #
vertex $752 $705 $753 #
ellipse-curve $754 110 -57 20 0 1 0 6.5 0 0 1 I I #
attrib_hh_coedge_geombuild-attrib_entity_geombuild-individual_entity_attribute-attrib_HH-attrib $-1 $-1 $-1 $708 F #
surf-twe-attrib $-1 $755 $709 $651 277 #
edge_name-twe-attrib $-1 $-1 $710 $654 48 4608 #
attrib_hh_vertex_geombuild-attrib_entity_geombuild-individual_entity_attribute-attrib_HH-attrib $-1 $-1 $-1 $711 F #
point $-1 23.5 -57 20 #
cur-twe-attrib $-1 $-1 $-1 $712 471 #
surf-twe-attrib $-1 $-1 $726 $677 235 #
surf-twe-attrib $-1 $-1 $729 $608 366 #
attrib_hh_edge_geombuild-attrib_entity_geombuild-individual_entity_attribute-attrib_HH-attrib $-1 $756 $-1 $734 F #
vertex $757 $734 $758 #
ellipse-curve $759 53.5 -57 20 0 -1 0 6.5 0 0 1 I I #
edge_name-twe-attrib $-1 $-1 $737 $705 43 8704 #
attrib_hh_vertex_geombuild-attrib_entity_geombuild-individual_entity_attribute-attrib_HH-attrib $-1 $-1 $-1 $738 F #
point $-1 116.5 -57 20 #
cur-twe-attrib $-1 $-1 $-1 $739 507 #
surf-twe-attrib $-1 $-1 $741 $651 366 #
edge_name-twe-attrib $-1 $-1 $748 $734 50 4608 #
attrib_hh_vertex_geombuild-attrib_entity_geombuild-individual_entity_attribute-attrib_HH-attrib $-1 $-1 $-1 $749 F #
point $-1 47 -57 20 #
cur-twe-attrib $-1 $-1 $-1 $750 525 #
End-of-ACIS-data 