600 0 2 0           
24 FBMach with ACIS - 6.0.3 13 ACIS 6.0.3 NT 24 Wed May 23 21:06:03 2001 
1 9.9999999999999995e-007 1e-010 
body $2 $3 $-1 $4 #
bdycol-kcp $-1 1 8 $5 $6 $7 $8 $9 $10 $11 $12 #
model_id-kcp-attrib $-1 $-1 $-1 $0 1 990666362 90 1566179329 1 #
lump $-1 $-1 $13 $0 #
transform $-1 1 0 0 0 1 0 0 0 1 0 0 0 1 no_rotate no_reflect no_shear #
body $14 $15 $-1 $16 #
body $17 $18 $-1 $19 #
body $20 $21 $-1 $22 #
body $23 $24 $-1 $25 #
body $26 $27 $-1 $28 #
body $29 $30 $-1 $31 #
body $32 $33 $-1 $34 #
body $35 $36 $-1 $37 #
shell $-1 $-1 $-1 $38 $-1 $3 #
model_id-kcp-attrib $-1 $-1 $-1 $5 1 990666362 90 1566179330 1 #
lump $-1 $-1 $39 $5 #
transform $-1 1 0 0 0 1 0 0 0 1 60 -37 20 1 no_rotate no_reflect no_shear #
rgb_color-st-attrib $-1 $40 $-1 $6 0.5 1 1 #
lump $-1 $-1 $41 $6 #
transform $-1 1 0 0 0 -3.8285889215894375e-016 1 0 -1 -3.8285889215894375e-016 110 -65.5 19.999999999999996 1 rotate no_reflect no_shear #
rgb_color-st-attrib $-1 $42 $-1 $7 0.5 1 1 #
lump $-1 $-1 $43 $7 #
transform $-1 1 0 0 0 -3.8285889215894375e-016 1 0 -1 -3.8285889215894375e-016 86.5 -65.5 19.999999999999996 1 rotate no_reflect no_shear #
rgb_color-st-attrib $-1 $44 $-1 $8 0.5 1 1 #
lump $-1 $-1 $45 $8 #
transform $-1 1 0 0 0 -3.8285889215894375e-016 -1 0 1 -3.8285889215894375e-016 30 -65.5 19.999999999999996 1 rotate no_reflect no_shear #
rgb_color-st-attrib $-1 $46 $-1 $9 0.5 1 1 #
lump $-1 $-1 $47 $9 #
transform $-1 1 0 0 0 -3.8285889215894375e-016 -1 0 1 -3.8285889215894375e-016 53.5 -65.5 19.999999999999996 1 rotate no_reflect no_shear #
rgb_color-st-attrib $-1 $48 $-1 $10 0 0 1 #
lump $-1 $-1 $49 $10 #
transform $-1 1 0 0 0 1 0 0 0 1 60 -37 20 1 no_rotate no_reflect no_shear #
rgb_color-st-attrib $-1 $50 $-1 $11 0 0 1 #
lump $-1 $-1 $51 $11 #
transform $-1 1 0 0 0 1 0 0 0 1 60 -37 20 1 no_rotate no_reflect no_shear #
rgb_color-st-attrib $-1 $52 $-1 $12 1 0.5 1 #
lump $-1 $-1 $53 $12 #
transform $-1 1 0 0 0 1 0 0 0 1 60 -37 20 1 no_rotate no_reflect no_shear #
face $54 $55 $56 $13 $-1 $57 reversed single #
shell $-1 $-1 $-1 $58 $-1 $15 #
model_id-kcp-attrib $-1 $-1 $17 $6 1 990666362 200 1573388291 1 #
shell $-1 $-1 $-1 $59 $-1 $18 #
model_id-kcp-attrib $-1 $-1 $20 $7 1 990666362 200 1573388292 1 #
shell $-1 $-1 $-1 $60 $-1 $21 #
model_id-kcp-attrib $-1 $-1 $23 $8 1 990666362 210 1574043653 1 #
shell $-1 $-1 $-1 $61 $-1 $24 #
model_id-kcp-attrib $-1 $-1 $26 $9 1 990666362 210 1574043654 1 #
shell $-1 $-1 $-1 $62 $-1 $27 #
model_id-kcp-attrib $-1 $-1 $29 $10 1 990666362 460 1573650439 1 #
shell $-1 $-1 $-1 $63 $-1 $30 #
model_id-kcp-attrib $-1 $-1 $32 $11 1 990666362 540 1562116104 1 #
shell $-1 $-1 $-1 $64 $-1 $33 #
model_id-kcp-attrib $-1 $-1 $35 $12 1 990666362 701 1572667401 1 #
shell $-1 $-1 $-1 $65 $-1 $36 #
model_id-kcp-attrib $-1 $66 $-1 $38 1 990666362 90 1566179329 2 #
face $67 $68 $69 $13 $-1 $70 forward single #
loop $71 $-1 $72 $38 #
plane-surface $73 0 0 0 0 0 1 1 0 0 forward_v I I I I #
face $74 $75 $76 $39 $-1 $77 forward single #
face $-1 $78 $79 $41 $-1 $80 forward single #
face $-1 $81 $82 $43 $-1 $83 forward single #
face $-1 $84 $85 $45 $-1 $86 forward single #
face $-1 $87 $88 $47 $-1 $89 forward single #
face $-1 $90 $91 $49 $-1 $92 forward single #
face $-1 $93 $94 $51 $-1 $95 forward single #
face $-1 $96 $97 $53 $-1 $98 forward single #
face_name-twe-attrib $-1 $-1 $54 $38 1 #
model_id-kcp-attrib $-1 $99 $-1 $55 1 990666362 90 1566179329 3 #
face $100 $101 $102 $13 $-1 $103 forward single #
loop $104 $-1 $105 $55 #
plane-surface $106 0 0 40 0 0 1 1 0 0 forward_v I I I I #
loop_type-twe-attrib $-1 $-1 $-1 $56 0 #
coedge $-1 $107 $108 $109 $110 forward $56 $-1 #
surf-twe-attrib $-1 $-1 $-1 $57 4 #
model_id-kcp-attrib $-1 $-1 $-1 $58 1 990666362 90 1566179330 3 #
face $111 $112 $113 $39 $-1 $114 reversed single #
loop $-1 $-1 $115 $58 #
plane-surface $-1 0 0 20 0 0 1 1 0 0 forward_v I I I I #
face $-1 $116 $117 $41 $-1 $118 forward single #
loop $-1 $119 $120 $59 #
cone-surface $-1 0 0 0 0 0 1 6.5 0 0 1 I I 0 1 6.5 forward I I I I #
face $-1 $121 $122 $43 $-1 $123 forward single #
loop $-1 $124 $125 $60 #
cone-surface $-1 0 0 0 0 0 1 6.5 0 0 1 I I 0 1 6.5 forward I I I I #
face $-1 $126 $127 $45 $-1 $128 forward single #
loop $-1 $129 $130 $61 #
cone-surface $-1 0 0 0 0 0 1 6.5 0 0 1 I I 0 1 6.5 forward I I I I #
face $-1 $131 $132 $47 $-1 $133 forward single #
loop $-1 $134 $135 $62 #
cone-surface $-1 0 0 0 0 0 1 6.5 0 0 1 I I 0 1 6.5 forward I I I I #
face $-1 $136 $137 $49 $-1 $138 reversed single #
loop $-1 $139 $140 $63 #
cone-surface $-1 -6.5 -20 0 0 -1 0 -6.5 0 0 1 I I 0 1 6.5 forward I I I I #
face $-1 $141 $142 $51 $-1 $143 reversed single #
loop $-1 $144 $145 $64 #
cone-surface $-1 -30 -20 0 0 -1 0 -6.5 0 0 1 I I 0 1 6.5 forward I I I I #
face $-1 $146 $147 $53 $-1 $148 forward single #
loop $-1 $-1 $149 $65 #
plane-surface $-1 20 -2 -20 0 0 -1 -1 0 0 forward_v I I I I #
face_name-twe-attrib $-1 $-1 $67 $55 2 #
model_id-kcp-attrib $-1 $150 $-1 $68 1 990666362 90 1566179329 4 #
face $151 $152 $153 $13 $-1 $154 forward single #
loop $155 $-1 $109 $68 #
plane-surface $156 0 0 0 -1 0 0 0 0 1 forward_v I I I I #
loop_type-twe-attrib $-1 $-1 $-1 $69 0 #
coedge $-1 $157 $158 $159 $160 reversed $69 $-1 #
surf-twe-attrib $-1 $-1 $-1 $70 6 #
coedge $-1 $161 $72 $162 $163 forward $56 $-1 #
coedge $-1 $72 $164 $165 $166 forward $56 $-1 #
coedge $-1 $167 $168 $72 $110 reversed $102 $-1 #
edge $169 $170 -74 $171 0 $109 $172 forward 7 unknown #
model_id-kcp-attrib $-1 $-1 $-1 $75 1 990666362 90 1566179330 2 #
face $173 $174 $175 $39 $-1 $176 reversed single #
loop $-1 $-1 $177 $75 #
plane-surface $-1 0 0 -20 0 0 1 1 0 0 forward_v I I I I #
coedge $-1 $178 $179 $180 $181 forward $76 $-1 #
face $-1 $-1 $182 $41 $-1 $183 forward single #
loop $-1 $-1 $184 $78 #
plane-surface $-1 0 0 -8.4999999999999964 0 0 -1 -1 0 0 forward_v I I I I #
loop $-1 $-1 $185 $59 #
coedge $-1 $120 $120 $184 $186 reversed $79 $-1 #
face $-1 $-1 $187 $43 $-1 $188 forward single #
loop $-1 $-1 $189 $81 #
plane-surface $-1 0 0 -8.4999999999999964 0 0 -1 -1 0 0 forward_v I I I I #
loop $-1 $-1 $190 $60 #
coedge $-1 $125 $125 $189 $191 reversed $82 $-1 #
face $-1 $-1 $192 $45 $-1 $193 forward single #
loop $-1 $-1 $194 $84 #
plane-surface $-1 0 0 -8.5000000000000036 0 0 -1 -1 0 0 forward_v I I I I #
loop $-1 $-1 $195 $61 #
coedge $-1 $130 $130 $194 $196 reversed $85 $-1 #
face $-1 $-1 $197 $47 $-1 $198 forward single #
loop $-1 $-1 $199 $87 #
plane-surface $-1 0 0 -8.5000000000000036 0 0 -1 -1 0 0 forward_v I I I I #
loop $-1 $-1 $200 $62 #
coedge $-1 $135 $135 $199 $201 reversed $88 $-1 #
face $-1 $-1 $202 $49 $-1 $203 forward single #
loop $-1 $-1 $204 $90 #
plane-surface $-1 -7.0909090909090908 -37 -3.0621319085175828e-016 0 1 0 0 0 1 forward_v I I I I #
loop $-1 $-1 $205 $63 #
coedge $-1 $140 $140 $204 $206 forward $91 $-1 #
face $-1 $-1 $207 $51 $-1 $208 forward single #
loop $-1 $-1 $209 $93 #
plane-surface $-1 -30.59090909090909 -37 -3.0621319085175828e-016 0 1 0 0 0 1 forward_v I I I I #
loop $-1 $-1 $210 $64 #
coedge $-1 $145 $145 $209 $211 forward $94 $-1 #
face $-1 $212 $213 $53 $-1 $214 forward single #
loop $-1 $-1 $215 $96 #
plane-surface $-1 60 -2 -20 1 0 0 0 0 -1 forward_v I I I I #
coedge $-1 $216 $217 $218 $219 forward $97 $-1 #
face_name-twe-attrib $-1 $-1 $100 $68 3 #
model_id-kcp-attrib $-1 $220 $-1 $101 1 990666362 90 1566179329 24 #
face $221 $222 $223 $13 $-1 $224 forward single #
loop $225 $226 $227 $101 #
plane-surface $228 0 -74 0 0 -1 0 0 0 -1 forward_v I I I I #
loop_type-twe-attrib $-1 $-1 $-1 $102 0 #
surf-twe-attrib $-1 $-1 $-1 $103 10 #
coedge $-1 $229 $105 $230 $231 reversed $69 $-1 #
coedge $-1 $105 $232 $233 $234 reversed $69 $-1 #
coedge $-1 $168 $167 $105 $160 forward $102 $-1 #
edge $235 $236 -74 $237 0 $159 $238 forward 7 unknown #
coedge $-1 $239 $107 $240 $241 forward $56 $-1 #
coedge $-1 $242 $243 $107 $163 reversed $244 $-1 #
edge $245 $171 -80 $246 0 $162 $247 forward 7 unknown #
coedge $-1 $108 $239 $248 $249 forward $56 $-1 #
coedge $-1 $250 $251 $108 $166 reversed $226 $-1 #
edge $252 $253 -120 $170 0 $165 $254 forward 7 unknown #
coedge $-1 $159 $109 $251 $255 reversed $102 $-1 #
coedge $-1 $109 $159 $242 $256 forward $102 $-1 #
attrib_edge_convexity-kcp-attrib $-1 $257 $-1 $110 1 #
vertex $-1 $255 $258 #
vertex $-1 $256 $259 #
straight-curve $260 0 0 0 0 1 0 I I #
model_id-kcp-attrib $-1 $-1 $-1 $112 1 990666362 90 1566179330 5 #
face $261 $262 $263 $39 $-1 $264 reversed single #
loop $-1 $-1 $265 $112 #
plane-surface $-1 0 -37 0 0 1 0 0 0 1 forward_v I I I I #
coedge $-1 $266 $267 $268 $269 forward $113 $-1 #
coedge $-1 $270 $115 $271 $272 forward $76 $-1 #
coedge $-1 $115 $270 $273 $274 forward $76 $-1 #
coedge $-1 $275 $276 $115 $181 reversed $277 $-1 #
edge $-1 $278 -37 $279 37 $180 $280 forward 7 unknown #
loop $-1 $-1 $281 $116 #
plane-surface $-1 0 0 8.4999999999999964 0 0 1 1 0 0 forward_v I I I I #
coedge $-1 $184 $184 $120 $186 forward $117 $-1 #
coedge $-1 $185 $185 $281 $282 reversed $119 $-1 #
edge $-1 $283 0 $283 6.2831853071795862 $184 $284 forward 7 unknown #
loop $-1 $-1 $285 $121 #
plane-surface $-1 0 0 8.4999999999999964 0 0 1 1 0 0 forward_v I I I I #
coedge $-1 $189 $189 $125 $191 forward $122 $-1 #
coedge $-1 $190 $190 $285 $286 reversed $124 $-1 #
edge $-1 $287 0 $287 6.2831853071795862 $189 $288 forward 7 unknown #
loop $-1 $-1 $289 $126 #
plane-surface $-1 0 0 8.5000000000000036 0 0 1 1 0 0 forward_v I I I I #
coedge $-1 $194 $194 $130 $196 forward $127 $-1 #
coedge $-1 $195 $195 $289 $290 reversed $129 $-1 #
edge $-1 $291 0 $291 6.2831853071795862 $194 $292 forward 7 unknown #
loop $-1 $-1 $293 $131 #
plane-surface $-1 0 0 8.5000000000000036 0 0 1 1 0 0 forward_v I I I I #
coedge $-1 $199 $199 $135 $201 forward $132 $-1 #
coedge $-1 $200 $200 $293 $294 reversed $134 $-1 #
edge $-1 $295 0 $295 6.2831853071795862 $199 $296 forward 7 unknown #
loop $-1 $-1 $297 $136 #
plane-surface $-1 -7.0909090909090908 -20 -3.0621319085175828e-016 0 1 0 0 0 1 forward_v I I I I #
coedge $-1 $204 $204 $140 $206 reversed $137 $-1 #
coedge $-1 $205 $205 $297 $298 reversed $139 $-1 #
edge $-1 $299 0 $299 6.2831853071795862 $140 $300 forward 7 unknown #
loop $-1 $-1 $301 $141 #
plane-surface $-1 -30.59090909090909 -20 -3.0621319085175828e-016 0 1 0 0 0 1 forward_v I I I I #
coedge $-1 $209 $209 $145 $211 reversed $142 $-1 #
coedge $-1 $210 $210 $301 $302 reversed $144 $-1 #
edge $-1 $303 0 $303 6.2831853071795862 $145 $304 forward 7 unknown #
face $-1 $305 $306 $53 $-1 $307 forward single #
loop $-1 $-1 $308 $146 #
plane-surface $-1 60 -2 20 0 0 1 1 0 0 forward_v I I I I #
coedge $-1 $309 $310 $311 $312 forward $147 $-1 #
coedge $-1 $313 $149 $310 $314 reversed $97 $-1 #
coedge $-1 $149 $313 $315 $316 forward $97 $-1 #
coedge $-1 $317 $311 $149 $219 reversed $318 $-1 #
edge $-1 $319 0 $320 40 $149 $321 forward 7 unknown #
model_id-kcp-attrib $-1 $322 $151 $101 1 990666362 90 1566179329 5 #
model_id-kcp-attrib $-1 $323 $-1 $152 1 990666362 90 1566179329 6 #
face $324 $325 $326 $13 $-1 $327 forward single #
loop $328 $-1 $329 $152 #
plane-surface $330 120 -74 0 1 0 0 0 0 -1 forward_v I I I I #
model_id-kcp-attrib $-1 $331 $-1 $153 1 990666362 90 1566179329 32 #
loop $332 $333 $165 $101 #
coedge $-1 $227 $227 $334 $335 forward $153 $-1 #
surf-twe-attrib $-1 $-1 $-1 $154 17 #
coedge $-1 $336 $157 $337 $338 reversed $69 $-1 #
coedge $-1 $251 $250 $157 $231 forward $226 $-1 #
edge $339 $340 -120 $236 0 $230 $341 forward 7 unknown #
coedge $-1 $158 $336 $342 $343 reversed $69 $-1 #
coedge $-1 $243 $242 $158 $234 forward $244 $-1 #
edge $344 $237 -80 $345 0 $233 $346 forward 7 unknown #
attrib_edge_convexity-kcp-attrib $-1 $347 $-1 $160 1 #
vertex $-1 $255 $348 #
vertex $-1 $256 $349 #
straight-curve $350 0 0 40 0 1 0 I I #
coedge $-1 $164 $161 $351 $352 forward $56 $-1 #
coedge $-1 $353 $354 $161 $241 reversed $355 $-1 #
edge $356 $246 -39 $357 0 $240 $358 forward 7 unknown #
coedge $-1 $233 $162 $168 $256 reversed $244 $-1 #
coedge $-1 $162 $233 $353 $359 forward $244 $-1 #
loop $360 $-1 $162 $361 #
attrib_edge_convexity-kcp-attrib $-1 $362 $-1 $163 1 #
vertex $-1 $359 $363 #
straight-curve $364 80 0 0 1 0 0 I I #
coedge $-1 $365 $366 $164 $249 reversed $223 $-1 #
edge $367 $368 -35 $253 0 $248 $369 forward 7 unknown #
coedge $-1 $230 $165 $366 $370 reversed $226 $-1 #
coedge $-1 $165 $230 $167 $255 forward $226 $-1 #
attrib_edge_convexity-kcp-attrib $-1 $371 $-1 $166 1 #
vertex $-1 $370 $372 #
straight-curve $373 0 -74 0 -1 0 0 I I #
edge $374 $236 -40 $170 0 $251 $375 forward 7 unknown #
edge $376 $237 -40 $171 0 $242 $377 forward 7 unknown #
convexity-sys-attrib $-1 $378 $169 $110 #
point $-1 0 -74 0 #
point $-1 0 0 0 #
cur-twe-attrib $-1 $-1 $-1 $172 26 #
model_id-kcp-attrib $-1 $-1 $-1 $174 1 990666362 90 1566179330 4 #
face $379 $380 $381 $39 $-1 $382 reversed single #
loop $-1 $-1 $383 $174 #
plane-surface $-1 -60 0 0 1 0 0 0 0 -1 forward_v I I I I #
coedge $-1 $384 $273 $385 $386 forward $175 $-1 #
coedge $-1 $387 $177 $384 $388 forward $113 $-1 #
coedge $-1 $177 $387 $389 $390 forward $113 $-1 #
coedge $-1 $276 $275 $177 $269 reversed $277 $-1 #
edge $-1 $391 -37 $392 37 $268 $393 forward 7 unknown #
coedge $-1 $179 $178 $394 $395 forward $76 $-1 #
coedge $-1 $396 $397 $178 $272 reversed $381 $-1 #
edge $-1 $279 -60 $398 60 $271 $399 forward 7 unknown #
coedge $-1 $265 $400 $179 $274 reversed $175 $-1 #
edge $-1 $401 -60 $278 60 $273 $402 forward 7 unknown #
coedge $-1 $268 $180 $400 $403 forward $277 $-1 #
coedge $-1 $180 $268 $396 $404 reversed $277 $-1 #
loop $-1 $-1 $275 $380 #
vertex $-1 $181 $405 #
vertex $-1 $181 $406 #
straight-curve $-1 60 0 20 0 1 0 I I #
coedge $-1 $281 $281 $185 $282 forward $182 $-1 #
edge $-1 $407 0 $407 6.2831853071795862 $281 $408 forward 7 unknown #
vertex $-1 $186 $409 #
ellipse-curve $-1 0 0 -8.4999999999999964 0 0 -1 6.5 0 0 1 I I #
coedge $-1 $285 $285 $190 $286 forward $187 $-1 #
edge $-1 $410 0 $410 6.2831853071795862 $285 $411 forward 7 unknown #
vertex $-1 $191 $412 #
ellipse-curve $-1 0 0 -8.4999999999999964 0 0 -1 6.5 0 0 1 I I #
coedge $-1 $289 $289 $195 $290 forward $192 $-1 #
edge $-1 $413 0 $413 6.2831853071795862 $289 $414 forward 7 unknown #
vertex $-1 $196 $415 #
ellipse-curve $-1 0 0 -8.5000000000000036 0 0 -1 6.5 0 0 1 I I #
coedge $-1 $293 $293 $200 $294 forward $197 $-1 #
edge $-1 $416 0 $416 6.2831853071795862 $293 $417 forward 7 unknown #
vertex $-1 $201 $418 #
ellipse-curve $-1 0 0 -8.5000000000000036 0 0 -1 6.5 0 0 1 I I #
coedge $-1 $297 $297 $205 $298 forward $202 $-1 #
edge $419 $420 0 $420 6.2831853071795862 $205 $421 forward 7 unknown #
vertex $-1 $206 $422 #
ellipse-curve $-1 -6.5 -37 0 0 1 0 -6.5 0 0 1 I I #
coedge $-1 $301 $301 $210 $302 forward $207 $-1 #
edge $423 $424 0 $424 6.2831853071795862 $210 $425 forward 7 unknown #
vertex $-1 $211 $426 #
ellipse-curve $-1 -30 -37 0 0 1 0 -6.5 0 0 1 I I #
face $-1 $427 $318 $53 $-1 $428 forward single #
loop $-1 $-1 $429 $212 #
plane-surface $-1 20 -2 20 -1 0 0 0 0 1 forward_v I I I I #
coedge $-1 $430 $431 $432 $433 forward $213 $-1 #
coedge $-1 $434 $215 $431 $435 reversed $147 $-1 #
coedge $-1 $215 $434 $216 $314 forward $147 $-1 #
coedge $-1 $218 $432 $215 $312 reversed $318 $-1 #
edge $-1 $320 -13.5 $436 26.5 $215 $437 forward 7 unknown #
coedge $-1 $217 $216 $438 $439 reversed $97 $-1 #
edge $-1 $440 0 $320 39 $310 $441 forward 7 unknown #
coedge $-1 $442 $429 $217 $316 reversed $306 $-1 #
edge $-1 $443 0 $319 39 $217 $444 forward 7 unknown #
coedge $-1 $432 $218 $429 $445 reversed $318 $-1 #
loop $-1 $-1 $218 $305 #
vertex $-1 $316 $446 #
vertex $-1 $314 $447 #
straight-curve $-1 20 37 -20 1 0 0 I I #
face_name-twe-attrib $-1 $-1 $220 $101 4 #
face_name-twe-attrib $-1 $-1 $221 $152 5 #
model_id-kcp-attrib $-1 $448 $-1 $222 1 990666362 90 1566179329 7 #
face $449 $450 $451 $13 $-1 $327 forward single #
loop $452 $-1 $453 $222 #
plane-surface $454 120 -39 0 0 1 0 0 0 1 forward_v I I I I #
loop_type-twe-attrib $-1 $-1 $-1 $223 0 #
coedge $-1 $455 $456 $457 $458 forward $223 $-1 #
surf-twe-attrib $-1 $-1 $-1 $224 28 #
loop_type-twe-attrib $-1 $-1 $225 $153 1 #
loop_type-twe-attrib $-1 $-1 $-1 $226 0 #
loop $459 $460 $461 $101 #
coedge $-1 $334 $334 $227 $335 reversed $462 $-1 #
edge $463 $464 -3.1415926535897931 $464 3.1415926535897931 $334 $465 forward 7 unknown #
coedge $-1 $232 $229 $466 $467 reversed $69 $-1 #
coedge $-1 $366 $455 $229 $338 forward $223 $-1 #
edge $468 $469 -35 $340 0 $337 $470 forward 7 unknown #
attrib_edge_convexity-kcp-attrib $-1 $471 $-1 $231 1 #
vertex $-1 $370 $472 #
straight-curve $473 0 -74 40 -1 0 0 I I #
coedge $-1 $474 $353 $232 $343 forward $355 $-1 #
edge $475 $345 -39 $476 0 $342 $477 forward 7 unknown #
edge_name-twe-attrib $-1 $-1 $-1 $234 19 8704 #
vertex $-1 $359 $478 #
straight-curve $479 80 0 40 1 0 0 I I #
convexity-sys-attrib $-1 $480 $235 $160 #
point $-1 0 -74 40 #
point $-1 0 0 40 #
cur-twe-attrib $-1 $-1 $-1 $238 36 #
coedge $-1 $481 $482 $239 $352 reversed $451 $-1 #
edge $483 $357 -40 $368 0 $351 $484 forward 7 unknown #
coedge $-1 $342 $240 $243 $359 reversed $355 $-1 #
coedge $-1 $240 $485 $481 $486 forward $355 $-1 #
loop $487 $-1 $354 $450 #
attrib_edge_convexity-kcp-attrib $-1 $488 $-1 $241 1 #
vertex $-1 $486 $489 #
straight-curve $490 80 -39 0 0 -1 0 I I #
edge $491 $345 -40 $246 0 $243 $492 forward 7 unknown #
loop_type-twe-attrib $-1 $-1 $-1 $244 0 #
face $493 $494 $244 $13 $-1 $495 forward single #
convexity-sys-attrib $-1 $496 $245 $163 #
point $-1 80 0 0 #
cur-twe-attrib $-1 $-1 $-1 $247 39 #
coedge $-1 $497 $248 $482 $498 reversed $223 $-1 #
coedge $-1 $248 $337 $250 $370 forward $223 $-1 #
attrib_edge_convexity-kcp-attrib $-1 $499 $-1 $249 1 #
vertex $-1 $498 $500 #
straight-curve $501 120 -74 0 0 -1 0 I I #
edge $502 $340 -40 $253 0 $366 $503 forward 7 unknown #
convexity-sys-attrib $-1 $504 $252 $166 #
point $-1 120 -74 0 #
cur-twe-attrib $-1 $-1 $-1 $254 42 #
attrib_edge_convexity-kcp-attrib $-1 $505 $-1 $255 1 #
straight-curve $506 0 -74 0 0 0 -1 I I #
attrib_edge_convexity-kcp-attrib $-1 $507 $-1 $256 1 #
straight-curve $508 0 0 0 0 0 -1 I I #
edge_name-twe-attrib $-1 $-1 $257 $110 1 8704 #
model_id-kcp-attrib $-1 $-1 $-1 $262 1 990666362 90 1566179330 7 #
face $509 $-1 $277 $39 $-1 $510 reversed single #
loop $-1 $-1 $396 $262 #
plane-surface $-1 0 37 0 0 -1 0 0 0 -1 forward_v I I I I #
coedge $-1 $511 $394 $397 $512 forward $263 $-1 #
coedge $-1 $400 $265 $266 $388 reversed $175 $-1 #
coedge $-1 $394 $511 $265 $386 reversed $263 $-1 #
edge $-1 $401 -20 $513 20 $385 $514 forward 7 unknown #
coedge $-1 $267 $266 $511 $515 forward $113 $-1 #
edge $-1 $392 -60 $513 60 $384 $516 forward 7 unknown #
coedge $-1 $397 $396 $267 $390 reversed $381 $-1 #
edge $-1 $517 -60 $391 60 $389 $518 forward 7 unknown #
vertex $-1 $269 $519 #
vertex $-1 $403 $520 #
straight-curve $-1 60 0 -20 0 -1 0 I I #
coedge $-1 $383 $385 $270 $395 reversed $263 $-1 #
edge $-1 $398 -37 $401 37 $394 $521 forward 7 unknown #
coedge $-1 $389 $271 $276 $404 forward $381 $-1 #
coedge $-1 $271 $389 $383 $512 reversed $381 $-1 #
vertex $-1 $272 $522 #
straight-curve $-1 0 37 20 -1 0 0 I I #
coedge $-1 $273 $384 $275 $403 reversed $175 $-1 #
vertex $-1 $395 $523 #
straight-curve $-1 0 -37 20 1 0 0 I I #
edge $-1 $278 -20 $392 20 $275 $524 forward 7 unknown #
edge $-1 $279 -20 $391 20 $276 $525 forward 7 unknown #
point $-1 60 -37 20 #
point $-1 60 37 20 #
vertex $-1 $282 $526 #
ellipse-curve $-1 0 0 8.4999999999999964 0 0 1 6.5 0 0 1 I I #
point $-1 6.5 0 -8.4999999999999964 #
vertex $-1 $286 $527 #
ellipse-curve $-1 0 0 8.4999999999999964 0 0 1 6.5 0 0 1 I I #
point $-1 6.5 0 -8.4999999999999964 #
vertex $-1 $290 $528 #
ellipse-curve $-1 0 0 8.5000000000000036 0 0 1 6.5 0 0 1 I I #
point $-1 6.5 0 -8.5000000000000036 #
vertex $-1 $294 $529 #
ellipse-curve $-1 0 0 8.5000000000000036 0 0 1 6.5 0 0 1 I I #
point $-1 6.5 0 -8.5000000000000036 #
convexity-sys-attrib $-1 $-1 $-1 $298 #
vertex $-1 $298 $530 #
ellipse-curve $-1 -6.5 -20 0 0 1 0 -6.5 0 0 1 I I #
point $-1 -13 -37 0 #
convexity-sys-attrib $-1 $-1 $-1 $302 #
vertex $-1 $302 $531 #
ellipse-curve $-1 -30 -20 0 0 1 0 -6.5 0 0 1 I I #
point $-1 -36.5 -37 0 #
face $-1 $-1 $532 $53 $-1 $533 reversed single #
plane-surface $-1 40 37 0 0 1 0 0 0 1 forward_v I I I I #
coedge $-1 $315 $534 $317 $445 forward $306 $-1 #
coedge $-1 $535 $308 $534 $536 reversed $213 $-1 #
coedge $-1 $308 $535 $309 $435 forward $213 $-1 #
coedge $-1 $311 $317 $308 $433 reversed $318 $-1 #
edge $-1 $436 -40 $537 0 $308 $538 forward 7 unknown #
coedge $-1 $310 $309 $539 $540 reversed $147 $-1 #
edge $-1 $541 0 $436 39 $431 $542 forward 7 unknown #
vertex $-1 $435 $543 #
straight-curve $-1 60 37 -6.5 0 0 1 I I #
coedge $-1 $539 $544 $313 $439 forward $532 $-1 #
edge $545 $443 0 $440 40 $313 $546 forward 7 unknown #
vertex $-1 $439 $547 #
straight-curve $-1 60 -2 -20 0 1 0 I I #
coedge $-1 $534 $315 $544 $548 reversed $306 $-1 #
vertex $-1 $548 $549 #
straight-curve $-1 20 -2 -20 0 1 0 I I #
edge $-1 $537 -36.5 $319 3.5 $429 $550 forward 7 unknown #
point $-1 20 37 -20 #
point $-1 60 37 -20 #
face_name-twe-attrib $-1 $-1 $324 $222 6 #
model_id-kcp-attrib $-1 $551 $-1 $325 1 990666362 90 1566179329 8 #
face $552 $361 $355 $13 $-1 $553 forward single #
loop $554 $-1 $555 $325 #
loop_type-twe-attrib $-1 $-1 $-1 $326 0 #
coedge $-1 $556 $557 $558 $559 reversed $326 $-1 #
surf-twe-attrib $-1 $560 $-1 $327 89 #
coedge $-1 $337 $329 $557 $561 reversed $223 $-1 #
coedge $-1 $329 $562 $563 $564 forward $223 $-1 #
coedge $-1 $565 $558 $329 $458 reversed $566 $-1 #
edge $567 $568 -10 $569 0 $457 $570 forward 7 unknown #
model_id-kcp-attrib $-1 $571 $-1 $333 1 990666362 90 1566179329 28 #
loop $572 $573 $574 $101 #
coedge $-1 $461 $461 $575 $576 forward $333 $-1 #
loop $577 $-1 $334 $578 #
attrib_edge_convexity-kcp-attrib $-1 $579 $-1 $335 1 #
vertex $-1 $335 $580 #
ellipse-curve $581 86.5 -74 20 0 1 0 -6.5 0 0 1 I I #
coedge $-1 $557 $556 $336 $467 forward $326 $-1 #
edge $582 $476 -40 $469 0 $466 $583 forward 7 unknown #
edge_name-twe-attrib $-1 $-1 $-1 $338 6 8704 #
vertex $-1 $561 $584 #
straight-curve $585 120 -74 40 0 -1 0 I I #
convexity-sys-attrib $-1 $586 $339 $231 #
point $-1 120 -74 40 #
cur-twe-attrib $-1 $-1 $-1 $341 59 #
coedge $-1 $587 $342 $556 $588 forward $355 $-1 #
edge_name-twe-attrib $-1 $-1 $-1 $343 15 8704 #
vertex $-1 $588 $589 #
straight-curve $590 80 -39 40 0 -1 0 I I #
point $-1 80 0 40 #
cur-twe-attrib $-1 $-1 $-1 $346 62 #
edge_name-twe-attrib $-1 $-1 $347 $160 2 8704 #
coedge $-1 $555 $351 $354 $486 reversed $451 $-1 #
coedge $-1 $351 $555 $365 $498 forward $451 $-1 #
attrib_edge_convexity-kcp-attrib $-1 $591 $-1 $352 1 #
straight-curve $592 120 -39 0 1 0 0 I I #
coedge $-1 $354 $593 $594 $595 reversed $355 $-1 #
edge $596 $597 -14 $357 0 $354 $598 forward 7 unknown #
loop_type-twe-attrib $-1 $-1 $-1 $355 0 #
convexity-sys-attrib $-1 $599 $356 $241 #
point $-1 80 -39 0 #
cur-twe-attrib $-1 $-1 $-1 $358 69 #
edge_name-twe-attrib $-1 $-1 $-1 $359 20 8704 #
straight-curve $600 80 0 0 0 0 -1 I I #
model_id-kcp-attrib $-1 $601 $-1 $361 1 990666362 90 1566179329 10 #
face $602 $603 $566 $13 $-1 $604 reversed single #
plane-surface $605 80 0 0 0 1 0 0 0 1 forward_v I I I I #
edge_name-twe-attrib $-1 $-1 $362 $163 17 8704 #
coedge $-1 $606 $365 $607 $608 reversed $223 $-1 #
edge $609 $610 -14 $368 0 $482 $611 forward 7 unknown #
convexity-sys-attrib $-1 $612 $367 $249 #
point $-1 120 -39 0 #
cur-twe-attrib $-1 $-1 $-1 $369 77 #
attrib_edge_convexity-kcp-attrib $-1 $613 $-1 $370 1 #
straight-curve $614 120 -74 0 0 0 -1 I I #
edge_name-twe-attrib $-1 $-1 $371 $166 3 8704 #
convexity-sys-attrib $-1 $615 $374 $255 #
cur-twe-attrib $-1 $-1 $-1 $375 83 #
convexity-sys-attrib $-1 $616 $376 $256 #
cur-twe-attrib $-1 $-1 $-1 $377 84 #
model_id-kcp-attrib $-1 $-1 $-1 $380 1 990666362 90 1566179330 6 #
plane-surface $-1 60 0 0 -1 0 0 0 0 1 forward_v I I I I #
coedge $-1 $385 $383 $387 $515 reversed $263 $-1 #
edge $-1 $398 -20 $517 20 $397 $617 forward 7 unknown #
vertex $-1 $515 $618 #
straight-curve $-1 -60 -37 0 0 0 -1 I I #
edge $-1 $513 -37 $517 37 $511 $619 forward 7 unknown #
straight-curve $-1 0 -37 -20 -1 0 0 I I #
vertex $-1 $390 $620 #
straight-curve $-1 0 37 -20 1 0 0 I I #
point $-1 60 37 -20 #
point $-1 60 -37 -20 #
straight-curve $-1 -60 0 20 0 -1 0 I I #
point $-1 -60 37 20 #
point $-1 -60 -37 20 #
straight-curve $-1 60 -37 0 0 0 -1 I I #
straight-curve $-1 60 37 0 0 0 -1 I I #
point $-1 6.5 0 8.4999999999999964 #
point $-1 6.5 0 8.4999999999999964 #
point $-1 6.5 0 8.5000000000000036 #
point $-1 6.5 0 8.5000000000000036 #
point $-1 -13 -20 0 #
point $-1 -36.5 -20 0 #
loop $-1 $-1 $544 $427 #
plane-surface $-1 40 -2 0 0 1 0 0 0 1 forward_v I I I I #
coedge $-1 $429 $442 $430 $536 forward $306 $-1 #
coedge $-1 $431 $430 $621 $622 reversed $213 $-1 #
edge $-1 $623 0 $537 39 $534 $624 forward 7 unknown #
vertex $-1 $536 $625 #
straight-curve $-1 20 37 20 -1 0 0 I I #
coedge $-1 $621 $438 $434 $540 forward $532 $-1 #
edge $626 $440 -13.5 $541 26.5 $434 $627 forward 7 unknown #
vertex $-1 $540 $628 #
straight-curve $-1 60 -2 20 0 1 0 I I #
point $-1 60 37 20 #
coedge $-1 $438 $621 $442 $548 forward $532 $-1 #
convexity-sys-attrib $-1 $-1 $-1 $439 #
straight-curve $-1 20 -2 -20 1 0 0 I I #
point $-1 60 -2 -20 #
edge $629 $623 -36.5 $443 3.5 $442 $630 forward 7 unknown #
point $-1 20 -2 -20 #
straight-curve $-1 20 37 -16.5 0 0 -1 I I #
face_name-twe-attrib $-1 $-1 $449 $325 7 #
model_id-kcp-attrib $-1 $631 $-1 $450 1 990666362 90 1566179329 9 #
plane-surface $632 80 -39 0 1 0 0 0 0 -1 forward_v I I I I #
loop_type-twe-attrib $-1 $-1 $-1 $451 0 #
coedge $-1 $482 $481 $633 $634 forward $451 $-1 #
coedge $-1 $466 $453 $474 $588 reversed $326 $-1 #
coedge $-1 $453 $466 $455 $561 forward $326 $-1 #
coedge $-1 $457 $635 $453 $559 forward $566 $-1 #
edge $636 $637 -40 $569 0 $558 $638 forward 7 unknown #
surf-twe-attrib $-1 $-1 $454 $327 50 #
edge $639 $469 -14 $569 0 $557 $640 forward 7 unknown #
coedge $-1 $456 $641 $642 $643 forward $223 $-1 #
coedge $-1 $644 $645 $456 $564 reversed $646 $-1 #
edge $647 $648 -4 $568 0 $563 $649 forward 7 unknown #
coedge $-1 $635 $457 $645 $650 forward $566 $-1 #
loop $651 $-1 $457 $494 #
edge_name-twe-attrib $-1 $-1 $-1 $458 21 8704 #
vertex $-1 $650 $652 #
vertex $-1 $561 $653 #
straight-curve $654 120 -39 26 0 1 0 I I #
loop_type-twe-attrib $-1 $-1 $459 $333 1 #
loop_type-twe-attrib $-1 $-1 $-1 $460 1 #
loop $655 $-1 $656 $101 #
coedge $-1 $574 $574 $657 $658 reversed $460 $-1 #
coedge $-1 $575 $575 $461 $576 reversed $659 $-1 #
edge $660 $661 -3.1415926535897931 $661 3.1415926535897931 $575 $662 forward 7 unknown #
model_id-kcp-attrib $-1 $663 $-1 $462 1 990666362 90 1566179329 30 #
face $664 $665 $666 $13 $-1 $667 reversed single #
convexity-sys-attrib $-1 $668 $463 $335 #
point $-1 93 -74 20 #
cur-twe-attrib $-1 $-1 $-1 $465 98 #
edge_name-twe-attrib $-1 $-1 $-1 $467 9 8704 #
straight-curve $669 120 -39 40 1 0 0 I I #
point $-1 120 -39 40 #
cur-twe-attrib $-1 $-1 $-1 $470 101 #
edge_name-twe-attrib $-1 $-1 $471 $231 4 8704 #
coedge $-1 $670 $474 $635 $671 reversed $355 $-1 #
edge $672 $476 -14 $637 0 $474 $673 forward 7 unknown #
point $-1 80 -39 40 #
cur-twe-attrib $-1 $-1 $-1 $477 106 #
convexity-sys-attrib $-1 $674 $483 $352 #
cur-twe-attrib $-1 $-1 $-1 $484 114 #
coedge $-1 $485 $675 $676 $677 reversed $355 $-1 #
coedge $-1 $678 $633 $485 $595 forward $679 $-1 #
edge $680 $597 -10 $681 0 $594 $682 forward 7 unknown #
edge_name-twe-attrib $-1 $-1 $-1 $486 13 4608 #
vertex $-1 $595 $683 #
straight-curve $684 80 -39 0 0 0 -1 I I #
edge_name-twe-attrib $-1 $-1 $488 $241 14 8704 #
cur-twe-attrib $-1 $-1 $-1 $492 121 #
face_name-twe-attrib $-1 $-1 $493 $361 9 #
model_id-kcp-attrib $-1 $685 $-1 $494 1 990666362 90 1566179329 11 #
face $686 $687 $646 $13 $-1 $688 reversed single #
plane-surface $689 80 -39 26 0 0 1 1 0 0 forward_v I I I I #
surf-twe-attrib $-1 $-1 $-1 $495 123 #
coedge $-1 $690 $497 $691 $692 forward $223 $-1 #
coedge $-1 $633 $678 $497 $608 forward $679 $-1 #
edge $693 $694 -10 $610 0 $607 $695 forward 7 unknown #
edge_name-twe-attrib $-1 $-1 $-1 $498 11 8704 #
vertex $-1 $498 $696 #
straight-curve $697 120 -39 0 0 0 -1 I I #
edge_name-twe-attrib $-1 $-1 $499 $249 8 8704 #
convexity-sys-attrib $-1 $698 $502 $370 #
cur-twe-attrib $-1 $-1 $-1 $503 131 #
edge_name-twe-attrib $-1 $-1 $505 $255 5 8704 #
edge_name-twe-attrib $-1 $-1 $507 $256 18 8704 #
straight-curve $-1 -60 37 0 0 0 -1 I I #
point $-1 -60 -37 -20 #
straight-curve $-1 -60 0 -20 0 1 0 I I #
point $-1 -60 37 -20 #
coedge $-1 $544 $539 $535 $622 forward $532 $-1 #
edge $699 $541 -40 $623 0 $535 $700 forward 7 unknown #
vertex $-1 $548 $701 #
straight-curve $-1 20 -2 20 0 1 0 I I #
point $-1 20 37 20 #
convexity-sys-attrib $-1 $-1 $-1 $540 #
straight-curve $-1 60 -2 -6.5 0 0 1 I I #
point $-1 60 -2 20 #
convexity-sys-attrib $-1 $-1 $-1 $548 #
straight-curve $-1 20 -2 -16.5 0 0 -1 I I #
face_name-twe-attrib $-1 $-1 $552 $450 8 #
surf-twe-attrib $-1 $-1 $-1 $553 139 #
coedge $-1 $594 $607 $555 $634 reversed $679 $-1 #
edge $702 $597 -40 $610 0 $633 $703 forward 7 unknown #
coedge $-1 $558 $565 $587 $671 forward $566 $-1 #
edge_name-twe-attrib $-1 $-1 $-1 $559 23 8704 #
vertex $-1 $588 $704 #
straight-curve $705 120 -39 26 1 0 0 I I #
edge_name-twe-attrib $-1 $-1 $-1 $561 10 8704 #
straight-curve $706 120 -39 26 0 0 -1 I I #
coedge $-1 $562 $690 $707 $708 forward $223 $-1 #
coedge $-1 $709 $710 $562 $643 reversed $711 $-1 #
edge $712 $713 -8 $648 0 $642 $714 forward 7 unknown #
coedge $-1 $715 $563 $710 $716 forward $646 $-1 #
coedge $-1 $563 $715 $565 $650 reversed $646 $-1 #
loop $717 $-1 $563 $603 #
edge_name-twe-attrib $-1 $-1 $-1 $564 24 8704 #
vertex $-1 $716 $718 #
straight-curve $719 120 -49 26 0 0 -1 I I #
edge $720 $568 -40 $721 0 $645 $722 forward 7 unknown #
loop_type-twe-attrib $-1 $-1 $-1 $566 0 #
point $-1 120 -49 26 #
point $-1 120 -39 26 #
cur-twe-attrib $-1 $-1 $-1 $570 147 #
loop_type-twe-attrib $-1 $-1 $-1 $573 1 #
coedge $-1 $656 $656 $723 $724 reversed $573 $-1 #
coedge $-1 $657 $657 $574 $658 forward $725 $-1 #
edge $726 $727 0 $727 6.2831853071795862 $657 $728 forward 7 unknown #
loop $729 $-1 $575 $730 #
attrib_edge_convexity-kcp-attrib $-1 $731 $-1 $576 1 #
vertex $-1 $576 $732 #
ellipse-curve $733 110 -74 20 0 1 0 -6.5 0 0 1 I I #
loop_type-twe-attrib $-1 $-1 $577 $462 1 #
model_id-kcp-attrib $-1 $734 $-1 $578 1 990666362 90 1566179329 19 #
face $735 $736 $737 $13 $-1 $738 reversed single #
loop $739 $462 $740 $578 #
cone-surface $741 86.5 -57 20 0 -1 0 6.5 0 0 1 I I 0 1 6.5 forward I I I I #
edge_name-twe-attrib $-1 $-1 $579 $335 46 8704 #
cur-twe-attrib $-1 $-1 $-1 $583 156 #
coedge $-1 $742 $587 $715 $743 reversed $355 $-1 #
edge $744 $721 -10 $637 0 $635 $745 forward 7 unknown #
edge_name-twe-attrib $-1 $-1 $-1 $588 16 4608 #
straight-curve $746 80 -39 26 0 0 -1 I I #
edge_name-twe-attrib $-1 $-1 $591 $352 12 8704 #
coedge $-1 $593 $747 $748 $749 reversed $355 $-1 #
coedge $-1 $750 $751 $593 $677 forward $752 $-1 #
edge $753 $681 -4 $754 0 $676 $755 forward 7 unknown #
coedge $-1 $607 $594 $751 $756 reversed $679 $-1 #
loop $757 $-1 $607 $758 #
edge_name-twe-attrib $-1 $-1 $-1 $595 41 4608 #
vertex $-1 $756 $759 #
straight-curve $760 80 -49 14 0 -1 0 I I #
point $-1 80 -39 14 #
cur-twe-attrib $-1 $761 $-1 $598 223 #
face_name-twe-attrib $-1 $-1 $602 $494 10 #
model_id-kcp-attrib $-1 $762 $-1 $603 1 990666362 90 1566179329 12 #
face $763 $764 $711 $13 $-1 $765 reversed single #
plane-surface $766 80 -49 26 0 1 0 0 0 1 forward_v I I I I #
surf-twe-attrib $-1 $-1 $-1 $604 180 #
coedge $-1 $641 $606 $767 $768 forward $223 $-1 #
coedge $-1 $751 $750 $606 $692 reversed $752 $-1 #
edge $769 $694 -4 $770 0 $691 $771 forward 7 unknown #
edge_name-twe-attrib $-1 $-1 $-1 $608 39 8704 #
vertex $-1 $756 $772 #
straight-curve $773 120 -39 14 0 1 0 I I #
point $-1 120 -39 14 #
cur-twe-attrib $-1 $774 $-1 $611 183 #
edge_name-twe-attrib $-1 $-1 $613 $370 7 8704 #
convexity-sys-attrib $-1 $-1 $-1 $622 #
straight-curve $-1 20 -2 20 -1 0 0 I I #
point $-1 20 -2 20 #
edge_name-twe-attrib $-1 $-1 $-1 $634 40 8704 #
straight-curve $775 120 -39 14 1 0 0 I I #
point $-1 80 -39 26 #
cur-twe-attrib $-1 $-1 $-1 $638 197 #
cur-twe-attrib $-1 $776 $-1 $640 183 #
coedge $-1 $777 $778 $641 $708 reversed $779 $-1 #
edge $780 $781 -20 $713 0 $707 $782 forward 7 unknown #
coedge $-1 $783 $642 $778 $784 forward $711 $-1 #
coedge $-1 $642 $783 $644 $716 reversed $711 $-1 #
loop $785 $-1 $642 $687 #
edge_name-twe-attrib $-1 $-1 $-1 $643 27 8704 #
vertex $-1 $784 $786 #
straight-curve $787 120 -49 30 0 1 0 I I #
coedge $-1 $645 $644 $670 $743 forward $646 $-1 #
edge $788 $648 -40 $789 0 $710 $790 forward 7 unknown #
loop_type-twe-attrib $-1 $-1 $-1 $646 0 #
point $-1 120 -49 30 #
cur-twe-attrib $-1 $791 $-1 $649 301 #
edge_name-twe-attrib $-1 $-1 $-1 $650 26 8704 #
vertex $-1 $650 $792 #
straight-curve $793 80 -49 26 -1 0 0 I I #
coedge $-1 $723 $723 $656 $724 forward $794 $-1 #
edge $795 $796 0 $796 6.2831853071795862 $723 $797 forward 7 unknown #
loop $798 $799 $657 $736 #
attrib_edge_convexity-kcp-attrib $-1 $800 $-1 $658 1 #
vertex $-1 $658 $801 #
ellipse-curve $802 30 -74 20 0 -1 0 -6.5 0 0 1 I I #
model_id-kcp-attrib $-1 $803 $-1 $659 1 990666362 90 1566179329 26 #
face $804 $578 $805 $13 $-1 $806 reversed single #
convexity-sys-attrib $-1 $807 $660 $576 #
point $-1 116.5 -74 20 #
cur-twe-attrib $-1 $-1 $-1 $662 213 #
face_name-twe-attrib $-1 $-1 $664 $578 18 #
model_id-kcp-attrib $-1 $808 $-1 $665 1 990666362 90 1566179329 20 #
face $809 $810 $725 $13 $-1 $811 reversed single #
loop $812 $-1 $813 $665 #
plane-surface $814 30 -57 20 0 1 0 0 0 1 forward_v I I I I #
model_id-kcp-attrib $-1 $815 $-1 $666 1 990666362 90 1566179329 29 #
coedge $-1 $740 $740 $816 $817 forward $666 $-1 #
surf-twe-attrib $-1 $-1 $-1 $667 215 #
coedge $-1 $747 $670 $783 $818 reversed $355 $-1 #
edge $819 $789 -4 $721 0 $715 $820 forward 7 unknown #
edge_name-twe-attrib $-1 $-1 $-1 $671 22 4608 #
straight-curve $821 80 -39 26 0 1 0 I I #
cur-twe-attrib $-1 $822 $-1 $673 223 #
coedge $-1 $675 $742 $823 $824 reversed $355 $-1 #
coedge $-1 $825 $826 $675 $749 forward $827 $-1 #
edge $828 $754 -8 $829 0 $748 $830 forward 7 unknown #
coedge $-1 $691 $676 $826 $831 reversed $752 $-1 #
coedge $-1 $676 $691 $678 $756 forward $752 $-1 #
loop $832 $-1 $691 $833 #
edge_name-twe-attrib $-1 $-1 $-1 $677 37 4608 #
vertex $-1 $831 $834 #
straight-curve $835 80 -49 10 0 0 -1 I I #
edge $836 $694 -40 $681 0 $678 $837 forward 7 unknown #
loop_type-twe-attrib $-1 $-1 $-1 $679 0 #
face $838 $730 $679 $13 $-1 $839 reversed single #
point $-1 80 -49 14 #
cur-twe-attrib $-1 $-1 $-1 $682 229 #
cur-twe-attrib $-1 $-1 $684 $598 173 #
face_name-twe-attrib $-1 $-1 $686 $603 11 #
model_id-kcp-attrib $-1 $840 $-1 $687 1 990666362 90 1566179329 13 #
face $841 $842 $843 $13 $-1 $844 reversed single #
plane-surface $845 80 -49 30 0 0 1 1 0 0 forward_v I I I I #
surf-twe-attrib $-1 $846 $-1 $688 430 #
coedge $-1 $826 $825 $690 $768 reversed $827 $-1 #
edge $847 $770 -8 $781 0 $767 $848 forward 7 unknown #
edge_name-twe-attrib $-1 $-1 $-1 $692 36 8704 #
vertex $-1 $831 $849 #
straight-curve $850 120 -49 10 0 0 -1 I I #
point $-1 120 -49 14 #
cur-twe-attrib $-1 $-1 $-1 $695 240 #
cur-twe-attrib $-1 $-1 $697 $611 199 #
cur-twe-attrib $-1 $-1 $-1 $703 247 #
cur-twe-attrib $-1 $-1 $706 $640 199 #
coedge $-1 $823 $707 $825 $851 forward $779 $-1 #
coedge $-1 $707 $823 $709 $784 reversed $779 $-1 #
loop $852 $853 $707 $764 #
edge_name-twe-attrib $-1 $-1 $-1 $708 30 8704 #
vertex $-1 $851 $854 #
straight-curve $855 120 -57 30 0 0 1 I I #
coedge $-1 $710 $709 $742 $818 forward $711 $-1 #
edge $856 $713 -40 $857 0 $778 $858 forward 7 unknown #
loop_type-twe-attrib $-1 $-1 $-1 $711 0 #
point $-1 120 -57 30 #
cur-twe-attrib $-1 $-1 $-1 $714 256 #
edge_name-twe-attrib $-1 $-1 $-1 $716 29 4608 #
vertex $-1 $716 $859 #
straight-curve $860 80 -49 30 -1 0 0 I I #
cur-twe-attrib $-1 $-1 $719 $649 202 #
point $-1 80 -49 26 #
cur-twe-attrib $-1 $-1 $-1 $722 263 #
loop $861 $862 $723 $863 #
attrib_edge_convexity-kcp-attrib $-1 $864 $-1 $724 1 #
vertex $-1 $724 $865 #
ellipse-curve $866 53.5 -74 20 0 -1 0 -6.5 0 0 1 I I #
loop_type-twe-attrib $-1 $-1 $-1 $725 0 #
loop $867 $-1 $868 $736 #
convexity-sys-attrib $-1 $869 $726 $658 #
point $-1 23.5 -74 20 #
cur-twe-attrib $-1 $-1 $-1 $728 271 #
loop_type-twe-attrib $-1 $-1 $729 $659 1 #
model_id-kcp-attrib $-1 $870 $-1 $730 1 990666362 90 1566179329 18 #
loop $871 $659 $872 $730 #
cone-surface $873 110 -57 20 0 -1 0 6.5 0 0 1 I I 0 1 6.5 forward I I I I #
edge_name-twe-attrib $-1 $-1 $731 $576 44 8704 #
face_name-twe-attrib $-1 $-1 $735 $665 19 #
model_id-kcp-attrib $-1 $874 $-1 $736 1 990666362 90 1566179329 21 #
face $875 $863 $876 $13 $-1 $877 reversed single #
cone-surface $878 30 -74 20 0 1 0 -6.5 0 0 1 I I 0 1 6.5 forward I I I I #
loop_type-twe-attrib $-1 $-1 $-1 $737 0 #
coedge $-1 $813 $813 $868 $879 forward $737 $-1 #
surf-twe-attrib $-1 $880 $-1 $738 408 #
loop_type-twe-attrib $-1 $-1 $739 $666 0 #
coedge $-1 $816 $816 $740 $817 reversed $843 $-1 #
edge $881 $882 0 $882 6.2831853071795862 $740 $883 forward 7 unknown #
edge $884 $857 -8 $789 0 $783 $885 forward 7 unknown #
edge_name-twe-attrib $-1 $-1 $-1 $743 25 4608 #
straight-curve $886 80 -49 26 0 0 -1 I I #
cur-twe-attrib $-1 $-1 $-1 $745 282 #
cur-twe-attrib $-1 $-1 $746 $673 173 #
coedge $-1 $778 $777 $747 $824 forward $779 $-1 #
edge $887 $829 -20 $857 0 $823 $888 forward 7 unknown #
coedge $-1 $767 $748 $777 $851 reversed $827 $-1 #
coedge $-1 $748 $767 $750 $831 forward $827 $-1 #
loop $889 $-1 $767 $842 #
edge_name-twe-attrib $-1 $-1 $-1 $749 34 4608 #
vertex $-1 $851 $890 #
straight-curve $891 80 -57 10 0 -1 0 I I #
edge $892 $770 -40 $754 0 $750 $893 forward 7 unknown #
loop_type-twe-attrib $-1 $-1 $-1 $752 0 #
face $894 $758 $752 $13 $-1 $895 reversed single #
point $-1 80 -49 10 #
cur-twe-attrib $-1 $896 $-1 $755 287 #
edge_name-twe-attrib $-1 $-1 $-1 $756 42 8704 #
straight-curve $897 80 -49 14 -1 0 0 I I #
model_id-kcp-attrib $-1 $898 $-1 $758 1 990666362 90 1566179329 17 #
plane-surface $899 80 -49 14 0 0 -1 -1 0 0 forward_v I I I I #
face_name-twe-attrib $-1 $-1 $763 $687 12 #
model_id-kcp-attrib $-1 $900 $-1 $764 1 990666362 90 1566179329 14 #
face $901 $833 $827 $13 $-1 $902 reversed single #
loop $903 $779 $816 $764 #
plane-surface $904 80 -57 30 0 -1 0 0 0 -1 forward_v I I I I #
surf-twe-attrib $-1 $-1 $-1 $765 296 #
surf-twe-attrib $-1 $-1 $766 $688 235 #
edge_name-twe-attrib $-1 $-1 $-1 $768 33 8704 #
straight-curve $905 120 -57 10 0 -1 0 I I #
point $-1 120 -49 10 #
cur-twe-attrib $-1 $906 $-1 $771 301 #
edge $907 $781 -40 $829 0 $825 $908 forward 7 unknown #
loop_type-twe-attrib $-1 $-1 $-1 $779 0 #
loop $909 $-1 $910 $764 #
point $-1 120 -57 10 #
cur-twe-attrib $-1 $-1 $-1 $782 313 #
edge_name-twe-attrib $-1 $-1 $-1 $784 32 4608 #
vertex $-1 $784 $911 #
straight-curve $912 80 -57 30 -1 0 0 I I #
point $-1 80 -49 30 #
cur-twe-attrib $-1 $-1 $-1 $790 321 #
loop_type-twe-attrib $-1 $-1 $-1 $794 0 #
loop $913 $-1 $914 $863 #
face $915 $-1 $794 $13 $-1 $916 reversed single #
convexity-sys-attrib $-1 $917 $795 $724 #
point $-1 47 -74 20 #
cur-twe-attrib $-1 $-1 $-1 $797 329 #
loop_type-twe-attrib $-1 $-1 $-1 $799 1 #
coedge $-1 $868 $868 $813 $879 reversed $799 $-1 #
edge_name-twe-attrib $-1 $-1 $800 $658 47 8704 #
face_name-twe-attrib $-1 $-1 $804 $730 17 #
model_id-kcp-attrib $-1 $918 $-1 $805 1 990666362 90 1566179329 25 #
coedge $-1 $872 $872 $910 $919 forward $805 $-1 #
surf-twe-attrib $-1 $-1 $-1 $806 335 #
face_name-twe-attrib $-1 $-1 $809 $736 20 #
model_id-kcp-attrib $-1 $920 $-1 $810 1 990666362 90 1566179329 22 #
loop $921 $-1 $922 $810 #
plane-surface $923 53.5 -57 20 0 1 0 0 0 1 forward_v I I I I #
surf-twe-attrib $-1 $-1 $-1 $811 339 #
edge $924 $925 -3.1415926535897931 $925 3.1415926535897931 $868 $926 forward 7 unknown #
surf-twe-attrib $-1 $927 $814 $738 277 #
attrib_edge_convexity-kcp-attrib $-1 $928 $-1 $817 1 #
vertex $-1 $817 $929 #
ellipse-curve $930 86.5 -57 20 0 1 0 6.5 0 0 1 I I #
edge_name-twe-attrib $-1 $-1 $-1 $818 28 4608 #
straight-curve $931 80 -49 30 0 1 0 I I #
cur-twe-attrib $-1 $932 $-1 $820 287 #
edge_name-twe-attrib $-1 $-1 $-1 $824 31 4608 #
straight-curve $933 80 -57 30 0 0 1 I I #
loop_type-twe-attrib $-1 $-1 $-1 $827 0 #
point $-1 80 -57 10 #
cur-twe-attrib $-1 $-1 $-1 $830 352 #
edge_name-twe-attrib $-1 $-1 $-1 $831 38 4608 #
straight-curve $934 80 -49 10 -1 0 0 I I #
model_id-kcp-attrib $-1 $935 $-1 $833 1 990666362 90 1566179329 16 #
plane-surface $936 80 -49 10 0 1 0 0 0 1 forward_v I I I I #
cur-twe-attrib $-1 $-1 $835 $755 346 #
cur-twe-attrib $-1 $-1 $-1 $837 359 #
face_name-twe-attrib $-1 $-1 $838 $758 16 #
surf-twe-attrib $-1 $-1 $-1 $839 361 #
face_name-twe-attrib $-1 $-1 $841 $764 13 #
model_id-kcp-attrib $-1 $937 $-1 $842 1 990666362 90 1566179329 15 #
plane-surface $938 80 -57 10 0 0 -1 -1 0 0 forward_v I I I I #
model_id-kcp-attrib $-1 $939 $-1 $843 1 990666362 90 1566179329 31 #
surf-twe-attrib $-1 $940 $-1 $844 408 #
cur-twe-attrib $-1 $-1 $-1 $848 370 #
cur-twe-attrib $-1 $-1 $850 $771 202 #
edge_name-twe-attrib $-1 $-1 $-1 $851 35 4608 #
straight-curve $941 80 -57 10 -1 0 0 I I #
model_id-kcp-attrib $-1 $942 $-1 $853 1 990666362 90 1566179329 27 #
coedge $-1 $910 $910 $872 $919 reversed $853 $-1 #
point $-1 80 -57 30 #
cur-twe-attrib $-1 $-1 $-1 $858 386 #
loop_type-twe-attrib $-1 $-1 $-1 $862 1 #
coedge $-1 $914 $914 $922 $943 reversed $862 $-1 #
model_id-kcp-attrib $-1 $944 $-1 $863 1 990666362 90 1566179329 23 #
cone-surface $945 53.5 -74 20 0 1 0 -6.5 0 0 1 I I 0 1 6.5 forward I I I I #
edge_name-twe-attrib $-1 $-1 $864 $724 49 8704 #
loop_type-twe-attrib $-1 $-1 $871 $805 0 #
edge $946 $947 0 $947 6.2831853071795862 $872 $948 forward 7 unknown #
face_name-twe-attrib $-1 $-1 $875 $810 21 #
loop_type-twe-attrib $-1 $-1 $-1 $876 0 #
coedge $-1 $922 $922 $914 $943 forward $876 $-1 #
surf-twe-attrib $-1 $949 $-1 $877 408 #
attrib_edge_convexity-kcp-attrib $-1 $950 $-1 $879 2 #
vertex $-1 $879 $951 #
ellipse-curve $952 30 -57 20 0 -1 0 6.5 0 0 1 I I #
surf-twe-attrib $-1 $-1 $880 $738 366 #
convexity-sys-attrib $-1 $953 $881 $817 #
point $-1 93 -57 20 #
cur-twe-attrib $-1 $-1 $-1 $883 414 #
cur-twe-attrib $-1 $-1 $-1 $885 415 #
cur-twe-attrib $-1 $-1 $886 $820 346 #
cur-twe-attrib $-1 $-1 $-1 $888 421 #
cur-twe-attrib $-1 $-1 $-1 $893 428 #
face_name-twe-attrib $-1 $-1 $894 $833 15 #
surf-twe-attrib $-1 $954 $-1 $895 430 #
face_name-twe-attrib $-1 $-1 $901 $842 14 #
surf-twe-attrib $-1 $-1 $-1 $902 438 #
loop_type-twe-attrib $-1 $-1 $903 $843 1 #
surf-twe-attrib $-1 $955 $904 $844 277 #
cur-twe-attrib $-1 $-1 $-1 $908 447 #
loop_type-twe-attrib $-1 $-1 $909 $853 1 #
edge $956 $957 -3.1415926535897931 $957 3.1415926535897931 $914 $958 forward 7 unknown #
face_name-twe-attrib $-1 $-1 $915 $863 22 #
surf-twe-attrib $-1 $-1 $-1 $916 459 #
attrib_edge_convexity-kcp-attrib $-1 $959 $-1 $919 1 #
vertex $-1 $919 $960 #
ellipse-curve $961 110 -57 20 0 1 0 6.5 0 0 1 I I #
surf-twe-attrib $-1 $962 $923 $877 277 #
convexity-sys-attrib $-1 $963 $924 $879 #
point $-1 23.5 -57 20 #
cur-twe-attrib $-1 $-1 $-1 $926 471 #
edge_name-twe-attrib $-1 $-1 $928 $817 45 8704 #
surf-twe-attrib $-1 $-1 $936 $895 235 #
surf-twe-attrib $-1 $-1 $940 $844 366 #
attrib_edge_convexity-kcp-attrib $-1 $964 $-1 $943 2 #
vertex $-1 $943 $965 #
ellipse-curve $966 53.5 -57 20 0 -1 0 6.5 0 0 1 I I #
convexity-sys-attrib $-1 $967 $946 $919 #
point $-1 116.5 -57 20 #
cur-twe-attrib $-1 $-1 $-1 $948 507 #
surf-twe-attrib $-1 $-1 $949 $877 366 #
edge_name-twe-attrib $-1 $-1 $950 $879 48 4608 #
convexity-sys-attrib $-1 $968 $956 $943 #
point $-1 47 -57 20 #
cur-twe-attrib $-1 $-1 $-1 $958 525 #
edge_name-twe-attrib $-1 $-1 $959 $919 43 8704 #
edge_name-twe-attrib $-1 $-1 $964 $943 50 4608 #
End-of-ACIS-data 