104 543 0 0                             
body $-1 $1 $-1 $2 #
lump $-1 $-1 $3 $0 #
transform $-1 1 0 0 0 1 0 0 0 1 0 0 0 1 0 0 0 #
shell $-1 $-1 $-1 $4 $1 #
face $5 $6 $7 $3 $-1 $8 1 #
face_name-twe-attrib $-1 $-1 $-1 $4 1 #
face $9 $10 $11 $3 $-1 $12 0 #
loop $13 $-1 $14 $4 #
plane-surface $15 0 0 0 0 0 1 1 0 0 0 #
face_name-twe-attrib $-1 $-1 $-1 $6 2 #
face $16 $17 $18 $3 $-1 $19 0 #
loop $20 $-1 $21 $6 #
plane-surface $22 0 0 40 0 0 1 1 0 0 0 #
loop_type-twe-attrib $-1 $-1 $-1 $7 0 #
coedge $-1 $23 $24 $25 $26 0 $7 $-1 #
surf-twe-attrib $-1 $-1 $-1 $8 4 #
face_name-twe-attrib $-1 $-1 $-1 $10 3 #
face $27 $28 $29 $3 $-1 $30 0 #
loop $31 $-1 $25 $10 #
plane-surface $32 0 0 0 -1 0 0 0 0 1 0 #
loop_type-twe-attrib $-1 $-1 $-1 $11 0 #
coedge $-1 $33 $34 $35 $36 1 $11 $-1 #
surf-twe-attrib $-1 $-1 $-1 $12 6 #
coedge $-1 $37 $14 $38 $39 0 $7 $-1 #
coedge $-1 $14 $40 $41 $42 0 $7 $-1 #
coedge $-1 $43 $44 $14 $26 1 $18 $-1 #
edge $45 $46 $47 $25 $48 0 #
face_name-twe-attrib $-1 $-1 $-1 $17 4 #
face $49 $50 $51 $3 $-1 $52 0 #
loop $53 $54 $55 $17 #
plane-surface $56 0 -74 0 0 -1 0 0 0 -1 0 #
loop_type-twe-attrib $-1 $-1 $-1 $18 0 #
surf-twe-attrib $-1 $-1 $-1 $19 10 #
coedge $-1 $57 $21 $58 $59 1 $11 $-1 #
coedge $-1 $21 $60 $61 $62 1 $11 $-1 #
coedge $-1 $44 $43 $21 $36 0 $18 $-1 #
edge $63 $64 $65 $35 $66 0 #
coedge $-1 $67 $23 $68 $69 0 $7 $-1 #
coedge $-1 $70 $71 $23 $39 1 $72 $-1 #
edge $73 $47 $74 $38 $75 0 #
coedge $-1 $24 $67 $76 $77 0 $7 $-1 #
coedge $-1 $78 $79 $24 $42 1 $54 $-1 #
edge $80 $81 $46 $41 $82 0 #
coedge $-1 $35 $25 $79 $83 1 $18 $-1 #
coedge $-1 $25 $35 $70 $84 0 $18 $-1 #
edge_name-twe-attrib $-1 $-1 $-1 $26 1 8704 #
vertex $-1 $83 $85 #
vertex $-1 $84 $86 #
straight-curve $87 0 0 0 0 1 0 #
face_name-twe-attrib $-1 $-1 $-1 $28 5 #
face $88 $89 $90 $3 $-1 $91 0 #
loop $92 $-1 $93 $28 #
plane-surface $94 120 -74 0 1 0 0 0 0 -1 0 #
loop_type-twe-attrib $-1 $-1 $-1 $29 1 #
loop $95 $96 $41 $17 #
coedge $-1 $55 $55 $97 $98 0 $29 $-1 #
surf-twe-attrib $-1 $-1 $-1 $30 17 #
coedge $-1 $99 $33 $100 $101 1 $11 $-1 #
coedge $-1 $79 $78 $33 $59 0 $54 $-1 #
edge $102 $103 $64 $58 $104 0 #
coedge $-1 $34 $99 $105 $106 1 $11 $-1 #
coedge $-1 $71 $70 $34 $62 0 $72 $-1 #
edge $107 $65 $108 $61 $109 0 #
edge_name-twe-attrib $-1 $-1 $-1 $36 2 8704 #
vertex $-1 $83 $110 #
vertex $-1 $84 $111 #
straight-curve $112 0 0 40 0 1 0 #
coedge $-1 $40 $37 $113 $114 0 $7 $-1 #
coedge $-1 $115 $116 $37 $69 1 $117 $-1 #
edge $118 $74 $119 $68 $120 0 #
coedge $-1 $61 $38 $44 $84 1 $72 $-1 #
coedge $-1 $38 $61 $115 $121 0 $72 $-1 #
loop $122 $-1 $38 $123 #
edge_name-twe-attrib $-1 $-1 $-1 $39 17 8704 #
vertex $-1 $121 $124 #
straight-curve $125 80 0 0 1 0 0 #
coedge $-1 $126 $127 $40 $77 1 $51 $-1 #
edge $128 $129 $81 $76 $130 0 #
coedge $-1 $58 $41 $127 $131 1 $54 $-1 #
coedge $-1 $41 $58 $43 $83 0 $54 $-1 #
edge_name-twe-attrib $-1 $-1 $-1 $42 3 8704 #
vertex $-1 $131 $132 #
straight-curve $133 0 -74 0 -1 0 0 #
edge $134 $64 $46 $79 $135 0 #
edge $136 $65 $47 $70 $137 0 #
point $-1 0 -74 0 #
point $-1 0 0 0 #
cur-twe-attrib $-1 $-1 $-1 $48 26 #
face_name-twe-attrib $-1 $-1 $-1 $50 6 #
face $138 $139 $140 $3 $-1 $91 0 #
loop $141 $-1 $142 $50 #
plane-surface $143 120 -39 0 0 1 0 0 0 1 0 #
loop_type-twe-attrib $-1 $-1 $-1 $51 0 #
coedge $-1 $144 $145 $146 $147 0 $51 $-1 #
surf-twe-attrib $-1 $-1 $-1 $52 28 #
loop_type-twe-attrib $-1 $-1 $-1 $54 0 #
loop $148 $149 $150 $17 #
coedge $-1 $97 $97 $55 $98 1 $151 $-1 #
edge $152 $153 $153 $97 $154 0 #
coedge $-1 $60 $57 $155 $156 1 $11 $-1 #
coedge $-1 $127 $144 $57 $101 0 $51 $-1 #
edge $157 $158 $103 $100 $159 0 #
edge_name-twe-attrib $-1 $-1 $-1 $59 4 8704 #
vertex $-1 $131 $160 #
straight-curve $161 0 -74 40 -1 0 0 #
coedge $-1 $162 $115 $60 $106 0 $117 $-1 #
edge $163 $108 $164 $105 $165 0 #
edge_name-twe-attrib $-1 $-1 $-1 $62 19 8704 #
vertex $-1 $121 $166 #
straight-curve $167 80 0 40 1 0 0 #
point $-1 0 -74 40 #
point $-1 0 0 40 #
cur-twe-attrib $-1 $-1 $-1 $66 36 #
coedge $-1 $168 $169 $67 $114 1 $140 $-1 #
edge $170 $119 $129 $113 $171 0 #
coedge $-1 $105 $68 $71 $121 1 $117 $-1 #
coedge $-1 $68 $172 $168 $173 0 $117 $-1 #
loop $174 $-1 $116 $139 #
edge_name-twe-attrib $-1 $-1 $-1 $69 14 8704 #
vertex $-1 $173 $175 #
straight-curve $176 80 -39 0 0 -1 0 #
edge $177 $108 $74 $71 $178 0 #
loop_type-twe-attrib $-1 $-1 $-1 $72 0 #
face $179 $180 $72 $3 $-1 $181 0 #
point $-1 80 0 0 #
cur-twe-attrib $-1 $-1 $-1 $75 39 #
coedge $-1 $182 $76 $169 $183 1 $51 $-1 #
coedge $-1 $76 $100 $78 $131 0 $51 $-1 #
edge_name-twe-attrib $-1 $-1 $-1 $77 8 8704 #
vertex $-1 $183 $184 #
straight-curve $185 120 -74 0 0 -1 0 #
edge $186 $103 $81 $127 $187 0 #
point $-1 120 -74 0 #
cur-twe-attrib $-1 $-1 $-1 $82 42 #
edge_name-twe-attrib $-1 $-1 $-1 $83 5 8704 #
straight-curve $188 0 -74 0 0 0 -1 #
edge_name-twe-attrib $-1 $-1 $-1 $84 18 8704 #
straight-curve $189 0 0 0 0 0 -1 #
face_name-twe-attrib $-1 $-1 $-1 $89 7 #
face $190 $123 $117 $3 $-1 $191 0 #
loop $192 $-1 $193 $89 #
loop_type-twe-attrib $-1 $-1 $-1 $90 0 #
coedge $-1 $194 $195 $196 $197 1 $90 $-1 #
surf-twe-attrib $-1 $198 $-1 $91 89 #
coedge $-1 $100 $93 $195 $199 1 $51 $-1 #
coedge $-1 $93 $200 $201 $202 0 $51 $-1 #
coedge $-1 $203 $196 $93 $147 1 $204 $-1 #
edge $205 $206 $207 $146 $208 0 #
loop_type-twe-attrib $-1 $-1 $-1 $96 1 #
loop $209 $210 $211 $17 #
coedge $-1 $150 $150 $212 $213 0 $96 $-1 #
loop $214 $-1 $97 $215 #
edge_name-twe-attrib $-1 $-1 $-1 $98 46 8704 #
vertex $-1 $98 $216 #
ellipse-curve $217 86.5 -74 20 0 1 0 -6.5 0 0 1 #
coedge $-1 $195 $194 $99 $156 0 $90 $-1 #
edge $218 $164 $158 $155 $219 0 #
edge_name-twe-attrib $-1 $-1 $-1 $101 6 8704 #
vertex $-1 $199 $220 #
straight-curve $221 120 -74 40 0 -1 0 #
point $-1 120 -74 40 #
cur-twe-attrib $-1 $-1 $-1 $104 59 #
coedge $-1 $222 $105 $194 $223 0 $117 $-1 #
edge_name-twe-attrib $-1 $-1 $-1 $106 15 8704 #
vertex $-1 $223 $224 #
straight-curve $225 80 -39 40 0 -1 0 #
point $-1 80 0 40 #
cur-twe-attrib $-1 $-1 $-1 $109 62 #
coedge $-1 $193 $113 $116 $173 1 $140 $-1 #
coedge $-1 $113 $193 $126 $183 0 $140 $-1 #
edge_name-twe-attrib $-1 $-1 $-1 $114 12 8704 #
straight-curve $226 120 -39 0 1 0 0 #
coedge $-1 $116 $227 $228 $229 1 $117 $-1 #
edge $230 $231 $119 $116 $232 0 #
loop_type-twe-attrib $-1 $-1 $-1 $117 0 #
point $-1 80 -39 0 #
cur-twe-attrib $-1 $-1 $-1 $120 69 #
edge_name-twe-attrib $-1 $-1 $-1 $121 20 8704 #
straight-curve $233 80 0 0 0 0 -1 #
face_name-twe-attrib $-1 $-1 $-1 $123 9 #
face $234 $235 $204 $3 $-1 $236 1 #
plane-surface $237 80 0 0 0 1 0 0 0 1 0 #
coedge $-1 $238 $126 $239 $240 1 $51 $-1 #
edge $241 $242 $129 $169 $243 0 #
point $-1 120 -39 0 #
cur-twe-attrib $-1 $-1 $-1 $130 77 #
edge_name-twe-attrib $-1 $-1 $-1 $131 7 8704 #
straight-curve $244 120 -74 0 0 0 -1 #
cur-twe-attrib $-1 $-1 $-1 $135 83 #
cur-twe-attrib $-1 $-1 $-1 $137 84 #
face_name-twe-attrib $-1 $-1 $-1 $139 8 #
plane-surface $245 80 -39 0 1 0 0 0 0 -1 0 #
loop_type-twe-attrib $-1 $-1 $-1 $140 0 #
coedge $-1 $169 $168 $246 $247 0 $140 $-1 #
coedge $-1 $155 $142 $162 $223 1 $90 $-1 #
coedge $-1 $142 $155 $144 $199 0 $90 $-1 #
coedge $-1 $146 $248 $142 $197 0 $204 $-1 #
edge $249 $250 $207 $196 $251 0 #
surf-twe-attrib $-1 $-1 $143 $91 50 #
edge $252 $158 $207 $195 $253 0 #
coedge $-1 $145 $254 $255 $256 0 $51 $-1 #
coedge $-1 $257 $258 $145 $202 1 $259 $-1 #
edge $260 $261 $206 $201 $262 0 #
coedge $-1 $248 $146 $258 $263 0 $204 $-1 #
loop $264 $-1 $146 $180 #
edge_name-twe-attrib $-1 $-1 $-1 $147 21 8704 #
vertex $-1 $263 $265 #
vertex $-1 $199 $266 #
straight-curve $267 120 -39 26 0 1 0 #
loop_type-twe-attrib $-1 $-1 $-1 $149 1 #
loop $268 $-1 $269 $17 #
coedge $-1 $211 $211 $270 $271 1 $149 $-1 #
coedge $-1 $212 $212 $150 $213 1 $272 $-1 #
edge $273 $274 $274 $212 $275 0 #
loop_type-twe-attrib $-1 $-1 $-1 $151 1 #
face $276 $277 $278 $3 $-1 $279 1 #
point $-1 93 -74 20 #
cur-twe-attrib $-1 $-1 $-1 $154 98 #
edge_name-twe-attrib $-1 $-1 $-1 $156 9 8704 #
straight-curve $280 120 -39 40 1 0 0 #
point $-1 120 -39 40 #
cur-twe-attrib $-1 $-1 $-1 $159 101 #
coedge $-1 $281 $162 $248 $282 1 $117 $-1 #
edge $283 $164 $250 $162 $284 0 #
point $-1 80 -39 40 #
cur-twe-attrib $-1 $-1 $-1 $165 106 #
cur-twe-attrib $-1 $-1 $-1 $171 114 #
coedge $-1 $172 $285 $286 $287 1 $117 $-1 #
coedge $-1 $288 $246 $172 $229 0 $289 $-1 #
edge $290 $231 $291 $228 $292 0 #
edge_name-twe-attrib $-1 $-1 $-1 $173 13 4608 #
vertex $-1 $229 $293 #
straight-curve $294 80 -39 0 0 0 -1 #
cur-twe-attrib $-1 $-1 $-1 $178 121 #
face_name-twe-attrib $-1 $-1 $-1 $180 10 #
face $295 $296 $259 $3 $-1 $297 1 #
plane-surface $298 80 -39 26 0 0 1 1 0 0 0 #
surf-twe-attrib $-1 $-1 $-1 $181 123 #
coedge $-1 $299 $182 $300 $301 0 $51 $-1 #
coedge $-1 $246 $288 $182 $240 0 $289 $-1 #
edge $302 $303 $242 $239 $304 0 #
edge_name-twe-attrib $-1 $-1 $-1 $183 11 8704 #
vertex $-1 $183 $305 #
straight-curve $306 120 -39 0 0 0 -1 #
cur-twe-attrib $-1 $-1 $-1 $187 131 #
surf-twe-attrib $-1 $-1 $-1 $191 139 #
coedge $-1 $228 $239 $193 $247 1 $289 $-1 #
edge $307 $231 $242 $246 $308 0 #
coedge $-1 $196 $203 $222 $282 0 $204 $-1 #
edge_name-twe-attrib $-1 $-1 $-1 $197 23 8704 #
vertex $-1 $223 $309 #
straight-curve $310 120 -39 26 1 0 0 #
edge_name-twe-attrib $-1 $-1 $-1 $199 10 8704 #
straight-curve $311 120 -39 26 0 0 -1 #
coedge $-1 $200 $299 $312 $313 0 $51 $-1 #
coedge $-1 $314 $315 $200 $256 1 $316 $-1 #
edge $317 $318 $261 $255 $319 0 #
coedge $-1 $320 $201 $315 $321 0 $259 $-1 #
coedge $-1 $201 $320 $203 $263 1 $259 $-1 #
loop $322 $-1 $201 $235 #
edge_name-twe-attrib $-1 $-1 $-1 $202 24 8704 #
vertex $-1 $321 $323 #
straight-curve $324 120 -49 26 0 0 -1 #
edge $325 $206 $326 $258 $327 0 #
loop_type-twe-attrib $-1 $-1 $-1 $204 0 #
point $-1 120 -49 26 #
point $-1 120 -39 26 #
cur-twe-attrib $-1 $-1 $-1 $208 147 #
loop_type-twe-attrib $-1 $-1 $-1 $210 1 #
coedge $-1 $269 $269 $328 $329 1 $210 $-1 #
coedge $-1 $270 $270 $211 $271 0 $330 $-1 #
edge $331 $332 $332 $270 $333 0 #
loop $334 $-1 $212 $335 #
edge_name-twe-attrib $-1 $-1 $-1 $213 44 8704 #
vertex $-1 $213 $336 #
ellipse-curve $337 110 -74 20 0 1 0 -6.5 0 0 1 #
face_name-twe-attrib $-1 $-1 $-1 $215 18 #
face $338 $339 $340 $3 $-1 $341 1 #
loop $342 $151 $343 $215 #
cone-surface $344 86.5 -57 20 0 -1 0 6.5 0 0 1 0 1 0 #
cur-twe-attrib $-1 $-1 $-1 $219 156 #
coedge $-1 $345 $222 $320 $346 1 $117 $-1 #
edge $347 $326 $250 $248 $348 0 #
edge_name-twe-attrib $-1 $-1 $-1 $223 16 4608 #
straight-curve $349 80 -39 26 0 0 -1 #
coedge $-1 $227 $350 $351 $352 1 $117 $-1 #
coedge $-1 $353 $354 $227 $287 0 $355 $-1 #
edge $356 $291 $357 $286 $358 0 #
coedge $-1 $239 $228 $354 $359 1 $289 $-1 #
loop $360 $-1 $239 $361 #
edge_name-twe-attrib $-1 $-1 $-1 $229 41 4608 #
vertex $-1 $359 $362 #
straight-curve $363 80 -49 14 0 -1 0 #
point $-1 80 -39 14 #
cur-twe-attrib $-1 $364 $-1 $232 223 #
face_name-twe-attrib $-1 $-1 $-1 $235 11 #
face $365 $366 $316 $3 $-1 $367 1 #
plane-surface $368 80 -49 26 0 1 0 0 0 1 0 #
surf-twe-attrib $-1 $-1 $-1 $236 180 #
coedge $-1 $254 $238 $369 $370 0 $51 $-1 #
coedge $-1 $354 $353 $238 $301 1 $355 $-1 #
edge $371 $303 $372 $300 $373 0 #
edge_name-twe-attrib $-1 $-1 $-1 $240 39 8704 #
vertex $-1 $359 $374 #
straight-curve $375 120 -39 14 0 1 0 #
point $-1 120 -39 14 #
cur-twe-attrib $-1 $376 $-1 $243 183 #
edge_name-twe-attrib $-1 $-1 $-1 $247 40 8704 #
straight-curve $377 120 -39 14 1 0 0 #
point $-1 80 -39 26 #
cur-twe-attrib $-1 $-1 $-1 $251 197 #
cur-twe-attrib $-1 $378 $-1 $253 183 #
coedge $-1 $379 $380 $254 $313 1 $381 $-1 #
edge $382 $383 $318 $312 $384 0 #
coedge $-1 $385 $255 $380 $386 0 $316 $-1 #
coedge $-1 $255 $385 $257 $321 1 $316 $-1 #
loop $387 $-1 $255 $296 #
edge_name-twe-attrib $-1 $-1 $-1 $256 27 8704 #
vertex $-1 $386 $388 #
straight-curve $389 120 -49 30 0 1 0 #
coedge $-1 $258 $257 $281 $346 0 $259 $-1 #
edge $390 $261 $391 $315 $392 0 #
loop_type-twe-attrib $-1 $-1 $-1 $259 0 #
point $-1 120 -49 30 #
cur-twe-attrib $-1 $393 $-1 $262 301 #
edge_name-twe-attrib $-1 $-1 $-1 $263 26 8704 #
vertex $-1 $263 $394 #
straight-curve $395 80 -49 26 -1 0 0 #
coedge $-1 $328 $328 $269 $329 0 $396 $-1 #
edge $397 $398 $398 $328 $399 0 #
loop $400 $401 $270 $339 #
edge_name-twe-attrib $-1 $-1 $-1 $271 47 8704 #
vertex $-1 $271 $402 #
ellipse-curve $403 30 -74 20 0 -1 0 -6.5 0 0 1 #
loop_type-twe-attrib $-1 $-1 $-1 $272 1 #
face $404 $215 $405 $3 $-1 $406 1 #
point $-1 116.5 -74 20 #
cur-twe-attrib $-1 $-1 $-1 $275 213 #
face_name-twe-attrib $-1 $-1 $-1 $277 19 #
face $407 $408 $330 $3 $-1 $409 1 #
loop $410 $-1 $411 $277 #
plane-surface $412 30 -57 20 0 1 0 0 0 1 0 #
loop_type-twe-attrib $-1 $-1 $-1 $278 0 #
coedge $-1 $343 $343 $413 $414 0 $278 $-1 #
surf-twe-attrib $-1 $-1 $-1 $279 215 #
coedge $-1 $350 $281 $385 $415 1 $117 $-1 #
edge $416 $391 $326 $320 $417 0 #
edge_name-twe-attrib $-1 $-1 $-1 $282 22 4608 #
straight-curve $418 80 -39 26 0 1 0 #
cur-twe-attrib $-1 $419 $-1 $284 223 #
coedge $-1 $285 $345 $420 $421 1 $117 $-1 #
coedge $-1 $422 $423 $285 $352 0 $424 $-1 #
edge $425 $357 $426 $351 $427 0 #
coedge $-1 $300 $286 $423 $428 1 $355 $-1 #
coedge $-1 $286 $300 $288 $359 0 $355 $-1 #
loop $429 $-1 $300 $430 #
edge_name-twe-attrib $-1 $-1 $-1 $287 37 4608 #
vertex $-1 $428 $431 #
straight-curve $432 80 -49 10 0 0 -1 #
edge $433 $303 $291 $288 $434 0 #
loop_type-twe-attrib $-1 $-1 $-1 $289 0 #
face $435 $335 $289 $3 $-1 $436 1 #
point $-1 80 -49 14 #
cur-twe-attrib $-1 $-1 $-1 $292 229 #
cur-twe-attrib $-1 $-1 $294 $232 173 #
face_name-twe-attrib $-1 $-1 $-1 $296 12 #
face $437 $438 $439 $3 $-1 $440 1 #
plane-surface $441 80 -49 30 0 0 1 1 0 0 0 #
surf-twe-attrib $-1 $442 $-1 $297 430 #
coedge $-1 $423 $422 $299 $370 1 $424 $-1 #
edge $443 $372 $383 $369 $444 0 #
edge_name-twe-attrib $-1 $-1 $-1 $301 36 8704 #
vertex $-1 $428 $445 #
straight-curve $446 120 -49 10 0 0 -1 #
point $-1 120 -49 14 #
cur-twe-attrib $-1 $-1 $-1 $304 240 #
cur-twe-attrib $-1 $-1 $306 $243 199 #
cur-twe-attrib $-1 $-1 $-1 $308 247 #
cur-twe-attrib $-1 $-1 $311 $253 199 #
coedge $-1 $420 $312 $422 $447 0 $381 $-1 #
coedge $-1 $312 $420 $314 $386 1 $381 $-1 #
loop $448 $449 $312 $366 #
edge_name-twe-attrib $-1 $-1 $-1 $313 30 8704 #
vertex $-1 $447 $450 #
straight-curve $451 120 -57 30 0 0 1 #
coedge $-1 $315 $314 $345 $415 0 $316 $-1 #
edge $452 $318 $453 $380 $454 0 #
loop_type-twe-attrib $-1 $-1 $-1 $316 0 #
point $-1 120 -57 30 #
cur-twe-attrib $-1 $-1 $-1 $319 256 #
edge_name-twe-attrib $-1 $-1 $-1 $321 29 4608 #
vertex $-1 $321 $455 #
straight-curve $456 80 -49 30 -1 0 0 #
cur-twe-attrib $-1 $-1 $324 $262 202 #
point $-1 80 -49 26 #
cur-twe-attrib $-1 $-1 $-1 $327 263 #
loop $457 $458 $328 $459 #
edge_name-twe-attrib $-1 $-1 $-1 $329 49 8704 #
vertex $-1 $329 $460 #
ellipse-curve $461 53.5 -74 20 0 -1 0 -6.5 0 0 1 #
loop_type-twe-attrib $-1 $-1 $-1 $330 0 #
loop $462 $-1 $463 $339 #
point $-1 23.5 -74 20 #
cur-twe-attrib $-1 $-1 $-1 $333 271 #
face_name-twe-attrib $-1 $-1 $-1 $335 17 #
loop $464 $272 $465 $335 #
cone-surface $466 110 -57 20 0 -1 0 6.5 0 0 1 0 1 0 #
face_name-twe-attrib $-1 $-1 $-1 $339 20 #
face $467 $459 $468 $3 $-1 $469 1 #
cone-surface $470 30 -74 20 0 1 0 -6.5 0 0 1 0 1 0 #
loop_type-twe-attrib $-1 $-1 $-1 $340 0 #
coedge $-1 $411 $411 $463 $471 0 $340 $-1 #
surf-twe-attrib $-1 $472 $-1 $341 408 #
coedge $-1 $413 $413 $343 $414 1 $439 $-1 #
edge $473 $474 $474 $343 $475 0 #
edge $476 $453 $391 $385 $477 0 #
edge_name-twe-attrib $-1 $-1 $-1 $346 25 4608 #
straight-curve $478 80 -49 26 0 0 -1 #
cur-twe-attrib $-1 $-1 $-1 $348 282 #
cur-twe-attrib $-1 $-1 $349 $284 173 #
coedge $-1 $380 $379 $350 $421 0 $381 $-1 #
edge $479 $426 $453 $420 $480 0 #
coedge $-1 $369 $351 $379 $447 1 $424 $-1 #
coedge $-1 $351 $369 $353 $428 0 $424 $-1 #
loop $481 $-1 $369 $438 #
edge_name-twe-attrib $-1 $-1 $-1 $352 34 4608 #
vertex $-1 $447 $482 #
straight-curve $483 80 -57 10 0 -1 0 #
edge $484 $372 $357 $353 $485 0 #
loop_type-twe-attrib $-1 $-1 $-1 $355 0 #
face $486 $361 $355 $3 $-1 $487 1 #
point $-1 80 -49 10 #
cur-twe-attrib $-1 $488 $-1 $358 287 #
edge_name-twe-attrib $-1 $-1 $-1 $359 42 8704 #
straight-curve $489 80 -49 14 -1 0 0 #
face_name-twe-attrib $-1 $-1 $-1 $361 16 #
plane-surface $490 80 -49 14 0 0 -1 -1 0 0 0 #
face_name-twe-attrib $-1 $-1 $-1 $366 13 #
face $491 $430 $424 $3 $-1 $492 1 #
loop $493 $381 $413 $366 #
plane-surface $494 80 -57 30 0 -1 0 0 0 -1 0 #
surf-twe-attrib $-1 $-1 $-1 $367 296 #
surf-twe-attrib $-1 $-1 $368 $297 235 #
edge_name-twe-attrib $-1 $-1 $-1 $370 33 8704 #
straight-curve $495 120 -57 10 0 -1 0 #
point $-1 120 -49 10 #
cur-twe-attrib $-1 $496 $-1 $373 301 #
edge $497 $383 $426 $422 $498 0 #
loop_type-twe-attrib $-1 $-1 $-1 $381 0 #
loop $499 $-1 $500 $366 #
point $-1 120 -57 10 #
cur-twe-attrib $-1 $-1 $-1 $384 313 #
edge_name-twe-attrib $-1 $-1 $-1 $386 32 4608 #
vertex $-1 $386 $501 #
straight-curve $502 80 -57 30 -1 0 0 #
point $-1 80 -49 30 #
cur-twe-attrib $-1 $-1 $-1 $392 321 #
loop_type-twe-attrib $-1 $-1 $-1 $396 0 #
loop $503 $-1 $504 $459 #
face $505 $-1 $396 $3 $-1 $506 1 #
point $-1 47 -74 20 #
cur-twe-attrib $-1 $-1 $-1 $399 329 #
loop_type-twe-attrib $-1 $-1 $-1 $401 1 #
coedge $-1 $463 $463 $411 $471 1 $401 $-1 #
loop_type-twe-attrib $-1 $-1 $-1 $405 0 #
coedge $-1 $465 $465 $500 $507 0 $405 $-1 #
surf-twe-attrib $-1 $-1 $-1 $406 335 #
face_name-twe-attrib $-1 $-1 $-1 $408 21 #
loop $508 $-1 $509 $408 #
plane-surface $510 53.5 -57 20 0 1 0 0 0 1 0 #
surf-twe-attrib $-1 $-1 $-1 $409 339 #
edge $511 $512 $512 $463 $513 0 #
surf-twe-attrib $-1 $514 $412 $341 277 #
edge_name-twe-attrib $-1 $-1 $-1 $414 45 8704 #
vertex $-1 $414 $515 #
ellipse-curve $516 86.5 -57 20 0 1 0 6.5 0 0 1 #
edge_name-twe-attrib $-1 $-1 $-1 $415 28 4608 #
straight-curve $517 80 -49 30 0 1 0 #
cur-twe-attrib $-1 $518 $-1 $417 287 #
edge_name-twe-attrib $-1 $-1 $-1 $421 31 4608 #
straight-curve $519 80 -57 30 0 0 1 #
loop_type-twe-attrib $-1 $-1 $-1 $424 0 #
point $-1 80 -57 10 #
cur-twe-attrib $-1 $-1 $-1 $427 352 #
edge_name-twe-attrib $-1 $-1 $-1 $428 38 4608 #
straight-curve $520 80 -49 10 -1 0 0 #
face_name-twe-attrib $-1 $-1 $-1 $430 15 #
plane-surface $521 80 -49 10 0 1 0 0 0 1 0 #
cur-twe-attrib $-1 $-1 $432 $358 346 #
cur-twe-attrib $-1 $-1 $-1 $434 359 #
surf-twe-attrib $-1 $-1 $-1 $436 361 #
face_name-twe-attrib $-1 $-1 $-1 $438 14 #
plane-surface $522 80 -57 10 0 0 -1 -1 0 0 0 #
loop_type-twe-attrib $-1 $-1 $-1 $439 1 #
surf-twe-attrib $-1 $523 $-1 $440 408 #
cur-twe-attrib $-1 $-1 $-1 $444 370 #
cur-twe-attrib $-1 $-1 $446 $373 202 #
edge_name-twe-attrib $-1 $-1 $-1 $447 35 4608 #
straight-curve $524 80 -57 10 -1 0 0 #
loop_type-twe-attrib $-1 $-1 $-1 $449 1 #
coedge $-1 $500 $500 $465 $507 1 $449 $-1 #
point $-1 80 -57 30 #
cur-twe-attrib $-1 $-1 $-1 $454 386 #
loop_type-twe-attrib $-1 $-1 $-1 $458 1 #
coedge $-1 $504 $504 $509 $525 1 $458 $-1 #
face_name-twe-attrib $-1 $-1 $-1 $459 22 #
cone-surface $526 53.5 -74 20 0 1 0 -6.5 0 0 1 0 1 0 #
edge $527 $528 $528 $465 $529 0 #
loop_type-twe-attrib $-1 $-1 $-1 $468 0 #
coedge $-1 $509 $509 $504 $525 0 $468 $-1 #
surf-twe-attrib $-1 $530 $-1 $469 408 #
edge_name-twe-attrib $-1 $-1 $-1 $471 48 4608 #
vertex $-1 $471 $531 #
ellipse-curve $532 30 -57 20 0 -1 0 6.5 0 0 1 #
surf-twe-attrib $-1 $-1 $472 $341 366 #
point $-1 93 -57 20 #
cur-twe-attrib $-1 $-1 $-1 $475 414 #
cur-twe-attrib $-1 $-1 $-1 $477 415 #
cur-twe-attrib $-1 $-1 $478 $417 346 #
cur-twe-attrib $-1 $-1 $-1 $480 421 #
cur-twe-attrib $-1 $-1 $-1 $485 428 #
surf-twe-attrib $-1 $533 $-1 $487 430 #
surf-twe-attrib $-1 $-1 $-1 $492 438 #
surf-twe-attrib $-1 $534 $494 $440 277 #
cur-twe-attrib $-1 $-1 $-1 $498 447 #
edge $535 $536 $536 $504 $537 0 #
surf-twe-attrib $-1 $-1 $-1 $506 459 #
edge_name-twe-attrib $-1 $-1 $-1 $507 43 8704 #
vertex $-1 $507 $538 #
ellipse-curve $539 110 -57 20 0 1 0 6.5 0 0 1 #
surf-twe-attrib $-1 $540 $510 $469 277 #
point $-1 23.5 -57 20 #
cur-twe-attrib $-1 $-1 $-1 $513 471 #
surf-twe-attrib $-1 $-1 $521 $487 235 #
surf-twe-attrib $-1 $-1 $523 $440 366 #
edge_name-twe-attrib $-1 $-1 $-1 $525 50 4608 #
vertex $-1 $525 $541 #
ellipse-curve $542 53.5 -57 20 0 -1 0 6.5 0 0 1 #
point $-1 116.5 -57 20 #
cur-twe-attrib $-1 $-1 $-1 $529 507 #
surf-twe-attrib $-1 $-1 $530 $469 366 #
point $-1 47 -57 20 #
cur-twe-attrib $-1 $-1 $-1 $537 525 #
