600 0 2 0           
24 FBMach with ACIS - 6.0.3 13 ACIS 6.0.3 NT 24 Wed May 23 21:58:41 2001 
1 9.9999999999999995e-007 1e-010 
body $2 $3 $-1 $4 #
bdycol-kcp $-1 1 9 $5 $6 $7 $8 $9 $10 $11 $12 $13 #
model_id-kcp-attrib $-1 $-1 $-1 $0 1 990669521 70 -1757020159 1 #
lump $-1 $-1 $14 $0 #
transform $-1 1 0 0 0 1 0 0 0 1 0 0 0 1 no_rotate no_reflect no_shear #
body $15 $16 $-1 $17 #
body $18 $19 $-1 $20 #
body $21 $22 $-1 $23 #
body $24 $25 $-1 $26 #
body $27 $28 $-1 $29 #
body $30 $31 $-1 $32 #
body $33 $34 $-1 $35 #
body $36 $37 $-1 $38 #
body $39 $40 $-1 $41 #
shell $-1 $-1 $-1 $42 $-1 $3 #
model_id-kcp-attrib $-1 $-1 $-1 $5 1 990669521 80 -1756364798 1 #
lump $-1 $-1 $43 $5 #
transform $-1 1 0 0 0 1 0 0 0 1 0 0.5 0 1 no_rotate no_reflect no_shear #
rgb_color-st-attrib $-1 $44 $-1 $6 1 1 0.5 #
lump $-1 $-1 $45 $6 #
transform $-1 1 0 0 0 0 1 0 -1 0 1 0.44897698855549473 0 1 rotate no_reflect no_shear #
rgb_color-st-attrib $-1 $46 $-1 $7 1 1 0.5 #
lump $-1 $-1 $47 $7 #
transform $-1 1 0 0 0 0 1 0 -1 0 -1 0.44897698855549428 0 1 rotate no_reflect no_shear #
rgb_color-st-attrib $-1 $48 $-1 $8 0.5 1 1 #
lump $-1 $-1 $49 $8 #
transform $-1 1 0 0 0 -3.8285889215894375e-016 1 0 -1 -3.8285889215894375e-016 1 0.84400000000000008 -7.8868931784742364e-017 1 rotate no_reflect no_shear #
rgb_color-st-attrib $-1 $50 $-1 $9 0.5 1 1 #
lump $-1 $-1 $51 $9 #
transform $-1 1 0 0 0 -3.8285889215894375e-016 1 0 -1 -3.8285889215894375e-016 1 0.34399999999999997 -2.7029837786421429e-016 1 rotate no_reflect no_shear #
rgb_color-st-attrib $-1 $52 $-1 $10 0.5 1 1 #
lump $-1 $-1 $53 $10 #
transform $-1 1 0 0 0 -3.8285889215894375e-016 -1 0 1 -3.8285889215894375e-016 -1 0.84400000000000008 7.8868931784742364e-017 1 rotate no_reflect no_shear #
rgb_color-st-attrib $-1 $54 $-1 $11 0.5 1 1 #
lump $-1 $-1 $55 $11 #
transform $-1 1 0 0 0 -3.8285889215894375e-016 -1 0 1 -3.8285889215894375e-016 -1 0.34399999999999997 2.7029837786421429e-016 1 rotate no_reflect no_shear #
rgb_color-st-attrib $-1 $56 $-1 $12 0.5 1 1 #
lump $-1 $-1 $57 $12 #
transform $-1 1 0 0 0 -3.8285889215894375e-016 1 0 -1 -3.8285889215894375e-016 0 0.66749999999999987 -1.4548637902039872e-016 1 rotate no_reflect no_shear #
rgb_color-st-attrib $-1 $58 $-1 $13 0.5 1 1 #
lump $-1 $-1 $59 $13 #
transform $-1 1 0 0 0 -3.8285889215894375e-016 1 0 -1 -3.8285889215894375e-016 0 0.2600968196406005 -3.0146430931482873e-016 1 rotate no_reflect no_shear #
face $60 $61 $62 $14 $-1 $63 reversed single #
shell $-1 $-1 $-1 $64 $-1 $16 #
model_id-kcp-attrib $-1 $-1 $18 $6 1 990669521 100 -1755054077 1 #
shell $-1 $-1 $-1 $65 $-1 $19 #
model_id-kcp-attrib $-1 $-1 $21 $7 1 990669521 100 -1755054076 1 #
shell $-1 $-1 $-1 $66 $-1 $22 #
model_id-kcp-attrib $-1 $-1 $24 $8 1 990669521 240 -1745879035 1 #
shell $-1 $-1 $-1 $67 $-1 $25 #
model_id-kcp-attrib $-1 $-1 $27 $9 1 990669521 240 -1745879034 1 #
shell $-1 $-1 $-1 $68 $-1 $28 #
model_id-kcp-attrib $-1 $-1 $30 $10 1 990669521 250 -1745223673 1 #
shell $-1 $-1 $-1 $69 $-1 $31 #
model_id-kcp-attrib $-1 $-1 $33 $11 1 990669521 250 -1745223672 1 #
shell $-1 $-1 $-1 $70 $-1 $34 #
model_id-kcp-attrib $-1 $-1 $36 $12 1 990669521 250 -1745223671 1 #
shell $-1 $-1 $-1 $71 $-1 $37 #
model_id-kcp-attrib $-1 $-1 $39 $13 1 990669521 250 -1745223670 1 #
shell $-1 $-1 $-1 $72 $-1 $40 #
model_id-kcp-attrib $-1 $73 $-1 $42 1 990669521 70 -1757020159 30 #
face $74 $75 $76 $14 $-1 $77 forward single #
loop $78 $79 $80 $42 #
plane-surface $81 0 0 0 0 1 0 0 0 1 forward_v I I I I #
face $82 $83 $84 $43 $-1 $85 forward single #
face $-1 $86 $87 $45 $-1 $88 reversed single #
face $-1 $89 $90 $47 $-1 $91 reversed single #
face $-1 $92 $93 $49 $-1 $94 forward single #
face $-1 $95 $96 $51 $-1 $97 forward single #
face $-1 $98 $99 $53 $-1 $100 forward single #
face $-1 $101 $102 $55 $-1 $103 forward single #
face $-1 $104 $105 $57 $-1 $106 forward single #
face $-1 $107 $108 $59 $-1 $109 forward single #
model_id-kcp-attrib $-1 $110 $60 $42 1 990669521 70 -1757020159 21 #
model_id-kcp-attrib $-1 $111 $-1 $61 1 990669521 70 -1757020159 20 #
face $112 $113 $114 $14 $-1 $115 forward single #
loop $116 $117 $118 $61 #
plane-surface $119 0 1 0 0 1 0 0 0 1 forward_v I I I I #
loop_type-twe-attrib $-1 $-1 $-1 $62 0 #
loop $120 $121 $122 $42 #
coedge $-1 $123 $124 $125 $126 forward $62 $-1 #
surf-twe-attrib $-1 $-1 $-1 $63 4 #
model_id-kcp-attrib $-1 $-1 $-1 $64 1 990669521 80 -1756364798 7 #
face $127 $128 $129 $43 $-1 $130 reversed single #
loop $-1 $-1 $131 $64 #
plane-surface $-1 0 0 1 0 0 1 1 0 0 forward_v I I I I #
face $-1 $132 $133 $45 $-1 $134 forward single #
loop $-1 $135 $136 $65 #
cone-surface $-1 0 0 0 0 0 1 0.25 0 0 1 I I 0 1 0.25 forward I I I I #
face $-1 $137 $138 $47 $-1 $139 forward single #
loop $-1 $140 $141 $66 #
cone-surface $-1 0 0 0 0 0 1 0.25 0 0 1 I I 0 1 0.25 forward I I I I #
face $-1 $142 $143 $49 $-1 $144 forward single #
loop $-1 $145 $146 $67 #
cone-surface $-1 0 0 0 0 0 1 0.40625 0 0 1 I I 0 1 0.40625 forward I I I I #
face $-1 $147 $148 $51 $-1 $149 forward single #
loop $-1 $150 $151 $68 #
cone-surface $-1 0 0 0 0 0 1 0.25 0 0 1 I I 0 1 0.25 forward I I I I #
face $-1 $152 $153 $53 $-1 $154 forward single #
loop $-1 $155 $156 $69 #
cone-surface $-1 0 0 0 0 0 1 0.40625 0 0 1 I I 0 1 0.40625 forward I I I I #
face $-1 $157 $158 $55 $-1 $159 forward single #
loop $-1 $160 $161 $70 #
cone-surface $-1 0 0 0 0 0 1 0.25 0 0 1 I I 0 1 0.25 forward I I I I #
face $-1 $162 $163 $57 $-1 $164 forward single #
loop $-1 $165 $166 $71 #
cone-surface $-1 0 0 0 0 0 1 0.25 0 0 1 I I 0 1 0.25 forward I I I I #
face $-1 $167 $168 $59 $-1 $169 forward single #
loop $-1 $170 $171 $72 #
cone-surface $-1 0 3.5602170144747822e-016 0.14250000000000007 0 3.8285889215894375e-016 1 0.1125 0 0 1 I I -0.85716730070211233 0.51503807491005416 0.1125 forward I I I I #
model_id-kcp-attrib $-1 $172 $73 $42 1 990669521 70 -1757020159 2 #
model_id-kcp-attrib $-1 $173 $74 $61 1 990669521 70 -1757020159 3 #
model_id-kcp-attrib $-1 $174 $-1 $75 1 990669521 70 -1757020159 4 #
face $175 $176 $177 $14 $-1 $178 forward single #
loop $179 $-1 $125 $75 #
plane-surface $180 2 0 1 1 0 0 0 0 -1 forward_v I I I I #
loop_type-twe-attrib $-1 $-1 $-1 $76 0 #
loop $181 $182 $183 $61 #
coedge $-1 $184 $185 $186 $187 reversed $76 $-1 #
surf-twe-attrib $-1 $-1 $-1 $77 6 #
model_id-kcp-attrib $-1 $188 $-1 $79 1 990669521 70 -1757020159 26 #
loop $189 $-1 $190 $42 #
coedge $-1 $122 $122 $191 $192 forward $79 $-1 #
coedge $-1 $193 $80 $194 $195 forward $62 $-1 #
coedge $-1 $80 $193 $196 $197 forward $62 $-1 #
coedge $-1 $198 $199 $80 $126 reversed $114 $-1 #
edge $200 $201 -2 $202 0 $125 $203 forward 7 unknown #
model_id-kcp-attrib $-1 $-1 $-1 $83 1 990669521 80 -1756364798 5 #
face $204 $205 $206 $43 $-1 $207 reversed single #
loop $-1 $-1 $208 $83 #
plane-surface $-1 0 0 -1 0 0 1 1 0 0 forward_v I I I I #
coedge $-1 $209 $210 $211 $212 forward $84 $-1 #
face $-1 $-1 $213 $45 $-1 $214 forward single #
loop $-1 $215 $216 $86 #
cone-surface $-1 0 0 0 0 0 1 0.13800000000000001 0 0 1 I I -0.49999999999999978 0.86602540378443871 0.13800000000000001 forward I I I I #
loop $-1 $-1 $217 $65 #
coedge $-1 $136 $136 $216 $218 reversed $87 $-1 #
face $-1 $-1 $219 $47 $-1 $220 forward single #
loop $-1 $221 $222 $89 #
cone-surface $-1 0 0 0 0 0 1 0.13800000000000001 0 0 1 I I -0.49999999999999911 0.86602540378443926 0.13800000000000001 forward I I I I #
loop $-1 $-1 $223 $66 #
coedge $-1 $141 $141 $222 $224 reversed $90 $-1 #
face $-1 $-1 $225 $49 $-1 $226 forward single #
loop $-1 $-1 $227 $92 #
plane-surface $-1 0 0 -0.15600000000000019 0 0 -1 -1 0 0 forward_v I I I I #
loop $-1 $-1 $228 $67 #
coedge $-1 $146 $146 $227 $229 reversed $93 $-1 #
face $-1 $-1 $230 $51 $-1 $231 forward single #
loop $-1 $-1 $232 $95 #
plane-surface $-1 0 0 -0.34400000000000008 0 0 -1 -1 0 0 forward_v I I I I #
loop $-1 $-1 $233 $68 #
coedge $-1 $151 $151 $232 $234 reversed $96 $-1 #
face $-1 $-1 $235 $53 $-1 $236 forward single #
loop $-1 $-1 $237 $98 #
plane-surface $-1 0 0 -0.15600000000000019 0 0 -1 -1 0 0 forward_v I I I I #
loop $-1 $-1 $238 $69 #
coedge $-1 $156 $156 $237 $239 reversed $99 $-1 #
face $-1 $-1 $240 $55 $-1 $241 forward single #
loop $-1 $-1 $242 $101 #
plane-surface $-1 0 0 -0.34400000000000008 0 0 -1 -1 0 0 forward_v I I I I #
loop $-1 $-1 $243 $70 #
coedge $-1 $161 $161 $242 $244 reversed $102 $-1 #
face $-1 $-1 $245 $57 $-1 $246 forward single #
loop $-1 $-1 $247 $104 #
plane-surface $-1 0 0 -0.33250000000000013 0 0 -1 -1 0 0 forward_v I I I I #
loop $-1 $-1 $248 $71 #
coedge $-1 $166 $166 $247 $249 reversed $105 $-1 #
face $-1 $-1 $250 $59 $-1 $251 forward single #
loop $-1 $252 $253 $107 #
cone-surface $-1 0 0 0 0 0 1 0.22500000000000001 0 0 1 I I 0 1 0.22500000000000001 forward I I I I #
loop $-1 $-1 $254 $72 #
coedge $-1 $171 $171 $255 $256 forward $108 $-1 #
face_name-twe-attrib $-1 $-1 $110 $42 1 #
face_name-twe-attrib $-1 $-1 $111 $61 2 #
face_name-twe-attrib $-1 $-1 $112 $75 3 #
model_id-kcp-attrib $-1 $257 $-1 $113 1 990669521 70 -1757020159 5 #
face $258 $259 $260 $14 $-1 $261 forward single #
loop $262 $-1 $196 $113 #
plane-surface $263 2 0 -1 0 0 -1 -1 0 0 forward_v I I I I #
loop_type-twe-attrib $-1 $-1 $-1 $114 0 #
surf-twe-attrib $-1 $-1 $-1 $115 10 #
loop_type-twe-attrib $-1 $-1 $-1 $117 1 #
loop $264 $265 $266 $61 #
coedge $-1 $183 $183 $267 $268 reversed $117 $-1 #
coedge $-1 $269 $118 $270 $271 reversed $76 $-1 #
coedge $-1 $118 $269 $272 $273 reversed $76 $-1 #
coedge $-1 $199 $198 $118 $187 forward $114 $-1 #
edge $274 $275 -2 $276 0 $186 $277 forward 7 unknown #
loop_type-twe-attrib $-1 $-1 $120 $79 1 #
model_id-kcp-attrib $-1 $278 $-1 $121 1 990669521 70 -1757020159 35 #
coedge $-1 $190 $190 $279 $280 reversed $121 $-1 #
coedge $-1 $191 $191 $122 $192 reversed $281 $-1 #
edge $282 $283 -3.1415926535897931 $283 3.1415926535897931 $191 $284 forward 7 unknown #
coedge $-1 $124 $123 $285 $286 forward $62 $-1 #
coedge $-1 $287 $288 $123 $195 reversed $289 $-1 #
edge $290 $202 -4 $291 0 $194 $292 forward 7 unknown #
coedge $-1 $293 $294 $124 $197 reversed $177 $-1 #
edge $295 $296 -4 $201 0 $196 $297 forward 7 unknown #
coedge $-1 $186 $125 $294 $298 reversed $114 $-1 #
coedge $-1 $125 $186 $287 $299 forward $114 $-1 #
edge_name-twe-attrib $-1 $-1 $-1 $126 1 8704 #
vertex $-1 $298 $300 #
vertex $-1 $299 $301 #
straight-curve $302 2 0 1 0 0 1 I I #
model_id-kcp-attrib $-1 $-1 $-1 $128 1 990669521 80 -1756364798 2 #
face $303 $304 $305 $43 $-1 $306 reversed single #
loop $-1 $-1 $307 $128 #
plane-surface $-1 0 -0.5 0 0 1 0 0 0 1 forward_v I I I I #
coedge $-1 $308 $309 $310 $311 forward $129 $-1 #
coedge $-1 $312 $131 $313 $314 forward $84 $-1 #
coedge $-1 $131 $312 $315 $316 forward $84 $-1 #
coedge $-1 $317 $318 $131 $212 reversed $319 $-1 #
edge $-1 $320 -0.5 $321 0.5 $211 $322 forward 7 unknown #
loop $-1 $323 $324 $132 #
plane-surface $-1 0 0 -0.23902301144450519 0 0 -1 -1 0 0 forward_v I I I I #
loop $-1 $-1 $325 $86 #
coedge $-1 $216 $216 $136 $218 forward $133 $-1 #
coedge $-1 $217 $217 $324 $326 reversed $135 $-1 #
edge $-1 $327 -3.1415926535897931 $327 3.1415926535897931 $216 $328 forward 7 unknown #
loop $-1 $329 $330 $137 #
plane-surface $-1 0 0 -0.23902301144450569 0 0 -1 -1 0 0 forward_v I I I I #
loop $-1 $-1 $331 $89 #
coedge $-1 $222 $222 $141 $224 forward $138 $-1 #
coedge $-1 $223 $223 $330 $332 reversed $140 $-1 #
edge $-1 $333 -3.1415926535897931 $333 3.1415926535897931 $222 $334 forward 7 unknown #
loop $-1 $-1 $335 $142 #
plane-surface $-1 0 0 0.15600000000000019 0 0 1 1 0 0 forward_v I I I I #
coedge $-1 $227 $227 $146 $229 forward $143 $-1 #
coedge $-1 $228 $228 $335 $336 reversed $145 $-1 #
edge $-1 $337 0 $337 6.2831853071795862 $227 $338 forward 7 unknown #
loop $-1 $-1 $339 $147 #
plane-surface $-1 0 0 0.34400000000000008 0 0 1 1 0 0 forward_v I I I I #
coedge $-1 $232 $232 $151 $234 forward $148 $-1 #
coedge $-1 $233 $233 $339 $340 reversed $150 $-1 #
edge $-1 $341 0 $341 6.2831853071795862 $232 $342 forward 7 unknown #
loop $-1 $-1 $343 $152 #
plane-surface $-1 0 0 0.15600000000000019 0 0 1 1 0 0 forward_v I I I I #
coedge $-1 $237 $237 $156 $239 forward $153 $-1 #
coedge $-1 $238 $238 $343 $344 reversed $155 $-1 #
edge $-1 $345 0 $345 6.2831853071795862 $237 $346 forward 7 unknown #
loop $-1 $-1 $347 $157 #
plane-surface $-1 0 0 0.34400000000000008 0 0 1 1 0 0 forward_v I I I I #
coedge $-1 $242 $242 $161 $244 forward $158 $-1 #
coedge $-1 $243 $243 $347 $348 reversed $160 $-1 #
edge $-1 $349 0 $349 6.2831853071795862 $242 $350 forward 7 unknown #
loop $-1 $-1 $351 $162 #
plane-surface $-1 0 0 0.33250000000000013 0 0 1 1 0 0 forward_v I I I I #
coedge $-1 $247 $247 $166 $249 forward $163 $-1 #
coedge $-1 $248 $248 $351 $352 reversed $165 $-1 #
edge $-1 $353 0 $353 6.2831853071795862 $247 $354 forward 7 unknown #
loop $-1 $-1 $355 $167 #
plane-surface $-1 0 0 -0.074903180359399607 0 0 -1 -1 0 0 forward_v I I I I #
loop $-1 $-1 $255 $107 #
coedge $-1 $253 $253 $355 $356 reversed $168 $-1 #
coedge $-1 $254 $254 $-1 $357 reversed $170 $-1 #
coedge $-1 $255 $255 $171 $256 reversed $252 $-1 #
edge $-1 $358 0 $358 6.2831853071795862 $255 $359 forward 7 unknown #
face_name-twe-attrib $-1 $-1 $175 $113 4 #
model_id-kcp-attrib $-1 $360 $-1 $176 1 990669521 70 -1757020159 6 #
face $361 $362 $289 $14 $-1 $363 forward single #
loop $364 $-1 $285 $176 #
plane-surface $365 -2 0 -1 -1 0 0 0 0 1 forward_v I I I I #
loop_type-twe-attrib $-1 $-1 $-1 $177 0 #
surf-twe-attrib $-1 $-1 $-1 $178 18 #
loop_type-twe-attrib $-1 $-1 $-1 $182 1 #
loop $366 $-1 $367 $61 #
coedge $-1 $266 $266 $368 $369 forward $182 $-1 #
coedge $-1 $267 $267 $183 $268 forward $370 $-1 #
edge $371 $372 0 $372 6.2831853071795862 $267 $373 forward 7 unknown #
coedge $-1 $185 $184 $374 $375 reversed $76 $-1 #
coedge $-1 $294 $293 $184 $271 forward $177 $-1 #
edge $376 $377 -4 $275 0 $270 $378 forward 7 unknown #
coedge $-1 $288 $287 $185 $273 forward $289 $-1 #
edge $379 $276 -4 $380 0 $272 $381 forward 7 unknown #
attrib_edge_convexity-kcp-attrib $-1 $382 $-1 $187 1 #
vertex $-1 $298 $383 #
vertex $-1 $299 $384 #
straight-curve $385 2 1 1 0 0 1 I I #
loop_type-twe-attrib $-1 $-1 $189 $121 1 #
coedge $-1 $279 $279 $190 $280 forward $386 $-1 #
edge $387 $388 0 $388 6.2831853071795862 $279 $389 forward 7 unknown #
loop $390 $-1 $191 $391 #
attrib_edge_convexity-kcp-attrib $-1 $392 $-1 $192 1 #
vertex $393 $192 $394 #
ellipse-curve $395 1 0 0 0 1 0 0.25 0 0 1 I I #
coedge $-1 $396 $397 $193 $286 reversed $260 $-1 #
edge $398 $291 -2 $296 0 $285 $399 forward 7 unknown #
coedge $-1 $272 $194 $199 $299 reversed $289 $-1 #
coedge $-1 $194 $272 $396 $400 forward $289 $-1 #
loop $401 $-1 $194 $259 #
attrib_edge_convexity-kcp-attrib $-1 $402 $-1 $195 1 #
vertex $-1 $400 $403 #
straight-curve $404 -2 0 1 -1 0 0 I I #
coedge $-1 $270 $196 $397 $405 reversed $177 $-1 #
coedge $-1 $196 $270 $198 $298 forward $177 $-1 #
edge_name-twe-attrib $-1 $-1 $-1 $197 3 8704 #
vertex $-1 $405 $406 #
straight-curve $407 2 0 -1 1 0 0 I I #
edge $408 $275 -1 $201 0 $294 $409 forward 7 unknown #
edge $410 $276 -1 $202 0 $287 $411 forward 7 unknown #
point $-1 2 0 -1 #
point $-1 2 0 1 #
cur-twe-attrib $-1 $-1 $-1 $203 31 #
model_id-kcp-attrib $-1 $-1 $-1 $205 1 990669521 80 -1756364798 6 #
face $412 $413 $414 $43 $-1 $415 reversed single #
loop $-1 $-1 $416 $205 #
plane-surface $-1 -2 0 0 1 0 0 0 0 -1 forward_v I I I I #
coedge $-1 $417 $315 $418 $419 forward $206 $-1 #
coedge $-1 $420 $208 $417 $421 forward $129 $-1 #
coedge $-1 $208 $420 $422 $423 forward $129 $-1 #
coedge $-1 $318 $317 $208 $311 reversed $319 $-1 #
edge $-1 $424 -0.5 $425 0.5 $310 $426 forward 7 unknown #
coedge $-1 $210 $209 $427 $428 forward $84 $-1 #
coedge $-1 $429 $430 $209 $314 reversed $414 $-1 #
edge $-1 $321 -2 $431 2 $313 $432 forward 7 unknown #
coedge $-1 $307 $433 $210 $316 reversed $206 $-1 #
edge $-1 $434 -2 $320 2 $315 $435 forward 7 unknown #
coedge $-1 $310 $211 $433 $436 forward $319 $-1 #
coedge $-1 $211 $310 $429 $437 reversed $319 $-1 #
loop $-1 $-1 $317 $413 #
vertex $-1 $212 $438 #
vertex $-1 $212 $439 #
straight-curve $-1 2 0 1 0 1 0 I I #
loop $-1 $-1 $440 $132 #
coedge $-1 $324 $324 $217 $326 forward $213 $-1 #
coedge $-1 $325 $325 $440 $441 reversed $215 $-1 #
edge $-1 $442 0 $442 6.2831853071795862 $324 $443 forward 7 unknown #
vertex $-1 $218 $444 #
ellipse-curve $-1 0 0 -0.19398969044771433 0 0 -1 0.25 0 0 1 I I #
loop $-1 $-1 $445 $137 #
coedge $-1 $330 $330 $223 $332 forward $219 $-1 #
coedge $-1 $331 $331 $445 $446 reversed $221 $-1 #
edge $-1 $447 0 $447 6.2831853071795862 $330 $448 forward 7 unknown #
vertex $-1 $224 $449 #
ellipse-curve $-1 0 0 -0.19398969044771472 0 0 -1 0.25 0 0 1 I I #
coedge $-1 $335 $335 $228 $336 forward $225 $-1 #
edge $-1 $450 0 $450 6.2831853071795862 $335 $451 forward 7 unknown #
vertex $-1 $229 $452 #
ellipse-curve $-1 0 0 -0.15600000000000019 0 0 -1 0.40625 0 0 1 I I #
coedge $-1 $339 $339 $233 $340 forward $230 $-1 #
edge $-1 $453 0 $453 6.2831853071795862 $339 $454 forward 7 unknown #
vertex $-1 $234 $455 #
ellipse-curve $-1 0 0 -0.34400000000000008 0 0 -1 0.25 0 0 1 I I #
coedge $-1 $343 $343 $238 $344 forward $235 $-1 #
edge $-1 $456 0 $456 6.2831853071795862 $343 $457 forward 7 unknown #
vertex $-1 $239 $458 #
ellipse-curve $-1 0 0 -0.15600000000000019 0 0 -1 0.40625 0 0 1 I I #
coedge $-1 $347 $347 $243 $348 forward $240 $-1 #
edge $-1 $459 0 $459 6.2831853071795862 $347 $460 forward 7 unknown #
vertex $-1 $244 $461 #
ellipse-curve $-1 0 0 -0.34400000000000008 0 0 -1 0.25 0 0 1 I I #
coedge $-1 $351 $351 $248 $352 forward $245 $-1 #
edge $-1 $462 0 $462 6.2831853071795862 $351 $463 forward 7 unknown #
vertex $-1 $249 $464 #
ellipse-curve $-1 0 0 -0.33250000000000013 0 0 -1 0.25 0 0 1 I I #
coedge $-1 $355 $355 $253 $356 forward $250 $-1 #
edge $-1 $465 0 $465 6.2831853071795862 $355 $466 forward 7 unknown #
edge $-1 $467 1 $467 0 $254 $-1 forward 7 unknown #
vertex $-1 $256 $468 #
ellipse-curve $-1 0 0 0.074903180359399607 0 0 1 0.22500000000000001 0 0 1 I I #
face_name-twe-attrib $-1 $-1 $258 $176 5 #
model_id-kcp-attrib $-1 $469 $-1 $259 1 990669521 70 -1757020159 7 #
face $470 $471 $472 $14 $-1 $473 reversed single #
plane-surface $474 -2 0 1 0 0 1 1 0 0 forward_v I I I I #
loop_type-twe-attrib $-1 $-1 $-1 $260 0 #
surf-twe-attrib $-1 $-1 $-1 $261 33 #
loop_type-twe-attrib $-1 $-1 $-1 $265 1 #
coedge $-1 $367 $367 $475 $476 reversed $265 $-1 #
coedge $-1 $368 $368 $266 $369 reversed $477 $-1 #
edge $478 $479 -3.1415926535897931 $479 3.1415926535897931 $368 $480 forward 7 unknown #
loop $481 $482 $267 $471 #
attrib_edge_convexity-kcp-attrib $-1 $483 $-1 $268 1 #
vertex $-1 $268 $484 #
ellipse-curve $485 1 1 0 0 1 0 -0.40625 0 0 1 I I #
coedge $-1 $397 $396 $269 $375 forward $260 $-1 #
edge $486 $380 -2 $377 0 $374 $487 forward 7 unknown #
attrib_edge_convexity-kcp-attrib $-1 $488 $-1 $271 1 #
vertex $-1 $405 $489 #
straight-curve $490 2 1 -1 1 0 0 I I #
attrib_edge_convexity-kcp-attrib $-1 $491 $-1 $273 1 #
vertex $-1 $400 $492 #
straight-curve $493 -2 1 1 -1 0 0 I I #
convexity-sys-attrib $-1 $494 $274 $187 #
point $-1 2 1 -1 #
point $-1 2 1 1 #
cur-twe-attrib $-1 $-1 $-1 $277 44 #
loop $495 $-1 $279 $496 #
attrib_edge_convexity-kcp-attrib $-1 $497 $-1 $280 1 #
vertex $498 $280 $499 #
ellipse-curve $500 -1 0 0 0 -1 0 0.25 0 0 1 I I #
model_id-kcp-attrib $-1 $501 $-1 $281 1 990669521 70 -1757020159 23 #
face $502 $503 $504 $14 $-1 $505 reversed single #
convexity-sys-attrib $-1 $506 $282 $192 #
model_id-kcp-attrib $-1 $-1 $-1 $283 1 990669521 70 -1757020159 29 #
point $-1 0.75 0 0 #
cur-twe-attrib $-1 $-1 $-1 $284 48 #
coedge $-1 $374 $285 $288 $400 reversed $260 $-1 #
coedge $-1 $285 $374 $293 $405 forward $260 $-1 #
attrib_edge_convexity-kcp-attrib $-1 $507 $-1 $286 1 #
straight-curve $508 -2 0 -1 0 0 -1 I I #
edge $509 $380 -1 $291 0 $288 $510 forward 7 unknown #
loop_type-twe-attrib $-1 $-1 $-1 $289 0 #
convexity-sys-attrib $-1 $511 $290 $195 #
point $-1 -2 0 1 #
cur-twe-attrib $-1 $-1 $-1 $292 51 #
edge $512 $377 -1 $296 0 $397 $513 forward 7 unknown #
point $-1 -2 0 -1 #
cur-twe-attrib $-1 $-1 $-1 $297 53 #
edge_name-twe-attrib $-1 $-1 $-1 $298 5 8704 #
straight-curve $514 2 0 -1 0 -1 0 I I #
attrib_edge_convexity-kcp-attrib $-1 $515 $-1 $299 1 #
straight-curve $516 2 0 1 0 -1 0 I I #
model_id-kcp-attrib $-1 $-1 $-1 $304 1 990669521 80 -1756364798 3 #
face $517 $-1 $319 $43 $-1 $518 reversed single #
loop $-1 $-1 $429 $304 #
plane-surface $-1 0 0.5 0 0 -1 0 0 0 -1 forward_v I I I I #
coedge $-1 $519 $427 $430 $520 forward $305 $-1 #
coedge $-1 $433 $307 $308 $421 reversed $206 $-1 #
coedge $-1 $427 $519 $307 $419 reversed $305 $-1 #
edge $-1 $434 -1 $521 1 $418 $522 forward 7 unknown #
coedge $-1 $309 $308 $519 $523 forward $129 $-1 #
edge $-1 $425 -2 $521 2 $417 $524 forward 7 unknown #
coedge $-1 $430 $429 $309 $423 reversed $414 $-1 #
edge $-1 $525 -2 $424 2 $422 $526 forward 7 unknown #
vertex $-1 $311 $527 #
vertex $-1 $436 $528 #
straight-curve $-1 2 0 -1 0 -1 0 I I #
coedge $-1 $416 $418 $312 $428 reversed $305 $-1 #
edge $-1 $431 -0.5 $434 0.5 $427 $529 forward 7 unknown #
coedge $-1 $422 $313 $318 $437 forward $414 $-1 #
coedge $-1 $313 $422 $416 $520 reversed $414 $-1 #
vertex $-1 $314 $530 #
straight-curve $-1 0 0.5 1 -1 0 0 I I #
coedge $-1 $315 $417 $317 $436 reversed $206 $-1 #
vertex $-1 $428 $531 #
straight-curve $-1 0 -0.5 1 1 0 0 I I #
edge $-1 $320 -1 $425 1 $317 $532 forward 7 unknown #
edge $-1 $321 -1 $424 1 $318 $533 forward 7 unknown #
point $-1 2 -0.5 1 #
point $-1 2 0.5 1 #
coedge $-1 $440 $440 $325 $441 forward $323 $-1 #
edge $-1 $534 0 $534 6.2831853071795862 $440 $535 forward 7 unknown #
vertex $-1 $326 $536 #
ellipse-curve $-1 0 0 -0.23902301144450519 0 0 1 0.25 0 0 1 I I #
point $-1 -0.25 3.0615158845559431e-017 -0.19398969044771433 #
coedge $-1 $445 $445 $331 $446 forward $329 $-1 #
edge $-1 $537 0 $537 6.2831853071795862 $445 $538 forward 7 unknown #
vertex $-1 $332 $539 #
ellipse-curve $-1 0 0 -0.23902301144450569 0 0 1 0.25 0 0 1 I I #
point $-1 -0.25 3.0615158845559431e-017 -0.19398969044771472 #
vertex $-1 $336 $540 #
ellipse-curve $-1 0 0 0.15600000000000019 0 0 1 0.40625 0 0 1 I I #
point $-1 0.40625 0 -0.15600000000000019 #
vertex $-1 $340 $541 #
ellipse-curve $-1 0 0 0.34400000000000008 0 0 1 0.25 0 0 1 I I #
point $-1 0.25 0 -0.34400000000000008 #
vertex $-1 $344 $542 #
ellipse-curve $-1 0 0 0.15600000000000019 0 0 1 0.40625 0 0 1 I I #
point $-1 0.40625 0 -0.15600000000000019 #
vertex $-1 $348 $543 #
ellipse-curve $-1 0 0 0.34400000000000008 0 0 1 0.25 0 0 1 I I #
point $-1 0.25 0 -0.34400000000000008 #
vertex $-1 $352 $544 #
ellipse-curve $-1 0 0 0.33250000000000013 0 0 1 0.25 0 0 1 I I #
point $-1 0.25 0 -0.33250000000000013 #
vertex $-1 $356 $545 #
ellipse-curve $-1 0 0 -0.074903180359399607 0 0 -1 0.22500000000000001 0 0 1 I I #
vertex $-1 $357 $546 #
point $-1 0.22500000000000001 0 0.074903180359399607 #
face_name-twe-attrib $-1 $-1 $361 $259 6 #
model_id-kcp-attrib $-1 $547 $-1 $362 1 990669521 70 -1757020159 8 #
face $548 $549 $370 $14 $-1 $550 reversed single #
loop $551 $552 $553 $362 #
plane-surface $554 1 0.68799999999999994 0 0 -1 0 0 0 -1 forward_v I I I I #
surf-twe-attrib $-1 $-1 $-1 $363 61 #
coedge $-1 $475 $475 $367 $476 forward $555 $-1 #
edge $556 $557 0 $557 6.2831853071795862 $475 $558 forward 7 unknown #
loop $559 $560 $368 $561 #
attrib_edge_convexity-kcp-attrib $-1 $562 $-1 $369 1 #
vertex $-1 $369 $563 #
ellipse-curve $564 -1 1 0 0 -1 0 -0.40625 0 0 1 I I #
loop_type-twe-attrib $-1 $-1 $-1 $370 0 #
loop $565 $-1 $566 $471 #
convexity-sys-attrib $-1 $567 $371 $268 #
point $-1 0.59375 1 0 #
cur-twe-attrib $-1 $-1 $-1 $373 70 #
attrib_edge_convexity-kcp-attrib $-1 $568 $-1 $375 1 #
straight-curve $569 -2 1 -1 0 0 -1 I I #
convexity-sys-attrib $-1 $570 $376 $271 #
point $-1 -2 1 -1 #
cur-twe-attrib $-1 $-1 $-1 $378 73 #
convexity-sys-attrib $-1 $571 $379 $273 #
point $-1 -2 1 1 #
cur-twe-attrib $-1 $-1 $-1 $381 75 #
edge_name-twe-attrib $-1 $-1 $382 $187 2 8704 #
model_id-kcp-attrib $-1 $572 $-1 $386 1 990669521 70 -1757020159 32 #
face $573 $574 $575 $14 $-1 $576 reversed single #
convexity-sys-attrib $-1 $577 $387 $280 #
model_id-kcp-attrib $-1 $-1 $-1 $388 1 990669521 70 -1757020159 38 #
point $-1 -0.75 0 0 #
cur-twe-attrib $-1 $-1 $-1 $389 81 #
loop_type-twe-attrib $-1 $-1 $390 $281 1 #
model_id-kcp-attrib $-1 $578 $-1 $391 1 990669521 70 -1757020159 11 #
face $579 $561 $580 $14 $-1 $581 forward single #
loop $582 $281 $583 $391 #
cone-surface $584 1 1.05 0 0 -1 0 -0.25 0 0 1 I I 0 1 0.25 forward I I I I #
edge_name-twe-attrib $-1 $-1 $392 $192 17 8704 #
convexity-sys-attrib $-1 $585 $398 $286 #
cur-twe-attrib $-1 $-1 $-1 $399 87 #
attrib_edge_convexity-kcp-attrib $-1 $586 $-1 $400 1 #
straight-curve $587 -2 0 1 0 -1 0 I I #
edge_name-twe-attrib $-1 $-1 $402 $195 9 8704 #
attrib_edge_convexity-kcp-attrib $-1 $588 $-1 $405 1 #
straight-curve $589 -2 0 -1 0 -1 0 I I #
cur-twe-attrib $-1 $-1 $-1 $409 99 #
convexity-sys-attrib $-1 $590 $410 $299 #
cur-twe-attrib $-1 $-1 $-1 $411 100 #
model_id-kcp-attrib $-1 $-1 $-1 $413 1 990669521 80 -1756364798 4 #
plane-surface $-1 2 0 0 -1 0 0 0 0 1 forward_v I I I I #
coedge $-1 $418 $416 $420 $523 reversed $305 $-1 #
edge $-1 $431 -1 $525 1 $430 $591 forward 7 unknown #
vertex $-1 $523 $592 #
straight-curve $-1 -2 -0.5 0 0 0 -1 I I #
edge $-1 $521 -0.5 $525 0.5 $519 $593 forward 7 unknown #
straight-curve $-1 0 -0.5 -1 -1 0 0 I I #
vertex $-1 $423 $594 #
straight-curve $-1 0 0.5 -1 1 0 0 I I #
point $-1 2 0.5 -1 #
point $-1 2 -0.5 -1 #
straight-curve $-1 -2 0 1 0 -1 0 I I #
point $-1 -2 0.5 1 #
point $-1 -2 -0.5 1 #
straight-curve $-1 2 -0.5 0 0 0 -1 I I #
straight-curve $-1 2 0.5 0 0 0 -1 I I #
vertex $-1 $441 $595 #
ellipse-curve $-1 0 0 -0.23902301144450519 0 0 -1 0.27600000000000002 0 0 1 I I #
point $-1 0.25 0 -0.23902301144450519 #
vertex $-1 $446 $596 #
ellipse-curve $-1 0 0 -0.23902301144450569 0 0 -1 0.27600000000000002 0 0 1 I I #
point $-1 0.25 0 -0.23902301144450569 #
point $-1 0.40625 0 0.15600000000000019 #
point $-1 0.25 0 0.34400000000000008 #
point $-1 0.40625 0 0.15600000000000019 #
point $-1 0.25 0 0.34400000000000008 #
point $-1 0.25 0 0.33250000000000013 #
point $-1 0.22500000000000001 0 -0.074903180359399607 #
point $-1 0 3.8190174492854649e-016 0.21009681964060062 #
face_name-twe-attrib $-1 $-1 $470 $362 7 #
model_id-kcp-attrib $-1 $597 $-1 $471 1 990669521 70 -1757020159 9 #
face $598 $391 $599 $14 $-1 $600 reversed single #
cone-surface $601 1 1.05 0 0 -1 0 -0.40625 0 0 1 I I 0 1 0.40625 forward I I I I #
model_id-kcp-attrib $-1 $602 $-1 $472 1 990669521 70 -1757020159 27 #
loop $603 $-1 $604 $362 #
coedge $-1 $553 $553 $605 $606 forward $472 $-1 #
surf-twe-attrib $-1 $607 $-1 $473 177 #
loop $608 $609 $475 $610 #
attrib_edge_convexity-kcp-attrib $-1 $611 $-1 $476 1 #
vertex $-1 $476 $612 #
ellipse-curve $613 0 1 0 0 1 0 -0.25 0 0 1 I I #
loop_type-twe-attrib $-1 $-1 $-1 $477 0 #
loop $614 $-1 $615 $561 #
face $616 $617 $477 $14 $-1 $618 reversed single #
convexity-sys-attrib $-1 $619 $478 $369 #
point $-1 -0.59375 1 0 #
cur-twe-attrib $-1 $-1 $-1 $480 112 #
loop_type-twe-attrib $-1 $-1 $-1 $482 1 #
coedge $-1 $566 $566 $604 $620 reversed $482 $-1 #
edge_name-twe-attrib $-1 $-1 $483 $268 14 8704 #
convexity-sys-attrib $-1 $621 $486 $375 #
cur-twe-attrib $-1 $-1 $-1 $487 118 #
edge_name-twe-attrib $-1 $-1 $488 $271 4 8704 #
edge_name-twe-attrib $-1 $-1 $491 $273 11 8704 #
loop_type-twe-attrib $-1 $-1 $495 $386 1 #
model_id-kcp-attrib $-1 $622 $-1 $496 1 990669521 70 -1757020159 15 #
face $623 $610 $624 $14 $-1 $625 reversed single #
loop $626 $386 $627 $496 #
cone-surface $628 -1 1.05 0 0 1 0 0.25 0 0 1 I I 0 1 0.25 forward I I I I #
edge_name-twe-attrib $-1 $-1 $497 $280 22 8704 #
face_name-twe-attrib $-1 $-1 $502 $391 10 #
model_id-kcp-attrib $-1 $629 $-1 $503 1 990669521 70 -1757020159 12 #
loop $630 $631 $632 $503 #
plane-surface $633 -1 0.68799999999999994 0 0 1 0 0 0 1 forward_v I I I I #
model_id-kcp-attrib $-1 $634 $-1 $504 1 990669521 70 -1757020159 22 #
coedge $-1 $583 $583 $635 $636 reversed $504 $-1 #
surf-twe-attrib $-1 $-1 $-1 $505 133 #
edge_name-twe-attrib $-1 $-1 $507 $286 6 8704 #
convexity-sys-attrib $-1 $637 $509 $400 #
cur-twe-attrib $-1 $-1 $-1 $510 140 #
convexity-sys-attrib $-1 $638 $512 $405 #
cur-twe-attrib $-1 $-1 $-1 $513 144 #
edge_name-twe-attrib $-1 $-1 $515 $299 10 8704 #
straight-curve $-1 -2 0.5 0 0 0 -1 I I #
point $-1 -2 -0.5 -1 #
straight-curve $-1 -2 0 -1 0 1 0 I I #
point $-1 -2 0.5 -1 #
point $-1 0.27600000000000002 0 -0.23902301144450519 #
point $-1 0.27600000000000002 0 -0.23902301144450569 #
face_name-twe-attrib $-1 $-1 $548 $471 8 #
model_id-kcp-attrib $-1 $639 $-1 $549 1 990669521 70 -1757020159 10 #
loop $640 $641 $605 $549 #
cone-surface $642 1 0.68799999999999994 0 0 1 0 -0.27600000000000002 0 0 1 I I 0.5 0.86602540378443904 0.27600000000000002 forward I I I I #
surf-twe-attrib $-1 $-1 $-1 $550 152 #
loop_type-twe-attrib $-1 $-1 $551 $472 1 #
loop_type-twe-attrib $-1 $-1 $-1 $552 0 #
coedge $-1 $604 $604 $566 $620 forward $552 $-1 #
coedge $-1 $605 $605 $553 $606 reversed $599 $-1 #
edge $643 $644 0 $644 6.2831853071795862 $605 $645 forward 7 unknown #
surf-twe-attrib $-1 $-1 $554 $473 105 #
loop_type-twe-attrib $-1 $-1 $-1 $555 0 #
loop $646 $-1 $647 $610 #
face $648 $649 $555 $14 $-1 $650 reversed single #
convexity-sys-attrib $-1 $651 $556 $476 #
point $-1 -0.25 1 0 #
cur-twe-attrib $-1 $-1 $-1 $558 157 #
loop_type-twe-attrib $-1 $-1 $-1 $560 1 #
coedge $-1 $615 $615 $652 $653 forward $560 $-1 #
model_id-kcp-attrib $-1 $654 $-1 $561 1 990669521 70 -1757020159 13 #
face $655 $496 $656 $14 $-1 $657 reversed single #
cone-surface $658 -1 1.05 0 0 1 0 0.40625 0 0 1 I I 0 1 0.40625 forward I I I I #
edge_name-twe-attrib $-1 $-1 $562 $369 19 8704 #
edge $659 $660 -3.1415926535897931 $660 3.1415926535897931 $604 $661 forward 7 unknown #
edge_name-twe-attrib $-1 $-1 $568 $375 7 8704 #
face_name-twe-attrib $-1 $-1 $573 $496 14 #
model_id-kcp-attrib $-1 $662 $-1 $574 1 990669521 70 -1757020159 16 #
loop $663 $664 $665 $574 #
plane-surface $666 0 0.33500000000000002 0 0 -1 0 0 0 -1 forward_v I I I I #
model_id-kcp-attrib $-1 $667 $-1 $575 1 990669521 70 -1757020159 31 #
coedge $-1 $627 $627 $668 $669 forward $575 $-1 #
surf-twe-attrib $-1 $-1 $-1 $576 173 #
face_name-twe-attrib $-1 $-1 $579 $503 11 #
model_id-kcp-attrib $-1 $670 $-1 $580 1 990669521 70 -1757020159 36 #
loop $671 $-1 $652 $503 #
coedge $-1 $632 $632 $672 $673 reversed $580 $-1 #
surf-twe-attrib $-1 $674 $-1 $581 177 #
loop_type-twe-attrib $-1 $-1 $582 $504 0 #
coedge $-1 $635 $635 $583 $636 forward $641 $-1 #
edge $675 $676 -3.1415926535897931 $676 3.1415926535897931 $583 $677 forward 7 unknown #
edge_name-twe-attrib $-1 $-1 $586 $400 12 8704 #
edge_name-twe-attrib $-1 $-1 $588 $405 8 8704 #
face_name-twe-attrib $-1 $-1 $598 $549 9 #
model_id-kcp-attrib $-1 $678 $-1 $599 1 990669521 70 -1757020159 24 #
loop $679 $-1 $635 $549 #
surf-twe-attrib $-1 $-1 $-1 $600 188 #
attrib_edge_convexity-kcp-attrib $-1 $680 $-1 $606 1 #
vertex $-1 $606 $681 #
ellipse-curve $682 1 0.68799999999999994 0 0 -1 0 -0.27600000000000002 0 0 1 I I #
loop_type-twe-attrib $-1 $-1 $-1 $609 1 #
coedge $-1 $647 $647 $683 $684 reversed $609 $-1 #
model_id-kcp-attrib $-1 $685 $-1 $610 1 990669521 70 -1757020159 17 #
face $686 $687 $688 $14 $-1 $689 reversed single #
cone-surface $690 0 1.0475000000000001 0 0 -1 0 -0.25 0 0 1 I I 0 1 0.25 forward I I I I #
edge_name-twe-attrib $-1 $-1 $611 $476 24 8704 #
coedge $-1 $652 $652 $615 $653 reversed $631 $-1 #
edge $691 $692 0 $692 6.2831853071795862 $652 $693 forward 7 unknown #
face_name-twe-attrib $-1 $-1 $616 $561 12 #
model_id-kcp-attrib $-1 $694 $-1 $617 1 990669521 70 -1757020159 14 #
loop $695 $696 $672 $617 #
cone-surface $697 -1 0.68799999999999994 0 0 1 0 0.27600000000000002 0 0 1 I I 0.499999999999999 0.86602540378443904 0.27600000000000002 forward I I I I #
surf-twe-attrib $-1 $-1 $-1 $618 200 #
attrib_edge_convexity-kcp-attrib $-1 $698 $-1 $620 2 #
vertex $-1 $620 $699 #
ellipse-curve $700 1 0.68799999999999994 0 0 1 0 -0.40625 0 0 1 I I #
face_name-twe-attrib $-1 $-1 $623 $574 15 #
loop_type-twe-attrib $-1 $-1 $-1 $624 1 #
loop $701 $-1 $683 $574 #
coedge $-1 $665 $665 $702 $703 forward $624 $-1 #
surf-twe-attrib $-1 $-1 $-1 $625 207 #
loop_type-twe-attrib $-1 $-1 $626 $575 0 #
coedge $-1 $668 $668 $627 $669 reversed $696 $-1 #
edge $704 $705 -3.1415926535897931 $705 3.1415926535897931 $627 $706 forward 7 unknown #
loop_type-twe-attrib $-1 $-1 $630 $580 1 #
loop_type-twe-attrib $-1 $-1 $-1 $631 0 #
coedge $-1 $672 $672 $632 $673 forward $656 $-1 #
edge $707 $708 0 $708 6.2831853071795862 $672 $709 forward 7 unknown #
surf-twe-attrib $-1 $-1 $633 $581 105 #
attrib_edge_convexity-kcp-attrib $-1 $710 $-1 $636 1 #
vertex $711 $636 $712 #
ellipse-curve $713 1 0.64296667900320903 0 0 -1 0 -0.25 0 0 1 I I #
loop_type-twe-attrib $-1 $-1 $640 $599 0 #
model_id-kcp-attrib $-1 $714 $-1 $641 1 990669521 70 -1757020159 25 #
convexity-sys-attrib $-1 $715 $643 $606 #
point $-1 0.72399999999999998 0.68799999999999994 0 #
cur-twe-attrib $-1 $-1 $-1 $645 225 #
coedge $-1 $683 $683 $647 $684 forward $664 $-1 #
edge $716 $717 -3.1415926535897931 $717 3.1415926535897931 $683 $718 forward 7 unknown #
face_name-twe-attrib $-1 $-1 $648 $610 16 #
model_id-kcp-attrib $-1 $719 $-1 $649 1 990669521 70 -1757020159 18 #
face $720 $-1 $721 $14 $-1 $722 reversed single #
loop $723 $724 $702 $649 #
cone-surface $725 0 1.0475000000000001 0 0 -1 0 -0.22500000000000001 0 0 1 I I 0 1 0.22500000000000001 forward I I I I #
surf-twe-attrib $-1 $-1 $-1 $650 229 #
attrib_edge_convexity-kcp-attrib $-1 $726 $-1 $653 2 #
vertex $-1 $653 $727 #
ellipse-curve $728 -1 0.68799999999999994 0 0 -1 0 0.40625 0 0 1 I I #
face_name-twe-attrib $-1 $-1 $655 $617 13 #
model_id-kcp-attrib $-1 $729 $-1 $656 1 990669521 70 -1757020159 33 #
loop $730 $-1 $668 $617 #
surf-twe-attrib $-1 $-1 $-1 $657 235 #
convexity-sys-attrib $-1 $731 $659 $620 #
point $-1 1.40625 0.68799999999999994 4.9751267632924499e-017 #
cur-twe-attrib $-1 $-1 $-1 $661 237 #
loop_type-twe-attrib $-1 $-1 $-1 $664 0 #
coedge $-1 $702 $702 $665 $703 reversed $688 $-1 #
edge $732 $733 0 $733 6.2831853071795862 $702 $734 forward 7 unknown #
attrib_edge_convexity-kcp-attrib $-1 $735 $-1 $669 1 #
vertex $736 $669 $737 #
ellipse-curve $738 -1 0.64296667900320903 0 0 1 0 0.25 0 0 1 I I #
attrib_edge_convexity-kcp-attrib $-1 $739 $-1 $673 1 #
vertex $-1 $673 $740 #
ellipse-curve $741 -1 0.68799999999999994 0 0 1 0 0.27600000000000002 0 0 1 I I #
convexity-sys-attrib $-1 $742 $675 $636 #
model_id-kcp-attrib $-1 $-1 $-1 $676 1 990669521 70 -1757020159 28 #
point $-1 1.25 0.64296667900320903 -3.0616164697184302e-017 #
cur-twe-attrib $-1 $-1 $-1 $677 249 #
loop_type-twe-attrib $-1 $-1 $679 $641 1 #
edge_name-twe-attrib $-1 $-1 $680 $606 15 8448 #
attrib_edge_convexity-kcp-attrib $-1 $743 $-1 $684 2 #
vertex $-1 $684 $744 #
ellipse-curve $745 0 0.33500000000000002 0 1.0000000000000001e-015 1 0 -0.25 2.5000000000000002e-016 0 1 I I #
face_name-twe-attrib $-1 $-1 $686 $649 17 #
model_id-kcp-attrib $-1 $746 $-1 $687 1 990669521 70 -1757020159 19 #
loop $747 $748 $749 $687 #
cone-surface $750 0 0.185193639281201 0 0 1 0 -0.22500000000000001 0 0 1 I I 0.857167300702112 0.51503807491005404 0.22500000000000001 forward I I I I #
loop_type-twe-attrib $-1 $-1 $-1 $688 0 #
loop $751 $-1 $752 $649 #
surf-twe-attrib $-1 $-1 $-1 $689 259 #
convexity-sys-attrib $-1 $753 $691 $653 #
point $-1 -0.59375 0.68799999999999994 0 #
cur-twe-attrib $-1 $-1 $-1 $693 262 #
loop_type-twe-attrib $-1 $-1 $695 $656 0 #
model_id-kcp-attrib $-1 $754 $-1 $696 1 990669521 70 -1757020159 34 #
edge_name-twe-attrib $-1 $-1 $698 $620 13 4608 #
attrib_edge_convexity-kcp-attrib $-1 $755 $-1 $703 1 #
vertex $-1 $703 $756 #
ellipse-curve $757 0 0.33500000000000002 0 0 -1 0 -0.22500000000000001 0 0 1 I I #
convexity-sys-attrib $-1 $758 $704 $669 #
model_id-kcp-attrib $-1 $-1 $-1 $705 1 990669521 70 -1757020159 37 #
point $-1 -1.25 0.64296667900320903 -3.0616164697184302e-017 #
cur-twe-attrib $-1 $-1 $-1 $706 275 #
convexity-sys-attrib $-1 $759 $707 $673 #
point $-1 -0.72399999999999998 0.68799999999999994 0 #
cur-twe-attrib $-1 $-1 $-1 $709 278 #
edge_name-twe-attrib $-1 $-1 $710 $636 16 8448 #
convexity-sys-attrib $-1 $760 $716 $684 #
point $-1 0.25 0.33500000000000002 3.0616164697184302e-017 #
cur-twe-attrib $-1 $-1 $-1 $718 287 #
face_name-twe-attrib $-1 $-1 $720 $687 18 #
loop_type-twe-attrib $-1 $-1 $-1 $721 0 #
loop $761 $-1 $762 $687 #
coedge $-1 $749 $749 $-1 $763 forward $721 $-1 #
surf-twe-attrib $-1 $-1 $-1 $722 289 #
loop_type-twe-attrib $-1 $-1 $-1 $724 1 #
coedge $-1 $752 $752 $762 $764 forward $724 $-1 #
edge_name-twe-attrib $-1 $-1 $726 $653 18 4608 #
loop_type-twe-attrib $-1 $-1 $730 $696 1 #
convexity-sys-attrib $-1 $765 $732 $703 #
point $-1 -0.22500000000000001 0.33500000000000002 0 #
cur-twe-attrib $-1 $-1 $-1 $734 303 #
edge_name-twe-attrib $-1 $-1 $735 $669 21 8448 #
edge_name-twe-attrib $-1 $-1 $739 $673 20 8448 #
edge_name-twe-attrib $-1 $-1 $743 $684 23 4608 #
loop_type-twe-attrib $-1 $-1 $-1 $748 1 #
coedge $-1 $762 $762 $752 $764 reversed $748 $-1 #
edge $766 $767 1 $767 0 $749 $-1 forward 7 unknown #
edge $768 $769 -3.1415926535897931 $769 3.1415926535897931 $762 $770 forward 7 unknown #
edge_name-twe-attrib $-1 $-1 $755 $703 25 8704 #
edge_name-twe-attrib $-1 $-1 $-1 $763 26 128 #
vertex $-1 $763 $771 #
attrib_edge_convexity-kcp-attrib $-1 $772 $-1 $764 2 #
vertex $-1 $764 $773 #
ellipse-curve $774 0 0.185193639281201 0 0 -1 0 -0.22500000000000001 0 0 1 I I #
point $-1 0 0.050000000000000003 0 #
convexity-sys-attrib $-1 $775 $768 $764 #
point $-1 0.22500000000000001 0.185193639281201 -2.7554548227465901e-017 #
cur-twe-attrib $-1 $-1 $-1 $770 344 #
edge_name-twe-attrib $-1 $-1 $772 $764 27 4352 #
End-of-ACIS-data 