600 0 1 0           
111 GICL ACIS Healer - Source: /gicl/data5/repository/ICEM-CDC/Fixture_Models/HWExtSupport1/HWExtSupport1.sat - 6 0 18 ACIS 6.0.3 Solaris 24 Sat Apr 13 23:07:16 2002 
1 9.999999999999999547e-07 1.000000000000000036e-10 
body $-1 $1 $-1 $2 #
lump $-1 $-1 $3 $0 #
transform $-1 1 0 0 0 1 0 0 0 1 0 0 0 1 no_rotate no_reflect no_shear #
shell $-1 $-1 $-1 $4 $-1 $1 #
face $5 $6 $7 $3 $-1 $8 reversed single #
face_name-twe-attrib $-1 $-1 $-1 $4 1 #
face $9 $10 $11 $3 $-1 $12 forward single #
loop $13 $14 $15 $4 #
plane-surface $16 0 0 0 0 1 0 0 0 1 forward_v I I I I #
face_name-twe-attrib $-1 $-1 $-1 $6 2 #
face $17 $18 $19 $3 $-1 $20 forward single #
loop $21 $22 $23 $6 #
plane-surface $24 0 1 0 0 1 0 0 0 1 forward_v I I I I #
loop_type-twe-attrib $-1 $-1 $-1 $7 0 #
loop $25 $26 $27 $4 #
coedge $-1 $28 $29 $30 $31 forward $7 $-1 #
surf-twe-attrib $-1 $-1 $-1 $8 4 #
face_name-twe-attrib $-1 $-1 $-1 $10 3 #
face $32 $33 $34 $3 $-1 $35 forward single #
loop $36 $-1 $30 $10 #
plane-surface $37 2 0 1 1 0 0 0 0 -1 forward_v I I I I #
loop_type-twe-attrib $-1 $-1 $-1 $11 0 #
loop $38 $39 $40 $6 #
coedge $-1 $41 $42 $43 $44 reversed $11 $-1 #
surf-twe-attrib $-1 $-1 $-1 $12 6 #
loop_type-twe-attrib $-1 $-1 $-1 $14 1 #
loop $45 $-1 $46 $4 #
coedge $-1 $27 $27 $47 $48 forward $14 $-1 #
coedge $-1 $49 $15 $50 $51 forward $7 $-1 #
coedge $-1 $15 $49 $52 $53 forward $7 $-1 #
coedge $-1 $54 $55 $15 $31 reversed $19 $-1 #
edge $56 $57 -2 $58 0 $30 $59 forward 7 unknown #
face_name-twe-attrib $-1 $-1 $-1 $18 4 #
face $60 $61 $62 $3 $-1 $63 forward single #
loop $64 $-1 $52 $18 #
plane-surface $65 2 0 -1 0 0 -1 -1 0 0 forward_v I I I I #
loop_type-twe-attrib $-1 $-1 $-1 $19 0 #
surf-twe-attrib $-1 $-1 $-1 $20 10 #
loop_type-twe-attrib $-1 $-1 $-1 $22 1 #
loop $66 $67 $68 $6 #
coedge $-1 $40 $40 $69 $70 reversed $22 $-1 #
coedge $-1 $71 $23 $72 $73 reversed $11 $-1 #
coedge $-1 $23 $71 $74 $75 reversed $11 $-1 #
coedge $-1 $55 $54 $23 $44 forward $19 $-1 #
edge $76 $77 -2 $78 0 $43 $79 forward 7 unknown #
loop_type-twe-attrib $-1 $-1 $-1 $26 1 #
coedge $-1 $46 $46 $80 $81 reversed $26 $-1 #
coedge $-1 $47 $47 $27 $48 reversed $82 $-1 #
edge $83 $84 -3.141592653589793116 $84 3.141592653589793116 $47 $85 forward 7 unknown #
coedge $-1 $29 $28 $86 $87 forward $7 $-1 #
coedge $-1 $88 $89 $28 $51 reversed $90 $-1 #
edge $91 $58 -4 $92 0 $50 $93 forward 7 unknown #
coedge $-1 $94 $95 $29 $53 reversed $34 $-1 #
edge $96 $97 -4 $57 0 $52 $98 forward 7 unknown #
coedge $-1 $43 $30 $95 $99 reversed $19 $-1 #
coedge $-1 $30 $43 $88 $100 forward $19 $-1 #
edge_name-twe-attrib $-1 $-1 $-1 $31 1 8704 #
vertex $-1 $99 $101 #
vertex $-1 $100 $102 #
straight-curve $103 2 0 1 0 0 1 I I #
face_name-twe-attrib $-1 $-1 $-1 $33 5 #
face $104 $105 $90 $3 $-1 $106 forward single #
loop $107 $-1 $86 $33 #
plane-surface $108 -2 0 -1 -1 0 0 0 0 1 forward_v I I I I #
loop_type-twe-attrib $-1 $-1 $-1 $34 0 #
surf-twe-attrib $-1 $-1 $-1 $35 18 #
loop_type-twe-attrib $-1 $-1 $-1 $39 1 #
loop $109 $-1 $110 $6 #
coedge $-1 $68 $68 $111 $112 forward $39 $-1 #
coedge $-1 $69 $69 $40 $70 forward $113 $-1 #
edge $114 $115 0 $115 6.283185307179586232 $69 $116 forward 7 unknown #
coedge $-1 $42 $41 $117 $118 reversed $11 $-1 #
coedge $-1 $95 $94 $41 $73 forward $34 $-1 #
edge $119 $120 -4 $77 0 $72 $121 forward 7 unknown #
coedge $-1 $89 $88 $42 $75 forward $90 $-1 #
edge $122 $78 -4 $123 0 $74 $124 forward 7 unknown #
edge_name-twe-attrib $-1 $-1 $-1 $44 2 8704 #
vertex $-1 $99 $125 #
vertex $-1 $100 $126 #
straight-curve $127 2 1 1 0 0 1 I I #
coedge $-1 $80 $80 $46 $81 forward $128 $-1 #
edge $129 $130 0 $130 6.283185307179586232 $80 $131 forward 7 unknown #
loop $132 $-1 $47 $133 #
edge_name-twe-attrib $-1 $-1 $-1 $48 17 8704 #
vertex $-1 $48 $134 #
ellipse-curve $135 1 0 0 0 1 0 0.25 0 0 1 I I #
coedge $-1 $136 $137 $49 $87 reversed $62 $-1 #
edge $138 $92 -2 $97 0 $86 $139 forward 7 unknown #
coedge $-1 $74 $50 $55 $100 reversed $90 $-1 #
coedge $-1 $50 $74 $136 $140 forward $90 $-1 #
loop $141 $-1 $50 $61 #
edge_name-twe-attrib $-1 $-1 $-1 $51 9 8704 #
vertex $-1 $140 $142 #
straight-curve $143 -2 0 1 -1 0 0 I I #
coedge $-1 $72 $52 $137 $144 reversed $34 $-1 #
coedge $-1 $52 $72 $54 $99 forward $34 $-1 #
edge_name-twe-attrib $-1 $-1 $-1 $53 3 8704 #
vertex $-1 $144 $145 #
straight-curve $146 2 0 -1 1 0 0 I I #
edge $147 $77 -1 $57 0 $95 $148 forward 7 unknown #
edge $149 $78 -1 $58 0 $88 $150 forward 7 unknown #
point $-1 2 0 -1 #
point $-1 2 0 1 #
cur-twe-attrib $-1 $-1 $-1 $59 31 #
face_name-twe-attrib $-1 $-1 $-1 $61 6 #
face $151 $152 $153 $3 $-1 $154 reversed single #
plane-surface $155 -2 0 1 0 0 1 1 0 0 forward_v I I I I #
loop_type-twe-attrib $-1 $-1 $-1 $62 0 #
surf-twe-attrib $-1 $-1 $-1 $63 33 #
loop_type-twe-attrib $-1 $-1 $-1 $67 1 #
coedge $-1 $110 $110 $156 $157 reversed $67 $-1 #
coedge $-1 $111 $111 $68 $112 reversed $158 $-1 #
edge $159 $160 -3.141592653589793116 $160 3.141592653589793116 $111 $161 forward 7 unknown #
loop $162 $163 $69 $152 #
edge_name-twe-attrib $-1 $-1 $-1 $70 14 8704 #
vertex $-1 $70 $164 #
ellipse-curve $165 1 1 0 0 1 0 -0.40625 0 0 1 I I #
coedge $-1 $137 $136 $71 $118 forward $62 $-1 #
edge $166 $123 -2 $120 0 $117 $167 forward 7 unknown #
edge_name-twe-attrib $-1 $-1 $-1 $73 4 8704 #
vertex $-1 $144 $168 #
straight-curve $169 2 1 -1 1 0 0 I I #
edge_name-twe-attrib $-1 $-1 $-1 $75 11 8704 #
vertex $-1 $140 $170 #
straight-curve $171 -2 1 1 -1 0 0 I I #
point $-1 2 1 -1 #
point $-1 2 1 1 #
cur-twe-attrib $-1 $-1 $-1 $79 44 #
loop $172 $-1 $80 $173 #
edge_name-twe-attrib $-1 $-1 $-1 $81 22 8704 #
vertex $-1 $81 $174 #
ellipse-curve $175 -1 0 0 0 -1 0 0.25 0 0 1 I I #
loop_type-twe-attrib $-1 $-1 $-1 $82 1 #
face $176 $177 $178 $3 $-1 $179 reversed single #
point $-1 0.75 0 0 #
cur-twe-attrib $-1 $-1 $-1 $85 48 #
coedge $-1 $117 $86 $89 $140 reversed $62 $-1 #
coedge $-1 $86 $117 $94 $144 forward $62 $-1 #
edge_name-twe-attrib $-1 $-1 $-1 $87 6 8704 #
straight-curve $180 -2 0 -1 0 0 -1 I I #
edge $181 $123 -1 $92 0 $89 $182 forward 7 unknown #
loop_type-twe-attrib $-1 $-1 $-1 $90 0 #
point $-1 -2 0 1 #
cur-twe-attrib $-1 $-1 $-1 $93 51 #
edge $183 $120 -1 $97 0 $137 $184 forward 7 unknown #
point $-1 -2 0 -1 #
cur-twe-attrib $-1 $-1 $-1 $98 53 #
edge_name-twe-attrib $-1 $-1 $-1 $99 5 8704 #
straight-curve $185 2 0 -1 0 -1 0 I I #
edge_name-twe-attrib $-1 $-1 $-1 $100 10 8704 #
straight-curve $186 2 0 1 0 -1 0 I I #
face_name-twe-attrib $-1 $-1 $-1 $105 7 #
face $187 $188 $113 $3 $-1 $189 reversed single #
loop $190 $191 $192 $105 #
plane-surface $193 1 0.6879999999999999449 0 0 -1 0 0 0 -1 forward_v I I I I #
surf-twe-attrib $-1 $-1 $-1 $106 61 #
coedge $-1 $156 $156 $110 $157 forward $194 $-1 #
edge $195 $196 0 $196 6.283185307179586232 $156 $197 forward 7 unknown #
loop $198 $199 $111 $200 #
edge_name-twe-attrib $-1 $-1 $-1 $112 19 8704 #
vertex $-1 $112 $201 #
ellipse-curve $202 -1 1 0 0 -1 0 -0.40625 0 0 1 I I #
loop_type-twe-attrib $-1 $-1 $-1 $113 0 #
loop $203 $-1 $204 $152 #
point $-1 0.59375 1 0 #
cur-twe-attrib $-1 $-1 $-1 $116 70 #
edge_name-twe-attrib $-1 $-1 $-1 $118 7 8704 #
straight-curve $205 -2 1 -1 0 0 -1 I I #
point $-1 -2 1 -1 #
cur-twe-attrib $-1 $-1 $-1 $121 73 #
point $-1 -2 1 1 #
cur-twe-attrib $-1 $-1 $-1 $124 75 #
loop_type-twe-attrib $-1 $-1 $-1 $128 1 #
face $206 $207 $208 $3 $-1 $209 reversed single #
point $-1 -0.75 0 0 #
cur-twe-attrib $-1 $-1 $-1 $131 81 #
face_name-twe-attrib $-1 $-1 $-1 $133 10 #
face $210 $200 $211 $3 $-1 $212 forward single #
loop $213 $82 $214 $133 #
cone-surface $215 1 1.050000000000000044 0 0 -1 0 -0.25 0 0 1 I I 0 1 0.25 forward I I I I #
cur-twe-attrib $-1 $-1 $-1 $139 87 #
edge_name-twe-attrib $-1 $-1 $-1 $140 12 8704 #
straight-curve $216 -2 0 1 0 -1 0 I I #
edge_name-twe-attrib $-1 $-1 $-1 $144 8 8704 #
straight-curve $217 -2 0 -1 0 -1 0 I I #
cur-twe-attrib $-1 $-1 $-1 $148 99 #
cur-twe-attrib $-1 $-1 $-1 $150 100 #
face_name-twe-attrib $-1 $-1 $-1 $152 8 #
face $218 $133 $219 $3 $-1 $220 reversed single #
cone-surface $221 1 1.050000000000000044 0 0 -1 0 -0.40625 0 0 1 I I 0 1 0.40625 forward I I I I #
loop_type-twe-attrib $-1 $-1 $-1 $153 1 #
loop $222 $-1 $223 $105 #
coedge $-1 $192 $192 $224 $225 forward $153 $-1 #
surf-twe-attrib $-1 $226 $-1 $154 177 #
loop $227 $228 $156 $229 #
edge_name-twe-attrib $-1 $-1 $-1 $157 24 8704 #
vertex $-1 $157 $230 #
ellipse-curve $231 0 1 0 0 1 0 -0.25 0 0 1 I I #
loop_type-twe-attrib $-1 $-1 $-1 $158 0 #
loop $232 $-1 $233 $200 #
face $234 $235 $158 $3 $-1 $236 reversed single #
point $-1 -0.59375 1 0 #
cur-twe-attrib $-1 $-1 $-1 $161 112 #
loop_type-twe-attrib $-1 $-1 $-1 $163 1 #
coedge $-1 $204 $204 $223 $237 reversed $163 $-1 #
cur-twe-attrib $-1 $-1 $-1 $167 118 #
face_name-twe-attrib $-1 $-1 $-1 $173 14 #
face $238 $229 $239 $3 $-1 $240 reversed single #
loop $241 $128 $242 $173 #
cone-surface $243 -1 1.050000000000000044 0 0 1 0 0.25 0 0 1 I I 0 1 0.25 forward I I I I #
face_name-twe-attrib $-1 $-1 $-1 $177 11 #
loop $244 $245 $246 $177 #
plane-surface $247 -1 0.6879999999999999449 0 0 1 0 0 0 1 forward_v I I I I #
loop_type-twe-attrib $-1 $-1 $-1 $178 0 #
coedge $-1 $214 $214 $248 $249 reversed $178 $-1 #
surf-twe-attrib $-1 $-1 $-1 $179 133 #
cur-twe-attrib $-1 $-1 $-1 $182 140 #
cur-twe-attrib $-1 $-1 $-1 $184 144 #
face_name-twe-attrib $-1 $-1 $-1 $188 9 #
loop $250 $251 $224 $188 #
cone-surface $252 1 0.6879999999999999449 0 0 1 0 -0.2760000000000000231 0 0 1 I I 0.5 0.8660254037844390407 0.2760000000000000231 forward I I I I #
surf-twe-attrib $-1 $-1 $-1 $189 152 #
loop_type-twe-attrib $-1 $-1 $-1 $191 0 #
coedge $-1 $223 $223 $204 $237 forward $191 $-1 #
coedge $-1 $224 $224 $192 $225 reversed $219 $-1 #
edge $253 $254 0 $254 6.283185307179586232 $224 $255 forward 7 unknown #
surf-twe-attrib $-1 $-1 $193 $154 105 #
loop_type-twe-attrib $-1 $-1 $-1 $194 0 #
loop $256 $-1 $257 $229 #
face $258 $259 $194 $3 $-1 $260 reversed single #
point $-1 -0.25 1 0 #
cur-twe-attrib $-1 $-1 $-1 $197 157 #
loop_type-twe-attrib $-1 $-1 $-1 $199 1 #
coedge $-1 $233 $233 $261 $262 forward $199 $-1 #
face_name-twe-attrib $-1 $-1 $-1 $200 12 #
face $263 $173 $264 $3 $-1 $265 reversed single #
cone-surface $266 -1 1.050000000000000044 0 0 1 0 0.40625 0 0 1 I I 0 1 0.40625 forward I I I I #
edge $267 $268 -3.141592653589793116 $268 3.141592653589793116 $223 $269 forward 7 unknown #
face_name-twe-attrib $-1 $-1 $-1 $207 15 #
loop $270 $271 $272 $207 #
plane-surface $273 0 0.33500000000000002 0 0 -1 0 0 0 -1 forward_v I I I I #
loop_type-twe-attrib $-1 $-1 $-1 $208 0 #
coedge $-1 $242 $242 $274 $275 forward $208 $-1 #
surf-twe-attrib $-1 $-1 $-1 $209 173 #
loop_type-twe-attrib $-1 $-1 $-1 $211 1 #
loop $276 $-1 $261 $177 #
coedge $-1 $246 $246 $277 $278 reversed $211 $-1 #
surf-twe-attrib $-1 $279 $-1 $212 177 #
coedge $-1 $248 $248 $214 $249 forward $251 $-1 #
edge $280 $281 -3.141592653589793116 $281 3.141592653589793116 $214 $282 forward 7 unknown #
loop_type-twe-attrib $-1 $-1 $-1 $219 0 #
loop $283 $-1 $248 $188 #
surf-twe-attrib $-1 $-1 $-1 $220 188 #
edge_name-twe-attrib $-1 $-1 $-1 $225 15 8448 #
vertex $-1 $225 $284 #
ellipse-curve $285 1 0.6879999999999999449 0 0 -1 0 -0.2760000000000000231 0 0 1 I I #
loop_type-twe-attrib $-1 $-1 $-1 $228 1 #
coedge $-1 $257 $257 $286 $287 reversed $228 $-1 #
face_name-twe-attrib $-1 $-1 $-1 $229 16 #
face $288 $289 $290 $3 $-1 $291 reversed single #
cone-surface $292 0 1.047500000000000098 0 0 -1 0 -0.25 0 0 1 I I 0 1 0.25 forward I I I I #
coedge $-1 $261 $261 $233 $262 reversed $245 $-1 #
edge $293 $294 0 $294 6.283185307179586232 $261 $295 forward 7 unknown #
face_name-twe-attrib $-1 $-1 $-1 $235 13 #
loop $296 $297 $277 $235 #
cone-surface $298 -1 0.6879999999999999449 0 0 1 0 0.2760000000000000231 0 0 1 I I 0.4999999999999990008 0.8660254037844390407 0.2760000000000000231 forward I I I I #
surf-twe-attrib $-1 $-1 $-1 $236 200 #
edge_name-twe-attrib $-1 $-1 $-1 $237 13 4608 #
vertex $-1 $237 $299 #
ellipse-curve $300 1 0.6879999999999999449 0 0 1 0 -0.40625 0 0 1 I I #
loop_type-twe-attrib $-1 $-1 $-1 $239 1 #
loop $301 $-1 $286 $207 #
coedge $-1 $272 $272 $302 $303 forward $239 $-1 #
surf-twe-attrib $-1 $-1 $-1 $240 207 #
coedge $-1 $274 $274 $242 $275 reversed $297 $-1 #
edge $304 $305 -3.141592653589793116 $305 3.141592653589793116 $242 $306 forward 7 unknown #
loop_type-twe-attrib $-1 $-1 $-1 $245 0 #
coedge $-1 $277 $277 $246 $278 forward $264 $-1 #
edge $307 $308 0 $308 6.283185307179586232 $277 $309 forward 7 unknown #
surf-twe-attrib $-1 $-1 $247 $212 105 #
edge_name-twe-attrib $-1 $-1 $-1 $249 16 8448 #
vertex $-1 $249 $310 #
ellipse-curve $311 1 0.6429666790032090296 0 0 -1 0 -0.25 0 0 1 I I #
loop_type-twe-attrib $-1 $-1 $-1 $251 1 #
point $-1 0.7239999999999999769 0.6879999999999999449 0 #
cur-twe-attrib $-1 $-1 $-1 $255 225 #
coedge $-1 $286 $286 $257 $287 forward $271 $-1 #
edge $312 $313 -3.141592653589793116 $313 3.141592653589793116 $286 $314 forward 7 unknown #
face_name-twe-attrib $-1 $-1 $-1 $259 17 #
face $315 $-1 $316 $3 $-1 $317 reversed single #
loop $318 $319 $302 $259 #
cone-surface $320 0 1.047500000000000098 0 0 -1 0 -0.2250000000000000056 0 0 1 I I 0 1 0.2250000000000000056 forward I I I I #
surf-twe-attrib $-1 $-1 $-1 $260 229 #
edge_name-twe-attrib $-1 $-1 $-1 $262 18 4608 #
vertex $-1 $262 $321 #
ellipse-curve $322 -1 0.6879999999999999449 0 0 -1 0 0.40625 0 0 1 I I #
loop_type-twe-attrib $-1 $-1 $-1 $264 0 #
loop $323 $-1 $274 $235 #
surf-twe-attrib $-1 $-1 $-1 $265 235 #
point $-1 1.40625 0.6879999999999999449 4.975126763292449939e-17 #
cur-twe-attrib $-1 $-1 $-1 $269 237 #
loop_type-twe-attrib $-1 $-1 $-1 $271 0 #
coedge $-1 $302 $302 $272 $303 reversed $290 $-1 #
edge $324 $325 0 $325 6.283185307179586232 $302 $326 forward 7 unknown #
edge_name-twe-attrib $-1 $-1 $-1 $275 21 8448 #
vertex $-1 $275 $327 #
ellipse-curve $328 -1 0.6429666790032090296 0 0 1 0 0.25 0 0 1 I I #
edge_name-twe-attrib $-1 $-1 $-1 $278 20 8448 #
vertex $-1 $278 $329 #
ellipse-curve $330 -1 0.6879999999999999449 0 0 1 0 0.2760000000000000231 0 0 1 I I #
point $-1 1.25 0.6429666790032090296 -3.06161646971843021e-17 #
cur-twe-attrib $-1 $-1 $-1 $282 249 #
edge_name-twe-attrib $-1 $-1 $-1 $287 23 4608 #
vertex $-1 $287 $331 #
ellipse-curve $332 0 0.33500000000000002 0 1.000000000000000078e-15 1 0 -0.25 2.500000000000000194e-16 0 1 I I #
face_name-twe-attrib $-1 $-1 $-1 $289 18 #
loop $333 $334 $335 $289 #
cone-surface $336 0 0.1851936392812010002 0 0 1 0 -0.2250000000000000056 0 0 1 I I 0.8571673007021120005 0.5150380749100540445 0.2250000000000000056 forward I I I I #
loop_type-twe-attrib $-1 $-1 $-1 $290 0 #
loop $337 $-1 $338 $259 #
surf-twe-attrib $-1 $-1 $-1 $291 259 #
point $-1 -0.59375 0.6879999999999999449 0 #
cur-twe-attrib $-1 $-1 $-1 $295 262 #
loop_type-twe-attrib $-1 $-1 $-1 $297 1 #
edge_name-twe-attrib $-1 $-1 $-1 $303 25 8704 #
vertex $-1 $303 $339 #
ellipse-curve $340 0 0.33500000000000002 0 0 -1 0 -0.2250000000000000056 0 0 1 I I #
point $-1 -1.25 0.6429666790032090296 -3.06161646971843021e-17 #
cur-twe-attrib $-1 $-1 $-1 $306 275 #
point $-1 -0.7239999999999999769 0.6879999999999999449 0 #
cur-twe-attrib $-1 $-1 $-1 $309 278 #
point $-1 0.25 0.33500000000000002 3.06161646971843021e-17 #
cur-twe-attrib $-1 $-1 $-1 $314 287 #
loop_type-twe-attrib $-1 $-1 $-1 $316 0 #
loop $341 $-1 $342 $289 #
coedge $-1 $335 $335 $-1 $343 forward $316 $-1 #
surf-twe-attrib $-1 $-1 $-1 $317 289 #
loop_type-twe-attrib $-1 $-1 $-1 $319 1 #
coedge $-1 $338 $338 $342 $344 forward $319 $-1 #
point $-1 -0.2250000000000000056 0.33500000000000002 0 #
cur-twe-attrib $-1 $-1 $-1 $326 303 #
loop_type-twe-attrib $-1 $-1 $-1 $334 1 #
coedge $-1 $342 $342 $338 $344 reversed $334 $-1 #
edge $345 $346 1 $346 0 $335 $-1 forward 7 unknown #
edge $347 $348 -3.141592653589793116 $348 3.141592653589793116 $342 $349 forward 7 unknown #
edge_name-twe-attrib $-1 $-1 $-1 $343 26 128 #
vertex $-1 $343 $350 #
edge_name-twe-attrib $-1 $-1 $-1 $344 27 4352 #
vertex $-1 $344 $351 #
ellipse-curve $352 0 0.1851936392812010002 0 0 -1 0 -0.2250000000000000056 0 0 1 I I #
point $-1 0 0.05000000000000000278 0 #
point $-1 0.2250000000000000056 0.1851936392812010002 -2.755454822746590086e-17 #
cur-twe-attrib $-1 $-1 $-1 $349 344 #
End-of-ACIS-data 