104 353 0 0                             
body $-1 $1 $-1 $2 #
lump $-1 $-1 $3 $0 #
transform $-1 1 0 0 0 1 0 0 0 1 0 0 0 1 0 0 0 #
shell $-1 $-1 $-1 $4 $1 #
face $5 $6 $7 $3 $-1 $8 1 #
face_name-twe-attrib $-1 $-1 $-1 $4 1 #
face $9 $10 $11 $3 $-1 $12 0 #
loop $13 $14 $15 $4 #
plane-surface $16 0 0 0 0 1 0 0 0 1 0 #
face_name-twe-attrib $-1 $-1 $-1 $6 2 #
face $17 $18 $19 $3 $-1 $20 0 #
loop $21 $22 $23 $6 #
plane-surface $24 0 1 0 0 1 0 0 0 1 0 #
loop_type-twe-attrib $-1 $-1 $-1 $7 0 #
loop $25 $26 $27 $4 #
coedge $-1 $28 $29 $30 $31 0 $7 $-1 #
surf-twe-attrib $-1 $-1 $-1 $8 4 #
face_name-twe-attrib $-1 $-1 $-1 $10 3 #
face $32 $33 $34 $3 $-1 $35 0 #
loop $36 $-1 $30 $10 #
plane-surface $37 2 0 1 1 0 0 0 0 -1 0 #
loop_type-twe-attrib $-1 $-1 $-1 $11 0 #
loop $38 $39 $40 $6 #
coedge $-1 $41 $42 $43 $44 1 $11 $-1 #
surf-twe-attrib $-1 $-1 $-1 $12 6 #
loop_type-twe-attrib $-1 $-1 $-1 $14 1 #
loop $45 $-1 $46 $4 #
coedge $-1 $27 $27 $47 $48 0 $14 $-1 #
coedge $-1 $49 $15 $50 $51 0 $7 $-1 #
coedge $-1 $15 $49 $52 $53 0 $7 $-1 #
coedge $-1 $54 $55 $15 $31 1 $19 $-1 #
edge $56 $57 $58 $30 $59 0 #
face_name-twe-attrib $-1 $-1 $-1 $18 4 #
face $60 $61 $62 $3 $-1 $63 0 #
loop $64 $-1 $52 $18 #
plane-surface $65 2 0 -1 0 0 -1 -1 0 0 0 #
loop_type-twe-attrib $-1 $-1 $-1 $19 0 #
surf-twe-attrib $-1 $-1 $-1 $20 10 #
loop_type-twe-attrib $-1 $-1 $-1 $22 1 #
loop $66 $67 $68 $6 #
coedge $-1 $40 $40 $69 $70 1 $22 $-1 #
coedge $-1 $71 $23 $72 $73 1 $11 $-1 #
coedge $-1 $23 $71 $74 $75 1 $11 $-1 #
coedge $-1 $55 $54 $23 $44 0 $19 $-1 #
edge $76 $77 $78 $43 $79 0 #
loop_type-twe-attrib $-1 $-1 $-1 $26 1 #
coedge $-1 $46 $46 $80 $81 1 $26 $-1 #
coedge $-1 $47 $47 $27 $48 1 $82 $-1 #
edge $83 $84 $84 $47 $85 0 #
coedge $-1 $29 $28 $86 $87 0 $7 $-1 #
coedge $-1 $88 $89 $28 $51 1 $90 $-1 #
edge $91 $58 $92 $50 $93 0 #
coedge $-1 $94 $95 $29 $53 1 $34 $-1 #
edge $96 $97 $57 $52 $98 0 #
coedge $-1 $43 $30 $95 $99 1 $19 $-1 #
coedge $-1 $30 $43 $88 $100 0 $19 $-1 #
edge_name-twe-attrib $-1 $-1 $-1 $31 1 8704 #
vertex $-1 $99 $101 #
vertex $-1 $100 $102 #
straight-curve $103 2 0 1 0 0 1 #
face_name-twe-attrib $-1 $-1 $-1 $33 5 #
face $104 $105 $90 $3 $-1 $106 0 #
loop $107 $-1 $86 $33 #
plane-surface $108 -2 0 -1 -1 0 0 0 0 1 0 #
loop_type-twe-attrib $-1 $-1 $-1 $34 0 #
surf-twe-attrib $-1 $-1 $-1 $35 18 #
loop_type-twe-attrib $-1 $-1 $-1 $39 1 #
loop $109 $-1 $110 $6 #
coedge $-1 $68 $68 $111 $112 0 $39 $-1 #
coedge $-1 $69 $69 $40 $70 0 $113 $-1 #
edge $114 $115 $115 $69 $116 0 #
coedge $-1 $42 $41 $117 $118 1 $11 $-1 #
coedge $-1 $95 $94 $41 $73 0 $34 $-1 #
edge $119 $120 $77 $72 $121 0 #
coedge $-1 $89 $88 $42 $75 0 $90 $-1 #
edge $122 $78 $123 $74 $124 0 #
edge_name-twe-attrib $-1 $-1 $-1 $44 2 8704 #
vertex $-1 $99 $125 #
vertex $-1 $100 $126 #
straight-curve $127 2 1 1 0 0 1 #
coedge $-1 $80 $80 $46 $81 0 $128 $-1 #
edge $129 $130 $130 $80 $131 0 #
loop $132 $-1 $47 $133 #
edge_name-twe-attrib $-1 $-1 $-1 $48 17 8704 #
vertex $-1 $48 $134 #
ellipse-curve $135 1 0 0 0 1 0 0.25 0 0 1 #
coedge $-1 $136 $137 $49 $87 1 $62 $-1 #
edge $138 $92 $97 $86 $139 0 #
coedge $-1 $74 $50 $55 $100 1 $90 $-1 #
coedge $-1 $50 $74 $136 $140 0 $90 $-1 #
loop $141 $-1 $50 $61 #
edge_name-twe-attrib $-1 $-1 $-1 $51 9 8704 #
vertex $-1 $140 $142 #
straight-curve $143 -2 0 1 -1 0 0 #
coedge $-1 $72 $52 $137 $144 1 $34 $-1 #
coedge $-1 $52 $72 $54 $99 0 $34 $-1 #
edge_name-twe-attrib $-1 $-1 $-1 $53 3 8704 #
vertex $-1 $144 $145 #
straight-curve $146 2 0 -1 1 0 0 #
edge $147 $77 $57 $95 $148 0 #
edge $149 $78 $58 $88 $150 0 #
point $-1 2 0 -1 #
point $-1 2 0 1 #
cur-twe-attrib $-1 $-1 $-1 $59 31 #
face_name-twe-attrib $-1 $-1 $-1 $61 6 #
face $151 $152 $153 $3 $-1 $154 1 #
plane-surface $155 -2 0 1 0 0 1 1 0 0 0 #
loop_type-twe-attrib $-1 $-1 $-1 $62 0 #
surf-twe-attrib $-1 $-1 $-1 $63 33 #
loop_type-twe-attrib $-1 $-1 $-1 $67 1 #
coedge $-1 $110 $110 $156 $157 1 $67 $-1 #
coedge $-1 $111 $111 $68 $112 1 $158 $-1 #
edge $159 $160 $160 $111 $161 0 #
loop $162 $163 $69 $152 #
edge_name-twe-attrib $-1 $-1 $-1 $70 14 8704 #
vertex $-1 $70 $164 #
ellipse-curve $165 1 1 0 0 1 0 -0.40625 0 0 1 #
coedge $-1 $137 $136 $71 $118 0 $62 $-1 #
edge $166 $123 $120 $117 $167 0 #
edge_name-twe-attrib $-1 $-1 $-1 $73 4 8704 #
vertex $-1 $144 $168 #
straight-curve $169 2 1 -1 1 0 0 #
edge_name-twe-attrib $-1 $-1 $-1 $75 11 8704 #
vertex $-1 $140 $170 #
straight-curve $171 -2 1 1 -1 0 0 #
point $-1 2 1 -1 #
point $-1 2 1 1 #
cur-twe-attrib $-1 $-1 $-1 $79 44 #
loop $172 $-1 $80 $173 #
edge_name-twe-attrib $-1 $-1 $-1 $81 22 8704 #
vertex $-1 $81 $174 #
ellipse-curve $175 -1 0 0 0 -1 0 0.25 0 0 1 #
loop_type-twe-attrib $-1 $-1 $-1 $82 1 #
face $176 $177 $178 $3 $-1 $179 1 #
point $-1 0.75 0 0 #
cur-twe-attrib $-1 $-1 $-1 $85 48 #
coedge $-1 $117 $86 $89 $140 1 $62 $-1 #
coedge $-1 $86 $117 $94 $144 0 $62 $-1 #
edge_name-twe-attrib $-1 $-1 $-1 $87 6 8704 #
straight-curve $180 -2 0 -1 0 0 -1 #
edge $181 $123 $92 $89 $182 0 #
loop_type-twe-attrib $-1 $-1 $-1 $90 0 #
point $-1 -2 0 1 #
cur-twe-attrib $-1 $-1 $-1 $93 51 #
edge $183 $120 $97 $137 $184 0 #
point $-1 -2 0 -1 #
cur-twe-attrib $-1 $-1 $-1 $98 53 #
edge_name-twe-attrib $-1 $-1 $-1 $99 5 8704 #
straight-curve $185 2 0 -1 0 -1 0 #
edge_name-twe-attrib $-1 $-1 $-1 $100 10 8704 #
straight-curve $186 2 0 1 0 -1 0 #
face_name-twe-attrib $-1 $-1 $-1 $105 7 #
face $187 $188 $113 $3 $-1 $189 1 #
loop $190 $191 $192 $105 #
plane-surface $193 1 0.688 0 0 -1 0 0 0 -1 0 #
surf-twe-attrib $-1 $-1 $-1 $106 61 #
coedge $-1 $156 $156 $110 $157 0 $194 $-1 #
edge $195 $196 $196 $156 $197 0 #
loop $198 $199 $111 $200 #
edge_name-twe-attrib $-1 $-1 $-1 $112 19 8704 #
vertex $-1 $112 $201 #
ellipse-curve $202 -1 1 0 0 -1 0 -0.40625 0 0 1 #
loop_type-twe-attrib $-1 $-1 $-1 $113 0 #
loop $203 $-1 $204 $152 #
point $-1 0.59375 1 0 #
cur-twe-attrib $-1 $-1 $-1 $116 70 #
edge_name-twe-attrib $-1 $-1 $-1 $118 7 8704 #
straight-curve $205 -2 1 -1 0 0 -1 #
point $-1 -2 1 -1 #
cur-twe-attrib $-1 $-1 $-1 $121 73 #
point $-1 -2 1 1 #
cur-twe-attrib $-1 $-1 $-1 $124 75 #
loop_type-twe-attrib $-1 $-1 $-1 $128 1 #
face $206 $207 $208 $3 $-1 $209 1 #
point $-1 -0.75 0 0 #
cur-twe-attrib $-1 $-1 $-1 $131 81 #
face_name-twe-attrib $-1 $-1 $-1 $133 10 #
face $210 $200 $211 $3 $-1 $212 0 #
loop $213 $82 $214 $133 #
cone-surface $215 1 1.05 0 0 -1 0 -0.25 0 0 1 0 1 0 #
cur-twe-attrib $-1 $-1 $-1 $139 87 #
edge_name-twe-attrib $-1 $-1 $-1 $140 12 8704 #
straight-curve $216 -2 0 1 0 -1 0 #
edge_name-twe-attrib $-1 $-1 $-1 $144 8 8704 #
straight-curve $217 -2 0 -1 0 -1 0 #
cur-twe-attrib $-1 $-1 $-1 $148 99 #
cur-twe-attrib $-1 $-1 $-1 $150 100 #
face_name-twe-attrib $-1 $-1 $-1 $152 8 #
face $218 $133 $219 $3 $-1 $220 1 #
cone-surface $221 1 1.05 0 0 -1 0 -0.40625 0 0 1 0 1 0 #
loop_type-twe-attrib $-1 $-1 $-1 $153 1 #
loop $222 $-1 $223 $105 #
coedge $-1 $192 $192 $224 $225 0 $153 $-1 #
surf-twe-attrib $-1 $226 $-1 $154 177 #
loop $227 $228 $156 $229 #
edge_name-twe-attrib $-1 $-1 $-1 $157 24 8704 #
vertex $-1 $157 $230 #
ellipse-curve $231 0 1 0 0 1 0 -0.25 0 0 1 #
loop_type-twe-attrib $-1 $-1 $-1 $158 0 #
loop $232 $-1 $233 $200 #
face $234 $235 $158 $3 $-1 $236 1 #
point $-1 -0.59375 1 0 #
cur-twe-attrib $-1 $-1 $-1 $161 112 #
loop_type-twe-attrib $-1 $-1 $-1 $163 1 #
coedge $-1 $204 $204 $223 $237 1 $163 $-1 #
cur-twe-attrib $-1 $-1 $-1 $167 118 #
face_name-twe-attrib $-1 $-1 $-1 $173 14 #
face $238 $229 $239 $3 $-1 $240 1 #
loop $241 $128 $242 $173 #
cone-surface $243 -1 1.05 0 0 1 0 0.25 0 0 1 0 1 0 #
face_name-twe-attrib $-1 $-1 $-1 $177 11 #
loop $244 $245 $246 $177 #
plane-surface $247 -1 0.688 0 0 1 0 0 0 1 0 #
loop_type-twe-attrib $-1 $-1 $-1 $178 0 #
coedge $-1 $214 $214 $248 $249 1 $178 $-1 #
surf-twe-attrib $-1 $-1 $-1 $179 133 #
cur-twe-attrib $-1 $-1 $-1 $182 140 #
cur-twe-attrib $-1 $-1 $-1 $184 144 #
face_name-twe-attrib $-1 $-1 $-1 $188 9 #
loop $250 $251 $224 $188 #
cone-surface $252 1 0.688 0 0 1 0 -0.276 0 0 1 0.5 0.866025403784439 0 #
surf-twe-attrib $-1 $-1 $-1 $189 152 #
loop_type-twe-attrib $-1 $-1 $-1 $191 0 #
coedge $-1 $223 $223 $204 $237 0 $191 $-1 #
coedge $-1 $224 $224 $192 $225 1 $219 $-1 #
edge $253 $254 $254 $224 $255 0 #
surf-twe-attrib $-1 $-1 $193 $154 105 #
loop_type-twe-attrib $-1 $-1 $-1 $194 0 #
loop $256 $-1 $257 $229 #
face $258 $259 $194 $3 $-1 $260 1 #
point $-1 -0.25 1 0 #
cur-twe-attrib $-1 $-1 $-1 $197 157 #
loop_type-twe-attrib $-1 $-1 $-1 $199 1 #
coedge $-1 $233 $233 $261 $262 0 $199 $-1 #
face_name-twe-attrib $-1 $-1 $-1 $200 12 #
face $263 $173 $264 $3 $-1 $265 1 #
cone-surface $266 -1 1.05 0 0 1 0 0.40625 0 0 1 0 1 0 #
edge $267 $268 $268 $223 $269 0 #
face_name-twe-attrib $-1 $-1 $-1 $207 15 #
loop $270 $271 $272 $207 #
plane-surface $273 0 0.335 0 0 -1 0 0 0 -1 0 #
loop_type-twe-attrib $-1 $-1 $-1 $208 0 #
coedge $-1 $242 $242 $274 $275 0 $208 $-1 #
surf-twe-attrib $-1 $-1 $-1 $209 173 #
loop_type-twe-attrib $-1 $-1 $-1 $211 1 #
loop $276 $-1 $261 $177 #
coedge $-1 $246 $246 $277 $278 1 $211 $-1 #
surf-twe-attrib $-1 $279 $-1 $212 177 #
coedge $-1 $248 $248 $214 $249 0 $251 $-1 #
edge $280 $281 $281 $214 $282 0 #
loop_type-twe-attrib $-1 $-1 $-1 $219 0 #
loop $283 $-1 $248 $188 #
surf-twe-attrib $-1 $-1 $-1 $220 188 #
edge_name-twe-attrib $-1 $-1 $-1 $225 15 8448 #
vertex $-1 $225 $284 #
ellipse-curve $285 1 0.688 0 0 -1 0 -0.276 0 0 1 #
loop_type-twe-attrib $-1 $-1 $-1 $228 1 #
coedge $-1 $257 $257 $286 $287 1 $228 $-1 #
face_name-twe-attrib $-1 $-1 $-1 $229 16 #
face $288 $289 $290 $3 $-1 $291 1 #
cone-surface $292 0 1.0475 0 0 -1 0 -0.25 0 0 1 0 1 0 #
coedge $-1 $261 $261 $233 $262 1 $245 $-1 #
edge $293 $294 $294 $261 $295 0 #
face_name-twe-attrib $-1 $-1 $-1 $235 13 #
loop $296 $297 $277 $235 #
cone-surface $298 -1 0.688 0 0 1 0 0.276 0 0 1 0.499999999999999 0.866025403784439 0 #
surf-twe-attrib $-1 $-1 $-1 $236 200 #
edge_name-twe-attrib $-1 $-1 $-1 $237 13 4608 #
vertex $-1 $237 $299 #
ellipse-curve $300 1 0.688 0 0 1 0 -0.40625 0 0 1 #
loop_type-twe-attrib $-1 $-1 $-1 $239 1 #
loop $301 $-1 $286 $207 #
coedge $-1 $272 $272 $302 $303 0 $239 $-1 #
surf-twe-attrib $-1 $-1 $-1 $240 207 #
coedge $-1 $274 $274 $242 $275 1 $297 $-1 #
edge $304 $305 $305 $242 $306 0 #
loop_type-twe-attrib $-1 $-1 $-1 $245 0 #
coedge $-1 $277 $277 $246 $278 0 $264 $-1 #
edge $307 $308 $308 $277 $309 0 #
surf-twe-attrib $-1 $-1 $247 $212 105 #
edge_name-twe-attrib $-1 $-1 $-1 $249 16 8448 #
vertex $-1 $249 $310 #
ellipse-curve $311 1 0.642966679003209 0 0 -1 0 -0.25 0 0 1 #
loop_type-twe-attrib $-1 $-1 $-1 $251 1 #
point $-1 0.724 0.688 0 #
cur-twe-attrib $-1 $-1 $-1 $255 225 #
coedge $-1 $286 $286 $257 $287 0 $271 $-1 #
edge $312 $313 $313 $286 $314 0 #
face_name-twe-attrib $-1 $-1 $-1 $259 17 #
face $315 $-1 $316 $3 $-1 $317 1 #
loop $318 $319 $302 $259 #
cone-surface $320 0 1.0475 0 0 -1 0 -0.225 0 0 1 0 1 0 #
surf-twe-attrib $-1 $-1 $-1 $260 229 #
edge_name-twe-attrib $-1 $-1 $-1 $262 18 4608 #
vertex $-1 $262 $321 #
ellipse-curve $322 -1 0.688 0 0 -1 0 0.40625 0 0 1 #
loop_type-twe-attrib $-1 $-1 $-1 $264 0 #
loop $323 $-1 $274 $235 #
surf-twe-attrib $-1 $-1 $-1 $265 235 #
point $-1 1.40625 0.688 4.97512676329245e-17 #
cur-twe-attrib $-1 $-1 $-1 $269 237 #
loop_type-twe-attrib $-1 $-1 $-1 $271 0 #
coedge $-1 $302 $302 $272 $303 1 $290 $-1 #
edge $324 $325 $325 $302 $326 0 #
edge_name-twe-attrib $-1 $-1 $-1 $275 21 8448 #
vertex $-1 $275 $327 #
ellipse-curve $328 -1 0.642966679003209 0 0 1 0 0.25 0 0 1 #
edge_name-twe-attrib $-1 $-1 $-1 $278 20 8448 #
vertex $-1 $278 $329 #
ellipse-curve $330 -1 0.688 0 0 1 0 0.276 0 0 1 #
point $-1 1.25 0.642966679003209 -3.06161646971843e-17 #
cur-twe-attrib $-1 $-1 $-1 $282 249 #
edge_name-twe-attrib $-1 $-1 $-1 $287 23 4608 #
vertex $-1 $287 $331 #
ellipse-curve $332 0 0.335 0 1e-15 1 0 -0.25 2.5e-16 0 1 #
face_name-twe-attrib $-1 $-1 $-1 $289 18 #
loop $333 $334 $335 $289 #
cone-surface $336 0 0.185193639281201 0 0 1 0 -0.225 0 0 1 0.857167300702112 0.515038074910054 0 #
loop_type-twe-attrib $-1 $-1 $-1 $290 0 #
loop $337 $-1 $338 $259 #
surf-twe-attrib $-1 $-1 $-1 $291 259 #
point $-1 -0.59375 0.688 0 #
cur-twe-attrib $-1 $-1 $-1 $295 262 #
loop_type-twe-attrib $-1 $-1 $-1 $297 1 #
edge_name-twe-attrib $-1 $-1 $-1 $303 25 8704 #
vertex $-1 $303 $339 #
ellipse-curve $340 0 0.335 0 0 -1 0 -0.225 0 0 1 #
point $-1 -1.25 0.642966679003209 -3.06161646971843e-17 #
cur-twe-attrib $-1 $-1 $-1 $306 275 #
point $-1 -0.724 0.688 0 #
cur-twe-attrib $-1 $-1 $-1 $309 278 #
point $-1 0.25 0.335 3.06161646971843e-17 #
cur-twe-attrib $-1 $-1 $-1 $314 287 #
loop_type-twe-attrib $-1 $-1 $-1 $316 0 #
loop $341 $-1 $342 $289 #
coedge $-1 $335 $335 $-1 $343 0 $316 $-1 #
surf-twe-attrib $-1 $-1 $-1 $317 289 #
loop_type-twe-attrib $-1 $-1 $-1 $319 1 #
coedge $-1 $338 $338 $342 $344 0 $319 $-1 #
point $-1 -0.225 0.335 0 #
cur-twe-attrib $-1 $-1 $-1 $326 303 #
loop_type-twe-attrib $-1 $-1 $-1 $334 1 #
coedge $-1 $342 $342 $338 $344 1 $334 $-1 #
edge $345 $346 $346 $335 $-1 0 #
edge $347 $348 $348 $342 $349 0 #
edge_name-twe-attrib $-1 $-1 $-1 $343 26 128 #
vertex $-1 $343 $350 #
edge_name-twe-attrib $-1 $-1 $-1 $344 27 4352 #
vertex $-1 $344 $351 #
ellipse-curve $352 0 0.185193639281201 0 0 -1 0 -0.225 0 0 1 #
point $-1 0 0.05 0 #
point $-1 0.225 0.185193639281201 -2.75545482274659e-17 #
cur-twe-attrib $-1 $-1 $-1 $349 344 #
