700 0 2 0           
24 FBMach with ACIS - 7.0.3 13 ACIS 7.0.3 NT 24 Tue May 14 12:04:42 2002 
1 9.9999999999999995e-007 1e-010 
body $2 -1 $-1 $3 $-1 $4 #
bdycol-kcp $-1 -1 1 9 $5 $6 $7 $8 $9 $10 $11 $12 $13 #
model_id-kcp-attrib $-1 -1 $-1 $-1 $0 1 1021392281 1021392281 1048838145 1 #
lump $-1 -1 $-1 $-1 $14 $0 #
transform $-1 -1 1 0 0 0 1 0 0 0 1 0 0 0 1 rotate no_reflect no_shear #
body $15 -1 $-1 $16 $-1 $17 #
body $18 -1 $-1 $19 $-1 $20 #
body $21 -1 $-1 $22 $-1 $23 #
body $24 -1 $-1 $25 $-1 $26 #
body $27 -1 $-1 $28 $-1 $29 #
body $30 -1 $-1 $31 $-1 $32 #
body $33 -1 $-1 $34 $-1 $35 #
body $36 -1 $-1 $37 $-1 $38 #
body $39 -1 $-1 $40 $-1 $41 #
shell $-1 -1 $-1 $-1 $-1 $42 $-1 $3 #
rgb_color-st-attrib $-1 -1 $43 $-1 $5 0.5 1 1 #
lump $-1 -1 $-1 $-1 $44 $5 #
transform $-1 -1 1 0 0 0 -3.8285889215894375e-016 1 0 -1 -3.8285889215894375e-016 1 0.84400000000000008 -7.8868931784742364e-017 1 rotate no_reflect no_shear #
rgb_color-st-attrib $-1 -1 $45 $-1 $6 0.5 1 1 #
lump $-1 -1 $-1 $-1 $46 $6 #
transform $-1 -1 1 0 0 0 -3.8285889215894375e-016 1 0 -1 -3.8285889215894375e-016 1 0.34399999999999997 -2.7029837786421429e-016 1 rotate no_reflect no_shear #
rgb_color-st-attrib $-1 -1 $47 $-1 $7 0.5 1 1 #
lump $-1 -1 $-1 $-1 $48 $7 #
transform $-1 -1 1 0 0 0 -3.8285889215894375e-016 -1 0 1 -3.8285889215894375e-016 -1 0.84400000000000008 7.8868931784742364e-017 1 rotate no_reflect no_shear #
rgb_color-st-attrib $-1 -1 $49 $-1 $8 0.5 1 1 #
lump $-1 -1 $-1 $-1 $50 $8 #
transform $-1 -1 1 0 0 0 -3.8285889215894375e-016 -1 0 1 -3.8285889215894375e-016 -1 0.34399999999999997 2.7029837786421429e-016 1 rotate no_reflect no_shear #
rgb_color-st-attrib $-1 -1 $51 $-1 $9 0.5 1 1 #
lump $-1 -1 $-1 $-1 $52 $9 #
transform $-1 -1 1 0 0 0 -3.8285889215894375e-016 1 0 -1 -3.8285889215894375e-016 0 0.66749999999999987 -1.4548637902039872e-016 1 rotate no_reflect no_shear #
rgb_color-st-attrib $-1 -1 $53 $-1 $10 0.5 1 1 #
lump $-1 -1 $-1 $-1 $54 $10 #
transform $-1 -1 1 0 0 0 -3.8285889215894375e-016 1 0 -1 -3.8285889215894375e-016 0 0.2600968196406005 -3.0146430931482873e-016 1 rotate no_reflect no_shear #
model_id-kcp-attrib $-1 -1 $-1 $-1 $11 1 1021392281 1021392281 1048838146 1 #
lump $-1 -1 $-1 $-1 $55 $11 #
transform $-1 -1 1 0 0 0 1 0 0 0 1 0 0.5 0 1 no_rotate no_reflect no_shear #
rgb_color-st-attrib $-1 -1 $56 $-1 $12 1 1 0.5 #
lump $-1 -1 $-1 $-1 $57 $12 #
transform $-1 -1 1 0 0 0 0 1 0 -1 0 1 0.44897698855549473 0 1 rotate no_reflect no_shear #
rgb_color-st-attrib $-1 -1 $58 $-1 $13 1 1 0.5 #
lump $-1 -1 $-1 $-1 $59 $13 #
transform $-1 -1 1 0 0 0 0 1 0 -1 0 -1 0.44897698855549428 0 1 rotate no_reflect no_shear #
face $60 -1 $-1 $61 $62 $14 $-1 $63 reversed single #
model_id-kcp-attrib $-1 -1 $-1 $15 $5 1 1021392281 1021392281 1043267589 1 #
shell $-1 -1 $-1 $-1 $-1 $64 $-1 $16 #
model_id-kcp-attrib $-1 -1 $-1 $18 $6 1 1021392281 1021392281 1043267590 1 #
shell $-1 -1 $-1 $-1 $-1 $65 $-1 $19 #
model_id-kcp-attrib $-1 -1 $-1 $21 $7 1 1021392281 1021392281 1043922951 1 #
shell $-1 -1 $-1 $-1 $-1 $66 $-1 $22 #
model_id-kcp-attrib $-1 -1 $-1 $24 $8 1 1021392281 1021392281 1043922952 1 #
shell $-1 -1 $-1 $-1 $-1 $67 $-1 $25 #
model_id-kcp-attrib $-1 -1 $-1 $27 $9 1 1021392281 1021392281 1043922953 1 #
shell $-1 -1 $-1 $-1 $-1 $68 $-1 $28 #
model_id-kcp-attrib $-1 -1 $-1 $30 $10 1 1021392281 1021392281 1043922954 1 #
shell $-1 -1 $-1 $-1 $-1 $69 $-1 $31 #
shell $-1 -1 $-1 $-1 $-1 $70 $-1 $34 #
model_id-kcp-attrib $-1 -1 $-1 $36 $12 1 1021392281 1021392281 1050148867 1 #
shell $-1 -1 $-1 $-1 $-1 $71 $-1 $37 #
model_id-kcp-attrib $-1 -1 $-1 $39 $13 1 1021392281 1021392281 1050148868 1 #
shell $-1 -1 $-1 $-1 $-1 $72 $-1 $40 #
model_id-kcp-attrib $-1 -1 $73 $-1 $42 1 1021392281 1021392281 1048838145 2 #
face $74 -1 $-1 $75 $76 $14 $-1 $77 forward single #
loop $78 -1 $-1 $79 $80 $42 #
plane-surface $81 -1 $-1 0 0 0 0 1 0 0 0 1 forward_v I I I I #
face $-1 -1 $-1 $82 $83 $44 $-1 $84 forward single #
face $-1 -1 $-1 $85 $86 $46 $-1 $87 forward single #
face $-1 -1 $-1 $88 $89 $48 $-1 $90 forward single #
face $-1 -1 $-1 $91 $92 $50 $-1 $93 forward single #
face $-1 -1 $-1 $94 $95 $52 $-1 $96 forward single #
face $-1 -1 $-1 $97 $98 $54 $-1 $99 forward single #
face $100 -1 $-1 $101 $102 $55 $-1 $103 forward single #
face $-1 -1 $-1 $104 $105 $57 $-1 $106 reversed single #
face $-1 -1 $-1 $107 $108 $59 $-1 $109 reversed single #
face_name-twe-attrib $-1 -1 $-1 $60 $42 1 #
model_id-kcp-attrib $-1 -1 $110 $-1 $61 1 1021392281 1021392281 1048838145 3 #
face $111 -1 $-1 $112 $113 $14 $-1 $114 forward single #
loop $115 -1 $-1 $116 $117 $61 #
plane-surface $118 -1 $-1 0 1 0 0 1 0 0 0 1 forward_v I I I I #
loop_type-twe-attrib $-1 -1 $-1 $-1 $62 0 #
loop $119 -1 $-1 $120 $121 $42 #
coedge $-1 -1 $-1 $122 $123 $124 $125 forward $62 $-1 #
surf-twe-attrib $-1 -1 $-1 $-1 $63 4 #
face $-1 -1 $-1 $126 $127 $44 $-1 $128 forward single #
loop $-1 -1 $-1 $129 $130 $64 #
cone-surface $-1 -1 $-1 0 0 0 0 0 1 0.40625 0 0 1 I I 0 1 0.40625 forward I I I I #
face $-1 -1 $-1 $131 $132 $46 $-1 $133 forward single #
loop $-1 -1 $-1 $134 $135 $65 #
cone-surface $-1 -1 $-1 0 0 0 0 0 1 0.25 0 0 1 I I 0 1 0.25 forward I I I I #
face $-1 -1 $-1 $136 $137 $48 $-1 $138 forward single #
loop $-1 -1 $-1 $139 $140 $66 #
cone-surface $-1 -1 $-1 0 0 0 0 0 1 0.40625 0 0 1 I I 0 1 0.40625 forward I I I I #
face $-1 -1 $-1 $141 $142 $50 $-1 $143 forward single #
loop $-1 -1 $-1 $144 $145 $67 #
cone-surface $-1 -1 $-1 0 0 0 0 0 1 0.25 0 0 1 I I 0 1 0.25 forward I I I I #
face $-1 -1 $-1 $146 $147 $52 $-1 $148 forward single #
loop $-1 -1 $-1 $149 $150 $68 #
cone-surface $-1 -1 $-1 0 0 0 0 0 1 0.25 0 0 1 I I 0 1 0.25 forward I I I I #
face $-1 -1 $-1 $151 $152 $54 $-1 $153 forward single #
loop $-1 -1 $-1 $154 $155 $69 #
cone-surface $-1 -1 $-1 0 3.5602170144747822e-016 0.14250000000000007 0 3.8285889215894375e-016 1 0.1125 0 0 1 I I -0.85716730070211233 0.51503807491005416 0.1125 forward I I I I #
model_id-kcp-attrib $-1 -1 $-1 $-1 $70 1 1021392281 1021392281 1048838146 7 #
face $156 -1 $-1 $157 $158 $55 $-1 $159 reversed single #
loop $-1 -1 $-1 $-1 $160 $70 #
plane-surface $-1 -1 $-1 0 0 1 0 0 1 1 0 0 forward_v I I I I #
face $-1 -1 $-1 $161 $162 $57 $-1 $163 forward single #
loop $-1 -1 $-1 $164 $165 $71 #
cone-surface $-1 -1 $-1 0 0 0 0 0 1 0.25 0 0 1 I I 0 1 0.25 forward I I I I #
face $-1 -1 $-1 $166 $167 $59 $-1 $168 forward single #
loop $-1 -1 $-1 $169 $170 $72 #
cone-surface $-1 -1 $-1 0 0 0 0 0 1 0.25 0 0 1 I I 0 1 0.25 forward I I I I #
face_name-twe-attrib $-1 -1 $-1 $74 $61 2 #
model_id-kcp-attrib $-1 -1 $171 $-1 $75 1 1021392281 1021392281 1048838145 4 #
face $172 -1 $-1 $173 $174 $14 $-1 $175 forward single #
loop $176 -1 $-1 $-1 $124 $75 #
plane-surface $177 -1 $-1 2 0 1 1 0 0 0 0 -1 forward_v I I I I #
loop_type-twe-attrib $-1 -1 $-1 $-1 $76 0 #
loop $178 -1 $-1 $179 $180 $61 #
coedge $-1 -1 $-1 $181 $182 $183 $184 reversed $76 $-1 #
surf-twe-attrib $-1 -1 $-1 $-1 $77 6 #
model_id-kcp-attrib $-1 -1 $185 $-1 $79 1 1021392281 1021392281 1048838145 26 #
loop $186 -1 $-1 $-1 $187 $42 #
coedge $-1 -1 $-1 $121 $121 $188 $189 forward $79 $-1 #
coedge $-1 -1 $-1 $190 $80 $191 $192 forward $62 $-1 #
coedge $-1 -1 $-1 $80 $190 $193 $194 forward $62 $-1 #
coedge $-1 -1 $-1 $195 $196 $80 $125 reversed $113 $-1 #
edge $197 -1 $-1 $198 -2 $199 0 $124 $200 forward @7 unknown #
face $-1 -1 $-1 $-1 $201 $44 $-1 $202 forward single #
loop $-1 -1 $-1 $-1 $203 $82 #
plane-surface $-1 -1 $-1 0 0 -0.15600000000000019 0 0 -1 -1 0 0 forward_v I I I I #
loop $-1 -1 $-1 $-1 $204 $64 #
coedge $-1 -1 $-1 $130 $130 $203 $205 reversed $83 $-1 #
face $-1 -1 $-1 $-1 $206 $46 $-1 $207 forward single #
loop $-1 -1 $-1 $-1 $208 $85 #
plane-surface $-1 -1 $-1 0 0 -0.34400000000000008 0 0 -1 -1 0 0 forward_v I I I I #
loop $-1 -1 $-1 $-1 $209 $65 #
coedge $-1 -1 $-1 $135 $135 $208 $210 reversed $86 $-1 #
face $-1 -1 $-1 $-1 $211 $48 $-1 $212 forward single #
loop $-1 -1 $-1 $-1 $213 $88 #
plane-surface $-1 -1 $-1 0 0 -0.15600000000000019 0 0 -1 -1 0 0 forward_v I I I I #
loop $-1 -1 $-1 $-1 $214 $66 #
coedge $-1 -1 $-1 $140 $140 $213 $215 reversed $89 $-1 #
face $-1 -1 $-1 $-1 $216 $50 $-1 $217 forward single #
loop $-1 -1 $-1 $-1 $218 $91 #
plane-surface $-1 -1 $-1 0 0 -0.34400000000000008 0 0 -1 -1 0 0 forward_v I I I I #
loop $-1 -1 $-1 $-1 $219 $67 #
coedge $-1 -1 $-1 $145 $145 $218 $220 reversed $92 $-1 #
face $-1 -1 $-1 $-1 $221 $52 $-1 $222 forward single #
loop $-1 -1 $-1 $-1 $223 $94 #
plane-surface $-1 -1 $-1 0 0 -0.33250000000000013 0 0 -1 -1 0 0 forward_v I I I I #
loop $-1 -1 $-1 $-1 $224 $68 #
coedge $-1 -1 $-1 $150 $150 $223 $225 reversed $95 $-1 #
face $-1 -1 $-1 $-1 $226 $54 $-1 $227 forward single #
loop $-1 -1 $-1 $228 $229 $97 #
cone-surface $-1 -1 $-1 0 0 0 0 0 1 0.22500000000000001 0 0 1 I I 0 1 0.22500000000000001 forward I I I I #
loop $-1 -1 $-1 $-1 $230 $69 #
coedge $-1 -1 $-1 $155 $155 $231 $232 forward $98 $-1 #
model_id-kcp-attrib $-1 -1 $-1 $-1 $101 1 1021392281 1021392281 1048838146 5 #
face $233 -1 $-1 $234 $235 $55 $-1 $236 reversed single #
loop $-1 -1 $-1 $-1 $237 $101 #
plane-surface $-1 -1 $-1 0 0 -1 0 0 1 1 0 0 forward_v I I I I #
coedge $-1 -1 $-1 $238 $239 $240 $241 forward $102 $-1 #
face $-1 -1 $-1 $-1 $242 $57 $-1 $243 forward single #
loop $-1 -1 $-1 $244 $245 $104 #
cone-surface $-1 -1 $-1 0 0 0 0 0 1 0.13800000000000001 0 0 1 I I -0.49999999999999978 0.86602540378443871 0.13800000000000001 forward I I I I #
loop $-1 -1 $-1 $-1 $246 $71 #
coedge $-1 -1 $-1 $165 $165 $245 $247 reversed $105 $-1 #
face $-1 -1 $-1 $-1 $248 $59 $-1 $249 forward single #
loop $-1 -1 $-1 $250 $251 $107 #
cone-surface $-1 -1 $-1 0 0 0 0 0 1 0.13800000000000001 0 0 1 I I -0.49999999999999911 0.86602540378443926 0.13800000000000001 forward I I I I #
loop $-1 -1 $-1 $-1 $252 $72 #
coedge $-1 -1 $-1 $170 $170 $251 $253 reversed $108 $-1 #
face_name-twe-attrib $-1 -1 $-1 $111 $75 3 #
model_id-kcp-attrib $-1 -1 $254 $-1 $112 1 1021392281 1021392281 1048838145 5 #
face $255 -1 $-1 $256 $257 $14 $-1 $258 forward single #
loop $259 -1 $-1 $-1 $193 $112 #
plane-surface $260 -1 $-1 2 0 -1 0 0 -1 -1 0 0 forward_v I I I I #
loop_type-twe-attrib $-1 -1 $-1 $-1 $113 0 #
surf-twe-attrib $-1 -1 $-1 $-1 $114 10 #
loop_type-twe-attrib $-1 -1 $-1 $-1 $116 1 #
loop $261 -1 $-1 $262 $263 $61 #
coedge $-1 -1 $-1 $180 $180 $264 $265 reversed $116 $-1 #
coedge $-1 -1 $-1 $266 $117 $267 $268 reversed $76 $-1 #
coedge $-1 -1 $-1 $117 $266 $269 $270 reversed $76 $-1 #
coedge $-1 -1 $-1 $196 $195 $117 $184 forward $113 $-1 #
edge $271 -1 $-1 $272 -2 $273 0 $183 $274 forward @7 unknown #
loop_type-twe-attrib $-1 -1 $-1 $119 $79 1 #
model_id-kcp-attrib $-1 -1 $275 $-1 $120 1 1021392281 1021392281 1048838145 35 #
coedge $-1 -1 $-1 $187 $187 $276 $277 reversed $120 $-1 #
coedge $-1 -1 $-1 $188 $188 $121 $189 reversed $278 $-1 #
edge $279 -1 $-1 $280 -3.1415926535897931 $280 3.1415926535897931 $188 $281 forward @7 unknown #
coedge $-1 -1 $-1 $123 $122 $282 $283 forward $62 $-1 #
coedge $-1 -1 $-1 $284 $285 $122 $192 reversed $286 $-1 #
edge $287 -1 $-1 $199 -4 $288 0 $191 $289 forward @7 unknown #
coedge $-1 -1 $-1 $290 $291 $123 $194 reversed $174 $-1 #
edge $292 -1 $-1 $293 -4 $198 0 $193 $294 forward @7 unknown #
coedge $-1 -1 $-1 $183 $124 $291 $295 reversed $113 $-1 #
coedge $-1 -1 $-1 $124 $183 $284 $296 forward $113 $-1 #
edge_name-twe-attrib $-1 -1 $-1 $-1 $125 1 8704 #
vertex $-1 -1 $-1 $295 $297 #
vertex $-1 -1 $-1 $296 $298 #
straight-curve $299 -1 $-1 2 0 1 0 0 1 I I #
loop $-1 -1 $-1 $-1 $300 $126 #
plane-surface $-1 -1 $-1 0 0 0.15600000000000019 0 0 1 1 0 0 forward_v I I I I #
coedge $-1 -1 $-1 $203 $203 $130 $205 forward $127 $-1 #
coedge $-1 -1 $-1 $204 $204 $300 $301 reversed $129 $-1 #
edge $-1 -1 $-1 $302 0 $302 6.2831853071795862 $203 $303 forward @7 unknown #
loop $-1 -1 $-1 $-1 $304 $131 #
plane-surface $-1 -1 $-1 0 0 0.34400000000000008 0 0 1 1 0 0 forward_v I I I I #
coedge $-1 -1 $-1 $208 $208 $135 $210 forward $132 $-1 #
coedge $-1 -1 $-1 $209 $209 $304 $305 reversed $134 $-1 #
edge $-1 -1 $-1 $306 0 $306 6.2831853071795862 $208 $307 forward @7 unknown #
loop $-1 -1 $-1 $-1 $308 $136 #
plane-surface $-1 -1 $-1 0 0 0.15600000000000019 0 0 1 1 0 0 forward_v I I I I #
coedge $-1 -1 $-1 $213 $213 $140 $215 forward $137 $-1 #
coedge $-1 -1 $-1 $214 $214 $308 $309 reversed $139 $-1 #
edge $-1 -1 $-1 $310 0 $310 6.2831853071795862 $213 $311 forward @7 unknown #
loop $-1 -1 $-1 $-1 $312 $141 #
plane-surface $-1 -1 $-1 0 0 0.34400000000000008 0 0 1 1 0 0 forward_v I I I I #
coedge $-1 -1 $-1 $218 $218 $145 $220 forward $142 $-1 #
coedge $-1 -1 $-1 $219 $219 $312 $313 reversed $144 $-1 #
edge $-1 -1 $-1 $314 0 $314 6.2831853071795862 $218 $315 forward @7 unknown #
loop $-1 -1 $-1 $-1 $316 $146 #
plane-surface $-1 -1 $-1 0 0 0.33250000000000013 0 0 1 1 0 0 forward_v I I I I #
coedge $-1 -1 $-1 $223 $223 $150 $225 forward $147 $-1 #
coedge $-1 -1 $-1 $224 $224 $316 $317 reversed $149 $-1 #
edge $-1 -1 $-1 $318 0 $318 6.2831853071795862 $223 $319 forward @7 unknown #
loop $-1 -1 $-1 $-1 $320 $151 #
plane-surface $-1 -1 $-1 0 0 -0.074903180359399607 0 0 -1 -1 0 0 forward_v I I I I #
loop $-1 -1 $-1 $-1 $231 $97 #
coedge $-1 -1 $-1 $229 $229 $320 $321 reversed $152 $-1 #
coedge $-1 -1 $-1 $230 $230 $-1 $322 reversed $154 $-1 #
coedge $-1 -1 $-1 $231 $231 $155 $232 reversed $228 $-1 #
edge $-1 -1 $-1 $323 0 $323 6.2831853071795862 $231 $324 forward @7 unknown #
model_id-kcp-attrib $-1 -1 $-1 $-1 $157 1 1021392281 1021392281 1048838146 2 #
face $325 -1 $-1 $326 $327 $55 $-1 $328 reversed single #
loop $-1 -1 $-1 $-1 $329 $157 #
plane-surface $-1 -1 $-1 0 -0.5 0 0 1 0 0 0 1 forward_v I I I I #
coedge $-1 -1 $-1 $330 $331 $332 $333 forward $158 $-1 #
coedge $-1 -1 $-1 $334 $160 $335 $336 forward $102 $-1 #
coedge $-1 -1 $-1 $160 $334 $337 $338 forward $102 $-1 #
coedge $-1 -1 $-1 $339 $340 $160 $241 reversed $341 $-1 #
edge $-1 -1 $-1 $342 -0.5 $343 0.5 $240 $344 forward @7 unknown #
loop $-1 -1 $-1 $345 $346 $161 #
plane-surface $-1 -1 $-1 0 0 -0.23902301144450519 0 0 -1 -1 0 0 forward_v I I I I #
loop $-1 -1 $-1 $-1 $347 $104 #
coedge $-1 -1 $-1 $245 $245 $165 $247 forward $162 $-1 #
coedge $-1 -1 $-1 $246 $246 $346 $348 reversed $164 $-1 #
edge $-1 -1 $-1 $349 -3.1415926535897931 $349 3.1415926535897931 $245 $350 forward @7 unknown #
loop $-1 -1 $-1 $351 $352 $166 #
plane-surface $-1 -1 $-1 0 0 -0.23902301144450569 0 0 -1 -1 0 0 forward_v I I I I #
loop $-1 -1 $-1 $-1 $353 $107 #
coedge $-1 -1 $-1 $251 $251 $170 $253 forward $167 $-1 #
coedge $-1 -1 $-1 $252 $252 $352 $354 reversed $169 $-1 #
edge $-1 -1 $-1 $355 -3.1415926535897931 $355 3.1415926535897931 $251 $356 forward @7 unknown #
face_name-twe-attrib $-1 -1 $-1 $172 $112 4 #
model_id-kcp-attrib $-1 -1 $357 $-1 $173 1 1021392281 1021392281 1048838145 6 #
face $358 -1 $-1 $359 $286 $14 $-1 $360 forward single #
loop $361 -1 $-1 $-1 $282 $173 #
plane-surface $362 -1 $-1 -2 0 -1 -1 0 0 0 0 1 forward_v I I I I #
loop_type-twe-attrib $-1 -1 $-1 $-1 $174 0 #
surf-twe-attrib $-1 -1 $-1 $-1 $175 18 #
loop_type-twe-attrib $-1 -1 $-1 $-1 $179 1 #
loop $363 -1 $-1 $-1 $364 $61 #
coedge $-1 -1 $-1 $263 $263 $365 $366 forward $179 $-1 #
coedge $-1 -1 $-1 $264 $264 $180 $265 forward $367 $-1 #
edge $368 -1 $-1 $369 0 $369 6.2831853071795862 $264 $370 forward @7 unknown #
coedge $-1 -1 $-1 $182 $181 $371 $372 reversed $76 $-1 #
coedge $-1 -1 $-1 $291 $290 $181 $268 forward $174 $-1 #
edge $373 -1 $-1 $374 -4 $272 0 $267 $375 forward @7 unknown #
coedge $-1 -1 $-1 $285 $284 $182 $270 forward $286 $-1 #
edge $376 -1 $-1 $273 -4 $377 0 $269 $378 forward @7 unknown #
attrib_edge_convexity-kcp-attrib $-1 -1 $379 $-1 $184 1 #
vertex $-1 -1 $-1 $295 $380 #
vertex $-1 -1 $-1 $296 $381 #
straight-curve $382 -1 $-1 2 1 1 0 0 1 I I #
loop_type-twe-attrib $-1 -1 $-1 $186 $120 1 #
coedge $-1 -1 $-1 $276 $276 $187 $277 forward $383 $-1 #
edge $384 -1 $-1 $385 0 $385 6.2831853071795862 $276 $386 forward @7 unknown #
loop $387 -1 $-1 $-1 $188 $388 #
attrib_edge_convexity-kcp-attrib $-1 -1 $389 $-1 $189 1 #
vertex $390 -1 $-1 $189 $391 #
ellipse-curve $392 -1 $-1 1 0 0 0 1 0 0.25 0 0 1 I I #
coedge $-1 -1 $-1 $393 $394 $190 $283 reversed $257 $-1 #
edge $395 -1 $-1 $288 -2 $293 0 $282 $396 forward @7 unknown #
coedge $-1 -1 $-1 $269 $191 $196 $296 reversed $286 $-1 #
coedge $-1 -1 $-1 $191 $269 $393 $397 forward $286 $-1 #
loop $398 -1 $-1 $-1 $191 $256 #
attrib_edge_convexity-kcp-attrib $-1 -1 $399 $-1 $192 1 #
vertex $-1 -1 $-1 $397 $400 #
straight-curve $401 -1 $-1 -2 0 1 -1 0 0 I I #
coedge $-1 -1 $-1 $267 $193 $394 $402 reversed $174 $-1 #
coedge $-1 -1 $-1 $193 $267 $195 $295 forward $174 $-1 #
edge_name-twe-attrib $-1 -1 $-1 $-1 $194 3 8704 #
vertex $-1 -1 $-1 $402 $403 #
straight-curve $404 -1 $-1 2 0 -1 1 0 0 I I #
edge $405 -1 $-1 $272 -1 $198 0 $291 $406 forward @7 unknown #
edge $407 -1 $-1 $273 -1 $199 0 $284 $408 forward @7 unknown #
point $-1 -1 $-1 2 0 -1 #
point $-1 -1 $-1 2 0 1 #
cur-twe-attrib $-1 -1 $-1 $-1 $200 31 #
coedge $-1 -1 $-1 $300 $300 $204 $301 forward $201 $-1 #
edge $-1 -1 $-1 $409 0 $409 6.2831853071795862 $300 $410 forward @7 unknown #
vertex $-1 -1 $-1 $205 $411 #
ellipse-curve $-1 -1 $-1 0 0 -0.15600000000000019 0 0 -1 0.40625 0 0 1 I I #
coedge $-1 -1 $-1 $304 $304 $209 $305 forward $206 $-1 #
edge $-1 -1 $-1 $412 0 $412 6.2831853071795862 $304 $413 forward @7 unknown #
vertex $-1 -1 $-1 $210 $414 #
ellipse-curve $-1 -1 $-1 0 0 -0.34400000000000008 0 0 -1 0.25 0 0 1 I I #
coedge $-1 -1 $-1 $308 $308 $214 $309 forward $211 $-1 #
edge $-1 -1 $-1 $415 0 $415 6.2831853071795862 $308 $416 forward @7 unknown #
vertex $-1 -1 $-1 $215 $417 #
ellipse-curve $-1 -1 $-1 0 0 -0.15600000000000019 0 0 -1 0.40625 0 0 1 I I #
coedge $-1 -1 $-1 $312 $312 $219 $313 forward $216 $-1 #
edge $-1 -1 $-1 $418 0 $418 6.2831853071795862 $312 $419 forward @7 unknown #
vertex $-1 -1 $-1 $220 $420 #
ellipse-curve $-1 -1 $-1 0 0 -0.34400000000000008 0 0 -1 0.25 0 0 1 I I #
coedge $-1 -1 $-1 $316 $316 $224 $317 forward $221 $-1 #
edge $-1 -1 $-1 $421 0 $421 6.2831853071795862 $316 $422 forward @7 unknown #
vertex $-1 -1 $-1 $225 $423 #
ellipse-curve $-1 -1 $-1 0 0 -0.33250000000000013 0 0 -1 0.25 0 0 1 I I #
coedge $-1 -1 $-1 $320 $320 $229 $321 forward $226 $-1 #
edge $-1 -1 $-1 $424 0 $424 6.2831853071795862 $320 $425 forward @7 unknown #
edge $-1 -1 $-1 $426 1 $426 0 $230 $-1 forward @7 unknown #
vertex $-1 -1 $-1 $232 $427 #
ellipse-curve $-1 -1 $-1 0 0 0.074903180359399607 0 0 1 0.22500000000000001 0 0 1 I I #
model_id-kcp-attrib $-1 -1 $-1 $-1 $234 1 1021392281 1021392281 1048838146 6 #
face $428 -1 $-1 $429 $430 $55 $-1 $431 reversed single #
loop $-1 -1 $-1 $-1 $432 $234 #
plane-surface $-1 -1 $-1 -2 0 0 1 0 0 0 0 -1 forward_v I I I I #
coedge $-1 -1 $-1 $433 $337 $434 $435 forward $235 $-1 #
coedge $-1 -1 $-1 $436 $237 $433 $437 forward $158 $-1 #
coedge $-1 -1 $-1 $237 $436 $438 $439 forward $158 $-1 #
coedge $-1 -1 $-1 $340 $339 $237 $333 reversed $341 $-1 #
edge $-1 -1 $-1 $440 -0.5 $441 0.5 $332 $442 forward @7 unknown #
coedge $-1 -1 $-1 $239 $238 $443 $444 forward $102 $-1 #
coedge $-1 -1 $-1 $445 $446 $238 $336 reversed $430 $-1 #
edge $-1 -1 $-1 $343 -2 $447 2 $335 $448 forward @7 unknown #
coedge $-1 -1 $-1 $329 $449 $239 $338 reversed $235 $-1 #
edge $-1 -1 $-1 $450 -2 $342 2 $337 $451 forward @7 unknown #
coedge $-1 -1 $-1 $332 $240 $449 $452 forward $341 $-1 #
coedge $-1 -1 $-1 $240 $332 $445 $453 reversed $341 $-1 #
loop $-1 -1 $-1 $-1 $339 $429 #
vertex $-1 -1 $-1 $241 $454 #
vertex $-1 -1 $-1 $241 $455 #
straight-curve $-1 -1 $-1 2 0 1 0 1 0 I I #
loop $-1 -1 $-1 $-1 $456 $161 #
coedge $-1 -1 $-1 $346 $346 $246 $348 forward $242 $-1 #
coedge $-1 -1 $-1 $347 $347 $456 $457 reversed $244 $-1 #
edge $-1 -1 $-1 $458 0 $458 6.2831853071795862 $346 $459 forward @7 unknown #
vertex $-1 -1 $-1 $247 $460 #
ellipse-curve $-1 -1 $-1 0 0 -0.19398969044771433 0 0 -1 0.25 0 0 1 I I #
loop $-1 -1 $-1 $-1 $461 $166 #
coedge $-1 -1 $-1 $352 $352 $252 $354 forward $248 $-1 #
coedge $-1 -1 $-1 $353 $353 $461 $462 reversed $250 $-1 #
edge $-1 -1 $-1 $463 0 $463 6.2831853071795862 $352 $464 forward @7 unknown #
vertex $-1 -1 $-1 $253 $465 #
ellipse-curve $-1 -1 $-1 0 0 -0.19398969044771472 0 0 -1 0.25 0 0 1 I I #
face_name-twe-attrib $-1 -1 $-1 $255 $173 5 #
model_id-kcp-attrib $-1 -1 $466 $-1 $256 1 1021392281 1021392281 1048838145 7 #
face $467 -1 $-1 $468 $469 $14 $-1 $470 reversed single #
plane-surface $471 -1 $-1 -2 0 1 0 0 1 1 0 0 forward_v I I I I #
loop_type-twe-attrib $-1 -1 $-1 $-1 $257 0 #
surf-twe-attrib $-1 -1 $-1 $-1 $258 33 #
loop_type-twe-attrib $-1 -1 $-1 $-1 $262 1 #
coedge $-1 -1 $-1 $364 $364 $472 $473 reversed $262 $-1 #
coedge $-1 -1 $-1 $365 $365 $263 $366 reversed $474 $-1 #
edge $475 -1 $-1 $476 -3.1415926535897931 $476 3.1415926535897931 $365 $477 forward @7 unknown #
loop $478 -1 $-1 $479 $264 $468 #
attrib_edge_convexity-kcp-attrib $-1 -1 $480 $-1 $265 1 #
vertex $-1 -1 $-1 $265 $481 #
ellipse-curve $482 -1 $-1 1 1 0 0 1 0 -0.40625 0 0 1 I I #
coedge $-1 -1 $-1 $394 $393 $266 $372 forward $257 $-1 #
edge $483 -1 $-1 $377 -2 $374 0 $371 $484 forward @7 unknown #
attrib_edge_convexity-kcp-attrib $-1 -1 $485 $-1 $268 1 #
vertex $-1 -1 $-1 $402 $486 #
straight-curve $487 -1 $-1 2 1 -1 1 0 0 I I #
attrib_edge_convexity-kcp-attrib $-1 -1 $488 $-1 $270 1 #
vertex $-1 -1 $-1 $397 $489 #
straight-curve $490 -1 $-1 -2 1 1 -1 0 0 I I #
convexity-sys-attrib $-1 -1 $491 $271 $184 #
point $-1 -1 $-1 2 1 -1 #
point $-1 -1 $-1 2 1 1 #
cur-twe-attrib $-1 -1 $-1 $-1 $274 44 #
loop $492 -1 $-1 $-1 $276 $493 #
attrib_edge_convexity-kcp-attrib $-1 -1 $494 $-1 $277 1 #
vertex $495 -1 $-1 $277 $496 #
ellipse-curve $497 -1 $-1 -1 0 0 0 -1 0 0.25 0 0 1 I I #
model_id-kcp-attrib $-1 -1 $498 $-1 $278 1 1021392281 1021392281 1048838145 23 #
face $499 -1 $-1 $500 $501 $14 $-1 $502 reversed single #
convexity-sys-attrib $-1 -1 $503 $279 $189 #
model_id-kcp-attrib $-1 -1 $-1 $-1 $280 1 1021392281 1021392281 1048838145 29 #
point $-1 -1 $-1 0.75 0 0 #
cur-twe-attrib $-1 -1 $-1 $-1 $281 48 #
coedge $-1 -1 $-1 $371 $282 $285 $397 reversed $257 $-1 #
coedge $-1 -1 $-1 $282 $371 $290 $402 forward $257 $-1 #
attrib_edge_convexity-kcp-attrib $-1 -1 $504 $-1 $283 1 #
straight-curve $505 -1 $-1 -2 0 -1 0 0 -1 I I #
edge $506 -1 $-1 $377 -1 $288 0 $285 $507 forward @7 unknown #
loop_type-twe-attrib $-1 -1 $-1 $-1 $286 0 #
convexity-sys-attrib $-1 -1 $508 $287 $192 #
point $-1 -1 $-1 -2 0 1 #
cur-twe-attrib $-1 -1 $-1 $-1 $289 51 #
edge $509 -1 $-1 $374 -1 $293 0 $394 $510 forward @7 unknown #
point $-1 -1 $-1 -2 0 -1 #
cur-twe-attrib $-1 -1 $-1 $-1 $294 53 #
edge_name-twe-attrib $-1 -1 $-1 $-1 $295 5 8704 #
straight-curve $511 -1 $-1 2 0 -1 0 -1 0 I I #
attrib_edge_convexity-kcp-attrib $-1 -1 $512 $-1 $296 1 #
straight-curve $513 -1 $-1 2 0 1 0 -1 0 I I #
vertex $-1 -1 $-1 $301 $514 #
ellipse-curve $-1 -1 $-1 0 0 0.15600000000000019 0 0 1 0.40625 0 0 1 I I #
point $-1 -1 $-1 0.40625 0 -0.15600000000000019 #
vertex $-1 -1 $-1 $305 $515 #
ellipse-curve $-1 -1 $-1 0 0 0.34400000000000008 0 0 1 0.25 0 0 1 I I #
point $-1 -1 $-1 0.25 0 -0.34400000000000008 #
vertex $-1 -1 $-1 $309 $516 #
ellipse-curve $-1 -1 $-1 0 0 0.15600000000000019 0 0 1 0.40625 0 0 1 I I #
point $-1 -1 $-1 0.40625 0 -0.15600000000000019 #
vertex $-1 -1 $-1 $313 $517 #
ellipse-curve $-1 -1 $-1 0 0 0.34400000000000008 0 0 1 0.25 0 0 1 I I #
point $-1 -1 $-1 0.25 0 -0.34400000000000008 #
vertex $-1 -1 $-1 $317 $518 #
ellipse-curve $-1 -1 $-1 0 0 0.33250000000000013 0 0 1 0.25 0 0 1 I I #
point $-1 -1 $-1 0.25 0 -0.33250000000000013 #
vertex $-1 -1 $-1 $321 $519 #
ellipse-curve $-1 -1 $-1 0 0 -0.074903180359399607 0 0 -1 0.22500000000000001 0 0 1 I I #
vertex $-1 -1 $-1 $322 $520 #
point $-1 -1 $-1 0.22500000000000001 0 0.074903180359399607 #
model_id-kcp-attrib $-1 -1 $-1 $-1 $326 1 1021392281 1021392281 1048838146 3 #
face $521 -1 $-1 $-1 $341 $55 $-1 $522 reversed single #
loop $-1 -1 $-1 $-1 $445 $326 #
plane-surface $-1 -1 $-1 0 0.5 0 0 -1 0 0 0 -1 forward_v I I I I #
coedge $-1 -1 $-1 $523 $443 $446 $524 forward $327 $-1 #
coedge $-1 -1 $-1 $449 $329 $330 $437 reversed $235 $-1 #
coedge $-1 -1 $-1 $443 $523 $329 $435 reversed $327 $-1 #
edge $-1 -1 $-1 $450 -1 $525 1 $434 $526 forward @7 unknown #
coedge $-1 -1 $-1 $331 $330 $523 $527 forward $158 $-1 #
edge $-1 -1 $-1 $441 -2 $525 2 $433 $528 forward @7 unknown #
coedge $-1 -1 $-1 $446 $445 $331 $439 reversed $430 $-1 #
edge $-1 -1 $-1 $529 -2 $440 2 $438 $530 forward @7 unknown #
vertex $-1 -1 $-1 $333 $531 #
vertex $-1 -1 $-1 $452 $532 #
straight-curve $-1 -1 $-1 2 0 -1 0 -1 0 I I #
coedge $-1 -1 $-1 $432 $434 $334 $444 reversed $327 $-1 #
edge $-1 -1 $-1 $447 -0.5 $450 0.5 $443 $533 forward @7 unknown #
coedge $-1 -1 $-1 $438 $335 $340 $453 forward $430 $-1 #
coedge $-1 -1 $-1 $335 $438 $432 $524 reversed $430 $-1 #
vertex $-1 -1 $-1 $336 $534 #
straight-curve $-1 -1 $-1 0 0.5 1 -1 0 0 I I #
coedge $-1 -1 $-1 $337 $433 $339 $452 reversed $235 $-1 #
vertex $-1 -1 $-1 $444 $535 #
straight-curve $-1 -1 $-1 0 -0.5 1 1 0 0 I I #
edge $-1 -1 $-1 $342 -1 $441 1 $339 $536 forward @7 unknown #
edge $-1 -1 $-1 $343 -1 $440 1 $340 $537 forward @7 unknown #
point $-1 -1 $-1 2 -0.5 1 #
point $-1 -1 $-1 2 0.5 1 #
coedge $-1 -1 $-1 $456 $456 $347 $457 forward $345 $-1 #
edge $-1 -1 $-1 $538 0 $538 6.2831853071795862 $456 $539 forward @7 unknown #
vertex $-1 -1 $-1 $348 $540 #
ellipse-curve $-1 -1 $-1 0 0 -0.23902301144450519 0 0 1 0.25 0 0 1 I I #
point $-1 -1 $-1 -0.25 3.0615158845559431e-017 -0.19398969044771433 #
coedge $-1 -1 $-1 $461 $461 $353 $462 forward $351 $-1 #
edge $-1 -1 $-1 $541 0 $541 6.2831853071795862 $461 $542 forward @7 unknown #
vertex $-1 -1 $-1 $354 $543 #
ellipse-curve $-1 -1 $-1 0 0 -0.23902301144450569 0 0 1 0.25 0 0 1 I I #
point $-1 -1 $-1 -0.25 3.0615158845559431e-017 -0.19398969044771472 #
face_name-twe-attrib $-1 -1 $-1 $358 $256 6 #
model_id-kcp-attrib $-1 -1 $544 $-1 $359 1 1021392281 1021392281 1048838145 8 #
face $545 -1 $-1 $546 $367 $14 $-1 $547 reversed single #
loop $548 -1 $-1 $549 $550 $359 #
plane-surface $551 -1 $-1 1 0.68799999999999994 0 0 -1 0 0 0 -1 forward_v I I I I #
surf-twe-attrib $-1 -1 $-1 $-1 $360 61 #
coedge $-1 -1 $-1 $472 $472 $364 $473 forward $552 $-1 #
edge $553 -1 $-1 $554 0 $554 6.2831853071795862 $472 $555 forward @7 unknown #
loop $556 -1 $-1 $557 $365 $558 #
attrib_edge_convexity-kcp-attrib $-1 -1 $559 $-1 $366 1 #
vertex $-1 -1 $-1 $366 $560 #
ellipse-curve $561 -1 $-1 -1 1 0 0 -1 0 -0.40625 0 0 1 I I #
loop_type-twe-attrib $-1 -1 $-1 $-1 $367 0 #
loop $562 -1 $-1 $-1 $563 $468 #
convexity-sys-attrib $-1 -1 $564 $368 $265 #
point $-1 -1 $-1 0.59375 1 0 #
cur-twe-attrib $-1 -1 $-1 $-1 $370 70 #
attrib_edge_convexity-kcp-attrib $-1 -1 $565 $-1 $372 1 #
straight-curve $566 -1 $-1 -2 1 -1 0 0 -1 I I #
convexity-sys-attrib $-1 -1 $567 $373 $268 #
point $-1 -1 $-1 -2 1 -1 #
cur-twe-attrib $-1 -1 $-1 $-1 $375 73 #
convexity-sys-attrib $-1 -1 $568 $376 $270 #
point $-1 -1 $-1 -2 1 1 #
cur-twe-attrib $-1 -1 $-1 $-1 $378 75 #
edge_name-twe-attrib $-1 -1 $-1 $379 $184 2 8704 #
model_id-kcp-attrib $-1 -1 $569 $-1 $383 1 1021392281 1021392281 1048838145 32 #
face $570 -1 $-1 $571 $572 $14 $-1 $573 reversed single #
convexity-sys-attrib $-1 -1 $574 $384 $277 #
model_id-kcp-attrib $-1 -1 $-1 $-1 $385 1 1021392281 1021392281 1048838145 38 #
point $-1 -1 $-1 -0.75 0 0 #
cur-twe-attrib $-1 -1 $-1 $-1 $386 81 #
loop_type-twe-attrib $-1 -1 $-1 $387 $278 1 #
model_id-kcp-attrib $-1 -1 $575 $-1 $388 1 1021392281 1021392281 1048838145 11 #
face $576 -1 $-1 $558 $577 $14 $-1 $578 forward single #
loop $579 -1 $-1 $278 $580 $388 #
cone-surface $581 -1 $-1 1 1.05 0 0 -1 0 -0.25 0 0 1 I I 0 1 0.25 forward I I I I #
edge_name-twe-attrib $-1 -1 $-1 $389 $189 17 8704 #
convexity-sys-attrib $-1 -1 $582 $395 $283 #
cur-twe-attrib $-1 -1 $-1 $-1 $396 87 #
attrib_edge_convexity-kcp-attrib $-1 -1 $583 $-1 $397 1 #
straight-curve $584 -1 $-1 -2 0 1 0 -1 0 I I #
edge_name-twe-attrib $-1 -1 $-1 $399 $192 9 8704 #
attrib_edge_convexity-kcp-attrib $-1 -1 $585 $-1 $402 1 #
straight-curve $586 -1 $-1 -2 0 -1 0 -1 0 I I #
cur-twe-attrib $-1 -1 $-1 $-1 $406 99 #
convexity-sys-attrib $-1 -1 $587 $407 $296 #
cur-twe-attrib $-1 -1 $-1 $-1 $408 100 #
point $-1 -1 $-1 0.40625 0 0.15600000000000019 #
point $-1 -1 $-1 0.25 0 0.34400000000000008 #
point $-1 -1 $-1 0.40625 0 0.15600000000000019 #
point $-1 -1 $-1 0.25 0 0.34400000000000008 #
point $-1 -1 $-1 0.25 0 0.33250000000000013 #
point $-1 -1 $-1 0.22500000000000001 0 -0.074903180359399607 #
point $-1 -1 $-1 0 3.8190174492854649e-016 0.21009681964060062 #
model_id-kcp-attrib $-1 -1 $-1 $-1 $429 1 1021392281 1021392281 1048838146 4 #
plane-surface $-1 -1 $-1 2 0 0 -1 0 0 0 0 1 forward_v I I I I #
coedge $-1 -1 $-1 $434 $432 $436 $527 reversed $327 $-1 #
edge $-1 -1 $-1 $447 -1 $529 1 $446 $588 forward @7 unknown #
vertex $-1 -1 $-1 $527 $589 #
straight-curve $-1 -1 $-1 -2 -0.5 0 0 0 -1 I I #
edge $-1 -1 $-1 $525 -0.5 $529 0.5 $523 $590 forward @7 unknown #
straight-curve $-1 -1 $-1 0 -0.5 -1 -1 0 0 I I #
vertex $-1 -1 $-1 $439 $591 #
straight-curve $-1 -1 $-1 0 0.5 -1 1 0 0 I I #
point $-1 -1 $-1 2 0.5 -1 #
point $-1 -1 $-1 2 -0.5 -1 #
straight-curve $-1 -1 $-1 -2 0 1 0 -1 0 I I #
point $-1 -1 $-1 -2 0.5 1 #
point $-1 -1 $-1 -2 -0.5 1 #
straight-curve $-1 -1 $-1 2 -0.5 0 0 0 -1 I I #
straight-curve $-1 -1 $-1 2 0.5 0 0 0 -1 I I #
vertex $-1 -1 $-1 $457 $592 #
ellipse-curve $-1 -1 $-1 0 0 -0.23902301144450519 0 0 -1 0.27600000000000002 0 0 1 I I #
point $-1 -1 $-1 0.25 0 -0.23902301144450519 #
vertex $-1 -1 $-1 $462 $593 #
ellipse-curve $-1 -1 $-1 0 0 -0.23902301144450569 0 0 -1 0.27600000000000002 0 0 1 I I #
point $-1 -1 $-1 0.25 0 -0.23902301144450569 #
face_name-twe-attrib $-1 -1 $-1 $467 $359 7 #
model_id-kcp-attrib $-1 -1 $594 $-1 $468 1 1021392281 1021392281 1048838145 9 #
face $595 -1 $-1 $388 $596 $14 $-1 $597 reversed single #
cone-surface $598 -1 $-1 1 1.05 0 0 -1 0 -0.40625 0 0 1 I I 0 1 0.40625 forward I I I I #
model_id-kcp-attrib $-1 -1 $599 $-1 $469 1 1021392281 1021392281 1048838145 27 #
loop $600 -1 $-1 $-1 $601 $359 #
coedge $-1 -1 $-1 $550 $550 $602 $603 forward $469 $-1 #
surf-twe-attrib $-1 -1 $604 $-1 $470 177 #
loop $605 -1 $-1 $606 $472 $607 #
attrib_edge_convexity-kcp-attrib $-1 -1 $608 $-1 $473 1 #
vertex $-1 -1 $-1 $473 $609 #
ellipse-curve $610 -1 $-1 0 1 0 0 1 0 -0.25 0 0 1 I I #
loop_type-twe-attrib $-1 -1 $-1 $-1 $474 0 #
loop $611 -1 $-1 $-1 $612 $558 #
face $613 -1 $-1 $614 $474 $14 $-1 $615 reversed single #
convexity-sys-attrib $-1 -1 $616 $475 $366 #
point $-1 -1 $-1 -0.59375 1 0 #
cur-twe-attrib $-1 -1 $-1 $-1 $477 112 #
loop_type-twe-attrib $-1 -1 $-1 $-1 $479 1 #
coedge $-1 -1 $-1 $563 $563 $601 $617 reversed $479 $-1 #
edge_name-twe-attrib $-1 -1 $-1 $480 $265 14 8704 #
convexity-sys-attrib $-1 -1 $618 $483 $372 #
cur-twe-attrib $-1 -1 $-1 $-1 $484 118 #
edge_name-twe-attrib $-1 -1 $-1 $485 $268 4 8704 #
edge_name-twe-attrib $-1 -1 $-1 $488 $270 11 8704 #
loop_type-twe-attrib $-1 -1 $-1 $492 $383 1 #
model_id-kcp-attrib $-1 -1 $619 $-1 $493 1 1021392281 1021392281 1048838145 15 #
face $620 -1 $-1 $607 $621 $14 $-1 $622 reversed single #
loop $623 -1 $-1 $383 $624 $493 #
cone-surface $625 -1 $-1 -1 1.05 0 0 1 0 0.25 0 0 1 I I 0 1 0.25 forward I I I I #
edge_name-twe-attrib $-1 -1 $-1 $494 $277 22 8704 #
face_name-twe-attrib $-1 -1 $-1 $499 $388 10 #
model_id-kcp-attrib $-1 -1 $626 $-1 $500 1 1021392281 1021392281 1048838145 12 #
loop $627 -1 $-1 $628 $629 $500 #
plane-surface $630 -1 $-1 -1 0.68799999999999994 0 0 1 0 0 0 1 forward_v I I I I #
model_id-kcp-attrib $-1 -1 $631 $-1 $501 1 1021392281 1021392281 1048838145 22 #
coedge $-1 -1 $-1 $580 $580 $632 $633 reversed $501 $-1 #
surf-twe-attrib $-1 -1 $-1 $-1 $502 133 #
edge_name-twe-attrib $-1 -1 $-1 $504 $283 6 8704 #
convexity-sys-attrib $-1 -1 $634 $506 $397 #
cur-twe-attrib $-1 -1 $-1 $-1 $507 140 #
convexity-sys-attrib $-1 -1 $635 $509 $402 #
cur-twe-attrib $-1 -1 $-1 $-1 $510 144 #
edge_name-twe-attrib $-1 -1 $-1 $512 $296 10 8704 #
straight-curve $-1 -1 $-1 -2 0.5 0 0 0 -1 I I #
point $-1 -1 $-1 -2 -0.5 -1 #
straight-curve $-1 -1 $-1 -2 0 -1 0 1 0 I I #
point $-1 -1 $-1 -2 0.5 -1 #
point $-1 -1 $-1 0.27600000000000002 0 -0.23902301144450519 #
point $-1 -1 $-1 0.27600000000000002 0 -0.23902301144450569 #
face_name-twe-attrib $-1 -1 $-1 $545 $468 8 #
model_id-kcp-attrib $-1 -1 $636 $-1 $546 1 1021392281 1021392281 1048838145 10 #
loop $637 -1 $-1 $638 $602 $546 #
cone-surface $639 -1 $-1 1 0.68799999999999994 0 0 1 0 -0.27600000000000002 0 0 1 I I 0.5 0.86602540378443904 0.27600000000000002 forward I I I I #
surf-twe-attrib $-1 -1 $-1 $-1 $547 152 #
loop_type-twe-attrib $-1 -1 $-1 $548 $469 1 #
loop_type-twe-attrib $-1 -1 $-1 $-1 $549 0 #
coedge $-1 -1 $-1 $601 $601 $563 $617 forward $549 $-1 #
coedge $-1 -1 $-1 $602 $602 $550 $603 reversed $596 $-1 #
edge $640 -1 $-1 $641 0 $641 6.2831853071795862 $602 $642 forward @7 unknown #
surf-twe-attrib $-1 -1 $-1 $551 $470 105 #
loop_type-twe-attrib $-1 -1 $-1 $-1 $552 0 #
loop $643 -1 $-1 $-1 $644 $607 #
face $645 -1 $-1 $646 $552 $14 $-1 $647 reversed single #
convexity-sys-attrib $-1 -1 $648 $553 $473 #
point $-1 -1 $-1 -0.25 1 0 #
cur-twe-attrib $-1 -1 $-1 $-1 $555 157 #
loop_type-twe-attrib $-1 -1 $-1 $-1 $557 1 #
coedge $-1 -1 $-1 $612 $612 $649 $650 forward $557 $-1 #
model_id-kcp-attrib $-1 -1 $651 $-1 $558 1 1021392281 1021392281 1048838145 13 #
face $652 -1 $-1 $493 $653 $14 $-1 $654 reversed single #
cone-surface $655 -1 $-1 -1 1.05 0 0 1 0 0.40625 0 0 1 I I 0 1 0.40625 forward I I I I #
edge_name-twe-attrib $-1 -1 $-1 $559 $366 19 8704 #
edge $656 -1 $-1 $657 -3.1415926535897931 $657 3.1415926535897931 $601 $658 forward @7 unknown #
edge_name-twe-attrib $-1 -1 $-1 $565 $372 7 8704 #
face_name-twe-attrib $-1 -1 $-1 $570 $493 14 #
model_id-kcp-attrib $-1 -1 $659 $-1 $571 1 1021392281 1021392281 1048838145 16 #
loop $660 -1 $-1 $661 $662 $571 #
plane-surface $663 -1 $-1 0 0.33500000000000002 0 0 -1 0 0 0 -1 forward_v I I I I #
model_id-kcp-attrib $-1 -1 $664 $-1 $572 1 1021392281 1021392281 1048838145 31 #
coedge $-1 -1 $-1 $624 $624 $665 $666 forward $572 $-1 #
surf-twe-attrib $-1 -1 $-1 $-1 $573 173 #
face_name-twe-attrib $-1 -1 $-1 $576 $500 11 #
model_id-kcp-attrib $-1 -1 $667 $-1 $577 1 1021392281 1021392281 1048838145 36 #
loop $668 -1 $-1 $-1 $649 $500 #
coedge $-1 -1 $-1 $629 $629 $669 $670 reversed $577 $-1 #
surf-twe-attrib $-1 -1 $671 $-1 $578 177 #
loop_type-twe-attrib $-1 -1 $-1 $579 $501 0 #
coedge $-1 -1 $-1 $632 $632 $580 $633 forward $638 $-1 #
edge $672 -1 $-1 $673 -3.1415926535897931 $673 3.1415926535897931 $580 $674 forward @7 unknown #
edge_name-twe-attrib $-1 -1 $-1 $583 $397 12 8704 #
edge_name-twe-attrib $-1 -1 $-1 $585 $402 8 8704 #
face_name-twe-attrib $-1 -1 $-1 $595 $546 9 #
model_id-kcp-attrib $-1 -1 $675 $-1 $596 1 1021392281 1021392281 1048838145 24 #
loop $676 -1 $-1 $-1 $632 $546 #
surf-twe-attrib $-1 -1 $-1 $-1 $597 188 #
attrib_edge_convexity-kcp-attrib $-1 -1 $677 $-1 $603 1 #
vertex $-1 -1 $-1 $603 $678 #
ellipse-curve $679 -1 $-1 1 0.68799999999999994 0 0 -1 0 -0.27600000000000002 0 0 1 I I #
loop_type-twe-attrib $-1 -1 $-1 $-1 $606 1 #
coedge $-1 -1 $-1 $644 $644 $680 $681 reversed $606 $-1 #
model_id-kcp-attrib $-1 -1 $682 $-1 $607 1 1021392281 1021392281 1048838145 17 #
face $683 -1 $-1 $684 $685 $14 $-1 $686 reversed single #
cone-surface $687 -1 $-1 0 1.0475000000000001 0 0 -1 0 -0.25 0 0 1 I I 0 1 0.25 forward I I I I #
edge_name-twe-attrib $-1 -1 $-1 $608 $473 24 8704 #
coedge $-1 -1 $-1 $649 $649 $612 $650 reversed $628 $-1 #
edge $688 -1 $-1 $689 0 $689 6.2831853071795862 $649 $690 forward @7 unknown #
face_name-twe-attrib $-1 -1 $-1 $613 $558 12 #
model_id-kcp-attrib $-1 -1 $691 $-1 $614 1 1021392281 1021392281 1048838145 14 #
loop $692 -1 $-1 $693 $669 $614 #
cone-surface $694 -1 $-1 -1 0.68799999999999994 0 0 1 0 0.27600000000000002 0 0 1 I I 0.499999999999999 0.86602540378443904 0.27600000000000002 forward I I I I #
surf-twe-attrib $-1 -1 $-1 $-1 $615 200 #
attrib_edge_convexity-kcp-attrib $-1 -1 $695 $-1 $617 2 #
vertex $-1 -1 $-1 $617 $696 #
ellipse-curve $697 -1 $-1 1 0.68799999999999994 0 0 1 0 -0.40625 0 0 1 I I #
face_name-twe-attrib $-1 -1 $-1 $620 $571 15 #
loop_type-twe-attrib $-1 -1 $-1 $-1 $621 1 #
loop $698 -1 $-1 $-1 $680 $571 #
coedge $-1 -1 $-1 $662 $662 $699 $700 forward $621 $-1 #
surf-twe-attrib $-1 -1 $-1 $-1 $622 207 #
loop_type-twe-attrib $-1 -1 $-1 $623 $572 0 #
coedge $-1 -1 $-1 $665 $665 $624 $666 reversed $693 $-1 #
edge $701 -1 $-1 $702 -3.1415926535897931 $702 3.1415926535897931 $624 $703 forward @7 unknown #
loop_type-twe-attrib $-1 -1 $-1 $627 $577 1 #
loop_type-twe-attrib $-1 -1 $-1 $-1 $628 0 #
coedge $-1 -1 $-1 $669 $669 $629 $670 forward $653 $-1 #
edge $704 -1 $-1 $705 0 $705 6.2831853071795862 $669 $706 forward @7 unknown #
surf-twe-attrib $-1 -1 $-1 $630 $578 105 #
attrib_edge_convexity-kcp-attrib $-1 -1 $707 $-1 $633 1 #
vertex $708 -1 $-1 $633 $709 #
ellipse-curve $710 -1 $-1 1 0.64296667900320903 0 0 -1 0 -0.25 0 0 1 I I #
loop_type-twe-attrib $-1 -1 $-1 $637 $596 0 #
model_id-kcp-attrib $-1 -1 $711 $-1 $638 1 1021392281 1021392281 1048838145 25 #
convexity-sys-attrib $-1 -1 $712 $640 $603 #
point $-1 -1 $-1 0.72399999999999998 0.68799999999999994 0 #
cur-twe-attrib $-1 -1 $-1 $-1 $642 225 #
coedge $-1 -1 $-1 $680 $680 $644 $681 forward $661 $-1 #
edge $713 -1 $-1 $714 -3.1415926535897931 $714 3.1415926535897931 $680 $715 forward @7 unknown #
face_name-twe-attrib $-1 -1 $-1 $645 $607 16 #
model_id-kcp-attrib $-1 -1 $716 $-1 $646 1 1021392281 1021392281 1048838145 18 #
face $717 -1 $-1 $-1 $718 $14 $-1 $719 reversed single #
loop $720 -1 $-1 $721 $699 $646 #
cone-surface $722 -1 $-1 0 1.0475000000000001 0 0 -1 0 -0.22500000000000001 0 0 1 I I 0 1 0.22500000000000001 forward I I I I #
surf-twe-attrib $-1 -1 $-1 $-1 $647 229 #
attrib_edge_convexity-kcp-attrib $-1 -1 $723 $-1 $650 2 #
vertex $-1 -1 $-1 $650 $724 #
ellipse-curve $725 -1 $-1 -1 0.68799999999999994 0 0 -1 0 0.40625 0 0 1 I I #
face_name-twe-attrib $-1 -1 $-1 $652 $614 13 #
model_id-kcp-attrib $-1 -1 $726 $-1 $653 1 1021392281 1021392281 1048838145 33 #
loop $727 -1 $-1 $-1 $665 $614 #
surf-twe-attrib $-1 -1 $-1 $-1 $654 235 #
convexity-sys-attrib $-1 -1 $728 $656 $617 #
point $-1 -1 $-1 1.40625 0.68799999999999994 4.9751267632924499e-017 #
cur-twe-attrib $-1 -1 $-1 $-1 $658 237 #
loop_type-twe-attrib $-1 -1 $-1 $-1 $661 0 #
coedge $-1 -1 $-1 $699 $699 $662 $700 reversed $685 $-1 #
edge $729 -1 $-1 $730 0 $730 6.2831853071795862 $699 $731 forward @7 unknown #
attrib_edge_convexity-kcp-attrib $-1 -1 $732 $-1 $666 1 #
vertex $733 -1 $-1 $666 $734 #
ellipse-curve $735 -1 $-1 -1 0.64296667900320903 0 0 1 0 0.25 0 0 1 I I #
attrib_edge_convexity-kcp-attrib $-1 -1 $736 $-1 $670 1 #
vertex $-1 -1 $-1 $670 $737 #
ellipse-curve $738 -1 $-1 -1 0.68799999999999994 0 0 1 0 0.27600000000000002 0 0 1 I I #
convexity-sys-attrib $-1 -1 $739 $672 $633 #
model_id-kcp-attrib $-1 -1 $-1 $-1 $673 1 1021392281 1021392281 1048838145 28 #
point $-1 -1 $-1 1.25 0.64296667900320903 -3.0616164697184302e-017 #
cur-twe-attrib $-1 -1 $-1 $-1 $674 249 #
loop_type-twe-attrib $-1 -1 $-1 $676 $638 1 #
edge_name-twe-attrib $-1 -1 $-1 $677 $603 15 8448 #
attrib_edge_convexity-kcp-attrib $-1 -1 $740 $-1 $681 2 #
vertex $-1 -1 $-1 $681 $741 #
ellipse-curve $742 -1 $-1 0 0.33500000000000002 0 1.0000000000000001e-015 1 0 -0.25 2.5000000000000002e-016 0 1 I I #
face_name-twe-attrib $-1 -1 $-1 $683 $646 17 #
model_id-kcp-attrib $-1 -1 $743 $-1 $684 1 1021392281 1021392281 1048838145 19 #
loop $744 -1 $-1 $745 $746 $684 #
cone-surface $747 -1 $-1 0 0.185193639281201 0 0 1 0 -0.22500000000000001 0 0 1 I I 0.857167300702112 0.51503807491005404 0.22500000000000001 forward I I I I #
loop_type-twe-attrib $-1 -1 $-1 $-1 $685 0 #
loop $748 -1 $-1 $-1 $749 $646 #
surf-twe-attrib $-1 -1 $-1 $-1 $686 259 #
convexity-sys-attrib $-1 -1 $750 $688 $650 #
point $-1 -1 $-1 -0.59375 0.68799999999999994 0 #
cur-twe-attrib $-1 -1 $-1 $-1 $690 262 #
loop_type-twe-attrib $-1 -1 $-1 $692 $653 0 #
model_id-kcp-attrib $-1 -1 $751 $-1 $693 1 1021392281 1021392281 1048838145 34 #
edge_name-twe-attrib $-1 -1 $-1 $695 $617 13 4608 #
attrib_edge_convexity-kcp-attrib $-1 -1 $752 $-1 $700 1 #
vertex $-1 -1 $-1 $700 $753 #
ellipse-curve $754 -1 $-1 0 0.33500000000000002 0 0 -1 0 -0.22500000000000001 0 0 1 I I #
convexity-sys-attrib $-1 -1 $755 $701 $666 #
model_id-kcp-attrib $-1 -1 $-1 $-1 $702 1 1021392281 1021392281 1048838145 37 #
point $-1 -1 $-1 -1.25 0.64296667900320903 -3.0616164697184302e-017 #
cur-twe-attrib $-1 -1 $-1 $-1 $703 275 #
convexity-sys-attrib $-1 -1 $756 $704 $670 #
point $-1 -1 $-1 -0.72399999999999998 0.68799999999999994 0 #
cur-twe-attrib $-1 -1 $-1 $-1 $706 278 #
edge_name-twe-attrib $-1 -1 $-1 $707 $633 16 8448 #
convexity-sys-attrib $-1 -1 $757 $713 $681 #
point $-1 -1 $-1 0.25 0.33500000000000002 3.0616164697184302e-017 #
cur-twe-attrib $-1 -1 $-1 $-1 $715 287 #
face_name-twe-attrib $-1 -1 $-1 $717 $684 18 #
loop_type-twe-attrib $-1 -1 $-1 $-1 $718 0 #
loop $758 -1 $-1 $-1 $759 $684 #
coedge $-1 -1 $-1 $746 $746 $-1 $760 forward $718 $-1 #
surf-twe-attrib $-1 -1 $-1 $-1 $719 289 #
loop_type-twe-attrib $-1 -1 $-1 $-1 $721 1 #
coedge $-1 -1 $-1 $749 $749 $759 $761 forward $721 $-1 #
edge_name-twe-attrib $-1 -1 $-1 $723 $650 18 4608 #
loop_type-twe-attrib $-1 -1 $-1 $727 $693 1 #
convexity-sys-attrib $-1 -1 $762 $729 $700 #
point $-1 -1 $-1 -0.22500000000000001 0.33500000000000002 0 #
cur-twe-attrib $-1 -1 $-1 $-1 $731 303 #
edge_name-twe-attrib $-1 -1 $-1 $732 $666 21 8448 #
edge_name-twe-attrib $-1 -1 $-1 $736 $670 20 8448 #
edge_name-twe-attrib $-1 -1 $-1 $740 $681 23 4608 #
loop_type-twe-attrib $-1 -1 $-1 $-1 $745 1 #
coedge $-1 -1 $-1 $759 $759 $749 $761 reversed $745 $-1 #
edge $763 -1 $-1 $764 1 $764 0 $746 $-1 forward @7 unknown #
edge $765 -1 $-1 $766 -3.1415926535897931 $766 3.1415926535897931 $759 $767 forward @7 unknown #
edge_name-twe-attrib $-1 -1 $-1 $752 $700 25 8704 #
edge_name-twe-attrib $-1 -1 $-1 $-1 $760 26 128 #
vertex $-1 -1 $-1 $760 $768 #
attrib_edge_convexity-kcp-attrib $-1 -1 $769 $-1 $761 2 #
vertex $-1 -1 $-1 $761 $770 #
ellipse-curve $771 -1 $-1 0 0.185193639281201 0 0 -1 0 -0.22500000000000001 0 0 1 I I #
point $-1 -1 $-1 0 0.050000000000000003 0 #
convexity-sys-attrib $-1 -1 $772 $765 $761 #
point $-1 -1 $-1 0.22500000000000001 0.185193639281201 -2.7554548227465901e-017 #
cur-twe-attrib $-1 -1 $-1 $-1 $767 344 #
edge_name-twe-attrib $-1 -1 $-1 $769 $761 27 4352 #
End-of-ACIS-data 