  0
SECTION
  2
HEADER
  9
$ACADVER
  1
AC1009
  9
$INSBASE
 10
0.0
 20
0.0
 30
0.0
  9
$EXTMIN
 10
0.0
 20
0.0
 30
0.0
  9
$EXTMAX
 10
6.0
 20
7.0
 30
4.0
  9
$LIMMIN
 10
0.0
 20
0.0
  9
$LIMMAX
 10
12.0
 20
9.0
  9
$ORTHOMODE
 70
     0
  9
$REGENMODE
 70
     1
  9
$FILLMODE
 70
     1
  9
$QTEXTMODE
 70
     0
  9
$MIRRTEXT
 70
     1
  9
$DRAGMODE
 70
     2
  9
$LTSCALE
 40
1.0
  9
$OSMODE
 70
     0
  9
$ATTMODE
 70
     1
  9
$TEXTSIZE
 40
0.2
  9
$TRACEWID
 40
0.05
  9
$TEXTSTYLE
  7
STANDARD
  9
$CLAYER
  8
0
  9
$CELTYPE
  6
BYLAYER
  9
$CECOLOR
 62
   256
  9
$DIMSCALE
 40
1.0
  9
$DIMASZ
 40
0.18
  9
$DIMEXO
 40
0.0625
  9
$DIMDLI
 40
0.38
  9
$DIMRND
 40
0.0
  9
$DIMDLE
 40
0.0
  9
$DIMEXE
 40
0.18
  9
$DIMTP
 40
0.0
  9
$DIMTM
 40
0.0
  9
$DIMTXT
 40
0.18
  9
$DIMCEN
 40
0.09
  9
$DIMTSZ
 40
0.0
  9
$DIMTOL
 70
     0
  9
$DIMLIM
 70
     0
  9
$DIMTIH
 70
     1
  9
$DIMTOH
 70
     1
  9
$DIMSE1
 70
     0
  9
$DIMSE2
 70
     0
  9
$DIMTAD
 70
     0
  9
$DIMZIN
 70
     0
  9
$DIMBLK
  1

  9
$DIMASO
 70
     1
  9
$DIMSHO
 70
     1
  9
$DIMPOST
  1

  9
$DIMAPOST
  1

  9
$DIMALT
 70
     0
  9
$DIMALTD
 70
     2
  9
$DIMALTF
 40
25.4
  9
$DIMLFAC
 40
1.0
  9
$DIMTOFL
 70
     0
  9
$DIMTVP
 40
0.0
  9
$DIMTIX
 70
     0
  9
$DIMSOXD
 70
     0
  9
$DIMSAH
 70
     0
  9
$DIMBLK1
  1

  9
$DIMBLK2
  1

  9
$DIMSTYLE
  2
*UNNAMED
  9
$DIMCLRD
 70
     0
  9
$DIMCLRE
 70
     0
  9
$DIMCLRT
 70
     0
  9
$DIMTFAC
 40
1.0
  9
$DIMGAP
 40
0.09
  9
$LUNITS
 70
     2
  9
$LUPREC
 70
     4
  9
$SKETCHINC
 40
0.1
  9
$FILLETRAD
 40
0.0
  9
$AUNITS
 70
     0
  9
$AUPREC
 70
     0
  9
$MENU
  1
acad
  9
$ELEVATION
 40
0.0
  9
$PELEVATION
 40
0.0
  9
$THICKNESS
 40
0.0
  9
$LIMCHECK
 70
     0
  9
$BLIPMODE
 70
     1
  9
$CHAMFERA
 40
0.0
  9
$CHAMFERB
 40
0.0
  9
$SKPOLY
 70
     0
  9
$TDCREATE
 40
2449378.488222164
  9
$TDUPDATE
 40
2449378.488222164
  9
$TDINDWG
 40
0.0000000000
  9
$TDUSRTIMER
 40
0.0000000000
  9
$USRTIMER
 70
     1
  9
$ANGBASE
 50
0.0
  9
$ANGDIR
 70
     0
  9
$PDMODE
 70
     0
  9
$PDSIZE
 40
0.0
  9
$PLINEWID
 40
0.0
  9
$COORDS
 70
     1
  9
$SPLFRAME
 70
     0
  9
$SPLINETYPE
 70
     6
  9
$SPLINESEGS
 70
     8
  9
$ATTDIA
 70
     0
  9
$ATTREQ
 70
     1
  9
$HANDLING
 70
     1
  9
$HANDSEED
  5
5A
  9
$SURFTAB1
 70
     6
  9
$SURFTAB2
 70
     6
  9
$SURFTYPE
 70
     6
  9
$SURFU
 70
     6
  9
$SURFV
 70
     6
  9
$UCSNAME
  2

  9
$UCSORG
 10
0.0
 20
0.0
 30
0.0
  9
$UCSXDIR
 10
1.0
 20
0.0
 30
0.0
  9
$UCSYDIR
 10
0.0
 20
1.0
 30
0.0
  9
$PUCSNAME
  2

  9
$PUCSORG
 10
0.0
 20
0.0
 30
0.0
  9
$PUCSXDIR
 10
1.0
 20
0.0
 30
0.0
  9
$PUCSYDIR
 10
0.0
 20
1.0
 30
0.0
  9
$USERI1
 70
     0
  9
$USERI2
 70
     0
  9
$USERI3
 70
     0
  9
$USERI4
 70
     0
  9
$USERI5
 70
     0
  9
$USERR1
 40
0.0
  9
$USERR2
 40
0.0
  9
$USERR3
 40
0.0
  9
$USERR4
 40
0.0
  9
$USERR5
 40
0.0
  9
$WORLDVIEW
 70
     1
  9
$SHADEDGE
 70
     3
  9
$SHADEDIF
 70
    70
  9
$TILEMODE
 70
     1
  9
$MAXACTVP
 70
    16
  9
$PINSBASE
 10
0.0
 20
0.0
 30
0.0
  9
$PLIMCHECK
 70
     0
  9
$PEXTMIN
 10
1.000000E+20
 20
1.000000E+20
 30
1.000000E+20
  9
$PEXTMAX
 10
-1.000000E+20
 20
-1.000000E+20
 30
-1.000000E+20
  9
$PLIMMIN
 10
0.0
 20
0.0
  9
$PLIMMAX
 10
12.0
 20
9.0
  9
$UNITMODE
 70
     0
  9
$VISRETAIN
 70
     0
  9
$PLINEGEN
 70
     0
  9
$PSLTSCALE
 70
     1
  9
$TREEDEPTH
 70
  3020
  9
$DWGCODEPAGE
  3
ascii
  0
ENDSEC
  0
SECTION
  2
TABLES
  0
TABLE
  2
VPORT
 70
     2
  0
VPORT
  2
*ACTIVE
 70
     0
 10
0.0
 20
0.0
 11
1.0
 21
1.0
 12
7.896686
 22
4.951264
 13
0.0
 23
0.0
 14
1.0
 24
1.0
 15
0.0
 25
0.0
 16
0.0
 26
0.0
 36
1.0
 17
0.0
 27
0.0
 37
0.0
 40
9.902529
 41
1.594883
 42
50.0
 43
0.0
 44
0.0
 50
0.0
 51
0.0
 71
     0
 72
   100
 73
     1
 74
     1
 75
     0
 76
     0
 77
     0
 78
     0
  0
ENDTAB
  0
TABLE
  2
LTYPE
 70
     1
  0
LTYPE
  2
CONTINUOUS
 70
    64
  3
Solid line
 72
    65
 73
     0
 40
0.0
  0
ENDTAB
  0
TABLE
  2
LAYER
 70
     2
  0
LAYER
  2
0
 70
    64
 62
     7
  6
CONTINUOUS
  0
LAYER
  2
AME_FRZ
 70
    65
 62
     7
  6
CONTINUOUS
  0
ENDTAB
  0
TABLE
  2
STYLE
 70
     1
  0
STYLE
  2
STANDARD
 70
     0
 40
0.0
 41
1.0
 50
0.0
 71
     0
 42
0.2
  3
txt
  4

  0
ENDTAB
  0
TABLE
  2
VIEW
 70
     0
  0
ENDTAB
  0
TABLE
  2
UCS
 70
     0
  0
ENDTAB
  0
TABLE
  2
APPID
 70
     3
  0
APPID
  2
ACAD
 70
    64
  0
APPID
  2
AME_SOL
 70
    64
  0
APPID
  2
AVE_INVOKE
 70
    64
  0
ENDTAB
  0
TABLE
  2
DIMSTYLE
 70
     0
  0
ENDTAB
  0
ENDSEC
  0
SECTION
  2
BLOCKS
  0
BLOCK
  8
0
  5
1
  2
AME_NIL
 70
    64
 10
0.0
 20
0.0
 30
0.0
  1
AME_NIL
  3
AME_NIL
  0
ENDBLK
  8
0
  5
2
  0
BLOCK
  8
0
  5
4
  2
AME_SOL
 70
    64
 10
0.0
 20
0.0
 30
0.0
  1
AME_SOL
  3
AME_SOL
  0
ENDBLK
  8
0
  5
5
  0
BLOCK
  8
0
  5
37
  2
*U5
 70
    65
 10
0.0
 20
0.0
 30
0.0
  1
*U
  3
*U
  0
LINE
  8
0
 62
     7
  5
38
 10
6.0
 20
7.0
 30
0.0
 11
6.0
 21
7.0
 31
4.0
1001
AME_SOL
1070
     1
1071
       34
  0
LINE
  8
0
 62
     7
  5
39
 10
6.0
 20
7.0
 30
4.0
 11
6.0
 21
0.0
 31
4.0
1001
AME_SOL
1070
     1
1071
       33
  0
LINE
  8
0
 62
     7
  5
3A
 10
0.0
 20
7.0
 30
4.0
 11
6.0
 21
7.0
 31
4.0
1001
AME_SOL
1070
     1
1071
       32
  0
LINE
  8
0
 62
     7
  5
3B
 10
0.0
 20
7.0
 30
0.0
 11
0.0
 21
7.0
 31
4.0
1001
AME_SOL
1070
     1
1071
       31
  0
LINE
  8
0
 62
     7
  5
3C
 10
0.0
 20
7.0
 30
4.0
 11
0.0
 21
0.0
 31
4.0
1001
AME_SOL
1070
     1
1071
       30
  0
LINE
  8
0
 62
     7
  5
3D
 10
0.0
 20
0.0
 30
0.0
 11
0.0
 21
0.0
 31
4.0
1001
AME_SOL
1070
     1
1071
       29
  0
LINE
  8
0
 62
     7
  5
3E
 10
6.0
 20
0.0
 30
4.0
 11
6.0
 21
0.0
 31
0.0
1001
AME_SOL
1070
     1
1071
       28
  0
LINE
  8
0
 62
     7
  5
3F
 10
0.0
 20
0.0
 30
4.0
 11
6.0
 21
0.0
 31
4.0
1001
AME_SOL
1070
     1
1071
       27
  0
LINE
  8
0
 62
     7
  5
40
 10
0.0
 20
0.0
 30
0.0
 11
6.0
 21
0.0
 31
0.0
1001
AME_SOL
1070
     1
1071
       26
  0
LINE
  8
0
 62
     7
  5
41
 10
0.0
 20
7.0
 30
0.0
 11
0.0
 21
0.0
 31
0.0
1001
AME_SOL
1070
     1
1071
       25
  0
LINE
  8
0
 62
     7
  5
42
 10
6.0
 20
0.0
 30
0.0
 11
6.0
 21
7.0
 31
0.0
1001
AME_SOL
1070
     1
1071
       24
  0
LINE
  8
0
 62
     7
  5
43
 10
6.0
 20
7.0
 30
0.0
 11
0.0
 21
7.0
 31
0.0
1001
AME_SOL
1070
     1
1071
       23
  0
ARC
  8
0
 62
     7
  5
44
 10
3.0
 20
4.0
 30
0.0
 40
2.0
 50
300.0
 51
240.0
1001
AME_SOL
1070
     1
1071
       22
  0
ARC
  8
0
 62
     7
  5
45
 10
3.0
 20
4.0
 30
4.0
 40
2.0
 50
300.0
 51
240.0
1001
AME_SOL
1070
     1
1071
       21
  0
LINE
  8
0
 62
     7
  5
46
 10
4.0
 20
2.267949
 30
0.0
 11
4.0
 21
1.0
 31
0.0
1001
AME_SOL
1070
     1
1071
       20
  0
LINE
  8
0
 62
     7
  5
47
 10
4.0
 20
1.0
 30
4.0
 11
4.0
 21
2.267949
 31
4.0
1001
AME_SOL
1070
     1
1071
       19
  0
LINE
  8
0
 62
     7
  5
48
 10
4.0
 20
2.267949
 30
0.0
 11
4.0
 21
2.267949
 31
4.0
1001
AME_SOL
1070
     1
1071
       18
  0
LINE
  8
0
 62
     7
  5
49
 10
2.0
 20
1.0
 30
0.0
 11
2.0
 21
2.267949
 31
0.0
1001
AME_SOL
1070
     1
1071
       17
  0
LINE
  8
0
 62
     7
  5
4A
 10
2.0
 20
2.267949
 30
4.0
 11
2.0
 21
1.0
 31
4.0
1001
AME_SOL
1070
     1
1071
       16
  0
LINE
  8
0
 62
     7
  5
4B
 10
2.0
 20
2.267949
 30
0.0
 11
2.0
 21
2.267949
 31
4.0
1001
AME_SOL
1070
     1
1071
       15
  0
LINE
  8
0
 62
     7
  5
4C
 10
4.0
 20
1.0
 30
0.0
 11
2.0
 21
1.0
 31
0.0
1001
AME_SOL
1070
     1
1071
       14
  0
LINE
  8
0
 62
     7
  5
4D
 10
2.0
 20
1.0
 30
0.0
 11
2.0
 21
1.0
 31
4.0
1001
AME_SOL
1070
     1
1071
       13
  0
LINE
  8
0
 62
     7
  5
4E
 10
2.0
 20
1.0
 30
4.0
 11
4.0
 21
1.0
 31
4.0
1001
AME_SOL
1070
     1
1071
       12
  0
LINE
  8
0
 62
     7
  5
4F
 10
4.0
 20
1.0
 30
4.0
 11
4.0
 21
1.0
 31
0.0
1001
AME_SOL
1070
     1
1071
       11
  0
LINE
  8
0
 62
     7
  5
50
 10
1.0
 20
4.0
 30
0.0
 11
1.0
 21
4.0
 31
4.0
1001
AME_SOL
1070
     0
1071
        4
  0
LINE
  8
0
 62
     7
  5
51
 10
5.0
 20
4.0
 30
0.0
 11
5.0
 21
4.0
 31
4.0
1001
AME_SOL
1070
     0
1071
        4
  0
LINE
  8
0
 62
     7
  5
52
 10
3.0
 20
6.0
 30
0.0
 11
3.0
 21
6.0
 31
4.0
1001
AME_SOL
1070
     0
1071
        4
  0
ENDBLK
  8
0
  5
53
  0
BLOCK
  8
0
  5
57
  2
AME_JNK
 70
     0
 10
0.0
 20
0.0
 30
0.0
  1
AME_JNK
  3
AME_JNK
  0
ENDBLK
  8
0
  5
58
  0
ENDSEC
  0
SECTION
  2
ENTITIES
  0
INSERT
  8
AME_FRZ
  5
3
  2
AME_NIL
 10
0.0
 20
0.0
 30
0.0
  0
INSERT
  8
AME_FRZ
  5
6
  2
AME_SOL
 10
0.0
 20
0.0
 30
0.0
1001
AME_SOL
1000
R2.1
1000
AME2
1000
sq cm
1070
     3
1070
     0
1070
     3
1000
wire
1040
45.0
1000
U
1040
1.0
1000
cm
1000
gm
1000
MILD_STEEL
1070
    25
1000
CSG
1070
     1
1070
     3
1070
     3
1070
     3
1070
     0
1000
cu cm
1070
     1
1070
     0
1005
3
  0
INSERT
  8
AME_FRZ
  5
15
  2
AME_NIL
 10
0.0
 20
0.0
 30
0.0
1001
AME_SOL
1002
{
1070
     1
1071
  2388872
1070
  1536
1070
     1
1010
6.0
1020
7.0
1030
4.0
1005
0
1005
0
1005
54
1040
0.0
1040
1.0
1070
     0
1000
MILD_STEEL
1000
0
1010
0.0
1020
0.0
1030
0.0
1010
0.0
1020
0.0
1030
1.0
1040
0.0
1002
}
1001
AVE_INVOKE
1000
SOLAVEMESH
  0
INSERT
  8
AME_FRZ
  5
26
  2
AME_NIL
 10
2.0
 20
1.0
 30
0.0
1001
AME_SOL
1002
{
1070
     1
1071
  2403544
1070
  1536
1070
     1
1010
2.0
1020
3.0
1030
4.0
1005
0
1005
0
1005
35
1040
0.0
1040
1.0
1070
     0
1000
MILD_STEEL
1000
0
1010
2.0
1020
1.0
1030
0.0
1010
0.0
1020
0.0
1030
1.0
1040
0.0
1002
}
1001
AVE_INVOKE
1000
SOLAVEMESH
  0
INSERT
  8
AME_FRZ
  5
32
  2
AME_NIL
 10
3.0
 20
4.0
 30
0.0
1001
AME_SOL
1002
{
1070
     1
1071
  2420480
1070
  1538
1070
     1
1010
2.0
1020
2.0
1030
4.0
1005
0
1005
0
1005
35
1040
0.0
1040
1.0
1070
     0
1000
MILD_STEEL
1000
0
1010
3.0
1020
4.0
1030
0.0
1010
0.0
1020
0.0
1030
1.0
1040
0.0
1002
}
1001
AVE_INVOKE
1000
SOLAVEMESH
  0
INSERT
  8
AME_FRZ
  5
35
  2
AME_NIL
 10
0.0
 20
0.0
 30
0.0
1001
AME_SOL
1002
{
1070
     1
1071
  2428576
1070
   775
1070
     0
1070
     2
1005
32
1005
26
1005
0
1005
0
1005
54
1040
0.0
1040
1.0
1070
     0
1000
MILD_STEEL
1000
0
1010
0.0
1020
0.0
1030
0.0
1010
0.0
1020
0.0
1030
1.0
1040
0.0
1002
}
  0
INSERT
  8
0
  5
54
  2
*U5
 10
0.0
 20
0.0
 30
0.0
1001
AME_SOL
1002
{
1070
     1
1071
  2431104
1070
  1543
1070
     1
1070
     0
1005
15
1005
35
1005
0
1005
55
1005
0
1040
0.0
1040
1.0
1070
     0
1000
MILD_STEEL
1000
0
1002
}
1001
AVE_INVOKE
1000
SOLAVEMESH
  0
INSERT
  8
AME_FRZ
  5
55
  2
AME_NIL
 10
1.0
 20
1.0
 30
1.0
1001
AME_SOL
1004
C7CF01002D019601950193018F0188017C01FE006E01EE005D01470131012B0046003201C8004D004801330152000900F7007D01DF00020089017E01EF006F0196005E010400A400010090018A017F0170015F01490130003401FD0014004A013501B600E80036017A00540060014B01370158006D003801
1004
22010300E0002301A900490020007101610124004C01D400BA0062014D016700DC008400800172016301980074008000BF00FF00940191018B0181010800730164014E01CE00B9004F0133006A006501500172001C005101CF002A008201740166015201DE0039015F0017000500110025008C0183017501
1004
670153013A014C002401500007000F00540162007300680155013B01FC002501210026003C0126012800EB0027013800440056013D012801C10011019E00F800290112012C008B001301A700DB003E012A011401D90048001501C200AB002B0116018500D30017015300D1007601690157013F012C011801
1004
CD00B30019015E0060002D011A0101010A0000010201160019001B0103019300FA000401F900900040012E011C010501F600A0000601F500F1001D01070131003A000801D8004B002F011E0109014F00AC000A01D00059001F010B01AD00AE000C015A005B004E007500400092018D0184013F0077016A01
1004
1800C0006B015801FB00710059014101300120010D01AF00B0000E015C00610021010F0163006500100168007800060042019D00A20085011000F0008E0186017801810066007901CA006C015A01430157002D003D00A80087017A01CC0095007B016D015B014401EA000B001B005C014501120099004601
1004
F2003500230000007C08A3E04508B3307520CCF0701EA888F8DFBC0027AE0B1BF78004F5C1637EF0009EB82D2B9311D20C8B69C988E9046AD2B9311D20D2C7D98FB0B4964C0D64A269B0528E162AEE891181BF78004F5C1695C988E906960C941045830FDB612B9311D20D2C727552033E4933C754A0F275
1004
5FF6D8FFFFFFFFFDB63FAFF6D8FF49FFFFFFFFFF93AAFFB6C7FFFFFFFFEDB1FD7FB6C7FA4FFFFFFFFFF6CB663EC2D25930359289A6C14A3858ABBA244606FDE0013D705BF78004F52D6FA39311D20D2D2B9311D20D2C727557741399E3900793AAFFFFFFB6C7FFEDB1FFFD7FB6C7FA4FFFFFFFFFFC9D57FF
1004
FFFDB63FFF6D8FFFEBFDB63FD27FFFFFFFFFB65B31F616A4114323458250ACA51C2C55DD1223037EF0009EB82D2B9311D20D2DF472623A41A5A572623A41A58E4EAAD33A9CCF1DD91E4EABFF2BFB65FF2BFCAFF2BFB65FED2FF697FB4B49FFFFFFFFFF93AAFFCAFED97FCAFF2BFCAFED97FB4B1FDA5FED2D
1004
27FFFFFFFFFB65B31F616A8D1C2C55DD122304B2606B25134D81BF78004F5C1695C988E9020D695C988E90645A572623A41A58EF82AAD25399E3AA307BE0ABFEDB1FFFFFFFB6C7FFE82FF697FE93FEBFEBFFFFFF7C157FDB63FFFFFFF6D8FFFD05FED2FFD27FD7FD7FFFFFB65836F878A57FEDB1FFFFFFFB
1004
6C7FB666666A0D7FB22FFC3A2091DD1E8C512B091048EE8F462895A45FE1F44123BA3D18A25617FFED2D1048EE8F462895A443FFFFB4B0E4480664480663FFFFB4B06DF01F14AFFDB63FFFFFFF6D8FFFC835FED2FFC3A2091DD1E8C512B091048EE8F462895A45FE1F44123BA3D18A25617FFED2D1048EE8
1004
F462895A443FFFFB4B0E4480664480663FFFFB4B06DF00F8A57FEDB1FFFFFFFB6C7FB666666A0D7FD7FE1D1048EE8F4628958488247747A3144AD221FF06DF0229C52BFF6D8FFFFFFFDB63FCCCCCCC461AFB4BFF0E88247747A3144AC244123BA3D18A256917F87D1048EE8F46289585FFFB4B44123BA3D1
1004
8A256910FFFFED2C39120199120198FFFFED2D98FB211BF78004F5C1637EF0009EB82C6FDE0013D705A572623A41916D39311D208D58DFBC0027AE181C9D54A1DA9C7C75468F2755FFFF6D8FFFDB63FFFFFFFFFD27FFFFFFFFFE4EABFFFEDB1FFFB6C7FFFFFFFFFA4FFFFFFFFFF6D8663EC2D1BF78004F5C
1004
1637EF0009EB82C6FDE0013D705A572623A4191637EF0009EB8612B9311D20D2C7275569D84E3E3AA38793AAFFB6C7FFFFFFFFEDB1FFFFFE93FFFFFFFFFF2755FF6D8FFFFFFFFFDB63FFFFFD27FFFFFFFFFB6C331F6168DFBC0027AE0B1BF78004F5C1637EF0009EB82C6FDE0013D70C34E4C4748235695C
1004
988E90696393AAAD9E4E3E3A998F2755FFFFFF6D8FFFDB63FFFFFFFD27FFFFFFFFFE4EABFFFFFEDB1FFFB6C7FFFFFFFA4FFFFFFFFFF6D8663EC846FDE0013D7058DFBC0027AE0B482286468B04A15A572623A41916D39311D208D5A572623A41A58E4EAADB3538F8E0F1E4EABFED97FCAFF2BFCAFED97FCA
1004
FEC8B3333337CAFF69693FFFFFFFFFF2755FF6CBFE57F95FE57F6CBFE57F645999999BE57FB4B49FFFFFFFFFEDB0CC7D85A37EF0009EB82C13EB69F707BE5637EF0009EB82D2B9311D20C8B69C988E9046AD2B9311D20D2C7275541469C7C75480F2755FF95FE57F6CBFDB2FF95FE57F645999999BE57FB4
1004
B49FFFFFFFFFF93AAFFCAFF2BFB65FED97FCAFF2BFB22CCCCCCDF2BFDA5A4FFFFFFFFFF6D8663EC2D11F5B4FB83D2358DFBC0027AE0B1BF78004F5C1695C988E90645B4E4C4748235695C988E90696393AA9194A71F1D5243C9D57FE57F6CBFE57F95FE57F6CBFD916666666F95FED2D27FFFFFFFFFE4EAB
1004
FF2BFB65FF2BFCAFF2BFB65FEC8B3333337CAFF69693FFFFFFFFFDB605C124114323458250ACA51C2C55DD1223037EF0009EB82D2B9311D20D2C1928208B061FB6C2572623A41A5FF65FEB0E29591B3953E3999019F24B4CEA7C3B4CEA72033E493333333314AFFDB63FFFFFFF6CBFFFDA5FEDB1FD61FFB2
1004
FF58B8225930359289A6C14A3858ABBA24461208A191A2C1285695C988E906960C941045830FDB612B9311D20D2FFB2FF2A1C52B67314A7C7332033E496D9A9F0EDB3539019F248F99998A57FFFFFEDB1FFFB65FFFED2FF6D8FDA587FECBFCA8B8225930359289A6C14A3858ABBA244606FDE0013D705BF7
1004
8004F52D60C941045830FDB612B9311D20D2FFFF6961C52B2354CA7C7332033E4977413E1DDD04E4067C9266666666295FFB65FFFFFFFED97FFFD7FB6C7F87FFFDA58B8225930359289A6C14A3858ABBA244606FDE0013D705A572623A41A58325041160C3F6D81BF78004F5C31FA0CBFB658714AD412A71
1004
3E3999019F24943B53E1CA1DA9C80CF9247CCCCC52BFFFFFF6CBFFFDB2FFFF6D8FDB63FC3FE832FED962E08964C0D64A269B04B2606B25134D81BF78004F5C16FDE0013D4B5BE8E4C474834B4AE4C474834BFFFDA58714ACAAA753E399BBA09D6929F0EB494EEE8273333333314AFFDB63FFFFFFF6D8FF20
1004
8CCCCCD853B53853D53553A240D7FE1FFFF6962E08964C0D64A269B0528E162AEE89118482286468B04A15BF78004F52D6FA39311D20D2D2B9311D20D2C8B2804410A43108CC60CCCCCD41AC38A56CE167027C73377413B6CD4F876D9A9DDD04E3E6666295FFFFFFB6C7ED97FFFE3FD6666666A15FED2C39
1004
16500882148621198C199999A8358B8225930359289A6C14A3858ABBA244606FDE0013D705BF78004F52D6FA39311D20D2C6FDE0013D70C7E455853E54153648D4F08BA90C0714ADDD5369F1CCDDD04E50ED4F872876A7774138F99998A57FFFFFED97FB65FFFFFF5FE4558FF0FF915614F95054D92353C2
1004
2EA4302E09208A191A2C128564B2606B25134D81BF78004F5C1695C988E90696FA39311D20D2D2B9311D20D2FFFF6961C52B2854F27CCC7699D4EB494F87699D4EB494E66666666295FFB6C7FFFFFFEDB1FFFB4B53B53853D53553A240D7FE1FFFF6962E09208A191A2C12856528E162AEE8911848228646
1004
8B04A15A572623A41A5BE8E4C474834B4AE4C474834BFDF46521D49A9A14BB54DC1D650E295834A9F4F8E66D33A9DB66A7C3B6CD4ED33A9C7CCCCC52BFFFFFF6D8FDB63FFFFF697FAA297FB4B0FFBE8CA43A935342976A9B83ACA2E09208A191A2C12856528E162AEE891181BF78004F5C1695C988E90696
1004
FA39311D20D2C6FDE0013D70C2AAA02992A1106A4D4FCB1FDB6038A56A66CE24F8E66D33A9CA1DA9F0E50ED4ED33A9C7CCCCC52BFFFFFF6CBFDB63FFFFF6963FD7FE1D555014C950883526A7E58FEDB02E09468E162AEE8911825930359289A6C24114323458250AD2B9311D2041AD2B9311D20C8B4AE4C4
1004
74834B528ECA9721D98A481D652951BB2A581C531587521590152649C7335A4A76D9A9F0EDB353AD2538F9999A90AF283333308B06940220852188452AC7F834A01104290C422952CA0CCCCC22FFFF417FB4BFDA58B7FAFFAD4A3B2A5C876629207594A546ECA960714C562E09468E162AEE891182593035
1004
9289A6C0DFBC0027AE0B4AE4C4748106B4AE4C4748322C6FDE0013D70C2947654B90ECC5240EB294A8DD952C0E298AC3A90AD412A553E663AD253943B53E1D6929CA1DA9CCCCC7D48579419999845834A01104290C4229563FC1A50088214862114A965066666117FFFA0BFDA5FF8B7FAFFAD4A3B2A5C876
1004
629207594A546ECA960714C562E086FDE0013D705827D6D3EE0F7CAC6FDE0013D705A572623A41916D39311D208D58DFBC0027AE18FD065FD058714AD4E550D3E663943B53A0A34F872876A741469C7C7C52BFFFF6D8FFFFFFFDB2FF416666666F95FF87FD065FD058B8211F5B4FB83D2358DFBC0027AE0B
1004
1BF78004F5C1695C988E90645B4E4C4748235637EF0009EB860CCCCCDF1653333337C561C52B673B38D3E663943B539194A7C3943B539194A71F1F14AFFDB63FFFFFFFFF6CBFD916666666F8AFFC3999999BE2CA666666F8AC5C10DFBC0027AE0B1BF78004F5C1637EF0009EB82C6FDE0013D70C34E4C474
1004
8235637EF0009EB860CCCCCDF2CBFCA8714ADDD449F331CA1DA9D6CF27C3943B53AD9E4E3E3E295FFB65FFFFFFFFFED97FFFFFE1CCCCCCDF2CBFCA8B821BF78004F5C1637EF0009EB82C6FDE0013D705A572623A4191637EF0009EB8606FDE0013D70C7FFEC8B0E295AA599C89F331CA1DA9DA7613E1CA1D
1004
A9DA76138F8F8A57FFFED97FFFFFFFB65FFFFFF87FFFD9162E086FDE0013D7058DFBC0027AE0B482286468B04A15A572623A4191637EF0009EB8612B9311D20D2FF4197F4161C52B548A9CA7CCC769D84EDB353E1DA7613B6CD4E3E3E295FFFFFFB6C7FFED97FFFA0BFFFDA587FD065FD058B8211F5B4FB8
1004
3D2358DFBC0027AE0B1BF78004F5C1695C988E906458DFBC0027AE184AE4C474834BFECBFD61C52B54D1174F998ED3B09C8CA53E1DA76139194A71F1F14AFFDB63FFFFFFF6CBFFFD917FFFD61FFB2FF58B821BF78004F5C1637EF0009EB82C6FDE0013D7058DFBC0027AE181BF78004F5C3095C988E90697
1004
FFFB4B0E295D52E9F331DA7613AD9E4F8769D84EB67938F8F8A57FED97FFFFFFFB65FFFFFFFF87FFFDA58B821BF78004F5C1637EF0009EB82D208A191A2C1285637EF0009EB861A72623A411AB4AE4C474834B3333337C594CCCCCDF158714AC80A027CCC75B3C9DB66A7C3AD9E4EDB3538F8F8A57FFFFFE
1004
DB1FB65FFFFFF999999BE2BFDA5873333337C594CCCCCDF158B821BF78004F5C1609F5B4FB83DF2B1BF78004F5C1637EF0009EB861A72623A411AB4AE4C474834BFECBFD61C52B54306D3E663AD9E4E828D3E1D6CF2741469C7C7C52BFFFF6D8FFFDB2FFFFFFCCCCCCDF2BFEB0FFD97FAC5C10DFBC0027AE
1004
0B04FADA7DC1EF95A4114323458250AD2B9311D20C8B69C988E9046AD2B9311D20D2FF6465FE5438A56A8F554F998EDB353A0A34F876D9A9D051A71F1F14AFFFFDB63FFFFFFF6D8FD916666666F95FED2C3FEC8CBFCA8B8211F5B4FB83D2358DFBC0027AE0B482286468B04A15A572623A41916D39311D20
1004
8D5A572623A41A5FF999999BE561C52B6554C27CCC76D9A9C8CA53E1DB66A723294E3E3E295FFB6C7FFFFF2BFFFB6C7EC8B3333337CAFF6961FFCCCCCCDF2B170423EB69F707A46B04FADA7DC1EF958DFBC0027AE0B4AE4C4748322DA72623A411AB4AE4C474834BFDA65FE5438A56DA824F998E828D3919
1004
4A7C3A0A34E46529C7C7C52BFF6D8FFFFFFFDB63FFF645999999BE57FB4B0FFB4CBFCAAA2D485449
1005
56
  0
INSERT
  8
AME_FRZ
  5
56
  2
AME_NIL
 10
1.0
 20
1.0
 30
1.0
1001
AME_SOL
1004

1005
0
  0
ENDSEC
  0
EOF
