105 828 1 0                             
body $-1 $1 $-1 $-1 #
lump $-1 $-1 $2 $0 #
shell $-1 $-1 $-1 $3 $1 #
face $-1 $4 $5 $2 $-1 $6 reversed single #
face $-1 $7 $8 $2 $-1 $9 reversed single #
loop $-1 $-1 $10 $3 #
cone-surface $-1 -17.5 0 10 0 0 1 2.5 0 0 1 0 1 0 #
face $-1 $11 $12 $2 $-1 $13 forward single #
loop $-1 $-1 $14 $4 #
cone-surface $-1 17.5 0 10 0 0 1 2.5 0 0 1 0 1 0 #
coedge $-1 $15 $16 $17 $18 1 $5 $-1 #
face $-1 $19 $20 $2 $-1 $21 forward single #
loop $-1 $22 $23 $7 #
plane-surface $-1 0 0 12.5 0 0 1 1 0 0 0 #
coedge $-1 $24 $25 $26 $27 1 $8 $-1 #
coedge $-1 $28 $10 $29 $30 0 $5 $-1 #
coedge $-1 $10 $28 $23 $31 1 $5 $-1 #
coedge $-1 $32 $33 $10 $18 0 $34 $-1 #
edge $-1 $35 $36 $17 $37 1 #
face $-1 $38 $34 $2 $-1 $39 forward single #
loop $-1 $-1 $40 $11 #
plane-surface $-1 0 0 7.5 0 0 1 1 0 0 0 #
loop $-1 $-1 $41 $7 #
coedge $-1 $42 $43 $16 $31 0 $12 $-1 #
coedge $-1 $44 $14 $45 $46 0 $8 $-1 #
coedge $-1 $14 $47 $48 $49 1 $8 $-1 #
coedge $-1 $50 $51 $14 $27 0 $52 $-1 #
edge $-1 $53 $54 $26 $55 1 #
coedge $-1 $16 $15 $56 $57 0 $5 $-1 #
coedge $-1 $58 $59 $15 $30 1 $60 $-1 #
edge $-1 $35 $61 $29 $62 0 #
edge $-1 $36 $63 $23 $64 0 #
coedge $-1 $65 $17 $43 $66 1 $34 $-1 #
coedge $-1 $17 $65 $58 $67 0 $34 $-1 #
loop $-1 $-1 $65 $19 #
vertex $-1 $67 $68 #
vertex $-1 $66 $69 #
straight-curve $-1 -17.5 -2.5 10 0 0 -1 #
face $-1 $70 $71 $2 $-1 $39 forward single #
plane-surface $-1 0 -2.5 10 0 1 0 0 0 1 0 #
coedge $-1 $72 $45 $51 $73 1 $20 $-1 #
coedge $-1 $74 $75 $76 $77 0 $22 $-1 #
coedge $-1 $78 $23 $79 $80 0 $12 $-1 #
coedge $-1 $23 $81 $32 $66 0 $12 $-1 #
coedge $-1 $82 $24 $83 $84 0 $8 $-1 #
coedge $-1 $40 $83 $24 $46 1 $20 $-1 #
edge $-1 $53 $85 $45 $86 0 #
coedge $-1 $25 $82 $87 $88 1 $8 $-1 #
coedge $-1 $87 $89 $25 $49 0 $12 $-1 #
edge $-1 $54 $90 $48 $91 0 #
coedge $-1 $92 $26 $89 $93 1 $52 $-1 #
coedge $-1 $26 $92 $40 $73 0 $52 $-1 #
loop $-1 $-1 $92 $94 #
vertex $-1 $73 $95 #
vertex $-1 $93 $96 #
straight-curve $-1 17.5 2.5 10 0 0 -1 #
coedge $-1 $97 $79 $28 $57 1 $98 $-1 #
edge $-1 $61 $63 $56 $99 1 #
coedge $-1 $100 $29 $33 $67 1 $60 $-1 #
coedge $-1 $29 $100 $97 $101 1 $60 $-1 #
loop $-1 $-1 $58 $102 #
vertex $-1 $101 $103 #
ellipse-curve $-1 -17.5 0 7.5 0 0 -1 2.5 0 0 1 #
vertex $-1 $31 $104 #
ellipse-curve $-1 -17.5 0 12.5 -0 -0 -1 2.5 0 0 1 #
coedge $-1 $33 $32 $105 $106 1 $34 $-1 #
edge $-1 $107 $36 $43 $108 0 #
edge $-1 $109 $35 $33 $110 0 #
point $-1 -17.5 -2.5 7.5 #
point $-1 -17.5 -2.5 12.5 #
face $-1 $102 $98 $2 $-1 $111 forward single #
loop $-1 $-1 $112 $38 #
coedge $-1 $113 $40 $114 $115 1 $20 $-1 #
edge $-1 $116 $53 $51 $117 0 #
coedge $-1 $118 $41 $119 $120 0 $22 $-1 #
coedge $-1 $41 $121 $122 $123 0 $22 $-1 #
coedge $-1 $124 $125 $41 $77 1 $126 $-1 #
edge $-1 $127 $128 $41 $129 0 #
coedge $-1 $89 $42 $130 $131 0 $12 $-1 #
coedge $-1 $56 $132 $42 $80 1 $98 $-1 #
edge $-1 $63 $133 $42 $134 0 #
coedge $-1 $43 $135 $136 $137 0 $12 $-1 #
coedge $-1 $47 $44 $138 $139 0 $8 $-1 #
coedge $-1 $45 $113 $44 $84 1 $20 $-1 #
edge $-1 $85 $140 $83 $86 0 #
vertex $-1 $46 $141 #
ellipse-curve $-1 17.5 0 7.5 0 0 -1 2.5 0 0 1 #
coedge $-1 $135 $48 $47 $88 0 $12 $-1 #
edge $-1 $90 $142 $87 $91 0 #
coedge $-1 $48 $78 $50 $93 0 $12 $-1 #
vertex $-1 $49 $143 #
ellipse-curve $-1 17.5 0 12.5 -0 -0 -1 2.5 0 0 1 #
coedge $-1 $51 $50 $144 $145 1 $52 $-1 #
edge $-1 $146 $54 $89 $134 0 #
face $-1 $147 $52 $2 $-1 $111 forward single #
point $-1 17.5 2.5 7.5 #
point $-1 17.5 2.5 12.5 #
coedge $-1 $132 $56 $59 $101 0 $98 $-1 #
loop $-1 $-1 $132 $70 #
straight-curve $-1 -17.5 2.5 10 0 0 -1 #
coedge $-1 $59 $58 $148 $149 1 $60 $-1 #
edge $-1 $61 $150 $97 $117 0 #
face $-1 $94 $60 $2 $-1 $21 forward single #
point $-1 -17.5 2.5 7.5 #
point $-1 -17.5 2.5 12.5 #
coedge $-1 $136 $148 $65 $106 0 $151 $-1 #
edge $-1 $109 $107 $105 $152 0 #
vertex $-1 $137 $153 #
straight-curve $-1 0 -2.5 12.5 -1 0 0 #
vertex $-1 $149 $154 #
straight-curve $-1 0 -2.5 7.5 -1 0 0 #
plane-surface $-1 0 2.5 10 0 -1 0 0 0 -1 0 #
coedge $-1 $155 $156 $157 $158 1 $71 $-1 #
coedge $-1 $83 $72 $156 $159 1 $20 $-1 #
coedge $-1 $144 $157 $72 $115 0 $151 $-1 #
edge $-1 $160 $116 $114 $161 0 #
vertex $-1 $115 $162 #
straight-curve $-1 0 2.5 7.5 1 0 0 #
coedge $-1 $163 $74 $164 $165 0 $22 $-1 #
coedge $-1 $166 $167 $74 $120 1 $168 $-1 #
edge $-1 $128 $169 $74 $170 0 #
coedge $-1 $75 $171 $172 $173 0 $22 $-1 #
coedge $-1 $174 $175 $75 $123 1 $176 $-1 #
edge $-1 $177 $127 $75 $178 0 #
coedge $-1 $179 $76 $175 $180 1 $126 $-1 #
coedge $-1 $76 $179 $166 $181 1 $126 $-1 #
loop $-1 $-1 $124 $182 #
vertex $-1 $123 $183 #
vertex $-1 $77 $184 #
ellipse-curve $-1 -12.5 12.5 12.5 -0 -0 -1 2 0 0 1 #
coedge $-1 $185 $144 $78 $131 1 $151 $-1 #
edge $-1 $133 $146 $78 $186 0 #
coedge $-1 $79 $97 $185 $187 1 $98 $-1 #
vertex $-1 $187 $188 #
straight-curve $-1 0 2.5 12.5 1 0 -0 #
coedge $-1 $81 $87 $155 $189 0 $12 $-1 #
coedge $-1 $157 $105 $81 $137 1 $151 $-1 #
edge $-1 $190 $107 $81 $186 0 #
coedge $-1 $156 $155 $82 $139 1 $71 $-1 #
edge $-1 $140 $142 $138 $191 1 #
vertex $-1 $139 $192 #
point $-1 20 0 7.5 #
vertex $-1 $189 $193 #
point $-1 20 0 12.5 #
coedge $-1 $130 $114 $92 $145 0 $151 $-1 #
edge $-1 $116 $146 $144 $194 0 #
vertex $-1 $131 $195 #
face $-1 $196 $151 $2 $-1 $197 reversed single #
coedge $-1 $105 $185 $100 $149 0 $151 $-1 #
edge $-1 $150 $109 $148 $198 0 #
vertex $-1 $149 $199 #
loop $-1 $200 $144 $147 #
straight-curve $-1 -4.33012701892219 -2.5 0 -0 -0 1 #
point $-1 -4.33012701892219 -2.5 12.5 #
point $-1 -4.33012701892219 -2.5 7.5 #
coedge $-1 $138 $112 $135 $189 1 $71 $-1 #
coedge $-1 $112 $138 $113 $159 0 $71 $-1 #
coedge $-1 $114 $136 $112 $158 0 $151 $-1 #
edge $-1 $190 $160 $157 $201 0 #
edge $-1 $140 $160 $156 $110 0 #
vertex $-1 $115 $202 #
ellipse-curve $-1 0 0 7.5 0 0 1 5 0 0 1 #
point $-1 4.33012701892219 2.5 7.5 #
coedge $-1 $203 $118 $204 $205 0 $22 $-1 #
coedge $-1 $206 $207 $118 $165 1 $208 $-1 #
edge $-1 $169 $209 $164 $210 0 #
coedge $-1 $211 $119 $125 $181 0 $168 $-1 #
coedge $-1 $119 $211 $206 $212 1 $168 $-1 #
loop $-1 $-1 $166 $213 #
vertex $-1 $212 $214 #
straight-curve $-1 -12.5 9.375 12.5 0 1 0 #
coedge $-1 $121 $215 $216 $217 0 $22 $-1 #
coedge $-1 $216 $218 $121 $173 1 $219 $-1 #
edge $-1 $220 $177 $121 $221 0 #
coedge $-1 $222 $122 $218 $223 0 $176 $-1 #
coedge $-1 $122 $222 $124 $180 0 $176 $-1 #
loop $-1 $-1 $175 $224 #
vertex $-1 $173 $225 #
straight-curve $-1 0 12.5 12.5 -1 0 0 #
coedge $-1 $125 $124 $226 $227 1 $126 $-1 #
edge $-1 $228 $127 $175 $229 0 #
edge $-1 $128 $230 $166 $231 0 #
face $-1 $224 $126 $2 $-1 $232 reversed single #
point $-1 -10.5 12.5 12.5 #
point $-1 -12.5 14.5 12.5 #
coedge $-1 $148 $130 $132 $187 0 $151 $-1 #
ellipse-curve $-1 0 0 12.5 -0 -0 -1 5 0 0 1 #
edge $-1 $133 $150 $185 $233 0 #
point $-1 -4.33012701892219 2.5 12.5 #
edge $-1 $142 $190 $135 $108 0 #
vertex $-1 $158 $234 #
straight-curve $-1 17.5 -2.5 10 0 0 -1 #
point $-1 17.5 -2.5 7.5 #
point $-1 17.5 -2.5 12.5 #
straight-curve $-1 4.33012701892219 2.5 0 0 0 1 #
point $-1 4.33012701892219 2.5 12.5 #
face $-1 $182 $235 $2 $-1 $236 reversed single #
cone-surface $-1 0 0 0 0 0 1 5 0 0 1 0 1 0 #
ellipse-curve $-1 0 0 7.5 0 0 1 5 0 0 1 #
point $-1 -4.33012701892219 2.5 7.5 #
loop $-1 $237 $238 $147 #
straight-curve $-1 4.33012701892219 -2.5 0 -0 0 -1 #
point $-1 4.33012701892219 -2.5 7.5 #
coedge $-1 $239 $163 $240 $241 0 $22 $-1 #
coedge $-1 $242 $243 $163 $205 1 $244 $-1 #
edge $-1 $209 $245 $163 $246 0 #
coedge $-1 $247 $164 $167 $212 0 $208 $-1 #
coedge $-1 $164 $248 $242 $249 0 $208 $-1 #
loop $-1 $-1 $248 $250 #
vertex $-1 $165 $251 #
straight-curve $-1 0 25 12.5 -1 0 0 #
coedge $-1 $167 $166 $252 $253 1 $168 $-1 #
edge $-1 $169 $254 $206 $255 0 #
face $-1 $250 $168 $2 $-1 $256 forward single #
point $-1 -12.5 25 12.5 #
coedge $-1 $171 $257 $258 $259 0 $22 $-1 #
coedge $-1 $260 $172 $171 $217 1 $219 $-1 #
edge $-1 $261 $220 $171 $221 0 #
coedge $-1 $172 $262 $174 $223 1 $219 $-1 #
loop $-1 $-1 $218 $263 #
vertex $-1 $217 $264 #
ellipse-curve $-1 12.5 12.5 12.5 -0 -0 -1 2 0 0 1 #
coedge $-1 $175 $174 $265 $266 1 $176 $-1 #
edge $-1 $177 $267 $174 $268 0 #
face $-1 $263 $269 $2 $-1 $270 forward single #
point $-1 10.5 12.5 12.5 #
coedge $-1 $265 $252 $179 $227 0 $271 $-1 #
edge $-1 $230 $228 $226 $272 0 #
vertex $-1 $180 $273 #
straight-curve $-1 -10.5 12.5 0 0 0 1 #
vertex $-1 $253 $274 #
straight-curve $-1 -12.5 14.5 0 -0 -0 -1 #
cone-surface $-1 -12.5 12.5 0 0 0 1 2 0 0 1 0 1 0 #
straight-curve $-1 -4.33012701892219 2.5 0 0 -0 -1 #
point $-1 4.33012701892219 -2.5 12.5 #
loop $-1 $275 $276 $196 #
cone-surface $-1 0 0 0 0 -1 -3.49148133884313e-15 2 0 0 1 0 1 0 #
loop $-1 $277 $278 $147 #
coedge $-1 $238 $238 $279 $280 1 $200 $-1 #
coedge $-1 $281 $203 $282 $283 0 $22 $-1 #
coedge $-1 $284 $285 $203 $241 1 $286 $-1 #
edge $-1 $245 $287 $203 $288 0 #
coedge $-1 $289 $204 $207 $249 1 $244 $-1 #
coedge $-1 $204 $289 $284 $290 1 $244 $-1 #
loop $-1 $-1 $289 $291 #
vertex $-1 $205 $292 #
straight-curve $-1 -40 6.25 12.5 0 -1 0 #
coedge $-1 $293 $206 $294 $295 1 $208 $-1 #
coedge $-1 $207 $296 $297 $298 0 $208 $-1 #
edge $-1 $299 $209 $207 $300 0 #
face $-1 $291 $208 $2 $-1 $301 reversed single #
point $-1 -40 25 12.5 #
coedge $-1 $226 $294 $211 $253 0 $271 $-1 #
edge $-1 $254 $230 $252 $302 0 #
vertex $-1 $295 $303 #
straight-curve $-1 -12.5 25 0 0 0 -1 #
plane-surface $-1 -12.5 18.75 0 1 0 0 0 0 -1 0 #
coedge $-1 $215 $304 $305 $306 0 $22 $-1 #
coedge $-1 $307 $308 $215 $259 1 $309 $-1 #
edge $-1 $310 $261 $215 $311 0 #
coedge $-1 $312 $216 $308 $313 1 $219 $-1 #
vertex $-1 $259 $314 #
coedge $-1 $218 $312 $315 $316 1 $219 $-1 #
face $-1 $317 $219 $2 $-1 $318 reversed single #
point $-1 14.5 12.5 12.5 #
coedge $-1 $315 $226 $222 $266 0 $271 $-1 #
edge $-1 $228 $267 $265 $319 0 #
vertex $-1 $266 $320 #
straight-curve $-1 10.5 12.5 0 -0 -0 -1 #
loop $-1 $176 $321 $224 #
plane-surface $-1 0 12.5 0 0 1 0 0 0 1 0 #
loop $-1 $-1 $226 $317 #
ellipse-curve $-1 -12.5 12.5 -12.5 0 0 1 2 0 0 1 #
point $-1 -10.5 12.5 -12.5 #
point $-1 -12.5 14.5 -12.5 #
loop $-1 $-1 $322 $196 #
coedge $-1 $276 $276 $321 $323 1 $235 $-1 #
loop $-1 $-1 $324 $147 #
coedge $-1 $278 $278 $322 $325 1 $237 $-1 #
coedge $-1 $279 $279 $238 $280 0 $326 $-1 #
edge $-1 $327 $327 $279 $328 0 #
coedge $-1 $329 $239 $330 $331 0 $22 $-1 #
coedge $-1 $332 $333 $239 $283 1 $334 $-1 #
edge $-1 $287 $335 $239 $336 0 #
coedge $-1 $337 $240 $243 $290 0 $286 $-1 #
coedge $-1 $240 $338 $332 $339 1 $286 $-1 #
loop $-1 $-1 $337 $340 #
vertex $-1 $241 $341 #
straight-curve $-1 -22.5 0 12.5 1 0 -0 #
coedge $-1 $243 $242 $342 $343 0 $244 $-1 #
edge $-1 $245 $344 $284 $345 0 #
face $-1 $346 $244 $2 $-1 $347 forward single #
point $-1 -40 0 12.5 #
coedge $-1 $348 $247 $349 $350 1 $208 $-1 #
coedge $-1 $252 $351 $247 $295 0 $271 $-1 #
edge $-1 $352 $254 $247 $353 0 #
coedge $-1 $248 $354 $355 $356 0 $208 $-1 #
coedge $-1 $355 $342 $248 $298 1 $357 $-1 #
edge $-1 $358 $299 $248 $359 0 #
vertex $-1 $298 $360 #
straight-curve $-1 -40 25 3.125 0 0 1 #
plane-surface $-1 0 25 0 0 -1 0 0 0 -1 0 #
straight-curve $-1 -12.5 9.375 -12.5 0 -1 0 #
point $-1 -12.5 25 -12.5 #
coedge $-1 $257 $361 $362 $363 0 $22 $-1 #
coedge $-1 $364 $365 $257 $306 1 $366 $-1 #
edge $-1 $367 $310 $305 $210 0 #
coedge $-1 $368 $258 $365 $369 1 $309 $-1 #
coedge $-1 $258 $368 $260 $313 0 $309 $-1 #
loop $-1 $-1 $308 $370 #
vertex $-1 $306 $371 #
straight-curve $-1 12.5 9.375 12.5 0 -1 0 #
coedge $-1 $262 $260 $372 $373 1 $219 $-1 #
edge $-1 $374 $261 $308 $375 0 #
point $-1 12.5 14.5 12.5 #
coedge $-1 $372 $265 $262 $316 0 $271 $-1 #
edge $-1 $267 $376 $315 $377 0 #
face $-1 $370 $378 $2 $-1 $379 reversed single #
cone-surface $-1 12.5 12.5 0 0 0 1 2 0 0 1 0 1 0 #
straight-curve $-1 0 12.5 -12.5 1 0 0 #
point $-1 10.5 12.5 -12.5 #
coedge $-1 $321 $321 $276 $323 0 $269 $-1 #
coedge $-1 $322 $322 $278 $325 0 $275 $-1 #
edge $-1 $380 $380 $321 $381 0 #
coedge $-1 $324 $324 $382 $383 1 $277 $-1 #
edge $-1 $384 $384 $322 $385 0 #
loop $-1 $386 $279 $387 #
vertex $-1 $280 $388 #
intcurve-curve $-1 0 { surfintcur nubs 3 periodic 33 
	0 3 0.381557665252646 2 0.763115330505291 2 1.14467299575794 2 1.52623066101058 2 
	1.90740233130987 2 2.28857400160916 2 2.66974567190844 2 3.05091734220773 2 3.43208901250701 2 
	3.8132606828063 2 4.19443235310558 2 4.57560402340487 2 4.95716168865752 2 5.33871935391018 2 
	5.72027701916283 2 6.10183468441548 2 6.48339234966813 2 6.86495001492078 2 7.24650768017344 2 
	7.62806534542609 2 8.00923701572537 2 8.39040868602466 2 8.77158035632394 2 9.15275202662322 2 
	9.53392369692251 2 9.91509536722179 2 10.2962670375211 2 10.6774387078204 2 11.058996373073 2 
	11.4405540383257 2 11.8221117035783 2 12.203669368831 3 
	2 -4.58257569495584 -1.59999775227744e-14 
	2 -4.58257569495584 -0.127185888417565 
	1.98767353064423 -4.58802055518972 -0.258185221141073 
	1.9363401744334 -4.60992032537496 -0.517776403143929 
	1.89735012832555 -4.62634858750892 -0.646373829719605 
	1.79489398353534 -4.66705409495585 -0.892240292935081 
	1.73134666295566 -4.69131665108603 -1.00973217303435 
	1.58503420032759 -4.74275023280073 -1.22669756421402 
	1.50225400701941 -4.76986981255392 -1.32617311772679 
	1.32626218202932 -4.82176697044154 -1.50216494271689 
	1.22682943203053 -4.84843070438787 -1.58493376035709 
	1.00984207348239 -4.8982251619299 -1.73128405161287 
	0.892285249937377 -4.92131309632891 -1.7948767964603 
	0.646287288441866 -4.95961775780347 -1.89738464392357 
	0.51762514210353 -4.97483828142655 -1.9363812278505 
	0.25801211970898 -4.99503568157258 -1.98769660497701 
	0.127057223433109 -5 -2.00000000000002 
	-0.127057223433081 -5 -2.00000000000002 
	-0.258012119708953 -4.99503568157259 -1.98769660497702 
	-0.517625142103503 -4.97483828142655 -1.93638122785051 
	-0.64628728844184 -4.95961775780347 -1.89738464392358 
	-0.892285249937351 -4.92131309632892 -1.79487679646031 
	-1.00984207348237 -4.8982251619299 -1.73128405161288 
	-1.22682943203051 -4.84843070438788 -1.5849337603571 
	-1.3262621820293 -4.82176697044154 -1.50216494271691 
	-1.5022540070194 -4.76986981255392 -1.32617311772681 
	-1.58503420032758 -4.74275023280073 -1.22669756421404 
	-1.73134666295565 -4.69131665108603 -1.00973217303436 
	-1.79489398353533 -4.66705409495586 -0.892240292935096 
	-1.89735012832555 -4.62634858750892 -0.646373829719616 
	-1.9363401744334 -4.60992032537496 -0.517776403143938 
	-1.98767353064423 -4.58802055518972 -0.258185221141078 
	-2 -4.58257569495584 -0.127185888417567 
	-2 -4.58257569495584 0.127185888417534 
	-1.98767353064423 -4.58802055518972 0.258185221141045 
	-1.9363401744334 -4.60992032537496 0.517776403143904 
	-1.89735012832555 -4.62634858750892 0.646373829719582 
	-1.79489398353533 -4.66705409495586 0.89224029293506 
	-1.73134666295565 -4.69131665108603 1.00973217303433 
	-1.58503420032758 -4.74275023280073 1.226697564214 
	-1.5022540070194 -4.76986981255392 1.32617311772677 
	-1.32626218202931 -4.82176697044154 1.50216494271687 
	-1.22682943203052 -4.84843070438788 1.58493376035706 
	-1.00984207348237 -4.8982251619299 1.73128405161284 
	-0.892285249937359 -4.92131309632892 1.79487679646027 
	-0.646287288441849 -4.95961775780347 1.89738464392354 
	-0.517625142103513 -4.97483828142655 1.93638122785047 
	-0.258012119708964 -4.99503568157258 1.98769660497698 
	-0.127057223433094 -5 1.99999999999998 
	0.127057223433094 -5 1.99999999999998 
	0.258012119708965 -4.99503568157258 1.98769660497698 
	0.517625142103513 -4.97483828142655 1.93638122785047 
	0.646287288441849 -4.95961775780347 1.89738464392354 
	0.89228524993736 -4.92131309632892 1.79487679646027 
	1.00984207348237 -4.8982251619299 1.73128405161284 
	1.22682943203052 -4.84843070438788 1.58493376035706 
	1.32626218202931 -4.82176697044154 1.50216494271687 
	1.5022540070194 -4.76986981255392 1.32617311772677 
	1.58503420032758 -4.74275023280073 1.226697564214 
	1.73134666295565 -4.69131665108603 1.00973217303433 
	1.79489398353533 -4.66705409495586 0.892240292935059 
	1.89735012832555 -4.62634858750892 0.646373829719582 
	1.9363401744334 -4.60992032537496 0.517776403143905 
	1.98767353064423 -4.58802055518972 0.258185221141046 
	2 -4.58257569495584 0.127185888417535 
	2 -4.58257569495584 -1.59999775227744e-14 
	0.001 
	cone 0 0 0 0 -1 -3.49148133884313e-15 2 0 0 1 -0 -1 0 
	cone 0 0 0 0 0 1 5 0 0 1 -0 -1 0 
	nullbs 
	nullbs 
	} #
coedge $-1 $389 $281 $390 $391 0 $22 $-1 #
coedge $-1 $392 $393 $281 $331 1 $394 $-1 #
edge $-1 $335 $395 $330 $396 0 #
coedge $-1 $397 $282 $285 $339 0 $334 $-1 #
coedge $-1 $282 $397 $392 $398 1 $334 $-1 #
loop $-1 $-1 $333 $399 #
vertex $-1 $398 $400 #
straight-curve $-1 -27.5 -6.25 12.5 0 -1 0 #
coedge $-1 $401 $284 $402 $403 0 $286 $-1 #
coedge $-1 $285 $404 $405 $406 1 $286 $-1 #
edge $-1 $287 $407 $332 $408 0 #
face $-1 $409 $286 $2 $-1 $410 forward single #
point $-1 -27.5 0 12.5 #
coedge $-1 $297 $402 $289 $343 1 $357 $-1 #
edge $-1 $299 $344 $289 $411 0 #
vertex $-1 $290 $412 #
straight-curve $-1 -40 0 3.125 -0 -0 -1 #
face $-1 $413 $414 $2 $-1 $13 forward single #
plane-surface $-1 -40 12.5 6.25 -1 0 0 0 0 1 0 #
coedge $-1 $415 $293 $416 $417 1 $208 $-1 #
coedge $-1 $418 $419 $293 $350 0 $420 $-1 #
edge $-1 $421 $352 $293 $422 0 #
coedge $-1 $294 $405 $418 $423 0 $271 $-1 #
vertex $-1 $295 $424 #
straight-curve $-1 0 25 -12.5 1 0 0 #
coedge $-1 $296 $425 $426 $427 0 $208 $-1 #
coedge $-1 $428 $297 $296 $356 1 $357 $-1 #
edge $-1 $429 $358 $296 $359 0 #
loop $-1 $-1 $342 $430 #
vertex $-1 $356 $431 #
ellipse-curve $-1 -40 25 8.72870334710783e-14 0 -1 0 2 0 0 1 #
point $-1 -40 25 2.00000000000009 #
coedge $-1 $304 $432 $433 $434 0 $22 $-1 #
coedge $-1 $435 $436 $304 $363 1 $437 $-1 #
edge $-1 $438 $367 $304 $439 0 #
coedge $-1 $440 $305 $436 $441 0 $366 $-1 #
coedge $-1 $305 $442 $307 $369 0 $366 $-1 #
loop $-1 $-1 $440 $443 #
vertex $-1 $441 $444 #
coedge $-1 $308 $307 $445 $446 1 $309 $-1 #
edge $-1 $447 $310 $365 $448 0 #
face $-1 $387 $309 $2 $-1 $449 forward single #
point $-1 12.5 25 12.5 #
coedge $-1 $445 $315 $312 $373 0 $271 $-1 #
edge $-1 $376 $374 $372 $377 0 #
vertex $-1 $313 $450 #
straight-curve $-1 12.5 14.5 0 0 0 1 #
vertex $-1 $373 $451 #
ellipse-curve $-1 12.5 12.5 -12.5 0 0 1 2 0 0 1 #
loop $-1 $271 $382 $317 #
plane-surface $-1 0 0 -12.5 0 0 1 1 0 0 0 #
vertex $-1 $323 $452 #
ellipse-curve $-1 0 12.5 4.36435167355392e-14 -0 -1 -0 2 0 0 1 #
coedge $-1 $382 $382 $324 $383 0 $378 $-1 #
edge $-1 $453 $453 $382 $454 0 #
vertex $-1 $325 $455 #
intcurve-curve $-1 0 { surfintcur nubs 3 periodic 33 
	0 3 0.381557665252651 2 0.763115330505303 2 1.14467299575795 2 1.52623066101061 2 
	1.90740233130989 2 2.28857400160917 2 2.66974567190846 2 3.05091734220774 2 3.43208901250703 2 
	3.81326068280631 2 4.19443235310559 2 4.57560402340488 2 4.95716168865753 2 5.33871935391018 2 
	5.72027701916283 2 6.10183468441548 2 6.48339234966814 2 6.86495001492079 2 7.24650768017344 2 
	7.62806534542609 2 8.00923701572538 2 8.39040868602467 2 8.77158035632395 2 9.15275202662324 2 
	9.53392369692252 2 9.91509536722181 2 10.2962670375211 2 10.6774387078204 2 11.058996373073 2 
	11.4405540383257 2 11.8221117035783 2 12.203669368831 3 
	2 4.58257569495584 1.59999775227744e-14 
	2 4.58257569495584 0.127185888417566 
	1.98767353064423 4.58802055518972 0.258185221141077 
	1.9363401744334 4.60992032537496 0.517776403143937 
	1.89735012832555 4.62634858750892 0.646373829719614 
	1.79489398353533 4.66705409495586 0.892240292935093 
	1.73134666295565 4.69131665108603 1.00973217303436 
	1.58503420032758 4.74275023280073 1.22669756421403 
	1.5022540070194 4.76986981255392 1.32617311772681 
	1.32626218202931 4.82176697044154 1.5021649427169 
	1.22682943203052 4.84843070438788 1.5849337603571 
	1.00984207348237 4.8982251619299 1.73128405161288 
	0.89228524993736 4.92131309632891 1.79487679646031 
	0.64628728844185 4.95961775780347 1.89738464392358 
	0.517625142103514 4.97483828142655 1.9363812278505 
	0.258012119708965 4.99503568157259 1.98769660497701 
	0.127057223433095 5 2.00000000000002 
	-0.127057223433095 5 2.00000000000002 
	-0.258012119708965 4.99503568157258 1.98769660497701 
	-0.517625142103514 4.97483828142655 1.9363812278505 
	-0.64628728844185 4.95961775780347 1.89738464392358 
	-0.89228524993736 4.92131309632891 1.79487679646031 
	-1.00984207348237 4.8982251619299 1.73128405161288 
	-1.22682943203052 4.84843070438788 1.5849337603571 
	-1.32626218202931 4.82176697044154 1.5021649427169 
	-1.5022540070194 4.76986981255392 1.32617311772681 
	-1.58503420032758 4.74275023280073 1.22669756421403 
	-1.73134666295565 4.69131665108603 1.00973217303436 
	-1.79489398353533 4.66705409495586 0.892240292935092 
	-1.89735012832555 4.62634858750892 0.646373829719614 
	-1.9363401744334 4.60992032537496 0.517776403143936 
	-1.98767353064423 4.58802055518972 0.258185221141077 
	-2 4.58257569495584 0.127185888417566 
	-2 4.58257569495584 -0.127185888417535 
	-1.98767353064423 4.58802055518972 -0.258185221141046 
	-1.9363401744334 4.60992032537496 -0.517776403143906 
	-1.89735012832555 4.62634858750892 -0.646373829719584 
	-1.79489398353533 4.66705409495586 -0.892240292935062 
	-1.73134666295565 4.69131665108603 -1.00973217303433 
	-1.58503420032758 4.74275023280073 -1.226697564214 
	-1.5022540070194 4.76986981255392 -1.32617311772678 
	-1.3262621820293 4.82176697044154 -1.50216494271687 
	-1.22682943203051 4.84843070438788 -1.58493376035707 
	-1.00984207348237 4.8982251619299 -1.73128405161285 
	-0.892285249937351 4.92131309632892 -1.79487679646028 
	-0.646287288441839 4.95961775780347 -1.89738464392354 
	-0.517625142103502 4.97483828142655 -1.93638122785047 
	-0.258012119708952 4.99503568157258 -1.98769660497698 
	-0.127057223433081 5 -1.99999999999998 
	0.127057223433109 5 -1.99999999999998 
	0.258012119708981 4.99503568157258 -1.98769660497698 
	0.51762514210353 4.97483828142655 -1.93638122785046 
	0.646287288441866 4.95961775780347 -1.89738464392354 
	0.892285249937376 4.92131309632891 -1.79487679646026 
	1.00984207348239 4.8982251619299 -1.73128405161283 
	1.22682943203053 4.84843070438787 -1.58493376035705 
	1.32626218202932 4.82176697044154 -1.50216494271685 
	1.50225400701941 4.76986981255392 -1.32617311772676 
	1.58503420032759 4.74275023280073 -1.22669756421399 
	1.73134666295566 4.69131665108602 -1.00973217303432 
	1.79489398353534 4.66705409495586 -0.892240292935048 
	1.89735012832555 4.62634858750892 -0.646373829719572 
	1.9363401744334 4.60992032537496 -0.517776403143896 
	1.98767353064423 4.58802055518972 -0.25818522114104 
	2 4.58257569495584 -0.127185888417532 
	2 4.58257569495584 1.59999775227744e-14 
	0.001 
	cone 0 0 0 0 -1 -3.49148133884313e-15 2 0 0 1 -0 -1 0 
	cone 0 0 0 0 0 1 5 0 0 1 -0 -1 0 
	nullbs 
	nullbs 
	} #
loop $-1 $-1 $456 $387 #
face $-1 $430 $326 $2 $-1 $236 reversed single #
point $-1 2 -4.58257569495584 -1.59999775227744e-14 #
coedge $-1 $457 $329 $458 $459 0 $22 $-1 #
coedge $-1 $460 $461 $329 $391 1 $462 $-1 #
edge $-1 $395 $463 $329 $464 0 #
coedge $-1 $465 $330 $333 $398 0 $394 $-1 #
coedge $-1 $330 $466 $460 $467 0 $394 $-1 #
loop $-1 $-1 $393 $468 #
vertex $-1 $331 $469 #
straight-curve $-1 0 -25 12.5 1 0 0 #
coedge $-1 $333 $332 $470 $471 1 $334 $-1 #
edge $-1 $335 $472 $392 $473 0 #
face $-1 $474 $334 $2 $-1 $475 forward single #
point $-1 -27.5 -25 12.5 #
coedge $-1 $476 $337 $477 $478 0 $286 $-1 #
coedge $-1 $342 $428 $337 $403 1 $357 $-1 #
edge $-1 $344 $479 $337 $480 0 #
coedge $-1 $338 $481 $482 $483 1 $286 $-1 #
coedge $-1 $351 $470 $338 $406 0 $271 $-1 #
edge $-1 $407 $484 $405 $485 0 #
vertex $-1 $406 $486 #
straight-curve $-1 -27.5 0 0 0 0 -1 #
face $-1 $487 $488 $2 $-1 $489 forward single #
plane-surface $-1 -45 0 0 0 -1 0 0 0 -1 0 #
straight-curve $-1 -40 -6.73022453020305e-15 2 0 -1 -3.49148133884313e-15 #
point $-1 -40 0 2 #
face $-1 $490 $491 $2 $-1 $492 forward single #
loop $-1 $-1 $493 $346 #
coedge $-1 $425 $348 $494 $495 0 $208 $-1 #
coedge $-1 $496 $493 $348 $417 0 $414 $-1 #
edge $-1 $497 $421 $348 $210 0 #
coedge $-1 $482 $349 $351 $423 1 $420 $-1 #
coedge $-1 $349 $482 $496 $498 1 $420 $-1 #
loop $-1 $-1 $482 $499 #
vertex $-1 $417 $500 #
straight-curve $-1 -62.5 25 0 0 0 -1 #
edge $-1 $484 $352 $418 $501 0 #
point $-1 -62.5 25 -12.5 #
coedge $-1 $354 $415 $502 $503 0 $208 $-1 #
coedge $-1 $504 $505 $354 $427 1 $488 $-1 #
edge $-1 $506 $429 $354 $507 0 #
coedge $-1 $402 $355 $505 $508 1 $357 $-1 #
vertex $-1 $427 $509 #
face $-1 $340 $357 $2 $-1 $510 reversed single #
point $-1 -38 25 8.72870334710783e-14 #
coedge $-1 $361 $511 $512 $513 0 $22 $-1 #
coedge $-1 $514 $515 $361 $434 1 $516 $-1 #
edge $-1 $517 $438 $361 $518 0 #
coedge $-1 $519 $362 $515 $520 1 $437 $-1 #
coedge $-1 $362 $519 $364 $441 1 $437 $-1 #
loop $-1 $-1 $519 $521 #
vertex $-1 $434 $522 #
straight-curve $-1 40 6.25 12.5 0 1 0 #
coedge $-1 $523 $364 $524 $525 0 $366 $-1 #
edge $-1 $367 $526 $364 $527 0 #
coedge $-1 $365 $528 $529 $530 1 $366 $-1 #
face $-1 $531 $366 $2 $-1 $301 reversed single #
point $-1 40 25 12.5 #
coedge $-1 $529 $372 $368 $446 0 $271 $-1 #
edge $-1 $374 $447 $445 $532 0 #
vertex $-1 $446 $533 #
straight-curve $-1 12.5 25 0 0 0 1 #
plane-surface $-1 12.5 18.75 0 -1 0 0 0 0 1 0 #
point $-1 12.5 14.5 -12.5 #
point $-1 14.5 12.5 -12.5 #
point $-1 -2 12.5 5.76094420909117e-14 #
vertex $-1 $383 $534 #
ellipse-curve $-1 0 0 -12.5 0 0 1 5 0 0 1 #
point $-1 2 4.58257569495584 1.59999775227744e-14 #
coedge $-1 $456 $456 $535 $536 1 $386 $-1 #
coedge $-1 $511 $389 $537 $538 0 $22 $-1 #
coedge $-1 $539 $540 $389 $459 1 $541 $-1 #
edge $-1 $463 $542 $389 $543 0 #
coedge $-1 $544 $390 $393 $467 1 $462 $-1 #
coedge $-1 $390 $544 $539 $545 1 $462 $-1 #
loop $-1 $-1 $544 $546 #
vertex $-1 $391 $547 #
straight-curve $-1 -20 -9.375 12.5 0 1 0 #
coedge $-1 $548 $392 $549 $550 1 $394 $-1 #
coedge $-1 $393 $551 $552 $553 0 $394 $-1 #
edge $-1 $554 $395 $393 $555 0 #
face $-1 $556 $394 $2 $-1 $557 reversed single #
point $-1 -20 -25 12.5 #
coedge $-1 $405 $549 $397 $471 0 $271 $-1 #
edge $-1 $472 $407 $470 $558 0 #
vertex $-1 $550 $559 #
straight-curve $-1 -27.5 -25 0 -0 0 -1 #
face $-1 $468 $560 $2 $-1 $13 forward single #
plane-surface $-1 -27.5 -12.5 0 -1 0 0 0 0 1 0 #
coedge $-1 $561 $401 $562 $563 0 $286 $-1 #
coedge $-1 $505 $504 $401 $478 1 $488 $-1 #
edge $-1 $479 $564 $401 $565 0 #
vertex $-1 $508 $566 #
ellipse-curve $-1 -40 0 0 -0 1 -0 2 0 0 1 #
coedge $-1 $404 $561 $567 $568 1 $286 $-1 #
coedge $-1 $419 $418 $404 $483 0 $420 $-1 #
edge $-1 $484 $569 $482 $570 0 #
vertex $-1 $406 $571 #
straight-curve $-1 -22.5 0 -12.5 -1 0 0 #
point $-1 -27.5 0 -12.5 #
face $-1 $521 $572 $2 $-1 $573 reversed single #
loop $-1 $-1 $505 $409 #
plane-surface $-1 -47.5 12.5 0 0 0 1 1 0 0 0 #
face $-1 $574 $575 $2 $-1 $576 forward single #
loop $-1 $-1 $577 $413 #
plane-surface $-1 47.5 12.5 0 0 0 1 1 0 0 0 #
coedge $-1 $416 $567 $578 $579 0 $414 $-1 #
coedge $-1 $578 $580 $415 $495 1 $581 $-1 #
edge $-1 $497 $582 $415 $583 0 #
coedge $-1 $567 $416 $419 $498 0 $414 $-1 #
vertex $-1 $495 $584 #
edge $-1 $421 $569 $419 $585 0 #
face $-1 $-1 $420 $2 $-1 $586 reversed single #
point $-1 -62.5 25 12.5 #
straight-curve $-1 -62.5 0 -12.5 0 1 0 #
coedge $-1 $587 $588 $425 $503 1 $589 $-1 #
edge $-1 $582 $506 $425 $590 0 #
coedge $-1 $477 $426 $588 $591 0 $488 $-1 #
coedge $-1 $426 $477 $428 $508 0 $488 $-1 #
vertex $-1 $503 $592 #
straight-curve $-1 -23.75 25 0 1 0 -0 #
edge $-1 $479 $429 $505 $593 0 #
point $-1 -42 25 0 #
cone-surface $-1 -40 0 0 0 -1 -3.49148133884313e-15 2 0 0 1 0 1 0 #
coedge $-1 $432 $457 $594 $595 0 $22 $-1 #
coedge $-1 $596 $597 $432 $513 1 $598 $-1 #
edge $-1 $599 $517 $432 $600 0 #
coedge $-1 $601 $433 $597 $602 0 $516 $-1 #
coedge $-1 $433 $603 $435 $520 0 $516 $-1 #
loop $-1 $-1 $603 $574 #
vertex $-1 $513 $604 #
straight-curve $-1 22.5 0 12.5 1 0 -0 #
coedge $-1 $436 $435 $605 $606 0 $437 $-1 #
edge $-1 $607 $438 $515 $608 0 #
face $-1 $609 $437 $2 $-1 $610 forward single #
point $-1 40 0 12.5 #
coedge $-1 $611 $440 $612 $613 0 $366 $-1 #
coedge $-1 $605 $614 $440 $525 1 $572 $-1 #
edge $-1 $526 $615 $440 $616 0 #
vertex $-1 $441 $617 #
straight-curve $-1 40 25 3.125 0 0 -1 #
coedge $-1 $442 $618 $619 $620 0 $366 $-1 #
coedge $-1 $621 $445 $442 $530 0 $271 $-1 #
edge $-1 $447 $622 $442 $353 0 #
face $-1 $623 $624 $2 $-1 $625 forward single #
straight-curve $-1 12.5 9.375 -12.5 0 1 -0 #
point $-1 12.5 25 -12.5 #
point $-1 5 0 -12.5 #
coedge $-1 $535 $535 $456 $536 0 $626 $-1 #
edge $-1 $627 $627 $535 $628 0 #
coedge $-1 $629 $630 $457 $538 1 $631 $-1 #
edge $-1 $542 $632 $457 $633 0 #
coedge $-1 $634 $458 $461 $545 0 $541 $-1 #
coedge $-1 $458 $635 $629 $636 1 $541 $-1 #
loop $-1 $-1 $635 $637 #
vertex $-1 $459 $638 #
straight-curve $-1 0 -12.5 12.5 1 0 -0 #
coedge $-1 $461 $460 $639 $640 1 $462 $-1 #
edge $-1 $463 $641 $539 $642 0 #
face $-1 $643 $462 $2 $-1 $644 forward single #
point $-1 -20 -12.5 12.5 #
coedge $-1 $594 $465 $596 $645 0 $394 $-1 #
coedge $-1 $470 $646 $465 $550 0 $271 $-1 #
edge $-1 $647 $472 $465 $648 0 #
coedge $-1 $466 $649 $650 $651 0 $394 $-1 #
coedge $-1 $652 $639 $466 $553 1 $653 $-1 #
edge $-1 $654 $554 $466 $655 0 #
vertex $-1 $467 $656 #
straight-curve $-1 -20 -25 1.875 -0 0 1 #
face $-1 $657 $598 $2 $-1 $658 forward single #
plane-surface $-1 0 -25 0 0 1 -0 -0 0 1 0 #
straight-curve $-1 -27.5 -6.25 -12.5 0 1 -0 #
point $-1 -27.5 -25 -12.5 #
loop $-1 $-1 $659 $474 #
coedge $-1 $481 $476 $660 $661 0 $286 $-1 #
coedge $-1 $588 $587 $476 $563 1 $589 $-1 #
edge $-1 $564 $662 $476 $663 0 #
vertex $-1 $478 $664 #
straight-curve $-1 -46.25 0 0 -1 0 0 #
point $-1 -42 0 0 #
coedge $-1 $493 $496 $481 $568 0 $414 $-1 #
edge $-1 $569 $665 $567 $288 0 #
vertex $-1 $498 $666 #
straight-curve $-1 -62.5 0 0 -0 0 1 #
point $-1 -62.5 0 -12.5 #
loop $-1 $-1 $614 $487 #
cone-surface $-1 40 0 0 0 -1 -3.49148133884313e-15 2 0 0 1 0 1 0 #
face $-1 $399 $516 $2 $-1 $667 forward single #
loop $-1 $-1 $668 $490 #
plane-surface $-1 55 12.5 6.25 -1 0 0 0 0 1 0 #
coedge $-1 $669 $612 $614 $670 0 $491 $-1 #
coedge $-1 $660 $494 $493 $579 1 $581 $-1 #
edge $-1 $665 $497 $493 $671 0 #
coedge $-1 $494 $660 $587 $672 0 $581 $-1 #
loop $-1 $-1 $580 $673 #
vertex $-1 $495 $674 #
straight-curve $-1 -55 25 3.125 0 0 -1 #
point $-1 -55 25 12.5 #
straight-curve $-1 -62.5 0 12.5 0 -1 0 #
plane-surface $-1 -62.5 0 0 1 0 0 0 0 -1 0 #
coedge $-1 $562 $502 $580 $672 1 $589 $-1 #
coedge $-1 $502 $562 $504 $591 1 $589 $-1 #
loop $-1 $-1 $588 $609 #
ellipse-curve $-1 -55 25 8.72870334710783e-14 0 -1 0 2 0 0 1 #
edge $-1 $506 $564 $504 $675 0 #
point $-1 -53 25 8.72870334710783e-14 #
straight-curve $-1 -42 -7.61902621218115e-29 0 -0 1 3.49148133884313e-15 #
coedge $-1 $676 $548 $511 $595 1 $394 $-1 #
edge $-1 $632 $599 $594 $396 0 #
coedge $-1 $677 $512 $548 $645 1 $598 $-1 #
coedge $-1 $512 $677 $514 $602 1 $598 $-1 #
loop $-1 $-1 $597 $556 #
vertex $-1 $595 $678 #
straight-curve $-1 27.5 -6.25 12.5 0 1 0 #
coedge $-1 $679 $514 $680 $681 1 $516 $-1 #
edge $-1 $517 $682 $514 $683 0 #
coedge $-1 $515 $684 $685 $686 0 $516 $-1 #
point $-1 27.5 0 12.5 #
coedge $-1 $685 $524 $519 $606 1 $572 $-1 #
edge $-1 $607 $526 $519 $687 0 #
vertex $-1 $606 $688 #
straight-curve $-1 40 0 3.125 -0 0 1 #
face $-1 $673 $589 $2 $-1 $689 reversed single #
plane-surface $-1 40 12.5 6.25 1 0 0 0 0 -1 0 #
coedge $-1 $690 $523 $691 $692 0 $366 $-1 #
coedge $-1 $577 $693 $523 $613 1 $491 $-1 #
edge $-1 $615 $694 $523 $695 0 #
coedge $-1 $524 $685 $577 $670 1 $572 $-1 #
vertex $-1 $525 $696 #
ellipse-curve $-1 40 25 8.72870334710783e-14 0 -1 0 2 0 0 1 #
point $-1 40 25 2.00000000000009 #
coedge $-1 $528 $697 $698 $699 1 $366 $-1 #
coedge $-1 $700 $701 $528 $620 1 $702 $-1 #
edge $-1 $703 $622 $619 $704 0 #
coedge $-1 $680 $529 $701 $705 0 $271 $-1 #
vertex $-1 $705 $706 #
face $-1 $707 $708 $2 $-1 $709 forward single #
loop $-1 $-1 $710 $531 #
cone-surface $-1 15 -18.75 0 0 -1 -0 3.53553390593274 0 -3.53553390593274 1 0 -1 0 #
loop $-1 $541 $535 $637 #
vertex $-1 $536 $711 #
ellipse-curve $-1 0 -12.5 -4.36435167355391e-14 -0 1 -0 2 0 0 1 #
coedge $-1 $712 $537 $540 $636 0 $631 $-1 #
coedge $-1 $537 $712 $676 $713 1 $631 $-1 #
loop $-1 $-1 $712 $643 #
vertex $-1 $713 $714 #
straight-curve $-1 20 -9.375 12.5 0 -1 0 #
coedge $-1 $715 $539 $716 $717 0 $541 $-1 #
coedge $-1 $540 $715 $718 $719 0 $541 $-1 #
edge $-1 $542 $720 $629 $721 0 #
face $-1 $546 $626 $2 $-1 $722 forward single #
point $-1 20 -12.5 12.5 #
coedge $-1 $552 $716 $544 $640 0 $653 $-1 #
edge $-1 $641 $554 $544 $723 0 #
vertex $-1 $545 $724 #
straight-curve $-1 -20 -12.5 3.75 0 0 -1 #
face $-1 $213 $631 $2 $-1 $725 forward single #
plane-surface $-1 -20 -18.75 3.75 1 0 0 0 0 -1 0 #
edge $-1 $647 $599 $548 $726 0 #
coedge $-1 $549 $680 $677 $727 0 $271 $-1 #
vertex $-1 $645 $728 #
straight-curve $-1 0 -25 -12.5 -1 0 0 #
coedge $-1 $551 $676 $729 $730 0 $394 $-1 #
coedge $-1 $731 $732 $551 $651 1 $708 $-1 #
edge $-1 $733 $654 $551 $734 0 #
coedge $-1 $716 $552 $732 $735 0 $653 $-1 #
loop $-1 $-1 $639 $707 #
vertex $-1 $651 $736 #
ellipse-curve $-1 -15 -25 0 0 1 -0 -3.53553390593274 0 -3.53553390593274 1 #
point $-1 -20 -25 0 #
face $-1 $499 $702 $2 $-1 $737 reversed single #
plane-surface $-1 27.5 -12.5 0 1 0 0 0 0 -1 0 #
coedge $-1 $738 $698 $739 $740 0 $560 $-1 #
coedge $-1 $580 $578 $561 $661 1 $581 $-1 #
edge $-1 $662 $665 $561 $741 0 #
vertex $-1 $672 $742 #
ellipse-curve $-1 -55 0 0 -0 1 -0 2 0 0 1 #
point $-1 -53 0 0 #
vertex $-1 $568 $743 #
point $-1 -62.5 0 12.5 #
plane-surface $-1 45 0 0 0 -1 0 0 0 -1 0 #
coedge $-1 $744 $745 $746 $747 0 $575 $-1 #
coedge $-1 $693 $577 $684 $748 1 $491 $-1 #
edge $-1 $615 $749 $577 $750 0 #
straight-curve $-1 -55 6.25 12.5 0 1 0 #
edge $-1 $662 $582 $580 $751 0 #
face $-1 $752 $581 $2 $-1 $753 forward single #
point $-1 -55 25 2.00000000000009 #
straight-curve $-1 -53 -7.61902621218115e-29 0 0 -1 -3.49148133884313e-15 #
coedge $-1 $649 $594 $630 $713 0 $394 $-1 #
coedge $-1 $597 $596 $646 $727 1 $598 $-1 #
point $-1 27.5 -25 12.5 #
coedge $-1 $754 $601 $755 $756 1 $516 $-1 #
coedge $-1 $646 $621 $601 $681 0 $271 $-1 #
edge $-1 $757 $682 $680 $758 0 #
vertex $-1 $727 $759 #
straight-curve $-1 27.5 0 0 0 0 -1 #
coedge $-1 $603 $760 $669 $748 0 $516 $-1 #
coedge $-1 $614 $605 $603 $686 1 $572 $-1 #
edge $-1 $749 $607 $603 $761 0 #
straight-curve $-1 40 -6.73022453020305e-15 2 -0 1 3.49148133884313e-15 #
point $-1 40 0 2 #
cone-surface $-1 -55 0 0 0 -1 -3.49148133884313e-15 2 0 0 1 0 1 0 #
coedge $-1 $697 $611 $762 $763 0 $366 $-1 #
coedge $-1 $764 $762 $611 $692 1 $765 $-1 #
edge $-1 $694 $766 $611 $767 0 #
coedge $-1 $612 $669 $764 $768 0 $491 $-1 #
vertex $-1 $613 $769 #
straight-curve $-1 23.75 25 0 1 0 -0 #
point $-1 42 25 8.72870334710783e-14 #
coedge $-1 $618 $690 $745 $770 0 $366 $-1 #
coedge $-1 $659 $771 $618 $699 0 $560 $-1 #
edge $-1 $703 $772 $618 $210 0 #
coedge $-1 $755 $619 $771 $773 1 $702 $-1 #
coedge $-1 $619 $755 $621 $705 1 $702 $-1 #
loop $-1 $-1 $755 $657 #
vertex $-1 $773 $774 #
straight-curve $-1 62.5 25 0 0 0 -1 #
edge $-1 $622 $757 $701 $775 0 #
point $-1 62.5 25 -12.5 #
face $-1 $637 $653 $2 $-1 $776 forward single #
loop $-1 $-1 $731 $623 #
plane-surface $-1 0 -18.75 -5 0 0 1 1 0 0 0 #
coedge $-1 $718 $729 $712 $777 0 $624 $-1 #
point $-1 -2 -12.5 -5.76094420909117e-14 #
coedge $-1 $630 $629 $710 $777 1 $631 $-1 #
edge $-1 $632 $778 $676 $779 0 #
point $-1 20 -25 12.5 #
coedge $-1 $635 $634 $780 $781 0 $541 $-1 #
coedge $-1 $639 $652 $634 $717 1 $653 $-1 #
edge $-1 $641 $782 $634 $783 0 #
coedge $-1 $784 $710 $635 $719 1 $624 $-1 #
edge $-1 $785 $720 $635 $786 0 #
vertex $-1 $636 $787 #
straight-curve $-1 20 -12.5 3.75 0 0 -1 #
plane-surface $-1 0 -12.5 3.75 0 -1 0 0 0 -1 0 #
straight-curve $-1 -20 -18.75 0 -0 -1 -0 #
point $-1 -20 -12.5 0 #
plane-surface $-1 20 -18.75 3.75 -1 0 0 0 0 1 0 #
straight-curve $-1 27.5 -25 0 -0 0 1 #
edge $-1 $682 $647 $646 $788 0 #
point $-1 27.5 -25 -12.5 #
coedge $-1 $710 $784 $649 $730 1 $624 $-1 #
edge $-1 $778 $733 $649 $789 0 #
coedge $-1 $780 $650 $784 $790 1 $708 $-1 #
coedge $-1 $650 $780 $652 $735 1 $708 $-1 #
vertex $-1 $651 $791 #
straight-curve $-1 0 -25 -5 -1 0 0 #
edge $-1 $654 $782 $732 $792 0 #
point $-1 -15 -25 -5 #
plane-surface $-1 62.5 0 0 -1 0 0 0 -0 1 0 #
coedge $-1 $771 $659 $754 $793 0 $560 $-1 #
coedge $-1 $745 $744 $659 $740 1 $575 $-1 #
edge $-1 $772 $794 $659 $795 0 #
straight-curve $-1 -55 0 3.125 -0 0 1 #
point $-1 -55 0 2 #
point $-1 -55 0 12.5 #
coedge $-1 $739 $668 $796 $797 1 $575 $-1 #
coedge $-1 $668 $739 $697 $770 1 $575 $-1 #
coedge $-1 $762 $798 $668 $747 1 $765 $-1 #
edge $-1 $799 $800 $668 $801 0 #
edge $-1 $802 $749 $684 $803 0 #
vertex $-1 $748 $804 #
straight-curve $-1 42 -7.61902621218115e-29 0 0 -1 -3.49148133884313e-15 #
straight-curve $-1 -55 -6.73022453020305e-15 2 -0 1 3.49148133884313e-15 #
face $-1 $443 $765 $2 $-1 $805 reversed single #
plane-surface $-1 -55 12.5 6.25 1 0 0 0 0 -1 0 #
coedge $-1 $796 $679 $738 $793 1 $516 $-1 #
coedge $-1 $701 $700 $679 $756 0 $702 $-1 #
edge $-1 $806 $757 $755 $807 0 #
vertex $-1 $705 $808 #
straight-curve $-1 22.5 0 -12.5 -1 0 0 #
point $-1 27.5 0 -12.5 #
coedge $-1 $684 $796 $798 $809 0 $516 $-1 #
ellipse-curve $-1 40 0 0 -0 1 -0 2 0 0 1 #
coedge $-1 $691 $746 $690 $763 1 $765 $-1 #
edge $-1 $766 $799 $690 $767 0 #
coedge $-1 $798 $691 $693 $768 1 $765 $-1 #
loop $-1 $-1 $764 $752 #
vertex $-1 $692 $810 #
ellipse-curve $-1 55 25 8.72870334710783e-14 0 -1 0 2 0 0 1 #
edge $-1 $802 $694 $693 $811 0 #
point $-1 53 25 0 #
edge $-1 $799 $772 $697 $812 0 #
coedge $-1 $698 $738 $700 $773 0 $560 $-1 #
vertex $-1 $699 $813 #
edge $-1 $806 $703 $700 $814 0 #
point $-1 62.5 25 12.5 #
straight-curve $-1 62.5 0 -12.5 0 -1 0 #
cone-surface $-1 -15 -18.75 0 0 1 0 -3.53553390593274 0 -3.53553390593274 1 0 -1 0 #
edge $-1 $778 $720 $712 $815 0 #
vertex $-1 $713 $816 #
straight-curve $-1 20 -25 1.875 -0 0 -1 #
coedge $-1 $732 $731 $715 $781 1 $708 $-1 #
edge $-1 $782 $785 $715 $817 0 #
vertex $-1 $735 $818 #
ellipse-curve $-1 -15 -12.5 0 0 -1 0 -3.53553390593274 0 -3.53553390593274 1 #
coedge $-1 $729 $718 $731 $790 0 $624 $-1 #
vertex $-1 $781 $819 #
ellipse-curve $-1 15 -12.5 0 0 -1 0 3.53553390593274 0 -3.53553390593274 1 #
point $-1 20 -12.5 0 #
straight-curve $-1 27.5 -6.25 -12.5 0 -1 0 #
ellipse-curve $-1 15 -25 0 0 1 -0 3.53553390593274 0 -3.53553390593274 1 #
edge $-1 $785 $733 $731 $820 0 #
point $-1 15 -25 -5 #
straight-curve $-1 -15 -18.75 -5 0 1 0 #
edge $-1 $794 $806 $738 $518 0 #
vertex $-1 $740 $821 #
straight-curve $-1 55 6.25 12.5 0 -1 0 #
coedge $-1 $760 $754 $744 $797 0 $516 $-1 #
edge $-1 $794 $800 $796 $822 0 #
coedge $-1 $746 $764 $760 $809 1 $765 $-1 #
vertex $-1 $747 $823 #
vertex $-1 $797 $824 #
straight-curve $-1 55 -6.73022453020305e-15 2 0 -1 -3.49148133884313e-15 #
vertex $-1 $809 $825 #
straight-curve $-1 46.25 0 0 -1 0 0 #
point $-1 42 0 0 #
cone-surface $-1 55 0 0 0 -1 -3.49148133884313e-15 2 0 0 1 0 1 0 #
vertex $-1 $756 $826 #
straight-curve $-1 62.5 0 0 -0 -0 -1 #
point $-1 62.5 0 -12.5 #
edge $-1 $800 $802 $760 $827 0 #
point $-1 57 25 8.72870334710783e-14 #
straight-curve $-1 53 -7.61902621218115e-29 0 -0 1 3.49148133884313e-15 #
straight-curve $-1 55 25 3.125 0 0 1 #
point $-1 55 25 12.5 #
straight-curve $-1 62.5 0 12.5 0 1 0 #
straight-curve $-1 20 -18.75 0 0 1 0 #
point $-1 20 -25 0 #
straight-curve $-1 0 -12.5 -5 1 0 0 #
point $-1 -15 -12.5 -5 #
point $-1 15 -12.5 -5 #
straight-curve $-1 15 -18.75 -5 0 -1 0 #
point $-1 55 0 12.5 #
straight-curve $-1 55 0 3.125 -0 -0 -1 #
point $-1 55 25 2.00000000000009 #
point $-1 55 0 2 #
point $-1 53 0 0 #
point $-1 62.5 0 12.5 #
ellipse-curve $-1 55 0 0 -0 1 -0 2 0 0 1 #
