600 0 1 0           
91 GICL ACIS Healer - Source: /gicl/data5/repository/UMD/bracket3-Part/bracket3-Part.sat - 6 0 18 ACIS 6.0.3 Solaris 24 Sun Apr 14 00:36:00 2002 
1 9.999999999999999547e-07 1.000000000000000036e-10 
body $-1 $1 $-1 $-1 #
lump $-1 $-1 $2 $0 #
shell $-1 $-1 $-1 $3 $-1 $1 #
face $-1 $4 $5 $2 $-1 $6 reversed single #
face $-1 $7 $8 $2 $-1 $9 reversed single #
loop $-1 $-1 $10 $3 #
cone-surface $-1 -17.5 0 10 0 0 1 2.5 0 0 1 I I 0 1 2.5 forward I I I I #
face $-1 $11 $12 $2 $-1 $13 forward single #
loop $-1 $-1 $14 $4 #
cone-surface $-1 17.5 0 10 0 0 1 2.5 0 0 1 I I 0 1 2.5 forward I I I I #
coedge $-1 $15 $16 $17 $18 reversed $5 $-1 #
face $-1 $19 $20 $2 $-1 $21 forward single #
loop $-1 $22 $23 $7 #
plane-surface $-1 0 0 12.5 0 0 1 1 0 0 forward_v I I I I #
coedge $-1 $24 $25 $26 $27 reversed $8 $-1 #
coedge $-1 $28 $10 $29 $30 forward $5 $-1 #
coedge $-1 $10 $28 $23 $31 reversed $5 $-1 #
coedge $-1 $32 $33 $10 $18 forward $34 $-1 #
edge $-1 $35 -2.5 $36 2.5 $17 $37 reversed 7 unknown #
face $-1 $38 $34 $2 $-1 $39 forward single #
loop $-1 $-1 $40 $11 #
plane-surface $-1 0 0 7.5 0 0 1 1 0 0 forward_v I I I I #
loop $-1 $-1 $41 $7 #
coedge $-1 $42 $43 $16 $31 forward $12 $-1 #
coedge $-1 $44 $14 $45 $46 forward $8 $-1 #
coedge $-1 $14 $47 $48 $49 reversed $8 $-1 #
coedge $-1 $50 $51 $14 $27 forward $52 $-1 #
edge $-1 $53 -2.5 $54 2.5 $26 $55 reversed 7 unknown #
coedge $-1 $16 $15 $56 $57 forward $5 $-1 #
coedge $-1 $58 $59 $15 $30 reversed $60 $-1 #
edge $-1 $35 1.570796326794896558 $61 4.712388980384689674 $29 $62 forward 7 unknown #
edge $-1 $36 1.570796326794896558 $63 4.712388980384689674 $23 $64 forward 7 unknown #
coedge $-1 $65 $17 $43 $66 reversed $34 $-1 #
coedge $-1 $17 $65 $58 $67 forward $34 $-1 #
loop $-1 $-1 $65 $19 #
vertex $-1 $67 $68 #
vertex $-1 $66 $69 #
straight-curve $-1 -17.5 -2.5 10 0 0 -1 I I #
face $-1 $70 $71 $2 $-1 $39 forward single #
plane-surface $-1 0 -2.5 10 0 1 0 0 0 1 forward_v I I I I #
coedge $-1 $72 $45 $51 $73 reversed $20 $-1 #
coedge $-1 $74 $75 $76 $77 forward $22 $-1 #
coedge $-1 $78 $23 $79 $80 forward $12 $-1 #
coedge $-1 $23 $81 $32 $66 forward $12 $-1 #
coedge $-1 $82 $24 $83 $84 forward $8 $-1 #
coedge $-1 $40 $83 $24 $46 reversed $20 $-1 #
edge $-1 $53 -1.570796326794896558 $85 0 $45 $86 forward 7 unknown #
coedge $-1 $25 $82 $87 $88 reversed $8 $-1 #
coedge $-1 $87 $89 $25 $49 forward $12 $-1 #
edge $-1 $54 -1.570796326794896558 $90 0 $48 $91 forward 7 unknown #
coedge $-1 $92 $26 $89 $93 reversed $52 $-1 #
coedge $-1 $26 $92 $40 $73 forward $52 $-1 #
loop $-1 $-1 $92 $94 #
vertex $-1 $73 $95 #
vertex $-1 $93 $96 #
straight-curve $-1 17.5 2.5 10 0 0 -1 I I #
coedge $-1 $97 $79 $28 $57 reversed $98 $-1 #
edge $-1 $61 -2.5 $63 2.5 $56 $99 reversed 7 unknown #
coedge $-1 $100 $29 $33 $67 reversed $60 $-1 #
coedge $-1 $29 $100 $97 $101 reversed $60 $-1 #
loop $-1 $-1 $58 $102 #
vertex $-1 $101 $103 #
ellipse-curve $-1 -17.5 0 7.5 0 0 -1 2.5 0 0 1 I I #
vertex $-1 $31 $104 #
ellipse-curve $-1 -17.5 0 12.5 -0 -0 -1 2.5 0 0 1 I I #
coedge $-1 $33 $32 $105 $106 reversed $34 $-1 #
edge $-1 $107 4.330127018922190096 $36 17.5 $43 $108 forward 7 unknown #
edge $-1 $109 4.330127018922190096 $35 17.5 $33 $110 forward 7 unknown #
point $-1 -17.5 -2.5 7.5 #
point $-1 -17.5 -2.5 12.5 #
face $-1 $102 $98 $2 $-1 $111 forward single #
loop $-1 $-1 $112 $38 #
coedge $-1 $113 $40 $114 $115 reversed $20 $-1 #
edge $-1 $116 4.330127018922190096 $53 17.5 $51 $117 forward 7 unknown #
coedge $-1 $118 $41 $119 $120 forward $22 $-1 #
coedge $-1 $41 $121 $122 $123 forward $22 $-1 #
coedge $-1 $124 $125 $41 $77 reversed $126 $-1 #
edge $-1 $127 0 $128 4.712388980384689674 $41 $129 forward 7 unknown #
coedge $-1 $89 $42 $130 $131 forward $12 $-1 #
coedge $-1 $56 $132 $42 $80 reversed $98 $-1 #
edge $-1 $63 -17.5 $133 -4.330127018922190096 $42 $134 forward 7 unknown #
coedge $-1 $43 $135 $136 $137 forward $12 $-1 #
coedge $-1 $47 $44 $138 $139 forward $8 $-1 #
coedge $-1 $45 $113 $44 $84 reversed $20 $-1 #
edge $-1 $85 0 $140 1.570796326794896558 $83 $86 forward 7 unknown #
vertex $-1 $46 $141 #
ellipse-curve $-1 17.5 0 7.5 0 0 -1 2.5 0 0 1 I I #
coedge $-1 $135 $48 $47 $88 forward $12 $-1 #
edge $-1 $90 0 $142 1.570796326794896558 $87 $91 forward 7 unknown #
coedge $-1 $48 $78 $50 $93 forward $12 $-1 #
vertex $-1 $49 $143 #
ellipse-curve $-1 17.5 0 12.5 -0 -0 -1 2.5 0 0 1 I I #
coedge $-1 $51 $50 $144 $145 reversed $52 $-1 #
edge $-1 $146 4.330127018922190096 $54 17.5 $89 $134 forward 7 unknown #
face $-1 $147 $52 $2 $-1 $111 forward single #
point $-1 17.5 2.5 7.5 #
point $-1 17.5 2.5 12.5 #
coedge $-1 $132 $56 $59 $101 forward $98 $-1 #
loop $-1 $-1 $132 $70 #
straight-curve $-1 -17.5 2.5 10 0 0 -1 I I #
coedge $-1 $59 $58 $148 $149 reversed $60 $-1 #
edge $-1 $61 -17.5 $150 -4.330127018922190096 $97 $117 forward 7 unknown #
face $-1 $94 $60 $2 $-1 $21 forward single #
point $-1 -17.5 2.5 7.5 #
point $-1 -17.5 2.5 12.5 #
coedge $-1 $136 $148 $65 $106 forward $151 $-1 #
edge $-1 $109 7.5 $107 12.5 $105 $152 forward 7 unknown #
vertex $-1 $137 $153 #
straight-curve $-1 0 -2.5 12.5 -1 0 0 I I #
vertex $-1 $149 $154 #
straight-curve $-1 0 -2.5 7.5 -1 0 0 I I #
plane-surface $-1 0 2.5 10 0 -1 0 0 0 -1 forward_v I I I I #
coedge $-1 $155 $156 $157 $158 reversed $71 $-1 #
coedge $-1 $83 $72 $156 $159 reversed $20 $-1 #
coedge $-1 $144 $157 $72 $115 forward $151 $-1 #
edge $-1 $160 -0.5235987755982991487 $116 0.5235987755982991487 $114 $161 forward 7 unknown #
vertex $-1 $115 $162 #
straight-curve $-1 0 2.5 7.5 1 0 0 I I #
coedge $-1 $163 $74 $164 $165 forward $22 $-1 #
coedge $-1 $166 $167 $74 $120 reversed $168 $-1 #
edge $-1 $128 5.125 $169 15.625 $74 $170 forward 7 unknown #
coedge $-1 $75 $171 $172 $173 forward $22 $-1 #
coedge $-1 $174 $175 $75 $123 reversed $176 $-1 #
edge $-1 $177 -10.5 $127 10.5 $75 $178 forward 7 unknown #
coedge $-1 $179 $76 $175 $180 reversed $126 $-1 #
coedge $-1 $76 $179 $166 $181 reversed $126 $-1 #
loop $-1 $-1 $124 $182 #
vertex $-1 $123 $183 #
vertex $-1 $77 $184 #
ellipse-curve $-1 -12.5 12.5 12.5 -0 -0 -1 2 0 0 1 I I #
coedge $-1 $185 $144 $78 $131 reversed $151 $-1 #
edge $-1 $133 -2.617993877991493967 $146 -0.5235987755982991487 $78 $186 forward 7 unknown #
coedge $-1 $79 $97 $185 $187 reversed $98 $-1 #
vertex $-1 $187 $188 #
straight-curve $-1 0 2.5 12.5 1 0 -0 I I #
coedge $-1 $81 $87 $155 $189 forward $12 $-1 #
coedge $-1 $157 $105 $81 $137 reversed $151 $-1 #
edge $-1 $190 0.5235987755982991487 $107 2.617993877991493967 $81 $186 forward 7 unknown #
coedge $-1 $156 $155 $82 $139 reversed $71 $-1 #
edge $-1 $140 -2.5 $142 2.5 $138 $191 reversed 7 unknown #
vertex $-1 $139 $192 #
point $-1 20 0 7.5 #
vertex $-1 $189 $193 #
point $-1 20 0 12.5 #
coedge $-1 $130 $114 $92 $145 forward $151 $-1 #
edge $-1 $116 7.5 $146 12.5 $144 $194 forward 7 unknown #
vertex $-1 $131 $195 #
face $-1 $196 $151 $2 $-1 $197 reversed single #
coedge $-1 $105 $185 $100 $149 forward $151 $-1 #
edge $-1 $150 2.617993877991493967 $109 3.665191429188092265 $148 $198 forward 7 unknown #
vertex $-1 $149 $199 #
loop $-1 $200 $144 $147 #
straight-curve $-1 -4.330127018922190096 -2.5 0 -0 -0 1 I I #
point $-1 -4.330127018922190096 -2.5 12.5 #
point $-1 -4.330127018922190096 -2.5 7.5 #
coedge $-1 $138 $112 $135 $189 reversed $71 $-1 #
coedge $-1 $112 $138 $113 $159 forward $71 $-1 #
coedge $-1 $114 $136 $112 $158 forward $151 $-1 #
edge $-1 $190 -12.5 $160 -7.5 $157 $201 forward 7 unknown #
edge $-1 $140 -17.5 $160 -4.330127018922190096 $156 $110 forward 7 unknown #
vertex $-1 $115 $202 #
ellipse-curve $-1 0 0 7.5 0 0 1 5 0 0 1 I I #
point $-1 4.330127018922190096 2.5 7.5 #
coedge $-1 $203 $118 $204 $205 forward $22 $-1 #
coedge $-1 $206 $207 $118 $165 reversed $208 $-1 #
edge $-1 $169 12.5 $209 40 $164 $210 forward 7 unknown #
coedge $-1 $211 $119 $125 $181 forward $168 $-1 #
coedge $-1 $119 $211 $206 $212 reversed $168 $-1 #
loop $-1 $-1 $166 $213 #
vertex $-1 $212 $214 #
straight-curve $-1 -12.5 9.375 12.5 0 1 0 I I #
coedge $-1 $121 $215 $216 $217 forward $22 $-1 #
coedge $-1 $216 $218 $121 $173 reversed $219 $-1 #
edge $-1 $220 0 $177 3.141592653589793116 $121 $221 forward 7 unknown #
coedge $-1 $222 $122 $218 $223 forward $176 $-1 #
coedge $-1 $122 $222 $124 $180 forward $176 $-1 #
loop $-1 $-1 $175 $224 #
vertex $-1 $173 $225 #
straight-curve $-1 0 12.5 12.5 -1 0 0 I I #
coedge $-1 $125 $124 $226 $227 reversed $126 $-1 #
edge $-1 $228 -12.5 $127 12.5 $175 $229 forward 7 unknown #
edge $-1 $128 -12.5 $230 12.5 $166 $231 forward 7 unknown #
face $-1 $224 $126 $2 $-1 $232 reversed single #
point $-1 -10.5 12.5 12.5 #
point $-1 -12.5 14.5 12.5 #
coedge $-1 $148 $130 $132 $187 forward $151 $-1 #
ellipse-curve $-1 0 0 12.5 -0 -0 -1 5 0 0 1 I I #
edge $-1 $133 -12.5 $150 -7.5 $185 $233 forward 7 unknown #
point $-1 -4.330127018922190096 2.5 12.5 #
edge $-1 $142 -17.5 $190 -4.330127018922190096 $135 $108 forward 7 unknown #
vertex $-1 $158 $234 #
straight-curve $-1 17.5 -2.5 10 0 0 -1 I I #
point $-1 17.5 -2.5 7.5 #
point $-1 17.5 -2.5 12.5 #
straight-curve $-1 4.330127018922190096 2.5 0 0 0 1 I I #
point $-1 4.330127018922190096 2.5 12.5 #
face $-1 $182 $235 $2 $-1 $236 reversed single #
cone-surface $-1 0 0 0 0 0 1 5 0 0 1 I I 0 1 5 forward I I I I #
ellipse-curve $-1 0 0 7.5 0 0 1 5 0 0 1 I I #
point $-1 -4.330127018922190096 2.5 7.5 #
loop $-1 $237 $238 $147 #
straight-curve $-1 4.330127018922190096 -2.5 0 -0 0 -1 I I #
point $-1 4.330127018922190096 -2.5 7.5 #
coedge $-1 $239 $163 $240 $241 forward $22 $-1 #
coedge $-1 $242 $243 $163 $205 reversed $244 $-1 #
edge $-1 $209 -18.75 $245 6.25 $163 $246 forward 7 unknown #
coedge $-1 $247 $164 $167 $212 forward $208 $-1 #
coedge $-1 $164 $248 $242 $249 forward $208 $-1 #
loop $-1 $-1 $248 $250 #
vertex $-1 $165 $251 #
straight-curve $-1 0 25 12.5 -1 0 0 I I #
coedge $-1 $167 $166 $252 $253 reversed $168 $-1 #
edge $-1 $169 -12.5 $254 12.5 $206 $255 forward 7 unknown #
face $-1 $250 $168 $2 $-1 $256 forward single #
point $-1 -12.5 25 12.5 #
coedge $-1 $171 $257 $258 $259 forward $22 $-1 #
coedge $-1 $260 $172 $171 $217 reversed $219 $-1 #
edge $-1 $261 -1.570796326794896558 $220 0 $171 $221 forward 7 unknown #
coedge $-1 $172 $262 $174 $223 reversed $219 $-1 #
loop $-1 $-1 $218 $263 #
vertex $-1 $217 $264 #
ellipse-curve $-1 12.5 12.5 12.5 -0 -0 -1 2 0 0 1 I I #
coedge $-1 $175 $174 $265 $266 reversed $176 $-1 #
edge $-1 $177 -12.5 $267 12.5 $174 $268 forward 7 unknown #
face $-1 $263 $269 $2 $-1 $270 forward single #
point $-1 10.5 12.5 12.5 #
coedge $-1 $265 $252 $179 $227 forward $271 $-1 #
edge $-1 $230 1.570796326794896558 $228 6.283185307179586232 $226 $272 forward 7 unknown #
vertex $-1 $180 $273 #
straight-curve $-1 -10.5 12.5 0 0 0 1 I I #
vertex $-1 $253 $274 #
straight-curve $-1 -12.5 14.5 0 -0 -0 -1 I I #
cone-surface $-1 -12.5 12.5 0 0 0 1 2 0 0 1 I I 0 1 2 forward I I I I #
straight-curve $-1 -4.330127018922190096 2.5 0 0 -0 -1 I I #
point $-1 4.330127018922190096 -2.5 12.5 #
loop $-1 $275 $276 $196 #
cone-surface $-1 0 0 0 0 -1 -3.491481338843129805e-15 2 0 0 1 I I 0 1 2 forward I I I I #
loop $-1 $277 $278 $147 #
coedge $-1 $238 $238 $279 $280 reversed $200 $-1 #
coedge $-1 $281 $203 $282 $283 forward $22 $-1 #
coedge $-1 $284 $285 $203 $241 reversed $286 $-1 #
edge $-1 $245 -17.5 $287 -5 $203 $288 forward 7 unknown #
coedge $-1 $289 $204 $207 $249 reversed $244 $-1 #
coedge $-1 $204 $289 $284 $290 reversed $244 $-1 #
loop $-1 $-1 $289 $291 #
vertex $-1 $205 $292 #
straight-curve $-1 -40 6.25 12.5 0 -1 0 I I #
coedge $-1 $293 $206 $294 $295 reversed $208 $-1 #
coedge $-1 $207 $296 $297 $298 forward $208 $-1 #
edge $-1 $299 -1.12499999999990985 $209 9.375 $207 $300 forward 7 unknown #
face $-1 $291 $208 $2 $-1 $301 reversed single #
point $-1 -40 25 12.5 #
coedge $-1 $226 $294 $211 $253 forward $271 $-1 #
edge $-1 $254 -15.625 $230 -5.125 $252 $302 forward 7 unknown #
vertex $-1 $295 $303 #
straight-curve $-1 -12.5 25 0 0 0 -1 I I #
plane-surface $-1 -12.5 18.75 0 1 0 0 0 0 -1 forward_v I I I I #
coedge $-1 $215 $304 $305 $306 forward $22 $-1 #
coedge $-1 $307 $308 $215 $259 reversed $309 $-1 #
edge $-1 $310 -15.625 $261 -5.125 $215 $311 forward 7 unknown #
coedge $-1 $312 $216 $308 $313 reversed $219 $-1 #
vertex $-1 $259 $314 #
coedge $-1 $218 $312 $315 $316 reversed $219 $-1 #
face $-1 $317 $219 $2 $-1 $318 reversed single #
point $-1 14.5 12.5 12.5 #
coedge $-1 $315 $226 $222 $266 forward $271 $-1 #
edge $-1 $228 -10.5 $267 10.5 $265 $319 forward 7 unknown #
vertex $-1 $266 $320 #
straight-curve $-1 10.5 12.5 0 -0 -0 -1 I I #
loop $-1 $176 $321 $224 #
plane-surface $-1 0 12.5 0 0 1 0 0 0 1 forward_v I I I I #
loop $-1 $-1 $226 $317 #
ellipse-curve $-1 -12.5 12.5 -12.5 0 0 1 2 0 0 1 I I #
point $-1 -10.5 12.5 -12.5 #
point $-1 -12.5 14.5 -12.5 #
loop $-1 $-1 $322 $196 #
coedge $-1 $276 $276 $321 $323 reversed $235 $-1 #
loop $-1 $-1 $324 $147 #
coedge $-1 $278 $278 $322 $325 reversed $237 $-1 #
coedge $-1 $279 $279 $238 $280 forward $326 $-1 #
edge $-1 $327 0 $327 12.20366936883099918 $279 $328 forward 7 unknown #
coedge $-1 $329 $239 $330 $331 forward $22 $-1 #
coedge $-1 $332 $333 $239 $283 reversed $334 $-1 #
edge $-1 $287 -6.25 $335 18.75 $239 $336 forward 7 unknown #
coedge $-1 $337 $240 $243 $290 forward $286 $-1 #
coedge $-1 $240 $338 $332 $339 reversed $286 $-1 #
loop $-1 $-1 $337 $340 #
vertex $-1 $241 $341 #
straight-curve $-1 -22.5 0 12.5 1 0 -0 I I #
coedge $-1 $243 $242 $342 $343 forward $244 $-1 #
edge $-1 $245 -9.375 $344 1.125 $284 $345 forward 7 unknown #
face $-1 $346 $244 $2 $-1 $347 forward single #
point $-1 -40 0 12.5 #
coedge $-1 $348 $247 $349 $350 reversed $208 $-1 #
coedge $-1 $252 $351 $247 $295 forward $271 $-1 #
edge $-1 $352 -62.5 $254 -12.5 $247 $353 forward 7 unknown #
coedge $-1 $248 $354 $355 $356 forward $208 $-1 #
coedge $-1 $355 $342 $248 $298 reversed $357 $-1 #
edge $-1 $358 0 $299 1.570796326794896558 $248 $359 forward 7 unknown #
vertex $-1 $298 $360 #
straight-curve $-1 -40 25 3.125 0 0 1 I I #
plane-surface $-1 0 25 0 0 -1 0 0 0 -1 forward_v I I I I #
straight-curve $-1 -12.5 9.375 -12.5 0 -1 0 I I #
point $-1 -12.5 25 -12.5 #
coedge $-1 $257 $361 $362 $363 forward $22 $-1 #
coedge $-1 $364 $365 $257 $306 reversed $366 $-1 #
edge $-1 $367 -40 $310 -12.5 $305 $210 forward 7 unknown #
coedge $-1 $368 $258 $365 $369 reversed $309 $-1 #
coedge $-1 $258 $368 $260 $313 forward $309 $-1 #
loop $-1 $-1 $308 $370 #
vertex $-1 $306 $371 #
straight-curve $-1 12.5 9.375 12.5 0 -1 0 I I #
coedge $-1 $262 $260 $372 $373 reversed $219 $-1 #
edge $-1 $374 -12.5 $261 12.5 $308 $375 forward 7 unknown #
point $-1 12.5 14.5 12.5 #
coedge $-1 $372 $265 $262 $316 forward $271 $-1 #
edge $-1 $267 -3.141592653589793116 $376 0 $315 $377 forward 7 unknown #
face $-1 $370 $378 $2 $-1 $379 reversed single #
cone-surface $-1 12.5 12.5 0 0 0 1 2 0 0 1 I I 0 1 2 forward I I I I #
straight-curve $-1 0 12.5 -12.5 1 0 0 I I #
point $-1 10.5 12.5 -12.5 #
coedge $-1 $321 $321 $276 $323 forward $269 $-1 #
coedge $-1 $322 $322 $278 $325 forward $275 $-1 #
edge $-1 $380 -3.141592653589799777 $380 3.141592653589786455 $321 $381 forward 7 unknown #
coedge $-1 $324 $324 $382 $383 reversed $277 $-1 #
edge $-1 $384 0 $384 12.20366936883099918 $322 $385 forward 7 unknown #
loop $-1 $386 $279 $387 #
vertex $-1 $280 $388 #
intcurve-curve $-1 forward { surfintcur full nubs 3 periodic 33 
	0 3 0.3815576652526460055 2 0.7631153305052910119 2 1.144672995757940015 2 1.526230661010580025 2 
	1.907402331309870025 2 2.288574001609160025 2 2.66974567190843981 2 3.05091734220772981 2 3.43208901250701004 2 
	3.813260682806300039 2 4.194432353105580269 2 4.575604023404870269 2 4.957161688657519605 2 5.338719353910179599 2 
	5.720277019162829824 2 6.101834684415480048 2 6.483392349668130272 2 6.864950014920779608 2 7.246507680173439603 2 
	7.628065345426089827 2 8.009237015725370057 2 8.390408686024660057 2 8.771580356323939398 2 9.152752026623220516 2 
	9.533923696922510516 2 9.915095367221789857 2 10.2962670375210994 2 10.67743870782040005 2 11.05899637307300054 2 
	11.4405540383257005 2 11.82211170357829921 2 12.20366936883099918 3 
	2 -4.582575694955839829 -1.59999775227744007e-14 
	2 -4.582575694955839829 -0.1271858884175650073 
	1.987673530644229913 -4.588020555189720184 -0.2581852211410730069 
	1.936340174433399897 -4.60992032537495966 -0.5177764031439290315 
	1.897350128325550056 -4.626348587508919863 -0.6463738297196049976 
	1.79489398353533991 -4.667054094955849664 -0.892240292935081003 
	1.731346662955659976 -4.691316651086030021 -1.009732173034350033 
	1.585034200327589904 -4.742750232800729826 -1.226697564214020097 
	1.50225400701940992 -4.769869812553920063 -1.326173117726789918 
	1.326262182029319892 -4.82176697044153979 -1.502164942716889939 
	1.226829432030529965 -4.848430704387870271 -1.584933760357090105 
	1.009842073482390079 -4.898225161929899762 -1.731284051612870023 
	0.8922852499373770119 -4.921313096328909786 -1.794876796460300072 
	0.6462872884418660036 -4.959617757803470361 -1.89738464392356998 
	0.5176251421035299449 -4.974838281426549713 -1.936381227850499931 
	0.2580121197089800256 -4.995035681572580266 -1.987696604977009951 
	0.12705722343310899 -5 -2.000000000000019984 
	-0.1270572234330810124 -5 -2.000000000000019984 
	-0.2580121197089529916 -4.995035681572590036 -1.987696604977019943 
	-0.5176251421035029665 -4.974838281426549713 -1.936381227850509923 
	-0.6462872884418400243 -4.959617757803470361 -1.897384643923579972 
	-0.8922852499373510327 -4.921313096328919556 -1.794876796460310064 
	-1.009842073482370095 -4.898225161929899762 -1.731284051612880015 
	-1.226829432030509981 -4.848430704387880041 -1.584933760357100097 
	-1.326262182029299908 -4.82176697044153979 -1.502164942716909923 
	-1.502254007019399928 -4.769869812553920063 -1.326173117726809902 
	-1.585034200327579912 -4.742750232800729826 -1.226697564214040082 
	-1.731346662955649984 -4.691316651086030021 -1.009732173034360025 
	-1.794893983535329918 -4.667054094955860322 -0.892240292935095991 
	-1.897350128325550056 -4.626348587508919863 -0.6463738297196159888 
	-1.936340174433399897 -4.60992032537495966 -0.5177764031439380243 
	-1.987673530644229913 -4.588020555189720184 -0.2581852211410780029 
	-2 -4.582575694955839829 -0.1271858884175670057 
	-2 -4.582575694955839829 0.1271858884175340043 
	-1.987673530644229913 -4.588020555189720184 0.2581852211410449738 
	-1.936340174433399897 -4.60992032537495966 0.5177764031439040515 
	-1.897350128325550056 -4.626348587508919863 0.6463738297195820159 
	-1.794893983535329918 -4.667054094955860322 0.8922402929350600198 
	-1.731346662955649984 -4.691316651086030021 1.009732173034330049 
	-1.585034200327579912 -4.742750232800729826 1.226697564213999891 
	-1.502254007019399928 -4.769869812553920063 1.326173117726769934 
	-1.3262621820293099 -4.82176697044153979 1.502164942716869955 
	-1.226829432030519973 -4.848430704387880041 1.584933760357059906 
	-1.009842073482370095 -4.898225161929899762 1.731284051612840047 
	-0.8922852499373590263 -4.921313096328919556 1.794876796460270096 
	-0.6462872884418490171 -4.959617757803470361 1.897384643923540004 
	-0.5176251421035129585 -4.974838281426549713 1.936381227850469955 
	-0.2580121197089639828 -4.995035681572580266 1.987696604976979975 
	-0.127057223433094002 -5 1.999999999999980016 
	0.127057223433094002 -5 1.999999999999980016 
	0.258012119708964982 -4.995035681572580266 1.987696604976979975 
	0.5176251421035129585 -4.974838281426549713 1.936381227850469955 
	0.6462872884418490171 -4.959617757803470361 1.897384643923540004 
	0.8922852499373600255 -4.921313096328919556 1.794876796460270096 
	1.009842073482370095 -4.898225161929899762 1.731284051612840047 
	1.226829432030519973 -4.848430704387880041 1.584933760357059906 
	1.3262621820293099 -4.82176697044153979 1.502164942716869955 
	1.502254007019399928 -4.769869812553920063 1.326173117726769934 
	1.585034200327579912 -4.742750232800729826 1.226697564213999891 
	1.731346662955649984 -4.691316651086030021 1.009732173034330049 
	1.794893983535329918 -4.667054094955860322 0.8922402929350590206 
	1.897350128325550056 -4.626348587508919863 0.6463738297195820159 
	1.936340174433399897 -4.60992032537495966 0.5177764031439050507 
	1.987673530644229913 -4.588020555189720184 0.258185221141045973 
	2 -4.582575694955839829 0.1271858884175350035 
	2 -4.582575694955839829 -1.59999775227744007e-14 
	0.001000000000000000021 
	cone 0 0 0 0 -1 -3.491481338843129805e-15 2 0 0 1 I I -0 -1 2 forward I I I I 
	cone 0 0 0 0 0 1 5 0 0 1 I I -0 -1 5 forward I I I I 
	nullbs 
	nullbs 
	I I 
	0 
	0 
	0 
	} I I #
coedge $-1 $389 $281 $390 $391 forward $22 $-1 #
coedge $-1 $392 $393 $281 $331 reversed $394 $-1 #
edge $-1 $335 -27.5 $395 -20 $330 $396 forward 7 unknown #
coedge $-1 $397 $282 $285 $339 forward $334 $-1 #
coedge $-1 $282 $397 $392 $398 reversed $334 $-1 #
loop $-1 $-1 $333 $399 #
vertex $-1 $398 $400 #
straight-curve $-1 -27.5 -6.25 12.5 0 -1 0 I I #
coedge $-1 $401 $284 $402 $403 forward $286 $-1 #
coedge $-1 $285 $404 $405 $406 reversed $286 $-1 #
edge $-1 $287 -12.5 $407 12.5 $332 $408 forward 7 unknown #
face $-1 $409 $286 $2 $-1 $410 forward single #
point $-1 -27.5 0 12.5 #
coedge $-1 $297 $402 $289 $343 reversed $357 $-1 #
edge $-1 $299 -25.00000000000000711 $344 -6.730224530203050339e-15 $289 $411 forward 7 unknown #
vertex $-1 $290 $412 #
straight-curve $-1 -40 0 3.125 -0 -0 -1 I I #
face $-1 $413 $414 $2 $-1 $13 forward single #
plane-surface $-1 -40 12.5 6.25 -1 0 0 0 0 1 forward_v I I I I #
coedge $-1 $415 $293 $416 $417 reversed $208 $-1 #
coedge $-1 $418 $419 $293 $350 forward $420 $-1 #
edge $-1 $421 -12.5 $352 12.5 $293 $422 forward 7 unknown #
coedge $-1 $294 $405 $418 $423 forward $271 $-1 #
vertex $-1 $295 $424 #
straight-curve $-1 0 25 -12.5 1 0 0 I I #
coedge $-1 $296 $425 $426 $427 forward $208 $-1 #
coedge $-1 $428 $297 $296 $356 reversed $357 $-1 #
edge $-1 $429 -3.141592653589749595 $358 0 $296 $359 forward 7 unknown #
loop $-1 $-1 $342 $430 #
vertex $-1 $356 $431 #
ellipse-curve $-1 -40 25 8.728703347107829602e-14 0 -1 0 2 0 0 1 I I #
point $-1 -40 25 2.00000000000009015 #
coedge $-1 $304 $432 $433 $434 forward $22 $-1 #
coedge $-1 $435 $436 $304 $363 reversed $437 $-1 #
edge $-1 $438 -6.25 $367 18.75 $304 $439 forward 7 unknown #
coedge $-1 $440 $305 $436 $441 forward $366 $-1 #
coedge $-1 $305 $442 $307 $369 forward $366 $-1 #
loop $-1 $-1 $440 $443 #
vertex $-1 $441 $444 #
coedge $-1 $308 $307 $445 $446 reversed $309 $-1 #
edge $-1 $447 -12.5 $310 12.5 $365 $448 forward 7 unknown #
face $-1 $387 $309 $2 $-1 $449 forward single #
point $-1 12.5 25 12.5 #
coedge $-1 $445 $315 $312 $373 forward $271 $-1 #
edge $-1 $376 0 $374 1.570796326794896558 $372 $377 forward 7 unknown #
vertex $-1 $313 $450 #
straight-curve $-1 12.5 14.5 0 0 0 1 I I #
vertex $-1 $373 $451 #
ellipse-curve $-1 12.5 12.5 -12.5 0 0 1 2 0 0 1 I I #
loop $-1 $271 $382 $317 #
plane-surface $-1 0 0 -12.5 0 0 1 1 0 0 forward_v I I I I #
vertex $-1 $323 $452 #
ellipse-curve $-1 0 12.5 4.36435167355391985e-14 -0 -1 -0 2 0 0 1 I I #
coedge $-1 $382 $382 $324 $383 forward $378 $-1 #
edge $-1 $453 0 $453 6.283185307179586232 $382 $454 forward 7 unknown #
vertex $-1 $325 $455 #
intcurve-curve $-1 forward { surfintcur full nubs 3 periodic 33 
	0 3 0.3815576652526510015 2 0.7631153305053030023 2 1.144672995757950007 2 1.526230661010610001 2 
	1.907402331309890009 2 2.288574001609169795 2 2.669745671908459794 2 3.050917342207740024 2 3.432089012507030024 2 
	3.813260682806309809 2 4.194432353105590039 2 4.575604023404880039 2 4.957161688657530263 2 5.338719353910179599 2 
	5.720277019162829824 2 6.101834684415480048 2 6.483392349668140042 2 6.864950014920790267 2 7.246507680173439603 2 
	7.628065345426089827 2 8.009237015725380715 2 8.390408686024670715 2 8.771580356323950056 2 9.152752026623240056 2 
	9.533923696922519397 2 9.915095367221809397 2 10.2962670375210994 2 10.67743870782040005 2 11.05899637307300054 2 
	11.4405540383257005 2 11.82211170357829921 2 12.20366936883099918 3 
	2 4.582575694955839829 1.59999775227744007e-14 
	2 4.582575694955839829 0.1271858884175660065 
	1.987673530644229913 4.588020555189720184 0.2581852211410770037 
	1.936340174433399897 4.60992032537495966 0.5177764031439370251 
	1.897350128325550056 4.626348587508919863 0.6463738297196139904 
	1.794893983535329918 4.667054094955860322 0.8922402929350929934 
	1.731346662955649984 4.691316651086030021 1.009732173034360025 
	1.585034200327579912 4.742750232800729826 1.22669756421403009 
	1.502254007019399928 4.769869812553920063 1.326173117726809902 
	1.3262621820293099 4.82176697044153979 1.502164942716899931 
	1.226829432030519973 4.848430704387880041 1.584933760357100097 
	1.009842073482370095 4.898225161929899762 1.731284051612880015 
	0.8922852499373600255 4.921313096328909786 1.794876796460310064 
	0.6462872884418500163 4.959617757803470361 1.897384643923579972 
	0.5176251421035139577 4.974838281426549713 1.936381227850499931 
	0.258012119708964982 4.995035681572590036 1.987696604977009951 
	0.1270572234330950012 5 2.000000000000019984 
	-0.1270572234330950012 5 2.000000000000019984 
	-0.258012119708964982 4.995035681572580266 1.987696604977009951 
	-0.5176251421035139577 4.974838281426549713 1.936381227850499931 
	-0.6462872884418500163 4.959617757803470361 1.897384643923579972 
	-0.8922852499373600255 4.921313096328909786 1.794876796460310064 
	-1.009842073482370095 4.898225161929899762 1.731284051612880015 
	-1.226829432030519973 4.848430704387880041 1.584933760357100097 
	-1.3262621820293099 4.82176697044153979 1.502164942716899931 
	-1.502254007019399928 4.769869812553920063 1.326173117726809902 
	-1.585034200327579912 4.742750232800729826 1.22669756421403009 
	-1.731346662955649984 4.691316651086030021 1.009732173034360025 
	-1.794893983535329918 4.667054094955860322 0.8922402929350919942 
	-1.897350128325550056 4.626348587508919863 0.6463738297196139904 
	-1.936340174433399897 4.60992032537495966 0.5177764031439360259 
	-1.987673530644229913 4.588020555189720184 0.2581852211410770037 
	-2 4.582575694955839829 0.1271858884175660065 
	-2 4.582575694955839829 -0.1271858884175350035 
	-1.987673530644229913 4.588020555189720184 -0.258185221141045973 
	-1.936340174433399897 4.60992032537495966 -0.5177764031439060499 
	-1.897350128325550056 4.626348587508919863 -0.6463738297195840143 
	-1.794893983535329918 4.667054094955860322 -0.8922402929350620182 
	-1.731346662955649984 4.691316651086030021 -1.009732173034330049 
	-1.585034200327579912 4.742750232800729826 -1.226697564213999891 
	-1.502254007019399928 4.769869812553920063 -1.326173117726779926 
	-1.326262182029299908 4.82176697044153979 -1.502164942716869955 
	-1.226829432030509981 4.848430704387880041 -1.584933760357069898 
	-1.009842073482370095 4.898225161929899762 -1.731284051612850039 
	-0.8922852499373510327 4.921313096328919556 -1.794876796460280088 
	-0.6462872884418390251 4.959617757803470361 -1.897384643923540004 
	-0.5176251421035019673 4.974838281426549713 -1.936381227850469955 
	-0.2580121197089519924 4.995035681572580266 -1.987696604976979975 
	-0.1270572234330810124 5 -1.999999999999980016 
	0.12705722343310899 5 -1.999999999999980016 
	0.2580121197089810248 4.995035681572580266 -1.987696604976979975 
	0.5176251421035299449 4.974838281426549713 -1.936381227850459963 
	0.6462872884418660036 4.959617757803470361 -1.897384643923540004 
	0.8922852499373760127 4.921313096328909786 -1.794876796460260104 
	1.009842073482390079 4.898225161929899762 -1.731284051612830055 
	1.226829432030529965 4.848430704387870271 -1.584933760357049914 
	1.326262182029319892 4.82176697044153979 -1.502164942716849971 
	1.50225400701940992 4.769869812553920063 -1.326173117726759942 
	1.585034200327589904 4.742750232800729826 -1.226697564213989899 
	1.731346662955659976 4.691316651086020251 -1.009732173034320057 
	1.79489398353533991 4.667054094955860322 -0.8922402929350480294 
	1.897350128325550056 4.626348587508919863 -0.6463738297195720239 
	1.936340174433399897 4.60992032537495966 -0.5177764031438959469 
	1.987673530644229913 4.588020555189720184 -0.2581852211410399778 
	2 4.582575694955839829 -0.1271858884175320059 
	2 4.582575694955839829 1.59999775227744007e-14 
	0.001000000000000000021 
	cone 0 0 0 0 -1 -3.491481338843129805e-15 2 0 0 1 I I -0 -1 2 forward I I I I 
	cone 0 0 0 0 0 1 5 0 0 1 I I -0 -1 5 forward I I I I 
	nullbs 
	nullbs 
	I I 
	0 
	0 
	0 
	} I I #
loop $-1 $-1 $456 $387 #
face $-1 $430 $326 $2 $-1 $236 reversed single #
point $-1 2 -4.582575694955839829 -1.59999775227744007e-14 #
coedge $-1 $457 $329 $458 $459 forward $22 $-1 #
coedge $-1 $460 $461 $329 $391 reversed $462 $-1 #
edge $-1 $395 -15.625 $463 -3.125 $329 $464 forward 7 unknown #
coedge $-1 $465 $330 $333 $398 forward $394 $-1 #
coedge $-1 $330 $466 $460 $467 forward $394 $-1 #
loop $-1 $-1 $393 $468 #
vertex $-1 $331 $469 #
straight-curve $-1 0 -25 12.5 1 0 0 I I #
coedge $-1 $333 $332 $470 $471 reversed $334 $-1 #
edge $-1 $335 -12.5 $472 12.5 $392 $473 forward 7 unknown #
face $-1 $474 $334 $2 $-1 $475 forward single #
point $-1 -27.5 -25 12.5 #
coedge $-1 $476 $337 $477 $478 forward $286 $-1 #
coedge $-1 $342 $428 $337 $403 reversed $357 $-1 #
edge $-1 $344 -1.570796326794896558 $479 3.141592653589793116 $337 $480 forward 7 unknown #
coedge $-1 $338 $481 $482 $483 reversed $286 $-1 #
coedge $-1 $351 $470 $338 $406 forward $271 $-1 #
edge $-1 $407 5 $484 40 $405 $485 forward 7 unknown #
vertex $-1 $406 $486 #
straight-curve $-1 -27.5 0 0 0 0 -1 I I #
face $-1 $487 $488 $2 $-1 $489 forward single #
plane-surface $-1 -45 0 0 0 -1 0 0 0 -1 forward_v I I I I #
straight-curve $-1 -40 -6.730224530203050339e-15 2 0 -1 -3.491481338843129805e-15 I I #
point $-1 -40 0 2 #
face $-1 $490 $491 $2 $-1 $492 forward single #
loop $-1 $-1 $493 $346 #
coedge $-1 $425 $348 $494 $495 forward $208 $-1 #
coedge $-1 $496 $493 $348 $417 forward $414 $-1 #
edge $-1 $497 55 $421 62.5 $348 $210 forward 7 unknown #
coedge $-1 $482 $349 $351 $423 reversed $420 $-1 #
coedge $-1 $349 $482 $496 $498 reversed $420 $-1 #
loop $-1 $-1 $482 $499 #
vertex $-1 $417 $500 #
straight-curve $-1 -62.5 25 0 0 0 -1 I I #
edge $-1 $484 0 $352 25 $418 $501 forward 7 unknown #
point $-1 -62.5 25 -12.5 #
coedge $-1 $354 $415 $502 $503 forward $208 $-1 #
coedge $-1 $504 $505 $354 $427 reversed $488 $-1 #
edge $-1 $506 -29.25 $429 -18.25 $354 $507 forward 7 unknown #
coedge $-1 $402 $355 $505 $508 reversed $357 $-1 #
vertex $-1 $427 $509 #
face $-1 $340 $357 $2 $-1 $510 reversed single #
point $-1 -38 25 8.728703347107829602e-14 #
coedge $-1 $361 $511 $512 $513 forward $22 $-1 #
coedge $-1 $514 $515 $361 $434 reversed $516 $-1 #
edge $-1 $517 5 $438 17.5 $361 $518 forward 7 unknown #
coedge $-1 $519 $362 $515 $520 reversed $437 $-1 #
coedge $-1 $362 $519 $364 $441 reversed $437 $-1 #
loop $-1 $-1 $519 $521 #
vertex $-1 $434 $522 #
straight-curve $-1 40 6.25 12.5 0 1 0 I I #
coedge $-1 $523 $364 $524 $525 forward $366 $-1 #
edge $-1 $367 -9.375 $526 1.12499999999990985 $364 $527 forward 7 unknown #
coedge $-1 $365 $528 $529 $530 reversed $366 $-1 #
face $-1 $531 $366 $2 $-1 $301 reversed single #
point $-1 40 25 12.5 #
coedge $-1 $529 $372 $368 $446 forward $271 $-1 #
edge $-1 $374 5.125 $447 15.625 $445 $532 forward 7 unknown #
vertex $-1 $446 $533 #
straight-curve $-1 12.5 25 0 0 0 1 I I #
plane-surface $-1 12.5 18.75 0 -1 0 0 0 0 1 forward_v I I I I #
point $-1 12.5 14.5 -12.5 #
point $-1 14.5 12.5 -12.5 #
point $-1 -2 12.5 5.760944209091169405e-14 #
vertex $-1 $383 $534 #
ellipse-curve $-1 0 0 -12.5 0 0 1 5 0 0 1 I I #
point $-1 2 4.582575694955839829 1.59999775227744007e-14 #
coedge $-1 $456 $456 $535 $536 reversed $386 $-1 #
coedge $-1 $511 $389 $537 $538 forward $22 $-1 #
coedge $-1 $539 $540 $389 $459 reversed $541 $-1 #
edge $-1 $463 -20 $542 20 $389 $543 forward 7 unknown #
coedge $-1 $544 $390 $393 $467 reversed $462 $-1 #
coedge $-1 $390 $544 $539 $545 reversed $462 $-1 #
loop $-1 $-1 $544 $546 #
vertex $-1 $391 $547 #
straight-curve $-1 -20 -9.375 12.5 0 1 0 I I #
coedge $-1 $548 $392 $549 $550 reversed $394 $-1 #
coedge $-1 $393 $551 $552 $553 forward $394 $-1 #
edge $-1 $554 -1.875 $395 10.625 $393 $555 forward 7 unknown #
face $-1 $556 $394 $2 $-1 $557 reversed single #
point $-1 -20 -25 12.5 #
coedge $-1 $405 $549 $397 $471 forward $271 $-1 #
edge $-1 $472 -18.75 $407 6.25 $470 $558 forward 7 unknown #
vertex $-1 $550 $559 #
straight-curve $-1 -27.5 -25 0 -0 0 -1 I I #
face $-1 $468 $560 $2 $-1 $13 forward single #
plane-surface $-1 -27.5 -12.5 0 -1 0 0 0 0 1 forward_v I I I I #
coedge $-1 $561 $401 $562 $563 forward $286 $-1 #
coedge $-1 $505 $504 $401 $478 reversed $488 $-1 #
edge $-1 $479 -4.25 $564 6.75 $401 $565 forward 7 unknown #
vertex $-1 $508 $566 #
ellipse-curve $-1 -40 0 0 -0 1 -0 2 0 0 1 I I #
coedge $-1 $404 $561 $567 $568 reversed $286 $-1 #
coedge $-1 $419 $418 $404 $483 forward $420 $-1 #
edge $-1 $484 -12.5 $569 12.5 $482 $570 forward 7 unknown #
vertex $-1 $406 $571 #
straight-curve $-1 -22.5 0 -12.5 -1 0 0 I I #
point $-1 -27.5 0 -12.5 #
face $-1 $521 $572 $2 $-1 $573 reversed single #
loop $-1 $-1 $505 $409 #
plane-surface $-1 -47.5 12.5 0 0 0 1 1 0 0 forward_v I I I I #
face $-1 $574 $575 $2 $-1 $576 forward single #
loop $-1 $-1 $577 $413 #
plane-surface $-1 47.5 12.5 0 0 0 1 1 0 0 forward_v I I I I #
coedge $-1 $416 $567 $578 $579 forward $414 $-1 #
coedge $-1 $578 $580 $415 $495 reversed $581 $-1 #
edge $-1 $497 -9.375 $582 1.12499999999990985 $415 $583 forward 7 unknown #
coedge $-1 $567 $416 $419 $498 forward $414 $-1 #
vertex $-1 $495 $584 #
edge $-1 $421 -25 $569 0 $419 $585 forward 7 unknown #
face $-1 $-1 $420 $2 $-1 $586 reversed single #
point $-1 -62.5 25 12.5 #
straight-curve $-1 -62.5 0 -12.5 0 1 0 I I #
coedge $-1 $587 $588 $425 $503 reversed $589 $-1 #
edge $-1 $582 1.570796326794896558 $506 6.283185307179586232 $425 $590 forward 7 unknown #
coedge $-1 $477 $426 $588 $591 forward $488 $-1 #
coedge $-1 $426 $477 $428 $508 forward $488 $-1 #
vertex $-1 $503 $592 #
straight-curve $-1 -23.75 25 0 1 0 -0 I I #
edge $-1 $479 7.619026212181150377e-29 $429 25 $505 $593 forward 7 unknown #
point $-1 -42 25 0 #
cone-surface $-1 -40 0 0 0 -1 -3.491481338843129805e-15 2 0 0 1 I I 0 1 2 forward I I I I #
coedge $-1 $432 $457 $594 $595 forward $22 $-1 #
coedge $-1 $596 $597 $432 $513 reversed $598 $-1 #
edge $-1 $599 -18.75 $517 6.25 $432 $600 forward 7 unknown #
coedge $-1 $601 $433 $597 $602 forward $516 $-1 #
coedge $-1 $433 $603 $435 $520 forward $516 $-1 #
loop $-1 $-1 $603 $574 #
vertex $-1 $513 $604 #
straight-curve $-1 22.5 0 12.5 1 0 -0 I I #
coedge $-1 $436 $435 $605 $606 forward $437 $-1 #
edge $-1 $607 -1.125 $438 9.375 $515 $608 forward 7 unknown #
face $-1 $609 $437 $2 $-1 $610 forward single #
point $-1 40 0 12.5 #
coedge $-1 $611 $440 $612 $613 forward $366 $-1 #
coedge $-1 $605 $614 $440 $525 reversed $572 $-1 #
edge $-1 $526 1.570796326794896558 $615 6.283185307179586232 $440 $616 forward 7 unknown #
vertex $-1 $441 $617 #
straight-curve $-1 40 25 3.125 0 0 -1 I I #
coedge $-1 $442 $618 $619 $620 forward $366 $-1 #
coedge $-1 $621 $445 $442 $530 forward $271 $-1 #
edge $-1 $447 12.5 $622 62.5 $442 $353 forward 7 unknown #
face $-1 $623 $624 $2 $-1 $625 forward single #
straight-curve $-1 12.5 9.375 -12.5 0 1 -0 I I #
point $-1 12.5 25 -12.5 #
point $-1 5 0 -12.5 #
coedge $-1 $535 $535 $456 $536 forward $626 $-1 #
edge $-1 $627 -3.141592653589799777 $627 3.141592653589786455 $535 $628 forward 7 unknown #
coedge $-1 $629 $630 $457 $538 reversed $631 $-1 #
edge $-1 $542 3.125 $632 15.625 $457 $633 forward 7 unknown #
coedge $-1 $634 $458 $461 $545 forward $541 $-1 #
coedge $-1 $458 $635 $629 $636 reversed $541 $-1 #
loop $-1 $-1 $635 $637 #
vertex $-1 $459 $638 #
straight-curve $-1 0 -12.5 12.5 1 0 -0 I I #
coedge $-1 $461 $460 $639 $640 reversed $462 $-1 #
edge $-1 $463 -8.75 $641 3.75 $539 $642 forward 7 unknown #
face $-1 $643 $462 $2 $-1 $644 forward single #
point $-1 -20 -12.5 12.5 #
coedge $-1 $594 $465 $596 $645 forward $394 $-1 #
coedge $-1 $470 $646 $465 $550 forward $271 $-1 #
edge $-1 $647 -27.5 $472 27.5 $465 $648 forward 7 unknown #
coedge $-1 $466 $649 $650 $651 forward $394 $-1 #
coedge $-1 $652 $639 $466 $553 reversed $653 $-1 #
edge $-1 $654 -0.785398163397448279 $554 0.785398163397448279 $466 $655 forward 7 unknown #
vertex $-1 $467 $656 #
straight-curve $-1 -20 -25 1.875 -0 0 1 I I #
face $-1 $657 $598 $2 $-1 $658 forward single #
plane-surface $-1 0 -25 0 0 1 -0 -0 0 1 forward_v I I I I #
straight-curve $-1 -27.5 -6.25 -12.5 0 1 -0 I I #
point $-1 -27.5 -25 -12.5 #
loop $-1 $-1 $659 $474 #
coedge $-1 $481 $476 $660 $661 forward $286 $-1 #
coedge $-1 $588 $587 $476 $563 reversed $589 $-1 #
edge $-1 $564 0 $662 4.712388980384689674 $476 $663 forward 7 unknown #
vertex $-1 $478 $664 #
straight-curve $-1 -46.25 0 0 -1 0 0 I I #
point $-1 -42 0 0 #
coedge $-1 $493 $496 $481 $568 forward $414 $-1 #
edge $-1 $569 -40 $665 -32.5 $567 $288 forward 7 unknown #
vertex $-1 $498 $666 #
straight-curve $-1 -62.5 0 0 -0 0 1 I I #
point $-1 -62.5 0 -12.5 #
loop $-1 $-1 $614 $487 #
cone-surface $-1 40 0 0 0 -1 -3.491481338843129805e-15 2 0 0 1 I I 0 1 2 forward I I I I #
face $-1 $399 $516 $2 $-1 $667 forward single #
loop $-1 $-1 $668 $490 #
plane-surface $-1 55 12.5 6.25 -1 0 0 0 0 1 forward_v I I I I #
coedge $-1 $669 $612 $614 $670 forward $491 $-1 #
coedge $-1 $660 $494 $493 $579 reversed $581 $-1 #
edge $-1 $665 -6.25 $497 18.75 $493 $671 forward 7 unknown #
coedge $-1 $494 $660 $587 $672 forward $581 $-1 #
loop $-1 $-1 $580 $673 #
vertex $-1 $495 $674 #
straight-curve $-1 -55 25 3.125 0 0 -1 I I #
point $-1 -55 25 12.5 #
straight-curve $-1 -62.5 0 12.5 0 -1 0 I I #
plane-surface $-1 -62.5 0 0 1 0 0 0 0 -1 forward_v I I I I #
coedge $-1 $562 $502 $580 $672 reversed $589 $-1 #
coedge $-1 $502 $562 $504 $591 reversed $589 $-1 #
loop $-1 $-1 $588 $609 #
ellipse-curve $-1 -55 25 8.728703347107829602e-14 0 -1 0 2 0 0 1 I I #
edge $-1 $506 -25 $564 -7.619026212181150377e-29 $504 $675 forward 7 unknown #
point $-1 -53 25 8.728703347107829602e-14 #
straight-curve $-1 -42 -7.619026212181150377e-29 0 -0 1 3.491481338843129805e-15 I I #
coedge $-1 $676 $548 $511 $595 reversed $394 $-1 #
edge $-1 $632 20 $599 27.5 $594 $396 forward 7 unknown #
coedge $-1 $677 $512 $548 $645 reversed $598 $-1 #
coedge $-1 $512 $677 $514 $602 reversed $598 $-1 #
loop $-1 $-1 $597 $556 #
vertex $-1 $595 $678 #
straight-curve $-1 27.5 -6.25 12.5 0 1 0 I I #
coedge $-1 $679 $514 $680 $681 reversed $516 $-1 #
edge $-1 $517 -12.5 $682 12.5 $514 $683 forward 7 unknown #
coedge $-1 $515 $684 $685 $686 forward $516 $-1 #
point $-1 27.5 0 12.5 #
coedge $-1 $685 $524 $519 $606 reversed $572 $-1 #
edge $-1 $607 6.730224530203050339e-15 $526 25.00000000000000711 $519 $687 forward 7 unknown #
vertex $-1 $606 $688 #
straight-curve $-1 40 0 3.125 -0 0 1 I I #
face $-1 $673 $589 $2 $-1 $689 reversed single #
plane-surface $-1 40 12.5 6.25 1 0 0 0 0 -1 forward_v I I I I #
coedge $-1 $690 $523 $691 $692 forward $366 $-1 #
coedge $-1 $577 $693 $523 $613 reversed $491 $-1 #
edge $-1 $615 18.25 $694 29.25 $523 $695 forward 7 unknown #
coedge $-1 $524 $685 $577 $670 reversed $572 $-1 #
vertex $-1 $525 $696 #
ellipse-curve $-1 40 25 8.728703347107829602e-14 0 -1 0 2 0 0 1 I I #
point $-1 40 25 2.00000000000009015 #
coedge $-1 $528 $697 $698 $699 reversed $366 $-1 #
coedge $-1 $700 $701 $528 $620 reversed $702 $-1 #
edge $-1 $703 -12.5 $622 12.5 $619 $704 forward 7 unknown #
coedge $-1 $680 $529 $701 $705 forward $271 $-1 #
vertex $-1 $705 $706 #
face $-1 $707 $708 $2 $-1 $709 forward single #
loop $-1 $-1 $710 $531 #
cone-surface $-1 15 -18.75 0 0 -1 -0 3.535533905932739973 0 -3.535533905932739973 1 I I 0 -1 5.000000000000003553 forward I I I I #
loop $-1 $541 $535 $637 #
vertex $-1 $536 $711 #
ellipse-curve $-1 0 -12.5 -4.364351673553909752e-14 -0 1 -0 2 0 0 1 I I #
coedge $-1 $712 $537 $540 $636 forward $631 $-1 #
coedge $-1 $537 $712 $676 $713 reversed $631 $-1 #
loop $-1 $-1 $712 $643 #
vertex $-1 $713 $714 #
straight-curve $-1 20 -9.375 12.5 0 -1 0 I I #
coedge $-1 $715 $539 $716 $717 forward $541 $-1 #
coedge $-1 $540 $715 $718 $719 forward $541 $-1 #
edge $-1 $542 -8.75 $720 3.75 $629 $721 forward 7 unknown #
face $-1 $546 $626 $2 $-1 $722 forward single #
point $-1 20 -12.5 12.5 #
coedge $-1 $552 $716 $544 $640 forward $653 $-1 #
edge $-1 $641 -6.25 $554 6.25 $544 $723 forward 7 unknown #
vertex $-1 $545 $724 #
straight-curve $-1 -20 -12.5 3.75 0 0 -1 I I #
face $-1 $213 $631 $2 $-1 $725 forward single #
plane-surface $-1 -20 -18.75 3.75 1 0 0 0 0 -1 forward_v I I I I #
edge $-1 $647 -12.5 $599 12.5 $548 $726 forward 7 unknown #
coedge $-1 $549 $680 $677 $727 forward $271 $-1 #
vertex $-1 $645 $728 #
straight-curve $-1 0 -25 -12.5 -1 0 0 I I #
coedge $-1 $551 $676 $729 $730 forward $394 $-1 #
coedge $-1 $731 $732 $551 $651 reversed $708 $-1 #
edge $-1 $733 -15 $654 15 $551 $734 forward 7 unknown #
coedge $-1 $716 $552 $732 $735 forward $653 $-1 #
loop $-1 $-1 $639 $707 #
vertex $-1 $651 $736 #
ellipse-curve $-1 -15 -25 0 0 1 -0 -3.535533905932739973 0 -3.535533905932739973 1 I I #
point $-1 -20 -25 0 #
face $-1 $499 $702 $2 $-1 $737 reversed single #
plane-surface $-1 27.5 -12.5 0 1 0 0 0 0 -1 forward_v I I I I #
coedge $-1 $738 $698 $739 $740 forward $560 $-1 #
coedge $-1 $580 $578 $561 $661 reversed $581 $-1 #
edge $-1 $662 -1.125 $665 9.375 $561 $741 forward 7 unknown #
vertex $-1 $672 $742 #
ellipse-curve $-1 -55 0 0 -0 1 -0 2 0 0 1 I I #
point $-1 -53 0 0 #
vertex $-1 $568 $743 #
point $-1 -62.5 0 12.5 #
plane-surface $-1 45 0 0 0 -1 0 0 0 -1 forward_v I I I I #
coedge $-1 $744 $745 $746 $747 forward $575 $-1 #
coedge $-1 $693 $577 $684 $748 reversed $491 $-1 #
edge $-1 $615 -25 $749 -7.619026212181150377e-29 $577 $750 forward 7 unknown #
straight-curve $-1 -55 6.25 12.5 0 1 0 I I #
edge $-1 $662 6.730224530203050339e-15 $582 25.00000000000000711 $580 $751 forward 7 unknown #
face $-1 $752 $581 $2 $-1 $753 forward single #
point $-1 -55 25 2.00000000000009015 #
straight-curve $-1 -53 -7.619026212181150377e-29 0 0 -1 -3.491481338843129805e-15 I I #
coedge $-1 $649 $594 $630 $713 forward $394 $-1 #
coedge $-1 $597 $596 $646 $727 reversed $598 $-1 #
point $-1 27.5 -25 12.5 #
coedge $-1 $754 $601 $755 $756 reversed $516 $-1 #
coedge $-1 $646 $621 $601 $681 forward $271 $-1 #
edge $-1 $757 -40 $682 -5 $680 $758 forward 7 unknown #
vertex $-1 $727 $759 #
straight-curve $-1 27.5 0 0 0 0 -1 I I #
coedge $-1 $603 $760 $669 $748 forward $516 $-1 #
coedge $-1 $614 $605 $603 $686 reversed $572 $-1 #
edge $-1 $749 0 $607 4.712388980384689674 $603 $761 forward 7 unknown #
straight-curve $-1 40 -6.730224530203050339e-15 2 -0 1 3.491481338843129805e-15 I I #
point $-1 40 0 2 #
cone-surface $-1 -55 0 0 0 -1 -3.491481338843129805e-15 2 0 0 1 I I 0 1 2 forward I I I I #
coedge $-1 $697 $611 $762 $763 forward $366 $-1 #
coedge $-1 $764 $762 $611 $692 reversed $765 $-1 #
edge $-1 $694 -3.141592653589749595 $766 0 $611 $767 forward 7 unknown #
coedge $-1 $612 $669 $764 $768 forward $491 $-1 #
vertex $-1 $613 $769 #
straight-curve $-1 23.75 25 0 1 0 -0 I I #
point $-1 42 25 8.728703347107829602e-14 #
coedge $-1 $618 $690 $745 $770 forward $366 $-1 #
coedge $-1 $659 $771 $618 $699 forward $560 $-1 #
edge $-1 $703 -62.5 $772 -55 $618 $210 forward 7 unknown #
coedge $-1 $755 $619 $771 $773 reversed $702 $-1 #
coedge $-1 $619 $755 $621 $705 reversed $702 $-1 #
loop $-1 $-1 $755 $657 #
vertex $-1 $773 $774 #
straight-curve $-1 62.5 25 0 0 0 -1 I I #
edge $-1 $622 -25 $757 0 $701 $775 forward 7 unknown #
point $-1 62.5 25 -12.5 #
face $-1 $637 $653 $2 $-1 $776 forward single #
loop $-1 $-1 $731 $623 #
plane-surface $-1 0 -18.75 -5 0 0 1 1 0 0 forward_v I I I I #
coedge $-1 $718 $729 $712 $777 forward $624 $-1 #
point $-1 -2 -12.5 -5.760944209091169405e-14 #
coedge $-1 $630 $629 $710 $777 reversed $631 $-1 #
edge $-1 $632 -10.625 $778 1.875 $676 $779 forward 7 unknown #
point $-1 20 -25 12.5 #
coedge $-1 $635 $634 $780 $781 forward $541 $-1 #
coedge $-1 $639 $652 $634 $717 reversed $653 $-1 #
edge $-1 $641 -0.785398163397448279 $782 0.785398163397448279 $634 $783 forward 7 unknown #
coedge $-1 $784 $710 $635 $719 reversed $624 $-1 #
edge $-1 $785 -0.785398163397448279 $720 0.785398163397448279 $635 $786 forward 7 unknown #
vertex $-1 $636 $787 #
straight-curve $-1 20 -12.5 3.75 0 0 -1 I I #
plane-surface $-1 0 -12.5 3.75 0 -1 0 0 0 -1 forward_v I I I I #
straight-curve $-1 -20 -18.75 0 -0 -1 -0 I I #
point $-1 -20 -12.5 0 #
plane-surface $-1 20 -18.75 3.75 -1 0 0 0 0 1 forward_v I I I I #
straight-curve $-1 27.5 -25 0 -0 0 1 I I #
edge $-1 $682 -6.25 $647 18.75 $646 $788 forward 7 unknown #
point $-1 27.5 -25 -12.5 #
coedge $-1 $710 $784 $649 $730 reversed $624 $-1 #
edge $-1 $778 -0.785398163397448279 $733 0.785398163397448279 $649 $789 forward 7 unknown #
coedge $-1 $780 $650 $784 $790 reversed $708 $-1 #
coedge $-1 $650 $780 $652 $735 reversed $708 $-1 #
vertex $-1 $651 $791 #
straight-curve $-1 0 -25 -5 -1 0 0 I I #
edge $-1 $654 -6.25 $782 6.25 $732 $792 forward 7 unknown #
point $-1 -15 -25 -5 #
plane-surface $-1 62.5 0 0 -1 0 0 0 -0 1 forward_v I I I I #
coedge $-1 $771 $659 $754 $793 forward $560 $-1 #
coedge $-1 $745 $744 $659 $740 reversed $575 $-1 #
edge $-1 $772 -18.75 $794 6.25 $659 $795 forward 7 unknown #
straight-curve $-1 -55 0 3.125 -0 0 1 I I #
point $-1 -55 0 2 #
point $-1 -55 0 12.5 #
coedge $-1 $739 $668 $796 $797 reversed $575 $-1 #
coedge $-1 $668 $739 $697 $770 reversed $575 $-1 #
coedge $-1 $762 $798 $668 $747 reversed $765 $-1 #
edge $-1 $799 -25.00000000000000711 $800 -6.730224530203050339e-15 $668 $801 forward 7 unknown #
edge $-1 $802 -6.75 $749 4.25 $684 $803 forward 7 unknown #
vertex $-1 $748 $804 #
straight-curve $-1 42 -7.619026212181150377e-29 0 0 -1 -3.491481338843129805e-15 I I #
straight-curve $-1 -55 -6.730224530203050339e-15 2 -0 1 3.491481338843129805e-15 I I #
face $-1 $443 $765 $2 $-1 $805 reversed single #
plane-surface $-1 -55 12.5 6.25 1 0 0 0 0 -1 forward_v I I I I #
coedge $-1 $796 $679 $738 $793 reversed $516 $-1 #
coedge $-1 $701 $700 $679 $756 forward $702 $-1 #
edge $-1 $806 -12.5 $757 12.5 $755 $807 forward 7 unknown #
vertex $-1 $705 $808 #
straight-curve $-1 22.5 0 -12.5 -1 0 0 I I #
point $-1 27.5 0 -12.5 #
coedge $-1 $684 $796 $798 $809 forward $516 $-1 #
ellipse-curve $-1 40 0 0 -0 1 -0 2 0 0 1 I I #
coedge $-1 $691 $746 $690 $763 reversed $765 $-1 #
edge $-1 $766 0 $799 1.570796326794896558 $690 $767 forward 7 unknown #
coedge $-1 $798 $691 $693 $768 reversed $765 $-1 #
loop $-1 $-1 $764 $752 #
vertex $-1 $692 $810 #
ellipse-curve $-1 55 25 8.728703347107829602e-14 0 -1 0 2 0 0 1 I I #
edge $-1 $802 7.619026212181150377e-29 $694 25 $693 $811 forward 7 unknown #
point $-1 53 25 0 #
edge $-1 $799 -1.12499999999990985 $772 9.375 $697 $812 forward 7 unknown #
coedge $-1 $698 $738 $700 $773 forward $560 $-1 #
vertex $-1 $699 $813 #
edge $-1 $806 0 $703 25 $700 $814 forward 7 unknown #
point $-1 62.5 25 12.5 #
straight-curve $-1 62.5 0 -12.5 0 -1 0 I I #
cone-surface $-1 -15 -18.75 0 0 1 0 -3.535533905932739973 0 -3.535533905932739973 1 I I 0 -1 5.000000000000003553 forward I I I I #
edge $-1 $778 -6.25 $720 6.25 $712 $815 forward 7 unknown #
vertex $-1 $713 $816 #
straight-curve $-1 20 -25 1.875 -0 0 -1 I I #
coedge $-1 $732 $731 $715 $781 reversed $708 $-1 #
edge $-1 $782 -15 $785 15 $715 $817 forward 7 unknown #
vertex $-1 $735 $818 #
ellipse-curve $-1 -15 -12.5 0 0 -1 0 -3.535533905932739973 0 -3.535533905932739973 1 I I #
coedge $-1 $729 $718 $731 $790 forward $624 $-1 #
vertex $-1 $781 $819 #
ellipse-curve $-1 15 -12.5 0 0 -1 0 3.535533905932739973 0 -3.535533905932739973 1 I I #
point $-1 20 -12.5 0 #
straight-curve $-1 27.5 -6.25 -12.5 0 -1 0 I I #
ellipse-curve $-1 15 -25 0 0 1 -0 3.535533905932739973 0 -3.535533905932739973 1 I I #
edge $-1 $785 -6.25 $733 6.25 $731 $820 forward 7 unknown #
point $-1 15 -25 -5 #
straight-curve $-1 -15 -18.75 -5 0 1 0 I I #
edge $-1 $794 32.5 $806 40 $738 $518 forward 7 unknown #
vertex $-1 $740 $821 #
straight-curve $-1 55 6.25 12.5 0 -1 0 I I #
coedge $-1 $760 $754 $744 $797 forward $516 $-1 #
edge $-1 $794 -9.375 $800 1.125 $796 $822 forward 7 unknown #
coedge $-1 $746 $764 $760 $809 reversed $765 $-1 #
vertex $-1 $747 $823 #
vertex $-1 $797 $824 #
straight-curve $-1 55 -6.730224530203050339e-15 2 0 -1 -3.491481338843129805e-15 I I #
vertex $-1 $809 $825 #
straight-curve $-1 46.25 0 0 -1 0 0 I I #
point $-1 42 0 0 #
cone-surface $-1 55 0 0 0 -1 -3.491481338843129805e-15 2 0 0 1 I I 0 1 2 forward I I I I #
vertex $-1 $756 $826 #
straight-curve $-1 62.5 0 0 -0 -0 -1 I I #
point $-1 62.5 0 -12.5 #
edge $-1 $800 -1.570796326794896558 $802 3.141592653589793116 $760 $827 forward 7 unknown #
point $-1 57 25 8.728703347107829602e-14 #
straight-curve $-1 53 -7.619026212181150377e-29 0 -0 1 3.491481338843129805e-15 I I #
straight-curve $-1 55 25 3.125 0 0 1 I I #
point $-1 55 25 12.5 #
straight-curve $-1 62.5 0 12.5 0 1 0 I I #
straight-curve $-1 20 -18.75 0 0 1 0 I I #
point $-1 20 -25 0 #
straight-curve $-1 0 -12.5 -5 1 0 0 I I #
point $-1 -15 -12.5 -5 #
point $-1 15 -12.5 -5 #
straight-curve $-1 15 -18.75 -5 0 -1 0 I I #
point $-1 55 0 12.5 #
straight-curve $-1 55 0 3.125 -0 -0 -1 I I #
point $-1 55 25 2.00000000000009015 #
point $-1 55 0 2 #
point $-1 53 0 0 #
point $-1 62.5 0 12.5 #
ellipse-curve $-1 55 0 0 -0 1 -0 2 0 0 1 I I #
End-of-ACIS-data 