700 0 2 0           
24 FBMach with ACIS - 7.0.3 13 ACIS 7.0.3 NT 24 Tue May 14 09:56:55 2002 
1 9.9999999999999995e-007 1e-010 
body $2 -1 $-1 $3 $-1 $4 #
bdycol-kcp $-1 -1 1 3 $5 $6 $7 #
model_id-kcp-attrib $-1 -1 $-1 $-1 $0 1 1021384615 1021384615 -1090846719 1 #
lump $-1 -1 $-1 $-1 $8 $0 #
transform $-1 -1 1 0 0 0 1 0 0 0 1 0 0 0 1 rotate no_reflect no_shear #
body $9 -1 $-1 $10 $-1 $11 #
body $12 -1 $-1 $13 $-1 $14 #
body $15 -1 $-1 $16 $-1 $17 #
shell $-1 -1 $-1 $-1 $-1 $18 $-1 $3 #
rgb_color-st-attrib $-1 -1 $19 $-1 $5 0.5 1 1 #
lump $-1 -1 $-1 $-1 $20 $5 #
transform $-1 -1 1 0 0 0 1 0 0 0 1 0 0 0 1 no_rotate no_reflect no_shear #
rgb_color-st-attrib $-1 -1 $21 $-1 $6 0.59999999999999998 0.90000000000000002 1 #
lump $-1 -1 $-1 $-1 $22 $6 #
transform $-1 -1 1 0 0 0 1 0 0 0 1 0 0 0 1 no_rotate no_reflect no_shear #
model_id-kcp-attrib $-1 -1 $-1 $-1 $7 1 1021384615 1021384615 -1090846718 1 #
lump $-1 -1 $-1 $-1 $23 $7 #
transform $-1 -1 1 0 0 0 1 0 0 0 1 0 0 0 1 no_rotate no_reflect no_shear #
face $24 -1 $-1 $25 $26 $8 $-1 $27 reversed single #
model_id-kcp-attrib $-1 -1 $-1 $9 $5 1 1021384615 1021384615 -1105657853 1 #
shell $-1 -1 $-1 $-1 $-1 $28 $-1 $10 #
model_id-kcp-attrib $-1 -1 $-1 $12 $6 1 1021384615 1021384615 -1100808188 1 #
shell $-1 -1 $-1 $-1 $-1 $29 $-1 $13 #
shell $-1 -1 $-1 $-1 $-1 $30 $-1 $16 #
model_id-kcp-attrib $-1 -1 $-1 $-1 $18 1 1021384615 1021384615 -1090846719 2 #
face $31 -1 $-1 $32 $33 $8 $-1 $34 forward single #
loop $35 -1 $-1 $36 $37 $18 #
cone-surface $-1 -1 $-1 0 0 0 0 0 1 15 0 0 1 I I 0 1 15 forward I I I I #
face $-1 -1 $-1 $38 $39 $20 $-1 $40 forward single #
face $-1 -1 $-1 $41 $42 $22 $-1 $43 forward single #
face $44 -1 $-1 $45 $46 $23 $-1 $47 forward single #
model_id-kcp-attrib $-1 -1 $-1 $-1 $25 1 1021384615 1021384615 -1090846719 3 #
face $48 -1 $-1 $49 $50 $8 $-1 $51 forward single #
loop $52 -1 $-1 $-1 $53 $25 #
plane-surface $-1 -1 $-1 0 0 20 0 0 1 1 0 0 forward_v I I I I #
model_id-kcp-attrib $-1 -1 $-1 $-1 $26 1 1021384615 1021384615 -1090846719 19 #
loop $54 -1 $-1 $-1 $55 $18 #
coedge $-1 -1 $-1 $37 $37 $56 $57 reversed $26 $-1 #
face $-1 -1 $-1 $58 $59 $20 $-1 $60 forward single #
loop $-1 -1 $-1 $61 $62 $28 #
cone-surface $-1 -1 $-1 0 0 0 0 0 1 15 0 0 1 I I 0 1 15 forward I I I I #
face $-1 -1 $-1 $63 $64 $22 $-1 $65 forward single #
loop $-1 -1 $-1 $-1 $66 $29 #
cone-surface $-1 -1 $-1 0 0 0 0 0 1 15 0 0 1 I I 0 1 15 forward I I I I #
model_id-kcp-attrib $-1 -1 $-1 $-1 $30 1 1021384615 1021384615 -1090846718 2 #
face $67 -1 $-1 $68 $69 $23 $-1 $70 reversed single #
loop $-1 -1 $-1 $-1 $71 $30 #
plane-surface $-1 -1 $-1 0 0 20 0 0 1 1 0 0 forward_v I I I I #
model_id-kcp-attrib $-1 -1 $-1 $-1 $32 1 1021384615 1021384615 -1090846719 4 #
face $72 -1 $-1 $73 $74 $8 $-1 $75 forward single #
loop $76 -1 $-1 $-1 $77 $32 #
plane-surface $-1 -1 $-1 10 0 10 -1 0 0 0 0 1 forward_v I I I I #
model_id-kcp-attrib $-1 -1 $-1 $-1 $33 1 1021384615 1021384615 -1090846719 27 #
coedge $-1 -1 $-1 $78 $79 $80 $81 forward $33 $-1 #
model_id-kcp-attrib $-1 -1 $-1 $-1 $36 1 1021384615 1021384615 -1090846719 20 #
coedge $-1 -1 $-1 $82 $83 $84 $85 reversed $36 $-1 #
coedge $-1 -1 $-1 $56 $56 $37 $57 forward $86 $-1 #
edge $87 -1 $-1 $88 0 $88 6.2831853071795862 $56 $89 forward @7 unknown #
face $-1 -1 $-1 $-1 $90 $20 $-1 $91 forward single #
loop $-1 -1 $-1 $-1 $92 $38 #
plane-surface $-1 -1 $-1 0 0 -20 0 0 -1 -1 0 0 forward_v I I I I #
loop $-1 -1 $-1 $-1 $93 $28 #
coedge $-1 -1 $-1 $62 $62 $92 $94 reversed $39 $-1 #
face $-1 -1 $-1 $95 $96 $22 $-1 $97 forward single #
loop $-1 -1 $-1 $-1 $98 $41 #
plane-surface $-1 -1 $-1 -10 11.180339887498945 0 -1 0 0 0 0 1 forward_v I I I I #
coedge $-1 -1 $-1 $99 $100 $101 $102 forward $42 $-1 #
model_id-kcp-attrib $-1 -1 $-1 $-1 $45 1 1021384615 1021384615 -1090846718 5 #
face $103 -1 $-1 $104 $105 $23 $-1 $106 reversed single #
loop $-1 -1 $-1 $-1 $107 $45 #
plane-surface $-1 -1 $-1 0 0 -20 0 0 1 1 0 0 forward_v I I I I #
coedge $-1 -1 $-1 $108 $109 $110 $111 forward $46 $-1 #
model_id-kcp-attrib $-1 -1 $-1 $-1 $49 1 1021384615 1021384615 -1090846719 5 #
face $112 -1 $-1 $113 $114 $8 $-1 $75 forward single #
loop $115 -1 $-1 $-1 $116 $49 #
plane-surface $-1 -1 $-1 -10 0 10 1 0 0 0 0 -1 forward_v I I I I #
model_id-kcp-attrib $-1 -1 $-1 $-1 $50 1 1021384615 1021384615 -1090846719 24 #
coedge $-1 -1 $-1 $117 $118 $119 $120 forward $50 $-1 #
coedge $-1 -1 $-1 $121 $53 $122 $123 forward $33 $-1 #
coedge $-1 -1 $-1 $53 $124 $125 $126 forward $33 $-1 #
coedge $-1 -1 $-1 $127 $128 $53 $81 reversed $36 $-1 #
edge $129 -1 $-1 $130 2.3005239830218631 $131 3.9826613241577231 $53 $132 forward @7 unknown #
coedge $-1 -1 $-1 $119 $55 $133 $134 reversed $36 $-1 #
coedge $-1 -1 $-1 $55 $127 $135 $136 reversed $36 $-1 #
coedge $-1 -1 $-1 $137 $138 $55 $85 forward $139 $-1 #
edge $140 -1 $-1 $141 -20 $142 0 $84 $143 forward @7 unknown #
loop $144 -1 $-1 $145 $56 $146 #
attrib_edge_convexity-kcp-attrib $-1 -1 $147 $-1 $57 1 #
vertex $-1 -1 $-1 $57 $148 #
ellipse-curve $-1 -1 $-1 0 0 -20 0 0 1 15 0 0 1 I I #
loop $-1 -1 $-1 $-1 $149 $58 #
plane-surface $-1 -1 $-1 0 0 20 0 0 1 1 0 0 forward_v I I I I #
coedge $-1 -1 $-1 $92 $92 $62 $94 forward $59 $-1 #
coedge $-1 -1 $-1 $93 $93 $149 $150 reversed $61 $-1 #
edge $-1 -1 $-1 $151 0 $151 6.2831853071795862 $92 $152 forward @7 unknown #
face $-1 -1 $-1 $153 $154 $22 $-1 $155 forward single #
loop $-1 -1 $-1 $-1 $156 $63 #
plane-surface $-1 -1 $-1 -10 40 0 0 1 0 0 0 1 forward_v I I I I #
coedge $-1 -1 $-1 $157 $158 $159 $160 forward $64 $-1 #
coedge $-1 -1 $-1 $161 $66 $158 $162 reversed $42 $-1 #
coedge $-1 -1 $-1 $66 $161 $163 $164 forward $42 $-1 #
coedge $-1 -1 $-1 $165 $159 $66 $102 reversed $166 $-1 #
edge $-1 -1 $-1 $167 2.3005239830218631 $168 3.9826613241577231 $66 $169 forward @7 unknown #
model_id-kcp-attrib $-1 -1 $-1 $-1 $68 1 1021384615 1021384615 -1090846718 3 #
face $170 -1 $-1 $171 $172 $23 $-1 $173 reversed single #
loop $-1 -1 $-1 $-1 $174 $68 #
plane-surface $-1 -1 $-1 0 -40 0 0 1 0 0 0 1 forward_v I I I I #
coedge $-1 -1 $-1 $175 $176 $177 $178 forward $69 $-1 #
coedge $-1 -1 $-1 $179 $71 $180 $181 forward $46 $-1 #
coedge $-1 -1 $-1 $71 $179 $182 $183 forward $46 $-1 #
coedge $-1 -1 $-1 $184 $185 $71 $111 reversed $186 $-1 #
edge $-1 -1 $-1 $187 -40 $188 40 $110 $189 forward @7 unknown #
model_id-kcp-attrib $-1 -1 $-1 $-1 $73 1 1021384615 1021384615 -1090846719 6 #
face $190 -1 $-1 $191 $192 $8 $-1 $193 forward single #
loop $194 -1 $-1 $-1 $195 $73 #
model_id-kcp-attrib $-1 -1 $-1 $-1 $74 1 1021384615 1021384615 -1090846719 26 #
coedge $-1 -1 $-1 $196 $122 $128 $197 forward $74 $-1 #
coedge $-1 -1 $-1 $198 $77 $199 $200 reversed $50 $-1 #
coedge $-1 -1 $-1 $77 $198 $201 $202 forward $50 $-1 #
coedge $-1 -1 $-1 $203 $82 $77 $120 reversed $36 $-1 #
edge $204 -1 $-1 $205 0 $206 20 $77 $207 forward @7 unknown #
coedge $-1 -1 $-1 $208 $78 $209 $210 forward $33 $-1 #
coedge $-1 -1 $-1 $116 $211 $78 $123 reversed $74 $-1 #
edge $212 -1 $-1 $131 11.180339887498949 $213 40 $78 $214 forward @7 unknown #
coedge $-1 -1 $-1 $79 $208 $215 $216 forward $33 $-1 #
coedge $-1 -1 $-1 $217 $195 $79 $126 reversed $114 $-1 #
edge $218 -1 $-1 $219 -40 $130 -11.180339887498949 $79 $214 forward @7 unknown #
coedge $-1 -1 $-1 $83 $80 $195 $220 reversed $36 $-1 #
coedge $-1 -1 $-1 $80 $203 $116 $197 reversed $36 $-1 #
attrib_edge_convexity-kcp-attrib $-1 -1 $221 $-1 $81 1 #
vertex $-1 -1 $-1 $126 $222 #
vertex $-1 -1 $-1 $197 $223 #
ellipse-curve $-1 -1 $-1 0 0 20 0 0 -1 15 0 0 1 I I #
coedge $-1 -1 $-1 $224 $199 $82 $134 forward $225 $-1 #
edge $226 -1 $-1 $206 -0.84106867056793033 $141 0.84106867056793033 $133 $227 forward @7 unknown #
coedge $-1 -1 $-1 $228 $229 $83 $136 forward $230 $-1 #
edge $231 -1 $-1 $142 0.84106867056793033 $232 2.3005239830218631 $135 $233 forward @7 unknown #
coedge $-1 -1 $-1 $234 $84 $229 $235 forward $139 $-1 #
coedge $-1 -1 $-1 $84 $234 $224 $236 reversed $139 $-1 #
loop $237 -1 $-1 $-1 $84 $238 #
attrib_edge_convexity-kcp-attrib $-1 -1 $239 $-1 $85 1 #
vertex $-1 -1 $-1 $85 $240 #
vertex $-1 -1 $-1 $85 $241 #
straight-curve $-1 -1 $-1 10 -11.180339887498949 0 0 0 -1 I I #
model_id-kcp-attrib $-1 -1 $-1 $-1 $86 1 1021384615 1021384615 -1090846719 21 #
loop $-1 -1 $-1 $-1 $242 $146 #
face $243 -1 $-1 $244 $86 $8 $-1 $245 reversed single #
convexity-sys-attrib $-1 -1 $-1 $87 $57 #
point $-1 -1 $-1 15 0 -20 #
coedge $-1 -1 $-1 $149 $149 $93 $150 forward $90 $-1 #
edge $-1 -1 $-1 $246 0 $246 6.2831853071795862 $149 $247 forward @7 unknown #
vertex $-1 -1 $-1 $94 $248 #
ellipse-curve $-1 -1 $-1 0 0 -20 0 0 -1 15 0 0 1 I I #
face $-1 -1 $-1 $249 $250 $22 $-1 $251 forward single #
loop $-1 -1 $-1 $-1 $252 $95 #
plane-surface $-1 -1 $-1 10 40 0 1 0 0 0 0 -1 forward_v I I I I #
coedge $-1 -1 $-1 $253 $254 $255 $256 forward $96 $-1 #
coedge $-1 -1 $-1 $257 $98 $254 $258 reversed $64 $-1 #
coedge $-1 -1 $-1 $98 $257 $99 $162 forward $64 $-1 #
coedge $-1 -1 $-1 $101 $255 $98 $160 reversed $166 $-1 #
edge $-1 -1 $-1 $168 11.180339887498945 $259 40 $98 $260 forward @7 unknown #
coedge $-1 -1 $-1 $100 $99 $261 $262 reversed $42 $-1 #
edge $-1 -1 $-1 $263 0 $168 20 $158 $264 forward @7 unknown #
coedge $-1 -1 $-1 $265 $266 $100 $164 reversed $267 $-1 #
edge $-1 -1 $-1 $268 0 $167 20 $100 $269 forward @7 unknown #
coedge $-1 -1 $-1 $270 $101 $266 $271 reversed $166 $-1 #
loop $-1 -1 $-1 $-1 $101 $272 #
vertex $-1 -1 $-1 $164 $273 #
vertex $-1 -1 $-1 $162 $274 #
ellipse-curve $-1 -1 $-1 0 0 20 0 0 -1 15 0 0 1 I I #
model_id-kcp-attrib $-1 -1 $-1 $-1 $104 1 1021384615 1021384615 -1090846718 6 #
face $275 -1 $-1 $276 $277 $23 $-1 $278 reversed single #
loop $-1 -1 $-1 $-1 $279 $104 #
plane-surface $-1 -1 $-1 -40 0 0 1 0 0 0 0 -1 forward_v I I I I #
coedge $-1 -1 $-1 $280 $182 $281 $282 forward $105 $-1 #
coedge $-1 -1 $-1 $283 $107 $280 $284 forward $69 $-1 #
coedge $-1 -1 $-1 $107 $283 $285 $286 forward $69 $-1 #
coedge $-1 -1 $-1 $185 $184 $107 $178 reversed $186 $-1 #
edge $-1 -1 $-1 $287 -40 $288 40 $177 $289 forward @7 unknown #
coedge $-1 -1 $-1 $109 $108 $290 $291 forward $46 $-1 #
coedge $-1 -1 $-1 $292 $293 $108 $181 reversed $277 $-1 #
edge $-1 -1 $-1 $188 -40 $294 40 $180 $295 forward @7 unknown #
coedge $-1 -1 $-1 $174 $296 $109 $183 reversed $105 $-1 #
edge $-1 -1 $-1 $297 -40 $187 40 $182 $298 forward @7 unknown #
coedge $-1 -1 $-1 $177 $110 $296 $299 forward $186 $-1 #
coedge $-1 -1 $-1 $110 $177 $292 $300 reversed $186 $-1 #
loop $-1 -1 $-1 $-1 $184 $276 #
vertex $-1 -1 $-1 $111 $301 #
vertex $-1 -1 $-1 $111 $302 #
straight-curve $-1 -1 $-1 40 0 20 0 1 0 I I #
model_id-kcp-attrib $-1 -1 $-1 $-1 $113 1 1021384615 1021384615 -1090846719 7 #
face $303 -1 $-1 $238 $230 $8 $-1 $193 forward single #
loop $304 -1 $-1 $-1 $305 $113 #
plane-surface $-1 -1 $-1 0 0 0 0 0 1 1 0 0 forward_v I I I I #
model_id-kcp-attrib $-1 -1 $-1 $-1 $114 1 1021384615 1021384615 -1090846719 28 #
coedge $-1 -1 $-1 $125 $306 $127 $220 forward $114 $-1 #
coedge $-1 -1 $-1 $211 $116 $307 $308 forward $74 $-1 #
edge $309 -1 $-1 $131 -20 $310 0 $116 $311 forward @7 unknown #
coedge $-1 -1 $-1 $118 $117 $312 $313 reversed $50 $-1 #
coedge $-1 -1 $-1 $133 $314 $117 $200 forward $225 $-1 #
edge $-1 -1 $-1 $315 -40 $206 -11.180339887498949 $199 $316 forward @7 unknown #
coedge $-1 -1 $-1 $317 $305 $118 $202 reversed $192 $-1 #
edge $318 -1 $-1 $319 -40 $205 -11.180339887498949 $118 $320 forward @7 unknown #
coedge $-1 -1 $-1 $128 $119 $305 $321 reversed $36 $-1 #
attrib_edge_convexity-kcp-attrib $-1 -1 $322 $-1 $120 1 #
vertex $-1 -1 $-1 $202 $323 #
vertex $-1 -1 $-1 $200 $324 #
straight-curve $-1 -1 $-1 10 11.180339887498949 0 0 0 1 I I #
coedge $-1 -1 $-1 $124 $121 $325 $326 forward $33 $-1 #
coedge $-1 -1 $-1 $327 $328 $121 $210 reversed $329 $-1 #
edge $330 -1 $-1 $213 10 $331 40 $209 $332 forward @7 unknown #
coedge $-1 -1 $-1 $122 $196 $327 $333 reversed $74 $-1 #
attrib_edge_convexity-kcp-attrib $-1 -1 $334 $-1 $123 1 #
vertex $-1 -1 $-1 $333 $335 #
straight-curve $-1 -1 $-1 -10 0 20 0 1 0 I I #
coedge $-1 -1 $-1 $336 $337 $124 $216 reversed $338 $-1 #
edge $339 -1 $-1 $340 -40 $219 -10 $215 $341 forward @7 unknown #
coedge $-1 -1 $-1 $306 $125 $337 $342 reversed $114 $-1 #
attrib_edge_convexity-kcp-attrib $-1 -1 $343 $-1 $126 1 #
vertex $-1 -1 $-1 $216 $344 #
edge $345 -1 $-1 $232 0 $130 20 $195 $346 forward @7 unknown #
convexity-sys-attrib $-1 -1 $-1 $129 $81 #
point $-1 -1 $-1 -10 -11.180339887498949 20 #
point $-1 -1 $-1 -10 11.180339887498949 20 #
coedge $-1 -1 $-1 $347 $133 $138 $236 forward $225 $-1 #
loop $348 -1 $-1 $-1 $133 $349 #
attrib_edge_convexity-kcp-attrib $-1 -1 $350 $-1 $134 1 #
ellipse-curve $-1 -1 $-1 0 0 20 0 0 -1 15 0 0 1 I I #
coedge $-1 -1 $-1 $351 $135 $306 $352 reversed $230 $-1 #
coedge $-1 -1 $-1 $135 $351 $137 $235 reversed $230 $-1 #
loop $353 -1 $-1 $-1 $135 $191 #
attrib_edge_convexity-kcp-attrib $-1 -1 $354 $-1 $136 1 #
vertex $-1 -1 $-1 $352 $355 #
ellipse-curve $-1 -1 $-1 0 0 0 0 0 -1 15 0 0 1 I I #
coedge $-1 -1 $-1 $138 $137 $356 $357 reversed $139 $-1 #
edge $-1 -1 $-1 $142 11.180339887498949 $358 40 $137 $320 forward @7 unknown #
edge $-1 -1 $-1 $141 11.180339887498949 $359 40 $224 $316 forward @7 unknown #
model_id-kcp-attrib $-1 -1 $-1 $-1 $139 1 1021384615 1021384615 -1090846719 22 #
face $360 -1 $-1 $361 $139 $8 $-1 $51 forward single #
convexity-sys-attrib $-1 -1 $-1 $140 $85 #
point $-1 -1 $-1 10 -11.180339887498949 20 #
point $-1 -1 $-1 10 -11.180339887498949 0 #
coedge $-1 -1 $-1 $362 $363 $364 $365 forward $145 $-1 #
model_id-kcp-attrib $-1 -1 $-1 $-1 $146 1 1021384615 1021384615 -1090846719 12 #
face $366 -1 $-1 $367 $368 $8 $-1 $369 reversed single #
plane-surface $-1 -1 $-1 0 0 -20 0 0 1 1 0 0 forward_v I I I I #
vertex $-1 -1 $-1 $150 $370 #
ellipse-curve $-1 -1 $-1 0 0 20 0 0 1 15 0 0 1 I I #
point $-1 -1 $-1 15 0 -20 #
face $-1 -1 $-1 $371 $372 $22 $-1 $373 forward single #
loop $-1 -1 $-1 $-1 $374 $153 #
cone-surface $-1 -1 $-1 0 0 0 0 0 1 15 0 0 1 I I 0 1 15 forward I I I I #
coedge $-1 -1 $-1 $375 $376 $377 $378 forward $154 $-1 #
coedge $-1 -1 $-1 $379 $156 $376 $380 reversed $96 $-1 #
coedge $-1 -1 $-1 $156 $379 $157 $258 forward $96 $-1 #
coedge $-1 -1 $-1 $159 $377 $156 $256 reversed $166 $-1 #
edge $-1 -1 $-1 $259 -10 $381 10 $156 $382 forward @7 unknown #
coedge $-1 -1 $-1 $158 $157 $383 $384 reversed $64 $-1 #
edge $-1 -1 $-1 $385 0 $259 20 $254 $386 forward @7 unknown #
vertex $-1 -1 $-1 $258 $387 #
straight-curve $-1 -1 $-1 -10 0 20 0 1 0 I I #
coedge $-1 -1 $-1 $383 $388 $161 $262 forward $389 $-1 #
edge $390 -1 $-1 $268 2.3005239830218631 $263 3.9826613241577231 $161 $391 forward @7 unknown #
vertex $-1 -1 $-1 $262 $392 #
straight-curve $-1 -1 $-1 -10 11.180339887498945 0 0 0 1 I I #
coedge $-1 -1 $-1 $393 $163 $388 $394 reversed $267 $-1 #
coedge $-1 -1 $-1 $163 $393 $165 $271 forward $267 $-1 #
loop $-1 -1 $-1 $-1 $266 $395 #
vertex $-1 -1 $-1 $394 $396 #
straight-curve $-1 -1 $-1 -10 -11.180339887498949 0 0 0 1 I I #
coedge $-1 -1 $-1 $397 $165 $398 $399 reversed $166 $-1 #
edge $-1 -1 $-1 $400 -40 $167 -11.180339887498949 $266 $401 forward @7 unknown #
face $-1 -1 $-1 $402 $166 $22 $-1 $403 forward single #
point $-1 -1 $-1 -10 -11.180339887498949 20 #
point $-1 -1 $-1 -10 11.180339887498945 20 #
model_id-kcp-attrib $-1 -1 $-1 $-1 $171 1 1021384615 1021384615 -1090846718 7 #
face $404 -1 $-1 $-1 $186 $23 $-1 $405 reversed single #
loop $-1 -1 $-1 $-1 $292 $171 #
plane-surface $-1 -1 $-1 0 40 0 0 -1 0 0 0 -1 forward_v I I I I #
coedge $-1 -1 $-1 $406 $290 $293 $407 forward $172 $-1 #
coedge $-1 -1 $-1 $296 $174 $175 $284 reversed $105 $-1 #
coedge $-1 -1 $-1 $290 $406 $174 $282 reversed $172 $-1 #
edge $-1 -1 $-1 $297 -20 $408 20 $281 $409 forward @7 unknown #
coedge $-1 -1 $-1 $176 $175 $406 $410 forward $69 $-1 #
edge $-1 -1 $-1 $288 -40 $408 40 $280 $411 forward @7 unknown #
coedge $-1 -1 $-1 $293 $292 $176 $286 reversed $277 $-1 #
edge $-1 -1 $-1 $412 -40 $287 40 $285 $413 forward @7 unknown #
vertex $-1 -1 $-1 $178 $414 #
vertex $-1 -1 $-1 $299 $415 #
straight-curve $-1 -1 $-1 40 0 -20 0 -1 0 I I #
coedge $-1 -1 $-1 $279 $281 $179 $291 reversed $172 $-1 #
edge $-1 -1 $-1 $294 -40 $297 40 $290 $416 forward @7 unknown #
coedge $-1 -1 $-1 $285 $180 $185 $300 forward $277 $-1 #
coedge $-1 -1 $-1 $180 $285 $279 $407 reversed $277 $-1 #
vertex $-1 -1 $-1 $181 $417 #
straight-curve $-1 -1 $-1 0 40 20 -1 0 0 I I #
coedge $-1 -1 $-1 $182 $280 $184 $299 reversed $105 $-1 #
vertex $-1 -1 $-1 $291 $418 #
straight-curve $-1 -1 $-1 0 -40 20 1 0 0 I I #
edge $-1 -1 $-1 $187 -20 $288 20 $184 $419 forward @7 unknown #
edge $-1 -1 $-1 $188 -20 $287 20 $185 $420 forward @7 unknown #
point $-1 -1 $-1 40 -40 20 #
point $-1 -1 $-1 40 40 20 #
model_id-kcp-attrib $-1 -1 $-1 $-1 $191 1 1021384615 1021384615 -1090846719 8 #
model_id-kcp-attrib $-1 -1 $-1 $-1 $192 1 1021384615 1021384615 -1090846719 25 #
coedge $-1 -1 $-1 $201 $307 $203 $321 forward $192 $-1 #
coedge $-1 -1 $-1 $195 $217 $228 $352 forward $114 $-1 #
coedge $-1 -1 $-1 $305 $317 $196 $308 reversed $192 $-1 #
edge $421 -1 $-1 $310 11.180339887498949 $422 40 $196 $423 forward @7 unknown #
attrib_edge_convexity-kcp-attrib $-1 -1 $424 $-1 $197 1 #
vertex $-1 -1 $-1 $321 $425 #
straight-curve $-1 -1 $-1 -10 11.180339887498949 0 0 0 -1 I I #
coedge $-1 -1 $-1 $426 $427 $198 $313 forward $329 $-1 #
edge $-1 -1 $-1 $319 -5 $315 15 $312 $428 forward @7 unknown #
coedge $-1 -1 $-1 $199 $429 $426 $430 forward $225 $-1 #
vertex $-1 -1 $-1 $430 $431 #
straight-curve $-1 -1 $-1 10 0 20 0 -1 0 I I #
coedge $-1 -1 $-1 $307 $201 $427 $432 reversed $192 $-1 #
attrib_edge_convexity-kcp-attrib $-1 -1 $433 $-1 $202 2 #
vertex $-1 -1 $-1 $432 $434 #
straight-curve $-1 -1 $-1 10 0 0 0 -1 0 I I #
edge $435 -1 $-1 $310 -2.3005239830218631 $205 -0.84106867056793033 $305 $233 forward @7 unknown #
convexity-sys-attrib $-1 -1 $-1 $204 $120 #
point $-1 -1 $-1 10 11.180339887498949 0 #
point $-1 -1 $-1 10 11.180339887498949 20 #
coedge $-1 -1 $-1 $436 $437 $208 $326 reversed $368 $-1 #
edge $438 -1 $-1 $331 -40 $340 40 $325 $439 forward @7 unknown #
coedge $-1 -1 $-1 $427 $209 $211 $333 forward $329 $-1 #
coedge $-1 -1 $-1 $209 $440 $436 $441 reversed $329 $-1 #
loop $-1 -1 $-1 $-1 $312 $367 #
attrib_edge_convexity-kcp-attrib $-1 -1 $442 $-1 $210 1 #
vertex $-1 -1 $-1 $210 $443 #
straight-curve $-1 -1 $-1 0 40 20 -1 0 0 I I #
edge $-1 -1 $-1 $213 -15 $422 5 $327 $444 forward @7 unknown #
convexity-sys-attrib $-1 -1 $-1 $212 $123 #
point $-1 -1 $-1 -10 40 20 #
coedge $-1 -1 $-1 $445 $215 $437 $446 forward $338 $-1 #
coedge $-1 -1 $-1 $215 $447 $217 $342 forward $338 $-1 #
loop $-1 -1 $-1 $-1 $356 $361 #
attrib_edge_convexity-kcp-attrib $-1 -1 $448 $-1 $216 1 #
vertex $-1 -1 $-1 $326 $449 #
straight-curve $-1 -1 $-1 0 -40 20 1 0 0 I I #
edge $450 -1 $-1 $451 -5 $219 15 $337 $452 forward @7 unknown #
convexity-sys-attrib $-1 -1 $-1 $218 $126 #
point $-1 -1 $-1 -10 -40 20 #
attrib_edge_convexity-kcp-attrib $-1 -1 $453 $-1 $220 1 #
straight-curve $-1 -1 $-1 -10 -11.180339887498949 0 0 0 1 I I #
coedge $-1 -1 $-1 $429 $224 $454 $455 forward $225 $-1 #
model_id-kcp-attrib $-1 -1 $-1 $-1 $225 1 1021384615 1021384615 -1090846719 23 #
face $456 -1 $-1 $146 $225 $8 $-1 $34 forward single #
convexity-sys-attrib $-1 -1 $-1 $226 $134 #
coedge $-1 -1 $-1 $229 $228 $447 $457 reversed $230 $-1 #
edge $-1 -1 $-1 $451 -40 $232 -11.180339887498949 $306 $423 forward @7 unknown #
model_id-kcp-attrib $-1 -1 $-1 $-1 $230 1 1021384615 1021384615 -1090846719 29 #
convexity-sys-attrib $-1 -1 $-1 $231 $136 #
point $-1 -1 $-1 -10 -11.180339887498949 0 #
coedge $-1 -1 $-1 $447 $454 $234 $357 forward $338 $-1 #
edge $458 -1 $-1 $359 -15 $358 5 $356 $459 forward @7 unknown #
vertex $-1 -1 $-1 $457 $460 #
vertex $-1 -1 $-1 $236 $461 #
model_id-kcp-attrib $-1 -1 $-1 $-1 $238 1 1021384615 1021384615 -1090846719 9 #
face $462 -1 $-1 $349 $338 $8 $-1 $463 reversed single #
coedge $-1 -1 $-1 $464 $242 $445 $465 forward $145 $-1 #
coedge $-1 -1 $-1 $242 $464 $440 $466 forward $145 $-1 #
coedge $-1 -1 $-1 $467 $468 $242 $365 reversed $469 $-1 #
edge $-1 -1 $-1 $470 -40 $471 40 $364 $472 forward @7 unknown #
model_id-kcp-attrib $-1 -1 $-1 $-1 $244 1 1021384615 1021384615 -1090846719 13 #
face $473 -1 $-1 $474 $329 $8 $-1 $475 reversed single #
loop $-1 -1 $-1 $-1 $436 $244 #
plane-surface $-1 -1 $-1 -40 0 0 1 0 0 0 0 -1 forward_v I I I I #
point $-1 -1 $-1 15 0 20 #
face $-1 -1 $-1 $395 $476 $22 $-1 $477 forward single #
loop $-1 -1 $-1 $-1 $478 $249 #
plane-surface $-1 -1 $-1 10 -11.180339887498949 0 1 0 0 0 0 -1 forward_v I I I I #
coedge $-1 -1 $-1 $479 $480 $481 $482 forward $250 $-1 #
coedge $-1 -1 $-1 $483 $252 $480 $484 reversed $154 $-1 #
coedge $-1 -1 $-1 $252 $483 $253 $380 forward $154 $-1 #
coedge $-1 -1 $-1 $255 $481 $252 $378 reversed $166 $-1 #
edge $-1 -1 $-1 $381 -40 $485 -11.180339887498945 $252 $486 forward @7 unknown #
coedge $-1 -1 $-1 $254 $253 $487 $488 reversed $96 $-1 #
edge $-1 -1 $-1 $489 0 $381 20 $376 $490 forward @7 unknown #
vertex $-1 -1 $-1 $380 $491 #
straight-curve $-1 -1 $-1 0 40 20 1 0 0 I I #
coedge $-1 -1 $-1 $487 $261 $257 $384 forward $389 $-1 #
edge $492 -1 $-1 $263 11.180339887498949 $385 40 $257 $493 forward @7 unknown #
vertex $-1 -1 $-1 $384 $494 #
straight-curve $-1 -1 $-1 -10 40 0 0 0 1 I I #
point $-1 -1 $-1 -10 40 20 #
coedge $-1 -1 $-1 $261 $495 $265 $394 forward $389 $-1 #
loop $-1 -1 $-1 $-1 $388 $402 #
convexity-sys-attrib $-1 -1 $-1 $-1 $262 #
ellipse-curve $-1 -1 $-1 0 0 0 0 0 -1 15 0 0 1 I I #
point $-1 -1 $-1 -10 11.180339887498949 0 #
coedge $-1 -1 $-1 $266 $265 $496 $497 forward $267 $-1 #
edge $498 -1 $-1 $499 -40 $268 -11.180339887498949 $265 $500 forward @7 unknown #
face $-1 -1 $-1 $272 $267 $22 $-1 $501 forward single #
point $-1 -1 $-1 -10 -11.180339887498949 0 #
coedge $-1 -1 $-1 $481 $270 $478 $502 reversed $166 $-1 #
coedge $-1 -1 $-1 $496 $503 $270 $399 forward $476 $-1 #
edge $-1 -1 $-1 $504 -10 $400 10 $398 $505 forward @7 unknown #
vertex $-1 -1 $-1 $497 $506 #
straight-curve $-1 -1 $-1 -10 0 20 0 1 0 I I #
face $-1 -1 $-1 $-1 $389 $22 $-1 $507 reversed single #
plane-surface $-1 -1 $-1 4.4408920985006262e-016 -5.9413745254287591e-017 20 0 0 1 1 0 0 forward_v I I I I #
model_id-kcp-attrib $-1 -1 $-1 $-1 $276 1 1021384615 1021384615 -1090846718 8 #
plane-surface $-1 -1 $-1 40 0 0 -1 0 0 0 0 1 forward_v I I I I #
coedge $-1 -1 $-1 $281 $279 $283 $410 reversed $172 $-1 #
edge $-1 -1 $-1 $294 -20 $412 20 $293 $508 forward @7 unknown #
vertex $-1 -1 $-1 $410 $509 #
straight-curve $-1 -1 $-1 -40 -40 0 0 0 -1 I I #
edge $-1 -1 $-1 $408 -40 $412 40 $406 $510 forward @7 unknown #
straight-curve $-1 -1 $-1 0 -40 -20 -1 0 0 I I #
vertex $-1 -1 $-1 $286 $511 #
straight-curve $-1 -1 $-1 0 40 -20 1 0 0 I I #
point $-1 -1 $-1 40 40 -20 #
point $-1 -1 $-1 40 -40 -20 #
straight-curve $-1 -1 $-1 -40 0 20 0 -1 0 I I #
point $-1 -1 $-1 -40 40 20 #
point $-1 -1 $-1 -40 -40 20 #
straight-curve $-1 -1 $-1 40 -40 0 0 0 -1 I I #
straight-curve $-1 -1 $-1 40 40 0 0 0 -1 I I #
attrib_edge_convexity-kcp-attrib $-1 -1 $512 $-1 $308 2 #
vertex $-1 -1 $-1 $432 $513 #
straight-curve $-1 -1 $-1 -10 0 0 0 1 0 I I #
convexity-sys-attrib $-1 -1 $-1 $309 $197 #
point $-1 -1 $-1 -10 11.180339887498949 0 #
coedge $-1 -1 $-1 $514 $312 $314 $430 reversed $329 $-1 #
coedge $-1 -1 $-1 $312 $327 $317 $432 forward $329 $-1 #
straight-curve $-1 -1 $-1 10 40 5 0 0 1 I I #
coedge $-1 -1 $-1 $314 $347 $515 $516 forward $225 $-1 #
edge $-1 -1 $-1 $517 -40 $315 -10 $426 $332 forward @7 unknown #
point $-1 -1 $-1 10 40 20 #
edge $518 -1 $-1 $422 -10 $319 10 $427 $519 forward @7 unknown #
convexity-sys-attrib $-1 -1 $-1 $318 $202 #
point $-1 -1 $-1 10 40 0 #
attrib_edge_convexity-kcp-attrib $-1 -1 $520 $-1 $321 1 #
coedge $-1 -1 $-1 $521 $325 $328 $441 forward $368 $-1 #
coedge $-1 -1 $-1 $325 $521 $336 $446 reversed $368 $-1 #
attrib_edge_convexity-kcp-attrib $-1 -1 $522 $-1 $326 1 #
straight-curve $-1 -1 $-1 -40 0 20 0 -1 0 I I #
coedge $-1 -1 $-1 $328 $514 $363 $466 reversed $329 $-1 #
edge $523 -1 $-1 $331 -20 $524 20 $328 $525 forward @7 unknown #
convexity-sys-attrib $-1 -1 $-1 $330 $210 #
point $-1 -1 $-1 -40 40 20 #
straight-curve $-1 -1 $-1 -10 40 5 0 0 -1 I I #
coedge $-1 -1 $-1 $526 $336 $362 $465 reversed $338 $-1 #
edge $527 -1 $-1 $340 -20 $528 20 $437 $529 forward @7 unknown #
coedge $-1 -1 $-1 $337 $356 $351 $457 forward $338 $-1 #
convexity-sys-attrib $-1 -1 $-1 $339 $216 #
point $-1 -1 $-1 -40 -40 20 #
attrib_edge_convexity-kcp-attrib $-1 -1 $530 $-1 $342 1 #
vertex $-1 -1 $-1 $457 $531 #
straight-curve $-1 -1 $-1 -10 -40 5 0 0 1 I I #
convexity-sys-attrib $-1 -1 $-1 $345 $220 #
coedge $-1 -1 $-1 $356 $526 $347 $455 reversed $338 $-1 #
edge $532 -1 $-1 $359 10 $533 40 $454 $341 forward @7 unknown #
model_id-kcp-attrib $-1 -1 $-1 $-1 $349 1 1021384615 1021384615 -1090846719 11 #
edge $534 -1 $-1 $358 -10 $451 10 $447 $535 forward @7 unknown #
attrib_edge_convexity-kcp-attrib $-1 -1 $536 $-1 $357 1 #
straight-curve $-1 -1 $-1 10 -40 5 0 0 -1 I I #
point $-1 -1 $-1 10 -40 0 #
point $-1 -1 $-1 10 -40 20 #
model_id-kcp-attrib $-1 -1 $-1 $-1 $361 1 1021384615 1021384615 -1090846719 10 #
plane-surface $-1 -1 $-1 0 -40 0 0 1 0 0 0 1 forward_v I I I I #
coedge $-1 -1 $-1 $363 $362 $521 $537 forward $145 $-1 #
edge $538 -1 $-1 $471 -40 $528 40 $445 $539 forward @7 unknown #
edge $-1 -1 $-1 $524 -40 $470 40 $440 $540 forward @7 unknown #
coedge $-1 -1 $-1 $515 $364 $514 $541 reversed $469 $-1 #
coedge $-1 -1 $-1 $364 $515 $526 $542 forward $469 $-1 #
loop $-1 -1 $-1 $-1 $468 $474 #
vertex $-1 -1 $-1 $365 $543 #
vertex $-1 -1 $-1 $542 $544 #
straight-curve $-1 -1 $-1 40 0 -20 0 -1 0 I I #
model_id-kcp-attrib $-1 -1 $-1 $-1 $367 1 1021384615 1021384615 -1090846719 14 #
face $545 -1 $-1 $-1 $469 $8 $-1 $546 reversed single #
plane-surface $-1 -1 $-1 0 40 0 0 -1 0 0 0 -1 forward_v I I I I #
loop $-1 -1 $-1 $-1 $398 $371 #
plane-surface $-1 -1 $-1 10 -40 0 0 -1 0 0 0 -1 forward_v I I I I #
coedge $-1 -1 $-1 $547 $548 $397 $502 forward $372 $-1 #
coedge $-1 -1 $-1 $549 $374 $548 $550 reversed $250 $-1 #
coedge $-1 -1 $-1 $374 $549 $375 $484 forward $250 $-1 #
coedge $-1 -1 $-1 $377 $397 $374 $482 reversed $166 $-1 #
edge $-1 -1 $-1 $485 -0.84106867056793011 $551 0.84106867056793033 $374 $552 forward @7 unknown #
coedge $-1 -1 $-1 $376 $375 $553 $554 reversed $154 $-1 #
edge $-1 -1 $-1 $555 0 $485 20 $480 $556 forward @7 unknown #
vertex $-1 -1 $-1 $484 $557 #
straight-curve $-1 -1 $-1 10 0 20 0 -1 0 I I #
coedge $-1 -1 $-1 $553 $383 $379 $488 forward $389 $-1 #
edge $558 -1 $-1 $385 -10 $489 10 $379 $559 forward @7 unknown #
vertex $-1 -1 $-1 $488 $560 #
straight-curve $-1 -1 $-1 10 40 0 0 0 1 I I #
point $-1 -1 $-1 10 40 20 #
convexity-sys-attrib $-1 -1 $-1 $-1 $384 #
straight-curve $-1 -1 $-1 -10 0 0 0 1 0 I I #
point $-1 -1 $-1 -10 40 0 #
coedge $-1 -1 $-1 $388 $561 $562 $563 forward $389 $-1 #
coedge $-1 -1 $-1 $562 $398 $393 $497 reversed $476 $-1 #
edge $-1 -1 $-1 $499 0 $400 20 $393 $564 forward @7 unknown #
convexity-sys-attrib $-1 -1 $-1 $-1 $394 #
vertex $-1 -1 $-1 $394 $565 #
straight-curve $-1 -1 $-1 -10 0 0 0 1 0 I I #
plane-surface $-1 -1 $-1 -10 -40 0 -1 0 0 0 0 1 forward_v I I I I #
edge $-1 -1 $-1 $551 11.180339887498949 $504 40 $478 $566 forward @7 unknown #
coedge $-1 -1 $-1 $398 $562 $547 $567 forward $476 $-1 #
vertex $-1 -1 $-1 $567 $568 #
straight-curve $-1 -1 $-1 0 -40 20 -1 0 0 I I #
point $-1 -1 $-1 -10 -40 20 #
plane-surface $-1 -1 $-1 4.4408920985006262e-016 -5.9413745254287591e-017 0 0 0 1 1 0 0 forward_v I I I I #
straight-curve $-1 -1 $-1 -40 40 0 0 0 -1 I I #
point $-1 -1 $-1 -40 -40 -20 #
straight-curve $-1 -1 $-1 -40 0 -20 0 1 0 I I #
point $-1 -1 $-1 -40 40 -20 #
convexity-sys-attrib $-1 -1 $-1 $421 $308 #
point $-1 -1 $-1 -10 40 0 #
coedge $-1 -1 $-1 $440 $426 $467 $541 forward $329 $-1 #
coedge $-1 -1 $-1 $468 $467 $429 $516 reversed $469 $-1 #
edge $-1 -1 $-1 $533 -40 $517 40 $515 $569 forward @7 unknown #
vertex $-1 -1 $-1 $516 $570 #
attrib_edge_convexity-kcp-attrib $-1 -1 $571 $-1 $432 1 #
straight-curve $-1 -1 $-1 0 40 0 1 0 0 I I #
convexity-sys-attrib $-1 -1 $-1 $435 $321 #
coedge $-1 -1 $-1 $437 $436 $464 $537 reversed $368 $-1 #
convexity-sys-attrib $-1 -1 $-1 $438 $326 #
attrib_edge_convexity-kcp-attrib $-1 -1 $572 $-1 $441 1 #
vertex $-1 -1 $-1 $466 $573 #
straight-curve $-1 -1 $-1 -40 40 0 0 0 -1 I I #
coedge $-1 -1 $-1 $454 $445 $468 $542 reversed $338 $-1 #
attrib_edge_convexity-kcp-attrib $-1 -1 $574 $-1 $446 1 #
vertex $-1 -1 $-1 $537 $575 #
straight-curve $-1 -1 $-1 -40 -40 0 0 0 -1 I I #
convexity-sys-attrib $-1 -1 $-1 $450 $342 #
point $-1 -1 $-1 -10 -40 0 #
attrib_edge_convexity-kcp-attrib $-1 -1 $576 $-1 $455 1 #
vertex $-1 -1 $-1 $516 $577 #
attrib_edge_convexity-kcp-attrib $-1 -1 $578 $-1 $457 1 #
straight-curve $-1 -1 $-1 0 -40 0 -1 0 0 I I #
convexity-sys-attrib $-1 -1 $-1 $458 $357 #
edge $579 -1 $-1 $528 -40 $524 40 $521 $580 forward @7 unknown #
attrib_edge_convexity-kcp-attrib $-1 -1 $581 $-1 $465 1 #
straight-curve $-1 -1 $-1 0 -40 -20 -1 0 0 I I #
straight-curve $-1 -1 $-1 0 40 -20 1 0 0 I I #
edge $-1 -1 $-1 $517 -20 $470 20 $467 $582 forward @7 unknown #
edge $583 -1 $-1 $533 -20 $471 20 $468 $584 forward @7 unknown #
point $-1 -1 $-1 40 40 -20 #
point $-1 -1 $-1 40 -40 -20 #
model_id-kcp-attrib $-1 -1 $-1 $-1 $474 1 1021384615 1021384615 -1090846719 15 #
plane-surface $-1 -1 $-1 40 0 0 -1 0 0 0 0 1 forward_v I I I I #
coedge $-1 -1 $-1 $585 $478 $503 $567 reversed $372 $-1 #
coedge $-1 -1 $-1 $478 $585 $479 $550 forward $372 $-1 #
coedge $-1 -1 $-1 $480 $479 $586 $587 reversed $250 $-1 #
edge $-1 -1 $-1 $588 0 $551 20 $548 $589 forward @7 unknown #
vertex $-1 -1 $-1 $550 $590 #
ellipse-curve $-1 -1 $-1 0 0 20 0 0 -1 15 0 0 1 I I #
coedge $-1 -1 $-1 $586 $487 $483 $554 forward $389 $-1 #
edge $591 -1 $-1 $489 -40 $555 -11.180339887498949 $483 $592 forward @7 unknown #
vertex $-1 -1 $-1 $554 $593 #
straight-curve $-1 -1 $-1 10 11.180339887498945 0 0 0 1 I I #
point $-1 -1 $-1 10 11.180339887498945 20 #
convexity-sys-attrib $-1 -1 $-1 $-1 $488 #
straight-curve $-1 -1 $-1 0 40 0 1 0 0 I I #
point $-1 -1 $-1 10 40 0 #
coedge $-1 -1 $-1 $495 $586 $585 $594 forward $389 $-1 #
coedge $-1 -1 $-1 $503 $496 $495 $563 reversed $476 $-1 #
edge $595 -1 $-1 $596 -10 $499 10 $562 $597 forward @7 unknown #
straight-curve $-1 -1 $-1 -10 -40 0 0 0 1 I I #
point $-1 -1 $-1 -10 -40 0 #
straight-curve $-1 -1 $-1 10 0 20 0 -1 0 I I #
edge $-1 -1 $-1 $596 0 $504 20 $503 $598 forward @7 unknown #
point $-1 -1 $-1 10 -40 20 #
straight-curve $-1 -1 $-1 40 0 20 0 1 0 I I #
point $-1 -1 $-1 40 40 20 #
convexity-sys-attrib $-1 -1 $-1 $518 $432 #
convexity-sys-attrib $-1 -1 $-1 $523 $441 #
point $-1 -1 $-1 -40 40 -20 #
convexity-sys-attrib $-1 -1 $-1 $527 $446 #
point $-1 -1 $-1 -40 -40 -20 #
convexity-sys-attrib $-1 -1 $-1 $532 $455 #
point $-1 -1 $-1 40 -40 20 #
convexity-sys-attrib $-1 -1 $-1 $534 $457 #
attrib_edge_convexity-kcp-attrib $-1 -1 $599 $-1 $537 1 #
straight-curve $-1 -1 $-1 -40 0 -20 0 1 0 I I #
convexity-sys-attrib $-1 -1 $-1 $538 $465 #
straight-curve $-1 -1 $-1 40 40 0 0 0 -1 I I #
attrib_edge_convexity-kcp-attrib $-1 -1 $600 $-1 $542 1 #
straight-curve $-1 -1 $-1 40 -40 0 0 0 -1 I I #
coedge $-1 -1 $-1 $548 $547 $561 $594 reversed $372 $-1 #
coedge $-1 -1 $-1 $561 $553 $549 $587 forward $389 $-1 #
edge $601 -1 $-1 $555 -0.84106867056793033 $588 0.84106867056793033 $549 $602 forward @7 unknown #
vertex $-1 -1 $-1 $587 $603 #
straight-curve $-1 -1 $-1 10 -11.180339887498949 0 0 0 1 I I #
point $-1 -1 $-1 10 -11.180339887498949 20 #
convexity-sys-attrib $-1 -1 $-1 $-1 $554 #
straight-curve $-1 -1 $-1 10 0 0 0 -1 0 I I #
point $-1 -1 $-1 10 11.180339887498949 0 #
edge $604 -1 $-1 $588 11.180339887498949 $596 40 $585 $605 forward @7 unknown #
convexity-sys-attrib $-1 -1 $-1 $-1 $563 #
vertex $-1 -1 $-1 $594 $606 #
straight-curve $-1 -1 $-1 0 -40 0 -1 0 0 I I #
straight-curve $-1 -1 $-1 10 -40 0 0 0 1 I I #
convexity-sys-attrib $-1 -1 $-1 $579 $537 #
convexity-sys-attrib $-1 -1 $-1 $583 $542 #
convexity-sys-attrib $-1 -1 $-1 $-1 $587 #
ellipse-curve $-1 -1 $-1 0 0 0 0 0 -1 15 0 0 1 I I #
point $-1 -1 $-1 10 -11.180339887498949 0 #
convexity-sys-attrib $-1 -1 $-1 $-1 $594 #
straight-curve $-1 -1 $-1 10 0 0 0 -1 0 I I #
point $-1 -1 $-1 10 -40 0 #
End-of-ACIS-data 