600 0 2 0           
24 FBMach with ACIS - 6.0.3 13 ACIS 6.0.3 NT 24 Wed May 23 20:25:38 2001 
1 9.9999999999999995e-007 1e-010 
body $2 $3 $-1 $4 #
bdycol-kcp $-1 1 3 $5 $6 $7 #
model_id-kcp-attrib $-1 $-1 $-1 $0 1 990663937 80 1699741697 1 #
lump $-1 $-1 $8 $0 #
transform $-1 1 0 0 0 1 0 0 0 1 0 0 0 1 no_rotate no_reflect no_shear #
body $9 $10 $-1 $11 #
body $12 $13 $-1 $14 #
body $15 $16 $-1 $17 #
shell $-1 $-1 $-1 $18 $-1 $3 #
model_id-kcp-attrib $-1 $-1 $-1 $5 1 990663937 80 1699741698 1 #
lump $-1 $-1 $19 $5 #
transform $-1 1 0 0 0 1 0 0 0 1 0 0 0 1 no_rotate no_reflect no_shear #
rgb_color-st-attrib $-1 $20 $-1 $6 0.5 1 1 #
lump $-1 $-1 $21 $6 #
transform $-1 1 0 0 0 1 0 0 0 1 0 0 0 1 no_rotate no_reflect no_shear #
rgb_color-st-attrib $-1 $22 $-1 $7 0.59999999999999998 0.90000000000000002 1 #
lump $-1 $-1 $23 $7 #
transform $-1 1 0 0 0 1 0 0 0 1 0 0 0 1 no_rotate no_reflect no_shear #
face $24 $25 $26 $8 $-1 $27 reversed single #
shell $-1 $-1 $-1 $28 $-1 $10 #
model_id-kcp-attrib $-1 $-1 $12 $6 1 990663937 110 1701707779 1 #
shell $-1 $-1 $-1 $29 $-1 $13 #
model_id-kcp-attrib $-1 $-1 $15 $7 1 990663937 400 1703936004 1 #
shell $-1 $-1 $-1 $30 $-1 $16 #
model_id-kcp-attrib $-1 $-1 $-1 $18 1 990663937 80 1699741697 2 #
face $31 $32 $33 $8 $-1 $34 forward single #
loop $35 $36 $37 $18 #
cone-surface $-1 0 0 0 0 0 1 15 0 0 1 I I 0 1 15 forward I I I I #
face $38 $39 $40 $19 $-1 $41 forward single #
face $-1 $42 $43 $21 $-1 $44 forward single #
face $-1 $45 $46 $23 $-1 $47 forward single #
model_id-kcp-attrib $-1 $48 $-1 $25 1 990663937 80 1699741697 18 #
face $49 $50 $51 $8 $-1 $52 forward single #
loop $53 $-1 $54 $25 #
plane-surface $-1 0 0 20 0 0 1 1 0 0 forward_v I I I I #
model_id-kcp-attrib $-1 $-1 $-1 $26 1 990663937 80 1699741697 19 #
loop $55 $-1 $56 $18 #
coedge $-1 $37 $37 $57 $58 reversed $26 $-1 #
model_id-kcp-attrib $-1 $59 $-1 $28 1 990663937 80 1699741698 4 #
face $60 $61 $62 $19 $-1 $63 reversed single #
loop $-1 $-1 $64 $28 #
plane-surface $-1 0 0 20 0 0 1 1 0 0 forward_v I I I I #
face $-1 $65 $66 $21 $-1 $67 forward single #
loop $-1 $68 $69 $29 #
cone-surface $-1 0 0 0 0 0 1 15 0 0 1 I I 0 1 15 forward I I I I #
face $-1 $70 $71 $23 $-1 $72 forward single #
loop $-1 $-1 $73 $30 #
cone-surface $-1 0 0 0 0 0 1 15 0 0 1 I I 0 1 15 forward I I I I #
model_id-kcp-attrib $-1 $-1 $31 $25 1 990663937 80 1699741697 3 #
model_id-kcp-attrib $-1 $-1 $-1 $32 1 990663937 80 1699741697 4 #
face $74 $75 $76 $8 $-1 $77 forward single #
loop $78 $-1 $79 $32 #
plane-surface $-1 10 0 10 -1 0 0 0 0 1 forward_v I I I I #
model_id-kcp-attrib $-1 $-1 $-1 $33 1 990663937 80 1699741697 27 #
coedge $-1 $80 $81 $82 $83 forward $33 $-1 #
model_id-kcp-attrib $-1 $-1 $-1 $36 1 990663937 80 1699741697 20 #
coedge $-1 $84 $85 $86 $87 reversed $36 $-1 #
coedge $-1 $57 $57 $37 $58 forward $88 $-1 #
edge $89 $90 0 $90 6.2831853071795862 $57 $91 forward 7 unknown #
model_id-kcp-attrib $-1 $-1 $38 $28 1 990663937 80 1699741698 2 #
model_id-kcp-attrib $-1 $-1 $-1 $39 1 990663937 80 1699741698 5 #
face $92 $93 $94 $19 $-1 $95 reversed single #
loop $-1 $-1 $96 $39 #
plane-surface $-1 0 0 -20 0 0 1 1 0 0 forward_v I I I I #
coedge $-1 $97 $98 $99 $100 forward $40 $-1 #
face $-1 $-1 $101 $21 $-1 $102 forward single #
loop $-1 $-1 $103 $42 #
plane-surface $-1 0 0 -20 0 0 -1 -1 0 0 forward_v I I I I #
loop $-1 $-1 $104 $29 #
coedge $-1 $69 $69 $103 $105 reversed $43 $-1 #
face $-1 $106 $107 $23 $-1 $108 forward single #
loop $-1 $-1 $109 $45 #
plane-surface $-1 -10 11.180339887498945 0 -1 0 0 0 0 1 forward_v I I I I #
coedge $-1 $110 $111 $112 $113 forward $46 $-1 #
model_id-kcp-attrib $-1 $-1 $-1 $50 1 990663937 80 1699741697 5 #
face $114 $115 $116 $8 $-1 $77 forward single #
loop $117 $-1 $118 $50 #
plane-surface $-1 -10 0 10 1 0 0 0 0 -1 forward_v I I I I #
model_id-kcp-attrib $-1 $-1 $-1 $51 1 990663937 80 1699741697 24 #
coedge $-1 $119 $120 $121 $122 forward $51 $-1 #
coedge $-1 $123 $54 $124 $125 forward $33 $-1 #
coedge $-1 $54 $126 $127 $128 forward $33 $-1 #
coedge $-1 $129 $130 $54 $83 reversed $36 $-1 #
edge $131 $132 2.3005239830218631 $133 3.9826613241577231 $54 $134 forward 7 unknown #
coedge $-1 $121 $56 $135 $136 reversed $36 $-1 #
coedge $-1 $56 $129 $137 $138 reversed $36 $-1 #
coedge $-1 $139 $140 $56 $87 forward $141 $-1 #
edge $142 $143 -20 $144 0 $86 $145 forward 7 unknown #
loop $146 $147 $57 $148 #
attrib_edge_convexity-kcp-attrib $-1 $149 $-1 $58 1 #
vertex $-1 $58 $150 #
ellipse-curve $-1 0 0 -20 0 0 1 15 0 0 1 I I #
model_id-kcp-attrib $-1 $-1 $-1 $61 1 990663937 80 1699741698 3 #
face $151 $152 $153 $19 $-1 $154 reversed single #
loop $-1 $-1 $155 $61 #
plane-surface $-1 0 -40 0 0 1 0 0 0 1 forward_v I I I I #
coedge $-1 $156 $157 $158 $159 forward $62 $-1 #
coedge $-1 $160 $64 $161 $162 forward $40 $-1 #
coedge $-1 $64 $160 $163 $164 forward $40 $-1 #
coedge $-1 $165 $166 $64 $100 reversed $167 $-1 #
edge $-1 $168 -40 $169 40 $99 $170 forward 7 unknown #
loop $-1 $-1 $171 $65 #
plane-surface $-1 0 0 20 0 0 1 1 0 0 forward_v I I I I #
coedge $-1 $103 $103 $69 $105 forward $66 $-1 #
coedge $-1 $104 $104 $171 $172 reversed $68 $-1 #
edge $-1 $173 0 $173 6.2831853071795862 $103 $174 forward 7 unknown #
face $-1 $175 $176 $23 $-1 $177 forward single #
loop $-1 $-1 $178 $70 #
plane-surface $-1 -10 40 0 0 1 0 0 0 1 forward_v I I I I #
coedge $-1 $179 $180 $181 $182 forward $71 $-1 #
coedge $-1 $183 $73 $180 $184 reversed $46 $-1 #
coedge $-1 $73 $183 $185 $186 forward $46 $-1 #
coedge $-1 $187 $181 $73 $113 reversed $188 $-1 #
edge $-1 $189 2.3005239830218631 $190 3.9826613241577231 $73 $191 forward 7 unknown #
model_id-kcp-attrib $-1 $-1 $-1 $75 1 990663937 80 1699741697 6 #
face $192 $193 $194 $8 $-1 $195 forward single #
loop $196 $-1 $197 $75 #
model_id-kcp-attrib $-1 $-1 $-1 $76 1 990663937 80 1699741697 26 #
coedge $-1 $198 $124 $130 $199 forward $76 $-1 #
coedge $-1 $200 $79 $201 $202 reversed $51 $-1 #
coedge $-1 $79 $200 $203 $204 forward $51 $-1 #
coedge $-1 $205 $84 $79 $122 reversed $36 $-1 #
edge $206 $207 0 $208 20 $79 $209 forward 7 unknown #
coedge $-1 $210 $80 $211 $212 forward $33 $-1 #
coedge $-1 $118 $213 $80 $125 reversed $76 $-1 #
edge $214 $133 11.180339887498949 $215 40 $80 $216 forward 7 unknown #
coedge $-1 $81 $210 $217 $218 forward $33 $-1 #
coedge $-1 $219 $197 $81 $128 reversed $116 $-1 #
edge $220 $221 -40 $132 -11.180339887498949 $81 $216 forward 7 unknown #
coedge $-1 $85 $82 $197 $222 reversed $36 $-1 #
coedge $-1 $82 $205 $118 $199 reversed $36 $-1 #
attrib_edge_convexity-kcp-attrib $-1 $223 $-1 $83 1 #
vertex $-1 $128 $224 #
vertex $-1 $199 $225 #
ellipse-curve $-1 0 0 20 0 0 -1 15 0 0 1 I I #
coedge $-1 $226 $201 $84 $136 forward $227 $-1 #
edge $228 $208 -0.84106867056793033 $143 0.84106867056793033 $135 $229 forward 7 unknown #
coedge $-1 $230 $231 $85 $138 forward $232 $-1 #
edge $233 $144 0.84106867056793033 $234 2.3005239830218631 $137 $235 forward 7 unknown #
coedge $-1 $236 $86 $231 $237 forward $141 $-1 #
coedge $-1 $86 $236 $226 $238 reversed $141 $-1 #
loop $239 $-1 $86 $240 #
attrib_edge_convexity-kcp-attrib $-1 $241 $-1 $87 1 #
vertex $-1 $87 $242 #
vertex $-1 $87 $243 #
straight-curve $-1 10 -11.180339887498949 0 0 0 -1 I I #
model_id-kcp-attrib $-1 $-1 $-1 $88 1 990663937 80 1699741697 21 #
loop $-1 $-1 $244 $148 #
face $245 $246 $88 $8 $-1 $247 reversed single #
convexity-sys-attrib $-1 $-1 $89 $58 #
point $-1 15 0 -20 #
model_id-kcp-attrib $-1 $-1 $-1 $93 1 990663937 80 1699741698 6 #
face $248 $249 $250 $19 $-1 $251 reversed single #
loop $-1 $-1 $252 $93 #
plane-surface $-1 -40 0 0 1 0 0 0 0 -1 forward_v I I I I #
coedge $-1 $253 $163 $254 $255 forward $94 $-1 #
coedge $-1 $256 $96 $253 $257 forward $62 $-1 #
coedge $-1 $96 $256 $258 $259 forward $62 $-1 #
coedge $-1 $166 $165 $96 $159 reversed $167 $-1 #
edge $-1 $260 -40 $261 40 $158 $262 forward 7 unknown #
coedge $-1 $98 $97 $263 $264 forward $40 $-1 #
coedge $-1 $265 $266 $97 $162 reversed $250 $-1 #
edge $-1 $169 -40 $267 40 $161 $268 forward 7 unknown #
coedge $-1 $155 $269 $98 $164 reversed $94 $-1 #
edge $-1 $270 -40 $168 40 $163 $271 forward 7 unknown #
coedge $-1 $158 $99 $269 $272 forward $167 $-1 #
coedge $-1 $99 $158 $265 $273 reversed $167 $-1 #
loop $-1 $-1 $165 $249 #
vertex $-1 $100 $274 #
vertex $-1 $100 $275 #
straight-curve $-1 40 0 20 0 1 0 I I #
coedge $-1 $171 $171 $104 $172 forward $101 $-1 #
edge $-1 $276 0 $276 6.2831853071795862 $171 $277 forward 7 unknown #
vertex $-1 $105 $278 #
ellipse-curve $-1 0 0 -20 0 0 -1 15 0 0 1 I I #
face $-1 $279 $280 $23 $-1 $281 forward single #
loop $-1 $-1 $282 $106 #
plane-surface $-1 10 40 0 1 0 0 0 0 -1 forward_v I I I I #
coedge $-1 $283 $284 $285 $286 forward $107 $-1 #
coedge $-1 $287 $109 $284 $288 reversed $71 $-1 #
coedge $-1 $109 $287 $110 $184 forward $71 $-1 #
coedge $-1 $112 $285 $109 $182 reversed $188 $-1 #
edge $-1 $190 11.180339887498945 $289 40 $109 $290 forward 7 unknown #
coedge $-1 $111 $110 $291 $292 reversed $46 $-1 #
edge $-1 $293 0 $190 20 $180 $294 forward 7 unknown #
coedge $-1 $295 $296 $111 $186 reversed $297 $-1 #
edge $-1 $298 0 $189 20 $111 $299 forward 7 unknown #
coedge $-1 $300 $112 $296 $301 reversed $188 $-1 #
loop $-1 $-1 $112 $302 #
vertex $-1 $186 $303 #
vertex $-1 $184 $304 #
ellipse-curve $-1 0 0 20 0 0 -1 15 0 0 1 I I #
model_id-kcp-attrib $-1 $-1 $-1 $115 1 990663937 80 1699741697 7 #
face $305 $240 $232 $8 $-1 $195 forward single #
loop $306 $-1 $307 $115 #
plane-surface $-1 0 0 0 0 0 1 1 0 0 forward_v I I I I #
model_id-kcp-attrib $-1 $-1 $-1 $116 1 990663937 80 1699741697 28 #
coedge $-1 $127 $308 $129 $222 forward $116 $-1 #
coedge $-1 $213 $118 $309 $310 forward $76 $-1 #
edge $311 $133 -20 $312 0 $118 $313 forward 7 unknown #
coedge $-1 $120 $119 $314 $315 reversed $51 $-1 #
coedge $-1 $135 $316 $119 $202 forward $227 $-1 #
edge $-1 $317 -40 $208 -11.180339887498949 $201 $318 forward 7 unknown #
coedge $-1 $319 $307 $120 $204 reversed $194 $-1 #
edge $-1 $320 -40 $207 -11.180339887498949 $120 $321 forward 7 unknown #
coedge $-1 $130 $121 $307 $322 reversed $36 $-1 #
attrib_edge_convexity-kcp-attrib $-1 $323 $-1 $122 1 #
vertex $-1 $204 $324 #
vertex $-1 $202 $325 #
straight-curve $-1 10 11.180339887498949 0 0 0 1 I I #
coedge $-1 $126 $123 $326 $327 forward $33 $-1 #
coedge $-1 $328 $329 $123 $212 reversed $330 $-1 #
edge $331 $215 10 $332 40 $211 $333 forward 7 unknown #
coedge $-1 $124 $198 $328 $334 reversed $76 $-1 #
attrib_edge_convexity-kcp-attrib $-1 $335 $-1 $125 1 #
vertex $-1 $334 $336 #
straight-curve $-1 -10 0 20 0 1 0 I I #
coedge $-1 $337 $338 $126 $218 reversed $339 $-1 #
edge $340 $341 -40 $221 -10 $217 $342 forward 7 unknown #
coedge $-1 $308 $127 $338 $343 reversed $116 $-1 #
attrib_edge_convexity-kcp-attrib $-1 $344 $-1 $128 1 #
vertex $-1 $218 $345 #
edge $346 $234 0 $132 20 $197 $347 forward 7 unknown #
convexity-sys-attrib $-1 $-1 $131 $83 #
point $-1 -10 -11.180339887498949 20 #
point $-1 -10 11.180339887498949 20 #
coedge $-1 $348 $135 $140 $238 forward $227 $-1 #
loop $349 $-1 $135 $350 #
attrib_edge_convexity-kcp-attrib $-1 $351 $-1 $136 1 #
ellipse-curve $-1 0 0 20 0 0 -1 15 0 0 1 I I #
coedge $-1 $352 $137 $308 $353 reversed $232 $-1 #
coedge $-1 $137 $352 $139 $237 reversed $232 $-1 #
loop $354 $-1 $137 $193 #
attrib_edge_convexity-kcp-attrib $-1 $355 $-1 $138 1 #
vertex $-1 $353 $356 #
ellipse-curve $-1 0 0 0 0 0 -1 15 0 0 1 I I #
coedge $-1 $140 $139 $357 $358 reversed $141 $-1 #
edge $-1 $144 11.180339887498949 $359 40 $139 $321 forward 7 unknown #
edge $-1 $143 11.180339887498949 $360 40 $226 $318 forward 7 unknown #
model_id-kcp-attrib $-1 $-1 $-1 $141 1 990663937 80 1699741697 22 #
face $361 $362 $141 $8 $-1 $52 forward single #
convexity-sys-attrib $-1 $-1 $142 $87 #
point $-1 10 -11.180339887498949 20 #
point $-1 10 -11.180339887498949 0 #
coedge $-1 $363 $364 $365 $366 forward $147 $-1 #
model_id-kcp-attrib $-1 $367 $-1 $148 1 990663937 80 1699741697 16 #
face $368 $369 $370 $8 $-1 $371 reversed single #
plane-surface $-1 0 0 -20 0 0 1 1 0 0 forward_v I I I I #
model_id-kcp-attrib $-1 $-1 $-1 $152 1 990663937 80 1699741698 7 #
face $372 $-1 $167 $19 $-1 $373 reversed single #
loop $-1 $-1 $265 $152 #
plane-surface $-1 0 40 0 0 -1 0 0 0 -1 forward_v I I I I #
coedge $-1 $374 $263 $266 $375 forward $153 $-1 #
coedge $-1 $269 $155 $156 $257 reversed $94 $-1 #
coedge $-1 $263 $374 $155 $255 reversed $153 $-1 #
edge $-1 $270 -20 $376 20 $254 $377 forward 7 unknown #
coedge $-1 $157 $156 $374 $378 forward $62 $-1 #
edge $-1 $261 -40 $376 40 $253 $379 forward 7 unknown #
coedge $-1 $266 $265 $157 $259 reversed $250 $-1 #
edge $-1 $380 -40 $260 40 $258 $381 forward 7 unknown #
vertex $-1 $159 $382 #
vertex $-1 $272 $383 #
straight-curve $-1 40 0 -20 0 -1 0 I I #
coedge $-1 $252 $254 $160 $264 reversed $153 $-1 #
edge $-1 $267 -40 $270 40 $263 $384 forward 7 unknown #
coedge $-1 $258 $161 $166 $273 forward $250 $-1 #
coedge $-1 $161 $258 $252 $375 reversed $250 $-1 #
vertex $-1 $162 $385 #
straight-curve $-1 0 40 20 -1 0 0 I I #
coedge $-1 $163 $253 $165 $272 reversed $94 $-1 #
vertex $-1 $264 $386 #
straight-curve $-1 0 -40 20 1 0 0 I I #
edge $-1 $168 -20 $261 20 $165 $387 forward 7 unknown #
edge $-1 $169 -20 $260 20 $166 $388 forward 7 unknown #
point $-1 40 -40 20 #
point $-1 40 40 20 #
vertex $-1 $172 $389 #
ellipse-curve $-1 0 0 20 0 0 1 15 0 0 1 I I #
point $-1 15 0 -20 #
face $-1 $390 $391 $23 $-1 $392 forward single #
loop $-1 $-1 $393 $175 #
cone-surface $-1 0 0 0 0 0 1 15 0 0 1 I I 0 1 15 forward I I I I #
coedge $-1 $394 $395 $396 $397 forward $176 $-1 #
coedge $-1 $398 $178 $395 $399 reversed $107 $-1 #
coedge $-1 $178 $398 $179 $288 forward $107 $-1 #
coedge $-1 $181 $396 $178 $286 reversed $188 $-1 #
edge $-1 $289 -10 $400 10 $178 $401 forward 7 unknown #
coedge $-1 $180 $179 $402 $403 reversed $71 $-1 #
edge $-1 $404 0 $289 20 $284 $405 forward 7 unknown #
vertex $-1 $288 $406 #
straight-curve $-1 -10 0 20 0 1 0 I I #
coedge $-1 $402 $407 $183 $292 forward $408 $-1 #
edge $409 $298 2.3005239830218631 $293 3.9826613241577231 $183 $410 forward 7 unknown #
vertex $-1 $292 $411 #
straight-curve $-1 -10 11.180339887498945 0 0 0 1 I I #
coedge $-1 $412 $185 $407 $413 reversed $297 $-1 #
coedge $-1 $185 $412 $187 $301 forward $297 $-1 #
loop $-1 $-1 $296 $414 #
vertex $-1 $413 $415 #
straight-curve $-1 -10 -11.180339887498949 0 0 0 1 I I #
coedge $-1 $416 $187 $417 $418 reversed $188 $-1 #
edge $-1 $419 -40 $189 -11.180339887498949 $296 $420 forward 7 unknown #
face $-1 $421 $188 $23 $-1 $422 forward single #
point $-1 -10 -11.180339887498949 20 #
point $-1 -10 11.180339887498945 20 #
model_id-kcp-attrib $-1 $-1 $-1 $193 1 990663937 80 1699741697 8 #
model_id-kcp-attrib $-1 $-1 $-1 $194 1 990663937 80 1699741697 25 #
coedge $-1 $203 $309 $205 $322 forward $194 $-1 #
coedge $-1 $197 $219 $230 $353 forward $116 $-1 #
coedge $-1 $307 $319 $198 $310 reversed $194 $-1 #
edge $-1 $312 11.180339887498949 $423 40 $198 $424 forward 7 unknown #
attrib_edge_convexity-kcp-attrib $-1 $425 $-1 $199 1 #
vertex $-1 $322 $426 #
straight-curve $-1 -10 11.180339887498949 0 0 0 -1 I I #
coedge $-1 $427 $428 $200 $315 forward $330 $-1 #
edge $-1 $320 -5 $317 15 $314 $429 forward 7 unknown #
coedge $-1 $201 $430 $427 $431 forward $227 $-1 #
vertex $-1 $431 $432 #
straight-curve $-1 10 0 20 0 -1 0 I I #
coedge $-1 $309 $203 $428 $433 reversed $194 $-1 #
vertex $-1 $433 $434 #
straight-curve $-1 10 0 0 0 -1 0 I I #
edge $435 $312 -2.3005239830218631 $207 -0.84106867056793033 $307 $235 forward 7 unknown #
convexity-sys-attrib $-1 $-1 $206 $122 #
point $-1 10 11.180339887498949 0 #
point $-1 10 11.180339887498949 20 #
coedge $-1 $436 $437 $210 $327 reversed $370 $-1 #
edge $438 $332 -40 $341 40 $326 $439 forward 7 unknown #
coedge $-1 $428 $211 $213 $334 forward $330 $-1 #
coedge $-1 $211 $440 $436 $441 reversed $330 $-1 #
loop $-1 $-1 $314 $369 #
attrib_edge_convexity-kcp-attrib $-1 $442 $-1 $212 1 #
vertex $-1 $212 $443 #
straight-curve $-1 0 40 20 -1 0 0 I I #
edge $-1 $215 -15 $423 5 $328 $444 forward 7 unknown #
convexity-sys-attrib $-1 $-1 $214 $125 #
point $-1 -10 40 20 #
coedge $-1 $445 $217 $437 $446 forward $339 $-1 #
coedge $-1 $217 $447 $219 $343 forward $339 $-1 #
loop $-1 $-1 $357 $362 #
attrib_edge_convexity-kcp-attrib $-1 $448 $-1 $218 1 #
vertex $-1 $327 $449 #
straight-curve $-1 0 -40 20 1 0 0 I I #
edge $450 $451 -5 $221 15 $338 $452 forward 7 unknown #
convexity-sys-attrib $-1 $-1 $220 $128 #
point $-1 -10 -40 20 #
attrib_edge_convexity-kcp-attrib $-1 $453 $-1 $222 1 #
straight-curve $-1 -10 -11.180339887498949 0 0 0 1 I I #
coedge $-1 $430 $226 $454 $455 forward $227 $-1 #
model_id-kcp-attrib $-1 $-1 $-1 $227 1 990663937 80 1699741697 23 #
face $456 $148 $227 $8 $-1 $34 forward single #
convexity-sys-attrib $-1 $-1 $228 $136 #
coedge $-1 $231 $230 $447 $457 reversed $232 $-1 #
edge $-1 $451 -40 $234 -11.180339887498949 $308 $424 forward 7 unknown #
model_id-kcp-attrib $-1 $-1 $-1 $232 1 990663937 80 1699741697 29 #
convexity-sys-attrib $-1 $-1 $233 $138 #
point $-1 -10 -11.180339887498949 0 #
coedge $-1 $447 $454 $236 $358 forward $339 $-1 #
edge $458 $360 -15 $359 5 $357 $459 forward 7 unknown #
vertex $-1 $457 $460 #
vertex $-1 $238 $461 #
model_id-kcp-attrib $-1 $-1 $-1 $240 1 990663937 80 1699741697 9 #
face $462 $350 $339 $8 $-1 $463 reversed single #
coedge $-1 $464 $244 $445 $465 forward $147 $-1 #
coedge $-1 $244 $464 $440 $466 forward $147 $-1 #
coedge $-1 $467 $468 $244 $366 reversed $469 $-1 #
edge $-1 $470 -40 $471 40 $365 $472 forward 7 unknown #
model_id-kcp-attrib $-1 $-1 $245 $148 1 990663937 80 1699741697 12 #
model_id-kcp-attrib $-1 $-1 $-1 $246 1 990663937 80 1699741697 13 #
face $473 $474 $330 $8 $-1 $475 reversed single #
loop $-1 $-1 $436 $246 #
plane-surface $-1 -40 0 0 1 0 0 0 0 -1 forward_v I I I I #
model_id-kcp-attrib $-1 $-1 $-1 $249 1 990663937 80 1699741698 8 #
plane-surface $-1 40 0 0 -1 0 0 0 0 1 forward_v I I I I #
coedge $-1 $254 $252 $256 $378 reversed $153 $-1 #
edge $-1 $267 -20 $380 20 $266 $476 forward 7 unknown #
vertex $-1 $378 $477 #
straight-curve $-1 -40 -40 0 0 0 -1 I I #
edge $-1 $376 -40 $380 40 $374 $478 forward 7 unknown #
straight-curve $-1 0 -40 -20 -1 0 0 I I #
vertex $-1 $259 $479 #
straight-curve $-1 0 40 -20 1 0 0 I I #
point $-1 40 40 -20 #
point $-1 40 -40 -20 #
straight-curve $-1 -40 0 20 0 -1 0 I I #
point $-1 -40 40 20 #
point $-1 -40 -40 20 #
straight-curve $-1 40 -40 0 0 0 -1 I I #
straight-curve $-1 40 40 0 0 0 -1 I I #
point $-1 15 0 20 #
face $-1 $414 $480 $23 $-1 $481 forward single #
loop $-1 $-1 $482 $279 #
plane-surface $-1 10 -11.180339887498949 0 1 0 0 0 0 -1 forward_v I I I I #
coedge $-1 $483 $484 $485 $486 forward $280 $-1 #
coedge $-1 $487 $282 $484 $488 reversed $176 $-1 #
coedge $-1 $282 $487 $283 $399 forward $176 $-1 #
coedge $-1 $285 $485 $282 $397 reversed $188 $-1 #
edge $-1 $400 -40 $489 -11.180339887498945 $282 $490 forward 7 unknown #
coedge $-1 $284 $283 $491 $492 reversed $107 $-1 #
edge $-1 $493 0 $400 20 $395 $494 forward 7 unknown #
vertex $-1 $399 $495 #
straight-curve $-1 0 40 20 1 0 0 I I #
coedge $-1 $491 $291 $287 $403 forward $408 $-1 #
edge $496 $293 11.180339887498949 $404 40 $287 $497 forward 7 unknown #
vertex $-1 $403 $498 #
straight-curve $-1 -10 40 0 0 0 1 I I #
point $-1 -10 40 20 #
coedge $-1 $291 $499 $295 $413 forward $408 $-1 #
loop $-1 $-1 $407 $421 #
convexity-sys-attrib $-1 $-1 $-1 $292 #
ellipse-curve $-1 0 0 0 0 0 -1 15 0 0 1 I I #
point $-1 -10 11.180339887498949 0 #
coedge $-1 $296 $295 $500 $501 forward $297 $-1 #
edge $502 $503 -40 $298 -11.180339887498949 $295 $504 forward 7 unknown #
face $-1 $302 $297 $23 $-1 $505 forward single #
point $-1 -10 -11.180339887498949 0 #
coedge $-1 $485 $300 $482 $506 reversed $188 $-1 #
coedge $-1 $500 $507 $300 $418 forward $480 $-1 #
edge $-1 $508 -10 $419 10 $417 $509 forward 7 unknown #
vertex $-1 $501 $510 #
straight-curve $-1 -10 0 20 0 1 0 I I #
face $-1 $-1 $408 $23 $-1 $511 reversed single #
plane-surface $-1 4.4408920985006262e-016 -5.9413745254287591e-017 20 0 0 1 1 0 0 forward_v I I I I #
vertex $-1 $433 $512 #
straight-curve $-1 -10 0 0 0 1 0 I I #
convexity-sys-attrib $-1 $-1 $311 $199 #
point $-1 -10 11.180339887498949 0 #
coedge $-1 $513 $314 $316 $431 reversed $330 $-1 #
coedge $-1 $314 $328 $319 $433 forward $330 $-1 #
straight-curve $-1 10 40 5 0 0 1 I I #
coedge $-1 $316 $348 $514 $515 forward $227 $-1 #
edge $-1 $516 -40 $317 -10 $427 $333 forward 7 unknown #
point $-1 10 40 20 #
edge $-1 $423 -10 $320 10 $428 $517 forward 7 unknown #
point $-1 10 40 0 #
attrib_edge_convexity-kcp-attrib $-1 $518 $-1 $322 1 #
coedge $-1 $519 $326 $329 $441 forward $370 $-1 #
coedge $-1 $326 $519 $337 $446 reversed $370 $-1 #
attrib_edge_convexity-kcp-attrib $-1 $520 $-1 $327 1 #
straight-curve $-1 -40 0 20 0 -1 0 I I #
coedge $-1 $329 $513 $364 $466 reversed $330 $-1 #
edge $521 $332 -20 $522 20 $329 $523 forward 7 unknown #
convexity-sys-attrib $-1 $-1 $331 $212 #
point $-1 -40 40 20 #
straight-curve $-1 -10 40 5 0 0 -1 I I #
coedge $-1 $524 $337 $363 $465 reversed $339 $-1 #
edge $525 $341 -20 $526 20 $437 $527 forward 7 unknown #
coedge $-1 $338 $357 $352 $457 forward $339 $-1 #
convexity-sys-attrib $-1 $-1 $340 $218 #
point $-1 -40 -40 20 #
attrib_edge_convexity-kcp-attrib $-1 $528 $-1 $343 1 #
vertex $-1 $457 $529 #
straight-curve $-1 -10 -40 5 0 0 1 I I #
convexity-sys-attrib $-1 $-1 $346 $222 #
coedge $-1 $357 $524 $348 $455 reversed $339 $-1 #
edge $530 $360 10 $531 40 $454 $342 forward 7 unknown #
model_id-kcp-attrib $-1 $532 $-1 $350 1 990663937 80 1699741697 17 #
edge $533 $359 -10 $451 10 $447 $534 forward 7 unknown #
attrib_edge_convexity-kcp-attrib $-1 $535 $-1 $358 1 #
straight-curve $-1 10 -40 5 0 0 -1 I I #
point $-1 10 -40 0 #
point $-1 10 -40 20 #
model_id-kcp-attrib $-1 $-1 $-1 $362 1 990663937 80 1699741697 10 #
plane-surface $-1 0 -40 0 0 1 0 0 0 1 forward_v I I I I #
coedge $-1 $364 $363 $519 $536 forward $147 $-1 #
edge $537 $471 -40 $526 40 $445 $538 forward 7 unknown #
edge $-1 $522 -40 $470 40 $440 $539 forward 7 unknown #
coedge $-1 $514 $365 $513 $540 reversed $469 $-1 #
coedge $-1 $365 $514 $524 $541 forward $469 $-1 #
loop $-1 $-1 $468 $474 #
vertex $-1 $366 $542 #
vertex $-1 $541 $543 #
straight-curve $-1 40 0 -20 0 -1 0 I I #
model_id-kcp-attrib $-1 $-1 $-1 $369 1 990663937 80 1699741697 14 #
face $544 $-1 $469 $8 $-1 $545 reversed single #
plane-surface $-1 0 40 0 0 -1 0 0 0 -1 forward_v I I I I #
straight-curve $-1 -40 40 0 0 0 -1 I I #
point $-1 -40 -40 -20 #
straight-curve $-1 -40 0 -20 0 1 0 I I #
point $-1 -40 40 -20 #
loop $-1 $-1 $417 $390 #
plane-surface $-1 10 -40 0 0 -1 0 0 0 -1 forward_v I I I I #
coedge $-1 $546 $547 $416 $506 forward $391 $-1 #
coedge $-1 $548 $393 $547 $549 reversed $280 $-1 #
coedge $-1 $393 $548 $394 $488 forward $280 $-1 #
coedge $-1 $396 $416 $393 $486 reversed $188 $-1 #
edge $-1 $489 -0.84106867056793011 $550 0.84106867056793033 $393 $551 forward 7 unknown #
coedge $-1 $395 $394 $552 $553 reversed $176 $-1 #
edge $-1 $554 0 $489 20 $484 $555 forward 7 unknown #
vertex $-1 $488 $556 #
straight-curve $-1 10 0 20 0 -1 0 I I #
coedge $-1 $552 $402 $398 $492 forward $408 $-1 #
edge $557 $404 -10 $493 10 $398 $558 forward 7 unknown #
vertex $-1 $492 $559 #
straight-curve $-1 10 40 0 0 0 1 I I #
point $-1 10 40 20 #
convexity-sys-attrib $-1 $-1 $-1 $403 #
straight-curve $-1 -10 0 0 0 1 0 I I #
point $-1 -10 40 0 #
coedge $-1 $407 $560 $561 $562 forward $408 $-1 #
coedge $-1 $561 $417 $412 $501 reversed $480 $-1 #
edge $-1 $503 0 $419 20 $412 $563 forward 7 unknown #
convexity-sys-attrib $-1 $-1 $-1 $413 #
vertex $-1 $413 $564 #
straight-curve $-1 -10 0 0 0 1 0 I I #
plane-surface $-1 -10 -40 0 -1 0 0 0 0 1 forward_v I I I I #
edge $-1 $550 11.180339887498949 $508 40 $482 $565 forward 7 unknown #
coedge $-1 $417 $561 $546 $566 forward $480 $-1 #
vertex $-1 $566 $567 #
straight-curve $-1 0 -40 20 -1 0 0 I I #
point $-1 -10 -40 20 #
plane-surface $-1 4.4408920985006262e-016 -5.9413745254287591e-017 0 0 0 1 1 0 0 forward_v I I I I #
point $-1 -10 40 0 #
coedge $-1 $440 $427 $467 $540 forward $330 $-1 #
coedge $-1 $468 $467 $430 $515 reversed $469 $-1 #
edge $-1 $531 -40 $516 40 $514 $568 forward 7 unknown #
vertex $-1 $515 $569 #
straight-curve $-1 0 40 0 1 0 0 I I #
convexity-sys-attrib $-1 $-1 $435 $322 #
coedge $-1 $437 $436 $464 $536 reversed $370 $-1 #
convexity-sys-attrib $-1 $-1 $438 $327 #
attrib_edge_convexity-kcp-attrib $-1 $570 $-1 $441 1 #
vertex $-1 $466 $571 #
straight-curve $-1 -40 40 0 0 0 -1 I I #
coedge $-1 $454 $445 $468 $541 reversed $339 $-1 #
attrib_edge_convexity-kcp-attrib $-1 $572 $-1 $446 1 #
vertex $-1 $536 $573 #
straight-curve $-1 -40 -40 0 0 0 -1 I I #
convexity-sys-attrib $-1 $-1 $450 $343 #
point $-1 -10 -40 0 #
attrib_edge_convexity-kcp-attrib $-1 $574 $-1 $455 1 #
vertex $-1 $515 $575 #
model_id-kcp-attrib $-1 $-1 $456 $350 1 990663937 80 1699741697 11 #
attrib_edge_convexity-kcp-attrib $-1 $576 $-1 $457 1 #
straight-curve $-1 0 -40 0 -1 0 0 I I #
convexity-sys-attrib $-1 $-1 $458 $358 #
edge $577 $526 -40 $522 40 $519 $578 forward 7 unknown #
attrib_edge_convexity-kcp-attrib $-1 $579 $-1 $465 1 #
straight-curve $-1 0 -40 -20 -1 0 0 I I #
straight-curve $-1 0 40 -20 1 0 0 I I #
edge $-1 $516 -20 $470 20 $467 $580 forward 7 unknown #
edge $581 $531 -20 $471 20 $468 $582 forward 7 unknown #
point $-1 40 40 -20 #
point $-1 40 -40 -20 #
model_id-kcp-attrib $-1 $-1 $-1 $474 1 990663937 80 1699741697 15 #
plane-surface $-1 40 0 0 -1 0 0 0 0 1 forward_v I I I I #
coedge $-1 $583 $482 $507 $566 reversed $391 $-1 #
coedge $-1 $482 $583 $483 $549 forward $391 $-1 #
coedge $-1 $484 $483 $584 $585 reversed $280 $-1 #
edge $-1 $586 0 $550 20 $547 $587 forward 7 unknown #
vertex $-1 $549 $588 #
ellipse-curve $-1 0 0 20 0 0 -1 15 0 0 1 I I #
coedge $-1 $584 $491 $487 $553 forward $408 $-1 #
edge $589 $493 -40 $554 -11.180339887498949 $487 $590 forward 7 unknown #
vertex $-1 $553 $591 #
straight-curve $-1 10 11.180339887498945 0 0 0 1 I I #
point $-1 10 11.180339887498945 20 #
convexity-sys-attrib $-1 $-1 $-1 $492 #
straight-curve $-1 0 40 0 1 0 0 I I #
point $-1 10 40 0 #
coedge $-1 $499 $584 $583 $592 forward $408 $-1 #
coedge $-1 $507 $500 $499 $562 reversed $480 $-1 #
edge $593 $594 -10 $503 10 $561 $595 forward 7 unknown #
straight-curve $-1 -10 -40 0 0 0 1 I I #
point $-1 -10 -40 0 #
straight-curve $-1 10 0 20 0 -1 0 I I #
edge $-1 $594 0 $508 20 $507 $596 forward 7 unknown #
point $-1 10 -40 20 #
straight-curve $-1 40 0 20 0 1 0 I I #
point $-1 40 40 20 #
convexity-sys-attrib $-1 $-1 $521 $441 #
point $-1 -40 40 -20 #
convexity-sys-attrib $-1 $-1 $525 $446 #
point $-1 -40 -40 -20 #
convexity-sys-attrib $-1 $-1 $530 $455 #
point $-1 40 -40 20 #
convexity-sys-attrib $-1 $-1 $533 $457 #
attrib_edge_convexity-kcp-attrib $-1 $597 $-1 $536 1 #
straight-curve $-1 -40 0 -20 0 1 0 I I #
convexity-sys-attrib $-1 $-1 $537 $465 #
straight-curve $-1 40 40 0 0 0 -1 I I #
attrib_edge_convexity-kcp-attrib $-1 $598 $-1 $541 1 #
straight-curve $-1 40 -40 0 0 0 -1 I I #
coedge $-1 $547 $546 $560 $592 reversed $391 $-1 #
coedge $-1 $560 $552 $548 $585 forward $408 $-1 #
edge $599 $554 -0.84106867056793033 $586 0.84106867056793033 $548 $600 forward 7 unknown #
vertex $-1 $585 $601 #
straight-curve $-1 10 -11.180339887498949 0 0 0 1 I I #
point $-1 10 -11.180339887498949 20 #
convexity-sys-attrib $-1 $-1 $-1 $553 #
straight-curve $-1 10 0 0 0 -1 0 I I #
point $-1 10 11.180339887498949 0 #
edge $602 $586 11.180339887498949 $594 40 $583 $603 forward 7 unknown #
convexity-sys-attrib $-1 $-1 $-1 $562 #
vertex $-1 $592 $604 #
straight-curve $-1 0 -40 0 -1 0 0 I I #
straight-curve $-1 10 -40 0 0 0 1 I I #
convexity-sys-attrib $-1 $-1 $577 $536 #
convexity-sys-attrib $-1 $-1 $581 $541 #
convexity-sys-attrib $-1 $-1 $-1 $585 #
ellipse-curve $-1 0 0 0 0 0 -1 15 0 0 1 I I #
point $-1 10 -11.180339887498949 0 #
convexity-sys-attrib $-1 $-1 $-1 $592 #
straight-curve $-1 10 0 0 0 -1 0 I I #
point $-1 10 -40 0 #
End-of-ACIS-data 