600 0 1 0           
81 GICL ACIS Healer - Source: /gicl/data5/repository/Heriot_Watt/ex10/ex10.sat - 6 0 18 ACIS 6.0.3 Solaris 24 Sat Apr 13 23:39:08 2002 
1 9.999999999999999547e-07 1.000000000000000036e-10 
body $-1 $1 $-1 $-1 #
lump $-1 $-1 $2 $0 #
shell $-1 $-1 $-1 $3 $-1 $1 #
face $-1 $4 $5 $2 $-1 $6 reversed single #
face $-1 $7 $8 $2 $-1 $9 forward single #
loop $-1 $10 $11 $3 #
cone-surface $-1 0 0 0 0 0 1 15 0 0 1 I I 0 1 15 forward I I I I #
face $-1 $12 $13 $2 $-1 $14 forward single #
loop $-1 $-1 $15 $4 #
plane-surface $-1 0 0 20 0 0 1 1 0 0 forward_v I I I I #
loop $-1 $-1 $16 $3 #
coedge $-1 $11 $11 $17 $18 reversed $5 $-1 #
face $-1 $19 $20 $2 $-1 $21 forward single #
loop $-1 $-1 $22 $7 #
plane-surface $-1 10 0 10 -1 0 0 0 0 1 forward_v I I I I #
coedge $-1 $23 $24 $25 $26 forward $8 $-1 #
coedge $-1 $27 $28 $29 $30 reversed $10 $-1 #
coedge $-1 $17 $17 $11 $18 forward $31 $-1 #
edge $-1 $32 0 $32 6.283185307179586232 $17 $33 forward 7 unknown #
face $-1 $34 $35 $2 $-1 $21 forward single #
loop $-1 $-1 $36 $12 #
plane-surface $-1 -10 0 10 1 0 0 0 0 -1 forward_v I I I I #
coedge $-1 $37 $38 $39 $40 forward $13 $-1 #
coedge $-1 $41 $15 $42 $43 forward $8 $-1 #
coedge $-1 $15 $44 $45 $46 forward $8 $-1 #
coedge $-1 $47 $48 $15 $26 reversed $10 $-1 #
edge $-1 $49 2.300523983021863117 $50 3.982661324157723115 $15 $51 forward 7 unknown #
coedge $-1 $39 $16 $52 $53 reversed $10 $-1 #
coedge $-1 $16 $47 $54 $55 reversed $10 $-1 #
coedge $-1 $56 $57 $16 $30 forward $58 $-1 #
edge $-1 $59 -20 $60 0 $29 $61 forward 7 unknown #
loop $-1 $62 $17 $63 #
vertex $-1 $18 $64 #
ellipse-curve $-1 0 0 -20 0 0 1 15 0 0 1 I I #
face $-1 $65 $66 $2 $-1 $67 forward single #
loop $-1 $-1 $68 $19 #
coedge $-1 $69 $42 $48 $70 forward $20 $-1 #
coedge $-1 $71 $22 $72 $73 reversed $13 $-1 #
coedge $-1 $22 $71 $74 $75 forward $13 $-1 #
coedge $-1 $76 $27 $22 $40 reversed $10 $-1 #
edge $-1 $77 0 $78 20 $22 $79 forward 7 unknown #
coedge $-1 $80 $23 $81 $82 forward $8 $-1 #
coedge $-1 $36 $83 $23 $43 reversed $20 $-1 #
edge $-1 $50 11.18033988749894903 $84 40 $23 $85 forward 7 unknown #
coedge $-1 $24 $80 $86 $87 forward $8 $-1 #
coedge $-1 $88 $68 $24 $46 reversed $35 $-1 #
edge $-1 $89 -40 $49 -11.18033988749894903 $24 $85 forward 7 unknown #
coedge $-1 $28 $25 $68 $90 reversed $10 $-1 #
coedge $-1 $25 $76 $36 $70 reversed $10 $-1 #
vertex $-1 $46 $91 #
vertex $-1 $70 $92 #
ellipse-curve $-1 0 0 20 0 0 -1 15 0 0 1 I I #
coedge $-1 $93 $72 $27 $53 forward $94 $-1 #
edge $-1 $78 -0.8410686705679303321 $59 0.8410686705679303321 $52 $95 forward 7 unknown #
coedge $-1 $96 $97 $28 $55 forward $98 $-1 #
edge $-1 $60 0.8410686705679303321 $99 2.300523983021863117 $54 $100 forward 7 unknown #
coedge $-1 $101 $29 $97 $102 forward $58 $-1 #
coedge $-1 $29 $101 $93 $103 reversed $58 $-1 #
loop $-1 $-1 $29 $104 #
vertex $-1 $30 $105 #
vertex $-1 $30 $106 #
straight-curve $-1 10 -11.18033988749894903 0 0 0 -1 I I #
loop $-1 $-1 $107 $63 #
face $-1 $108 $31 $2 $-1 $109 reversed single #
point $-1 15 0 -20 #
face $-1 $104 $98 $2 $-1 $67 forward single #
loop $-1 $-1 $110 $34 #
plane-surface $-1 0 0 0 0 0 1 1 0 0 forward_v I I I I #
coedge $-1 $45 $111 $47 $90 forward $35 $-1 #
coedge $-1 $83 $36 $112 $113 forward $20 $-1 #
edge $-1 $50 -20 $114 0 $36 $115 forward 7 unknown #
coedge $-1 $38 $37 $116 $117 reversed $13 $-1 #
coedge $-1 $52 $118 $37 $73 forward $94 $-1 #
edge $-1 $119 -40 $78 -11.18033988749894903 $72 $120 forward 7 unknown #
coedge $-1 $121 $110 $38 $75 reversed $66 $-1 #
edge $-1 $122 -40 $77 -11.18033988749894903 $38 $123 forward 7 unknown #
coedge $-1 $48 $39 $110 $124 reversed $10 $-1 #
vertex $-1 $75 $125 #
vertex $-1 $73 $126 #
straight-curve $-1 10 11.18033988749894903 0 0 0 1 I I #
coedge $-1 $44 $41 $127 $128 forward $8 $-1 #
coedge $-1 $129 $130 $41 $82 reversed $131 $-1 #
edge $-1 $84 10 $132 40 $81 $133 forward 7 unknown #
coedge $-1 $42 $69 $129 $134 reversed $20 $-1 #
vertex $-1 $134 $135 #
straight-curve $-1 -10 0 20 0 1 0 I I #
coedge $-1 $136 $137 $44 $87 reversed $138 $-1 #
edge $-1 $139 -40 $89 -10 $86 $140 forward 7 unknown #
coedge $-1 $111 $45 $137 $141 reversed $35 $-1 #
vertex $-1 $87 $142 #
edge $-1 $99 0 $49 20 $68 $143 forward 7 unknown #
point $-1 -10 -11.18033988749894903 20 #
point $-1 -10 11.18033988749894903 20 #
coedge $-1 $144 $52 $57 $103 forward $94 $-1 #
loop $-1 $-1 $52 $145 #
ellipse-curve $-1 0 0 20 0 0 -1 15 0 0 1 I I #
coedge $-1 $146 $54 $111 $147 reversed $98 $-1 #
coedge $-1 $54 $146 $56 $102 reversed $98 $-1 #
loop $-1 $-1 $54 $65 #
vertex $-1 $147 $148 #
ellipse-curve $-1 0 0 0 0 0 -1 15 0 0 1 I I #
coedge $-1 $57 $56 $149 $150 reversed $58 $-1 #
edge $-1 $60 11.18033988749894903 $151 40 $56 $123 forward 7 unknown #
edge $-1 $59 11.18033988749894903 $152 40 $93 $120 forward 7 unknown #
face $-1 $153 $58 $2 $-1 $14 forward single #
point $-1 10 -11.18033988749894903 20 #
point $-1 10 -11.18033988749894903 0 #
coedge $-1 $154 $155 $156 $157 forward $62 $-1 #
face $-1 $158 $159 $2 $-1 $160 reversed single #
plane-surface $-1 0 0 -20 0 0 1 1 0 0 forward_v I I I I #
coedge $-1 $74 $112 $76 $124 forward $66 $-1 #
coedge $-1 $68 $88 $96 $147 forward $35 $-1 #
coedge $-1 $110 $121 $69 $113 reversed $66 $-1 #
edge $-1 $114 11.18033988749894903 $161 40 $69 $162 forward 7 unknown #
vertex $-1 $124 $163 #
straight-curve $-1 -10 11.18033988749894903 0 0 0 -1 I I #
coedge $-1 $164 $165 $71 $117 forward $131 $-1 #
edge $-1 $122 -5 $119 15 $116 $166 forward 7 unknown #
coedge $-1 $72 $167 $164 $168 forward $94 $-1 #
vertex $-1 $168 $169 #
straight-curve $-1 10 0 20 0 -1 0 I I #
coedge $-1 $112 $74 $165 $170 reversed $66 $-1 #
vertex $-1 $170 $171 #
straight-curve $-1 10 0 0 0 -1 0 I I #
edge $-1 $114 -2.300523983021863117 $77 -0.8410686705679303321 $110 $100 forward 7 unknown #
point $-1 10 11.18033988749894903 0 #
point $-1 10 11.18033988749894903 20 #
coedge $-1 $172 $173 $80 $128 reversed $159 $-1 #
edge $-1 $132 -40 $139 40 $127 $174 forward 7 unknown #
coedge $-1 $165 $81 $83 $134 forward $131 $-1 #
coedge $-1 $81 $175 $172 $176 reversed $131 $-1 #
loop $-1 $-1 $116 $158 #
vertex $-1 $82 $177 #
straight-curve $-1 0 40 20 -1 0 0 I I #
edge $-1 $84 -15 $161 5 $129 $178 forward 7 unknown #
point $-1 -10 40 20 #
coedge $-1 $179 $86 $173 $180 forward $138 $-1 #
coedge $-1 $86 $181 $88 $141 forward $138 $-1 #
loop $-1 $-1 $149 $153 #
vertex $-1 $128 $182 #
straight-curve $-1 0 -40 20 1 0 0 I I #
edge $-1 $183 -5 $89 15 $137 $184 forward 7 unknown #
point $-1 -10 -40 20 #
straight-curve $-1 -10 -11.18033988749894903 0 0 0 1 I I #
coedge $-1 $167 $93 $185 $186 forward $94 $-1 #
face $-1 $63 $94 $2 $-1 $9 forward single #
coedge $-1 $97 $96 $181 $187 reversed $98 $-1 #
edge $-1 $183 -40 $99 -11.18033988749894903 $111 $162 forward 7 unknown #
point $-1 -10 -11.18033988749894903 0 #
coedge $-1 $181 $185 $101 $150 forward $138 $-1 #
edge $-1 $152 -15 $151 5 $149 $188 forward 7 unknown #
vertex $-1 $187 $189 #
vertex $-1 $103 $190 #
face $-1 $145 $138 $2 $-1 $191 reversed single #
coedge $-1 $192 $107 $179 $193 forward $62 $-1 #
coedge $-1 $107 $192 $175 $194 forward $62 $-1 #
coedge $-1 $195 $196 $107 $157 reversed $197 $-1 #
edge $-1 $198 -40 $199 40 $156 $200 forward 7 unknown #
face $-1 $201 $131 $2 $-1 $202 reversed single #
loop $-1 $-1 $172 $108 #
plane-surface $-1 -40 0 0 1 0 0 0 0 -1 forward_v I I I I #
vertex $-1 $170 $203 #
straight-curve $-1 -10 0 0 0 1 0 I I #
point $-1 -10 11.18033988749894903 0 #
coedge $-1 $204 $116 $118 $168 reversed $131 $-1 #
coedge $-1 $116 $129 $121 $170 forward $131 $-1 #
straight-curve $-1 10 40 5 0 0 1 I I #
coedge $-1 $118 $144 $205 $206 forward $94 $-1 #
edge $-1 $207 -40 $119 -10 $164 $133 forward 7 unknown #
point $-1 10 40 20 #
edge $-1 $161 -10 $122 10 $165 $208 forward 7 unknown #
point $-1 10 40 0 #
coedge $-1 $209 $127 $130 $176 forward $159 $-1 #
coedge $-1 $127 $209 $136 $180 reversed $159 $-1 #
straight-curve $-1 -40 0 20 0 -1 0 I I #
coedge $-1 $130 $204 $155 $194 reversed $131 $-1 #
edge $-1 $132 -20 $210 20 $130 $211 forward 7 unknown #
point $-1 -40 40 20 #
straight-curve $-1 -10 40 5 0 0 -1 I I #
coedge $-1 $212 $136 $154 $193 reversed $138 $-1 #
edge $-1 $139 -20 $213 20 $173 $214 forward 7 unknown #
coedge $-1 $137 $149 $146 $187 forward $138 $-1 #
point $-1 -40 -40 20 #
vertex $-1 $187 $215 #
straight-curve $-1 -10 -40 5 0 0 1 I I #
coedge $-1 $149 $212 $144 $186 reversed $138 $-1 #
edge $-1 $152 10 $216 40 $185 $140 forward 7 unknown #
edge $-1 $151 -10 $183 10 $181 $217 forward 7 unknown #
straight-curve $-1 10 -40 5 0 0 -1 I I #
point $-1 10 -40 0 #
point $-1 10 -40 20 #
plane-surface $-1 0 -40 0 0 1 0 0 0 1 forward_v I I I I #
coedge $-1 $155 $154 $209 $218 forward $62 $-1 #
edge $-1 $199 -40 $213 40 $179 $219 forward 7 unknown #
edge $-1 $210 -40 $198 40 $175 $220 forward 7 unknown #
coedge $-1 $205 $156 $204 $221 reversed $197 $-1 #
coedge $-1 $156 $205 $212 $222 forward $197 $-1 #
loop $-1 $-1 $196 $201 #
vertex $-1 $157 $223 #
vertex $-1 $222 $224 #
straight-curve $-1 40 0 -20 0 -1 0 I I #
face $-1 $-1 $197 $2 $-1 $225 reversed single #
plane-surface $-1 0 40 0 0 -1 0 0 0 -1 forward_v I I I I #
point $-1 -10 40 0 #
coedge $-1 $175 $164 $195 $221 forward $131 $-1 #
coedge $-1 $196 $195 $167 $206 reversed $197 $-1 #
edge $-1 $216 -40 $207 40 $205 $226 forward 7 unknown #
vertex $-1 $206 $227 #
straight-curve $-1 0 40 0 1 0 0 I I #
coedge $-1 $173 $172 $192 $218 reversed $159 $-1 #
vertex $-1 $194 $228 #
straight-curve $-1 -40 40 0 0 0 -1 I I #
coedge $-1 $185 $179 $196 $222 reversed $138 $-1 #
vertex $-1 $218 $229 #
straight-curve $-1 -40 -40 0 0 0 -1 I I #
point $-1 -10 -40 0 #
vertex $-1 $206 $230 #
straight-curve $-1 0 -40 0 -1 0 0 I I #
edge $-1 $213 -40 $210 40 $209 $231 forward 7 unknown #
straight-curve $-1 0 -40 -20 -1 0 0 I I #
straight-curve $-1 0 40 -20 1 0 0 I I #
edge $-1 $207 -20 $198 20 $195 $232 forward 7 unknown #
edge $-1 $216 -20 $199 20 $196 $233 forward 7 unknown #
point $-1 40 40 -20 #
point $-1 40 -40 -20 #
plane-surface $-1 40 0 0 -1 0 0 0 0 1 forward_v I I I I #
straight-curve $-1 40 0 20 0 1 0 I I #
point $-1 40 40 20 #
point $-1 -40 40 -20 #
point $-1 -40 -40 -20 #
point $-1 40 -40 20 #
straight-curve $-1 -40 0 -20 0 1 0 I I #
straight-curve $-1 40 40 0 0 0 -1 I I #
straight-curve $-1 40 -40 0 0 0 -1 I I #
End-of-ACIS-data 