106 0 1 0           
body $-1 $1 $-1 $-1 #
lump $-1 $-1 $2 $0 #
shell $-1 $-1 $-1 $3 $1 #
face $-1 $4 $5 $2 $-1 $6 reversed single #
face $-1 $7 $8 $2 $-1 $9 forward single #
loop $-1 $10 $11 $3 #
cone-surface $-1 0 0 0 0 0 1 15 0 0 1 I I 0 1 0 I I I I #
face $-1 $12 $13 $2 $-1 $14 forward single #
loop $-1 $-1 $15 $4 #
plane-surface $-1 0 0 20 0 0 1 1 0 0 0 I I I I #
loop $-1 $-1 $16 $3 #
coedge $-1 $11 $11 $17 $18 1 $5 $-1 #
face $-1 $19 $20 $2 $-1 $21 forward single #
loop $-1 $-1 $22 $7 #
plane-surface $-1 10 0 10 -1 0 0 0 0 1 0 I I I I #
coedge $-1 $23 $24 $25 $26 0 $8 $-1 #
coedge $-1 $27 $28 $29 $30 1 $10 $-1 #
coedge $-1 $17 $17 $11 $18 0 $31 $-1 #
edge $-1 $32 $32 $17 $33 0 #
face $-1 $34 $35 $2 $-1 $21 forward single #
loop $-1 $-1 $36 $12 #
plane-surface $-1 -10 0 10 1 0 0 0 0 -1 0 I I I I #
coedge $-1 $37 $38 $39 $40 0 $13 $-1 #
coedge $-1 $41 $15 $42 $43 0 $8 $-1 #
coedge $-1 $15 $44 $45 $46 0 $8 $-1 #
coedge $-1 $47 $48 $15 $26 1 $10 $-1 #
edge $-1 $49 $50 $15 $51 0 #
coedge $-1 $39 $16 $52 $53 1 $10 $-1 #
coedge $-1 $16 $47 $54 $55 1 $10 $-1 #
coedge $-1 $56 $57 $16 $30 0 $58 $-1 #
edge $-1 $59 $60 $29 $61 0 #
loop $-1 $62 $17 $63 #
vertex $-1 $18 $64 #
ellipse-curve $-1 0 0 -20 0 0 1 15 0 0 1 I I #
face $-1 $65 $66 $2 $-1 $67 forward single #
loop $-1 $-1 $68 $19 #
coedge $-1 $69 $42 $48 $70 0 $20 $-1 #
coedge $-1 $71 $22 $72 $73 1 $13 $-1 #
coedge $-1 $22 $71 $74 $75 0 $13 $-1 #
coedge $-1 $76 $27 $22 $40 1 $10 $-1 #
edge $-1 $77 $78 $22 $79 0 #
coedge $-1 $80 $23 $81 $82 0 $8 $-1 #
coedge $-1 $36 $83 $23 $43 1 $20 $-1 #
edge $-1 $50 $84 $23 $85 0 #
coedge $-1 $24 $80 $86 $87 0 $8 $-1 #
coedge $-1 $88 $68 $24 $46 1 $35 $-1 #
edge $-1 $89 $49 $24 $85 0 #
coedge $-1 $28 $25 $68 $90 1 $10 $-1 #
coedge $-1 $25 $76 $36 $70 1 $10 $-1 #
vertex $-1 $46 $91 #
vertex $-1 $70 $92 #
ellipse-curve $-1 0 0 20 0 0 -1 15 0 0 1 I I #
coedge $-1 $93 $72 $27 $53 0 $94 $-1 #
edge $-1 $78 $59 $52 $95 0 #
coedge $-1 $96 $97 $28 $55 0 $98 $-1 #
edge $-1 $60 $99 $54 $100 0 #
coedge $-1 $101 $29 $97 $102 0 $58 $-1 #
coedge $-1 $29 $101 $93 $103 1 $58 $-1 #
loop $-1 $-1 $29 $104 #
vertex $-1 $30 $105 #
vertex $-1 $30 $106 #
straight-curve $-1 10 -11.180339887498949 0 0 0 -1 I I #
loop $-1 $-1 $107 $63 #
face $-1 $108 $31 $2 $-1 $109 reversed single #
point $-1 15 0 -20 #
face $-1 $104 $98 $2 $-1 $67 forward single #
loop $-1 $-1 $110 $34 #
plane-surface $-1 0 0 0 0 0 1 1 0 0 0 I I I I #
coedge $-1 $45 $111 $47 $90 0 $35 $-1 #
coedge $-1 $83 $36 $112 $113 0 $20 $-1 #
edge $-1 $50 $114 $36 $115 0 #
coedge $-1 $38 $37 $116 $117 1 $13 $-1 #
coedge $-1 $52 $118 $37 $73 0 $94 $-1 #
edge $-1 $119 $78 $72 $120 0 #
coedge $-1 $121 $110 $38 $75 1 $66 $-1 #
edge $-1 $122 $77 $38 $123 0 #
coedge $-1 $48 $39 $110 $124 1 $10 $-1 #
vertex $-1 $75 $125 #
vertex $-1 $73 $126 #
straight-curve $-1 10 11.180339887498949 0 0 0 1 I I #
coedge $-1 $44 $41 $127 $128 0 $8 $-1 #
coedge $-1 $129 $130 $41 $82 1 $131 $-1 #
edge $-1 $84 $132 $81 $133 0 #
coedge $-1 $42 $69 $129 $134 1 $20 $-1 #
vertex $-1 $134 $135 #
straight-curve $-1 -10 0 20 0 1 0 I I #
coedge $-1 $136 $137 $44 $87 1 $138 $-1 #
edge $-1 $139 $89 $86 $140 0 #
coedge $-1 $111 $45 $137 $141 1 $35 $-1 #
vertex $-1 $87 $142 #
edge $-1 $99 $49 $68 $143 0 #
point $-1 -10 -11.180339887498949 20 #
point $-1 -10 11.180339887498949 20 #
coedge $-1 $144 $52 $57 $103 0 $94 $-1 #
loop $-1 $-1 $52 $145 #
ellipse-curve $-1 0 0 20 0 0 -1 15 0 0 1 I I #
coedge $-1 $146 $54 $111 $147 1 $98 $-1 #
coedge $-1 $54 $146 $56 $102 1 $98 $-1 #
loop $-1 $-1 $54 $65 #
vertex $-1 $147 $148 #
ellipse-curve $-1 0 0 0 0 0 -1 15 0 0 1 I I #
coedge $-1 $57 $56 $149 $150 1 $58 $-1 #
edge $-1 $60 $151 $56 $123 0 #
edge $-1 $59 $152 $93 $120 0 #
face $-1 $153 $58 $2 $-1 $14 forward single #
point $-1 10 -11.180339887498949 20 #
point $-1 10 -11.180339887498949 0 #
coedge $-1 $154 $155 $156 $157 0 $62 $-1 #
face $-1 $158 $159 $2 $-1 $160 reversed single #
plane-surface $-1 0 0 -20 0 0 1 1 0 0 0 I I I I #
coedge $-1 $74 $112 $76 $124 0 $66 $-1 #
coedge $-1 $68 $88 $96 $147 0 $35 $-1 #
coedge $-1 $110 $121 $69 $113 1 $66 $-1 #
edge $-1 $114 $161 $69 $162 0 #
vertex $-1 $124 $163 #
straight-curve $-1 -10 11.180339887498949 0 0 0 -1 I I #
coedge $-1 $164 $165 $71 $117 0 $131 $-1 #
edge $-1 $122 $119 $116 $166 0 #
coedge $-1 $72 $167 $164 $168 0 $94 $-1 #
vertex $-1 $168 $169 #
straight-curve $-1 10 0 20 0 -1 0 I I #
coedge $-1 $112 $74 $165 $170 1 $66 $-1 #
vertex $-1 $170 $171 #
straight-curve $-1 10 0 0 0 -1 0 I I #
edge $-1 $114 $77 $110 $100 0 #
point $-1 10 11.180339887498949 0 #
point $-1 10 11.180339887498949 20 #
coedge $-1 $172 $173 $80 $128 1 $159 $-1 #
edge $-1 $132 $139 $127 $174 0 #
coedge $-1 $165 $81 $83 $134 0 $131 $-1 #
coedge $-1 $81 $175 $172 $176 1 $131 $-1 #
loop $-1 $-1 $116 $158 #
vertex $-1 $82 $177 #
straight-curve $-1 0 40 20 -1 0 0 I I #
edge $-1 $84 $161 $129 $178 0 #
point $-1 -10 40 20 #
coedge $-1 $179 $86 $173 $180 0 $138 $-1 #
coedge $-1 $86 $181 $88 $141 0 $138 $-1 #
loop $-1 $-1 $149 $153 #
vertex $-1 $128 $182 #
straight-curve $-1 0 -40 20 1 0 0 I I #
edge $-1 $183 $89 $137 $184 0 #
point $-1 -10 -40 20 #
straight-curve $-1 -10 -11.180339887498949 0 0 0 1 I I #
coedge $-1 $167 $93 $185 $186 0 $94 $-1 #
face $-1 $63 $94 $2 $-1 $9 forward single #
coedge $-1 $97 $96 $181 $187 1 $98 $-1 #
edge $-1 $183 $99 $111 $162 0 #
point $-1 -10 -11.180339887498949 0 #
coedge $-1 $181 $185 $101 $150 0 $138 $-1 #
edge $-1 $152 $151 $149 $188 0 #
vertex $-1 $187 $189 #
vertex $-1 $103 $190 #
face $-1 $145 $138 $2 $-1 $191 reversed single #
coedge $-1 $192 $107 $179 $193 0 $62 $-1 #
coedge $-1 $107 $192 $175 $194 0 $62 $-1 #
coedge $-1 $195 $196 $107 $157 1 $197 $-1 #
edge $-1 $198 $199 $156 $200 0 #
face $-1 $201 $131 $2 $-1 $202 reversed single #
loop $-1 $-1 $172 $108 #
plane-surface $-1 -40 0 0 1 0 0 0 0 -1 0 I I I I #
vertex $-1 $170 $203 #
straight-curve $-1 -10 0 0 0 1 0 I I #
point $-1 -10 11.180339887498949 0 #
coedge $-1 $204 $116 $118 $168 1 $131 $-1 #
coedge $-1 $116 $129 $121 $170 0 $131 $-1 #
straight-curve $-1 10 40 5 0 0 1 I I #
coedge $-1 $118 $144 $205 $206 0 $94 $-1 #
edge $-1 $207 $119 $164 $133 0 #
point $-1 10 40 20 #
edge $-1 $161 $122 $165 $208 0 #
point $-1 10 40 0 #
coedge $-1 $209 $127 $130 $176 0 $159 $-1 #
coedge $-1 $127 $209 $136 $180 1 $159 $-1 #
straight-curve $-1 -40 0 20 0 -1 0 I I #
coedge $-1 $130 $204 $155 $194 1 $131 $-1 #
edge $-1 $132 $210 $130 $211 0 #
point $-1 -40 40 20 #
straight-curve $-1 -10 40 5 0 0 -1 I I #
coedge $-1 $212 $136 $154 $193 1 $138 $-1 #
edge $-1 $139 $213 $173 $214 0 #
coedge $-1 $137 $149 $146 $187 0 $138 $-1 #
point $-1 -40 -40 20 #
vertex $-1 $187 $215 #
straight-curve $-1 -10 -40 5 0 0 1 I I #
coedge $-1 $149 $212 $144 $186 1 $138 $-1 #
edge $-1 $152 $216 $185 $140 0 #
edge $-1 $151 $183 $181 $217 0 #
straight-curve $-1 10 -40 5 0 0 -1 I I #
point $-1 10 -40 0 #
point $-1 10 -40 20 #
plane-surface $-1 0 -40 0 0 1 0 0 0 1 0 I I I I #
coedge $-1 $155 $154 $209 $218 0 $62 $-1 #
edge $-1 $199 $213 $179 $219 0 #
edge $-1 $210 $198 $175 $220 0 #
coedge $-1 $205 $156 $204 $221 1 $197 $-1 #
coedge $-1 $156 $205 $212 $222 0 $197 $-1 #
loop $-1 $-1 $196 $201 #
vertex $-1 $157 $223 #
vertex $-1 $222 $224 #
straight-curve $-1 40 0 -20 0 -1 0 I I #
face $-1 $-1 $197 $2 $-1 $225 reversed single #
plane-surface $-1 0 40 0 0 -1 0 0 0 -1 0 I I I I #
point $-1 -10 40 0 #
coedge $-1 $175 $164 $195 $221 0 $131 $-1 #
coedge $-1 $196 $195 $167 $206 1 $197 $-1 #
edge $-1 $216 $207 $205 $226 0 #
vertex $-1 $206 $227 #
straight-curve $-1 0 40 0 1 0 0 I I #
coedge $-1 $173 $172 $192 $218 1 $159 $-1 #
vertex $-1 $194 $228 #
straight-curve $-1 -40 40 0 0 0 -1 I I #
coedge $-1 $185 $179 $196 $222 1 $138 $-1 #
vertex $-1 $218 $229 #
straight-curve $-1 -40 -40 0 0 0 -1 I I #
point $-1 -10 -40 0 #
vertex $-1 $206 $230 #
straight-curve $-1 0 -40 0 -1 0 0 I I #
edge $-1 $213 $210 $209 $231 0 #
straight-curve $-1 0 -40 -20 -1 0 0 I I #
straight-curve $-1 0 40 -20 1 0 0 I I #
edge $-1 $207 $198 $195 $232 0 #
edge $-1 $216 $199 $196 $233 0 #
point $-1 40 40 -20 #
point $-1 40 -40 -20 #
plane-surface $-1 40 0 0 -1 0 0 0 0 1 0 I I I I #
straight-curve $-1 40 0 20 0 1 0 I I #
point $-1 40 40 20 #
point $-1 -40 40 -20 #
point $-1 -40 -40 -20 #
point $-1 40 -40 20 #
straight-curve $-1 -40 0 -20 0 1 0 I I #
straight-curve $-1 40 40 0 0 0 -1 I I #
straight-curve $-1 40 -40 0 0 0 -1 I I #
End-of-ACIS-data 