600 0 1 0           
119 GICL ACIS Healer - Source: /gicl/data5/repository/UMD/tmp/bottomless_pocket1-pocket/bottomless_pocket1-pocket.sat - 6 0 18 ACIS 6.0.3 Solaris 24 Sun Apr 14 00:34:16 2002 
1 9.999999999999999547e-07 1.000000000000000036e-10 
body $-1 $1 $-1 $-1 #
lump $-1 $-1 $2 $0 #
shell $-1 $-1 $-1 $3 $-1 $1 #
face $-1 $4 $5 $2 $-1 $6 forward single #
face $-1 $7 $8 $2 $-1 $9 reversed single #
loop $-1 $-1 $10 $3 #
cone-surface $-1 -5.999999999999950262 14.00000000000004974 47.5 0 0 -1 -4.24264068711928477 4.24264068711928477 0 1 I I 0 1 5.999999999999999112 forward I I I I #
face $-1 $11 $12 $2 $-1 $13 forward single #
loop $-1 $-1 $14 $4 #
plane-surface $-1 -11.99999999999995026 -5 47.5 1 0 0 0 0 -1.5 forward_v I I I I #
coedge $-1 $15 $16 $17 $18 forward $5 $-1 #
face $-1 $19 $20 $2 $-1 $21 reversed single #
loop $-1 $-1 $22 $7 #
cone-surface $-1 -5.999999999999950262 -14 47.5 -0 -0 -1 -4.24264068711928477 -4.24264068711928477 0 1 I I 0 1 5.999999999999999112 forward I I I I #
coedge $-1 $23 $17 $24 $25 reversed $8 $-1 #
coedge $-1 $26 $10 $27 $28 forward $5 $-1 #
coedge $-1 $10 $26 $29 $30 forward $5 $-1 #
coedge $-1 $14 $31 $10 $18 reversed $8 $-1 #
edge $-1 $32 -25 $33 25 $17 $34 forward 7 unknown #
face $-1 $35 $36 $2 $-1 $37 reversed single #
loop $-1 $-1 $38 $11 #
plane-surface $-1 20 -20 47.5 0 1 0 0 0 1.5 forward_v I I I I #
coedge $-1 $39 $40 $41 $42 forward $12 $-1 #
coedge $-1 $31 $14 $43 $44 reversed $8 $-1 #
coedge $-1 $29 $45 $14 $25 forward $36 $-1 #
edge $-1 $46 -6 $32 12.66666666666669983 $14 $47 forward 7 unknown #
coedge $-1 $16 $15 $48 $49 forward $5 $-1 #
coedge $-1 $50 $51 $15 $28 reversed $52 $-1 #
edge $-1 $33 -0.785398163397448279 $53 0.785398163397448279 $27 $54 forward 7 unknown #
coedge $-1 $55 $24 $16 $30 reversed $36 $-1 #
edge $-1 $56 -0.785398163397448279 $32 0.785398163397448279 $29 $57 forward 7 unknown #
coedge $-1 $17 $23 $50 $58 reversed $8 $-1 #
vertex $-1 $25 $59 #
vertex $-1 $18 $60 #
straight-curve $-1 -11.99999999999995026 14.00000000000004974 47.5 0 0 1.5 I I #
face $-1 $61 $62 $2 $-1 $63 reversed single #
loop $-1 $-1 $64 $19 #
plane-surface $-1 20 -5 10 0 0 1 1.5 0 0 forward_v I I I I #
coedge $-1 $65 $41 $64 $66 reversed $20 $-1 #
coedge $-1 $43 $22 $67 $68 forward $12 $-1 #
coedge $-1 $22 $43 $45 $69 forward $12 $-1 #
coedge $-1 $38 $70 $22 $42 reversed $20 $-1 #
edge $-1 $71 -25 $72 25 $41 $73 forward 7 unknown #
coedge $-1 $40 $39 $23 $44 forward $12 $-1 #
edge $-1 $74 -25 $46 25 $23 $75 forward 7 unknown #
coedge $-1 $24 $64 $40 $69 reversed $36 $-1 #
vertex $-1 $44 $76 #
straight-curve $-1 -11.99999999999995026 -5 10 0 1.5 0 I I #
coedge $-1 $77 $78 $26 $49 reversed $62 $-1 #
edge $-1 $53 -25 $56 25 $48 $79 forward 7 unknown #
coedge $-1 $67 $27 $31 $58 forward $52 $-1 #
coedge $-1 $27 $80 $77 $81 forward $52 $-1 #
loop $-1 $-1 $82 $83 #
vertex $-1 $81 $84 #
ellipse-curve $-1 -5.999999999999950262 14.00000000000004974 85 -0 -0 -1 -4.24264068711928477 4.24264068711928477 0 1 I I #
coedge $-1 $85 $29 $78 $86 reversed $36 $-1 #
vertex $-1 $30 $87 #
ellipse-curve $-1 -5.999999999999950262 14.00000000000004974 10 0 0 1 -4.24264068711928477 4.24264068711928477 0 1 I I #
edge $-1 $33 -6.000000000000031086 $74 12.66666666666666963 $31 $88 forward 7 unknown #
point $-1 -11.99999999999995026 14.00000000000004974 10 #
point $-1 -11.99999999999995026 14.00000000000004974 85 #
face $-1 $89 $90 $2 $-1 $91 forward single #
loop $-1 $-1 $78 $35 #
plane-surface $-1 20 20.00000000000004974 47.5 0 -1 0 0 0 -1.5 forward_v I I I I #
coedge $-1 $45 $92 $38 $66 forward $36 $-1 #
coedge $-1 $70 $38 $93 $94 reversed $20 $-1 #
edge $-1 $95 -6 $71 17.33333333333330017 $38 $96 forward 7 unknown #
coedge $-1 $82 $50 $39 $68 reversed $52 $-1 #
edge $-1 $72 -0.785398163397448279 $74 0.785398163397448279 $67 $97 forward 7 unknown #
edge $-1 $46 -0.785398163397448279 $71 0.785398163397448279 $45 $98 forward 7 unknown #
coedge $-1 $41 $65 $82 $99 forward $20 $-1 #
vertex $-1 $66 $100 #
vertex $-1 $68 $101 #
straight-curve $-1 -5.999999999999950262 -20 47.5 0 0 1.5 I I #
vertex $-1 $58 $102 #
straight-curve $-1 -11.99999999999995026 -14 47.5 0 0 -1.5 I I #
point $-1 -11.99999999999995026 -14 10 #
coedge $-1 $103 $48 $51 $81 reversed $62 $-1 #
coedge $-1 $48 $103 $55 $86 forward $62 $-1 #
straight-curve $-1 -5.999999999999950262 20.00000000000004974 47.5 0 0 -1.5 I I #
coedge $-1 $51 $104 $105 $106 reversed $52 $-1 #
edge $-1 $107 -6 $53 17.33333333333330017 $77 $108 forward 7 unknown #
coedge $-1 $109 $67 $70 $99 reversed $52 $-1 #
face $-1 $110 $52 $2 $-1 $111 forward single #
point $-1 -5.999999999999950262 20.00000000000004974 85 #
coedge $-1 $112 $55 $113 $114 reversed $36 $-1 #
edge $-1 $115 -6 $56 17.33333333333330017 $78 $116 reversed 7 unknown #
point $-1 -5.999999999999950262 20.00000000000004974 10 #
straight-curve $-1 -11.99999999999995026 5.000000000000003553 85 0 -1.5 0 I I #
face $-1 $83 $117 $2 $-1 $118 reversed single #
loop $-1 $-1 $119 $61 #
cone-surface $-1 29 14.00000000000004974 47.5 0 0 -1 4.24264068711928477 4.24264068711928477 0 1 I I 0 1 5.999999999999999112 forward I I I I #
coedge $-1 $64 $112 $120 $121 reversed $36 $-1 #
coedge $-1 $120 $122 $65 $94 forward $123 $-1 #
edge $-1 $124 -25 $95 25 $65 $125 forward 7 unknown #
vertex $-1 $121 $126 #
straight-curve $-1 20 -20 10 -1.5 0 0 I I #
ellipse-curve $-1 -5.999999999999950262 -14 85 -0 -0 -1 -4.24264068711928477 -4.24264068711928477 0 1 I I #
ellipse-curve $-1 -5.999999999999950262 -14 10 0 0 1 -4.24264068711928477 -4.24264068711928477 0 1 I I #
edge $-1 $124 -6 $72 17.33333333333330017 $70 $127 reversed 7 unknown #
point $-1 -5.999999999999950262 -20 10 #
point $-1 -5.999999999999950262 -20 85 #
point $-1 -11.99999999999995026 -14 85 #
coedge $-1 $78 $77 $119 $128 reversed $62 $-1 #
coedge $-1 $80 $109 $129 $130 forward $52 $-1 #
coedge $-1 $131 $119 $80 $106 forward $90 $-1 #
edge $-1 $107 -0.785398163397448279 $132 0.785398163397448279 $80 $133 forward 7 unknown #
vertex $-1 $106 $134 #
straight-curve $-1 20 20.00000000000004974 85 -1.5 0 0 I I #
coedge $-1 $104 $82 $122 $135 reversed $52 $-1 #
face $-1 $-1 $123 $2 $-1 $136 forward single #
plane-surface $-1 20 -5 85 0 0 1 1.5 0 0 forward_v I I I I #
coedge $-1 $92 $85 $137 $138 forward $36 $-1 #
coedge $-1 $119 $131 $85 $114 forward $90 $-1 #
edge $-1 $139 -0.785398163397448279 $115 0.785398163397448279 $85 $140 forward 7 unknown #
vertex $-1 $86 $141 #
straight-curve $-1 20 20.00000000000004974 10 1.5 0 0 I I #
loop $-1 $-1 $137 $89 #
plane-surface $-1 35 -5 47.5 -1 0 0 0 0 1.5 forward_v I I I I #
coedge $-1 $105 $113 $103 $128 forward $90 $-1 #
coedge $-1 $142 $93 $92 $121 forward $123 $-1 #
edge $-1 $95 -0.785398163397448279 $143 0.785398163397448279 $92 $144 forward 7 unknown #
coedge $-1 $93 $142 $109 $135 forward $123 $-1 #
loop $-1 $-1 $142 $110 #
vertex $-1 $99 $145 #
straight-curve $-1 29 -20 47.5 0 0 -1.5 I I #
point $-1 29 -20 10 #
straight-curve $-1 20 -20 85 1.5 0 0 I I #
edge $-1 $115 -25 $107 25 $103 $146 forward 7 unknown #
coedge $-1 $147 $148 $104 $130 reversed $117 $-1 #
edge $-1 $149 -6 $132 12.66666666666669983 $129 $150 forward 7 unknown #
coedge $-1 $113 $105 $148 $151 forward $90 $-1 #
vertex $-1 $130 $152 #
ellipse-curve $-1 29 14.00000000000004974 85 -0 -0 -1 4.24264068711928477 4.24264068711928477 0 1 I I #
point $-1 29 20.00000000000004974 85 #
edge $-1 $149 -0.785398163397448279 $124 0.785398163397448279 $109 $153 forward 7 unknown #
cone-surface $-1 29 -14 47.5 0 0 -1 4.24264068711928477 -4.24264068711928477 0 1 I I 0 1 5.999999999999999112 forward I I I I #
coedge $-1 $148 $147 $112 $138 reversed $117 $-1 #
edge $-1 $139 -6.000000000000031086 $143 12.66666666666666963 $137 $154 forward 7 unknown #
vertex $-1 $151 $155 #
ellipse-curve $-1 29 14.00000000000004974 10 0 0 1 4.24264068711928477 4.24264068711928477 0 1 I I #
point $-1 29 20.00000000000004974 10 #
coedge $-1 $122 $120 $147 $156 forward $123 $-1 #
vertex $-1 $138 $157 #
ellipse-curve $-1 29 -14 10 0 0 1 4.24264068711928477 -4.24264068711928477 0 1 I I #
point $-1 29 -20 85 #
straight-curve $-1 29 20.00000000000004974 47.5 0 0 1.5 I I #
coedge $-1 $137 $129 $142 $156 reversed $117 $-1 #
coedge $-1 $129 $137 $131 $151 reversed $117 $-1 #
vertex $-1 $156 $158 #
straight-curve $-1 35 -5 85 0 1.5 0 I I #
edge $-1 $132 -25 $139 25 $148 $159 forward 7 unknown #
point $-1 35 14.00000000000004974 85 #
ellipse-curve $-1 29 -14 85 -0 -0 -1 4.24264068711928477 -4.24264068711928477 0 1 I I #
straight-curve $-1 35 5.000000000000003553 10 0 -1.5 0 I I #
point $-1 35 14.00000000000004974 10 #
edge $-1 $143 -25 $149 25 $147 $160 forward 7 unknown #
point $-1 35 -14 10 #
point $-1 35 -14 85 #
straight-curve $-1 35 14.00000000000004974 47.5 0 0 -1.5 I I #
straight-curve $-1 35 -14 47.5 0 0 1.5 I I #
End-of-ACIS-data 