105 162 1 0                             
body $-1 $1 $-1 $2 #
lump $-1 $-1 $3 $0 #
transform $-1 1 0 0 0 1 0 0 0 1 20 -5 47.5 1.5 0 0 0 #
shell $-1 $-1 $-1 $4 $1 #
face $-1 $5 $6 $3 $-1 $7 forward single #
face $-1 $8 $9 $3 $-1 $10 reversed single #
loop $-1 $-1 $11 $4 #
cone-surface $-1 -17.3333333333333 12.6666666666667 0 0 0 -1 -2.82842712474619 2.82842712474619 0 1 0 1 0 #
face $-1 $12 $13 $3 $-1 $14 forward single #
loop $-1 $-1 $15 $5 #
plane-surface $-1 -21.3333333333333 0 0 1 0 0 0 0 -1 0 #
coedge $-1 $16 $17 $18 $19 0 $6 $-1 #
face $-1 $20 $21 $3 $-1 $22 reversed single #
loop $-1 $-1 $23 $8 #
cone-surface $-1 -17.3333333333333 -6 0 -0 -0 -1 -2.82842712474619 -2.82842712474619 0 1 0 1 0 #
coedge $-1 $24 $18 $25 $26 1 $9 $-1 #
coedge $-1 $27 $11 $28 $29 0 $6 $-1 #
coedge $-1 $11 $27 $30 $31 0 $6 $-1 #
coedge $-1 $15 $32 $11 $19 1 $9 $-1 #
edge $-1 $33 $34 $18 $35 0 #
face $-1 $36 $37 $3 $-1 $38 reversed single #
loop $-1 $-1 $39 $12 #
plane-surface $-1 0 -10 0 0 1 -0 -0 0 1 0 #
coedge $-1 $40 $41 $42 $43 0 $13 $-1 #
coedge $-1 $32 $15 $44 $45 1 $9 $-1 #
coedge $-1 $30 $46 $15 $26 0 $37 $-1 #
edge $-1 $47 $33 $15 $48 0 #
coedge $-1 $17 $16 $49 $50 0 $6 $-1 #
coedge $-1 $51 $52 $16 $29 1 $53 $-1 #
edge $-1 $34 $54 $28 $55 0 #
coedge $-1 $56 $25 $17 $31 1 $37 $-1 #
edge $-1 $57 $33 $30 $58 0 #
coedge $-1 $18 $24 $51 $59 1 $9 $-1 #
vertex $-1 $26 $60 #
vertex $-1 $19 $61 #
straight-curve $-1 -21.3333333333333 12.6666666666667 0 0 0 1 #
face $-1 $62 $63 $3 $-1 $64 reversed single #
loop $-1 $-1 $65 $20 #
plane-surface $-1 0 0 -25 0 0 1 1 0 0 0 #
coedge $-1 $66 $42 $65 $67 1 $21 $-1 #
coedge $-1 $44 $23 $68 $69 0 $13 $-1 #
coedge $-1 $23 $44 $46 $70 0 $13 $-1 #
coedge $-1 $39 $71 $23 $43 1 $21 $-1 #
edge $-1 $72 $73 $42 $74 0 #
coedge $-1 $41 $40 $24 $45 0 $13 $-1 #
edge $-1 $75 $47 $24 $76 0 #
coedge $-1 $25 $65 $41 $70 1 $37 $-1 #
vertex $-1 $45 $77 #
straight-curve $-1 -21.3333333333333 0 -25 0 1 0 #
coedge $-1 $78 $79 $27 $50 1 $63 $-1 #
edge $-1 $54 $57 $49 $80 0 #
coedge $-1 $68 $28 $32 $59 0 $53 $-1 #
coedge $-1 $28 $81 $78 $82 0 $53 $-1 #
loop $-1 $-1 $83 $84 #
vertex $-1 $82 $85 #
ellipse-curve $-1 -17.3333333333333 12.6666666666667 25 -0 -0 -1 -2.82842712474619 2.82842712474619 0 1 #
coedge $-1 $86 $30 $79 $87 1 $37 $-1 #
vertex $-1 $31 $88 #
ellipse-curve $-1 -17.3333333333333 12.6666666666667 -25 0 0 1 -2.82842712474619 2.82842712474619 0 1 #
edge $-1 $34 $75 $32 $89 0 #
point $-1 -21.3333333333333 12.6666666666667 -25 #
point $-1 -21.3333333333333 12.6666666666667 25 #
face $-1 $90 $91 $3 $-1 $92 forward single #
loop $-1 $-1 $79 $36 #
plane-surface $-1 0 16.6666666666667 0 0 -1 0 0 0 -1 0 #
coedge $-1 $46 $93 $39 $67 0 $37 $-1 #
coedge $-1 $71 $39 $94 $95 1 $21 $-1 #
edge $-1 $96 $72 $39 $97 0 #
coedge $-1 $83 $51 $40 $69 1 $53 $-1 #
edge $-1 $73 $75 $68 $98 0 #
edge $-1 $47 $72 $46 $99 0 #
coedge $-1 $42 $66 $83 $100 0 $21 $-1 #
vertex $-1 $67 $101 #
vertex $-1 $69 $102 #
straight-curve $-1 -17.3333333333333 -10 0 0 0 1 #
vertex $-1 $59 $103 #
straight-curve $-1 -21.3333333333333 -6 0 0 0 -1 #
point $-1 -21.3333333333333 -6 -25 #
coedge $-1 $104 $49 $52 $82 1 $63 $-1 #
coedge $-1 $49 $104 $56 $87 0 $63 $-1 #
straight-curve $-1 -17.3333333333333 16.6666666666667 0 0 0 -1 #
coedge $-1 $52 $105 $106 $107 1 $53 $-1 #
edge $-1 $108 $54 $78 $109 0 #
coedge $-1 $110 $68 $71 $100 1 $53 $-1 #
face $-1 $111 $53 $3 $-1 $112 forward single #
point $-1 -17.3333333333333 16.6666666666667 25 #
coedge $-1 $113 $56 $114 $115 1 $37 $-1 #
edge $-1 $116 $57 $79 $117 1 #
point $-1 -17.3333333333333 16.6666666666667 -25 #
straight-curve $-1 -21.3333333333333 6.66666666666667 25 0 -1 0 #
face $-1 $84 $118 $3 $-1 $119 reversed single #
loop $-1 $-1 $120 $62 #
cone-surface $-1 6 12.6666666666667 0 0 0 -1 2.82842712474619 2.82842712474619 0 1 0 1 0 #
coedge $-1 $65 $113 $121 $122 1 $37 $-1 #
coedge $-1 $121 $123 $66 $95 0 $124 $-1 #
edge $-1 $125 $96 $66 $126 0 #
vertex $-1 $122 $127 #
straight-curve $-1 0 -10 -25 -1 0 0 #
ellipse-curve $-1 -17.3333333333333 -6 25 -0 -0 -1 -2.82842712474619 -2.82842712474619 0 1 #
ellipse-curve $-1 -17.3333333333333 -6 -25 0 0 1 -2.82842712474619 -2.82842712474619 0 1 #
edge $-1 $125 $73 $71 $128 1 #
point $-1 -17.3333333333333 -10 -25 #
point $-1 -17.3333333333333 -10 25 #
point $-1 -21.3333333333333 -6 25 #
coedge $-1 $79 $78 $120 $129 1 $63 $-1 #
coedge $-1 $81 $110 $130 $131 0 $53 $-1 #
coedge $-1 $132 $120 $81 $107 0 $91 $-1 #
edge $-1 $108 $133 $81 $134 0 #
vertex $-1 $107 $135 #
straight-curve $-1 0 16.6666666666667 25 -1 0 0 #
coedge $-1 $105 $83 $123 $136 1 $53 $-1 #
face $-1 $-1 $124 $3 $-1 $137 forward single #
plane-surface $-1 0 0 25 0 0 1 1 0 0 0 #
coedge $-1 $93 $86 $138 $139 0 $37 $-1 #
coedge $-1 $120 $132 $86 $115 0 $91 $-1 #
edge $-1 $140 $116 $86 $141 0 #
vertex $-1 $87 $142 #
straight-curve $-1 0 16.6666666666667 -25 1 0 0 #
loop $-1 $-1 $138 $90 #
plane-surface $-1 10 0 0 -1 0 0 0 -0 1 0 #
coedge $-1 $106 $114 $104 $129 0 $91 $-1 #
coedge $-1 $143 $94 $93 $122 0 $124 $-1 #
edge $-1 $96 $144 $93 $145 0 #
coedge $-1 $94 $143 $110 $136 0 $124 $-1 #
loop $-1 $-1 $143 $111 #
vertex $-1 $100 $146 #
straight-curve $-1 6 -10 0 0 0 -1 #
point $-1 6 -10 -25 #
straight-curve $-1 0 -10 25 1 0 0 #
edge $-1 $116 $108 $104 $147 0 #
coedge $-1 $148 $149 $105 $131 1 $118 $-1 #
edge $-1 $150 $133 $130 $151 0 #
coedge $-1 $114 $106 $149 $152 0 $91 $-1 #
vertex $-1 $131 $153 #
ellipse-curve $-1 6 12.6666666666667 25 -0 -0 -1 2.82842712474619 2.82842712474619 0 1 #
point $-1 6 16.6666666666667 25 #
edge $-1 $150 $125 $110 $154 0 #
cone-surface $-1 6 -6 0 0 0 -1 2.82842712474619 -2.82842712474619 0 1 0 1 0 #
coedge $-1 $149 $148 $113 $139 1 $118 $-1 #
edge $-1 $140 $144 $138 $155 0 #
vertex $-1 $152 $156 #
ellipse-curve $-1 6 12.6666666666667 -25 0 0 1 2.82842712474619 2.82842712474619 0 1 #
point $-1 6 16.6666666666667 -25 #
coedge $-1 $123 $121 $148 $157 0 $124 $-1 #
vertex $-1 $139 $158 #
ellipse-curve $-1 6 -6 -25 0 0 1 2.82842712474619 -2.82842712474619 0 1 #
point $-1 6 -10 25 #
straight-curve $-1 6 16.6666666666667 0 0 0 1 #
coedge $-1 $138 $130 $143 $157 1 $118 $-1 #
coedge $-1 $130 $138 $132 $152 1 $118 $-1 #
vertex $-1 $157 $159 #
straight-curve $-1 10 0 25 0 1 0 #
edge $-1 $133 $140 $149 $160 0 #
point $-1 10 12.6666666666667 25 #
ellipse-curve $-1 6 -6 25 -0 -0 -1 2.82842712474619 -2.82842712474619 0 1 #
straight-curve $-1 10 6.66666666666667 -25 0 -1 0 #
point $-1 10 12.6666666666667 -25 #
edge $-1 $144 $150 $148 $161 0 #
point $-1 10 -6 -25 #
point $-1 10 -6 25 #
straight-curve $-1 10 12.6666666666667 0 0 0 -1 #
straight-curve $-1 10 -6 0 0 0 1 #
