600 0 2 0           
24 FBMach with ACIS - 6.0.3 13 ACIS 6.0.3 NT 24 Sun Mar 31 23:25:58 2002 
1 9.9999999999999995e-007 1e-010 
body $2 $3 $-1 $4 #
bdycol-kcp $-1 1 2 $5 $6 #
model_id-kcp-attrib $-1 $7 $-1 $0 1 1017635157 80 -1286602751 1 #
lump $-1 $-1 $8 $0 #
transform $-1 1 0 0 0 1 0 0 0 1 0 0 0 1 rotate no_reflect no_shear #
body $9 $10 $-1 $11 #
body $12 $13 $-1 $14 #
aggregate_advspl_attribute-aggregate_geombuild_base_attribute-aggregate_body_attribute-attrib_HH-attrib $-1 $15 $2 $0 F #
shell $-1 $-1 $-1 $16 $-1 $3 #
model_id-kcp-attrib $-1 $-1 $-1 $5 1 1017635157 80 -1286602750 1 #
lump $-1 $-1 $17 $5 #
transform $-1 1 0 0 0 1 0 0 0 1 11.500000000000025 2.4868995751603507e-014 47.5 1 no_rotate no_reflect no_shear #
rgb_color-st-attrib $-1 $18 $-1 $6 0.5 1 1 #
lump $-1 $19 $20 $6 #
transform $-1 1 0 0 0 1 0 0 0 1 11.500000000000025 2.4868995751603507e-014 47.5 1 no_rotate no_reflect no_shear #
aggregate_secndry_attribute-aggregate_geombuild_base_attribute-aggregate_body_attribute-attrib_HH-attrib $-1 $21 $7 $0 F #
face $22 $23 $24 $8 $-1 $25 forward single #
shell $-1 $-1 $-1 $26 $-1 $10 #
model_id-kcp-attrib $-1 $-1 $12 $6 1 1017635157 200 -1278738429 1 #
lump $-1 $27 $28 $6 #
shell $-1 $-1 $-1 $29 $-1 $13 #
aggregate_sharped_attribute-aggregate_geombuild_base_attribute-aggregate_body_attribute-attrib_HH-attrib $-1 $30 $15 $0 F #
model_id-kcp-attrib $-1 $31 $-1 $16 1 1017635157 80 -1286602751 2 #
face $32 $33 $34 $8 $-1 $35 reversed single #
loop $-1 $-1 $36 $16 #
cone-surface $-1 -5.9999999999999503 14.00000000000005 47.5 0 0 -1 -4.2426406871192848 4.2426406871192848 0 1 I I 0 1 5.9999999999999991 forward I I I I #
face $37 $38 $39 $17 $-1 $40 forward single #
lump $-1 $41 $42 $6 #
shell $-1 $-1 $-1 $43 $-1 $19 #
face $-1 $44 $45 $20 $-1 $46 reversed single #
aggregate_reblend_attribute-aggregate_geombuild_base_attribute-aggregate_body_attribute-attrib_HH-attrib $-1 $47 $21 $0 F #
attrib_hh_face_geombuild-attrib_entity_geombuild-individual_entity_attribute-attrib_HH-attrib $-1 $-1 $22 $16 F #
model_id-kcp-attrib $-1 $48 $-1 $23 1 1017635157 80 -1286602751 3 #
face $49 $50 $51 $8 $-1 $52 forward single #
loop $-1 $-1 $53 $23 #
plane-surface $-1 -11.99999999999995 -5 47.5 1 0 0 0 0 -1.5 forward_v I I I I #
coedge $54 $55 $56 $57 $58 forward $24 $-1 #
model_id-kcp-attrib $-1 $-1 $-1 $26 1 1017635157 80 -1286602750 7 #
face $59 $60 $61 $17 $-1 $62 reversed single #
loop $-1 $-1 $63 $26 #
plane-surface $-1 0 0 37.5 0 0 1 1 0 0 forward_v I I I I #
lump $-1 $-1 $64 $6 #
shell $-1 $-1 $-1 $65 $-1 $27 #
face $-1 $66 $67 $28 $-1 $68 reversed single #
face $-1 $69 $70 $20 $-1 $71 reversed single #
loop $-1 $-1 $72 $29 #
cone-surface $-1 -17.499999999999975 -14.000000000000025 -37.5 0 0 -1 0 -6 0 1 I I 0 1 6 forward I I I I #
aggregate_isospline_attribute-aggregate_geombuild_base_attribute-aggregate_body_attribute-attrib_HH-attrib $-1 $73 $30 $0 F #
attrib_hh_face_geombuild-attrib_entity_geombuild-individual_entity_attribute-attrib_HH-attrib $-1 $-1 $32 $23 F #
model_id-kcp-attrib $-1 $74 $-1 $33 1 1017635157 80 -1286602751 4 #
face $75 $76 $77 $8 $-1 $78 reversed single #
loop $-1 $-1 $79 $33 #
cone-surface $-1 -5.9999999999999503 -14 47.5 0 0 -1 -4.2426406871192848 -4.2426406871192848 0 1 I I 0 1 5.9999999999999991 forward I I I I #
coedge $80 $81 $57 $82 $83 reversed $34 $-1 #
attrib_hh_coedge_geombuild-attrib_entity_geombuild-individual_entity_attribute-attrib_HH-attrib $-1 $-1 $-1 $36 F #
coedge $84 $85 $36 $86 $87 forward $24 $-1 #
coedge $88 $36 $85 $89 $90 forward $24 $-1 #
coedge $91 $53 $92 $36 $58 reversed $34 $-1 #
edge $93 $94 -25 $95 25 $57 $96 forward 7 unknown #
model_id-kcp-attrib $-1 $-1 $-1 $38 1 1017635157 80 -1286602750 4 #
face $97 $98 $99 $17 $-1 $100 reversed single #
loop $-1 $-1 $101 $38 #
plane-surface $-1 0 0 -37.5 0 0 1 1 0 0 forward_v I I I I #
coedge $-1 $102 $103 $104 $105 forward $39 $-1 #
shell $-1 $-1 $-1 $106 $-1 $41 #
face $-1 $107 $108 $42 $-1 $109 reversed single #
face $-1 $110 $111 $28 $-1 $112 reversed single #
loop $-1 $-1 $113 $43 #
plane-surface $-1 0 20.000000000000025 0 0 -1 0 0 0 -1 forward_v I I I I #
face $-1 $114 $115 $20 $-1 $116 forward single #
loop $-1 $-1 $117 $44 #
plane-surface $-1 -23.499999999999975 0 0 1 0 0 0 0 -1 forward_v I I I I #
coedge $-1 $118 $119 $120 $121 reversed $45 $-1 #
aggregate_analytic_solver_attribute-aggregate_geombuild_base_attribute-aggregate_body_attribute-attrib_HH-attrib $-1 $122 $47 $0 F #
attrib_hh_face_geombuild-attrib_entity_geombuild-individual_entity_attribute-attrib_HH-attrib $-1 $-1 $49 $33 F #
model_id-kcp-attrib $-1 $123 $-1 $50 1 1017635157 80 -1286602751 5 #
face $124 $125 $126 $8 $-1 $127 reversed single #
loop $-1 $-1 $128 $50 #
plane-surface $-1 20 -20 47.5 0 1 0 0 0 1.5 forward_v I I I I #
coedge $129 $130 $131 $132 $133 forward $51 $-1 #
attrib_hh_coedge_geombuild-attrib_entity_geombuild-individual_entity_attribute-attrib_HH-attrib $-1 $-1 $-1 $53 F #
coedge $134 $92 $53 $135 $136 reversed $34 $-1 #
coedge $137 $89 $138 $53 $83 forward $126 $-1 #
edge $139 $140 -6 $94 12.6666666666667 $53 $141 forward 7 unknown #
attrib_hh_coedge_geombuild-attrib_entity_geombuild-individual_entity_attribute-attrib_HH-attrib $-1 $-1 $-1 $55 F #
coedge $142 $56 $55 $143 $144 forward $24 $-1 #
coedge $145 $146 $147 $55 $87 reversed $148 $-1 #
edge $149 $95 -0.78539816339744828 $150 0.78539816339744828 $86 $151 forward 7 unknown #
attrib_hh_coedge_geombuild-attrib_entity_geombuild-individual_entity_attribute-attrib_HH-attrib $-1 $-1 $-1 $56 F #
coedge $152 $153 $82 $56 $90 reversed $126 $-1 #
edge $154 $155 -0.78539816339744828 $94 0.78539816339744828 $89 $156 forward 7 unknown #
attrib_hh_coedge_geombuild-attrib_entity_geombuild-individual_entity_attribute-attrib_HH-attrib $-1 $-1 $-1 $57 F #
coedge $157 $57 $81 $146 $158 reversed $34 $-1 #
attrib_edge_convexity-kcp-attrib $-1 $159 $-1 $58 3 #
vertex $160 $83 $161 #
vertex $162 $58 $163 #
straight-curve $-1 -11.99999999999995 14.00000000000005 47.5 0 0 1.5 I I #
model_id-kcp-attrib $-1 $-1 $-1 $60 1 1017635157 80 -1286602750 3 #
face $164 $165 $166 $17 $-1 $167 reversed single #
loop $-1 $-1 $168 $60 #
plane-surface $-1 0 -20.000000000000025 0 0 1 0 0 0 1 forward_v I I I I #
coedge $-1 $169 $170 $171 $172 forward $61 $-1 #
coedge $-1 $173 $63 $174 $175 forward $39 $-1 #
coedge $-1 $63 $173 $176 $177 forward $39 $-1 #
coedge $-1 $178 $179 $63 $105 reversed $180 $-1 #
edge $-1 $181 -20.000000000000025 $182 20.000000000000025 $104 $183 forward 7 unknown #
face $-1 $184 $185 $64 $-1 $186 reversed single #
face $-1 $187 $188 $42 $-1 $71 reversed single #
loop $-1 $-1 $189 $65 #
cone-surface $-1 -17.499999999999975 14.000000000000025 -37.5 0 0 -1 -6 0 0 1 I I 0 1 6 forward I I I I #
face $-1 $190 $191 $28 $-1 $186 reversed single #
loop $-1 $-1 $192 $66 #
plane-surface $-1 0 0 -37.5 0 0 1 1 0 0 forward_v I I I I #
coedge $-1 $193 $194 $195 $196 reversed $67 $-1 #
face $-1 $197 $198 $20 $-1 $112 reversed single #
loop $-1 $-1 $120 $69 #
plane-surface $-1 0 0 37.5 0 0 1 1 0 0 forward_v I I I I #
coedge $-1 $199 $200 $119 $201 forward $70 $-1 #
coedge $-1 $202 $72 $203 $204 forward $45 $-1 #
coedge $-1 $72 $202 $117 $201 reversed $45 $-1 #
coedge $-1 $205 $206 $72 $121 forward $115 $-1 #
edge $-1 $207 0 $208 1.5707963267948966 $120 $209 forward 7 unknown #
aggregate_geombuild_attribute-aggregate_geombuild_base_attribute-aggregate_body_attribute-attrib_HH-attrib $-1 $210 $73 $0 #
attrib_hh_face_geombuild-attrib_entity_geombuild-individual_entity_attribute-attrib_HH-attrib $-1 $-1 $75 $50 F #
model_id-kcp-attrib $-1 $211 $-1 $76 1 1017635157 80 -1286602751 12 #
face $212 $213 $214 $8 $-1 $215 reversed single #
loop $-1 $-1 $216 $76 #
plane-surface $-1 20 -5 10 0 0 1 1.5 0 0 forward_v I I I I #
coedge $217 $218 $132 $216 $219 reversed $77 $-1 #
attrib_hh_coedge_geombuild-attrib_entity_geombuild-individual_entity_attribute-attrib_HH-attrib $-1 $-1 $-1 $79 F #
coedge $220 $135 $79 $221 $222 forward $51 $-1 #
coedge $223 $79 $135 $138 $224 forward $51 $-1 #
coedge $225 $128 $226 $79 $133 reversed $77 $-1 #
edge $227 $228 -25 $229 25 $132 $230 forward 7 unknown #
attrib_hh_coedge_geombuild-attrib_entity_geombuild-individual_entity_attribute-attrib_HH-attrib $-1 $-1 $-1 $81 F #
coedge $231 $131 $130 $81 $136 forward $51 $-1 #
edge $232 $233 -25 $140 25 $81 $234 forward 7 unknown #
attrib_hh_coedge_geombuild-attrib_entity_geombuild-individual_entity_attribute-attrib_HH-attrib $-1 $-1 $-1 $82 F #
coedge $235 $82 $216 $131 $224 reversed $126 $-1 #
attrib_edge_convexity-kcp-attrib $-1 $236 $-1 $83 1 #
vertex $237 $136 $238 #
straight-curve $-1 -11.99999999999995 -5 10 0 1.5 0 I I #
attrib_hh_coedge_geombuild-attrib_entity_geombuild-individual_entity_attribute-attrib_HH-attrib $-1 $-1 $-1 $85 F #
coedge $239 $240 $241 $85 $144 reversed $214 $-1 #
edge $242 $150 -25 $155 25 $143 $243 forward 7 unknown #
attrib_hh_coedge_geombuild-attrib_entity_geombuild-individual_entity_attribute-attrib_HH-attrib $-1 $-1 $-1 $86 F #
coedge $244 $221 $86 $92 $158 forward $148 $-1 #
coedge $245 $86 $246 $240 $247 forward $148 $-1 #
loop $-1 $-1 $248 $249 #
attrib_hh_edge_geombuild-attrib_entity_geombuild-individual_entity_attribute-attrib_HH-attrib $-1 $-1 $-1 $87 F #
vertex $250 $247 $251 #
ellipse-curve $-1 -5.9999999999999503 14.00000000000005 85 0 0 -1 -4.2426406871192848 4.2426406871192848 0 1 I I #
attrib_hh_coedge_geombuild-attrib_entity_geombuild-individual_entity_attribute-attrib_HH-attrib $-1 $-1 $-1 $89 F #
coedge $252 $253 $89 $241 $254 reversed $126 $-1 #
attrib_edge_convexity-kcp-attrib $-1 $255 $-1 $90 1 #
vertex $256 $90 $257 #
ellipse-curve $-1 -5.9999999999999503 14.00000000000005 10 0 0 1 -4.2426406871192848 4.2426406871192848 0 1 I I #
attrib_hh_coedge_geombuild-attrib_entity_geombuild-individual_entity_attribute-attrib_HH-attrib $-1 $-1 $-1 $92 F #
edge $258 $95 -6.0000000000000311 $233 12.66666666666667 $92 $259 forward 7 unknown #
convexity-sys-attrib $-1 $260 $93 $58 #
attrib_hh_vertex_geombuild-attrib_entity_geombuild-individual_entity_attribute-attrib_HH-attrib $-1 $-1 $-1 $94 F #
point $-1 -11.99999999999995 14.00000000000005 10 #
attrib_hh_vertex_geombuild-attrib_entity_geombuild-individual_entity_attribute-attrib_HH-attrib $-1 $-1 $-1 $95 F #
point $-1 -11.99999999999995 14.00000000000005 85 #
model_id-kcp-attrib $-1 $-1 $-1 $98 1 1017635157 80 -1286602750 2 #
face $261 $262 $263 $17 $-1 $264 reversed single #
loop $-1 $-1 $265 $98 #
plane-surface $-1 -23.499999999999975 0 0 1 0 0 0 0 -1 forward_v I I I I #
coedge $-1 $266 $176 $267 $268 forward $99 $-1 #
coedge $-1 $269 $101 $266 $270 forward $61 $-1 #
coedge $-1 $101 $269 $271 $272 forward $61 $-1 #
coedge $-1 $179 $178 $101 $172 reversed $180 $-1 #
edge $-1 $273 -20.000000000000025 $274 20.000000000000025 $171 $275 forward 7 unknown #
coedge $-1 $103 $102 $276 $277 forward $39 $-1 #
coedge $-1 $278 $279 $102 $175 reversed $263 $-1 #
edge $-1 $182 -23.499999999999975 $280 23.499999999999975 $174 $281 forward 7 unknown #
coedge $-1 $168 $282 $103 $177 reversed $99 $-1 #
edge $-1 $283 -23.499999999999975 $181 23.499999999999975 $176 $284 forward 7 unknown #
coedge $-1 $171 $104 $282 $285 forward $180 $-1 #
coedge $-1 $104 $171 $278 $286 reversed $180 $-1 #
loop $-1 $-1 $178 $262 #
vertex $-1 $105 $287 #
vertex $-1 $105 $288 #
straight-curve $-1 23.499999999999975 0 37.5 0 1 0 I I #
face $-1 $289 $290 $64 $-1 $112 reversed single #
loop $-1 $-1 $291 $106 #
plane-surface $-1 23.499999999999975 0 0 -1 0 0 0 0 1 forward_v I I I I #
face $-1 $292 $293 $42 $-1 $116 forward single #
loop $-1 $-1 $294 $107 #
coedge $-1 $295 $296 $297 $298 reversed $108 $-1 #
face $-1 $299 $300 $28 $-1 $116 forward single #
loop $-1 $-1 $301 $110 #
coedge $-1 $302 $303 $304 $305 forward $111 $-1 #
coedge $-1 $306 $113 $307 $308 reversed $67 $-1 #
coedge $-1 $113 $306 $302 $309 reversed $67 $-1 #
coedge $-1 $304 $310 $113 $196 forward $311 $-1 #
edge $-1 $312 -75 $313 0 $113 $314 forward 7 unknown #
face $-1 $-1 $315 $20 $-1 $316 reversed single #
loop $-1 $-1 $317 $114 #
coedge $-1 $318 $117 $319 $320 reversed $70 $-1 #
coedge $-1 $117 $318 $205 $321 reversed $70 $-1 #
edge $-1 $208 -75 $322 0 $117 $323 forward 7 unknown #
coedge $-1 $119 $118 $317 $324 reversed $45 $-1 #
coedge $-1 $325 $326 $118 $204 reversed $315 $-1 #
edge $-1 $207 -75 $327 0 $203 $328 forward 7 unknown #
coedge $-1 $206 $120 $200 $321 forward $115 $-1 #
coedge $-1 $120 $205 $325 $329 forward $115 $-1 #
vertex $-1 $121 $330 #
vertex $-1 $321 $331 #
ellipse-curve $-1 -17.499999999999975 -14.000000000000025 37.5 0 0 -1 0 -6 0 1 I I #
aggregate_stitch_attribute-aggregate_stitch_base_attribute-aggregate_body_attribute-attrib_HH-attrib $-1 $332 $122 $0 F #
model_id-kcp-attrib $-1 $333 $124 $76 1 1017635157 80 -1286602751 6 #
model_id-kcp-attrib $-1 $334 $-1 $125 1 1017635157 80 -1286602751 7 #
face $335 $336 $337 $8 $-1 $338 forward single #
loop $-1 $-1 $241 $125 #
plane-surface $-1 20 20.00000000000005 47.5 0 -1 0 0 0 -1.5 forward_v I I I I #
coedge $339 $138 $340 $128 $219 forward $126 $-1 #
attrib_hh_coedge_geombuild-attrib_entity_geombuild-individual_entity_attribute-attrib_HH-attrib $-1 $-1 $-1 $128 F #
coedge $341 $226 $128 $342 $343 reversed $77 $-1 #
edge $344 $345 -6 $228 17.3333333333333 $128 $346 forward 7 unknown #
attrib_hh_coedge_geombuild-attrib_entity_geombuild-individual_entity_attribute-attrib_HH-attrib $-1 $-1 $-1 $130 F #
coedge $347 $248 $146 $130 $222 reversed $148 $-1 #
edge $348 $229 -0.78539816339744828 $233 0.78539816339744828 $221 $349 forward 7 unknown #
attrib_hh_coedge_geombuild-attrib_entity_geombuild-individual_entity_attribute-attrib_HH-attrib $-1 $-1 $-1 $131 F #
edge $350 $140 -0.78539816339744828 $228 0.78539816339744828 $138 $351 forward 7 unknown #
attrib_hh_coedge_geombuild-attrib_entity_geombuild-individual_entity_attribute-attrib_HH-attrib $-1 $-1 $-1 $132 F #
coedge $352 $132 $218 $248 $353 forward $77 $-1 #
attrib_edge_convexity-kcp-attrib $-1 $354 $-1 $133 3 #
vertex $355 $219 $356 #
vertex $357 $222 $358 #
straight-curve $-1 -5.9999999999999503 -20 47.5 0 0 1.5 I I #
attrib_hh_coedge_geombuild-attrib_entity_geombuild-individual_entity_attribute-attrib_HH-attrib $-1 $-1 $-1 $135 F #
attrib_edge_convexity-kcp-attrib $-1 $359 $-1 $136 3 #
vertex $360 $158 $361 #
straight-curve $-1 -11.99999999999995 -14 47.5 0 0 -1.5 I I #
attrib_hh_coedge_geombuild-attrib_entity_geombuild-individual_entity_attribute-attrib_HH-attrib $-1 $-1 $-1 $138 F #
convexity-sys-attrib $-1 $362 $139 $83 #
attrib_hh_vertex_geombuild-attrib_entity_geombuild-individual_entity_attribute-attrib_HH-attrib $-1 $-1 $-1 $140 F #
point $-1 -11.99999999999995 -14 10 #
attrib_hh_coedge_geombuild-attrib_entity_geombuild-individual_entity_attribute-attrib_HH-attrib $-1 $-1 $-1 $143 F #
coedge $363 $364 $143 $147 $247 reversed $214 $-1 #
coedge $365 $143 $364 $153 $254 forward $214 $-1 #
attrib_hh_edge_geombuild-attrib_entity_geombuild-individual_entity_attribute-attrib_HH-attrib $-1 $-1 $-1 $144 F #
straight-curve $-1 -5.9999999999999503 20.00000000000005 47.5 0 0 -1.5 I I #
attrib_hh_coedge_geombuild-attrib_entity_geombuild-individual_entity_attribute-attrib_HH-attrib $-1 $-1 $-1 $146 F #
attrib_hh_coedge_geombuild-attrib_entity_geombuild-individual_entity_attribute-attrib_HH-attrib $-1 $-1 $-1 $147 F #
coedge $366 $147 $367 $368 $369 reversed $148 $-1 #
edge $370 $371 -6 $150 17.3333333333333 $240 $372 forward 7 unknown #
coedge $373 $374 $221 $226 $353 reversed $148 $-1 #
face $375 $376 $148 $8 $-1 $377 forward single #
attrib_hh_vertex_geombuild-attrib_entity_geombuild-individual_entity_attribute-attrib_HH-attrib $-1 $-1 $-1 $150 F #
point $-1 -5.9999999999999503 20.00000000000005 85 #
attrib_hh_coedge_geombuild-attrib_entity_geombuild-individual_entity_attribute-attrib_HH-attrib $-1 $-1 $-1 $153 F #
coedge $378 $379 $153 $380 $381 reversed $126 $-1 #
edge $382 $383 -6 $155 17.3333333333333 $241 $384 reversed 7 unknown #
convexity-sys-attrib $-1 $385 $154 $90 #
attrib_hh_vertex_geombuild-attrib_entity_geombuild-individual_entity_attribute-attrib_HH-attrib $-1 $-1 $-1 $155 F #
point $-1 -5.9999999999999503 20.00000000000005 10 #
model_id-kcp-attrib $-1 $386 $-1 $158 1 1017635157 80 -1286602751 15 #
straight-curve $-1 -11.99999999999995 5.0000000000000036 85 0 -1.5 0 I I #
attrib_hh_edge_geombuild-attrib_entity_geombuild-individual_entity_attribute-attrib_HH-attrib $-1 $-1 $159 $58 F #
model_id-kcp-attrib $-1 $-1 $-1 $165 1 1017635157 80 -1286602750 5 #
face $387 $-1 $180 $17 $-1 $388 reversed single #
loop $-1 $-1 $278 $165 #
plane-surface $-1 0 20.000000000000025 0 0 -1 0 0 0 -1 forward_v I I I I #
coedge $-1 $389 $276 $279 $390 forward $166 $-1 #
coedge $-1 $282 $168 $169 $270 reversed $99 $-1 #
coedge $-1 $276 $389 $168 $268 reversed $166 $-1 #
edge $-1 $283 -37.5 $391 37.5 $267 $392 forward 7 unknown #
coedge $-1 $170 $169 $389 $393 forward $61 $-1 #
edge $-1 $274 -23.499999999999975 $391 23.499999999999975 $266 $394 forward 7 unknown #
coedge $-1 $279 $278 $170 $272 reversed $263 $-1 #
edge $-1 $395 -23.499999999999975 $273 23.499999999999975 $271 $396 forward 7 unknown #
vertex $-1 $172 $397 #
vertex $-1 $285 $398 #
straight-curve $-1 23.499999999999975 0 -37.5 0 -1 0 I I #
coedge $-1 $265 $267 $173 $277 reversed $166 $-1 #
edge $-1 $280 -20.000000000000025 $283 20.000000000000025 $276 $399 forward 7 unknown #
coedge $-1 $271 $174 $179 $286 forward $263 $-1 #
coedge $-1 $174 $271 $265 $390 reversed $263 $-1 #
vertex $-1 $175 $400 #
straight-curve $-1 0 20.000000000000025 37.5 -1 0 0 I I #
coedge $-1 $176 $266 $178 $285 reversed $99 $-1 #
vertex $-1 $277 $401 #
straight-curve $-1 0 -20.000000000000025 37.5 1 0 0 I I #
edge $-1 $181 -37.5 $274 37.5 $178 $402 forward 7 unknown #
edge $-1 $182 -37.5 $273 37.5 $179 $403 forward 7 unknown #
point $-1 23.499999999999975 -20.000000000000025 37.5 #
point $-1 23.499999999999975 20.000000000000025 37.5 #
face $-1 $404 $405 $64 $-1 $116 forward single #
loop $-1 $-1 $406 $184 #
coedge $-1 $407 $408 $409 $410 reversed $185 $-1 #
face $-1 $411 $412 $42 $-1 $68 reversed single #
loop $-1 $-1 $297 $187 #
coedge $-1 $413 $414 $295 $415 reversed $188 $-1 #
coedge $-1 $416 $189 $294 $415 forward $108 $-1 #
coedge $-1 $189 $416 $417 $418 reversed $108 $-1 #
coedge $-1 $419 $420 $189 $298 forward $293 $-1 #
edge $-1 $421 0 $422 1.5707963267948966 $297 $423 forward 7 unknown #
face $-1 $-1 $311 $28 $-1 $424 reversed single #
loop $-1 $-1 $425 $190 #
coedge $-1 $426 $427 $428 $429 forward $191 $-1 #
coedge $-1 $303 $192 $194 $309 forward $111 $-1 #
coedge $-1 $192 $302 $426 $430 forward $111 $-1 #
coedge $-1 $428 $195 $192 $305 reversed $311 $-1 #
edge $-1 $431 -1.5707963267948966 $313 0 $192 $432 forward 7 unknown #
coedge $-1 $194 $193 $433 $434 forward $67 $-1 #
coedge $-1 $425 $435 $193 $308 forward $300 $-1 #
edge $-1 $436 -23.499999999999975 $312 -17.499999999999975 $193 $437 forward 7 unknown #
edge $-1 $313 17.499999999999975 $438 23.499999999999975 $194 $439 forward 7 unknown #
coedge $-1 $195 $428 $425 $440 reversed $311 $-1 #
loop $-1 $-1 $310 $299 #
vertex $-1 $196 $441 #
vertex $-1 $309 $442 #
straight-curve $-1 17.499999999999975 20.000000000000025 -37.5 0 0 -1 I I #
loop $-1 $-1 $203 $197 #
plane-surface $-1 0 -20.000000000000025 0 0 1 0 0 0 1 forward_v I I I I #
coedge $-1 $443 $319 $202 $324 forward $198 $-1 #
coedge $-1 $200 $199 $444 $445 reversed $70 $-1 #
coedge $-1 $317 $443 $199 $320 forward $198 $-1 #
edge $-1 $446 -20.000000000000025 $322 -14.000000000000025 $199 $447 forward 7 unknown #
edge $-1 $208 14.000000000000025 $448 20.000000000000025 $200 $449 forward 7 unknown #
vertex $-1 $201 $450 #
straight-curve $-1 -23.499999999999975 -14.000000000000025 -37.5 0 0 -1 I I #
edge $-1 $322 -1.5707963267948966 $327 0 $317 $451 forward 7 unknown #
coedge $-1 $444 $203 $206 $329 reversed $315 $-1 #
coedge $-1 $203 $444 $443 $452 reversed $315 $-1 #
vertex $-1 $452 $453 #
straight-curve $-1 -17.499999999999975 -20.000000000000025 -37.5 0 0 -1 I I #
edge $-1 $448 -23.499999999999975 $207 -17.499999999999975 $325 $454 forward 7 unknown #
point $-1 -17.499999999999975 -20.000000000000025 37.5 #
point $-1 -23.499999999999975 -14.000000000000025 37.5 #
aggregate_simgeom_attribute-aggregate_simgeom_base_attribute-aggregate_body_attribute-attrib_HH-attrib $-1 $-1 $210 $0 F #
attrib_hh_face_geombuild-attrib_entity_geombuild-individual_entity_attribute-attrib_HH-attrib $-1 $-1 $211 $76 F #
attrib_hh_face_geombuild-attrib_entity_geombuild-individual_entity_attribute-attrib_HH-attrib $-1 $-1 $212 $125 F #
model_id-kcp-attrib $-1 $455 $-1 $213 1 1017635157 80 -1286602751 8 #
face $456 $249 $457 $8 $-1 $458 reversed single #
loop $-1 $-1 $459 $213 #
cone-surface $-1 29 14.00000000000005 47.5 0 0 -1 4.2426406871192848 4.2426406871192848 0 1 I I 0 1 5.9999999999999991 forward I I I I #
attrib_hh_coedge_geombuild-attrib_entity_geombuild-individual_entity_attribute-attrib_HH-attrib $-1 $-1 $-1 $216 F #
coedge $460 $216 $379 $461 $462 reversed $126 $-1 #
attrib_hh_coedge_geombuild-attrib_entity_geombuild-individual_entity_attribute-attrib_HH-attrib $-1 $-1 $-1 $218 F #
coedge $463 $461 $464 $218 $343 forward $465 $-1 #
edge $466 $467 -25 $345 25 $218 $468 forward 7 unknown #
attrib_edge_convexity-kcp-attrib $-1 $469 $-1 $219 1 #
vertex $470 $462 $471 #
straight-curve $-1 20 -20 10 -1.5 0 0 I I #
attrib_hh_coedge_geombuild-attrib_entity_geombuild-individual_entity_attribute-attrib_HH-attrib $-1 $-1 $-1 $221 F #
attrib_hh_edge_geombuild-attrib_entity_geombuild-individual_entity_attribute-attrib_HH-attrib $-1 $-1 $-1 $222 F #
ellipse-curve $-1 -5.9999999999999503 -14 85 0 0 -1 -4.2426406871192848 -4.2426406871192848 0 1 I I #
attrib_edge_convexity-kcp-attrib $-1 $472 $-1 $224 1 #
ellipse-curve $-1 -5.9999999999999503 -14 10 0 0 1 -4.2426406871192848 -4.2426406871192848 0 1 I I #
attrib_hh_coedge_geombuild-attrib_entity_geombuild-individual_entity_attribute-attrib_HH-attrib $-1 $-1 $-1 $226 F #
edge $473 $467 -6 $229 17.3333333333333 $226 $474 reversed 7 unknown #
convexity-sys-attrib $-1 $475 $227 $133 #
attrib_hh_vertex_geombuild-attrib_entity_geombuild-individual_entity_attribute-attrib_HH-attrib $-1 $-1 $-1 $228 F #
point $-1 -5.9999999999999503 -20 10 #
attrib_hh_vertex_geombuild-attrib_entity_geombuild-individual_entity_attribute-attrib_HH-attrib $-1 $-1 $-1 $229 F #
point $-1 -5.9999999999999503 -20 85 #
convexity-sys-attrib $-1 $476 $232 $136 #
attrib_hh_vertex_geombuild-attrib_entity_geombuild-individual_entity_attribute-attrib_HH-attrib $-1 $-1 $-1 $233 F #
point $-1 -11.99999999999995 -14 85 #
attrib_hh_edge_geombuild-attrib_entity_geombuild-individual_entity_attribute-attrib_HH-attrib $-1 $-1 $236 $83 F #
attrib_hh_coedge_geombuild-attrib_entity_geombuild-individual_entity_attribute-attrib_HH-attrib $-1 $-1 $-1 $240 F #
coedge $477 $241 $240 $459 $478 reversed $214 $-1 #
attrib_hh_coedge_geombuild-attrib_entity_geombuild-individual_entity_attribute-attrib_HH-attrib $-1 $-1 $-1 $241 F #
attrib_hh_coedge_geombuild-attrib_entity_geombuild-individual_entity_attribute-attrib_HH-attrib $-1 $-1 $-1 $246 F #
coedge $479 $246 $374 $480 $481 forward $148 $-1 #
coedge $482 $483 $459 $246 $369 forward $337 $-1 #
edge $484 $371 -0.78539816339744828 $485 0.78539816339744828 $246 $486 forward 7 unknown #
model_id-kcp-attrib $-1 $487 $-1 $247 1 1017635157 80 -1286602751 16 #
vertex $488 $369 $489 #
straight-curve $-1 20 20.00000000000005 85 -1.5 0 0 I I #
attrib_hh_coedge_geombuild-attrib_entity_geombuild-individual_entity_attribute-attrib_HH-attrib $-1 $-1 $-1 $248 F #
coedge $490 $367 $248 $464 $491 reversed $148 $-1 #
model_id-kcp-attrib $-1 $492 $-1 $249 1 1017635157 80 -1286602751 10 #
face $493 $-1 $465 $8 $-1 $494 forward single #
plane-surface $-1 20 -5 85 0 0 1 1.5 0 0 forward_v I I I I #
attrib_hh_coedge_geombuild-attrib_entity_geombuild-individual_entity_attribute-attrib_HH-attrib $-1 $-1 $-1 $253 F #
coedge $495 $340 $253 $496 $497 forward $126 $-1 #
coedge $498 $459 $483 $253 $381 forward $337 $-1 #
edge $499 $500 -0.78539816339744828 $383 0.78539816339744828 $253 $501 forward 7 unknown #
attrib_edge_convexity-kcp-attrib $-1 $502 $-1 $254 1 #
vertex $503 $254 $504 #
straight-curve $-1 20 20.00000000000005 10 1.5 0 0 I I #
attrib_hh_edge_geombuild-attrib_entity_geombuild-individual_entity_attribute-attrib_HH-attrib $-1 $-1 $255 $90 F #
attrib_edge_convexity-kcp-attrib $-1 $505 $258 $158 1 #
model_id-kcp-attrib $-1 $-1 $-1 $262 1 1017635157 80 -1286602750 6 #
plane-surface $-1 23.499999999999975 0 0 -1 0 0 0 0 1 forward_v I I I I #
coedge $-1 $267 $265 $269 $393 reversed $166 $-1 #
edge $-1 $280 -37.5 $395 37.5 $279 $506 forward 7 unknown #
vertex $-1 $393 $507 #
straight-curve $-1 -23.499999999999975 -20.000000000000025 0 0 0 -1 I I #
edge $-1 $391 -20.000000000000025 $395 20.000000000000025 $389 $508 forward 7 unknown #
straight-curve $-1 0 -20.000000000000025 -37.5 -1 0 0 I I #
vertex $-1 $272 $509 #
straight-curve $-1 0 20.000000000000025 -37.5 1 0 0 I I #
point $-1 23.499999999999975 20.000000000000025 -37.5 #
point $-1 23.499999999999975 -20.000000000000025 -37.5 #
straight-curve $-1 -23.499999999999975 0 37.5 0 -1 0 I I #
point $-1 -23.499999999999975 20.000000000000025 37.5 #
point $-1 -23.499999999999975 -20.000000000000025 37.5 #
straight-curve $-1 23.499999999999975 -20.000000000000025 0 0 0 -1 I I #
straight-curve $-1 23.499999999999975 20.000000000000025 0 0 0 -1 I I #
face $-1 $510 $511 $64 $-1 $316 reversed single #
loop $-1 $-1 $512 $289 #
coedge $-1 $513 $514 $515 $516 forward $290 $-1 #
coedge $-1 $517 $291 $518 $519 reversed $185 $-1 #
coedge $-1 $291 $517 $513 $520 reversed $185 $-1 #
coedge $-1 $515 $521 $291 $410 forward $522 $-1 #
edge $-1 $523 -75 $524 0 $291 $525 forward 7 unknown #
face $-1 $-1 $526 $42 $-1 $112 reversed single #
loop $-1 $-1 $417 $292 #
coedge $-1 $527 $294 $420 $528 reversed $188 $-1 #
coedge $-1 $294 $527 $529 $530 reversed $188 $-1 #
edge $-1 $421 -75 $531 0 $294 $532 forward 7 unknown #
coedge $-1 $296 $295 $533 $534 reversed $108 $-1 #
coedge $-1 $535 $536 $296 $418 forward $412 $-1 #
edge $-1 $422 -75 $537 0 $417 $538 forward 7 unknown #
coedge $-1 $420 $297 $536 $539 forward $293 $-1 #
coedge $-1 $297 $419 $413 $528 forward $293 $-1 #
vertex $-1 $298 $540 #
vertex $-1 $539 $541 #
ellipse-curve $-1 -17.499999999999975 14.000000000000025 37.5 0 0 -1 -6 0 0 1 I I #
cone-surface $-1 17.499999999999975 14.000000000000025 -37.5 0 0 -1 0 6 0 1 I I 0 1 6 forward I I I I #
coedge $-1 $435 $307 $310 $440 forward $300 $-1 #
coedge $-1 $433 $301 $303 $430 reversed $191 $-1 #
coedge $-1 $301 $433 $435 $542 reversed $191 $-1 #
coedge $-1 $310 $304 $301 $429 reversed $311 $-1 #
edge $-1 $543 -75 $431 0 $301 $544 forward 7 unknown #
edge $-1 $438 -20.000000000000025 $431 -14.000000000000025 $426 $545 forward 7 unknown #
vertex $-1 $305 $546 #
ellipse-curve $-1 17.499999999999975 14.000000000000025 -37.5 0 0 1 0 6 0 1 I I #
coedge $-1 $427 $426 $306 $434 reversed $191 $-1 #
edge $-1 $436 -37.5 $438 37.5 $433 $547 forward 7 unknown #
coedge $-1 $307 $425 $427 $542 forward $300 $-1 #
vertex $-1 $542 $548 #
straight-curve $-1 0 20.000000000000025 37.5 -1 0 0 I I #
vertex $-1 $430 $549 #
straight-curve $-1 0 20.000000000000025 -37.5 1 0 0 I I #
edge $-1 $312 0 $543 1.5707963267948966 $425 $550 forward 7 unknown #
point $-1 17.499999999999975 20.000000000000025 37.5 #
point $-1 17.499999999999975 20.000000000000025 -37.5 #
coedge $-1 $319 $317 $326 $452 forward $198 $-1 #
coedge $-1 $326 $325 $318 $445 forward $315 $-1 #
edge $-1 $448 -37.5 $446 37.5 $318 $551 forward 7 unknown #
vertex $-1 $320 $552 #
straight-curve $-1 -23.499999999999975 0 -37.5 0 1 0 I I #
vertex $-1 $321 $553 #
straight-curve $-1 -23.499999999999975 0 37.5 0 -1 0 I I #
point $-1 -23.499999999999975 -14.000000000000025 -37.5 #
ellipse-curve $-1 -17.499999999999975 -14.000000000000025 -37.5 0 0 1 0 -6 0 1 I I #
edge $-1 $327 17.499999999999975 $446 23.499999999999975 $326 $554 forward 7 unknown #
point $-1 -17.499999999999975 -20.000000000000025 -37.5 #
straight-curve $-1 0 -20.000000000000025 37.5 1 0 0 I I #
attrib_hh_face_geombuild-attrib_entity_geombuild-individual_entity_attribute-attrib_HH-attrib $-1 $-1 $335 $213 F #
model_id-kcp-attrib $-1 $555 $-1 $336 1 1017635157 80 -1286602751 9 #
loop $-1 $-1 $496 $336 #
plane-surface $-1 35 -5 47.5 -1 0 0 0 0 1.5 forward_v I I I I #
coedge $556 $368 $380 $364 $478 forward $337 $-1 #
attrib_hh_coedge_geombuild-attrib_entity_geombuild-individual_entity_attribute-attrib_HH-attrib $-1 $-1 $-1 $340 F #
coedge $557 $558 $342 $340 $462 forward $465 $-1 #
edge $559 $345 -0.78539816339744828 $560 0.78539816339744828 $340 $561 forward 7 unknown #
attrib_hh_coedge_geombuild-attrib_entity_geombuild-individual_entity_attribute-attrib_HH-attrib $-1 $-1 $-1 $342 F #
coedge $562 $342 $558 $374 $491 forward $465 $-1 #
loop $-1 $-1 $558 $376 #
attrib_edge_convexity-kcp-attrib $-1 $563 $-1 $343 3 #
vertex $564 $353 $565 #
straight-curve $-1 29 -20 47.5 0 0 -1.5 I I #
convexity-sys-attrib $-1 $566 $344 $219 #
attrib_hh_vertex_geombuild-attrib_entity_geombuild-individual_entity_attribute-attrib_HH-attrib $-1 $-1 $-1 $345 F #
point $-1 29 -20 10 #
convexity-sys-attrib $-1 $567 $350 $224 #
model_id-kcp-attrib $-1 $568 $-1 $353 1 1017635157 80 -1286602751 14 #
straight-curve $-1 20 -20 85 1.5 0 0 I I #
attrib_hh_edge_geombuild-attrib_entity_geombuild-individual_entity_attribute-attrib_HH-attrib $-1 $-1 $354 $133 F #
attrib_hh_edge_geombuild-attrib_entity_geombuild-individual_entity_attribute-attrib_HH-attrib $-1 $-1 $359 $136 F #
attrib_hh_coedge_geombuild-attrib_entity_geombuild-individual_entity_attribute-attrib_HH-attrib $-1 $-1 $-1 $364 F #
edge $569 $383 -25 $371 25 $364 $570 forward 7 unknown #
attrib_hh_coedge_geombuild-attrib_entity_geombuild-individual_entity_attribute-attrib_HH-attrib $-1 $-1 $-1 $367 F #
coedge $571 $572 $573 $367 $481 reversed $457 $-1 #
edge $574 $575 -6 $485 12.6666666666667 $480 $576 forward 7 unknown #
attrib_hh_coedge_geombuild-attrib_entity_geombuild-individual_entity_attribute-attrib_HH-attrib $-1 $-1 $-1 $368 F #
coedge $577 $380 $368 $573 $578 forward $337 $-1 #
attrib_hh_edge_geombuild-attrib_entity_geombuild-individual_entity_attribute-attrib_HH-attrib $-1 $-1 $-1 $369 F #
vertex $579 $481 $580 #
ellipse-curve $-1 29 14.00000000000005 85 0 0 -1 4.2426406871192848 4.2426406871192848 0 1 I I #
attrib_hh_edge_geombuild-attrib_entity_geombuild-individual_entity_attribute-attrib_HH-attrib $-1 $-1 $370 $247 F #
attrib_hh_vertex_geombuild-attrib_entity_geombuild-individual_entity_attribute-attrib_HH-attrib $-1 $-1 $-1 $371 F #
point $-1 29 20.00000000000005 85 #
attrib_hh_coedge_geombuild-attrib_entity_geombuild-individual_entity_attribute-attrib_HH-attrib $-1 $-1 $-1 $374 F #
edge $581 $575 -0.78539816339744828 $467 0.78539816339744828 $374 $582 forward 7 unknown #
attrib_hh_face_geombuild-attrib_entity_geombuild-individual_entity_attribute-attrib_HH-attrib $-1 $-1 $375 $249 F #
model_id-kcp-attrib $-1 $583 $-1 $376 1 1017635157 80 -1286602751 11 #
cone-surface $-1 29 -14 47.5 0 0 -1 4.2426406871192848 -4.2426406871192848 0 1 I I 0 1 5.9999999999999991 forward I I I I #
attrib_hh_coedge_geombuild-attrib_entity_geombuild-individual_entity_attribute-attrib_HH-attrib $-1 $-1 $-1 $379 F #
coedge $584 $573 $572 $379 $497 reversed $457 $-1 #
edge $585 $500 -6.0000000000000311 $560 12.66666666666667 $496 $586 forward 7 unknown #
attrib_hh_coedge_geombuild-attrib_entity_geombuild-individual_entity_attribute-attrib_HH-attrib $-1 $-1 $-1 $380 F #
attrib_edge_convexity-kcp-attrib $-1 $587 $-1 $381 1 #
vertex $588 $578 $589 #
ellipse-curve $-1 29 14.00000000000005 10 0 0 1 4.2426406871192848 4.2426406871192848 0 1 I I #
convexity-sys-attrib $-1 $590 $382 $254 #
attrib_hh_vertex_geombuild-attrib_entity_geombuild-individual_entity_attribute-attrib_HH-attrib $-1 $-1 $-1 $383 F #
point $-1 29 20.00000000000005 10 #
convexity-sys-attrib $-1 $591 $386 $158 #
straight-curve $-1 -23.499999999999975 20.000000000000025 0 0 0 -1 I I #
point $-1 -23.499999999999975 -20.000000000000025 -37.5 #
straight-curve $-1 -23.499999999999975 0 -37.5 0 1 0 I I #
point $-1 -23.499999999999975 20.000000000000025 -37.5 #
face $-1 $-1 $522 $64 $-1 $592 reversed single #
loop $-1 $-1 $593 $404 #
coedge $-1 $594 $518 $521 $595 forward $405 $-1 #
coedge $-1 $514 $406 $408 $520 forward $290 $-1 #
coedge $-1 $406 $513 $596 $597 forward $290 $-1 #
coedge $-1 $598 $409 $406 $516 reversed $522 $-1 #
edge $-1 $599 -1.5707963267948966 $524 0 $406 $600 forward 7 unknown #
coedge $-1 $408 $407 $601 $602 forward $185 $-1 #
coedge $-1 $512 $594 $407 $519 forward $405 $-1 #
edge $-1 $603 -20.000000000000025 $523 -14.000000000000025 $407 $604 forward 7 unknown #
edge $-1 $524 14.000000000000025 $605 20.000000000000025 $408 $545 forward 7 unknown #
coedge $-1 $409 $598 $512 $595 reversed $522 $-1 #
loop $-1 $-1 $521 $510 #
vertex $-1 $410 $606 #
vertex $-1 $520 $607 #
straight-curve $-1 23.499999999999975 -14.000000000000025 -37.5 0 0 -1 I I #
loop $-1 $-1 $533 $411 #
coedge $-1 $414 $413 $608 $609 forward $188 $-1 #
edge $-1 $610 -20.000000000000025 $421 -14.000000000000025 $413 $449 forward 7 unknown #
coedge $-1 $611 $533 $414 $530 forward $526 $-1 #
edge $-1 $531 14.000000000000025 $612 20.000000000000025 $414 $447 forward 7 unknown #
vertex $-1 $530 $613 #
straight-curve $-1 -23.499999999999975 14.000000000000025 -37.5 0 0 -1 I I #
coedge $-1 $529 $611 $416 $534 forward $526 $-1 #
edge $-1 $537 -1.5707963267948966 $531 0 $533 $614 forward 7 unknown #
coedge $-1 $608 $417 $611 $615 reversed $412 $-1 #
coedge $-1 $417 $608 $419 $539 reversed $412 $-1 #
vertex $-1 $418 $616 #
straight-curve $-1 -17.499999999999975 20.000000000000025 -37.5 0 0 -1 I I #
edge $-1 $422 17.499999999999975 $610 23.499999999999975 $536 $437 forward 7 unknown #
point $-1 -23.499999999999975 14.000000000000025 37.5 #
point $-1 -17.499999999999975 20.000000000000025 37.5 #
edge $-1 $543 14.000000000000025 $436 20.000000000000025 $427 $604 forward 7 unknown #
vertex $-1 $542 $617 #
straight-curve $-1 23.499999999999975 14.000000000000025 -37.5 0 0 -1 I I #
straight-curve $-1 23.499999999999975 0 -37.5 0 -1 0 I I #
point $-1 23.499999999999975 14.000000000000025 -37.5 #
straight-curve $-1 23.499999999999975 20.000000000000025 0 0 0 -1 I I #
point $-1 23.499999999999975 20.000000000000025 37.5 #
point $-1 23.499999999999975 20.000000000000025 -37.5 #
ellipse-curve $-1 17.499999999999975 14.000000000000025 37.5 0 0 -1 0 6 0 1 I I #
straight-curve $-1 -23.499999999999975 -20.000000000000025 0 0 0 -1 I I #
point $-1 -23.499999999999975 -20.000000000000025 -37.5 #
point $-1 -23.499999999999975 -20.000000000000025 37.5 #
straight-curve $-1 0 -20.000000000000025 -37.5 -1 0 0 I I #
attrib_hh_face_geombuild-attrib_entity_geombuild-individual_entity_attribute-attrib_HH-attrib $-1 $-1 $456 $336 F #
attrib_hh_coedge_geombuild-attrib_entity_geombuild-individual_entity_attribute-attrib_HH-attrib $-1 $-1 $-1 $459 F #
attrib_hh_coedge_geombuild-attrib_entity_geombuild-individual_entity_attribute-attrib_HH-attrib $-1 $-1 $-1 $461 F #
coedge $618 $464 $461 $572 $619 forward $465 $-1 #
attrib_edge_convexity-kcp-attrib $-1 $620 $-1 $462 1 #
vertex $621 $497 $622 #
ellipse-curve $-1 29 -14 10 0 0 1 4.2426406871192848 -4.2426406871192848 0 1 I I #
attrib_hh_coedge_geombuild-attrib_entity_geombuild-individual_entity_attribute-attrib_HH-attrib $-1 $-1 $-1 $464 F #
convexity-sys-attrib $-1 $623 $466 $343 #
attrib_hh_vertex_geombuild-attrib_entity_geombuild-individual_entity_attribute-attrib_HH-attrib $-1 $-1 $-1 $467 F #
point $-1 29 -20 85 #
attrib_hh_edge_geombuild-attrib_entity_geombuild-individual_entity_attribute-attrib_HH-attrib $-1 $-1 $469 $219 F #
attrib_hh_edge_geombuild-attrib_entity_geombuild-individual_entity_attribute-attrib_HH-attrib $-1 $-1 $472 $224 F #
attrib_edge_convexity-kcp-attrib $-1 $624 $473 $353 1 #
attrib_hh_edge_geombuild-attrib_entity_geombuild-individual_entity_attribute-attrib_HH-attrib $-1 $-1 $-1 $478 F #
straight-curve $-1 29 20.00000000000005 47.5 0 0 1.5 I I #
attrib_hh_coedge_geombuild-attrib_entity_geombuild-individual_entity_attribute-attrib_HH-attrib $-1 $-1 $-1 $480 F #
coedge $625 $496 $480 $558 $619 reversed $457 $-1 #
coedge $626 $480 $496 $483 $578 reversed $457 $-1 #
model_id-kcp-attrib $-1 $627 $-1 $481 1 1017635157 80 -1286602751 13 #
vertex $628 $619 $629 #
straight-curve $-1 35 -5 85 0 1.5 0 I I #
attrib_hh_coedge_geombuild-attrib_entity_geombuild-individual_entity_attribute-attrib_HH-attrib $-1 $-1 $-1 $483 F #
edge $630 $485 -25 $500 25 $573 $631 forward 7 unknown #
attrib_hh_vertex_geombuild-attrib_entity_geombuild-individual_entity_attribute-attrib_HH-attrib $-1 $-1 $-1 $485 F #
point $-1 35 14.00000000000005 85 #
attrib_hh_edge_geombuild-attrib_entity_geombuild-individual_entity_attribute-attrib_HH-attrib $-1 $-1 $-1 $491 F #
ellipse-curve $-1 29 -14 85 0 0 -1 4.2426406871192848 -4.2426406871192848 0 1 I I #
attrib_hh_face_geombuild-attrib_entity_geombuild-individual_entity_attribute-attrib_HH-attrib $-1 $-1 $493 $376 F #
attrib_hh_coedge_geombuild-attrib_entity_geombuild-individual_entity_attribute-attrib_HH-attrib $-1 $-1 $-1 $496 F #
attrib_edge_convexity-kcp-attrib $-1 $632 $-1 $497 1 #
straight-curve $-1 35 5.0000000000000036 10 0 -1.5 0 I I #
convexity-sys-attrib $-1 $633 $499 $381 #
attrib_hh_vertex_geombuild-attrib_entity_geombuild-individual_entity_attribute-attrib_HH-attrib $-1 $-1 $-1 $500 F #
point $-1 35 14.00000000000005 10 #
attrib_hh_edge_geombuild-attrib_entity_geombuild-individual_entity_attribute-attrib_HH-attrib $-1 $-1 $502 $254 F #
attrib_hh_edge_geombuild-attrib_entity_geombuild-individual_entity_attribute-attrib_HH-attrib $-1 $-1 $505 $158 F #
cone-surface $-1 17.499999999999975 -14.000000000000025 -37.5 0 0 -1 6 0 0 1 I I 0 1 6 forward I I I I #
coedge $-1 $596 $634 $598 $635 forward $511 $-1 #
coedge $-1 $518 $512 $634 $636 forward $405 $-1 #
edge $-1 $523 0 $637 1.5707963267948966 $512 $638 forward 7 unknown #
coedge $-1 $601 $593 $514 $597 reversed $511 $-1 #
edge $-1 $605 -23.499999999999975 $599 -17.499999999999975 $596 $554 forward 7 unknown #
coedge $-1 $521 $515 $593 $635 reversed $522 $-1 #
vertex $-1 $516 $639 #
ellipse-curve $-1 17.499999999999975 -14.000000000000025 -37.5 0 0 1 6 0 0 1 I I #
coedge $-1 $634 $596 $517 $602 reversed $511 $-1 #
edge $-1 $603 -37.5 $605 37.5 $517 $640 forward 7 unknown #
vertex $-1 $519 $641 #
straight-curve $-1 23.499999999999975 0 37.5 0 1 0 I I #
vertex $-1 $602 $642 #
point $-1 23.499999999999975 -14.000000000000025 37.5 #
point $-1 23.499999999999975 -14.000000000000025 -37.5 #
coedge $-1 $536 $535 $527 $609 reversed $412 $-1 #
edge $-1 $610 -37.5 $612 37.5 $608 $643 forward 7 unknown #
vertex $-1 $539 $644 #
coedge $-1 $533 $529 $535 $615 forward $526 $-1 #
vertex $-1 $615 $645 #
point $-1 -23.499999999999975 14.000000000000025 -37.5 #
ellipse-curve $-1 -17.499999999999975 14.000000000000025 -37.5 0 0 1 -6 0 0 1 I I #
edge $-1 $612 -23.499999999999975 $537 -17.499999999999975 $535 $439 forward 7 unknown #
point $-1 -17.499999999999975 20.000000000000025 -37.5 #
point $-1 23.499999999999975 14.000000000000025 37.5 #
attrib_hh_coedge_geombuild-attrib_entity_geombuild-individual_entity_attribute-attrib_HH-attrib $-1 $-1 $-1 $558 F #
edge $646 $560 -25 $575 25 $572 $647 forward 7 unknown #
convexity-sys-attrib $-1 $648 $559 $462 #
attrib_hh_vertex_geombuild-attrib_entity_geombuild-individual_entity_attribute-attrib_HH-attrib $-1 $-1 $-1 $560 F #
point $-1 35 -14 10 #
attrib_hh_edge_geombuild-attrib_entity_geombuild-individual_entity_attribute-attrib_HH-attrib $-1 $-1 $563 $343 F #
convexity-sys-attrib $-1 $649 $568 $353 #
attrib_hh_coedge_geombuild-attrib_entity_geombuild-individual_entity_attribute-attrib_HH-attrib $-1 $-1 $-1 $572 F #
attrib_hh_coedge_geombuild-attrib_entity_geombuild-individual_entity_attribute-attrib_HH-attrib $-1 $-1 $-1 $573 F #
attrib_hh_edge_geombuild-attrib_entity_geombuild-individual_entity_attribute-attrib_HH-attrib $-1 $-1 $574 $481 F #
attrib_hh_vertex_geombuild-attrib_entity_geombuild-individual_entity_attribute-attrib_HH-attrib $-1 $-1 $-1 $575 F #
point $-1 35 -14 85 #
attrib_hh_edge_geombuild-attrib_entity_geombuild-individual_entity_attribute-attrib_HH-attrib $-1 $-1 $-1 $578 F #
straight-curve $-1 35 14.00000000000005 47.5 0 0 -1.5 I I #
convexity-sys-attrib $-1 $650 $585 $497 #
attrib_hh_edge_geombuild-attrib_entity_geombuild-individual_entity_attribute-attrib_HH-attrib $-1 $-1 $587 $381 F #
coedge $-1 $593 $601 $594 $636 reversed $511 $-1 #
edge $-1 $637 -75 $599 0 $593 $651 forward 7 unknown #
edge $-1 $637 17.499999999999975 $603 23.499999999999975 $634 $454 forward 7 unknown #
vertex $-1 $636 $652 #
ellipse-curve $-1 17.499999999999975 -14.000000000000025 37.5 0 0 -1 6 0 0 1 I I #
point $-1 17.499999999999975 -20.000000000000025 -37.5 #
straight-curve $-1 23.499999999999975 -20.000000000000025 0 0 0 -1 I I #
point $-1 23.499999999999975 -20.000000000000025 37.5 #
point $-1 23.499999999999975 -20.000000000000025 -37.5 #
straight-curve $-1 -23.499999999999975 20.000000000000025 0 0 0 -1 I I #
point $-1 -23.499999999999975 20.000000000000025 37.5 #
point $-1 -23.499999999999975 20.000000000000025 -37.5 #
attrib_hh_edge_geombuild-attrib_entity_geombuild-individual_entity_attribute-attrib_HH-attrib $-1 $-1 $-1 $619 F #
straight-curve $-1 35 -14 47.5 0 0 1.5 I I #
attrib_hh_edge_geombuild-attrib_entity_geombuild-individual_entity_attribute-attrib_HH-attrib $-1 $-1 $620 $462 F #
attrib_hh_edge_geombuild-attrib_entity_geombuild-individual_entity_attribute-attrib_HH-attrib $-1 $-1 $624 $353 F #
attrib_hh_edge_geombuild-attrib_entity_geombuild-individual_entity_attribute-attrib_HH-attrib $-1 $-1 $632 $497 F #
straight-curve $-1 17.499999999999975 -20.000000000000025 -37.5 0 0 -1 I I #
point $-1 17.499999999999975 -20.000000000000025 37.5 #
End-of-ACIS-data 