600 0 2 0           
24 FBMach with ACIS - 6.0.3 13 ACIS 6.0.3 NT 24 Tue May 22 12:25:13 2001 
1 9.9999999999999995e-007 1e-010 
body $2 $3 $-1 $4 #
bdycol-kcp $-1 1 2 $5 $6 #
model_id-kcp-attrib $-1 $-1 $-1 $0 1 990548713 40 -1641545727 1 #
lump $-1 $-1 $7 $0 #
transform $-1 0 1 0 0 0 1 1 0 0 -11.99999999999995 2.4868995751603507e-014 47.5 1 rotate no_reflect no_shear #
body $8 $9 $-1 $10 #
body $11 $12 $-1 $13 #
shell $-1 $-1 $-1 $14 $-1 $3 #
model_id-kcp-attrib $-1 $-1 $-1 $5 1 990548713 40 -1641545726 1 #
lump $-1 $-1 $15 $5 #
transform $-1 1 0 0 0 1 0 0 0 1 11.500000000000025 2.4868995751603507e-014 47.5 1 no_rotate no_reflect no_shear #
rgb_color-st-attrib $-1 $16 $-1 $6 0.5 1 1 #
lump $-1 $17 $18 $6 #
transform $-1 1 0 0 0 1 0 0 0 1 11.500000000000025 2.4868995751603507e-014 47.5 1 no_rotate no_reflect no_shear #
face $19 $20 $21 $7 $-1 $22 forward single #
shell $-1 $-1 $-1 $23 $-1 $9 #
model_id-kcp-attrib $-1 $-1 $11 $6 1 990548713 160 -1633681405 1 #
lump $-1 $24 $25 $6 #
shell $-1 $-1 $-1 $26 $-1 $12 #
model_id-kcp-attrib $-1 $-1 $-1 $14 1 990548713 40 -1641545727 2 #
face $27 $28 $29 $7 $-1 $30 reversed single #
loop $-1 $-1 $31 $14 #
cone-surface $-1 14.000000000000025 0 6 0 -1 0 4.2426406871192848 0 -4.2426406871192848 1 I I 0 1 5.9999999999999991 forward I I I I #
face $32 $33 $34 $15 $-1 $35 forward single #
lump $-1 $36 $37 $6 #
shell $-1 $-1 $-1 $38 $-1 $17 #
face $-1 $39 $40 $18 $-1 $41 reversed single #
model_id-kcp-attrib $-1 $-1 $-1 $20 1 990548713 40 -1641545727 3 #
face $42 $43 $44 $7 $-1 $45 forward single #
loop $-1 $-1 $46 $20 #
plane-surface $-1 -5.0000000000000249 0 0 0 0 1 0 -1.5 0 forward_v I I I I #
coedge $-1 $47 $48 $49 $50 forward $21 $-1 #
model_id-kcp-attrib $-1 $-1 $-1 $23 1 990548713 40 -1641545726 7 #
face $51 $52 $53 $15 $-1 $54 reversed single #
loop $-1 $-1 $55 $23 #
plane-surface $-1 0 0 37.5 0 0 1 1 0 0 forward_v I I I I #
lump $-1 $-1 $56 $6 #
shell $-1 $-1 $-1 $57 $-1 $24 #
face $-1 $58 $59 $25 $-1 $60 reversed single #
face $-1 $61 $62 $18 $-1 $63 reversed single #
loop $-1 $-1 $64 $26 #
cone-surface $-1 -17.499999999999975 -14.000000000000025 -37.5 0 0 -1 0 -6 0 1 I I 0 1 6 forward I I I I #
model_id-kcp-attrib $-1 $-1 $-1 $28 1 990548713 40 -1641545727 4 #
face $65 $66 $67 $7 $-1 $68 reversed single #
loop $-1 $-1 $69 $28 #
cone-surface $-1 -14.000000000000025 0 6 0 -1 0 -4.2426406871192848 0 -4.2426406871192848 1 I I 0 1 5.9999999999999991 forward I I I I #
coedge $-1 $70 $49 $71 $72 reversed $29 $-1 #
coedge $-1 $73 $31 $74 $75 forward $21 $-1 #
coedge $-1 $31 $73 $76 $77 forward $21 $-1 #
coedge $-1 $46 $78 $31 $50 reversed $29 $-1 #
edge $79 $80 -25 $81 25 $49 $82 forward 7 unknown #
model_id-kcp-attrib $-1 $-1 $-1 $33 1 990548713 40 -1641545726 4 #
face $83 $84 $85 $15 $-1 $86 reversed single #
loop $-1 $-1 $87 $33 #
plane-surface $-1 0 0 -37.5 0 0 1 1 0 0 forward_v I I I I #
coedge $-1 $88 $89 $90 $91 forward $34 $-1 #
shell $-1 $-1 $-1 $92 $-1 $36 #
face $-1 $93 $94 $37 $-1 $95 reversed single #
face $-1 $96 $97 $25 $-1 $98 reversed single #
loop $-1 $-1 $99 $38 #
plane-surface $-1 0 20.000000000000025 0 0 -1 0 0 0 -1 forward_v I I I I #
face $-1 $100 $101 $18 $-1 $102 forward single #
loop $-1 $-1 $103 $39 #
plane-surface $-1 -23.499999999999975 0 0 1 0 0 0 0 -1 forward_v I I I I #
coedge $-1 $104 $105 $106 $107 reversed $40 $-1 #
model_id-kcp-attrib $-1 $-1 $-1 $43 1 990548713 40 -1641545727 5 #
face $108 $109 $110 $7 $-1 $111 reversed single #
loop $-1 $-1 $112 $43 #
plane-surface $-1 -20.000000000000025 0 31.99999999999995 1 0 0 0 1.5 0 forward_v I I I I #
coedge $-1 $113 $114 $115 $116 forward $44 $-1 #
coedge $-1 $78 $46 $117 $118 reversed $29 $-1 #
coedge $-1 $76 $119 $46 $72 forward $110 $-1 #
edge $120 $121 -6 $80 12.6666666666667 $46 $122 forward 7 unknown #
coedge $-1 $48 $47 $123 $124 forward $21 $-1 #
coedge $-1 $125 $126 $47 $75 reversed $127 $-1 #
edge $-1 $81 -0.78539816339744828 $128 0.78539816339744828 $74 $129 forward 7 unknown #
coedge $-1 $130 $71 $48 $77 reversed $110 $-1 #
edge $131 $132 -0.78539816339744828 $80 0.78539816339744828 $76 $133 forward 7 unknown #
coedge $-1 $49 $70 $125 $134 reversed $29 $-1 #
attrib_edge_convexity-kcp-attrib $-1 $135 $-1 $50 3 #
vertex $-1 $72 $136 #
vertex $-1 $50 $137 #
straight-curve $-1 14.000000000000025 0 0 0 1.5 0 I I #
model_id-kcp-attrib $-1 $-1 $-1 $52 1 990548713 40 -1641545726 3 #
face $138 $139 $140 $15 $-1 $141 reversed single #
loop $-1 $-1 $142 $52 #
plane-surface $-1 0 -20.000000000000025 0 0 1 0 0 0 1 forward_v I I I I #
coedge $-1 $143 $144 $145 $146 forward $53 $-1 #
coedge $-1 $147 $55 $148 $149 forward $34 $-1 #
coedge $-1 $55 $147 $150 $151 forward $34 $-1 #
coedge $-1 $152 $153 $55 $91 reversed $154 $-1 #
edge $-1 $155 -20.000000000000025 $156 20.000000000000025 $90 $157 forward 7 unknown #
face $-1 $158 $159 $56 $-1 $160 reversed single #
face $-1 $161 $162 $37 $-1 $63 reversed single #
loop $-1 $-1 $163 $57 #
cone-surface $-1 -17.499999999999975 14.000000000000025 -37.5 0 0 -1 -6 0 0 1 I I 0 1 6 forward I I I I #
face $-1 $164 $165 $25 $-1 $160 reversed single #
loop $-1 $-1 $166 $58 #
plane-surface $-1 0 0 -37.5 0 0 1 1 0 0 forward_v I I I I #
coedge $-1 $167 $168 $169 $170 reversed $59 $-1 #
face $-1 $171 $172 $18 $-1 $98 reversed single #
loop $-1 $-1 $106 $61 #
plane-surface $-1 0 0 37.5 0 0 1 1 0 0 forward_v I I I I #
coedge $-1 $173 $174 $105 $175 forward $62 $-1 #
coedge $-1 $176 $64 $177 $178 forward $40 $-1 #
coedge $-1 $64 $176 $103 $175 reversed $40 $-1 #
coedge $-1 $179 $180 $64 $107 forward $101 $-1 #
edge $-1 $181 0 $182 1.5707963267948966 $106 $183 forward 7 unknown #
model_id-kcp-attrib $-1 $184 $-1 $66 1 990548713 40 -1641545727 12 #
face $185 $186 $187 $7 $-1 $188 reversed single #
loop $-1 $-1 $189 $66 #
plane-surface $-1 -5.0000000000000249 -37.5 31.99999999999995 0 1 0 0 0 1.5 forward_v I I I I #
coedge $-1 $190 $115 $189 $191 reversed $67 $-1 #
coedge $-1 $117 $69 $192 $193 forward $44 $-1 #
coedge $-1 $69 $117 $119 $194 forward $44 $-1 #
coedge $-1 $112 $195 $69 $116 reversed $67 $-1 #
edge $196 $197 -25 $198 25 $115 $199 forward 7 unknown #
coedge $-1 $114 $113 $70 $118 forward $44 $-1 #
edge $200 $201 -25 $121 25 $70 $202 forward 7 unknown #
coedge $-1 $71 $189 $114 $194 reversed $110 $-1 #
attrib_edge_convexity-kcp-attrib $-1 $203 $-1 $72 1 #
vertex $-1 $118 $204 #
straight-curve $-1 -5.0000000000000249 -37.5 0 1.5 0 0 I I #
coedge $-1 $205 $206 $73 $124 reversed $187 $-1 #
edge $-1 $128 -25 $132 25 $123 $207 forward 7 unknown #
coedge $-1 $192 $74 $78 $134 forward $127 $-1 #
coedge $-1 $74 $208 $205 $209 forward $127 $-1 #
loop $-1 $-1 $210 $211 #
vertex $-1 $209 $212 #
ellipse-curve $-1 14.000000000000025 37.5 6 0 -1 0 4.2426406871192848 0 -4.2426406871192848 1 I I #
coedge $-1 $213 $76 $206 $214 reversed $110 $-1 #
attrib_edge_convexity-kcp-attrib $-1 $215 $-1 $77 1 #
vertex $-1 $77 $216 #
ellipse-curve $-1 14.000000000000025 -37.5 6 0 1 0 4.2426406871192848 0 -4.2426406871192848 1 I I #
edge $217 $81 -6.0000000000000302 $201 12.66666666666667 $78 $218 forward 7 unknown #
convexity-sys-attrib $-1 $-1 $79 $50 #
point $-1 14.000000000000025 -37.5 0 #
point $-1 14.000000000000025 37.5 0 #
model_id-kcp-attrib $-1 $-1 $-1 $84 1 990548713 40 -1641545726 2 #
face $219 $220 $221 $15 $-1 $222 reversed single #
loop $-1 $-1 $223 $84 #
plane-surface $-1 -23.499999999999975 0 0 1 0 0 0 0 -1 forward_v I I I I #
coedge $-1 $224 $150 $225 $226 forward $85 $-1 #
coedge $-1 $227 $87 $224 $228 forward $53 $-1 #
coedge $-1 $87 $227 $229 $230 forward $53 $-1 #
coedge $-1 $153 $152 $87 $146 reversed $154 $-1 #
edge $-1 $231 -20.000000000000025 $232 20.000000000000025 $145 $233 forward 7 unknown #
coedge $-1 $89 $88 $234 $235 forward $34 $-1 #
coedge $-1 $236 $237 $88 $149 reversed $221 $-1 #
edge $-1 $156 -23.499999999999975 $238 23.499999999999975 $148 $239 forward 7 unknown #
coedge $-1 $142 $240 $89 $151 reversed $85 $-1 #
edge $-1 $241 -23.499999999999975 $155 23.499999999999975 $150 $242 forward 7 unknown #
coedge $-1 $145 $90 $240 $243 forward $154 $-1 #
coedge $-1 $90 $145 $236 $244 reversed $154 $-1 #
loop $-1 $-1 $152 $220 #
vertex $-1 $91 $245 #
vertex $-1 $91 $246 #
straight-curve $-1 23.499999999999975 0 37.5 0 1 0 I I #
face $-1 $247 $248 $56 $-1 $98 reversed single #
loop $-1 $-1 $249 $92 #
plane-surface $-1 23.499999999999975 0 0 -1 0 0 0 0 1 forward_v I I I I #
face $-1 $250 $251 $37 $-1 $102 forward single #
loop $-1 $-1 $252 $93 #
coedge $-1 $253 $254 $255 $256 reversed $94 $-1 #
face $-1 $257 $258 $25 $-1 $102 forward single #
loop $-1 $-1 $259 $96 #
coedge $-1 $260 $261 $262 $263 forward $97 $-1 #
coedge $-1 $264 $99 $265 $266 reversed $59 $-1 #
coedge $-1 $99 $264 $260 $267 reversed $59 $-1 #
coedge $-1 $262 $268 $99 $170 forward $269 $-1 #
edge $-1 $270 -75 $271 0 $99 $272 forward 7 unknown #
face $-1 $-1 $273 $18 $-1 $274 reversed single #
loop $-1 $-1 $275 $100 #
coedge $-1 $276 $103 $277 $278 reversed $62 $-1 #
coedge $-1 $103 $276 $179 $279 reversed $62 $-1 #
edge $-1 $182 -75 $280 0 $103 $281 forward 7 unknown #
coedge $-1 $105 $104 $275 $282 reversed $40 $-1 #
coedge $-1 $283 $284 $104 $178 reversed $273 $-1 #
edge $-1 $181 -75 $285 0 $177 $286 forward 7 unknown #
coedge $-1 $180 $106 $174 $279 forward $101 $-1 #
coedge $-1 $106 $179 $283 $287 forward $101 $-1 #
vertex $-1 $107 $288 #
vertex $-1 $279 $289 #
ellipse-curve $-1 -17.499999999999975 -14.000000000000025 37.5 0 0 -1 0 -6 0 1 I I #
model_id-kcp-attrib $-1 $-1 $108 $66 1 990548713 40 -1641545727 6 #
model_id-kcp-attrib $-1 $-1 $-1 $109 1 990548713 40 -1641545727 7 #
face $290 $291 $292 $7 $-1 $293 forward single #
loop $-1 $-1 $206 $109 #
plane-surface $-1 20.000000000000025 0 31.99999999999995 -1 0 0 0 -1.5 0 forward_v I I I I #
coedge $-1 $119 $294 $112 $191 forward $110 $-1 #
coedge $-1 $195 $112 $295 $296 reversed $67 $-1 #
edge $297 $298 -6 $197 17.3333333333333 $112 $299 forward 7 unknown #
coedge $-1 $210 $125 $113 $193 reversed $127 $-1 #
edge $-1 $198 -0.78539816339744828 $201 0.78539816339744828 $192 $300 forward 7 unknown #
edge $301 $121 -0.78539816339744828 $197 0.78539816339744828 $119 $302 forward 7 unknown #
coedge $-1 $115 $190 $210 $303 forward $67 $-1 #
attrib_edge_convexity-kcp-attrib $-1 $304 $-1 $116 3 #
vertex $-1 $191 $305 #
vertex $-1 $193 $306 #
straight-curve $-1 -20.000000000000025 0 6 0 1.5 0 I I #
attrib_edge_convexity-kcp-attrib $-1 $307 $-1 $118 3 #
vertex $-1 $134 $308 #
straight-curve $-1 -14.000000000000025 0 0 0 -1.5 0 I I #
convexity-sys-attrib $-1 $-1 $120 $72 #
point $-1 -14.000000000000025 -37.5 0 #
coedge $-1 $309 $123 $126 $209 reversed $187 $-1 #
coedge $-1 $123 $309 $130 $214 forward $187 $-1 #
straight-curve $-1 20.000000000000025 0 6 0 -1.5 0 I I #
coedge $-1 $126 $310 $311 $312 reversed $127 $-1 #
edge $313 $314 -6 $128 17.3333333333333 $205 $315 forward 7 unknown #
coedge $-1 $316 $192 $195 $303 reversed $127 $-1 #
face $317 $318 $127 $7 $-1 $319 forward single #
point $-1 20.000000000000025 37.5 6 #
coedge $-1 $320 $130 $321 $322 reversed $110 $-1 #
edge $323 $324 -6 $132 17.3333333333333 $206 $325 reversed 7 unknown #
convexity-sys-attrib $-1 $-1 $131 $77 #
point $-1 20.000000000000025 -37.5 6 #
model_id-kcp-attrib $-1 $326 $-1 $134 1 990548713 40 -1641545727 15 #
straight-curve $-1 4.9999999999999787 37.5 0 -1.5 0 0 I I #
model_id-kcp-attrib $-1 $-1 $-1 $139 1 990548713 40 -1641545726 5 #
face $327 $-1 $154 $15 $-1 $328 reversed single #
loop $-1 $-1 $236 $139 #
plane-surface $-1 0 20.000000000000025 0 0 -1 0 0 0 -1 forward_v I I I I #
coedge $-1 $329 $234 $237 $330 forward $140 $-1 #
coedge $-1 $240 $142 $143 $228 reversed $85 $-1 #
coedge $-1 $234 $329 $142 $226 reversed $140 $-1 #
edge $-1 $241 -37.5 $331 37.5 $225 $332 forward 7 unknown #
coedge $-1 $144 $143 $329 $333 forward $53 $-1 #
edge $-1 $232 -23.499999999999975 $331 23.499999999999975 $224 $334 forward 7 unknown #
coedge $-1 $237 $236 $144 $230 reversed $221 $-1 #
edge $-1 $335 -23.499999999999975 $231 23.499999999999975 $229 $336 forward 7 unknown #
vertex $-1 $146 $337 #
vertex $-1 $243 $338 #
straight-curve $-1 23.499999999999975 0 -37.5 0 -1 0 I I #
coedge $-1 $223 $225 $147 $235 reversed $140 $-1 #
edge $-1 $238 -20.000000000000025 $241 20.000000000000025 $234 $339 forward 7 unknown #
coedge $-1 $229 $148 $153 $244 forward $221 $-1 #
coedge $-1 $148 $229 $223 $330 reversed $221 $-1 #
vertex $-1 $149 $340 #
straight-curve $-1 0 20.000000000000025 37.5 -1 0 0 I I #
coedge $-1 $150 $224 $152 $243 reversed $85 $-1 #
vertex $-1 $235 $341 #
straight-curve $-1 0 -20.000000000000025 37.5 1 0 0 I I #
edge $-1 $155 -37.5 $232 37.5 $152 $342 forward 7 unknown #
edge $-1 $156 -37.5 $231 37.5 $153 $343 forward 7 unknown #
point $-1 23.499999999999975 -20.000000000000025 37.5 #
point $-1 23.499999999999975 20.000000000000025 37.5 #
face $-1 $344 $345 $56 $-1 $102 forward single #
loop $-1 $-1 $346 $158 #
coedge $-1 $347 $348 $349 $350 reversed $159 $-1 #
face $-1 $351 $352 $37 $-1 $60 reversed single #
loop $-1 $-1 $255 $161 #
coedge $-1 $353 $354 $253 $355 reversed $162 $-1 #
coedge $-1 $356 $163 $252 $355 forward $94 $-1 #
coedge $-1 $163 $356 $357 $358 reversed $94 $-1 #
coedge $-1 $359 $360 $163 $256 forward $251 $-1 #
edge $-1 $361 0 $362 1.5707963267948966 $255 $363 forward 7 unknown #
face $-1 $-1 $269 $25 $-1 $364 reversed single #
loop $-1 $-1 $365 $164 #
coedge $-1 $366 $367 $368 $369 forward $165 $-1 #
coedge $-1 $261 $166 $168 $267 forward $97 $-1 #
coedge $-1 $166 $260 $366 $370 forward $97 $-1 #
coedge $-1 $368 $169 $166 $263 reversed $269 $-1 #
edge $-1 $371 -1.5707963267948966 $271 0 $166 $372 forward 7 unknown #
coedge $-1 $168 $167 $373 $374 forward $59 $-1 #
coedge $-1 $365 $375 $167 $266 forward $258 $-1 #
edge $-1 $376 -23.499999999999975 $270 -17.499999999999975 $167 $377 forward 7 unknown #
edge $-1 $271 17.499999999999975 $378 23.499999999999975 $168 $379 forward 7 unknown #
coedge $-1 $169 $368 $365 $380 reversed $269 $-1 #
loop $-1 $-1 $268 $257 #
vertex $-1 $170 $381 #
vertex $-1 $267 $382 #
straight-curve $-1 17.499999999999975 20.000000000000025 -37.5 0 0 -1 I I #
loop $-1 $-1 $177 $171 #
plane-surface $-1 0 -20.000000000000025 0 0 1 0 0 0 1 forward_v I I I I #
coedge $-1 $383 $277 $176 $282 forward $172 $-1 #
coedge $-1 $174 $173 $384 $385 reversed $62 $-1 #
coedge $-1 $275 $383 $173 $278 forward $172 $-1 #
edge $-1 $386 -20.000000000000025 $280 -14.000000000000025 $173 $387 forward 7 unknown #
edge $-1 $182 14.000000000000025 $388 20.000000000000025 $174 $389 forward 7 unknown #
vertex $-1 $175 $390 #
straight-curve $-1 -23.499999999999975 -14.000000000000025 -37.5 0 0 -1 I I #
edge $-1 $280 -1.5707963267948966 $285 0 $275 $391 forward 7 unknown #
coedge $-1 $384 $177 $180 $287 reversed $273 $-1 #
coedge $-1 $177 $384 $383 $392 reversed $273 $-1 #
vertex $-1 $392 $393 #
straight-curve $-1 -17.499999999999975 -20.000000000000025 -37.5 0 0 -1 I I #
edge $-1 $388 -23.499999999999975 $181 -17.499999999999975 $283 $394 forward 7 unknown #
point $-1 -17.499999999999975 -20.000000000000025 37.5 #
point $-1 -23.499999999999975 -14.000000000000025 37.5 #
model_id-kcp-attrib $-1 $-1 $-1 $186 1 990548713 40 -1641545727 8 #
face $395 $211 $396 $7 $-1 $397 reversed single #
loop $-1 $-1 $398 $186 #
cone-surface $-1 14.000000000000025 0 40.99999999999995 0 -1 0 4.2426406871192848 0 4.2426406871192848 1 I I 0 1 5.9999999999999991 forward I I I I #
coedge $-1 $189 $320 $399 $400 reversed $110 $-1 #
coedge $-1 $399 $401 $190 $296 forward $402 $-1 #
edge $403 $404 -25 $298 25 $190 $405 forward 7 unknown #
attrib_edge_convexity-kcp-attrib $-1 $406 $-1 $191 1 #
vertex $-1 $400 $407 #
straight-curve $-1 -20.000000000000025 -37.5 31.99999999999995 0 0 -1.5 I I #
ellipse-curve $-1 -14.000000000000025 37.5 6 0 -1 0 -4.2426406871192848 0 -4.2426406871192848 1 I I #
attrib_edge_convexity-kcp-attrib $-1 $408 $-1 $194 1 #
ellipse-curve $-1 -14.000000000000025 -37.5 6 0 1 0 -4.2426406871192848 0 -4.2426406871192848 1 I I #
edge $409 $404 -6 $198 17.3333333333333 $195 $410 reversed 7 unknown #
convexity-sys-attrib $-1 $-1 $196 $116 #
point $-1 -20.000000000000025 -37.5 6 #
point $-1 -20.000000000000025 37.5 6 #
convexity-sys-attrib $-1 $-1 $200 $118 #
point $-1 -14.000000000000025 37.5 0 #
coedge $-1 $206 $205 $398 $411 reversed $187 $-1 #
coedge $-1 $208 $316 $412 $413 forward $127 $-1 #
coedge $-1 $414 $398 $208 $312 forward $292 $-1 #
edge $-1 $314 -0.78539816339744828 $415 0.78539816339744828 $208 $416 forward 7 unknown #
model_id-kcp-attrib $-1 $-1 $-1 $209 1 990548713 40 -1641545727 16 #
vertex $-1 $312 $417 #
straight-curve $-1 20.000000000000025 37.5 31.99999999999995 0 0 -1.5 I I #
coedge $-1 $310 $210 $401 $418 reversed $127 $-1 #
model_id-kcp-attrib $-1 $-1 $-1 $211 1 990548713 40 -1641545727 10 #
face $419 $-1 $402 $7 $-1 $420 forward single #
plane-surface $-1 -5.0000000000000249 37.5 31.99999999999995 0 1 0 0 0 1.5 forward_v I I I I #
coedge $-1 $294 $213 $421 $422 forward $110 $-1 #
coedge $-1 $398 $414 $213 $322 forward $292 $-1 #
edge $423 $424 -0.78539816339744828 $324 0.78539816339744828 $213 $425 forward 7 unknown #
attrib_edge_convexity-kcp-attrib $-1 $426 $-1 $214 1 #
vertex $-1 $214 $427 #
straight-curve $-1 20.000000000000025 -37.5 31.99999999999995 0 0 1.5 I I #
attrib_edge_convexity-kcp-attrib $-1 $428 $217 $134 1 #
model_id-kcp-attrib $-1 $-1 $-1 $220 1 990548713 40 -1641545726 6 #
plane-surface $-1 23.499999999999975 0 0 -1 0 0 0 0 1 forward_v I I I I #
coedge $-1 $225 $223 $227 $333 reversed $140 $-1 #
edge $-1 $238 -37.5 $335 37.5 $237 $429 forward 7 unknown #
vertex $-1 $333 $430 #
straight-curve $-1 -23.499999999999975 -20.000000000000025 0 0 0 -1 I I #
edge $-1 $331 -20.000000000000025 $335 20.000000000000025 $329 $431 forward 7 unknown #
straight-curve $-1 0 -20.000000000000025 -37.5 -1 0 0 I I #
vertex $-1 $230 $432 #
straight-curve $-1 0 20.000000000000025 -37.5 1 0 0 I I #
point $-1 23.499999999999975 20.000000000000025 -37.5 #
point $-1 23.499999999999975 -20.000000000000025 -37.5 #
straight-curve $-1 -23.499999999999975 0 37.5 0 -1 0 I I #
point $-1 -23.499999999999975 20.000000000000025 37.5 #
point $-1 -23.499999999999975 -20.000000000000025 37.5 #
straight-curve $-1 23.499999999999975 -20.000000000000025 0 0 0 -1 I I #
straight-curve $-1 23.499999999999975 20.000000000000025 0 0 0 -1 I I #
face $-1 $433 $434 $56 $-1 $274 reversed single #
loop $-1 $-1 $435 $247 #
coedge $-1 $436 $437 $438 $439 forward $248 $-1 #
coedge $-1 $440 $249 $441 $442 reversed $159 $-1 #
coedge $-1 $249 $440 $436 $443 reversed $159 $-1 #
coedge $-1 $438 $444 $249 $350 forward $445 $-1 #
edge $-1 $446 -75 $447 0 $249 $448 forward 7 unknown #
face $-1 $-1 $449 $37 $-1 $98 reversed single #
loop $-1 $-1 $357 $250 #
coedge $-1 $450 $252 $360 $451 reversed $162 $-1 #
coedge $-1 $252 $450 $452 $453 reversed $162 $-1 #
edge $-1 $361 -75 $454 0 $252 $455 forward 7 unknown #
coedge $-1 $254 $253 $456 $457 reversed $94 $-1 #
coedge $-1 $458 $459 $254 $358 forward $352 $-1 #
edge $-1 $362 -75 $460 0 $357 $461 forward 7 unknown #
coedge $-1 $360 $255 $459 $462 forward $251 $-1 #
coedge $-1 $255 $359 $353 $451 forward $251 $-1 #
vertex $-1 $256 $463 #
vertex $-1 $462 $464 #
ellipse-curve $-1 -17.499999999999975 14.000000000000025 37.5 0 0 -1 -6 0 0 1 I I #
cone-surface $-1 17.499999999999975 14.000000000000025 -37.5 0 0 -1 0 6 0 1 I I 0 1 6 forward I I I I #
coedge $-1 $375 $265 $268 $380 forward $258 $-1 #
coedge $-1 $373 $259 $261 $370 reversed $165 $-1 #
coedge $-1 $259 $373 $375 $465 reversed $165 $-1 #
coedge $-1 $268 $262 $259 $369 reversed $269 $-1 #
edge $-1 $466 -75 $371 0 $259 $467 forward 7 unknown #
edge $-1 $378 -20.000000000000025 $371 -14.000000000000025 $366 $468 forward 7 unknown #
vertex $-1 $263 $469 #
ellipse-curve $-1 17.499999999999975 14.000000000000025 -37.5 0 0 1 0 6 0 1 I I #
coedge $-1 $367 $366 $264 $374 reversed $165 $-1 #
edge $-1 $376 -37.5 $378 37.5 $373 $470 forward 7 unknown #
coedge $-1 $265 $365 $367 $465 forward $258 $-1 #
vertex $-1 $465 $471 #
straight-curve $-1 0 20.000000000000025 37.5 -1 0 0 I I #
vertex $-1 $370 $472 #
straight-curve $-1 0 20.000000000000025 -37.5 1 0 0 I I #
edge $-1 $270 0 $466 1.5707963267948966 $365 $473 forward 7 unknown #
point $-1 17.499999999999975 20.000000000000025 37.5 #
point $-1 17.499999999999975 20.000000000000025 -37.5 #
coedge $-1 $277 $275 $284 $392 forward $172 $-1 #
coedge $-1 $284 $283 $276 $385 forward $273 $-1 #
edge $-1 $388 -37.5 $386 37.5 $276 $474 forward 7 unknown #
vertex $-1 $278 $475 #
straight-curve $-1 -23.499999999999975 0 -37.5 0 1 0 I I #
vertex $-1 $279 $476 #
straight-curve $-1 -23.499999999999975 0 37.5 0 -1 0 I I #
point $-1 -23.499999999999975 -14.000000000000025 -37.5 #
ellipse-curve $-1 -17.499999999999975 -14.000000000000025 -37.5 0 0 1 0 -6 0 1 I I #
edge $-1 $285 17.499999999999975 $386 23.499999999999975 $284 $477 forward 7 unknown #
point $-1 -17.499999999999975 -20.000000000000025 -37.5 #
straight-curve $-1 0 -20.000000000000025 37.5 1 0 0 I I #
model_id-kcp-attrib $-1 $-1 $-1 $291 1 990548713 40 -1641545727 9 #
loop $-1 $-1 $421 $291 #
plane-surface $-1 -5.0000000000000249 0 46.99999999999995 0 0 -1 0 1.5 0 forward_v I I I I #
coedge $-1 $311 $321 $309 $411 forward $292 $-1 #
coedge $-1 $478 $295 $294 $400 forward $402 $-1 #
edge $479 $298 -0.78539816339744828 $480 0.78539816339744828 $294 $481 forward 7 unknown #
coedge $-1 $295 $478 $316 $418 forward $402 $-1 #
loop $-1 $-1 $478 $318 #
attrib_edge_convexity-kcp-attrib $-1 $482 $-1 $296 3 #
vertex $-1 $303 $483 #
straight-curve $-1 -20.000000000000025 0 40.99999999999995 0 -1.5 0 I I #
convexity-sys-attrib $-1 $-1 $297 $191 #
point $-1 -20.000000000000025 -37.5 40.99999999999995 #
convexity-sys-attrib $-1 $-1 $301 $194 #
model_id-kcp-attrib $-1 $484 $-1 $303 1 990548713 40 -1641545727 14 #
straight-curve $-1 -20.000000000000025 37.5 31.99999999999995 0 0 1.5 I I #
edge $-1 $324 -25 $314 25 $309 $485 forward 7 unknown #
coedge $-1 $486 $487 $310 $413 reversed $396 $-1 #
edge $488 $489 -6 $415 12.6666666666667 $412 $490 forward 7 unknown #
coedge $-1 $321 $311 $487 $491 forward $292 $-1 #
vertex $-1 $413 $492 #
ellipse-curve $-1 14.000000000000025 37.5 40.99999999999995 0 -1 0 4.2426406871192848 0 4.2426406871192848 1 I I #
point $-1 20.000000000000025 37.5 40.99999999999995 #
edge $-1 $489 -0.78539816339744828 $404 0.78539816339744828 $316 $493 forward 7 unknown #
model_id-kcp-attrib $-1 $-1 $-1 $318 1 990548713 40 -1641545727 11 #
cone-surface $-1 -14.000000000000025 0 40.99999999999995 0 -1 0 -4.2426406871192848 0 4.2426406871192848 1 I I 0 1 5.9999999999999991 forward I I I I #
coedge $-1 $487 $486 $320 $422 reversed $396 $-1 #
edge $494 $424 -6.0000000000000302 $480 12.66666666666667 $421 $495 forward 7 unknown #
attrib_edge_convexity-kcp-attrib $-1 $496 $-1 $322 1 #
vertex $-1 $491 $497 #
ellipse-curve $-1 14.000000000000025 -37.5 40.99999999999995 0 1 0 4.2426406871192848 0 4.2426406871192848 1 I I #
convexity-sys-attrib $-1 $-1 $323 $214 #
point $-1 20.000000000000025 -37.5 40.99999999999995 #
convexity-sys-attrib $-1 $-1 $326 $134 #
straight-curve $-1 -23.499999999999975 20.000000000000025 0 0 0 -1 I I #
point $-1 -23.499999999999975 -20.000000000000025 -37.5 #
straight-curve $-1 -23.499999999999975 0 -37.5 0 1 0 I I #
point $-1 -23.499999999999975 20.000000000000025 -37.5 #
face $-1 $-1 $445 $56 $-1 $498 reversed single #
loop $-1 $-1 $499 $344 #
coedge $-1 $500 $441 $444 $501 forward $345 $-1 #
coedge $-1 $437 $346 $348 $443 forward $248 $-1 #
coedge $-1 $346 $436 $502 $503 forward $248 $-1 #
coedge $-1 $504 $349 $346 $439 reversed $445 $-1 #
edge $-1 $505 -1.5707963267948966 $447 0 $346 $506 forward 7 unknown #
coedge $-1 $348 $347 $507 $508 forward $159 $-1 #
coedge $-1 $435 $500 $347 $442 forward $345 $-1 #
edge $-1 $509 -20.000000000000025 $446 -14.000000000000025 $347 $510 forward 7 unknown #
edge $-1 $447 14.000000000000025 $511 20.000000000000025 $348 $468 forward 7 unknown #
coedge $-1 $349 $504 $435 $501 reversed $445 $-1 #
loop $-1 $-1 $444 $433 #
vertex $-1 $350 $512 #
vertex $-1 $443 $513 #
straight-curve $-1 23.499999999999975 -14.000000000000025 -37.5 0 0 -1 I I #
loop $-1 $-1 $456 $351 #
coedge $-1 $354 $353 $514 $515 forward $162 $-1 #
edge $-1 $516 -20.000000000000025 $361 -14.000000000000025 $353 $389 forward 7 unknown #
coedge $-1 $517 $456 $354 $453 forward $449 $-1 #
edge $-1 $454 14.000000000000025 $518 20.000000000000025 $354 $387 forward 7 unknown #
vertex $-1 $453 $519 #
straight-curve $-1 -23.499999999999975 14.000000000000025 -37.5 0 0 -1 I I #
coedge $-1 $452 $517 $356 $457 forward $449 $-1 #
edge $-1 $460 -1.5707963267948966 $454 0 $456 $520 forward 7 unknown #
coedge $-1 $514 $357 $517 $521 reversed $352 $-1 #
coedge $-1 $357 $514 $359 $462 reversed $352 $-1 #
vertex $-1 $358 $522 #
straight-curve $-1 -17.499999999999975 20.000000000000025 -37.5 0 0 -1 I I #
edge $-1 $362 17.499999999999975 $516 23.499999999999975 $459 $377 forward 7 unknown #
point $-1 -23.499999999999975 14.000000000000025 37.5 #
point $-1 -17.499999999999975 20.000000000000025 37.5 #
edge $-1 $466 14.000000000000025 $376 20.000000000000025 $367 $510 forward 7 unknown #
vertex $-1 $465 $523 #
straight-curve $-1 23.499999999999975 14.000000000000025 -37.5 0 0 -1 I I #
straight-curve $-1 23.499999999999975 0 -37.5 0 -1 0 I I #
point $-1 23.499999999999975 14.000000000000025 -37.5 #
straight-curve $-1 23.499999999999975 20.000000000000025 0 0 0 -1 I I #
point $-1 23.499999999999975 20.000000000000025 37.5 #
point $-1 23.499999999999975 20.000000000000025 -37.5 #
ellipse-curve $-1 17.499999999999975 14.000000000000025 37.5 0 0 -1 0 6 0 1 I I #
straight-curve $-1 -23.499999999999975 -20.000000000000025 0 0 0 -1 I I #
point $-1 -23.499999999999975 -20.000000000000025 -37.5 #
point $-1 -23.499999999999975 -20.000000000000025 37.5 #
straight-curve $-1 0 -20.000000000000025 -37.5 -1 0 0 I I #
coedge $-1 $401 $399 $486 $524 forward $402 $-1 #
attrib_edge_convexity-kcp-attrib $-1 $525 $-1 $400 1 #
vertex $-1 $422 $526 #
ellipse-curve $-1 -14.000000000000025 -37.5 40.99999999999995 0 1 0 -4.2426406871192848 0 4.2426406871192848 1 I I #
convexity-sys-attrib $-1 $-1 $403 $296 #
point $-1 -20.000000000000025 37.5 40.99999999999995 #
attrib_edge_convexity-kcp-attrib $-1 $527 $409 $303 1 #
straight-curve $-1 20.000000000000025 0 40.99999999999995 0 1.5 0 I I #
coedge $-1 $421 $412 $478 $524 reversed $396 $-1 #
coedge $-1 $412 $421 $414 $491 reversed $396 $-1 #
model_id-kcp-attrib $-1 $-1 $-1 $413 1 990548713 40 -1641545727 13 #
vertex $-1 $524 $528 #
straight-curve $-1 -5.0000000000000249 37.5 46.99999999999995 1.5 0 0 I I #
edge $-1 $415 -25 $424 25 $487 $529 forward 7 unknown #
point $-1 14.000000000000025 37.5 46.99999999999995 #
ellipse-curve $-1 -14.000000000000025 37.5 40.99999999999995 0 -1 0 -4.2426406871192848 0 4.2426406871192848 1 I I #
attrib_edge_convexity-kcp-attrib $-1 $530 $-1 $422 1 #
straight-curve $-1 4.9999999999999787 -37.5 46.99999999999995 -1.5 0 0 I I #
convexity-sys-attrib $-1 $-1 $423 $322 #
point $-1 14.000000000000025 -37.5 46.99999999999995 #
cone-surface $-1 17.499999999999975 -14.000000000000025 -37.5 0 0 -1 6 0 0 1 I I 0 1 6 forward I I I I #
coedge $-1 $502 $531 $504 $532 forward $434 $-1 #
coedge $-1 $441 $435 $531 $533 forward $345 $-1 #
edge $-1 $446 0 $534 1.5707963267948966 $435 $535 forward 7 unknown #
coedge $-1 $507 $499 $437 $503 reversed $434 $-1 #
edge $-1 $511 -23.499999999999975 $505 -17.499999999999975 $502 $477 forward 7 unknown #
coedge $-1 $444 $438 $499 $532 reversed $445 $-1 #
vertex $-1 $439 $536 #
ellipse-curve $-1 17.499999999999975 -14.000000000000025 -37.5 0 0 1 6 0 0 1 I I #
coedge $-1 $531 $502 $440 $508 reversed $434 $-1 #
edge $-1 $509 -37.5 $511 37.5 $440 $537 forward 7 unknown #
vertex $-1 $442 $538 #
straight-curve $-1 23.499999999999975 0 37.5 0 1 0 I I #
vertex $-1 $508 $539 #
point $-1 23.499999999999975 -14.000000000000025 37.5 #
point $-1 23.499999999999975 -14.000000000000025 -37.5 #
coedge $-1 $459 $458 $450 $515 reversed $352 $-1 #
edge $-1 $516 -37.5 $518 37.5 $514 $540 forward 7 unknown #
vertex $-1 $462 $541 #
coedge $-1 $456 $452 $458 $521 forward $449 $-1 #
vertex $-1 $521 $542 #
point $-1 -23.499999999999975 14.000000000000025 -37.5 #
ellipse-curve $-1 -17.499999999999975 14.000000000000025 -37.5 0 0 1 -6 0 0 1 I I #
edge $-1 $518 -23.499999999999975 $460 -17.499999999999975 $458 $379 forward 7 unknown #
point $-1 -17.499999999999975 20.000000000000025 -37.5 #
point $-1 23.499999999999975 14.000000000000025 37.5 #
edge $-1 $480 -25 $489 25 $486 $543 forward 7 unknown #
convexity-sys-attrib $-1 $-1 $479 $400 #
point $-1 -14.000000000000025 -37.5 46.99999999999995 #
convexity-sys-attrib $-1 $-1 $484 $303 #
point $-1 -14.000000000000025 37.5 46.99999999999995 #
straight-curve $-1 14.000000000000025 0 46.99999999999995 0 -1.5 0 I I #
convexity-sys-attrib $-1 $-1 $494 $422 #
coedge $-1 $499 $507 $500 $533 reversed $434 $-1 #
edge $-1 $534 -75 $505 0 $499 $544 forward 7 unknown #
edge $-1 $534 17.499999999999975 $509 23.499999999999975 $531 $394 forward 7 unknown #
vertex $-1 $533 $545 #
ellipse-curve $-1 17.499999999999975 -14.000000000000025 37.5 0 0 -1 6 0 0 1 I I #
point $-1 17.499999999999975 -20.000000000000025 -37.5 #
straight-curve $-1 23.499999999999975 -20.000000000000025 0 0 0 -1 I I #
point $-1 23.499999999999975 -20.000000000000025 37.5 #
point $-1 23.499999999999975 -20.000000000000025 -37.5 #
straight-curve $-1 -23.499999999999975 20.000000000000025 0 0 0 -1 I I #
point $-1 -23.499999999999975 20.000000000000025 37.5 #
point $-1 -23.499999999999975 20.000000000000025 -37.5 #
straight-curve $-1 -14.000000000000025 0 46.99999999999995 0 1.5 0 I I #
straight-curve $-1 17.499999999999975 -20.000000000000025 -37.5 0 0 -1 I I #
point $-1 17.499999999999975 -20.000000000000025 37.5 #
End-of-ACIS-data 