103 581 0 0                                 
body $-1 $1 $-1 $-1 #
lump $-1 $-1 $2 $0 #
shell $-1 $-1 $-1 $3 $1 #
face $-1 $4 $5 $2 $-1 $6 1 #
face $-1 $7 $8 $2 $-1 $9 1 #
loop $-1 $10 $11 $3 #
cone-surface $-1 0 -0.41 1.296 0 0 1 0.126 0 0 1 0 1 0 #
face $-1 $12 $13 $2 $-1 $14 1 #
loop $-1 $15 $16 $4 #
cone-surface $-1 0 0.48 1.141 0 0 1 0.126 0 0 1 0 1 0 #
loop $-1 $-1 $17 $3 #
coedge $-1 $11 $11 $18 $19 0 $5 $-1 #
face $-1 $20 $21 $2 $-1 $22 1 #
loop $-1 $23 $24 $7 #
plane-surface $-1 0 -0.41 1.296 0 0 -1 -1 0 0 0 #
loop $-1 $-1 $25 $4 #
coedge $-1 $16 $16 $26 $27 0 $8 $-1 #
coedge $-1 $17 $17 $28 $29 1 $10 $-1 #
coedge $-1 $18 $18 $11 $19 1 $23 $-1 #
edge $-1 $30 $30 $11 $31 0 #
face $-1 $32 $33 $2 $-1 $34 1 #
loop $-1 $35 $36 $12 #
cone-surface $-1 0 -0.41 1.136 0 0 1 0.0445 0 0 1 0 1 0 #
loop $-1 $-1 $18 $7 #
coedge $-1 $24 $24 $37 $38 0 $13 $-1 #
coedge $-1 $25 $25 $39 $40 1 $15 $-1 #
coedge $-1 $26 $26 $16 $27 1 $41 $-1 #
edge $-1 $42 $42 $16 $43 0 #
coedge $-1 $28 $28 $17 $29 0 $44 $-1 #
edge $-1 $45 $45 $17 $46 0 #
vertex $-1 $19 $47 #
ellipse-curve $-1 0 -0.41 1.296 0 0 -1 0.126 0 0 1 #
face $-1 $48 $49 $2 $-1 $50 1 #
loop $-1 $41 $51 $20 #
plane-surface $-1 0 0.48 1.141 0 0 -1 -1 0 0 0 #
loop $-1 $-1 $37 $12 #
coedge $-1 $36 $36 $52 $53 0 $21 $-1 #
coedge $-1 $37 $37 $24 $38 1 $35 $-1 #
edge $-1 $54 $54 $24 $55 0 #
coedge $-1 $39 $39 $25 $40 0 $56 $-1 #
edge $-1 $57 $57 $25 $58 0 #
loop $-1 $-1 $26 $20 #
vertex $-1 $27 $59 #
ellipse-curve $-1 0 0.48 1.141 0 0 -1 0.126 0 0 1 #
loop $-1 $-1 $28 $60 #
vertex $-1 $29 $61 #
ellipse-curve $-1 0 -0.41 1.486 0 0 -1 0.126 0 0 1 #
point $-1 0 -0.284 1.296 #
face $-1 $62 $63 $2 $-1 $64 1 #
loop $-1 $65 $66 $32 #
cone-surface $-1 0 0.48 0.986 0 0 1 0.0445 0 0 1 0 1 0 #
coedge $-1 $51 $51 $66 $67 1 $33 $-1 #
coedge $-1 $52 $52 $36 $53 1 $68 $-1 #
edge $-1 $69 $69 $36 $70 0 #
vertex $-1 $38 $71 #
ellipse-curve $-1 0 -0.41 1.296 0 0 -1 0.0445 0 0 1 #
loop $-1 $-1 $39 $72 #
vertex $-1 $40 $73 #
ellipse-curve $-1 0 0.48 1.331 0 0 -1 0.126 0 0 1 #
point $-1 0 0.606 1.141 #
face $-1 $74 $75 $2 $-1 $76 1 #
point $-1 0 -0.284 1.486 #
face $-1 $77 $78 $2 $-1 $79 1 #
loop $-1 $-1 $80 $48 #
plane-surface $-1 0 0.48 0.986 0 0 -1 -1 0 0 0 #
loop $-1 $-1 $81 $32 #
coedge $-1 $66 $66 $51 $67 0 $49 $-1 #
edge $-1 $82 $82 $51 $83 0 #
loop $-1 $-1 $52 $84 #
vertex $-1 $53 $85 #
ellipse-curve $-1 0 -0.41 1.136 0 0 -1 0.0445 0 0 1 #
point $-1 0 -0.3655 1.296 #
face $-1 $86 $87 $2 $-1 $88 1 #
point $-1 0 0.606 1.331 #
face $-1 $89 $90 $2 $-1 $91 1 #
loop $-1 $44 $92 $60 #
plane-surface $-1 0 0 1.486 0 0 -1 -1 0 0 0 #
face $-1 $93 $94 $2 $-1 $95 1 #
loop $-1 $-1 $96 $62 #
cone-surface $-1 0 -0.725 1.271 0 0 1 0.075 0 0 1 0 1 0 #
coedge $-1 $80 $80 $81 $97 1 $63 $-1 #
coedge $-1 $81 $81 $80 $97 0 $65 $-1 #
vertex $-1 $67 $98 #
ellipse-curve $-1 0 0.48 1.141 0 0 1 0.0445 0 0 1 #
face $-1 $99 $100 $2 $-1 $101 0 #
point $-1 0 -0.3655 1.136 #
face $-1 $102 $103 $2 $-1 $104 1 #
loop $-1 $56 $105 $72 #
plane-surface $-1 -0.25 -0.22 1.331 0 0 -1 -1 0 0 0 #
face $-1 $106 $107 $2 $-1 $108 1 #
loop $-1 $-1 $109 $74 #
plane-surface $-1 -0.163 -0.7 0 0 -1 0 0 0 -1 0 #
coedge $-1 $110 $111 $112 $113 0 $75 $-1 #
face $-1 $114 $115 $2 $-1 $116 1 #
loop $-1 $117 $118 $77 #
plane-surface $-1 -0.075 -0.9 1.271 0 0 -1 -1 0 0 0 #
coedge $-1 $119 $120 $121 $122 1 $78 $-1 #
edge $-1 $123 $123 $81 $124 0 #
point $-1 0.019901004999748 0.440197990000504 1.141 #
face $-1 $125 $126 $2 $-1 $127 1 #
loop $-1 $68 $128 $84 #
plane-surface $-1 0 -0.41 1.136 0 0 -1 -1 0 0 0 #
face $-1 $129 $130 $2 $-1 $131 1 #
loop $-1 $-1 $132 $86 #
plane-surface $-1 0.163 0 0.536 -1 0 0 0 0 1 0 #
coedge $-1 $133 $134 $135 $136 0 $87 $-1 #
face $-1 $137 $138 $2 $-1 $139 1 #
loop $-1 $-1 $140 $89 #
plane-surface $-1 -0.163 0 1.271 0 0 1 1 0 0 0 #
coedge $-1 $141 $142 $143 $144 0 $90 $-1 #
coedge $-1 $145 $92 $146 $147 0 $75 $-1 #
coedge $-1 $92 $148 $149 $150 0 $75 $-1 #
coedge $-1 $151 $152 $92 $113 1 $153 $-1 #
edge $-1 $154 $155 $92 $156 0 #
face $-1 $157 $158 $2 $-1 $159 1 #
loop $-1 $160 $161 $93 #
cone-surface $-1 0.03 -0.735 1.121 0 0 1 0.026 0 0 1 0 1 0 #
loop $-1 $-1 $162 $77 #
coedge $-1 $118 $118 $163 $164 0 $94 $-1 #
coedge $-1 $165 $96 $148 $166 1 $78 $-1 #
coedge $-1 $96 $165 $167 $168 0 $78 $-1 #
coedge $-1 $169 $149 $96 $122 0 $170 $-1 #
edge $-1 $171 $172 $96 $173 0 #
vertex $-1 $97 $174 #
ellipse-curve $-1 0 0.48 0.986 0 0 -1 0.0445 0 0 1 #
face $-1 $175 $176 $2 $-1 $177 1 #
loop $-1 $178 $179 $99 #
cone-surface $-1 0.25 -0.81 1.4 -1 0 0 0 -0.0495 0 1 0 1 0 #
coedge $-1 $128 $128 $180 $181 0 $100 $-1 #
face $-1 $-1 $182 $2 $-1 $183 1 #
loop $-1 $-1 $184 $102 #
plane-surface $-1 -0.163 0.65 0 1 0 0 0 0 -1 0 #
coedge $-1 $185 $186 $187 $188 0 $103 $-1 #
coedge $-1 $187 $105 $189 $190 1 $87 $-1 #
coedge $-1 $105 $187 $191 $192 0 $87 $-1 #
coedge $-1 $193 $194 $105 $136 1 $130 $-1 #
edge $-1 $195 $196 $105 $197 0 #
face $-1 $198 $153 $2 $-1 $199 0 #
loop $-1 $-1 $200 $106 #
plane-surface $-1 0 -0.9 0.536 0 1 0 0 0 1 0 #
coedge $-1 $201 $202 $203 $204 0 $107 $-1 #
coedge $-1 $205 $109 $206 $207 1 $90 $-1 #
coedge $-1 $109 $205 $201 $208 0 $90 $-1 #
coedge $-1 $203 $209 $109 $144 1 $210 $-1 #
edge $-1 $211 $212 $143 $213 0 #
coedge $-1 $214 $110 $215 $216 0 $75 $-1 #
coedge $-1 $217 $218 $110 $147 1 $219 $-1 #
edge $-1 $155 $220 $146 $221 0 #
coedge $-1 $111 $222 $119 $166 0 $75 $-1 #
coedge $-1 $121 $223 $111 $150 1 $170 $-1 #
edge $-1 $171 $154 $149 $224 0 #
coedge $-1 $225 $112 $223 $226 1 $153 $-1 #
coedge $-1 $112 $225 $217 $227 1 $153 $-1 #
loop $-1 $-1 $112 $137 #
vertex $-1 $226 $228 #
vertex $-1 $227 $229 #
straight-curve $-1 0.2175 -0.83 1.486 1 0 0 #
face $-1 $230 $231 $2 $-1 $232 1 #
loop $-1 $-1 $233 $114 #
plane-surface $-1 0.03 -0.735 1.121 0 0 -1 -1 0 0 0 #
loop $-1 $-1 $163 $93 #
coedge $-1 $161 $161 $233 $234 0 $115 $-1 #
coedge $-1 $167 $235 $169 $236 1 $117 $-1 #
coedge $-1 $163 $163 $118 $164 1 $160 $-1 #
edge $-1 $237 $237 $118 $238 0 #
coedge $-1 $120 $119 $239 $240 0 $78 $-1 #
edge $-1 $241 $171 $119 $242 0 #
coedge $-1 $243 $162 $120 $168 1 $117 $-1 #
edge $-1 $244 $172 $120 $245 0 #
coedge $-1 $246 $121 $162 $236 0 $170 $-1 #
loop $-1 $-1 $223 $230 #
vertex $-1 $122 $247 #
vertex $-1 $122 $248 #
straight-curve $-1 0.075 -0.725 1.271 0 0 -1 #
point $-1 0 0.5245 0.986 #
face $-1 $249 $250 $2 $-1 $251 1 #
loop $-1 $219 $252 $125 #
plane-surface $-1 0.2175 0 1.271 -1 0 0 0 0 1 0 #
loop $-1 $-1 $253 $99 #
coedge $-1 $179 $179 $252 $254 1 $126 $-1 #
coedge $-1 $180 $180 $128 $181 1 $255 $-1 #
edge $-1 $256 $256 $180 $257 0 #
loop $-1 $-1 $258 $129 #
plane-surface $-1 0.163 -0.5055 0.5055 0 0.707106781186548 -0.707106781186548 -1 0 0 0 #
coedge $-1 $194 $259 $260 $261 1 $130 $-1 #
coedge $-1 $262 $132 $258 $263 1 $103 $-1 #
coedge $-1 $132 $264 $265 $266 0 $103 $-1 #
coedge $-1 $134 $133 $132 $188 1 $87 $-1 #
edge $-1 $267 $268 $187 $269 0 #
coedge $-1 $270 $258 $133 $190 0 $182 $-1 #
edge $-1 $268 $196 $133 $271 0 #
coedge $-1 $265 $272 $134 $192 1 $273 $-1 #
edge $-1 $267 $195 $191 $274 0 #
coedge $-1 $275 $135 $272 $276 1 $130 $-1 #
coedge $-1 $135 $184 $270 $277 0 $130 $-1 #
vertex $-1 $276 $278 #
vertex $-1 $136 $279 #
straight-curve $-1 -0.163 0 1.331 0 -1 0 #
face $-1 $280 $281 $2 $-1 $282 0 #
cone-surface $-1 0.2175 -0.83 1.416 -1 0 0 0 -0.07 0 1 0 1 0 #
coedge $-1 $283 $284 $285 $286 0 $138 $-1 #
coedge $-1 $287 $140 $142 $208 1 $107 $-1 #
coedge $-1 $140 $287 $288 $289 0 $107 $-1 #
coedge $-1 $290 $143 $140 $204 1 $210 $-1 #
edge $-1 $291 $211 $203 $292 0 #
coedge $-1 $142 $141 $293 $294 0 $90 $-1 #
coedge $-1 $295 $296 $141 $207 0 $75 $-1 #
edge $-1 $297 $212 $206 $298 0 #
edge $-1 $299 $211 $142 $300 0 #
coedge $-1 $143 $301 $295 $302 1 $210 $-1 #
loop $-1 $-1 $301 $249 #
vertex $-1 $144 $303 #
vertex $-1 $302 $304 #
straight-curve $-1 -0.2175 -0.7 1.271 0 0 1 #
coedge $-1 $305 $145 $306 $307 1 $75 $-1 #
coedge $-1 $308 $309 $145 $216 1 $310 $-1 #
edge $-1 $220 $311 $215 $312 0 #
coedge $-1 $313 $146 $152 $227 0 $219 $-1 #
coedge $-1 $146 $314 $308 $315 1 $219 $-1 #
loop $-1 $-1 $217 $125 #
vertex $-1 $315 $316 #
straight-curve $-1 0.2175 0 1.486 0 1 0 #
coedge $-1 $148 $317 $318 $319 0 $75 $-1 #
coedge $-1 $149 $246 $151 $226 0 $170 $-1 #
straight-curve $-1 0.075 0 1.486 0 -1 0 #
coedge $-1 $152 $151 $320 $321 0 $153 $-1 #
edge $-1 $322 $154 $223 $323 0 #
edge $-1 $155 $324 $217 $325 0 #
point $-1 0.075 -0.83 1.486 #
point $-1 0.2175 -0.83 1.486 #
face $-1 $326 $327 $2 $-1 $328 1 #
loop $-1 $329 $330 $157 #
plane-surface $-1 -0.075 0 1.271 -1 0 0 0 0 1 0 #
coedge $-1 $233 $233 $161 $234 1 $158 $-1 #
edge $-1 $331 $331 $161 $332 0 #
coedge $-1 $162 $243 $333 $334 1 $117 $-1 #
edge $-1 $172 $335 $162 $336 0 #
vertex $-1 $164 $337 #
ellipse-curve $-1 0.03 -0.735 1.271 0 0 -1 0.026 0 0 1 #
coedge $-1 $318 $338 $165 $240 1 $329 $-1 #
edge $-1 $241 $244 $165 $339 0 #
vertex $-1 $166 $340 #
ellipse-curve $-1 0 -0.725 1.486 0 0 -1 0.075 0 0 1 #
coedge $-1 $235 $167 $338 $341 1 $117 $-1 #
vertex $-1 $240 $342 #
ellipse-curve $-1 0 -0.725 1.271 0 0 -1 0.075 0 0 1 #
coedge $-1 $223 $169 $343 $344 0 $170 $-1 #
point $-1 0.075 -0.725 1.486 #
point $-1 0.075 -0.725 1.271 #
face $-1 $345 $346 $2 $-1 $347 1 #
loop $-1 $348 $349 $175 #
cone-surface $-1 0.25 -0.81 1.4 -1 0 0 0 -0.0495 0 1 0 1 0 #
coedge $-1 $252 $252 $179 $254 0 $176 $-1 #
coedge $-1 $253 $253 $350 $351 0 $178 $-1 #
edge $-1 $352 $352 $179 $353 0 #
loop $-1 $354 $180 $326 #
vertex $-1 $181 $355 #
ellipse-curve $-1 0 -0.41 1.136 0 0 -1 0.126 0 0 1 #
coedge $-1 $189 $356 $185 $263 0 $182 $-1 #
coedge $-1 $184 $357 $358 $359 1 $130 $-1 #
coedge $-1 $360 $361 $184 $261 0 $362 $-1 #
edge $-1 $363 $364 $260 $365 0 #
coedge $-1 $366 $185 $367 $368 0 $103 $-1 #
edge $-1 $369 $268 $185 $370 0 #
coedge $-1 $186 $371 $372 $373 1 $103 $-1 #
coedge $-1 $374 $191 $186 $266 1 $273 $-1 #
edge $-1 $375 $267 $265 $376 0 #
vertex $-1 $266 $377 #
vertex $-1 $190 $378 #
straight-curve $-1 0.163 0 1.331 0 -1 0 #
coedge $-1 $356 $189 $194 $277 1 $182 $-1 #
straight-curve $-1 0 0.32 1.331 -1 0 0 #
coedge $-1 $191 $374 $193 $276 0 $273 $-1 #
loop $-1 $-1 $265 $280 #
straight-curve $-1 0 0.65 1.331 -1 0 0 #
coedge $-1 $379 $193 $380 $381 0 $130 $-1 #
edge $-1 $382 $195 $272 $383 0 #
edge $-1 $363 $196 $194 $384 0 #
point $-1 -0.163 0.65 1.331 #
point $-1 -0.163 0.32 1.331 #
face $-1 $385 $273 $2 $-1 $386 1 #
loop $-1 $-1 $387 $198 #
cone-surface $-1 0.2175 -0.83 1.416 -1 0 0 0 -0.07 0 1 0 1 0 #
coedge $-1 $388 $200 $389 $390 1 $138 $-1 #
coedge $-1 $200 $288 $391 $392 0 $138 $-1 #
coedge $-1 $393 $394 $200 $286 1 $395 $-1 #
edge $-1 $396 $397 $200 $398 0 #
coedge $-1 $202 $201 $399 $400 0 $107 $-1 #
coedge $-1 $284 $401 $202 $289 1 $138 $-1 #
edge $-1 $402 $291 $202 $403 0 #
coedge $-1 $301 $203 $401 $404 0 $210 $-1 #
vertex $-1 $204 $405 #
straight-curve $-1 -0.2175 0 1.271 0 1 0 #
coedge $-1 $406 $399 $205 $294 1 $130 $-1 #
edge $-1 $297 $299 $205 $407 0 #
coedge $-1 $317 $206 $209 $302 0 $75 $-1 #
coedge $-1 $206 $305 $406 $408 0 $75 $-1 #
vertex $-1 $408 $409 #
straight-curve $-1 -0.413 -0.7 1.486 -1 0 0 #
vertex $-1 $294 $410 #
straight-curve $-1 -0.413 -0.7 1.271 -1 0 0 #
coedge $-1 $209 $290 $411 $412 1 $210 $-1 #
edge $-1 $212 $413 $209 $414 0 #
point $-1 -0.2175 -0.7 1.271 #
point $-1 -0.2175 -0.7 1.486 #
coedge $-1 $296 $214 $415 $416 0 $75 $-1 #
coedge $-1 $417 $418 $214 $307 0 $103 $-1 #
edge $-1 $419 $311 $214 $420 0 #
coedge $-1 $421 $215 $218 $315 0 $310 $-1 #
coedge $-1 $215 $421 $417 $422 1 $310 $-1 #
loop $-1 $-1 $308 $345 #
vertex $-1 $422 $423 #
straight-curve $-1 0 -0.7 1.486 -1 0 0 #
coedge $-1 $314 $217 $424 $425 1 $219 $-1 #
coedge $-1 $218 $313 $426 $427 1 $219 $-1 #
edge $-1 $220 $428 $218 $429 0 #
point $-1 0.2175 -0.7 1.486 #
coedge $-1 $222 $295 $430 $431 0 $75 $-1 #
coedge $-1 $432 $239 $222 $319 1 $329 $-1 #
edge $-1 $433 $241 $318 $434 0 #
coedge $-1 $343 $424 $225 $321 1 $138 $-1 #
edge $-1 $322 $324 $320 $435 0 #
vertex $-1 $226 $436 #
ellipse-curve $-1 0.075 -0.83 1.416 -1 0 0 0 -0.07 0 1 #
vertex $-1 $227 $437 #
ellipse-curve $-1 0.2175 -0.83 1.416 1 0 0 0 0.07 0 1 #
face $-1 $84 $255 $2 $-1 $438 1 #
loop $-1 $170 $350 $230 #
plane-surface $-1 0.075 0 1.271 1 0 0 0 0 -1 0 #
loop $-1 $-1 $432 $157 #
coedge $-1 $330 $330 $439 $440 1 $231 $-1 #
vertex $-1 $234 $441 #
ellipse-curve $-1 0.03 -0.735 1.121 0 0 -1 0.026 0 0 1 #
coedge $-1 $442 $343 $235 $334 0 $138 $-1 #
edge $-1 $335 $443 $235 $444 0 #
vertex $-1 $236 $445 #
straight-curve $-1 0.075 0 1.271 0 -1 0 #
point $-1 0.03 -0.709 1.271 #
coedge $-1 $239 $446 $243 $341 0 $329 $-1 #
straight-curve $-1 -0.075 -0.725 1.271 0 0 -1 #
point $-1 -0.075 -0.725 1.486 #
edge $-1 $443 $244 $243 $447 0 #
point $-1 -0.075 -0.725 1.271 #
coedge $-1 $333 $320 $246 $344 1 $138 $-1 #
edge $-1 $335 $322 $246 $448 0 #
face $-1 $449 $310 $2 $-1 $450 1 #
loop $-1 $210 $451 $249 #
plane-surface $-1 -0.2175 0 1.271 1 0 0 0 0 -1 0 #
loop $-1 $-1 $439 $175 #
coedge $-1 $349 $349 $451 $452 1 $250 $-1 #
coedge $-1 $350 $350 $253 $351 1 $327 $-1 #
edge $-1 $453 $453 $350 $454 0 #
vertex $-1 $254 $455 #
ellipse-curve $-1 0.2175 -0.81 1.4 -1 0 0 0 -0.0495 0 1 #
loop $-1 $-1 $456 $326 #
point $-1 0 -0.284 1.136 #
coedge $-1 $258 $270 $361 $457 1 $182 $-1 #
coedge $-1 $259 $406 $458 $459 1 $130 $-1 #
coedge $-1 $460 $461 $259 $359 0 $462 $-1 #
edge $-1 $364 $463 $358 $464 0 #
coedge $-1 $367 $260 $461 $465 0 $362 $-1 #
coedge $-1 $260 $367 $356 $457 0 $362 $-1 #
loop $-1 $-1 $367 $466 #
vertex $-1 $457 $467 #
vertex $-1 $465 $468 #
straight-curve $-1 -0.163 0.3 0 0 0 -1 #
coedge $-1 $418 $262 $469 $470 0 $103 $-1 #
coedge $-1 $361 $360 $262 $368 1 $362 $-1 #
edge $-1 $369 $471 $367 $472 0 #
vertex $-1 $368 $473 #
straight-curve $-1 0.163 -0.5055 0.5055 0 0.707106781186548 0.707106781186548 #
coedge $-1 $264 $389 $394 $474 0 $103 $-1 #
coedge $-1 $475 $476 $264 $373 0 $477 $-1 #
edge $-1 $375 $478 $372 $479 0 #
coedge $-1 $272 $265 $476 $480 0 $273 $-1 #
vertex $-1 $266 $481 #
straight-curve $-1 0.163 0.65 0 0 0 1 #
point $-1 0.163 0.65 1.331 #
point $-1 0.163 0.32 1.331 #
coedge $-1 $391 $275 $393 $482 0 $130 $-1 #
coedge $-1 $476 $475 $275 $381 1 $477 $-1 #
edge $-1 $382 $483 $380 $484 0 #
vertex $-1 $480 $485 #
straight-curve $-1 -0.163 0.65 0 0 0 1 #
straight-curve $-1 -0.163 -0.5055 0.5055 0 0.707106781186548 0.707106781186548 #
face $-1 $486 $395 $2 $-1 $487 1 #
plane-surface $-1 0 0.65 0.536 0 -1 0 0 0 -1 0 #
coedge $-1 $488 $411 $489 $490 0 $281 $-1 #
coedge $-1 $424 $283 $491 $492 1 $138 $-1 #
coedge $-1 $371 $493 $283 $390 0 $103 $-1 #
edge $-1 $494 $397 $283 $495 0 #
coedge $-1 $399 $379 $284 $392 1 $130 $-1 #
edge $-1 $402 $396 $284 $496 0 #
coedge $-1 $497 $285 $379 $482 1 $395 $-1 #
coedge $-1 $285 $497 $371 $474 1 $395 $-1 #
loop $-1 $498 $393 $385 #
vertex $-1 $286 $499 #
vertex $-1 $286 $500 #
straight-curve $-1 0 -0.9 0.83 1 0 0 #
coedge $-1 $293 $391 $287 $400 1 $130 $-1 #
edge $-1 $299 $402 $287 $501 0 #
coedge $-1 $288 $489 $290 $404 1 $138 $-1 #
vertex $-1 $400 $502 #
straight-curve $-1 -0.413 -0.9 1.271 -1 0 0 #
edge $-1 $291 $503 $290 $504 0 #
point $-1 -0.2175 -0.9 1.271 #
coedge $-1 $357 $293 $296 $408 1 $130 $-1 #
straight-curve $-1 -0.163 -0.7 0 0 0 -1 #
edge $-1 $505 $297 $296 $506 0 #
point $-1 -0.163 -0.7 1.486 #
point $-1 -0.163 -0.7 1.271 #
coedge $-1 $387 $430 $301 $412 0 $281 $-1 #
edge $-1 $413 $503 $301 $507 0 #
vertex $-1 $412 $508 #
straight-curve $-1 -0.2175 0 1.486 0 -1 0 #
coedge $-1 $509 $458 $305 $416 1 $510 $-1 #
edge $-1 $419 $505 $415 $511 0 #
coedge $-1 $493 $306 $309 $422 0 $103 $-1 #
coedge $-1 $306 $366 $509 $512 0 $103 $-1 #
vertex $-1 $416 $513 #
straight-curve $-1 0.163 0 1.486 0 -1 0 #
coedge $-1 $309 $308 $514 $515 0 $310 $-1 #
edge $-1 $311 $516 $309 $517 0 #
point $-1 0.163 -0.7 1.486 #
coedge $-1 $320 $388 $313 $425 0 $138 $-1 #
edge $-1 $518 $324 $313 $519 0 #
coedge $-1 $491 $514 $314 $427 0 $520 $-1 #
edge $-1 $428 $518 $314 $521 0 #
vertex $-1 $427 $522 #
straight-curve $-1 0.2175 -0.7 1.271 0 0 -1 #
coedge $-1 $411 $488 $317 $431 1 $281 $-1 #
edge $-1 $413 $433 $317 $523 0 #
coedge $-1 $446 $318 $488 $524 0 $329 $-1 #
vertex $-1 $524 $525 #
straight-curve $-1 -0.075 0 1.486 0 1 0 #
straight-curve $-1 0.2175 -0.9 1.416 1 0 0 #
point $-1 0.075 -0.9 1.416 #
point $-1 0.2175 -0.9 1.416 #
cone-surface $-1 0 -0.41 0 0 0 1 0.126 0 0 1 0 1 0 #
coedge $-1 $439 $439 $330 $440 0 $348 $-1 #
edge $-1 $526 $526 $330 $527 0 #
point $-1 0.03 -0.709 1.121 #
coedge $-1 $489 $333 $446 $528 0 $138 $-1 #
vertex $-1 $341 $529 #
straight-curve $-1 0 -0.9 1.271 -1 0 0 #
point $-1 0.075 -0.9 1.271 #
coedge $-1 $338 $432 $442 $528 1 $329 $-1 #
straight-curve $-1 -0.075 0 1.271 0 1 0 #
straight-curve $-1 0.075 -0.9 0 0 0 1 #
face $-1 $530 $520 $2 $-1 $531 1 #
plane-surface $-1 0.25 -0.7 0 0 -1 0 0 0 -1 0 #
coedge $-1 $451 $451 $349 $452 0 $346 $-1 #
edge $-1 $532 $532 $349 $533 0 #
vertex $-1 $351 $534 #
ellipse-curve $-1 0.075 -0.81 1.4 -1 0 0 0 -0.0495 0 1 #
point $-1 0.2175 -0.832137072977248 1.4442741459545 #
coedge $-1 $456 $456 $535 $536 0 $354 $-1 #
edge $-1 $369 $363 $361 $537 0 #
coedge $-1 $415 $538 $357 $459 0 $510 $-1 #
edge $-1 $463 $505 $458 $539 0 #
coedge $-1 $469 $358 $538 $540 1 $462 $-1 #
coedge $-1 $358 $469 $360 $465 1 $462 $-1 #
loop $-1 $-1 $461 $541 #
vertex $-1 $540 $542 #
straight-curve $-1 -0.163 0 1.266 0 -1 0 #
edge $-1 $364 $471 $461 $543 0 #
face $-1 $72 $362 $2 $-1 $544 1 #
point $-1 -0.163 0.3 1.311 #
point $-1 -0.163 0.3 1.266 #
coedge $-1 $461 $460 $366 $470 1 $462 $-1 #
edge $-1 $471 $545 $469 $546 0 #
vertex $-1 $465 $547 #
straight-curve $-1 0.163 0.3 0 0 0 -1 #
point $-1 0.163 0.3 1.311 #
edge $-1 $397 $478 $394 $548 0 #
coedge $-1 $380 $372 $497 $549 0 $477 $-1 #
coedge $-1 $372 $380 $374 $480 1 $477 $-1 #
loop $-1 $-1 $476 $486 #
vertex $-1 $549 $550 #
straight-curve $-1 0.163 -0.025904140526976 0.014990213299875 0 -0.500863071341814 -0.865526535564361 #
edge $-1 $375 $382 $374 $551 0 #
point $-1 0.163 0.65 1.183 #
edge $-1 $483 $396 $393 $552 0 #
vertex $-1 $482 $553 #
straight-curve $-1 -0.163 -0.025904140526976 0.014990213299875 0 -0.500863071341814 -0.865526535564361 #
point $-1 -0.163 0.65 1.183 #
face $-1 $466 $477 $2 $-1 $554 1 #
plane-surface $-1 0 0 0.83 0 0 1 1 0 0 0 #
coedge $-1 $430 $387 $432 $524 1 $281 $-1 #
coedge $-1 $401 $442 $387 $490 1 $138 $-1 #
edge $-1 $503 $555 $489 $556 0 #
coedge $-1 $557 $426 $388 $492 0 $520 $-1 #
edge $-1 $518 $494 $491 $558 0 #
coedge $-1 $389 $417 $557 $559 0 $103 $-1 #
vertex $-1 $492 $560 #
straight-curve $-1 0.163 -0.9 0 0 0 -1 #
straight-curve $-1 -0.163 -0.9 0 0 0 -1 #
coedge $-1 $394 $393 $475 $549 1 $395 $-1 #
loop $-1 $-1 $535 $385 #
point $-1 -0.163 -0.9 0.83 #
point $-1 0.163 -0.9 0.83 #
straight-curve $-1 -0.163 0 1.271 0 -1 0 #
point $-1 -0.163 -0.9 1.271 #
vertex $-1 $412 $561 #
straight-curve $-1 -0.2175 -0.9 0 0 0 1 #
vertex $-1 $459 $562 #
straight-curve $-1 -0.163 0 1.486 0 -1 0 #
ellipse-curve $-1 -0.2175 -0.83 1.416 1 0 0 0 0.07 0 1 #
point $-1 -0.2175 -0.83 1.486 #
coedge $-1 $538 $415 $418 $512 1 $510 $-1 #
loop $-1 $-1 $538 $530 #
straight-curve $-1 0 -0.245 1.486 -1 0 0 #
edge $-1 $545 $419 $509 $563 0 #
point $-1 0.163 -0.245 1.486 #
coedge $-1 $426 $557 $421 $515 1 $520 $-1 #
edge $-1 $428 $516 $421 $564 0 #
vertex $-1 $515 $565 #
straight-curve $-1 0.163 -0.7 0 0 0 -1 #
vertex $-1 $425 $566 #
straight-curve $-1 0.2175 -0.9 0 0 0 1 #
loop $-1 $-1 $426 $449 #
straight-curve $-1 0.2175 0 1.271 0 -1 0 #
point $-1 0.2175 -0.7 1.271 #
straight-curve $-1 0.2175 -0.83 1.486 1 0 0 #
edge $-1 $433 $555 $432 $567 0 #
point $-1 -0.075 -0.83 1.486 #
vertex $-1 $440 $568 #
ellipse-curve $-1 -0.075 -0.81 1.4 1 0 0 0 0.0495 0 1 #
edge $-1 $443 $555 $446 $569 0 #
point $-1 -0.075 -0.9 1.271 #
face $-1 $541 $510 $2 $-1 $570 1 #
plane-surface $-1 0.25 0 1.271 0 0 1 1 0 0 0 #
vertex $-1 $452 $571 #
ellipse-curve $-1 -0.2175 -0.81 1.4 1 0 0 0 0.0495 0 1 #
point $-1 0.075 -0.832137072977248 1.4442741459545 #
coedge $-1 $535 $535 $456 $536 1 $498 $-1 #
edge $-1 $572 $572 $456 $573 0 #
straight-curve $-1 0 0.3 1.311 -1 0 0 #
coedge $-1 $458 $509 $460 $540 0 $510 $-1 #
straight-curve $-1 -0.163 -0.245 0 0 0 1 #
edge $-1 $545 $463 $538 $574 0 #
face $-1 $60 $462 $2 $-1 $575 1 #
point $-1 -0.163 -0.245 1.266 #
straight-curve $-1 0 0.3 1.266 1 0 0 #
plane-surface $-1 0 0.3 1.266 0 1 0 0 0 1 0 #
vertex $-1 $540 $576 #
straight-curve $-1 0.163 0 1.266 0 -1 0 #
point $-1 0.163 0.3 1.266 #
straight-curve $-1 0.163 0 0.83 0 1 0 #
edge $-1 $478 $483 $497 $577 0 #
point $-1 0.163 0.445725888324874 0.83 #
straight-curve $-1 0 0.65 1.183 -1 0 0 #
straight-curve $-1 -0.163 0 0.83 0 -1 0 #
point $-1 -0.163 0.445725888324874 0.83 #
plane-surface $-1 0.163 -0.025904140526976 0.014990213299875 0 -0.865526535564361 0.500863071341814 1 0 0 0 #
vertex $-1 $524 $578 #
straight-curve $-1 0.2175 -0.9 1.416 1 0 0 #
coedge $-1 $514 $491 $493 $559 1 $520 $-1 #
straight-curve $-1 0 -0.9 1.271 -1 0 0 #
edge $-1 $516 $494 $557 $579 0 #
point $-1 0.163 -0.9 1.271 #
point $-1 -0.2175 -0.9 1.416 #
point $-1 -0.163 -0.245 1.486 #
straight-curve $-1 0.163 -0.245 0 0 0 1 #
straight-curve $-1 0 -0.7 1.271 -1 0 0 #
point $-1 0.163 -0.7 1.271 #
point $-1 0.2175 -0.9 1.271 #
ellipse-curve $-1 -0.075 -0.83 1.416 1 0 0 0 0.07 0 1 #
point $-1 -0.075 -0.787862927022752 1.3557258540455 #
straight-curve $-1 -0.075 -0.9 0 0 0 1 #
plane-surface $-1 0 -0.245 1.266 0 -1 0 0 0 -1 0 #
point $-1 -0.2175 -0.787862927022752 1.3557258540455 #
vertex $-1 $536 $580 #
ellipse-curve $-1 0 -0.41 0.83 0 0 -1 0.126 0 0 1 #
straight-curve $-1 0 -0.245 1.266 -1 0 0 #
plane-surface $-1 -0.25 -0.245 1.266 0 0 -1 -1 0 0 0 #
point $-1 0.163 -0.245 1.266 #
straight-curve $-1 0.163 0.445725888324874 0.83 -1 0 0 #
point $-1 -0.075 -0.9 1.416 #
straight-curve $-1 0.163 0 1.271 0 -1 0 #
point $-1 -0.056348913032995 -0.297302173934011 0.83 #
