600 0 1 0           
93 GICL ACIS Healer - Source: /gicl/data5/repository/Allied-Signal/switcharm/switcharm.sat - 6 0 18 ACIS 6.0.3 Solaris 24 Sun Apr 14 00:15:00 2002 
1 9.999999999999999547e-07 1.000000000000000036e-10 
body $-1 $1 $-1 $-1 #
lump $-1 $-1 $2 $0 #
shell $-1 $-1 $-1 $3 $-1 $1 #
face $-1 $4 $5 $2 $-1 $6 reversed single #
face $-1 $7 $8 $2 $-1 $9 reversed single #
loop $-1 $10 $11 $3 #
cone-surface $-1 0 -0.4099999999999999756 1.296000000000000041 0 0 1 0.1260000000000000009 0 0 1 I I 0 1 0.1260000000000000009 forward I I I I #
face $-1 $12 $13 $2 $-1 $14 reversed single #
loop $-1 $15 $16 $4 #
cone-surface $-1 0 0.4799999999999999822 1.141000000000000014 0 0 1 0.1260000000000000009 0 0 1 I I 0 1 0.1260000000000000009 forward I I I I #
loop $-1 $-1 $17 $3 #
coedge $-1 $11 $11 $18 $19 forward $5 $-1 #
face $-1 $20 $21 $2 $-1 $22 reversed single #
loop $-1 $23 $24 $7 #
plane-surface $-1 0 -0.4099999999999999756 1.296000000000000041 0 0 -1 -1 0 0 forward_v I I I I #
loop $-1 $-1 $25 $4 #
coedge $-1 $16 $16 $26 $27 forward $8 $-1 #
coedge $-1 $17 $17 $28 $29 reversed $10 $-1 #
coedge $-1 $18 $18 $11 $19 reversed $23 $-1 #
edge $-1 $30 -1.570796326794896558 $30 4.712388980384689674 $11 $31 forward 7 unknown #
face $-1 $32 $33 $2 $-1 $34 reversed single #
loop $-1 $35 $36 $12 #
cone-surface $-1 0 -0.4099999999999999756 1.135999999999999899 0 0 1 0.04449999999999999789 0 0 1 I I 0 1 0.04449999999999999789 forward I I I I #
loop $-1 $-1 $18 $7 #
coedge $-1 $24 $24 $37 $38 forward $13 $-1 #
coedge $-1 $25 $25 $39 $40 reversed $15 $-1 #
coedge $-1 $26 $26 $16 $27 reversed $41 $-1 #
edge $-1 $42 -1.570796326794896558 $42 4.712388980384689674 $16 $43 forward 7 unknown #
coedge $-1 $28 $28 $17 $29 forward $44 $-1 #
edge $-1 $45 -1.570796326794896558 $45 4.712388980384689674 $17 $46 forward 7 unknown #
vertex $-1 $19 $47 #
ellipse-curve $-1 0 -0.4099999999999999756 1.296000000000000041 0 0 -1 0.1260000000000000009 0 0 1 I I #
face $-1 $48 $49 $2 $-1 $50 reversed single #
loop $-1 $41 $51 $20 #
plane-surface $-1 0 0.4799999999999999822 1.141000000000000014 0 0 -1 -1 0 0 forward_v I I I I #
loop $-1 $-1 $37 $12 #
coedge $-1 $36 $36 $52 $53 forward $21 $-1 #
coedge $-1 $37 $37 $24 $38 reversed $35 $-1 #
edge $-1 $54 -1.570796326794896558 $54 4.712388980384689674 $24 $55 forward 7 unknown #
coedge $-1 $39 $39 $25 $40 forward $56 $-1 #
edge $-1 $57 -1.570796326794896558 $57 4.712388980384689674 $25 $58 forward 7 unknown #
loop $-1 $-1 $26 $20 #
vertex $-1 $27 $59 #
ellipse-curve $-1 0 0.4799999999999999822 1.141000000000000014 0 0 -1 0.1260000000000000009 0 0 1 I I #
loop $-1 $-1 $28 $60 #
vertex $-1 $29 $61 #
ellipse-curve $-1 0 -0.4099999999999999756 1.485999999999999988 0 0 -1 0.1260000000000000009 0 0 1 I I #
point $-1 0 -0.2839999999999999747 1.296000000000000041 #
face $-1 $62 $63 $2 $-1 $64 reversed single #
loop $-1 $65 $66 $32 #
cone-surface $-1 0 0.4799999999999999822 0.9859999999999999876 0 0 1 0.04449999999999999789 0 0 1 I I 0 1 0.04449999999999999789 forward I I I I #
coedge $-1 $51 $51 $66 $67 reversed $33 $-1 #
coedge $-1 $52 $52 $36 $53 reversed $68 $-1 #
edge $-1 $69 -1.570796326794896558 $69 4.712388980384689674 $36 $70 forward 7 unknown #
vertex $-1 $38 $71 #
ellipse-curve $-1 0 -0.4099999999999999756 1.296000000000000041 0 0 -1 0.04449999999999999789 0 0 1 I I #
loop $-1 $-1 $39 $72 #
vertex $-1 $40 $73 #
ellipse-curve $-1 0 0.4799999999999999822 1.330999999999999961 0 0 -1 0.1260000000000000009 0 0 1 I I #
point $-1 0 0.6059999999999999831 1.141000000000000014 #
face $-1 $74 $75 $2 $-1 $76 reversed single #
point $-1 0 -0.2839999999999999747 1.485999999999999988 #
face $-1 $77 $78 $2 $-1 $79 reversed single #
loop $-1 $-1 $80 $48 #
plane-surface $-1 0 0.4799999999999999822 0.9859999999999999876 0 0 -1 -1 0 0 forward_v I I I I #
loop $-1 $-1 $81 $32 #
coedge $-1 $66 $66 $51 $67 forward $49 $-1 #
edge $-1 $82 -1.107148717794089965 $82 5.176036589385496711 $51 $83 forward 7 unknown #
loop $-1 $-1 $52 $84 #
vertex $-1 $53 $85 #
ellipse-curve $-1 0 -0.4099999999999999756 1.135999999999999899 0 0 -1 0.04449999999999999789 0 0 1 I I #
point $-1 0 -0.3654999999999999916 1.296000000000000041 #
face $-1 $86 $87 $2 $-1 $88 reversed single #
point $-1 0 0.6059999999999999831 1.330999999999999961 #
face $-1 $89 $90 $2 $-1 $91 reversed single #
loop $-1 $44 $92 $60 #
plane-surface $-1 0 0 1.485999999999999988 0 0 -1 -1 0 0 forward_v I I I I #
face $-1 $93 $94 $2 $-1 $95 reversed single #
loop $-1 $-1 $96 $62 #
cone-surface $-1 0 -0.7249999999999999778 1.270999999999999908 0 0 1 0.07499999999999999722 0 0 1 I I 0 1 0.07499999999999999722 forward I I I I #
coedge $-1 $80 $80 $81 $97 reversed $63 $-1 #
coedge $-1 $81 $81 $80 $97 forward $65 $-1 #
vertex $-1 $67 $98 #
ellipse-curve $-1 0 0.4799999999999999822 1.141000000000000014 0 0 1 0.04449999999999999789 0 0 1 I I #
face $-1 $99 $100 $2 $-1 $101 forward single #
point $-1 0 -0.3654999999999999916 1.135999999999999899 #
face $-1 $102 $103 $2 $-1 $104 reversed single #
loop $-1 $56 $105 $72 #
plane-surface $-1 -0.25 -0.2200000000000000011 1.330999999999999961 0 0 -1 -1 0 0 forward_v I I I I #
face $-1 $106 $107 $2 $-1 $108 reversed single #
loop $-1 $-1 $109 $74 #
plane-surface $-1 -0.163000000000000006 -0.6999999999999999556 0 0 -1 0 0 0 -1 forward_v I I I I #
coedge $-1 $110 $111 $112 $113 forward $75 $-1 #
face $-1 $114 $115 $2 $-1 $116 reversed single #
loop $-1 $117 $118 $77 #
plane-surface $-1 -0.07499999999999999722 -0.9000000000000000222 1.270999999999999908 0 0 -1 -1 0 0 forward_v I I I I #
coedge $-1 $119 $120 $121 $122 reversed $78 $-1 #
edge $-1 $123 -1.570796326794896558 $123 4.712388980384689674 $81 $124 forward 7 unknown #
point $-1 0.01990100499974799958 0.4401979900005040247 1.141000000000000014 #
face $-1 $125 $126 $2 $-1 $127 reversed single #
loop $-1 $68 $128 $84 #
plane-surface $-1 0 -0.4099999999999999756 1.135999999999999899 0 0 -1 -1 0 0 forward_v I I I I #
face $-1 $129 $130 $2 $-1 $131 reversed single #
loop $-1 $-1 $132 $86 #
plane-surface $-1 0.163000000000000006 0 0.536000000000000032 -1 0 0 0 0 1 forward_v I I I I #
coedge $-1 $133 $134 $135 $136 forward $87 $-1 #
face $-1 $137 $138 $2 $-1 $139 reversed single #
loop $-1 $-1 $140 $89 #
plane-surface $-1 -0.163000000000000006 0 1.270999999999999908 0 0 1 1 0 0 forward_v I I I I #
coedge $-1 $141 $142 $143 $144 forward $90 $-1 #
coedge $-1 $145 $92 $146 $147 forward $75 $-1 #
coedge $-1 $92 $148 $149 $150 forward $75 $-1 #
coedge $-1 $151 $152 $92 $113 reversed $153 $-1 #
edge $-1 $154 -0.1425000000000000155 $155 0 $92 $156 forward 7 unknown #
face $-1 $157 $158 $2 $-1 $159 reversed single #
loop $-1 $160 $161 $93 #
cone-surface $-1 0.02999999999999999889 -0.7349999999999999867 1.120999999999999996 0 0 1 0.02599999999999999881 0 0 1 I I 0 1 0.02599999999999999881 forward I I I I #
loop $-1 $-1 $162 $77 #
coedge $-1 $118 $118 $163 $164 forward $94 $-1 #
coedge $-1 $165 $96 $148 $166 reversed $78 $-1 #
coedge $-1 $96 $165 $167 $168 forward $78 $-1 #
coedge $-1 $169 $149 $96 $122 forward $170 $-1 #
edge $-1 $171 -0.2150000000000000799 $172 0 $96 $173 forward 7 unknown #
vertex $-1 $97 $174 #
ellipse-curve $-1 0 0.4799999999999999822 0.9859999999999999876 0 0 -1 0.04449999999999999789 0 0 1 I I #
face $-1 $175 $176 $2 $-1 $177 reversed single #
loop $-1 $178 $179 $99 #
cone-surface $-1 0.25 -0.8100000000000000533 1.399999999999999911 -1 0 0 0 -0.04950000000000000233 0 1 I I 0 1 0.04950000000000000233 forward I I I I #
coedge $-1 $128 $128 $180 $181 forward $100 $-1 #
face $-1 $-1 $182 $2 $-1 $183 reversed single #
loop $-1 $-1 $184 $102 #
plane-surface $-1 -0.163000000000000006 0.6500000000000000222 0 1 0 0 0 0 -1 forward_v I I I I #
coedge $-1 $185 $186 $187 $188 forward $103 $-1 #
coedge $-1 $187 $105 $189 $190 reversed $87 $-1 #
coedge $-1 $105 $187 $191 $192 forward $87 $-1 #
coedge $-1 $193 $194 $105 $136 reversed $130 $-1 #
edge $-1 $195 -0.6500000000000000222 $196 -0.3200000000000000067 $105 $197 forward 7 unknown #
face $-1 $198 $153 $2 $-1 $199 forward single #
loop $-1 $-1 $200 $106 #
plane-surface $-1 0 -0.9000000000000000222 0.536000000000000032 0 1 0 0 0 1 forward_v I I I I #
coedge $-1 $201 $202 $203 $204 forward $107 $-1 #
coedge $-1 $205 $109 $206 $207 reversed $90 $-1 #
coedge $-1 $109 $205 $201 $208 forward $90 $-1 #
coedge $-1 $203 $209 $109 $144 reversed $210 $-1 #
edge $-1 $211 0 $212 0.2150000000000000799 $143 $213 forward 7 unknown #
coedge $-1 $214 $110 $215 $216 forward $75 $-1 #
coedge $-1 $217 $218 $110 $147 reversed $219 $-1 #
edge $-1 $155 -0.82999999999999996 $220 -0.6999999999999999556 $146 $221 forward 7 unknown #
coedge $-1 $111 $222 $119 $166 forward $75 $-1 #
coedge $-1 $121 $223 $111 $150 reversed $170 $-1 #
edge $-1 $171 0.7249999999999999778 $154 0.82999999999999996 $149 $224 forward 7 unknown #
coedge $-1 $225 $112 $223 $226 reversed $153 $-1 #
coedge $-1 $112 $225 $217 $227 reversed $153 $-1 #
loop $-1 $-1 $112 $137 #
vertex $-1 $226 $228 #
vertex $-1 $227 $229 #
straight-curve $-1 0.2174999999999999989 -0.82999999999999996 1.485999999999999988 1 0 0 I I #
face $-1 $230 $231 $2 $-1 $232 reversed single #
loop $-1 $-1 $233 $114 #
plane-surface $-1 0.02999999999999999889 -0.7349999999999999867 1.120999999999999996 0 0 -1 -1 0 0 forward_v I I I I #
loop $-1 $-1 $163 $93 #
coedge $-1 $161 $161 $233 $234 forward $115 $-1 #
coedge $-1 $167 $235 $169 $236 reversed $117 $-1 #
coedge $-1 $163 $163 $118 $164 reversed $160 $-1 #
edge $-1 $237 -1.570796326794896558 $237 4.712388980384689674 $118 $238 forward 7 unknown #
coedge $-1 $120 $119 $239 $240 forward $78 $-1 #
edge $-1 $241 -3.141592653589793116 $171 0 $119 $242 forward 7 unknown #
coedge $-1 $243 $162 $120 $168 reversed $117 $-1 #
edge $-1 $244 -3.141592653589793116 $172 0 $120 $245 forward 7 unknown #
coedge $-1 $246 $121 $162 $236 forward $170 $-1 #
loop $-1 $-1 $223 $230 #
vertex $-1 $122 $247 #
vertex $-1 $122 $248 #
straight-curve $-1 0.07499999999999999722 -0.7249999999999999778 1.270999999999999908 0 0 -1 I I #
point $-1 0 0.5244999999999999662 0.9859999999999999876 #
face $-1 $249 $250 $2 $-1 $251 reversed single #
loop $-1 $219 $252 $125 #
plane-surface $-1 0.2174999999999999989 0 1.270999999999999908 -1 0 0 0 0 1 forward_v I I I I #
loop $-1 $-1 $253 $99 #
coedge $-1 $179 $179 $252 $254 reversed $126 $-1 #
coedge $-1 $180 $180 $128 $181 reversed $255 $-1 #
edge $-1 $256 -1.570796326794896558 $256 4.712388980384689674 $180 $257 forward 7 unknown #
loop $-1 $-1 $258 $129 #
plane-surface $-1 0.163000000000000006 -0.5054999999999999494 0.5054999999999999494 0 0.7071067811865475727 -0.7071067811865475727 -1 0 0 forward_v I I I I #
coedge $-1 $194 $259 $260 $261 reversed $130 $-1 #
coedge $-1 $262 $132 $258 $263 reversed $103 $-1 #
coedge $-1 $132 $264 $265 $266 forward $103 $-1 #
coedge $-1 $134 $133 $132 $188 reversed $87 $-1 #
edge $-1 $267 -0.6500000000000000222 $268 -0.3200000000000000067 $187 $269 forward 7 unknown #
coedge $-1 $270 $258 $133 $190 forward $182 $-1 #
edge $-1 $268 -0.163000000000000006 $196 0.163000000000000006 $133 $271 forward 7 unknown #
coedge $-1 $265 $272 $134 $192 reversed $273 $-1 #
edge $-1 $267 -0.163000000000000006 $195 0.163000000000000006 $191 $274 forward 7 unknown #
coedge $-1 $275 $135 $272 $276 reversed $130 $-1 #
coedge $-1 $135 $184 $270 $277 forward $130 $-1 #
vertex $-1 $276 $278 #
vertex $-1 $136 $279 #
straight-curve $-1 -0.163000000000000006 0 1.330999999999999961 0 -1 0 I I #
face $-1 $280 $281 $2 $-1 $282 forward single #
cone-surface $-1 0.2174999999999999989 -0.82999999999999996 1.415999999999999925 -1 0 0 0 -0.07000000000000000666 0 1 I I 0 1 0.07000000000000000666 forward I I I I #
coedge $-1 $283 $284 $285 $286 forward $138 $-1 #
coedge $-1 $287 $140 $142 $208 reversed $107 $-1 #
coedge $-1 $140 $287 $288 $289 forward $107 $-1 #
coedge $-1 $290 $143 $140 $204 reversed $210 $-1 #
edge $-1 $291 -0.9000000000000000222 $211 -0.6999999999999999556 $203 $292 forward 7 unknown #
coedge $-1 $142 $141 $293 $294 forward $90 $-1 #
coedge $-1 $295 $296 $141 $207 forward $75 $-1 #
edge $-1 $297 -0.2499999999999999722 $212 -0.1954999999999999793 $206 $298 forward 7 unknown #
edge $-1 $299 -0.2499999999999999722 $211 -0.1954999999999999793 $142 $300 forward 7 unknown #
coedge $-1 $143 $301 $295 $302 reversed $210 $-1 #
loop $-1 $-1 $301 $249 #
vertex $-1 $144 $303 #
vertex $-1 $302 $304 #
straight-curve $-1 -0.2174999999999999989 -0.6999999999999999556 1.270999999999999908 0 0 1 I I #
coedge $-1 $305 $145 $306 $307 reversed $75 $-1 #
coedge $-1 $308 $309 $145 $216 reversed $310 $-1 #
edge $-1 $220 -0.2174999999999999989 $311 -0.163000000000000006 $215 $312 forward 7 unknown #
coedge $-1 $313 $146 $152 $227 forward $219 $-1 #
coedge $-1 $146 $314 $308 $315 reversed $219 $-1 #
loop $-1 $-1 $217 $125 #
vertex $-1 $315 $316 #
straight-curve $-1 0.2174999999999999989 0 1.485999999999999988 0 1 0 I I #
coedge $-1 $148 $317 $318 $319 forward $75 $-1 #
coedge $-1 $149 $246 $151 $226 forward $170 $-1 #
straight-curve $-1 0.07499999999999999722 0 1.485999999999999988 0 -1 0 I I #
coedge $-1 $152 $151 $320 $321 forward $153 $-1 #
edge $-1 $322 0 $154 1.570796326794896558 $223 $323 forward 7 unknown #
edge $-1 $155 1.570796326794896558 $324 3.141592653589793116 $217 $325 forward 7 unknown #
point $-1 0.07499999999999999722 -0.82999999999999996 1.485999999999999988 #
point $-1 0.2174999999999999989 -0.82999999999999996 1.485999999999999988 #
face $-1 $326 $327 $2 $-1 $328 reversed single #
loop $-1 $329 $330 $157 #
plane-surface $-1 -0.07499999999999999722 0 1.270999999999999908 -1 0 0 0 0 1 forward_v I I I I #
coedge $-1 $233 $233 $161 $234 reversed $158 $-1 #
edge $-1 $331 -1.570796326794896558 $331 4.712388980384689674 $161 $332 forward 7 unknown #
coedge $-1 $162 $243 $333 $334 reversed $117 $-1 #
edge $-1 $172 0.7249999999999999778 $335 0.9000000000000000222 $162 $336 forward 7 unknown #
vertex $-1 $164 $337 #
ellipse-curve $-1 0.02999999999999999889 -0.7349999999999999867 1.270999999999999908 0 0 -1 0.02599999999999999881 0 0 1 I I #
coedge $-1 $318 $338 $165 $240 reversed $329 $-1 #
edge $-1 $241 -0.2150000000000000799 $244 0 $165 $339 forward 7 unknown #
vertex $-1 $166 $340 #
ellipse-curve $-1 0 -0.7249999999999999778 1.485999999999999988 0 0 -1 0.07499999999999999722 0 0 1 I I #
coedge $-1 $235 $167 $338 $341 reversed $117 $-1 #
vertex $-1 $240 $342 #
ellipse-curve $-1 0 -0.7249999999999999778 1.270999999999999908 0 0 -1 0.07499999999999999722 0 0 1 I I #
coedge $-1 $223 $169 $343 $344 forward $170 $-1 #
point $-1 0.07499999999999999722 -0.7249999999999999778 1.485999999999999988 #
point $-1 0.07499999999999999722 -0.7249999999999999778 1.270999999999999908 #
face $-1 $345 $346 $2 $-1 $347 reversed single #
loop $-1 $348 $349 $175 #
cone-surface $-1 0.25 -0.8100000000000000533 1.399999999999999911 -1 0 0 0 -0.04950000000000000233 0 1 I I 0 1 0.04950000000000000233 forward I I I I #
coedge $-1 $252 $252 $179 $254 forward $176 $-1 #
coedge $-1 $253 $253 $350 $351 forward $178 $-1 #
edge $-1 $352 1.107148717794128601 $352 7.390334024973714833 $179 $353 forward 7 unknown #
loop $-1 $354 $180 $326 #
vertex $-1 $181 $355 #
ellipse-curve $-1 0 -0.4099999999999999756 1.135999999999999899 0 0 -1 0.1260000000000000009 0 0 1 I I #
coedge $-1 $189 $356 $185 $263 forward $182 $-1 #
coedge $-1 $184 $357 $358 $359 reversed $130 $-1 #
coedge $-1 $360 $361 $184 $261 forward $362 $-1 #
edge $-1 $363 -1.310999999999999943 $364 -1.266000000000000014 $260 $365 forward 7 unknown #
coedge $-1 $366 $185 $367 $368 forward $103 $-1 #
edge $-1 $369 1.13914902449152744 $268 1.167433295738989241 $185 $370 forward 7 unknown #
coedge $-1 $186 $371 $372 $373 reversed $103 $-1 #
coedge $-1 $374 $191 $186 $266 reversed $273 $-1 #
edge $-1 $375 1.183000000000000052 $267 1.330999999999999961 $265 $376 forward 7 unknown #
vertex $-1 $266 $377 #
vertex $-1 $190 $378 #
straight-curve $-1 0.163000000000000006 0 1.330999999999999961 0 -1 0 I I #
coedge $-1 $356 $189 $194 $277 reversed $182 $-1 #
straight-curve $-1 0 0.3200000000000000067 1.330999999999999961 -1 0 0 I I #
coedge $-1 $191 $374 $193 $276 forward $273 $-1 #
loop $-1 $-1 $265 $280 #
straight-curve $-1 0 0.6500000000000000222 1.330999999999999961 -1 0 0 I I #
coedge $-1 $379 $193 $380 $381 forward $130 $-1 #
edge $-1 $382 1.183000000000000052 $195 1.330999999999999961 $272 $383 forward 7 unknown #
edge $-1 $363 1.13914902449152744 $196 1.167433295738989241 $194 $384 forward 7 unknown #
point $-1 -0.163000000000000006 0.6500000000000000222 1.330999999999999961 #
point $-1 -0.163000000000000006 0.3200000000000000067 1.330999999999999961 #
face $-1 $385 $273 $2 $-1 $386 reversed single #
loop $-1 $-1 $387 $198 #
cone-surface $-1 0.2174999999999999989 -0.82999999999999996 1.415999999999999925 -1 0 0 0 -0.07000000000000000666 0 1 I I 0 1 0.07000000000000000666 forward I I I I #
coedge $-1 $388 $200 $389 $390 reversed $138 $-1 #
coedge $-1 $200 $288 $391 $392 forward $138 $-1 #
coedge $-1 $393 $394 $200 $286 reversed $395 $-1 #
edge $-1 $396 -0.163000000000000006 $397 0.163000000000000006 $200 $398 forward 7 unknown #
coedge $-1 $202 $201 $399 $400 forward $107 $-1 #
coedge $-1 $284 $401 $202 $289 reversed $138 $-1 #
edge $-1 $402 -0.2499999999999999722 $291 -0.1954999999999999793 $202 $403 forward 7 unknown #
coedge $-1 $301 $203 $401 $404 forward $210 $-1 #
vertex $-1 $204 $405 #
straight-curve $-1 -0.2174999999999999989 0 1.270999999999999908 0 1 0 I I #
coedge $-1 $406 $399 $205 $294 reversed $130 $-1 #
edge $-1 $297 -1.485999999999999988 $299 -1.270999999999999908 $205 $407 forward 7 unknown #
coedge $-1 $317 $206 $209 $302 forward $75 $-1 #
coedge $-1 $206 $305 $406 $408 forward $75 $-1 #
vertex $-1 $408 $409 #
straight-curve $-1 -0.4129999999999999782 -0.6999999999999999556 1.485999999999999988 -1 0 0 I I #
vertex $-1 $294 $410 #
straight-curve $-1 -0.4129999999999999782 -0.6999999999999999556 1.270999999999999908 -1 0 0 I I #
coedge $-1 $209 $290 $411 $412 reversed $210 $-1 #
edge $-1 $212 0.6999999999999999556 $413 0.82999999999999996 $209 $414 forward 7 unknown #
point $-1 -0.2174999999999999989 -0.6999999999999999556 1.270999999999999908 #
point $-1 -0.2174999999999999989 -0.6999999999999999556 1.485999999999999988 #
coedge $-1 $296 $214 $415 $416 forward $75 $-1 #
coedge $-1 $417 $418 $214 $307 forward $103 $-1 #
edge $-1 $419 0.2449999999999999956 $311 0.6999999999999999556 $214 $420 forward 7 unknown #
coedge $-1 $421 $215 $218 $315 forward $310 $-1 #
coedge $-1 $215 $421 $417 $422 reversed $310 $-1 #
loop $-1 $-1 $308 $345 #
vertex $-1 $422 $423 #
straight-curve $-1 0 -0.6999999999999999556 1.485999999999999988 -1 0 0 I I #
coedge $-1 $314 $217 $424 $425 reversed $219 $-1 #
coedge $-1 $218 $313 $426 $427 reversed $219 $-1 #
edge $-1 $220 -0.2150000000000000799 $428 0 $218 $429 forward 7 unknown #
point $-1 0.2174999999999999989 -0.6999999999999999556 1.485999999999999988 #
coedge $-1 $222 $295 $430 $431 forward $75 $-1 #
coedge $-1 $432 $239 $222 $319 reversed $329 $-1 #
edge $-1 $433 -0.82999999999999996 $241 -0.7249999999999999778 $318 $434 forward 7 unknown #
coedge $-1 $343 $424 $225 $321 reversed $138 $-1 #
edge $-1 $322 -0.1425000000000000155 $324 0 $320 $435 forward 7 unknown #
vertex $-1 $226 $436 #
ellipse-curve $-1 0.07499999999999999722 -0.82999999999999996 1.415999999999999925 -1 0 0 0 -0.07000000000000000666 0 1 I I #
vertex $-1 $227 $437 #
ellipse-curve $-1 0.2174999999999999989 -0.82999999999999996 1.415999999999999925 1 0 0 0 0.07000000000000000666 0 1 I I #
face $-1 $84 $255 $2 $-1 $438 reversed single #
loop $-1 $170 $350 $230 #
plane-surface $-1 0.07499999999999999722 0 1.270999999999999908 1 0 0 0 0 -1 forward_v I I I I #
loop $-1 $-1 $432 $157 #
coedge $-1 $330 $330 $439 $440 reversed $231 $-1 #
vertex $-1 $234 $441 #
ellipse-curve $-1 0.02999999999999999889 -0.7349999999999999867 1.120999999999999996 0 0 -1 0.02599999999999999881 0 0 1 I I #
coedge $-1 $442 $343 $235 $334 forward $138 $-1 #
edge $-1 $335 -0.07499999999999999722 $443 0.07499999999999999722 $235 $444 forward 7 unknown #
vertex $-1 $236 $445 #
straight-curve $-1 0.07499999999999999722 0 1.270999999999999908 0 -1 0 I I #
point $-1 0.02999999999999999889 -0.7089999999999999636 1.270999999999999908 #
coedge $-1 $239 $446 $243 $341 forward $329 $-1 #
straight-curve $-1 -0.07499999999999999722 -0.7249999999999999778 1.270999999999999908 0 0 -1 I I #
point $-1 -0.07499999999999999722 -0.7249999999999999778 1.485999999999999988 #
edge $-1 $443 -0.9000000000000000222 $244 -0.7249999999999999778 $243 $447 forward 7 unknown #
point $-1 -0.07499999999999999722 -0.7249999999999999778 1.270999999999999908 #
coedge $-1 $333 $320 $246 $344 reversed $138 $-1 #
edge $-1 $335 1.270999999999999908 $322 1.415999999999999925 $246 $448 forward 7 unknown #
face $-1 $449 $310 $2 $-1 $450 reversed single #
loop $-1 $210 $451 $249 #
plane-surface $-1 -0.2174999999999999989 0 1.270999999999999908 1 0 0 0 0 -1 forward_v I I I I #
loop $-1 $-1 $439 $175 #
coedge $-1 $349 $349 $451 $452 reversed $250 $-1 #
coedge $-1 $350 $350 $253 $351 reversed $327 $-1 #
edge $-1 $453 1.107148717794128601 $453 7.390334024973714833 $350 $454 forward 7 unknown #
vertex $-1 $254 $455 #
ellipse-curve $-1 0.2174999999999999989 -0.8100000000000000533 1.399999999999999911 -1 0 0 0 -0.04950000000000000233 0 1 I I #
loop $-1 $-1 $456 $326 #
point $-1 0 -0.2839999999999999747 1.135999999999999899 #
coedge $-1 $258 $270 $361 $457 reversed $182 $-1 #
coedge $-1 $259 $406 $458 $459 reversed $130 $-1 #
coedge $-1 $460 $461 $259 $359 forward $462 $-1 #
edge $-1 $364 -0.2999999999999999889 $463 0.2449999999999999956 $358 $464 forward 7 unknown #
coedge $-1 $367 $260 $461 $465 forward $362 $-1 #
coedge $-1 $260 $367 $356 $457 forward $362 $-1 #
loop $-1 $-1 $367 $466 #
vertex $-1 $457 $467 #
vertex $-1 $465 $468 #
straight-curve $-1 -0.163000000000000006 0.2999999999999999889 0 0 0 -1 I I #
coedge $-1 $418 $262 $469 $470 forward $103 $-1 #
coedge $-1 $361 $360 $262 $368 reversed $362 $-1 #
edge $-1 $369 -1.310999999999999943 $471 -1.266000000000000014 $367 $472 forward 7 unknown #
vertex $-1 $368 $473 #
straight-curve $-1 0.163000000000000006 -0.5054999999999999494 0.5054999999999999494 0 0.7071067811865480168 0.7071067811865480168 I I #
coedge $-1 $264 $389 $394 $474 forward $103 $-1 #
coedge $-1 $475 $476 $264 $373 forward $477 $-1 #
edge $-1 $375 -1.349478887944817629 $478 -0.9416346619213737945 $372 $479 forward 7 unknown #
coedge $-1 $272 $265 $476 $480 forward $273 $-1 #
vertex $-1 $266 $481 #
straight-curve $-1 0.163000000000000006 0.6500000000000000222 0 0 0 1 I I #
point $-1 0.163000000000000006 0.6500000000000000222 1.330999999999999961 #
point $-1 0.163000000000000006 0.3200000000000000067 1.330999999999999961 #
coedge $-1 $391 $275 $393 $482 forward $130 $-1 #
coedge $-1 $476 $475 $275 $381 reversed $477 $-1 #
edge $-1 $382 -1.349478887944817629 $483 -0.9416346619213737945 $380 $484 forward 7 unknown #
vertex $-1 $480 $485 #
straight-curve $-1 -0.163000000000000006 0.6500000000000000222 0 0 0 1 I I #
straight-curve $-1 -0.163000000000000006 -0.5054999999999999494 0.5054999999999999494 0 0.7071067811865480168 0.7071067811865480168 I I #
face $-1 $486 $395 $2 $-1 $487 reversed single #
plane-surface $-1 0 0.6500000000000000222 0.536000000000000032 0 -1 0 0 0 -1 forward_v I I I I #
coedge $-1 $488 $411 $489 $490 forward $281 $-1 #
coedge $-1 $424 $283 $491 $492 reversed $138 $-1 #
coedge $-1 $371 $493 $283 $390 forward $103 $-1 #
edge $-1 $494 -1.270999999999999908 $397 -0.82999999999999996 $283 $495 forward 7 unknown #
coedge $-1 $399 $379 $284 $392 reversed $130 $-1 #
edge $-1 $402 -1.270999999999999908 $396 -0.82999999999999996 $284 $496 forward 7 unknown #
coedge $-1 $497 $285 $379 $482 reversed $395 $-1 #
coedge $-1 $285 $497 $371 $474 reversed $395 $-1 #
loop $-1 $498 $393 $385 #
vertex $-1 $286 $499 #
vertex $-1 $286 $500 #
straight-curve $-1 0 -0.9000000000000000222 0.82999999999999996 1 0 0 I I #
coedge $-1 $293 $391 $287 $400 reversed $130 $-1 #
edge $-1 $299 0.6999999999999999556 $402 0.9000000000000000222 $287 $501 forward 7 unknown #
coedge $-1 $288 $489 $290 $404 reversed $138 $-1 #
vertex $-1 $400 $502 #
straight-curve $-1 -0.4129999999999999782 -0.9000000000000000222 1.270999999999999908 -1 0 0 I I #
edge $-1 $291 1.270999999999999908 $503 1.415999999999999925 $290 $504 forward 7 unknown #
point $-1 -0.2174999999999999989 -0.9000000000000000222 1.270999999999999908 #
coedge $-1 $357 $293 $296 $408 reversed $130 $-1 #
straight-curve $-1 -0.163000000000000006 -0.6999999999999999556 0 0 0 -1 I I #
edge $-1 $505 0.2449999999999999956 $297 0.6999999999999999556 $296 $506 forward 7 unknown #
point $-1 -0.163000000000000006 -0.6999999999999999556 1.485999999999999988 #
point $-1 -0.163000000000000006 -0.6999999999999999556 1.270999999999999908 #
coedge $-1 $387 $430 $301 $412 forward $281 $-1 #
edge $-1 $413 1.570796326794896558 $503 3.141592653589793116 $301 $507 forward 7 unknown #
vertex $-1 $412 $508 #
straight-curve $-1 -0.2174999999999999989 0 1.485999999999999988 0 -1 0 I I #
coedge $-1 $509 $458 $305 $416 reversed $510 $-1 #
edge $-1 $419 -0.163000000000000006 $505 0.163000000000000006 $415 $511 forward 7 unknown #
coedge $-1 $493 $306 $309 $422 forward $103 $-1 #
coedge $-1 $306 $366 $509 $512 forward $103 $-1 #
vertex $-1 $416 $513 #
straight-curve $-1 0.163000000000000006 0 1.485999999999999988 0 -1 0 I I #
coedge $-1 $309 $308 $514 $515 forward $310 $-1 #
edge $-1 $311 -1.485999999999999988 $516 -1.270999999999999908 $309 $517 forward 7 unknown #
point $-1 0.163000000000000006 -0.6999999999999999556 1.485999999999999988 #
coedge $-1 $320 $388 $313 $425 forward $138 $-1 #
edge $-1 $518 1.270999999999999908 $324 1.415999999999999925 $313 $519 forward 7 unknown #
coedge $-1 $491 $514 $314 $427 forward $520 $-1 #
edge $-1 $428 0.6999999999999999556 $518 0.9000000000000000222 $314 $521 forward 7 unknown #
vertex $-1 $427 $522 #
straight-curve $-1 0.2174999999999999989 -0.6999999999999999556 1.270999999999999908 0 0 -1 I I #
coedge $-1 $411 $488 $317 $431 reversed $281 $-1 #
edge $-1 $413 -0.4349999999999999978 $433 -0.2924999999999999822 $317 $523 forward 7 unknown #
coedge $-1 $446 $318 $488 $524 forward $329 $-1 #
vertex $-1 $524 $525 #
straight-curve $-1 -0.07499999999999999722 0 1.485999999999999988 0 1 0 I I #
straight-curve $-1 0.2174999999999999989 -0.9000000000000000222 1.415999999999999925 1 0 0 I I #
point $-1 0.07499999999999999722 -0.9000000000000000222 1.415999999999999925 #
point $-1 0.2174999999999999989 -0.9000000000000000222 1.415999999999999925 #
cone-surface $-1 0 -0.4099999999999999756 0 0 0 1 0.1260000000000000009 0 0 1 I I 0 1 0.1260000000000000009 forward I I I I #
coedge $-1 $439 $439 $330 $440 forward $348 $-1 #
edge $-1 $526 -1.107148717794124604 $526 5.176036589385461184 $330 $527 forward 7 unknown #
point $-1 0.02999999999999999889 -0.7089999999999999636 1.120999999999999996 #
coedge $-1 $489 $333 $446 $528 forward $138 $-1 #
vertex $-1 $341 $529 #
straight-curve $-1 0 -0.9000000000000000222 1.270999999999999908 -1 0 0 I I #
point $-1 0.07499999999999999722 -0.9000000000000000222 1.270999999999999908 #
coedge $-1 $338 $432 $442 $528 reversed $329 $-1 #
straight-curve $-1 -0.07499999999999999722 0 1.270999999999999908 0 1 0 I I #
straight-curve $-1 0.07499999999999999722 -0.9000000000000000222 0 0 0 1 I I #
face $-1 $530 $520 $2 $-1 $531 reversed single #
plane-surface $-1 0.25 -0.6999999999999999556 0 0 -1 0 0 0 -1 forward_v I I I I #
coedge $-1 $451 $451 $349 $452 forward $346 $-1 #
edge $-1 $532 -1.107148717794124604 $532 5.176036589385461184 $349 $533 forward 7 unknown #
vertex $-1 $351 $534 #
ellipse-curve $-1 0.07499999999999999722 -0.8100000000000000533 1.399999999999999911 -1 0 0 0 -0.04950000000000000233 0 1 I I #
point $-1 0.2174999999999999989 -0.8321370729772480379 1.444274145954500099 #
coedge $-1 $456 $456 $535 $536 forward $354 $-1 #
edge $-1 $369 -0.163000000000000006 $363 0.163000000000000006 $361 $537 forward 7 unknown #
coedge $-1 $415 $538 $357 $459 forward $510 $-1 #
edge $-1 $463 1.266000000000000014 $505 1.485999999999999988 $458 $539 forward 7 unknown #
coedge $-1 $469 $358 $538 $540 reversed $462 $-1 #
coedge $-1 $358 $469 $360 $465 reversed $462 $-1 #
loop $-1 $-1 $461 $541 #
vertex $-1 $540 $542 #
straight-curve $-1 -0.163000000000000006 0 1.266000000000000014 0 -1 0 I I #
edge $-1 $364 -0.163000000000000006 $471 0.163000000000000006 $461 $543 forward 7 unknown #
face $-1 $72 $362 $2 $-1 $544 reversed single #
point $-1 -0.163000000000000006 0.2999999999999999889 1.310999999999999943 #
point $-1 -0.163000000000000006 0.2999999999999999889 1.266000000000000014 #
coedge $-1 $461 $460 $366 $470 reversed $462 $-1 #
edge $-1 $471 -0.2999999999999999889 $545 0.2449999999999999956 $469 $546 forward 7 unknown #
vertex $-1 $465 $547 #
straight-curve $-1 0.163000000000000006 0.2999999999999999889 0 0 0 -1 I I #
point $-1 0.163000000000000006 0.2999999999999999889 1.310999999999999943 #
edge $-1 $397 -0.9000000000000000222 $478 0.4457258883248739756 $394 $548 forward 7 unknown #
coedge $-1 $380 $372 $497 $549 forward $477 $-1 #
coedge $-1 $372 $380 $374 $480 reversed $477 $-1 #
loop $-1 $-1 $476 $486 #
vertex $-1 $549 $550 #
straight-curve $-1 0.163000000000000006 -0.02590414052697600014 0.01499021329987500033 0 -0.5008630713418139591 -0.8655265355643609881 I I #
edge $-1 $375 -0.163000000000000006 $382 0.163000000000000006 $374 $551 forward 7 unknown #
point $-1 0.163000000000000006 0.6500000000000000222 1.183000000000000052 #
edge $-1 $483 -0.4457258883248739756 $396 0.9000000000000000222 $393 $552 forward 7 unknown #
vertex $-1 $482 $553 #
straight-curve $-1 -0.163000000000000006 -0.02590414052697600014 0.01499021329987500033 0 -0.5008630713418139591 -0.8655265355643609881 I I #
point $-1 -0.163000000000000006 0.6500000000000000222 1.183000000000000052 #
face $-1 $466 $477 $2 $-1 $554 reversed single #
plane-surface $-1 0 0 0.82999999999999996 0 0 1 1 0 0 forward_v I I I I #
coedge $-1 $430 $387 $432 $524 reversed $281 $-1 #
coedge $-1 $401 $442 $387 $490 reversed $138 $-1 #
edge $-1 $503 -0.4349999999999999978 $555 -0.2924999999999999822 $489 $556 forward 7 unknown #
coedge $-1 $557 $426 $388 $492 forward $520 $-1 #
edge $-1 $518 -0.2174999999999999989 $494 -0.163000000000000006 $491 $558 forward 7 unknown #
coedge $-1 $389 $417 $557 $559 forward $103 $-1 #
vertex $-1 $492 $560 #
straight-curve $-1 0.163000000000000006 -0.9000000000000000222 0 0 0 -1 I I #
straight-curve $-1 -0.163000000000000006 -0.9000000000000000222 0 0 0 -1 I I #
coedge $-1 $394 $393 $475 $549 reversed $395 $-1 #
loop $-1 $-1 $535 $385 #
point $-1 -0.163000000000000006 -0.9000000000000000222 0.82999999999999996 #
point $-1 0.163000000000000006 -0.9000000000000000222 0.82999999999999996 #
straight-curve $-1 -0.163000000000000006 0 1.270999999999999908 0 -1 0 I I #
point $-1 -0.163000000000000006 -0.9000000000000000222 1.270999999999999908 #
vertex $-1 $412 $561 #
straight-curve $-1 -0.2174999999999999989 -0.9000000000000000222 0 0 0 1 I I #
vertex $-1 $459 $562 #
straight-curve $-1 -0.163000000000000006 0 1.485999999999999988 0 -1 0 I I #
ellipse-curve $-1 -0.2174999999999999989 -0.82999999999999996 1.415999999999999925 1 0 0 0 0.07000000000000000666 0 1 I I #
point $-1 -0.2174999999999999989 -0.82999999999999996 1.485999999999999988 #
coedge $-1 $538 $415 $418 $512 reversed $510 $-1 #
loop $-1 $-1 $538 $530 #
straight-curve $-1 0 -0.2449999999999999956 1.485999999999999988 -1 0 0 I I #
edge $-1 $545 1.266000000000000014 $419 1.485999999999999988 $509 $563 forward 7 unknown #
point $-1 0.163000000000000006 -0.2449999999999999956 1.485999999999999988 #
coedge $-1 $426 $557 $421 $515 reversed $520 $-1 #
edge $-1 $428 -0.2174999999999999989 $516 -0.163000000000000006 $421 $564 forward 7 unknown #
vertex $-1 $515 $565 #
straight-curve $-1 0.163000000000000006 -0.6999999999999999556 0 0 0 -1 I I #
vertex $-1 $425 $566 #
straight-curve $-1 0.2174999999999999989 -0.9000000000000000222 0 0 0 1 I I #
loop $-1 $-1 $426 $449 #
straight-curve $-1 0.2174999999999999989 0 1.270999999999999908 0 -1 0 I I #
point $-1 0.2174999999999999989 -0.6999999999999999556 1.270999999999999908 #
straight-curve $-1 0.2174999999999999989 -0.82999999999999996 1.485999999999999988 1 0 0 I I #
edge $-1 $433 1.570796326794896558 $555 3.141592653589793116 $432 $567 forward 7 unknown #
point $-1 -0.07499999999999999722 -0.82999999999999996 1.485999999999999988 #
vertex $-1 $440 $568 #
ellipse-curve $-1 -0.07499999999999999722 -0.8100000000000000533 1.399999999999999911 1 0 0 0 0.04950000000000000233 0 1 I I #
edge $-1 $443 1.270999999999999908 $555 1.415999999999999925 $446 $569 forward 7 unknown #
point $-1 -0.07499999999999999722 -0.9000000000000000222 1.270999999999999908 #
face $-1 $541 $510 $2 $-1 $570 reversed single #
plane-surface $-1 0.25 0 1.270999999999999908 0 0 1 1 0 0 forward_v I I I I #
vertex $-1 $452 $571 #
ellipse-curve $-1 -0.2174999999999999989 -0.8100000000000000533 1.399999999999999911 1 0 0 0 0.04950000000000000233 0 1 I I #
point $-1 0.07499999999999999722 -0.8321370729772480379 1.444274145954500099 #
coedge $-1 $535 $535 $456 $536 reversed $498 $-1 #
edge $-1 $572 -2.03444393579570626 $572 4.248741371383879972 $456 $573 forward 7 unknown #
straight-curve $-1 0 0.2999999999999999889 1.310999999999999943 -1 0 0 I I #
coedge $-1 $458 $509 $460 $540 forward $510 $-1 #
straight-curve $-1 -0.163000000000000006 -0.2449999999999999956 0 0 0 1 I I #
edge $-1 $545 -0.163000000000000006 $463 0.163000000000000006 $538 $574 forward 7 unknown #
face $-1 $60 $462 $2 $-1 $575 reversed single #
point $-1 -0.163000000000000006 -0.2449999999999999956 1.266000000000000014 #
straight-curve $-1 0 0.2999999999999999889 1.266000000000000014 1 0 0 I I #
plane-surface $-1 0 0.2999999999999999889 1.266000000000000014 0 1 0 0 0 1 forward_v I I I I #
vertex $-1 $540 $576 #
straight-curve $-1 0.163000000000000006 0 1.266000000000000014 0 -1 0 I I #
point $-1 0.163000000000000006 0.2999999999999999889 1.266000000000000014 #
straight-curve $-1 0.163000000000000006 0 0.82999999999999996 0 1 0 I I #
edge $-1 $478 0 $483 0.326000000000000012 $497 $577 forward 7 unknown #
point $-1 0.163000000000000006 0.4457258883248739756 0.82999999999999996 #
straight-curve $-1 0 0.6500000000000000222 1.183000000000000052 -1 0 0 I I #
straight-curve $-1 -0.163000000000000006 0 0.82999999999999996 0 -1 0 I I #
point $-1 -0.163000000000000006 0.4457258883248739756 0.82999999999999996 #
plane-surface $-1 0.163000000000000006 -0.02590414052697600014 0.01499021329987500033 0 -0.8655265355643609881 0.5008630713418139591 1 0 0 forward_v I I I I #
vertex $-1 $524 $578 #
straight-curve $-1 0.2174999999999999989 -0.9000000000000000222 1.415999999999999925 1 0 0 I I #
coedge $-1 $514 $491 $493 $559 reversed $520 $-1 #
straight-curve $-1 0 -0.9000000000000000222 1.270999999999999908 -1 0 0 I I #
edge $-1 $516 0.6999999999999999556 $494 0.9000000000000000222 $557 $579 forward 7 unknown #
point $-1 0.163000000000000006 -0.9000000000000000222 1.270999999999999908 #
point $-1 -0.2174999999999999989 -0.9000000000000000222 1.415999999999999925 #
point $-1 -0.163000000000000006 -0.2449999999999999956 1.485999999999999988 #
straight-curve $-1 0.163000000000000006 -0.2449999999999999956 0 0 0 1 I I #
straight-curve $-1 0 -0.6999999999999999556 1.270999999999999908 -1 0 0 I I #
point $-1 0.163000000000000006 -0.6999999999999999556 1.270999999999999908 #
point $-1 0.2174999999999999989 -0.9000000000000000222 1.270999999999999908 #
ellipse-curve $-1 -0.07499999999999999722 -0.82999999999999996 1.415999999999999925 1 0 0 0 0.07000000000000000666 0 1 I I #
point $-1 -0.07499999999999999722 -0.7878629270227519577 1.355725854045499945 #
straight-curve $-1 -0.07499999999999999722 -0.9000000000000000222 0 0 0 1 I I #
plane-surface $-1 0 -0.2449999999999999956 1.266000000000000014 0 -1 0 0 0 -1 forward_v I I I I #
point $-1 -0.2174999999999999989 -0.7878629270227519577 1.355725854045499945 #
vertex $-1 $536 $580 #
ellipse-curve $-1 0 -0.4099999999999999756 0.82999999999999996 0 0 -1 0.1260000000000000009 0 0 1 I I #
straight-curve $-1 0 -0.2449999999999999956 1.266000000000000014 -1 0 0 I I #
plane-surface $-1 -0.25 -0.2449999999999999956 1.266000000000000014 0 0 -1 -1 0 0 forward_v I I I I #
point $-1 0.163000000000000006 -0.2449999999999999956 1.266000000000000014 #
straight-curve $-1 0.163000000000000006 0.4457258883248739756 0.82999999999999996 -1 0 0 I I #
point $-1 -0.07499999999999999722 -0.9000000000000000222 1.415999999999999925 #
straight-curve $-1 0.163000000000000006 0 1.270999999999999908 0 -1 0 I I #
point $-1 -0.05634891303299500304 -0.2973021739340109826 0.82999999999999996 #
End-of-ACIS-data 