  0
SECTION
  2
HEADER
  9
$ACADVER
  1
AC1009
  9
$INSBASE
 10
0.0
 20
0.0
 30
0.0
  9
$EXTMIN
 10
0.0
 20
0.0
 30
0.0
  9
$EXTMAX
 10
6.0
 20
6.0
 30
7.0
  9
$LIMMIN
 10
0.0
 20
0.0
  9
$LIMMAX
 10
12.0
 20
9.0
  9
$ORTHOMODE
 70
     0
  9
$REGENMODE
 70
     1
  9
$FILLMODE
 70
     1
  9
$QTEXTMODE
 70
     0
  9
$MIRRTEXT
 70
     1
  9
$DRAGMODE
 70
     2
  9
$LTSCALE
 40
1.0
  9
$OSMODE
 70
     0
  9
$ATTMODE
 70
     1
  9
$TEXTSIZE
 40
0.2
  9
$TRACEWID
 40
0.05
  9
$TEXTSTYLE
  7
STANDARD
  9
$CLAYER
  8
0
  9
$CELTYPE
  6
BYLAYER
  9
$CECOLOR
 62
   256
  9
$DIMSCALE
 40
1.0
  9
$DIMASZ
 40
0.18
  9
$DIMEXO
 40
0.0625
  9
$DIMDLI
 40
0.38
  9
$DIMRND
 40
0.0
  9
$DIMDLE
 40
0.0
  9
$DIMEXE
 40
0.18
  9
$DIMTP
 40
0.0
  9
$DIMTM
 40
0.0
  9
$DIMTXT
 40
0.18
  9
$DIMCEN
 40
0.09
  9
$DIMTSZ
 40
0.0
  9
$DIMTOL
 70
     0
  9
$DIMLIM
 70
     0
  9
$DIMTIH
 70
     1
  9
$DIMTOH
 70
     1
  9
$DIMSE1
 70
     0
  9
$DIMSE2
 70
     0
  9
$DIMTAD
 70
     0
  9
$DIMZIN
 70
     0
  9
$DIMBLK
  1

  9
$DIMASO
 70
     1
  9
$DIMSHO
 70
     1
  9
$DIMPOST
  1

  9
$DIMAPOST
  1

  9
$DIMALT
 70
     0
  9
$DIMALTD
 70
     2
  9
$DIMALTF
 40
25.4
  9
$DIMLFAC
 40
1.0
  9
$DIMTOFL
 70
     0
  9
$DIMTVP
 40
0.0
  9
$DIMTIX
 70
     0
  9
$DIMSOXD
 70
     0
  9
$DIMSAH
 70
     0
  9
$DIMBLK1
  1

  9
$DIMBLK2
  1

  9
$DIMSTYLE
  2
*UNNAMED
  9
$DIMCLRD
 70
     0
  9
$DIMCLRE
 70
     0
  9
$DIMCLRT
 70
     0
  9
$DIMTFAC
 40
1.0
  9
$DIMGAP
 40
0.09
  9
$LUNITS
 70
     2
  9
$LUPREC
 70
     4
  9
$SKETCHINC
 40
0.1
  9
$FILLETRAD
 40
0.0
  9
$AUNITS
 70
     0
  9
$AUPREC
 70
     0
  9
$MENU
  1
acad
  9
$ELEVATION
 40
0.0
  9
$PELEVATION
 40
0.0
  9
$THICKNESS
 40
0.0
  9
$LIMCHECK
 70
     0
  9
$BLIPMODE
 70
     1
  9
$CHAMFERA
 40
0.0
  9
$CHAMFERB
 40
0.0
  9
$SKPOLY
 70
     0
  9
$TDCREATE
 40
2449378.618812847
  9
$TDUPDATE
 40
2449378.620304201
  9
$TDINDWG
 40
0.0014913542
  9
$TDUSRTIMER
 40
0.0014913542
  9
$USRTIMER
 70
     1
  9
$ANGBASE
 50
0.0
  9
$ANGDIR
 70
     0
  9
$PDMODE
 70
     0
  9
$PDSIZE
 40
0.0
  9
$PLINEWID
 40
0.0
  9
$COORDS
 70
     1
  9
$SPLFRAME
 70
     0
  9
$SPLINETYPE
 70
     6
  9
$SPLINESEGS
 70
     8
  9
$ATTDIA
 70
     0
  9
$ATTREQ
 70
     1
  9
$HANDLING
 70
     1
  9
$HANDSEED
  5
52
  9
$SURFTAB1
 70
     6
  9
$SURFTAB2
 70
     6
  9
$SURFTYPE
 70
     6
  9
$SURFU
 70
     6
  9
$SURFV
 70
     6
  9
$UCSNAME
  2

  9
$UCSORG
 10
0.0
 20
0.0
 30
0.0
  9
$UCSXDIR
 10
1.0
 20
0.0
 30
0.0
  9
$UCSYDIR
 10
0.0
 20
1.0
 30
0.0
  9
$PUCSNAME
  2

  9
$PUCSORG
 10
0.0
 20
0.0
 30
0.0
  9
$PUCSXDIR
 10
1.0
 20
0.0
 30
0.0
  9
$PUCSYDIR
 10
0.0
 20
1.0
 30
0.0
  9
$USERI1
 70
     0
  9
$USERI2
 70
     0
  9
$USERI3
 70
     0
  9
$USERI4
 70
     0
  9
$USERI5
 70
     0
  9
$USERR1
 40
0.0
  9
$USERR2
 40
0.0
  9
$USERR3
 40
0.0
  9
$USERR4
 40
0.0
  9
$USERR5
 40
0.0
  9
$WORLDVIEW
 70
     1
  9
$SHADEDGE
 70
     3
  9
$SHADEDIF
 70
    70
  9
$TILEMODE
 70
     1
  9
$MAXACTVP
 70
    16
  9
$PINSBASE
 10
0.0
 20
0.0
 30
0.0
  9
$PLIMCHECK
 70
     0
  9
$PEXTMIN
 10
1.000000E+20
 20
1.000000E+20
 30
1.000000E+20
  9
$PEXTMAX
 10
-1.000000E+20
 20
-1.000000E+20
 30
-1.000000E+20
  9
$PLIMMIN
 10
0.0
 20
0.0
  9
$PLIMMAX
 10
12.0
 20
9.0
  9
$UNITMODE
 70
     0
  9
$VISRETAIN
 70
     0
  9
$PLINEGEN
 70
     0
  9
$PSLTSCALE
 70
     1
  9
$TREEDEPTH
 70
  3020
  9
$DWGCODEPAGE
  3
ascii
  0
ENDSEC
  0
SECTION
  2
TABLES
  0
TABLE
  2
VPORT
 70
     2
  0
VPORT
  2
*ACTIVE
 70
     0
 10
0.0
 20
0.0
 11
1.0
 21
1.0
 12
2.349824
 22
1.551881
 13
0.0
 23
0.0
 14
1.0
 24
1.0
 15
0.0
 25
0.0
 16
1.0
 26
2.0
 36
1.0
 17
0.0
 27
0.0
 37
0.0
 40
9.676432
 41
1.594883
 42
50.0
 43
0.0
 44
0.0
 50
0.0
 51
0.0
 71
     0
 72
   100
 73
     1
 74
     1
 75
     0
 76
     0
 77
     0
 78
     0
  0
ENDTAB
  0
TABLE
  2
LTYPE
 70
     1
  0
LTYPE
  2
CONTINUOUS
 70
    64
  3
Solid line
 72
    65
 73
     0
 40
0.0
  0
ENDTAB
  0
TABLE
  2
LAYER
 70
     2
  0
LAYER
  2
0
 70
    64
 62
     7
  6
CONTINUOUS
  0
LAYER
  2
AME_FRZ
 70
    65
 62
     7
  6
CONTINUOUS
  0
ENDTAB
  0
TABLE
  2
STYLE
 70
     1
  0
STYLE
  2
STANDARD
 70
     0
 40
0.0
 41
1.0
 50
0.0
 71
     0
 42
0.2
  3
txt
  4

  0
ENDTAB
  0
TABLE
  2
VIEW
 70
     0
  0
ENDTAB
  0
TABLE
  2
UCS
 70
     0
  0
ENDTAB
  0
TABLE
  2
APPID
 70
     3
  0
APPID
  2
ACAD
 70
    64
  0
APPID
  2
AME_SOL
 70
    64
  0
APPID
  2
AVE_INVOKE
 70
    64
  0
ENDTAB
  0
TABLE
  2
DIMSTYLE
 70
     0
  0
ENDTAB
  0
ENDSEC
  0
SECTION
  2
BLOCKS
  0
BLOCK
  8
0
  5
1
  2
AME_NIL
 70
    64
 10
0.0
 20
0.0
 30
0.0
  1
AME_NIL
  3
AME_NIL
  0
ENDBLK
  8
0
  5
2
  0
BLOCK
  8
0
  5
4
  2
AME_SOL
 70
    64
 10
0.0
 20
0.0
 30
0.0
  1
AME_SOL
  3
AME_SOL
  0
ENDBLK
  8
0
  5
5
  0
BLOCK
  8
0
  5
32
  2
*U5
 70
    65
 10
0.0
 20
0.0
 30
0.0
  1
*U
  3
*U
  0
LINE
  8
0
 62
     7
  5
33
 10
6.0
 20
6.0
 30
0.0
 11
6.0
 21
6.0
 31
7.0
1001
AME_SOL
1070
     1
1071
       26
  0
LINE
  8
0
 62
     7
  5
34
 10
6.0
 20
6.0
 30
7.0
 11
6.0
 21
0.0
 31
7.0
1001
AME_SOL
1070
     1
1071
       25
  0
LINE
  8
0
 62
     7
  5
35
 10
0.0
 20
6.0
 30
7.0
 11
6.0
 21
6.0
 31
7.0
1001
AME_SOL
1070
     1
1071
       24
  0
LINE
  8
0
 62
     7
  5
36
 10
0.0
 20
6.0
 30
0.0
 11
0.0
 21
6.0
 31
7.0
1001
AME_SOL
1070
     1
1071
       23
  0
LINE
  8
0
 62
     7
  5
37
 10
0.0
 20
6.0
 30
7.0
 11
0.0
 21
0.0
 31
7.0
1001
AME_SOL
1070
     1
1071
       22
  0
LINE
  8
0
 62
     7
  5
38
 10
0.0
 20
0.0
 30
0.0
 11
0.0
 21
0.0
 31
7.0
1001
AME_SOL
1070
     1
1071
       21
  0
LINE
  8
0
 62
     7
  5
39
 10
6.0
 20
0.0
 30
7.0
 11
6.0
 21
0.0
 31
0.0
1001
AME_SOL
1070
     1
1071
       20
  0
LINE
  8
0
 62
     7
  5
3A
 10
0.0
 20
0.0
 30
7.0
 11
6.0
 21
0.0
 31
7.0
1001
AME_SOL
1070
     1
1071
       19
  0
LINE
  8
0
 62
     7
  5
3B
 10
0.0
 20
0.0
 30
0.0
 11
6.0
 21
0.0
 31
0.0
1001
AME_SOL
1070
     1
1071
       18
  0
LINE
  8
0
 62
     7
  5
3C
 10
0.0
 20
6.0
 30
0.0
 11
0.0
 21
0.0
 31
0.0
1001
AME_SOL
1070
     1
1071
       17
  0
LINE
  8
0
 62
     7
  5
3D
 10
6.0
 20
0.0
 30
0.0
 11
6.0
 21
6.0
 31
0.0
1001
AME_SOL
1070
     1
1071
       16
  0
LINE
  8
0
 62
     7
  5
3E
 10
6.0
 20
6.0
 30
0.0
 11
0.0
 21
6.0
 31
0.0
1001
AME_SOL
1070
     1
1071
       15
  0
CIRCLE
  8
0
 62
     7
  5
3F
 10
3.0
 20
3.0
 30
3.0
 40
2.0
1001
AME_SOL
1070
     1
1071
       14
  0
CIRCLE
  8
0
 62
     7
  5
40
 10
3.0
 20
3.0
 30
4.0
 40
2.0
1001
AME_SOL
1070
     1
1071
       13
  0
CIRCLE
  8
0
 62
     7
  5
41
 10
3.0
 20
3.0
 30
7.0
 40
1.0
1001
AME_SOL
1070
     1
1071
       12
  0
CIRCLE
  8
0
 62
     7
  5
42
 10
3.0
 20
3.0
 30
4.0
 40
1.0
1001
AME_SOL
1070
     1
1071
       11
  0
LINE
  8
0
 62
     7
  5
43
 10
1.0
 20
3.0
 30
3.0
 11
1.0
 21
3.0
 31
4.0
1001
AME_SOL
1070
     0
1071
        2
  0
LINE
  8
0
 62
     7
  5
44
 10
3.0
 20
1.0
 30
3.0
 11
3.0
 21
1.0
 31
4.0
1001
AME_SOL
1070
     0
1071
        2
  0
LINE
  8
0
 62
     7
  5
45
 10
5.0
 20
3.0
 30
3.0
 11
5.0
 21
3.0
 31
4.0
1001
AME_SOL
1070
     0
1071
        2
  0
LINE
  8
0
 62
     7
  5
46
 10
3.0
 20
5.0
 30
3.0
 11
3.0
 21
5.0
 31
4.0
1001
AME_SOL
1070
     0
1071
        2
  0
LINE
  8
0
 62
     7
  5
47
 10
2.0
 20
3.0
 30
4.0
 11
2.0
 21
3.0
 31
7.0
1001
AME_SOL
1070
     0
1071
        1
  0
LINE
  8
0
 62
     7
  5
48
 10
3.0
 20
2.0
 30
4.0
 11
3.0
 21
2.0
 31
7.0
1001
AME_SOL
1070
     0
1071
        1
  0
LINE
  8
0
 62
     7
  5
49
 10
4.0
 20
3.0
 30
4.0
 11
4.0
 21
3.0
 31
7.0
1001
AME_SOL
1070
     0
1071
        1
  0
LINE
  8
0
 62
     7
  5
4A
 10
3.0
 20
4.0
 30
4.0
 11
3.0
 21
4.0
 31
7.0
1001
AME_SOL
1070
     0
1071
        1
  0
ENDBLK
  8
0
  5
4B
  0
BLOCK
  8
0
  5
4F
  2
AME_JNK
 70
     0
 10
0.0
 20
0.0
 30
0.0
  1
AME_JNK
  3
AME_JNK
  0
ENDBLK
  8
0
  5
50
  0
ENDSEC
  0
SECTION
  2
ENTITIES
  0
INSERT
  8
AME_FRZ
  5
3
  2
AME_NIL
 10
0.0
 20
0.0
 30
0.0
  0
INSERT
  8
AME_FRZ
  5
6
  2
AME_SOL
 10
0.0
 20
0.0
 30
0.0
1001
AME_SOL
1000
R2.1
1000
AME2
1000
sq cm
1070
     3
1070
     0
1070
     3
1000
wire
1040
45.0
1000
U
1040
1.0
1000
cm
1000
gm
1000
MILD_STEEL
1070
    25
1000
CSG
1070
     1
1070
     3
1070
     3
1070
     3
1070
     0
1000
cu cm
1070
     1
1070
     0
1005
3
  0
INSERT
  8
AME_FRZ
  5
15
  2
AME_NIL
 10
0.0
 20
0.0
 30
0.0
1001
AME_SOL
1002
{
1070
     1
1071
  2464584
1070
  1536
1070
     1
1010
6.0
1020
6.0
1030
7.0
1005
0
1005
0
1005
4C
1040
0.0
1040
1.0
1070
     0
1000
MILD_STEEL
1000
0
1010
0.0
1020
0.0
1030
0.0
1010
0.0
1020
0.0
1030
1.0
1040
0.0
1002
}
1001
AVE_INVOKE
1000
SOLAVEMESH
  0
INSERT
  8
AME_FRZ
  5
21
  2
AME_NIL
 10
3.0
 20
3.0
 30
3.0
1001
AME_SOL
1002
{
1070
     1
1071
  2465584
1070
  1538
1070
     1
1010
2.0
1020
2.0
1030
1.0
1005
0
1005
0
1005
30
1040
0.0
1040
1.0
1070
     0
1000
MILD_STEEL
1000
0
1010
3.0
1020
3.0
1030
3.0
1010
0.0
1020
0.0
1030
1.0
1040
0.0
1002
}
1001
AVE_INVOKE
1000
SOLAVEMESH
  0
INSERT
  8
AME_FRZ
  5
2D
  2
AME_NIL
 10
3.0
 20
3.0
 30
4.0
1001
AME_SOL
1002
{
1070
     1
1071
  2493008
1070
  1538
1070
     1
1010
1.0
1020
1.0
1030
3.0
1005
0
1005
0
1005
30
1040
0.0
1040
1.0
1070
     0
1000
MILD_STEEL
1000
0
1010
3.0
1020
3.0
1030
4.0
1010
0.0
1020
0.0
1030
1.0
1040
0.0
1002
}
1001
AVE_INVOKE
1000
SOLAVEMESH
  0
INSERT
  8
AME_FRZ
  5
30
  2
AME_NIL
 10
0.0
 20
0.0
 30
0.0
1001
AME_SOL
1002
{
1070
     1
1071
  2476944
1070
   775
1070
     0
1070
     2
1005
21
1005
2D
1005
0
1005
0
1005
4C
1040
0.0
1040
1.0
1070
     0
1000
MILD_STEEL
1000
0
1010
0.0
1020
0.0
1030
0.0
1010
0.0
1020
0.0
1030
1.0
1040
0.0
1002
}
  0
INSERT
  8
0
  5
4C
  2
*U5
 10
0.0
 20
0.0
 30
0.0
1001
AME_SOL
1002
{
1070
     1
1071
  2467328
1070
  1543
1070
     1
1070
     0
1005
15
1005
30
1005
0
1005
4D
1005
0
1040
0.0
1040
1.0
1070
     0
1000
MILD_STEEL
1000
0
1002
}
1001
AVE_INVOKE
1000
SOLAVEMESH
  0
INSERT
  8
AME_FRZ
  5
4D
  2
AME_NIL
 10
1.0
 20
1.0
 30
1.0
1001
AME_SOL
1004
C7CF0100DB006D016C016A0166015F0108005401020044013401F700F800350124010B0073002501FC00CF0060015501BF004501360126011700F20027011A0178008D001B0150008A00A8005601FE00EF006701610101005701460137011B00840080004701380128011C0114010B0193005800F4006700
1004
14000900C0006201580148011100390129011D01DC006A000F000400490124003A01FB002A01A0001E013300D40059014A01230081004B01180095006B01680163015A014C01CC003B01EE0005004D0110003C0107004E004000FF00690164015B013F004E0125003D012B011F011501DD00DE0003004400
1004
2A005C01F0004F01CA00660065015D0150013E017200CE003F0196006200510140012C015F00B9002D013500EA0041012E011C0021002F01990054005E01520142013001A4002D00310120016D004D002101D10016010C01FA0022000D012700F60043013201220117010E01F500D0000F01010100010A00
1004
02010D000E001801100103011300150004011900F900110105012F00E0000601C800B000200033012301190112010701A900880008014C004F0013010901520090000A01910092004800280053017500DF00000075B32EB665EC06C48795577B2063D164E4388067E7CE884388067E7CE884388067E7CE88
1004
61BA8ED8079261BA8ED8079261BA8ED80EC4939B0A42BA4B10926F990AC3A4B10926F990AC3313788F532508CA930DD476C044930DD476C044930DD476C07624975A38AC2A9AAAE4BD309BAD1FFDA63FFFFFFF698FFFC09FC09FD1250FFB4C7ED31FFFFFEEB47FF698FFFFFFFDA63FFF027F027F44943FED
1004
31FB4C7FFFFED08F2BAFDC9F7FB4C7FFFFFFED31FE1AAAAAA8C9FD127F4490AE2685B3B839BE7EE2685B3B839BE74793FE88B93ED08CCF71342D9DC1CDF3FFD11727DA13FD555555192E2685B3B839BE7413FFAAAAAAA3242BCC32ABCC32A93FFAAAAAAA325E57593B93EFF698FFFFFFFDA63FFF449FC09F
1004
D1242B89A16CEE0E6F9FB89A16CEE0E6F9D1E4FFA22E4FB42333DC4D0B6770737CFFF445C9F684FF555555464B89A16CEE0E6F9D04FFEAAAAAA8C90AF30CAAF30CAA4FFEAAAAAA8C9795D617727DFED31FFFFFFFB4C7F86AAAAAA32555555558FD1242B89A16CEE0E6F9FB89A16CEE0E6F9D1E4FFA22E4FB
1004
42333DC4D0B6770737CFFF445C9F684FF555555464B89A16CEE0E6F9D04FFEAAAAAA8C90AF30CAAF30CAA4FFEAAAAAA8C9795D6CCF727DFED31FFFFFFFB4C7FAAAAAAAB065F813FA248571342D9DC1CDF3F71342D9DC1CDF3A3C9FF445C9F684667B89A16CEE0E6F9FFE88B93ED09FEAAAAAA8C971342D9D
1004
C1CDF3A09FFD55555519215E61955E619549FFD5555551926C290A1D0F999516E91D80E87CCCA8B748EC3303788F53250919261BA8ED80594986EA3B60165261BA8ED808924BAD1CDC2B9AAAE49601375A3FFB4C7FFFFFFED31FFF813F813F81287FE9FE9FFFFFF75A3FFB4C7FFFFFFED31FFF813F813F81
1004
287FE9FE9FFFFFDA11E575FB93EFF698FFFFFFFDA63FDA55555464FE594FE048571342D9DC1CDF3F71342D9DC1CDF3A3C2FF80BFF93ED3032AAAA99521771342D9DC1CDF3FFC05C65555532A5C4D0B6770737CE827FF27DA602BC832ABC832A93FF93ED30F2BAC9DC9F7FB4C7FFFFFFED31FFF9653F813F8
1004
1215C4D0B6770737CFDC4D0B6770737CE8F0BFE02FFE4FB4C0CAAAAA65485DC4D0B6770737CFFF0171955554CA971342D9DC1CDF3A09FFC9F6980AF20CAAF20CAA4FFE4FB4C3CAEB0BB93EFF698FFFFFFFDA63FDA55555464AAAAAA8EC7E048571342D9DC1CDF3F71342D9DC1CDF3A3C2FF80BFF93ED3032
1004
AAAA99521771342D9DC1CDF3FFC05C65555532A5C4D0B6770737CE827FF27DA602BC832ABC832A93FF93ED30F2BAD99EE4FBFDA63FFFFFFF698FF5555551D87AFC09FC090AE2685B3B839BE7EE2685B3B839BE74785FF017FF27DA6065555532A42EE2685B3B839BE7FF80B8CAAAAA654B89A16CEE0E6F9D
1004
04FFE4FB4C0579065579065527FF27DA60D85248743E66545BA47603A1F332A2DD23B0CC0DE23D4C942464986EA3B60165261BA8ED80594BCEA019F9F300492528E02C26AAB92F6726528FFED31FFFFFCAFED09FCAFE04FE04FE04A1FFFFFFFFFFCA51FFDA63FFFFF95FDA13F95FC09FC09FC0943FFFFFFF
1004
FFED086C290A1D0F999516E91D80E87CCCA8B748EC3313788F532508CA930DD476C02CA4C3751DB00B2930DD476C044924A51C540D3555C97B3132947FF698FFFFFFFDA63FFF027F027F44943FFFFFFFFFF94A3FFB4C7FFFFFFED31FFF813F813FA24A1FFFFFFFFFF684361499C87100CFCF9D1087100CFC
1004
F9D1087100CFCF9D10C3751DB00F24C3751DB00F2487100CFCF9D60929477B4CD949C979C26528FFFFED31FFFB4C7FFFFFFFFFA1FFFFFFFFFFCA51FFFFDA63FFF698FFFFFFFFFF43FFFFFFFFFED306C293390E2019F9F3A210E2019F9F3A210E2019F9F3A2186EA3B601E490E2019F9F3AC226EA3B603B12
1004
494A39743652725E964CA51FFDA63FFFFFFFFF698FFFFFF43FFFFFFFFFF94A3FFB4C7FFFFFFFFED31FFFFFE87FFFFFFFFFDA60D8526721C4033F3E74421C4033F3E74421C4033F3E74421C4033F3E75830DD476C03C944DD476C07624929470D2D65272434994A3FFFFFFB4C7FFED31FFFFFFFE87FFFFFFF
1004
FFF2947FFFFFF698FFFDA63FFFFFFFD0FFFFFFFFFFB4C1B0A50E4388067E7CE884388067E7CE8884EEA275061424C3751DB00F24C3751DB00F2513751DB01D8924A51C08CCA4E486132947FF684FE57F95FE57F684FE57F3C9FCF25555554A1287FFFFFFFFFF2947FF684FE57F95FE57F684FE57F3C9FCF2
1004
5555554A1287FFFFFFFFFDA60D8526721C4033F3E7441DDD44EA0C142487100CFCF9D10C3751DB00F24C3751DB00F2513751DB01D8924A51DEA0652725E7C994A3FFCAFF2BFB427ED09FCAFF2BF9E4FE792AAAAAA50943FFFFFFFFFF94A3FFCAFF2BFB427ED09FCAFF2BF9E4FE792AAAAAA50943FFFFFFFF
1004
FED306C29338EEEA275060A124388067E7CE884388067E7CE8861BA8ED8079261BA8ED8079289BA8ED80EC492528E6EB29392F404CA51FFE57F684FE57F95FE57F684FCF27F3C9555555284A1FFFFFFFFFFCA51FFE57F684FE57F95FE57F684FCF27F3C9555555284A1FFFFFFFFFF69878213A4B10926F99
1004
0AC3A4B10926F990AC3313788F532508CA930DD476C044930DD476C044930DD476C04497BBC59AEF367696977BBC59AEF367696A42879F06BD8DE7BAA922B0AA6A2A069AE1456154D4540D35555555550F3EFF698FFFFFFFDA63FFF027F027F44933FED31FB4C3DDE2CD779B3B4B4BBDDE2CD779B3B4B52F
1004
04274962124DF3215874962124DF321584277513A830A1261BA8ED8089261BA8ED8089289BA8ED80EC4BDDE2CD779B3B4B4BBDDE2CD779B3B4B52143CF9E85EC4F3DC955158553502332E1408CCA2B0AA6A4EAAAA1E7DFED31FFFFFFFB4C7FFE04FE04AAAAAA9424CFFB4C7ED30F778B35DE6CED2D2EF778
1004
B35DE6CED2D4BC1083A1F332A2DD23B01D0F999516E91D86626F11EA64A1195261BA8ED80594986EA3B60165261BA8ED80892F778B35DE6CED2D2EF778B35DE6CED2D4850F3E0D30F7E4AA9B8573515034D70A2A069A9B85735555555550F3EFF698FFFFFFFDA63FFF027F027F44933FF4FF4BDDE2CD779B
1004
3B4B4BBDDE2CD779B3B4B52F0420E87CCCA8B748EC0743E66545BA4761981BC47A992848C930DD476C02CA4C3751DB00B2979D4033F3E60097BBC59AEF367696977BBC59AEF367696A42879F3D09BECBAA926E15CD40584D70A6E15CD40584D5555555543CFBFDA63FFFFFFF698FFFC09FC09FC0933FF4FF
1004
4BDDE2CD779B3B4B4BBDDE2CD779B3B4B52F04221C4033F3E7441DDD44EA0C142487100CFCF9D10C3751DB00F24C3751DB00F2487100CFCF9D63F017FC090AE4F8AA9AEAA4BDA66CAF5032E15ED33657A81949C9DC9F7FFFB4C7FFFFFFED09F813F9E4FF85FC05FF025E0843BBA89D41828490E2019F9F3A
1004
210E2019F9F3A2186EA3B601E4986EA3B601E490E2019F9F3AC7E02FF81215C9F1E7A332EAA4BDA66CA6EB2E15ED3365375949C9DC9F7FB4C7FFFFFFFFED09F9E4FE04FF85FC05FF025E0844388067E7CE884388067E7CE884388067E7CE884388067E7CEB061BA8ED807924388067E7CEB1F9E2FFCA8572
1004
7CF4E79C35D5497B4CD9434B5970AF699B28696B29393B93EFF684FFFFFFFFFDA13FFFFFC2FE78BFF2AF04221C4033F3E74421C4033F3E74421C4033F3E74430DD476C03C921C4033F3E75821C4033F3E758FFFCF242B93E0D3635D5497B4CD94BA1B2E15ED33652E86CA4E4EE4FBFFFDA13FFFFFFF684FF
1004
FFFF0BFFF9E4BC10887100CFCF9D1087100CFCF9D1109DD44EA0C284986EA3B601E490E2019F9F3AC226EA3B603B13F80BFE0485727CF77A035D5492E86CA04665C2974365023329393B93EFFFFFF698FFFDA13FFF027FD555554A1217F017FC0978210EEEA275060A124388067E7CE884388067E7CE8861
1004
BA8ED807924388067E7CEB089BA8ED80EC4AAAAAA870BAAAAAA871215C9F160BCF9AEAA4974365375970A5D0D94DD652727727DFED31FFFFFFFB427FFE793FEAAAAAA1C4855555550E175555550E25E0844388067E7CE884388067E7CE884388067E7CE884388067E7CEB04388067E7CEB089BA8ED80EC4F
1004
FAAAAAA94242B93E7B0861AEAA49743650D2D65C29743650D2D652727727DFED09FFFFFFFB427FFFFFFF85FF555555284BC10887100CFCF9D1087100CFCF9D1109DD44EA0C28490E2019F9F3AC186EA3B601E4A26EA3B603B13F80BFE0485727C55E90CBAA921A5ACA04665C28696B28119949C9DC9F7FFF
1004
FFB4C7ED09FFFFFFF812AAAAAA5090BF80BFE04BC10887100CFCF9D10777513A83050921C4033F3E74421C4033F3E75830DD476C03C944DD476C07625555554385D5555543890AE4F9E9E5965D5490D2D657A81970A1A5ACAF50329393B93EFFFF698FFFDA13FFFFFFF3C95555550E242AAAAAA870BAAAAA
1004
A8712F04221C4033F3E7441DDD44EA0C142509DD44EA0C284986EA3B601E4986EA3B601E4A26EA3B603B13F9E2FFCA85727CF4D7A4B2EAA4811995EA065C2811995EA0652727727DFFFED31FFFFFFFB4C7E793F9E4AAAAAA94242FE78BFF2AF0421DDD44EA0C142487100CFCF9D1109DD44EA0C284986EA3
1004
B601E4986EA3B601E4A26EA3B603B13FFF9E485727CF657A3B2EAA4811994DD65C2811994DD652727727DFED31FFFFFCAFFFED31F9E4FE792AAAAAA5090BFFF9E4BC108777513A8305091DDD44EA0C142487100CFCF9D10C3751DB00F24C3751DB00F2513751DB01D89555555282FFCA85727C5CCACBAA92
1004
F50329BACB857A8194DD652727727DFED31FFFFFFFB4C7FFE793F9E4AAAAAA94242AAAAAA9417FE55E941E7A22
1005
4E
  0
INSERT
  8
AME_FRZ
  5
4E
  2
AME_NIL
 10
1.0
 20
1.0
 30
1.0
1001
AME_SOL
1004

1005
0
  0
ENDSEC
  0
EOF
