600 0 2 0           
24 FBMach with ACIS - 6.0.3 13 ACIS 6.0.3 NT 24 Mon Apr 01 00:09:46 2002 
1 9.9999999999999995e-007 1e-010 
body $2 $3 $-1 $4 #
bdycol-kcp $-1 1 1 $5 #
model_id-kcp-attrib $-1 $6 $-1 $0 1 1017637785 60 1631322113 1 #
lump $-1 $-1 $7 $0 #
transform $-1 1 0 0 0 1 0 0 0 1 0 0 0 1 rotate no_reflect no_shear #
body $8 $9 $-1 $10 #
aggregate_advspl_attribute-aggregate_geombuild_base_attribute-aggregate_body_attribute-attrib_HH-attrib $-1 $11 $2 $0 F #
shell $-1 $-1 $-1 $12 $-1 $3 #
model_id-kcp-attrib $-1 $-1 $-1 $5 1 1017637785 60 1631322114 1 #
lump $-1 $-1 $13 $5 #
transform $-1 1 0 0 0 1 0 0 0 1 0 0 0 1 no_rotate no_reflect no_shear #
aggregate_secndry_attribute-aggregate_geombuild_base_attribute-aggregate_body_attribute-attrib_HH-attrib $-1 $14 $6 $0 F #
face $15 $16 $17 $7 $-1 $18 forward single #
shell $-1 $-1 $-1 $19 $-1 $9 #
aggregate_sharped_attribute-aggregate_geombuild_base_attribute-aggregate_body_attribute-attrib_HH-attrib $-1 $20 $11 $0 F #
model_id-kcp-attrib $-1 $21 $-1 $12 1 1017637785 60 1631322113 2 #
face $22 $23 $24 $7 $-1 $25 reversed single #
loop $-1 $-1 $26 $12 #
plane-surface $-1 0 0 12.5 0 0 1 1 0 0 forward_v I I I I #
face $27 $28 $29 $13 $-1 $30 forward single #
aggregate_reblend_attribute-aggregate_geombuild_base_attribute-aggregate_body_attribute-attrib_HH-attrib $-1 $31 $14 $0 F #
attrib_hh_face_geombuild-attrib_entity_geombuild-individual_entity_attribute-attrib_HH-attrib $-1 $-1 $15 $12 F #
model_id-kcp-attrib $-1 $32 $-1 $16 1 1017637785 60 1631322113 3 #
face $33 $34 $35 $7 $-1 $36 reversed single #
loop $-1 $-1 $37 $16 #
plane-surface $-1 0 0 -12.5 0 0 1 1 0 0 forward_v I I I I #
coedge $38 $39 $40 $41 $42 forward $17 $-1 #
model_id-kcp-attrib $-1 $-1 $-1 $19 1 1017637785 60 1631322114 2 #
face $43 $44 $45 $13 $-1 $46 reversed single #
loop $-1 $-1 $47 $19 #
plane-surface $-1 0 0 12.5 0 0 1 1 0 0 forward_v I I I I #
aggregate_isospline_attribute-aggregate_geombuild_base_attribute-aggregate_body_attribute-attrib_HH-attrib $-1 $48 $20 $0 F #
attrib_hh_face_geombuild-attrib_entity_geombuild-individual_entity_attribute-attrib_HH-attrib $-1 $-1 $22 $16 F #
model_id-kcp-attrib $-1 $49 $-1 $23 1 1017637785 60 1631322113 4 #
face $50 $51 $52 $7 $-1 $53 reversed single #
loop $-1 $-1 $54 $23 #
plane-surface $-1 0 -25 0 0 1 0 0 0 1 forward_v I I I I #
coedge $55 $56 $57 $58 $59 forward $24 $-1 #
attrib_hh_coedge_geombuild-attrib_entity_geombuild-individual_entity_attribute-attrib_HH-attrib $-1 $-1 $-1 $26 F #
coedge $60 $61 $26 $62 $63 forward $17 $-1 #
coedge $64 $26 $61 $65 $66 forward $17 $-1 #
coedge $67 $68 $69 $26 $42 reversed $70 $-1 #
edge $71 $72 -25 $73 25 $41 $74 forward 7 unknown #
model_id-kcp-attrib $-1 $-1 $-1 $28 1 1017637785 60 1631322114 3 #
face $75 $76 $77 $13 $-1 $78 reversed single #
loop $-1 $-1 $79 $28 #
plane-surface $-1 0 0 -12.5 0 0 1 1 0 0 forward_v I I I I #
coedge $-1 $80 $81 $82 $83 forward $29 $-1 #
aggregate_analytic_solver_attribute-aggregate_geombuild_base_attribute-aggregate_body_attribute-attrib_HH-attrib $-1 $84 $31 $0 F #
attrib_hh_face_geombuild-attrib_entity_geombuild-individual_entity_attribute-attrib_HH-attrib $-1 $-1 $33 $23 F #
model_id-kcp-attrib $-1 $85 $-1 $34 1 1017637785 60 1631322113 5 #
face $86 $87 $88 $7 $-1 $89 reversed single #
loop $-1 $-1 $90 $34 #
plane-surface $-1 -62.5 0 0 1 0 0 0 0 -1 forward_v I I I I #
coedge $91 $92 $65 $93 $94 forward $35 $-1 #
attrib_hh_coedge_geombuild-attrib_entity_geombuild-individual_entity_attribute-attrib_HH-attrib $-1 $-1 $-1 $37 F #
coedge $95 $96 $37 $92 $97 forward $24 $-1 #
coedge $98 $37 $96 $99 $100 forward $24 $-1 #
coedge $101 $69 $68 $37 $59 reversed $70 $-1 #
edge $102 $103 -25 $104 25 $58 $105 forward 7 unknown #
attrib_hh_coedge_geombuild-attrib_entity_geombuild-individual_entity_attribute-attrib_HH-attrib $-1 $-1 $-1 $39 F #
coedge $106 $40 $39 $107 $108 forward $17 $-1 #
coedge $109 $110 $111 $39 $63 reversed $88 $-1 #
edge $112 $73 -62.5 $113 62.5 $62 $114 forward 7 unknown #
attrib_hh_coedge_geombuild-attrib_entity_geombuild-individual_entity_attribute-attrib_HH-attrib $-1 $-1 $-1 $40 F #
coedge $115 $54 $116 $40 $66 reversed $35 $-1 #
edge $117 $118 -62.5 $72 62.5 $65 $119 forward 7 unknown #
attrib_hh_coedge_geombuild-attrib_entity_geombuild-individual_entity_attribute-attrib_HH-attrib $-1 $-1 $-1 $41 F #
coedge $120 $58 $41 $116 $121 forward $70 $-1 #
coedge $122 $41 $58 $110 $123 reversed $70 $-1 #
loop $-1 $-1 $68 $87 #
attrib_edge_convexity-kcp-attrib $-1 $124 $-1 $42 1 #
vertex $125 $42 $126 #
vertex $127 $42 $128 #
straight-curve $-1 62.5 0 12.5 0 1 0 I I #
model_id-kcp-attrib $-1 $-1 $-1 $44 1 1017637785 60 1631322114 4 #
face $129 $130 $131 $13 $-1 $132 reversed single #
loop $-1 $-1 $133 $44 #
plane-surface $-1 0 -25 0 0 1 0 0 0 1 forward_v I I I I #
coedge $-1 $134 $135 $136 $137 forward $45 $-1 #
coedge $-1 $138 $47 $139 $140 forward $29 $-1 #
coedge $-1 $47 $138 $141 $142 forward $29 $-1 #
coedge $-1 $143 $144 $47 $83 reversed $145 $-1 #
edge $-1 $146 -25 $147 25 $82 $148 forward 7 unknown #
aggregate_geombuild_attribute-aggregate_geombuild_base_attribute-aggregate_body_attribute-attrib_HH-attrib $-1 $149 $48 $0 #
attrib_hh_face_geombuild-attrib_entity_geombuild-individual_entity_attribute-attrib_HH-attrib $-1 $-1 $50 $34 F #
model_id-kcp-attrib $-1 $150 $-1 $51 1 1017637785 60 1631322113 6 #
face $151 $-1 $70 $7 $-1 $152 reversed single #
loop $-1 $-1 $110 $51 #
plane-surface $-1 0 25 0 0 -1 0 0 0 -1 forward_v I I I I #
coedge $153 $154 $107 $111 $155 forward $52 $-1 #
attrib_hh_coedge_geombuild-attrib_entity_geombuild-individual_entity_attribute-attrib_HH-attrib $-1 $-1 $-1 $54 F #
coedge $156 $116 $54 $56 $97 reversed $35 $-1 #
coedge $157 $107 $154 $54 $94 reversed $52 $-1 #
edge $158 $118 -12.5 $159 12.5 $93 $160 forward 7 unknown #
attrib_hh_coedge_geombuild-attrib_entity_geombuild-individual_entity_attribute-attrib_HH-attrib $-1 $-1 $-1 $56 F #
coedge $161 $57 $56 $154 $162 forward $24 $-1 #
edge $163 $104 -62.5 $159 62.5 $92 $164 forward 7 unknown #
attrib_hh_coedge_geombuild-attrib_entity_geombuild-individual_entity_attribute-attrib_HH-attrib $-1 $-1 $-1 $57 F #
coedge $165 $111 $110 $57 $100 reversed $88 $-1 #
edge $166 $167 -62.5 $103 62.5 $99 $168 forward 7 unknown #
attrib_hh_coedge_geombuild-attrib_entity_geombuild-individual_entity_attribute-attrib_HH-attrib $-1 $-1 $-1 $58 F #
attrib_hh_edge_geombuild-attrib_entity_geombuild-individual_entity_attribute-attrib_HH-attrib $-1 $-1 $-1 $59 F #
vertex $169 $59 $170 #
vertex $171 $121 $172 #
straight-curve $-1 62.5 0 -12.5 0 -1 0 I I #
attrib_hh_coedge_geombuild-attrib_entity_geombuild-individual_entity_attribute-attrib_HH-attrib $-1 $-1 $-1 $61 F #
coedge $173 $90 $93 $61 $108 reversed $52 $-1 #
edge $174 $113 -25 $118 25 $107 $175 forward 7 unknown #
attrib_hh_coedge_geombuild-attrib_entity_geombuild-individual_entity_attribute-attrib_HH-attrib $-1 $-1 $-1 $62 F #
coedge $176 $99 $62 $69 $123 forward $88 $-1 #
coedge $177 $62 $99 $90 $155 reversed $88 $-1 #
attrib_edge_convexity-kcp-attrib $-1 $178 $-1 $63 1 #
vertex $179 $63 $180 #
straight-curve $-1 0 25 12.5 -1 0 0 I I #
attrib_hh_coedge_geombuild-attrib_entity_geombuild-individual_entity_attribute-attrib_HH-attrib $-1 $-1 $-1 $65 F #
coedge $181 $65 $92 $68 $121 reversed $35 $-1 #
attrib_edge_convexity-kcp-attrib $-1 $182 $-1 $66 1 #
vertex $183 $108 $184 #
straight-curve $-1 0 -25 12.5 1 0 0 I I #
attrib_hh_coedge_geombuild-attrib_entity_geombuild-individual_entity_attribute-attrib_HH-attrib $-1 $-1 $-1 $68 F #
edge $185 $72 -12.5 $104 12.5 $68 $186 forward 7 unknown #
attrib_hh_coedge_geombuild-attrib_entity_geombuild-individual_entity_attribute-attrib_HH-attrib $-1 $-1 $-1 $69 F #
edge $187 $73 -12.5 $103 12.5 $69 $188 forward 7 unknown #
convexity-sys-attrib $-1 $189 $71 $42 #
attrib_hh_vertex_geombuild-attrib_entity_geombuild-individual_entity_attribute-attrib_HH-attrib $-1 $-1 $-1 $72 F #
point $-1 62.5 -25 12.5 #
attrib_hh_vertex_geombuild-attrib_entity_geombuild-individual_entity_attribute-attrib_HH-attrib $-1 $-1 $-1 $73 F #
point $-1 62.5 25 12.5 #
model_id-kcp-attrib $-1 $-1 $-1 $76 1 1017637785 60 1631322114 5 #
face $190 $191 $192 $13 $-1 $193 reversed single #
loop $-1 $-1 $194 $76 #
plane-surface $-1 -62.5 0 0 1 0 0 0 0 -1 forward_v I I I I #
coedge $-1 $195 $141 $196 $197 forward $77 $-1 #
coedge $-1 $198 $79 $195 $199 forward $45 $-1 #
coedge $-1 $79 $198 $200 $201 forward $45 $-1 #
coedge $-1 $144 $143 $79 $137 reversed $145 $-1 #
edge $-1 $202 -25 $203 25 $136 $204 forward 7 unknown #
coedge $-1 $81 $80 $205 $206 forward $29 $-1 #
coedge $-1 $207 $208 $80 $140 reversed $192 $-1 #
edge $-1 $147 -62.5 $209 62.5 $139 $210 forward 7 unknown #
coedge $-1 $133 $211 $81 $142 reversed $77 $-1 #
edge $-1 $212 -62.5 $146 62.5 $141 $213 forward 7 unknown #
coedge $-1 $136 $82 $211 $214 forward $145 $-1 #
coedge $-1 $82 $136 $207 $215 reversed $145 $-1 #
loop $-1 $-1 $143 $191 #
vertex $-1 $83 $216 #
vertex $-1 $83 $217 #
straight-curve $-1 62.5 0 12.5 0 1 0 I I #
aggregate_stitch_attribute-aggregate_stitch_base_attribute-aggregate_body_attribute-attrib_HH-attrib $-1 $218 $84 $0 F #
attrib_hh_face_geombuild-attrib_entity_geombuild-individual_entity_attribute-attrib_HH-attrib $-1 $-1 $86 $51 F #
model_id-kcp-attrib $-1 $219 $-1 $87 1 1017637785 60 1631322113 7 #
plane-surface $-1 62.5 0 0 -1 0 0 0 0 1 forward_v I I I I #
attrib_hh_coedge_geombuild-attrib_entity_geombuild-individual_entity_attribute-attrib_HH-attrib $-1 $-1 $-1 $90 F #
coedge $220 $93 $90 $96 $162 reversed $52 $-1 #
edge $221 $113 -12.5 $167 12.5 $111 $222 forward 7 unknown #
attrib_hh_coedge_geombuild-attrib_entity_geombuild-individual_entity_attribute-attrib_HH-attrib $-1 $-1 $-1 $92 F #
attrib_hh_coedge_geombuild-attrib_entity_geombuild-individual_entity_attribute-attrib_HH-attrib $-1 $-1 $-1 $93 F #
attrib_edge_convexity-kcp-attrib $-1 $223 $-1 $94 1 #
vertex $224 $162 $225 #
straight-curve $-1 -62.5 -25 0 0 0 -1 I I #
attrib_hh_coedge_geombuild-attrib_entity_geombuild-individual_entity_attribute-attrib_HH-attrib $-1 $-1 $-1 $96 F #
edge $226 $159 -25 $167 25 $154 $227 forward 7 unknown #
attrib_edge_convexity-kcp-attrib $-1 $228 $-1 $97 1 #
straight-curve $-1 0 -25 -12.5 -1 0 0 I I #
attrib_hh_coedge_geombuild-attrib_entity_geombuild-individual_entity_attribute-attrib_HH-attrib $-1 $-1 $-1 $99 F #
attrib_hh_edge_geombuild-attrib_entity_geombuild-individual_entity_attribute-attrib_HH-attrib $-1 $-1 $-1 $100 F #
vertex $229 $100 $230 #
straight-curve $-1 0 25 -12.5 1 0 0 I I #
attrib_hh_vertex_geombuild-attrib_entity_geombuild-individual_entity_attribute-attrib_HH-attrib $-1 $-1 $-1 $103 F #
point $-1 62.5 25 -12.5 #
attrib_hh_vertex_geombuild-attrib_entity_geombuild-individual_entity_attribute-attrib_HH-attrib $-1 $-1 $-1 $104 F #
point $-1 62.5 -25 -12.5 #
attrib_hh_coedge_geombuild-attrib_entity_geombuild-individual_entity_attribute-attrib_HH-attrib $-1 $-1 $-1 $107 F #
attrib_edge_convexity-kcp-attrib $-1 $231 $-1 $108 1 #
straight-curve $-1 -62.5 0 12.5 0 -1 0 I I #
attrib_hh_coedge_geombuild-attrib_entity_geombuild-individual_entity_attribute-attrib_HH-attrib $-1 $-1 $-1 $110 F #
attrib_hh_coedge_geombuild-attrib_entity_geombuild-individual_entity_attribute-attrib_HH-attrib $-1 $-1 $-1 $111 F #
convexity-sys-attrib $-1 $232 $112 $63 #
attrib_hh_vertex_geombuild-attrib_entity_geombuild-individual_entity_attribute-attrib_HH-attrib $-1 $-1 $-1 $113 F #
point $-1 -62.5 25 12.5 #
attrib_hh_coedge_geombuild-attrib_entity_geombuild-individual_entity_attribute-attrib_HH-attrib $-1 $-1 $-1 $116 F #
convexity-sys-attrib $-1 $233 $117 $66 #
attrib_hh_vertex_geombuild-attrib_entity_geombuild-individual_entity_attribute-attrib_HH-attrib $-1 $-1 $-1 $118 F #
point $-1 -62.5 -25 12.5 #
attrib_edge_convexity-kcp-attrib $-1 $234 $-1 $121 1 #
straight-curve $-1 62.5 -25 0 0 0 -1 I I #
attrib_hh_edge_geombuild-attrib_entity_geombuild-individual_entity_attribute-attrib_HH-attrib $-1 $-1 $-1 $123 F #
straight-curve $-1 62.5 25 0 0 0 -1 I I #
attrib_hh_edge_geombuild-attrib_entity_geombuild-individual_entity_attribute-attrib_HH-attrib $-1 $-1 $124 $42 F #
model_id-kcp-attrib $-1 $-1 $-1 $130 1 1017637785 60 1631322114 6 #
face $235 $-1 $145 $13 $-1 $236 reversed single #
loop $-1 $-1 $207 $130 #
plane-surface $-1 0 25 0 0 -1 0 0 0 -1 forward_v I I I I #
coedge $-1 $237 $205 $208 $238 forward $131 $-1 #
coedge $-1 $211 $133 $134 $199 reversed $77 $-1 #
coedge $-1 $205 $237 $133 $197 reversed $131 $-1 #
edge $-1 $212 -12.5 $239 12.5 $196 $240 forward 7 unknown #
coedge $-1 $135 $134 $237 $241 forward $45 $-1 #
edge $-1 $203 -62.5 $239 62.5 $195 $242 forward 7 unknown #
coedge $-1 $208 $207 $135 $201 reversed $192 $-1 #
edge $-1 $243 -62.5 $202 62.5 $200 $244 forward 7 unknown #
vertex $-1 $137 $245 #
vertex $-1 $214 $246 #
straight-curve $-1 62.5 0 -12.5 0 -1 0 I I #
coedge $-1 $194 $196 $138 $206 reversed $131 $-1 #
edge $-1 $209 -25 $212 25 $205 $247 forward 7 unknown #
coedge $-1 $200 $139 $144 $215 forward $192 $-1 #
coedge $-1 $139 $200 $194 $238 reversed $192 $-1 #
vertex $-1 $140 $248 #
straight-curve $-1 0 25 12.5 -1 0 0 I I #
coedge $-1 $141 $195 $143 $214 reversed $77 $-1 #
vertex $-1 $206 $249 #
straight-curve $-1 0 -25 12.5 1 0 0 I I #
edge $-1 $146 -12.5 $203 12.5 $143 $250 forward 7 unknown #
edge $-1 $147 -12.5 $202 12.5 $144 $251 forward 7 unknown #
point $-1 62.5 -25 12.5 #
point $-1 62.5 25 12.5 #
aggregate_simgeom_attribute-aggregate_simgeom_base_attribute-aggregate_body_attribute-attrib_HH-attrib $-1 $-1 $149 $0 F #
attrib_hh_face_geombuild-attrib_entity_geombuild-individual_entity_attribute-attrib_HH-attrib $-1 $-1 $151 $87 F #
attrib_hh_coedge_geombuild-attrib_entity_geombuild-individual_entity_attribute-attrib_HH-attrib $-1 $-1 $-1 $154 F #
attrib_edge_convexity-kcp-attrib $-1 $252 $-1 $155 1 #
straight-curve $-1 -62.5 25 0 0 0 -1 I I #
convexity-sys-attrib $-1 $253 $158 $94 #
attrib_hh_vertex_geombuild-attrib_entity_geombuild-individual_entity_attribute-attrib_HH-attrib $-1 $-1 $-1 $159 F #
point $-1 -62.5 -25 -12.5 #
attrib_edge_convexity-kcp-attrib $-1 $254 $-1 $162 1 #
straight-curve $-1 -62.5 0 -12.5 0 1 0 I I #
convexity-sys-attrib $-1 $255 $163 $97 #
attrib_hh_vertex_geombuild-attrib_entity_geombuild-individual_entity_attribute-attrib_HH-attrib $-1 $-1 $-1 $167 F #
point $-1 -62.5 25 -12.5 #
convexity-sys-attrib $-1 $256 $174 $108 #
attrib_hh_edge_geombuild-attrib_entity_geombuild-individual_entity_attribute-attrib_HH-attrib $-1 $-1 $178 $63 F #
attrib_hh_edge_geombuild-attrib_entity_geombuild-individual_entity_attribute-attrib_HH-attrib $-1 $-1 $182 $66 F #
convexity-sys-attrib $-1 $257 $185 $121 #
model_id-kcp-attrib $-1 $-1 $-1 $191 1 1017637785 60 1631322114 7 #
plane-surface $-1 62.5 0 0 -1 0 0 0 0 1 forward_v I I I I #
coedge $-1 $196 $194 $198 $241 reversed $131 $-1 #
edge $-1 $209 -12.5 $243 12.5 $208 $258 forward 7 unknown #
vertex $-1 $241 $259 #
straight-curve $-1 -62.5 -25 0 0 0 -1 I I #
edge $-1 $239 -25 $243 25 $237 $260 forward 7 unknown #
straight-curve $-1 0 -25 -12.5 -1 0 0 I I #
vertex $-1 $201 $261 #
straight-curve $-1 0 25 -12.5 1 0 0 I I #
point $-1 62.5 25 -12.5 #
point $-1 62.5 -25 -12.5 #
straight-curve $-1 -62.5 0 12.5 0 -1 0 I I #
point $-1 -62.5 25 12.5 #
point $-1 -62.5 -25 12.5 #
straight-curve $-1 62.5 -25 0 0 0 -1 I I #
straight-curve $-1 62.5 25 0 0 0 -1 I I #
convexity-sys-attrib $-1 $262 $221 $155 #
attrib_hh_edge_geombuild-attrib_entity_geombuild-individual_entity_attribute-attrib_HH-attrib $-1 $-1 $223 $94 F #
convexity-sys-attrib $-1 $263 $226 $162 #
attrib_hh_edge_geombuild-attrib_entity_geombuild-individual_entity_attribute-attrib_HH-attrib $-1 $-1 $228 $97 F #
attrib_hh_edge_geombuild-attrib_entity_geombuild-individual_entity_attribute-attrib_HH-attrib $-1 $-1 $231 $108 F #
attrib_hh_edge_geombuild-attrib_entity_geombuild-individual_entity_attribute-attrib_HH-attrib $-1 $-1 $234 $121 F #
straight-curve $-1 -62.5 25 0 0 0 -1 I I #
point $-1 -62.5 -25 -12.5 #
straight-curve $-1 -62.5 0 -12.5 0 1 0 I I #
point $-1 -62.5 25 -12.5 #
attrib_hh_edge_geombuild-attrib_entity_geombuild-individual_entity_attribute-attrib_HH-attrib $-1 $-1 $252 $155 F #
attrib_hh_edge_geombuild-attrib_entity_geombuild-individual_entity_attribute-attrib_HH-attrib $-1 $-1 $254 $162 F #
End-of-ACIS-data 