600 0 2 0           
24 FBMach with ACIS - 6.0.3 13 ACIS 6.0.3 NT 24 Sun Mar 31 23:25:29 2002 
1 9.9999999999999995e-007 1e-010 
body $2 $3 $-1 $4 #
bdycol-kcp $-1 1 4 $5 $6 $7 $8 #
model_id-kcp-attrib $-1 $9 $-1 $0 1 1017635129 80 424673281 1 #
lump $-1 $-1 $10 $0 #
transform $-1 1 0 0 0 1 0 0 0 1 0 0 0 1 rotate no_reflect no_shear #
body $11 $12 $-1 $13 #
body $14 $15 $-1 $16 #
body $17 $18 $-1 $19 #
body $20 $21 $-1 $22 #
aggregate_advspl_attribute-aggregate_geombuild_base_attribute-aggregate_body_attribute-attrib_HH-attrib $-1 $23 $2 $0 F #
shell $-1 $-1 $-1 $24 $-1 $3 #
model_id-kcp-attrib $-1 $-1 $-1 $5 1 1017635129 80 424673282 1 #
lump $-1 $-1 $25 $5 #
transform $-1 1 0 0 0 1 0 0 0 1 0 -12.5 0 1 no_rotate no_reflect no_shear #
rgb_color-st-attrib $-1 $26 $-1 $6 0.5 1 1 #
lump $-1 $27 $28 $6 #
transform $-1 1 0 0 0 1 0 0 0 1 0 -12.5 0 1 no_rotate no_reflect no_shear #
rgb_color-st-attrib $-1 $29 $-1 $7 0.5 0.5 1 #
lump $-1 $-1 $30 $7 #
transform $-1 1 0 0 0 1 0 0 0 1 0 -12.5 0 1 no_rotate no_reflect no_shear #
rgb_color-st-attrib $-1 $31 $-1 $8 0.5 0.5 1 #
lump $-1 $-1 $32 $8 #
transform $-1 1 0 0 0 1 0 0 0 1 0 -12.5 0 1 no_rotate no_reflect no_shear #
aggregate_secndry_attribute-aggregate_geombuild_base_attribute-aggregate_body_attribute-attrib_HH-attrib $-1 $33 $9 $0 F #
face $34 $35 $36 $10 $-1 $37 reversed single #
shell $-1 $-1 $-1 $38 $-1 $12 #
model_id-kcp-attrib $-1 $-1 $14 $6 1 1017635129 220 433848323 1 #
lump $-1 $-1 $39 $6 #
shell $-1 $-1 $-1 $40 $-1 $15 #
model_id-kcp-attrib $-1 $-1 $17 $7 1 1017635129 270 420347908 1 #
shell $-1 $-1 $-1 $41 $-1 $18 #
model_id-kcp-attrib $-1 $-1 $20 $8 1 1017635129 290 421658629 1 #
shell $-1 $-1 $-1 $42 $-1 $21 #
aggregate_sharped_attribute-aggregate_geombuild_base_attribute-aggregate_body_attribute-attrib_HH-attrib $-1 $43 $23 $0 F #
model_id-kcp-attrib $-1 $44 $-1 $24 1 1017635129 80 424673281 13 #
face $45 $46 $47 $10 $-1 $48 reversed single #
loop $-1 $-1 $49 $24 #
plane-surface $-1 0 50 0 0 -1 0 0.70710678118654902 0 -0.70710678118654602 forward_v I I I I #
face $-1 $50 $51 $25 $-1 $52 forward single #
shell $-1 $-1 $-1 $53 $-1 $27 #
face $-1 $54 $55 $28 $-1 $56 reversed single #
face $-1 $57 $58 $30 $-1 $59 reversed single #
face $-1 $60 $61 $32 $-1 $62 reversed single #
aggregate_reblend_attribute-aggregate_geombuild_base_attribute-aggregate_body_attribute-attrib_HH-attrib $-1 $63 $33 $0 F #
model_id-kcp-attrib $-1 $64 $34 $24 1 1017635129 80 424673281 2 #
model_id-kcp-attrib $-1 $65 $-1 $35 1 1017635129 80 424673281 3 #
face $66 $67 $68 $10 $-1 $69 forward single #
loop $-1 $-1 $70 $35 #
plane-surface $-1 21.213203435596469 -25 -21.21320343559638 -0.70710678118654902 0 0.70710678118654602 0.70710678118654602 0 0.70710678118654902 forward_v I I I I #
coedge $71 $72 $73 $74 $75 reversed $36 $-1 #
face $-1 $76 $77 $25 $-1 $78 reversed single #
loop $-1 $-1 $79 $38 #
plane-surface $-1 0 0 40.355339059327378 0 0 1 1 0 0 forward_v I I I I #
face $-1 $80 $81 $39 $-1 $82 reversed single #
face $-1 $83 $84 $28 $-1 $85 forward single #
loop $-1 $-1 $86 $40 #
plane-surface $-1 -9.2370555648813024e-014 -62.5 42.426406871192853 -0.70710678118654902 0 0.70710678118654602 -0.70710678118654602 0 -0.70710678118654902 forward_v I I I I #
face $-1 $87 $88 $30 $-1 $89 reversed single #
loop $-1 $-1 $90 $41 #
plane-surface $-1 21.213203435596398 0 21.213203435596483 0.70710678118654602 0 0.70710678118654902 0 1 0 forward_v I I I I #
face $-1 $91 $92 $32 $-1 $93 reversed single #
loop $-1 $-1 $94 $42 #
plane-surface $-1 -21.213203435596398 0 -21.213203435596483 -0.70710678118654602 0 -0.70710678118654902 0 -1 0 forward_v I I I I #
aggregate_isospline_attribute-aggregate_geombuild_base_attribute-aggregate_body_attribute-attrib_HH-attrib $-1 $95 $43 $0 F #
attrib_hh_face_geombuild-attrib_entity_geombuild-individual_entity_attribute-attrib_HH-attrib $-1 $-1 $44 $24 F #
attrib_hh_face_geombuild-attrib_entity_geombuild-individual_entity_attribute-attrib_HH-attrib $-1 $-1 $45 $35 F #
model_id-kcp-attrib $-1 $96 $-1 $46 1 1017635129 80 424673281 4 #
face $97 $98 $99 $10 $-1 $100 reversed single #
loop $-1 $-1 $101 $46 #
cone-surface $-1 35.355339059327378 -25 7.460698725481052e-014 0 -1 0 5.0000000000000036 0 1.0658141036401503e-014 1 I I 0 1 5.0000000000000036 forward I I I I #
coedge $102 $103 $104 $105 $106 reversed $47 $-1 #
attrib_hh_coedge_geombuild-attrib_entity_geombuild-individual_entity_attribute-attrib_HH-attrib $-1 $-1 $-1 $49 F #
coedge $107 $108 $49 $109 $110 forward $36 $-1 #
coedge $111 $49 $112 $113 $114 reversed $36 $-1 #
coedge $115 $116 $117 $49 $75 forward $118 $-1 #
edge $119 $120 -0.7853981633974495 $121 0.78539816339744906 $49 $122 forward 7 unknown #
face $123 $124 $125 $25 $-1 $126 reversed single #
loop $-1 $-1 $127 $50 #
plane-surface $-1 0 0 -40.355339059327378 0 0 1 1 0 0 forward_v I I I I #
coedge $-1 $128 $129 $130 $131 forward $51 $-1 #
face $-1 $132 $133 $39 $-1 $134 reversed single #
loop $-1 $-1 $135 $53 #
plane-surface $-1 40.355339059327378 0 0 -1 0 0 0 0 1 forward_v I I I I #
face $-1 $136 $137 $28 $-1 $138 reversed single #
loop $-1 $-1 $139 $54 #
plane-surface $-1 0 0 40.355339059327378 0 0 1 1 0 0 forward_v I I I I #
coedge $-1 $140 $141 $139 $142 reversed $55 $-1 #
face $-1 $143 $144 $30 $-1 $145 reversed single #
loop $-1 $-1 $146 $57 #
plane-surface $-1 40.355339059327378 0 0 -1 0 0 0 0 1 forward_v I I I I #
coedge $-1 $147 $148 $149 $150 forward $58 $-1 #
face $-1 $151 $152 $32 $-1 $153 reversed single #
loop $-1 $-1 $154 $60 #
plane-surface $-1 0 -62.5 0 0 1 0 0 0 1 forward_v I I I I #
coedge $-1 $155 $156 $157 $158 forward $61 $-1 #
aggregate_analytic_solver_attribute-aggregate_geombuild_base_attribute-aggregate_body_attribute-attrib_HH-attrib $-1 $159 $63 $0 F #
attrib_hh_face_geombuild-attrib_entity_geombuild-individual_entity_attribute-attrib_HH-attrib $-1 $-1 $66 $46 F #
model_id-kcp-attrib $-1 $160 $-1 $67 1 1017635129 80 424673281 5 #
face $161 $162 $118 $10 $-1 $163 forward single #
loop $-1 $-1 $164 $67 #
plane-surface $-1 21.21320343559638 -25 21.213203435596469 -0.70710678118654602 0 -0.70710678118654902 -0.70710678118654902 0 0.70710678118654602 forward_v I I I I #
coedge $165 $166 $167 $168 $169 forward $68 $-1 #
attrib_hh_coedge_geombuild-attrib_entity_geombuild-individual_entity_attribute-attrib_HH-attrib $-1 $-1 $-1 $70 F #
coedge $170 $171 $70 $172 $173 forward $47 $-1 #
coedge $174 $70 $171 $175 $176 forward $47 $-1 #
coedge $177 $167 $166 $70 $106 forward $68 $-1 #
edge $178 $179 -50 $180 75 $70 $181 forward 7 unknown #
attrib_hh_coedge_geombuild-attrib_entity_geombuild-individual_entity_attribute-attrib_HH-attrib $-1 $-1 $-1 $72 F #
coedge $182 $175 $72 $167 $183 reversed $36 $-1 #
coedge $184 $164 $168 $72 $110 reversed $99 $-1 #
edge $185 $120 -24.999999999999993 $186 24.999999999999996 $109 $187 forward 7 unknown #
attrib_hh_coedge_geombuild-attrib_entity_geombuild-individual_entity_attribute-attrib_HH-attrib $-1 $-1 $-1 $73 F #
coedge $188 $73 $189 $190 $191 reversed $36 $-1 #
coedge $192 $193 $194 $73 $114 forward $195 $-1 #
edge $196 $121 -24.999999999999996 $197 24.999999999999993 $73 $198 forward 7 unknown #
attrib_hh_coedge_geombuild-attrib_entity_geombuild-individual_entity_attribute-attrib_HH-attrib $-1 $-1 $-1 $74 F #
coedge $199 $200 $74 $194 $201 reversed $118 $-1 #
coedge $202 $74 $200 $164 $203 forward $118 $-1 #
loop $-1 $-1 $116 $98 #
attrib_edge_convexity-kcp-attrib $-1 $204 $-1 $75 1 #
vertex $205 $75 $206 #
vertex $207 $75 $208 #
ellipse-curve $-1 -7.460698725481052e-014 50 35.355339059327378 0 -1 0 -1.0658141036401503e-014 0 5.0000000000000036 1 I I #
model_id-kcp-attrib $-1 $-1 $-1 $76 1 1017635129 80 424673282 3 #
face $-1 $209 $210 $25 $-1 $211 reversed single #
loop $-1 $-1 $212 $76 #
plane-surface $-1 0 -62.5 0 0 1 0 0 0 1 forward_v I I I I #
coedge $-1 $213 $214 $215 $216 forward $77 $-1 #
coedge $-1 $217 $79 $218 $219 forward $51 $-1 #
coedge $-1 $79 $217 $220 $221 forward $51 $-1 #
coedge $-1 $222 $223 $79 $131 reversed $224 $-1 #
edge $-1 $225 -62.5 $226 62.5 $130 $227 forward 7 unknown #
face $-1 $228 $229 $39 $-1 $138 reversed single #
loop $-1 $-1 $230 $80 #
plane-surface $-1 0 0 -40.355339059327378 0 0 1 1 0 0 forward_v I I I I #
coedge $-1 $231 $232 $233 $234 forward $81 $-1 #
face $-1 $235 $236 $28 $-1 $237 reversed single #
loop $-1 $-1 $238 $83 #
plane-surface $-1 0 62.5 0 0 -1 0 0 0 -1 forward_v I I I I #
coedge $-1 $239 $240 $86 $142 forward $84 $-1 #
coedge $-1 $241 $86 $242 $243 reversed $55 $-1 #
coedge $-1 $86 $241 $238 $244 reversed $55 $-1 #
edge $-1 $245 -31.25 $246 93.75 $139 $247 forward 7 unknown #
face $-1 $248 $249 $30 $-1 $250 forward single #
loop $-1 $-1 $149 $87 #
plane-surface $-1 0 62.5 0 0 -1 0 0 0 -1 forward_v I I I I #
coedge $-1 $251 $252 $147 $253 reversed $88 $-1 #
coedge $-1 $254 $90 $146 $253 forward $58 $-1 #
coedge $-1 $90 $254 $255 $256 forward $58 $-1 #
coedge $-1 $257 $258 $90 $150 reversed $144 $-1 #
edge $259 $260 -27.071067811865454 $261 27.071067811865461 $149 $262 forward 7 unknown #
face $-1 $263 $264 $32 $-1 $265 reversed single #
loop $-1 $-1 $157 $91 #
plane-surface $-1 -40.355339059327378 0 0 1 0 0 0 0 -1 forward_v I I I I #
coedge $-1 $266 $267 $155 $268 reversed $92 $-1 #
coedge $-1 $269 $94 $154 $268 forward $61 $-1 #
coedge $-1 $94 $269 $270 $271 forward $61 $-1 #
coedge $-1 $272 $273 $94 $158 reversed $152 $-1 #
edge $274 $275 -62.5 $276 62.5 $157 $277 forward 7 unknown #
aggregate_geombuild_attribute-aggregate_geombuild_base_attribute-aggregate_body_attribute-attrib_HH-attrib $-1 $278 $95 $0 #
attrib_hh_face_geombuild-attrib_entity_geombuild-individual_entity_attribute-attrib_HH-attrib $-1 $-1 $97 $67 F #
model_id-kcp-attrib $-1 $279 $-1 $98 1 1017635129 80 424673281 6 #
face $280 $281 $195 $10 $-1 $282 forward single #
cone-surface $-1 -7.460698725481052e-014 -25 35.355339059327378 0 1 0 -1.0658141036401503e-014 0 5.0000000000000036 1 I I 0 1 5.0000000000000036 forward I I I I #
coedge $283 $284 $109 $117 $203 reversed $99 $-1 #
attrib_hh_coedge_geombuild-attrib_entity_geombuild-individual_entity_attribute-attrib_HH-attrib $-1 $-1 $-1 $101 F #
coedge $285 $105 $101 $286 $287 forward $68 $-1 #
coedge $288 $101 $105 $108 $183 forward $68 $-1 #
coedge $289 $109 $284 $101 $169 reversed $99 $-1 #
edge $290 $186 -50 $291 75 $168 $292 forward 7 unknown #
attrib_hh_coedge_geombuild-attrib_entity_geombuild-individual_entity_attribute-attrib_HH-attrib $-1 $-1 $-1 $103 F #
coedge $293 $104 $103 $294 $295 forward $47 $-1 #
coedge $296 $286 $297 $103 $173 reversed $298 $-1 #
edge $299 $179 -24.999999999999993 $300 24.999999999999996 $172 $301 forward 7 unknown #
attrib_hh_coedge_geombuild-attrib_entity_geombuild-individual_entity_attribute-attrib_HH-attrib $-1 $-1 $-1 $104 F #
coedge $302 $303 $108 $104 $176 reversed $36 $-1 #
edge $304 $305 -24.999999999999996 $180 24.999999999999993 $175 $306 forward 7 unknown #
attrib_hh_coedge_geombuild-attrib_entity_geombuild-individual_entity_attribute-attrib_HH-attrib $-1 $-1 $-1 $105 F #
attrib_edge_convexity-kcp-attrib $-1 $307 $-1 $106 3 #
vertex $308 $106 $309 #
vertex $310 $176 $311 #
straight-curve $-1 38.890872965260115 -25 -3.535533905932656 0 1 0 I I #
attrib_hh_coedge_geombuild-attrib_entity_geombuild-individual_entity_attribute-attrib_HH-attrib $-1 $-1 $-1 $108 F #
edge $312 $180 -0.7853981633974495 $186 0.78539816339744906 $108 $313 forward 7 unknown #
attrib_hh_coedge_geombuild-attrib_entity_geombuild-individual_entity_attribute-attrib_HH-attrib $-1 $-1 $-1 $109 F #
attrib_edge_convexity-kcp-attrib $-1 $314 $-1 $110 1 #
vertex $315 $110 $316 #
straight-curve $-1 21.21320343559638 50 21.213203435596469 0.70710678118654902 0 -0.70710678118654602 I I #
attrib_hh_coedge_geombuild-attrib_entity_geombuild-individual_entity_attribute-attrib_HH-attrib $-1 $-1 $-1 $112 F #
coedge $317 $112 $303 $318 $319 reversed $36 $-1 #
coedge $320 $321 $322 $112 $191 forward $323 $-1 #
edge $324 $197 -0.7853981633974495 $325 0.78539816339744906 $112 $326 forward 7 unknown #
attrib_hh_coedge_geombuild-attrib_entity_geombuild-individual_entity_attribute-attrib_HH-attrib $-1 $-1 $-1 $113 F #
coedge $327 $328 $113 $322 $329 reversed $195 $-1 #
coedge $330 $113 $328 $116 $201 forward $195 $-1 #
loop $-1 $-1 $193 $162 #
attrib_edge_convexity-kcp-attrib $-1 $331 $-1 $114 1 #
vertex $332 $114 $333 #
straight-curve $-1 -21.213203435596469 50 21.21320343559638 -0.70710678118654602 0 -0.70710678118654902 I I #
attrib_hh_coedge_geombuild-attrib_entity_geombuild-individual_entity_attribute-attrib_HH-attrib $-1 $-1 $-1 $116 F #
coedge $334 $117 $116 $335 $336 forward $118 $-1 #
edge $337 $338 -50 $121 75 $194 $339 reversed 7 unknown #
attrib_hh_coedge_geombuild-attrib_entity_geombuild-individual_entity_attribute-attrib_HH-attrib $-1 $-1 $-1 $117 F #
edge $340 $341 -75 $120 50 $164 $342 forward 7 unknown #
convexity-sys-attrib $-1 $343 $119 $75 #
attrib_hh_vertex_geombuild-attrib_entity_geombuild-individual_entity_attribute-attrib_HH-attrib $-1 $-1 $-1 $120 F #
point $-1 3.535533905932656 50 38.890872965260115 #
attrib_hh_vertex_geombuild-attrib_entity_geombuild-individual_entity_attribute-attrib_HH-attrib $-1 $-1 $-1 $121 F #
point $-1 -3.5355339059328195 50 38.890872965260101 #
face $344 $345 $346 $25 $-1 $347 reversed single #
loop $-1 $-1 $348 $124 #
plane-surface $-1 -40.355339059327378 0 0 1 0 0 0 0 -1 forward_v I I I I #
coedge $-1 $349 $220 $350 $351 forward $125 $-1 #
coedge $-1 $352 $127 $349 $353 forward $77 $-1 #
coedge $-1 $127 $352 $354 $355 forward $77 $-1 #
coedge $-1 $223 $222 $127 $216 reversed $224 $-1 #
edge $-1 $356 -62.5 $357 62.5 $215 $358 forward 7 unknown #
coedge $-1 $129 $128 $359 $360 forward $51 $-1 #
coedge $-1 $361 $362 $128 $219 reversed $346 $-1 #
edge $-1 $226 -40.355339059327378 $363 40.355339059327378 $218 $364 forward 7 unknown #
coedge $-1 $212 $365 $129 $221 reversed $125 $-1 #
edge $-1 $366 -40.355339059327378 $225 40.355339059327378 $220 $367 forward 7 unknown #
coedge $-1 $215 $130 $365 $368 forward $224 $-1 #
coedge $-1 $130 $215 $361 $369 reversed $224 $-1 #
loop $-1 $-1 $222 $345 #
vertex $-1 $131 $370 #
vertex $-1 $131 $371 #
straight-curve $-1 40.355339059327378 0 40.355339059327378 0 1 0 I I #
face $-1 $372 $373 $39 $-1 $237 reversed single #
loop $-1 $-1 $374 $132 #
coedge $-1 $375 $376 $377 $378 forward $133 $-1 #
coedge $-1 $379 $135 $380 $381 forward $81 $-1 #
coedge $-1 $135 $379 $382 $383 reversed $81 $-1 #
coedge $-1 $384 $385 $135 $234 reversed $386 $-1 #
edge $-1 $387 -31.25 $388 93.75 $135 $389 forward 7 unknown #
face $-1 $-1 $390 $28 $-1 $391 reversed single #
loop $-1 $-1 $242 $136 #
plane-surface $-1 0 -62.5 0 0 1 0 0 0 1 forward_v I I I I #
coedge $-1 $392 $393 $141 $244 forward $137 $-1 #
coedge $-1 $394 $139 $393 $395 forward $84 $-1 #
coedge $-1 $139 $394 $396 $397 forward $84 $-1 #
coedge $-1 $141 $140 $398 $399 reversed $55 $-1 #
coedge $-1 $396 $400 $140 $243 forward $236 $-1 #
edge $-1 $401 -42.071067811865468 $245 12.071067811865479 $242 $402 forward 7 unknown #
edge $-1 $246 -12.071067811865486 $403 42.071067811865476 $238 $404 forward 7 unknown #
vertex $-1 $142 $405 #
vertex $-1 $395 $406 #
straight-curve $-1 -2.071067811865559 -31.25 40.355339059327378 0 1 0 I I #
face $-1 $-1 $407 $30 $-1 $408 reversed single #
loop $-1 $-1 $255 $143 #
plane-surface $-1 0 0 40.355339059327378 0 0 1 1 0 0 forward_v I I I I #
coedge $-1 $409 $146 $258 $410 reversed $88 $-1 #
coedge $-1 $146 $409 $411 $412 forward $88 $-1 #
edge $413 $261 -62.5 $414 62.5 $146 $415 forward 7 unknown #
coedge $-1 $148 $147 $416 $417 forward $58 $-1 #
coedge $-1 $418 $419 $148 $256 reversed $249 $-1 #
edge $420 $421 -62.5 $260 62.5 $255 $422 forward 7 unknown #
coedge $-1 $258 $149 $419 $423 reversed $144 $-1 #
coedge $-1 $149 $257 $251 $410 forward $144 $-1 #
convexity-sys-attrib $-1 $-1 $-1 $150 #
vertex $-1 $150 $424 #
vertex $-1 $150 $425 #
straight-curve $-1 21.213203435596398 62.5 21.213203435596483 0.70710678118654902 0 -0.70710678118654602 I I #
face $-1 $-1 $426 $32 $-1 $427 reversed single #
loop $-1 $-1 $270 $151 #
plane-surface $-1 0 62.5 0 0 -1 0 0 0 -1 forward_v I I I I #
coedge $-1 $267 $154 $273 $428 forward $92 $-1 #
coedge $-1 $154 $266 $429 $430 reversed $92 $-1 #
edge $431 $276 -27.071067811865461 $432 27.071067811865454 $154 $433 forward 7 unknown #
coedge $-1 $156 $155 $434 $435 forward $61 $-1 #
coedge $-1 $436 $437 $156 $271 reversed $264 $-1 #
edge $438 $439 -27.071067811865454 $275 27.071067811865461 $270 $440 forward 7 unknown #
coedge $-1 $441 $157 $437 $442 forward $152 $-1 #
coedge $-1 $157 $441 $266 $428 reversed $152 $-1 #
convexity-sys-attrib $-1 $-1 $-1 $158 #
vertex $-1 $442 $443 #
vertex $-1 $428 $444 #
straight-curve $-1 -40.355339059327378 0 -2.0710678118655874 0 -1 0 I I #
aggregate_stitch_attribute-aggregate_stitch_base_attribute-aggregate_body_attribute-attrib_HH-attrib $-1 $445 $159 $0 F #
attrib_hh_face_geombuild-attrib_entity_geombuild-individual_entity_attribute-attrib_HH-attrib $-1 $-1 $161 $98 F #
model_id-kcp-attrib $-1 $446 $-1 $162 1 1017635129 80 424673281 7 #
face $447 $448 $323 $10 $-1 $449 forward single #
plane-surface $-1 -21.213203435596469 -25 21.21320343559638 -0.70710678118654902 0 0.70710678118654602 0.70710678118654602 0 0.70710678118654902 forward_v I I I I #
attrib_hh_coedge_geombuild-attrib_entity_geombuild-individual_entity_attribute-attrib_HH-attrib $-1 $-1 $-1 $164 F #
coedge $450 $168 $164 $451 $452 forward $99 $-1 #
attrib_hh_coedge_geombuild-attrib_entity_geombuild-individual_entity_attribute-attrib_HH-attrib $-1 $-1 $-1 $166 F #
coedge $453 $451 $172 $166 $287 reversed $298 $-1 #
edge $454 $291 -0.78539816339744906 $179 0.7853981633974495 $286 $455 forward 7 unknown #
attrib_hh_coedge_geombuild-attrib_entity_geombuild-individual_entity_attribute-attrib_HH-attrib $-1 $-1 $-1 $167 F #
attrib_hh_coedge_geombuild-attrib_entity_geombuild-individual_entity_attribute-attrib_HH-attrib $-1 $-1 $-1 $168 F #
attrib_edge_convexity-kcp-attrib $-1 $456 $-1 $169 3 #
vertex $457 $452 $458 #
straight-curve $-1 38.890872965260101 0 3.5355339059328195 0 -1 0 I I #
attrib_hh_coedge_geombuild-attrib_entity_geombuild-individual_entity_attribute-attrib_HH-attrib $-1 $-1 $-1 $171 F #
coedge $459 $460 $461 $171 $295 reversed $462 $-1 #
edge $463 $300 -50 $305 75 $171 $464 reversed 7 unknown #
attrib_hh_coedge_geombuild-attrib_entity_geombuild-individual_entity_attribute-attrib_HH-attrib $-1 $-1 $-1 $172 F #
coedge $465 $172 $466 $460 $467 reversed $298 $-1 #
loop $-1 $-1 $335 $468 #
attrib_edge_convexity-kcp-attrib $-1 $469 $-1 $173 1 #
vertex $470 $173 $471 #
straight-curve $-1 21.213203435596469 -75 -21.21320343559638 -0.70710678118654602 0 -0.70710678118654902 I I #
attrib_hh_coedge_geombuild-attrib_entity_geombuild-individual_entity_attribute-attrib_HH-attrib $-1 $-1 $-1 $175 F #
coedge $472 $189 $175 $461 $473 reversed $36 $-1 #
attrib_edge_convexity-kcp-attrib $-1 $474 $-1 $176 1 #
vertex $475 $473 $476 #
straight-curve $-1 21.213203435596469 50 -21.21320343559638 0.70710678118654602 0 0.70710678118654902 I I #
convexity-sys-attrib $-1 $477 $178 $106 #
attrib_hh_vertex_geombuild-attrib_entity_geombuild-individual_entity_attribute-attrib_HH-attrib $-1 $-1 $-1 $179 F #
point $-1 38.890872965260115 -75 -3.535533905932656 #
attrib_hh_vertex_geombuild-attrib_entity_geombuild-individual_entity_attribute-attrib_HH-attrib $-1 $-1 $-1 $180 F #
point $-1 38.890872965260115 50 -3.535533905932656 #
attrib_edge_convexity-kcp-attrib $-1 $478 $-1 $183 1 #
ellipse-curve $-1 35.355339059327378 50 7.460698725481052e-014 0 -1 0 5.0000000000000036 0 1.0658141036401503e-014 1 I I #
convexity-sys-attrib $-1 $479 $185 $110 #
attrib_hh_vertex_geombuild-attrib_entity_geombuild-individual_entity_attribute-attrib_HH-attrib $-1 $-1 $-1 $186 F #
point $-1 38.890872965260101 50 3.5355339059328195 #
attrib_hh_coedge_geombuild-attrib_entity_geombuild-individual_entity_attribute-attrib_HH-attrib $-1 $-1 $-1 $189 F #
coedge $480 $481 $482 $189 $319 forward $483 $-1 #
edge $484 $325 -24.999999999999996 $485 24.999999999999993 $189 $486 forward 7 unknown #
attrib_hh_coedge_geombuild-attrib_entity_geombuild-individual_entity_attribute-attrib_HH-attrib $-1 $-1 $-1 $190 F #
coedge $487 $488 $190 $482 $489 forward $323 $-1 #
coedge $490 $190 $488 $193 $329 forward $323 $-1 #
loop $-1 $-1 $321 $281 #
model_id-kcp-attrib $-1 $491 $-1 $191 1 1017635129 80 424673281 14 #
vertex $492 $191 $493 #
ellipse-curve $-1 -35.355339059327378 50 -7.460698725481052e-014 0 -1 0 -5.0000000000000036 0 -1.0658141036401503e-014 1 I I #
attrib_hh_coedge_geombuild-attrib_entity_geombuild-individual_entity_attribute-attrib_HH-attrib $-1 $-1 $-1 $193 F #
coedge $494 $194 $193 $495 $496 forward $195 $-1 #
edge $497 $498 -50 $197 75 $193 $499 forward 7 unknown #
attrib_hh_coedge_geombuild-attrib_entity_geombuild-individual_entity_attribute-attrib_HH-attrib $-1 $-1 $-1 $194 F #
convexity-sys-attrib $-1 $500 $196 $114 #
attrib_hh_vertex_geombuild-attrib_entity_geombuild-individual_entity_attribute-attrib_HH-attrib $-1 $-1 $-1 $197 F #
point $-1 -38.890872965260115 50 3.535533905932656 #
attrib_hh_coedge_geombuild-attrib_entity_geombuild-individual_entity_attribute-attrib_HH-attrib $-1 $-1 $-1 $200 F #
coedge $501 $495 $451 $200 $336 reversed $298 $-1 #
edge $502 $338 -0.78539816339744906 $341 0.7853981633974495 $335 $503 forward 7 unknown #
attrib_hh_edge_geombuild-attrib_entity_geombuild-individual_entity_attribute-attrib_HH-attrib $-1 $-1 $-1 $201 F #
vertex $504 $496 $505 #
straight-curve $-1 -3.5355339059328195 -25 38.890872965260101 0 -1 0 I I #
attrib_edge_convexity-kcp-attrib $-1 $506 $-1 $203 3 #
vertex $507 $203 $508 #
straight-curve $-1 3.535533905932656 0 38.890872965260115 0 1 0 I I #
attrib_hh_edge_geombuild-attrib_entity_geombuild-individual_entity_attribute-attrib_HH-attrib $-1 $-1 $204 $75 F #
model_id-kcp-attrib $-1 $-1 $-1 $209 1 1017635129 80 424673282 2 #
face $-1 $-1 $224 $25 $-1 $509 reversed single #
loop $-1 $-1 $361 $209 #
plane-surface $-1 0 62.5 0 0 -1 0 0 0 -1 forward_v I I I I #
coedge $-1 $510 $359 $362 $511 forward $210 $-1 #
coedge $-1 $365 $212 $213 $353 reversed $125 $-1 #
coedge $-1 $359 $510 $212 $351 reversed $210 $-1 #
edge $-1 $366 -40.355339059327378 $512 40.355339059327378 $350 $513 forward 7 unknown #
coedge $-1 $214 $213 $510 $514 forward $77 $-1 #
edge $-1 $357 -40.355339059327378 $512 40.355339059327378 $349 $515 forward 7 unknown #
coedge $-1 $362 $361 $214 $355 reversed $346 $-1 #
edge $-1 $516 -40.355339059327378 $356 40.355339059327378 $354 $517 forward 7 unknown #
vertex $-1 $216 $518 #
vertex $-1 $368 $519 #
straight-curve $-1 40.355339059327378 0 -40.355339059327378 0 -1 0 I I #
coedge $-1 $348 $350 $217 $360 reversed $210 $-1 #
edge $-1 $363 -62.5 $366 62.5 $359 $520 forward 7 unknown #
coedge $-1 $354 $218 $223 $369 forward $346 $-1 #
coedge $-1 $218 $354 $348 $511 reversed $346 $-1 #
vertex $-1 $219 $521 #
straight-curve $-1 0 62.5 40.355339059327378 -1 0 0 I I #
coedge $-1 $220 $349 $222 $368 reversed $125 $-1 #
vertex $-1 $360 $522 #
straight-curve $-1 0 -62.5 40.355339059327378 1 0 0 I I #
edge $-1 $225 -40.355339059327378 $357 40.355339059327378 $222 $523 forward 7 unknown #
edge $-1 $226 -40.355339059327378 $356 40.355339059327378 $223 $524 forward 7 unknown #
point $-1 40.355339059327378 -62.5 40.355339059327378 #
point $-1 40.355339059327378 62.5 40.355339059327378 #
face $-1 $-1 $386 $39 $-1 $525 reversed single #
loop $-1 $-1 $526 $228 #
coedge $-1 $382 $527 $384 $528 forward $229 $-1 #
coedge $-1 $529 $230 $527 $530 forward $133 $-1 #
coedge $-1 $230 $529 $531 $532 forward $133 $-1 #
coedge $-1 $385 $384 $230 $378 reversed $386 $-1 #
edge $-1 $533 -93.75 $534 31.25 $230 $535 forward 7 unknown #
coedge $-1 $232 $231 $529 $536 reversed $81 $-1 #
coedge $-1 $526 $531 $231 $381 reversed $373 $-1 #
edge $-1 $388 2.0710678118653885 $537 40.355339059327378 $231 $538 forward 7 unknown #
coedge $-1 $527 $374 $232 $383 forward $229 $-1 #
edge $-1 $387 2.0710678118653885 $539 40.355339059327378 $232 $540 forward 7 unknown #
coedge $-1 $377 $233 $374 $528 reversed $386 $-1 #
coedge $-1 $233 $377 $526 $541 reversed $386 $-1 #
loop $-1 $-1 $233 $372 #
vertex $-1 $383 $542 #
vertex $-1 $381 $543 #
straight-curve $-1 40.355339059327378 31.25 -2.0710678118653925 0 -1 0 I I #
loop $-1 $-1 $398 $235 #
plane-surface $-1 -40.355339059327378 0 0 1 0 0 0 0 -1 forward_v I I I I #
coedge $-1 $393 $238 $544 $545 reversed $137 $-1 #
coedge $-1 $238 $392 $239 $395 reversed $137 $-1 #
coedge $-1 $240 $239 $546 $547 forward $84 $-1 #
edge $-1 $246 2.0710678118655483 $548 40.355339059327378 $393 $549 forward 7 unknown #
coedge $-1 $400 $242 $240 $397 reversed $236 $-1 #
edge $-1 $550 -40.355339059327378 $245 -2.0710678118655594 $396 $551 forward 7 unknown #
coedge $-1 $552 $544 $241 $399 forward $390 $-1 #
edge $-1 $403 -93.75 $401 31.25 $398 $553 forward 7 unknown #
coedge $-1 $242 $396 $552 $554 forward $236 $-1 #
vertex $-1 $399 $555 #
straight-curve $-1 -10.606601717798281 -62.5 31.819805153394618 0.70710678118654602 0 0.70710678118654902 I I #
vertex $-1 $244 $556 #
straight-curve $-1 -10.606601717798281 62.5 31.819805153394618 -0.70710678118654602 0 -0.70710678118654902 I I #
point $-1 -2.0710678118655594 -62.5 40.355339059327378 #
point $-1 -2.0710678118655483 62.5 40.355339059327378 #
loop $-1 $-1 $416 $248 #
plane-surface $-1 0 -62.5 0 0 1 0 0 0 1 forward_v I I I I #
coedge $-1 $252 $251 $557 $558 reversed $88 $-1 #
edge $-1 $559 -40.355339059327378 $261 -2.0710678118655861 $251 $560 forward 7 unknown #
coedge $-1 $561 $416 $252 $412 reversed $407 $-1 #
edge $-1 $562 -40.355339059327378 $414 -2.0710678118655861 $252 $563 forward 7 unknown #
convexity-sys-attrib $-1 $-1 $-1 $253 #
vertex $-1 $253 $564 #
straight-curve $-1 40.355339059327378 0 2.0710678118655874 0 -1 0 I I #
coedge $-1 $411 $561 $254 $417 reversed $407 $-1 #
edge $565 $414 -27.071067811865461 $421 27.071067811865454 $416 $566 forward 7 unknown #
coedge $-1 $557 $255 $561 $567 forward $249 $-1 #
coedge $-1 $255 $557 $257 $423 forward $249 $-1 #
convexity-sys-attrib $-1 $-1 $-1 $256 #
vertex $-1 $567 $568 #
straight-curve $-1 2.0710678118654204 0 40.355339059327378 0 1 0 I I #
edge $-1 $559 -40.355339059327378 $260 -2.0710678118654218 $257 $569 forward 7 unknown #
point $-1 2.0710678118654218 62.5 40.355339059327378 #
point $-1 40.355339059327378 62.5 2.0710678118655861 #
loop $-1 $-1 $434 $263 #
plane-surface $-1 0 0 -40.355339059327378 0 0 1 1 0 0 forward_v I I I I #
edge $-1 $276 2.0710678118655861 $570 40.355339059327378 $273 $571 forward 7 unknown #
coedge $-1 $572 $434 $267 $430 forward $426 $-1 #
edge $-1 $432 2.0710678118654218 $570 40.355339059327378 $267 $573 forward 7 unknown #
convexity-sys-attrib $-1 $-1 $-1 $268 #
vertex $-1 $430 $574 #
straight-curve $-1 -21.213203435596398 -62.5 -21.213203435596483 0.70710678118654902 0 -0.70710678118654602 I I #
coedge $-1 $429 $575 $269 $435 reversed $426 $-1 #
edge $576 $432 -62.5 $439 62.5 $434 $577 forward 7 unknown #
coedge $-1 $437 $270 $575 $578 reversed $264 $-1 #
coedge $-1 $270 $436 $272 $442 reversed $264 $-1 #
convexity-sys-attrib $-1 $-1 $-1 $271 #
vertex $-1 $271 $579 #
straight-curve $-1 -21.213203435596398 62.5 -21.213203435596483 -0.70710678118654902 0 0.70710678118654602 I I #
coedge $-1 $273 $272 $572 $580 reversed $152 $-1 #
edge $-1 $275 2.0710678118655861 $581 40.355339059327378 $437 $582 forward 7 unknown #
point $-1 -40.355339059327378 62.5 -2.0710678118655861 #
point $-1 -40.355339059327378 -62.5 -2.0710678118655861 #
aggregate_simgeom_attribute-aggregate_simgeom_base_attribute-aggregate_body_attribute-attrib_HH-attrib $-1 $-1 $278 $0 F #
attrib_hh_face_geombuild-attrib_entity_geombuild-individual_entity_attribute-attrib_HH-attrib $-1 $-1 $280 $162 F #
model_id-kcp-attrib $-1 $583 $-1 $281 1 1017635129 80 424673281 8 #
face $584 $585 $483 $10 $-1 $586 reversed single #
cone-surface $-1 -35.355339059327378 -25 -7.460698725481052e-014 0 -1 0 -5.0000000000000036 0 -1.0658141036401503e-014 1 I I 0 1 5.0000000000000036 forward I I I I #
attrib_hh_coedge_geombuild-attrib_entity_geombuild-individual_entity_attribute-attrib_HH-attrib $-1 $-1 $-1 $284 F #
coedge $587 $335 $286 $284 $452 reversed $298 $-1 #
edge $588 $341 -24.999999999999993 $291 24.999999999999996 $284 $589 forward 7 unknown #
attrib_hh_coedge_geombuild-attrib_entity_geombuild-individual_entity_attribute-attrib_HH-attrib $-1 $-1 $-1 $286 F #
attrib_hh_edge_geombuild-attrib_entity_geombuild-individual_entity_attribute-attrib_HH-attrib $-1 $-1 $-1 $287 F #
ellipse-curve $-1 35.355339059327378 -75 7.460698725481052e-014 0 1 0 5.0000000000000036 0 1.0658141036401503e-014 1 I I #
convexity-sys-attrib $-1 $590 $290 $169 #
attrib_hh_vertex_geombuild-attrib_entity_geombuild-individual_entity_attribute-attrib_HH-attrib $-1 $-1 $-1 $291 F #
point $-1 38.890872965260101 -75 3.5355339059328195 #
attrib_hh_coedge_geombuild-attrib_entity_geombuild-individual_entity_attribute-attrib_HH-attrib $-1 $-1 $-1 $294 F #
coedge $591 $592 $294 $297 $467 forward $462 $-1 #
coedge $593 $294 $592 $303 $473 forward $462 $-1 #
loop $-1 $-1 $294 $585 #
attrib_edge_convexity-kcp-attrib $-1 $594 $-1 $295 3 #
straight-curve $-1 3.5355339059328195 -25 -38.890872965260101 0 -1 0 I I #
attrib_hh_coedge_geombuild-attrib_entity_geombuild-individual_entity_attribute-attrib_HH-attrib $-1 $-1 $-1 $297 F #
coedge $595 $297 $596 $597 $598 forward $298 $-1 #
edge $599 $300 -0.78539816339744906 $600 0.7853981633974495 $297 $601 forward 7 unknown #
face $602 $-1 $298 $10 $-1 $603 reversed single #
convexity-sys-attrib $-1 $604 $299 $173 #
attrib_hh_vertex_geombuild-attrib_entity_geombuild-individual_entity_attribute-attrib_HH-attrib $-1 $-1 $-1 $300 F #
point $-1 3.5355339059328195 -75 -38.890872965260101 #
attrib_hh_coedge_geombuild-attrib_entity_geombuild-individual_entity_attribute-attrib_HH-attrib $-1 $-1 $-1 $303 F #
edge $605 $485 -0.7853981633974495 $305 0.78539816339744906 $303 $606 forward 7 unknown #
convexity-sys-attrib $-1 $607 $304 $176 #
attrib_hh_vertex_geombuild-attrib_entity_geombuild-individual_entity_attribute-attrib_HH-attrib $-1 $-1 $-1 $305 F #
point $-1 3.5355339059328195 50 -38.890872965260101 #
attrib_hh_edge_geombuild-attrib_entity_geombuild-individual_entity_attribute-attrib_HH-attrib $-1 $-1 $307 $106 F #
convexity-sys-attrib $-1 $608 $312 $183 #
attrib_hh_edge_geombuild-attrib_entity_geombuild-individual_entity_attribute-attrib_HH-attrib $-1 $-1 $314 $110 F #
attrib_hh_coedge_geombuild-attrib_entity_geombuild-individual_entity_attribute-attrib_HH-attrib $-1 $-1 $-1 $318 F #
coedge $609 $597 $318 $592 $610 reversed $483 $-1 #
coedge $611 $318 $597 $321 $489 reversed $483 $-1 #
loop $-1 $-1 $481 $448 #
attrib_edge_convexity-kcp-attrib $-1 $612 $-1 $319 1 #
vertex $613 $319 $614 #
straight-curve $-1 -21.21320343559638 50 -21.213203435596469 0.70710678118654902 0 -0.70710678118654602 I I #
attrib_hh_coedge_geombuild-attrib_entity_geombuild-individual_entity_attribute-attrib_HH-attrib $-1 $-1 $-1 $321 F #
coedge $615 $322 $321 $596 $616 forward $323 $-1 #
edge $617 $325 -75 $618 50 $482 $619 forward 7 unknown #
attrib_hh_coedge_geombuild-attrib_entity_geombuild-individual_entity_attribute-attrib_HH-attrib $-1 $-1 $-1 $322 F #
attrib_edge_convexity-kcp-attrib $-1 $620 $324 $191 1 #
attrib_hh_vertex_geombuild-attrib_entity_geombuild-individual_entity_attribute-attrib_HH-attrib $-1 $-1 $-1 $325 F #
point $-1 -38.890872965260101 50 -3.5355339059328195 #
attrib_hh_coedge_geombuild-attrib_entity_geombuild-individual_entity_attribute-attrib_HH-attrib $-1 $-1 $-1 $328 F #
coedge $621 $596 $335 $328 $496 reversed $298 $-1 #
edge $622 $498 -24.999999999999993 $338 24.999999999999996 $495 $623 forward 7 unknown #
attrib_hh_edge_geombuild-attrib_entity_geombuild-individual_entity_attribute-attrib_HH-attrib $-1 $-1 $-1 $329 F #
vertex $624 $329 $625 #
straight-curve $-1 -38.890872965260115 -25 3.535533905932656 0 1 0 I I #
attrib_hh_edge_geombuild-attrib_entity_geombuild-individual_entity_attribute-attrib_HH-attrib $-1 $-1 $331 $114 F #
attrib_hh_coedge_geombuild-attrib_entity_geombuild-individual_entity_attribute-attrib_HH-attrib $-1 $-1 $-1 $335 F #
attrib_hh_edge_geombuild-attrib_entity_geombuild-individual_entity_attribute-attrib_HH-attrib $-1 $-1 $-1 $336 F #
ellipse-curve $-1 -7.460698725481052e-014 -75 35.355339059327378 0 1 0 -1.0658141036401503e-014 0 5.0000000000000036 1 I I #
attrib_hh_vertex_geombuild-attrib_entity_geombuild-individual_entity_attribute-attrib_HH-attrib $-1 $-1 $-1 $338 F #
point $-1 -3.5355339059328195 -75 38.890872965260101 #
convexity-sys-attrib $-1 $626 $340 $203 #
attrib_hh_vertex_geombuild-attrib_entity_geombuild-individual_entity_attribute-attrib_HH-attrib $-1 $-1 $-1 $341 F #
point $-1 3.535533905932656 -75 38.890872965260115 #
plane-surface $-1 40.355339059327378 0 0 -1 0 0 0 0 1 forward_v I I I I #
coedge $-1 $350 $348 $352 $514 reversed $210 $-1 #
edge $-1 $363 -40.355339059327378 $516 40.355339059327378 $362 $627 forward 7 unknown #
vertex $-1 $514 $628 #
straight-curve $-1 -40.355339059327378 -62.5 0 0 0 -1 I I #
edge $-1 $512 -62.5 $516 62.5 $510 $629 forward 7 unknown #
straight-curve $-1 0 -62.5 -40.355339059327378 -1 0 0 I I #
vertex $-1 $355 $630 #
straight-curve $-1 0 62.5 -40.355339059327378 1 0 0 I I #
point $-1 40.355339059327378 62.5 -40.355339059327378 #
point $-1 40.355339059327378 -62.5 -40.355339059327378 #
straight-curve $-1 -40.355339059327378 0 40.355339059327378 0 -1 0 I I #
point $-1 -40.355339059327378 62.5 40.355339059327378 #
point $-1 -40.355339059327378 -62.5 40.355339059327378 #
straight-curve $-1 40.355339059327378 -62.5 0 0 0 -1 I I #
straight-curve $-1 40.355339059327378 62.5 0 0 0 -1 I I #
plane-surface $-1 42.426406871192846 62.5 8.8817841970012523e-014 0.70710678118654902 0 -0.70710678118654602 0.70710678118654602 0 0.70710678118654902 forward_v I I I I #
coedge $-1 $531 $380 $385 $541 forward $373 $-1 #
coedge $-1 $374 $382 $375 $530 reversed $229 $-1 #
edge $-1 $534 -42.07106781186549 $387 12.071067811865476 $374 $631 forward 7 unknown #
coedge $-1 $376 $375 $379 $536 forward $133 $-1 #
edge $-1 $534 2.0710678118655537 $539 40.355339059327378 $527 $632 forward 7 unknown #
coedge $-1 $380 $526 $376 $532 reversed $373 $-1 #
edge $-1 $537 -40.355339059327378 $533 -2.0710678118655537 $531 $633 forward 7 unknown #
vertex $-1 $378 $634 #
vertex $-1 $530 $635 #
straight-curve $-1 2.0710678118655537 31.25 -40.355339059327378 0 1 0 I I #
edge $-1 $539 -62.5 $537 62.5 $379 $636 forward 7 unknown #
vertex $-1 $381 $637 #
straight-curve $-1 40.355339059327378 -62.5 0 0 0 -1 I I #
vertex $-1 $536 $638 #
straight-curve $-1 40.355339059327378 62.5 0 0 0 -1 I I #
edge $-1 $388 -12.071067811865476 $533 42.07106781186549 $526 $639 forward 7 unknown #
point $-1 40.355339059327378 62.5 -2.0710678118653885 #
point $-1 40.355339059327378 -62.5 -2.0710678118653885 #
coedge $-1 $398 $546 $392 $545 forward $390 $-1 #
edge $-1 $548 -40.355339059327378 $403 -2.0710678118653831 $392 $640 forward 7 unknown #
coedge $-1 $544 $552 $394 $547 reversed $390 $-1 #
edge $-1 $548 -62.5 $550 62.5 $546 $641 forward 7 unknown #
vertex $-1 $395 $642 #
straight-curve $-1 0 62.5 40.355339059327378 -1 0 0 I I #
vertex $-1 $547 $643 #
straight-curve $-1 0 -62.5 40.355339059327378 1 0 0 I I #
coedge $-1 $546 $398 $400 $554 reversed $390 $-1 #
straight-curve $-1 -40.355339059327378 -31.25 2.0710678118653973 0 -1 0 I I #
edge $-1 $550 -40.355339059327378 $401 -2.0710678118653973 $552 $644 forward 7 unknown #
point $-1 -40.355339059327378 -62.5 2.0710678118653973 #
point $-1 -40.355339059327378 62.5 2.0710678118653831 #
coedge $-1 $419 $418 $409 $558 forward $249 $-1 #
edge $-1 $562 -62.5 $559 62.5 $409 $645 forward 7 unknown #
vertex $-1 $558 $646 #
straight-curve $-1 40.355339059327378 62.5 0 0 0 -1 I I #
coedge $-1 $416 $411 $418 $567 reversed $407 $-1 #
vertex $-1 $558 $647 #
straight-curve $-1 40.355339059327378 -62.5 0 0 0 -1 I I #
point $-1 40.355339059327378 -62.5 2.0710678118655861 #
convexity-sys-attrib $-1 $-1 $-1 $417 #
straight-curve $-1 21.213203435596398 -62.5 21.213203435596483 -0.70710678118654902 0 0.70710678118654602 I I #
edge $-1 $421 2.0710678118654218 $562 40.355339059327378 $561 $648 forward 7 unknown #
point $-1 2.0710678118654218 -62.5 40.355339059327378 #
straight-curve $-1 0 62.5 40.355339059327378 -1 0 0 I I #
vertex $-1 $580 $649 #
straight-curve $-1 -40.355339059327378 -62.5 0 0 0 -1 I I #
coedge $-1 $575 $429 $441 $580 forward $426 $-1 #
straight-curve $-1 0 -62.5 -40.355339059327378 -1 0 0 I I #
point $-1 -2.0710678118654218 -62.5 -40.355339059327378 #
coedge $-1 $434 $572 $436 $578 forward $426 $-1 #
convexity-sys-attrib $-1 $-1 $-1 $435 #
straight-curve $-1 -2.0710678118654204 0 -40.355339059327378 0 1 0 I I #
edge $-1 $581 -40.355339059327378 $439 -2.0710678118654218 $436 $650 forward 7 unknown #
point $-1 -2.0710678118654218 62.5 -40.355339059327378 #
edge $-1 $570 -62.5 $581 62.5 $441 $651 forward 7 unknown #
vertex $-1 $578 $652 #
straight-curve $-1 -40.355339059327378 62.5 0 0 0 -1 I I #
attrib_hh_face_geombuild-attrib_entity_geombuild-individual_entity_attribute-attrib_HH-attrib $-1 $-1 $447 $281 F #
model_id-kcp-attrib $-1 $653 $-1 $448 1 1017635129 80 424673281 9 #
face $654 $468 $462 $10 $-1 $655 forward single #
plane-surface $-1 -21.21320343559638 -25 -21.213203435596469 0.70710678118654602 0 0.70710678118654902 0.70710678118654902 0 -0.70710678118654602 forward_v I I I I #
attrib_hh_coedge_geombuild-attrib_entity_geombuild-individual_entity_attribute-attrib_HH-attrib $-1 $-1 $-1 $451 F #
attrib_edge_convexity-kcp-attrib $-1 $656 $-1 $452 1 #
straight-curve $-1 21.21320343559638 -75 21.213203435596469 0.70710678118654902 0 -0.70710678118654602 I I #
attrib_hh_edge_geombuild-attrib_entity_geombuild-individual_entity_attribute-attrib_HH-attrib $-1 $-1 $456 $169 F #
attrib_hh_coedge_geombuild-attrib_entity_geombuild-individual_entity_attribute-attrib_HH-attrib $-1 $-1 $-1 $460 F #
coedge $657 $461 $460 $481 $610 forward $462 $-1 #
attrib_hh_coedge_geombuild-attrib_entity_geombuild-individual_entity_attribute-attrib_HH-attrib $-1 $-1 $-1 $461 F #
convexity-sys-attrib $-1 $658 $463 $295 #
attrib_hh_coedge_geombuild-attrib_entity_geombuild-individual_entity_attribute-attrib_HH-attrib $-1 $-1 $-1 $466 F #
coedge $659 $466 $495 $488 $616 reversed $298 $-1 #
coedge $660 $482 $481 $466 $598 reversed $483 $-1 #
edge $661 $618 -24.999999999999996 $600 24.999999999999993 $597 $662 forward 7 unknown #
model_id-kcp-attrib $-1 $663 $-1 $467 1 1017635129 80 424673281 17 #
vertex $664 $598 $665 #
ellipse-curve $-1 7.460698725481052e-014 -75 -35.355339059327378 0 1 0 1.0658141036401503e-014 0 -5.0000000000000036 1 I I #
model_id-kcp-attrib $-1 $666 $-1 $468 1 1017635129 80 424673281 16 #
plane-surface $-1 0 -75 0 0 1 0 -0.70710678118654902 0 0.70710678118654602 forward_v I I I I #
attrib_hh_edge_geombuild-attrib_entity_geombuild-individual_entity_attribute-attrib_HH-attrib $-1 $-1 $469 $173 F #
model_id-kcp-attrib $-1 $667 $-1 $473 1 1017635129 80 424673281 12 #
ellipse-curve $-1 7.460698725481052e-014 50 -35.355339059327378 0 -1 0 1.0658141036401503e-014 0 -5.0000000000000036 1 I I #
attrib_hh_edge_geombuild-attrib_entity_geombuild-individual_entity_attribute-attrib_HH-attrib $-1 $-1 $474 $176 F #
attrib_hh_edge_geombuild-attrib_entity_geombuild-individual_entity_attribute-attrib_HH-attrib $-1 $-1 $478 $183 F #
attrib_hh_coedge_geombuild-attrib_entity_geombuild-individual_entity_attribute-attrib_HH-attrib $-1 $-1 $-1 $481 F #
edge $668 $600 -50 $485 75 $481 $669 forward 7 unknown #
attrib_hh_coedge_geombuild-attrib_entity_geombuild-individual_entity_attribute-attrib_HH-attrib $-1 $-1 $-1 $482 F #
convexity-sys-attrib $-1 $670 $484 $319 #
attrib_hh_vertex_geombuild-attrib_entity_geombuild-individual_entity_attribute-attrib_HH-attrib $-1 $-1 $-1 $485 F #
point $-1 -3.535533905932656 50 -38.890872965260115 #
attrib_hh_coedge_geombuild-attrib_entity_geombuild-individual_entity_attribute-attrib_HH-attrib $-1 $-1 $-1 $488 F #
edge $671 $618 -0.78539816339744906 $498 0.7853981633974495 $596 $672 forward 7 unknown #
attrib_edge_convexity-kcp-attrib $-1 $673 $-1 $489 3 #
vertex $674 $489 $675 #
straight-curve $-1 -38.890872965260101 -25 -3.5355339059328195 0 -1 0 I I #
convexity-sys-attrib $-1 $676 $491 $191 #
attrib_hh_coedge_geombuild-attrib_entity_geombuild-individual_entity_attribute-attrib_HH-attrib $-1 $-1 $-1 $495 F #
attrib_hh_edge_geombuild-attrib_entity_geombuild-individual_entity_attribute-attrib_HH-attrib $-1 $-1 $-1 $496 F #
straight-curve $-1 -21.213203435596469 -75 21.21320343559638 0.70710678118654602 0 0.70710678118654902 I I #
attrib_hh_vertex_geombuild-attrib_entity_geombuild-individual_entity_attribute-attrib_HH-attrib $-1 $-1 $-1 $498 F #
point $-1 -38.890872965260115 -75 3.535533905932656 #
attrib_hh_edge_geombuild-attrib_entity_geombuild-individual_entity_attribute-attrib_HH-attrib $-1 $-1 $506 $203 F #
straight-curve $-1 -40.355339059327378 62.5 0 0 0 -1 I I #
point $-1 -40.355339059327378 -62.5 -40.355339059327378 #
straight-curve $-1 -40.355339059327378 0 -40.355339059327378 0 1 0 I I #
point $-1 -40.355339059327378 62.5 -40.355339059327378 #
straight-curve $-1 31.819805153394658 62.5 -10.606601717798144 0.70710678118654602 0 0.70710678118654902 I I #
straight-curve $-1 0 62.5 -40.355339059327378 1 0 0 I I #
straight-curve $-1 0 -62.5 -40.355339059327378 -1 0 0 I I #
point $-1 2.0710678118655537 -62.5 -40.355339059327378 #
point $-1 2.0710678118655537 62.5 -40.355339059327378 #
straight-curve $-1 40.355339059327378 0 -40.355339059327378 0 -1 0 I I #
point $-1 40.355339059327378 -62.5 -40.355339059327378 #
point $-1 40.355339059327378 62.5 -40.355339059327378 #
straight-curve $-1 31.819805153394658 -62.5 -10.606601717798144 -0.70710678118654602 0 -0.70710678118654902 I I #
straight-curve $-1 -40.355339059327378 62.5 0 0 0 -1 I I #
straight-curve $-1 -40.355339059327378 0 40.355339059327378 0 -1 0 I I #
point $-1 -40.355339059327378 62.5 40.355339059327378 #
point $-1 -40.355339059327378 -62.5 40.355339059327378 #
straight-curve $-1 -40.355339059327378 -62.5 0 0 0 -1 I I #
straight-curve $-1 40.355339059327378 0 40.355339059327378 0 1 0 I I #
point $-1 40.355339059327378 62.5 40.355339059327378 #
point $-1 40.355339059327378 -62.5 40.355339059327378 #
straight-curve $-1 0 -62.5 40.355339059327378 1 0 0 I I #
point $-1 -40.355339059327378 -62.5 -40.355339059327378 #
straight-curve $-1 0 62.5 -40.355339059327378 1 0 0 I I #
straight-curve $-1 -40.355339059327378 0 -40.355339059327378 0 1 0 I I #
point $-1 -40.355339059327378 62.5 -40.355339059327378 #
attrib_hh_face_geombuild-attrib_entity_geombuild-individual_entity_attribute-attrib_HH-attrib $-1 $-1 $584 $448 F #
model_id-kcp-attrib $-1 $677 $-1 $585 1 1017635129 80 424673281 10 #
cone-surface $-1 7.460698725481052e-014 -25 -35.355339059327378 0 1 0 1.0658141036401503e-014 0 -5.0000000000000036 1 I I 0 1 5.0000000000000036 forward I I I I #
convexity-sys-attrib $-1 $678 $588 $452 #
attrib_hh_coedge_geombuild-attrib_entity_geombuild-individual_entity_attribute-attrib_HH-attrib $-1 $-1 $-1 $592 F #
attrib_hh_edge_geombuild-attrib_entity_geombuild-individual_entity_attribute-attrib_HH-attrib $-1 $-1 $594 $295 F #
attrib_hh_coedge_geombuild-attrib_entity_geombuild-individual_entity_attribute-attrib_HH-attrib $-1 $-1 $-1 $596 F #
attrib_hh_coedge_geombuild-attrib_entity_geombuild-individual_entity_attribute-attrib_HH-attrib $-1 $-1 $-1 $597 F #
attrib_edge_convexity-kcp-attrib $-1 $679 $-1 $598 1 #
straight-curve $-1 -21.21320343559638 -75 -21.213203435596469 0.70710678118654902 0 -0.70710678118654602 I I #
attrib_hh_edge_geombuild-attrib_entity_geombuild-individual_entity_attribute-attrib_HH-attrib $-1 $-1 $599 $467 F #
attrib_hh_vertex_geombuild-attrib_entity_geombuild-individual_entity_attribute-attrib_HH-attrib $-1 $-1 $-1 $600 F #
point $-1 -3.535533905932656 -75 -38.890872965260115 #
model_id-kcp-attrib $-1 $680 $602 $468 1 1017635129 80 424673281 11 #
attrib_edge_convexity-kcp-attrib $-1 $681 $605 $473 1 #
attrib_edge_convexity-kcp-attrib $-1 $682 $-1 $610 3 #
straight-curve $-1 -3.535533905932656 -25 -38.890872965260115 0 1 0 I I #
attrib_hh_edge_geombuild-attrib_entity_geombuild-individual_entity_attribute-attrib_HH-attrib $-1 $-1 $612 $319 F #
model_id-kcp-attrib $-1 $683 $-1 $616 1 1017635129 80 424673281 15 #
ellipse-curve $-1 -35.355339059327378 -75 -7.460698725481052e-014 0 1 0 -5.0000000000000036 0 -1.0658141036401503e-014 1 I I #
convexity-sys-attrib $-1 $684 $617 $489 #
attrib_hh_vertex_geombuild-attrib_entity_geombuild-individual_entity_attribute-attrib_HH-attrib $-1 $-1 $-1 $618 F #
point $-1 -38.890872965260101 -75 -3.5355339059328195 #
attrib_hh_edge_geombuild-attrib_entity_geombuild-individual_entity_attribute-attrib_HH-attrib $-1 $-1 $620 $191 F #
attrib_hh_face_geombuild-attrib_entity_geombuild-individual_entity_attribute-attrib_HH-attrib $-1 $-1 $654 $585 F #
attrib_hh_edge_geombuild-attrib_entity_geombuild-individual_entity_attribute-attrib_HH-attrib $-1 $-1 $656 $452 F #
convexity-sys-attrib $-1 $685 $661 $598 #
attrib_hh_face_geombuild-attrib_entity_geombuild-individual_entity_attribute-attrib_HH-attrib $-1 $-1 $666 $468 F #
convexity-sys-attrib $-1 $686 $667 $473 #
convexity-sys-attrib $-1 $687 $668 $610 #
attrib_hh_edge_geombuild-attrib_entity_geombuild-individual_entity_attribute-attrib_HH-attrib $-1 $-1 $671 $616 F #
attrib_hh_edge_geombuild-attrib_entity_geombuild-individual_entity_attribute-attrib_HH-attrib $-1 $-1 $673 $489 F #
attrib_hh_edge_geombuild-attrib_entity_geombuild-individual_entity_attribute-attrib_HH-attrib $-1 $-1 $679 $598 F #
attrib_hh_edge_geombuild-attrib_entity_geombuild-individual_entity_attribute-attrib_HH-attrib $-1 $-1 $681 $473 F #
attrib_hh_edge_geombuild-attrib_entity_geombuild-individual_entity_attribute-attrib_HH-attrib $-1 $-1 $682 $610 F #
End-of-ACIS-data 