600 0 2 0           
24 FBMach with ACIS - 6.0.3 13 ACIS 6.0.3 NT 24 Tue May 22 12:24:44 2001 
1 9.9999999999999995e-007 1e-010 
body $2 $3 $-1 $4 #
bdycol-kcp $-1 1 2 $5 $6 #
model_id-kcp-attrib $-1 $-1 $-1 $0 1 990548683 50 -1372454911 1 #
lump $-1 $-1 $7 $0 #
transform $-1 0.70710678118654602 0 0.70710678118654902 0 1 0 -0.70710678118654902 0 0.70710678118654602 0 -25 0 1 rotate no_reflect no_shear #
body $8 $9 $-1 $10 #
body $11 $12 $-1 $13 #
shell $-1 $-1 $-1 $14 $-1 $3 #
model_id-kcp-attrib $-1 $-1 $-1 $5 1 990548683 50 -1372454910 1 #
lump $-1 $-1 $15 $5 #
transform $-1 1 0 0 0 1 0 0 0 1 0 -12.5 0 1 no_rotate no_reflect no_shear #
rgb_color-st-attrib $-1 $16 $-1 $6 0.5 1 1 #
lump $-1 $-1 $17 $6 #
transform $-1 1 0 0 0 1 0 0 0 1 0 -12.5 0 1 no_rotate no_reflect no_shear #
face $18 $19 $20 $7 $-1 $21 reversed single #
shell $-1 $-1 $-1 $22 $-1 $9 #
model_id-kcp-attrib $-1 $-1 $11 $6 1 990548683 160 -1365245949 1 #
shell $-1 $-1 $-1 $23 $-1 $12 #
model_id-kcp-attrib $-1 $24 $-1 $14 1 990548683 50 -1372454911 12 #
face $25 $26 $27 $7 $-1 $28 reversed single #
loop $-1 $-1 $29 $14 #
plane-surface $-1 0 75 0 0 -1 0 0 0 -1 forward_v I I I I #
face $-1 $30 $31 $15 $-1 $32 forward single #
face $-1 $33 $34 $17 $-1 $35 reversed single #
model_id-kcp-attrib $-1 $-1 $18 $14 1 990548683 50 -1372454911 2 #
model_id-kcp-attrib $-1 $-1 $-1 $19 1 990548683 50 -1372454911 3 #
face $36 $37 $38 $7 $-1 $39 forward single #
loop $-1 $-1 $40 $19 #
plane-surface $-1 0 0 -30 0 0 1 1 0 0 forward_v I I I I #
coedge $-1 $41 $42 $43 $44 reversed $20 $-1 #
face $-1 $45 $46 $15 $-1 $47 reversed single #
loop $-1 $-1 $48 $22 #
plane-surface $-1 0 0 42.426406871192853 0 0 1 1 0 0 forward_v I I I I #
face $-1 $49 $50 $17 $-1 $51 reversed single #
loop $-1 $-1 $52 $23 #
cone-surface $-1 -7.5051076464660582e-014 62.5 35.355339059327378 0 1 0 -3.5355339059327471 0 3.5355339059327306 1 I I 0 1 5.0000000000000018 forward I I I I #
model_id-kcp-attrib $-1 $-1 $-1 $26 1 990548683 50 -1372454911 4 #
face $53 $54 $55 $7 $-1 $56 reversed single #
loop $-1 $-1 $57 $26 #
cone-surface $-1 25 0 -25 0 -1 0 3.53553390593274 0 -3.53553390593274 1 I I 0 1 5.0000000000000036 forward I I I I #
coedge $-1 $58 $59 $60 $61 reversed $27 $-1 #
coedge $-1 $62 $29 $63 $64 forward $20 $-1 #
coedge $-1 $29 $65 $66 $67 reversed $20 $-1 #
coedge $-1 $68 $69 $29 $44 forward $70 $-1 #
edge $71 $72 -0.78539816339744828 $73 0.78539816339744828 $29 $74 forward 7 unknown #
face $75 $76 $77 $15 $-1 $78 reversed single #
loop $-1 $-1 $79 $30 #
plane-surface $-1 0 0 -42.426406871192853 0 0 1 1 0 0 forward_v I I I I #
coedge $-1 $80 $81 $82 $83 forward $31 $-1 #
face $-1 $84 $85 $17 $-1 $86 reversed single #
loop $-1 $-1 $87 $33 #
plane-surface $-1 38.890872965260101 62.5 3.5355339059328221 0.70710678118654591 0 0.70710678118654913 0 1 0 forward_v I I I I #
coedge $-1 $88 $89 $90 $91 reversed $34 $-1 #
model_id-kcp-attrib $-1 $-1 $-1 $37 1 990548683 50 -1372454911 5 #
face $92 $93 $70 $7 $-1 $94 forward single #
loop $-1 $-1 $95 $37 #
plane-surface $-1 30 0 0 -1 0 0 0 0 1 forward_v I I I I #
coedge $-1 $96 $97 $98 $99 forward $38 $-1 #
coedge $-1 $100 $40 $101 $102 forward $27 $-1 #
coedge $-1 $40 $100 $103 $104 forward $27 $-1 #
coedge $-1 $97 $96 $40 $61 forward $38 $-1 #
edge $105 $106 -50 $107 75 $40 $108 forward 7 unknown #
coedge $-1 $103 $41 $97 $109 reversed $20 $-1 #
coedge $-1 $95 $98 $41 $64 reversed $55 $-1 #
edge $110 $72 -25 $111 25 $63 $112 forward 7 unknown #
coedge $-1 $42 $113 $114 $115 reversed $20 $-1 #
coedge $-1 $116 $117 $42 $67 forward $118 $-1 #
edge $119 $73 -25 $120 25 $42 $121 forward 7 unknown #
coedge $-1 $122 $43 $117 $123 reversed $70 $-1 #
coedge $-1 $43 $122 $95 $124 forward $70 $-1 #
loop $-1 $-1 $68 $54 #
attrib_edge_convexity-kcp-attrib $-1 $125 $-1 $44 1 #
vertex $-1 $44 $126 #
vertex $-1 $44 $127 #
ellipse-curve $-1 25 75 25 0 -1 0 3.53553390593274 0 3.53553390593274 1 I I #
model_id-kcp-attrib $-1 $-1 $-1 $45 1 990548683 50 -1372454910 3 #
face $-1 $128 $129 $15 $-1 $130 reversed single #
loop $-1 $-1 $131 $45 #
plane-surface $-1 0 -62.5 0 0 1 0 0 0 1 forward_v I I I I #
coedge $-1 $132 $133 $134 $135 forward $46 $-1 #
coedge $-1 $136 $48 $137 $138 forward $31 $-1 #
coedge $-1 $48 $136 $139 $140 forward $31 $-1 #
coedge $-1 $141 $142 $48 $83 reversed $143 $-1 #
edge $-1 $144 -62.5 $145 62.5 $82 $146 forward 7 unknown #
face $-1 $147 $148 $17 $-1 $149 reversed single #
loop $-1 $-1 $150 $49 #
cone-surface $-1 35.355339059327378 62.5 7.5051076464660582e-014 0 1 0 3.5355339059327306 0 3.5355339059327471 1 I I 0 1 5.0000000000000018 forward I I I I #
coedge $-1 $151 $152 $153 $154 reversed $50 $-1 #
coedge $-1 $155 $52 $156 $157 reversed $34 $-1 #
coedge $-1 $52 $155 $151 $158 forward $34 $-1 #
coedge $-1 $153 $159 $52 $91 forward $160 $-1 #
edge $-1 $161 -1.1368683772161607e-015 $162 1.5707963267948974 $90 $163 forward 7 unknown #
model_id-kcp-attrib $-1 $-1 $-1 $54 1 990548683 50 -1372454911 6 #
face $164 $165 $118 $7 $-1 $166 forward single #
cone-surface $-1 25 0 25 0 1 0 3.53553390593274 0 3.53553390593274 1 I I 0 1 5.0000000000000036 forward I I I I #
coedge $-1 $167 $63 $69 $124 reversed $55 $-1 #
coedge $-1 $60 $57 $168 $169 forward $38 $-1 #
coedge $-1 $57 $60 $62 $109 forward $38 $-1 #
coedge $-1 $63 $167 $57 $99 reversed $55 $-1 #
edge $170 $111 -50 $171 75 $98 $172 forward 7 unknown #
coedge $-1 $59 $58 $173 $174 forward $27 $-1 #
coedge $-1 $168 $175 $58 $102 reversed $176 $-1 #
edge $177 $106 -25 $178 25 $101 $179 forward 7 unknown #
coedge $-1 $180 $62 $59 $104 reversed $20 $-1 #
edge $181 $182 -25 $107 25 $103 $183 forward 7 unknown #
attrib_edge_convexity-kcp-attrib $-1 $184 $-1 $61 3 #
vertex $-1 $61 $185 #
vertex $-1 $104 $186 #
straight-curve $-1 25 0 -30 0 1 0 I I #
edge $187 $107 -0.78539816339744828 $111 0.78539816339744828 $62 $188 forward 7 unknown #
attrib_edge_convexity-kcp-attrib $-1 $189 $-1 $64 1 #
vertex $-1 $64 $190 #
straight-curve $-1 30 75 0 0 0 -1 I I #
coedge $-1 $65 $180 $191 $192 reversed $20 $-1 #
coedge $-1 $193 $194 $65 $115 forward $195 $-1 #
edge $196 $120 -0.78539816339744828 $197 0.78539816339744828 $65 $198 forward 7 unknown #
coedge $-1 $199 $66 $194 $200 reversed $118 $-1 #
coedge $-1 $66 $199 $68 $123 forward $118 $-1 #
loop $-1 $-1 $116 $93 #
attrib_edge_convexity-kcp-attrib $-1 $201 $-1 $67 1 #
vertex $-1 $67 $202 #
straight-curve $-1 0 75 30 -1 0 0 I I #
coedge $-1 $69 $68 $203 $204 forward $70 $-1 #
edge $-1 $205 -50 $73 75 $117 $206 reversed 7 unknown #
edge $207 $208 -75 $72 50 $95 $209 forward 7 unknown #
convexity-sys-attrib $-1 $-1 $71 $44 #
point $-1 30 75 25 #
point $-1 25 75 30 #
face $210 $211 $212 $15 $-1 $213 reversed single #
loop $-1 $-1 $214 $76 #
plane-surface $-1 -42.426406871192853 0 0 1 0 0 0 0 -1 forward_v I I I I #
coedge $-1 $215 $139 $216 $217 forward $77 $-1 #
coedge $-1 $218 $79 $215 $219 forward $46 $-1 #
coedge $-1 $79 $218 $220 $221 forward $46 $-1 #
coedge $-1 $142 $141 $79 $135 reversed $143 $-1 #
edge $-1 $222 -62.5 $223 62.5 $134 $224 forward 7 unknown #
coedge $-1 $81 $80 $225 $226 forward $31 $-1 #
coedge $-1 $227 $228 $80 $138 reversed $212 $-1 #
edge $-1 $145 -42.426406871192853 $229 42.426406871192853 $137 $230 forward 7 unknown #
coedge $-1 $131 $231 $81 $140 reversed $77 $-1 #
edge $-1 $232 -42.426406871192853 $144 42.426406871192853 $139 $233 forward 7 unknown #
coedge $-1 $134 $82 $231 $234 forward $143 $-1 #
coedge $-1 $82 $134 $227 $235 reversed $143 $-1 #
loop $-1 $-1 $141 $211 #
vertex $-1 $83 $236 #
vertex $-1 $83 $237 #
straight-curve $-1 42.426406871192853 0 42.426406871192853 0 1 0 I I #
face $-1 $238 $239 $17 $-1 $240 reversed single #
loop $-1 $-1 $241 $84 #
plane-surface $-1 3.535533905932823 62.5 -38.890872965260115 0.70710678118654913 0 -0.70710678118654591 0 1 0 forward_v I I I I #
coedge $-1 $242 $243 $244 $245 reversed $85 $-1 #
coedge $-1 $246 $87 $89 $158 reversed $50 $-1 #
coedge $-1 $87 $246 $242 $247 forward $50 $-1 #
coedge $-1 $244 $90 $87 $154 forward $160 $-1 #
edge $-1 $162 -37.499999999999986 $248 12.5 $153 $249 forward 7 unknown #
coedge $-1 $89 $88 $250 $251 reversed $34 $-1 #
coedge $-1 $252 $253 $88 $157 forward $254 $-1 #
edge $-1 $255 0 $161 125 $88 $256 forward 7 unknown #
edge $-1 $257 0 $162 125 $151 $258 forward 7 unknown #
coedge $-1 $90 $259 $252 $260 forward $160 $-1 #
loop $-1 $261 $262 $263 #
vertex $-1 $91 $264 #
vertex $-1 $154 $265 #
ellipse-curve $-1 -7.5051076464660582e-014 -62.5 35.355339059327378 0 1 0 -3.5355339059327471 0 3.5355339059327306 1 I I #
model_id-kcp-attrib $-1 $-1 $-1 $93 1 990548683 50 -1372454911 7 #
face $266 $267 $195 $7 $-1 $268 forward single #
plane-surface $-1 0 0 30 0 0 1 1 0 0 forward_v I I I I #
coedge $-1 $98 $95 $269 $270 forward $55 $-1 #
coedge $-1 $269 $101 $96 $169 reversed $176 $-1 #
edge $-1 $171 -0.78539816339744828 $106 0.78539816339744828 $168 $271 forward 7 unknown #
attrib_edge_convexity-kcp-attrib $-1 $272 $-1 $99 3 #
vertex $-1 $270 $273 #
straight-curve $-1 30 25 -25 0 -1 0 I I #
coedge $-1 $274 $275 $100 $174 reversed $276 $-1 #
edge $277 $178 -50 $182 75 $100 $278 reversed 7 unknown #
coedge $-1 $101 $279 $274 $280 reversed $176 $-1 #
loop $-1 $-1 $203 $281 #
attrib_edge_convexity-kcp-attrib $-1 $282 $-1 $102 1 #
vertex $-1 $102 $283 #
straight-curve $-1 0 -50 -30 -1 0 0 I I #
coedge $-1 $113 $103 $275 $284 reversed $20 $-1 #
attrib_edge_convexity-kcp-attrib $-1 $285 $-1 $104 1 #
vertex $-1 $284 $286 #
straight-curve $-1 0 75 -30 1 0 0 I I #
convexity-sys-attrib $-1 $-1 $105 $61 #
point $-1 25 -50 -30 #
point $-1 25 75 -30 #
attrib_edge_convexity-kcp-attrib $-1 $287 $-1 $109 1 #
ellipse-curve $-1 25 75 -25 0 -1 0 3.53553390593274 0 -3.53553390593274 1 I I #
convexity-sys-attrib $-1 $-1 $110 $64 #
point $-1 30 75 -25 #
coedge $-1 $288 $289 $113 $192 forward $290 $-1 #
edge $291 $197 -25 $292 25 $113 $293 forward 7 unknown #
coedge $-1 $294 $114 $289 $295 forward $195 $-1 #
coedge $-1 $114 $294 $116 $200 forward $195 $-1 #
loop $-1 $-1 $193 $165 #
attrib_edge_convexity-kcp-attrib $-1 $296 $-1 $115 1 #
vertex $-1 $115 $297 #
ellipse-curve $-1 -25 75 25 0 -1 0 -3.53553390593274 0 3.53553390593274 1 I I #
coedge $-1 $117 $116 $298 $299 forward $118 $-1 #
edge $-1 $300 -50 $120 75 $116 $301 forward 7 unknown #
convexity-sys-attrib $-1 $-1 $119 $67 #
point $-1 -25 75 30 #
coedge $-1 $298 $269 $122 $204 reversed $176 $-1 #
edge $-1 $205 -0.78539816339744828 $208 0.78539816339744828 $203 $302 forward 7 unknown #
vertex $-1 $299 $303 #
straight-curve $-1 25 0 30 0 -1 0 I I #
attrib_edge_convexity-kcp-attrib $-1 $304 $-1 $124 3 #
vertex $-1 $124 $305 #
straight-curve $-1 30 25 25 0 1 0 I I #
model_id-kcp-attrib $-1 $-1 $-1 $128 1 990548683 50 -1372454910 2 #
face $-1 $-1 $143 $15 $-1 $306 reversed single #
loop $-1 $-1 $227 $128 #
plane-surface $-1 0 62.5 0 0 -1 0 0 0 -1 forward_v I I I I #
coedge $-1 $307 $225 $228 $308 forward $129 $-1 #
coedge $-1 $231 $131 $132 $219 reversed $77 $-1 #
coedge $-1 $225 $307 $131 $217 reversed $129 $-1 #
edge $-1 $232 -42.426406871192853 $309 42.426406871192853 $216 $310 forward 7 unknown #
coedge $-1 $133 $132 $307 $311 forward $46 $-1 #
edge $-1 $223 -42.426406871192853 $309 42.426406871192853 $215 $312 forward 7 unknown #
coedge $-1 $228 $227 $133 $221 reversed $212 $-1 #
edge $-1 $313 -42.426406871192853 $222 42.426406871192853 $220 $314 forward 7 unknown #
vertex $-1 $135 $315 #
vertex $-1 $234 $316 #
straight-curve $-1 42.426406871192853 0 -42.426406871192853 0 -1 0 I I #
coedge $-1 $214 $216 $136 $226 reversed $129 $-1 #
edge $-1 $229 -62.5 $232 62.5 $225 $317 forward 7 unknown #
coedge $-1 $220 $137 $142 $235 forward $212 $-1 #
coedge $-1 $137 $220 $214 $308 reversed $212 $-1 #
vertex $-1 $138 $318 #
straight-curve $-1 0 62.5 42.426406871192853 -1 0 0 I I #
coedge $-1 $139 $215 $141 $234 reversed $77 $-1 #
vertex $-1 $226 $319 #
straight-curve $-1 0 -62.5 42.426406871192853 1 0 0 I I #
edge $-1 $144 -42.426406871192853 $223 42.426406871192853 $141 $320 forward 7 unknown #
edge $-1 $145 -42.426406871192853 $222 42.426406871192853 $142 $321 forward 7 unknown #
point $-1 42.426406871192853 -62.5 42.426406871192853 #
point $-1 42.426406871192853 62.5 42.426406871192853 #
face $-1 $322 $254 $17 $-1 $323 reversed single #
loop $-1 $-1 $324 $147 #
cone-surface $-1 7.5051076464660582e-014 62.5 -35.355339059327378 0 1 0 3.5355339059327471 0 -3.5355339059327306 1 I I 0 1 5.0000000000000018 forward I I I I #
coedge $-1 $325 $326 $327 $328 reversed $148 $-1 #
coedge $-1 $329 $150 $152 $247 reversed $85 $-1 #
coedge $-1 $150 $329 $325 $330 forward $85 $-1 #
coedge $-1 $327 $153 $150 $245 forward $160 $-1 #
edge $-1 $248 -9.9475983006414055e-016 $331 1.5707963267948974 $244 $332 forward 7 unknown #
coedge $-1 $152 $151 $333 $334 reversed $50 $-1 #
edge $-1 $335 0 $248 125 $242 $336 forward 7 unknown #
vertex $-1 $245 $337 #
straight-curve $-1 30.052038200428235 -62.5 12.374368670764646 0.70710678118654913 0 -0.70710678118654591 I I #
coedge $-1 $338 $333 $155 $251 forward $339 $-1 #
edge $-1 $257 -1.5707963267948974 $255 1.1368683772161607e-015 $250 $340 forward 7 unknown #
coedge $-1 $341 $156 $159 $260 reversed $254 $-1 #
coedge $-1 $156 $341 $338 $342 reversed $254 $-1 #
loop $-1 $-1 $252 $238 #
vertex $-1 $251 $343 #
straight-curve $-1 -3.535533905932823 62.5 38.890872965260101 0 -1 0 I I #
vertex $-1 $334 $344 #
straight-curve $-1 3.5355339059326525 62.5 38.890872965260115 0 -1 0 I I #
coedge $-1 $159 $345 $346 $347 forward $160 $-1 #
edge $-1 $348 -37.499999999999986 $161 12.500000000000002 $159 $349 forward 7 unknown #
loop $-1 $-1 $350 $263 #
coedge $-1 $345 $327 $324 $351 forward $160 $-1 #
face $-1 $352 $160 $17 $-1 $353 reversed single #
point $-1 -3.535533905932823 -62.5 38.890872965260101 #
point $-1 3.5355339059326525 -62.5 38.890872965260115 #
model_id-kcp-attrib $-1 $-1 $-1 $165 1 990548683 50 -1372454911 8 #
face $354 $355 $290 $7 $-1 $356 reversed single #
cone-surface $-1 -25 0 25 0 -1 0 -3.53553390593274 0 3.53553390593274 1 I I 0 1 5.0000000000000036 forward I I I I #
coedge $-1 $203 $168 $167 $270 reversed $176 $-1 #
edge $357 $208 -25 $171 25 $167 $358 forward 7 unknown #
ellipse-curve $-1 25 -50 -25 0 1 0 3.53553390593274 0 -3.53553390593274 1 I I #
convexity-sys-attrib $-1 $-1 $170 $99 #
point $-1 30 -50 -25 #
coedge $-1 $359 $173 $175 $280 forward $276 $-1 #
coedge $-1 $173 $359 $180 $284 forward $276 $-1 #
loop $-1 $-1 $173 $355 #
attrib_edge_convexity-kcp-attrib $-1 $360 $-1 $174 3 #
straight-curve $-1 -25 0 -30 0 -1 0 I I #
coedge $-1 $175 $361 $362 $363 forward $176 $-1 #
edge $-1 $178 -0.78539816339744828 $364 0.78539816339744828 $175 $365 forward 7 unknown #
face $366 $-1 $176 $7 $-1 $367 reversed single #
convexity-sys-attrib $-1 $-1 $177 $102 #
point $-1 -25 -50 -30 #
edge $368 $292 -0.78539816339744828 $182 0.78539816339744828 $180 $369 forward 7 unknown #
convexity-sys-attrib $-1 $-1 $181 $104 #
point $-1 -25 75 -30 #
convexity-sys-attrib $-1 $-1 $187 $109 #
coedge $-1 $362 $191 $359 $370 reversed $290 $-1 #
coedge $-1 $191 $362 $193 $295 reversed $290 $-1 #
loop $-1 $-1 $288 $267 #
attrib_edge_convexity-kcp-attrib $-1 $371 $-1 $192 1 #
vertex $-1 $192 $372 #
straight-curve $-1 -30 75 0 0 0 -1 I I #
coedge $-1 $194 $193 $361 $373 forward $195 $-1 #
edge $-1 $197 -75 $374 50 $289 $375 forward 7 unknown #
convexity-sys-attrib $-1 $-1 $196 $115 #
point $-1 -30 75 25 #
coedge $-1 $361 $203 $199 $299 reversed $176 $-1 #
edge $-1 $300 -25 $205 25 $298 $376 forward 7 unknown #
vertex $-1 $200 $377 #
straight-curve $-1 -25 0 30 0 1 0 I I #
ellipse-curve $-1 25 -50 25 0 1 0 3.53553390593274 0 3.53553390593274 1 I I #
point $-1 25 -50 30 #
convexity-sys-attrib $-1 $-1 $207 $124 #
point $-1 30 -50 25 #
plane-surface $-1 42.426406871192853 0 0 -1 0 0 0 0 1 forward_v I I I I #
coedge $-1 $216 $214 $218 $311 reversed $129 $-1 #
edge $-1 $229 -42.426406871192853 $313 42.426406871192853 $228 $378 forward 7 unknown #
vertex $-1 $311 $379 #
straight-curve $-1 -42.426406871192853 -62.5 0 0 0 -1 I I #
edge $-1 $309 -62.5 $313 62.5 $307 $380 forward 7 unknown #
straight-curve $-1 0 -62.5 -42.426406871192853 -1 0 0 I I #
vertex $-1 $221 $381 #
straight-curve $-1 0 62.5 -42.426406871192853 1 0 0 I I #
point $-1 42.426406871192853 62.5 -42.426406871192853 #
point $-1 42.426406871192853 -62.5 -42.426406871192853 #
straight-curve $-1 -42.426406871192853 0 42.426406871192853 0 -1 0 I I #
point $-1 -42.426406871192853 62.5 42.426406871192853 #
point $-1 -42.426406871192853 -62.5 42.426406871192853 #
straight-curve $-1 42.426406871192853 -62.5 0 0 0 -1 I I #
straight-curve $-1 42.426406871192853 62.5 0 0 0 -1 I I #
face $-1 $382 $383 $17 $-1 $384 reversed single #
plane-surface $-1 -3.535533905932823 62.5 38.890872965260101 -0.70710678118654913 0 0.70710678118654591 0 -1 0 forward_v I I I I #
coedge $-1 $385 $386 $262 $351 reversed $239 $-1 #
coedge $-1 $387 $241 $243 $330 reversed $148 $-1 #
coedge $-1 $241 $387 $385 $388 forward $148 $-1 #
coedge $-1 $262 $244 $241 $328 forward $160 $-1 #
edge $-1 $331 -37.5 $389 12.500000000000004 $327 $390 forward 7 unknown #
coedge $-1 $243 $242 $391 $392 reversed $85 $-1 #
edge $-1 $393 0 $331 125 $325 $394 forward 7 unknown #
vertex $-1 $328 $395 #
ellipse-curve $-1 35.355339059327378 -62.5 7.5051076464660582e-014 0 1 0 3.5355339059327306 0 3.5355339059327471 1 I I #
coedge $-1 $250 $391 $246 $334 forward $339 $-1 #
edge $-1 $335 -12.5 $257 37.499999999999986 $333 $396 forward 7 unknown #
vertex $-1 $392 $397 #
straight-curve $-1 38.890872965260101 62.5 3.5355339059328221 0 -1 0 I I #
point $-1 38.890872965260101 -62.5 3.5355339059328221 #
coedge $-1 $398 $250 $253 $342 forward $339 $-1 #
loop $-1 $399 $400 $401 #
ellipse-curve $-1 -7.5051076464660582e-014 62.5 35.355339059327378 0 -1 0 -3.5355339059327471 0 3.5355339059327306 1 I I #
coedge $-1 $253 $252 $402 $403 reversed $254 $-1 #
edge $-1 $255 -12.500000000000002 $404 37.499999999999986 $338 $405 forward 7 unknown #
point $-1 -3.535533905932823 62.5 38.890872965260101 #
point $-1 3.5355339059326525 62.5 38.890872965260115 #
coedge $-1 $259 $262 $406 $407 forward $160 $-1 #
coedge $-1 $408 $402 $259 $347 reversed $383 $-1 #
edge $-1 $409 -6.3948846218409064e-016 $348 1.5707963267948974 $259 $410 forward 7 unknown #
vertex $-1 $260 $411 #
straight-curve $-1 -12.374368670764648 -62.5 30.052038200428235 0.70710678118654591 0 0.70710678118654913 I I #
coedge $-1 $412 $413 $414 $415 forward $261 $-1 #
edge $-1 $389 8.5265128291211881e-016 $416 1.5707963267948974 $262 $417 forward 7 unknown #
face $-1 $401 $418 $17 $-1 $419 reversed single #
plane-surface $-1 0 -62.5 0 0 1 0 0 0 1 forward_v I I I I #
model_id-kcp-attrib $-1 $-1 $-1 $267 1 990548683 50 -1372454911 9 #
face $420 $281 $276 $7 $-1 $421 forward single #
plane-surface $-1 -30 0 0 1 0 0 0 0 -1 forward_v I I I I #
attrib_edge_convexity-kcp-attrib $-1 $422 $-1 $270 1 #
straight-curve $-1 30 -50 0 0 0 -1 I I #
coedge $-1 $275 $274 $288 $370 forward $276 $-1 #
convexity-sys-attrib $-1 $-1 $277 $174 #
coedge $-1 $279 $298 $294 $373 reversed $176 $-1 #
coedge $-1 $289 $288 $279 $363 reversed $290 $-1 #
edge $-1 $374 -25 $364 25 $362 $423 forward 7 unknown #
vertex $-1 $363 $424 #
ellipse-curve $-1 -25 -50 -25 0 1 0 -3.53553390593274 0 -3.53553390593274 1 I I #
model_id-kcp-attrib $-1 $-1 $-1 $281 1 990548683 50 -1372454911 11 #
plane-surface $-1 0 -50 0 0 1 0 0 0 1 forward_v I I I I #
attrib_edge_convexity-kcp-attrib $-1 $425 $-1 $284 1 #
ellipse-curve $-1 -25 75 -25 0 -1 0 -3.53553390593274 0 -3.53553390593274 1 I I #
edge $-1 $364 -50 $292 75 $288 $426 forward 7 unknown #
convexity-sys-attrib $-1 $-1 $291 $192 #
point $-1 -30 75 -25 #
edge $-1 $374 -0.78539816339744828 $300 0.78539816339744828 $361 $427 forward 7 unknown #
vertex $-1 $295 $428 #
straight-curve $-1 -30 0 25 0 -1 0 I I #
straight-curve $-1 0 -50 30 1 0 0 I I #
point $-1 -25 -50 30 #
straight-curve $-1 -42.426406871192853 62.5 0 0 0 -1 I I #
point $-1 -42.426406871192853 -62.5 -42.426406871192853 #
straight-curve $-1 -42.426406871192853 0 -42.426406871192853 0 1 0 I I #
point $-1 -42.426406871192853 62.5 -42.426406871192853 #
face $-1 $429 $430 $17 $-1 $431 reversed single #
loop $-1 $-1 $346 $322 #
cone-surface $-1 -35.355339059327378 62.5 -7.5051076464660582e-014 0 1 0 -3.5355339059327306 0 -3.5355339059327471 1 I I 0 1 5.0000000000000018 forward I I I I #
coedge $-1 $432 $324 $326 $388 reversed $239 $-1 #
coedge $-1 $324 $432 $433 $434 forward $239 $-1 #
coedge $-1 $326 $325 $435 $436 reversed $148 $-1 #
edge $-1 $437 0 $389 125 $385 $438 forward 7 unknown #
vertex $-1 $351 $439 #
straight-curve $-1 12.374368670764651 -62.5 -30.05203820042825 -0.70710678118654591 0 -0.70710678118654913 I I #
coedge $-1 $333 $435 $329 $392 forward $339 $-1 #
edge $-1 $393 -1.5707963267948974 $335 9.9475983006414055e-016 $391 $440 forward 7 unknown #
vertex $-1 $436 $441 #
straight-curve $-1 38.890872965260115 62.5 -3.5355339059326525 0 -1 0 I I #
point $-1 38.890872965260115 -62.5 -3.5355339059326525 #
straight-curve $-1 30.052038200428235 62.5 12.374368670764646 -0.70710678118654913 0 0.70710678118654591 I I #
point $-1 38.890872965260101 62.5 3.5355339059328221 #
coedge $-1 $442 $338 $443 $444 forward $339 $-1 #
loop $-1 $-1 $445 $401 #
coedge $-1 $435 $442 $432 $446 forward $339 $-1 #
face $-1 $447 $339 $17 $-1 $448 reversed single #
coedge $-1 $346 $443 $341 $403 forward $383 $-1 #
edge $-1 $404 0 $348 125 $341 $449 forward 7 unknown #
vertex $-1 $342 $450 #
straight-curve $-1 -12.374368670764648 62.5 30.052038200428235 -0.70710678118654591 0 -0.70710678118654913 I I #
coedge $-1 $433 $451 $345 $407 reversed $430 $-1 #
edge $-1 $416 -37.499999999999986 $409 12.500000000000002 $345 $452 forward 7 unknown #
coedge $-1 $443 $346 $451 $453 forward $383 $-1 #
vertex $-1 $347 $454 #
ellipse-curve $-1 -35.355339059327378 -62.5 -7.5051076464660582e-014 0 1 0 -3.5355339059327306 0 -3.5355339059327471 1 I I #
point $-1 -38.890872965260115 -62.5 3.5355339059326525 #
coedge $-1 $455 $350 $456 $457 reversed $261 $-1 #
coedge $-1 $350 $455 $458 $459 reversed $261 $-1 #
coedge $-1 $460 $461 $350 $415 reversed $418 $-1 #
edge $-1 $462 -42.426406871192853 $463 42.426406871192853 $414 $464 forward 7 unknown #
vertex $-1 $351 $465 #
ellipse-curve $-1 7.5051076464660582e-014 -62.5 -35.355339059327378 0 1 0 3.5355339059327471 0 -3.5355339059327306 1 I I #
loop $-1 $-1 $466 $352 #
plane-surface $-1 -42.426406871192853 0 0 1 0 0 0 0 -1 forward_v I I I I #
model_id-kcp-attrib $-1 $-1 $-1 $355 1 990548683 50 -1372454911 10 #
cone-surface $-1 -25 0 -25 0 1 0 -3.53553390593274 0 -3.53553390593274 1 I I 0 1 5.0000000000000036 forward I I I I #
convexity-sys-attrib $-1 $-1 $357 $270 #
straight-curve $-1 -30 -50 0 0 0 -1 I I #
point $-1 -30 -50 -25 #
convexity-sys-attrib $-1 $-1 $368 $284 #
straight-curve $-1 -30 0 -25 0 1 0 I I #
ellipse-curve $-1 -25 -50 25 0 1 0 -3.53553390593274 0 3.53553390593274 1 I I #
point $-1 -30 -50 25 #
face $-1 $467 $468 $17 $-1 $469 forward single #
loop $-1 $-1 $406 $382 #
plane-surface $-1 -38.890872965260101 62.5 -3.5355339059328195 -0.70710678118654591 0 -0.70710678118654913 0 -1 0 forward_v I I I I #
coedge $-1 $386 $385 $400 $446 reversed $239 $-1 #
coedge $-1 $470 $406 $386 $434 reversed $430 $-1 #
edge $-1 $471 0 $416 125 $433 $472 forward 7 unknown #
coedge $-1 $391 $400 $387 $436 forward $339 $-1 #
edge $-1 $437 -12.500000000000004 $393 37.5 $435 $473 forward 7 unknown #
vertex $-1 $446 $474 #
straight-curve $-1 3.535533905932823 62.5 -38.890872965260115 0 -1 0 I I #
point $-1 3.535533905932823 -62.5 -38.890872965260115 #
ellipse-curve $-1 35.355339059327378 62.5 7.5051076464660582e-014 0 -1 0 3.5355339059327306 0 3.5355339059327471 1 I I #
point $-1 38.890872965260115 62.5 -3.5355339059326525 #
coedge $-1 $400 $398 $470 $475 forward $339 $-1 #
coedge $-1 $402 $408 $398 $444 reversed $383 $-1 #
edge $-1 $404 -1.5707963267948974 $476 6.3948846218409064e-016 $398 $477 forward 7 unknown #
coedge $-1 $478 $479 $480 $481 forward $399 $-1 #
edge $-1 $471 -1.5707963267948974 $437 -8.5265128291211881e-016 $400 $482 forward 7 unknown #
face $-1 $-1 $483 $17 $-1 $484 reversed single #
plane-surface $-1 0 62.5 0 0 -1 0 0 0 -1 forward_v I I I I #
straight-curve $-1 -38.890872965260115 62.5 3.5355339059326525 0 -1 0 I I #
point $-1 -38.890872965260115 62.5 3.5355339059326525 #
coedge $-1 $406 $470 $408 $453 reversed $430 $-1 #
straight-curve $-1 -30.052038200428235 -62.5 -12.374368670764644 -0.70710678118654913 0 0.70710678118654591 I I #
edge $-1 $409 -125 $476 0 $451 $485 forward 7 unknown #
point $-1 -38.890872965260101 -62.5 -3.5355339059328195 #
coedge $-1 $413 $412 $486 $487 reversed $261 $-1 #
coedge $-1 $488 $489 $412 $457 forward $490 $-1 #
edge $-1 $491 -42.426406871192853 $463 42.426406871192853 $412 $492 forward 7 unknown #
coedge $-1 $493 $494 $413 $459 forward $468 $-1 #
edge $-1 $462 -42.426406871192853 $495 42.426406871192853 $413 $496 forward 7 unknown #
coedge $-1 $466 $414 $494 $497 reversed $418 $-1 #
coedge $-1 $414 $466 $488 $498 reversed $418 $-1 #
vertex $-1 $497 $499 #
vertex $-1 $498 $500 #
straight-curve $-1 -42.426406871192853 -62.5 0 0 0 -1 I I #
point $-1 -3.5355339059326525 -62.5 -38.890872965260115 #
coedge $-1 $461 $460 $501 $502 forward $418 $-1 #
face $-1 $263 $490 $17 $-1 $503 reversed single #
loop $-1 $-1 $493 $429 #
plane-surface $-1 0 0 42.426406871192853 0 0 1 1 0 0 forward_v I I I I #
coedge $-1 $451 $433 $442 $475 reversed $430 $-1 #
vertex $-1 $446 $504 #
straight-curve $-1 -3.5355339059326525 62.5 -38.890872965260115 0 -1 0 I I #
straight-curve $-1 12.374368670764651 62.5 -30.05203820042825 0.70710678118654591 0 0.70710678118654913 I I #
point $-1 3.535533905932823 62.5 -38.890872965260115 #
edge $-1 $476 -12.500000000000002 $471 37.499999999999986 $442 $505 forward 7 unknown #
vertex $-1 $444 $506 #
ellipse-curve $-1 -35.355339059327378 62.5 -7.5051076464660582e-014 0 -1 0 -3.5355339059327306 0 -3.5355339059327471 1 I I #
coedge $-1 $501 $445 $507 $508 reversed $399 $-1 #
coedge $-1 $445 $501 $509 $510 reversed $399 $-1 #
coedge $-1 $511 $512 $445 $481 reversed $483 $-1 #
edge $-1 $513 -42.426406871192853 $514 42.426406871192853 $480 $515 forward 7 unknown #
ellipse-curve $-1 7.5051076464660582e-014 62.5 -35.355339059327378 0 -1 0 3.5355339059327471 0 -3.5355339059327306 1 I I #
loop $-1 $-1 $486 $447 #
plane-surface $-1 42.426406871192853 0 0 -1 0 0 0 0 1 forward_v I I I I #
straight-curve $-1 -38.890872965260101 62.5 -3.5355339059328195 0 1 0 I I #
coedge $-1 $512 $511 $455 $487 forward $483 $-1 #
edge $-1 $495 -42.426406871192853 $491 42.426406871192853 $486 $516 forward 7 unknown #
coedge $-1 $507 $456 $461 $498 forward $490 $-1 #
coedge $-1 $456 $507 $512 $517 forward $490 $-1 #
loop $-1 $-1 $489 $467 #
vertex $-1 $487 $518 #
straight-curve $-1 0 -62.5 -42.426406871192853 -1 0 0 I I #
coedge $-1 $509 $458 $511 $519 forward $468 $-1 #
coedge $-1 $458 $509 $460 $497 forward $468 $-1 #
vertex $-1 $519 $520 #
straight-curve $-1 0 -62.5 42.426406871192853 1 0 0 I I #
edge $-1 $521 -62.5 $462 62.5 $460 $522 forward 7 unknown #
edge $-1 $463 -62.5 $523 62.5 $461 $524 forward 7 unknown #
point $-1 -42.426406871192853 -62.5 42.426406871192853 #
point $-1 -42.426406871192853 -62.5 -42.426406871192853 #
coedge $-1 $479 $478 $466 $502 reversed $399 $-1 #
edge $-1 $521 -42.426406871192853 $523 42.426406871192853 $501 $525 forward 7 unknown #
plane-surface $-1 0 0 -42.426406871192853 0 0 1 1 0 0 forward_v I I I I #
point $-1 -3.5355339059326525 62.5 -38.890872965260115 #
straight-curve $-1 -30.052038200428235 62.5 -12.374368670764644 0.70710678118654913 0 -0.70710678118654591 I I #
point $-1 -38.890872965260101 62.5 -3.5355339059328195 #
coedge $-1 $489 $488 $478 $508 forward $490 $-1 #
edge $-1 $523 -42.426406871192853 $514 42.426406871192853 $478 $526 forward 7 unknown #
coedge $-1 $494 $493 $479 $510 forward $468 $-1 #
edge $-1 $513 -42.426406871192853 $521 42.426406871192853 $479 $527 forward 7 unknown #
coedge $-1 $486 $480 $493 $519 reversed $483 $-1 #
coedge $-1 $480 $486 $489 $517 reversed $483 $-1 #
vertex $-1 $519 $528 #
vertex $-1 $517 $529 #
straight-curve $-1 42.426406871192853 62.5 0 0 0 -1 I I #
straight-curve $-1 42.426406871192853 -62.5 0 0 0 -1 I I #
edge $-1 $514 -62.5 $491 62.5 $512 $530 forward 7 unknown #
point $-1 42.426406871192853 -62.5 -42.426406871192853 #
edge $-1 $495 -62.5 $513 62.5 $511 $531 forward 7 unknown #
point $-1 42.426406871192853 -62.5 42.426406871192853 #
vertex $-1 $510 $532 #
straight-curve $-1 -42.426406871192853 0 42.426406871192853 0 -1 0 I I #
vertex $-1 $508 $533 #
straight-curve $-1 -42.426406871192853 0 -42.426406871192853 0 1 0 I I #
straight-curve $-1 -42.426406871192853 62.5 0 0 0 -1 I I #
straight-curve $-1 0 62.5 -42.426406871192853 1 0 0 I I #
straight-curve $-1 0 62.5 42.426406871192853 -1 0 0 I I #
point $-1 42.426406871192853 62.5 42.426406871192853 #
point $-1 42.426406871192853 62.5 -42.426406871192853 #
straight-curve $-1 42.426406871192853 0 -42.426406871192853 0 -1 0 I I #
straight-curve $-1 42.426406871192853 0 42.426406871192853 0 1 0 I I #
point $-1 -42.426406871192853 62.5 42.426406871192853 #
point $-1 -42.426406871192853 62.5 -42.426406871192853 #
End-of-ACIS-data 