105 162 1 0                             
body $-1 $1 $-1 $2 #
lump $-1 $-1 $3 $0 #
transform $-1 0.707106781186546 0 0.707106781186549 0 1 0 -0.707106781186549 0 0.707106781186546 0 -25 0 1 1 0 0 #
shell $-1 $-1 $-1 $4 $1 #
face $-1 $5 $6 $3 $-1 $7 reversed single #
face $-1 $8 $9 $3 $-1 $10 reversed single #
loop $-1 $-1 $11 $4 #
plane-surface $-1 0 75 0 0 -1 0 0 0 -1 0 #
face $-1 $12 $13 $3 $-1 $14 forward single #
loop $-1 $-1 $15 $5 #
plane-surface $-1 0 0 -30 0 0 1 1 0 0 0 #
coedge $-1 $16 $17 $18 $19 1 $6 $-1 #
face $-1 $20 $21 $3 $-1 $22 reversed single #
loop $-1 $-1 $23 $8 #
cone-surface $-1 25 0 -25 0 -1 0 3.53553390593274 0 -3.53553390593274 1 0 1 0 #
coedge $-1 $24 $25 $26 $27 1 $9 $-1 #
coedge $-1 $28 $11 $29 $30 0 $6 $-1 #
coedge $-1 $11 $31 $32 $33 1 $6 $-1 #
coedge $-1 $34 $35 $11 $19 0 $36 $-1 #
edge $-1 $37 $38 $11 $39 0 #
face $-1 $40 $36 $3 $-1 $41 forward single #
loop $-1 $-1 $42 $12 #
plane-surface $-1 30 0 0 -1 0 0 0 -0 1 0 #
coedge $-1 $43 $44 $45 $46 0 $13 $-1 #
coedge $-1 $47 $15 $48 $49 0 $9 $-1 #
coedge $-1 $15 $47 $50 $51 0 $9 $-1 #
coedge $-1 $44 $43 $15 $27 0 $13 $-1 #
edge $-1 $52 $53 $15 $54 0 #
coedge $-1 $50 $16 $44 $55 1 $6 $-1 #
coedge $-1 $42 $45 $16 $30 1 $21 $-1 #
edge $-1 $37 $56 $29 $57 0 #
coedge $-1 $17 $58 $59 $60 1 $6 $-1 #
coedge $-1 $61 $62 $17 $33 0 $63 $-1 #
edge $-1 $38 $64 $17 $65 0 #
coedge $-1 $66 $18 $62 $67 1 $36 $-1 #
coedge $-1 $18 $66 $42 $68 0 $36 $-1 #
loop $-1 $-1 $34 $20 #
vertex $-1 $19 $69 #
vertex $-1 $19 $70 #
ellipse-curve $-1 25 75 25 0 -1 0 3.53553390593274 0 3.53553390593274 1 #
face $-1 $71 $63 $3 $-1 $72 forward single #
cone-surface $-1 25 0 25 0 1 0 3.53553390593274 0 3.53553390593274 1 0 1 0 #
coedge $-1 $73 $29 $35 $68 1 $21 $-1 #
coedge $-1 $26 $23 $74 $75 0 $13 $-1 #
coedge $-1 $23 $26 $28 $55 0 $13 $-1 #
coedge $-1 $29 $73 $23 $46 1 $21 $-1 #
edge $-1 $56 $76 $45 $77 0 #
coedge $-1 $25 $24 $78 $79 0 $9 $-1 #
coedge $-1 $74 $80 $24 $49 1 $81 $-1 #
edge $-1 $52 $82 $48 $83 0 #
coedge $-1 $84 $28 $25 $51 1 $6 $-1 #
edge $-1 $85 $53 $50 $86 0 #
vertex $-1 $27 $87 #
vertex $-1 $51 $88 #
straight-curve $-1 25 0 -30 0 1 0 #
edge $-1 $53 $56 $28 $89 0 #
vertex $-1 $30 $90 #
straight-curve $-1 30 75 0 0 0 -1 #
coedge $-1 $31 $84 $91 $92 1 $6 $-1 #
coedge $-1 $93 $94 $31 $60 0 $95 $-1 #
edge $-1 $64 $96 $31 $97 0 #
coedge $-1 $98 $32 $94 $99 1 $63 $-1 #
coedge $-1 $32 $98 $34 $67 0 $63 $-1 #
loop $-1 $-1 $61 $40 #
vertex $-1 $33 $100 #
straight-curve $-1 0 75 30 -1 0 0 #
coedge $-1 $35 $34 $101 $102 0 $36 $-1 #
edge $-1 $103 $38 $62 $104 1 #
edge $-1 $105 $37 $42 $106 0 #
point $-1 30 75 25 #
point $-1 25 75 30 #
face $-1 $107 $95 $3 $-1 $108 forward single #
plane-surface $-1 0 0 30 0 0 1 1 0 0 0 #
coedge $-1 $45 $42 $109 $110 0 $21 $-1 #
coedge $-1 $109 $48 $43 $75 1 $81 $-1 #
edge $-1 $76 $52 $74 $111 0 #
vertex $-1 $110 $112 #
straight-curve $-1 30 25 -25 0 -1 0 #
coedge $-1 $113 $114 $47 $79 1 $115 $-1 #
edge $-1 $82 $85 $47 $116 1 #
coedge $-1 $48 $117 $113 $118 1 $81 $-1 #
loop $-1 $-1 $101 $119 #
vertex $-1 $49 $120 #
straight-curve $-1 0 -50 -30 -1 0 0 #
coedge $-1 $58 $50 $114 $121 1 $6 $-1 #
vertex $-1 $121 $122 #
straight-curve $-1 0 75 -30 1 0 0 #
point $-1 25 -50 -30 #
point $-1 25 75 -30 #
ellipse-curve $-1 25 75 -25 0 -1 0 3.53553390593274 0 -3.53553390593274 1 #
point $-1 30 75 -25 #
coedge $-1 $123 $124 $58 $92 0 $125 $-1 #
edge $-1 $96 $126 $58 $127 0 #
coedge $-1 $128 $59 $124 $129 0 $95 $-1 #
coedge $-1 $59 $128 $61 $99 0 $95 $-1 #
loop $-1 $-1 $93 $71 #
vertex $-1 $60 $130 #
ellipse-curve $-1 -25 75 25 0 -1 0 -3.53553390593274 0 3.53553390593274 1 #
coedge $-1 $62 $61 $131 $132 0 $63 $-1 #
edge $-1 $133 $64 $61 $134 0 #
point $-1 -25 75 30 #
coedge $-1 $131 $109 $66 $102 1 $81 $-1 #
edge $-1 $103 $105 $101 $135 0 #
vertex $-1 $132 $136 #
straight-curve $-1 25 0 30 -0 -1 -0 #
vertex $-1 $68 $137 #
straight-curve $-1 30 25 25 0 1 0 #
face $-1 $138 $125 $3 $-1 $139 reversed single #
cone-surface $-1 -25 0 25 0 -1 0 -3.53553390593274 0 3.53553390593274 1 0 1 0 #
coedge $-1 $101 $74 $73 $110 1 $81 $-1 #
edge $-1 $105 $76 $73 $140 0 #
ellipse-curve $-1 25 -50 -25 0 1 -0 3.53553390593274 0 -3.53553390593274 1 #
point $-1 30 -50 -25 #
coedge $-1 $141 $78 $80 $118 0 $115 $-1 #
coedge $-1 $78 $141 $84 $121 0 $115 $-1 #
loop $-1 $-1 $78 $138 #
straight-curve $-1 -25 0 -30 -0 -1 -0 #
coedge $-1 $80 $142 $143 $144 0 $81 $-1 #
edge $-1 $82 $145 $80 $146 0 #
face $-1 $-1 $81 $3 $-1 $147 reversed single #
point $-1 -25 -50 -30 #
edge $-1 $126 $85 $84 $148 0 #
point $-1 -25 75 -30 #
coedge $-1 $143 $91 $141 $149 1 $125 $-1 #
coedge $-1 $91 $143 $93 $129 1 $125 $-1 #
loop $-1 $-1 $123 $107 #
vertex $-1 $92 $150 #
straight-curve $-1 -30 75 0 0 0 -1 #
coedge $-1 $94 $93 $142 $151 0 $95 $-1 #
edge $-1 $96 $152 $124 $153 0 #
point $-1 -30 75 25 #
coedge $-1 $142 $101 $98 $132 1 $81 $-1 #
edge $-1 $133 $103 $131 $154 0 #
vertex $-1 $99 $155 #
straight-curve $-1 -25 0 30 0 1 0 #
ellipse-curve $-1 25 -50 25 0 1 -0 3.53553390593274 0 3.53553390593274 1 #
point $-1 25 -50 30 #
point $-1 30 -50 25 #
face $-1 $119 $115 $3 $-1 $156 forward single #
plane-surface $-1 -30 0 0 1 0 0 0 0 -1 0 #
straight-curve $-1 30 -50 0 0 0 -1 #
coedge $-1 $114 $113 $123 $149 0 $115 $-1 #
coedge $-1 $117 $131 $128 $151 1 $81 $-1 #
coedge $-1 $124 $123 $117 $144 1 $125 $-1 #
edge $-1 $152 $145 $143 $157 0 #
vertex $-1 $144 $158 #
ellipse-curve $-1 -25 -50 -25 0 1 -0 -3.53553390593274 0 -3.53553390593274 1 #
plane-surface $-1 0 -50 0 0 1 -0 -0 0 1 0 #
ellipse-curve $-1 -25 75 -25 0 -1 0 -3.53553390593274 0 -3.53553390593274 1 #
edge $-1 $145 $126 $123 $159 0 #
point $-1 -30 75 -25 #
edge $-1 $152 $133 $142 $160 0 #
vertex $-1 $129 $161 #
straight-curve $-1 -30 0 25 0 -1 0 #
straight-curve $-1 0 -50 30 1 0 0 #
point $-1 -25 -50 30 #
cone-surface $-1 -25 0 -25 0 1 0 -3.53553390593274 0 -3.53553390593274 1 0 1 0 #
straight-curve $-1 -30 -50 0 0 0 -1 #
point $-1 -30 -50 -25 #
straight-curve $-1 -30 0 -25 0 1 0 #
ellipse-curve $-1 -25 -50 25 0 1 -0 -3.53553390593274 0 3.53553390593274 1 #
point $-1 -30 -50 25 #
