600 0 1 0           
95 GICL ACIS Healer - Source: /gicl/data5/repository/UMD/tmp/funky_pocket2/funky_pocket2.sat - 6 0 18 ACIS 6.0.3 Solaris 24 Sun Apr 14 00:34:04 2002 
1 9.999999999999999547e-07 1.000000000000000036e-10 
body $-1 $1 $-1 $-1 #
lump $-1 $-1 $2 $0 #
shell $-1 $-1 $-1 $3 $-1 $1 #
face $-1 $4 $5 $2 $-1 $6 reversed single #
face $-1 $7 $8 $2 $-1 $9 reversed single #
loop $-1 $-1 $10 $3 #
plane-surface $-1 0 50 0 0 -1 0 0.707106781186549016 0 -0.7071067811865460184 forward_v I I I I #
face $-1 $11 $12 $2 $-1 $13 forward single #
loop $-1 $-1 $14 $4 #
plane-surface $-1 21.21320343559646915 -25 -21.21320343559638033 -0.707106781186549016 0 0.7071067811865460184 0.7071067811865460184 0 0.707106781186549016 forward_v I I I I #
coedge $-1 $15 $16 $17 $18 reversed $5 $-1 #
face $-1 $19 $20 $2 $-1 $21 reversed single #
loop $-1 $-1 $22 $7 #
cone-surface $-1 35.35533905932737753 -25 7.460698725481051952e-14 0 -1 0 5.000000000000003553 0 1.065814103640150279e-14 1 I I 0 1 5.000000000000003553 forward I I I I #
coedge $-1 $23 $24 $25 $26 reversed $8 $-1 #
coedge $-1 $27 $10 $28 $29 forward $5 $-1 #
coedge $-1 $10 $30 $31 $32 reversed $5 $-1 #
coedge $-1 $33 $34 $10 $18 forward $35 $-1 #
edge $-1 $36 -0.7853981633974495002 $37 0.7853981633974490562 $10 $38 forward 7 unknown #
face $-1 $39 $35 $2 $-1 $40 forward single #
loop $-1 $-1 $41 $11 #
plane-surface $-1 21.21320343559638033 -25 21.21320343559646915 -0.7071067811865460184 0 -0.707106781186549016 -0.707106781186549016 0 0.7071067811865460184 forward_v I I I I #
coedge $-1 $42 $43 $44 $45 forward $12 $-1 #
coedge $-1 $46 $14 $47 $48 forward $8 $-1 #
coedge $-1 $14 $46 $49 $50 forward $8 $-1 #
coedge $-1 $43 $42 $14 $26 forward $12 $-1 #
edge $-1 $51 -50 $52 75 $14 $53 forward 7 unknown #
coedge $-1 $49 $15 $43 $54 reversed $5 $-1 #
coedge $-1 $41 $44 $15 $29 reversed $20 $-1 #
edge $-1 $36 -24.99999999999999289 $55 24.99999999999999645 $28 $56 forward 7 unknown #
coedge $-1 $16 $57 $58 $59 reversed $5 $-1 #
coedge $-1 $60 $61 $16 $32 forward $62 $-1 #
edge $-1 $37 -24.99999999999999645 $63 24.99999999999999289 $16 $64 forward 7 unknown #
coedge $-1 $65 $17 $61 $66 reversed $35 $-1 #
coedge $-1 $17 $65 $41 $67 forward $35 $-1 #
loop $-1 $-1 $33 $19 #
vertex $-1 $18 $68 #
vertex $-1 $18 $69 #
ellipse-curve $-1 -7.460698725481051952e-14 50 35.35533905932737753 0 -1 0 -1.065814103640150279e-14 0 5.000000000000003553 1 I I #
face $-1 $70 $62 $2 $-1 $71 forward single #
cone-surface $-1 -7.460698725481051952e-14 -25 35.35533905932737753 0 1 0 -1.065814103640150279e-14 0 5.000000000000003553 1 I I 0 1 5.000000000000003553 forward I I I I #
coedge $-1 $72 $28 $34 $67 reversed $20 $-1 #
coedge $-1 $25 $22 $73 $74 forward $12 $-1 #
coedge $-1 $22 $25 $27 $54 forward $12 $-1 #
coedge $-1 $28 $72 $22 $45 reversed $20 $-1 #
edge $-1 $55 -50 $75 75 $44 $76 forward 7 unknown #
coedge $-1 $24 $23 $77 $78 forward $8 $-1 #
coedge $-1 $73 $79 $23 $48 reversed $80 $-1 #
edge $-1 $51 -24.99999999999999289 $81 24.99999999999999645 $47 $82 forward 7 unknown #
coedge $-1 $83 $27 $24 $50 reversed $5 $-1 #
edge $-1 $84 -24.99999999999999645 $52 24.99999999999999289 $49 $85 forward 7 unknown #
vertex $-1 $26 $86 #
vertex $-1 $50 $87 #
straight-curve $-1 38.89087296526011528 -25 -3.53553390593265604 0 1 0 I I #
edge $-1 $52 -0.7853981633974495002 $55 0.7853981633974490562 $27 $88 forward 7 unknown #
vertex $-1 $29 $89 #
straight-curve $-1 21.21320343559638033 50 21.21320343559646915 0.707106781186549016 0 -0.7071067811865460184 I I #
coedge $-1 $30 $83 $90 $91 reversed $5 $-1 #
coedge $-1 $92 $93 $30 $59 forward $94 $-1 #
edge $-1 $63 -0.7853981633974495002 $95 0.7853981633974490562 $30 $96 forward 7 unknown #
coedge $-1 $97 $31 $93 $98 reversed $62 $-1 #
coedge $-1 $31 $97 $33 $66 forward $62 $-1 #
loop $-1 $-1 $60 $39 #
vertex $-1 $32 $99 #
straight-curve $-1 -21.21320343559646915 50 21.21320343559638033 -0.7071067811865460184 0 -0.707106781186549016 I I #
coedge $-1 $34 $33 $100 $101 forward $35 $-1 #
edge $-1 $102 -50 $37 75 $61 $103 reversed 7 unknown #
edge $-1 $104 -75 $36 50 $41 $105 forward 7 unknown #
point $-1 3.53553390593265604 50 38.89087296526011528 #
point $-1 -3.535533905932819465 50 38.89087296526010107 #
face $-1 $106 $94 $2 $-1 $107 forward single #
plane-surface $-1 -21.21320343559646915 -25 21.21320343559638033 -0.707106781186549016 0 0.7071067811865460184 0.7071067811865460184 0 0.707106781186549016 forward_v I I I I #
coedge $-1 $44 $41 $108 $109 forward $20 $-1 #
coedge $-1 $108 $47 $42 $74 reversed $80 $-1 #
edge $-1 $75 -0.7853981633974490562 $51 0.7853981633974495002 $73 $110 forward 7 unknown #
vertex $-1 $109 $111 #
straight-curve $-1 38.89087296526010107 0 3.535533905932819465 0 -1 0 I I #
coedge $-1 $112 $113 $46 $78 reversed $114 $-1 #
edge $-1 $81 -50 $84 75 $46 $115 reversed 7 unknown #
coedge $-1 $47 $116 $112 $117 reversed $80 $-1 #
loop $-1 $-1 $100 $118 #
vertex $-1 $48 $119 #
straight-curve $-1 21.21320343559646915 -75 -21.21320343559638033 -0.7071067811865460184 0 -0.707106781186549016 I I #
coedge $-1 $57 $49 $113 $120 reversed $5 $-1 #
vertex $-1 $120 $121 #
straight-curve $-1 21.21320343559646915 50 -21.21320343559638033 0.7071067811865460184 0 0.707106781186549016 I I #
point $-1 38.89087296526011528 -75 -3.53553390593265604 #
point $-1 38.89087296526011528 50 -3.53553390593265604 #
ellipse-curve $-1 35.35533905932737753 50 7.460698725481051952e-14 0 -1 0 5.000000000000003553 0 1.065814103640150279e-14 1 I I #
point $-1 38.89087296526010107 50 3.535533905932819465 #
coedge $-1 $122 $123 $57 $91 forward $124 $-1 #
edge $-1 $95 -24.99999999999999645 $125 24.99999999999999289 $57 $126 forward 7 unknown #
coedge $-1 $127 $58 $123 $128 forward $94 $-1 #
coedge $-1 $58 $127 $60 $98 forward $94 $-1 #
loop $-1 $-1 $92 $70 #
vertex $-1 $59 $129 #
ellipse-curve $-1 -35.35533905932737753 50 -7.460698725481051952e-14 0 -1 0 -5.000000000000003553 0 -1.065814103640150279e-14 1 I I #
coedge $-1 $61 $60 $130 $131 forward $62 $-1 #
edge $-1 $132 -50 $63 75 $60 $133 forward 7 unknown #
point $-1 -38.89087296526011528 50 3.53553390593265604 #
coedge $-1 $130 $108 $65 $101 reversed $80 $-1 #
edge $-1 $102 -0.7853981633974490562 $104 0.7853981633974495002 $100 $134 forward 7 unknown #
vertex $-1 $131 $135 #
straight-curve $-1 -3.535533905932819465 -25 38.89087296526010107 0 -1 -0 I I #
vertex $-1 $67 $136 #
straight-curve $-1 3.53553390593265604 0 38.89087296526011528 0 1 0 I I #
face $-1 $137 $124 $2 $-1 $138 reversed single #
cone-surface $-1 -35.35533905932737753 -25 -7.460698725481051952e-14 0 -1 0 -5.000000000000003553 0 -1.065814103640150279e-14 1 I I 0 1 5.000000000000003553 forward I I I I #
coedge $-1 $100 $73 $72 $109 reversed $80 $-1 #
edge $-1 $104 -24.99999999999999289 $75 24.99999999999999645 $72 $139 forward 7 unknown #
ellipse-curve $-1 35.35533905932737753 -75 7.460698725481051952e-14 0 1 0 5.000000000000003553 0 1.065814103640150279e-14 1 I I #
point $-1 38.89087296526010107 -75 3.535533905932819465 #
coedge $-1 $140 $77 $79 $117 forward $114 $-1 #
coedge $-1 $77 $140 $83 $120 forward $114 $-1 #
loop $-1 $-1 $77 $137 #
straight-curve $-1 3.535533905932819465 -25 -38.89087296526010107 0 -1 -0 I I #
coedge $-1 $79 $141 $142 $143 forward $80 $-1 #
edge $-1 $81 -0.7853981633974490562 $144 0.7853981633974495002 $79 $145 forward 7 unknown #
face $-1 $-1 $80 $2 $-1 $146 reversed single #
point $-1 3.535533905932819465 -75 -38.89087296526010107 #
edge $-1 $125 -0.7853981633974495002 $84 0.7853981633974490562 $83 $147 forward 7 unknown #
point $-1 3.535533905932819465 50 -38.89087296526010107 #
coedge $-1 $142 $90 $140 $148 reversed $124 $-1 #
coedge $-1 $90 $142 $92 $128 reversed $124 $-1 #
loop $-1 $-1 $122 $106 #
vertex $-1 $91 $149 #
straight-curve $-1 -21.21320343559638033 50 -21.21320343559646915 0.707106781186549016 0 -0.7071067811865460184 I I #
coedge $-1 $93 $92 $141 $150 forward $94 $-1 #
edge $-1 $95 -75 $151 50 $123 $152 forward 7 unknown #
point $-1 -38.89087296526010107 50 -3.535533905932819465 #
coedge $-1 $141 $100 $97 $131 reversed $80 $-1 #
edge $-1 $132 -24.99999999999999289 $102 24.99999999999999645 $130 $153 forward 7 unknown #
vertex $-1 $98 $154 #
straight-curve $-1 -38.89087296526011528 -25 3.53553390593265604 0 1 0 I I #
ellipse-curve $-1 -7.460698725481051952e-14 -75 35.35533905932737753 0 1 0 -1.065814103640150279e-14 0 5.000000000000003553 1 I I #
point $-1 -3.535533905932819465 -75 38.89087296526010107 #
point $-1 3.53553390593265604 -75 38.89087296526011528 #
face $-1 $118 $114 $2 $-1 $155 forward single #
plane-surface $-1 -21.21320343559638033 -25 -21.21320343559646915 0.7071067811865460184 0 0.707106781186549016 0.707106781186549016 0 -0.7071067811865460184 forward_v I I I I #
straight-curve $-1 21.21320343559638033 -75 21.21320343559646915 0.707106781186549016 0 -0.7071067811865460184 I I #
coedge $-1 $113 $112 $122 $148 forward $114 $-1 #
coedge $-1 $116 $130 $127 $150 reversed $80 $-1 #
coedge $-1 $123 $122 $116 $143 reversed $124 $-1 #
edge $-1 $151 -24.99999999999999645 $144 24.99999999999999289 $142 $156 forward 7 unknown #
vertex $-1 $143 $157 #
ellipse-curve $-1 7.460698725481051952e-14 -75 -35.35533905932737753 0 1 0 1.065814103640150279e-14 0 -5.000000000000003553 1 I I #
plane-surface $-1 0 -75 0 0 1 0 -0.707106781186549016 0 0.7071067811865460184 forward_v I I I I #
ellipse-curve $-1 7.460698725481051952e-14 50 -35.35533905932737753 0 -1 0 1.065814103640150279e-14 0 -5.000000000000003553 1 I I #
edge $-1 $144 -50 $125 75 $122 $158 forward 7 unknown #
point $-1 -3.53553390593265604 50 -38.89087296526011528 #
edge $-1 $151 -0.7853981633974490562 $132 0.7853981633974495002 $141 $159 forward 7 unknown #
vertex $-1 $128 $160 #
straight-curve $-1 -38.89087296526010107 -25 -3.535533905932819465 0 -1 0 I I #
straight-curve $-1 -21.21320343559646915 -75 21.21320343559638033 0.7071067811865460184 0 0.707106781186549016 I I #
point $-1 -38.89087296526011528 -75 3.53553390593265604 #
cone-surface $-1 7.460698725481051952e-14 -25 -35.35533905932737753 0 1 0 1.065814103640150279e-14 0 -5.000000000000003553 1 I I 0 1 5.000000000000003553 forward I I I I #
straight-curve $-1 -21.21320343559638033 -75 -21.21320343559646915 0.707106781186549016 0 -0.7071067811865460184 I I #
point $-1 -3.53553390593265604 -75 -38.89087296526011528 #
straight-curve $-1 -3.53553390593265604 -25 -38.89087296526011528 0 1 0 I I #
ellipse-curve $-1 -35.35533905932737753 -75 -7.460698725481051952e-14 0 1 0 -5.000000000000003553 0 -1.065814103640150279e-14 1 I I #
point $-1 -38.89087296526010107 -75 -3.535533905932819465 #
End-of-ACIS-data 