**ABCDEFGHIJKLMNOPQRSTUVWXYZabcdefghijklmnopqrstuvwxyz**************************
**PARASOLID !"#$%&'()*+,-./:;<=>?@[\]^_`{|}~0123456789**************************
**PART1;MC=sparc;MC_MODEL=sun4;MC_ID=bedlam;OS=SunOS;OS_RELEASE=4.1.1;FRU=sdl_pa
rasolid_test_sparc;APPL=unknown;SITE=sdl-cambridge-u.k.;USER=regli;FORMAT=text;G
UISE=transmit;KEY=keyway_ex;FILE=keyway_ex.xmt_txt;DATE=22-jan-1993;
**PART2;SCH=SCH_401021_4039;USFLD_SIZE=0;
**PART3;
**END_OF_HEADER*****************************************************************
T50 : TRANSMIT FILE created by modeller version 40102115 SCH_401021_40390 12 1 1
030 0 0 0 0 0 1e3 1e-8 2 2 0 0 0 1 3 1e-8 0 0 102 9 2 keyway_ex13 3 2 0 1 0 4 5
 6 7 8 9 14 4 863 0 10 0 11 3 7 -16 5 889 0 12 0 13 8 18 6 925 0 12 0 14 9 50 7
 950 0 4 15 0 0 +-.388908729652601 -.388908729652601 .5 0 0 1 .707106781186548 .
707106781186548 0 30 8 963 0 5 16 0 0 +1e-8 0 -.25 .5 -1 0 0 29 9 999 0 6 17 0 -
.05 -.25 .5 29 17 1000 0 14 18 9 -.05 -.193649167310371 .5 18 14 926 0 19 6 20 1
7 29 18 1001 0 20 21 17 -.193649167310371 -.05 .5 18 20 927 0 22 14 23 18 29 21
 1002 0 23 24 18 -.25 -.05 .5 18 23 928 0 25 20 26 21 29 24 1007 0 26 27 21 .156
136194864556 -.36826822922052 .5 18 26 933 0 28 23 29 24 29 27 1008 0 29 30 24 .
0378679656440358 -.25 .5 18 29 934 0 31 26 32 27 29 30 1009 0 32 33 27 -.25 .037
8679656440358 .5 18 32 935 0 34 29 35 30 29 33 1010 0 35 36 30 -.36826822922052
 .156136194864556 .5 18 35 936 0 37 32 38 33 29 36 1011 0 38 39 33 -.36826822922
052 .156136194864556 0 18 38 937 0 40 35 41 36 29 39 1012 0 41 42 36 -.25 .03786
79656440358 0 18 41 938 0 43 38 44 39 29 42 1013 0 44 45 39 .0378679656440358 -.
25 0 18 44 939 0 46 41 47 42 29 45 781 0 47 48 42 .156136194864556 -.36826822922
052 0 18 47 779 0 49 44 50 45 29 48 748 0 50 51 45 -.156136194864556 .3682682292
2052 2 18 50 674 0 52 47 53 48 29 51 749 0 53 54 48 -.0378679656440358 .25 2 18
 53 675 0 55 50 56 51 29 54 750 0 56 57 51 .25 -.0378679656440358 2 18 56 676 0
 58 53 59 54 29 57 751 0 59 60 54 .36826822922052 -.156136194864556 2 18 59 677
 0 61 56 62 57 29 60 752 0 62 63 57 .05 .25 1.5 18 62 678 0 64 59 65 60 29 63 75
3 0 65 66 60 .25 .05 1.5 18 65 679 0 67 62 68 63 29 66 754 0 68 69 63 .05 .19364
9167310371 1.5 18 68 680 0 70 65 71 66 29 69 755 0 71 72 66 .193649167310371 .05
 1.5 18 71 681 0 73 68 74 69 29 72 757 0 74 75 69 .25 -.0378679656440358 1.5 18
 74 683 0 76 71 77 72 29 75 758 0 77 78 72 -.0378679656440358 .25 1.5 18 77 684
 0 79 74 80 75 29 78 759 0 80 81 75 -.156136194864556 .36826822922052 1.5 18 80
 685 0 82 77 83 78 29 81 529 0 83 84 78 .36826822922052 -.156136194864556 1.5 18
 83 527 0 85 80 86 81 29 84 500 0 86 87 81 -.05 .193649167310371 0 18 86 442 0 8
8 83 89 84 29 87 501 0 89 90 84 -.05 .193649167310371 2 18 89 443 0 91 86 92 87
 29 90 505 0 92 93 87 .05 .193649167310371 0 18 92 447 0 94 89 95 90 29 93 508 0
 95 96 90 -.05 .25 2 18 95 450 0 97 92 98 93 29 96 512 0 98 99 93 -.05 .25 0 18
 98 454 0 100 95 101 96 29 99 514 0 102 103 96 .05 -.25 0 18 102 456 0 104 105 1
06 99 29 103 510 0 107 108 99 .05 -.25 2 18 107 452 0 109 106 110 103 29 108 507
 0 106 111 103 -.05 -.25 2 18 106 449 0 112 102 107 108 29 111 503 0 105 113 108
 .05 -.193649167310371 2 18 105 445 0 114 101 102 111 29 113 502 0 101 115 111 -
.05 -.193649167310371 2 18 101 444 0 116 98 105 113 29 115 311 0 110 117 113 .05
 .25 0 18 110 309 0 118 107 119 115 29 117 282 0 119 120 115 .05 -.1936491673103
71 0 18 119 280 0 121 110 122 117 29 120 260 0 122 123 117 -.193649167310371 -.0
5 2 18 122 202 0 124 119 125 120 29 123 262 0 125 126 120 -.193649167310371 .05
 0 18 125 204 0 127 122 128 123 29 126 265 0 128 129 123 -.193649167310371 .05 2
 18 128 207 0 130 125 131 126 29 129 266 0 131 132 126 -.25 -.05 2 18 131 208 0
 133 128 134 129 29 132 267 0 134 135 129 -.25 .05 2 18 134 209 0 136 131 137 13
2 29 135 273 0 138 139 132 .25 -.05 0 18 138 215 0 140 141 142 135 29 139 269 0
 141 143 135 .25 -.05 2 18 141 211 0 144 137 138 139 29 143 263 0 137 145 139 .1
93649167310371 .05 0 18 137 205 0 146 134 141 143 29 145 261 0 147 148 143 .1936
49167310371 -.05 2 18 147 203 0 149 142 150 145 29 148 258 0 142 151 145 .193649
167310371 -.05 0 18 142 200 0 152 138 147 148 29 151 74 0 150 153 148 -.25 .05 0
 18 150 72 0 154 147 155 151 29 153 60 0 155 0 151 .25 .05 0 18 155 58 0 156 150
 0 153 17 156 157 146 140 155 158 159 0 15 157 807 0 40 160 0 17 146 157 161 156
 137 162 163 0 17 140 157 156 164 138 165 166 0 17 158 167 168 169 138 156 159 0
 16 159 199 0 156 170 171 172 16 170 193 0 173 174 159 175 16 171 194 0 176 159
 177 178 30 172 256 0 159 179 175 0 +1e-8 .25 0 0 0 1 0 30 179 253 0 180 178 172
 0 +1e-8 .25 -.05 0 0 0 1 30 175 251 0 170 172 181 0 +1e-8 -.25 .05 0 0 0 1 30 1
81 248 0 174 175 182 0 +1e-8 0 .05 2 1 0 0 16 174 190 0 130 183 170 181 30 182 2
47 0 183 181 184 0 +1e-8 -.25 0 2 0 1 0 16 183 189 0 136 185 174 182 30 184 242
 0 185 182 186 0 +1e-8 0 .05 0 -1 0 0 16 185 184 0 154 187 183 184 30 186 240 0
 187 184 188 0 -1e-8 -.193649167310371 .05 0 0 0 1 16 187 182 0 127 189 185 186
 30 188 238 0 189 186 190 0 +1e-8 0 -.05 2 -1 0 0 16 189 180 0 133 191 187 188 3
1 190 295 0 191 188 192 0 +1e-8 0 0 0 0 0 -1 -1 0 0 .2 16 191 293 0 193 194 189
 190 30 192 316 0 194 190 195 0 +1e-8 0 .25 0 1 0 0 16 194 314 0 196 197 191 192
 31 195 329 0 197 192 198 0 +1e-8 0 0 2 0 0 1 1 0 0 .2 16 197 327 0 199 200 194
 195 31 198 337 0 200 195 201 0 +1e-8 0 0 2 0 0 1 1 0 0 .2 16 200 335 0 202 203
 197 198 30 201 376 0 203 198 204 0 +1e-8 .05 -.193649167310371 0 0 0 1 16 203 3
74 0 205 206 200 201 30 204 475 0 207 201 208 0 -1e-8 -.05 -.193649167310371 0 0
 0 1 16 207 417 0 209 210 211 204 30 208 483 0 212 204 213 0 +1e-8 .05 0 2 0 -1
 0 16 212 425 0 109 211 214 208 30 213 487 0 215 208 216 0 +1e-8 0 -.25 2 -1 0 0
 16 215 429 0 112 214 206 213 30 216 488 0 211 213 217 0 +1e-8 -.05 0 2 0 1 0 16
 211 430 0 116 207 212 216 30 217 494 0 206 216 218 0 +1e-8 .05 -.25 0 0 0 1 16
 206 436 0 219 215 203 217 30 218 497 0 214 217 220 0 +1e-8 .05 0 0 0 1 0 16 214
 440 0 121 212 215 218 30 220 495 0 210 218 221 0 +1e-8 -.05 0 0 0 -1 0 16 210 4
38 0 88 222 207 220 30 221 493 0 222 220 223 0 +1e-8 .05 .25 0 0 0 1 16 222 435
 0 224 225 210 221 30 223 492 0 225 221 226 0 +1e-8 -.05 .25 0 0 0 1 16 225 434
 0 227 228 222 223 30 226 489 0 228 223 229 0 +1e-8 0 .25 2 1 0 0 16 228 431 0 2
30 231 225 226 30 229 485 0 231 226 232 0 +1e-8 .05 0 0 0 1 0 16 231 427 0 118 2
33 228 229 30 232 479 0 233 229 234 0 +1e-8 -.05 0 2 0 1 0 16 233 421 0 97 235 2
31 232 30 234 476 0 235 232 236 0 +1e-8 -.05 .193649167310371 0 0 0 1 16 235 418
 0 91 237 233 234 31 236 526 0 237 234 238 0 +1e-8 0 0 2 0 0 -1 -1 0 0 .4 16 237
 524 0 239 240 235 236 30 238 538 0 240 236 241 0 -1e-8 .36826822922052 -.156136
194864556 0 0 0 1 16 240 536 0 242 243 237 238 30 241 548 0 243 238 244 0 +1e-8
 .25 0 2 0 -1 0 16 243 546 0 144 245 240 241 30 244 559 0 245 241 246 0 -1e-8 .0
5 .193649167310371 0 0 0 1 16 245 557 0 94 247 243 244 30 246 731 0 247 244 248
 0 +1e-8 .106066017177982 .106066017177982 1.5 .707106781186548 -.70710678118654
8 0 16 247 657 0 249 250 245 246 30 248 729 0 250 246 251 0 +1e-8 .1060660171779
82 .106066017177982 1.5 .707106781186548 -.707106781186548 0 16 250 655 0 252 25
3 247 248 31 251 727 0 253 248 254 0 -1e-8 0 0 1.5 0 0 -1 -1 0 0 .4 16 253 653 0
 255 256 250 251 31 254 726 0 256 251 257 0 -1e-8 0 0 1.5 0 0 -1 -1 0 0 .2 16 25
6 652 0 70 258 253 254 30 257 725 0 258 254 259 0 +1e-8 0 .05 1.5 -1 0 0 16 258
 651 0 73 260 256 257 30 259 724 0 260 257 261 0 +1e-8 .25 0 1.5 0 1 0 16 260 65
0 0 67 262 258 259 30 261 723 0 262 259 263 0 +1e-8 .05 0 1.5 0 1 0 16 262 649 0
 64 264 260 261 30 263 722 0 264 261 265 0 +1e-8 0 .25 1.5 -1 0 0 16 264 648 0 7
9 266 262 263 30 265 721 0 266 263 267 0 +1e-8 .106066017177982 .106066017177982
 2 -.707106781186548 .707106781186548 0 16 266 647 0 58 268 264 265 30 267 719 0
 268 265 269 0 +1e-8 .106066017177982 .106066017177982 2 -.707106781186548 .7071
06781186548 0 16 268 645 0 52 270 266 267 30 269 717 0 270 267 271 0 +1e-8 -.156
136194864556 .36826822922052 0 0 0 1 16 270 643 0 272 273 268 269 30 271 715 0 2
73 269 274 0 +1e-8 .25 -.0378679656440358 0 0 0 -1 16 273 641 0 76 275 270 271 3
0 274 714 0 275 271 276 0 +1e-8 -.03786796564403575 .25 0 0 0 1 16 275 640 0 55
 277 273 274 31 276 782 0 277 274 278 0 +1e-8 0 0 0 0 0 1 1 0 0 .4 16 277 780 0
 279 280 275 276 30 278 799 0 280 276 281 0 +1e-8 -.25 0 0 0 1 0 16 280 797 0 28
2 283 277 278 30 281 803 0 283 278 284 0 +1e-8 0 -.25 0 1 0 0 16 283 801 0 104 2
85 280 281 30 284 805 0 285 281 286 0 +1e-8 -.106066017177982 -.106066017177982
 0 .707106781186548 -.707106781186548 0 16 285 804 0 287 288 283 284 30 286 814
 0 288 284 289 0 +1e-8 -.25 -.05 0 0 0 1 16 288 812 0 290 291 285 286 30 289 827
 0 291 286 292 0 +1e-8 -.193649167310371 -.05 0 0 0 1 16 291 825 0 124 293 288 2
89 30 292 845 0 293 289 294 0 +1e-8 -.05 -.25 0 0 0 1 16 293 843 0 295 296 291 2
92 30 294 984 0 296 292 297 0 +1e-8 -.106066017177982 -.106066017177982 0 -.7071
06781186548 .707106781186548 0 16 296 910 0 40 298 293 294 30 297 982 0 298 294
 299 0 +1e-8 -.106066017177982 -.106066017177982 .5 .707106781186548 -.707106781
186548 0 16 298 908 0 300 301 296 297 30 299 980 0 301 297 302 0 +1e-8 -.1060660
17177982 -.106066017177982 .5 .707106781186548 -.707106781186548 0 16 301 906 0
 303 304 298 299 30 302 978 0 304 299 305 0 +1e-8 .156136194864556 -.36826822922
052 0 0 0 1 16 304 904 0 306 307 301 302 30 305 977 0 307 302 308 0 -1e-8 -.3682
6822922052 .156136194864556 0 0 0 1 16 307 903 0 309 310 304 305 30 308 976 0 31
0 305 311 0 +1e-8 -.25 .0378679656440358 0 0 0 -1 16 310 902 0 43 312 307 308 30
 311 975 0 312 308 313 0 +1e-8 .03786796564403575 -.25 0 0 0 1 16 312 901 0 31 3
14 310 311 31 313 968 0 314 311 315 0 -1e-8 0 0 .5 0 0 1 1 0 0 .4 16 314 894 0 3
16 317 312 313 30 315 967 0 317 313 318 0 +1e-8 -.25 0 .5 0 1 0 16 317 893 0 34
 319 314 315 30 318 966 0 319 315 320 0 +1e-8 0 -.05 .5 -1 0 0 16 319 892 0 25 3
21 317 318 31 320 965 0 321 318 16 0 -1e-8 0 0 .5 0 0 1 1 0 0 .2 16 321 891 0 22
 13 319 320 30 16 964 0 13 320 8 0 +1e-8 -.05 0 .5 0 1 0 16 13 890 0 19 5 321 16
 17 19 322 323 324 14 325 13 0 15 322 396 0 324 326 0 17 323 322 327 19 101 209
 207 0 17 324 322 19 327 6 295 293 0 17 325 11 328 329 6 19 13 0 15 11 864 0 303
 4 0 17 328 11 303 325 29 12 5 0 17 329 11 325 330 14 22 321 0 17 330 11 329 331
 20 25 319 0 17 22 332 124 209 20 329 321 0 15 332 375 0 209 333 0 17 124 332 33
4 22 122 335 291 0 17 209 332 22 334 14 323 207 0 17 334 332 209 124 101 336 337
 0 17 336 338 133 116 122 334 337 0 16 337 92 0 334 339 163 340 16 339 188 0 149
 341 337 342 16 163 65 0 162 337 343 344 31 340 94 0 337 344 345 0 +1e-8 0 0 2 0
 0 1 1 0 0 .2 30 344 66 0 163 346 340 0 +1e-8 0 .05 0 1 0 0 30 345 234 0 341 340
 347 0 -1e-8 .193649167310371 -.05 0 0 0 1 16 341 176 0 152 166 339 345 30 347 2
36 0 166 345 348 0 +1e-8 0 -.05 0 1 0 0 16 166 178 0 140 180 341 347 30 348 241
 0 177 347 342 0 +1e-8 .193649167310371 .05 0 0 0 1 16 177 183 0 349 171 180 348
 30 342 246 0 339 348 178 0 +1e-8 0 -.05 2 -1 0 0 30 178 252 0 171 342 179 0 +1e
-8 .25 .05 0 0 0 1 17 349 350 70 193 71 351 177 0 16 180 195 0 168 177 166 179 1
7 168 167 352 158 141 353 180 0 15 167 171 0 352 354 0 17 352 167 76 168 56 144
 243 0 17 353 355 165 356 138 168 180 0 15 355 155 0 356 357 0 17 165 355 358 35
3 142 140 166 0 17 356 355 353 358 141 149 339 0 17 358 355 356 165 147 152 341
 0 17 149 338 359 144 147 356 339 0 15 338 552 0 52 360 0 17 359 338 109 149 105
 202 200 0 17 144 338 149 58 141 352 243 0 17 58 338 144 361 56 61 266 0 17 361
 338 58 52 59 239 237 0 17 61 362 242 363 59 58 266 0 15 362 615 0 61 364 0 17 2
42 362 365 61 83 366 240 0 17 363 362 61 365 56 76 273 0 17 365 362 363 242 74 2
52 250 0 17 76 167 67 352 74 363 273 0 17 67 167 169 76 65 367 260 0 17 169 167
 158 67 155 176 171 0 17 367 368 252 369 74 67 260 0 15 368 621 0 370 371 0 17 2
52 368 255 367 83 365 250 0 17 369 368 367 372 65 73 258 0 17 372 368 369 370 71
 70 256 0 17 73 373 351 176 71 369 258 0 15 373 167 0 176 374 0 17 351 373 162 7
3 137 349 177 0 17 176 373 73 162 65 169 171 0 17 162 373 176 351 155 146 163 0
 14 374 166 0 357 354 373 3 375 -14 357 154 0 376 374 355 3 377 -14 354 170 0 37
4 378 167 3 379 -50 375 227 0 374 377 379 0 +0 .05 0 0 1 0 0 0 1 50 377 221 0 35
7 380 375 0 +0 -.05 0 0 -1 0 0 0 -1 50 379 228 0 354 375 381 0 +.25 0 0 1 0 0 0
 0 -1 50 381 226 0 378 379 382 0 +-.25 0 0 -1 0 0 0 0 1 14 378 164 0 354 383 384
 3 381 -50 382 225 0 383 381 385 0 +0 -.05 0 0 -1 0 0 0 -1 14 383 162 0 378 386
 387 3 382 -50 385 223 0 386 382 388 0 +0 .05 0 0 1 0 0 0 1 14 386 158 0 383 389
 390 3 385 -51 388 368 0 389 385 391 0 +0 0 0 0 0 1 .2 1 0 0 14 389 367 0 386 33
3 392 3 388 -51 391 378 0 333 388 393 0 +0 0 0 0 0 1 .2 1 0 0 14 333 377 0 389 3
94 332 3 391 -50 393 462 0 326 391 395 0 +-.05 0 0 -1 0 0 0 0 1 14 326 395 0 396
 397 322 3 393 -50 395 464 0 396 393 398 0 +.05 0 0 1 0 0 0 0 -1 14 396 399 0 39
4 326 399 3 395 -50 398 466 0 394 395 400 0 +0 -.25 0 0 -1 0 0 0 -1 14 394 403 0
 333 396 401 3 398 -50 400 469 0 397 398 402 0 +.05 0 0 1 0 0 0 0 -1 14 397 411
 0 326 403 404 3 400 -50 402 468 0 403 400 405 0 +0 .25 0 0 1 0 0 0 1 14 403 407
 0 397 406 407 3 402 -50 405 467 0 406 402 408 0 +-.05 0 0 -1 0 0 0 0 1 14 406 4
05 0 403 371 409 3 405 -50 408 701 0 371 405 410 0 +.388908729652601 .3889087296
52601 1.5 0 0 -1 -.707106781186548 -.707106781186548 0 14 371 620 0 406 364 368
 3 408 -50 410 698 0 364 408 411 0 +.106066017177982 .106066017177982 1.5 -.7071
06781186548 -.707106781186548 0 0 0 1 14 364 614 0 371 412 362 3 410 -50 411 697
 0 412 410 413 0 +.106066017177982 .106066017177982 1.5 -.707106781186548 -.7071
06781186548 0 0 0 1 14 412 612 0 364 414 415 3 411 -50 413 955 0 414 411 15 0 +-
.106066017177982 -.106066017177982 0 .707106781186548 .707106781186548 0 0 0 -1
 14 414 873 0 412 10 416 3 413 -50 15 954 0 10 413 7 0 +-.106066017177982 -.1060
66017177982 0 .707106781186548 .707106781186548 0 0 0 -1 14 10 871 0 414 4 417 3
 15 -15 417 872 0 287 10 0 17 287 417 306 418 47 46 285 0 17 306 417 419 287 26
 49 304 0 17 418 417 287 419 44 31 312 0 17 46 157 104 420 44 287 285 0 17 104 1
57 121 46 102 421 283 0 17 420 157 46 40 47 279 277 0 17 40 157 420 422 38 423 2
96 0 17 279 424 37 49 38 420 277 0 15 424 792 0 37 425 426 17 37 424 28 279 35 3
09 307 0 17 49 424 279 28 47 306 304 0 17 28 424 49 37 26 316 314 0 17 316 11 30
0 303 35 28 314 0 17 300 11 331 316 32 427 298 0 17 303 11 316 328 26 419 301 0
 17 419 417 418 306 29 303 301 0 17 331 11 330 300 23 34 317 0 17 427 416 309 42
8 35 300 298 0 15 416 874 0 427 414 0 17 309 416 423 427 38 37 307 0 17 428 416
 427 423 32 43 310 0 17 423 416 428 309 41 40 296 0 17 43 384 282 34 41 428 310
 0 15 384 165 0 429 378 0 17 282 384 173 43 150 422 280 0 17 34 384 43 429 32 33
1 317 0 17 429 384 34 430 23 290 288 0 17 430 384 429 173 131 136 183 0 17 290 3
87 431 25 131 429 288 0 15 387 163 0 335 383 0 17 431 387 335 290 122 133 189 0
 17 25 387 290 335 23 330 319 0 17 335 387 25 431 20 124 291 0 17 133 338 136 33
6 131 431 189 0 17 136 338 130 133 134 430 183 0 17 130 338 432 136 128 433 174
 0 17 432 338 97 130 89 199 197 0 17 433 390 434 435 134 130 174 0 15 390 159 0
 433 386 0 17 434 390 436 433 150 173 170 0 17 435 390 433 436 128 127 187 0 17
 436 390 435 434 125 154 185 0 17 127 392 437 199 125 435 187 0 15 392 365 0 437
 389 0 17 437 392 91 127 86 438 439 0 17 199 392 127 91 128 432 197 0 17 91 392
 199 437 89 440 235 0 17 440 409 441 442 86 91 235 0 15 409 406 0 441 406 0 17 4
41 409 227 440 98 88 210 0 17 442 409 440 227 89 97 233 0 17 227 409 442 441 95
 443 225 0 17 97 338 230 432 95 442 233 0 17 230 338 52 97 53 444 228 0 17 52 33
8 361 230 50 445 268 0 17 444 407 443 55 95 230 228 0 15 407 408 0 79 403 0 17 4
43 407 196 444 98 227 225 0 17 55 407 444 79 53 446 275 0 17 79 407 55 224 77 44
7 264 0 17 446 415 448 445 77 55 275 0 15 415 613 0 448 412 0 17 448 415 272 446
 80 249 247 0 17 445 415 446 272 53 52 268 0 17 272 415 445 448 50 82 270 0 17 8
2 426 85 239 80 272 270 0 15 426 537 0 366 425 0 17 85 426 366 82 83 255 253 0 1
7 239 426 82 366 50 361 237 0 17 366 426 239 85 59 242 240 0 17 255 368 249 252
 80 85 253 0 17 249 368 447 255 77 448 247 0 17 447 368 370 249 62 79 264 0 17 3
70 368 372 447 68 64 262 0 17 64 404 449 450 62 370 262 0 15 404 412 0 450 397 0
 17 449 404 451 64 110 224 222 0 17 450 404 64 451 68 94 245 0 17 451 404 450 44
9 92 118 231 0 17 94 350 193 70 92 450 245 0 15 350 35 0 349 452 0 17 193 350 34
9 94 137 161 191 0 17 70 350 94 349 68 372 256 0 17 161 157 118 146 92 193 191 0
 17 118 157 100 161 110 451 231 0 17 100 157 88 118 98 196 194 0 17 88 157 438 1
00 86 441 210 0 17 196 407 224 443 110 100 194 0 17 224 407 79 196 62 449 222 0
 17 438 157 154 88 125 437 439 0 17 154 157 422 438 150 436 185 0 16 439 16 0 43
7 343 0 453 16 343 51 0 454 163 439 346 31 453 19 0 439 0 346 0 +1e-8 0 0 0 0 0
 -1 -1 0 0 .2 31 346 53 0 343 453 344 0 +1e-8 0 0 0 0 0 -1 -1 0 0 .2 17 454 455
 205 152 119 164 343 0 15 455 129 0 454 376 0 17 205 455 202 454 105 456 203 0 1
7 152 455 454 202 142 358 341 0 17 164 157 140 121 142 454 343 0 17 121 157 164
 104 119 457 214 0 17 457 399 219 456 102 121 214 0 15 399 400 0 457 396 0 17 21
9 399 114 457 107 458 206 0 17 456 399 457 114 119 205 203 0 17 114 399 456 219
 105 109 212 0 17 109 338 112 359 107 114 212 0 17 112 338 116 109 106 459 215 0
 17 116 338 336 112 101 327 211 0 17 459 401 458 295 107 112 215 0 15 401 404 0
 31 394 0 17 458 401 421 459 102 219 206 0 17 295 401 459 12 106 324 293 0 17 12
 401 295 31 6 328 5 0 17 31 401 12 421 29 418 312 0 17 421 401 31 458 44 104 283
 0 17 327 322 324 323 106 116 211 0 17 202 455 152 205 147 359 200 0 14 376 131
 0 452 357 455 3 380 -14 452 33 0 360 376 350 3 460 -51 380 132 0 376 460 377 0
 +0 0 0 0 0 1 .2 1 0 0 51 460 38 0 452 461 380 0 +0 0 0 0 0 1 .2 1 0 0 51 461 15
 0 425 462 460 0 +0 0 0 0 0 1 .4 1 0 0 14 425 1 0 0 160 424 3 461 +50 462 14 0 3
60 463 461 0 +0 0 2 0 0 1 1 0 0 14 360 12 0 160 452 338 3 462 +50 463 8 0 160 0
 462 0 +0 0 0 0 0 -1 -1 0 0 14 160 6 0 425 360 157 3 463 +17 422 157 40 154 41 2
82 280 0 17 173 384 430 282 134 434 170 0 1 0 
