201 0 1 0           
7 Unknown 12 ACIS 3.0 SGI 24 Wed May 20 14:45:07 1998 
-1 9.9999999999999995e-07 1e-10 
body $1 $2 $-1 $3 #
display_attribute-st-attrib $-1 $4 $-1 $0 1 #
lump $-1 $-1 $5 $0 #
transform $-1 -0.70710678118654746 0 -0.70710678118654746 0 -1 0 -0.70710678118654746 0 0.70710678118654746 0 4.3420 7.1354 1 no_rotate no_reflect no_shear #
id_attribute-st-attrib $-1 $-1 $1 $0 1 #
shell $-1 $-1 $-1 $6 $-1 $2 #
face $-1 $7 $8 $5 $-1 $9 reversed single #
face $-1 $10 $11 $5 $-1 $12 forward single #
loop $-1 $13 $14 $6 #
plane-surface $-1 0 0 0 0 1 0 0 0 1 forward_v I I I I #
face $-1 $15 $16 $5 $-1 $17 forward single #
loop $-1 $18 $19 $7 #
plane-surface $-1 0 0.062 0 0 1 0 0 0 1 forward_v I I I I #
loop $-1 $-1 $20 $6 #
coedge $-1 $14 $14 $21 $22 0 $8 $-1 #
face $-1 $23 $24 $5 $-1 $25 forward single #
loop $-1 $26 $27 $10 #
cone-surface $-1 0 0 0 0 1 0 0.48449999999999999 0 0 1 I I 0 1 forward I I I I #
loop $-1 $-1 $28 $7 #
coedge $-1 $19 $19 $27 $29 1 $11 $-1 #
coedge $-1 $20 $20 $30 $31 0 $13 $-1 #
coedge $-1 $21 $21 $14 $22 1 $26 $-1 #
edge $-1 $32 $32 $21 $33 forward #
face $-1 $34 $35 $5 $-1 $36 forward single #
loop $-1 $37 $38 $15 #
plane-surface $-1 0 0.28100000000000003 0 0 1 0 0 0 1 forward_v I I I I #
loop $-1 $-1 $21 $10 #
coedge $-1 $27 $27 $19 $29 0 $16 $-1 #
coedge $-1 $28 $28 $39 $40 0 $18 $-1 #
edge $-1 $41 $41 $27 $42 forward #
coedge $-1 $30 $30 $20 $31 1 $43 $-1 #
edge $-1 $44 $44 $30 $45 forward #
vertex $-1 $22 $46 #
ellipse-curve $-1 0 0 0 0 -1 0 -0.48449999999999999 0 0 1 I I #
face $-1 $-1 $47 $5 $-1 $48 reversed single #
loop $-1 $49 $50 $23 #
cone-surface $-1 0 0.062 0 0 1 0 0.4375 0 0 1 I I 0 1 forward I I I I #
loop $-1 $-1 $51 $15 #
coedge $-1 $38 $38 $50 $52 1 $24 $-1 #
coedge $-1 $39 $39 $28 $40 1 $49 $-1 #
edge $-1 $53 $53 $39 $54 forward #
vertex $-1 $29 $55 #
ellipse-curve $-1 0 0.062 0 0 -1 0 0.48449999999999999 0 0 1 I I #
loop $-1 $-1 $30 $34 #
vertex $-1 $31 $56 #
ellipse-curve $-1 0 0 0 0 1 0 -0.1875 0 0 1 I I #
point $-1 0.48449999999999999 0 0 #
loop $-1 $43 $57 $34 #
cone-surface $-1 0 0.28100000000000003 0 0 -1 0 0.1875 0 0 1 I I 0 1 forward I I I I #
loop $-1 $-1 $39 $23 #
coedge $-1 $50 $50 $38 $52 0 $35 $-1 #
coedge $-1 $51 $51 $57 $58 1 $37 $-1 #
edge $-1 $59 $59 $50 $60 forward #
vertex $-1 $40 $61 #
ellipse-curve $-1 0 0.062 0 0 -1 0 -0.4375 0 0 1 I I #
point $-1 0.48449999999999999 0.062 0 #
point $-1 0.1875 0 0 #
coedge $-1 $57 $57 $51 $58 0 $47 $-1 #
edge $-1 $62 $62 $57 $63 forward #
vertex $-1 $52 $64 #
ellipse-curve $-1 0 0.28100000000000003 0 0 -1 0 0.4375 0 0 1 I I #
point $-1 0.4375 0.062 0 #
vertex $-1 $58 $65 #
ellipse-curve $-1 0 0.28100000000000003 0 0 1 0 0.1875 0 0 1 I I #
point $-1 0.4375 0.28100000000000003 0 #
point $-1 0.1875 0.28100000000000003 0 #
End-of-ACIS-data 