700 0 2 0           
24 FBMach with ACIS - 7.0.3 13 ACIS 7.0.3 NT 24 Mon May 13 16:56:39 2002 
1 9.9999999999999995e-007 1e-010 
body $2 -1 $-1 $3 $-1 $4 #
bdycol-kcp $-1 -1 1 6 $5 $6 $7 $8 $9 $10 #
model_id-kcp-attrib $-1 -1 $-1 $-1 $0 1 1021323398 1021323399 -1253113855 1 #
lump $-1 -1 $-1 $-1 $11 $0 #
transform $-1 -1 1 0 0 0 1 0 0 0 1 0 0 0 1 rotate no_reflect no_shear #
body $12 -1 $-1 $13 $-1 $14 #
body $15 -1 $-1 $16 $-1 $17 #
body $18 -1 $-1 $19 $-1 $20 #
body $21 -1 $-1 $22 $-1 $23 #
body $24 -1 $-1 $25 $-1 $26 #
body $27 -1 $-1 $28 $-1 $29 #
shell $-1 -1 $-1 $-1 $-1 $30 $-1 $3 #
model_id-kcp-attrib $-1 -1 $-1 $-1 $5 1 1021323398 1021323399 -1253113854 1 #
lump $-1 -1 $-1 $-1 $31 $5 #
transform $-1 -1 1 0 0 0 1 0 0 0 1 3.0051999999999999 4.0544999999999991 4.1302000000000003 1 no_rotate no_reflect no_shear #
rgb_color-st-attrib $-1 -1 $32 $-1 $6 1 0.5 1 #
lump $-1 -1 $-1 $-1 $33 $6 #
transform $-1 -1 1 0 0 0 1 0 0 0 1 3.0051999999999999 4.0544999999999991 4.1302000000000003 1 no_rotate no_reflect no_shear #
rgb_color-st-attrib $-1 -1 $34 $-1 $7 1 1 0.5 #
lump $-1 -1 $-1 $-1 $35 $7 #
transform $-1 -1 -1 0 0 0 0 1 0 1 0 3.0051999999999999 4.907 4.1302000000000003 1 rotate no_reflect no_shear #
rgb_color-st-attrib $-1 -1 $36 $-1 $8 1 1 0.5 #
lump $-1 -1 $-1 $-1 $37 $8 #
transform $-1 -1 1 0 0 0 0 1 0 -1 0 3.0051999999999999 3.1874999999999996 4.1302000000000003 1 rotate no_reflect no_shear #
rgb_color-st-attrib $-1 -1 $38 $-1 $9 1 0.5 1 #
lump $-1 -1 $-1 $-1 $39 $9 #
transform $-1 -1 1 0 0 0 1 0 0 0 1 3.0051999999999999 4.0544999999999991 4.1302000000000003 1 no_rotate no_reflect no_shear #
rgb_color-st-attrib $-1 -1 $40 $-1 $10 0.5 1 1 #
lump $-1 -1 $-1 $-1 $41 $10 #
transform $-1 -1 1 0 0 0 1 0 0 0 1 3.0051999999999999 4.0544999999999991 4.1302000000000003 1 no_rotate no_reflect no_shear #
face $42 -1 $-1 $43 $44 $11 $-1 $45 forward single #
shell $-1 -1 $-1 $-1 $-1 $46 $-1 $13 #
model_id-kcp-attrib $-1 -1 $-1 $15 $6 1 1021323398 1021323399 -1252196346 1 #
shell $-1 -1 $-1 $-1 $-1 $47 $-1 $16 #
model_id-kcp-attrib $-1 -1 $-1 $18 $7 1 1021323398 1021323399 -1251803133 1 #
shell $-1 -1 $-1 $-1 $-1 $48 $-1 $19 #
model_id-kcp-attrib $-1 -1 $-1 $21 $8 1 1021323398 1021323399 -1251803132 1 #
shell $-1 -1 $-1 $-1 $-1 $49 $-1 $22 #
model_id-kcp-attrib $-1 -1 $-1 $24 $9 1 1021323398 1021323399 -1247543289 1 #
shell $-1 -1 $-1 $-1 $-1 $50 $-1 $25 #
model_id-kcp-attrib $-1 -1 $-1 $27 $10 1 1021323398 1021323399 -1246560251 1 #
shell $-1 -1 $-1 $-1 $-1 $51 $-1 $28 #
model_id-kcp-attrib $-1 -1 $-1 $-1 $30 1 1021323398 1021323399 -1253113855 2 #
face $52 -1 $-1 $53 $54 $11 $-1 $55 forward single #
loop $-1 -1 $-1 $-1 $56 $30 #
plane-surface $-1 -1 $-1 3.0051999999999999 4.9369999999999994 4.1302000000000003 0 1 0 0.70710678118654746 0 0.70710678118654746 forward_v I I I I #
face $-1 -1 $-1 $57 $58 $31 $-1 $59 forward single #
face $-1 -1 $-1 $60 $61 $33 $-1 $62 forward single #
face $-1 -1 $-1 $63 $64 $35 $-1 $65 reversed single #
face $-1 -1 $-1 $66 $67 $37 $-1 $68 reversed single #
face $-1 -1 $-1 $69 $70 $39 $-1 $71 forward single #
face $-1 -1 $-1 $72 $73 $41 $-1 $74 reversed single #
model_id-kcp-attrib $-1 -1 $-1 $-1 $43 1 1021323398 1021323399 -1253113855 3 #
face $75 -1 $-1 $76 $77 $11 $-1 $78 forward single #
loop $-1 -1 $-1 $79 $80 $43 #
plane-surface $-1 -1 $-1 3.0051999999999999 4.3579999999999997 4.1302000000000003 0 1 0 0.70710678118654746 0 0.70710678118654746 forward_v I I I I #
coedge $-1 -1 $-1 $56 $56 $81 $82 forward $44 $-1 #
face $-1 -1 $-1 $83 $84 $31 $-1 $85 reversed single #
loop $-1 -1 $-1 $-1 $86 $46 #
plane-surface $-1 -1 $-1 0 0 0.26549999999999985 0 0 1 1 0 0 forward_v I I I I #
face $-1 -1 $-1 $87 $88 $33 $-1 $89 forward single #
loop $-1 -1 $-1 $90 $91 $47 #
cone-surface $-1 -1 $-1 0 -0.83649999999999958 0 0 1 0 -0.15450283168926063 0 -0.15450283168926063 1 I I 0 -1 0.21849999999999997 forward I I I I #
face $-1 -1 $-1 $92 $93 $35 $-1 $94 forward single #
loop $-1 -1 $-1 $95 $96 $48 #
cone-surface $-1 -1 $-1 0 0 0.032499999999999751 0 0 1 0.062499999999999993 0 0 1 I I -0.70710678118654746 0.70710678118654757 0.062499999999999993 forward I I I I #
face $-1 -1 $-1 $97 $98 $37 $-1 $99 forward single #
loop $-1 -1 $-1 $100 $101 $49 #
cone-surface $-1 -1 $-1 0 0 0.11724999999999985 0 0 1 0.13274999999999998 0 0 1 I I -0.70710678118654879 0.70710678118654613 0.13274999999999998 forward I I I I #
face $-1 -1 $-1 $102 $103 $39 $-1 $104 forward single #
loop $-1 -1 $-1 $105 $106 $50 #
cone-surface $-1 -1 $-1 0 -0.36849999999999961 0 0 1 0 -0.13258252147247765 0 -0.13258252147247765 1 I I 0 -1 0.18749999999999997 forward I I I I #
face $-1 -1 $-1 $107 $108 $41 $-1 $74 reversed single #
loop $-1 -1 $-1 $-1 $109 $51 #
cone-surface $-1 -1 $-1 0 0.88250000000000028 0 0 1 0 -0.18773685040502838 0 -0.18773685040502833 1 I I 0 1 0.26549999999999996 forward I I I I #
model_id-kcp-attrib $-1 -1 $-1 $-1 $53 1 1021323398 1021323399 -1253113855 4 #
face $110 -1 $-1 $111 $112 $11 $-1 $113 forward single #
loop $-1 -1 $-1 $114 $115 $53 #
plane-surface $-1 -1 $-1 3.0051999999999999 3.6859999999999995 4.1302000000000003 0 1 0 0.70710678118654746 0 0.70710678118654746 forward_v I I I I #
loop $-1 -1 $-1 $-1 $116 $43 #
coedge $-1 -1 $-1 $80 $80 $117 $118 forward $54 $-1 #
coedge $-1 -1 $-1 $81 $81 $56 $82 reversed $119 $-1 #
edge $120 -1 $-1 $121 0 $121 6.2831853071795862 $81 $122 forward @7 unknown #
face $123 -1 $-1 $124 $125 $31 $-1 $126 reversed single #
loop $-1 -1 $-1 $-1 $127 $57 #
plane-surface $-1 -1 $-1 0 0 -0.26549999999999985 0 0 1 1 0 0 forward_v I I I I #
coedge $-1 -1 $-1 $128 $129 $130 $131 forward $58 $-1 #
face $-1 -1 $-1 $132 $133 $33 $-1 $134 forward single #
loop $-1 -1 $-1 $135 $136 $60 #
cone-surface $-1 -1 $-1 0 -0.83649999999999958 0 0 1 0 -0.18773685040502838 0 -0.18773685040502833 1 I I 0 1 0.26549999999999996 forward I I I I #
loop $-1 -1 $-1 $-1 $137 $47 #
coedge $-1 -1 $-1 $91 $91 $138 $139 forward $61 $-1 #
face $-1 -1 $-1 $-1 $140 $35 $-1 $141 forward single #
loop $-1 -1 $-1 $142 $143 $63 #
cone-surface $-1 -1 $-1 0 0 0 0 0 1 0.12499999999999999 0 0 1 I I 0 1 0.12499999999999999 forward I I I I #
loop $-1 -1 $-1 $-1 $144 $48 #
coedge $-1 -1 $-1 $96 $96 $145 $146 reversed $64 $-1 #
face $-1 -1 $-1 $-1 $147 $37 $-1 $148 forward single #
loop $-1 -1 $-1 $149 $150 $66 #
cone-surface $-1 -1 $-1 0 0 0 0 0 1 0.26549999999999996 0 0 1 I I 0 1 0.26549999999999996 forward I I I I #
loop $-1 -1 $-1 $-1 $151 $49 #
coedge $-1 -1 $-1 $101 $101 $152 $153 reversed $67 $-1 #
face $-1 -1 $-1 $154 $155 $39 $-1 $156 forward single #
loop $-1 -1 $-1 $157 $158 $69 #
cone-surface $-1 -1 $-1 0 -0.36849999999999961 0 0 1 0 -0.18773685040502838 0 -0.18773685040502833 1 I I 0 1 0.26549999999999996 forward I I I I #
loop $-1 -1 $-1 $-1 $159 $50 #
coedge $-1 -1 $-1 $106 $106 $160 $161 forward $70 $-1 #
face $-1 -1 $-1 $162 $163 $41 $-1 $74 reversed single #
loop $-1 -1 $-1 $-1 $164 $72 #
coedge $-1 -1 $-1 $165 $166 $167 $168 reversed $73 $-1 #
model_id-kcp-attrib $-1 -1 $-1 $-1 $76 1 1021323398 1021323399 -1253113855 5 #
face $169 -1 $-1 $170 $171 $11 $-1 $172 reversed single #
loop $-1 -1 $-1 $173 $174 $76 #
plane-surface $-1 -1 $-1 3.0051999999999999 3.218 4.1302000000000003 0 1 0 0.70710678118654746 0 0.70710678118654746 forward_v I I I I #
loop $-1 -1 $-1 $-1 $175 $53 #
coedge $-1 -1 $-1 $115 $115 $176 $177 forward $77 $-1 #
coedge $-1 -1 $-1 $116 $116 $178 $179 forward $79 $-1 #
coedge $-1 -1 $-1 $117 $117 $80 $118 reversed $180 $-1 #
edge $-1 -1 $-1 $181 -3.14159265358979 $181 3.1415926535897962 $80 $182 forward @7 unknown #
loop $-1 -1 $-1 $-1 $81 $170 #
attrib_edge_convexity-kcp-attrib $-1 -1 $183 $-1 $82 1 #
vertex $-1 -1 $-1 $82 $184 #
ellipse-curve $-1 -1 $-1 3.0051999999999999 4.9369999999999994 4.1302000000000003 0 1 0 0.045961940777125586 0 0.045961940777125586 1 I I #
model_id-kcp-attrib $-1 -1 $-1 $-1 $83 1 1021323398 1021323399 -1253113854 3 #
face $-1 -1 $-1 $185 $186 $31 $-1 $187 reversed single #
loop $-1 -1 $-1 $-1 $188 $83 #
plane-surface $-1 -1 $-1 0 -0.88249999999999984 0 0 1 0 0 0 1 forward_v I I I I #
coedge $-1 -1 $-1 $189 $190 $191 $192 forward $84 $-1 #
coedge $-1 -1 $-1 $193 $86 $194 $195 forward $58 $-1 #
coedge $-1 -1 $-1 $86 $193 $196 $197 forward $58 $-1 #
coedge $-1 -1 $-1 $198 $199 $86 $131 reversed $200 $-1 #
edge $-1 -1 $-1 $201 -0.88249999999999984 $202 0.88249999999999984 $130 $203 forward @7 unknown #
face $-1 -1 $-1 $-1 $204 $33 $-1 $205 reversed single #
loop $-1 -1 $-1 $206 $207 $87 #
plane-surface $-1 -1 $-1 0.0030212744287061548 -0.36849999999999972 0.0030212744287061565 -1.0425180592542923e-032 1 2.0850361185085842e-032 0 -2.0850361185085842e-032 1 forward_v I I I I #
loop $-1 -1 $-1 $-1 $208 $60 #
coedge $-1 -1 $-1 $136 $136 $207 $209 forward $88 $-1 #
coedge $-1 -1 $-1 $137 $137 $210 $211 reversed $90 $-1 #
coedge $-1 -1 $-1 $138 $138 $91 $139 reversed $206 $-1 #
edge $-1 -1 $-1 $212 0 $212 6.2831853071795862 $91 $213 forward @7 unknown #
loop $-1 -1 $-1 $214 $145 $92 #
plane-surface $-1 -1 $-1 0 0 0.029999999999999805 0 0 1 1 0 0 forward_v I I I I #
loop $-1 -1 $-1 $-1 $215 $63 #
coedge $-1 -1 $-1 $143 $143 $144 $216 reversed $93 $-1 #
coedge $-1 -1 $-1 $144 $144 $143 $216 forward $95 $-1 #
coedge $-1 -1 $-1 $145 $145 $96 $146 forward $140 $-1 #
edge $-1 -1 $-1 $217 -3.1415926535897931 $217 3.1415926535897931 $145 $218 forward @7 unknown #
loop $-1 -1 $-1 $219 $152 $97 #
plane-surface $-1 -1 $-1 0 0 0.015499999999999847 0 0 1 1 0 0 forward_v I I I I #
loop $-1 -1 $-1 $-1 $220 $66 #
coedge $-1 -1 $-1 $150 $150 $151 $221 reversed $98 $-1 #
coedge $-1 -1 $-1 $151 $151 $150 $221 forward $100 $-1 #
coedge $-1 -1 $-1 $152 $152 $101 $153 forward $147 $-1 #
edge $-1 -1 $-1 $222 -3.1415926535897931 $222 3.1415926535897931 $152 $223 forward @7 unknown #
face $-1 -1 $-1 $-1 $224 $39 $-1 $225 reversed single #
loop $-1 -1 $-1 $226 $227 $102 #
plane-surface $-1 -1 $-1 0.0050140299029591568 0.30350000000000055 0.0050140299029591568 -2.9167912907853813e-033 1 1.1667165163141525e-032 0 -1.1667165163141525e-032 1 forward_v I I I I #
loop $-1 -1 $-1 $-1 $228 $69 #
coedge $-1 -1 $-1 $158 $158 $227 $229 forward $103 $-1 #
coedge $-1 -1 $-1 $159 $159 $230 $231 reversed $105 $-1 #
coedge $-1 -1 $-1 $160 $160 $106 $161 reversed $226 $-1 #
edge $-1 -1 $-1 $232 0 $232 6.2831853071795862 $106 $233 forward @7 unknown #
face $-1 -1 $-1 $234 $235 $41 $-1 $74 reversed single #
loop $-1 -1 $-1 $-1 $236 $107 #
coedge $-1 -1 $-1 $237 $238 $239 $240 reversed $108 $-1 #
coedge $-1 -1 $-1 $241 $109 $242 $243 forward $73 $-1 #
coedge $-1 -1 $-1 $109 $241 $244 $245 reversed $73 $-1 #
coedge $-1 -1 $-1 $246 $247 $109 $168 forward $248 $-1 #
edge $-1 -1 $-1 $249 0.78539816339744817 $250 2.3561944901923448 $167 $251 forward @7 unknown #
model_id-kcp-attrib $-1 -1 $-1 $-1 $111 1 1021323398 1021323399 -1253113855 6 #
face $252 -1 $-1 $253 $254 $11 $-1 $255 forward single #
loop $-1 -1 $-1 $-1 $256 $111 #
plane-surface $-1 -1 $-1 3.0051999999999999 3.1719999999999997 4.1302000000000003 0 1 0 0.70710678118654746 0 0.70710678118654746 forward_v I I I I #
loop $-1 -1 $-1 $-1 $257 $76 #
coedge $-1 -1 $-1 $174 $174 $258 $259 forward $112 $-1 #
coedge $-1 -1 $-1 $175 $175 $260 $261 forward $114 $-1 #
coedge $-1 -1 $-1 $176 $176 $115 $177 reversed $262 $-1 #
edge $263 -1 $-1 $264 -3.1415926535897931 $264 3.1415926535897931 $115 $265 forward @7 unknown #
coedge $-1 -1 $-1 $178 $178 $116 $179 reversed $266 $-1 #
edge $-1 -1 $-1 $267 0 $267 6.2831853071795862 $178 $268 forward @7 unknown #
loop $-1 -1 $-1 $269 $117 $270 #
vertex $-1 -1 $-1 $118 $271 #
ellipse-curve $-1 -1 $-1 3.0051999999999999 4.3579999999999997 4.1302000000000003 0 -1 0 0.067175144212722013 0 0.067175144212722013 1 I I #
convexity-sys-attrib $-1 -1 $-1 $120 $82 #
point $-1 -1 $-1 3.0511619407771255 4.9369999999999994 4.176161940777126 #
face $272 -1 $-1 $273 $274 $31 $-1 $275 reversed single #
loop $-1 -1 $-1 $-1 $276 $124 #
plane-surface $-1 -1 $-1 -0.26550000000000029 0 0 1 0 0 0 0 -1 forward_v I I I I #
coedge $-1 -1 $-1 $277 $196 $278 $279 forward $125 $-1 #
coedge $-1 -1 $-1 $280 $127 $277 $281 forward $84 $-1 #
coedge $-1 -1 $-1 $127 $280 $282 $283 forward $84 $-1 #
coedge $-1 -1 $-1 $199 $198 $127 $192 reversed $200 $-1 #
edge $-1 -1 $-1 $284 -0.88249999999999984 $285 0.88249999999999984 $191 $286 forward @7 unknown #
coedge $-1 -1 $-1 $129 $128 $287 $288 forward $58 $-1 #
coedge $-1 -1 $-1 $289 $290 $128 $195 reversed $274 $-1 #
edge $-1 -1 $-1 $202 -0.26550000000000029 $291 0.26550000000000029 $194 $292 forward @7 unknown #
coedge $-1 -1 $-1 $188 $293 $129 $197 reversed $125 $-1 #
edge $-1 -1 $-1 $294 -0.26550000000000029 $201 0.26550000000000029 $196 $295 forward @7 unknown #
coedge $-1 -1 $-1 $191 $130 $293 $296 forward $200 $-1 #
coedge $-1 -1 $-1 $130 $191 $289 $297 reversed $200 $-1 #
loop $-1 -1 $-1 $-1 $198 $273 #
vertex $-1 -1 $-1 $131 $298 #
vertex $-1 -1 $-1 $131 $299 #
straight-curve $-1 -1 $-1 0.26550000000000029 0 0.26549999999999985 0 1 0 I I #
loop $-1 -1 $-1 $300 $301 $132 #
plane-surface $-1 -1 $-1 0.0030212744287061548 -0.83649999999999924 0.0030212744287061565 -1.0425180592542923e-032 1 2.0850361185085842e-032 0 -2.0850361185085842e-032 1 forward_v I I I I #
loop $-1 -1 $-1 $-1 $138 $87 #
coedge $-1 -1 $-1 $207 $207 $136 $209 reversed $133 $-1 #
coedge $-1 -1 $-1 $208 $208 $301 $302 reversed $135 $-1 #
edge $-1 -1 $-1 $303 -3.1415926535897931 $303 3.1415926535897931 $136 $304 forward @7 unknown #
coedge $-1 -1 $-1 $210 $210 $137 $211 forward $300 $-1 #
edge $305 -1 $-1 $306 0 $306 6.2831853071795862 $137 $307 forward @7 unknown #
vertex $-1 -1 $-1 $139 $308 #
ellipse-curve $-1 -1 $-1 0 -0.36850000000000005 0 0 1 0 -0.15450283168926063 0 -0.15450283168926063 1 I I #
loop $-1 -1 $-1 $-1 $309 $92 #
coedge $-1 -1 $-1 $215 $215 $309 $310 reversed $142 $-1 #
edge $-1 -1 $-1 $311 0 $311 6.2831853071795862 $143 $312 forward @7 unknown #
vertex $-1 -1 $-1 $146 $313 #
ellipse-curve $-1 -1 $-1 0 0 0.029999999999999805 0 0 -1 0.064999999999999933 0 0 1 I I #
loop $-1 -1 $-1 $-1 $314 $97 #
coedge $-1 -1 $-1 $220 $220 $314 $315 reversed $149 $-1 #
edge $-1 -1 $-1 $316 0 $316 6.2831853071795862 $150 $317 forward @7 unknown #
vertex $-1 -1 $-1 $153 $318 #
ellipse-curve $-1 -1 $-1 0 0 0.015499999999999847 0 0 -1 0.23450000000000037 0 0 1 I I #
loop $-1 -1 $-1 $319 $320 $154 #
plane-surface $-1 -1 $-1 0.0050140299029591568 -0.36849999999999961 0.0050140299029591568 -2.9167912907853813e-033 1 1.1667165163141525e-032 0 -1.1667165163141525e-032 1 forward_v I I I I #
loop $-1 -1 $-1 $-1 $160 $102 #
coedge $-1 -1 $-1 $227 $227 $158 $229 reversed $155 $-1 #
coedge $-1 -1 $-1 $228 $228 $320 $321 reversed $157 $-1 #
edge $-1 -1 $-1 $322 -3.1415926535897931 $322 3.1415926535897931 $158 $323 forward @7 unknown #
coedge $-1 -1 $-1 $230 $230 $159 $231 forward $319 $-1 #
edge $324 -1 $-1 $325 0 $325 6.2831853071795862 $159 $326 forward @7 unknown #
vertex $-1 -1 $-1 $161 $327 #
ellipse-curve $-1 -1 $-1 0 0.30350000000000055 0 0 1 0 -0.13258252147247765 0 -0.13258252147247765 1 I I #
face $-1 -1 $-1 $328 $329 $41 $-1 $330 forward single #
loop $-1 -1 $-1 $-1 $331 $162 #
coedge $-1 -1 $-1 $332 $333 $331 $334 forward $163 $-1 #
coedge $-1 -1 $-1 $335 $164 $336 $337 reversed $108 $-1 #
coedge $-1 -1 $-1 $164 $335 $166 $245 forward $108 $-1 #
coedge $-1 -1 $-1 $338 $339 $164 $240 forward $340 $-1 #
edge $-1 -1 $-1 $341 2.3561944901923453 $342 3.9269908169872414 $239 $343 forward @7 unknown #
coedge $-1 -1 $-1 $166 $165 $344 $345 reversed $73 $-1 #
coedge $-1 -1 $-1 $333 $332 $346 $243 reversed $163 $-1 #
edge $-1 -1 $-1 $249 -1.7650000000000001 $347 -4.4408920985006262e-016 $346 $348 forward @7 unknown #
coedge $-1 -1 $-1 $349 $350 $351 $245 forward $352 $-1 #
edge $-1 -1 $-1 $250 -1.7650000000000001 $342 -4.4408920985006262e-016 $244 $353 forward @7 unknown #
coedge $-1 -1 $-1 $247 $167 $350 $354 reversed $248 $-1 #
coedge $-1 -1 $-1 $167 $246 $355 $356 forward $248 $-1 #
loop $-1 -1 $-1 $-1 $167 $357 #
vertex $-1 -1 $-1 $358 $359 #
vertex $-1 -1 $-1 $360 $361 #
ellipse-curve $-1 -1 $-1 0 -0.88249999999999984 0 0 1 0 -0.18773685040502838 0 -0.18773685040502833 1 I I #
model_id-kcp-attrib $-1 -1 $-1 $-1 $170 1 1021323398 1021323399 -1253113855 7 #
face $362 -1 $-1 $363 $364 $11 $-1 $365 forward single #
loop $-1 -1 $-1 $119 $366 $170 #
cone-surface $-1 -1 $-1 3.0051999999999999 4.8769999999999998 4.1302000000000003 0 -1 0 0.088388347648318433 0 0.088388347648318433 1 I I 0.70710678118654702 0.70710678118654802 0.125 forward I I I I #
coedge $-1 -1 $-1 $256 $256 $367 $368 forward $171 $-1 #
coedge $-1 -1 $-1 $257 $257 $369 $370 forward $173 $-1 #
coedge $-1 -1 $-1 $258 $258 $174 $259 reversed $371 $-1 #
edge $372 -1 $-1 $373 -3.1415926535897931 $373 3.1415926535897931 $174 $374 forward @7 unknown #
coedge $-1 -1 $-1 $260 $260 $175 $261 reversed $375 $-1 #
edge $376 -1 $-1 $377 0 $377 6.2831853071795862 $260 $378 forward @7 unknown #
loop $-1 -1 $-1 $266 $176 $379 #
attrib_edge_convexity-kcp-attrib $-1 -1 $380 $-1 $177 2 #
vertex $-1 -1 $-1 $177 $381 #
ellipse-curve $-1 -1 $-1 3.0051999999999999 3.6859999999999995 4.1302000000000003 0 -1 0 0.13258252147247765 0 0.13258252147247765 1 I I #
loop $-1 -1 $-1 $-1 $178 $379 #
vertex $-1 -1 $-1 $179 $382 #
ellipse-curve $-1 -1 $-1 3.0051999999999999 4.3579999999999997 4.1302000000000003 0 1 0 0.13258252147247765 0 0.13258252147247765 1 I I #
loop $-1 -1 $-1 $-1 $383 $270 #
face $384 -1 $-1 $379 $180 $11 $-1 $385 forward single #
point $-1 -1 $-1 2.9380248557872779 4.3579999999999997 4.0630248557872779 #
model_id-kcp-attrib $-1 -1 $-1 $-1 $185 1 1021323398 1021323399 -1253113854 2 #
face $-1 -1 $-1 $-1 $200 $31 $-1 $386 reversed single #
loop $-1 -1 $-1 $-1 $289 $185 #
plane-surface $-1 -1 $-1 0 0.88249999999999984 0 0 -1 0 0 0 -1 forward_v I I I I #
coedge $-1 -1 $-1 $387 $287 $290 $388 forward $186 $-1 #
coedge $-1 -1 $-1 $293 $188 $189 $281 reversed $125 $-1 #
coedge $-1 -1 $-1 $287 $387 $188 $279 reversed $186 $-1 #
edge $-1 -1 $-1 $294 -0.26549999999999985 $389 0.26549999999999985 $278 $390 forward @7 unknown #
coedge $-1 -1 $-1 $190 $189 $387 $391 forward $84 $-1 #
edge $-1 -1 $-1 $285 -0.26550000000000029 $389 0.26550000000000029 $277 $392 forward @7 unknown #
coedge $-1 -1 $-1 $290 $289 $190 $283 reversed $274 $-1 #
edge $-1 -1 $-1 $393 -0.26550000000000029 $284 0.26550000000000029 $282 $394 forward @7 unknown #
vertex $-1 -1 $-1 $192 $395 #
vertex $-1 -1 $-1 $296 $396 #
straight-curve $-1 -1 $-1 0.26550000000000029 0 -0.26549999999999985 0 -1 0 I I #
coedge $-1 -1 $-1 $276 $278 $193 $288 reversed $186 $-1 #
edge $-1 -1 $-1 $291 -0.88249999999999984 $294 0.88249999999999984 $287 $397 forward @7 unknown #
coedge $-1 -1 $-1 $282 $194 $199 $297 forward $274 $-1 #
coedge $-1 -1 $-1 $194 $282 $276 $388 reversed $274 $-1 #
vertex $-1 -1 $-1 $195 $398 #
straight-curve $-1 -1 $-1 0 0.88249999999999984 0.26549999999999985 -1 0 0 I I #
coedge $-1 -1 $-1 $196 $277 $198 $296 reversed $125 $-1 #
vertex $-1 -1 $-1 $288 $399 #
straight-curve $-1 -1 $-1 0 -0.88249999999999984 0.26549999999999985 1 0 0 I I #
edge $-1 -1 $-1 $201 -0.26549999999999985 $285 0.26549999999999985 $198 $400 forward @7 unknown #
edge $-1 -1 $-1 $202 -0.26549999999999985 $284 0.26549999999999985 $199 $401 forward @7 unknown #
point $-1 -1 $-1 0.26550000000000029 -0.88249999999999984 0.26549999999999985 #
point $-1 -1 $-1 0.26550000000000029 0.88249999999999984 0.26549999999999985 #
loop $-1 -1 $-1 $-1 $210 $132 #
coedge $-1 -1 $-1 $301 $301 $208 $302 forward $204 $-1 #
edge $402 -1 $-1 $403 -3.1415926535897931 $403 3.1415926535897931 $208 $404 forward @7 unknown #
vertex $-1 -1 $-1 $209 $405 #
ellipse-curve $-1 -1 $-1 0 -0.36850000000000005 0 0 -1 0 -0.18773685040502838 0 -0.18773685040502833 1 I I #
convexity-sys-attrib $-1 -1 $-1 $-1 $211 #
vertex $-1 -1 $-1 $211 $406 #
ellipse-curve $-1 -1 $-1 0 -0.83649999999999958 0 0 1 0 -0.15450283168926063 0 -0.15450283168926063 1 I I #
point $-1 -1 $-1 -0.15450283168926049 -0.36849999999999961 -0.15450283168926049 #
coedge $-1 -1 $-1 $309 $309 $215 $310 forward $214 $-1 #
edge $-1 -1 $-1 $407 0 $407 6.2831853071795862 $309 $408 forward @7 unknown #
vertex $-1 -1 $-1 $216 $409 #
ellipse-curve $-1 -1 $-1 0 0 -0.029999999999999805 0 0 -1 0.12499999999999999 0 0 1 I I #
point $-1 -1 $-1 -0.064999999999999933 7.9599412998454434e-018 0.029999999999999805 #
coedge $-1 -1 $-1 $314 $314 $220 $315 forward $219 $-1 #
edge $-1 -1 $-1 $410 0 $410 6.2831853071795862 $314 $411 forward @7 unknown #
vertex $-1 -1 $-1 $221 $412 #
ellipse-curve $-1 -1 $-1 0 0 -0.015499999999999847 0 0 -1 0.26549999999999996 0 0 1 I I #
point $-1 -1 $-1 -0.23450000000000037 2.871701899713479e-017 0.015499999999999847 #
loop $-1 -1 $-1 $-1 $230 $154 #
coedge $-1 -1 $-1 $320 $320 $228 $321 forward $224 $-1 #
edge $413 -1 $-1 $414 -3.1415926535897931 $414 3.1415926535897931 $228 $415 forward @7 unknown #
vertex $-1 -1 $-1 $229 $416 #
ellipse-curve $-1 -1 $-1 0 0.30350000000000055 0 0 -1 0 -0.18773685040502838 0 -0.18773685040502833 1 I I #
convexity-sys-attrib $-1 -1 $-1 $-1 $231 #
vertex $-1 -1 $-1 $231 $417 #
ellipse-curve $-1 -1 $-1 0 -0.36849999999999961 0 0 1 0 -0.13258252147247765 0 -0.13258252147247765 1 I I #
point $-1 -1 $-1 -0.13258252147247784 0.30350000000000055 -0.13258252147247784 #
face $-1 -1 $-1 $418 $419 $41 $-1 $420 reversed single #
loop $-1 -1 $-1 $-1 $351 $234 #
plane-surface $-1 -1 $-1 0 0 0.26549999999999985 0 0 1 1 0 0 forward_v I I I I #
coedge $-1 -1 $-1 $421 $422 $423 $334 reversed $235 $-1 #
coedge $-1 -1 $-1 $242 $236 $424 $425 reversed $163 $-1 #
coedge $-1 -1 $-1 $236 $242 $426 $427 reversed $163 $-1 #
edge $-1 -1 $-1 $428 -1.7650000000000001 $429 -4.4408920985006262e-016 $423 $430 forward @7 unknown #
coedge $-1 -1 $-1 $238 $237 $431 $432 reversed $108 $-1 #
coedge $-1 -1 $-1 $433 $434 $435 $337 forward $436 $-1 #
edge $-1 -1 $-1 $437 -1.7650000000000001 $341 -4.4408920985006262e-016 $336 $438 forward @7 unknown #
coedge $-1 -1 $-1 $339 $239 $439 $440 reversed $340 $-1 #
coedge $-1 -1 $-1 $239 $338 $433 $441 forward $340 $-1 #
loop $-1 -1 $-1 $-1 $239 $442 #
vertex $-1 -1 $-1 $443 $444 #
vertex $-1 -1 $-1 $445 $446 #
ellipse-curve $-1 -1 $-1 0 0.88249999999999984 0 0 -1 0 -0.18773685040502838 0 -0.18773685040502833 1 I I #
coedge $-1 -1 $-1 $447 $448 $241 $345 forward $449 $-1 #
edge $-1 -1 $-1 $342 -2.3561944901923448 $347 -0.78539816339744817 $344 $343 forward @7 unknown #
coedge $-1 -1 $-1 $450 $451 $452 $243 forward $419 $-1 #
vertex $-1 -1 $-1 $453 $454 #
straight-curve $-1 -1 $-1 -0.26550000000000029 0.88250000000000028 0 0 1 0 I I #
coedge $-1 -1 $-1 $455 $244 $448 $445 forward $352 $-1 #
coedge $-1 -1 $-1 $244 $455 $246 $354 forward $352 $-1 #
coedge $-1 -1 $-1 $456 $439 $238 $245 reversed $329 $-1 #
loop $-1 -1 $-1 $-1 $244 $457 #
straight-curve $-1 -1 $-1 0 0.88250000000000028 0.26549999999999985 0 1 0 I I #
edge $-1 -1 $-1 $458 -0.26550000000000029 $250 0 $246 $459 forward @7 unknown #
coedge $-1 -1 $-1 $460 $452 $247 $356 reversed $461 $-1 #
edge $-1 -1 $-1 $458 -0.26549999999999985 $249 0 $355 $462 forward @7 unknown #
face $-1 -1 $-1 $463 $248 $41 $-1 $464 reversed single #
edge $-1 -1 $-1 $249 0 $465 0.26549999999999985 $451 $462 forward @7 unknown #
point $-1 -1 $-1 -0.26550000000000029 -0.88249999999999984 0 #
edge $-1 -1 $-1 $250 0 $466 0.26550000000000029 $467 $459 forward @7 unknown #
point $-1 -1 $-1 0 -0.88249999999999984 0.26549999999999985 #
model_id-kcp-attrib $-1 -1 $-1 $-1 $253 1 1021323398 1021323399 -1253113855 8 #
face $468 -1 $-1 $270 $469 $11 $-1 $470 forward single #
loop $-1 -1 $-1 $471 $472 $253 #
cone-surface $-1 -1 $-1 3.0051999999999999 3.0837499999999993 4.1302000000000003 0 1 0 -0.088388347648318433 0 -0.088388347648318433 1 I I 0 1 0.125 forward I I I I #
coedge $-1 -1 $-1 $366 $366 $473 $474 forward $254 $-1 #
coedge $-1 -1 $-1 $367 $367 $256 $368 reversed $475 $-1 #
edge $476 -1 $-1 $477 -3.1415926535897931 $477 3.1415926535897931 $256 $478 forward @7 unknown #
coedge $-1 -1 $-1 $369 $369 $257 $370 reversed $479 $-1 #
edge $480 -1 $-1 $481 0 $481 6.2831853071795862 $369 $482 forward @7 unknown #
loop $-1 -1 $-1 $375 $258 $483 #
attrib_edge_convexity-kcp-attrib $-1 -1 $484 $-1 $259 2 #
vertex $-1 -1 $-1 $259 $485 #
ellipse-curve $-1 -1 $-1 3.0051999999999999 3.218 4.1302000000000003 0 -1 0 0.15450283168926063 0 0.15450283168926063 1 I I #
loop $-1 -1 $-1 $-1 $260 $483 #
attrib_edge_convexity-kcp-attrib $-1 -1 $486 $-1 $261 1 #
vertex $-1 -1 $-1 $261 $487 #
ellipse-curve $-1 -1 $-1 3.0051999999999999 3.6859999999999995 4.1302000000000003 0 1 0 0.15450283168926063 0 0.15450283168926063 1 I I #
face $488 -1 $-1 $483 $262 $11 $-1 $489 forward single #
convexity-sys-attrib $-1 -1 $-1 $263 $177 #
point $-1 -1 $-1 2.872617478527522 3.6859999999999995 3.9976174785275225 #
point $-1 -1 $-1 3.1377825214724777 4.3579999999999997 4.2627825214724782 #
coedge $-1 -1 $-1 $383 $383 $490 $491 reversed $269 $-1 #
model_id-kcp-attrib $-1 -1 $-1 $-1 $270 1 1021323398 1021323399 -1253113855 10 #
cone-surface $-1 -1 $-1 3.0051999999999999 3.0837499999999993 4.1302000000000003 0 1 0 -0.067175144212722013 0 -0.067175144212722013 1 I I 0 1 0.095000000000000001 forward I I I I #
plane-surface $-1 -1 $-1 0.26550000000000029 0 0 -1 0 0 0 0 1 forward_v I I I I #
coedge $-1 -1 $-1 $278 $276 $280 $391 reversed $186 $-1 #
edge $-1 -1 $-1 $291 -0.26549999999999985 $393 0.26549999999999985 $290 $492 forward @7 unknown #
vertex $-1 -1 $-1 $391 $493 #
straight-curve $-1 -1 $-1 -0.26550000000000029 -0.88249999999999984 0 0 0 -1 I I #
edge $-1 -1 $-1 $389 -0.88249999999999984 $393 0.88249999999999984 $387 $494 forward @7 unknown #
straight-curve $-1 -1 $-1 0 -0.88249999999999984 -0.26549999999999985 -1 0 0 I I #
vertex $-1 -1 $-1 $283 $495 #
straight-curve $-1 -1 $-1 0 0.88249999999999984 -0.26549999999999985 1 0 0 I I #
point $-1 -1 $-1 0.26550000000000029 0.88249999999999984 -0.26549999999999985 #
point $-1 -1 $-1 0.26550000000000029 -0.88249999999999984 -0.26549999999999985 #
straight-curve $-1 -1 $-1 -0.26550000000000029 0 0.26549999999999985 0 -1 0 I I #
point $-1 -1 $-1 -0.26550000000000029 0.88249999999999984 0.26549999999999985 #
point $-1 -1 $-1 -0.26550000000000029 -0.88249999999999984 0.26549999999999985 #
straight-curve $-1 -1 $-1 0.26550000000000029 -0.88249999999999984 0 0 0 -1 I I #
straight-curve $-1 -1 $-1 0.26550000000000029 0.88249999999999984 0 0 0 -1 I I #
convexity-sys-attrib $-1 -1 $-1 $-1 $302 #
vertex $-1 -1 $-1 $302 $496 #
ellipse-curve $-1 -1 $-1 0 -0.83649999999999958 0 0 -1 0 -0.18773685040502838 0 -0.18773685040502833 1 I I #
point $-1 -1 $-1 0.18773685040502835 -0.36850000000000005 0.18773685040502835 #
point $-1 -1 $-1 -0.15450283168926049 -0.83649999999999913 -0.15450283168926049 #
vertex $-1 -1 $-1 $310 $497 #
ellipse-curve $-1 -1 $-1 0 0 0.029999999999999805 0 0 1 0.12499999999999999 0 0 1 I I #
point $-1 -1 $-1 0.12499999999999999 0 -0.029999999999999805 #
vertex $-1 -1 $-1 $315 $498 #
ellipse-curve $-1 -1 $-1 0 0 0.015499999999999847 0 0 1 0.26549999999999996 0 0 1 I I #
point $-1 -1 $-1 0.26549999999999996 0 -0.015499999999999847 #
convexity-sys-attrib $-1 -1 $-1 $-1 $321 #
vertex $-1 -1 $-1 $321 $499 #
ellipse-curve $-1 -1 $-1 0 -0.36849999999999961 0 0 -1 0 -0.18773685040502838 0 -0.18773685040502833 1 I I #
point $-1 -1 $-1 0.18773685040502835 0.30350000000000055 0.18773685040502835 #
point $-1 -1 $-1 -0.13258252147247784 -0.36849999999999961 -0.13258252147247784 #
face $-1 -1 $-1 $500 $501 $41 $-1 $502 reversed single #
loop $-1 -1 $-1 $-1 $346 $328 #
plane-surface $-1 -1 $-1 -0.26550000000000029 0 0 1 0 0 0 0 -1 forward_v I I I I #
coedge $-1 -1 $-1 $503 $331 $504 $505 reversed $235 $-1 #
coedge $-1 -1 $-1 $331 $503 $506 $507 reversed $235 $-1 #
coedge $-1 -1 $-1 $508 $509 $510 $334 forward $511 $-1 #
coedge $-1 -1 $-1 $512 $513 $332 $425 forward $514 $-1 #
edge $-1 -1 $-1 $347 -0.78539816339744817 $429 0.7853981633974485 $424 $343 forward @7 unknown #
coedge $-1 -1 $-1 $515 $516 $333 $427 forward $517 $-1 #
edge $-1 -1 $-1 $428 -0.7853981633974485 $249 0.78539816339744817 $426 $251 forward @7 unknown #
vertex $-1 -1 $-1 $518 $519 #
vertex $-1 -1 $-1 $520 $521 #
straight-curve $-1 -1 $-1 0 0.88250000000000028 -0.26549999999999985 0 1 0 I I #
coedge $-1 -1 $-1 $522 $467 $335 $432 forward $523 $-1 #
edge $-1 -1 $-1 $250 2.3561944901923448 $437 3.926990816987241 $431 $251 forward @7 unknown #
coedge $-1 -1 $-1 $524 $336 $339 $441 reversed $436 $-1 #
coedge $-1 -1 $-1 $336 $524 $522 $525 forward $436 $-1 #
coedge $-1 -1 $-1 $526 $527 $503 $337 reversed $501 $-1 #
loop $-1 -1 $-1 $-1 $336 $528 #
vertex $-1 -1 $-1 $529 $530 #
straight-curve $-1 -1 $-1 0.26550000000000029 0.88250000000000028 0 0 1 0 I I #
coedge $-1 -1 $-1 $351 $531 $338 $440 forward $329 $-1 #
edge $-1 -1 $-1 $532 -0.26550000000000029 $342 0 $338 $533 forward @7 unknown #
edge $-1 -1 $-1 $532 -0.26549999999999985 $341 0 $433 $534 forward @7 unknown #
face $-1 -1 $-1 $535 $340 $41 $-1 $536 reversed single #
edge $-1 -1 $-1 $341 0 $537 0.26549999999999985 $527 $534 forward @7 unknown #
point $-1 -1 $-1 0.26550000000000029 0.88249999999999984 0 #
edge $-1 -1 $-1 $342 0 $538 0.26550000000000029 $448 $533 forward @7 unknown #
point $-1 -1 $-1 0 0.88249999999999984 0.26549999999999985 #
coedge $-1 -1 $-1 $448 $344 $539 $540 reversed $449 $-1 #
coedge $-1 -1 $-1 $344 $447 $349 $445 reversed $449 $-1 #
loop $-1 -1 $-1 $-1 $344 $535 #
coedge $-1 -1 $-1 $541 $346 $513 $453 forward $419 $-1 #
coedge $-1 -1 $-1 $346 $541 $515 $358 reversed $419 $-1 #
coedge $-1 -1 $-1 $355 $539 $165 $243 reversed $461 $-1 #
edge $-1 -1 $-1 $347 0 $542 0.26549999999999985 $513 $543 forward @7 unknown #
point $-1 -1 $-1 -0.26550000000000029 0.88249999999999984 0 #
coedge $-1 -1 $-1 $350 $349 $460 $544 forward $352 $-1 #
coedge $-1 -1 $-1 $531 $351 $467 $360 forward $329 $-1 #
face $-1 -1 $-1 $545 $352 $41 $-1 $330 forward single #
vertex $-1 -1 $-1 $544 $546 #
straight-curve $-1 -1 $-1 0 -0.88249999999999984 0.26549999999999985 1 0 0 I I #
coedge $-1 -1 $-1 $539 $355 $455 $544 reversed $461 $-1 #
loop $-1 -1 $-1 $-1 $452 $547 #
straight-curve $-1 -1 $-1 -0.26550000000000029 -0.88249999999999984 0 0 0 -1 I I #
face $-1 -1 $-1 $548 $523 $41 $-1 $464 reversed single #
plane-surface $-1 -1 $-1 0 -0.88249999999999984 0 0 1 0 0 0 1 forward_v I I I I #
vertex $-1 -1 $-1 $549 $550 #
vertex $-1 -1 $-1 $551 $552 #
coedge $-1 -1 $-1 $431 $522 $456 $360 reversed $523 $-1 #
model_id-kcp-attrib $-1 -1 $-1 $-1 $363 1 1021323398 1021323399 -1253113855 9 #
loop $-1 -1 $-1 $553 $490 $363 #
cone-surface $-1 -1 $-1 3.0051999999999999 4.4379999999999997 4.1302000000000003 0 1 0 0.088388347648318433 0 0.088388347648318433 1 I I 0.70710678118654702 0.70710678118654802 0.125 forward I I I I #
loop $-1 -1 $-1 $-1 $473 $253 #
coedge $-1 -1 $-1 $472 $472 $554 $555 forward $364 $-1 #
coedge $-1 -1 $-1 $473 $473 $366 $474 reversed $471 $-1 #
edge $556 -1 $-1 $557 -3.1415926535897931 $557 3.1415926535897931 $473 $558 forward @7 unknown #
loop $-1 -1 $-1 $559 $367 $560 #
attrib_edge_convexity-kcp-attrib $-1 -1 $561 $-1 $368 1 #
vertex $-1 -1 $-1 $368 $562 #
ellipse-curve $-1 -1 $-1 3.0051999999999999 3.1719999999999997 4.1302000000000003 0 -1 0 0.16581654018824538 0 0.16581654018824538 1 I I #
loop $-1 -1 $-1 $-1 $369 $563 #
attrib_edge_convexity-kcp-attrib $-1 -1 $564 $-1 $370 1 #
vertex $-1 -1 $-1 $370 $565 #
ellipse-curve $-1 -1 $-1 3.0051999999999999 3.218 4.1302000000000003 0 1 0 0.18773685040502835 0 0.18773685040502835 1 I I #
face $566 -1 $-1 $563 $371 $11 $-1 $567 forward single #
convexity-sys-attrib $-1 -1 $-1 $372 $259 #
point $-1 -1 $-1 2.8506971683107394 3.218 3.9756971683107398 #
convexity-sys-attrib $-1 -1 $-1 $376 $261 #
point $-1 -1 $-1 3.1597028316892604 3.6859999999999995 4.2847028316892608 #
model_id-kcp-attrib $-1 -1 $-1 $-1 $379 1 1021323398 1021323399 -1253113855 11 #
cone-surface $-1 -1 $-1 3.0051999999999999 3.0837499999999993 4.1302000000000003 0 1 0 -0.13258252147247765 0 -0.13258252147247765 1 I I 0 1 0.1875 forward I I I I #
coedge $-1 -1 $-1 $490 $490 $383 $491 forward $469 $-1 #
edge $-1 -1 $-1 $568 -3.1415926535897962 $568 3.14159265358979 $383 $569 forward @7 unknown #
straight-curve $-1 -1 $-1 -0.26550000000000029 0.88249999999999984 0 0 0 -1 I I #
point $-1 -1 $-1 -0.26550000000000029 -0.88249999999999984 -0.26549999999999985 #
straight-curve $-1 -1 $-1 -0.26550000000000029 0 -0.26549999999999985 0 1 0 I I #
point $-1 -1 $-1 -0.26550000000000029 0.88249999999999984 -0.26549999999999985 #
point $-1 -1 $-1 0.18773685040502835 -0.83649999999999958 0.18773685040502835 #
point $-1 -1 $-1 0.12499999999999999 0 0.029999999999999805 #
point $-1 -1 $-1 0.26549999999999996 0 0.015499999999999847 #
point $-1 -1 $-1 0.18773685040502835 -0.36849999999999961 0.18773685040502835 #
face $-1 -1 $-1 $442 $570 $41 $-1 $536 reversed single #
loop $-1 -1 $-1 $-1 $435 $418 #
plane-surface $-1 -1 $-1 0.26550000000000029 0 0 -1 0 0 0 0 1 forward_v I I I I #
coedge $-1 -1 $-1 $422 $421 $237 $337 forward $235 $-1 #
coedge $-1 -1 $-1 $571 $572 $421 $505 forward $573 $-1 #
edge $-1 -1 $-1 $437 -2.3561944901923453 $428 -0.7853981633974485 $504 $251 forward @7 unknown #
coedge $-1 -1 $-1 $574 $575 $422 $507 forward $570 $-1 #
edge $-1 -1 $-1 $429 0.7853981633974485 $341 2.3561944901923453 $506 $343 forward @7 unknown #
coedge $-1 -1 $-1 $576 $423 $575 $520 forward $511 $-1 #
coedge $-1 -1 $-1 $423 $576 $571 $577 forward $511 $-1 #
coedge $-1 -1 $-1 $578 $579 $236 $334 reversed $580 $-1 #
loop $-1 -1 $-1 $-1 $423 $545 #
coedge $-1 -1 $-1 $513 $424 $579 $581 reversed $514 $-1 #
coedge $-1 -1 $-1 $424 $512 $450 $453 reversed $514 $-1 #
loop $-1 -1 $-1 $-1 $424 $582 #
coedge $-1 -1 $-1 $516 $426 $451 $358 forward $517 $-1 #
coedge $-1 -1 $-1 $426 $515 $578 $518 reversed $517 $-1 #
loop $-1 -1 $-1 $-1 $426 $583 #
edge $-1 -1 $-1 $428 0 $465 0.26550000000000029 $516 $584 forward @7 unknown #
point $-1 -1 $-1 0 -0.88249999999999984 -0.26549999999999985 #
edge $-1 -1 $-1 $429 0 $537 0.26550000000000029 $575 $585 forward @7 unknown #
point $-1 -1 $-1 0 0.88249999999999984 -0.26549999999999985 #
coedge $-1 -1 $-1 $467 $431 $434 $525 reversed $523 $-1 #
loop $-1 -1 $-1 $-1 $431 $463 #
coedge $-1 -1 $-1 $434 $433 $531 $551 reversed $436 $-1 #
edge $-1 -1 $-1 $466 -0.26549999999999985 $437 0 $434 $586 forward @7 unknown #
coedge $-1 -1 $-1 $587 $435 $572 $529 forward $501 $-1 #
coedge $-1 -1 $-1 $435 $587 $574 $443 reversed $501 $-1 #
face $-1 -1 $-1 $-1 $436 $41 $-1 $502 reversed single #
edge $-1 -1 $-1 $437 0 $588 0.26549999999999985 $526 $586 forward @7 unknown #
point $-1 -1 $-1 0.26550000000000029 -0.88249999999999984 0 #
coedge $-1 -1 $-1 $439 $456 $524 $551 forward $329 $-1 #
vertex $-1 -1 $-1 $551 $589 #
straight-curve $-1 -1 $-1 0 0.88249999999999984 0.26549999999999985 -1 0 0 I I #
straight-curve $-1 -1 $-1 0.26550000000000029 0.88249999999999984 0 0 0 -1 I I #
face $-1 -1 $-1 $582 $449 $41 $-1 $536 reversed single #
plane-surface $-1 -1 $-1 0 0.88249999999999984 0 0 -1 0 0 0 -1 forward_v I I I I #
vertex $-1 -1 $-1 $590 $591 #
vertex $-1 -1 $-1 $445 $592 #
coedge $-1 -1 $-1 $452 $460 $447 $540 forward $461 $-1 #
edge $-1 -1 $-1 $538 -0.26549999999999985 $347 0 $447 $543 forward @7 unknown #
coedge $-1 -1 $-1 $451 $450 $593 $549 reversed $419 $-1 #
vertex $-1 -1 $-1 $581 $594 #
straight-curve $-1 -1 $-1 -0.26550000000000029 0.88249999999999984 0 0 0 -1 I I #
edge $-1 -1 $-1 $538 -0.88249999999999984 $458 0.88249999999999984 $460 $595 forward @7 unknown #
face $-1 -1 $-1 $547 $511 $41 $-1 $596 reversed single #
point $-1 -1 $-1 -0.26550000000000029 -0.88249999999999984 0.26549999999999985 #
face $-1 -1 $-1 $528 $461 $41 $-1 $420 reversed single #
face $-1 -1 $-1 $597 $573 $41 $-1 $464 reversed single #
edge $-1 -1 $-1 $465 -0.88249999999999984 $542 0.88249999999999984 $541 $598 forward @7 unknown #
point $-1 -1 $-1 -0.26550000000000029 -0.88249999999999984 -0.26549999999999985 #
edge $-1 -1 $-1 $466 -0.88249999999999984 $532 0.88249999999999984 $524 $599 forward @7 unknown #
point $-1 -1 $-1 0.26550000000000029 -0.88249999999999984 0.26549999999999985 #
loop $-1 -1 $-1 $-1 $554 $363 #
coedge $-1 -1 $-1 $554 $554 $472 $555 reversed $553 $-1 #
edge $-1 -1 $-1 $600 -3.1415926535897931 $600 3.1415926535897931 $554 $601 forward @7 unknown #
attrib_edge_convexity-kcp-attrib $-1 -1 $602 $-1 $474 1 #
vertex $-1 -1 $-1 $474 $603 #
ellipse-curve $-1 -1 $-1 3.0051999999999999 4.8769999999999998 4.1302000000000003 0 1 0 0.088388347648318433 0 0.088388347648318433 1 I I #
loop $-1 -1 $-1 $-1 $604 $560 #
face $605 -1 $-1 $-1 $475 $11 $-1 $606 forward single #
convexity-sys-attrib $-1 -1 $-1 $476 $368 #
point $-1 -1 $-1 2.8393834598117547 3.1719999999999997 3.9643834598117551 #
face $607 -1 $-1 $560 $608 $11 $-1 $609 forward single #
convexity-sys-attrib $-1 -1 $-1 $480 $370 #
point $-1 -1 $-1 3.1929368504050282 3.218 4.3179368504050286 #
model_id-kcp-attrib $-1 -1 $-1 $-1 $483 1 1021323398 1021323399 -1253113855 12 #
cone-surface $-1 -1 $-1 3.0051999999999999 3.0837499999999993 4.1302000000000003 0 1 0 -0.15450283168926063 0 -0.15450283168926063 1 I I 0 1 0.2185 forward I I I I #
vertex $-1 -1 $-1 $491 $610 #
ellipse-curve $-1 -1 $-1 3.0051999999999999 4.4079999999999995 4.1302000000000003 0 1 0 0.067175144212722013 0 0.067175144212722013 1 I I #
loop $-1 -1 $-1 $-1 $506 $500 #
coedge $-1 -1 $-1 $572 $504 $509 $577 reversed $573 $-1 #
coedge $-1 -1 $-1 $504 $571 $526 $529 reversed $573 $-1 #
loop $-1 -1 $-1 $-1 $504 $548 #
coedge $-1 -1 $-1 $575 $506 $527 $443 forward $570 $-1 #
coedge $-1 -1 $-1 $506 $574 $508 $520 reversed $570 $-1 #
coedge $-1 -1 $-1 $509 $508 $587 $590 forward $511 $-1 #
edge $-1 -1 $-1 $588 -0.26550000000000029 $428 0 $571 $584 forward @7 unknown #
coedge $-1 -1 $-1 $593 $510 $516 $518 forward $580 $-1 #
coedge $-1 -1 $-1 $510 $593 $512 $581 forward $580 $-1 #
loop $-1 -1 $-1 $-1 $510 $597 #
edge $-1 -1 $-1 $542 -0.26550000000000029 $429 0 $512 $585 forward @7 unknown #
face $-1 -1 $-1 $583 $514 $41 $-1 $536 reversed single #
face $-1 -1 $-1 $357 $517 $41 $-1 $464 reversed single #
straight-curve $-1 -1 $-1 0 -0.88249999999999984 -0.26549999999999985 -1 0 0 I I #
straight-curve $-1 -1 $-1 0 0.88249999999999984 -0.26549999999999985 1 0 0 I I #
straight-curve $-1 -1 $-1 0.26550000000000029 -0.88249999999999984 0 0 0 -1 I I #
coedge $-1 -1 $-1 $527 $526 $576 $590 reversed $501 $-1 #
vertex $-1 -1 $-1 $529 $611 #
point $-1 -1 $-1 0.26550000000000029 0.88249999999999984 0.26549999999999985 #
edge $-1 -1 $-1 $537 -0.88249999999999984 $588 0.88249999999999984 $587 $612 forward @7 unknown #
point $-1 -1 $-1 0.26550000000000029 0.88249999999999984 -0.26549999999999985 #
point $-1 -1 $-1 -0.26550000000000029 0.88249999999999984 0.26549999999999985 #
coedge $-1 -1 $-1 $579 $578 $541 $549 forward $580 $-1 #
point $-1 -1 $-1 -0.26550000000000029 0.88249999999999984 -0.26549999999999985 #
straight-curve $-1 -1 $-1 -0.26550000000000029 0 0.26549999999999985 0 -1 0 I I #
plane-surface $-1 -1 $-1 0 0 -0.26549999999999985 0 0 1 1 0 0 forward_v I I I I #
face $-1 -1 $-1 $457 $580 $41 $-1 $596 reversed single #
straight-curve $-1 -1 $-1 -0.26550000000000029 0 -0.26549999999999985 0 1 0 I I #
straight-curve $-1 -1 $-1 0.26550000000000029 0 0.26549999999999985 0 1 0 I I #
vertex $-1 -1 $-1 $555 $613 #
ellipse-curve $-1 -1 $-1 3.0051999999999999 4.4379999999999997 4.1302000000000003 0 1 0 0.088388347648318433 0 0.088388347648318433 1 I I #
convexity-sys-attrib $-1 -1 $-1 $556 $474 #
point $-1 -1 $-1 2.9168116523516816 4.8769999999999998 4.041811652351682 #
coedge $-1 -1 $-1 $604 $604 $614 $615 reversed $559 $-1 #
model_id-kcp-attrib $-1 -1 $-1 $-1 $560 1 1021323398 1021323399 -1253113855 14 #
cone-surface $-1 -1 $-1 3.0051999999999999 3.2029999999999994 4.1302000000000003 0 1 0 0.18773685040502835 0 0.18773685040502835 1 I I 0.70710678118654902 0.70710678118654602 0.26550000000000001 forward I I I I #
model_id-kcp-attrib $-1 -1 $-1 $-1 $563 1 1021323398 1021323399 -1253113855 13 #
loop $-1 -1 $-1 $479 $614 $563 #
cone-surface $-1 -1 $-1 3.0051999999999999 3.0837499999999993 4.1302000000000003 0 1 0 -0.18773685040502835 0 -0.18773685040502835 1 I I 0 1 0.26550000000000001 forward I I I I #
point $-1 -1 $-1 2.9380248557872779 4.4079999999999995 4.0630248557872779 #
point $-1 -1 $-1 0.26550000000000029 -0.88249999999999984 -0.26549999999999985 #
straight-curve $-1 -1 $-1 0.26550000000000029 0 -0.26549999999999985 0 -1 0 I I #
point $-1 -1 $-1 2.9168116523516816 4.4379999999999997 4.041811652351682 #
coedge $-1 -1 $-1 $614 $614 $604 $615 forward $608 $-1 #
edge $616 -1 $-1 $617 -3.1415926535897931 $617 3.1415926535897931 $604 $618 forward @7 unknown #
attrib_edge_convexity-kcp-attrib $-1 -1 $619 $-1 $615 1 #
vertex $-1 -1 $-1 $615 $620 #
ellipse-curve $-1 -1 $-1 3.0051999999999999 3.2029999999999994 4.1302000000000003 0 1 0 0.18773685040502835 0 0.18773685040502835 1 I I #
convexity-sys-attrib $-1 -1 $-1 $616 $615 #
point $-1 -1 $-1 2.8174631495949716 3.2029999999999994 3.942463149594972 #
End-of-ACIS-data 