106 0 1 0           
body $-1 $1 $-1 $2 #
lump $-1 $-1 $3 $0 #
transform $-1 -0.70710678118654746 0 -0.70710678118654746 0 -1 0 -0.70710678118654746 0 0.70710678118654746 3.0052 4.3420 4.1302 1 0 0 0 #
shell $-1 $-1 $-1 $4 $1 #
face $-1 $5 $6 $3 $-1 $7 reversed single #
face $-1 $8 $9 $3 $-1 $10 forward single #
loop $-1 $11 $12 $4 #
plane-surface $-1 0 0 0 0 1 0 0 0 1 0 I I I I #
face $-1 $13 $14 $3 $-1 $15 forward single #
loop $-1 $16 $17 $5 #
plane-surface $-1 0 0.06199999999999999956 0 0 1 0 0 0 1 0 I I I I #
loop $-1 $-1 $18 $4 #
coedge $-1 $12 $12 $19 $20 0 $6 $-1 #
face $-1 $21 $22 $3 $-1 $23 forward single #
loop $-1 $24 $25 $8 #
cone-surface $-1 0 0 0 0 1 0 0.4844999999999999862 0 0 1 I I 0 1 0 I I I I #
loop $-1 $-1 $26 $5 #
coedge $-1 $17 $17 $25 $27 1 $9 $-1 #
coedge $-1 $18 $18 $28 $29 0 $11 $-1 #
coedge $-1 $19 $19 $12 $20 1 $24 $-1 #
edge $-1 $30 $30 $19 $31 0 #
face $-1 $32 $33 $3 $-1 $34 forward single #
loop $-1 $35 $36 $13 #
plane-surface $-1 0 0.2810000000000000275 0 0 1 0 0 0 1 0 I I I I #
loop $-1 $-1 $19 $8 #
coedge $-1 $25 $25 $17 $27 0 $14 $-1 #
coedge $-1 $26 $26 $37 $38 0 $16 $-1 #
edge $-1 $39 $39 $25 $40 0 #
coedge $-1 $28 $28 $18 $29 1 $41 $-1 #
edge $-1 $42 $42 $28 $43 0 #
vertex $-1 $20 $44 #
ellipse-curve $-1 0 0 0 0 -1 0 -0.4844999999999999862 0 0 1 I I #
face $-1 $-1 $45 $3 $-1 $46 reversed single #
loop $-1 $47 $48 $21 #
cone-surface $-1 0 0.06199999999999999956 0 0 1 0 0.4375 0 0 1 I I 0 1 0 I I I I #
loop $-1 $-1 $49 $13 #
coedge $-1 $36 $36 $48 $50 1 $22 $-1 #
coedge $-1 $37 $37 $26 $38 1 $47 $-1 #
edge $-1 $51 $51 $37 $52 0 #
vertex $-1 $27 $53 #
ellipse-curve $-1 0 0.06199999999999999956 0 0 -1 0 0.4844999999999999862 0 0 1 I I #
loop $-1 $-1 $28 $32 #
vertex $-1 $29 $54 #
ellipse-curve $-1 0 0 0 0 1 0 -0.1875 0 0 1 I I #
point $-1 0.4844999999999999862 0 0 #
loop $-1 $41 $55 $32 #
cone-surface $-1 0 0.2810000000000000275 0 0 -1 0 0.1875 0 0 1 I I 0 1 0 I I I I #
loop $-1 $-1 $37 $21 #
coedge $-1 $48 $48 $36 $50 0 $33 $-1 #
coedge $-1 $49 $49 $55 $56 1 $35 $-1 #
edge $-1 $57 $57 $48 $58 0 #
vertex $-1 $38 $59 #
ellipse-curve $-1 0 0.06199999999999999956 0 0 -1 0 -0.4375 0 0 1 I I #
point $-1 0.4844999999999999862 0.06199999999999999956 0 #
point $-1 0.1875 0 0 #
coedge $-1 $55 $55 $49 $56 0 $45 $-1 #
edge $-1 $60 $60 $55 $61 0 #
vertex $-1 $50 $62 #
ellipse-curve $-1 0 0.2810000000000000275 0 0 -1 0 0.4375 0 0 1 I I #
point $-1 0.4375 0.06199999999999999956 0 #
vertex $-1 $56 $63 #
ellipse-curve $-1 0 0.2810000000000000275 0 0 1 0 0.1875 0 0 1 I I #
point $-1 0.4375 0.2810000000000000275 0 #
point $-1 0.1875 0.2810000000000000275 0 #
End-of-ACIS-data 