700 0 2 0           
24 FBMach with ACIS - 7.0.3 13 ACIS 7.0.3 NT 24 Mon May 13 16:56:48 2002 
1 9.9999999999999995e-007 1e-010 
body $2 -1 $-1 $3 $-1 $4 #
bdycol-kcp $-1 -1 1 6 $5 $6 $7 $8 $9 $10 #
model_id-kcp-attrib $-1 -1 $-1 $-1 $0 1 1021323407 1021323407 1423966209 1 #
lump $-1 -1 $-1 $-1 $11 $0 #
transform $-1 -1 1 0 0 0 1 0 0 0 1 0 0 0 1 rotate no_reflect no_shear #
body $12 -1 $-1 $13 $-1 $14 #
body $15 -1 $-1 $16 $-1 $17 #
body $18 -1 $-1 $19 $-1 $20 #
body $21 -1 $-1 $22 $-1 $23 #
body $24 -1 $-1 $25 $-1 $26 #
body $27 -1 $-1 $28 $-1 $29 #
shell $-1 -1 $-1 $-1 $-1 $30 $-1 $3 #
model_id-kcp-attrib $-1 -1 $-1 $-1 $5 1 1021323407 1021323407 1423966210 1 #
lump $-1 -1 $-1 $-1 $31 $5 #
transform $-1 -1 1 0 0 0 1 0 0 0 1 3.0051999999999999 -4.0384999999999991 4.1302000000000003 1 no_rotate no_reflect no_shear #
rgb_color-st-attrib $-1 -1 $32 $-1 $6 1 1 0.5 #
lump $-1 -1 $-1 $-1 $33 $6 #
transform $-1 -1 1 0 0 0 0 1 0 -1 0 3.0051999999999999 -4.891 4.1302000000000003 1 rotate no_reflect no_shear #
rgb_color-st-attrib $-1 -1 $34 $-1 $7 1 1 0.5 #
lump $-1 -1 $-1 $-1 $35 $7 #
transform $-1 -1 -1 0 0 0 0 1 0 1 0 3.0051999999999999 -3.1714999999999995 4.1302000000000003 1 rotate no_reflect no_shear #
rgb_color-st-attrib $-1 -1 $36 $-1 $8 1 0.5 1 #
lump $-1 -1 $-1 $-1 $37 $8 #
transform $-1 -1 1 0 0 0 1 0 0 0 1 3.0051999999999999 -4.0384999999999991 4.1302000000000003 1 no_rotate no_reflect no_shear #
rgb_color-st-attrib $-1 -1 $38 $-1 $9 1 0.5 1 #
lump $-1 -1 $-1 $-1 $39 $9 #
transform $-1 -1 1 0 0 0 1 0 0 0 1 3.0051999999999999 -4.0384999999999991 4.1302000000000003 1 no_rotate no_reflect no_shear #
rgb_color-st-attrib $-1 -1 $40 $-1 $10 0.5 1 1 #
lump $-1 -1 $-1 $-1 $41 $10 #
transform $-1 -1 1 0 0 0 1 0 0 0 1 3.0051999999999999 -4.0384999999999991 4.1302000000000003 1 no_rotate no_reflect no_shear #
face $42 -1 $-1 $43 $44 $11 $-1 $45 forward single #
shell $-1 -1 $-1 $-1 $-1 $46 $-1 $13 #
model_id-kcp-attrib $-1 -1 $-1 $15 $6 1 1021323407 1021323408 1409417219 1 #
shell $-1 -1 $-1 $-1 $-1 $47 $-1 $16 #
model_id-kcp-attrib $-1 -1 $-1 $18 $7 1 1021323407 1021323408 1409417220 1 #
shell $-1 -1 $-1 $-1 $-1 $48 $-1 $19 #
model_id-kcp-attrib $-1 -1 $-1 $21 $8 1 1021323407 1021323408 1409679366 1 #
shell $-1 -1 $-1 $-1 $-1 $49 $-1 $22 #
model_id-kcp-attrib $-1 -1 $-1 $24 $9 1 1021323407 1021323408 1414266887 1 #
shell $-1 -1 $-1 $-1 $-1 $50 $-1 $25 #
model_id-kcp-attrib $-1 -1 $-1 $27 $10 1 1021323407 1021323408 1415315461 1 #
shell $-1 -1 $-1 $-1 $-1 $51 $-1 $28 #
model_id-kcp-attrib $-1 -1 $-1 $-1 $30 1 1021323407 1021323407 1423966209 2 #
face $52 -1 $-1 $53 $54 $11 $-1 $55 forward single #
loop $-1 -1 $-1 $-1 $56 $30 #
plane-surface $-1 -1 $-1 3.0051999999999999 -4.9209999999999994 4.1302000000000003 0 -1 0 0.70710678118654746 0 0.70710678118654746 forward_v I I I I #
face $-1 -1 $-1 $57 $58 $31 $-1 $59 forward single #
face $-1 -1 $-1 $60 $61 $33 $-1 $62 reversed single #
face $-1 -1 $-1 $63 $64 $35 $-1 $65 reversed single #
face $-1 -1 $-1 $66 $67 $37 $-1 $68 forward single #
face $-1 -1 $-1 $69 $70 $39 $-1 $71 forward single #
face $-1 -1 $-1 $72 $73 $41 $-1 $74 reversed single #
model_id-kcp-attrib $-1 -1 $-1 $-1 $43 1 1021323407 1021323407 1423966209 3 #
face $75 -1 $-1 $76 $77 $11 $-1 $78 forward single #
loop $-1 -1 $-1 $79 $80 $43 #
plane-surface $-1 -1 $-1 3.0051999999999999 -4.3419999999999996 4.1302000000000003 0 -1 0 0.70710678118654746 0 0.70710678118654746 forward_v I I I I #
coedge $-1 -1 $-1 $56 $56 $81 $82 forward $44 $-1 #
face $-1 -1 $-1 $83 $84 $31 $-1 $85 reversed single #
loop $-1 -1 $-1 $-1 $86 $46 #
plane-surface $-1 -1 $-1 0 0 0.26549999999999985 0 0 1 1 0 0 forward_v I I I I #
face $-1 -1 $-1 $87 $88 $33 $-1 $89 forward single #
loop $-1 -1 $-1 $90 $91 $47 #
cone-surface $-1 -1 $-1 0 0 0.032499999999999751 0 0 1 0.062499999999999993 0 0 1 I I -0.70710678118654746 0.70710678118654757 0.062499999999999993 forward I I I I #
face $-1 -1 $-1 $92 $93 $35 $-1 $94 forward single #
loop $-1 -1 $-1 $95 $96 $48 #
cone-surface $-1 -1 $-1 0 0 0.11724999999999985 0 0 1 0.13274999999999998 0 0 1 I I -0.70710678118654879 0.70710678118654613 0.13274999999999998 forward I I I I #
face $-1 -1 $-1 $97 $98 $37 $-1 $99 forward single #
loop $-1 -1 $-1 $100 $101 $49 #
cone-surface $-1 -1 $-1 0 0.83649999999999958 0 0 -1 0 -0.15450283168926063 0 -0.15450283168926063 1 I I 0 -1 0.21849999999999997 forward I I I I #
face $-1 -1 $-1 $102 $103 $39 $-1 $104 forward single #
loop $-1 -1 $-1 $105 $106 $50 #
cone-surface $-1 -1 $-1 0 0.36849999999999938 0 0 -1 0 -0.13258252147247765 0 -0.13258252147247765 1 I I 0 -1 0.18749999999999997 forward I I I I #
face $-1 -1 $-1 $107 $108 $41 $-1 $74 reversed single #
loop $-1 -1 $-1 $-1 $109 $51 #
cone-surface $-1 -1 $-1 0 -0.88250000000000028 0 0 -1 0 0.1877368504050283 0 0.18773685040502841 1 I I 0 1 0.26549999999999996 forward I I I I #
model_id-kcp-attrib $-1 -1 $-1 $-1 $53 1 1021323407 1021323407 1423966209 4 #
face $110 -1 $-1 $111 $112 $11 $-1 $113 forward single #
loop $-1 -1 $-1 $114 $115 $53 #
plane-surface $-1 -1 $-1 3.0051999999999999 -3.6699999999999995 4.1302000000000003 0 -1 0 0.70710678118654746 0 0.70710678118654746 forward_v I I I I #
loop $-1 -1 $-1 $-1 $116 $43 #
coedge $-1 -1 $-1 $80 $80 $117 $118 forward $54 $-1 #
coedge $-1 -1 $-1 $81 $81 $56 $82 reversed $119 $-1 #
edge $120 -1 $-1 $121 0 $121 6.2831853071795862 $81 $122 forward @7 unknown #
face $123 -1 $-1 $124 $125 $31 $-1 $126 reversed single #
loop $-1 -1 $-1 $-1 $127 $57 #
plane-surface $-1 -1 $-1 0 0 -0.26549999999999985 0 0 1 1 0 0 forward_v I I I I #
coedge $-1 -1 $-1 $128 $129 $130 $131 forward $58 $-1 #
face $-1 -1 $-1 $-1 $132 $33 $-1 $133 forward single #
loop $-1 -1 $-1 $134 $135 $60 #
cone-surface $-1 -1 $-1 0 0 0 0 0 1 0.12499999999999999 0 0 1 I I 0 1 0.12499999999999999 forward I I I I #
loop $-1 -1 $-1 $-1 $136 $47 #
coedge $-1 -1 $-1 $91 $91 $137 $138 reversed $61 $-1 #
face $-1 -1 $-1 $-1 $139 $35 $-1 $140 forward single #
loop $-1 -1 $-1 $141 $142 $63 #
cone-surface $-1 -1 $-1 0 0 0 0 0 1 0.26549999999999996 0 0 1 I I 0 1 0.26549999999999996 forward I I I I #
loop $-1 -1 $-1 $-1 $143 $48 #
coedge $-1 -1 $-1 $96 $96 $144 $145 reversed $64 $-1 #
face $-1 -1 $-1 $146 $147 $37 $-1 $148 reversed single #
loop $-1 -1 $-1 $149 $150 $66 #
cone-surface $-1 -1 $-1 0 0.83649999999999958 0 0 -1 0 0.1877368504050283 0 0.18773685040502841 1 I I 0 1 0.26549999999999996 forward I I I I #
loop $-1 -1 $-1 $-1 $151 $49 #
coedge $-1 -1 $-1 $101 $101 $152 $153 forward $67 $-1 #
face $-1 -1 $-1 $154 $155 $39 $-1 $156 reversed single #
loop $-1 -1 $-1 $157 $158 $69 #
cone-surface $-1 -1 $-1 0 0.36849999999999938 0 0 -1 0 0.1877368504050283 0 0.18773685040502841 1 I I 0 1 0.26549999999999996 forward I I I I #
loop $-1 -1 $-1 $-1 $159 $50 #
coedge $-1 -1 $-1 $106 $106 $160 $161 forward $70 $-1 #
face $-1 -1 $-1 $162 $163 $41 $-1 $74 reversed single #
loop $-1 -1 $-1 $-1 $164 $72 #
coedge $-1 -1 $-1 $165 $166 $167 $168 reversed $73 $-1 #
model_id-kcp-attrib $-1 -1 $-1 $-1 $76 1 1021323407 1021323407 1423966209 5 #
face $169 -1 $-1 $170 $171 $11 $-1 $172 reversed single #
loop $-1 -1 $-1 $173 $174 $76 #
plane-surface $-1 -1 $-1 3.0051999999999999 -3.202 4.1302000000000003 0 -1 0 0.70710678118654746 0 0.70710678118654746 forward_v I I I I #
loop $-1 -1 $-1 $-1 $175 $53 #
coedge $-1 -1 $-1 $115 $115 $176 $177 forward $77 $-1 #
coedge $-1 -1 $-1 $116 $116 $178 $179 forward $79 $-1 #
coedge $-1 -1 $-1 $117 $117 $80 $118 reversed $180 $-1 #
edge $-1 -1 $-1 $181 -3.1415926535897962 $181 3.14159265358979 $80 $182 forward @7 unknown #
loop $-1 -1 $-1 $-1 $81 $170 #
attrib_edge_convexity-kcp-attrib $-1 -1 $183 $-1 $82 1 #
vertex $-1 -1 $-1 $82 $184 #
ellipse-curve $-1 -1 $-1 3.0051999999999999 -4.9209999999999994 4.1302000000000003 0 -1 0 0.045961940777125586 0 0.045961940777125586 1 I I #
model_id-kcp-attrib $-1 -1 $-1 $-1 $83 1 1021323407 1021323407 1423966210 2 #
face $-1 -1 $-1 $185 $186 $31 $-1 $187 reversed single #
loop $-1 -1 $-1 $-1 $188 $83 #
plane-surface $-1 -1 $-1 0 -0.88249999999999984 0 0 1 0 0 0 1 forward_v I I I I #
coedge $-1 -1 $-1 $189 $190 $191 $192 forward $84 $-1 #
coedge $-1 -1 $-1 $193 $86 $194 $195 forward $58 $-1 #
coedge $-1 -1 $-1 $86 $193 $196 $197 forward $58 $-1 #
coedge $-1 -1 $-1 $198 $199 $86 $131 reversed $200 $-1 #
edge $-1 -1 $-1 $201 -0.88249999999999984 $202 0.88249999999999984 $130 $203 forward @7 unknown #
loop $-1 -1 $-1 $204 $137 $87 #
plane-surface $-1 -1 $-1 0 0 0.029999999999999805 0 0 1 1 0 0 forward_v I I I I #
loop $-1 -1 $-1 $-1 $205 $60 #
coedge $-1 -1 $-1 $135 $135 $136 $206 reversed $88 $-1 #
coedge $-1 -1 $-1 $136 $136 $135 $206 forward $90 $-1 #
coedge $-1 -1 $-1 $137 $137 $91 $138 forward $132 $-1 #
edge $-1 -1 $-1 $207 -3.1415926535897931 $207 3.1415926535897931 $137 $208 forward @7 unknown #
loop $-1 -1 $-1 $209 $144 $92 #
plane-surface $-1 -1 $-1 0 0 0.015499999999999847 0 0 1 1 0 0 forward_v I I I I #
loop $-1 -1 $-1 $-1 $210 $63 #
coedge $-1 -1 $-1 $142 $142 $143 $211 reversed $93 $-1 #
coedge $-1 -1 $-1 $143 $143 $142 $211 forward $95 $-1 #
coedge $-1 -1 $-1 $144 $144 $96 $145 forward $139 $-1 #
edge $-1 -1 $-1 $212 -3.1415926535897931 $212 3.1415926535897931 $144 $213 forward @7 unknown #
face $-1 -1 $-1 $-1 $214 $37 $-1 $215 forward single #
loop $-1 -1 $-1 $216 $217 $97 #
plane-surface $-1 -1 $-1 -0.01570304329576229 0.36849999999999972 -0.015703043295762293 -2.0850361185085842e-032 1 -2.3456656333221571e-032 0 2.3456656333221571e-032 1 forward_v I I I I #
loop $-1 -1 $-1 $-1 $218 $66 #
coedge $-1 -1 $-1 $150 $150 $217 $219 forward $98 $-1 #
coedge $-1 -1 $-1 $151 $151 $220 $221 reversed $100 $-1 #
coedge $-1 -1 $-1 $152 $152 $101 $153 reversed $216 $-1 #
edge $-1 -1 $-1 $222 0 $222 6.2831853071795862 $101 $223 forward @7 unknown #
face $-1 -1 $-1 $-1 $224 $39 $-1 $225 forward single #
loop $-1 -1 $-1 $226 $227 $102 #
plane-surface $-1 -1 $-1 -0.014991642897576669 -0.30350000000000132 -0.01499164289757667 -2.3334330326283047e-032 1 -3.0626308553246513e-032 0 3.0626308553246513e-032 1 forward_v I I I I #
loop $-1 -1 $-1 $-1 $228 $69 #
coedge $-1 -1 $-1 $158 $158 $227 $229 forward $103 $-1 #
coedge $-1 -1 $-1 $159 $159 $230 $231 reversed $105 $-1 #
coedge $-1 -1 $-1 $160 $160 $106 $161 reversed $226 $-1 #
edge $-1 -1 $-1 $232 0 $232 6.2831853071795862 $106 $233 forward @7 unknown #
face $-1 -1 $-1 $234 $235 $41 $-1 $74 reversed single #
loop $-1 -1 $-1 $-1 $236 $107 #
coedge $-1 -1 $-1 $237 $238 $239 $240 reversed $108 $-1 #
coedge $-1 -1 $-1 $241 $109 $242 $243 forward $73 $-1 #
coedge $-1 -1 $-1 $109 $241 $244 $245 reversed $73 $-1 #
coedge $-1 -1 $-1 $246 $247 $109 $168 forward $248 $-1 #
edge $-1 -1 $-1 $249 -0.78539816339744861 $250 0.78539816339744806 $167 $251 forward @7 unknown #
model_id-kcp-attrib $-1 -1 $-1 $-1 $111 1 1021323407 1021323407 1423966209 6 #
face $252 -1 $-1 $253 $254 $11 $-1 $255 forward single #
loop $-1 -1 $-1 $-1 $256 $111 #
plane-surface $-1 -1 $-1 3.0051999999999999 -3.1559999999999997 4.1302000000000003 0 -1 0 0.70710678118654746 0 0.70710678118654746 forward_v I I I I #
loop $-1 -1 $-1 $-1 $257 $76 #
coedge $-1 -1 $-1 $174 $174 $258 $259 forward $112 $-1 #
coedge $-1 -1 $-1 $175 $175 $260 $261 forward $114 $-1 #
coedge $-1 -1 $-1 $176 $176 $115 $177 reversed $262 $-1 #
edge $263 -1 $-1 $264 -3.1415926535897931 $264 3.1415926535897931 $115 $265 forward @7 unknown #
coedge $-1 -1 $-1 $178 $178 $116 $179 reversed $266 $-1 #
edge $-1 -1 $-1 $267 0 $267 6.2831853071795862 $178 $268 forward @7 unknown #
loop $-1 -1 $-1 $269 $117 $270 #
vertex $-1 -1 $-1 $118 $271 #
ellipse-curve $-1 -1 $-1 3.0051999999999999 -4.3419999999999996 4.1302000000000003 0 1 0 0.067175144212722013 0 0.067175144212722013 1 I I #
convexity-sys-attrib $-1 -1 $-1 $120 $82 #
point $-1 -1 $-1 3.0511619407771255 -4.9209999999999994 4.176161940777126 #
face $272 -1 $-1 $273 $274 $31 $-1 $275 reversed single #
loop $-1 -1 $-1 $-1 $276 $124 #
plane-surface $-1 -1 $-1 -0.26550000000000029 0 0 1 0 0 0 0 -1 forward_v I I I I #
coedge $-1 -1 $-1 $277 $196 $278 $279 forward $125 $-1 #
coedge $-1 -1 $-1 $280 $127 $277 $281 forward $84 $-1 #
coedge $-1 -1 $-1 $127 $280 $282 $283 forward $84 $-1 #
coedge $-1 -1 $-1 $199 $198 $127 $192 reversed $200 $-1 #
edge $-1 -1 $-1 $284 -0.88249999999999984 $285 0.88249999999999984 $191 $286 forward @7 unknown #
coedge $-1 -1 $-1 $129 $128 $287 $288 forward $58 $-1 #
coedge $-1 -1 $-1 $289 $290 $128 $195 reversed $274 $-1 #
edge $-1 -1 $-1 $202 -0.26550000000000029 $291 0.26550000000000029 $194 $292 forward @7 unknown #
coedge $-1 -1 $-1 $188 $293 $129 $197 reversed $125 $-1 #
edge $-1 -1 $-1 $294 -0.26550000000000029 $201 0.26550000000000029 $196 $295 forward @7 unknown #
coedge $-1 -1 $-1 $191 $130 $293 $296 forward $200 $-1 #
coedge $-1 -1 $-1 $130 $191 $289 $297 reversed $200 $-1 #
loop $-1 -1 $-1 $-1 $198 $273 #
vertex $-1 -1 $-1 $131 $298 #
vertex $-1 -1 $-1 $131 $299 #
straight-curve $-1 -1 $-1 0.26550000000000029 0 0.26549999999999985 0 1 0 I I #
loop $-1 -1 $-1 $-1 $300 $87 #
coedge $-1 -1 $-1 $205 $205 $300 $301 reversed $134 $-1 #
edge $-1 -1 $-1 $302 0 $302 6.2831853071795862 $135 $303 forward @7 unknown #
vertex $-1 -1 $-1 $138 $304 #
ellipse-curve $-1 -1 $-1 0 0 0.029999999999999805 0 0 -1 0.064999999999999933 0 0 1 I I #
loop $-1 -1 $-1 $-1 $305 $92 #
coedge $-1 -1 $-1 $210 $210 $305 $306 reversed $141 $-1 #
edge $-1 -1 $-1 $307 0 $307 6.2831853071795862 $142 $308 forward @7 unknown #
vertex $-1 -1 $-1 $145 $309 #
ellipse-curve $-1 -1 $-1 0 0 0.015499999999999847 0 0 -1 0.23450000000000037 0 0 1 I I #
loop $-1 -1 $-1 $310 $311 $146 #
plane-surface $-1 -1 $-1 -0.01570304329576229 0.83649999999999924 -0.015703043295762293 -2.0850361185085842e-032 1 -2.3456656333221571e-032 0 2.3456656333221571e-032 1 forward_v I I I I #
loop $-1 -1 $-1 $-1 $152 $97 #
coedge $-1 -1 $-1 $217 $217 $150 $219 reversed $147 $-1 #
coedge $-1 -1 $-1 $218 $218 $311 $312 reversed $149 $-1 #
edge $-1 -1 $-1 $313 -3.1415926535897931 $313 3.1415926535897931 $150 $314 forward @7 unknown #
coedge $-1 -1 $-1 $220 $220 $151 $221 forward $310 $-1 #
edge $315 -1 $-1 $316 0 $316 6.2831853071795862 $151 $317 forward @7 unknown #
vertex $-1 -1 $-1 $153 $318 #
ellipse-curve $-1 -1 $-1 0 0.36850000000000005 0 0 -1 0 -0.15450283168926063 0 -0.15450283168926063 1 I I #
loop $-1 -1 $-1 $319 $320 $154 #
plane-surface $-1 -1 $-1 -0.014991642897576669 0.36849999999999927 -0.01499164289757667 -2.3334330326283047e-032 1 -3.0626308553246513e-032 0 3.0626308553246513e-032 1 forward_v I I I I #
loop $-1 -1 $-1 $-1 $160 $102 #
coedge $-1 -1 $-1 $227 $227 $158 $229 reversed $155 $-1 #
coedge $-1 -1 $-1 $228 $228 $320 $321 reversed $157 $-1 #
edge $-1 -1 $-1 $322 -3.1415926535897931 $322 3.1415926535897931 $158 $323 forward @7 unknown #
coedge $-1 -1 $-1 $230 $230 $159 $231 forward $319 $-1 #
edge $324 -1 $-1 $325 0 $325 6.2831853071795862 $159 $326 forward @7 unknown #
vertex $-1 -1 $-1 $161 $327 #
ellipse-curve $-1 -1 $-1 0 -0.30350000000000121 0 0 -1 0 -0.13258252147247765 0 -0.13258252147247765 1 I I #
face $-1 -1 $-1 $328 $329 $41 $-1 $330 forward single #
loop $-1 -1 $-1 $-1 $331 $162 #
coedge $-1 -1 $-1 $332 $333 $331 $334 forward $163 $-1 #
coedge $-1 -1 $-1 $335 $164 $336 $337 reversed $108 $-1 #
coedge $-1 -1 $-1 $164 $335 $166 $245 forward $108 $-1 #
coedge $-1 -1 $-1 $338 $339 $164 $240 forward $340 $-1 #
edge $-1 -1 $-1 $341 -2.3561944901923448 $342 -0.78539816339744806 $239 $343 forward @7 unknown #
coedge $-1 -1 $-1 $166 $165 $344 $345 reversed $73 $-1 #
coedge $-1 -1 $-1 $333 $332 $346 $243 reversed $163 $-1 #
edge $-1 -1 $-1 $249 -1.7650000000000001 $347 -4.4408920985006262e-016 $346 $348 forward @7 unknown #
coedge $-1 -1 $-1 $349 $350 $351 $245 forward $352 $-1 #
edge $-1 -1 $-1 $250 -1.7650000000000001 $342 -4.4408920985006262e-016 $244 $353 forward @7 unknown #
coedge $-1 -1 $-1 $247 $167 $350 $354 reversed $248 $-1 #
coedge $-1 -1 $-1 $167 $246 $355 $356 forward $248 $-1 #
loop $-1 -1 $-1 $-1 $167 $357 #
vertex $-1 -1 $-1 $358 $359 #
vertex $-1 -1 $-1 $360 $361 #
ellipse-curve $-1 -1 $-1 0 0.88249999999999984 0 0 -1 0 0.1877368504050283 0 0.18773685040502841 1 I I #
model_id-kcp-attrib $-1 -1 $-1 $-1 $170 1 1021323407 1021323407 1423966209 7 #
face $362 -1 $-1 $363 $364 $11 $-1 $365 forward single #
loop $-1 -1 $-1 $119 $366 $170 #
cone-surface $-1 -1 $-1 3.0051999999999999 -4.8609999999999998 4.1302000000000003 0 1 0 0.088388347648318433 0 0.088388347648318433 1 I I 0.70710678118654702 0.70710678118654802 0.125 forward I I I I #
coedge $-1 -1 $-1 $256 $256 $367 $368 forward $171 $-1 #
coedge $-1 -1 $-1 $257 $257 $369 $370 forward $173 $-1 #
coedge $-1 -1 $-1 $258 $258 $174 $259 reversed $371 $-1 #
edge $372 -1 $-1 $373 -3.1415926535897931 $373 3.1415926535897931 $174 $374 forward @7 unknown #
coedge $-1 -1 $-1 $260 $260 $175 $261 reversed $375 $-1 #
edge $376 -1 $-1 $377 0 $377 6.2831853071795862 $260 $378 forward @7 unknown #
loop $-1 -1 $-1 $266 $176 $379 #
attrib_edge_convexity-kcp-attrib $-1 -1 $380 $-1 $177 2 #
vertex $-1 -1 $-1 $177 $381 #
ellipse-curve $-1 -1 $-1 3.0051999999999999 -3.6699999999999995 4.1302000000000003 0 1 0 0.13258252147247765 0 0.13258252147247765 1 I I #
loop $-1 -1 $-1 $-1 $178 $379 #
vertex $-1 -1 $-1 $179 $382 #
ellipse-curve $-1 -1 $-1 3.0051999999999999 -4.3419999999999996 4.1302000000000003 0 -1 0 0.13258252147247765 0 0.13258252147247765 1 I I #
loop $-1 -1 $-1 $-1 $383 $270 #
face $384 -1 $-1 $379 $180 $11 $-1 $385 forward single #
point $-1 -1 $-1 2.9380248557872779 -4.3419999999999996 4.0630248557872779 #
model_id-kcp-attrib $-1 -1 $-1 $-1 $185 1 1021323407 1021323407 1423966210 3 #
face $-1 -1 $-1 $-1 $200 $31 $-1 $386 reversed single #
loop $-1 -1 $-1 $-1 $289 $185 #
plane-surface $-1 -1 $-1 0 0.88249999999999984 0 0 -1 0 0 0 -1 forward_v I I I I #
coedge $-1 -1 $-1 $387 $287 $290 $388 forward $186 $-1 #
coedge $-1 -1 $-1 $293 $188 $189 $281 reversed $125 $-1 #
coedge $-1 -1 $-1 $287 $387 $188 $279 reversed $186 $-1 #
edge $-1 -1 $-1 $294 -0.26549999999999985 $389 0.26549999999999985 $278 $390 forward @7 unknown #
coedge $-1 -1 $-1 $190 $189 $387 $391 forward $84 $-1 #
edge $-1 -1 $-1 $285 -0.26550000000000029 $389 0.26550000000000029 $277 $392 forward @7 unknown #
coedge $-1 -1 $-1 $290 $289 $190 $283 reversed $274 $-1 #
edge $-1 -1 $-1 $393 -0.26550000000000029 $284 0.26550000000000029 $282 $394 forward @7 unknown #
vertex $-1 -1 $-1 $192 $395 #
vertex $-1 -1 $-1 $296 $396 #
straight-curve $-1 -1 $-1 0.26550000000000029 0 -0.26549999999999985 0 -1 0 I I #
coedge $-1 -1 $-1 $276 $278 $193 $288 reversed $186 $-1 #
edge $-1 -1 $-1 $291 -0.88249999999999984 $294 0.88249999999999984 $287 $397 forward @7 unknown #
coedge $-1 -1 $-1 $282 $194 $199 $297 forward $274 $-1 #
coedge $-1 -1 $-1 $194 $282 $276 $388 reversed $274 $-1 #
vertex $-1 -1 $-1 $195 $398 #
straight-curve $-1 -1 $-1 0 0.88249999999999984 0.26549999999999985 -1 0 0 I I #
coedge $-1 -1 $-1 $196 $277 $198 $296 reversed $125 $-1 #
vertex $-1 -1 $-1 $288 $399 #
straight-curve $-1 -1 $-1 0 -0.88249999999999984 0.26549999999999985 1 0 0 I I #
edge $-1 -1 $-1 $201 -0.26549999999999985 $285 0.26549999999999985 $198 $400 forward @7 unknown #
edge $-1 -1 $-1 $202 -0.26549999999999985 $284 0.26549999999999985 $199 $401 forward @7 unknown #
point $-1 -1 $-1 0.26550000000000029 -0.88249999999999984 0.26549999999999985 #
point $-1 -1 $-1 0.26550000000000029 0.88249999999999984 0.26549999999999985 #
coedge $-1 -1 $-1 $300 $300 $205 $301 forward $204 $-1 #
edge $-1 -1 $-1 $402 0 $402 6.2831853071795862 $300 $403 forward @7 unknown #
vertex $-1 -1 $-1 $206 $404 #
ellipse-curve $-1 -1 $-1 0 0 -0.029999999999999805 0 0 -1 0.12499999999999999 0 0 1 I I #
point $-1 -1 $-1 -0.064999999999999933 7.9599412998454434e-018 0.029999999999999805 #
coedge $-1 -1 $-1 $305 $305 $210 $306 forward $209 $-1 #
edge $-1 -1 $-1 $405 0 $405 6.2831853071795862 $305 $406 forward @7 unknown #
vertex $-1 -1 $-1 $211 $407 #
ellipse-curve $-1 -1 $-1 0 0 -0.015499999999999847 0 0 -1 0.26549999999999996 0 0 1 I I #
point $-1 -1 $-1 -0.23450000000000037 2.871701899713479e-017 0.015499999999999847 #
loop $-1 -1 $-1 $-1 $220 $146 #
coedge $-1 -1 $-1 $311 $311 $218 $312 forward $214 $-1 #
edge $408 -1 $-1 $409 -3.1415926535897931 $409 3.1415926535897931 $218 $410 forward @7 unknown #
vertex $-1 -1 $-1 $219 $411 #
ellipse-curve $-1 -1 $-1 0 0.36850000000000005 0 0 1 0 0.1877368504050283 0 0.18773685040502841 1 I I #
convexity-sys-attrib $-1 -1 $-1 $-1 $221 #
vertex $-1 -1 $-1 $221 $412 #
ellipse-curve $-1 -1 $-1 0 0.83649999999999958 0 0 -1 0 -0.15450283168926063 0 -0.15450283168926063 1 I I #
point $-1 -1 $-1 -0.15450283168926049 0.36849999999999961 -0.15450283168926049 #
loop $-1 -1 $-1 $-1 $230 $154 #
coedge $-1 -1 $-1 $320 $320 $228 $321 forward $224 $-1 #
edge $413 -1 $-1 $414 -3.1415926535897931 $414 3.1415926535897931 $228 $415 forward @7 unknown #
vertex $-1 -1 $-1 $229 $416 #
ellipse-curve $-1 -1 $-1 0 -0.30350000000000121 0 0 1 0 0.1877368504050283 0 0.18773685040502841 1 I I #
convexity-sys-attrib $-1 -1 $-1 $-1 $231 #
vertex $-1 -1 $-1 $231 $417 #
ellipse-curve $-1 -1 $-1 0 0.36849999999999938 0 0 -1 0 -0.13258252147247765 0 -0.13258252147247765 1 I I #
point $-1 -1 $-1 -0.13258252147247784 -0.30350000000000099 -0.13258252147247784 #
face $-1 -1 $-1 $418 $419 $41 $-1 $420 reversed single #
loop $-1 -1 $-1 $-1 $351 $234 #
plane-surface $-1 -1 $-1 0 0 0.26549999999999985 0 0 1 1 0 0 forward_v I I I I #
coedge $-1 -1 $-1 $421 $422 $423 $334 reversed $235 $-1 #
coedge $-1 -1 $-1 $242 $236 $424 $425 reversed $163 $-1 #
coedge $-1 -1 $-1 $236 $242 $426 $427 reversed $163 $-1 #
edge $-1 -1 $-1 $428 -1.7650000000000001 $429 -4.4408920985006262e-016 $423 $430 forward @7 unknown #
coedge $-1 -1 $-1 $238 $237 $431 $432 reversed $108 $-1 #
coedge $-1 -1 $-1 $433 $434 $435 $337 forward $419 $-1 #
edge $-1 -1 $-1 $436 -1.7650000000000001 $341 -4.4408920985006262e-016 $336 $437 forward @7 unknown #
coedge $-1 -1 $-1 $339 $239 $438 $439 reversed $340 $-1 #
coedge $-1 -1 $-1 $239 $338 $433 $440 forward $340 $-1 #
loop $-1 -1 $-1 $-1 $239 $441 #
vertex $-1 -1 $-1 $442 $443 #
vertex $-1 -1 $-1 $444 $445 #
ellipse-curve $-1 -1 $-1 0 -0.88249999999999984 0 0 1 0 0.1877368504050283 0 0.18773685040502841 1 I I #
coedge $-1 -1 $-1 $446 $447 $241 $345 forward $448 $-1 #
edge $-1 -1 $-1 $342 -0.78539816339744806 $347 0.78539816339744861 $344 $343 forward @7 unknown #
coedge $-1 -1 $-1 $449 $450 $451 $243 forward $452 $-1 #
vertex $-1 -1 $-1 $453 $454 #
straight-curve $-1 -1 $-1 0.26550000000000029 -0.88250000000000028 0 0 -1 0 I I #
coedge $-1 -1 $-1 $455 $244 $447 $444 forward $352 $-1 #
coedge $-1 -1 $-1 $244 $455 $246 $354 forward $352 $-1 #
coedge $-1 -1 $-1 $456 $438 $238 $245 reversed $329 $-1 #
loop $-1 -1 $-1 $-1 $244 $457 #
straight-curve $-1 -1 $-1 0 -0.88250000000000028 0.26549999999999985 0 -1 0 I I #
edge $-1 -1 $-1 $458 -0.26550000000000029 $250 0 $246 $459 forward @7 unknown #
coedge $-1 -1 $-1 $460 $451 $247 $356 reversed $461 $-1 #
edge $-1 -1 $-1 $458 -0.26549999999999985 $249 0 $355 $462 forward @7 unknown #
face $-1 -1 $-1 $463 $248 $41 $-1 $464 reversed single #
edge $-1 -1 $-1 $249 0 $465 0.26549999999999985 $450 $462 forward @7 unknown #
point $-1 -1 $-1 0.26550000000000029 0.88249999999999984 0 #
edge $-1 -1 $-1 $250 0 $466 0.26550000000000029 $467 $459 forward @7 unknown #
point $-1 -1 $-1 0 0.88249999999999984 0.26549999999999985 #
model_id-kcp-attrib $-1 -1 $-1 $-1 $253 1 1021323407 1021323407 1423966209 8 #
face $468 -1 $-1 $270 $469 $11 $-1 $470 forward single #
loop $-1 -1 $-1 $471 $472 $253 #
cone-surface $-1 -1 $-1 3.0051999999999999 -3.0677499999999993 4.1302000000000003 0 -1 0 -0.088388347648318433 0 -0.088388347648318433 1 I I 0 1 0.125 forward I I I I #
coedge $-1 -1 $-1 $366 $366 $473 $474 forward $254 $-1 #
coedge $-1 -1 $-1 $367 $367 $256 $368 reversed $475 $-1 #
edge $476 -1 $-1 $477 -3.1415926535897931 $477 3.1415926535897931 $256 $478 forward @7 unknown #
coedge $-1 -1 $-1 $369 $369 $257 $370 reversed $479 $-1 #
edge $480 -1 $-1 $481 0 $481 6.2831853071795862 $369 $482 forward @7 unknown #
loop $-1 -1 $-1 $375 $258 $483 #
attrib_edge_convexity-kcp-attrib $-1 -1 $484 $-1 $259 2 #
vertex $-1 -1 $-1 $259 $485 #
ellipse-curve $-1 -1 $-1 3.0051999999999999 -3.202 4.1302000000000003 0 1 0 0.15450283168926063 0 0.15450283168926063 1 I I #
loop $-1 -1 $-1 $-1 $260 $483 #
attrib_edge_convexity-kcp-attrib $-1 -1 $486 $-1 $261 1 #
vertex $-1 -1 $-1 $261 $487 #
ellipse-curve $-1 -1 $-1 3.0051999999999999 -3.6699999999999995 4.1302000000000003 0 -1 0 0.15450283168926063 0 0.15450283168926063 1 I I #
face $488 -1 $-1 $483 $262 $11 $-1 $489 forward single #
convexity-sys-attrib $-1 -1 $-1 $263 $177 #
point $-1 -1 $-1 2.872617478527522 -3.6699999999999995 3.9976174785275225 #
point $-1 -1 $-1 3.1377825214724777 -4.3419999999999996 4.2627825214724782 #
coedge $-1 -1 $-1 $383 $383 $490 $491 reversed $269 $-1 #
model_id-kcp-attrib $-1 -1 $-1 $-1 $270 1 1021323407 1021323407 1423966209 10 #
cone-surface $-1 -1 $-1 3.0051999999999999 -3.0677499999999993 4.1302000000000003 0 -1 0 -0.067175144212722013 0 -0.067175144212722013 1 I I 0 1 0.095000000000000001 forward I I I I #
plane-surface $-1 -1 $-1 0.26550000000000029 0 0 -1 0 0 0 0 1 forward_v I I I I #
coedge $-1 -1 $-1 $278 $276 $280 $391 reversed $186 $-1 #
edge $-1 -1 $-1 $291 -0.26549999999999985 $393 0.26549999999999985 $290 $492 forward @7 unknown #
vertex $-1 -1 $-1 $391 $493 #
straight-curve $-1 -1 $-1 -0.26550000000000029 -0.88249999999999984 0 0 0 -1 I I #
edge $-1 -1 $-1 $389 -0.88249999999999984 $393 0.88249999999999984 $387 $494 forward @7 unknown #
straight-curve $-1 -1 $-1 0 -0.88249999999999984 -0.26549999999999985 -1 0 0 I I #
vertex $-1 -1 $-1 $283 $495 #
straight-curve $-1 -1 $-1 0 0.88249999999999984 -0.26549999999999985 1 0 0 I I #
point $-1 -1 $-1 0.26550000000000029 0.88249999999999984 -0.26549999999999985 #
point $-1 -1 $-1 0.26550000000000029 -0.88249999999999984 -0.26549999999999985 #
straight-curve $-1 -1 $-1 -0.26550000000000029 0 0.26549999999999985 0 -1 0 I I #
point $-1 -1 $-1 -0.26550000000000029 0.88249999999999984 0.26549999999999985 #
point $-1 -1 $-1 -0.26550000000000029 -0.88249999999999984 0.26549999999999985 #
straight-curve $-1 -1 $-1 0.26550000000000029 -0.88249999999999984 0 0 0 -1 I I #
straight-curve $-1 -1 $-1 0.26550000000000029 0.88249999999999984 0 0 0 -1 I I #
vertex $-1 -1 $-1 $301 $496 #
ellipse-curve $-1 -1 $-1 0 0 0.029999999999999805 0 0 1 0.12499999999999999 0 0 1 I I #
point $-1 -1 $-1 0.12499999999999999 0 -0.029999999999999805 #
vertex $-1 -1 $-1 $306 $497 #
ellipse-curve $-1 -1 $-1 0 0 0.015499999999999847 0 0 1 0.26549999999999996 0 0 1 I I #
point $-1 -1 $-1 0.26549999999999996 0 -0.015499999999999847 #
convexity-sys-attrib $-1 -1 $-1 $-1 $312 #
vertex $-1 -1 $-1 $312 $498 #
ellipse-curve $-1 -1 $-1 0 0.83649999999999958 0 0 1 0 0.1877368504050283 0 0.18773685040502841 1 I I #
point $-1 -1 $-1 -0.18773685040502833 0.36850000000000005 -0.18773685040502838 #
point $-1 -1 $-1 -0.15450283168926049 0.83649999999999913 -0.15450283168926049 #
convexity-sys-attrib $-1 -1 $-1 $-1 $321 #
vertex $-1 -1 $-1 $321 $499 #
ellipse-curve $-1 -1 $-1 0 0.36849999999999938 0 0 1 0 0.1877368504050283 0 0.18773685040502841 1 I I #
point $-1 -1 $-1 -0.18773685040502833 -0.30350000000000121 -0.18773685040502838 #
point $-1 -1 $-1 -0.13258252147247784 0.36849999999999961 -0.13258252147247784 #
face $-1 -1 $-1 $500 $461 $41 $-1 $501 reversed single #
loop $-1 -1 $-1 $-1 $336 $328 #
plane-surface $-1 -1 $-1 -0.26550000000000029 0 0 1 0 0 0 0 -1 forward_v I I I I #
coedge $-1 -1 $-1 $502 $331 $503 $504 reversed $235 $-1 #
coedge $-1 -1 $-1 $331 $502 $505 $506 reversed $235 $-1 #
coedge $-1 -1 $-1 $507 $508 $509 $334 forward $510 $-1 #
coedge $-1 -1 $-1 $511 $512 $332 $425 forward $513 $-1 #
edge $-1 -1 $-1 $347 0.78539816339744861 $429 2.3561944901923453 $424 $343 forward @7 unknown #
coedge $-1 -1 $-1 $514 $515 $333 $427 forward $516 $-1 #
edge $-1 -1 $-1 $428 -2.3561944901923453 $249 -0.78539816339744861 $426 $251 forward @7 unknown #
vertex $-1 -1 $-1 $517 $518 #
vertex $-1 -1 $-1 $519 $520 #
straight-curve $-1 -1 $-1 0 -0.88250000000000028 -0.26549999999999985 0 -1 0 I I #
coedge $-1 -1 $-1 $521 $467 $335 $432 forward $522 $-1 #
edge $-1 -1 $-1 $250 0.78539816339744806 $436 2.3561944901923448 $431 $251 forward @7 unknown #
coedge $-1 -1 $-1 $523 $336 $339 $440 reversed $419 $-1 #
coedge $-1 -1 $-1 $336 $523 $521 $524 forward $419 $-1 #
coedge $-1 -1 $-1 $525 $526 $502 $337 reversed $527 $-1 #
vertex $-1 -1 $-1 $528 $529 #
straight-curve $-1 -1 $-1 -0.26550000000000029 -0.88250000000000028 0 0 -1 0 I I #
coedge $-1 -1 $-1 $351 $530 $338 $439 forward $329 $-1 #
edge $-1 -1 $-1 $531 -0.26550000000000029 $342 0 $338 $532 forward @7 unknown #
edge $-1 -1 $-1 $531 -0.26549999999999985 $341 0 $433 $533 forward @7 unknown #
face $-1 -1 $-1 $534 $340 $41 $-1 $535 reversed single #
edge $-1 -1 $-1 $341 0 $536 0.26549999999999985 $526 $533 forward @7 unknown #
point $-1 -1 $-1 -0.26550000000000029 -0.88249999999999984 0 #
edge $-1 -1 $-1 $342 0 $537 0.26550000000000029 $447 $532 forward @7 unknown #
point $-1 -1 $-1 0 -0.88249999999999984 0.26549999999999985 #
coedge $-1 -1 $-1 $447 $344 $538 $539 reversed $448 $-1 #
coedge $-1 -1 $-1 $344 $446 $349 $444 reversed $448 $-1 #
loop $-1 -1 $-1 $-1 $344 $534 #
coedge $-1 -1 $-1 $540 $346 $512 $453 forward $452 $-1 #
coedge $-1 -1 $-1 $346 $540 $514 $358 reversed $452 $-1 #
coedge $-1 -1 $-1 $355 $538 $165 $243 reversed $461 $-1 #
loop $-1 -1 $-1 $-1 $346 $541 #
edge $-1 -1 $-1 $347 0 $542 0.26549999999999985 $449 $543 forward @7 unknown #
point $-1 -1 $-1 0.26550000000000029 -0.88249999999999984 0 #
coedge $-1 -1 $-1 $350 $349 $460 $544 forward $352 $-1 #
coedge $-1 -1 $-1 $530 $351 $467 $360 forward $329 $-1 #
face $-1 -1 $-1 $545 $352 $41 $-1 $330 forward single #
vertex $-1 -1 $-1 $544 $546 #
straight-curve $-1 -1 $-1 0 0.88249999999999984 0.26549999999999985 -1 0 0 I I #
coedge $-1 -1 $-1 $538 $355 $455 $544 reversed $461 $-1 #
loop $-1 -1 $-1 $-1 $451 $418 #
straight-curve $-1 -1 $-1 0.26550000000000029 0.88249999999999984 0 0 0 -1 I I #
face $-1 -1 $-1 $547 $522 $41 $-1 $464 reversed single #
plane-surface $-1 -1 $-1 0 0.88249999999999984 0 0 -1 0 0 0 -1 forward_v I I I I #
vertex $-1 -1 $-1 $548 $549 #
vertex $-1 -1 $-1 $360 $550 #
coedge $-1 -1 $-1 $431 $521 $456 $360 reversed $522 $-1 #
model_id-kcp-attrib $-1 -1 $-1 $-1 $363 1 1021323407 1021323407 1423966209 9 #
loop $-1 -1 $-1 $551 $490 $363 #
cone-surface $-1 -1 $-1 3.0051999999999999 -4.4219999999999997 4.1302000000000003 0 -1 0 0.088388347648318433 0 0.088388347648318433 1 I I 0.70710678118654702 0.70710678118654802 0.125 forward I I I I #
loop $-1 -1 $-1 $-1 $473 $253 #
coedge $-1 -1 $-1 $472 $472 $552 $553 forward $364 $-1 #
coedge $-1 -1 $-1 $473 $473 $366 $474 reversed $471 $-1 #
edge $554 -1 $-1 $555 -3.1415926535897931 $555 3.1415926535897931 $473 $556 forward @7 unknown #
loop $-1 -1 $-1 $557 $367 $558 #
attrib_edge_convexity-kcp-attrib $-1 -1 $559 $-1 $368 1 #
vertex $-1 -1 $-1 $368 $560 #
ellipse-curve $-1 -1 $-1 3.0051999999999999 -3.1559999999999997 4.1302000000000003 0 1 0 0.16581654018824538 0 0.16581654018824538 1 I I #
loop $-1 -1 $-1 $-1 $369 $561 #
attrib_edge_convexity-kcp-attrib $-1 -1 $562 $-1 $370 1 #
vertex $-1 -1 $-1 $370 $563 #
ellipse-curve $-1 -1 $-1 3.0051999999999999 -3.202 4.1302000000000003 0 -1 0 0.18773685040502835 0 0.18773685040502835 1 I I #
face $564 -1 $-1 $561 $371 $11 $-1 $565 forward single #
convexity-sys-attrib $-1 -1 $-1 $372 $259 #
point $-1 -1 $-1 2.8506971683107394 -3.202 3.9756971683107398 #
convexity-sys-attrib $-1 -1 $-1 $376 $261 #
point $-1 -1 $-1 3.1597028316892604 -3.6699999999999995 4.2847028316892608 #
model_id-kcp-attrib $-1 -1 $-1 $-1 $379 1 1021323407 1021323407 1423966209 11 #
cone-surface $-1 -1 $-1 3.0051999999999999 -3.0677499999999993 4.1302000000000003 0 -1 0 -0.13258252147247765 0 -0.13258252147247765 1 I I 0 1 0.1875 forward I I I I #
coedge $-1 -1 $-1 $490 $490 $383 $491 forward $469 $-1 #
edge $-1 -1 $-1 $566 -3.14159265358979 $566 3.1415926535897962 $383 $567 forward @7 unknown #
straight-curve $-1 -1 $-1 -0.26550000000000029 0.88249999999999984 0 0 0 -1 I I #
point $-1 -1 $-1 -0.26550000000000029 -0.88249999999999984 -0.26549999999999985 #
straight-curve $-1 -1 $-1 -0.26550000000000029 0 -0.26549999999999985 0 1 0 I I #
point $-1 -1 $-1 -0.26550000000000029 0.88249999999999984 -0.26549999999999985 #
point $-1 -1 $-1 0.12499999999999999 0 0.029999999999999805 #
point $-1 -1 $-1 0.26549999999999996 0 0.015499999999999847 #
point $-1 -1 $-1 -0.18773685040502833 0.83649999999999958 -0.18773685040502838 #
point $-1 -1 $-1 -0.18773685040502833 0.36849999999999938 -0.18773685040502838 #
face $-1 -1 $-1 $441 $568 $41 $-1 $535 reversed single #
plane-surface $-1 -1 $-1 0.26550000000000029 0 0 -1 0 0 0 0 1 forward_v I I I I #
coedge $-1 -1 $-1 $422 $421 $237 $337 forward $235 $-1 #
coedge $-1 -1 $-1 $569 $570 $421 $504 forward $571 $-1 #
edge $-1 -1 $-1 $436 2.3561944901923448 $428 3.926990816987241 $503 $251 forward @7 unknown #
coedge $-1 -1 $-1 $572 $573 $422 $506 forward $568 $-1 #
edge $-1 -1 $-1 $429 2.3561944901923453 $341 3.9269908169872414 $505 $343 forward @7 unknown #
coedge $-1 -1 $-1 $574 $423 $573 $519 forward $510 $-1 #
coedge $-1 -1 $-1 $423 $574 $569 $575 forward $510 $-1 #
coedge $-1 -1 $-1 $576 $577 $236 $334 reversed $578 $-1 #
loop $-1 -1 $-1 $-1 $423 $545 #
coedge $-1 -1 $-1 $512 $424 $577 $579 reversed $513 $-1 #
coedge $-1 -1 $-1 $424 $511 $449 $453 reversed $513 $-1 #
loop $-1 -1 $-1 $-1 $424 $580 #
coedge $-1 -1 $-1 $515 $426 $450 $358 forward $516 $-1 #
coedge $-1 -1 $-1 $426 $514 $576 $517 reversed $516 $-1 #
loop $-1 -1 $-1 $-1 $426 $581 #
edge $-1 -1 $-1 $428 0 $465 0.26550000000000029 $515 $582 forward @7 unknown #
point $-1 -1 $-1 0 0.88249999999999984 -0.26549999999999985 #
edge $-1 -1 $-1 $429 0 $536 0.26550000000000029 $573 $583 forward @7 unknown #
point $-1 -1 $-1 0 -0.88249999999999984 -0.26549999999999985 #
coedge $-1 -1 $-1 $467 $431 $434 $524 reversed $522 $-1 #
loop $-1 -1 $-1 $-1 $431 $463 #
coedge $-1 -1 $-1 $434 $433 $530 $584 reversed $419 $-1 #
edge $-1 -1 $-1 $466 -0.26549999999999985 $436 0 $521 $585 forward @7 unknown #
coedge $-1 -1 $-1 $586 $435 $570 $528 forward $527 $-1 #
coedge $-1 -1 $-1 $435 $586 $572 $442 reversed $527 $-1 #
loop $-1 -1 $-1 $-1 $435 $587 #
edge $-1 -1 $-1 $436 0 $588 0.26549999999999985 $570 $585 forward @7 unknown #
point $-1 -1 $-1 -0.26550000000000029 0.88249999999999984 0 #
coedge $-1 -1 $-1 $438 $456 $523 $584 forward $329 $-1 #
vertex $-1 -1 $-1 $584 $589 #
straight-curve $-1 -1 $-1 0 -0.88249999999999984 0.26549999999999985 1 0 0 I I #
straight-curve $-1 -1 $-1 -0.26550000000000029 -0.88249999999999984 0 0 0 -1 I I #
face $-1 -1 $-1 $580 $448 $41 $-1 $535 reversed single #
plane-surface $-1 -1 $-1 0 -0.88249999999999984 0 0 1 0 0 0 1 forward_v I I I I #
vertex $-1 -1 $-1 $590 $591 #
vertex $-1 -1 $-1 $544 $592 #
coedge $-1 -1 $-1 $451 $460 $446 $539 forward $461 $-1 #
edge $-1 -1 $-1 $537 -0.26549999999999985 $347 0 $538 $543 forward @7 unknown #
coedge $-1 -1 $-1 $450 $449 $593 $548 reversed $452 $-1 #
face $-1 -1 $-1 $-1 $452 $41 $-1 $501 reversed single #
vertex $-1 -1 $-1 $453 $594 #
straight-curve $-1 -1 $-1 0.26550000000000029 -0.88249999999999984 0 0 0 -1 I I #
edge $-1 -1 $-1 $537 -0.88249999999999984 $458 0.88249999999999984 $460 $595 forward @7 unknown #
face $-1 -1 $-1 $587 $510 $41 $-1 $596 reversed single #
point $-1 -1 $-1 0.26550000000000029 0.88249999999999984 0.26549999999999985 #
face $-1 -1 $-1 $597 $571 $41 $-1 $464 reversed single #
edge $-1 -1 $-1 $465 -0.88249999999999984 $542 0.88249999999999984 $540 $598 forward @7 unknown #
point $-1 -1 $-1 0.26550000000000029 0.88249999999999984 -0.26549999999999985 #
point $-1 -1 $-1 -0.26550000000000029 0.88249999999999984 0.26549999999999985 #
loop $-1 -1 $-1 $-1 $552 $363 #
coedge $-1 -1 $-1 $552 $552 $472 $553 reversed $551 $-1 #
edge $-1 -1 $-1 $599 -3.1415926535897931 $599 3.1415926535897931 $552 $600 forward @7 unknown #
attrib_edge_convexity-kcp-attrib $-1 -1 $601 $-1 $474 1 #
vertex $-1 -1 $-1 $474 $602 #
ellipse-curve $-1 -1 $-1 3.0051999999999999 -4.8609999999999998 4.1302000000000003 0 -1 0 0.088388347648318433 0 0.088388347648318433 1 I I #
loop $-1 -1 $-1 $-1 $603 $558 #
face $604 -1 $-1 $-1 $475 $11 $-1 $605 forward single #
convexity-sys-attrib $-1 -1 $-1 $476 $368 #
point $-1 -1 $-1 2.8393834598117547 -3.1559999999999997 3.9643834598117551 #
face $606 -1 $-1 $558 $607 $11 $-1 $608 forward single #
convexity-sys-attrib $-1 -1 $-1 $480 $370 #
point $-1 -1 $-1 3.1929368504050282 -3.202 4.3179368504050286 #
model_id-kcp-attrib $-1 -1 $-1 $-1 $483 1 1021323407 1021323407 1423966209 12 #
cone-surface $-1 -1 $-1 3.0051999999999999 -3.0677499999999993 4.1302000000000003 0 -1 0 -0.15450283168926063 0 -0.15450283168926063 1 I I 0 1 0.2185 forward I I I I #
vertex $-1 -1 $-1 $491 $609 #
ellipse-curve $-1 -1 $-1 3.0051999999999999 -4.3919999999999995 4.1302000000000003 0 -1 0 0.067175144212722013 0 0.067175144212722013 1 I I #
loop $-1 -1 $-1 $-1 $505 $500 #
coedge $-1 -1 $-1 $570 $503 $508 $575 reversed $571 $-1 #
coedge $-1 -1 $-1 $503 $569 $525 $528 reversed $571 $-1 #
loop $-1 -1 $-1 $-1 $503 $547 #
coedge $-1 -1 $-1 $573 $505 $526 $442 forward $568 $-1 #
coedge $-1 -1 $-1 $505 $572 $507 $519 reversed $568 $-1 #
coedge $-1 -1 $-1 $508 $507 $586 $590 forward $510 $-1 #
edge $-1 -1 $-1 $588 -0.26550000000000029 $428 0 $569 $582 forward @7 unknown #
coedge $-1 -1 $-1 $593 $509 $515 $517 forward $578 $-1 #
coedge $-1 -1 $-1 $509 $593 $511 $579 forward $578 $-1 #
loop $-1 -1 $-1 $-1 $509 $597 #
edge $-1 -1 $-1 $542 -0.26550000000000029 $429 0 $511 $583 forward @7 unknown #
face $-1 -1 $-1 $581 $513 $41 $-1 $535 reversed single #
face $-1 -1 $-1 $357 $516 $41 $-1 $464 reversed single #
straight-curve $-1 -1 $-1 0 0.88249999999999984 -0.26549999999999985 1 0 0 I I #
straight-curve $-1 -1 $-1 0 -0.88249999999999984 -0.26549999999999985 -1 0 0 I I #
edge $-1 -1 $-1 $466 -0.88249999999999984 $531 0.88249999999999984 $523 $610 forward @7 unknown #
straight-curve $-1 -1 $-1 -0.26550000000000029 0.88249999999999984 0 0 0 -1 I I #
coedge $-1 -1 $-1 $526 $525 $574 $590 reversed $527 $-1 #
face $-1 -1 $-1 $541 $527 $41 $-1 $420 reversed single #
vertex $-1 -1 $-1 $575 $611 #
point $-1 -1 $-1 -0.26550000000000029 -0.88249999999999984 0.26549999999999985 #
edge $-1 -1 $-1 $536 -0.88249999999999984 $588 0.88249999999999984 $586 $612 forward @7 unknown #
point $-1 -1 $-1 -0.26550000000000029 -0.88249999999999984 -0.26549999999999985 #
point $-1 -1 $-1 0.26550000000000029 -0.88249999999999984 0.26549999999999985 #
coedge $-1 -1 $-1 $577 $576 $540 $548 forward $578 $-1 #
point $-1 -1 $-1 0.26550000000000029 -0.88249999999999984 -0.26549999999999985 #
straight-curve $-1 -1 $-1 0.26550000000000029 0 0.26549999999999985 0 1 0 I I #
plane-surface $-1 -1 $-1 0 0 -0.26549999999999985 0 0 1 1 0 0 forward_v I I I I #
face $-1 -1 $-1 $457 $578 $41 $-1 $596 reversed single #
straight-curve $-1 -1 $-1 0.26550000000000029 0 -0.26549999999999985 0 -1 0 I I #
vertex $-1 -1 $-1 $553 $613 #
ellipse-curve $-1 -1 $-1 3.0051999999999999 -4.4219999999999997 4.1302000000000003 0 -1 0 0.088388347648318433 0 0.088388347648318433 1 I I #
convexity-sys-attrib $-1 -1 $-1 $554 $474 #
point $-1 -1 $-1 2.9168116523516816 -4.8609999999999998 4.041811652351682 #
coedge $-1 -1 $-1 $603 $603 $614 $615 reversed $557 $-1 #
model_id-kcp-attrib $-1 -1 $-1 $-1 $558 1 1021323407 1021323407 1423966209 14 #
cone-surface $-1 -1 $-1 3.0051999999999999 -3.1869999999999994 4.1302000000000003 0 -1 0 0.18773685040502835 0 0.18773685040502835 1 I I 0.70710678118654902 0.70710678118654602 0.26550000000000001 forward I I I I #
model_id-kcp-attrib $-1 -1 $-1 $-1 $561 1 1021323407 1021323407 1423966209 13 #
loop $-1 -1 $-1 $479 $614 $561 #
cone-surface $-1 -1 $-1 3.0051999999999999 -3.0677499999999993 4.1302000000000003 0 -1 0 -0.18773685040502835 0 -0.18773685040502835 1 I I 0 1 0.26550000000000001 forward I I I I #
point $-1 -1 $-1 2.9380248557872779 -4.3919999999999995 4.0630248557872779 #
straight-curve $-1 -1 $-1 -0.26550000000000029 0 0.26549999999999985 0 -1 0 I I #
point $-1 -1 $-1 -0.26550000000000029 0.88249999999999984 -0.26549999999999985 #
straight-curve $-1 -1 $-1 -0.26550000000000029 0 -0.26549999999999985 0 1 0 I I #
point $-1 -1 $-1 2.9168116523516816 -4.4219999999999997 4.041811652351682 #
coedge $-1 -1 $-1 $614 $614 $603 $615 forward $607 $-1 #
edge $616 -1 $-1 $617 -3.1415926535897931 $617 3.1415926535897931 $603 $618 forward @7 unknown #
attrib_edge_convexity-kcp-attrib $-1 -1 $619 $-1 $615 1 #
vertex $-1 -1 $-1 $615 $620 #
ellipse-curve $-1 -1 $-1 3.0051999999999999 -3.1869999999999994 4.1302000000000003 0 -1 0 0.18773685040502835 0 0.18773685040502835 1 I I #
convexity-sys-attrib $-1 -1 $-1 $616 $615 #
point $-1 -1 $-1 2.8174631495949716 -3.1869999999999994 3.942463149594972 #
End-of-ACIS-data 