600 0 1 0           
98 GICL ACIS Healer - Source: /gicl/data5/repository/CMU/spectrometer/bearing_post_56_front.sat - 6 0 18 ACIS 6.0.3 Solaris 24 Sat Apr 13 00:29:00 2002 
1 9.999999999999999547e-07 1.000000000000000036e-10 
body $-1 $1 $-1 $-1 #
lump $-1 $-1 $2 $0 #
shell $-1 $-1 $-1 $3 $-1 $1 #
face $-1 $4 $5 $2 $-1 $6 reversed single #
face $-1 $7 $8 $2 $-1 $9 forward single #
loop $-1 $10 $11 $3 #
plane-surface $-1 0 -2.969000000000000306 1.125 0 -1 0 0.7071067811865474617 0 0.7071067811865474617 forward_v I I I I #
face $-1 $12 $13 $2 $-1 $14 forward single #
loop $-1 $-1 $15 $4 #
plane-surface $-1 0 -4.937000000000000277 1.125 0 -1 0 0.7071067811865474617 0 0.7071067811865474617 forward_v I I I I #
loop $-1 $16 $17 $3 #
coedge $-1 $11 $11 $18 $19 reversed $5 $-1 #
face $-1 $20 $21 $2 $-1 $22 forward single #
loop $-1 $23 $24 $7 #
plane-surface $-1 0 -4.358999999999999986 1.125 0 -1 0 0.7071067811865474617 0 0.7071067811865474617 forward_v I I I I #
coedge $-1 $15 $15 $25 $26 forward $8 $-1 #
loop $-1 $27 $28 $3 #
coedge $-1 $17 $17 $29 $30 forward $10 $-1 #
coedge $-1 $18 $18 $11 $19 forward $31 $-1 #
edge $-1 $32 0 $32 6.283185307179586232 $18 $33 forward 7 unknown #
face $-1 $34 $35 $2 $-1 $36 forward single #
loop $-1 $37 $38 $12 #
plane-surface $-1 0 -3.156000000000000139 1.125 0 -1 0 0.7071067811865474617 0 0.7071067811865474617 forward_v I I I I #
loop $-1 $-1 $39 $7 #
coedge $-1 $24 $24 $40 $41 forward $13 $-1 #
coedge $-1 $25 $25 $15 $26 reversed $42 $-1 #
edge $-1 $43 9.238172357272930689e-16 $43 6.28318530717958712 $25 $44 forward 7 unknown #
loop $-1 $45 $46 $3 #
coedge $-1 $28 $28 $47 $48 forward $16 $-1 #
coedge $-1 $29 $29 $17 $30 reversed $49 $-1 #
edge $-1 $50 -3.141592653589792228 $50 3.141592653589794004 $29 $51 forward 7 unknown #
loop $-1 $52 $18 $53 #
vertex $-1 $19 $54 #
ellipse-curve $-1 0 -2.969000000000000306 1.125 0 -1 0 0.5077026688919410446 0 0.5077026688919410446 1 I I #
face $-1 $55 $56 $2 $-1 $57 forward single #
loop $-1 $58 $59 $20 #
plane-surface $-1 0 -3.125 1.125 0 -1 0 0.7071067811865474617 0 0.7071067811865474617 forward_v I I I I #
loop $-1 $-1 $60 $12 #
coedge $-1 $38 $38 $61 $62 forward $21 $-1 #
coedge $-1 $39 $39 $63 $64 forward $23 $-1 #
coedge $-1 $40 $40 $24 $41 reversed $65 $-1 #
edge $-1 $66 -3.141592653589792672 $66 3.14159265358979356 $24 $67 forward 7 unknown #
loop $-1 $-1 $25 $34 #
vertex $-1 $26 $68 #
ellipse-curve $-1 0 -4.937000000000000277 1.125 0 -1 0 0.04596194077712558584 0 0.04596194077712558584 1 I I #
loop $-1 $-1 $69 $3 #
coedge $-1 $46 $46 $70 $71 forward $27 $-1 #
coedge $-1 $47 $47 $28 $48 reversed $72 $-1 #
edge $-1 $73 -3.141592653589792228 $73 3.141592653589794004 $47 $74 forward 7 unknown #
loop $-1 $-1 $29 $75 #
vertex $-1 $30 $76 #
ellipse-curve $-1 0.3535533905932737309 -2.969000000000000306 1.478553390593273731 0 -1 0 0.05303300858899105685 0 0.05303300858899105685 1 I I #
loop $-1 $-1 $77 $53 #
face $-1 $78 $31 $2 $-1 $79 forward single #
point $-1 0.5077026688919410446 -2.969000000000000306 1.632702668891941045 #
face $-1 $80 $81 $2 $-1 $82 forward single #
loop $-1 $42 $83 $34 #
cone-surface $-1 0 -4.877000000000000668 1.125 0 1 0 0.08838834764831843271 0 0.08838834764831843271 1 I I 0.707106781186549016 0.7071067811865460184 0.125 forward I I I I #
loop $-1 $84 $85 $20 #
coedge $-1 $59 $59 $86 $87 forward $35 $-1 #
coedge $-1 $60 $60 $88 $89 forward $37 $-1 #
coedge $-1 $61 $61 $38 $62 reversed $90 $-1 #
edge $-1 $91 -3.141592653589793116 $91 3.141592653589793116 $38 $92 forward 7 unknown #
coedge $-1 $63 $63 $39 $64 reversed $93 $-1 #
edge $-1 $94 -9.868649107779173631e-17 $94 6.283185307179586232 $63 $95 forward 7 unknown #
loop $-1 $96 $40 $97 #
vertex $-1 $41 $98 #
ellipse-curve $-1 0 -4.358999999999999986 1.125 0 1 0 0.06717514421272201275 0 0.06717514421272201275 1 I I #
point $-1 0.04596194077712558584 -4.937000000000000277 1.170961940777125676 #
coedge $-1 $69 $69 $99 $100 forward $45 $-1 #
coedge $-1 $70 $70 $46 $71 reversed $101 $-1 #
edge $-1 $102 -3.141592653589793116 $102 3.141592653589793116 $70 $103 forward 7 unknown #
loop $-1 $-1 $47 $104 #
vertex $-1 $48 $105 #
ellipse-curve $-1 -0.3535533905932737309 -2.969000000000000306 1.478553390593273731 0 -1 0 0.05303300858899105685 0 0.05303300858899105685 1 I I #
face $-1 $106 $107 $2 $-1 $108 reversed single #
point $-1 0.3005203820042826601 -2.969000000000000306 1.425520382004282549 #
coedge $-1 $77 $77 $109 $110 reversed $52 $-1 #
face $-1 $75 $111 $2 $-1 $112 reversed single #
cone-surface $-1 0 -3.001000000000001222 1.125 0 -1 0 0.5303300858899112624 0 0.5303300858899112624 1 I I 0.7071067811865480168 0.7071067811865470176 0.7500000000000009992 forward I I I I #
face $-1 $97 $113 $2 $-1 $114 forward single #
loop $-1 $115 $116 $55 #
cone-surface $-1 0 -2.870600000000000041 1.125 0 -1 0 -0.08838834764831843271 0 -0.08838834764831843271 1 I I 0 1 0.125 forward I I I I #
coedge $-1 $83 $83 $117 $118 forward $56 $-1 #
loop $-1 $119 $120 $20 #
coedge $-1 $85 $85 $121 $122 forward $58 $-1 #
coedge $-1 $86 $86 $59 $87 reversed $123 $-1 #
edge $-1 $124 -3.141592653589793116 $124 3.141592653589793116 $59 $125 forward 7 unknown #
coedge $-1 $88 $88 $60 $89 reversed $126 $-1 #
edge $-1 $127 3.330669073875469621e-16 $127 6.283185307179586232 $88 $128 forward 7 unknown #
loop $-1 $93 $61 $129 #
vertex $-1 $62 $130 #
ellipse-curve $-1 0 -3.156000000000000139 1.125 0 1 0 0.1325825214724776491 0 0.1325825214724776491 1 I I #
loop $-1 $-1 $63 $129 #
vertex $-1 $64 $131 #
ellipse-curve $-1 0 -4.358999999999999986 1.125 0 -1 0 0.1325825214724776491 0 0.1325825214724776491 1 I I #
loop $-1 $-1 $132 $97 #
face $-1 $129 $65 $2 $-1 $133 forward single #
point $-1 -0.06717514421272201275 -4.358999999999999986 1.057824855787278029 #
coedge $-1 $99 $99 $69 $100 reversed $134 $-1 #
edge $-1 $135 -3.14159265358979356 $135 3.141592653589792672 $99 $136 forward 7 unknown #
loop $-1 $-1 $70 $137 #
vertex $-1 $71 $138 #
ellipse-curve $-1 0.3535533905932737309 -2.969000000000000306 0.7714466094067262691 0 -1 0 0.05303300858899105685 0 0.05303300858899105685 1 I I #
face $-1 $139 $140 $2 $-1 $141 reversed single #
point $-1 -0.4065863991822648016 -2.969000000000000306 1.425520382004282549 #
face $-1 $104 $142 $2 $-1 $143 reversed single #
loop $-1 $49 $144 $75 #
cone-surface $-1 0.3535533905932737309 -3.050105123163953991 1.478553390593273731 0 1 0 -0.05303300858899105685 0 -0.05303300858899105685 1 I I 0 1 0.07499999999999999722 forward I I I I #
coedge $-1 $109 $109 $77 $110 forward $145 $-1 #
edge $-1 $146 -3.141592653589793116 $146 3.141592653589793116 $77 $147 forward 7 unknown #
loop $-1 $148 $149 $78 #
cone-surface $-1 0.3535533905932737309 -3.125 1.478553390593273731 0 -1 0 0.09899494936611664964 0 0.09899494936611664964 1 I I 0.6560590289905070538 0.754709580222772014 0.1400000000000000133 forward I I I I #
loop $-1 $150 $151 $80 #
cone-surface $-1 0 -4.439000000000000057 1.125 0 -1 0 0.08838834764831843271 0 0.08838834764831843271 1 I I 0.7071067811865470176 0.7071067811865480168 0.125 forward I I I I #
loop $-1 $-1 $117 $55 #
coedge $-1 $116 $116 $152 $153 forward $81 $-1 #
coedge $-1 $117 $117 $83 $118 reversed $115 $-1 #
edge $-1 $154 -3.141592653589793116 $154 3.141592653589793116 $117 $155 forward 7 unknown #
loop $-1 $156 $157 $20 #
coedge $-1 $120 $120 $149 $158 forward $84 $-1 #
coedge $-1 $121 $121 $85 $122 reversed $159 $-1 #
edge $-1 $160 -9.868649107779173631e-17 $160 6.283185307179586232 $121 $161 forward 7 unknown #
loop $-1 $126 $86 $162 #
vertex $-1 $87 $163 #
ellipse-curve $-1 0 -3.125 1.125 0 1 0 0.1767766952966368654 0 0.1767766952966368654 1 I I #
loop $-1 $-1 $88 $162 #
vertex $-1 $89 $164 #
ellipse-curve $-1 0 -3.156000000000000139 1.125 0 -1 0 0.1767766952966368654 0 0.1767766952966368654 1 I I #
face $-1 $162 $90 $2 $-1 $165 forward single #
point $-1 -0.1325825214724776491 -3.156000000000000139 0.9924174785275223787 #
point $-1 0.1325825214724776491 -4.358999999999999986 1.257582521472477621 #
coedge $-1 $132 $132 $151 $166 reversed $96 $-1 #
cone-surface $-1 0 -2.870600000000000041 1.125 0 -1 0 -0.06717514421272201275 0 -0.06717514421272201275 1 I I 0 1 0.09500000000000000111 forward I I I I #
loop $-1 $-1 $99 $167 #
vertex $-1 $100 $168 #
ellipse-curve $-1 -0.3535533905932737309 -2.969000000000000306 0.7714466094067262691 0 -1 0 0.05303300858899105685 0 0.05303300858899105685 1 I I #
face $-1 $169 $170 $2 $-1 $171 reversed single #
point $-1 0.3005203820042826601 -2.969000000000000306 0.7184136008177351984 #
face $-1 $137 $172 $2 $-1 $173 reversed single #
loop $-1 $72 $174 $104 #
cone-surface $-1 -0.3535533905932737309 -3.050105123163953991 1.478553390593273731 0 1 0 -0.05303300858899105685 0 -0.05303300858899105685 1 I I 0 1 0.07499999999999999722 forward I I I I #
loop $-1 $175 $176 $106 #
cone-surface $-1 -0.3535533905932737309 -3.125 1.478553390593273731 0 -1 0 -0.09899494936611664964 0 0.09899494936611664964 1 I I 0.6560590289905070538 0.754709580222772014 0.1400000000000000133 forward I I I I #
coedge $-1 $144 $144 $177 $178 forward $107 $-1 #
loop $-1 $159 $109 $179 #
vertex $-1 $110 $180 #
ellipse-curve $-1 0 -3.001000000000001222 1.125 0 -1 0 0.5303300858899112624 0 0.5303300858899112624 1 I I #
loop $-1 $-1 $177 $78 #
coedge $-1 $149 $149 $120 $158 reversed $111 $-1 #
loop $-1 $-1 $152 $80 #
coedge $-1 $151 $151 $132 $166 forward $113 $-1 #
coedge $-1 $152 $152 $116 $153 reversed $150 $-1 #
edge $-1 $181 -3.141592653589793116 $181 3.141592653589793116 $152 $182 forward 7 unknown #
vertex $-1 $118 $183 #
ellipse-curve $-1 0 -4.877000000000000668 1.125 0 -1 0 0.08838834764831843271 0 0.08838834764831843271 1 I I #
loop $-1 $184 $185 $20 #
coedge $-1 $157 $157 $176 $186 forward $119 $-1 #
edge $-1 $187 -3.141592653589793116 $187 3.141592653589793116 $149 $188 forward 7 unknown #
loop $-1 $-1 $121 $179 #
vertex $-1 $122 $189 #
ellipse-curve $-1 0 -3.125 1.125 0 -1 0 0.5303300858899105963 0 0.5303300858899105963 1 I I #
face $-1 $179 $123 $2 $-1 $190 forward single #
point $-1 -0.1767766952966368654 -3.125 0.9482233047033631346 #
point $-1 0.1767766952966368654 -3.156000000000000139 1.301776695296636976 #
cone-surface $-1 0 -2.870600000000000041 1.125 0 -1 0 -0.1325825214724776491 0 -0.1325825214724776491 1 I I 0 1 0.1875 forward I I I I #
edge $-1 $191 -3.14159265358979356 $191 3.141592653589792672 $132 $192 forward 7 unknown #
face $-1 $-1 $193 $2 $-1 $194 reversed single #
point $-1 -0.4065863991822647461 -2.969000000000000306 0.7184136008177353094 #
face $-1 $167 $195 $2 $-1 $196 reversed single #
loop $-1 $101 $197 $137 #
cone-surface $-1 0.3535533905932737309 -3.050105123163953991 0.7714466094067262691 0 1 0 -0.05303300858899105685 0 -0.05303300858899105685 1 I I 0 1 0.07499999999999999722 forward I I I I #
loop $-1 $198 $199 $139 #
cone-surface $-1 0.3535533905932737309 -3.125 0.7714466094067262691 0 -1 0 0.09899494936611664964 0 -0.09899494936611664964 1 I I 0.6560590289905070538 0.754709580222772014 0.1400000000000000133 forward I I I I #
coedge $-1 $174 $174 $200 $201 forward $140 $-1 #
loop $-1 $-1 $200 $106 #
coedge $-1 $176 $176 $157 $186 reversed $142 $-1 #
coedge $-1 $177 $177 $144 $178 reversed $148 $-1 #
edge $-1 $202 -4.625929269271492816e-16 $202 6.283185307179585344 $144 $203 forward 7 unknown #
face $-1 $53 $145 $2 $-1 $204 forward single #
point $-1 -0.5303300858899112624 -3.001000000000001222 0.5946699141100887376 #
vertex $-1 $153 $205 #
ellipse-curve $-1 0 -4.439000000000000057 1.125 0 -1 0 0.08838834764831843271 0 0.08838834764831843271 1 I I #
point $-1 -0.08838834764831843271 -4.877000000000000668 1.036611652351681512 #
loop $-1 $-1 $206 $20 #
coedge $-1 $185 $185 $199 $207 forward $156 $-1 #
edge $-1 $208 -3.141592653589793116 $208 3.141592653589793116 $176 $209 forward 7 unknown #
vertex $-1 $158 $210 #
ellipse-curve $-1 0.3535533905932737309 -3.125 1.478553390593273731 0 1 0 0.09899494936611664964 0 0.09899494936611664964 1 I I #
point $-1 0.5303300858899105963 -3.125 1.655330085889910485 #
cone-surface $-1 0 -2.870600000000000041 1.125 0 -1 0 -0.1767766952966368654 0 -0.1767766952966368654 1 I I 0 1 0.25 forward I I I I #
vertex $-1 $166 $211 #
ellipse-curve $-1 0 -4.408999999999999808 1.125 0 -1 0 0.06717514421272201275 0 0.06717514421272201275 1 I I #
loop $-1 $134 $212 $167 #
cone-surface $-1 -0.3535533905932737309 -3.050105123163953991 0.7714466094067262691 0 1 0 -0.05303300858899105685 0 -0.05303300858899105685 1 I I 0 1 0.07499999999999999722 forward I I I I #
loop $-1 $213 $214 $169 #
cone-surface $-1 -0.3535533905932737309 -3.125 0.7714466094067262691 0 -1 0 -0.09899494936611664964 0 -0.09899494936611664964 1 I I 0.6560590289905070538 0.754709580222772014 0.1400000000000000133 forward I I I I #
coedge $-1 $197 $197 $215 $216 forward $170 $-1 #
loop $-1 $-1 $215 $139 #
coedge $-1 $199 $199 $185 $207 reversed $172 $-1 #
coedge $-1 $200 $200 $174 $201 reversed $175 $-1 #
edge $-1 $217 -1.570796326794895448 $217 4.712388980384690562 $174 $218 forward 7 unknown #
vertex $-1 $178 $219 #
ellipse-curve $-1 0.3535533905932737309 -3.050226053530634029 1.478553390593273731 0 -1 0 0.05303300858899105685 0 0.05303300858899105685 1 I I #
cone-surface $-1 0 -2.870600000000000041 1.125 0 -1 0 -0.5303300858899105963 0 -0.5303300858899105963 1 I I 0 1 0.75 forward I I I I #
point $-1 -0.08838834764831843271 -4.439000000000000057 1.036611652351681512 #
coedge $-1 $206 $206 $214 $220 forward $184 $-1 #
edge $-1 $221 -3.141592653589793116 $221 3.141592653589793116 $199 $222 forward 7 unknown #
vertex $-1 $186 $223 #
ellipse-curve $-1 -0.3535533905932737309 -3.125 1.478553390593273731 0 1 0 -0.09899494936611664964 0 0.09899494936611664964 1 I I #
point $-1 0.2545584412271570951 -3.125 1.379558441227157095 #
point $-1 -0.06717514421272201275 -4.408999999999999808 1.057824855787278029 #
coedge $-1 $212 $212 $224 $225 forward $193 $-1 #
loop $-1 $-1 $224 $169 #
coedge $-1 $214 $214 $206 $220 reversed $195 $-1 #
coedge $-1 $215 $215 $197 $216 reversed $198 $-1 #
edge $-1 $226 0 $226 6.283185307179586232 $197 $227 forward 7 unknown #
vertex $-1 $201 $228 #
ellipse-curve $-1 -0.3535533905932737309 -3.050226053530634029 1.478553390593273731 0 -1 0 0.05303300858899105685 0 -0.05303300858899105685 1 I I #
point $-1 0.4065863991822647461 -3.050226053530634029 1.531586399182264691 #
edge $-1 $229 -3.141592653589793116 $229 3.141592653589793116 $214 $230 forward 7 unknown #
vertex $-1 $207 $231 #
ellipse-curve $-1 0.3535533905932737309 -3.125 0.7714466094067262691 0 1 0 0.09899494936611664964 0 -0.09899494936611664964 1 I I #
point $-1 -0.2545584412271570951 -3.125 1.379558441227157095 #
coedge $-1 $224 $224 $212 $225 reversed $213 $-1 #
edge $-1 $232 -4.625929269271492816e-16 $232 6.283185307179585344 $212 $233 forward 7 unknown #
vertex $-1 $216 $234 #
ellipse-curve $-1 0.3535533905932737309 -3.050226053530634029 0.7714466094067262691 0 -1 0 0.05303300858899105685 0 0.05303300858899105685 1 I I #
point $-1 -0.4065863991822648016 -3.050226053530634029 1.425520382004282549 #
vertex $-1 $220 $235 #
ellipse-curve $-1 -0.3535533905932737309 -3.125 0.7714466094067262691 0 1 0 -0.09899494936611664964 0 -0.09899494936611664964 1 I I #
point $-1 0.2545584412271570951 -3.125 0.8704415587728429049 #
vertex $-1 $225 $236 #
ellipse-curve $-1 -0.3535533905932737309 -3.050226053530634029 0.7714466094067262691 0 -1 0 -0.05303300858899105685 0 -0.05303300858899105685 1 I I #
point $-1 0.4065863991822648016 -3.050226053530634029 0.8244796179957173399 #
point $-1 -0.2545584412271570951 -3.125 0.8704415587728429049 #
point $-1 -0.4065863991822647461 -3.050226053530634029 0.7184136008177353094 #
End-of-ACIS-data 