600 0 1 0           
108 GICL ACIS Healer - Source: /gicl/data5/repository/CMU/spectrometer/bearing_208_link_short_link1_42.sat - 6 0 18 ACIS 6.0.3 Solaris 24 Sat Apr 13 00:28:50 2002 
1 9.999999999999999547e-07 1.000000000000000036e-10 
body $-1 $1 $-1 $-1 #
lump $-1 $-1 $2 $0 #
shell $-1 $-1 $-1 $3 $-1 $1 #
face $-1 $4 $5 $2 $-1 $6 reversed single #
face $-1 $7 $8 $2 $-1 $9 forward single #
loop $-1 $10 $11 $3 #
plane-surface $-1 3.005199999999999871 3.717999999999999972 4.130200000000000315 0 1 0 -0.7071067811865474617 0 0.7071067811865474617 forward_v I I I I #
face $-1 $12 $13 $2 $-1 $14 forward single #
loop $-1 $15 $16 $4 #
plane-surface $-1 3.005199999999999871 3.779999999999999805 4.130200000000000315 0 1 0 -0.7071067811865474617 0 0.7071067811865474617 forward_v I I I I #
loop $-1 $-1 $17 $3 #
coedge $-1 $11 $11 $18 $19 forward $5 $-1 #
face $-1 $20 $21 $2 $-1 $22 forward single #
loop $-1 $23 $24 $7 #
cone-surface $-1 3.005199999999999871 3.717999999999999972 4.130200000000000315 0 1 0 0.3425932354848822414 0 0.3425932354848822414 1 I I 0 1 0.4844999999999999862 forward I I I I #
loop $-1 $-1 $25 $4 #
coedge $-1 $16 $16 $24 $26 reversed $8 $-1 #
coedge $-1 $17 $17 $27 $28 forward $10 $-1 #
coedge $-1 $18 $18 $11 $19 reversed $23 $-1 #
edge $-1 $29 -3.141592653589793116 $29 3.141592653589793116 $18 $30 forward 7 unknown #
face $-1 $31 $32 $2 $-1 $33 forward single #
loop $-1 $34 $35 $12 #
plane-surface $-1 3.005199999999999871 3.99900000000000011 4.130200000000000315 0 1 0 -0.7071067811865474617 0 0.7071067811865474617 forward_v I I I I #
loop $-1 $-1 $18 $7 #
coedge $-1 $24 $24 $16 $26 forward $13 $-1 #
coedge $-1 $25 $25 $36 $37 forward $15 $-1 #
edge $-1 $38 0 $38 6.283185307179586232 $24 $39 forward 7 unknown #
coedge $-1 $27 $27 $17 $28 reversed $40 $-1 #
edge $-1 $41 -3.141592653589793116 $41 3.141592653589793116 $27 $42 forward 7 unknown #
vertex $-1 $19 $43 #
ellipse-curve $-1 3.005199999999999871 3.717999999999999972 4.130200000000000315 0 -1 0 -0.3425932354848822414 0 -0.3425932354848822414 1 I I #
face $-1 $-1 $44 $2 $-1 $45 reversed single #
loop $-1 $46 $47 $20 #
cone-surface $-1 3.005199999999999871 3.779999999999999805 4.130200000000000315 0 1 0 0.3093592167691144867 0 0.3093592167691144867 1 I I 0 1 0.4375 forward I I I I #
loop $-1 $-1 $48 $12 #
coedge $-1 $35 $35 $47 $49 reversed $21 $-1 #
coedge $-1 $36 $36 $25 $37 reversed $46 $-1 #
edge $-1 $50 -3.141592653589793116 $50 3.141592653589793116 $36 $51 forward 7 unknown #
vertex $-1 $26 $52 #
ellipse-curve $-1 3.005199999999999871 3.779999999999999805 4.130200000000000315 0 -1 0 0.3425932354848822414 0 0.3425932354848822414 1 I I #
loop $-1 $-1 $27 $31 #
vertex $-1 $28 $53 #
ellipse-curve $-1 3.005199999999999871 3.717999999999999972 4.130200000000000315 0 1 0 -0.1325825214724776491 0 -0.1325825214724776491 1 I I #
point $-1 3.347793235484882057 3.717999999999999972 4.472793235484882501 #
loop $-1 $40 $54 $31 #
cone-surface $-1 3.005199999999999871 3.99900000000000011 4.130200000000000315 0 -1 0 0.1325825214724776491 0 0.1325825214724776491 1 I I 0 1 0.1875 forward I I I I #
loop $-1 $-1 $36 $20 #
coedge $-1 $47 $47 $35 $49 forward $32 $-1 #
coedge $-1 $48 $48 $54 $55 reversed $34 $-1 #
edge $-1 $56 0 $56 6.283185307179586232 $47 $57 forward 7 unknown #
vertex $-1 $37 $58 #
ellipse-curve $-1 3.005199999999999871 3.779999999999999805 4.130200000000000315 0 -1 0 -0.3093592167691144867 0 -0.3093592167691144867 1 I I #
point $-1 3.347793235484882057 3.779999999999999805 4.472793235484882501 #
point $-1 3.137782521472477715 3.717999999999999972 4.262782521472478159 #
coedge $-1 $54 $54 $48 $55 forward $44 $-1 #
edge $-1 $59 0 $59 6.283185307179586232 $54 $60 forward 7 unknown #
vertex $-1 $49 $61 #
ellipse-curve $-1 3.005199999999999871 3.99900000000000011 4.130200000000000315 0 -1 0 0.3093592167691144867 0 0.3093592167691144867 1 I I #
point $-1 3.314559216769114247 3.779999999999999805 4.439559216769114691 #
vertex $-1 $55 $62 #
ellipse-curve $-1 3.005199999999999871 3.99900000000000011 4.130200000000000315 0 1 0 0.1325825214724776491 0 0.1325825214724776491 1 I I #
point $-1 3.314559216769114247 3.99900000000000011 4.439559216769114691 #
point $-1 3.137782521472477715 3.99900000000000011 4.262782521472478159 #
End-of-ACIS-data 