106 0 1 0           
body $-1 $1 $-1 $2 #
lump $-1 $-1 $3 $0 #
transform $-1 -0.70710678118654746 0 0.70710678118654746 0 1 0 -0.70710678118654746 0 -0.70710678118654746 2.8369 0 3.9619 1 0 0 0 #
shell $-1 $-1 $-1 $4 $1 #
face $-1 $5 $6 $3 $-1 $7 reversed single #
face $-1 $8 $9 $3 $-1 $10 forward single #
loop $-1 $11 $12 $4 #
plane-surface $-1 0 0 -1.603999500000000022 0 0 1 1 0 0 0 I I I I #
face $-1 $13 $14 $3 $-1 $15 forward single #
loop $-1 $16 $17 $5 #
plane-surface $-1 0 0 1.603999500000000022 0 0 1 1 0 0 0 I I I I #
loop $-1 $-1 $18 $4 #
coedge $-1 $12 $12 $19 $20 0 $6 $-1 #
face $-1 $21 $22 $3 $-1 $23 forward single #
loop $-1 $24 $19 $8 #
cone-surface $-1 0 0 -1.603999500000000022 0 0 -1 1.995000000000000107 0 0 1 I I 0.9876883405951379924 0.1564344650402310077 0 I I I I #
loop $-1 $-1 $25 $5 #
coedge $-1 $17 $17 $26 $27 0 $9 $-1 #
coedge $-1 $18 $18 $28 $29 0 $11 $-1 #
coedge $-1 $19 $19 $12 $20 1 $14 $-1 #
edge $-1 $30 $30 $12 $31 0 #
face $-1 $32 $33 $3 $-1 $34 forward single #
loop $-1 $35 $36 $13 #
cone-surface $-1 0 0 1.603999500000000022 0 0 1 1.995000000000000107 0 0 1 I I 0.9958014932787080387 0.09153898614194780348 0 I I I I #
loop $-1 $-1 $37 $8 #
coedge $-1 $25 $25 $38 $39 1 $16 $-1 #
coedge $-1 $26 $26 $17 $27 1 $35 $-1 #
edge $-1 $40 $40 $26 $41 0 #
coedge $-1 $28 $28 $18 $29 1 $42 $-1 #
edge $-1 $43 $43 $28 $44 0 #
vertex $-1 $20 $45 #
ellipse-curve $-1 0 0 -1.603999500000000022 0 0 -1 1.995000000000000107 0 0 1 I I #
face $-1 $46 $47 $3 $-1 $48 forward single #
loop $-1 $49 $50 $21 #
cone-surface $-1 0 0 1.441298406953279931 0 0 -1 1.995000000000000107 0 0 1 I I 0.9876883405951379924 0.1564344650402310077 0 I I I I #
loop $-1 $-1 $26 $13 #
coedge $-1 $36 $36 $51 $52 0 $22 $-1 #
coedge $-1 $37 $37 $53 $54 0 $24 $-1 #
coedge $-1 $38 $38 $25 $39 0 $55 $-1 #
edge $-1 $56 $56 $38 $57 0 #
vertex $-1 $27 $58 #
ellipse-curve $-1 0 0 1.603999500000000022 0 0 1 1.995000000000000107 0 0 1 I I #
loop $-1 $-1 $28 $59 #
vertex $-1 $29 $60 #
ellipse-curve $-1 0 0 -1.603999500000000022 0 0 1 1.300000000000000044 0 0 1 I I #
point $-1 -1.995000000000000107 0 -1.603999500000000022 #
face $-1 $61 $62 $3 $-1 $63 forward single #
loop $-1 $64 $65 $32 #
cone-surface $-1 0 0 1.441298406953279931 0 0 1 1.995000000000000107 0 0 1 I I 0.9876883405951379924 0.1564344650402310077 0 I I I I #
loop $-1 $-1 $51 $21 #
coedge $-1 $50 $50 $66 $67 0 $33 $-1 #
coedge $-1 $51 $51 $36 $52 1 $49 $-1 #
edge $-1 $68 $68 $51 $69 0 #
coedge $-1 $53 $53 $37 $54 1 $70 $-1 #
edge $-1 $71 $71 $53 $72 0 #
loop $-1 $42 $38 $59 #
vertex $-1 $39 $73 #
ellipse-curve $-1 0 0 1.603999500000000022 0 0 1 -1.300000000000000044 0 0 1 I I #
point $-1 1.995000000000000107 0 1.603999500000000022 #
face $-1 $-1 $55 $3 $-1 $74 reversed single #
point $-1 -1.300000000000000044 0 -1.603999500000000022 #
face $-1 $75 $76 $3 $-1 $77 forward single #
loop $-1 $78 $79 $46 #
cone-surface $-1 0 0 1.235398634531380102 0 0 -1 1.995000000000000107 0 0 1 I I 0.9876883405951379924 0.1564344650402320069 0 I I I I #
loop $-1 $-1 $66 $32 #
coedge $-1 $65 $65 $80 $81 0 $47 $-1 #
coedge $-1 $66 $66 $50 $67 1 $64 $-1 #
edge $-1 $82 $82 $66 $83 0 #
vertex $-1 $52 $84 #
ellipse-curve $-1 0 0 1.544248293164230068 0 0 1 1.344999999999999973 0 0 1 I I #
loop $-1 $85 $53 $86 #
vertex $-1 $54 $87 #
ellipse-curve $-1 0 0 -1.501049613789050108 0 0 -1 1.344999999999999973 0 0 1 I I #
point $-1 -1.300000000000000044 0 1.603999500000000022 #
cone-surface $-1 0 0 1.603999500000000022 0 0 -1 -1.300000000000000044 0 0 1 I I 0 1 0 I I I I #
face $-1 $88 $89 $3 $-1 $90 forward single #
loop $-1 $91 $92 $61 #
cone-surface $-1 0 0 1.235398634531380102 0 0 1 1.995000000000000107 0 0 1 I I 0.9876883405951379924 0.1564344650402320069 0 I I I I #
loop $-1 $-1 $80 $46 #
coedge $-1 $79 $79 $93 $94 0 $62 $-1 #
coedge $-1 $80 $80 $65 $81 1 $78 $-1 #
edge $-1 $95 $95 $80 $96 0 #
vertex $-1 $67 $97 #
ellipse-curve $-1 0 0 1.441298406953279931 0 0 1 1.995000000000000107 0 0 1 I I #
point $-1 -1.344999999999999973 0 1.544248293164230068 #
loop $-1 $-1 $98 $86 #
face $-1 $59 $70 $3 $-1 $99 forward single #
point $-1 -1.344999999999999973 0 -1.501049613789050108 #
face $-1 $100 $101 $3 $-1 $102 forward single #
loop $-1 $103 $104 $75 #
cone-surface $-1 0 0 1.029498862109490043 0 0 -1 1.995000000000000107 0 0 1 I I 0.9876883405951379924 0.1564344650402310077 0 I I I I #
loop $-1 $-1 $93 $61 #
coedge $-1 $92 $92 $105 $106 0 $76 $-1 #
coedge $-1 $93 $93 $79 $94 1 $91 $-1 #
edge $-1 $107 $107 $93 $108 0 #
vertex $-1 $81 $109 #
ellipse-curve $-1 0 0 1.338348520742330017 0 0 1 1.344999999999999973 0 0 1 I I #
point $-1 -1.995000000000000107 0 1.441298406953279931 #
coedge $-1 $98 $98 $110 $111 1 $85 $-1 #
cone-surface $-1 0 0 -1.398099727578099971 0 0 1 1.995000000000000107 0 0 1 I I 0.9876883405951379924 0.1564344650402310077 0 I I I I #
face $-1 $112 $113 $3 $-1 $114 forward single #
loop $-1 $115 $116 $88 #
cone-surface $-1 0 0 1.029498862109490043 0 0 1 1.995000000000000107 0 0 1 I I 0.9876883405951379924 0.1564344650402310077 0 I I I I #
loop $-1 $-1 $105 $75 #
coedge $-1 $104 $104 $117 $118 0 $89 $-1 #
coedge $-1 $105 $105 $92 $106 1 $103 $-1 #
edge $-1 $119 $119 $105 $120 0 #
vertex $-1 $94 $121 #
ellipse-curve $-1 0 0 1.235398634531380102 0 0 1 1.995000000000000107 0 0 1 I I #
point $-1 -1.344999999999999973 0 1.338348520742330017 #
coedge $-1 $110 $110 $98 $111 0 $122 $-1 #
edge $-1 $123 $123 $98 $124 0 #
face $-1 $125 $126 $3 $-1 $127 forward single #
loop $-1 $128 $129 $100 #
cone-surface $-1 0 0 0.8235990896875889922 0 0 -1 1.995000000000000107 0 0 1 I I 0.9876883405951379924 0.1564344650402320069 0 I I I I #
loop $-1 $-1 $117 $88 #
coedge $-1 $116 $116 $130 $131 0 $101 $-1 #
coedge $-1 $117 $117 $104 $118 1 $115 $-1 #
edge $-1 $132 $132 $117 $133 0 #
vertex $-1 $106 $134 #
ellipse-curve $-1 0 0 1.132448748320439957 0 0 1 1.344999999999999973 0 0 1 I I #
point $-1 -1.995000000000000107 0 1.235398634531380102 #
loop $-1 $135 $110 $136 #
vertex $-1 $111 $137 #
ellipse-curve $-1 0 0 -1.398099727578099971 0 0 1 1.995000000000000107 0 0 1 I I #
face $-1 $138 $139 $3 $-1 $140 forward single #
loop $-1 $141 $142 $112 #
cone-surface $-1 0 0 0.8235990896875889922 0 0 1 1.995000000000000107 0 0 1 I I 0.9876883405951379924 0.1564344650402320069 0 I I I I #
loop $-1 $-1 $130 $100 #
coedge $-1 $129 $129 $143 $144 0 $113 $-1 #
coedge $-1 $130 $130 $116 $131 1 $128 $-1 #
edge $-1 $145 $145 $130 $146 0 #
vertex $-1 $118 $147 #
ellipse-curve $-1 0 0 1.029498862109490043 0 0 1 1.995000000000000107 0 0 1 I I #
point $-1 -1.344999999999999973 0 1.132448748320439957 #
loop $-1 $-1 $148 $136 #
face $-1 $86 $122 $3 $-1 $149 forward single #
point $-1 -1.995000000000000107 0 -1.398099727578099971 #
face $-1 $150 $151 $3 $-1 $152 forward single #
loop $-1 $153 $154 $125 #
cone-surface $-1 0 0 0.6176993172656910502 0 0 -1 1.995000000000000107 0 0 1 I I 0.9876883405951379924 0.1564344650402310077 0 I I I I #
loop $-1 $-1 $143 $112 #
coedge $-1 $142 $142 $155 $156 0 $126 $-1 #
coedge $-1 $143 $143 $129 $144 1 $141 $-1 #
edge $-1 $157 $157 $143 $158 0 #
vertex $-1 $131 $159 #
ellipse-curve $-1 0 0 0.9265489758985370194 0 0 1 1.344999999999999973 0 0 1 I I #
point $-1 -1.995000000000000107 0 1.029498862109490043 #
coedge $-1 $148 $148 $160 $161 1 $135 $-1 #
cone-surface $-1 0 0 -1.398099727578099971 0 0 -1 1.995000000000000107 0 0 1 I I 0.9876883405951379924 0.1564344650402310077 0 I I I I #
face $-1 $162 $163 $3 $-1 $164 forward single #
loop $-1 $165 $166 $138 #
cone-surface $-1 0 0 0.6176993172656910502 0 0 1 1.995000000000000107 0 0 1 I I 0.9876883405951379924 0.1564344650402310077 0 I I I I #
loop $-1 $-1 $155 $125 #
coedge $-1 $154 $154 $167 $168 0 $139 $-1 #
coedge $-1 $155 $155 $142 $156 1 $153 $-1 #
edge $-1 $169 $169 $155 $170 0 #
vertex $-1 $144 $171 #
ellipse-curve $-1 0 0 0.8235990896875889922 0 0 1 1.995000000000000107 0 0 1 I I #
point $-1 -1.344999999999999973 0 0.9265489758985370194 #
coedge $-1 $160 $160 $148 $161 0 $172 $-1 #
edge $-1 $173 $173 $148 $174 0 #
face $-1 $175 $176 $3 $-1 $177 forward single #
loop $-1 $178 $179 $150 #
cone-surface $-1 0 0 0.4117995448437949957 0 0 -1 1.995000000000000107 0 0 1 I I 0.9876883405951379924 0.1564344650402320069 0 I I I I #
loop $-1 $-1 $167 $138 #
coedge $-1 $166 $166 $180 $181 0 $151 $-1 #
coedge $-1 $167 $167 $154 $168 1 $165 $-1 #
edge $-1 $182 $182 $167 $183 0 #
vertex $-1 $156 $184 #
ellipse-curve $-1 0 0 0.7206492034766399657 0 0 1 1.344999999999999973 0 0 1 I I #
point $-1 -1.995000000000000107 0 0.8235990896875889922 #
loop $-1 $185 $160 $186 #
vertex $-1 $161 $187 #
ellipse-curve $-1 0 0 -1.295149841367150056 0 0 1 1.344999999999999973 0 0 1 I I #
face $-1 $188 $189 $3 $-1 $190 forward single #
loop $-1 $191 $192 $162 #
cone-surface $-1 0 0 0.4117995448437949957 0 0 1 1.995000000000000107 0 0 1 I I 0.9876883405951379924 0.1564344650402320069 0 I I I I #
loop $-1 $-1 $180 $150 #
coedge $-1 $179 $179 $193 $194 0 $163 $-1 #
coedge $-1 $180 $180 $166 $181 1 $178 $-1 #
edge $-1 $195 $195 $180 $196 0 #
vertex $-1 $168 $197 #
ellipse-curve $-1 0 0 0.6176993172656910502 0 0 1 1.995000000000000107 0 0 1 I I #
point $-1 -1.344999999999999973 0 0.7206492034766399657 #
loop $-1 $-1 $198 $186 #
face $-1 $136 $172 $3 $-1 $199 forward single #
point $-1 -1.344999999999999973 0 -1.295149841367150056 #
face $-1 $200 $201 $3 $-1 $202 forward single #
loop $-1 $203 $204 $175 #
cone-surface $-1 0 0 0.2058997724218969982 0 0 -1 1.995000000000000107 0 0 1 I I 0.9876883405951379924 0.1564344650402310077 0 I I I I #
loop $-1 $-1 $193 $162 #
coedge $-1 $192 $192 $205 $206 0 $176 $-1 #
coedge $-1 $193 $193 $179 $194 1 $191 $-1 #
edge $-1 $207 $207 $193 $208 0 #
vertex $-1 $181 $209 #
ellipse-curve $-1 0 0 0.514749431054743023 0 0 1 1.344999999999999973 0 0 1 I I #
point $-1 -1.995000000000000107 0 0.6176993172656910502 #
coedge $-1 $198 $198 $210 $211 1 $185 $-1 #
cone-surface $-1 0 0 -1.192199955156209912 0 0 1 1.995000000000000107 0 0 1 I I 0.9876883405951379924 0.1564344650402310077 0 I I I I #
face $-1 $212 $213 $3 $-1 $214 forward single #
loop $-1 $215 $216 $188 #
cone-surface $-1 0 0 0.2058997724218969982 0 0 1 1.995000000000000107 0 0 1 I I 0.9876883405951379924 0.1564344650402310077 0 I I I I #
loop $-1 $-1 $205 $175 #
coedge $-1 $204 $204 $217 $218 0 $189 $-1 #
coedge $-1 $205 $205 $192 $206 1 $203 $-1 #
edge $-1 $219 $219 $205 $220 0 #
vertex $-1 $194 $221 #
ellipse-curve $-1 0 0 0.4117995448437949957 0 0 1 1.995000000000000107 0 0 1 I I #
point $-1 -1.344999999999999973 0 0.514749431054743023 #
coedge $-1 $210 $210 $198 $211 0 $222 $-1 #
edge $-1 $223 $223 $198 $224 0 #
face $-1 $225 $226 $3 $-1 $227 forward single #
loop $-1 $228 $229 $200 #
cone-surface $-1 0 0 0 0 0 -1 1.995000000000000107 0 0 1 I I 0.9876883405951379924 0.1564344650402310077 0 I I I I #
loop $-1 $-1 $217 $188 #
coedge $-1 $216 $216 $230 $231 0 $201 $-1 #
coedge $-1 $217 $217 $204 $218 1 $215 $-1 #
edge $-1 $232 $232 $217 $233 0 #
vertex $-1 $206 $234 #
ellipse-curve $-1 0 0 0.3088496586328460247 0 0 1 1.344999999999999973 0 0 1 I I #
point $-1 -1.995000000000000107 0 0.4117995448437949957 #
loop $-1 $235 $210 $236 #
vertex $-1 $211 $237 #
ellipse-curve $-1 0 0 -1.192199955156209912 0 0 1 1.995000000000000107 0 0 1 I I #
face $-1 $238 $239 $3 $-1 $240 forward single #
loop $-1 $241 $242 $212 #
cone-surface $-1 0 0 0 0 0 1 1.995000000000000107 0 0 1 I I 0.9876883405951379924 0.1564344650402310077 0 I I I I #
loop $-1 $-1 $230 $200 #
coedge $-1 $229 $229 $243 $244 0 $213 $-1 #
coedge $-1 $230 $230 $216 $231 1 $228 $-1 #
edge $-1 $245 $245 $230 $246 0 #
vertex $-1 $218 $247 #
ellipse-curve $-1 0 0 0.2058997724218969982 0 0 1 1.995000000000000107 0 0 1 I I #
point $-1 -1.344999999999999973 0 0.3088496586328460247 #
loop $-1 $-1 $248 $236 #
face $-1 $186 $222 $3 $-1 $249 forward single #
point $-1 -1.995000000000000107 0 -1.192199955156209912 #
face $-1 $250 $251 $3 $-1 $252 forward single #
loop $-1 $253 $254 $225 #
cone-surface $-1 0 0 -0.2058997724218969982 0 0 -1 1.995000000000000107 0 0 1 I I 0.9876883405951379924 0.1564344650402310077 0 I I I I #
loop $-1 $-1 $243 $212 #
coedge $-1 $242 $242 $255 $256 0 $226 $-1 #
coedge $-1 $243 $243 $229 $244 1 $241 $-1 #
edge $-1 $257 $257 $243 $258 0 #
vertex $-1 $231 $259 #
ellipse-curve $-1 0 0 0.1029498862109479995 0 0 1 1.344999999999999973 0 0 1 I I #
point $-1 -1.995000000000000107 0 0.2058997724218969982 #
coedge $-1 $248 $248 $260 $261 1 $235 $-1 #
cone-surface $-1 0 0 -1.192199955156209912 0 0 -1 1.995000000000000107 0 0 1 I I 0.9958014932787080387 0.09153898614194780348 0 I I I I #
face $-1 $262 $263 $3 $-1 $264 forward single #
loop $-1 $265 $266 $238 #
cone-surface $-1 0 0 -0.2058997724218969982 0 0 1 1.995000000000000107 0 0 1 I I 0.9876883405951379924 0.1564344650402310077 0 I I I I #
loop $-1 $-1 $255 $225 #
coedge $-1 $254 $254 $267 $268 0 $239 $-1 #
coedge $-1 $255 $255 $242 $256 1 $253 $-1 #
edge $-1 $269 $269 $255 $270 0 #
vertex $-1 $244 $271 #
ellipse-curve $-1 0 0 0 0 0 1 1.995000000000000107 0 0 1 I I #
point $-1 -1.344999999999999973 0 0.1029498862109479995 #
coedge $-1 $260 $260 $248 $261 0 $272 $-1 #
edge $-1 $273 $273 $248 $274 0 #
face $-1 $275 $276 $3 $-1 $277 forward single #
loop $-1 $278 $279 $250 #
cone-surface $-1 0 0 -0.4117995448437939965 0 0 -1 1.995000000000000107 0 0 1 I I 0.9876883405951379924 0.1564344650402310077 0 I I I I #
loop $-1 $-1 $267 $238 #
coedge $-1 $266 $266 $280 $281 0 $251 $-1 #
coedge $-1 $267 $267 $254 $268 1 $265 $-1 #
edge $-1 $282 $282 $267 $283 0 #
vertex $-1 $256 $284 #
ellipse-curve $-1 0 0 -0.1029498862109489987 0 0 1 1.344999999999999973 0 0 1 I I #
point $-1 -1.995000000000000107 0 0 #
loop $-1 $285 $260 $286 #
vertex $-1 $261 $287 #
ellipse-curve $-1 0 0 -1.132448748320429965 0 0 1 1.344999999999999973 0 0 1 I I #
face $-1 $288 $289 $3 $-1 $290 forward single #
loop $-1 $291 $292 $262 #
cone-surface $-1 0 0 -0.4117995448437939965 0 0 1 1.995000000000000107 0 0 1 I I 0.9876883405951379924 0.1564344650402310077 0 I I I I #
loop $-1 $-1 $280 $250 #
coedge $-1 $279 $279 $293 $294 0 $263 $-1 #
coedge $-1 $280 $280 $266 $281 1 $278 $-1 #
edge $-1 $295 $295 $280 $296 0 #
vertex $-1 $268 $297 #
ellipse-curve $-1 0 0 -0.2058997724218969982 0 0 1 1.995000000000000107 0 0 1 I I #
point $-1 -1.344999999999999973 0 -0.1029498862109489987 #
loop $-1 $-1 $298 $286 #
face $-1 $236 $272 $3 $-1 $299 forward single #
point $-1 -1.344999999999999973 0 -1.132448748320429965 #
face $-1 $300 $301 $3 $-1 $302 forward single #
loop $-1 $303 $304 $275 #
cone-surface $-1 0 0 -0.6176993172656910502 0 0 -1 1.995000000000000107 0 0 1 I I 0.9876883405951379924 0.1564344650402310077 0 I I I I #
loop $-1 $-1 $293 $262 #
coedge $-1 $292 $292 $305 $306 0 $276 $-1 #
coedge $-1 $293 $293 $279 $294 1 $291 $-1 #
edge $-1 $307 $307 $293 $308 0 #
vertex $-1 $281 $309 #
ellipse-curve $-1 0 0 -0.3088496586328460247 0 0 1 1.344999999999999973 0 0 1 I I #
point $-1 -1.995000000000000107 0 -0.2058997724218969982 #
coedge $-1 $298 $298 $310 $311 1 $285 $-1 #
cone-surface $-1 0 0 -1.029498862109490043 0 0 1 1.995000000000000107 0 0 1 I I 0.9876883405951379924 0.1564344650402310077 0 I I I I #
face $-1 $312 $313 $3 $-1 $314 forward single #
loop $-1 $315 $316 $288 #
cone-surface $-1 0 0 -0.6176993172656910502 0 0 1 1.995000000000000107 0 0 1 I I 0.9876883405951379924 0.1564344650402310077 0 I I I I #
loop $-1 $-1 $305 $275 #
coedge $-1 $304 $304 $317 $318 0 $289 $-1 #
coedge $-1 $305 $305 $292 $306 1 $303 $-1 #
edge $-1 $319 $319 $305 $320 0 #
vertex $-1 $294 $321 #
ellipse-curve $-1 0 0 -0.4117995448437939965 0 0 1 1.995000000000000107 0 0 1 I I #
point $-1 -1.344999999999999973 0 -0.3088496586328460247 #
coedge $-1 $310 $310 $298 $311 0 $322 $-1 #
edge $-1 $323 $323 $298 $324 0 #
face $-1 $325 $326 $3 $-1 $327 forward single #
loop $-1 $328 $329 $300 #
cone-surface $-1 0 0 -0.823599089687587993 0 0 -1 1.995000000000000107 0 0 1 I I 0.9876883405951379924 0.1564344650402310077 0 I I I I #
loop $-1 $-1 $317 $288 #
coedge $-1 $316 $316 $330 $331 0 $301 $-1 #
coedge $-1 $317 $317 $304 $318 1 $315 $-1 #
edge $-1 $332 $332 $317 $333 0 #
vertex $-1 $306 $334 #
ellipse-curve $-1 0 0 -0.514749431054743023 0 0 1 1.344999999999999973 0 0 1 I I #
point $-1 -1.995000000000000107 0 -0.4117995448437939965 #
loop $-1 $335 $310 $325 #
vertex $-1 $311 $336 #
ellipse-curve $-1 0 0 -1.029498862109490043 0 0 1 1.995000000000000107 0 0 1 I I #
face $-1 $286 $322 $3 $-1 $337 forward single #
loop $-1 $338 $339 $312 #
cone-surface $-1 0 0 -0.823599089687587993 0 0 1 1.995000000000000107 0 0 1 I I 0.9876883405951379924 0.1564344650402310077 0 I I I I #
loop $-1 $-1 $330 $300 #
coedge $-1 $329 $329 $340 $341 0 $313 $-1 #
coedge $-1 $330 $330 $316 $331 1 $328 $-1 #
edge $-1 $342 $342 $330 $343 0 #
vertex $-1 $318 $344 #
ellipse-curve $-1 0 0 -0.6176993172656910502 0 0 1 1.995000000000000107 0 0 1 I I #
point $-1 -1.344999999999999973 0 -0.514749431054743023 #
loop $-1 $-1 $345 $325 #
point $-1 -1.995000000000000107 0 -1.029498862109490043 #
cone-surface $-1 0 0 -1.029498862109490043 0 0 -1 1.995000000000000107 0 0 1 I I 0.9876883405951379924 0.1564344650402310077 0 I I I I #
loop $-1 $-1 $340 $312 #
coedge $-1 $339 $339 $345 $346 0 $326 $-1 #
coedge $-1 $340 $340 $329 $341 1 $338 $-1 #
edge $-1 $347 $347 $340 $348 0 #
vertex $-1 $331 $349 #
ellipse-curve $-1 0 0 -0.7206492034766399657 0 0 1 1.344999999999999973 0 0 1 I I #
point $-1 -1.995000000000000107 0 -0.6176993172656910502 #
coedge $-1 $345 $345 $339 $346 1 $335 $-1 #
edge $-1 $350 $350 $345 $351 0 #
vertex $-1 $341 $352 #
ellipse-curve $-1 0 0 -0.823599089687587993 0 0 1 1.995000000000000107 0 0 1 I I #
point $-1 -1.344999999999999973 0 -0.7206492034766399657 #
vertex $-1 $346 $353 #
ellipse-curve $-1 0 0 -0.9265489758985370194 0 0 1 1.344999999999999973 0 0 1 I I #
point $-1 -1.995000000000000107 0 -0.823599089687587993 #
point $-1 -1.344999999999999973 0 -0.9265489758985370194 #
End-of-ACIS-data 