600 0 1 0           
102 GICL ACIS Healer - Source: /gicl/data5/repository/CMU/spectrometer/bellows_attach_ring_21_v2.sat - 6 0 18 ACIS 6.0.3 Solaris 24 Sat Apr 13 00:29:09 2002 
1 9.999999999999999547e-07 1.000000000000000036e-10 
body $-1 $1 $-1 $-1 #
lump $-1 $-1 $2 $0 #
shell $-1 $-1 $-1 $3 $-1 $1 #
face $-1 $4 $5 $2 $-1 $6 forward single #
face $-1 $7 $8 $2 $-1 $9 forward single #
loop $-1 $10 $11 $3 #
plane-surface $-1 0 -0.001000000000000000021 -3.927000000000000046 0 0 -1 0.999999999999999889 0 0 forward_v I I I I #
face $-1 $12 $13 $2 $-1 $14 reversed single #
loop $-1 $15 $16 $4 #
plane-surface $-1 0 -0.001000000000000000021 -3.342999999999999972 0 0 -1 0.999999999999999889 0 0 forward_v I I I I #
loop $-1 $-1 $17 $3 #
coedge $-1 $11 $11 $18 $19 reversed $5 $-1 #
face $-1 $20 $21 $2 $-1 $22 reversed single #
loop $-1 $23 $24 $7 #
plane-surface $-1 0 -0.001000000000000000021 -3.208000000000000185 0 0 -1 0.999999999999999889 0 0 forward_v I I I I #
loop $-1 $-1 $25 $4 #
coedge $-1 $16 $16 $26 $27 forward $8 $-1 #
coedge $-1 $17 $17 $28 $29 reversed $10 $-1 #
coedge $-1 $18 $18 $11 $19 forward $30 $-1 #
edge $-1 $31 -3.141592653589799777 $31 3.141592653589786455 $18 $32 forward 7 unknown #
face $-1 $33 $30 $2 $-1 $34 forward single #
loop $-1 $35 $36 $12 #
plane-surface $-1 0 -0.001000000000000000021 -3.228000000000000203 0 0 -1 0.999999999999999889 0 0 forward_v I I I I #
loop $-1 $-1 $37 $7 #
coedge $-1 $24 $24 $38 $39 forward $13 $-1 #
coedge $-1 $25 $25 $40 $41 forward $15 $-1 #
coedge $-1 $26 $26 $16 $27 reversed $42 $-1 #
edge $-1 $43 0 $43 6.283185307179586232 $26 $44 forward 7 unknown #
coedge $-1 $28 $28 $17 $29 forward $45 $-1 #
edge $-1 $46 -3.141592653589799777 $46 3.141592653589786455 $28 $47 forward 7 unknown #
loop $-1 $48 $18 $20 #
vertex $-1 $19 $49 #
ellipse-curve $-1 0 -0.001000000000000000021 -3.927000000000000046 0 0 1 -1.468499999999999694 0 0 1 I I #
face $-1 $50 $51 $2 $-1 $52 forward single #
cone-surface $-1 0 -0.001000000000000000021 -3.169999999999999929 0 0 -1 -1.468499999999999694 0 0 1 I I 0 1 1.468499999999999694 forward I I I I #
loop $-1 $-1 $53 $12 #
coedge $-1 $36 $36 $54 $55 forward $21 $-1 #
coedge $-1 $37 $37 $56 $57 forward $23 $-1 #
coedge $-1 $38 $38 $24 $39 reversed $58 $-1 #
edge $-1 $59 0 $59 6.283185307179586232 $38 $60 forward 7 unknown #
coedge $-1 $40 $40 $25 $41 reversed $48 $-1 #
edge $-1 $61 -3.141592653589793116 $61 3.141592653589793116 $25 $62 forward 7 unknown #
loop $-1 $-1 $26 $33 #
vertex $-1 $27 $63 #
ellipse-curve $-1 0 -0.001000000000000000021 -3.342999999999999972 0 0 -1 1.994999999999999885 0 0 1 I I #
loop $-1 $64 $28 $65 #
vertex $-1 $29 $66 #
ellipse-curve $-1 0 -0.001000000000000000021 -3.927000000000000046 0 0 -1 -1.344999999999999751 0 0 1 I I #
loop $-1 $-1 $40 $20 #
point $-1 1.468499999999999694 -0.001000000000010254405 -3.927000000000000046 #
face $-1 $67 $68 $2 $-1 $69 reversed single #
loop $-1 $42 $70 $33 #
cone-surface $-1 0 -0.001000000000000000021 -3.169999999999999929 0 0 -1 -1.994999999999999885 0 0 1 I I 0 1 1.994999999999999885 forward I I I I #
coedge $-1 $53 $53 $71 $72 forward $35 $-1 #
coedge $-1 $54 $54 $36 $55 reversed $64 $-1 #
edge $-1 $73 0 $73 6.283185307179586232 $54 $74 forward 7 unknown #
coedge $-1 $56 $56 $37 $57 reversed $75 $-1 #
edge $-1 $76 -3.141592653589793116 $76 3.141592653589793116 $37 $77 forward 7 unknown #
loop $-1 $-1 $38 $78 #
vertex $-1 $39 $79 #
ellipse-curve $-1 0 -0.001000000000000000021 -3.208000000000000185 0 0 -1 1.926999999999999824 0 0 1 I I #
vertex $-1 $41 $80 #
ellipse-curve $-1 0 -0.001000000000000000021 -3.342999999999999972 0 0 1 1.468499999999999694 0 0 1 I I #
point $-1 1.994999999999999885 -0.001000000000000000021 -3.342999999999999972 #
loop $-1 $-1 $54 $65 #
face $-1 $-1 $45 $2 $-1 $81 reversed single #
point $-1 1.344999999999999751 -0.0009999999999906080111 -3.927000000000000046 #
face $-1 $78 $75 $2 $-1 $82 forward single #
loop $-1 $83 $84 $50 #
torus-surface $-1 0 -0.001000000000000000021 -3.243000000000000327 0 0 -1 1.994999999999999885 0.02499999999999999792 1 0 0 forward_v I I I I #
coedge $-1 $70 $70 $85 $86 forward $51 $-1 #
coedge $-1 $71 $71 $53 $72 reversed $87 $-1 #
edge $-1 $88 -3.141592653589793116 $88 3.141592653589793116 $53 $89 forward 7 unknown #
vertex $-1 $55 $90 #
ellipse-curve $-1 0 -0.001000000000000000021 -3.228000000000000203 0 0 -1 1.344999999999999751 0 0 1 I I #
loop $-1 $91 $56 $67 #
vertex $-1 $57 $92 #
ellipse-curve $-1 0 -0.001000000000000000021 -3.208000000000000185 0 0 1 1.994999999999999885 0 0 1 I I #
face $-1 $65 $87 $2 $-1 $93 reversed single #
point $-1 1.926999999999999824 -0.001000000000000000021 -3.208000000000000185 #
point $-1 -1.468499999999999694 -0.001000000000000000021 -3.342999999999999972 #
cone-surface $-1 0 -0.001000000000000000021 -3.169999999999999929 0 0 -1 -1.344999999999999751 0 0 1 I I 0 1 1.344999999999999751 forward I I I I #
cone-surface $-1 0 -0.001000000000000000021 -3.169999999999999929 0 0 -1 -1.994999999999999885 0 0 1 I I 0 1 1.994999999999999885 forward I I I I #
loop $-1 $-1 $85 $50 #
coedge $-1 $84 $84 $94 $95 forward $68 $-1 #
coedge $-1 $85 $85 $70 $86 reversed $83 $-1 #
edge $-1 $96 -3.141592653589793116 $96 3.141592653589793116 $85 $97 forward 7 unknown #
loop $-1 $58 $71 $78 #
vertex $-1 $72 $98 #
ellipse-curve $-1 0 -0.001000000000000000021 -3.228000000000001091 0 0 1 1.892358983848619669 0 0 1 I I #
point $-1 1.344999999999999751 -0.001000000000000000021 -3.228000000000000203 #
loop $-1 $-1 $94 $67 #
point $-1 -1.994999999999999885 -0.001000000000000000021 -3.208000000000000185 #
cone-surface $-1 0 -0.001000000000000000021 -3.208000000000000185 0 0 1 1.926999999999999824 0 0 1 I I 0.8660254037844370423 0.5000000000000029976 1.926999999999999824 forward I I I I #
coedge $-1 $94 $94 $84 $95 reversed $91 $-1 #
edge $-1 $99 -3.141592653589793116 $99 3.141592653589793116 $94 $100 forward 7 unknown #
vertex $-1 $86 $101 #
ellipse-curve $-1 0 -0.001000000000000000021 -3.268000000000000238 0 0 -1 1.994999999999999885 0 0 1 I I #
point $-1 -1.892358983848619669 -0.001000000000000000021 -3.228000000000001091 #
vertex $-1 $95 $102 #
ellipse-curve $-1 0 -0.001000000000000000021 -3.217999999999999972 0 0 -1 1.994999999999999885 0 0 1 I I #
point $-1 -1.994999999999999885 -0.001000000000000000021 -3.268000000000000238 #
point $-1 -1.994999999999999885 -0.001000000000000000021 -3.217999999999999972 #
End-of-ACIS-data 