700 0 2 0           
24 FBMach with ACIS - 7.0.3 13 ACIS 7.0.3 NT 24 Mon May 13 16:57:11 2002 
1 9.9999999999999995e-007 1e-010 
body $2 -1 $-1 $3 $-1 $4 #
bdycol-kcp $-1 -1 1 6 $5 $6 $7 $8 $9 $10 #
model_id-kcp-attrib $-1 -1 $-1 $-1 $0 1 1021323429 1021323429 1271791617 1 #
lump $-1 -1 $-1 $-1 $11 $0 #
transform $-1 -1 1.0000000000000002 0 0 0 1 0 0 0 1.0000000000000002 8.8817841970012523e-016 0 -8.8817841970012523e-016 1 rotate no_reflect no_shear #
body $12 -1 $-1 $13 $-1 $14 #
body $15 -1 $-1 $16 $-1 $17 #
body $18 -1 $-1 $19 $-1 $20 #
body $21 -1 $-1 $22 $-1 $23 #
body $24 -1 $-1 $25 $-1 $26 #
body $27 -1 $-1 $28 $-1 $29 #
shell $-1 -1 $-1 $-1 $-1 $30 $-1 $3 #
model_id-kcp-attrib $-1 -1 $-1 $-1 $5 1 1021323429 1021323429 1271791618 1 #
lump $-1 -1 $-1 $-1 $31 $5 #
transform $-1 -1 1 0 0 0 1 0 0 0 1 -4.3950356967032524 0 5.5200356967032524 1 no_rotate no_reflect no_shear #
rgb_color-st-attrib $-1 -1 $32 $-1 $6 0.5 1 1 #
lump $-1 -1 $-1 $-1 $33 $6 #
transform $-1 -1 -0.70710678118654757 8.6592745707193554e-017 -0.70710678118654746 -1.2246063538223773e-016 -1 0 -0.70710678118654746 8.6592745707193542e-017 0.70710678118654757 -4.5530740622984442 2.7631745155165352e-017 5.6780740622984442 1 rotate no_reflect no_shear #
rgb_color-st-attrib $-1 -1 $34 $-1 $7 0.5 0.5 1 #
lump $-1 -1 $-1 $-1 $35 $7 #
transform $-1 -1 1 0 0 0 1 0 0 0 1 -4.3950356967032524 0 5.5200356967032524 1 no_rotate no_reflect no_shear #
rgb_color-st-attrib $-1 -1 $36 $-1 $8 0.5 1 1 #
lump $-1 -1 $-1 $-1 $37 $8 #
transform $-1 -1 1 0 0 0 1 0 0 0 1 -4.3950356967032524 0 5.5200356967032524 1 no_rotate no_reflect no_shear #
rgb_color-st-attrib $-1 -1 $38 $-1 $9 0.5 0.5 1 #
lump $-1 -1 $-1 $-1 $39 $9 #
transform $-1 -1 1 0 0 0 1 0 0 0 1 -4.3950356967032524 0 5.5200356967032524 1 no_rotate no_reflect no_shear #
rgb_color-st-attrib $-1 -1 $40 $-1 $10 1 0.5 1 #
lump $-1 -1 $-1 $-1 $41 $10 #
transform $-1 -1 1 0 0 0 1 0 0 0 1 -4.3950356967032524 0 5.5200356967032524 1 no_rotate no_reflect no_shear #
face $42 -1 $-1 $43 $44 $11 $-1 $45 forward single #
shell $-1 -1 $-1 $-1 $-1 $46 $-1 $13 #
model_id-kcp-attrib $-1 -1 $-1 $15 $6 1 1021323429 1021323430 1258553347 1 #
shell $-1 -1 $-1 $-1 $-1 $47 $-1 $16 #
model_id-kcp-attrib $-1 -1 $-1 $18 $7 1 1021323429 1021323430 1260126213 1 #
shell $-1 -1 $-1 $-1 $-1 $48 $-1 $19 #
model_id-kcp-attrib $-1 -1 $-1 $21 $8 1 1021323429 1021323430 1265106948 1 #
shell $-1 -1 $-1 $-1 $-1 $49 $-1 $22 #
model_id-kcp-attrib $-1 -1 $-1 $24 $9 1 1021323429 1021323430 1269301254 1 #
shell $-1 -1 $-1 $-1 $-1 $50 $-1 $25 #
model_id-kcp-attrib $-1 -1 $-1 $27 $10 1 1021323429 1021323430 1270939655 1 #
shell $-1 -1 $-1 $-1 $-1 $51 $-1 $28 #
model_id-kcp-attrib $-1 -1 $-1 $-1 $30 1 1021323429 1021323429 1271791617 2 #
face $52 -1 $-1 $53 $54 $11 $-1 $55 forward single #
loop $-1 -1 $-1 $56 $57 $30 #
plane-surface $-1 -1 $-1 -4.7446999999999999 0 5.8696999999999999 -0.70710678118654757 0 0.70710678118654757 0.70710678118654746 0 0.70710678118654746 forward_v I I I I #
face $-1 -1 $-1 $58 $59 $31 $-1 $60 forward single #
face $-1 -1 $-1 $61 $62 $33 $-1 $63 forward single #
face $-1 -1 $-1 $64 $65 $35 $-1 $66 reversed single #
face $-1 -1 $-1 $67 $68 $37 $-1 $69 reversed single #
face $-1 -1 $-1 $70 $71 $39 $-1 $72 reversed single #
face $-1 -1 $-1 $73 $74 $41 $-1 $75 reversed single #
model_id-kcp-attrib $-1 -1 $-1 $-1 $43 1 1021323429 1021323429 1271791617 3 #
face $76 -1 $-1 $77 $78 $11 $-1 $79 reversed single #
loop $-1 -1 $-1 $80 $81 $43 #
plane-surface $-1 -1 $-1 -4.4427654044333442 0 5.5677654044333442 -0.70710678118654757 0 0.70710678118654757 0.70710678118654746 0 0.70710678118654746 forward_v I I I I #
loop $82 -1 $-1 $-1 $83 $30 #
coedge $-1 -1 $-1 $57 $57 $84 $85 forward $44 $-1 #
face $-1 -1 $-1 $86 $87 $31 $-1 $88 reversed single #
loop $-1 -1 $-1 $-1 $89 $46 #
plane-surface $-1 -1 $-1 0 0 1.4584077361972545 0 0 1 1 0 0 forward_v I I I I #
face $-1 -1 $-1 $90 $91 $33 $-1 $92 forward single #
loop $-1 -1 $-1 $93 $94 $47 #
cone-surface $-1 -1 $-1 0 0 0 0 0 1 0.93749999999999989 0 0 1 I I 0 1 0.93749999999999989 forward I I I I #
face $-1 -1 $-1 $95 $96 $35 $-1 $97 forward single #
loop $-1 -1 $-1 $-1 $98 $48 #
plane-surface $-1 -1 $-1 -0.34966430329674925 0 0.34966430329674925 -0.70710678118654757 0 0.70710678118654757 0 -1 0 forward_v I I I I #
face $-1 -1 $-1 $99 $100 $37 $-1 $69 reversed single #
loop $-1 -1 $-1 $-1 $101 $49 #
cone-surface $-1 -1 $-1 -0.34966430329674836 0 0.34966430329674836 -0.70710678118654757 0 0.70710678118654757 -1.4106780284671625 2.4430896758756431e-016 -1.4106780284671625 1 I I 0 1 1.9950000000000001 forward I I I I #
face $-1 -1 $-1 $102 $103 $39 $-1 $104 forward single #
loop $-1 -1 $-1 $-1 $105 $50 #
plane-surface $-1 -1 $-1 0.047729707730091775 0 -0.047729707730091775 0.70710678118654757 0 -0.70710678118654757 0 1 0 forward_v I I I I #
face $-1 -1 $-1 $106 $107 $41 $-1 $108 forward single #
loop $-1 -1 $-1 $-1 $109 $51 #
plane-surface $-1 -1 $-1 -1.4584077361972547 0 0 1 0 0 0 0 -1 forward_v I I I I #
model_id-kcp-attrib $-1 -1 $-1 $-1 $53 1 1021323429 1021323429 1271791617 4 #
face $110 -1 $-1 $111 $112 $11 $-1 $113 reversed single #
loop $-1 -1 $-1 $114 $115 $53 #
plane-surface $-1 -1 $-1 -4.3473059889731598 0 5.4723059889731598 -0.70710678118654757 0 0.70710678118654757 0.70710678118654746 0 0.70710678118654746 forward_v I I I I #
loop $-1 -1 $-1 $-1 $116 $43 #
coedge $-1 -1 $-1 $81 $81 $117 $118 forward $54 $-1 #
model_id-kcp-attrib $-1 -1 $-1 $-1 $56 1 1021323429 1021323429 1271791617 14 #
coedge $-1 -1 $-1 $83 $83 $119 $120 reversed $56 $-1 #
coedge $-1 -1 $-1 $84 $84 $57 $85 reversed $121 $-1 #
edge $122 -1 $-1 $123 0 $123 6.2831853071795862 $84 $124 forward @7 unknown #
face $-1 -1 $-1 $125 $126 $31 $-1 $127 reversed single #
loop $-1 -1 $-1 $-1 $128 $58 #
plane-surface $-1 -1 $-1 0 0 -1.4584077361972545 0 0 1 1 0 0 forward_v I I I I #
coedge $-1 -1 $-1 $129 $130 $131 $132 forward $59 $-1 #
face $-1 -1 $-1 $-1 $133 $33 $-1 $134 forward single #
loop $-1 -1 $-1 $-1 $135 $61 #
plane-surface $-1 -1 $-1 0 0 -0.27099999999999991 0 0 -1 -1 0 0 forward_v I I I I #
loop $-1 -1 $-1 $-1 $136 $47 #
coedge $-1 -1 $-1 $94 $94 $135 $137 reversed $62 $-1 #
face $-1 -1 $-1 $138 $139 $35 $-1 $140 forward single #
loop $-1 -1 $-1 $-1 $141 $64 #
plane-surface $-1 -1 $-1 0 0 1.4584077361972545 0 0 1 1 0 0 forward_v I I I I #
coedge $-1 -1 $-1 $142 $143 $144 $145 forward $65 $-1 #
face $-1 -1 $-1 $146 $147 $37 $-1 $148 reversed single #
loop $-1 -1 $-1 $-1 $149 $67 #
coedge $-1 -1 $-1 $150 $151 $152 $153 reversed $68 $-1 #
face $-1 -1 $-1 $154 $155 $39 $-1 $104 forward single #
loop $-1 -1 $-1 $-1 $156 $70 #
cone-surface $-1 -1 $-1 -0.34966430329674836 0 0.34966430329674836 -0.70710678118654757 0 0.70710678118654757 -1.4106780284671625 2.4430896758756431e-016 -1.4106780284671625 1 I I 0 1 1.9950000000000001 forward I I I I #
coedge $-1 -1 $-1 $157 $157 $158 $159 forward $71 $-1 #
face $-1 -1 $-1 $160 $161 $41 $-1 $162 forward single #
loop $-1 -1 $-1 $-1 $163 $73 #
plane-surface $-1 -1 $-1 0 0 1.4584077361972545 0 0 1 1 0 0 forward_v I I I I #
coedge $-1 -1 $-1 $164 $165 $166 $167 forward $74 $-1 #
model_id-kcp-attrib $-1 -1 $-1 $-1 $77 1 1021323429 1021323429 1271791617 5 #
face $168 -1 $-1 $169 $170 $11 $-1 $171 forward single #
loop $172 -1 $-1 $173 $174 $77 #
plane-surface $-1 -1 $-1 -4.3614481245968912 0 5.4864481245968912 -0.70710678118654757 0 0.70710678118654757 0.70710678118654746 0 0.70710678118654746 forward_v I I I I #
loop $-1 -1 $-1 $-1 $175 $53 #
coedge $-1 -1 $-1 $115 $115 $176 $177 forward $78 $-1 #
coedge $-1 -1 $-1 $116 $116 $178 $179 forward $80 $-1 #
coedge $-1 -1 $-1 $117 $117 $81 $118 reversed $180 $-1 #
edge $181 -1 $-1 $182 0 $182 6.2831853071795862 $117 $183 forward @7 unknown #
coedge $-1 -1 $-1 $119 $119 $83 $120 forward $184 $-1 #
edge $185 -1 $-1 $186 0 $186 6.2831853071795862 $119 $187 forward @7 unknown #
loop $-1 -1 $-1 $-1 $84 $111 #
attrib_edge_convexity-kcp-attrib $-1 -1 $188 $-1 $85 1 #
vertex $-1 -1 $-1 $85 $189 #
ellipse-curve $-1 -1 $-1 -4.7446999999999999 0 5.8696999999999999 -0.70710678118654757 0 0.70710678118654757 0.70710678118654746 0 0.70710678118654746 1 I I #
face $-1 -1 $-1 $190 $191 $31 $-1 $192 reversed single #
loop $-1 -1 $-1 $-1 $193 $86 #
plane-surface $-1 -1 $-1 0 -1.9950000000000001 0 0 1 0 0 0 1 forward_v I I I I #
coedge $-1 -1 $-1 $194 $195 $196 $197 forward $87 $-1 #
coedge $-1 -1 $-1 $198 $89 $199 $200 forward $59 $-1 #
coedge $-1 -1 $-1 $89 $198 $201 $202 forward $59 $-1 #
coedge $-1 -1 $-1 $203 $204 $89 $132 reversed $205 $-1 #
edge $-1 -1 $-1 $206 -1.9950000000000001 $207 1.9950000000000001 $131 $208 forward @7 unknown #
loop $-1 -1 $-1 $-1 $209 $90 #
plane-surface $-1 -1 $-1 0 0 0.27099999999999991 0 0 1 1 0 0 forward_v I I I I #
coedge $-1 -1 $-1 $135 $135 $94 $137 forward $91 $-1 #
coedge $-1 -1 $-1 $136 $136 $209 $210 reversed $93 $-1 #
edge $-1 -1 $-1 $211 0 $211 6.2831853071795862 $135 $212 forward @7 unknown #
face $-1 -1 $-1 $213 $214 $35 $-1 $140 forward single #
loop $-1 -1 $-1 $-1 $144 $95 #
cone-surface $-1 -1 $-1 -0.34966430329674836 0 0.34966430329674836 -0.70710678118654757 0 0.70710678118654757 -1.4106780284671625 2.4430896758756431e-016 -1.4106780284671625 1 I I 0 1 1.9950000000000001 forward I I I I #
coedge $-1 -1 $-1 $215 $216 $142 $217 reversed $96 $-1 #
coedge $-1 -1 $-1 $218 $98 $141 $217 forward $65 $-1 #
coedge $-1 -1 $-1 $98 $218 $219 $220 forward $65 $-1 #
coedge $-1 -1 $-1 $221 $222 $98 $145 reversed $139 $-1 #
edge $223 -1 $-1 $224 0.66654108210403917 $225 2.4750515714857539 $144 $226 forward @7 unknown #
face $-1 -1 $-1 $227 $228 $37 $-1 $229 reversed single #
loop $-1 -1 $-1 $-1 $230 $99 #
plane-surface $-1 -1 $-1 0 -1.9950000000000001 0 0 1 0 0 0 1 forward_v I I I I #
coedge $-1 -1 $-1 $231 $232 $233 $234 reversed $100 $-1 #
coedge $-1 -1 $-1 $235 $101 $232 $236 forward $68 $-1 #
coedge $-1 -1 $-1 $101 $235 $237 $238 reversed $68 $-1 #
coedge $-1 -1 $-1 $239 $240 $101 $153 forward $241 $-1 #
edge $-1 -1 $-1 $242 1.5707963267948968 $243 4.7123889803846897 $152 $244 forward @7 unknown #
face $-1 -1 $-1 $245 $246 $39 $-1 $247 reversed single #
loop $-1 -1 $-1 $-1 $158 $102 #
coedge $-1 -1 $-1 $248 $249 $157 $250 reversed $103 $-1 #
coedge $-1 -1 $-1 $105 $105 $156 $250 forward $71 $-1 #
coedge $-1 -1 $-1 $251 $252 $105 $159 reversed $155 $-1 #
edge $253 -1 $-1 $254 -3.1415926535897931 $255 6.1230317691118888e-017 $158 $256 forward @7 unknown #
face $-1 -1 $-1 $257 $258 $41 $-1 $162 forward single #
loop $-1 -1 $-1 $-1 $259 $106 #
cone-surface $-1 -1 $-1 -0.047729707730090887 0 0.047729707730090887 -0.70710678118654757 0 0.70710678118654757 -1.4106780284671625 2.4430896758756431e-016 -1.4106780284671625 1 I I 0 1 1.9950000000000003 forward I I I I #
coedge $-1 -1 $-1 $260 $261 $262 $263 forward $107 $-1 #
coedge $-1 -1 $-1 $165 $109 $264 $265 forward $74 $-1 #
coedge $-1 -1 $-1 $109 $164 $259 $266 forward $74 $-1 #
coedge $-1 -1 $-1 $267 $268 $109 $167 reversed $269 $-1 #
edge $-1 -1 $-1 $270 -1.2334508502571175 $271 1.2334508502571175 $166 $272 forward @7 unknown #
model_id-kcp-attrib $-1 -1 $-1 $-1 $111 1 1021323429 1021323429 1271791617 6 #
face $273 -1 $-1 $274 $275 $11 $-1 $276 forward single #
loop $-1 -1 $-1 $121 $178 $111 #
cone-surface $-1 -1 $-1 -4.3274362884218185 0 5.4524362884218185 -0.70710678118654757 0 0.70710678118654757 -0.70710678118654746 0 -0.70710678118654746 1 I I 0 1 1 forward I I I I #
model_id-kcp-attrib $-1 -1 $-1 $-1 $112 1 1021323429 1021323429 1271791617 15 #
loop $-1 -1 $-1 $-1 $277 $77 #
coedge $-1 -1 $-1 $174 $174 $278 $279 forward $112 $-1 #
coedge $-1 -1 $-1 $175 $175 $280 $281 forward $114 $-1 #
coedge $-1 -1 $-1 $176 $176 $115 $177 reversed $282 $-1 #
edge $283 -1 $-1 $284 0 $284 6.2831853071795862 $176 $285 forward @7 unknown #
coedge $-1 -1 $-1 $178 $178 $116 $179 reversed $170 $-1 #
edge $286 -1 $-1 $287 -3.1415926535897931 $287 3.1415926535897931 $116 $288 forward @7 unknown #
loop $-1 -1 $-1 $-1 $117 $169 #
attrib_edge_convexity-kcp-attrib $-1 -1 $289 $-1 $118 1 #
vertex $-1 -1 $-1 $118 $290 #
ellipse-curve $-1 -1 $-1 -4.4427654044333442 0 5.5677654044333442 -0.70710678118654757 0 0.70710678118654757 1.4106780284671623 0 1.4106780284671623 1 I I #
loop $291 -1 $-1 $292 $119 $293 #
attrib_edge_convexity-kcp-attrib $-1 -1 $294 $-1 $120 1 #
vertex $295 -1 $-1 $120 $296 #
ellipse-curve $-1 -1 $-1 -4.7446999999999999 0 5.8696999999999999 -0.70710678118654757 0 0.70710678118654757 0.66291260736238822 0 0.66291260736238822 1 I I #
convexity-sys-attrib $-1 -1 $-1 $122 $85 #
point $-1 -1 $-1 -4.037593218813452 0 6.5768067811865478 #
face $-1 -1 $-1 $297 $298 $31 $-1 $299 reversed single #
loop $-1 -1 $-1 $-1 $300 $125 #
plane-surface $-1 -1 $-1 -1.4584077361972547 0 0 1 0 0 0 0 -1 forward_v I I I I #
coedge $-1 -1 $-1 $301 $201 $302 $303 forward $126 $-1 #
coedge $-1 -1 $-1 $304 $128 $301 $305 forward $87 $-1 #
coedge $-1 -1 $-1 $128 $304 $306 $307 forward $87 $-1 #
coedge $-1 -1 $-1 $204 $203 $128 $197 reversed $205 $-1 #
edge $-1 -1 $-1 $308 -1.9950000000000001 $309 1.9950000000000001 $196 $310 forward @7 unknown #
coedge $-1 -1 $-1 $130 $129 $311 $312 forward $59 $-1 #
coedge $-1 -1 $-1 $313 $314 $129 $200 reversed $298 $-1 #
edge $-1 -1 $-1 $207 -1.4584077361972547 $315 1.4584077361972547 $199 $316 forward @7 unknown #
coedge $-1 -1 $-1 $193 $317 $130 $202 reversed $126 $-1 #
edge $-1 -1 $-1 $318 -1.4584077361972547 $206 1.4584077361972547 $201 $319 forward @7 unknown #
coedge $-1 -1 $-1 $196 $131 $317 $320 forward $205 $-1 #
coedge $-1 -1 $-1 $131 $196 $313 $321 reversed $205 $-1 #
loop $-1 -1 $-1 $-1 $203 $297 #
vertex $-1 -1 $-1 $132 $322 #
vertex $-1 -1 $-1 $132 $323 #
straight-curve $-1 -1 $-1 1.4584077361972547 0 1.4584077361972545 0 1 0 I I #
coedge $-1 -1 $-1 $209 $209 $136 $210 forward $133 $-1 #
edge $-1 -1 $-1 $324 0 $324 6.2831853071795862 $209 $325 forward @7 unknown #
vertex $-1 -1 $-1 $137 $326 #
ellipse-curve $-1 -1 $-1 0 0 -0.27099999999999991 0 0 -1 0.93749999999999989 0 0 1 I I #
face $-1 -1 $-1 $-1 $327 $35 $-1 $328 reversed single #
loop $-1 -1 $-1 $-1 $329 $138 #
coedge $-1 -1 $-1 $330 $141 $222 $331 forward $96 $-1 #
coedge $-1 -1 $-1 $141 $330 $332 $333 forward $96 $-1 #
edge $334 -1 $-1 $225 -1.2334508502571178 $335 1.2334508502571178 $141 $336 forward @7 unknown #
coedge $-1 -1 $-1 $143 $142 $329 $337 forward $65 $-1 #
coedge $-1 -1 $-1 $338 $339 $143 $220 reversed $327 $-1 #
edge $340 -1 $-1 $341 -1.2334508502571175 $224 1.2334508502571175 $219 $342 forward @7 unknown #
coedge $-1 -1 $-1 $222 $144 $339 $343 reversed $139 $-1 #
coedge $-1 -1 $-1 $144 $221 $215 $331 reversed $139 $-1 #
convexity-sys-attrib $-1 -1 $-1 $-1 $145 #
vertex $-1 -1 $-1 $145 $344 #
vertex $-1 -1 $-1 $331 $345 #
ellipse-curve $-1 -1 $-1 -0.34966430329674925 0 0.34966430329674925 0.70710678118654757 0 -0.70710678118654757 -1.4106780284671625 2.4430896758756431e-016 -1.4106780284671625 1 I I #
face $-1 -1 $-1 $346 $347 $37 $-1 $348 reversed single #
loop $-1 -1 $-1 $-1 $349 $146 #
plane-surface $-1 -1 $-1 -1.4584077361972547 0 0 1 0 0 0 0 -1 forward_v I I I I #
coedge $-1 -1 $-1 $350 $351 $150 $236 reversed $147 $-1 #
coedge $-1 -1 $-1 $352 $149 $151 $238 forward $100 $-1 #
coedge $-1 -1 $-1 $149 $352 $353 $236 reversed $100 $-1 #
coedge $-1 -1 $-1 $354 $355 $149 $234 forward $356 $-1 #
edge $-1 -1 $-1 $243 -1.5707963267948968 $242 1.5707963267948968 $233 $357 forward @7 unknown #
coedge $-1 -1 $-1 $151 $150 $358 $359 reversed $68 $-1 #
edge $-1 -1 $-1 $242 -2.5570000000000013 $360 1.5679999999999996 $353 $361 forward @7 unknown #
coedge $-1 -1 $-1 $362 $363 $364 $238 forward $365 $-1 #
edge $-1 -1 $-1 $243 -2.5570000000000013 $366 1.5679999999999996 $237 $367 forward @7 unknown #
coedge $-1 -1 $-1 $368 $152 $363 $369 reversed $241 $-1 #
coedge $-1 -1 $-1 $152 $368 $350 $370 forward $241 $-1 #
loop $-1 -1 $-1 $-1 $152 $346 #
vertex $-1 -1 $-1 $370 $371 #
vertex $-1 -1 $-1 $234 $372 #
ellipse-curve $-1 -1 $-1 1.4584077361972547 0 -1.4584077361972547 -1 0 0 0 2.4430896758756431e-016 -2.821356056934325 0.70710678118654757 I I #
face $-1 -1 $-1 $-1 $373 $39 $-1 $374 reversed single #
loop $-1 -1 $-1 $-1 $375 $154 #
plane-surface $-1 -1 $-1 1.4584077361972547 0 0 -1 0 0 0 0 1 forward_v I I I I #
coedge $-1 -1 $-1 $249 $156 $376 $377 reversed $103 $-1 #
coedge $-1 -1 $-1 $156 $248 $378 $379 reversed $103 $-1 #
edge $380 -1 $-1 $255 6.1230317691118888e-017 $254 3.1415926535897931 $156 $256 forward @7 unknown #
coedge $-1 -1 $-1 $252 $158 $375 $381 reversed $155 $-1 #
coedge $-1 -1 $-1 $158 $251 $382 $383 reversed $155 $-1 #
convexity-sys-attrib $-1 -1 $-1 $-1 $159 #
vertex $-1 -1 $-1 $379 $384 #
vertex $-1 -1 $-1 $383 $385 #
ellipse-curve $-1 -1 $-1 0.04772970773009183 0 -0.04772970773009183 -0.70710678118654757 0 0.70710678118654757 -1.4106780284671625 2.4430896758756431e-016 -1.4106780284671625 1 I I #
face $-1 -1 $-1 $386 $387 $41 $-1 $388 forward single #
loop $-1 -1 $-1 $-1 $389 $160 #
coedge $-1 -1 $-1 $390 $391 $165 $266 reversed $161 $-1 #
coedge $-1 -1 $-1 $261 $163 $392 $393 forward $107 $-1 #
coedge $-1 -1 $-1 $163 $260 $389 $394 forward $107 $-1 #
coedge $-1 -1 $-1 $268 $267 $163 $263 reversed $269 $-1 #
edge $-1 -1 $-1 $395 -1.2334508502571178 $396 1.2334508502571178 $262 $397 forward @7 unknown #
coedge $-1 -1 $-1 $398 $399 $164 $265 reversed $258 $-1 #
edge $-1 -1 $-1 $271 -0.66654108210403906 $400 6.1230317691118863e-017 $264 $401 forward @7 unknown #
edge $-1 -1 $-1 $400 6.1230317691118863e-017 $270 0.66654108210403928 $259 $401 forward @7 unknown #
coedge $-1 -1 $-1 $262 $166 $391 $402 reversed $269 $-1 #
coedge $-1 -1 $-1 $166 $262 $398 $403 reversed $269 $-1 #
loop $-1 -1 $-1 $404 $262 $386 #
vertex $-1 -1 $-1 $167 $405 #
vertex $-1 -1 $-1 $403 $406 #
straight-curve $-1 -1 $-1 -1.4584077361972547 -2.5182346697156239e-017 -0.759079129603762 0 1 -1.2390812826101957e-018 I I #
model_id-kcp-attrib $-1 -1 $-1 $-1 $169 1 1021323429 1021323429 1271791617 7 #
face $407 -1 $-1 $408 $409 $11 $-1 $410 reversed single #
loop $-1 -1 $-1 $180 $411 $169 #
cone-surface $-1 -1 $-1 -4.3274362884218185 0 5.4524362884218185 -0.70710678118654757 0 0.70710678118654757 -1.4106780284671623 0 -1.4106780284671623 1 I I 0 1 1.9950000000000001 forward I I I I #
coedge $-1 -1 $-1 $277 $277 $412 $413 forward $173 $-1 #
coedge $-1 -1 $-1 $278 $278 $174 $279 reversed $292 $-1 #
edge $414 -1 $-1 $415 0 $415 6.2831853071795862 $278 $416 forward @7 unknown #
coedge $-1 -1 $-1 $280 $280 $175 $281 reversed $417 $-1 #
edge $418 -1 $-1 $419 -3.1415926535897931 $419 3.1415926535897931 $175 $420 forward @7 unknown #
loop $-1 -1 $-1 $-1 $176 $421 #
attrib_edge_convexity-kcp-attrib $-1 -1 $422 $-1 $177 1 #
vertex $-1 -1 $-1 $177 $423 #
ellipse-curve $-1 -1 $-1 -4.3473059889731598 0 5.4723059889731598 -0.70710678118654757 0 0.70710678118654757 1.3625947673464769 0 1.3625947673464769 1 I I #
attrib_edge_convexity-kcp-attrib $-1 -1 $424 $-1 $179 2 #
vertex $-1 -1 $-1 $179 $425 #
ellipse-curve $-1 -1 $-1 -4.4427654044333442 0 5.5677654044333442 0.70710678118654757 0 -0.70710678118654757 0.70710678118654746 0 0.70710678118654746 1 I I #
convexity-sys-attrib $-1 -1 $-1 $181 $118 #
point $-1 -1 $-1 -3.0320873759661819 0 6.9784434329005069 #
model_id-kcp-attrib $-1 -1 $-1 $-1 $184 1 1021323429 1021323429 1271791617 12 #
loop $426 -1 $-1 $-1 $278 $293 #
face $427 -1 $-1 $-1 $184 $11 $-1 $428 reversed single #
convexity-sys-attrib $-1 -1 $-1 $185 $120 #
model_id-kcp-attrib $-1 -1 $-1 $-1 $186 1 1021323429 1021323429 1271791617 16 #
point $-1 -1 $-1 -4.0817873926376116 0 6.5326126073623882 #
face $-1 -1 $-1 $-1 $205 $31 $-1 $429 reversed single #
loop $-1 -1 $-1 $-1 $313 $190 #
plane-surface $-1 -1 $-1 0 1.9950000000000001 0 0 -1 0 0 0 -1 forward_v I I I I #
coedge $-1 -1 $-1 $430 $311 $314 $431 forward $191 $-1 #
coedge $-1 -1 $-1 $317 $193 $194 $305 reversed $126 $-1 #
coedge $-1 -1 $-1 $311 $430 $193 $303 reversed $191 $-1 #
edge $-1 -1 $-1 $318 -1.4584077361972545 $432 1.4584077361972545 $302 $433 forward @7 unknown #
coedge $-1 -1 $-1 $195 $194 $430 $434 forward $87 $-1 #
edge $-1 -1 $-1 $309 -1.4584077361972547 $432 1.4584077361972547 $301 $435 forward @7 unknown #
coedge $-1 -1 $-1 $314 $313 $195 $307 reversed $298 $-1 #
edge $-1 -1 $-1 $436 -1.4584077361972547 $308 1.4584077361972547 $306 $437 forward @7 unknown #
vertex $-1 -1 $-1 $197 $438 #
vertex $-1 -1 $-1 $320 $439 #
straight-curve $-1 -1 $-1 1.4584077361972547 0 -1.4584077361972545 0 -1 0 I I #
coedge $-1 -1 $-1 $300 $302 $198 $312 reversed $191 $-1 #
edge $-1 -1 $-1 $315 -1.9950000000000001 $318 1.9950000000000001 $311 $440 forward @7 unknown #
coedge $-1 -1 $-1 $306 $199 $204 $321 forward $298 $-1 #
coedge $-1 -1 $-1 $199 $306 $300 $431 reversed $298 $-1 #
vertex $-1 -1 $-1 $200 $441 #
straight-curve $-1 -1 $-1 0 1.9950000000000001 1.4584077361972545 -1 0 0 I I #
coedge $-1 -1 $-1 $201 $301 $203 $320 reversed $126 $-1 #
vertex $-1 -1 $-1 $312 $442 #
straight-curve $-1 -1 $-1 0 -1.9950000000000001 1.4584077361972545 1 0 0 I I #
edge $-1 -1 $-1 $206 -1.4584077361972545 $309 1.4584077361972545 $203 $443 forward @7 unknown #
edge $-1 -1 $-1 $207 -1.4584077361972545 $308 1.4584077361972545 $204 $444 forward @7 unknown #
point $-1 -1 $-1 1.4584077361972547 -1.9950000000000001 1.4584077361972545 #
point $-1 -1 $-1 1.4584077361972547 1.9950000000000001 1.4584077361972545 #
vertex $-1 -1 $-1 $210 $445 #
ellipse-curve $-1 -1 $-1 0 0 0.27099999999999991 0 0 1 0.93749999999999989 0 0 1 I I #
point $-1 -1 $-1 0.93749999999999989 0 -0.27099999999999991 #
loop $-1 -1 $-1 $-1 $219 $213 #
plane-surface $-1 -1 $-1 -1.4584077361972547 0 0 1 0 0 0 0 -1 forward_v I I I I #
coedge $-1 -1 $-1 $332 $446 $218 $337 reversed $214 $-1 #
coedge $-1 -1 $-1 $216 $215 $447 $448 forward $96 $-1 #
edge $-1 -1 $-1 $225 -2.4750515714857539 $449 -1.5707963267948966 $215 $450 forward @7 unknown #
coedge $-1 -1 $-1 $446 $329 $216 $333 reversed $214 $-1 #
edge $-1 -1 $-1 $451 1.5707963267948966 $335 2.4750515714857539 $216 $450 forward @7 unknown #
convexity-sys-attrib $-1 -1 $-1 $-1 $217 #
vertex $-1 -1 $-1 $217 $452 #
straight-curve $-1 -1 $-1 0.75907912960375601 0 1.4584077361972545 0 -1 0 I I #
edge $453 -1 $-1 $335 -2.4750515714857539 $341 -0.66654108210403917 $329 $226 forward @7 unknown #
coedge $-1 -1 $-1 $447 $219 $446 $454 forward $327 $-1 #
coedge $-1 -1 $-1 $219 $447 $221 $343 forward $327 $-1 #
convexity-sys-attrib $-1 -1 $-1 $-1 $220 #
vertex $-1 -1 $-1 $454 $455 #
straight-curve $-1 -1 $-1 -1.4584077361972547 0 -0.75907912960375634 0 1 0 I I #
edge $-1 -1 $-1 $449 -1.5707963267948966 $224 -0.66654108210403906 $339 $456 forward @7 unknown #
point $-1 -1 $-1 -1.4584077361972547 1.2334508502571175 -0.75907912960375623 #
point $-1 -1 $-1 0.75907912960375601 1.2334508502571178 1.4584077361972545 #
face $-1 -1 $-1 $457 $241 $37 $-1 $458 reversed single #
loop $-1 -1 $-1 $-1 $364 $227 #
plane-surface $-1 -1 $-1 0 1.9950000000000001 0 0 -1 0 0 0 -1 forward_v I I I I #
coedge $-1 -1 $-1 $459 $460 $352 $461 forward $228 $-1 #
coedge $-1 -1 $-1 $351 $230 $240 $370 reversed $147 $-1 #
coedge $-1 -1 $-1 $230 $350 $462 $463 reversed $147 $-1 #
coedge $-1 -1 $-1 $232 $231 $349 $461 reversed $100 $-1 #
coedge $-1 -1 $-1 $464 $465 $230 $236 forward $466 $-1 #
coedge $-1 -1 $-1 $467 $233 $465 $468 forward $356 $-1 #
coedge $-1 -1 $-1 $233 $467 $469 $470 forward $356 $-1 #
loop $-1 -1 $-1 $-1 $233 $471 #
ellipse-curve $-1 -1 $-1 1.4584077361972543 0 -1.4584077361972543 0 0 1 -2.821356056934325 2.4430896758756431e-016 0 0.70710678118654757 I I #
coedge $-1 -1 $-1 $462 $472 $235 $359 forward $473 $-1 #
edge $-1 -1 $-1 $366 1.5707963267948966 $360 4.7123889803846897 $358 $474 forward @7 unknown #
vertex $-1 -1 $-1 $236 $475 #
straight-curve $-1 -1 $-1 -0.34966430329674836 -1.9950000000000001 0.34966430329674836 -0.70710678118654757 0 0.70710678118654757 I I #
coedge $-1 -1 $-1 $363 $237 $472 $476 reversed $365 $-1 #
coedge $-1 -1 $-1 $237 $362 $239 $369 forward $365 $-1 #
coedge $-1 -1 $-1 $469 $477 $231 $238 reversed $347 $-1 #
loop $-1 -1 $-1 $-1 $237 $478 #
vertex $-1 -1 $-1 $476 $479 #
straight-curve $-1 -1 $-1 -0.34966430329674836 1.9950000000000001 0.34966430329674836 -0.70710678118654757 0 0.70710678118654757 I I #
coedge $-1 -1 $-1 $240 $239 $480 $481 reversed $241 $-1 #
edge $-1 -1 $-1 $482 -1.4584077361972545 $243 1.4584077361972545 $239 $483 forward @7 unknown #
edge $-1 -1 $-1 $484 -1.4584077361972545 $242 1.4584077361972545 $240 $485 forward @7 unknown #
point $-1 -1 $-1 1.4584077361972547 -1.9950000000000001 -1.4584077361972545 #
point $-1 -1 $-1 1.4584077361972547 1.9950000000000001 -1.4584077361972545 #
loop $-1 -1 $-1 $-1 $376 $245 #
plane-surface $-1 -1 $-1 0 0 -1.4584077361972545 0 0 1 1 0 0 forward_v I I I I #
coedge $-1 -1 $-1 $378 $486 $251 $381 forward $246 $-1 #
coedge $-1 -1 $-1 $382 $487 $248 $377 forward $373 $-1 #
edge $-1 -1 $-1 $488 -1.5707963267948968 $255 -6.1230317691118863e-017 $376 $489 forward @7 unknown #
coedge $-1 -1 $-1 $486 $375 $249 $379 forward $246 $-1 #
edge $-1 -1 $-1 $254 -3.1415926535897931 $488 -1.5707963267948968 $378 $490 forward @7 unknown #
convexity-sys-attrib $-1 -1 $-1 $-1 $250 #
edge $-1 -1 $-1 $491 1.5707963267948966 $254 3.1415926535897931 $375 $490 forward @7 unknown #
coedge $-1 -1 $-1 $487 $376 $252 $383 forward $373 $-1 #
edge $-1 -1 $-1 $255 -6.1230317691118863e-017 $491 1.5707963267948968 $382 $489 forward @7 unknown #
point $-1 -1 $-1 1.4584077361972547 -1.2215448379378215e-016 1.3629483207370707 #
point $-1 -1 $-1 -1.3629483207370703 1.2215448379378213e-016 -1.4584077361972543 #
face $-1 -1 $-1 $492 $269 $41 $-1 $493 reversed single #
loop $-1 -1 $-1 $494 $495 $257 #
cone-surface $-1 -1 $-1 -0.047729707730090901 0 0.047729707730090901 -0.70710678118654757 0 0.70710678118654757 0 -1 0 1 I I 0 -1 1 forward I I I I #
coedge $-1 -1 $-1 $399 $398 $261 $394 reversed $258 $-1 #
coedge $-1 -1 $-1 $392 $259 $496 $497 reversed $161 $-1 #
coedge $-1 -1 $-1 $259 $392 $267 $402 forward $161 $-1 #
coedge $-1 -1 $-1 $391 $390 $260 $393 reversed $161 $-1 #
edge $-1 -1 $-1 $396 2.4750515714857539 $498 3.1415926535897931 $392 $499 forward @7 unknown #
edge $-1 -1 $-1 $498 -3.1415926535897931 $395 -2.4750515714857539 $389 $499 forward @7 unknown #
vertex $-1 -1 $-1 $263 $500 #
vertex $-1 -1 $-1 $402 $501 #
straight-curve $-1 -1 $-1 0.75907912960376112 -2.5208941408868938e-017 1.4584077361972545 -1.2390812826101955e-018 -1 0 I I #
coedge $-1 -1 $-1 $389 $264 $268 $403 forward $258 $-1 #
coedge $-1 -1 $-1 $264 $389 $502 $503 reversed $258 $-1 #
vertex $-1 -1 $-1 $497 $504 #
ellipse-curve $-1 -1 $-1 -1.4584077361972547 0 1.4584077361972547 -1 0 0 0 2.4430896758756431e-016 -2.821356056934325 0.70710678118654757 I I #
edge $-1 -1 $-1 $396 -2.4750515714857539 $270 -0.66654108210403917 $391 $505 forward @7 unknown #
edge $-1 -1 $-1 $271 0.66654108210403917 $395 2.4750515714857539 $398 $505 forward @7 unknown #
loop $-1 -1 $-1 $-1 $506 $386 #
point $-1 -1 $-1 -1.4584077361972547 -1.2334508502571175 -0.75907912960375623 #
point $-1 -1 $-1 -1.4584077361972547 1.2334508502571175 -0.75907912960375623 #
model_id-kcp-attrib $-1 -1 $-1 $-1 $274 1 1021323429 1021323429 1271791617 8 #
face $507 -1 $-1 $421 $417 $11 $-1 $508 forward single #
loop $-1 -1 $-1 $509 $510 $274 #
torus-surface $-1 -1 $-1 -4.3720547263146896 0 5.4970547263146896 -0.70710678118654757 0 0.70710678118654757 1.9950000000000001 0.025000000000000001 0.70710678118654757 0 0.70710678118654757 forward_v I I I I #
coedge $-1 -1 $-1 $411 $411 $511 $512 forward $275 $-1 #
coedge $-1 -1 $-1 $412 $412 $277 $413 reversed $513 $-1 #
edge $514 -1 $-1 $515 -3.1415926535897931 $515 3.1415926535897931 $277 $516 forward @7 unknown #
attrib_edge_convexity-kcp-attrib $-1 -1 $517 $-1 $279 1 #
vertex $518 -1 $-1 $279 $519 #
ellipse-curve $-1 -1 $-1 -4.3614481245968912 0 5.4864481245968912 -0.70710678118654757 0 0.70710678118654757 0.66291260736238822 0 0.66291260736238822 1 I I #
loop $-1 -1 $-1 $520 $280 $408 #
attrib_edge_convexity-kcp-attrib $-1 -1 $521 $-1 $281 1 #
vertex $-1 -1 $-1 $281 $522 #
ellipse-curve $-1 -1 $-1 -4.3473059889731598 0 5.4723059889731598 0.70710678118654757 0 -0.70710678118654757 1.4106780284671623 0 1.4106780284671623 1 I I #
face $523 -1 $-1 $293 $513 $11 $-1 $524 reversed single #
convexity-sys-attrib $-1 -1 $-1 $283 $177 #
point $-1 -1 $-1 -2.9847112216266827 0 6.8349007563196365 #
convexity-sys-attrib $-1 -1 $-1 $286 $179 #
point $-1 -1 $-1 -5.1498721856198912 0 4.8606586232467972 #
model_id-kcp-attrib $-1 -1 $-1 $-1 $292 1 1021323429 1021323429 1271791617 13 #
model_id-kcp-attrib $-1 -1 $-1 $-1 $293 1 1021323429 1021323429 1271791617 11 #
cone-surface $-1 -1 $-1 -4.3274362884218185 0 5.4524362884218185 -0.70710678118654757 0 0.70710678118654757 -0.66291260736238822 0 -0.66291260736238822 1 I I 0 1 0.9375 forward I I I I #
plane-surface $-1 -1 $-1 1.4584077361972547 0 0 -1 0 0 0 0 1 forward_v I I I I #
coedge $-1 -1 $-1 $302 $300 $304 $434 reversed $191 $-1 #
edge $-1 -1 $-1 $315 -1.4584077361972545 $436 1.4584077361972545 $314 $525 forward @7 unknown #
vertex $-1 -1 $-1 $434 $526 #
straight-curve $-1 -1 $-1 -1.4584077361972547 -1.9950000000000001 0 0 0 -1 I I #
edge $-1 -1 $-1 $432 -1.9950000000000001 $436 1.9950000000000001 $430 $527 forward @7 unknown #
straight-curve $-1 -1 $-1 0 -1.9950000000000001 -1.4584077361972545 -1 0 0 I I #
vertex $-1 -1 $-1 $307 $528 #
straight-curve $-1 -1 $-1 0 1.9950000000000001 -1.4584077361972545 1 0 0 I I #
point $-1 -1 $-1 1.4584077361972547 1.9950000000000001 -1.4584077361972545 #
point $-1 -1 $-1 1.4584077361972547 -1.9950000000000001 -1.4584077361972545 #
straight-curve $-1 -1 $-1 -1.4584077361972547 0 1.4584077361972545 0 -1 0 I I #
point $-1 -1 $-1 -1.4584077361972547 1.9950000000000001 1.4584077361972545 #
point $-1 -1 $-1 -1.4584077361972547 -1.9950000000000001 1.4584077361972545 #
straight-curve $-1 -1 $-1 1.4584077361972547 -1.9950000000000001 0 0 0 -1 I I #
straight-curve $-1 -1 $-1 1.4584077361972547 1.9950000000000001 0 0 0 -1 I I #
point $-1 -1 $-1 0.93749999999999989 0 0.27099999999999991 #
coedge $-1 -1 $-1 $329 $332 $338 $454 reversed $214 $-1 #
coedge $-1 -1 $-1 $339 $338 $330 $448 reversed $327 $-1 #
edge $-1 -1 $-1 $449 -1.9950000000000001 $451 1.9950000000000001 $447 $529 forward @7 unknown #
vertex $-1 -1 $-1 $343 $530 #
ellipse-curve $-1 -1 $-1 -1.4584077361972545 0 1.4584077361972545 0 0 1 -2.821356056934325 2.4430896758756431e-016 0 0.70710678118654757 I I #
vertex $-1 -1 $-1 $448 $531 #
point $-1 -1 $-1 0.75907912960375601 -1.2334508502571178 1.4584077361972545 #
convexity-sys-attrib $-1 -1 $-1 $-1 $337 #
edge $-1 -1 $-1 $341 0.66654108210403928 $451 1.5707963267948966 $338 $456 forward @7 unknown #
point $-1 -1 $-1 -1.4584077361972547 -1.2334508502571175 -0.75907912960375623 #
ellipse-curve $-1 -1 $-1 -1.4584077361972547 0 1.4584077361972547 -1 0 0 0 2.4430896758756431e-016 -2.821356056934325 0.70710678118654757 I I #
face $-1 -1 $-1 $471 $473 $37 $-1 $532 forward single #
plane-surface $-1 -1 $-1 1.4584077361972547 0 0 -1 0 0 0 0 1 forward_v I I I I #
coedge $-1 -1 $-1 $533 $349 $477 $534 forward $228 $-1 #
coedge $-1 -1 $-1 $349 $533 $464 $535 reversed $228 $-1 #
edge $-1 -1 $-1 $360 -1.5707963267948966 $366 1.5707963267948966 $349 $536 forward @7 unknown #
coedge $-1 -1 $-1 $480 $358 $351 $463 forward $473 $-1 #
edge $-1 -1 $-1 $360 -1.4584077361972547 $484 1.4584077361972547 $351 $537 forward @7 unknown #
coedge $-1 -1 $-1 $465 $353 $460 $535 forward $466 $-1 #
coedge $-1 -1 $-1 $353 $464 $354 $468 reversed $466 $-1 #
loop $-1 -1 $-1 $-1 $353 $538 #
coedge $-1 -1 $-1 $355 $354 $533 $539 forward $356 $-1 #
edge $-1 -1 $-1 $242 -1.4584077361972547 $540 1.4584077361972547 $465 $541 forward @7 unknown #
coedge $-1 -1 $-1 $477 $364 $355 $470 reversed $347 $-1 #
edge $-1 -1 $-1 $542 -1.4584077361972547 $243 1.4584077361972547 $469 $543 forward @7 unknown #
face $-1 -1 $-1 $538 $356 $37 $-1 $544 reversed single #
coedge $-1 -1 $-1 $358 $480 $362 $476 forward $473 $-1 #
loop $-1 -1 $-1 $-1 $358 $457 #
ellipse-curve $-1 -1 $-1 -1.4584077361972545 0 1.4584077361972545 0 0 -1 -2.821356056934325 2.4430896758756431e-016 0 0.70710678118654757 I I #
point $-1 -1 $-1 -1.4584077361972547 -1.9950000000000001 1.4584077361972545 #
edge $-1 -1 $-1 $482 -1.4584077361972547 $366 1.4584077361972547 $362 $545 forward @7 unknown #
coedge $-1 -1 $-1 $364 $469 $459 $534 reversed $347 $-1 #
face $-1 -1 $-1 $-1 $365 $37 $-1 $348 reversed single #
point $-1 -1 $-1 -1.4584077361972547 1.9950000000000001 1.4584077361972545 #
coedge $-1 -1 $-1 $472 $462 $368 $481 forward $473 $-1 #
edge $-1 -1 $-1 $484 -1.9950000000000001 $482 1.9950000000000001 $368 $546 forward @7 unknown #
vertex $-1 -1 $-1 $481 $547 #
straight-curve $-1 -1 $-1 1.4584077361972547 1.9950000000000001 0 0 0 -1 I I #
vertex $-1 -1 $-1 $481 $548 #
straight-curve $-1 -1 $-1 1.4584077361972547 -1.9950000000000001 0 0 0 -1 I I #
coedge $-1 -1 $-1 $375 $378 $487 $549 reversed $246 $-1 #
coedge $-1 -1 $-1 $376 $382 $486 $549 forward $373 $-1 #
vertex $-1 -1 $-1 $379 $550 #
ellipse-curve $-1 -1 $-1 1.4584077361972543 0 -1.4584077361972543 0 0 -1 -2.821356056934325 2.4430896758756431e-016 0 0.70710678118654757 I I #
ellipse-curve $-1 -1 $-1 1.4584077361972547 0 -1.4584077361972547 1 0 0 0 2.4430896758756431e-016 -2.821356056934325 0.70710678118654757 I I #
vertex $-1 -1 $-1 $549 $551 #
face $-1 -1 $-1 $-1 $552 $41 $-1 $553 forward single #
plane-surface $-1 -1 $-1 -0.37112755359835681 -4.8076904129589125e-017 0.32820105299513636 0.70710678118654757 -8.7616277737499421e-019 -0.70710678118654746 -0.70710678118654746 0 -0.70710678118654757 forward_v I I I I #
loop $-1 -1 $-1 $-1 $554 $257 #
coedge $-1 -1 $-1 $495 $495 $506 $555 forward $387 $-1 #
coedge $-1 -1 $-1 $502 $502 $390 $497 forward $552 $-1 #
edge $556 -1 $-1 $498 -3.1415926535897931 $400 -6.1230317691118875e-017 $390 $557 forward @7 unknown #
vertex $-1 -1 $-1 $497 $558 #
ellipse-curve $-1 -1 $-1 -1.4584077361972545 0 1.4584077361972545 0 0 1 -2.821356056934325 2.4430896758756431e-016 0 0.70710678118654757 I I #
point $-1 -1 $-1 0.75907912960375601 1.2334508502571178 1.4584077361972545 #
point $-1 -1 $-1 0.75907912960375601 -1.2334508502571178 1.4584077361972545 #
coedge $-1 -1 $-1 $496 $496 $399 $503 forward $552 $-1 #
edge $559 -1 $-1 $400 -6.1230317691118875e-017 $498 3.1415926535897931 $399 $557 forward @7 unknown #
point $-1 -1 $-1 -1.4584077361972547 1.2215448379378223e-016 -1.3629483207370725 #
ellipse-curve $-1 -1 $-1 -0.34966430329674658 0 0.34966430329674658 0.70710678118654757 0 -0.70710678118654757 -1.4106780284671625 2.4430896758756431e-016 -1.4106780284671625 1 I I #
coedge $-1 -1 $-1 $506 $506 $495 $555 reversed $404 $-1 #
model_id-kcp-attrib $-1 -1 $-1 $-1 $408 1 1021323429 1021323429 1271791617 9 #
cone-surface $-1 -1 $-1 -4.3274362884218185 0 5.4524362884218185 -0.70710678118654757 0 0.70710678118654757 -1.4106780284671623 0 -1.4106780284671623 1 I I 0 1 1.9950000000000001 forward I I I I #
loop $-1 -1 $-1 $-1 $511 $274 #
coedge $-1 -1 $-1 $510 $510 $560 $561 forward $409 $-1 #
coedge $-1 -1 $-1 $511 $511 $411 $512 reversed $509 $-1 #
edge $-1 -1 $-1 $562 -3.1415926535897931 $562 3.1415926535897931 $511 $563 forward @7 unknown #
loop $-1 -1 $-1 $282 $412 $421 #
attrib_edge_convexity-kcp-attrib $-1 -1 $564 $-1 $413 2 #
vertex $-1 -1 $-1 $413 $565 #
ellipse-curve $-1 -1 $-1 -4.3614481245968921 0 5.4864481245968921 0.70710678118654757 0 -0.70710678118654757 1.3380998699186433 0 1.3380998699186433 1 I I #
convexity-sys-attrib $-1 -1 $-1 $414 $279 #
model_id-kcp-attrib $-1 -1 $-1 $-1 $415 1 1021323429 1021323429 1271791617 17 #
point $-1 -1 $-1 -3.6985355172345029 0 6.1493607319592796 #
loop $-1 -1 $-1 $-1 $560 $408 #
convexity-sys-attrib $-1 -1 $-1 $418 $281 #
point $-1 -1 $-1 -5.7579840174403225 0 4.0616279605059979 #
model_id-kcp-attrib $-1 -1 $-1 $-1 $421 1 1021323429 1021323429 1271791617 10 #
cone-surface $-1 -1 $-1 -4.3473059889731598 0 5.4723059889731598 0.70710678118654757 0 -0.70710678118654757 1.3625947673464769 0 1.3625947673464769 1 I I 0.86602540378443904 0.499999999999999 1.927 forward I I I I #
straight-curve $-1 -1 $-1 -1.4584077361972547 1.9950000000000001 0 0 0 -1 I I #
point $-1 -1 $-1 -1.4584077361972547 -1.9950000000000001 -1.4584077361972545 #
straight-curve $-1 -1 $-1 -1.4584077361972547 0 -1.4584077361972545 0 1 0 I I #
point $-1 -1 $-1 -1.4584077361972547 1.9950000000000001 -1.4584077361972545 #
straight-curve $-1 -1 $-1 -1.4584077361972547 0 1.4584077361972545 0 -1 0 I I #
point $-1 -1 $-1 -1.4584077361972547 1.9950000000000001 1.4584077361972545 #
point $-1 -1 $-1 -1.4584077361972547 -1.9950000000000001 1.4584077361972545 #
plane-surface $-1 -1 $-1 0 0 1.4584077361972545 0 0 1 1 0 0 forward_v I I I I #
coedge $-1 -1 $-1 $460 $459 $467 $539 reversed $228 $-1 #
edge $-1 -1 $-1 $366 -1.4584077361972545 $542 1.4584077361972545 $477 $566 forward @7 unknown #
edge $-1 -1 $-1 $360 -1.4584077361972545 $540 1.4584077361972545 $460 $567 forward @7 unknown #
ellipse-curve $-1 -1 $-1 -1.4584077361972547 0 1.4584077361972547 1 0 0 0 2.4430896758756431e-016 -2.821356056934325 0.70710678118654757 I I #
straight-curve $-1 -1 $-1 0 -1.9950000000000001 1.4584077361972545 1 0 0 I I #
face $-1 -1 $-1 $478 $466 $37 $-1 $148 reversed single #
edge $-1 -1 $-1 $540 -1.9950000000000001 $542 1.9950000000000001 $533 $568 forward @7 unknown #
vertex $-1 -1 $-1 $539 $569 #
straight-curve $-1 -1 $-1 0 -1.9950000000000001 -1.4584077361972545 -1 0 0 I I #
vertex $-1 -1 $-1 $470 $570 #
straight-curve $-1 -1 $-1 0 1.9950000000000001 -1.4584077361972545 1 0 0 I I #
plane-surface $-1 -1 $-1 0 0 -1.4584077361972545 0 0 1 1 0 0 forward_v I I I I #
straight-curve $-1 -1 $-1 0 1.9950000000000001 1.4584077361972545 -1 0 0 I I #
straight-curve $-1 -1 $-1 1.4584077361972547 0 1.4584077361972545 0 1 0 I I #
point $-1 -1 $-1 1.4584077361972547 1.9950000000000001 1.4584077361972545 #
point $-1 -1 $-1 1.4584077361972547 -1.9950000000000001 1.4584077361972545 #
edge $-1 -1 $-1 $491 -1.9950000000000001 $488 1.9950000000000001 $486 $571 forward @7 unknown #
point $-1 -1 $-1 1.4584077361972547 -1.9950000000000001 -1.4584077361972545 #
point $-1 -1 $-1 1.4584077361972547 1.9950000000000001 -1.4584077361972545 #
loop $-1 -1 $-1 $572 $502 $492 #
plane-surface $-1 -1 $-1 -0.069192958031701085 -4.8076904129589125e-017 0.026266457428480668 0.70710678118654757 -8.7616277737499421e-019 -0.70710678118654746 -0.70710678118654746 0 -0.70710678118654757 forward_v I I I I #
coedge $-1 -1 $-1 $554 $554 $573 $574 reversed $494 $-1 #
edge $-1 -1 $-1 $575 0 $575 6.2831853071795862 $495 $576 forward @7 unknown #
convexity-sys-attrib $-1 -1 $-1 $-1 $497 #
ellipse-curve $-1 -1 $-1 -0.047729707730090887 0 0.047729707730090887 0.70710678118654757 0 -0.70710678118654757 -1.4106780284671625 2.4430896758756431e-016 -1.4106780284671625 1 I I #
point $-1 -1 $-1 1.3629483207370723 -1.2215448379378223e-016 1.4584077361972545 #
convexity-sys-attrib $-1 -1 $-1 $-1 $503 #
coedge $-1 -1 $-1 $560 $560 $510 $561 reversed $520 $-1 #
edge $-1 -1 $-1 $577 -3.1415926535897931 $577 3.1415926535897931 $560 $578 forward @7 unknown #
vertex $-1 -1 $-1 $512 $579 #
ellipse-curve $-1 -1 $-1 -4.3897323958443533 0 5.5147323958443533 -0.70710678118654757 0 0.70710678118654757 1.4106780284671623 0 1.4106780284671623 1 I I #
convexity-sys-attrib $-1 -1 $-1 $514 $413 #
point $-1 -1 $-1 -5.6995479945155356 0 4.1483482546782486 #
straight-curve $-1 -1 $-1 -1.4584077361972547 1.9950000000000001 0 0 0 -1 I I #
straight-curve $-1 -1 $-1 -1.4584077361972547 -1.9950000000000001 0 0 0 -1 I I #
straight-curve $-1 -1 $-1 -1.4584077361972547 0 -1.4584077361972545 0 1 0 I I #
point $-1 -1 $-1 -1.4584077361972547 -1.9950000000000001 -1.4584077361972545 #
point $-1 -1 $-1 -1.4584077361972547 1.9950000000000001 -1.4584077361972545 #
straight-curve $-1 -1 $-1 1.4584077361972547 0 -1.4584077361972545 0 -1 0 I I #
loop $-1 -1 $-1 $-1 $573 $492 #
coedge $-1 -1 $-1 $573 $573 $554 $574 forward $572 $-1 #
edge $580 -1 $-1 $581 0 $581 6.2831853071795862 $554 $582 forward @7 unknown #
vertex $-1 -1 $-1 $555 $583 #
ellipse-curve $-1 -1 $-1 -0.34966430329674658 0 0.34966430329674658 -0.70710678118654757 0 0.70710678118654757 -0.70710678118654746 0 -0.70710678118654746 1 I I #
vertex $-1 -1 $-1 $561 $584 #
ellipse-curve $-1 -1 $-1 -4.354377056785026 0 5.479377056785026 -0.70710678118654757 0 0.70710678118654757 1.4106780284671623 0 1.4106780284671623 1 I I #
point $-1 -1 $-1 -5.8004104243115151 0 4.1040543673771905 #
convexity-sys-attrib $-1 -1 $-1 $-1 $574 #
vertex $-1 -1 $-1 $574 $585 #
ellipse-curve $-1 -1 $-1 -0.047729707730090901 0 0.047729707730090901 -0.70710678118654757 0 0.70710678118654757 -0.70710678118654746 0 -0.70710678118654746 1 I I #
point $-1 -1 $-1 -1.0567710844832945 0 -0.35744247788979955 #
point $-1 -1 $-1 -5.7650550852521878 0 4.0686990283178632 #
point $-1 -1 $-1 -0.75483648891663879 0 -0.65937707345645524 #
End-of-ACIS-data 