700 0 2 0           
24 FBMach with ACIS - 7.0.3 13 ACIS 7.0.3 NT 24 Mon May 13 16:57:16 2002 
1 9.9999999999999995e-007 1e-010 
body $2 -1 $-1 $3 $-1 $4 #
bdycol-kcp $-1 -1 1 6 $5 $6 $7 $8 $9 $10 #
model_id-kcp-attrib $-1 -1 $-1 $-1 $0 1 1021323434 1021323434 -1810497535 1 #
lump $-1 -1 $-1 $-1 $11 $0 #
transform $-1 -1 1.0000000000000002 0 0 0 1 0 0 0 1.0000000000000002 -8.8817841970012523e-016 0 -8.8817841970012523e-016 1 rotate no_reflect no_shear #
body $12 -1 $-1 $13 $-1 $14 #
body $15 -1 $-1 $16 $-1 $17 #
body $18 -1 $-1 $19 $-1 $20 #
body $21 -1 $-1 $22 $-1 $23 #
body $24 -1 $-1 $25 $-1 $26 #
body $27 -1 $-1 $28 $-1 $29 #
shell $-1 -1 $-1 $-1 $-1 $30 $-1 $3 #
model_id-kcp-attrib $-1 -1 $-1 $-1 $5 1 1021323434 1021323434 -1810497534 1 #
lump $-1 -1 $-1 $-1 $31 $5 #
transform $-1 -1 1 0 0 0 1 0 0 0 1 4.3950356967032524 0 5.5200356967032524 1 no_rotate no_reflect no_shear #
rgb_color-st-attrib $-1 -1 $32 $-1 $6 0.5 1 1 #
lump $-1 -1 $-1 $-1 $33 $6 #
transform $-1 -1 0.70710678118654757 0 -0.70710678118654746 0 1 0 0.70710678118654746 0 0.70710678118654757 4.5530740622984442 0 5.6780740622984442 1 rotate no_reflect no_shear #
rgb_color-st-attrib $-1 -1 $34 $-1 $7 0.5 1 1 #
lump $-1 -1 $-1 $-1 $35 $7 #
transform $-1 -1 1 0 0 0 1 0 0 0 1 4.3950356967032524 0 5.5200356967032524 1 no_rotate no_reflect no_shear #
rgb_color-st-attrib $-1 -1 $36 $-1 $8 0.5 0.5 1 #
lump $-1 -1 $-1 $-1 $37 $8 #
transform $-1 -1 1 0 0 0 1 0 0 0 1 4.3950356967032524 0 5.5200356967032524 1 no_rotate no_reflect no_shear #
rgb_color-st-attrib $-1 -1 $38 $-1 $9 0.5 0.5 1 #
lump $-1 -1 $-1 $-1 $39 $9 #
transform $-1 -1 1 0 0 0 1 0 0 0 1 4.3950356967032524 0 5.5200356967032524 1 no_rotate no_reflect no_shear #
rgb_color-st-attrib $-1 -1 $40 $-1 $10 1 0.5 1 #
lump $-1 -1 $-1 $-1 $41 $10 #
transform $-1 -1 1 0 0 0 1 0 0 0 1 4.3950356967032524 0 5.5200356967032524 1 no_rotate no_reflect no_shear #
face $42 -1 $-1 $43 $44 $11 $-1 $45 forward single #
shell $-1 -1 $-1 $-1 $-1 $46 $-1 $13 #
model_id-kcp-attrib $-1 -1 $-1 $15 $6 1 1021323434 1021323434 -1809186813 1 #
shell $-1 -1 $-1 $-1 $-1 $47 $-1 $16 #
model_id-kcp-attrib $-1 -1 $-1 $18 $7 1 1021323434 1021323434 -1802567676 1 #
shell $-1 -1 $-1 $-1 $-1 $48 $-1 $19 #
model_id-kcp-attrib $-1 -1 $-1 $21 $8 1 1021323434 1021323435 -1805320187 1 #
shell $-1 -1 $-1 $-1 $-1 $49 $-1 $22 #
model_id-kcp-attrib $-1 -1 $-1 $24 $9 1 1021323434 1021323435 -1796800506 1 #
shell $-1 -1 $-1 $-1 $-1 $50 $-1 $25 #
model_id-kcp-attrib $-1 -1 $-1 $27 $10 1 1021323434 1021323435 -1795227641 1 #
shell $-1 -1 $-1 $-1 $-1 $51 $-1 $28 #
model_id-kcp-attrib $-1 -1 $-1 $-1 $30 1 1021323434 1021323434 -1810497535 2 #
face $52 -1 $-1 $53 $54 $11 $-1 $55 forward single #
loop $-1 -1 $-1 $56 $57 $30 #
plane-surface $-1 -1 $-1 4.7446999999999999 0 5.8696999999999999 0.70710678118654757 0 0.70710678118654757 0.70710678118654746 0 -0.70710678118654746 forward_v I I I I #
face $-1 -1 $-1 $58 $59 $31 $-1 $60 forward single #
face $-1 -1 $-1 $61 $62 $33 $-1 $63 forward single #
face $-1 -1 $-1 $64 $65 $35 $-1 $66 reversed single #
face $-1 -1 $-1 $67 $68 $37 $-1 $69 reversed single #
face $-1 -1 $-1 $70 $71 $39 $-1 $72 reversed single #
face $-1 -1 $-1 $73 $74 $41 $-1 $75 reversed single #
model_id-kcp-attrib $-1 -1 $-1 $-1 $43 1 1021323434 1021323434 -1810497535 3 #
face $76 -1 $-1 $77 $78 $11 $-1 $79 reversed single #
loop $-1 -1 $-1 $80 $81 $43 #
plane-surface $-1 -1 $-1 4.4427654044333442 0 5.5677654044333442 0.70710678118654757 0 0.70710678118654757 0.70710678118654746 0 -0.70710678118654746 forward_v I I I I #
loop $82 -1 $-1 $-1 $83 $30 #
coedge $-1 -1 $-1 $57 $57 $84 $85 forward $44 $-1 #
face $-1 -1 $-1 $86 $87 $31 $-1 $88 reversed single #
loop $-1 -1 $-1 $-1 $89 $46 #
plane-surface $-1 -1 $-1 0 0 1.4584077361972545 0 0 1 1 0 0 forward_v I I I I #
face $-1 -1 $-1 $90 $91 $33 $-1 $92 forward single #
loop $-1 -1 $-1 $93 $94 $47 #
cone-surface $-1 -1 $-1 0 0 0 0 0 1 0.93749999999999989 0 0 1 I I 0 1 0.93749999999999989 forward I I I I #
face $-1 -1 $-1 $95 $96 $35 $-1 $66 reversed single #
loop $-1 -1 $-1 $-1 $97 $48 #
cone-surface $-1 -1 $-1 0.34966430329674836 0 0.34966430329674836 0.70710678118654757 0 0.70710678118654757 1.4106780284671625 -4.9303806576313238e-032 -1.4106780284671625 1 I I 0 1 1.9950000000000001 forward I I I I #
face $-1 -1 $-1 $98 $99 $37 $-1 $100 forward single #
loop $-1 -1 $-1 $-1 $101 $49 #
plane-surface $-1 -1 $-1 0.34966430329674925 0 0.34966430329674925 0.70710678118654757 0 0.70710678118654757 0 1 0 forward_v I I I I #
face $-1 -1 $-1 $102 $103 $39 $-1 $104 forward single #
loop $-1 -1 $-1 $-1 $105 $50 #
plane-surface $-1 -1 $-1 -0.047729707730091775 0 -0.047729707730091775 -0.70710678118654757 0 -0.70710678118654757 0 -1 0 forward_v I I I I #
face $-1 -1 $-1 $106 $107 $41 $-1 $108 forward single #
loop $-1 -1 $-1 $-1 $109 $51 #
plane-surface $-1 -1 $-1 1.4584077361972547 0 0 -1 0 0 0 0 1 forward_v I I I I #
model_id-kcp-attrib $-1 -1 $-1 $-1 $53 1 1021323434 1021323434 -1810497535 4 #
face $110 -1 $-1 $111 $112 $11 $-1 $113 reversed single #
loop $-1 -1 $-1 $114 $115 $53 #
plane-surface $-1 -1 $-1 4.3473059889731598 0 5.4723059889731598 0.70710678118654757 0 0.70710678118654757 0.70710678118654746 0 -0.70710678118654746 forward_v I I I I #
loop $-1 -1 $-1 $-1 $116 $43 #
coedge $-1 -1 $-1 $81 $81 $117 $118 forward $54 $-1 #
model_id-kcp-attrib $-1 -1 $-1 $-1 $56 1 1021323434 1021323434 -1810497535 14 #
coedge $-1 -1 $-1 $83 $83 $119 $120 reversed $56 $-1 #
coedge $-1 -1 $-1 $84 $84 $57 $85 reversed $121 $-1 #
edge $122 -1 $-1 $123 0 $123 6.2831853071795862 $84 $124 forward @7 unknown #
face $-1 -1 $-1 $125 $126 $31 $-1 $127 reversed single #
loop $-1 -1 $-1 $-1 $128 $58 #
plane-surface $-1 -1 $-1 0 0 -1.4584077361972545 0 0 1 1 0 0 forward_v I I I I #
coedge $-1 -1 $-1 $129 $130 $131 $132 forward $59 $-1 #
face $-1 -1 $-1 $-1 $133 $33 $-1 $134 forward single #
loop $-1 -1 $-1 $-1 $135 $61 #
plane-surface $-1 -1 $-1 0 0 -0.27099999999999991 0 0 -1 -1 0 0 forward_v I I I I #
loop $-1 -1 $-1 $-1 $136 $47 #
coedge $-1 -1 $-1 $94 $94 $135 $137 reversed $62 $-1 #
face $-1 -1 $-1 $138 $139 $35 $-1 $140 reversed single #
loop $-1 -1 $-1 $-1 $141 $64 #
coedge $-1 -1 $-1 $142 $143 $144 $145 reversed $65 $-1 #
face $-1 -1 $-1 $146 $147 $37 $-1 $148 forward single #
loop $-1 -1 $-1 $-1 $149 $67 #
plane-surface $-1 -1 $-1 0 0 1.4584077361972545 0 0 1 1 0 0 forward_v I I I I #
coedge $-1 -1 $-1 $150 $151 $152 $153 forward $68 $-1 #
face $-1 -1 $-1 $154 $155 $39 $-1 $104 forward single #
loop $-1 -1 $-1 $-1 $156 $70 #
cone-surface $-1 -1 $-1 0.34966430329674836 0 0.34966430329674836 0.70710678118654757 0 0.70710678118654757 1.4106780284671625 -4.9303806576313238e-032 -1.4106780284671625 1 I I 0 1 1.9950000000000001 forward I I I I #
coedge $-1 -1 $-1 $157 $157 $158 $159 forward $71 $-1 #
face $-1 -1 $-1 $160 $161 $41 $-1 $162 forward single #
loop $-1 -1 $-1 $-1 $163 $73 #
plane-surface $-1 -1 $-1 0 0 1.4584077361972545 0 0 1 1 0 0 forward_v I I I I #
coedge $-1 -1 $-1 $164 $165 $166 $167 forward $74 $-1 #
model_id-kcp-attrib $-1 -1 $-1 $-1 $77 1 1021323434 1021323434 -1810497535 5 #
face $168 -1 $-1 $169 $170 $11 $-1 $171 forward single #
loop $172 -1 $-1 $173 $174 $77 #
plane-surface $-1 -1 $-1 4.3614481245968912 0 5.4864481245968912 0.70710678118654757 0 0.70710678118654757 0.70710678118654746 0 -0.70710678118654746 forward_v I I I I #
loop $-1 -1 $-1 $-1 $175 $53 #
coedge $-1 -1 $-1 $115 $115 $176 $177 forward $78 $-1 #
coedge $-1 -1 $-1 $116 $116 $178 $179 forward $80 $-1 #
coedge $-1 -1 $-1 $117 $117 $81 $118 reversed $180 $-1 #
edge $181 -1 $-1 $182 0 $182 6.2831853071795862 $117 $183 forward @7 unknown #
coedge $-1 -1 $-1 $119 $119 $83 $120 forward $184 $-1 #
edge $185 -1 $-1 $186 0 $186 6.2831853071795862 $119 $187 forward @7 unknown #
loop $-1 -1 $-1 $-1 $84 $111 #
attrib_edge_convexity-kcp-attrib $-1 -1 $188 $-1 $85 1 #
vertex $-1 -1 $-1 $85 $189 #
ellipse-curve $-1 -1 $-1 4.7446999999999999 0 5.8696999999999999 0.70710678118654757 0 0.70710678118654757 0.70710678118654746 0 -0.70710678118654746 1 I I #
face $-1 -1 $-1 $190 $191 $31 $-1 $192 reversed single #
loop $-1 -1 $-1 $-1 $193 $86 #
plane-surface $-1 -1 $-1 0 -1.9950000000000001 0 0 1 0 0 0 1 forward_v I I I I #
coedge $-1 -1 $-1 $194 $195 $196 $197 forward $87 $-1 #
coedge $-1 -1 $-1 $198 $89 $199 $200 forward $59 $-1 #
coedge $-1 -1 $-1 $89 $198 $201 $202 forward $59 $-1 #
coedge $-1 -1 $-1 $203 $204 $89 $132 reversed $205 $-1 #
edge $-1 -1 $-1 $206 -1.9950000000000001 $207 1.9950000000000001 $131 $208 forward @7 unknown #
loop $-1 -1 $-1 $-1 $209 $90 #
plane-surface $-1 -1 $-1 0 0 0.27099999999999991 0 0 1 1 0 0 forward_v I I I I #
coedge $-1 -1 $-1 $135 $135 $94 $137 forward $91 $-1 #
coedge $-1 -1 $-1 $136 $136 $209 $210 reversed $93 $-1 #
edge $-1 -1 $-1 $211 0 $211 6.2831853071795862 $135 $212 forward @7 unknown #
face $-1 -1 $-1 $213 $214 $35 $-1 $215 reversed single #
loop $-1 -1 $-1 $-1 $216 $95 #
plane-surface $-1 -1 $-1 0 1.9950000000000001 0 0 -1 0 0 0 -1 forward_v I I I I #
coedge $-1 -1 $-1 $217 $218 $219 $220 reversed $96 $-1 #
coedge $-1 -1 $-1 $221 $97 $218 $222 forward $65 $-1 #
coedge $-1 -1 $-1 $97 $221 $223 $224 reversed $65 $-1 #
coedge $-1 -1 $-1 $225 $226 $97 $145 forward $227 $-1 #
edge $-1 -1 $-1 $228 1.5707963267948968 $229 4.7123889803846897 $144 $230 forward @7 unknown #
face $-1 -1 $-1 $231 $232 $37 $-1 $148 forward single #
loop $-1 -1 $-1 $-1 $152 $98 #
cone-surface $-1 -1 $-1 0.34966430329674836 0 0.34966430329674836 0.70710678118654757 0 0.70710678118654757 1.4106780284671625 -4.9303806576313238e-032 -1.4106780284671625 1 I I 0 1 1.9950000000000001 forward I I I I #
coedge $-1 -1 $-1 $233 $234 $150 $235 reversed $99 $-1 #
coedge $-1 -1 $-1 $236 $101 $149 $235 forward $68 $-1 #
coedge $-1 -1 $-1 $101 $236 $237 $238 forward $68 $-1 #
coedge $-1 -1 $-1 $239 $240 $101 $153 reversed $147 $-1 #
edge $241 -1 $-1 $242 0.66654108210403917 $243 2.4750515714857539 $152 $244 forward @7 unknown #
face $-1 -1 $-1 $245 $246 $39 $-1 $247 reversed single #
loop $-1 -1 $-1 $-1 $158 $102 #
coedge $-1 -1 $-1 $248 $249 $157 $250 reversed $103 $-1 #
coedge $-1 -1 $-1 $105 $105 $156 $250 forward $71 $-1 #
coedge $-1 -1 $-1 $251 $252 $105 $159 reversed $155 $-1 #
edge $253 -1 $-1 $254 -3.1415926535897931 $255 1.2356843753461969e-032 $158 $256 forward @7 unknown #
face $-1 -1 $-1 $257 $258 $41 $-1 $162 forward single #
loop $-1 -1 $-1 $-1 $259 $106 #
cone-surface $-1 -1 $-1 0.047729707730090887 0 0.047729707730090887 0.70710678118654757 0 0.70710678118654757 1.4106780284671625 -4.9303806576313238e-032 -1.4106780284671625 1 I I 0 1 1.9950000000000003 forward I I I I #
coedge $-1 -1 $-1 $260 $261 $262 $263 forward $107 $-1 #
coedge $-1 -1 $-1 $165 $109 $264 $265 forward $74 $-1 #
coedge $-1 -1 $-1 $109 $164 $259 $266 forward $74 $-1 #
coedge $-1 -1 $-1 $267 $268 $109 $167 reversed $269 $-1 #
edge $-1 -1 $-1 $270 -1.2334508502571175 $271 1.2334508502571175 $166 $272 forward @7 unknown #
model_id-kcp-attrib $-1 -1 $-1 $-1 $111 1 1021323434 1021323434 -1810497535 6 #
face $273 -1 $-1 $274 $275 $11 $-1 $276 forward single #
loop $-1 -1 $-1 $121 $178 $111 #
cone-surface $-1 -1 $-1 4.3274362884218185 0 5.4524362884218185 0.70710678118654757 0 0.70710678118654757 -0.70710678118654746 0 0.70710678118654746 1 I I 0 1 1 forward I I I I #
model_id-kcp-attrib $-1 -1 $-1 $-1 $112 1 1021323434 1021323434 -1810497535 15 #
loop $-1 -1 $-1 $-1 $277 $77 #
coedge $-1 -1 $-1 $174 $174 $278 $279 forward $112 $-1 #
coedge $-1 -1 $-1 $175 $175 $280 $281 forward $114 $-1 #
coedge $-1 -1 $-1 $176 $176 $115 $177 reversed $282 $-1 #
edge $283 -1 $-1 $284 0 $284 6.2831853071795862 $176 $285 forward @7 unknown #
coedge $-1 -1 $-1 $178 $178 $116 $179 reversed $170 $-1 #
edge $286 -1 $-1 $287 -3.1415926535897931 $287 3.1415926535897931 $116 $288 forward @7 unknown #
loop $-1 -1 $-1 $-1 $117 $169 #
attrib_edge_convexity-kcp-attrib $-1 -1 $289 $-1 $118 1 #
vertex $-1 -1 $-1 $118 $290 #
ellipse-curve $-1 -1 $-1 4.4427654044333442 0 5.5677654044333442 0.70710678118654757 0 0.70710678118654757 1.4106780284671623 0 -1.4106780284671623 1 I I #
loop $291 -1 $-1 $292 $119 $293 #
attrib_edge_convexity-kcp-attrib $-1 -1 $294 $-1 $120 1 #
vertex $295 -1 $-1 $120 $296 #
ellipse-curve $-1 -1 $-1 4.7446999999999999 0 5.8696999999999999 0.70710678118654757 0 0.70710678118654757 0.66291260736238822 0 -0.66291260736238822 1 I I #
convexity-sys-attrib $-1 -1 $-1 $122 $85 #
point $-1 -1 $-1 5.4518067811865478 0 5.162593218813452 #
face $-1 -1 $-1 $297 $298 $31 $-1 $299 reversed single #
loop $-1 -1 $-1 $-1 $300 $125 #
plane-surface $-1 -1 $-1 -1.4584077361972547 0 0 1 0 0 0 0 -1 forward_v I I I I #
coedge $-1 -1 $-1 $301 $201 $302 $303 forward $126 $-1 #
coedge $-1 -1 $-1 $304 $128 $301 $305 forward $87 $-1 #
coedge $-1 -1 $-1 $128 $304 $306 $307 forward $87 $-1 #
coedge $-1 -1 $-1 $204 $203 $128 $197 reversed $205 $-1 #
edge $-1 -1 $-1 $308 -1.9950000000000001 $309 1.9950000000000001 $196 $310 forward @7 unknown #
coedge $-1 -1 $-1 $130 $129 $311 $312 forward $59 $-1 #
coedge $-1 -1 $-1 $313 $314 $129 $200 reversed $298 $-1 #
edge $-1 -1 $-1 $207 -1.4584077361972547 $315 1.4584077361972547 $199 $316 forward @7 unknown #
coedge $-1 -1 $-1 $193 $317 $130 $202 reversed $126 $-1 #
edge $-1 -1 $-1 $318 -1.4584077361972547 $206 1.4584077361972547 $201 $319 forward @7 unknown #
coedge $-1 -1 $-1 $196 $131 $317 $320 forward $205 $-1 #
coedge $-1 -1 $-1 $131 $196 $313 $321 reversed $205 $-1 #
loop $-1 -1 $-1 $-1 $203 $297 #
vertex $-1 -1 $-1 $132 $322 #
vertex $-1 -1 $-1 $132 $323 #
straight-curve $-1 -1 $-1 1.4584077361972547 0 1.4584077361972545 0 1 0 I I #
coedge $-1 -1 $-1 $209 $209 $136 $210 forward $133 $-1 #
edge $-1 -1 $-1 $324 0 $324 6.2831853071795862 $209 $325 forward @7 unknown #
vertex $-1 -1 $-1 $137 $326 #
ellipse-curve $-1 -1 $-1 0 0 -0.27099999999999991 0 0 -1 0.93749999999999989 0 0 1 I I #
face $-1 -1 $-1 $327 $328 $35 $-1 $329 reversed single #
loop $-1 -1 $-1 $-1 $330 $138 #
plane-surface $-1 -1 $-1 1.4584077361972547 0 0 -1 0 0 0 0 1 forward_v I I I I #
coedge $-1 -1 $-1 $331 $332 $142 $222 reversed $139 $-1 #
coedge $-1 -1 $-1 $333 $141 $143 $224 forward $96 $-1 #
coedge $-1 -1 $-1 $141 $333 $334 $222 reversed $96 $-1 #
coedge $-1 -1 $-1 $335 $336 $141 $220 forward $337 $-1 #
edge $-1 -1 $-1 $229 -1.5707963267948968 $228 1.5707963267948968 $219 $338 forward @7 unknown #
coedge $-1 -1 $-1 $143 $142 $339 $340 reversed $65 $-1 #
edge $-1 -1 $-1 $228 -2.5570000000000013 $341 1.5679999999999996 $334 $342 forward @7 unknown #
coedge $-1 -1 $-1 $343 $344 $345 $224 forward $346 $-1 #
edge $-1 -1 $-1 $229 -2.5570000000000013 $347 1.5679999999999996 $223 $348 forward @7 unknown #
coedge $-1 -1 $-1 $349 $144 $344 $350 reversed $227 $-1 #
coedge $-1 -1 $-1 $144 $349 $331 $351 forward $227 $-1 #
loop $-1 -1 $-1 $-1 $144 $327 #
vertex $-1 -1 $-1 $352 $353 #
vertex $-1 -1 $-1 $220 $354 #
ellipse-curve $-1 -1 $-1 -1.4584077361972547 0 -1.4584077361972547 1 0 0 0 -4.9303806576313238e-032 -2.821356056934325 0.70710678118654757 I I #
face $-1 -1 $-1 $-1 $355 $37 $-1 $356 reversed single #
loop $-1 -1 $-1 $-1 $357 $146 #
coedge $-1 -1 $-1 $358 $149 $240 $359 forward $99 $-1 #
coedge $-1 -1 $-1 $149 $358 $360 $361 forward $99 $-1 #
edge $362 -1 $-1 $243 -1.2334508502571178 $363 1.2334508502571178 $149 $364 forward @7 unknown #
coedge $-1 -1 $-1 $151 $150 $357 $365 forward $68 $-1 #
coedge $-1 -1 $-1 $366 $367 $151 $238 reversed $355 $-1 #
edge $368 -1 $-1 $369 -1.2334508502571175 $242 1.2334508502571175 $237 $370 forward @7 unknown #
coedge $-1 -1 $-1 $240 $152 $367 $371 reversed $147 $-1 #
coedge $-1 -1 $-1 $152 $239 $233 $359 reversed $147 $-1 #
convexity-sys-attrib $-1 -1 $-1 $-1 $153 #
vertex $-1 -1 $-1 $153 $372 #
vertex $-1 -1 $-1 $359 $373 #
ellipse-curve $-1 -1 $-1 0.34966430329674925 0 0.34966430329674925 -0.70710678118654757 0 -0.70710678118654757 1.4106780284671625 -4.9303806576313238e-032 -1.4106780284671625 1 I I #
face $-1 -1 $-1 $-1 $374 $39 $-1 $375 reversed single #
loop $-1 -1 $-1 $-1 $376 $154 #
plane-surface $-1 -1 $-1 -1.4584077361972547 0 0 1 0 0 0 0 -1 forward_v I I I I #
coedge $-1 -1 $-1 $249 $156 $377 $378 reversed $103 $-1 #
coedge $-1 -1 $-1 $156 $248 $379 $380 reversed $103 $-1 #
edge $381 -1 $-1 $255 1.2356843753461969e-032 $254 3.1415926535897931 $156 $256 forward @7 unknown #
coedge $-1 -1 $-1 $252 $158 $376 $382 reversed $155 $-1 #
coedge $-1 -1 $-1 $158 $251 $383 $384 reversed $155 $-1 #
convexity-sys-attrib $-1 -1 $-1 $-1 $159 #
vertex $-1 -1 $-1 $380 $385 #
vertex $-1 -1 $-1 $384 $386 #
ellipse-curve $-1 -1 $-1 -0.04772970773009183 0 -0.04772970773009183 0.70710678118654757 0 0.70710678118654757 1.4106780284671625 -4.9303806576313238e-032 -1.4106780284671625 1 I I #
face $-1 -1 $-1 $387 $388 $41 $-1 $389 forward single #
loop $-1 -1 $-1 $-1 $390 $160 #
coedge $-1 -1 $-1 $391 $392 $165 $266 reversed $161 $-1 #
coedge $-1 -1 $-1 $261 $163 $393 $394 forward $107 $-1 #
coedge $-1 -1 $-1 $163 $260 $390 $395 forward $107 $-1 #
coedge $-1 -1 $-1 $268 $267 $163 $263 reversed $269 $-1 #
edge $-1 -1 $-1 $396 -1.2334508502571178 $397 1.2334508502571178 $262 $398 forward @7 unknown #
coedge $-1 -1 $-1 $399 $400 $164 $265 reversed $258 $-1 #
edge $-1 -1 $-1 $271 -0.66654108210403917 $401 1.2356843753461964e-032 $264 $402 forward @7 unknown #
edge $-1 -1 $-1 $401 1.2356843753461964e-032 $270 0.66654108210403917 $259 $402 forward @7 unknown #
coedge $-1 -1 $-1 $262 $166 $392 $403 reversed $269 $-1 #
coedge $-1 -1 $-1 $166 $262 $399 $404 reversed $269 $-1 #
loop $-1 -1 $-1 $405 $262 $387 #
vertex $-1 -1 $-1 $167 $406 #
vertex $-1 -1 $-1 $404 $407 #
straight-curve $-1 -1 $-1 1.4584077361972547 3.1472699166463268e-017 -0.75907912960376134 0 -1 1.5563777420180013e-033 I I #
model_id-kcp-attrib $-1 -1 $-1 $-1 $169 1 1021323434 1021323434 -1810497535 7 #
face $408 -1 $-1 $409 $410 $11 $-1 $411 reversed single #
loop $-1 -1 $-1 $180 $412 $169 #
cone-surface $-1 -1 $-1 4.3274362884218185 0 5.4524362884218185 0.70710678118654757 0 0.70710678118654757 -1.4106780284671623 0 1.4106780284671623 1 I I 0 1 1.9950000000000001 forward I I I I #
coedge $-1 -1 $-1 $277 $277 $413 $414 forward $173 $-1 #
coedge $-1 -1 $-1 $278 $278 $174 $279 reversed $292 $-1 #
edge $415 -1 $-1 $416 0 $416 6.2831853071795862 $278 $417 forward @7 unknown #
coedge $-1 -1 $-1 $280 $280 $175 $281 reversed $418 $-1 #
edge $419 -1 $-1 $420 -3.1415926535897931 $420 3.1415926535897931 $175 $421 forward @7 unknown #
loop $-1 -1 $-1 $-1 $176 $422 #
attrib_edge_convexity-kcp-attrib $-1 -1 $423 $-1 $177 1 #
vertex $-1 -1 $-1 $177 $424 #
ellipse-curve $-1 -1 $-1 4.3473059889731598 0 5.4723059889731598 0.70710678118654757 0 0.70710678118654757 1.3625947673464769 0 -1.3625947673464769 1 I I #
attrib_edge_convexity-kcp-attrib $-1 -1 $425 $-1 $179 2 #
vertex $-1 -1 $-1 $179 $426 #
ellipse-curve $-1 -1 $-1 4.4427654044333442 0 5.5677654044333442 -0.70710678118654757 0 -0.70710678118654757 0.70710678118654746 0 -0.70710678118654746 1 I I #
convexity-sys-attrib $-1 -1 $-1 $181 $118 #
point $-1 -1 $-1 5.8534434329005069 0 4.1570873759661815 #
model_id-kcp-attrib $-1 -1 $-1 $-1 $184 1 1021323434 1021323434 -1810497535 12 #
loop $427 -1 $-1 $-1 $278 $293 #
face $428 -1 $-1 $-1 $184 $11 $-1 $429 reversed single #
convexity-sys-attrib $-1 -1 $-1 $185 $120 #
model_id-kcp-attrib $-1 -1 $-1 $-1 $186 1 1021323434 1021323434 -1810497535 16 #
point $-1 -1 $-1 5.4076126073623882 0 5.2067873926376116 #
face $-1 -1 $-1 $-1 $205 $31 $-1 $430 reversed single #
loop $-1 -1 $-1 $-1 $313 $190 #
plane-surface $-1 -1 $-1 0 1.9950000000000001 0 0 -1 0 0 0 -1 forward_v I I I I #
coedge $-1 -1 $-1 $431 $311 $314 $432 forward $191 $-1 #
coedge $-1 -1 $-1 $317 $193 $194 $305 reversed $126 $-1 #
coedge $-1 -1 $-1 $311 $431 $193 $303 reversed $191 $-1 #
edge $-1 -1 $-1 $318 -1.4584077361972545 $433 1.4584077361972545 $302 $434 forward @7 unknown #
coedge $-1 -1 $-1 $195 $194 $431 $435 forward $87 $-1 #
edge $-1 -1 $-1 $309 -1.4584077361972547 $433 1.4584077361972547 $301 $436 forward @7 unknown #
coedge $-1 -1 $-1 $314 $313 $195 $307 reversed $298 $-1 #
edge $-1 -1 $-1 $437 -1.4584077361972547 $308 1.4584077361972547 $306 $438 forward @7 unknown #
vertex $-1 -1 $-1 $197 $439 #
vertex $-1 -1 $-1 $320 $440 #
straight-curve $-1 -1 $-1 1.4584077361972547 0 -1.4584077361972545 0 -1 0 I I #
coedge $-1 -1 $-1 $300 $302 $198 $312 reversed $191 $-1 #
edge $-1 -1 $-1 $315 -1.9950000000000001 $318 1.9950000000000001 $311 $441 forward @7 unknown #
coedge $-1 -1 $-1 $306 $199 $204 $321 forward $298 $-1 #
coedge $-1 -1 $-1 $199 $306 $300 $432 reversed $298 $-1 #
vertex $-1 -1 $-1 $200 $442 #
straight-curve $-1 -1 $-1 0 1.9950000000000001 1.4584077361972545 -1 0 0 I I #
coedge $-1 -1 $-1 $201 $301 $203 $320 reversed $126 $-1 #
vertex $-1 -1 $-1 $312 $443 #
straight-curve $-1 -1 $-1 0 -1.9950000000000001 1.4584077361972545 1 0 0 I I #
edge $-1 -1 $-1 $206 -1.4584077361972545 $309 1.4584077361972545 $203 $444 forward @7 unknown #
edge $-1 -1 $-1 $207 -1.4584077361972545 $308 1.4584077361972545 $204 $445 forward @7 unknown #
point $-1 -1 $-1 1.4584077361972547 -1.9950000000000001 1.4584077361972545 #
point $-1 -1 $-1 1.4584077361972547 1.9950000000000001 1.4584077361972545 #
vertex $-1 -1 $-1 $210 $446 #
ellipse-curve $-1 -1 $-1 0 0 0.27099999999999991 0 0 1 0.93749999999999989 0 0 1 I I #
point $-1 -1 $-1 0.93749999999999989 0 -0.27099999999999991 #
face $-1 -1 $-1 $447 $227 $35 $-1 $448 reversed single #
loop $-1 -1 $-1 $-1 $345 $213 #
plane-surface $-1 -1 $-1 0 -1.9950000000000001 0 0 1 0 0 0 1 forward_v I I I I #
coedge $-1 -1 $-1 $449 $450 $333 $451 forward $214 $-1 #
coedge $-1 -1 $-1 $332 $216 $226 $351 reversed $139 $-1 #
coedge $-1 -1 $-1 $216 $331 $452 $453 reversed $139 $-1 #
coedge $-1 -1 $-1 $218 $217 $330 $451 reversed $96 $-1 #
coedge $-1 -1 $-1 $454 $455 $216 $222 forward $456 $-1 #
coedge $-1 -1 $-1 $457 $219 $455 $352 forward $337 $-1 #
coedge $-1 -1 $-1 $219 $457 $458 $459 forward $337 $-1 #
loop $-1 -1 $-1 $-1 $219 $460 #
ellipse-curve $-1 -1 $-1 -1.4584077361972543 0 -1.4584077361972543 0 0 1 2.821356056934325 -4.9303806576313238e-032 0 0.70710678118654757 I I #
coedge $-1 -1 $-1 $452 $461 $221 $340 forward $462 $-1 #
edge $-1 -1 $-1 $347 1.5707963267948966 $341 4.7123889803846897 $339 $463 forward @7 unknown #
vertex $-1 -1 $-1 $222 $464 #
straight-curve $-1 -1 $-1 0.34966430329674836 1.9950000000000001 0.34966430329674836 0.70710678118654757 0 0.70710678118654757 I I #
coedge $-1 -1 $-1 $344 $223 $461 $465 reversed $346 $-1 #
coedge $-1 -1 $-1 $223 $343 $225 $350 forward $346 $-1 #
coedge $-1 -1 $-1 $458 $466 $217 $224 reversed $328 $-1 #
loop $-1 -1 $-1 $-1 $223 $467 #
vertex $-1 -1 $-1 $224 $468 #
straight-curve $-1 -1 $-1 0.34966430329674836 -1.9950000000000001 0.34966430329674836 0.70710678118654757 0 0.70710678118654757 I I #
coedge $-1 -1 $-1 $226 $225 $469 $470 reversed $227 $-1 #
edge $-1 -1 $-1 $471 -1.4584077361972545 $229 1.4584077361972545 $225 $472 forward @7 unknown #
edge $-1 -1 $-1 $473 -1.4584077361972545 $228 1.4584077361972545 $331 $474 forward @7 unknown #
edge $-1 -1 $-1 $228 -1.4584077361972547 $475 1.4584077361972547 $455 $476 forward @7 unknown #
point $-1 -1 $-1 -1.4584077361972547 1.9950000000000001 -1.4584077361972545 #
point $-1 -1 $-1 -1.4584077361972547 -1.9950000000000001 -1.4584077361972545 #
loop $-1 -1 $-1 $-1 $237 $231 #
plane-surface $-1 -1 $-1 1.4584077361972547 0 0 -1 0 0 0 0 1 forward_v I I I I #
coedge $-1 -1 $-1 $360 $477 $236 $365 reversed $232 $-1 #
coedge $-1 -1 $-1 $234 $233 $478 $479 forward $99 $-1 #
edge $-1 -1 $-1 $243 -2.4750515714857539 $480 -1.5707963267948966 $233 $481 forward @7 unknown #
coedge $-1 -1 $-1 $477 $357 $234 $361 reversed $232 $-1 #
edge $-1 -1 $-1 $482 1.5707963267948966 $363 2.4750515714857539 $234 $481 forward @7 unknown #
convexity-sys-attrib $-1 -1 $-1 $-1 $235 #
vertex $-1 -1 $-1 $235 $483 #
straight-curve $-1 -1 $-1 -0.75907912960375601 0 1.4584077361972545 0 1 0 I I #
edge $484 -1 $-1 $363 -2.4750515714857539 $369 -0.66654108210403917 $357 $244 forward @7 unknown #
coedge $-1 -1 $-1 $478 $237 $477 $485 forward $355 $-1 #
coedge $-1 -1 $-1 $237 $478 $239 $371 forward $355 $-1 #
convexity-sys-attrib $-1 -1 $-1 $-1 $238 #
vertex $-1 -1 $-1 $485 $486 #
straight-curve $-1 -1 $-1 1.4584077361972547 0 -0.75907912960375634 0 -1 0 I I #
edge $-1 -1 $-1 $480 -1.5707963267948966 $242 -0.66654108210403917 $367 $487 forward @7 unknown #
point $-1 -1 $-1 1.4584077361972547 -1.2334508502571175 -0.75907912960375623 #
point $-1 -1 $-1 -0.75907912960375601 -1.2334508502571178 1.4584077361972545 #
loop $-1 -1 $-1 $-1 $377 $245 #
plane-surface $-1 -1 $-1 0 0 -1.4584077361972545 0 0 1 1 0 0 forward_v I I I I #
coedge $-1 -1 $-1 $379 $488 $251 $382 forward $246 $-1 #
coedge $-1 -1 $-1 $383 $489 $248 $378 forward $374 $-1 #
edge $-1 -1 $-1 $490 -1.5707963267948968 $255 -1.2356843753461966e-032 $377 $491 forward @7 unknown #
coedge $-1 -1 $-1 $488 $376 $249 $380 forward $246 $-1 #
edge $-1 -1 $-1 $254 -3.1415926535897931 $490 -1.5707963267948968 $379 $492 forward @7 unknown #
convexity-sys-attrib $-1 -1 $-1 $-1 $250 #
edge $-1 -1 $-1 $493 1.5707963267948968 $254 3.1415926535897931 $376 $492 forward @7 unknown #
coedge $-1 -1 $-1 $489 $377 $252 $384 forward $374 $-1 #
edge $-1 -1 $-1 $255 -1.2356843753461966e-032 $493 1.5707963267948968 $383 $491 forward @7 unknown #
point $-1 -1 $-1 -1.4584077361972547 2.4651903288156613e-032 1.3629483207370707 #
point $-1 -1 $-1 1.3629483207370703 -2.4651903288156608e-032 -1.4584077361972543 #
face $-1 -1 $-1 $494 $269 $41 $-1 $495 forward single #
loop $-1 -1 $-1 $496 $497 $257 #
cone-surface $-1 -1 $-1 0.047729707730090901 0 0.047729707730090901 0.70710678118654757 0 0.70710678118654757 0 -1 0 1 I I 0 -1 1 forward I I I I #
coedge $-1 -1 $-1 $400 $399 $261 $395 reversed $258 $-1 #
coedge $-1 -1 $-1 $393 $259 $498 $499 reversed $161 $-1 #
coedge $-1 -1 $-1 $259 $393 $267 $403 forward $161 $-1 #
coedge $-1 -1 $-1 $392 $391 $260 $394 reversed $161 $-1 #
edge $-1 -1 $-1 $397 2.4750515714857539 $500 3.1415926535897931 $393 $501 forward @7 unknown #
edge $-1 -1 $-1 $500 -3.1415926535897931 $396 -2.4750515714857539 $390 $501 forward @7 unknown #
vertex $-1 -1 $-1 $263 $502 #
vertex $-1 -1 $-1 $403 $503 #
straight-curve $-1 -1 $-1 -0.75907912960376167 3.1472699166463268e-017 1.4584077361972545 -1.5563777420180013e-033 1 0 I I #
coedge $-1 -1 $-1 $390 $264 $268 $404 forward $258 $-1 #
coedge $-1 -1 $-1 $264 $390 $504 $505 reversed $258 $-1 #
vertex $-1 -1 $-1 $499 $506 #
ellipse-curve $-1 -1 $-1 1.4584077361972547 0 1.4584077361972547 1 0 0 0 -4.9303806576313238e-032 -2.821356056934325 0.70710678118654757 I I #
edge $-1 -1 $-1 $397 -2.4750515714857539 $270 -0.66654108210403917 $392 $507 forward @7 unknown #
edge $-1 -1 $-1 $271 0.66654108210403917 $396 2.4750515714857539 $399 $507 forward @7 unknown #
loop $-1 -1 $-1 $-1 $508 $387 #
point $-1 -1 $-1 1.4584077361972547 1.2334508502571175 -0.75907912960375623 #
point $-1 -1 $-1 1.4584077361972547 -1.2334508502571175 -0.75907912960375623 #
model_id-kcp-attrib $-1 -1 $-1 $-1 $274 1 1021323434 1021323434 -1810497535 8 #
face $509 -1 $-1 $422 $418 $11 $-1 $510 forward single #
loop $-1 -1 $-1 $511 $512 $274 #
torus-surface $-1 -1 $-1 4.3720547263146896 0 5.4970547263146896 0.70710678118654757 0 0.70710678118654757 1.9950000000000001 0.025000000000000001 0.70710678118654757 0 -0.70710678118654757 forward_v I I I I #
coedge $-1 -1 $-1 $412 $412 $513 $514 forward $275 $-1 #
coedge $-1 -1 $-1 $413 $413 $277 $414 reversed $515 $-1 #
edge $516 -1 $-1 $517 -3.1415926535897931 $517 3.1415926535897931 $277 $518 forward @7 unknown #
attrib_edge_convexity-kcp-attrib $-1 -1 $519 $-1 $279 1 #
vertex $520 -1 $-1 $279 $521 #
ellipse-curve $-1 -1 $-1 4.3614481245968912 0 5.4864481245968912 0.70710678118654757 0 0.70710678118654757 0.66291260736238822 0 -0.66291260736238822 1 I I #
loop $-1 -1 $-1 $522 $280 $409 #
attrib_edge_convexity-kcp-attrib $-1 -1 $523 $-1 $281 1 #
vertex $-1 -1 $-1 $281 $524 #
ellipse-curve $-1 -1 $-1 4.3473059889731598 0 5.4723059889731598 -0.70710678118654757 0 -0.70710678118654757 1.4106780284671623 0 -1.4106780284671623 1 I I #
face $525 -1 $-1 $293 $515 $11 $-1 $526 reversed single #
convexity-sys-attrib $-1 -1 $-1 $283 $177 #
point $-1 -1 $-1 5.7099007563196365 0 4.1097112216266822 #
convexity-sys-attrib $-1 -1 $-1 $286 $179 #
point $-1 -1 $-1 3.7356586232467968 0 6.2748721856198912 #
model_id-kcp-attrib $-1 -1 $-1 $-1 $292 1 1021323434 1021323434 -1810497535 13 #
model_id-kcp-attrib $-1 -1 $-1 $-1 $293 1 1021323434 1021323434 -1810497535 11 #
cone-surface $-1 -1 $-1 4.3274362884218185 0 5.4524362884218185 0.70710678118654757 0 0.70710678118654757 -0.66291260736238822 0 0.66291260736238822 1 I I 0 1 0.9375 forward I I I I #
plane-surface $-1 -1 $-1 1.4584077361972547 0 0 -1 0 0 0 0 1 forward_v I I I I #
coedge $-1 -1 $-1 $302 $300 $304 $435 reversed $191 $-1 #
edge $-1 -1 $-1 $315 -1.4584077361972545 $437 1.4584077361972545 $314 $527 forward @7 unknown #
vertex $-1 -1 $-1 $435 $528 #
straight-curve $-1 -1 $-1 -1.4584077361972547 -1.9950000000000001 0 0 0 -1 I I #
edge $-1 -1 $-1 $433 -1.9950000000000001 $437 1.9950000000000001 $431 $529 forward @7 unknown #
straight-curve $-1 -1 $-1 0 -1.9950000000000001 -1.4584077361972545 -1 0 0 I I #
vertex $-1 -1 $-1 $307 $530 #
straight-curve $-1 -1 $-1 0 1.9950000000000001 -1.4584077361972545 1 0 0 I I #
point $-1 -1 $-1 1.4584077361972547 1.9950000000000001 -1.4584077361972545 #
point $-1 -1 $-1 1.4584077361972547 -1.9950000000000001 -1.4584077361972545 #
straight-curve $-1 -1 $-1 -1.4584077361972547 0 1.4584077361972545 0 -1 0 I I #
point $-1 -1 $-1 -1.4584077361972547 1.9950000000000001 1.4584077361972545 #
point $-1 -1 $-1 -1.4584077361972547 -1.9950000000000001 1.4584077361972545 #
straight-curve $-1 -1 $-1 1.4584077361972547 -1.9950000000000001 0 0 0 -1 I I #
straight-curve $-1 -1 $-1 1.4584077361972547 1.9950000000000001 0 0 0 -1 I I #
point $-1 -1 $-1 0.93749999999999989 0 0.27099999999999991 #
face $-1 -1 $-1 $460 $462 $35 $-1 $531 forward single #
plane-surface $-1 -1 $-1 -1.4584077361972547 0 0 1 0 0 0 0 -1 forward_v I I I I #
coedge $-1 -1 $-1 $532 $330 $466 $533 forward $214 $-1 #
coedge $-1 -1 $-1 $330 $532 $454 $534 reversed $214 $-1 #
edge $-1 -1 $-1 $341 -1.5707963267948966 $347 1.5707963267948966 $330 $535 forward @7 unknown #
coedge $-1 -1 $-1 $469 $339 $332 $453 forward $462 $-1 #
edge $-1 -1 $-1 $341 -1.4584077361972547 $473 1.4584077361972547 $332 $536 forward @7 unknown #
coedge $-1 -1 $-1 $455 $334 $450 $534 forward $456 $-1 #
coedge $-1 -1 $-1 $334 $454 $335 $352 reversed $456 $-1 #
loop $-1 -1 $-1 $-1 $334 $537 #
coedge $-1 -1 $-1 $336 $335 $532 $538 forward $337 $-1 #
coedge $-1 -1 $-1 $466 $345 $336 $459 reversed $328 $-1 #
edge $-1 -1 $-1 $539 -1.4584077361972547 $229 1.4584077361972547 $458 $540 forward @7 unknown #
face $-1 -1 $-1 $467 $337 $35 $-1 $541 reversed single #
coedge $-1 -1 $-1 $339 $469 $343 $465 forward $462 $-1 #
loop $-1 -1 $-1 $-1 $339 $447 #
ellipse-curve $-1 -1 $-1 1.4584077361972545 0 1.4584077361972545 0 0 -1 2.821356056934325 -4.9303806576313238e-032 0 0.70710678118654757 I I #
point $-1 -1 $-1 1.4584077361972547 1.9950000000000001 1.4584077361972545 #
edge $-1 -1 $-1 $471 -1.4584077361972547 $347 1.4584077361972547 $343 $542 forward @7 unknown #
coedge $-1 -1 $-1 $345 $458 $449 $533 reversed $328 $-1 #
face $-1 -1 $-1 $537 $346 $35 $-1 $329 reversed single #
point $-1 -1 $-1 1.4584077361972547 -1.9950000000000001 1.4584077361972545 #
coedge $-1 -1 $-1 $461 $452 $349 $470 forward $462 $-1 #
edge $-1 -1 $-1 $473 -1.9950000000000001 $471 1.9950000000000001 $349 $543 forward @7 unknown #
vertex $-1 -1 $-1 $470 $544 #
straight-curve $-1 -1 $-1 -1.4584077361972547 -1.9950000000000001 0 0 0 -1 I I #
vertex $-1 -1 $-1 $453 $545 #
straight-curve $-1 -1 $-1 -1.4584077361972547 1.9950000000000001 0 0 0 -1 I I #
vertex $-1 -1 $-1 $538 $546 #
straight-curve $-1 -1 $-1 0 1.9950000000000001 -1.4584077361972545 1 0 0 I I #
coedge $-1 -1 $-1 $357 $360 $366 $485 reversed $232 $-1 #
coedge $-1 -1 $-1 $367 $366 $358 $479 reversed $355 $-1 #
edge $-1 -1 $-1 $480 -1.9950000000000001 $482 1.9950000000000001 $478 $547 forward @7 unknown #
vertex $-1 -1 $-1 $479 $548 #
ellipse-curve $-1 -1 $-1 1.4584077361972545 0 1.4584077361972545 0 0 1 2.821356056934325 -4.9303806576313238e-032 0 0.70710678118654757 I I #
vertex $-1 -1 $-1 $479 $549 #
point $-1 -1 $-1 -0.75907912960375601 1.2334508502571178 1.4584077361972545 #
convexity-sys-attrib $-1 -1 $-1 $-1 $365 #
edge $-1 -1 $-1 $369 0.66654108210403917 $482 1.5707963267948966 $366 $487 forward @7 unknown #
point $-1 -1 $-1 1.4584077361972547 1.2334508502571175 -0.75907912960375623 #
ellipse-curve $-1 -1 $-1 1.4584077361972547 0 1.4584077361972547 1 0 0 0 -4.9303806576313238e-032 -2.821356056934325 0.70710678118654757 I I #
coedge $-1 -1 $-1 $376 $379 $489 $550 reversed $246 $-1 #
coedge $-1 -1 $-1 $377 $383 $488 $550 forward $374 $-1 #
vertex $-1 -1 $-1 $380 $551 #
ellipse-curve $-1 -1 $-1 -1.4584077361972543 0 -1.4584077361972543 0 0 -1 2.821356056934325 -4.9303806576313238e-032 0 0.70710678118654757 I I #
ellipse-curve $-1 -1 $-1 -1.4584077361972547 0 -1.4584077361972547 -1 0 0 0 -4.9303806576313238e-032 -2.821356056934325 0.70710678118654757 I I #
vertex $-1 -1 $-1 $550 $552 #
face $-1 -1 $-1 $-1 $553 $41 $-1 $554 reversed single #
plane-surface $-1 -1 $-1 0.32820105299513641 6.2945398332926535e-017 0.37112755359835675 0.70710678118654746 1.1005252554687357e-033 0.70710678118654757 0.70710678118654757 0 -0.70710678118654746 forward_v I I I I #
loop $-1 -1 $-1 $-1 $555 $257 #
coedge $-1 -1 $-1 $497 $497 $508 $556 forward $388 $-1 #
coedge $-1 -1 $-1 $504 $504 $391 $499 forward $553 $-1 #
edge $557 -1 $-1 $500 -3.1415926535897931 $401 -1.2356843753461964e-032 $391 $558 forward @7 unknown #
vertex $-1 -1 $-1 $499 $559 #
ellipse-curve $-1 -1 $-1 1.4584077361972545 0 1.4584077361972545 0 0 1 2.821356056934325 -4.9303806576313238e-032 0 0.70710678118654757 I I #
point $-1 -1 $-1 -0.75907912960375601 -1.2334508502571178 1.4584077361972545 #
point $-1 -1 $-1 -0.75907912960375601 1.2334508502571178 1.4584077361972545 #
coedge $-1 -1 $-1 $498 $498 $400 $505 forward $553 $-1 #
edge $560 -1 $-1 $401 -1.2356843753461964e-032 $500 3.1415926535897931 $400 $558 forward @7 unknown #
point $-1 -1 $-1 1.4584077361972547 -2.4651903288156635e-032 -1.3629483207370725 #
ellipse-curve $-1 -1 $-1 0.34966430329674658 0 0.34966430329674658 -0.70710678118654757 0 -0.70710678118654757 1.4106780284671625 -4.9303806576313238e-032 -1.4106780284671625 1 I I #
coedge $-1 -1 $-1 $508 $508 $497 $556 reversed $405 $-1 #
model_id-kcp-attrib $-1 -1 $-1 $-1 $409 1 1021323434 1021323434 -1810497535 9 #
cone-surface $-1 -1 $-1 4.3274362884218185 0 5.4524362884218185 0.70710678118654757 0 0.70710678118654757 -1.4106780284671623 0 1.4106780284671623 1 I I 0 1 1.9950000000000001 forward I I I I #
loop $-1 -1 $-1 $-1 $513 $274 #
coedge $-1 -1 $-1 $512 $512 $561 $562 forward $410 $-1 #
coedge $-1 -1 $-1 $513 $513 $412 $514 reversed $511 $-1 #
edge $-1 -1 $-1 $563 -3.1415926535897931 $563 3.1415926535897931 $513 $564 forward @7 unknown #
loop $-1 -1 $-1 $282 $413 $422 #
attrib_edge_convexity-kcp-attrib $-1 -1 $565 $-1 $414 2 #
vertex $-1 -1 $-1 $414 $566 #
ellipse-curve $-1 -1 $-1 4.3614481245968921 0 5.4864481245968921 -0.70710678118654757 0 -0.70710678118654757 1.3380998699186433 0 -1.3380998699186433 1 I I #
convexity-sys-attrib $-1 -1 $-1 $415 $279 #
model_id-kcp-attrib $-1 -1 $-1 $-1 $416 1 1021323434 1021323434 -1810497535 17 #
point $-1 -1 $-1 5.0243607319592796 0 4.8235355172345029 #
loop $-1 -1 $-1 $-1 $561 $409 #
convexity-sys-attrib $-1 -1 $-1 $419 $281 #
point $-1 -1 $-1 2.9366279605059979 0 6.8829840174403225 #
model_id-kcp-attrib $-1 -1 $-1 $-1 $422 1 1021323434 1021323434 -1810497535 10 #
cone-surface $-1 -1 $-1 4.3473059889731598 0 5.4723059889731598 -0.70710678118654757 0 -0.70710678118654757 1.3625947673464769 0 -1.3625947673464769 1 I I 0.86602540378443904 0.499999999999999 1.927 forward I I I I #
straight-curve $-1 -1 $-1 -1.4584077361972547 1.9950000000000001 0 0 0 -1 I I #
point $-1 -1 $-1 -1.4584077361972547 -1.9950000000000001 -1.4584077361972545 #
straight-curve $-1 -1 $-1 -1.4584077361972547 0 -1.4584077361972545 0 1 0 I I #
point $-1 -1 $-1 -1.4584077361972547 1.9950000000000001 -1.4584077361972545 #
plane-surface $-1 -1 $-1 0 0 1.4584077361972545 0 0 1 1 0 0 forward_v I I I I #
coedge $-1 -1 $-1 $450 $449 $457 $538 reversed $214 $-1 #
edge $-1 -1 $-1 $347 -1.4584077361972545 $539 1.4584077361972545 $449 $567 forward @7 unknown #
edge $-1 -1 $-1 $341 -1.4584077361972545 $475 1.4584077361972545 $450 $568 forward @7 unknown #
ellipse-curve $-1 -1 $-1 1.4584077361972547 0 1.4584077361972547 -1 0 0 0 -4.9303806576313238e-032 -2.821356056934325 0.70710678118654757 I I #
straight-curve $-1 -1 $-1 0 1.9950000000000001 1.4584077361972545 -1 0 0 I I #
face $-1 -1 $-1 $-1 $456 $35 $-1 $140 reversed single #
edge $-1 -1 $-1 $475 -1.9950000000000001 $539 1.9950000000000001 $532 $569 forward @7 unknown #
vertex $-1 -1 $-1 $533 $570 #
straight-curve $-1 -1 $-1 0 -1.9950000000000001 -1.4584077361972545 -1 0 0 I I #
plane-surface $-1 -1 $-1 0 0 -1.4584077361972545 0 0 1 1 0 0 forward_v I I I I #
straight-curve $-1 -1 $-1 0 -1.9950000000000001 1.4584077361972545 1 0 0 I I #
straight-curve $-1 -1 $-1 -1.4584077361972547 0 1.4584077361972545 0 -1 0 I I #
point $-1 -1 $-1 -1.4584077361972547 -1.9950000000000001 1.4584077361972545 #
point $-1 -1 $-1 -1.4584077361972547 1.9950000000000001 1.4584077361972545 #
point $-1 -1 $-1 1.4584077361972547 1.9950000000000001 -1.4584077361972545 #
straight-curve $-1 -1 $-1 1.4584077361972547 0 1.4584077361972545 0 1 0 I I #
point $-1 -1 $-1 1.4584077361972547 -1.9950000000000001 1.4584077361972545 #
point $-1 -1 $-1 1.4584077361972547 1.9950000000000001 1.4584077361972545 #
edge $-1 -1 $-1 $493 -1.9950000000000001 $490 1.9950000000000001 $488 $571 forward @7 unknown #
point $-1 -1 $-1 -1.4584077361972547 1.9950000000000001 -1.4584077361972545 #
point $-1 -1 $-1 -1.4584077361972547 -1.9950000000000001 -1.4584077361972545 #
loop $-1 -1 $-1 $572 $504 $494 #
plane-surface $-1 -1 $-1 0.026266457428480723 6.2945398332926535e-017 0.069192958031701057 0.70710678118654746 1.1005252554687357e-033 0.70710678118654757 0.70710678118654757 0 -0.70710678118654746 forward_v I I I I #
coedge $-1 -1 $-1 $555 $555 $573 $574 reversed $496 $-1 #
edge $-1 -1 $-1 $575 0 $575 6.2831853071795862 $497 $576 forward @7 unknown #
convexity-sys-attrib $-1 -1 $-1 $-1 $499 #
ellipse-curve $-1 -1 $-1 0.047729707730090887 0 0.047729707730090887 -0.70710678118654757 0 -0.70710678118654757 1.4106780284671625 -4.9303806576313238e-032 -1.4106780284671625 1 I I #
point $-1 -1 $-1 -1.3629483207370723 2.465190328815663e-032 1.4584077361972545 #
convexity-sys-attrib $-1 -1 $-1 $-1 $505 #
coedge $-1 -1 $-1 $561 $561 $512 $562 reversed $522 $-1 #
edge $-1 -1 $-1 $577 -3.1415926535897931 $577 3.1415926535897931 $561 $578 forward @7 unknown #
vertex $-1 -1 $-1 $514 $579 #
ellipse-curve $-1 -1 $-1 4.3897323958443533 0 5.5147323958443533 0.70710678118654757 0 0.70710678118654757 1.4106780284671623 0 -1.4106780284671623 1 I I #
convexity-sys-attrib $-1 -1 $-1 $516 $414 #
point $-1 -1 $-1 3.0233482546782486 0 6.8245479945155356 #
straight-curve $-1 -1 $-1 1.4584077361972547 -1.9950000000000001 0 0 0 -1 I I #
straight-curve $-1 -1 $-1 1.4584077361972547 1.9950000000000001 0 0 0 -1 I I #
straight-curve $-1 -1 $-1 1.4584077361972547 0 -1.4584077361972545 0 -1 0 I I #
point $-1 -1 $-1 1.4584077361972547 -1.9950000000000001 -1.4584077361972545 #
straight-curve $-1 -1 $-1 -1.4584077361972547 0 -1.4584077361972545 0 1 0 I I #
loop $-1 -1 $-1 $-1 $573 $494 #
coedge $-1 -1 $-1 $573 $573 $555 $574 forward $572 $-1 #
edge $580 -1 $-1 $581 0 $581 6.2831853071795862 $555 $582 forward @7 unknown #
vertex $-1 -1 $-1 $556 $583 #
ellipse-curve $-1 -1 $-1 0.34966430329674658 0 0.34966430329674658 0.70710678118654757 0 0.70710678118654757 -0.70710678118654746 0 0.70710678118654746 1 I I #
vertex $-1 -1 $-1 $562 $584 #
ellipse-curve $-1 -1 $-1 4.354377056785026 0 5.479377056785026 0.70710678118654757 0 0.70710678118654757 1.4106780284671623 0 -1.4106780284671623 1 I I #
point $-1 -1 $-1 2.9790543673771905 0 6.9254104243115151 #
convexity-sys-attrib $-1 -1 $-1 $-1 $574 #
vertex $-1 -1 $-1 $574 $585 #
ellipse-curve $-1 -1 $-1 0.047729707730090901 0 0.047729707730090901 0.70710678118654757 0 0.70710678118654757 -0.70710678118654746 0 0.70710678118654746 1 I I #
point $-1 -1 $-1 -0.35744247788979999 0 1.0567710844832945 #
point $-1 -1 $-1 2.9436990283178632 0 6.8900550852521878 #
point $-1 -1 $-1 -0.65937707345645569 0 0.75483648891663879 #
End-of-ACIS-data 