600 0 1 0           
97 GICL ACIS Healer - Source: /gicl/data5/repository/CMU/spectrometer/bellows_spacer_right.sat - 6 0 18 ACIS 6.0.3 Solaris 24 Sat Apr 13 00:29:13 2002 
1 9.999999999999999547e-07 1.000000000000000036e-10 
body $-1 $1 $-1 $-1 #
lump $-1 $-1 $2 $0 #
shell $-1 $-1 $-1 $3 $-1 $1 #
face $-1 $4 $5 $2 $-1 $6 reversed single #
face $-1 $7 $8 $2 $-1 $9 forward single #
loop $-1 $10 $11 $3 #
cone-surface $-1 4.159199999858051555 2.007460864206223826e-10 5.284200000141948905 0.7071067811865474617 0 0.7071067811865474617 0.7071067811865474617 0 -0.7071067811865474617 1 I I 0 1 1 forward I I I I #
face $-1 $12 $13 $2 $-1 $14 forward single #
loop $-1 $15 $16 $4 #
cone-surface $-1 4.15920000000000023 0 5.28420000000000023 -0.7071067811865474617 0 -0.7071067811865474617 -1.41067802846716206 0 1.41067802846716206 1 I I 0 1 1.994999999999999885 forward I I I I #
loop $-1 $-1 $17 $3 #
coedge $-1 $11 $11 $18 $19 reversed $5 $-1 #
face $-1 $-1 $20 $2 $-1 $21 forward single #
loop $-1 $22 $18 $7 #
plane-surface $-1 4.347290403795621927 0 5.472290403795621927 0.7071067811865474617 0 0.7071067811865474617 0.7071067811865473507 0 -0.7071067811865473507 forward_v I I I I #
loop $-1 $-1 $23 $4 #
coedge $-1 $16 $16 $24 $25 reversed $8 $-1 #
coedge $-1 $17 $17 $26 $27 reversed $10 $-1 #
coedge $-1 $18 $18 $11 $19 forward $13 $-1 #
edge $-1 $28 -3.141592653589799777 $28 3.141592653589786455 $18 $29 forward 7 unknown #
loop $-1 $30 $26 $12 #
plane-surface $-1 3.971109596204378533 0 5.096109596204378533 -0.7071067811865474617 0 -0.7071067811865474617 -0.7071067811865473507 0 0.7071067811865473507 forward_v I I I I #
loop $-1 $-1 $24 $7 #
coedge $-1 $23 $23 $31 $32 reversed $15 $-1 #
coedge $-1 $24 $24 $16 $25 forward $22 $-1 #
edge $-1 $33 0 $33 6.283185307179586232 $24 $34 forward 7 unknown #
coedge $-1 $26 $26 $17 $27 forward $20 $-1 #
edge $-1 $35 -3.141592653589799777 $35 3.141592653589786455 $26 $36 forward 7 unknown #
vertex $-1 $19 $37 #
ellipse-curve $-1 4.347290403653673252 2.007460864206223826e-10 5.472290403937570602 -0.7071067811865474617 0 -0.7071067811865474617 0.7071067811865474617 0 -0.7071067811865474617 1 I I #
loop $-1 $-1 $31 $12 #
coedge $-1 $31 $31 $23 $32 forward $30 $-1 #
edge $-1 $38 0 $38 6.283185307179586232 $31 $39 forward 7 unknown #
vertex $-1 $25 $40 #
ellipse-curve $-1 4.347290403795621927 0 5.472290403795621927 0.7071067811865474617 0 0.7071067811865474617 -1.41067802846716206 0 1.41067802846716206 1 I I #
vertex $-1 $27 $41 #
ellipse-curve $-1 3.971109596062429858 2.007460864206223826e-10 5.096109596346327208 0.7071067811865474617 0 0.7071067811865474617 0.7071067811865474617 0 -0.7071067811865474617 1 I I #
point $-1 3.640183622467125346 2.007391034539001638e-10 6.179397185124118508 #
vertex $-1 $32 $42 #
ellipse-curve $-1 3.971109596204378533 0 5.096109596204378533 -0.7071067811865474617 0 -0.7071067811865474617 -1.41067802846716206 0 1.41067802846716206 1 I I #
point $-1 2.936612375328460089 0 6.882968432262783764 #
point $-1 3.264002814875881953 2.007530693873446013e-10 5.803216377532875114 #
point $-1 2.560431567737216696 0 6.506787624671540371 #
End-of-ACIS-data 