700 0 2 0           
24 FBMach with ACIS - 7.0.3 13 ACIS 7.0.3 NT 24 Mon May 13 16:56:58 2002 
1 9.9999999999999995e-007 1e-010 
body $2 -1 $-1 $3 $-1 $4 #
bdycol-kcp $-1 -1 1 4 $5 $6 $7 $8 #
model_id-kcp-attrib $-1 -1 $-1 $-1 $0 1 1021323417 1021323417 -1959395327 1 #
lump $-1 -1 $-1 $-1 $9 $0 #
transform $-1 -1 1.0000000000000002 0 0 0 1 0 0 0 1.0000000000000002 8.8817841970012523e-016 0 -8.8817841970012523e-016 1 rotate no_reflect no_shear #
body $10 -1 $-1 $11 $-1 $12 #
body $13 -1 $-1 $14 $-1 $15 #
body $16 -1 $-1 $17 $-1 $18 #
body $19 -1 $-1 $20 $-1 $21 #
shell $-1 -1 $-1 $-1 $-1 $22 $-1 $3 #
rgb_color-st-attrib $-1 -1 $23 $-1 $5 0.5 0.5 1 #
lump $-1 -1 $-1 $-1 $24 $5 #
transform $-1 -1 1 0 0 0 1 0 0 0 1 -2.8369 0 3.9619 1 no_rotate no_reflect no_shear #
model_id-kcp-attrib $-1 -1 $-1 $-1 $6 1 1021323417 1021323417 -1959395326 1 #
lump $-1 -1 $-1 $-1 $25 $6 #
transform $-1 -1 1 0 0 0 1 0 0 0 1 -2.8369 0 3.9619 1 no_rotate no_reflect no_shear #
rgb_color-st-attrib $-1 -1 $26 $-1 $7 0.5 0.5 1 #
lump $-1 -1 $-1 $-1 $27 $7 #
transform $-1 -1 1 0 0 0 1 0 0 0 1 -2.8369 0 3.9619 1 no_rotate no_reflect no_shear #
rgb_color-st-attrib $-1 -1 $28 $-1 $8 0.5 1 1 #
lump $-1 -1 $-1 $-1 $29 $8 #
transform $-1 -1 -0.70710678118654757 8.6592745707193554e-017 -0.70710678118654746 -1.2246063538223773e-016 -1 0 -0.70710678118654746 8.6592745707193542e-017 0.70710678118654757 -2.8369000000000004 1.388947208179656e-016 3.9619 1 rotate no_reflect no_shear #
face $30 -1 $-1 $31 $32 $9 $-1 $33 reversed single #
model_id-kcp-attrib $-1 -1 $-1 $10 $5 1 1021323417 1021323417 -1960443900 1 #
shell $-1 -1 $-1 $-1 $-1 $34 $-1 $11 #
shell $-1 -1 $-1 $-1 $-1 $35 $-1 $14 #
model_id-kcp-attrib $-1 -1 $-1 $16 $7 1 1021323417 1021323417 -1959133179 1 #
shell $-1 -1 $-1 $-1 $-1 $36 $-1 $17 #
model_id-kcp-attrib $-1 -1 $-1 $19 $8 1 1021323417 1021323417 -1956118525 1 #
shell $-1 -1 $-1 $-1 $-1 $37 $-1 $20 #
model_id-kcp-attrib $-1 -1 $-1 $-1 $22 1 1021323417 1021323417 -1959395327 2 #
face $38 -1 $-1 $39 $40 $9 $-1 $41 forward single #
loop $-1 -1 $-1 $42 $43 $22 #
plane-surface $-1 -1 $-1 -3.9710989234698317 0 5.0960989234698317 0.70710678118654757 0 -0.70710678118654757 -0.70710678118654746 0 -0.70710678118654746 forward_v I I I I #
face $-1 -1 $-1 $44 $45 $24 $-1 $46 reversed single #
face $-1 -1 $-1 $47 $48 $25 $-1 $49 forward single #
face $-1 -1 $-1 $50 $51 $27 $-1 $52 reversed single #
face $-1 -1 $-1 $53 $54 $29 $-1 $55 forward single #
model_id-kcp-attrib $-1 -1 $-1 $-1 $31 1 1021323417 1021323417 -1959395327 3 #
face $56 -1 $-1 $57 $58 $9 $-1 $59 forward single #
loop $-1 -1 $-1 $60 $61 $31 #
plane-surface $-1 -1 $-1 -1.7027010765301684 0 2.8277010765301682 0.70710678118654757 0 -0.70710678118654757 -0.70710678118654746 0 -0.70710678118654746 forward_v I I I I #
loop $62 -1 $-1 $-1 $63 $22 #
coedge $-1 -1 $-1 $43 $43 $64 $65 forward $32 $-1 #
face $-1 -1 $-1 $66 $67 $24 $-1 $68 forward single #
loop $-1 -1 $-1 $-1 $69 $34 #
plane-surface $-1 -1 $-1 -1.1341989234698318 0 1.1341989234698318 -0.70710678118654757 0 0.70710678118654757 0 -1 0 forward_v I I I I #
face $-1 -1 $-1 $70 $71 $25 $-1 $72 reversed single #
loop $-1 -1 $-1 $-1 $73 $35 #
plane-surface $-1 -1 $-1 0 0 2.5448769519369936 0 0 1 1 0 0 forward_v I I I I #
face $-1 -1 $-1 $74 $75 $27 $-1 $76 forward single #
loop $-1 -1 $-1 $-1 $77 $36 #
plane-surface $-1 -1 $-1 1.1341989234698309 0 -1.1341989234698318 0.70710678118654757 0 -0.70710678118654757 0 1 0 forward_v I I I I #
face $-1 -1 $-1 $78 $79 $29 $-1 $80 forward single #
loop $-1 -1 $-1 $81 $82 $37 #
cone-surface $-1 -1 $-1 0 0 0 0 0 1 1.3 0 0 1 I I 0 1 1.3 forward I I I I #
model_id-kcp-attrib $-1 -1 $-1 $-1 $39 1 1021323417 1021323417 -1959395327 4 #
face $83 -1 $-1 $84 $85 $9 $-1 $86 forward single #
loop $-1 -1 $-1 $87 $64 $39 #
cone-surface $-1 -1 $-1 -3.9710989234698317 0 5.0960989234698317 -0.70710678118654757 0 0.70710678118654757 -1.4106780284671623 0 -1.4106780284671623 1 I I 0.98768834059513799 0.15643446504023101 1.9950000000000001 forward I I I I #
loop $88 -1 $-1 $-1 $89 $31 #
coedge $-1 -1 $-1 $61 $61 $90 $91 forward $40 $-1 #
model_id-kcp-attrib $-1 -1 $-1 $-1 $42 1 1021323417 1021323417 -1959395327 40 #
coedge $-1 -1 $-1 $63 $63 $92 $93 forward $42 $-1 #
coedge $-1 -1 $-1 $64 $64 $43 $65 reversed $58 $-1 #
edge $94 -1 $-1 $95 -3.1415926535897931 $95 3.1415926535897931 $43 $96 forward @7 unknown #
face $-1 -1 $-1 $97 $98 $24 $-1 $68 forward single #
loop $-1 -1 $-1 $-1 $99 $44 #
cone-surface $-1 -1 $-1 -1.1341989234698309 0 1.1341989234698318 -0.70710678118654757 0 0.70710678118654757 1.4106780284671625 0 1.4106780284671625 1 I I 0 1 1.9950000000000001 forward I I I I #
coedge $-1 -1 $-1 $100 $100 $101 $102 forward $45 $-1 #
face $-1 -1 $-1 $103 $104 $25 $-1 $105 reversed single #
loop $-1 -1 $-1 $-1 $106 $47 #
plane-surface $-1 -1 $-1 0 0 -2.5448769519369936 0 0 1 1 0 0 forward_v I I I I #
coedge $-1 -1 $-1 $107 $108 $109 $110 forward $48 $-1 #
face $-1 -1 $-1 $111 $112 $27 $-1 $76 forward single #
loop $-1 -1 $-1 $-1 $113 $50 #
cone-surface $-1 -1 $-1 -1.1341989234698309 0 1.1341989234698318 -0.70710678118654757 0 0.70710678118654757 1.4106780284671625 0 1.4106780284671625 1 I I 0 1 1.9950000000000001 forward I I I I #
coedge $-1 -1 $-1 $114 $114 $115 $116 forward $51 $-1 #
face $-1 -1 $-1 $-1 $117 $29 $-1 $118 forward single #
loop $-1 -1 $-1 $-1 $119 $53 #
plane-surface $-1 -1 $-1 0 0 -1.6039995000000005 0 0 -1 -1 0 0 forward_v I I I I #
loop $-1 -1 $-1 $-1 $120 $37 #
coedge $-1 -1 $-1 $82 $82 $119 $121 reversed $54 $-1 #
model_id-kcp-attrib $-1 -1 $-1 $-1 $57 1 1021323417 1021323417 -1959395327 5 #
face $122 -1 $-1 $123 $124 $9 $-1 $125 forward single #
loop $-1 -1 $-1 $126 $127 $57 #
cone-surface $-1 -1 $-1 -1.7027010765301684 0 2.8277010765301682 0.70710678118654757 0 -0.70710678118654757 -1.4106780284671623 0 -1.4106780284671623 1 I I 0.99580149327870804 0.091538986141947803 1.9950000000000001 forward I I I I #
loop $-1 -1 $-1 $-1 $128 $39 #
model_id-kcp-attrib $-1 -1 $-1 $-1 $60 1 1021323417 1021323417 -1959395327 39 #
coedge $-1 -1 $-1 $89 $89 $129 $130 reversed $60 $-1 #
coedge $-1 -1 $-1 $90 $90 $61 $91 reversed $126 $-1 #
edge $131 -1 $-1 $132 0 $132 6.2831853071795862 $90 $133 forward @7 unknown #
coedge $-1 -1 $-1 $92 $92 $63 $93 reversed $134 $-1 #
edge $135 -1 $-1 $136 -3.1415926535897931 $136 3.1415926535897931 $92 $137 forward @7 unknown #
attrib_edge_convexity-kcp-attrib $-1 -1 $138 $-1 $65 1 #
vertex $-1 -1 $-1 $65 $139 #
ellipse-curve $-1 -1 $-1 -3.9710989234698317 0 5.0960989234698317 -0.70710678118654757 0 0.70710678118654757 -1.4106780284671623 0 -1.4106780284671623 1 I I #
face $-1 -1 $-1 $140 $141 $24 $-1 $142 forward single #
loop $-1 -1 $-1 $-1 $101 $66 #
coedge $-1 -1 $-1 $143 $144 $100 $145 reversed $67 $-1 #
coedge $-1 -1 $-1 $69 $69 $99 $145 forward $45 $-1 #
coedge $-1 -1 $-1 $146 $147 $69 $102 reversed $98 $-1 #
edge $148 -1 $-1 $149 -3.1415926535897931 $150 0 $101 $151 forward @7 unknown #
face $-1 -1 $-1 $152 $153 $25 $-1 $154 reversed single #
loop $-1 -1 $-1 $-1 $155 $70 #
plane-surface $-1 -1 $-1 0 -1.9950000000000001 0 0 1 0 0 0 1 forward_v I I I I #
coedge $-1 -1 $-1 $156 $157 $158 $159 forward $71 $-1 #
coedge $-1 -1 $-1 $160 $73 $161 $162 forward $48 $-1 #
coedge $-1 -1 $-1 $73 $160 $163 $164 forward $48 $-1 #
coedge $-1 -1 $-1 $165 $166 $73 $110 reversed $167 $-1 #
edge $-1 -1 $-1 $168 -1.9950000000000001 $169 1.9950000000000001 $109 $170 forward @7 unknown #
face $-1 -1 $-1 $171 $172 $27 $-1 $173 reversed single #
loop $-1 -1 $-1 $-1 $115 $74 #
coedge $-1 -1 $-1 $174 $175 $114 $176 reversed $75 $-1 #
coedge $-1 -1 $-1 $77 $77 $113 $176 forward $51 $-1 #
coedge $-1 -1 $-1 $177 $178 $77 $116 reversed $112 $-1 #
edge $179 -1 $-1 $180 -3.1415926535897931 $181 0 $115 $182 forward @7 unknown #
loop $-1 -1 $-1 $-1 $183 $78 #
plane-surface $-1 -1 $-1 0 0 1.6039995000000005 0 0 1 1 0 0 forward_v I I I I #
coedge $-1 -1 $-1 $119 $119 $82 $121 forward $79 $-1 #
coedge $-1 -1 $-1 $120 $120 $183 $184 reversed $81 $-1 #
edge $-1 -1 $-1 $185 0 $185 6.2831853071795862 $119 $186 forward @7 unknown #
model_id-kcp-attrib $-1 -1 $-1 $-1 $84 1 1021323417 1021323417 -1959395327 6 #
face $187 -1 $-1 $188 $189 $9 $-1 $190 forward single #
loop $-1 -1 $-1 $191 $192 $84 #
cone-surface $-1 -1 $-1 -1.8177481227299677 0 2.9427481227299674 -0.70710678118654757 0 0.70710678118654757 -1.4106780284671623 0 -1.4106780284671623 1 I I 0.98768834059513799 0.15643446504023101 1.9950000000000001 forward I I I I #
loop $-1 -1 $-1 $-1 $90 $57 #
coedge $-1 -1 $-1 $127 $127 $193 $194 forward $85 $-1 #
coedge $-1 -1 $-1 $128 $128 $195 $196 forward $87 $-1 #
coedge $-1 -1 $-1 $129 $129 $89 $130 forward $197 $-1 #
edge $198 -1 $-1 $199 0 $199 6.2831853071795862 $129 $200 forward @7 unknown #
attrib_edge_convexity-kcp-attrib $-1 -1 $201 $-1 $91 1 #
vertex $-1 -1 $-1 $91 $202 #
ellipse-curve $-1 -1 $-1 -1.7027010765301684 0 2.8277010765301682 0.70710678118654757 0 -0.70710678118654757 -1.4106780284671623 0 -1.4106780284671623 1 I I #
loop $203 -1 $-1 $-1 $92 $204 #
attrib_edge_convexity-kcp-attrib $-1 -1 $205 $-1 $93 1 #
vertex $206 -1 $-1 $93 $207 #
ellipse-curve $-1 -1 $-1 -3.9710989234698317 0 5.0960989234698317 0.70710678118654757 0 -0.70710678118654757 -0.91923881554251174 0 -0.91923881554251174 1 I I #
convexity-sys-attrib $-1 -1 $-1 $94 $65 #
point $-1 -1 $-1 -2.560420895002669 0 6.5067769519369936 #
face $-1 -1 $-1 $-1 $208 $24 $-1 $209 reversed single #
loop $-1 -1 $-1 $-1 $210 $97 #
plane-surface $-1 -1 $-1 0 0 2.5448769519369936 0 0 1 1 0 0 forward_v I I I I #
coedge $-1 -1 $-1 $144 $99 $210 $211 reversed $67 $-1 #
coedge $-1 -1 $-1 $99 $143 $212 $213 reversed $67 $-1 #
edge $214 -1 $-1 $150 0 $149 3.1415926535897931 $99 $151 forward @7 unknown #
coedge $-1 -1 $-1 $147 $101 $215 $216 reversed $98 $-1 #
coedge $-1 -1 $-1 $101 $146 $217 $218 reversed $98 $-1 #
convexity-sys-attrib $-1 -1 $-1 $-1 $102 #
vertex $-1 -1 $-1 $213 $219 #
vertex $-1 -1 $-1 $218 $220 #
ellipse-curve $-1 -1 $-1 -1.1341989234698313 0 1.1341989234698322 0.70710678118654757 0 -0.70710678118654757 1.4106780284671625 0 1.4106780284671625 1 I I #
face $-1 -1 $-1 $221 $222 $25 $-1 $223 reversed single #
loop $-1 -1 $-1 $-1 $224 $103 #
plane-surface $-1 -1 $-1 -2.5448769519369936 0 0 1 0 0 0 0 -1 forward_v I I I I #
coedge $-1 -1 $-1 $225 $163 $226 $227 forward $104 $-1 #
coedge $-1 -1 $-1 $228 $106 $225 $229 forward $71 $-1 #
coedge $-1 -1 $-1 $106 $228 $230 $231 forward $71 $-1 #
coedge $-1 -1 $-1 $166 $165 $106 $159 reversed $167 $-1 #
edge $-1 -1 $-1 $232 -1.9950000000000001 $233 1.9950000000000001 $158 $234 forward @7 unknown #
coedge $-1 -1 $-1 $108 $107 $235 $236 forward $48 $-1 #
coedge $-1 -1 $-1 $237 $238 $107 $162 reversed $222 $-1 #
edge $-1 -1 $-1 $169 -2.5448769519369936 $239 2.5448769519369936 $161 $240 forward @7 unknown #
coedge $-1 -1 $-1 $155 $241 $108 $164 reversed $104 $-1 #
edge $-1 -1 $-1 $242 -2.5448769519369936 $168 2.5448769519369936 $163 $243 forward @7 unknown #
coedge $-1 -1 $-1 $158 $109 $241 $244 forward $167 $-1 #
coedge $-1 -1 $-1 $109 $158 $237 $245 reversed $167 $-1 #
loop $-1 -1 $-1 $-1 $165 $221 #
vertex $-1 -1 $-1 $110 $246 #
vertex $-1 -1 $-1 $110 $247 #
straight-curve $-1 -1 $-1 2.5448769519369936 0 2.5448769519369936 0 1 0 I I #
face $-1 -1 $-1 $-1 $248 $27 $-1 $249 reversed single #
loop $-1 -1 $-1 $-1 $250 $111 #
plane-surface $-1 -1 $-1 2.5448769519369936 0 0 -1 0 0 0 0 1 forward_v I I I I #
coedge $-1 -1 $-1 $175 $113 $250 $251 reversed $75 $-1 #
coedge $-1 -1 $-1 $113 $174 $252 $253 reversed $75 $-1 #
edge $254 -1 $-1 $181 0 $180 3.1415926535897931 $113 $182 forward @7 unknown #
coedge $-1 -1 $-1 $178 $115 $255 $256 reversed $112 $-1 #
coedge $-1 -1 $-1 $115 $177 $257 $258 reversed $112 $-1 #
convexity-sys-attrib $-1 -1 $-1 $-1 $116 #
vertex $-1 -1 $-1 $253 $259 #
vertex $-1 -1 $-1 $258 $260 #
ellipse-curve $-1 -1 $-1 1.1341989234698318 0 -1.1341989234698309 -0.70710678118654757 0 0.70710678118654757 1.4106780284671625 0 1.4106780284671625 1 I I #
coedge $-1 -1 $-1 $183 $183 $120 $184 forward $117 $-1 #
edge $-1 -1 $-1 $261 0 $261 6.2831853071795862 $183 $262 forward @7 unknown #
vertex $-1 -1 $-1 $121 $263 #
ellipse-curve $-1 -1 $-1 0 0 -1.6039995000000005 0 0 -1 1.3 0 0 1 I I #
model_id-kcp-attrib $-1 -1 $-1 $-1 $123 1 1021323417 1021323417 -1959395327 7 #
face $264 -1 $-1 $265 $266 $9 $-1 $267 forward single #
loop $-1 -1 $-1 $268 $269 $123 #
cone-surface $-1 -1 $-1 -1.8177481227299677 0 2.9427481227299674 0.70710678118654757 0 -0.70710678118654757 -1.4106780284671623 0 -1.4106780284671623 1 I I 0.98768834059513799 0.15643446504023101 1.9950000000000001 forward I I I I #
loop $-1 -1 $-1 $-1 $193 $84 #
coedge $-1 -1 $-1 $192 $192 $270 $271 forward $124 $-1 #
coedge $-1 -1 $-1 $193 $193 $127 $194 reversed $191 $-1 #
edge $-1 -1 $-1 $272 -3.1415926535897931 $272 3.1415926535897931 $193 $273 forward @7 unknown #
coedge $-1 -1 $-1 $195 $195 $128 $196 reversed $274 $-1 #
edge $-1 -1 $-1 $275 -3.1415926535897931 $275 3.1415926535897931 $195 $276 forward @7 unknown #
loop $277 -1 $-1 $134 $129 $204 #
attrib_edge_convexity-kcp-attrib $-1 -1 $278 $-1 $130 1 #
vertex $279 -1 $-1 $130 $280 #
ellipse-curve $-1 -1 $-1 -1.7027010765301684 0 2.8277010765301682 0.70710678118654757 0 -0.70710678118654757 0.91923881554251174 0 0.91923881554251174 1 I I #
convexity-sys-attrib $-1 -1 $-1 $131 $91 #
point $-1 -1 $-1 -3.1133791049973309 0 1.4170230480630064 #
model_id-kcp-attrib $-1 -1 $-1 $-1 $134 1 1021323417 1021323417 -1959395327 38 #
face $281 -1 $-1 $-1 $197 $9 $-1 $282 reversed single #
convexity-sys-attrib $-1 -1 $-1 $135 $93 #
model_id-kcp-attrib $-1 -1 $-1 $-1 $136 1 1021323417 1021323417 -1959395327 42 #
point $-1 -1 $-1 -3.05186010792732 0 6.0153377390123435 #
loop $-1 -1 $-1 $-1 $215 $140 #
plane-surface $-1 -1 $-1 -2.5448769519369936 0 0 1 0 0 0 0 -1 forward_v I I I I #
coedge $-1 -1 $-1 $217 $283 $143 $211 forward $141 $-1 #
edge $-1 -1 $-1 $284 -1.570796326794897 $150 0 $210 $285 forward @7 unknown #
coedge $-1 -1 $-1 $286 $215 $144 $213 forward $208 $-1 #
edge $-1 -1 $-1 $149 -3.1415926535897931 $284 -1.570796326794897 $212 $287 forward @7 unknown #
convexity-sys-attrib $-1 -1 $-1 $-1 $145 #
coedge $-1 -1 $-1 $212 $286 $146 $216 forward $208 $-1 #
edge $-1 -1 $-1 $288 1.570796326794897 $149 3.1415926535897931 $215 $287 forward @7 unknown #
coedge $-1 -1 $-1 $283 $210 $147 $218 forward $141 $-1 #
edge $-1 -1 $-1 $150 0 $288 1.570796326794897 $217 $285 forward @7 unknown #
point $-1 -1 $-1 -2.5448769519369936 0 -0.27647910499732964 #
point $-1 -1 $-1 0.27647910499732964 0 2.5448769519369936 #
face $-1 -1 $-1 $-1 $167 $25 $-1 $289 reversed single #
loop $-1 -1 $-1 $-1 $237 $152 #
plane-surface $-1 -1 $-1 0 1.9950000000000001 0 0 -1 0 0 0 -1 forward_v I I I I #
coedge $-1 -1 $-1 $290 $235 $238 $291 forward $153 $-1 #
coedge $-1 -1 $-1 $241 $155 $156 $229 reversed $104 $-1 #
coedge $-1 -1 $-1 $235 $290 $155 $227 reversed $153 $-1 #
edge $-1 -1 $-1 $242 -2.5448769519369936 $292 2.5448769519369936 $226 $293 forward @7 unknown #
coedge $-1 -1 $-1 $157 $156 $290 $294 forward $71 $-1 #
edge $-1 -1 $-1 $233 -2.5448769519369936 $292 2.5448769519369936 $225 $295 forward @7 unknown #
coedge $-1 -1 $-1 $238 $237 $157 $231 reversed $222 $-1 #
edge $-1 -1 $-1 $296 -2.5448769519369936 $232 2.5448769519369936 $230 $297 forward @7 unknown #
vertex $-1 -1 $-1 $159 $298 #
vertex $-1 -1 $-1 $244 $299 #
straight-curve $-1 -1 $-1 2.5448769519369936 0 -2.5448769519369936 0 -1 0 I I #
coedge $-1 -1 $-1 $224 $226 $160 $236 reversed $153 $-1 #
edge $-1 -1 $-1 $239 -1.9950000000000001 $242 1.9950000000000001 $235 $300 forward @7 unknown #
coedge $-1 -1 $-1 $230 $161 $166 $245 forward $222 $-1 #
coedge $-1 -1 $-1 $161 $230 $224 $291 reversed $222 $-1 #
vertex $-1 -1 $-1 $162 $301 #
straight-curve $-1 -1 $-1 0 1.9950000000000001 2.5448769519369936 -1 0 0 I I #
coedge $-1 -1 $-1 $163 $225 $165 $244 reversed $104 $-1 #
vertex $-1 -1 $-1 $236 $302 #
straight-curve $-1 -1 $-1 0 -1.9950000000000001 2.5448769519369936 1 0 0 I I #
edge $-1 -1 $-1 $168 -2.5448769519369936 $233 2.5448769519369936 $165 $303 forward @7 unknown #
edge $-1 -1 $-1 $169 -2.5448769519369936 $232 2.5448769519369936 $166 $304 forward @7 unknown #
point $-1 -1 $-1 2.5448769519369936 -1.9950000000000001 2.5448769519369936 #
point $-1 -1 $-1 2.5448769519369936 1.9950000000000001 2.5448769519369936 #
loop $-1 -1 $-1 $-1 $255 $171 #
plane-surface $-1 -1 $-1 0 0 -2.5448769519369936 0 0 1 1 0 0 forward_v I I I I #
coedge $-1 -1 $-1 $257 $305 $174 $251 forward $172 $-1 #
edge $-1 -1 $-1 $306 -1.5707963267948968 $181 0 $250 $307 forward @7 unknown #
coedge $-1 -1 $-1 $308 $255 $175 $253 forward $248 $-1 #
edge $-1 -1 $-1 $180 -3.1415926535897931 $306 -1.570796326794897 $252 $309 forward @7 unknown #
convexity-sys-attrib $-1 -1 $-1 $-1 $176 #
coedge $-1 -1 $-1 $252 $308 $177 $256 forward $248 $-1 #
edge $-1 -1 $-1 $310 1.570796326794897 $180 3.1415926535897931 $255 $309 forward @7 unknown #
coedge $-1 -1 $-1 $305 $250 $178 $258 forward $172 $-1 #
edge $-1 -1 $-1 $181 0 $310 1.5707963267948968 $257 $307 forward @7 unknown #
point $-1 -1 $-1 -0.27647910499733097 0 -2.5448769519369936 #
point $-1 -1 $-1 2.544876951936994 0 0.27647910499733142 #
vertex $-1 -1 $-1 $184 $311 #
ellipse-curve $-1 -1 $-1 0 0 1.6039995000000005 0 0 1 1.3 0 0 1 I I #
point $-1 -1 $-1 1.3 0 -1.6039995000000005 #
model_id-kcp-attrib $-1 -1 $-1 $-1 $188 1 1021323417 1021323417 -1959395327 8 #
face $312 -1 $-1 $313 $314 $9 $-1 $315 forward single #
loop $-1 -1 $-1 $316 $317 $188 #
cone-surface $-1 -1 $-1 -1.96334124805426 0 3.08834124805426 -0.70710678118654757 0 0.70710678118654757 -1.4106780284671623 0 -1.4106780284671623 1 I I 0.98768834059513799 0.15643446504023201 1.9950000000000001 forward I I I I #
loop $-1 -1 $-1 $-1 $270 $123 #
coedge $-1 -1 $-1 $269 $269 $318 $319 forward $189 $-1 #
coedge $-1 -1 $-1 $270 $270 $192 $271 reversed $268 $-1 #
edge $-1 -1 $-1 $320 -3.1415926535897931 $320 3.1415926535897931 $270 $321 forward @7 unknown #
vertex $-1 -1 $-1 $194 $322 #
ellipse-curve $-1 -1 $-1 -1.7449515600678214 0 2.8699515600678214 0.70710678118654757 0 -0.70710678118654757 -0.9510586206959063 0 -0.9510586206959063 1 I I #
loop $-1 -1 $-1 $323 $195 $324 #
vertex $-1 -1 $-1 $196 $325 #
ellipse-curve $-1 -1 $-1 -3.8983023608076852 0 5.0233023608076852 -0.70710678118654757 0 0.70710678118654757 -0.9510586206959063 0 -0.9510586206959063 1 I I #
model_id-kcp-attrib $-1 -1 $-1 $-1 $197 1 1021323417 1021323417 -1959395327 37 #
convexity-sys-attrib $-1 -1 $-1 $198 $130 #
model_id-kcp-attrib $-1 -1 $-1 $-1 $199 1 1021323417 1021323417 -1959395327 41 #
point $-1 -1 $-1 -0.78346226098765648 0 3.74693989207268 #
model_id-kcp-attrib $-1 -1 $-1 $-1 $204 1 1021323417 1021323417 -1959395327 36 #
cone-surface $-1 -1 $-1 -1.7027010765301684 0 2.8277010765301682 -0.70710678118654757 0 0.70710678118654757 0.91923881554251174 0 0.91923881554251174 1 I I 0 1 1.3 forward I I I I #
coedge $-1 -1 $-1 $210 $217 $286 $326 forward $141 $-1 #
vertex $-1 -1 $-1 $326 $327 #
ellipse-curve $-1 -1 $-1 -2.5448769519369927 0 2.5448769519369936 0 0 1 2.821356056934325 0 0 0.70710678118654757 I I #
coedge $-1 -1 $-1 $215 $212 $283 $326 reversed $208 $-1 #
ellipse-curve $-1 -1 $-1 -2.5448769519369936 0 2.5448769519369945 -1 0 0 0 0 2.821356056934325 0.70710678118654757 I I #
vertex $-1 -1 $-1 $216 $328 #
plane-surface $-1 -1 $-1 2.5448769519369936 0 0 -1 0 0 0 0 1 forward_v I I I I #
coedge $-1 -1 $-1 $226 $224 $228 $294 reversed $153 $-1 #
edge $-1 -1 $-1 $239 -2.5448769519369936 $296 2.5448769519369936 $238 $329 forward @7 unknown #
vertex $-1 -1 $-1 $294 $330 #
straight-curve $-1 -1 $-1 -2.5448769519369936 -1.9950000000000001 0 0 0 -1 I I #
edge $-1 -1 $-1 $292 -1.9950000000000001 $296 1.9950000000000001 $290 $331 forward @7 unknown #
straight-curve $-1 -1 $-1 0 -1.9950000000000001 -2.5448769519369936 -1 0 0 I I #
vertex $-1 -1 $-1 $231 $332 #
straight-curve $-1 -1 $-1 0 1.9950000000000001 -2.5448769519369936 1 0 0 I I #
point $-1 -1 $-1 2.5448769519369936 1.9950000000000001 -2.5448769519369936 #
point $-1 -1 $-1 2.5448769519369936 -1.9950000000000001 -2.5448769519369936 #
straight-curve $-1 -1 $-1 -2.5448769519369936 0 2.5448769519369936 0 -1 0 I I #
point $-1 -1 $-1 -2.5448769519369936 1.9950000000000001 2.5448769519369936 #
point $-1 -1 $-1 -2.5448769519369936 -1.9950000000000001 2.5448769519369936 #
straight-curve $-1 -1 $-1 2.5448769519369936 -1.9950000000000001 0 0 0 -1 I I #
straight-curve $-1 -1 $-1 2.5448769519369936 1.9950000000000001 0 0 0 -1 I I #
coedge $-1 -1 $-1 $250 $257 $308 $333 reversed $172 $-1 #
vertex $-1 -1 $-1 $333 $334 #
ellipse-curve $-1 -1 $-1 2.544876951936994 0 -2.5448769519369931 1 0 0 0 0 2.821356056934325 0.70710678118654757 I I #
coedge $-1 -1 $-1 $255 $252 $305 $333 forward $248 $-1 #
ellipse-curve $-1 -1 $-1 2.5448769519369945 0 -2.5448769519369936 0 0 -1 2.821356056934325 0 0 0.70710678118654757 I I #
vertex $-1 -1 $-1 $258 $335 #
point $-1 -1 $-1 1.3 0 1.6039995000000005 #
model_id-kcp-attrib $-1 -1 $-1 $-1 $265 1 1021323417 1021323417 -1959395327 9 #
face $336 -1 $-1 $337 $338 $9 $-1 $339 forward single #
loop $-1 -1 $-1 $340 $341 $265 #
cone-surface $-1 -1 $-1 -1.96334124805426 0 3.08834124805426 0.70710678118654757 0 -0.70710678118654757 -1.4106780284671623 0 -1.4106780284671623 1 I I 0.98768834059513799 0.15643446504023201 1.9950000000000001 forward I I I I #
loop $-1 -1 $-1 $-1 $318 $188 #
coedge $-1 -1 $-1 $317 $317 $342 $343 forward $266 $-1 #
coedge $-1 -1 $-1 $318 $318 $269 $319 reversed $316 $-1 #
edge $-1 -1 $-1 $344 -3.1415926535897931 $344 3.1415926535897931 $318 $345 forward @7 unknown #
vertex $-1 -1 $-1 $271 $346 #
ellipse-curve $-1 -1 $-1 -1.8177481227299677 0 2.9427481227299674 0.70710678118654757 0 -0.70710678118654757 -1.4106780284671623 0 -1.4106780284671623 1 I I #
point $-1 -1 $-1 -0.79389293937191496 0 3.8210101807637278 #
loop $-1 -1 $-1 $-1 $347 $324 #
face $348 -1 $-1 $204 $274 $9 $-1 $349 forward single #
point $-1 -1 $-1 -2.9472437401117793 0 5.9743609815035921 #
edge $-1 -1 $-1 $288 -1.9950000000000001 $284 1.9950000000000001 $286 $350 forward @7 unknown #
point $-1 -1 $-1 -2.5448769519369936 -1.9950000000000001 2.5448769519369936 #
point $-1 -1 $-1 -2.5448769519369936 1.9950000000000001 2.5448769519369936 #
straight-curve $-1 -1 $-1 -2.5448769519369936 1.9950000000000001 0 0 0 -1 I I #
point $-1 -1 $-1 -2.5448769519369936 -1.9950000000000001 -2.5448769519369936 #
straight-curve $-1 -1 $-1 -2.5448769519369936 0 -2.5448769519369936 0 1 0 I I #
point $-1 -1 $-1 -2.5448769519369936 1.9950000000000001 -2.5448769519369936 #
edge $-1 -1 $-1 $306 -1.9950000000000001 $310 1.9950000000000001 $305 $351 forward @7 unknown #
point $-1 -1 $-1 2.5448769519369936 1.9950000000000001 -2.5448769519369936 #
point $-1 -1 $-1 2.5448769519369936 -1.9950000000000001 -2.5448769519369936 #
model_id-kcp-attrib $-1 -1 $-1 $-1 $313 1 1021323417 1021323417 -1959395327 10 #
face $352 -1 $-1 $353 $354 $9 $-1 $355 forward single #
loop $-1 -1 $-1 $356 $357 $313 #
cone-surface $-1 -1 $-1 -2.1089343733785451 0 3.2339343733785451 -0.70710678118654757 0 0.70710678118654757 -1.4106780284671623 0 -1.4106780284671623 1 I I 0.98768834059513799 0.15643446504023101 1.9950000000000001 forward I I I I #
loop $-1 -1 $-1 $-1 $342 $265 #
coedge $-1 -1 $-1 $341 $341 $358 $359 forward $314 $-1 #
coedge $-1 -1 $-1 $342 $342 $317 $343 reversed $340 $-1 #
edge $-1 -1 $-1 $360 -3.1415926535897931 $360 3.1415926535897931 $342 $361 forward @7 unknown #
vertex $-1 -1 $-1 $319 $362 #
ellipse-curve $-1 -1 $-1 -1.8905446853921137 0 3.015544685392114 0.70710678118654757 0 -0.70710678118654757 -0.9510586206959063 0 -0.9510586206959063 1 I I #
point $-1 -1 $-1 -0.4070700942628056 0 4.3534261511971302 #
coedge $-1 -1 $-1 $347 $347 $363 $364 reversed $323 $-1 #
model_id-kcp-attrib $-1 -1 $-1 $-1 $324 1 1021323417 1021323417 -1959395327 35 #
cone-surface $-1 -1 $-1 -3.8255057981455391 0 4.9505057981455387 0.70710678118654757 0 -0.70710678118654757 -1.4106780284671623 0 -1.4106780284671623 1 I I 0.98768834059513799 0.15643446504023101 1.9950000000000001 forward I I I I #
straight-curve $-1 -1 $-1 -2.5448769519369936 0 2.5448769519369936 0 -1 0 I I #
straight-curve $-1 -1 $-1 2.5448769519369936 0 -2.5448769519369936 0 -1 0 I I #
model_id-kcp-attrib $-1 -1 $-1 $-1 $337 1 1021323417 1021323417 -1959395327 11 #
face $365 -1 $-1 $366 $367 $9 $-1 $368 forward single #
loop $-1 -1 $-1 $369 $370 $337 #
cone-surface $-1 -1 $-1 -2.1089343733785451 0 3.2339343733785451 0.70710678118654757 0 -0.70710678118654757 -1.4106780284671623 0 -1.4106780284671623 1 I I 0.98768834059513799 0.15643446504023101 1.9950000000000001 forward I I I I #
loop $-1 -1 $-1 $-1 $358 $313 #
coedge $-1 -1 $-1 $357 $357 $371 $372 forward $338 $-1 #
coedge $-1 -1 $-1 $358 $358 $341 $359 reversed $356 $-1 #
edge $-1 -1 $-1 $373 -3.1415926535897931 $373 3.1415926535897931 $358 $374 forward @7 unknown #
vertex $-1 -1 $-1 $343 $375 #
ellipse-curve $-1 -1 $-1 -1.96334124805426 0 3.08834124805426 0.70710678118654757 0 -0.70710678118654757 -1.4106780284671623 0 -1.4106780284671623 1 I I #
point $-1 -1 $-1 -0.93948606469620755 0 3.9666033060880199 #
coedge $-1 -1 $-1 $363 $363 $347 $364 forward $376 $-1 #
edge $-1 -1 $-1 $377 -3.1415926535897931 $377 3.1415926535897931 $347 $378 forward @7 unknown #
model_id-kcp-attrib $-1 -1 $-1 $-1 $353 1 1021323417 1021323417 -1959395327 12 #
face $379 -1 $-1 $380 $381 $9 $-1 $382 forward single #
loop $-1 -1 $-1 $383 $384 $353 #
cone-surface $-1 -1 $-1 -2.2545274987028385 0 3.3795274987028385 -0.70710678118654757 0 0.70710678118654757 -1.4106780284671623 0 -1.4106780284671623 1 I I 0.98768834059513799 0.15643446504023201 1.9950000000000001 forward I I I I #
loop $-1 -1 $-1 $-1 $371 $337 #
coedge $-1 -1 $-1 $370 $370 $385 $386 forward $354 $-1 #
coedge $-1 -1 $-1 $371 $371 $357 $372 reversed $369 $-1 #
edge $-1 -1 $-1 $387 -3.1415926535897931 $387 3.1415926535897931 $371 $388 forward @7 unknown #
vertex $-1 -1 $-1 $359 $389 #
ellipse-curve $-1 -1 $-1 -2.036137810716399 0 3.161137810716399 0.70710678118654757 0 -0.70710678118654757 -0.9510586206959063 0 -0.9510586206959063 1 I I #
point $-1 -1 $-1 -0.55266321958709774 0 4.4990192765214223 #
loop $-1 -1 $-1 $390 $363 $391 #
vertex $-1 -1 $-1 $364 $392 #
ellipse-curve $-1 -1 $-1 -3.8255057981455391 0 4.9505057981455387 0.70710678118654757 0 -0.70710678118654757 -1.4106780284671623 0 -1.4106780284671623 1 I I #
model_id-kcp-attrib $-1 -1 $-1 $-1 $366 1 1021323417 1021323417 -1959395327 13 #
face $393 -1 $-1 $394 $395 $9 $-1 $396 forward single #
loop $-1 -1 $-1 $397 $398 $366 #
cone-surface $-1 -1 $-1 -2.2545274987028385 0 3.3795274987028385 0.70710678118654757 0 -0.70710678118654757 -1.4106780284671623 0 -1.4106780284671623 1 I I 0.98768834059513799 0.15643446504023201 1.9950000000000001 forward I I I I #
loop $-1 -1 $-1 $-1 $385 $353 #
coedge $-1 -1 $-1 $384 $384 $399 $400 forward $367 $-1 #
coedge $-1 -1 $-1 $385 $385 $370 $386 reversed $383 $-1 #
edge $-1 -1 $-1 $401 -3.1415926535897931 $401 3.1415926535897931 $385 $402 forward @7 unknown #
vertex $-1 -1 $-1 $372 $403 #
ellipse-curve $-1 -1 $-1 -2.1089343733785451 0 3.2339343733785451 0.70710678118654757 0 -0.70710678118654757 -1.4106780284671623 0 -1.4106780284671623 1 I I #
point $-1 -1 $-1 -1.0850791900204928 0 4.1121964314123058 #
loop $-1 -1 $-1 $-1 $404 $391 #
face $405 -1 $-1 $324 $376 $9 $-1 $406 forward single #
point $-1 -1 $-1 -2.4148277696783769 0 6.3611838266127014 #
model_id-kcp-attrib $-1 -1 $-1 $-1 $380 1 1021323417 1021323417 -1959395327 14 #
face $407 -1 $-1 $408 $409 $9 $-1 $410 forward single #
loop $-1 -1 $-1 $411 $412 $380 #
cone-surface $-1 -1 $-1 -2.4001206240271293 0 3.5251206240271293 -0.70710678118654757 0 0.70710678118654757 -1.4106780284671623 0 -1.4106780284671623 1 I I 0.98768834059513799 0.15643446504023101 1.9950000000000001 forward I I I I #
loop $-1 -1 $-1 $-1 $399 $366 #
coedge $-1 -1 $-1 $398 $398 $413 $414 forward $381 $-1 #
coedge $-1 -1 $-1 $399 $399 $384 $400 reversed $397 $-1 #
edge $-1 -1 $-1 $415 -3.1415926535897931 $415 3.1415926535897931 $399 $416 forward @7 unknown #
vertex $-1 -1 $-1 $386 $417 #
ellipse-curve $-1 -1 $-1 -2.1817309360406938 0 3.3067309360406938 0.70710678118654757 0 -0.70710678118654757 -0.9510586206959063 0 -0.9510586206959063 1 I I #
point $-1 -1 $-1 -0.69825634491138278 0 4.6446124018457073 #
coedge $-1 -1 $-1 $404 $404 $418 $419 reversed $390 $-1 #
model_id-kcp-attrib $-1 -1 $-1 $-1 $391 1 1021323417 1021323417 -1959395327 34 #
cone-surface $-1 -1 $-1 -3.8255057981455391 0 4.9505057981455387 -0.70710678118654757 0 0.70710678118654757 -1.4106780284671623 0 -1.4106780284671623 1 I I 0.98768834059513799 0.15643446504023101 1.9950000000000001 forward I I I I #
model_id-kcp-attrib $-1 -1 $-1 $-1 $394 1 1021323417 1021323417 -1959395327 15 #
face $420 -1 $-1 $421 $422 $9 $-1 $423 forward single #
loop $-1 -1 $-1 $424 $425 $394 #
cone-surface $-1 -1 $-1 -2.4001206240271293 0 3.5251206240271293 0.70710678118654757 0 -0.70710678118654757 -1.4106780284671623 0 -1.4106780284671623 1 I I 0.98768834059513799 0.15643446504023101 1.9950000000000001 forward I I I I #
loop $-1 -1 $-1 $-1 $413 $380 #
coedge $-1 -1 $-1 $412 $412 $426 $427 forward $395 $-1 #
coedge $-1 -1 $-1 $413 $413 $398 $414 reversed $411 $-1 #
edge $-1 -1 $-1 $428 -3.1415926535897931 $428 3.1415926535897931 $413 $429 forward @7 unknown #
vertex $-1 -1 $-1 $400 $430 #
ellipse-curve $-1 -1 $-1 -2.2545274987028385 0 3.3795274987028385 0.70710678118654757 0 -0.70710678118654757 -1.4106780284671623 0 -1.4106780284671623 1 I I #
point $-1 -1 $-1 -1.2306723153447874 0 4.2577895567365998 #
coedge $-1 -1 $-1 $418 $418 $404 $419 forward $431 $-1 #
edge $-1 -1 $-1 $432 -3.1415926535897931 $432 3.1415926535897931 $404 $433 forward @7 unknown #
model_id-kcp-attrib $-1 -1 $-1 $-1 $408 1 1021323417 1021323417 -1959395327 16 #
face $434 -1 $-1 $435 $436 $9 $-1 $437 forward single #
loop $-1 -1 $-1 $438 $439 $408 #
cone-surface $-1 -1 $-1 -2.5457137493514188 0 3.6707137493514188 -0.70710678118654757 0 0.70710678118654757 -1.4106780284671623 0 -1.4106780284671623 1 I I 0.98768834059513799 0.15643446504023201 1.9950000000000001 forward I I I I #
loop $-1 -1 $-1 $-1 $426 $394 #
coedge $-1 -1 $-1 $425 $425 $440 $441 forward $409 $-1 #
coedge $-1 -1 $-1 $426 $426 $412 $427 reversed $424 $-1 #
edge $-1 -1 $-1 $442 -3.1415926535897931 $442 3.1415926535897931 $426 $443 forward @7 unknown #
vertex $-1 -1 $-1 $414 $444 #
ellipse-curve $-1 -1 $-1 -2.3273240613649837 0 3.4523240613649837 0.70710678118654757 0 -0.70710678118654757 -0.9510586206959063 0 -0.9510586206959063 1 I I #
point $-1 -1 $-1 -0.84384947023567602 0 4.7902055271700004 #
loop $-1 -1 $-1 $445 $418 $446 #
vertex $-1 -1 $-1 $419 $447 #
ellipse-curve $-1 -1 $-1 -3.7527092354833931 0 4.8777092354833931 0.70710678118654757 0 -0.70710678118654757 -0.9510586206959063 0 -0.9510586206959063 1 I I #
model_id-kcp-attrib $-1 -1 $-1 $-1 $421 1 1021323417 1021323417 -1959395327 17 #
face $448 -1 $-1 $449 $450 $9 $-1 $451 forward single #
loop $-1 -1 $-1 $452 $453 $421 #
cone-surface $-1 -1 $-1 -2.5457137493514188 0 3.6707137493514188 0.70710678118654757 0 -0.70710678118654757 -1.4106780284671623 0 -1.4106780284671623 1 I I 0.98768834059513799 0.15643446504023201 1.9950000000000001 forward I I I I #
loop $-1 -1 $-1 $-1 $440 $408 #
coedge $-1 -1 $-1 $439 $439 $454 $455 forward $422 $-1 #
coedge $-1 -1 $-1 $440 $440 $425 $441 reversed $438 $-1 #
edge $-1 -1 $-1 $456 -3.1415926535897931 $456 3.1415926535897931 $440 $457 forward @7 unknown #
vertex $-1 -1 $-1 $427 $458 #
ellipse-curve $-1 -1 $-1 -2.4001206240271293 0 3.5251206240271293 0.70710678118654757 0 -0.70710678118654757 -1.4106780284671623 0 -1.4106780284671623 1 I I #
point $-1 -1 $-1 -1.3762654406690775 0 4.4033826820608901 #
loop $-1 -1 $-1 $-1 $459 $446 #
face $460 -1 $-1 $391 $431 $9 $-1 $461 forward single #
point $-1 -1 $-1 -2.8016506147874867 0 5.828767856179299 #
model_id-kcp-attrib $-1 -1 $-1 $-1 $435 1 1021323417 1021323417 -1959395327 18 #
face $462 -1 $-1 $463 $464 $9 $-1 $465 forward single #
loop $-1 -1 $-1 $466 $467 $435 #
cone-surface $-1 -1 $-1 -2.6913068746757096 0 3.8163068746757096 -0.70710678118654757 0 0.70710678118654757 -1.4106780284671623 0 -1.4106780284671623 1 I I 0.98768834059513799 0.15643446504023101 1.9950000000000001 forward I I I I #
loop $-1 -1 $-1 $-1 $454 $421 #
coedge $-1 -1 $-1 $453 $453 $468 $469 forward $436 $-1 #
coedge $-1 -1 $-1 $454 $454 $439 $455 reversed $452 $-1 #
edge $-1 -1 $-1 $470 -3.1415926535897931 $470 3.1415926535897931 $454 $471 forward @7 unknown #
vertex $-1 -1 $-1 $441 $472 #
ellipse-curve $-1 -1 $-1 -2.4729171866892741 0 3.5979171866892741 0.70710678118654757 0 -0.70710678118654757 -0.9510586206959063 0 -0.9510586206959063 1 I I #
point $-1 -1 $-1 -0.98944259555996705 0 4.9357986524942916 #
coedge $-1 -1 $-1 $459 $459 $473 $474 reversed $445 $-1 #
model_id-kcp-attrib $-1 -1 $-1 $-1 $446 1 1021323417 1021323417 -1959395327 33 #
cone-surface $-1 -1 $-1 -3.6799126728212537 0 4.8049126728212537 0.70710678118654757 0 -0.70710678118654757 -1.4106780284671623 0 -1.4106780284671623 1 I I 0.98768834059513799 0.15643446504023101 1.9950000000000001 forward I I I I #
model_id-kcp-attrib $-1 -1 $-1 $-1 $449 1 1021323417 1021323417 -1959395327 19 #
face $475 -1 $-1 $476 $477 $9 $-1 $478 forward single #
loop $-1 -1 $-1 $479 $480 $449 #
cone-surface $-1 -1 $-1 -2.6913068746757096 0 3.8163068746757096 0.70710678118654757 0 -0.70710678118654757 -1.4106780284671623 0 -1.4106780284671623 1 I I 0.98768834059513799 0.15643446504023101 1.9950000000000001 forward I I I I #
loop $-1 -1 $-1 $-1 $468 $435 #
coedge $-1 -1 $-1 $467 $467 $481 $482 forward $450 $-1 #
coedge $-1 -1 $-1 $468 $468 $453 $469 reversed $466 $-1 #
edge $-1 -1 $-1 $483 -3.1415926535897931 $483 3.1415926535897931 $468 $484 forward @7 unknown #
vertex $-1 -1 $-1 $455 $485 #
ellipse-curve $-1 -1 $-1 -2.5457137493514188 0 3.6707137493514188 0.70710678118654757 0 -0.70710678118654757 -1.4106780284671623 0 -1.4106780284671623 1 I I #
point $-1 -1 $-1 -1.5218585659933677 0 4.5489758073851805 #
coedge $-1 -1 $-1 $473 $473 $459 $474 forward $486 $-1 #
edge $-1 -1 $-1 $487 -3.1415926535897931 $487 3.1415926535897931 $459 $488 forward @7 unknown #
model_id-kcp-attrib $-1 -1 $-1 $-1 $463 1 1021323417 1021323417 -1959395327 20 #
face $489 -1 $-1 $490 $491 $9 $-1 $492 forward single #
loop $-1 -1 $-1 $493 $494 $463 #
cone-surface $-1 -1 $-1 -2.8369 0 3.9619 -0.70710678118654757 0 0.70710678118654757 -1.4106780284671623 0 -1.4106780284671623 1 I I 0.98768834059513799 0.15643446504023101 1.9950000000000001 forward I I I I #
loop $-1 -1 $-1 $-1 $481 $449 #
coedge $-1 -1 $-1 $480 $480 $495 $496 forward $464 $-1 #
coedge $-1 -1 $-1 $481 $481 $467 $482 reversed $479 $-1 #
edge $-1 -1 $-1 $497 -3.1415926535897931 $497 3.1415926535897931 $481 $498 forward @7 unknown #
vertex $-1 -1 $-1 $469 $499 #
ellipse-curve $-1 -1 $-1 -2.6185103120135644 0 3.7435103120135644 0.70710678118654757 0 -0.70710678118654757 -0.9510586206959063 0 -0.9510586206959063 1 I I #
point $-1 -1 $-1 -1.1350357208842565 0 5.0813917778185811 #
loop $-1 -1 $-1 $500 $473 $501 #
vertex $-1 -1 $-1 $474 $502 #
ellipse-curve $-1 -1 $-1 -3.6799126728212537 0 4.8049126728212537 0.70710678118654757 0 -0.70710678118654757 -1.4106780284671623 0 -1.4106780284671623 1 I I #
model_id-kcp-attrib $-1 -1 $-1 $-1 $476 1 1021323417 1021323417 -1959395327 21 #
face $503 -1 $-1 $504 $505 $9 $-1 $506 forward single #
loop $-1 -1 $-1 $507 $508 $476 #
cone-surface $-1 -1 $-1 -2.8369 0 3.9619 0.70710678118654757 0 -0.70710678118654757 -1.4106780284671623 0 -1.4106780284671623 1 I I 0.98768834059513799 0.15643446504023101 1.9950000000000001 forward I I I I #
loop $-1 -1 $-1 $-1 $495 $463 #
coedge $-1 -1 $-1 $494 $494 $509 $510 forward $477 $-1 #
coedge $-1 -1 $-1 $495 $495 $480 $496 reversed $493 $-1 #
edge $-1 -1 $-1 $511 -3.1415926535897931 $511 3.1415926535897931 $495 $512 forward @7 unknown #
vertex $-1 -1 $-1 $482 $513 #
ellipse-curve $-1 -1 $-1 -2.6913068746757096 0 3.8163068746757096 0.70710678118654757 0 -0.70710678118654757 -1.4106780284671623 0 -1.4106780284671623 1 I I #
point $-1 -1 $-1 -1.667451691317658 0 4.6945689327094708 #
loop $-1 -1 $-1 $-1 $514 $501 #
face $515 -1 $-1 $446 $486 $9 $-1 $516 forward single #
point $-1 -1 $-1 -2.2692346443540914 0 6.2155907012884164 #
model_id-kcp-attrib $-1 -1 $-1 $-1 $490 1 1021323417 1021323417 -1959395327 22 #
face $517 -1 $-1 $518 $519 $9 $-1 $520 forward single #
loop $-1 -1 $-1 $521 $522 $490 #
cone-surface $-1 -1 $-1 -2.9824931253242903 0 4.1074931253242903 -0.70710678118654757 0 0.70710678118654757 -1.4106780284671623 0 -1.4106780284671623 1 I I 0.98768834059513799 0.15643446504023101 1.9950000000000001 forward I I I I #
loop $-1 -1 $-1 $-1 $509 $476 #
coedge $-1 -1 $-1 $508 $508 $523 $524 forward $491 $-1 #
coedge $-1 -1 $-1 $509 $509 $494 $510 reversed $507 $-1 #
edge $-1 -1 $-1 $525 -3.1415926535897931 $525 3.1415926535897931 $509 $526 forward @7 unknown #
vertex $-1 -1 $-1 $496 $527 #
ellipse-curve $-1 -1 $-1 -2.7641034373378552 0 3.8891034373378552 0.70710678118654757 0 -0.70710678118654757 -0.9510586206959063 0 -0.9510586206959063 1 I I #
point $-1 -1 $-1 -1.2806288462085473 0 5.2269849031428723 #
coedge $-1 -1 $-1 $514 $514 $528 $529 reversed $500 $-1 #
model_id-kcp-attrib $-1 -1 $-1 $-1 $501 1 1021323417 1021323417 -1959395327 32 #
cone-surface $-1 -1 $-1 -3.6799126728212537 0 4.8049126728212537 -0.70710678118654757 0 0.70710678118654757 -1.4106780284671623 0 -1.4106780284671623 1 I I 0.99580149327870804 0.091538986141947803 1.9950000000000001 forward I I I I #
model_id-kcp-attrib $-1 -1 $-1 $-1 $504 1 1021323417 1021323417 -1959395327 23 #
face $530 -1 $-1 $531 $532 $9 $-1 $533 forward single #
loop $-1 -1 $-1 $534 $535 $504 #
cone-surface $-1 -1 $-1 -2.9824931253242903 0 4.1074931253242903 0.70710678118654757 0 -0.70710678118654757 -1.4106780284671623 0 -1.4106780284671623 1 I I 0.98768834059513799 0.15643446504023101 1.9950000000000001 forward I I I I #
loop $-1 -1 $-1 $-1 $523 $490 #
coedge $-1 -1 $-1 $522 $522 $536 $537 forward $505 $-1 #
coedge $-1 -1 $-1 $523 $523 $508 $524 reversed $521 $-1 #
edge $-1 -1 $-1 $538 -3.1415926535897931 $538 3.1415926535897931 $523 $539 forward @7 unknown #
vertex $-1 -1 $-1 $510 $540 #
ellipse-curve $-1 -1 $-1 -2.8369 0 3.9619 0.70710678118654757 0 -0.70710678118654757 -1.4106780284671623 0 -1.4106780284671623 1 I I #
point $-1 -1 $-1 -1.8130448166419488 0 4.8401620580337612 #
coedge $-1 -1 $-1 $528 $528 $514 $529 forward $541 $-1 #
edge $-1 -1 $-1 $542 -3.1415926535897931 $542 3.1415926535897931 $514 $543 forward @7 unknown #
model_id-kcp-attrib $-1 -1 $-1 $-1 $518 1 1021323417 1021323417 -1959395327 24 #
face $544 -1 $-1 $545 $546 $9 $-1 $547 forward single #
loop $-1 -1 $-1 $548 $549 $518 #
cone-surface $-1 -1 $-1 -3.1280862506485807 0 4.2530862506485807 -0.70710678118654757 0 0.70710678118654757 -1.4106780284671623 0 -1.4106780284671623 1 I I 0.98768834059513799 0.15643446504023101 1.9950000000000001 forward I I I I #
loop $-1 -1 $-1 $-1 $536 $504 #
coedge $-1 -1 $-1 $535 $535 $550 $551 forward $519 $-1 #
coedge $-1 -1 $-1 $536 $536 $522 $537 reversed $534 $-1 #
edge $-1 -1 $-1 $552 -3.1415926535897931 $552 3.1415926535897931 $536 $553 forward @7 unknown #
vertex $-1 -1 $-1 $524 $554 #
ellipse-curve $-1 -1 $-1 -2.9096965626621456 0 4.0346965626621456 0.70710678118654757 0 -0.70710678118654757 -0.9510586206959063 0 -0.9510586206959063 1 I I #
point $-1 -1 $-1 -1.4262219715328377 0 5.3725780284671618 #
loop $-1 -1 $-1 $555 $528 $556 #
vertex $-1 -1 $-1 $529 $557 #
ellipse-curve $-1 -1 $-1 -3.6376621892835939 0 4.7626621892835939 0.70710678118654757 0 -0.70710678118654757 -0.9510586206959063 0 -0.9510586206959063 1 I I #
model_id-kcp-attrib $-1 -1 $-1 $-1 $531 1 1021323417 1021323417 -1959395327 25 #
face $558 -1 $-1 $559 $560 $9 $-1 $561 forward single #
loop $-1 -1 $-1 $562 $563 $531 #
cone-surface $-1 -1 $-1 -3.1280862506485807 0 4.2530862506485807 0.70710678118654757 0 -0.70710678118654757 -1.4106780284671623 0 -1.4106780284671623 1 I I 0.98768834059513799 0.15643446504023101 1.9950000000000001 forward I I I I #
loop $-1 -1 $-1 $-1 $550 $518 #
coedge $-1 -1 $-1 $549 $549 $564 $565 forward $532 $-1 #
coedge $-1 -1 $-1 $550 $550 $535 $551 reversed $548 $-1 #
edge $-1 -1 $-1 $566 -3.1415926535897931 $566 3.1415926535897931 $550 $567 forward @7 unknown #
vertex $-1 -1 $-1 $537 $568 #
ellipse-curve $-1 -1 $-1 -2.9824931253242903 0 4.1074931253242903 0.70710678118654757 0 -0.70710678118654757 -1.4106780284671623 0 -1.4106780284671623 1 I I #
point $-1 -1 $-1 -1.9586379419662392 0 4.9857551833580516 #
loop $-1 -1 $-1 $-1 $569 $556 #
face $570 -1 $-1 $501 $541 $9 $-1 $571 forward single #
point $-1 -1 $-1 -2.6866035685876875 0 5.7137208099795007 #
model_id-kcp-attrib $-1 -1 $-1 $-1 $545 1 1021323417 1021323417 -1959395327 26 #
face $572 -1 $-1 $573 $574 $9 $-1 $575 forward single #
loop $-1 -1 $-1 $576 $577 $545 #
cone-surface $-1 -1 $-1 -3.2736793759728706 0 4.3986793759728711 -0.70710678118654757 0 0.70710678118654757 -1.4106780284671623 0 -1.4106780284671623 1 I I 0.98768834059513799 0.15643446504023101 1.9950000000000001 forward I I I I #
loop $-1 -1 $-1 $-1 $564 $531 #
coedge $-1 -1 $-1 $563 $563 $578 $579 forward $546 $-1 #
coedge $-1 -1 $-1 $564 $564 $549 $565 reversed $562 $-1 #
edge $-1 -1 $-1 $580 -3.1415926535897931 $580 3.1415926535897931 $564 $581 forward @7 unknown #
vertex $-1 -1 $-1 $551 $582 #
ellipse-curve $-1 -1 $-1 -3.0552896879864355 0 4.180289687986436 0.70710678118654757 0 -0.70710678118654757 -0.9510586206959063 0 -0.9510586206959063 1 I I #
point $-1 -1 $-1 -1.5718150968571281 0 5.5181711537914531 #
coedge $-1 -1 $-1 $569 $569 $583 $584 reversed $555 $-1 #
model_id-kcp-attrib $-1 -1 $-1 $-1 $556 1 1021323417 1021323417 -1959395327 31 #
cone-surface $-1 -1 $-1 -3.5648656266214549 0 4.6898656266214545 0.70710678118654757 0 -0.70710678118654757 -1.4106780284671623 0 -1.4106780284671623 1 I I 0.98768834059513799 0.15643446504023101 1.9950000000000001 forward I I I I #
model_id-kcp-attrib $-1 -1 $-1 $-1 $559 1 1021323417 1021323417 -1959395327 27 #
face $585 -1 $-1 $586 $587 $9 $-1 $588 forward single #
loop $-1 -1 $-1 $589 $590 $559 #
cone-surface $-1 -1 $-1 -3.2736793759728706 0 4.3986793759728711 0.70710678118654757 0 -0.70710678118654757 -1.4106780284671623 0 -1.4106780284671623 1 I I 0.98768834059513799 0.15643446504023101 1.9950000000000001 forward I I I I #
loop $-1 -1 $-1 $-1 $578 $545 #
coedge $-1 -1 $-1 $577 $577 $591 $592 forward $560 $-1 #
coedge $-1 -1 $-1 $578 $578 $563 $579 reversed $576 $-1 #
edge $-1 -1 $-1 $593 -3.1415926535897931 $593 3.1415926535897931 $578 $594 forward @7 unknown #
vertex $-1 -1 $-1 $565 $595 #
ellipse-curve $-1 -1 $-1 -3.1280862506485807 0 4.2530862506485807 0.70710678118654757 0 -0.70710678118654757 -1.4106780284671623 0 -1.4106780284671623 1 I I #
point $-1 -1 $-1 -2.1042310672905296 0 5.1313483086823419 #
coedge $-1 -1 $-1 $583 $583 $569 $584 forward $596 $-1 #
edge $-1 -1 $-1 $597 -3.1415926535897931 $597 3.1415926535897931 $569 $598 forward @7 unknown #
model_id-kcp-attrib $-1 -1 $-1 $-1 $573 1 1021323417 1021323417 -1959395327 28 #
face $599 -1 $-1 $600 $601 $9 $-1 $602 forward single #
loop $-1 -1 $-1 $603 $604 $573 #
cone-surface $-1 -1 $-1 -3.419272501297161 0 4.5442725012971614 -0.70710678118654757 0 0.70710678118654757 -1.4106780284671623 0 -1.4106780284671623 1 I I 0.98768834059513799 0.15643446504023101 1.9950000000000001 forward I I I I #
loop $-1 -1 $-1 $-1 $591 $559 #
coedge $-1 -1 $-1 $590 $590 $605 $606 forward $574 $-1 #
coedge $-1 -1 $-1 $591 $591 $577 $592 reversed $589 $-1 #
edge $-1 -1 $-1 $607 -3.1415926535897931 $607 3.1415926535897931 $591 $608 forward @7 unknown #
vertex $-1 -1 $-1 $579 $609 #
ellipse-curve $-1 -1 $-1 -3.2008828133107259 0 4.3258828133107263 0.70710678118654757 0 -0.70710678118654757 -0.9510586206959063 0 -0.9510586206959063 1 I I #
point $-1 -1 $-1 -1.7174082221814182 0 5.6637642791157425 #
loop $-1 -1 $-1 $610 $583 $600 #
vertex $-1 -1 $-1 $584 $611 #
ellipse-curve $-1 -1 $-1 -3.5648656266214549 0 4.6898656266214545 0.70710678118654757 0 -0.70710678118654757 -1.4106780284671623 0 -1.4106780284671623 1 I I #
model_id-kcp-attrib $-1 -1 $-1 $-1 $586 1 1021323417 1021323417 -1959395327 29 #
face $612 -1 $-1 $556 $596 $9 $-1 $613 forward single #
loop $-1 -1 $-1 $614 $615 $586 #
cone-surface $-1 -1 $-1 -3.419272501297161 0 4.5442725012971614 0.70710678118654757 0 -0.70710678118654757 -1.4106780284671623 0 -1.4106780284671623 1 I I 0.98768834059513799 0.15643446504023101 1.9950000000000001 forward I I I I #
loop $-1 -1 $-1 $-1 $605 $573 #
coedge $-1 -1 $-1 $604 $604 $616 $617 forward $587 $-1 #
coedge $-1 -1 $-1 $605 $605 $590 $606 reversed $603 $-1 #
edge $-1 -1 $-1 $618 -3.1415926535897931 $618 3.1415926535897931 $605 $619 forward @7 unknown #
vertex $-1 -1 $-1 $592 $620 #
ellipse-curve $-1 -1 $-1 -3.2736793759728706 0 4.3986793759728711 0.70710678118654757 0 -0.70710678118654757 -1.4106780284671623 0 -1.4106780284671623 1 I I #
point $-1 -1 $-1 -2.2498241926148195 0 5.2769414340066323 #
loop $-1 -1 $-1 $-1 $621 $600 #
point $-1 -1 $-1 -2.1541875981542926 0 6.1005436550886172 #
model_id-kcp-attrib $-1 -1 $-1 $-1 $600 1 1021323417 1021323417 -1959395327 30 #
cone-surface $-1 -1 $-1 -3.5648656266214549 0 4.6898656266214545 -0.70710678118654757 0 0.70710678118654757 -1.4106780284671623 0 -1.4106780284671623 1 I I 0.98768834059513799 0.15643446504023101 1.9950000000000001 forward I I I I #
loop $-1 -1 $-1 $-1 $616 $586 #
coedge $-1 -1 $-1 $615 $615 $621 $622 forward $601 $-1 #
coedge $-1 -1 $-1 $616 $616 $604 $617 reversed $614 $-1 #
edge $-1 -1 $-1 $623 -3.1415926535897931 $623 3.1415926535897931 $616 $624 forward @7 unknown #
vertex $-1 -1 $-1 $606 $625 #
ellipse-curve $-1 -1 $-1 -3.3464759386350162 0 4.4714759386350158 0.70710678118654757 0 -0.70710678118654757 -0.9510586206959063 0 -0.9510586206959063 1 I I #
point $-1 -1 $-1 -1.8630013475057083 0 5.8093574044400329 #
coedge $-1 -1 $-1 $621 $621 $615 $622 reversed $610 $-1 #
edge $-1 -1 $-1 $626 -3.1415926535897931 $626 3.1415926535897931 $621 $627 forward @7 unknown #
vertex $-1 -1 $-1 $617 $628 #
ellipse-curve $-1 -1 $-1 -3.419272501297161 0 4.5442725012971614 0.70710678118654757 0 -0.70710678118654757 -1.4106780284671623 0 -1.4106780284671623 1 I I #
point $-1 -1 $-1 -2.3954173179391098 0 5.4225345593309227 #
vertex $-1 -1 $-1 $622 $629 #
ellipse-curve $-1 -1 $-1 -3.4920690639593062 0 4.6170690639593062 0.70710678118654757 0 -0.70710678118654757 -0.9510586206959063 0 -0.9510586206959063 1 I I #
point $-1 -1 $-1 -2.0085944728299987 0 5.9549505297643233 #
point $-1 -1 $-1 -2.5410104432634002 0 5.568127684655213 #
End-of-ACIS-data 