700 0 2 0           
24 FBMach with ACIS - 7.0.3 13 ACIS 7.0.3 NT 24 Mon May 13 16:57:24 2002 
1 9.9999999999999995e-007 1e-010 
body $2 -1 $-1 $3 $-1 $4 #
bdycol-kcp $-1 -1 1 5 $5 $6 $7 $8 $9 #
model_id-kcp-attrib $-1 -1 $-1 $-1 $0 1 1021323443 1021323443 -75628543 1 #
lump $-1 -1 $-1 $-1 $10 $0 #
transform $-1 -1 1.0000000000000002 0 0 0 1 0 0 0 1.0000000000000002 -8.8817841970012523e-016 0 -8.8817841970012523e-016 1 rotate no_reflect no_shear #
body $11 -1 $-1 $12 $-1 $13 #
body $14 -1 $-1 $15 $-1 $16 #
body $17 -1 $-1 $18 $-1 $19 #
body $20 -1 $-1 $21 $-1 $22 #
body $23 -1 $-1 $24 $-1 $25 #
shell $-1 -1 $-1 $-1 $-1 $26 $-1 $3 #
model_id-kcp-attrib $-1 -1 $-1 $-1 $5 1 1021323443 1021323443 -75628542 1 #
lump $-1 -1 $-1 $-1 $27 $5 #
transform $-1 -1 1 0 0 0 1 0 0 0 1 4.1592000000000002 0 5.2842000000000002 1 no_rotate no_reflect no_shear #
rgb_color-st-attrib $-1 -1 $28 $-1 $6 0.5 1 1 #
lump $-1 -1 $-1 $-1 $29 $6 #
transform $-1 -1 0.70710678118654757 0 -0.70710678118654746 0 1 0 0.70710678118654746 0 0.70710678118654757 4.1591999998580524 2.0074608642062238e-010 5.2842000001419489 1 rotate no_reflect no_shear #
rgb_color-st-attrib $-1 -1 $30 $-1 $7 0.5 1 1 #
lump $-1 -1 $-1 $-1 $31 $7 #
transform $-1 -1 1 0 0 0 1 0 0 0 1 4.1592000000000002 0 5.2842000000000002 1 no_rotate no_reflect no_shear #
rgb_color-st-attrib $-1 -1 $32 $-1 $8 0.5 0.5 1 #
lump $-1 -1 $-1 $-1 $33 $8 #
transform $-1 -1 1 0 0 0 1 0 0 0 1 4.1592000000000002 0 5.2842000000000002 1 no_rotate no_reflect no_shear #
rgb_color-st-attrib $-1 -1 $34 $-1 $9 0.5 0.5 1 #
lump $-1 -1 $-1 $-1 $35 $9 #
transform $-1 -1 1 0 0 0 1 0 0 0 1 4.1592000000000002 0 5.2842000000000002 1 no_rotate no_reflect no_shear #
face $36 -1 $-1 $37 $38 $10 $-1 $39 reversed single #
shell $-1 -1 $-1 $-1 $-1 $40 $-1 $12 #
model_id-kcp-attrib $-1 -1 $-1 $14 $6 1 1021323443 1021323443 -74317821 1 #
shell $-1 -1 $-1 $-1 $-1 $41 $-1 $15 #
model_id-kcp-attrib $-1 -1 $-1 $17 $7 1 1021323443 1021323443 -70385660 1 #
shell $-1 -1 $-1 $-1 $-1 $42 $-1 $18 #
model_id-kcp-attrib $-1 -1 $-1 $20 $8 1 1021323443 1021323444 -78381051 1 #
shell $-1 -1 $-1 $-1 $-1 $43 $-1 $21 #
model_id-kcp-attrib $-1 -1 $-1 $23 $9 1 1021323443 1021323444 -73138170 1 #
shell $-1 -1 $-1 $-1 $-1 $44 $-1 $24 #
model_id-kcp-attrib $-1 -1 $-1 $-1 $26 1 1021323443 1021323443 -75628543 2 #
face $45 -1 $-1 $46 $47 $10 $-1 $48 forward single #
loop $49 -1 $-1 $50 $51 $26 #
cone-surface $-1 -1 $-1 4.1591999998580516 2.0074608642062238e-010 5.2842000001419489 0.70710678118654757 0 0.70710678118654757 0.70710678118654746 0 -0.70710678118654746 1 I I 0 1 1 forward I I I I #
face $-1 -1 $-1 $52 $53 $27 $-1 $54 forward single #
face $-1 -1 $-1 $55 $56 $29 $-1 $57 forward single #
face $-1 -1 $-1 $58 $59 $31 $-1 $60 reversed single #
face $-1 -1 $-1 $61 $62 $33 $-1 $63 reversed single #
face $-1 -1 $-1 $64 $65 $35 $-1 $66 reversed single #
model_id-kcp-attrib $-1 -1 $-1 $-1 $37 1 1021323443 1021323443 -75628543 3 #
face $67 -1 $-1 $68 $69 $10 $-1 $70 forward single #
loop $-1 -1 $-1 $71 $72 $37 #
cone-surface $-1 -1 $-1 4.1592000000000002 0 5.2842000000000002 -0.70710678118654757 0 -0.70710678118654757 -1.4106780284671621 0 1.4106780284671621 1 I I 0 1 1.9949999999999999 forward I I I I #
model_id-kcp-attrib $-1 -1 $-1 $-1 $38 1 1021323443 1021323443 -75628543 6 #
loop $73 -1 $-1 $-1 $74 $26 #
coedge $-1 -1 $-1 $51 $51 $75 $76 reversed $38 $-1 #
face $-1 -1 $-1 $77 $78 $27 $-1 $79 reversed single #
loop $-1 -1 $-1 $-1 $80 $40 #
plane-surface $-1 -1 $-1 0 0 1.5987684322627835 0 0 1 1 0 0 forward_v I I I I #
face $-1 -1 $-1 $81 $82 $29 $-1 $83 forward single #
loop $-1 -1 $-1 $84 $85 $41 #
cone-surface $-1 -1 $-1 0 0 0 0 0 1 0.99999999999999989 0 0 1 I I 0 1 0.99999999999999989 forward I I I I #
face $-1 -1 $-1 $86 $87 $31 $-1 $60 reversed single #
loop $-1 -1 $-1 $-1 $88 $42 #
cone-surface $-1 -1 $-1 0.18809040379562081 0 0.1880904037956217 0.70710678118654757 0 0.70710678118654757 -1.4106780284671621 0 1.4106780284671621 1 I I 0 1 1.9949999999999997 forward I I I I #
face $-1 -1 $-1 $89 $90 $33 $-1 $91 forward single #
loop $-1 -1 $-1 $-1 $92 $43 #
plane-surface $-1 -1 $-1 0.1880904037956217 0 0.1880904037956217 0.70710678118654757 0 0.70710678118654757 0 1 0 forward_v I I I I #
face $-1 -1 $-1 $93 $94 $35 $-1 $95 forward single #
loop $-1 -1 $-1 $-1 $96 $44 #
plane-surface $-1 -1 $-1 -0.1880904037956217 0 -0.18809040379562081 -0.70710678118654757 0 -0.70710678118654757 0 -1 0 forward_v I I I I #
model_id-kcp-attrib $-1 -1 $-1 $-1 $46 1 1021323443 1021323443 -75628543 4 #
face $97 -1 $-1 $-1 $98 $10 $-1 $99 forward single #
loop $100 -1 $-1 $101 $75 $46 #
plane-surface $-1 -1 $-1 4.3472904037956219 0 5.4722904037956219 0.70710678118654757 0 0.70710678118654757 0.70710678118654735 0 -0.70710678118654735 forward_v I I I I #
loop $-1 -1 $-1 $-1 $102 $37 #
coedge $-1 -1 $-1 $72 $72 $103 $104 reversed $47 $-1 #
model_id-kcp-attrib $-1 -1 $-1 $-1 $50 1 1021323443 1021323443 -75628543 7 #
coedge $-1 -1 $-1 $74 $74 $105 $106 reversed $50 $-1 #
coedge $-1 -1 $-1 $75 $75 $51 $76 forward $69 $-1 #
edge $107 -1 $-1 $108 -3.1415926535897998 $108 3.1415926535897865 $75 $109 forward @7 unknown #
face $-1 -1 $-1 $110 $111 $27 $-1 $112 reversed single #
loop $-1 -1 $-1 $-1 $113 $52 #
plane-surface $-1 -1 $-1 0 0 -1.5987684322627835 0 0 1 1 0 0 forward_v I I I I #
coedge $-1 -1 $-1 $114 $115 $116 $117 forward $53 $-1 #
face $-1 -1 $-1 $-1 $118 $29 $-1 $119 forward single #
loop $-1 -1 $-1 $-1 $120 $55 #
plane-surface $-1 -1 $-1 0 0 -0.26600000000000046 0 0 -1 -1 0 0 forward_v I I I I #
loop $-1 -1 $-1 $-1 $121 $41 #
coedge $-1 -1 $-1 $85 $85 $120 $122 reversed $56 $-1 #
face $-1 -1 $-1 $123 $124 $31 $-1 $125 reversed single #
loop $-1 -1 $-1 $-1 $126 $58 #
coedge $-1 -1 $-1 $127 $128 $129 $130 reversed $59 $-1 #
face $-1 -1 $-1 $131 $132 $33 $-1 $91 forward single #
loop $-1 -1 $-1 $-1 $133 $61 #
cone-surface $-1 -1 $-1 0.18809040379562081 0 0.1880904037956217 0.70710678118654757 0 0.70710678118654757 -1.4106780284671621 0 1.4106780284671621 1 I I 0 1 1.9949999999999997 forward I I I I #
coedge $-1 -1 $-1 $134 $134 $135 $136 forward $62 $-1 #
face $-1 -1 $-1 $137 $138 $35 $-1 $95 forward single #
loop $-1 -1 $-1 $-1 $139 $64 #
cone-surface $-1 -1 $-1 0.18809040379562081 0 0.1880904037956217 0.70710678118654757 0 0.70710678118654757 -1.4106780284671621 0 1.4106780284671621 1 I I 0 1 1.9949999999999997 forward I I I I #
coedge $-1 -1 $-1 $140 $140 $141 $142 forward $65 $-1 #
model_id-kcp-attrib $-1 -1 $-1 $-1 $68 1 1021323443 1021323443 -75628543 5 #
loop $143 -1 $-1 $144 $105 $68 #
plane-surface $-1 -1 $-1 3.9711095962043785 0 5.0961095962043785 -0.70710678118654757 0 -0.70710678118654757 -0.70710678118654735 0 0.70710678118654735 forward_v I I I I #
model_id-kcp-attrib $-1 -1 $-1 $-1 $69 1 1021323443 1021323443 -75628543 8 #
loop $-1 -1 $-1 $-1 $103 $46 #
coedge $-1 -1 $-1 $102 $102 $145 $146 reversed $71 $-1 #
coedge $-1 -1 $-1 $103 $103 $72 $104 forward $101 $-1 #
edge $147 -1 $-1 $148 0 $148 6.2831853071795862 $103 $149 forward @7 unknown #
coedge $-1 -1 $-1 $105 $105 $74 $106 forward $98 $-1 #
edge $150 -1 $-1 $151 -3.1415926535897998 $151 3.1415926535897865 $105 $152 forward @7 unknown #
attrib_edge_convexity-kcp-attrib $-1 -1 $153 $-1 $76 1 #
vertex $154 -1 $-1 $76 $155 #
ellipse-curve $-1 -1 $-1 4.3472904036536733 2.0074608642062238e-010 5.4722904039375706 -0.70710678118654757 0 -0.70710678118654757 0.70710678118654746 0 -0.70710678118654746 1 I I #
face $-1 -1 $-1 $156 $157 $27 $-1 $158 reversed single #
loop $-1 -1 $-1 $-1 $159 $77 #
plane-surface $-1 -1 $-1 0 -1.9949999999999999 0 0 1 0 0 0 1 forward_v I I I I #
coedge $-1 -1 $-1 $160 $161 $162 $163 forward $78 $-1 #
coedge $-1 -1 $-1 $164 $80 $165 $166 forward $53 $-1 #
coedge $-1 -1 $-1 $80 $164 $167 $168 forward $53 $-1 #
coedge $-1 -1 $-1 $169 $170 $80 $117 reversed $171 $-1 #
edge $-1 -1 $-1 $172 -1.9949999999999999 $173 1.9949999999999999 $116 $174 forward @7 unknown #
loop $-1 -1 $-1 $-1 $175 $81 #
plane-surface $-1 -1 $-1 0 0 0.26600000000000046 0 0 1 1 0 0 forward_v I I I I #
coedge $-1 -1 $-1 $120 $120 $85 $122 forward $82 $-1 #
coedge $-1 -1 $-1 $121 $121 $175 $176 reversed $84 $-1 #
edge $-1 -1 $-1 $177 0 $177 6.2831853071795862 $120 $178 forward @7 unknown #
face $-1 -1 $-1 $179 $180 $31 $-1 $181 reversed single #
loop $-1 -1 $-1 $-1 $182 $86 #
plane-surface $-1 -1 $-1 0 1.9949999999999999 0 0 -1 0 0 0 -1 forward_v I I I I #
coedge $-1 -1 $-1 $183 $184 $185 $186 reversed $87 $-1 #
coedge $-1 -1 $-1 $187 $88 $184 $188 forward $59 $-1 #
coedge $-1 -1 $-1 $88 $187 $189 $190 reversed $59 $-1 #
coedge $-1 -1 $-1 $191 $192 $88 $130 forward $193 $-1 #
edge $-1 -1 $-1 $194 -1.570796326794897 $195 1.570796326794897 $129 $196 forward @7 unknown #
face $-1 -1 $-1 $197 $198 $33 $-1 $199 forward single #
loop $-1 -1 $-1 $-1 $135 $89 #
coedge $-1 -1 $-1 $200 $201 $134 $202 reversed $90 $-1 #
coedge $-1 -1 $-1 $92 $92 $133 $202 forward $62 $-1 #
coedge $-1 -1 $-1 $203 $204 $92 $136 reversed $132 $-1 #
edge $205 -1 $-1 $206 -3.1415926535897931 $207 0 $135 $208 forward @7 unknown #
face $-1 -1 $-1 $209 $210 $35 $-1 $211 reversed single #
loop $-1 -1 $-1 $-1 $141 $93 #
coedge $-1 -1 $-1 $212 $213 $140 $214 reversed $94 $-1 #
coedge $-1 -1 $-1 $96 $96 $139 $214 forward $65 $-1 #
coedge $-1 -1 $-1 $215 $216 $96 $142 reversed $138 $-1 #
edge $217 -1 $-1 $218 -3.1415926535897931 $219 0 $141 $220 forward @7 unknown #
model_id-kcp-attrib $-1 -1 $-1 $-1 $98 1 1021323443 1021323443 -75628543 9 #
loop $-1 -1 $-1 $-1 $145 $68 #
coedge $-1 -1 $-1 $145 $145 $102 $146 forward $144 $-1 #
edge $221 -1 $-1 $222 0 $222 6.2831853071795862 $145 $223 forward @7 unknown #
attrib_edge_convexity-kcp-attrib $-1 -1 $224 $-1 $104 1 #
vertex $-1 -1 $-1 $104 $225 #
ellipse-curve $-1 -1 $-1 4.3472904037956219 0 5.4722904037956219 0.70710678118654757 0 0.70710678118654757 -1.4106780284671621 0 1.4106780284671621 1 I I #
attrib_edge_convexity-kcp-attrib $-1 -1 $226 $-1 $106 1 #
vertex $227 -1 $-1 $106 $228 #
ellipse-curve $-1 -1 $-1 3.9711095960624299 2.0074608642062238e-010 5.0961095963463272 0.70710678118654757 0 0.70710678118654757 0.70710678118654746 0 -0.70710678118654746 1 I I #
convexity-sys-attrib $-1 -1 $-1 $107 $76 #
model_id-kcp-attrib $-1 -1 $-1 $-1 $108 1 1021323443 1021323443 -75628543 10 #
point $-1 -1 $-1 3.6401836224671253 2.0073910345390016e-010 6.1793971851241185 #
face $-1 -1 $-1 $229 $230 $27 $-1 $231 reversed single #
loop $-1 -1 $-1 $-1 $232 $110 #
plane-surface $-1 -1 $-1 -1.5987684322627835 0 0 1 0 0 0 0 -1 forward_v I I I I #
coedge $-1 -1 $-1 $233 $167 $234 $235 forward $111 $-1 #
coedge $-1 -1 $-1 $236 $113 $233 $237 forward $78 $-1 #
coedge $-1 -1 $-1 $113 $236 $238 $239 forward $78 $-1 #
coedge $-1 -1 $-1 $170 $169 $113 $163 reversed $171 $-1 #
edge $-1 -1 $-1 $240 -1.9949999999999999 $241 1.9949999999999999 $162 $242 forward @7 unknown #
coedge $-1 -1 $-1 $115 $114 $243 $244 forward $53 $-1 #
coedge $-1 -1 $-1 $245 $246 $114 $166 reversed $230 $-1 #
edge $-1 -1 $-1 $173 -1.5987684322627835 $247 1.5987684322627835 $165 $248 forward @7 unknown #
coedge $-1 -1 $-1 $159 $249 $115 $168 reversed $111 $-1 #
edge $-1 -1 $-1 $250 -1.5987684322627835 $172 1.5987684322627835 $167 $251 forward @7 unknown #
coedge $-1 -1 $-1 $162 $116 $249 $252 forward $171 $-1 #
coedge $-1 -1 $-1 $116 $162 $245 $253 reversed $171 $-1 #
loop $-1 -1 $-1 $-1 $169 $229 #
vertex $-1 -1 $-1 $117 $254 #
vertex $-1 -1 $-1 $117 $255 #
straight-curve $-1 -1 $-1 1.5987684322627835 0 1.5987684322627835 0 1 0 I I #
coedge $-1 -1 $-1 $175 $175 $121 $176 forward $118 $-1 #
edge $-1 -1 $-1 $256 0 $256 6.2831853071795862 $175 $257 forward @7 unknown #
vertex $-1 -1 $-1 $122 $258 #
ellipse-curve $-1 -1 $-1 0 0 -0.26600000000000046 0 0 -1 0.99999999999999989 0 0 1 I I #
face $-1 -1 $-1 $259 $260 $31 $-1 $261 reversed single #
loop $-1 -1 $-1 $-1 $262 $123 #
plane-surface $-1 -1 $-1 1.5987684322627835 0 0 -1 0 0 0 0 1 forward_v I I I I #
coedge $-1 -1 $-1 $263 $264 $127 $188 reversed $124 $-1 #
coedge $-1 -1 $-1 $265 $126 $128 $190 forward $87 $-1 #
coedge $-1 -1 $-1 $126 $265 $266 $188 reversed $87 $-1 #
coedge $-1 -1 $-1 $267 $268 $126 $186 forward $269 $-1 #
edge $-1 -1 $-1 $195 1.570796326794897 $194 4.7123889803846897 $185 $270 forward @7 unknown #
coedge $-1 -1 $-1 $128 $127 $271 $272 reversed $59 $-1 #
edge $-1 -1 $-1 $194 -2.5269999999999992 $273 1.9950000000000001 $266 $274 forward @7 unknown #
coedge $-1 -1 $-1 $275 $276 $277 $190 forward $278 $-1 #
edge $-1 -1 $-1 $195 -2.5269999999999992 $279 1.9950000000000001 $189 $280 forward @7 unknown #
coedge $-1 -1 $-1 $281 $129 $276 $282 reversed $193 $-1 #
coedge $-1 -1 $-1 $129 $281 $263 $283 forward $193 $-1 #
loop $-1 -1 $-1 $-1 $129 $259 #
vertex $-1 -1 $-1 $284 $285 #
vertex $-1 -1 $-1 $186 $286 #
ellipse-curve $-1 -1 $-1 -1.5987684322627835 0 -1.5987684322627826 1 0 0 0 0 2.8213560569343241 0.70710678118654757 I I #
face $-1 -1 $-1 $-1 $287 $33 $-1 $288 reversed single #
loop $-1 -1 $-1 $-1 $289 $131 #
plane-surface $-1 -1 $-1 0 0 1.5987684322627835 0 0 1 1 0 0 forward_v I I I I #
coedge $-1 -1 $-1 $201 $133 $289 $290 reversed $90 $-1 #
coedge $-1 -1 $-1 $133 $200 $291 $292 reversed $90 $-1 #
edge $293 -1 $-1 $207 0 $206 3.1415926535897931 $133 $208 forward @7 unknown #
coedge $-1 -1 $-1 $204 $135 $294 $295 reversed $132 $-1 #
coedge $-1 -1 $-1 $135 $203 $296 $297 reversed $132 $-1 #
convexity-sys-attrib $-1 -1 $-1 $-1 $136 #
vertex $-1 -1 $-1 $292 $298 #
vertex $-1 -1 $-1 $297 $299 #
ellipse-curve $-1 -1 $-1 0.18809040379562125 0 0.18809040379562214 -0.70710678118654757 0 -0.70710678118654757 -1.4106780284671621 0 1.4106780284671621 1 I I #
face $-1 -1 $-1 $-1 $300 $35 $-1 $301 reversed single #
loop $-1 -1 $-1 $-1 $302 $137 #
plane-surface $-1 -1 $-1 -1.5987684322627835 0 0 1 0 0 0 0 -1 forward_v I I I I #
coedge $-1 -1 $-1 $213 $139 $302 $303 reversed $94 $-1 #
coedge $-1 -1 $-1 $139 $212 $304 $305 reversed $94 $-1 #
edge $306 -1 $-1 $219 0 $218 3.1415926535897931 $139 $220 forward @7 unknown #
coedge $-1 -1 $-1 $216 $141 $307 $308 reversed $138 $-1 #
coedge $-1 -1 $-1 $141 $215 $309 $310 reversed $138 $-1 #
convexity-sys-attrib $-1 -1 $-1 $-1 $142 #
vertex $-1 -1 $-1 $305 $311 #
vertex $-1 -1 $-1 $310 $312 #
ellipse-curve $-1 -1 $-1 -0.18809040379562175 0 -0.18809040379562086 0.70710678118654757 0 0.70710678118654757 -1.4106780284671621 0 1.4106780284671621 1 I I #
attrib_edge_convexity-kcp-attrib $-1 -1 $313 $-1 $146 1 #
vertex $-1 -1 $-1 $146 $314 #
ellipse-curve $-1 -1 $-1 3.9711095962043785 0 5.0961095962043785 -0.70710678118654757 0 -0.70710678118654757 -1.4106780284671621 0 1.4106780284671621 1 I I #
convexity-sys-attrib $-1 -1 $-1 $147 $104 #
point $-1 -1 $-1 2.9366123753284601 0 6.8829684322627838 #
convexity-sys-attrib $-1 -1 $-1 $150 $106 #
model_id-kcp-attrib $-1 -1 $-1 $-1 $151 1 1021323443 1021323443 -75628543 11 #
point $-1 -1 $-1 3.264002814875882 2.007530693873446e-010 5.8032163775328751 #
face $-1 -1 $-1 $-1 $171 $27 $-1 $315 reversed single #
loop $-1 -1 $-1 $-1 $245 $156 #
plane-surface $-1 -1 $-1 0 1.9949999999999999 0 0 -1 0 0 0 -1 forward_v I I I I #
coedge $-1 -1 $-1 $316 $243 $246 $317 forward $157 $-1 #
coedge $-1 -1 $-1 $249 $159 $160 $237 reversed $111 $-1 #
coedge $-1 -1 $-1 $243 $316 $159 $235 reversed $157 $-1 #
edge $-1 -1 $-1 $250 -1.5987684322627835 $318 1.5987684322627835 $234 $319 forward @7 unknown #
coedge $-1 -1 $-1 $161 $160 $316 $320 forward $78 $-1 #
edge $-1 -1 $-1 $241 -1.5987684322627835 $318 1.5987684322627835 $233 $321 forward @7 unknown #
coedge $-1 -1 $-1 $246 $245 $161 $239 reversed $230 $-1 #
edge $-1 -1 $-1 $322 -1.5987684322627835 $240 1.5987684322627835 $238 $323 forward @7 unknown #
vertex $-1 -1 $-1 $163 $324 #
vertex $-1 -1 $-1 $252 $325 #
straight-curve $-1 -1 $-1 1.5987684322627835 0 -1.5987684322627835 0 -1 0 I I #
coedge $-1 -1 $-1 $232 $234 $164 $244 reversed $157 $-1 #
edge $-1 -1 $-1 $247 -1.9949999999999999 $250 1.9949999999999999 $243 $326 forward @7 unknown #
coedge $-1 -1 $-1 $238 $165 $170 $253 forward $230 $-1 #
coedge $-1 -1 $-1 $165 $238 $232 $317 reversed $230 $-1 #
vertex $-1 -1 $-1 $166 $327 #
straight-curve $-1 -1 $-1 0 1.9949999999999999 1.5987684322627835 -1 0 0 I I #
coedge $-1 -1 $-1 $167 $233 $169 $252 reversed $111 $-1 #
vertex $-1 -1 $-1 $244 $328 #
straight-curve $-1 -1 $-1 0 -1.9949999999999999 1.5987684322627835 1 0 0 I I #
edge $-1 -1 $-1 $172 -1.5987684322627835 $241 1.5987684322627835 $169 $329 forward @7 unknown #
edge $-1 -1 $-1 $173 -1.5987684322627835 $240 1.5987684322627835 $170 $330 forward @7 unknown #
point $-1 -1 $-1 1.5987684322627835 -1.9949999999999999 1.5987684322627835 #
point $-1 -1 $-1 1.5987684322627835 1.9949999999999999 1.5987684322627835 #
vertex $-1 -1 $-1 $176 $331 #
ellipse-curve $-1 -1 $-1 0 0 0.26600000000000046 0 0 1 0.99999999999999989 0 0 1 I I #
point $-1 -1 $-1 0.99999999999999989 0 -0.26600000000000046 #
face $-1 -1 $-1 $332 $193 $31 $-1 $333 reversed single #
loop $-1 -1 $-1 $-1 $277 $179 #
plane-surface $-1 -1 $-1 0 -1.9949999999999999 0 0 1 0 0 0 1 forward_v I I I I #
coedge $-1 -1 $-1 $334 $335 $265 $336 forward $180 $-1 #
coedge $-1 -1 $-1 $264 $182 $192 $283 reversed $124 $-1 #
coedge $-1 -1 $-1 $182 $263 $337 $338 reversed $124 $-1 #
coedge $-1 -1 $-1 $184 $183 $262 $336 reversed $87 $-1 #
coedge $-1 -1 $-1 $339 $340 $182 $188 forward $341 $-1 #
coedge $-1 -1 $-1 $342 $185 $340 $284 forward $269 $-1 #
coedge $-1 -1 $-1 $185 $342 $343 $344 forward $269 $-1 #
loop $-1 -1 $-1 $-1 $185 $345 #
ellipse-curve $-1 -1 $-1 -1.5987684322627844 0 -1.5987684322627835 0 0 1 -2.8213560569343241 0 0 0.70710678118654757 I I #
coedge $-1 -1 $-1 $337 $346 $187 $272 forward $347 $-1 #
edge $-1 -1 $-1 $279 -1.570796326794897 $273 1.570796326794897 $271 $348 forward @7 unknown #
vertex $-1 -1 $-1 $188 $349 #
straight-curve $-1 -1 $-1 0.18809040379562081 1.9949999999999997 0.1880904037956217 0.70710678118654757 0 0.70710678118654757 I I #
coedge $-1 -1 $-1 $276 $189 $346 $350 reversed $278 $-1 #
coedge $-1 -1 $-1 $189 $275 $191 $282 forward $278 $-1 #
coedge $-1 -1 $-1 $343 $351 $183 $190 reversed $260 $-1 #
loop $-1 -1 $-1 $-1 $189 $352 #
vertex $-1 -1 $-1 $190 $353 #
straight-curve $-1 -1 $-1 0.18809040379562081 -1.9949999999999997 0.1880904037956217 0.70710678118654757 0 0.70710678118654757 I I #
coedge $-1 -1 $-1 $192 $191 $354 $355 reversed $193 $-1 #
edge $-1 -1 $-1 $356 -1.5987684322627835 $195 1.5987684322627835 $191 $357 forward @7 unknown #
edge $-1 -1 $-1 $358 -1.5987684322627835 $194 1.5987684322627835 $263 $359 forward @7 unknown #
edge $-1 -1 $-1 $194 -1.5987684322627835 $360 1.5987684322627835 $340 $361 forward @7 unknown #
point $-1 -1 $-1 -1.5987684322627835 1.9949999999999999 -1.5987684322627835 #
point $-1 -1 $-1 -1.5987684322627835 -1.9949999999999999 -1.5987684322627835 #
loop $-1 -1 $-1 $-1 $294 $197 #
plane-surface $-1 -1 $-1 1.5987684322627835 0 0 -1 0 0 0 0 1 forward_v I I I I #
coedge $-1 -1 $-1 $296 $362 $200 $290 forward $198 $-1 #
edge $-1 -1 $-1 $363 -1.570796326794897 $207 0 $289 $364 forward @7 unknown #
coedge $-1 -1 $-1 $365 $294 $201 $292 forward $287 $-1 #
edge $-1 -1 $-1 $206 -3.1415926535897931 $363 -1.570796326794897 $291 $366 forward @7 unknown #
convexity-sys-attrib $-1 -1 $-1 $-1 $202 #
coedge $-1 -1 $-1 $291 $365 $203 $295 forward $287 $-1 #
edge $-1 -1 $-1 $367 1.570796326794897 $206 3.1415926535897931 $294 $366 forward @7 unknown #
coedge $-1 -1 $-1 $362 $289 $204 $297 forward $198 $-1 #
edge $-1 -1 $-1 $207 0 $367 1.570796326794897 $296 $364 forward @7 unknown #
point $-1 -1 $-1 1.5987684322627835 0 -1.2225876246715397 #
point $-1 -1 $-1 -1.2225876246715397 0 1.5987684322627835 #
loop $-1 -1 $-1 $-1 $307 $209 #
plane-surface $-1 -1 $-1 0 0 -1.5987684322627835 0 0 1 1 0 0 forward_v I I I I #
coedge $-1 -1 $-1 $309 $368 $212 $303 forward $210 $-1 #
edge $-1 -1 $-1 $369 -1.570796326794897 $219 0 $302 $370 forward @7 unknown #
coedge $-1 -1 $-1 $371 $307 $213 $305 forward $300 $-1 #
edge $-1 -1 $-1 $218 -3.1415926535897931 $369 -1.570796326794897 $304 $372 forward @7 unknown #
convexity-sys-attrib $-1 -1 $-1 $-1 $214 #
coedge $-1 -1 $-1 $304 $371 $215 $308 forward $300 $-1 #
edge $-1 -1 $-1 $373 1.570796326794897 $218 3.1415926535897931 $307 $372 forward @7 unknown #
coedge $-1 -1 $-1 $368 $302 $216 $310 forward $210 $-1 #
edge $-1 -1 $-1 $219 0 $373 1.570796326794897 $309 $370 forward @7 unknown #
point $-1 -1 $-1 1.222587624671541 0 -1.5987684322627835 #
point $-1 -1 $-1 -1.5987684322627835 0 1.222587624671541 #
convexity-sys-attrib $-1 -1 $-1 $221 $146 #
point $-1 -1 $-1 2.5604315677372167 0 6.5067876246715404 #
plane-surface $-1 -1 $-1 1.5987684322627835 0 0 -1 0 0 0 0 1 forward_v I I I I #
coedge $-1 -1 $-1 $234 $232 $236 $320 reversed $157 $-1 #
edge $-1 -1 $-1 $247 -1.5987684322627835 $322 1.5987684322627835 $246 $374 forward @7 unknown #
vertex $-1 -1 $-1 $320 $375 #
straight-curve $-1 -1 $-1 -1.5987684322627835 -1.9949999999999999 0 0 0 -1 I I #
edge $-1 -1 $-1 $318 -1.9949999999999999 $322 1.9949999999999999 $316 $376 forward @7 unknown #
straight-curve $-1 -1 $-1 0 -1.9949999999999999 -1.5987684322627835 -1 0 0 I I #
vertex $-1 -1 $-1 $239 $377 #
straight-curve $-1 -1 $-1 0 1.9949999999999999 -1.5987684322627835 1 0 0 I I #
point $-1 -1 $-1 1.5987684322627835 1.9949999999999999 -1.5987684322627835 #
point $-1 -1 $-1 1.5987684322627835 -1.9949999999999999 -1.5987684322627835 #
straight-curve $-1 -1 $-1 -1.5987684322627835 0 1.5987684322627835 0 -1 0 I I #
point $-1 -1 $-1 -1.5987684322627835 1.9949999999999999 1.5987684322627835 #
point $-1 -1 $-1 -1.5987684322627835 -1.9949999999999999 1.5987684322627835 #
straight-curve $-1 -1 $-1 1.5987684322627835 -1.9949999999999999 0 0 0 -1 I I #
straight-curve $-1 -1 $-1 1.5987684322627835 1.9949999999999999 0 0 0 -1 I I #
point $-1 -1 $-1 0.99999999999999989 0 0.26600000000000046 #
face $-1 -1 $-1 $345 $347 $31 $-1 $378 forward single #
plane-surface $-1 -1 $-1 -1.5987684322627835 0 0 1 0 0 0 0 -1 forward_v I I I I #
coedge $-1 -1 $-1 $379 $262 $351 $380 forward $180 $-1 #
coedge $-1 -1 $-1 $262 $379 $339 $381 reversed $180 $-1 #
edge $-1 -1 $-1 $273 1.570796326794897 $279 4.7123889803846897 $262 $382 forward @7 unknown #
coedge $-1 -1 $-1 $354 $271 $264 $338 forward $347 $-1 #
edge $-1 -1 $-1 $273 -1.5987684322627835 $358 1.5987684322627835 $264 $383 forward @7 unknown #
coedge $-1 -1 $-1 $340 $266 $335 $381 forward $341 $-1 #
coedge $-1 -1 $-1 $266 $339 $267 $284 reversed $341 $-1 #
loop $-1 -1 $-1 $-1 $266 $384 #
coedge $-1 -1 $-1 $268 $267 $379 $385 forward $269 $-1 #
coedge $-1 -1 $-1 $351 $277 $268 $344 reversed $260 $-1 #
edge $-1 -1 $-1 $386 -1.5987684322627835 $195 1.5987684322627835 $343 $387 forward @7 unknown #
face $-1 -1 $-1 $352 $269 $31 $-1 $388 reversed single #
coedge $-1 -1 $-1 $271 $354 $275 $350 forward $347 $-1 #
loop $-1 -1 $-1 $-1 $271 $332 #
ellipse-curve $-1 -1 $-1 1.5987684322627826 0 1.5987684322627835 0 0 -1 -2.8213560569343241 0 0 0.70710678118654757 I I #
point $-1 -1 $-1 1.5987684322627835 1.9949999999999999 1.5987684322627835 #
edge $-1 -1 $-1 $356 -1.5987684322627835 $279 1.5987684322627835 $275 $389 forward @7 unknown #
coedge $-1 -1 $-1 $277 $343 $334 $380 reversed $260 $-1 #
face $-1 -1 $-1 $384 $278 $31 $-1 $261 reversed single #
point $-1 -1 $-1 1.5987684322627835 -1.9949999999999999 1.5987684322627835 #
coedge $-1 -1 $-1 $346 $337 $281 $355 forward $347 $-1 #
edge $-1 -1 $-1 $358 -1.9949999999999999 $356 1.9949999999999999 $281 $390 forward @7 unknown #
vertex $-1 -1 $-1 $355 $391 #
straight-curve $-1 -1 $-1 -1.5987684322627835 -1.9949999999999999 0 0 0 -1 I I #
vertex $-1 -1 $-1 $338 $392 #
straight-curve $-1 -1 $-1 -1.5987684322627835 1.9949999999999999 0 0 0 -1 I I #
vertex $-1 -1 $-1 $385 $393 #
straight-curve $-1 -1 $-1 0 1.9949999999999999 -1.5987684322627835 1 0 0 I I #
coedge $-1 -1 $-1 $289 $296 $365 $394 forward $198 $-1 #
vertex $-1 -1 $-1 $394 $395 #
ellipse-curve $-1 -1 $-1 1.5987684322627826 0 1.5987684322627835 0 0 1 -2.8213560569343241 0 0 0.70710678118654757 I I #
coedge $-1 -1 $-1 $294 $291 $362 $394 reversed $287 $-1 #
ellipse-curve $-1 -1 $-1 1.5987684322627835 0 1.5987684322627844 1 0 0 0 0 2.8213560569343241 0.70710678118654757 I I #
vertex $-1 -1 $-1 $394 $396 #
coedge $-1 -1 $-1 $302 $309 $371 $397 reversed $210 $-1 #
vertex $-1 -1 $-1 $397 $398 #
ellipse-curve $-1 -1 $-1 -1.5987684322627835 0 -1.5987684322627826 -1 0 0 0 0 2.8213560569343241 0.70710678118654757 I I #
coedge $-1 -1 $-1 $307 $304 $368 $397 forward $300 $-1 #
ellipse-curve $-1 -1 $-1 -1.5987684322627844 0 -1.5987684322627835 0 0 -1 -2.8213560569343241 0 0 0.70710678118654757 I I #
vertex $-1 -1 $-1 $310 $399 #
straight-curve $-1 -1 $-1 -1.5987684322627835 1.9949999999999999 0 0 0 -1 I I #
point $-1 -1 $-1 -1.5987684322627835 -1.9949999999999999 -1.5987684322627835 #
straight-curve $-1 -1 $-1 -1.5987684322627835 0 -1.5987684322627835 0 1 0 I I #
point $-1 -1 $-1 -1.5987684322627835 1.9949999999999999 -1.5987684322627835 #
plane-surface $-1 -1 $-1 0 0 1.5987684322627835 0 0 1 1 0 0 forward_v I I I I #
coedge $-1 -1 $-1 $335 $334 $342 $385 reversed $180 $-1 #
edge $-1 -1 $-1 $279 -1.5987684322627835 $386 1.5987684322627835 $334 $400 forward @7 unknown #
edge $-1 -1 $-1 $273 -1.5987684322627835 $360 1.5987684322627835 $335 $401 forward @7 unknown #
ellipse-curve $-1 -1 $-1 1.5987684322627835 0 1.5987684322627844 -1 0 0 0 0 2.8213560569343241 0.70710678118654757 I I #
straight-curve $-1 -1 $-1 0 1.9949999999999999 1.5987684322627835 -1 0 0 I I #
face $-1 -1 $-1 $-1 $341 $31 $-1 $125 reversed single #
edge $-1 -1 $-1 $360 -1.9949999999999999 $386 1.9949999999999999 $379 $402 forward @7 unknown #
vertex $-1 -1 $-1 $380 $403 #
straight-curve $-1 -1 $-1 0 -1.9949999999999999 -1.5987684322627835 -1 0 0 I I #
plane-surface $-1 -1 $-1 0 0 -1.5987684322627835 0 0 1 1 0 0 forward_v I I I I #
straight-curve $-1 -1 $-1 0 -1.9949999999999999 1.5987684322627835 1 0 0 I I #
straight-curve $-1 -1 $-1 -1.5987684322627835 0 1.5987684322627835 0 -1 0 I I #
point $-1 -1 $-1 -1.5987684322627835 -1.9949999999999999 1.5987684322627835 #
point $-1 -1 $-1 -1.5987684322627835 1.9949999999999999 1.5987684322627835 #
point $-1 -1 $-1 1.5987684322627835 1.9949999999999999 -1.5987684322627835 #
edge $-1 -1 $-1 $367 -1.9949999999999999 $363 1.9949999999999999 $365 $404 forward @7 unknown #
point $-1 -1 $-1 1.5987684322627835 1.9949999999999999 1.5987684322627835 #
point $-1 -1 $-1 1.5987684322627835 -1.9949999999999999 1.5987684322627835 #
edge $-1 -1 $-1 $369 -1.9949999999999999 $373 1.9949999999999999 $368 $405 forward @7 unknown #
point $-1 -1 $-1 -1.5987684322627835 -1.9949999999999999 -1.5987684322627835 #
point $-1 -1 $-1 -1.5987684322627835 1.9949999999999999 -1.5987684322627835 #
straight-curve $-1 -1 $-1 1.5987684322627835 -1.9949999999999999 0 0 0 -1 I I #
straight-curve $-1 -1 $-1 1.5987684322627835 1.9949999999999999 0 0 0 -1 I I #
straight-curve $-1 -1 $-1 1.5987684322627835 0 -1.5987684322627835 0 -1 0 I I #
point $-1 -1 $-1 1.5987684322627835 -1.9949999999999999 -1.5987684322627835 #
straight-curve $-1 -1 $-1 1.5987684322627835 0 1.5987684322627835 0 1 0 I I #
straight-curve $-1 -1 $-1 -1.5987684322627835 0 -1.5987684322627835 0 1 0 I I #
End-of-ACIS-data 