700 0 2 0           
24 FBMach with ACIS - 7.0.3 13 ACIS 7.0.3 NT 24 Mon May 13 16:57:06 2002 
1 9.9999999999999995e-007 1e-010 
body $2 -1 $-1 $3 $-1 $4 #
bdycol-kcp $-1 -1 1 4 $5 $6 $7 $8 #
model_id-kcp-attrib $-1 -1 $-1 $-1 $0 1 1021323425 1021323425 -1524105215 1 #
lump $-1 -1 $-1 $-1 $9 $0 #
transform $-1 -1 1 0 0 0 1 0 0 0 1 0 0 0 1 rotate no_reflect no_shear #
body $10 -1 $-1 $11 $-1 $12 #
body $13 -1 $-1 $14 $-1 $15 #
body $16 -1 $-1 $17 $-1 $18 #
body $19 -1 $-1 $20 $-1 $21 #
shell $-1 -1 $-1 $-1 $-1 $22 $-1 $3 #
model_id-kcp-attrib $-1 -1 $-1 $-1 $5 1 1021323425 1021323425 -1524105214 1 #
lump $-1 -1 $-1 $-1 $23 $5 #
transform $-1 -1 1 0 0 0 1 0 0 0 1 0 -0.00099999999999988987 -3.5674999999999999 1 no_rotate no_reflect no_shear #
rgb_color-st-attrib $-1 -1 $24 $-1 $6 0.5 1 1 #
lump $-1 -1 $-1 $-1 $25 $6 #
transform $-1 -1 -1 0 -1.2246063538223773e-016 0 1 0 1.2246063538223773e-016 0 -1 4.9902708918261899e-017 -0.001 -3.5775000000000001 1 rotate no_reflect no_shear #
rgb_color-st-attrib $-1 -1 $26 $-1 $7 0.5 1 1 #
lump $-1 -1 $-1 $-1 $27 $7 #
transform $-1 -1 1 0 0 0 1 0 0 0 1 0 -0.00099999999999988987 -3.5674999999999999 1 no_rotate no_reflect no_shear #
rgb_color-st-attrib $-1 -1 $28 $-1 $8 1 0.5 1 #
lump $-1 -1 $-1 $-1 $29 $8 #
transform $-1 -1 1 0 0 0 1 0 0 0 1 0 -0.00099999999999988987 -3.5674999999999999 1 no_rotate no_reflect no_shear #
face $30 -1 $-1 $31 $32 $9 $-1 $33 forward single #
shell $-1 -1 $-1 $-1 $-1 $34 $-1 $11 #
model_id-kcp-attrib $-1 -1 $-1 $13 $6 1 1021323425 1021323425 -1522794493 1 #
shell $-1 -1 $-1 $-1 $-1 $35 $-1 $14 #
model_id-kcp-attrib $-1 -1 $-1 $16 $7 1 1021323425 1021323425 -1514930172 1 #
shell $-1 -1 $-1 $-1 $-1 $36 $-1 $17 #
model_id-kcp-attrib $-1 -1 $-1 $19 $8 1 1021323425 1021323426 -1518993403 1 #
shell $-1 -1 $-1 $-1 $-1 $37 $-1 $20 #
model_id-kcp-attrib $-1 -1 $-1 $-1 $22 1 1021323425 1021323425 -1524105215 2 #
face $38 -1 $-1 $39 $40 $9 $-1 $41 forward single #
loop $-1 -1 $-1 $42 $43 $22 #
plane-surface $-1 -1 $-1 0 -0.001 -3.927 0 0 -1 0.99999999999999989 0 0 forward_v I I I I #
face $44 -1 $-1 $45 $46 $23 $-1 $47 forward single #
face $-1 -1 $-1 $48 $49 $25 $-1 $50 forward single #
face $-1 -1 $-1 $51 $52 $27 $-1 $53 reversed single #
face $-1 -1 $-1 $54 $55 $29 $-1 $56 forward single #
model_id-kcp-attrib $-1 -1 $-1 $-1 $31 1 1021323425 1021323425 -1524105215 3 #
face $57 -1 $-1 $58 $59 $9 $-1 $60 reversed single #
loop $-1 -1 $-1 $61 $62 $31 #
plane-surface $-1 -1 $-1 0 -0.001 -3.343 0 0 -1 0.99999999999999989 0 0 forward_v I I I I #
loop $63 -1 $-1 $-1 $64 $22 #
coedge $-1 -1 $-1 $43 $43 $65 $66 reversed $32 $-1 #
model_id-kcp-attrib $-1 -1 $-1 $-1 $34 1 1021323425 1021323425 -1524105214 3 #
face $67 -1 $-1 $68 $69 $23 $-1 $70 reversed single #
loop $-1 -1 $-1 $-1 $71 $34 #
plane-surface $-1 -1 $-1 0 0 0.35949999999999993 0 0 1 1 0 0 forward_v I I I I #
face $-1 -1 $-1 $72 $73 $25 $-1 $74 forward single #
loop $-1 -1 $-1 $75 $76 $35 #
cone-surface $-1 -1 $-1 0 0 0 0 0 1 1.3449999999999998 0 0 1 I I 0 1 1.3449999999999998 forward I I I I #
face $-1 -1 $-1 $77 $78 $27 $-1 $53 reversed single #
loop $-1 -1 $-1 $-1 $79 $36 #
cone-surface $-1 -1 $-1 -7.479557850087911e-033 -1.1015494072452725e-016 -0.35950000000000015 0 0 -1 1.9949999999999999 0 0 1 I I 0 1 1.9949999999999999 forward I I I I #
face $-1 -1 $-1 $80 $81 $29 $-1 $82 forward single #
loop $-1 -1 $-1 $83 $84 $37 #
cone-surface $-1 -1 $-1 0 -1.1015494072452725e-016 0.22449999999999903 0 0 -1 -1.4684999999999997 0 0 1 I I 0 -1 1.4684999999999997 forward I I I I #
model_id-kcp-attrib $-1 -1 $-1 $-1 $39 1 1021323425 1021323425 -1524105215 4 #
face $85 -1 $-1 $86 $87 $9 $-1 $88 reversed single #
loop $-1 -1 $-1 $89 $90 $39 #
plane-surface $-1 -1 $-1 0 -0.001 -3.2080000000000002 0 0 -1 0.99999999999999989 0 0 forward_v I I I I #
loop $-1 -1 $-1 $-1 $91 $31 #
coedge $-1 -1 $-1 $62 $62 $92 $93 forward $40 $-1 #
model_id-kcp-attrib $-1 -1 $-1 $-1 $42 1 1021323425 1021323425 -1524105215 15 #
coedge $-1 -1 $-1 $64 $64 $94 $95 reversed $42 $-1 #
coedge $-1 -1 $-1 $65 $65 $43 $66 forward $96 $-1 #
edge $97 -1 $-1 $98 -3.1415926535897998 $98 3.1415926535897865 $65 $99 forward @7 unknown #
model_id-kcp-attrib $-1 -1 $-1 $-1 $45 1 1021323425 1021323425 -1524105214 2 #
face $-1 -1 $-1 $100 $101 $23 $-1 $102 reversed single #
loop $-1 -1 $-1 $-1 $103 $45 #
plane-surface $-1 -1 $-1 0 0 -0.35949999999999993 0 0 1 1 0 0 forward_v I I I I #
coedge $-1 -1 $-1 $104 $105 $106 $107 forward $46 $-1 #
face $-1 -1 $-1 $-1 $108 $25 $-1 $109 forward single #
loop $-1 -1 $-1 $-1 $110 $48 #
plane-surface $-1 -1 $-1 0 0 -0.34949999999999992 0 0 -1 -1 0 0 forward_v I I I I #
loop $-1 -1 $-1 $-1 $111 $35 #
coedge $-1 -1 $-1 $76 $76 $110 $112 reversed $49 $-1 #
face $-1 -1 $-1 $113 $114 $27 $-1 $53 reversed single #
loop $-1 -1 $-1 $-1 $115 $51 #
coedge $-1 -1 $-1 $116 $117 $118 $119 forward $52 $-1 #
face $-1 -1 $-1 $120 $121 $29 $-1 $122 reversed single #
loop $-1 -1 $-1 $123 $124 $54 #
cone-surface $-1 -1 $-1 -7.479557850087911e-033 -1.1015494072452725e-016 0.22449999999999903 0 0 -1 1.9949999999999999 0 0 1 I I 0 1 1.9949999999999999 forward I I I I #
loop $-1 -1 $-1 $-1 $125 $37 #
coedge $-1 -1 $-1 $84 $84 $126 $127 forward $55 $-1 #
model_id-kcp-attrib $-1 -1 $-1 $-1 $58 1 1021323425 1021323425 -1524105215 5 #
face $128 -1 $-1 $129 $96 $9 $-1 $130 forward single #
loop $131 -1 $-1 $132 $133 $58 #
plane-surface $-1 -1 $-1 0 -0.001 -3.2280000000000002 0 0 -1 0.99999999999999989 0 0 forward_v I I I I #
loop $-1 -1 $-1 $-1 $134 $39 #
coedge $-1 -1 $-1 $90 $90 $135 $136 forward $59 $-1 #
coedge $-1 -1 $-1 $91 $91 $137 $138 forward $61 $-1 #
coedge $-1 -1 $-1 $92 $92 $62 $93 reversed $139 $-1 #
edge $140 -1 $-1 $141 0 $141 6.2831853071795862 $92 $142 forward @7 unknown #
coedge $-1 -1 $-1 $94 $94 $64 $95 forward $143 $-1 #
edge $144 -1 $-1 $145 -3.1415926535897998 $145 3.1415926535897865 $94 $146 forward @7 unknown #
loop $-1 -1 $-1 $147 $65 $86 #
attrib_edge_convexity-kcp-attrib $-1 -1 $148 $-1 $66 1 #
vertex $-1 -1 $-1 $66 $149 #
ellipse-curve $-1 -1 $-1 0 -0.001 -3.927 0 0 1 -1.4684999999999997 0 0 1 I I #
face $-1 -1 $-1 $150 $151 $23 $-1 $152 reversed single #
loop $-1 -1 $-1 $-1 $153 $68 #
plane-surface $-1 -1 $-1 0 -1.9949999999999999 0 0 1 0 0 0 1 forward_v I I I I #
coedge $-1 -1 $-1 $154 $155 $156 $157 forward $69 $-1 #
coedge $-1 -1 $-1 $158 $71 $159 $160 forward $46 $-1 #
coedge $-1 -1 $-1 $71 $158 $161 $162 forward $46 $-1 #
coedge $-1 -1 $-1 $163 $164 $71 $107 reversed $165 $-1 #
edge $-1 -1 $-1 $166 -1.9949999999999999 $167 1.9949999999999999 $106 $168 forward @7 unknown #
loop $-1 -1 $-1 $-1 $169 $72 #
plane-surface $-1 -1 $-1 0 0 0.34949999999999992 0 0 1 1 0 0 forward_v I I I I #
coedge $-1 -1 $-1 $110 $110 $76 $112 forward $73 $-1 #
coedge $-1 -1 $-1 $111 $111 $169 $170 reversed $75 $-1 #
edge $-1 -1 $-1 $171 0 $171 6.2831853071795862 $110 $172 forward @7 unknown #
face $-1 -1 $-1 $173 $174 $27 $-1 $53 reversed single #
loop $-1 -1 $-1 $-1 $175 $77 #
coedge $-1 -1 $-1 $176 $118 $177 $178 reversed $78 $-1 #
coedge $-1 -1 $-1 $179 $79 $180 $181 reversed $52 $-1 #
coedge $-1 -1 $-1 $79 $179 $182 $183 reversed $52 $-1 #
coedge $-1 -1 $-1 $115 $184 $185 $119 reversed $78 $-1 #
edge $-1 -1 $-1 $186 -0.71900000000000008 $187 -2.2204460492503131e-016 $185 $188 forward @7 unknown #
face $-1 -1 $-1 $-1 $189 $29 $-1 $190 forward single #
loop $-1 -1 $-1 $191 $192 $80 #
plane-surface $-1 -1 $-1 -0.16106978621205553 -4.410820141954174e-017 -0.35950000000000104 0 0 1 1 0 0 forward_v I I I I #
loop $-1 -1 $-1 $-1 $193 $54 #
coedge $-1 -1 $-1 $124 $124 $192 $194 forward $81 $-1 #
coedge $-1 -1 $-1 $125 $125 $195 $196 reversed $83 $-1 #
coedge $-1 -1 $-1 $126 $126 $84 $127 reversed $191 $-1 #
edge $-1 -1 $-1 $197 0 $197 6.2831853071795862 $84 $198 forward @7 unknown #
model_id-kcp-attrib $-1 -1 $-1 $-1 $86 1 1021323425 1021323425 -1524105215 6 #
face $199 -1 $-1 $200 $201 $9 $-1 $202 forward single #
cone-surface $-1 -1 $-1 0 -0.001 -3.1699999999999999 0 0 -1 -1.4684999999999997 0 0 1 I I 0 1 1.4684999999999997 forward I I I I #
model_id-kcp-attrib $-1 -1 $-1 $-1 $87 1 1021323425 1021323425 -1524105215 16 #
loop $-1 -1 $-1 $-1 $203 $58 #
coedge $-1 -1 $-1 $133 $133 $204 $205 forward $87 $-1 #
coedge $-1 -1 $-1 $134 $134 $206 $207 forward $89 $-1 #
coedge $-1 -1 $-1 $135 $135 $90 $136 reversed $208 $-1 #
edge $-1 -1 $-1 $209 0 $209 6.2831853071795862 $135 $210 forward @7 unknown #
coedge $-1 -1 $-1 $137 $137 $91 $138 reversed $147 $-1 #
edge $211 -1 $-1 $212 -3.1415926535897931 $212 3.1415926535897931 $91 $213 forward @7 unknown #
loop $-1 -1 $-1 $-1 $92 $129 #
attrib_edge_convexity-kcp-attrib $-1 -1 $214 $-1 $93 1 #
vertex $-1 -1 $-1 $93 $215 #
ellipse-curve $-1 -1 $-1 0 -0.001 -3.343 0 0 -1 1.9949999999999999 0 0 1 I I #
loop $216 -1 $-1 $217 $94 $218 #
attrib_edge_convexity-kcp-attrib $-1 -1 $219 $-1 $95 1 #
vertex $220 -1 $-1 $95 $221 #
ellipse-curve $-1 -1 $-1 0 -0.001 -3.927 0 0 -1 -1.3449999999999998 0 0 1 I I #
loop $-1 -1 $-1 $-1 $137 $86 #
convexity-sys-attrib $-1 -1 $-1 $97 $66 #
point $-1 -1 $-1 1.4684999999999997 -0.0010000000000102544 -3.927 #
face $-1 -1 $-1 $222 $223 $23 $-1 $224 reversed single #
loop $-1 -1 $-1 $-1 $225 $100 #
plane-surface $-1 -1 $-1 -1.9949999999999999 0 0 1 0 0 0 0 -1 forward_v I I I I #
coedge $-1 -1 $-1 $226 $161 $227 $228 forward $101 $-1 #
coedge $-1 -1 $-1 $229 $103 $226 $230 forward $69 $-1 #
coedge $-1 -1 $-1 $103 $229 $231 $232 forward $69 $-1 #
coedge $-1 -1 $-1 $164 $163 $103 $157 reversed $165 $-1 #
edge $-1 -1 $-1 $233 -1.9949999999999999 $234 1.9949999999999999 $156 $235 forward @7 unknown #
coedge $-1 -1 $-1 $105 $104 $236 $237 forward $46 $-1 #
coedge $-1 -1 $-1 $238 $239 $104 $160 reversed $223 $-1 #
edge $-1 -1 $-1 $167 -1.9949999999999999 $240 1.9949999999999999 $159 $241 forward @7 unknown #
coedge $-1 -1 $-1 $153 $242 $105 $162 reversed $101 $-1 #
edge $-1 -1 $-1 $243 -1.9949999999999999 $166 1.9949999999999999 $161 $244 forward @7 unknown #
coedge $-1 -1 $-1 $156 $106 $242 $245 forward $165 $-1 #
coedge $-1 -1 $-1 $106 $156 $238 $246 reversed $165 $-1 #
loop $-1 -1 $-1 $-1 $163 $222 #
vertex $-1 -1 $-1 $107 $247 #
vertex $-1 -1 $-1 $107 $248 #
straight-curve $-1 -1 $-1 1.9949999999999999 0 0.35949999999999993 0 1 0 I I #
coedge $-1 -1 $-1 $169 $169 $111 $170 forward $108 $-1 #
edge $-1 -1 $-1 $249 0 $249 6.2831853071795862 $169 $250 forward @7 unknown #
vertex $-1 -1 $-1 $112 $251 #
ellipse-curve $-1 -1 $-1 0 0 -0.34949999999999992 0 0 -1 1.3449999999999998 0 0 1 I I #
face $-1 -1 $-1 $252 $253 $27 $-1 $254 reversed single #
loop $-1 -1 $-1 $-1 $255 $113 #
coedge $-1 -1 $-1 $256 $257 $258 $259 reversed $114 $-1 #
coedge $-1 -1 $-1 $184 $115 $260 $261 forward $78 $-1 #
coedge $-1 -1 $-1 $262 $263 $115 $178 forward $264 $-1 #
edge $-1 -1 $-1 $265 -3.1415926535897931 $186 -1.5707963267948966 $177 $266 forward @7 unknown #
coedge $-1 -1 $-1 $117 $116 $267 $268 reversed $52 $-1 #
coedge $-1 -1 $-1 $269 $270 $116 $181 forward $271 $-1 #
edge $-1 -1 $-1 $272 0 $187 1.5707963267948966 $180 $273 forward @7 unknown #
coedge $-1 -1 $-1 $274 $275 $117 $183 forward $276 $-1 #
edge $-1 -1 $-1 $186 -1.5707963267948966 $277 0 $182 $266 forward @7 unknown #
coedge $-1 -1 $-1 $118 $176 $278 $279 reversed $78 $-1 #
coedge $-1 -1 $-1 $280 $281 $282 $119 forward $283 $-1 #
vertex $-1 -1 $-1 $284 $285 #
vertex $-1 -1 $-1 $286 $287 #
straight-curve $-1 -1 $-1 -7.479557850087911e-033 1.9949999999999999 -0.35950000000000015 0 0 -1 I I #
loop $-1 -1 $-1 $288 $289 $120 #
plane-surface $-1 -1 $-1 -0.16106978621205553 -4.410820141954174e-017 0.22449999999999906 0 0 1 1 0 0 forward_v I I I I #
loop $-1 -1 $-1 $-1 $126 $80 #
coedge $-1 -1 $-1 $192 $192 $124 $194 reversed $121 $-1 #
coedge $-1 -1 $-1 $193 $193 $289 $290 reversed $123 $-1 #
edge $-1 -1 $-1 $291 -3.1415926535897931 $291 3.1415926535897931 $124 $292 forward @7 unknown #
coedge $-1 -1 $-1 $195 $195 $125 $196 forward $288 $-1 #
edge $293 -1 $-1 $294 0 $294 6.2831853071795862 $125 $295 forward @7 unknown #
vertex $-1 -1 $-1 $127 $296 #
ellipse-curve $-1 -1 $-1 0 -1.1015494072452725e-016 -0.35950000000000104 0 0 -1 -1.4684999999999997 0 0 1 I I #
model_id-kcp-attrib $-1 -1 $-1 $-1 $129 1 1021323425 1021323425 -1524105215 7 #
face $297 -1 $-1 $298 $299 $9 $-1 $300 reversed single #
loop $-1 -1 $-1 $139 $301 $129 #
cone-surface $-1 -1 $-1 0 -0.001 -3.1699999999999999 0 0 -1 -1.9949999999999999 0 0 1 I I 0 1 1.9949999999999999 forward I I I I #
coedge $-1 -1 $-1 $203 $203 $302 $303 forward $132 $-1 #
coedge $-1 -1 $-1 $204 $204 $133 $205 reversed $217 $-1 #
edge $304 -1 $-1 $305 0 $305 6.2831853071795862 $204 $306 forward @7 unknown #
coedge $-1 -1 $-1 $206 $206 $134 $207 reversed $307 $-1 #
edge $-1 -1 $-1 $308 -3.1415926535897931 $308 3.1415926535897931 $134 $309 forward @7 unknown #
loop $-1 -1 $-1 $-1 $135 $310 #
vertex $-1 -1 $-1 $136 $311 #
ellipse-curve $-1 -1 $-1 0 -0.001 -3.2080000000000002 0 0 -1 1.9269999999999998 0 0 1 I I #
attrib_edge_convexity-kcp-attrib $-1 -1 $312 $-1 $138 2 #
vertex $-1 -1 $-1 $138 $313 #
ellipse-curve $-1 -1 $-1 0 -0.001 -3.343 0 0 1 1.4684999999999997 0 0 1 I I #
convexity-sys-attrib $-1 -1 $-1 $140 $93 #
point $-1 -1 $-1 1.9949999999999999 -0.001 -3.343 #
model_id-kcp-attrib $-1 -1 $-1 $-1 $143 1 1021323425 1021323425 -1524105215 13 #
loop $314 -1 $-1 $-1 $204 $218 #
face $315 -1 $-1 $-1 $143 $9 $-1 $316 reversed single #
convexity-sys-attrib $-1 -1 $-1 $144 $95 #
model_id-kcp-attrib $-1 -1 $-1 $-1 $145 1 1021323425 1021323425 -1524105215 17 #
point $-1 -1 $-1 1.3449999999999998 -0.00099999999999060801 -3.927 #
face $-1 -1 $-1 $-1 $165 $23 $-1 $317 reversed single #
loop $-1 -1 $-1 $-1 $238 $150 #
plane-surface $-1 -1 $-1 0 1.9949999999999999 0 0 -1 0 0 0 -1 forward_v I I I I #
coedge $-1 -1 $-1 $318 $236 $239 $319 forward $151 $-1 #
coedge $-1 -1 $-1 $242 $153 $154 $230 reversed $101 $-1 #
coedge $-1 -1 $-1 $236 $318 $153 $228 reversed $151 $-1 #
edge $-1 -1 $-1 $243 -0.35949999999999993 $320 0.35949999999999993 $227 $321 forward @7 unknown #
coedge $-1 -1 $-1 $155 $154 $318 $322 forward $69 $-1 #
edge $-1 -1 $-1 $234 -1.9949999999999999 $320 1.9949999999999999 $226 $323 forward @7 unknown #
coedge $-1 -1 $-1 $239 $238 $155 $232 reversed $223 $-1 #
edge $-1 -1 $-1 $324 -1.9949999999999999 $233 1.9949999999999999 $231 $325 forward @7 unknown #
vertex $-1 -1 $-1 $157 $326 #
vertex $-1 -1 $-1 $245 $327 #
straight-curve $-1 -1 $-1 1.9949999999999999 0 -0.35949999999999993 0 -1 0 I I #
coedge $-1 -1 $-1 $225 $227 $158 $237 reversed $151 $-1 #
edge $-1 -1 $-1 $240 -1.9949999999999999 $243 1.9949999999999999 $236 $328 forward @7 unknown #
coedge $-1 -1 $-1 $231 $159 $164 $246 forward $223 $-1 #
coedge $-1 -1 $-1 $159 $231 $225 $319 reversed $223 $-1 #
vertex $-1 -1 $-1 $160 $329 #
straight-curve $-1 -1 $-1 0 1.9949999999999999 0.35949999999999993 -1 0 0 I I #
coedge $-1 -1 $-1 $161 $226 $163 $245 reversed $101 $-1 #
vertex $-1 -1 $-1 $237 $330 #
straight-curve $-1 -1 $-1 0 -1.9949999999999999 0.35949999999999993 1 0 0 I I #
edge $-1 -1 $-1 $166 -0.35949999999999993 $234 0.35949999999999993 $163 $331 forward @7 unknown #
edge $-1 -1 $-1 $167 -0.35949999999999993 $233 0.35949999999999993 $164 $332 forward @7 unknown #
point $-1 -1 $-1 1.9949999999999999 -1.9949999999999999 0.35949999999999993 #
point $-1 -1 $-1 1.9949999999999999 1.9949999999999999 0.35949999999999993 #
vertex $-1 -1 $-1 $170 $333 #
ellipse-curve $-1 -1 $-1 0 0 0.34949999999999992 0 0 1 1.3449999999999998 0 0 1 I I #
point $-1 -1 $-1 1.3449999999999998 0 -0.34949999999999992 #
face $-1 -1 $-1 $334 $283 $27 $-1 $335 reversed single #
loop $-1 -1 $-1 $-1 $267 $173 #
plane-surface $-1 -1 $-1 1.9949999999999999 0 0 -1 0 0 0 0 1 forward_v I I I I #
coedge $-1 -1 $-1 $260 $336 $337 $338 reversed $174 $-1 #
coedge $-1 -1 $-1 $339 $175 $340 $341 reversed $114 $-1 #
coedge $-1 -1 $-1 $175 $339 $179 $268 forward $114 $-1 #
coedge $-1 -1 $-1 $342 $343 $175 $259 forward $344 $-1 #
edge $-1 -1 $-1 $345 -1.5707963267948966 $272 0 $258 $273 forward @7 unknown #
coedge $-1 -1 $-1 $346 $255 $347 $261 reversed $174 $-1 #
edge $-1 -1 $-1 $265 -0.71900000000000008 $348 -2.2204460492503131e-016 $347 $349 forward @7 unknown #
coedge $-1 -1 $-1 $263 $177 $281 $284 forward $264 $-1 #
coedge $-1 -1 $-1 $177 $262 $350 $351 forward $264 $-1 #
loop $-1 -1 $-1 $-1 $177 $352 #
vertex $-1 -1 $-1 $353 $354 #
ellipse-curve $-1 -1 $-1 -7.479557850087911e-033 -1.1015494072452725e-016 0.35949999999999993 0 0 -1 1.9949999999999999 0 0 1 I I #
coedge $-1 -1 $-1 $355 $356 $357 $268 forward $253 $-1 #
edge $-1 -1 $-1 $277 -0.71900000000000008 $272 -2.2204460492503131e-016 $267 $358 forward @7 unknown #
coedge $-1 -1 $-1 $270 $180 $359 $286 forward $271 $-1 #
coedge $-1 -1 $-1 $180 $269 $355 $360 forward $271 $-1 #
loop $-1 -1 $-1 $-1 $180 $361 #
vertex $-1 -1 $-1 $362 $363 #
ellipse-curve $-1 -1 $-1 -7.479557850087911e-033 -1.1015494072452725e-016 -0.35949999999999993 0 0 1 1.9949999999999999 0 0 1 I I #
coedge $-1 -1 $-1 $275 $182 $356 $364 forward $276 $-1 #
coedge $-1 -1 $-1 $182 $274 $365 $366 forward $276 $-1 #
loop $-1 -1 $-1 $-1 $182 $367 #
vertex $-1 -1 $-1 $364 $368 #
coedge $-1 -1 $-1 $369 $370 $184 $279 forward $371 $-1 #
edge $-1 -1 $-1 $187 1.5707963267948966 $348 3.1415926535897931 $278 $273 forward @7 unknown #
coedge $-1 -1 $-1 $372 $185 $370 $373 reversed $283 $-1 #
coedge $-1 -1 $-1 $185 $372 $262 $284 reversed $283 $-1 #
coedge $-1 -1 $-1 $365 $359 $79 $119 reversed $374 $-1 #
loop $-1 -1 $-1 $-1 $185 $252 #
edge $-1 -1 $-1 $186 7.479557850087911e-033 $375 1.9949999999999999 $281 $376 forward @7 unknown #
point $-1 -1 $-1 -7.479557850087911e-033 1.9949999999999999 0.35949999999999993 #
edge $-1 -1 $-1 $187 -7.479557850087911e-033 $377 1.9949999999999999 $359 $378 forward @7 unknown #
point $-1 -1 $-1 -7.479557850087911e-033 1.9949999999999999 -0.35949999999999993 #
loop $-1 -1 $-1 $-1 $195 $120 #
coedge $-1 -1 $-1 $289 $289 $193 $290 forward $189 $-1 #
edge $379 -1 $-1 $380 -3.1415926535897931 $380 3.1415926535897931 $193 $381 forward @7 unknown #
vertex $-1 -1 $-1 $194 $382 #
ellipse-curve $-1 -1 $-1 -7.479557850087911e-033 -1.1015494072452725e-016 -0.35950000000000104 0 0 1 1.9949999999999999 0 0 1 I I #
convexity-sys-attrib $-1 -1 $-1 $-1 $196 #
vertex $-1 -1 $-1 $196 $383 #
ellipse-curve $-1 -1 $-1 0 -1.1015494072452725e-016 0.22449999999999903 0 0 -1 -1.4684999999999997 0 0 1 I I #
point $-1 -1 $-1 -1.4684999999999997 -1.1015494072452725e-016 -0.35950000000000015 #
model_id-kcp-attrib $-1 -1 $-1 $-1 $200 1 1021323425 1021323425 -1524105215 8 #
face $384 -1 $-1 $310 $307 $9 $-1 $385 forward single #
loop $-1 -1 $-1 $386 $387 $200 #
torus-surface $-1 -1 $-1 0 -0.001 -3.2430000000000003 0 0 -1 1.9949999999999999 0.024999999999999998 1 0 0 forward_v I I I I #
coedge $-1 -1 $-1 $301 $301 $388 $389 forward $201 $-1 #
coedge $-1 -1 $-1 $302 $302 $203 $303 reversed $390 $-1 #
edge $391 -1 $-1 $392 -3.1415926535897931 $392 3.1415926535897931 $203 $393 forward @7 unknown #
attrib_edge_convexity-kcp-attrib $-1 -1 $394 $-1 $205 1 #
vertex $395 -1 $-1 $205 $396 #
ellipse-curve $-1 -1 $-1 0 -0.001 -3.2280000000000002 0 0 -1 1.3449999999999998 0 0 1 I I #
loop $-1 -1 $-1 $397 $206 $298 #
vertex $-1 -1 $-1 $207 $398 #
ellipse-curve $-1 -1 $-1 0 -0.001 -3.2080000000000002 0 0 1 1.9949999999999999 0 0 1 I I #
face $399 -1 $-1 $218 $390 $9 $-1 $400 reversed single #
point $-1 -1 $-1 1.9269999999999998 -0.001 -3.2080000000000002 #
convexity-sys-attrib $-1 -1 $-1 $211 $138 #
point $-1 -1 $-1 -1.4684999999999997 -0.001 -3.343 #
model_id-kcp-attrib $-1 -1 $-1 $-1 $217 1 1021323425 1021323425 -1524105215 14 #
model_id-kcp-attrib $-1 -1 $-1 $-1 $218 1 1021323425 1021323425 -1524105215 11 #
cone-surface $-1 -1 $-1 0 -0.001 -3.1699999999999999 0 0 -1 -1.3449999999999998 0 0 1 I I 0 1 1.3449999999999998 forward I I I I #
plane-surface $-1 -1 $-1 1.9949999999999999 0 0 -1 0 0 0 0 1 forward_v I I I I #
coedge $-1 -1 $-1 $227 $225 $229 $322 reversed $151 $-1 #
edge $-1 -1 $-1 $240 -0.35949999999999993 $324 0.35949999999999993 $239 $401 forward @7 unknown #
vertex $-1 -1 $-1 $322 $402 #
straight-curve $-1 -1 $-1 -1.9949999999999999 -1.9949999999999999 0 0 0 -1 I I #
edge $-1 -1 $-1 $320 -1.9949999999999999 $324 1.9949999999999999 $318 $403 forward @7 unknown #
straight-curve $-1 -1 $-1 0 -1.9949999999999999 -0.35949999999999993 -1 0 0 I I #
vertex $-1 -1 $-1 $232 $404 #
straight-curve $-1 -1 $-1 0 1.9949999999999999 -0.35949999999999993 1 0 0 I I #
point $-1 -1 $-1 1.9949999999999999 1.9949999999999999 -0.35949999999999993 #
point $-1 -1 $-1 1.9949999999999999 -1.9949999999999999 -0.35949999999999993 #
straight-curve $-1 -1 $-1 -1.9949999999999999 0 0.35949999999999993 0 -1 0 I I #
point $-1 -1 $-1 -1.9949999999999999 1.9949999999999999 0.35949999999999993 #
point $-1 -1 $-1 -1.9949999999999999 -1.9949999999999999 0.35949999999999993 #
straight-curve $-1 -1 $-1 1.9949999999999999 -1.9949999999999999 0 0 0 -1 I I #
straight-curve $-1 -1 $-1 1.9949999999999999 1.9949999999999999 0 0 0 -1 I I #
point $-1 -1 $-1 1.3449999999999998 0 0.34949999999999992 #
face $-1 -1 $-1 $405 $406 $27 $-1 $407 reversed single #
plane-surface $-1 -1 $-1 0 1.9949999999999999 0 0 -1 0 0 0 -1 forward_v I I I I #
coedge $-1 -1 $-1 $255 $346 $256 $341 forward $174 $-1 #
coedge $-1 -1 $-1 $408 $409 $255 $338 forward $410 $-1 #
edge $-1 -1 $-1 $348 -3.1415926535897931 $345 -1.5707963267948966 $337 $273 forward @7 unknown #
coedge $-1 -1 $-1 $257 $256 $411 $412 reversed $114 $-1 #
coedge $-1 -1 $-1 $413 $414 $415 $341 forward $416 $-1 #
edge $-1 -1 $-1 $417 -0.71900000000000008 $345 -2.2204460492503131e-016 $340 $418 forward @7 unknown #
coedge $-1 -1 $-1 $343 $258 $419 $362 forward $344 $-1 #
coedge $-1 -1 $-1 $258 $342 $413 $420 forward $344 $-1 #
loop $-1 -1 $-1 $-1 $258 $421 #
vertex $-1 -1 $-1 $422 $423 #
coedge $-1 -1 $-1 $336 $260 $424 $425 reversed $174 $-1 #
coedge $-1 -1 $-1 $426 $427 $428 $261 forward $406 $-1 #
vertex $-1 -1 $-1 $429 $430 #
straight-curve $-1 -1 $-1 -1.9949999999999999 -1.1015494072452725e-016 -0.35950000000000015 0 0 -1 I I #
coedge $-1 -1 $-1 $431 $428 $263 $351 reversed $432 $-1 #
edge $-1 -1 $-1 $375 -1.9949999999999999 $265 1.1015494072452725e-016 $350 $433 forward @7 unknown #
face $-1 -1 $-1 $367 $264 $27 $-1 $434 forward single #
edge $-1 -1 $-1 $265 1.1015494072452725e-016 $435 1.9949999999999999 $427 $433 forward @7 unknown #
point $-1 -1 $-1 -1.9949999999999999 -1.1015494072452725e-016 0.35949999999999993 #
coedge $-1 -1 $-1 $436 $267 $270 $360 reversed $253 $-1 #
coedge $-1 -1 $-1 $267 $436 $274 $364 reversed $253 $-1 #
coedge $-1 -1 $-1 $437 $419 $257 $268 reversed $438 $-1 #
straight-curve $-1 -1 $-1 1.9949999999999999 -1.1015494072452725e-016 -0.35950000000000015 0 0 -1 I I #
coedge $-1 -1 $-1 $282 $439 $269 $286 reversed $374 $-1 #
edge $-1 -1 $-1 $377 -1.9949999999999999 $272 1.1015494072452725e-016 $355 $440 forward @7 unknown #
face $-1 -1 $-1 $441 $271 $27 $-1 $442 reversed single #
edge $-1 -1 $-1 $272 1.1015494072452725e-016 $443 1.9949999999999999 $419 $440 forward @7 unknown #
point $-1 -1 $-1 1.9949999999999999 -1.1015494072452725e-016 -0.35949999999999993 #
edge $-1 -1 $-1 $277 -1.1015494072452725e-016 $444 1.9949999999999999 $356 $445 forward @7 unknown #
coedge $-1 -1 $-1 $439 $282 $275 $366 reversed $374 $-1 #
edge $-1 -1 $-1 $444 -1.9949999999999999 $186 7.479557850087911e-033 $365 $376 forward @7 unknown #
face $-1 -1 $-1 $446 $276 $27 $-1 $434 forward single #
point $-1 -1 $-1 1.9949999999999999 -1.1015494072452725e-016 0.35949999999999993 #
coedge $-1 -1 $-1 $370 $278 $447 $429 forward $371 $-1 #
coedge $-1 -1 $-1 $278 $369 $280 $373 forward $371 $-1 #
loop $-1 -1 $-1 $-1 $278 $441 #
coedge $-1 -1 $-1 $281 $280 $431 $448 reversed $283 $-1 #
edge $-1 -1 $-1 $449 -1.9949999999999999 $187 -7.479557850087911e-033 $280 $378 forward @7 unknown #
loop $-1 -1 $-1 $-1 $282 $450 #
vertex $-1 -1 $-1 $284 $451 #
straight-curve $-1 -1 $-1 0 1.9949999999999999 0.35949999999999993 -1 0 0 I I #
vertex $-1 -1 $-1 $360 $452 #
straight-curve $-1 -1 $-1 0 1.9949999999999999 -0.35949999999999993 1 0 0 I I #
convexity-sys-attrib $-1 -1 $-1 $-1 $290 #
vertex $-1 -1 $-1 $290 $453 #
ellipse-curve $-1 -1 $-1 -7.479557850087911e-033 -1.1015494072452725e-016 0.22449999999999903 0 0 1 1.9949999999999999 0 0 1 I I #
point $-1 -1 $-1 -1.9949999999999999 -3.5446390831209151e-016 -0.35950000000000104 #
point $-1 -1 $-1 -1.4684999999999997 -1.1015494072452725e-016 0.22449999999999992 #
model_id-kcp-attrib $-1 -1 $-1 $-1 $298 1 1021323425 1021323425 -1524105215 9 #
cone-surface $-1 -1 $-1 0 -0.001 -3.1699999999999999 0 0 -1 -1.9949999999999999 0 0 1 I I 0 1 1.9949999999999999 forward I I I I #
loop $-1 -1 $-1 $-1 $388 $200 #
coedge $-1 -1 $-1 $387 $387 $454 $455 forward $299 $-1 #
coedge $-1 -1 $-1 $388 $388 $301 $389 reversed $386 $-1 #
edge $-1 -1 $-1 $456 -3.1415926535897931 $456 3.1415926535897931 $388 $457 forward @7 unknown #
loop $-1 -1 $-1 $208 $302 $310 #
attrib_edge_convexity-kcp-attrib $-1 -1 $458 $-1 $303 2 #
vertex $-1 -1 $-1 $303 $459 #
ellipse-curve $-1 -1 $-1 0 -0.001 -3.2280000000000011 0 0 1 1.8923589838486197 0 0 1 I I #
convexity-sys-attrib $-1 -1 $-1 $304 $205 #
model_id-kcp-attrib $-1 -1 $-1 $-1 $305 1 1021323425 1021323425 -1524105215 18 #
point $-1 -1 $-1 1.3449999999999998 -0.001 -3.2280000000000002 #
loop $-1 -1 $-1 $-1 $454 $298 #
point $-1 -1 $-1 -1.9949999999999999 -0.001 -3.2080000000000002 #
model_id-kcp-attrib $-1 -1 $-1 $-1 $310 1 1021323425 1021323425 -1524105215 10 #
cone-surface $-1 -1 $-1 0 -0.001 -3.2080000000000002 0 0 1 1.9269999999999998 0 0 1 I I 0.86602540378443704 0.500000000000003 1.9269999999999998 forward I I I I #
straight-curve $-1 -1 $-1 -1.9949999999999999 1.9949999999999999 0 0 0 -1 I I #
point $-1 -1 $-1 -1.9949999999999999 -1.9949999999999999 -0.35949999999999993 #
straight-curve $-1 -1 $-1 -1.9949999999999999 0 -0.35949999999999993 0 1 0 I I #
point $-1 -1 $-1 -1.9949999999999999 1.9949999999999999 -0.35949999999999993 #
face $-1 -1 $-1 $352 $460 $27 $-1 $434 forward single #
loop $-1 -1 $-1 $-1 $347 $334 #
plane-surface $-1 -1 $-1 -1.9949999999999999 0 0 1 0 0 0 0 -1 forward_v I I I I #
coedge $-1 -1 $-1 $409 $337 $461 $422 forward $410 $-1 #
coedge $-1 -1 $-1 $337 $408 $426 $462 forward $410 $-1 #
loop $-1 -1 $-1 $-1 $337 $463 #
coedge $-1 -1 $-1 $464 $465 $339 $412 forward $466 $-1 #
edge $-1 -1 $-1 $277 0 $417 1.5707963267948966 $411 $266 forward @7 unknown #
coedge $-1 -1 $-1 $467 $340 $343 $420 reversed $416 $-1 #
coedge $-1 -1 $-1 $340 $467 $464 $468 reversed $416 $-1 #
coedge $-1 -1 $-1 $469 $461 $336 $341 reversed $470 $-1 #
loop $-1 -1 $-1 $-1 $340 $471 #
vertex $-1 -1 $-1 $468 $472 #
straight-curve $-1 -1 $-1 -7.479557850087911e-033 -1.9949999999999999 -0.35950000000000015 0 0 -1 I I #
coedge $-1 -1 $-1 $357 $473 $342 $362 reversed $438 $-1 #
edge $-1 -1 $-1 $443 -1.9949999999999999 $345 7.479557850087911e-033 $413 $474 forward @7 unknown #
face $-1 -1 $-1 $361 $344 $27 $-1 $442 reversed single #
edge $-1 -1 $-1 $345 7.479557850087911e-033 $475 1.9949999999999999 $461 $474 forward @7 unknown #
point $-1 -1 $-1 -7.479557850087911e-033 -1.9949999999999999 -0.35949999999999993 #
coedge $-1 -1 $-1 $476 $477 $346 $425 forward $460 $-1 #
edge $-1 -1 $-1 $417 1.5707963267948966 $265 3.1415926535897931 $424 $266 forward @7 unknown #
coedge $-1 -1 $-1 $478 $347 $409 $462 reversed $406 $-1 #
coedge $-1 -1 $-1 $347 $478 $476 $353 reversed $406 $-1 #
coedge $-1 -1 $-1 $350 $447 $176 $261 reversed $432 $-1 #
edge $-1 -1 $-1 $348 -1.1015494072452725e-016 $449 1.9949999999999999 $447 $479 forward @7 unknown #
point $-1 -1 $-1 -1.9949999999999999 -1.1015494072452725e-016 -0.35949999999999993 #
coedge $-1 -1 $-1 $447 $350 $372 $448 forward $432 $-1 #
loop $-1 -1 $-1 $-1 $428 $480 #
straight-curve $-1 -1 $-1 -1.9949999999999999 0 0.35949999999999993 0 -1 0 I I #
plane-surface $-1 -1 $-1 0 0 0.35949999999999993 0 0 1 1 0 0 forward_v I I I I #
vertex $-1 -1 $-1 $353 $481 #
coedge $-1 -1 $-1 $356 $355 $439 $482 reversed $253 $-1 #
coedge $-1 -1 $-1 $473 $357 $465 $483 reversed $438 $-1 #
loop $-1 -1 $-1 $-1 $357 $484 #
coedge $-1 -1 $-1 $359 $365 $436 $482 forward $374 $-1 #
straight-curve $-1 -1 $-1 1.9949999999999999 0 -0.35949999999999993 0 -1 0 I I #
face $-1 -1 $-1 $485 $371 $27 $-1 $442 reversed single #
plane-surface $-1 -1 $-1 0 0 -0.35949999999999993 0 0 1 1 0 0 forward_v I I I I #
vertex $-1 -1 $-1 $486 $487 #
vertex $-1 -1 $-1 $364 $488 #
straight-curve $-1 -1 $-1 1.9949999999999999 0 0.35949999999999993 0 1 0 I I #
face $-1 -1 $-1 $471 $466 $27 $-1 $434 forward single #
coedge $-1 -1 $-1 $428 $431 $369 $429 reversed $432 $-1 #
edge $-1 -1 $-1 $375 -0.35949999999999993 $449 0.35949999999999993 $372 $489 forward @7 unknown #
vertex $-1 -1 $-1 $373 $490 #
face $-1 -1 $-1 $484 $374 $27 $-1 $335 reversed single #
point $-1 -1 $-1 -1.9949999999999999 1.9949999999999999 0.35949999999999993 #
point $-1 -1 $-1 1.9949999999999999 1.9949999999999999 -0.35949999999999993 #
point $-1 -1 $-1 -1.9949999999999999 -3.5446390831209151e-016 0.22449999999999903 #
coedge $-1 -1 $-1 $454 $454 $387 $455 reversed $397 $-1 #
edge $-1 -1 $-1 $491 -3.1415926535897931 $491 3.1415926535897931 $454 $492 forward @7 unknown #
vertex $-1 -1 $-1 $389 $493 #
ellipse-curve $-1 -1 $-1 0 -0.001 -3.2680000000000002 0 0 -1 1.9949999999999999 0 0 1 I I #
convexity-sys-attrib $-1 -1 $-1 $391 $303 #
point $-1 -1 $-1 -1.8923589838486197 -0.001 -3.2280000000000011 #
loop $-1 -1 $-1 $-1 $424 $405 #
coedge $-1 -1 $-1 $415 $494 $408 $422 reversed $470 $-1 #
edge $-1 -1 $-1 $475 -1.9949999999999999 $348 -1.1015494072452725e-016 $426 $479 forward @7 unknown #
face $-1 -1 $-1 $421 $410 $27 $-1 $442 reversed single #
coedge $-1 -1 $-1 $465 $411 $414 $468 forward $466 $-1 #
coedge $-1 -1 $-1 $411 $464 $437 $483 forward $466 $-1 #
loop $-1 -1 $-1 $-1 $411 $446 #
coedge $-1 -1 $-1 $414 $413 $473 $486 reversed $416 $-1 #
edge $-1 -1 $-1 $417 -7.479557850087911e-033 $495 1.9949999999999999 $414 $496 forward @7 unknown #
coedge $-1 -1 $-1 $494 $415 $477 $497 reversed $470 $-1 #
loop $-1 -1 $-1 $-1 $415 $485 #
face $-1 -1 $-1 $463 $416 $27 $-1 $498 reversed single #
point $-1 -1 $-1 -7.479557850087911e-033 -1.9949999999999999 0.35949999999999993 #
coedge $-1 -1 $-1 $419 $437 $467 $486 forward $438 $-1 #
straight-curve $-1 -1 $-1 0 -1.9949999999999999 -0.35949999999999993 -1 0 0 I I #
vertex $-1 -1 $-1 $462 $499 #
coedge $-1 -1 $-1 $477 $424 $427 $353 forward $460 $-1 #
coedge $-1 -1 $-1 $424 $476 $469 $497 forward $460 $-1 #
coedge $-1 -1 $-1 $427 $426 $494 $500 reversed $406 $-1 #
straight-curve $-1 -1 $-1 -1.9949999999999999 0 -0.35949999999999993 0 1 0 I I #
face $-1 -1 $-1 $450 $432 $27 $-1 $407 reversed single #
point $-1 -1 $-1 -1.9949999999999999 -1.9949999999999999 0.35949999999999993 #
edge $-1 -1 $-1 $444 -0.35949999999999993 $377 0.35949999999999993 $436 $501 forward @7 unknown #
edge $-1 -1 $-1 $495 -1.9949999999999999 $277 -1.1015494072452725e-016 $437 $445 forward @7 unknown #
face $-1 -1 $-1 $-1 $438 $27 $-1 $254 reversed single #
face $-1 -1 $-1 $480 $470 $27 $-1 $498 reversed single #
edge $-1 -1 $-1 $495 -0.35949999999999993 $443 0.35949999999999993 $473 $502 forward @7 unknown #
point $-1 -1 $-1 1.9949999999999999 -1.9949999999999999 -0.35949999999999993 #
point $-1 -1 $-1 1.9949999999999999 1.9949999999999999 0.35949999999999993 #
straight-curve $-1 -1 $-1 -1.9949999999999999 1.9949999999999999 0 0 0 -1 I I #
point $-1 -1 $-1 -1.9949999999999999 1.9949999999999999 -0.35949999999999993 #
vertex $-1 -1 $-1 $455 $503 #
ellipse-curve $-1 -1 $-1 0 -0.001 -3.218 0 0 -1 1.9949999999999999 0 0 1 I I #
point $-1 -1 $-1 -1.9949999999999999 -0.001 -3.2680000000000002 #
coedge $-1 -1 $-1 $461 $469 $478 $500 forward $470 $-1 #
vertex $-1 -1 $-1 $483 $504 #
straight-curve $-1 -1 $-1 0 -1.9949999999999999 0.35949999999999993 1 0 0 I I #
edge $-1 -1 $-1 $435 -1.9949999999999999 $417 -7.479557850087911e-033 $469 $496 forward @7 unknown #
plane-surface $-1 -1 $-1 0 -1.9949999999999999 0 0 1 0 0 0 1 forward_v I I I I #
point $-1 -1 $-1 -1.9949999999999999 -1.9949999999999999 -0.35949999999999993 #
edge $-1 -1 $-1 $435 -0.35949999999999993 $475 0.35949999999999993 $478 $505 forward @7 unknown #
straight-curve $-1 -1 $-1 1.9949999999999999 1.9949999999999999 0 0 0 -1 I I #
straight-curve $-1 -1 $-1 1.9949999999999999 -1.9949999999999999 0 0 0 -1 I I #
point $-1 -1 $-1 -1.9949999999999999 -0.001 -3.218 #
point $-1 -1 $-1 1.9949999999999999 -1.9949999999999999 0.35949999999999993 #
straight-curve $-1 -1 $-1 -1.9949999999999999 -1.9949999999999999 0 0 0 -1 I I #
End-of-ACIS-data 