106 0 1 0           
body $-1 $1 $-1 $2 #
lump $-1 $-1 $3 $0 #
transform $-1 -0.70710678118654746 0 0.70710678118654746 0 1 0 -0.70710678118654746 0 -0.70710678118654746 4.6457 0 5.7707 1 0 0 0 #
shell $-1 $-1 $-1 $4 $1 #
face $-1 $5 $6 $3 $-1 $7 reversed single #
face $-1 $8 $9 $3 $-1 $10 forward single #
loop $-1 $-1 $11 $4 #
plane-surface $-1 -0.6892974684416010023 -1.5625 0 0 1 0 0 0 1 0 I I I I #
face $-1 $12 $13 $3 $-1 $14 forward single #
loop $-1 $-1 $15 $5 #
plane-surface $-1 -0.6892974684416010023 1.5625 0 0 1 0 0 0 1 0 I I I I #
coedge $-1 $11 $11 $16 $17 0 $6 $-1 #
face $-1 $18 $19 $3 $-1 $20 forward single #
loop $-1 $21 $22 $8 #
plane-surface $-1 0 0 -0.3987499999999999933 0 0 -1 -1 0 0 0 I I I I #
coedge $-1 $15 $15 $23 $24 1 $9 $-1 #
coedge $-1 $16 $16 $11 $17 1 $25 $-1 #
edge $-1 $26 $26 $16 $27 0 #
face $-1 $28 $29 $3 $-1 $20 forward single #
loop $-1 $-1 $30 $12 #
plane-surface $-1 0 0 -0.4000000000000000222 0 0 -1 -1 0 0 0 I I I I #
loop $-1 $-1 $31 $8 #
coedge $-1 $22 $22 $32 $33 1 $13 $-1 #
coedge $-1 $23 $23 $15 $24 0 $34 $-1 #
edge $-1 $35 $35 $23 $36 0 #
loop $-1 $37 $16 $38 #
vertex $-1 $17 $39 #
ellipse-curve $-1 -0.4060000000000000275 -1.5625 -0.3400000000000000244 0 -1 0 -0.09500000000000000111 0 0 1 I I #
face $-1 $40 $41 $3 $-1 $20 forward single #
loop $-1 $-1 $42 $18 #
coedge $-1 $30 $30 $43 $44 1 $19 $-1 #
coedge $-1 $31 $31 $45 $46 1 $21 $-1 #
coedge $-1 $32 $32 $22 $33 0 $47 $-1 #
edge $-1 $48 $48 $32 $49 0 #
loop $-1 $50 $23 $51 #
vertex $-1 $24 $52 #
ellipse-curve $-1 -0.4060000000000000275 1.5625 -0.3400000000000000244 0 -1 0 0.09500000000000000111 0 0 1 I I #
loop $-1 $-1 $53 $38 #
face $-1 $54 $25 $3 $-1 $55 reversed single #
point $-1 -0.3109999999999999987 -1.5625 -0.3400000000000000244 #
face $-1 $56 $57 $3 $-1 $58 reversed single #
loop $-1 $-1 $59 $28 #
coedge $-1 $42 $42 $60 $61 1 $29 $-1 #
coedge $-1 $43 $43 $30 $44 0 $62 $-1 #
edge $-1 $63 $63 $43 $64 0 #
coedge $-1 $45 $45 $31 $46 0 $65 $-1 #
edge $-1 $66 $66 $45 $67 0 #
loop $-1 $68 $32 $69 #
vertex $-1 $33 $70 #
ellipse-curve $-1 0 -1.875 -0.3987499999999999933 0 0 -1 -0.140625 0 0 1 I I #
loop $-1 $-1 $71 $51 #
face $-1 $72 $34 $3 $-1 $73 reversed single #
point $-1 -0.3109999999999999987 1.5625 -0.3400000000000000244 #
coedge $-1 $53 $53 $74 $75 0 $37 $-1 #
face $-1 $76 $77 $3 $-1 $78 reversed single #
cone-surface $-1 -0.4060000000000000275 -2.125 -0.3400000000000000244 0 1 0 0.09500000000000000111 0 0 1 I I 0 1 0 I I I I #
face $-1 $79 $80 $3 $-1 $81 reversed single #
loop $-1 $-1 $82 $40 #
plane-surface $-1 2.233999999999999986 -0.0625 -0.6500000000000000222 0 -1 0 0 0 -1 0 I I I I #
coedge $-1 $59 $59 $83 $84 1 $41 $-1 #
coedge $-1 $60 $60 $42 $61 0 $85 $-1 #
edge $-1 $86 $86 $60 $87 0 #
loop $-1 $88 $43 $89 #
vertex $-1 $44 $90 #
ellipse-curve $-1 0 1.094000000000000083 -0.4000000000000000222 0 0 1 0.05999999999999999778 0 0 1 I I #
loop $-1 $91 $45 $92 #
vertex $-1 $46 $93 #
ellipse-curve $-1 0 -1.875 -0.3987499999999999933 0 0 1 0.203125 0 0 1 I I #
loop $-1 $-1 $94 $69 #
face $-1 $95 $47 $3 $-1 $96 reversed single #
point $-1 -0.140625 -1.875 -0.3987499999999999933 #
coedge $-1 $71 $71 $97 $98 1 $50 $-1 #
face $-1 $99 $100 $3 $-1 $101 reversed single #
cone-surface $-1 -0.4060000000000000275 2.125 -0.3400000000000000244 0 1 0 0.09500000000000000111 0 0 1 I I 0 1 0 I I I I #
coedge $-1 $74 $74 $53 $75 1 $102 $-1 #
edge $-1 $103 $103 $53 $104 0 #
face $-1 $105 $106 $3 $-1 $107 reversed single #
loop $-1 $108 $109 $54 #
cone-surface $-1 0.4060000000000000275 -2.125 -0.3400000000000000244 0 1 0 0.09500000000000000111 0 0 1 I I 0 1 0 I I I I #
face $-1 $110 $111 $3 $-1 $112 reversed single #
loop $-1 $-1 $113 $56 #
plane-surface $-1 2.233999999999999986 0.0625 -0.6500000000000000222 0 0 1 1 0 0 0 I I I I #
coedge $-1 $114 $115 $116 $117 1 $57 $-1 #
coedge $-1 $83 $83 $59 $84 0 $118 $-1 #
edge $-1 $119 $119 $83 $120 0 #
loop $-1 $121 $60 $122 #
vertex $-1 $61 $123 #
ellipse-curve $-1 1.09375 0 -0.4000000000000000222 0 0 1 0.05999999999999999778 0 0 1 I I #
loop $-1 $-1 $124 $89 #
face $-1 $125 $62 $3 $-1 $126 reversed single #
point $-1 0.05999999999999999778 1.094000000000000083 -0.4000000000000000222 #
loop $-1 $-1 $127 $92 #
face $-1 $128 $65 $3 $-1 $129 reversed single #
point $-1 0.203125 -1.875 -0.3987499999999999933 #
coedge $-1 $94 $94 $130 $131 1 $68 $-1 #
face $-1 $132 $133 $3 $-1 $134 reversed single #
cone-surface $-1 0 -1.875 0 0 0 1 -0.140625 0 0 1 I I 0 1 0 I I I I #
coedge $-1 $97 $97 $71 $98 0 $135 $-1 #
edge $-1 $136 $136 $71 $137 0 #
face $-1 $38 $138 $3 $-1 $7 reversed single #
loop $-1 $139 $140 $72 #
cone-surface $-1 0.4060000000000000275 2.125 -0.3400000000000000244 0 1 0 0.09500000000000000111 0 0 1 I I 0 1 0 I I I I #
loop $-1 $141 $74 $142 #
vertex $-1 $75 $143 #
ellipse-curve $-1 -0.4060000000000000275 -2.125 -0.3400000000000000244 0 -1 0 0.09500000000000000111 0 0 1 I I #
face $-1 $-1 $144 $3 $-1 $145 reversed single #
loop $-1 $146 $147 $76 #
plane-surface $-1 0 0 -0.5500000000000000444 0 0 1 1 0 0 0 I I I I #
loop $-1 $-1 $148 $54 #
coedge $-1 $109 $109 $149 $150 1 $77 $-1 #
face $-1 $151 $152 $3 $-1 $153 reversed single #
loop $-1 $-1 $154 $79 #
plane-surface $-1 2.233999999999999986 0.0625 -0.6800000000000000488 0 1 0 0 0 1 0 I I I I #
coedge $-1 $155 $156 $157 $158 1 $80 $-1 #
coedge $-1 $159 $82 $160 $161 1 $57 $-1 #
coedge $-1 $82 $159 $162 $163 0 $57 $-1 #
coedge $-1 $164 $165 $82 $117 0 $166 $-1 #
edge $-1 $167 $168 $82 $169 0 #
loop $-1 $170 $83 $171 #
vertex $-1 $84 $172 #
ellipse-curve $-1 0 -1.094000000000000083 -0.4000000000000000222 0 0 1 0.05999999999999999778 0 0 1 I I #
loop $-1 $-1 $173 $122 #
face $-1 $174 $85 $3 $-1 $175 reversed single #
point $-1 1.153750000000000053 0 -0.4000000000000000222 #
coedge $-1 $124 $124 $176 $177 1 $88 $-1 #
face $-1 $122 $178 $3 $-1 $179 reversed single #
cone-surface $-1 0 1.094000000000000083 -0.5899999999999999689 0 0 -1 0.05999999999999999778 0 0 1 I I 0 1 0 I I I I #
coedge $-1 $127 $127 $180 $181 1 $91 $-1 #
face $-1 $69 $182 $3 $-1 $183 reversed single #
cone-surface $-1 0 -1.875 -0.6800000000000000488 0 0 -1 0.203125 0 0 1 I I 0 1 0 I I I I #
coedge $-1 $130 $130 $94 $131 0 $184 $-1 #
edge $-1 $185 $185 $94 $186 0 #
face $-1 $51 $187 $3 $-1 $10 forward single #
loop $-1 $188 $189 $95 #
cone-surface $-1 0 1.875 0 0 0 1 -0.140625 0 0 1 I I 0 1 0 I I I I #
loop $-1 $190 $97 $191 #
vertex $-1 $98 $192 #
ellipse-curve $-1 -0.4060000000000000275 2.125 -0.3400000000000000244 0 -1 0 -0.09500000000000000111 0 0 1 I I #
loop $-1 $-1 $149 $99 #
loop $-1 $-1 $193 $72 #
coedge $-1 $140 $140 $194 $195 0 $100 $-1 #
loop $-1 $-1 $196 $142 #
face $-1 $197 $198 $3 $-1 $199 reversed single #
point $-1 -0.3109999999999999987 -2.125 -0.3400000000000000244 #
loop $-1 $200 $201 $105 #
cone-surface $-1 0 0 -0.5899999999999999689 0 0 1 1.245000000000000107 0 0 1 I I 0 1 0 I I I I #
loop $-1 $202 $203 $76 #
coedge $-1 $147 $147 $201 $204 0 $106 $-1 #
coedge $-1 $148 $148 $196 $205 0 $108 $-1 #
coedge $-1 $149 $149 $109 $150 0 $138 $-1 #
edge $-1 $206 $206 $109 $207 0 #
face $-1 $208 $209 $3 $-1 $210 forward single #
loop $-1 $211 $212 $110 #
plane-surface $-1 0 0 -0.6800000000000000488 0 0 1 1 0 0 0 I I I I #
coedge $-1 $213 $214 $215 $216 1 $111 $-1 #
coedge $-1 $217 $113 $159 $218 1 $80 $-1 #
coedge $-1 $113 $217 $213 $219 0 $80 $-1 #
coedge $-1 $215 $162 $113 $158 0 $220 $-1 #
edge $-1 $221 $222 $113 $223 0 #
coedge $-1 $115 $114 $155 $218 0 $57 $-1 #
coedge $-1 $224 $225 $114 $161 0 $226 $-1 #
edge $-1 $227 $167 $114 $228 0 #
coedge $-1 $157 $229 $115 $163 1 $220 $-1 #
edge $-1 $221 $168 $115 $230 0 #
coedge $-1 $231 $116 $229 $232 1 $166 $-1 #
coedge $-1 $116 $233 $224 $234 0 $166 $-1 #
loop $-1 $235 $231 $236 #
vertex $-1 $161 $237 #
vertex $-1 $163 $238 #
straight-curve $-1 2.233125556255179944 -0.06249999999999920203 -0.6800000000000000488 1 1.298207211062510005e-15 0 I I #
loop $-1 $-1 $239 $171 #
face $-1 $89 $118 $3 $-1 $240 reversed single #
point $-1 0.05999999999999999778 -1.094000000000000083 -0.4000000000000000222 #
coedge $-1 $173 $173 $241 $242 1 $121 $-1 #
face $-1 $92 $243 $3 $-1 $14 forward single #
cone-surface $-1 1.09375 0 -0.5899999999999999689 0 0 -1 0.05999999999999999778 0 0 1 I I 0 1 0 I I I I #
coedge $-1 $176 $176 $124 $177 0 $244 $-1 #
edge $-1 $245 $245 $176 $246 0 #
loop $-1 $247 $248 $125 #
cone-surface $-1 -1.094000000000000083 0 -0.5899999999999999689 0 0 -1 0.05999999999999999778 0 0 1 I I 0 1 0 I I I I #
coedge $-1 $180 $180 $127 $181 0 $249 $-1 #
edge $-1 $250 $250 $127 $251 0 #
loop $-1 $252 $253 $128 #
cone-surface $-1 0 1.875 -0.6800000000000000488 0 0 -1 0.2030000000000000138 0 0 1 I I 0 1 0 I I I I #
loop $-1 $254 $130 $208 #
vertex $-1 $131 $255 #
ellipse-curve $-1 0 -1.875 0 0 0 -1 0.140625 0 0 1 I I #
loop $-1 $-1 $194 $132 #
loop $-1 $-1 $256 $95 #
coedge $-1 $189 $189 $257 $258 0 $133 $-1 #
loop $-1 $-1 $259 $191 #
face $-1 $142 $260 $3 $-1 $261 reversed single #
point $-1 -0.3109999999999999987 2.125 -0.3400000000000000244 #
coedge $-1 $193 $193 $259 $262 1 $139 $-1 #
coedge $-1 $194 $194 $140 $195 1 $187 $-1 #
edge $-1 $263 $263 $140 $264 0 #
coedge $-1 $196 $196 $148 $205 1 $141 $-1 #
face $-1 $171 $265 $3 $-1 $20 forward single #
loop $-1 $102 $266 $142 #
plane-surface $-1 0.6892974684416010023 -2.125 0 0 1 0 0 0 1 0 I I I I #
loop $-1 $-1 $267 $105 #
coedge $-1 $201 $201 $147 $204 1 $144 $-1 #
loop $-1 $244 $268 $76 #
coedge $-1 $203 $203 $269 $270 1 $146 $-1 #
edge $-1 $271 $271 $201 $272 0 #
edge $-1 $273 $273 $148 $274 0 #
vertex $-1 $150 $275 #
ellipse-curve $-1 0.4060000000000000275 -1.5625 -0.3400000000000000244 0 -1 0 -0.09500000000000000111 0 0 1 I I #
face $-1 $276 $277 $3 $-1 $278 forward single #
loop $-1 $-1 $279 $151 #
cone-surface $-1 0 0 -0.713999999999999968 0 0 1 -2.233999999999999986 0 0 1 I I 0 1 0 I I I I #
loop $-1 $280 $281 $110 #
coedge $-1 $212 $212 $282 $283 0 $152 $-1 #
coedge $-1 $284 $154 $156 $219 1 $111 $-1 #
coedge $-1 $154 $284 $285 $286 0 $111 $-1 #
coedge $-1 $287 $157 $154 $216 0 $220 $-1 #
edge $-1 $222 $288 $154 $289 0 #
coedge $-1 $156 $155 $225 $290 1 $80 $-1 #
edge $-1 $227 $221 $159 $291 0 #
edge $-1 $292 $222 $156 $293 0 #
loop $-1 $-1 $294 $276 #
vertex $-1 $218 $295 #
vertex $-1 $219 $296 #
ellipse-curve $-1 0 0 -0.6500000000000000222 0 0 1 2.233125556255179944 0.06249999999999920203 0 1 I I #
coedge $-1 $297 $160 $165 $234 1 $226 $-1 #
coedge $-1 $160 $298 $217 $290 0 $226 $-1 #
loop $-1 $-1 $299 $300 #
vertex $-1 $161 $301 #
straight-curve $-1 1.623797632095820065 -0.0625 -0.6800000000000000488 1.480297366166870128e-14 -2.498001805406600007e-14 -1 I I #
coedge $-1 $162 $294 $164 $232 0 $220 $-1 #
straight-curve $-1 2.233125556255179944 -0.06249999999999920203 -0.6800000000000000488 0 2.382353573674810133e-14 -1 I I #
coedge $-1 $302 $164 $266 $303 1 $166 $-1 #
edge $-1 $304 $168 $164 $305 0 #
coedge $-1 $165 $302 $306 $307 0 $166 $-1 #
edge $-1 $308 $167 $224 $309 0 #
loop $-1 $310 $311 $236 #
face $-1 $312 $249 $3 $-1 $153 reversed single #
point $-1 1.623797632095820065 -0.0625 -0.6800000000000000488 #
point $-1 2.233125556255179944 -0.06249999999999920203 -0.6800000000000000488 #
coedge $-1 $239 $239 $268 $313 1 $170 $-1 #
cone-surface $-1 0 -1.094000000000000083 -0.5899999999999999689 0 0 -1 0.05999999999999999778 0 0 1 I I 0 1 0 I I I I #
coedge $-1 $241 $241 $173 $242 0 $314 $-1 #
edge $-1 $315 $315 $241 $316 0 #
loop $-1 $317 $257 $174 #
loop $-1 $318 $176 $76 #
vertex $-1 $177 $319 #
ellipse-curve $-1 0 1.094000000000000083 -0.5500000000000000444 0 0 1 -0.05999999999999999778 0 0 1 I I #
loop $-1 $-1 $320 $125 #
coedge $-1 $248 $248 $321 $322 0 $178 $-1 #
loop $-1 $166 $180 $236 #
vertex $-1 $181 $323 #
ellipse-curve $-1 0 -1.875 -0.6800000000000000488 0 0 1 -0.203125 0 0 1 I I #
loop $-1 $-1 $282 $128 #
coedge $-1 $253 $253 $324 $325 0 $182 $-1 #
loop $-1 $-1 $326 $208 #
point $-1 -0.140625 -1.875 0 #
coedge $-1 $256 $256 $326 $327 1 $188 $-1 #
coedge $-1 $257 $257 $189 $258 1 $243 $-1 #
edge $-1 $328 $328 $189 $329 0 #
coedge $-1 $259 $259 $193 $262 0 $190 $-1 #
loop $-1 $135 $330 $191 #
plane-surface $-1 -0.6892974684416010023 2.125 0 0 -1 0 0 0 -1 0 I I I I #
edge $-1 $331 $331 $193 $332 0 #
vertex $-1 $195 $333 #
ellipse-curve $-1 0.4060000000000000275 1.5625 -0.3400000000000000244 0 -1 0 0.09500000000000000111 0 0 1 I I #
loop $-1 $-1 $321 $197 #
coedge $-1 $334 $335 $231 $303 0 $198 $-1 #
coedge $-1 $267 $267 $336 $337 0 $200 $-1 #
coedge $-1 $268 $268 $239 $313 0 $202 $-1 #
coedge $-1 $269 $269 $203 $270 0 $338 $-1 #
edge $-1 $339 $339 $203 $340 0 #
vertex $-1 $204 $341 #
ellipse-curve $-1 0 0 -0.5500000000000000444 0 0 -1 -1.245000000000000107 0 0 1 I I #
vertex $-1 $205 $342 #
ellipse-curve $-1 0.4060000000000000275 -2.125 -0.3400000000000000244 0 -1 0 0.09500000000000000111 0 0 1 I I #
point $-1 0.5010000000000000009 -1.5625 -0.3400000000000000244 #
face $-1 $236 $220 $3 $-1 $210 forward single #
loop $-1 $343 $344 $208 #
plane-surface $-1 0 0 0 0 0 1 1 0 0 0 I I I I #
coedge $-1 $345 $346 $335 $347 1 $209 $-1 #
loop $-1 $348 $349 $110 #
coedge $-1 $350 $351 $330 $352 1 $211 $-1 #
coedge $-1 $282 $282 $212 $283 1 $252 $-1 #
edge $-1 $353 $353 $282 $354 0 #
coedge $-1 $214 $213 $298 $355 0 $111 $-1 #
coedge $-1 $356 $350 $214 $286 1 $211 $-1 #
edge $-1 $357 $288 $214 $358 0 #
coedge $-1 $359 $215 $350 $360 1 $220 $-1 #
vertex $-1 $216 $361 #
straight-curve $-1 2.233125556255179944 0.0625 -0.6800000000000000488 -2.960594732333749723e-14 2.636779683484740157e-14 -1 I I #
edge $-1 $292 $227 $217 $362 0 #
straight-curve $-1 2.233125556255179944 -0.06249999999999990286 -0.6500000000000000222 1 -1.104614907658449932e-15 0 I I #
vertex $-1 $290 $363 #
straight-curve $-1 2.233125556255179944 0.06249999999999920203 -0.6500000000000000222 1 -1.298207211062510005e-15 0 I I #
coedge $-1 $229 $364 $334 $365 0 $220 $-1 #
point $-1 2.233125556255179944 -0.06249999999999990286 -0.6500000000000000222 #
point $-1 2.233125556255179944 0.06249999999999920203 -0.6500000000000000222 #
coedge $-1 $299 $224 $366 $367 1 $226 $-1 #
coedge $-1 $225 $368 $284 $355 1 $226 $-1 #
coedge $-1 $369 $297 $370 $371 0 $226 $-1 #
face $-1 $372 $373 $3 $-1 $374 reversed single #
point $-1 1.623797632095820065 -0.06249999999999929917 -0.6500000000000000222 #
coedge $-1 $233 $231 $346 $375 1 $166 $-1 #
edge $-1 $376 $304 $266 $377 0 #
vertex $-1 $365 $378 #
ellipse-curve $-1 0 0 -0.6800000000000000488 0 0 1 2.233125556255179944 -0.06249999999999920203 0 1 I I #
coedge $-1 $379 $366 $233 $307 1 $380 $-1 #
edge $-1 $381 $308 $306 $382 0 #
vertex $-1 $367 $383 #
ellipse-curve $-1 0 0 -0.6800000000000000488 0 0 1 1.623797632095820065 -0.06249999999999929917 0 1 I I #
loop $-1 $384 $385 $236 #
coedge $-1 $311 $311 $386 $387 1 $235 $-1 #
face $-1 $388 $389 $3 $-1 $390 reversed single #
edge $-1 $391 $391 $268 $392 0 #
loop $-1 $-1 $241 $76 #
vertex $-1 $242 $393 #
ellipse-curve $-1 1.09375 0 -0.5500000000000000444 0 0 1 -0.05999999999999999778 0 0 1 I I #
loop $-1 $-1 $324 $174 #
loop $-1 $314 $394 $76 #
point $-1 0.05999999999999999778 1.094000000000000083 -0.5500000000000000444 #
coedge $-1 $320 $320 $394 $395 1 $247 $-1 #
coedge $-1 $321 $321 $248 $322 1 $265 $-1 #
edge $-1 $396 $396 $248 $397 0 #
point $-1 0.203125 -1.875 -0.6800000000000000488 #
coedge $-1 $324 $324 $253 $325 1 $317 $-1 #
edge $-1 $398 $398 $253 $399 0 #
coedge $-1 $326 $326 $256 $327 0 $254 $-1 #
edge $-1 $400 $400 $256 $401 0 #
vertex $-1 $258 $402 #
ellipse-curve $-1 0 1.875 -0.3987499999999999933 0 0 -1 -0.140625 0 0 1 I I #
coedge $-1 $403 $404 $281 $352 0 $260 $-1 #
vertex $-1 $262 $405 #
ellipse-curve $-1 0.4060000000000000275 2.125 -0.3400000000000000244 0 -1 0 -0.09500000000000000111 0 0 1 I I #
point $-1 0.5010000000000000009 1.5625 -0.3400000000000000244 #
coedge $-1 $406 $266 $294 $365 1 $198 $-1 #
coedge $-1 $266 $406 $279 $347 0 $198 $-1 #
coedge $-1 $336 $336 $267 $337 1 $407 $-1 #
edge $-1 $408 $408 $267 $409 0 #
loop $-1 $-1 $269 $410 #
vertex $-1 $270 $411 #
ellipse-curve $-1 0 0 -0.5500000000000000444 0 0 -1 -0.9375 0 0 1 I I #
point $-1 1.245000000000000107 0 -0.5500000000000000444 #
point $-1 0.5010000000000000009 -2.125 -0.3400000000000000244 #
loop $-1 $412 $413 $208 #
coedge $-1 $344 $344 $414 $415 1 $277 $-1 #
coedge $-1 $416 $279 $417 $418 0 $209 $-1 #
coedge $-1 $279 $419 $302 $375 0 $209 $-1 #
edge $-1 $420 $376 $335 $421 0 #
loop $-1 $422 $423 $110 #
coedge $-1 $349 $349 $424 $425 1 $280 $-1 #
coedge $-1 $285 $281 $287 $360 0 $211 $-1 #
coedge $-1 $281 $426 $427 $428 0 $211 $-1 #
edge $-1 $429 $430 $330 $431 0 #
vertex $-1 $283 $432 #
ellipse-curve $-1 0 1.875 -0.6800000000000000488 0 0 1 -0.2030000000000000138 0 0 1 I I #
edge $-1 $292 $357 $284 $433 0 #
coedge $-1 $426 $285 $368 $434 1 $211 $-1 #
vertex $-1 $355 $435 #
straight-curve $-1 2.233125556255179944 0.0625 -0.6800000000000000488 1 0 0 I I #
coedge $-1 $364 $287 $404 $436 1 $220 $-1 #
edge $-1 $429 $288 $350 $437 0 #
point $-1 2.233125556255179944 0.0625 -0.6800000000000000488 #
ellipse-curve $-1 0 0 -0.6500000000000000222 0 0 -1 1.623797632095820065 -0.06249999999999929917 0 1 I I #
point $-1 1.623797632095820065 0.0625 -0.6500000000000000222 #
coedge $-1 $294 $359 $438 $439 0 $220 $-1 #
edge $-1 $440 $304 $334 $441 0 #
coedge $-1 $306 $442 $297 $367 0 $380 $-1 #
edge $-1 $443 $308 $366 $444 0 #
coedge $-1 $298 $369 $356 $434 0 $226 $-1 #
coedge $-1 $368 $299 $445 $446 0 $226 $-1 #
coedge $-1 $447 $448 $299 $371 1 $449 $-1 #
edge $-1 $443 $450 $370 $451 0 #
face $-1 $410 $452 $3 $-1 $453 forward single #
loop $-1 $226 $454 $300 #
cone-surface $-1 0 0 -0.713999999999999968 0 0 1 -1.625 0 0 1 I I 0 1 0 I I I I #
edge $-1 $381 $376 $302 $455 0 #
vertex $-1 $347 $456 #
straight-curve $-1 0.6892974684416010023 -2.125 -0.6800000000000000488 1 0 0 I I #
point $-1 0.6892974684416010023 -2.125 -0.6800000000000000488 #
coedge $-1 $442 $306 $419 $457 1 $380 $-1 #
loop $-1 $-1 $306 $458 #
vertex $-1 $457 $459 #
straight-curve $-1 -1.623797632095820065 -0.0625 -0.6800000000000000488 1 0 0 I I #
point $-1 -1.623797632095820065 -0.0625 -0.6800000000000000488 #
loop $-1 $460 $461 $236 #
coedge $-1 $385 $385 $462 $463 1 $310 $-1 #
coedge $-1 $386 $386 $311 $387 0 $464 $-1 #
edge $-1 $465 $465 $386 $466 0 #
face $-1 $467 $468 $3 $-1 $469 forward single #
loop $-1 $407 $470 $312 #
plane-surface $-1 0 0 -0.5899999999999999689 0 0 1 1 0 0 0 I I I I #
vertex $-1 $313 $471 #
ellipse-curve $-1 0 -1.094000000000000083 -0.5500000000000000444 0 0 1 -0.05999999999999999778 0 0 1 I I #
point $-1 1.153750000000000053 0 -0.5500000000000000444 #
coedge $-1 $394 $394 $320 $395 0 $318 $-1 #
edge $-1 $472 $472 $394 $473 0 #
vertex $-1 $322 $474 #
ellipse-curve $-1 -1.094000000000000083 0 -0.4000000000000000222 0 0 1 0.05999999999999999778 0 0 1 I I #
vertex $-1 $325 $475 #
ellipse-curve $-1 0 1.875 -0.3987499999999999933 0 0 1 0.2030000000000000138 0 0 1 I I #
vertex $-1 $327 $476 #
ellipse-curve $-1 0 1.875 0 0 0 -1 0.140625 0 0 1 I I #
point $-1 -0.140625 1.875 -0.3987499999999999933 #
coedge $-1 $477 $330 $416 $478 1 $260 $-1 #
coedge $-1 $330 $477 $359 $436 0 $260 $-1 #
point $-1 0.5010000000000000009 2.125 -0.3400000000000000244 #
coedge $-1 $335 $334 $479 $480 1 $198 $-1 #
loop $-1 $-1 $336 $312 #
vertex $-1 $337 $481 #
ellipse-curve $-1 0 0 -0.5899999999999999689 0 0 -1 1.245000000000000107 0 0 1 I I #
face $-1 $482 $483 $3 $-1 $484 reversed single #
point $-1 0.9375 0 -0.5500000000000000444 #
loop $-1 $485 $486 $208 #
coedge $-1 $413 $413 $487 $488 0 $343 $-1 #
coedge $-1 $414 $414 $344 $415 0 $489 $-1 #
edge $-1 $490 $490 $414 $491 0 #
coedge $-1 $427 $345 $403 $478 0 $209 $-1 #
coedge $-1 $479 $492 $345 $418 1 $493 $-1 #
edge $-1 $420 $494 $345 $495 0 #
coedge $-1 $346 $496 $379 $457 0 $209 $-1 #
vertex $-1 $347 $497 #
straight-curve $-1 -0.6892974684416010023 -2.125 -0.6800000000000000488 0 0 -1 I I #
loop $-1 $498 $499 $110 #
coedge $-1 $423 $423 $500 $501 1 $348 $-1 #
coedge $-1 $424 $424 $349 $425 0 $502 $-1 #
edge $-1 $503 $503 $424 $504 0 #
coedge $-1 $351 $356 $505 $506 1 $211 $-1 #
coedge $-1 $507 $416 $351 $428 1 $209 $-1 #
edge $-1 $508 $430 $351 $509 0 #
vertex $-1 $436 $510 #
vertex $-1 $478 $511 #
straight-curve $-1 -0.6892974684416010023 2.125 -0.6800000000000000488 -1 0 0 I I #
point $-1 0.2030000000000000138 1.875 -0.6800000000000000488 #
straight-curve $-1 1.623797632095820065 0.0625 -0.6800000000000000488 0 0 -1 I I #
edge $-1 $512 $357 $368 $513 0 #
point $-1 1.623797632095820065 0.0625 -0.6800000000000000488 #
edge $-1 $514 $429 $404 $515 0 #
ellipse-curve $-1 0 0 -0.6800000000000000488 0 0 -1 2.233125556255179944 0.06249999999999920203 0 1 I I #
coedge $-1 $492 $479 $364 $439 1 $493 $-1 #
edge $-1 $514 $440 $364 $516 0 #
vertex $-1 $365 $517 #
straight-curve $-1 0.6892974684416010023 -2.125 -0.6800000000000000488 1.469412826709770058e-15 0 -1 I I #
coedge $-1 $366 $379 $447 $518 0 $380 $-1 #
vertex $-1 $518 $519 #
straight-curve $-1 -1.623797632095820065 -0.0625 -0.6800000000000000488 -1.480297366166870128e-14 -1.711593829630449877e-14 -1 I I #
coedge $-1 $520 $505 $369 $446 1 $521 $-1 #
edge $-1 $450 $512 $445 $522 0 #
coedge $-1 $523 $370 $442 $518 1 $449 $-1 #
coedge $-1 $370 $523 $520 $524 0 $449 $-1 #
loop $-1 $-1 $523 $525 #
vertex $-1 $524 $526 #
ellipse-curve $-1 0 0 -0.6500000000000000222 0 0 -1 -1.623797632095820065 0.06249999999999929917 0 1 I I #
loop $-1 $527 $528 $372 #
cone-surface $-1 0 0 -0.5600000000000000533 0 0 1 1.625 0 0 1 I I 0.9848077530122080203 0.1736481776669299981 0 I I I I #
coedge $-1 $454 $454 $529 $530 0 $373 $-1 #
ellipse-curve $-1 0 0 -0.6800000000000000488 0 0 1 -0.6892974684416010023 -2.125 0 1 I I #
point $-1 -0.6892974684416010023 -2.125 -0.6800000000000000488 #
edge $-1 $531 $381 $379 $532 0 #
face $-1 $533 $380 $3 $-1 $58 reversed single #
point $-1 -2.233125556255179944 -0.0625 -0.6800000000000000488 #
loop $-1 $-1 $534 $236 #
coedge $-1 $461 $461 $535 $536 1 $384 $-1 #
coedge $-1 $462 $462 $385 $463 0 $537 $-1 #
edge $-1 $538 $538 $462 $539 0 #
loop $-1 $540 $386 $541 #
vertex $-1 $387 $542 #
ellipse-curve $-1 1.675917471975469919 -0.6941877463102740231 -0.6800000000000000488 0 0 -1 -0.1300000000000000044 0 0 1 I I #
face $-1 $543 $544 $3 $-1 $545 reversed single #
loop $-1 $546 $547 $388 #
plane-surface $-1 0 0 -0.3119999999999999996 0 0 1 1 0 0 0 I I I I #
coedge $-1 $470 $470 $528 $548 0 $389 $-1 #
point $-1 0.05999999999999999778 -1.094000000000000083 -0.5500000000000000444 #
vertex $-1 $395 $549 #
ellipse-curve $-1 -1.094000000000000083 0 -0.5500000000000000444 0 0 1 -0.05999999999999999778 0 0 1 I I #
point $-1 -1.03400000000000003 0 -0.4000000000000000222 #
point $-1 0.2030000000000000138 1.875 -0.3987499999999999933 #
point $-1 -0.140625 1.875 0 #
coedge $-1 $404 $403 $492 $550 1 $260 $-1 #
edge $-1 $494 $430 $403 $551 0 #
coedge $-1 $438 $417 $406 $480 0 $493 $-1 #
edge $-1 $420 $440 $406 $552 0 #
point $-1 1.245000000000000107 0 -0.5899999999999999689 #
face $-1 $553 $554 $3 $-1 $555 reversed single #
loop $-1 $338 $556 $410 #
cone-surface $-1 0 0 -0.713999999999999968 0 0 1 -0.9375 0 0 1 I I 0 1 0 I I I I #
loop $-1 $557 $558 $208 #
coedge $-1 $486 $486 $559 $560 0 $412 $-1 #
coedge $-1 $487 $487 $413 $488 1 $561 $-1 #
edge $-1 $562 $562 $487 $563 0 #
loop $-1 $564 $414 $565 #
vertex $-1 $415 $566 #
ellipse-curve $-1 0 0 0 0 0 1 1 0 0 1 I I #
coedge $-1 $417 $438 $477 $550 0 $493 $-1 #
loop $-1 $184 $479 $208 #
vertex $-1 $478 $567 #
ellipse-curve $-1 0 0 0 0 0 -1 -0.6892974684416010023 2.125 0 1 I I #
coedge $-1 $419 $507 $523 $568 0 $209 $-1 #
point $-1 -0.6892974684416010023 -2.125 0 #
loop $-1 $-1 $569 $110 #
coedge $-1 $499 $499 $570 $571 1 $422 $-1 #
coedge $-1 $500 $500 $423 $501 0 $572 $-1 #
edge $-1 $573 $573 $500 $574 0 #
loop $-1 $575 $424 $576 #
vertex $-1 $425 $577 #
ellipse-curve $-1 1.675917471975469919 0.6941877463102720247 -0.6800000000000000488 0 0 -1 -0.1300000000000000044 0 0 1 I I #
coedge $-1 $445 $578 $426 $506 0 $521 $-1 #
edge $-1 $508 $512 $505 $579 0 #
coedge $-1 $496 $427 $578 $580 1 $209 $-1 #
vertex $-1 $580 $581 #
ellipse-curve $-1 0 0 -0.6800000000000000488 0 0 -1 -0.6892974684416010023 2.125 0 1 I I #
point $-1 0.6892974684416010023 2.125 -0.6800000000000000488 #
point $-1 -0.6892974684416010023 2.125 -0.6800000000000000488 #
vertex $-1 $446 $582 #
ellipse-curve $-1 0 0 -0.6800000000000000488 0 0 -1 1.623797632095820065 0.06249999999999929917 0 1 I I #
vertex $-1 $436 $583 #
straight-curve $-1 0.6892974684416010023 2.125 -0.6800000000000000488 0 0 -1 I I #
ellipse-curve $-1 0 0 0 0 0 -1 0.6892974684416010023 -2.125 0 1 I I #
point $-1 0.6892974684416000031 -2.125 0 #
edge $-1 $531 $443 $442 $584 0 #
point $-1 -1.623797632095820065 -0.0624999999999995004 -0.6500000000000000222 #
coedge $-1 $578 $445 $448 $524 1 $521 $-1 #
loop $-1 $-1 $578 $585 #
straight-curve $-1 -1.623797632095820065 0.0625 -0.6800000000000000488 0 0 -1 I I #
coedge $-1 $448 $447 $496 $568 1 $449 $-1 #
edge $-1 $586 $450 $448 $587 0 #
face $-1 $458 $449 $3 $-1 $81 reversed single #
point $-1 -1.623797632095820065 0.0625 -0.6500000000000000222 #
loop $-1 $-1 $529 $372 #
coedge $-1 $528 $528 $470 $548 1 $452 $-1 #
coedge $-1 $529 $529 $454 $530 1 $527 $-1 #
edge $-1 $588 $588 $529 $589 0 #
vertex $-1 $457 $590 #
straight-curve $-1 -2.233125556255179944 -0.0625 -0.6800000000000000488 2.960594732333749723e-14 -2.636779683484740157e-14 -1 I I #
face $-1 $591 $592 $3 $-1 $593 reversed single #
coedge $-1 $534 $534 $594 $595 1 $460 $-1 #
coedge $-1 $535 $535 $461 $536 0 $596 $-1 #
edge $-1 $597 $597 $535 $598 0 #
loop $-1 $599 $462 $600 #
vertex $-1 $463 $601 #
ellipse-curve $-1 -1.675917471975469919 -0.6941877463102720247 -0.6800000000000000488 0 0 -1 -0.1300000000000000044 0 0 1 I I #
loop $-1 $-1 $602 $541 #
face $-1 $191 $464 $3 $-1 $603 reversed single #
point $-1 1.545917471975470026 -0.6941877463102740231 -0.6800000000000000488 #
face $-1 $300 $604 $3 $-1 $605 forward single #
loop $-1 $606 $607 $467 #
plane-surface $-1 0 0 -0.25 0 0 1 1 0 0 0 I I I I #
loop $-1 $-1 $608 $388 #
coedge $-1 $547 $547 $609 $610 0 $468 $-1 #
edge $-1 $611 $611 $470 $612 0 #
point $-1 -1.03400000000000003 0 -0.5500000000000000444 #
edge $-1 $514 $494 $477 $613 0 #
straight-curve $-1 -0.6892974684416010023 2.125 -0.6800000000000000488 0 0 -1 I I #
straight-curve $-1 0.6892974684416000031 -2.125 0 1 0 0 I I #
face $-1 $565 $614 $3 $-1 $615 reversed single #
loop $-1 $616 $617 $482 #
cone-surface $-1 0 0 -0.713999999999999968 0 0 1 -1.0625 0 0 1 I I 0 1 0 I I I I #
coedge $-1 $556 $556 $608 $618 1 $483 $-1 #
loop $-1 $619 $620 $208 #
coedge $-1 $558 $558 $621 $622 0 $485 $-1 #
coedge $-1 $559 $559 $486 $560 1 $623 $-1 #
edge $-1 $624 $624 $559 $625 0 #
loop $-1 $-1 $487 $533 #
vertex $-1 $488 $626 #
ellipse-curve $-1 0.6941877463102730239 -1.675917471975469919 0 0 0 -1 0.1300000000000000044 0 0 1 I I #
loop $-1 $-1 $627 $565 #
face $-1 $585 $489 $3 $-1 $628 reversed single #
point $-1 1 0 0 #
point $-1 -0.6892974684416010023 2.125 0 #
edge $-1 $586 $531 $523 $629 0 #
coedge $-1 $569 $569 $630 $631 1 $498 $-1 #
coedge $-1 $570 $570 $499 $571 0 $632 $-1 #
edge $-1 $633 $633 $570 $634 0 #
loop $-1 $635 $500 $636 #
vertex $-1 $501 $637 #
ellipse-curve $-1 0.6941877463102740231 1.675917471975469919 -0.6800000000000000488 0 0 -1 -0.1300000000000000044 0 0 1 I I #
loop $-1 $-1 $638 $576 #
face $-1 $541 $502 $3 $-1 $639 reversed single #
point $-1 1.545917471975470026 0.6941877463102720247 -0.6800000000000000488 #
coedge $-1 $505 $520 $507 $580 0 $521 $-1 #
straight-curve $-1 -1.623797632095820065 0.0625 -0.6800000000000000488 1 5.921646927653550447e-16 0 I I #
edge $-1 $586 $508 $578 $640 0 #
point $-1 -2.233125556255179944 0.06249999999999959754 -0.6800000000000000488 #
point $-1 -1.623797632095820065 0.0625 -0.6800000000000000488 #
point $-1 0.6892974684416010023 2.125 0 #
straight-curve $-1 -1.623797632095820065 -0.0624999999999995004 -0.6500000000000000222 1 -4.555113021271950277e-16 0 I I #
face $-1 $525 $521 $3 $-1 $112 reversed single #
vertex $-1 $524 $641 #
straight-curve $-1 -1.623797632095820065 0.0625 -0.6500000000000000222 1 1.252656080849790049e-16 0 I I #
vertex $-1 $530 $642 #
ellipse-curve $-1 0 0 -0.5600000000000000533 0 0 1 1.625 0 0 1 I I #
point $-1 -2.233125556255179944 -0.06249999999999920203 -0.6500000000000000222 #
face $-1 $600 $596 $3 $-1 $643 reversed single #
loop $-1 $561 $594 $533 #
cone-surface $-1 0.6941877463102730239 -1.675917471975469919 0 0 0 1 -0.1300000000000000044 0 0 1 I I 0 1 0 I I I I #
coedge $-1 $594 $594 $534 $595 0 $592 $-1 #
edge $-1 $644 $644 $594 $645 0 #
loop $-1 $623 $535 $591 #
vertex $-1 $536 $646 #
ellipse-curve $-1 -0.6941877463102740231 -1.675917471975469919 -0.6800000000000000488 0 0 -1 -0.1300000000000000044 0 0 1 I I #
loop $-1 $-1 $621 $600 #
face $-1 $647 $537 $3 $-1 $648 reversed single #
point $-1 -1.805917471975470034 -0.6941877463102720247 -0.6800000000000000488 #
coedge $-1 $602 $602 $649 $650 1 $540 $-1 #
cone-surface $-1 1.675917471975469919 -0.6941877463102740231 0 0 0 1 -0.1300000000000000044 0 0 1 I I 0 1 0 I I I I #
loop $-1 $651 $652 $543 #
plane-surface $-1 0 0 -0.1400000000000000133 0 0 1 1 0 0 0 I I I I #
loop $-1 $-1 $653 $467 #
coedge $-1 $607 $607 $654 $655 0 $544 $-1 #
coedge $-1 $608 $608 $556 $618 0 $546 $-1 #
coedge $-1 $609 $609 $547 $610 1 $616 $-1 #
edge $-1 $656 $656 $609 $657 0 #
vertex $-1 $548 $658 #
ellipse-curve $-1 0 0 -0.5899999999999999689 0 0 -1 1.454861545411469947 0 0 1 I I #
straight-curve $-1 -0.6892974684416010023 2.125 0 -1 0 0 I I #
loop $-1 $659 $660 $553 #
cone-surface $-1 0 0 -0.713999999999999968 0 0 1 -0.9375 0 0 1 I I 0 1 0 I I I I #
loop $-1 $-1 $609 $482 #
coedge $-1 $617 $617 $653 $661 1 $554 $-1 #
edge $-1 $662 $662 $608 $663 0 #
loop $-1 $664 $665 $208 #
coedge $-1 $620 $620 $666 $667 0 $557 $-1 #
coedge $-1 $621 $621 $558 $622 1 $599 $-1 #
edge $-1 $668 $668 $621 $669 0 #
loop $-1 $-1 $559 $591 #
vertex $-1 $560 $670 #
ellipse-curve $-1 -0.6941877463102740231 -1.675917471975469919 0 0 0 -1 0.1300000000000000044 0 0 1 I I #
point $-1 0.5641877463102730195 -1.675917471975469919 0 #
coedge $-1 $627 $627 $652 $671 1 $564 $-1 #
cone-surface $-1 0 0 -0.713999999999999968 0 0 1 -1 0 0 1 I I 0 1 0 I I I I #
ellipse-curve $-1 0 0 -0.6500000000000000222 0 0 1 -2.233125556255179944 -0.06249999999999920203 0 1 I I #
coedge $-1 $630 $630 $569 $631 0 $672 $-1 #
edge $-1 $673 $673 $630 $674 0 #
loop $-1 $675 $570 $676 #
vertex $-1 $571 $677 #
ellipse-curve $-1 -0.6941877463102720247 1.675917471975469919 -0.6800000000000000488 0 0 -1 -0.1300000000000000044 0 0 1 I I #
loop $-1 $-1 $678 $636 #
face $-1 $576 $572 $3 $-1 $679 reversed single #
point $-1 0.5641877463102740187 1.675917471975469919 -0.6800000000000000488 #
coedge $-1 $638 $638 $680 $681 1 $575 $-1 #
cone-surface $-1 1.675917471975469919 0.6941877463102720247 0 0 0 1 -0.1300000000000000044 0 0 1 I I 0 1 0 I I I I #
straight-curve $-1 -2.233125556255179944 0.06249999999999959754 -0.6800000000000000488 2.960594732333749723e-14 -9.483155002006539664e-15 -1 I I #
point $-1 -2.233125556255179944 0.06249999999999990286 -0.6500000000000000222 #
point $-1 -1.625 0 -0.5600000000000000533 #
cone-surface $-1 -0.6941877463102740231 -1.675917471975469919 0 0 0 1 -0.1300000000000000044 0 0 1 I I 0 1 0 I I I I #
vertex $-1 $595 $682 #
ellipse-curve $-1 0.6941877463102730239 -1.675917471975469919 -0.6800000000000000488 0 0 -1 -0.1300000000000000044 0 0 1 I I #
point $-1 -0.8241877463102740276 -1.675917471975469919 -0.6800000000000000488 #
face $-1 $676 $672 $3 $-1 $683 reversed single #
cone-surface $-1 -1.675917471975469919 -0.6941877463102720247 0 0 0 1 -0.1300000000000000044 0 0 1 I I 0 1 0 I I I I #
coedge $-1 $649 $649 $602 $650 0 $684 $-1 #
edge $-1 $685 $685 $602 $686 0 #
loop $-1 $-1 $687 $543 #
coedge $-1 $652 $652 $627 $671 0 $604 $-1 #
coedge $-1 $653 $653 $617 $661 0 $606 $-1 #
coedge $-1 $654 $654 $607 $655 1 $659 $-1 #
edge $-1 $688 $688 $654 $689 0 #
vertex $-1 $610 $690 #
ellipse-curve $-1 0 0 -0.3119999999999999996 0 0 1 1.0625 0 0 1 I I #
point $-1 -1.454861545411469947 0 -0.5899999999999999689 #
loop $-1 $-1 $654 $553 #
coedge $-1 $660 $660 $687 $691 1 $614 $-1 #
edge $-1 $692 $692 $653 $693 0 #
vertex $-1 $618 $694 #
ellipse-curve $-1 0 0 -0.3119999999999999996 0 0 -1 0.9375 0 0 1 I I #
loop $-1 $695 $696 $208 #
coedge $-1 $665 $665 $697 $698 0 $619 $-1 #
coedge $-1 $666 $666 $620 $667 1 $699 $-1 #
edge $-1 $700 $700 $666 $701 0 #
vertex $-1 $622 $702 #
ellipse-curve $-1 -1.675917471975469919 -0.6941877463102720247 0 0 0 -1 0.1300000000000000044 0 0 1 I I #
point $-1 -0.8241877463102740276 -1.675917471975469919 0 #
edge $-1 $703 $703 $627 $704 0 #
loop $-1 $699 $630 $647 #
vertex $-1 $631 $705 #
ellipse-curve $-1 -1.675917471975469919 0.6941877463102740231 -0.6800000000000000488 0 0 -1 -0.1300000000000000044 0 0 1 I I #
loop $-1 $-1 $697 $676 #
face $-1 $636 $632 $3 $-1 $706 reversed single #
point $-1 -0.8241877463102720291 1.675917471975469919 -0.6800000000000000488 #
coedge $-1 $678 $678 $696 $707 1 $635 $-1 #
cone-surface $-1 0.6941877463102740231 1.675917471975469919 0 0 0 1 -0.1300000000000000044 0 0 1 I I 0 1 0 I I I I #
coedge $-1 $680 $680 $638 $681 0 $695 $-1 #
edge $-1 $708 $708 $638 $709 0 #
point $-1 0.5641877463102730195 -1.675917471975469919 -0.6800000000000000488 #
cone-surface $-1 -1.675917471975469919 0.6941877463102740231 0 0 0 1 -0.1300000000000000044 0 0 1 I I 0 1 0 I I I I #
loop $-1 $493 $649 $208 #
vertex $-1 $650 $710 #
ellipse-curve $-1 1.675917471975469919 -0.6941877463102740231 0 0 0 -1 0.1300000000000000044 0 0 1 I I #
coedge $-1 $687 $687 $660 $691 0 $651 $-1 #
vertex $-1 $655 $711 #
ellipse-curve $-1 0 0 -0.25 0 0 1 0.9375 0 0 1 I I #
point $-1 1.0625 0 -0.3119999999999999996 #
edge $-1 $712 $712 $687 $713 0 #
vertex $-1 $661 $714 #
ellipse-curve $-1 0 0 -0.25 0 0 -1 1.0625 0 0 1 I I #
point $-1 -0.9375 0 -0.3119999999999999996 #
loop $-1 $684 $680 $208 #
coedge $-1 $696 $696 $678 $707 0 $664 $-1 #
coedge $-1 $697 $697 $665 $698 1 $675 $-1 #
edge $-1 $715 $715 $697 $716 0 #
loop $-1 $-1 $666 $647 #
vertex $-1 $667 $717 #
ellipse-curve $-1 -1.675917471975469919 0.6941877463102740231 0 0 0 -1 0.1300000000000000044 0 0 1 I I #
point $-1 -1.805917471975470034 -0.6941877463102720247 0 #
vertex $-1 $671 $718 #
ellipse-curve $-1 0 0 -0.1400000000000000133 0 0 1 1 0 0 1 I I #
point $-1 -1.805917471975470034 0.6941877463102740231 -0.6800000000000000488 #
cone-surface $-1 -0.6941877463102720247 1.675917471975469919 0 0 0 1 -0.1300000000000000044 0 0 1 I I 0 1 0 I I I I #
edge $-1 $719 $719 $678 $720 0 #
vertex $-1 $681 $721 #
ellipse-curve $-1 1.675917471975469919 0.6941877463102720247 0 0 0 -1 0.1300000000000000044 0 0 1 I I #
point $-1 1.545917471975470026 -0.6941877463102740231 0 #
point $-1 0.9375 0 -0.25 #
vertex $-1 $691 $722 #
ellipse-curve $-1 0 0 -0.1400000000000000133 0 0 -1 0.9375 0 0 1 I I #
point $-1 -1.0625 0 -0.25 #
vertex $-1 $698 $723 #
ellipse-curve $-1 -0.6941877463102720247 1.675917471975469919 0 0 0 -1 0.1300000000000000044 0 0 1 I I #
point $-1 -1.805917471975470034 0.6941877463102740231 0 #
point $-1 1 0 -0.1400000000000000133 #
vertex $-1 $707 $724 #
ellipse-curve $-1 0.6941877463102740231 1.675917471975469919 0 0 0 -1 0.1300000000000000044 0 0 1 I I #
point $-1 1.545917471975470026 0.6941877463102720247 0 #
point $-1 -0.9375 0 -0.1400000000000000133 #
point $-1 -0.8241877463102720291 1.675917471975469919 0 #
point $-1 0.5641877463102740187 1.675917471975469919 0 #
End-of-ACIS-data 