600 0 1 0           
92 GICL ACIS Healer - Source: /gicl/data5/repository/CMU/spectrometer/linkage_arm1_42.sat - 6 0 18 ACIS 6.0.3 Solaris 24 Sat Apr 13 00:29:19 2002 
1 9.999999999999999547e-07 1.000000000000000036e-10 
body $-1 $1 $-1 $-1 #
lump $-1 $-1 $2 $0 #
shell $-1 $-1 $-1 $3 $-1 $1 #
face $-1 $4 $5 $2 $-1 $6 forward single #
face $-1 $7 $8 $2 $-1 $9 reversed single #
loop $-1 $10 $11 $3 #
plane-surface $-1 3.005199999999999871 3.717999999999999972 4.130200000000000315 0 1 0 0.7071067811865474617 0 0.7071067811865474617 forward_v I I I I #
face $-1 $12 $13 $2 $-1 $14 reversed single #
loop $-1 $15 $16 $4 #
plane-surface $-1 3.005199999999999871 3.217999999999999972 4.130200000000000315 0 1 0 0.7071067811865474617 0 0.7071067811865474617 forward_v I I I I #
loop $-1 $17 $18 $3 #
coedge $-1 $11 $11 $19 $20 reversed $5 $-1 #
face $-1 $21 $22 $2 $-1 $23 reversed single #
loop $-1 $24 $25 $7 #
cone-surface $-1 -3.820042826951919324e-06 3.717999999999999972 1.124996179957173492 0 1 0 0.3093592167691144867 0 0.3093592167691144867 1 I I 0 1 0.4375 forward I I I I #
loop $-1 $26 $27 $4 #
coedge $-1 $16 $16 $25 $28 forward $8 $-1 #
loop $-1 $29 $30 $3 #
coedge $-1 $18 $18 $31 $32 reversed $10 $-1 #
coedge $-1 $19 $19 $11 $20 forward $24 $-1 #
edge $-1 $33 0 $33 6.283185307179586232 $19 $34 forward 7 unknown #
face $-1 $35 $36 $2 $-1 $37 reversed single #
loop $-1 $38 $39 $12 #
cone-surface $-1 4.886104037956216395 3.717999999999999972 6.011104037956216395 0 1 0 0.09086322138247135416 0 0.09086322138247135416 1 I I 0 1 0.1285000000000000031 forward I I I I #
loop $-1 $-1 $19 $7 #
coedge $-1 $25 $25 $16 $28 reversed $13 $-1 #
loop $-1 $40 $41 $4 #
coedge $-1 $27 $27 $39 $42 forward $15 $-1 #
edge $-1 $43 -3.141592653589793116 $43 3.141592653589793116 $25 $44 forward 7 unknown #
loop $-1 $45 $46 $3 #
coedge $-1 $30 $30 $47 $48 reversed $17 $-1 #
coedge $-1 $31 $31 $18 $32 forward $49 $-1 #
edge $-1 $50 0 $50 6.283185307179586232 $31 $51 forward 7 unknown #
vertex $-1 $20 $52 #
ellipse-curve $-1 -3.820042826951919324e-06 3.717999999999999972 1.124996179957173492 0 1 0 0.3093592167691144867 0 0.3093592167691144867 1 I I #
face $-1 $53 $54 $2 $-1 $55 reversed single #
loop $-1 $49 $56 $21 #
cone-surface $-1 4.596190257669731771 3.717999999999999972 5.721190257669732659 0 1 0 0.04419417382415921636 0 0.04419417382415921636 1 I I 0 1 0.0625 forward I I I I #
loop $-1 $-1 $57 $12 #
coedge $-1 $39 $39 $27 $42 reversed $22 $-1 #
loop $-1 $58 $59 $4 #
coedge $-1 $41 $41 $56 $60 forward $26 $-1 #
edge $-1 $61 -3.141592653589793116 $61 3.141592653589793116 $39 $62 forward 7 unknown #
vertex $-1 $28 $63 #
ellipse-curve $-1 -3.820042826951919324e-06 3.217999999999999972 1.124996179957173492 0 1 0 -0.3093592167691144867 0 -0.3093592167691144867 1 I I #
loop $-1 $64 $65 $3 #
coedge $-1 $46 $46 $66 $67 reversed $29 $-1 #
coedge $-1 $47 $47 $30 $48 forward $68 $-1 #
edge $-1 $69 0 $69 6.283185307179586232 $47 $70 forward 7 unknown #
loop $-1 $-1 $31 $21 #
vertex $-1 $32 $71 #
ellipse-curve $-1 4.596190257669731771 3.717999999999999972 5.721190257669732659 0 1 0 0.04419417382415921636 0 0.04419417382415921636 1 I I #
point $-1 0.3093553967262878679 3.717999999999999972 1.434355396726288312 #
face $-1 $72 $73 $2 $-1 $74 reversed single #
loop $-1 $68 $75 $35 #
cone-surface $-1 3.005199999999999871 3.717999999999999972 4.130200000000000315 0 1 0 0.1545028316892606279 0 0.1545028316892606279 1 I I 0 1 0.2184999999999999998 forward I I I I #
coedge $-1 $56 $56 $41 $60 reversed $36 $-1 #
coedge $-1 $57 $57 $76 $77 reversed $38 $-1 #
loop $-1 $78 $79 $4 #
coedge $-1 $59 $59 $75 $80 forward $40 $-1 #
edge $-1 $81 -3.141592653589793116 $81 3.141592653589793116 $56 $82 forward 7 unknown #
vertex $-1 $42 $83 #
ellipse-curve $-1 4.886104037956216395 3.217999999999999972 6.011104037956216395 0 1 0 -0.09086322138247135416 0 -0.09086322138247135416 1 I I #
point $-1 0.3093553967262878679 3.217999999999999972 1.434355396726288312 #
loop $-1 $84 $85 $3 #
coedge $-1 $86 $87 $88 $89 reversed $45 $-1 #
coedge $-1 $66 $66 $46 $67 forward $90 $-1 #
edge $-1 $91 -1.00475183728576872e-14 $91 6.283185307179576462 $66 $92 forward 7 unknown #
loop $-1 $-1 $47 $35 #
vertex $-1 $48 $93 #
ellipse-curve $-1 3.005199999999999871 3.717999999999999972 4.130200000000000315 0 1 0 0.1545028316892606279 0 0.1545028316892606279 1 I I #
point $-1 4.64038443149389046 3.717999999999999972 5.765384431493891348 #
face $-1 $94 $95 $2 $-1 $96 reversed single #
loop $-1 $90 $97 $53 #
cone-surface $-1 4.002220561473031957 3.717999999999999972 5.127220561473031957 0 1 0 0.04419417382415921636 0 0.04419417382415921636 1 I I 0 1 0.0625 forward I I I I #
coedge $-1 $75 $75 $59 $80 reversed $54 $-1 #
coedge $-1 $76 $76 $57 $77 forward $98 $-1 #
edge $-1 $99 -3.141592653589798001 $99 3.141592653589788231 $76 $100 forward 7 unknown #
loop $-1 $101 $102 $4 #
coedge $-1 $79 $79 $97 $103 forward $58 $-1 #
edge $-1 $104 -3.141592653589793116 $104 3.141592653589793116 $75 $105 forward 7 unknown #
vertex $-1 $60 $106 #
ellipse-curve $-1 4.596190257669731771 3.217999999999999972 5.721190257669732659 0 1 0 -0.04419417382415921636 0 -0.04419417382415921636 1 I I #
point $-1 4.976967259338687555 3.217999999999999972 6.101967259338687555 #
loop $-1 $107 $108 $3 #
coedge $-1 $109 $110 $111 $112 reversed $64 $-1 #
coedge $-1 $113 $65 $114 $115 reversed $45 $-1 #
coedge $-1 $65 $113 $116 $117 reversed $45 $-1 #
coedge $-1 $118 $119 $65 $89 forward $120 $-1 #
edge $-1 $121 -3.141592653589793116 $122 0 $88 $123 forward 7 unknown #
loop $-1 $-1 $66 $53 #
vertex $-1 $67 $124 #
ellipse-curve $-1 4.002220561473031957 3.717999999999999972 5.127220561473031957 0 1 0 0.04419417382415921636 0 0.04419417382415921636 1 I I #
point $-1 3.159702831689260361 3.717999999999999972 4.284702831689260805 #
face $-1 $125 $126 $2 $-1 $127 reversed single #
loop $-1 $128 $129 $72 #
cone-surface $-1 4.289305914634770289 3.717999999999999972 4.840135208311293624 0 1 0 0.09086322138247135416 0 0.09086322138247135416 1 I I 0 1 0.1285000000000000031 forward I I I I #
coedge $-1 $97 $97 $79 $103 reversed $73 $-1 #
loop $-1 $-1 $76 $130 #
vertex $-1 $77 $131 #
ellipse-curve $-1 4.886104037956216395 3.467999999999999972 6.011104037956216395 0 -1 0 0.09086322138247135416 0 0.09086322138247135416 1 I I #
loop $-1 $132 $133 $4 #
coedge $-1 $102 $102 $129 $134 forward $78 $-1 #
edge $-1 $135 -3.141592653589802886 $135 3.141592653589783346 $97 $136 forward 7 unknown #
vertex $-1 $80 $137 #
ellipse-curve $-1 3.005199999999999871 3.217999999999999972 4.130200000000000315 0 1 0 -0.1545028316892606279 0 -0.1545028316892606279 1 I I #
point $-1 4.64038443149389046 3.217999999999999972 5.765384431493891348 #
loop $-1 $138 $139 $3 #
coedge $-1 $108 $108 $140 $141 forward $84 $-1 #
coedge $-1 $142 $85 $143 $144 reversed $64 $-1 #
coedge $-1 $85 $142 $145 $146 reversed $64 $-1 #
coedge $-1 $147 $148 $85 $112 forward $149 $-1 #
edge $-1 $150 -1.999999999999994449 $151 0 $111 $152 forward 7 unknown #
coedge $-1 $87 $86 $153 $154 reversed $45 $-1 #
coedge $-1 $155 $156 $86 $115 forward $157 $-1 #
edge $-1 $158 -7.250000000000000888 $121 0 $114 $159 forward 7 unknown #
coedge $-1 $160 $161 $87 $117 forward $162 $-1 #
edge $-1 $122 -7.250000000000000888 $163 0 $116 $164 forward 7 unknown #
coedge $-1 $165 $88 $161 $166 reversed $120 $-1 #
coedge $-1 $88 $165 $155 $167 forward $120 $-1 #
loop $-1 $-1 $88 $125 #
vertex $-1 $167 $168 #
vertex $-1 $166 $169 #
ellipse-curve $-1 -3.820042826951919324e-06 3.717999999999999972 1.124996179957173492 0 -1 0 0.5303300858899105963 0 -0.5303300858899105963 1 I I #
point $-1 4.046414735297190646 3.717999999999999972 5.171414735297191534 #
face $-1 $170 $120 $2 $-1 $171 forward single #
loop $-1 $172 $173 $94 #
cone-surface $-1 3.715135208311293624 3.717999999999999972 5.414305914634770289 0 1 0 0.09086322138247135416 0 0.09086322138247135416 1 I I 0 1 0.1285000000000000031 forward I I I I #
loop $-1 $-1 $174 $72 #
coedge $-1 $129 $129 $102 $134 reversed $95 $-1 #
face $-1 $175 $176 $2 $-1 $177 forward single #
point $-1 4.795240816573744347 3.467999999999999972 5.920240816573745235 #
loop $-1 $178 $179 $4 #
coedge $-1 $133 $133 $173 $180 forward $101 $-1 #
edge $-1 $181 -3.141592653589798001 $181 3.141592653589788231 $129 $182 forward 7 unknown #
vertex $-1 $103 $183 #
ellipse-curve $-1 4.002220561473031957 3.217999999999999972 5.127220561473031957 0 1 0 -0.04419417382415921636 0 -0.04419417382415921636 1 I I #
point $-1 3.159702831689260361 3.217999999999999972 4.284702831689260805 #
loop $-1 $-1 $184 $3 #
coedge $-1 $139 $139 $185 $186 forward $107 $-1 #
coedge $-1 $140 $140 $108 $141 reversed $187 $-1 #
edge $-1 $188 -3.141592653589793116 $188 3.141592653589793116 $140 $189 forward 7 unknown #
coedge $-1 $110 $109 $190 $191 reversed $64 $-1 #
coedge $-1 $192 $193 $109 $144 forward $194 $-1 #
edge $-1 $195 -3.141592653589758921 $150 -5.884182030513347019e-15 $143 $196 forward 7 unknown #
coedge $-1 $197 $198 $110 $146 forward $199 $-1 #
edge $-1 $151 -3.141592653589811324 $200 -1.976196983832789055e-14 $145 $201 forward 7 unknown #
coedge $-1 $202 $111 $198 $203 reversed $149 $-1 #
coedge $-1 $111 $202 $192 $204 forward $149 $-1 #
loop $-1 $-1 $111 $205 #
vertex $-1 $204 $206 #
vertex $-1 $203 $207 #
straight-curve $-1 2.14599030908271704 3.717999999999999972 3.250809017335808626 0.8191520442889914655 0 0.5735764363510462704 I I #
coedge $-1 $208 $209 $113 $154 forward $210 $-1 #
edge $-1 $163 -1.499999999999999778 $158 0 $153 $211 forward 7 unknown #
coedge $-1 $212 $114 $119 $167 reversed $157 $-1 #
coedge $-1 $114 $212 $208 $213 forward $157 $-1 #
loop $-1 $-1 $114 $170 #
vertex $-1 $213 $214 #
straight-curve $-1 -0.5303339059327374372 3.717999999999999972 1.655326265847083977 -0.7071067811865474617 0 -0.7071067811865474617 I I #
coedge $-1 $215 $116 $209 $216 reversed $162 $-1 #
coedge $-1 $116 $215 $118 $166 forward $162 $-1 #
loop $-1 $-1 $116 $217 #
vertex $-1 $216 $218 #
straight-curve $-1 5.656850429449552742 3.717999999999999972 5.721190257669732659 0.7071067811865474617 0 0.7071067811865474617 I I #
coedge $-1 $119 $118 $179 $219 reversed $120 $-1 #
edge $-1 $220 -0.5 $122 0 $161 $221 forward 7 unknown #
edge $-1 $222 -0.5 $121 0 $155 $223 forward 7 unknown #
point $-1 -0.5303339059327374372 3.717999999999999972 1.655326265847083977 #
point $-1 0.5303262658470835333 3.717999999999999972 0.5946660940672630069 #
face $-1 $224 $157 $2 $-1 $225 reversed single #
cone-surface $-1 -3.820042826951919324e-06 3.717999999999999972 1.124996179957173492 0 1 0 0.5303300858899105963 0 0.5303300858899105963 1 I I 0 1 0.75 forward I I I I #
loop $-1 $-1 $226 $94 #
coedge $-1 $173 $173 $133 $180 reversed $126 $-1 #
coedge $-1 $174 $174 $227 $228 reversed $128 $-1 #
face $-1 $229 $230 $2 $-1 $231 reversed single #
loop $-1 $98 $232 $130 #
plane-surface $-1 4.886104037956216395 3.467999999999999972 6.011104037956216395 0 1 0 0.7071067811865474617 0 0.7071067811865474617 forward_v I I I I #
loop $-1 $-1 $233 $4 #
coedge $-1 $234 $235 $165 $219 forward $132 $-1 #
edge $-1 $236 -3.141592653589798001 $236 3.141592653589788231 $173 $237 forward 7 unknown #
vertex $-1 $134 $238 #
ellipse-curve $-1 4.289305914634770289 3.217999999999999972 4.840135208311293624 0 1 0 -0.09086322138247135416 0 -0.09086322138247135416 1 I I #
point $-1 4.046414735297190646 3.217999999999999972 5.171414735297191534 #
coedge $-1 $184 $184 $239 $240 reversed $138 $-1 #
coedge $-1 $185 $185 $139 $186 reversed $241 $-1 #
edge $-1 $242 -3.141592653589790007 $242 3.141592653589796225 $185 $243 forward 7 unknown #
loop $-1 $-1 $140 $175 #
vertex $-1 $141 $244 #
ellipse-curve $-1 4.886104037956216395 3.717999999999999972 6.011104037956216395 0 -1 0 -0.1436310649285174601 0 -0.1436310649285174601 1 I I #
coedge $-1 $245 $246 $142 $191 forward $247 $-1 #
edge $-1 $200 -2.000000000000003553 $195 0 $190 $248 forward 7 unknown #
coedge $-1 $249 $143 $148 $204 reversed $194 $-1 #
coedge $-1 $143 $249 $245 $250 forward $194 $-1 #
loop $-1 $-1 $143 $251 #
vertex $-1 $250 $252 #
ellipse-curve $-1 0.6510803295925011724 3.717999999999999972 1.898868133561474547 0 1 0 -0.143394109087762428 0 0.204788011072247006 1 I I #
coedge $-1 $253 $145 $246 $254 reversed $199 $-1 #
coedge $-1 $145 $253 $147 $203 forward $199 $-1 #
loop $-1 $-1 $145 $255 #
vertex $-1 $254 $256 #
ellipse-curve $-1 2.289384418170480551 3.717999999999999972 3.046021006263561759 0 1 0 0.1433941090877597913 0 -0.2047880110722496427 1 I I #
coedge $-1 $148 $147 $233 $257 reversed $149 $-1 #
edge $-1 $258 -0.5 $151 0 $198 $259 forward 7 unknown #
edge $-1 $260 -0.5 $150 0 $192 $261 forward 7 unknown #
face $-1 $251 $149 $2 $-1 $262 reversed single #
point $-1 0.5076862205047376619 3.717999999999999972 2.103656144633720526 #
point $-1 2.14599030908271704 3.717999999999999972 3.250809017335808626 #
coedge $-1 $263 $153 $156 $213 reversed $210 $-1 #
coedge $-1 $153 $263 $160 $216 forward $210 $-1 #
loop $-1 $-1 $153 $224 #
straight-curve $-1 4.596190257669731771 3.717999999999999972 6.78185042944955363 -0.7071067811865474617 0 0.7071067811865474617 I I #
coedge $-1 $156 $155 $235 $264 reversed $157 $-1 #
edge $-1 $265 -0.5 $158 0 $208 $266 forward 7 unknown #
point $-1 4.596190257669731771 3.717999999999999972 6.78185042944955363 #
coedge $-1 $161 $160 $234 $267 reversed $162 $-1 #
edge $-1 $268 -0.5 $163 0 $160 $269 forward 7 unknown #
face $-1 $205 $162 $2 $-1 $270 reversed single #
point $-1 5.656850429449552742 3.717999999999999972 5.721190257669732659 #
edge $-1 $222 -3.141592653589793116 $220 0 $165 $271 forward 7 unknown #
vertex $-1 $166 $272 #
straight-curve $-1 0.5303262658470835333 3.717999999999999972 0.5946660940672630069 0 1 0 I I #
vertex $-1 $167 $273 #
straight-curve $-1 -0.5303339059327374372 3.717999999999999972 1.655326265847083977 0 1 0 I I #
face $-1 $217 $210 $2 $-1 $274 reversed single #
plane-surface $-1 -0.5303339059327374372 3.717999999999999972 1.655326265847083977 0.7071067811865474617 0 -0.7071067811865474617 0 1 0 forward_v I I I I #
coedge $-1 $226 $226 $275 $276 reversed $172 $-1 #
coedge $-1 $227 $227 $174 $228 forward $277 $-1 #
edge $-1 $278 -3.141592653589798001 $278 3.141592653589788231 $227 $279 forward 7 unknown #
face $-1 $280 $281 $2 $-1 $282 forward single #
loop $-1 $187 $283 $175 #
cone-surface $-1 4.886104037956216395 3.717999999999999972 6.011104037956216395 0 1 0 0.1436310649285174601 0 0.1436310649285174601 1 I I 0 1 0.203125 forward I I I I #
coedge $-1 $232 $232 $283 $284 reversed $176 $-1 #
coedge $-1 $285 $286 $202 $257 forward $178 $-1 #
coedge $-1 $287 $179 $215 $267 forward $132 $-1 #
coedge $-1 $179 $287 $212 $264 forward $132 $-1 #
vertex $-1 $180 $288 #
ellipse-curve $-1 3.715135208311293624 3.217999999999999972 5.414305914634770289 0 1 0 -0.09086322138247135416 0 -0.09086322138247135416 1 I I #
point $-1 4.380169136017241449 3.217999999999999972 4.930998429693765672 #
coedge $-1 $239 $239 $184 $240 forward $289 $-1 #
edge $-1 $290 -1.513582159015597476e-15 $290 6.283185307179584456 $239 $291 forward 7 unknown #
loop $-1 $-1 $185 $280 #
vertex $-1 $186 $292 #
ellipse-curve $-1 4.289305914634770289 3.717999999999999972 4.840135208311293624 0 -1 0 -0.1436310649285174601 0 -0.1436310649285174601 1 I I #
point $-1 5.029735102884734133 3.717999999999999972 6.154735102884734133 #
coedge $-1 $293 $190 $193 $250 reversed $247 $-1 #
coedge $-1 $190 $293 $197 $254 forward $247 $-1 #
loop $-1 $-1 $190 $294 #
straight-curve $-1 0.7944744386802571334 3.717999999999999972 1.694080122489221907 -0.8191520442889921316 0 -0.5735764363510456043 I I #
coedge $-1 $193 $192 $286 $295 reversed $194 $-1 #
edge $-1 $296 -0.5 $195 0 $245 $297 forward 7 unknown #
face $-1 $294 $194 $2 $-1 $298 reversed single #
point $-1 0.7944744386802571334 3.717999999999999972 1.694080122489221907 #
coedge $-1 $198 $197 $285 $299 reversed $199 $-1 #
edge $-1 $300 -0.5 $200 0 $197 $301 forward 7 unknown #
face $-1 $130 $199 $2 $-1 $302 reversed single #
point $-1 2.432778527258243173 3.717999999999999972 2.841232995191316668 #
edge $-1 $260 -1.999999999999994449 $258 0 $202 $303 forward 7 unknown #
vertex $-1 $203 $304 #
straight-curve $-1 2.14599030908271704 3.717999999999999972 3.250809017335808626 0 1 0 I I #
vertex $-1 $204 $305 #
straight-curve $-1 0.5076862205047376619 3.717999999999999972 2.103656144633720526 0 1 0 I I #
plane-surface $-1 2.14599030908271704 3.717999999999999972 3.250809017335808626 -0.5735764363510463815 0 0.8191520442889915765 0 -1 0 forward_v I I I I #
coedge $-1 $209 $208 $287 $306 reversed $210 $-1 #
edge $-1 $265 -7.250000000000000888 $222 0 $212 $307 forward 7 unknown #
vertex $-1 $213 $308 #
straight-curve $-1 4.596190257669731771 3.717999999999999972 6.78185042944955363 0 1 0 I I #
edge $-1 $220 -7.250000000000000888 $268 0 $215 $309 forward 7 unknown #
vertex $-1 $216 $310 #
straight-curve $-1 5.656850429449552742 3.717999999999999972 5.721190257669732659 0 1 0 I I #
plane-surface $-1 5.656850429449552742 3.717999999999999972 5.721190257669732659 -0.7071067811865474617 0 0.7071067811865474617 0 -1 0 forward_v I I I I #
ellipse-curve $-1 -3.820042826951919324e-06 3.217999999999999972 1.124996179957173492 0 -1 0 0.5303300858899105963 0 -0.5303300858899105963 1 I I #
point $-1 0.5303262658470835333 3.217999999999999972 0.5946660940672630069 #
point $-1 -0.5303339059327374372 3.217999999999999972 1.655326265847083977 #
plane-surface $-1 4.596190257669731771 3.717999999999999972 6.78185042944955363 -0.7071067811865474617 0 -0.7071067811865474617 0 1 0 forward_v I I I I #
coedge $-1 $275 $275 $226 $276 forward $311 $-1 #
edge $-1 $312 -3.141592653589793116 $312 3.141592653589793116 $275 $313 forward 7 unknown #
loop $-1 $-1 $227 $229 #
vertex $-1 $228 $314 #
ellipse-curve $-1 4.289305914634770289 3.467999999999999972 4.840135208311293624 0 -1 0 0.09086322138247135416 0 0.09086322138247135416 1 I I #
face $-1 $315 $316 $2 $-1 $317 reversed single #
loop $-1 $277 $318 $229 #
plane-surface $-1 4.289305914634770289 3.467999999999999972 4.840135208311293624 0 1 0 0.7071067811865474617 0 0.7071067811865474617 forward_v I I I I #
coedge $-1 $283 $283 $232 $284 forward $230 $-1 #
edge $-1 $319 0 $319 6.283185307179586232 $283 $320 forward 7 unknown #
coedge $-1 $321 $233 $253 $299 forward $178 $-1 #
coedge $-1 $233 $321 $249 $295 forward $178 $-1 #
coedge $-1 $235 $234 $263 $306 forward $132 $-1 #
point $-1 3.805998429693764784 3.217999999999999972 5.505169136017242337 #
loop $-1 $-1 $239 $322 #
vertex $-1 $240 $323 #
ellipse-curve $-1 3.715135208311293624 3.717999999999999972 5.414305914634770289 0 1 0 0.1436310649285174601 0 0.1436310649285174601 1 I I #
point $-1 4.432936979563287139 3.717999999999999972 4.983766273239811362 #
coedge $-1 $246 $245 $321 $324 reversed $247 $-1 #
face $-1 $255 $247 $2 $-1 $325 reversed single #
edge $-1 $296 -3.141592653589759809 $260 -5.884182030513347019e-15 $249 $326 forward 7 unknown #
vertex $-1 $250 $327 #
straight-curve $-1 0.7944744386802571334 3.717999999999999972 1.694080122489221907 -3.925231146709413142e-16 1 1.648597081617960955e-15 I I #
cone-surface $-1 0.6510803295925011724 3.717999999999999972 1.898868133561474547 0 1 0 0.1767766952966368654 0 0.1767766952966368654 1 I I 0 1 0.25 forward I I I I #
edge $-1 $258 -3.141592653589811324 $300 -1.976196983832789055e-14 $253 $328 forward 7 unknown #
vertex $-1 $254 $329 #
straight-curve $-1 2.432778527258243173 3.717999999999999972 2.841232995191316668 6.280369834735098695e-16 1 -6.280369834735098695e-16 I I #
cone-surface $-1 2.289384418170480551 3.717999999999999972 3.046021006263561759 0 1 0 0.1767766952966368654 0 0.1767766952966368654 1 I I 0 1 0.25 forward I I I I #
straight-curve $-1 2.14599030908271704 3.217999999999999972 3.250809017335808626 0.8191520442889914655 0 0.5735764363510462704 I I #
point $-1 2.14599030908271704 3.217999999999999972 3.250809017335808626 #
point $-1 0.5076862205047376619 3.217999999999999972 2.103656144633720526 #
edge $-1 $268 -1.499999999999999778 $265 0 $263 $330 forward 7 unknown #
straight-curve $-1 -0.5303339059327374372 3.217999999999999972 1.655326265847083977 -0.7071067811865474617 0 -0.7071067811865474617 I I #
point $-1 4.596190257669731771 3.217999999999999972 6.78185042944955363 #
straight-curve $-1 5.656850429449552742 3.217999999999999972 5.721190257669732659 0.7071067811865474617 0 0.7071067811865474617 I I #
point $-1 5.656850429449552742 3.217999999999999972 5.721190257669732659 #
loop $-1 $-1 $275 $315 #
vertex $-1 $276 $331 #
ellipse-curve $-1 3.715135208311293624 3.467999999999999972 5.414305914634770289 0 -1 0 0.09086322138247135416 0 0.09086322138247135416 1 I I #
point $-1 4.198442693252298241 3.467999999999999972 4.749271986928822464 #
face $-1 $322 $332 $2 $-1 $333 reversed single #
loop $-1 $241 $334 $280 #
cone-surface $-1 4.289305914634770289 3.717999999999999972 4.840135208311293624 0 1 0 0.1436310649285174601 0 0.1436310649285174601 1 I I 0 1 0.203125 forward I I I I #
coedge $-1 $318 $318 $334 $335 reversed $281 $-1 #
vertex $-1 $284 $336 #
ellipse-curve $-1 4.886104037956216395 3.467999999999999972 6.011104037956216395 0 -1 0 0.1436310649285174601 0 0.1436310649285174601 1 I I #
coedge $-1 $286 $285 $293 $324 forward $178 $-1 #
face $-1 $-1 $337 $2 $-1 $338 reversed single #
point $-1 3.858766273239810918 3.717999999999999972 5.557936979563288027 #
edge $-1 $300 -2.000000000000003997 $296 0 $293 $339 forward 7 unknown #
plane-surface $-1 0.7944744386802571334 3.717999999999999972 1.694080122489221907 0.5735764363510456043 0 -0.8191520442889921316 0 1 0 forward_v I I I I #
ellipse-curve $-1 0.6510803295925011724 3.217999999999999972 1.898868133561474547 0 1 0 -0.143394109087762428 0 0.204788011072247006 1 I I #
point $-1 0.7944744386802575775 3.217999999999999972 1.694080122489221463 #
ellipse-curve $-1 2.289384418170480551 3.217999999999999972 3.046021006263561759 0 1 0 0.1433941090877597913 0 -0.2047880110722496427 1 I I #
point $-1 2.432778527258243173 3.217999999999999972 2.841232995191316668 #
straight-curve $-1 4.596190257669731771 3.217999999999999972 6.78185042944955363 -0.7071067811865474617 0 0.7071067811865474617 I I #
point $-1 3.624271986928822464 3.467999999999999972 5.323442693252299129 #
loop $-1 $311 $340 $315 #
plane-surface $-1 3.715135208311293624 3.467999999999999972 5.414305914634770289 0 -1 0 -0.7071067811865474617 0 -0.7071067811865474617 forward_v I I I I #
coedge $-1 $334 $334 $318 $335 forward $316 $-1 #
edge $-1 $341 3.111252215754288894e-15 $341 6.283185307179589785 $334 $342 forward 7 unknown #
point $-1 5.029735102884734133 3.467999999999999972 6.154735102884734133 #
loop $-1 $289 $343 $322 #
cone-surface $-1 3.715135208311293624 3.717999999999999972 5.414305914634770289 0 -1 0 0.1436310649285174601 0 0.1436310649285174601 1 I I 0 1 0.203125 forward I I I I #
straight-curve $-1 0.7944744386802575775 3.217999999999999972 1.694080122489221463 -0.8191520442889914655 0 -0.5735764363510462704 I I #
coedge $-1 $340 $340 $343 $344 forward $332 $-1 #
vertex $-1 $335 $345 #
ellipse-curve $-1 4.289305914634770289 3.467999999999999972 4.840135208311293624 0 -1 0 0.1436310649285174601 0 0.1436310649285174601 1 I I #
coedge $-1 $343 $343 $340 $344 reversed $337 $-1 #
edge $-1 $346 -3.141592653589794448 $346 3.141592653589791784 $343 $347 forward 7 unknown #
point $-1 4.432936979563287139 3.467999999999999972 4.983766273239811362 #
vertex $-1 $344 $348 #
ellipse-curve $-1 3.715135208311293624 3.467999999999999972 5.414305914634770289 0 1 0 -0.1436310649285174601 0 -0.1436310649285174601 1 I I #
point $-1 3.858766273239810918 3.467999999999999972 5.557936979563288027 #
End-of-ACIS-data 