700 0 2 0           
24 FBMach with ACIS - 7.0.3 13 ACIS 7.0.3 NT 24 Mon May 13 16:58:31 2002 
1 9.9999999999999995e-007 1e-010 
body $2 -1 $-1 $3 $-1 $4 #
bdycol-kcp $-1 -1 1 4 $5 $6 $7 $8 #
model_id-kcp-attrib $-1 -1 $-1 $-1 $0 1 1021323510 1021323510 -126222335 1 #
lump $-1 -1 $-1 $-1 $9 $0 #
transform $-1 -1 1.0000000000000002 0 0 0 1 0 0 0 1.0000000000000002 0 0 0 1 rotate no_reflect no_shear #
body $10 -1 $-1 $11 $-1 $12 #
body $13 -1 $-1 $14 $-1 $15 #
body $16 -1 $-1 $17 $-1 $18 #
body $19 -1 $-1 $20 $-1 $21 #
shell $-1 -1 $-1 $-1 $-1 $22 $-1 $3 #
model_id-kcp-attrib $-1 -1 $-1 $-1 $5 1 1021323510 1021323510 -126222334 1 #
lump $-1 -1 $-1 $-1 $23 $5 #
transform $-1 -1 1 0 0 0 1 0 0 0 1 -1.5025999999999999 4.6870000000000003 5.6327999999999996 1 no_rotate no_reflect no_shear #
rgb_color-st-attrib $-1 -1 $24 $-1 $6 0.5 1 1 #
lump $-1 -1 $-1 $-1 $25 $6 #
transform $-1 -1 1 0 0 0 -3.8285889215894375e-016 1 0 -1 -3.8285889215894375e-016 -3.0052019100214133 4.6870000000000003 4.1301980899785864 1 rotate no_reflect no_shear #
rgb_color-st-attrib $-1 -1 $26 $-1 $7 0.5 1 1 #
lump $-1 -1 $-1 $-1 $27 $7 #
transform $-1 -1 1 0 0 0 -3.8285889215894375e-016 1 0 -1 -3.8285889215894375e-016 1.9100214134759597e-006 4.6870000000000003 7.1354019100214128 1 rotate no_reflect no_shear #
rgb_color-st-attrib $-1 -1 $28 $-1 $8 0.5 1 1 #
lump $-1 -1 $-1 $-1 $29 $8 #
transform $-1 -1 1 0 0 0 1 0 0 0 1 -1.5025999999999999 4.6870000000000003 5.6327999999999996 1 no_rotate no_reflect no_shear #
face $30 -1 $-1 $31 $32 $9 $-1 $33 reversed single #
shell $-1 -1 $-1 $-1 $-1 $34 $-1 $11 #
model_id-kcp-attrib $-1 -1 $-1 $13 $6 1 1021323510 1021323510 -123600893 1 #
shell $-1 -1 $-1 $-1 $-1 $35 $-1 $14 #
model_id-kcp-attrib $-1 -1 $-1 $16 $7 1 1021323510 1021323510 -123600892 1 #
shell $-1 -1 $-1 $-1 $-1 $36 $-1 $17 #
model_id-kcp-attrib $-1 -1 $-1 $19 $8 1 1021323510 1021323511 -131596283 1 #
shell $-1 -1 $-1 $-1 $-1 $37 $-1 $20 #
model_id-kcp-attrib $-1 -1 $-1 $-1 $22 1 1021323510 1021323510 -126222335 2 #
face $38 -1 $-1 $39 $40 $9 $-1 $41 forward single #
loop $42 -1 $-1 $43 $44 $22 #
plane-surface $-1 -1 $-1 -1.5025999999999999 4.9370000000000003 5.6327999999999996 0 -1 0 0.70710678118654746 0 0.70710678118654746 forward_v I I I I #
face $-1 -1 $-1 $45 $46 $23 $-1 $47 forward single #
face $-1 -1 $-1 $48 $49 $25 $-1 $50 forward single #
face $-1 -1 $-1 $51 $52 $27 $-1 $53 forward single #
face $-1 -1 $-1 $54 $55 $29 $-1 $56 reversed single #
model_id-kcp-attrib $-1 -1 $-1 $-1 $31 1 1021323510 1021323510 -126222335 3 #
face $57 -1 $-1 $58 $59 $9 $-1 $60 reversed single #
loop $61 -1 $-1 $62 $63 $31 #
plane-surface $-1 -1 $-1 -1.5025999999999999 4.4370000000000003 5.6327999999999996 0 -1 0 0.70710678118654746 0 0.70710678118654746 forward_v I I I I #
model_id-kcp-attrib $-1 -1 $-1 $-1 $32 1 1021323510 1021323510 -126222335 15 #
loop $64 -1 $-1 $65 $66 $22 #
coedge $-1 -1 $-1 $44 $44 $67 $68 forward $32 $-1 #
face $-1 -1 $-1 $69 $70 $23 $-1 $71 reversed single #
loop $-1 -1 $-1 $-1 $72 $34 #
plane-surface $-1 -1 $-1 0 0 2.2526019100214132 0 0 1 1 0 0 forward_v I I I I #
face $-1 -1 $-1 $73 $74 $25 $-1 $75 forward single #
loop $-1 -1 $-1 $76 $77 $35 #
cone-surface $-1 -1 $-1 0 0 0 0 0 1 0.43749999999999994 0 0 1 I I 0 1 0.43749999999999994 forward I I I I #
face $-1 -1 $-1 $78 $79 $27 $-1 $80 forward single #
loop $-1 -1 $-1 $81 $82 $36 #
cone-surface $-1 -1 $-1 0 0 0 0 0 1 0.43749999999999994 0 0 1 I I 0 1 0.43749999999999994 forward I I I I #
face $-1 -1 $-1 $83 $84 $29 $-1 $56 reversed single #
loop $-1 -1 $-1 $-1 $85 $37 #
cone-surface $-1 -1 $-1 1.5026019100214134 0.25 1.5026019100214132 0 1 0 -0.53033008588991004 0 0.53033008588991093 1 I I 0 1 0.74999999999999967 forward I I I I #
model_id-kcp-attrib $-1 -1 $-1 $-1 $39 1 1021323510 1021323510 -126222335 4 #
face $86 -1 $-1 $87 $88 $9 $-1 $89 reversed single #
loop $90 -1 $-1 $91 $92 $39 #
cone-surface $-1 -1 $-1 -3.0052019100214133 4.9370000000000003 4.1301980899785864 0 -1 0 0.30935921676911449 0 0.30935921676911449 1 I I 0 1 0.4375 forward I I I I #
model_id-kcp-attrib $-1 -1 $-1 $-1 $40 1 1021323510 1021323510 -126222335 14 #
loop $93 -1 $-1 $94 $95 $31 #
coedge $-1 -1 $-1 $63 $63 $92 $96 reversed $40 $-1 #
model_id-kcp-attrib $-1 -1 $-1 $-1 $43 1 1021323510 1021323510 -126222335 21 #
loop $-1 -1 $-1 $-1 $97 $22 #
coedge $-1 -1 $-1 $66 $66 $98 $99 forward $43 $-1 #
coedge $-1 -1 $-1 $67 $67 $44 $68 reversed $91 $-1 #
edge $100 -1 $-1 $101 -3.1415926535897931 $101 3.1415926535897931 $67 $102 forward @7 unknown #
face $103 -1 $-1 $104 $105 $23 $-1 $106 reversed single #
loop $-1 -1 $-1 $-1 $107 $45 #
plane-surface $-1 -1 $-1 0 0 -2.2526019100214132 0 0 1 1 0 0 forward_v I I I I #
coedge $-1 -1 $-1 $108 $109 $110 $111 forward $46 $-1 #
face $-1 -1 $-1 $-1 $112 $25 $-1 $113 forward single #
loop $-1 -1 $-1 $-1 $114 $48 #
plane-surface $-1 -1 $-1 0 0 -0.25 0 0 -1 -1 0 0 forward_v I I I I #
loop $-1 -1 $-1 $-1 $115 $35 #
coedge $-1 -1 $-1 $77 $77 $114 $116 reversed $49 $-1 #
face $-1 -1 $-1 $-1 $117 $27 $-1 $118 forward single #
loop $-1 -1 $-1 $-1 $119 $51 #
plane-surface $-1 -1 $-1 0 0 -0.25 0 0 -1 -1 0 0 forward_v I I I I #
loop $-1 -1 $-1 $-1 $120 $36 #
coedge $-1 -1 $-1 $82 $82 $119 $121 reversed $52 $-1 #
face $-1 -1 $-1 $122 $123 $29 $-1 $124 reversed single #
loop $-1 -1 $-1 $-1 $125 $54 #
coedge $-1 -1 $-1 $126 $127 $128 $129 reversed $55 $-1 #
model_id-kcp-attrib $-1 -1 $-1 $-1 $58 1 1021323510 1021323510 -126222335 5 #
face $130 -1 $-1 $131 $132 $9 $-1 $133 forward single #
loop $134 -1 $-1 $135 $136 $58 #
cone-surface $-1 -1 $-1 1.9100214134759597e-006 4.9370000000000003 7.1354019100214128 0 -1 0 0.30935921676911449 0 0.30935921676911449 1 I I 0 1 0.4375 forward I I I I #
model_id-kcp-attrib $-1 -1 $-1 $-1 $59 1 1021323510 1021323510 -126222335 12 #
loop $137 -1 $-1 $-1 $67 $39 #
coedge $-1 -1 $-1 $92 $92 $63 $96 forward $59 $-1 #
model_id-kcp-attrib $-1 -1 $-1 $-1 $62 1 1021323510 1021323510 -126222335 20 #
loop $-1 -1 $-1 $-1 $138 $31 #
coedge $-1 -1 $-1 $95 $95 $136 $139 reversed $62 $-1 #
edge $140 -1 $-1 $141 0 $141 6.2831853071795862 $92 $142 forward @7 unknown #
coedge $-1 -1 $-1 $143 $144 $145 $146 forward $65 $-1 #
coedge $-1 -1 $-1 $98 $98 $66 $99 reversed $135 $-1 #
edge $147 -1 $-1 $148 -3.1415926535897931 $148 3.1415926535897931 $98 $149 forward @7 unknown #
attrib_edge_convexity-kcp-attrib $-1 -1 $150 $-1 $68 1 #
vertex $151 -1 $-1 $68 $152 #
ellipse-curve $-1 -1 $-1 -3.0052019100214133 4.9370000000000003 4.1301980899785864 0 -1 0 -0.30935921676911449 0 -0.30935921676911449 1 I I #
model_id-kcp-attrib $-1 -1 $-1 $-1 $69 1 1021323510 1021323510 -126222334 3 #
face $-1 -1 $-1 $153 $154 $23 $-1 $155 reversed single #
loop $-1 -1 $-1 $-1 $156 $69 #
plane-surface $-1 -1 $-1 0 -0.25 0 0 1 0 0 0 1 forward_v I I I I #
coedge $-1 -1 $-1 $157 $158 $159 $160 forward $70 $-1 #
coedge $-1 -1 $-1 $161 $72 $162 $163 forward $46 $-1 #
coedge $-1 -1 $-1 $72 $161 $164 $165 forward $46 $-1 #
coedge $-1 -1 $-1 $166 $167 $72 $111 reversed $168 $-1 #
edge $-1 -1 $-1 $169 -0.25 $170 0.25 $110 $171 forward @7 unknown #
loop $-1 -1 $-1 $-1 $172 $73 #
plane-surface $-1 -1 $-1 0 0 0.25 0 0 1 1 0 0 forward_v I I I I #
coedge $-1 -1 $-1 $114 $114 $77 $116 forward $74 $-1 #
coedge $-1 -1 $-1 $115 $115 $172 $173 reversed $76 $-1 #
edge $-1 -1 $-1 $174 0 $174 6.2831853071795862 $114 $175 forward @7 unknown #
loop $-1 -1 $-1 $-1 $176 $78 #
plane-surface $-1 -1 $-1 0 0 0.25 0 0 1 1 0 0 forward_v I I I I #
coedge $-1 -1 $-1 $119 $119 $82 $121 forward $79 $-1 #
coedge $-1 -1 $-1 $120 $120 $176 $177 reversed $81 $-1 #
edge $-1 -1 $-1 $178 0 $178 6.2831853071795862 $119 $179 forward @7 unknown #
face $-1 -1 $-1 $180 $181 $29 $-1 $124 reversed single #
loop $-1 -1 $-1 $-1 $182 $83 #
cone-surface $-1 -1 $-1 -1.5026019100214134 0.25 -1.5026019100214132 0 1 0 0.53033008588991026 0 -0.53033008588991093 1 I I 0 1 0.74999999999999989 forward I I I I #
coedge $-1 -1 $-1 $183 $184 $185 $186 reversed $84 $-1 #
coedge $-1 -1 $-1 $187 $85 $188 $189 reversed $55 $-1 #
coedge $-1 -1 $-1 $85 $187 $190 $191 reversed $55 $-1 #
coedge $-1 -1 $-1 $192 $193 $85 $129 forward $194 $-1 #
edge $-1 -1 $-1 $195 1.9737298215558337e-016 $196 0.7853981633974475 $128 $197 forward @7 unknown #
model_id-kcp-attrib $-1 -1 $-1 $-1 $87 1 1021323510 1021323510 -126222335 6 #
face $198 -1 $-1 $199 $200 $9 $-1 $201 forward single #
loop $-1 -1 $-1 $-1 $145 $87 #
cone-surface $-1 -1 $-1 1.9100214134759597e-006 4.9370000000000003 7.1354019100214128 0 -1 0 0.5303300858899106 0 0.5303300858899106 1 I I 0 1 0.75 forward I I I I #
model_id-kcp-attrib $-1 -1 $-1 $-1 $88 1 1021323510 1021323510 -126222335 18 #
loop $202 -1 $-1 $-1 $98 $58 #
coedge $-1 -1 $-1 $136 $136 $95 $139 forward $88 $-1 #
model_id-kcp-attrib $-1 -1 $-1 $-1 $91 1 1021323510 1021323510 -126222335 13 #
coedge $-1 -1 $-1 $203 $204 $205 $206 reversed $94 $-1 #
edge $207 -1 $-1 $208 0 $208 6.2831853071795862 $136 $209 forward @7 unknown #
attrib_edge_convexity-kcp-attrib $-1 -1 $210 $-1 $96 1 #
vertex $211 -1 $-1 $96 $212 #
ellipse-curve $-1 -1 $-1 -3.0052019100214133 4.4370000000000003 4.1301980899785864 0 -1 0 0.30935921676911449 0 0.30935921676911449 1 I I #
coedge $-1 -1 $-1 $213 $97 $214 $215 forward $65 $-1 #
coedge $-1 -1 $-1 $97 $213 $216 $217 forward $65 $-1 #
coedge $-1 -1 $-1 $218 $219 $97 $146 reversed $132 $-1 #
edge $220 -1 $-1 $221 -3.1415926535897922 $222 -1.9737298215558342e-016 $145 $223 forward @7 unknown #
attrib_edge_convexity-kcp-attrib $-1 -1 $224 $-1 $99 1 #
vertex $225 -1 $-1 $99 $226 #
ellipse-curve $-1 -1 $-1 1.9100214134759597e-006 4.9370000000000003 7.1354019100214128 0 -1 0 -0.30935921676911449 0 -0.30935921676911449 1 I I #
convexity-sys-attrib $-1 -1 $-1 $100 $68 #
model_id-kcp-attrib $-1 -1 $-1 $-1 $101 1 1021323510 1021323510 -126222335 17 #
point $-1 -1 $-1 -2.695842693252299 4.9370000000000003 4.4395573067477008 #
face $227 -1 $-1 $228 $229 $23 $-1 $230 reversed single #
loop $-1 -1 $-1 $-1 $231 $104 #
plane-surface $-1 -1 $-1 -2.2526019100214132 0 0 1 0 0 0 0 -1 forward_v I I I I #
coedge $-1 -1 $-1 $232 $164 $233 $234 forward $105 $-1 #
coedge $-1 -1 $-1 $235 $107 $232 $236 forward $70 $-1 #
coedge $-1 -1 $-1 $107 $235 $237 $238 forward $70 $-1 #
coedge $-1 -1 $-1 $167 $166 $107 $160 reversed $168 $-1 #
edge $-1 -1 $-1 $239 -0.25 $240 0.25 $159 $241 forward @7 unknown #
coedge $-1 -1 $-1 $109 $108 $242 $243 forward $46 $-1 #
coedge $-1 -1 $-1 $244 $245 $108 $163 reversed $229 $-1 #
edge $-1 -1 $-1 $170 -2.2526019100214132 $246 2.2526019100214132 $162 $247 forward @7 unknown #
coedge $-1 -1 $-1 $156 $248 $109 $165 reversed $105 $-1 #
edge $-1 -1 $-1 $249 -2.2526019100214132 $169 2.2526019100214132 $164 $250 forward @7 unknown #
coedge $-1 -1 $-1 $159 $110 $248 $251 forward $168 $-1 #
coedge $-1 -1 $-1 $110 $159 $244 $252 reversed $168 $-1 #
loop $-1 -1 $-1 $-1 $166 $228 #
vertex $-1 -1 $-1 $111 $253 #
vertex $-1 -1 $-1 $111 $254 #
straight-curve $-1 -1 $-1 2.2526019100214132 0 2.2526019100214132 0 1 0 I I #
coedge $-1 -1 $-1 $172 $172 $115 $173 forward $112 $-1 #
edge $-1 -1 $-1 $255 0 $255 6.2831853071795862 $172 $256 forward @7 unknown #
vertex $-1 -1 $-1 $116 $257 #
ellipse-curve $-1 -1 $-1 0 0 -0.25 0 0 -1 0.43749999999999994 0 0 1 I I #
coedge $-1 -1 $-1 $176 $176 $120 $177 forward $117 $-1 #
edge $-1 -1 $-1 $258 0 $258 6.2831853071795862 $176 $259 forward @7 unknown #
vertex $-1 -1 $-1 $121 $260 #
ellipse-curve $-1 -1 $-1 0 0 -0.25 0 0 -1 0.43749999999999994 0 0 1 I I #
face $-1 -1 $-1 $261 $262 $29 $-1 $263 reversed single #
loop $-1 -1 $-1 $-1 $264 $122 #
coedge $-1 -1 $-1 $265 $266 $267 $268 reversed $123 $-1 #
coedge $-1 -1 $-1 $269 $125 $270 $271 forward $84 $-1 #
coedge $-1 -1 $-1 $125 $269 $272 $273 forward $84 $-1 #
coedge $-1 -1 $-1 $274 $275 $125 $186 forward $276 $-1 #
edge $-1 -1 $-1 $277 -3.1415926535897905 $278 -2.3561944901923439 $185 $279 forward @7 unknown #
coedge $-1 -1 $-1 $127 $126 $280 $281 reversed $55 $-1 #
coedge $-1 -1 $-1 $282 $283 $126 $189 forward $284 $-1 #
edge $-1 -1 $-1 $285 0 $195 0.5 $126 $286 forward @7 unknown #
coedge $-1 -1 $-1 $287 $288 $289 $191 forward $290 $-1 #
edge $-1 -1 $-1 $196 -0.5 $291 0 $190 $292 forward @7 unknown #
coedge $-1 -1 $-1 $293 $128 $288 $294 reversed $194 $-1 #
coedge $-1 -1 $-1 $128 $295 $282 $296 forward $194 $-1 #
loop $-1 -1 $-1 $-1 $128 $297 #
vertex $-1 -1 $-1 $129 $298 #
vertex $-1 -1 $-1 $299 $300 #
ellipse-curve $-1 -1 $-1 1.5026019100214134 -0.25 1.5026019100214132 0 1 0 -0.53033008588991004 0 0.53033008588991093 1 I I #
model_id-kcp-attrib $-1 -1 $-1 $-1 $131 1 1021323510 1021323510 -126222335 7 #
face $301 -1 $-1 $302 $303 $9 $-1 $304 forward single #
loop $-1 -1 $-1 $-1 $216 $131 #
plane-surface $-1 -1 $-1 -0.53032817586849712 4.9370000000000003 7.6657319959113241 -0.70710678118654757 0 0.70710678118654757 0 -1 0 forward_v I I I I #
model_id-kcp-attrib $-1 -1 $-1 $-1 $135 1 1021323510 1021323510 -126222335 19 #
coedge $-1 -1 $-1 $305 $138 $306 $307 reversed $94 $-1 #
coedge $-1 -1 $-1 $138 $305 $308 $309 reversed $94 $-1 #
coedge $-1 -1 $-1 $219 $218 $138 $206 forward $132 $-1 #
edge $-1 -1 $-1 $310 -3.1415926535897922 $311 -1.9737298215558342e-016 $205 $312 forward @7 unknown #
attrib_edge_convexity-kcp-attrib $-1 -1 $313 $-1 $139 1 #
vertex $314 -1 $-1 $139 $315 #
ellipse-curve $-1 -1 $-1 1.9100214134759597e-006 4.4370000000000003 7.1354019100214128 0 -1 0 0.30935921676911449 0 0.30935921676911449 1 I I #
convexity-sys-attrib $-1 -1 $-1 $140 $96 #
model_id-kcp-attrib $-1 -1 $-1 $-1 $141 1 1021323510 1021323510 -126222335 16 #
point $-1 -1 $-1 -2.695842693252299 4.4370000000000003 4.4395573067477008 #
coedge $-1 -1 $-1 $144 $143 $316 $317 forward $65 $-1 #
coedge $-1 -1 $-1 $318 $319 $143 $215 reversed $320 $-1 #
edge $321 -1 $-1 $222 -4.2500000000000009 $322 0 $214 $323 forward @7 unknown #
coedge $-1 -1 $-1 $324 $325 $144 $217 reversed $200 $-1 #
edge $326 -1 $-1 $327 -4.2500000000000009 $221 0 $216 $328 forward @7 unknown #
coedge $-1 -1 $-1 $205 $145 $325 $329 reversed $132 $-1 #
coedge $-1 -1 $-1 $145 $205 $318 $330 forward $132 $-1 #
attrib_edge_convexity-kcp-attrib $-1 -1 $331 $-1 $146 1 #
vertex $-1 -1 $-1 $329 $332 #
vertex $-1 -1 $-1 $330 $333 #
ellipse-curve $-1 -1 $-1 1.9100214134759597e-006 4.9370000000000003 7.1354019100214128 0 1 0 0.5303300858899106 0 -0.5303300858899106 1 I I #
convexity-sys-attrib $-1 -1 $-1 $147 $99 #
model_id-kcp-attrib $-1 -1 $-1 $-1 $148 1 1021323510 1021323510 -126222335 23 #
point $-1 -1 $-1 0.30936112679052785 4.9370000000000003 7.4447611267905272 #
model_id-kcp-attrib $-1 -1 $-1 $-1 $153 1 1021323510 1021323510 -126222334 2 #
face $-1 -1 $-1 $-1 $168 $23 $-1 $334 reversed single #
loop $-1 -1 $-1 $-1 $244 $153 #
plane-surface $-1 -1 $-1 0 0.25 0 0 -1 0 0 0 -1 forward_v I I I I #
coedge $-1 -1 $-1 $335 $242 $245 $336 forward $154 $-1 #
coedge $-1 -1 $-1 $248 $156 $157 $236 reversed $105 $-1 #
coedge $-1 -1 $-1 $242 $335 $156 $234 reversed $154 $-1 #
edge $-1 -1 $-1 $249 -2.2526019100214132 $337 2.2526019100214132 $233 $338 forward @7 unknown #
coedge $-1 -1 $-1 $158 $157 $335 $339 forward $70 $-1 #
edge $-1 -1 $-1 $240 -2.2526019100214132 $337 2.2526019100214132 $232 $340 forward @7 unknown #
coedge $-1 -1 $-1 $245 $244 $158 $238 reversed $229 $-1 #
edge $-1 -1 $-1 $341 -2.2526019100214132 $239 2.2526019100214132 $237 $342 forward @7 unknown #
vertex $-1 -1 $-1 $160 $343 #
vertex $-1 -1 $-1 $251 $344 #
straight-curve $-1 -1 $-1 2.2526019100214132 0 -2.2526019100214132 0 -1 0 I I #
coedge $-1 -1 $-1 $231 $233 $161 $243 reversed $154 $-1 #
edge $-1 -1 $-1 $246 -0.25 $249 0.25 $242 $345 forward @7 unknown #
coedge $-1 -1 $-1 $237 $162 $167 $252 forward $229 $-1 #
coedge $-1 -1 $-1 $162 $237 $231 $336 reversed $229 $-1 #
vertex $-1 -1 $-1 $163 $346 #
straight-curve $-1 -1 $-1 0 0.25 2.2526019100214132 -1 0 0 I I #
coedge $-1 -1 $-1 $164 $232 $166 $251 reversed $105 $-1 #
vertex $-1 -1 $-1 $243 $347 #
straight-curve $-1 -1 $-1 0 -0.25 2.2526019100214132 1 0 0 I I #
edge $-1 -1 $-1 $169 -2.2526019100214132 $240 2.2526019100214132 $166 $348 forward @7 unknown #
edge $-1 -1 $-1 $170 -2.2526019100214132 $239 2.2526019100214132 $167 $349 forward @7 unknown #
point $-1 -1 $-1 2.2526019100214132 -0.25 2.2526019100214132 #
point $-1 -1 $-1 2.2526019100214132 0.25 2.2526019100214132 #
vertex $-1 -1 $-1 $173 $350 #
ellipse-curve $-1 -1 $-1 0 0 0.25 0 0 1 0.43749999999999994 0 0 1 I I #
point $-1 -1 $-1 0.43749999999999994 0 -0.25 #
vertex $-1 -1 $-1 $177 $351 #
ellipse-curve $-1 -1 $-1 0 0 0.25 0 0 1 0.43749999999999994 0 0 1 I I #
point $-1 -1 $-1 0.43749999999999994 0 -0.25 #
face $-1 -1 $-1 $352 $353 $29 $-1 $56 reversed single #
loop $-1 -1 $-1 $-1 $354 $180 #
plane-surface $-1 -1 $-1 -0.97227182413150293 0.25 -2.0329319959113241 0.70710678118654757 0 -0.70710678118654757 0 1 0 forward_v I I I I #
coedge $-1 -1 $-1 $355 $356 $295 $357 reversed $181 $-1 #
coedge $-1 -1 $-1 $358 $182 $359 $360 reversed $123 $-1 #
coedge $-1 -1 $-1 $182 $358 $361 $362 reversed $123 $-1 #
coedge $-1 -1 $-1 $275 $363 $182 $268 forward $276 $-1 #
edge $-1 -1 $-1 $364 -0.78539816339744772 $365 1.9737298215558337e-016 $267 $366 forward @7 unknown #
coedge $-1 -1 $-1 $184 $183 $367 $368 reversed $84 $-1 #
coedge $-1 -1 $-1 $354 $369 $183 $271 reversed $262 $-1 #
edge $-1 -1 $-1 $277 0 $370 0.5 $270 $371 forward @7 unknown #
coedge $-1 -1 $-1 $372 $373 $374 $273 reversed $353 $-1 #
edge $-1 -1 $-1 $375 -0.5 $278 0 $374 $376 forward @7 unknown #
coedge $-1 -1 $-1 $363 $185 $377 $378 forward $276 $-1 #
coedge $-1 -1 $-1 $185 $267 $354 $379 forward $276 $-1 #
loop $-1 -1 $-1 $-1 $185 $380 #
vertex $-1 -1 $-1 $379 $381 #
vertex $-1 -1 $-1 $378 $382 #
ellipse-curve $-1 -1 $-1 1.5026019100214134 0.25 1.5026019100214132 0 -1 0 -0.53033008588991004 0 0.53033008588991093 1 I I #
coedge $-1 -1 $-1 $383 $384 $187 $281 forward $385 $-1 #
edge $-1 -1 $-1 $291 -0.7853981633974475 $285 -1.9737298215558337e-016 $280 $279 forward @7 unknown #
coedge $-1 -1 $-1 $386 $188 $193 $296 reversed $284 $-1 #
coedge $-1 -1 $-1 $188 $386 $383 $387 reversed $284 $-1 #
loop $-1 -1 $-1 $-1 $282 $352 #
vertex $-1 -1 $-1 $281 $388 #
straight-curve $-1 -1 $-1 0.97227182413150315 0.25 2.0329319959113246 0 -1 0 I I #
coedge $-1 -1 $-1 $389 $190 $384 $390 forward $290 $-1 #
coedge $-1 -1 $-1 $190 $389 $192 $294 forward $290 $-1 #
coedge $-1 -1 $-1 $391 $392 $393 $191 reversed $394 $-1 #
loop $-1 -1 $-1 $-1 $190 $395 #
vertex $-1 -1 $-1 $390 $396 #
straight-curve $-1 -1 $-1 1.5026019100214134 0.25 2.2526019100214132 0 1 0 I I #
coedge $-1 -1 $-1 $295 $192 $397 $398 forward $194 $-1 #
edge $-1 -1 $-1 $399 -2.2526019100214132 $196 1.5026019100214134 $192 $400 forward @7 unknown #
coedge $-1 -1 $-1 $193 $293 $264 $357 forward $194 $-1 #
edge $-1 -1 $-1 $401 -3.1875 $195 1.0625000000000004 $193 $402 forward @7 unknown #
face $-1 -1 $-1 $403 $194 $29 $-1 $404 reversed single #
point $-1 -1 $-1 0.97227182413150315 -0.25 2.0329319959113246 #
edge $-1 -1 $-1 $196 1.5026019100214134 $405 2.2526019100214132 $406 $400 forward @7 unknown #
point $-1 -1 $-1 1.5026019100214134 -0.25 2.2526019100214132 #
model_id-kcp-attrib $-1 -1 $-1 $-1 $199 1 1021323510 1021323510 -126222335 8 #
face $407 -1 $-1 $-1 $320 $9 $-1 $408 forward single #
loop $-1 -1 $-1 $-1 $316 $199 #
cone-surface $-1 -1 $-1 -3.0052019100214133 4.9370000000000003 4.1301980899785864 0 -1 0 0.5303300858899106 0 0.5303300858899106 1 I I 0 1 0.75 forward I I I I #
coedge $-1 -1 $-1 $204 $203 $409 $410 reversed $94 $-1 #
coedge $-1 -1 $-1 $325 $324 $203 $307 forward $200 $-1 #
edge $411 -1 $-1 $412 -4.2500000000000009 $310 0 $306 $413 forward @7 unknown #
coedge $-1 -1 $-1 $319 $318 $204 $309 forward $320 $-1 #
edge $-1 -1 $-1 $311 -4.2500000000000009 $414 0 $308 $415 forward @7 unknown #
vertex $-1 -1 $-1 $329 $416 #
vertex $-1 -1 $-1 $330 $417 #
ellipse-curve $-1 -1 $-1 1.9100214134759597e-006 4.4370000000000003 7.1354019100214128 0 1 0 0.5303300858899106 0 -0.5303300858899106 1 I I #
convexity-sys-attrib $-1 -1 $-1 $207 $139 #
model_id-kcp-attrib $-1 -1 $-1 $-1 $208 1 1021323510 1021323510 -126222335 22 #
point $-1 -1 $-1 0.30936112679052785 4.4370000000000003 7.4447611267905272 #
coedge $-1 -1 $-1 $418 $419 $213 $317 reversed $303 $-1 #
edge $420 -1 $-1 $322 -3.1415926535897927 $327 0 $316 $421 forward @7 unknown #
coedge $-1 -1 $-1 $308 $214 $219 $330 reversed $320 $-1 #
coedge $-1 -1 $-1 $214 $308 $418 $422 forward $320 $-1 #
loop $-1 -1 $-1 $-1 $214 $302 #
attrib_edge_convexity-kcp-attrib $-1 -1 $423 $-1 $215 1 #
vertex $-1 -1 $-1 $422 $424 #
straight-curve $-1 -1 $-1 -2.4748718241315029 4.9370000000000003 3.5998680040886755 -0.70710678118654746 0 -0.70710678118654746 I I #
coedge $-1 -1 $-1 $306 $216 $419 $425 reversed $200 $-1 #
coedge $-1 -1 $-1 $216 $306 $218 $329 forward $200 $-1 #
attrib_edge_convexity-kcp-attrib $-1 -1 $426 $-1 $217 1 #
vertex $-1 -1 $-1 $425 $427 #
straight-curve $-1 -1 $-1 -0.53032817586849712 4.9370000000000003 7.6657319959113241 0.70710678118654746 0 0.70710678118654746 I I #
edge $428 -1 $-1 $310 -0.5 $221 0 $325 $429 forward @7 unknown #
edge $-1 -1 $-1 $311 -0.5 $222 0 $318 $430 forward @7 unknown #
convexity-sys-attrib $-1 -1 $-1 $220 $146 #
point $-1 -1 $-1 -0.53032817586849712 4.9370000000000003 7.6657319959113241 #
point $-1 -1 $-1 0.53033199591132418 4.9370000000000003 6.6050718241315023 #
plane-surface $-1 -1 $-1 2.2526019100214132 0 0 -1 0 0 0 0 1 forward_v I I I I #
coedge $-1 -1 $-1 $233 $231 $235 $339 reversed $154 $-1 #
edge $-1 -1 $-1 $246 -2.2526019100214132 $341 2.2526019100214132 $245 $431 forward @7 unknown #
vertex $-1 -1 $-1 $339 $432 #
straight-curve $-1 -1 $-1 -2.2526019100214132 -0.25 0 0 0 -1 I I #
edge $-1 -1 $-1 $337 -0.25 $341 0.25 $335 $433 forward @7 unknown #
straight-curve $-1 -1 $-1 0 -0.25 -2.2526019100214132 -1 0 0 I I #
vertex $-1 -1 $-1 $238 $434 #
straight-curve $-1 -1 $-1 0 0.25 -2.2526019100214132 1 0 0 I I #
point $-1 -1 $-1 2.2526019100214132 0.25 -2.2526019100214132 #
point $-1 -1 $-1 2.2526019100214132 -0.25 -2.2526019100214132 #
straight-curve $-1 -1 $-1 -2.2526019100214132 0 2.2526019100214132 0 -1 0 I I #
point $-1 -1 $-1 -2.2526019100214132 0.25 2.2526019100214132 #
point $-1 -1 $-1 -2.2526019100214132 -0.25 2.2526019100214132 #
straight-curve $-1 -1 $-1 2.2526019100214132 -0.25 0 0 0 -1 I I #
straight-curve $-1 -1 $-1 2.2526019100214132 0.25 0 0 0 -1 I I #
point $-1 -1 $-1 0.43749999999999994 0 0.25 #
point $-1 -1 $-1 0.43749999999999994 0 0.25 #
face $-1 -1 $-1 $435 $284 $29 $-1 $436 reversed single #
loop $-1 -1 $-1 $-1 $272 $261 #
coedge $-1 -1 $-1 $361 $270 $275 $379 reversed $262 $-1 #
coedge $-1 -1 $-1 $437 $264 $438 $439 forward $181 $-1 #
coedge $-1 -1 $-1 $264 $437 $386 $440 reversed $181 $-1 #
edge $-1 -1 $-1 $441 2.3561944901923444 $401 3.1415926535897927 $295 $442 forward @7 unknown #
coedge $-1 -1 $-1 $266 $265 $443 $444 reversed $123 $-1 #
coedge $-1 -1 $-1 $445 $446 $447 $360 forward $448 $-1 #
edge $-1 -1 $-1 $449 -0.5 $364 0 $359 $450 forward @7 unknown #
coedge $-1 -1 $-1 $369 $354 $266 $362 forward $262 $-1 #
edge $-1 -1 $-1 $365 0 $451 0.5 $266 $452 forward @7 unknown #
coedge $-1 -1 $-1 $267 $274 $445 $453 reversed $276 $-1 #
vertex $-1 -1 $-1 $453 $454 #
vertex $-1 -1 $-1 $379 $455 #
ellipse-curve $-1 -1 $-1 -1.5026019100214134 0.25 -1.5026019100214132 0 -1 0 0.53033008588991026 0 -0.53033008588991093 1 I I #
coedge $-1 -1 $-1 $456 $457 $269 $368 forward $458 $-1 #
edge $-1 -1 $-1 $375 2.3561944901923439 $370 3.1415926535897905 $367 $197 forward @7 unknown #
coedge $-1 -1 $-1 $270 $361 $456 $459 reversed $262 $-1 #
vertex $-1 -1 $-1 $459 $460 #
straight-curve $-1 -1 $-1 2.032931995911325 0.25 0.97227182413150359 0 -1 0 I I #
coedge $-1 -1 $-1 $393 $272 $461 $462 reversed $353 $-1 #
coedge $-1 -1 $-1 $272 $393 $463 $464 reversed $353 $-1 #
coedge $-1 -1 $-1 $465 $466 $467 $273 forward $468 $-1 #
vertex $-1 -1 $-1 $469 $470 #
straight-curve $-1 -1 $-1 2.2526019100214132 0.25 1.5026019100214132 0 1 0 I I #
coedge $-1 -1 $-1 $467 $471 $274 $378 reversed $472 $-1 #
edge $-1 -1 $-1 $278 -1.5026019100214132 $473 2.2526019100214132 $377 $474 forward @7 unknown #
edge $-1 -1 $-1 $365 -1.0625000000000002 $277 3.1875000000000009 $275 $475 forward @7 unknown #
face $-1 -1 $-1 $476 $276 $29 $-1 $477 reversed single #
point $-1 -1 $-1 2.032931995911325 0.25 0.97227182413150359 #
point $-1 -1 $-1 2.2526019100214132 0.25 1.5026019100214132 #
coedge $-1 -1 $-1 $478 $280 $283 $387 forward $385 $-1 #
coedge $-1 -1 $-1 $280 $479 $287 $390 reversed $385 $-1 #
loop $-1 -1 $-1 $-1 $280 $480 #
coedge $-1 -1 $-1 $283 $282 $356 $440 forward $284 $-1 #
edge $-1 -1 $-1 $285 -1.0625000000000004 $481 3.1875 $383 $482 forward @7 unknown #
point $-1 -1 $-1 0.97227182413150315 0.25 2.0329319959113246 #
coedge $-1 -1 $-1 $288 $287 $483 $484 forward $290 $-1 #
edge $-1 -1 $-1 $291 -1.5026019100214134 $485 2.2526019100214132 $384 $486 forward @7 unknown #
coedge $-1 -1 $-1 $487 $289 $406 $299 forward $394 $-1 #
coedge $-1 -1 $-1 $289 $487 $488 $489 forward $394 $-1 #
coedge $-1 -1 $-1 $373 $372 $127 $191 forward $353 $-1 #
loop $-1 -1 $-1 $-1 $289 $490 #
face $-1 -1 $-1 $491 $290 $29 $-1 $492 forward single #
point $-1 -1 $-1 1.5026019100214134 0.25 2.2526019100214132 #
coedge $-1 -1 $-1 $483 $493 $293 $398 reversed $494 $-1 #
edge $-1 -1 $-1 $399 -2.2526019100214132 $441 1.5026019100214132 $397 $495 forward @7 unknown #
vertex $-1 -1 $-1 $484 $496 #
straight-curve $-1 -1 $-1 0 -0.25 2.2526019100214132 1 0 0 I I #
vertex $-1 -1 $-1 $296 $497 #
straight-curve $-1 -1 $-1 0.22097086912079617 -0.25 1.2816310409006177 0.70710678118654757 0 0.70710678118654757 I I #
face $-1 -1 $-1 $498 $499 $29 $-1 $404 reversed single #
plane-surface $-1 -1 $-1 0 -0.25 0 0 1 0 0 0 1 forward_v I I I I #
vertex $-1 -1 $-1 $500 $501 #
coedge $-1 -1 $-1 $461 $502 $391 $299 reversed $499 $-1 #
model_id-kcp-attrib $-1 -1 $-1 $-1 $302 1 1021323510 1021323510 -126222335 9 #
plane-surface $-1 -1 $-1 -2.4748718241315029 4.9370000000000003 3.5998680040886755 0.70710678118654757 0 -0.70710678118654757 0 1 0 forward_v I I I I #
coedge $-1 -1 $-1 $419 $418 $305 $410 forward $303 $-1 #
edge $-1 -1 $-1 $414 -3.1415926535897927 $412 0 $409 $503 forward @7 unknown #
attrib_edge_convexity-kcp-attrib $-1 -1 $504 $-1 $307 1 #
vertex $-1 -1 $-1 $425 $505 #
straight-curve $-1 -1 $-1 -0.53032817586849712 4.4370000000000003 7.6657319959113241 0.70710678118654746 0 0.70710678118654746 I I #
vertex $-1 -1 $-1 $422 $506 #
straight-curve $-1 -1 $-1 -2.4748718241315029 4.4370000000000003 3.5998680040886755 -0.70710678118654746 0 -0.70710678118654746 I I #
point $-1 -1 $-1 -0.53032817586849712 4.4370000000000003 7.6657319959113241 #
point $-1 -1 $-1 0.53033199591132418 4.4370000000000003 6.6050718241315023 #
coedge $-1 -1 $-1 $409 $316 $319 $422 reversed $303 $-1 #
coedge $-1 -1 $-1 $316 $409 $324 $425 forward $303 $-1 #
attrib_edge_convexity-kcp-attrib $-1 -1 $507 $-1 $317 1 #
ellipse-curve $-1 -1 $-1 -3.0052019100214133 4.9370000000000003 4.1301980899785864 0 1 0 -0.5303300858899106 0 0.5303300858899106 1 I I #
edge $-1 -1 $-1 $414 -0.5 $322 0 $319 $508 forward @7 unknown #
convexity-sys-attrib $-1 -1 $-1 $321 $215 #
point $-1 -1 $-1 -2.4748718241315029 4.9370000000000003 3.5998680040886755 #
edge $509 -1 $-1 $412 -0.5 $327 0 $419 $510 forward @7 unknown #
convexity-sys-attrib $-1 -1 $-1 $326 $217 #
point $-1 -1 $-1 -3.5355319959113238 4.9370000000000003 4.6605281758684969 #
attrib_edge_convexity-kcp-attrib $-1 -1 $511 $-1 $329 3 #
straight-curve $-1 -1 $-1 -0.53032817586849712 4.9370000000000003 7.6657319959113241 0 1 0 I I #
straight-curve $-1 -1 $-1 0.53033199591132418 4.9370000000000003 6.6050718241315023 0 1 0 I I #
straight-curve $-1 -1 $-1 -2.2526019100214132 0.25 0 0 0 -1 I I #
point $-1 -1 $-1 -2.2526019100214132 -0.25 -2.2526019100214132 #
straight-curve $-1 -1 $-1 -2.2526019100214132 0 -2.2526019100214132 0 1 0 I I #
point $-1 -1 $-1 -2.2526019100214132 0.25 -2.2526019100214132 #
face $-1 -1 $-1 $490 $512 $29 $-1 $124 reversed single #
plane-surface $-1 -1 $-1 0.97227182413150315 0.25 2.0329319959113246 -0.70710678118654757 0 0.70710678118654757 0 -1 0 forward_v I I I I #
coedge $-1 -1 $-1 $356 $355 $478 $513 reversed $181 $-1 #
coedge $-1 -1 $-1 $514 $515 $516 $439 reversed $512 $-1 #
edge $-1 -1 $-1 $441 -0.5 $517 0 $516 $518 forward @7 unknown #
edge $-1 -1 $-1 $401 -0.5 $481 0 $356 $519 forward @7 unknown #
vertex $-1 -1 $-1 $520 $521 #
ellipse-curve $-1 -1 $-1 -1.5026019100214134 -0.25 -1.5026019100214132 0 1 0 0.53033008588991026 0 -0.53033008588991093 1 I I #
coedge $-1 -1 $-1 $522 $456 $358 $444 forward $458 $-1 #
edge $-1 -1 $-1 $451 -1.9737298215558337e-016 $449 0.78539816339744772 $443 $442 forward @7 unknown #
coedge $-1 -1 $-1 $523 $359 $363 $453 forward $448 $-1 #
coedge $-1 -1 $-1 $359 $523 $522 $524 forward $448 $-1 #
coedge $-1 -1 $-1 $525 $526 $527 $360 reversed $528 $-1 #
loop $-1 -1 $-1 $-1 $359 $491 #
vertex $-1 -1 $-1 $529 $530 #
straight-curve $-1 -1 $-1 -1.5026019100214134 0.25 -2.2526019100214132 0 1 0 I I #
vertex $-1 -1 $-1 $459 $531 #
straight-curve $-1 -1 $-1 -0.97227182413150293 0.25 -2.0329319959113241 0 -1 0 I I #
edge $-1 -1 $-1 $364 -1.5026019100214134 $473 2.2526019100214132 $363 $532 forward @7 unknown #
point $-1 -1 $-1 -1.5026019100214134 0.25 -2.2526019100214132 #
point $-1 -1 $-1 -0.97227182413150293 0.25 -2.0329319959113241 #
coedge $-1 -1 $-1 $443 $367 $369 $459 forward $458 $-1 #
coedge $-1 -1 $-1 $367 $522 $533 $469 reversed $458 $-1 #
loop $-1 -1 $-1 $-1 $367 $498 #
edge $-1 -1 $-1 $370 -3.1875000000000009 $451 1.0625000000000002 $456 $534 forward @7 unknown #
point $-1 -1 $-1 2.032931995911325 -0.25 0.97227182413150359 #
coedge $-1 -1 $-1 $502 $406 $372 $462 forward $499 $-1 #
edge $-1 -1 $-1 $196 0.7853981633974475 $375 2.3561944901923439 $461 $197 forward @7 unknown #
coedge $-1 -1 $-1 $488 $535 $373 $464 forward $536 $-1 #
edge $-1 -1 $-1 $278 -2.3561944901923439 $291 -0.7853981633974475 $463 $279 forward @7 unknown #
coedge $-1 -1 $-1 $537 $374 $535 $538 reversed $468 $-1 #
coedge $-1 -1 $-1 $374 $537 $502 $539 forward $468 $-1 #
coedge $-1 -1 $-1 $533 $377 $184 $273 reversed $472 $-1 #
loop $-1 -1 $-1 $-1 $374 $540 #
edge $-1 -1 $-1 $375 -1.5026019100214132 $541 2.2526019100214132 $533 $542 forward @7 unknown #
point $-1 -1 $-1 2.2526019100214132 -0.25 1.5026019100214132 #
coedge $-1 -1 $-1 $377 $533 $523 $543 reversed $472 $-1 #
loop $-1 -1 $-1 $-1 $467 $544 #
vertex $-1 -1 $-1 $543 $545 #
straight-curve $-1 -1 $-1 2.2526019100214132 0.25 0 0 0 -1 I I #
straight-curve $-1 -1 $-1 -0.22097086912079617 0.25 -1.2816310409006173 0.70710678118654757 0 0.70710678118654757 I I #
face $-1 -1 $-1 $480 $536 $29 $-1 $477 reversed single #
plane-surface $-1 -1 $-1 0 0.25 0 0 -1 0 0 0 -1 forward_v I I I I #
coedge $-1 -1 $-1 $479 $383 $437 $513 forward $385 $-1 #
coedge $-1 -1 $-1 $384 $478 $546 $547 reversed $385 $-1 #
face $-1 -1 $-1 $548 $385 $29 $-1 $477 reversed single #
vertex $-1 -1 $-1 $387 $549 #
straight-curve $-1 -1 $-1 0.22097086912079617 0.25 1.2816310409006177 -0.70710678118654757 0 -0.70710678118654757 I I #
coedge $-1 -1 $-1 $546 $397 $389 $484 reversed $494 $-1 #
edge $-1 -1 $-1 $485 -0.25 $399 0.25 $483 $550 forward @7 unknown #
vertex $-1 -1 $-1 $390 $551 #
straight-curve $-1 -1 $-1 0 0.25 2.2526019100214132 -1 0 0 I I #
coedge $-1 -1 $-1 $392 $391 $537 $500 forward $394 $-1 #
coedge $-1 -1 $-1 $535 $463 $392 $489 reversed $536 $-1 #
edge $-1 -1 $-1 $552 -2.2526019100214132 $291 -1.5026019100214134 $488 $486 forward @7 unknown #
face $-1 -1 $-1 $544 $394 $29 $-1 $492 forward single #
face $-1 -1 $-1 $553 $448 $29 $-1 $554 reversed single #
plane-surface $-1 -1 $-1 0 0 2.2526019100214132 0 0 1 1 0 0 forward_v I I I I #
coedge $-1 -1 $-1 $397 $546 $355 $439 reversed $494 $-1 #
loop $-1 -1 $-1 $-1 $493 $553 #
straight-curve $-1 -1 $-1 -2.2526019100214132 -0.25 0 0 0 -1 I I #
point $-1 -1 $-1 -2.2526019100214132 -0.25 2.2526019100214132 #
point $-1 -1 $-1 -2.0329319959113237 -0.25 -0.9722718241315027 #
face $-1 -1 $-1 $380 $458 $29 $-1 $404 reversed single #
loop $-1 -1 $-1 $-1 $461 $403 #
edge $-1 -1 $-1 $405 -0.25 $552 0.25 $537 $555 forward @7 unknown #
point $-1 -1 $-1 2.2526019100214132 -0.25 2.2526019100214132 #
coedge $-1 -1 $-1 $406 $461 $466 $539 reversed $499 $-1 #
ellipse-curve $-1 -1 $-1 -3.0052019100214133 4.4370000000000003 4.1301980899785864 0 1 0 -0.5303300858899106 0 0.5303300858899106 1 I I #
convexity-sys-attrib $-1 -1 $-1 $411 $307 #
point $-1 -1 $-1 -3.5355319959113238 4.4370000000000003 4.6605281758684969 #
point $-1 -1 $-1 -2.4748718241315029 4.4370000000000003 3.5998680040886755 #
convexity-sys-attrib $-1 -1 $-1 $420 $317 #
straight-curve $-1 -1 $-1 -2.4748718241315029 4.9370000000000003 3.5998680040886755 0 1 0 I I #
attrib_edge_convexity-kcp-attrib $-1 -1 $556 $-1 $425 3 #
straight-curve $-1 -1 $-1 -3.5355319959113238 4.9370000000000003 4.6605281758684969 0 1 0 I I #
convexity-sys-attrib $-1 -1 $-1 $428 $329 #
loop $-1 -1 $-1 $-1 $514 $435 #
edge $-1 -1 $-1 $481 -3.1415926535897927 $517 -2.3561944901923444 $478 $366 forward @7 unknown #
coedge $-1 -1 $-1 $527 $438 $557 $558 reversed $512 $-1 #
coedge $-1 -1 $-1 $438 $527 $559 $560 reversed $512 $-1 #
coedge $-1 -1 $-1 $561 $562 $493 $439 forward $563 $-1 #
vertex $-1 -1 $-1 $564 $565 #
straight-curve $-1 -1 $-1 -2.2526019100214132 0.25 -1.5026019100214132 0 1 0 I I #
straight-curve $-1 -1 $-1 -2.0329319959113237 0.25 -0.9722718241315027 0 1 0 I I #
edge $-1 -1 $-1 $441 1.5026019100214132 $566 2.2526019100214132 $562 $495 forward @7 unknown #
point $-1 -1 $-1 -2.2526019100214132 -0.25 -1.5026019100214132 #
coedge $-1 -1 $-1 $457 $443 $446 $524 reversed $458 $-1 #
coedge $-1 -1 $-1 $446 $445 $471 $543 forward $448 $-1 #
edge $-1 -1 $-1 $541 -2.2526019100214132 $449 1.5026019100214134 $522 $567 forward @7 unknown #
coedge $-1 -1 $-1 $568 $447 $569 $529 forward $528 $-1 #
coedge $-1 -1 $-1 $447 $568 $570 $571 forward $528 $-1 #
coedge $-1 -1 $-1 $515 $514 $265 $360 forward $512 $-1 #
loop $-1 -1 $-1 $-1 $447 $572 #
edge $-1 -1 $-1 $449 1.5026019100214134 $566 2.2526019100214132 $569 $567 forward @7 unknown #
point $-1 -1 $-1 -1.5026019100214134 -0.25 -2.2526019100214132 #
point $-1 -1 $-1 -0.97227182413150293 -0.25 -2.0329319959113241 #
straight-curve $-1 -1 $-1 0 0.25 -2.2526019100214132 1 0 0 I I #
coedge $-1 -1 $-1 $471 $467 $457 $469 forward $472 $-1 #
straight-curve $-1 -1 $-1 -0.22097086912079617 -0.25 -1.2816310409006173 -0.70710678118654757 0 -0.70710678118654757 I I #
coedge $-1 -1 $-1 $463 $488 $465 $538 forward $536 $-1 #
loop $-1 -1 $-1 $-1 $463 $476 #
coedge $-1 -1 $-1 $466 $465 $487 $500 reversed $468 $-1 #
edge $-1 -1 $-1 $552 -2.2526019100214132 $278 -1.5026019100214132 $465 $474 forward @7 unknown #
edge $-1 -1 $-1 $405 -2.2526019100214132 $375 -1.5026019100214132 $466 $542 forward @7 unknown #
face $-1 -1 $-1 $-1 $468 $29 $-1 $573 reversed single #
vertex $-1 -1 $-1 $469 $574 #
straight-curve $-1 -1 $-1 2.2526019100214132 -0.25 0 0 0 -1 I I #
edge $-1 -1 $-1 $473 -0.25 $541 0.25 $471 $575 forward @7 unknown #
face $-1 -1 $-1 $576 $472 $29 $-1 $573 reversed single #
point $-1 -1 $-1 2.2526019100214132 0.25 -2.2526019100214132 #
coedge $-1 -1 $-1 $493 $483 $479 $547 forward $494 $-1 #
edge $-1 -1 $-1 $485 -2.2526019100214132 $517 1.5026019100214132 $479 $577 forward @7 unknown #
face $-1 -1 $-1 $572 $578 $29 $-1 $477 reversed single #
point $-1 -1 $-1 -2.0329319959113237 0.25 -0.9722718241315027 #
straight-curve $-1 -1 $-1 -2.2526019100214132 0 2.2526019100214132 0 -1 0 I I #
point $-1 -1 $-1 -2.2526019100214132 0.25 2.2526019100214132 #
vertex $-1 -1 $-1 $500 $579 #
face $-1 -1 $-1 $540 $494 $29 $-1 $580 reversed single #
plane-surface $-1 -1 $-1 0 0 -2.2526019100214132 0 0 1 1 0 0 forward_v I I I I #
straight-curve $-1 -1 $-1 2.2526019100214132 0 2.2526019100214132 0 1 0 I I #
convexity-sys-attrib $-1 -1 $-1 $509 $425 #
coedge $-1 -1 $-1 $581 $569 $514 $558 forward $582 $-1 #
edge $-1 -1 $-1 $449 0.78539816339744772 $441 2.3561944901923444 $557 $442 forward @7 unknown #
coedge $-1 -1 $-1 $570 $583 $515 $560 forward $578 $-1 #
edge $-1 -1 $-1 $517 -2.3561944901923444 $364 -0.78539816339744772 $559 $366 forward @7 unknown #
coedge $-1 -1 $-1 $584 $516 $583 $564 forward $563 $-1 #
coedge $-1 -1 $-1 $516 $584 $581 $520 reversed $563 $-1 #
loop $-1 -1 $-1 $-1 $516 $576 #
edge $-1 -1 $-1 $517 1.5026019100214132 $585 2.2526019100214132 $583 $577 forward @7 unknown #
point $-1 -1 $-1 -2.2526019100214132 0.25 -1.5026019100214132 #
vertex $-1 -1 $-1 $586 $587 #
straight-curve $-1 -1 $-1 0 -0.25 -2.2526019100214132 -1 0 0 I I #
coedge $-1 -1 $-1 $526 $525 $584 $586 forward $528 $-1 #
coedge $-1 -1 $-1 $557 $581 $525 $529 reversed $582 $-1 #
coedge $-1 -1 $-1 $583 $559 $526 $571 reversed $578 $-1 #
edge $-1 -1 $-1 $585 -2.2526019100214132 $364 -1.5026019100214134 $570 $532 forward @7 unknown #
face $-1 -1 $-1 $395 $528 $29 $-1 $554 reversed single #
plane-surface $-1 -1 $-1 2.2526019100214132 0 0 -1 0 0 0 0 1 forward_v I I I I #
point $-1 -1 $-1 2.2526019100214132 -0.25 -2.2526019100214132 #
straight-curve $-1 -1 $-1 2.2526019100214132 0 -2.2526019100214132 0 -1 0 I I #
face $-1 -1 $-1 $588 $563 $29 $-1 $580 reversed single #
straight-curve $-1 -1 $-1 -2.2526019100214132 0.25 0 0 0 -1 I I #
loop $-1 -1 $-1 $-1 $559 $548 #
point $-1 -1 $-1 2.2526019100214132 0.25 2.2526019100214132 #
plane-surface $-1 -1 $-1 -2.2526019100214132 0 0 1 0 0 0 0 -1 forward_v I I I I #
coedge $-1 -1 $-1 $569 $557 $562 $520 forward $582 $-1 #
loop $-1 -1 $-1 $-1 $557 $588 #
coedge $-1 -1 $-1 $559 $570 $561 $564 reversed $578 $-1 #
coedge $-1 -1 $-1 $562 $561 $568 $586 reversed $563 $-1 #
vertex $-1 -1 $-1 $571 $589 #
edge $-1 -1 $-1 $566 -0.25 $585 0.25 $584 $590 forward @7 unknown #
point $-1 -1 $-1 -2.2526019100214132 -0.25 -2.2526019100214132 #
face $-1 -1 $-1 $297 $582 $29 $-1 $404 reversed single #
point $-1 -1 $-1 -2.2526019100214132 0.25 -2.2526019100214132 #
straight-curve $-1 -1 $-1 -2.2526019100214132 0 -2.2526019100214132 0 1 0 I I #
End-of-ACIS-data 