600 0 1 0           
105 GICL ACIS Healer - Source: /gicl/data5/repository/CMU/spectrometer/linkage_arm_short_46_link_43.sat - 6 0 18 ACIS 6.0.3 Solaris 24 Sat Apr 13 00:29:27 2002 
1 9.999999999999999547e-07 1.000000000000000036e-10 
body $-1 $1 $-1 $-1 #
lump $-1 $-1 $2 $0 #
shell $-1 $-1 $-1 $3 $-1 $1 #
face $-1 $4 $5 $2 $-1 $6 reversed single #
face $-1 $7 $8 $2 $-1 $9 forward single #
loop $-1 $10 $11 $3 #
plane-surface $-1 -1.502599999999999936 -4.937000000000000277 5.632799999999999585 0 1 0 0.7071067811865474617 0 0.7071067811865474617 forward_v I I I I #
face $-1 $12 $13 $2 $-1 $14 reversed single #
loop $-1 $15 $16 $4 #
plane-surface $-1 -1.502599999999999936 -4.437000000000000277 5.632799999999999585 0 1 0 0.7071067811865474617 0 0.7071067811865474617 forward_v I I I I #
loop $-1 $17 $18 $3 #
coedge $-1 $11 $11 $19 $20 forward $5 $-1 #
face $-1 $21 $22 $2 $-1 $23 reversed single #
loop $-1 $24 $25 $7 #
cone-surface $-1 -3.005201910021413347 -4.937000000000000277 4.130198089978586395 0 1 0 0.3093592167691144867 0 0.3093592167691144867 1 I I 0 1 0.4375 forward I I I I #
loop $-1 $26 $27 $4 #
coedge $-1 $16 $16 $25 $28 reversed $8 $-1 #
loop $-1 $-1 $29 $3 #
coedge $-1 $18 $18 $30 $31 forward $10 $-1 #
coedge $-1 $19 $19 $11 $20 reversed $24 $-1 #
edge $-1 $32 -3.141592653589793116 $32 3.141592653589793116 $19 $33 forward 7 unknown #
face $-1 $34 $35 $2 $-1 $36 forward single #
loop $-1 $37 $38 $12 #
cone-surface $-1 1.910021413475959662e-06 -4.937000000000000277 7.135401910021412775 0 1 0 0.3093592167691144867 0 0.3093592167691144867 1 I I 0 1 0.4375 forward I I I I #
loop $-1 $-1 $19 $7 #
coedge $-1 $25 $25 $16 $28 forward $13 $-1 #
loop $-1 $-1 $39 $4 #
coedge $-1 $27 $27 $38 $40 reversed $15 $-1 #
edge $-1 $41 0 $41 6.283185307179586232 $25 $42 forward 7 unknown #
coedge $-1 $43 $44 $45 $46 forward $17 $-1 #
coedge $-1 $30 $30 $18 $31 reversed $37 $-1 #
edge $-1 $47 -3.141592653589793116 $47 3.141592653589793116 $30 $48 forward 7 unknown #
vertex $-1 $20 $49 #
ellipse-curve $-1 -3.005201910021413347 -4.937000000000000277 4.130198089978586395 0 1 0 -0.3093592167691144867 0 -0.3093592167691144867 1 I I #
face $-1 $50 $51 $2 $-1 $52 forward single #
loop $-1 $-1 $45 $21 #
cone-surface $-1 1.910021413475959662e-06 -4.937000000000000277 7.135401910021412775 0 1 0 0.5303300858899105963 0 0.5303300858899105963 1 I I 0 1 0.75 forward I I I I #
loop $-1 $-1 $30 $12 #
coedge $-1 $38 $38 $27 $40 forward $22 $-1 #
coedge $-1 $53 $54 $55 $56 reversed $26 $-1 #
edge $-1 $57 0 $57 6.283185307179586232 $38 $58 forward 7 unknown #
vertex $-1 $28 $59 #
ellipse-curve $-1 -3.005201910021413347 -4.437000000000000277 4.130198089978586395 0 1 0 0.3093592167691144867 0 0.3093592167691144867 1 I I #
coedge $-1 $60 $29 $61 $62 forward $17 $-1 #
coedge $-1 $29 $60 $63 $64 forward $17 $-1 #
coedge $-1 $65 $66 $29 $46 reversed $35 $-1 #
edge $-1 $67 -3.141592653589793116 $68 -7.894919286223331016e-16 $45 $69 forward 7 unknown #
vertex $-1 $31 $70 #
ellipse-curve $-1 1.910021413475959662e-06 -4.937000000000000277 7.135401910021412775 0 1 0 -0.3093592167691144867 0 -0.3093592167691144867 1 I I #
point $-1 -2.695842693252298972 -4.937000000000000277 4.439557306747700771 #
face $-1 $71 $72 $2 $-1 $73 forward single #
loop $-1 $-1 $63 $34 #
plane-surface $-1 0.5303319959113241833 -4.937000000000000277 6.605071824131502289 0.7071067811865474617 0 -0.7071067811865474617 0 1 0 forward_v I I I I #
coedge $-1 $74 $39 $75 $76 reversed $26 $-1 #
coedge $-1 $39 $74 $77 $78 reversed $26 $-1 #
coedge $-1 $66 $65 $39 $56 forward $35 $-1 #
edge $-1 $79 -3.141592653589793116 $80 -7.894919286223331016e-16 $55 $81 forward 7 unknown #
vertex $-1 $40 $82 #
ellipse-curve $-1 1.910021413475959662e-06 -4.437000000000000277 7.135401910021412775 0 1 0 0.3093592167691144867 0 0.3093592167691144867 1 I I #
point $-1 -2.695842693252298972 -4.437000000000000277 4.439557306747700771 #
coedge $-1 $44 $43 $83 $84 forward $17 $-1 #
coedge $-1 $85 $86 $43 $62 reversed $87 $-1 #
edge $-1 $68 -4.250000000000000888 $88 0 $61 $89 forward 7 unknown #
coedge $-1 $90 $91 $44 $64 reversed $51 $-1 #
edge $-1 $92 -4.250000000000000888 $67 0 $63 $93 forward 7 unknown #
coedge $-1 $55 $45 $91 $94 reversed $35 $-1 #
coedge $-1 $45 $55 $85 $95 forward $35 $-1 #
vertex $-1 $94 $96 #
vertex $-1 $95 $97 #
ellipse-curve $-1 1.910021413475959662e-06 -4.937000000000000277 7.135401910021412775 0 -1 0 -0.5303300858899105963 0 0.5303300858899105963 1 I I #
point $-1 0.3093611267905278517 -4.937000000000000277 7.44476112679052715 #
face $-1 $-1 $87 $2 $-1 $98 forward single #
loop $-1 $-1 $83 $50 #
cone-surface $-1 -3.005201910021413347 -4.937000000000000277 4.130198089978586395 0 1 0 0.5303300858899105963 0 0.5303300858899105963 1 I I 0 1 0.75 forward I I I I #
coedge $-1 $54 $53 $99 $100 reversed $26 $-1 #
coedge $-1 $91 $90 $53 $76 forward $51 $-1 #
edge $-1 $101 -4.250000000000000888 $79 0 $75 $102 forward 7 unknown #
coedge $-1 $86 $85 $54 $78 forward $87 $-1 #
edge $-1 $80 -4.250000000000000888 $103 0 $77 $104 forward 7 unknown #
vertex $-1 $94 $105 #
vertex $-1 $95 $106 #
ellipse-curve $-1 1.910021413475959662e-06 -4.437000000000000277 7.135401910021412775 0 -1 0 -0.5303300858899105963 0 0.5303300858899105963 1 I I #
point $-1 0.3093611267905278517 -4.437000000000000277 7.44476112679052715 #
coedge $-1 $107 $108 $60 $84 reversed $72 $-1 #
edge $-1 $88 -3.141592653589793116 $92 -3.94745964311166748e-16 $83 $109 forward 7 unknown #
coedge $-1 $77 $61 $66 $95 reversed $87 $-1 #
coedge $-1 $61 $77 $107 $110 forward $87 $-1 #
loop $-1 $-1 $61 $71 #
vertex $-1 $110 $111 #
straight-curve $-1 -3.535531995911323833 -4.937000000000000277 4.660528175868496881 -0.7071067811865474617 0 -0.7071067811865474617 I I #
coedge $-1 $75 $63 $108 $112 reversed $51 $-1 #
coedge $-1 $63 $75 $65 $94 forward $51 $-1 #
vertex $-1 $112 $113 #
straight-curve $-1 0.5303319959113241833 -4.937000000000000277 6.605071824131502289 0.7071067811865474617 0 0.7071067811865474617 I I #
edge $-1 $79 -0.5 $67 0 $91 $114 forward 7 unknown #
edge $-1 $80 -0.5 $68 0 $85 $115 forward 7 unknown #
point $-1 0.5303319959113241833 -4.937000000000000277 6.605071824131502289 #
point $-1 -0.5303281758684971203 -4.937000000000000277 7.665731995911324148 #
plane-surface $-1 -3.535531995911323833 -4.937000000000000277 4.660528175868496881 -0.7071067811865474617 0 0.7071067811865474617 0 -1 0 forward_v I I I I #
coedge $-1 $108 $107 $74 $100 forward $72 $-1 #
edge $-1 $103 -3.141592653589793116 $101 -3.94745964311166748e-16 $99 $116 forward 7 unknown #
vertex $-1 $112 $117 #
straight-curve $-1 0.5303319959113241833 -4.437000000000000277 6.605071824131502289 0.7071067811865474617 0 0.7071067811865474617 I I #
vertex $-1 $110 $118 #
straight-curve $-1 -3.535531995911323833 -4.437000000000000277 4.660528175868496881 -0.7071067811865474617 0 -0.7071067811865474617 I I #
point $-1 0.5303319959113241833 -4.437000000000000277 6.605071824131502289 #
point $-1 -0.5303281758684971203 -4.437000000000000277 7.665731995911324148 #
coedge $-1 $99 $83 $86 $110 reversed $72 $-1 #
coedge $-1 $83 $99 $90 $112 forward $72 $-1 #
ellipse-curve $-1 -3.005201910021413347 -4.937000000000000277 4.130198089978586395 0 -1 0 0.5303300858899105963 0 -0.5303300858899105963 1 I I #
edge $-1 $103 -0.5 $88 0 $86 $119 forward 7 unknown #
point $-1 -3.535531995911323833 -4.937000000000000277 4.660528175868496881 #
edge $-1 $101 -0.5 $92 0 $108 $120 forward 7 unknown #
point $-1 -2.474871824131502862 -4.937000000000000277 3.599868004088675466 #
straight-curve $-1 0.5303319959113241833 -4.937000000000000277 6.605071824131502289 0 -1 0 I I #
straight-curve $-1 -0.5303281758684971203 -4.937000000000000277 7.665731995911324148 0 -1 0 I I #
ellipse-curve $-1 -3.005201910021413347 -4.437000000000000277 4.130198089978586395 0 -1 0 0.5303300858899105963 0 -0.5303300858899105963 1 I I #
point $-1 -2.474871824131502862 -4.437000000000000277 3.599868004088675466 #
point $-1 -3.535531995911323833 -4.437000000000000277 4.660528175868496881 #
straight-curve $-1 -3.535531995911323833 -4.937000000000000277 4.660528175868496881 0 -1 0 I I #
straight-curve $-1 -2.474871824131502862 -4.937000000000000277 3.599868004088675466 0 -1 0 I I #
End-of-ACIS-data 