700 0 2 0           
24 FBMach with ACIS - 7.0.3 13 ACIS 7.0.3 NT 24 Mon May 13 16:58:27 2002 
1 9.9999999999999995e-007 1e-010 
body $2 -1 $-1 $3 $-1 $4 #
bdycol-kcp $-1 -1 1 4 $5 $6 $7 $8 #
model_id-kcp-attrib $-1 -1 $-1 $-1 $0 1 1021323506 1021323506 1894907905 1 #
lump $-1 -1 $-1 $-1 $9 $0 #
transform $-1 -1 1.0000000000000002 0 0 0 1 0 0 0 1.0000000000000002 4.4408920985006262e-016 0 -8.8817841970012523e-016 1 rotate no_reflect no_shear #
body $10 -1 $-1 $11 $-1 $12 #
body $13 -1 $-1 $14 $-1 $15 #
body $16 -1 $-1 $17 $-1 $18 #
body $19 -1 $-1 $20 $-1 $21 #
shell $-1 -1 $-1 $-1 $-1 $22 $-1 $3 #
rgb_color-st-attrib $-1 -1 $23 $-1 $5 0.5 1 1 #
lump $-1 -1 $-1 $-1 $24 $5 #
transform $-1 -1 1 0 0 0 -3.8285889215894375e-016 1 0 -1 -3.8285889215894375e-016 3.0052019100214133 4.0300000000000002 4.1301980899785864 1 rotate no_reflect no_shear #
rgb_color-st-attrib $-1 -1 $25 $-1 $6 0.5 1 1 #
lump $-1 -1 $-1 $-1 $26 $6 #
transform $-1 -1 1 0 0 0 -3.8285889215894375e-016 1 0 -1 -3.8285889215894375e-016 -1.9100214134759597e-006 4.0300000000000002 7.1354019100214128 1 rotate no_reflect no_shear #
rgb_color-st-attrib $-1 -1 $27 $-1 $7 0.5 1 1 #
lump $-1 -1 $-1 $-1 $28 $7 #
transform $-1 -1 1 0 0 0 1 0 0 0 1 1.5025999999999999 4.0300000000000002 5.6327999999999996 1 no_rotate no_reflect no_shear #
model_id-kcp-attrib $-1 -1 $-1 $-1 $8 1 1021323506 1021323506 1894907906 1 #
lump $-1 -1 $-1 $-1 $29 $8 #
transform $-1 -1 1 0 0 0 1 0 0 0 1 1.5025999999999999 4.0300000000000002 5.6327999999999996 1 no_rotate no_reflect no_shear #
face $30 -1 $-1 $31 $32 $9 $-1 $33 reversed single #
model_id-kcp-attrib $-1 -1 $-1 $10 $5 1 1021323506 1021323506 1880096771 1 #
shell $-1 -1 $-1 $-1 $-1 $34 $-1 $11 #
model_id-kcp-attrib $-1 -1 $-1 $13 $6 1 1021323506 1021323506 1880096772 1 #
shell $-1 -1 $-1 $-1 $-1 $35 $-1 $14 #
model_id-kcp-attrib $-1 -1 $-1 $16 $7 1 1021323506 1021323506 1887961093 1 #
shell $-1 -1 $-1 $-1 $-1 $36 $-1 $17 #
shell $-1 -1 $-1 $-1 $-1 $37 $-1 $20 #
model_id-kcp-attrib $-1 -1 $-1 $-1 $22 1 1021323506 1021323506 1894907905 2 #
face $38 -1 $-1 $39 $40 $9 $-1 $41 forward single #
loop $42 -1 $-1 $43 $44 $22 #
plane-surface $-1 -1 $-1 1.5025999999999999 4.2800000000000002 5.6327999999999996 0 -1 0 -0.70710678118654746 0 0.70710678118654746 forward_v I I I I #
face $-1 -1 $-1 $45 $46 $24 $-1 $47 forward single #
face $-1 -1 $-1 $48 $49 $26 $-1 $50 forward single #
face $-1 -1 $-1 $51 $52 $28 $-1 $53 reversed single #
face $-1 -1 $-1 $54 $55 $29 $-1 $56 forward single #
model_id-kcp-attrib $-1 -1 $-1 $-1 $31 1 1021323506 1021323506 1894907905 3 #
face $57 -1 $-1 $58 $59 $9 $-1 $60 reversed single #
loop $61 -1 $-1 $62 $63 $31 #
plane-surface $-1 -1 $-1 1.5025999999999999 3.7800000000000002 5.6327999999999996 0 -1 0 -0.70710678118654746 0 0.70710678118654746 forward_v I I I I #
model_id-kcp-attrib $-1 -1 $-1 $-1 $32 1 1021323506 1021323506 1894907905 15 #
loop $64 -1 $-1 $65 $66 $22 #
coedge $-1 -1 $-1 $44 $44 $67 $68 forward $32 $-1 #
face $-1 -1 $-1 $69 $70 $24 $-1 $71 forward single #
loop $-1 -1 $-1 $72 $73 $34 #
cone-surface $-1 -1 $-1 0 0 0 0 0 1 0.43749999999999994 0 0 1 I I 0 1 0.43749999999999994 forward I I I I #
face $-1 -1 $-1 $74 $75 $26 $-1 $76 forward single #
loop $-1 -1 $-1 $77 $78 $35 #
cone-surface $-1 -1 $-1 0 0 0 0 0 1 0.43749999999999994 0 0 1 I I 0 1 0.43749999999999994 forward I I I I #
face $-1 -1 $-1 $79 $80 $28 $-1 $81 reversed single #
loop $-1 -1 $-1 $-1 $82 $36 #
plane-surface $-1 -1 $-1 2.0329319959113237 0.25 -0.9722718241315027 0.70710678118654757 0 0.70710678118654757 0 1 0 forward_v I I I I #
face $-1 -1 $-1 $83 $84 $29 $-1 $85 reversed single #
loop $-1 -1 $-1 $-1 $86 $37 #
plane-surface $-1 -1 $-1 0 0 2.2526019100214132 0 0 1 1 0 0 forward_v I I I I #
model_id-kcp-attrib $-1 -1 $-1 $-1 $39 1 1021323506 1021323506 1894907905 4 #
face $87 -1 $-1 $88 $89 $9 $-1 $90 reversed single #
loop $91 -1 $-1 $92 $93 $39 #
cone-surface $-1 -1 $-1 3.0052019100214133 4.2800000000000002 4.1301980899785864 0 -1 0 -0.30935921676911449 0 0.30935921676911449 1 I I 0 1 0.4375 forward I I I I #
model_id-kcp-attrib $-1 -1 $-1 $-1 $40 1 1021323506 1021323506 1894907905 14 #
loop $94 -1 $-1 $95 $96 $31 #
coedge $-1 -1 $-1 $63 $63 $93 $97 reversed $40 $-1 #
model_id-kcp-attrib $-1 -1 $-1 $-1 $43 1 1021323506 1021323506 1894907905 21 #
loop $-1 -1 $-1 $-1 $98 $22 #
coedge $-1 -1 $-1 $66 $66 $99 $100 forward $43 $-1 #
coedge $-1 -1 $-1 $67 $67 $44 $68 reversed $92 $-1 #
edge $101 -1 $-1 $102 -3.1415926535897931 $102 3.1415926535897931 $67 $103 forward @7 unknown #
face $-1 -1 $-1 $-1 $104 $24 $-1 $105 forward single #
loop $-1 -1 $-1 $-1 $106 $45 #
plane-surface $-1 -1 $-1 0 0 -0.25 0 0 -1 -1 0 0 forward_v I I I I #
loop $-1 -1 $-1 $-1 $107 $34 #
coedge $-1 -1 $-1 $73 $73 $106 $108 reversed $46 $-1 #
face $-1 -1 $-1 $-1 $109 $26 $-1 $110 forward single #
loop $-1 -1 $-1 $-1 $111 $48 #
plane-surface $-1 -1 $-1 0 0 -0.25 0 0 -1 -1 0 0 forward_v I I I I #
loop $-1 -1 $-1 $-1 $112 $35 #
coedge $-1 -1 $-1 $78 $78 $111 $113 reversed $49 $-1 #
face $-1 -1 $-1 $114 $115 $28 $-1 $81 reversed single #
loop $-1 -1 $-1 $-1 $116 $51 #
cone-surface $-1 -1 $-1 1.5026019100214134 0.25 -1.5026019100214132 0 1 0 0.53033008588991071 0 0.53033008588991026 1 I I 0 1 0.74999999999999978 forward I I I I #
coedge $-1 -1 $-1 $117 $118 $119 $120 reversed $52 $-1 #
face $121 -1 $-1 $122 $123 $29 $-1 $124 reversed single #
loop $-1 -1 $-1 $-1 $125 $54 #
plane-surface $-1 -1 $-1 0 0 -2.2526019100214132 0 0 1 1 0 0 forward_v I I I I #
coedge $-1 -1 $-1 $126 $127 $128 $129 forward $55 $-1 #
model_id-kcp-attrib $-1 -1 $-1 $-1 $58 1 1021323506 1021323506 1894907905 5 #
face $130 -1 $-1 $131 $132 $9 $-1 $133 forward single #
loop $134 -1 $-1 $135 $136 $58 #
cone-surface $-1 -1 $-1 -1.9100214134759597e-006 4.2800000000000002 7.1354019100214128 0 -1 0 -0.30935921676911449 0 0.30935921676911449 1 I I 0 1 0.4375 forward I I I I #
model_id-kcp-attrib $-1 -1 $-1 $-1 $59 1 1021323506 1021323506 1894907905 12 #
loop $137 -1 $-1 $-1 $67 $39 #
coedge $-1 -1 $-1 $93 $93 $63 $97 forward $59 $-1 #
model_id-kcp-attrib $-1 -1 $-1 $-1 $62 1 1021323506 1021323506 1894907905 20 #
loop $-1 -1 $-1 $-1 $138 $31 #
coedge $-1 -1 $-1 $96 $96 $136 $139 reversed $62 $-1 #
edge $140 -1 $-1 $141 0 $141 6.2831853071795862 $93 $142 forward @7 unknown #
coedge $-1 -1 $-1 $143 $144 $145 $146 forward $65 $-1 #
coedge $-1 -1 $-1 $99 $99 $66 $100 reversed $135 $-1 #
edge $147 -1 $-1 $148 -3.1415926535897931 $148 3.1415926535897931 $99 $149 forward @7 unknown #
attrib_edge_convexity-kcp-attrib $-1 -1 $150 $-1 $68 1 #
vertex $151 -1 $-1 $68 $152 #
ellipse-curve $-1 -1 $-1 3.0052019100214133 4.2800000000000002 4.1301980899785864 0 -1 0 0.30935921676911449 0 -0.30935921676911449 1 I I #
loop $-1 -1 $-1 $-1 $153 $69 #
plane-surface $-1 -1 $-1 0 0 0.25 0 0 1 1 0 0 forward_v I I I I #
coedge $-1 -1 $-1 $106 $106 $73 $108 forward $70 $-1 #
coedge $-1 -1 $-1 $107 $107 $153 $154 reversed $72 $-1 #
edge $-1 -1 $-1 $155 0 $155 6.2831853071795862 $106 $156 forward @7 unknown #
loop $-1 -1 $-1 $-1 $157 $74 #
plane-surface $-1 -1 $-1 0 0 0.25 0 0 1 1 0 0 forward_v I I I I #
coedge $-1 -1 $-1 $111 $111 $78 $113 forward $75 $-1 #
coedge $-1 -1 $-1 $112 $112 $157 $158 reversed $77 $-1 #
edge $-1 -1 $-1 $159 0 $159 6.2831853071795862 $111 $160 forward @7 unknown #
face $-1 -1 $-1 $161 $162 $28 $-1 $163 reversed single #
loop $-1 -1 $-1 $-1 $164 $79 #
coedge $-1 -1 $-1 $165 $166 $167 $168 reversed $80 $-1 #
coedge $-1 -1 $-1 $169 $82 $166 $170 forward $52 $-1 #
coedge $-1 -1 $-1 $82 $169 $171 $172 reversed $52 $-1 #
coedge $-1 -1 $-1 $173 $167 $82 $120 forward $174 $-1 #
edge $-1 -1 $-1 $175 -1.0624999999999998 $176 3.1875000000000009 $119 $177 forward @7 unknown #
model_id-kcp-attrib $-1 -1 $-1 $-1 $83 1 1021323506 1021323506 1894907906 3 #
face $-1 -1 $-1 $178 $179 $29 $-1 $180 reversed single #
loop $-1 -1 $-1 $-1 $181 $83 #
plane-surface $-1 -1 $-1 0 -0.25 0 0 1 0 0 0 1 forward_v I I I I #
coedge $-1 -1 $-1 $182 $183 $184 $185 forward $84 $-1 #
coedge $-1 -1 $-1 $186 $86 $187 $188 forward $55 $-1 #
coedge $-1 -1 $-1 $86 $186 $189 $190 forward $55 $-1 #
coedge $-1 -1 $-1 $191 $192 $86 $129 reversed $193 $-1 #
edge $-1 -1 $-1 $194 -0.25 $195 0.25 $128 $196 forward @7 unknown #
model_id-kcp-attrib $-1 -1 $-1 $-1 $88 1 1021323506 1021323506 1894907905 6 #
face $197 -1 $-1 $198 $199 $9 $-1 $200 forward single #
loop $-1 -1 $-1 $-1 $145 $88 #
cone-surface $-1 -1 $-1 -1.9100214134759597e-006 4.2800000000000002 7.1354019100214128 0 -1 0 -0.5303300858899106 0 0.5303300858899106 1 I I 0 1 0.75 forward I I I I #
model_id-kcp-attrib $-1 -1 $-1 $-1 $89 1 1021323506 1021323506 1894907905 18 #
loop $201 -1 $-1 $-1 $99 $58 #
coedge $-1 -1 $-1 $136 $136 $96 $139 forward $89 $-1 #
model_id-kcp-attrib $-1 -1 $-1 $-1 $92 1 1021323506 1021323506 1894907905 13 #
coedge $-1 -1 $-1 $202 $203 $204 $205 reversed $95 $-1 #
edge $206 -1 $-1 $207 0 $207 6.2831853071795862 $136 $208 forward @7 unknown #
attrib_edge_convexity-kcp-attrib $-1 -1 $209 $-1 $97 1 #
vertex $210 -1 $-1 $97 $211 #
ellipse-curve $-1 -1 $-1 3.0052019100214133 3.7800000000000002 4.1301980899785864 0 -1 0 -0.30935921676911449 0 0.30935921676911449 1 I I #
coedge $-1 -1 $-1 $212 $98 $213 $214 forward $65 $-1 #
coedge $-1 -1 $-1 $98 $212 $215 $216 forward $65 $-1 #
coedge $-1 -1 $-1 $217 $218 $98 $146 reversed $132 $-1 #
edge $219 -1 $-1 $220 -3.1415926535897931 $221 -7.894919286223331e-016 $145 $222 forward @7 unknown #
attrib_edge_convexity-kcp-attrib $-1 -1 $223 $-1 $100 1 #
vertex $224 -1 $-1 $100 $225 #
ellipse-curve $-1 -1 $-1 -1.9100214134759597e-006 4.2800000000000002 7.1354019100214128 0 -1 0 0.30935921676911449 0 -0.30935921676911449 1 I I #
convexity-sys-attrib $-1 -1 $-1 $101 $68 #
model_id-kcp-attrib $-1 -1 $-1 $-1 $102 1 1021323506 1021323506 1894907905 17 #
point $-1 -1 $-1 2.695842693252299 4.2800000000000002 4.4395573067477008 #
coedge $-1 -1 $-1 $153 $153 $107 $154 forward $104 $-1 #
edge $-1 -1 $-1 $226 0 $226 6.2831853071795862 $153 $227 forward @7 unknown #
vertex $-1 -1 $-1 $108 $228 #
ellipse-curve $-1 -1 $-1 0 0 -0.25 0 0 -1 0.43749999999999994 0 0 1 I I #
coedge $-1 -1 $-1 $157 $157 $112 $158 forward $109 $-1 #
edge $-1 -1 $-1 $229 0 $229 6.2831853071795862 $157 $230 forward @7 unknown #
vertex $-1 -1 $-1 $113 $231 #
ellipse-curve $-1 -1 $-1 0 0 -0.25 0 0 -1 0.43749999999999994 0 0 1 I I #
face $-1 -1 $-1 $232 $233 $28 $-1 $163 reversed single #
loop $-1 -1 $-1 $-1 $234 $114 #
cone-surface $-1 -1 $-1 -1.5026019100214134 0.25 1.5026019100214132 0 1 0 -0.53033008588991071 0 -0.53033008588991049 1 I I 0 1 0.74999999999999989 forward I I I I #
coedge $-1 -1 $-1 $235 $236 $237 $238 reversed $115 $-1 #
coedge $-1 -1 $-1 $239 $116 $240 $241 reversed $80 $-1 #
coedge $-1 -1 $-1 $116 $239 $117 $170 reversed $80 $-1 #
coedge $-1 -1 $-1 $119 $242 $116 $168 forward $174 $-1 #
edge $-1 -1 $-1 $243 -0.78539816339744795 $175 5.9211894646675062e-016 $167 $244 forward @7 unknown #
coedge $-1 -1 $-1 $118 $117 $245 $246 reversed $52 $-1 #
edge $-1 -1 $-1 $175 0 $247 0.5 $166 $248 forward @7 unknown #
coedge $-1 -1 $-1 $249 $250 $118 $172 forward $233 $-1 #
edge $-1 -1 $-1 $176 0 $251 0.5 $118 $252 forward @7 unknown #
coedge $-1 -1 $-1 $253 $119 $250 $254 forward $174 $-1 #
loop $-1 -1 $-1 $-1 $167 $255 #
vertex $-1 -1 $-1 $168 $256 #
vertex $-1 -1 $-1 $120 $257 #
straight-curve $-1 -1 $-1 1.2816310409006171 0.25 -0.22097086912079611 -0.70710678118654757 0 0.70710678118654757 I I #
face $258 -1 $-1 $259 $260 $29 $-1 $261 reversed single #
loop $-1 -1 $-1 $-1 $262 $122 #
plane-surface $-1 -1 $-1 -2.2526019100214132 0 0 1 0 0 0 0 -1 forward_v I I I I #
coedge $-1 -1 $-1 $263 $189 $264 $265 forward $123 $-1 #
coedge $-1 -1 $-1 $266 $125 $263 $267 forward $84 $-1 #
coedge $-1 -1 $-1 $125 $266 $268 $269 forward $84 $-1 #
coedge $-1 -1 $-1 $192 $191 $125 $185 reversed $193 $-1 #
edge $-1 -1 $-1 $270 -0.25 $271 0.25 $184 $272 forward @7 unknown #
coedge $-1 -1 $-1 $127 $126 $273 $274 forward $55 $-1 #
coedge $-1 -1 $-1 $275 $276 $126 $188 reversed $260 $-1 #
edge $-1 -1 $-1 $195 -2.2526019100214132 $277 2.2526019100214132 $187 $278 forward @7 unknown #
coedge $-1 -1 $-1 $181 $279 $127 $190 reversed $123 $-1 #
edge $-1 -1 $-1 $280 -2.2526019100214132 $194 2.2526019100214132 $189 $281 forward @7 unknown #
coedge $-1 -1 $-1 $184 $128 $279 $282 forward $193 $-1 #
coedge $-1 -1 $-1 $128 $184 $275 $283 reversed $193 $-1 #
loop $-1 -1 $-1 $-1 $191 $259 #
vertex $-1 -1 $-1 $129 $284 #
vertex $-1 -1 $-1 $129 $285 #
straight-curve $-1 -1 $-1 2.2526019100214132 0 2.2526019100214132 0 1 0 I I #
model_id-kcp-attrib $-1 -1 $-1 $-1 $131 1 1021323506 1021323506 1894907905 7 #
face $286 -1 $-1 $287 $288 $9 $-1 $289 forward single #
loop $-1 -1 $-1 $-1 $215 $131 #
plane-surface $-1 -1 $-1 -0.53033199591132418 4.2800000000000002 6.6050718241315023 -0.70710678118654757 0 -0.70710678118654757 0 -1 0 forward_v I I I I #
model_id-kcp-attrib $-1 -1 $-1 $-1 $135 1 1021323506 1021323506 1894907905 19 #
coedge $-1 -1 $-1 $290 $138 $291 $292 reversed $95 $-1 #
coedge $-1 -1 $-1 $138 $290 $293 $294 reversed $95 $-1 #
coedge $-1 -1 $-1 $218 $217 $138 $205 forward $132 $-1 #
edge $-1 -1 $-1 $295 -3.1415926535897931 $296 -7.894919286223331e-016 $204 $297 forward @7 unknown #
attrib_edge_convexity-kcp-attrib $-1 -1 $298 $-1 $139 1 #
vertex $299 -1 $-1 $139 $300 #
ellipse-curve $-1 -1 $-1 -1.9100214134759597e-006 3.7800000000000002 7.1354019100214128 0 -1 0 -0.30935921676911449 0 0.30935921676911449 1 I I #
convexity-sys-attrib $-1 -1 $-1 $140 $97 #
model_id-kcp-attrib $-1 -1 $-1 $-1 $141 1 1021323506 1021323506 1894907905 16 #
point $-1 -1 $-1 2.695842693252299 3.7800000000000002 4.4395573067477008 #
coedge $-1 -1 $-1 $144 $143 $301 $302 forward $65 $-1 #
coedge $-1 -1 $-1 $303 $304 $143 $214 reversed $305 $-1 #
edge $306 -1 $-1 $221 -4.2500000000000009 $307 0 $213 $308 forward @7 unknown #
coedge $-1 -1 $-1 $309 $310 $144 $216 reversed $199 $-1 #
edge $311 -1 $-1 $312 -4.2500000000000009 $220 0 $215 $313 forward @7 unknown #
coedge $-1 -1 $-1 $204 $145 $310 $314 reversed $132 $-1 #
coedge $-1 -1 $-1 $145 $204 $303 $315 forward $132 $-1 #
attrib_edge_convexity-kcp-attrib $-1 -1 $316 $-1 $146 1 #
vertex $-1 -1 $-1 $314 $317 #
vertex $-1 -1 $-1 $315 $318 #
ellipse-curve $-1 -1 $-1 -1.9100214134759597e-006 4.2800000000000002 7.1354019100214128 0 1 0 0.5303300858899106 0 0.5303300858899106 1 I I #
convexity-sys-attrib $-1 -1 $-1 $147 $100 #
model_id-kcp-attrib $-1 -1 $-1 $-1 $148 1 1021323506 1021323506 1894907905 23 #
point $-1 -1 $-1 -0.30936112679052785 4.2800000000000002 7.4447611267905272 #
vertex $-1 -1 $-1 $154 $319 #
ellipse-curve $-1 -1 $-1 0 0 0.25 0 0 1 0.43749999999999994 0 0 1 I I #
point $-1 -1 $-1 0.43749999999999994 0 -0.25 #
vertex $-1 -1 $-1 $158 $320 #
ellipse-curve $-1 -1 $-1 0 0 0.25 0 0 1 0.43749999999999994 0 0 1 I I #
point $-1 -1 $-1 0.43749999999999994 0 -0.25 #
face $-1 -1 $-1 $321 $322 $28 $-1 $81 reversed single #
loop $-1 -1 $-1 $-1 $250 $161 #
coedge $-1 -1 $-1 $323 $324 $325 $326 reversed $162 $-1 #
coedge $-1 -1 $-1 $327 $164 $328 $329 forward $115 $-1 #
coedge $-1 -1 $-1 $164 $327 $330 $331 forward $115 $-1 #
coedge $-1 -1 $-1 $332 $333 $164 $238 forward $334 $-1 #
edge $-1 -1 $-1 $335 -3.1415926535897918 $336 -2.3561944901923444 $237 $244 forward @7 unknown #
coedge $-1 -1 $-1 $166 $165 $337 $338 reversed $80 $-1 #
coedge $-1 -1 $-1 $339 $340 $341 $241 forward $342 $-1 #
edge $-1 -1 $-1 $343 -0.5 $243 0 $240 $344 forward @7 unknown #
coedge $-1 -1 $-1 $167 $253 $339 $345 forward $174 $-1 #
vertex $-1 -1 $-1 $346 $347 #
ellipse-curve $-1 -1 $-1 1.5026019100214134 0.25 -1.5026019100214132 0 -1 0 0.53033008588991071 0 0.53033008588991026 1 I I #
coedge $-1 -1 $-1 $337 $348 $169 $246 forward $349 $-1 #
edge $-1 -1 $-1 $251 -3.1875000000000009 $247 1.0624999999999998 $245 $350 forward @7 unknown #
vertex $-1 -1 $-1 $338 $351 #
straight-curve $-1 -1 $-1 2.0329319959113237 0.25 -0.9722718241315027 0 -1 0 I I #
coedge $-1 -1 $-1 $352 $171 $348 $353 reversed $233 $-1 #
coedge $-1 -1 $-1 $171 $352 $173 $254 reversed $233 $-1 #
vertex $-1 -1 $-1 $246 $354 #
straight-curve $-1 -1 $-1 -0.97227182413150359 0.25 2.0329319959113246 0 -1 0 I I #
coedge $-1 -1 $-1 $242 $173 $355 $356 reversed $174 $-1 #
edge $-1 -1 $-1 $176 -3.1415926535897913 $357 -2.3561944901923448 $173 $358 forward @7 unknown #
face $-1 -1 $-1 $359 $174 $28 $-1 $360 reversed single #
point $-1 -1 $-1 2.0329319959113237 0.25 -0.9722718241315027 #
point $-1 -1 $-1 -0.97227182413150359 0.25 2.0329319959113246 #
model_id-kcp-attrib $-1 -1 $-1 $-1 $178 1 1021323506 1021323506 1894907906 2 #
face $-1 -1 $-1 $-1 $193 $29 $-1 $361 reversed single #
loop $-1 -1 $-1 $-1 $275 $178 #
plane-surface $-1 -1 $-1 0 0.25 0 0 -1 0 0 0 -1 forward_v I I I I #
coedge $-1 -1 $-1 $362 $273 $276 $363 forward $179 $-1 #
coedge $-1 -1 $-1 $279 $181 $182 $267 reversed $123 $-1 #
coedge $-1 -1 $-1 $273 $362 $181 $265 reversed $179 $-1 #
edge $-1 -1 $-1 $280 -2.2526019100214132 $364 2.2526019100214132 $264 $365 forward @7 unknown #
coedge $-1 -1 $-1 $183 $182 $362 $366 forward $84 $-1 #
edge $-1 -1 $-1 $271 -2.2526019100214132 $364 2.2526019100214132 $263 $367 forward @7 unknown #
coedge $-1 -1 $-1 $276 $275 $183 $269 reversed $260 $-1 #
edge $-1 -1 $-1 $368 -2.2526019100214132 $270 2.2526019100214132 $268 $369 forward @7 unknown #
vertex $-1 -1 $-1 $185 $370 #
vertex $-1 -1 $-1 $282 $371 #
straight-curve $-1 -1 $-1 2.2526019100214132 0 -2.2526019100214132 0 -1 0 I I #
coedge $-1 -1 $-1 $262 $264 $186 $274 reversed $179 $-1 #
edge $-1 -1 $-1 $277 -0.25 $280 0.25 $273 $372 forward @7 unknown #
coedge $-1 -1 $-1 $268 $187 $192 $283 forward $260 $-1 #
coedge $-1 -1 $-1 $187 $268 $262 $363 reversed $260 $-1 #
vertex $-1 -1 $-1 $188 $373 #
straight-curve $-1 -1 $-1 0 0.25 2.2526019100214132 -1 0 0 I I #
coedge $-1 -1 $-1 $189 $263 $191 $282 reversed $123 $-1 #
vertex $-1 -1 $-1 $274 $374 #
straight-curve $-1 -1 $-1 0 -0.25 2.2526019100214132 1 0 0 I I #
edge $-1 -1 $-1 $194 -2.2526019100214132 $271 2.2526019100214132 $191 $375 forward @7 unknown #
edge $-1 -1 $-1 $195 -2.2526019100214132 $270 2.2526019100214132 $192 $376 forward @7 unknown #
point $-1 -1 $-1 2.2526019100214132 -0.25 2.2526019100214132 #
point $-1 -1 $-1 2.2526019100214132 0.25 2.2526019100214132 #
model_id-kcp-attrib $-1 -1 $-1 $-1 $198 1 1021323506 1021323506 1894907905 8 #
face $377 -1 $-1 $-1 $305 $9 $-1 $378 forward single #
loop $-1 -1 $-1 $-1 $301 $198 #
cone-surface $-1 -1 $-1 3.0052019100214133 4.2800000000000002 4.1301980899785864 0 -1 0 -0.5303300858899106 0 0.5303300858899106 1 I I 0 1 0.75 forward I I I I #
coedge $-1 -1 $-1 $203 $202 $379 $380 reversed $95 $-1 #
coedge $-1 -1 $-1 $310 $309 $202 $292 forward $199 $-1 #
edge $381 -1 $-1 $382 -4.2500000000000009 $295 0 $291 $383 forward @7 unknown #
coedge $-1 -1 $-1 $304 $303 $203 $294 forward $305 $-1 #
edge $-1 -1 $-1 $296 -4.2500000000000009 $384 0 $293 $385 forward @7 unknown #
vertex $-1 -1 $-1 $314 $386 #
vertex $-1 -1 $-1 $315 $387 #
ellipse-curve $-1 -1 $-1 -1.9100214134759597e-006 3.7800000000000002 7.1354019100214128 0 1 0 0.5303300858899106 0 0.5303300858899106 1 I I #
convexity-sys-attrib $-1 -1 $-1 $206 $139 #
model_id-kcp-attrib $-1 -1 $-1 $-1 $207 1 1021323506 1021323506 1894907905 22 #
point $-1 -1 $-1 -0.30936112679052785 3.7800000000000002 7.4447611267905272 #
coedge $-1 -1 $-1 $388 $389 $212 $302 reversed $288 $-1 #
edge $390 -1 $-1 $307 -3.1415926535897931 $312 -3.9474596431116675e-016 $301 $391 forward @7 unknown #
coedge $-1 -1 $-1 $293 $213 $218 $315 reversed $305 $-1 #
coedge $-1 -1 $-1 $213 $293 $388 $392 forward $305 $-1 #
loop $-1 -1 $-1 $-1 $213 $287 #
attrib_edge_convexity-kcp-attrib $-1 -1 $393 $-1 $214 1 #
vertex $-1 -1 $-1 $392 $394 #
straight-curve $-1 -1 $-1 3.5355319959113238 4.2800000000000002 4.6605281758684969 0.70710678118654746 0 -0.70710678118654746 I I #
coedge $-1 -1 $-1 $291 $215 $389 $395 reversed $199 $-1 #
coedge $-1 -1 $-1 $215 $291 $217 $314 forward $199 $-1 #
attrib_edge_convexity-kcp-attrib $-1 -1 $396 $-1 $216 1 #
vertex $-1 -1 $-1 $395 $397 #
straight-curve $-1 -1 $-1 -0.53033199591132418 4.2800000000000002 6.6050718241315023 -0.70710678118654746 0 0.70710678118654746 I I #
edge $398 -1 $-1 $295 -0.5 $220 0 $310 $399 forward @7 unknown #
edge $-1 -1 $-1 $296 -0.5 $221 0 $303 $400 forward @7 unknown #
convexity-sys-attrib $-1 -1 $-1 $219 $146 #
point $-1 -1 $-1 -0.53033199591132418 4.2800000000000002 6.6050718241315023 #
point $-1 -1 $-1 0.53032817586849712 4.2800000000000002 7.6657319959113241 #
point $-1 -1 $-1 0.43749999999999994 0 0.25 #
point $-1 -1 $-1 0.43749999999999994 0 0.25 #
face $-1 -1 $-1 $401 $402 $28 $-1 $163 reversed single #
loop $-1 -1 $-1 $-1 $330 $232 #
coedge $-1 -1 $-1 $403 $234 $404 $405 reversed $162 $-1 #
coedge $-1 -1 $-1 $234 $403 $406 $407 forward $162 $-1 #
coedge $-1 -1 $-1 $333 $408 $234 $326 forward $334 $-1 #
edge $-1 -1 $-1 $409 -0.78539816339744806 $410 0 $325 $358 forward @7 unknown #
coedge $-1 -1 $-1 $236 $235 $411 $412 reversed $115 $-1 #
coedge $-1 -1 $-1 $413 $414 $235 $329 reversed $415 $-1 #
edge $-1 -1 $-1 $335 0 $416 0.5 $328 $417 forward @7 unknown #
coedge $-1 -1 $-1 $418 $419 $420 $331 reversed $322 $-1 #
edge $-1 -1 $-1 $421 -0.5 $336 0 $420 $422 forward @7 unknown #
coedge $-1 -1 $-1 $408 $237 $423 $424 reversed $334 $-1 #
coedge $-1 -1 $-1 $237 $325 $413 $425 forward $334 $-1 #
loop $-1 -1 $-1 $-1 $237 $426 #
vertex $-1 -1 $-1 $238 $427 #
vertex $-1 -1 $-1 $428 $429 #
coedge $-1 -1 $-1 $430 $245 $239 $338 forward $349 $-1 #
edge $-1 -1 $-1 $247 -5.9211894646675062e-016 $343 0.78539816339744795 $337 $431 forward @7 unknown #
coedge $-1 -1 $-1 $432 $240 $242 $345 reversed $342 $-1 #
coedge $-1 -1 $-1 $240 $432 $430 $433 forward $342 $-1 #
coedge $-1 -1 $-1 $434 $435 $436 $241 reversed $437 $-1 #
loop $-1 -1 $-1 $-1 $240 $438 #
vertex $-1 -1 $-1 $439 $440 #
straight-curve $-1 -1 $-1 2.2526019100214132 0.25 -1.5026019100214132 0 1 0 I I #
edge $-1 -1 $-1 $441 -2.2526019100214132 $243 1.5026019100214132 $339 $442 forward @7 unknown #
edge $-1 -1 $-1 $243 1.5026019100214132 $443 2.2526019100214132 $435 $442 forward @7 unknown #
point $-1 -1 $-1 2.2526019100214132 0.25 -1.5026019100214132 #
coedge $-1 -1 $-1 $245 $444 $249 $353 forward $349 $-1 #
loop $-1 -1 $-1 $-1 $337 $445 #
straight-curve $-1 -1 $-1 1.2816310409006171 -0.25 -0.22097086912079611 0.70710678118654757 0 -0.70710678118654757 I I #
point $-1 -1 $-1 2.0329319959113237 -0.25 -0.9722718241315027 #
coedge $-1 -1 $-1 $250 $249 $446 $447 forward $233 $-1 #
edge $-1 -1 $-1 $448 2.3561944901923448 $251 3.1415926535897913 $348 $449 forward @7 unknown #
point $-1 -1 $-1 -0.97227182413150359 -0.25 2.0329319959113246 #
coedge $-1 -1 $-1 $450 $451 $253 $356 forward $452 $-1 #
edge $-1 -1 $-1 $441 -2.2526019100214132 $357 1.5026019100214134 $253 $453 forward @7 unknown #
vertex $-1 -1 $-1 $454 $455 #
ellipse-curve $-1 -1 $-1 -1.5026019100214134 0.25 1.5026019100214132 0 -1 0 -0.53033008588991071 0 -0.53033008588991049 1 I I #
face $-1 -1 $-1 $456 $457 $28 $-1 $360 reversed single #
plane-surface $-1 -1 $-1 0 0.25 0 0 -1 0 0 0 -1 forward_v I I I I #
plane-surface $-1 -1 $-1 2.2526019100214132 0 0 -1 0 0 0 0 1 forward_v I I I I #
coedge $-1 -1 $-1 $264 $262 $266 $366 reversed $179 $-1 #
edge $-1 -1 $-1 $277 -2.2526019100214132 $368 2.2526019100214132 $276 $458 forward @7 unknown #
vertex $-1 -1 $-1 $366 $459 #
straight-curve $-1 -1 $-1 -2.2526019100214132 -0.25 0 0 0 -1 I I #
edge $-1 -1 $-1 $364 -0.25 $368 0.25 $362 $460 forward @7 unknown #
straight-curve $-1 -1 $-1 0 -0.25 -2.2526019100214132 -1 0 0 I I #
vertex $-1 -1 $-1 $269 $461 #
straight-curve $-1 -1 $-1 0 0.25 -2.2526019100214132 1 0 0 I I #
point $-1 -1 $-1 2.2526019100214132 0.25 -2.2526019100214132 #
point $-1 -1 $-1 2.2526019100214132 -0.25 -2.2526019100214132 #
straight-curve $-1 -1 $-1 -2.2526019100214132 0 2.2526019100214132 0 -1 0 I I #
point $-1 -1 $-1 -2.2526019100214132 0.25 2.2526019100214132 #
point $-1 -1 $-1 -2.2526019100214132 -0.25 2.2526019100214132 #
straight-curve $-1 -1 $-1 2.2526019100214132 -0.25 0 0 0 -1 I I #
straight-curve $-1 -1 $-1 2.2526019100214132 0.25 0 0 0 -1 I I #
model_id-kcp-attrib $-1 -1 $-1 $-1 $287 1 1021323506 1021323506 1894907905 9 #
plane-surface $-1 -1 $-1 3.5355319959113238 4.2800000000000002 4.6605281758684969 0.70710678118654757 0 0.70710678118654757 0 1 0 forward_v I I I I #
coedge $-1 -1 $-1 $389 $388 $290 $380 forward $288 $-1 #
edge $-1 -1 $-1 $384 -3.1415926535897931 $382 -3.9474596431116675e-016 $379 $462 forward @7 unknown #
attrib_edge_convexity-kcp-attrib $-1 -1 $463 $-1 $292 1 #
vertex $-1 -1 $-1 $395 $464 #
straight-curve $-1 -1 $-1 -0.53033199591132418 3.7800000000000002 6.6050718241315023 -0.70710678118654746 0 0.70710678118654746 I I #
vertex $-1 -1 $-1 $392 $465 #
straight-curve $-1 -1 $-1 3.5355319959113238 3.7800000000000002 4.6605281758684969 0.70710678118654746 0 -0.70710678118654746 I I #
point $-1 -1 $-1 -0.53033199591132418 3.7800000000000002 6.6050718241315023 #
point $-1 -1 $-1 0.53032817586849712 3.7800000000000002 7.6657319959113241 #
coedge $-1 -1 $-1 $379 $301 $304 $392 reversed $288 $-1 #
coedge $-1 -1 $-1 $301 $379 $309 $395 forward $288 $-1 #
attrib_edge_convexity-kcp-attrib $-1 -1 $466 $-1 $302 1 #
ellipse-curve $-1 -1 $-1 3.0052019100214133 4.2800000000000002 4.1301980899785864 0 1 0 -0.5303300858899106 0 -0.5303300858899106 1 I I #
edge $-1 -1 $-1 $384 -0.5 $307 0 $304 $467 forward @7 unknown #
convexity-sys-attrib $-1 -1 $-1 $306 $214 #
point $-1 -1 $-1 3.5355319959113238 4.2800000000000002 4.6605281758684969 #
edge $468 -1 $-1 $382 -0.5 $312 0 $389 $469 forward @7 unknown #
convexity-sys-attrib $-1 -1 $-1 $311 $216 #
point $-1 -1 $-1 2.4748718241315029 4.2800000000000002 3.5998680040886755 #
attrib_edge_convexity-kcp-attrib $-1 -1 $470 $-1 $314 3 #
straight-curve $-1 -1 $-1 -0.53033199591132418 4.2800000000000002 6.6050718241315023 0 1 0 I I #
straight-curve $-1 -1 $-1 0.53032817586849712 4.2800000000000002 7.6657319959113241 0 1 0 I I #
face $-1 -1 $-1 $471 $415 $28 $-1 $472 reversed single #
loop $-1 -1 $-1 $-1 $473 $321 #
coedge $-1 -1 $-1 $324 $323 $474 $475 reversed $162 $-1 #
coedge $-1 -1 $-1 $476 $477 $478 $405 forward $479 $-1 #
edge $-1 -1 $-1 $480 -0.5 $409 0 $404 $481 forward @7 unknown #
coedge $-1 -1 $-1 $414 $413 $324 $407 reversed $415 $-1 #
edge $-1 -1 $-1 $482 -0.5 $410 0 $406 $483 forward @7 unknown #
coedge $-1 -1 $-1 $325 $332 $476 $484 reversed $334 $-1 #
vertex $-1 -1 $-1 $484 $485 #
vertex $-1 -1 $-1 $326 $486 #
coedge $-1 -1 $-1 $487 $488 $327 $412 forward $489 $-1 #
edge $-1 -1 $-1 $421 2.3561944901923444 $416 3.1415926535897918 $411 $431 forward @7 unknown #
coedge $-1 -1 $-1 $406 $328 $333 $425 reversed $415 $-1 #
coedge $-1 -1 $-1 $328 $406 $487 $490 reversed $415 $-1 #
loop $-1 -1 $-1 $-1 $413 $401 #
vertex $-1 -1 $-1 $412 $491 #
straight-curve $-1 -1 $-1 0.97227182413150293 0.25 -2.0329319959113246 0 -1 0 I I #
coedge $-1 -1 $-1 $436 $330 $492 $493 reversed $322 $-1 #
coedge $-1 -1 $-1 $330 $436 $494 $495 reversed $322 $-1 #
coedge $-1 -1 $-1 $496 $497 $498 $331 forward $499 $-1 #
vertex $-1 -1 $-1 $500 $501 #
straight-curve $-1 -1 $-1 1.5026019100214134 0.25 -2.2526019100214132 0 1 0 I I #
coedge $-1 -1 $-1 $498 $502 $332 $424 forward $503 $-1 #
edge $-1 -1 $-1 $504 -2.2526019100214132 $336 1.5026019100214134 $332 $505 forward @7 unknown #
edge $-1 -1 $-1 $410 -1.0625 $335 3.1875000000000009 $333 $506 forward @7 unknown #
face $-1 -1 $-1 $507 $334 $28 $-1 $360 reversed single #
point $-1 -1 $-1 0.97227182413150293 0.25 -2.0329319959113246 #
edge $-1 -1 $-1 $336 1.5026019100214134 $443 2.2526019100214132 $508 $505 forward @7 unknown #
point $-1 -1 $-1 1.5026019100214134 0.25 -2.2526019100214132 #
coedge $-1 -1 $-1 $444 $337 $340 $433 reversed $349 $-1 #
ellipse-curve $-1 -1 $-1 1.5026019100214134 -0.25 -1.5026019100214132 0 1 0 0.53033008588991071 0 0.53033008588991026 1 I I #
coedge $-1 -1 $-1 $340 $339 $451 $509 reversed $342 $-1 #
edge $-1 -1 $-1 $510 -2.2526019100214132 $343 1.5026019100214132 $340 $511 forward @7 unknown #
coedge $-1 -1 $-1 $512 $341 $513 $439 forward $437 $-1 #
coedge $-1 -1 $-1 $341 $512 $514 $346 reversed $437 $-1 #
coedge $-1 -1 $-1 $419 $418 $165 $241 forward $322 $-1 #
loop $-1 -1 $-1 $-1 $341 $471 #
face $-1 -1 $-1 $-1 $342 $28 $-1 $515 reversed single #
edge $-1 -1 $-1 $343 1.5026019100214132 $516 2.2526019100214132 $434 $511 forward @7 unknown #
point $-1 -1 $-1 2.2526019100214132 -0.25 -1.5026019100214132 #
vertex $-1 -1 $-1 $509 $517 #
straight-curve $-1 -1 $-1 2.2526019100214132 0.25 0 0 0 -1 I I #
vertex $-1 -1 $-1 $518 $519 #
coedge $-1 -1 $-1 $348 $430 $520 $521 reversed $349 $-1 #
face $-1 -1 $-1 $522 $349 $28 $-1 $523 reversed single #
coedge $-1 -1 $-1 $473 $524 $525 $447 reversed $402 $-1 #
edge $-1 -1 $-1 $448 -0.5 $357 0 $525 $526 forward @7 unknown #
vertex $-1 -1 $-1 $521 $527 #
ellipse-curve $-1 -1 $-1 -1.5026019100214134 -0.25 1.5026019100214132 0 1 0 -0.53033008588991071 0 -0.53033008588991049 1 I I #
coedge $-1 -1 $-1 $520 $355 $352 $447 reversed $452 $-1 #
coedge $-1 -1 $-1 $355 $520 $432 $509 forward $452 $-1 #
loop $-1 -1 $-1 $-1 $450 $456 #
straight-curve $-1 -1 $-1 0 0.25 2.2526019100214132 -1 0 0 I I #
edge $-1 -1 $-1 $357 1.5026019100214134 $528 2.2526019100214132 $529 $453 forward @7 unknown #
point $-1 -1 $-1 -1.5026019100214134 0.25 2.2526019100214132 #
face $-1 -1 $-1 $530 $452 $28 $-1 $531 forward single #
loop $-1 -1 $-1 $-1 $532 $359 #
straight-curve $-1 -1 $-1 -2.2526019100214132 0.25 0 0 0 -1 I I #
point $-1 -1 $-1 -2.2526019100214132 -0.25 -2.2526019100214132 #
straight-curve $-1 -1 $-1 -2.2526019100214132 0 -2.2526019100214132 0 1 0 I I #
point $-1 -1 $-1 -2.2526019100214132 0.25 -2.2526019100214132 #
ellipse-curve $-1 -1 $-1 3.0052019100214133 3.7800000000000002 4.1301980899785864 0 1 0 -0.5303300858899106 0 -0.5303300858899106 1 I I #
convexity-sys-attrib $-1 -1 $-1 $381 $292 #
point $-1 -1 $-1 2.4748718241315029 3.7800000000000002 3.5998680040886755 #
point $-1 -1 $-1 3.5355319959113238 3.7800000000000002 4.6605281758684969 #
convexity-sys-attrib $-1 -1 $-1 $390 $302 #
straight-curve $-1 -1 $-1 3.5355319959113238 4.2800000000000002 4.6605281758684969 0 1 0 I I #
attrib_edge_convexity-kcp-attrib $-1 -1 $533 $-1 $395 3 #
straight-curve $-1 -1 $-1 2.4748718241315029 4.2800000000000002 3.5998680040886755 0 1 0 I I #
convexity-sys-attrib $-1 -1 $-1 $398 $314 #
face $-1 -1 $-1 $534 $437 $28 $-1 $515 reversed single #
plane-surface $-1 -1 $-1 -2.0329319959113241 0.25 0.9722718241315027 -0.70710678118654757 0 -0.70710678118654757 0 -1 0 forward_v I I I I #
coedge $-1 -1 $-1 $535 $446 $536 $537 reversed $402 $-1 #
coedge $-1 -1 $-1 $538 $487 $403 $475 forward $489 $-1 #
edge $-1 -1 $-1 $482 0 $480 0.78539816339744806 $474 $449 forward @7 unknown #
coedge $-1 -1 $-1 $539 $404 $408 $484 forward $479 $-1 #
coedge $-1 -1 $-1 $404 $539 $538 $540 reversed $479 $-1 #
coedge $-1 -1 $-1 $541 $542 $535 $405 reversed $543 $-1 #
loop $-1 -1 $-1 $-1 $404 $544 #
vertex $-1 -1 $-1 $540 $545 #
straight-curve $-1 -1 $-1 -2.2526019100214132 0.25 1.5026019100214132 0 1 0 I I #
vertex $-1 -1 $-1 $475 $546 #
straight-curve $-1 -1 $-1 -2.0329319959113241 0.25 0.9722718241315027 0 1 0 I I #
edge $-1 -1 $-1 $409 -1.5026019100214132 $504 2.2526019100214132 $408 $547 forward @7 unknown #
point $-1 -1 $-1 -2.2526019100214132 0.25 1.5026019100214132 #
point $-1 -1 $-1 -2.0329319959113241 0.25 0.9722718241315027 #
coedge $-1 -1 $-1 $474 $411 $414 $490 forward $489 $-1 #
coedge $-1 -1 $-1 $411 $538 $548 $500 reversed $489 $-1 #
loop $-1 -1 $-1 $-1 $411 $549 #
edge $-1 -1 $-1 $416 -3.1875000000000009 $482 1.0625 $487 $550 forward @7 unknown #
point $-1 -1 $-1 0.97227182413150293 -0.25 -2.0329319959113246 #
coedge $-1 -1 $-1 $551 $513 $418 $493 forward $552 $-1 #
edge $-1 -1 $-1 $343 0.78539816339744795 $421 2.3561944901923444 $492 $431 forward @7 unknown #
coedge $-1 -1 $-1 $514 $508 $419 $495 forward $553 $-1 #
edge $-1 -1 $-1 $336 -2.3561944901923444 $243 -0.78539816339744795 $494 $244 forward @7 unknown #
coedge $-1 -1 $-1 $554 $420 $508 $428 forward $499 $-1 #
coedge $-1 -1 $-1 $420 $554 $551 $555 forward $499 $-1 #
coedge $-1 -1 $-1 $548 $423 $236 $331 reversed $503 $-1 #
loop $-1 -1 $-1 $-1 $420 $556 #
edge $-1 -1 $-1 $421 -1.5026019100214134 $557 2.2526019100214132 $488 $558 forward @7 unknown #
point $-1 -1 $-1 1.5026019100214134 -0.25 -2.2526019100214132 #
coedge $-1 -1 $-1 $423 $548 $539 $559 forward $503 $-1 #
loop $-1 -1 $-1 $-1 $498 $534 #
vertex $-1 -1 $-1 $424 $560 #
straight-curve $-1 -1 $-1 0 0.25 -2.2526019100214132 1 0 0 I I #
straight-curve $-1 -1 $-1 -1.2816310409006175 0.25 0.220970869120796 0.70710678118654757 0 -0.70710678118654757 I I #
face $-1 -1 $-1 $255 $553 $28 $-1 $360 reversed single #
coedge $-1 -1 $-1 $494 $514 $496 $428 reversed $553 $-1 #
edge $-1 -1 $-1 $510 -0.25 $441 0.25 $432 $561 forward @7 unknown #
vertex $-1 -1 $-1 $509 $562 #
straight-curve $-1 -1 $-1 2.2526019100214132 -0.25 0 0 0 -1 I I #
coedge $-1 -1 $-1 $435 $434 $554 $518 reversed $437 $-1 #
coedge $-1 -1 $-1 $492 $551 $434 $439 reversed $552 $-1 #
coedge $-1 -1 $-1 $508 $494 $435 $346 forward $553 $-1 #
plane-surface $-1 -1 $-1 2.2526019100214132 0 0 -1 0 0 0 0 1 forward_v I I I I #
vertex $-1 -1 $-1 $439 $563 #
point $-1 -1 $-1 2.2526019100214132 0.25 2.2526019100214132 #
edge $-1 -1 $-1 $443 -0.25 $516 0.25 $512 $564 forward @7 unknown #
point $-1 -1 $-1 2.2526019100214132 0.25 -2.2526019100214132 #
coedge $-1 -1 $-1 $451 $450 $444 $521 forward $452 $-1 #
edge $-1 -1 $-1 $448 -1.5026019100214134 $510 2.2526019100214132 $444 $565 forward @7 unknown #
face $-1 -1 $-1 $549 $552 $28 $-1 $523 reversed single #
plane-surface $-1 -1 $-1 0 -0.25 0 0 1 0 0 0 1 forward_v I I I I #
coedge $-1 -1 $-1 $446 $535 $532 $566 reversed $402 $-1 #
coedge $-1 -1 $-1 $567 $568 $450 $447 forward $569 $-1 #
straight-curve $-1 -1 $-1 -1.5026019100214134 0.25 2.2526019100214132 0 1 0 I I #
point $-1 -1 $-1 -1.5026019100214134 -0.25 2.2526019100214132 #
vertex $-1 -1 $-1 $454 $570 #
coedge $-1 -1 $-1 $532 $571 $567 $454 reversed $457 $-1 #
face $-1 -1 $-1 $445 $572 $28 $-1 $523 reversed single #
plane-surface $-1 -1 $-1 0 0 2.2526019100214132 0 0 1 1 0 0 forward_v I I I I #
coedge $-1 -1 $-1 $571 $529 $524 $566 forward $457 $-1 #
convexity-sys-attrib $-1 -1 $-1 $468 $395 #
face $-1 -1 $-1 $426 $503 $28 $-1 $573 reversed single #
coedge $-1 -1 $-1 $524 $473 $323 $405 forward $402 $-1 #
coedge $-1 -1 $-1 $574 $575 $473 $537 forward $572 $-1 #
edge $-1 -1 $-1 $480 0.78539816339744806 $448 2.3561944901923448 $536 $449 forward @7 unknown #
coedge $-1 -1 $-1 $488 $474 $477 $540 forward $489 $-1 #
coedge $-1 -1 $-1 $477 $476 $502 $559 reversed $479 $-1 #
edge $-1 -1 $-1 $480 -1.5026019100214132 $557 2.2526019100214132 $477 $576 forward @7 unknown #
coedge $-1 -1 $-1 $577 $478 $575 $578 reversed $543 $-1 #
coedge $-1 -1 $-1 $478 $577 $571 $579 forward $543 $-1 #
loop $-1 -1 $-1 $-1 $478 $580 #
face $-1 -1 $-1 $438 $479 $28 $-1 $581 reversed single #
point $-1 -1 $-1 -2.2526019100214132 -0.25 1.5026019100214132 #
point $-1 -1 $-1 -2.0329319959113241 -0.25 0.9722718241315027 #
straight-curve $-1 -1 $-1 -2.2526019100214132 0.25 0 0 0 -1 I I #
coedge $-1 -1 $-1 $502 $498 $488 $500 forward $503 $-1 #
face $-1 -1 $-1 $580 $489 $28 $-1 $523 reversed single #
straight-curve $-1 -1 $-1 -1.2816310409006175 -0.25 0.220970869120796 -0.70710678118654757 0 0.70710678118654757 I I #
coedge $-1 -1 $-1 $513 $492 $497 $555 reversed $552 $-1 #
loop $-1 -1 $-1 $-1 $492 $522 #
loop $-1 -1 $-1 $-1 $494 $507 #
coedge $-1 -1 $-1 $497 $496 $512 $518 forward $499 $-1 #
edge $-1 -1 $-1 $516 -2.2526019100214132 $421 -1.5026019100214134 $551 $558 forward @7 unknown #
face $-1 -1 $-1 $544 $499 $28 $-1 $573 reversed single #
vertex $-1 -1 $-1 $559 $582 #
straight-curve $-1 -1 $-1 0 -0.25 -2.2526019100214132 -1 0 0 I I #
edge $-1 -1 $-1 $557 -0.25 $504 0.25 $539 $583 forward @7 unknown #
point $-1 -1 $-1 -2.2526019100214132 0.25 -2.2526019100214132 #
straight-curve $-1 -1 $-1 2.2526019100214132 0 2.2526019100214132 0 1 0 I I #
point $-1 -1 $-1 2.2526019100214132 -0.25 2.2526019100214132 #
point $-1 -1 $-1 2.2526019100214132 -0.25 -2.2526019100214132 #
straight-curve $-1 -1 $-1 2.2526019100214132 0 -2.2526019100214132 0 -1 0 I I #
straight-curve $-1 -1 $-1 0 -0.25 2.2526019100214132 1 0 0 I I #
edge $-1 -1 $-1 $357 -2.3561944901923448 $409 -0.78539816339744806 $532 $358 forward @7 unknown #
coedge $-1 -1 $-1 $584 $525 $529 $454 forward $569 $-1 #
coedge $-1 -1 $-1 $525 $584 $574 $585 forward $569 $-1 #
loop $-1 -1 $-1 $-1 $525 $586 #
point $-1 -1 $-1 -2.2526019100214132 0.25 2.2526019100214132 #
coedge $-1 -1 $-1 $529 $532 $542 $579 reversed $457 $-1 #
loop $-1 -1 $-1 $-1 $536 $530 #
plane-surface $-1 -1 $-1 0 0 -2.2526019100214132 0 0 1 1 0 0 forward_v I I I I #
coedge $-1 -1 $-1 $575 $536 $568 $585 reversed $572 $-1 #
coedge $-1 -1 $-1 $536 $574 $541 $578 forward $572 $-1 #
straight-curve $-1 -1 $-1 -2.2526019100214132 -0.25 0 0 0 -1 I I #
coedge $-1 -1 $-1 $542 $541 $584 $587 reversed $543 $-1 #
edge $-1 -1 $-1 $588 -2.2526019100214132 $480 -1.5026019100214132 $541 $576 forward @7 unknown #
edge $-1 -1 $-1 $528 -2.2526019100214132 $409 -1.5026019100214132 $571 $547 forward @7 unknown #
face $-1 -1 $-1 $586 $543 $28 $-1 $581 reversed single #
plane-surface $-1 -1 $-1 -2.2526019100214132 0 0 1 0 0 0 0 -1 forward_v I I I I #
point $-1 -1 $-1 -2.2526019100214132 -0.25 -2.2526019100214132 #
straight-curve $-1 -1 $-1 -2.2526019100214132 0 -2.2526019100214132 0 1 0 I I #
coedge $-1 -1 $-1 $568 $567 $577 $587 forward $569 $-1 #
edge $-1 -1 $-1 $588 -2.2526019100214132 $448 -1.5026019100214134 $574 $565 forward @7 unknown #
face $-1 -1 $-1 $556 $569 $28 $-1 $531 forward single #
edge $-1 -1 $-1 $528 -0.25 $588 0.25 $577 $589 forward @7 unknown #
vertex $-1 -1 $-1 $587 $590 #
straight-curve $-1 -1 $-1 -2.2526019100214132 0 2.2526019100214132 0 -1 0 I I #
point $-1 -1 $-1 -2.2526019100214132 -0.25 2.2526019100214132 #
End-of-ACIS-data 