700 0 2 0           
24 FBMach with ACIS - 7.0.3 13 ACIS 7.0.3 NT 24 Mon May 13 17:00:42 2002 
1 9.9999999999999995e-007 1e-010 
body $2 -1 $-1 $3 $-1 $4 #
bdycol-kcp $-1 -1 1 3 $5 $6 $7 #
model_id-kcp-attrib $-1 -1 $-1 $-1 $0 1 1021323641 1021323641 -1001390079 1 #
lump $-1 -1 $-1 $-1 $8 $0 #
transform $-1 -1 1.0000000000000007 0 0 0 1 0 0 0 1.0000000000000007 1.7763568394002505e-015 0 -1.7763568394002505e-015 1 rotate no_reflect no_shear #
body $9 -1 $-1 $10 $-1 $11 #
body $12 -1 $-1 $13 $-1 $14 #
body $15 -1 $-1 $16 $-1 $17 #
shell $-1 -1 $-1 $-1 $-1 $18 $-1 $3 #
model_id-kcp-attrib $-1 -1 $-1 $-1 $5 1 1021323641 1021323641 -1001390078 1 #
lump $-1 -1 $-1 $-1 $19 $5 #
transform $-1 -1 1 0 0 0 1 0 0 0 1 -3.0051999999999999 5.3104999999999993 4.1302000000000003 1 no_rotate no_reflect no_shear #
rgb_color-st-attrib $-1 -1 $20 $-1 $6 0.5 1 1 #
lump $-1 -1 $-1 $-1 $21 $6 #
transform $-1 -1 1 0 0 0 -3.8285889215894375e-016 1 0 -1 -3.8285889215894375e-016 -3.0051999999999999 5.3104999999999993 4.1302000000000003 1 rotate no_reflect no_shear #
rgb_color-st-attrib $-1 -1 $22 $-1 $7 0.5 1 1 #
lump $-1 -1 $-1 $-1 $23 $7 #
transform $-1 -1 1 0 0 0 1 0 0 0 1 -3.0051999999999999 5.3104999999999993 4.1302000000000003 1 no_rotate no_reflect no_shear #
face $24 -1 $-1 $25 $26 $8 $-1 $27 reversed single #
shell $-1 -1 $-1 $-1 $-1 $28 $-1 $10 #
model_id-kcp-attrib $-1 -1 $-1 $12 $6 1 1021323641 1021323641 -1000079357 1 #
shell $-1 -1 $-1 $-1 $-1 $29 $-1 $13 #
model_id-kcp-attrib $-1 -1 $-1 $15 $7 1 1021323641 1021323642 -1002831868 1 #
shell $-1 -1 $-1 $-1 $-1 $30 $-1 $16 #
model_id-kcp-attrib $-1 -1 $-1 $-1 $18 1 1021323641 1021323641 -1001390079 2 #
face $31 -1 $-1 $32 $33 $8 $-1 $34 forward single #
loop $-1 -1 $-1 $35 $36 $18 #
plane-surface $-1 -1 $-1 -3.0051999999999999 5.2169999999999996 4.1302000000000003 0 1 0 -0.70710678118654735 0 0.70710678118654735 forward_v I I I I #
face $-1 -1 $-1 $37 $38 $19 $-1 $39 forward single #
face $-1 -1 $-1 $40 $41 $21 $-1 $42 forward single #
face $-1 -1 $-1 $43 $44 $23 $-1 $45 reversed single #
model_id-kcp-attrib $-1 -1 $-1 $-1 $25 1 1021323641 1021323641 -1001390079 3 #
face $46 -1 $-1 $47 $48 $8 $-1 $49 forward single #
loop $-1 -1 $-1 $50 $51 $25 #
plane-surface $-1 -1 $-1 -3.0051999999999999 5.4039999999999999 4.1302000000000003 0 1 0 -0.70710678118654735 0 0.70710678118654735 forward_v I I I I #
loop $52 -1 $-1 $-1 $53 $18 #
coedge $-1 -1 $-1 $54 $55 $56 $57 forward $26 $-1 #
face $-1 -1 $-1 $58 $59 $19 $-1 $60 reversed single #
loop $-1 -1 $-1 $-1 $61 $28 #
plane-surface $-1 -1 $-1 0 0 0.2453791486398158 0 0 1 1 0 0 forward_v I I I I #
face $-1 -1 $-1 $62 $63 $21 $-1 $64 forward single #
loop $-1 -1 $-1 $65 $66 $29 #
cone-surface $-1 -1 $-1 0 0 0 0 0 1 0.12499999999999997 0 0 1 I I 0 1 0.12499999999999997 forward I I I I #
face $-1 -1 $-1 $67 $68 $23 $-1 $69 reversed single #
loop $-1 -1 $-1 $-1 $70 $30 #
plane-surface $-1 -1 $-1 0.2453791486398158 -0.093499999999999694 -0.063626514738705175 0.70710678118654757 0 -0.70710678118654757 0 1 0 forward_v I I I I #
model_id-kcp-attrib $-1 -1 $-1 $-1 $32 1 1021323641 1021323641 -1001390079 4 #
face $71 -1 $-1 $72 $73 $8 $-1 $74 forward single #
loop $-1 -1 $-1 $-1 $56 $32 #
plane-surface $-1 -1 $-1 -2.9415734852612943 5.2169999999999996 3.8848208513601845 -0.27440981337271542 0 -0.96161284014136983 -0.96161284014136961 0 0.27440981337271531 forward_v I I I I #
loop $75 -1 $-1 $-1 $76 $25 #
coedge $-1 -1 $-1 $77 $78 $79 $80 reversed $33 $-1 #
model_id-kcp-attrib $-1 -1 $-1 $-1 $35 1 1021323641 1021323641 -1001390079 16 #
coedge $-1 -1 $-1 $53 $53 $81 $82 forward $35 $-1 #
coedge $-1 -1 $-1 $83 $36 $84 $85 forward $26 $-1 #
coedge $-1 -1 $-1 $36 $86 $87 $88 forward $26 $-1 #
coedge $-1 -1 $-1 $89 $90 $36 $57 reversed $48 $-1 #
edge $91 -1 $-1 $92 -0.25000000000000017 $93 0 $56 $94 forward @7 unknown #
face $95 -1 $-1 $96 $97 $19 $-1 $98 reversed single #
loop $-1 -1 $-1 $-1 $99 $37 #
plane-surface $-1 -1 $-1 0 0 -0.2453791486398158 0 0 1 1 0 0 forward_v I I I I #
coedge $-1 -1 $-1 $100 $101 $102 $103 forward $38 $-1 #
face $-1 -1 $-1 $-1 $104 $21 $-1 $105 forward single #
loop $-1 -1 $-1 $-1 $106 $40 #
plane-surface $-1 -1 $-1 0 0 -0.093500000000000139 0 0 -1 -1 0 0 forward_v I I I I #
loop $-1 -1 $-1 $-1 $107 $29 #
coedge $-1 -1 $-1 $66 $66 $106 $108 reversed $41 $-1 #
face $-1 -1 $-1 $109 $110 $23 $-1 $111 reversed single #
loop $-1 -1 $-1 $-1 $112 $43 #
plane-surface $-1 -1 $-1 0.06362651473870562 -0.093499999999999694 -0.24537914863981536 -0.27440981337271547 0 -0.96161284014136983 0 -1 0 forward_v I I I I #
coedge $-1 -1 $-1 $113 $114 $115 $116 reversed $44 $-1 #
model_id-kcp-attrib $-1 -1 $-1 $-1 $47 1 1021323641 1021323641 -1001390079 5 #
face $117 -1 $-1 $118 $119 $8 $-1 $120 forward single #
loop $-1 -1 $-1 $-1 $87 $47 #
plane-surface $-1 -1 $-1 -3.1819766952966368 5.2169999999999996 3.9534233047033633 -0.96161284014136983 0 -0.27440981337271542 -0.27440981337271531 0 0.96161284014136961 forward_v I I I I #
model_id-kcp-attrib $-1 -1 $-1 $-1 $50 1 1021323641 1021323641 -1001390079 15 #
coedge $-1 -1 $-1 $76 $76 $121 $122 reversed $50 $-1 #
coedge $-1 -1 $-1 $123 $51 $124 $125 reversed $33 $-1 #
coedge $-1 -1 $-1 $51 $126 $127 $128 reversed $33 $-1 #
coedge $-1 -1 $-1 $90 $89 $51 $80 forward $48 $-1 #
edge $129 -1 $-1 $130 -0.25000000000000017 $131 0 $79 $132 forward @7 unknown #
coedge $-1 -1 $-1 $81 $81 $53 $82 reversed $133 $-1 #
edge $134 -1 $-1 $135 -3.1415926535897931 $135 3.1415926535897931 $81 $136 forward @7 unknown #
coedge $-1 -1 $-1 $137 $54 $138 $139 forward $26 $-1 #
coedge $-1 -1 $-1 $140 $141 $54 $85 reversed $142 $-1 #
edge $143 -1 $-1 $93 -0.25703703985998233 $144 0 $84 $145 forward @7 unknown #
coedge $-1 -1 $-1 $55 $137 $146 $147 forward $26 $-1 #
coedge $-1 -1 $-1 $148 $149 $55 $88 reversed $73 $-1 #
edge $150 -1 $-1 $151 -0.24999999999999975 $92 0 $87 $152 forward @7 unknown #
coedge $-1 -1 $-1 $79 $56 $149 $153 reversed $48 $-1 #
coedge $-1 -1 $-1 $56 $79 $140 $154 forward $48 $-1 #
attrib_edge_convexity-kcp-attrib $-1 -1 $155 $-1 $57 1 #
vertex $-1 -1 $-1 $153 $156 #
vertex $-1 -1 $-1 $154 $157 #
straight-curve $-1 -1 $-1 -2.9415734852612943 5.2169999999999996 3.8848208513601845 0.96161284014136961 0 -0.27440981337271531 I I #
model_id-kcp-attrib $-1 -1 $-1 $-1 $58 1 1021323641 1021323641 -1001390078 2 #
face $-1 -1 $-1 $158 $159 $19 $-1 $160 reversed single #
loop $-1 -1 $-1 $-1 $161 $58 #
plane-surface $-1 -1 $-1 0 -0.093500000000000139 0 0 1 0 0 0 1 forward_v I I I I #
coedge $-1 -1 $-1 $162 $163 $164 $165 forward $59 $-1 #
coedge $-1 -1 $-1 $166 $61 $167 $168 forward $38 $-1 #
coedge $-1 -1 $-1 $61 $166 $169 $170 forward $38 $-1 #
coedge $-1 -1 $-1 $171 $172 $61 $103 reversed $173 $-1 #
edge $-1 -1 $-1 $174 -0.093500000000000139 $175 0.093500000000000139 $102 $176 forward @7 unknown #
loop $-1 -1 $-1 $-1 $177 $62 #
plane-surface $-1 -1 $-1 0 0 0.093500000000000139 0 0 1 1 0 0 forward_v I I I I #
coedge $-1 -1 $-1 $106 $106 $66 $108 forward $63 $-1 #
coedge $-1 -1 $-1 $107 $107 $177 $178 reversed $65 $-1 #
edge $-1 -1 $-1 $179 0 $179 6.2831853071795862 $106 $180 forward @7 unknown #
face $-1 -1 $-1 $181 $182 $23 $-1 $183 reversed single #
loop $-1 -1 $-1 $-1 $184 $67 #
plane-surface $-1 -1 $-1 -0.17677669529663698 -0.093499999999999694 -0.17677669529663698 -0.96161284014136983 0 -0.27440981337271542 0 -1 0 forward_v I I I I #
coedge $-1 -1 $-1 $185 $186 $187 $188 reversed $68 $-1 #
coedge $-1 -1 $-1 $189 $70 $186 $190 forward $44 $-1 #
coedge $-1 -1 $-1 $70 $189 $191 $192 forward $44 $-1 #
coedge $-1 -1 $-1 $193 $194 $70 $116 forward $195 $-1 #
edge $-1 -1 $-1 $196 -0.19277777989498557 $197 0.06425925996499568 $115 $198 forward @7 unknown #
model_id-kcp-attrib $-1 -1 $-1 $-1 $72 1 1021323641 1021323641 -1001390079 6 #
face $199 -1 $-1 $200 $201 $8 $-1 $202 forward single #
loop $-1 -1 $-1 $-1 $146 $72 #
plane-surface $-1 -1 $-1 -3.2505791486398157 5.2169999999999996 4.1938265147387055 -0.70710678118654757 0 0.70710678118654757 0.70710678118654735 0 0.70710678118654735 forward_v I I I I #
coedge $-1 -1 $-1 $121 $121 $76 $122 forward $203 $-1 #
edge $204 -1 $-1 $205 0 $205 6.2831853071795862 $121 $206 forward @7 unknown #
coedge $-1 -1 $-1 $207 $77 $208 $209 reversed $33 $-1 #
coedge $-1 -1 $-1 $149 $148 $77 $125 forward $73 $-1 #
edge $210 -1 $-1 $211 -0.24999999999999975 $130 0 $124 $212 forward @7 unknown #
coedge $-1 -1 $-1 $78 $207 $213 $214 reversed $33 $-1 #
coedge $-1 -1 $-1 $141 $140 $78 $128 forward $142 $-1 #
edge $-1 -1 $-1 $131 -0.25703703985998233 $215 0 $127 $216 forward @7 unknown #
attrib_edge_convexity-kcp-attrib $-1 -1 $217 $-1 $80 1 #
vertex $-1 -1 $-1 $153 $218 #
vertex $-1 -1 $-1 $154 $219 #
straight-curve $-1 -1 $-1 -2.9415734852612943 5.4039999999999999 3.8848208513601845 0.96161284014136961 0 -0.27440981337271531 I I #
loop $220 -1 $-1 $-1 $81 $221 #
attrib_edge_convexity-kcp-attrib $-1 -1 $222 $-1 $82 1 #
vertex $223 -1 $-1 $82 $224 #
ellipse-curve $-1 -1 $-1 -3.0051999999999999 5.2169999999999996 4.1302000000000003 0 1 0 -0.088388347648318419 0 -0.088388347648318419 1 I I #
coedge $-1 -1 $-1 $86 $83 $225 $226 forward $26 $-1 #
coedge $-1 -1 $-1 $227 $228 $83 $139 reversed $229 $-1 #
edge $230 -1 $-1 $144 -0.24999999999999931 $231 0 $138 $232 forward @7 unknown #
coedge $-1 -1 $-1 $127 $84 $90 $154 reversed $142 $-1 #
coedge $-1 -1 $-1 $84 $127 $227 $233 forward $142 $-1 #
loop $-1 -1 $-1 $-1 $84 $234 #
attrib_edge_convexity-kcp-attrib $-1 -1 $235 $-1 $85 1 #
vertex $-1 -1 $-1 $233 $236 #
straight-curve $-1 -1 $-1 -2.7598208513601841 5.2169999999999996 4.0665734852612951 0.70710678118654735 0 0.70710678118654735 I I #
coedge $-1 -1 $-1 $237 $238 $86 $147 reversed $119 $-1 #
edge $239 -1 $-1 $240 -0.25703703985998233 $151 0 $146 $241 forward @7 unknown #
coedge $-1 -1 $-1 $124 $87 $238 $242 reversed $73 $-1 #
coedge $-1 -1 $-1 $87 $124 $89 $153 forward $73 $-1 #
attrib_edge_convexity-kcp-attrib $-1 -1 $243 $-1 $88 1 #
vertex $-1 -1 $-1 $242 $244 #
straight-curve $-1 -1 $-1 -3.1819766952966368 5.2169999999999996 3.9534233047033633 0.27440981337271531 0 -0.96161284014136961 I I #
edge $245 -1 $-1 $130 -0.1870000000000003 $92 0 $149 $246 forward @7 unknown #
edge $247 -1 $-1 $131 -0.1870000000000003 $93 0 $140 $248 forward @7 unknown #
convexity-sys-attrib $-1 -1 $-1 $91 $57 #
point $-1 -1 $-1 -3.1819766952966368 5.2169999999999996 3.9534233047033633 #
point $-1 -1 $-1 -2.9415734852612943 5.2169999999999996 3.8848208513601845 #
face $249 -1 $-1 $250 $251 $19 $-1 $252 reversed single #
loop $-1 -1 $-1 $-1 $253 $96 #
plane-surface $-1 -1 $-1 -0.2453791486398158 0 0 1 0 0 0 0 -1 forward_v I I I I #
coedge $-1 -1 $-1 $254 $169 $255 $256 forward $97 $-1 #
coedge $-1 -1 $-1 $257 $99 $254 $258 forward $59 $-1 #
coedge $-1 -1 $-1 $99 $257 $259 $260 forward $59 $-1 #
coedge $-1 -1 $-1 $172 $171 $99 $165 reversed $173 $-1 #
edge $-1 -1 $-1 $261 -0.093500000000000139 $262 0.093500000000000139 $164 $263 forward @7 unknown #
coedge $-1 -1 $-1 $101 $100 $264 $265 forward $38 $-1 #
coedge $-1 -1 $-1 $266 $267 $100 $168 reversed $251 $-1 #
edge $-1 -1 $-1 $175 -0.2453791486398158 $268 0.2453791486398158 $167 $269 forward @7 unknown #
coedge $-1 -1 $-1 $161 $270 $101 $170 reversed $97 $-1 #
edge $-1 -1 $-1 $271 -0.2453791486398158 $174 0.2453791486398158 $169 $272 forward @7 unknown #
coedge $-1 -1 $-1 $164 $102 $270 $273 forward $173 $-1 #
coedge $-1 -1 $-1 $102 $164 $266 $274 reversed $173 $-1 #
loop $-1 -1 $-1 $-1 $171 $250 #
vertex $-1 -1 $-1 $103 $275 #
vertex $-1 -1 $-1 $103 $276 #
straight-curve $-1 -1 $-1 0.2453791486398158 0 0.2453791486398158 0 1 0 I I #
coedge $-1 -1 $-1 $177 $177 $107 $178 forward $104 $-1 #
edge $-1 -1 $-1 $277 0 $277 6.2831853071795862 $177 $278 forward @7 unknown #
vertex $-1 -1 $-1 $108 $279 #
ellipse-curve $-1 -1 $-1 0 0 -0.093500000000000139 0 0 -1 0.12499999999999997 0 0 1 I I #
face $-1 -1 $-1 $280 $281 $23 $-1 $282 reversed single #
loop $-1 -1 $-1 $-1 $283 $109 #
plane-surface $-1 -1 $-1 -0.2453791486398158 -0.093499999999999694 0.063626514738705175 -0.70710678118654757 0 0.70710678118654757 0 -1 0 forward_v I I I I #
coedge $-1 -1 $-1 $284 $285 $286 $287 reversed $110 $-1 #
coedge $-1 -1 $-1 $288 $112 $285 $289 reversed $68 $-1 #
coedge $-1 -1 $-1 $112 $288 $290 $190 reversed $68 $-1 #
coedge $-1 -1 $-1 $291 $286 $112 $188 forward $292 $-1 #
edge $-1 -1 $-1 $293 -0.18574074003500454 $196 0.064259259964997123 $187 $294 forward @7 unknown #
coedge $-1 -1 $-1 $114 $113 $295 $296 reversed $44 $-1 #
edge $-1 -1 $-1 $196 -0.14024999999999999 $297 0.046750000000000291 $290 $298 forward @7 unknown #
coedge $-1 -1 $-1 $299 $300 $301 $192 reversed $302 $-1 #
edge $-1 -1 $-1 $303 -0.046750000000000291 $197 0.14024999999999999 $301 $304 forward @7 unknown #
coedge $-1 -1 $-1 $194 $115 $305 $306 forward $195 $-1 #
coedge $-1 -1 $-1 $115 $193 $307 $308 reversed $195 $-1 #
loop $-1 -1 $-1 $-1 $115 $309 #
vertex $-1 -1 $-1 $308 $310 #
vertex $-1 -1 $-1 $306 $311 #
straight-curve $-1 -1 $-1 0.19994099016453815 0.093500000000000139 -0.10906467321398285 0.70710678118654757 0 0.70710678118654757 I I #
model_id-kcp-attrib $-1 -1 $-1 $-1 $118 1 1021323641 1021323641 -1001390079 7 #
face $312 -1 $-1 $234 $229 $8 $-1 $313 forward single #
loop $-1 -1 $-1 $-1 $225 $118 #
plane-surface $-1 -1 $-1 -3.0688265147387055 5.2169999999999996 4.3755791486398161 0.27440981337271542 0 0.96161284014136983 0.96161284014136961 0 -0.27440981337271531 forward_v I I I I #
loop $314 -1 $-1 $133 $121 $221 #
attrib_edge_convexity-kcp-attrib $-1 -1 $315 $-1 $122 1 #
vertex $316 -1 $-1 $122 $317 #
ellipse-curve $-1 -1 $-1 -3.0051999999999999 5.4039999999999999 4.1302000000000003 0 1 0 0.088388347648318419 0 0.088388347648318419 1 I I #
coedge $-1 -1 $-1 $126 $123 $318 $319 reversed $33 $-1 #
coedge $-1 -1 $-1 $238 $237 $123 $209 forward $119 $-1 #
edge $320 -1 $-1 $321 -0.25703703985998233 $211 0 $208 $322 forward @7 unknown #
attrib_edge_convexity-kcp-attrib $-1 -1 $323 $-1 $125 1 #
vertex $-1 -1 $-1 $242 $324 #
straight-curve $-1 -1 $-1 -3.1819766952966368 5.4039999999999999 3.9534233047033633 0.27440981337271531 0 -0.96161284014136961 I I #
coedge $-1 -1 $-1 $228 $227 $126 $214 forward $229 $-1 #
edge $-1 -1 $-1 $215 -0.24999999999999931 $325 0 $213 $326 forward @7 unknown #
vertex $-1 -1 $-1 $233 $327 #
straight-curve $-1 -1 $-1 -2.7598208513601841 5.4039999999999999 4.0665734852612951 0.70710678118654735 0 0.70710678118654735 I I #
convexity-sys-attrib $-1 -1 $-1 $129 $80 #
point $-1 -1 $-1 -3.1819766952966368 5.4039999999999999 3.9534233047033633 #
point $-1 -1 $-1 -2.9415734852612943 5.4039999999999999 3.8848208513601845 #
model_id-kcp-attrib $-1 -1 $-1 $-1 $133 1 1021323641 1021323641 -1001390079 14 #
face $328 -1 $-1 $-1 $203 $8 $-1 $329 reversed single #
convexity-sys-attrib $-1 -1 $-1 $134 $82 #
model_id-kcp-attrib $-1 -1 $-1 $-1 $135 1 1021323641 1021323641 -1001390079 18 #
point $-1 -1 $-1 -2.9168116523516816 5.2169999999999996 4.2185883476483186 #
coedge $-1 -1 $-1 $330 $331 $137 $226 reversed $201 $-1 #
edge $332 -1 $-1 $231 -0.25000000000000033 $240 0 $225 $333 forward @7 unknown #
coedge $-1 -1 $-1 $213 $138 $141 $233 reversed $229 $-1 #
coedge $-1 -1 $-1 $138 $213 $330 $334 forward $229 $-1 #
loop $-1 -1 $-1 $-1 $138 $200 #
attrib_edge_convexity-kcp-attrib $-1 -1 $335 $-1 $139 1 #
vertex $-1 -1 $-1 $334 $336 #
straight-curve $-1 -1 $-1 -2.8284233047033629 5.2169999999999996 4.3069766952966368 -0.27440981337271531 0 0.96161284014136961 I I #
edge $-1 -1 $-1 $215 -0.1870000000000003 $144 0 $141 $337 forward @7 unknown #
face $338 -1 $-1 $221 $142 $8 $-1 $339 forward single #
convexity-sys-attrib $-1 -1 $-1 $143 $85 #
point $-1 -1 $-1 -2.7598208513601841 5.2169999999999996 4.0665734852612951 #
coedge $-1 -1 $-1 $208 $146 $331 $340 reversed $119 $-1 #
coedge $-1 -1 $-1 $146 $208 $148 $242 forward $119 $-1 #
attrib_edge_convexity-kcp-attrib $-1 -1 $341 $-1 $147 1 #
vertex $-1 -1 $-1 $340 $342 #
straight-curve $-1 -1 $-1 -3.2505791486398157 5.2169999999999996 4.1938265147387055 -0.70710678118654735 0 -0.70710678118654735 I I #
edge $343 -1 $-1 $211 -0.1870000000000003 $151 0 $238 $344 forward @7 unknown #
convexity-sys-attrib $-1 -1 $-1 $150 $88 #
point $-1 -1 $-1 -3.2505791486398157 5.2169999999999996 4.1938265147387055 #
attrib_edge_convexity-kcp-attrib $-1 -1 $345 $-1 $153 1 #
straight-curve $-1 -1 $-1 -3.1819766952966368 5.2169999999999996 3.9534233047033633 0 -0.99999999999999989 0 I I #
attrib_edge_convexity-kcp-attrib $-1 -1 $346 $-1 $154 1 #
straight-curve $-1 -1 $-1 -2.9415734852612943 5.2169999999999996 3.8848208513601845 0 -0.99999999999999989 0 I I #
model_id-kcp-attrib $-1 -1 $-1 $-1 $158 1 1021323641 1021323641 -1001390078 3 #
face $-1 -1 $-1 $-1 $173 $19 $-1 $347 reversed single #
loop $-1 -1 $-1 $-1 $266 $158 #
plane-surface $-1 -1 $-1 0 0.093500000000000139 0 0 -1 0 0 0 -1 forward_v I I I I #
coedge $-1 -1 $-1 $348 $264 $267 $349 forward $159 $-1 #
coedge $-1 -1 $-1 $270 $161 $162 $258 reversed $97 $-1 #
coedge $-1 -1 $-1 $264 $348 $161 $256 reversed $159 $-1 #
edge $-1 -1 $-1 $271 -0.2453791486398158 $350 0.2453791486398158 $255 $351 forward @7 unknown #
coedge $-1 -1 $-1 $163 $162 $348 $352 forward $59 $-1 #
edge $-1 -1 $-1 $262 -0.2453791486398158 $350 0.2453791486398158 $254 $353 forward @7 unknown #
coedge $-1 -1 $-1 $267 $266 $163 $260 reversed $251 $-1 #
edge $-1 -1 $-1 $354 -0.2453791486398158 $261 0.2453791486398158 $259 $355 forward @7 unknown #
vertex $-1 -1 $-1 $165 $356 #
vertex $-1 -1 $-1 $273 $357 #
straight-curve $-1 -1 $-1 0.2453791486398158 0 -0.2453791486398158 0 -1 0 I I #
coedge $-1 -1 $-1 $253 $255 $166 $265 reversed $159 $-1 #
edge $-1 -1 $-1 $268 -0.093500000000000139 $271 0.093500000000000139 $264 $358 forward @7 unknown #
coedge $-1 -1 $-1 $259 $167 $172 $274 forward $251 $-1 #
coedge $-1 -1 $-1 $167 $259 $253 $349 reversed $251 $-1 #
vertex $-1 -1 $-1 $168 $359 #
straight-curve $-1 -1 $-1 0 0.093500000000000139 0.2453791486398158 -1 0 0 I I #
coedge $-1 -1 $-1 $169 $254 $171 $273 reversed $97 $-1 #
vertex $-1 -1 $-1 $265 $360 #
straight-curve $-1 -1 $-1 0 -0.093500000000000139 0.2453791486398158 1 0 0 I I #
edge $-1 -1 $-1 $174 -0.2453791486398158 $262 0.2453791486398158 $171 $361 forward @7 unknown #
edge $-1 -1 $-1 $175 -0.2453791486398158 $261 0.2453791486398158 $172 $362 forward @7 unknown #
point $-1 -1 $-1 0.2453791486398158 -0.093500000000000139 0.2453791486398158 #
point $-1 -1 $-1 0.2453791486398158 0.093500000000000139 0.2453791486398158 #
vertex $-1 -1 $-1 $178 $363 #
ellipse-curve $-1 -1 $-1 0 0 0.093500000000000139 0 0 1 0.12499999999999997 0 0 1 I I #
point $-1 -1 $-1 0.12499999999999997 0 -0.093500000000000139 #
face $-1 -1 $-1 $364 $302 $23 $-1 $365 reversed single #
loop $-1 -1 $-1 $-1 $366 $181 #
plane-surface $-1 -1 $-1 -0.06362651473870562 -0.093499999999999694 0.2453791486398158 0.27440981337271542 0 0.96161284014136983 0 1 0 forward_v I I I I #
coedge $-1 -1 $-1 $367 $368 $369 $370 reversed $182 $-1 #
coedge $-1 -1 $-1 $371 $184 $372 $373 reversed $110 $-1 #
coedge $-1 -1 $-1 $184 $371 $185 $289 forward $110 $-1 #
coedge $-1 -1 $-1 $187 $374 $184 $287 forward $292 $-1 #
edge $-1 -1 $-1 $375 -0.1892592599649954 $293 0.060740740035004542 $286 $376 forward @7 unknown #
coedge $-1 -1 $-1 $186 $185 $377 $378 reversed $68 $-1 #
edge $-1 -1 $-1 $379 -4.4408920985006262e-016 $293 0.18699999999999983 $185 $380 forward @7 unknown #
coedge $-1 -1 $-1 $381 $382 $383 $190 forward $384 $-1 #
coedge $-1 -1 $-1 $374 $187 $382 $385 reversed $292 $-1 #
loop $-1 -1 $-1 $-1 $187 $386 #
vertex $-1 -1 $-1 $188 $387 #
straight-curve $-1 -1 $-1 0.0018339852583836892 0.093500000000000139 -0.22774577710535215 0.96161284014136983 0 -0.27440981337271547 I I #
coedge $-1 -1 $-1 $388 $389 $189 $296 forward $390 $-1 #
edge $-1 -1 $-1 $303 -0.06425925996499568 $297 0.19277777989498557 $295 $391 forward @7 unknown #
vertex $-1 -1 $-1 $392 $393 #
straight-curve $-1 -1 $-1 0.063626514738707146 -0.046749999999999847 -0.2453791486398158 0 -1 0 I I #
coedge $-1 -1 $-1 $394 $191 $395 $396 reversed $302 $-1 #
coedge $-1 -1 $-1 $191 $394 $397 $398 reversed $302 $-1 #
coedge $-1 -1 $-1 $399 $400 $401 $192 forward $402 $-1 #
loop $-1 -1 $-1 $-1 $299 $280 #
vertex $-1 -1 $-1 $403 $404 #
straight-curve $-1 -1 $-1 0.2453791486398158 -0.046749999999999847 -0.063626514738705786 0 1 0 I I #
coedge $-1 -1 $-1 $401 $405 $193 $306 reversed $406 $-1 #
edge $-1 -1 $-1 $197 0.063626514738705175 $407 0.2453791486398158 $305 $408 forward @7 unknown #
coedge $-1 -1 $-1 $409 $383 $194 $308 forward $410 $-1 #
edge $-1 -1 $-1 $196 0.063626514738707174 $407 0.2453791486398158 $194 $411 forward @7 unknown #
face $-1 -1 $-1 $412 $195 $23 $-1 $413 reversed single #
point $-1 -1 $-1 0.063626514738707174 0.093500000000000139 -0.2453791486398158 #
point $-1 -1 $-1 0.2453791486398158 0.093500000000000139 -0.063626514738705175 #
model_id-kcp-attrib $-1 -1 $-1 $-1 $200 1 1021323641 1021323641 -1001390079 8 #
plane-surface $-1 -1 $-1 -2.8284233047033629 5.2169999999999996 4.3069766952966368 0.96161284014136983 0 0.27440981337271542 0.27440981337271531 0 -0.96161284014136961 forward_v I I I I #
model_id-kcp-attrib $-1 -1 $-1 $-1 $203 1 1021323641 1021323641 -1001390079 13 #
convexity-sys-attrib $-1 -1 $-1 $204 $122 #
model_id-kcp-attrib $-1 -1 $-1 $-1 $205 1 1021323641 1021323641 -1001390079 17 #
point $-1 -1 $-1 -2.9168116523516816 5.4039999999999999 4.2185883476483186 #
coedge $-1 -1 $-1 $331 $330 $207 $319 forward $201 $-1 #
edge $-1 -1 $-1 $325 -0.25000000000000033 $321 0 $318 $414 forward @7 unknown #
attrib_edge_convexity-kcp-attrib $-1 -1 $415 $-1 $209 1 #
vertex $-1 -1 $-1 $340 $416 #
straight-curve $-1 -1 $-1 -3.2505791486398157 5.4039999999999999 4.1938265147387055 -0.70710678118654735 0 -0.70710678118654735 I I #
convexity-sys-attrib $-1 -1 $-1 $210 $125 #
point $-1 -1 $-1 -3.2505791486398157 5.4039999999999999 4.1938265147387055 #
vertex $-1 -1 $-1 $334 $417 #
straight-curve $-1 -1 $-1 -2.8284233047033629 5.4039999999999999 4.3069766952966368 -0.27440981337271531 0 0.96161284014136961 I I #
point $-1 -1 $-1 -2.7598208513601841 5.4039999999999999 4.0665734852612951 #
model_id-kcp-attrib $-1 -1 $-1 $-1 $221 1 1021323641 1021323641 -1001390079 10 #
cone-surface $-1 -1 $-1 -3.0051999999999999 5.4039999999999999 4.1302000000000003 0 -1 0 0.088388347648318419 0 0.088388347648318419 1 I I 0 1 0.12499999999999999 forward I I I I #
coedge $-1 -1 $-1 $318 $225 $228 $334 reversed $201 $-1 #
coedge $-1 -1 $-1 $225 $318 $237 $340 forward $201 $-1 #
attrib_edge_convexity-kcp-attrib $-1 -1 $418 $-1 $226 1 #
straight-curve $-1 -1 $-1 -3.0688265147387055 5.2169999999999996 4.3755791486398161 -0.96161284014136961 0 0.27440981337271531 I I #
edge $-1 -1 $-1 $325 -0.1870000000000003 $231 0 $228 $419 forward @7 unknown #
convexity-sys-attrib $-1 -1 $-1 $230 $139 #
point $-1 -1 $-1 -2.8284233047033629 5.2169999999999996 4.3069766952966368 #
straight-curve $-1 -1 $-1 -2.7598208513601841 5.2169999999999996 4.0665734852612951 0 -0.99999999999999989 0 I I #
model_id-kcp-attrib $-1 -1 $-1 $-1 $234 1 1021323641 1021323641 -1001390079 9 #
plane-surface $-1 -1 $-1 -2.7598208513601841 5.2169999999999996 4.0665734852612951 0.70710678118654757 0 -0.70710678118654757 -0.70710678118654735 0 -0.70710678118654735 forward_v I I I I #
edge $420 -1 $-1 $321 -0.1870000000000003 $240 0 $331 $421 forward @7 unknown #
convexity-sys-attrib $-1 -1 $-1 $239 $147 #
point $-1 -1 $-1 -3.0688265147387055 5.2169999999999996 4.3755791486398161 #
attrib_edge_convexity-kcp-attrib $-1 -1 $422 $-1 $242 1 #
straight-curve $-1 -1 $-1 -3.2505791486398157 5.2169999999999996 4.1938265147387055 0 -0.99999999999999989 0 I I #
convexity-sys-attrib $-1 -1 $-1 $245 $153 #
convexity-sys-attrib $-1 -1 $-1 $247 $154 #
plane-surface $-1 -1 $-1 0.2453791486398158 0 0 -1 0 0 0 0 1 forward_v I I I I #
coedge $-1 -1 $-1 $255 $253 $257 $352 reversed $159 $-1 #
edge $-1 -1 $-1 $268 -0.2453791486398158 $354 0.2453791486398158 $267 $423 forward @7 unknown #
vertex $-1 -1 $-1 $352 $424 #
straight-curve $-1 -1 $-1 -0.2453791486398158 -0.093500000000000139 0 0 0 -1 I I #
edge $-1 -1 $-1 $350 -0.093500000000000139 $354 0.093500000000000139 $348 $425 forward @7 unknown #
straight-curve $-1 -1 $-1 0 -0.093500000000000139 -0.2453791486398158 -1 0 0 I I #
vertex $-1 -1 $-1 $260 $426 #
straight-curve $-1 -1 $-1 0 0.093500000000000139 -0.2453791486398158 1 0 0 I I #
point $-1 -1 $-1 0.2453791486398158 0.093500000000000139 -0.2453791486398158 #
point $-1 -1 $-1 0.2453791486398158 -0.093500000000000139 -0.2453791486398158 #
straight-curve $-1 -1 $-1 -0.2453791486398158 0 0.2453791486398158 0 -1 0 I I #
point $-1 -1 $-1 -0.2453791486398158 0.093500000000000139 0.2453791486398158 #
point $-1 -1 $-1 -0.2453791486398158 -0.093500000000000139 0.2453791486398158 #
straight-curve $-1 -1 $-1 0.2453791486398158 -0.093500000000000139 0 0 0 -1 I I #
straight-curve $-1 -1 $-1 0.2453791486398158 0.093500000000000139 0 0 0 -1 I I #
point $-1 -1 $-1 0.12499999999999997 0 0.093500000000000139 #
face $-1 -1 $-1 $427 $384 $23 $-1 $428 reversed single #
plane-surface $-1 -1 $-1 0.17677669529663698 -0.093499999999999694 0.17677669529663653 0.96161284014136983 0 0.27440981337271547 0 1 0 forward_v I I I I #
coedge $-1 -1 $-1 $429 $430 $431 $432 reversed $281 $-1 #
coedge $-1 -1 $-1 $433 $283 $434 $435 reversed $182 $-1 #
coedge $-1 -1 $-1 $283 $433 $284 $373 forward $182 $-1 #
coedge $-1 -1 $-1 $436 $437 $283 $370 forward $438 $-1 #
edge $-1 -1 $-1 $439 -0.19277777989498701 $375 0.064259259964995541 $369 $440 forward @7 unknown #
coedge $-1 -1 $-1 $285 $284 $441 $442 reversed $110 $-1 #
coedge $-1 -1 $-1 $443 $444 $445 $373 forward $446 $-1 #
edge $-1 -1 $-1 $447 -0.046750000000000291 $375 0.14024999999999999 $372 $448 forward @7 unknown #
coedge $-1 -1 $-1 $286 $291 $443 $449 reversed $292 $-1 #
vertex $-1 -1 $-1 $449 $450 #
straight-curve $-1 -1 $-1 -0.19344455043376321 0.093500000000000139 -0.11836761975928767 0.27440981337271542 0 -0.96161284014136983 I I #
coedge $-1 -1 $-1 $441 $451 $288 $378 forward $452 $-1 #
edge $-1 -1 $-1 $297 -0.064259259964997123 $379 0.18574074003500454 $377 $453 forward @7 unknown #
vertex $-1 -1 $-1 $378 $454 #
straight-curve $-1 -1 $-1 -0.17677669529663698 -0.093499999999999694 -0.17677669529663698 0 1 0 I I #
coedge $-1 -1 $-1 $455 $290 $451 $392 forward $384 $-1 #
coedge $-1 -1 $-1 $290 $455 $291 $385 forward $384 $-1 #
coedge $-1 -1 $-1 $307 $456 $113 $190 reversed $410 $-1 #
loop $-1 -1 $-1 $-1 $290 $364 #
edge $-1 -1 $-1 $457 -0.2453791486398158 $196 0.063626514738707174 $291 $411 forward @7 unknown #
face $-1 -1 $-1 $309 $292 $23 $-1 $413 reversed single #
point $-1 -1 $-1 -0.17677669529663698 0.093500000000000139 -0.17677669529663698 #
coedge $-1 -1 $-1 $389 $295 $456 $458 reversed $390 $-1 #
coedge $-1 -1 $-1 $295 $388 $459 $403 reversed $390 $-1 #
loop $-1 -1 $-1 $-1 $295 $460 #
straight-curve $-1 -1 $-1 0.19994099016453815 -0.093500000000000139 -0.10906467321398285 -0.70710678118654757 0 -0.70710678118654757 I I #
edge $-1 -1 $-1 $297 -0.063626514738707174 $461 0.2453791486398158 $451 $462 forward @7 unknown #
point $-1 -1 $-1 0.063626514738707174 -0.093500000000000139 -0.2453791486398158 #
coedge $-1 -1 $-1 $300 $299 $430 $463 forward $302 $-1 #
coedge $-1 -1 $-1 $464 $431 $299 $396 forward $465 $-1 #
edge $-1 -1 $-1 $466 -0.060740740035004327 $303 0.18925925996499501 $395 $467 forward @7 unknown #
coedge $-1 -1 $-1 $468 $469 $300 $398 forward $470 $-1 #
edge $-1 -1 $-1 $197 -0.18925925996499501 $471 0.060740740035004327 $397 $472 forward @7 unknown #
coedge $-1 -1 $-1 $473 $301 $469 $474 reversed $402 $-1 #
coedge $-1 -1 $-1 $301 $473 $464 $475 forward $402 $-1 #
coedge $-1 -1 $-1 $459 $305 $114 $192 reversed $406 $-1 #
loop $-1 -1 $-1 $-1 $301 $427 #
edge $-1 -1 $-1 $303 0.063626514738705175 $476 0.2453791486398158 $459 $477 forward @7 unknown #
point $-1 -1 $-1 0.2453791486398158 -0.093500000000000139 -0.063626514738705175 #
coedge $-1 -1 $-1 $305 $459 $409 $478 reversed $406 $-1 #
loop $-1 -1 $-1 $-1 $401 $479 #
vertex $-1 -1 $-1 $478 $480 #
straight-curve $-1 -1 $-1 0.2453791486398158 0.093500000000000139 0 0 0 -1 I I #
coedge $-1 -1 $-1 $456 $307 $405 $478 forward $410 $-1 #
loop $-1 -1 $-1 $-1 $383 $481 #
straight-curve $-1 -1 $-1 0 0.093500000000000139 -0.2453791486398158 1 0 0 I I #
face $-1 -1 $-1 $482 $470 $23 $-1 $413 reversed single #
plane-surface $-1 -1 $-1 0 0.093500000000000139 0 0 -1 0 0 0 -1 forward_v I I I I #
straight-curve $-1 -1 $-1 -3.0688265147387055 5.4039999999999999 4.3755791486398161 -0.96161284014136961 0 0.27440981337271531 I I #
convexity-sys-attrib $-1 -1 $-1 $320 $209 #
point $-1 -1 $-1 -3.0688265147387055 5.4039999999999999 4.3755791486398161 #
point $-1 -1 $-1 -2.8284233047033629 5.4039999999999999 4.3069766952966368 #
convexity-sys-attrib $-1 -1 $-1 $332 $226 #
straight-curve $-1 -1 $-1 -2.8284233047033629 5.2169999999999996 4.3069766952966368 0 -0.99999999999999989 0 I I #
attrib_edge_convexity-kcp-attrib $-1 -1 $483 $-1 $340 1 #
straight-curve $-1 -1 $-1 -3.0688265147387055 5.2169999999999996 4.3755791486398161 0 -0.99999999999999989 0 I I #
convexity-sys-attrib $-1 -1 $-1 $343 $242 #
straight-curve $-1 -1 $-1 -0.2453791486398158 0.093500000000000139 0 0 0 -1 I I #
point $-1 -1 $-1 -0.2453791486398158 -0.093500000000000139 -0.2453791486398158 #
straight-curve $-1 -1 $-1 -0.2453791486398158 0 -0.2453791486398158 0 1 0 I I #
point $-1 -1 $-1 -0.2453791486398158 0.093500000000000139 -0.2453791486398158 #
face $-1 -1 $-1 $484 $402 $23 $-1 $485 reversed single #
plane-surface $-1 -1 $-1 0 0 -0.2453791486398158 0 0 1 1 0 0 forward_v I I I I #
coedge $-1 -1 $-1 $486 $366 $367 $435 forward $281 $-1 #
coedge $-1 -1 $-1 $366 $486 $394 $463 reversed $281 $-1 #
coedge $-1 -1 $-1 $395 $487 $366 $432 forward $465 $-1 #
edge $-1 -1 $-1 $488 -0.064259259964995083 $466 0.18574074003500474 $431 $489 forward @7 unknown #
coedge $-1 -1 $-1 $368 $367 $490 $491 reversed $182 $-1 #
coedge $-1 -1 $-1 $492 $493 $494 $435 forward $495 $-1 #
edge $-1 -1 $-1 $488 -0.046750000000000291 $439 0.14024999999999999 $434 $496 forward @7 unknown #
coedge $-1 -1 $-1 $437 $369 $497 $498 reversed $438 $-1 #
coedge $-1 -1 $-1 $369 $436 $492 $499 reversed $438 $-1 #
loop $-1 -1 $-1 $-1 $369 $484 #
vertex $-1 -1 $-1 $499 $500 #
straight-curve $-1 -1 $-1 -0.19994099016453815 0.093500000000000139 0.10906467321398285 -0.70710678118654757 0 -0.70710678118654757 I I #
coedge $-1 -1 $-1 $501 $377 $371 $442 forward $452 $-1 #
edge $-1 -1 $-1 $379 -0.060740740035004542 $447 0.18925925996499521 $441 $502 forward @7 unknown #
coedge $-1 -1 $-1 $503 $372 $374 $449 forward $446 $-1 #
coedge $-1 -1 $-1 $372 $503 $501 $504 reversed $446 $-1 #
coedge $-1 -1 $-1 $505 $497 $368 $373 reversed $506 $-1 #
loop $-1 -1 $-1 $-1 $372 $507 #
vertex $-1 -1 $-1 $504 $508 #
straight-curve $-1 -1 $-1 -0.2453791486398158 -0.046749999999999847 0.063626514738705439 0 1 0 I I #
edge $-1 -1 $-1 $375 -0.06362651473870537 $457 0.2453791486398158 $374 $509 forward @7 unknown #
point $-1 -1 $-1 -0.2453791486398158 0.093500000000000139 0.06362651473870537 #
coedge $-1 -1 $-1 $377 $501 $381 $392 reversed $452 $-1 #
loop $-1 -1 $-1 $-1 $377 $510 #
straight-curve $-1 -1 $-1 0.0018339852583836892 -0.093500000000000139 -0.22774577710535215 -0.96161284014136983 0 0.27440981337271547 I I #
point $-1 -1 $-1 -0.17677669529663698 -0.093500000000000139 -0.17677669529663698 #
coedge $-1 -1 $-1 $382 $381 $503 $511 forward $384 $-1 #
coedge $-1 -1 $-1 $383 $409 $388 $458 forward $410 $-1 #
vertex $-1 -1 $-1 $385 $512 #
edge $-1 -1 $-1 $476 -0.2453791486398158 $297 -0.063626514738707174 $388 $462 forward @7 unknown #
coedge $-1 -1 $-1 $405 $401 $389 $403 forward $406 $-1 #
face $-1 -1 $-1 $510 $390 $23 $-1 $513 reversed single #
vertex $-1 -1 $-1 $511 $514 #
straight-curve $-1 -1 $-1 0 -0.093500000000000139 -0.2453791486398158 -1 0 0 I I #
edge $-1 -1 $-1 $466 -4.4408920985006262e-016 $471 0.18699999999999983 $430 $515 forward @7 unknown #
coedge $-1 -1 $-1 $487 $395 $400 $475 reversed $465 $-1 #
loop $-1 -1 $-1 $-1 $395 $516 #
vertex $-1 -1 $-1 $432 $517 #
straight-curve $-1 -1 $-1 0.19344455043376316 -0.093500000000000139 0.11836761975928743 0.27440981337271547 0 -0.96161284014136983 I I #
coedge $-1 -1 $-1 $518 $397 $486 $519 forward $470 $-1 #
coedge $-1 -1 $-1 $397 $518 $399 $474 forward $470 $-1 #
loop $-1 -1 $-1 $-1 $397 $412 #
vertex $-1 -1 $-1 $519 $520 #
straight-curve $-1 -1 $-1 0.19344455043376316 0.093500000000000139 0.11836761975928743 -0.27440981337271547 0 0.96161284014136983 I I #
coedge $-1 -1 $-1 $400 $399 $521 $522 reversed $402 $-1 #
edge $-1 -1 $-1 $523 -0.2453791486398158 $197 0.063626514738705175 $399 $408 forward @7 unknown #
edge $-1 -1 $-1 $524 -0.2453791486398158 $303 0.063626514738705175 $400 $477 forward @7 unknown #
vertex $-1 -1 $-1 $403 $525 #
straight-curve $-1 -1 $-1 0.2453791486398158 -0.093500000000000139 0 0 0 -1 I I #
edge $-1 -1 $-1 $407 -0.093500000000000139 $476 0.093500000000000139 $405 $526 forward @7 unknown #
face $-1 -1 $-1 $-1 $406 $23 $-1 $485 reversed single #
point $-1 -1 $-1 0.2453791486398158 0.093500000000000139 -0.2453791486398158 #
face $-1 -1 $-1 $507 $410 $23 $-1 $428 reversed single #
face $-1 -1 $-1 $516 $506 $23 $-1 $527 reversed single #
convexity-sys-attrib $-1 -1 $-1 $420 $340 #
face $-1 -1 $-1 $386 $438 $23 $-1 $413 reversed single #
plane-surface $-1 -1 $-1 0.2453791486398158 0 0 -1 0 0 0 0 1 forward_v I I I I #
coedge $-1 -1 $-1 $430 $429 $468 $519 reversed $281 $-1 #
coedge $-1 -1 $-1 $431 $464 $528 $529 reversed $465 $-1 #
vertex $-1 -1 $-1 $529 $530 #
straight-curve $-1 -1 $-1 -0.0018339852583836407 -0.093500000000000139 0.2277457771053526 0.96161284014136983 0 -0.27440981337271542 I I #
coedge $-1 -1 $-1 $531 $532 $433 $491 forward $533 $-1 #
edge $-1 -1 $-1 $447 -0.06425925996499568 $488 0.19277777989498701 $490 $534 forward @7 unknown #
coedge $-1 -1 $-1 $535 $434 $437 $499 forward $495 $-1 #
coedge $-1 -1 $-1 $434 $535 $531 $536 forward $495 $-1 #
coedge $-1 -1 $-1 $528 $537 $429 $435 reversed $538 $-1 #
loop $-1 -1 $-1 $-1 $434 $539 #
straight-curve $-1 -1 $-1 -0.063626514738705189 -0.046749999999999847 0.2453791486398158 0 1 0 I I #
coedge $-1 -1 $-1 $445 $540 $436 $498 forward $506 $-1 #
edge $-1 -1 $-1 $541 -0.2453791486398158 $375 -0.06362651473870537 $436 $509 forward @7 unknown #
edge $-1 -1 $-1 $439 0.063626514738705148 $541 0.2453791486398158 $437 $542 forward @7 unknown #
point $-1 -1 $-1 -0.063626514738705148 0.093500000000000139 0.2453791486398158 #
coedge $-1 -1 $-1 $451 $441 $444 $504 forward $452 $-1 #
straight-curve $-1 -1 $-1 -0.19344455043376321 -0.093500000000000139 -0.11836761975928767 -0.27440981337271542 0 0.96161284014136983 I I #
coedge $-1 -1 $-1 $444 $443 $455 $511 reversed $446 $-1 #
edge $-1 -1 $-1 $447 -0.063626514738705175 $461 0.2453791486398158 $444 $543 forward @7 unknown #
coedge $-1 -1 $-1 $540 $445 $532 $544 reversed $506 $-1 #
loop $-1 -1 $-1 $-1 $445 $482 #
face $-1 -1 $-1 $479 $446 $23 $-1 $527 reversed single #
point $-1 -1 $-1 -0.2453791486398158 -0.093500000000000139 0.063626514738705175 #
straight-curve $-1 -1 $-1 -0.2453791486398158 0.093500000000000139 0 0 0 -1 I I #
face $-1 -1 $-1 $545 $452 $23 $-1 $513 reversed single #
edge $-1 -1 $-1 $461 -0.093500000000000139 $457 0.093500000000000139 $503 $546 forward @7 unknown #
point $-1 -1 $-1 -0.2453791486398158 0.093500000000000139 -0.2453791486398158 #
plane-surface $-1 -1 $-1 0 -0.093500000000000139 0 0 1 0 0 0 1 forward_v I I I I #
point $-1 -1 $-1 -0.2453791486398158 -0.093500000000000139 -0.2453791486398158 #
straight-curve $-1 -1 $-1 0.17677669529663698 -0.093499999999999694 0.17677669529663653 0 1 0 I I #
face $-1 -1 $-1 $460 $465 $23 $-1 $513 reversed single #
point $-1 -1 $-1 0.17677669529663698 -0.093500000000000139 0.17677669529663653 #
coedge $-1 -1 $-1 $469 $468 $537 $547 reversed $470 $-1 #
edge $-1 -1 $-1 $471 -0.18574074003500474 $439 0.064259259964995083 $468 $548 forward @7 unknown #
point $-1 -1 $-1 0.17677669529663698 0.093500000000000139 0.17677669529663653 #
coedge $-1 -1 $-1 $537 $528 $473 $522 forward $538 $-1 #
edge $-1 -1 $-1 $524 -0.093500000000000139 $523 0.093500000000000139 $473 $549 forward @7 unknown #
vertex $-1 -1 $-1 $522 $550 #
vertex $-1 -1 $-1 $522 $551 #
point $-1 -1 $-1 0.2453791486398158 -0.093500000000000139 -0.2453791486398158 #
straight-curve $-1 -1 $-1 0.2453791486398158 0 -0.2453791486398158 0 -1 0 I I #
plane-surface $-1 -1 $-1 -0.2453791486398158 0 0 1 0 0 0 0 -1 forward_v I I I I #
coedge $-1 -1 $-1 $521 $494 $487 $529 forward $538 $-1 #
edge $-1 -1 $-1 $488 -0.063626514738705148 $524 0.2453791486398158 $487 $552 forward @7 unknown #
point $-1 -1 $-1 -0.063626514738705148 -0.093500000000000139 0.2453791486398158 #
coedge $-1 -1 $-1 $532 $490 $493 $536 reversed $533 $-1 #
coedge $-1 -1 $-1 $490 $531 $505 $544 forward $533 $-1 #
loop $-1 -1 $-1 $-1 $490 $545 #
straight-curve $-1 -1 $-1 -0.19994099016453815 -0.093500000000000139 0.10906467321398285 0.70710678118654757 0 0.70710678118654757 I I #
coedge $-1 -1 $-1 $493 $492 $540 $553 forward $495 $-1 #
edge $-1 -1 $-1 $554 -0.2453791486398158 $488 -0.063626514738705148 $531 $552 forward @7 unknown #
coedge $-1 -1 $-1 $494 $521 $518 $547 forward $538 $-1 #
loop $-1 -1 $-1 $-1 $494 $555 #
face $-1 -1 $-1 $481 $495 $23 $-1 $556 forward single #
coedge $-1 -1 $-1 $497 $505 $535 $553 reversed $506 $-1 #
vertex $-1 -1 $-1 $499 $557 #
straight-curve $-1 -1 $-1 0 0.093500000000000139 0.2453791486398158 -1 0 0 I I #
straight-curve $-1 -1 $-1 -0.2453791486398158 -0.093500000000000139 0 0 0 -1 I I #
edge $-1 -1 $-1 $554 -0.2453791486398158 $447 -0.063626514738705175 $505 $543 forward @7 unknown #
face $-1 -1 $-1 $555 $533 $23 $-1 $513 reversed single #
straight-curve $-1 -1 $-1 -0.2453791486398158 0 -0.2453791486398158 0 1 0 I I #
edge $-1 -1 $-1 $523 -0.2453791486398158 $439 0.063626514738705148 $518 $542 forward @7 unknown #
straight-curve $-1 -1 $-1 -0.0018339852583836407 0.093500000000000139 0.2277457771053526 -0.96161284014136983 0 0.27440981337271542 I I #
straight-curve $-1 -1 $-1 0.2453791486398158 0 0.2453791486398158 0 1 0 I I #
point $-1 -1 $-1 0.2453791486398158 0.093500000000000139 0.2453791486398158 #
point $-1 -1 $-1 0.2453791486398158 -0.093500000000000139 0.2453791486398158 #
straight-curve $-1 -1 $-1 0 -0.093500000000000139 0.2453791486398158 1 0 0 I I #
edge $-1 -1 $-1 $541 -0.093500000000000139 $554 0.093500000000000139 $540 $558 forward @7 unknown #
vertex $-1 -1 $-1 $553 $559 #
face $-1 -1 $-1 $539 $538 $23 $-1 $556 forward single #
plane-surface $-1 -1 $-1 0 0 0.2453791486398158 0 0 1 1 0 0 forward_v I I I I #
point $-1 -1 $-1 -0.2453791486398158 0.093500000000000139 0.2453791486398158 #
straight-curve $-1 -1 $-1 -0.2453791486398158 0 0.2453791486398158 0 -1 0 I I #
point $-1 -1 $-1 -0.2453791486398158 -0.093500000000000139 0.2453791486398158 #
End-of-ACIS-data 