700 0 2 0           
24 FBMach with ACIS - 7.0.3 13 ACIS 7.0.3 NT 24 Mon May 13 17:01:12 2002 
1 9.9999999999999995e-007 1e-010 
body $2 -1 $-1 $3 $-1 $4 #
bdycol-kcp $-1 -1 1 4 $5 $6 $7 $8 #
model_id-kcp-attrib $-1 -1 $-1 $-1 $0 1 1021323671 1021323671 -1524170751 1 #
lump $-1 -1 $-1 $-1 $9 $0 #
transform $-1 -1 1 0 0 0 1 0 0 0 1 0 0 0 1 rotate no_reflect no_shear #
body $10 -1 $-1 $11 $-1 $12 #
body $13 -1 $-1 $14 $-1 $15 #
body $16 -1 $-1 $17 $-1 $18 #
body $19 -1 $-1 $20 $-1 $21 #
shell $-1 -1 $-1 $-1 $-1 $22 $-1 $3 #
rgb_color-st-attrib $-1 -1 $23 $-1 $5 0 0 1 #
lump $-1 -1 $-1 $-1 $24 $5 #
transform $-1 -1 1 0 0 0 1 0 0 0 1 4.8860999999999999 3.218 6.0110999999999999 1 no_rotate no_reflect no_shear #
model_id-kcp-attrib $-1 -1 $-1 $-1 $6 1 1021323671 1021323671 -1524170750 1 #
lump $-1 -1 $-1 $-1 $25 $6 #
transform $-1 -1 1 0 0 0 1 0 0 0 1 4.8860999999999999 3.218 6.0110999999999999 1 no_rotate no_reflect no_shear #
rgb_color-st-attrib $-1 -1 $26 $-1 $7 0.5 1 1 #
lump $-1 -1 $-1 $-1 $27 $7 #
transform $-1 -1 1 0 0 0 1 0 0 0 1 4.8860999999999999 3.218 6.0110999999999999 1 no_rotate no_reflect no_shear #
rgb_color-st-attrib $-1 -1 $28 $-1 $8 1 0.5 1 #
lump $-1 -1 $-1 $-1 $29 $8 #
transform $-1 -1 1 0 0 0 1 0 0 0 1 4.8860999999999999 3.218 6.0110999999999999 1 no_rotate no_reflect no_shear #
face $30 -1 $-1 $31 $32 $9 $-1 $33 reversed single #
model_id-kcp-attrib $-1 -1 $-1 $10 $5 1 1021323671 1021323671 -1524563964 1 #
shell $-1 -1 $-1 $-1 $-1 $34 $-1 $11 #
shell $-1 -1 $-1 $-1 $-1 $35 $-1 $14 #
model_id-kcp-attrib $-1 -1 $-1 $16 $7 1 1021323671 1021323671 -1519583229 1 #
shell $-1 -1 $-1 $-1 $-1 $36 $-1 $17 #
model_id-kcp-attrib $-1 -1 $-1 $19 $8 1 1021323671 1021323671 -1518665723 1 #
shell $-1 -1 $-1 $-1 $-1 $37 $-1 $20 #
model_id-kcp-attrib $-1 -1 $-1 $-1 $22 1 1021323671 1021323671 -1524170751 2 #
face $38 -1 $-1 $39 $40 $9 $-1 $41 reversed single #
loop $-1 -1 $-1 $-1 $42 $22 #
plane-surface $-1 -1 $-1 4.8487435487499146 3.8180100000000001 6.1505202440465512 0.25881199569454294 0 0.96592771514467268 -0.96592771514467246 0 0.25881199569454283 forward_v I I I I #
face $-1 -1 $-1 $43 $44 $24 $-1 $45 forward single #
face $-1 -1 $-1 $46 $47 $25 $-1 $48 forward single #
face $-1 -1 $-1 $49 $50 $27 $-1 $51 reversed single #
face $-1 -1 $-1 $52 $53 $29 $-1 $54 forward single #
model_id-kcp-attrib $-1 -1 $-1 $-1 $31 1 1021323671 1021323671 -1524170751 3 #
face $55 -1 $-1 $56 $57 $9 $-1 $58 reversed single #
loop $-1 -1 $-1 $-1 $59 $31 #
plane-surface $-1 -1 $-1 4.7466797559534486 3.8180100000000001 6.0484564512500851 -0.70710678118654757 0 0.70710678118654757 -0.70710678118654735 0 -0.70710678118654735 forward_v I I I I #
coedge $-1 -1 $-1 $60 $61 $62 $63 reversed $32 $-1 #
face $-1 -1 $-1 $64 $65 $24 $-1 $66 forward single #
loop $-1 -1 $-1 $-1 $67 $34 #
plane-surface $-1 -1 $-1 -0.037356451250085243 0.375 0.13942024404655129 -0.70710678118654757 0 0.70710678118654757 0.70710678118654757 0 0.70710678118654757 forward_v I I I I #
face $-1 -1 $-1 $68 $69 $25 $-1 $70 reversed single #
loop $-1 -1 $-1 $-1 $71 $35 #
plane-surface $-1 -1 $-1 0 0 0.1875 0 0 1 1 0 0 forward_v I I I I #
face $-1 -1 $-1 $72 $73 $27 $-1 $51 reversed single #
loop $-1 -1 $-1 $-1 $74 $36 #
cone-surface $-1 -1 $-1 0 -0.5 0 0 -1 0 0.13258252147247765 0 -0.13258252147247765 1 I I 0 1 0.18749999999999997 forward I I I I #
face $-1 -1 $-1 $75 $76 $29 $-1 $77 forward single #
loop $-1 -1 $-1 $78 $79 $37 #
cone-surface $-1 -1 $-1 0 0.25 0 0 -1 0 0.088388347648318419 0 -0.088388347648318419 1 I I 0 -1 0.12499999999999997 forward I I I I #
model_id-kcp-attrib $-1 -1 $-1 $-1 $39 1 1021323671 1021323671 -1524170751 4 #
face $80 -1 $-1 $81 $82 $9 $-1 $83 reversed single #
loop $-1 -1 $-1 $-1 $84 $39 #
plane-surface $-1 -1 $-1 4.7840362072035338 3.8180100000000001 5.9090362072035338 -0.96592771514467268 0 -0.25881199569454294 0.25881199569454283 0 -0.96592771514467246 forward_v I I I I #
coedge $-1 -1 $-1 $85 $86 $87 $88 reversed $40 $-1 #
coedge $-1 -1 $-1 $89 $42 $90 $91 forward $32 $-1 #
coedge $-1 -1 $-1 $42 $89 $85 $92 reversed $32 $-1 #
coedge $-1 -1 $-1 $87 $93 $42 $63 forward $94 $-1 #
edge $-1 -1 $-1 $95 -0.10825454387499034 $96 0.036083631601908098 $62 $97 forward @7 unknown #
face $-1 -1 $-1 $98 $99 $24 $-1 $100 forward single #
loop $-1 -1 $-1 $-1 $101 $43 #
plane-surface $-1 -1 $-1 -0.13942024404655129 0.375 0.037356451250085243 -0.96592771514467268 0 -0.25881199569454294 -0.25881199569454294 0 0.96592771514467268 forward_v I I I I #
coedge $-1 -1 $-1 $102 $103 $104 $105 forward $44 $-1 #
face $106 -1 $-1 $107 $108 $25 $-1 $109 reversed single #
loop $-1 -1 $-1 $-1 $110 $46 #
plane-surface $-1 -1 $-1 0 0 -0.1875 0 0 1 1 0 0 forward_v I I I I #
coedge $-1 -1 $-1 $111 $112 $113 $114 forward $47 $-1 #
face $-1 -1 $-1 $115 $116 $27 $-1 $51 reversed single #
loop $-1 -1 $-1 $-1 $117 $49 #
coedge $-1 -1 $-1 $118 $119 $120 $121 reversed $50 $-1 #
face $-1 -1 $-1 $122 $123 $29 $-1 $124 reversed single #
loop $-1 -1 $-1 $125 $126 $52 #
cone-surface $-1 -1 $-1 0 0.25 0 0 -1 0 0.13258252147247765 0 -0.13258252147247765 1 I I 0 1 0.18749999999999997 forward I I I I #
loop $-1 -1 $-1 $-1 $127 $37 #
coedge $-1 -1 $-1 $79 $79 $128 $129 forward $53 $-1 #
model_id-kcp-attrib $-1 -1 $-1 $-1 $56 1 1021323671 1021323671 -1524170751 5 #
face $130 -1 $-1 $131 $132 $9 $-1 $133 reversed single #
loop $-1 -1 $-1 $-1 $134 $56 #
plane-surface $-1 -1 $-1 4.9234564512500851 3.8180100000000001 5.8716797559534486 -0.25881199569454294 0 -0.96592771514467268 0.96592771514467246 0 -0.25881199569454283 forward_v I I I I #
coedge $-1 -1 $-1 $135 $136 $137 $138 reversed $57 $-1 #
coedge $-1 -1 $-1 $139 $59 $61 $92 forward $40 $-1 #
coedge $-1 -1 $-1 $59 $139 $135 $140 reversed $40 $-1 #
coedge $-1 -1 $-1 $137 $62 $59 $88 forward $94 $-1 #
edge $-1 -1 $-1 $96 -0.10825499999999978 $141 0.03608499999999993 $87 $142 forward @7 unknown #
coedge $-1 -1 $-1 $61 $60 $143 $144 reversed $32 $-1 #
coedge $-1 -1 $-1 $145 $146 $60 $91 reversed $132 $-1 #
edge $-1 -1 $-1 $95 0.10001000000000017 $147 0.22501000000000018 $90 $148 forward @7 unknown #
edge $-1 -1 $-1 $96 0.10001000000000017 $149 0.22501000000000018 $61 $150 forward @7 unknown #
coedge $-1 -1 $-1 $62 $151 $145 $152 forward $94 $-1 #
loop $-1 -1 $-1 $153 $154 $155 #
vertex $-1 -1 $-1 $63 $156 #
vertex $-1 -1 $-1 $88 $157 #
straight-curve $-1 -1 $-1 4.8835977285772678 3.718 6.1411813673397546 -0.96592771514467246 0 0.25881199569454283 I I #
face $-1 -1 $-1 $158 $159 $24 $-1 $160 forward single #
loop $-1 -1 $-1 $-1 $161 $64 #
plane-surface $-1 -1 $-1 -0.10206379279646605 0.375 -0.10206379279646605 -0.25881199569454294 0 -0.96592771514467268 -0.96592771514467268 0 0.25881199569454294 forward_v I I I I #
coedge $-1 -1 $-1 $162 $163 $164 $165 forward $65 $-1 #
coedge $-1 -1 $-1 $166 $67 $163 $167 reversed $44 $-1 #
coedge $-1 -1 $-1 $67 $166 $168 $169 forward $44 $-1 #
coedge $-1 -1 $-1 $170 $164 $67 $105 reversed $171 $-1 #
edge $-1 -1 $-1 $172 -0.10825499999999977 $173 0.036084999999999923 $67 $174 forward @7 unknown #
model_id-kcp-attrib $-1 -1 $-1 $-1 $68 1 1021323671 1021323671 -1524170750 2 #
face $-1 -1 $-1 $175 $176 $25 $-1 $177 reversed single #
loop $-1 -1 $-1 $-1 $178 $68 #
plane-surface $-1 -1 $-1 0 -0.5 0 0 1 0 0 0 1 forward_v I I I I #
coedge $-1 -1 $-1 $179 $180 $181 $182 forward $69 $-1 #
coedge $-1 -1 $-1 $183 $71 $184 $185 forward $47 $-1 #
coedge $-1 -1 $-1 $71 $183 $186 $187 forward $47 $-1 #
coedge $-1 -1 $-1 $188 $189 $71 $114 reversed $190 $-1 #
edge $-1 -1 $-1 $191 -0.5 $192 0.5 $113 $193 forward @7 unknown #
face $-1 -1 $-1 $194 $195 $27 $-1 $51 reversed single #
loop $-1 -1 $-1 $-1 $196 $72 #
coedge $-1 -1 $-1 $197 $198 $199 $200 reversed $73 $-1 #
coedge $-1 -1 $-1 $201 $74 $202 $203 forward $50 $-1 #
coedge $-1 -1 $-1 $74 $201 $204 $205 reversed $50 $-1 #
coedge $-1 -1 $-1 $206 $207 $74 $121 forward $208 $-1 #
edge $-1 -1 $-1 $209 0.78539816339744828 $210 2.3561944901923448 $120 $211 forward @7 unknown #
face $-1 -1 $-1 $-1 $212 $29 $-1 $213 forward single #
loop $-1 -1 $-1 $214 $215 $75 #
plane-surface $-1 -1 $-1 -0.0040176521658326593 -0.5 0.0040176521658326567 0 1 0 0 0 1 forward_v I I I I #
loop $-1 -1 $-1 $-1 $216 $52 #
coedge $-1 -1 $-1 $126 $126 $215 $217 forward $76 $-1 #
coedge $-1 -1 $-1 $127 $127 $218 $219 reversed $78 $-1 #
coedge $-1 -1 $-1 $128 $128 $79 $129 reversed $214 $-1 #
edge $-1 -1 $-1 $220 0 $220 6.2831853071795862 $79 $221 forward @7 unknown #
model_id-kcp-attrib $-1 -1 $-1 $-1 $81 1 1021323671 1021323671 -1524170751 6 #
face $222 -1 $-1 $223 $224 $9 $-1 $225 reversed single #
loop $-1 -1 $-1 $-1 $145 $81 #
plane-surface $-1 -1 $-1 4.9881637927964659 3.8180100000000001 6.1131637927964659 0.96592771514467268 0 0.25881199569454294 -0.25881199569454283 0 0.96592771514467246 forward_v I I I I #
coedge $-1 -1 $-1 $226 $227 $154 $228 reversed $82 $-1 #
coedge $-1 -1 $-1 $229 $84 $86 $140 forward $57 $-1 #
coedge $-1 -1 $-1 $84 $229 $226 $230 reversed $57 $-1 #
coedge $-1 -1 $-1 $154 $87 $84 $138 forward $94 $-1 #
edge $-1 -1 $-1 $141 -0.10825271934035731 $231 0.036085456136541121 $137 $232 forward @7 unknown #
coedge $-1 -1 $-1 $86 $85 $233 $234 reversed $40 $-1 #
edge $-1 -1 $-1 $141 0.10001000000000017 $235 0.22501000000000018 $86 $236 forward @7 unknown #
vertex $-1 -1 $-1 $138 $237 #
straight-curve $-1 -1 $-1 4.7721957041525647 3.718 6.0739723994492021 -0.70710678118654735 0 -0.70710678118654735 I I #
coedge $-1 -1 $-1 $238 $233 $89 $144 forward $239 $-1 #
edge $240 -1 $-1 $149 -0.14433817547689845 $147 0 $89 $241 forward @7 unknown #
coedge $-1 -1 $-1 $242 $90 $93 $152 reversed $132 $-1 #
coedge $-1 -1 $-1 $90 $242 $238 $243 reversed $132 $-1 #
vertex $-1 -1 $-1 $91 $244 #
straight-curve $-1 -1 $-1 4.9881637927964659 3.8180100000000001 6.1131637927964659 0 -0.99999999999999989 0 I I #
vertex $-1 -1 $-1 $92 $245 #
straight-curve $-1 -1 $-1 4.8487435487499146 3.8180100000000001 6.1505202440465512 0 -0.99999999999999989 0 I I #
coedge $-1 -1 $-1 $93 $154 $246 $247 forward $94 $-1 #
edge $-1 -1 $-1 $248 -0.10825271934035731 $95 0.036085456136541121 $93 $249 forward @7 unknown #
loop $-1 -1 $-1 $-1 $250 $155 #
coedge $-1 -1 $-1 $151 $137 $134 $228 forward $94 $-1 #
face $251 -1 $-1 $252 $94 $9 $-1 $253 forward single #
point $-1 -1 $-1 4.9881637927964659 3.718 6.1131637927964659 #
point $-1 -1 $-1 4.8487435487499146 3.718 6.1505202440465512 #
face $-1 -1 $-1 $254 $255 $24 $-1 $256 forward single #
loop $-1 -1 $-1 $-1 $257 $98 #
plane-surface $-1 -1 $-1 0.037356451250085243 0.375 -0.13942024404655129 0.70710678118654757 0 -0.70710678118654757 -0.70710678118654757 0 -0.70710678118654757 forward_v I I I I #
coedge $-1 -1 $-1 $258 $259 $260 $261 forward $99 $-1 #
coedge $-1 -1 $-1 $262 $101 $259 $263 reversed $65 $-1 #
coedge $-1 -1 $-1 $101 $262 $102 $167 forward $65 $-1 #
coedge $-1 -1 $-1 $104 $260 $101 $165 reversed $171 $-1 #
edge $-1 -1 $-1 $173 -0.10825271934035738 $264 0.03608545613654103 $101 $265 forward @7 unknown #
coedge $-1 -1 $-1 $103 $102 $266 $267 reversed $44 $-1 #
edge $268 -1 $-1 $269 0 $173 0.125 $163 $270 forward @7 unknown #
coedge $-1 -1 $-1 $271 $272 $103 $169 reversed $273 $-1 #
edge $-1 -1 $-1 $274 0 $172 0.125 $103 $275 forward @7 unknown #
coedge $-1 -1 $-1 $276 $104 $272 $277 reversed $171 $-1 #
loop $-1 -1 $-1 $-1 $104 $278 #
vertex $-1 -1 $-1 $169 $279 #
vertex $-1 -1 $-1 $167 $280 #
straight-curve $-1 -1 $-1 -0.11390429584743478 0.5 0.062872399449201755 -0.70710678118654757 0 -0.70710678118654757 I I #
face $281 -1 $-1 $282 $283 $25 $-1 $284 reversed single #
loop $-1 -1 $-1 $-1 $285 $107 #
plane-surface $-1 -1 $-1 -0.1875 0 0 1 0 0 0 0 -1 forward_v I I I I #
coedge $-1 -1 $-1 $286 $186 $287 $288 forward $108 $-1 #
coedge $-1 -1 $-1 $289 $110 $286 $290 forward $69 $-1 #
coedge $-1 -1 $-1 $110 $289 $291 $292 forward $69 $-1 #
coedge $-1 -1 $-1 $189 $188 $110 $182 reversed $190 $-1 #
edge $-1 -1 $-1 $293 -0.5 $294 0.5 $181 $295 forward @7 unknown #
coedge $-1 -1 $-1 $112 $111 $296 $297 forward $47 $-1 #
coedge $-1 -1 $-1 $298 $299 $111 $185 reversed $283 $-1 #
edge $-1 -1 $-1 $192 -0.1875 $300 0.1875 $184 $301 forward @7 unknown #
coedge $-1 -1 $-1 $178 $302 $112 $187 reversed $108 $-1 #
edge $-1 -1 $-1 $303 -0.1875 $191 0.1875 $186 $304 forward @7 unknown #
coedge $-1 -1 $-1 $181 $113 $302 $305 forward $190 $-1 #
coedge $-1 -1 $-1 $113 $181 $298 $306 reversed $190 $-1 #
loop $-1 -1 $-1 $-1 $188 $282 #
vertex $-1 -1 $-1 $114 $307 #
vertex $-1 -1 $-1 $114 $308 #
straight-curve $-1 -1 $-1 0.1875 0 0.1875 0 1 0 I I #
face $-1 -1 $-1 $309 $310 $27 $-1 $311 forward single #
loop $-1 -1 $-1 $-1 $312 $115 #
coedge $-1 -1 $-1 $313 $314 $312 $315 forward $116 $-1 #
coedge $-1 -1 $-1 $316 $117 $317 $318 reversed $73 $-1 #
coedge $-1 -1 $-1 $117 $316 $119 $205 forward $73 $-1 #
coedge $-1 -1 $-1 $319 $320 $117 $200 forward $321 $-1 #
edge $-1 -1 $-1 $322 2.3561944901923448 $323 3.9269908169872414 $199 $324 forward @7 unknown #
coedge $-1 -1 $-1 $119 $118 $325 $326 reversed $50 $-1 #
coedge $-1 -1 $-1 $314 $313 $327 $203 reversed $116 $-1 #
edge $-1 -1 $-1 $209 -1 $328 0 $327 $329 forward @7 unknown #
coedge $-1 -1 $-1 $330 $331 $332 $205 forward $333 $-1 #
edge $-1 -1 $-1 $210 -1 $323 0 $204 $334 forward @7 unknown #
coedge $-1 -1 $-1 $207 $120 $331 $335 reversed $208 $-1 #
coedge $-1 -1 $-1 $120 $206 $336 $337 forward $208 $-1 #
loop $-1 -1 $-1 $-1 $120 $338 #
vertex $-1 -1 $-1 $339 $340 #
vertex $-1 -1 $-1 $341 $342 #
ellipse-curve $-1 -1 $-1 0 0.5 0 0 -1 0 0.13258252147247765 0 -0.13258252147247765 1 I I #
loop $-1 -1 $-1 $343 $344 $122 #
plane-surface $-1 -1 $-1 -0.0040176521658326593 0.25 0.0040176521658326567 0 1 0 0 0 1 forward_v I I I I #
loop $-1 -1 $-1 $-1 $128 $75 #
coedge $-1 -1 $-1 $215 $215 $126 $217 reversed $123 $-1 #
coedge $-1 -1 $-1 $216 $216 $344 $345 reversed $125 $-1 #
edge $-1 -1 $-1 $346 -3.1415926535897931 $346 3.1415926535897931 $126 $347 forward @7 unknown #
coedge $-1 -1 $-1 $218 $218 $127 $219 forward $343 $-1 #
edge $348 -1 $-1 $349 0 $349 6.2831853071795862 $127 $350 forward @7 unknown #
vertex $-1 -1 $-1 $129 $351 #
ellipse-curve $-1 -1 $-1 0 -0.5 0 0 -1 0 0.088388347648318419 0 -0.088388347648318419 1 I I #
model_id-kcp-attrib $-1 -1 $-1 $-1 $131 1 1021323671 1021323671 -1524170751 7 #
face $352 -1 $-1 $353 $239 $9 $-1 $354 forward single #
loop $-1 -1 $-1 $-1 $246 $131 #
plane-surface $-1 -1 $-1 5.0255202440465512 3.8180100000000001 5.9737435487499146 0.70710678118654757 0 -0.70710678118654757 0.70710678118654735 0 0.70710678118654735 forward_v I I I I #
coedge $-1 -1 $-1 $355 $134 $136 $230 forward $82 $-1 #
coedge $-1 -1 $-1 $134 $355 $356 $357 reversed $82 $-1 #
edge $-1 -1 $-1 $231 -0.10825454387499034 $358 0.036083631601908098 $154 $359 forward @7 unknown #
coedge $-1 -1 $-1 $136 $135 $360 $361 reversed $57 $-1 #
edge $-1 -1 $-1 $231 0.10001000000000017 $362 0.22501000000000018 $136 $363 forward @7 unknown #
vertex $-1 -1 $-1 $228 $364 #
straight-curve $-1 -1 $-1 4.7746968582852878 3.718 5.9438921493994563 0.25881199569454283 0 -0.96592771514467246 I I #
coedge $-1 -1 $-1 $143 $360 $139 $234 forward $239 $-1 #
edge $365 -1 $-1 $235 -0.14433999999999969 $149 0 $139 $366 forward @7 unknown #
vertex $-1 -1 $-1 $140 $367 #
straight-curve $-1 -1 $-1 4.7466797559534486 3.8180100000000001 6.0484564512500851 0 -0.99999999999999989 0 I I #
point $-1 -1 $-1 4.7466797559534486 3.718 6.0484564512500851 #
coedge $-1 -1 $-1 $368 $143 $146 $243 forward $239 $-1 #
loop $-1 -1 $-1 $-1 $369 $223 #
attrib_edge_convexity-kcp-attrib $-1 -1 $370 $-1 $144 2 #
straight-curve $-1 -1 $-1 4.9881637927964659 3.593 6.1131637927964659 0.96592771514467246 0 -0.25881199569454294 I I #
coedge $-1 -1 $-1 $146 $145 $371 $372 forward $132 $-1 #
edge $373 -1 $-1 $147 -0.14433817547689845 $374 0 $146 $375 forward @7 unknown #
point $-1 -1 $-1 4.9881637927964659 3.593 6.1131637927964659 #
point $-1 -1 $-1 4.8487435487499146 3.593 6.1505202440465512 #
coedge $-1 -1 $-1 $356 $371 $151 $247 reversed $224 $-1 #
edge $-1 -1 $-1 $358 -0.10825499999999978 $248 0.03608499999999993 $151 $376 forward @7 unknown #
vertex $-1 -1 $-1 $152 $377 #
straight-curve $-1 -1 $-1 4.997503141714712 3.718 6.0783078506005435 -0.25881199569454283 0 0.96592771514467246 I I #
coedge $-1 -1 $-1 $250 $250 $378 $379 forward $153 $-1 #
model_id-kcp-attrib $-1 -1 $-1 $-1 $155 1 1021323671 1021323671 -1524170751 12 #
face $380 -1 $-1 $-1 $381 $9 $-1 $382 forward single #
plane-surface $-1 -1 $-1 4.8860999999999999 3.718 6.0110999999999999 0 1 0 -0.70710678118654735 0 0.70710678118654735 forward_v I I I I #
face $-1 -1 $-1 $278 $273 $24 $-1 $383 forward single #
loop $-1 -1 $-1 $-1 $384 $158 #
plane-surface $-1 -1 $-1 0.13942024404655129 0.375 -0.037356451250085243 0.96592771514467268 0 0.25881199569454294 0.25881199569454294 0 -0.96592771514467268 forward_v I I I I #
coedge $-1 -1 $-1 $385 $386 $387 $388 forward $159 $-1 #
coedge $-1 -1 $-1 $389 $161 $386 $390 reversed $99 $-1 #
coedge $-1 -1 $-1 $161 $389 $162 $263 forward $99 $-1 #
coedge $-1 -1 $-1 $164 $387 $161 $261 reversed $171 $-1 #
edge $-1 -1 $-1 $264 -0.10825454387499024 $391 0.036083631601908174 $161 $392 forward @7 unknown #
coedge $-1 -1 $-1 $163 $162 $393 $394 reversed $65 $-1 #
edge $-1 -1 $-1 $395 0 $264 0.125 $259 $396 forward @7 unknown #
vertex $-1 -1 $-1 $263 $397 #
straight-curve $-1 -1 $-1 -0.11140314171471213 0.5 -0.06720785060054367 0.25881199569454294 0 -0.96592771514467268 I I #
coedge $-1 -1 $-1 $393 $398 $166 $267 forward $399 $-1 #
edge $400 -1 $-1 $274 -0.10825499999999977 $269 0.036084999999999923 $166 $401 forward @7 unknown #
convexity-sys-attrib $-1 -1 $-1 $-1 $167 #
vertex $-1 -1 $-1 $267 $402 #
straight-curve $-1 -1 $-1 -0.13942024404655129 0.375 0.037356451250085243 0 1 0 I I #
coedge $-1 -1 $-1 $403 $168 $398 $404 reversed $273 $-1 #
coedge $-1 -1 $-1 $168 $403 $170 $277 forward $273 $-1 #
loop $-1 -1 $-1 $-1 $272 $254 #
vertex $-1 -1 $-1 $404 $405 #
straight-curve $-1 -1 $-1 -0.037356451250085243 0.375 0.13942024404655129 0 1 0 I I #
coedge $-1 -1 $-1 $387 $170 $384 $406 reversed $171 $-1 #
edge $-1 -1 $-1 $407 -0.10825454387499024 $172 0.036083631601908174 $272 $408 forward @7 unknown #
face $-1 -1 $-1 $409 $171 $24 $-1 $410 forward single #
point $-1 -1 $-1 -0.037356451250085243 0.5 0.13942024404655129 #
point $-1 -1 $-1 -0.13942024404655129 0.5 0.037356451250085243 #
model_id-kcp-attrib $-1 -1 $-1 $-1 $175 1 1021323671 1021323671 -1524170750 3 #
face $-1 -1 $-1 $-1 $190 $25 $-1 $411 reversed single #
loop $-1 -1 $-1 $-1 $298 $175 #
plane-surface $-1 -1 $-1 0 0.5 0 0 -1 0 0 0 -1 forward_v I I I I #
coedge $-1 -1 $-1 $412 $296 $299 $413 forward $176 $-1 #
coedge $-1 -1 $-1 $302 $178 $179 $290 reversed $108 $-1 #
coedge $-1 -1 $-1 $296 $412 $178 $288 reversed $176 $-1 #
edge $-1 -1 $-1 $303 -0.1875 $414 0.1875 $287 $415 forward @7 unknown #
coedge $-1 -1 $-1 $180 $179 $412 $416 forward $69 $-1 #
edge $-1 -1 $-1 $294 -0.1875 $414 0.1875 $286 $417 forward @7 unknown #
coedge $-1 -1 $-1 $299 $298 $180 $292 reversed $283 $-1 #
edge $-1 -1 $-1 $418 -0.1875 $293 0.1875 $291 $419 forward @7 unknown #
vertex $-1 -1 $-1 $182 $420 #
vertex $-1 -1 $-1 $305 $421 #
straight-curve $-1 -1 $-1 0.1875 0 -0.1875 0 -1 0 I I #
coedge $-1 -1 $-1 $285 $287 $183 $297 reversed $176 $-1 #
edge $-1 -1 $-1 $300 -0.5 $303 0.5 $296 $422 forward @7 unknown #
coedge $-1 -1 $-1 $291 $184 $189 $306 forward $283 $-1 #
coedge $-1 -1 $-1 $184 $291 $285 $413 reversed $283 $-1 #
vertex $-1 -1 $-1 $185 $423 #
straight-curve $-1 -1 $-1 0 0.5 0.1875 -1 0 0 I I #
coedge $-1 -1 $-1 $186 $286 $188 $305 reversed $108 $-1 #
vertex $-1 -1 $-1 $297 $424 #
straight-curve $-1 -1 $-1 0 -0.5 0.1875 1 0 0 I I #
edge $-1 -1 $-1 $191 -0.1875 $294 0.1875 $188 $425 forward @7 unknown #
edge $-1 -1 $-1 $192 -0.1875 $293 0.1875 $189 $426 forward @7 unknown #
point $-1 -1 $-1 0.1875 -0.5 0.1875 #
point $-1 -1 $-1 0.1875 0.5 0.1875 #
face $-1 -1 $-1 $427 $428 $27 $-1 $429 reversed single #
loop $-1 -1 $-1 $-1 $332 $194 #
plane-surface $-1 -1 $-1 0 0 0.1875 0 0 1 1 0 0 forward_v I I I I #
coedge $-1 -1 $-1 $430 $431 $432 $315 reversed $195 $-1 #
coedge $-1 -1 $-1 $202 $196 $433 $434 reversed $116 $-1 #
coedge $-1 -1 $-1 $196 $202 $435 $436 reversed $116 $-1 #
edge $-1 -1 $-1 $437 -1 $438 0 $432 $439 forward @7 unknown #
coedge $-1 -1 $-1 $198 $197 $440 $441 reversed $73 $-1 #
coedge $-1 -1 $-1 $442 $443 $444 $318 forward $445 $-1 #
edge $-1 -1 $-1 $446 -1 $322 0 $317 $447 forward @7 unknown #
coedge $-1 -1 $-1 $320 $199 $448 $449 reversed $321 $-1 #
coedge $-1 -1 $-1 $199 $319 $442 $450 forward $321 $-1 #
loop $-1 -1 $-1 $-1 $199 $451 #
vertex $-1 -1 $-1 $452 $453 #
vertex $-1 -1 $-1 $454 $455 #
ellipse-curve $-1 -1 $-1 0 -0.5 0 0 1 0 0.13258252147247765 0 -0.13258252147247765 1 I I #
coedge $-1 -1 $-1 $456 $457 $201 $326 forward $458 $-1 #
edge $-1 -1 $-1 $323 -2.3561944901923448 $328 -0.78539816339744828 $325 $324 forward @7 unknown #
coedge $-1 -1 $-1 $459 $460 $461 $203 forward $428 $-1 #
vertex $-1 -1 $-1 $462 $463 #
straight-curve $-1 -1 $-1 0.1875 -0.5 0 0 -1 0 I I #
coedge $-1 -1 $-1 $464 $204 $457 $454 forward $333 $-1 #
coedge $-1 -1 $-1 $204 $464 $206 $335 forward $333 $-1 #
coedge $-1 -1 $-1 $465 $448 $198 $205 reversed $310 $-1 #
loop $-1 -1 $-1 $-1 $204 $466 #
straight-curve $-1 -1 $-1 0 -0.5 0.1875 0 -1 0 I I #
edge $-1 -1 $-1 $467 -0.1875 $210 0 $206 $468 forward @7 unknown #
coedge $-1 -1 $-1 $469 $461 $207 $337 reversed $470 $-1 #
edge $-1 -1 $-1 $467 -0.1875 $209 0 $336 $471 forward @7 unknown #
face $-1 -1 $-1 $472 $208 $27 $-1 $473 reversed single #
edge $-1 -1 $-1 $209 0 $474 0.1875 $460 $471 forward @7 unknown #
point $-1 -1 $-1 0.1875 0.5 0 #
edge $-1 -1 $-1 $210 0 $475 0.1875 $476 $468 forward @7 unknown #
point $-1 -1 $-1 0 0.5 0.1875 #
loop $-1 -1 $-1 $-1 $218 $122 #
coedge $-1 -1 $-1 $344 $344 $216 $345 forward $212 $-1 #
edge $477 -1 $-1 $478 -3.1415926535897931 $478 3.1415926535897931 $216 $479 forward @7 unknown #
vertex $-1 -1 $-1 $217 $480 #
ellipse-curve $-1 -1 $-1 0 -0.5 0 0 1 0 0.13258252147247765 0 -0.13258252147247765 1 I I #
convexity-sys-attrib $-1 -1 $-1 $-1 $219 #
vertex $-1 -1 $-1 $219 $481 #
ellipse-curve $-1 -1 $-1 0 0.25 0 0 -1 0 0.088388347648318419 0 -0.088388347648318419 1 I I #
point $-1 -1 $-1 0.088388347648318266 -0.5 -0.088388347648318266 #
model_id-kcp-attrib $-1 -1 $-1 $-1 $223 1 1021323671 1021323671 -1524170751 8 #
face $482 -1 $-1 $483 $484 $9 $-1 $485 forward single #
plane-surface $-1 -1 $-1 4.9234564512500851 3.593 5.8716797559534486 0 1 0 -0.70710678118654735 0 0.70710678118654735 forward_v I I I I #
coedge $-1 -1 $-1 $227 $226 $369 $486 reversed $82 $-1 #
coedge $-1 -1 $-1 $487 $246 $227 $357 forward $224 $-1 #
edge $-1 -1 $-1 $358 0.10001000000000017 $488 0.22501000000000018 $227 $489 forward @7 unknown #
vertex $-1 -1 $-1 $228 $490 #
straight-curve $-1 -1 $-1 4.888602271422732 3.718 5.8810186326602452 0.96592771514467246 0 -0.25881199569454283 I I #
coedge $-1 -1 $-1 $233 $369 $229 $361 forward $239 $-1 #
edge $491 -1 $-1 $362 -0.14433817547689845 $235 0 $229 $492 forward @7 unknown #
vertex $-1 -1 $-1 $230 $493 #
straight-curve $-1 -1 $-1 4.7840362072035338 3.8180100000000001 5.9090362072035338 0 -0.99999999999999989 0 I I #
point $-1 -1 $-1 4.7840362072035338 3.718 5.9090362072035338 #
attrib_edge_convexity-kcp-attrib $-1 -1 $494 $-1 $234 2 #
straight-curve $-1 -1 $-1 4.8487435487499146 3.593 6.1505202440465512 0.70710678118654735 0 0.70710678118654735 I I #
point $-1 -1 $-1 4.7466797559534486 3.593 6.0484564512500851 #
coedge $-1 -1 $-1 $369 $238 $487 $495 forward $239 $-1 #
coedge $-1 -1 $-1 $360 $368 $355 $486 forward $239 $-1 #
convexity-sys-attrib $-1 -1 $-1 $240 $144 #
coedge $-1 -1 $-1 $246 $487 $242 $372 reversed $224 $-1 #
edge $-1 -1 $-1 $248 0.10001000000000017 $374 0.22501000000000018 $371 $496 forward @7 unknown #
attrib_edge_convexity-kcp-attrib $-1 -1 $497 $-1 $243 2 #
vertex $-1 -1 $-1 $372 $498 #
straight-curve $-1 -1 $-1 5.0255202440465512 3.593 5.9737435487499146 0.25881199569454294 0 -0.96592771514467246 I I #
straight-curve $-1 -1 $-1 5.0000042958474351 3.718 5.9482276005507977 0.70710678118654735 0 0.70710678118654735 I I #
point $-1 -1 $-1 5.0255202440465512 3.718 5.9737435487499146 #
coedge $-1 -1 $-1 $378 $378 $250 $379 reversed $499 $-1 #
edge $-1 -1 $-1 $500 0 $500 6.2831853071795862 $250 $501 forward @7 unknown #
model_id-kcp-attrib $-1 -1 $-1 $-1 $252 1 1021323671 1021323671 -1524170751 13 #
loop $-1 -1 $-1 $502 $503 $252 #
plane-surface $-1 -1 $-1 4.8860999999999999 3.468 6.0110999999999999 0 -1 0 0.70710678118654735 0 -0.70710678118654735 forward_v I I I I #
plane-surface $-1 -1 $-1 0.10206379279646605 0.375 0.10206379279646605 0.25881199569454294 0 0.96592771514467268 0.96592771514467268 0 -0.25881199569454294 forward_v I I I I #
coedge $-1 -1 $-1 $504 $505 $276 $406 forward $255 $-1 #
coedge $-1 -1 $-1 $506 $257 $505 $507 reversed $159 $-1 #
coedge $-1 -1 $-1 $257 $506 $258 $390 forward $159 $-1 #
coedge $-1 -1 $-1 $260 $276 $257 $388 reversed $171 $-1 #
edge $-1 -1 $-1 $391 -0.10825499999999977 $508 0.036084999999999923 $257 $509 forward @7 unknown #
coedge $-1 -1 $-1 $259 $258 $510 $511 reversed $99 $-1 #
edge $-1 -1 $-1 $512 0 $391 0.125 $386 $513 forward @7 unknown #
vertex $-1 -1 $-1 $390 $514 #
straight-curve $-1 -1 $-1 0.0025022714227319748 0.5 -0.13008136733975476 0.96592771514467268 0 -0.25881199569454294 I I #
coedge $-1 -1 $-1 $510 $266 $262 $394 forward $399 $-1 #
edge $515 -1 $-1 $269 -0.10825271934035738 $395 0.03608545613654103 $262 $516 forward @7 unknown #
vertex $-1 -1 $-1 $394 $517 #
straight-curve $-1 -1 $-1 -0.10206379279646605 0.375 -0.10206379279646605 0 1 0 I I #
point $-1 -1 $-1 -0.10206379279646605 0.5 -0.10206379279646605 #
coedge $-1 -1 $-1 $266 $518 $271 $404 forward $399 $-1 #
loop $-1 -1 $-1 $-1 $398 $409 #
convexity-sys-attrib $-1 -1 $-1 $-1 $267 #
straight-curve $-1 -1 $-1 -0.11390429584743478 0.375 0.062872399449201755 -0.70710678118654757 0 -0.70710678118654757 I I #
point $-1 -1 $-1 -0.13942024404655129 0.375 0.037356451250085243 #
coedge $-1 -1 $-1 $272 $271 $504 $519 forward $273 $-1 #
edge $520 -1 $-1 $521 -0.10825454387499024 $274 0.036083631601908174 $271 $522 forward @7 unknown #
point $-1 -1 $-1 -0.037356451250085243 0.375 0.13942024404655129 #
edge $-1 -1 $-1 $508 -0.10825271934035738 $407 0.03608545613654103 $384 $523 forward @7 unknown #
vertex $-1 -1 $-1 $519 $524 #
straight-curve $-1 -1 $-1 -0.0025022714227319748 0.5 0.13008136733975476 -0.96592771514467268 0 0.25881199569454294 I I #
face $-1 -1 $-1 $-1 $399 $24 $-1 $525 reversed single #
plane-surface $-1 -1 $-1 -1.7347234759768071e-018 0.5 0 0 1 0 0 0 1 forward_v I I I I #
plane-surface $-1 -1 $-1 0.1875 0 0 -1 0 0 0 0 1 forward_v I I I I #
coedge $-1 -1 $-1 $287 $285 $289 $416 reversed $176 $-1 #
edge $-1 -1 $-1 $300 -0.1875 $418 0.1875 $299 $526 forward @7 unknown #
vertex $-1 -1 $-1 $416 $527 #
straight-curve $-1 -1 $-1 -0.1875 -0.5 0 0 0 -1 I I #
edge $-1 -1 $-1 $414 -0.5 $418 0.5 $412 $528 forward @7 unknown #
straight-curve $-1 -1 $-1 0 -0.5 -0.1875 -1 0 0 I I #
vertex $-1 -1 $-1 $292 $529 #
straight-curve $-1 -1 $-1 0 0.5 -0.1875 1 0 0 I I #
point $-1 -1 $-1 0.1875 0.5 -0.1875 #
point $-1 -1 $-1 0.1875 -0.5 -0.1875 #
straight-curve $-1 -1 $-1 -0.1875 0 0.1875 0 -1 0 I I #
point $-1 -1 $-1 -0.1875 0.5 0.1875 #
point $-1 -1 $-1 -0.1875 -0.5 0.1875 #
straight-curve $-1 -1 $-1 0.1875 -0.5 0 0 0 -1 I I #
straight-curve $-1 -1 $-1 0.1875 0.5 0 0 0 -1 I I #
face $-1 -1 $-1 $530 $531 $27 $-1 $532 reversed single #
loop $-1 -1 $-1 $-1 $327 $309 #
plane-surface $-1 -1 $-1 0.1875 0 0 -1 0 0 0 0 1 forward_v I I I I #
coedge $-1 -1 $-1 $533 $312 $534 $535 reversed $195 $-1 #
coedge $-1 -1 $-1 $312 $533 $536 $537 reversed $195 $-1 #
coedge $-1 -1 $-1 $538 $539 $540 $315 forward $541 $-1 #
coedge $-1 -1 $-1 $542 $543 $313 $434 forward $544 $-1 #
edge $-1 -1 $-1 $328 -0.78539816339744828 $438 0.78539816339744828 $433 $324 forward @7 unknown #
coedge $-1 -1 $-1 $545 $546 $314 $436 forward $547 $-1 #
edge $-1 -1 $-1 $437 -0.78539816339744828 $209 0.78539816339744828 $435 $211 forward @7 unknown #
vertex $-1 -1 $-1 $548 $549 #
vertex $-1 -1 $-1 $550 $551 #
straight-curve $-1 -1 $-1 0 -0.5 -0.1875 0 -1 0 I I #
coedge $-1 -1 $-1 $552 $476 $316 $441 forward $553 $-1 #
edge $-1 -1 $-1 $210 2.3561944901923448 $446 3.9269908169872414 $440 $211 forward @7 unknown #
coedge $-1 -1 $-1 $554 $317 $320 $450 reversed $445 $-1 #
coedge $-1 -1 $-1 $317 $554 $552 $555 forward $445 $-1 #
coedge $-1 -1 $-1 $556 $557 $533 $318 reversed $531 $-1 #
loop $-1 -1 $-1 $-1 $317 $558 #
vertex $-1 -1 $-1 $559 $560 #
straight-curve $-1 -1 $-1 -0.1875 -0.5 0 0 -1 0 I I #
coedge $-1 -1 $-1 $332 $561 $319 $449 forward $310 $-1 #
edge $-1 -1 $-1 $562 -0.1875 $323 0 $319 $563 forward @7 unknown #
edge $-1 -1 $-1 $562 -0.1875 $322 0 $442 $564 forward @7 unknown #
face $-1 -1 $-1 $565 $321 $27 $-1 $566 reversed single #
edge $-1 -1 $-1 $322 0 $567 0.1875 $557 $564 forward @7 unknown #
point $-1 -1 $-1 -0.1875 -0.5 0 #
edge $-1 -1 $-1 $323 0 $568 0.1875 $457 $563 forward @7 unknown #
point $-1 -1 $-1 0 -0.5 0.1875 #
coedge $-1 -1 $-1 $457 $325 $569 $570 reversed $458 $-1 #
coedge $-1 -1 $-1 $325 $456 $330 $454 reversed $458 $-1 #
loop $-1 -1 $-1 $-1 $325 $565 #
coedge $-1 -1 $-1 $571 $327 $543 $462 forward $428 $-1 #
coedge $-1 -1 $-1 $327 $571 $545 $339 reversed $428 $-1 #
coedge $-1 -1 $-1 $336 $569 $118 $203 reversed $470 $-1 #
edge $-1 -1 $-1 $328 0 $572 0.1875 $459 $573 forward @7 unknown #
point $-1 -1 $-1 0.1875 -0.5 0 #
coedge $-1 -1 $-1 $331 $330 $469 $574 forward $333 $-1 #
coedge $-1 -1 $-1 $561 $332 $476 $341 forward $310 $-1 #
face $-1 -1 $-1 $575 $333 $27 $-1 $311 forward single #
vertex $-1 -1 $-1 $574 $576 #
straight-curve $-1 -1 $-1 0 0.5 0.1875 -1 0 0 I I #
coedge $-1 -1 $-1 $569 $336 $464 $574 reversed $470 $-1 #
loop $-1 -1 $-1 $-1 $461 $577 #
straight-curve $-1 -1 $-1 0.1875 0.5 0 0 0 -1 I I #
face $-1 -1 $-1 $578 $553 $27 $-1 $473 reversed single #
plane-surface $-1 -1 $-1 0 0.5 0 0 -1 0 0 0 -1 forward_v I I I I #
vertex $-1 -1 $-1 $579 $580 #
vertex $-1 -1 $-1 $341 $581 #
coedge $-1 -1 $-1 $440 $552 $465 $341 reversed $553 $-1 #
convexity-sys-attrib $-1 -1 $-1 $-1 $345 #
vertex $-1 -1 $-1 $345 $582 #
ellipse-curve $-1 -1 $-1 0 0.25 0 0 1 0 0.13258252147247765 0 -0.13258252147247765 1 I I #
point $-1 -1 $-1 -0.13258252147247762 -0.5 0.13258252147247768 #
point $-1 -1 $-1 0.088388347648318266 0.25 -0.088388347648318266 #
model_id-kcp-attrib $-1 -1 $-1 $-1 $353 1 1021323671 1021323671 -1524170751 9 #
face $583 -1 $-1 $584 $585 $9 $-1 $586 forward single #
loop $-1 -1 $-1 $587 $588 $353 #
cone-surface $-1 -1 $-1 4.8860999999999999 3.093 6.0110999999999999 0 -1 0 0.088388347648318419 0 -0.088388347648318419 1 I I 0 1 0.12499999999999999 forward I I I I #
edge $589 -1 $-1 $488 -0.14433817547689845 $362 0 $355 $590 forward @7 unknown #
coedge $-1 -1 $-1 $371 $356 $368 $495 reversed $224 $-1 #
vertex $-1 -1 $-1 $357 $591 #
straight-curve $-1 -1 $-1 4.9234564512500851 3.8180100000000001 5.8716797559534486 0 -0.99999999999999989 0 I I #
point $-1 -1 $-1 4.9234564512500851 3.718 5.8716797559534486 #
attrib_edge_convexity-kcp-attrib $-1 -1 $592 $-1 $361 2 #
straight-curve $-1 -1 $-1 4.7466797559534486 3.593 6.0484564512500851 -0.25881199569454294 0 0.96592771514467246 I I #
point $-1 -1 $-1 4.7840362072035338 3.593 5.9090362072035338 #
convexity-sys-attrib $-1 -1 $-1 $365 $234 #
edge $593 -1 $-1 $374 -0.14433999999999969 $488 0 $487 $594 forward @7 unknown #
straight-curve $-1 -1 $-1 5.0255202440465512 3.8180100000000001 5.9737435487499146 0 -0.99999999999999989 0 I I #
convexity-sys-attrib $-1 -1 $-1 $373 $243 #
point $-1 -1 $-1 5.0255202440465512 3.593 5.9737435487499146 #
loop $-1 -1 $-1 $595 $378 $584 #
vertex $-1 -1 $-1 $379 $596 #
ellipse-curve $-1 -1 $-1 4.8860999999999999 3.718 6.0110999999999999 0 1 0 0.13258252147247765 0 -0.13258252147247765 1 I I #
loop $-1 -1 $-1 $-1 $597 $252 #
coedge $-1 -1 $-1 $503 $503 $588 $598 forward $381 $-1 #
coedge $-1 -1 $-1 $599 $384 $403 $519 reversed $255 $-1 #
coedge $-1 -1 $-1 $384 $599 $385 $507 forward $255 $-1 #
coedge $-1 -1 $-1 $386 $385 $600 $601 reversed $159 $-1 #
edge $-1 -1 $-1 $602 0 $508 0.125 $505 $603 forward @7 unknown #
vertex $-1 -1 $-1 $507 $604 #
straight-curve $-1 -1 $-1 0.11390429584743478 0.5 -0.062872399449201755 0.70710678118654757 0 0.70710678118654757 I I #
coedge $-1 -1 $-1 $600 $393 $389 $511 forward $399 $-1 #
edge $605 -1 $-1 $395 -0.10825454387499024 $512 0.036083631601908174 $389 $606 forward @7 unknown #
vertex $-1 -1 $-1 $511 $607 #
straight-curve $-1 -1 $-1 0.037356451250085243 0.375 -0.13942024404655129 0 1 0 I I #
point $-1 -1 $-1 0.037356451250085243 0.5 -0.13942024404655129 #
convexity-sys-attrib $-1 -1 $-1 $-1 $394 #
straight-curve $-1 -1 $-1 -0.11140314171471213 0.375 -0.06720785060054367 0.25881199569454294 0 -0.96592771514467268 I I #
point $-1 -1 $-1 -0.10206379279646605 0.375 -0.10206379279646605 #
coedge $-1 -1 $-1 $398 $600 $599 $608 forward $399 $-1 #
edge $-1 -1 $-1 $521 0 $407 0.125 $403 $609 forward @7 unknown #
convexity-sys-attrib $-1 -1 $-1 $-1 $404 #
vertex $-1 -1 $-1 $404 $610 #
straight-curve $-1 -1 $-1 -0.0025022714227319748 0.375 0.13008136733975476 -0.96592771514467268 0 0.25881199569454294 I I #
straight-curve $-1 -1 $-1 0.11140314171471213 0.5 0.06720785060054367 -0.25881199569454294 0 0.96592771514467268 I I #
point $-1 -1 $-1 0.10206379279646605 0.5 0.10206379279646605 #
plane-surface $-1 -1 $-1 -1.7347234759768071e-018 0.375 0 0 1 0 0 0 1 forward_v I I I I #
straight-curve $-1 -1 $-1 -0.1875 0.5 0 0 0 -1 I I #
point $-1 -1 $-1 -0.1875 -0.5 -0.1875 #
straight-curve $-1 -1 $-1 -0.1875 0 -0.1875 0 1 0 I I #
point $-1 -1 $-1 -0.1875 0.5 -0.1875 #
face $-1 -1 $-1 $451 $611 $27 $-1 $566 reversed single #
loop $-1 -1 $-1 $-1 $444 $427 #
plane-surface $-1 -1 $-1 -0.1875 0 0 1 0 0 0 0 -1 forward_v I I I I #
coedge $-1 -1 $-1 $431 $430 $197 $318 forward $195 $-1 #
coedge $-1 -1 $-1 $612 $613 $430 $535 forward $614 $-1 #
edge $-1 -1 $-1 $446 -2.3561944901923448 $437 -0.78539816339744828 $534 $211 forward @7 unknown #
coedge $-1 -1 $-1 $615 $616 $431 $537 forward $611 $-1 #
edge $-1 -1 $-1 $438 0.78539816339744828 $322 2.3561944901923448 $536 $324 forward @7 unknown #
coedge $-1 -1 $-1 $617 $432 $616 $550 forward $541 $-1 #
coedge $-1 -1 $-1 $432 $617 $612 $618 forward $541 $-1 #
coedge $-1 -1 $-1 $619 $620 $196 $315 reversed $621 $-1 #
loop $-1 -1 $-1 $-1 $432 $575 #
coedge $-1 -1 $-1 $543 $433 $620 $622 reversed $544 $-1 #
coedge $-1 -1 $-1 $433 $542 $459 $462 reversed $544 $-1 #
loop $-1 -1 $-1 $-1 $433 $623 #
coedge $-1 -1 $-1 $546 $435 $460 $339 forward $547 $-1 #
coedge $-1 -1 $-1 $435 $545 $619 $548 reversed $547 $-1 #
loop $-1 -1 $-1 $-1 $435 $624 #
edge $-1 -1 $-1 $437 0 $474 0.1875 $546 $625 forward @7 unknown #
point $-1 -1 $-1 0 0.5 -0.1875 #
edge $-1 -1 $-1 $438 0 $567 0.1875 $616 $626 forward @7 unknown #
point $-1 -1 $-1 0 -0.5 -0.1875 #
coedge $-1 -1 $-1 $476 $440 $443 $555 reversed $553 $-1 #
loop $-1 -1 $-1 $-1 $440 $472 #
coedge $-1 -1 $-1 $443 $442 $561 $627 reversed $445 $-1 #
edge $-1 -1 $-1 $475 -0.1875 $446 0 $552 $628 forward @7 unknown #
coedge $-1 -1 $-1 $629 $444 $613 $559 forward $531 $-1 #
coedge $-1 -1 $-1 $444 $629 $615 $452 reversed $531 $-1 #
face $-1 -1 $-1 $577 $445 $27 $-1 $532 reversed single #
edge $-1 -1 $-1 $446 0 $630 0.1875 $613 $628 forward @7 unknown #
point $-1 -1 $-1 -0.1875 0.5 0 #
coedge $-1 -1 $-1 $448 $465 $554 $627 forward $310 $-1 #
vertex $-1 -1 $-1 $627 $631 #
straight-curve $-1 -1 $-1 0 -0.5 0.1875 1 0 0 I I #
straight-curve $-1 -1 $-1 -0.1875 -0.5 0 0 0 -1 I I #
face $-1 -1 $-1 $623 $458 $27 $-1 $566 reversed single #
plane-surface $-1 -1 $-1 0 -0.5 0 0 1 0 0 0 1 forward_v I I I I #
vertex $-1 -1 $-1 $632 $633 #
vertex $-1 -1 $-1 $574 $634 #
coedge $-1 -1 $-1 $461 $469 $456 $570 forward $470 $-1 #
edge $-1 -1 $-1 $568 -0.1875 $328 0 $569 $573 forward @7 unknown #
coedge $-1 -1 $-1 $460 $459 $635 $579 reversed $428 $-1 #
vertex $-1 -1 $-1 $462 $636 #
straight-curve $-1 -1 $-1 0.1875 -0.5 0 0 0 -1 I I #
edge $-1 -1 $-1 $568 -0.5 $467 0.5 $469 $637 forward @7 unknown #
face $-1 -1 $-1 $558 $541 $27 $-1 $638 reversed single #
point $-1 -1 $-1 0.1875 0.5 0.1875 #
face $-1 -1 $-1 $-1 $470 $27 $-1 $429 reversed single #
face $-1 -1 $-1 $639 $614 $27 $-1 $473 reversed single #
edge $-1 -1 $-1 $474 -0.5 $572 0.5 $571 $640 forward @7 unknown #
point $-1 -1 $-1 0.1875 0.5 -0.1875 #
point $-1 -1 $-1 -0.1875 0.5 0.1875 #
point $-1 -1 $-1 -0.13258252147247762 0.25 0.13258252147247768 #
model_id-kcp-attrib $-1 -1 $-1 $-1 $483 1 1021323671 1021323671 -1524170751 10 #
face $641 -1 $-1 $155 $499 $9 $-1 $642 forward single #
loop $-1 -1 $-1 $-1 $643 $483 #
plane-surface $-1 -1 $-1 4.8860999999999999 2.718 6.0110999999999999 0 -1 0 0.70710678118654735 0 -0.70710678118654735 forward_v I I I I #
loop $-1 -1 $-1 $-1 $644 $353 #
coedge $-1 -1 $-1 $588 $588 $503 $598 reversed $484 $-1 #
attrib_edge_convexity-kcp-attrib $-1 -1 $645 $-1 $486 2 #
straight-curve $-1 -1 $-1 4.7840362072035338 3.593 5.9090362072035338 -0.96592771514467246 0 0.25881199569454294 I I #
point $-1 -1 $-1 4.9234564512500851 3.593 5.8716797559534486 #
convexity-sys-attrib $-1 -1 $-1 $491 $361 #
attrib_edge_convexity-kcp-attrib $-1 -1 $646 $-1 $495 2 #
straight-curve $-1 -1 $-1 4.9234564512500851 3.593 5.8716797559534486 -0.70710678118654735 0 -0.70710678118654735 I I #
loop $-1 -1 $-1 $-1 $647 $584 #
point $-1 -1 $-1 5.0186825214724777 3.718 5.878517478527522 #
coedge $-1 -1 $-1 $597 $597 $647 $648 forward $502 $-1 #
edge $649 -1 $-1 $650 0 $650 6.2831853071795862 $503 $651 forward @7 unknown #
coedge $-1 -1 $-1 $505 $504 $518 $608 reversed $255 $-1 #
coedge $-1 -1 $-1 $518 $510 $506 $601 forward $399 $-1 #
edge $652 -1 $-1 $512 -0.10825499999999977 $602 0.036084999999999923 $506 $653 forward @7 unknown #
vertex $-1 -1 $-1 $601 $654 #
straight-curve $-1 -1 $-1 0.13942024404655129 0.375 -0.037356451250085243 0 1 0 I I #
point $-1 -1 $-1 0.13942024404655129 0.5 -0.037356451250085243 #
convexity-sys-attrib $-1 -1 $-1 $-1 $511 #
straight-curve $-1 -1 $-1 0.0025022714227319748 0.375 -0.13008136733975476 0.96592771514467268 0 -0.25881199569454294 I I #
point $-1 -1 $-1 0.037356451250085243 0.375 -0.13942024404655129 #
edge $655 -1 $-1 $602 -0.10825271934035738 $521 0.03608545613654103 $599 $656 forward @7 unknown #
straight-curve $-1 -1 $-1 0.10206379279646605 0.375 0.10206379279646605 0 1 0 I I #
point $-1 -1 $-1 0.10206379279646605 0.375 0.10206379279646605 #
loop $-1 -1 $-1 $-1 $536 $530 #
coedge $-1 -1 $-1 $613 $534 $539 $618 reversed $614 $-1 #
coedge $-1 -1 $-1 $534 $612 $556 $559 reversed $614 $-1 #
loop $-1 -1 $-1 $-1 $534 $578 #
coedge $-1 -1 $-1 $616 $536 $557 $452 forward $611 $-1 #
coedge $-1 -1 $-1 $536 $615 $538 $550 reversed $611 $-1 #
coedge $-1 -1 $-1 $539 $538 $629 $632 forward $541 $-1 #
edge $-1 -1 $-1 $630 -0.1875 $437 0 $612 $625 forward @7 unknown #
coedge $-1 -1 $-1 $635 $540 $546 $548 forward $621 $-1 #
coedge $-1 -1 $-1 $540 $635 $542 $622 forward $621 $-1 #
loop $-1 -1 $-1 $-1 $540 $639 #
edge $-1 -1 $-1 $572 -0.1875 $438 0 $542 $626 forward @7 unknown #
face $-1 -1 $-1 $624 $544 $27 $-1 $566 reversed single #
face $-1 -1 $-1 $338 $547 $27 $-1 $473 reversed single #
straight-curve $-1 -1 $-1 0 0.5 -0.1875 1 0 0 I I #
straight-curve $-1 -1 $-1 0 -0.5 -0.1875 -1 0 0 I I #
edge $-1 -1 $-1 $475 -0.5 $562 0.5 $554 $657 forward @7 unknown #
straight-curve $-1 -1 $-1 -0.1875 0.5 0 0 0 -1 I I #
coedge $-1 -1 $-1 $557 $556 $617 $632 reversed $531 $-1 #
vertex $-1 -1 $-1 $618 $658 #
point $-1 -1 $-1 -0.1875 -0.5 0.1875 #
edge $-1 -1 $-1 $567 -0.5 $630 0.5 $629 $659 forward @7 unknown #
point $-1 -1 $-1 -0.1875 -0.5 -0.1875 #
point $-1 -1 $-1 0.1875 -0.5 0.1875 #
coedge $-1 -1 $-1 $620 $619 $571 $579 forward $621 $-1 #
point $-1 -1 $-1 0.1875 -0.5 -0.1875 #
straight-curve $-1 -1 $-1 0.1875 0 0.1875 0 1 0 I I #
plane-surface $-1 -1 $-1 0 0 -0.1875 0 0 1 1 0 0 forward_v I I I I #
face $-1 -1 $-1 $466 $621 $27 $-1 $638 reversed single #
straight-curve $-1 -1 $-1 0.1875 0 -0.1875 0 -1 0 I I #
model_id-kcp-attrib $-1 -1 $-1 $-1 $584 1 1021323671 1021323671 -1524170751 11 #
cone-surface $-1 -1 $-1 4.8860999999999999 3.593 6.0110999999999999 0 -1 0 0.13258252147247765 0 -0.13258252147247765 1 I I 0 1 0.1875 forward I I I I #
coedge $-1 -1 $-1 $643 $643 $644 $660 forward $585 $-1 #
coedge $-1 -1 $-1 $644 $644 $643 $660 reversed $587 $-1 #
convexity-sys-attrib $-1 -1 $-1 $589 $486 #
convexity-sys-attrib $-1 -1 $-1 $593 $495 #
coedge $-1 -1 $-1 $647 $647 $597 $648 reversed $595 $-1 #
edge $661 -1 $-1 $662 0 $662 6.2831853071795862 $597 $663 forward @7 unknown #
attrib_edge_convexity-kcp-attrib $-1 -1 $664 $-1 $598 2 #
vertex $-1 -1 $-1 $598 $665 #
ellipse-curve $-1 -1 $-1 4.8860999999999999 3.468 6.0110999999999999 0 1 0 0.088388347648318419 0 -0.088388347648318419 1 I I #
convexity-sys-attrib $-1 -1 $-1 $-1 $601 #
straight-curve $-1 -1 $-1 0.11390429584743478 0.375 -0.062872399449201755 0.70710678118654757 0 0.70710678118654757 I I #
point $-1 -1 $-1 0.13942024404655129 0.375 -0.037356451250085243 #
convexity-sys-attrib $-1 -1 $-1 $-1 $608 #
straight-curve $-1 -1 $-1 0.11140314171471213 0.375 0.06720785060054367 -0.25881199569454294 0 0.96592771514467268 I I #
straight-curve $-1 -1 $-1 -0.1875 0 0.1875 0 -1 0 I I #
point $-1 -1 $-1 -0.1875 0.5 -0.1875 #
straight-curve $-1 -1 $-1 -0.1875 0 -0.1875 0 1 0 I I #
edge $666 -1 $-1 $667 0 $667 6.2831853071795862 $643 $668 forward @7 unknown #
attrib_edge_convexity-kcp-attrib $-1 -1 $669 $-1 $648 1 #
vertex $-1 -1 $-1 $648 $670 #
ellipse-curve $-1 -1 $-1 4.8860999999999999 3.468 6.0110999999999999 0 -1 0 0.13258252147247765 0 -0.13258252147247765 1 I I #
convexity-sys-attrib $-1 -1 $-1 $649 $598 #
point $-1 -1 $-1 4.9744883476483182 3.468 5.9227116523516816 #
attrib_edge_convexity-kcp-attrib $-1 -1 $671 $-1 $660 1 #
vertex $-1 -1 $-1 $660 $672 #
ellipse-curve $-1 -1 $-1 4.8860999999999999 2.718 6.0110999999999999 0 -1 0 0.088388347648318419 0 -0.088388347648318419 1 I I #
convexity-sys-attrib $-1 -1 $-1 $661 $648 #
point $-1 -1 $-1 5.0186825214724777 3.468 5.878517478527522 #
convexity-sys-attrib $-1 -1 $-1 $666 $660 #
point $-1 -1 $-1 4.9744883476483182 2.718 5.9227116523516816 #
End-of-ACIS-data 