106 0 1 0           
body $-1 $1 $-1 $2 #
lump $-1 $-1 $3 $0 #
transform $-1 0 1 0 -1 0 0 0 0 1 0.0005 0.0010 9.3750 0.99999999999999956 1 0 0 #
shell $-1 $-1 $-1 $4 $1 #
face $-1 $5 $6 $3 $-1 $7 reversed single #
face $-1 $8 $9 $3 $-1 $10 reversed single #
loop $-1 $-1 $11 $4 #
plane-surface $-1 2.289600000000001 -0.81270000000000042 0.38551000000000019 0 -1 0 0 0 -1 0 I I I I #
face $-1 $12 $13 $3 $-1 $14 reversed single #
loop $-1 $-1 $15 $5 #
plane-surface $-1 2.289600000000001 -0.7424000000000005 0.38551000000000019 -1 0 0 0 0 1 0 I I I I #
coedge $-1 $16 $17 $18 $19 1 $6 $-1 #
face $-1 $20 $21 $3 $-1 $22 reversed single #
loop $-1 $-1 $23 $8 #
plane-surface $-1 2.2193000000000009 -0.7424000000000005 0.38551000000000019 0 -1 0 0 0 -1 0 I I I I #
coedge $-1 $24 $25 $26 $27 1 $9 $-1 #
coedge $-1 $28 $11 $29 $30 0 $6 $-1 #
coedge $-1 $11 $28 $24 $31 1 $6 $-1 #
coedge $-1 $26 $32 $11 $19 0 $33 $-1 #
edge $-1 $34 $35 $18 $36 0 #
face $-1 $37 $38 $3 $-1 $39 reversed single #
loop $-1 $-1 $40 $12 #
plane-surface $-1 2.2193000000000009 -0.69560000000000044 0.38551000000000019 -1 0 0 0 0 1 0 I I I I #
coedge $-1 $41 $42 $43 $44 1 $13 $-1 #
coedge $-1 $45 $15 $17 $31 0 $9 $-1 #
coedge $-1 $15 $45 $41 $46 1 $9 $-1 #
coedge $-1 $43 $18 $15 $27 0 $33 $-1 #
edge $-1 $35 $47 $26 $48 0 #
coedge $-1 $17 $16 $49 $50 1 $6 $-1 #
coedge $-1 $51 $52 $16 $30 1 $53 $-1 #
edge $-1 $34 $54 $29 $55 0 #
edge $-1 $35 $56 $17 $57 0 #
coedge $-1 $18 $58 $51 $59 0 $33 $-1 #
loop $-1 $60 $61 $62 #
vertex $-1 $19 $63 #
vertex $-1 $27 $64 #
straight-curve $-1 2.3013000000000003 -0.81270000000000042 0.37550000000000006 -1 0 0 I I #
face $-1 $65 $66 $3 $-1 $67 reversed single #
loop $-1 $-1 $68 $20 #
plane-surface $-1 2.289600000000001 -0.69560000000000044 0.38551000000000019 0 1 0 0 0 1 0 I I I I #
coedge $-1 $69 $70 $71 $72 1 $21 $-1 #
coedge $-1 $73 $23 $25 $46 0 $13 $-1 #
coedge $-1 $23 $73 $69 $74 1 $13 $-1 #
coedge $-1 $71 $26 $23 $44 0 $33 $-1 #
edge $-1 $47 $75 $43 $76 0 #
coedge $-1 $25 $24 $77 $78 1 $9 $-1 #
edge $-1 $47 $79 $25 $80 0 #
vertex $-1 $44 $81 #
straight-curve $-1 2.289600000000001 -0.73070000000000024 0.37550000000000006 0 1 0 I I #
coedge $-1 $82 $77 $28 $50 0 $83 $-1 #
edge $-1 $56 $54 $28 $84 0 #
coedge $-1 $85 $29 $32 $59 1 $53 $-1 #
coedge $-1 $29 $85 $82 $86 1 $53 $-1 #
loop $-1 $-1 $51 $87 #
vertex $-1 $30 $88 #
straight-curve $-1 2.3364000000000011 -0.81270000000000042 0.38551000000000019 0 0 -1 I I #
vertex $-1 $31 $89 #
straight-curve $-1 2.289600000000001 -0.81270000000000042 0.38551000000000019 0 0 -1 I I #
coedge $-1 $32 $90 $91 $92 0 $33 $-1 #
edge $-1 $93 $34 $32 $94 0 #
loop $-1 $-1 $95 $62 #
coedge $-1 $96 $97 $98 $99 0 $33 $-1 #
face $-1 $100 $33 $3 $-1 $101 forward single #
point $-1 2.3364000000000011 -0.81270000000000042 0.37550000000000006 #
point $-1 2.289600000000001 -0.81270000000000042 0.37550000000000006 #
face $-1 $87 $102 $3 $-1 $103 reversed single #
loop $-1 $-1 $104 $37 #
plane-surface $-1 2.289600000000001 -0.62530000000000052 0.38551000000000019 -1 0 0 0 0 1 0 I I I I #
coedge $-1 $105 $106 $107 $108 1 $38 $-1 #
coedge $-1 $109 $40 $42 $74 0 $21 $-1 #
coedge $-1 $40 $109 $105 $110 1 $21 $-1 #
coedge $-1 $107 $43 $40 $72 0 $33 $-1 #
edge $-1 $75 $111 $71 $112 0 #
coedge $-1 $42 $41 $113 $114 1 $13 $-1 #
edge $-1 $75 $115 $42 $116 0 #
vertex $-1 $72 $117 #
straight-curve $-1 2.2661500000000006 -0.7424000000000005 0.37550000000000006 -1 0 0 I I #
coedge $-1 $49 $113 $45 $78 0 $83 $-1 #
edge $-1 $79 $56 $45 $118 0 #
vertex $-1 $46 $119 #
straight-curve $-1 2.289600000000001 -0.7424000000000005 0.38551000000000019 0 0 -1 I I #
point $-1 2.289600000000001 -0.7424000000000005 0.37550000000000006 #
coedge $-1 $120 $49 $52 $86 0 $83 $-1 #
loop $-1 $-1 $121 $122 #
straight-curve $-1 2.3364000000000011 -0.81270000000000042 0.3455000000000002 0.99999999999999967 0 0 I I #
coedge $-1 $52 $51 $123 $124 0 $53 $-1 #
edge $-1 $54 $125 $52 $126 0 #
face $-1 $127 $53 $3 $-1 $128 reversed single #
point $-1 2.3364000000000011 -0.81270000000000042 0.3455000000000002 #
point $-1 2.289600000000001 -0.81270000000000042 0.3455000000000002 #
coedge $-1 $58 $129 $130 $131 0 $33 $-1 #
coedge $-1 $132 $123 $58 $92 1 $133 $-1 #
edge $-1 $134 $93 $58 $135 0 #
vertex $-1 $59 $136 #
straight-curve $-1 2.3364000000000011 -0.76585000000000014 0.37550000000000006 0 -1 0 I I #
coedge $-1 $95 $95 $137 $138 1 $60 $-1 #
coedge $-1 $129 $61 $139 $140 0 $33 $-1 #
coedge $-1 $61 $107 $104 $141 0 $33 $-1 #
coedge $-1 $142 $143 $61 $99 1 $102 $-1 #
edge $-1 $144 $145 $61 $146 0 #
face $-1 $147 $148 $3 $-1 $149 forward single #
plane-surface $-1 2.3129999999999997 -0.71899999999999997 0.37550000000000006 0 0 1 0 -0.99999999999999967 0 0 I I I I #
loop $-1 $-1 $98 $65 #
plane-surface $-1 2.3364000000000011 -0.62530000000000052 0.38551000000000019 0 1 0 0 0 1 0 I I I I #
coedge $-1 $150 $151 $97 $141 1 $66 $-1 #
coedge $-1 $152 $68 $70 $110 0 $38 $-1 #
coedge $-1 $68 $152 $150 $153 1 $38 $-1 #
coedge $-1 $97 $71 $68 $108 0 $33 $-1 #
edge $-1 $111 $154 $107 $155 0 #
coedge $-1 $70 $69 $156 $157 1 $21 $-1 #
edge $-1 $111 $158 $70 $159 0 #
vertex $-1 $108 $160 #
straight-curve $-1 2.2193000000000014 -0.70730000000000026 0.37550000000000006 0 1 0 I I #
coedge $-1 $77 $156 $73 $114 0 $83 $-1 #
edge $-1 $115 $79 $73 $161 0 #
vertex $-1 $74 $162 #
straight-curve $-1 2.2193000000000009 -0.7424000000000005 0.38551000000000019 0 0 -1 I I #
point $-1 2.2193000000000009 -0.7424000000000005 0.37550000000000006 #
straight-curve $-1 2.289600000000001 -0.81270000000000042 0.3455000000000002 0 -0.99999999999999967 0 I I #
point $-1 2.289600000000001 -0.7424000000000005 0.3455000000000002 #
coedge $-1 $163 $82 $164 $165 0 $83 $-1 #
coedge $-1 $166 $167 $168 $169 0 $83 $-1 #
face $-1 $170 $83 $3 $-1 $171 reversed single #
coedge $-1 $91 $164 $85 $124 1 $133 $-1 #
edge $-1 $93 $125 $123 $172 0 #
vertex $-1 $124 $173 #
straight-curve $-1 2.3364000000000011 -0.7424000000000005 0.3455000000000002 0 0.99999999999999967 0 I I #
face $-1 $174 $133 $3 $-1 $175 reversed single #
plane-surface $-1 2.3364000000000011 -0.81270000000000042 0.38551000000000019 1 0 0 0 0 -1 0 I I I I #
coedge $-1 $90 $96 $176 $177 0 $33 $-1 #
coedge $-1 $178 $179 $90 $131 1 $180 $-1 #
edge $-1 $181 $134 $90 $182 0 #
coedge $-1 $164 $91 $179 $183 0 $133 $-1 #
loop $-1 $-1 $91 $127 #
vertex $-1 $92 $184 #
straight-curve $-1 2.3247000000000004 -0.7424000000000005 0.37550000000000006 -1 0 0 I I #
point $-1 2.3364000000000011 -0.7424000000000005 0.37550000000000006 #
coedge $-1 $137 $137 $95 $138 0 $148 $-1 #
edge $-1 $185 $185 $95 $186 1 #
coedge $-1 $187 $188 $96 $140 1 $189 $-1 #
edge $-1 $145 $190 $96 $191 0 #
edge $-1 $154 $144 $97 $192 0 #
coedge $-1 $168 $98 $151 $193 0 $102 $-1 #
coedge $-1 $98 $168 $187 $194 1 $102 $-1 #
vertex $-1 $99 $195 #
vertex $-1 $99 $196 #
straight-curve $-1 2.3247000000000004 -0.62530000000000052 0.37550000000000006 1 0 0 I I #
face $-1 $-1 $197 $3 $-1 $198 forward single #
loop $-1 $199 $137 $100 #
cone-surface $-1 2.3129999999999997 -0.71899999999999997 0.28175000000000006 0 0 -1 0 0.12499999999999996 0 1 I I 0 1 0 I I I I #
coedge $-1 $200 $104 $106 $153 0 $66 $-1 #
coedge $-1 $104 $200 $142 $193 1 $66 $-1 #
coedge $-1 $106 $105 $201 $202 1 $38 $-1 #
edge $-1 $154 $203 $106 $204 0 #
vertex $-1 $141 $205 #
straight-curve $-1 2.3013000000000003 -0.69560000000000044 0.37550000000000006 1 0 0 I I #
coedge $-1 $113 $201 $109 $157 0 $83 $-1 #
edge $-1 $158 $115 $109 $206 0 #
vertex $-1 $110 $207 #
straight-curve $-1 2.2193000000000009 -0.69560000000000044 0.38551000000000019 0 0 -1 I I #
point $-1 2.2193000000000009 -0.69560000000000044 0.37550000000000006 #
straight-curve $-1 2.289600000000001 -0.7424000000000005 0.3455000000000002 0.99999999999999967 0 0 I I #
point $-1 2.2193000000000009 -0.7424000000000005 0.3455000000000002 #
coedge $-1 $208 $120 $209 $210 0 $83 $-1 #
coedge $-1 $123 $132 $120 $165 1 $133 $-1 #
edge $-1 $125 $211 $164 $212 0 #
coedge $-1 $201 $121 $200 $213 0 $83 $-1 #
coedge $-1 $121 $208 $214 $215 0 $83 $-1 #
coedge $-1 $143 $142 $121 $169 1 $102 $-1 #
edge $-1 $216 $217 $168 $218 0 #
face $-1 $219 $220 $3 $-1 $221 forward single #
plane-surface $-1 2.3364000000000011 -0.62530000000000052 0.3455000000000002 0 0 -1 -1 0 0 0 I I I I #
straight-curve $-1 2.3364000000000011 -0.7424000000000005 0.38551000000000019 0 0 -1 I I #
point $-1 2.3364000000000011 -0.7424000000000005 0.3455000000000002 #
face $-1 $222 $180 $3 $-1 $223 reversed single #
plane-surface $-1 2.3364000000000011 -0.7424000000000005 0.38551000000000019 0 -1 0 0 0 -1 0 I I I I #
coedge $-1 $224 $225 $129 $177 1 $226 $-1 #
edge $-1 $190 $181 $129 $227 0 #
coedge $-1 $209 $130 $225 $228 0 $180 $-1 #
coedge $-1 $130 $209 $132 $183 1 $180 $-1 #
loop $-1 $-1 $130 $174 #
vertex $-1 $131 $229 #
straight-curve $-1 2.4067000000000007 -0.73070000000000024 0.37550000000000006 0 -1 0 I I #
edge $-1 $134 $211 $179 $230 0 #
point $-1 2.4067000000000007 -0.7424000000000005 0.37550000000000006 #
vertex $-1 $138 $231 #
ellipse-curve $-1 2.3129999999999997 -0.71899999999999997 0.37550000000000006 0 0 1 0 0.12499999999999996 0 1 I I #
coedge $-1 $214 $139 $143 $194 0 $189 $-1 #
coedge $-1 $139 $214 $224 $232 1 $189 $-1 #
loop $-1 $-1 $139 $233 #
vertex $-1 $177 $234 #
straight-curve $-1 2.3364000000000011 -0.70730000000000026 0.37550000000000006 0 -1 0 I I #
straight-curve $-1 2.289600000000001 -0.67215000000000025 0.37550000000000006 0 1 0 I I #
edge $-1 $144 $217 $151 $235 0 #
edge $-1 $145 $216 $143 $236 0 #
point $-1 2.289600000000001 -0.62530000000000052 0.37550000000000006 #
point $-1 2.3364000000000011 -0.62530000000000052 0.37550000000000006 #
loop $-1 $237 $238 $147 #
plane-surface $-1 2.3129999999999997 -0.71899999999999997 0.18800000000000008 0 0 -1 0 0.99999999999999967 0 0 I I I I #
loop $-1 $-1 $239 $100 #
coedge $-1 $151 $150 $166 $213 1 $66 $-1 #
coedge $-1 $156 $166 $152 $202 0 $83 $-1 #
edge $-1 $203 $158 $152 $240 0 #
vertex $-1 $153 $241 #
straight-curve $-1 2.289600000000001 -0.69560000000000044 0.38551000000000019 0 0 -1 I I #
point $-1 2.289600000000001 -0.69560000000000044 0.37550000000000006 #
straight-curve $-1 2.2193000000000009 -0.7424000000000005 0.3455000000000002 0 -0.99999999999999967 0 I I #
point $-1 2.2193000000000009 -0.69560000000000044 0.3455000000000002 #
coedge $-1 $167 $163 $242 $243 0 $83 $-1 #
coedge $-1 $179 $178 $163 $210 1 $180 $-1 #
edge $-1 $211 $244 $209 $245 0 #
vertex $-1 $183 $246 #
straight-curve $-1 2.4067000000000007 -0.7424000000000005 0.3455000000000002 0.99999999999999967 0 0 I I #
edge $-1 $217 $203 $200 $247 0 #
coedge $-1 $188 $187 $167 $215 1 $189 $-1 #
edge $-1 $248 $216 $214 $249 0 #
vertex $-1 $194 $250 #
vertex $-1 $193 $251 #
straight-curve $-1 2.289600000000001 -0.62530000000000052 0.3455000000000002 -0.99999999999999967 0 0 I I #
face $-1 $62 $252 $3 $-1 $253 forward single #
loop $-1 $254 $255 $170 #
cone-surface $-1 2.3129999999999997 -0.71899999999999997 -0.061999999999999944 0 0 -1 0 0.082499999999999976 0 1 I I 0 1 0 I I I I #
face $-1 $233 $226 $3 $-1 $256 reversed single #
plane-surface $-1 2.4067000000000007 -0.7424000000000005 0.38551000000000019 1 0 0 0 0 -1 0 I I I I #
coedge $-1 $242 $176 $188 $232 0 $226 $-1 #
coedge $-1 $176 $242 $178 $228 1 $226 $-1 #
loop $-1 $-1 $176 $222 #
straight-curve $-1 2.3598500000000002 -0.69560000000000044 0.37550000000000006 1 0 0 I I #
edge $-1 $181 $244 $225 $257 0 #
point $-1 2.4067000000000007 -0.69560000000000044 0.37550000000000006 #
straight-curve $-1 2.4067000000000007 -0.7424000000000005 0.38551000000000019 0 0 -1 I I #
point $-1 2.2817499999999997 -0.59796927043101822 0.3755 #
edge $-1 $190 $248 $188 $258 0 #
face $-1 $122 $189 $3 $-1 $259 reversed single #
point $-1 2.3364000000000011 -0.69560000000000044 0.37550000000000006 #
straight-curve $-1 2.289600000000001 -0.62530000000000052 0.38551000000000019 0 0 -1 I I #
straight-curve $-1 2.3364000000000011 -0.62530000000000052 0.38551000000000019 0 0 -1 I I #
loop $-1 $-1 $260 $147 #
coedge $-1 $238 $238 $255 $261 0 $197 $-1 #
coedge $-1 $239 $239 $260 $262 1 $199 $-1 #
straight-curve $-1 2.2193000000000009 -0.69560000000000044 0.3455000000000002 -0.99999999999999967 0 0 I I #
point $-1 2.289600000000001 -0.69560000000000044 0.3455000000000002 #
coedge $-1 $225 $224 $208 $243 1 $226 $-1 #
edge $-1 $244 $248 $242 $263 0 #
vertex $-1 $228 $264 #
straight-curve $-1 2.4067000000000007 -0.69560000000000044 0.3455000000000002 0 0.99999999999999967 0 I I #
point $-1 2.4067000000000007 -0.7424000000000005 0.3455000000000002 #
straight-curve $-1 2.289600000000001 -0.69560000000000044 0.3455000000000002 0 -0.99999999999999967 0 I I #
vertex $-1 $232 $265 #
straight-curve $-1 2.3364000000000011 -0.62530000000000052 0.3455000000000002 0 0.99999999999999967 0 I I #
point $-1 2.3364000000000011 -0.62530000000000052 0.3455000000000002 #
point $-1 2.289600000000001 -0.62530000000000052 0.3455000000000002 #
loop $-1 $-1 $266 $219 #
plane-surface $-1 2.3129999999999997 -0.71899999999999997 -0.31199999999999989 0 0 -1 0 0.99999999999999967 0 0 I I I I #
loop $-1 $-1 $267 $170 #
coedge $-1 $255 $255 $238 $261 1 $220 $-1 #
plane-surface $-1 2.4067000000000007 -0.69560000000000044 0.38551000000000019 0 1 0 0 0 1 0 I I I I #
straight-curve $-1 2.4067000000000007 -0.69560000000000044 0.38551000000000019 0 0 -1 I I #
straight-curve $-1 2.3364000000000011 -0.69560000000000044 0.38551000000000019 0 0 -1 I I #
plane-surface $-1 2.3364000000000011 -0.69560000000000044 0.38551000000000019 1 0 0 0 0 -1 0 I I I I #
coedge $-1 $260 $260 $239 $262 0 $237 $-1 #
edge $-1 $268 $268 $238 $269 0 #
edge $-1 $270 $270 $260 $271 0 #
straight-curve $-1 2.3364000000000011 -0.69560000000000044 0.3455000000000002 -0.99999999999999967 0 0 I I #
point $-1 2.4067000000000007 -0.69560000000000044 0.3455000000000002 #
point $-1 2.3364000000000011 -0.69560000000000044 0.3455000000000002 #
coedge $-1 $266 $266 $267 $272 0 $252 $-1 #
coedge $-1 $267 $267 $266 $272 1 $254 $-1 #
vertex $-1 $261 $273 #
ellipse-curve $-1 2.3129999999999997 -0.71899999999999997 0.18800000000000008 0 0 1 0 0.082499999999999976 0 1 I I #
vertex $-1 $262 $274 #
ellipse-curve $-1 2.3129999999999997 -0.71899999999999997 0.18800000000000008 0 0 -1 0 0.12499999999999996 0 1 I I #
edge $-1 $275 $275 $266 $276 0 #
point $-1 2.3129999999999997 -0.63649999999999995 0.188 #
point $-1 2.3129999999999997 -0.59399999999999997 0.18800000000000008 #
vertex $-1 $272 $277 #
ellipse-curve $-1 2.3129999999999997 -0.71899999999999997 -0.31199999999999989 0 0 -1 0 0.082499999999999976 0 1 I I #
point $-1 2.3129999999999997 -0.63649999999999995 -0.31199999999999989 #
End-of-ACIS-data 