600 0 1 0           
123 GICL ACIS Healer - Source: /gicl/data5/repository/CMU/spectrometer/screw_main_link_to_rear_plate_back_right_inner.sat - 6 0 18 ACIS 6.0.3 Solaris 24 Sat Apr 13 00:30:12 2002 
1 9.999999999999999547e-07 1.000000000000000036e-10 
body $-1 $1 $-1 $-1 #
lump $-1 $-1 $2 $0 #
shell $-1 $-1 $-1 $3 $-1 $1 #
face $-1 $4 $5 $2 $-1 $6 reversed single #
face $-1 $7 $8 $2 $-1 $9 reversed single #
loop $-1 $-1 $10 $3 #
plane-surface $-1 -0.624799999999999911 -2.33539999999999992 9.760510000000000019 1 0 0 0 0 -0.9999999999999995559 forward_v I I I I #
face $-1 $11 $12 $2 $-1 $13 reversed single #
loop $-1 $-1 $14 $4 #
plane-surface $-1 -0.6950999999999998291 -2.33539999999999992 9.760510000000000019 0 -1 0 0 0 0.9999999999999995559 forward_v I I I I #
coedge $-1 $15 $16 $17 $18 reversed $5 $-1 #
face $-1 $19 $20 $2 $-1 $21 reversed single #
loop $-1 $-1 $22 $7 #
plane-surface $-1 -0.6950999999999998291 -2.40569999999999995 9.760510000000000019 1 0 0 0 0 -0.9999999999999995559 forward_v I I I I #
coedge $-1 $23 $24 $25 $26 reversed $8 $-1 #
coedge $-1 $27 $10 $28 $29 forward $5 $-1 #
coedge $-1 $10 $27 $23 $30 reversed $5 $-1 #
coedge $-1 $25 $31 $10 $18 forward $32 $-1 #
edge $-1 $33 -0.03510000000000081111 $34 0.01169999999999938277 $17 $35 forward 7 unknown #
face $-1 $36 $37 $2 $-1 $38 reversed single #
loop $-1 $-1 $39 $11 #
plane-surface $-1 -0.7418999999999998929 -2.40569999999999995 9.760510000000000019 0 -1 0 0 0 0.9999999999999995559 forward_v I I I I #
coedge $-1 $40 $41 $42 $43 reversed $12 $-1 #
coedge $-1 $44 $14 $16 $30 forward $8 $-1 #
coedge $-1 $14 $44 $40 $45 reversed $8 $-1 #
coedge $-1 $42 $17 $14 $26 forward $32 $-1 #
edge $-1 $34 -0.08200000000000022549 $46 -0.01170000000000027095 $25 $47 forward 7 unknown #
coedge $-1 $16 $15 $48 $49 reversed $5 $-1 #
coedge $-1 $50 $51 $15 $29 reversed $52 $-1 #
edge $-1 $33 0.01000999999999941346 $53 0.04001000000000056595 $28 $54 forward 7 unknown #
edge $-1 $34 0.01000999999999941346 $55 0.04001000000000056595 $16 $56 forward 7 unknown #
coedge $-1 $17 $57 $50 $58 forward $32 $-1 #
loop $-1 $59 $60 $61 #
vertex $-1 $18 $62 #
vertex $-1 $26 $63 #
straight-curve $-1 -0.624799999999999911 -2.323700000000000543 9.750500000000000611 0 -0.9999999999999995559 0 I I #
face $-1 $64 $65 $2 $-1 $66 reversed single #
loop $-1 $-1 $67 $19 #
plane-surface $-1 -0.7418999999999998929 -2.33539999999999992 9.760510000000000019 -1 0 0 0 0 0.9999999999999995559 forward_v I I I I #
coedge $-1 $68 $69 $70 $71 reversed $20 $-1 #
coedge $-1 $72 $22 $24 $45 forward $12 $-1 #
coedge $-1 $22 $72 $68 $73 reversed $12 $-1 #
coedge $-1 $70 $25 $22 $43 forward $32 $-1 #
edge $-1 $46 -0.02345000000000042537 $74 0.04684999999999963499 $42 $75 forward 7 unknown #
coedge $-1 $24 $23 $76 $77 reversed $8 $-1 #
edge $-1 $46 0.01000999999999941346 $78 0.04001000000000056595 $24 $79 forward 7 unknown #
vertex $-1 $43 $80 #
straight-curve $-1 -0.7068000000000000949 -2.33539999999999992 9.750500000000000611 -0.9999999999999995559 0 0 I I #
coedge $-1 $81 $76 $27 $49 forward $82 $-1 #
edge $-1 $55 -0.04680000000000020949 $53 0 $27 $83 forward 7 unknown #
coedge $-1 $84 $28 $31 $58 reversed $52 $-1 #
coedge $-1 $28 $84 $81 $85 reversed $52 $-1 #
loop $-1 $-1 $50 $86 #
vertex $-1 $29 $87 #
straight-curve $-1 -0.624799999999999911 -2.288599999999999746 9.760510000000000019 0 0 -0.9999999999999995559 I I #
vertex $-1 $30 $88 #
straight-curve $-1 -0.624799999999999911 -2.33539999999999992 9.760510000000000019 0 0 -0.9999999999999995559 I I #
coedge $-1 $31 $89 $90 $91 forward $32 $-1 #
edge $-1 $92 -0.02344999999999964821 $33 0.04685000000000030113 $31 $93 forward 7 unknown #
loop $-1 $-1 $94 $61 #
coedge $-1 $95 $96 $97 $98 forward $32 $-1 #
face $-1 $99 $32 $2 $-1 $100 forward single #
point $-1 -0.624799999999999911 -2.288599999999999746 9.750500000000000611 #
point $-1 -0.624799999999999911 -2.33539999999999992 9.750500000000000611 #
face $-1 $86 $101 $2 $-1 $102 reversed single #
loop $-1 $-1 $103 $36 #
plane-surface $-1 -0.812199999999999811 -2.33539999999999992 9.760510000000000019 0 -1 0 0 0 0.9999999999999995559 forward_v I I I I #
coedge $-1 $104 $105 $106 $107 reversed $37 $-1 #
coedge $-1 $108 $39 $41 $73 forward $20 $-1 #
coedge $-1 $39 $108 $104 $109 reversed $20 $-1 #
coedge $-1 $106 $42 $39 $71 forward $32 $-1 #
edge $-1 $74 -0.035100000000000256 $110 0.01169999999999982686 $70 $111 forward 7 unknown #
coedge $-1 $41 $40 $112 $113 reversed $12 $-1 #
edge $-1 $74 0.01000999999999941346 $114 0.04001000000000056595 $41 $115 forward 7 unknown #
vertex $-1 $71 $116 #
straight-curve $-1 -0.6950999999999998291 -2.358850000000000335 9.750500000000000611 0 -0.9999999999999995559 0 I I #
coedge $-1 $48 $112 $44 $77 forward $82 $-1 #
edge $-1 $78 -0.07029999999999997362 $55 0 $44 $117 forward 7 unknown #
vertex $-1 $45 $118 #
straight-curve $-1 -0.6950999999999998291 -2.33539999999999992 9.760510000000000019 0 0 -0.9999999999999995559 I I #
point $-1 -0.6950999999999998291 -2.33539999999999992 9.750500000000000611 #
coedge $-1 $119 $48 $51 $85 forward $82 $-1 #
loop $-1 $-1 $120 $121 #
straight-curve $-1 -0.624799999999999911 -2.288599999999999746 9.720499999999999474 0 0.9999999999999992228 0 I I #
coedge $-1 $51 $50 $122 $123 forward $52 $-1 #
edge $-1 $53 -0.07029999999999997362 $124 0 $51 $125 forward 7 unknown #
face $-1 $126 $52 $2 $-1 $127 reversed single #
point $-1 -0.624799999999999911 -2.288599999999999746 9.720499999999999474 #
point $-1 -0.624799999999999911 -2.33539999999999992 9.720499999999999474 #
coedge $-1 $57 $128 $129 $130 forward $32 $-1 #
coedge $-1 $131 $122 $57 $91 reversed $132 $-1 #
edge $-1 $133 -0.08200000000000033651 $92 -0.01170000000000071504 $57 $134 forward 7 unknown #
vertex $-1 $58 $135 #
straight-curve $-1 -0.6716500000000001913 -2.288599999999999746 9.750500000000000611 0.9999999999999995559 0 0 I I #
coedge $-1 $94 $94 $136 $137 reversed $59 $-1 #
coedge $-1 $128 $60 $138 $139 forward $32 $-1 #
coedge $-1 $60 $106 $103 $140 forward $32 $-1 #
coedge $-1 $141 $142 $60 $98 reversed $101 $-1 #
edge $-1 $143 -0.03509999999999947884 $144 0.01170000000000071504 $60 $145 forward 7 unknown #
face $-1 $146 $147 $2 $-1 $148 forward single #
plane-surface $-1 -0.7185000000000003606 -2.312000000000001165 9.750500000000000611 0 0 1 0.9999999999999992228 0 0 forward_v I I I I #
loop $-1 $-1 $97 $64 #
plane-surface $-1 -0.812199999999999811 -2.288599999999999746 9.760510000000000019 -1 0 0 0 0 0.9999999999999995559 forward_v I I I I #
coedge $-1 $149 $150 $96 $140 reversed $65 $-1 #
coedge $-1 $151 $67 $69 $109 forward $37 $-1 #
coedge $-1 $67 $151 $149 $152 reversed $37 $-1 #
coedge $-1 $96 $70 $67 $107 forward $32 $-1 #
edge $-1 $110 -0.08199999999999944833 $153 -0.01169999999999938277 $106 $154 forward 7 unknown #
coedge $-1 $69 $68 $155 $156 reversed $20 $-1 #
edge $-1 $110 0.01000999999999941346 $157 0.04001000000000056595 $69 $158 forward 7 unknown #
vertex $-1 $107 $159 #
straight-curve $-1 -0.7302000000000000712 -2.405699999999999505 9.750500000000000611 -0.9999999999999995559 0 0 I I #
coedge $-1 $76 $155 $72 $113 forward $82 $-1 #
edge $-1 $114 -0.07030000000000008464 $78 0 $72 $160 forward 7 unknown #
vertex $-1 $73 $161 #
straight-curve $-1 -0.6950999999999998291 -2.40569999999999995 9.760510000000000019 0 0 -0.9999999999999995559 I I #
point $-1 -0.6950999999999998291 -2.40569999999999995 9.750500000000000611 #
straight-curve $-1 -0.624799999999999911 -2.33539999999999992 9.720499999999999474 0.9999999999999992228 0 0 I I #
point $-1 -0.6950999999999998291 -2.33539999999999992 9.720499999999999474 #
coedge $-1 $162 $81 $163 $164 forward $82 $-1 #
coedge $-1 $165 $166 $167 $168 forward $82 $-1 #
face $-1 $169 $82 $2 $-1 $170 reversed single #
coedge $-1 $90 $163 $84 $123 reversed $132 $-1 #
edge $-1 $92 0.01000999999999941346 $124 0.04001000000000056595 $122 $171 forward 7 unknown #
vertex $-1 $123 $172 #
straight-curve $-1 -0.6950999999999998291 -2.288599999999999746 9.720499999999999474 -0.9999999999999992228 0 0 I I #
face $-1 $173 $132 $2 $-1 $174 reversed single #
plane-surface $-1 -0.624799999999999911 -2.288599999999999746 9.760510000000000019 0 1 0 0 0 -0.9999999999999995559 forward_v I I I I #
coedge $-1 $89 $95 $175 $176 forward $32 $-1 #
coedge $-1 $177 $178 $89 $130 reversed $179 $-1 #
edge $-1 $180 -0.03509999999999981191 $133 0.01170000000000027095 $89 $181 forward 7 unknown #
coedge $-1 $163 $90 $178 $182 forward $132 $-1 #
loop $-1 $-1 $90 $126 #
vertex $-1 $91 $183 #
straight-curve $-1 -0.6950999999999998291 -2.300300000000000455 9.750500000000000611 0 -0.9999999999999995559 0 I I #
point $-1 -0.6950999999999998291 -2.288599999999999746 9.750500000000000611 #
coedge $-1 $136 $136 $94 $137 forward $147 $-1 #
edge $-1 $184 -6.535865562321665045 $184 -0.2526802551420789245 $94 $185 reversed 7 unknown #
coedge $-1 $186 $187 $95 $139 reversed $188 $-1 #
edge $-1 $144 -0.0819999999999997814 $189 -0.01169999999999982686 $95 $190 forward 7 unknown #
edge $-1 $153 -0.02345000000000020332 $143 0.04684999999999974601 $96 $191 forward 7 unknown #
coedge $-1 $167 $97 $150 $192 forward $101 $-1 #
coedge $-1 $97 $167 $186 $193 reversed $101 $-1 #
vertex $-1 $98 $194 #
vertex $-1 $98 $195 #
straight-curve $-1 -0.812199999999999811 -2.300300000000000455 9.750500000000000611 0 0.9999999999999995559 0 I I #
face $-1 $-1 $196 $2 $-1 $197 forward single #
loop $-1 $198 $136 $99 #
cone-surface $-1 -0.7185000000000003606 -2.312000000000001165 9.656750000000000611 0 0 -1 -0.1249999999999999029 0 0 1 I I 0 1 0.1249999999999999029 forward I I I I #
coedge $-1 $199 $103 $105 $152 forward $65 $-1 #
coedge $-1 $103 $199 $141 $192 reversed $65 $-1 #
coedge $-1 $105 $104 $200 $201 reversed $37 $-1 #
edge $-1 $153 0.01000999999999941346 $202 0.04001000000000056595 $105 $203 forward 7 unknown #
vertex $-1 $140 $204 #
straight-curve $-1 -0.7418999999999998929 -2.323700000000000543 9.750500000000000611 0 0.9999999999999995559 0 I I #
coedge $-1 $112 $200 $108 $156 forward $82 $-1 #
edge $-1 $157 -0.04680000000000009847 $114 0 $108 $205 forward 7 unknown #
vertex $-1 $109 $206 #
straight-curve $-1 -0.7418999999999998929 -2.40569999999999995 9.760510000000000019 0 0 -0.9999999999999995559 I I #
point $-1 -0.7418999999999998929 -2.40569999999999995 9.750500000000000611 #
straight-curve $-1 -0.6950999999999998291 -2.33539999999999992 9.720499999999999474 0 0.9999999999999992228 0 I I #
point $-1 -0.6950999999999998291 -2.40569999999999995 9.720499999999999474 #
coedge $-1 $207 $119 $208 $209 forward $82 $-1 #
coedge $-1 $122 $131 $119 $164 reversed $132 $-1 #
edge $-1 $124 -0.07029999999999964055 $210 0 $163 $211 forward 7 unknown #
coedge $-1 $200 $120 $199 $212 forward $82 $-1 #
coedge $-1 $120 $207 $213 $214 forward $82 $-1 #
coedge $-1 $142 $141 $120 $168 reversed $101 $-1 #
edge $-1 $215 -0.04680000000000020949 $216 0 $167 $217 forward 7 unknown #
face $-1 $218 $219 $2 $-1 $220 forward single #
plane-surface $-1 -0.812199999999999811 -2.288599999999999746 9.720499999999999474 0 0 -1 0 -0.9999999999999995559 0 forward_v I I I I #
straight-curve $-1 -0.6950999999999998291 -2.288599999999999746 9.760510000000000019 0 0 -0.9999999999999995559 I I #
point $-1 -0.6950999999999998291 -2.288599999999999746 9.720499999999999474 #
face $-1 $221 $179 $2 $-1 $222 reversed single #
plane-surface $-1 -0.6950999999999998291 -2.288599999999999746 9.760510000000000019 1 0 0 0 0 -0.9999999999999995559 forward_v I I I I #
coedge $-1 $223 $224 $128 $176 reversed $225 $-1 #
edge $-1 $189 -0.0234499999999990931 $180 0.04685000000000052317 $128 $226 forward 7 unknown #
coedge $-1 $208 $129 $224 $227 forward $179 $-1 #
coedge $-1 $129 $208 $131 $182 reversed $179 $-1 #
loop $-1 $-1 $129 $173 #
vertex $-1 $130 $228 #
straight-curve $-1 -0.7068000000000000949 -2.218300000000000161 9.750500000000000611 0.9999999999999995559 0 0 I I #
edge $-1 $133 0.01000999999999941346 $210 0.04001000000000056595 $178 $229 forward 7 unknown #
point $-1 -0.6950999999999998291 -2.218300000000000161 9.750500000000000611 #
vertex $-1 $137 $230 #
ellipse-curve $-1 -0.7185000000000003606 -2.312000000000001165 9.750500000000000611 0 0 1 -0.1249999999999999029 0 0 1 I I #
coedge $-1 $213 $138 $142 $193 forward $188 $-1 #
coedge $-1 $138 $213 $223 $231 reversed $188 $-1 #
loop $-1 $-1 $138 $232 #
vertex $-1 $176 $233 #
straight-curve $-1 -0.7302000000000000712 -2.288599999999999746 9.750500000000000611 0.9999999999999995559 0 0 I I #
straight-curve $-1 -0.7653500000000000858 -2.33539999999999992 9.750500000000000611 -0.9999999999999995559 0 0 I I #
edge $-1 $143 0.01000999999999941346 $216 0.04001000000000056595 $150 $234 forward 7 unknown #
edge $-1 $144 0.01000999999999941346 $215 0.04001000000000056595 $142 $235 forward 7 unknown #
point $-1 -0.812199999999999811 -2.33539999999999992 9.750500000000000611 #
point $-1 -0.812199999999999811 -2.288599999999999746 9.750500000000000611 #
loop $-1 $236 $237 $146 #
plane-surface $-1 -0.7185000000000003606 -2.312000000000001165 9.563000000000000611 0 0 -1 -0.9999999999999992228 0 0 forward_v I I I I #
loop $-1 $-1 $238 $99 #
coedge $-1 $150 $149 $165 $212 reversed $65 $-1 #
coedge $-1 $155 $165 $151 $201 forward $82 $-1 #
edge $-1 $202 -0.07030000000000008464 $157 0 $151 $239 forward 7 unknown #
vertex $-1 $152 $240 #
straight-curve $-1 -0.7418999999999998929 -2.33539999999999992 9.760510000000000019 0 0 -0.9999999999999995559 I I #
point $-1 -0.7418999999999998929 -2.33539999999999992 9.750500000000000611 #
straight-curve $-1 -0.6950999999999998291 -2.40569999999999995 9.720499999999999474 0.9999999999999992228 0 0 I I #
point $-1 -0.7418999999999998929 -2.40569999999999995 9.720499999999999474 #
coedge $-1 $166 $162 $241 $242 forward $82 $-1 #
coedge $-1 $178 $177 $162 $209 reversed $179 $-1 #
edge $-1 $210 -0.04680000000000009847 $243 0 $208 $244 forward 7 unknown #
vertex $-1 $182 $245 #
straight-curve $-1 -0.6950999999999998291 -2.218300000000000161 9.720499999999999474 0 0.9999999999999992228 0 I I #
edge $-1 $216 -0.07029999999999997362 $202 0 $199 $246 forward 7 unknown #
coedge $-1 $187 $186 $166 $214 reversed $188 $-1 #
edge $-1 $247 -0.07029999999999997362 $215 0 $213 $248 forward 7 unknown #
vertex $-1 $193 $249 #
vertex $-1 $192 $250 #
straight-curve $-1 -0.812199999999999811 -2.33539999999999992 9.720499999999999474 0 -0.9999999999999992228 0 I I #
face $-1 $61 $251 $2 $-1 $252 forward single #
loop $-1 $253 $254 $169 #
cone-surface $-1 -0.7185000000000003606 -2.312000000000001165 9.313000000000000611 0 0 -1 -0.0824999999999999345 0 0 1 I I 0 1 0.0824999999999999345 forward I I I I #
face $-1 $232 $225 $2 $-1 $255 reversed single #
plane-surface $-1 -0.6950999999999998291 -2.218300000000000161 9.760510000000000019 0 1 0 0 0 -0.9999999999999995559 forward_v I I I I #
coedge $-1 $241 $175 $187 $231 forward $225 $-1 #
coedge $-1 $175 $241 $177 $227 reversed $225 $-1 #
loop $-1 $-1 $175 $221 #
straight-curve $-1 -0.7418999999999998929 -2.265150000000000663 9.750500000000000611 0 0.9999999999999995559 0 I I #
edge $-1 $180 0.01000999999999941346 $243 0.04001000000000056595 $224 $256 forward 7 unknown #
point $-1 -0.7418999999999998929 -2.218300000000000161 9.750500000000000611 #
straight-curve $-1 -0.6950999999999998291 -2.218300000000000161 9.760510000000000019 0 0 -0.9999999999999995559 I I #
point $-1 -0.8395307295689820037 -2.343250000000001165 9.750500000000000611 #
edge $-1 $189 0.01000999999999941346 $247 0.04001000000000056595 $187 $257 forward 7 unknown #
face $-1 $121 $188 $2 $-1 $258 reversed single #
point $-1 -0.7418999999999998929 -2.288599999999999746 9.750500000000000611 #
straight-curve $-1 -0.812199999999999811 -2.33539999999999992 9.760510000000000019 0 0 -0.9999999999999995559 I I #
straight-curve $-1 -0.812199999999999811 -2.288599999999999746 9.760510000000000019 0 0 -0.9999999999999995559 I I #
loop $-1 $-1 $259 $146 #
coedge $-1 $237 $237 $254 $260 forward $196 $-1 #
coedge $-1 $238 $238 $259 $261 reversed $198 $-1 #
straight-curve $-1 -0.7418999999999998929 -2.40569999999999995 9.720499999999999474 0 -0.9999999999999992228 0 I I #
point $-1 -0.7418999999999998929 -2.33539999999999992 9.720499999999999474 #
coedge $-1 $224 $223 $207 $242 reversed $225 $-1 #
edge $-1 $243 -0.07029999999999964055 $247 0 $241 $262 forward 7 unknown #
vertex $-1 $227 $263 #
straight-curve $-1 -0.7418999999999998929 -2.218300000000000161 9.720499999999999474 -0.9999999999999992228 0 0 I I #
point $-1 -0.6950999999999998291 -2.218300000000000161 9.720499999999999474 #
straight-curve $-1 -0.7418999999999998929 -2.33539999999999992 9.720499999999999474 0.9999999999999992228 0 0 I I #
vertex $-1 $231 $264 #
straight-curve $-1 -0.812199999999999811 -2.288599999999999746 9.720499999999999474 -0.9999999999999992228 0 0 I I #
point $-1 -0.812199999999999811 -2.288599999999999746 9.720499999999999474 #
point $-1 -0.812199999999999811 -2.33539999999999992 9.720499999999999474 #
loop $-1 $-1 $265 $218 #
plane-surface $-1 -0.7185000000000003606 -2.312000000000001165 9.063000000000000611 0 0 -1 -0.9999999999999992228 0 0 forward_v I I I I #
loop $-1 $-1 $266 $169 #
coedge $-1 $254 $254 $237 $260 reversed $219 $-1 #
plane-surface $-1 -0.7418999999999998929 -2.218300000000000161 9.760510000000000019 -1 0 0 0 0 0.9999999999999995559 forward_v I I I I #
straight-curve $-1 -0.7418999999999998929 -2.218300000000000161 9.760510000000000019 0 0 -0.9999999999999995559 I I #
straight-curve $-1 -0.7418999999999998929 -2.288599999999999746 9.760510000000000019 0 0 -0.9999999999999995559 I I #
plane-surface $-1 -0.7418999999999998929 -2.288599999999999746 9.760510000000000019 0 1 0 0 0 -0.9999999999999995559 forward_v I I I I #
coedge $-1 $259 $259 $238 $261 forward $236 $-1 #
edge $-1 $267 0 $267 6.283185307179586232 $237 $268 forward 7 unknown #
edge $-1 $269 0 $269 6.283185307179586232 $259 $270 forward 7 unknown #
straight-curve $-1 -0.7418999999999998929 -2.288599999999999746 9.720499999999999474 0 -0.9999999999999992228 0 I I #
point $-1 -0.7418999999999998929 -2.218300000000000161 9.720499999999999474 #
point $-1 -0.7418999999999998929 -2.288599999999999746 9.720499999999999474 #
coedge $-1 $265 $265 $266 $271 forward $251 $-1 #
coedge $-1 $266 $266 $265 $271 reversed $253 $-1 #
vertex $-1 $260 $272 #
ellipse-curve $-1 -0.7185000000000003606 -2.312000000000001165 9.563000000000000611 0 0 1 -0.0824999999999999345 0 0 1 I I #
vertex $-1 $261 $273 #
ellipse-curve $-1 -0.7185000000000003606 -2.312000000000001165 9.563000000000000611 0 0 -1 -0.1249999999999999029 0 0 1 I I #
edge $-1 $274 0 $274 6.283185307179586232 $265 $275 forward 7 unknown #
point $-1 -0.8010000000000003784 -2.312000000000001165 9.563000000000000611 #
point $-1 -0.8435000000000002496 -2.312000000000001165 9.563000000000000611 #
vertex $-1 $271 $276 #
ellipse-curve $-1 -0.7185000000000003606 -2.312000000000001165 9.063000000000000611 0 0 -1 -0.0824999999999999345 0 0 1 I I #
point $-1 -0.8010000000000003784 -2.312000000000001165 9.063000000000000611 #
End-of-ACIS-data 