106 0 1 0           
body $-1 $1 $-1 $2 #
lump $-1 $-1 $3 $0 #
transform $-1 1 0 0 0 0 1 0 -1 0 5.1732 -2.1250 5.7240 0.99999999999999989 0 0 0 #
shell $-1 $-1 $-1 $4 $1 #
face $-1 $5 $6 $3 $-1 $7 reversed single #
face $-1 $8 $9 $3 $-1 $10 reversed single #
loop $-1 $-1 $11 $4 #
plane-surface $-1 -0.07217000000000004 0.12499999999999999 0.78751000000000027 -0.8660217547228608 0.50000632030679104 0 0 0 1 0 I I I I #
face $-1 $12 $13 $3 $-1 $14 reversed single #
loop $-1 $-1 $15 $5 #
plane-surface $-1 0.072169999999999984 0.12499999999999999 0.78751000000000027 0 1 0 0 0 1 0 I I I I #
coedge $-1 $16 $17 $18 $19 1 $6 $-1 #
face $-1 $20 $21 $3 $-1 $22 reversed single #
loop $-1 $-1 $23 $8 #
plane-surface $-1 0.14434 -1.3877787807814457e-017 0.78751000000000027 0.8660217547228608 0.50000632030679104 0 0 0 -1 0 I I I I #
coedge $-1 $24 $25 $26 $27 1 $9 $-1 #
coedge $-1 $28 $11 $29 $30 0 $6 $-1 #
coedge $-1 $11 $28 $24 $31 1 $6 $-1 #
coedge $-1 $26 $32 $11 $19 0 $33 $-1 #
edge $-1 $34 $35 $18 $36 0 #
face $-1 $37 $38 $3 $-1 $39 reversed single #
loop $-1 $-1 $40 $12 #
plane-surface $-1 0.072169999999999984 -0.12500000000000003 0.78751000000000027 0.8660217547228608 -0.50000632030679104 0 0 0 -1 0 I I I I #
coedge $-1 $41 $42 $43 $44 1 $13 $-1 #
coedge $-1 $45 $15 $17 $31 0 $9 $-1 #
coedge $-1 $15 $45 $41 $46 1 $9 $-1 #
coedge $-1 $43 $18 $15 $27 0 $33 $-1 #
edge $-1 $35 $47 $26 $48 0 #
coedge $-1 $17 $16 $49 $50 1 $6 $-1 #
coedge $-1 $51 $52 $16 $30 1 $38 $-1 #
edge $-1 $34 $53 $29 $54 0 #
edge $-1 $35 $55 $17 $56 0 #
coedge $-1 $18 $57 $51 $58 0 $33 $-1 #
loop $-1 $59 $60 $61 #
vertex $-1 $19 $62 #
vertex $-1 $27 $63 #
straight-curve $-1 -0.090212043860576019 0.093750790043342164 0.68750000000000011 0.50000632030679104 0.8660217547228608 0 I I #
face $-1 $64 $65 $3 $-1 $66 reversed single #
loop $-1 $-1 $51 $20 #
plane-surface $-1 -0.14434000000000005 -1.3877787807814457e-017 0.78751000000000027 -0.8660217547228608 -0.50000632030679104 0 0 0 1 0 I I I I #
coedge $-1 $67 $68 $60 $69 1 $21 $-1 #
coedge $-1 $70 $23 $25 $46 0 $13 $-1 #
coedge $-1 $23 $70 $67 $71 1 $13 $-1 #
coedge $-1 $60 $26 $23 $44 0 $33 $-1 #
edge $-1 $47 $72 $43 $73 0 #
coedge $-1 $25 $24 $74 $75 1 $9 $-1 #
edge $-1 $47 $76 $25 $77 0 #
vertex $-1 $44 $78 #
straight-curve $-1 0.036084999999999992 0.12499999999999999 0.68750000000000011 1 0 0 I I #
coedge $-1 $79 $74 $28 $50 0 $80 $-1 #
edge $-1 $55 $53 $28 $81 0 #
coedge $-1 $82 $29 $32 $58 1 $38 $-1 #
coedge $-1 $29 $82 $79 $83 1 $38 $-1 #
vertex $-1 $30 $84 #
straight-curve $-1 -0.14434000000000005 -1.3877787807814457e-017 0.78751000000000027 0 0 -1 I I #
vertex $-1 $31 $85 #
straight-curve $-1 -0.07217000000000004 0.12499999999999999 0.78751000000000027 0 0 -1 I I #
coedge $-1 $32 $60 $86 $87 0 $33 $-1 #
edge $-1 $88 $34 $32 $89 0 #
loop $-1 $-1 $90 $61 #
coedge $-1 $57 $43 $40 $69 0 $33 $-1 #
face $-1 $91 $33 $3 $-1 $92 forward single #
point $-1 -0.14434000000000005 -1.3877787807814457e-017 0.68750000000000011 #
point $-1 -0.07217000000000004 0.12499999999999999 0.68750000000000011 #
face $-1 $93 $80 $3 $-1 $94 reversed single #
loop $-1 $-1 $86 $37 #
plane-surface $-1 -0.07217000000000004 -0.12500000000000003 0.78751000000000027 0 -1 0 0 0 -1 0 I I I I #
coedge $-1 $95 $40 $42 $71 0 $21 $-1 #
coedge $-1 $40 $95 $96 $97 1 $21 $-1 #
edge $-1 $72 $98 $60 $99 0 #
coedge $-1 $42 $41 $100 $101 1 $13 $-1 #
edge $-1 $72 $102 $42 $103 0 #
vertex $-1 $69 $104 #
straight-curve $-1 0.126297043860576 0.03125079004334215 0.68750000000000011 0.50000632030679104 -0.8660217547228608 0 I I #
coedge $-1 $49 $100 $45 $75 0 $80 $-1 #
edge $-1 $76 $55 $45 $105 0 #
vertex $-1 $46 $106 #
straight-curve $-1 0.072169999999999984 0.12499999999999999 0.78751000000000027 0 0 -1 I I #
point $-1 0.072169999999999984 0.12499999999999999 0.68750000000000011 #
coedge $-1 $107 $49 $52 $83 0 $80 $-1 #
loop $-1 $-1 $108 $64 #
straight-curve $-1 -0.07217000000000004 0.12499999999999999 0.59380000000000022 -0.50000632030679093 -0.86602175472286069 0 I I #
coedge $-1 $52 $51 $109 $110 0 $38 $-1 #
edge $-1 $53 $111 $52 $112 0 #
point $-1 -0.14434000000000005 -1.3877787807814457e-017 0.59380000000000022 #
point $-1 -0.07217000000000004 0.12499999999999999 0.59380000000000022 #
coedge $-1 $96 $109 $57 $87 1 $65 $-1 #
edge $-1 $98 $88 $57 $113 0 #
vertex $-1 $58 $114 #
straight-curve $-1 -0.12629704386057602 -0.031250790043342171 0.68750000000000011 -0.50000632030679104 0.8660217547228608 0 I I #
coedge $-1 $90 $90 $115 $116 0 $59 $-1 #
face $-1 $117 $118 $3 $-1 $119 forward single #
plane-surface $-1 0 0 0.68750000000000011 0 0 1 1 0 0 0 I I I I #
face $-1 $120 $121 $3 $-1 $122 forward single #
plane-surface $-1 0.072169999999999984 -0.12500000000000003 0.59380000000000022 0 0 -1 -1 0 0 0 I I I I #
coedge $-1 $68 $67 $108 $123 1 $21 $-1 #
coedge $-1 $124 $86 $68 $97 0 $65 $-1 #
edge $-1 $98 $125 $68 $126 0 #
vertex $-1 $69 $127 #
straight-curve $-1 0.090212043860575991 -0.093750790043342178 0.68750000000000011 -0.50000632030679104 -0.8660217547228608 0 I I #
coedge $-1 $74 $108 $70 $101 0 $80 $-1 #
edge $-1 $102 $76 $70 $128 0 #
vertex $-1 $71 $129 #
straight-curve $-1 0.14434 -1.3877787807814457e-017 0.78751000000000027 0 0 -1 I I #
point $-1 0.14434 -1.3877787807814457e-017 0.68750000000000011 #
straight-curve $-1 0.072169999999999984 0.12499999999999999 0.59380000000000022 -1 0 0 I I #
point $-1 0.072169999999999984 0.12499999999999999 0.59380000000000022 #
coedge $-1 $108 $79 $124 $130 0 $80 $-1 #
coedge $-1 $100 $107 $95 $123 0 $80 $-1 #
coedge $-1 $86 $124 $82 $110 1 $65 $-1 #
edge $-1 $88 $111 $109 $131 0 #
vertex $-1 $110 $132 #
straight-curve $-1 -0.14434000000000005 -1.3877787807814457e-017 0.59380000000000022 0.50000632030679093 -0.86602175472286069 0 I I #
straight-curve $-1 -0.03608500000000002 -0.12500000000000003 0.68750000000000011 -1 0 0 I I #
point $-1 -0.07217000000000004 -0.12500000000000003 0.68750000000000011 #
coedge $-1 $115 $115 $90 $116 1 $133 $-1 #
edge $-1 $134 $134 $90 $135 0 #
face $-1 $-1 $136 $3 $-1 $137 forward single #
loop $-1 $138 $139 $91 #
cone-surface $-1 0 0 1.1102230246251568e-016 0 0 1 0.095000000000000001 0 0 1 I I 0 1 0 I I I I #
face $-1 $61 $140 $3 $-1 $141 forward single #
loop $-1 $142 $143 $93 #
plane-surface $-1 0 0 0.50000000000000011 0 0 -1 -1 0 0 0 I I I I #
edge $-1 $125 $102 $95 $144 0 #
coedge $-1 $109 $96 $107 $130 1 $65 $-1 #
vertex $-1 $97 $145 #
straight-curve $-1 0.072169999999999984 -0.12500000000000003 0.78751000000000027 0 0 -1 I I #
point $-1 0.072169999999999984 -0.12500000000000003 0.68750000000000011 #
straight-curve $-1 0.14434 -1.3877787807814457e-017 0.59380000000000022 -0.50000632030679093 0.86602175472286069 0 I I #
point $-1 0.14434 -1.3877787807814457e-017 0.59380000000000022 #
edge $-1 $111 $125 $124 $146 0 #
straight-curve $-1 -0.07217000000000004 -0.12500000000000003 0.78751000000000027 0 0 -1 I I #
point $-1 -0.07217000000000004 -0.12500000000000003 0.59380000000000022 #
loop $-1 $-1 $115 $120 #
vertex $-1 $116 $147 #
ellipse-curve $-1 0 0 0.68750000000000011 0 0 1 0.18750000000000003 0 0 1 I I #
loop $-1 $-1 $148 $117 #
plane-surface $-1 0 0 -0.49999999999999989 0 0 -1 -1 0 0 0 I I I I #
loop $-1 $-1 $149 $91 #
coedge $-1 $139 $139 $148 $150 1 $118 $-1 #
loop $-1 $133 $151 $120 #
cone-surface $-1 0 0 0.59375000000000011 0 0 1 0.18750000000000003 0 0 1 I I 0 1 0 I I I I #
loop $-1 $-1 $152 $93 #
coedge $-1 $143 $143 $151 $153 0 $121 $-1 #
straight-curve $-1 0.072169999999999984 -0.12500000000000003 0.59380000000000022 0.50000632030679093 0.86602175472286069 0 I I #
point $-1 0.072169999999999984 -0.12500000000000003 0.59380000000000022 #
straight-curve $-1 -0.07217000000000004 -0.12500000000000003 0.59380000000000022 1 0 0 I I #
point $-1 0.18750000000000003 0 0.68750000000000011 #
coedge $-1 $148 $148 $139 $150 0 $136 $-1 #
coedge $-1 $149 $149 $152 $154 0 $138 $-1 #
edge $-1 $155 $155 $148 $156 0 #
coedge $-1 $151 $151 $143 $153 1 $140 $-1 #
coedge $-1 $152 $152 $149 $154 1 $142 $-1 #
edge $-1 $157 $157 $143 $158 0 #
edge $-1 $159 $159 $149 $160 1 #
vertex $-1 $150 $161 #
ellipse-curve $-1 0 0 -0.49999999999999989 0 0 -1 0.095000000000000001 0 0 1 I I #
vertex $-1 $153 $162 #
ellipse-curve $-1 0 0 0.50000000000000011 0 0 -1 0.18750000000000003 0 0 1 I I #
vertex $-1 $154 $163 #
ellipse-curve $-1 0 0 0.50000000000000011 0 0 1 0.095000000000000001 0 0 1 I I #
point $-1 0.095000000000000001 0 -0.49999999999999989 #
point $-1 0.18750000000000003 0 0.50000000000000011 #
point $-1 0.095000000000000001 0 0.50000000000000011 #
End-of-ACIS-data 