600 0 1 0           
108 GICL ACIS Healer - Source: /gicl/data5/repository/CMU/spectrometer/screw_link143_to_spacer66_right.sat - 6 0 18 ACIS 6.0.3 Solaris 24 Sat Apr 13 00:29:58 2002 
1 9.999999999999999547e-07 1.000000000000000036e-10 
body $-1 $1 $-1 $-1 #
lump $-1 $-1 $2 $0 #
shell $-1 $-1 $-1 $3 $-1 $1 #
face $-1 $4 $5 $2 $-1 $6 reversed single #
face $-1 $7 $8 $2 $-1 $9 reversed single #
loop $-1 $-1 $10 $3 #
plane-surface $-1 -3.677743548749914826 4.475010000000000154 5.274879755953448601 -0.2588119956945428846 0 -0.9659277151446725718 0.9659277151446724607 -0 -0.258811995694542829 forward_v I I I I #
face $-1 $11 $12 $2 $-1 $13 reversed single #
loop $-1 $-1 $14 $4 #
plane-surface $-1 -3.575679755953448336 4.475010000000000154 5.376943548749914648 0.7071067811865474617 0 -0.7071067811865474617 0.7071067811865473507 0 0.7071067811865473507 forward_v I I I I #
coedge $-1 $15 $16 $17 $18 reversed $5 $-1 #
face $-1 $19 $20 $2 $-1 $21 reversed single #
loop $-1 $-1 $22 $7 #
plane-surface $-1 -3.613036207203533579 4.475010000000000154 5.516363792796465937 0.9659277151446725718 -0 0.2588119956945428846 -0.258811995694542829 0 0.9659277151446724607 forward_v I I I I #
coedge $-1 $23 $24 $25 $26 reversed $8 $-1 #
coedge $-1 $27 $10 $28 $29 forward $5 $-1 #
coedge $-1 $10 $27 $23 $30 reversed $5 $-1 #
coedge $-1 $25 $31 $10 $18 forward $32 $-1 #
edge $-1 $33 -0.108254543874990769 $34 0.03608363160190809771 $17 $35 forward 7 unknown #
face $-1 $36 $37 $2 $-1 $38 reversed single #
loop $-1 $-1 $39 $11 #
plane-surface $-1 -3.752456451250085312 4.475010000000000154 5.55372024404655118 0.2588119956945428846 0 0.9659277151446725718 -0.9659277151446724607 0 0.258811995694542829 forward_v I I I I #
coedge $-1 $40 $41 $42 $43 reversed $12 $-1 #
coedge $-1 $44 $14 $16 $30 forward $8 $-1 #
coedge $-1 $14 $44 $40 $45 reversed $8 $-1 #
coedge $-1 $42 $17 $14 $26 forward $32 $-1 #
edge $-1 $34 -0.1082549999999994628 $46 0.03608500000000055413 $25 $47 forward 7 unknown #
coedge $-1 $16 $15 $48 $49 reversed $5 $-1 #
coedge $-1 $50 $51 $15 $29 reversed $37 $-1 #
edge $-1 $33 0.1000100000000001682 $52 0.2250100000000001821 $28 $53 forward 7 unknown #
edge $-1 $34 0.1000100000000001682 $54 0.2250100000000001821 $16 $55 forward 7 unknown #
coedge $-1 $17 $56 $50 $57 forward $32 $-1 #
loop $-1 $58 $59 $60 #
vertex $-1 $18 $61 #
vertex $-1 $26 $62 #
straight-curve $-1 -3.712597728577267997 4.375 5.284218632660245163 0.9659277151446724607 -0 -0.258811995694542829 I I #
face $-1 $63 $64 $2 $-1 $65 reversed single #
loop $-1 $-1 $50 $19 #
plane-surface $-1 -3.817163792796466559 4.475010000000000154 5.312236207203533844 -0.9659277151446725718 0 -0.2588119956945428846 0.258811995694542829 0 -0.9659277151446724607 forward_v I I I I #
coedge $-1 $66 $67 $59 $68 reversed $20 $-1 #
coedge $-1 $69 $22 $24 $45 forward $12 $-1 #
coedge $-1 $22 $69 $66 $70 reversed $12 $-1 #
coedge $-1 $59 $25 $22 $43 forward $32 $-1 #
edge $-1 $46 -0.108252719340357309 $71 0.03608545613654112055 $42 $72 forward 7 unknown #
coedge $-1 $24 $23 $73 $74 reversed $8 $-1 #
edge $-1 $46 0.1000100000000001682 $75 0.2250100000000001821 $24 $76 forward 7 unknown #
vertex $-1 $43 $77 #
straight-curve $-1 -3.601195704152565291 4.375 5.351427600550797692 0.7071067811865473507 0 0.7071067811865473507 I I #
coedge $-1 $78 $73 $27 $49 forward $79 $-1 #
edge $-1 $54 -0.1443381754768988667 $52 0 $27 $80 forward 7 unknown #
coedge $-1 $81 $28 $31 $57 reversed $37 $-1 #
coedge $-1 $28 $81 $78 $82 reversed $37 $-1 #
vertex $-1 $29 $83 #
straight-curve $-1 -3.817163792796466559 4.475010000000000154 5.312236207203533844 0 -0.999999999999999889 0 I I #
vertex $-1 $30 $84 #
straight-curve $-1 -3.677743548749914826 4.475010000000000154 5.274879755953448601 0 -0.999999999999999889 0 I I #
coedge $-1 $31 $59 $85 $86 forward $32 $-1 #
edge $-1 $87 -0.108252719340357309 $33 0.03608545613654112055 $31 $88 forward 7 unknown #
loop $-1 $-1 $89 $60 #
coedge $-1 $56 $42 $39 $68 forward $32 $-1 #
face $-1 $90 $32 $2 $-1 $91 forward single #
point $-1 -3.817163792796466559 4.375 5.312236207203533844 #
point $-1 -3.677743548749914826 4.375 5.274879755953448601 #
face $-1 $92 $79 $2 $-1 $93 forward single #
loop $-1 $-1 $85 $36 #
plane-surface $-1 -3.854520244046551802 4.475010000000000154 5.451656451250085134 -0.7071067811865474617 0 0.7071067811865474617 -0.7071067811865473507 0 -0.7071067811865473507 forward_v I I I I #
coedge $-1 $94 $39 $41 $70 forward $20 $-1 #
coedge $-1 $39 $94 $95 $96 reversed $20 $-1 #
edge $-1 $71 -0.108254543874990769 $97 0.03608363160190809771 $59 $98 forward 7 unknown #
coedge $-1 $41 $40 $99 $100 reversed $12 $-1 #
edge $-1 $71 0.1000100000000001682 $101 0.2250100000000001821 $41 $102 forward 7 unknown #
vertex $-1 $68 $103 #
straight-curve $-1 -3.603696858285287519 4.375 5.481507850600543463 -0.258811995694542829 0 0.9659277151446724607 I I #
coedge $-1 $48 $99 $44 $74 forward $79 $-1 #
edge $-1 $75 -0.1443399999999999961 $54 0 $44 $104 forward 7 unknown #
vertex $-1 $45 $105 #
straight-curve $-1 -3.575679755953448336 4.475010000000000154 5.376943548749914648 0 -0.999999999999999889 0 I I #
point $-1 -3.575679755953448336 4.375 5.376943548749914648 #
coedge $-1 $106 $48 $51 $82 forward $79 $-1 #
loop $-1 $-1 $107 $63 #
straight-curve $-1 -3.817163792796466559 4.25 5.312236207203533844 -0.9659277151446724607 0 0.2588119956945429401 I I #
coedge $-1 $51 $50 $108 $109 forward $37 $-1 #
edge $-1 $52 -0.1443381754768984504 $110 0 $51 $111 forward 7 unknown #
point $-1 -3.817163792796466559 4.25 5.312236207203533844 #
point $-1 -3.677743548749914826 4.25 5.274879755953448601 #
coedge $-1 $95 $108 $56 $86 reversed $64 $-1 #
edge $-1 $97 -0.1082549999999994628 $87 0.03608500000000055413 $56 $112 forward 7 unknown #
vertex $-1 $57 $113 #
straight-curve $-1 -3.826503141714712619 4.375 5.347092149399456318 0.258811995694542829 0 -0.9659277151446724607 I I #
coedge $-1 $89 $89 $114 $115 forward $58 $-1 #
face $-1 $-1 $116 $2 $-1 $117 forward single #
plane-surface $-1 -3.715100000000000069 4.375 5.414299999999999891 -0 1 0 0.7071067811865473507 0 -0.7071067811865473507 forward_v I I I I #
face $-1 $118 $119 $2 $-1 $120 forward single #
plane-surface $-1 -3.752456451250085312 4.25 5.55372024404655118 -0 1 0 0.7071067811865473507 0 -0.7071067811865473507 forward_v I I I I #
coedge $-1 $67 $66 $107 $121 reversed $20 $-1 #
coedge $-1 $122 $85 $67 $96 forward $64 $-1 #
edge $-1 $97 0.1000100000000001682 $123 0.2250100000000001821 $67 $124 forward 7 unknown #
vertex $-1 $68 $125 #
straight-curve $-1 -3.717602271422732141 4.375 5.544381367339754618 -0.9659277151446724607 0 0.258811995694542829 I I #
coedge $-1 $73 $107 $69 $100 forward $79 $-1 #
edge $-1 $101 -0.1443381754768984504 $75 0 $69 $126 forward 7 unknown #
vertex $-1 $70 $127 #
straight-curve $-1 -3.613036207203533579 4.475010000000000154 5.516363792796465937 0 -0.999999999999999889 0 I I #
point $-1 -3.613036207203533579 4.375 5.516363792796465937 #
straight-curve $-1 -3.677743548749914826 4.25 5.274879755953448601 -0.7071067811865473507 0 -0.7071067811865473507 I I #
point $-1 -3.575679755953448336 4.25 5.376943548749914648 #
coedge $-1 $107 $78 $122 $128 forward $79 $-1 #
coedge $-1 $99 $106 $94 $121 forward $79 $-1 #
coedge $-1 $85 $122 $81 $109 reversed $64 $-1 #
edge $-1 $87 0.1000100000000001682 $110 0.2250100000000001821 $108 $129 forward 7 unknown #
vertex $-1 $109 $130 #
straight-curve $-1 -3.854520244046551802 4.25 5.451656451250085134 -0.2588119956945429401 0 0.9659277151446724607 I I #
straight-curve $-1 -3.829004295847434847 4.375 5.477172399449202089 -0.7071067811865473507 0 -0.7071067811865473507 I I #
point $-1 -3.854520244046551802 4.375 5.451656451250085134 #
coedge $-1 $114 $114 $89 $115 reversed $131 $-1 #
edge $-1 $132 0 $132 6.283185307179586232 $89 $133 forward 7 unknown #
loop $-1 $134 $135 $90 #
plane-surface $-1 -3.715100000000000069 4.125 5.414299999999999891 0 -1 0 -0.7071067811865473507 0 0.7071067811865473507 forward_v I I I I #
face $-1 $136 $137 $2 $-1 $138 forward single #
loop $-1 $139 $140 $92 #
cone-surface $-1 -3.715100000000000069 3.75 5.414299999999999891 0 -1 0 -0.08838834764831841884 0 0.08838834764831841884 1 I I 0 1 0.1249999999999999861 forward I I I I #
edge $-1 $123 -0.1443381754768988667 $101 0 $94 $141 forward 7 unknown #
coedge $-1 $108 $95 $106 $128 reversed $64 $-1 #
vertex $-1 $96 $142 #
straight-curve $-1 -3.752456451250085312 4.475010000000000154 5.55372024404655118 0 -0.999999999999999889 0 I I #
point $-1 -3.752456451250085312 4.375 5.55372024404655118 #
straight-curve $-1 -3.575679755953448336 4.25 5.376943548749914648 0.2588119956945429401 0 -0.9659277151446724607 I I #
point $-1 -3.613036207203533579 4.25 5.516363792796465937 #
edge $-1 $110 -0.1443399999999999961 $123 0 $122 $143 forward 7 unknown #
straight-curve $-1 -3.854520244046551802 4.475010000000000154 5.451656451250085134 0 -0.999999999999999889 0 I I #
point $-1 -3.854520244046551802 4.25 5.451656451250085134 #
loop $-1 $144 $114 $136 #
vertex $-1 $115 $145 #
ellipse-curve $-1 -3.715100000000000069 4.375 5.414299999999999891 -0 1 0 -0.1325825214724776491 0 0.1325825214724776491 1 I I #
loop $-1 $-1 $146 $90 #
coedge $-1 $135 $135 $140 $147 forward $116 $-1 #
face $-1 $60 $131 $2 $-1 $148 forward single #
loop $-1 $-1 $149 $118 #
plane-surface $-1 -3.715100000000000069 3.375 5.414299999999999891 0 -1 0 -0.7071067811865473507 0 0.7071067811865473507 forward_v I I I I #
loop $-1 $-1 $150 $92 #
coedge $-1 $140 $140 $135 $147 reversed $119 $-1 #
straight-curve $-1 -3.613036207203533579 4.25 5.516363792796465937 0.9659277151446724607 -0 -0.2588119956945429401 I I #
point $-1 -3.752456451250085312 4.25 5.55372024404655118 #
straight-curve $-1 -3.752456451250085312 4.25 5.55372024404655118 0.7071067811865473507 0 0.7071067811865473507 I I #
loop $-1 $-1 $151 $136 #
point $-1 -3.847682521472477912 4.375 5.546882521472477734 #
coedge $-1 $146 $146 $151 $152 forward $134 $-1 #
edge $-1 $153 0 $153 6.283185307179586232 $135 $154 forward 7 unknown #
cone-surface $-1 -3.715100000000000069 4.25 5.414299999999999891 0 -1 0 -0.1325825214724776491 0 0.1325825214724776491 1 I I 0 1 0.1875 forward I I I I #
coedge $-1 $149 $149 $150 $155 forward $137 $-1 #
coedge $-1 $150 $150 $149 $155 reversed $139 $-1 #
coedge $-1 $151 $151 $146 $152 reversed $144 $-1 #
edge $-1 $156 0 $156 6.283185307179586232 $146 $157 forward 7 unknown #
vertex $-1 $147 $158 #
ellipse-curve $-1 -3.715100000000000069 4.125 5.414299999999999891 -0 1 0 -0.08838834764831841884 0 0.08838834764831841884 1 I I #
edge $-1 $159 0 $159 6.283185307179586232 $149 $160 forward 7 unknown #
vertex $-1 $152 $161 #
ellipse-curve $-1 -3.715100000000000069 4.125 5.414299999999999891 0 -1 0 -0.1325825214724776491 0 0.1325825214724776491 1 I I #
point $-1 -3.803488347648318335 4.125 5.502688347648318157 #
vertex $-1 $155 $162 #
ellipse-curve $-1 -3.715100000000000069 3.375 5.414299999999999891 0 -1 0 -0.08838834764831841884 0 0.08838834764831841884 1 I I #
point $-1 -3.847682521472477912 4.125 5.546882521472477734 #
point $-1 -3.803488347648318335 3.375 5.502688347648318157 #
End-of-ACIS-data 