600 0 1 0           
118 GICL ACIS Healer - Source: /gicl/data5/repository/CMU/spectrometer/screw_spacer66_to_flange202_back_vertical.sat - 6 0 18 ACIS 6.0.3 Solaris 24 Sat Apr 13 00:30:30 2002 
1 9.999999999999999547e-07 1.000000000000000036e-10 
body $-1 $1 $-1 $-1 #
lump $-1 $-1 $2 $0 #
shell $-1 $-1 $-1 $3 $-1 $1 #
face $-1 $4 $5 $2 $-1 $6 reversed single #
face $-1 $7 $8 $2 $-1 $9 reversed single #
loop $-1 $-1 $10 $3 #
plane-surface $-1 -5.138348196564765935 1.75 6.209608081194588181 0 -1 0 -0.7071067811865470176 0 -0.7071067811865470176 forward_v I I I I #
face $-1 $11 $12 $2 $-1 $13 reversed single #
loop $-1 $-1 $14 $4 #
plane-surface $-1 -5.138348196564765935 1.836999999999999966 6.209608081194588181 -0.7071067811865474617 0 -0.7071067811865474617 0 0.9999999999999994449 0 forward_v I I I I #
coedge $-1 $15 $16 $17 $18 reversed $5 $-1 #
face $-1 $19 $20 $2 $-1 $21 reversed single #
loop $-1 $-1 $22 $7 #
plane-surface $-1 -5.199866486527995768 1.836999999999999966 6.148089791231359236 0 -1 0 -0.7071067811865470176 0 -0.7071067811865470176 forward_v I I I I #
coedge $-1 $23 $24 $25 $26 reversed $8 $-1 #
coedge $-1 $27 $10 $28 $29 forward $5 $-1 #
coedge $-1 $10 $27 $23 $30 reversed $5 $-1 #
coedge $-1 $25 $31 $10 $18 forward $32 $-1 #
edge $-1 $33 -0.05699999999999988409 $34 0.01899999999999912523 $17 $35 forward 7 unknown #
face $-1 $36 $37 $2 $-1 $38 reversed single #
loop $-1 $-1 $39 $11 #
plane-surface $-1 -5.199866486527995768 1.913000000000000034 6.148089791231359236 -0.7071067811865474617 0 -0.7071067811865474617 0 0.9999999999999994449 0 forward_v I I I I #
coedge $-1 $40 $41 $42 $43 reversed $12 $-1 #
coedge $-1 $44 $14 $16 $30 forward $8 $-1 #
coedge $-1 $14 $44 $40 $45 reversed $8 $-1 #
coedge $-1 $42 $17 $14 $26 forward $32 $-1 #
edge $-1 $34 -0.1060000000000001497 $46 -0.01900000000000013831 $25 $47 forward 7 unknown #
coedge $-1 $16 $15 $48 $49 reversed $5 $-1 #
coedge $-1 $50 $51 $15 $29 reversed $52 $-1 #
edge $-1 $33 0.0100099999999995401 $53 0.07000999999999985013 $28 $54 forward 7 unknown #
edge $-1 $34 0.0100099999999995401 $55 0.07000999999999985013 $16 $56 forward 7 unknown #
coedge $-1 $17 $57 $50 $58 forward $32 $-1 #
loop $-1 $59 $60 $61 #
vertex $-1 $18 $62 #
vertex $-1 $26 $63 #
straight-curve $-1 -5.117835028842544709 1.75 6.215964971157455388 -0.7071067811865470176 0 -0.7071067811865470176 I I #
face $-1 $64 $65 $2 $-1 $66 reversed single #
loop $-1 $-1 $67 $19 #
plane-surface $-1 -5.138348196564765935 1.913000000000000034 6.209608081194588181 0 1 0 0.7071067811865470176 0 0.7071067811865470176 forward_v I I I I #
coedge $-1 $68 $69 $70 $71 reversed $20 $-1 #
coedge $-1 $72 $22 $24 $45 forward $12 $-1 #
coedge $-1 $22 $72 $68 $73 reversed $12 $-1 #
coedge $-1 $70 $25 $22 $43 forward $32 $-1 #
edge $-1 $46 -0.02450000000000105219 $74 0.06249999999999929917 $42 $75 forward 7 unknown #
coedge $-1 $24 $23 $76 $77 reversed $8 $-1 #
edge $-1 $46 0.0100099999999995401 $78 0.07000999999999985013 $24 $79 forward 7 unknown #
vertex $-1 $43 $80 #
straight-curve $-1 -5.131270057685088481 1.856000000000000094 6.202529942314911615 0 0.9999999999999994449 0 I I #
coedge $-1 $81 $76 $27 $49 forward $82 $-1 #
edge $-1 $55 -0.07600000000000028955 $53 0 $27 $83 forward 7 unknown #
coedge $-1 $84 $28 $31 $58 reversed $52 $-1 #
coedge $-1 $28 $84 $81 $85 reversed $52 $-1 #
loop $-1 $-1 $50 $86 #
vertex $-1 $29 $87 #
straight-curve $-1 -5.084608081194588181 1.75 6.263348196564765935 0.7071067811865470176 0 -0.7071067811865470176 I I #
vertex $-1 $30 $88 #
straight-curve $-1 -5.138348196564765935 1.75 6.209608081194588181 0.7071067811865470176 0 -0.7071067811865470176 I I #
coedge $-1 $31 $89 $90 $91 forward $32 $-1 #
edge $-1 $92 -0.02449999999999998013 $33 0.06250000000000004163 $31 $93 forward 7 unknown #
loop $-1 $-1 $94 $61 #
coedge $-1 $95 $96 $97 $98 forward $32 $-1 #
face $-1 $99 $32 $2 $-1 $100 forward single #
point $-1 -5.077529942314911615 1.75 6.256270057685088481 #
point $-1 -5.131270057685088481 1.75 6.202529942314911615 #
face $-1 $86 $101 $2 $-1 $102 reversed single #
loop $-1 $-1 $103 $36 #
plane-surface $-1 -5.138348196564765935 2 6.209608081194588181 -0.7071067811865474617 0 -0.7071067811865474617 0 0.9999999999999994449 0 forward_v I I I I #
coedge $-1 $104 $105 $106 $107 reversed $37 $-1 #
coedge $-1 $108 $39 $41 $73 forward $20 $-1 #
coedge $-1 $39 $108 $104 $109 reversed $20 $-1 #
coedge $-1 $106 $42 $39 $71 forward $32 $-1 #
edge $-1 $74 -0.0569999999999999743 $110 0.01900000000000013831 $70 $111 forward 7 unknown #
coedge $-1 $41 $40 $112 $113 reversed $12 $-1 #
edge $-1 $74 0.01001000000000016807 $114 0.07000999999999985013 $41 $115 forward 7 unknown #
vertex $-1 $71 $116 #
straight-curve $-1 -5.148594173824159625 1.836999999999999966 6.185205826175840471 -0.7071067811865470176 0 -0.7071067811865470176 I I #
coedge $-1 $48 $112 $44 $77 forward $82 $-1 #
edge $-1 $78 -0.08700000000000004952 $55 0 $44 $117 forward 7 unknown #
vertex $-1 $45 $118 #
straight-curve $-1 -5.138348196564765935 1.836999999999999966 6.209608081194588181 0.7071067811865470176 0 -0.7071067811865470176 I I #
point $-1 -5.131270057685088481 1.836999999999999966 6.202529942314911615 #
coedge $-1 $119 $48 $51 $85 forward $82 $-1 #
loop $-1 $-1 $120 $121 #
straight-curve $-1 -5.035103535443718137 1.75 6.213843650813895891 0.7071067811865467956 0 0.7071067811865467956 I I #
coedge $-1 $51 $50 $122 $123 forward $52 $-1 #
edge $-1 $53 -0.08700000000000004952 $124 0 $51 $125 forward 7 unknown #
face $-1 $126 $52 $2 $-1 $127 reversed single #
point $-1 -5.035103535443718137 1.75 6.213843650813895891 #
point $-1 -5.088843650813895891 1.75 6.160103535443718137 #
coedge $-1 $57 $128 $129 $130 forward $32 $-1 #
coedge $-1 $131 $122 $57 $91 reversed $132 $-1 #
edge $-1 $133 -0.1059999999999994835 $92 -0.01899999999999912523 $57 $134 forward 7 unknown #
vertex $-1 $58 $135 #
straight-curve $-1 -5.077529942314911615 1.8125 6.256270057685088481 0 -0.9999999999999994449 0 I I #
coedge $-1 $94 $94 $136 $137 forward $59 $-1 #
coedge $-1 $128 $60 $138 $139 forward $32 $-1 #
coedge $-1 $60 $106 $103 $140 forward $32 $-1 #
coedge $-1 $141 $142 $60 $98 reversed $101 $-1 #
edge $-1 $143 -0.05699999999999988409 $144 0.01899999999999912523 $60 $145 forward 7 unknown #
face $-1 $-1 $146 $2 $-1 $147 forward single #
plane-surface $-1 -5.104400000000000048 1.875 6.229400000000000048 -0.7071067811865474617 0 0.7071067811865474617 0 -0.9999999999999987788 0 forward_v I I I I #
loop $-1 $-1 $97 $64 #
plane-surface $-1 -5.084608081194588181 2 6.263348196564765935 0 1 0 0.7071067811865470176 0 0.7071067811865470176 forward_v I I I I #
coedge $-1 $148 $149 $96 $140 reversed $65 $-1 #
coedge $-1 $150 $67 $69 $109 forward $37 $-1 #
coedge $-1 $67 $150 $148 $151 reversed $37 $-1 #
coedge $-1 $96 $70 $67 $107 forward $32 $-1 #
edge $-1 $110 -0.1059999999999994835 $152 -0.01899999999999912523 $106 $153 forward 7 unknown #
coedge $-1 $69 $68 $154 $155 reversed $20 $-1 #
edge $-1 $110 0.01001000000000016807 $156 0.07000999999999985013 $69 $157 forward 7 unknown #
vertex $-1 $107 $158 #
straight-curve $-1 -5.192788347648318314 1.893999999999999906 6.141011652351681782 0 0.9999999999999994449 0 I I #
coedge $-1 $76 $154 $72 $113 forward $82 $-1 #
edge $-1 $114 -0.08699999999999975808 $78 0 $72 $159 forward 7 unknown #
vertex $-1 $73 $160 #
straight-curve $-1 -5.199866486527995768 1.836999999999999966 6.148089791231359236 0.7071067811865470176 0 -0.7071067811865470176 I I #
point $-1 -5.192788347648318314 1.836999999999999966 6.141011652351681782 #
straight-curve $-1 -5.088843650813895891 1.75 6.160103535443718137 0 -0.9999999999999991118 0 I I #
point $-1 -5.088843650813895891 1.836999999999999966 6.160103535443718137 #
coedge $-1 $161 $81 $162 $163 forward $82 $-1 #
coedge $-1 $164 $165 $166 $167 forward $82 $-1 #
face $-1 $168 $82 $2 $-1 $169 reversed single #
coedge $-1 $90 $162 $84 $123 reversed $132 $-1 #
edge $-1 $92 0.0100099999999995401 $124 0.07000999999999985013 $122 $170 forward 7 unknown #
vertex $-1 $123 $171 #
straight-curve $-1 -5.035103535443718137 1.836999999999999966 6.213843650813895891 0 0.9999999999999991118 0 I I #
face $-1 $172 $132 $2 $-1 $173 reversed single #
plane-surface $-1 -5.084608081194588181 1.75 6.263348196564765935 0.7071067811865474617 0 0.7071067811865474617 0 -0.9999999999999994449 0 forward_v I I I I #
coedge $-1 $89 $95 $174 $175 forward $32 $-1 #
coedge $-1 $176 $177 $89 $130 reversed $178 $-1 #
edge $-1 $179 -0.0569999999999999743 $133 0.01900000000000013831 $89 $180 forward 7 unknown #
coedge $-1 $162 $90 $177 $181 forward $132 $-1 #
loop $-1 $-1 $90 $126 #
vertex $-1 $91 $182 #
straight-curve $-1 -5.090964971157455388 1.836999999999999966 6.242835028842544709 -0.7071067811865470176 0 -0.7071067811865470176 I I #
point $-1 -5.077529942314911615 1.836999999999999966 6.256270057685088481 #
coedge $-1 $136 $136 $94 $137 reversed $183 $-1 #
edge $-1 $184 0 $184 6.283185307179586232 $94 $185 forward 7 unknown #
coedge $-1 $186 $187 $95 $139 reversed $188 $-1 #
edge $-1 $144 -0.1060000000000001497 $189 -0.01900000000000013831 $95 $190 forward 7 unknown #
edge $-1 $152 -0.02449999999999998013 $143 0.06250000000000004163 $96 $191 forward 7 unknown #
coedge $-1 $166 $97 $149 $192 forward $101 $-1 #
coedge $-1 $97 $166 $186 $193 reversed $101 $-1 #
vertex $-1 $98 $194 #
vertex $-1 $98 $195 #
straight-curve $-1 -5.090964971157455388 2 6.242835028842544709 0.7071067811865470176 0 0.7071067811865470176 I I #
loop $-1 $196 $197 $99 #
plane-surface $-1 -4.927623304703363516 1.875 6.052623304703363516 0.7071067811865474617 0 -0.7071067811865474617 0 0.9999999999999987788 0 forward_v I I I I #
coedge $-1 $198 $103 $105 $151 forward $65 $-1 #
coedge $-1 $103 $198 $141 $192 reversed $65 $-1 #
coedge $-1 $105 $104 $199 $200 reversed $37 $-1 #
edge $-1 $152 0.0100099999999995401 $201 0.07000999999999985013 $105 $202 forward 7 unknown #
vertex $-1 $140 $203 #
straight-curve $-1 -5.117835028842544709 1.913000000000000034 6.215964971157455388 0.7071067811865470176 0 0.7071067811865470176 I I #
coedge $-1 $112 $199 $108 $155 forward $82 $-1 #
edge $-1 $156 -0.07600000000000013689 $114 0 $108 $204 forward 7 unknown #
vertex $-1 $109 $205 #
straight-curve $-1 -5.199866486527995768 1.913000000000000034 6.148089791231359236 0.7071067811865470176 0 -0.7071067811865470176 I I #
point $-1 -5.192788347648318314 1.913000000000000034 6.141011652351681782 #
straight-curve $-1 -5.088843650813895891 1.836999999999999966 6.160103535443718137 0.7071067811865467956 0 0.7071067811865467956 I I #
point $-1 -5.150361940777125724 1.836999999999999966 6.098585245480489192 #
coedge $-1 $206 $119 $207 $208 forward $82 $-1 #
coedge $-1 $122 $131 $119 $163 reversed $132 $-1 #
edge $-1 $124 -0.08699999999999975808 $209 0 $162 $210 forward 7 unknown #
coedge $-1 $199 $120 $198 $211 forward $82 $-1 #
coedge $-1 $120 $206 $212 $213 forward $82 $-1 #
coedge $-1 $142 $141 $120 $167 reversed $101 $-1 #
edge $-1 $214 -0.07600000000000028955 $215 0 $166 $216 forward 7 unknown #
face $-1 $217 $218 $2 $-1 $219 forward single #
plane-surface $-1 -5.035103535443718137 2 6.213843650813895891 0.7071067811865474617 0 -0.7071067811865474617 0 0.9999999999999994449 0 forward_v I I I I #
straight-curve $-1 -5.084608081194588181 1.836999999999999966 6.263348196564765935 0.7071067811865470176 0 -0.7071067811865470176 I I #
point $-1 -5.035103535443718137 1.836999999999999966 6.213843650813895891 #
face $-1 $220 $178 $2 $-1 $221 reversed single #
plane-surface $-1 -5.084608081194588181 1.836999999999999966 6.263348196564765935 0 -1 0 -0.7071067811865470176 0 -0.7071067811865470176 forward_v I I I I #
coedge $-1 $222 $223 $128 $175 reversed $224 $-1 #
edge $-1 $189 -0.02450000000000105219 $179 0.06249999999999929917 $128 $225 forward 7 unknown #
coedge $-1 $207 $129 $223 $226 forward $178 $-1 #
coedge $-1 $129 $207 $131 $181 reversed $178 $-1 #
loop $-1 $-1 $129 $172 #
vertex $-1 $130 $227 #
straight-curve $-1 -5.016011652351681782 1.856000000000000094 6.317788347648318314 0 -0.9999999999999994449 0 I I #
edge $-1 $133 0.01001000000000016807 $209 0.07000999999999985013 $177 $228 forward 7 unknown #
point $-1 -5.016011652351681782 1.836999999999999966 6.317788347648318314 #
loop $-1 $229 $136 $230 #
vertex $-1 $137 $231 #
ellipse-curve $-1 -5.104400000000000048 1.875 6.229400000000000048 -0.7071067811865474617 0 0.7071067811865474617 0 0.187499999999999778 0 1 I I #
coedge $-1 $212 $138 $142 $193 forward $188 $-1 #
coedge $-1 $138 $212 $222 $232 reversed $188 $-1 #
loop $-1 $-1 $138 $233 #
vertex $-1 $175 $234 #
straight-curve $-1 -5.077529942314911615 1.893999999999999906 6.256270057685088481 0 -0.9999999999999994449 0 I I #
straight-curve $-1 -5.131270057685088481 1.9375 6.202529942314911615 0 0.9999999999999994449 0 I I #
edge $-1 $143 0.0100099999999995401 $215 0.07000999999999985013 $149 $235 forward 7 unknown #
edge $-1 $144 0.0100099999999995401 $214 0.07000999999999985013 $142 $236 forward 7 unknown #
point $-1 -5.131270057685088481 2 6.202529942314911615 #
point $-1 -5.077529942314911615 2 6.256270057685088481 #
loop $-1 $-1 $237 $99 #
coedge $-1 $197 $197 $238 $239 forward $146 $-1 #
coedge $-1 $149 $148 $164 $211 reversed $65 $-1 #
coedge $-1 $154 $164 $150 $200 forward $82 $-1 #
edge $-1 $201 -0.08699999999999975808 $156 0 $150 $240 forward 7 unknown #
vertex $-1 $151 $241 #
straight-curve $-1 -5.138348196564765935 1.913000000000000034 6.209608081194588181 0.7071067811865470176 0 -0.7071067811865470176 I I #
point $-1 -5.131270057685088481 1.913000000000000034 6.202529942314911615 #
straight-curve $-1 -5.150361940777125724 1.836999999999999966 6.098585245480489192 0 -0.9999999999999991118 0 I I #
point $-1 -5.150361940777125724 1.913000000000000034 6.098585245480489192 #
coedge $-1 $165 $161 $242 $243 forward $82 $-1 #
coedge $-1 $177 $176 $161 $208 reversed $178 $-1 #
edge $-1 $209 -0.07600000000000013689 $244 0 $207 $245 forward 7 unknown #
vertex $-1 $181 $246 #
straight-curve $-1 -4.973585245480489192 1.836999999999999966 6.275361940777125724 0.7071067811865467956 0 0.7071067811865467956 I I #
edge $-1 $215 -0.08700000000000004952 $201 0 $198 $247 forward 7 unknown #
coedge $-1 $187 $186 $165 $213 reversed $188 $-1 #
edge $-1 $248 -0.08700000000000004952 $214 0 $212 $249 forward 7 unknown #
vertex $-1 $193 $250 #
vertex $-1 $192 $251 #
straight-curve $-1 -5.088843650813895891 2 6.160103535443718137 -0.7071067811865467956 0 -0.7071067811865467956 I I #
face $-1 $230 $252 $2 $-1 $253 forward single #
loop $-1 $254 $238 $168 #
cone-surface $-1 -4.750846609406726984 1.875 5.875846609406726984 0.7071067811865474617 0 -0.7071067811865474617 0 0.1249999999999998473 0 1 I I 0 1 0.1249999999999998473 forward I I I I #
face $-1 $233 $224 $2 $-1 $255 reversed single #
plane-surface $-1 -5.023089791231359236 1.836999999999999966 6.324866486527995768 0.7071067811865474617 0 0.7071067811865474617 0 -0.9999999999999994449 0 forward_v I I I I #
coedge $-1 $242 $174 $187 $232 forward $224 $-1 #
coedge $-1 $174 $242 $176 $226 reversed $224 $-1 #
loop $-1 $-1 $174 $220 #
straight-curve $-1 -5.060205826175840471 1.913000000000000034 6.273594173824159625 0.7071067811865470176 0 0.7071067811865470176 I I #
edge $-1 $179 0.01001000000000016807 $244 0.07000999999999985013 $223 $256 forward 7 unknown #
point $-1 -5.016011652351681782 1.913000000000000034 6.317788347648318314 #
straight-curve $-1 -5.023089791231359236 1.836999999999999966 6.324866486527995768 0.7071067811865470176 0 -0.7071067811865470176 I I #
loop $-1 $-1 $257 $230 #
face $-1 $61 $183 $2 $-1 $258 forward single #
point $-1 -5.104400000000000048 2.0625 6.229400000000000048 #
edge $-1 $189 0.0100099999999995401 $248 0.07000999999999985013 $187 $259 forward 7 unknown #
face $-1 $121 $188 $2 $-1 $260 reversed single #
point $-1 -5.077529942314911615 1.913000000000000034 6.256270057685088481 #
straight-curve $-1 -5.138348196564765935 2 6.209608081194588181 0.7071067811865470176 0 -0.7071067811865470176 I I #
straight-curve $-1 -5.084608081194588181 2 6.263348196564765935 0.7071067811865470176 0 -0.7071067811865470176 I I #
coedge $-1 $237 $237 $257 $261 forward $196 $-1 #
coedge $-1 $238 $238 $197 $239 reversed $218 $-1 #
edge $-1 $262 0 $262 6.283185307179586232 $197 $263 forward 7 unknown #
straight-curve $-1 -5.150361940777125724 1.913000000000000034 6.098585245480489192 -0.7071067811865467956 0 -0.7071067811865467956 I I #
point $-1 -5.088843650813895891 1.913000000000000034 6.160103535443718137 #
coedge $-1 $223 $222 $206 $243 reversed $224 $-1 #
edge $-1 $244 -0.08699999999999975808 $248 0 $242 $264 forward 7 unknown #
vertex $-1 $226 $265 #
straight-curve $-1 -4.973585245480489192 1.913000000000000034 6.275361940777125724 0 0.9999999999999991118 0 I I #
point $-1 -4.973585245480489192 1.836999999999999966 6.275361940777125724 #
straight-curve $-1 -5.088843650813895891 1.913000000000000034 6.160103535443718137 0 -0.9999999999999991118 0 I I #
vertex $-1 $232 $266 #
straight-curve $-1 -5.035103535443718137 2 6.213843650813895891 0 0.9999999999999991118 0 I I #
point $-1 -5.035103535443718137 2 6.213843650813895891 #
point $-1 -5.088843650813895891 2 6.160103535443718137 #
loop $-1 $-1 $267 $217 #
plane-surface $-1 -4.574069914110090451 1.875 5.699069914110090451 0.7071067811865474617 0 -0.7071067811865474617 0 0.9999999999999987788 0 forward_v I I I I #
loop $-1 $-1 $268 $168 #
plane-surface $-1 -5.023089791231359236 1.913000000000000034 6.324866486527995768 0 1 0 0.7071067811865470176 0 0.7071067811865470176 forward_v I I I I #
straight-curve $-1 -5.023089791231359236 1.913000000000000034 6.324866486527995768 0.7071067811865470176 0 -0.7071067811865470176 I I #
coedge $-1 $257 $257 $237 $261 reversed $229 $-1 #
cone-surface $-1 -5.016011652351681782 1.875 6.141011652351681782 0.7071067811865474617 0 -0.7071067811865474617 0 0.187499999999999778 0 1 I I 0 1 0.187499999999999778 forward I I I I #
straight-curve $-1 -5.084608081194588181 1.913000000000000034 6.263348196564765935 0.7071067811865470176 0 -0.7071067811865470176 I I #
plane-surface $-1 -5.084608081194588181 1.913000000000000034 6.263348196564765935 0.7071067811865474617 0 0.7071067811865474617 0 -0.9999999999999994449 0 forward_v I I I I #
edge $-1 $269 0 $269 6.283185307179586232 $237 $270 forward 7 unknown #
vertex $-1 $239 $271 #
ellipse-curve $-1 -4.927623304703363516 1.875 6.052623304703363516 -0.7071067811865474617 0 0.7071067811865474617 0 0.1249999999999998473 0 1 I I #
straight-curve $-1 -5.035103535443718137 1.913000000000000034 6.213843650813895891 -0.7071067811865467956 0 -0.7071067811865467956 I I #
point $-1 -4.973585245480489192 1.913000000000000034 6.275361940777125724 #
point $-1 -5.035103535443718137 1.913000000000000034 6.213843650813895891 #
coedge $-1 $267 $267 $268 $272 forward $252 $-1 #
coedge $-1 $268 $268 $267 $272 reversed $254 $-1 #
vertex $-1 $261 $273 #
ellipse-curve $-1 -4.927623304703363516 1.875 6.052623304703363516 0.7071067811865474617 0 -0.7071067811865474617 0 0.187499999999999778 0 1 I I #
point $-1 -4.927623304703363516 1.999999999999999778 6.052623304703363516 #
edge $-1 $274 0 $274 6.283185307179586232 $267 $275 forward 7 unknown #
point $-1 -4.927623304703363516 2.0625 6.052623304703363516 #
vertex $-1 $272 $276 #
ellipse-curve $-1 -4.574069914110090451 1.875 5.699069914110090451 0.7071067811865474617 0 -0.7071067811865474617 0 0.1249999999999998473 0 1 I I #
point $-1 -4.574069914110090451 1.999999999999999778 5.699069914110090451 #
End-of-ACIS-data 