700 0 2 0           
24 FBMach with ACIS - 7.0.3 13 ACIS 7.0.3 NT 24 Mon May 13 17:02:54 2002 
1 9.9999999999999995e-007 1e-010 
body $2 -1 $-1 $3 $-1 $4 #
bdycol-kcp $-1 -1 1 3 $5 $6 $7 #
model_id-kcp-attrib $-1 -1 $-1 $-1 $0 1 1021323773 1021323773 -832962559 1 #
lump $-1 -1 $-1 $-1 $8 $0 #
transform $-1 -1 1 0 0 0 1 0 0 0 1 0 0 0 1 rotate no_reflect no_shear #
body $9 -1 $-1 $10 $-1 $11 #
body $12 -1 $-1 $13 $-1 $14 #
body $15 -1 $-1 $16 $-1 $17 #
shell $-1 -1 $-1 $-1 $-1 $18 $-1 $3 #
model_id-kcp-attrib $-1 -1 $-1 $-1 $5 1 1021323773 1021323773 -832962558 1 #
lump $-1 -1 $-1 $-1 $19 $5 #
transform $-1 -1 1 0 0 0 1 0 0 0 1 -0.35359000000000002 2.8688800000000003 1.47855 1 no_rotate no_reflect no_shear #
rgb_color-st-attrib $-1 -1 $20 $-1 $6 1 0.5 1 #
lump $-1 -1 $-1 $-1 $21 $6 #
transform $-1 -1 1 0 0 0 1 0 0 0 1 -0.35359000000000002 2.8688800000000003 1.47855 1 no_rotate no_reflect no_shear #
rgb_color-st-attrib $-1 -1 $22 $-1 $7 0 0 1 #
lump $-1 -1 $-1 $-1 $23 $7 #
transform $-1 -1 1 0 0 0 1 0 0 0 1 -0.35359000000000002 2.8688800000000003 1.47855 1 no_rotate no_reflect no_shear #
face $24 -1 $-1 $25 $26 $8 $-1 $27 reversed single #
shell $-1 -1 $-1 $-1 $-1 $28 $-1 $10 #
model_id-kcp-attrib $-1 -1 $-1 $12 $6 1 1021323773 1021323774 -833421308 1 #
shell $-1 -1 $-1 $-1 $-1 $29 $-1 $13 #
model_id-kcp-attrib $-1 -1 $-1 $15 $7 1 1021323773 1021323774 -823197693 1 #
shell $-1 -1 $-1 $-1 $-1 $30 $-1 $16 #
model_id-kcp-attrib $-1 -1 $-1 $-1 $18 1 1021323773 1021323773 -832962559 2 #
face $31 -1 $-1 $32 $33 $8 $-1 $34 reversed single #
loop $-1 -1 $-1 $-1 $35 $18 #
plane-surface $-1 -1 $-1 -0.37698999999999999 3.13504 1.5722499999999999 0 0 1 -0.99999999999999944 0 0 forward_v I I I I #
face $-1 -1 $-1 $36 $37 $19 $-1 $38 forward single #
face $-1 -1 $-1 $39 $40 $21 $-1 $41 forward single #
face $-1 -1 $-1 $42 $43 $23 $-1 $44 forward single #
model_id-kcp-attrib $-1 -1 $-1 $-1 $25 1 1021323773 1021323773 -832962559 3 #
face $45 -1 $-1 $46 $47 $8 $-1 $48 reversed single #
loop $-1 -1 $-1 $-1 $49 $25 #
plane-surface $-1 -1 $-1 -0.37698999999999999 3.13504 1.5019500000000001 -1 0 0 0 0 -0.99999999999999944 forward_v I I I I #
coedge $-1 -1 $-1 $50 $51 $52 $53 reversed $26 $-1 #
face $-1 -1 $-1 $54 $55 $19 $-1 $56 reversed single #
loop $-1 -1 $-1 $-1 $57 $28 #
plane-surface $-1 -1 $-1 0 0 0.1399999999999999 0 0 1 1 0 0 forward_v I I I I #
face $-1 -1 $-1 $58 $59 $21 $-1 $60 forward single #
loop $-1 -1 $-1 $61 $62 $29 #
cone-surface $-1 -1 $-1 0 0.18135000000000012 0 0 -1 0 0 0 -0.067999999999999949 1 I I 0 -1 0.067999999999999949 forward I I I I #
face $-1 -1 $-1 $63 $64 $23 $-1 $65 forward single #
loop $-1 -1 $-1 $-1 $66 $30 #
plane-surface $-1 -1 $-1 -0.023399999999999976 0.22615000000000007 0.093699999999999894 -1 0 0 0 0 1 forward_v I I I I #
model_id-kcp-attrib $-1 -1 $-1 $-1 $32 1 1021323773 1021323773 -832962559 4 #
face $67 -1 $-1 $68 $69 $8 $-1 $70 reversed single #
loop $-1 -1 $-1 $-1 $71 $32 #
plane-surface $-1 -1 $-1 -0.44728999999999997 3.13504 1.5019500000000001 0 0 1 -0.99999999999999944 0 0 forward_v I I I I #
coedge $-1 -1 $-1 $72 $73 $74 $75 reversed $33 $-1 #
coedge $-1 -1 $-1 $76 $35 $77 $78 forward $26 $-1 #
coedge $-1 -1 $-1 $35 $76 $72 $79 reversed $26 $-1 #
coedge $-1 -1 $-1 $74 $80 $35 $53 forward $81 $-1 #
edge $-1 -1 $-1 $82 -0.035099999999999985 $83 0.011699999999999995 $52 $84 forward @7 unknown #
face $85 -1 $-1 $86 $87 $19 $-1 $88 reversed single #
loop $-1 -1 $-1 $-1 $89 $36 #
plane-surface $-1 -1 $-1 0 0 -0.1399999999999999 0 0 1 1 0 0 forward_v I I I I #
coedge $-1 -1 $-1 $90 $91 $92 $93 forward $37 $-1 #
face $-1 -1 $-1 $94 $95 $21 $-1 $96 reversed single #
loop $-1 -1 $-1 $97 $98 $39 #
cone-surface $-1 -1 $-1 0 0.18135000000000012 0 0 -1 0 0 0 -0.13999999999999987 1 I I 0 1 0.13999999999999987 forward I I I I #
loop $-1 -1 $-1 $-1 $99 $29 #
coedge $-1 -1 $-1 $62 $62 $100 $101 forward $40 $-1 #
face $-1 -1 $-1 $102 $103 $23 $-1 $104 forward single #
loop $-1 -1 $-1 $-1 $105 $42 #
plane-surface $-1 -1 $-1 -0.023399999999999976 0.22615000000000007 0.023400000000000087 0 0 1 1 0 0 forward_v I I I I #
coedge $-1 -1 $-1 $106 $107 $108 $109 forward $43 $-1 #
model_id-kcp-attrib $-1 -1 $-1 $-1 $46 1 1021323773 1021323773 -832962559 5 #
face $110 -1 $-1 $111 $112 $8 $-1 $113 reversed single #
loop $-1 -1 $-1 $-1 $114 $46 #
plane-surface $-1 -1 $-1 -0.44728999999999997 3.13504 1.4551499999999999 -1 0 0 0 0 -0.99999999999999944 forward_v I I I I #
coedge $-1 -1 $-1 $115 $116 $117 $118 reversed $47 $-1 #
coedge $-1 -1 $-1 $119 $49 $51 $79 forward $33 $-1 #
coedge $-1 -1 $-1 $49 $119 $115 $120 reversed $33 $-1 #
coedge $-1 -1 $-1 $117 $52 $49 $75 forward $81 $-1 #
edge $-1 -1 $-1 $83 -0.081999999999999892 $121 -0.011700000000000051 $74 $122 forward @7 unknown #
coedge $-1 -1 $-1 $51 $50 $123 $124 reversed $26 $-1 #
coedge $-1 -1 $-1 $125 $126 $50 $78 reversed $127 $-1 #
edge $-1 -1 $-1 $82 0.010009999999999858 $128 0.040009999999999678 $77 $129 forward @7 unknown #
edge $-1 -1 $-1 $83 0.010009999999999858 $130 0.040009999999999678 $51 $131 forward @7 unknown #
coedge $-1 -1 $-1 $52 $132 $125 $133 forward $81 $-1 #
loop $-1 -1 $-1 $134 $135 $136 #
vertex $-1 -1 $-1 $53 $137 #
vertex $-1 -1 $-1 $75 $138 #
straight-curve $-1 -1 $-1 -0.36529 3.1250300000000002 1.5722499999999999 -0.99999999999999944 0 0 I I #
model_id-kcp-attrib $-1 -1 $-1 $-1 $54 1 1021323773 1021323773 -832962558 2 #
face $-1 -1 $-1 $139 $140 $19 $-1 $141 reversed single #
loop $-1 -1 $-1 $-1 $142 $54 #
plane-surface $-1 -1 $-1 0 -0.25614999999999988 0 0 1 0 0 0 1 forward_v I I I I #
coedge $-1 -1 $-1 $143 $144 $145 $146 forward $55 $-1 #
coedge $-1 -1 $-1 $147 $57 $148 $149 forward $37 $-1 #
coedge $-1 -1 $-1 $57 $147 $150 $151 forward $37 $-1 #
coedge $-1 -1 $-1 $152 $153 $57 $93 reversed $154 $-1 #
edge $-1 -1 $-1 $155 -0.25614999999999988 $156 0.25614999999999988 $92 $157 forward @7 unknown #
face $-1 -1 $-1 $-1 $158 $21 $-1 $159 forward single #
loop $-1 -1 $-1 $160 $161 $58 #
plane-surface $-1 -1 $-1 7.9723849838705819e-019 -0.25614999999999988 0.0065454545454545366 0 1 0 0 0 1 forward_v I I I I #
loop $-1 -1 $-1 $-1 $162 $39 #
coedge $-1 -1 $-1 $98 $98 $161 $163 forward $59 $-1 #
coedge $-1 -1 $-1 $99 $99 $164 $165 reversed $61 $-1 #
coedge $-1 -1 $-1 $100 $100 $62 $101 reversed $160 $-1 #
edge $-1 -1 $-1 $166 0 $166 6.2831853071795862 $62 $167 forward @7 unknown #
face $-1 -1 $-1 $168 $169 $23 $-1 $170 forward single #
loop $-1 -1 $-1 $-1 $171 $63 #
plane-surface $-1 -1 $-1 -0.09369999999999995 0.22615000000000007 0.023400000000000087 -1 0 0 0 0 1 forward_v I I I I #
coedge $-1 -1 $-1 $172 $173 $174 $175 forward $64 $-1 #
coedge $-1 -1 $-1 $176 $66 $173 $177 reversed $43 $-1 #
coedge $-1 -1 $-1 $66 $176 $178 $179 forward $43 $-1 #
coedge $-1 -1 $-1 $180 $174 $66 $109 reversed $181 $-1 #
edge $-1 -1 $-1 $182 -0.081999999999999851 $183 -0.011700000000000044 $66 $184 forward @7 unknown #
model_id-kcp-attrib $-1 -1 $-1 $-1 $68 1 1021323773 1021323773 -832962559 6 #
face $185 -1 $-1 $186 $187 $8 $-1 $188 reversed single #
loop $-1 -1 $-1 $-1 $189 $68 #
plane-surface $-1 -1 $-1 -0.37698999999999999 3.13504 1.4551499999999999 0 0 -1 0.99999999999999944 0 0 forward_v I I I I #
coedge $-1 -1 $-1 $190 $191 $192 $193 reversed $69 $-1 #
coedge $-1 -1 $-1 $194 $71 $73 $120 forward $47 $-1 #
coedge $-1 -1 $-1 $71 $194 $190 $195 reversed $47 $-1 #
coedge $-1 -1 $-1 $192 $74 $71 $118 forward $81 $-1 #
edge $-1 -1 $-1 $121 -0.023449999999999985 $196 0.046850000000000031 $117 $197 forward @7 unknown #
coedge $-1 -1 $-1 $73 $72 $198 $199 reversed $33 $-1 #
edge $-1 -1 $-1 $121 0.010009999999999858 $200 0.040009999999999678 $73 $201 forward @7 unknown #
vertex $-1 -1 $-1 $118 $202 #
straight-curve $-1 -1 $-1 -0.37698999999999999 3.1250300000000002 1.4902500000000001 0 0 -0.99999999999999944 I I #
coedge $-1 -1 $-1 $203 $198 $76 $124 forward $204 $-1 #
edge $205 -1 $-1 $130 -0.046799999999999994 $128 0 $76 $206 forward @7 unknown #
coedge $-1 -1 $-1 $207 $77 $80 $133 reversed $127 $-1 #
coedge $-1 -1 $-1 $77 $207 $203 $208 reversed $127 $-1 #
loop $-1 -1 $-1 $-1 $125 $209 #
vertex $-1 -1 $-1 $78 $210 #
straight-curve $-1 -1 $-1 -0.33019000000000004 3.13504 1.5722499999999999 0 -0.99999999999999944 0 I I #
vertex $-1 -1 $-1 $79 $211 #
straight-curve $-1 -1 $-1 -0.37698999999999999 3.13504 1.5722499999999999 0 -0.99999999999999944 0 I I #
coedge $-1 -1 $-1 $80 $212 $213 $214 forward $81 $-1 #
edge $-1 -1 $-1 $215 -0.023449999999999985 $82 0.046849999999999864 $80 $216 forward @7 unknown #
loop $-1 -1 $-1 $-1 $217 $136 #
coedge $-1 -1 $-1 $218 $219 $220 $221 forward $81 $-1 #
face $222 -1 $-1 $223 $81 $8 $-1 $224 forward single #
point $-1 -1 $-1 -0.33019000000000004 3.1250300000000002 1.5722499999999999 #
point $-1 -1 $-1 -0.37698999999999999 3.1250300000000002 1.5722499999999999 #
face $225 -1 $-1 $226 $227 $19 $-1 $228 reversed single #
loop $-1 -1 $-1 $-1 $229 $86 #
plane-surface $-1 -1 $-1 -0.13999999999999985 0 0 1 0 0 0 0 -1 forward_v I I I I #
coedge $-1 -1 $-1 $230 $150 $231 $232 forward $87 $-1 #
coedge $-1 -1 $-1 $233 $89 $230 $234 forward $55 $-1 #
coedge $-1 -1 $-1 $89 $233 $235 $236 forward $55 $-1 #
coedge $-1 -1 $-1 $153 $152 $89 $146 reversed $154 $-1 #
edge $-1 -1 $-1 $237 -0.25614999999999988 $238 0.25614999999999988 $145 $239 forward @7 unknown #
coedge $-1 -1 $-1 $91 $90 $240 $241 forward $37 $-1 #
coedge $-1 -1 $-1 $242 $243 $90 $149 reversed $227 $-1 #
edge $-1 -1 $-1 $156 -0.13999999999999985 $244 0.13999999999999985 $148 $245 forward @7 unknown #
coedge $-1 -1 $-1 $142 $246 $91 $151 reversed $87 $-1 #
edge $-1 -1 $-1 $247 -0.13999999999999985 $155 0.13999999999999985 $150 $248 forward @7 unknown #
coedge $-1 -1 $-1 $145 $92 $246 $249 forward $154 $-1 #
coedge $-1 -1 $-1 $92 $145 $242 $250 reversed $154 $-1 #
loop $-1 -1 $-1 $-1 $152 $226 #
vertex $-1 -1 $-1 $93 $251 #
vertex $-1 -1 $-1 $93 $252 #
straight-curve $-1 -1 $-1 0.13999999999999985 0 0.1399999999999999 0 1 0 I I #
loop $-1 -1 $-1 $253 $254 $94 #
plane-surface $-1 -1 $-1 7.9723849838705819e-019 0.18135000000000012 0.0065454545454545366 0 1 0 0 0 1 forward_v I I I I #
loop $-1 -1 $-1 $-1 $100 $58 #
coedge $-1 -1 $-1 $161 $161 $98 $163 reversed $95 $-1 #
coedge $-1 -1 $-1 $162 $162 $254 $255 reversed $97 $-1 #
edge $-1 -1 $-1 $256 -3.1415926535897931 $256 3.1415926535897931 $98 $257 forward @7 unknown #
coedge $-1 -1 $-1 $164 $164 $99 $165 forward $253 $-1 #
edge $258 -1 $-1 $259 0 $259 6.2831853071795862 $99 $260 forward @7 unknown #
vertex $-1 -1 $-1 $101 $261 #
ellipse-curve $-1 -1 $-1 0 -0.25614999999999988 0 0 -1 0 0 0 -0.067999999999999949 1 I I #
face $-1 -1 $-1 $262 $263 $23 $-1 $264 forward single #
loop $-1 -1 $-1 $-1 $265 $102 #
plane-surface $-1 -1 $-1 -0.09369999999999995 0.22615000000000007 -0.023400000000000087 0 0 -1 -1 0 0 forward_v I I I I #
coedge $-1 -1 $-1 $266 $267 $268 $269 forward $103 $-1 #
coedge $-1 -1 $-1 $270 $105 $267 $271 reversed $64 $-1 #
coedge $-1 -1 $-1 $105 $270 $106 $177 forward $64 $-1 #
coedge $-1 -1 $-1 $108 $268 $105 $175 reversed $181 $-1 #
edge $-1 -1 $-1 $183 -0.023450000000000026 $272 0.046849999999999947 $105 $273 forward @7 unknown #
coedge $-1 -1 $-1 $107 $106 $274 $275 reversed $43 $-1 #
edge $276 -1 $-1 $277 0 $183 0.029999999999999805 $173 $278 forward @7 unknown #
coedge $-1 -1 $-1 $279 $280 $107 $179 reversed $281 $-1 #
edge $-1 -1 $-1 $282 0 $182 0.029999999999999805 $107 $283 forward @7 unknown #
coedge $-1 -1 $-1 $284 $108 $280 $285 reversed $181 $-1 #
loop $-1 -1 $-1 $-1 $108 $286 #
vertex $-1 -1 $-1 $179 $287 #
vertex $-1 -1 $-1 $177 $288 #
straight-curve $-1 -1 $-1 -0.023399999999999976 0.25614999999999988 0.011700000000000044 0 0 -1 I I #
model_id-kcp-attrib $-1 -1 $-1 $-1 $111 1 1021323773 1021323773 -832962559 7 #
face $289 -1 $-1 $209 $290 $8 $-1 $291 reversed single #
loop $-1 -1 $-1 $-1 $292 $111 #
plane-surface $-1 -1 $-1 -0.37698999999999999 3.13504 1.3848500000000001 -1 0 0 0 0 -0.99999999999999944 forward_v I I I I #
coedge $-1 -1 $-1 $293 $294 $295 $296 reversed $112 $-1 #
coedge $-1 -1 $-1 $297 $114 $116 $195 forward $69 $-1 #
coedge $-1 -1 $-1 $114 $297 $293 $298 reversed $69 $-1 #
coedge $-1 -1 $-1 $295 $117 $114 $193 forward $81 $-1 #
edge $-1 -1 $-1 $196 -0.035100000000000152 $299 0.011700000000000051 $192 $300 forward @7 unknown #
coedge $-1 -1 $-1 $116 $115 $301 $302 reversed $47 $-1 #
edge $-1 -1 $-1 $196 0.010009999999999858 $303 0.040009999999999678 $116 $304 forward @7 unknown #
vertex $-1 -1 $-1 $193 $305 #
straight-curve $-1 -1 $-1 -0.40043999999999996 3.1250300000000002 1.5019500000000001 -0.99999999999999944 0 0 I I #
coedge $-1 -1 $-1 $123 $301 $119 $199 forward $204 $-1 #
edge $306 -1 $-1 $200 -0.070299999999999863 $130 0 $119 $307 forward @7 unknown #
vertex $-1 -1 $-1 $120 $308 #
straight-curve $-1 -1 $-1 -0.37698999999999999 3.13504 1.5019500000000001 0 -0.99999999999999944 0 I I #
point $-1 -1 $-1 -0.37698999999999999 3.1250300000000002 1.5019500000000001 #
coedge $-1 -1 $-1 $309 $123 $126 $208 forward $204 $-1 #
loop $-1 -1 $-1 $-1 $310 $311 #
attrib_edge_convexity-kcp-attrib $-1 -1 $312 $-1 $124 2 #
straight-curve $-1 -1 $-1 -0.33019000000000004 3.0950300000000004 1.5722499999999999 0.99999999999999911 0 0 I I #
coedge $-1 -1 $-1 $126 $125 $313 $314 forward $127 $-1 #
edge $315 -1 $-1 $128 -0.070299999999999863 $316 0 $126 $317 forward @7 unknown #
face $318 -1 $-1 $319 $127 $8 $-1 $320 reversed single #
point $-1 -1 $-1 -0.33019000000000004 3.0950300000000004 1.5722499999999999 #
point $-1 -1 $-1 -0.37698999999999999 3.0950300000000004 1.5722499999999999 #
coedge $-1 -1 $-1 $132 $321 $322 $323 forward $81 $-1 #
coedge $-1 -1 $-1 $324 $313 $132 $214 reversed $325 $-1 #
edge $-1 -1 $-1 $326 -0.081999999999999948 $215 -0.011699999999999995 $132 $327 forward @7 unknown #
vertex $-1 -1 $-1 $133 $328 #
straight-curve $-1 -1 $-1 -0.33019000000000004 3.1250300000000002 1.5254000000000001 0 0 0.99999999999999944 I I #
coedge $-1 -1 $-1 $217 $217 $329 $330 forward $134 $-1 #
coedge $-1 -1 $-1 $321 $135 $331 $332 forward $81 $-1 #
coedge $-1 -1 $-1 $135 $295 $292 $333 forward $81 $-1 #
coedge $-1 -1 $-1 $334 $335 $135 $221 reversed $290 $-1 #
edge $-1 -1 $-1 $336 -0.035099999999999985 $337 0.011699999999999995 $135 $338 forward @7 unknown #
model_id-kcp-attrib $-1 -1 $-1 $-1 $136 1 1021323773 1021323773 -832962559 18 #
face $339 -1 $-1 $-1 $340 $8 $-1 $341 forward single #
plane-surface $-1 -1 $-1 -0.35359000000000002 3.1250300000000002 1.47855 0 1 0 0 0 0.99999999999999911 forward_v I I I I #
model_id-kcp-attrib $-1 -1 $-1 $-1 $139 1 1021323773 1021323773 -832962558 3 #
face $-1 -1 $-1 $-1 $154 $19 $-1 $342 reversed single #
loop $-1 -1 $-1 $-1 $242 $139 #
plane-surface $-1 -1 $-1 0 0.25614999999999988 0 0 -1 0 0 0 -1 forward_v I I I I #
coedge $-1 -1 $-1 $343 $240 $243 $344 forward $140 $-1 #
coedge $-1 -1 $-1 $246 $142 $143 $234 reversed $87 $-1 #
coedge $-1 -1 $-1 $240 $343 $142 $232 reversed $140 $-1 #
edge $-1 -1 $-1 $247 -0.1399999999999999 $345 0.1399999999999999 $231 $346 forward @7 unknown #
coedge $-1 -1 $-1 $144 $143 $343 $347 forward $55 $-1 #
edge $-1 -1 $-1 $238 -0.13999999999999985 $345 0.13999999999999985 $230 $348 forward @7 unknown #
coedge $-1 -1 $-1 $243 $242 $144 $236 reversed $227 $-1 #
edge $-1 -1 $-1 $349 -0.13999999999999985 $237 0.13999999999999985 $235 $350 forward @7 unknown #
vertex $-1 -1 $-1 $146 $351 #
vertex $-1 -1 $-1 $249 $352 #
straight-curve $-1 -1 $-1 0.13999999999999985 0 -0.1399999999999999 0 -1 0 I I #
coedge $-1 -1 $-1 $229 $231 $147 $241 reversed $140 $-1 #
edge $-1 -1 $-1 $244 -0.25614999999999988 $247 0.25614999999999988 $240 $353 forward @7 unknown #
coedge $-1 -1 $-1 $235 $148 $153 $250 forward $227 $-1 #
coedge $-1 -1 $-1 $148 $235 $229 $344 reversed $227 $-1 #
vertex $-1 -1 $-1 $149 $354 #
straight-curve $-1 -1 $-1 0 0.25614999999999988 0.1399999999999999 -1 0 0 I I #
coedge $-1 -1 $-1 $150 $230 $152 $249 reversed $87 $-1 #
vertex $-1 -1 $-1 $241 $355 #
straight-curve $-1 -1 $-1 0 -0.25614999999999988 0.1399999999999999 1 0 0 I I #
edge $-1 -1 $-1 $155 -0.1399999999999999 $238 0.1399999999999999 $152 $356 forward @7 unknown #
edge $-1 -1 $-1 $156 -0.1399999999999999 $237 0.1399999999999999 $153 $357 forward @7 unknown #
point $-1 -1 $-1 0.13999999999999985 -0.25614999999999988 0.1399999999999999 #
point $-1 -1 $-1 0.13999999999999985 0.25614999999999988 0.1399999999999999 #
loop $-1 -1 $-1 $-1 $164 $94 #
coedge $-1 -1 $-1 $254 $254 $162 $255 forward $158 $-1 #
edge $358 -1 $-1 $359 -3.1415926535897931 $359 3.1415926535897931 $162 $360 forward @7 unknown #
vertex $-1 -1 $-1 $163 $361 #
ellipse-curve $-1 -1 $-1 0 -0.25614999999999988 0 0 1 0 0 0 -0.13999999999999987 1 I I #
convexity-sys-attrib $-1 -1 $-1 $-1 $165 #
vertex $-1 -1 $-1 $165 $362 #
ellipse-curve $-1 -1 $-1 0 0.18135000000000012 0 0 -1 0 0 0 -0.067999999999999949 1 I I #
point $-1 -1 $-1 0 -0.25614999999999988 -0.067999999999999838 #
face $-1 -1 $-1 $363 $364 $23 $-1 $365 forward single #
loop $-1 -1 $-1 $-1 $366 $168 #
plane-surface $-1 -1 $-1 -0.023399999999999976 0.22615000000000007 -0.023400000000000087 -1 0 0 0 0 1 forward_v I I I I #
coedge $-1 -1 $-1 $367 $368 $369 $370 forward $169 $-1 #
coedge $-1 -1 $-1 $371 $171 $368 $372 reversed $103 $-1 #
coedge $-1 -1 $-1 $171 $371 $172 $271 forward $103 $-1 #
coedge $-1 -1 $-1 $174 $369 $171 $269 reversed $181 $-1 #
edge $-1 -1 $-1 $272 -0.035100000000000131 $373 0.011700000000000044 $171 $374 forward @7 unknown #
coedge $-1 -1 $-1 $173 $172 $375 $376 reversed $64 $-1 #
edge $-1 -1 $-1 $377 0 $272 0.029999999999999805 $267 $378 forward @7 unknown #
vertex $-1 -1 $-1 $271 $379 #
straight-curve $-1 -1 $-1 -0.046850000000000003 0.25614999999999988 0.023400000000000087 -1 0 0 I I #
coedge $-1 -1 $-1 $375 $380 $176 $275 forward $381 $-1 #
edge $382 -1 $-1 $282 -0.081999999999999851 $277 -0.011700000000000044 $176 $383 forward @7 unknown #
convexity-sys-attrib $-1 -1 $-1 $-1 $177 #
vertex $-1 -1 $-1 $275 $384 #
straight-curve $-1 -1 $-1 -0.023399999999999976 0.22615000000000007 0.023400000000000087 0 1 0 I I #
coedge $-1 -1 $-1 $385 $178 $380 $386 reversed $281 $-1 #
coedge $-1 -1 $-1 $178 $385 $180 $285 forward $281 $-1 #
loop $-1 -1 $-1 $-1 $280 $387 #
vertex $-1 -1 $-1 $386 $388 #
straight-curve $-1 -1 $-1 -0.023399999999999976 0.22615000000000007 0.093699999999999894 0 1 0 I I #
coedge $-1 -1 $-1 $389 $180 $390 $391 reversed $181 $-1 #
edge $-1 -1 $-1 $392 -0.035099999999999992 $182 0.01169999999999996 $280 $393 forward @7 unknown #
face $-1 -1 $-1 $394 $181 $23 $-1 $395 forward single #
point $-1 -1 $-1 -0.023399999999999976 0.25614999999999988 0.093699999999999894 #
point $-1 -1 $-1 -0.023399999999999976 0.25614999999999988 0.023400000000000087 #
model_id-kcp-attrib $-1 -1 $-1 $-1 $186 1 1021323773 1021323773 -832962559 8 #
loop $-1 -1 $-1 $-1 $220 $186 #
plane-surface $-1 -1 $-1 -0.33019000000000004 3.13504 1.3848500000000001 0 0 -1 0.99999999999999944 0 0 forward_v I I I I #
coedge $-1 -1 $-1 $396 $397 $219 $333 reversed $187 $-1 #
coedge $-1 -1 $-1 $398 $189 $191 $298 forward $112 $-1 #
coedge $-1 -1 $-1 $189 $398 $396 $399 reversed $112 $-1 #
coedge $-1 -1 $-1 $219 $192 $189 $296 forward $81 $-1 #
edge $-1 -1 $-1 $299 -0.082000000000000003 $400 -0.011699999999999995 $295 $401 forward @7 unknown #
coedge $-1 -1 $-1 $191 $190 $402 $403 reversed $69 $-1 #
edge $-1 -1 $-1 $299 0.010009999999999858 $404 0.040009999999999678 $191 $405 forward @7 unknown #
vertex $-1 -1 $-1 $296 $406 #
straight-curve $-1 -1 $-1 -0.44728999999999997 3.1250300000000002 1.46685 0 0 -0.99999999999999944 I I #
coedge $-1 -1 $-1 $198 $402 $194 $302 forward $204 $-1 #
edge $407 -1 $-1 $303 -0.070300000000000029 $200 0 $194 $408 forward @7 unknown #
vertex $-1 -1 $-1 $195 $409 #
straight-curve $-1 -1 $-1 -0.44728999999999997 3.13504 1.5019500000000001 0 -0.99999999999999944 0 I I #
point $-1 -1 $-1 -0.44728999999999997 3.1250300000000002 1.5019500000000001 #
attrib_edge_convexity-kcp-attrib $-1 -1 $410 $-1 $199 2 #
straight-curve $-1 -1 $-1 -0.37698999999999999 3.0950300000000004 1.5722499999999999 0 0 0.99999999999999911 I I #
point $-1 -1 $-1 -0.37698999999999999 3.0950300000000004 1.5019500000000001 #
coedge $-1 -1 $-1 $411 $203 $412 $413 forward $204 $-1 #
coedge $-1 -1 $-1 $414 $415 $416 $417 forward $204 $-1 #
face $418 -1 $-1 $419 $204 $8 $-1 $420 reversed single #
convexity-sys-attrib $-1 -1 $-1 $205 $124 #
coedge $-1 -1 $-1 $213 $412 $207 $314 reversed $325 $-1 #
edge $-1 -1 $-1 $215 0.010009999999999858 $316 0.040009999999999678 $313 $421 forward @7 unknown #
attrib_edge_convexity-kcp-attrib $-1 -1 $422 $-1 $208 2 #
vertex $-1 -1 $-1 $314 $423 #
straight-curve $-1 -1 $-1 -0.33019000000000004 3.0950300000000004 1.5019500000000001 0 0 -0.99999999999999911 I I #
model_id-kcp-attrib $-1 -1 $-1 $-1 $209 1 1021323773 1021323773 -832962559 9 #
face $424 -1 $-1 $425 $325 $8 $-1 $426 reversed single #
plane-surface $-1 -1 $-1 -0.33019000000000004 3.13504 1.5722499999999999 1 0 0 0 0 0.99999999999999944 forward_v I I I I #
coedge $-1 -1 $-1 $212 $218 $427 $428 forward $81 $-1 #
coedge $-1 -1 $-1 $429 $430 $212 $323 reversed $431 $-1 #
edge $-1 -1 $-1 $432 -0.035100000000000152 $326 0.011700000000000051 $212 $433 forward @7 unknown #
coedge $-1 -1 $-1 $412 $213 $430 $434 forward $325 $-1 #
loop $-1 -1 $-1 $-1 $213 $319 #
vertex $-1 -1 $-1 $214 $435 #
straight-curve $-1 -1 $-1 -0.34189000000000003 3.1250300000000002 1.5019500000000001 -0.99999999999999944 0 0 I I #
point $-1 -1 $-1 -0.33019000000000004 3.1250300000000002 1.5019500000000001 #
coedge $-1 -1 $-1 $329 $329 $217 $330 reversed $436 $-1 #
edge $-1 -1 $-1 $437 0 $437 6.2831853071795862 $217 $438 forward @7 unknown #
coedge $-1 -1 $-1 $439 $440 $218 $332 reversed $441 $-1 #
edge $-1 -1 $-1 $337 -0.081999999999999892 $442 -0.011700000000000051 $218 $443 forward @7 unknown #
edge $-1 -1 $-1 $400 -0.023449999999999985 $336 0.046849999999999864 $219 $444 forward @7 unknown #
coedge $-1 -1 $-1 $416 $220 $397 $445 forward $290 $-1 #
coedge $-1 -1 $-1 $220 $416 $439 $446 reversed $290 $-1 #
vertex $-1 -1 $-1 $221 $447 #
vertex $-1 -1 $-1 $221 $448 #
straight-curve $-1 -1 $-1 -0.34189000000000003 3.1250300000000002 1.3848500000000001 0.99999999999999944 0 0 I I #
model_id-kcp-attrib $-1 -1 $-1 $-1 $223 1 1021323773 1021323773 -832962559 19 #
loop $-1 -1 $-1 $449 $450 $223 #
plane-surface $-1 -1 $-1 -0.35359000000000002 3.0502300000000004 1.47855 0 -1 0 0 0 -0.99999999999999911 forward_v I I I I #
plane-surface $-1 -1 $-1 0.13999999999999985 0 0 -1 0 0 0 0 1 forward_v I I I I #
coedge $-1 -1 $-1 $231 $229 $233 $347 reversed $140 $-1 #
edge $-1 -1 $-1 $244 -0.1399999999999999 $349 0.1399999999999999 $243 $451 forward @7 unknown #
vertex $-1 -1 $-1 $347 $452 #
straight-curve $-1 -1 $-1 -0.13999999999999985 -0.25614999999999988 0 0 0 -1 I I #
edge $-1 -1 $-1 $345 -0.25614999999999988 $349 0.25614999999999988 $343 $453 forward @7 unknown #
straight-curve $-1 -1 $-1 0 -0.25614999999999988 -0.1399999999999999 -1 0 0 I I #
vertex $-1 -1 $-1 $236 $454 #
straight-curve $-1 -1 $-1 0 0.25614999999999988 -0.1399999999999999 1 0 0 I I #
point $-1 -1 $-1 0.13999999999999985 0.25614999999999988 -0.1399999999999999 #
point $-1 -1 $-1 0.13999999999999985 -0.25614999999999988 -0.1399999999999999 #
straight-curve $-1 -1 $-1 -0.13999999999999985 0 0.1399999999999999 0 -1 0 I I #
point $-1 -1 $-1 -0.13999999999999985 0.25614999999999988 0.1399999999999999 #
point $-1 -1 $-1 -0.13999999999999985 -0.25614999999999988 0.1399999999999999 #
straight-curve $-1 -1 $-1 0.13999999999999985 -0.25614999999999988 0 0 0 -1 I I #
straight-curve $-1 -1 $-1 0.13999999999999985 0.25614999999999988 0 0 0 -1 I I #
convexity-sys-attrib $-1 -1 $-1 $-1 $255 #
vertex $-1 -1 $-1 $255 $455 #
ellipse-curve $-1 -1 $-1 0 0.18135000000000012 0 0 1 0 0 0 -0.13999999999999987 1 I I #
point $-1 -1 $-1 1.7144488953513266e-017 -0.25614999999999988 0.13999999999999987 #
point $-1 -1 $-1 0 0.18135000000000012 -0.067999999999999838 #
face $-1 -1 $-1 $456 $457 $23 $-1 $458 forward single #
loop $-1 -1 $-1 $-1 $459 $262 #
plane-surface $-1 -1 $-1 -0.023399999999999976 0.22615000000000007 -0.093699999999999894 0 0 -1 -1 0 0 forward_v I I I I #
coedge $-1 -1 $-1 $460 $461 $462 $463 forward $263 $-1 #
coedge $-1 -1 $-1 $464 $265 $461 $465 reversed $169 $-1 #
coedge $-1 -1 $-1 $265 $464 $266 $372 forward $169 $-1 #
coedge $-1 -1 $-1 $268 $462 $265 $370 reversed $181 $-1 #
edge $-1 -1 $-1 $373 -0.081999999999999934 $466 -0.01169999999999996 $265 $467 forward @7 unknown #
coedge $-1 -1 $-1 $267 $266 $468 $469 reversed $103 $-1 #
edge $-1 -1 $-1 $470 0 $373 0.029999999999999805 $368 $471 forward @7 unknown #
vertex $-1 -1 $-1 $372 $472 #
straight-curve $-1 -1 $-1 -0.09369999999999995 0.25614999999999988 -0.011700000000000044 0 0 -1 I I #
coedge $-1 -1 $-1 $468 $274 $270 $376 forward $381 $-1 #
edge $473 -1 $-1 $277 -0.023450000000000026 $377 0.046849999999999947 $270 $474 forward @7 unknown #
vertex $-1 -1 $-1 $376 $475 #
straight-curve $-1 -1 $-1 -0.09369999999999995 0.22615000000000007 0.023400000000000087 0 1 0 I I #
point $-1 -1 $-1 -0.09369999999999995 0.25614999999999988 0.023400000000000087 #
coedge $-1 -1 $-1 $274 $476 $279 $386 forward $381 $-1 #
loop $-1 -1 $-1 $-1 $380 $394 #
convexity-sys-attrib $-1 -1 $-1 $-1 $275 #
straight-curve $-1 -1 $-1 -0.023399999999999976 0.22615000000000007 0.011700000000000044 0 0 -1 I I #
point $-1 -1 $-1 -0.023399999999999976 0.22615000000000007 0.023400000000000087 #
coedge $-1 -1 $-1 $280 $279 $477 $478 forward $281 $-1 #
edge $479 -1 $-1 $480 -0.035099999999999992 $282 0.01169999999999996 $279 $481 forward @7 unknown #
face $-1 -1 $-1 $286 $281 $23 $-1 $482 forward single #
point $-1 -1 $-1 -0.023399999999999976 0.22615000000000007 0.093699999999999894 #
coedge $-1 -1 $-1 $483 $284 $484 $485 reversed $181 $-1 #
coedge $-1 -1 $-1 $477 $486 $284 $391 forward $487 $-1 #
edge $-1 -1 $-1 $488 -0.02344999999999986 $392 0.046849999999999947 $390 $489 forward @7 unknown #
vertex $-1 -1 $-1 $478 $490 #
straight-curve $-1 -1 $-1 -0.011700000000000016 0.25614999999999988 0.093699999999999894 -1 0 0 I I #
face $-1 -1 $-1 $-1 $381 $23 $-1 $491 reversed single #
plane-surface $-1 -1 $-1 -1.9949319973733282e-017 0.25614999999999982 0 6.767794263797826e-031 1 4.5986294356574967e-031 0 -4.5986294356574967e-031 1 forward_v I I I I #
coedge $-1 -1 $-1 $492 $292 $294 $399 forward $187 $-1 #
coedge $-1 -1 $-1 $292 $492 $334 $445 reversed $187 $-1 #
coedge $-1 -1 $-1 $294 $293 $493 $494 reversed $112 $-1 #
edge $-1 -1 $-1 $400 0.010009999999999858 $495 0.040009999999999678 $294 $496 forward @7 unknown #
vertex $-1 -1 $-1 $333 $497 #
straight-curve $-1 -1 $-1 -0.36529 3.1250300000000002 1.4551499999999999 0.99999999999999944 0 0 I I #
coedge $-1 -1 $-1 $301 $493 $297 $403 forward $204 $-1 #
edge $498 -1 $-1 $404 -0.046800000000000216 $303 0 $297 $499 forward @7 unknown #
vertex $-1 -1 $-1 $298 $500 #
straight-curve $-1 -1 $-1 -0.44728999999999997 3.13504 1.4551499999999999 0 -0.99999999999999944 0 I I #
point $-1 -1 $-1 -0.44728999999999997 3.1250300000000002 1.4551499999999999 #
attrib_edge_convexity-kcp-attrib $-1 -1 $501 $-1 $302 2 #
straight-curve $-1 -1 $-1 -0.37698999999999999 3.0950300000000004 1.5019500000000001 0.99999999999999911 0 0 I I #
point $-1 -1 $-1 -0.44728999999999997 3.0950300000000004 1.5019500000000001 #
convexity-sys-attrib $-1 -1 $-1 $306 $199 #
coedge $-1 -1 $-1 $502 $309 $503 $504 forward $204 $-1 #
coedge $-1 -1 $-1 $313 $324 $309 $413 reversed $325 $-1 #
edge $505 -1 $-1 $316 -0.070299999999999974 $506 0 $412 $507 forward @7 unknown #
coedge $-1 -1 $-1 $493 $310 $492 $508 forward $204 $-1 #
coedge $-1 -1 $-1 $310 $502 $509 $510 forward $204 $-1 #
coedge $-1 -1 $-1 $335 $334 $310 $417 reversed $290 $-1 #
edge $511 -1 $-1 $512 -0.046799999999999994 $513 0 $416 $514 forward @7 unknown #
model_id-kcp-attrib $-1 -1 $-1 $-1 $311 1 1021323773 1021323773 -832962559 14 #
face $515 -1 $-1 $516 $517 $8 $-1 $518 forward single #
plane-surface $-1 -1 $-1 -0.33019000000000004 3.0950300000000004 1.3848500000000001 0 -1 0 0 0 -0.99999999999999944 forward_v I I I I #
straight-curve $-1 -1 $-1 -0.33019000000000004 3.13504 1.5019500000000001 0 -0.99999999999999944 0 I I #
convexity-sys-attrib $-1 -1 $-1 $315 $208 #
point $-1 -1 $-1 -0.33019000000000004 3.0950300000000004 1.5019500000000001 #
model_id-kcp-attrib $-1 -1 $-1 $-1 $319 1 1021323773 1021323773 -832962559 10 #
face $519 -1 $-1 $520 $431 $8 $-1 $521 reversed single #
plane-surface $-1 -1 $-1 -0.33019000000000004 3.13504 1.5019500000000001 0 0 1 -0.99999999999999944 0 0 forward_v I I I I #
coedge $-1 -1 $-1 $522 $523 $321 $428 reversed $524 $-1 #
edge $-1 -1 $-1 $442 -0.023449999999999985 $432 0.046849999999999975 $321 $525 forward @7 unknown #
coedge $-1 -1 $-1 $503 $322 $523 $526 forward $431 $-1 #
coedge $-1 -1 $-1 $322 $503 $324 $434 reversed $431 $-1 #
loop $-1 -1 $-1 $-1 $322 $425 #
vertex $-1 -1 $-1 $323 $527 #
straight-curve $-1 -1 $-1 -0.25989000000000012 3.1250300000000002 1.4902500000000001 0 0 0.99999999999999944 I I #
edge $-1 -1 $-1 $326 0.010009999999999858 $506 0.040009999999999678 $430 $528 forward @7 unknown #
point $-1 -1 $-1 -0.25989000000000012 3.1250300000000002 1.5019500000000001 #
loop $-1 -1 $-1 $529 $329 $530 #
vertex $-1 -1 $-1 $330 $531 #
ellipse-curve $-1 -1 $-1 -0.35359000000000002 3.1250300000000002 1.47855 0 1 0 0 0 -0.13999999999999987 1 I I #
coedge $-1 -1 $-1 $509 $331 $335 $446 forward $441 $-1 #
coedge $-1 -1 $-1 $331 $509 $522 $532 reversed $441 $-1 #
loop $-1 -1 $-1 $-1 $331 $533 #
vertex $-1 -1 $-1 $428 $534 #
straight-curve $-1 -1 $-1 -0.33019000000000004 3.1250300000000002 1.46685 0 0 0.99999999999999944 I I #
straight-curve $-1 -1 $-1 -0.37698999999999999 3.1250300000000002 1.4317 0 0 -0.99999999999999944 I I #
edge $-1 -1 $-1 $336 0.010009999999999858 $513 0.040009999999999678 $397 $535 forward @7 unknown #
edge $-1 -1 $-1 $337 0.010009999999999858 $512 0.040009999999999678 $335 $536 forward @7 unknown #
point $-1 -1 $-1 -0.37698999999999999 3.1250300000000002 1.3848500000000001 #
point $-1 -1 $-1 -0.33019000000000004 3.1250300000000002 1.3848500000000001 #
loop $-1 -1 $-1 $-1 $537 $223 #
coedge $-1 -1 $-1 $450 $450 $538 $539 forward $340 $-1 #
straight-curve $-1 -1 $-1 -0.13999999999999985 0.25614999999999988 0 0 0 -1 I I #
point $-1 -1 $-1 -0.13999999999999985 -0.25614999999999988 -0.1399999999999999 #
straight-curve $-1 -1 $-1 -0.13999999999999985 0 -0.1399999999999999 0 1 0 I I #
point $-1 -1 $-1 -0.13999999999999985 0.25614999999999988 -0.1399999999999999 #
point $-1 -1 $-1 1.7144488953513266e-017 0.18135000000000012 0.13999999999999987 #
face $-1 -1 $-1 $540 $541 $23 $-1 $542 forward single #
loop $-1 -1 $-1 $-1 $543 $363 #
plane-surface $-1 -1 $-1 0.023399999999999976 0.22615000000000007 -0.093699999999999894 1 0 0 0 0 -1 forward_v I I I I #
coedge $-1 -1 $-1 $544 $545 $546 $547 forward $364 $-1 #
coedge $-1 -1 $-1 $548 $366 $545 $549 reversed $263 $-1 #
coedge $-1 -1 $-1 $366 $548 $367 $465 forward $263 $-1 #
coedge $-1 -1 $-1 $369 $546 $366 $463 reversed $181 $-1 #
edge $-1 -1 $-1 $466 -0.02344999999999986 $550 0.046849999999999947 $366 $551 forward @7 unknown #
coedge $-1 -1 $-1 $368 $367 $552 $553 reversed $169 $-1 #
edge $-1 -1 $-1 $554 0 $466 0.029999999999999805 $461 $555 forward @7 unknown #
vertex $-1 -1 $-1 $465 $556 #
straight-curve $-1 -1 $-1 -0.011700000000000016 0.25614999999999988 -0.023400000000000087 1 0 0 I I #
coedge $-1 -1 $-1 $552 $375 $371 $469 forward $381 $-1 #
edge $557 -1 $-1 $377 -0.035100000000000131 $470 0.011700000000000044 $371 $558 forward @7 unknown #
vertex $-1 -1 $-1 $469 $559 #
straight-curve $-1 -1 $-1 -0.09369999999999995 0.22615000000000007 -0.023400000000000087 0 1 0 I I #
point $-1 -1 $-1 -0.09369999999999995 0.25614999999999988 -0.023400000000000087 #
convexity-sys-attrib $-1 -1 $-1 $-1 $376 #
straight-curve $-1 -1 $-1 -0.046850000000000003 0.22615000000000007 0.023400000000000087 -1 0 0 I I #
point $-1 -1 $-1 -0.09369999999999995 0.22615000000000007 0.023400000000000087 #
coedge $-1 -1 $-1 $380 $560 $561 $562 forward $381 $-1 #
coedge $-1 -1 $-1 $561 $390 $385 $478 reversed $487 $-1 #
edge $-1 -1 $-1 $480 0 $392 0.029999999999999805 $385 $563 forward @7 unknown #
convexity-sys-attrib $-1 -1 $-1 $-1 $386 #
vertex $-1 -1 $-1 $386 $564 #
straight-curve $-1 -1 $-1 -0.011700000000000016 0.22615000000000007 0.093699999999999894 -1 0 0 I I #
plane-surface $-1 -1 $-1 0.023399999999999976 0.22615000000000007 0.093699999999999894 0 0 1 1 0 0 forward_v I I I I #
coedge $-1 -1 $-1 $565 $389 $566 $567 reversed $181 $-1 #
coedge $-1 -1 $-1 $568 $569 $389 $485 forward $570 $-1 #
edge $-1 -1 $-1 $571 -0.081999999999999934 $488 -0.011700000000000016 $484 $572 forward @7 unknown #
coedge $-1 -1 $-1 $390 $561 $568 $573 forward $487 $-1 #
loop $-1 -1 $-1 $-1 $390 $574 #
vertex $-1 -1 $-1 $573 $575 #
straight-curve $-1 -1 $-1 0.023399999999999976 0.25614999999999988 0.046849999999999947 0 0 1 I I #
point $-1 -1 $-1 0.023399999999999976 0.25614999999999988 0.093699999999999894 #
plane-surface $-1 -1 $-1 -1.9949319973733282e-017 0.22615000000000002 0 6.767794263797826e-031 1 4.5986294356574967e-031 0 -4.5986294356574967e-031 1 forward_v I I I I #
coedge $-1 -1 $-1 $397 $396 $414 $508 reversed $187 $-1 #
coedge $-1 -1 $-1 $402 $414 $398 $494 forward $204 $-1 #
edge $576 -1 $-1 $495 -0.070300000000000029 $404 0 $398 $577 forward @7 unknown #
vertex $-1 -1 $-1 $399 $578 #
straight-curve $-1 -1 $-1 -0.37698999999999999 3.13504 1.4551499999999999 0 -0.99999999999999944 0 I I #
point $-1 -1 $-1 -0.37698999999999999 3.1250300000000002 1.4551499999999999 #
attrib_edge_convexity-kcp-attrib $-1 -1 $579 $-1 $403 2 #
straight-curve $-1 -1 $-1 -0.44728999999999997 3.0950300000000004 1.5019500000000001 0 0 0.99999999999999911 I I #
point $-1 -1 $-1 -0.44728999999999997 3.0950300000000004 1.4551499999999999 #
convexity-sys-attrib $-1 -1 $-1 $407 $302 #
coedge $-1 -1 $-1 $415 $411 $580 $581 forward $204 $-1 #
coedge $-1 -1 $-1 $430 $429 $411 $504 reversed $431 $-1 #
edge $582 -1 $-1 $506 -0.046800000000000216 $583 0 $503 $584 forward @7 unknown #
attrib_edge_convexity-kcp-attrib $-1 -1 $585 $-1 $413 2 #
vertex $-1 -1 $-1 $434 $586 #
straight-curve $-1 -1 $-1 -0.25989000000000012 3.0950300000000004 1.5019500000000001 0.99999999999999911 0 0 I I #
edge $587 -1 $-1 $513 -0.070299999999999863 $495 0 $492 $588 forward @7 unknown #
coedge $-1 -1 $-1 $440 $439 $415 $510 reversed $441 $-1 #
edge $589 -1 $-1 $590 -0.070299999999999863 $512 0 $509 $591 forward @7 unknown #
attrib_edge_convexity-kcp-attrib $-1 -1 $592 $-1 $417 2 #
vertex $-1 -1 $-1 $446 $593 #
vertex $-1 -1 $-1 $445 $594 #
straight-curve $-1 -1 $-1 -0.37698999999999999 3.0950300000000004 1.3848500000000001 -0.99999999999999911 0 0 I I #
model_id-kcp-attrib $-1 -1 $-1 $-1 $419 1 1021323773 1021323773 -832962559 15 #
face $595 -1 $-1 $530 $596 $8 $-1 $597 forward single #
loop $-1 -1 $-1 $598 $538 $419 #
cone-surface $-1 -1 $-1 -0.35359000000000002 2.8314800000000004 1.47855 0 -1 0 0 0 -0.067999999999999949 1 I I 0 1 0.067999999999999949 forward I I I I #
model_id-kcp-attrib $-1 -1 $-1 $-1 $425 1 1021323773 1021323773 -832962559 11 #
face $599 -1 $-1 $533 $524 $8 $-1 $600 reversed single #
plane-surface $-1 -1 $-1 -0.25989000000000012 3.13504 1.5019500000000001 1 0 0 0 0 0.99999999999999944 forward_v I I I I #
coedge $-1 -1 $-1 $580 $427 $440 $532 forward $524 $-1 #
coedge $-1 -1 $-1 $427 $580 $429 $526 reversed $524 $-1 #
loop $-1 -1 $-1 $-1 $427 $520 #
straight-curve $-1 -1 $-1 -0.30674000000000007 3.1250300000000002 1.4551499999999999 0.99999999999999944 0 0 I I #
edge $-1 -1 $-1 $432 0.010009999999999858 $583 0.040009999999999678 $523 $601 forward @7 unknown #
point $-1 -1 $-1 -0.25989000000000012 3.1250300000000002 1.4551499999999999 #
straight-curve $-1 -1 $-1 -0.25989000000000012 3.13504 1.5019500000000001 0 -0.99999999999999944 0 I I #
loop $-1 -1 $-1 $-1 $602 $530 #
face $603 -1 $-1 $136 $436 $8 $-1 $604 forward single #
point $-1 -1 $-1 -0.35359000000000002 3.1250300000000002 1.3385500000000001 #
edge $-1 -1 $-1 $442 0.010009999999999858 $590 0.040009999999999678 $440 $605 forward @7 unknown #
face $606 -1 $-1 $311 $441 $8 $-1 $607 reversed single #
point $-1 -1 $-1 -0.33019000000000004 3.1250300000000002 1.4551499999999999 #
straight-curve $-1 -1 $-1 -0.37698999999999999 3.13504 1.3848500000000001 0 -0.99999999999999944 0 I I #
straight-curve $-1 -1 $-1 -0.33019000000000004 3.13504 1.3848500000000001 0 -0.99999999999999944 0 I I #
coedge $-1 -1 $-1 $537 $537 $602 $608 forward $449 $-1 #
coedge $-1 -1 $-1 $538 $538 $450 $539 reversed $517 $-1 #
edge $609 -1 $-1 $610 0 $610 6.2831853071795862 $450 $611 forward @7 unknown #
face $-1 -1 $-1 $612 $613 $23 $-1 $614 forward single #
loop $-1 -1 $-1 $-1 $615 $456 #
plane-surface $-1 -1 $-1 0.023399999999999976 0.22615000000000007 -0.023400000000000087 0 0 -1 -1 0 0 forward_v I I I I #
coedge $-1 -1 $-1 $616 $617 $618 $619 forward $457 $-1 #
coedge $-1 -1 $-1 $620 $459 $617 $621 reversed $364 $-1 #
coedge $-1 -1 $-1 $459 $620 $460 $549 forward $364 $-1 #
coedge $-1 -1 $-1 $462 $618 $459 $547 reversed $181 $-1 #
edge $-1 -1 $-1 $550 -0.035099999999999937 $622 0.011700000000000016 $459 $623 forward @7 unknown #
coedge $-1 -1 $-1 $461 $460 $624 $625 reversed $263 $-1 #
edge $-1 -1 $-1 $626 0 $550 0.029999999999999805 $545 $627 forward @7 unknown #
vertex $-1 -1 $-1 $549 $628 #
straight-curve $-1 -1 $-1 -0.023399999999999976 0.25614999999999988 -0.046849999999999947 0 0 -1 I I #
coedge $-1 -1 $-1 $624 $468 $464 $553 forward $381 $-1 #
edge $629 -1 $-1 $470 -0.081999999999999934 $554 -0.01169999999999996 $464 $630 forward @7 unknown #
vertex $-1 -1 $-1 $553 $631 #
straight-curve $-1 -1 $-1 -0.023399999999999976 0.22615000000000007 -0.023400000000000087 0 1 0 I I #
point $-1 -1 $-1 -0.023399999999999976 0.25614999999999988 -0.023400000000000087 #
convexity-sys-attrib $-1 -1 $-1 $-1 $469 #
straight-curve $-1 -1 $-1 -0.09369999999999995 0.22615000000000007 -0.011700000000000044 0 0 -1 I I #
point $-1 -1 $-1 -0.09369999999999995 0.22615000000000007 -0.023400000000000087 #
coedge $-1 -1 $-1 $476 $632 $633 $634 forward $381 $-1 #
coedge $-1 -1 $-1 $486 $477 $476 $562 reversed $487 $-1 #
edge $635 -1 $-1 $636 -0.02344999999999986 $480 0.046849999999999947 $561 $637 forward @7 unknown #
straight-curve $-1 -1 $-1 0.023399999999999976 0.22615000000000007 0.093699999999999894 0 1 0 I I #
point $-1 -1 $-1 0.023399999999999976 0.22615000000000007 0.093699999999999894 #
coedge $-1 -1 $-1 $618 $483 $615 $638 reversed $181 $-1 #
coedge $-1 -1 $-1 $639 $640 $483 $567 forward $613 $-1 #
edge $-1 -1 $-1 $641 -0.035100000000000131 $571 0.011700000000000044 $566 $642 forward @7 unknown #
coedge $-1 -1 $-1 $633 $484 $486 $573 reversed $570 $-1 #
coedge $-1 -1 $-1 $484 $633 $639 $643 forward $570 $-1 #
loop $-1 -1 $-1 $-1 $484 $612 #
vertex $-1 -1 $-1 $643 $644 #
straight-curve $-1 -1 $-1 0.01169999999999996 0.25614999999999988 0.023400000000000087 -1 0 0 I I #
edge $-1 -1 $-1 $636 0 $488 0.029999999999999805 $486 $645 forward @7 unknown #
face $-1 -1 $-1 $387 $487 $23 $-1 $646 forward single #
point $-1 -1 $-1 0.023399999999999976 0.25614999999999988 0.023400000000000087 #
attrib_edge_convexity-kcp-attrib $-1 -1 $647 $-1 $494 2 #
straight-curve $-1 -1 $-1 -0.44728999999999997 3.0950300000000004 1.4551499999999999 -0.99999999999999911 0 0 I I #
point $-1 -1 $-1 -0.37698999999999999 3.0950300000000004 1.4551499999999999 #
convexity-sys-attrib $-1 -1 $-1 $498 $403 #
coedge $-1 -1 $-1 $523 $522 $502 $581 reversed $524 $-1 #
edge $648 -1 $-1 $583 -0.070299999999999974 $590 0 $580 $649 forward @7 unknown #
attrib_edge_convexity-kcp-attrib $-1 -1 $650 $-1 $504 2 #
vertex $-1 -1 $-1 $526 $651 #
straight-curve $-1 -1 $-1 -0.25989000000000012 3.0950300000000004 1.4551499999999999 0 0 -0.99999999999999911 I I #
convexity-sys-attrib $-1 -1 $-1 $505 $413 #
point $-1 -1 $-1 -0.25989000000000012 3.0950300000000004 1.5019500000000001 #
attrib_edge_convexity-kcp-attrib $-1 -1 $652 $-1 $508 2 #
straight-curve $-1 -1 $-1 -0.37698999999999999 3.0950300000000004 1.4551499999999999 0 0 0.99999999999999911 I I #
attrib_edge_convexity-kcp-attrib $-1 -1 $653 $-1 $510 2 #
vertex $-1 -1 $-1 $532 $654 #
straight-curve $-1 -1 $-1 -0.33019000000000004 3.0950300000000004 1.3848500000000001 0 0 -0.99999999999999911 I I #
convexity-sys-attrib $-1 -1 $-1 $511 $417 #
point $-1 -1 $-1 -0.33019000000000004 3.0950300000000004 1.3848500000000001 #
point $-1 -1 $-1 -0.37698999999999999 3.0950300000000004 1.3848500000000001 #
model_id-kcp-attrib $-1 -1 $-1 $-1 $516 1 1021323773 1021323773 -832962559 16 #
loop $-1 -1 $-1 $-1 $655 $516 #
plane-surface $-1 -1 $-1 -0.35359000000000002 2.6127300000000004 1.47855 0 -1 0 0 0 -0.99999999999999911 forward_v I I I I #
loop $-1 -1 $-1 $-1 $656 $419 #
model_id-kcp-attrib $-1 -1 $-1 $-1 $520 1 1021323773 1021323773 -832962559 12 #
plane-surface $-1 -1 $-1 -0.25989000000000012 3.13504 1.4551499999999999 0 0 -1 0.99999999999999944 0 0 forward_v I I I I #
straight-curve $-1 -1 $-1 -0.25989000000000012 3.13504 1.4551499999999999 0 -0.99999999999999944 0 I I #
coedge $-1 -1 $-1 $602 $602 $537 $608 reversed $529 $-1 #
model_id-kcp-attrib $-1 -1 $-1 $-1 $530 1 1021323773 1021323773 -832962559 17 #
cone-surface $-1 -1 $-1 -0.35359000000000002 3.0876300000000003 1.47855 0 -1 0 0 0 -0.10749999999999992 1 I I -0.65592884268757656 0.75482272973893427 0.10749999999999992 forward I I I I #
straight-curve $-1 -1 $-1 -0.33019000000000004 3.13504 1.4551499999999999 0 -0.99999999999999944 0 I I #
model_id-kcp-attrib $-1 -1 $-1 $-1 $533 1 1021323773 1021323773 -832962559 13 #
plane-surface $-1 -1 $-1 -0.33019000000000004 3.13504 1.4551499999999999 1 0 0 0 0 0.99999999999999944 forward_v I I I I #
edge $657 -1 $-1 $658 0 $658 6.2831853071795862 $537 $659 forward @7 unknown #
attrib_edge_convexity-kcp-attrib $-1 -1 $660 $-1 $539 2 #
vertex $-1 -1 $-1 $539 $661 #
ellipse-curve $-1 -1 $-1 -0.35359000000000002 3.0502300000000004 1.47855 0 1 0 0 0 -0.067999999999999949 1 I I #
face $-1 -1 $-1 $574 $570 $23 $-1 $662 forward single #
loop $-1 -1 $-1 $-1 $566 $540 #
plane-surface $-1 -1 $-1 0.093699999999999894 0.22615000000000007 -0.023400000000000087 1 0 0 0 0 -1 forward_v I I I I #
coedge $-1 -1 $-1 $663 $664 $565 $638 forward $541 $-1 #
coedge $-1 -1 $-1 $665 $543 $664 $666 reversed $457 $-1 #
coedge $-1 -1 $-1 $543 $665 $544 $621 forward $457 $-1 #
coedge $-1 -1 $-1 $546 $565 $543 $619 reversed $181 $-1 #
edge $-1 -1 $-1 $622 -0.081999999999999851 $667 -0.011700000000000044 $543 $668 forward @7 unknown #
coedge $-1 -1 $-1 $545 $544 $669 $670 reversed $364 $-1 #
edge $-1 -1 $-1 $671 0 $622 0.029999999999999805 $617 $672 forward @7 unknown #
vertex $-1 -1 $-1 $621 $673 #
straight-curve $-1 -1 $-1 0.01169999999999996 0.25614999999999988 -0.093699999999999894 1 0 0 I I #
coedge $-1 -1 $-1 $669 $552 $548 $625 forward $381 $-1 #
edge $674 -1 $-1 $554 -0.02344999999999986 $626 0.046849999999999947 $548 $675 forward @7 unknown #
vertex $-1 -1 $-1 $625 $676 #
straight-curve $-1 -1 $-1 -0.023399999999999976 0.22615000000000007 -0.093699999999999894 0 1 0 I I #
point $-1 -1 $-1 -0.023399999999999976 0.25614999999999988 -0.093699999999999894 #
convexity-sys-attrib $-1 -1 $-1 $-1 $553 #
straight-curve $-1 -1 $-1 -0.011700000000000016 0.22615000000000007 -0.023400000000000087 1 0 0 I I #
point $-1 -1 $-1 -0.023399999999999976 0.22615000000000007 -0.023400000000000087 #
coedge $-1 -1 $-1 $560 $677 $678 $679 forward $381 $-1 #
coedge $-1 -1 $-1 $569 $568 $560 $634 reversed $570 $-1 #
edge $680 -1 $-1 $681 -0.081999999999999934 $636 -0.011700000000000016 $633 $682 forward @7 unknown #
convexity-sys-attrib $-1 -1 $-1 $-1 $562 #
vertex $-1 -1 $-1 $634 $683 #
straight-curve $-1 -1 $-1 0.023399999999999976 0.22615000000000007 0.046849999999999947 0 0 1 I I #
edge $-1 -1 $-1 $667 -0.023449999999999943 $641 0.046849999999999975 $615 $684 forward @7 unknown #
coedge $-1 -1 $-1 $678 $566 $569 $643 reversed $613 $-1 #
coedge $-1 -1 $-1 $566 $678 $663 $685 forward $613 $-1 #
vertex $-1 -1 $-1 $685 $686 #
straight-curve $-1 -1 $-1 0.093699999999999894 0.25614999999999988 0.011700000000000044 0 0 1 I I #
edge $-1 -1 $-1 $681 0 $571 0.029999999999999805 $569 $687 forward @7 unknown #
point $-1 -1 $-1 0.093699999999999894 0.25614999999999988 0.023400000000000087 #
straight-curve $-1 -1 $-1 0.023399999999999976 0.22615000000000007 0.023400000000000087 0 1 0 I I #
plane-surface $-1 -1 $-1 0.023399999999999976 0.22615000000000007 0.023400000000000087 1 0 0 0 0 -1 forward_v I I I I #
convexity-sys-attrib $-1 -1 $-1 $576 $494 #
attrib_edge_convexity-kcp-attrib $-1 -1 $688 $-1 $581 2 #
straight-curve $-1 -1 $-1 -0.33019000000000004 3.0950300000000004 1.4551499999999999 -0.99999999999999911 0 0 I I #
convexity-sys-attrib $-1 -1 $-1 $582 $504 #
point $-1 -1 $-1 -0.25989000000000012 3.0950300000000004 1.4551499999999999 #
convexity-sys-attrib $-1 -1 $-1 $587 $508 #
convexity-sys-attrib $-1 -1 $-1 $589 $510 #
point $-1 -1 $-1 -0.33019000000000004 3.0950300000000004 1.4551499999999999 #
coedge $-1 -1 $-1 $655 $655 $656 $689 forward $596 $-1 #
coedge $-1 -1 $-1 $656 $656 $655 $689 reversed $598 $-1 #
attrib_edge_convexity-kcp-attrib $-1 -1 $690 $-1 $608 1 #
vertex $-1 -1 $-1 $608 $691 #
ellipse-curve $-1 -1 $-1 -0.35359000000000002 3.0502300000000004 1.47855 0 -1 0 0 0 -0.074999999999999942 1 I I #
convexity-sys-attrib $-1 -1 $-1 $609 $539 #
point $-1 -1 $-1 -0.35359000000000002 3.0502300000000004 1.4105500000000002 #
plane-surface $-1 -1 $-1 0.093699999999999894 0.22615000000000007 0.023400000000000087 0 0 1 1 0 0 forward_v I I I I #
coedge $-1 -1 $-1 $692 $615 $640 $685 reversed $541 $-1 #
coedge $-1 -1 $-1 $615 $692 $616 $666 forward $541 $-1 #
coedge $-1 -1 $-1 $617 $616 $693 $694 reversed $457 $-1 #
edge $-1 -1 $-1 $695 0 $667 0.029999999999999805 $664 $696 forward @7 unknown #
vertex $-1 -1 $-1 $666 $697 #
straight-curve $-1 -1 $-1 0.023399999999999976 0.25614999999999988 -0.011700000000000044 0 0 1 I I #
coedge $-1 -1 $-1 $693 $624 $620 $670 forward $381 $-1 #
edge $698 -1 $-1 $626 -0.035099999999999937 $671 0.011700000000000016 $620 $699 forward @7 unknown #
vertex $-1 -1 $-1 $670 $700 #
straight-curve $-1 -1 $-1 0.023399999999999976 0.22615000000000007 -0.093699999999999894 0 1 0 I I #
point $-1 -1 $-1 0.023399999999999976 0.25614999999999988 -0.093699999999999894 #
convexity-sys-attrib $-1 -1 $-1 $-1 $625 #
straight-curve $-1 -1 $-1 -0.023399999999999976 0.22615000000000007 -0.046849999999999947 0 0 -1 I I #
point $-1 -1 $-1 -0.023399999999999976 0.22615000000000007 -0.093699999999999894 #
coedge $-1 -1 $-1 $632 $693 $692 $701 forward $381 $-1 #
coedge $-1 -1 $-1 $640 $639 $632 $679 reversed $613 $-1 #
edge $702 -1 $-1 $703 -0.035100000000000131 $681 0.011700000000000044 $678 $704 forward @7 unknown #
convexity-sys-attrib $-1 -1 $-1 $-1 $634 #
vertex $-1 -1 $-1 $679 $705 #
straight-curve $-1 -1 $-1 0.01169999999999996 0.22615000000000007 0.023400000000000087 -1 0 0 I I #
point $-1 -1 $-1 0.023399999999999976 0.22615000000000007 0.023400000000000087 #
straight-curve $-1 -1 $-1 0.046849999999999919 0.25614999999999988 -0.023400000000000087 1 0 0 I I #
edge $-1 -1 $-1 $703 0 $641 0.029999999999999805 $640 $706 forward @7 unknown #
point $-1 -1 $-1 0.093699999999999894 0.25614999999999988 -0.023400000000000087 #
straight-curve $-1 -1 $-1 0.093699999999999894 0.22615000000000007 0.023400000000000087 0 1 0 I I #
convexity-sys-attrib $-1 -1 $-1 $648 $581 #
edge $707 -1 $-1 $708 0 $708 6.2831853071795862 $655 $709 forward @7 unknown #
convexity-sys-attrib $-1 -1 $-1 $657 $608 #
point $-1 -1 $-1 -0.35359000000000002 3.0502300000000004 1.4035500000000001 #
coedge $-1 -1 $-1 $664 $663 $677 $701 reversed $541 $-1 #
coedge $-1 -1 $-1 $677 $669 $665 $694 forward $381 $-1 #
edge $710 -1 $-1 $671 -0.081999999999999851 $695 -0.011700000000000044 $665 $711 forward @7 unknown #
vertex $-1 -1 $-1 $694 $712 #
straight-curve $-1 -1 $-1 0.023399999999999976 0.22615000000000007 -0.023400000000000087 0 1 0 I I #
point $-1 -1 $-1 0.023399999999999976 0.25614999999999988 -0.023400000000000087 #
convexity-sys-attrib $-1 -1 $-1 $-1 $670 #
straight-curve $-1 -1 $-1 0.01169999999999996 0.22615000000000007 -0.093699999999999894 1 0 0 I I #
point $-1 -1 $-1 0.023399999999999976 0.22615000000000007 -0.093699999999999894 #
edge $713 -1 $-1 $695 -0.023449999999999943 $703 0.046849999999999975 $692 $714 forward @7 unknown #
convexity-sys-attrib $-1 -1 $-1 $-1 $679 #
vertex $-1 -1 $-1 $701 $715 #
straight-curve $-1 -1 $-1 0.093699999999999894 0.22615000000000007 0.011700000000000044 0 0 1 I I #
point $-1 -1 $-1 0.093699999999999894 0.22615000000000007 0.023400000000000087 #
straight-curve $-1 -1 $-1 0.093699999999999894 0.22615000000000007 -0.023400000000000087 0 1 0 I I #
attrib_edge_convexity-kcp-attrib $-1 -1 $716 $-1 $689 1 #
vertex $-1 -1 $-1 $689 $717 #
ellipse-curve $-1 -1 $-1 -0.35359000000000002 2.6127300000000004 1.47855 0 -1 0 0 0 -0.067999999999999949 1 I I #
convexity-sys-attrib $-1 -1 $-1 $-1 $694 #
straight-curve $-1 -1 $-1 0.023399999999999976 0.22615000000000007 -0.011700000000000044 0 0 1 I I #
point $-1 -1 $-1 0.023399999999999976 0.22615000000000007 -0.023400000000000087 #
convexity-sys-attrib $-1 -1 $-1 $-1 $701 #
straight-curve $-1 -1 $-1 0.046849999999999919 0.22615000000000007 -0.023400000000000087 1 0 0 I I #
point $-1 -1 $-1 0.093699999999999894 0.22615000000000007 -0.023400000000000087 #
convexity-sys-attrib $-1 -1 $-1 $707 $689 #
point $-1 -1 $-1 -0.35359000000000002 2.6127300000000004 1.4105500000000002 #
End-of-ACIS-data 