700 0 2 0           
24 FBMach with ACIS - 7.0.3 13 ACIS 7.0.3 NT 24 Mon May 13 17:01:33 2002 
1 9.9999999999999995e-007 1e-010 
body $2 -1 $-1 $3 $-1 $4 #
bdycol-kcp $-1 -1 1 4 $5 $6 $7 $8 #
model_id-kcp-attrib $-1 -1 $-1 $-1 $0 1 1021323693 1021323693 1895563265 1 #
lump $-1 -1 $-1 $-1 $9 $0 #
transform $-1 -1 1 0 0 0 1 0 0 0 1 0 0 0 1 rotate no_reflect no_shear #
body $10 -1 $-1 $11 $-1 $12 #
body $13 -1 $-1 $14 $-1 $15 #
body $16 -1 $-1 $17 $-1 $18 #
body $19 -1 $-1 $20 $-1 $21 #
shell $-1 -1 $-1 $-1 $-1 $22 $-1 $3 #
rgb_color-st-attrib $-1 -1 $23 $-1 $5 0.5 1 1 #
lump $-1 -1 $-1 $-1 $24 $5 #
transform $-1 -1 1 0 0 0 1 0 0 0 1 4.2892999999999999 -3.218 4.8400999999999996 1 no_rotate no_reflect no_shear #
rgb_color-st-attrib $-1 -1 $25 $-1 $6 1 0.5 1 #
lump $-1 -1 $-1 $-1 $26 $6 #
transform $-1 -1 1 0 0 0 1 0 0 0 1 4.2892999999999999 -3.218 4.8400999999999996 1 no_rotate no_reflect no_shear #
rgb_color-st-attrib $-1 -1 $27 $-1 $7 0 0 1 #
lump $-1 -1 $-1 $-1 $28 $7 #
transform $-1 -1 1 0 0 0 1 0 0 0 1 4.2892999999999999 -3.218 4.8400999999999996 1 no_rotate no_reflect no_shear #
model_id-kcp-attrib $-1 -1 $-1 $-1 $8 1 1021323693 1021323693 1895563266 1 #
lump $-1 -1 $-1 $-1 $29 $8 #
transform $-1 -1 1 0 0 0 1 0 0 0 1 4.2892999999999999 -3.218 4.8400999999999996 1 no_rotate no_reflect no_shear #
face $30 -1 $-1 $31 $32 $9 $-1 $33 reversed single #
model_id-kcp-attrib $-1 -1 $-1 $10 $5 1 1021323693 1021323693 1883373571 1 #
shell $-1 -1 $-1 $-1 $-1 $34 $-1 $11 #
model_id-kcp-attrib $-1 -1 $-1 $13 $6 1 1021323693 1021323693 1883701253 1 #
shell $-1 -1 $-1 $-1 $-1 $35 $-1 $14 #
model_id-kcp-attrib $-1 -1 $-1 $16 $7 1 1021323693 1021323693 1894514692 1 #
shell $-1 -1 $-1 $-1 $-1 $36 $-1 $17 #
shell $-1 -1 $-1 $-1 $-1 $37 $-1 $20 #
model_id-kcp-attrib $-1 -1 $-1 $-1 $22 1 1021323693 1021323693 1895563265 2 #
face $38 -1 $-1 $39 $40 $9 $-1 $41 reversed single #
loop $-1 -1 $-1 $-1 $42 $22 #
plane-surface $-1 -1 $-1 4.1498797559534486 -3.8180100000000001 4.8774564512500849 -0.96592771514467268 0 -0.25881199569454294 -0.25881199569454283 0 0.96592771514467246 forward_v I I I I #
face $-1 -1 $-1 $43 $44 $24 $-1 $45 reversed single #
face $-1 -1 $-1 $46 $47 $26 $-1 $48 forward single #
face $-1 -1 $-1 $49 $50 $28 $-1 $51 forward single #
face $-1 -1 $-1 $52 $53 $29 $-1 $54 forward single #
model_id-kcp-attrib $-1 -1 $-1 $-1 $31 1 1021323693 1021323693 1895563265 3 #
face $55 -1 $-1 $56 $57 $9 $-1 $58 reversed single #
loop $-1 -1 $-1 $-1 $59 $31 #
plane-surface $-1 -1 $-1 4.2519435487499146 -3.8180100000000001 4.9795202440465509 -0.70710678118654757 0 0.70710678118654757 0.70710678118654735 0 0.70710678118654735 forward_v I I I I #
coedge $-1 -1 $-1 $60 $61 $62 $63 reversed $32 $-1 #
face $-1 -1 $-1 $64 $65 $24 $-1 $45 reversed single #
loop $-1 -1 $-1 $-1 $66 $34 #
cone-surface $-1 -1 $-1 0 0.5 0 0 1 0 -0.13258252147247762 0 0.13258252147247768 1 I I 0 1 0.18749999999999997 forward I I I I #
face $-1 -1 $-1 $67 $68 $26 $-1 $69 forward single #
loop $-1 -1 $-1 $70 $71 $35 #
cone-surface $-1 -1 $-1 0 -0.25 0 0 1 0 0.088388347648318419 0 -0.088388347648318419 1 I I 0 -1 0.12499999999999997 forward I I I I #
face $-1 -1 $-1 $72 $73 $28 $-1 $74 forward single #
loop $-1 -1 $-1 $-1 $75 $36 #
plane-surface $-1 -1 $-1 -0.13942024404655129 -0.375 0.037356451250085243 -0.70710678118654757 0 0.70710678118654757 0.70710678118654757 0 0.70710678118654757 forward_v I I I I #
face $-1 -1 $-1 $76 $77 $29 $-1 $78 reversed single #
loop $-1 -1 $-1 $-1 $79 $37 #
plane-surface $-1 -1 $-1 0 0 0.1875 0 0 1 1 0 0 forward_v I I I I #
model_id-kcp-attrib $-1 -1 $-1 $-1 $39 1 1021323693 1021323693 1895563265 4 #
face $80 -1 $-1 $81 $82 $9 $-1 $83 reversed single #
loop $-1 -1 $-1 $-1 $84 $39 #
plane-surface $-1 -1 $-1 4.3913637927964659 -3.8180100000000001 4.9421637927964657 0.25881199569454294 0 0.96592771514467268 0.96592771514467246 0 -0.25881199569454283 forward_v I I I I #
coedge $-1 -1 $-1 $85 $86 $87 $88 reversed $40 $-1 #
coedge $-1 -1 $-1 $89 $42 $90 $91 forward $32 $-1 #
coedge $-1 -1 $-1 $42 $89 $85 $92 reversed $32 $-1 #
coedge $-1 -1 $-1 $87 $93 $42 $63 forward $94 $-1 #
edge $-1 -1 $-1 $95 -0.10825454387499034 $96 0.036083631601908098 $62 $97 forward @7 unknown #
face $-1 -1 $-1 $98 $99 $24 $-1 $45 reversed single #
loop $-1 -1 $-1 $-1 $100 $43 #
coedge $-1 -1 $-1 $101 $102 $103 $104 reversed $44 $-1 #
face $-1 -1 $-1 $105 $106 $26 $-1 $107 forward single #
loop $-1 -1 $-1 $108 $109 $46 #
cone-surface $-1 -1 $-1 0 -0.25 0 0 1 0 -0.13258252147247762 0 0.13258252147247768 1 I I 0 1 0.18749999999999997 forward I I I I #
loop $-1 -1 $-1 $-1 $110 $35 #
coedge $-1 -1 $-1 $71 $71 $111 $112 forward $47 $-1 #
face $-1 -1 $-1 $113 $114 $28 $-1 $115 forward single #
loop $-1 -1 $-1 $-1 $116 $49 #
plane-surface $-1 -1 $-1 -0.037356451250085243 -0.375 0.13942024404655129 0.25881199569454294 0 0.96592771514467268 0.96592771514467268 0 -0.25881199569454294 forward_v I I I I #
coedge $-1 -1 $-1 $117 $118 $119 $120 forward $50 $-1 #
face $121 -1 $-1 $122 $123 $29 $-1 $124 reversed single #
loop $-1 -1 $-1 $-1 $125 $52 #
plane-surface $-1 -1 $-1 0 0 -0.1875 0 0 1 1 0 0 forward_v I I I I #
coedge $-1 -1 $-1 $126 $127 $128 $129 forward $53 $-1 #
model_id-kcp-attrib $-1 -1 $-1 $-1 $56 1 1021323693 1021323693 1895563265 5 #
face $130 -1 $-1 $131 $132 $9 $-1 $133 reversed single #
loop $-1 -1 $-1 $-1 $134 $56 #
plane-surface $-1 -1 $-1 4.4287202440465512 -3.8180100000000001 4.8027435487499144 0.96592771514467268 0 0.25881199569454294 0.25881199569454283 0 -0.96592771514467246 forward_v I I I I #
coedge $-1 -1 $-1 $135 $136 $137 $138 reversed $57 $-1 #
coedge $-1 -1 $-1 $139 $59 $61 $92 forward $40 $-1 #
coedge $-1 -1 $-1 $59 $139 $135 $140 reversed $40 $-1 #
coedge $-1 -1 $-1 $137 $62 $59 $88 forward $94 $-1 #
edge $-1 -1 $-1 $96 -0.10825499999999978 $141 0.03608499999999993 $87 $142 forward @7 unknown #
coedge $-1 -1 $-1 $61 $60 $143 $144 reversed $32 $-1 #
coedge $-1 -1 $-1 $145 $146 $60 $91 reversed $132 $-1 #
edge $-1 -1 $-1 $95 0.10001000000000017 $147 0.22501000000000018 $90 $148 forward @7 unknown #
edge $-1 -1 $-1 $96 0.10001000000000017 $149 0.22501000000000018 $61 $150 forward @7 unknown #
coedge $-1 -1 $-1 $62 $151 $145 $152 forward $94 $-1 #
loop $-1 -1 $-1 $153 $154 $155 #
vertex $-1 -1 $-1 $63 $156 #
vertex $-1 -1 $-1 $88 $157 #
straight-curve $-1 -1 $-1 4.1592186326602452 -3.718 4.8426022714227317 -0.25881199569454283 0 0.96592771514467246 I I #
face $-1 -1 $-1 $158 $159 $24 $-1 $45 reversed single #
loop $-1 -1 $-1 $-1 $160 $64 #
coedge $-1 -1 $-1 $161 $162 $163 $164 reversed $65 $-1 #
coedge $-1 -1 $-1 $165 $66 $166 $167 forward $44 $-1 #
coedge $-1 -1 $-1 $66 $165 $168 $169 reversed $44 $-1 #
coedge $-1 -1 $-1 $170 $171 $66 $104 forward $172 $-1 #
edge $-1 -1 $-1 $173 -0.7853981633974485 $174 0.78539816339744806 $103 $175 forward @7 unknown #
face $-1 -1 $-1 $-1 $176 $26 $-1 $177 reversed single #
loop $-1 -1 $-1 $178 $179 $67 #
plane-surface $-1 -1 $-1 0.0104458956311649 0.5 -0.010445895631164898 0 1 0 0 0 1 forward_v I I I I #
loop $-1 -1 $-1 $-1 $180 $46 #
coedge $-1 -1 $-1 $109 $109 $179 $181 forward $68 $-1 #
coedge $-1 -1 $-1 $110 $110 $182 $183 reversed $70 $-1 #
coedge $-1 -1 $-1 $111 $111 $71 $112 reversed $178 $-1 #
edge $-1 -1 $-1 $184 0 $184 6.2831853071795862 $71 $185 forward @7 unknown #
face $-1 -1 $-1 $186 $187 $28 $-1 $188 forward single #
loop $-1 -1 $-1 $-1 $189 $72 #
plane-surface $-1 -1 $-1 0.10206379279646605 -0.375 0.10206379279646605 0.96592771514467268 0 0.25881199569454294 0.25881199569454294 0 -0.96592771514467268 forward_v I I I I #
coedge $-1 -1 $-1 $190 $191 $192 $193 forward $73 $-1 #
coedge $-1 -1 $-1 $194 $75 $191 $195 reversed $50 $-1 #
coedge $-1 -1 $-1 $75 $194 $196 $197 forward $50 $-1 #
coedge $-1 -1 $-1 $198 $192 $75 $120 reversed $199 $-1 #
edge $-1 -1 $-1 $200 -0.10825499999999977 $201 0.036084999999999923 $75 $202 forward @7 unknown #
model_id-kcp-attrib $-1 -1 $-1 $-1 $76 1 1021323693 1021323693 1895563266 3 #
face $-1 -1 $-1 $203 $204 $29 $-1 $205 reversed single #
loop $-1 -1 $-1 $-1 $206 $76 #
plane-surface $-1 -1 $-1 0 -0.5 0 0 1 0 0 0 1 forward_v I I I I #
coedge $-1 -1 $-1 $207 $208 $209 $210 forward $77 $-1 #
coedge $-1 -1 $-1 $211 $79 $212 $213 forward $53 $-1 #
coedge $-1 -1 $-1 $79 $211 $214 $215 forward $53 $-1 #
coedge $-1 -1 $-1 $216 $217 $79 $129 reversed $218 $-1 #
edge $-1 -1 $-1 $219 -0.5 $220 0.5 $128 $221 forward @7 unknown #
model_id-kcp-attrib $-1 -1 $-1 $-1 $81 1 1021323693 1021323693 1895563265 6 #
face $222 -1 $-1 $223 $224 $9 $-1 $225 reversed single #
loop $-1 -1 $-1 $-1 $145 $81 #
plane-surface $-1 -1 $-1 4.1872362072035338 -3.8180100000000001 4.7380362072035336 -0.25881199569454294 0 -0.96592771514467268 -0.96592771514467246 0 0.25881199569454283 forward_v I I I I #
coedge $-1 -1 $-1 $226 $227 $154 $228 reversed $82 $-1 #
coedge $-1 -1 $-1 $229 $84 $86 $140 forward $57 $-1 #
coedge $-1 -1 $-1 $84 $229 $226 $230 reversed $57 $-1 #
coedge $-1 -1 $-1 $154 $87 $84 $138 forward $94 $-1 #
edge $-1 -1 $-1 $141 -0.10825271934035731 $231 0.036085456136541121 $137 $232 forward @7 unknown #
coedge $-1 -1 $-1 $86 $85 $233 $234 reversed $40 $-1 #
edge $-1 -1 $-1 $141 0.10001000000000017 $235 0.22501000000000018 $86 $236 forward @7 unknown #
vertex $-1 -1 $-1 $138 $237 #
straight-curve $-1 -1 $-1 4.2264276005507977 -3.718 4.9540042958474348 0.70710678118654735 0 0.70710678118654735 I I #
coedge $-1 -1 $-1 $238 $233 $89 $144 forward $239 $-1 #
edge $240 -1 $-1 $149 -0.14433817547689845 $147 0 $89 $241 forward @7 unknown #
coedge $-1 -1 $-1 $242 $90 $93 $152 reversed $132 $-1 #
coedge $-1 -1 $-1 $90 $242 $238 $243 reversed $132 $-1 #
vertex $-1 -1 $-1 $91 $244 #
straight-curve $-1 -1 $-1 4.1872362072035338 -3.8180100000000001 4.7380362072035336 0 0.99999999999999989 0 I I #
vertex $-1 -1 $-1 $92 $245 #
straight-curve $-1 -1 $-1 4.1498797559534486 -3.8180100000000001 4.8774564512500849 0 0.99999999999999989 0 I I #
coedge $-1 -1 $-1 $93 $154 $246 $247 forward $94 $-1 #
edge $-1 -1 $-1 $248 -0.10825271934035731 $95 0.036085456136541121 $93 $249 forward @7 unknown #
loop $-1 -1 $-1 $-1 $250 $155 #
coedge $-1 -1 $-1 $151 $137 $134 $228 forward $94 $-1 #
face $251 -1 $-1 $252 $94 $9 $-1 $253 forward single #
point $-1 -1 $-1 4.1872362072035338 -3.718 4.7380362072035336 #
point $-1 -1 $-1 4.1498797559534486 -3.718 4.8774564512500849 #
face $-1 -1 $-1 $254 $255 $24 $-1 $256 forward single #
loop $-1 -1 $-1 $-1 $257 $98 #
coedge $-1 -1 $-1 $258 $259 $257 $260 forward $99 $-1 #
coedge $-1 -1 $-1 $261 $100 $262 $263 reversed $65 $-1 #
coedge $-1 -1 $-1 $100 $261 $102 $169 forward $65 $-1 #
coedge $-1 -1 $-1 $264 $265 $100 $164 forward $266 $-1 #
edge $-1 -1 $-1 $267 -2.3561944901923448 $268 -0.78539816339744806 $163 $269 forward @7 unknown #
coedge $-1 -1 $-1 $102 $101 $270 $271 reversed $44 $-1 #
coedge $-1 -1 $-1 $259 $258 $272 $167 reversed $99 $-1 #
edge $-1 -1 $-1 $173 -1 $273 0 $272 $274 forward @7 unknown #
coedge $-1 -1 $-1 $275 $276 $277 $169 forward $278 $-1 #
edge $-1 -1 $-1 $174 -1 $268 0 $168 $279 forward @7 unknown #
coedge $-1 -1 $-1 $171 $103 $276 $280 reversed $172 $-1 #
coedge $-1 -1 $-1 $103 $170 $281 $282 forward $172 $-1 #
loop $-1 -1 $-1 $-1 $103 $283 #
vertex $-1 -1 $-1 $284 $285 #
vertex $-1 -1 $-1 $286 $287 #
ellipse-curve $-1 -1 $-1 0 -0.5 0 0 1 0 -0.13258252147247762 0 0.13258252147247768 1 I I #
loop $-1 -1 $-1 $288 $289 $105 #
plane-surface $-1 -1 $-1 0.0104458956311649 -0.25 -0.010445895631164898 0 1 0 0 0 1 forward_v I I I I #
loop $-1 -1 $-1 $-1 $111 $67 #
coedge $-1 -1 $-1 $179 $179 $109 $181 reversed $106 $-1 #
coedge $-1 -1 $-1 $180 $180 $289 $290 reversed $108 $-1 #
edge $-1 -1 $-1 $291 -3.1415926535897931 $291 3.1415926535897931 $109 $292 forward @7 unknown #
coedge $-1 -1 $-1 $182 $182 $110 $183 forward $288 $-1 #
edge $293 -1 $-1 $294 0 $294 6.2831853071795862 $110 $295 forward @7 unknown #
vertex $-1 -1 $-1 $112 $296 #
ellipse-curve $-1 -1 $-1 0 0.5 0 0 1 0 0.088388347648318419 0 -0.088388347648318419 1 I I #
face $-1 -1 $-1 $297 $298 $28 $-1 $299 forward single #
loop $-1 -1 $-1 $-1 $300 $113 #
plane-surface $-1 -1 $-1 0.13942024404655129 -0.375 -0.037356451250085243 0.70710678118654757 0 -0.70710678118654757 -0.70710678118654757 0 -0.70710678118654757 forward_v I I I I #
coedge $-1 -1 $-1 $301 $302 $303 $304 forward $114 $-1 #
coedge $-1 -1 $-1 $305 $116 $302 $306 reversed $73 $-1 #
coedge $-1 -1 $-1 $116 $305 $117 $195 forward $73 $-1 #
coedge $-1 -1 $-1 $119 $303 $116 $193 reversed $199 $-1 #
edge $-1 -1 $-1 $201 -0.10825271934035738 $307 0.03608545613654103 $116 $308 forward @7 unknown #
coedge $-1 -1 $-1 $118 $117 $309 $310 reversed $50 $-1 #
edge $311 -1 $-1 $312 0 $201 0.125 $191 $313 forward @7 unknown #
coedge $-1 -1 $-1 $314 $315 $118 $197 reversed $316 $-1 #
edge $-1 -1 $-1 $317 0 $200 0.125 $118 $318 forward @7 unknown #
coedge $-1 -1 $-1 $319 $119 $315 $320 reversed $199 $-1 #
loop $-1 -1 $-1 $-1 $119 $321 #
vertex $-1 -1 $-1 $197 $322 #
vertex $-1 -1 $-1 $195 $323 #
straight-curve $-1 -1 $-1 -0.062872399449201755 -0.5 0.11390429584743478 0.70710678118654757 0 0.70710678118654757 I I #
face $324 -1 $-1 $325 $326 $29 $-1 $327 reversed single #
loop $-1 -1 $-1 $-1 $328 $122 #
plane-surface $-1 -1 $-1 -0.1875 0 0 1 0 0 0 0 -1 forward_v I I I I #
coedge $-1 -1 $-1 $329 $214 $330 $331 forward $123 $-1 #
coedge $-1 -1 $-1 $332 $125 $329 $333 forward $77 $-1 #
coedge $-1 -1 $-1 $125 $332 $334 $335 forward $77 $-1 #
coedge $-1 -1 $-1 $217 $216 $125 $210 reversed $218 $-1 #
edge $-1 -1 $-1 $336 -0.5 $337 0.5 $209 $338 forward @7 unknown #
coedge $-1 -1 $-1 $127 $126 $339 $340 forward $53 $-1 #
coedge $-1 -1 $-1 $341 $342 $126 $213 reversed $326 $-1 #
edge $-1 -1 $-1 $220 -0.1875 $343 0.1875 $212 $344 forward @7 unknown #
coedge $-1 -1 $-1 $206 $345 $127 $215 reversed $123 $-1 #
edge $-1 -1 $-1 $346 -0.1875 $219 0.1875 $214 $347 forward @7 unknown #
coedge $-1 -1 $-1 $209 $128 $345 $348 forward $218 $-1 #
coedge $-1 -1 $-1 $128 $209 $341 $349 reversed $218 $-1 #
loop $-1 -1 $-1 $-1 $216 $325 #
vertex $-1 -1 $-1 $129 $350 #
vertex $-1 -1 $-1 $129 $351 #
straight-curve $-1 -1 $-1 0.1875 0 0.1875 0 1 0 I I #
model_id-kcp-attrib $-1 -1 $-1 $-1 $131 1 1021323693 1021323693 1895563265 7 #
face $352 -1 $-1 $353 $239 $9 $-1 $354 forward single #
loop $-1 -1 $-1 $-1 $246 $131 #
plane-surface $-1 -1 $-1 4.3266564512500851 -3.8180100000000001 4.7006797559534483 0.70710678118654757 0 -0.70710678118654757 -0.70710678118654735 0 -0.70710678118654735 forward_v I I I I #
coedge $-1 -1 $-1 $355 $134 $136 $230 forward $82 $-1 #
coedge $-1 -1 $-1 $134 $355 $356 $357 reversed $82 $-1 #
edge $-1 -1 $-1 $231 -0.10825454387499034 $358 0.036083631601908098 $154 $359 forward @7 unknown #
coedge $-1 -1 $-1 $136 $135 $360 $361 reversed $57 $-1 #
edge $-1 -1 $-1 $231 0.10001000000000017 $362 0.22501000000000018 $136 $363 forward @7 unknown #
vertex $-1 -1 $-1 $228 $364 #
straight-curve $-1 -1 $-1 4.3565078506005435 -3.718 4.9515031417147117 0.96592771514467246 0 -0.25881199569454283 I I #
coedge $-1 -1 $-1 $143 $360 $139 $234 forward $239 $-1 #
edge $365 -1 $-1 $235 -0.14433999999999969 $149 0 $139 $366 forward @7 unknown #
vertex $-1 -1 $-1 $140 $367 #
straight-curve $-1 -1 $-1 4.2519435487499146 -3.8180100000000001 4.9795202440465509 0 0.99999999999999989 0 I I #
point $-1 -1 $-1 4.2519435487499146 -3.718 4.9795202440465509 #
coedge $-1 -1 $-1 $368 $143 $146 $243 forward $239 $-1 #
loop $-1 -1 $-1 $-1 $369 $223 #
attrib_edge_convexity-kcp-attrib $-1 -1 $370 $-1 $144 2 #
straight-curve $-1 -1 $-1 4.1872362072035338 -3.593 4.7380362072035336 0.25881199569454294 0 -0.96592771514467246 I I #
coedge $-1 -1 $-1 $146 $145 $371 $372 forward $132 $-1 #
edge $373 -1 $-1 $147 -0.14433817547689845 $374 0 $146 $375 forward @7 unknown #
point $-1 -1 $-1 4.1872362072035338 -3.593 4.7380362072035336 #
point $-1 -1 $-1 4.1498797559534486 -3.593 4.8774564512500849 #
coedge $-1 -1 $-1 $356 $371 $151 $247 reversed $224 $-1 #
edge $-1 -1 $-1 $358 -0.10825499999999978 $248 0.03608499999999993 $151 $376 forward @7 unknown #
vertex $-1 -1 $-1 $152 $377 #
straight-curve $-1 -1 $-1 4.2220921493994563 -3.718 4.7286968582852875 -0.96592771514467246 0 0.25881199569454283 I I #
coedge $-1 -1 $-1 $250 $250 $378 $379 forward $153 $-1 #
model_id-kcp-attrib $-1 -1 $-1 $-1 $155 1 1021323693 1021323693 1895563265 12 #
face $380 -1 $-1 $-1 $381 $9 $-1 $382 forward single #
plane-surface $-1 -1 $-1 4.2892999999999999 -3.718 4.8400999999999996 0 -1 0 -0.70710678118654735 0 0.70710678118654735 forward_v I I I I #
face $-1 -1 $-1 $383 $384 $24 $-1 $385 reversed single #
loop $-1 -1 $-1 $-1 $277 $158 #
plane-surface $-1 -1 $-1 0 0 0.1875 0 0 1 1 0 0 forward_v I I I I #
coedge $-1 -1 $-1 $386 $387 $388 $260 reversed $159 $-1 #
coedge $-1 -1 $-1 $166 $160 $389 $390 reversed $99 $-1 #
coedge $-1 -1 $-1 $160 $166 $391 $392 reversed $99 $-1 #
edge $-1 -1 $-1 $393 -1 $394 0 $388 $395 forward @7 unknown #
coedge $-1 -1 $-1 $162 $161 $396 $397 reversed $65 $-1 #
coedge $-1 -1 $-1 $398 $399 $400 $263 forward $384 $-1 #
edge $-1 -1 $-1 $401 -1 $267 0 $262 $402 forward @7 unknown #
coedge $-1 -1 $-1 $265 $163 $403 $404 reversed $266 $-1 #
coedge $-1 -1 $-1 $163 $264 $398 $405 forward $266 $-1 #
loop $-1 -1 $-1 $-1 $163 $406 #
vertex $-1 -1 $-1 $407 $408 #
vertex $-1 -1 $-1 $409 $410 #
ellipse-curve $-1 -1 $-1 0 0.5 0 0 -1 0 -0.13258252147247762 0 0.13258252147247768 1 I I #
coedge $-1 -1 $-1 $411 $412 $165 $271 forward $413 $-1 #
edge $-1 -1 $-1 $268 -0.78539816339744806 $273 0.7853981633974485 $270 $269 forward @7 unknown #
coedge $-1 -1 $-1 $414 $415 $416 $167 forward $417 $-1 #
vertex $-1 -1 $-1 $418 $419 #
straight-curve $-1 -1 $-1 -0.1875 0.5 0 0 1 0 I I #
coedge $-1 -1 $-1 $420 $168 $412 $409 forward $278 $-1 #
coedge $-1 -1 $-1 $168 $420 $170 $280 forward $278 $-1 #
coedge $-1 -1 $-1 $421 $403 $162 $169 reversed $255 $-1 #
loop $-1 -1 $-1 $-1 $168 $422 #
straight-curve $-1 -1 $-1 0 0.5 0.1875 0 1 0 I I #
edge $-1 -1 $-1 $423 -0.1875 $174 0 $170 $424 forward @7 unknown #
coedge $-1 -1 $-1 $425 $416 $171 $282 reversed $426 $-1 #
edge $-1 -1 $-1 $423 -0.1875 $173 0 $281 $427 forward @7 unknown #
face $-1 -1 $-1 $428 $172 $24 $-1 $429 reversed single #
edge $-1 -1 $-1 $173 0 $430 0.1875 $415 $427 forward @7 unknown #
point $-1 -1 $-1 -0.1875 -0.5 0 #
edge $-1 -1 $-1 $174 0 $431 0.1875 $432 $424 forward @7 unknown #
point $-1 -1 $-1 0 -0.5 0.1875 #
loop $-1 -1 $-1 $-1 $182 $105 #
coedge $-1 -1 $-1 $289 $289 $180 $290 forward $176 $-1 #
edge $433 -1 $-1 $434 -3.1415926535897931 $434 3.1415926535897931 $180 $435 forward @7 unknown #
vertex $-1 -1 $-1 $181 $436 #
ellipse-curve $-1 -1 $-1 0 0.5 0 0 -1 0 -0.13258252147247762 0 0.13258252147247768 1 I I #
convexity-sys-attrib $-1 -1 $-1 $-1 $183 #
vertex $-1 -1 $-1 $183 $437 #
ellipse-curve $-1 -1 $-1 0 -0.25 0 0 1 0 0.088388347648318419 0 -0.088388347648318419 1 I I #
point $-1 -1 $-1 0.088388347648318266 0.5 -0.088388347648318266 #
face $-1 -1 $-1 $321 $316 $28 $-1 $438 forward single #
loop $-1 -1 $-1 $-1 $439 $186 #
plane-surface $-1 -1 $-1 0.037356451250085243 -0.375 -0.13942024404655129 -0.25881199569454294 0 -0.96592771514467268 -0.96592771514467268 0 0.25881199569454294 forward_v I I I I #
coedge $-1 -1 $-1 $440 $441 $442 $443 forward $187 $-1 #
coedge $-1 -1 $-1 $444 $189 $441 $445 reversed $114 $-1 #
coedge $-1 -1 $-1 $189 $444 $190 $306 forward $114 $-1 #
coedge $-1 -1 $-1 $192 $442 $189 $304 reversed $199 $-1 #
edge $-1 -1 $-1 $307 -0.10825454387499024 $446 0.036083631601908174 $189 $447 forward @7 unknown #
coedge $-1 -1 $-1 $191 $190 $448 $449 reversed $73 $-1 #
edge $-1 -1 $-1 $450 0 $307 0.125 $302 $451 forward @7 unknown #
vertex $-1 -1 $-1 $306 $452 #
straight-curve $-1 -1 $-1 0.06720785060054367 -0.5 0.11140314171471213 0.96592771514467268 0 -0.25881199569454294 I I #
coedge $-1 -1 $-1 $448 $453 $194 $310 forward $454 $-1 #
edge $455 -1 $-1 $317 -0.10825499999999977 $312 0.036084999999999923 $194 $456 forward @7 unknown #
convexity-sys-attrib $-1 -1 $-1 $-1 $195 #
vertex $-1 -1 $-1 $310 $457 #
straight-curve $-1 -1 $-1 -0.037356451250085243 -0.375 0.13942024404655129 0 -1 0 I I #
coedge $-1 -1 $-1 $458 $196 $453 $459 reversed $316 $-1 #
coedge $-1 -1 $-1 $196 $458 $198 $320 forward $316 $-1 #
loop $-1 -1 $-1 $-1 $315 $297 #
vertex $-1 -1 $-1 $459 $460 #
straight-curve $-1 -1 $-1 -0.13942024404655129 -0.375 0.037356451250085243 0 -1 0 I I #
coedge $-1 -1 $-1 $442 $198 $439 $461 reversed $199 $-1 #
edge $-1 -1 $-1 $462 -0.10825454387499024 $200 0.036083631601908174 $315 $463 forward @7 unknown #
face $-1 -1 $-1 $464 $199 $28 $-1 $465 reversed single #
point $-1 -1 $-1 -0.13942024404655129 -0.5 0.037356451250085243 #
point $-1 -1 $-1 -0.037356451250085243 -0.5 0.13942024404655129 #
model_id-kcp-attrib $-1 -1 $-1 $-1 $203 1 1021323693 1021323693 1895563266 2 #
face $-1 -1 $-1 $-1 $218 $29 $-1 $466 reversed single #
loop $-1 -1 $-1 $-1 $341 $203 #
plane-surface $-1 -1 $-1 0 0.5 0 0 -1 0 0 0 -1 forward_v I I I I #
coedge $-1 -1 $-1 $467 $339 $342 $468 forward $204 $-1 #
coedge $-1 -1 $-1 $345 $206 $207 $333 reversed $123 $-1 #
coedge $-1 -1 $-1 $339 $467 $206 $331 reversed $204 $-1 #
edge $-1 -1 $-1 $346 -0.1875 $469 0.1875 $330 $470 forward @7 unknown #
coedge $-1 -1 $-1 $208 $207 $467 $471 forward $77 $-1 #
edge $-1 -1 $-1 $337 -0.1875 $469 0.1875 $329 $472 forward @7 unknown #
coedge $-1 -1 $-1 $342 $341 $208 $335 reversed $326 $-1 #
edge $-1 -1 $-1 $473 -0.1875 $336 0.1875 $334 $474 forward @7 unknown #
vertex $-1 -1 $-1 $210 $475 #
vertex $-1 -1 $-1 $348 $476 #
straight-curve $-1 -1 $-1 0.1875 0 -0.1875 0 -1 0 I I #
coedge $-1 -1 $-1 $328 $330 $211 $340 reversed $204 $-1 #
edge $-1 -1 $-1 $343 -0.5 $346 0.5 $339 $477 forward @7 unknown #
coedge $-1 -1 $-1 $334 $212 $217 $349 forward $326 $-1 #
coedge $-1 -1 $-1 $212 $334 $328 $468 reversed $326 $-1 #
vertex $-1 -1 $-1 $213 $478 #
straight-curve $-1 -1 $-1 0 0.5 0.1875 -1 0 0 I I #
coedge $-1 -1 $-1 $214 $329 $216 $348 reversed $123 $-1 #
vertex $-1 -1 $-1 $340 $479 #
straight-curve $-1 -1 $-1 0 -0.5 0.1875 1 0 0 I I #
edge $-1 -1 $-1 $219 -0.1875 $337 0.1875 $216 $480 forward @7 unknown #
edge $-1 -1 $-1 $220 -0.1875 $336 0.1875 $217 $481 forward @7 unknown #
point $-1 -1 $-1 0.1875 -0.5 0.1875 #
point $-1 -1 $-1 0.1875 0.5 0.1875 #
model_id-kcp-attrib $-1 -1 $-1 $-1 $223 1 1021323693 1021323693 1895563265 8 #
face $482 -1 $-1 $483 $484 $9 $-1 $485 forward single #
plane-surface $-1 -1 $-1 4.4287202440465512 -3.593 4.8027435487499144 0 -1 0 -0.70710678118654735 0 0.70710678118654735 forward_v I I I I #
coedge $-1 -1 $-1 $227 $226 $369 $486 reversed $82 $-1 #
coedge $-1 -1 $-1 $487 $246 $227 $357 forward $224 $-1 #
edge $-1 -1 $-1 $358 0.10001000000000017 $488 0.22501000000000018 $227 $489 forward @7 unknown #
vertex $-1 -1 $-1 $228 $490 #
straight-curve $-1 -1 $-1 4.4193813673397546 -3.718 4.8375977285772676 0.25881199569454283 0 -0.96592771514467246 I I #
coedge $-1 -1 $-1 $233 $369 $229 $361 forward $239 $-1 #
edge $491 -1 $-1 $362 -0.14433817547689845 $235 0 $229 $492 forward @7 unknown #
vertex $-1 -1 $-1 $230 $493 #
straight-curve $-1 -1 $-1 4.3913637927964659 -3.8180100000000001 4.9421637927964657 0 0.99999999999999989 0 I I #
point $-1 -1 $-1 4.3913637927964659 -3.718 4.9421637927964657 #
attrib_edge_convexity-kcp-attrib $-1 -1 $494 $-1 $234 2 #
straight-curve $-1 -1 $-1 4.1498797559534486 -3.593 4.8774564512500849 -0.70710678118654735 0 -0.70710678118654735 I I #
point $-1 -1 $-1 4.2519435487499146 -3.593 4.9795202440465509 #
coedge $-1 -1 $-1 $369 $238 $487 $495 forward $239 $-1 #
coedge $-1 -1 $-1 $360 $368 $355 $486 forward $239 $-1 #
convexity-sys-attrib $-1 -1 $-1 $240 $144 #
coedge $-1 -1 $-1 $246 $487 $242 $372 reversed $224 $-1 #
edge $-1 -1 $-1 $248 0.10001000000000017 $374 0.22501000000000018 $371 $496 forward @7 unknown #
attrib_edge_convexity-kcp-attrib $-1 -1 $497 $-1 $243 2 #
vertex $-1 -1 $-1 $372 $498 #
straight-curve $-1 -1 $-1 4.3266564512500851 -3.593 4.7006797559534483 0.96592771514467246 0 -0.25881199569454294 I I #
straight-curve $-1 -1 $-1 4.3521723994492021 -3.718 4.7261957041525644 -0.70710678118654735 0 -0.70710678118654735 I I #
point $-1 -1 $-1 4.3266564512500851 -3.718 4.7006797559534483 #
coedge $-1 -1 $-1 $378 $378 $250 $379 reversed $499 $-1 #
edge $-1 -1 $-1 $500 0 $500 6.2831853071795862 $250 $501 forward @7 unknown #
model_id-kcp-attrib $-1 -1 $-1 $-1 $252 1 1021323693 1021323693 1895563265 13 #
loop $-1 -1 $-1 $502 $503 $252 #
plane-surface $-1 -1 $-1 4.2892999999999999 -3.468 4.8400999999999996 0 1 0 0.70710678118654735 0 -0.70710678118654735 forward_v I I I I #
face $-1 -1 $-1 $504 $426 $24 $-1 $505 reversed single #
loop $-1 -1 $-1 $-1 $262 $254 #
plane-surface $-1 -1 $-1 0.1875 0 0 -1 0 0 0 0 1 forward_v I I I I #
coedge $-1 -1 $-1 $506 $257 $507 $508 reversed $159 $-1 #
coedge $-1 -1 $-1 $257 $506 $509 $510 reversed $159 $-1 #
coedge $-1 -1 $-1 $511 $512 $513 $260 forward $514 $-1 #
coedge $-1 -1 $-1 $515 $516 $258 $390 forward $517 $-1 #
edge $-1 -1 $-1 $273 0.7853981633974485 $394 2.3561944901923453 $389 $269 forward @7 unknown #
coedge $-1 -1 $-1 $518 $519 $259 $392 forward $520 $-1 #
edge $-1 -1 $-1 $393 -2.3561944901923453 $173 -0.7853981633974485 $391 $175 forward @7 unknown #
vertex $-1 -1 $-1 $521 $522 #
vertex $-1 -1 $-1 $523 $524 #
straight-curve $-1 -1 $-1 0 0.5 -0.1875 0 1 0 I I #
coedge $-1 -1 $-1 $525 $432 $261 $397 forward $526 $-1 #
edge $-1 -1 $-1 $174 0.78539816339744806 $401 2.3561944901923448 $396 $175 forward @7 unknown #
coedge $-1 -1 $-1 $527 $262 $265 $405 reversed $384 $-1 #
coedge $-1 -1 $-1 $262 $527 $525 $528 forward $384 $-1 #
coedge $-1 -1 $-1 $529 $530 $506 $263 reversed $531 $-1 #
vertex $-1 -1 $-1 $532 $533 #
straight-curve $-1 -1 $-1 0.1875 0.5 0 0 1 0 I I #
coedge $-1 -1 $-1 $277 $534 $264 $404 forward $255 $-1 #
edge $-1 -1 $-1 $535 -0.1875 $268 0 $264 $536 forward @7 unknown #
edge $-1 -1 $-1 $535 -0.1875 $267 0 $398 $537 forward @7 unknown #
face $-1 -1 $-1 $538 $266 $24 $-1 $539 reversed single #
edge $-1 -1 $-1 $267 0 $540 0.1875 $530 $537 forward @7 unknown #
point $-1 -1 $-1 0.1875 0.5 0 #
edge $-1 -1 $-1 $268 0 $541 0.1875 $412 $536 forward @7 unknown #
point $-1 -1 $-1 0 0.5 0.1875 #
coedge $-1 -1 $-1 $412 $270 $542 $543 reversed $413 $-1 #
coedge $-1 -1 $-1 $270 $411 $275 $409 reversed $413 $-1 #
loop $-1 -1 $-1 $-1 $270 $538 #
coedge $-1 -1 $-1 $544 $272 $516 $418 forward $417 $-1 #
coedge $-1 -1 $-1 $272 $544 $518 $284 reversed $417 $-1 #
coedge $-1 -1 $-1 $281 $542 $101 $167 reversed $426 $-1 #
loop $-1 -1 $-1 $-1 $272 $545 #
edge $-1 -1 $-1 $273 0 $546 0.1875 $516 $547 forward @7 unknown #
point $-1 -1 $-1 -0.1875 0.5 0 #
coedge $-1 -1 $-1 $276 $275 $425 $548 forward $278 $-1 #
coedge $-1 -1 $-1 $534 $277 $432 $286 forward $255 $-1 #
face $-1 -1 $-1 $549 $278 $24 $-1 $256 forward single #
vertex $-1 -1 $-1 $548 $550 #
straight-curve $-1 -1 $-1 0 -0.5 0.1875 1 0 0 I I #
coedge $-1 -1 $-1 $542 $281 $420 $548 reversed $426 $-1 #
loop $-1 -1 $-1 $-1 $416 $383 #
straight-curve $-1 -1 $-1 -0.1875 -0.5 0 0 0 -1 I I #
face $-1 -1 $-1 $551 $526 $24 $-1 $429 reversed single #
plane-surface $-1 -1 $-1 0 -0.5 0 0 1 0 0 0 1 forward_v I I I I #
vertex $-1 -1 $-1 $552 $553 #
vertex $-1 -1 $-1 $554 $555 #
coedge $-1 -1 $-1 $396 $525 $421 $286 reversed $526 $-1 #
convexity-sys-attrib $-1 -1 $-1 $-1 $290 #
vertex $-1 -1 $-1 $290 $556 #
ellipse-curve $-1 -1 $-1 0 -0.25 0 0 -1 0 -0.13258252147247762 0 0.13258252147247768 1 I I #
point $-1 -1 $-1 0.13258252147247765 0.5 -0.13258252147247765 #
point $-1 -1 $-1 0.088388347648318266 -0.25 -0.088388347648318266 #
plane-surface $-1 -1 $-1 -0.10206379279646605 -0.375 -0.10206379279646605 -0.96592771514467268 0 -0.25881199569454294 -0.25881199569454294 0 0.96592771514467268 forward_v I I I I #
coedge $-1 -1 $-1 $557 $558 $319 $461 forward $298 $-1 #
coedge $-1 -1 $-1 $559 $300 $558 $560 reversed $187 $-1 #
coedge $-1 -1 $-1 $300 $559 $301 $445 forward $187 $-1 #
coedge $-1 -1 $-1 $303 $319 $300 $443 reversed $199 $-1 #
edge $-1 -1 $-1 $446 -0.10825499999999977 $561 0.036084999999999923 $300 $562 forward @7 unknown #
coedge $-1 -1 $-1 $302 $301 $563 $564 reversed $114 $-1 #
edge $-1 -1 $-1 $565 0 $446 0.125 $441 $566 forward @7 unknown #
vertex $-1 -1 $-1 $445 $567 #
straight-curve $-1 -1 $-1 0.13008136733975476 -0.5 -0.0025022714227319748 0.25881199569454294 0 -0.96592771514467268 I I #
coedge $-1 -1 $-1 $563 $309 $305 $449 forward $454 $-1 #
edge $568 -1 $-1 $312 -0.10825271934035738 $450 0.03608545613654103 $305 $569 forward @7 unknown #
vertex $-1 -1 $-1 $449 $570 #
straight-curve $-1 -1 $-1 0.10206379279646605 -0.375 0.10206379279646605 0 -1 0 I I #
point $-1 -1 $-1 0.10206379279646605 -0.5 0.10206379279646605 #
coedge $-1 -1 $-1 $309 $571 $314 $459 forward $454 $-1 #
loop $-1 -1 $-1 $-1 $453 $464 #
convexity-sys-attrib $-1 -1 $-1 $-1 $310 #
straight-curve $-1 -1 $-1 -0.062872399449201755 -0.375 0.11390429584743478 0.70710678118654757 0 0.70710678118654757 I I #
point $-1 -1 $-1 -0.037356451250085243 -0.375 0.13942024404655129 #
coedge $-1 -1 $-1 $315 $314 $557 $572 forward $316 $-1 #
edge $573 -1 $-1 $574 -0.10825454387499024 $317 0.036083631601908174 $314 $575 forward @7 unknown #
point $-1 -1 $-1 -0.13942024404655129 -0.375 0.037356451250085243 #
edge $-1 -1 $-1 $561 -0.10825271934035738 $462 0.03608545613654103 $439 $576 forward @7 unknown #
vertex $-1 -1 $-1 $572 $577 #
straight-curve $-1 -1 $-1 -0.13008136733975476 -0.5 0.0025022714227319748 -0.25881199569454294 0 0.96592771514467268 I I #
face $-1 -1 $-1 $-1 $454 $28 $-1 $578 forward single #
plane-surface $-1 -1 $-1 0 -0.5 1.7347234759768071e-018 0 1 0 0 0 1 forward_v I I I I #
plane-surface $-1 -1 $-1 0.1875 0 0 -1 0 0 0 0 1 forward_v I I I I #
coedge $-1 -1 $-1 $330 $328 $332 $471 reversed $204 $-1 #
edge $-1 -1 $-1 $343 -0.1875 $473 0.1875 $342 $579 forward @7 unknown #
vertex $-1 -1 $-1 $471 $580 #
straight-curve $-1 -1 $-1 -0.1875 -0.5 0 0 0 -1 I I #
edge $-1 -1 $-1 $469 -0.5 $473 0.5 $467 $581 forward @7 unknown #
straight-curve $-1 -1 $-1 0 -0.5 -0.1875 -1 0 0 I I #
vertex $-1 -1 $-1 $335 $582 #
straight-curve $-1 -1 $-1 0 0.5 -0.1875 1 0 0 I I #
point $-1 -1 $-1 0.1875 0.5 -0.1875 #
point $-1 -1 $-1 0.1875 -0.5 -0.1875 #
straight-curve $-1 -1 $-1 -0.1875 0 0.1875 0 -1 0 I I #
point $-1 -1 $-1 -0.1875 0.5 0.1875 #
point $-1 -1 $-1 -0.1875 -0.5 0.1875 #
straight-curve $-1 -1 $-1 0.1875 -0.5 0 0 0 -1 I I #
straight-curve $-1 -1 $-1 0.1875 0.5 0 0 0 -1 I I #
model_id-kcp-attrib $-1 -1 $-1 $-1 $353 1 1021323693 1021323693 1895563265 9 #
face $583 -1 $-1 $584 $585 $9 $-1 $586 forward single #
loop $-1 -1 $-1 $587 $588 $353 #
cone-surface $-1 -1 $-1 4.2892999999999999 -3.093 4.8400999999999996 0 1 0 0.088388347648318419 0 -0.088388347648318419 1 I I 0 1 0.12499999999999999 forward I I I I #
edge $589 -1 $-1 $488 -0.14433817547689845 $362 0 $355 $590 forward @7 unknown #
coedge $-1 -1 $-1 $371 $356 $368 $495 reversed $224 $-1 #
vertex $-1 -1 $-1 $357 $591 #
straight-curve $-1 -1 $-1 4.4287202440465512 -3.8180100000000001 4.8027435487499144 0 0.99999999999999989 0 I I #
point $-1 -1 $-1 4.4287202440465512 -3.718 4.8027435487499144 #
attrib_edge_convexity-kcp-attrib $-1 -1 $592 $-1 $361 2 #
straight-curve $-1 -1 $-1 4.2519435487499146 -3.593 4.9795202440465509 -0.96592771514467246 0 0.25881199569454294 I I #
point $-1 -1 $-1 4.3913637927964659 -3.593 4.9421637927964657 #
convexity-sys-attrib $-1 -1 $-1 $365 $234 #
edge $593 -1 $-1 $374 -0.14433999999999969 $488 0 $487 $594 forward @7 unknown #
straight-curve $-1 -1 $-1 4.3266564512500851 -3.8180100000000001 4.7006797559534483 0 0.99999999999999989 0 I I #
convexity-sys-attrib $-1 -1 $-1 $373 $243 #
point $-1 -1 $-1 4.3266564512500851 -3.593 4.7006797559534483 #
loop $-1 -1 $-1 $595 $378 $584 #
vertex $-1 -1 $-1 $379 $596 #
ellipse-curve $-1 -1 $-1 4.2892999999999999 -3.718 4.8400999999999996 0 -1 0 0.13258252147247765 0 -0.13258252147247765 1 I I #
loop $-1 -1 $-1 $-1 $597 $252 #
coedge $-1 -1 $-1 $503 $503 $588 $598 forward $381 $-1 #
face $-1 -1 $-1 $406 $599 $24 $-1 $539 reversed single #
plane-surface $-1 -1 $-1 -0.1875 0 0 1 0 0 0 0 -1 forward_v I I I I #
coedge $-1 -1 $-1 $387 $386 $161 $263 forward $159 $-1 #
coedge $-1 -1 $-1 $600 $601 $386 $508 forward $602 $-1 #
edge $-1 -1 $-1 $401 2.3561944901923448 $393 3.926990816987241 $507 $175 forward @7 unknown #
coedge $-1 -1 $-1 $603 $604 $387 $510 forward $599 $-1 #
edge $-1 -1 $-1 $394 2.3561944901923453 $267 3.9269908169872414 $509 $269 forward @7 unknown #
coedge $-1 -1 $-1 $605 $388 $604 $523 forward $514 $-1 #
coedge $-1 -1 $-1 $388 $605 $600 $606 forward $514 $-1 #
coedge $-1 -1 $-1 $607 $608 $160 $260 reversed $609 $-1 #
loop $-1 -1 $-1 $-1 $388 $549 #
coedge $-1 -1 $-1 $516 $389 $608 $610 reversed $517 $-1 #
coedge $-1 -1 $-1 $389 $515 $414 $418 reversed $517 $-1 #
loop $-1 -1 $-1 $-1 $389 $611 #
coedge $-1 -1 $-1 $519 $391 $415 $284 forward $520 $-1 #
coedge $-1 -1 $-1 $391 $518 $607 $521 reversed $520 $-1 #
loop $-1 -1 $-1 $-1 $391 $612 #
edge $-1 -1 $-1 $393 0 $430 0.1875 $519 $613 forward @7 unknown #
point $-1 -1 $-1 0 -0.5 -0.1875 #
edge $-1 -1 $-1 $394 0 $540 0.1875 $604 $614 forward @7 unknown #
point $-1 -1 $-1 0 0.5 -0.1875 #
coedge $-1 -1 $-1 $432 $396 $399 $528 reversed $526 $-1 #
loop $-1 -1 $-1 $-1 $396 $428 #
coedge $-1 -1 $-1 $399 $398 $534 $554 reversed $384 $-1 #
edge $-1 -1 $-1 $431 -0.1875 $401 0 $399 $615 forward @7 unknown #
coedge $-1 -1 $-1 $616 $400 $601 $532 forward $531 $-1 #
coedge $-1 -1 $-1 $400 $616 $603 $407 reversed $531 $-1 #
loop $-1 -1 $-1 $-1 $400 $617 #
edge $-1 -1 $-1 $401 0 $618 0.1875 $529 $615 forward @7 unknown #
point $-1 -1 $-1 0.1875 -0.5 0 #
coedge $-1 -1 $-1 $403 $421 $527 $554 forward $255 $-1 #
vertex $-1 -1 $-1 $554 $619 #
straight-curve $-1 -1 $-1 0 0.5 0.1875 -1 0 0 I I #
straight-curve $-1 -1 $-1 0.1875 0.5 0 0 0 -1 I I #
face $-1 -1 $-1 $611 $413 $24 $-1 $539 reversed single #
plane-surface $-1 -1 $-1 0 0.5 0 0 -1 0 0 0 -1 forward_v I I I I #
vertex $-1 -1 $-1 $620 $621 #
vertex $-1 -1 $-1 $409 $622 #
coedge $-1 -1 $-1 $416 $425 $411 $543 forward $426 $-1 #
edge $-1 -1 $-1 $541 -0.1875 $273 0 $411 $547 forward @7 unknown #
coedge $-1 -1 $-1 $415 $414 $623 $552 reversed $417 $-1 #
face $-1 -1 $-1 $617 $417 $24 $-1 $505 reversed single #
vertex $-1 -1 $-1 $610 $624 #
straight-curve $-1 -1 $-1 -0.1875 0.5 0 0 0 -1 I I #
edge $-1 -1 $-1 $541 -0.5 $423 0.5 $425 $625 forward @7 unknown #
face $-1 -1 $-1 $545 $514 $24 $-1 $626 reversed single #
point $-1 -1 $-1 -0.1875 -0.5 0.1875 #
face $-1 -1 $-1 $627 $602 $24 $-1 $429 reversed single #
edge $-1 -1 $-1 $430 -0.5 $546 0.5 $544 $628 forward @7 unknown #
point $-1 -1 $-1 -0.1875 -0.5 -0.1875 #
edge $-1 -1 $-1 $431 -0.5 $535 0.5 $527 $629 forward @7 unknown #
point $-1 -1 $-1 0.1875 -0.5 0.1875 #
point $-1 -1 $-1 0.13258252147247765 -0.25 -0.13258252147247765 #
coedge $-1 -1 $-1 $630 $439 $458 $572 reversed $298 $-1 #
coedge $-1 -1 $-1 $439 $630 $440 $560 forward $298 $-1 #
coedge $-1 -1 $-1 $441 $440 $631 $632 reversed $187 $-1 #
edge $-1 -1 $-1 $633 0 $561 0.125 $558 $634 forward @7 unknown #
vertex $-1 -1 $-1 $560 $635 #
straight-curve $-1 -1 $-1 0.062872399449201755 -0.5 -0.11390429584743478 -0.70710678118654757 0 -0.70710678118654757 I I #
coedge $-1 -1 $-1 $631 $448 $444 $564 forward $454 $-1 #
edge $636 -1 $-1 $450 -0.10825454387499024 $565 0.036083631601908174 $444 $637 forward @7 unknown #
vertex $-1 -1 $-1 $564 $638 #
straight-curve $-1 -1 $-1 0.13942024404655129 -0.375 -0.037356451250085243 0 -1 0 I I #
point $-1 -1 $-1 0.13942024404655129 -0.5 -0.037356451250085243 #
convexity-sys-attrib $-1 -1 $-1 $-1 $449 #
straight-curve $-1 -1 $-1 0.06720785060054367 -0.375 0.11140314171471213 0.96592771514467268 0 -0.25881199569454294 I I #
point $-1 -1 $-1 0.10206379279646605 -0.375 0.10206379279646605 #
coedge $-1 -1 $-1 $453 $631 $630 $639 forward $454 $-1 #
edge $-1 -1 $-1 $574 0 $462 0.125 $458 $640 forward @7 unknown #
convexity-sys-attrib $-1 -1 $-1 $-1 $459 #
vertex $-1 -1 $-1 $459 $641 #
straight-curve $-1 -1 $-1 -0.13008136733975476 -0.375 0.0025022714227319748 -0.25881199569454294 0 0.96592771514467268 I I #
straight-curve $-1 -1 $-1 -0.06720785060054367 -0.5 -0.11140314171471213 -0.96592771514467268 0 0.25881199569454294 I I #
point $-1 -1 $-1 -0.10206379279646605 -0.5 -0.10206379279646605 #
plane-surface $-1 -1 $-1 0 -0.375 1.7347234759768071e-018 0 1 0 0 0 1 forward_v I I I I #
straight-curve $-1 -1 $-1 -0.1875 0.5 0 0 0 -1 I I #
point $-1 -1 $-1 -0.1875 -0.5 -0.1875 #
straight-curve $-1 -1 $-1 -0.1875 0 -0.1875 0 1 0 I I #
point $-1 -1 $-1 -0.1875 0.5 -0.1875 #
model_id-kcp-attrib $-1 -1 $-1 $-1 $483 1 1021323693 1021323693 1895563265 10 #
face $642 -1 $-1 $155 $499 $9 $-1 $643 forward single #
loop $-1 -1 $-1 $-1 $644 $483 #
plane-surface $-1 -1 $-1 4.2892999999999999 -2.718 4.8400999999999996 0 1 0 0.70710678118654735 0 -0.70710678118654735 forward_v I I I I #
loop $-1 -1 $-1 $-1 $645 $353 #
coedge $-1 -1 $-1 $588 $588 $503 $598 reversed $484 $-1 #
attrib_edge_convexity-kcp-attrib $-1 -1 $646 $-1 $486 2 #
straight-curve $-1 -1 $-1 4.3913637927964659 -3.593 4.9421637927964657 -0.25881199569454294 0 0.96592771514467246 I I #
point $-1 -1 $-1 4.4287202440465512 -3.593 4.8027435487499144 #
convexity-sys-attrib $-1 -1 $-1 $491 $361 #
attrib_edge_convexity-kcp-attrib $-1 -1 $647 $-1 $495 2 #
straight-curve $-1 -1 $-1 4.4287202440465512 -3.593 4.8027435487499144 0.70710678118654735 0 0.70710678118654735 I I #
loop $-1 -1 $-1 $-1 $648 $584 #
point $-1 -1 $-1 4.4218825214724777 -3.718 4.7075174785275218 #
coedge $-1 -1 $-1 $597 $597 $648 $649 forward $502 $-1 #
edge $650 -1 $-1 $651 0 $651 6.2831853071795862 $503 $652 forward @7 unknown #
loop $-1 -1 $-1 $-1 $509 $504 #
coedge $-1 -1 $-1 $601 $507 $512 $606 reversed $602 $-1 #
coedge $-1 -1 $-1 $507 $600 $529 $532 reversed $602 $-1 #
loop $-1 -1 $-1 $-1 $507 $551 #
coedge $-1 -1 $-1 $604 $509 $530 $407 forward $599 $-1 #
coedge $-1 -1 $-1 $509 $603 $511 $523 reversed $599 $-1 #
coedge $-1 -1 $-1 $512 $511 $616 $620 forward $514 $-1 #
edge $-1 -1 $-1 $618 -0.1875 $393 0 $600 $613 forward @7 unknown #
coedge $-1 -1 $-1 $623 $513 $519 $521 forward $609 $-1 #
coedge $-1 -1 $-1 $513 $623 $515 $610 forward $609 $-1 #
loop $-1 -1 $-1 $-1 $513 $627 #
edge $-1 -1 $-1 $546 -0.1875 $394 0 $515 $614 forward @7 unknown #
face $-1 -1 $-1 $612 $517 $24 $-1 $539 reversed single #
face $-1 -1 $-1 $283 $520 $24 $-1 $429 reversed single #
straight-curve $-1 -1 $-1 0 -0.5 -0.1875 -1 0 0 I I #
straight-curve $-1 -1 $-1 0 0.5 -0.1875 1 0 0 I I #
straight-curve $-1 -1 $-1 0.1875 -0.5 0 0 0 -1 I I #
coedge $-1 -1 $-1 $530 $529 $605 $620 reversed $531 $-1 #
face $-1 -1 $-1 $-1 $531 $24 $-1 $385 reversed single #
vertex $-1 -1 $-1 $532 $653 #
point $-1 -1 $-1 0.1875 0.5 0.1875 #
edge $-1 -1 $-1 $540 -0.5 $618 0.5 $616 $654 forward @7 unknown #
point $-1 -1 $-1 0.1875 0.5 -0.1875 #
point $-1 -1 $-1 -0.1875 0.5 0.1875 #
coedge $-1 -1 $-1 $608 $607 $544 $552 forward $609 $-1 #
point $-1 -1 $-1 -0.1875 0.5 -0.1875 #
straight-curve $-1 -1 $-1 -0.1875 0 0.1875 0 -1 0 I I #
plane-surface $-1 -1 $-1 0 0 -0.1875 0 0 1 1 0 0 forward_v I I I I #
face $-1 -1 $-1 $422 $609 $24 $-1 $626 reversed single #
straight-curve $-1 -1 $-1 -0.1875 0 -0.1875 0 1 0 I I #
straight-curve $-1 -1 $-1 0.1875 0 0.1875 0 1 0 I I #
coedge $-1 -1 $-1 $558 $557 $571 $639 reversed $298 $-1 #
coedge $-1 -1 $-1 $571 $563 $559 $632 forward $454 $-1 #
edge $655 -1 $-1 $565 -0.10825499999999977 $633 0.036084999999999923 $559 $656 forward @7 unknown #
vertex $-1 -1 $-1 $632 $657 #
straight-curve $-1 -1 $-1 0.037356451250085243 -0.375 -0.13942024404655129 0 -1 0 I I #
point $-1 -1 $-1 0.037356451250085243 -0.5 -0.13942024404655129 #
convexity-sys-attrib $-1 -1 $-1 $-1 $564 #
straight-curve $-1 -1 $-1 0.13008136733975476 -0.375 -0.0025022714227319748 0.25881199569454294 0 -0.96592771514467268 I I #
point $-1 -1 $-1 0.13942024404655129 -0.375 -0.037356451250085243 #
edge $658 -1 $-1 $633 -0.10825271934035738 $574 0.03608545613654103 $630 $659 forward @7 unknown #
straight-curve $-1 -1 $-1 -0.10206379279646605 -0.375 -0.10206379279646605 0 -1 0 I I #
point $-1 -1 $-1 -0.10206379279646605 -0.375 -0.10206379279646605 #
model_id-kcp-attrib $-1 -1 $-1 $-1 $584 1 1021323693 1021323693 1895563265 11 #
cone-surface $-1 -1 $-1 4.2892999999999999 -3.593 4.8400999999999996 0 1 0 0.13258252147247765 0 -0.13258252147247765 1 I I 0 1 0.1875 forward I I I I #
coedge $-1 -1 $-1 $644 $644 $645 $660 forward $585 $-1 #
coedge $-1 -1 $-1 $645 $645 $644 $660 reversed $587 $-1 #
convexity-sys-attrib $-1 -1 $-1 $589 $486 #
convexity-sys-attrib $-1 -1 $-1 $593 $495 #
coedge $-1 -1 $-1 $648 $648 $597 $649 reversed $595 $-1 #
edge $661 -1 $-1 $662 0 $662 6.2831853071795862 $597 $663 forward @7 unknown #
attrib_edge_convexity-kcp-attrib $-1 -1 $664 $-1 $598 2 #
vertex $-1 -1 $-1 $598 $665 #
ellipse-curve $-1 -1 $-1 4.2892999999999999 -3.468 4.8400999999999996 0 -1 0 0.088388347648318419 0 -0.088388347648318419 1 I I #
point $-1 -1 $-1 0.1875 -0.5 -0.1875 #
straight-curve $-1 -1 $-1 0.1875 0 -0.1875 0 -1 0 I I #
convexity-sys-attrib $-1 -1 $-1 $-1 $632 #
straight-curve $-1 -1 $-1 0.062872399449201755 -0.375 -0.11390429584743478 -0.70710678118654757 0 -0.70710678118654757 I I #
point $-1 -1 $-1 0.037356451250085243 -0.375 -0.13942024404655129 #
convexity-sys-attrib $-1 -1 $-1 $-1 $639 #
straight-curve $-1 -1 $-1 -0.06720785060054367 -0.375 -0.11140314171471213 -0.96592771514467268 0 0.25881199569454294 I I #
edge $666 -1 $-1 $667 0 $667 6.2831853071795862 $644 $668 forward @7 unknown #
attrib_edge_convexity-kcp-attrib $-1 -1 $669 $-1 $649 1 #
vertex $-1 -1 $-1 $649 $670 #
ellipse-curve $-1 -1 $-1 4.2892999999999999 -3.468 4.8400999999999996 0 1 0 0.13258252147247765 0 -0.13258252147247765 1 I I #
convexity-sys-attrib $-1 -1 $-1 $650 $598 #
point $-1 -1 $-1 4.3776883476483182 -3.468 4.7517116523516814 #
attrib_edge_convexity-kcp-attrib $-1 -1 $671 $-1 $660 1 #
vertex $-1 -1 $-1 $660 $672 #
ellipse-curve $-1 -1 $-1 4.2892999999999999 -2.718 4.8400999999999996 0 1 0 0.088388347648318419 0 -0.088388347648318419 1 I I #
convexity-sys-attrib $-1 -1 $-1 $661 $649 #
point $-1 -1 $-1 4.4218825214724777 -3.468 4.7075174785275218 #
convexity-sys-attrib $-1 -1 $-1 $666 $660 #
point $-1 -1 $-1 4.3776883476483182 -2.718 4.7517116523516814 #
End-of-ACIS-data 