700 0 2 0           
24 FBMach with ACIS - 7.0.3 13 ACIS 7.0.3 NT 24 Mon May 13 17:03:41 2002 
1 9.9999999999999995e-007 1e-010 
body $2 -1 $-1 $3 $-1 $4 #
bdycol-kcp $-1 -1 1 4 $5 $6 $7 $8 #
model_id-kcp-attrib $-1 -1 $-1 $-1 $0 1 1021323820 1021323820 -2060451839 1 #
lump $-1 -1 $-1 $-1 $9 $0 #
transform $-1 -1 1 0 0 0 1 0 0 0 1 0 0 0 1 rotate no_reflect no_shear #
body $10 -1 $-1 $11 $-1 $12 #
body $13 -1 $-1 $14 $-1 $15 #
body $16 -1 $-1 $17 $-1 $18 #
body $19 -1 $-1 $20 $-1 $21 #
shell $-1 -1 $-1 $-1 $-1 $22 $-1 $3 #
model_id-kcp-attrib $-1 -1 $-1 $-1 $5 1 1021323820 1021323820 -2060451838 1 #
lump $-1 -1 $-1 $-1 $23 $5 #
transform $-1 -1 1 0 0 0 1 0 0 0 1 -5.1731999999999996 -2.21875 5.7240000000000002 1 no_rotate no_reflect no_shear #
rgb_color-st-attrib $-1 -1 $24 $-1 $6 0.5 1 1 #
lump $-1 -1 $-1 $-1 $25 $6 #
transform $-1 -1 1 0 0 0 1 0 0 0 1 -5.1731999999999996 -2.21875 5.7240000000000002 1 no_rotate no_reflect no_shear #
rgb_color-st-attrib $-1 -1 $26 $-1 $7 0 0 1 #
lump $-1 -1 $-1 $-1 $27 $7 #
transform $-1 -1 1 0 0 0 1 0 0 0 1 -5.1731999999999996 -2.21875 5.7240000000000002 1 no_rotate no_reflect no_shear #
rgb_color-st-attrib $-1 -1 $28 $-1 $8 1 0.5 1 #
lump $-1 -1 $-1 $-1 $29 $8 #
transform $-1 -1 1 0 0 0 1 0 0 0 1 -5.1731999999999996 -2.21875 5.7240000000000002 1 no_rotate no_reflect no_shear #
face $30 -1 $-1 $31 $32 $9 $-1 $33 reversed single #
shell $-1 -1 $-1 $-1 $-1 $34 $-1 $11 #
model_id-kcp-attrib $-1 -1 $-1 $13 $6 1 1021323820 1021323820 -2055208957 1 #
shell $-1 -1 $-1 $-1 $-1 $35 $-1 $14 #
model_id-kcp-attrib $-1 -1 $-1 $16 $7 1 1021323820 1021323821 -2057306108 1 #
shell $-1 -1 $-1 $-1 $-1 $36 $-1 $17 #
model_id-kcp-attrib $-1 -1 $-1 $19 $8 1 1021323820 1021323821 -2052063227 1 #
shell $-1 -1 $-1 $-1 $-1 $37 $-1 $20 #
model_id-kcp-attrib $-1 -1 $-1 $-1 $22 1 1021323820 1021323820 -2060451839 2 #
face $38 -1 $-1 $39 $40 $9 $-1 $41 reversed single #
loop $-1 -1 $-1 $-1 $42 $22 #
plane-surface $-1 -1 $-1 -5.2453699999999994 -2.9125100000000002 5.8490000000000002 -0.8660217547228608 0 0.50000632030679104 0 -0.99999999999999989 0 forward_v I I I I #
face $-1 -1 $-1 $43 $44 $23 $-1 $45 forward single #
face $-1 -1 $-1 $46 $47 $25 $-1 $48 reversed single #
face $-1 -1 $-1 $49 $50 $27 $-1 $51 forward single #
face $-1 -1 $-1 $52 $53 $29 $-1 $54 forward single #
model_id-kcp-attrib $-1 -1 $-1 $-1 $31 1 1021323820 1021323820 -2060451839 3 #
face $55 -1 $-1 $56 $57 $9 $-1 $58 reversed single #
loop $-1 -1 $-1 $-1 $59 $31 #
plane-surface $-1 -1 $-1 -5.1010299999999997 -2.9125100000000002 5.8490000000000002 0 0 1 0 -0.99999999999999989 0 forward_v I I I I #
coedge $-1 -1 $-1 $60 $61 $62 $63 reversed $32 $-1 #
face $-1 -1 $-1 $64 $65 $23 $-1 $66 reversed single #
loop $-1 -1 $-1 $-1 $67 $34 #
plane-surface $-1 -1 $-1 0 0 0.1875 0 0 1 1 0 0 forward_v I I I I #
face $-1 -1 $-1 $68 $69 $25 $-1 $48 reversed single #
loop $-1 -1 $-1 $-1 $70 $35 #
cone-surface $-1 -1 $-1 0 -0.59375 0 0 -1 0 0.1875 0 0 1 I I 0 1 0.1875 forward I I I I #
face $-1 -1 $-1 $71 $72 $27 $-1 $73 forward single #
loop $-1 -1 $-1 $-1 $74 $36 #
plane-surface $-1 -1 $-1 -0.072169999999999845 -0.50004999999999988 0.125 0 0 1 1 0 0 forward_v I I I I #
face $-1 -1 $-1 $75 $76 $29 $-1 $77 forward single #
loop $-1 -1 $-1 $78 $79 $37 #
cone-surface $-1 -1 $-1 0 -0.40625 0 0 1 0 0.094999999999999987 0 0 1 I I 0 -1 0.094999999999999987 forward I I I I #
model_id-kcp-attrib $-1 -1 $-1 $-1 $39 1 1021323820 1021323820 -2060451839 4 #
face $80 -1 $-1 $81 $82 $9 $-1 $83 reversed single #
loop $-1 -1 $-1 $-1 $84 $39 #
plane-surface $-1 -1 $-1 -5.0288599999999999 -2.9125100000000002 5.7240000000000002 0.8660217547228608 0 0.50000632030679104 0 0.99999999999999989 0 forward_v I I I I #
coedge $-1 -1 $-1 $85 $86 $87 $88 reversed $40 $-1 #
coedge $-1 -1 $-1 $89 $42 $90 $91 forward $32 $-1 #
coedge $-1 -1 $-1 $42 $89 $85 $92 reversed $32 $-1 #
coedge $-1 -1 $-1 $87 $93 $42 $63 forward $94 $-1 #
edge $95 -1 $-1 $96 -0.10825454387499016 $97 0.036083631601908493 $62 $98 forward @7 unknown #
face $99 -1 $-1 $100 $101 $23 $-1 $102 reversed single #
loop $-1 -1 $-1 $-1 $103 $43 #
plane-surface $-1 -1 $-1 0 0 -0.1875 0 0 1 1 0 0 forward_v I I I I #
coedge $-1 -1 $-1 $104 $105 $106 $107 forward $44 $-1 #
face $-1 -1 $-1 $108 $109 $25 $-1 $48 reversed single #
loop $-1 -1 $-1 $-1 $110 $46 #
coedge $-1 -1 $-1 $111 $112 $113 $114 reversed $47 $-1 #
face $-1 -1 $-1 $115 $116 $27 $-1 $117 forward single #
loop $-1 -1 $-1 $-1 $118 $49 #
plane-surface $-1 -1 $-1 0.072169999999999845 -0.50004999999999988 0.125 0.8660217547228608 0 0.50000632030679104 0.50000632030679104 0 -0.8660217547228608 forward_v I I I I #
coedge $-1 -1 $-1 $119 $120 $121 $122 forward $50 $-1 #
face $-1 -1 $-1 $123 $124 $29 $-1 $125 forward single #
loop $-1 -1 $-1 $126 $127 $52 #
cone-surface $-1 -1 $-1 0 -0.40625 0 0 1 0 0.1875 0 0 1 I I 0 1 0.1875 forward I I I I #
loop $-1 -1 $-1 $-1 $128 $37 #
coedge $-1 -1 $-1 $79 $79 $129 $130 forward $53 $-1 #
model_id-kcp-attrib $-1 -1 $-1 $-1 $56 1 1021323820 1021323820 -2060451839 5 #
face $131 -1 $-1 $132 $133 $9 $-1 $134 reversed single #
loop $-1 -1 $-1 $-1 $135 $56 #
plane-surface $-1 -1 $-1 -5.1010299999999997 -2.9125100000000002 5.5990000000000002 0.8660217547228608 0 -0.50000632030679104 0 0.99999999999999989 0 forward_v I I I I #
coedge $-1 -1 $-1 $136 $137 $138 $139 reversed $57 $-1 #
coedge $-1 -1 $-1 $140 $59 $61 $92 forward $40 $-1 #
coedge $-1 -1 $-1 $59 $140 $136 $141 reversed $40 $-1 #
coedge $-1 -1 $-1 $138 $62 $59 $88 forward $94 $-1 #
edge $142 -1 $-1 $97 -0.10825499999999978 $143 0.03608499999999993 $87 $144 forward @7 unknown #
coedge $-1 -1 $-1 $61 $60 $145 $146 reversed $32 $-1 #
coedge $-1 -1 $-1 $147 $148 $60 $91 reversed $133 $-1 #
edge $-1 -1 $-1 $96 0.10001000000000017 $149 0.1937100000000003 $90 $150 forward @7 unknown #
edge $-1 -1 $-1 $97 0.10001000000000017 $151 0.1937100000000003 $61 $152 forward @7 unknown #
coedge $-1 -1 $-1 $62 $153 $147 $154 forward $94 $-1 #
loop $-1 -1 $-1 $155 $156 $157 #
attrib_edge_convexity-kcp-attrib $-1 -1 $158 $-1 $63 1 #
vertex $-1 -1 $-1 $63 $159 #
vertex $-1 -1 $-1 $88 $160 #
straight-curve $-1 -1 $-1 -5.2634120438605754 -2.8125 5.8177507900433421 0.50000632030679093 0 0.86602175472286069 I I #
model_id-kcp-attrib $-1 -1 $-1 $-1 $64 1 1021323820 1021323820 -2060451838 2 #
face $-1 -1 $-1 $161 $162 $23 $-1 $163 reversed single #
loop $-1 -1 $-1 $-1 $164 $64 #
plane-surface $-1 -1 $-1 0 -0.59374999999999989 0 0 1 0 0 0 1 forward_v I I I I #
coedge $-1 -1 $-1 $165 $166 $167 $168 forward $65 $-1 #
coedge $-1 -1 $-1 $169 $67 $170 $171 forward $44 $-1 #
coedge $-1 -1 $-1 $67 $169 $172 $173 forward $44 $-1 #
coedge $-1 -1 $-1 $174 $175 $67 $107 reversed $176 $-1 #
edge $-1 -1 $-1 $177 -0.59374999999999989 $178 0.59374999999999989 $106 $179 forward @7 unknown #
face $-1 -1 $-1 $180 $181 $25 $-1 $48 reversed single #
loop $-1 -1 $-1 $-1 $182 $68 #
coedge $-1 -1 $-1 $183 $184 $185 $186 reversed $69 $-1 #
coedge $-1 -1 $-1 $187 $70 $188 $189 forward $47 $-1 #
coedge $-1 -1 $-1 $70 $187 $190 $191 reversed $47 $-1 #
coedge $-1 -1 $-1 $192 $193 $70 $114 forward $194 $-1 #
edge $-1 -1 $-1 $195 0 $196 1.5707963267948966 $113 $197 forward @7 unknown #
face $-1 -1 $-1 $198 $199 $27 $-1 $200 forward single #
loop $-1 -1 $-1 $-1 $201 $71 #
plane-surface $-1 -1 $-1 0.14433999999999969 -0.50004999999999988 0 0.8660217547228608 0 -0.50000632030679104 -0.50000632030679104 0 -0.8660217547228608 forward_v I I I I #
coedge $-1 -1 $-1 $202 $203 $204 $205 forward $72 $-1 #
coedge $-1 -1 $-1 $206 $74 $203 $207 reversed $50 $-1 #
coedge $-1 -1 $-1 $74 $206 $208 $209 forward $50 $-1 #
coedge $-1 -1 $-1 $210 $204 $74 $122 reversed $211 $-1 #
edge $-1 -1 $-1 $212 -0.10825499999999977 $213 0.036084999999999923 $74 $214 forward @7 unknown #
face $-1 -1 $-1 $-1 $215 $29 $-1 $216 reversed single #
loop $-1 -1 $-1 $217 $218 $75 #
plane-surface $-1 -1 $-1 -0.0084090909090909043 0.59374999999999978 -5.2161565097312907e-018 0 1 0 0 0 1 forward_v I I I I #
loop $-1 -1 $-1 $-1 $219 $52 #
coedge $-1 -1 $-1 $127 $127 $218 $220 forward $76 $-1 #
coedge $-1 -1 $-1 $128 $128 $221 $222 reversed $78 $-1 #
coedge $-1 -1 $-1 $129 $129 $79 $130 reversed $217 $-1 #
edge $-1 -1 $-1 $223 0 $223 6.2831853071795862 $79 $224 forward @7 unknown #
model_id-kcp-attrib $-1 -1 $-1 $-1 $81 1 1021323820 1021323820 -2060451839 6 #
face $225 -1 $-1 $226 $227 $9 $-1 $228 reversed single #
loop $-1 -1 $-1 $-1 $147 $81 #
plane-surface $-1 -1 $-1 -5.3175399999999993 -2.9125100000000002 5.7240000000000002 -0.8660217547228608 0 -0.50000632030679104 0 -0.99999999999999989 0 forward_v I I I I #
coedge $-1 -1 $-1 $229 $230 $156 $231 reversed $82 $-1 #
coedge $-1 -1 $-1 $232 $84 $86 $141 forward $57 $-1 #
coedge $-1 -1 $-1 $84 $232 $229 $233 reversed $57 $-1 #
coedge $-1 -1 $-1 $156 $87 $84 $139 forward $94 $-1 #
edge $234 -1 $-1 $143 -0.10825271934035782 $235 0.036085456136540836 $138 $236 forward @7 unknown #
coedge $-1 -1 $-1 $86 $85 $237 $238 reversed $40 $-1 #
edge $-1 -1 $-1 $143 0.10001000000000017 $239 0.1937100000000003 $86 $240 forward @7 unknown #
attrib_edge_convexity-kcp-attrib $-1 -1 $241 $-1 $88 1 #
vertex $-1 -1 $-1 $139 $242 #
straight-curve $-1 -1 $-1 -5.1371149999999997 -2.8125 5.8490000000000002 0.99999999999999989 0 0 I I #
coedge $-1 -1 $-1 $243 $237 $89 $146 forward $244 $-1 #
edge $245 -1 $-1 $151 0 $149 0.14433817547689864 $89 $246 forward @7 unknown #
coedge $-1 -1 $-1 $247 $90 $93 $154 reversed $133 $-1 #
coedge $-1 -1 $-1 $90 $247 $243 $248 reversed $133 $-1 #
vertex $-1 -1 $-1 $91 $249 #
straight-curve $-1 -1 $-1 -5.3175399999999993 -2.9125100000000002 5.7240000000000002 0 0.99999999999999989 0 I I #
vertex $-1 -1 $-1 $92 $250 #
straight-curve $-1 -1 $-1 -5.2453699999999994 -2.9125100000000002 5.8490000000000002 0 0.99999999999999989 0 I I #
coedge $-1 -1 $-1 $93 $156 $251 $252 forward $94 $-1 #
edge $253 -1 $-1 $254 -0.10825271934035782 $96 0.036085456136540836 $93 $255 forward @7 unknown #
loop $-1 -1 $-1 $-1 $256 $157 #
coedge $-1 -1 $-1 $153 $138 $135 $231 forward $94 $-1 #
face $257 -1 $-1 $258 $94 $9 $-1 $259 forward single #
convexity-sys-attrib $-1 -1 $-1 $95 $63 #
point $-1 -1 $-1 -5.3175399999999993 -2.8125 5.7240000000000002 #
point $-1 -1 $-1 -5.2453699999999994 -2.8125 5.8490000000000002 #
face $260 -1 $-1 $261 $262 $23 $-1 $263 reversed single #
loop $-1 -1 $-1 $-1 $264 $100 #
plane-surface $-1 -1 $-1 -0.1875 0 0 1 0 0 0 0 -1 forward_v I I I I #
coedge $-1 -1 $-1 $265 $172 $266 $267 forward $101 $-1 #
coedge $-1 -1 $-1 $268 $103 $265 $269 forward $65 $-1 #
coedge $-1 -1 $-1 $103 $268 $270 $271 forward $65 $-1 #
coedge $-1 -1 $-1 $175 $174 $103 $168 reversed $176 $-1 #
edge $-1 -1 $-1 $272 -0.59374999999999989 $273 0.59374999999999989 $167 $274 forward @7 unknown #
coedge $-1 -1 $-1 $105 $104 $275 $276 forward $44 $-1 #
coedge $-1 -1 $-1 $277 $278 $104 $171 reversed $262 $-1 #
edge $-1 -1 $-1 $178 -0.1875 $279 0.1875 $170 $280 forward @7 unknown #
coedge $-1 -1 $-1 $164 $281 $105 $173 reversed $101 $-1 #
edge $-1 -1 $-1 $282 -0.1875 $177 0.1875 $172 $283 forward @7 unknown #
coedge $-1 -1 $-1 $167 $106 $281 $284 forward $176 $-1 #
coedge $-1 -1 $-1 $106 $167 $277 $285 reversed $176 $-1 #
loop $-1 -1 $-1 $-1 $174 $261 #
vertex $-1 -1 $-1 $107 $286 #
vertex $-1 -1 $-1 $107 $287 #
straight-curve $-1 -1 $-1 0.1875 0 0.1875 0 1 0 I I #
face $-1 -1 $-1 $288 $289 $25 $-1 $290 forward single #
loop $-1 -1 $-1 $-1 $291 $108 #
coedge $-1 -1 $-1 $292 $293 $291 $294 forward $109 $-1 #
coedge $-1 -1 $-1 $295 $110 $296 $297 reversed $69 $-1 #
coedge $-1 -1 $-1 $110 $295 $112 $191 forward $69 $-1 #
coedge $-1 -1 $-1 $298 $299 $110 $186 forward $300 $-1 #
edge $-1 -1 $-1 $301 -3.1415926535897931 $302 -1.5707963267948966 $185 $303 forward @7 unknown #
coedge $-1 -1 $-1 $112 $111 $304 $305 reversed $47 $-1 #
coedge $-1 -1 $-1 $293 $292 $306 $189 reversed $109 $-1 #
edge $-1 -1 $-1 $195 -1.1875 $307 -1.1102230246251565e-016 $306 $308 forward @7 unknown #
coedge $-1 -1 $-1 $309 $310 $311 $191 forward $312 $-1 #
edge $-1 -1 $-1 $196 -1.1875 $302 -1.1102230246251565e-016 $190 $313 forward @7 unknown #
coedge $-1 -1 $-1 $193 $113 $310 $314 reversed $194 $-1 #
coedge $-1 -1 $-1 $113 $192 $315 $316 forward $194 $-1 #
loop $-1 -1 $-1 $-1 $113 $317 #
vertex $-1 -1 $-1 $318 $319 #
vertex $-1 -1 $-1 $320 $321 #
ellipse-curve $-1 -1 $-1 0 0.59375 0 0 -1 0 0.1875 0 0 1 I I #
face $-1 -1 $-1 $322 $323 $27 $-1 $324 forward single #
loop $-1 -1 $-1 $-1 $325 $115 #
plane-surface $-1 -1 $-1 0.072169999999999845 -0.50004999999999988 -0.125 0 0 -1 -1 0 0 forward_v I I I I #
coedge $-1 -1 $-1 $326 $327 $328 $329 forward $116 $-1 #
coedge $-1 -1 $-1 $330 $118 $327 $331 reversed $72 $-1 #
coedge $-1 -1 $-1 $118 $330 $119 $207 forward $72 $-1 #
coedge $-1 -1 $-1 $121 $328 $118 $205 reversed $211 $-1 #
edge $-1 -1 $-1 $213 -0.10825271934035761 $332 0.036085456136541023 $118 $333 forward @7 unknown #
coedge $-1 -1 $-1 $120 $119 $334 $335 reversed $50 $-1 #
edge $336 -1 $-1 $337 0 $213 0.093700000000000117 $203 $338 forward @7 unknown #
coedge $-1 -1 $-1 $339 $340 $120 $209 reversed $341 $-1 #
edge $-1 -1 $-1 $342 0 $212 0.093700000000000117 $120 $343 forward @7 unknown #
coedge $-1 -1 $-1 $344 $121 $340 $345 reversed $211 $-1 #
loop $-1 -1 $-1 $-1 $121 $346 #
vertex $-1 -1 $-1 $209 $347 #
vertex $-1 -1 $-1 $207 $348 #
straight-curve $-1 -1 $-1 0.036084999999999923 -0.59375000000000022 0.125 1 0 0 I I #
loop $-1 -1 $-1 $349 $350 $123 #
plane-surface $-1 -1 $-1 -0.0084090909090909043 -0.40625 -5.2161565097312907e-018 0 1 0 0 0 1 forward_v I I I I #
loop $-1 -1 $-1 $-1 $129 $75 #
coedge $-1 -1 $-1 $218 $218 $127 $220 reversed $124 $-1 #
coedge $-1 -1 $-1 $219 $219 $350 $351 reversed $126 $-1 #
edge $-1 -1 $-1 $352 -3.1415926535897931 $352 3.1415926535897931 $127 $353 forward @7 unknown #
coedge $-1 -1 $-1 $221 $221 $128 $222 forward $349 $-1 #
edge $354 -1 $-1 $355 0 $355 6.2831853071795862 $128 $356 forward @7 unknown #
vertex $-1 -1 $-1 $130 $357 #
ellipse-curve $-1 -1 $-1 0 0.59374999999999978 0 0 1 0 0.094999999999999987 0 0 1 I I #
model_id-kcp-attrib $-1 -1 $-1 $-1 $132 1 1021323820 1021323820 -2060451839 7 #
face $358 -1 $-1 $359 $244 $9 $-1 $360 reversed single #
loop $-1 -1 $-1 $-1 $251 $132 #
plane-surface $-1 -1 $-1 -5.2453699999999994 -2.9125100000000002 5.5990000000000002 0 0 -1 0 0.99999999999999989 0 forward_v I I I I #
coedge $-1 -1 $-1 $361 $135 $137 $233 forward $82 $-1 #
coedge $-1 -1 $-1 $135 $361 $362 $363 reversed $82 $-1 #
edge $364 -1 $-1 $235 -0.10825454387499016 $365 0.036083631601908493 $156 $366 forward @7 unknown #
coedge $-1 -1 $-1 $137 $136 $367 $368 reversed $57 $-1 #
edge $-1 -1 $-1 $235 0.10001000000000017 $369 0.1937100000000003 $137 $370 forward @7 unknown #
attrib_edge_convexity-kcp-attrib $-1 -1 $371 $-1 $139 1 #
vertex $-1 -1 $-1 $231 $372 #
straight-curve $-1 -1 $-1 -5.0469029561394239 -2.8125 5.7552507900433421 0.50000632030679093 0 -0.86602175472286069 I I #
coedge $-1 -1 $-1 $145 $367 $140 $238 forward $244 $-1 #
edge $373 -1 $-1 $239 0 $151 0.14433999999999972 $140 $374 forward @7 unknown #
vertex $-1 -1 $-1 $141 $375 #
straight-curve $-1 -1 $-1 -5.1010299999999997 -2.9125100000000002 5.8490000000000002 0 0.99999999999999989 0 I I #
convexity-sys-attrib $-1 -1 $-1 $142 $88 #
point $-1 -1 $-1 -5.1010299999999997 -2.8125 5.8490000000000002 #
coedge $-1 -1 $-1 $376 $145 $148 $248 forward $244 $-1 #
loop $-1 -1 $-1 $-1 $377 $226 #
attrib_edge_convexity-kcp-attrib $-1 -1 $378 $-1 $146 2 #
straight-curve $-1 -1 $-1 -5.2453699999999994 -2.7187999999999999 5.8490000000000002 -0.50000632030679082 0 -0.86602175472286058 I I #
coedge $-1 -1 $-1 $148 $147 $379 $380 forward $133 $-1 #
edge $381 -1 $-1 $149 0 $382 0.14433817547689864 $148 $383 forward @7 unknown #
point $-1 -1 $-1 -5.3175399999999993 -2.7187999999999999 5.7240000000000002 #
point $-1 -1 $-1 -5.2453699999999994 -2.7187999999999999 5.8490000000000002 #
coedge $-1 -1 $-1 $362 $379 $153 $252 reversed $227 $-1 #
edge $384 -1 $-1 $365 -0.10825499999999978 $254 0.03608499999999993 $153 $385 forward @7 unknown #
attrib_edge_convexity-kcp-attrib $-1 -1 $386 $-1 $154 1 #
vertex $-1 -1 $-1 $154 $387 #
straight-curve $-1 -1 $-1 -5.2994970438605753 -2.8125 5.6927492099566583 -0.50000632030679093 0 0.86602175472286069 I I #
coedge $-1 -1 $-1 $256 $256 $388 $389 forward $155 $-1 #
model_id-kcp-attrib $-1 -1 $-1 $-1 $157 1 1021323820 1021323820 -2060451839 11 #
face $390 -1 $-1 $391 $392 $9 $-1 $393 forward single #
plane-surface $-1 -1 $-1 -5.1731999999999996 -2.8125 5.7240000000000002 0 -1 0 0.99999999999999989 0 0 forward_v I I I I #
model_id-kcp-attrib $-1 -1 $-1 $-1 $161 1 1021323820 1021323820 -2060451838 3 #
face $-1 -1 $-1 $-1 $176 $23 $-1 $394 reversed single #
loop $-1 -1 $-1 $-1 $277 $161 #
plane-surface $-1 -1 $-1 0 0.59374999999999989 0 0 -1 0 0 0 -1 forward_v I I I I #
coedge $-1 -1 $-1 $395 $275 $278 $396 forward $162 $-1 #
coedge $-1 -1 $-1 $281 $164 $165 $269 reversed $101 $-1 #
coedge $-1 -1 $-1 $275 $395 $164 $267 reversed $162 $-1 #
edge $-1 -1 $-1 $282 -0.1875 $397 0.1875 $266 $398 forward @7 unknown #
coedge $-1 -1 $-1 $166 $165 $395 $399 forward $65 $-1 #
edge $-1 -1 $-1 $273 -0.1875 $397 0.1875 $265 $400 forward @7 unknown #
coedge $-1 -1 $-1 $278 $277 $166 $271 reversed $262 $-1 #
edge $-1 -1 $-1 $401 -0.1875 $272 0.1875 $270 $402 forward @7 unknown #
vertex $-1 -1 $-1 $168 $403 #
vertex $-1 -1 $-1 $284 $404 #
straight-curve $-1 -1 $-1 0.1875 0 -0.1875 0 -1 0 I I #
coedge $-1 -1 $-1 $264 $266 $169 $276 reversed $162 $-1 #
edge $-1 -1 $-1 $279 -0.59374999999999989 $282 0.59374999999999989 $275 $405 forward @7 unknown #
coedge $-1 -1 $-1 $270 $170 $175 $285 forward $262 $-1 #
coedge $-1 -1 $-1 $170 $270 $264 $396 reversed $262 $-1 #
vertex $-1 -1 $-1 $171 $406 #
straight-curve $-1 -1 $-1 0 0.59374999999999989 0.1875 -1 0 0 I I #
coedge $-1 -1 $-1 $172 $265 $174 $284 reversed $101 $-1 #
vertex $-1 -1 $-1 $276 $407 #
straight-curve $-1 -1 $-1 0 -0.59374999999999989 0.1875 1 0 0 I I #
edge $-1 -1 $-1 $177 -0.1875 $273 0.1875 $174 $408 forward @7 unknown #
edge $-1 -1 $-1 $178 -0.1875 $272 0.1875 $175 $409 forward @7 unknown #
point $-1 -1 $-1 0.1875 -0.59374999999999989 0.1875 #
point $-1 -1 $-1 0.1875 0.59374999999999989 0.1875 #
face $-1 -1 $-1 $410 $411 $25 $-1 $412 reversed single #
loop $-1 -1 $-1 $-1 $311 $180 #
plane-surface $-1 -1 $-1 0 0 0.1875 0 0 1 1 0 0 forward_v I I I I #
coedge $-1 -1 $-1 $413 $414 $415 $294 reversed $181 $-1 #
coedge $-1 -1 $-1 $188 $182 $416 $417 reversed $109 $-1 #
coedge $-1 -1 $-1 $182 $188 $418 $419 reversed $109 $-1 #
edge $-1 -1 $-1 $420 -1.1875 $421 -1.1102230246251565e-016 $415 $422 forward @7 unknown #
coedge $-1 -1 $-1 $184 $183 $423 $424 reversed $69 $-1 #
coedge $-1 -1 $-1 $425 $426 $427 $297 forward $428 $-1 #
edge $-1 -1 $-1 $429 -1.1875 $301 -1.1102230246251565e-016 $296 $430 forward @7 unknown #
coedge $-1 -1 $-1 $299 $185 $431 $432 reversed $300 $-1 #
coedge $-1 -1 $-1 $185 $298 $425 $433 forward $300 $-1 #
loop $-1 -1 $-1 $-1 $185 $434 #
vertex $-1 -1 $-1 $435 $436 #
vertex $-1 -1 $-1 $437 $438 #
ellipse-curve $-1 -1 $-1 0 -0.59374999999999989 0 0 1 0 0.1875 0 0 1 I I #
coedge $-1 -1 $-1 $439 $440 $187 $305 forward $441 $-1 #
edge $-1 -1 $-1 $302 -1.5707963267948966 $307 0 $304 $303 forward @7 unknown #
coedge $-1 -1 $-1 $442 $443 $444 $189 forward $411 $-1 #
vertex $-1 -1 $-1 $445 $446 #
straight-curve $-1 -1 $-1 0.1875 -0.59375 0 0 -1 0 I I #
coedge $-1 -1 $-1 $447 $190 $440 $437 forward $312 $-1 #
coedge $-1 -1 $-1 $190 $447 $192 $314 forward $312 $-1 #
coedge $-1 -1 $-1 $448 $431 $184 $191 reversed $289 $-1 #
loop $-1 -1 $-1 $-1 $190 $449 #
straight-curve $-1 -1 $-1 0 -0.59375 0.1875 0 -1 0 I I #
edge $-1 -1 $-1 $450 -0.1875 $196 0 $192 $451 forward @7 unknown #
coedge $-1 -1 $-1 $452 $444 $193 $316 reversed $453 $-1 #
edge $-1 -1 $-1 $450 -0.1875 $195 0 $315 $454 forward @7 unknown #
face $-1 -1 $-1 $455 $194 $25 $-1 $456 reversed single #
edge $-1 -1 $-1 $195 0 $457 0.1875 $443 $454 forward @7 unknown #
point $-1 -1 $-1 0.1875 0.59375 0 #
edge $-1 -1 $-1 $196 0 $458 0.1875 $459 $451 forward @7 unknown #
point $-1 -1 $-1 0 0.59375 0.1875 #
face $-1 -1 $-1 $346 $341 $27 $-1 $460 forward single #
loop $-1 -1 $-1 $-1 $461 $198 #
plane-surface $-1 -1 $-1 -0.072169999999999845 -0.50004999999999988 -0.125 -0.8660217547228608 0 -0.50000632030679104 -0.50000632030679104 0 0.8660217547228608 forward_v I I I I #
coedge $-1 -1 $-1 $462 $463 $464 $465 forward $199 $-1 #
coedge $-1 -1 $-1 $466 $201 $463 $467 reversed $116 $-1 #
coedge $-1 -1 $-1 $201 $466 $202 $331 forward $116 $-1 #
coedge $-1 -1 $-1 $204 $464 $201 $329 reversed $211 $-1 #
edge $-1 -1 $-1 $332 -0.10825454387499035 $468 0.036083631601908292 $201 $469 forward @7 unknown #
coedge $-1 -1 $-1 $203 $202 $470 $471 reversed $72 $-1 #
edge $-1 -1 $-1 $472 0 $332 0.093700000000000117 $327 $473 forward @7 unknown #
vertex $-1 -1 $-1 $331 $474 #
straight-curve $-1 -1 $-1 0.12629704386057572 -0.59375000000000022 0.031250790043342087 0.50000632030679104 0 -0.8660217547228608 I I #
coedge $-1 -1 $-1 $470 $475 $206 $335 forward $476 $-1 #
edge $477 -1 $-1 $342 -0.10825499999999977 $337 0.036084999999999923 $206 $478 forward @7 unknown #
convexity-sys-attrib $-1 -1 $-1 $-1 $207 #
vertex $-1 -1 $-1 $335 $479 #
straight-curve $-1 -1 $-1 0.072169999999999845 -0.50004999999999988 0.125 0 -1 0 I I #
coedge $-1 -1 $-1 $480 $208 $475 $481 reversed $341 $-1 #
coedge $-1 -1 $-1 $208 $480 $210 $345 forward $341 $-1 #
loop $-1 -1 $-1 $-1 $340 $322 #
vertex $-1 -1 $-1 $481 $482 #
straight-curve $-1 -1 $-1 -0.072169999999999845 -0.50004999999999988 0.125 0 -1 0 I I #
coedge $-1 -1 $-1 $464 $210 $461 $483 reversed $211 $-1 #
edge $-1 -1 $-1 $484 -0.10825454387499035 $212 0.036083631601908292 $340 $485 forward @7 unknown #
face $-1 -1 $-1 $486 $211 $27 $-1 $487 reversed single #
point $-1 -1 $-1 -0.072169999999999845 -0.59375 0.125 #
point $-1 -1 $-1 0.072169999999999845 -0.59375 0.125 #
loop $-1 -1 $-1 $-1 $221 $123 #
coedge $-1 -1 $-1 $350 $350 $219 $351 forward $215 $-1 #
edge $488 -1 $-1 $489 -3.1415926535897931 $489 3.1415926535897931 $219 $490 forward @7 unknown #
vertex $-1 -1 $-1 $220 $491 #
ellipse-curve $-1 -1 $-1 0 0.59374999999999978 0 0 -1 0 0.1875 0 0 1 I I #
convexity-sys-attrib $-1 -1 $-1 $-1 $222 #
vertex $-1 -1 $-1 $222 $492 #
ellipse-curve $-1 -1 $-1 0 -0.40625 0 0 1 0 0.094999999999999987 0 0 1 I I #
point $-1 -1 $-1 0.094999999999999751 0.59374999999999978 0 #
model_id-kcp-attrib $-1 -1 $-1 $-1 $226 1 1021323820 1021323820 -2060451839 8 #
face $493 -1 $-1 $494 $495 $9 $-1 $496 forward single #
plane-surface $-1 -1 $-1 -5.1010299999999997 -2.7187999999999999 5.5990000000000002 0 1 0 -0.99999999999999989 0 0 forward_v I I I I #
coedge $-1 -1 $-1 $230 $229 $377 $497 reversed $82 $-1 #
coedge $-1 -1 $-1 $498 $251 $230 $363 forward $227 $-1 #
edge $-1 -1 $-1 $365 0.10001000000000017 $499 0.1937100000000003 $230 $500 forward @7 unknown #
attrib_edge_convexity-kcp-attrib $-1 -1 $501 $-1 $231 1 #
vertex $-1 -1 $-1 $231 $502 #
straight-curve $-1 -1 $-1 -5.0829879561394238 -2.8125 5.6302492099566583 -0.50000632030679093 0 -0.86602175472286069 I I #
coedge $-1 -1 $-1 $237 $377 $232 $368 forward $244 $-1 #
edge $503 -1 $-1 $369 0 $239 0.14433817547689864 $232 $504 forward @7 unknown #
vertex $-1 -1 $-1 $233 $505 #
straight-curve $-1 -1 $-1 -5.0288599999999999 -2.9125100000000002 5.7240000000000002 0 0.99999999999999989 0 I I #
convexity-sys-attrib $-1 -1 $-1 $234 $139 #
point $-1 -1 $-1 -5.0288599999999999 -2.8125 5.7240000000000002 #
attrib_edge_convexity-kcp-attrib $-1 -1 $506 $-1 $238 2 #
straight-curve $-1 -1 $-1 -5.1010299999999997 -2.7187999999999999 5.8490000000000002 -0.99999999999999989 0 0 I I #
point $-1 -1 $-1 -5.1010299999999997 -2.7187999999999999 5.8490000000000002 #
coedge $-1 -1 $-1 $377 $243 $498 $507 forward $244 $-1 #
coedge $-1 -1 $-1 $367 $376 $361 $497 forward $244 $-1 #
convexity-sys-attrib $-1 -1 $-1 $245 $146 #
coedge $-1 -1 $-1 $251 $498 $247 $380 reversed $227 $-1 #
edge $-1 -1 $-1 $254 0.10001000000000017 $382 0.1937100000000003 $379 $508 forward @7 unknown #
attrib_edge_convexity-kcp-attrib $-1 -1 $509 $-1 $248 2 #
vertex $-1 -1 $-1 $380 $510 #
straight-curve $-1 -1 $-1 -5.3175399999999993 -2.7187999999999999 5.7240000000000002 0.50000632030679082 0 -0.86602175472286058 I I #
attrib_edge_convexity-kcp-attrib $-1 -1 $511 $-1 $252 1 #
straight-curve $-1 -1 $-1 -5.2092849999999995 -2.8125 5.5990000000000002 -0.99999999999999989 0 0 I I #
convexity-sys-attrib $-1 -1 $-1 $253 $154 #
point $-1 -1 $-1 -5.2453699999999994 -2.8125 5.5990000000000002 #
coedge $-1 -1 $-1 $388 $388 $256 $389 reversed $512 $-1 #
edge $513 -1 $-1 $514 0 $514 6.2831853071795862 $256 $515 forward @7 unknown #
model_id-kcp-attrib $-1 -1 $-1 $-1 $258 1 1021323820 1021323820 -2060451839 12 #
face $516 -1 $-1 $-1 $517 $9 $-1 $518 forward single #
loop $-1 -1 $-1 $519 $520 $258 #
cone-surface $-1 -1 $-1 -5.1731999999999996 -2.125 5.7240000000000002 0 -1 0 0.094999999999999987 0 0 1 I I 0 1 0.094999999999999987 forward I I I I #
plane-surface $-1 -1 $-1 0.1875 0 0 -1 0 0 0 0 1 forward_v I I I I #
coedge $-1 -1 $-1 $266 $264 $268 $399 reversed $162 $-1 #
edge $-1 -1 $-1 $279 -0.1875 $401 0.1875 $278 $521 forward @7 unknown #
vertex $-1 -1 $-1 $399 $522 #
straight-curve $-1 -1 $-1 -0.1875 -0.59374999999999989 0 0 0 -1 I I #
edge $-1 -1 $-1 $397 -0.59374999999999989 $401 0.59374999999999989 $395 $523 forward @7 unknown #
straight-curve $-1 -1 $-1 0 -0.59374999999999989 -0.1875 -1 0 0 I I #
vertex $-1 -1 $-1 $271 $524 #
straight-curve $-1 -1 $-1 0 0.59374999999999989 -0.1875 1 0 0 I I #
point $-1 -1 $-1 0.1875 0.59374999999999989 -0.1875 #
point $-1 -1 $-1 0.1875 -0.59374999999999989 -0.1875 #
straight-curve $-1 -1 $-1 -0.1875 0 0.1875 0 -1 0 I I #
point $-1 -1 $-1 -0.1875 0.59374999999999989 0.1875 #
point $-1 -1 $-1 -0.1875 -0.59374999999999989 0.1875 #
straight-curve $-1 -1 $-1 0.1875 -0.59374999999999989 0 0 0 -1 I I #
straight-curve $-1 -1 $-1 0.1875 0.59374999999999989 0 0 0 -1 I I #
face $-1 -1 $-1 $525 $526 $25 $-1 $527 reversed single #
loop $-1 -1 $-1 $-1 $306 $288 #
plane-surface $-1 -1 $-1 0.1875 0 0 -1 0 0 0 0 1 forward_v I I I I #
coedge $-1 -1 $-1 $528 $291 $529 $530 reversed $181 $-1 #
coedge $-1 -1 $-1 $291 $528 $531 $532 reversed $181 $-1 #
coedge $-1 -1 $-1 $533 $534 $535 $294 forward $536 $-1 #
coedge $-1 -1 $-1 $537 $538 $292 $417 forward $539 $-1 #
edge $-1 -1 $-1 $307 0 $421 1.5707963267948966 $416 $303 forward @7 unknown #
coedge $-1 -1 $-1 $540 $541 $293 $419 forward $542 $-1 #
edge $-1 -1 $-1 $420 -1.5707963267948966 $195 0 $418 $197 forward @7 unknown #
vertex $-1 -1 $-1 $543 $544 #
vertex $-1 -1 $-1 $545 $546 #
straight-curve $-1 -1 $-1 0 -0.59375 -0.1875 0 -1 0 I I #
coedge $-1 -1 $-1 $547 $459 $295 $424 forward $548 $-1 #
edge $-1 -1 $-1 $196 1.5707963267948966 $429 3.1415926535897931 $423 $197 forward @7 unknown #
coedge $-1 -1 $-1 $549 $296 $299 $433 reversed $428 $-1 #
coedge $-1 -1 $-1 $296 $549 $547 $550 forward $428 $-1 #
coedge $-1 -1 $-1 $551 $552 $528 $297 reversed $526 $-1 #
loop $-1 -1 $-1 $-1 $296 $553 #
vertex $-1 -1 $-1 $554 $555 #
straight-curve $-1 -1 $-1 -0.1875 -0.59375 0 0 -1 0 I I #
coedge $-1 -1 $-1 $311 $556 $298 $432 forward $289 $-1 #
edge $-1 -1 $-1 $557 -0.1875 $302 0 $298 $558 forward @7 unknown #
edge $-1 -1 $-1 $557 -0.1875 $301 0 $425 $559 forward @7 unknown #
face $-1 -1 $-1 $560 $300 $25 $-1 $561 reversed single #
edge $-1 -1 $-1 $301 0 $562 0.1875 $552 $559 forward @7 unknown #
point $-1 -1 $-1 -0.1875 -0.59374999999999989 0 #
edge $-1 -1 $-1 $302 0 $563 0.1875 $440 $558 forward @7 unknown #
point $-1 -1 $-1 0 -0.59374999999999989 0.1875 #
coedge $-1 -1 $-1 $440 $304 $564 $565 reversed $441 $-1 #
coedge $-1 -1 $-1 $304 $439 $309 $437 reversed $441 $-1 #
loop $-1 -1 $-1 $-1 $304 $560 #
coedge $-1 -1 $-1 $566 $306 $538 $445 forward $411 $-1 #
coedge $-1 -1 $-1 $306 $566 $540 $318 reversed $411 $-1 #
coedge $-1 -1 $-1 $315 $564 $111 $189 reversed $453 $-1 #
edge $-1 -1 $-1 $307 0 $567 0.1875 $442 $568 forward @7 unknown #
point $-1 -1 $-1 0.1875 -0.59374999999999989 0 #
coedge $-1 -1 $-1 $310 $309 $452 $569 forward $312 $-1 #
coedge $-1 -1 $-1 $556 $311 $459 $320 forward $289 $-1 #
face $-1 -1 $-1 $570 $312 $25 $-1 $290 forward single #
vertex $-1 -1 $-1 $569 $571 #
straight-curve $-1 -1 $-1 0 0.59374999999999989 0.1875 -1 0 0 I I #
coedge $-1 -1 $-1 $564 $315 $447 $569 reversed $453 $-1 #
loop $-1 -1 $-1 $-1 $444 $572 #
straight-curve $-1 -1 $-1 0.1875 0.59374999999999989 0 0 0 -1 I I #
face $-1 -1 $-1 $573 $548 $25 $-1 $456 reversed single #
plane-surface $-1 -1 $-1 0 0.59374999999999989 0 0 -1 0 0 0 -1 forward_v I I I I #
vertex $-1 -1 $-1 $574 $575 #
vertex $-1 -1 $-1 $320 $576 #
coedge $-1 -1 $-1 $423 $547 $448 $320 reversed $548 $-1 #
plane-surface $-1 -1 $-1 -0.14433999999999969 -0.50004999999999988 0 -0.8660217547228608 0 0.50000632030679104 0.50000632030679104 0 0.8660217547228608 forward_v I I I I #
coedge $-1 -1 $-1 $577 $578 $344 $483 forward $323 $-1 #
coedge $-1 -1 $-1 $579 $325 $578 $580 reversed $199 $-1 #
coedge $-1 -1 $-1 $325 $579 $326 $467 forward $199 $-1 #
coedge $-1 -1 $-1 $328 $344 $325 $465 reversed $211 $-1 #
edge $-1 -1 $-1 $468 -0.10825499999999977 $581 0.036084999999999923 $325 $582 forward @7 unknown #
coedge $-1 -1 $-1 $327 $326 $583 $584 reversed $116 $-1 #
edge $-1 -1 $-1 $585 0 $468 0.093700000000000117 $463 $586 forward @7 unknown #
vertex $-1 -1 $-1 $467 $587 #
straight-curve $-1 -1 $-1 0.090212043860575852 -0.59375000000000022 -0.093750790043342122 -0.50000632030679104 0 -0.8660217547228608 I I #
coedge $-1 -1 $-1 $583 $334 $330 $471 forward $476 $-1 #
edge $588 -1 $-1 $337 -0.10825271934035761 $472 0.036085456136541023 $330 $589 forward @7 unknown #
vertex $-1 -1 $-1 $471 $590 #
straight-curve $-1 -1 $-1 0.14433999999999969 -0.50004999999999988 0 0 -1 0 I I #
point $-1 -1 $-1 0.14433999999999969 -0.59375 0 #
coedge $-1 -1 $-1 $334 $591 $339 $481 forward $476 $-1 #
loop $-1 -1 $-1 $-1 $475 $486 #
convexity-sys-attrib $-1 -1 $-1 $-1 $335 #
straight-curve $-1 -1 $-1 0.036084999999999923 -0.50005000000000011 0.125 1 0 0 I I #
point $-1 -1 $-1 0.072169999999999845 -0.50004999999999988 0.125 #
coedge $-1 -1 $-1 $340 $339 $577 $592 forward $341 $-1 #
edge $593 -1 $-1 $594 -0.10825454387499035 $342 0.036083631601908292 $339 $595 forward @7 unknown #
point $-1 -1 $-1 -0.072169999999999845 -0.50004999999999988 0.125 #
edge $-1 -1 $-1 $581 -0.10825271934035761 $484 0.036085456136541023 $461 $596 forward @7 unknown #
vertex $-1 -1 $-1 $592 $597 #
straight-curve $-1 -1 $-1 -0.090212043860575852 -0.59375000000000022 0.093750790043342122 0.50000632030679104 0 0.8660217547228608 I I #
face $-1 -1 $-1 $-1 $476 $27 $-1 $598 forward single #
plane-surface $-1 -1 $-1 -3.8899895203321101e-018 -0.59375000000000011 0 -4.1331139236078625e-031 1 -1.8894871981341624e-031 0 1.8894871981341624e-031 1 forward_v I I I I #
convexity-sys-attrib $-1 -1 $-1 $-1 $351 #
vertex $-1 -1 $-1 $351 $599 #
ellipse-curve $-1 -1 $-1 0 -0.40625 0 0 -1 0 0.1875 0 0 1 I I #
point $-1 -1 $-1 -0.1875 0.59374999999999978 -2.2961369134169574e-017 #
point $-1 -1 $-1 0.094999999999999751 -0.40625 0 #
model_id-kcp-attrib $-1 -1 $-1 $-1 $359 1 1021323820 1021323820 -2060451839 9 #
face $600 -1 $-1 $157 $601 $9 $-1 $602 forward single #
loop $-1 -1 $-1 $603 $604 $359 #
plane-surface $-1 -1 $-1 -5.1731999999999996 -2.625 5.7240000000000002 0 1 0 -0.99999999999999989 0 0 forward_v I I I I #
edge $605 -1 $-1 $499 0 $369 0.14433817547689864 $361 $606 forward @7 unknown #
coedge $-1 -1 $-1 $379 $362 $376 $507 reversed $227 $-1 #
vertex $-1 -1 $-1 $363 $607 #
straight-curve $-1 -1 $-1 -5.1010299999999997 -2.9125100000000002 5.5990000000000002 0 0.99999999999999989 0 I I #
convexity-sys-attrib $-1 -1 $-1 $364 $231 #
point $-1 -1 $-1 -5.1010299999999997 -2.8125 5.5990000000000002 #
attrib_edge_convexity-kcp-attrib $-1 -1 $608 $-1 $368 2 #
straight-curve $-1 -1 $-1 -5.0288599999999999 -2.7187999999999999 5.7240000000000002 -0.50000632030679082 0 0.86602175472286058 I I #
point $-1 -1 $-1 -5.0288599999999999 -2.7187999999999999 5.7240000000000002 #
convexity-sys-attrib $-1 -1 $-1 $373 $238 #
edge $609 -1 $-1 $382 0 $499 0.14433999999999972 $498 $610 forward @7 unknown #
straight-curve $-1 -1 $-1 -5.2453699999999994 -2.9125100000000002 5.5990000000000002 0 0.99999999999999989 0 I I #
convexity-sys-attrib $-1 -1 $-1 $381 $248 #
point $-1 -1 $-1 -5.2453699999999994 -2.7187999999999999 5.5990000000000002 #
convexity-sys-attrib $-1 -1 $-1 $384 $252 #
loop $-1 -1 $-1 $-1 $388 $494 #
attrib_edge_convexity-kcp-attrib $-1 -1 $611 $-1 $389 1 #
vertex $-1 -1 $-1 $389 $612 #
ellipse-curve $-1 -1 $-1 -5.1731999999999996 -2.8125 5.7240000000000002 0 -1 0 0.1875 0 0 1 I I #
model_id-kcp-attrib $-1 -1 $-1 $-1 $391 1 1021323820 1021323820 -2060451839 13 #
loop $-1 -1 $-1 $-1 $613 $391 #
plane-surface $-1 -1 $-1 -5.1731999999999996 -1.6250000000000002 5.7240000000000002 0 1 0 -0.99999999999999989 0 0 forward_v I I I I #
loop $-1 -1 $-1 $-1 $614 $258 #
coedge $-1 -1 $-1 $520 $520 $613 $615 reversed $392 $-1 #
straight-curve $-1 -1 $-1 -0.1875 0.59374999999999989 0 0 0 -1 I I #
point $-1 -1 $-1 -0.1875 -0.59374999999999989 -0.1875 #
straight-curve $-1 -1 $-1 -0.1875 0 -0.1875 0 1 0 I I #
point $-1 -1 $-1 -0.1875 0.59374999999999989 -0.1875 #
face $-1 -1 $-1 $434 $616 $25 $-1 $561 reversed single #
loop $-1 -1 $-1 $-1 $427 $410 #
plane-surface $-1 -1 $-1 -0.1875 0 0 1 0 0 0 0 -1 forward_v I I I I #
coedge $-1 -1 $-1 $414 $413 $183 $297 forward $181 $-1 #
coedge $-1 -1 $-1 $617 $618 $413 $530 forward $619 $-1 #
edge $-1 -1 $-1 $429 -3.1415926535897931 $420 -1.5707963267948966 $529 $197 forward @7 unknown #
coedge $-1 -1 $-1 $620 $621 $414 $532 forward $616 $-1 #
edge $-1 -1 $-1 $421 1.5707963267948966 $301 3.1415926535897931 $531 $303 forward @7 unknown #
coedge $-1 -1 $-1 $622 $415 $621 $545 forward $536 $-1 #
coedge $-1 -1 $-1 $415 $622 $617 $623 forward $536 $-1 #
coedge $-1 -1 $-1 $624 $625 $182 $294 reversed $626 $-1 #
loop $-1 -1 $-1 $-1 $415 $570 #
coedge $-1 -1 $-1 $538 $416 $625 $627 reversed $539 $-1 #
coedge $-1 -1 $-1 $416 $537 $442 $445 reversed $539 $-1 #
loop $-1 -1 $-1 $-1 $416 $628 #
coedge $-1 -1 $-1 $541 $418 $443 $318 forward $542 $-1 #
coedge $-1 -1 $-1 $418 $540 $624 $543 reversed $542 $-1 #
loop $-1 -1 $-1 $-1 $418 $629 #
edge $-1 -1 $-1 $420 0 $457 0.1875 $541 $630 forward @7 unknown #
point $-1 -1 $-1 0 0.59375 -0.1875 #
edge $-1 -1 $-1 $421 0 $562 0.1875 $621 $631 forward @7 unknown #
point $-1 -1 $-1 0 -0.59374999999999989 -0.1875 #
coedge $-1 -1 $-1 $459 $423 $426 $550 reversed $548 $-1 #
loop $-1 -1 $-1 $-1 $423 $455 #
coedge $-1 -1 $-1 $426 $425 $556 $632 reversed $428 $-1 #
edge $-1 -1 $-1 $458 -0.1875 $429 0 $547 $633 forward @7 unknown #
coedge $-1 -1 $-1 $634 $427 $618 $554 forward $526 $-1 #
coedge $-1 -1 $-1 $427 $634 $620 $435 reversed $526 $-1 #
face $-1 -1 $-1 $572 $428 $25 $-1 $527 reversed single #
edge $-1 -1 $-1 $429 0 $635 0.1875 $618 $633 forward @7 unknown #
point $-1 -1 $-1 -0.1875 0.59375 0 #
coedge $-1 -1 $-1 $431 $448 $549 $632 forward $289 $-1 #
vertex $-1 -1 $-1 $632 $636 #
straight-curve $-1 -1 $-1 0 -0.59374999999999989 0.1875 1 0 0 I I #
straight-curve $-1 -1 $-1 -0.1875 -0.59374999999999989 0 0 0 -1 I I #
face $-1 -1 $-1 $628 $441 $25 $-1 $561 reversed single #
plane-surface $-1 -1 $-1 0 -0.59374999999999989 0 0 1 0 0 0 1 forward_v I I I I #
vertex $-1 -1 $-1 $637 $638 #
vertex $-1 -1 $-1 $569 $639 #
coedge $-1 -1 $-1 $444 $452 $439 $565 forward $453 $-1 #
edge $-1 -1 $-1 $563 -0.1875 $307 0 $564 $568 forward @7 unknown #
coedge $-1 -1 $-1 $443 $442 $640 $574 reversed $411 $-1 #
vertex $-1 -1 $-1 $445 $641 #
straight-curve $-1 -1 $-1 0.1875 -0.59374999999999989 0 0 0 -1 I I #
edge $-1 -1 $-1 $563 -0.59374999999999989 $450 0.59374999999999989 $452 $642 forward @7 unknown #
face $-1 -1 $-1 $553 $536 $25 $-1 $643 reversed single #
point $-1 -1 $-1 0.1875 0.59374999999999989 0.1875 #
face $-1 -1 $-1 $-1 $453 $25 $-1 $412 reversed single #
face $-1 -1 $-1 $644 $619 $25 $-1 $456 reversed single #
edge $-1 -1 $-1 $457 -0.59374999999999989 $567 0.59374999999999989 $566 $645 forward @7 unknown #
point $-1 -1 $-1 0.1875 0.59374999999999989 -0.1875 #
point $-1 -1 $-1 -0.1875 0.59374999999999989 0.1875 #
coedge $-1 -1 $-1 $646 $461 $480 $592 reversed $323 $-1 #
coedge $-1 -1 $-1 $461 $646 $462 $580 forward $323 $-1 #
coedge $-1 -1 $-1 $463 $462 $647 $648 reversed $199 $-1 #
edge $-1 -1 $-1 $649 0 $581 0.093700000000000117 $578 $650 forward @7 unknown #
vertex $-1 -1 $-1 $580 $651 #
straight-curve $-1 -1 $-1 -0.036084999999999923 -0.59375000000000022 -0.125 -1 0 0 I I #
coedge $-1 -1 $-1 $647 $470 $466 $584 forward $476 $-1 #
edge $652 -1 $-1 $472 -0.10825454387499035 $585 0.036083631601908292 $466 $653 forward @7 unknown #
vertex $-1 -1 $-1 $584 $654 #
straight-curve $-1 -1 $-1 0.072169999999999845 -0.50004999999999988 -0.125 0 -1 0 I I #
point $-1 -1 $-1 0.072169999999999845 -0.59375 -0.125 #
convexity-sys-attrib $-1 -1 $-1 $-1 $471 #
straight-curve $-1 -1 $-1 0.12629704386057572 -0.50005000000000011 0.031250790043342087 0.50000632030679104 0 -0.8660217547228608 I I #
point $-1 -1 $-1 0.14433999999999969 -0.50004999999999988 0 #
coedge $-1 -1 $-1 $475 $647 $646 $655 forward $476 $-1 #
edge $-1 -1 $-1 $594 0 $484 0.093700000000000117 $480 $656 forward @7 unknown #
convexity-sys-attrib $-1 -1 $-1 $-1 $481 #
vertex $-1 -1 $-1 $481 $657 #
straight-curve $-1 -1 $-1 -0.090212043860575852 -0.50005000000000011 0.093750790043342122 0.50000632030679104 0 0.8660217547228608 I I #
straight-curve $-1 -1 $-1 -0.12629704386057572 -0.59375000000000022 -0.031250790043342087 -0.50000632030679104 0 0.8660217547228608 I I #
point $-1 -1 $-1 -0.14433999999999969 -0.59375 0 #
plane-surface $-1 -1 $-1 -3.8899895203321101e-018 -0.50004999999999999 0 -4.1331139236078625e-031 1 -1.8894871981341624e-031 0 1.8894871981341624e-031 1 forward_v I I I I #
point $-1 -1 $-1 -0.1875 -0.40625 -2.2961369134169574e-017 #
model_id-kcp-attrib $-1 -1 $-1 $-1 $494 1 1021323820 1021323820 -2060451839 10 #
loop $-1 -1 $-1 $512 $658 $494 #
cone-surface $-1 -1 $-1 -5.1731999999999996 -2.71875 5.7240000000000002 0 -1 0 0.1875 0 0 1 I I 0 1 0.1875 forward I I I I #
loop $-1 -1 $-1 $-1 $659 $359 #
coedge $-1 -1 $-1 $604 $604 $658 $660 forward $495 $-1 #
attrib_edge_convexity-kcp-attrib $-1 -1 $661 $-1 $497 2 #
straight-curve $-1 -1 $-1 -5.1010299999999997 -2.7187999999999999 5.5990000000000002 0.50000632030679082 0 0.86602175472286058 I I #
point $-1 -1 $-1 -5.1010299999999997 -2.7187999999999999 5.5990000000000002 #
convexity-sys-attrib $-1 -1 $-1 $503 $368 #
attrib_edge_convexity-kcp-attrib $-1 -1 $662 $-1 $507 2 #
straight-curve $-1 -1 $-1 -5.2453699999999994 -2.7187999999999999 5.5990000000000002 0.99999999999999989 0 0 I I #
convexity-sys-attrib $-1 -1 $-1 $513 $389 #
point $-1 -1 $-1 -4.9856999999999996 -2.8125 5.7240000000000002 #
coedge $-1 -1 $-1 $613 $613 $520 $615 forward $517 $-1 #
coedge $-1 -1 $-1 $614 $614 $659 $663 forward $519 $-1 #
edge $-1 -1 $-1 $664 0 $664 6.2831853071795862 $613 $665 forward @7 unknown #
loop $-1 -1 $-1 $-1 $531 $525 #
coedge $-1 -1 $-1 $618 $529 $534 $623 reversed $619 $-1 #
coedge $-1 -1 $-1 $529 $617 $551 $554 reversed $619 $-1 #
loop $-1 -1 $-1 $-1 $529 $573 #
coedge $-1 -1 $-1 $621 $531 $552 $435 forward $616 $-1 #
coedge $-1 -1 $-1 $531 $620 $533 $545 reversed $616 $-1 #
coedge $-1 -1 $-1 $534 $533 $634 $637 forward $536 $-1 #
edge $-1 -1 $-1 $635 -0.1875 $420 0 $617 $630 forward @7 unknown #
coedge $-1 -1 $-1 $640 $535 $541 $543 forward $626 $-1 #
coedge $-1 -1 $-1 $535 $640 $537 $627 forward $626 $-1 #
loop $-1 -1 $-1 $-1 $535 $644 #
edge $-1 -1 $-1 $567 -0.1875 $421 0 $537 $631 forward @7 unknown #
face $-1 -1 $-1 $629 $539 $25 $-1 $561 reversed single #
face $-1 -1 $-1 $317 $542 $25 $-1 $456 reversed single #
straight-curve $-1 -1 $-1 0 0.59374999999999989 -0.1875 1 0 0 I I #
straight-curve $-1 -1 $-1 0 -0.59374999999999989 -0.1875 -1 0 0 I I #
edge $-1 -1 $-1 $458 -0.59374999999999989 $557 0.59374999999999989 $549 $666 forward @7 unknown #
straight-curve $-1 -1 $-1 -0.1875 0.59374999999999989 0 0 0 -1 I I #
coedge $-1 -1 $-1 $552 $551 $622 $637 reversed $526 $-1 #
vertex $-1 -1 $-1 $623 $667 #
point $-1 -1 $-1 -0.1875 -0.59374999999999989 0.1875 #
edge $-1 -1 $-1 $562 -0.59374999999999989 $635 0.59374999999999989 $634 $668 forward @7 unknown #
point $-1 -1 $-1 -0.1875 -0.59374999999999989 -0.1875 #
point $-1 -1 $-1 0.1875 -0.59374999999999989 0.1875 #
coedge $-1 -1 $-1 $625 $624 $566 $574 forward $626 $-1 #
point $-1 -1 $-1 0.1875 -0.59374999999999989 -0.1875 #
straight-curve $-1 -1 $-1 0.1875 0 0.1875 0 1 0 I I #
plane-surface $-1 -1 $-1 0 0 -0.1875 0 0 1 1 0 0 forward_v I I I I #
face $-1 -1 $-1 $449 $626 $25 $-1 $643 reversed single #
straight-curve $-1 -1 $-1 0.1875 0 -0.1875 0 -1 0 I I #
coedge $-1 -1 $-1 $578 $577 $591 $655 reversed $323 $-1 #
coedge $-1 -1 $-1 $591 $583 $579 $648 forward $476 $-1 #
edge $669 -1 $-1 $585 -0.10825499999999977 $649 0.036084999999999923 $579 $670 forward @7 unknown #
vertex $-1 -1 $-1 $648 $671 #
straight-curve $-1 -1 $-1 -0.072169999999999845 -0.50004999999999988 -0.125 0 -1 0 I I #
point $-1 -1 $-1 -0.072169999999999845 -0.59375 -0.125 #
convexity-sys-attrib $-1 -1 $-1 $-1 $584 #
straight-curve $-1 -1 $-1 0.090212043860575852 -0.50005000000000011 -0.093750790043342122 -0.50000632030679104 0 -0.8660217547228608 I I #
point $-1 -1 $-1 0.072169999999999845 -0.50004999999999988 -0.125 #
edge $672 -1 $-1 $649 -0.10825271934035761 $594 0.036085456136541023 $646 $673 forward @7 unknown #
straight-curve $-1 -1 $-1 -0.14433999999999969 -0.50004999999999988 0 0 -1 0 I I #
point $-1 -1 $-1 -0.14433999999999969 -0.50004999999999988 0 #
coedge $-1 -1 $-1 $658 $658 $604 $660 reversed $601 $-1 #
coedge $-1 -1 $-1 $659 $659 $614 $663 reversed $603 $-1 #
edge $674 -1 $-1 $675 0 $675 6.2831853071795862 $604 $676 forward @7 unknown #
convexity-sys-attrib $-1 -1 $-1 $605 $497 #
convexity-sys-attrib $-1 -1 $-1 $609 $507 #
edge $677 -1 $-1 $678 -6.2831853071795862 $678 0 $614 $679 reversed @7 unknown #
vertex $-1 -1 $-1 $615 $680 #
ellipse-curve $-1 -1 $-1 -5.1731999999999996 -1.6250000000000002 5.7240000000000002 0 1 0 0.094999999999999987 0 0 1 I I #
straight-curve $-1 -1 $-1 -0.1875 0 0.1875 0 -1 0 I I #
point $-1 -1 $-1 -0.1875 0.59374999999999989 -0.1875 #
straight-curve $-1 -1 $-1 -0.1875 0 -0.1875 0 1 0 I I #
convexity-sys-attrib $-1 -1 $-1 $-1 $648 #
straight-curve $-1 -1 $-1 -0.036084999999999923 -0.50005000000000011 -0.125 -1 0 0 I I #
point $-1 -1 $-1 -0.072169999999999845 -0.50004999999999988 -0.125 #
convexity-sys-attrib $-1 -1 $-1 $-1 $655 #
straight-curve $-1 -1 $-1 -0.12629704386057572 -0.50005000000000011 -0.031250790043342087 -0.50000632030679104 0 0.8660217547228608 I I #
attrib_edge_convexity-kcp-attrib $-1 -1 $681 $-1 $660 1 #
vertex $-1 -1 $-1 $660 $682 #
ellipse-curve $-1 -1 $-1 -5.1731999999999996 -2.625 5.7240000000000002 0 1 0 0.1875 0 0 1 I I #
attrib_edge_convexity-kcp-attrib $-1 -1 $683 $-1 $663 2 #
vertex $-1 -1 $-1 $663 $684 #
ellipse-curve $-1 -1 $-1 -5.1731999999999996 -2.625 5.7240000000000002 0 -1 0 0.094999999999999987 0 0 1 I I #
point $-1 -1 $-1 -5.0781999999999998 -1.6250000000000002 5.7240000000000002 #
convexity-sys-attrib $-1 -1 $-1 $674 $660 #
point $-1 -1 $-1 -4.9856999999999996 -2.625 5.7240000000000002 #
convexity-sys-attrib $-1 -1 $-1 $677 $663 #
point $-1 -1 $-1 -5.0781999999999998 -2.625 5.7240000000000002 #
End-of-ACIS-data 