700 0 2 0           
24 FBMach with ACIS - 7.0.3 13 ACIS 7.0.3 NT 24 Mon May 13 17:03:07 2002 
1 9.9999999999999995e-007 1e-010 
body $2 -1 $-1 $3 $-1 $4 #
bdycol-kcp $-1 -1 1 4 $5 $6 $7 $8 #
model_id-kcp-attrib $-1 -1 $-1 $-1 $0 1 1021323787 1021323787 -1322057727 1 #
lump $-1 -1 $-1 $-1 $9 $0 #
transform $-1 -1 1 0 0 0 1 0 0 0 1 0 0 0 1 rotate no_reflect no_shear #
body $10 -1 $-1 $11 $-1 $12 #
body $13 -1 $-1 $14 $-1 $15 #
body $16 -1 $-1 $17 $-1 $18 #
body $19 -1 $-1 $20 $-1 $21 #
shell $-1 -1 $-1 $-1 $-1 $22 $-1 $3 #
model_id-kcp-attrib $-1 -1 $-1 $-1 $5 1 1021323787 1021323787 -1322057726 1 #
lump $-1 -1 $-1 $-1 $23 $5 #
transform $-1 -1 1 0 0 0 1 0 0 0 1 0.0012000000000000205 -4.2809999999999997 7.1345000000000001 1 no_rotate no_reflect no_shear #
rgb_color-st-attrib $-1 -1 $24 $-1 $6 1 1 0.5 #
lump $-1 -1 $-1 $-1 $25 $6 #
transform $-1 -1 1 0 0 0 0 1 0 -1 0 0.0011999999999999999 -5.484 7.1345000000000001 1 rotate no_reflect no_shear #
rgb_color-st-attrib $-1 -1 $26 $-1 $7 1 1 0.5 #
lump $-1 -1 $-1 $-1 $27 $7 #
transform $-1 -1 -1 0 0 0 0 1 0 1 0 0.0011999999999999999 -3.0779999999999998 7.1345000000000001 1 rotate no_reflect no_shear #
rgb_color-st-attrib $-1 -1 $28 $-1 $8 0.5 1 1 #
lump $-1 -1 $-1 $-1 $29 $8 #
transform $-1 -1 1 0 0 0 1 0 0 0 1 0.0012000000000000205 -4.2809999999999997 7.1345000000000001 1 no_rotate no_reflect no_shear #
face $30 -1 $-1 $31 $32 $9 $-1 $33 forward single #
shell $-1 -1 $-1 $-1 $-1 $34 $-1 $11 #
model_id-kcp-attrib $-1 -1 $-1 $13 $6 1 1021323787 1021323787 -1320747005 1 #
shell $-1 -1 $-1 $-1 $-1 $35 $-1 $14 #
model_id-kcp-attrib $-1 -1 $-1 $16 $7 1 1021323787 1021323787 -1320747004 1 #
shell $-1 -1 $-1 $-1 $-1 $36 $-1 $17 #
model_id-kcp-attrib $-1 -1 $-1 $19 $8 1 1021323787 1021323787 -1315504123 1 #
shell $-1 -1 $-1 $-1 $-1 $37 $-1 $20 #
model_id-kcp-attrib $-1 -1 $-1 $-1 $22 1 1021323787 1021323787 -1322057727 2 #
face $38 -1 $-1 $39 $40 $9 $-1 $41 forward single #
loop $-1 -1 $-1 $-1 $42 $22 #
plane-surface $-1 -1 $-1 0.0011999999999999999 -5.5 7.1345000000000001 0 -1 0 0.70710678118654735 0 0.70710678118654735 forward_v I I I I #
face $-1 -1 $-1 $43 $44 $23 $-1 $45 forward single #
face $-1 -1 $-1 $46 $47 $25 $-1 $48 reversed single #
face $-1 -1 $-1 $49 $50 $27 $-1 $51 reversed single #
face $-1 -1 $-1 $52 $53 $29 $-1 $54 reversed single #
model_id-kcp-attrib $-1 -1 $-1 $-1 $31 1 1021323787 1021323787 -1322057727 3 #
face $55 -1 $-1 $56 $57 $9 $-1 $58 reversed single #
loop $-1 -1 $-1 $59 $60 $31 #
plane-surface $-1 -1 $-1 0.0011999999999999999 -4.9219999999999997 7.1345000000000001 0 -1 0 0.70710678118654735 0 0.70710678118654735 forward_v I I I I #
coedge $-1 -1 $-1 $42 $42 $61 $62 forward $32 $-1 #
face $-1 -1 $-1 $63 $64 $23 $-1 $65 reversed single #
loop $-1 -1 $-1 $-1 $66 $34 #
plane-surface $-1 -1 $-1 0 0 0.1875 0 0 1 1 0 0 forward_v I I I I #
face $-1 -1 $-1 $67 $68 $25 $-1 $69 forward single #
loop $-1 -1 $-1 $70 $71 $35 #
cone-surface $-1 -1 $-1 0 0 0.046499999999999986 0 0 1 0.062499999999999986 0 0 1 I I -0.70710678118654746 0.70710678118654757 0.062499999999999986 forward I I I I #
face $-1 -1 $-1 $72 $73 $27 $-1 $74 forward single #
loop $-1 -1 $-1 $75 $76 $36 #
cone-surface $-1 -1 $-1 0 0 0.077749999999999986 0 0 1 0.093749999999999972 0 0 1 I I -0.70710678118654757 0.70710678118654768 0.093749999999999972 forward I I I I #
face $-1 -1 $-1 $77 $78 $29 $-1 $54 reversed single #
loop $-1 -1 $-1 $-1 $79 $37 #
cone-surface $-1 -1 $-1 -2.0599841277224584e-017 -1.2190000000000003 0 0 -1 0 0.13258252147247745 0 0.13258252147247779 1 I I 0 1 0.18749999999999994 forward I I I I #
model_id-kcp-attrib $-1 -1 $-1 $-1 $39 1 1021323787 1021323787 -1322057727 4 #
face $80 -1 $-1 $81 $82 $9 $-1 $83 forward single #
loop $-1 -1 $-1 $-1 $84 $39 #
plane-surface $-1 -1 $-1 0.0011999999999999999 -3.0619999999999998 7.1345000000000001 0 -1 0 0.70710678118654735 0 0.70710678118654735 forward_v I I I I #
loop $-1 -1 $-1 $-1 $85 $31 #
coedge $-1 -1 $-1 $60 $60 $86 $87 forward $40 $-1 #
coedge $-1 -1 $-1 $61 $61 $42 $62 reversed $88 $-1 #
edge $89 -1 $-1 $90 -5.0142313445970897e-016 $90 6.2831853071795853 $61 $91 forward @7 unknown #
face $92 -1 $-1 $93 $94 $23 $-1 $95 reversed single #
loop $-1 -1 $-1 $-1 $96 $43 #
plane-surface $-1 -1 $-1 0 0 -0.1875 0 0 1 1 0 0 forward_v I I I I #
coedge $-1 -1 $-1 $97 $98 $99 $100 forward $44 $-1 #
face $-1 -1 $-1 $-1 $101 $25 $-1 $102 forward single #
loop $-1 -1 $-1 $103 $104 $46 #
cone-surface $-1 -1 $-1 0 0 0 0 0 1 0.12499999999999997 0 0 1 I I 0 1 0.12499999999999997 forward I I I I #
loop $-1 -1 $-1 $-1 $105 $35 #
coedge $-1 -1 $-1 $71 $71 $106 $107 reversed $47 $-1 #
face $-1 -1 $-1 $-1 $108 $27 $-1 $109 forward single #
loop $-1 -1 $-1 $110 $111 $49 #
cone-surface $-1 -1 $-1 0 0 0 0 0 1 0.18749999999999994 0 0 1 I I 0 1 0.18749999999999994 forward I I I I #
loop $-1 -1 $-1 $-1 $112 $36 #
coedge $-1 -1 $-1 $76 $76 $113 $114 reversed $50 $-1 #
face $-1 -1 $-1 $115 $116 $29 $-1 $54 reversed single #
loop $-1 -1 $-1 $-1 $117 $52 #
coedge $-1 -1 $-1 $118 $119 $120 $121 reversed $53 $-1 #
model_id-kcp-attrib $-1 -1 $-1 $-1 $56 1 1021323787 1021323787 -1322057727 5 #
face $122 -1 $-1 $123 $124 $9 $-1 $125 forward single #
loop $-1 -1 $-1 $126 $127 $56 #
cone-surface $-1 -1 $-1 0.0011999999999999999 -2.9401000000000002 7.1345000000000001 0 -1 0 -0.088388347648318419 0 -0.088388347648318419 1 I I 0 1 0.12499999999999999 forward I I I I #
coedge $-1 -1 $-1 $84 $84 $128 $129 reversed $57 $-1 #
coedge $-1 -1 $-1 $85 $85 $130 $131 forward $59 $-1 #
coedge $-1 -1 $-1 $86 $86 $60 $87 reversed $132 $-1 #
edge $-1 -1 $-1 $133 -3.1415926535897962 $133 3.14159265358979 $60 $134 forward @7 unknown #
loop $-1 -1 $-1 $135 $61 $136 #
attrib_edge_convexity-kcp-attrib $-1 -1 $137 $-1 $62 1 #
vertex $-1 -1 $-1 $62 $138 #
ellipse-curve $-1 -1 $-1 0.0011999999999999999 -5.5 7.1345000000000001 0 -1 0 0.065760930650348895 0 0.065760930650348895 1 I I #
model_id-kcp-attrib $-1 -1 $-1 $-1 $63 1 1021323787 1021323787 -1322057726 2 #
face $-1 -1 $-1 $139 $140 $23 $-1 $141 reversed single #
loop $-1 -1 $-1 $-1 $142 $63 #
plane-surface $-1 -1 $-1 0 -1.2190000000000001 0 0 1 0 0 0 1 forward_v I I I I #
coedge $-1 -1 $-1 $143 $144 $145 $146 forward $64 $-1 #
coedge $-1 -1 $-1 $147 $66 $148 $149 forward $44 $-1 #
coedge $-1 -1 $-1 $66 $147 $150 $151 forward $44 $-1 #
coedge $-1 -1 $-1 $152 $153 $66 $100 reversed $154 $-1 #
edge $-1 -1 $-1 $155 -1.2190000000000001 $156 1.2190000000000001 $99 $157 forward @7 unknown #
loop $-1 -1 $-1 $158 $106 $67 #
plane-surface $-1 -1 $-1 0 0 0.016000000000000014 0 0 1 1 0 0 forward_v I I I I #
loop $-1 -1 $-1 $-1 $159 $46 #
coedge $-1 -1 $-1 $104 $104 $105 $160 reversed $68 $-1 #
coedge $-1 -1 $-1 $105 $105 $104 $160 forward $70 $-1 #
coedge $-1 -1 $-1 $106 $106 $71 $107 forward $101 $-1 #
edge $-1 -1 $-1 $161 -3.1415926535897931 $161 3.1415926535897931 $106 $162 forward @7 unknown #
loop $-1 -1 $-1 $163 $113 $72 #
plane-surface $-1 -1 $-1 0 0 0.016000000000000014 0 0 1 1 0 0 forward_v I I I I #
loop $-1 -1 $-1 $-1 $164 $49 #
coedge $-1 -1 $-1 $111 $111 $112 $165 reversed $73 $-1 #
coedge $-1 -1 $-1 $112 $112 $111 $165 forward $75 $-1 #
coedge $-1 -1 $-1 $113 $113 $76 $114 forward $108 $-1 #
edge $-1 -1 $-1 $166 -3.1415926535897931 $166 3.1415926535897931 $113 $167 forward @7 unknown #
face $-1 -1 $-1 $168 $169 $29 $-1 $54 reversed single #
loop $-1 -1 $-1 $-1 $170 $77 #
coedge $-1 -1 $-1 $171 $172 $173 $174 reversed $78 $-1 #
coedge $-1 -1 $-1 $175 $79 $176 $177 forward $53 $-1 #
coedge $-1 -1 $-1 $79 $175 $178 $179 reversed $53 $-1 #
coedge $-1 -1 $-1 $180 $181 $79 $121 forward $182 $-1 #
edge $-1 -1 $-1 $183 -0.78539816339744961 $184 0.78539816339744706 $120 $185 forward @7 unknown #
model_id-kcp-attrib $-1 -1 $-1 $-1 $81 1 1021323787 1021323787 -1322057727 6 #
face $186 -1 $-1 $187 $132 $9 $-1 $188 forward single #
loop $-1 -1 $-1 $189 $190 $81 #
cone-surface $-1 -1 $-1 0.0011999999999999999 -5.0030000000000001 7.1345000000000001 0 -1 0 0.088388347648318419 0 0.088388347648318419 1 I I 0.69542142751605396 0.71860214176659198 0.12499999999999999 forward I I I I #
loop $-1 -1 $-1 $-1 $191 $56 #
coedge $-1 -1 $-1 $127 $127 $192 $193 forward $82 $-1 #
coedge $-1 -1 $-1 $128 $128 $84 $129 forward $194 $-1 #
edge $195 -1 $-1 $196 1.3630854124154756e-015 $196 6.283185307179588 $128 $197 forward @7 unknown #
coedge $-1 -1 $-1 $130 $130 $85 $131 reversed $198 $-1 #
edge $-1 -1 $-1 $199 7.894919286223334e-016 $199 6.2831853071795871 $130 $200 forward @7 unknown #
loop $-1 -1 $-1 $201 $86 $123 #
vertex $-1 -1 $-1 $87 $202 #
ellipse-curve $-1 -1 $-1 0.0011999999999999999 -4.9219999999999997 7.1345000000000001 0 1 0 0.067175144212721999 0 0.067175144212721999 1 I I #
loop $-1 -1 $-1 $-1 $203 $136 #
face $204 -1 $-1 $205 $88 $9 $-1 $206 forward single #
convexity-sys-attrib $-1 -1 $-1 $89 $62 #
point $-1 -1 $-1 0.066960930650348902 -5.5 7.2002609306503489 #
face $207 -1 $-1 $208 $209 $23 $-1 $210 reversed single #
loop $-1 -1 $-1 $-1 $211 $93 #
plane-surface $-1 -1 $-1 -0.18749999999999994 0 0 1 0 0 0 0 -1 forward_v I I I I #
coedge $-1 -1 $-1 $212 $150 $213 $214 forward $94 $-1 #
coedge $-1 -1 $-1 $215 $96 $212 $216 forward $64 $-1 #
coedge $-1 -1 $-1 $96 $215 $217 $218 forward $64 $-1 #
coedge $-1 -1 $-1 $153 $152 $96 $146 reversed $154 $-1 #
edge $-1 -1 $-1 $219 -1.2190000000000001 $220 1.2190000000000001 $145 $221 forward @7 unknown #
coedge $-1 -1 $-1 $98 $97 $222 $223 forward $44 $-1 #
coedge $-1 -1 $-1 $224 $225 $97 $149 reversed $209 $-1 #
edge $-1 -1 $-1 $156 -0.18749999999999994 $226 0.18749999999999994 $148 $227 forward @7 unknown #
coedge $-1 -1 $-1 $142 $228 $98 $151 reversed $94 $-1 #
edge $-1 -1 $-1 $229 -0.18749999999999994 $155 0.18749999999999994 $150 $230 forward @7 unknown #
coedge $-1 -1 $-1 $145 $99 $228 $231 forward $154 $-1 #
coedge $-1 -1 $-1 $99 $145 $224 $232 reversed $154 $-1 #
loop $-1 -1 $-1 $-1 $152 $208 #
vertex $-1 -1 $-1 $100 $233 #
vertex $-1 -1 $-1 $100 $234 #
straight-curve $-1 -1 $-1 0.18749999999999994 0 0.1875 0 1 0 I I #
loop $-1 -1 $-1 $-1 $235 $67 #
coedge $-1 -1 $-1 $159 $159 $235 $236 reversed $103 $-1 #
edge $-1 -1 $-1 $237 0 $237 6.2831853071795862 $104 $238 forward @7 unknown #
vertex $-1 -1 $-1 $107 $239 #
ellipse-curve $-1 -1 $-1 0 0 0.016000000000000014 0 0 -1 0.092999999999999958 0 0 1 I I #
loop $-1 -1 $-1 $-1 $240 $72 #
coedge $-1 -1 $-1 $164 $164 $240 $241 reversed $110 $-1 #
edge $-1 -1 $-1 $242 0 $242 6.2831853071795862 $111 $243 forward @7 unknown #
vertex $-1 -1 $-1 $114 $244 #
ellipse-curve $-1 -1 $-1 0 0 0.016000000000000014 0 0 -1 0.15549999999999994 0 0 1 I I #
face $-1 -1 $-1 $245 $246 $29 $-1 $247 forward single #
loop $-1 -1 $-1 $-1 $248 $115 #
coedge $-1 -1 $-1 $249 $250 $248 $251 forward $116 $-1 #
coedge $-1 -1 $-1 $252 $117 $253 $254 reversed $78 $-1 #
coedge $-1 -1 $-1 $117 $252 $119 $179 forward $78 $-1 #
coedge $-1 -1 $-1 $255 $256 $117 $174 forward $257 $-1 #
edge $-1 -1 $-1 $258 -2.3561944901923435 $259 -0.78539816339744706 $173 $260 forward @7 unknown #
coedge $-1 -1 $-1 $119 $118 $261 $262 reversed $53 $-1 #
coedge $-1 -1 $-1 $250 $249 $263 $177 reversed $116 $-1 #
edge $-1 -1 $-1 $183 -2.4380000000000006 $264 -2.2204460492503131e-016 $263 $265 forward @7 unknown #
coedge $-1 -1 $-1 $266 $267 $268 $179 forward $269 $-1 #
edge $-1 -1 $-1 $184 -2.4380000000000006 $259 -2.2204460492503131e-016 $178 $270 forward @7 unknown #
coedge $-1 -1 $-1 $181 $120 $267 $271 reversed $182 $-1 #
coedge $-1 -1 $-1 $120 $180 $272 $273 forward $182 $-1 #
loop $-1 -1 $-1 $-1 $120 $274 #
vertex $-1 -1 $-1 $275 $276 #
vertex $-1 -1 $-1 $277 $278 #
ellipse-curve $-1 -1 $-1 -2.0599841277224584e-017 1.2190000000000003 0 0 -1 0 0.13258252147247745 0 0.13258252147247779 1 I I #
model_id-kcp-attrib $-1 -1 $-1 $-1 $123 1 1021323787 1021323787 -1322057727 7 #
face $279 -1 $-1 $136 $280 $9 $-1 $281 forward single #
cone-surface $-1 -1 $-1 0.0011999999999999999 -2.9401000000000002 7.1345000000000001 0 -1 0 -0.067175144212721999 0 -0.067175144212721999 1 I I 0 1 0.094999999999999987 forward I I I I #
loop $-1 -1 $-1 $-1 $192 $81 #
coedge $-1 -1 $-1 $190 $190 $282 $283 forward $124 $-1 #
coedge $-1 -1 $-1 $191 $191 $203 $284 forward $126 $-1 #
coedge $-1 -1 $-1 $192 $192 $127 $193 reversed $189 $-1 #
edge $-1 -1 $-1 $285 -3.141592653589794 $285 3.1415926535897922 $192 $286 forward @7 unknown #
loop $-1 -1 $-1 $-1 $128 $205 #
attrib_edge_convexity-kcp-attrib $-1 -1 $287 $-1 $129 1 #
vertex $-1 -1 $-1 $129 $288 #
ellipse-curve $-1 -1 $-1 0.0011999999999999999 -3.0619999999999998 7.1345000000000001 0 -1 0 0.10995510447450811 0 0.10995510447450811 1 I I #
loop $-1 -1 $-1 $-1 $130 $187 #
vertex $-1 -1 $-1 $131 $289 #
ellipse-curve $-1 -1 $-1 0.0011999999999999999 -4.9219999999999997 7.1345000000000001 0 -1 0 0.13258252147247762 0 0.13258252147247762 1 I I #
loop $-1 -1 $-1 $-1 $282 $123 #
point $-1 -1 $-1 -0.065975144212721992 -4.9219999999999997 7.0673248557872776 #
coedge $-1 -1 $-1 $203 $203 $191 $284 reversed $135 $-1 #
model_id-kcp-attrib $-1 -1 $-1 $-1 $136 1 1021323787 1021323787 -1322057727 9 #
face $290 -1 $-1 $-1 $291 $9 $-1 $292 forward single #
cone-surface $-1 -1 $-1 0.0011999999999999999 -5.468 7.1345000000000001 0 1 0 0.088388347648318419 0 0.088388347648318419 1 I I 0.70710678118654702 0.70710678118654802 0.12499999999999999 forward I I I I #
model_id-kcp-attrib $-1 -1 $-1 $-1 $139 1 1021323787 1021323787 -1322057726 3 #
face $-1 -1 $-1 $-1 $154 $23 $-1 $293 reversed single #
loop $-1 -1 $-1 $-1 $224 $139 #
plane-surface $-1 -1 $-1 0 1.2190000000000001 0 0 -1 0 0 0 -1 forward_v I I I I #
coedge $-1 -1 $-1 $294 $222 $225 $295 forward $140 $-1 #
coedge $-1 -1 $-1 $228 $142 $143 $216 reversed $94 $-1 #
coedge $-1 -1 $-1 $222 $294 $142 $214 reversed $140 $-1 #
edge $-1 -1 $-1 $229 -0.1875 $296 0.1875 $213 $297 forward @7 unknown #
coedge $-1 -1 $-1 $144 $143 $294 $298 forward $64 $-1 #
edge $-1 -1 $-1 $220 -0.18749999999999994 $296 0.18749999999999994 $212 $299 forward @7 unknown #
coedge $-1 -1 $-1 $225 $224 $144 $218 reversed $209 $-1 #
edge $-1 -1 $-1 $300 -0.18749999999999994 $219 0.18749999999999994 $217 $301 forward @7 unknown #
vertex $-1 -1 $-1 $146 $302 #
vertex $-1 -1 $-1 $231 $303 #
straight-curve $-1 -1 $-1 0.18749999999999994 0 -0.1875 0 -1 0 I I #
coedge $-1 -1 $-1 $211 $213 $147 $223 reversed $140 $-1 #
edge $-1 -1 $-1 $226 -1.2190000000000001 $229 1.2190000000000001 $222 $304 forward @7 unknown #
coedge $-1 -1 $-1 $217 $148 $153 $232 forward $209 $-1 #
coedge $-1 -1 $-1 $148 $217 $211 $295 reversed $209 $-1 #
vertex $-1 -1 $-1 $149 $305 #
straight-curve $-1 -1 $-1 0 1.2190000000000001 0.1875 -1 0 0 I I #
coedge $-1 -1 $-1 $150 $212 $152 $231 reversed $94 $-1 #
vertex $-1 -1 $-1 $223 $306 #
straight-curve $-1 -1 $-1 0 -1.2190000000000001 0.1875 1 0 0 I I #
edge $-1 -1 $-1 $155 -0.1875 $220 0.1875 $152 $307 forward @7 unknown #
edge $-1 -1 $-1 $156 -0.1875 $219 0.1875 $153 $308 forward @7 unknown #
point $-1 -1 $-1 0.18749999999999994 -1.2190000000000001 0.1875 #
point $-1 -1 $-1 0.18749999999999994 1.2190000000000001 0.1875 #
coedge $-1 -1 $-1 $235 $235 $159 $236 forward $158 $-1 #
edge $-1 -1 $-1 $309 0 $309 6.2831853071795862 $235 $310 forward @7 unknown #
vertex $-1 -1 $-1 $160 $311 #
ellipse-curve $-1 -1 $-1 0 0 -0.016000000000000014 0 0 -1 0.12499999999999997 0 0 1 I I #
point $-1 -1 $-1 -0.092999999999999958 1.1388839090548103e-017 0.016000000000000014 #
coedge $-1 -1 $-1 $240 $240 $164 $241 forward $163 $-1 #
edge $-1 -1 $-1 $312 0 $312 6.2831853071795862 $240 $313 forward @7 unknown #
vertex $-1 -1 $-1 $165 $314 #
ellipse-curve $-1 -1 $-1 0 0 -0.016000000000000014 0 0 -1 0.18749999999999994 0 0 1 I I #
point $-1 -1 $-1 -0.15549999999999994 1.904262880193796e-017 0.016000000000000014 #
face $-1 -1 $-1 $315 $316 $29 $-1 $317 reversed single #
loop $-1 -1 $-1 $-1 $268 $168 #
plane-surface $-1 -1 $-1 0 0 0.1875 0 0 1 1 0 0 forward_v I I I I #
coedge $-1 -1 $-1 $318 $319 $320 $251 reversed $169 $-1 #
coedge $-1 -1 $-1 $176 $170 $321 $322 reversed $116 $-1 #
coedge $-1 -1 $-1 $170 $176 $323 $324 reversed $116 $-1 #
edge $-1 -1 $-1 $325 -2.4380000000000006 $326 -2.2204460492503131e-016 $320 $327 forward @7 unknown #
coedge $-1 -1 $-1 $172 $171 $328 $329 reversed $78 $-1 #
coedge $-1 -1 $-1 $330 $331 $332 $254 forward $316 $-1 #
edge $-1 -1 $-1 $333 -2.4380000000000006 $258 -2.2204460492503131e-016 $253 $334 forward @7 unknown #
coedge $-1 -1 $-1 $256 $173 $335 $336 reversed $257 $-1 #
coedge $-1 -1 $-1 $173 $255 $330 $337 forward $257 $-1 #
loop $-1 -1 $-1 $-1 $173 $338 #
vertex $-1 -1 $-1 $339 $340 #
vertex $-1 -1 $-1 $341 $342 #
ellipse-curve $-1 -1 $-1 -2.0599841277224584e-017 -1.2190000000000001 0 0 1 0 0.13258252147247745 0 0.13258252147247779 1 I I #
coedge $-1 -1 $-1 $343 $344 $175 $262 forward $345 $-1 #
edge $-1 -1 $-1 $259 -0.78539816339744706 $264 0.78539816339744961 $261 $260 forward @7 unknown #
coedge $-1 -1 $-1 $346 $347 $348 $177 forward $349 $-1 #
vertex $-1 -1 $-1 $350 $351 #
straight-curve $-1 -1 $-1 0.18749999999999994 -1.2190000000000003 0 0 -1 0 I I #
coedge $-1 -1 $-1 $352 $178 $344 $341 forward $269 $-1 #
coedge $-1 -1 $-1 $178 $352 $180 $271 forward $269 $-1 #
coedge $-1 -1 $-1 $353 $335 $172 $179 reversed $246 $-1 #
loop $-1 -1 $-1 $-1 $178 $354 #
straight-curve $-1 -1 $-1 -2.0599841277224584e-017 -1.2190000000000003 0.1875 0 -1 0 I I #
edge $-1 -1 $-1 $355 -0.18749999999999994 $184 2.0599841277224584e-017 $180 $356 forward @7 unknown #
coedge $-1 -1 $-1 $357 $348 $181 $273 reversed $358 $-1 #
edge $-1 -1 $-1 $355 -0.1875 $183 0 $272 $359 forward @7 unknown #
face $-1 -1 $-1 $360 $182 $29 $-1 $361 reversed single #
edge $-1 -1 $-1 $183 0 $362 0.1875 $347 $359 forward @7 unknown #
point $-1 -1 $-1 0.18749999999999994 1.2190000000000003 0 #
edge $-1 -1 $-1 $184 2.0599841277224584e-017 $363 0.18749999999999994 $364 $356 forward @7 unknown #
point $-1 -1 $-1 -2.0599841277224584e-017 1.2190000000000003 0.1875 #
model_id-kcp-attrib $-1 -1 $-1 $-1 $187 1 1021323787 1021323787 -1322057727 8 #
loop $-1 -1 $-1 $198 $365 $187 #
cone-surface $-1 -1 $-1 0.0011999999999999999 -2.9401000000000002 7.1345000000000001 0 -1 0 -0.13258252147247762 0 -0.13258252147247762 1 I I 0 1 0.18749999999999997 forward I I I I #
coedge $-1 -1 $-1 $282 $282 $190 $283 reversed $201 $-1 #
edge $-1 -1 $-1 $366 -3.14159265358979 $366 3.1415926535897962 $282 $367 forward @7 unknown #
edge $368 -1 $-1 $369 -3.1415926535897922 $369 3.141592653589794 $203 $370 forward @7 unknown #
vertex $-1 -1 $-1 $193 $371 #
ellipse-curve $-1 -1 $-1 0.0011999999999999999 -5.0030000000000001 7.1345000000000001 0 -1 0 0.088388347648318419 0 0.088388347648318419 1 I I #
convexity-sys-attrib $-1 -1 $-1 $195 $129 #
point $-1 -1 $-1 0.11115510447450812 -3.0619999999999998 7.2444551044745085 #
point $-1 -1 $-1 0.13378252147247763 -4.9219999999999997 7.2670825214724779 #
model_id-kcp-attrib $-1 -1 $-1 $-1 $205 1 1021323787 1021323787 -1322057727 10 #
loop $-1 -1 $-1 $194 $372 $205 #
cone-surface $-1 -1 $-1 0.0011999999999999999 -3.0939999999999999 7.1345000000000001 0 -1 0 0.13258252147247762 0 0.13258252147247762 1 I I 0.70710678118654702 0.70710678118654802 0.18749999999999997 forward I I I I #
plane-surface $-1 -1 $-1 0.18749999999999994 0 0 -1 0 0 0 0 1 forward_v I I I I #
coedge $-1 -1 $-1 $213 $211 $215 $298 reversed $140 $-1 #
edge $-1 -1 $-1 $226 -0.1875 $300 0.1875 $225 $373 forward @7 unknown #
vertex $-1 -1 $-1 $298 $374 #
straight-curve $-1 -1 $-1 -0.18749999999999994 -1.2190000000000001 0 0 0 -1 I I #
edge $-1 -1 $-1 $296 -1.2190000000000001 $300 1.2190000000000001 $294 $375 forward @7 unknown #
straight-curve $-1 -1 $-1 0 -1.2190000000000001 -0.1875 -1 0 0 I I #
vertex $-1 -1 $-1 $218 $376 #
straight-curve $-1 -1 $-1 0 1.2190000000000001 -0.1875 1 0 0 I I #
point $-1 -1 $-1 0.18749999999999994 1.2190000000000001 -0.1875 #
point $-1 -1 $-1 0.18749999999999994 -1.2190000000000001 -0.1875 #
straight-curve $-1 -1 $-1 -0.18749999999999994 0 0.1875 0 -1 0 I I #
point $-1 -1 $-1 -0.18749999999999994 1.2190000000000001 0.1875 #
point $-1 -1 $-1 -0.18749999999999994 -1.2190000000000001 0.1875 #
straight-curve $-1 -1 $-1 0.18749999999999994 -1.2190000000000001 0 0 0 -1 I I #
straight-curve $-1 -1 $-1 0.18749999999999994 1.2190000000000001 0 0 0 -1 I I #
vertex $-1 -1 $-1 $236 $377 #
ellipse-curve $-1 -1 $-1 0 0 0.016000000000000014 0 0 1 0.12499999999999997 0 0 1 I I #
point $-1 -1 $-1 0.12499999999999997 0 -0.016000000000000014 #
vertex $-1 -1 $-1 $241 $378 #
ellipse-curve $-1 -1 $-1 0 0 0.016000000000000014 0 0 1 0.18749999999999994 0 0 1 I I #
point $-1 -1 $-1 0.18749999999999994 0 -0.016000000000000014 #
face $-1 -1 $-1 $379 $358 $29 $-1 $380 reversed single #
loop $-1 -1 $-1 $-1 $253 $245 #
plane-surface $-1 -1 $-1 -0.18749999999999994 0 0 1 0 0 0 0 -1 forward_v I I I I #
coedge $-1 -1 $-1 $381 $248 $382 $383 reversed $169 $-1 #
coedge $-1 -1 $-1 $248 $381 $384 $385 reversed $169 $-1 #
coedge $-1 -1 $-1 $386 $387 $388 $251 forward $389 $-1 #
coedge $-1 -1 $-1 $390 $391 $249 $322 forward $392 $-1 #
edge $-1 -1 $-1 $264 0.78539816339744961 $326 2.3561944901923462 $321 $260 forward @7 unknown #
coedge $-1 -1 $-1 $393 $394 $250 $324 forward $395 $-1 #
edge $-1 -1 $-1 $325 -2.3561944901923462 $183 -0.78539816339744961 $323 $185 forward @7 unknown #
vertex $-1 -1 $-1 $396 $397 #
vertex $-1 -1 $-1 $398 $399 #
straight-curve $-1 -1 $-1 -2.0599841277224584e-017 -1.2190000000000003 -0.1875 0 -1 0 I I #
coedge $-1 -1 $-1 $400 $364 $252 $329 forward $401 $-1 #
edge $-1 -1 $-1 $184 0.78539816339744706 $333 2.3561944901923435 $328 $185 forward @7 unknown #
coedge $-1 -1 $-1 $402 $253 $256 $337 reversed $316 $-1 #
coedge $-1 -1 $-1 $253 $402 $400 $403 forward $316 $-1 #
coedge $-1 -1 $-1 $404 $405 $381 $254 reversed $406 $-1 #
vertex $-1 -1 $-1 $407 $408 #
straight-curve $-1 -1 $-1 -0.18749999999999994 -1.2190000000000003 0 0 -1 0 I I #
coedge $-1 -1 $-1 $268 $409 $255 $336 forward $246 $-1 #
edge $-1 -1 $-1 $410 -0.18749999999999994 $259 -2.0599841277224584e-017 $255 $411 forward @7 unknown #
edge $-1 -1 $-1 $410 -0.1875 $258 0 $330 $412 forward @7 unknown #
face $-1 -1 $-1 $413 $257 $29 $-1 $414 reversed single #
edge $-1 -1 $-1 $258 0 $415 0.1875 $405 $412 forward @7 unknown #
point $-1 -1 $-1 -0.18749999999999994 -1.2190000000000001 0 #
edge $-1 -1 $-1 $259 -2.0599841277224584e-017 $416 0.18749999999999994 $344 $411 forward @7 unknown #
point $-1 -1 $-1 -2.0599841277224584e-017 -1.2190000000000001 0.1875 #
coedge $-1 -1 $-1 $344 $261 $417 $418 reversed $345 $-1 #
coedge $-1 -1 $-1 $261 $343 $266 $341 reversed $345 $-1 #
loop $-1 -1 $-1 $-1 $261 $413 #
coedge $-1 -1 $-1 $419 $263 $391 $350 forward $349 $-1 #
coedge $-1 -1 $-1 $263 $419 $393 $275 reversed $349 $-1 #
coedge $-1 -1 $-1 $272 $417 $118 $177 reversed $358 $-1 #
loop $-1 -1 $-1 $-1 $263 $420 #
edge $-1 -1 $-1 $264 0 $421 0.1875 $346 $422 forward @7 unknown #
point $-1 -1 $-1 0.18749999999999994 -1.2190000000000001 0 #
coedge $-1 -1 $-1 $267 $266 $357 $423 forward $269 $-1 #
coedge $-1 -1 $-1 $409 $268 $364 $277 forward $246 $-1 #
face $-1 -1 $-1 $424 $269 $29 $-1 $247 forward single #
vertex $-1 -1 $-1 $423 $425 #
straight-curve $-1 -1 $-1 0 1.2190000000000001 0.1875 -1 0 0 I I #
coedge $-1 -1 $-1 $417 $272 $352 $423 reversed $358 $-1 #
loop $-1 -1 $-1 $-1 $348 $315 #
straight-curve $-1 -1 $-1 0.18749999999999994 1.2190000000000001 0 0 0 -1 I I #
face $-1 -1 $-1 $426 $401 $29 $-1 $361 reversed single #
plane-surface $-1 -1 $-1 0 1.2190000000000001 0 0 -1 0 0 0 -1 forward_v I I I I #
vertex $-1 -1 $-1 $427 $428 #
vertex $-1 -1 $-1 $277 $429 #
coedge $-1 -1 $-1 $328 $400 $353 $277 reversed $401 $-1 #
coedge $-1 -1 $-1 $365 $365 $372 $430 forward $280 $-1 #
vertex $-1 -1 $-1 $283 $431 #
ellipse-curve $-1 -1 $-1 0.0011999999999999999 -4.9719999999999995 7.1345000000000001 0 -1 0 0.067175144212721999 0 0.067175144212721999 1 I I #
attrib_edge_convexity-kcp-attrib $-1 -1 $432 $-1 $284 1 #
vertex $-1 -1 $-1 $284 $433 #
ellipse-curve $-1 -1 $-1 0.0011999999999999999 -5.468 7.1345000000000001 0 1 0 0.088388347648318419 0 0.088388347648318419 1 I I #
point $-1 -1 $-1 -0.087188347648318412 -5.0030000000000001 7.0461116523516818 #
coedge $-1 -1 $-1 $372 $372 $365 $430 reversed $291 $-1 #
straight-curve $-1 -1 $-1 -0.18749999999999994 1.2190000000000001 0 0 0 -1 I I #
point $-1 -1 $-1 -0.18749999999999994 -1.2190000000000001 -0.1875 #
straight-curve $-1 -1 $-1 -0.18749999999999994 0 -0.1875 0 1 0 I I #
point $-1 -1 $-1 -0.18749999999999994 1.2190000000000001 -0.1875 #
point $-1 -1 $-1 0.12499999999999997 0 0.016000000000000014 #
point $-1 -1 $-1 0.18749999999999994 0 0.016000000000000014 #
face $-1 -1 $-1 $338 $434 $29 $-1 $414 reversed single #
plane-surface $-1 -1 $-1 0.18749999999999994 0 0 -1 0 0 0 0 1 forward_v I I I I #
coedge $-1 -1 $-1 $319 $318 $171 $254 forward $169 $-1 #
coedge $-1 -1 $-1 $435 $436 $318 $383 forward $437 $-1 #
edge $-1 -1 $-1 $333 2.3561944901923435 $325 3.9269908169872401 $382 $185 forward @7 unknown #
coedge $-1 -1 $-1 $438 $439 $319 $385 forward $434 $-1 #
edge $-1 -1 $-1 $326 2.3561944901923462 $258 3.9269908169872427 $384 $260 forward @7 unknown #
coedge $-1 -1 $-1 $440 $320 $439 $398 forward $389 $-1 #
coedge $-1 -1 $-1 $320 $440 $435 $441 forward $389 $-1 #
coedge $-1 -1 $-1 $442 $443 $170 $251 reversed $444 $-1 #
loop $-1 -1 $-1 $-1 $320 $424 #
coedge $-1 -1 $-1 $391 $321 $443 $445 reversed $392 $-1 #
coedge $-1 -1 $-1 $321 $390 $346 $350 reversed $392 $-1 #
loop $-1 -1 $-1 $-1 $321 $446 #
coedge $-1 -1 $-1 $394 $323 $347 $275 forward $395 $-1 #
coedge $-1 -1 $-1 $323 $393 $442 $396 reversed $395 $-1 #
loop $-1 -1 $-1 $-1 $323 $447 #
edge $-1 -1 $-1 $325 -2.0599841277224584e-017 $362 0.18749999999999994 $394 $448 forward @7 unknown #
point $-1 -1 $-1 -2.0599841277224584e-017 1.2190000000000003 -0.1875 #
edge $-1 -1 $-1 $326 2.0599841277224584e-017 $415 0.18749999999999994 $439 $449 forward @7 unknown #
point $-1 -1 $-1 -2.0599841277224584e-017 -1.2190000000000001 -0.1875 #
coedge $-1 -1 $-1 $364 $328 $331 $403 reversed $401 $-1 #
loop $-1 -1 $-1 $-1 $328 $360 #
coedge $-1 -1 $-1 $331 $330 $409 $450 reversed $316 $-1 #
edge $-1 -1 $-1 $363 -0.1875 $333 0 $400 $451 forward @7 unknown #
coedge $-1 -1 $-1 $452 $332 $436 $407 forward $406 $-1 #
coedge $-1 -1 $-1 $332 $452 $438 $339 reversed $406 $-1 #
loop $-1 -1 $-1 $-1 $332 $453 #
edge $-1 -1 $-1 $333 0 $454 0.1875 $436 $451 forward @7 unknown #
point $-1 -1 $-1 -0.18749999999999994 1.2190000000000003 0 #
coedge $-1 -1 $-1 $335 $353 $402 $450 forward $246 $-1 #
vertex $-1 -1 $-1 $450 $455 #
straight-curve $-1 -1 $-1 0 -1.2190000000000001 0.1875 1 0 0 I I #
straight-curve $-1 -1 $-1 -0.18749999999999994 -1.2190000000000001 0 0 0 -1 I I #
face $-1 -1 $-1 $446 $345 $29 $-1 $414 reversed single #
plane-surface $-1 -1 $-1 0 -1.2190000000000001 0 0 1 0 0 0 1 forward_v I I I I #
vertex $-1 -1 $-1 $456 $457 #
vertex $-1 -1 $-1 $423 $458 #
coedge $-1 -1 $-1 $348 $357 $343 $418 forward $358 $-1 #
edge $-1 -1 $-1 $416 -0.1875 $264 0 $417 $422 forward @7 unknown #
coedge $-1 -1 $-1 $347 $346 $459 $427 reversed $349 $-1 #
face $-1 -1 $-1 $-1 $349 $29 $-1 $380 reversed single #
vertex $-1 -1 $-1 $350 $460 #
straight-curve $-1 -1 $-1 0.18749999999999994 -1.2190000000000001 0 0 0 -1 I I #
edge $-1 -1 $-1 $416 -1.2190000000000001 $355 1.2190000000000001 $357 $461 forward @7 unknown #
face $-1 -1 $-1 $453 $389 $29 $-1 $462 reversed single #
point $-1 -1 $-1 0.18749999999999994 1.2190000000000001 0.1875 #
face $-1 -1 $-1 $463 $437 $29 $-1 $361 reversed single #
edge $-1 -1 $-1 $362 -1.2190000000000001 $421 1.2190000000000001 $419 $464 forward @7 unknown #
point $-1 -1 $-1 0.18749999999999994 1.2190000000000001 -0.1875 #
point $-1 -1 $-1 -0.18749999999999994 1.2190000000000001 0.1875 #
edge $465 -1 $-1 $466 -3.1415926535897922 $466 3.141592653589794 $372 $467 forward @7 unknown #
point $-1 -1 $-1 -0.065975144212721992 -4.9719999999999995 7.0673248557872776 #
convexity-sys-attrib $-1 -1 $-1 $368 $284 #
point $-1 -1 $-1 -0.087188347648318412 -5.468 7.0461116523516818 #
loop $-1 -1 $-1 $-1 $384 $379 #
coedge $-1 -1 $-1 $436 $382 $387 $441 reversed $437 $-1 #
coedge $-1 -1 $-1 $382 $435 $404 $407 reversed $437 $-1 #
loop $-1 -1 $-1 $-1 $382 $426 #
coedge $-1 -1 $-1 $439 $384 $405 $339 forward $434 $-1 #
coedge $-1 -1 $-1 $384 $438 $386 $398 reversed $434 $-1 #
coedge $-1 -1 $-1 $387 $386 $452 $456 forward $389 $-1 #
edge $-1 -1 $-1 $454 -0.18749999999999994 $325 -2.0599841277224584e-017 $435 $448 forward @7 unknown #
coedge $-1 -1 $-1 $459 $388 $394 $396 forward $444 $-1 #
coedge $-1 -1 $-1 $388 $459 $390 $445 forward $444 $-1 #
loop $-1 -1 $-1 $-1 $388 $463 #
edge $-1 -1 $-1 $421 -0.18749999999999994 $326 2.0599841277224584e-017 $390 $449 forward @7 unknown #
face $-1 -1 $-1 $447 $392 $29 $-1 $414 reversed single #
face $-1 -1 $-1 $274 $395 $29 $-1 $361 reversed single #
straight-curve $-1 -1 $-1 0 1.2190000000000001 -0.1875 1 0 0 I I #
straight-curve $-1 -1 $-1 0 -1.2190000000000001 -0.1875 -1 0 0 I I #
edge $-1 -1 $-1 $363 -1.2190000000000001 $410 1.2190000000000001 $402 $468 forward @7 unknown #
straight-curve $-1 -1 $-1 -0.18749999999999994 1.2190000000000001 0 0 0 -1 I I #
coedge $-1 -1 $-1 $405 $404 $440 $456 reversed $406 $-1 #
face $-1 -1 $-1 $420 $406 $29 $-1 $317 reversed single #
vertex $-1 -1 $-1 $441 $469 #
point $-1 -1 $-1 -0.18749999999999994 -1.2190000000000001 0.1875 #
edge $-1 -1 $-1 $415 -1.2190000000000001 $454 1.2190000000000001 $452 $470 forward @7 unknown #
point $-1 -1 $-1 -0.18749999999999994 -1.2190000000000001 -0.1875 #
point $-1 -1 $-1 0.18749999999999994 -1.2190000000000001 0.1875 #
coedge $-1 -1 $-1 $443 $442 $419 $427 forward $444 $-1 #
point $-1 -1 $-1 0.18749999999999994 -1.2190000000000001 -0.1875 #
straight-curve $-1 -1 $-1 0.18749999999999994 0 0.1875 0 1 0 I I #
plane-surface $-1 -1 $-1 0 0 -0.1875 0 0 1 1 0 0 forward_v I I I I #
face $-1 -1 $-1 $354 $444 $29 $-1 $462 reversed single #
straight-curve $-1 -1 $-1 0.18749999999999994 0 -0.1875 0 -1 0 I I #
attrib_edge_convexity-kcp-attrib $-1 -1 $471 $-1 $430 1 #
vertex $-1 -1 $-1 $430 $472 #
ellipse-curve $-1 -1 $-1 0.0011999999999999999 -3.0939999999999999 7.1345000000000001 0 -1 0 0.13258252147247762 0 0.13258252147247762 1 I I #
straight-curve $-1 -1 $-1 -0.18749999999999994 0 0.1875 0 -1 0 I I #
point $-1 -1 $-1 -0.18749999999999994 1.2190000000000001 -0.1875 #
straight-curve $-1 -1 $-1 -0.18749999999999994 0 -0.1875 0 1 0 I I #
convexity-sys-attrib $-1 -1 $-1 $465 $430 #
point $-1 -1 $-1 -0.13138252147247761 -3.0939999999999999 7.0019174785275222 #
End-of-ACIS-data 