700 0 2 0           
24 FBMach with ACIS - 7.0.3 13 ACIS 7.0.3 NT 24 Mon May 13 17:01:50 2002 
1 9.9999999999999995e-007 1e-010 
body $2 -1 $-1 $3 $-1 $4 #
bdycol-kcp $-1 -1 1 4 $5 $6 $7 $8 #
model_id-kcp-attrib $-1 -1 $-1 $-1 $0 1 1021323710 1021323710 -1254031359 1 #
lump $-1 -1 $-1 $-1 $9 $0 #
transform $-1 -1 1 0 0 0 1 0 0 0 1 0 0 0 1 rotate no_reflect no_shear #
body $10 -1 $-1 $11 $-1 $12 #
body $13 -1 $-1 $14 $-1 $15 #
body $16 -1 $-1 $17 $-1 $18 #
body $19 -1 $-1 $20 $-1 $21 #
shell $-1 -1 $-1 $-1 $-1 $22 $-1 $3 #
model_id-kcp-attrib $-1 -1 $-1 $-1 $5 1 1021323710 1021323710 -1254031358 1 #
lump $-1 -1 $-1 $-1 $23 $5 #
transform $-1 -1 1 0 0 0 1 0 0 0 1 0 4.2809999999999997 7.1353999999999997 1 no_rotate no_reflect no_shear #
rgb_color-st-attrib $-1 -1 $24 $-1 $6 1 1 0.5 #
lump $-1 -1 $-1 $-1 $25 $6 #
transform $-1 -1 -1 0 0 0 0 1 0 1 0 0 5.484 7.1353999999999997 1 rotate no_reflect no_shear #
rgb_color-st-attrib $-1 -1 $26 $-1 $7 1 1 0.5 #
lump $-1 -1 $-1 $-1 $27 $7 #
transform $-1 -1 1 0 0 0 0 1 0 -1 0 0 3.0779999999999998 7.1353999999999997 1 rotate no_reflect no_shear #
rgb_color-st-attrib $-1 -1 $28 $-1 $8 0.5 1 1 #
lump $-1 -1 $-1 $-1 $29 $8 #
transform $-1 -1 1 0 0 0 1 0 0 0 1 0 4.2809999999999997 7.1353999999999997 1 no_rotate no_reflect no_shear #
face $30 -1 $-1 $31 $32 $9 $-1 $33 forward single #
shell $-1 -1 $-1 $-1 $-1 $34 $-1 $11 #
model_id-kcp-attrib $-1 -1 $-1 $13 $6 1 1021323710 1021323710 -1253375997 1 #
shell $-1 -1 $-1 $-1 $-1 $35 $-1 $14 #
model_id-kcp-attrib $-1 -1 $-1 $16 $7 1 1021323710 1021323710 -1253375996 1 #
shell $-1 -1 $-1 $-1 $-1 $36 $-1 $17 #
model_id-kcp-attrib $-1 -1 $-1 $19 $8 1 1021323710 1021323710 -1248133115 1 #
shell $-1 -1 $-1 $-1 $-1 $37 $-1 $20 #
model_id-kcp-attrib $-1 -1 $-1 $-1 $22 1 1021323710 1021323710 -1254031359 2 #
face $38 -1 $-1 $39 $40 $9 $-1 $41 forward single #
loop $-1 -1 $-1 $-1 $42 $22 #
plane-surface $-1 -1 $-1 0 5.5 7.1353999999999997 0 1 0 0.70710678118654735 0 0.70710678118654735 forward_v I I I I #
face $-1 -1 $-1 $43 $44 $23 $-1 $45 forward single #
face $-1 -1 $-1 $46 $47 $25 $-1 $48 reversed single #
face $-1 -1 $-1 $49 $50 $27 $-1 $51 reversed single #
face $-1 -1 $-1 $52 $53 $29 $-1 $54 reversed single #
model_id-kcp-attrib $-1 -1 $-1 $-1 $31 1 1021323710 1021323710 -1254031359 3 #
face $55 -1 $-1 $56 $57 $9 $-1 $58 reversed single #
loop $-1 -1 $-1 $59 $60 $31 #
plane-surface $-1 -1 $-1 0 4.9219999999999997 7.1353999999999997 0 1 0 0.70710678118654735 0 0.70710678118654735 forward_v I I I I #
coedge $-1 -1 $-1 $42 $42 $61 $62 forward $32 $-1 #
face $-1 -1 $-1 $63 $64 $23 $-1 $65 reversed single #
loop $-1 -1 $-1 $-1 $66 $34 #
plane-surface $-1 -1 $-1 0 0 0.1875 0 0 1 1 0 0 forward_v I I I I #
face $-1 -1 $-1 $67 $68 $25 $-1 $69 forward single #
loop $-1 -1 $-1 $70 $71 $35 #
cone-surface $-1 -1 $-1 0 0 0.046499999999999986 0 0 1 0.062499999999999986 0 0 1 I I -0.70710678118654746 0.70710678118654757 0.062499999999999986 forward I I I I #
face $-1 -1 $-1 $72 $73 $27 $-1 $74 forward single #
loop $-1 -1 $-1 $75 $76 $36 #
cone-surface $-1 -1 $-1 0 0 0.077749999999999986 0 0 1 0.093749999999999972 0 0 1 I I -0.70710678118654757 0.70710678118654768 0.093749999999999972 forward I I I I #
face $-1 -1 $-1 $77 $78 $29 $-1 $54 reversed single #
loop $-1 -1 $-1 $-1 $79 $37 #
cone-surface $-1 -1 $-1 -1.8488927466117464e-032 1.2190000000000003 0 0 1 0 -0.13258252147247751 0 -0.13258252147247773 1 I I 0 1 0.18749999999999992 forward I I I I #
model_id-kcp-attrib $-1 -1 $-1 $-1 $39 1 1021323710 1021323710 -1254031359 4 #
face $80 -1 $-1 $81 $82 $9 $-1 $83 forward single #
loop $-1 -1 $-1 $-1 $84 $39 #
plane-surface $-1 -1 $-1 0 3.0619999999999998 7.1353999999999997 0 1 0 0.70710678118654735 0 0.70710678118654735 forward_v I I I I #
loop $-1 -1 $-1 $-1 $85 $31 #
coedge $-1 -1 $-1 $60 $60 $86 $87 forward $40 $-1 #
coedge $-1 -1 $-1 $61 $61 $42 $62 reversed $88 $-1 #
edge $89 -1 $-1 $90 5.0142313445970897e-016 $90 6.2831853071795871 $61 $91 forward @7 unknown #
face $92 -1 $-1 $93 $94 $23 $-1 $95 reversed single #
loop $-1 -1 $-1 $-1 $96 $43 #
plane-surface $-1 -1 $-1 0 0 -0.1875 0 0 1 1 0 0 forward_v I I I I #
coedge $-1 -1 $-1 $97 $98 $99 $100 forward $44 $-1 #
face $-1 -1 $-1 $-1 $101 $25 $-1 $102 forward single #
loop $-1 -1 $-1 $103 $104 $46 #
cone-surface $-1 -1 $-1 0 0 0 0 0 1 0.12499999999999997 0 0 1 I I 0 1 0.12499999999999997 forward I I I I #
loop $-1 -1 $-1 $-1 $105 $35 #
coedge $-1 -1 $-1 $71 $71 $106 $107 reversed $47 $-1 #
face $-1 -1 $-1 $-1 $108 $27 $-1 $109 forward single #
loop $-1 -1 $-1 $110 $111 $49 #
cone-surface $-1 -1 $-1 0 0 0 0 0 1 0.18749999999999994 0 0 1 I I 0 1 0.18749999999999994 forward I I I I #
loop $-1 -1 $-1 $-1 $112 $36 #
coedge $-1 -1 $-1 $76 $76 $113 $114 reversed $50 $-1 #
face $-1 -1 $-1 $115 $116 $29 $-1 $54 reversed single #
loop $-1 -1 $-1 $-1 $117 $52 #
coedge $-1 -1 $-1 $118 $119 $120 $121 reversed $53 $-1 #
model_id-kcp-attrib $-1 -1 $-1 $-1 $56 1 1021323710 1021323710 -1254031359 5 #
face $122 -1 $-1 $123 $124 $9 $-1 $125 forward single #
loop $-1 -1 $-1 $126 $127 $56 #
cone-surface $-1 -1 $-1 0 2.9401000000000002 7.1353999999999997 0 1 0 -0.088388347648318419 0 -0.088388347648318419 1 I I 0 1 0.12499999999999999 forward I I I I #
coedge $-1 -1 $-1 $84 $84 $128 $129 reversed $57 $-1 #
coedge $-1 -1 $-1 $85 $85 $130 $131 forward $59 $-1 #
coedge $-1 -1 $-1 $86 $86 $60 $87 reversed $132 $-1 #
edge $-1 -1 $-1 $133 -3.14159265358979 $133 3.1415926535897962 $60 $134 forward @7 unknown #
loop $-1 -1 $-1 $135 $61 $136 #
attrib_edge_convexity-kcp-attrib $-1 -1 $137 $-1 $62 1 #
vertex $-1 -1 $-1 $62 $138 #
ellipse-curve $-1 -1 $-1 0 5.5 7.1353999999999997 0 1 0 0.065760930650348895 0 0.065760930650348895 1 I I #
model_id-kcp-attrib $-1 -1 $-1 $-1 $63 1 1021323710 1021323710 -1254031358 3 #
face $-1 -1 $-1 $139 $140 $23 $-1 $141 reversed single #
loop $-1 -1 $-1 $-1 $142 $63 #
plane-surface $-1 -1 $-1 0 -1.2190000000000001 0 0 1 0 0 0 1 forward_v I I I I #
coedge $-1 -1 $-1 $143 $144 $145 $146 forward $64 $-1 #
coedge $-1 -1 $-1 $147 $66 $148 $149 forward $44 $-1 #
coedge $-1 -1 $-1 $66 $147 $150 $151 forward $44 $-1 #
coedge $-1 -1 $-1 $152 $153 $66 $100 reversed $154 $-1 #
edge $-1 -1 $-1 $155 -1.2190000000000001 $156 1.2190000000000001 $99 $157 forward @7 unknown #
loop $-1 -1 $-1 $158 $106 $67 #
plane-surface $-1 -1 $-1 0 0 0.016000000000000014 0 0 1 1 0 0 forward_v I I I I #
loop $-1 -1 $-1 $-1 $159 $46 #
coedge $-1 -1 $-1 $104 $104 $105 $160 reversed $68 $-1 #
coedge $-1 -1 $-1 $105 $105 $104 $160 forward $70 $-1 #
coedge $-1 -1 $-1 $106 $106 $71 $107 forward $101 $-1 #
edge $-1 -1 $-1 $161 -3.1415926535897931 $161 3.1415926535897931 $106 $162 forward @7 unknown #
loop $-1 -1 $-1 $163 $113 $72 #
plane-surface $-1 -1 $-1 0 0 0.016000000000000014 0 0 1 1 0 0 forward_v I I I I #
loop $-1 -1 $-1 $-1 $164 $49 #
coedge $-1 -1 $-1 $111 $111 $112 $165 reversed $73 $-1 #
coedge $-1 -1 $-1 $112 $112 $111 $165 forward $75 $-1 #
coedge $-1 -1 $-1 $113 $113 $76 $114 forward $108 $-1 #
edge $-1 -1 $-1 $166 -3.1415926535897931 $166 3.1415926535897931 $113 $167 forward @7 unknown #
face $-1 -1 $-1 $168 $169 $29 $-1 $54 reversed single #
loop $-1 -1 $-1 $-1 $170 $77 #
coedge $-1 -1 $-1 $171 $172 $173 $174 reversed $78 $-1 #
coedge $-1 -1 $-1 $175 $79 $176 $177 forward $53 $-1 #
coedge $-1 -1 $-1 $79 $175 $178 $179 reversed $53 $-1 #
coedge $-1 -1 $-1 $180 $181 $79 $121 forward $182 $-1 #
edge $-1 -1 $-1 $183 0.78539816339744917 $184 2.3561944901923457 $120 $185 forward @7 unknown #
model_id-kcp-attrib $-1 -1 $-1 $-1 $81 1 1021323710 1021323710 -1254031359 6 #
face $186 -1 $-1 $187 $132 $9 $-1 $188 forward single #
loop $-1 -1 $-1 $189 $190 $81 #
cone-surface $-1 -1 $-1 0 5.0030000000000001 7.1353999999999997 0 1 0 0.088388347648318419 0 0.088388347648318419 1 I I 0.69542142751605396 0.71860214176659198 0.12499999999999999 forward I I I I #
loop $-1 -1 $-1 $-1 $191 $56 #
coedge $-1 -1 $-1 $127 $127 $192 $193 forward $82 $-1 #
coedge $-1 -1 $-1 $128 $128 $84 $129 forward $194 $-1 #
edge $195 -1 $-1 $196 -1.3630854124154756e-015 $196 6.2831853071795845 $128 $197 forward @7 unknown #
coedge $-1 -1 $-1 $130 $130 $85 $131 reversed $198 $-1 #
edge $-1 -1 $-1 $199 -7.894919286223334e-016 $199 6.2831853071795853 $130 $200 forward @7 unknown #
loop $-1 -1 $-1 $201 $86 $123 #
vertex $-1 -1 $-1 $87 $202 #
ellipse-curve $-1 -1 $-1 0 4.9219999999999997 7.1353999999999997 0 -1 0 0.067175144212721999 0 0.067175144212721999 1 I I #
loop $-1 -1 $-1 $-1 $203 $136 #
face $204 -1 $-1 $205 $88 $9 $-1 $206 forward single #
convexity-sys-attrib $-1 -1 $-1 $89 $62 #
point $-1 -1 $-1 0.065760930650348895 5.5 7.2011609306503486 #
face $207 -1 $-1 $208 $209 $23 $-1 $210 reversed single #
loop $-1 -1 $-1 $-1 $211 $93 #
plane-surface $-1 -1 $-1 -0.18749999999999994 0 0 1 0 0 0 0 -1 forward_v I I I I #
coedge $-1 -1 $-1 $212 $150 $213 $214 forward $94 $-1 #
coedge $-1 -1 $-1 $215 $96 $212 $216 forward $64 $-1 #
coedge $-1 -1 $-1 $96 $215 $217 $218 forward $64 $-1 #
coedge $-1 -1 $-1 $153 $152 $96 $146 reversed $154 $-1 #
edge $-1 -1 $-1 $219 -1.2190000000000001 $220 1.2190000000000001 $145 $221 forward @7 unknown #
coedge $-1 -1 $-1 $98 $97 $222 $223 forward $44 $-1 #
coedge $-1 -1 $-1 $224 $225 $97 $149 reversed $209 $-1 #
edge $-1 -1 $-1 $156 -0.18749999999999994 $226 0.18749999999999994 $148 $227 forward @7 unknown #
coedge $-1 -1 $-1 $142 $228 $98 $151 reversed $94 $-1 #
edge $-1 -1 $-1 $229 -0.18749999999999994 $155 0.18749999999999994 $150 $230 forward @7 unknown #
coedge $-1 -1 $-1 $145 $99 $228 $231 forward $154 $-1 #
coedge $-1 -1 $-1 $99 $145 $224 $232 reversed $154 $-1 #
loop $-1 -1 $-1 $-1 $152 $208 #
vertex $-1 -1 $-1 $100 $233 #
vertex $-1 -1 $-1 $100 $234 #
straight-curve $-1 -1 $-1 0.18749999999999994 0 0.1875 0 1 0 I I #
loop $-1 -1 $-1 $-1 $235 $67 #
coedge $-1 -1 $-1 $159 $159 $235 $236 reversed $103 $-1 #
edge $-1 -1 $-1 $237 0 $237 6.2831853071795862 $104 $238 forward @7 unknown #
vertex $-1 -1 $-1 $107 $239 #
ellipse-curve $-1 -1 $-1 0 0 0.016000000000000014 0 0 -1 0.092999999999999958 0 0 1 I I #
loop $-1 -1 $-1 $-1 $240 $72 #
coedge $-1 -1 $-1 $164 $164 $240 $241 reversed $110 $-1 #
edge $-1 -1 $-1 $242 0 $242 6.2831853071795862 $111 $243 forward @7 unknown #
vertex $-1 -1 $-1 $114 $244 #
ellipse-curve $-1 -1 $-1 0 0 0.016000000000000014 0 0 -1 0.15549999999999994 0 0 1 I I #
face $-1 -1 $-1 $245 $246 $29 $-1 $247 forward single #
loop $-1 -1 $-1 $-1 $248 $115 #
coedge $-1 -1 $-1 $249 $250 $248 $251 forward $116 $-1 #
coedge $-1 -1 $-1 $252 $117 $253 $254 reversed $78 $-1 #
coedge $-1 -1 $-1 $117 $252 $119 $179 forward $78 $-1 #
coedge $-1 -1 $-1 $255 $256 $117 $174 forward $257 $-1 #
edge $-1 -1 $-1 $258 2.3561944901923439 $259 3.9269908169872405 $173 $260 forward @7 unknown #
coedge $-1 -1 $-1 $119 $118 $261 $262 reversed $53 $-1 #
coedge $-1 -1 $-1 $250 $249 $263 $177 reversed $116 $-1 #
edge $-1 -1 $-1 $183 -2.4380000000000006 $264 -2.2204460492503131e-016 $263 $265 forward @7 unknown #
coedge $-1 -1 $-1 $266 $267 $268 $179 forward $269 $-1 #
edge $-1 -1 $-1 $184 -2.4380000000000006 $259 -2.2204460492503131e-016 $178 $270 forward @7 unknown #
coedge $-1 -1 $-1 $181 $120 $267 $271 reversed $182 $-1 #
coedge $-1 -1 $-1 $120 $180 $272 $273 forward $182 $-1 #
loop $-1 -1 $-1 $-1 $120 $274 #
vertex $-1 -1 $-1 $275 $276 #
vertex $-1 -1 $-1 $277 $278 #
ellipse-curve $-1 -1 $-1 -1.8488927466117464e-032 -1.2190000000000003 0 0 1 0 -0.13258252147247751 0 -0.13258252147247773 1 I I #
model_id-kcp-attrib $-1 -1 $-1 $-1 $123 1 1021323710 1021323710 -1254031359 7 #
face $279 -1 $-1 $136 $280 $9 $-1 $281 forward single #
cone-surface $-1 -1 $-1 0 2.9401000000000002 7.1353999999999997 0 1 0 -0.067175144212721999 0 -0.067175144212721999 1 I I 0 1 0.094999999999999987 forward I I I I #
loop $-1 -1 $-1 $-1 $192 $81 #
coedge $-1 -1 $-1 $190 $190 $282 $283 forward $124 $-1 #
coedge $-1 -1 $-1 $191 $191 $203 $284 forward $126 $-1 #
coedge $-1 -1 $-1 $192 $192 $127 $193 reversed $189 $-1 #
edge $-1 -1 $-1 $285 -3.1415926535897922 $285 3.141592653589794 $192 $286 forward @7 unknown #
loop $-1 -1 $-1 $-1 $128 $205 #
attrib_edge_convexity-kcp-attrib $-1 -1 $287 $-1 $129 1 #
vertex $-1 -1 $-1 $129 $288 #
ellipse-curve $-1 -1 $-1 0 3.0619999999999998 7.1353999999999997 0 1 0 0.10995510447450811 0 0.10995510447450811 1 I I #
loop $-1 -1 $-1 $-1 $130 $187 #
vertex $-1 -1 $-1 $131 $289 #
ellipse-curve $-1 -1 $-1 0 4.9219999999999997 7.1353999999999997 0 1 0 0.13258252147247762 0 0.13258252147247762 1 I I #
loop $-1 -1 $-1 $-1 $282 $123 #
point $-1 -1 $-1 -0.067175144212721999 4.9219999999999997 7.0682248557872773 #
coedge $-1 -1 $-1 $203 $203 $191 $284 reversed $135 $-1 #
model_id-kcp-attrib $-1 -1 $-1 $-1 $136 1 1021323710 1021323710 -1254031359 9 #
face $290 -1 $-1 $-1 $291 $9 $-1 $292 forward single #
cone-surface $-1 -1 $-1 0 5.468 7.1353999999999997 0 -1 0 0.088388347648318419 0 0.088388347648318419 1 I I 0.70710678118654702 0.70710678118654802 0.12499999999999999 forward I I I I #
model_id-kcp-attrib $-1 -1 $-1 $-1 $139 1 1021323710 1021323710 -1254031358 2 #
face $-1 -1 $-1 $-1 $154 $23 $-1 $293 reversed single #
loop $-1 -1 $-1 $-1 $224 $139 #
plane-surface $-1 -1 $-1 0 1.2190000000000001 0 0 -1 0 0 0 -1 forward_v I I I I #
coedge $-1 -1 $-1 $294 $222 $225 $295 forward $140 $-1 #
coedge $-1 -1 $-1 $228 $142 $143 $216 reversed $94 $-1 #
coedge $-1 -1 $-1 $222 $294 $142 $214 reversed $140 $-1 #
edge $-1 -1 $-1 $229 -0.1875 $296 0.1875 $213 $297 forward @7 unknown #
coedge $-1 -1 $-1 $144 $143 $294 $298 forward $64 $-1 #
edge $-1 -1 $-1 $220 -0.18749999999999994 $296 0.18749999999999994 $212 $299 forward @7 unknown #
coedge $-1 -1 $-1 $225 $224 $144 $218 reversed $209 $-1 #
edge $-1 -1 $-1 $300 -0.18749999999999994 $219 0.18749999999999994 $217 $301 forward @7 unknown #
vertex $-1 -1 $-1 $146 $302 #
vertex $-1 -1 $-1 $231 $303 #
straight-curve $-1 -1 $-1 0.18749999999999994 0 -0.1875 0 -1 0 I I #
coedge $-1 -1 $-1 $211 $213 $147 $223 reversed $140 $-1 #
edge $-1 -1 $-1 $226 -1.2190000000000001 $229 1.2190000000000001 $222 $304 forward @7 unknown #
coedge $-1 -1 $-1 $217 $148 $153 $232 forward $209 $-1 #
coedge $-1 -1 $-1 $148 $217 $211 $295 reversed $209 $-1 #
vertex $-1 -1 $-1 $149 $305 #
straight-curve $-1 -1 $-1 0 1.2190000000000001 0.1875 -1 0 0 I I #
coedge $-1 -1 $-1 $150 $212 $152 $231 reversed $94 $-1 #
vertex $-1 -1 $-1 $223 $306 #
straight-curve $-1 -1 $-1 0 -1.2190000000000001 0.1875 1 0 0 I I #
edge $-1 -1 $-1 $155 -0.1875 $220 0.1875 $152 $307 forward @7 unknown #
edge $-1 -1 $-1 $156 -0.1875 $219 0.1875 $153 $308 forward @7 unknown #
point $-1 -1 $-1 0.18749999999999994 -1.2190000000000001 0.1875 #
point $-1 -1 $-1 0.18749999999999994 1.2190000000000001 0.1875 #
coedge $-1 -1 $-1 $235 $235 $159 $236 forward $158 $-1 #
edge $-1 -1 $-1 $309 0 $309 6.2831853071795862 $235 $310 forward @7 unknown #
vertex $-1 -1 $-1 $160 $311 #
ellipse-curve $-1 -1 $-1 0 0 -0.016000000000000014 0 0 -1 0.12499999999999997 0 0 1 I I #
point $-1 -1 $-1 -0.092999999999999958 1.1388839090548103e-017 0.016000000000000014 #
coedge $-1 -1 $-1 $240 $240 $164 $241 forward $163 $-1 #
edge $-1 -1 $-1 $312 0 $312 6.2831853071795862 $240 $313 forward @7 unknown #
vertex $-1 -1 $-1 $165 $314 #
ellipse-curve $-1 -1 $-1 0 0 -0.016000000000000014 0 0 -1 0.18749999999999994 0 0 1 I I #
point $-1 -1 $-1 -0.15549999999999994 1.904262880193796e-017 0.016000000000000014 #
face $-1 -1 $-1 $315 $316 $29 $-1 $317 reversed single #
loop $-1 -1 $-1 $-1 $268 $168 #
plane-surface $-1 -1 $-1 0 0 0.1875 0 0 1 1 0 0 forward_v I I I I #
coedge $-1 -1 $-1 $318 $319 $320 $251 reversed $169 $-1 #
coedge $-1 -1 $-1 $176 $170 $321 $322 reversed $116 $-1 #
coedge $-1 -1 $-1 $170 $176 $323 $324 reversed $116 $-1 #
edge $-1 -1 $-1 $325 -2.4380000000000006 $326 -2.2204460492503131e-016 $320 $327 forward @7 unknown #
coedge $-1 -1 $-1 $172 $171 $328 $329 reversed $78 $-1 #
coedge $-1 -1 $-1 $330 $331 $332 $254 forward $333 $-1 #
edge $-1 -1 $-1 $334 -2.4380000000000006 $258 -2.2204460492503131e-016 $253 $335 forward @7 unknown #
coedge $-1 -1 $-1 $256 $173 $336 $337 reversed $257 $-1 #
coedge $-1 -1 $-1 $173 $255 $330 $338 forward $257 $-1 #
loop $-1 -1 $-1 $-1 $173 $339 #
vertex $-1 -1 $-1 $340 $341 #
vertex $-1 -1 $-1 $342 $343 #
ellipse-curve $-1 -1 $-1 -1.8488927466117464e-032 1.2190000000000001 0 0 -1 0 -0.13258252147247751 0 -0.13258252147247773 1 I I #
coedge $-1 -1 $-1 $344 $345 $175 $262 forward $346 $-1 #
edge $-1 -1 $-1 $259 -2.3561944901923457 $264 -0.78539816339744917 $261 $260 forward @7 unknown #
coedge $-1 -1 $-1 $347 $348 $349 $177 forward $316 $-1 #
vertex $-1 -1 $-1 $350 $351 #
straight-curve $-1 -1 $-1 -0.18749999999999994 1.2190000000000003 0 0 1 0 I I #
coedge $-1 -1 $-1 $352 $178 $345 $342 forward $269 $-1 #
coedge $-1 -1 $-1 $178 $352 $180 $271 forward $269 $-1 #
coedge $-1 -1 $-1 $353 $336 $172 $179 reversed $246 $-1 #
loop $-1 -1 $-1 $-1 $178 $354 #
straight-curve $-1 -1 $-1 -1.8488927466117464e-032 1.2190000000000003 0.1875 0 1 0 I I #
edge $-1 -1 $-1 $355 -0.18749999999999994 $184 -1.8488927466117464e-032 $180 $356 forward @7 unknown #
coedge $-1 -1 $-1 $357 $349 $181 $273 reversed $358 $-1 #
edge $-1 -1 $-1 $355 -0.1875 $183 0 $272 $359 forward @7 unknown #
face $-1 -1 $-1 $360 $182 $29 $-1 $361 reversed single #
edge $-1 -1 $-1 $183 0 $362 0.1875 $348 $359 forward @7 unknown #
point $-1 -1 $-1 -0.18749999999999994 -1.2190000000000003 0 #
edge $-1 -1 $-1 $184 -1.8488927466117464e-032 $363 0.18749999999999994 $364 $356 forward @7 unknown #
point $-1 -1 $-1 -1.8488927466117464e-032 -1.2190000000000003 0.1875 #
model_id-kcp-attrib $-1 -1 $-1 $-1 $187 1 1021323710 1021323710 -1254031359 8 #
loop $-1 -1 $-1 $198 $365 $187 #
cone-surface $-1 -1 $-1 0 2.9401000000000002 7.1353999999999997 0 1 0 -0.13258252147247762 0 -0.13258252147247762 1 I I 0 1 0.18749999999999997 forward I I I I #
coedge $-1 -1 $-1 $282 $282 $190 $283 reversed $201 $-1 #
edge $-1 -1 $-1 $366 -3.1415926535897962 $366 3.14159265358979 $282 $367 forward @7 unknown #
edge $368 -1 $-1 $369 -3.141592653589794 $369 3.1415926535897922 $203 $370 forward @7 unknown #
vertex $-1 -1 $-1 $193 $371 #
ellipse-curve $-1 -1 $-1 0 5.0030000000000001 7.1353999999999997 0 1 0 0.088388347648318419 0 0.088388347648318419 1 I I #
convexity-sys-attrib $-1 -1 $-1 $195 $129 #
point $-1 -1 $-1 0.10995510447450811 3.0619999999999998 7.2453551044745081 #
point $-1 -1 $-1 0.13258252147247762 4.9219999999999997 7.2679825214724776 #
model_id-kcp-attrib $-1 -1 $-1 $-1 $205 1 1021323710 1021323710 -1254031359 10 #
loop $-1 -1 $-1 $194 $372 $205 #
cone-surface $-1 -1 $-1 0 3.0939999999999999 7.1353999999999997 0 1 0 0.13258252147247762 0 0.13258252147247762 1 I I 0.70710678118654702 0.70710678118654802 0.18749999999999997 forward I I I I #
plane-surface $-1 -1 $-1 0.18749999999999994 0 0 -1 0 0 0 0 1 forward_v I I I I #
coedge $-1 -1 $-1 $213 $211 $215 $298 reversed $140 $-1 #
edge $-1 -1 $-1 $226 -0.1875 $300 0.1875 $225 $373 forward @7 unknown #
vertex $-1 -1 $-1 $298 $374 #
straight-curve $-1 -1 $-1 -0.18749999999999994 -1.2190000000000001 0 0 0 -1 I I #
edge $-1 -1 $-1 $296 -1.2190000000000001 $300 1.2190000000000001 $294 $375 forward @7 unknown #
straight-curve $-1 -1 $-1 0 -1.2190000000000001 -0.1875 -1 0 0 I I #
vertex $-1 -1 $-1 $218 $376 #
straight-curve $-1 -1 $-1 0 1.2190000000000001 -0.1875 1 0 0 I I #
point $-1 -1 $-1 0.18749999999999994 1.2190000000000001 -0.1875 #
point $-1 -1 $-1 0.18749999999999994 -1.2190000000000001 -0.1875 #
straight-curve $-1 -1 $-1 -0.18749999999999994 0 0.1875 0 -1 0 I I #
point $-1 -1 $-1 -0.18749999999999994 1.2190000000000001 0.1875 #
point $-1 -1 $-1 -0.18749999999999994 -1.2190000000000001 0.1875 #
straight-curve $-1 -1 $-1 0.18749999999999994 -1.2190000000000001 0 0 0 -1 I I #
straight-curve $-1 -1 $-1 0.18749999999999994 1.2190000000000001 0 0 0 -1 I I #
vertex $-1 -1 $-1 $236 $377 #
ellipse-curve $-1 -1 $-1 0 0 0.016000000000000014 0 0 1 0.12499999999999997 0 0 1 I I #
point $-1 -1 $-1 0.12499999999999997 0 -0.016000000000000014 #
vertex $-1 -1 $-1 $241 $378 #
ellipse-curve $-1 -1 $-1 0 0 0.016000000000000014 0 0 1 0.18749999999999994 0 0 1 I I #
point $-1 -1 $-1 0.18749999999999994 0 -0.016000000000000014 #
face $-1 -1 $-1 $379 $380 $29 $-1 $381 reversed single #
loop $-1 -1 $-1 $-1 $263 $245 #
plane-surface $-1 -1 $-1 -0.18749999999999994 0 0 1 0 0 0 0 -1 forward_v I I I I #
coedge $-1 -1 $-1 $382 $248 $383 $384 reversed $169 $-1 #
coedge $-1 -1 $-1 $248 $382 $385 $386 reversed $169 $-1 #
coedge $-1 -1 $-1 $387 $388 $389 $251 forward $390 $-1 #
coedge $-1 -1 $-1 $391 $392 $249 $322 forward $393 $-1 #
edge $-1 -1 $-1 $264 -0.78539816339744917 $326 0.7853981633974475 $321 $260 forward @7 unknown #
coedge $-1 -1 $-1 $394 $395 $250 $324 forward $396 $-1 #
edge $-1 -1 $-1 $325 -0.7853981633974475 $183 0.78539816339744917 $323 $185 forward @7 unknown #
vertex $-1 -1 $-1 $397 $398 #
vertex $-1 -1 $-1 $399 $400 #
straight-curve $-1 -1 $-1 -1.8488927466117464e-032 1.2190000000000003 -0.1875 0 1 0 I I #
coedge $-1 -1 $-1 $401 $364 $252 $329 forward $402 $-1 #
edge $-1 -1 $-1 $184 2.3561944901923457 $334 3.9269908169872423 $328 $185 forward @7 unknown #
coedge $-1 -1 $-1 $403 $253 $256 $338 reversed $333 $-1 #
coedge $-1 -1 $-1 $253 $403 $401 $404 forward $333 $-1 #
coedge $-1 -1 $-1 $405 $406 $382 $254 reversed $380 $-1 #
loop $-1 -1 $-1 $-1 $253 $407 #
vertex $-1 -1 $-1 $408 $409 #
straight-curve $-1 -1 $-1 0.18749999999999994 1.2190000000000003 0 0 1 0 I I #
coedge $-1 -1 $-1 $268 $410 $255 $337 forward $246 $-1 #
edge $-1 -1 $-1 $411 -0.18749999999999994 $259 1.8488927466117464e-032 $255 $412 forward @7 unknown #
edge $-1 -1 $-1 $411 -0.1875 $258 0 $330 $413 forward @7 unknown #
face $-1 -1 $-1 $414 $257 $29 $-1 $415 reversed single #
edge $-1 -1 $-1 $258 0 $416 0.1875 $406 $413 forward @7 unknown #
point $-1 -1 $-1 0.18749999999999994 1.2190000000000001 0 #
edge $-1 -1 $-1 $259 1.8488927466117464e-032 $417 0.18749999999999994 $345 $412 forward @7 unknown #
point $-1 -1 $-1 -1.8488927466117464e-032 1.2190000000000001 0.1875 #
coedge $-1 -1 $-1 $345 $261 $418 $419 reversed $346 $-1 #
coedge $-1 -1 $-1 $261 $344 $266 $342 reversed $346 $-1 #
loop $-1 -1 $-1 $-1 $261 $414 #
coedge $-1 -1 $-1 $420 $263 $392 $350 forward $316 $-1 #
coedge $-1 -1 $-1 $263 $420 $394 $275 reversed $316 $-1 #
coedge $-1 -1 $-1 $272 $418 $118 $177 reversed $358 $-1 #
edge $-1 -1 $-1 $264 0 $421 0.1875 $392 $422 forward @7 unknown #
point $-1 -1 $-1 -0.18749999999999994 1.2190000000000001 0 #
coedge $-1 -1 $-1 $267 $266 $357 $423 forward $269 $-1 #
coedge $-1 -1 $-1 $410 $268 $364 $277 forward $246 $-1 #
face $-1 -1 $-1 $424 $269 $29 $-1 $247 forward single #
vertex $-1 -1 $-1 $423 $425 #
straight-curve $-1 -1 $-1 0 -1.2190000000000001 0.1875 1 0 0 I I #
coedge $-1 -1 $-1 $418 $272 $352 $423 reversed $358 $-1 #
loop $-1 -1 $-1 $-1 $349 $426 #
straight-curve $-1 -1 $-1 -0.18749999999999994 -1.2190000000000001 0 0 0 -1 I I #
face $-1 -1 $-1 $427 $402 $29 $-1 $361 reversed single #
plane-surface $-1 -1 $-1 0 -1.2190000000000001 0 0 1 0 0 0 1 forward_v I I I I #
vertex $-1 -1 $-1 $428 $429 #
vertex $-1 -1 $-1 $430 $431 #
coedge $-1 -1 $-1 $328 $401 $353 $277 reversed $402 $-1 #
coedge $-1 -1 $-1 $365 $365 $372 $432 forward $280 $-1 #
vertex $-1 -1 $-1 $283 $433 #
ellipse-curve $-1 -1 $-1 0 4.9719999999999995 7.1353999999999997 0 1 0 0.067175144212721999 0 0.067175144212721999 1 I I #
attrib_edge_convexity-kcp-attrib $-1 -1 $434 $-1 $284 1 #
vertex $-1 -1 $-1 $284 $435 #
ellipse-curve $-1 -1 $-1 0 5.468 7.1353999999999997 0 -1 0 0.088388347648318419 0 0.088388347648318419 1 I I #
point $-1 -1 $-1 -0.088388347648318419 5.0030000000000001 7.0470116523516815 #
coedge $-1 -1 $-1 $372 $372 $365 $432 reversed $291 $-1 #
straight-curve $-1 -1 $-1 -0.18749999999999994 1.2190000000000001 0 0 0 -1 I I #
point $-1 -1 $-1 -0.18749999999999994 -1.2190000000000001 -0.1875 #
straight-curve $-1 -1 $-1 -0.18749999999999994 0 -0.1875 0 1 0 I I #
point $-1 -1 $-1 -0.18749999999999994 1.2190000000000001 -0.1875 #
point $-1 -1 $-1 0.12499999999999997 0 0.016000000000000014 #
point $-1 -1 $-1 0.18749999999999994 0 0.016000000000000014 #
face $-1 -1 $-1 $339 $436 $29 $-1 $415 reversed single #
loop $-1 -1 $-1 $-1 $332 $315 #
plane-surface $-1 -1 $-1 0.18749999999999994 0 0 -1 0 0 0 0 1 forward_v I I I I #
coedge $-1 -1 $-1 $319 $318 $171 $254 forward $169 $-1 #
coedge $-1 -1 $-1 $437 $438 $318 $384 forward $439 $-1 #
edge $-1 -1 $-1 $334 -2.3561944901923439 $325 -0.7853981633974475 $383 $185 forward @7 unknown #
coedge $-1 -1 $-1 $440 $441 $319 $386 forward $436 $-1 #
edge $-1 -1 $-1 $326 0.7853981633974475 $258 2.3561944901923439 $385 $260 forward @7 unknown #
coedge $-1 -1 $-1 $442 $320 $441 $399 forward $390 $-1 #
coedge $-1 -1 $-1 $320 $442 $437 $443 forward $390 $-1 #
coedge $-1 -1 $-1 $444 $445 $170 $251 reversed $446 $-1 #
loop $-1 -1 $-1 $-1 $320 $424 #
coedge $-1 -1 $-1 $392 $321 $445 $447 reversed $393 $-1 #
coedge $-1 -1 $-1 $321 $391 $347 $350 reversed $393 $-1 #
loop $-1 -1 $-1 $-1 $321 $448 #
coedge $-1 -1 $-1 $395 $323 $348 $275 forward $396 $-1 #
coedge $-1 -1 $-1 $323 $394 $444 $397 reversed $396 $-1 #
loop $-1 -1 $-1 $-1 $323 $449 #
edge $-1 -1 $-1 $325 1.8488927466117464e-032 $362 0.18749999999999994 $395 $450 forward @7 unknown #
point $-1 -1 $-1 -1.8488927466117464e-032 -1.2190000000000003 -0.1875 #
edge $-1 -1 $-1 $326 -1.8488927466117464e-032 $416 0.18749999999999994 $441 $451 forward @7 unknown #
point $-1 -1 $-1 -1.8488927466117464e-032 1.2190000000000001 -0.1875 #
coedge $-1 -1 $-1 $364 $328 $331 $404 reversed $402 $-1 #
loop $-1 -1 $-1 $-1 $328 $360 #
coedge $-1 -1 $-1 $331 $330 $410 $430 reversed $333 $-1 #
edge $-1 -1 $-1 $363 -0.1875 $334 0 $331 $452 forward @7 unknown #
coedge $-1 -1 $-1 $453 $332 $438 $408 forward $380 $-1 #
coedge $-1 -1 $-1 $332 $453 $440 $340 reversed $380 $-1 #
face $-1 -1 $-1 $-1 $333 $29 $-1 $381 reversed single #
edge $-1 -1 $-1 $334 0 $454 0.1875 $405 $452 forward @7 unknown #
point $-1 -1 $-1 0.18749999999999994 -1.2190000000000003 0 #
coedge $-1 -1 $-1 $336 $353 $403 $430 forward $246 $-1 #
vertex $-1 -1 $-1 $430 $455 #
straight-curve $-1 -1 $-1 0 1.2190000000000001 0.1875 -1 0 0 I I #
straight-curve $-1 -1 $-1 0.18749999999999994 1.2190000000000001 0 0 0 -1 I I #
face $-1 -1 $-1 $448 $346 $29 $-1 $415 reversed single #
plane-surface $-1 -1 $-1 0 1.2190000000000001 0 0 -1 0 0 0 -1 forward_v I I I I #
vertex $-1 -1 $-1 $456 $457 #
vertex $-1 -1 $-1 $342 $458 #
coedge $-1 -1 $-1 $349 $357 $344 $419 forward $358 $-1 #
edge $-1 -1 $-1 $417 -0.1875 $264 0 $344 $422 forward @7 unknown #
coedge $-1 -1 $-1 $348 $347 $459 $428 reversed $316 $-1 #
vertex $-1 -1 $-1 $447 $460 #
straight-curve $-1 -1 $-1 -0.18749999999999994 1.2190000000000001 0 0 0 -1 I I #
edge $-1 -1 $-1 $417 -1.2190000000000001 $355 1.2190000000000001 $357 $461 forward @7 unknown #
face $-1 -1 $-1 $426 $390 $29 $-1 $462 reversed single #
point $-1 -1 $-1 -0.18749999999999994 -1.2190000000000001 0.1875 #
face $-1 -1 $-1 $407 $358 $29 $-1 $317 reversed single #
face $-1 -1 $-1 $463 $439 $29 $-1 $361 reversed single #
edge $-1 -1 $-1 $362 -1.2190000000000001 $421 1.2190000000000001 $420 $464 forward @7 unknown #
point $-1 -1 $-1 -0.18749999999999994 -1.2190000000000001 -0.1875 #
edge $-1 -1 $-1 $363 -1.2190000000000001 $411 1.2190000000000001 $403 $465 forward @7 unknown #
point $-1 -1 $-1 0.18749999999999994 -1.2190000000000001 0.1875 #
edge $466 -1 $-1 $467 -3.141592653589794 $467 3.1415926535897922 $372 $468 forward @7 unknown #
point $-1 -1 $-1 -0.067175144212721999 4.9719999999999995 7.0682248557872773 #
convexity-sys-attrib $-1 -1 $-1 $368 $284 #
point $-1 -1 $-1 -0.088388347648318419 5.468 7.0470116523516815 #
loop $-1 -1 $-1 $-1 $385 $379 #
coedge $-1 -1 $-1 $438 $383 $388 $443 reversed $439 $-1 #
coedge $-1 -1 $-1 $383 $437 $405 $408 reversed $439 $-1 #
loop $-1 -1 $-1 $-1 $383 $427 #
coedge $-1 -1 $-1 $441 $385 $406 $340 forward $436 $-1 #
coedge $-1 -1 $-1 $385 $440 $387 $399 reversed $436 $-1 #
coedge $-1 -1 $-1 $388 $387 $453 $456 forward $390 $-1 #
edge $-1 -1 $-1 $454 -0.18749999999999994 $325 1.8488927466117464e-032 $437 $450 forward @7 unknown #
coedge $-1 -1 $-1 $459 $389 $395 $397 forward $446 $-1 #
coedge $-1 -1 $-1 $389 $459 $391 $447 forward $446 $-1 #
loop $-1 -1 $-1 $-1 $389 $463 #
edge $-1 -1 $-1 $421 -0.18749999999999994 $326 -1.8488927466117464e-032 $391 $451 forward @7 unknown #
face $-1 -1 $-1 $449 $393 $29 $-1 $415 reversed single #
face $-1 -1 $-1 $274 $396 $29 $-1 $361 reversed single #
straight-curve $-1 -1 $-1 0 -1.2190000000000001 -0.1875 -1 0 0 I I #
straight-curve $-1 -1 $-1 0 1.2190000000000001 -0.1875 1 0 0 I I #
straight-curve $-1 -1 $-1 0.18749999999999994 -1.2190000000000001 0 0 0 -1 I I #
coedge $-1 -1 $-1 $406 $405 $442 $456 reversed $380 $-1 #
vertex $-1 -1 $-1 $408 $469 #
point $-1 -1 $-1 0.18749999999999994 1.2190000000000001 0.1875 #
edge $-1 -1 $-1 $416 -1.2190000000000001 $454 1.2190000000000001 $453 $470 forward @7 unknown #
point $-1 -1 $-1 0.18749999999999994 1.2190000000000001 -0.1875 #
point $-1 -1 $-1 -0.18749999999999994 1.2190000000000001 0.1875 #
coedge $-1 -1 $-1 $445 $444 $420 $428 forward $446 $-1 #
point $-1 -1 $-1 -0.18749999999999994 1.2190000000000001 -0.1875 #
straight-curve $-1 -1 $-1 -0.18749999999999994 0 0.1875 0 -1 0 I I #
plane-surface $-1 -1 $-1 0 0 -0.1875 0 0 1 1 0 0 forward_v I I I I #
face $-1 -1 $-1 $354 $446 $29 $-1 $462 reversed single #
straight-curve $-1 -1 $-1 -0.18749999999999994 0 -0.1875 0 1 0 I I #
straight-curve $-1 -1 $-1 0.18749999999999994 0 0.1875 0 1 0 I I #
attrib_edge_convexity-kcp-attrib $-1 -1 $471 $-1 $432 1 #
vertex $-1 -1 $-1 $432 $472 #
ellipse-curve $-1 -1 $-1 0 3.0939999999999999 7.1353999999999997 0 1 0 0.13258252147247762 0 0.13258252147247762 1 I I #
point $-1 -1 $-1 0.18749999999999994 -1.2190000000000001 -0.1875 #
straight-curve $-1 -1 $-1 0.18749999999999994 0 -0.1875 0 -1 0 I I #
convexity-sys-attrib $-1 -1 $-1 $466 $432 #
point $-1 -1 $-1 -0.13258252147247762 3.0939999999999999 7.0028174785275219 #
End-of-ACIS-data 