700 0 2 0           
24 FBMach with ACIS - 7.0.3 13 ACIS 7.0.3 NT 24 Mon May 13 17:04:28 2002 
1 9.9999999999999995e-007 1e-010 
body $2 -1 $-1 $3 $-1 $4 #
bdycol-kcp $-1 -1 1 3 $5 $6 $7 #
model_id-kcp-attrib $-1 -1 $-1 $-1 $0 1 1021323868 1021323868 1760165889 1 #
lump $-1 -1 $-1 $-1 $8 $0 #
transform $-1 -1 1 0 0 0 1 0 0 0 1 0 0 0 1 rotate no_reflect no_shear #
body $9 -1 $-1 $10 $-1 $11 #
body $12 -1 $-1 $13 $-1 $14 #
body $15 -1 $-1 $16 $-1 $17 #
shell $-1 -1 $-1 $-1 $-1 $18 $-1 $3 #
rgb_color-st-attrib $-1 -1 $19 $-1 $5 0.5 1 1 #
lump $-1 -1 $-1 $-1 $20 $5 #
transform $-1 -1 1 0 0 0 1 0 0 0 1 -2.7755575615628914e-017 -4.3585000000000003 7.1353999999999997 1 no_rotate no_reflect no_shear #
model_id-kcp-attrib $-1 -1 $-1 $-1 $6 1 1021323868 1021323868 1760165890 1 #
lump $-1 -1 $-1 $-1 $21 $6 #
transform $-1 -1 1 0 0 0 1 0 0 0 1 -2.7755575615628914e-017 -4.3585000000000003 7.1353999999999997 1 no_rotate no_reflect no_shear #
rgb_color-st-attrib $-1 -1 $22 $-1 $7 0.5 1 1 #
lump $-1 -1 $-1 $-1 $23 $7 #
transform $-1 -1 1 0 0 0 -3.8285889215894375e-016 1 0 -1 -3.8285889215894375e-016 0 -4.3585000000000003 7.1354000000389215 1 rotate no_reflect no_shear #
face $24 -1 $-1 $25 $26 $8 $-1 $27 reversed single #
model_id-kcp-attrib $-1 -1 $-1 $9 $5 1 1021323868 1021323868 1747320836 1 #
shell $-1 -1 $-1 $-1 $-1 $28 $-1 $10 #
shell $-1 -1 $-1 $-1 $-1 $29 $-1 $13 #
model_id-kcp-attrib $-1 -1 $-1 $15 $7 1 1021323868 1021323868 1761476611 1 #
shell $-1 -1 $-1 $-1 $-1 $30 $-1 $16 #
model_id-kcp-attrib $-1 -1 $-1 $-1 $18 1 1021323868 1021323868 1760165889 2 #
face $31 -1 $-1 $32 $33 $8 $-1 $34 forward single #
loop $35 -1 $-1 $36 $37 $18 #
cone-surface $-1 -1 $-1 0 -4.3585000000000003 7.1354000000389215 0 -1 0 -0.13258252147247768 0 -0.13258252147247768 1 I I 0 1 0.18750000000000006 forward I I I I #
face $-1 -1 $-1 $38 $39 $20 $-1 $40 reversed single #
face $-1 -1 $-1 $41 $42 $21 $-1 $43 forward single #
face $-1 -1 $-1 $44 $45 $23 $-1 $46 forward single #
model_id-kcp-attrib $-1 -1 $-1 $-1 $25 1 1021323868 1021323868 1760165889 3 #
face $47 -1 $-1 $48 $49 $8 $-1 $50 forward single #
loop $-1 -1 $-1 $51 $52 $25 #
cone-surface $-1 -1 $-1 0 -4.3585000000000003 7.1353999999999997 0 -1 0 0.19869700551341982 0 -0.19869700551341982 1 I I 0 1 0.28099999999999997 forward I I I I #
model_id-kcp-attrib $-1 -1 $-1 $-1 $26 1 1021323868 1021323868 1760165889 8 #
loop $53 -1 $-1 $-1 $54 $18 #
coedge $-1 -1 $-1 $37 $37 $55 $56 reversed $26 $-1 #
face $-1 -1 $-1 $57 $58 $20 $-1 $40 reversed single #
loop $-1 -1 $-1 $-1 $59 $28 #
cone-surface $-1 -1 $-1 2.7755575615628926e-017 0.016499999999999737 0 0 1 0 -0.19869700551341971 0 0.19869700551341996 1 I I 0 1 0.28099999999999997 forward I I I I #
face $-1 -1 $-1 $60 $61 $21 $-1 $62 reversed single #
loop $-1 -1 $-1 $-1 $63 $29 #
plane-surface $-1 -1 $-1 0 0 0.28100000000000058 0 0 1 1 0 0 forward_v I I I I #
face $-1 -1 $-1 $64 $65 $23 $-1 $66 forward single #
loop $-1 -1 $-1 $67 $68 $30 #
cone-surface $-1 -1 $-1 0 0 0 0 0 1 0.18750000000000003 0 0 1 I I 0 1 0.18750000000000003 forward I I I I #
model_id-kcp-attrib $-1 -1 $-1 $-1 $32 1 1021323868 1021323868 1760165889 4 #
face $69 -1 $-1 $-1 $70 $8 $-1 $71 forward single #
loop $72 -1 $-1 $73 $55 $32 #
plane-surface $-1 -1 $-1 0 -4.3420000000000005 7.1353999999999997 0 1 0 -0.70710678118654735 0 0.70710678118654735 forward_v I I I I #
loop $-1 -1 $-1 $-1 $74 $25 #
coedge $-1 -1 $-1 $52 $52 $75 $76 reversed $33 $-1 #
model_id-kcp-attrib $-1 -1 $-1 $-1 $36 1 1021323868 1021323868 1760165889 9 #
coedge $-1 -1 $-1 $54 $54 $77 $78 reversed $36 $-1 #
coedge $-1 -1 $-1 $55 $55 $37 $56 forward $49 $-1 #
edge $79 -1 $-1 $80 -3.1415926535897993 $80 3.1415926535897869 $55 $81 forward @7 unknown #
face $-1 -1 $-1 $82 $83 $20 $-1 $40 reversed single #
loop $-1 -1 $-1 $-1 $84 $38 #
coedge $-1 -1 $-1 $85 $86 $87 $88 reversed $39 $-1 #
face $89 -1 $-1 $90 $91 $21 $-1 $92 reversed single #
loop $-1 -1 $-1 $-1 $93 $41 #
plane-surface $-1 -1 $-1 0 0 -0.28100000000000058 0 0 1 1 0 0 forward_v I I I I #
coedge $-1 -1 $-1 $94 $95 $96 $97 forward $42 $-1 #
face $-1 -1 $-1 $-1 $98 $23 $-1 $99 forward single #
loop $-1 -1 $-1 $-1 $100 $44 #
plane-surface $-1 -1 $-1 0 0 -0.016499999999999737 0 0 -1 -1 0 0 forward_v I I I I #
loop $-1 -1 $-1 $-1 $101 $30 #
coedge $-1 -1 $-1 $68 $68 $100 $102 reversed $45 $-1 #
model_id-kcp-attrib $-1 -1 $-1 $-1 $48 1 1021323868 1021323868 1760165889 5 #
loop $103 -1 $-1 $104 $77 $48 #
plane-surface $-1 -1 $-1 0 -4.375 7.1353999999999997 0 -1 0 0.70710678118654735 0 -0.70710678118654735 forward_v I I I I #
model_id-kcp-attrib $-1 -1 $-1 $-1 $49 1 1021323868 1021323868 1760165889 10 #
loop $-1 -1 $-1 $-1 $75 $32 #
coedge $-1 -1 $-1 $74 $74 $105 $106 reversed $51 $-1 #
coedge $-1 -1 $-1 $75 $75 $52 $76 forward $73 $-1 #
edge $107 -1 $-1 $108 6.1514237822913313e-016 $108 6.2831853071795871 $75 $109 forward @7 unknown #
coedge $-1 -1 $-1 $77 $77 $54 $78 forward $70 $-1 #
edge $110 -1 $-1 $111 -3.1415926535898007 $111 3.1415926535897856 $77 $112 forward @7 unknown #
attrib_edge_convexity-kcp-attrib $-1 -1 $113 $-1 $56 1 #
vertex $114 -1 $-1 $56 $115 #
ellipse-curve $-1 -1 $-1 0 -4.3420000000000005 7.1354000000389215 0 -1 0 -0.13258252147247768 0 -0.13258252147247768 1 I I #
face $-1 -1 $-1 $116 $117 $20 $-1 $40 reversed single #
loop $-1 -1 $-1 $-1 $118 $57 #
coedge $-1 -1 $-1 $119 $120 $121 $122 reversed $58 $-1 #
coedge $-1 -1 $-1 $123 $59 $124 $125 forward $39 $-1 #
coedge $-1 -1 $-1 $59 $123 $126 $127 reversed $39 $-1 #
coedge $-1 -1 $-1 $128 $129 $59 $88 forward $130 $-1 #
edge $-1 -1 $-1 $131 -0.78539816339744895 $132 0.78539816339744772 $87 $133 forward @7 unknown #
model_id-kcp-attrib $-1 -1 $-1 $-1 $60 1 1021323868 1021323868 1760165890 3 #
face $-1 -1 $-1 $134 $135 $21 $-1 $136 reversed single #
loop $-1 -1 $-1 $-1 $137 $60 #
plane-surface $-1 -1 $-1 0 -0.016499999999999737 0 0 1 0 0 0 1 forward_v I I I I #
coedge $-1 -1 $-1 $138 $139 $140 $141 forward $61 $-1 #
coedge $-1 -1 $-1 $142 $63 $143 $144 forward $42 $-1 #
coedge $-1 -1 $-1 $63 $142 $145 $146 forward $42 $-1 #
coedge $-1 -1 $-1 $147 $148 $63 $97 reversed $149 $-1 #
edge $-1 -1 $-1 $150 -0.016499999999999737 $151 0.016499999999999737 $96 $152 forward @7 unknown #
loop $-1 -1 $-1 $-1 $153 $64 #
plane-surface $-1 -1 $-1 0 0 0.016499999999999737 0 0 1 1 0 0 forward_v I I I I #
coedge $-1 -1 $-1 $100 $100 $68 $102 forward $65 $-1 #
coedge $-1 -1 $-1 $101 $101 $153 $154 reversed $67 $-1 #
edge $-1 -1 $-1 $155 0 $155 6.2831853071795862 $100 $156 forward @7 unknown #
model_id-kcp-attrib $-1 -1 $-1 $-1 $70 1 1021323868 1021323868 1760165889 11 #
loop $-1 -1 $-1 $-1 $105 $48 #
coedge $-1 -1 $-1 $105 $105 $74 $106 forward $104 $-1 #
edge $-1 -1 $-1 $157 -6.1514237822913313e-016 $157 6.2831853071795853 $105 $158 forward @7 unknown #
attrib_edge_convexity-kcp-attrib $-1 -1 $159 $-1 $76 1 #
vertex $-1 -1 $-1 $76 $160 #
ellipse-curve $-1 -1 $-1 0 -4.3420000000000005 7.1353999999999997 0 1 0 0.19869700551341982 0 -0.19869700551341982 1 I I #
attrib_edge_convexity-kcp-attrib $-1 -1 $161 $-1 $78 1 #
vertex $162 -1 $-1 $78 $163 #
ellipse-curve $-1 -1 $-1 0 -4.375 7.1354000000389215 0 1 0 -0.13258252147247768 0 -0.13258252147247768 1 I I #
convexity-sys-attrib $-1 -1 $-1 $79 $56 #
model_id-kcp-attrib $-1 -1 $-1 $-1 $80 1 1021323868 1021323868 1760165889 12 #
point $-1 -1 $-1 0.13258252147247862 -4.3420000000000005 7.2679825215113985 #
face $-1 -1 $-1 $164 $165 $20 $-1 $166 forward single #
loop $-1 -1 $-1 $-1 $167 $82 #
coedge $-1 -1 $-1 $168 $169 $167 $170 forward $83 $-1 #
coedge $-1 -1 $-1 $171 $84 $172 $173 reversed $58 $-1 #
coedge $-1 -1 $-1 $84 $171 $86 $127 forward $58 $-1 #
coedge $-1 -1 $-1 $174 $175 $84 $122 forward $176 $-1 #
edge $-1 -1 $-1 $177 -2.3561944901923444 $178 -0.78539816339744772 $121 $179 forward @7 unknown #
coedge $-1 -1 $-1 $86 $85 $180 $181 reversed $39 $-1 #
coedge $-1 -1 $-1 $169 $168 $182 $125 reversed $83 $-1 #
edge $-1 -1 $-1 $131 -0.032999999999999474 $183 0 $182 $184 forward @7 unknown #
coedge $-1 -1 $-1 $185 $186 $187 $127 forward $188 $-1 #
edge $-1 -1 $-1 $132 -0.032999999999999474 $178 0 $126 $189 forward @7 unknown #
coedge $-1 -1 $-1 $129 $87 $186 $190 reversed $130 $-1 #
coedge $-1 -1 $-1 $87 $128 $191 $192 forward $130 $-1 #
loop $-1 -1 $-1 $-1 $87 $193 #
vertex $-1 -1 $-1 $194 $195 #
vertex $-1 -1 $-1 $196 $197 #
ellipse-curve $-1 -1 $-1 2.7755575615628926e-017 -0.016499999999999737 0 0 1 0 -0.19869700551341971 0 0.19869700551341996 1 I I #
face $198 -1 $-1 $199 $200 $21 $-1 $201 reversed single #
loop $-1 -1 $-1 $-1 $202 $90 #
plane-surface $-1 -1 $-1 -0.28099999999999992 0 0 1 0 0 0 0 -1 forward_v I I I I #
coedge $-1 -1 $-1 $203 $145 $204 $205 forward $91 $-1 #
coedge $-1 -1 $-1 $206 $93 $203 $207 forward $61 $-1 #
coedge $-1 -1 $-1 $93 $206 $208 $209 forward $61 $-1 #
coedge $-1 -1 $-1 $148 $147 $93 $141 reversed $149 $-1 #
edge $-1 -1 $-1 $210 -0.016499999999999737 $211 0.016499999999999737 $140 $212 forward @7 unknown #
coedge $-1 -1 $-1 $95 $94 $213 $214 forward $42 $-1 #
coedge $-1 -1 $-1 $215 $216 $94 $144 reversed $200 $-1 #
edge $-1 -1 $-1 $151 -0.28099999999999992 $217 0.28099999999999992 $143 $218 forward @7 unknown #
coedge $-1 -1 $-1 $137 $219 $95 $146 reversed $91 $-1 #
edge $-1 -1 $-1 $220 -0.28099999999999992 $150 0.28099999999999992 $145 $221 forward @7 unknown #
coedge $-1 -1 $-1 $140 $96 $219 $222 forward $149 $-1 #
coedge $-1 -1 $-1 $96 $140 $215 $223 reversed $149 $-1 #
loop $-1 -1 $-1 $-1 $147 $199 #
vertex $-1 -1 $-1 $97 $224 #
vertex $-1 -1 $-1 $97 $225 #
straight-curve $-1 -1 $-1 0.28099999999999992 0 0.28100000000000058 0 1 0 I I #
coedge $-1 -1 $-1 $153 $153 $101 $154 forward $98 $-1 #
edge $-1 -1 $-1 $226 0 $226 6.2831853071795862 $153 $227 forward @7 unknown #
vertex $-1 -1 $-1 $102 $228 #
ellipse-curve $-1 -1 $-1 0 0 -0.016499999999999737 0 0 -1 0.18750000000000003 0 0 1 I I #
vertex $-1 -1 $-1 $106 $229 #
ellipse-curve $-1 -1 $-1 0 -4.375 7.1353999999999997 0 -1 0 0.19869700551341982 0 -0.19869700551341982 1 I I #
convexity-sys-attrib $-1 -1 $-1 $107 $76 #
point $-1 -1 $-1 0.19869700551341982 -4.3420000000000005 6.9367029944865797 #
convexity-sys-attrib $-1 -1 $-1 $110 $78 #
model_id-kcp-attrib $-1 -1 $-1 $-1 $111 1 1021323868 1021323868 1760165889 13 #
point $-1 -1 $-1 0.13258252147247676 -4.375 7.2679825215114002 #
face $-1 -1 $-1 $230 $231 $20 $-1 $232 reversed single #
loop $-1 -1 $-1 $-1 $187 $116 #
plane-surface $-1 -1 $-1 0 0 0.28100000000000058 0 0 1 1 0 0 forward_v I I I I #
coedge $-1 -1 $-1 $233 $234 $235 $170 reversed $117 $-1 #
coedge $-1 -1 $-1 $124 $118 $236 $237 reversed $83 $-1 #
coedge $-1 -1 $-1 $118 $124 $238 $239 reversed $83 $-1 #
edge $-1 -1 $-1 $240 -0.032999999999999474 $241 0 $235 $242 forward @7 unknown #
coedge $-1 -1 $-1 $120 $119 $243 $244 reversed $58 $-1 #
coedge $-1 -1 $-1 $245 $246 $247 $173 forward $231 $-1 #
edge $-1 -1 $-1 $248 -0.032999999999999474 $177 0 $172 $249 forward @7 unknown #
coedge $-1 -1 $-1 $175 $121 $250 $251 reversed $176 $-1 #
coedge $-1 -1 $-1 $121 $174 $245 $252 forward $176 $-1 #
loop $-1 -1 $-1 $-1 $121 $253 #
vertex $-1 -1 $-1 $254 $255 #
vertex $-1 -1 $-1 $256 $257 #
ellipse-curve $-1 -1 $-1 2.7755575615628926e-017 0.016499999999999737 0 0 -1 0 -0.19869700551341971 0 0.19869700551341996 1 I I #
coedge $-1 -1 $-1 $258 $259 $123 $181 forward $260 $-1 #
edge $-1 -1 $-1 $178 -0.78539816339744772 $183 0.78539816339744895 $180 $179 forward @7 unknown #
coedge $-1 -1 $-1 $261 $262 $263 $125 forward $264 $-1 #
vertex $-1 -1 $-1 $265 $266 #
straight-curve $-1 -1 $-1 -0.28099999999999992 0.016499999999999737 0 0 1 0 I I #
coedge $-1 -1 $-1 $267 $126 $259 $256 forward $188 $-1 #
coedge $-1 -1 $-1 $126 $267 $128 $190 forward $188 $-1 #
coedge $-1 -1 $-1 $268 $250 $120 $127 reversed $165 $-1 #
loop $-1 -1 $-1 $-1 $126 $269 #
straight-curve $-1 -1 $-1 2.7755575615628926e-017 0.016499999999999737 0.28100000000000058 0 1 0 I I #
edge $-1 -1 $-1 $270 -0.28099999999999992 $132 2.7755575615628926e-017 $128 $271 forward @7 unknown #
coedge $-1 -1 $-1 $272 $263 $129 $192 reversed $273 $-1 #
edge $-1 -1 $-1 $270 -0.28100000000000058 $131 0 $191 $274 forward @7 unknown #
face $-1 -1 $-1 $275 $130 $20 $-1 $276 reversed single #
edge $-1 -1 $-1 $131 0 $277 0.28100000000000058 $262 $274 forward @7 unknown #
point $-1 -1 $-1 -0.28099999999999992 -0.016499999999999737 0 #
edge $-1 -1 $-1 $132 2.7755575615628926e-017 $278 0.28099999999999992 $279 $271 forward @7 unknown #
point $-1 -1 $-1 2.7755575615628926e-017 -0.016499999999999737 0.28100000000000058 #
model_id-kcp-attrib $-1 -1 $-1 $-1 $134 1 1021323868 1021323868 1760165890 2 #
face $-1 -1 $-1 $-1 $149 $21 $-1 $280 reversed single #
loop $-1 -1 $-1 $-1 $215 $134 #
plane-surface $-1 -1 $-1 0 0.016499999999999737 0 0 -1 0 0 0 -1 forward_v I I I I #
coedge $-1 -1 $-1 $281 $213 $216 $282 forward $135 $-1 #
coedge $-1 -1 $-1 $219 $137 $138 $207 reversed $91 $-1 #
coedge $-1 -1 $-1 $213 $281 $137 $205 reversed $135 $-1 #
edge $-1 -1 $-1 $220 -0.28100000000000058 $283 0.28100000000000058 $204 $284 forward @7 unknown #
coedge $-1 -1 $-1 $139 $138 $281 $285 forward $61 $-1 #
edge $-1 -1 $-1 $211 -0.28099999999999992 $283 0.28099999999999992 $203 $286 forward @7 unknown #
coedge $-1 -1 $-1 $216 $215 $139 $209 reversed $200 $-1 #
edge $-1 -1 $-1 $287 -0.28099999999999992 $210 0.28099999999999992 $208 $288 forward @7 unknown #
vertex $-1 -1 $-1 $141 $289 #
vertex $-1 -1 $-1 $222 $290 #
straight-curve $-1 -1 $-1 0.28099999999999992 0 -0.28100000000000058 0 -1 0 I I #
coedge $-1 -1 $-1 $202 $204 $142 $214 reversed $135 $-1 #
edge $-1 -1 $-1 $217 -0.016499999999999737 $220 0.016499999999999737 $213 $291 forward @7 unknown #
coedge $-1 -1 $-1 $208 $143 $148 $223 forward $200 $-1 #
coedge $-1 -1 $-1 $143 $208 $202 $282 reversed $200 $-1 #
vertex $-1 -1 $-1 $144 $292 #
straight-curve $-1 -1 $-1 0 0.016499999999999737 0.28100000000000058 -1 0 0 I I #
coedge $-1 -1 $-1 $145 $203 $147 $222 reversed $91 $-1 #
vertex $-1 -1 $-1 $214 $293 #
straight-curve $-1 -1 $-1 0 -0.016499999999999737 0.28100000000000058 1 0 0 I I #
edge $-1 -1 $-1 $150 -0.28100000000000058 $211 0.28100000000000058 $147 $294 forward @7 unknown #
edge $-1 -1 $-1 $151 -0.28100000000000058 $210 0.28100000000000058 $148 $295 forward @7 unknown #
point $-1 -1 $-1 0.28099999999999992 -0.016499999999999737 0.28100000000000058 #
point $-1 -1 $-1 0.28099999999999992 0.016499999999999737 0.28100000000000058 #
vertex $-1 -1 $-1 $154 $296 #
ellipse-curve $-1 -1 $-1 0 0 0.016499999999999737 0 0 1 0.18750000000000003 0 0 1 I I #
point $-1 -1 $-1 0.18750000000000003 0 -0.016499999999999737 #
point $-1 -1 $-1 0.19869700551341982 -4.375 6.9367029944865797 #
face $-1 -1 $-1 $297 $273 $20 $-1 $298 reversed single #
loop $-1 -1 $-1 $-1 $172 $164 #
plane-surface $-1 -1 $-1 0.28099999999999992 0 0 -1 0 0 0 0 1 forward_v I I I I #
coedge $-1 -1 $-1 $299 $167 $300 $301 reversed $117 $-1 #
coedge $-1 -1 $-1 $167 $299 $302 $303 reversed $117 $-1 #
coedge $-1 -1 $-1 $304 $305 $306 $170 forward $307 $-1 #
coedge $-1 -1 $-1 $308 $309 $168 $237 forward $310 $-1 #
edge $-1 -1 $-1 $183 0.78539816339744895 $241 2.3561944901923457 $236 $179 forward @7 unknown #
coedge $-1 -1 $-1 $311 $312 $169 $239 forward $313 $-1 #
edge $-1 -1 $-1 $240 -2.3561944901923457 $131 -0.78539816339744895 $238 $133 forward @7 unknown #
vertex $-1 -1 $-1 $314 $315 #
vertex $-1 -1 $-1 $316 $317 #
straight-curve $-1 -1 $-1 2.7755575615628926e-017 0.016499999999999737 -0.28100000000000058 0 1 0 I I #
coedge $-1 -1 $-1 $318 $279 $171 $244 forward $319 $-1 #
edge $-1 -1 $-1 $132 0.78539816339744772 $248 2.3561944901923444 $243 $133 forward @7 unknown #
coedge $-1 -1 $-1 $320 $172 $175 $252 reversed $231 $-1 #
coedge $-1 -1 $-1 $172 $320 $318 $321 forward $231 $-1 #
coedge $-1 -1 $-1 $322 $323 $299 $173 reversed $324 $-1 #
vertex $-1 -1 $-1 $325 $326 #
straight-curve $-1 -1 $-1 0.28099999999999992 0.016499999999999737 0 0 1 0 I I #
coedge $-1 -1 $-1 $187 $327 $174 $251 forward $165 $-1 #
edge $-1 -1 $-1 $328 -0.28099999999999992 $178 -2.7755575615628926e-017 $174 $329 forward @7 unknown #
edge $-1 -1 $-1 $328 -0.28100000000000058 $177 0 $245 $330 forward @7 unknown #
face $-1 -1 $-1 $331 $176 $20 $-1 $332 reversed single #
edge $-1 -1 $-1 $177 0 $333 0.28100000000000058 $323 $330 forward @7 unknown #
point $-1 -1 $-1 0.28099999999999992 0.016499999999999737 0 #
edge $-1 -1 $-1 $178 -2.7755575615628926e-017 $334 0.28099999999999992 $259 $329 forward @7 unknown #
point $-1 -1 $-1 2.7755575615628926e-017 0.016499999999999737 0.28100000000000058 #
coedge $-1 -1 $-1 $259 $180 $335 $336 reversed $260 $-1 #
coedge $-1 -1 $-1 $180 $258 $185 $256 reversed $260 $-1 #
loop $-1 -1 $-1 $-1 $180 $331 #
coedge $-1 -1 $-1 $337 $182 $309 $265 forward $264 $-1 #
coedge $-1 -1 $-1 $182 $337 $311 $194 reversed $264 $-1 #
coedge $-1 -1 $-1 $191 $335 $85 $125 reversed $273 $-1 #
loop $-1 -1 $-1 $-1 $182 $338 #
edge $-1 -1 $-1 $183 0 $339 0.28100000000000058 $309 $340 forward @7 unknown #
point $-1 -1 $-1 -0.28099999999999992 0.016499999999999737 0 #
coedge $-1 -1 $-1 $186 $185 $272 $341 forward $188 $-1 #
coedge $-1 -1 $-1 $327 $187 $279 $196 forward $165 $-1 #
face $-1 -1 $-1 $342 $188 $20 $-1 $166 forward single #
vertex $-1 -1 $-1 $341 $343 #
straight-curve $-1 -1 $-1 0 -0.016499999999999737 0.28100000000000058 1 0 0 I I #
coedge $-1 -1 $-1 $335 $191 $267 $341 reversed $273 $-1 #
loop $-1 -1 $-1 $-1 $263 $230 #
straight-curve $-1 -1 $-1 -0.28099999999999992 -0.016499999999999737 0 0 0 -1 I I #
face $-1 -1 $-1 $344 $319 $20 $-1 $276 reversed single #
plane-surface $-1 -1 $-1 0 -0.016499999999999737 0 0 1 0 0 0 1 forward_v I I I I #
vertex $-1 -1 $-1 $345 $346 #
vertex $-1 -1 $-1 $347 $348 #
coedge $-1 -1 $-1 $243 $318 $268 $196 reversed $319 $-1 #
plane-surface $-1 -1 $-1 0.28099999999999992 0 0 -1 0 0 0 0 1 forward_v I I I I #
coedge $-1 -1 $-1 $204 $202 $206 $285 reversed $135 $-1 #
edge $-1 -1 $-1 $217 -0.28100000000000058 $287 0.28100000000000058 $216 $349 forward @7 unknown #
vertex $-1 -1 $-1 $285 $350 #
straight-curve $-1 -1 $-1 -0.28099999999999992 -0.016499999999999737 0 0 0 -1 I I #
edge $-1 -1 $-1 $283 -0.016499999999999737 $287 0.016499999999999737 $281 $351 forward @7 unknown #
straight-curve $-1 -1 $-1 0 -0.016499999999999737 -0.28100000000000058 -1 0 0 I I #
vertex $-1 -1 $-1 $209 $352 #
straight-curve $-1 -1 $-1 0 0.016499999999999737 -0.28100000000000058 1 0 0 I I #
point $-1 -1 $-1 0.28099999999999992 0.016499999999999737 -0.28100000000000058 #
point $-1 -1 $-1 0.28099999999999992 -0.016499999999999737 -0.28100000000000058 #
straight-curve $-1 -1 $-1 -0.28099999999999992 0 0.28100000000000058 0 -1 0 I I #
point $-1 -1 $-1 -0.28099999999999992 0.016499999999999737 0.28100000000000058 #
point $-1 -1 $-1 -0.28099999999999992 -0.016499999999999737 0.28100000000000058 #
straight-curve $-1 -1 $-1 0.28099999999999992 -0.016499999999999737 0 0 0 -1 I I #
straight-curve $-1 -1 $-1 0.28099999999999992 0.016499999999999737 0 0 0 -1 I I #
point $-1 -1 $-1 0.18750000000000003 0 0.016499999999999737 #
face $-1 -1 $-1 $253 $353 $20 $-1 $332 reversed single #
plane-surface $-1 -1 $-1 -0.28099999999999992 0 0 1 0 0 0 0 -1 forward_v I I I I #
coedge $-1 -1 $-1 $234 $233 $119 $173 forward $117 $-1 #
coedge $-1 -1 $-1 $354 $355 $233 $301 forward $356 $-1 #
edge $-1 -1 $-1 $248 2.3561944901923444 $240 3.9269908169872405 $300 $133 forward @7 unknown #
coedge $-1 -1 $-1 $357 $358 $234 $303 forward $353 $-1 #
edge $-1 -1 $-1 $241 2.3561944901923457 $177 3.9269908169872418 $302 $179 forward @7 unknown #
coedge $-1 -1 $-1 $359 $235 $358 $316 forward $307 $-1 #
coedge $-1 -1 $-1 $235 $359 $354 $360 forward $307 $-1 #
coedge $-1 -1 $-1 $361 $362 $118 $170 reversed $363 $-1 #
loop $-1 -1 $-1 $-1 $235 $342 #
coedge $-1 -1 $-1 $309 $236 $362 $364 reversed $310 $-1 #
coedge $-1 -1 $-1 $236 $308 $261 $265 reversed $310 $-1 #
loop $-1 -1 $-1 $-1 $236 $365 #
coedge $-1 -1 $-1 $312 $238 $262 $194 forward $313 $-1 #
coedge $-1 -1 $-1 $238 $311 $361 $314 reversed $313 $-1 #
loop $-1 -1 $-1 $-1 $238 $366 #
edge $-1 -1 $-1 $240 -2.7755575615628926e-017 $277 0.28099999999999992 $312 $367 forward @7 unknown #
point $-1 -1 $-1 2.7755575615628926e-017 -0.016499999999999737 -0.28100000000000058 #
edge $-1 -1 $-1 $241 2.7755575615628926e-017 $333 0.28099999999999992 $358 $368 forward @7 unknown #
point $-1 -1 $-1 2.7755575615628926e-017 0.016499999999999737 -0.28100000000000058 #
coedge $-1 -1 $-1 $279 $243 $246 $321 reversed $319 $-1 #
loop $-1 -1 $-1 $-1 $243 $275 #
coedge $-1 -1 $-1 $246 $245 $327 $347 reversed $231 $-1 #
edge $-1 -1 $-1 $278 -0.28100000000000058 $248 0 $246 $369 forward @7 unknown #
coedge $-1 -1 $-1 $370 $247 $355 $325 forward $324 $-1 #
coedge $-1 -1 $-1 $247 $370 $357 $254 reversed $324 $-1 #
loop $-1 -1 $-1 $-1 $247 $371 #
edge $-1 -1 $-1 $248 0 $372 0.28100000000000058 $322 $369 forward @7 unknown #
point $-1 -1 $-1 0.28099999999999992 -0.016499999999999737 0 #
coedge $-1 -1 $-1 $250 $268 $320 $347 forward $165 $-1 #
vertex $-1 -1 $-1 $347 $373 #
straight-curve $-1 -1 $-1 0 0.016499999999999737 0.28100000000000058 -1 0 0 I I #
straight-curve $-1 -1 $-1 0.28099999999999992 0.016499999999999737 0 0 0 -1 I I #
face $-1 -1 $-1 $365 $260 $20 $-1 $332 reversed single #
plane-surface $-1 -1 $-1 0 0.016499999999999737 0 0 -1 0 0 0 -1 forward_v I I I I #
vertex $-1 -1 $-1 $374 $375 #
vertex $-1 -1 $-1 $256 $376 #
coedge $-1 -1 $-1 $263 $272 $258 $336 forward $273 $-1 #
edge $-1 -1 $-1 $334 -0.28100000000000058 $183 0 $258 $340 forward @7 unknown #
coedge $-1 -1 $-1 $262 $261 $377 $345 reversed $264 $-1 #
face $-1 -1 $-1 $371 $264 $20 $-1 $298 reversed single #
vertex $-1 -1 $-1 $364 $378 #
straight-curve $-1 -1 $-1 -0.28099999999999992 0.016499999999999737 0 0 0 -1 I I #
edge $-1 -1 $-1 $334 -0.016499999999999737 $270 0.016499999999999737 $272 $379 forward @7 unknown #
face $-1 -1 $-1 $338 $307 $20 $-1 $380 reversed single #
point $-1 -1 $-1 -0.28099999999999992 -0.016499999999999737 0.28100000000000058 #
face $-1 -1 $-1 $381 $356 $20 $-1 $276 reversed single #
edge $-1 -1 $-1 $277 -0.016499999999999737 $339 0.016499999999999737 $337 $382 forward @7 unknown #
point $-1 -1 $-1 -0.28099999999999992 -0.016499999999999737 -0.28100000000000058 #
edge $-1 -1 $-1 $278 -0.016499999999999737 $328 0.016499999999999737 $320 $383 forward @7 unknown #
point $-1 -1 $-1 0.28099999999999992 -0.016499999999999737 0.28100000000000058 #
straight-curve $-1 -1 $-1 -0.28099999999999992 0.016499999999999737 0 0 0 -1 I I #
point $-1 -1 $-1 -0.28099999999999992 -0.016499999999999737 -0.28100000000000058 #
straight-curve $-1 -1 $-1 -0.28099999999999992 0 -0.28100000000000058 0 1 0 I I #
point $-1 -1 $-1 -0.28099999999999992 0.016499999999999737 -0.28100000000000058 #
loop $-1 -1 $-1 $-1 $302 $297 #
coedge $-1 -1 $-1 $355 $300 $305 $360 reversed $356 $-1 #
coedge $-1 -1 $-1 $300 $354 $322 $325 reversed $356 $-1 #
loop $-1 -1 $-1 $-1 $300 $344 #
coedge $-1 -1 $-1 $358 $302 $323 $254 forward $353 $-1 #
coedge $-1 -1 $-1 $302 $357 $304 $316 reversed $353 $-1 #
coedge $-1 -1 $-1 $305 $304 $370 $374 forward $307 $-1 #
edge $-1 -1 $-1 $372 -0.28099999999999992 $240 -2.7755575615628926e-017 $354 $367 forward @7 unknown #
coedge $-1 -1 $-1 $377 $306 $312 $314 forward $363 $-1 #
coedge $-1 -1 $-1 $306 $377 $308 $364 forward $363 $-1 #
loop $-1 -1 $-1 $-1 $306 $381 #
edge $-1 -1 $-1 $339 -0.28099999999999992 $241 2.7755575615628926e-017 $308 $368 forward @7 unknown #
face $-1 -1 $-1 $366 $310 $20 $-1 $332 reversed single #
face $-1 -1 $-1 $193 $313 $20 $-1 $276 reversed single #
straight-curve $-1 -1 $-1 0 -0.016499999999999737 -0.28100000000000058 -1 0 0 I I #
straight-curve $-1 -1 $-1 0 0.016499999999999737 -0.28100000000000058 1 0 0 I I #
straight-curve $-1 -1 $-1 0.28099999999999992 -0.016499999999999737 0 0 0 -1 I I #
coedge $-1 -1 $-1 $323 $322 $359 $374 reversed $324 $-1 #
face $-1 -1 $-1 $-1 $324 $20 $-1 $232 reversed single #
vertex $-1 -1 $-1 $325 $384 #
point $-1 -1 $-1 0.28099999999999992 0.016499999999999737 0.28100000000000058 #
edge $-1 -1 $-1 $333 -0.016499999999999737 $372 0.016499999999999737 $370 $385 forward @7 unknown #
point $-1 -1 $-1 0.28099999999999992 0.016499999999999737 -0.28100000000000058 #
point $-1 -1 $-1 -0.28099999999999992 0.016499999999999737 0.28100000000000058 #
coedge $-1 -1 $-1 $362 $361 $337 $345 forward $363 $-1 #
point $-1 -1 $-1 -0.28099999999999992 0.016499999999999737 -0.28100000000000058 #
straight-curve $-1 -1 $-1 -0.28099999999999992 0 0.28100000000000058 0 -1 0 I I #
plane-surface $-1 -1 $-1 0 0 -0.28100000000000058 0 0 1 1 0 0 forward_v I I I I #
face $-1 -1 $-1 $269 $363 $20 $-1 $380 reversed single #
straight-curve $-1 -1 $-1 -0.28099999999999992 0 -0.28100000000000058 0 1 0 I I #
straight-curve $-1 -1 $-1 0.28099999999999992 0 0.28100000000000058 0 1 0 I I #
point $-1 -1 $-1 0.28099999999999992 -0.016499999999999737 -0.28100000000000058 #
straight-curve $-1 -1 $-1 0.28099999999999992 0 -0.28100000000000058 0 -1 0 I I #
End-of-ACIS-data 