700 0 2 0           
24 FBMach with ACIS - 7.0.3 13 ACIS 7.0.3 NT 24 Mon May 13 17:05:30 2002 
1 9.9999999999999995e-007 1e-010 
body $2 -1 $-1 $3 $-1 $4 #
bdycol-kcp $-1 -1 1 4 $5 $6 $7 $8 #
model_id-kcp-attrib $-1 -1 $-1 $-1 $0 1 1021323929 1021323929 1019740161 1 #
lump $-1 -1 $-1 $-1 $9 $0 #
transform $-1 -1 1 0 0 0 1 0 0 0 1 0 0 0 1 rotate no_reflect no_shear #
body $10 -1 $-1 $11 $-1 $12 #
body $13 -1 $-1 $14 $-1 $15 #
body $16 -1 $-1 $17 $-1 $18 #
body $19 -1 $-1 $20 $-1 $21 #
shell $-1 -1 $-1 $-1 $-1 $22 $-1 $3 #
rgb_color-st-attrib $-1 -1 $23 $-1 $5 0.5 1 1 #
lump $-1 -1 $-1 $-1 $24 $5 #
transform $-1 -1 1 0 0 0 1 0 0 0 1 -3.0051999999999999 4.9924999999999997 4.1302000000000003 1 no_rotate no_reflect no_shear #
rgb_color-st-attrib $-1 -1 $25 $-1 $6 1 0.5 1 #
lump $-1 -1 $-1 $-1 $26 $6 #
transform $-1 -1 1 0 0 0 1 0 0 0 1 -3.0051999999999999 4.9924999999999997 4.1302000000000003 1 no_rotate no_reflect no_shear #
model_id-kcp-attrib $-1 -1 $-1 $-1 $7 1 1021323929 1021323929 1019740162 1 #
lump $-1 -1 $-1 $-1 $27 $7 #
transform $-1 -1 1 0 0 0 1 0 0 0 1 -3.0051999999999999 4.9924999999999997 4.1302000000000003 1 no_rotate no_reflect no_shear #
rgb_color-st-attrib $-1 -1 $28 $-1 $8 0.5 1 1 #
lump $-1 -1 $-1 $-1 $29 $8 #
transform $-1 -1 1 0 0 0 -3.8285889215894375e-016 -1 0 1 -3.8285889215894375e-016 -3.0051999999999999 4.9924999999999997 4.1302000000000003 1 rotate no_reflect no_shear #
face $30 -1 $-1 $31 $32 $9 $-1 $33 forward single #
model_id-kcp-attrib $-1 -1 $-1 $10 $5 1 1021323929 1021323929 1008861188 1 #
shell $-1 -1 $-1 $-1 $-1 $34 $-1 $11 #
model_id-kcp-attrib $-1 -1 $-1 $13 $6 1 1021323929 1021323929 1016070149 1 #
shell $-1 -1 $-1 $-1 $-1 $35 $-1 $14 #
shell $-1 -1 $-1 $-1 $-1 $36 $-1 $17 #
model_id-kcp-attrib $-1 -1 $-1 $19 $8 1 1021323929 1021323929 1021050883 1 #
shell $-1 -1 $-1 $-1 $-1 $37 $-1 $20 #
model_id-kcp-attrib $-1 -1 $-1 $-1 $22 1 1021323929 1021323929 1019740161 2 #
face $38 -1 $-1 $39 $40 $9 $-1 $41 reversed single #
loop $-1 -1 $-1 $42 $43 $22 #
plane-surface $-1 -1 $-1 -3.0051999999999999 5.0299999999999994 4.1302000000000003 0 1 0 0.70710678118654735 0 0.70710678118654735 forward_v I I I I #
face $-1 -1 $-1 $44 $45 $24 $-1 $46 reversed single #
face $-1 -1 $-1 $47 $48 $26 $-1 $49 forward single #
face $-1 -1 $-1 $50 $51 $27 $-1 $52 forward single #
face $-1 -1 $-1 $53 $54 $29 $-1 $55 forward single #
model_id-kcp-attrib $-1 -1 $-1 $-1 $31 1 1021323929 1021323929 1019740161 3 #
face $56 -1 $-1 $57 $58 $9 $-1 $59 reversed single #
loop $-1 -1 $-1 $60 $61 $31 #
plane-surface $-1 -1 $-1 -3.0051999999999999 4.9989999999999997 4.1302000000000003 0 1 0 0.70710678118654735 0 0.70710678118654735 forward_v I I I I #
loop $62 -1 $-1 $-1 $63 $22 #
coedge $-1 -1 $-1 $43 $43 $64 $65 forward $32 $-1 #
face $-1 -1 $-1 $66 $67 $24 $-1 $46 reversed single #
loop $-1 -1 $-1 $-1 $68 $34 #
cone-surface $-1 -1 $-1 0 0.037499999999999645 0 0 1 0 -0.19869700551341979 0 -0.19869700551341984 1 I I 0 1 0.28099999999999997 forward I I I I #
face $-1 -1 $-1 $69 $70 $26 $-1 $71 forward single #
loop $-1 -1 $-1 $72 $73 $35 #
cone-surface $-1 -1 $-1 0 0.0065000000000002833 0 0 -1 0 -0.13258252147247762 0 -0.13258252147247762 1 I I 0 -1 0.18749999999999994 forward I I I I #
face $-1 -1 $-1 $74 $75 $27 $-1 $76 reversed single #
loop $-1 -1 $-1 $-1 $77 $36 #
plane-surface $-1 -1 $-1 0 0 0.28100000000000014 0 0 1 1 0 0 forward_v I I I I #
face $-1 -1 $-1 $78 $79 $29 $-1 $80 forward single #
loop $-1 -1 $-1 $81 $82 $37 #
cone-surface $-1 -1 $-1 0 0 0 0 0 1 0.12499999999999997 0 0 1 I I 0 1 0.12499999999999997 forward I I I I #
model_id-kcp-attrib $-1 -1 $-1 $-1 $39 1 1021323929 1021323929 1019740161 4 #
face $83 -1 $-1 $84 $85 $9 $-1 $86 reversed single #
loop $87 -1 $-1 $88 $89 $39 #
plane-surface $-1 -1 $-1 -3.0051999999999999 4.9550000000000001 4.1302000000000003 0 1 0 0.70710678118654735 0 0.70710678118654735 forward_v I I I I #
loop $-1 -1 $-1 $-1 $90 $31 #
coedge $-1 -1 $-1 $61 $61 $91 $92 forward $40 $-1 #
model_id-kcp-attrib $-1 -1 $-1 $-1 $42 1 1021323929 1021323929 1019740161 12 #
coedge $-1 -1 $-1 $63 $63 $93 $94 forward $42 $-1 #
coedge $-1 -1 $-1 $64 $64 $43 $65 reversed $95 $-1 #
edge $96 -1 $-1 $97 -1.1424072738541052e-015 $97 6.2831853071795853 $64 $98 forward @7 unknown #
face $-1 -1 $-1 $99 $100 $24 $-1 $46 reversed single #
loop $-1 -1 $-1 $-1 $101 $44 #
coedge $-1 -1 $-1 $102 $103 $104 $105 reversed $45 $-1 #
face $-1 -1 $-1 $106 $107 $26 $-1 $108 reversed single #
loop $-1 -1 $-1 $109 $110 $47 #
cone-surface $-1 -1 $-1 0 0.0065000000000002833 0 0 -1 0 -0.19869700551341979 0 -0.19869700551341984 1 I I 0 1 0.28099999999999997 forward I I I I #
loop $-1 -1 $-1 $-1 $111 $35 #
coedge $-1 -1 $-1 $73 $73 $112 $113 forward $48 $-1 #
face $114 -1 $-1 $115 $116 $27 $-1 $117 reversed single #
loop $-1 -1 $-1 $-1 $118 $50 #
plane-surface $-1 -1 $-1 0 0 -0.28100000000000014 0 0 1 1 0 0 forward_v I I I I #
coedge $-1 -1 $-1 $119 $120 $121 $122 forward $51 $-1 #
face $-1 -1 $-1 $-1 $123 $29 $-1 $124 forward single #
loop $-1 -1 $-1 $-1 $125 $53 #
plane-surface $-1 -1 $-1 0 0 -0.037499999999999645 0 0 -1 -1 0 0 forward_v I I I I #
loop $-1 -1 $-1 $-1 $126 $37 #
coedge $-1 -1 $-1 $82 $82 $125 $127 reversed $54 $-1 #
model_id-kcp-attrib $-1 -1 $-1 $-1 $57 1 1021323929 1021323929 1019740161 5 #
face $128 -1 $-1 $129 $130 $9 $-1 $131 forward single #
loop $132 -1 $-1 $133 $93 $57 #
cone-surface $-1 -1 $-1 -3.0051999999999999 4.9512499999999999 4.1302000000000003 0 1 0 -0.088388347648318419 0 -0.088388347648318419 1 I I 0 1 0.12499999999999999 forward I I I I #
model_id-kcp-attrib $-1 -1 $-1 $-1 $58 1 1021323929 1021323929 1019740161 13 #
loop $-1 -1 $-1 $-1 $134 $39 #
coedge $-1 -1 $-1 $89 $89 $135 $136 forward $58 $-1 #
coedge $-1 -1 $-1 $90 $90 $137 $138 forward $60 $-1 #
coedge $-1 -1 $-1 $91 $91 $61 $92 reversed $139 $-1 #
edge $140 -1 $-1 $141 -1.6776703483224601e-015 $141 6.2831853071795845 $91 $142 forward @7 unknown #
coedge $-1 -1 $-1 $93 $93 $63 $94 reversed $85 $-1 #
edge $143 -1 $-1 $144 -3.1415926535897931 $144 3.1415926535897931 $63 $145 forward @7 unknown #
loop $-1 -1 $-1 $-1 $64 $84 #
attrib_edge_convexity-kcp-attrib $-1 -1 $146 $-1 $65 1 #
vertex $-1 -1 $-1 $65 $147 #
ellipse-curve $-1 -1 $-1 -3.0051999999999999 5.0299999999999994 4.1302000000000003 0 1 0 0.19869700551341982 0 0.19869700551341982 1 I I #
face $-1 -1 $-1 $148 $149 $24 $-1 $46 reversed single #
loop $-1 -1 $-1 $-1 $150 $66 #
coedge $-1 -1 $-1 $151 $152 $153 $154 reversed $67 $-1 #
coedge $-1 -1 $-1 $155 $68 $156 $157 forward $45 $-1 #
coedge $-1 -1 $-1 $68 $155 $158 $159 reversed $45 $-1 #
coedge $-1 -1 $-1 $160 $161 $68 $105 forward $162 $-1 #
edge $-1 -1 $-1 $163 0.78539816339744839 $164 2.3561944901923448 $104 $165 forward @7 unknown #
face $-1 -1 $-1 $-1 $166 $26 $-1 $167 forward single #
loop $-1 -1 $-1 $168 $169 $69 #
plane-surface $-1 -1 $-1 0.015657918177037048 -0.037499999999999312 0.015657918177037069 0 1 0 0 0 1 forward_v I I I I #
loop $-1 -1 $-1 $-1 $170 $47 #
coedge $-1 -1 $-1 $110 $110 $169 $171 forward $70 $-1 #
coedge $-1 -1 $-1 $111 $111 $172 $173 reversed $72 $-1 #
coedge $-1 -1 $-1 $112 $112 $73 $113 reversed $168 $-1 #
edge $-1 -1 $-1 $174 -3.1415926535897913 $174 3.1415926535897949 $73 $175 forward @7 unknown #
model_id-kcp-attrib $-1 -1 $-1 $-1 $74 1 1021323929 1021323929 1019740162 3 #
face $-1 -1 $-1 $176 $177 $27 $-1 $178 reversed single #
loop $-1 -1 $-1 $-1 $179 $74 #
plane-surface $-1 -1 $-1 0 -0.037499999999999645 0 0 1 0 0 0 1 forward_v I I I I #
coedge $-1 -1 $-1 $180 $181 $182 $183 forward $75 $-1 #
coedge $-1 -1 $-1 $184 $77 $185 $186 forward $51 $-1 #
coedge $-1 -1 $-1 $77 $184 $187 $188 forward $51 $-1 #
coedge $-1 -1 $-1 $189 $190 $77 $122 reversed $191 $-1 #
edge $-1 -1 $-1 $192 -0.037499999999999645 $193 0.037499999999999645 $121 $194 forward @7 unknown #
loop $-1 -1 $-1 $-1 $195 $78 #
plane-surface $-1 -1 $-1 0 0 0.037499999999999645 0 0 1 1 0 0 forward_v I I I I #
coedge $-1 -1 $-1 $125 $125 $82 $127 forward $79 $-1 #
coedge $-1 -1 $-1 $126 $126 $195 $196 reversed $81 $-1 #
edge $-1 -1 $-1 $197 0 $197 6.2831853071795862 $125 $198 forward @7 unknown #
model_id-kcp-attrib $-1 -1 $-1 $-1 $84 1 1021323929 1021323929 1019740161 6 #
face $199 -1 $-1 $-1 $200 $9 $-1 $201 forward single #
loop $-1 -1 $-1 $95 $137 $84 #
cone-surface $-1 -1 $-1 -3.0051999999999999 4.9512499999999999 4.1302000000000003 0 1 0 -0.19869700551341982 0 -0.19869700551341982 1 I I 0 1 0.28099999999999997 forward I I I I #
model_id-kcp-attrib $-1 -1 $-1 $-1 $85 1 1021323929 1021323929 1019740161 10 #
loop $202 -1 $-1 $-1 $135 $57 #
coedge $-1 -1 $-1 $134 $134 $203 $204 forward $88 $-1 #
coedge $-1 -1 $-1 $135 $135 $89 $136 reversed $133 $-1 #
edge $205 -1 $-1 $206 -3.1415926535897931 $206 3.1415926535897931 $135 $207 forward @7 unknown #
coedge $-1 -1 $-1 $137 $137 $90 $138 reversed $130 $-1 #
edge $208 -1 $-1 $209 -3.1415926535897931 $209 3.1415926535897931 $90 $210 forward @7 unknown #
loop $-1 -1 $-1 $-1 $91 $129 #
attrib_edge_convexity-kcp-attrib $-1 -1 $211 $-1 $92 2 #
vertex $-1 -1 $-1 $92 $212 #
ellipse-curve $-1 -1 $-1 -3.0051999999999999 4.9989999999999997 4.1302000000000003 0 1 0 0.13258252147247762 0 0.13258252147247762 1 I I #
attrib_edge_convexity-kcp-attrib $-1 -1 $213 $-1 $94 1 #
vertex $214 -1 $-1 $94 $215 #
ellipse-curve $-1 -1 $-1 -3.0051999999999999 5.0299999999999994 4.1302000000000003 0 -1 0 0.088388347648318419 0 0.088388347648318419 1 I I #
convexity-sys-attrib $-1 -1 $-1 $96 $65 #
point $-1 -1 $-1 -2.8065029944865802 5.0299999999999994 4.3288970055134204 #
face $-1 -1 $-1 $216 $217 $24 $-1 $218 forward single #
loop $-1 -1 $-1 $-1 $219 $99 #
coedge $-1 -1 $-1 $220 $221 $219 $222 forward $100 $-1 #
coedge $-1 -1 $-1 $223 $101 $224 $225 reversed $67 $-1 #
coedge $-1 -1 $-1 $101 $223 $103 $159 forward $67 $-1 #
coedge $-1 -1 $-1 $226 $227 $101 $154 forward $228 $-1 #
edge $-1 -1 $-1 $229 2.3561944901923448 $230 3.9269908169872414 $153 $231 forward @7 unknown #
coedge $-1 -1 $-1 $103 $102 $232 $233 reversed $45 $-1 #
coedge $-1 -1 $-1 $221 $220 $234 $157 reversed $100 $-1 #
edge $-1 -1 $-1 $163 -0.074999999999999289 $235 0 $234 $236 forward @7 unknown #
coedge $-1 -1 $-1 $237 $238 $239 $159 forward $240 $-1 #
edge $-1 -1 $-1 $164 -0.074999999999999289 $230 0 $158 $241 forward @7 unknown #
coedge $-1 -1 $-1 $161 $104 $238 $242 reversed $162 $-1 #
coedge $-1 -1 $-1 $104 $160 $243 $244 forward $162 $-1 #
loop $-1 -1 $-1 $-1 $104 $245 #
vertex $-1 -1 $-1 $246 $247 #
vertex $-1 -1 $-1 $248 $249 #
ellipse-curve $-1 -1 $-1 0 -0.037499999999999645 0 0 1 0 -0.19869700551341979 0 -0.19869700551341984 1 I I #
loop $-1 -1 $-1 $250 $251 $106 #
plane-surface $-1 -1 $-1 0.015657918177037048 0.0065000000000002833 0.015657918177037069 0 1 0 0 0 1 forward_v I I I I #
loop $-1 -1 $-1 $-1 $112 $69 #
coedge $-1 -1 $-1 $169 $169 $110 $171 reversed $107 $-1 #
coedge $-1 -1 $-1 $170 $170 $251 $252 reversed $109 $-1 #
edge $-1 -1 $-1 $253 -3.1415926535897931 $253 3.1415926535897931 $110 $254 forward @7 unknown #
coedge $-1 -1 $-1 $172 $172 $111 $173 forward $250 $-1 #
edge $255 -1 $-1 $256 -3.1415926535897913 $256 3.1415926535897949 $111 $257 forward @7 unknown #
vertex $-1 -1 $-1 $113 $258 #
ellipse-curve $-1 -1 $-1 0 -0.037499999999999312 0 0 -1 0 -0.13258252147247762 0 -0.13258252147247762 1 I I #
face $259 -1 $-1 $260 $261 $27 $-1 $262 reversed single #
loop $-1 -1 $-1 $-1 $263 $115 #
plane-surface $-1 -1 $-1 -0.28099999999999969 0 0 1 0 0 0 0 -1 forward_v I I I I #
coedge $-1 -1 $-1 $264 $187 $265 $266 forward $116 $-1 #
coedge $-1 -1 $-1 $267 $118 $264 $268 forward $75 $-1 #
coedge $-1 -1 $-1 $118 $267 $269 $270 forward $75 $-1 #
coedge $-1 -1 $-1 $190 $189 $118 $183 reversed $191 $-1 #
edge $-1 -1 $-1 $271 -0.037499999999999645 $272 0.037499999999999645 $182 $273 forward @7 unknown #
coedge $-1 -1 $-1 $120 $119 $274 $275 forward $51 $-1 #
coedge $-1 -1 $-1 $276 $277 $119 $186 reversed $261 $-1 #
edge $-1 -1 $-1 $193 -0.28099999999999969 $278 0.28099999999999969 $185 $279 forward @7 unknown #
coedge $-1 -1 $-1 $179 $280 $120 $188 reversed $116 $-1 #
edge $-1 -1 $-1 $281 -0.28099999999999969 $192 0.28099999999999969 $187 $282 forward @7 unknown #
coedge $-1 -1 $-1 $182 $121 $280 $283 forward $191 $-1 #
coedge $-1 -1 $-1 $121 $182 $276 $284 reversed $191 $-1 #
loop $-1 -1 $-1 $-1 $189 $260 #
vertex $-1 -1 $-1 $122 $285 #
vertex $-1 -1 $-1 $122 $286 #
straight-curve $-1 -1 $-1 0.28099999999999969 0 0.28100000000000014 0 1 0 I I #
coedge $-1 -1 $-1 $195 $195 $126 $196 forward $123 $-1 #
edge $-1 -1 $-1 $287 0 $287 6.2831853071795862 $195 $288 forward @7 unknown #
vertex $-1 -1 $-1 $127 $289 #
ellipse-curve $-1 -1 $-1 0 0 -0.037499999999999645 0 0 -1 0.12499999999999997 0 0 1 I I #
model_id-kcp-attrib $-1 -1 $-1 $-1 $129 1 1021323929 1021323929 1019740161 7 #
loop $-1 -1 $-1 $139 $203 $129 #
cone-surface $-1 -1 $-1 -3.0051999999999999 4.9512499999999999 4.1302000000000003 0 1 0 -0.13258252147247762 0 -0.13258252147247762 1 I I 0 1 0.18749999999999997 forward I I I I #
model_id-kcp-attrib $-1 -1 $-1 $-1 $133 1 1021323929 1021323929 1019740161 11 #
coedge $-1 -1 $-1 $203 $203 $134 $204 reversed $200 $-1 #
edge $-1 -1 $-1 $290 -3.1415926535897913 $290 3.1415926535897949 $134 $291 forward @7 unknown #
attrib_edge_convexity-kcp-attrib $-1 -1 $292 $-1 $136 1 #
vertex $293 -1 $-1 $136 $294 #
ellipse-curve $-1 -1 $-1 -3.0051999999999999 4.9550000000000001 4.1302000000000003 0 1 0 0.088388347648318419 0 0.088388347648318419 1 I I #
attrib_edge_convexity-kcp-attrib $-1 -1 $295 $-1 $138 1 #
vertex $-1 -1 $-1 $138 $296 #
ellipse-curve $-1 -1 $-1 -3.0051999999999999 4.9989999999999997 4.1302000000000003 0 -1 0 0.19869700551341982 0 0.19869700551341982 1 I I #
convexity-sys-attrib $-1 -1 $-1 $140 $92 #
point $-1 -1 $-1 -2.8726174785275225 4.9989999999999997 4.2627825214724782 #
convexity-sys-attrib $-1 -1 $-1 $143 $94 #
model_id-kcp-attrib $-1 -1 $-1 $-1 $144 1 1021323929 1021323929 1019740161 14 #
point $-1 -1 $-1 -3.0935883476483181 5.0299999999999994 4.041811652351682 #
face $-1 -1 $-1 $297 $298 $24 $-1 $299 reversed single #
loop $-1 -1 $-1 $-1 $239 $148 #
plane-surface $-1 -1 $-1 0 0 0.28100000000000014 0 0 1 1 0 0 forward_v I I I I #
coedge $-1 -1 $-1 $300 $301 $302 $222 reversed $149 $-1 #
coedge $-1 -1 $-1 $156 $150 $303 $304 reversed $100 $-1 #
coedge $-1 -1 $-1 $150 $156 $305 $306 reversed $100 $-1 #
edge $-1 -1 $-1 $307 -0.074999999999999289 $308 0 $302 $309 forward @7 unknown #
coedge $-1 -1 $-1 $152 $151 $310 $311 reversed $67 $-1 #
coedge $-1 -1 $-1 $312 $313 $314 $225 forward $315 $-1 #
edge $-1 -1 $-1 $316 -0.074999999999999289 $229 0 $224 $317 forward @7 unknown #
coedge $-1 -1 $-1 $227 $153 $318 $319 reversed $228 $-1 #
coedge $-1 -1 $-1 $153 $226 $312 $320 forward $228 $-1 #
loop $-1 -1 $-1 $-1 $153 $321 #
vertex $-1 -1 $-1 $322 $323 #
vertex $-1 -1 $-1 $324 $325 #
ellipse-curve $-1 -1 $-1 0 0.037499999999999645 0 0 -1 0 -0.19869700551341979 0 -0.19869700551341984 1 I I #
coedge $-1 -1 $-1 $326 $327 $155 $233 forward $328 $-1 #
edge $-1 -1 $-1 $230 -2.3561944901923448 $235 -0.78539816339744839 $232 $231 forward @7 unknown #
coedge $-1 -1 $-1 $329 $330 $331 $157 forward $298 $-1 #
vertex $-1 -1 $-1 $332 $333 #
straight-curve $-1 -1 $-1 -0.28099999999999969 0.037499999999999645 0 0 1 0 I I #
coedge $-1 -1 $-1 $334 $158 $327 $324 forward $240 $-1 #
coedge $-1 -1 $-1 $158 $334 $160 $242 forward $240 $-1 #
coedge $-1 -1 $-1 $335 $318 $152 $159 reversed $217 $-1 #
loop $-1 -1 $-1 $-1 $158 $336 #
straight-curve $-1 -1 $-1 0 0.037499999999999645 0.28100000000000014 0 1 0 I I #
edge $-1 -1 $-1 $337 -0.28099999999999969 $164 0 $160 $338 forward @7 unknown #
coedge $-1 -1 $-1 $339 $331 $161 $244 reversed $340 $-1 #
edge $-1 -1 $-1 $337 -0.28100000000000014 $163 0 $243 $341 forward @7 unknown #
face $-1 -1 $-1 $342 $162 $24 $-1 $343 reversed single #
edge $-1 -1 $-1 $163 0 $344 0.28100000000000014 $330 $341 forward @7 unknown #
point $-1 -1 $-1 -0.28099999999999969 -0.037499999999999645 0 #
edge $-1 -1 $-1 $164 0 $345 0.28099999999999969 $346 $338 forward @7 unknown #
point $-1 -1 $-1 0 -0.037499999999999645 0.28100000000000014 #
loop $-1 -1 $-1 $-1 $172 $106 #
coedge $-1 -1 $-1 $251 $251 $170 $252 forward $166 $-1 #
edge $347 -1 $-1 $348 -3.1415926535897931 $348 3.1415926535897931 $170 $349 forward @7 unknown #
vertex $-1 -1 $-1 $171 $350 #
ellipse-curve $-1 -1 $-1 0 -0.037499999999999312 0 0 1 0 -0.19869700551341979 0 -0.19869700551341984 1 I I #
convexity-sys-attrib $-1 -1 $-1 $-1 $173 #
vertex $-1 -1 $-1 $173 $351 #
ellipse-curve $-1 -1 $-1 0 0.0065000000000002833 0 0 -1 0 -0.13258252147247762 0 -0.13258252147247762 1 I I #
point $-1 -1 $-1 0.1325825214724774 -0.037499999999999645 0.13258252147247784 #
model_id-kcp-attrib $-1 -1 $-1 $-1 $176 1 1021323929 1021323929 1019740162 2 #
face $-1 -1 $-1 $-1 $191 $27 $-1 $352 reversed single #
loop $-1 -1 $-1 $-1 $276 $176 #
plane-surface $-1 -1 $-1 0 0.037499999999999645 0 0 -1 0 0 0 -1 forward_v I I I I #
coedge $-1 -1 $-1 $353 $274 $277 $354 forward $177 $-1 #
coedge $-1 -1 $-1 $280 $179 $180 $268 reversed $116 $-1 #
coedge $-1 -1 $-1 $274 $353 $179 $266 reversed $177 $-1 #
edge $-1 -1 $-1 $281 -0.28100000000000014 $355 0.28100000000000014 $265 $356 forward @7 unknown #
coedge $-1 -1 $-1 $181 $180 $353 $357 forward $75 $-1 #
edge $-1 -1 $-1 $272 -0.28099999999999969 $355 0.28099999999999969 $264 $358 forward @7 unknown #
coedge $-1 -1 $-1 $277 $276 $181 $270 reversed $261 $-1 #
edge $-1 -1 $-1 $359 -0.28099999999999969 $271 0.28099999999999969 $269 $360 forward @7 unknown #
vertex $-1 -1 $-1 $183 $361 #
vertex $-1 -1 $-1 $283 $362 #
straight-curve $-1 -1 $-1 0.28099999999999969 0 -0.28100000000000014 0 -1 0 I I #
coedge $-1 -1 $-1 $263 $265 $184 $275 reversed $177 $-1 #
edge $-1 -1 $-1 $278 -0.037499999999999645 $281 0.037499999999999645 $274 $363 forward @7 unknown #
coedge $-1 -1 $-1 $269 $185 $190 $284 forward $261 $-1 #
coedge $-1 -1 $-1 $185 $269 $263 $354 reversed $261 $-1 #
vertex $-1 -1 $-1 $186 $364 #
straight-curve $-1 -1 $-1 0 0.037499999999999645 0.28100000000000014 -1 0 0 I I #
coedge $-1 -1 $-1 $187 $264 $189 $283 reversed $116 $-1 #
vertex $-1 -1 $-1 $275 $365 #
straight-curve $-1 -1 $-1 0 -0.037499999999999645 0.28100000000000014 1 0 0 I I #
edge $-1 -1 $-1 $192 -0.28100000000000014 $272 0.28100000000000014 $189 $366 forward @7 unknown #
edge $-1 -1 $-1 $193 -0.28100000000000014 $271 0.28100000000000014 $190 $367 forward @7 unknown #
point $-1 -1 $-1 0.28099999999999969 -0.037499999999999645 0.28100000000000014 #
point $-1 -1 $-1 0.28099999999999969 0.037499999999999645 0.28100000000000014 #
vertex $-1 -1 $-1 $196 $368 #
ellipse-curve $-1 -1 $-1 0 0 0.037499999999999645 0 0 1 0.12499999999999997 0 0 1 I I #
point $-1 -1 $-1 0.12499999999999997 0 -0.037499999999999645 #
vertex $-1 -1 $-1 $204 $369 #
ellipse-curve $-1 -1 $-1 -3.0051999999999999 4.9550000000000001 4.1302000000000003 0 -1 0 0.13258252147247762 0 0.13258252147247762 1 I I #
convexity-sys-attrib $-1 -1 $-1 $205 $136 #
model_id-kcp-attrib $-1 -1 $-1 $-1 $206 1 1021323929 1021323929 1019740161 15 #
point $-1 -1 $-1 -3.0935883476483181 4.9550000000000001 4.041811652351682 #
convexity-sys-attrib $-1 -1 $-1 $208 $138 #
point $-1 -1 $-1 -3.2038970055134195 4.9989999999999997 3.9315029944865807 #
face $-1 -1 $-1 $370 $371 $24 $-1 $372 reversed single #
loop $-1 -1 $-1 $-1 $234 $216 #
plane-surface $-1 -1 $-1 -0.28099999999999969 0 0 1 0 0 0 0 -1 forward_v I I I I #
coedge $-1 -1 $-1 $373 $219 $374 $375 reversed $149 $-1 #
coedge $-1 -1 $-1 $219 $373 $376 $377 reversed $149 $-1 #
coedge $-1 -1 $-1 $378 $379 $380 $222 forward $381 $-1 #
coedge $-1 -1 $-1 $382 $383 $220 $304 forward $384 $-1 #
edge $-1 -1 $-1 $235 -0.78539816339744839 $308 0.78539816339744817 $303 $231 forward @7 unknown #
coedge $-1 -1 $-1 $385 $386 $221 $306 forward $387 $-1 #
edge $-1 -1 $-1 $307 -0.78539816339744817 $163 0.78539816339744839 $305 $165 forward @7 unknown #
vertex $-1 -1 $-1 $388 $389 #
vertex $-1 -1 $-1 $390 $391 #
straight-curve $-1 -1 $-1 0 0.037499999999999645 -0.28100000000000014 0 1 0 I I #
coedge $-1 -1 $-1 $392 $346 $223 $311 forward $393 $-1 #
edge $-1 -1 $-1 $164 2.3561944901923448 $316 3.9269908169872414 $310 $165 forward @7 unknown #
coedge $-1 -1 $-1 $394 $224 $227 $320 reversed $315 $-1 #
coedge $-1 -1 $-1 $224 $394 $392 $395 forward $315 $-1 #
coedge $-1 -1 $-1 $396 $397 $373 $225 reversed $371 $-1 #
loop $-1 -1 $-1 $-1 $224 $398 #
vertex $-1 -1 $-1 $399 $400 #
straight-curve $-1 -1 $-1 0.28099999999999969 0.037499999999999645 0 0 1 0 I I #
coedge $-1 -1 $-1 $239 $401 $226 $319 forward $217 $-1 #
edge $-1 -1 $-1 $402 -0.28099999999999969 $230 0 $226 $403 forward @7 unknown #
edge $-1 -1 $-1 $402 -0.28100000000000014 $229 0 $312 $404 forward @7 unknown #
face $-1 -1 $-1 $405 $228 $24 $-1 $406 reversed single #
edge $-1 -1 $-1 $229 0 $407 0.28100000000000014 $397 $404 forward @7 unknown #
point $-1 -1 $-1 0.28099999999999969 0.037499999999999645 0 #
edge $-1 -1 $-1 $230 0 $408 0.28099999999999969 $327 $403 forward @7 unknown #
point $-1 -1 $-1 0 0.037499999999999645 0.28100000000000014 #
coedge $-1 -1 $-1 $327 $232 $409 $410 reversed $328 $-1 #
coedge $-1 -1 $-1 $232 $326 $237 $324 reversed $328 $-1 #
loop $-1 -1 $-1 $-1 $232 $405 #
coedge $-1 -1 $-1 $411 $234 $383 $332 forward $298 $-1 #
coedge $-1 -1 $-1 $234 $411 $385 $246 reversed $298 $-1 #
coedge $-1 -1 $-1 $243 $409 $102 $157 reversed $340 $-1 #
edge $-1 -1 $-1 $235 0 $412 0.28100000000000014 $383 $413 forward @7 unknown #
point $-1 -1 $-1 -0.28099999999999969 0.037499999999999645 0 #
coedge $-1 -1 $-1 $238 $237 $339 $414 forward $240 $-1 #
coedge $-1 -1 $-1 $401 $239 $346 $248 forward $217 $-1 #
face $-1 -1 $-1 $415 $240 $24 $-1 $218 forward single #
vertex $-1 -1 $-1 $414 $416 #
straight-curve $-1 -1 $-1 0 -0.037499999999999645 0.28100000000000014 1 0 0 I I #
coedge $-1 -1 $-1 $409 $243 $334 $414 reversed $340 $-1 #
loop $-1 -1 $-1 $-1 $331 $417 #
straight-curve $-1 -1 $-1 -0.28099999999999969 -0.037499999999999645 0 0 0 -1 I I #
face $-1 -1 $-1 $418 $393 $24 $-1 $343 reversed single #
plane-surface $-1 -1 $-1 0 -0.037499999999999645 0 0 1 0 0 0 1 forward_v I I I I #
vertex $-1 -1 $-1 $419 $420 #
vertex $-1 -1 $-1 $421 $422 #
coedge $-1 -1 $-1 $310 $392 $335 $248 reversed $393 $-1 #
convexity-sys-attrib $-1 -1 $-1 $-1 $252 #
vertex $-1 -1 $-1 $252 $423 #
ellipse-curve $-1 -1 $-1 0 0.0065000000000002833 0 0 1 0 -0.19869700551341979 0 -0.19869700551341984 1 I I #
point $-1 -1 $-1 0.19869700551341982 -0.037499999999999312 0.19869700551341982 #
point $-1 -1 $-1 0.1325825214724774 0.0064999999999999503 0.13258252147247784 #
plane-surface $-1 -1 $-1 0.28099999999999969 0 0 -1 0 0 0 0 1 forward_v I I I I #
coedge $-1 -1 $-1 $265 $263 $267 $357 reversed $177 $-1 #
edge $-1 -1 $-1 $278 -0.28100000000000014 $359 0.28100000000000014 $277 $424 forward @7 unknown #
vertex $-1 -1 $-1 $357 $425 #
straight-curve $-1 -1 $-1 -0.28099999999999969 -0.037499999999999645 0 0 0 -1 I I #
edge $-1 -1 $-1 $355 -0.037499999999999645 $359 0.037499999999999645 $353 $426 forward @7 unknown #
straight-curve $-1 -1 $-1 0 -0.037499999999999645 -0.28100000000000014 -1 0 0 I I #
vertex $-1 -1 $-1 $270 $427 #
straight-curve $-1 -1 $-1 0 0.037499999999999645 -0.28100000000000014 1 0 0 I I #
point $-1 -1 $-1 0.28099999999999969 0.037499999999999645 -0.28100000000000014 #
point $-1 -1 $-1 0.28099999999999969 -0.037499999999999645 -0.28100000000000014 #
straight-curve $-1 -1 $-1 -0.28099999999999969 0 0.28100000000000014 0 -1 0 I I #
point $-1 -1 $-1 -0.28099999999999969 0.037499999999999645 0.28100000000000014 #
point $-1 -1 $-1 -0.28099999999999969 -0.037499999999999645 0.28100000000000014 #
straight-curve $-1 -1 $-1 0.28099999999999969 -0.037499999999999645 0 0 0 -1 I I #
straight-curve $-1 -1 $-1 0.28099999999999969 0.037499999999999645 0 0 0 -1 I I #
point $-1 -1 $-1 0.12499999999999997 0 0.037499999999999645 #
point $-1 -1 $-1 -3.1377825214724773 4.9550000000000001 3.9976174785275225 #
face $-1 -1 $-1 $321 $428 $24 $-1 $406 reversed single #
loop $-1 -1 $-1 $-1 $314 $297 #
plane-surface $-1 -1 $-1 0.28099999999999969 0 0 -1 0 0 0 0 1 forward_v I I I I #
coedge $-1 -1 $-1 $301 $300 $151 $225 forward $149 $-1 #
coedge $-1 -1 $-1 $429 $430 $300 $375 forward $431 $-1 #
edge $-1 -1 $-1 $316 -2.3561944901923448 $307 -0.78539816339744817 $374 $165 forward @7 unknown #
coedge $-1 -1 $-1 $432 $433 $301 $377 forward $428 $-1 #
edge $-1 -1 $-1 $308 0.78539816339744817 $229 2.3561944901923448 $376 $231 forward @7 unknown #
coedge $-1 -1 $-1 $434 $302 $433 $390 forward $381 $-1 #
coedge $-1 -1 $-1 $302 $434 $429 $435 forward $381 $-1 #
coedge $-1 -1 $-1 $436 $437 $150 $222 reversed $438 $-1 #
loop $-1 -1 $-1 $-1 $302 $415 #
coedge $-1 -1 $-1 $383 $303 $437 $439 reversed $384 $-1 #
coedge $-1 -1 $-1 $303 $382 $329 $332 reversed $384 $-1 #
loop $-1 -1 $-1 $-1 $303 $440 #
coedge $-1 -1 $-1 $386 $305 $330 $246 forward $387 $-1 #
coedge $-1 -1 $-1 $305 $385 $436 $388 reversed $387 $-1 #
loop $-1 -1 $-1 $-1 $305 $441 #
edge $-1 -1 $-1 $307 0 $344 0.28099999999999969 $386 $442 forward @7 unknown #
point $-1 -1 $-1 0 -0.037499999999999645 -0.28100000000000014 #
edge $-1 -1 $-1 $308 0 $407 0.28099999999999969 $433 $443 forward @7 unknown #
point $-1 -1 $-1 0 0.037499999999999645 -0.28100000000000014 #
coedge $-1 -1 $-1 $346 $310 $313 $395 reversed $393 $-1 #
loop $-1 -1 $-1 $-1 $310 $342 #
coedge $-1 -1 $-1 $313 $312 $401 $421 reversed $315 $-1 #
edge $-1 -1 $-1 $345 -0.28100000000000014 $316 0 $313 $444 forward @7 unknown #
coedge $-1 -1 $-1 $445 $314 $430 $399 forward $371 $-1 #
coedge $-1 -1 $-1 $314 $445 $432 $322 reversed $371 $-1 #
face $-1 -1 $-1 $-1 $315 $24 $-1 $372 reversed single #
edge $-1 -1 $-1 $316 0 $446 0.28100000000000014 $396 $444 forward @7 unknown #
point $-1 -1 $-1 0.28099999999999969 -0.037499999999999645 0 #
coedge $-1 -1 $-1 $318 $335 $394 $421 forward $217 $-1 #
vertex $-1 -1 $-1 $421 $447 #
straight-curve $-1 -1 $-1 0 0.037499999999999645 0.28100000000000014 -1 0 0 I I #
straight-curve $-1 -1 $-1 0.28099999999999969 0.037499999999999645 0 0 0 -1 I I #
face $-1 -1 $-1 $440 $328 $24 $-1 $406 reversed single #
plane-surface $-1 -1 $-1 0 0.037499999999999645 0 0 -1 0 0 0 -1 forward_v I I I I #
vertex $-1 -1 $-1 $448 $449 #
vertex $-1 -1 $-1 $324 $450 #
coedge $-1 -1 $-1 $331 $339 $326 $410 forward $340 $-1 #
edge $-1 -1 $-1 $408 -0.28100000000000014 $235 0 $326 $413 forward @7 unknown #
coedge $-1 -1 $-1 $330 $329 $451 $419 reversed $298 $-1 #
vertex $-1 -1 $-1 $439 $452 #
straight-curve $-1 -1 $-1 -0.28099999999999969 0.037499999999999645 0 0 0 -1 I I #
edge $-1 -1 $-1 $408 -0.037499999999999645 $337 0.037499999999999645 $339 $453 forward @7 unknown #
face $-1 -1 $-1 $417 $381 $24 $-1 $454 reversed single #
point $-1 -1 $-1 -0.28099999999999969 -0.037499999999999645 0.28100000000000014 #
face $-1 -1 $-1 $398 $340 $24 $-1 $299 reversed single #
face $-1 -1 $-1 $455 $431 $24 $-1 $343 reversed single #
edge $-1 -1 $-1 $344 -0.037499999999999645 $412 0.037499999999999645 $411 $456 forward @7 unknown #
point $-1 -1 $-1 -0.28099999999999969 -0.037499999999999645 -0.28100000000000014 #
edge $-1 -1 $-1 $345 -0.037499999999999645 $402 0.037499999999999645 $394 $457 forward @7 unknown #
point $-1 -1 $-1 0.28099999999999969 -0.037499999999999645 0.28100000000000014 #
point $-1 -1 $-1 0.19869700551341982 0.0065000000000002833 0.19869700551341982 #
straight-curve $-1 -1 $-1 -0.28099999999999969 0.037499999999999645 0 0 0 -1 I I #
point $-1 -1 $-1 -0.28099999999999969 -0.037499999999999645 -0.28100000000000014 #
straight-curve $-1 -1 $-1 -0.28099999999999969 0 -0.28100000000000014 0 1 0 I I #
point $-1 -1 $-1 -0.28099999999999969 0.037499999999999645 -0.28100000000000014 #
loop $-1 -1 $-1 $-1 $376 $370 #
coedge $-1 -1 $-1 $430 $374 $379 $435 reversed $431 $-1 #
coedge $-1 -1 $-1 $374 $429 $396 $399 reversed $431 $-1 #
loop $-1 -1 $-1 $-1 $374 $418 #
coedge $-1 -1 $-1 $433 $376 $397 $322 forward $428 $-1 #
coedge $-1 -1 $-1 $376 $432 $378 $390 reversed $428 $-1 #
coedge $-1 -1 $-1 $379 $378 $445 $448 forward $381 $-1 #
edge $-1 -1 $-1 $446 -0.28099999999999969 $307 0 $429 $442 forward @7 unknown #
coedge $-1 -1 $-1 $451 $380 $386 $388 forward $438 $-1 #
coedge $-1 -1 $-1 $380 $451 $382 $439 forward $438 $-1 #
loop $-1 -1 $-1 $-1 $380 $455 #
edge $-1 -1 $-1 $412 -0.28099999999999969 $308 0 $382 $443 forward @7 unknown #
face $-1 -1 $-1 $441 $384 $24 $-1 $406 reversed single #
face $-1 -1 $-1 $245 $387 $24 $-1 $343 reversed single #
straight-curve $-1 -1 $-1 0 -0.037499999999999645 -0.28100000000000014 -1 0 0 I I #
straight-curve $-1 -1 $-1 0 0.037499999999999645 -0.28100000000000014 1 0 0 I I #
straight-curve $-1 -1 $-1 0.28099999999999969 -0.037499999999999645 0 0 0 -1 I I #
coedge $-1 -1 $-1 $397 $396 $434 $448 reversed $371 $-1 #
vertex $-1 -1 $-1 $399 $458 #
point $-1 -1 $-1 0.28099999999999969 0.037499999999999645 0.28100000000000014 #
edge $-1 -1 $-1 $407 -0.037499999999999645 $446 0.037499999999999645 $445 $459 forward @7 unknown #
point $-1 -1 $-1 0.28099999999999969 0.037499999999999645 -0.28100000000000014 #
point $-1 -1 $-1 -0.28099999999999969 0.037499999999999645 0.28100000000000014 #
coedge $-1 -1 $-1 $437 $436 $411 $419 forward $438 $-1 #
point $-1 -1 $-1 -0.28099999999999969 0.037499999999999645 -0.28100000000000014 #
straight-curve $-1 -1 $-1 -0.28099999999999969 0 0.28100000000000014 0 -1 0 I I #
plane-surface $-1 -1 $-1 0 0 -0.28100000000000014 0 0 1 1 0 0 forward_v I I I I #
face $-1 -1 $-1 $336 $438 $24 $-1 $454 reversed single #
straight-curve $-1 -1 $-1 -0.28099999999999969 0 -0.28100000000000014 0 1 0 I I #
straight-curve $-1 -1 $-1 0.28099999999999969 0 0.28100000000000014 0 1 0 I I #
point $-1 -1 $-1 0.28099999999999969 -0.037499999999999645 -0.28100000000000014 #
straight-curve $-1 -1 $-1 0.28099999999999969 0 -0.28100000000000014 0 -1 0 I I #
End-of-ACIS-data 