700 0 2 0           
24 FBMach with ACIS - 7.0.3 13 ACIS 7.0.3 NT 24 Mon May 13 17:05:38 2002 
1 9.9999999999999995e-007 1e-010 
body $2 -1 $-1 $3 $-1 $4 #
bdycol-kcp $-1 -1 1 4 $5 $6 $7 $8 #
model_id-kcp-attrib $-1 -1 $-1 $-1 $0 1 1021323938 1021323938 -2129854463 1 #
lump $-1 -1 $-1 $-1 $9 $0 #
transform $-1 -1 1 0 0 0 1 0 0 0 1 0 0 0 1 rotate no_reflect no_shear #
body $10 -1 $-1 $11 $-1 $12 #
body $13 -1 $-1 $14 $-1 $15 #
body $16 -1 $-1 $17 $-1 $18 #
body $19 -1 $-1 $20 $-1 $21 #
shell $-1 -1 $-1 $-1 $-1 $22 $-1 $3 #
model_id-kcp-attrib $-1 -1 $-1 $-1 $5 1 1021323938 1021323938 -2129199102 1 #
lump $-1 -1 $-1 $-1 $23 $5 #
transform $-1 -1 1 0 0 0 1 0 0 0 1 -3.0051999999999999 -4.9924999999999997 4.1302000000000003 1 no_rotate no_reflect no_shear #
rgb_color-st-attrib $-1 -1 $24 $-1 $6 0.5 1 1 #
lump $-1 -1 $-1 $-1 $25 $6 #
transform $-1 -1 1 0 0 0 -3.8285889215894375e-016 1 0 -1 -3.8285889215894375e-016 -3.0051999999999999 -4.9924999999999997 4.1302000000000003 1 rotate no_reflect no_shear #
rgb_color-st-attrib $-1 -1 $26 $-1 $7 0.5 1 1 #
lump $-1 -1 $-1 $-1 $27 $7 #
transform $-1 -1 1 0 0 0 1 0 0 0 1 -3.0051999999999999 -4.9924999999999997 4.1302000000000003 1 no_rotate no_reflect no_shear #
rgb_color-st-attrib $-1 -1 $28 $-1 $8 1 0.5 1 #
lump $-1 -1 $-1 $-1 $29 $8 #
transform $-1 -1 1 0 0 0 1 0 0 0 1 -3.0051999999999999 -4.9924999999999997 4.1302000000000003 1 no_rotate no_reflect no_shear #
face $30 -1 $-1 $31 $32 $9 $-1 $33 forward single #
shell $-1 -1 $-1 $-1 $-1 $34 $-1 $11 #
model_id-kcp-attrib $-1 -1 $-1 $13 $6 1 1021323938 1021323938 -2127888381 1 #
shell $-1 -1 $-1 $-1 $-1 $35 $-1 $14 #
model_id-kcp-attrib $-1 -1 $-1 $16 $7 1 1021323938 1021323938 -2123300860 1 #
shell $-1 -1 $-1 $-1 $-1 $36 $-1 $17 #
model_id-kcp-attrib $-1 -1 $-1 $19 $8 1 1021323938 1021323938 -2116747259 1 #
shell $-1 -1 $-1 $-1 $-1 $37 $-1 $20 #
model_id-kcp-attrib $-1 -1 $-1 $-1 $22 1 1021323938 1021323938 -2129854463 2 #
face $38 -1 $-1 $39 $40 $9 $-1 $41 reversed single #
loop $-1 -1 $-1 $42 $43 $22 #
plane-surface $-1 -1 $-1 -3.0051999999999999 -5.0299999999999994 4.1302000000000003 0 -1 0 0.70710678118654735 0 0.70710678118654735 forward_v I I I I #
face $-1 -1 $-1 $44 $45 $23 $-1 $46 forward single #
face $-1 -1 $-1 $47 $48 $25 $-1 $49 forward single #
face $-1 -1 $-1 $50 $51 $27 $-1 $52 reversed single #
face $-1 -1 $-1 $53 $54 $29 $-1 $55 forward single #
model_id-kcp-attrib $-1 -1 $-1 $-1 $31 1 1021323938 1021323938 -2129854463 3 #
face $56 -1 $-1 $57 $58 $9 $-1 $59 reversed single #
loop $-1 -1 $-1 $60 $61 $31 #
plane-surface $-1 -1 $-1 -3.0051999999999999 -4.9989999999999997 4.1302000000000003 0 -1 0 0.70710678118654735 0 0.70710678118654735 forward_v I I I I #
loop $62 -1 $-1 $-1 $63 $22 #
coedge $-1 -1 $-1 $43 $43 $64 $65 forward $32 $-1 #
face $-1 -1 $-1 $66 $67 $23 $-1 $68 reversed single #
loop $-1 -1 $-1 $-1 $69 $34 #
plane-surface $-1 -1 $-1 0 0 0.28100000000000014 0 0 1 1 0 0 forward_v I I I I #
face $-1 -1 $-1 $70 $71 $25 $-1 $72 forward single #
loop $-1 -1 $-1 $73 $74 $35 #
cone-surface $-1 -1 $-1 0 0 0 0 0 1 0.12499999999999997 0 0 1 I I 0 1 0.12499999999999997 forward I I I I #
face $-1 -1 $-1 $75 $76 $27 $-1 $52 reversed single #
loop $-1 -1 $-1 $-1 $77 $36 #
cone-surface $-1 -1 $-1 0 -0.037499999999999645 0 0 -1 0 0.19869700551341982 0 0.19869700551341982 1 I I 0 1 0.28099999999999997 forward I I I I #
face $-1 -1 $-1 $78 $79 $29 $-1 $80 forward single #
loop $-1 -1 $-1 $81 $82 $37 #
cone-surface $-1 -1 $-1 0 -0.0065000000000002833 0 0 1 0 -0.13258252147247762 0 -0.13258252147247762 1 I I 0 -1 0.18749999999999994 forward I I I I #
model_id-kcp-attrib $-1 -1 $-1 $-1 $39 1 1021323938 1021323938 -2129854463 4 #
face $83 -1 $-1 $84 $85 $9 $-1 $86 reversed single #
loop $87 -1 $-1 $88 $89 $39 #
plane-surface $-1 -1 $-1 -3.0051999999999999 -4.9550000000000001 4.1302000000000003 0 -1 0 0.70710678118654735 0 0.70710678118654735 forward_v I I I I #
loop $-1 -1 $-1 $-1 $90 $31 #
coedge $-1 -1 $-1 $61 $61 $91 $92 forward $40 $-1 #
model_id-kcp-attrib $-1 -1 $-1 $-1 $42 1 1021323938 1021323938 -2129854463 12 #
coedge $-1 -1 $-1 $63 $63 $93 $94 forward $42 $-1 #
coedge $-1 -1 $-1 $64 $64 $43 $65 reversed $95 $-1 #
edge $96 -1 $-1 $97 1.1424072738541052e-015 $97 6.2831853071795871 $64 $98 forward @7 unknown #
face $99 -1 $-1 $100 $101 $23 $-1 $102 reversed single #
loop $-1 -1 $-1 $-1 $103 $44 #
plane-surface $-1 -1 $-1 0 0 -0.28100000000000014 0 0 1 1 0 0 forward_v I I I I #
coedge $-1 -1 $-1 $104 $105 $106 $107 forward $45 $-1 #
face $-1 -1 $-1 $-1 $108 $25 $-1 $109 forward single #
loop $-1 -1 $-1 $-1 $110 $47 #
plane-surface $-1 -1 $-1 0 0 -0.037499999999999645 0 0 -1 -1 0 0 forward_v I I I I #
loop $-1 -1 $-1 $-1 $111 $35 #
coedge $-1 -1 $-1 $74 $74 $110 $112 reversed $48 $-1 #
face $-1 -1 $-1 $113 $114 $27 $-1 $52 reversed single #
loop $-1 -1 $-1 $-1 $115 $50 #
coedge $-1 -1 $-1 $116 $117 $118 $119 reversed $51 $-1 #
face $-1 -1 $-1 $120 $121 $29 $-1 $122 forward single #
loop $-1 -1 $-1 $123 $124 $53 #
cone-surface $-1 -1 $-1 0 -0.0065000000000002833 0 0 1 0 0.19869700551341982 0 0.19869700551341982 1 I I 0 1 0.28099999999999997 forward I I I I #
loop $-1 -1 $-1 $-1 $125 $37 #
coedge $-1 -1 $-1 $82 $82 $126 $127 forward $54 $-1 #
model_id-kcp-attrib $-1 -1 $-1 $-1 $57 1 1021323938 1021323938 -2129854463 5 #
face $128 -1 $-1 $129 $130 $9 $-1 $131 forward single #
loop $132 -1 $-1 $133 $93 $57 #
cone-surface $-1 -1 $-1 -3.0051999999999999 -4.9512499999999999 4.1302000000000003 0 -1 0 -0.088388347648318419 0 -0.088388347648318419 1 I I 0 1 0.12499999999999999 forward I I I I #
model_id-kcp-attrib $-1 -1 $-1 $-1 $58 1 1021323938 1021323938 -2129854463 13 #
loop $-1 -1 $-1 $-1 $134 $39 #
coedge $-1 -1 $-1 $89 $89 $135 $136 forward $58 $-1 #
coedge $-1 -1 $-1 $90 $90 $137 $138 forward $60 $-1 #
coedge $-1 -1 $-1 $91 $91 $61 $92 reversed $139 $-1 #
edge $140 -1 $-1 $141 1.6776703483224601e-015 $141 6.283185307179588 $91 $142 forward @7 unknown #
coedge $-1 -1 $-1 $93 $93 $63 $94 reversed $85 $-1 #
edge $143 -1 $-1 $144 -3.1415926535897931 $144 3.1415926535897931 $63 $145 forward @7 unknown #
loop $-1 -1 $-1 $-1 $64 $84 #
attrib_edge_convexity-kcp-attrib $-1 -1 $146 $-1 $65 1 #
vertex $-1 -1 $-1 $65 $147 #
ellipse-curve $-1 -1 $-1 -3.0051999999999999 -5.0299999999999994 4.1302000000000003 0 -1 0 0.19869700551341982 0 0.19869700551341982 1 I I #
model_id-kcp-attrib $-1 -1 $-1 $-1 $66 1 1021323938 1021323938 -2129199102 2 #
face $-1 -1 $-1 $148 $149 $23 $-1 $150 reversed single #
loop $-1 -1 $-1 $-1 $151 $66 #
plane-surface $-1 -1 $-1 0 -0.037499999999999645 0 0 1 0 0 0 1 forward_v I I I I #
coedge $-1 -1 $-1 $152 $153 $154 $155 forward $67 $-1 #
coedge $-1 -1 $-1 $156 $69 $157 $158 forward $45 $-1 #
coedge $-1 -1 $-1 $69 $156 $159 $160 forward $45 $-1 #
coedge $-1 -1 $-1 $161 $162 $69 $107 reversed $163 $-1 #
edge $-1 -1 $-1 $164 -0.037499999999999645 $165 0.037499999999999645 $106 $166 forward @7 unknown #
loop $-1 -1 $-1 $-1 $167 $70 #
plane-surface $-1 -1 $-1 0 0 0.037499999999999645 0 0 1 1 0 0 forward_v I I I I #
coedge $-1 -1 $-1 $110 $110 $74 $112 forward $71 $-1 #
coedge $-1 -1 $-1 $111 $111 $167 $168 reversed $73 $-1 #
edge $-1 -1 $-1 $169 0 $169 6.2831853071795862 $110 $170 forward @7 unknown #
face $-1 -1 $-1 $171 $172 $27 $-1 $52 reversed single #
loop $-1 -1 $-1 $-1 $173 $75 #
coedge $-1 -1 $-1 $174 $175 $176 $177 reversed $76 $-1 #
coedge $-1 -1 $-1 $178 $77 $179 $180 forward $51 $-1 #
coedge $-1 -1 $-1 $77 $178 $181 $182 reversed $51 $-1 #
coedge $-1 -1 $-1 $183 $184 $77 $119 forward $185 $-1 #
edge $-1 -1 $-1 $186 -0.78539816339744828 $187 0.78539816339744828 $118 $188 forward @7 unknown #
face $-1 -1 $-1 $-1 $189 $29 $-1 $190 reversed single #
loop $-1 -1 $-1 $191 $192 $78 #
plane-surface $-1 -1 $-1 -0.0060104076400856561 0.037499999999999312 -0.0060104076400856379 0 1 0 0 0 1 forward_v I I I I #
loop $-1 -1 $-1 $-1 $193 $53 #
coedge $-1 -1 $-1 $124 $124 $192 $194 forward $79 $-1 #
coedge $-1 -1 $-1 $125 $125 $195 $196 reversed $81 $-1 #
coedge $-1 -1 $-1 $126 $126 $82 $127 reversed $191 $-1 #
edge $-1 -1 $-1 $197 -3.1415926535897949 $197 3.1415926535897913 $82 $198 forward @7 unknown #
model_id-kcp-attrib $-1 -1 $-1 $-1 $84 1 1021323938 1021323938 -2129854463 6 #
face $199 -1 $-1 $-1 $200 $9 $-1 $201 forward single #
loop $-1 -1 $-1 $95 $137 $84 #
cone-surface $-1 -1 $-1 -3.0051999999999999 -4.9512499999999999 4.1302000000000003 0 -1 0 -0.19869700551341982 0 -0.19869700551341982 1 I I 0 1 0.28099999999999997 forward I I I I #
model_id-kcp-attrib $-1 -1 $-1 $-1 $85 1 1021323938 1021323938 -2129854463 10 #
loop $202 -1 $-1 $-1 $135 $57 #
coedge $-1 -1 $-1 $134 $134 $203 $204 forward $88 $-1 #
coedge $-1 -1 $-1 $135 $135 $89 $136 reversed $133 $-1 #
edge $205 -1 $-1 $206 -3.1415926535897931 $206 3.1415926535897931 $135 $207 forward @7 unknown #
coedge $-1 -1 $-1 $137 $137 $90 $138 reversed $130 $-1 #
edge $208 -1 $-1 $209 -3.1415926535897931 $209 3.1415926535897931 $90 $210 forward @7 unknown #
loop $-1 -1 $-1 $-1 $91 $129 #
attrib_edge_convexity-kcp-attrib $-1 -1 $211 $-1 $92 2 #
vertex $-1 -1 $-1 $92 $212 #
ellipse-curve $-1 -1 $-1 -3.0051999999999999 -4.9989999999999997 4.1302000000000003 0 -1 0 0.13258252147247762 0 0.13258252147247762 1 I I #
attrib_edge_convexity-kcp-attrib $-1 -1 $213 $-1 $94 1 #
vertex $214 -1 $-1 $94 $215 #
ellipse-curve $-1 -1 $-1 -3.0051999999999999 -5.0299999999999994 4.1302000000000003 0 1 0 0.088388347648318419 0 0.088388347648318419 1 I I #
convexity-sys-attrib $-1 -1 $-1 $96 $65 #
point $-1 -1 $-1 -2.8065029944865802 -5.0299999999999994 4.3288970055134204 #
face $216 -1 $-1 $217 $218 $23 $-1 $219 reversed single #
loop $-1 -1 $-1 $-1 $220 $100 #
plane-surface $-1 -1 $-1 -0.28099999999999969 0 0 1 0 0 0 0 -1 forward_v I I I I #
coedge $-1 -1 $-1 $221 $159 $222 $223 forward $101 $-1 #
coedge $-1 -1 $-1 $224 $103 $221 $225 forward $67 $-1 #
coedge $-1 -1 $-1 $103 $224 $226 $227 forward $67 $-1 #
coedge $-1 -1 $-1 $162 $161 $103 $155 reversed $163 $-1 #
edge $-1 -1 $-1 $228 -0.037499999999999645 $229 0.037499999999999645 $154 $230 forward @7 unknown #
coedge $-1 -1 $-1 $105 $104 $231 $232 forward $45 $-1 #
coedge $-1 -1 $-1 $233 $234 $104 $158 reversed $218 $-1 #
edge $-1 -1 $-1 $165 -0.28099999999999969 $235 0.28099999999999969 $157 $236 forward @7 unknown #
coedge $-1 -1 $-1 $151 $237 $105 $160 reversed $101 $-1 #
edge $-1 -1 $-1 $238 -0.28099999999999969 $164 0.28099999999999969 $159 $239 forward @7 unknown #
coedge $-1 -1 $-1 $154 $106 $237 $240 forward $163 $-1 #
coedge $-1 -1 $-1 $106 $154 $233 $241 reversed $163 $-1 #
loop $-1 -1 $-1 $-1 $161 $217 #
vertex $-1 -1 $-1 $107 $242 #
vertex $-1 -1 $-1 $107 $243 #
straight-curve $-1 -1 $-1 0.28099999999999969 0 0.28100000000000014 0 1 0 I I #
coedge $-1 -1 $-1 $167 $167 $111 $168 forward $108 $-1 #
edge $-1 -1 $-1 $244 0 $244 6.2831853071795862 $167 $245 forward @7 unknown #
vertex $-1 -1 $-1 $112 $246 #
ellipse-curve $-1 -1 $-1 0 0 -0.037499999999999645 0 0 -1 0.12499999999999997 0 0 1 I I #
face $-1 -1 $-1 $247 $248 $27 $-1 $249 forward single #
loop $-1 -1 $-1 $-1 $250 $113 #
coedge $-1 -1 $-1 $251 $252 $250 $253 forward $114 $-1 #
coedge $-1 -1 $-1 $254 $115 $255 $256 reversed $76 $-1 #
coedge $-1 -1 $-1 $115 $254 $117 $182 forward $76 $-1 #
coedge $-1 -1 $-1 $257 $258 $115 $177 forward $259 $-1 #
edge $-1 -1 $-1 $260 -2.3561944901923448 $261 -0.78539816339744828 $176 $262 forward @7 unknown #
coedge $-1 -1 $-1 $117 $116 $263 $264 reversed $51 $-1 #
coedge $-1 -1 $-1 $252 $251 $265 $180 reversed $114 $-1 #
edge $-1 -1 $-1 $186 -0.074999999999999289 $266 0 $265 $267 forward @7 unknown #
coedge $-1 -1 $-1 $268 $269 $270 $182 forward $271 $-1 #
edge $-1 -1 $-1 $187 -0.074999999999999289 $261 0 $181 $272 forward @7 unknown #
coedge $-1 -1 $-1 $184 $118 $269 $273 reversed $185 $-1 #
coedge $-1 -1 $-1 $118 $183 $274 $275 forward $185 $-1 #
loop $-1 -1 $-1 $-1 $118 $276 #
vertex $-1 -1 $-1 $277 $278 #
vertex $-1 -1 $-1 $279 $280 #
ellipse-curve $-1 -1 $-1 0 0.037499999999999645 0 0 -1 0 0.19869700551341982 0 0.19869700551341982 1 I I #
loop $-1 -1 $-1 $281 $282 $120 #
plane-surface $-1 -1 $-1 -0.0060104076400856561 -0.0065000000000002833 -0.0060104076400856379 0 1 0 0 0 1 forward_v I I I I #
loop $-1 -1 $-1 $-1 $126 $78 #
coedge $-1 -1 $-1 $192 $192 $124 $194 reversed $121 $-1 #
coedge $-1 -1 $-1 $193 $193 $282 $283 reversed $123 $-1 #
edge $-1 -1 $-1 $284 -3.1415926535897931 $284 3.1415926535897931 $124 $285 forward @7 unknown #
coedge $-1 -1 $-1 $195 $195 $125 $196 forward $281 $-1 #
edge $286 -1 $-1 $287 -3.1415926535897949 $287 3.1415926535897913 $125 $288 forward @7 unknown #
vertex $-1 -1 $-1 $127 $289 #
ellipse-curve $-1 -1 $-1 0 0.037499999999999312 0 0 1 0 -0.13258252147247762 0 -0.13258252147247762 1 I I #
model_id-kcp-attrib $-1 -1 $-1 $-1 $129 1 1021323938 1021323938 -2129854463 7 #
loop $-1 -1 $-1 $139 $203 $129 #
cone-surface $-1 -1 $-1 -3.0051999999999999 -4.9512499999999999 4.1302000000000003 0 -1 0 -0.13258252147247762 0 -0.13258252147247762 1 I I 0 1 0.18749999999999997 forward I I I I #
model_id-kcp-attrib $-1 -1 $-1 $-1 $133 1 1021323938 1021323938 -2129854463 11 #
coedge $-1 -1 $-1 $203 $203 $134 $204 reversed $200 $-1 #
edge $-1 -1 $-1 $290 -3.1415926535897949 $290 3.1415926535897913 $134 $291 forward @7 unknown #
attrib_edge_convexity-kcp-attrib $-1 -1 $292 $-1 $136 1 #
vertex $293 -1 $-1 $136 $294 #
ellipse-curve $-1 -1 $-1 -3.0051999999999999 -4.9550000000000001 4.1302000000000003 0 -1 0 0.088388347648318419 0 0.088388347648318419 1 I I #
attrib_edge_convexity-kcp-attrib $-1 -1 $295 $-1 $138 1 #
vertex $-1 -1 $-1 $138 $296 #
ellipse-curve $-1 -1 $-1 -3.0051999999999999 -4.9989999999999997 4.1302000000000003 0 1 0 0.19869700551341982 0 0.19869700551341982 1 I I #
convexity-sys-attrib $-1 -1 $-1 $140 $92 #
point $-1 -1 $-1 -2.8726174785275225 -4.9989999999999997 4.2627825214724782 #
convexity-sys-attrib $-1 -1 $-1 $143 $94 #
model_id-kcp-attrib $-1 -1 $-1 $-1 $144 1 1021323938 1021323938 -2129854463 14 #
point $-1 -1 $-1 -3.0935883476483181 -5.0299999999999994 4.041811652351682 #
model_id-kcp-attrib $-1 -1 $-1 $-1 $148 1 1021323938 1021323938 -2129199102 3 #
face $-1 -1 $-1 $-1 $163 $23 $-1 $297 reversed single #
loop $-1 -1 $-1 $-1 $233 $148 #
plane-surface $-1 -1 $-1 0 0.037499999999999645 0 0 -1 0 0 0 -1 forward_v I I I I #
coedge $-1 -1 $-1 $298 $231 $234 $299 forward $149 $-1 #
coedge $-1 -1 $-1 $237 $151 $152 $225 reversed $101 $-1 #
coedge $-1 -1 $-1 $231 $298 $151 $223 reversed $149 $-1 #
edge $-1 -1 $-1 $238 -0.28100000000000014 $300 0.28100000000000014 $222 $301 forward @7 unknown #
coedge $-1 -1 $-1 $153 $152 $298 $302 forward $67 $-1 #
edge $-1 -1 $-1 $229 -0.28099999999999969 $300 0.28099999999999969 $221 $303 forward @7 unknown #
coedge $-1 -1 $-1 $234 $233 $153 $227 reversed $218 $-1 #
edge $-1 -1 $-1 $304 -0.28099999999999969 $228 0.28099999999999969 $226 $305 forward @7 unknown #
vertex $-1 -1 $-1 $155 $306 #
vertex $-1 -1 $-1 $240 $307 #
straight-curve $-1 -1 $-1 0.28099999999999969 0 -0.28100000000000014 0 -1 0 I I #
coedge $-1 -1 $-1 $220 $222 $156 $232 reversed $149 $-1 #
edge $-1 -1 $-1 $235 -0.037499999999999645 $238 0.037499999999999645 $231 $308 forward @7 unknown #
coedge $-1 -1 $-1 $226 $157 $162 $241 forward $218 $-1 #
coedge $-1 -1 $-1 $157 $226 $220 $299 reversed $218 $-1 #
vertex $-1 -1 $-1 $158 $309 #
straight-curve $-1 -1 $-1 0 0.037499999999999645 0.28100000000000014 -1 0 0 I I #
coedge $-1 -1 $-1 $159 $221 $161 $240 reversed $101 $-1 #
vertex $-1 -1 $-1 $232 $310 #
straight-curve $-1 -1 $-1 0 -0.037499999999999645 0.28100000000000014 1 0 0 I I #
edge $-1 -1 $-1 $164 -0.28100000000000014 $229 0.28100000000000014 $161 $311 forward @7 unknown #
edge $-1 -1 $-1 $165 -0.28100000000000014 $228 0.28100000000000014 $162 $312 forward @7 unknown #
point $-1 -1 $-1 0.28099999999999969 -0.037499999999999645 0.28100000000000014 #
point $-1 -1 $-1 0.28099999999999969 0.037499999999999645 0.28100000000000014 #
vertex $-1 -1 $-1 $168 $313 #
ellipse-curve $-1 -1 $-1 0 0 0.037499999999999645 0 0 1 0.12499999999999997 0 0 1 I I #
point $-1 -1 $-1 0.12499999999999997 0 -0.037499999999999645 #
face $-1 -1 $-1 $314 $315 $27 $-1 $316 reversed single #
loop $-1 -1 $-1 $-1 $270 $171 #
plane-surface $-1 -1 $-1 0 0 0.28100000000000014 0 0 1 1 0 0 forward_v I I I I #
coedge $-1 -1 $-1 $317 $318 $319 $253 reversed $172 $-1 #
coedge $-1 -1 $-1 $179 $173 $320 $321 reversed $114 $-1 #
coedge $-1 -1 $-1 $173 $179 $322 $323 reversed $114 $-1 #
edge $-1 -1 $-1 $324 -0.074999999999999289 $325 0 $319 $326 forward @7 unknown #
coedge $-1 -1 $-1 $175 $174 $327 $328 reversed $76 $-1 #
coedge $-1 -1 $-1 $329 $330 $331 $256 forward $315 $-1 #
edge $-1 -1 $-1 $332 -0.074999999999999289 $260 0 $255 $333 forward @7 unknown #
coedge $-1 -1 $-1 $258 $176 $334 $335 reversed $259 $-1 #
coedge $-1 -1 $-1 $176 $257 $329 $336 forward $259 $-1 #
loop $-1 -1 $-1 $-1 $176 $337 #
vertex $-1 -1 $-1 $338 $339 #
vertex $-1 -1 $-1 $340 $341 #
ellipse-curve $-1 -1 $-1 0 -0.037499999999999645 0 0 1 0 0.19869700551341982 0 0.19869700551341982 1 I I #
coedge $-1 -1 $-1 $342 $343 $178 $264 forward $344 $-1 #
edge $-1 -1 $-1 $261 -0.78539816339744828 $266 0.78539816339744828 $263 $262 forward @7 unknown #
coedge $-1 -1 $-1 $345 $346 $347 $180 forward $348 $-1 #
vertex $-1 -1 $-1 $349 $350 #
straight-curve $-1 -1 $-1 0.28099999999999969 -0.037499999999999645 0 0 -1 0 I I #
coedge $-1 -1 $-1 $351 $181 $343 $340 forward $271 $-1 #
coedge $-1 -1 $-1 $181 $351 $183 $273 forward $271 $-1 #
coedge $-1 -1 $-1 $352 $334 $175 $182 reversed $248 $-1 #
loop $-1 -1 $-1 $-1 $181 $353 #
straight-curve $-1 -1 $-1 0 -0.037499999999999645 0.28100000000000014 0 -1 0 I I #
edge $-1 -1 $-1 $354 -0.28099999999999969 $187 0 $183 $355 forward @7 unknown #
coedge $-1 -1 $-1 $356 $347 $184 $275 reversed $357 $-1 #
edge $-1 -1 $-1 $354 -0.28100000000000014 $186 0 $274 $358 forward @7 unknown #
face $-1 -1 $-1 $359 $185 $27 $-1 $360 reversed single #
edge $-1 -1 $-1 $186 0 $361 0.28100000000000014 $346 $358 forward @7 unknown #
point $-1 -1 $-1 0.28099999999999969 0.037499999999999645 0 #
edge $-1 -1 $-1 $187 0 $362 0.28099999999999969 $363 $355 forward @7 unknown #
point $-1 -1 $-1 0 0.037499999999999645 0.28100000000000014 #
loop $-1 -1 $-1 $-1 $195 $120 #
coedge $-1 -1 $-1 $282 $282 $193 $283 forward $189 $-1 #
edge $364 -1 $-1 $365 -3.1415926535897931 $365 3.1415926535897931 $193 $366 forward @7 unknown #
vertex $-1 -1 $-1 $194 $367 #
ellipse-curve $-1 -1 $-1 0 0.037499999999999312 0 0 -1 0 0.19869700551341982 0 0.19869700551341982 1 I I #
convexity-sys-attrib $-1 -1 $-1 $-1 $196 #
vertex $-1 -1 $-1 $196 $368 #
ellipse-curve $-1 -1 $-1 0 -0.0065000000000002833 0 0 1 0 -0.13258252147247762 0 -0.13258252147247762 1 I I #
point $-1 -1 $-1 0.1325825214724774 0.037499999999999645 0.13258252147247784 #
vertex $-1 -1 $-1 $204 $369 #
ellipse-curve $-1 -1 $-1 -3.0051999999999999 -4.9550000000000001 4.1302000000000003 0 1 0 0.13258252147247762 0 0.13258252147247762 1 I I #
convexity-sys-attrib $-1 -1 $-1 $205 $136 #
model_id-kcp-attrib $-1 -1 $-1 $-1 $206 1 1021323938 1021323938 -2129854463 15 #
point $-1 -1 $-1 -3.0935883476483181 -4.9550000000000001 4.041811652351682 #
convexity-sys-attrib $-1 -1 $-1 $208 $138 #
point $-1 -1 $-1 -3.2038970055134195 -4.9989999999999997 3.9315029944865807 #
plane-surface $-1 -1 $-1 0.28099999999999969 0 0 -1 0 0 0 0 1 forward_v I I I I #
coedge $-1 -1 $-1 $222 $220 $224 $302 reversed $149 $-1 #
edge $-1 -1 $-1 $235 -0.28100000000000014 $304 0.28100000000000014 $234 $370 forward @7 unknown #
vertex $-1 -1 $-1 $302 $371 #
straight-curve $-1 -1 $-1 -0.28099999999999969 -0.037499999999999645 0 0 0 -1 I I #
edge $-1 -1 $-1 $300 -0.037499999999999645 $304 0.037499999999999645 $298 $372 forward @7 unknown #
straight-curve $-1 -1 $-1 0 -0.037499999999999645 -0.28100000000000014 -1 0 0 I I #
vertex $-1 -1 $-1 $227 $373 #
straight-curve $-1 -1 $-1 0 0.037499999999999645 -0.28100000000000014 1 0 0 I I #
point $-1 -1 $-1 0.28099999999999969 0.037499999999999645 -0.28100000000000014 #
point $-1 -1 $-1 0.28099999999999969 -0.037499999999999645 -0.28100000000000014 #
straight-curve $-1 -1 $-1 -0.28099999999999969 0 0.28100000000000014 0 -1 0 I I #
point $-1 -1 $-1 -0.28099999999999969 0.037499999999999645 0.28100000000000014 #
point $-1 -1 $-1 -0.28099999999999969 -0.037499999999999645 0.28100000000000014 #
straight-curve $-1 -1 $-1 0.28099999999999969 -0.037499999999999645 0 0 0 -1 I I #
straight-curve $-1 -1 $-1 0.28099999999999969 0.037499999999999645 0 0 0 -1 I I #
point $-1 -1 $-1 0.12499999999999997 0 0.037499999999999645 #
face $-1 -1 $-1 $374 $357 $27 $-1 $375 reversed single #
loop $-1 -1 $-1 $-1 $255 $247 #
plane-surface $-1 -1 $-1 -0.28099999999999969 0 0 1 0 0 0 0 -1 forward_v I I I I #
coedge $-1 -1 $-1 $376 $250 $377 $378 reversed $172 $-1 #
coedge $-1 -1 $-1 $250 $376 $379 $380 reversed $172 $-1 #
coedge $-1 -1 $-1 $381 $382 $383 $253 forward $384 $-1 #
coedge $-1 -1 $-1 $385 $386 $251 $321 forward $387 $-1 #
edge $-1 -1 $-1 $266 0.78539816339744828 $325 2.3561944901923448 $320 $262 forward @7 unknown #
coedge $-1 -1 $-1 $388 $389 $252 $323 forward $390 $-1 #
edge $-1 -1 $-1 $324 -2.3561944901923448 $186 -0.78539816339744828 $322 $188 forward @7 unknown #
vertex $-1 -1 $-1 $391 $392 #
vertex $-1 -1 $-1 $393 $394 #
straight-curve $-1 -1 $-1 0 -0.037499999999999645 -0.28100000000000014 0 -1 0 I I #
coedge $-1 -1 $-1 $395 $363 $254 $328 forward $396 $-1 #
edge $-1 -1 $-1 $187 0.78539816339744828 $332 2.3561944901923448 $327 $188 forward @7 unknown #
coedge $-1 -1 $-1 $397 $255 $258 $336 reversed $315 $-1 #
coedge $-1 -1 $-1 $255 $397 $395 $398 forward $315 $-1 #
coedge $-1 -1 $-1 $399 $400 $376 $256 reversed $401 $-1 #
vertex $-1 -1 $-1 $402 $403 #
straight-curve $-1 -1 $-1 -0.28099999999999969 -0.037499999999999645 0 0 -1 0 I I #
coedge $-1 -1 $-1 $270 $404 $257 $335 forward $248 $-1 #
edge $-1 -1 $-1 $405 -0.28099999999999969 $261 0 $257 $406 forward @7 unknown #
edge $-1 -1 $-1 $405 -0.28100000000000014 $260 0 $329 $407 forward @7 unknown #
face $-1 -1 $-1 $408 $259 $27 $-1 $409 reversed single #
edge $-1 -1 $-1 $260 0 $410 0.28100000000000014 $400 $407 forward @7 unknown #
point $-1 -1 $-1 -0.28099999999999969 -0.037499999999999645 0 #
edge $-1 -1 $-1 $261 0 $411 0.28099999999999969 $343 $406 forward @7 unknown #
point $-1 -1 $-1 0 -0.037499999999999645 0.28100000000000014 #
coedge $-1 -1 $-1 $343 $263 $412 $413 reversed $344 $-1 #
coedge $-1 -1 $-1 $263 $342 $268 $340 reversed $344 $-1 #
loop $-1 -1 $-1 $-1 $263 $408 #
coedge $-1 -1 $-1 $414 $265 $386 $349 forward $348 $-1 #
coedge $-1 -1 $-1 $265 $414 $388 $277 reversed $348 $-1 #
coedge $-1 -1 $-1 $274 $412 $116 $180 reversed $357 $-1 #
loop $-1 -1 $-1 $-1 $265 $415 #
edge $-1 -1 $-1 $266 0 $416 0.28100000000000014 $345 $417 forward @7 unknown #
point $-1 -1 $-1 0.28099999999999969 -0.037499999999999645 0 #
coedge $-1 -1 $-1 $269 $268 $356 $418 forward $271 $-1 #
coedge $-1 -1 $-1 $404 $270 $363 $279 forward $248 $-1 #
face $-1 -1 $-1 $419 $271 $27 $-1 $249 forward single #
vertex $-1 -1 $-1 $418 $420 #
straight-curve $-1 -1 $-1 0 0.037499999999999645 0.28100000000000014 -1 0 0 I I #
coedge $-1 -1 $-1 $412 $274 $351 $418 reversed $357 $-1 #
loop $-1 -1 $-1 $-1 $347 $314 #
straight-curve $-1 -1 $-1 0.28099999999999969 0.037499999999999645 0 0 0 -1 I I #
face $-1 -1 $-1 $421 $396 $27 $-1 $360 reversed single #
plane-surface $-1 -1 $-1 0 0.037499999999999645 0 0 -1 0 0 0 -1 forward_v I I I I #
vertex $-1 -1 $-1 $422 $423 #
vertex $-1 -1 $-1 $279 $424 #
coedge $-1 -1 $-1 $327 $395 $352 $279 reversed $396 $-1 #
convexity-sys-attrib $-1 -1 $-1 $-1 $283 #
vertex $-1 -1 $-1 $283 $425 #
ellipse-curve $-1 -1 $-1 0 -0.0065000000000002833 0 0 -1 0 0.19869700551341982 0 0.19869700551341982 1 I I #
point $-1 -1 $-1 -0.19869700551341979 0.037499999999999312 -0.19869700551341984 #
point $-1 -1 $-1 0.1325825214724774 -0.0064999999999999503 0.13258252147247784 #
point $-1 -1 $-1 -3.1377825214724773 -4.9550000000000001 3.9976174785275225 #
straight-curve $-1 -1 $-1 -0.28099999999999969 0.037499999999999645 0 0 0 -1 I I #
point $-1 -1 $-1 -0.28099999999999969 -0.037499999999999645 -0.28100000000000014 #
straight-curve $-1 -1 $-1 -0.28099999999999969 0 -0.28100000000000014 0 1 0 I I #
point $-1 -1 $-1 -0.28099999999999969 0.037499999999999645 -0.28100000000000014 #
face $-1 -1 $-1 $337 $426 $27 $-1 $409 reversed single #
plane-surface $-1 -1 $-1 0.28099999999999969 0 0 -1 0 0 0 0 1 forward_v I I I I #
coedge $-1 -1 $-1 $318 $317 $174 $256 forward $172 $-1 #
coedge $-1 -1 $-1 $427 $428 $317 $378 forward $429 $-1 #
edge $-1 -1 $-1 $332 2.3561944901923448 $324 3.9269908169872414 $377 $188 forward @7 unknown #
coedge $-1 -1 $-1 $430 $431 $318 $380 forward $426 $-1 #
edge $-1 -1 $-1 $325 2.3561944901923448 $260 3.9269908169872414 $379 $262 forward @7 unknown #
coedge $-1 -1 $-1 $432 $319 $431 $393 forward $384 $-1 #
coedge $-1 -1 $-1 $319 $432 $427 $433 forward $384 $-1 #
coedge $-1 -1 $-1 $434 $435 $173 $253 reversed $436 $-1 #
loop $-1 -1 $-1 $-1 $319 $419 #
coedge $-1 -1 $-1 $386 $320 $435 $437 reversed $387 $-1 #
coedge $-1 -1 $-1 $320 $385 $345 $349 reversed $387 $-1 #
loop $-1 -1 $-1 $-1 $320 $438 #
coedge $-1 -1 $-1 $389 $322 $346 $277 forward $390 $-1 #
coedge $-1 -1 $-1 $322 $388 $434 $391 reversed $390 $-1 #
loop $-1 -1 $-1 $-1 $322 $439 #
edge $-1 -1 $-1 $324 0 $361 0.28099999999999969 $389 $440 forward @7 unknown #
point $-1 -1 $-1 0 0.037499999999999645 -0.28100000000000014 #
edge $-1 -1 $-1 $325 0 $410 0.28099999999999969 $431 $441 forward @7 unknown #
point $-1 -1 $-1 0 -0.037499999999999645 -0.28100000000000014 #
coedge $-1 -1 $-1 $363 $327 $330 $398 reversed $396 $-1 #
loop $-1 -1 $-1 $-1 $327 $359 #
coedge $-1 -1 $-1 $330 $329 $404 $442 reversed $315 $-1 #
edge $-1 -1 $-1 $362 -0.28100000000000014 $332 0 $395 $443 forward @7 unknown #
coedge $-1 -1 $-1 $444 $331 $428 $402 forward $401 $-1 #
coedge $-1 -1 $-1 $331 $444 $430 $338 reversed $401 $-1 #
loop $-1 -1 $-1 $-1 $331 $445 #
edge $-1 -1 $-1 $332 0 $446 0.28100000000000014 $428 $443 forward @7 unknown #
point $-1 -1 $-1 -0.28099999999999969 0.037499999999999645 0 #
coedge $-1 -1 $-1 $334 $352 $397 $442 forward $248 $-1 #
vertex $-1 -1 $-1 $442 $447 #
straight-curve $-1 -1 $-1 0 -0.037499999999999645 0.28100000000000014 1 0 0 I I #
straight-curve $-1 -1 $-1 -0.28099999999999969 -0.037499999999999645 0 0 0 -1 I I #
face $-1 -1 $-1 $438 $344 $27 $-1 $409 reversed single #
plane-surface $-1 -1 $-1 0 -0.037499999999999645 0 0 1 0 0 0 1 forward_v I I I I #
vertex $-1 -1 $-1 $448 $449 #
vertex $-1 -1 $-1 $418 $450 #
coedge $-1 -1 $-1 $347 $356 $342 $413 forward $357 $-1 #
edge $-1 -1 $-1 $411 -0.28100000000000014 $266 0 $412 $417 forward @7 unknown #
coedge $-1 -1 $-1 $346 $345 $451 $422 reversed $348 $-1 #
face $-1 -1 $-1 $-1 $348 $27 $-1 $375 reversed single #
vertex $-1 -1 $-1 $349 $452 #
straight-curve $-1 -1 $-1 0.28099999999999969 -0.037499999999999645 0 0 0 -1 I I #
edge $-1 -1 $-1 $411 -0.037499999999999645 $354 0.037499999999999645 $356 $453 forward @7 unknown #
face $-1 -1 $-1 $445 $384 $27 $-1 $454 reversed single #
point $-1 -1 $-1 0.28099999999999969 0.037499999999999645 0.28100000000000014 #
face $-1 -1 $-1 $455 $429 $27 $-1 $360 reversed single #
edge $-1 -1 $-1 $361 -0.037499999999999645 $416 0.037499999999999645 $414 $456 forward @7 unknown #
point $-1 -1 $-1 0.28099999999999969 0.037499999999999645 -0.28100000000000014 #
point $-1 -1 $-1 -0.28099999999999969 0.037499999999999645 0.28100000000000014 #
point $-1 -1 $-1 -0.19869700551341979 -0.0065000000000002833 -0.19869700551341984 #
loop $-1 -1 $-1 $-1 $379 $374 #
coedge $-1 -1 $-1 $428 $377 $382 $433 reversed $429 $-1 #
coedge $-1 -1 $-1 $377 $427 $399 $402 reversed $429 $-1 #
loop $-1 -1 $-1 $-1 $377 $421 #
coedge $-1 -1 $-1 $431 $379 $400 $338 forward $426 $-1 #
coedge $-1 -1 $-1 $379 $430 $381 $393 reversed $426 $-1 #
coedge $-1 -1 $-1 $382 $381 $444 $448 forward $384 $-1 #
edge $-1 -1 $-1 $446 -0.28099999999999969 $324 0 $427 $440 forward @7 unknown #
coedge $-1 -1 $-1 $451 $383 $389 $391 forward $436 $-1 #
coedge $-1 -1 $-1 $383 $451 $385 $437 forward $436 $-1 #
loop $-1 -1 $-1 $-1 $383 $455 #
edge $-1 -1 $-1 $416 -0.28099999999999969 $325 0 $385 $441 forward @7 unknown #
face $-1 -1 $-1 $439 $387 $27 $-1 $409 reversed single #
face $-1 -1 $-1 $276 $390 $27 $-1 $360 reversed single #
straight-curve $-1 -1 $-1 0 0.037499999999999645 -0.28100000000000014 1 0 0 I I #
straight-curve $-1 -1 $-1 0 -0.037499999999999645 -0.28100000000000014 -1 0 0 I I #
edge $-1 -1 $-1 $362 -0.037499999999999645 $405 0.037499999999999645 $397 $457 forward @7 unknown #
straight-curve $-1 -1 $-1 -0.28099999999999969 0.037499999999999645 0 0 0 -1 I I #
coedge $-1 -1 $-1 $400 $399 $432 $448 reversed $401 $-1 #
face $-1 -1 $-1 $415 $401 $27 $-1 $316 reversed single #
vertex $-1 -1 $-1 $433 $458 #
point $-1 -1 $-1 -0.28099999999999969 -0.037499999999999645 0.28100000000000014 #
edge $-1 -1 $-1 $410 -0.037499999999999645 $446 0.037499999999999645 $444 $459 forward @7 unknown #
point $-1 -1 $-1 -0.28099999999999969 -0.037499999999999645 -0.28100000000000014 #
point $-1 -1 $-1 0.28099999999999969 -0.037499999999999645 0.28100000000000014 #
coedge $-1 -1 $-1 $435 $434 $414 $422 forward $436 $-1 #
point $-1 -1 $-1 0.28099999999999969 -0.037499999999999645 -0.28100000000000014 #
straight-curve $-1 -1 $-1 0.28099999999999969 0 0.28100000000000014 0 1 0 I I #
plane-surface $-1 -1 $-1 0 0 -0.28100000000000014 0 0 1 1 0 0 forward_v I I I I #
face $-1 -1 $-1 $353 $436 $27 $-1 $454 reversed single #
straight-curve $-1 -1 $-1 0.28099999999999969 0 -0.28100000000000014 0 -1 0 I I #
straight-curve $-1 -1 $-1 -0.28099999999999969 0 0.28100000000000014 0 -1 0 I I #
point $-1 -1 $-1 -0.28099999999999969 0.037499999999999645 -0.28100000000000014 #
straight-curve $-1 -1 $-1 -0.28099999999999969 0 -0.28100000000000014 0 1 0 I I #
End-of-ACIS-data 