201 0 1 0           
7 Unknown 11 ACIS 2.1 NT 24 Fri Jun 05 10:18:07 1998 
-1 9.9999999999999995e-007 1e-010 
body $-1 $1 $-1 $2 #
lump $-1 $-1 $3 $0 #
transform $-1 0.70710678118654746 0 0.70710678118654746 0.70710678118654746 0 -0.70710678118654746 0 1 0 0 4.9990 7.1354 0.99999999999999989 no_rotate no_reflect no_shear #
shell $-1 $-1 $-1 $4 $-1 $1 #
face $-1 $5 $6 $3 $-1 $7 forward single #
face $-1 $8 $9 $3 $-1 $10 reversed single #
loop $-1 $11 $12 $4 #
plane-surface $-1 0 0 0.031 0 0 1 1 0 0 forward_v I I I I #
face $-1 $13 $14 $3 $-1 $15 reversed single #
loop $-1 $16 $17 $5 #
plane-surface $-1 0 0 0 0 0 1 1 0 0 forward_v I I I I #
loop $-1 $-1 $18 $4 #
coedge $-1 $12 $12 $19 $20 0 $6 $-1 #
face $-1 $21 $22 $3 $-1 $23 reversed single #
loop $-1 $24 $25 $8 #
plane-surface $-1 0 0 -0.043999999999999997 0 0 1 1 0 0 forward_v I I I I #
loop $-1 $-1 $26 $5 #
coedge $-1 $17 $17 $27 $28 0 $9 $-1 #
coedge $-1 $18 $18 $29 $30 0 $11 $-1 #
coedge $-1 $19 $19 $12 $20 1 $31 $-1 #
edge $-1 $32 $32 $19 $33 forward #
face $-1 $34 $35 $3 $-1 $36 forward single #
loop $-1 $37 $29 $13 #
cone-surface $-1 0 0 -0.047750000000000001 0 0 1 -0.125 0 0 1 I I 0 1 forward I I I I #
loop $-1 $-1 $38 $8 #
coedge $-1 $25 $25 $39 $40 0 $14 $-1 #
coedge $-1 $26 $26 $41 $42 0 $16 $-1 #
coedge $-1 $27 $27 $17 $28 1 $43 $-1 #
edge $-1 $44 $44 $27 $45 forward #
coedge $-1 $29 $29 $18 $30 1 $22 $-1 #
edge $-1 $46 $46 $18 $47 forward #
loop $-1 $-1 $19 $21 #
vertex $-1 $20 $48 #
ellipse-curve $-1 0 0 0.031 0 0 1 0.28100000000000003 0 0 1 I I #
face $-1 $-1 $49 $3 $-1 $50 forward single #
loop $-1 $31 $41 $21 #
cone-surface $-1 0 0 -0.047750000000000001 0 0 1 -0.28100000000000003 0 0 1 I I 0 1 forward I I I I #
loop $-1 $-1 $39 $13 #
coedge $-1 $38 $38 $51 $52 0 $24 $-1 #
coedge $-1 $39 $39 $25 $40 1 $37 $-1 #
edge $-1 $53 $53 $39 $54 forward #
coedge $-1 $41 $41 $26 $42 1 $35 $-1 #
edge $-1 $55 $55 $26 $56 forward #
loop $-1 $-1 $27 $34 #
vertex $-1 $28 $57 #
ellipse-curve $-1 0 0 0 0 0 1 0.1875 0 0 1 I I #
vertex $-1 $30 $58 #
ellipse-curve $-1 0 0 0.031 0 0 -1 0.125 0 0 1 I I #
point $-1 0.28100000000000003 0 0.031 #
loop $-1 $43 $51 $34 #
cone-surface $-1 0 0 -0.047750000000000001 0 0 1 -0.1875 0 0 1 I I 0 1 forward I I I I #
coedge $-1 $51 $51 $38 $52 1 $49 $-1 #
edge $-1 $59 $59 $38 $60 forward #
vertex $-1 $40 $61 #
ellipse-curve $-1 0 0 -0.043999999999999997 0 0 1 0.125 0 0 1 I I #
vertex $-1 $42 $62 #
ellipse-curve $-1 0 0 0 0 0 -1 0.28100000000000003 0 0 1 I I #
point $-1 0.1875 0 0 #
point $-1 -0.125 0 0.031 #
vertex $-1 $52 $63 #
ellipse-curve $-1 0 0 -0.043999999999999997 0 0 -1 0.1875 0 0 1 I I #
point $-1 -0.125 0 -0.043999999999999997 #
point $-1 -0.28100000000000003 0 0 #
point $-1 -0.1875 0 -0.043999999999999997 #
End-of-ACIS-data 