700 0 2 0           
24 FBMach with ACIS - 7.0.3 13 ACIS 7.0.3 NT 24 Mon May 13 17:05:08 2002 
1 9.9999999999999995e-007 1e-010 
body $2 -1 $-1 $3 $-1 $4 #
bdycol-kcp $-1 -1 1 4 $5 $6 $7 $8 #
model_id-kcp-attrib $-1 -1 $-1 $-1 $0 1 1021323907 1021323908 -1051000831 1 #
lump $-1 -1 $-1 $-1 $9 $0 #
transform $-1 -1 1 0 0 0 1 0 0 0 1 0 0 0 1 rotate no_reflect no_shear #
body $10 -1 $-1 $11 $-1 $12 #
body $13 -1 $-1 $14 $-1 $15 #
body $16 -1 $-1 $17 $-1 $18 #
body $19 -1 $-1 $20 $-1 $21 #
shell $-1 -1 $-1 $-1 $-1 $22 $-1 $3 #
rgb_color-st-attrib $-1 -1 $23 $-1 $5 1 0.5 1 #
lump $-1 -1 $-1 $-1 $24 $5 #
transform $-1 -1 1 0 0 0 1 0 0 0 1 -2.7755575615628914e-017 4.9924999999999997 7.1353999999999997 1 no_rotate no_reflect no_shear #
model_id-kcp-attrib $-1 -1 $-1 $-1 $6 1 1021323907 1021323908 -1051000830 1 #
lump $-1 -1 $-1 $-1 $25 $6 #
transform $-1 -1 1 0 0 0 1 0 0 0 1 -2.7755575615628914e-017 4.9924999999999997 7.1353999999999997 1 no_rotate no_reflect no_shear #
rgb_color-st-attrib $-1 -1 $26 $-1 $7 0.5 1 1 #
lump $-1 -1 $-1 $-1 $27 $7 #
transform $-1 -1 1 0 0 0 -3.8285889215894375e-016 -1 0 1 -3.8285889215894375e-016 0 4.9924999999999997 7.1353999999999997 1 rotate no_reflect no_shear #
rgb_color-st-attrib $-1 -1 $28 $-1 $8 0.5 1 1 #
lump $-1 -1 $-1 $-1 $29 $8 #
transform $-1 -1 1 0 0 0 1 0 0 0 1 -2.7755575615628914e-017 4.9924999999999997 7.1353999999999997 1 no_rotate no_reflect no_shear #
face $30 -1 $-1 $31 $32 $9 $-1 $33 forward single #
model_id-kcp-attrib $-1 -1 $-1 $10 $5 1 1021323907 1021323908 -1055981563 1 #
shell $-1 -1 $-1 $-1 $-1 $34 $-1 $11 #
shell $-1 -1 $-1 $-1 $-1 $35 $-1 $14 #
model_id-kcp-attrib $-1 -1 $-1 $16 $7 1 1021323907 1021323908 -1049690109 1 #
shell $-1 -1 $-1 $-1 $-1 $36 $-1 $17 #
model_id-kcp-attrib $-1 -1 $-1 $19 $8 1 1021323907 1021323908 -1045757948 1 #
shell $-1 -1 $-1 $-1 $-1 $37 $-1 $20 #
model_id-kcp-attrib $-1 -1 $-1 $-1 $22 1 1021323907 1021323908 -1051000831 2 #
face $38 -1 $-1 $39 $40 $9 $-1 $41 reversed single #
loop $-1 -1 $-1 $42 $43 $22 #
plane-surface $-1 -1 $-1 0 5.0299999999999994 7.1353999999999997 0 1 0 0.70710678118654735 0 0.70710678118654735 forward_v I I I I #
face $-1 -1 $-1 $44 $45 $24 $-1 $46 forward single #
face $-1 -1 $-1 $47 $48 $25 $-1 $49 forward single #
face $-1 -1 $-1 $50 $51 $27 $-1 $52 forward single #
face $-1 -1 $-1 $53 $54 $29 $-1 $55 reversed single #
model_id-kcp-attrib $-1 -1 $-1 $-1 $31 1 1021323907 1021323908 -1051000831 3 #
face $56 -1 $-1 $57 $58 $9 $-1 $59 reversed single #
loop $-1 -1 $-1 $60 $61 $31 #
plane-surface $-1 -1 $-1 0 4.9989999999999997 7.1353999999999997 0 1 0 0.70710678118654735 0 0.70710678118654735 forward_v I I I I #
loop $62 -1 $-1 $-1 $63 $22 #
coedge $-1 -1 $-1 $43 $43 $64 $65 forward $32 $-1 #
face $-1 -1 $-1 $66 $67 $24 $-1 $68 forward single #
loop $-1 -1 $-1 $69 $70 $34 #
cone-surface $-1 -1 $-1 2.7755575615628914e-017 0.0065000000000002833 0 0 -1 0 -0.13258252147247762 0 -0.13258252147247762 1 I I 0 -1 0.18749999999999994 forward I I I I #
face $-1 -1 $-1 $71 $72 $25 $-1 $73 reversed single #
loop $-1 -1 $-1 $-1 $74 $35 #
plane-surface $-1 -1 $-1 0 0 0.28100000000000058 0 0 1 1 0 0 forward_v I I I I #
face $-1 -1 $-1 $75 $76 $27 $-1 $77 forward single #
loop $-1 -1 $-1 $78 $79 $36 #
cone-surface $-1 -1 $-1 0 0 0 0 0 1 0.12499999999999997 0 0 1 I I 0 1 0.12499999999999997 forward I I I I #
face $-1 -1 $-1 $80 $81 $29 $-1 $55 reversed single #
loop $-1 -1 $-1 $-1 $82 $37 #
cone-surface $-1 -1 $-1 2.7755575615628904e-017 0.037499999999999645 0 0 1 0 -0.19869700551341971 0 -0.19869700551341996 1 I I 0 1 0.28099999999999997 forward I I I I #
model_id-kcp-attrib $-1 -1 $-1 $-1 $39 1 1021323907 1021323908 -1051000831 4 #
face $83 -1 $-1 $84 $85 $9 $-1 $86 reversed single #
loop $87 -1 $-1 $88 $89 $39 #
plane-surface $-1 -1 $-1 0 4.9550000000000001 7.1353999999999997 0 1 0 0.70710678118654735 0 0.70710678118654735 forward_v I I I I #
loop $-1 -1 $-1 $-1 $90 $31 #
coedge $-1 -1 $-1 $61 $61 $91 $92 forward $40 $-1 #
model_id-kcp-attrib $-1 -1 $-1 $-1 $42 1 1021323907 1021323908 -1051000831 12 #
coedge $-1 -1 $-1 $63 $63 $93 $94 forward $42 $-1 #
coedge $-1 -1 $-1 $64 $64 $43 $65 reversed $95 $-1 #
edge $96 -1 $-1 $97 -6.1514237822913313e-016 $97 6.2831853071795853 $64 $98 forward @7 unknown #
face $-1 -1 $-1 $99 $100 $24 $-1 $101 reversed single #
loop $-1 -1 $-1 $102 $103 $44 #
cone-surface $-1 -1 $-1 2.7755575615628904e-017 0.0065000000000002833 0 0 -1 0 -0.19869700551341971 0 -0.19869700551341996 1 I I 0 1 0.28099999999999997 forward I I I I #
loop $-1 -1 $-1 $-1 $104 $34 #
coedge $-1 -1 $-1 $70 $70 $105 $106 forward $45 $-1 #
face $107 -1 $-1 $108 $109 $25 $-1 $110 reversed single #
loop $-1 -1 $-1 $-1 $111 $47 #
plane-surface $-1 -1 $-1 0 0 -0.28100000000000058 0 0 1 1 0 0 forward_v I I I I #
coedge $-1 -1 $-1 $112 $113 $114 $115 forward $48 $-1 #
face $-1 -1 $-1 $-1 $116 $27 $-1 $117 forward single #
loop $-1 -1 $-1 $-1 $118 $50 #
plane-surface $-1 -1 $-1 0 0 -0.037499999999999645 0 0 -1 -1 0 0 forward_v I I I I #
loop $-1 -1 $-1 $-1 $119 $36 #
coedge $-1 -1 $-1 $79 $79 $118 $120 reversed $51 $-1 #
face $-1 -1 $-1 $121 $122 $29 $-1 $55 reversed single #
loop $-1 -1 $-1 $-1 $123 $53 #
coedge $-1 -1 $-1 $124 $125 $126 $127 reversed $54 $-1 #
model_id-kcp-attrib $-1 -1 $-1 $-1 $57 1 1021323907 1021323908 -1051000831 5 #
face $128 -1 $-1 $129 $130 $9 $-1 $131 forward single #
loop $132 -1 $-1 $133 $93 $57 #
cone-surface $-1 -1 $-1 0 4.9512499999999999 7.1353999999999997 0 1 0 -0.088388347648318419 0 -0.088388347648318419 1 I I 0 1 0.12499999999999999 forward I I I I #
model_id-kcp-attrib $-1 -1 $-1 $-1 $58 1 1021323907 1021323908 -1051000831 13 #
loop $-1 -1 $-1 $-1 $134 $39 #
coedge $-1 -1 $-1 $89 $89 $135 $136 forward $58 $-1 #
coedge $-1 -1 $-1 $90 $90 $137 $138 forward $60 $-1 #
coedge $-1 -1 $-1 $91 $91 $61 $92 reversed $139 $-1 #
edge $140 -1 $-1 $141 -7.894919286223334e-016 $141 6.2831853071795853 $91 $142 forward @7 unknown #
coedge $-1 -1 $-1 $93 $93 $63 $94 reversed $85 $-1 #
edge $143 -1 $-1 $144 -3.141592653589794 $144 3.1415926535897922 $63 $145 forward @7 unknown #
loop $-1 -1 $-1 $-1 $64 $84 #
attrib_edge_convexity-kcp-attrib $-1 -1 $146 $-1 $65 1 #
vertex $-1 -1 $-1 $65 $147 #
ellipse-curve $-1 -1 $-1 0 5.0299999999999994 7.1353999999999997 0 1 0 0.19869700551341982 0 0.19869700551341982 1 I I #
face $-1 -1 $-1 $-1 $148 $24 $-1 $149 forward single #
loop $-1 -1 $-1 $150 $151 $66 #
plane-surface $-1 -1 $-1 0.015657918177037083 -0.037499999999999312 0.015657918177037065 0 1 0 0 0 1 forward_v I I I I #
loop $-1 -1 $-1 $-1 $152 $44 #
coedge $-1 -1 $-1 $103 $103 $151 $153 forward $67 $-1 #
coedge $-1 -1 $-1 $104 $104 $154 $155 reversed $69 $-1 #
coedge $-1 -1 $-1 $105 $105 $70 $106 reversed $150 $-1 #
edge $-1 -1 $-1 $156 -3.1415926535897922 $156 3.141592653589794 $70 $157 forward @7 unknown #
model_id-kcp-attrib $-1 -1 $-1 $-1 $71 1 1021323907 1021323908 -1051000830 3 #
face $-1 -1 $-1 $158 $159 $25 $-1 $160 reversed single #
loop $-1 -1 $-1 $-1 $161 $71 #
plane-surface $-1 -1 $-1 0 -0.037499999999999645 0 0 1 0 0 0 1 forward_v I I I I #
coedge $-1 -1 $-1 $162 $163 $164 $165 forward $72 $-1 #
coedge $-1 -1 $-1 $166 $74 $167 $168 forward $48 $-1 #
coedge $-1 -1 $-1 $74 $166 $169 $170 forward $48 $-1 #
coedge $-1 -1 $-1 $171 $172 $74 $115 reversed $173 $-1 #
edge $-1 -1 $-1 $174 -0.037499999999999645 $175 0.037499999999999645 $114 $176 forward @7 unknown #
loop $-1 -1 $-1 $-1 $177 $75 #
plane-surface $-1 -1 $-1 0 0 0.037499999999999645 0 0 1 1 0 0 forward_v I I I I #
coedge $-1 -1 $-1 $118 $118 $79 $120 forward $76 $-1 #
coedge $-1 -1 $-1 $119 $119 $177 $178 reversed $78 $-1 #
edge $-1 -1 $-1 $179 0 $179 6.2831853071795862 $118 $180 forward @7 unknown #
face $-1 -1 $-1 $181 $182 $29 $-1 $55 reversed single #
loop $-1 -1 $-1 $-1 $183 $80 #
coedge $-1 -1 $-1 $184 $185 $186 $187 reversed $81 $-1 #
coedge $-1 -1 $-1 $188 $82 $189 $190 forward $54 $-1 #
coedge $-1 -1 $-1 $82 $188 $191 $192 reversed $54 $-1 #
coedge $-1 -1 $-1 $193 $194 $82 $127 forward $195 $-1 #
edge $-1 -1 $-1 $196 0.78539816339744895 $197 2.3561944901923457 $126 $198 forward @7 unknown #
model_id-kcp-attrib $-1 -1 $-1 $-1 $84 1 1021323907 1021323908 -1051000831 6 #
face $199 -1 $-1 $-1 $200 $9 $-1 $201 forward single #
loop $-1 -1 $-1 $95 $137 $84 #
cone-surface $-1 -1 $-1 0 4.9512499999999999 7.1353999999999997 0 1 0 -0.19869700551341982 0 -0.19869700551341982 1 I I 0 1 0.28099999999999997 forward I I I I #
model_id-kcp-attrib $-1 -1 $-1 $-1 $85 1 1021323907 1021323908 -1051000831 10 #
loop $202 -1 $-1 $-1 $135 $57 #
coedge $-1 -1 $-1 $134 $134 $203 $204 forward $88 $-1 #
coedge $-1 -1 $-1 $135 $135 $89 $136 reversed $133 $-1 #
edge $205 -1 $-1 $206 -3.1415926535897922 $206 3.141592653589794 $135 $207 forward @7 unknown #
coedge $-1 -1 $-1 $137 $137 $90 $138 reversed $130 $-1 #
edge $208 -1 $-1 $209 -3.1415926535897927 $209 3.1415926535897936 $90 $210 forward @7 unknown #
loop $-1 -1 $-1 $-1 $91 $129 #
attrib_edge_convexity-kcp-attrib $-1 -1 $211 $-1 $92 2 #
vertex $-1 -1 $-1 $92 $212 #
ellipse-curve $-1 -1 $-1 0 4.9989999999999997 7.1353999999999997 0 1 0 0.13258252147247762 0 0.13258252147247762 1 I I #
attrib_edge_convexity-kcp-attrib $-1 -1 $213 $-1 $94 1 #
vertex $214 -1 $-1 $94 $215 #
ellipse-curve $-1 -1 $-1 0 5.0299999999999994 7.1353999999999997 0 -1 0 0.088388347648318419 0 0.088388347648318419 1 I I #
convexity-sys-attrib $-1 -1 $-1 $96 $65 #
point $-1 -1 $-1 0.19869700551341982 5.0299999999999994 7.3340970055134198 #
loop $-1 -1 $-1 $216 $217 $99 #
plane-surface $-1 -1 $-1 0.015657918177037083 0.0065000000000002833 0.015657918177037065 0 1 0 0 0 1 forward_v I I I I #
loop $-1 -1 $-1 $-1 $105 $66 #
coedge $-1 -1 $-1 $151 $151 $103 $153 reversed $100 $-1 #
coedge $-1 -1 $-1 $152 $152 $217 $218 reversed $102 $-1 #
edge $-1 -1 $-1 $219 -3.1415926535897931 $219 3.1415926535897931 $103 $220 forward @7 unknown #
coedge $-1 -1 $-1 $154 $154 $104 $155 forward $216 $-1 #
edge $221 -1 $-1 $222 -3.1415926535897922 $222 3.141592653589794 $104 $223 forward @7 unknown #
vertex $-1 -1 $-1 $106 $224 #
ellipse-curve $-1 -1 $-1 2.7755575615628914e-017 -0.037499999999999312 0 0 -1 0 -0.13258252147247762 0 -0.13258252147247762 1 I I #
face $225 -1 $-1 $226 $227 $25 $-1 $228 reversed single #
loop $-1 -1 $-1 $-1 $229 $108 #
plane-surface $-1 -1 $-1 -0.28099999999999992 0 0 1 0 0 0 0 -1 forward_v I I I I #
coedge $-1 -1 $-1 $230 $169 $231 $232 forward $109 $-1 #
coedge $-1 -1 $-1 $233 $111 $230 $234 forward $72 $-1 #
coedge $-1 -1 $-1 $111 $233 $235 $236 forward $72 $-1 #
coedge $-1 -1 $-1 $172 $171 $111 $165 reversed $173 $-1 #
edge $-1 -1 $-1 $237 -0.037499999999999645 $238 0.037499999999999645 $164 $239 forward @7 unknown #
coedge $-1 -1 $-1 $113 $112 $240 $241 forward $48 $-1 #
coedge $-1 -1 $-1 $242 $243 $112 $168 reversed $227 $-1 #
edge $-1 -1 $-1 $175 -0.28099999999999992 $244 0.28099999999999992 $167 $245 forward @7 unknown #
coedge $-1 -1 $-1 $161 $246 $113 $170 reversed $109 $-1 #
edge $-1 -1 $-1 $247 -0.28099999999999992 $174 0.28099999999999992 $169 $248 forward @7 unknown #
coedge $-1 -1 $-1 $164 $114 $246 $249 forward $173 $-1 #
coedge $-1 -1 $-1 $114 $164 $242 $250 reversed $173 $-1 #
loop $-1 -1 $-1 $-1 $171 $226 #
vertex $-1 -1 $-1 $115 $251 #
vertex $-1 -1 $-1 $115 $252 #
straight-curve $-1 -1 $-1 0.28099999999999992 0 0.28100000000000058 0 1 0 I I #
coedge $-1 -1 $-1 $177 $177 $119 $178 forward $116 $-1 #
edge $-1 -1 $-1 $253 0 $253 6.2831853071795862 $177 $254 forward @7 unknown #
vertex $-1 -1 $-1 $120 $255 #
ellipse-curve $-1 -1 $-1 0 0 -0.037499999999999645 0 0 -1 0.12499999999999997 0 0 1 I I #
face $-1 -1 $-1 $256 $257 $29 $-1 $258 forward single #
loop $-1 -1 $-1 $-1 $259 $121 #
coedge $-1 -1 $-1 $260 $261 $259 $262 forward $122 $-1 #
coedge $-1 -1 $-1 $263 $123 $264 $265 reversed $81 $-1 #
coedge $-1 -1 $-1 $123 $263 $125 $192 forward $81 $-1 #
coedge $-1 -1 $-1 $266 $267 $123 $187 forward $268 $-1 #
edge $-1 -1 $-1 $269 2.3561944901923444 $270 3.9269908169872405 $186 $271 forward @7 unknown #
coedge $-1 -1 $-1 $125 $124 $272 $273 reversed $54 $-1 #
coedge $-1 -1 $-1 $261 $260 $274 $190 reversed $122 $-1 #
edge $-1 -1 $-1 $196 -0.074999999999999289 $275 0 $274 $276 forward @7 unknown #
coedge $-1 -1 $-1 $277 $278 $279 $192 forward $280 $-1 #
edge $-1 -1 $-1 $197 -0.074999999999999289 $270 0 $191 $281 forward @7 unknown #
coedge $-1 -1 $-1 $194 $126 $278 $282 reversed $195 $-1 #
coedge $-1 -1 $-1 $126 $193 $283 $284 forward $195 $-1 #
loop $-1 -1 $-1 $-1 $126 $285 #
vertex $-1 -1 $-1 $286 $287 #
vertex $-1 -1 $-1 $288 $289 #
ellipse-curve $-1 -1 $-1 2.7755575615628904e-017 -0.037499999999999645 0 0 1 0 -0.19869700551341971 0 -0.19869700551341996 1 I I #
model_id-kcp-attrib $-1 -1 $-1 $-1 $129 1 1021323907 1021323908 -1051000831 7 #
loop $-1 -1 $-1 $139 $203 $129 #
cone-surface $-1 -1 $-1 0 4.9512499999999999 7.1353999999999997 0 1 0 -0.13258252147247762 0 -0.13258252147247762 1 I I 0 1 0.18749999999999997 forward I I I I #
model_id-kcp-attrib $-1 -1 $-1 $-1 $133 1 1021323907 1021323908 -1051000831 11 #
coedge $-1 -1 $-1 $203 $203 $134 $204 reversed $200 $-1 #
edge $-1 -1 $-1 $290 -3.1415926535897922 $290 3.141592653589794 $134 $291 forward @7 unknown #
attrib_edge_convexity-kcp-attrib $-1 -1 $292 $-1 $136 1 #
vertex $293 -1 $-1 $136 $294 #
ellipse-curve $-1 -1 $-1 0 4.9550000000000001 7.1353999999999997 0 1 0 0.088388347648318419 0 0.088388347648318419 1 I I #
attrib_edge_convexity-kcp-attrib $-1 -1 $295 $-1 $138 1 #
vertex $-1 -1 $-1 $138 $296 #
ellipse-curve $-1 -1 $-1 0 4.9989999999999997 7.1353999999999997 0 -1 0 0.19869700551341982 0 0.19869700551341982 1 I I #
convexity-sys-attrib $-1 -1 $-1 $140 $92 #
point $-1 -1 $-1 0.13258252147247762 4.9989999999999997 7.2679825214724776 #
convexity-sys-attrib $-1 -1 $-1 $143 $94 #
model_id-kcp-attrib $-1 -1 $-1 $-1 $144 1 1021323907 1021323908 -1051000831 14 #
point $-1 -1 $-1 -0.088388347648318419 5.0299999999999994 7.0470116523516815 #
loop $-1 -1 $-1 $-1 $154 $99 #
coedge $-1 -1 $-1 $217 $217 $152 $218 forward $148 $-1 #
edge $297 -1 $-1 $298 -3.1415926535897931 $298 3.1415926535897931 $152 $299 forward @7 unknown #
vertex $-1 -1 $-1 $153 $300 #
ellipse-curve $-1 -1 $-1 2.7755575615628904e-017 -0.037499999999999312 0 0 1 0 -0.19869700551341971 0 -0.19869700551341996 1 I I #
convexity-sys-attrib $-1 -1 $-1 $-1 $155 #
vertex $-1 -1 $-1 $155 $301 #
ellipse-curve $-1 -1 $-1 2.7755575615628914e-017 0.0065000000000002833 0 0 -1 0 -0.13258252147247762 0 -0.13258252147247762 1 I I #
point $-1 -1 $-1 0.13258252147247765 -0.037499999999999645 0.13258252147247784 #
model_id-kcp-attrib $-1 -1 $-1 $-1 $158 1 1021323907 1021323908 -1051000830 2 #
face $-1 -1 $-1 $-1 $173 $25 $-1 $302 reversed single #
loop $-1 -1 $-1 $-1 $242 $158 #
plane-surface $-1 -1 $-1 0 0.037499999999999645 0 0 -1 0 0 0 -1 forward_v I I I I #
coedge $-1 -1 $-1 $303 $240 $243 $304 forward $159 $-1 #
coedge $-1 -1 $-1 $246 $161 $162 $234 reversed $109 $-1 #
coedge $-1 -1 $-1 $240 $303 $161 $232 reversed $159 $-1 #
edge $-1 -1 $-1 $247 -0.28100000000000058 $305 0.28100000000000058 $231 $306 forward @7 unknown #
coedge $-1 -1 $-1 $163 $162 $303 $307 forward $72 $-1 #
edge $-1 -1 $-1 $238 -0.28099999999999992 $305 0.28099999999999992 $230 $308 forward @7 unknown #
coedge $-1 -1 $-1 $243 $242 $163 $236 reversed $227 $-1 #
edge $-1 -1 $-1 $309 -0.28099999999999992 $237 0.28099999999999992 $235 $310 forward @7 unknown #
vertex $-1 -1 $-1 $165 $311 #
vertex $-1 -1 $-1 $249 $312 #
straight-curve $-1 -1 $-1 0.28099999999999992 0 -0.28100000000000058 0 -1 0 I I #
coedge $-1 -1 $-1 $229 $231 $166 $241 reversed $159 $-1 #
edge $-1 -1 $-1 $244 -0.037499999999999645 $247 0.037499999999999645 $240 $313 forward @7 unknown #
coedge $-1 -1 $-1 $235 $167 $172 $250 forward $227 $-1 #
coedge $-1 -1 $-1 $167 $235 $229 $304 reversed $227 $-1 #
vertex $-1 -1 $-1 $168 $314 #
straight-curve $-1 -1 $-1 0 0.037499999999999645 0.28100000000000058 -1 0 0 I I #
coedge $-1 -1 $-1 $169 $230 $171 $249 reversed $109 $-1 #
vertex $-1 -1 $-1 $241 $315 #
straight-curve $-1 -1 $-1 0 -0.037499999999999645 0.28100000000000058 1 0 0 I I #
edge $-1 -1 $-1 $174 -0.28100000000000058 $238 0.28100000000000058 $171 $316 forward @7 unknown #
edge $-1 -1 $-1 $175 -0.28100000000000058 $237 0.28100000000000058 $172 $317 forward @7 unknown #
point $-1 -1 $-1 0.28099999999999992 -0.037499999999999645 0.28100000000000058 #
point $-1 -1 $-1 0.28099999999999992 0.037499999999999645 0.28100000000000058 #
vertex $-1 -1 $-1 $178 $318 #
ellipse-curve $-1 -1 $-1 0 0 0.037499999999999645 0 0 1 0.12499999999999997 0 0 1 I I #
point $-1 -1 $-1 0.12499999999999997 0 -0.037499999999999645 #
face $-1 -1 $-1 $319 $320 $29 $-1 $321 reversed single #
loop $-1 -1 $-1 $-1 $279 $181 #
plane-surface $-1 -1 $-1 0 0 0.28100000000000058 0 0 1 1 0 0 forward_v I I I I #
coedge $-1 -1 $-1 $322 $323 $324 $262 reversed $182 $-1 #
coedge $-1 -1 $-1 $189 $183 $325 $326 reversed $122 $-1 #
coedge $-1 -1 $-1 $183 $189 $327 $328 reversed $122 $-1 #
edge $-1 -1 $-1 $329 -0.074999999999999289 $330 0 $324 $331 forward @7 unknown #
coedge $-1 -1 $-1 $185 $184 $332 $333 reversed $81 $-1 #
coedge $-1 -1 $-1 $334 $335 $336 $265 forward $337 $-1 #
edge $-1 -1 $-1 $338 -0.074999999999999289 $269 0 $264 $339 forward @7 unknown #
coedge $-1 -1 $-1 $267 $186 $340 $341 reversed $268 $-1 #
coedge $-1 -1 $-1 $186 $266 $334 $342 forward $268 $-1 #
loop $-1 -1 $-1 $-1 $186 $343 #
vertex $-1 -1 $-1 $344 $345 #
vertex $-1 -1 $-1 $346 $347 #
ellipse-curve $-1 -1 $-1 2.7755575615628904e-017 0.037499999999999645 0 0 -1 0 -0.19869700551341971 0 -0.19869700551341996 1 I I #
coedge $-1 -1 $-1 $348 $349 $188 $273 forward $350 $-1 #
edge $-1 -1 $-1 $270 -2.3561944901923457 $275 -0.78539816339744895 $272 $271 forward @7 unknown #
coedge $-1 -1 $-1 $351 $352 $353 $190 forward $320 $-1 #
vertex $-1 -1 $-1 $354 $355 #
straight-curve $-1 -1 $-1 -0.28099999999999992 0.037499999999999645 0 0 1 0 I I #
coedge $-1 -1 $-1 $356 $191 $349 $346 forward $280 $-1 #
coedge $-1 -1 $-1 $191 $356 $193 $282 forward $280 $-1 #
coedge $-1 -1 $-1 $357 $340 $185 $192 reversed $257 $-1 #
loop $-1 -1 $-1 $-1 $191 $358 #
straight-curve $-1 -1 $-1 2.7755575615628904e-017 0.037499999999999645 0.28100000000000058 0 1 0 I I #
edge $-1 -1 $-1 $359 -0.28099999999999992 $197 2.7755575615628904e-017 $193 $360 forward @7 unknown #
coedge $-1 -1 $-1 $361 $353 $194 $284 reversed $362 $-1 #
edge $-1 -1 $-1 $359 -0.28100000000000058 $196 0 $283 $363 forward @7 unknown #
face $-1 -1 $-1 $364 $195 $29 $-1 $365 reversed single #
edge $-1 -1 $-1 $196 0 $366 0.28100000000000058 $352 $363 forward @7 unknown #
point $-1 -1 $-1 -0.28099999999999992 -0.037499999999999645 0 #
edge $-1 -1 $-1 $197 2.7755575615628904e-017 $367 0.28099999999999992 $368 $360 forward @7 unknown #
point $-1 -1 $-1 2.7755575615628904e-017 -0.037499999999999645 0.28100000000000058 #
vertex $-1 -1 $-1 $204 $369 #
ellipse-curve $-1 -1 $-1 0 4.9550000000000001 7.1353999999999997 0 -1 0 0.13258252147247762 0 0.13258252147247762 1 I I #
convexity-sys-attrib $-1 -1 $-1 $205 $136 #
model_id-kcp-attrib $-1 -1 $-1 $-1 $206 1 1021323907 1021323908 -1051000831 15 #
point $-1 -1 $-1 -0.088388347648318419 4.9550000000000001 7.0470116523516815 #
convexity-sys-attrib $-1 -1 $-1 $208 $138 #
point $-1 -1 $-1 -0.19869700551341982 4.9989999999999997 6.9367029944865797 #
convexity-sys-attrib $-1 -1 $-1 $-1 $218 #
vertex $-1 -1 $-1 $218 $370 #
ellipse-curve $-1 -1 $-1 2.7755575615628904e-017 0.0065000000000002833 0 0 1 0 -0.19869700551341971 0 -0.19869700551341996 1 I I #
point $-1 -1 $-1 0.19869700551341976 -0.037499999999999312 0.19869700551341993 #
point $-1 -1 $-1 0.13258252147247765 0.0064999999999999503 0.13258252147247784 #
plane-surface $-1 -1 $-1 0.28099999999999992 0 0 -1 0 0 0 0 1 forward_v I I I I #
coedge $-1 -1 $-1 $231 $229 $233 $307 reversed $159 $-1 #
edge $-1 -1 $-1 $244 -0.28100000000000058 $309 0.28100000000000058 $243 $371 forward @7 unknown #
vertex $-1 -1 $-1 $307 $372 #
straight-curve $-1 -1 $-1 -0.28099999999999992 -0.037499999999999645 0 0 0 -1 I I #
edge $-1 -1 $-1 $305 -0.037499999999999645 $309 0.037499999999999645 $303 $373 forward @7 unknown #
straight-curve $-1 -1 $-1 0 -0.037499999999999645 -0.28100000000000058 -1 0 0 I I #
vertex $-1 -1 $-1 $236 $374 #
straight-curve $-1 -1 $-1 0 0.037499999999999645 -0.28100000000000058 1 0 0 I I #
point $-1 -1 $-1 0.28099999999999992 0.037499999999999645 -0.28100000000000058 #
point $-1 -1 $-1 0.28099999999999992 -0.037499999999999645 -0.28100000000000058 #
straight-curve $-1 -1 $-1 -0.28099999999999992 0 0.28100000000000058 0 -1 0 I I #
point $-1 -1 $-1 -0.28099999999999992 0.037499999999999645 0.28100000000000058 #
point $-1 -1 $-1 -0.28099999999999992 -0.037499999999999645 0.28100000000000058 #
straight-curve $-1 -1 $-1 0.28099999999999992 -0.037499999999999645 0 0 0 -1 I I #
straight-curve $-1 -1 $-1 0.28099999999999992 0.037499999999999645 0 0 0 -1 I I #
point $-1 -1 $-1 0.12499999999999997 0 0.037499999999999645 #
face $-1 -1 $-1 $375 $376 $29 $-1 $377 reversed single #
loop $-1 -1 $-1 $-1 $274 $256 #
plane-surface $-1 -1 $-1 -0.28099999999999992 0 0 1 0 0 0 0 -1 forward_v I I I I #
coedge $-1 -1 $-1 $378 $259 $379 $380 reversed $182 $-1 #
coedge $-1 -1 $-1 $259 $378 $381 $382 reversed $182 $-1 #
coedge $-1 -1 $-1 $383 $384 $385 $262 forward $386 $-1 #
coedge $-1 -1 $-1 $387 $388 $260 $326 forward $389 $-1 #
edge $-1 -1 $-1 $275 -0.78539816339744895 $330 0.78539816339744772 $325 $271 forward @7 unknown #
coedge $-1 -1 $-1 $390 $391 $261 $328 forward $392 $-1 #
edge $-1 -1 $-1 $329 -0.78539816339744772 $196 0.78539816339744895 $327 $198 forward @7 unknown #
vertex $-1 -1 $-1 $393 $394 #
vertex $-1 -1 $-1 $395 $396 #
straight-curve $-1 -1 $-1 2.7755575615628904e-017 0.037499999999999645 -0.28100000000000058 0 1 0 I I #
coedge $-1 -1 $-1 $397 $368 $263 $333 forward $398 $-1 #
edge $-1 -1 $-1 $197 2.3561944901923457 $338 3.9269908169872418 $332 $198 forward @7 unknown #
coedge $-1 -1 $-1 $399 $264 $267 $342 reversed $337 $-1 #
coedge $-1 -1 $-1 $264 $399 $397 $400 forward $337 $-1 #
coedge $-1 -1 $-1 $401 $402 $378 $265 reversed $376 $-1 #
loop $-1 -1 $-1 $-1 $264 $403 #
vertex $-1 -1 $-1 $404 $405 #
straight-curve $-1 -1 $-1 0.28099999999999992 0.037499999999999645 0 0 1 0 I I #
coedge $-1 -1 $-1 $279 $406 $266 $341 forward $257 $-1 #
edge $-1 -1 $-1 $407 -0.28099999999999992 $270 -2.7755575615628904e-017 $266 $408 forward @7 unknown #
edge $-1 -1 $-1 $407 -0.28100000000000058 $269 0 $334 $409 forward @7 unknown #
face $-1 -1 $-1 $410 $268 $29 $-1 $411 reversed single #
edge $-1 -1 $-1 $269 0 $412 0.28100000000000058 $402 $409 forward @7 unknown #
point $-1 -1 $-1 0.28099999999999992 0.037499999999999645 0 #
edge $-1 -1 $-1 $270 -2.7755575615628904e-017 $413 0.28099999999999992 $349 $408 forward @7 unknown #
point $-1 -1 $-1 2.7755575615628904e-017 0.037499999999999645 0.28100000000000058 #
coedge $-1 -1 $-1 $349 $272 $414 $415 reversed $350 $-1 #
coedge $-1 -1 $-1 $272 $348 $277 $346 reversed $350 $-1 #
loop $-1 -1 $-1 $-1 $272 $410 #
coedge $-1 -1 $-1 $416 $274 $388 $354 forward $320 $-1 #
coedge $-1 -1 $-1 $274 $416 $390 $286 reversed $320 $-1 #
coedge $-1 -1 $-1 $283 $414 $124 $190 reversed $362 $-1 #
edge $-1 -1 $-1 $275 0 $417 0.28100000000000058 $388 $418 forward @7 unknown #
point $-1 -1 $-1 -0.28099999999999992 0.037499999999999645 0 #
coedge $-1 -1 $-1 $278 $277 $361 $419 forward $280 $-1 #
coedge $-1 -1 $-1 $406 $279 $368 $288 forward $257 $-1 #
face $-1 -1 $-1 $420 $280 $29 $-1 $258 forward single #
vertex $-1 -1 $-1 $419 $421 #
straight-curve $-1 -1 $-1 0 -0.037499999999999645 0.28100000000000058 1 0 0 I I #
coedge $-1 -1 $-1 $414 $283 $356 $419 reversed $362 $-1 #
loop $-1 -1 $-1 $-1 $353 $422 #
straight-curve $-1 -1 $-1 -0.28099999999999992 -0.037499999999999645 0 0 0 -1 I I #
face $-1 -1 $-1 $423 $398 $29 $-1 $365 reversed single #
plane-surface $-1 -1 $-1 0 -0.037499999999999645 0 0 1 0 0 0 1 forward_v I I I I #
vertex $-1 -1 $-1 $424 $425 #
vertex $-1 -1 $-1 $426 $427 #
coedge $-1 -1 $-1 $332 $397 $357 $288 reversed $398 $-1 #
point $-1 -1 $-1 -0.13258252147247762 4.9550000000000001 7.0028174785275219 #
point $-1 -1 $-1 0.19869700551341976 0.0065000000000002833 0.19869700551341993 #
straight-curve $-1 -1 $-1 -0.28099999999999992 0.037499999999999645 0 0 0 -1 I I #
point $-1 -1 $-1 -0.28099999999999992 -0.037499999999999645 -0.28100000000000058 #
straight-curve $-1 -1 $-1 -0.28099999999999992 0 -0.28100000000000058 0 1 0 I I #
point $-1 -1 $-1 -0.28099999999999992 0.037499999999999645 -0.28100000000000058 #
face $-1 -1 $-1 $343 $428 $29 $-1 $411 reversed single #
loop $-1 -1 $-1 $-1 $336 $319 #
plane-surface $-1 -1 $-1 0.28099999999999992 0 0 -1 0 0 0 0 1 forward_v I I I I #
coedge $-1 -1 $-1 $323 $322 $184 $265 forward $182 $-1 #
coedge $-1 -1 $-1 $429 $430 $322 $380 forward $431 $-1 #
edge $-1 -1 $-1 $338 -2.3561944901923444 $329 -0.78539816339744772 $379 $198 forward @7 unknown #
coedge $-1 -1 $-1 $432 $433 $323 $382 forward $428 $-1 #
edge $-1 -1 $-1 $330 0.78539816339744772 $269 2.3561944901923444 $381 $271 forward @7 unknown #
coedge $-1 -1 $-1 $434 $324 $433 $395 forward $386 $-1 #
coedge $-1 -1 $-1 $324 $434 $429 $435 forward $386 $-1 #
coedge $-1 -1 $-1 $436 $437 $183 $262 reversed $438 $-1 #
loop $-1 -1 $-1 $-1 $324 $420 #
coedge $-1 -1 $-1 $388 $325 $437 $439 reversed $389 $-1 #
coedge $-1 -1 $-1 $325 $387 $351 $354 reversed $389 $-1 #
loop $-1 -1 $-1 $-1 $325 $440 #
coedge $-1 -1 $-1 $391 $327 $352 $286 forward $392 $-1 #
coedge $-1 -1 $-1 $327 $390 $436 $393 reversed $392 $-1 #
loop $-1 -1 $-1 $-1 $327 $441 #
edge $-1 -1 $-1 $329 -2.7755575615628904e-017 $366 0.28099999999999992 $391 $442 forward @7 unknown #
point $-1 -1 $-1 2.7755575615628904e-017 -0.037499999999999645 -0.28100000000000058 #
edge $-1 -1 $-1 $330 2.7755575615628904e-017 $412 0.28099999999999992 $433 $443 forward @7 unknown #
point $-1 -1 $-1 2.7755575615628904e-017 0.037499999999999645 -0.28100000000000058 #
coedge $-1 -1 $-1 $368 $332 $335 $400 reversed $398 $-1 #
loop $-1 -1 $-1 $-1 $332 $364 #
coedge $-1 -1 $-1 $335 $334 $406 $426 reversed $337 $-1 #
edge $-1 -1 $-1 $367 -0.28100000000000058 $338 0 $335 $444 forward @7 unknown #
coedge $-1 -1 $-1 $445 $336 $430 $404 forward $376 $-1 #
coedge $-1 -1 $-1 $336 $445 $432 $344 reversed $376 $-1 #
face $-1 -1 $-1 $-1 $337 $29 $-1 $377 reversed single #
edge $-1 -1 $-1 $338 0 $446 0.28100000000000058 $401 $444 forward @7 unknown #
point $-1 -1 $-1 0.28099999999999992 -0.037499999999999645 0 #
coedge $-1 -1 $-1 $340 $357 $399 $426 forward $257 $-1 #
vertex $-1 -1 $-1 $426 $447 #
straight-curve $-1 -1 $-1 0 0.037499999999999645 0.28100000000000058 -1 0 0 I I #
straight-curve $-1 -1 $-1 0.28099999999999992 0.037499999999999645 0 0 0 -1 I I #
face $-1 -1 $-1 $440 $350 $29 $-1 $411 reversed single #
plane-surface $-1 -1 $-1 0 0.037499999999999645 0 0 -1 0 0 0 -1 forward_v I I I I #
vertex $-1 -1 $-1 $448 $449 #
vertex $-1 -1 $-1 $346 $450 #
coedge $-1 -1 $-1 $353 $361 $348 $415 forward $362 $-1 #
edge $-1 -1 $-1 $413 -0.28100000000000058 $275 0 $348 $418 forward @7 unknown #
coedge $-1 -1 $-1 $352 $351 $451 $424 reversed $320 $-1 #
vertex $-1 -1 $-1 $439 $452 #
straight-curve $-1 -1 $-1 -0.28099999999999992 0.037499999999999645 0 0 0 -1 I I #
edge $-1 -1 $-1 $413 -0.037499999999999645 $359 0.037499999999999645 $361 $453 forward @7 unknown #
face $-1 -1 $-1 $422 $386 $29 $-1 $454 reversed single #
point $-1 -1 $-1 -0.28099999999999992 -0.037499999999999645 0.28100000000000058 #
face $-1 -1 $-1 $403 $362 $29 $-1 $321 reversed single #
face $-1 -1 $-1 $455 $431 $29 $-1 $365 reversed single #
edge $-1 -1 $-1 $366 -0.037499999999999645 $417 0.037499999999999645 $416 $456 forward @7 unknown #
point $-1 -1 $-1 -0.28099999999999992 -0.037499999999999645 -0.28100000000000058 #
edge $-1 -1 $-1 $367 -0.037499999999999645 $407 0.037499999999999645 $399 $457 forward @7 unknown #
point $-1 -1 $-1 0.28099999999999992 -0.037499999999999645 0.28100000000000058 #
loop $-1 -1 $-1 $-1 $381 $375 #
coedge $-1 -1 $-1 $430 $379 $384 $435 reversed $431 $-1 #
coedge $-1 -1 $-1 $379 $429 $401 $404 reversed $431 $-1 #
loop $-1 -1 $-1 $-1 $379 $423 #
coedge $-1 -1 $-1 $433 $381 $402 $344 forward $428 $-1 #
coedge $-1 -1 $-1 $381 $432 $383 $395 reversed $428 $-1 #
coedge $-1 -1 $-1 $384 $383 $445 $448 forward $386 $-1 #
edge $-1 -1 $-1 $446 -0.28099999999999992 $329 -2.7755575615628904e-017 $429 $442 forward @7 unknown #
coedge $-1 -1 $-1 $451 $385 $391 $393 forward $438 $-1 #
coedge $-1 -1 $-1 $385 $451 $387 $439 forward $438 $-1 #
loop $-1 -1 $-1 $-1 $385 $455 #
edge $-1 -1 $-1 $417 -0.28099999999999992 $330 2.7755575615628904e-017 $387 $443 forward @7 unknown #
face $-1 -1 $-1 $441 $389 $29 $-1 $411 reversed single #
face $-1 -1 $-1 $285 $392 $29 $-1 $365 reversed single #
straight-curve $-1 -1 $-1 0 -0.037499999999999645 -0.28100000000000058 -1 0 0 I I #
straight-curve $-1 -1 $-1 0 0.037499999999999645 -0.28100000000000058 1 0 0 I I #
straight-curve $-1 -1 $-1 0.28099999999999992 -0.037499999999999645 0 0 0 -1 I I #
coedge $-1 -1 $-1 $402 $401 $434 $448 reversed $376 $-1 #
vertex $-1 -1 $-1 $404 $458 #
point $-1 -1 $-1 0.28099999999999992 0.037499999999999645 0.28100000000000058 #
edge $-1 -1 $-1 $412 -0.037499999999999645 $446 0.037499999999999645 $445 $459 forward @7 unknown #
point $-1 -1 $-1 0.28099999999999992 0.037499999999999645 -0.28100000000000058 #
point $-1 -1 $-1 -0.28099999999999992 0.037499999999999645 0.28100000000000058 #
coedge $-1 -1 $-1 $437 $436 $416 $424 forward $438 $-1 #
point $-1 -1 $-1 -0.28099999999999992 0.037499999999999645 -0.28100000000000058 #
straight-curve $-1 -1 $-1 -0.28099999999999992 0 0.28100000000000058 0 -1 0 I I #
plane-surface $-1 -1 $-1 0 0 -0.28100000000000058 0 0 1 1 0 0 forward_v I I I I #
face $-1 -1 $-1 $358 $438 $29 $-1 $454 reversed single #
straight-curve $-1 -1 $-1 -0.28099999999999992 0 -0.28100000000000058 0 1 0 I I #
straight-curve $-1 -1 $-1 0.28099999999999992 0 0.28100000000000058 0 1 0 I I #
point $-1 -1 $-1 0.28099999999999992 -0.037499999999999645 -0.28100000000000058 #
straight-curve $-1 -1 $-1 0.28099999999999992 0 -0.28100000000000058 0 -1 0 I I #
End-of-ACIS-data 