600 0 1 0           
111 GICL ACIS Healer - Source: /gicl/data5/repository/PTC/V20/web_demos/models/thread-turn/dp-bracket.prt.sat - 6 0 18 ACIS 6.0.3 Solaris 24 Sat Apr 13 20:48:47 2002 
1 9.999999999999999547e-07 1.000000000000000036e-10 
body $-1 $1 $-1 $-1 #
lump $-1 $-1 $2 $0 #
shell $-1 $-1 $-1 $3 $-1 $1 #
face $-1 $4 $5 $2 $-1 $6 reversed single #
face $-1 $7 $8 $2 $-1 $9 reversed single #
loop $-1 $10 $11 $3 #
plane-surface $-1 -12.69999999999999929 0 0 1 0 0 0 0 -25.39999999999999858 forward_v I I I I #
face $-1 $12 $13 $2 $-1 $9 reversed single #
loop $-1 $-1 $14 $4 #
cone-surface $-1 88.89999999999999147 0 0 -1 0 0 0 -25.39999999999999858 0 1 I I 0 1 25.39999999999999858 forward I I I I #
loop $-1 $15 $16 $3 #
coedge $-1 $17 $17 $18 $19 reversed $5 $-1 #
face $-1 $20 $21 $2 $-1 $22 forward single #
loop $-1 $-1 $23 $7 #
coedge $-1 $24 $18 $25 $26 reversed $8 $-1 #
loop $-1 $27 $28 $3 #
coedge $-1 $29 $30 $31 $32 reversed $10 $-1 #
coedge $-1 $11 $11 $33 $34 reversed $5 $-1 #
coedge $-1 $14 $35 $11 $19 forward $8 $-1 #
edge $-1 $36 -3.141592653589793116 $37 -0 $11 $38 reversed 7 unknown #
face $-1 $39 $40 $2 $-1 $41 forward single #
loop $-1 $42 $43 $12 #
plane-surface $-1 88.89999999999999147 0 0 1 0 0 0 0 -25.39999999999999858 forward_v I I I I #
coedge $-1 $44 $33 $35 $45 reversed $13 $-1 #
coedge $-1 $35 $14 $46 $47 reversed $8 $-1 #
coedge $-1 $33 $44 $14 $26 forward $13 $-1 #
edge $-1 $48 0 $37 4 $25 $49 forward 7 unknown #
loop $-1 $50 $51 $3 #
coedge $-1 $52 $52 $53 $54 forward $15 $-1 #
coedge $-1 $55 $16 $56 $57 forward $10 $-1 #
coedge $-1 $16 $58 $59 $60 forward $10 $-1 #
coedge $-1 $61 $62 $16 $32 forward $63 $-1 #
edge $-1 $64 -19.04999999999999716 $65 82.54999999999999716 $16 $66 forward 7 unknown #
coedge $-1 $23 $25 $17 $34 forward $13 $-1 #
edge $-1 $37 -0 $36 3.141592653589793116 $17 $67 reversed 7 unknown #
coedge $-1 $18 $24 $23 $45 forward $8 $-1 #
vertex $-1 $34 $68 #
vertex $-1 $34 $69 #
ellipse-curve $-1 -12.70000000000000284 0 0 1 0 0 0 -25.39999999999999858 0 1 I I #
face $-1 $70 $71 $2 $-1 $41 forward single #
loop $-1 $-1 $72 $20 #
cone-surface $-1 12.69999999999999929 0 0 1 0 0 0 0 -31.74999999999999289 1 I I 0 1 31.75 forward I I I I #
loop $-1 $-1 $46 $12 #
coedge $-1 $73 $73 $74 $75 forward $21 $-1 #
coedge $-1 $25 $23 $76 $77 reversed $13 $-1 #
edge $-1 $78 -6.289966827747188094e-32 $36 4 $23 $79 forward 7 unknown #
coedge $-1 $76 $76 $24 $47 forward $42 $-1 #
edge $-1 $78 -3.141592653589793116 $48 -0 $46 $80 reversed 7 unknown #
vertex $-1 $77 $81 #
straight-curve $-1 88.89999999999999147 -25.39999999999999858 0 -25.39999999999999858 0 0 I I #
loop $-1 $82 $83 $3 #
coedge $-1 $84 $84 $85 $86 reversed $27 $-1 #
coedge $-1 $28 $28 $87 $88 forward $15 $-1 #
coedge $-1 $89 $90 $28 $54 reversed $91 $-1 #
edge $-1 $92 -3.141592653589793116 $93 0 $28 $94 forward 7 unknown #
coedge $-1 $95 $29 $96 $97 reversed $10 $-1 #
coedge $-1 $98 $99 $29 $57 reversed $100 $-1 #
edge $-1 $64 -1.570796326794896558 $101 -0 $29 $102 reversed 7 unknown #
coedge $-1 $30 $103 $104 $105 reversed $10 $-1 #
coedge $-1 $106 $107 $30 $60 reversed $108 $-1 #
edge $-1 $109 -1.570796326794896558 $65 -0 $30 $110 reversed 7 unknown #
coedge $-1 $111 $31 $107 $112 reversed $63 $-1 #
coedge $-1 $31 $111 $98 $113 forward $63 $-1 #
loop $-1 $-1 $62 $114 #
vertex $-1 $57 $115 #
vertex $-1 $60 $116 #
straight-curve $-1 -12.69999999999999929 63.5 -31.75 0 0 1 I I #
ellipse-curve $-1 -12.70000000000000284 0 0 1 0 0 0 -25.39999999999999858 0 1 I I #
point $-1 -12.69999999999999929 25.39999999999999858 0 #
point $-1 -12.69999999999999929 -25.39999999999999858 0 #
face $-1 $117 $118 $2 $-1 $119 reversed single #
loop $-1 $-1 $120 $39 #
coedge $-1 $74 $121 $122 $123 forward $40 $-1 #
coedge $-1 $43 $43 $124 $125 forward $21 $-1 #
coedge $-1 $126 $72 $43 $75 reversed $40 $-1 #
edge $-1 $127 -3.141592653589793116 $128 0 $43 $129 forward 7 unknown #
coedge $-1 $46 $46 $44 $77 forward $42 $-1 #
edge $-1 $48 -0 $78 3.141592653589793116 $76 $130 reversed 7 unknown #
vertex $-1 $77 $131 #
straight-curve $-1 88.89999999999999147 25.39999999999999858 1.439036606890042679e-14 -25.39999999999999858 0 2.819966482547897455e-15 I I #
ellipse-curve $-1 88.89999999999999147 0 0 1 0 0 0 -25.39999999999999858 0 1 I I #
point $-1 88.89999999999999147 -25.39999999999999858 0 #
loop $-1 $-1 $132 $3 #
coedge $-1 $133 $133 $134 $135 reversed $50 $-1 #
coedge $-1 $51 $51 $136 $137 reversed $27 $-1 #
coedge $-1 $138 $139 $51 $86 forward $140 $-1 #
edge $-1 $141 -3.141592653589793116 $142 -0 $51 $143 reversed 7 unknown #
coedge $-1 $144 $145 $52 $88 reversed $146 $-1 #
edge $-1 $93 0 $92 3.141592653589793116 $52 $147 forward 7 unknown #
coedge $-1 $148 $53 $145 $149 reversed $91 $-1 #
coedge $-1 $53 $148 $144 $150 forward $91 $-1 #
loop $-1 $-1 $90 $151 #
vertex $-1 $88 $152 #
vertex $-1 $88 $153 #
ellipse-curve $-1 -12.69999999999999929 -45.71999999999999176 -45.71999999999999176 1 0 0 0 6.349999999999999645 0 1 I I #
coedge $-1 $154 $55 $155 $156 forward $10 $-1 #
coedge $-1 $157 $158 $55 $97 forward $159 $-1 #
edge $-1 $160 -19.04999999999999716 $101 82.54999999999999716 $55 $161 forward 7 unknown #
coedge $-1 $162 $56 $62 $113 reversed $100 $-1 #
coedge $-1 $56 $162 $157 $163 forward $100 $-1 #
loop $-1 $-1 $99 $164 #
vertex $-1 $97 $165 #
ellipse-curve $-1 -12.70000000000000107 50.79999999999999716 -50.79999999999999716 1 0 0 0 0 -12.69999999999999929 1 I I #
coedge $-1 $58 $154 $166 $167 forward $10 $-1 #
coedge $-1 $168 $169 $58 $105 forward $170 $-1 #
edge $-1 $109 -19.04999999999999716 $171 82.54999999999999716 $58 $172 forward 7 unknown #
coedge $-1 $173 $59 $169 $174 reversed $108 $-1 #
coedge $-1 $59 $173 $61 $112 forward $108 $-1 #
loop $-1 $-1 $107 $175 #
vertex $-1 $60 $176 #
ellipse-curve $-1 -12.70000000000000107 50.79999999999999716 50.79999999999999716 1 0 0 0 12.69999999999999929 0 1 I I #
coedge $-1 $62 $61 $177 $178 reversed $63 $-1 #
edge $-1 $179 6.672884464612371502 $65 25.72288446461237044 $61 $180 forward 7 unknown #
edge $-1 $181 6.672884464612371502 $64 25.72288446461237044 $62 $182 forward 7 unknown #
face $-1 $164 $63 $2 $-1 $183 forward single #
point $-1 -12.70000000000000107 63.5 -50.79999999999999716 #
point $-1 -12.70000000000000107 63.5 50.79999999999999716 #
face $-1 $184 $185 $2 $-1 $119 reversed single #
loop $-1 $-1 $186 $70 #
torus-surface $-1 19.04999999999999716 0 0 1 0 0 38.09999999999999432 6.349999999999999645 0 0.009993171016823789235 0.9999500670198631092 forward_v I I I I #
coedge $-1 $124 $187 $126 $188 forward $71 $-1 #
coedge $-1 $72 $126 $189 $190 forward $40 $-1 #
coedge $-1 $187 $124 $72 $123 reversed $71 $-1 #
edge $-1 $191 0 $128 2.75 $122 $192 forward 7 unknown #
coedge $-1 $122 $120 $73 $125 reversed $71 $-1 #
edge $-1 $128 0 $127 3.141592653589793116 $73 $193 forward 7 unknown #
coedge $-1 $121 $74 $120 $188 reversed $40 $-1 #
vertex $-1 $125 $194 #
vertex $-1 $125 $195 #
ellipse-curve $-1 88.89999999999999147 0 0 1 0 0 0 0 -31.74999999999999289 1 I I #
ellipse-curve $-1 88.89999999999999147 0 0 1 0 0 0 -25.39999999999999858 0 1 I I #
point $-1 88.89999999999999147 25.39999999999999858 0 #
coedge $-1 $196 $196 $197 $198 forward $82 $-1 #
coedge $-1 $83 $83 $199 $200 reversed $50 $-1 #
coedge $-1 $201 $202 $83 $135 forward $203 $-1 #
edge $-1 $204 -3.141592653589793116 $205 -0 $83 $206 reversed 7 unknown #
coedge $-1 $207 $208 $84 $137 forward $209 $-1 #
edge $-1 $142 -0 $141 3.141592653589793116 $84 $210 reversed 7 unknown #
coedge $-1 $211 $85 $208 $212 reversed $140 $-1 #
coedge $-1 $85 $211 $207 $213 forward $140 $-1 #
loop $-1 $-1 $139 $214 #
vertex $-1 $137 $215 #
vertex $-1 $137 $216 #
ellipse-curve $-1 -12.69999999999999929 -45.71999999999999176 45.71999999999999176 1 0 0 0 6.349999999999999645 0 1 I I #
coedge $-1 $217 $87 $90 $150 reversed $146 $-1 #
coedge $-1 $87 $217 $89 $149 forward $146 $-1 #
loop $-1 $-1 $145 $218 #
ellipse-curve $-1 -12.69999999999999929 -45.71999999999999176 -45.71999999999999176 1 0 0 0 6.349999999999999645 0 1 I I #
coedge $-1 $90 $89 $219 $220 forward $91 $-1 #
edge $-1 $221 0 $92 0.749999999999999889 $145 $222 forward 7 unknown #
edge $-1 $223 0 $93 0.749999999999999889 $144 $224 forward 7 unknown #
face $-1 $218 $91 $2 $-1 $225 reversed single #
point $-1 -12.69999999999999929 -52.06999999999999318 -45.71999999999999176 #
point $-1 -12.69999999999999929 -39.36999999999999034 -45.71999999999999176 #
coedge $-1 $103 $95 $226 $227 reversed $10 $-1 #
coedge $-1 $228 $229 $95 $156 reversed $230 $-1 #
edge $-1 $160 -1.570796326794896558 $231 -0 $95 $232 reversed 7 unknown #
coedge $-1 $233 $96 $99 $163 reversed $159 $-1 #
coedge $-1 $96 $233 $228 $234 forward $159 $-1 #
loop $-1 $-1 $158 $235 #
vertex $-1 $156 $236 #
straight-curve $-1 -12.69999999999999929 -31.75 -63.5 -0 1 0 I I #
coedge $-1 $99 $98 $237 $238 reversed $100 $-1 #
edge $-1 $239 6.672884464612371502 $101 25.72288446461237044 $157 $240 forward 7 unknown #
face $-1 $235 $100 $2 $-1 $241 forward single #
point $-1 -12.69999999999999929 50.79999999999999716 -63.5 #
coedge $-1 $242 $243 $103 $167 reversed $244 $-1 #
edge $-1 $245 -1.570796326794896558 $171 -0 $103 $246 reversed 7 unknown #
coedge $-1 $247 $104 $243 $248 reversed $170 $-1 #
coedge $-1 $104 $247 $106 $174 forward $170 $-1 #
loop $-1 $-1 $169 $249 #
vertex $-1 $105 $250 #
straight-curve $-1 -12.69999999999999929 31.75 63.5 0 -1 0 I I #
coedge $-1 $107 $106 $251 $252 reversed $108 $-1 #
edge $-1 $253 6.672884464612371502 $109 25.72288446461237044 $169 $254 forward 7 unknown #
face $-1 $114 $108 $2 $-1 $255 forward single #
point $-1 -12.70000000000000107 50.79999999999999716 63.5 #
coedge $-1 $256 $257 $111 $178 forward $258 $-1 #
edge $-1 $181 0.3172884608545274432 $179 101.9172884608545218 $111 $259 forward 7 unknown #
vertex $-1 $178 $260 #
straight-curve $-1 13.02288446461237115 63.5 50.79999999999999716 -1 0 0 I I #
vertex $-1 $178 $261 #
straight-curve $-1 13.02288446461237115 63.5 -50.79999999999999716 -1 0 0 I I #
plane-surface $-1 -12.69999999999999929 63.5 -63.5 0 1 0 0 0 25.39999999999999858 forward_v I I I I #
face $-1 $262 $263 $2 $-1 $264 forward single #
loop $-1 $-1 $265 $117 #
coedge $-1 $266 $267 $268 $269 forward $118 $-1 #
coedge $-1 $120 $122 $266 $270 forward $71 $-1 #
edge $-1 $271 7.859747209231619877e-27 $127 2.75 $120 $272 forward 7 unknown #
coedge $-1 $268 $265 $121 $190 reversed $185 $-1 #
edge $-1 $271 -3.141592653558644699 $191 -1.712211275539665678e-11 $121 $273 forward 7 unknown #
vertex $-1 $270 $274 #
straight-curve $-1 19.04999999999999716 0 -31.75 25.39999999999999858 0 0 I I #
ellipse-curve $-1 88.89999999999999147 0 0 1 0 0 0 0 -31.74999999999999289 1 I I #
point $-1 88.89999999999999147 0 31.75 #
point $-1 88.89999999999999147 0 -31.75 #
coedge $-1 $132 $132 $275 $276 forward $82 $-1 #
coedge $-1 $277 $278 $132 $198 reversed $279 $-1 #
edge $-1 $280 -3.141592653589793116 $281 0 $132 $282 forward 7 unknown #
coedge $-1 $283 $284 $133 $200 forward $285 $-1 #
edge $-1 $205 -0 $204 3.141592653589793116 $133 $286 reversed 7 unknown #
coedge $-1 $287 $134 $284 $288 reversed $203 $-1 #
coedge $-1 $134 $287 $283 $289 forward $203 $-1 #
loop $-1 $-1 $202 $290 #
vertex $-1 $200 $291 #
vertex $-1 $200 $292 #
ellipse-curve $-1 -12.69999999999999929 45.71999999999999176 -45.71999999999999176 1 0 0 0 -6.349999999999999645 0 1 I I #
coedge $-1 $293 $136 $139 $213 reversed $209 $-1 #
coedge $-1 $136 $293 $138 $212 forward $209 $-1 #
loop $-1 $-1 $208 $294 #
ellipse-curve $-1 -12.69999999999999929 -45.71999999999999176 45.71999999999999176 1 0 0 0 6.349999999999999645 0 1 I I #
coedge $-1 $139 $138 $295 $296 reversed $140 $-1 #
edge $-1 $297 0 $142 0.749999999999999889 $208 $298 forward 7 unknown #
edge $-1 $299 0 $141 0.749999999999999889 $207 $300 forward 7 unknown #
face $-1 $294 $140 $2 $-1 $301 reversed single #
point $-1 -12.69999999999999929 -52.06999999999999318 45.71999999999999176 #
point $-1 -12.69999999999999929 -39.36999999999999034 45.71999999999999176 #
coedge $-1 $145 $144 $302 $303 forward $146 $-1 #
face $-1 $304 $146 $2 $-1 $225 reversed single #
coedge $-1 $302 $302 $148 $220 reversed $305 $-1 #
edge $-1 $221 -3.141592653589793116 $223 0 $148 $306 forward 7 unknown #
vertex $-1 $303 $307 #
straight-curve $-1 6.349999999999999645 -52.06999999999999318 -45.71999999999999176 -25.39999999999999858 0 0 I I #
vertex $-1 $303 $308 #
straight-curve $-1 6.349999999999999645 -39.36999999999999034 -45.71999999999999176 -25.39999999999999858 0 0 I I #
cone-surface $-1 12.69999999999999929 -45.71999999999999176 -45.71999999999999176 1 0 0 0 6.349999999999999645 0 1 I I 0 1 6.349999999999999645 forward I I I I #
coedge $-1 $309 $310 $154 $227 forward $311 $-1 #
edge $-1 $245 -19.04999999999999716 $231 82.54999999999999716 $154 $312 forward 7 unknown #
coedge $-1 $313 $155 $158 $234 reversed $230 $-1 #
coedge $-1 $155 $313 $309 $314 forward $230 $-1 #
loop $-1 $-1 $229 $315 #
vertex $-1 $227 $316 #
ellipse-curve $-1 -12.70000000000000107 -50.79999999999999716 -50.79999999999999716 1 0 0 0 -12.69999999999999929 0 1 I I #
coedge $-1 $158 $157 $317 $318 reversed $159 $-1 #
edge $-1 $319 6.672884464612371502 $160 25.72288446461237044 $158 $320 forward 7 unknown #
face $-1 $315 $159 $2 $-1 $321 forward single #
point $-1 -12.70000000000000107 -50.79999999999999716 -63.5 #
coedge $-1 $322 $323 $162 $238 forward $324 $-1 #
edge $-1 $239 -0 $181 1.570796326794896558 $162 $325 reversed 7 unknown #
vertex $-1 $318 $326 #
straight-curve $-1 13.02288446461237115 50.79999999999999716 -63.5 -1 0 0 I I #
cone-surface $-1 13.02288446461236937 50.79999999999999716 -50.79999999999999716 -1 0 0 0 0 -12.69999999999999929 1 I I 0 1 12.69999999999999929 forward I I I I #
coedge $-1 $327 $166 $310 $328 reversed $244 $-1 #
coedge $-1 $166 $327 $168 $248 forward $244 $-1 #
loop $-1 $-1 $243 $329 #
vertex $-1 $167 $330 #
ellipse-curve $-1 -12.70000000000000107 -50.79999999999999716 50.79999999999999716 1 0 0 0 0 12.69999999999999929 1 I I #
coedge $-1 $169 $168 $331 $332 reversed $170 $-1 #
edge $-1 $333 6.672884464612371502 $171 25.72288446461237044 $168 $334 forward 7 unknown #
face $-1 $175 $170 $2 $-1 $335 forward single #
point $-1 -12.69999999999999929 -50.79999999999999716 63.5 #
coedge $-1 $336 $337 $173 $252 forward $338 $-1 #
edge $-1 $179 -0 $253 1.570796326794896558 $173 $339 reversed 7 unknown #
vertex $-1 $332 $340 #
straight-curve $-1 13.02288446461237115 50.79999999999999716 63.5 -1 0 0 I I #
cone-surface $-1 13.02288446461236937 50.79999999999999716 50.79999999999999716 -1 0 0 0 12.69999999999999929 0 1 I I 0 1 12.69999999999999929 forward I I I I #
coedge $-1 $341 $177 $337 $342 reversed $258 $-1 #
coedge $-1 $177 $341 $322 $343 forward $258 $-1 #
loop $-1 $-1 $257 $344 #
straight-curve $-1 6.349999999999999645 63.5 -51.1172884608545246 0 0 1 I I #
point $-1 6.349999999999999645 63.5 50.79999999999999716 #
point $-1 6.349999999999999645 63.5 -50.79999999999999716 #
face $-1 $345 $346 $2 $-1 $347 reversed single #
loop $-1 $348 $349 $184 #
plane-surface $-1 12.69999999999999929 0 0 1 0 0 0 0 -25.39999999999999858 forward_v I I I I #
coedge $-1 $189 $350 $351 $352 forward $185 $-1 #
coedge $-1 $351 $186 $187 $270 reversed $118 $-1 #
coedge $-1 $186 $351 $353 $354 forward $118 $-1 #
coedge $-1 $350 $189 $186 $269 reversed $185 $-1 #
edge $-1 $355 1.707792262088605711e-12 $271 1.570796326793925557 $186 $356 forward 7 unknown #
edge $-1 $191 -1.712211275539665678e-11 $271 3.141592653620941533 $187 $357 forward 7 unknown #
vertex $-1 $270 $358 #
straight-curve $-1 19.04999999999999716 3.208778999886502392e-14 31.75 25.39999999999999858 -5.127211786450722717e-15 0 I I #
ellipse-curve $-1 19.04999999999999716 0 0 1 0 0 0 0 -31.74999999999999289 1 I I #
point $-1 19.04999999999999716 -5.436270799838438528e-10 -31.75 #
coedge $-1 $359 $360 $196 $276 reversed $361 $-1 #
edge $-1 $281 0 $280 3.141592653589793116 $196 $362 forward 7 unknown #
coedge $-1 $363 $197 $360 $364 reversed $279 $-1 #
coedge $-1 $197 $363 $359 $365 forward $279 $-1 #
loop $-1 $-1 $278 $366 #
vertex $-1 $276 $367 #
vertex $-1 $276 $368 #
ellipse-curve $-1 -12.69999999999999929 45.71999999999999176 45.71999999999999176 1 0 0 0 -6.349999999999999645 0 1 I I #
coedge $-1 $369 $199 $202 $289 reversed $285 $-1 #
coedge $-1 $199 $369 $201 $288 forward $285 $-1 #
loop $-1 $-1 $284 $370 #
ellipse-curve $-1 -12.69999999999999929 45.71999999999999176 -45.71999999999999176 1 0 0 0 -6.349999999999999645 0 1 I I #
coedge $-1 $202 $201 $371 $372 reversed $203 $-1 #
edge $-1 $373 0 $205 0.749999999999999889 $284 $374 forward 7 unknown #
edge $-1 $375 0 $204 0.749999999999999889 $283 $376 forward 7 unknown #
face $-1 $370 $203 $2 $-1 $377 reversed single #
point $-1 -12.69999999999999929 52.06999999999999318 -45.71999999999999176 #
point $-1 -12.69999999999999929 39.36999999999999034 -45.71999999999999176 #
coedge $-1 $208 $207 $378 $379 reversed $209 $-1 #
face $-1 $380 $209 $2 $-1 $301 reversed single #
coedge $-1 $378 $378 $211 $296 forward $381 $-1 #
edge $-1 $299 -3.141592653589793116 $297 0 $211 $382 forward 7 unknown #
vertex $-1 $379 $383 #
straight-curve $-1 6.349999999999999645 -39.36999999999999034 45.71999999999999176 -25.39999999999999858 0 0 I I #
vertex $-1 $379 $384 #
straight-curve $-1 6.349999999999999645 -52.06999999999999318 45.71999999999999176 -25.39999999999999858 0 0 I I #
cone-surface $-1 12.69999999999999929 -45.71999999999999176 45.71999999999999176 -1 0 0 0 6.349999999999999645 0 1 I I 0 1 6.349999999999999645 forward I I I I #
coedge $-1 $219 $219 $217 $303 reversed $305 $-1 #
edge $-1 $223 0 $221 3.141592653589793116 $217 $385 forward 7 unknown #
face $-1 $386 $387 $2 $-1 $388 reversed single #
loop $-1 $-1 $219 $389 #
ellipse-curve $-1 6.349999999999999645 -45.71999999999999176 -45.71999999999999176 1 -0 -0 0 6.349999999999999645 0 1 I I #
point $-1 6.349999999999999645 -52.06999999999999318 -45.71999999999999176 #
point $-1 6.349999999999999645 -39.36999999999999034 -45.71999999999999176 #
coedge $-1 $390 $226 $229 $314 reversed $311 $-1 #
coedge $-1 $226 $390 $242 $328 forward $311 $-1 #
loop $-1 $-1 $310 $391 #
straight-curve $-1 -12.69999999999999929 -63.5 31.75 0 0 -1 I I #
coedge $-1 $229 $228 $392 $393 reversed $230 $-1 #
edge $-1 $394 6.672884464612371502 $231 25.72288446461237044 $309 $395 forward 7 unknown #
face $-1 $391 $230 $2 $-1 $396 forward single #
point $-1 -12.69999999999999929 -63.5 -50.79999999999999716 #
coedge $-1 $397 $398 $233 $318 forward $399 $-1 #
edge $-1 $319 0.3172884608545132323 $239 101.9172884608545075 $233 $400 forward 7 unknown #
vertex $-1 $318 $401 #
straight-curve $-1 13.02288446461237115 -50.79999999999999716 -63.5 -1 0 0 I I #
plane-surface $-1 -12.69999999999999929 -63.5 -63.5 0 0 -1 0 25.39999999999999858 0 forward_v I I I I #
coedge $-1 $402 $237 $257 $343 reversed $324 $-1 #
coedge $-1 $237 $402 $397 $403 forward $324 $-1 #
loop $-1 $-1 $323 $404 #
ellipse-curve $-1 6.349999999999999645 50.79999999999999716 -50.79999999999999716 -1 0 0 0 0 -12.69999999999999929 1 I I #
point $-1 6.349999999999999645 50.79999999999999716 -63.5 #
coedge $-1 $243 $242 $405 $406 reversed $244 $-1 #
edge $-1 $407 6.672884464612371502 $245 25.72288446461237044 $310 $408 forward 7 unknown #
face $-1 $-1 $244 $2 $-1 $409 forward single #
point $-1 -12.70000000000000107 -63.5 50.79999999999999716 #
coedge $-1 $410 $411 $247 $332 forward $412 $-1 #
edge $-1 $253 0.3172884608545132323 $333 101.9172884608545075 $247 $413 forward 7 unknown #
vertex $-1 $332 $414 #
straight-curve $-1 13.02288446461237115 -50.79999999999999716 63.5 -1 0 0 I I #
plane-surface $-1 -12.69999999999999929 63.5 63.5 0 0 1 0 -25.39999999999999858 0 forward_v I I I I #
coedge $-1 $415 $251 $411 $416 reversed $338 $-1 #
coedge $-1 $251 $415 $256 $342 forward $338 $-1 #
loop $-1 $-1 $337 $417 #
ellipse-curve $-1 6.349999999999999645 50.79999999999999716 50.79999999999999716 -1 0 0 0 12.69999999999999929 0 1 I I #
point $-1 6.349999999999999645 50.79999999999999716 63.5 #
coedge $-1 $257 $256 $418 $419 reversed $258 $-1 #
edge $-1 $420 2.518209612837495636e-11 $179 1.570796326820076194 $256 $421 forward 7 unknown #
edge $-1 $422 0 $181 1.570796326794897224 $257 $423 forward 7 unknown #
face $-1 $404 $258 $2 $-1 $424 forward single #
face $-1 $389 $425 $2 $-1 $347 reversed single #
loop $-1 $-1 $426 $262 #
cone-surface $-1 12.69999999999999929 -45.71999999999999176 -45.71999999999999176 -1 0 0 0 -8.889999999999998792 0 1 I I 0 1 8.889999999999998792 forward I I I I #
loop $-1 $427 $428 $184 #
coedge $-1 $429 $429 $430 $431 forward $263 $-1 #
coedge $-1 $265 $268 $432 $433 forward $185 $-1 #
coedge $-1 $267 $266 $265 $352 reversed $118 $-1 #
edge $-1 $434 2.09805925914889282e-17 $191 1.570796326793926001 $351 $435 forward 7 unknown #
coedge $-1 $432 $432 $267 $354 reversed $436 $-1 #
edge $-1 $434 -8.444668575524616472e-13 $355 3.141592653591591233 $353 $437 forward 7 unknown #
vertex $-1 $354 $438 #
ellipse-curve $-1 19.05000000000000426 2.540048806958083834e-10 38.09999999999999432 3.493474462436062541e-11 -1 -4.560914175096084326e-11 -6.350000000000004974 -2.218356283644092647e-10 -6.158806797884608225e-12 1 I I #
ellipse-curve $-1 19.04999999999999716 0 0 1 0 0 0 0 -31.74999999999999289 1 I I #
point $-1 19.04999999999999716 -9.889644118100486774e-10 31.75000000000000355 #
coedge $-1 $439 $275 $278 $365 reversed $361 $-1 #
coedge $-1 $275 $439 $277 $364 forward $361 $-1 #
loop $-1 $-1 $360 $440 #
ellipse-curve $-1 -12.69999999999999929 45.71999999999999176 45.71999999999999176 1 0 0 0 -6.349999999999999645 0 1 I I #
coedge $-1 $278 $277 $441 $442 forward $279 $-1 #
edge $-1 $443 0 $280 0.749999999999999889 $360 $444 forward 7 unknown #
edge $-1 $445 0 $281 0.749999999999999889 $359 $446 forward 7 unknown #
face $-1 $440 $279 $2 $-1 $447 reversed single #
point $-1 -12.69999999999999929 52.06999999999999318 45.71999999999999176 #
point $-1 -12.69999999999999929 39.36999999999999034 45.71999999999999176 #
coedge $-1 $284 $283 $448 $449 reversed $285 $-1 #
face $-1 $450 $285 $2 $-1 $377 reversed single #
coedge $-1 $448 $448 $287 $372 forward $451 $-1 #
edge $-1 $375 -3.141592653589793116 $373 0 $287 $452 forward 7 unknown #
vertex $-1 $449 $453 #
straight-curve $-1 6.349999999999999645 39.36999999999999034 -45.71999999999999176 -25.39999999999999858 0 0 I I #
vertex $-1 $449 $454 #
straight-curve $-1 6.349999999999999645 52.06999999999999318 -45.71999999999999176 -25.39999999999999858 0 0 I I #
cone-surface $-1 12.69999999999999929 45.71999999999999176 -45.71999999999999176 -1 0 0 0 -6.349999999999999645 0 1 I I 0 1 6.349999999999999645 forward I I I I #
coedge $-1 $295 $295 $293 $379 forward $381 $-1 #
edge $-1 $297 0 $299 3.141592653589793116 $293 $455 forward 7 unknown #
face $-1 $456 $457 $2 $-1 $458 reversed single #
loop $-1 $-1 $295 $459 #
ellipse-curve $-1 6.349999999999999645 -45.71999999999999176 45.71999999999999176 -1 -0 -0 0 6.349999999999999645 0 1 I I #
point $-1 6.349999999999999645 -39.36999999999999034 45.71999999999999176 #
point $-1 6.349999999999999645 -52.06999999999999318 45.71999999999999176 #
ellipse-curve $-1 6.349999999999999645 -45.71999999999999176 -45.71999999999999176 1 -0 -0 0 6.349999999999999645 0 1 I I #
face $-1 $459 $460 $2 $-1 $388 reversed single #
loop $-1 $-1 $461 $304 #
cone-surface $-1 12.69999999999999929 -45.71999999999999176 45.71999999999999176 1 0 0 0 -8.889999999999998792 0 1 I I 0 1 8.889999999999998792 forward I I I I #
face $-1 $151 $462 $2 $-1 $463 reversed single #
coedge $-1 $310 $309 $464 $465 reversed $311 $-1 #
face $-1 $329 $311 $2 $-1 $466 forward single #
coedge $-1 $467 $468 $313 $393 forward $469 $-1 #
edge $-1 $394 -0 $319 1.570796326794896558 $313 $470 reversed 7 unknown #
vertex $-1 $465 $471 #
straight-curve $-1 13.02288446461237115 -63.5 -50.79999999999999716 -1 0 0 I I #
cone-surface $-1 13.02288446461236937 -50.79999999999999716 -50.79999999999999716 -1 0 0 0 -12.69999999999999929 0 1 I I 0 1 12.69999999999999929 forward I I I I #
coedge $-1 $472 $317 $323 $403 reversed $399 $-1 #
coedge $-1 $317 $472 $467 $473 forward $399 $-1 #
loop $-1 $-1 $398 $474 #
straight-curve $-1 6.349999999999999645 -51.11728846085451039 -63.5 0 1 0 I I #
point $-1 6.349999999999999645 -50.79999999999999716 -63.5 #
coedge $-1 $323 $322 $475 $476 reversed $324 $-1 #
edge $-1 $477 2.517671110946623663e-16 $239 1.570796326820074418 $397 $478 forward 7 unknown #
face $-1 $474 $324 $2 $-1 $479 forward single #
coedge $-1 $480 $481 $327 $406 forward $482 $-1 #
edge $-1 $333 -0 $407 1.570796326794896558 $327 $483 reversed 7 unknown #
vertex $-1 $465 $484 #
straight-curve $-1 13.02288446461237115 -63.5 50.79999999999999716 -1 0 0 I I #
cone-surface $-1 13.02288446461236937 -50.79999999999999716 50.79999999999999716 -1 0 0 0 0 12.69999999999999929 1 I I 0 1 12.69999999999999929 forward I I I I #
coedge $-1 $485 $331 $481 $486 reversed $412 $-1 #
coedge $-1 $331 $485 $336 $416 forward $412 $-1 #
loop $-1 $-1 $411 $487 #
straight-curve $-1 6.349999999999999645 51.11728846085451039 63.5 0 -1 0 I I #
point $-1 6.349999999999999645 -50.79999999999999716 63.5 #
coedge $-1 $337 $336 $488 $489 reversed $338 $-1 #
edge $-1 $490 0 $253 1.570796326794897224 $336 $491 forward 7 unknown #
face $-1 $344 $338 $2 $-1 $492 forward single #
coedge $-1 $488 $475 $341 $419 forward $493 $-1 #
edge $-1 $422 0.3172884608545061269 $420 101.9172884608545075 $418 $494 forward 7 unknown #
vertex $-1 $419 $495 #
ellipse-curve $-1 6.349999999999997868 57.14999999999998437 50.79999998967420538 -3.003020054848092777e-11 7.561561914832229387e-22 1 6.350000000000001421 -1.598920995604657946e-10 1.906917734828539117e-10 1 I I #
vertex $-1 $419 $496 #
ellipse-curve $-1 6.350000000000002309 57.14999999999999858 -50.80000000000001847 0 0 1 6.34999999999999698 0 0 1 I I #
cone-surface $-1 6.349999999999999645 57.14999999999999858 -51.1172884608545246 0 0 1 0 6.349999999999999645 0 1 I I 0 1 6.349999999999999645 forward I I I I #
loop $-1 $-1 $497 $345 #
coedge $-1 $498 $430 $499 $500 forward $346 $-1 #
loop $-1 $501 $502 $184 #
coedge $-1 $503 $503 $504 $505 reversed $348 $-1 #
coedge $-1 $349 $349 $506 $507 forward $263 $-1 #
coedge $-1 $426 $508 $349 $431 reversed $346 $-1 #
edge $-1 $509 -3.141592653589793116 $510 -0 $349 $511 reversed 7 unknown #
coedge $-1 $353 $353 $350 $433 reversed $436 $-1 #
edge $-1 $355 -3.141592653587994999 $434 -8.444668575524616472e-13 $432 $512 forward 7 unknown #
vertex $-1 $354 $513 #
ellipse-curve $-1 19.05000000000000782 -2.540742515975989983e-10 -38.10000000000000853 3.494489201970640608e-11 1 4.559887061200703419e-11 -6.350000000000008527 2.219000643248554001e-10 6.153166864919512106e-12 1 I I #
loop $-1 $-1 $432 $184 #
ellipse-curve $-1 12.69999999999999929 0 0 1 0 0 0 0 -38.09999999999999432 1 I I #
point $-1 12.69999999999999929 -6.851090944556543084e-11 38.09999999998299103 #
coedge $-1 $360 $359 $514 $515 forward $361 $-1 #
face $-1 $417 $361 $2 $-1 $447 reversed single #
coedge $-1 $514 $514 $363 $442 reversed $516 $-1 #
edge $-1 $443 -3.141592653589793116 $445 0 $363 $517 forward 7 unknown #
vertex $-1 $515 $518 #
straight-curve $-1 6.349999999999999645 52.06999999999999318 45.71999999999999176 -25.39999999999999858 0 0 I I #
vertex $-1 $515 $519 #
straight-curve $-1 6.349999999999999645 39.36999999999999034 45.71999999999999176 -25.39999999999999858 0 0 I I #
cone-surface $-1 12.69999999999999929 45.71999999999999176 45.71999999999999176 1 0 0 0 -6.349999999999999645 0 1 I I 0 1 6.349999999999999645 forward I I I I #
coedge $-1 $371 $371 $369 $449 forward $451 $-1 #
edge $-1 $373 0 $375 3.141592653589793116 $369 $520 forward 7 unknown #
face $-1 $521 $522 $2 $-1 $523 reversed single #
loop $-1 $-1 $371 $524 #
ellipse-curve $-1 6.349999999999999645 45.71999999999999176 -45.71999999999999176 -1 -0 -0 0 -6.349999999999999645 0 1 I I #
point $-1 6.349999999999999645 39.36999999999999034 -45.71999999999999176 #
point $-1 6.349999999999999645 52.06999999999999318 -45.71999999999999176 #
ellipse-curve $-1 6.349999999999999645 -45.71999999999999176 45.71999999999999176 -1 -0 -0 0 6.349999999999999645 0 1 I I #
face $-1 $524 $525 $2 $-1 $458 reversed single #
loop $-1 $-1 $526 $380 #
cone-surface $-1 12.69999999999999929 45.71999999999999176 -45.71999999999999176 1 0 0 0 8.889999999999998792 0 1 I I 0 1 8.889999999999998792 forward I I I I #
face $-1 $214 $527 $2 $-1 $528 forward single #
loop $-1 $-1 $529 $386 #
coedge $-1 $530 $504 $531 $532 forward $387 $-1 #
loop $-1 $305 $533 $389 #
plane-surface $-1 6.349999999999999645 -45.71999999999999176 -45.71999999999999176 -1 0 0 0 -25.39999999999999858 0 forward_v I I I I #
coedge $-1 $534 $535 $390 $465 forward $536 $-1 #
edge $-1 $407 0.3172884608545132323 $394 101.9172884608545075 $390 $537 forward 7 unknown #
plane-surface $-1 -12.69999999999999929 -63.5 63.5 0 -1 0 0 0 -25.39999999999999858 forward_v I I I I #
coedge $-1 $538 $392 $398 $473 reversed $469 $-1 #
coedge $-1 $392 $538 $534 $539 forward $469 $-1 #
loop $-1 $-1 $468 $540 #
ellipse-curve $-1 6.349999999999999645 -50.79999999999999716 -50.79999999999999716 -1 0 0 0 -12.69999999999999929 0 1 I I #
point $-1 6.349999999999999645 -63.5 -50.79999999999999716 #
coedge $-1 $398 $397 $541 $542 reversed $399 $-1 #
edge $-1 $543 0 $319 1.570796326794897224 $467 $544 forward 7 unknown #
face $-1 $540 $399 $2 $-1 $545 forward single #
coedge $-1 $418 $541 $402 $476 forward $493 $-1 #
edge $-1 $477 -3.141592655185872385 $422 -1.570796326794900111 $475 $546 forward 7 unknown #
vertex $-1 $476 $547 #
ellipse-curve $-1 6.349999999999997868 50.79999998967421249 -57.14999999999999858 -3.002931237006122764e-11 1 -7.560804845021488782e-22 6.350000000000001421 1.906861335498888366e-10 1.598808196945355927e-10 1 I I #
torus-surface $-1 6.349999999999999645 50.79999999999999716 -50.79999999999999716 -1 0 0 6.349999999999999645 6.349999999999999645 0 -0.03548277953817269986 -0.9993702879094642499 forward_v I I I I #
coedge $-1 $548 $405 $535 $549 reversed $482 $-1 #
coedge $-1 $405 $548 $410 $486 forward $482 $-1 #
loop $-1 $-1 $481 $550 #
ellipse-curve $-1 6.349999999999999645 -50.79999999999999716 50.79999999999999716 -1 0 0 0 0 12.69999999999999929 1 I I #
point $-1 6.349999999999999645 -63.5 50.79999999999999716 #
coedge $-1 $411 $410 $551 $552 reversed $412 $-1 #
edge $-1 $553 4.475859752782607019e-16 $333 1.570796326820078859 $410 $554 forward 7 unknown #
face $-1 $249 $412 $2 $-1 $555 forward single #
coedge $-1 $551 $418 $415 $489 forward $493 $-1 #
edge $-1 $420 -1.570796326794899 $490 -2.237929876409763939e-15 $488 $556 forward 7 unknown #
vertex $-1 $552 $557 #
ellipse-curve $-1 6.350000000000002309 50.80000000000001137 57.14999999999999858 0 -1 0 6.34999999999999698 0 0 1 I I #
torus-surface $-1 6.349999999999999645 50.79999999999999716 50.79999999999999716 -1 0 0 6.349999999999998757 6.349999999999999645 0 0.9993702879094642499 -0.03548277953817358804 forward_v I I I I #
loop $-1 $436 $488 $184 #
straight-curve $-1 12.69999999999999929 57.14999999999999858 -51.1172884608545246 0 0 1 I I #
point $-1 12.69999999999999929 57.14999999999999858 50.79999999999998295 #
point $-1 12.69999999999999929 57.14999999999999858 -50.80000000000001847 #
coedge $-1 $558 $506 $508 $559 forward $425 $-1 #
coedge $-1 $508 $426 $533 $560 forward $346 $-1 #
coedge $-1 $506 $558 $426 $500 reversed $425 $-1 #
edge $-1 $509 -0 $561 0.25 $499 $562 forward 7 unknown #
loop $-1 $493 $563 $184 #
coedge $-1 $564 $564 $565 $566 reversed $427 $-1 #
coedge $-1 $428 $428 $567 $568 reversed $348 $-1 #
coedge $-1 $461 $569 $428 $505 forward $387 $-1 #
edge $-1 $570 -3.141592653589793116 $571 0 $428 $572 forward 7 unknown #
coedge $-1 $497 $499 $429 $507 reversed $425 $-1 #
edge $-1 $510 -0 $509 3.141592653589793116 $429 $573 reversed 7 unknown #
coedge $-1 $430 $498 $497 $559 reversed $346 $-1 #
vertex $-1 $507 $574 #
vertex $-1 $507 $575 #
ellipse-curve $-1 12.69999999999999929 -45.71999999999999176 -45.71999999999999176 1 0 0 0 -8.889999999999998792 0 1 I I #
ellipse-curve $-1 12.69999999999999929 0 0 1 0 0 0 0 -38.09999999999999432 1 I I #
point $-1 12.69999999999999929 -3.21741872727435982e-11 -38.09999999999385523 #
coedge $-1 $441 $441 $439 $515 reversed $516 $-1 #
edge $-1 $445 0 $443 3.141592653589793116 $439 $576 forward 7 unknown #
loop $-1 $-1 $441 $577 #
ellipse-curve $-1 6.349999999999999645 45.71999999999999176 45.71999999999999176 1 -0 -0 0 -6.349999999999999645 0 1 I I #
point $-1 6.349999999999999645 52.06999999999999318 45.71999999999999176 #
point $-1 6.349999999999999645 39.36999999999999034 45.71999999999999176 #
ellipse-curve $-1 6.349999999999999645 45.71999999999999176 -45.71999999999999176 -1 -0 -0 0 -6.349999999999999645 0 1 I I #
face $-1 $577 $578 $2 $-1 $523 reversed single #
loop $-1 $-1 $579 $450 #
cone-surface $-1 12.69999999999999929 45.71999999999999176 45.71999999999999176 -1 0 0 0 8.889999999999998792 0 1 I I 0 1 8.889999999999998792 forward I I I I #
face $-1 $290 $580 $2 $-1 $581 forward single #
loop $-1 $-1 $582 $456 #
coedge $-1 $583 $565 $584 $585 forward $457 $-1 #
loop $-1 $381 $586 $459 #
plane-surface $-1 6.349999999999999645 -45.71999999999999176 45.71999999999999176 1 0 0 0 -25.39999999999999858 0 forward_v I I I I #
coedge $-1 $587 $567 $569 $588 forward $460 $-1 #
coedge $-1 $569 $461 $586 $589 reversed $387 $-1 #
coedge $-1 $567 $587 $461 $532 reversed $460 $-1 #
edge $-1 $571 0 $590 0.25 $531 $591 forward 7 unknown #
coedge $-1 $592 $592 $498 $560 reversed $462 $-1 #
coedge $-1 $593 $464 $468 $539 reversed $536 $-1 #
coedge $-1 $464 $593 $480 $549 forward $536 $-1 #
loop $-1 $-1 $535 $594 #
straight-curve $-1 6.349999999999999645 -63.5 51.11728846085451039 0 0 -1 I I #
coedge $-1 $468 $467 $595 $596 reversed $469 $-1 #
edge $-1 $597 4.475859752782607019e-16 $394 1.570796326820078859 $534 $598 forward 7 unknown #
face $-1 $594 $469 $2 $-1 $599 forward single #
coedge $-1 $475 $595 $472 $542 forward $493 $-1 #
edge $-1 $543 0.3172884608545132323 $477 101.9172884507194112 $541 $600 forward 7 unknown #
vertex $-1 $542 $601 #
ellipse-curve $-1 6.350000000000002309 -50.79999999999999716 -57.14999999999999858 0 1 0 6.34999999999999698 0 0 1 I I #
cone-surface $-1 6.349999999999999645 -51.11728846085451039 -57.14999999999999858 0 1 0 0 0 -6.349999999999999645 1 I I 0 1 6.349999999999999645 forward I I I I #
ellipse-curve $-1 12.69999999999999929 50.79999999999999716 -50.79999999999999716 1 0 0 0 -0 6.349999999999999645 1 I I #
point $-1 12.69999999999999929 50.79999998986489373 -57.14999999984011936 #
coedge $-1 $481 $480 $602 $603 reversed $482 $-1 #
edge $-1 $604 0 $407 1.570796326794897224 $480 $605 forward 7 unknown #
face $-1 $487 $482 $2 $-1 $606 forward single #
coedge $-1 $602 $488 $485 $552 forward $493 $-1 #
edge $-1 $490 0.3172884608544990215 $553 101.9172884507194112 $551 $607 forward 7 unknown #
vertex $-1 $603 $608 #
ellipse-curve $-1 6.350000000000002309 -50.79999998967421249 57.15000000000000568 -3.002931237006124703e-11 -1 7.561871700509720022e-22 6.34999999999999698 -1.906861335498888366e-10 -1.599033794263959707e-10 1 I I #
cone-surface $-1 6.349999999999999645 51.11728846085451039 57.14999999999999858 0 -1 0 0 0 6.349999999999999645 1 I I 0 1 6.349999999999999645 forward I I I I #
ellipse-curve $-1 12.69999999999999929 50.79999999999999716 50.79999999999999716 1 0 0 0 -0 6.349999999999998757 1 I I #
point $-1 12.69999999999999929 50.80000000000001137 57.14999999999999858 #
coedge $-1 $499 $497 $592 $609 forward $425 $-1 #
edge $-1 $510 0 $610 0.25 $497 $611 forward 7 unknown #
edge $-1 $561 -3.141592653589793116 $610 0 $533 $612 forward 7 unknown #
vertex $-1 $609 $613 #
straight-curve $-1 12.69999999999999929 -36.82999999999999119 -45.71999999999998465 -25.39999999999999858 0 0 I I #
coedge $-1 $614 $614 $615 $616 forward $501 $-1 #
coedge $-1 $502 $502 $617 $618 reversed $427 $-1 #
coedge $-1 $526 $619 $502 $566 forward $457 $-1 #
edge $-1 $620 -3.141592653589793116 $621 0 $502 $622 forward 7 unknown #
coedge $-1 $529 $531 $503 $568 forward $460 $-1 #
edge $-1 $571 0 $570 3.141592653589793116 $503 $623 forward 7 unknown #
coedge $-1 $504 $530 $529 $588 reversed $387 $-1 #
vertex $-1 $568 $624 #
vertex $-1 $568 $625 #
ellipse-curve $-1 12.69999999999999929 -45.71999999999999176 45.71999999999999176 1 0 0 0 -8.889999999999998792 0 1 I I #
ellipse-curve $-1 12.69999999999999929 -45.71999999999999176 -45.71999999999999176 1 0 0 0 -8.889999999999998792 0 1 I I #
point $-1 12.69999999999999929 -36.82999999999999829 -45.71999999999999176 #
point $-1 12.69999999999999929 -54.60999999999999233 -45.71999999999999176 #
ellipse-curve $-1 6.349999999999999645 45.71999999999999176 45.71999999999999176 1 -0 -0 0 -6.349999999999999645 0 1 I I #
face $-1 $366 $626 $2 $-1 $627 reversed single #
loop $-1 $-1 $628 $521 #
coedge $-1 $629 $615 $630 $631 forward $522 $-1 #
loop $-1 $451 $632 $524 #
plane-surface $-1 6.349999999999999645 45.71999999999999176 -45.71999999999999176 1 0 0 0 25.39999999999999858 0 forward_v I I I I #
coedge $-1 $633 $617 $619 $634 forward $525 $-1 #
coedge $-1 $619 $526 $632 $635 reversed $457 $-1 #
coedge $-1 $617 $633 $526 $585 reversed $525 $-1 #
edge $-1 $621 0 $636 0.25 $584 $637 forward 7 unknown #
coedge $-1 $638 $638 $530 $589 forward $527 $-1 #
coedge $-1 $531 $529 $638 $639 reversed $460 $-1 #
edge $-1 $570 0 $640 0.25 $529 $641 forward 7 unknown #
edge $-1 $640 -3.141592653589793116 $590 0 $586 $642 forward 7 unknown #
vertex $-1 $639 $643 #
straight-curve $-1 12.69999999999999929 -54.60999999999999233 45.71999999999999176 -25.39999999999999858 0 0 I I #
coedge $-1 $533 $533 $558 $609 reversed $462 $-1 #
coedge $-1 $535 $534 $644 $645 reversed $536 $-1 #
face $-1 $550 $536 $2 $-1 $646 forward single #
coedge $-1 $541 $644 $538 $596 forward $493 $-1 #
edge $-1 $597 1.570796325198817289 $543 3.141592653589793116 $595 $647 forward 7 unknown #
vertex $-1 $596 $648 #
ellipse-curve $-1 6.350000000000002309 -57.15000000000000568 -50.79999998967421249 -3.002931237006124703e-11 -7.561871700509720022e-22 -1 6.34999999999999698 1.599033794263959707e-10 -1.906861335498888366e-10 1 I I #
torus-surface $-1 6.349999999999999645 -50.79999999999999716 -50.79999999999999716 -1 0 0 6.349999999999999645 6.349999999999999645 0 -0.9993702879094642499 0.03548277953817269986 forward_v I I I I #
straight-curve $-1 12.69999999999999929 -51.11728846085451039 -57.14999999999999858 0 1 0 I I #
point $-1 12.69999999999999929 -50.79999999999999716 -57.14999999999999858 #
coedge $-1 $644 $551 $548 $603 forward $493 $-1 #
edge $-1 $553 -1.596079279281312843e-09 $604 1.570796326794894338 $602 $649 forward 7 unknown #
vertex $-1 $645 $650 #
ellipse-curve $-1 6.350000000000002309 -57.14999999999999858 50.80000000000001137 0 0 -1 6.34999999999999698 0 0 1 I I #
torus-surface $-1 6.349999999999999645 -50.79999999999999716 50.79999999999999716 -1 0 0 6.349999999999999645 6.349999999999999645 0 0.03548277953817269986 0.9993702879094642499 forward_v I I I I #
straight-curve $-1 12.69999999999999929 51.11728846085451039 57.14999999999999858 0 -1 0 I I #
point $-1 12.69999999999999929 -50.79999998986489373 57.14999999984010515 #
edge $-1 $610 0 $561 3.141592653589793116 $592 $651 forward 7 unknown #
vertex $-1 $609 $652 #
straight-curve $-1 12.69999999999999929 -54.60999999999999233 -45.71999999999999176 -25.39999999999999858 0 0 I I #
ellipse-curve $-1 6.349999999999999645 -45.71999999999999176 -45.71999999999999176 -1 0 0 0 -8.889999999999998792 0 1 I I #
point $-1 6.349999999999999645 -36.82999999999999119 -45.71999999999999176 #
coedge $-1 $563 $563 $653 $654 forward $501 $-1 #
coedge $-1 $579 $655 $563 $616 reversed $522 $-1 #
edge $-1 $656 -3.141592653589793116 $657 -0 $563 $658 reversed 7 unknown #
coedge $-1 $582 $584 $564 $618 forward $525 $-1 #
edge $-1 $621 0 $620 3.141592653589793116 $564 $659 forward 7 unknown #
coedge $-1 $565 $583 $582 $634 reversed $457 $-1 #
vertex $-1 $618 $660 #
vertex $-1 $618 $661 #
ellipse-curve $-1 12.69999999999999929 45.71999999999999176 -45.71999999999999176 1 0 0 0 8.889999999999998792 0 1 I I #
ellipse-curve $-1 12.69999999999999929 -45.71999999999999176 45.71999999999999176 1 0 0 0 -8.889999999999998792 0 1 I I #
point $-1 12.69999999999999929 -36.82999999999999829 45.71999999999999176 #
point $-1 12.69999999999999929 -54.60999999999999233 45.71999999999999176 #
loop $-1 $516 $662 $577 #
plane-surface $-1 6.349999999999999645 45.71999999999999176 45.71999999999999176 -1 0 0 0 25.39999999999999858 0 forward_v I I I I #
coedge $-1 $663 $653 $655 $664 forward $578 $-1 #
coedge $-1 $655 $579 $662 $665 forward $522 $-1 #
coedge $-1 $653 $663 $579 $631 reversed $578 $-1 #
edge $-1 $656 0 $666 0.25 $630 $667 forward 7 unknown #
coedge $-1 $668 $668 $583 $635 forward $580 $-1 #
coedge $-1 $584 $582 $668 $669 reversed $525 $-1 #
edge $-1 $620 0 $670 0.25 $582 $671 forward 7 unknown #
edge $-1 $670 -3.141592653589793116 $636 0 $632 $672 forward 7 unknown #
vertex $-1 $669 $673 #
straight-curve $-1 12.69999999999999929 54.60999999999999233 -45.71999999999999176 -25.39999999999999858 0 0 I I #
coedge $-1 $586 $586 $587 $639 forward $527 $-1 #
edge $-1 $590 0 $640 3.141592653589793116 $638 $674 forward 7 unknown #
vertex $-1 $639 $675 #
straight-curve $-1 12.69999999999999929 -36.82999999999999119 45.71999999999998465 -25.39999999999999858 0 0 I I #
ellipse-curve $-1 6.349999999999999645 -45.71999999999999176 45.71999999999999176 1 0 0 0 -8.889999999999998792 0 1 I I #
point $-1 6.349999999999999645 -54.60999999999999233 45.71999999999999176 #
coedge $-1 $595 $602 $593 $645 forward $493 $-1 #
edge $-1 $604 0.3172884608544990215 $597 101.9172884507194112 $644 $676 forward 7 unknown #
cone-surface $-1 6.349999999999999645 -57.14999999999999858 51.11728846085451039 0 0 -1 0 -6.349999999999999645 0 1 I I 0 1 6.349999999999999645 forward I I I I #
ellipse-curve $-1 12.69999999999999929 -50.79999999999999716 -50.79999999999999716 1 0 0 0 -0 6.349999999999999645 1 I I #
point $-1 12.69999999999999929 -57.14999999984010515 -50.79999998986489373 #
ellipse-curve $-1 12.69999999999999929 -50.79999999999999716 50.79999999999999716 1 0 0 0 -0 6.349999999999999645 1 I I #
point $-1 12.69999999999999929 -57.14999999999999858 50.80000000000001137 #
ellipse-curve $-1 6.349999999999999645 -45.71999999999999176 -45.71999999999999176 -1 0 0 0 -8.889999999999998792 0 1 I I #
point $-1 6.349999999999999645 -54.60999999999999233 -45.71999999999999176 #
coedge $-1 $628 $630 $614 $654 reversed $578 $-1 #
edge $-1 $657 -0 $656 3.141592653589793116 $614 $677 reversed 7 unknown #
coedge $-1 $615 $629 $628 $664 reversed $522 $-1 #
vertex $-1 $654 $678 #
vertex $-1 $654 $679 #
ellipse-curve $-1 12.69999999999999929 45.71999999999999176 45.71999999999999176 1 0 0 0 8.889999999999998792 0 1 I I #
ellipse-curve $-1 12.69999999999999929 45.71999999999999176 -45.71999999999999176 1 0 0 0 8.889999999999998792 0 1 I I #
point $-1 12.69999999999999929 36.82999999999999829 -45.71999999999999176 #
point $-1 12.69999999999999929 54.60999999999999233 -45.71999999999999176 #
coedge $-1 $680 $680 $629 $665 reversed $626 $-1 #
coedge $-1 $630 $628 $680 $681 forward $578 $-1 #
edge $-1 $657 0 $682 0.25 $628 $683 forward 7 unknown #
edge $-1 $666 -3.141592653589793116 $682 0 $662 $684 forward 7 unknown #
vertex $-1 $681 $685 #
straight-curve $-1 12.69999999999999929 36.82999999999999119 45.71999999999998465 -25.39999999999999858 0 0 I I #
coedge $-1 $632 $632 $633 $669 forward $580 $-1 #
edge $-1 $636 0 $670 3.141592653589793116 $668 $686 forward 7 unknown #
vertex $-1 $669 $687 #
straight-curve $-1 12.69999999999999929 36.82999999999999119 -45.71999999999998465 -25.39999999999999858 0 0 I I #
ellipse-curve $-1 6.349999999999999645 45.71999999999999176 -45.71999999999999176 1 0 0 0 8.889999999999998792 0 1 I I #
point $-1 6.349999999999999645 54.60999999999999233 -45.71999999999999176 #
ellipse-curve $-1 6.349999999999999645 -45.71999999999999176 45.71999999999999176 1 0 0 0 -8.889999999999998792 0 1 I I #
point $-1 6.349999999999999645 -36.82999999999999119 45.71999999999999176 #
straight-curve $-1 12.69999999999999929 -57.14999999999999858 51.11728846085451039 0 0 -1 I I #
ellipse-curve $-1 12.69999999999999929 45.71999999999999176 45.71999999999999176 1 0 0 0 8.889999999999998792 0 1 I I #
point $-1 12.69999999999999929 36.82999999999999829 45.71999999999999176 #
point $-1 12.69999999999999929 54.60999999999999233 45.71999999999999176 #
coedge $-1 $662 $662 $663 $681 reversed $626 $-1 #
edge $-1 $682 0 $666 3.141592653589793116 $680 $688 forward 7 unknown #
vertex $-1 $681 $689 #
straight-curve $-1 12.69999999999999929 54.60999999999999233 45.71999999999999176 -25.39999999999999858 0 0 I I #
ellipse-curve $-1 6.349999999999999645 45.71999999999999176 45.71999999999999176 -1 0 0 0 8.889999999999998792 0 1 I I #
point $-1 6.349999999999999645 36.82999999999999119 45.71999999999999176 #
ellipse-curve $-1 6.349999999999999645 45.71999999999999176 -45.71999999999999176 1 0 0 0 8.889999999999998792 0 1 I I #
point $-1 6.349999999999999645 36.82999999999999119 -45.71999999999999176 #
ellipse-curve $-1 6.349999999999999645 45.71999999999999176 45.71999999999999176 -1 0 0 0 8.889999999999998792 0 1 I I #
point $-1 6.349999999999999645 54.60999999999999233 45.71999999999999176 #
End-of-ACIS-data 