600 0 1 0           
114 GICL Pro/E ACIS Translator - Source: f:/data5/repository/PTC/V20/web_demos/models/thread-turn/dp-bracket.prt - 6 0 13 ACIS 6.0.3 NT 24 Thu Apr 04 13:09:31 2002 
1 9.9999999999999995e-007 1e-010 
body $-1 $1 $-1 $2 #
lump $-1 $-1 $3 $0 #
transform $-1 1 0 0 0 1 0 0 0 1 0 0 0 25.399999999999999 no_rotate no_reflect no_shear #
shell $-1 $-1 $-1 $4 $-1 $1 #
face $-1 $5 $6 $3 $-1 $7 reversed single #
face $-1 $8 $9 $3 $-1 $10 reversed single #
loop $-1 $11 $12 $4 #
plane-surface $-1 -0.5 0 0 1 0 0 0 0 -1 forward_v I I I I #
face $-1 $13 $14 $3 $-1 $15 reversed single #
loop $-1 $-1 $16 $5 #
cone-surface $-1 3.5 0 0 -1 0 0 0 -1 0 1 I I 0 1 1 forward I I I I #
loop $-1 $17 $18 $4 #
coedge $-1 $19 $19 $20 $21 reversed $6 $-1 #
face $-1 $22 $23 $3 $-1 $24 forward single #
loop $-1 $-1 $25 $8 #
cone-surface $-1 3.5 0 0 -1 0 0 0 -1 0 1 I I 0 1 1 forward I I I I #
coedge $-1 $26 $20 $27 $28 reversed $9 $-1 #
loop $-1 $29 $30 $4 #
coedge $-1 $31 $32 $33 $34 reversed $11 $-1 #
coedge $-1 $12 $12 $35 $36 reversed $6 $-1 #
coedge $-1 $16 $37 $12 $21 forward $9 $-1 #
edge $-1 $38 0 $39 3.1415926535897931 $12 $40 forward 7 unknown #
face $-1 $41 $42 $3 $-1 $43 forward single #
loop $-1 $44 $45 $13 #
plane-surface $-1 3.5 0 0 1 0 0 0 0 -1 forward_v I I I I #
coedge $-1 $46 $35 $37 $47 reversed $14 $-1 #
coedge $-1 $37 $16 $48 $49 reversed $9 $-1 #
coedge $-1 $35 $46 $16 $28 forward $14 $-1 #
edge $-1 $50 0 $39 4 $27 $51 forward 7 unknown #
loop $-1 $52 $53 $4 #
coedge $-1 $54 $54 $55 $56 forward $17 $-1 #
coedge $-1 $57 $18 $58 $59 forward $11 $-1 #
coedge $-1 $18 $60 $61 $62 forward $11 $-1 #
coedge $-1 $63 $64 $18 $34 forward $65 $-1 #
edge $-1 $66 0 $67 4 $18 $68 forward 7 unknown #
coedge $-1 $25 $27 $19 $36 forward $14 $-1 #
edge $-1 $39 0 $38 3.1415926535897931 $19 $69 forward 7 unknown #
coedge $-1 $20 $26 $25 $47 forward $9 $-1 #
vertex $-1 $36 $70 #
vertex $-1 $36 $71 #
ellipse-curve $-1 -0.5 2.7755575615628914e-017 0 -1 0 0 0 1 0 1 I I #
face $-1 $72 $73 $3 $-1 $74 forward single #
loop $-1 $-1 $75 $22 #
cone-surface $-1 0.5 0 0 1 0 0 0 0 -1.25 1 I I 0 1 1.25 forward I I I I #
loop $-1 $-1 $48 $13 #
coedge $-1 $76 $76 $77 $78 forward $23 $-1 #
coedge $-1 $27 $25 $79 $80 reversed $14 $-1 #
edge $-1 $81 -6.2899668277471881e-032 $38 4 $25 $82 forward 7 unknown #
coedge $-1 $79 $79 $26 $49 forward $44 $-1 #
edge $-1 $81 0 $50 3.1415926535897931 $48 $83 forward 7 unknown #
vertex $-1 $80 $84 #
straight-curve $-1 3.5 -1 0 -1 0 0 I I #
loop $-1 $85 $86 $4 #
coedge $-1 $87 $87 $88 $89 reversed $29 $-1 #
coedge $-1 $30 $30 $90 $91 forward $17 $-1 #
coedge $-1 $92 $93 $30 $56 reversed $94 $-1 #
edge $-1 $95 0 $96 3.1415926535897949 $30 $97 forward 7 unknown #
coedge $-1 $98 $31 $99 $100 reversed $11 $-1 #
coedge $-1 $101 $102 $31 $59 reversed $103 $-1 #
edge $-1 $66 0 $104 1.5707963267948957 $31 $105 forward 7 unknown #
coedge $-1 $32 $106 $107 $108 reversed $11 $-1 #
coedge $-1 $109 $110 $32 $62 reversed $111 $-1 #
edge $-1 $112 0 $67 1.5707963267948974 $32 $113 forward 7 unknown #
coedge $-1 $114 $33 $110 $115 reversed $65 $-1 #
coedge $-1 $33 $114 $101 $116 forward $65 $-1 #
loop $-1 $-1 $64 $117 #
vertex $-1 $59 $118 #
vertex $-1 $62 $119 #
straight-curve $-1 -0.5 2.5 -2 0 0 1 I I #
ellipse-curve $-1 -0.5 0 0 -1 0 0 0 -1 0 1 I I #
point $-1 -0.5 1 0 #
point $-1 -0.5 -1 0 #
face $-1 $120 $121 $3 $-1 $122 reversed single #
loop $-1 $-1 $123 $41 #
cone-surface $-1 0.5 0 0 1 0 0 0 0 -1.25 1 I I 0 1 1.25 forward I I I I #
coedge $-1 $77 $124 $125 $126 forward $42 $-1 #
coedge $-1 $45 $45 $127 $128 forward $23 $-1 #
coedge $-1 $129 $75 $45 $78 reversed $42 $-1 #
edge $-1 $130 0 $131 3.1415926535897931 $45 $132 forward 7 unknown #
coedge $-1 $48 $48 $46 $80 forward $44 $-1 #
edge $-1 $50 0 $81 3.1415926535897931 $79 $133 forward 7 unknown #
vertex $-1 $80 $134 #
straight-curve $-1 3.5 1 5.6654984523230034e-016 -1 0 1.1102230246251565e-016 I I #
ellipse-curve $-1 3.5 0 0 -1 0 0 0 1 0 1 I I #
point $-1 3.5 -1 0 #
loop $-1 $-1 $135 $4 #
coedge $-1 $136 $136 $137 $138 reversed $52 $-1 #
coedge $-1 $53 $53 $139 $140 reversed $29 $-1 #
coedge $-1 $141 $142 $53 $89 forward $143 $-1 #
edge $-1 $144 0 $145 3.1415926535897949 $53 $146 forward 7 unknown #
coedge $-1 $147 $148 $54 $91 reversed $149 $-1 #
edge $-1 $96 0 $95 3.1415926535897913 $54 $150 forward 7 unknown #
coedge $-1 $151 $55 $148 $152 reversed $94 $-1 #
coedge $-1 $55 $151 $147 $153 forward $94 $-1 #
loop $-1 $-1 $93 $154 #
vertex $-1 $91 $155 #
vertex $-1 $91 $156 #
ellipse-curve $-1 -0.5 -1.7999999999999998 -1.8 1 0 0 0 -0.25 2.2204460492503131e-016 1 I I #
coedge $-1 $157 $57 $158 $159 forward $11 $-1 #
coedge $-1 $160 $161 $57 $100 forward $162 $-1 #
edge $-1 $163 0 $104 4 $57 $164 forward 7 unknown #
coedge $-1 $165 $58 $64 $116 reversed $103 $-1 #
coedge $-1 $58 $165 $160 $166 forward $103 $-1 #
loop $-1 $-1 $102 $167 #
vertex $-1 $100 $168 #
ellipse-curve $-1 -0.5 2 -1.9999999999999996 -1 0 0 0 0.5 -4.4408920985006262e-016 1 I I #
coedge $-1 $60 $157 $169 $170 forward $11 $-1 #
coedge $-1 $171 $172 $60 $108 forward $173 $-1 #
edge $-1 $112 4.4408920985006262e-016 $174 4 $60 $175 forward 7 unknown #
coedge $-1 $176 $61 $172 $177 reversed $111 $-1 #
coedge $-1 $61 $176 $63 $115 forward $111 $-1 #
loop $-1 $-1 $110 $178 #
vertex $-1 $62 $179 #
ellipse-curve $-1 -0.5 2 2 -1 0 0 0 -4.4408920985006262e-016 0.5 1 I I #
coedge $-1 $64 $63 $180 $181 reversed $65 $-1 #
edge $-1 $182 0 $67 0.75 $63 $183 forward 7 unknown #
edge $-1 $184 0 $66 0.75 $64 $185 forward 7 unknown #
face $-1 $167 $65 $3 $-1 $186 forward single #
point $-1 -0.5 2.5 -2 #
point $-1 -0.5 2.5 2 #
face $-1 $187 $188 $3 $-1 $189 reversed single #
loop $-1 $-1 $190 $72 #
torus-surface $-1 0.75 0 0 1 0 0 1.5000000000000002 0.25 0 -0.0099931710168230294 -0.999950067019863 forward_v I I I I #
coedge $-1 $127 $191 $129 $192 forward $73 $-1 #
coedge $-1 $75 $129 $193 $194 forward $42 $-1 #
coedge $-1 $191 $127 $75 $126 reversed $73 $-1 #
edge $-1 $195 0 $131 2.75 $125 $196 forward 7 unknown #
coedge $-1 $125 $123 $76 $128 reversed $73 $-1 #
edge $-1 $131 0 $130 3.1415926535897931 $76 $197 forward 7 unknown #
coedge $-1 $124 $77 $123 $192 reversed $42 $-1 #
vertex $-1 $128 $198 #
vertex $-1 $128 $199 #
ellipse-curve $-1 3.5 1.1102230246251565e-016 0 1 0 0 0 -1.1102230246251565e-016 1.25 1 I I #
ellipse-curve $-1 3.5 0 0 -1 0 0 0 -1 0 1 I I #
point $-1 3.5 1 0 #
coedge $-1 $200 $200 $201 $202 forward $85 $-1 #
coedge $-1 $86 $86 $203 $204 reversed $52 $-1 #
coedge $-1 $205 $206 $86 $138 forward $207 $-1 #
edge $-1 $208 0 $209 3.1415926535897949 $86 $210 forward 7 unknown #
coedge $-1 $211 $212 $87 $140 forward $213 $-1 #
edge $-1 $145 0 $144 3.1415926535897913 $87 $214 forward 7 unknown #
coedge $-1 $215 $88 $212 $216 reversed $143 $-1 #
coedge $-1 $88 $215 $211 $217 forward $143 $-1 #
loop $-1 $-1 $142 $218 #
vertex $-1 $140 $219 #
vertex $-1 $140 $220 #
ellipse-curve $-1 -0.5 -1.7999999999999998 1.8 -1 0 0 0 -0.25 -2.2204460492503131e-016 1 I I #
coedge $-1 $221 $90 $93 $153 reversed $149 $-1 #
coedge $-1 $90 $221 $92 $152 forward $149 $-1 #
loop $-1 $-1 $148 $222 #
ellipse-curve $-1 -0.5 -1.7999999999999998 -1.8 1 0 0 0 0.25 2.2204460492503131e-016 1 I I #
coedge $-1 $93 $92 $223 $224 forward $94 $-1 #
edge $-1 $225 0 $95 0.75 $148 $226 forward 7 unknown #
edge $-1 $227 0 $96 0.75 $147 $228 forward 7 unknown #
face $-1 $222 $94 $3 $-1 $229 reversed single #
point $-1 -0.5 -2.0499999999999998 -1.7999999999999998 #
point $-1 -0.5 -1.5499999999999998 -1.7999999999999998 #
coedge $-1 $106 $98 $230 $231 reversed $11 $-1 #
coedge $-1 $232 $233 $98 $159 reversed $234 $-1 #
edge $-1 $163 0 $235 1.5707963267949001 $98 $236 forward 7 unknown #
coedge $-1 $237 $99 $102 $166 reversed $162 $-1 #
coedge $-1 $99 $237 $232 $238 forward $162 $-1 #
loop $-1 $-1 $161 $239 #
vertex $-1 $159 $240 #
straight-curve $-1 -0.5 -2 -2.5 0 1 0 I I #
coedge $-1 $102 $101 $241 $242 reversed $103 $-1 #
edge $-1 $243 0 $104 0.75 $160 $244 forward 7 unknown #
face $-1 $239 $103 $3 $-1 $245 forward single #
point $-1 -0.5 2 -2.5 #
coedge $-1 $246 $247 $106 $170 reversed $248 $-1 #
edge $-1 $249 0 $174 1.5707963267949001 $106 $250 forward 7 unknown #
coedge $-1 $251 $107 $247 $252 reversed $173 $-1 #
coedge $-1 $107 $251 $109 $177 forward $173 $-1 #
loop $-1 $-1 $172 $253 #
vertex $-1 $108 $254 #
straight-curve $-1 -0.5 2 2.5 0 -1 0 I I #
coedge $-1 $110 $109 $255 $256 reversed $111 $-1 #
edge $-1 $257 0 $112 0.75 $172 $258 forward 7 unknown #
face $-1 $117 $111 $3 $-1 $259 forward single #
point $-1 -0.5 1.9999999999999996 2.5 #
coedge $-1 $260 $261 $114 $181 forward $262 $-1 #
edge $-1 $184 0 $182 3.9999999997054734 $114 $263 forward 7 unknown #
vertex $-1 $181 $264 #
straight-curve $-1 0.25 2.5 2 -1 0 0 I I #
vertex $-1 $181 $265 #
straight-curve $-1 0.25 2.5 -2 -1 0 0 I I #
plane-surface $-1 -0.5 2.5 -2.5 0 1 0 0 0 1 forward_v I I I I #
face $-1 $266 $267 $3 $-1 $268 forward single #
loop $-1 $-1 $269 $120 #
torus-surface $-1 0.75 0 0 1 0 0 1.4999999999999998 0.25 0 0.0099931710168237875 0.999950067019863 forward_v I I I I #
coedge $-1 $270 $271 $272 $273 forward $121 $-1 #
coedge $-1 $123 $125 $270 $274 forward $73 $-1 #
edge $-1 $275 7.8597472092316184e-027 $130 2.75 $123 $276 forward 7 unknown #
coedge $-1 $272 $269 $124 $194 reversed $188 $-1 #
edge $-1 $275 4.8270467484234914e-011 $195 3.1415926535897931 $124 $277 forward 7 unknown #
vertex $-1 $274 $278 #
straight-curve $-1 0.75 0 -1.25 1 0 0 I I #
ellipse-curve $-1 3.5 -1.1102230246251565e-016 -5.5511151231257827e-017 1 0 0 0 1.1102230246251565e-016 -1.25 1 I I #
point $-1 3.5 0 1.25 #
point $-1 3.5 0 -1.25 #
coedge $-1 $135 $135 $279 $280 forward $85 $-1 #
coedge $-1 $281 $282 $135 $202 reversed $283 $-1 #
edge $-1 $284 0 $285 3.1415926535897949 $135 $286 forward 7 unknown #
coedge $-1 $287 $288 $136 $204 forward $289 $-1 #
edge $-1 $209 0 $208 3.1415926535897913 $136 $290 forward 7 unknown #
coedge $-1 $291 $137 $288 $292 reversed $207 $-1 #
coedge $-1 $137 $291 $287 $293 forward $207 $-1 #
loop $-1 $-1 $206 $294 #
vertex $-1 $204 $295 #
vertex $-1 $204 $296 #
ellipse-curve $-1 -0.5 1.7999999999999998 -1.8 -1 0 0 0 0.25 2.2204460492503131e-016 1 I I #
coedge $-1 $297 $139 $142 $217 reversed $213 $-1 #
coedge $-1 $139 $297 $141 $216 forward $213 $-1 #
loop $-1 $-1 $212 $298 #
ellipse-curve $-1 -0.5 -1.7999999999999998 1.8 -1 0 0 0 0.25 -2.2204460492503131e-016 1 I I #
coedge $-1 $142 $141 $299 $300 reversed $143 $-1 #
edge $-1 $301 0 $145 0.75 $212 $302 forward 7 unknown #
edge $-1 $303 0 $144 0.75 $211 $304 forward 7 unknown #
face $-1 $298 $143 $3 $-1 $305 reversed single #
point $-1 -0.5 -2.0499999999999998 1.7999999999999998 #
point $-1 -0.5 -1.5499999999999998 1.7999999999999998 #
coedge $-1 $148 $147 $306 $307 forward $149 $-1 #
face $-1 $308 $149 $3 $-1 $309 reversed single #
coedge $-1 $306 $306 $151 $224 reversed $310 $-1 #
edge $-1 $225 0 $227 3.1415926535897913 $151 $311 forward 7 unknown #
vertex $-1 $307 $312 #
straight-curve $-1 0.25 -2.0499999999999998 -1.7999999999999998 -1 0 0 I I #
vertex $-1 $307 $313 #
straight-curve $-1 0.25 -1.5499999999999998 -1.7999999999999998 -1 0 0 I I #
cone-surface $-1 0.5 -1.7999999999999998 -1.7999999999999998 1 0 0 0 0.25 0 1 I I 0 1 0.25 forward I I I I #
coedge $-1 $314 $315 $157 $231 forward $316 $-1 #
edge $-1 $249 0 $235 4 $157 $317 forward 7 unknown #
coedge $-1 $318 $158 $161 $238 reversed $234 $-1 #
coedge $-1 $158 $318 $314 $319 forward $234 $-1 #
loop $-1 $-1 $233 $320 #
vertex $-1 $231 $321 #
ellipse-curve $-1 -0.5 -2.0000000000000009 -2.0000000000000009 -1 0 0 0 8.8817841970012523e-016 -0.49999999999999911 1 I I #
coedge $-1 $161 $160 $322 $323 reversed $162 $-1 #
edge $-1 $324 0 $163 0.75 $161 $325 forward 7 unknown #
face $-1 $320 $162 $3 $-1 $326 forward single #
point $-1 -0.5 -2 -2.5 #
coedge $-1 $327 $328 $165 $242 forward $329 $-1 #
edge $-1 $243 8.8817841970012523e-016 $184 1.5707963273839516 $165 $330 forward 7 unknown #
vertex $-1 $323 $331 #
straight-curve $-1 0.25 2 -2.5 -1 0 0 I I #
cone-surface $-1 0.51271198679576258 2 -2 -1 0 0 0 0 -0.5 1 I I 0 1 0.5 forward I I I I #
coedge $-1 $332 $169 $315 $333 reversed $248 $-1 #
coedge $-1 $169 $332 $171 $252 forward $248 $-1 #
loop $-1 $-1 $247 $334 #
vertex $-1 $170 $335 #
ellipse-curve $-1 -0.5 -2.0000000000000009 2.0000000000000009 -1 0 0 0 -0.49999999999999911 -8.8817841970012523e-016 1 I I #
coedge $-1 $172 $171 $336 $337 reversed $173 $-1 #
edge $-1 $338 0 $174 0.75 $171 $339 forward 7 unknown #
face $-1 $178 $173 $3 $-1 $340 forward single #
point $-1 -0.5 -2 2.5 #
coedge $-1 $341 $342 $176 $256 forward $343 $-1 #
edge $-1 $182 2.6645352591003757e-015 $257 1.5707963273839534 $176 $344 forward 7 unknown #
vertex $-1 $337 $345 #
straight-curve $-1 0.25 1.9999999999999996 2.5 -1 0 0 I I #
cone-surface $-1 0.51271198679576258 2 2 -1 0 0 0 0.5 0 1 I I 0 1 0.5 forward I I I I #
coedge $-1 $346 $180 $342 $347 reversed $262 $-1 #
coedge $-1 $180 $346 $327 $348 forward $262 $-1 #
loop $-1 $-1 $261 $349 #
straight-curve $-1 0.25 2.5 -2.0000000000000009 0 0 1 I I #
point $-1 0.25 2.5 1.9999999997054725 #
point $-1 0.25 2.5 -2.0000000000000009 #
face $-1 $350 $351 $3 $-1 $352 reversed single #
loop $-1 $353 $354 $187 #
plane-surface $-1 0.5 0 0 1 0 0 0 0 -1 forward_v I I I I #
coedge $-1 $193 $355 $356 $357 forward $188 $-1 #
coedge $-1 $356 $190 $191 $274 reversed $121 $-1 #
coedge $-1 $190 $356 $358 $359 forward $121 $-1 #
coedge $-1 $355 $193 $190 $273 reversed $188 $-1 #
edge $-1 $360 1.7079671003601998e-012 $275 1.5707963267939258 $190 $361 forward 7 unknown #
edge $-1 $195 0 $275 3.1415926536380634 $191 $362 forward 7 unknown #
vertex $-1 $274 $363 #
straight-curve $-1 0.75 1.2632988188529537e-015 1.25 1 -2.0185873175002846e-016 0 I I #
ellipse-curve $-1 0.75 0 0 1 0 0 0 2.1402477591118498e-011 1.2499999999999996 1 I I #
point $-1 0.75 -2.1402640944245821e-011 -1.25 #
coedge $-1 $364 $365 $200 $280 reversed $366 $-1 #
edge $-1 $285 0 $284 3.1415926535897913 $200 $367 forward 7 unknown #
coedge $-1 $368 $201 $365 $369 reversed $283 $-1 #
coedge $-1 $201 $368 $364 $370 forward $283 $-1 #
loop $-1 $-1 $282 $371 #
vertex $-1 $280 $372 #
vertex $-1 $280 $373 #
ellipse-curve $-1 -0.5 1.7999999999999998 1.8 1 0 0 0 0.25 -2.2204460492503131e-016 1 I I #
coedge $-1 $374 $203 $206 $293 reversed $289 $-1 #
coedge $-1 $203 $374 $205 $292 forward $289 $-1 #
loop $-1 $-1 $288 $375 #
ellipse-curve $-1 -0.5 1.7999999999999998 -1.8 -1 0 0 0 -0.25 2.2204460492503131e-016 1 I I #
coedge $-1 $206 $205 $376 $377 reversed $207 $-1 #
edge $-1 $378 0 $209 0.75 $288 $379 forward 7 unknown #
edge $-1 $380 0 $208 0.75 $287 $381 forward 7 unknown #
face $-1 $375 $207 $3 $-1 $382 reversed single #
point $-1 -0.5 2.0499999999999998 -1.7999999999999998 #
point $-1 -0.5 1.5499999999999998 -1.7999999999999998 #
coedge $-1 $212 $211 $383 $384 reversed $213 $-1 #
face $-1 $385 $213 $3 $-1 $386 reversed single #
coedge $-1 $383 $383 $215 $300 forward $387 $-1 #
edge $-1 $303 0 $301 3.1415926535897913 $215 $388 forward 7 unknown #
vertex $-1 $384 $389 #
straight-curve $-1 0.25 -1.5499999999999998 1.7999999999999998 -1 0 0 I I #
vertex $-1 $384 $390 #
straight-curve $-1 0.25 -2.0499999999999998 1.7999999999999998 -1 0 0 I I #
cone-surface $-1 0.5 -1.7999999999999998 1.7999999999999998 -1 0 0 0 0.25 0 1 I I 0 1 0.25 forward I I I I #
coedge $-1 $223 $223 $221 $307 reversed $310 $-1 #
edge $-1 $227 0 $225 3.1415926535897931 $221 $391 forward 7 unknown #
face $-1 $392 $393 $3 $-1 $394 reversed single #
cone-surface $-1 0.5 -1.7999999999999998 -1.7999999999999998 1 0 0 0 0.25 0 1 I I 0 1 0.25 forward I I I I #
loop $-1 $-1 $223 $395 #
ellipse-curve $-1 0.25 -1.7999999999999998 -1.7999999999999996 1 0 0 0 -0.25 -2.2204460492503131e-016 1 I I #
point $-1 0.25 -2.0499999999999998 -1.7999999999999998 #
point $-1 0.25 -1.5499999999999998 -1.7999999999999998 #
coedge $-1 $396 $230 $233 $319 reversed $316 $-1 #
coedge $-1 $230 $396 $246 $333 forward $316 $-1 #
loop $-1 $-1 $315 $397 #
straight-curve $-1 -0.5 -2.5 2 0 0 -1 I I #
coedge $-1 $233 $232 $398 $399 reversed $234 $-1 #
edge $-1 $400 0 $235 0.75 $314 $401 forward 7 unknown #
face $-1 $397 $234 $3 $-1 $402 forward single #
point $-1 -0.5 -2.5 -2 #
coedge $-1 $403 $404 $237 $323 forward $405 $-1 #
edge $-1 $324 0 $243 3.999999999705472 $237 $406 forward 7 unknown #
vertex $-1 $323 $407 #
straight-curve $-1 0.25 -2 -2.5 -1 0 0 I I #
plane-surface $-1 -0.5 -2.5 -2.5 0 0 -1 0 1 0 forward_v I I I I #
coedge $-1 $408 $241 $261 $348 reversed $329 $-1 #
coedge $-1 $241 $408 $403 $409 forward $329 $-1 #
loop $-1 $-1 $328 $410 #
ellipse-curve $-1 0.25 2 -2 1 0 0 0 -2.9452840166754868e-010 -0.5 1 I I #
point $-1 0.25 1.999999999705472 -2.5 #
coedge $-1 $247 $246 $411 $412 reversed $248 $-1 #
edge $-1 $413 0 $249 0.75 $315 $414 forward 7 unknown #
face $-1 $-1 $248 $3 $-1 $415 forward single #
point $-1 -0.5 -2.5 2 #
coedge $-1 $416 $417 $251 $337 forward $418 $-1 #
edge $-1 $257 0 $338 3.9999999997054725 $251 $419 forward 7 unknown #
vertex $-1 $337 $420 #
straight-curve $-1 0.25 -2 2.5 -1 0 0 I I #
plane-surface $-1 -0.5 2.5 2.5 0 0 1 0 -1 0 forward_v I I I I #
coedge $-1 $421 $255 $417 $422 reversed $343 $-1 #
coedge $-1 $255 $421 $260 $347 forward $343 $-1 #
loop $-1 $-1 $342 $423 #
ellipse-curve $-1 0.25 2 2 1 0 0 0 0.5 -2.9452884575675853e-010 1 I I #
point $-1 0.25 2.0000000000000004 2.5 #
coedge $-1 $261 $260 $424 $425 reversed $262 $-1 #
edge $-1 $426 2.5181634555337947e-011 $182 1.5707963268200762 $260 $427 forward 7 unknown #
edge $-1 $428 0 $184 1.570796326794897 $261 $429 forward 7 unknown #
face $-1 $410 $262 $3 $-1 $430 forward single #
face $-1 $395 $431 $3 $-1 $432 reversed single #
loop $-1 $-1 $433 $266 #
cone-surface $-1 0.5 -1.7999999999999998 -1.7999999999999998 -1 0 0 0 -0.34999999999999998 0 1 I I 0 1 0.34999999999999998 forward I I I I #
loop $-1 $434 $435 $187 #
coedge $-1 $436 $436 $437 $438 forward $267 $-1 #
coedge $-1 $269 $272 $439 $440 forward $188 $-1 #
coedge $-1 $271 $270 $269 $357 reversed $121 $-1 #
edge $-1 $441 0 $195 1.5707963267939262 $356 $442 forward 7 unknown #
coedge $-1 $439 $439 $271 $359 reversed $443 $-1 #
edge $-1 $441 0 $360 3.1415926441429707 $358 $444 forward 7 unknown #
vertex $-1 $359 $445 #
ellipse-curve $-1 0.75000000000000022 1.0000192153378284e-011 1.4999999999999998 3.4934744624360625e-011 -1 -4.5609141750960843e-011 -0.25000000000000022 -8.7336861560791057e-012 -2.4247270857813419e-013 1 I I #
ellipse-curve $-1 0.75 0 0 1 0 0 0 -2.1402640944245821e-011 -1.25 1 I I #
point $-1 0.75 -3.8935606764175144e-011 1.2500000000000002 #
coedge $-1 $446 $279 $282 $370 reversed $366 $-1 #
coedge $-1 $279 $446 $281 $369 forward $366 $-1 #
loop $-1 $-1 $365 $447 #
ellipse-curve $-1 -0.5 1.7999999999999998 1.8 1 0 0 0 -0.25 -2.2204460492503131e-016 1 I I #
coedge $-1 $282 $281 $448 $449 forward $283 $-1 #
edge $-1 $450 0 $284 0.75 $365 $451 forward 7 unknown #
edge $-1 $452 0 $285 0.75 $364 $453 forward 7 unknown #
face $-1 $447 $283 $3 $-1 $454 reversed single #
point $-1 -0.5 2.0499999999999998 1.7999999999999998 #
point $-1 -0.5 1.5499999999999998 1.7999999999999998 #
coedge $-1 $288 $287 $455 $456 reversed $289 $-1 #
face $-1 $457 $289 $3 $-1 $458 reversed single #
coedge $-1 $455 $455 $291 $377 forward $459 $-1 #
edge $-1 $380 0 $378 3.1415926535897913 $291 $460 forward 7 unknown #
vertex $-1 $456 $461 #
straight-curve $-1 0.25 1.5499999999999998 -1.7999999999999998 -1 0 0 I I #
vertex $-1 $456 $462 #
straight-curve $-1 0.25 2.0499999999999998 -1.7999999999999998 -1 0 0 I I #
cone-surface $-1 0.5 1.7999999999999998 -1.7999999999999998 -1 0 0 0 -0.25 0 1 I I 0 1 0.25 forward I I I I #
coedge $-1 $299 $299 $297 $384 forward $387 $-1 #
edge $-1 $301 0 $303 3.1415926535897931 $297 $463 forward 7 unknown #
face $-1 $464 $465 $3 $-1 $466 reversed single #
cone-surface $-1 0.5 -1.7999999999999998 1.7999999999999998 -1 0 0 0 0.25 0 1 I I 0 1 0.25 forward I I I I #
loop $-1 $-1 $299 $467 #
ellipse-curve $-1 0.25 -1.7999999999999998 1.7999999999999996 -1 0 0 0 -0.25 2.2204460492503131e-016 1 I I #
point $-1 0.25 -1.5499999999999998 1.7999999999999998 #
point $-1 0.25 -2.0499999999999998 1.7999999999999998 #
ellipse-curve $-1 0.25 -1.7999999999999998 -1.7999999999999998 1 0 0 0 0.25 0 1 I I #
face $-1 $467 $468 $3 $-1 $469 reversed single #
loop $-1 $-1 $470 $308 #
cone-surface $-1 0.5 -1.7999999999999998 1.7999999999999998 1 0 0 0 -0.34999999999999998 0 1 I I 0 1 0.34999999999999998 forward I I I I #
face $-1 $154 $471 $3 $-1 $472 reversed single #
coedge $-1 $315 $314 $473 $474 reversed $316 $-1 #
face $-1 $334 $316 $3 $-1 $475 forward single #
coedge $-1 $476 $477 $318 $399 forward $478 $-1 #
edge $-1 $400 8.8817841970012523e-016 $324 1.5707963273839534 $318 $479 forward 7 unknown #
vertex $-1 $474 $480 #
straight-curve $-1 0.25 -2.5 -2 -1 0 0 I I #
cone-surface $-1 0.51271198679576258 -2 -2 -1 0 0 0 -0.5 0 1 I I 0 1 0.5 forward I I I I #
coedge $-1 $481 $322 $328 $409 reversed $405 $-1 #
coedge $-1 $322 $481 $476 $482 forward $405 $-1 #
loop $-1 $-1 $404 $483 #
straight-curve $-1 0.25 -2 -2.5 0 1 0 I I #
point $-1 0.25 -2 -2.5 #
coedge $-1 $328 $327 $484 $485 reversed $329 $-1 #
edge $-1 $486 0 $243 1.5707963268200744 $403 $487 forward 7 unknown #
face $-1 $483 $329 $3 $-1 $488 forward single #
coedge $-1 $489 $490 $332 $412 forward $491 $-1 #
edge $-1 $338 8.8817841970012523e-016 $413 1.5707963273839525 $332 $492 forward 7 unknown #
vertex $-1 $474 $493 #
straight-curve $-1 0.25 -2.5 2 -1 0 0 I I #
cone-surface $-1 0.51271198679576258 -2 2 -1 0 0 0 0 0.5 1 I I 0 1 0.5 forward I I I I #
coedge $-1 $494 $336 $490 $495 reversed $418 $-1 #
coedge $-1 $336 $494 $341 $422 forward $418 $-1 #
loop $-1 $-1 $417 $496 #
straight-curve $-1 0.25 2.0000000000000004 2.5 0 -1 0 I I #
point $-1 0.25 -1.999999999705472 2.5 #
coedge $-1 $342 $341 $497 $498 reversed $343 $-1 #
edge $-1 $499 0 $257 1.570796326794897 $341 $500 forward 7 unknown #
face $-1 $349 $343 $3 $-1 $501 forward single #
coedge $-1 $497 $484 $346 $425 forward $502 $-1 #
edge $-1 $428 0 $426 4 $424 $503 forward 7 unknown #
vertex $-1 $425 $504 #
ellipse-curve $-1 0.24999999999999994 2.2499999999999996 1.9999999995934727 -3.0030200548480928e-011 7.5615619148322294e-022 1 0.25000000000000006 -6.2949645496246376e-012 7.5075501371202336e-012 1 I I #
vertex $-1 $425 $505 #
ellipse-curve $-1 0.25000000000000011 2.25 -2.0000000000000009 0 0 1 0.24999999999999989 0 0 1 I I #
cone-surface $-1 0.25 2.25 -2.0124916716871861 0 0 1 0 0.25 0 1 I I 0 1 0.25 forward I I I I #
loop $-1 $-1 $506 $350 #
cone-surface $-1 0.5 -1.7999999999999998 -1.7999999999999998 -1 0 0 0 -0.34999999999999998 0 1 I I 0 1 0.34999999999999998 forward I I I I #
coedge $-1 $507 $437 $508 $509 forward $351 $-1 #
loop $-1 $510 $511 $187 #
coedge $-1 $512 $512 $513 $514 reversed $353 $-1 #
coedge $-1 $354 $354 $515 $516 forward $267 $-1 #
coedge $-1 $433 $517 $354 $438 reversed $351 $-1 #
edge $-1 $518 0 $519 3.1415926535897931 $354 $520 forward 7 unknown #
coedge $-1 $358 $358 $355 $440 reversed $443 $-1 #
edge $-1 $360 2.6425239325005674e-012 $441 3.1415926441403275 $439 $521 forward 7 unknown #
vertex $-1 $359 $522 #
ellipse-curve $-1 0.75000000000000033 -1.0002923291244056e-011 -1.5000000000000004 3.4944892019706406e-011 1 4.5598870612007034e-011 -0.25000000000000033 8.7362230049155671e-012 2.4225066397320916e-013 1 I I #
loop $-1 $-1 $439 $187 #
ellipse-curve $-1 0.5 -7.0870989077320701e-009 -2.1393997684526767e-013 1 0 0 0 7.0858322074457414e-009 -1.4999999999995444 1 I I #
point $-1 0.5 -2.6972798994317099e-012 1.4999999999993303 #
coedge $-1 $365 $364 $523 $524 forward $366 $-1 #
face $-1 $423 $366 $3 $-1 $525 reversed single #
coedge $-1 $523 $523 $368 $449 reversed $526 $-1 #
edge $-1 $450 0 $452 3.1415926535897913 $368 $527 forward 7 unknown #
vertex $-1 $524 $528 #
straight-curve $-1 0.25 2.0499999999999998 1.7999999999999998 -1 0 0 I I #
vertex $-1 $524 $529 #
straight-curve $-1 0.25 1.5499999999999998 1.7999999999999998 -1 0 0 I I #
cone-surface $-1 0.5 1.7999999999999998 1.7999999999999998 1 0 0 0 -0.25 0 1 I I 0 1 0.25 forward I I I I #
coedge $-1 $376 $376 $374 $456 forward $459 $-1 #
edge $-1 $378 0 $380 3.1415926535897931 $374 $530 forward 7 unknown #
face $-1 $531 $532 $3 $-1 $533 reversed single #
cone-surface $-1 0.5 1.7999999999999998 -1.7999999999999998 -1 0 0 0 -0.25 0 1 I I 0 1 0.25 forward I I I I #
loop $-1 $-1 $376 $534 #
ellipse-curve $-1 0.25 1.7999999999999998 -1.7999999999999996 -1 0 0 0 0.25 -2.2204460492503131e-016 1 I I #
point $-1 0.25 1.5499999999999998 -1.7999999999999998 #
point $-1 0.25 2.0499999999999998 -1.7999999999999998 #
ellipse-curve $-1 0.25 -1.7999999999999998 1.7999999999999998 -1 0 0 0 0.25 0 1 I I #
face $-1 $534 $535 $3 $-1 $536 reversed single #
loop $-1 $-1 $537 $385 #
cone-surface $-1 0.5 1.7999999999999998 -1.7999999999999998 1 0 0 0 0.34999999999999998 0 1 I I 0 1 0.34999999999999998 forward I I I I #
face $-1 $218 $538 $3 $-1 $539 forward single #
loop $-1 $-1 $540 $392 #
cone-surface $-1 0.5 -1.7999999999999998 1.7999999999999998 1 0 0 0 -0.34999999999999998 0 1 I I 0 1 0.34999999999999998 forward I I I I #
coedge $-1 $541 $513 $542 $543 forward $393 $-1 #
loop $-1 $310 $544 $395 #
plane-surface $-1 0.25 -1.7999999999999998 -1.7999999999999998 -1 0 0 0 -1 0 forward_v I I I I #
coedge $-1 $545 $546 $396 $474 forward $547 $-1 #
edge $-1 $413 0 $400 3.9999999997054725 $396 $548 forward 7 unknown #
plane-surface $-1 -0.5 -2.5 2.5 0 -1 0 0 0 -1 forward_v I I I I #
coedge $-1 $549 $398 $404 $482 reversed $478 $-1 #
coedge $-1 $398 $549 $545 $550 forward $478 $-1 #
loop $-1 $-1 $477 $551 #
ellipse-curve $-1 0.25 -2 -2 1 0 0 0 -0.5 2.9452840166754868e-010 1 I I #
point $-1 0.25 -2.5 -1.999999999705472 #
coedge $-1 $404 $403 $552 $553 reversed $405 $-1 #
edge $-1 $554 0 $324 1.570796326794897 $476 $555 forward 7 unknown #
face $-1 $551 $405 $3 $-1 $556 forward single #
coedge $-1 $424 $552 $408 $485 forward $502 $-1 #
edge $-1 $486 0 $428 1.570796111677929 $484 $557 forward 7 unknown #
vertex $-1 $485 $558 #
ellipse-curve $-1 0.24999999999999994 1.999999999593473 -2.25 -3.0029312370061228e-011 1 -7.5608048450214888e-022 0.25000000000000006 7.5073280925153085e-012 6.2945204604147875e-012 1 I I #
torus-surface $-1 0.25 2 -2 -1 0 0 0.24999999999999997 0.25 0 -0.0354827795381727 -0.99937028790946425 forward_v I I I I #
coedge $-1 $559 $411 $546 $560 reversed $491 $-1 #
coedge $-1 $411 $559 $416 $495 forward $491 $-1 #
loop $-1 $-1 $490 $561 #
ellipse-curve $-1 0.25 -2 2 1 0 0 0 2.9452840166754868e-010 0.5 1 I I #
point $-1 0.25 -2.5 2.0000000000000004 #
coedge $-1 $417 $416 $562 $563 reversed $418 $-1 #
edge $-1 $564 0 $338 1.5707963268200786 $416 $565 forward 7 unknown #
face $-1 $253 $418 $3 $-1 $566 forward single #
coedge $-1 $562 $424 $421 $498 forward $502 $-1 #
edge $-1 $426 1.5960768726585701e-009 $499 1.570796111677945 $497 $567 forward 7 unknown #
vertex $-1 $563 $568 #
ellipse-curve $-1 0.25000000000000011 2.0000000000000004 2.25 0 -1 0 0.24999999999999989 0 0 1 I I #
torus-surface $-1 0.25 2 2 -1 0 0 0.24999999999999997 0.25 0 0.99937028790946425 -0.035482779538173588 forward_v I I I I #
loop $-1 $443 $497 $187 #
straight-curve $-1 0.5 2.25 -2.0000000000000009 0 0 1 I I #
point $-1 0.5 2.25 1.9999999999999996 #
point $-1 0.5 2.25 -2.0000000000000009 #
coedge $-1 $569 $515 $517 $570 forward $431 $-1 #
coedge $-1 $517 $433 $544 $571 forward $351 $-1 #
coedge $-1 $515 $569 $433 $509 reversed $431 $-1 #
edge $-1 $518 0 $572 0.25 $508 $573 forward 7 unknown #
loop $-1 $502 $574 $187 #
coedge $-1 $575 $575 $576 $577 reversed $434 $-1 #
coedge $-1 $435 $435 $578 $579 reversed $353 $-1 #
coedge $-1 $470 $580 $435 $514 forward $393 $-1 #
edge $-1 $581 0 $582 3.1415926535897931 $435 $583 forward 7 unknown #
coedge $-1 $506 $508 $436 $516 reversed $431 $-1 #
edge $-1 $519 0 $518 3.1415926535897931 $436 $584 forward 7 unknown #
coedge $-1 $437 $507 $506 $570 reversed $351 $-1 #
vertex $-1 $516 $585 #
vertex $-1 $516 $586 #
ellipse-curve $-1 0.5 -1.7999999999999998 -1.7999999999999998 -1 0 0 0 0.34999999999999987 0 1 I I #
ellipse-curve $-1 0.5 7.0870993518212799e-009 2.1410651029896144e-013 1 0 0 0 -7.0858328458239805e-009 1.4999999999995433 1 I I #
point $-1 0.5 -1.2667002863284881e-012 -1.4999999999997582 #
coedge $-1 $448 $448 $446 $524 reversed $526 $-1 #
edge $-1 $452 0 $450 3.1415926535897931 $446 $587 forward 7 unknown #
cone-surface $-1 0.5 1.7999999999999998 1.7999999999999998 1 0 0 0 -0.25 0 1 I I 0 1 0.25 forward I I I I #
loop $-1 $-1 $448 $588 #
ellipse-curve $-1 0.25 1.7999999999999998 1.7999999999999996 1 0 0 0 0.25 2.2204460492503131e-016 1 I I #
point $-1 0.25 2.0499999999999998 1.7999999999999998 #
point $-1 0.25 1.5499999999999998 1.7999999999999998 #
ellipse-curve $-1 0.25 1.7999999999999998 -1.7999999999999998 -1 0 0 0 -0.25 0 1 I I #
face $-1 $588 $589 $3 $-1 $590 reversed single #
loop $-1 $-1 $591 $457 #
cone-surface $-1 0.5 1.7999999999999998 1.7999999999999998 -1 0 0 0 0.34999999999999998 0 1 I I 0 1 0.34999999999999998 forward I I I I #
face $-1 $294 $592 $3 $-1 $593 forward single #
loop $-1 $-1 $594 $464 #
cone-surface $-1 0.5 1.7999999999999998 -1.7999999999999998 1 0 0 0 0.34999999999999998 0 1 I I 0 1 0.34999999999999998 forward I I I I #
coedge $-1 $595 $576 $596 $597 forward $465 $-1 #
loop $-1 $387 $598 $467 #
plane-surface $-1 0.25 -1.7999999999999998 1.7999999999999998 1 0 0 0 -1 0 forward_v I I I I #
coedge $-1 $599 $578 $580 $600 forward $468 $-1 #
coedge $-1 $580 $470 $598 $601 reversed $393 $-1 #
coedge $-1 $578 $599 $470 $543 reversed $468 $-1 #
edge $-1 $582 0 $602 0.25 $542 $603 forward 7 unknown #
coedge $-1 $604 $604 $507 $571 reversed $471 $-1 #
coedge $-1 $605 $473 $477 $550 reversed $547 $-1 #
coedge $-1 $473 $605 $489 $560 forward $547 $-1 #
loop $-1 $-1 $546 $606 #
straight-curve $-1 0.25 -2.5 2.0000000000000004 0 0 -1 I I #
coedge $-1 $477 $476 $607 $608 reversed $478 $-1 #
edge $-1 $609 0 $400 1.5707963268200786 $545 $610 forward 7 unknown #
face $-1 $606 $478 $3 $-1 $611 forward single #
coedge $-1 $484 $607 $481 $553 forward $502 $-1 #
edge $-1 $554 0 $486 3.9999999996009805 $552 $612 forward 7 unknown #
vertex $-1 $553 $613 #
ellipse-curve $-1 0.25000000000000011 -2 -2.25 0 1 0 0.24999999999999989 0 0 1 I I #
cone-surface $-1 0.25 -2.0124916716871857 -2.25 0 1 0 0 0 -0.25 1 I I 0 1 0.25 forward I I I I #
ellipse-curve $-1 0.5 1.9999999729128448 -1.9999999729088886 1 0 0 0 2.6688135479346897e-008 -0.25000002708481683 1 I I #
point $-1 0.5 1.9999999996009803 -2.2499999999937055 #
coedge $-1 $490 $489 $614 $615 reversed $491 $-1 #
edge $-1 $616 0 $413 1.570796326794897 $489 $617 forward 7 unknown #
face $-1 $496 $491 $3 $-1 $618 forward single #
coedge $-1 $614 $497 $494 $563 forward $502 $-1 #
edge $-1 $499 0 $564 3.9999999996009805 $562 $619 forward 7 unknown #
vertex $-1 $615 $620 #
ellipse-curve $-1 0.25000000000000011 -1.999999999593473 2.2500000000000004 -3.0029312370061247e-011 -1 7.56187170050972e-022 0.24999999999999989 -7.5073280925153085e-012 -6.2954086388344876e-012 1 I I #
cone-surface $-1 0.25 2.0124916716871857 2.25 0 -1 0 0 0 0.25 1 I I 0 1 0.25 forward I I I I #
ellipse-curve $-1 0.5 1.9999999729088902 1.9999999729128468 1 0 0 0 0.25000002708481439 2.6688133480945453e-008 1 I I #
point $-1 0.5 2.0000000000000004 2.25 #
coedge $-1 $508 $506 $604 $621 forward $431 $-1 #
edge $-1 $519 0 $622 0.25 $506 $623 forward 7 unknown #
edge $-1 $572 0 $622 3.1415926535897931 $544 $624 forward 7 unknown #
vertex $-1 $621 $625 #
straight-curve $-1 0.5 -1.4499999999999997 -1.7999999999999996 -1 0 0 I I #
coedge $-1 $626 $626 $627 $628 forward $510 $-1 #
coedge $-1 $511 $511 $629 $630 reversed $434 $-1 #
coedge $-1 $537 $631 $511 $577 forward $465 $-1 #
edge $-1 $632 0 $633 3.1415926535897931 $511 $634 forward 7 unknown #
coedge $-1 $540 $542 $512 $579 forward $468 $-1 #
edge $-1 $582 0 $581 3.1415926535897931 $512 $635 forward 7 unknown #
coedge $-1 $513 $541 $540 $600 reversed $393 $-1 #
vertex $-1 $579 $636 #
vertex $-1 $579 $637 #
ellipse-curve $-1 0.5 -1.7999999999999998 1.7999999999999998 1 0 0 0 0.34999999999999987 0 1 I I #
ellipse-curve $-1 0.5 -1.7999999999999998 -1.7999999999999998 -1 0 0 0 -0.35000000000000009 0 1 I I #
point $-1 0.5 -1.45 -1.7999999999999998 #
point $-1 0.5 -2.1499999999999999 -1.7999999999999998 #
ellipse-curve $-1 0.25 1.7999999999999998 1.7999999999999998 1 0 0 0 -0.25 0 1 I I #
face $-1 $371 $638 $3 $-1 $639 reversed single #
loop $-1 $-1 $640 $531 #
cone-surface $-1 0.5 1.7999999999999998 1.7999999999999998 -1 0 0 0 0.34999999999999998 0 1 I I 0 1 0.34999999999999998 forward I I I I #
coedge $-1 $641 $627 $642 $643 forward $532 $-1 #
loop $-1 $459 $644 $534 #
plane-surface $-1 0.25 1.7999999999999998 -1.7999999999999998 1 0 0 0 1 0 forward_v I I I I #
coedge $-1 $645 $629 $631 $646 forward $535 $-1 #
coedge $-1 $631 $537 $644 $647 reversed $465 $-1 #
coedge $-1 $629 $645 $537 $597 reversed $535 $-1 #
edge $-1 $633 0 $648 0.25 $596 $649 forward 7 unknown #
coedge $-1 $650 $650 $541 $601 forward $538 $-1 #
coedge $-1 $542 $540 $650 $651 reversed $468 $-1 #
edge $-1 $581 0 $652 0.25 $540 $653 forward 7 unknown #
edge $-1 $652 0 $602 3.1415926535897931 $598 $654 forward 7 unknown #
vertex $-1 $651 $655 #
straight-curve $-1 0.5 -2.1499999999999999 1.7999999999999998 -1 0 0 I I #
coedge $-1 $544 $544 $569 $621 reversed $471 $-1 #
coedge $-1 $546 $545 $656 $657 reversed $547 $-1 #
face $-1 $561 $547 $3 $-1 $658 forward single #
coedge $-1 $552 $656 $549 $608 forward $502 $-1 #
edge $-1 $609 0 $554 1.5707961116779441 $607 $659 forward 7 unknown #
vertex $-1 $608 $660 #
ellipse-curve $-1 0.25000000000000011 -2.2500000000000004 -1.999999999593473 -3.0029312370061247e-011 -7.56187170050972e-022 -1 0.24999999999999989 6.2954086388344876e-012 -7.5073280925153085e-012 1 I I #
torus-surface $-1 0.25 -2 -2 -1 0 0 0.24999999999999997 0.25 0 -0.99937028790946425 0.0354827795381727 forward_v I I I I #
straight-curve $-1 0.5 -2 -2.25 0 1 0 I I #
point $-1 0.5 -2 -2.25 #
coedge $-1 $656 $562 $559 $615 forward $502 $-1 #
edge $-1 $564 0 $616 1.5707961116779423 $614 $661 forward 7 unknown #
vertex $-1 $657 $662 #
ellipse-curve $-1 0.25000000000000011 -2.25 2.0000000000000004 0 0 -1 0.24999999999999989 0 0 1 I I #
torus-surface $-1 0.25 -2 2 -1 0 0 0.24999999999999997 0.25 0 0.0354827795381727 0.99937028790946425 forward_v I I I I #
straight-curve $-1 0.5 2.0000000000000004 2.25 0 -1 0 I I #
point $-1 0.5 -1.9999999996009803 2.249999999993705 #
edge $-1 $622 0 $572 3.1415926535897931 $604 $663 forward 7 unknown #
vertex $-1 $621 $664 #
straight-curve $-1 0.5 -2.1499999999999999 -1.7999999999999998 -1 0 0 I I #
ellipse-curve $-1 0.25 -1.7999999999999998 -1.7999999999999998 -1 0 0 0 0.35000000000000009 0 1 I I #
point $-1 0.25 -1.4499999999999997 -1.7999999999999998 #
coedge $-1 $574 $574 $665 $666 forward $510 $-1 #
coedge $-1 $591 $667 $574 $628 reversed $532 $-1 #
edge $-1 $668 0 $669 3.1415926535897931 $574 $670 forward 7 unknown #
coedge $-1 $594 $596 $575 $630 forward $535 $-1 #
edge $-1 $633 0 $632 3.1415926535897931 $575 $671 forward 7 unknown #
coedge $-1 $576 $595 $594 $646 reversed $465 $-1 #
vertex $-1 $630 $672 #
vertex $-1 $630 $673 #
ellipse-curve $-1 0.5 1.7999999999999998 -1.7999999999999998 1 0 0 0 -0.34999999999999987 0 1 I I #
ellipse-curve $-1 0.5 -1.7999999999999998 1.7999999999999998 1 0 0 0 -0.35000000000000009 0 1 I I #
point $-1 0.5 -1.45 1.7999999999999998 #
point $-1 0.5 -2.1499999999999999 1.7999999999999998 #
loop $-1 $526 $674 $588 #
plane-surface $-1 0.25 1.7999999999999998 1.7999999999999998 -1 0 0 0 1 0 forward_v I I I I #
coedge $-1 $675 $665 $667 $676 forward $589 $-1 #
coedge $-1 $667 $591 $674 $677 forward $532 $-1 #
coedge $-1 $665 $675 $591 $643 reversed $589 $-1 #
edge $-1 $668 0 $678 0.25 $642 $679 forward 7 unknown #
coedge $-1 $680 $680 $595 $647 forward $592 $-1 #
coedge $-1 $596 $594 $680 $681 reversed $535 $-1 #
edge $-1 $632 0 $682 0.25 $594 $683 forward 7 unknown #
edge $-1 $682 0 $648 3.1415926535897931 $644 $684 forward 7 unknown #
vertex $-1 $681 $685 #
straight-curve $-1 0.5 2.1499999999999999 -1.7999999999999998 -1 0 0 I I #
coedge $-1 $598 $598 $599 $651 forward $538 $-1 #
edge $-1 $602 0 $652 3.1415926535897931 $650 $686 forward 7 unknown #
vertex $-1 $651 $687 #
straight-curve $-1 0.5 -1.4499999999999997 1.7999999999999996 -1 0 0 I I #
ellipse-curve $-1 0.25 -1.7999999999999998 1.7999999999999998 1 0 0 0 0.35000000000000009 0 1 I I #
point $-1 0.25 -2.1499999999999999 1.7999999999999998 #
coedge $-1 $607 $614 $605 $657 forward $502 $-1 #
edge $-1 $616 0 $609 3.9999999996009805 $656 $688 forward 7 unknown #
cone-surface $-1 0.25 -2.25 2.0124916716871857 0 0 -1 0 -0.25 0 1 I I 0 1 0.25 forward I I I I #
ellipse-curve $-1 0.5 -1.99999997290889 -1.9999999729128464 1 0 0 0 -0.25000002708481506 -2.6688133925034663e-008 1 I I #
point $-1 0.5 -2.249999999993705 -1.9999999996009803 #
ellipse-curve $-1 0.5 -1.9999999729128464 1.99999997290889 1 0 0 0 -2.6688133925034663e-008 0.25000002708481506 1 I I #
point $-1 0.5 -2.25 2.0000000000000004 #
ellipse-curve $-1 0.25 -1.7999999999999998 -1.7999999999999998 -1 0 0 0 -0.35000000000000009 0 1 I I #
point $-1 0.25 -2.1499999999999999 -1.7999999999999998 #
coedge $-1 $640 $642 $626 $666 reversed $589 $-1 #
edge $-1 $669 0 $668 3.1415926535897931 $626 $689 forward 7 unknown #
coedge $-1 $627 $641 $640 $676 reversed $532 $-1 #
vertex $-1 $666 $690 #
vertex $-1 $666 $691 #
ellipse-curve $-1 0.5 1.7999999999999998 1.7999999999999998 -1 0 0 0 -0.34999999999999987 0 1 I I #
ellipse-curve $-1 0.5 1.7999999999999998 -1.7999999999999998 1 0 0 0 0.35000000000000009 0 1 I I #
point $-1 0.5 1.45 -1.7999999999999998 #
point $-1 0.5 2.1499999999999999 -1.7999999999999998 #
coedge $-1 $692 $692 $641 $677 reversed $638 $-1 #
coedge $-1 $642 $640 $692 $693 forward $589 $-1 #
edge $-1 $669 0 $694 0.25 $640 $695 forward 7 unknown #
edge $-1 $678 0 $694 3.1415926535897931 $674 $696 forward 7 unknown #
vertex $-1 $693 $697 #
straight-curve $-1 0.5 1.4499999999999997 1.7999999999999996 -1 0 0 I I #
coedge $-1 $644 $644 $645 $681 forward $592 $-1 #
edge $-1 $648 0 $682 3.1415926535897931 $680 $698 forward 7 unknown #
vertex $-1 $681 $699 #
straight-curve $-1 0.5 1.4499999999999997 -1.7999999999999996 -1 0 0 I I #
ellipse-curve $-1 0.25 1.7999999999999998 -1.7999999999999998 1 0 0 0 -0.35000000000000009 0 1 I I #
point $-1 0.25 2.1499999999999999 -1.7999999999999998 #
ellipse-curve $-1 0.25 -1.7999999999999998 1.7999999999999998 1 0 0 0 -0.35000000000000009 0 1 I I #
point $-1 0.25 -1.4499999999999997 1.7999999999999998 #
straight-curve $-1 0.5 -2.25 2.0000000000000004 0 0 -1 I I #
ellipse-curve $-1 0.5 1.7999999999999998 1.7999999999999998 -1 0 0 0 0.35000000000000009 0 1 I I #
point $-1 0.5 1.45 1.7999999999999998 #
point $-1 0.5 2.1499999999999999 1.7999999999999998 #
coedge $-1 $674 $674 $675 $693 reversed $638 $-1 #
edge $-1 $694 0 $678 3.1415926535897931 $692 $700 forward 7 unknown #
vertex $-1 $693 $701 #
straight-curve $-1 0.5 2.1499999999999999 1.7999999999999998 -1 0 0 I I #
ellipse-curve $-1 0.25 1.7999999999999998 1.7999999999999998 -1 0 0 0 -0.35000000000000009 0 1 I I #
point $-1 0.25 1.4499999999999997 1.7999999999999998 #
ellipse-curve $-1 0.25 1.7999999999999998 -1.7999999999999998 1 0 0 0 0.35000000000000009 0 1 I I #
point $-1 0.25 1.4499999999999997 -1.7999999999999998 #
ellipse-curve $-1 0.25 1.7999999999999998 1.7999999999999998 -1 0 0 0 0.35000000000000009 0 1 I I #
point $-1 0.25 2.1499999999999999 1.7999999999999998 #
End-of-ACIS-data 